{
  "id": "chuvas-de-graca",
  "title": "Chuvas de Graca",
  "artist": "Daniel W. Whittle",
  "difficulty": "Difícil",
  "bpm": 60,
  "duration": 199,
  "category": "Religiosos",
  "isPremium": false,
  "coverUrl": "/images/covers/placeholder.png",
  "notes": [
    {
      "midi": 63,
      "time": 0,
      "duration": 0.25,
      "velocity": 0.82,
      "hand": "right"
    },
    {
      "midi": 69,
      "time": 0,
      "duration": 0.25,
      "velocity": 0.82,
      "hand": "right"
    },
    {
      "midi": 63,
      "time": 0.5,
      "duration": 0.25,
      "velocity": 0.82,
      "hand": "right"
    },
    {
      "midi": 69,
      "time": 0.5,
      "duration": 0.25,
      "velocity": 0.82,
      "hand": "right"
    },
    {
      "midi": 63,
      "time": 1,
      "duration": 0.25,
      "velocity": 0.82,
      "hand": "right"
    },
    {
      "midi": 69,
      "time": 1,
      "duration": 0.25,
      "velocity": 0.82,
      "hand": "right"
    },
    {
      "midi": 63,
      "time": 1.5,
      "duration": 0.25,
      "velocity": 0.82,
      "hand": "right"
    },
    {
      "midi": 69,
      "time": 1.5,
      "duration": 0.25,
      "velocity": 0.82,
      "hand": "right"
    },
    {
      "midi": 63,
      "time": 2,
      "duration": 0.25,
      "velocity": 0.82,
      "hand": "right"
    },
    {
      "midi": 70,
      "time": 2,
      "duration": 0.25,
      "velocity": 0.82,
      "hand": "right"
    },
    {
      "midi": 63,
      "time": 2.5,
      "duration": 0.25,
      "velocity": 0.82,
      "hand": "right"
    },
    {
      "midi": 72,
      "time": 2.5,
      "duration": 0.25,
      "velocity": 0.82,
      "hand": "right"
    },
    {
      "midi": 46,
      "time": 3,
      "duration": 2.75,
      "velocity": 0.86,
      "hand": "left"
    },
    {
      "midi": 58,
      "time": 3,
      "duration": 2.75,
      "velocity": 0.86,
      "hand": "left"
    },
    {
      "midi": 62,
      "time": 3,
      "duration": 2.75,
      "velocity": 0.82,
      "hand": "right"
    },
    {
      "midi": 70,
      "time": 3,
      "duration": 2.75,
      "velocity": 0.82,
      "hand": "right"
    },
    {
      "midi": 38,
      "time": 5.25,
      "duration": 0.25,
      "velocity": 0.82,
      "hand": "left"
    },
    {
      "midi": 47,
      "time": 5.5,
      "duration": 0.25,
      "velocity": 0.82,
      "hand": "left"
    },
    {
      "midi": 45,
      "time": 5.75,
      "duration": 0.235,
      "velocity": 0.82,
      "hand": "left"
    },
    {
      "midi": 46,
      "time": 6,
      "duration": 0.25,
      "velocity": 0.86,
      "hand": "left"
    },
    {
      "midi": 62,
      "time": 6,
      "duration": 0.25,
      "velocity": 0.82,
      "hand": "right"
    },
    {
      "midi": 65,
      "time": 6,
      "duration": 0.25,
      "velocity": 0.82,
      "hand": "right"
    },
    {
      "midi": 46,
      "time": 6.5,
      "duration": 0.25,
      "velocity": 0.86,
      "hand": "left"
    },
    {
      "midi": 52,
      "time": 6.5,
      "duration": 0.25,
      "velocity": 0.82,
      "hand": "left"
    },
    {
      "midi": 62,
      "time": 6.5,
      "duration": 0.25,
      "velocity": 0.82,
      "hand": "right"
    },
    {
      "midi": 65,
      "time": 6.5,
      "duration": 0.25,
      "velocity": 0.82,
      "hand": "right"
    },
    {
      "midi": 46,
      "time": 7,
      "duration": 0.25,
      "velocity": 0.86,
      "hand": "left"
    },
    {
      "midi": 62,
      "time": 7,
      "duration": 0.25,
      "velocity": 0.82,
      "hand": "right"
    },
    {
      "midi": 65,
      "time": 7,
      "duration": 0.25,
      "velocity": 0.82,
      "hand": "right"
    },
    {
      "midi": 45,
      "time": 7.5,
      "duration": 0.25,
      "velocity": 0.82,
      "hand": "left"
    },
    {
      "midi": 53,
      "time": 7.5,
      "duration": 0.25,
      "velocity": 0.86,
      "hand": "left"
    },
    {
      "midi": 63,
      "time": 7.5,
      "duration": 0.25,
      "velocity": 0.82,
      "hand": "right"
    },
    {
      "midi": 65,
      "time": 7.5,
      "duration": 0.25,
      "velocity": 0.82,
      "hand": "right"
    },
    {
      "midi": 53,
      "time": 8,
      "duration": 0.25,
      "velocity": 0.86,
      "hand": "left"
    },
    {
      "midi": 60,
      "time": 8,
      "duration": 0.25,
      "velocity": 0.82,
      "hand": "right"
    },
    {
      "midi": 63,
      "time": 8,
      "duration": 0.25,
      "velocity": 0.82,
      "hand": "right"
    },
    {
      "midi": 67,
      "time": 8,
      "duration": 0.25,
      "velocity": 0.82,
      "hand": "right"
    },
    {
      "midi": 38,
      "time": 8.5,
      "duration": 0.25,
      "velocity": 0.82,
      "hand": "left"
    },
    {
      "midi": 45,
      "time": 8.5,
      "duration": 0.25,
      "velocity": 0.82,
      "hand": "left"
    },
    {
      "midi": 60,
      "time": 8.5,
      "duration": 0.25,
      "velocity": 0.86,
      "hand": "right"
    },
    {
      "midi": 63,
      "time": 8.5,
      "duration": 0.25,
      "velocity": 0.82,
      "hand": "right"
    },
    {
      "midi": 69,
      "time": 8.5,
      "duration": 0.25,
      "velocity": 0.82,
      "hand": "right"
    },
    {
      "midi": 46,
      "time": 9,
      "duration": 1,
      "velocity": 0.86,
      "hand": "left"
    },
    {
      "midi": 62,
      "time": 9,
      "duration": 1,
      "velocity": 0.82,
      "hand": "right"
    },
    {
      "midi": 70,
      "time": 9,
      "duration": 1,
      "velocity": 0.82,
      "hand": "right"
    },
    {
      "midi": 52,
      "time": 9.5,
      "duration": 0.25,
      "velocity": 0.82,
      "hand": "left"
    },
    {
      "midi": 45,
      "time": 10,
      "duration": 0.25,
      "velocity": 0.82,
      "hand": "left"
    },
    {
      "midi": 46,
      "time": 10.5,
      "duration": 1,
      "velocity": 0.86,
      "hand": "left"
    },
    {
      "midi": 62,
      "time": 10.5,
      "duration": 0.985,
      "velocity": 0.82,
      "hand": "right"
    },
    {
      "midi": 65,
      "time": 10.5,
      "duration": 1,
      "velocity": 0.82,
      "hand": "right"
    },
    {
      "midi": 52,
      "time": 11,
      "duration": 0.25,
      "velocity": 0.82,
      "hand": "left"
    },
    {
      "midi": 60,
      "time": 11,
      "duration": 0.25,
      "velocity": 0.82,
      "hand": "right"
    },
    {
      "midi": 38,
      "time": 11.5,
      "duration": 0.25,
      "velocity": 0.82,
      "hand": "left"
    },
    {
      "midi": 45,
      "time": 11.5,
      "duration": 0.25,
      "velocity": 0.82,
      "hand": "left"
    },
    {
      "midi": 62,
      "time": 11.5,
      "duration": 0.25,
      "velocity": 0.86,
      "hand": "right"
    },
    {
      "midi": 45,
      "time": 12,
      "duration": 0.25,
      "velocity": 0.82,
      "hand": "left"
    },
    {
      "midi": 53,
      "time": 12,
      "duration": 0.25,
      "velocity": 0.86,
      "hand": "left"
    },
    {
      "midi": 60,
      "time": 12,
      "duration": 0.25,
      "velocity": 0.86,
      "hand": "right"
    },
    {
      "midi": 65,
      "time": 12,
      "duration": 0.25,
      "velocity": 0.82,
      "hand": "right"
    },
    {
      "midi": 69,
      "time": 12,
      "duration": 0.25,
      "velocity": 0.82,
      "hand": "right"
    },
    {
      "midi": 53,
      "time": 12.5,
      "duration": 0.25,
      "velocity": 0.86,
      "hand": "left"
    },
    {
      "midi": 60,
      "time": 12.5,
      "duration": 0.25,
      "velocity": 0.86,
      "hand": "right"
    },
    {
      "midi": 65,
      "time": 12.5,
      "duration": 0.25,
      "velocity": 0.82,
      "hand": "right"
    },
    {
      "midi": 69,
      "time": 12.5,
      "duration": 0.25,
      "velocity": 0.82,
      "hand": "right"
    },
    {
      "midi": 45,
      "time": 13,
      "duration": 0.25,
      "velocity": 0.82,
      "hand": "left"
    },
    {
      "midi": 53,
      "time": 13,
      "duration": 0.25,
      "velocity": 0.86,
      "hand": "left"
    },
    {
      "midi": 60,
      "time": 13,
      "duration": 0.25,
      "velocity": 0.86,
      "hand": "right"
    },
    {
      "midi": 65,
      "time": 13,
      "duration": 0.25,
      "velocity": 0.82,
      "hand": "right"
    },
    {
      "midi": 69,
      "time": 13,
      "duration": 0.25,
      "velocity": 0.82,
      "hand": "right"
    },
    {
      "midi": 45,
      "time": 13.5,
      "duration": 0.25,
      "velocity": 0.82,
      "hand": "left"
    },
    {
      "midi": 53,
      "time": 13.5,
      "duration": 0.25,
      "velocity": 0.86,
      "hand": "left"
    },
    {
      "midi": 60,
      "time": 13.5,
      "duration": 0.25,
      "velocity": 0.86,
      "hand": "right"
    },
    {
      "midi": 63,
      "time": 13.5,
      "duration": 0.25,
      "velocity": 0.82,
      "hand": "right"
    },
    {
      "midi": 69,
      "time": 13.5,
      "duration": 0.25,
      "velocity": 0.82,
      "hand": "right"
    },
    {
      "midi": 53,
      "time": 14,
      "duration": 0.25,
      "velocity": 0.86,
      "hand": "left"
    },
    {
      "midi": 60,
      "time": 14,
      "duration": 0.25,
      "velocity": 0.82,
      "hand": "right"
    },
    {
      "midi": 63,
      "time": 14,
      "duration": 0.25,
      "velocity": 0.82,
      "hand": "right"
    },
    {
      "midi": 70,
      "time": 14,
      "duration": 0.25,
      "velocity": 0.82,
      "hand": "right"
    },
    {
      "midi": 38,
      "time": 14.5,
      "duration": 0.25,
      "velocity": 0.82,
      "hand": "left"
    },
    {
      "midi": 45,
      "time": 14.5,
      "duration": 0.25,
      "velocity": 0.82,
      "hand": "left"
    },
    {
      "midi": 63,
      "time": 14.5,
      "duration": 0.25,
      "velocity": 0.82,
      "hand": "right"
    },
    {
      "midi": 72,
      "time": 14.5,
      "duration": 0.25,
      "velocity": 0.82,
      "hand": "right"
    },
    {
      "midi": 46,
      "time": 15,
      "duration": 1.485,
      "velocity": 0.86,
      "hand": "left"
    },
    {
      "midi": 62,
      "time": 15,
      "duration": 1.485,
      "velocity": 0.82,
      "hand": "right"
    },
    {
      "midi": 70,
      "time": 15,
      "duration": 1.485,
      "velocity": 0.88,
      "hand": "right"
    },
    {
      "midi": 52,
      "time": 15.5,
      "duration": 0.25,
      "velocity": 0.82,
      "hand": "left"
    },
    {
      "midi": 60,
      "time": 15.5,
      "duration": 0.25,
      "velocity": 0.82,
      "hand": "right"
    },
    {
      "midi": 52,
      "time": 16,
      "duration": 0.25,
      "velocity": 0.82,
      "hand": "left"
    },
    {
      "midi": 60,
      "time": 16,
      "duration": 0.25,
      "velocity": 0.82,
      "hand": "right"
    },
    {
      "midi": 46,
      "time": 16.5,
      "duration": 1,
      "velocity": 0.86,
      "hand": "left"
    },
    {
      "midi": 52,
      "time": 16.5,
      "duration": 0.25,
      "velocity": 0.82,
      "hand": "left"
    },
    {
      "midi": 60,
      "time": 16.5,
      "duration": 0.25,
      "velocity": 0.82,
      "hand": "right"
    },
    {
      "midi": 62,
      "time": 16.5,
      "duration": 1,
      "velocity": 0.82,
      "hand": "right"
    },
    {
      "midi": 70,
      "time": 16.5,
      "duration": 1,
      "velocity": 0.82,
      "hand": "right"
    },
    {
      "midi": 48,
      "time": 17,
      "duration": 0.25,
      "velocity": 0.82,
      "hand": "left"
    },
    {
      "midi": 47,
      "time": 17.25,
      "duration": 0.235,
      "velocity": 0.82,
      "hand": "left"
    },
    {
      "midi": 47,
      "time": 17.5,
      "duration": 0.25,
      "velocity": 0.82,
      "hand": "left"
    },
    {
      "midi": 45,
      "time": 17.75,
      "duration": 0.235,
      "velocity": 0.82,
      "hand": "left"
    },
    {
      "midi": 45,
      "time": 18,
      "duration": 0.25,
      "velocity": 0.82,
      "hand": "left"
    },
    {
      "midi": 51,
      "time": 18,
      "duration": 0.25,
      "velocity": 0.86,
      "hand": "left"
    },
    {
      "midi": 63,
      "time": 18,
      "duration": 0.25,
      "velocity": 0.82,
      "hand": "right"
    },
    {
      "midi": 67,
      "time": 18,
      "duration": 0.25,
      "velocity": 0.82,
      "hand": "right"
    },
    {
      "midi": 52,
      "time": 18.5,
      "duration": 0.25,
      "velocity": 0.82,
      "hand": "left"
    },
    {
      "midi": 63,
      "time": 18.5,
      "duration": 0.25,
      "velocity": 0.82,
      "hand": "right"
    },
    {
      "midi": 67,
      "time": 18.5,
      "duration": 0.25,
      "velocity": 0.82,
      "hand": "right"
    },
    {
      "midi": 45,
      "time": 19,
      "duration": 0.25,
      "velocity": 0.82,
      "hand": "left"
    },
    {
      "midi": 51,
      "time": 19,
      "duration": 0.25,
      "velocity": 0.86,
      "hand": "left"
    },
    {
      "midi": 63,
      "time": 19,
      "duration": 0.25,
      "velocity": 0.82,
      "hand": "right"
    },
    {
      "midi": 67,
      "time": 19,
      "duration": 0.25,
      "velocity": 0.82,
      "hand": "right"
    },
    {
      "midi": 45,
      "time": 19.5,
      "duration": 0.25,
      "velocity": 0.82,
      "hand": "left"
    },
    {
      "midi": 51,
      "time": 19.5,
      "duration": 0.25,
      "velocity": 0.86,
      "hand": "left"
    },
    {
      "midi": 67,
      "time": 19.5,
      "duration": 0.25,
      "velocity": 0.82,
      "hand": "right"
    },
    {
      "midi": 70,
      "time": 19.5,
      "duration": 0.25,
      "velocity": 0.82,
      "hand": "right"
    },
    {
      "midi": 52,
      "time": 20,
      "duration": 0.25,
      "velocity": 0.82,
      "hand": "left"
    },
    {
      "midi": 60,
      "time": 20,
      "duration": 0.25,
      "velocity": 0.82,
      "hand": "right"
    },
    {
      "midi": 65,
      "time": 20,
      "duration": 0.25,
      "velocity": 0.82,
      "hand": "right"
    },
    {
      "midi": 69,
      "time": 20,
      "duration": 0.25,
      "velocity": 0.82,
      "hand": "right"
    },
    {
      "midi": 38,
      "time": 20.5,
      "duration": 0.25,
      "velocity": 0.82,
      "hand": "left"
    },
    {
      "midi": 45,
      "time": 20.5,
      "duration": 0.25,
      "velocity": 0.82,
      "hand": "left"
    },
    {
      "midi": 63,
      "time": 20.5,
      "duration": 0.25,
      "velocity": 0.82,
      "hand": "right"
    },
    {
      "midi": 67,
      "time": 20.5,
      "duration": 0.25,
      "velocity": 0.82,
      "hand": "right"
    },
    {
      "midi": 46,
      "time": 21,
      "duration": 1,
      "velocity": 0.86,
      "hand": "left"
    },
    {
      "midi": 62,
      "time": 21,
      "duration": 1,
      "velocity": 0.82,
      "hand": "right"
    },
    {
      "midi": 65,
      "time": 21,
      "duration": 1,
      "velocity": 0.82,
      "hand": "right"
    },
    {
      "midi": 52,
      "time": 21.5,
      "duration": 0.25,
      "velocity": 0.82,
      "hand": "left"
    },
    {
      "midi": 45,
      "time": 22,
      "duration": 0.25,
      "velocity": 0.82,
      "hand": "left"
    },
    {
      "midi": 45,
      "time": 22.5,
      "duration": 0.25,
      "velocity": 0.82,
      "hand": "left"
    },
    {
      "midi": 50,
      "time": 22.5,
      "duration": 1,
      "velocity": 0.86,
      "hand": "left"
    },
    {
      "midi": 65,
      "time": 22.5,
      "duration": 1,
      "velocity": 0.82,
      "hand": "right"
    },
    {
      "midi": 70,
      "time": 22.5,
      "duration": 1,
      "velocity": 0.82,
      "hand": "right"
    },
    {
      "midi": 52,
      "time": 23,
      "duration": 0.25,
      "velocity": 0.82,
      "hand": "left"
    },
    {
      "midi": 60,
      "time": 23,
      "duration": 0.25,
      "velocity": 0.82,
      "hand": "right"
    },
    {
      "midi": 38,
      "time": 23.5,
      "duration": 0.25,
      "velocity": 0.82,
      "hand": "left"
    },
    {
      "midi": 45,
      "time": 23.5,
      "duration": 0.25,
      "velocity": 0.82,
      "hand": "left"
    },
    {
      "midi": 45,
      "time": 24,
      "duration": 0.25,
      "velocity": 0.82,
      "hand": "left"
    },
    {
      "midi": 55,
      "time": 24,
      "duration": 0.25,
      "velocity": 0.86,
      "hand": "left"
    },
    {
      "midi": 62,
      "time": 24,
      "duration": 0.25,
      "velocity": 0.86,
      "hand": "right"
    },
    {
      "midi": 67,
      "time": 24,
      "duration": 0.25,
      "velocity": 0.82,
      "hand": "right"
    },
    {
      "midi": 70,
      "time": 24,
      "duration": 0.25,
      "velocity": 0.82,
      "hand": "right"
    },
    {
      "midi": 52,
      "time": 24.5,
      "duration": 0.25,
      "velocity": 0.82,
      "hand": "left"
    },
    {
      "midi": 55,
      "time": 24.5,
      "duration": 0.25,
      "velocity": 0.86,
      "hand": "left"
    },
    {
      "midi": 62,
      "time": 24.5,
      "duration": 0.25,
      "velocity": 0.86,
      "hand": "right"
    },
    {
      "midi": 67,
      "time": 24.5,
      "duration": 0.25,
      "velocity": 0.82,
      "hand": "right"
    },
    {
      "midi": 70,
      "time": 24.5,
      "duration": 0.25,
      "velocity": 0.82,
      "hand": "right"
    },
    {
      "midi": 45,
      "time": 25,
      "duration": 0.25,
      "velocity": 0.82,
      "hand": "left"
    },
    {
      "midi": 53,
      "time": 25,
      "duration": 0.25,
      "velocity": 0.86,
      "hand": "left"
    },
    {
      "midi": 62,
      "time": 25,
      "duration": 0.25,
      "velocity": 0.86,
      "hand": "right"
    },
    {
      "midi": 67,
      "time": 25,
      "duration": 0.25,
      "velocity": 0.82,
      "hand": "right"
    },
    {
      "midi": 70,
      "time": 25,
      "duration": 0.25,
      "velocity": 0.82,
      "hand": "right"
    },
    {
      "midi": 45,
      "time": 25.5,
      "duration": 0.25,
      "velocity": 0.82,
      "hand": "left"
    },
    {
      "midi": 51,
      "time": 25.5,
      "duration": 0.25,
      "velocity": 0.86,
      "hand": "left"
    },
    {
      "midi": 63,
      "time": 25.5,
      "duration": 0.25,
      "velocity": 0.86,
      "hand": "right"
    },
    {
      "midi": 67,
      "time": 25.5,
      "duration": 0.25,
      "velocity": 0.82,
      "hand": "right"
    },
    {
      "midi": 70,
      "time": 25.5,
      "duration": 0.25,
      "velocity": 0.82,
      "hand": "right"
    },
    {
      "midi": 52,
      "time": 26,
      "duration": 0.25,
      "velocity": 0.82,
      "hand": "left"
    },
    {
      "midi": 60,
      "time": 26,
      "duration": 0.25,
      "velocity": 0.86,
      "hand": "right"
    },
    {
      "midi": 66,
      "time": 26,
      "duration": 0.25,
      "velocity": 0.82,
      "hand": "right"
    },
    {
      "midi": 69,
      "time": 26,
      "duration": 0.25,
      "velocity": 0.82,
      "hand": "right"
    },
    {
      "midi": 38,
      "time": 26.5,
      "duration": 0.25,
      "velocity": 0.82,
      "hand": "left"
    },
    {
      "midi": 45,
      "time": 26.5,
      "duration": 0.25,
      "velocity": 0.82,
      "hand": "left"
    },
    {
      "midi": 67,
      "time": 26.5,
      "duration": 0.25,
      "velocity": 0.82,
      "hand": "right"
    },
    {
      "midi": 70,
      "time": 26.5,
      "duration": 0.25,
      "velocity": 0.82,
      "hand": "right"
    },
    {
      "midi": 45,
      "time": 27,
      "duration": 0.25,
      "velocity": 0.82,
      "hand": "left"
    },
    {
      "midi": 53,
      "time": 27,
      "duration": 1.485,
      "velocity": 0.86,
      "hand": "left"
    },
    {
      "midi": 69,
      "time": 27,
      "duration": 1.485,
      "velocity": 0.82,
      "hand": "right"
    },
    {
      "midi": 72,
      "time": 27,
      "duration": 1.485,
      "velocity": 0.88,
      "hand": "right"
    },
    {
      "midi": 52,
      "time": 27.5,
      "duration": 0.25,
      "velocity": 0.82,
      "hand": "left"
    },
    {
      "midi": 60,
      "time": 27.5,
      "duration": 0.25,
      "velocity": 0.82,
      "hand": "right"
    },
    {
      "midi": 52,
      "time": 28,
      "duration": 0.25,
      "velocity": 0.82,
      "hand": "left"
    },
    {
      "midi": 60,
      "time": 28,
      "duration": 0.25,
      "velocity": 0.82,
      "hand": "right"
    },
    {
      "midi": 53,
      "time": 28.5,
      "duration": 1,
      "velocity": 0.86,
      "hand": "left"
    },
    {
      "midi": 60,
      "time": 28.5,
      "duration": 0.25,
      "velocity": 0.82,
      "hand": "right"
    },
    {
      "midi": 63,
      "time": 28.5,
      "duration": 1,
      "velocity": 0.86,
      "hand": "right"
    },
    {
      "midi": 69,
      "time": 28.5,
      "duration": 1,
      "velocity": 0.82,
      "hand": "right"
    },
    {
      "midi": 72,
      "time": 28.5,
      "duration": 1,
      "velocity": 0.82,
      "hand": "right"
    },
    {
      "midi": 48,
      "time": 29,
      "duration": 0.25,
      "velocity": 0.82,
      "hand": "left"
    },
    {
      "midi": 47,
      "time": 29.25,
      "duration": 0.235,
      "velocity": 0.82,
      "hand": "left"
    },
    {
      "midi": 47,
      "time": 29.5,
      "duration": 0.25,
      "velocity": 0.82,
      "hand": "left"
    },
    {
      "midi": 45,
      "time": 29.75,
      "duration": 0.235,
      "velocity": 0.82,
      "hand": "left"
    },
    {
      "midi": 46,
      "time": 30,
      "duration": 0.75,
      "velocity": 0.86,
      "hand": "left"
    },
    {
      "midi": 62,
      "time": 30,
      "duration": 0.75,
      "velocity": 0.86,
      "hand": "right"
    },
    {
      "midi": 70,
      "time": 30,
      "duration": 0.75,
      "velocity": 0.82,
      "hand": "right"
    },
    {
      "midi": 74,
      "time": 30,
      "duration": 1.485,
      "velocity": 0.88,
      "hand": "right"
    },
    {
      "midi": 52,
      "time": 30.5,
      "duration": 0.25,
      "velocity": 0.82,
      "hand": "left"
    },
    {
      "midi": 58,
      "time": 30.5,
      "duration": 0.25,
      "velocity": 0.86,
      "hand": "left"
    },
    {
      "midi": 65,
      "time": 30.5,
      "duration": 0.25,
      "velocity": 0.82,
      "hand": "right"
    },
    {
      "midi": 46,
      "time": 31,
      "duration": 0.25,
      "velocity": 0.86,
      "hand": "left"
    },
    {
      "midi": 65,
      "time": 31,
      "duration": 0.25,
      "velocity": 0.82,
      "hand": "right"
    },
    {
      "midi": 46,
      "time": 31.5,
      "duration": 0.25,
      "velocity": 0.86,
      "hand": "left"
    },
    {
      "midi": 74,
      "time": 31.5,
      "duration": 0.25,
      "velocity": 0.82,
      "hand": "right"
    },
    {
      "midi": 46,
      "time": 32,
      "duration": 0.25,
      "velocity": 0.86,
      "hand": "left"
    },
    {
      "midi": 52,
      "time": 32,
      "duration": 0.25,
      "velocity": 0.82,
      "hand": "left"
    },
    {
      "midi": 60,
      "time": 32,
      "duration": 0.25,
      "velocity": 0.82,
      "hand": "right"
    },
    {
      "midi": 64,
      "time": 32,
      "duration": 0.25,
      "velocity": 0.82,
      "hand": "right"
    },
    {
      "midi": 73,
      "time": 32,
      "duration": 0.25,
      "velocity": 0.82,
      "hand": "right"
    },
    {
      "midi": 38,
      "time": 32.5,
      "duration": 0.25,
      "velocity": 0.82,
      "hand": "left"
    },
    {
      "midi": 45,
      "time": 32.5,
      "duration": 0.25,
      "velocity": 0.82,
      "hand": "left"
    },
    {
      "midi": 65,
      "time": 32.5,
      "duration": 0.25,
      "velocity": 0.82,
      "hand": "right"
    },
    {
      "midi": 74,
      "time": 32.5,
      "duration": 0.25,
      "velocity": 0.82,
      "hand": "right"
    },
    {
      "midi": 46,
      "time": 33,
      "duration": 1,
      "velocity": 0.86,
      "hand": "left"
    },
    {
      "midi": 62,
      "time": 33,
      "duration": 1,
      "velocity": 0.82,
      "hand": "right"
    },
    {
      "midi": 70,
      "time": 33,
      "duration": 1,
      "velocity": 0.82,
      "hand": "right"
    },
    {
      "midi": 52,
      "time": 33.5,
      "duration": 0.25,
      "velocity": 0.82,
      "hand": "left"
    },
    {
      "midi": 45,
      "time": 34,
      "duration": 0.25,
      "velocity": 0.82,
      "hand": "left"
    },
    {
      "midi": 46,
      "time": 34.5,
      "duration": 1,
      "velocity": 0.86,
      "hand": "left"
    },
    {
      "midi": 62,
      "time": 34.5,
      "duration": 1,
      "velocity": 0.82,
      "hand": "right"
    },
    {
      "midi": 65,
      "time": 34.5,
      "duration": 1,
      "velocity": 0.82,
      "hand": "right"
    },
    {
      "midi": 52,
      "time": 35,
      "duration": 0.25,
      "velocity": 0.82,
      "hand": "left"
    },
    {
      "midi": 60,
      "time": 35,
      "duration": 0.25,
      "velocity": 0.82,
      "hand": "right"
    },
    {
      "midi": 38,
      "time": 35.5,
      "duration": 0.25,
      "velocity": 0.82,
      "hand": "left"
    },
    {
      "midi": 45,
      "time": 35.5,
      "duration": 0.25,
      "velocity": 0.82,
      "hand": "left"
    },
    {
      "midi": 46,
      "time": 36,
      "duration": 0.25,
      "velocity": 0.86,
      "hand": "left"
    },
    {
      "midi": 65,
      "time": 36,
      "duration": 0.25,
      "velocity": 0.82,
      "hand": "right"
    },
    {
      "midi": 74,
      "time": 36,
      "duration": 0.25,
      "velocity": 0.82,
      "hand": "right"
    },
    {
      "midi": 46,
      "time": 36.5,
      "duration": 0.25,
      "velocity": 0.86,
      "hand": "left"
    },
    {
      "midi": 52,
      "time": 36.5,
      "duration": 0.25,
      "velocity": 0.82,
      "hand": "left"
    },
    {
      "midi": 63,
      "time": 36.5,
      "duration": 0.25,
      "velocity": 0.82,
      "hand": "right"
    },
    {
      "midi": 72,
      "time": 36.5,
      "duration": 0.25,
      "velocity": 0.82,
      "hand": "right"
    },
    {
      "midi": 46,
      "time": 37,
      "duration": 0.25,
      "velocity": 0.86,
      "hand": "left"
    },
    {
      "midi": 62,
      "time": 37,
      "duration": 0.25,
      "velocity": 0.82,
      "hand": "right"
    },
    {
      "midi": 70,
      "time": 37,
      "duration": 0.25,
      "velocity": 0.82,
      "hand": "right"
    },
    {
      "midi": 45,
      "time": 37.5,
      "duration": 0.25,
      "velocity": 0.82,
      "hand": "left"
    },
    {
      "midi": 50,
      "time": 37.5,
      "duration": 0.25,
      "velocity": 0.86,
      "hand": "left"
    },
    {
      "midi": 65,
      "time": 37.5,
      "duration": 0.25,
      "velocity": 0.82,
      "hand": "right"
    },
    {
      "midi": 70,
      "time": 37.5,
      "duration": 0.25,
      "velocity": 0.82,
      "hand": "right"
    },
    {
      "midi": 48,
      "time": 38,
      "duration": 0.25,
      "velocity": 0.86,
      "hand": "left"
    },
    {
      "midi": 52,
      "time": 38,
      "duration": 0.25,
      "velocity": 0.82,
      "hand": "left"
    },
    {
      "midi": 60,
      "time": 38,
      "duration": 0.25,
      "velocity": 0.82,
      "hand": "right"
    },
    {
      "midi": 63,
      "time": 38,
      "duration": 0.25,
      "velocity": 0.82,
      "hand": "right"
    },
    {
      "midi": 69,
      "time": 38,
      "duration": 0.25,
      "velocity": 0.82,
      "hand": "right"
    },
    {
      "midi": 38,
      "time": 38.5,
      "duration": 0.25,
      "velocity": 0.82,
      "hand": "left"
    },
    {
      "midi": 45,
      "time": 38.5,
      "duration": 0.25,
      "velocity": 0.82,
      "hand": "left"
    },
    {
      "midi": 62,
      "time": 38.5,
      "duration": 0.25,
      "velocity": 0.82,
      "hand": "right"
    },
    {
      "midi": 70,
      "time": 38.5,
      "duration": 0.25,
      "velocity": 0.82,
      "hand": "right"
    },
    {
      "midi": 45,
      "time": 39,
      "duration": 0.25,
      "velocity": 0.82,
      "hand": "left"
    },
    {
      "midi": 53,
      "time": 39,
      "duration": 1.485,
      "velocity": 0.86,
      "hand": "left"
    },
    {
      "midi": 65,
      "time": 39,
      "duration": 1.485,
      "velocity": 0.82,
      "hand": "right"
    },
    {
      "midi": 72,
      "time": 39,
      "duration": 1.485,
      "velocity": 0.88,
      "hand": "right"
    },
    {
      "midi": 52,
      "time": 39.5,
      "duration": 0.25,
      "velocity": 0.82,
      "hand": "left"
    },
    {
      "midi": 60,
      "time": 39.5,
      "duration": 0.25,
      "velocity": 0.82,
      "hand": "right"
    },
    {
      "midi": 52,
      "time": 40,
      "duration": 0.25,
      "velocity": 0.82,
      "hand": "left"
    },
    {
      "midi": 60,
      "time": 40,
      "duration": 0.25,
      "velocity": 0.82,
      "hand": "right"
    },
    {
      "midi": 53,
      "time": 40.5,
      "duration": 1,
      "velocity": 0.86,
      "hand": "left"
    },
    {
      "midi": 60,
      "time": 40.5,
      "duration": 0.25,
      "velocity": 0.82,
      "hand": "right"
    },
    {
      "midi": 65,
      "time": 40.5,
      "duration": 1,
      "velocity": 0.82,
      "hand": "right"
    },
    {
      "midi": 72,
      "time": 40.5,
      "duration": 1,
      "velocity": 0.82,
      "hand": "right"
    },
    {
      "midi": 48,
      "time": 41,
      "duration": 0.25,
      "velocity": 0.82,
      "hand": "left"
    },
    {
      "midi": 47,
      "time": 41.25,
      "duration": 0.235,
      "velocity": 0.82,
      "hand": "left"
    },
    {
      "midi": 47,
      "time": 41.5,
      "duration": 0.25,
      "velocity": 0.82,
      "hand": "left"
    },
    {
      "midi": 45,
      "time": 41.75,
      "duration": 0.235,
      "velocity": 0.82,
      "hand": "left"
    },
    {
      "midi": 46,
      "time": 42,
      "duration": 0.25,
      "velocity": 0.86,
      "hand": "left"
    },
    {
      "midi": 65,
      "time": 42,
      "duration": 0.25,
      "velocity": 0.82,
      "hand": "right"
    },
    {
      "midi": 74,
      "time": 42,
      "duration": 0.25,
      "velocity": 0.82,
      "hand": "right"
    },
    {
      "midi": 46,
      "time": 42.5,
      "duration": 0.25,
      "velocity": 0.86,
      "hand": "left"
    },
    {
      "midi": 52,
      "time": 42.5,
      "duration": 0.25,
      "velocity": 0.82,
      "hand": "left"
    },
    {
      "midi": 65,
      "time": 42.5,
      "duration": 0.25,
      "velocity": 0.82,
      "hand": "right"
    },
    {
      "midi": 74,
      "time": 42.5,
      "duration": 0.25,
      "velocity": 0.82,
      "hand": "right"
    },
    {
      "midi": 46,
      "time": 43,
      "duration": 0.25,
      "velocity": 0.86,
      "hand": "left"
    },
    {
      "midi": 65,
      "time": 43,
      "duration": 0.25,
      "velocity": 0.82,
      "hand": "right"
    },
    {
      "midi": 74,
      "time": 43,
      "duration": 0.25,
      "velocity": 0.82,
      "hand": "right"
    },
    {
      "midi": 45,
      "time": 43.5,
      "duration": 0.25,
      "velocity": 0.82,
      "hand": "left"
    },
    {
      "midi": 51,
      "time": 43.5,
      "duration": 0.25,
      "velocity": 0.86,
      "hand": "left"
    },
    {
      "midi": 63,
      "time": 43.5,
      "duration": 0.25,
      "velocity": 0.82,
      "hand": "right"
    },
    {
      "midi": 72,
      "time": 43.5,
      "duration": 0.25,
      "velocity": 0.82,
      "hand": "right"
    },
    {
      "midi": 52,
      "time": 44,
      "duration": 0.25,
      "velocity": 0.82,
      "hand": "left"
    },
    {
      "midi": 60,
      "time": 44,
      "duration": 0.25,
      "velocity": 0.82,
      "hand": "right"
    },
    {
      "midi": 63,
      "time": 44,
      "duration": 0.25,
      "velocity": 0.82,
      "hand": "right"
    },
    {
      "midi": 70,
      "time": 44,
      "duration": 0.25,
      "velocity": 0.82,
      "hand": "right"
    },
    {
      "midi": 38,
      "time": 44.5,
      "duration": 0.25,
      "velocity": 0.82,
      "hand": "left"
    },
    {
      "midi": 45,
      "time": 44.5,
      "duration": 0.25,
      "velocity": 0.82,
      "hand": "left"
    },
    {
      "midi": 63,
      "time": 44.5,
      "duration": 0.25,
      "velocity": 0.82,
      "hand": "right"
    },
    {
      "midi": 67,
      "time": 44.5,
      "duration": 0.25,
      "velocity": 0.82,
      "hand": "right"
    },
    {
      "midi": 46,
      "time": 45,
      "duration": 1,
      "velocity": 0.86,
      "hand": "left"
    },
    {
      "midi": 62,
      "time": 45,
      "duration": 1,
      "velocity": 0.82,
      "hand": "right"
    },
    {
      "midi": 65,
      "time": 45,
      "duration": 1,
      "velocity": 0.82,
      "hand": "right"
    },
    {
      "midi": 52,
      "time": 45.5,
      "duration": 0.25,
      "velocity": 0.82,
      "hand": "left"
    },
    {
      "midi": 45,
      "time": 46,
      "duration": 0.25,
      "velocity": 0.82,
      "hand": "left"
    },
    {
      "midi": 46,
      "time": 46.5,
      "duration": 1,
      "velocity": 0.86,
      "hand": "left"
    },
    {
      "midi": 62,
      "time": 46.5,
      "duration": 0.985,
      "velocity": 0.82,
      "hand": "right"
    },
    {
      "midi": 70,
      "time": 46.5,
      "duration": 1,
      "velocity": 0.82,
      "hand": "right"
    },
    {
      "midi": 52,
      "time": 47,
      "duration": 0.25,
      "velocity": 0.82,
      "hand": "left"
    },
    {
      "midi": 58,
      "time": 47,
      "duration": 0.75,
      "velocity": 0.86,
      "hand": "left"
    },
    {
      "midi": 60,
      "time": 47,
      "duration": 0.25,
      "velocity": 0.82,
      "hand": "right"
    },
    {
      "midi": 38,
      "time": 47.5,
      "duration": 0.25,
      "velocity": 0.82,
      "hand": "left"
    },
    {
      "midi": 45,
      "time": 47.5,
      "duration": 0.25,
      "velocity": 0.82,
      "hand": "left"
    },
    {
      "midi": 62,
      "time": 47.5,
      "duration": 0.25,
      "velocity": 0.86,
      "hand": "right"
    },
    {
      "midi": 65,
      "time": 47.5,
      "duration": 0.25,
      "velocity": 0.82,
      "hand": "right"
    },
    {
      "midi": 45,
      "time": 48,
      "duration": 0.25,
      "velocity": 0.82,
      "hand": "left"
    },
    {
      "midi": 53,
      "time": 48,
      "duration": 0.25,
      "velocity": 0.86,
      "hand": "left"
    },
    {
      "midi": 60,
      "time": 48,
      "duration": 0.25,
      "velocity": 0.86,
      "hand": "right"
    },
    {
      "midi": 63,
      "time": 48,
      "duration": 0.25,
      "velocity": 0.82,
      "hand": "right"
    },
    {
      "midi": 69,
      "time": 48,
      "duration": 0.25,
      "velocity": 0.82,
      "hand": "right"
    },
    {
      "midi": 53,
      "time": 48.5,
      "duration": 0.25,
      "velocity": 0.86,
      "hand": "left"
    },
    {
      "midi": 60,
      "time": 48.5,
      "duration": 0.25,
      "velocity": 0.86,
      "hand": "right"
    },
    {
      "midi": 63,
      "time": 48.5,
      "duration": 0.25,
      "velocity": 0.82,
      "hand": "right"
    },
    {
      "midi": 69,
      "time": 48.5,
      "duration": 0.25,
      "velocity": 0.82,
      "hand": "right"
    },
    {
      "midi": 45,
      "time": 49,
      "duration": 0.25,
      "velocity": 0.82,
      "hand": "left"
    },
    {
      "midi": 53,
      "time": 49,
      "duration": 0.25,
      "velocity": 0.86,
      "hand": "left"
    },
    {
      "midi": 60,
      "time": 49,
      "duration": 0.25,
      "velocity": 0.86,
      "hand": "right"
    },
    {
      "midi": 63,
      "time": 49,
      "duration": 0.25,
      "velocity": 0.82,
      "hand": "right"
    },
    {
      "midi": 69,
      "time": 49,
      "duration": 0.25,
      "velocity": 0.82,
      "hand": "right"
    },
    {
      "midi": 45,
      "time": 49.5,
      "duration": 0.25,
      "velocity": 0.82,
      "hand": "left"
    },
    {
      "midi": 53,
      "time": 49.5,
      "duration": 0.25,
      "velocity": 0.86,
      "hand": "left"
    },
    {
      "midi": 60,
      "time": 49.5,
      "duration": 0.25,
      "velocity": 0.86,
      "hand": "right"
    },
    {
      "midi": 63,
      "time": 49.5,
      "duration": 0.25,
      "velocity": 0.82,
      "hand": "right"
    },
    {
      "midi": 69,
      "time": 49.5,
      "duration": 0.25,
      "velocity": 0.82,
      "hand": "right"
    },
    {
      "midi": 53,
      "time": 50,
      "duration": 0.25,
      "velocity": 0.86,
      "hand": "left"
    },
    {
      "midi": 60,
      "time": 50,
      "duration": 0.25,
      "velocity": 0.82,
      "hand": "right"
    },
    {
      "midi": 63,
      "time": 50,
      "duration": 0.25,
      "velocity": 0.82,
      "hand": "right"
    },
    {
      "midi": 70,
      "time": 50,
      "duration": 0.25,
      "velocity": 0.82,
      "hand": "right"
    },
    {
      "midi": 38,
      "time": 50.5,
      "duration": 0.25,
      "velocity": 0.82,
      "hand": "left"
    },
    {
      "midi": 45,
      "time": 50.5,
      "duration": 0.25,
      "velocity": 0.82,
      "hand": "left"
    },
    {
      "midi": 63,
      "time": 50.5,
      "duration": 0.25,
      "velocity": 0.82,
      "hand": "right"
    },
    {
      "midi": 72,
      "time": 50.5,
      "duration": 0.25,
      "velocity": 0.82,
      "hand": "right"
    },
    {
      "midi": 46,
      "time": 51,
      "duration": 1.485,
      "velocity": 0.86,
      "hand": "left"
    },
    {
      "midi": 62,
      "time": 51,
      "duration": 1.485,
      "velocity": 0.82,
      "hand": "right"
    },
    {
      "midi": 70,
      "time": 51,
      "duration": 1.485,
      "velocity": 0.88,
      "hand": "right"
    },
    {
      "midi": 52,
      "time": 51.5,
      "duration": 0.25,
      "velocity": 0.82,
      "hand": "left"
    },
    {
      "midi": 60,
      "time": 51.5,
      "duration": 0.25,
      "velocity": 0.82,
      "hand": "right"
    },
    {
      "midi": 52,
      "time": 52,
      "duration": 0.25,
      "velocity": 0.82,
      "hand": "left"
    },
    {
      "midi": 60,
      "time": 52,
      "duration": 0.25,
      "velocity": 0.82,
      "hand": "right"
    },
    {
      "midi": 46,
      "time": 52.5,
      "duration": 1,
      "velocity": 0.86,
      "hand": "left"
    },
    {
      "midi": 52,
      "time": 52.5,
      "duration": 0.25,
      "velocity": 0.82,
      "hand": "left"
    },
    {
      "midi": 60,
      "time": 52.5,
      "duration": 0.25,
      "velocity": 0.82,
      "hand": "right"
    },
    {
      "midi": 62,
      "time": 52.5,
      "duration": 1,
      "velocity": 0.82,
      "hand": "right"
    },
    {
      "midi": 70,
      "time": 52.5,
      "duration": 1,
      "velocity": 0.82,
      "hand": "right"
    },
    {
      "midi": 48,
      "time": 53,
      "duration": 0.25,
      "velocity": 0.82,
      "hand": "left"
    },
    {
      "midi": 47,
      "time": 53.25,
      "duration": 0.235,
      "velocity": 0.82,
      "hand": "left"
    },
    {
      "midi": 47,
      "time": 53.5,
      "duration": 0.25,
      "velocity": 0.82,
      "hand": "left"
    },
    {
      "midi": 45,
      "time": 53.75,
      "duration": 0.235,
      "velocity": 0.82,
      "hand": "left"
    },
    {
      "midi": 46,
      "time": 54,
      "duration": 0.25,
      "velocity": 0.86,
      "hand": "left"
    },
    {
      "midi": 62,
      "time": 54,
      "duration": 0.25,
      "velocity": 0.82,
      "hand": "right"
    },
    {
      "midi": 65,
      "time": 54,
      "duration": 0.25,
      "velocity": 0.82,
      "hand": "right"
    },
    {
      "midi": 46,
      "time": 54.5,
      "duration": 0.25,
      "velocity": 0.86,
      "hand": "left"
    },
    {
      "midi": 52,
      "time": 54.5,
      "duration": 0.25,
      "velocity": 0.82,
      "hand": "left"
    },
    {
      "midi": 62,
      "time": 54.5,
      "duration": 0.25,
      "velocity": 0.82,
      "hand": "right"
    },
    {
      "midi": 65,
      "time": 54.5,
      "duration": 0.25,
      "velocity": 0.82,
      "hand": "right"
    },
    {
      "midi": 46,
      "time": 55,
      "duration": 0.25,
      "velocity": 0.86,
      "hand": "left"
    },
    {
      "midi": 62,
      "time": 55,
      "duration": 0.25,
      "velocity": 0.82,
      "hand": "right"
    },
    {
      "midi": 65,
      "time": 55,
      "duration": 0.25,
      "velocity": 0.82,
      "hand": "right"
    },
    {
      "midi": 45,
      "time": 55.5,
      "duration": 0.25,
      "velocity": 0.82,
      "hand": "left"
    },
    {
      "midi": 53,
      "time": 55.5,
      "duration": 0.25,
      "velocity": 0.86,
      "hand": "left"
    },
    {
      "midi": 63,
      "time": 55.5,
      "duration": 0.25,
      "velocity": 0.82,
      "hand": "right"
    },
    {
      "midi": 65,
      "time": 55.5,
      "duration": 0.25,
      "velocity": 0.82,
      "hand": "right"
    },
    {
      "midi": 53,
      "time": 56,
      "duration": 0.25,
      "velocity": 0.86,
      "hand": "left"
    },
    {
      "midi": 60,
      "time": 56,
      "duration": 0.25,
      "velocity": 0.82,
      "hand": "right"
    },
    {
      "midi": 63,
      "time": 56,
      "duration": 0.25,
      "velocity": 0.82,
      "hand": "right"
    },
    {
      "midi": 67,
      "time": 56,
      "duration": 0.25,
      "velocity": 0.82,
      "hand": "right"
    },
    {
      "midi": 38,
      "time": 56.5,
      "duration": 0.25,
      "velocity": 0.82,
      "hand": "left"
    },
    {
      "midi": 45,
      "time": 56.5,
      "duration": 0.25,
      "velocity": 0.82,
      "hand": "left"
    },
    {
      "midi": 60,
      "time": 56.5,
      "duration": 0.25,
      "velocity": 0.86,
      "hand": "right"
    },
    {
      "midi": 63,
      "time": 56.5,
      "duration": 0.25,
      "velocity": 0.82,
      "hand": "right"
    },
    {
      "midi": 69,
      "time": 56.5,
      "duration": 0.25,
      "velocity": 0.82,
      "hand": "right"
    },
    {
      "midi": 46,
      "time": 57,
      "duration": 1,
      "velocity": 0.86,
      "hand": "left"
    },
    {
      "midi": 62,
      "time": 57,
      "duration": 1,
      "velocity": 0.82,
      "hand": "right"
    },
    {
      "midi": 70,
      "time": 57,
      "duration": 1,
      "velocity": 0.82,
      "hand": "right"
    },
    {
      "midi": 52,
      "time": 57.5,
      "duration": 0.25,
      "velocity": 0.82,
      "hand": "left"
    },
    {
      "midi": 45,
      "time": 58,
      "duration": 0.25,
      "velocity": 0.82,
      "hand": "left"
    },
    {
      "midi": 46,
      "time": 58.5,
      "duration": 1,
      "velocity": 0.86,
      "hand": "left"
    },
    {
      "midi": 62,
      "time": 58.5,
      "duration": 0.985,
      "velocity": 0.82,
      "hand": "right"
    },
    {
      "midi": 65,
      "time": 58.5,
      "duration": 1,
      "velocity": 0.82,
      "hand": "right"
    },
    {
      "midi": 52,
      "time": 59,
      "duration": 0.25,
      "velocity": 0.82,
      "hand": "left"
    },
    {
      "midi": 60,
      "time": 59,
      "duration": 0.25,
      "velocity": 0.82,
      "hand": "right"
    },
    {
      "midi": 38,
      "time": 59.5,
      "duration": 0.25,
      "velocity": 0.82,
      "hand": "left"
    },
    {
      "midi": 45,
      "time": 59.5,
      "duration": 0.25,
      "velocity": 0.82,
      "hand": "left"
    },
    {
      "midi": 62,
      "time": 59.5,
      "duration": 0.25,
      "velocity": 0.86,
      "hand": "right"
    },
    {
      "midi": 45,
      "time": 60,
      "duration": 0.25,
      "velocity": 0.82,
      "hand": "left"
    },
    {
      "midi": 53,
      "time": 60,
      "duration": 0.25,
      "velocity": 0.86,
      "hand": "left"
    },
    {
      "midi": 60,
      "time": 60,
      "duration": 0.25,
      "velocity": 0.86,
      "hand": "right"
    },
    {
      "midi": 65,
      "time": 60,
      "duration": 0.25,
      "velocity": 0.82,
      "hand": "right"
    },
    {
      "midi": 69,
      "time": 60,
      "duration": 0.25,
      "velocity": 0.82,
      "hand": "right"
    },
    {
      "midi": 53,
      "time": 60.5,
      "duration": 0.25,
      "velocity": 0.86,
      "hand": "left"
    },
    {
      "midi": 60,
      "time": 60.5,
      "duration": 0.25,
      "velocity": 0.86,
      "hand": "right"
    },
    {
      "midi": 65,
      "time": 60.5,
      "duration": 0.25,
      "velocity": 0.82,
      "hand": "right"
    },
    {
      "midi": 69,
      "time": 60.5,
      "duration": 0.25,
      "velocity": 0.82,
      "hand": "right"
    },
    {
      "midi": 45,
      "time": 61,
      "duration": 0.25,
      "velocity": 0.82,
      "hand": "left"
    },
    {
      "midi": 53,
      "time": 61,
      "duration": 0.25,
      "velocity": 0.86,
      "hand": "left"
    },
    {
      "midi": 60,
      "time": 61,
      "duration": 0.25,
      "velocity": 0.86,
      "hand": "right"
    },
    {
      "midi": 65,
      "time": 61,
      "duration": 0.25,
      "velocity": 0.82,
      "hand": "right"
    },
    {
      "midi": 69,
      "time": 61,
      "duration": 0.25,
      "velocity": 0.82,
      "hand": "right"
    },
    {
      "midi": 45,
      "time": 61.5,
      "duration": 0.25,
      "velocity": 0.82,
      "hand": "left"
    },
    {
      "midi": 53,
      "time": 61.5,
      "duration": 0.25,
      "velocity": 0.86,
      "hand": "left"
    },
    {
      "midi": 60,
      "time": 61.5,
      "duration": 0.25,
      "velocity": 0.86,
      "hand": "right"
    },
    {
      "midi": 63,
      "time": 61.5,
      "duration": 0.25,
      "velocity": 0.82,
      "hand": "right"
    },
    {
      "midi": 69,
      "time": 61.5,
      "duration": 0.25,
      "velocity": 0.82,
      "hand": "right"
    },
    {
      "midi": 53,
      "time": 62,
      "duration": 0.25,
      "velocity": 0.86,
      "hand": "left"
    },
    {
      "midi": 60,
      "time": 62,
      "duration": 0.25,
      "velocity": 0.82,
      "hand": "right"
    },
    {
      "midi": 63,
      "time": 62,
      "duration": 0.25,
      "velocity": 0.82,
      "hand": "right"
    },
    {
      "midi": 70,
      "time": 62,
      "duration": 0.25,
      "velocity": 0.82,
      "hand": "right"
    },
    {
      "midi": 38,
      "time": 62.5,
      "duration": 0.25,
      "velocity": 0.82,
      "hand": "left"
    },
    {
      "midi": 45,
      "time": 62.5,
      "duration": 0.25,
      "velocity": 0.82,
      "hand": "left"
    },
    {
      "midi": 63,
      "time": 62.5,
      "duration": 0.25,
      "velocity": 0.82,
      "hand": "right"
    },
    {
      "midi": 72,
      "time": 62.5,
      "duration": 0.25,
      "velocity": 0.82,
      "hand": "right"
    },
    {
      "midi": 46,
      "time": 63,
      "duration": 1.485,
      "velocity": 0.86,
      "hand": "left"
    },
    {
      "midi": 62,
      "time": 63,
      "duration": 1.485,
      "velocity": 0.82,
      "hand": "right"
    },
    {
      "midi": 70,
      "time": 63,
      "duration": 1.485,
      "velocity": 0.88,
      "hand": "right"
    },
    {
      "midi": 52,
      "time": 63.5,
      "duration": 0.25,
      "velocity": 0.82,
      "hand": "left"
    },
    {
      "midi": 60,
      "time": 63.5,
      "duration": 0.25,
      "velocity": 0.82,
      "hand": "right"
    },
    {
      "midi": 52,
      "time": 64,
      "duration": 0.25,
      "velocity": 0.82,
      "hand": "left"
    },
    {
      "midi": 60,
      "time": 64,
      "duration": 0.25,
      "velocity": 0.82,
      "hand": "right"
    },
    {
      "midi": 46,
      "time": 64.5,
      "duration": 1,
      "velocity": 0.86,
      "hand": "left"
    },
    {
      "midi": 52,
      "time": 64.5,
      "duration": 0.25,
      "velocity": 0.82,
      "hand": "left"
    },
    {
      "midi": 60,
      "time": 64.5,
      "duration": 0.25,
      "velocity": 0.82,
      "hand": "right"
    },
    {
      "midi": 62,
      "time": 64.5,
      "duration": 1,
      "velocity": 0.82,
      "hand": "right"
    },
    {
      "midi": 70,
      "time": 64.5,
      "duration": 1,
      "velocity": 0.82,
      "hand": "right"
    },
    {
      "midi": 48,
      "time": 65,
      "duration": 0.25,
      "velocity": 0.82,
      "hand": "left"
    },
    {
      "midi": 47,
      "time": 65.25,
      "duration": 0.235,
      "velocity": 0.82,
      "hand": "left"
    },
    {
      "midi": 47,
      "time": 65.5,
      "duration": 0.25,
      "velocity": 0.82,
      "hand": "left"
    },
    {
      "midi": 45,
      "time": 65.75,
      "duration": 0.235,
      "velocity": 0.82,
      "hand": "left"
    },
    {
      "midi": 45,
      "time": 66,
      "duration": 0.25,
      "velocity": 0.82,
      "hand": "left"
    },
    {
      "midi": 51,
      "time": 66,
      "duration": 0.25,
      "velocity": 0.86,
      "hand": "left"
    },
    {
      "midi": 63,
      "time": 66,
      "duration": 0.25,
      "velocity": 0.82,
      "hand": "right"
    },
    {
      "midi": 67,
      "time": 66,
      "duration": 0.25,
      "velocity": 0.82,
      "hand": "right"
    },
    {
      "midi": 52,
      "time": 66.5,
      "duration": 0.25,
      "velocity": 0.82,
      "hand": "left"
    },
    {
      "midi": 63,
      "time": 66.5,
      "duration": 0.25,
      "velocity": 0.82,
      "hand": "right"
    },
    {
      "midi": 67,
      "time": 66.5,
      "duration": 0.25,
      "velocity": 0.82,
      "hand": "right"
    },
    {
      "midi": 45,
      "time": 67,
      "duration": 0.25,
      "velocity": 0.82,
      "hand": "left"
    },
    {
      "midi": 51,
      "time": 67,
      "duration": 0.25,
      "velocity": 0.86,
      "hand": "left"
    },
    {
      "midi": 63,
      "time": 67,
      "duration": 0.25,
      "velocity": 0.82,
      "hand": "right"
    },
    {
      "midi": 67,
      "time": 67,
      "duration": 0.25,
      "velocity": 0.82,
      "hand": "right"
    },
    {
      "midi": 45,
      "time": 67.5,
      "duration": 0.25,
      "velocity": 0.82,
      "hand": "left"
    },
    {
      "midi": 51,
      "time": 67.5,
      "duration": 0.25,
      "velocity": 0.86,
      "hand": "left"
    },
    {
      "midi": 67,
      "time": 67.5,
      "duration": 0.25,
      "velocity": 0.82,
      "hand": "right"
    },
    {
      "midi": 70,
      "time": 67.5,
      "duration": 0.25,
      "velocity": 0.82,
      "hand": "right"
    },
    {
      "midi": 52,
      "time": 68,
      "duration": 0.25,
      "velocity": 0.82,
      "hand": "left"
    },
    {
      "midi": 60,
      "time": 68,
      "duration": 0.25,
      "velocity": 0.82,
      "hand": "right"
    },
    {
      "midi": 65,
      "time": 68,
      "duration": 0.25,
      "velocity": 0.82,
      "hand": "right"
    },
    {
      "midi": 69,
      "time": 68,
      "duration": 0.25,
      "velocity": 0.82,
      "hand": "right"
    },
    {
      "midi": 38,
      "time": 68.5,
      "duration": 0.25,
      "velocity": 0.82,
      "hand": "left"
    },
    {
      "midi": 45,
      "time": 68.5,
      "duration": 0.25,
      "velocity": 0.82,
      "hand": "left"
    },
    {
      "midi": 63,
      "time": 68.5,
      "duration": 0.25,
      "velocity": 0.82,
      "hand": "right"
    },
    {
      "midi": 67,
      "time": 68.5,
      "duration": 0.25,
      "velocity": 0.82,
      "hand": "right"
    },
    {
      "midi": 46,
      "time": 69,
      "duration": 1,
      "velocity": 0.86,
      "hand": "left"
    },
    {
      "midi": 62,
      "time": 69,
      "duration": 1,
      "velocity": 0.82,
      "hand": "right"
    },
    {
      "midi": 65,
      "time": 69,
      "duration": 1,
      "velocity": 0.82,
      "hand": "right"
    },
    {
      "midi": 52,
      "time": 69.5,
      "duration": 0.25,
      "velocity": 0.82,
      "hand": "left"
    },
    {
      "midi": 45,
      "time": 70,
      "duration": 0.25,
      "velocity": 0.82,
      "hand": "left"
    },
    {
      "midi": 45,
      "time": 70.5,
      "duration": 0.25,
      "velocity": 0.82,
      "hand": "left"
    },
    {
      "midi": 50,
      "time": 70.5,
      "duration": 1,
      "velocity": 0.86,
      "hand": "left"
    },
    {
      "midi": 65,
      "time": 70.5,
      "duration": 1,
      "velocity": 0.82,
      "hand": "right"
    },
    {
      "midi": 70,
      "time": 70.5,
      "duration": 1,
      "velocity": 0.82,
      "hand": "right"
    },
    {
      "midi": 52,
      "time": 71,
      "duration": 0.25,
      "velocity": 0.82,
      "hand": "left"
    },
    {
      "midi": 60,
      "time": 71,
      "duration": 0.25,
      "velocity": 0.82,
      "hand": "right"
    },
    {
      "midi": 38,
      "time": 71.5,
      "duration": 0.25,
      "velocity": 0.82,
      "hand": "left"
    },
    {
      "midi": 45,
      "time": 71.5,
      "duration": 0.25,
      "velocity": 0.82,
      "hand": "left"
    },
    {
      "midi": 45,
      "time": 72,
      "duration": 0.25,
      "velocity": 0.82,
      "hand": "left"
    },
    {
      "midi": 55,
      "time": 72,
      "duration": 0.25,
      "velocity": 0.86,
      "hand": "left"
    },
    {
      "midi": 62,
      "time": 72,
      "duration": 0.25,
      "velocity": 0.86,
      "hand": "right"
    },
    {
      "midi": 67,
      "time": 72,
      "duration": 0.25,
      "velocity": 0.82,
      "hand": "right"
    },
    {
      "midi": 70,
      "time": 72,
      "duration": 0.25,
      "velocity": 0.82,
      "hand": "right"
    },
    {
      "midi": 52,
      "time": 72.5,
      "duration": 0.25,
      "velocity": 0.82,
      "hand": "left"
    },
    {
      "midi": 55,
      "time": 72.5,
      "duration": 0.25,
      "velocity": 0.86,
      "hand": "left"
    },
    {
      "midi": 62,
      "time": 72.5,
      "duration": 0.25,
      "velocity": 0.86,
      "hand": "right"
    },
    {
      "midi": 67,
      "time": 72.5,
      "duration": 0.25,
      "velocity": 0.82,
      "hand": "right"
    },
    {
      "midi": 70,
      "time": 72.5,
      "duration": 0.25,
      "velocity": 0.82,
      "hand": "right"
    },
    {
      "midi": 45,
      "time": 73,
      "duration": 0.25,
      "velocity": 0.82,
      "hand": "left"
    },
    {
      "midi": 53,
      "time": 73,
      "duration": 0.25,
      "velocity": 0.86,
      "hand": "left"
    },
    {
      "midi": 62,
      "time": 73,
      "duration": 0.25,
      "velocity": 0.86,
      "hand": "right"
    },
    {
      "midi": 67,
      "time": 73,
      "duration": 0.25,
      "velocity": 0.82,
      "hand": "right"
    },
    {
      "midi": 70,
      "time": 73,
      "duration": 0.25,
      "velocity": 0.82,
      "hand": "right"
    },
    {
      "midi": 45,
      "time": 73.5,
      "duration": 0.25,
      "velocity": 0.82,
      "hand": "left"
    },
    {
      "midi": 51,
      "time": 73.5,
      "duration": 0.25,
      "velocity": 0.86,
      "hand": "left"
    },
    {
      "midi": 63,
      "time": 73.5,
      "duration": 0.25,
      "velocity": 0.86,
      "hand": "right"
    },
    {
      "midi": 67,
      "time": 73.5,
      "duration": 0.25,
      "velocity": 0.82,
      "hand": "right"
    },
    {
      "midi": 70,
      "time": 73.5,
      "duration": 0.25,
      "velocity": 0.82,
      "hand": "right"
    },
    {
      "midi": 52,
      "time": 74,
      "duration": 0.25,
      "velocity": 0.82,
      "hand": "left"
    },
    {
      "midi": 60,
      "time": 74,
      "duration": 0.25,
      "velocity": 0.86,
      "hand": "right"
    },
    {
      "midi": 66,
      "time": 74,
      "duration": 0.25,
      "velocity": 0.82,
      "hand": "right"
    },
    {
      "midi": 69,
      "time": 74,
      "duration": 0.25,
      "velocity": 0.82,
      "hand": "right"
    },
    {
      "midi": 38,
      "time": 74.5,
      "duration": 0.25,
      "velocity": 0.82,
      "hand": "left"
    },
    {
      "midi": 45,
      "time": 74.5,
      "duration": 0.25,
      "velocity": 0.82,
      "hand": "left"
    },
    {
      "midi": 67,
      "time": 74.5,
      "duration": 0.25,
      "velocity": 0.82,
      "hand": "right"
    },
    {
      "midi": 70,
      "time": 74.5,
      "duration": 0.25,
      "velocity": 0.82,
      "hand": "right"
    },
    {
      "midi": 45,
      "time": 75,
      "duration": 0.25,
      "velocity": 0.82,
      "hand": "left"
    },
    {
      "midi": 53,
      "time": 75,
      "duration": 1.485,
      "velocity": 0.86,
      "hand": "left"
    },
    {
      "midi": 69,
      "time": 75,
      "duration": 1.485,
      "velocity": 0.82,
      "hand": "right"
    },
    {
      "midi": 72,
      "time": 75,
      "duration": 1.485,
      "velocity": 0.88,
      "hand": "right"
    },
    {
      "midi": 52,
      "time": 75.5,
      "duration": 0.25,
      "velocity": 0.82,
      "hand": "left"
    },
    {
      "midi": 60,
      "time": 75.5,
      "duration": 0.25,
      "velocity": 0.82,
      "hand": "right"
    },
    {
      "midi": 52,
      "time": 76,
      "duration": 0.25,
      "velocity": 0.82,
      "hand": "left"
    },
    {
      "midi": 60,
      "time": 76,
      "duration": 0.25,
      "velocity": 0.82,
      "hand": "right"
    },
    {
      "midi": 53,
      "time": 76.5,
      "duration": 1,
      "velocity": 0.86,
      "hand": "left"
    },
    {
      "midi": 60,
      "time": 76.5,
      "duration": 0.25,
      "velocity": 0.82,
      "hand": "right"
    },
    {
      "midi": 63,
      "time": 76.5,
      "duration": 1,
      "velocity": 0.86,
      "hand": "right"
    },
    {
      "midi": 69,
      "time": 76.5,
      "duration": 1,
      "velocity": 0.82,
      "hand": "right"
    },
    {
      "midi": 72,
      "time": 76.5,
      "duration": 1,
      "velocity": 0.82,
      "hand": "right"
    },
    {
      "midi": 48,
      "time": 77,
      "duration": 0.25,
      "velocity": 0.82,
      "hand": "left"
    },
    {
      "midi": 47,
      "time": 77.25,
      "duration": 0.235,
      "velocity": 0.82,
      "hand": "left"
    },
    {
      "midi": 47,
      "time": 77.5,
      "duration": 0.25,
      "velocity": 0.82,
      "hand": "left"
    },
    {
      "midi": 45,
      "time": 77.75,
      "duration": 0.235,
      "velocity": 0.82,
      "hand": "left"
    },
    {
      "midi": 46,
      "time": 78,
      "duration": 0.75,
      "velocity": 0.86,
      "hand": "left"
    },
    {
      "midi": 62,
      "time": 78,
      "duration": 0.75,
      "velocity": 0.86,
      "hand": "right"
    },
    {
      "midi": 70,
      "time": 78,
      "duration": 0.75,
      "velocity": 0.82,
      "hand": "right"
    },
    {
      "midi": 74,
      "time": 78,
      "duration": 1.485,
      "velocity": 0.88,
      "hand": "right"
    },
    {
      "midi": 52,
      "time": 78.5,
      "duration": 0.25,
      "velocity": 0.82,
      "hand": "left"
    },
    {
      "midi": 58,
      "time": 78.5,
      "duration": 0.25,
      "velocity": 0.86,
      "hand": "left"
    },
    {
      "midi": 65,
      "time": 78.5,
      "duration": 0.25,
      "velocity": 0.82,
      "hand": "right"
    },
    {
      "midi": 46,
      "time": 79,
      "duration": 0.25,
      "velocity": 0.86,
      "hand": "left"
    },
    {
      "midi": 65,
      "time": 79,
      "duration": 0.25,
      "velocity": 0.82,
      "hand": "right"
    },
    {
      "midi": 46,
      "time": 79.5,
      "duration": 0.25,
      "velocity": 0.86,
      "hand": "left"
    },
    {
      "midi": 74,
      "time": 79.5,
      "duration": 0.25,
      "velocity": 0.82,
      "hand": "right"
    },
    {
      "midi": 46,
      "time": 80,
      "duration": 0.25,
      "velocity": 0.86,
      "hand": "left"
    },
    {
      "midi": 52,
      "time": 80,
      "duration": 0.25,
      "velocity": 0.82,
      "hand": "left"
    },
    {
      "midi": 60,
      "time": 80,
      "duration": 0.25,
      "velocity": 0.82,
      "hand": "right"
    },
    {
      "midi": 64,
      "time": 80,
      "duration": 0.25,
      "velocity": 0.82,
      "hand": "right"
    },
    {
      "midi": 73,
      "time": 80,
      "duration": 0.25,
      "velocity": 0.82,
      "hand": "right"
    },
    {
      "midi": 38,
      "time": 80.5,
      "duration": 0.25,
      "velocity": 0.82,
      "hand": "left"
    },
    {
      "midi": 45,
      "time": 80.5,
      "duration": 0.25,
      "velocity": 0.82,
      "hand": "left"
    },
    {
      "midi": 65,
      "time": 80.5,
      "duration": 0.25,
      "velocity": 0.82,
      "hand": "right"
    },
    {
      "midi": 74,
      "time": 80.5,
      "duration": 0.25,
      "velocity": 0.82,
      "hand": "right"
    },
    {
      "midi": 46,
      "time": 81,
      "duration": 1,
      "velocity": 0.86,
      "hand": "left"
    },
    {
      "midi": 62,
      "time": 81,
      "duration": 1,
      "velocity": 0.82,
      "hand": "right"
    },
    {
      "midi": 70,
      "time": 81,
      "duration": 1,
      "velocity": 0.82,
      "hand": "right"
    },
    {
      "midi": 52,
      "time": 81.5,
      "duration": 0.25,
      "velocity": 0.82,
      "hand": "left"
    },
    {
      "midi": 45,
      "time": 82,
      "duration": 0.25,
      "velocity": 0.82,
      "hand": "left"
    },
    {
      "midi": 46,
      "time": 82.5,
      "duration": 1,
      "velocity": 0.86,
      "hand": "left"
    },
    {
      "midi": 62,
      "time": 82.5,
      "duration": 1,
      "velocity": 0.82,
      "hand": "right"
    },
    {
      "midi": 65,
      "time": 82.5,
      "duration": 1,
      "velocity": 0.82,
      "hand": "right"
    },
    {
      "midi": 52,
      "time": 83,
      "duration": 0.25,
      "velocity": 0.82,
      "hand": "left"
    },
    {
      "midi": 60,
      "time": 83,
      "duration": 0.25,
      "velocity": 0.82,
      "hand": "right"
    },
    {
      "midi": 38,
      "time": 83.5,
      "duration": 0.25,
      "velocity": 0.82,
      "hand": "left"
    },
    {
      "midi": 45,
      "time": 83.5,
      "duration": 0.25,
      "velocity": 0.82,
      "hand": "left"
    },
    {
      "midi": 46,
      "time": 84,
      "duration": 0.25,
      "velocity": 0.86,
      "hand": "left"
    },
    {
      "midi": 65,
      "time": 84,
      "duration": 0.25,
      "velocity": 0.82,
      "hand": "right"
    },
    {
      "midi": 74,
      "time": 84,
      "duration": 0.25,
      "velocity": 0.82,
      "hand": "right"
    },
    {
      "midi": 46,
      "time": 84.5,
      "duration": 0.25,
      "velocity": 0.86,
      "hand": "left"
    },
    {
      "midi": 52,
      "time": 84.5,
      "duration": 0.25,
      "velocity": 0.82,
      "hand": "left"
    },
    {
      "midi": 63,
      "time": 84.5,
      "duration": 0.25,
      "velocity": 0.82,
      "hand": "right"
    },
    {
      "midi": 72,
      "time": 84.5,
      "duration": 0.25,
      "velocity": 0.82,
      "hand": "right"
    },
    {
      "midi": 46,
      "time": 85,
      "duration": 0.25,
      "velocity": 0.86,
      "hand": "left"
    },
    {
      "midi": 62,
      "time": 85,
      "duration": 0.25,
      "velocity": 0.82,
      "hand": "right"
    },
    {
      "midi": 70,
      "time": 85,
      "duration": 0.25,
      "velocity": 0.82,
      "hand": "right"
    },
    {
      "midi": 45,
      "time": 85.5,
      "duration": 0.25,
      "velocity": 0.82,
      "hand": "left"
    },
    {
      "midi": 50,
      "time": 85.5,
      "duration": 0.25,
      "velocity": 0.86,
      "hand": "left"
    },
    {
      "midi": 65,
      "time": 85.5,
      "duration": 0.25,
      "velocity": 0.82,
      "hand": "right"
    },
    {
      "midi": 70,
      "time": 85.5,
      "duration": 0.25,
      "velocity": 0.82,
      "hand": "right"
    },
    {
      "midi": 48,
      "time": 86,
      "duration": 0.25,
      "velocity": 0.86,
      "hand": "left"
    },
    {
      "midi": 52,
      "time": 86,
      "duration": 0.25,
      "velocity": 0.82,
      "hand": "left"
    },
    {
      "midi": 60,
      "time": 86,
      "duration": 0.25,
      "velocity": 0.82,
      "hand": "right"
    },
    {
      "midi": 63,
      "time": 86,
      "duration": 0.25,
      "velocity": 0.82,
      "hand": "right"
    },
    {
      "midi": 69,
      "time": 86,
      "duration": 0.25,
      "velocity": 0.82,
      "hand": "right"
    },
    {
      "midi": 38,
      "time": 86.5,
      "duration": 0.25,
      "velocity": 0.82,
      "hand": "left"
    },
    {
      "midi": 45,
      "time": 86.5,
      "duration": 0.25,
      "velocity": 0.82,
      "hand": "left"
    },
    {
      "midi": 62,
      "time": 86.5,
      "duration": 0.25,
      "velocity": 0.82,
      "hand": "right"
    },
    {
      "midi": 70,
      "time": 86.5,
      "duration": 0.25,
      "velocity": 0.82,
      "hand": "right"
    },
    {
      "midi": 45,
      "time": 87,
      "duration": 0.25,
      "velocity": 0.82,
      "hand": "left"
    },
    {
      "midi": 53,
      "time": 87,
      "duration": 1.485,
      "velocity": 0.86,
      "hand": "left"
    },
    {
      "midi": 65,
      "time": 87,
      "duration": 1.485,
      "velocity": 0.82,
      "hand": "right"
    },
    {
      "midi": 72,
      "time": 87,
      "duration": 1.485,
      "velocity": 0.88,
      "hand": "right"
    },
    {
      "midi": 52,
      "time": 87.5,
      "duration": 0.25,
      "velocity": 0.82,
      "hand": "left"
    },
    {
      "midi": 60,
      "time": 87.5,
      "duration": 0.25,
      "velocity": 0.82,
      "hand": "right"
    },
    {
      "midi": 52,
      "time": 88,
      "duration": 0.25,
      "velocity": 0.82,
      "hand": "left"
    },
    {
      "midi": 60,
      "time": 88,
      "duration": 0.25,
      "velocity": 0.82,
      "hand": "right"
    },
    {
      "midi": 53,
      "time": 88.5,
      "duration": 1,
      "velocity": 0.86,
      "hand": "left"
    },
    {
      "midi": 60,
      "time": 88.5,
      "duration": 0.25,
      "velocity": 0.82,
      "hand": "right"
    },
    {
      "midi": 65,
      "time": 88.5,
      "duration": 1,
      "velocity": 0.82,
      "hand": "right"
    },
    {
      "midi": 72,
      "time": 88.5,
      "duration": 1,
      "velocity": 0.82,
      "hand": "right"
    },
    {
      "midi": 48,
      "time": 89,
      "duration": 0.25,
      "velocity": 0.82,
      "hand": "left"
    },
    {
      "midi": 47,
      "time": 89.25,
      "duration": 0.235,
      "velocity": 0.82,
      "hand": "left"
    },
    {
      "midi": 47,
      "time": 89.5,
      "duration": 0.25,
      "velocity": 0.82,
      "hand": "left"
    },
    {
      "midi": 45,
      "time": 89.75,
      "duration": 0.235,
      "velocity": 0.82,
      "hand": "left"
    },
    {
      "midi": 46,
      "time": 90,
      "duration": 0.25,
      "velocity": 0.86,
      "hand": "left"
    },
    {
      "midi": 65,
      "time": 90,
      "duration": 0.25,
      "velocity": 0.82,
      "hand": "right"
    },
    {
      "midi": 74,
      "time": 90,
      "duration": 0.25,
      "velocity": 0.82,
      "hand": "right"
    },
    {
      "midi": 46,
      "time": 90.5,
      "duration": 0.25,
      "velocity": 0.86,
      "hand": "left"
    },
    {
      "midi": 52,
      "time": 90.5,
      "duration": 0.25,
      "velocity": 0.82,
      "hand": "left"
    },
    {
      "midi": 65,
      "time": 90.5,
      "duration": 0.25,
      "velocity": 0.82,
      "hand": "right"
    },
    {
      "midi": 74,
      "time": 90.5,
      "duration": 0.25,
      "velocity": 0.82,
      "hand": "right"
    },
    {
      "midi": 46,
      "time": 91,
      "duration": 0.25,
      "velocity": 0.86,
      "hand": "left"
    },
    {
      "midi": 65,
      "time": 91,
      "duration": 0.25,
      "velocity": 0.82,
      "hand": "right"
    },
    {
      "midi": 74,
      "time": 91,
      "duration": 0.25,
      "velocity": 0.82,
      "hand": "right"
    },
    {
      "midi": 45,
      "time": 91.5,
      "duration": 0.25,
      "velocity": 0.82,
      "hand": "left"
    },
    {
      "midi": 51,
      "time": 91.5,
      "duration": 0.25,
      "velocity": 0.86,
      "hand": "left"
    },
    {
      "midi": 63,
      "time": 91.5,
      "duration": 0.25,
      "velocity": 0.82,
      "hand": "right"
    },
    {
      "midi": 72,
      "time": 91.5,
      "duration": 0.25,
      "velocity": 0.82,
      "hand": "right"
    },
    {
      "midi": 52,
      "time": 92,
      "duration": 0.25,
      "velocity": 0.82,
      "hand": "left"
    },
    {
      "midi": 60,
      "time": 92,
      "duration": 0.25,
      "velocity": 0.82,
      "hand": "right"
    },
    {
      "midi": 63,
      "time": 92,
      "duration": 0.25,
      "velocity": 0.82,
      "hand": "right"
    },
    {
      "midi": 70,
      "time": 92,
      "duration": 0.25,
      "velocity": 0.82,
      "hand": "right"
    },
    {
      "midi": 38,
      "time": 92.5,
      "duration": 0.25,
      "velocity": 0.82,
      "hand": "left"
    },
    {
      "midi": 45,
      "time": 92.5,
      "duration": 0.25,
      "velocity": 0.82,
      "hand": "left"
    },
    {
      "midi": 63,
      "time": 92.5,
      "duration": 0.25,
      "velocity": 0.82,
      "hand": "right"
    },
    {
      "midi": 67,
      "time": 92.5,
      "duration": 0.25,
      "velocity": 0.82,
      "hand": "right"
    },
    {
      "midi": 46,
      "time": 93,
      "duration": 1,
      "velocity": 0.86,
      "hand": "left"
    },
    {
      "midi": 62,
      "time": 93,
      "duration": 1,
      "velocity": 0.82,
      "hand": "right"
    },
    {
      "midi": 65,
      "time": 93,
      "duration": 1,
      "velocity": 0.82,
      "hand": "right"
    },
    {
      "midi": 52,
      "time": 93.5,
      "duration": 0.25,
      "velocity": 0.82,
      "hand": "left"
    },
    {
      "midi": 45,
      "time": 94,
      "duration": 0.25,
      "velocity": 0.82,
      "hand": "left"
    },
    {
      "midi": 46,
      "time": 94.5,
      "duration": 1,
      "velocity": 0.86,
      "hand": "left"
    },
    {
      "midi": 62,
      "time": 94.5,
      "duration": 0.985,
      "velocity": 0.82,
      "hand": "right"
    },
    {
      "midi": 70,
      "time": 94.5,
      "duration": 1,
      "velocity": 0.82,
      "hand": "right"
    },
    {
      "midi": 52,
      "time": 95,
      "duration": 0.25,
      "velocity": 0.82,
      "hand": "left"
    },
    {
      "midi": 58,
      "time": 95,
      "duration": 0.75,
      "velocity": 0.86,
      "hand": "left"
    },
    {
      "midi": 60,
      "time": 95,
      "duration": 0.25,
      "velocity": 0.82,
      "hand": "right"
    },
    {
      "midi": 38,
      "time": 95.5,
      "duration": 0.25,
      "velocity": 0.82,
      "hand": "left"
    },
    {
      "midi": 45,
      "time": 95.5,
      "duration": 0.25,
      "velocity": 0.82,
      "hand": "left"
    },
    {
      "midi": 62,
      "time": 95.5,
      "duration": 0.25,
      "velocity": 0.86,
      "hand": "right"
    },
    {
      "midi": 65,
      "time": 95.5,
      "duration": 0.25,
      "velocity": 0.82,
      "hand": "right"
    },
    {
      "midi": 45,
      "time": 96,
      "duration": 0.25,
      "velocity": 0.82,
      "hand": "left"
    },
    {
      "midi": 53,
      "time": 96,
      "duration": 0.25,
      "velocity": 0.86,
      "hand": "left"
    },
    {
      "midi": 60,
      "time": 96,
      "duration": 0.25,
      "velocity": 0.86,
      "hand": "right"
    },
    {
      "midi": 63,
      "time": 96,
      "duration": 0.25,
      "velocity": 0.82,
      "hand": "right"
    },
    {
      "midi": 69,
      "time": 96,
      "duration": 0.25,
      "velocity": 0.82,
      "hand": "right"
    },
    {
      "midi": 53,
      "time": 96.5,
      "duration": 0.25,
      "velocity": 0.86,
      "hand": "left"
    },
    {
      "midi": 60,
      "time": 96.5,
      "duration": 0.25,
      "velocity": 0.86,
      "hand": "right"
    },
    {
      "midi": 63,
      "time": 96.5,
      "duration": 0.25,
      "velocity": 0.82,
      "hand": "right"
    },
    {
      "midi": 69,
      "time": 96.5,
      "duration": 0.25,
      "velocity": 0.82,
      "hand": "right"
    },
    {
      "midi": 45,
      "time": 97,
      "duration": 0.25,
      "velocity": 0.82,
      "hand": "left"
    },
    {
      "midi": 53,
      "time": 97,
      "duration": 0.25,
      "velocity": 0.86,
      "hand": "left"
    },
    {
      "midi": 60,
      "time": 97,
      "duration": 0.25,
      "velocity": 0.86,
      "hand": "right"
    },
    {
      "midi": 63,
      "time": 97,
      "duration": 0.25,
      "velocity": 0.82,
      "hand": "right"
    },
    {
      "midi": 69,
      "time": 97,
      "duration": 0.25,
      "velocity": 0.82,
      "hand": "right"
    },
    {
      "midi": 45,
      "time": 97.5,
      "duration": 0.25,
      "velocity": 0.82,
      "hand": "left"
    },
    {
      "midi": 53,
      "time": 97.5,
      "duration": 0.25,
      "velocity": 0.86,
      "hand": "left"
    },
    {
      "midi": 60,
      "time": 97.5,
      "duration": 0.25,
      "velocity": 0.86,
      "hand": "right"
    },
    {
      "midi": 63,
      "time": 97.5,
      "duration": 0.25,
      "velocity": 0.82,
      "hand": "right"
    },
    {
      "midi": 69,
      "time": 97.5,
      "duration": 0.25,
      "velocity": 0.82,
      "hand": "right"
    },
    {
      "midi": 53,
      "time": 98,
      "duration": 0.25,
      "velocity": 0.86,
      "hand": "left"
    },
    {
      "midi": 60,
      "time": 98,
      "duration": 0.25,
      "velocity": 0.82,
      "hand": "right"
    },
    {
      "midi": 63,
      "time": 98,
      "duration": 0.25,
      "velocity": 0.82,
      "hand": "right"
    },
    {
      "midi": 70,
      "time": 98,
      "duration": 0.25,
      "velocity": 0.82,
      "hand": "right"
    },
    {
      "midi": 38,
      "time": 98.5,
      "duration": 0.25,
      "velocity": 0.82,
      "hand": "left"
    },
    {
      "midi": 45,
      "time": 98.5,
      "duration": 0.25,
      "velocity": 0.82,
      "hand": "left"
    },
    {
      "midi": 63,
      "time": 98.5,
      "duration": 0.25,
      "velocity": 0.82,
      "hand": "right"
    },
    {
      "midi": 72,
      "time": 98.5,
      "duration": 0.25,
      "velocity": 0.82,
      "hand": "right"
    },
    {
      "midi": 46,
      "time": 99,
      "duration": 1.485,
      "velocity": 0.86,
      "hand": "left"
    },
    {
      "midi": 62,
      "time": 99,
      "duration": 1.485,
      "velocity": 0.82,
      "hand": "right"
    },
    {
      "midi": 70,
      "time": 99,
      "duration": 1.485,
      "velocity": 0.88,
      "hand": "right"
    },
    {
      "midi": 52,
      "time": 99.5,
      "duration": 0.25,
      "velocity": 0.82,
      "hand": "left"
    },
    {
      "midi": 60,
      "time": 99.5,
      "duration": 0.25,
      "velocity": 0.82,
      "hand": "right"
    },
    {
      "midi": 52,
      "time": 100,
      "duration": 0.25,
      "velocity": 0.82,
      "hand": "left"
    },
    {
      "midi": 60,
      "time": 100,
      "duration": 0.25,
      "velocity": 0.82,
      "hand": "right"
    },
    {
      "midi": 46,
      "time": 100.5,
      "duration": 1,
      "velocity": 0.86,
      "hand": "left"
    },
    {
      "midi": 52,
      "time": 100.5,
      "duration": 0.25,
      "velocity": 0.82,
      "hand": "left"
    },
    {
      "midi": 60,
      "time": 100.5,
      "duration": 0.25,
      "velocity": 0.82,
      "hand": "right"
    },
    {
      "midi": 62,
      "time": 100.5,
      "duration": 1,
      "velocity": 0.82,
      "hand": "right"
    },
    {
      "midi": 70,
      "time": 100.5,
      "duration": 1,
      "velocity": 0.82,
      "hand": "right"
    },
    {
      "midi": 48,
      "time": 101,
      "duration": 0.25,
      "velocity": 0.82,
      "hand": "left"
    },
    {
      "midi": 47,
      "time": 101.25,
      "duration": 0.235,
      "velocity": 0.82,
      "hand": "left"
    },
    {
      "midi": 47,
      "time": 101.5,
      "duration": 0.25,
      "velocity": 0.82,
      "hand": "left"
    },
    {
      "midi": 45,
      "time": 101.75,
      "duration": 0.235,
      "velocity": 0.82,
      "hand": "left"
    },
    {
      "midi": 46,
      "time": 102,
      "duration": 0.25,
      "velocity": 0.86,
      "hand": "left"
    },
    {
      "midi": 62,
      "time": 102,
      "duration": 0.25,
      "velocity": 0.82,
      "hand": "right"
    },
    {
      "midi": 65,
      "time": 102,
      "duration": 0.25,
      "velocity": 0.82,
      "hand": "right"
    },
    {
      "midi": 46,
      "time": 102.5,
      "duration": 0.25,
      "velocity": 0.86,
      "hand": "left"
    },
    {
      "midi": 52,
      "time": 102.5,
      "duration": 0.25,
      "velocity": 0.82,
      "hand": "left"
    },
    {
      "midi": 62,
      "time": 102.5,
      "duration": 0.25,
      "velocity": 0.82,
      "hand": "right"
    },
    {
      "midi": 65,
      "time": 102.5,
      "duration": 0.25,
      "velocity": 0.82,
      "hand": "right"
    },
    {
      "midi": 46,
      "time": 103,
      "duration": 0.25,
      "velocity": 0.86,
      "hand": "left"
    },
    {
      "midi": 62,
      "time": 103,
      "duration": 0.25,
      "velocity": 0.82,
      "hand": "right"
    },
    {
      "midi": 65,
      "time": 103,
      "duration": 0.25,
      "velocity": 0.82,
      "hand": "right"
    },
    {
      "midi": 45,
      "time": 103.5,
      "duration": 0.25,
      "velocity": 0.82,
      "hand": "left"
    },
    {
      "midi": 53,
      "time": 103.5,
      "duration": 0.25,
      "velocity": 0.86,
      "hand": "left"
    },
    {
      "midi": 63,
      "time": 103.5,
      "duration": 0.25,
      "velocity": 0.82,
      "hand": "right"
    },
    {
      "midi": 65,
      "time": 103.5,
      "duration": 0.25,
      "velocity": 0.82,
      "hand": "right"
    },
    {
      "midi": 53,
      "time": 104,
      "duration": 0.25,
      "velocity": 0.86,
      "hand": "left"
    },
    {
      "midi": 60,
      "time": 104,
      "duration": 0.25,
      "velocity": 0.82,
      "hand": "right"
    },
    {
      "midi": 63,
      "time": 104,
      "duration": 0.25,
      "velocity": 0.82,
      "hand": "right"
    },
    {
      "midi": 67,
      "time": 104,
      "duration": 0.25,
      "velocity": 0.82,
      "hand": "right"
    },
    {
      "midi": 38,
      "time": 104.5,
      "duration": 0.25,
      "velocity": 0.82,
      "hand": "left"
    },
    {
      "midi": 45,
      "time": 104.5,
      "duration": 0.25,
      "velocity": 0.82,
      "hand": "left"
    },
    {
      "midi": 60,
      "time": 104.5,
      "duration": 0.25,
      "velocity": 0.86,
      "hand": "right"
    },
    {
      "midi": 63,
      "time": 104.5,
      "duration": 0.25,
      "velocity": 0.82,
      "hand": "right"
    },
    {
      "midi": 69,
      "time": 104.5,
      "duration": 0.25,
      "velocity": 0.82,
      "hand": "right"
    },
    {
      "midi": 46,
      "time": 105,
      "duration": 1,
      "velocity": 0.86,
      "hand": "left"
    },
    {
      "midi": 62,
      "time": 105,
      "duration": 1,
      "velocity": 0.82,
      "hand": "right"
    },
    {
      "midi": 70,
      "time": 105,
      "duration": 1,
      "velocity": 0.82,
      "hand": "right"
    },
    {
      "midi": 52,
      "time": 105.5,
      "duration": 0.25,
      "velocity": 0.82,
      "hand": "left"
    },
    {
      "midi": 45,
      "time": 106,
      "duration": 0.25,
      "velocity": 0.82,
      "hand": "left"
    },
    {
      "midi": 46,
      "time": 106.5,
      "duration": 1,
      "velocity": 0.86,
      "hand": "left"
    },
    {
      "midi": 62,
      "time": 106.5,
      "duration": 0.985,
      "velocity": 0.82,
      "hand": "right"
    },
    {
      "midi": 65,
      "time": 106.5,
      "duration": 1,
      "velocity": 0.82,
      "hand": "right"
    },
    {
      "midi": 52,
      "time": 107,
      "duration": 0.25,
      "velocity": 0.82,
      "hand": "left"
    },
    {
      "midi": 60,
      "time": 107,
      "duration": 0.25,
      "velocity": 0.82,
      "hand": "right"
    },
    {
      "midi": 38,
      "time": 107.5,
      "duration": 0.25,
      "velocity": 0.82,
      "hand": "left"
    },
    {
      "midi": 45,
      "time": 107.5,
      "duration": 0.25,
      "velocity": 0.82,
      "hand": "left"
    },
    {
      "midi": 62,
      "time": 107.5,
      "duration": 0.25,
      "velocity": 0.86,
      "hand": "right"
    },
    {
      "midi": 45,
      "time": 108,
      "duration": 0.25,
      "velocity": 0.82,
      "hand": "left"
    },
    {
      "midi": 53,
      "time": 108,
      "duration": 0.25,
      "velocity": 0.86,
      "hand": "left"
    },
    {
      "midi": 60,
      "time": 108,
      "duration": 0.25,
      "velocity": 0.86,
      "hand": "right"
    },
    {
      "midi": 65,
      "time": 108,
      "duration": 0.25,
      "velocity": 0.82,
      "hand": "right"
    },
    {
      "midi": 69,
      "time": 108,
      "duration": 0.25,
      "velocity": 0.82,
      "hand": "right"
    },
    {
      "midi": 53,
      "time": 108.5,
      "duration": 0.25,
      "velocity": 0.86,
      "hand": "left"
    },
    {
      "midi": 60,
      "time": 108.5,
      "duration": 0.25,
      "velocity": 0.86,
      "hand": "right"
    },
    {
      "midi": 65,
      "time": 108.5,
      "duration": 0.25,
      "velocity": 0.82,
      "hand": "right"
    },
    {
      "midi": 69,
      "time": 108.5,
      "duration": 0.25,
      "velocity": 0.82,
      "hand": "right"
    },
    {
      "midi": 45,
      "time": 109,
      "duration": 0.25,
      "velocity": 0.82,
      "hand": "left"
    },
    {
      "midi": 53,
      "time": 109,
      "duration": 0.25,
      "velocity": 0.86,
      "hand": "left"
    },
    {
      "midi": 60,
      "time": 109,
      "duration": 0.25,
      "velocity": 0.86,
      "hand": "right"
    },
    {
      "midi": 65,
      "time": 109,
      "duration": 0.25,
      "velocity": 0.82,
      "hand": "right"
    },
    {
      "midi": 69,
      "time": 109,
      "duration": 0.25,
      "velocity": 0.82,
      "hand": "right"
    },
    {
      "midi": 45,
      "time": 109.5,
      "duration": 0.25,
      "velocity": 0.82,
      "hand": "left"
    },
    {
      "midi": 53,
      "time": 109.5,
      "duration": 0.25,
      "velocity": 0.86,
      "hand": "left"
    },
    {
      "midi": 60,
      "time": 109.5,
      "duration": 0.25,
      "velocity": 0.86,
      "hand": "right"
    },
    {
      "midi": 63,
      "time": 109.5,
      "duration": 0.25,
      "velocity": 0.82,
      "hand": "right"
    },
    {
      "midi": 69,
      "time": 109.5,
      "duration": 0.25,
      "velocity": 0.82,
      "hand": "right"
    },
    {
      "midi": 53,
      "time": 110,
      "duration": 0.25,
      "velocity": 0.86,
      "hand": "left"
    },
    {
      "midi": 60,
      "time": 110,
      "duration": 0.25,
      "velocity": 0.82,
      "hand": "right"
    },
    {
      "midi": 63,
      "time": 110,
      "duration": 0.25,
      "velocity": 0.82,
      "hand": "right"
    },
    {
      "midi": 70,
      "time": 110,
      "duration": 0.25,
      "velocity": 0.82,
      "hand": "right"
    },
    {
      "midi": 38,
      "time": 110.5,
      "duration": 0.25,
      "velocity": 0.82,
      "hand": "left"
    },
    {
      "midi": 45,
      "time": 110.5,
      "duration": 0.25,
      "velocity": 0.82,
      "hand": "left"
    },
    {
      "midi": 63,
      "time": 110.5,
      "duration": 0.25,
      "velocity": 0.82,
      "hand": "right"
    },
    {
      "midi": 72,
      "time": 110.5,
      "duration": 0.25,
      "velocity": 0.82,
      "hand": "right"
    },
    {
      "midi": 46,
      "time": 111,
      "duration": 1.485,
      "velocity": 0.86,
      "hand": "left"
    },
    {
      "midi": 62,
      "time": 111,
      "duration": 1.485,
      "velocity": 0.82,
      "hand": "right"
    },
    {
      "midi": 70,
      "time": 111,
      "duration": 1.485,
      "velocity": 0.88,
      "hand": "right"
    },
    {
      "midi": 52,
      "time": 111.5,
      "duration": 0.25,
      "velocity": 0.82,
      "hand": "left"
    },
    {
      "midi": 60,
      "time": 111.5,
      "duration": 0.25,
      "velocity": 0.82,
      "hand": "right"
    },
    {
      "midi": 52,
      "time": 112,
      "duration": 0.25,
      "velocity": 0.82,
      "hand": "left"
    },
    {
      "midi": 60,
      "time": 112,
      "duration": 0.25,
      "velocity": 0.82,
      "hand": "right"
    },
    {
      "midi": 46,
      "time": 112.5,
      "duration": 1,
      "velocity": 0.86,
      "hand": "left"
    },
    {
      "midi": 52,
      "time": 112.5,
      "duration": 0.25,
      "velocity": 0.82,
      "hand": "left"
    },
    {
      "midi": 60,
      "time": 112.5,
      "duration": 0.25,
      "velocity": 0.82,
      "hand": "right"
    },
    {
      "midi": 62,
      "time": 112.5,
      "duration": 1,
      "velocity": 0.82,
      "hand": "right"
    },
    {
      "midi": 70,
      "time": 112.5,
      "duration": 1,
      "velocity": 0.82,
      "hand": "right"
    },
    {
      "midi": 48,
      "time": 113,
      "duration": 0.25,
      "velocity": 0.82,
      "hand": "left"
    },
    {
      "midi": 47,
      "time": 113.25,
      "duration": 0.235,
      "velocity": 0.82,
      "hand": "left"
    },
    {
      "midi": 47,
      "time": 113.5,
      "duration": 0.25,
      "velocity": 0.82,
      "hand": "left"
    },
    {
      "midi": 45,
      "time": 113.75,
      "duration": 0.235,
      "velocity": 0.82,
      "hand": "left"
    },
    {
      "midi": 45,
      "time": 114,
      "duration": 0.25,
      "velocity": 0.82,
      "hand": "left"
    },
    {
      "midi": 51,
      "time": 114,
      "duration": 0.25,
      "velocity": 0.86,
      "hand": "left"
    },
    {
      "midi": 63,
      "time": 114,
      "duration": 0.25,
      "velocity": 0.82,
      "hand": "right"
    },
    {
      "midi": 67,
      "time": 114,
      "duration": 0.25,
      "velocity": 0.82,
      "hand": "right"
    },
    {
      "midi": 52,
      "time": 114.5,
      "duration": 0.25,
      "velocity": 0.82,
      "hand": "left"
    },
    {
      "midi": 63,
      "time": 114.5,
      "duration": 0.25,
      "velocity": 0.82,
      "hand": "right"
    },
    {
      "midi": 67,
      "time": 114.5,
      "duration": 0.25,
      "velocity": 0.82,
      "hand": "right"
    },
    {
      "midi": 45,
      "time": 115,
      "duration": 0.25,
      "velocity": 0.82,
      "hand": "left"
    },
    {
      "midi": 51,
      "time": 115,
      "duration": 0.25,
      "velocity": 0.86,
      "hand": "left"
    },
    {
      "midi": 63,
      "time": 115,
      "duration": 0.25,
      "velocity": 0.82,
      "hand": "right"
    },
    {
      "midi": 67,
      "time": 115,
      "duration": 0.25,
      "velocity": 0.82,
      "hand": "right"
    },
    {
      "midi": 45,
      "time": 115.5,
      "duration": 0.25,
      "velocity": 0.82,
      "hand": "left"
    },
    {
      "midi": 51,
      "time": 115.5,
      "duration": 0.25,
      "velocity": 0.86,
      "hand": "left"
    },
    {
      "midi": 67,
      "time": 115.5,
      "duration": 0.25,
      "velocity": 0.82,
      "hand": "right"
    },
    {
      "midi": 70,
      "time": 115.5,
      "duration": 0.25,
      "velocity": 0.82,
      "hand": "right"
    },
    {
      "midi": 52,
      "time": 116,
      "duration": 0.25,
      "velocity": 0.82,
      "hand": "left"
    },
    {
      "midi": 60,
      "time": 116,
      "duration": 0.25,
      "velocity": 0.82,
      "hand": "right"
    },
    {
      "midi": 65,
      "time": 116,
      "duration": 0.25,
      "velocity": 0.82,
      "hand": "right"
    },
    {
      "midi": 69,
      "time": 116,
      "duration": 0.25,
      "velocity": 0.82,
      "hand": "right"
    },
    {
      "midi": 38,
      "time": 116.5,
      "duration": 0.25,
      "velocity": 0.82,
      "hand": "left"
    },
    {
      "midi": 45,
      "time": 116.5,
      "duration": 0.25,
      "velocity": 0.82,
      "hand": "left"
    },
    {
      "midi": 63,
      "time": 116.5,
      "duration": 0.25,
      "velocity": 0.82,
      "hand": "right"
    },
    {
      "midi": 67,
      "time": 116.5,
      "duration": 0.25,
      "velocity": 0.82,
      "hand": "right"
    },
    {
      "midi": 46,
      "time": 117,
      "duration": 1,
      "velocity": 0.86,
      "hand": "left"
    },
    {
      "midi": 62,
      "time": 117,
      "duration": 1,
      "velocity": 0.82,
      "hand": "right"
    },
    {
      "midi": 65,
      "time": 117,
      "duration": 1,
      "velocity": 0.82,
      "hand": "right"
    },
    {
      "midi": 52,
      "time": 117.5,
      "duration": 0.25,
      "velocity": 0.82,
      "hand": "left"
    },
    {
      "midi": 45,
      "time": 118,
      "duration": 0.25,
      "velocity": 0.82,
      "hand": "left"
    },
    {
      "midi": 45,
      "time": 118.5,
      "duration": 0.25,
      "velocity": 0.82,
      "hand": "left"
    },
    {
      "midi": 50,
      "time": 118.5,
      "duration": 1,
      "velocity": 0.86,
      "hand": "left"
    },
    {
      "midi": 65,
      "time": 118.5,
      "duration": 1,
      "velocity": 0.82,
      "hand": "right"
    },
    {
      "midi": 70,
      "time": 118.5,
      "duration": 1,
      "velocity": 0.82,
      "hand": "right"
    },
    {
      "midi": 52,
      "time": 119,
      "duration": 0.25,
      "velocity": 0.82,
      "hand": "left"
    },
    {
      "midi": 60,
      "time": 119,
      "duration": 0.25,
      "velocity": 0.82,
      "hand": "right"
    },
    {
      "midi": 38,
      "time": 119.5,
      "duration": 0.25,
      "velocity": 0.82,
      "hand": "left"
    },
    {
      "midi": 45,
      "time": 119.5,
      "duration": 0.25,
      "velocity": 0.82,
      "hand": "left"
    },
    {
      "midi": 45,
      "time": 120,
      "duration": 0.25,
      "velocity": 0.82,
      "hand": "left"
    },
    {
      "midi": 55,
      "time": 120,
      "duration": 0.25,
      "velocity": 0.86,
      "hand": "left"
    },
    {
      "midi": 62,
      "time": 120,
      "duration": 0.25,
      "velocity": 0.86,
      "hand": "right"
    },
    {
      "midi": 67,
      "time": 120,
      "duration": 0.25,
      "velocity": 0.82,
      "hand": "right"
    },
    {
      "midi": 70,
      "time": 120,
      "duration": 0.25,
      "velocity": 0.82,
      "hand": "right"
    },
    {
      "midi": 52,
      "time": 120.5,
      "duration": 0.25,
      "velocity": 0.82,
      "hand": "left"
    },
    {
      "midi": 55,
      "time": 120.5,
      "duration": 0.25,
      "velocity": 0.86,
      "hand": "left"
    },
    {
      "midi": 62,
      "time": 120.5,
      "duration": 0.25,
      "velocity": 0.86,
      "hand": "right"
    },
    {
      "midi": 67,
      "time": 120.5,
      "duration": 0.25,
      "velocity": 0.82,
      "hand": "right"
    },
    {
      "midi": 70,
      "time": 120.5,
      "duration": 0.25,
      "velocity": 0.82,
      "hand": "right"
    },
    {
      "midi": 45,
      "time": 121,
      "duration": 0.25,
      "velocity": 0.82,
      "hand": "left"
    },
    {
      "midi": 53,
      "time": 121,
      "duration": 0.25,
      "velocity": 0.86,
      "hand": "left"
    },
    {
      "midi": 62,
      "time": 121,
      "duration": 0.25,
      "velocity": 0.86,
      "hand": "right"
    },
    {
      "midi": 67,
      "time": 121,
      "duration": 0.25,
      "velocity": 0.82,
      "hand": "right"
    },
    {
      "midi": 70,
      "time": 121,
      "duration": 0.25,
      "velocity": 0.82,
      "hand": "right"
    },
    {
      "midi": 45,
      "time": 121.5,
      "duration": 0.25,
      "velocity": 0.82,
      "hand": "left"
    },
    {
      "midi": 51,
      "time": 121.5,
      "duration": 0.25,
      "velocity": 0.86,
      "hand": "left"
    },
    {
      "midi": 63,
      "time": 121.5,
      "duration": 0.25,
      "velocity": 0.86,
      "hand": "right"
    },
    {
      "midi": 67,
      "time": 121.5,
      "duration": 0.25,
      "velocity": 0.82,
      "hand": "right"
    },
    {
      "midi": 70,
      "time": 121.5,
      "duration": 0.25,
      "velocity": 0.82,
      "hand": "right"
    },
    {
      "midi": 52,
      "time": 122,
      "duration": 0.25,
      "velocity": 0.82,
      "hand": "left"
    },
    {
      "midi": 60,
      "time": 122,
      "duration": 0.25,
      "velocity": 0.86,
      "hand": "right"
    },
    {
      "midi": 66,
      "time": 122,
      "duration": 0.25,
      "velocity": 0.82,
      "hand": "right"
    },
    {
      "midi": 69,
      "time": 122,
      "duration": 0.25,
      "velocity": 0.82,
      "hand": "right"
    },
    {
      "midi": 38,
      "time": 122.5,
      "duration": 0.25,
      "velocity": 0.82,
      "hand": "left"
    },
    {
      "midi": 45,
      "time": 122.5,
      "duration": 0.25,
      "velocity": 0.82,
      "hand": "left"
    },
    {
      "midi": 67,
      "time": 122.5,
      "duration": 0.25,
      "velocity": 0.82,
      "hand": "right"
    },
    {
      "midi": 70,
      "time": 122.5,
      "duration": 0.25,
      "velocity": 0.82,
      "hand": "right"
    },
    {
      "midi": 45,
      "time": 123,
      "duration": 0.25,
      "velocity": 0.82,
      "hand": "left"
    },
    {
      "midi": 53,
      "time": 123,
      "duration": 1.485,
      "velocity": 0.86,
      "hand": "left"
    },
    {
      "midi": 69,
      "time": 123,
      "duration": 1.485,
      "velocity": 0.82,
      "hand": "right"
    },
    {
      "midi": 72,
      "time": 123,
      "duration": 1.485,
      "velocity": 0.88,
      "hand": "right"
    },
    {
      "midi": 52,
      "time": 123.5,
      "duration": 0.25,
      "velocity": 0.82,
      "hand": "left"
    },
    {
      "midi": 60,
      "time": 123.5,
      "duration": 0.25,
      "velocity": 0.82,
      "hand": "right"
    },
    {
      "midi": 52,
      "time": 124,
      "duration": 0.25,
      "velocity": 0.82,
      "hand": "left"
    },
    {
      "midi": 60,
      "time": 124,
      "duration": 0.25,
      "velocity": 0.82,
      "hand": "right"
    },
    {
      "midi": 53,
      "time": 124.5,
      "duration": 1,
      "velocity": 0.86,
      "hand": "left"
    },
    {
      "midi": 60,
      "time": 124.5,
      "duration": 0.25,
      "velocity": 0.82,
      "hand": "right"
    },
    {
      "midi": 63,
      "time": 124.5,
      "duration": 1,
      "velocity": 0.86,
      "hand": "right"
    },
    {
      "midi": 69,
      "time": 124.5,
      "duration": 1,
      "velocity": 0.82,
      "hand": "right"
    },
    {
      "midi": 72,
      "time": 124.5,
      "duration": 1,
      "velocity": 0.82,
      "hand": "right"
    },
    {
      "midi": 48,
      "time": 125,
      "duration": 0.25,
      "velocity": 0.82,
      "hand": "left"
    },
    {
      "midi": 47,
      "time": 125.25,
      "duration": 0.235,
      "velocity": 0.82,
      "hand": "left"
    },
    {
      "midi": 47,
      "time": 125.5,
      "duration": 0.25,
      "velocity": 0.82,
      "hand": "left"
    },
    {
      "midi": 45,
      "time": 125.75,
      "duration": 0.235,
      "velocity": 0.82,
      "hand": "left"
    },
    {
      "midi": 46,
      "time": 126,
      "duration": 0.75,
      "velocity": 0.86,
      "hand": "left"
    },
    {
      "midi": 62,
      "time": 126,
      "duration": 0.75,
      "velocity": 0.86,
      "hand": "right"
    },
    {
      "midi": 70,
      "time": 126,
      "duration": 0.75,
      "velocity": 0.82,
      "hand": "right"
    },
    {
      "midi": 74,
      "time": 126,
      "duration": 1.485,
      "velocity": 0.88,
      "hand": "right"
    },
    {
      "midi": 52,
      "time": 126.5,
      "duration": 0.25,
      "velocity": 0.82,
      "hand": "left"
    },
    {
      "midi": 58,
      "time": 126.5,
      "duration": 0.25,
      "velocity": 0.86,
      "hand": "left"
    },
    {
      "midi": 65,
      "time": 126.5,
      "duration": 0.25,
      "velocity": 0.82,
      "hand": "right"
    },
    {
      "midi": 46,
      "time": 127,
      "duration": 0.25,
      "velocity": 0.86,
      "hand": "left"
    },
    {
      "midi": 65,
      "time": 127,
      "duration": 0.25,
      "velocity": 0.82,
      "hand": "right"
    },
    {
      "midi": 46,
      "time": 127.5,
      "duration": 0.25,
      "velocity": 0.86,
      "hand": "left"
    },
    {
      "midi": 74,
      "time": 127.5,
      "duration": 0.25,
      "velocity": 0.82,
      "hand": "right"
    },
    {
      "midi": 46,
      "time": 128,
      "duration": 0.25,
      "velocity": 0.86,
      "hand": "left"
    },
    {
      "midi": 52,
      "time": 128,
      "duration": 0.25,
      "velocity": 0.82,
      "hand": "left"
    },
    {
      "midi": 60,
      "time": 128,
      "duration": 0.25,
      "velocity": 0.82,
      "hand": "right"
    },
    {
      "midi": 64,
      "time": 128,
      "duration": 0.25,
      "velocity": 0.82,
      "hand": "right"
    },
    {
      "midi": 73,
      "time": 128,
      "duration": 0.25,
      "velocity": 0.82,
      "hand": "right"
    },
    {
      "midi": 38,
      "time": 128.5,
      "duration": 0.25,
      "velocity": 0.82,
      "hand": "left"
    },
    {
      "midi": 45,
      "time": 128.5,
      "duration": 0.25,
      "velocity": 0.82,
      "hand": "left"
    },
    {
      "midi": 65,
      "time": 128.5,
      "duration": 0.25,
      "velocity": 0.82,
      "hand": "right"
    },
    {
      "midi": 74,
      "time": 128.5,
      "duration": 0.25,
      "velocity": 0.82,
      "hand": "right"
    },
    {
      "midi": 46,
      "time": 129,
      "duration": 1,
      "velocity": 0.86,
      "hand": "left"
    },
    {
      "midi": 62,
      "time": 129,
      "duration": 1,
      "velocity": 0.82,
      "hand": "right"
    },
    {
      "midi": 70,
      "time": 129,
      "duration": 1,
      "velocity": 0.82,
      "hand": "right"
    },
    {
      "midi": 52,
      "time": 129.5,
      "duration": 0.25,
      "velocity": 0.82,
      "hand": "left"
    },
    {
      "midi": 45,
      "time": 130,
      "duration": 0.25,
      "velocity": 0.82,
      "hand": "left"
    },
    {
      "midi": 46,
      "time": 130.5,
      "duration": 1,
      "velocity": 0.86,
      "hand": "left"
    },
    {
      "midi": 62,
      "time": 130.5,
      "duration": 1,
      "velocity": 0.82,
      "hand": "right"
    },
    {
      "midi": 65,
      "time": 130.5,
      "duration": 1,
      "velocity": 0.82,
      "hand": "right"
    },
    {
      "midi": 52,
      "time": 131,
      "duration": 0.25,
      "velocity": 0.82,
      "hand": "left"
    },
    {
      "midi": 60,
      "time": 131,
      "duration": 0.25,
      "velocity": 0.82,
      "hand": "right"
    },
    {
      "midi": 38,
      "time": 131.5,
      "duration": 0.25,
      "velocity": 0.82,
      "hand": "left"
    },
    {
      "midi": 45,
      "time": 131.5,
      "duration": 0.25,
      "velocity": 0.82,
      "hand": "left"
    },
    {
      "midi": 46,
      "time": 132,
      "duration": 0.25,
      "velocity": 0.86,
      "hand": "left"
    },
    {
      "midi": 65,
      "time": 132,
      "duration": 0.25,
      "velocity": 0.82,
      "hand": "right"
    },
    {
      "midi": 74,
      "time": 132,
      "duration": 0.25,
      "velocity": 0.82,
      "hand": "right"
    },
    {
      "midi": 46,
      "time": 132.5,
      "duration": 0.25,
      "velocity": 0.86,
      "hand": "left"
    },
    {
      "midi": 52,
      "time": 132.5,
      "duration": 0.25,
      "velocity": 0.82,
      "hand": "left"
    },
    {
      "midi": 63,
      "time": 132.5,
      "duration": 0.25,
      "velocity": 0.82,
      "hand": "right"
    },
    {
      "midi": 72,
      "time": 132.5,
      "duration": 0.25,
      "velocity": 0.82,
      "hand": "right"
    },
    {
      "midi": 46,
      "time": 133,
      "duration": 0.25,
      "velocity": 0.86,
      "hand": "left"
    },
    {
      "midi": 62,
      "time": 133,
      "duration": 0.25,
      "velocity": 0.82,
      "hand": "right"
    },
    {
      "midi": 70,
      "time": 133,
      "duration": 0.25,
      "velocity": 0.82,
      "hand": "right"
    },
    {
      "midi": 45,
      "time": 133.5,
      "duration": 0.25,
      "velocity": 0.82,
      "hand": "left"
    },
    {
      "midi": 50,
      "time": 133.5,
      "duration": 0.25,
      "velocity": 0.86,
      "hand": "left"
    },
    {
      "midi": 65,
      "time": 133.5,
      "duration": 0.25,
      "velocity": 0.82,
      "hand": "right"
    },
    {
      "midi": 70,
      "time": 133.5,
      "duration": 0.25,
      "velocity": 0.82,
      "hand": "right"
    },
    {
      "midi": 48,
      "time": 134,
      "duration": 0.25,
      "velocity": 0.86,
      "hand": "left"
    },
    {
      "midi": 52,
      "time": 134,
      "duration": 0.25,
      "velocity": 0.82,
      "hand": "left"
    },
    {
      "midi": 60,
      "time": 134,
      "duration": 0.25,
      "velocity": 0.82,
      "hand": "right"
    },
    {
      "midi": 63,
      "time": 134,
      "duration": 0.25,
      "velocity": 0.82,
      "hand": "right"
    },
    {
      "midi": 69,
      "time": 134,
      "duration": 0.25,
      "velocity": 0.82,
      "hand": "right"
    },
    {
      "midi": 38,
      "time": 134.5,
      "duration": 0.25,
      "velocity": 0.82,
      "hand": "left"
    },
    {
      "midi": 45,
      "time": 134.5,
      "duration": 0.25,
      "velocity": 0.82,
      "hand": "left"
    },
    {
      "midi": 62,
      "time": 134.5,
      "duration": 0.25,
      "velocity": 0.82,
      "hand": "right"
    },
    {
      "midi": 70,
      "time": 134.5,
      "duration": 0.25,
      "velocity": 0.82,
      "hand": "right"
    },
    {
      "midi": 45,
      "time": 135,
      "duration": 0.25,
      "velocity": 0.82,
      "hand": "left"
    },
    {
      "midi": 53,
      "time": 135,
      "duration": 1.485,
      "velocity": 0.86,
      "hand": "left"
    },
    {
      "midi": 65,
      "time": 135,
      "duration": 1.485,
      "velocity": 0.82,
      "hand": "right"
    },
    {
      "midi": 72,
      "time": 135,
      "duration": 1.485,
      "velocity": 0.88,
      "hand": "right"
    },
    {
      "midi": 52,
      "time": 135.5,
      "duration": 0.25,
      "velocity": 0.82,
      "hand": "left"
    },
    {
      "midi": 60,
      "time": 135.5,
      "duration": 0.25,
      "velocity": 0.82,
      "hand": "right"
    },
    {
      "midi": 52,
      "time": 136,
      "duration": 0.25,
      "velocity": 0.82,
      "hand": "left"
    },
    {
      "midi": 60,
      "time": 136,
      "duration": 0.25,
      "velocity": 0.82,
      "hand": "right"
    },
    {
      "midi": 53,
      "time": 136.5,
      "duration": 1,
      "velocity": 0.86,
      "hand": "left"
    },
    {
      "midi": 60,
      "time": 136.5,
      "duration": 0.25,
      "velocity": 0.82,
      "hand": "right"
    },
    {
      "midi": 65,
      "time": 136.5,
      "duration": 1,
      "velocity": 0.82,
      "hand": "right"
    },
    {
      "midi": 72,
      "time": 136.5,
      "duration": 1,
      "velocity": 0.82,
      "hand": "right"
    },
    {
      "midi": 48,
      "time": 137,
      "duration": 0.25,
      "velocity": 0.82,
      "hand": "left"
    },
    {
      "midi": 47,
      "time": 137.25,
      "duration": 0.235,
      "velocity": 0.82,
      "hand": "left"
    },
    {
      "midi": 47,
      "time": 137.5,
      "duration": 0.25,
      "velocity": 0.82,
      "hand": "left"
    },
    {
      "midi": 45,
      "time": 137.75,
      "duration": 0.235,
      "velocity": 0.82,
      "hand": "left"
    },
    {
      "midi": 46,
      "time": 138,
      "duration": 0.25,
      "velocity": 0.86,
      "hand": "left"
    },
    {
      "midi": 65,
      "time": 138,
      "duration": 0.25,
      "velocity": 0.82,
      "hand": "right"
    },
    {
      "midi": 74,
      "time": 138,
      "duration": 0.25,
      "velocity": 0.82,
      "hand": "right"
    },
    {
      "midi": 46,
      "time": 138.5,
      "duration": 0.25,
      "velocity": 0.86,
      "hand": "left"
    },
    {
      "midi": 52,
      "time": 138.5,
      "duration": 0.25,
      "velocity": 0.82,
      "hand": "left"
    },
    {
      "midi": 65,
      "time": 138.5,
      "duration": 0.25,
      "velocity": 0.82,
      "hand": "right"
    },
    {
      "midi": 74,
      "time": 138.5,
      "duration": 0.25,
      "velocity": 0.82,
      "hand": "right"
    },
    {
      "midi": 46,
      "time": 139,
      "duration": 0.25,
      "velocity": 0.86,
      "hand": "left"
    },
    {
      "midi": 65,
      "time": 139,
      "duration": 0.25,
      "velocity": 0.82,
      "hand": "right"
    },
    {
      "midi": 74,
      "time": 139,
      "duration": 0.25,
      "velocity": 0.82,
      "hand": "right"
    },
    {
      "midi": 45,
      "time": 139.5,
      "duration": 0.25,
      "velocity": 0.82,
      "hand": "left"
    },
    {
      "midi": 51,
      "time": 139.5,
      "duration": 0.25,
      "velocity": 0.86,
      "hand": "left"
    },
    {
      "midi": 63,
      "time": 139.5,
      "duration": 0.25,
      "velocity": 0.82,
      "hand": "right"
    },
    {
      "midi": 72,
      "time": 139.5,
      "duration": 0.25,
      "velocity": 0.82,
      "hand": "right"
    },
    {
      "midi": 52,
      "time": 140,
      "duration": 0.25,
      "velocity": 0.82,
      "hand": "left"
    },
    {
      "midi": 60,
      "time": 140,
      "duration": 0.25,
      "velocity": 0.82,
      "hand": "right"
    },
    {
      "midi": 63,
      "time": 140,
      "duration": 0.25,
      "velocity": 0.82,
      "hand": "right"
    },
    {
      "midi": 70,
      "time": 140,
      "duration": 0.25,
      "velocity": 0.82,
      "hand": "right"
    },
    {
      "midi": 38,
      "time": 140.5,
      "duration": 0.25,
      "velocity": 0.82,
      "hand": "left"
    },
    {
      "midi": 45,
      "time": 140.5,
      "duration": 0.25,
      "velocity": 0.82,
      "hand": "left"
    },
    {
      "midi": 63,
      "time": 140.5,
      "duration": 0.25,
      "velocity": 0.82,
      "hand": "right"
    },
    {
      "midi": 67,
      "time": 140.5,
      "duration": 0.25,
      "velocity": 0.82,
      "hand": "right"
    },
    {
      "midi": 46,
      "time": 141,
      "duration": 1,
      "velocity": 0.86,
      "hand": "left"
    },
    {
      "midi": 62,
      "time": 141,
      "duration": 1,
      "velocity": 0.82,
      "hand": "right"
    },
    {
      "midi": 65,
      "time": 141,
      "duration": 1,
      "velocity": 0.82,
      "hand": "right"
    },
    {
      "midi": 52,
      "time": 141.5,
      "duration": 0.25,
      "velocity": 0.82,
      "hand": "left"
    },
    {
      "midi": 45,
      "time": 142,
      "duration": 0.25,
      "velocity": 0.82,
      "hand": "left"
    },
    {
      "midi": 46,
      "time": 142.5,
      "duration": 1,
      "velocity": 0.86,
      "hand": "left"
    },
    {
      "midi": 62,
      "time": 142.5,
      "duration": 0.985,
      "velocity": 0.82,
      "hand": "right"
    },
    {
      "midi": 70,
      "time": 142.5,
      "duration": 1,
      "velocity": 0.82,
      "hand": "right"
    },
    {
      "midi": 52,
      "time": 143,
      "duration": 0.25,
      "velocity": 0.82,
      "hand": "left"
    },
    {
      "midi": 58,
      "time": 143,
      "duration": 0.75,
      "velocity": 0.86,
      "hand": "left"
    },
    {
      "midi": 60,
      "time": 143,
      "duration": 0.25,
      "velocity": 0.82,
      "hand": "right"
    },
    {
      "midi": 38,
      "time": 143.5,
      "duration": 0.25,
      "velocity": 0.82,
      "hand": "left"
    },
    {
      "midi": 45,
      "time": 143.5,
      "duration": 0.25,
      "velocity": 0.82,
      "hand": "left"
    },
    {
      "midi": 62,
      "time": 143.5,
      "duration": 0.25,
      "velocity": 0.86,
      "hand": "right"
    },
    {
      "midi": 65,
      "time": 143.5,
      "duration": 0.25,
      "velocity": 0.82,
      "hand": "right"
    },
    {
      "midi": 45,
      "time": 144,
      "duration": 0.25,
      "velocity": 0.82,
      "hand": "left"
    },
    {
      "midi": 53,
      "time": 144,
      "duration": 0.25,
      "velocity": 0.86,
      "hand": "left"
    },
    {
      "midi": 60,
      "time": 144,
      "duration": 0.25,
      "velocity": 0.86,
      "hand": "right"
    },
    {
      "midi": 63,
      "time": 144,
      "duration": 0.25,
      "velocity": 0.82,
      "hand": "right"
    },
    {
      "midi": 69,
      "time": 144,
      "duration": 0.25,
      "velocity": 0.82,
      "hand": "right"
    },
    {
      "midi": 53,
      "time": 144.5,
      "duration": 0.25,
      "velocity": 0.86,
      "hand": "left"
    },
    {
      "midi": 60,
      "time": 144.5,
      "duration": 0.25,
      "velocity": 0.86,
      "hand": "right"
    },
    {
      "midi": 63,
      "time": 144.5,
      "duration": 0.25,
      "velocity": 0.82,
      "hand": "right"
    },
    {
      "midi": 69,
      "time": 144.5,
      "duration": 0.25,
      "velocity": 0.82,
      "hand": "right"
    },
    {
      "midi": 45,
      "time": 145,
      "duration": 0.25,
      "velocity": 0.82,
      "hand": "left"
    },
    {
      "midi": 53,
      "time": 145,
      "duration": 0.25,
      "velocity": 0.86,
      "hand": "left"
    },
    {
      "midi": 60,
      "time": 145,
      "duration": 0.25,
      "velocity": 0.86,
      "hand": "right"
    },
    {
      "midi": 63,
      "time": 145,
      "duration": 0.25,
      "velocity": 0.82,
      "hand": "right"
    },
    {
      "midi": 69,
      "time": 145,
      "duration": 0.25,
      "velocity": 0.82,
      "hand": "right"
    },
    {
      "midi": 45,
      "time": 145.5,
      "duration": 0.25,
      "velocity": 0.82,
      "hand": "left"
    },
    {
      "midi": 53,
      "time": 145.5,
      "duration": 0.25,
      "velocity": 0.86,
      "hand": "left"
    },
    {
      "midi": 60,
      "time": 145.5,
      "duration": 0.25,
      "velocity": 0.86,
      "hand": "right"
    },
    {
      "midi": 63,
      "time": 145.5,
      "duration": 0.25,
      "velocity": 0.82,
      "hand": "right"
    },
    {
      "midi": 69,
      "time": 145.5,
      "duration": 0.25,
      "velocity": 0.82,
      "hand": "right"
    },
    {
      "midi": 53,
      "time": 146,
      "duration": 0.25,
      "velocity": 0.86,
      "hand": "left"
    },
    {
      "midi": 60,
      "time": 146,
      "duration": 0.25,
      "velocity": 0.82,
      "hand": "right"
    },
    {
      "midi": 63,
      "time": 146,
      "duration": 0.25,
      "velocity": 0.82,
      "hand": "right"
    },
    {
      "midi": 70,
      "time": 146,
      "duration": 0.25,
      "velocity": 0.82,
      "hand": "right"
    },
    {
      "midi": 38,
      "time": 146.5,
      "duration": 0.25,
      "velocity": 0.82,
      "hand": "left"
    },
    {
      "midi": 45,
      "time": 146.5,
      "duration": 0.25,
      "velocity": 0.82,
      "hand": "left"
    },
    {
      "midi": 63,
      "time": 146.5,
      "duration": 0.25,
      "velocity": 0.82,
      "hand": "right"
    },
    {
      "midi": 72,
      "time": 146.5,
      "duration": 0.25,
      "velocity": 0.82,
      "hand": "right"
    },
    {
      "midi": 46,
      "time": 147,
      "duration": 1.485,
      "velocity": 0.86,
      "hand": "left"
    },
    {
      "midi": 62,
      "time": 147,
      "duration": 1.485,
      "velocity": 0.82,
      "hand": "right"
    },
    {
      "midi": 70,
      "time": 147,
      "duration": 1.485,
      "velocity": 0.88,
      "hand": "right"
    },
    {
      "midi": 52,
      "time": 147.5,
      "duration": 0.25,
      "velocity": 0.82,
      "hand": "left"
    },
    {
      "midi": 60,
      "time": 147.5,
      "duration": 0.25,
      "velocity": 0.82,
      "hand": "right"
    },
    {
      "midi": 52,
      "time": 148,
      "duration": 0.25,
      "velocity": 0.82,
      "hand": "left"
    },
    {
      "midi": 60,
      "time": 148,
      "duration": 0.25,
      "velocity": 0.82,
      "hand": "right"
    },
    {
      "midi": 46,
      "time": 148.5,
      "duration": 1,
      "velocity": 0.86,
      "hand": "left"
    },
    {
      "midi": 52,
      "time": 148.5,
      "duration": 0.25,
      "velocity": 0.82,
      "hand": "left"
    },
    {
      "midi": 60,
      "time": 148.5,
      "duration": 0.25,
      "velocity": 0.82,
      "hand": "right"
    },
    {
      "midi": 62,
      "time": 148.5,
      "duration": 1,
      "velocity": 0.82,
      "hand": "right"
    },
    {
      "midi": 70,
      "time": 148.5,
      "duration": 1,
      "velocity": 0.82,
      "hand": "right"
    },
    {
      "midi": 48,
      "time": 149,
      "duration": 0.25,
      "velocity": 0.82,
      "hand": "left"
    },
    {
      "midi": 47,
      "time": 149.25,
      "duration": 0.235,
      "velocity": 0.82,
      "hand": "left"
    },
    {
      "midi": 47,
      "time": 149.5,
      "duration": 0.25,
      "velocity": 0.82,
      "hand": "left"
    },
    {
      "midi": 45,
      "time": 149.75,
      "duration": 0.235,
      "velocity": 0.82,
      "hand": "left"
    },
    {
      "midi": 46,
      "time": 150,
      "duration": 0.25,
      "velocity": 0.86,
      "hand": "left"
    },
    {
      "midi": 62,
      "time": 150,
      "duration": 0.25,
      "velocity": 0.82,
      "hand": "right"
    },
    {
      "midi": 65,
      "time": 150,
      "duration": 0.25,
      "velocity": 0.82,
      "hand": "right"
    },
    {
      "midi": 46,
      "time": 150.5,
      "duration": 0.25,
      "velocity": 0.86,
      "hand": "left"
    },
    {
      "midi": 52,
      "time": 150.5,
      "duration": 0.25,
      "velocity": 0.82,
      "hand": "left"
    },
    {
      "midi": 62,
      "time": 150.5,
      "duration": 0.25,
      "velocity": 0.82,
      "hand": "right"
    },
    {
      "midi": 65,
      "time": 150.5,
      "duration": 0.25,
      "velocity": 0.82,
      "hand": "right"
    },
    {
      "midi": 46,
      "time": 151,
      "duration": 0.25,
      "velocity": 0.86,
      "hand": "left"
    },
    {
      "midi": 62,
      "time": 151,
      "duration": 0.25,
      "velocity": 0.82,
      "hand": "right"
    },
    {
      "midi": 65,
      "time": 151,
      "duration": 0.25,
      "velocity": 0.82,
      "hand": "right"
    },
    {
      "midi": 45,
      "time": 151.5,
      "duration": 0.25,
      "velocity": 0.82,
      "hand": "left"
    },
    {
      "midi": 53,
      "time": 151.5,
      "duration": 0.25,
      "velocity": 0.86,
      "hand": "left"
    },
    {
      "midi": 63,
      "time": 151.5,
      "duration": 0.25,
      "velocity": 0.82,
      "hand": "right"
    },
    {
      "midi": 65,
      "time": 151.5,
      "duration": 0.25,
      "velocity": 0.82,
      "hand": "right"
    },
    {
      "midi": 53,
      "time": 152,
      "duration": 0.25,
      "velocity": 0.86,
      "hand": "left"
    },
    {
      "midi": 60,
      "time": 152,
      "duration": 0.25,
      "velocity": 0.82,
      "hand": "right"
    },
    {
      "midi": 63,
      "time": 152,
      "duration": 0.25,
      "velocity": 0.82,
      "hand": "right"
    },
    {
      "midi": 67,
      "time": 152,
      "duration": 0.25,
      "velocity": 0.82,
      "hand": "right"
    },
    {
      "midi": 38,
      "time": 152.5,
      "duration": 0.25,
      "velocity": 0.82,
      "hand": "left"
    },
    {
      "midi": 45,
      "time": 152.5,
      "duration": 0.25,
      "velocity": 0.82,
      "hand": "left"
    },
    {
      "midi": 60,
      "time": 152.5,
      "duration": 0.25,
      "velocity": 0.86,
      "hand": "right"
    },
    {
      "midi": 63,
      "time": 152.5,
      "duration": 0.25,
      "velocity": 0.82,
      "hand": "right"
    },
    {
      "midi": 69,
      "time": 152.5,
      "duration": 0.25,
      "velocity": 0.82,
      "hand": "right"
    },
    {
      "midi": 46,
      "time": 153,
      "duration": 1,
      "velocity": 0.86,
      "hand": "left"
    },
    {
      "midi": 62,
      "time": 153,
      "duration": 1,
      "velocity": 0.82,
      "hand": "right"
    },
    {
      "midi": 70,
      "time": 153,
      "duration": 1,
      "velocity": 0.82,
      "hand": "right"
    },
    {
      "midi": 52,
      "time": 153.5,
      "duration": 0.25,
      "velocity": 0.82,
      "hand": "left"
    },
    {
      "midi": 45,
      "time": 154,
      "duration": 0.25,
      "velocity": 0.82,
      "hand": "left"
    },
    {
      "midi": 46,
      "time": 154.5,
      "duration": 1,
      "velocity": 0.86,
      "hand": "left"
    },
    {
      "midi": 62,
      "time": 154.5,
      "duration": 0.985,
      "velocity": 0.82,
      "hand": "right"
    },
    {
      "midi": 65,
      "time": 154.5,
      "duration": 1,
      "velocity": 0.82,
      "hand": "right"
    },
    {
      "midi": 52,
      "time": 155,
      "duration": 0.25,
      "velocity": 0.82,
      "hand": "left"
    },
    {
      "midi": 60,
      "time": 155,
      "duration": 0.25,
      "velocity": 0.82,
      "hand": "right"
    },
    {
      "midi": 38,
      "time": 155.5,
      "duration": 0.25,
      "velocity": 0.82,
      "hand": "left"
    },
    {
      "midi": 45,
      "time": 155.5,
      "duration": 0.25,
      "velocity": 0.82,
      "hand": "left"
    },
    {
      "midi": 62,
      "time": 155.5,
      "duration": 0.25,
      "velocity": 0.86,
      "hand": "right"
    },
    {
      "midi": 45,
      "time": 156,
      "duration": 0.25,
      "velocity": 0.82,
      "hand": "left"
    },
    {
      "midi": 53,
      "time": 156,
      "duration": 0.25,
      "velocity": 0.86,
      "hand": "left"
    },
    {
      "midi": 60,
      "time": 156,
      "duration": 0.25,
      "velocity": 0.86,
      "hand": "right"
    },
    {
      "midi": 65,
      "time": 156,
      "duration": 0.25,
      "velocity": 0.82,
      "hand": "right"
    },
    {
      "midi": 69,
      "time": 156,
      "duration": 0.25,
      "velocity": 0.82,
      "hand": "right"
    },
    {
      "midi": 53,
      "time": 156.5,
      "duration": 0.25,
      "velocity": 0.86,
      "hand": "left"
    },
    {
      "midi": 60,
      "time": 156.5,
      "duration": 0.25,
      "velocity": 0.86,
      "hand": "right"
    },
    {
      "midi": 65,
      "time": 156.5,
      "duration": 0.25,
      "velocity": 0.82,
      "hand": "right"
    },
    {
      "midi": 69,
      "time": 156.5,
      "duration": 0.25,
      "velocity": 0.82,
      "hand": "right"
    },
    {
      "midi": 45,
      "time": 157,
      "duration": 0.25,
      "velocity": 0.82,
      "hand": "left"
    },
    {
      "midi": 53,
      "time": 157,
      "duration": 0.25,
      "velocity": 0.86,
      "hand": "left"
    },
    {
      "midi": 60,
      "time": 157,
      "duration": 0.25,
      "velocity": 0.86,
      "hand": "right"
    },
    {
      "midi": 65,
      "time": 157,
      "duration": 0.25,
      "velocity": 0.82,
      "hand": "right"
    },
    {
      "midi": 69,
      "time": 157,
      "duration": 0.25,
      "velocity": 0.82,
      "hand": "right"
    },
    {
      "midi": 45,
      "time": 157.5,
      "duration": 0.25,
      "velocity": 0.82,
      "hand": "left"
    },
    {
      "midi": 53,
      "time": 157.5,
      "duration": 0.25,
      "velocity": 0.86,
      "hand": "left"
    },
    {
      "midi": 60,
      "time": 157.5,
      "duration": 0.25,
      "velocity": 0.86,
      "hand": "right"
    },
    {
      "midi": 63,
      "time": 157.5,
      "duration": 0.25,
      "velocity": 0.82,
      "hand": "right"
    },
    {
      "midi": 69,
      "time": 157.5,
      "duration": 0.25,
      "velocity": 0.82,
      "hand": "right"
    },
    {
      "midi": 53,
      "time": 158,
      "duration": 0.25,
      "velocity": 0.86,
      "hand": "left"
    },
    {
      "midi": 60,
      "time": 158,
      "duration": 0.25,
      "velocity": 0.82,
      "hand": "right"
    },
    {
      "midi": 63,
      "time": 158,
      "duration": 0.25,
      "velocity": 0.82,
      "hand": "right"
    },
    {
      "midi": 70,
      "time": 158,
      "duration": 0.25,
      "velocity": 0.82,
      "hand": "right"
    },
    {
      "midi": 38,
      "time": 158.5,
      "duration": 0.25,
      "velocity": 0.82,
      "hand": "left"
    },
    {
      "midi": 45,
      "time": 158.5,
      "duration": 0.25,
      "velocity": 0.82,
      "hand": "left"
    },
    {
      "midi": 63,
      "time": 158.5,
      "duration": 0.25,
      "velocity": 0.82,
      "hand": "right"
    },
    {
      "midi": 72,
      "time": 158.5,
      "duration": 0.25,
      "velocity": 0.82,
      "hand": "right"
    },
    {
      "midi": 46,
      "time": 159,
      "duration": 1.485,
      "velocity": 0.86,
      "hand": "left"
    },
    {
      "midi": 62,
      "time": 159,
      "duration": 1.485,
      "velocity": 0.82,
      "hand": "right"
    },
    {
      "midi": 70,
      "time": 159,
      "duration": 1.485,
      "velocity": 0.88,
      "hand": "right"
    },
    {
      "midi": 52,
      "time": 159.5,
      "duration": 0.25,
      "velocity": 0.82,
      "hand": "left"
    },
    {
      "midi": 60,
      "time": 159.5,
      "duration": 0.25,
      "velocity": 0.82,
      "hand": "right"
    },
    {
      "midi": 52,
      "time": 160,
      "duration": 0.25,
      "velocity": 0.82,
      "hand": "left"
    },
    {
      "midi": 60,
      "time": 160,
      "duration": 0.25,
      "velocity": 0.82,
      "hand": "right"
    },
    {
      "midi": 46,
      "time": 160.5,
      "duration": 1,
      "velocity": 0.86,
      "hand": "left"
    },
    {
      "midi": 52,
      "time": 160.5,
      "duration": 0.25,
      "velocity": 0.82,
      "hand": "left"
    },
    {
      "midi": 60,
      "time": 160.5,
      "duration": 0.25,
      "velocity": 0.82,
      "hand": "right"
    },
    {
      "midi": 62,
      "time": 160.5,
      "duration": 1,
      "velocity": 0.82,
      "hand": "right"
    },
    {
      "midi": 70,
      "time": 160.5,
      "duration": 1,
      "velocity": 0.82,
      "hand": "right"
    },
    {
      "midi": 48,
      "time": 161,
      "duration": 0.25,
      "velocity": 0.82,
      "hand": "left"
    },
    {
      "midi": 47,
      "time": 161.25,
      "duration": 0.235,
      "velocity": 0.82,
      "hand": "left"
    },
    {
      "midi": 47,
      "time": 161.5,
      "duration": 0.25,
      "velocity": 0.82,
      "hand": "left"
    },
    {
      "midi": 45,
      "time": 161.75,
      "duration": 0.235,
      "velocity": 0.82,
      "hand": "left"
    },
    {
      "midi": 45,
      "time": 162,
      "duration": 0.25,
      "velocity": 0.82,
      "hand": "left"
    },
    {
      "midi": 51,
      "time": 162,
      "duration": 0.25,
      "velocity": 0.86,
      "hand": "left"
    },
    {
      "midi": 63,
      "time": 162,
      "duration": 0.25,
      "velocity": 0.82,
      "hand": "right"
    },
    {
      "midi": 67,
      "time": 162,
      "duration": 0.25,
      "velocity": 0.82,
      "hand": "right"
    },
    {
      "midi": 52,
      "time": 162.5,
      "duration": 0.25,
      "velocity": 0.82,
      "hand": "left"
    },
    {
      "midi": 63,
      "time": 162.5,
      "duration": 0.25,
      "velocity": 0.82,
      "hand": "right"
    },
    {
      "midi": 67,
      "time": 162.5,
      "duration": 0.25,
      "velocity": 0.82,
      "hand": "right"
    },
    {
      "midi": 45,
      "time": 163,
      "duration": 0.25,
      "velocity": 0.82,
      "hand": "left"
    },
    {
      "midi": 51,
      "time": 163,
      "duration": 0.25,
      "velocity": 0.86,
      "hand": "left"
    },
    {
      "midi": 63,
      "time": 163,
      "duration": 0.25,
      "velocity": 0.82,
      "hand": "right"
    },
    {
      "midi": 67,
      "time": 163,
      "duration": 0.25,
      "velocity": 0.82,
      "hand": "right"
    },
    {
      "midi": 45,
      "time": 163.5,
      "duration": 0.25,
      "velocity": 0.82,
      "hand": "left"
    },
    {
      "midi": 51,
      "time": 163.5,
      "duration": 0.25,
      "velocity": 0.86,
      "hand": "left"
    },
    {
      "midi": 67,
      "time": 163.5,
      "duration": 0.25,
      "velocity": 0.82,
      "hand": "right"
    },
    {
      "midi": 70,
      "time": 163.5,
      "duration": 0.25,
      "velocity": 0.82,
      "hand": "right"
    },
    {
      "midi": 52,
      "time": 164,
      "duration": 0.25,
      "velocity": 0.82,
      "hand": "left"
    },
    {
      "midi": 60,
      "time": 164,
      "duration": 0.25,
      "velocity": 0.82,
      "hand": "right"
    },
    {
      "midi": 65,
      "time": 164,
      "duration": 0.25,
      "velocity": 0.82,
      "hand": "right"
    },
    {
      "midi": 69,
      "time": 164,
      "duration": 0.25,
      "velocity": 0.82,
      "hand": "right"
    },
    {
      "midi": 38,
      "time": 164.5,
      "duration": 0.25,
      "velocity": 0.82,
      "hand": "left"
    },
    {
      "midi": 45,
      "time": 164.5,
      "duration": 0.25,
      "velocity": 0.82,
      "hand": "left"
    },
    {
      "midi": 63,
      "time": 164.5,
      "duration": 0.25,
      "velocity": 0.82,
      "hand": "right"
    },
    {
      "midi": 67,
      "time": 164.5,
      "duration": 0.25,
      "velocity": 0.82,
      "hand": "right"
    },
    {
      "midi": 46,
      "time": 165,
      "duration": 1,
      "velocity": 0.86,
      "hand": "left"
    },
    {
      "midi": 62,
      "time": 165,
      "duration": 1,
      "velocity": 0.82,
      "hand": "right"
    },
    {
      "midi": 65,
      "time": 165,
      "duration": 1,
      "velocity": 0.82,
      "hand": "right"
    },
    {
      "midi": 52,
      "time": 165.5,
      "duration": 0.25,
      "velocity": 0.82,
      "hand": "left"
    },
    {
      "midi": 45,
      "time": 166,
      "duration": 0.25,
      "velocity": 0.82,
      "hand": "left"
    },
    {
      "midi": 45,
      "time": 166.5,
      "duration": 0.25,
      "velocity": 0.82,
      "hand": "left"
    },
    {
      "midi": 50,
      "time": 166.5,
      "duration": 1,
      "velocity": 0.86,
      "hand": "left"
    },
    {
      "midi": 65,
      "time": 166.5,
      "duration": 1,
      "velocity": 0.82,
      "hand": "right"
    },
    {
      "midi": 70,
      "time": 166.5,
      "duration": 1,
      "velocity": 0.82,
      "hand": "right"
    },
    {
      "midi": 52,
      "time": 167,
      "duration": 0.25,
      "velocity": 0.82,
      "hand": "left"
    },
    {
      "midi": 60,
      "time": 167,
      "duration": 0.25,
      "velocity": 0.82,
      "hand": "right"
    },
    {
      "midi": 38,
      "time": 167.5,
      "duration": 0.25,
      "velocity": 0.82,
      "hand": "left"
    },
    {
      "midi": 45,
      "time": 167.5,
      "duration": 0.25,
      "velocity": 0.82,
      "hand": "left"
    },
    {
      "midi": 45,
      "time": 168,
      "duration": 0.25,
      "velocity": 0.82,
      "hand": "left"
    },
    {
      "midi": 55,
      "time": 168,
      "duration": 0.25,
      "velocity": 0.86,
      "hand": "left"
    },
    {
      "midi": 62,
      "time": 168,
      "duration": 0.25,
      "velocity": 0.86,
      "hand": "right"
    },
    {
      "midi": 67,
      "time": 168,
      "duration": 0.25,
      "velocity": 0.82,
      "hand": "right"
    },
    {
      "midi": 70,
      "time": 168,
      "duration": 0.25,
      "velocity": 0.82,
      "hand": "right"
    },
    {
      "midi": 52,
      "time": 168.5,
      "duration": 0.25,
      "velocity": 0.82,
      "hand": "left"
    },
    {
      "midi": 55,
      "time": 168.5,
      "duration": 0.25,
      "velocity": 0.86,
      "hand": "left"
    },
    {
      "midi": 62,
      "time": 168.5,
      "duration": 0.25,
      "velocity": 0.86,
      "hand": "right"
    },
    {
      "midi": 67,
      "time": 168.5,
      "duration": 0.25,
      "velocity": 0.82,
      "hand": "right"
    },
    {
      "midi": 70,
      "time": 168.5,
      "duration": 0.25,
      "velocity": 0.82,
      "hand": "right"
    },
    {
      "midi": 45,
      "time": 169,
      "duration": 0.25,
      "velocity": 0.82,
      "hand": "left"
    },
    {
      "midi": 53,
      "time": 169,
      "duration": 0.25,
      "velocity": 0.86,
      "hand": "left"
    },
    {
      "midi": 62,
      "time": 169,
      "duration": 0.25,
      "velocity": 0.86,
      "hand": "right"
    },
    {
      "midi": 67,
      "time": 169,
      "duration": 0.25,
      "velocity": 0.82,
      "hand": "right"
    },
    {
      "midi": 70,
      "time": 169,
      "duration": 0.25,
      "velocity": 0.82,
      "hand": "right"
    },
    {
      "midi": 45,
      "time": 169.5,
      "duration": 0.25,
      "velocity": 0.82,
      "hand": "left"
    },
    {
      "midi": 51,
      "time": 169.5,
      "duration": 0.25,
      "velocity": 0.86,
      "hand": "left"
    },
    {
      "midi": 63,
      "time": 169.5,
      "duration": 0.25,
      "velocity": 0.86,
      "hand": "right"
    },
    {
      "midi": 67,
      "time": 169.5,
      "duration": 0.25,
      "velocity": 0.82,
      "hand": "right"
    },
    {
      "midi": 70,
      "time": 169.5,
      "duration": 0.25,
      "velocity": 0.82,
      "hand": "right"
    },
    {
      "midi": 52,
      "time": 170,
      "duration": 0.25,
      "velocity": 0.82,
      "hand": "left"
    },
    {
      "midi": 60,
      "time": 170,
      "duration": 0.25,
      "velocity": 0.86,
      "hand": "right"
    },
    {
      "midi": 66,
      "time": 170,
      "duration": 0.25,
      "velocity": 0.82,
      "hand": "right"
    },
    {
      "midi": 69,
      "time": 170,
      "duration": 0.25,
      "velocity": 0.82,
      "hand": "right"
    },
    {
      "midi": 38,
      "time": 170.5,
      "duration": 0.25,
      "velocity": 0.82,
      "hand": "left"
    },
    {
      "midi": 45,
      "time": 170.5,
      "duration": 0.25,
      "velocity": 0.82,
      "hand": "left"
    },
    {
      "midi": 67,
      "time": 170.5,
      "duration": 0.25,
      "velocity": 0.82,
      "hand": "right"
    },
    {
      "midi": 70,
      "time": 170.5,
      "duration": 0.25,
      "velocity": 0.82,
      "hand": "right"
    },
    {
      "midi": 45,
      "time": 171,
      "duration": 0.25,
      "velocity": 0.82,
      "hand": "left"
    },
    {
      "midi": 53,
      "time": 171,
      "duration": 1.485,
      "velocity": 0.86,
      "hand": "left"
    },
    {
      "midi": 69,
      "time": 171,
      "duration": 1.485,
      "velocity": 0.82,
      "hand": "right"
    },
    {
      "midi": 72,
      "time": 171,
      "duration": 1.485,
      "velocity": 0.88,
      "hand": "right"
    },
    {
      "midi": 52,
      "time": 171.5,
      "duration": 0.25,
      "velocity": 0.82,
      "hand": "left"
    },
    {
      "midi": 60,
      "time": 171.5,
      "duration": 0.25,
      "velocity": 0.82,
      "hand": "right"
    },
    {
      "midi": 52,
      "time": 172,
      "duration": 0.25,
      "velocity": 0.82,
      "hand": "left"
    },
    {
      "midi": 60,
      "time": 172,
      "duration": 0.25,
      "velocity": 0.82,
      "hand": "right"
    },
    {
      "midi": 53,
      "time": 172.5,
      "duration": 1,
      "velocity": 0.86,
      "hand": "left"
    },
    {
      "midi": 60,
      "time": 172.5,
      "duration": 0.25,
      "velocity": 0.82,
      "hand": "right"
    },
    {
      "midi": 63,
      "time": 172.5,
      "duration": 1,
      "velocity": 0.86,
      "hand": "right"
    },
    {
      "midi": 69,
      "time": 172.5,
      "duration": 1,
      "velocity": 0.82,
      "hand": "right"
    },
    {
      "midi": 72,
      "time": 172.5,
      "duration": 1,
      "velocity": 0.82,
      "hand": "right"
    },
    {
      "midi": 48,
      "time": 173,
      "duration": 0.25,
      "velocity": 0.82,
      "hand": "left"
    },
    {
      "midi": 47,
      "time": 173.25,
      "duration": 0.235,
      "velocity": 0.82,
      "hand": "left"
    },
    {
      "midi": 47,
      "time": 173.5,
      "duration": 0.25,
      "velocity": 0.82,
      "hand": "left"
    },
    {
      "midi": 45,
      "time": 173.75,
      "duration": 0.235,
      "velocity": 0.82,
      "hand": "left"
    },
    {
      "midi": 46,
      "time": 174,
      "duration": 0.75,
      "velocity": 0.86,
      "hand": "left"
    },
    {
      "midi": 62,
      "time": 174,
      "duration": 0.75,
      "velocity": 0.86,
      "hand": "right"
    },
    {
      "midi": 70,
      "time": 174,
      "duration": 0.75,
      "velocity": 0.82,
      "hand": "right"
    },
    {
      "midi": 74,
      "time": 174,
      "duration": 1.485,
      "velocity": 0.88,
      "hand": "right"
    },
    {
      "midi": 52,
      "time": 174.5,
      "duration": 0.25,
      "velocity": 0.82,
      "hand": "left"
    },
    {
      "midi": 58,
      "time": 174.5,
      "duration": 0.25,
      "velocity": 0.86,
      "hand": "left"
    },
    {
      "midi": 65,
      "time": 174.5,
      "duration": 0.25,
      "velocity": 0.82,
      "hand": "right"
    },
    {
      "midi": 46,
      "time": 175,
      "duration": 0.25,
      "velocity": 0.86,
      "hand": "left"
    },
    {
      "midi": 65,
      "time": 175,
      "duration": 0.25,
      "velocity": 0.82,
      "hand": "right"
    },
    {
      "midi": 46,
      "time": 175.5,
      "duration": 0.25,
      "velocity": 0.86,
      "hand": "left"
    },
    {
      "midi": 74,
      "time": 175.5,
      "duration": 0.25,
      "velocity": 0.82,
      "hand": "right"
    },
    {
      "midi": 46,
      "time": 176,
      "duration": 0.25,
      "velocity": 0.86,
      "hand": "left"
    },
    {
      "midi": 52,
      "time": 176,
      "duration": 0.25,
      "velocity": 0.82,
      "hand": "left"
    },
    {
      "midi": 60,
      "time": 176,
      "duration": 0.25,
      "velocity": 0.82,
      "hand": "right"
    },
    {
      "midi": 64,
      "time": 176,
      "duration": 0.25,
      "velocity": 0.82,
      "hand": "right"
    },
    {
      "midi": 73,
      "time": 176,
      "duration": 0.25,
      "velocity": 0.82,
      "hand": "right"
    },
    {
      "midi": 38,
      "time": 176.5,
      "duration": 0.25,
      "velocity": 0.82,
      "hand": "left"
    },
    {
      "midi": 45,
      "time": 176.5,
      "duration": 0.25,
      "velocity": 0.82,
      "hand": "left"
    },
    {
      "midi": 65,
      "time": 176.5,
      "duration": 0.25,
      "velocity": 0.82,
      "hand": "right"
    },
    {
      "midi": 74,
      "time": 176.5,
      "duration": 0.25,
      "velocity": 0.82,
      "hand": "right"
    },
    {
      "midi": 46,
      "time": 177,
      "duration": 1,
      "velocity": 0.86,
      "hand": "left"
    },
    {
      "midi": 62,
      "time": 177,
      "duration": 1,
      "velocity": 0.82,
      "hand": "right"
    },
    {
      "midi": 70,
      "time": 177,
      "duration": 1,
      "velocity": 0.82,
      "hand": "right"
    },
    {
      "midi": 52,
      "time": 177.5,
      "duration": 0.25,
      "velocity": 0.82,
      "hand": "left"
    },
    {
      "midi": 45,
      "time": 178,
      "duration": 0.25,
      "velocity": 0.82,
      "hand": "left"
    },
    {
      "midi": 46,
      "time": 178.5,
      "duration": 1,
      "velocity": 0.86,
      "hand": "left"
    },
    {
      "midi": 62,
      "time": 178.5,
      "duration": 1,
      "velocity": 0.82,
      "hand": "right"
    },
    {
      "midi": 65,
      "time": 178.5,
      "duration": 1,
      "velocity": 0.82,
      "hand": "right"
    },
    {
      "midi": 52,
      "time": 179,
      "duration": 0.25,
      "velocity": 0.82,
      "hand": "left"
    },
    {
      "midi": 60,
      "time": 179,
      "duration": 0.25,
      "velocity": 0.82,
      "hand": "right"
    },
    {
      "midi": 38,
      "time": 179.5,
      "duration": 0.25,
      "velocity": 0.82,
      "hand": "left"
    },
    {
      "midi": 45,
      "time": 179.5,
      "duration": 0.25,
      "velocity": 0.82,
      "hand": "left"
    },
    {
      "midi": 46,
      "time": 180,
      "duration": 0.25,
      "velocity": 0.86,
      "hand": "left"
    },
    {
      "midi": 65,
      "time": 180,
      "duration": 0.25,
      "velocity": 0.82,
      "hand": "right"
    },
    {
      "midi": 74,
      "time": 180,
      "duration": 0.25,
      "velocity": 0.82,
      "hand": "right"
    },
    {
      "midi": 46,
      "time": 180.5,
      "duration": 0.25,
      "velocity": 0.86,
      "hand": "left"
    },
    {
      "midi": 52,
      "time": 180.5,
      "duration": 0.25,
      "velocity": 0.82,
      "hand": "left"
    },
    {
      "midi": 63,
      "time": 180.5,
      "duration": 0.25,
      "velocity": 0.82,
      "hand": "right"
    },
    {
      "midi": 72,
      "time": 180.5,
      "duration": 0.25,
      "velocity": 0.82,
      "hand": "right"
    },
    {
      "midi": 46,
      "time": 181,
      "duration": 0.25,
      "velocity": 0.86,
      "hand": "left"
    },
    {
      "midi": 62,
      "time": 181,
      "duration": 0.25,
      "velocity": 0.82,
      "hand": "right"
    },
    {
      "midi": 70,
      "time": 181,
      "duration": 0.25,
      "velocity": 0.82,
      "hand": "right"
    },
    {
      "midi": 45,
      "time": 181.5,
      "duration": 0.25,
      "velocity": 0.82,
      "hand": "left"
    },
    {
      "midi": 50,
      "time": 181.5,
      "duration": 0.25,
      "velocity": 0.86,
      "hand": "left"
    },
    {
      "midi": 65,
      "time": 181.5,
      "duration": 0.25,
      "velocity": 0.82,
      "hand": "right"
    },
    {
      "midi": 70,
      "time": 181.5,
      "duration": 0.25,
      "velocity": 0.82,
      "hand": "right"
    },
    {
      "midi": 48,
      "time": 182,
      "duration": 0.25,
      "velocity": 0.86,
      "hand": "left"
    },
    {
      "midi": 52,
      "time": 182,
      "duration": 0.25,
      "velocity": 0.82,
      "hand": "left"
    },
    {
      "midi": 60,
      "time": 182,
      "duration": 0.25,
      "velocity": 0.82,
      "hand": "right"
    },
    {
      "midi": 63,
      "time": 182,
      "duration": 0.25,
      "velocity": 0.82,
      "hand": "right"
    },
    {
      "midi": 69,
      "time": 182,
      "duration": 0.25,
      "velocity": 0.82,
      "hand": "right"
    },
    {
      "midi": 38,
      "time": 182.5,
      "duration": 0.25,
      "velocity": 0.82,
      "hand": "left"
    },
    {
      "midi": 45,
      "time": 182.5,
      "duration": 0.25,
      "velocity": 0.82,
      "hand": "left"
    },
    {
      "midi": 62,
      "time": 182.5,
      "duration": 0.25,
      "velocity": 0.82,
      "hand": "right"
    },
    {
      "midi": 70,
      "time": 182.5,
      "duration": 0.25,
      "velocity": 0.82,
      "hand": "right"
    },
    {
      "midi": 45,
      "time": 183,
      "duration": 0.25,
      "velocity": 0.82,
      "hand": "left"
    },
    {
      "midi": 53,
      "time": 183,
      "duration": 1.485,
      "velocity": 0.86,
      "hand": "left"
    },
    {
      "midi": 65,
      "time": 183,
      "duration": 1.485,
      "velocity": 0.82,
      "hand": "right"
    },
    {
      "midi": 72,
      "time": 183,
      "duration": 1.485,
      "velocity": 0.88,
      "hand": "right"
    },
    {
      "midi": 52,
      "time": 183.5,
      "duration": 0.25,
      "velocity": 0.82,
      "hand": "left"
    },
    {
      "midi": 60,
      "time": 183.5,
      "duration": 0.25,
      "velocity": 0.82,
      "hand": "right"
    },
    {
      "midi": 52,
      "time": 184,
      "duration": 0.25,
      "velocity": 0.82,
      "hand": "left"
    },
    {
      "midi": 60,
      "time": 184,
      "duration": 0.25,
      "velocity": 0.82,
      "hand": "right"
    },
    {
      "midi": 53,
      "time": 184.5,
      "duration": 1,
      "velocity": 0.86,
      "hand": "left"
    },
    {
      "midi": 60,
      "time": 184.5,
      "duration": 0.25,
      "velocity": 0.82,
      "hand": "right"
    },
    {
      "midi": 65,
      "time": 184.5,
      "duration": 1,
      "velocity": 0.82,
      "hand": "right"
    },
    {
      "midi": 72,
      "time": 184.5,
      "duration": 1,
      "velocity": 0.82,
      "hand": "right"
    },
    {
      "midi": 48,
      "time": 185,
      "duration": 0.25,
      "velocity": 0.82,
      "hand": "left"
    },
    {
      "midi": 47,
      "time": 185.25,
      "duration": 0.235,
      "velocity": 0.82,
      "hand": "left"
    },
    {
      "midi": 47,
      "time": 185.5,
      "duration": 0.25,
      "velocity": 0.82,
      "hand": "left"
    },
    {
      "midi": 45,
      "time": 185.75,
      "duration": 0.235,
      "velocity": 0.82,
      "hand": "left"
    },
    {
      "midi": 46,
      "time": 186,
      "duration": 0.25,
      "velocity": 0.86,
      "hand": "left"
    },
    {
      "midi": 65,
      "time": 186,
      "duration": 0.25,
      "velocity": 0.82,
      "hand": "right"
    },
    {
      "midi": 74,
      "time": 186,
      "duration": 0.25,
      "velocity": 0.82,
      "hand": "right"
    },
    {
      "midi": 46,
      "time": 186.5,
      "duration": 0.25,
      "velocity": 0.86,
      "hand": "left"
    },
    {
      "midi": 52,
      "time": 186.5,
      "duration": 0.25,
      "velocity": 0.82,
      "hand": "left"
    },
    {
      "midi": 65,
      "time": 186.5,
      "duration": 0.25,
      "velocity": 0.82,
      "hand": "right"
    },
    {
      "midi": 74,
      "time": 186.5,
      "duration": 0.25,
      "velocity": 0.82,
      "hand": "right"
    },
    {
      "midi": 46,
      "time": 187,
      "duration": 0.25,
      "velocity": 0.86,
      "hand": "left"
    },
    {
      "midi": 65,
      "time": 187,
      "duration": 0.25,
      "velocity": 0.82,
      "hand": "right"
    },
    {
      "midi": 74,
      "time": 187,
      "duration": 0.25,
      "velocity": 0.82,
      "hand": "right"
    },
    {
      "midi": 45,
      "time": 187.5,
      "duration": 0.25,
      "velocity": 0.82,
      "hand": "left"
    },
    {
      "midi": 51,
      "time": 187.5,
      "duration": 0.25,
      "velocity": 0.86,
      "hand": "left"
    },
    {
      "midi": 63,
      "time": 187.5,
      "duration": 0.25,
      "velocity": 0.82,
      "hand": "right"
    },
    {
      "midi": 72,
      "time": 187.5,
      "duration": 0.25,
      "velocity": 0.82,
      "hand": "right"
    },
    {
      "midi": 52,
      "time": 188,
      "duration": 0.25,
      "velocity": 0.82,
      "hand": "left"
    },
    {
      "midi": 60,
      "time": 188,
      "duration": 0.25,
      "velocity": 0.82,
      "hand": "right"
    },
    {
      "midi": 63,
      "time": 188,
      "duration": 0.25,
      "velocity": 0.82,
      "hand": "right"
    },
    {
      "midi": 70,
      "time": 188,
      "duration": 0.25,
      "velocity": 0.82,
      "hand": "right"
    },
    {
      "midi": 38,
      "time": 188.5,
      "duration": 0.25,
      "velocity": 0.82,
      "hand": "left"
    },
    {
      "midi": 45,
      "time": 188.5,
      "duration": 0.25,
      "velocity": 0.82,
      "hand": "left"
    },
    {
      "midi": 63,
      "time": 188.5,
      "duration": 0.25,
      "velocity": 0.82,
      "hand": "right"
    },
    {
      "midi": 67,
      "time": 188.5,
      "duration": 0.25,
      "velocity": 0.82,
      "hand": "right"
    },
    {
      "midi": 46,
      "time": 189,
      "duration": 1,
      "velocity": 0.86,
      "hand": "left"
    },
    {
      "midi": 62,
      "time": 189,
      "duration": 1,
      "velocity": 0.82,
      "hand": "right"
    },
    {
      "midi": 65,
      "time": 189,
      "duration": 1,
      "velocity": 0.82,
      "hand": "right"
    },
    {
      "midi": 52,
      "time": 189.5,
      "duration": 0.25,
      "velocity": 0.82,
      "hand": "left"
    },
    {
      "midi": 45,
      "time": 190,
      "duration": 0.25,
      "velocity": 0.82,
      "hand": "left"
    },
    {
      "midi": 46,
      "time": 190.5,
      "duration": 1,
      "velocity": 0.86,
      "hand": "left"
    },
    {
      "midi": 62,
      "time": 190.5,
      "duration": 0.985,
      "velocity": 0.82,
      "hand": "right"
    },
    {
      "midi": 70,
      "time": 190.5,
      "duration": 1,
      "velocity": 0.82,
      "hand": "right"
    },
    {
      "midi": 52,
      "time": 191,
      "duration": 0.25,
      "velocity": 0.82,
      "hand": "left"
    },
    {
      "midi": 58,
      "time": 191,
      "duration": 0.75,
      "velocity": 0.86,
      "hand": "left"
    },
    {
      "midi": 60,
      "time": 191,
      "duration": 0.25,
      "velocity": 0.82,
      "hand": "right"
    },
    {
      "midi": 38,
      "time": 191.5,
      "duration": 0.25,
      "velocity": 0.82,
      "hand": "left"
    },
    {
      "midi": 45,
      "time": 191.5,
      "duration": 0.25,
      "velocity": 0.82,
      "hand": "left"
    },
    {
      "midi": 62,
      "time": 191.5,
      "duration": 0.25,
      "velocity": 0.86,
      "hand": "right"
    },
    {
      "midi": 65,
      "time": 191.5,
      "duration": 0.25,
      "velocity": 0.82,
      "hand": "right"
    },
    {
      "midi": 45,
      "time": 192,
      "duration": 0.25,
      "velocity": 0.82,
      "hand": "left"
    },
    {
      "midi": 53,
      "time": 192,
      "duration": 0.25,
      "velocity": 0.86,
      "hand": "left"
    },
    {
      "midi": 60,
      "time": 192,
      "duration": 0.25,
      "velocity": 0.86,
      "hand": "right"
    },
    {
      "midi": 63,
      "time": 192,
      "duration": 0.25,
      "velocity": 0.82,
      "hand": "right"
    },
    {
      "midi": 69,
      "time": 192,
      "duration": 0.25,
      "velocity": 0.82,
      "hand": "right"
    },
    {
      "midi": 53,
      "time": 192.5,
      "duration": 0.25,
      "velocity": 0.86,
      "hand": "left"
    },
    {
      "midi": 60,
      "time": 192.5,
      "duration": 0.25,
      "velocity": 0.86,
      "hand": "right"
    },
    {
      "midi": 63,
      "time": 192.5,
      "duration": 0.25,
      "velocity": 0.82,
      "hand": "right"
    },
    {
      "midi": 69,
      "time": 192.5,
      "duration": 0.25,
      "velocity": 0.82,
      "hand": "right"
    },
    {
      "midi": 45,
      "time": 193,
      "duration": 0.25,
      "velocity": 0.82,
      "hand": "left"
    },
    {
      "midi": 53,
      "time": 193,
      "duration": 0.25,
      "velocity": 0.86,
      "hand": "left"
    },
    {
      "midi": 60,
      "time": 193,
      "duration": 0.25,
      "velocity": 0.86,
      "hand": "right"
    },
    {
      "midi": 63,
      "time": 193,
      "duration": 0.25,
      "velocity": 0.82,
      "hand": "right"
    },
    {
      "midi": 69,
      "time": 193,
      "duration": 0.25,
      "velocity": 0.82,
      "hand": "right"
    },
    {
      "midi": 45,
      "time": 193.5,
      "duration": 0.25,
      "velocity": 0.82,
      "hand": "left"
    },
    {
      "midi": 53,
      "time": 193.5,
      "duration": 0.25,
      "velocity": 0.86,
      "hand": "left"
    },
    {
      "midi": 60,
      "time": 193.5,
      "duration": 0.25,
      "velocity": 0.86,
      "hand": "right"
    },
    {
      "midi": 63,
      "time": 193.5,
      "duration": 0.25,
      "velocity": 0.82,
      "hand": "right"
    },
    {
      "midi": 69,
      "time": 193.5,
      "duration": 0.25,
      "velocity": 0.82,
      "hand": "right"
    },
    {
      "midi": 53,
      "time": 194,
      "duration": 0.25,
      "velocity": 0.86,
      "hand": "left"
    },
    {
      "midi": 60,
      "time": 194,
      "duration": 0.25,
      "velocity": 0.82,
      "hand": "right"
    },
    {
      "midi": 63,
      "time": 194,
      "duration": 0.25,
      "velocity": 0.82,
      "hand": "right"
    },
    {
      "midi": 70,
      "time": 194,
      "duration": 0.25,
      "velocity": 0.82,
      "hand": "right"
    },
    {
      "midi": 38,
      "time": 194.5,
      "duration": 0.25,
      "velocity": 0.82,
      "hand": "left"
    },
    {
      "midi": 45,
      "time": 194.5,
      "duration": 0.25,
      "velocity": 0.82,
      "hand": "left"
    },
    {
      "midi": 63,
      "time": 194.5,
      "duration": 0.25,
      "velocity": 0.82,
      "hand": "right"
    },
    {
      "midi": 72,
      "time": 194.5,
      "duration": 0.25,
      "velocity": 0.82,
      "hand": "right"
    },
    {
      "midi": 46,
      "time": 195,
      "duration": 1.485,
      "velocity": 0.86,
      "hand": "left"
    },
    {
      "midi": 62,
      "time": 195,
      "duration": 1.485,
      "velocity": 0.82,
      "hand": "right"
    },
    {
      "midi": 70,
      "time": 195,
      "duration": 1.485,
      "velocity": 0.88,
      "hand": "right"
    },
    {
      "midi": 38,
      "time": 195.75,
      "duration": 0.25,
      "velocity": 0.82,
      "hand": "left"
    },
    {
      "midi": 47,
      "time": 196,
      "duration": 0.25,
      "velocity": 0.82,
      "hand": "left"
    },
    {
      "midi": 45,
      "time": 196.25,
      "duration": 0.235,
      "velocity": 0.82,
      "hand": "left"
    },
    {
      "midi": 46,
      "time": 196.5,
      "duration": 1,
      "velocity": 0.86,
      "hand": "left"
    },
    {
      "midi": 62,
      "time": 196.5,
      "duration": 1,
      "velocity": 0.82,
      "hand": "right"
    },
    {
      "midi": 70,
      "time": 196.5,
      "duration": 1,
      "velocity": 0.82,
      "hand": "right"
    }
  ],
  "arrangements": {
    "easy": [
      {
        "midi": 69,
        "time": 0,
        "duration": 0.6,
        "velocity": 0.82,
        "hand": "right"
      },
      {
        "midi": 69,
        "time": 1,
        "duration": 0.6,
        "velocity": 0.82,
        "hand": "right"
      },
      {
        "midi": 70,
        "time": 2,
        "duration": 0.6,
        "velocity": 0.82,
        "hand": "right"
      },
      {
        "midi": 70,
        "time": 3,
        "duration": 2.4,
        "velocity": 0.82,
        "hand": "right"
      },
      {
        "midi": 62,
        "time": 5.25,
        "duration": 0.6,
        "velocity": 0.82,
        "hand": "right"
      },
      {
        "midi": 65,
        "time": 6.5,
        "duration": 0.6,
        "velocity": 0.82,
        "hand": "right"
      },
      {
        "midi": 65,
        "time": 7.5,
        "duration": 0.6,
        "velocity": 0.82,
        "hand": "right"
      },
      {
        "midi": 69,
        "time": 8.5,
        "duration": 0.6,
        "velocity": 0.82,
        "hand": "right"
      },
      {
        "midi": 64,
        "time": 9.5,
        "duration": 0.6,
        "velocity": 0.82,
        "hand": "right"
      },
      {
        "midi": 65,
        "time": 10.5,
        "duration": 1,
        "velocity": 0.82,
        "hand": "right"
      },
      {
        "midi": 62,
        "time": 11.5,
        "duration": 0.6,
        "velocity": 0.86,
        "hand": "right"
      },
      {
        "midi": 69,
        "time": 12.5,
        "duration": 0.6,
        "velocity": 0.82,
        "hand": "right"
      },
      {
        "midi": 69,
        "time": 13.5,
        "duration": 0.6,
        "velocity": 0.82,
        "hand": "right"
      },
      {
        "midi": 72,
        "time": 14.5,
        "duration": 0.6,
        "velocity": 0.82,
        "hand": "right"
      },
      {
        "midi": 60,
        "time": 15.5,
        "duration": 0.6,
        "velocity": 0.82,
        "hand": "right"
      },
      {
        "midi": 70,
        "time": 16.5,
        "duration": 1,
        "velocity": 0.82,
        "hand": "right"
      },
      {
        "midi": 59,
        "time": 17.5,
        "duration": 0.6,
        "velocity": 0.82,
        "hand": "right"
      },
      {
        "midi": 67,
        "time": 18.5,
        "duration": 0.6,
        "velocity": 0.82,
        "hand": "right"
      },
      {
        "midi": 70,
        "time": 19.5,
        "duration": 0.6,
        "velocity": 0.82,
        "hand": "right"
      },
      {
        "midi": 67,
        "time": 20.5,
        "duration": 0.6,
        "velocity": 0.82,
        "hand": "right"
      },
      {
        "midi": 64,
        "time": 21.5,
        "duration": 0.6,
        "velocity": 0.82,
        "hand": "right"
      },
      {
        "midi": 70,
        "time": 22.5,
        "duration": 1,
        "velocity": 0.82,
        "hand": "right"
      },
      {
        "midi": 57,
        "time": 23.5,
        "duration": 0.6,
        "velocity": 0.82,
        "hand": "right"
      },
      {
        "midi": 70,
        "time": 24.5,
        "duration": 0.6,
        "velocity": 0.82,
        "hand": "right"
      },
      {
        "midi": 70,
        "time": 25.5,
        "duration": 0.6,
        "velocity": 0.82,
        "hand": "right"
      },
      {
        "midi": 70,
        "time": 26.5,
        "duration": 0.6,
        "velocity": 0.82,
        "hand": "right"
      },
      {
        "midi": 60,
        "time": 27.5,
        "duration": 0.6,
        "velocity": 0.82,
        "hand": "right"
      },
      {
        "midi": 72,
        "time": 28.5,
        "duration": 1,
        "velocity": 0.82,
        "hand": "right"
      },
      {
        "midi": 59,
        "time": 29.5,
        "duration": 0.6,
        "velocity": 0.82,
        "hand": "right"
      },
      {
        "midi": 65,
        "time": 30.5,
        "duration": 0.6,
        "velocity": 0.82,
        "hand": "right"
      },
      {
        "midi": 74,
        "time": 31.5,
        "duration": 0.6,
        "velocity": 0.82,
        "hand": "right"
      },
      {
        "midi": 74,
        "time": 32.5,
        "duration": 0.6,
        "velocity": 0.82,
        "hand": "right"
      },
      {
        "midi": 64,
        "time": 33.5,
        "duration": 0.6,
        "velocity": 0.82,
        "hand": "right"
      },
      {
        "midi": 65,
        "time": 34.5,
        "duration": 1,
        "velocity": 0.82,
        "hand": "right"
      },
      {
        "midi": 57,
        "time": 35.5,
        "duration": 0.6,
        "velocity": 0.82,
        "hand": "right"
      },
      {
        "midi": 72,
        "time": 36.5,
        "duration": 0.6,
        "velocity": 0.82,
        "hand": "right"
      },
      {
        "midi": 70,
        "time": 37.5,
        "duration": 0.6,
        "velocity": 0.82,
        "hand": "right"
      },
      {
        "midi": 70,
        "time": 38.5,
        "duration": 0.6,
        "velocity": 0.82,
        "hand": "right"
      },
      {
        "midi": 60,
        "time": 39.5,
        "duration": 0.6,
        "velocity": 0.82,
        "hand": "right"
      },
      {
        "midi": 72,
        "time": 40.5,
        "duration": 1,
        "velocity": 0.82,
        "hand": "right"
      },
      {
        "midi": 59,
        "time": 41.5,
        "duration": 0.6,
        "velocity": 0.82,
        "hand": "right"
      },
      {
        "midi": 74,
        "time": 42.5,
        "duration": 0.6,
        "velocity": 0.82,
        "hand": "right"
      },
      {
        "midi": 72,
        "time": 43.5,
        "duration": 0.6,
        "velocity": 0.82,
        "hand": "right"
      },
      {
        "midi": 67,
        "time": 44.5,
        "duration": 0.6,
        "velocity": 0.82,
        "hand": "right"
      },
      {
        "midi": 64,
        "time": 45.5,
        "duration": 0.6,
        "velocity": 0.82,
        "hand": "right"
      },
      {
        "midi": 70,
        "time": 46.5,
        "duration": 1,
        "velocity": 0.82,
        "hand": "right"
      },
      {
        "midi": 65,
        "time": 47.5,
        "duration": 0.6,
        "velocity": 0.82,
        "hand": "right"
      },
      {
        "midi": 69,
        "time": 48.5,
        "duration": 0.6,
        "velocity": 0.82,
        "hand": "right"
      },
      {
        "midi": 69,
        "time": 49.5,
        "duration": 0.6,
        "velocity": 0.82,
        "hand": "right"
      },
      {
        "midi": 72,
        "time": 50.5,
        "duration": 0.6,
        "velocity": 0.82,
        "hand": "right"
      },
      {
        "midi": 60,
        "time": 51.5,
        "duration": 0.6,
        "velocity": 0.82,
        "hand": "right"
      },
      {
        "midi": 70,
        "time": 52.5,
        "duration": 1,
        "velocity": 0.82,
        "hand": "right"
      },
      {
        "midi": 59,
        "time": 53.5,
        "duration": 0.6,
        "velocity": 0.82,
        "hand": "right"
      },
      {
        "midi": 65,
        "time": 54.5,
        "duration": 0.6,
        "velocity": 0.82,
        "hand": "right"
      },
      {
        "midi": 65,
        "time": 55.5,
        "duration": 0.6,
        "velocity": 0.82,
        "hand": "right"
      },
      {
        "midi": 69,
        "time": 56.5,
        "duration": 0.6,
        "velocity": 0.82,
        "hand": "right"
      },
      {
        "midi": 64,
        "time": 57.5,
        "duration": 0.6,
        "velocity": 0.82,
        "hand": "right"
      },
      {
        "midi": 65,
        "time": 58.5,
        "duration": 1,
        "velocity": 0.82,
        "hand": "right"
      },
      {
        "midi": 62,
        "time": 59.5,
        "duration": 0.6,
        "velocity": 0.86,
        "hand": "right"
      },
      {
        "midi": 69,
        "time": 60.5,
        "duration": 0.6,
        "velocity": 0.82,
        "hand": "right"
      },
      {
        "midi": 69,
        "time": 61.5,
        "duration": 0.6,
        "velocity": 0.82,
        "hand": "right"
      },
      {
        "midi": 72,
        "time": 62.5,
        "duration": 0.6,
        "velocity": 0.82,
        "hand": "right"
      },
      {
        "midi": 60,
        "time": 63.5,
        "duration": 0.6,
        "velocity": 0.82,
        "hand": "right"
      },
      {
        "midi": 70,
        "time": 64.5,
        "duration": 1,
        "velocity": 0.82,
        "hand": "right"
      },
      {
        "midi": 59,
        "time": 65.5,
        "duration": 0.6,
        "velocity": 0.82,
        "hand": "right"
      },
      {
        "midi": 67,
        "time": 66.5,
        "duration": 0.6,
        "velocity": 0.82,
        "hand": "right"
      },
      {
        "midi": 70,
        "time": 67.5,
        "duration": 0.6,
        "velocity": 0.82,
        "hand": "right"
      },
      {
        "midi": 67,
        "time": 68.5,
        "duration": 0.6,
        "velocity": 0.82,
        "hand": "right"
      },
      {
        "midi": 64,
        "time": 69.5,
        "duration": 0.6,
        "velocity": 0.82,
        "hand": "right"
      },
      {
        "midi": 70,
        "time": 70.5,
        "duration": 1,
        "velocity": 0.82,
        "hand": "right"
      },
      {
        "midi": 57,
        "time": 71.5,
        "duration": 0.6,
        "velocity": 0.82,
        "hand": "right"
      },
      {
        "midi": 70,
        "time": 72.5,
        "duration": 0.6,
        "velocity": 0.82,
        "hand": "right"
      },
      {
        "midi": 70,
        "time": 73.5,
        "duration": 0.6,
        "velocity": 0.82,
        "hand": "right"
      },
      {
        "midi": 70,
        "time": 74.5,
        "duration": 0.6,
        "velocity": 0.82,
        "hand": "right"
      },
      {
        "midi": 60,
        "time": 75.5,
        "duration": 0.6,
        "velocity": 0.82,
        "hand": "right"
      },
      {
        "midi": 72,
        "time": 76.5,
        "duration": 1,
        "velocity": 0.82,
        "hand": "right"
      },
      {
        "midi": 59,
        "time": 77.5,
        "duration": 0.6,
        "velocity": 0.82,
        "hand": "right"
      },
      {
        "midi": 65,
        "time": 78.5,
        "duration": 0.6,
        "velocity": 0.82,
        "hand": "right"
      },
      {
        "midi": 74,
        "time": 79.5,
        "duration": 0.6,
        "velocity": 0.82,
        "hand": "right"
      },
      {
        "midi": 74,
        "time": 80.5,
        "duration": 0.6,
        "velocity": 0.82,
        "hand": "right"
      },
      {
        "midi": 64,
        "time": 81.5,
        "duration": 0.6,
        "velocity": 0.82,
        "hand": "right"
      },
      {
        "midi": 65,
        "time": 82.5,
        "duration": 1,
        "velocity": 0.82,
        "hand": "right"
      },
      {
        "midi": 57,
        "time": 83.5,
        "duration": 0.6,
        "velocity": 0.82,
        "hand": "right"
      },
      {
        "midi": 72,
        "time": 84.5,
        "duration": 0.6,
        "velocity": 0.82,
        "hand": "right"
      },
      {
        "midi": 70,
        "time": 85.5,
        "duration": 0.6,
        "velocity": 0.82,
        "hand": "right"
      },
      {
        "midi": 70,
        "time": 86.5,
        "duration": 0.6,
        "velocity": 0.82,
        "hand": "right"
      },
      {
        "midi": 60,
        "time": 87.5,
        "duration": 0.6,
        "velocity": 0.82,
        "hand": "right"
      },
      {
        "midi": 72,
        "time": 88.5,
        "duration": 1,
        "velocity": 0.82,
        "hand": "right"
      },
      {
        "midi": 59,
        "time": 89.5,
        "duration": 0.6,
        "velocity": 0.82,
        "hand": "right"
      },
      {
        "midi": 74,
        "time": 90.5,
        "duration": 0.6,
        "velocity": 0.82,
        "hand": "right"
      },
      {
        "midi": 72,
        "time": 91.5,
        "duration": 0.6,
        "velocity": 0.82,
        "hand": "right"
      },
      {
        "midi": 67,
        "time": 92.5,
        "duration": 0.6,
        "velocity": 0.82,
        "hand": "right"
      },
      {
        "midi": 64,
        "time": 93.5,
        "duration": 0.6,
        "velocity": 0.82,
        "hand": "right"
      },
      {
        "midi": 70,
        "time": 94.5,
        "duration": 1,
        "velocity": 0.82,
        "hand": "right"
      },
      {
        "midi": 65,
        "time": 95.5,
        "duration": 0.6,
        "velocity": 0.82,
        "hand": "right"
      },
      {
        "midi": 69,
        "time": 96.5,
        "duration": 0.6,
        "velocity": 0.82,
        "hand": "right"
      },
      {
        "midi": 69,
        "time": 97.5,
        "duration": 0.6,
        "velocity": 0.82,
        "hand": "right"
      },
      {
        "midi": 72,
        "time": 98.5,
        "duration": 0.6,
        "velocity": 0.82,
        "hand": "right"
      },
      {
        "midi": 60,
        "time": 99.5,
        "duration": 0.6,
        "velocity": 0.82,
        "hand": "right"
      },
      {
        "midi": 70,
        "time": 100.5,
        "duration": 1,
        "velocity": 0.82,
        "hand": "right"
      },
      {
        "midi": 59,
        "time": 101.5,
        "duration": 0.6,
        "velocity": 0.82,
        "hand": "right"
      },
      {
        "midi": 65,
        "time": 102.5,
        "duration": 0.6,
        "velocity": 0.82,
        "hand": "right"
      },
      {
        "midi": 65,
        "time": 103.5,
        "duration": 0.6,
        "velocity": 0.82,
        "hand": "right"
      },
      {
        "midi": 69,
        "time": 104.5,
        "duration": 0.6,
        "velocity": 0.82,
        "hand": "right"
      },
      {
        "midi": 64,
        "time": 105.5,
        "duration": 0.6,
        "velocity": 0.82,
        "hand": "right"
      },
      {
        "midi": 65,
        "time": 106.5,
        "duration": 1,
        "velocity": 0.82,
        "hand": "right"
      },
      {
        "midi": 62,
        "time": 107.5,
        "duration": 0.6,
        "velocity": 0.86,
        "hand": "right"
      },
      {
        "midi": 69,
        "time": 108.5,
        "duration": 0.6,
        "velocity": 0.82,
        "hand": "right"
      },
      {
        "midi": 69,
        "time": 109.5,
        "duration": 0.6,
        "velocity": 0.82,
        "hand": "right"
      },
      {
        "midi": 72,
        "time": 110.5,
        "duration": 0.6,
        "velocity": 0.82,
        "hand": "right"
      },
      {
        "midi": 60,
        "time": 111.5,
        "duration": 0.6,
        "velocity": 0.82,
        "hand": "right"
      },
      {
        "midi": 70,
        "time": 112.5,
        "duration": 1,
        "velocity": 0.82,
        "hand": "right"
      },
      {
        "midi": 59,
        "time": 113.5,
        "duration": 0.6,
        "velocity": 0.82,
        "hand": "right"
      },
      {
        "midi": 67,
        "time": 114.5,
        "duration": 0.6,
        "velocity": 0.82,
        "hand": "right"
      },
      {
        "midi": 70,
        "time": 115.5,
        "duration": 0.6,
        "velocity": 0.82,
        "hand": "right"
      },
      {
        "midi": 67,
        "time": 116.5,
        "duration": 0.6,
        "velocity": 0.82,
        "hand": "right"
      },
      {
        "midi": 64,
        "time": 117.5,
        "duration": 0.6,
        "velocity": 0.82,
        "hand": "right"
      },
      {
        "midi": 70,
        "time": 118.5,
        "duration": 1,
        "velocity": 0.82,
        "hand": "right"
      },
      {
        "midi": 57,
        "time": 119.5,
        "duration": 0.6,
        "velocity": 0.82,
        "hand": "right"
      },
      {
        "midi": 70,
        "time": 120.5,
        "duration": 0.6,
        "velocity": 0.82,
        "hand": "right"
      },
      {
        "midi": 70,
        "time": 121.5,
        "duration": 0.6,
        "velocity": 0.82,
        "hand": "right"
      },
      {
        "midi": 70,
        "time": 122.5,
        "duration": 0.6,
        "velocity": 0.82,
        "hand": "right"
      },
      {
        "midi": 60,
        "time": 123.5,
        "duration": 0.6,
        "velocity": 0.82,
        "hand": "right"
      },
      {
        "midi": 72,
        "time": 124.5,
        "duration": 1,
        "velocity": 0.82,
        "hand": "right"
      },
      {
        "midi": 59,
        "time": 125.5,
        "duration": 0.6,
        "velocity": 0.82,
        "hand": "right"
      },
      {
        "midi": 65,
        "time": 126.5,
        "duration": 0.6,
        "velocity": 0.82,
        "hand": "right"
      },
      {
        "midi": 74,
        "time": 127.5,
        "duration": 0.6,
        "velocity": 0.82,
        "hand": "right"
      },
      {
        "midi": 74,
        "time": 128.5,
        "duration": 0.6,
        "velocity": 0.82,
        "hand": "right"
      },
      {
        "midi": 64,
        "time": 129.5,
        "duration": 0.6,
        "velocity": 0.82,
        "hand": "right"
      },
      {
        "midi": 65,
        "time": 130.5,
        "duration": 1,
        "velocity": 0.82,
        "hand": "right"
      },
      {
        "midi": 57,
        "time": 131.5,
        "duration": 0.6,
        "velocity": 0.82,
        "hand": "right"
      },
      {
        "midi": 72,
        "time": 132.5,
        "duration": 0.6,
        "velocity": 0.82,
        "hand": "right"
      },
      {
        "midi": 70,
        "time": 133.5,
        "duration": 0.6,
        "velocity": 0.82,
        "hand": "right"
      },
      {
        "midi": 70,
        "time": 134.5,
        "duration": 0.6,
        "velocity": 0.82,
        "hand": "right"
      },
      {
        "midi": 60,
        "time": 135.5,
        "duration": 0.6,
        "velocity": 0.82,
        "hand": "right"
      },
      {
        "midi": 72,
        "time": 136.5,
        "duration": 1,
        "velocity": 0.82,
        "hand": "right"
      },
      {
        "midi": 59,
        "time": 137.5,
        "duration": 0.6,
        "velocity": 0.82,
        "hand": "right"
      },
      {
        "midi": 74,
        "time": 138.5,
        "duration": 0.6,
        "velocity": 0.82,
        "hand": "right"
      },
      {
        "midi": 72,
        "time": 139.5,
        "duration": 0.6,
        "velocity": 0.82,
        "hand": "right"
      },
      {
        "midi": 67,
        "time": 140.5,
        "duration": 0.6,
        "velocity": 0.82,
        "hand": "right"
      },
      {
        "midi": 64,
        "time": 141.5,
        "duration": 0.6,
        "velocity": 0.82,
        "hand": "right"
      },
      {
        "midi": 70,
        "time": 142.5,
        "duration": 1,
        "velocity": 0.82,
        "hand": "right"
      },
      {
        "midi": 65,
        "time": 143.5,
        "duration": 0.6,
        "velocity": 0.82,
        "hand": "right"
      },
      {
        "midi": 69,
        "time": 144.5,
        "duration": 0.6,
        "velocity": 0.82,
        "hand": "right"
      },
      {
        "midi": 69,
        "time": 145.5,
        "duration": 0.6,
        "velocity": 0.82,
        "hand": "right"
      },
      {
        "midi": 72,
        "time": 146.5,
        "duration": 0.6,
        "velocity": 0.82,
        "hand": "right"
      },
      {
        "midi": 60,
        "time": 147.5,
        "duration": 0.6,
        "velocity": 0.82,
        "hand": "right"
      },
      {
        "midi": 70,
        "time": 148.5,
        "duration": 1,
        "velocity": 0.82,
        "hand": "right"
      },
      {
        "midi": 59,
        "time": 149.5,
        "duration": 0.6,
        "velocity": 0.82,
        "hand": "right"
      },
      {
        "midi": 65,
        "time": 150.5,
        "duration": 0.6,
        "velocity": 0.82,
        "hand": "right"
      },
      {
        "midi": 65,
        "time": 151.5,
        "duration": 0.6,
        "velocity": 0.82,
        "hand": "right"
      },
      {
        "midi": 69,
        "time": 152.5,
        "duration": 0.6,
        "velocity": 0.82,
        "hand": "right"
      },
      {
        "midi": 64,
        "time": 153.5,
        "duration": 0.6,
        "velocity": 0.82,
        "hand": "right"
      },
      {
        "midi": 65,
        "time": 154.5,
        "duration": 1,
        "velocity": 0.82,
        "hand": "right"
      },
      {
        "midi": 62,
        "time": 155.5,
        "duration": 0.6,
        "velocity": 0.86,
        "hand": "right"
      },
      {
        "midi": 69,
        "time": 156.5,
        "duration": 0.6,
        "velocity": 0.82,
        "hand": "right"
      },
      {
        "midi": 69,
        "time": 157.5,
        "duration": 0.6,
        "velocity": 0.82,
        "hand": "right"
      },
      {
        "midi": 72,
        "time": 158.5,
        "duration": 0.6,
        "velocity": 0.82,
        "hand": "right"
      },
      {
        "midi": 60,
        "time": 159.5,
        "duration": 0.6,
        "velocity": 0.82,
        "hand": "right"
      },
      {
        "midi": 70,
        "time": 160.5,
        "duration": 1,
        "velocity": 0.82,
        "hand": "right"
      },
      {
        "midi": 59,
        "time": 161.5,
        "duration": 0.6,
        "velocity": 0.82,
        "hand": "right"
      },
      {
        "midi": 67,
        "time": 162.5,
        "duration": 0.6,
        "velocity": 0.82,
        "hand": "right"
      },
      {
        "midi": 70,
        "time": 163.5,
        "duration": 0.6,
        "velocity": 0.82,
        "hand": "right"
      },
      {
        "midi": 67,
        "time": 164.5,
        "duration": 0.6,
        "velocity": 0.82,
        "hand": "right"
      },
      {
        "midi": 64,
        "time": 165.5,
        "duration": 0.6,
        "velocity": 0.82,
        "hand": "right"
      },
      {
        "midi": 70,
        "time": 166.5,
        "duration": 1,
        "velocity": 0.82,
        "hand": "right"
      },
      {
        "midi": 57,
        "time": 167.5,
        "duration": 0.6,
        "velocity": 0.82,
        "hand": "right"
      },
      {
        "midi": 70,
        "time": 168.5,
        "duration": 0.6,
        "velocity": 0.82,
        "hand": "right"
      },
      {
        "midi": 70,
        "time": 169.5,
        "duration": 0.6,
        "velocity": 0.82,
        "hand": "right"
      },
      {
        "midi": 70,
        "time": 170.5,
        "duration": 0.6,
        "velocity": 0.82,
        "hand": "right"
      },
      {
        "midi": 60,
        "time": 171.5,
        "duration": 0.6,
        "velocity": 0.82,
        "hand": "right"
      },
      {
        "midi": 72,
        "time": 172.5,
        "duration": 1,
        "velocity": 0.82,
        "hand": "right"
      },
      {
        "midi": 59,
        "time": 173.5,
        "duration": 0.6,
        "velocity": 0.82,
        "hand": "right"
      },
      {
        "midi": 65,
        "time": 174.5,
        "duration": 0.6,
        "velocity": 0.82,
        "hand": "right"
      },
      {
        "midi": 74,
        "time": 175.5,
        "duration": 0.6,
        "velocity": 0.82,
        "hand": "right"
      },
      {
        "midi": 74,
        "time": 176.5,
        "duration": 0.6,
        "velocity": 0.82,
        "hand": "right"
      },
      {
        "midi": 64,
        "time": 177.5,
        "duration": 0.6,
        "velocity": 0.82,
        "hand": "right"
      },
      {
        "midi": 65,
        "time": 178.5,
        "duration": 1,
        "velocity": 0.82,
        "hand": "right"
      },
      {
        "midi": 57,
        "time": 179.5,
        "duration": 0.6,
        "velocity": 0.82,
        "hand": "right"
      },
      {
        "midi": 72,
        "time": 180.5,
        "duration": 0.6,
        "velocity": 0.82,
        "hand": "right"
      },
      {
        "midi": 70,
        "time": 181.5,
        "duration": 0.6,
        "velocity": 0.82,
        "hand": "right"
      },
      {
        "midi": 70,
        "time": 182.5,
        "duration": 0.6,
        "velocity": 0.82,
        "hand": "right"
      },
      {
        "midi": 60,
        "time": 183.5,
        "duration": 0.6,
        "velocity": 0.82,
        "hand": "right"
      },
      {
        "midi": 72,
        "time": 184.5,
        "duration": 1,
        "velocity": 0.82,
        "hand": "right"
      },
      {
        "midi": 59,
        "time": 185.5,
        "duration": 0.6,
        "velocity": 0.82,
        "hand": "right"
      },
      {
        "midi": 74,
        "time": 186.5,
        "duration": 0.6,
        "velocity": 0.82,
        "hand": "right"
      },
      {
        "midi": 72,
        "time": 187.5,
        "duration": 0.6,
        "velocity": 0.82,
        "hand": "right"
      },
      {
        "midi": 67,
        "time": 188.5,
        "duration": 0.6,
        "velocity": 0.82,
        "hand": "right"
      },
      {
        "midi": 64,
        "time": 189.5,
        "duration": 0.6,
        "velocity": 0.82,
        "hand": "right"
      },
      {
        "midi": 70,
        "time": 190.5,
        "duration": 1,
        "velocity": 0.82,
        "hand": "right"
      },
      {
        "midi": 65,
        "time": 191.5,
        "duration": 0.6,
        "velocity": 0.82,
        "hand": "right"
      },
      {
        "midi": 69,
        "time": 192.5,
        "duration": 0.6,
        "velocity": 0.82,
        "hand": "right"
      },
      {
        "midi": 69,
        "time": 193.5,
        "duration": 0.6,
        "velocity": 0.82,
        "hand": "right"
      },
      {
        "midi": 72,
        "time": 194.5,
        "duration": 0.6,
        "velocity": 0.82,
        "hand": "right"
      },
      {
        "midi": 62,
        "time": 195.75,
        "duration": 0.6,
        "velocity": 0.82,
        "hand": "right"
      }
    ],
    "medium": [
      {
        "midi": 63,
        "time": 0,
        "duration": 0.35,
        "velocity": 0.82,
        "hand": "right"
      },
      {
        "midi": 69,
        "time": 0,
        "duration": 0.35,
        "velocity": 0.82,
        "hand": "right"
      },
      {
        "midi": 63,
        "time": 1,
        "duration": 0.35,
        "velocity": 0.82,
        "hand": "right"
      },
      {
        "midi": 69,
        "time": 1,
        "duration": 0.35,
        "velocity": 0.82,
        "hand": "right"
      },
      {
        "midi": 63,
        "time": 2,
        "duration": 0.35,
        "velocity": 0.82,
        "hand": "right"
      },
      {
        "midi": 70,
        "time": 2,
        "duration": 0.35,
        "velocity": 0.82,
        "hand": "right"
      },
      {
        "midi": 58,
        "time": 3,
        "duration": 2.75,
        "velocity": 0.86,
        "hand": "left"
      },
      {
        "midi": 70,
        "time": 3,
        "duration": 2.75,
        "velocity": 0.82,
        "hand": "right"
      },
      {
        "midi": 38,
        "time": 5.25,
        "duration": 0.35,
        "velocity": 0.82,
        "hand": "left"
      },
      {
        "midi": 58,
        "time": 6,
        "duration": 0.35,
        "velocity": 0.86,
        "hand": "left"
      },
      {
        "midi": 65,
        "time": 6,
        "duration": 0.35,
        "velocity": 0.82,
        "hand": "right"
      },
      {
        "midi": 58,
        "time": 7,
        "duration": 0.35,
        "velocity": 0.86,
        "hand": "left"
      },
      {
        "midi": 65,
        "time": 7,
        "duration": 0.35,
        "velocity": 0.82,
        "hand": "right"
      },
      {
        "midi": 53,
        "time": 8,
        "duration": 0.35,
        "velocity": 0.86,
        "hand": "left"
      },
      {
        "midi": 67,
        "time": 8,
        "duration": 0.35,
        "velocity": 0.82,
        "hand": "right"
      },
      {
        "midi": 58,
        "time": 9,
        "duration": 1,
        "velocity": 0.86,
        "hand": "left"
      },
      {
        "midi": 70,
        "time": 9,
        "duration": 1,
        "velocity": 0.82,
        "hand": "right"
      },
      {
        "midi": 45,
        "time": 10,
        "duration": 0.35,
        "velocity": 0.82,
        "hand": "left"
      },
      {
        "midi": 52,
        "time": 11,
        "duration": 0.35,
        "velocity": 0.82,
        "hand": "left"
      },
      {
        "midi": 60,
        "time": 11,
        "duration": 0.35,
        "velocity": 0.82,
        "hand": "right"
      },
      {
        "midi": 57,
        "time": 12,
        "duration": 0.35,
        "velocity": 0.82,
        "hand": "left"
      },
      {
        "midi": 69,
        "time": 12,
        "duration": 0.35,
        "velocity": 0.82,
        "hand": "right"
      },
      {
        "midi": 57,
        "time": 13,
        "duration": 0.35,
        "velocity": 0.82,
        "hand": "left"
      },
      {
        "midi": 69,
        "time": 13,
        "duration": 0.35,
        "velocity": 0.82,
        "hand": "right"
      },
      {
        "midi": 70,
        "time": 14,
        "duration": 0.35,
        "velocity": 0.82,
        "hand": "right"
      },
      {
        "midi": 58,
        "time": 15,
        "duration": 1.485,
        "velocity": 0.86,
        "hand": "left"
      },
      {
        "midi": 70,
        "time": 15,
        "duration": 1.485,
        "velocity": 0.88,
        "hand": "right"
      },
      {
        "midi": 52,
        "time": 16,
        "duration": 0.35,
        "velocity": 0.82,
        "hand": "left"
      },
      {
        "midi": 60,
        "time": 16,
        "duration": 0.35,
        "velocity": 0.82,
        "hand": "right"
      },
      {
        "midi": 48,
        "time": 17,
        "duration": 0.35,
        "velocity": 0.82,
        "hand": "left"
      },
      {
        "midi": 45,
        "time": 17.75,
        "duration": 0.35,
        "velocity": 0.82,
        "hand": "left"
      },
      {
        "midi": 52,
        "time": 18.5,
        "duration": 0.35,
        "velocity": 0.82,
        "hand": "left"
      },
      {
        "midi": 67,
        "time": 18.5,
        "duration": 0.35,
        "velocity": 0.82,
        "hand": "right"
      },
      {
        "midi": 57,
        "time": 19.5,
        "duration": 0.35,
        "velocity": 0.82,
        "hand": "left"
      },
      {
        "midi": 70,
        "time": 19.5,
        "duration": 0.35,
        "velocity": 0.82,
        "hand": "right"
      },
      {
        "midi": 67,
        "time": 20.5,
        "duration": 0.35,
        "velocity": 0.82,
        "hand": "right"
      },
      {
        "midi": 52,
        "time": 21.5,
        "duration": 0.35,
        "velocity": 0.82,
        "hand": "left"
      },
      {
        "midi": 57,
        "time": 22.5,
        "duration": 0.35,
        "velocity": 0.82,
        "hand": "left"
      },
      {
        "midi": 70,
        "time": 22.5,
        "duration": 1,
        "velocity": 0.82,
        "hand": "right"
      },
      {
        "midi": 38,
        "time": 23.5,
        "duration": 0.35,
        "velocity": 0.82,
        "hand": "left"
      },
      {
        "midi": 45,
        "time": 23.5,
        "duration": 0.35,
        "velocity": 0.82,
        "hand": "left"
      },
      {
        "midi": 70,
        "time": 24.5,
        "duration": 0.35,
        "velocity": 0.82,
        "hand": "right"
      },
      {
        "midi": 57,
        "time": 25.5,
        "duration": 0.35,
        "velocity": 0.82,
        "hand": "left"
      },
      {
        "midi": 70,
        "time": 25.5,
        "duration": 0.35,
        "velocity": 0.82,
        "hand": "right"
      },
      {
        "midi": 70,
        "time": 26.5,
        "duration": 0.35,
        "velocity": 0.82,
        "hand": "right"
      },
      {
        "midi": 52,
        "time": 27.5,
        "duration": 0.35,
        "velocity": 0.82,
        "hand": "left"
      },
      {
        "midi": 60,
        "time": 27.5,
        "duration": 0.35,
        "velocity": 0.82,
        "hand": "right"
      },
      {
        "midi": 72,
        "time": 28.5,
        "duration": 1,
        "velocity": 0.82,
        "hand": "right"
      },
      {
        "midi": 47,
        "time": 29.25,
        "duration": 0.35,
        "velocity": 0.82,
        "hand": "left"
      },
      {
        "midi": 58,
        "time": 30,
        "duration": 0.75,
        "velocity": 0.86,
        "hand": "left"
      },
      {
        "midi": 74,
        "time": 30,
        "duration": 1.485,
        "velocity": 0.88,
        "hand": "right"
      },
      {
        "midi": 58,
        "time": 31,
        "duration": 0.35,
        "velocity": 0.86,
        "hand": "left"
      },
      {
        "midi": 65,
        "time": 31,
        "duration": 0.35,
        "velocity": 0.82,
        "hand": "right"
      },
      {
        "midi": 58,
        "time": 32,
        "duration": 0.35,
        "velocity": 0.86,
        "hand": "left"
      },
      {
        "midi": 73,
        "time": 32,
        "duration": 0.35,
        "velocity": 0.82,
        "hand": "right"
      },
      {
        "midi": 58,
        "time": 33,
        "duration": 1,
        "velocity": 0.86,
        "hand": "left"
      },
      {
        "midi": 70,
        "time": 33,
        "duration": 1,
        "velocity": 0.82,
        "hand": "right"
      },
      {
        "midi": 45,
        "time": 34,
        "duration": 0.35,
        "velocity": 0.82,
        "hand": "left"
      },
      {
        "midi": 52,
        "time": 35,
        "duration": 0.35,
        "velocity": 0.82,
        "hand": "left"
      },
      {
        "midi": 60,
        "time": 35,
        "duration": 0.35,
        "velocity": 0.82,
        "hand": "right"
      },
      {
        "midi": 58,
        "time": 36,
        "duration": 0.35,
        "velocity": 0.86,
        "hand": "left"
      },
      {
        "midi": 74,
        "time": 36,
        "duration": 0.35,
        "velocity": 0.82,
        "hand": "right"
      },
      {
        "midi": 58,
        "time": 37,
        "duration": 0.35,
        "velocity": 0.86,
        "hand": "left"
      },
      {
        "midi": 70,
        "time": 37,
        "duration": 0.35,
        "velocity": 0.82,
        "hand": "right"
      },
      {
        "midi": 69,
        "time": 38,
        "duration": 0.35,
        "velocity": 0.82,
        "hand": "right"
      },
      {
        "midi": 57,
        "time": 39,
        "duration": 0.35,
        "velocity": 0.82,
        "hand": "left"
      },
      {
        "midi": 72,
        "time": 39,
        "duration": 1.485,
        "velocity": 0.88,
        "hand": "right"
      },
      {
        "midi": 52,
        "time": 40,
        "duration": 0.35,
        "velocity": 0.82,
        "hand": "left"
      },
      {
        "midi": 60,
        "time": 40,
        "duration": 0.35,
        "velocity": 0.82,
        "hand": "right"
      },
      {
        "midi": 48,
        "time": 41,
        "duration": 0.35,
        "velocity": 0.82,
        "hand": "left"
      },
      {
        "midi": 45,
        "time": 41.75,
        "duration": 0.35,
        "velocity": 0.82,
        "hand": "left"
      },
      {
        "midi": 58,
        "time": 42.5,
        "duration": 0.35,
        "velocity": 0.86,
        "hand": "left"
      },
      {
        "midi": 74,
        "time": 42.5,
        "duration": 0.35,
        "velocity": 0.82,
        "hand": "right"
      },
      {
        "midi": 57,
        "time": 43.5,
        "duration": 0.35,
        "velocity": 0.82,
        "hand": "left"
      },
      {
        "midi": 72,
        "time": 43.5,
        "duration": 0.35,
        "velocity": 0.82,
        "hand": "right"
      },
      {
        "midi": 67,
        "time": 44.5,
        "duration": 0.35,
        "velocity": 0.82,
        "hand": "right"
      },
      {
        "midi": 52,
        "time": 45.5,
        "duration": 0.35,
        "velocity": 0.82,
        "hand": "left"
      },
      {
        "midi": 58,
        "time": 46.5,
        "duration": 1,
        "velocity": 0.86,
        "hand": "left"
      },
      {
        "midi": 70,
        "time": 46.5,
        "duration": 1,
        "velocity": 0.82,
        "hand": "right"
      },
      {
        "midi": 50,
        "time": 47.5,
        "duration": 0.35,
        "velocity": 0.82,
        "hand": "left"
      },
      {
        "midi": 65,
        "time": 47.5,
        "duration": 0.35,
        "velocity": 0.82,
        "hand": "right"
      },
      {
        "midi": 53,
        "time": 48.5,
        "duration": 0.35,
        "velocity": 0.86,
        "hand": "left"
      },
      {
        "midi": 69,
        "time": 48.5,
        "duration": 0.35,
        "velocity": 0.82,
        "hand": "right"
      },
      {
        "midi": 57,
        "time": 49.5,
        "duration": 0.35,
        "velocity": 0.82,
        "hand": "left"
      },
      {
        "midi": 69,
        "time": 49.5,
        "duration": 0.35,
        "velocity": 0.82,
        "hand": "right"
      },
      {
        "midi": 72,
        "time": 50.5,
        "duration": 0.35,
        "velocity": 0.82,
        "hand": "right"
      },
      {
        "midi": 52,
        "time": 51.5,
        "duration": 0.35,
        "velocity": 0.82,
        "hand": "left"
      },
      {
        "midi": 60,
        "time": 51.5,
        "duration": 0.35,
        "velocity": 0.82,
        "hand": "right"
      },
      {
        "midi": 58,
        "time": 52.5,
        "duration": 1,
        "velocity": 0.86,
        "hand": "left"
      },
      {
        "midi": 70,
        "time": 52.5,
        "duration": 1,
        "velocity": 0.82,
        "hand": "right"
      },
      {
        "midi": 47,
        "time": 53.25,
        "duration": 0.35,
        "velocity": 0.82,
        "hand": "left"
      },
      {
        "midi": 58,
        "time": 54,
        "duration": 0.35,
        "velocity": 0.86,
        "hand": "left"
      },
      {
        "midi": 65,
        "time": 54,
        "duration": 0.35,
        "velocity": 0.82,
        "hand": "right"
      },
      {
        "midi": 58,
        "time": 55,
        "duration": 0.35,
        "velocity": 0.86,
        "hand": "left"
      },
      {
        "midi": 65,
        "time": 55,
        "duration": 0.35,
        "velocity": 0.82,
        "hand": "right"
      },
      {
        "midi": 53,
        "time": 56,
        "duration": 0.35,
        "velocity": 0.86,
        "hand": "left"
      },
      {
        "midi": 67,
        "time": 56,
        "duration": 0.35,
        "velocity": 0.82,
        "hand": "right"
      },
      {
        "midi": 58,
        "time": 57,
        "duration": 1,
        "velocity": 0.86,
        "hand": "left"
      },
      {
        "midi": 70,
        "time": 57,
        "duration": 1,
        "velocity": 0.82,
        "hand": "right"
      },
      {
        "midi": 45,
        "time": 58,
        "duration": 0.35,
        "velocity": 0.82,
        "hand": "left"
      },
      {
        "midi": 52,
        "time": 59,
        "duration": 0.35,
        "velocity": 0.82,
        "hand": "left"
      },
      {
        "midi": 60,
        "time": 59,
        "duration": 0.35,
        "velocity": 0.82,
        "hand": "right"
      },
      {
        "midi": 57,
        "time": 60,
        "duration": 0.35,
        "velocity": 0.82,
        "hand": "left"
      },
      {
        "midi": 69,
        "time": 60,
        "duration": 0.35,
        "velocity": 0.82,
        "hand": "right"
      },
      {
        "midi": 57,
        "time": 61,
        "duration": 0.35,
        "velocity": 0.82,
        "hand": "left"
      },
      {
        "midi": 69,
        "time": 61,
        "duration": 0.35,
        "velocity": 0.82,
        "hand": "right"
      },
      {
        "midi": 70,
        "time": 62,
        "duration": 0.35,
        "velocity": 0.82,
        "hand": "right"
      },
      {
        "midi": 58,
        "time": 63,
        "duration": 1.485,
        "velocity": 0.86,
        "hand": "left"
      },
      {
        "midi": 70,
        "time": 63,
        "duration": 1.485,
        "velocity": 0.88,
        "hand": "right"
      },
      {
        "midi": 52,
        "time": 64,
        "duration": 0.35,
        "velocity": 0.82,
        "hand": "left"
      },
      {
        "midi": 60,
        "time": 64,
        "duration": 0.35,
        "velocity": 0.82,
        "hand": "right"
      },
      {
        "midi": 48,
        "time": 65,
        "duration": 0.35,
        "velocity": 0.82,
        "hand": "left"
      },
      {
        "midi": 45,
        "time": 65.75,
        "duration": 0.35,
        "velocity": 0.82,
        "hand": "left"
      },
      {
        "midi": 52,
        "time": 66.5,
        "duration": 0.35,
        "velocity": 0.82,
        "hand": "left"
      },
      {
        "midi": 67,
        "time": 66.5,
        "duration": 0.35,
        "velocity": 0.82,
        "hand": "right"
      },
      {
        "midi": 57,
        "time": 67.5,
        "duration": 0.35,
        "velocity": 0.82,
        "hand": "left"
      },
      {
        "midi": 70,
        "time": 67.5,
        "duration": 0.35,
        "velocity": 0.82,
        "hand": "right"
      },
      {
        "midi": 67,
        "time": 68.5,
        "duration": 0.35,
        "velocity": 0.82,
        "hand": "right"
      },
      {
        "midi": 52,
        "time": 69.5,
        "duration": 0.35,
        "velocity": 0.82,
        "hand": "left"
      },
      {
        "midi": 57,
        "time": 70.5,
        "duration": 0.35,
        "velocity": 0.82,
        "hand": "left"
      },
      {
        "midi": 70,
        "time": 70.5,
        "duration": 1,
        "velocity": 0.82,
        "hand": "right"
      },
      {
        "midi": 38,
        "time": 71.5,
        "duration": 0.35,
        "velocity": 0.82,
        "hand": "left"
      },
      {
        "midi": 45,
        "time": 71.5,
        "duration": 0.35,
        "velocity": 0.82,
        "hand": "left"
      },
      {
        "midi": 70,
        "time": 72.5,
        "duration": 0.35,
        "velocity": 0.82,
        "hand": "right"
      },
      {
        "midi": 57,
        "time": 73.5,
        "duration": 0.35,
        "velocity": 0.82,
        "hand": "left"
      },
      {
        "midi": 70,
        "time": 73.5,
        "duration": 0.35,
        "velocity": 0.82,
        "hand": "right"
      },
      {
        "midi": 70,
        "time": 74.5,
        "duration": 0.35,
        "velocity": 0.82,
        "hand": "right"
      },
      {
        "midi": 52,
        "time": 75.5,
        "duration": 0.35,
        "velocity": 0.82,
        "hand": "left"
      },
      {
        "midi": 60,
        "time": 75.5,
        "duration": 0.35,
        "velocity": 0.82,
        "hand": "right"
      },
      {
        "midi": 72,
        "time": 76.5,
        "duration": 1,
        "velocity": 0.82,
        "hand": "right"
      },
      {
        "midi": 47,
        "time": 77.25,
        "duration": 0.35,
        "velocity": 0.82,
        "hand": "left"
      },
      {
        "midi": 58,
        "time": 78,
        "duration": 0.75,
        "velocity": 0.86,
        "hand": "left"
      },
      {
        "midi": 74,
        "time": 78,
        "duration": 1.485,
        "velocity": 0.88,
        "hand": "right"
      },
      {
        "midi": 58,
        "time": 79,
        "duration": 0.35,
        "velocity": 0.86,
        "hand": "left"
      },
      {
        "midi": 65,
        "time": 79,
        "duration": 0.35,
        "velocity": 0.82,
        "hand": "right"
      },
      {
        "midi": 58,
        "time": 80,
        "duration": 0.35,
        "velocity": 0.86,
        "hand": "left"
      },
      {
        "midi": 73,
        "time": 80,
        "duration": 0.35,
        "velocity": 0.82,
        "hand": "right"
      },
      {
        "midi": 58,
        "time": 81,
        "duration": 1,
        "velocity": 0.86,
        "hand": "left"
      },
      {
        "midi": 70,
        "time": 81,
        "duration": 1,
        "velocity": 0.82,
        "hand": "right"
      },
      {
        "midi": 45,
        "time": 82,
        "duration": 0.35,
        "velocity": 0.82,
        "hand": "left"
      },
      {
        "midi": 52,
        "time": 83,
        "duration": 0.35,
        "velocity": 0.82,
        "hand": "left"
      },
      {
        "midi": 60,
        "time": 83,
        "duration": 0.35,
        "velocity": 0.82,
        "hand": "right"
      },
      {
        "midi": 58,
        "time": 84,
        "duration": 0.35,
        "velocity": 0.86,
        "hand": "left"
      },
      {
        "midi": 74,
        "time": 84,
        "duration": 0.35,
        "velocity": 0.82,
        "hand": "right"
      },
      {
        "midi": 58,
        "time": 85,
        "duration": 0.35,
        "velocity": 0.86,
        "hand": "left"
      },
      {
        "midi": 70,
        "time": 85,
        "duration": 0.35,
        "velocity": 0.82,
        "hand": "right"
      },
      {
        "midi": 69,
        "time": 86,
        "duration": 0.35,
        "velocity": 0.82,
        "hand": "right"
      },
      {
        "midi": 57,
        "time": 87,
        "duration": 0.35,
        "velocity": 0.82,
        "hand": "left"
      },
      {
        "midi": 72,
        "time": 87,
        "duration": 1.485,
        "velocity": 0.88,
        "hand": "right"
      },
      {
        "midi": 52,
        "time": 88,
        "duration": 0.35,
        "velocity": 0.82,
        "hand": "left"
      },
      {
        "midi": 60,
        "time": 88,
        "duration": 0.35,
        "velocity": 0.82,
        "hand": "right"
      },
      {
        "midi": 48,
        "time": 89,
        "duration": 0.35,
        "velocity": 0.82,
        "hand": "left"
      },
      {
        "midi": 45,
        "time": 89.75,
        "duration": 0.35,
        "velocity": 0.82,
        "hand": "left"
      },
      {
        "midi": 58,
        "time": 90.5,
        "duration": 0.35,
        "velocity": 0.86,
        "hand": "left"
      },
      {
        "midi": 74,
        "time": 90.5,
        "duration": 0.35,
        "velocity": 0.82,
        "hand": "right"
      },
      {
        "midi": 57,
        "time": 91.5,
        "duration": 0.35,
        "velocity": 0.82,
        "hand": "left"
      },
      {
        "midi": 72,
        "time": 91.5,
        "duration": 0.35,
        "velocity": 0.82,
        "hand": "right"
      },
      {
        "midi": 67,
        "time": 92.5,
        "duration": 0.35,
        "velocity": 0.82,
        "hand": "right"
      },
      {
        "midi": 52,
        "time": 93.5,
        "duration": 0.35,
        "velocity": 0.82,
        "hand": "left"
      },
      {
        "midi": 58,
        "time": 94.5,
        "duration": 1,
        "velocity": 0.86,
        "hand": "left"
      },
      {
        "midi": 70,
        "time": 94.5,
        "duration": 1,
        "velocity": 0.82,
        "hand": "right"
      },
      {
        "midi": 50,
        "time": 95.5,
        "duration": 0.35,
        "velocity": 0.82,
        "hand": "left"
      },
      {
        "midi": 65,
        "time": 95.5,
        "duration": 0.35,
        "velocity": 0.82,
        "hand": "right"
      },
      {
        "midi": 53,
        "time": 96.5,
        "duration": 0.35,
        "velocity": 0.86,
        "hand": "left"
      },
      {
        "midi": 69,
        "time": 96.5,
        "duration": 0.35,
        "velocity": 0.82,
        "hand": "right"
      },
      {
        "midi": 57,
        "time": 97.5,
        "duration": 0.35,
        "velocity": 0.82,
        "hand": "left"
      },
      {
        "midi": 69,
        "time": 97.5,
        "duration": 0.35,
        "velocity": 0.82,
        "hand": "right"
      },
      {
        "midi": 72,
        "time": 98.5,
        "duration": 0.35,
        "velocity": 0.82,
        "hand": "right"
      },
      {
        "midi": 52,
        "time": 99.5,
        "duration": 0.35,
        "velocity": 0.82,
        "hand": "left"
      },
      {
        "midi": 60,
        "time": 99.5,
        "duration": 0.35,
        "velocity": 0.82,
        "hand": "right"
      },
      {
        "midi": 58,
        "time": 100.5,
        "duration": 1,
        "velocity": 0.86,
        "hand": "left"
      },
      {
        "midi": 70,
        "time": 100.5,
        "duration": 1,
        "velocity": 0.82,
        "hand": "right"
      },
      {
        "midi": 47,
        "time": 101.25,
        "duration": 0.35,
        "velocity": 0.82,
        "hand": "left"
      },
      {
        "midi": 58,
        "time": 102,
        "duration": 0.35,
        "velocity": 0.86,
        "hand": "left"
      },
      {
        "midi": 65,
        "time": 102,
        "duration": 0.35,
        "velocity": 0.82,
        "hand": "right"
      },
      {
        "midi": 58,
        "time": 103,
        "duration": 0.35,
        "velocity": 0.86,
        "hand": "left"
      },
      {
        "midi": 65,
        "time": 103,
        "duration": 0.35,
        "velocity": 0.82,
        "hand": "right"
      },
      {
        "midi": 53,
        "time": 104,
        "duration": 0.35,
        "velocity": 0.86,
        "hand": "left"
      },
      {
        "midi": 67,
        "time": 104,
        "duration": 0.35,
        "velocity": 0.82,
        "hand": "right"
      },
      {
        "midi": 58,
        "time": 105,
        "duration": 1,
        "velocity": 0.86,
        "hand": "left"
      },
      {
        "midi": 70,
        "time": 105,
        "duration": 1,
        "velocity": 0.82,
        "hand": "right"
      },
      {
        "midi": 45,
        "time": 106,
        "duration": 0.35,
        "velocity": 0.82,
        "hand": "left"
      },
      {
        "midi": 52,
        "time": 107,
        "duration": 0.35,
        "velocity": 0.82,
        "hand": "left"
      },
      {
        "midi": 60,
        "time": 107,
        "duration": 0.35,
        "velocity": 0.82,
        "hand": "right"
      },
      {
        "midi": 57,
        "time": 108,
        "duration": 0.35,
        "velocity": 0.82,
        "hand": "left"
      },
      {
        "midi": 69,
        "time": 108,
        "duration": 0.35,
        "velocity": 0.82,
        "hand": "right"
      },
      {
        "midi": 57,
        "time": 109,
        "duration": 0.35,
        "velocity": 0.82,
        "hand": "left"
      },
      {
        "midi": 69,
        "time": 109,
        "duration": 0.35,
        "velocity": 0.82,
        "hand": "right"
      },
      {
        "midi": 70,
        "time": 110,
        "duration": 0.35,
        "velocity": 0.82,
        "hand": "right"
      },
      {
        "midi": 58,
        "time": 111,
        "duration": 1.485,
        "velocity": 0.86,
        "hand": "left"
      },
      {
        "midi": 70,
        "time": 111,
        "duration": 1.485,
        "velocity": 0.88,
        "hand": "right"
      },
      {
        "midi": 52,
        "time": 112,
        "duration": 0.35,
        "velocity": 0.82,
        "hand": "left"
      },
      {
        "midi": 60,
        "time": 112,
        "duration": 0.35,
        "velocity": 0.82,
        "hand": "right"
      },
      {
        "midi": 48,
        "time": 113,
        "duration": 0.35,
        "velocity": 0.82,
        "hand": "left"
      },
      {
        "midi": 45,
        "time": 113.75,
        "duration": 0.35,
        "velocity": 0.82,
        "hand": "left"
      },
      {
        "midi": 52,
        "time": 114.5,
        "duration": 0.35,
        "velocity": 0.82,
        "hand": "left"
      },
      {
        "midi": 67,
        "time": 114.5,
        "duration": 0.35,
        "velocity": 0.82,
        "hand": "right"
      },
      {
        "midi": 57,
        "time": 115.5,
        "duration": 0.35,
        "velocity": 0.82,
        "hand": "left"
      },
      {
        "midi": 70,
        "time": 115.5,
        "duration": 0.35,
        "velocity": 0.82,
        "hand": "right"
      },
      {
        "midi": 67,
        "time": 116.5,
        "duration": 0.35,
        "velocity": 0.82,
        "hand": "right"
      },
      {
        "midi": 52,
        "time": 117.5,
        "duration": 0.35,
        "velocity": 0.82,
        "hand": "left"
      },
      {
        "midi": 57,
        "time": 118.5,
        "duration": 0.35,
        "velocity": 0.82,
        "hand": "left"
      },
      {
        "midi": 70,
        "time": 118.5,
        "duration": 1,
        "velocity": 0.82,
        "hand": "right"
      },
      {
        "midi": 38,
        "time": 119.5,
        "duration": 0.35,
        "velocity": 0.82,
        "hand": "left"
      },
      {
        "midi": 45,
        "time": 119.5,
        "duration": 0.35,
        "velocity": 0.82,
        "hand": "left"
      },
      {
        "midi": 70,
        "time": 120.5,
        "duration": 0.35,
        "velocity": 0.82,
        "hand": "right"
      },
      {
        "midi": 57,
        "time": 121.5,
        "duration": 0.35,
        "velocity": 0.82,
        "hand": "left"
      },
      {
        "midi": 70,
        "time": 121.5,
        "duration": 0.35,
        "velocity": 0.82,
        "hand": "right"
      },
      {
        "midi": 70,
        "time": 122.5,
        "duration": 0.35,
        "velocity": 0.82,
        "hand": "right"
      },
      {
        "midi": 52,
        "time": 123.5,
        "duration": 0.35,
        "velocity": 0.82,
        "hand": "left"
      },
      {
        "midi": 60,
        "time": 123.5,
        "duration": 0.35,
        "velocity": 0.82,
        "hand": "right"
      },
      {
        "midi": 72,
        "time": 124.5,
        "duration": 1,
        "velocity": 0.82,
        "hand": "right"
      },
      {
        "midi": 47,
        "time": 125.25,
        "duration": 0.35,
        "velocity": 0.82,
        "hand": "left"
      },
      {
        "midi": 58,
        "time": 126,
        "duration": 0.75,
        "velocity": 0.86,
        "hand": "left"
      },
      {
        "midi": 74,
        "time": 126,
        "duration": 1.485,
        "velocity": 0.88,
        "hand": "right"
      },
      {
        "midi": 58,
        "time": 127,
        "duration": 0.35,
        "velocity": 0.86,
        "hand": "left"
      },
      {
        "midi": 65,
        "time": 127,
        "duration": 0.35,
        "velocity": 0.82,
        "hand": "right"
      },
      {
        "midi": 58,
        "time": 128,
        "duration": 0.35,
        "velocity": 0.86,
        "hand": "left"
      },
      {
        "midi": 73,
        "time": 128,
        "duration": 0.35,
        "velocity": 0.82,
        "hand": "right"
      },
      {
        "midi": 58,
        "time": 129,
        "duration": 1,
        "velocity": 0.86,
        "hand": "left"
      },
      {
        "midi": 70,
        "time": 129,
        "duration": 1,
        "velocity": 0.82,
        "hand": "right"
      },
      {
        "midi": 45,
        "time": 130,
        "duration": 0.35,
        "velocity": 0.82,
        "hand": "left"
      },
      {
        "midi": 52,
        "time": 131,
        "duration": 0.35,
        "velocity": 0.82,
        "hand": "left"
      },
      {
        "midi": 60,
        "time": 131,
        "duration": 0.35,
        "velocity": 0.82,
        "hand": "right"
      },
      {
        "midi": 58,
        "time": 132,
        "duration": 0.35,
        "velocity": 0.86,
        "hand": "left"
      },
      {
        "midi": 74,
        "time": 132,
        "duration": 0.35,
        "velocity": 0.82,
        "hand": "right"
      },
      {
        "midi": 58,
        "time": 133,
        "duration": 0.35,
        "velocity": 0.86,
        "hand": "left"
      },
      {
        "midi": 70,
        "time": 133,
        "duration": 0.35,
        "velocity": 0.82,
        "hand": "right"
      },
      {
        "midi": 69,
        "time": 134,
        "duration": 0.35,
        "velocity": 0.82,
        "hand": "right"
      },
      {
        "midi": 57,
        "time": 135,
        "duration": 0.35,
        "velocity": 0.82,
        "hand": "left"
      },
      {
        "midi": 72,
        "time": 135,
        "duration": 1.485,
        "velocity": 0.88,
        "hand": "right"
      },
      {
        "midi": 52,
        "time": 136,
        "duration": 0.35,
        "velocity": 0.82,
        "hand": "left"
      },
      {
        "midi": 60,
        "time": 136,
        "duration": 0.35,
        "velocity": 0.82,
        "hand": "right"
      },
      {
        "midi": 48,
        "time": 137,
        "duration": 0.35,
        "velocity": 0.82,
        "hand": "left"
      },
      {
        "midi": 45,
        "time": 137.75,
        "duration": 0.35,
        "velocity": 0.82,
        "hand": "left"
      },
      {
        "midi": 58,
        "time": 138.5,
        "duration": 0.35,
        "velocity": 0.86,
        "hand": "left"
      },
      {
        "midi": 74,
        "time": 138.5,
        "duration": 0.35,
        "velocity": 0.82,
        "hand": "right"
      },
      {
        "midi": 57,
        "time": 139.5,
        "duration": 0.35,
        "velocity": 0.82,
        "hand": "left"
      },
      {
        "midi": 72,
        "time": 139.5,
        "duration": 0.35,
        "velocity": 0.82,
        "hand": "right"
      },
      {
        "midi": 67,
        "time": 140.5,
        "duration": 0.35,
        "velocity": 0.82,
        "hand": "right"
      },
      {
        "midi": 52,
        "time": 141.5,
        "duration": 0.35,
        "velocity": 0.82,
        "hand": "left"
      },
      {
        "midi": 58,
        "time": 142.5,
        "duration": 1,
        "velocity": 0.86,
        "hand": "left"
      },
      {
        "midi": 70,
        "time": 142.5,
        "duration": 1,
        "velocity": 0.82,
        "hand": "right"
      },
      {
        "midi": 50,
        "time": 143.5,
        "duration": 0.35,
        "velocity": 0.82,
        "hand": "left"
      },
      {
        "midi": 65,
        "time": 143.5,
        "duration": 0.35,
        "velocity": 0.82,
        "hand": "right"
      },
      {
        "midi": 53,
        "time": 144.5,
        "duration": 0.35,
        "velocity": 0.86,
        "hand": "left"
      },
      {
        "midi": 69,
        "time": 144.5,
        "duration": 0.35,
        "velocity": 0.82,
        "hand": "right"
      },
      {
        "midi": 57,
        "time": 145.5,
        "duration": 0.35,
        "velocity": 0.82,
        "hand": "left"
      },
      {
        "midi": 69,
        "time": 145.5,
        "duration": 0.35,
        "velocity": 0.82,
        "hand": "right"
      },
      {
        "midi": 72,
        "time": 146.5,
        "duration": 0.35,
        "velocity": 0.82,
        "hand": "right"
      },
      {
        "midi": 52,
        "time": 147.5,
        "duration": 0.35,
        "velocity": 0.82,
        "hand": "left"
      },
      {
        "midi": 60,
        "time": 147.5,
        "duration": 0.35,
        "velocity": 0.82,
        "hand": "right"
      },
      {
        "midi": 58,
        "time": 148.5,
        "duration": 1,
        "velocity": 0.86,
        "hand": "left"
      },
      {
        "midi": 70,
        "time": 148.5,
        "duration": 1,
        "velocity": 0.82,
        "hand": "right"
      },
      {
        "midi": 47,
        "time": 149.25,
        "duration": 0.35,
        "velocity": 0.82,
        "hand": "left"
      },
      {
        "midi": 58,
        "time": 150,
        "duration": 0.35,
        "velocity": 0.86,
        "hand": "left"
      },
      {
        "midi": 65,
        "time": 150,
        "duration": 0.35,
        "velocity": 0.82,
        "hand": "right"
      },
      {
        "midi": 58,
        "time": 151,
        "duration": 0.35,
        "velocity": 0.86,
        "hand": "left"
      },
      {
        "midi": 65,
        "time": 151,
        "duration": 0.35,
        "velocity": 0.82,
        "hand": "right"
      },
      {
        "midi": 53,
        "time": 152,
        "duration": 0.35,
        "velocity": 0.86,
        "hand": "left"
      },
      {
        "midi": 67,
        "time": 152,
        "duration": 0.35,
        "velocity": 0.82,
        "hand": "right"
      },
      {
        "midi": 58,
        "time": 153,
        "duration": 1,
        "velocity": 0.86,
        "hand": "left"
      },
      {
        "midi": 70,
        "time": 153,
        "duration": 1,
        "velocity": 0.82,
        "hand": "right"
      },
      {
        "midi": 45,
        "time": 154,
        "duration": 0.35,
        "velocity": 0.82,
        "hand": "left"
      },
      {
        "midi": 52,
        "time": 155,
        "duration": 0.35,
        "velocity": 0.82,
        "hand": "left"
      },
      {
        "midi": 60,
        "time": 155,
        "duration": 0.35,
        "velocity": 0.82,
        "hand": "right"
      },
      {
        "midi": 57,
        "time": 156,
        "duration": 0.35,
        "velocity": 0.82,
        "hand": "left"
      },
      {
        "midi": 69,
        "time": 156,
        "duration": 0.35,
        "velocity": 0.82,
        "hand": "right"
      },
      {
        "midi": 57,
        "time": 157,
        "duration": 0.35,
        "velocity": 0.82,
        "hand": "left"
      },
      {
        "midi": 69,
        "time": 157,
        "duration": 0.35,
        "velocity": 0.82,
        "hand": "right"
      },
      {
        "midi": 70,
        "time": 158,
        "duration": 0.35,
        "velocity": 0.82,
        "hand": "right"
      },
      {
        "midi": 58,
        "time": 159,
        "duration": 1.485,
        "velocity": 0.86,
        "hand": "left"
      },
      {
        "midi": 70,
        "time": 159,
        "duration": 1.485,
        "velocity": 0.88,
        "hand": "right"
      },
      {
        "midi": 52,
        "time": 160,
        "duration": 0.35,
        "velocity": 0.82,
        "hand": "left"
      },
      {
        "midi": 60,
        "time": 160,
        "duration": 0.35,
        "velocity": 0.82,
        "hand": "right"
      },
      {
        "midi": 48,
        "time": 161,
        "duration": 0.35,
        "velocity": 0.82,
        "hand": "left"
      },
      {
        "midi": 45,
        "time": 161.75,
        "duration": 0.35,
        "velocity": 0.82,
        "hand": "left"
      },
      {
        "midi": 52,
        "time": 162.5,
        "duration": 0.35,
        "velocity": 0.82,
        "hand": "left"
      },
      {
        "midi": 67,
        "time": 162.5,
        "duration": 0.35,
        "velocity": 0.82,
        "hand": "right"
      },
      {
        "midi": 57,
        "time": 163.5,
        "duration": 0.35,
        "velocity": 0.82,
        "hand": "left"
      },
      {
        "midi": 70,
        "time": 163.5,
        "duration": 0.35,
        "velocity": 0.82,
        "hand": "right"
      },
      {
        "midi": 67,
        "time": 164.5,
        "duration": 0.35,
        "velocity": 0.82,
        "hand": "right"
      },
      {
        "midi": 52,
        "time": 165.5,
        "duration": 0.35,
        "velocity": 0.82,
        "hand": "left"
      },
      {
        "midi": 57,
        "time": 166.5,
        "duration": 0.35,
        "velocity": 0.82,
        "hand": "left"
      },
      {
        "midi": 70,
        "time": 166.5,
        "duration": 1,
        "velocity": 0.82,
        "hand": "right"
      },
      {
        "midi": 38,
        "time": 167.5,
        "duration": 0.35,
        "velocity": 0.82,
        "hand": "left"
      },
      {
        "midi": 45,
        "time": 167.5,
        "duration": 0.35,
        "velocity": 0.82,
        "hand": "left"
      },
      {
        "midi": 70,
        "time": 168.5,
        "duration": 0.35,
        "velocity": 0.82,
        "hand": "right"
      },
      {
        "midi": 57,
        "time": 169.5,
        "duration": 0.35,
        "velocity": 0.82,
        "hand": "left"
      },
      {
        "midi": 70,
        "time": 169.5,
        "duration": 0.35,
        "velocity": 0.82,
        "hand": "right"
      },
      {
        "midi": 70,
        "time": 170.5,
        "duration": 0.35,
        "velocity": 0.82,
        "hand": "right"
      },
      {
        "midi": 52,
        "time": 171.5,
        "duration": 0.35,
        "velocity": 0.82,
        "hand": "left"
      },
      {
        "midi": 60,
        "time": 171.5,
        "duration": 0.35,
        "velocity": 0.82,
        "hand": "right"
      },
      {
        "midi": 72,
        "time": 172.5,
        "duration": 1,
        "velocity": 0.82,
        "hand": "right"
      },
      {
        "midi": 47,
        "time": 173.25,
        "duration": 0.35,
        "velocity": 0.82,
        "hand": "left"
      },
      {
        "midi": 58,
        "time": 174,
        "duration": 0.75,
        "velocity": 0.86,
        "hand": "left"
      },
      {
        "midi": 74,
        "time": 174,
        "duration": 1.485,
        "velocity": 0.88,
        "hand": "right"
      },
      {
        "midi": 58,
        "time": 175,
        "duration": 0.35,
        "velocity": 0.86,
        "hand": "left"
      },
      {
        "midi": 65,
        "time": 175,
        "duration": 0.35,
        "velocity": 0.82,
        "hand": "right"
      },
      {
        "midi": 58,
        "time": 176,
        "duration": 0.35,
        "velocity": 0.86,
        "hand": "left"
      },
      {
        "midi": 73,
        "time": 176,
        "duration": 0.35,
        "velocity": 0.82,
        "hand": "right"
      },
      {
        "midi": 58,
        "time": 177,
        "duration": 1,
        "velocity": 0.86,
        "hand": "left"
      },
      {
        "midi": 70,
        "time": 177,
        "duration": 1,
        "velocity": 0.82,
        "hand": "right"
      },
      {
        "midi": 45,
        "time": 178,
        "duration": 0.35,
        "velocity": 0.82,
        "hand": "left"
      },
      {
        "midi": 52,
        "time": 179,
        "duration": 0.35,
        "velocity": 0.82,
        "hand": "left"
      },
      {
        "midi": 60,
        "time": 179,
        "duration": 0.35,
        "velocity": 0.82,
        "hand": "right"
      },
      {
        "midi": 58,
        "time": 180,
        "duration": 0.35,
        "velocity": 0.86,
        "hand": "left"
      },
      {
        "midi": 74,
        "time": 180,
        "duration": 0.35,
        "velocity": 0.82,
        "hand": "right"
      },
      {
        "midi": 58,
        "time": 181,
        "duration": 0.35,
        "velocity": 0.86,
        "hand": "left"
      },
      {
        "midi": 70,
        "time": 181,
        "duration": 0.35,
        "velocity": 0.82,
        "hand": "right"
      },
      {
        "midi": 69,
        "time": 182,
        "duration": 0.35,
        "velocity": 0.82,
        "hand": "right"
      },
      {
        "midi": 57,
        "time": 183,
        "duration": 0.35,
        "velocity": 0.82,
        "hand": "left"
      },
      {
        "midi": 72,
        "time": 183,
        "duration": 1.485,
        "velocity": 0.88,
        "hand": "right"
      },
      {
        "midi": 52,
        "time": 184,
        "duration": 0.35,
        "velocity": 0.82,
        "hand": "left"
      },
      {
        "midi": 60,
        "time": 184,
        "duration": 0.35,
        "velocity": 0.82,
        "hand": "right"
      },
      {
        "midi": 48,
        "time": 185,
        "duration": 0.35,
        "velocity": 0.82,
        "hand": "left"
      },
      {
        "midi": 45,
        "time": 185.75,
        "duration": 0.35,
        "velocity": 0.82,
        "hand": "left"
      },
      {
        "midi": 58,
        "time": 186.5,
        "duration": 0.35,
        "velocity": 0.86,
        "hand": "left"
      },
      {
        "midi": 74,
        "time": 186.5,
        "duration": 0.35,
        "velocity": 0.82,
        "hand": "right"
      },
      {
        "midi": 57,
        "time": 187.5,
        "duration": 0.35,
        "velocity": 0.82,
        "hand": "left"
      },
      {
        "midi": 72,
        "time": 187.5,
        "duration": 0.35,
        "velocity": 0.82,
        "hand": "right"
      },
      {
        "midi": 67,
        "time": 188.5,
        "duration": 0.35,
        "velocity": 0.82,
        "hand": "right"
      },
      {
        "midi": 52,
        "time": 189.5,
        "duration": 0.35,
        "velocity": 0.82,
        "hand": "left"
      },
      {
        "midi": 58,
        "time": 190.5,
        "duration": 1,
        "velocity": 0.86,
        "hand": "left"
      },
      {
        "midi": 70,
        "time": 190.5,
        "duration": 1,
        "velocity": 0.82,
        "hand": "right"
      },
      {
        "midi": 50,
        "time": 191.5,
        "duration": 0.35,
        "velocity": 0.82,
        "hand": "left"
      },
      {
        "midi": 65,
        "time": 191.5,
        "duration": 0.35,
        "velocity": 0.82,
        "hand": "right"
      },
      {
        "midi": 53,
        "time": 192.5,
        "duration": 0.35,
        "velocity": 0.86,
        "hand": "left"
      },
      {
        "midi": 69,
        "time": 192.5,
        "duration": 0.35,
        "velocity": 0.82,
        "hand": "right"
      },
      {
        "midi": 57,
        "time": 193.5,
        "duration": 0.35,
        "velocity": 0.82,
        "hand": "left"
      },
      {
        "midi": 69,
        "time": 193.5,
        "duration": 0.35,
        "velocity": 0.82,
        "hand": "right"
      },
      {
        "midi": 72,
        "time": 194.5,
        "duration": 0.35,
        "velocity": 0.82,
        "hand": "right"
      },
      {
        "midi": 38,
        "time": 195.75,
        "duration": 0.35,
        "velocity": 0.82,
        "hand": "left"
      },
      {
        "midi": 58,
        "time": 196.5,
        "duration": 1,
        "velocity": 0.86,
        "hand": "left"
      },
      {
        "midi": 70,
        "time": 196.5,
        "duration": 1,
        "velocity": 0.82,
        "hand": "right"
      }
    ],
    "hard": [
      {
        "midi": 63,
        "time": 0,
        "duration": 0.25,
        "velocity": 0.82,
        "hand": "right"
      },
      {
        "midi": 69,
        "time": 0,
        "duration": 0.25,
        "velocity": 0.82,
        "hand": "right"
      },
      {
        "midi": 63,
        "time": 0.5,
        "duration": 0.25,
        "velocity": 0.82,
        "hand": "right"
      },
      {
        "midi": 69,
        "time": 0.5,
        "duration": 0.25,
        "velocity": 0.82,
        "hand": "right"
      },
      {
        "midi": 63,
        "time": 1,
        "duration": 0.25,
        "velocity": 0.82,
        "hand": "right"
      },
      {
        "midi": 69,
        "time": 1,
        "duration": 0.25,
        "velocity": 0.82,
        "hand": "right"
      },
      {
        "midi": 63,
        "time": 1.5,
        "duration": 0.25,
        "velocity": 0.82,
        "hand": "right"
      },
      {
        "midi": 69,
        "time": 1.5,
        "duration": 0.25,
        "velocity": 0.82,
        "hand": "right"
      },
      {
        "midi": 63,
        "time": 2,
        "duration": 0.25,
        "velocity": 0.82,
        "hand": "right"
      },
      {
        "midi": 70,
        "time": 2,
        "duration": 0.25,
        "velocity": 0.82,
        "hand": "right"
      },
      {
        "midi": 63,
        "time": 2.5,
        "duration": 0.25,
        "velocity": 0.82,
        "hand": "right"
      },
      {
        "midi": 72,
        "time": 2.5,
        "duration": 0.25,
        "velocity": 0.82,
        "hand": "right"
      },
      {
        "midi": 46,
        "time": 3,
        "duration": 2.75,
        "velocity": 0.86,
        "hand": "left"
      },
      {
        "midi": 58,
        "time": 3,
        "duration": 2.75,
        "velocity": 0.86,
        "hand": "left"
      },
      {
        "midi": 62,
        "time": 3,
        "duration": 2.75,
        "velocity": 0.82,
        "hand": "right"
      },
      {
        "midi": 70,
        "time": 3,
        "duration": 2.75,
        "velocity": 0.82,
        "hand": "right"
      },
      {
        "midi": 38,
        "time": 5.25,
        "duration": 0.25,
        "velocity": 0.82,
        "hand": "left"
      },
      {
        "midi": 47,
        "time": 5.5,
        "duration": 0.25,
        "velocity": 0.82,
        "hand": "left"
      },
      {
        "midi": 45,
        "time": 5.75,
        "duration": 0.235,
        "velocity": 0.82,
        "hand": "left"
      },
      {
        "midi": 46,
        "time": 6,
        "duration": 0.25,
        "velocity": 0.86,
        "hand": "left"
      },
      {
        "midi": 62,
        "time": 6,
        "duration": 0.25,
        "velocity": 0.82,
        "hand": "right"
      },
      {
        "midi": 65,
        "time": 6,
        "duration": 0.25,
        "velocity": 0.82,
        "hand": "right"
      },
      {
        "midi": 46,
        "time": 6.5,
        "duration": 0.25,
        "velocity": 0.86,
        "hand": "left"
      },
      {
        "midi": 52,
        "time": 6.5,
        "duration": 0.25,
        "velocity": 0.82,
        "hand": "left"
      },
      {
        "midi": 62,
        "time": 6.5,
        "duration": 0.25,
        "velocity": 0.82,
        "hand": "right"
      },
      {
        "midi": 65,
        "time": 6.5,
        "duration": 0.25,
        "velocity": 0.82,
        "hand": "right"
      },
      {
        "midi": 46,
        "time": 7,
        "duration": 0.25,
        "velocity": 0.86,
        "hand": "left"
      },
      {
        "midi": 62,
        "time": 7,
        "duration": 0.25,
        "velocity": 0.82,
        "hand": "right"
      },
      {
        "midi": 65,
        "time": 7,
        "duration": 0.25,
        "velocity": 0.82,
        "hand": "right"
      },
      {
        "midi": 45,
        "time": 7.5,
        "duration": 0.25,
        "velocity": 0.82,
        "hand": "left"
      },
      {
        "midi": 53,
        "time": 7.5,
        "duration": 0.25,
        "velocity": 0.86,
        "hand": "left"
      },
      {
        "midi": 63,
        "time": 7.5,
        "duration": 0.25,
        "velocity": 0.82,
        "hand": "right"
      },
      {
        "midi": 65,
        "time": 7.5,
        "duration": 0.25,
        "velocity": 0.82,
        "hand": "right"
      },
      {
        "midi": 53,
        "time": 8,
        "duration": 0.25,
        "velocity": 0.86,
        "hand": "left"
      },
      {
        "midi": 60,
        "time": 8,
        "duration": 0.25,
        "velocity": 0.82,
        "hand": "right"
      },
      {
        "midi": 63,
        "time": 8,
        "duration": 0.25,
        "velocity": 0.82,
        "hand": "right"
      },
      {
        "midi": 67,
        "time": 8,
        "duration": 0.25,
        "velocity": 0.82,
        "hand": "right"
      },
      {
        "midi": 38,
        "time": 8.5,
        "duration": 0.25,
        "velocity": 0.82,
        "hand": "left"
      },
      {
        "midi": 45,
        "time": 8.5,
        "duration": 0.25,
        "velocity": 0.82,
        "hand": "left"
      },
      {
        "midi": 60,
        "time": 8.5,
        "duration": 0.25,
        "velocity": 0.86,
        "hand": "right"
      },
      {
        "midi": 63,
        "time": 8.5,
        "duration": 0.25,
        "velocity": 0.82,
        "hand": "right"
      },
      {
        "midi": 69,
        "time": 8.5,
        "duration": 0.25,
        "velocity": 0.82,
        "hand": "right"
      },
      {
        "midi": 46,
        "time": 9,
        "duration": 1,
        "velocity": 0.86,
        "hand": "left"
      },
      {
        "midi": 62,
        "time": 9,
        "duration": 1,
        "velocity": 0.82,
        "hand": "right"
      },
      {
        "midi": 70,
        "time": 9,
        "duration": 1,
        "velocity": 0.82,
        "hand": "right"
      },
      {
        "midi": 52,
        "time": 9.5,
        "duration": 0.25,
        "velocity": 0.82,
        "hand": "left"
      },
      {
        "midi": 45,
        "time": 10,
        "duration": 0.25,
        "velocity": 0.82,
        "hand": "left"
      },
      {
        "midi": 46,
        "time": 10.5,
        "duration": 1,
        "velocity": 0.86,
        "hand": "left"
      },
      {
        "midi": 62,
        "time": 10.5,
        "duration": 0.985,
        "velocity": 0.82,
        "hand": "right"
      },
      {
        "midi": 65,
        "time": 10.5,
        "duration": 1,
        "velocity": 0.82,
        "hand": "right"
      },
      {
        "midi": 52,
        "time": 11,
        "duration": 0.25,
        "velocity": 0.82,
        "hand": "left"
      },
      {
        "midi": 60,
        "time": 11,
        "duration": 0.25,
        "velocity": 0.82,
        "hand": "right"
      },
      {
        "midi": 38,
        "time": 11.5,
        "duration": 0.25,
        "velocity": 0.82,
        "hand": "left"
      },
      {
        "midi": 45,
        "time": 11.5,
        "duration": 0.25,
        "velocity": 0.82,
        "hand": "left"
      },
      {
        "midi": 62,
        "time": 11.5,
        "duration": 0.25,
        "velocity": 0.86,
        "hand": "right"
      },
      {
        "midi": 45,
        "time": 12,
        "duration": 0.25,
        "velocity": 0.82,
        "hand": "left"
      },
      {
        "midi": 53,
        "time": 12,
        "duration": 0.25,
        "velocity": 0.86,
        "hand": "left"
      },
      {
        "midi": 60,
        "time": 12,
        "duration": 0.25,
        "velocity": 0.86,
        "hand": "right"
      },
      {
        "midi": 65,
        "time": 12,
        "duration": 0.25,
        "velocity": 0.82,
        "hand": "right"
      },
      {
        "midi": 69,
        "time": 12,
        "duration": 0.25,
        "velocity": 0.82,
        "hand": "right"
      },
      {
        "midi": 53,
        "time": 12.5,
        "duration": 0.25,
        "velocity": 0.86,
        "hand": "left"
      },
      {
        "midi": 60,
        "time": 12.5,
        "duration": 0.25,
        "velocity": 0.86,
        "hand": "right"
      },
      {
        "midi": 65,
        "time": 12.5,
        "duration": 0.25,
        "velocity": 0.82,
        "hand": "right"
      },
      {
        "midi": 69,
        "time": 12.5,
        "duration": 0.25,
        "velocity": 0.82,
        "hand": "right"
      },
      {
        "midi": 45,
        "time": 13,
        "duration": 0.25,
        "velocity": 0.82,
        "hand": "left"
      },
      {
        "midi": 53,
        "time": 13,
        "duration": 0.25,
        "velocity": 0.86,
        "hand": "left"
      },
      {
        "midi": 60,
        "time": 13,
        "duration": 0.25,
        "velocity": 0.86,
        "hand": "right"
      },
      {
        "midi": 65,
        "time": 13,
        "duration": 0.25,
        "velocity": 0.82,
        "hand": "right"
      },
      {
        "midi": 69,
        "time": 13,
        "duration": 0.25,
        "velocity": 0.82,
        "hand": "right"
      },
      {
        "midi": 45,
        "time": 13.5,
        "duration": 0.25,
        "velocity": 0.82,
        "hand": "left"
      },
      {
        "midi": 53,
        "time": 13.5,
        "duration": 0.25,
        "velocity": 0.86,
        "hand": "left"
      },
      {
        "midi": 60,
        "time": 13.5,
        "duration": 0.25,
        "velocity": 0.86,
        "hand": "right"
      },
      {
        "midi": 63,
        "time": 13.5,
        "duration": 0.25,
        "velocity": 0.82,
        "hand": "right"
      },
      {
        "midi": 69,
        "time": 13.5,
        "duration": 0.25,
        "velocity": 0.82,
        "hand": "right"
      },
      {
        "midi": 53,
        "time": 14,
        "duration": 0.25,
        "velocity": 0.86,
        "hand": "left"
      },
      {
        "midi": 60,
        "time": 14,
        "duration": 0.25,
        "velocity": 0.82,
        "hand": "right"
      },
      {
        "midi": 63,
        "time": 14,
        "duration": 0.25,
        "velocity": 0.82,
        "hand": "right"
      },
      {
        "midi": 70,
        "time": 14,
        "duration": 0.25,
        "velocity": 0.82,
        "hand": "right"
      },
      {
        "midi": 38,
        "time": 14.5,
        "duration": 0.25,
        "velocity": 0.82,
        "hand": "left"
      },
      {
        "midi": 45,
        "time": 14.5,
        "duration": 0.25,
        "velocity": 0.82,
        "hand": "left"
      },
      {
        "midi": 63,
        "time": 14.5,
        "duration": 0.25,
        "velocity": 0.82,
        "hand": "right"
      },
      {
        "midi": 72,
        "time": 14.5,
        "duration": 0.25,
        "velocity": 0.82,
        "hand": "right"
      },
      {
        "midi": 46,
        "time": 15,
        "duration": 1.485,
        "velocity": 0.86,
        "hand": "left"
      },
      {
        "midi": 62,
        "time": 15,
        "duration": 1.485,
        "velocity": 0.82,
        "hand": "right"
      },
      {
        "midi": 70,
        "time": 15,
        "duration": 1.485,
        "velocity": 0.88,
        "hand": "right"
      },
      {
        "midi": 52,
        "time": 15.5,
        "duration": 0.25,
        "velocity": 0.82,
        "hand": "left"
      },
      {
        "midi": 60,
        "time": 15.5,
        "duration": 0.25,
        "velocity": 0.82,
        "hand": "right"
      },
      {
        "midi": 52,
        "time": 16,
        "duration": 0.25,
        "velocity": 0.82,
        "hand": "left"
      },
      {
        "midi": 60,
        "time": 16,
        "duration": 0.25,
        "velocity": 0.82,
        "hand": "right"
      },
      {
        "midi": 46,
        "time": 16.5,
        "duration": 1,
        "velocity": 0.86,
        "hand": "left"
      },
      {
        "midi": 52,
        "time": 16.5,
        "duration": 0.25,
        "velocity": 0.82,
        "hand": "left"
      },
      {
        "midi": 60,
        "time": 16.5,
        "duration": 0.25,
        "velocity": 0.82,
        "hand": "right"
      },
      {
        "midi": 62,
        "time": 16.5,
        "duration": 1,
        "velocity": 0.82,
        "hand": "right"
      },
      {
        "midi": 70,
        "time": 16.5,
        "duration": 1,
        "velocity": 0.82,
        "hand": "right"
      },
      {
        "midi": 48,
        "time": 17,
        "duration": 0.25,
        "velocity": 0.82,
        "hand": "left"
      },
      {
        "midi": 47,
        "time": 17.25,
        "duration": 0.235,
        "velocity": 0.82,
        "hand": "left"
      },
      {
        "midi": 47,
        "time": 17.5,
        "duration": 0.25,
        "velocity": 0.82,
        "hand": "left"
      },
      {
        "midi": 45,
        "time": 17.75,
        "duration": 0.235,
        "velocity": 0.82,
        "hand": "left"
      },
      {
        "midi": 45,
        "time": 18,
        "duration": 0.25,
        "velocity": 0.82,
        "hand": "left"
      },
      {
        "midi": 51,
        "time": 18,
        "duration": 0.25,
        "velocity": 0.86,
        "hand": "left"
      },
      {
        "midi": 63,
        "time": 18,
        "duration": 0.25,
        "velocity": 0.82,
        "hand": "right"
      },
      {
        "midi": 67,
        "time": 18,
        "duration": 0.25,
        "velocity": 0.82,
        "hand": "right"
      },
      {
        "midi": 52,
        "time": 18.5,
        "duration": 0.25,
        "velocity": 0.82,
        "hand": "left"
      },
      {
        "midi": 63,
        "time": 18.5,
        "duration": 0.25,
        "velocity": 0.82,
        "hand": "right"
      },
      {
        "midi": 67,
        "time": 18.5,
        "duration": 0.25,
        "velocity": 0.82,
        "hand": "right"
      },
      {
        "midi": 45,
        "time": 19,
        "duration": 0.25,
        "velocity": 0.82,
        "hand": "left"
      },
      {
        "midi": 51,
        "time": 19,
        "duration": 0.25,
        "velocity": 0.86,
        "hand": "left"
      },
      {
        "midi": 63,
        "time": 19,
        "duration": 0.25,
        "velocity": 0.82,
        "hand": "right"
      },
      {
        "midi": 67,
        "time": 19,
        "duration": 0.25,
        "velocity": 0.82,
        "hand": "right"
      },
      {
        "midi": 45,
        "time": 19.5,
        "duration": 0.25,
        "velocity": 0.82,
        "hand": "left"
      },
      {
        "midi": 51,
        "time": 19.5,
        "duration": 0.25,
        "velocity": 0.86,
        "hand": "left"
      },
      {
        "midi": 67,
        "time": 19.5,
        "duration": 0.25,
        "velocity": 0.82,
        "hand": "right"
      },
      {
        "midi": 70,
        "time": 19.5,
        "duration": 0.25,
        "velocity": 0.82,
        "hand": "right"
      },
      {
        "midi": 52,
        "time": 20,
        "duration": 0.25,
        "velocity": 0.82,
        "hand": "left"
      },
      {
        "midi": 60,
        "time": 20,
        "duration": 0.25,
        "velocity": 0.82,
        "hand": "right"
      },
      {
        "midi": 65,
        "time": 20,
        "duration": 0.25,
        "velocity": 0.82,
        "hand": "right"
      },
      {
        "midi": 69,
        "time": 20,
        "duration": 0.25,
        "velocity": 0.82,
        "hand": "right"
      },
      {
        "midi": 38,
        "time": 20.5,
        "duration": 0.25,
        "velocity": 0.82,
        "hand": "left"
      },
      {
        "midi": 45,
        "time": 20.5,
        "duration": 0.25,
        "velocity": 0.82,
        "hand": "left"
      },
      {
        "midi": 63,
        "time": 20.5,
        "duration": 0.25,
        "velocity": 0.82,
        "hand": "right"
      },
      {
        "midi": 67,
        "time": 20.5,
        "duration": 0.25,
        "velocity": 0.82,
        "hand": "right"
      },
      {
        "midi": 46,
        "time": 21,
        "duration": 1,
        "velocity": 0.86,
        "hand": "left"
      },
      {
        "midi": 62,
        "time": 21,
        "duration": 1,
        "velocity": 0.82,
        "hand": "right"
      },
      {
        "midi": 65,
        "time": 21,
        "duration": 1,
        "velocity": 0.82,
        "hand": "right"
      },
      {
        "midi": 52,
        "time": 21.5,
        "duration": 0.25,
        "velocity": 0.82,
        "hand": "left"
      },
      {
        "midi": 45,
        "time": 22,
        "duration": 0.25,
        "velocity": 0.82,
        "hand": "left"
      },
      {
        "midi": 45,
        "time": 22.5,
        "duration": 0.25,
        "velocity": 0.82,
        "hand": "left"
      },
      {
        "midi": 50,
        "time": 22.5,
        "duration": 1,
        "velocity": 0.86,
        "hand": "left"
      },
      {
        "midi": 65,
        "time": 22.5,
        "duration": 1,
        "velocity": 0.82,
        "hand": "right"
      },
      {
        "midi": 70,
        "time": 22.5,
        "duration": 1,
        "velocity": 0.82,
        "hand": "right"
      },
      {
        "midi": 52,
        "time": 23,
        "duration": 0.25,
        "velocity": 0.82,
        "hand": "left"
      },
      {
        "midi": 60,
        "time": 23,
        "duration": 0.25,
        "velocity": 0.82,
        "hand": "right"
      },
      {
        "midi": 38,
        "time": 23.5,
        "duration": 0.25,
        "velocity": 0.82,
        "hand": "left"
      },
      {
        "midi": 45,
        "time": 23.5,
        "duration": 0.25,
        "velocity": 0.82,
        "hand": "left"
      },
      {
        "midi": 45,
        "time": 24,
        "duration": 0.25,
        "velocity": 0.82,
        "hand": "left"
      },
      {
        "midi": 55,
        "time": 24,
        "duration": 0.25,
        "velocity": 0.86,
        "hand": "left"
      },
      {
        "midi": 62,
        "time": 24,
        "duration": 0.25,
        "velocity": 0.86,
        "hand": "right"
      },
      {
        "midi": 67,
        "time": 24,
        "duration": 0.25,
        "velocity": 0.82,
        "hand": "right"
      },
      {
        "midi": 70,
        "time": 24,
        "duration": 0.25,
        "velocity": 0.82,
        "hand": "right"
      },
      {
        "midi": 52,
        "time": 24.5,
        "duration": 0.25,
        "velocity": 0.82,
        "hand": "left"
      },
      {
        "midi": 55,
        "time": 24.5,
        "duration": 0.25,
        "velocity": 0.86,
        "hand": "left"
      },
      {
        "midi": 62,
        "time": 24.5,
        "duration": 0.25,
        "velocity": 0.86,
        "hand": "right"
      },
      {
        "midi": 67,
        "time": 24.5,
        "duration": 0.25,
        "velocity": 0.82,
        "hand": "right"
      },
      {
        "midi": 70,
        "time": 24.5,
        "duration": 0.25,
        "velocity": 0.82,
        "hand": "right"
      },
      {
        "midi": 45,
        "time": 25,
        "duration": 0.25,
        "velocity": 0.82,
        "hand": "left"
      },
      {
        "midi": 53,
        "time": 25,
        "duration": 0.25,
        "velocity": 0.86,
        "hand": "left"
      },
      {
        "midi": 62,
        "time": 25,
        "duration": 0.25,
        "velocity": 0.86,
        "hand": "right"
      },
      {
        "midi": 67,
        "time": 25,
        "duration": 0.25,
        "velocity": 0.82,
        "hand": "right"
      },
      {
        "midi": 70,
        "time": 25,
        "duration": 0.25,
        "velocity": 0.82,
        "hand": "right"
      },
      {
        "midi": 45,
        "time": 25.5,
        "duration": 0.25,
        "velocity": 0.82,
        "hand": "left"
      },
      {
        "midi": 51,
        "time": 25.5,
        "duration": 0.25,
        "velocity": 0.86,
        "hand": "left"
      },
      {
        "midi": 63,
        "time": 25.5,
        "duration": 0.25,
        "velocity": 0.86,
        "hand": "right"
      },
      {
        "midi": 67,
        "time": 25.5,
        "duration": 0.25,
        "velocity": 0.82,
        "hand": "right"
      },
      {
        "midi": 70,
        "time": 25.5,
        "duration": 0.25,
        "velocity": 0.82,
        "hand": "right"
      },
      {
        "midi": 52,
        "time": 26,
        "duration": 0.25,
        "velocity": 0.82,
        "hand": "left"
      },
      {
        "midi": 60,
        "time": 26,
        "duration": 0.25,
        "velocity": 0.86,
        "hand": "right"
      },
      {
        "midi": 66,
        "time": 26,
        "duration": 0.25,
        "velocity": 0.82,
        "hand": "right"
      },
      {
        "midi": 69,
        "time": 26,
        "duration": 0.25,
        "velocity": 0.82,
        "hand": "right"
      },
      {
        "midi": 38,
        "time": 26.5,
        "duration": 0.25,
        "velocity": 0.82,
        "hand": "left"
      },
      {
        "midi": 45,
        "time": 26.5,
        "duration": 0.25,
        "velocity": 0.82,
        "hand": "left"
      },
      {
        "midi": 67,
        "time": 26.5,
        "duration": 0.25,
        "velocity": 0.82,
        "hand": "right"
      },
      {
        "midi": 70,
        "time": 26.5,
        "duration": 0.25,
        "velocity": 0.82,
        "hand": "right"
      },
      {
        "midi": 45,
        "time": 27,
        "duration": 0.25,
        "velocity": 0.82,
        "hand": "left"
      },
      {
        "midi": 53,
        "time": 27,
        "duration": 1.485,
        "velocity": 0.86,
        "hand": "left"
      },
      {
        "midi": 69,
        "time": 27,
        "duration": 1.485,
        "velocity": 0.82,
        "hand": "right"
      },
      {
        "midi": 72,
        "time": 27,
        "duration": 1.485,
        "velocity": 0.88,
        "hand": "right"
      },
      {
        "midi": 52,
        "time": 27.5,
        "duration": 0.25,
        "velocity": 0.82,
        "hand": "left"
      },
      {
        "midi": 60,
        "time": 27.5,
        "duration": 0.25,
        "velocity": 0.82,
        "hand": "right"
      },
      {
        "midi": 52,
        "time": 28,
        "duration": 0.25,
        "velocity": 0.82,
        "hand": "left"
      },
      {
        "midi": 60,
        "time": 28,
        "duration": 0.25,
        "velocity": 0.82,
        "hand": "right"
      },
      {
        "midi": 53,
        "time": 28.5,
        "duration": 1,
        "velocity": 0.86,
        "hand": "left"
      },
      {
        "midi": 60,
        "time": 28.5,
        "duration": 0.25,
        "velocity": 0.82,
        "hand": "right"
      },
      {
        "midi": 63,
        "time": 28.5,
        "duration": 1,
        "velocity": 0.86,
        "hand": "right"
      },
      {
        "midi": 69,
        "time": 28.5,
        "duration": 1,
        "velocity": 0.82,
        "hand": "right"
      },
      {
        "midi": 72,
        "time": 28.5,
        "duration": 1,
        "velocity": 0.82,
        "hand": "right"
      },
      {
        "midi": 48,
        "time": 29,
        "duration": 0.25,
        "velocity": 0.82,
        "hand": "left"
      },
      {
        "midi": 47,
        "time": 29.25,
        "duration": 0.235,
        "velocity": 0.82,
        "hand": "left"
      },
      {
        "midi": 47,
        "time": 29.5,
        "duration": 0.25,
        "velocity": 0.82,
        "hand": "left"
      },
      {
        "midi": 45,
        "time": 29.75,
        "duration": 0.235,
        "velocity": 0.82,
        "hand": "left"
      },
      {
        "midi": 46,
        "time": 30,
        "duration": 0.75,
        "velocity": 0.86,
        "hand": "left"
      },
      {
        "midi": 62,
        "time": 30,
        "duration": 0.75,
        "velocity": 0.86,
        "hand": "right"
      },
      {
        "midi": 70,
        "time": 30,
        "duration": 0.75,
        "velocity": 0.82,
        "hand": "right"
      },
      {
        "midi": 74,
        "time": 30,
        "duration": 1.485,
        "velocity": 0.88,
        "hand": "right"
      },
      {
        "midi": 52,
        "time": 30.5,
        "duration": 0.25,
        "velocity": 0.82,
        "hand": "left"
      },
      {
        "midi": 58,
        "time": 30.5,
        "duration": 0.25,
        "velocity": 0.86,
        "hand": "left"
      },
      {
        "midi": 65,
        "time": 30.5,
        "duration": 0.25,
        "velocity": 0.82,
        "hand": "right"
      },
      {
        "midi": 46,
        "time": 31,
        "duration": 0.25,
        "velocity": 0.86,
        "hand": "left"
      },
      {
        "midi": 65,
        "time": 31,
        "duration": 0.25,
        "velocity": 0.82,
        "hand": "right"
      },
      {
        "midi": 46,
        "time": 31.5,
        "duration": 0.25,
        "velocity": 0.86,
        "hand": "left"
      },
      {
        "midi": 74,
        "time": 31.5,
        "duration": 0.25,
        "velocity": 0.82,
        "hand": "right"
      },
      {
        "midi": 46,
        "time": 32,
        "duration": 0.25,
        "velocity": 0.86,
        "hand": "left"
      },
      {
        "midi": 52,
        "time": 32,
        "duration": 0.25,
        "velocity": 0.82,
        "hand": "left"
      },
      {
        "midi": 60,
        "time": 32,
        "duration": 0.25,
        "velocity": 0.82,
        "hand": "right"
      },
      {
        "midi": 64,
        "time": 32,
        "duration": 0.25,
        "velocity": 0.82,
        "hand": "right"
      },
      {
        "midi": 73,
        "time": 32,
        "duration": 0.25,
        "velocity": 0.82,
        "hand": "right"
      },
      {
        "midi": 38,
        "time": 32.5,
        "duration": 0.25,
        "velocity": 0.82,
        "hand": "left"
      },
      {
        "midi": 45,
        "time": 32.5,
        "duration": 0.25,
        "velocity": 0.82,
        "hand": "left"
      },
      {
        "midi": 65,
        "time": 32.5,
        "duration": 0.25,
        "velocity": 0.82,
        "hand": "right"
      },
      {
        "midi": 74,
        "time": 32.5,
        "duration": 0.25,
        "velocity": 0.82,
        "hand": "right"
      },
      {
        "midi": 46,
        "time": 33,
        "duration": 1,
        "velocity": 0.86,
        "hand": "left"
      },
      {
        "midi": 62,
        "time": 33,
        "duration": 1,
        "velocity": 0.82,
        "hand": "right"
      },
      {
        "midi": 70,
        "time": 33,
        "duration": 1,
        "velocity": 0.82,
        "hand": "right"
      },
      {
        "midi": 52,
        "time": 33.5,
        "duration": 0.25,
        "velocity": 0.82,
        "hand": "left"
      },
      {
        "midi": 45,
        "time": 34,
        "duration": 0.25,
        "velocity": 0.82,
        "hand": "left"
      },
      {
        "midi": 46,
        "time": 34.5,
        "duration": 1,
        "velocity": 0.86,
        "hand": "left"
      },
      {
        "midi": 62,
        "time": 34.5,
        "duration": 1,
        "velocity": 0.82,
        "hand": "right"
      },
      {
        "midi": 65,
        "time": 34.5,
        "duration": 1,
        "velocity": 0.82,
        "hand": "right"
      },
      {
        "midi": 52,
        "time": 35,
        "duration": 0.25,
        "velocity": 0.82,
        "hand": "left"
      },
      {
        "midi": 60,
        "time": 35,
        "duration": 0.25,
        "velocity": 0.82,
        "hand": "right"
      },
      {
        "midi": 38,
        "time": 35.5,
        "duration": 0.25,
        "velocity": 0.82,
        "hand": "left"
      },
      {
        "midi": 45,
        "time": 35.5,
        "duration": 0.25,
        "velocity": 0.82,
        "hand": "left"
      },
      {
        "midi": 46,
        "time": 36,
        "duration": 0.25,
        "velocity": 0.86,
        "hand": "left"
      },
      {
        "midi": 65,
        "time": 36,
        "duration": 0.25,
        "velocity": 0.82,
        "hand": "right"
      },
      {
        "midi": 74,
        "time": 36,
        "duration": 0.25,
        "velocity": 0.82,
        "hand": "right"
      },
      {
        "midi": 46,
        "time": 36.5,
        "duration": 0.25,
        "velocity": 0.86,
        "hand": "left"
      },
      {
        "midi": 52,
        "time": 36.5,
        "duration": 0.25,
        "velocity": 0.82,
        "hand": "left"
      },
      {
        "midi": 63,
        "time": 36.5,
        "duration": 0.25,
        "velocity": 0.82,
        "hand": "right"
      },
      {
        "midi": 72,
        "time": 36.5,
        "duration": 0.25,
        "velocity": 0.82,
        "hand": "right"
      },
      {
        "midi": 46,
        "time": 37,
        "duration": 0.25,
        "velocity": 0.86,
        "hand": "left"
      },
      {
        "midi": 62,
        "time": 37,
        "duration": 0.25,
        "velocity": 0.82,
        "hand": "right"
      },
      {
        "midi": 70,
        "time": 37,
        "duration": 0.25,
        "velocity": 0.82,
        "hand": "right"
      },
      {
        "midi": 45,
        "time": 37.5,
        "duration": 0.25,
        "velocity": 0.82,
        "hand": "left"
      },
      {
        "midi": 50,
        "time": 37.5,
        "duration": 0.25,
        "velocity": 0.86,
        "hand": "left"
      },
      {
        "midi": 65,
        "time": 37.5,
        "duration": 0.25,
        "velocity": 0.82,
        "hand": "right"
      },
      {
        "midi": 70,
        "time": 37.5,
        "duration": 0.25,
        "velocity": 0.82,
        "hand": "right"
      },
      {
        "midi": 48,
        "time": 38,
        "duration": 0.25,
        "velocity": 0.86,
        "hand": "left"
      },
      {
        "midi": 52,
        "time": 38,
        "duration": 0.25,
        "velocity": 0.82,
        "hand": "left"
      },
      {
        "midi": 60,
        "time": 38,
        "duration": 0.25,
        "velocity": 0.82,
        "hand": "right"
      },
      {
        "midi": 63,
        "time": 38,
        "duration": 0.25,
        "velocity": 0.82,
        "hand": "right"
      },
      {
        "midi": 69,
        "time": 38,
        "duration": 0.25,
        "velocity": 0.82,
        "hand": "right"
      },
      {
        "midi": 38,
        "time": 38.5,
        "duration": 0.25,
        "velocity": 0.82,
        "hand": "left"
      },
      {
        "midi": 45,
        "time": 38.5,
        "duration": 0.25,
        "velocity": 0.82,
        "hand": "left"
      },
      {
        "midi": 62,
        "time": 38.5,
        "duration": 0.25,
        "velocity": 0.82,
        "hand": "right"
      },
      {
        "midi": 70,
        "time": 38.5,
        "duration": 0.25,
        "velocity": 0.82,
        "hand": "right"
      },
      {
        "midi": 45,
        "time": 39,
        "duration": 0.25,
        "velocity": 0.82,
        "hand": "left"
      },
      {
        "midi": 53,
        "time": 39,
        "duration": 1.485,
        "velocity": 0.86,
        "hand": "left"
      },
      {
        "midi": 65,
        "time": 39,
        "duration": 1.485,
        "velocity": 0.82,
        "hand": "right"
      },
      {
        "midi": 72,
        "time": 39,
        "duration": 1.485,
        "velocity": 0.88,
        "hand": "right"
      },
      {
        "midi": 52,
        "time": 39.5,
        "duration": 0.25,
        "velocity": 0.82,
        "hand": "left"
      },
      {
        "midi": 60,
        "time": 39.5,
        "duration": 0.25,
        "velocity": 0.82,
        "hand": "right"
      },
      {
        "midi": 52,
        "time": 40,
        "duration": 0.25,
        "velocity": 0.82,
        "hand": "left"
      },
      {
        "midi": 60,
        "time": 40,
        "duration": 0.25,
        "velocity": 0.82,
        "hand": "right"
      },
      {
        "midi": 53,
        "time": 40.5,
        "duration": 1,
        "velocity": 0.86,
        "hand": "left"
      },
      {
        "midi": 60,
        "time": 40.5,
        "duration": 0.25,
        "velocity": 0.82,
        "hand": "right"
      },
      {
        "midi": 65,
        "time": 40.5,
        "duration": 1,
        "velocity": 0.82,
        "hand": "right"
      },
      {
        "midi": 72,
        "time": 40.5,
        "duration": 1,
        "velocity": 0.82,
        "hand": "right"
      },
      {
        "midi": 48,
        "time": 41,
        "duration": 0.25,
        "velocity": 0.82,
        "hand": "left"
      },
      {
        "midi": 47,
        "time": 41.25,
        "duration": 0.235,
        "velocity": 0.82,
        "hand": "left"
      },
      {
        "midi": 47,
        "time": 41.5,
        "duration": 0.25,
        "velocity": 0.82,
        "hand": "left"
      },
      {
        "midi": 45,
        "time": 41.75,
        "duration": 0.235,
        "velocity": 0.82,
        "hand": "left"
      },
      {
        "midi": 46,
        "time": 42,
        "duration": 0.25,
        "velocity": 0.86,
        "hand": "left"
      },
      {
        "midi": 65,
        "time": 42,
        "duration": 0.25,
        "velocity": 0.82,
        "hand": "right"
      },
      {
        "midi": 74,
        "time": 42,
        "duration": 0.25,
        "velocity": 0.82,
        "hand": "right"
      },
      {
        "midi": 46,
        "time": 42.5,
        "duration": 0.25,
        "velocity": 0.86,
        "hand": "left"
      },
      {
        "midi": 52,
        "time": 42.5,
        "duration": 0.25,
        "velocity": 0.82,
        "hand": "left"
      },
      {
        "midi": 65,
        "time": 42.5,
        "duration": 0.25,
        "velocity": 0.82,
        "hand": "right"
      },
      {
        "midi": 74,
        "time": 42.5,
        "duration": 0.25,
        "velocity": 0.82,
        "hand": "right"
      },
      {
        "midi": 46,
        "time": 43,
        "duration": 0.25,
        "velocity": 0.86,
        "hand": "left"
      },
      {
        "midi": 65,
        "time": 43,
        "duration": 0.25,
        "velocity": 0.82,
        "hand": "right"
      },
      {
        "midi": 74,
        "time": 43,
        "duration": 0.25,
        "velocity": 0.82,
        "hand": "right"
      },
      {
        "midi": 45,
        "time": 43.5,
        "duration": 0.25,
        "velocity": 0.82,
        "hand": "left"
      },
      {
        "midi": 51,
        "time": 43.5,
        "duration": 0.25,
        "velocity": 0.86,
        "hand": "left"
      },
      {
        "midi": 63,
        "time": 43.5,
        "duration": 0.25,
        "velocity": 0.82,
        "hand": "right"
      },
      {
        "midi": 72,
        "time": 43.5,
        "duration": 0.25,
        "velocity": 0.82,
        "hand": "right"
      },
      {
        "midi": 52,
        "time": 44,
        "duration": 0.25,
        "velocity": 0.82,
        "hand": "left"
      },
      {
        "midi": 60,
        "time": 44,
        "duration": 0.25,
        "velocity": 0.82,
        "hand": "right"
      },
      {
        "midi": 63,
        "time": 44,
        "duration": 0.25,
        "velocity": 0.82,
        "hand": "right"
      },
      {
        "midi": 70,
        "time": 44,
        "duration": 0.25,
        "velocity": 0.82,
        "hand": "right"
      },
      {
        "midi": 38,
        "time": 44.5,
        "duration": 0.25,
        "velocity": 0.82,
        "hand": "left"
      },
      {
        "midi": 45,
        "time": 44.5,
        "duration": 0.25,
        "velocity": 0.82,
        "hand": "left"
      },
      {
        "midi": 63,
        "time": 44.5,
        "duration": 0.25,
        "velocity": 0.82,
        "hand": "right"
      },
      {
        "midi": 67,
        "time": 44.5,
        "duration": 0.25,
        "velocity": 0.82,
        "hand": "right"
      },
      {
        "midi": 46,
        "time": 45,
        "duration": 1,
        "velocity": 0.86,
        "hand": "left"
      },
      {
        "midi": 62,
        "time": 45,
        "duration": 1,
        "velocity": 0.82,
        "hand": "right"
      },
      {
        "midi": 65,
        "time": 45,
        "duration": 1,
        "velocity": 0.82,
        "hand": "right"
      },
      {
        "midi": 52,
        "time": 45.5,
        "duration": 0.25,
        "velocity": 0.82,
        "hand": "left"
      },
      {
        "midi": 45,
        "time": 46,
        "duration": 0.25,
        "velocity": 0.82,
        "hand": "left"
      },
      {
        "midi": 46,
        "time": 46.5,
        "duration": 1,
        "velocity": 0.86,
        "hand": "left"
      },
      {
        "midi": 62,
        "time": 46.5,
        "duration": 0.985,
        "velocity": 0.82,
        "hand": "right"
      },
      {
        "midi": 70,
        "time": 46.5,
        "duration": 1,
        "velocity": 0.82,
        "hand": "right"
      },
      {
        "midi": 52,
        "time": 47,
        "duration": 0.25,
        "velocity": 0.82,
        "hand": "left"
      },
      {
        "midi": 58,
        "time": 47,
        "duration": 0.75,
        "velocity": 0.86,
        "hand": "left"
      },
      {
        "midi": 60,
        "time": 47,
        "duration": 0.25,
        "velocity": 0.82,
        "hand": "right"
      },
      {
        "midi": 38,
        "time": 47.5,
        "duration": 0.25,
        "velocity": 0.82,
        "hand": "left"
      },
      {
        "midi": 45,
        "time": 47.5,
        "duration": 0.25,
        "velocity": 0.82,
        "hand": "left"
      },
      {
        "midi": 62,
        "time": 47.5,
        "duration": 0.25,
        "velocity": 0.86,
        "hand": "right"
      },
      {
        "midi": 65,
        "time": 47.5,
        "duration": 0.25,
        "velocity": 0.82,
        "hand": "right"
      },
      {
        "midi": 45,
        "time": 48,
        "duration": 0.25,
        "velocity": 0.82,
        "hand": "left"
      },
      {
        "midi": 53,
        "time": 48,
        "duration": 0.25,
        "velocity": 0.86,
        "hand": "left"
      },
      {
        "midi": 60,
        "time": 48,
        "duration": 0.25,
        "velocity": 0.86,
        "hand": "right"
      },
      {
        "midi": 63,
        "time": 48,
        "duration": 0.25,
        "velocity": 0.82,
        "hand": "right"
      },
      {
        "midi": 69,
        "time": 48,
        "duration": 0.25,
        "velocity": 0.82,
        "hand": "right"
      },
      {
        "midi": 53,
        "time": 48.5,
        "duration": 0.25,
        "velocity": 0.86,
        "hand": "left"
      },
      {
        "midi": 60,
        "time": 48.5,
        "duration": 0.25,
        "velocity": 0.86,
        "hand": "right"
      },
      {
        "midi": 63,
        "time": 48.5,
        "duration": 0.25,
        "velocity": 0.82,
        "hand": "right"
      },
      {
        "midi": 69,
        "time": 48.5,
        "duration": 0.25,
        "velocity": 0.82,
        "hand": "right"
      },
      {
        "midi": 45,
        "time": 49,
        "duration": 0.25,
        "velocity": 0.82,
        "hand": "left"
      },
      {
        "midi": 53,
        "time": 49,
        "duration": 0.25,
        "velocity": 0.86,
        "hand": "left"
      },
      {
        "midi": 60,
        "time": 49,
        "duration": 0.25,
        "velocity": 0.86,
        "hand": "right"
      },
      {
        "midi": 63,
        "time": 49,
        "duration": 0.25,
        "velocity": 0.82,
        "hand": "right"
      },
      {
        "midi": 69,
        "time": 49,
        "duration": 0.25,
        "velocity": 0.82,
        "hand": "right"
      },
      {
        "midi": 45,
        "time": 49.5,
        "duration": 0.25,
        "velocity": 0.82,
        "hand": "left"
      },
      {
        "midi": 53,
        "time": 49.5,
        "duration": 0.25,
        "velocity": 0.86,
        "hand": "left"
      },
      {
        "midi": 60,
        "time": 49.5,
        "duration": 0.25,
        "velocity": 0.86,
        "hand": "right"
      },
      {
        "midi": 63,
        "time": 49.5,
        "duration": 0.25,
        "velocity": 0.82,
        "hand": "right"
      },
      {
        "midi": 69,
        "time": 49.5,
        "duration": 0.25,
        "velocity": 0.82,
        "hand": "right"
      },
      {
        "midi": 53,
        "time": 50,
        "duration": 0.25,
        "velocity": 0.86,
        "hand": "left"
      },
      {
        "midi": 60,
        "time": 50,
        "duration": 0.25,
        "velocity": 0.82,
        "hand": "right"
      },
      {
        "midi": 63,
        "time": 50,
        "duration": 0.25,
        "velocity": 0.82,
        "hand": "right"
      },
      {
        "midi": 70,
        "time": 50,
        "duration": 0.25,
        "velocity": 0.82,
        "hand": "right"
      },
      {
        "midi": 38,
        "time": 50.5,
        "duration": 0.25,
        "velocity": 0.82,
        "hand": "left"
      },
      {
        "midi": 45,
        "time": 50.5,
        "duration": 0.25,
        "velocity": 0.82,
        "hand": "left"
      },
      {
        "midi": 63,
        "time": 50.5,
        "duration": 0.25,
        "velocity": 0.82,
        "hand": "right"
      },
      {
        "midi": 72,
        "time": 50.5,
        "duration": 0.25,
        "velocity": 0.82,
        "hand": "right"
      },
      {
        "midi": 46,
        "time": 51,
        "duration": 1.485,
        "velocity": 0.86,
        "hand": "left"
      },
      {
        "midi": 62,
        "time": 51,
        "duration": 1.485,
        "velocity": 0.82,
        "hand": "right"
      },
      {
        "midi": 70,
        "time": 51,
        "duration": 1.485,
        "velocity": 0.88,
        "hand": "right"
      },
      {
        "midi": 52,
        "time": 51.5,
        "duration": 0.25,
        "velocity": 0.82,
        "hand": "left"
      },
      {
        "midi": 60,
        "time": 51.5,
        "duration": 0.25,
        "velocity": 0.82,
        "hand": "right"
      },
      {
        "midi": 52,
        "time": 52,
        "duration": 0.25,
        "velocity": 0.82,
        "hand": "left"
      },
      {
        "midi": 60,
        "time": 52,
        "duration": 0.25,
        "velocity": 0.82,
        "hand": "right"
      },
      {
        "midi": 46,
        "time": 52.5,
        "duration": 1,
        "velocity": 0.86,
        "hand": "left"
      },
      {
        "midi": 52,
        "time": 52.5,
        "duration": 0.25,
        "velocity": 0.82,
        "hand": "left"
      },
      {
        "midi": 60,
        "time": 52.5,
        "duration": 0.25,
        "velocity": 0.82,
        "hand": "right"
      },
      {
        "midi": 62,
        "time": 52.5,
        "duration": 1,
        "velocity": 0.82,
        "hand": "right"
      },
      {
        "midi": 70,
        "time": 52.5,
        "duration": 1,
        "velocity": 0.82,
        "hand": "right"
      },
      {
        "midi": 48,
        "time": 53,
        "duration": 0.25,
        "velocity": 0.82,
        "hand": "left"
      },
      {
        "midi": 47,
        "time": 53.25,
        "duration": 0.235,
        "velocity": 0.82,
        "hand": "left"
      },
      {
        "midi": 47,
        "time": 53.5,
        "duration": 0.25,
        "velocity": 0.82,
        "hand": "left"
      },
      {
        "midi": 45,
        "time": 53.75,
        "duration": 0.235,
        "velocity": 0.82,
        "hand": "left"
      },
      {
        "midi": 46,
        "time": 54,
        "duration": 0.25,
        "velocity": 0.86,
        "hand": "left"
      },
      {
        "midi": 62,
        "time": 54,
        "duration": 0.25,
        "velocity": 0.82,
        "hand": "right"
      },
      {
        "midi": 65,
        "time": 54,
        "duration": 0.25,
        "velocity": 0.82,
        "hand": "right"
      },
      {
        "midi": 46,
        "time": 54.5,
        "duration": 0.25,
        "velocity": 0.86,
        "hand": "left"
      },
      {
        "midi": 52,
        "time": 54.5,
        "duration": 0.25,
        "velocity": 0.82,
        "hand": "left"
      },
      {
        "midi": 62,
        "time": 54.5,
        "duration": 0.25,
        "velocity": 0.82,
        "hand": "right"
      },
      {
        "midi": 65,
        "time": 54.5,
        "duration": 0.25,
        "velocity": 0.82,
        "hand": "right"
      },
      {
        "midi": 46,
        "time": 55,
        "duration": 0.25,
        "velocity": 0.86,
        "hand": "left"
      },
      {
        "midi": 62,
        "time": 55,
        "duration": 0.25,
        "velocity": 0.82,
        "hand": "right"
      },
      {
        "midi": 65,
        "time": 55,
        "duration": 0.25,
        "velocity": 0.82,
        "hand": "right"
      },
      {
        "midi": 45,
        "time": 55.5,
        "duration": 0.25,
        "velocity": 0.82,
        "hand": "left"
      },
      {
        "midi": 53,
        "time": 55.5,
        "duration": 0.25,
        "velocity": 0.86,
        "hand": "left"
      },
      {
        "midi": 63,
        "time": 55.5,
        "duration": 0.25,
        "velocity": 0.82,
        "hand": "right"
      },
      {
        "midi": 65,
        "time": 55.5,
        "duration": 0.25,
        "velocity": 0.82,
        "hand": "right"
      },
      {
        "midi": 53,
        "time": 56,
        "duration": 0.25,
        "velocity": 0.86,
        "hand": "left"
      },
      {
        "midi": 60,
        "time": 56,
        "duration": 0.25,
        "velocity": 0.82,
        "hand": "right"
      },
      {
        "midi": 63,
        "time": 56,
        "duration": 0.25,
        "velocity": 0.82,
        "hand": "right"
      },
      {
        "midi": 67,
        "time": 56,
        "duration": 0.25,
        "velocity": 0.82,
        "hand": "right"
      },
      {
        "midi": 38,
        "time": 56.5,
        "duration": 0.25,
        "velocity": 0.82,
        "hand": "left"
      },
      {
        "midi": 45,
        "time": 56.5,
        "duration": 0.25,
        "velocity": 0.82,
        "hand": "left"
      },
      {
        "midi": 60,
        "time": 56.5,
        "duration": 0.25,
        "velocity": 0.86,
        "hand": "right"
      },
      {
        "midi": 63,
        "time": 56.5,
        "duration": 0.25,
        "velocity": 0.82,
        "hand": "right"
      },
      {
        "midi": 69,
        "time": 56.5,
        "duration": 0.25,
        "velocity": 0.82,
        "hand": "right"
      },
      {
        "midi": 46,
        "time": 57,
        "duration": 1,
        "velocity": 0.86,
        "hand": "left"
      },
      {
        "midi": 62,
        "time": 57,
        "duration": 1,
        "velocity": 0.82,
        "hand": "right"
      },
      {
        "midi": 70,
        "time": 57,
        "duration": 1,
        "velocity": 0.82,
        "hand": "right"
      },
      {
        "midi": 52,
        "time": 57.5,
        "duration": 0.25,
        "velocity": 0.82,
        "hand": "left"
      },
      {
        "midi": 45,
        "time": 58,
        "duration": 0.25,
        "velocity": 0.82,
        "hand": "left"
      },
      {
        "midi": 46,
        "time": 58.5,
        "duration": 1,
        "velocity": 0.86,
        "hand": "left"
      },
      {
        "midi": 62,
        "time": 58.5,
        "duration": 0.985,
        "velocity": 0.82,
        "hand": "right"
      },
      {
        "midi": 65,
        "time": 58.5,
        "duration": 1,
        "velocity": 0.82,
        "hand": "right"
      },
      {
        "midi": 52,
        "time": 59,
        "duration": 0.25,
        "velocity": 0.82,
        "hand": "left"
      },
      {
        "midi": 60,
        "time": 59,
        "duration": 0.25,
        "velocity": 0.82,
        "hand": "right"
      },
      {
        "midi": 38,
        "time": 59.5,
        "duration": 0.25,
        "velocity": 0.82,
        "hand": "left"
      },
      {
        "midi": 45,
        "time": 59.5,
        "duration": 0.25,
        "velocity": 0.82,
        "hand": "left"
      },
      {
        "midi": 62,
        "time": 59.5,
        "duration": 0.25,
        "velocity": 0.86,
        "hand": "right"
      },
      {
        "midi": 45,
        "time": 60,
        "duration": 0.25,
        "velocity": 0.82,
        "hand": "left"
      },
      {
        "midi": 53,
        "time": 60,
        "duration": 0.25,
        "velocity": 0.86,
        "hand": "left"
      },
      {
        "midi": 60,
        "time": 60,
        "duration": 0.25,
        "velocity": 0.86,
        "hand": "right"
      },
      {
        "midi": 65,
        "time": 60,
        "duration": 0.25,
        "velocity": 0.82,
        "hand": "right"
      },
      {
        "midi": 69,
        "time": 60,
        "duration": 0.25,
        "velocity": 0.82,
        "hand": "right"
      },
      {
        "midi": 53,
        "time": 60.5,
        "duration": 0.25,
        "velocity": 0.86,
        "hand": "left"
      },
      {
        "midi": 60,
        "time": 60.5,
        "duration": 0.25,
        "velocity": 0.86,
        "hand": "right"
      },
      {
        "midi": 65,
        "time": 60.5,
        "duration": 0.25,
        "velocity": 0.82,
        "hand": "right"
      },
      {
        "midi": 69,
        "time": 60.5,
        "duration": 0.25,
        "velocity": 0.82,
        "hand": "right"
      },
      {
        "midi": 45,
        "time": 61,
        "duration": 0.25,
        "velocity": 0.82,
        "hand": "left"
      },
      {
        "midi": 53,
        "time": 61,
        "duration": 0.25,
        "velocity": 0.86,
        "hand": "left"
      },
      {
        "midi": 60,
        "time": 61,
        "duration": 0.25,
        "velocity": 0.86,
        "hand": "right"
      },
      {
        "midi": 65,
        "time": 61,
        "duration": 0.25,
        "velocity": 0.82,
        "hand": "right"
      },
      {
        "midi": 69,
        "time": 61,
        "duration": 0.25,
        "velocity": 0.82,
        "hand": "right"
      },
      {
        "midi": 45,
        "time": 61.5,
        "duration": 0.25,
        "velocity": 0.82,
        "hand": "left"
      },
      {
        "midi": 53,
        "time": 61.5,
        "duration": 0.25,
        "velocity": 0.86,
        "hand": "left"
      },
      {
        "midi": 60,
        "time": 61.5,
        "duration": 0.25,
        "velocity": 0.86,
        "hand": "right"
      },
      {
        "midi": 63,
        "time": 61.5,
        "duration": 0.25,
        "velocity": 0.82,
        "hand": "right"
      },
      {
        "midi": 69,
        "time": 61.5,
        "duration": 0.25,
        "velocity": 0.82,
        "hand": "right"
      },
      {
        "midi": 53,
        "time": 62,
        "duration": 0.25,
        "velocity": 0.86,
        "hand": "left"
      },
      {
        "midi": 60,
        "time": 62,
        "duration": 0.25,
        "velocity": 0.82,
        "hand": "right"
      },
      {
        "midi": 63,
        "time": 62,
        "duration": 0.25,
        "velocity": 0.82,
        "hand": "right"
      },
      {
        "midi": 70,
        "time": 62,
        "duration": 0.25,
        "velocity": 0.82,
        "hand": "right"
      },
      {
        "midi": 38,
        "time": 62.5,
        "duration": 0.25,
        "velocity": 0.82,
        "hand": "left"
      },
      {
        "midi": 45,
        "time": 62.5,
        "duration": 0.25,
        "velocity": 0.82,
        "hand": "left"
      },
      {
        "midi": 63,
        "time": 62.5,
        "duration": 0.25,
        "velocity": 0.82,
        "hand": "right"
      },
      {
        "midi": 72,
        "time": 62.5,
        "duration": 0.25,
        "velocity": 0.82,
        "hand": "right"
      },
      {
        "midi": 46,
        "time": 63,
        "duration": 1.485,
        "velocity": 0.86,
        "hand": "left"
      },
      {
        "midi": 62,
        "time": 63,
        "duration": 1.485,
        "velocity": 0.82,
        "hand": "right"
      },
      {
        "midi": 70,
        "time": 63,
        "duration": 1.485,
        "velocity": 0.88,
        "hand": "right"
      },
      {
        "midi": 52,
        "time": 63.5,
        "duration": 0.25,
        "velocity": 0.82,
        "hand": "left"
      },
      {
        "midi": 60,
        "time": 63.5,
        "duration": 0.25,
        "velocity": 0.82,
        "hand": "right"
      },
      {
        "midi": 52,
        "time": 64,
        "duration": 0.25,
        "velocity": 0.82,
        "hand": "left"
      },
      {
        "midi": 60,
        "time": 64,
        "duration": 0.25,
        "velocity": 0.82,
        "hand": "right"
      },
      {
        "midi": 46,
        "time": 64.5,
        "duration": 1,
        "velocity": 0.86,
        "hand": "left"
      },
      {
        "midi": 52,
        "time": 64.5,
        "duration": 0.25,
        "velocity": 0.82,
        "hand": "left"
      },
      {
        "midi": 60,
        "time": 64.5,
        "duration": 0.25,
        "velocity": 0.82,
        "hand": "right"
      },
      {
        "midi": 62,
        "time": 64.5,
        "duration": 1,
        "velocity": 0.82,
        "hand": "right"
      },
      {
        "midi": 70,
        "time": 64.5,
        "duration": 1,
        "velocity": 0.82,
        "hand": "right"
      },
      {
        "midi": 48,
        "time": 65,
        "duration": 0.25,
        "velocity": 0.82,
        "hand": "left"
      },
      {
        "midi": 47,
        "time": 65.25,
        "duration": 0.235,
        "velocity": 0.82,
        "hand": "left"
      },
      {
        "midi": 47,
        "time": 65.5,
        "duration": 0.25,
        "velocity": 0.82,
        "hand": "left"
      },
      {
        "midi": 45,
        "time": 65.75,
        "duration": 0.235,
        "velocity": 0.82,
        "hand": "left"
      },
      {
        "midi": 45,
        "time": 66,
        "duration": 0.25,
        "velocity": 0.82,
        "hand": "left"
      },
      {
        "midi": 51,
        "time": 66,
        "duration": 0.25,
        "velocity": 0.86,
        "hand": "left"
      },
      {
        "midi": 63,
        "time": 66,
        "duration": 0.25,
        "velocity": 0.82,
        "hand": "right"
      },
      {
        "midi": 67,
        "time": 66,
        "duration": 0.25,
        "velocity": 0.82,
        "hand": "right"
      },
      {
        "midi": 52,
        "time": 66.5,
        "duration": 0.25,
        "velocity": 0.82,
        "hand": "left"
      },
      {
        "midi": 63,
        "time": 66.5,
        "duration": 0.25,
        "velocity": 0.82,
        "hand": "right"
      },
      {
        "midi": 67,
        "time": 66.5,
        "duration": 0.25,
        "velocity": 0.82,
        "hand": "right"
      },
      {
        "midi": 45,
        "time": 67,
        "duration": 0.25,
        "velocity": 0.82,
        "hand": "left"
      },
      {
        "midi": 51,
        "time": 67,
        "duration": 0.25,
        "velocity": 0.86,
        "hand": "left"
      },
      {
        "midi": 63,
        "time": 67,
        "duration": 0.25,
        "velocity": 0.82,
        "hand": "right"
      },
      {
        "midi": 67,
        "time": 67,
        "duration": 0.25,
        "velocity": 0.82,
        "hand": "right"
      },
      {
        "midi": 45,
        "time": 67.5,
        "duration": 0.25,
        "velocity": 0.82,
        "hand": "left"
      },
      {
        "midi": 51,
        "time": 67.5,
        "duration": 0.25,
        "velocity": 0.86,
        "hand": "left"
      },
      {
        "midi": 67,
        "time": 67.5,
        "duration": 0.25,
        "velocity": 0.82,
        "hand": "right"
      },
      {
        "midi": 70,
        "time": 67.5,
        "duration": 0.25,
        "velocity": 0.82,
        "hand": "right"
      },
      {
        "midi": 52,
        "time": 68,
        "duration": 0.25,
        "velocity": 0.82,
        "hand": "left"
      },
      {
        "midi": 60,
        "time": 68,
        "duration": 0.25,
        "velocity": 0.82,
        "hand": "right"
      },
      {
        "midi": 65,
        "time": 68,
        "duration": 0.25,
        "velocity": 0.82,
        "hand": "right"
      },
      {
        "midi": 69,
        "time": 68,
        "duration": 0.25,
        "velocity": 0.82,
        "hand": "right"
      },
      {
        "midi": 38,
        "time": 68.5,
        "duration": 0.25,
        "velocity": 0.82,
        "hand": "left"
      },
      {
        "midi": 45,
        "time": 68.5,
        "duration": 0.25,
        "velocity": 0.82,
        "hand": "left"
      },
      {
        "midi": 63,
        "time": 68.5,
        "duration": 0.25,
        "velocity": 0.82,
        "hand": "right"
      },
      {
        "midi": 67,
        "time": 68.5,
        "duration": 0.25,
        "velocity": 0.82,
        "hand": "right"
      },
      {
        "midi": 46,
        "time": 69,
        "duration": 1,
        "velocity": 0.86,
        "hand": "left"
      },
      {
        "midi": 62,
        "time": 69,
        "duration": 1,
        "velocity": 0.82,
        "hand": "right"
      },
      {
        "midi": 65,
        "time": 69,
        "duration": 1,
        "velocity": 0.82,
        "hand": "right"
      },
      {
        "midi": 52,
        "time": 69.5,
        "duration": 0.25,
        "velocity": 0.82,
        "hand": "left"
      },
      {
        "midi": 45,
        "time": 70,
        "duration": 0.25,
        "velocity": 0.82,
        "hand": "left"
      },
      {
        "midi": 45,
        "time": 70.5,
        "duration": 0.25,
        "velocity": 0.82,
        "hand": "left"
      },
      {
        "midi": 50,
        "time": 70.5,
        "duration": 1,
        "velocity": 0.86,
        "hand": "left"
      },
      {
        "midi": 65,
        "time": 70.5,
        "duration": 1,
        "velocity": 0.82,
        "hand": "right"
      },
      {
        "midi": 70,
        "time": 70.5,
        "duration": 1,
        "velocity": 0.82,
        "hand": "right"
      },
      {
        "midi": 52,
        "time": 71,
        "duration": 0.25,
        "velocity": 0.82,
        "hand": "left"
      },
      {
        "midi": 60,
        "time": 71,
        "duration": 0.25,
        "velocity": 0.82,
        "hand": "right"
      },
      {
        "midi": 38,
        "time": 71.5,
        "duration": 0.25,
        "velocity": 0.82,
        "hand": "left"
      },
      {
        "midi": 45,
        "time": 71.5,
        "duration": 0.25,
        "velocity": 0.82,
        "hand": "left"
      },
      {
        "midi": 45,
        "time": 72,
        "duration": 0.25,
        "velocity": 0.82,
        "hand": "left"
      },
      {
        "midi": 55,
        "time": 72,
        "duration": 0.25,
        "velocity": 0.86,
        "hand": "left"
      },
      {
        "midi": 62,
        "time": 72,
        "duration": 0.25,
        "velocity": 0.86,
        "hand": "right"
      },
      {
        "midi": 67,
        "time": 72,
        "duration": 0.25,
        "velocity": 0.82,
        "hand": "right"
      },
      {
        "midi": 70,
        "time": 72,
        "duration": 0.25,
        "velocity": 0.82,
        "hand": "right"
      },
      {
        "midi": 52,
        "time": 72.5,
        "duration": 0.25,
        "velocity": 0.82,
        "hand": "left"
      },
      {
        "midi": 55,
        "time": 72.5,
        "duration": 0.25,
        "velocity": 0.86,
        "hand": "left"
      },
      {
        "midi": 62,
        "time": 72.5,
        "duration": 0.25,
        "velocity": 0.86,
        "hand": "right"
      },
      {
        "midi": 67,
        "time": 72.5,
        "duration": 0.25,
        "velocity": 0.82,
        "hand": "right"
      },
      {
        "midi": 70,
        "time": 72.5,
        "duration": 0.25,
        "velocity": 0.82,
        "hand": "right"
      },
      {
        "midi": 45,
        "time": 73,
        "duration": 0.25,
        "velocity": 0.82,
        "hand": "left"
      },
      {
        "midi": 53,
        "time": 73,
        "duration": 0.25,
        "velocity": 0.86,
        "hand": "left"
      },
      {
        "midi": 62,
        "time": 73,
        "duration": 0.25,
        "velocity": 0.86,
        "hand": "right"
      },
      {
        "midi": 67,
        "time": 73,
        "duration": 0.25,
        "velocity": 0.82,
        "hand": "right"
      },
      {
        "midi": 70,
        "time": 73,
        "duration": 0.25,
        "velocity": 0.82,
        "hand": "right"
      },
      {
        "midi": 45,
        "time": 73.5,
        "duration": 0.25,
        "velocity": 0.82,
        "hand": "left"
      },
      {
        "midi": 51,
        "time": 73.5,
        "duration": 0.25,
        "velocity": 0.86,
        "hand": "left"
      },
      {
        "midi": 63,
        "time": 73.5,
        "duration": 0.25,
        "velocity": 0.86,
        "hand": "right"
      },
      {
        "midi": 67,
        "time": 73.5,
        "duration": 0.25,
        "velocity": 0.82,
        "hand": "right"
      },
      {
        "midi": 70,
        "time": 73.5,
        "duration": 0.25,
        "velocity": 0.82,
        "hand": "right"
      },
      {
        "midi": 52,
        "time": 74,
        "duration": 0.25,
        "velocity": 0.82,
        "hand": "left"
      },
      {
        "midi": 60,
        "time": 74,
        "duration": 0.25,
        "velocity": 0.86,
        "hand": "right"
      },
      {
        "midi": 66,
        "time": 74,
        "duration": 0.25,
        "velocity": 0.82,
        "hand": "right"
      },
      {
        "midi": 69,
        "time": 74,
        "duration": 0.25,
        "velocity": 0.82,
        "hand": "right"
      },
      {
        "midi": 38,
        "time": 74.5,
        "duration": 0.25,
        "velocity": 0.82,
        "hand": "left"
      },
      {
        "midi": 45,
        "time": 74.5,
        "duration": 0.25,
        "velocity": 0.82,
        "hand": "left"
      },
      {
        "midi": 67,
        "time": 74.5,
        "duration": 0.25,
        "velocity": 0.82,
        "hand": "right"
      },
      {
        "midi": 70,
        "time": 74.5,
        "duration": 0.25,
        "velocity": 0.82,
        "hand": "right"
      },
      {
        "midi": 45,
        "time": 75,
        "duration": 0.25,
        "velocity": 0.82,
        "hand": "left"
      },
      {
        "midi": 53,
        "time": 75,
        "duration": 1.485,
        "velocity": 0.86,
        "hand": "left"
      },
      {
        "midi": 69,
        "time": 75,
        "duration": 1.485,
        "velocity": 0.82,
        "hand": "right"
      },
      {
        "midi": 72,
        "time": 75,
        "duration": 1.485,
        "velocity": 0.88,
        "hand": "right"
      },
      {
        "midi": 52,
        "time": 75.5,
        "duration": 0.25,
        "velocity": 0.82,
        "hand": "left"
      },
      {
        "midi": 60,
        "time": 75.5,
        "duration": 0.25,
        "velocity": 0.82,
        "hand": "right"
      },
      {
        "midi": 52,
        "time": 76,
        "duration": 0.25,
        "velocity": 0.82,
        "hand": "left"
      },
      {
        "midi": 60,
        "time": 76,
        "duration": 0.25,
        "velocity": 0.82,
        "hand": "right"
      },
      {
        "midi": 53,
        "time": 76.5,
        "duration": 1,
        "velocity": 0.86,
        "hand": "left"
      },
      {
        "midi": 60,
        "time": 76.5,
        "duration": 0.25,
        "velocity": 0.82,
        "hand": "right"
      },
      {
        "midi": 63,
        "time": 76.5,
        "duration": 1,
        "velocity": 0.86,
        "hand": "right"
      },
      {
        "midi": 69,
        "time": 76.5,
        "duration": 1,
        "velocity": 0.82,
        "hand": "right"
      },
      {
        "midi": 72,
        "time": 76.5,
        "duration": 1,
        "velocity": 0.82,
        "hand": "right"
      },
      {
        "midi": 48,
        "time": 77,
        "duration": 0.25,
        "velocity": 0.82,
        "hand": "left"
      },
      {
        "midi": 47,
        "time": 77.25,
        "duration": 0.235,
        "velocity": 0.82,
        "hand": "left"
      },
      {
        "midi": 47,
        "time": 77.5,
        "duration": 0.25,
        "velocity": 0.82,
        "hand": "left"
      },
      {
        "midi": 45,
        "time": 77.75,
        "duration": 0.235,
        "velocity": 0.82,
        "hand": "left"
      },
      {
        "midi": 46,
        "time": 78,
        "duration": 0.75,
        "velocity": 0.86,
        "hand": "left"
      },
      {
        "midi": 62,
        "time": 78,
        "duration": 0.75,
        "velocity": 0.86,
        "hand": "right"
      },
      {
        "midi": 70,
        "time": 78,
        "duration": 0.75,
        "velocity": 0.82,
        "hand": "right"
      },
      {
        "midi": 74,
        "time": 78,
        "duration": 1.485,
        "velocity": 0.88,
        "hand": "right"
      },
      {
        "midi": 52,
        "time": 78.5,
        "duration": 0.25,
        "velocity": 0.82,
        "hand": "left"
      },
      {
        "midi": 58,
        "time": 78.5,
        "duration": 0.25,
        "velocity": 0.86,
        "hand": "left"
      },
      {
        "midi": 65,
        "time": 78.5,
        "duration": 0.25,
        "velocity": 0.82,
        "hand": "right"
      },
      {
        "midi": 46,
        "time": 79,
        "duration": 0.25,
        "velocity": 0.86,
        "hand": "left"
      },
      {
        "midi": 65,
        "time": 79,
        "duration": 0.25,
        "velocity": 0.82,
        "hand": "right"
      },
      {
        "midi": 46,
        "time": 79.5,
        "duration": 0.25,
        "velocity": 0.86,
        "hand": "left"
      },
      {
        "midi": 74,
        "time": 79.5,
        "duration": 0.25,
        "velocity": 0.82,
        "hand": "right"
      },
      {
        "midi": 46,
        "time": 80,
        "duration": 0.25,
        "velocity": 0.86,
        "hand": "left"
      },
      {
        "midi": 52,
        "time": 80,
        "duration": 0.25,
        "velocity": 0.82,
        "hand": "left"
      },
      {
        "midi": 60,
        "time": 80,
        "duration": 0.25,
        "velocity": 0.82,
        "hand": "right"
      },
      {
        "midi": 64,
        "time": 80,
        "duration": 0.25,
        "velocity": 0.82,
        "hand": "right"
      },
      {
        "midi": 73,
        "time": 80,
        "duration": 0.25,
        "velocity": 0.82,
        "hand": "right"
      },
      {
        "midi": 38,
        "time": 80.5,
        "duration": 0.25,
        "velocity": 0.82,
        "hand": "left"
      },
      {
        "midi": 45,
        "time": 80.5,
        "duration": 0.25,
        "velocity": 0.82,
        "hand": "left"
      },
      {
        "midi": 65,
        "time": 80.5,
        "duration": 0.25,
        "velocity": 0.82,
        "hand": "right"
      },
      {
        "midi": 74,
        "time": 80.5,
        "duration": 0.25,
        "velocity": 0.82,
        "hand": "right"
      },
      {
        "midi": 46,
        "time": 81,
        "duration": 1,
        "velocity": 0.86,
        "hand": "left"
      },
      {
        "midi": 62,
        "time": 81,
        "duration": 1,
        "velocity": 0.82,
        "hand": "right"
      },
      {
        "midi": 70,
        "time": 81,
        "duration": 1,
        "velocity": 0.82,
        "hand": "right"
      },
      {
        "midi": 52,
        "time": 81.5,
        "duration": 0.25,
        "velocity": 0.82,
        "hand": "left"
      },
      {
        "midi": 45,
        "time": 82,
        "duration": 0.25,
        "velocity": 0.82,
        "hand": "left"
      },
      {
        "midi": 46,
        "time": 82.5,
        "duration": 1,
        "velocity": 0.86,
        "hand": "left"
      },
      {
        "midi": 62,
        "time": 82.5,
        "duration": 1,
        "velocity": 0.82,
        "hand": "right"
      },
      {
        "midi": 65,
        "time": 82.5,
        "duration": 1,
        "velocity": 0.82,
        "hand": "right"
      },
      {
        "midi": 52,
        "time": 83,
        "duration": 0.25,
        "velocity": 0.82,
        "hand": "left"
      },
      {
        "midi": 60,
        "time": 83,
        "duration": 0.25,
        "velocity": 0.82,
        "hand": "right"
      },
      {
        "midi": 38,
        "time": 83.5,
        "duration": 0.25,
        "velocity": 0.82,
        "hand": "left"
      },
      {
        "midi": 45,
        "time": 83.5,
        "duration": 0.25,
        "velocity": 0.82,
        "hand": "left"
      },
      {
        "midi": 46,
        "time": 84,
        "duration": 0.25,
        "velocity": 0.86,
        "hand": "left"
      },
      {
        "midi": 65,
        "time": 84,
        "duration": 0.25,
        "velocity": 0.82,
        "hand": "right"
      },
      {
        "midi": 74,
        "time": 84,
        "duration": 0.25,
        "velocity": 0.82,
        "hand": "right"
      },
      {
        "midi": 46,
        "time": 84.5,
        "duration": 0.25,
        "velocity": 0.86,
        "hand": "left"
      },
      {
        "midi": 52,
        "time": 84.5,
        "duration": 0.25,
        "velocity": 0.82,
        "hand": "left"
      },
      {
        "midi": 63,
        "time": 84.5,
        "duration": 0.25,
        "velocity": 0.82,
        "hand": "right"
      },
      {
        "midi": 72,
        "time": 84.5,
        "duration": 0.25,
        "velocity": 0.82,
        "hand": "right"
      },
      {
        "midi": 46,
        "time": 85,
        "duration": 0.25,
        "velocity": 0.86,
        "hand": "left"
      },
      {
        "midi": 62,
        "time": 85,
        "duration": 0.25,
        "velocity": 0.82,
        "hand": "right"
      },
      {
        "midi": 70,
        "time": 85,
        "duration": 0.25,
        "velocity": 0.82,
        "hand": "right"
      },
      {
        "midi": 45,
        "time": 85.5,
        "duration": 0.25,
        "velocity": 0.82,
        "hand": "left"
      },
      {
        "midi": 50,
        "time": 85.5,
        "duration": 0.25,
        "velocity": 0.86,
        "hand": "left"
      },
      {
        "midi": 65,
        "time": 85.5,
        "duration": 0.25,
        "velocity": 0.82,
        "hand": "right"
      },
      {
        "midi": 70,
        "time": 85.5,
        "duration": 0.25,
        "velocity": 0.82,
        "hand": "right"
      },
      {
        "midi": 48,
        "time": 86,
        "duration": 0.25,
        "velocity": 0.86,
        "hand": "left"
      },
      {
        "midi": 52,
        "time": 86,
        "duration": 0.25,
        "velocity": 0.82,
        "hand": "left"
      },
      {
        "midi": 60,
        "time": 86,
        "duration": 0.25,
        "velocity": 0.82,
        "hand": "right"
      },
      {
        "midi": 63,
        "time": 86,
        "duration": 0.25,
        "velocity": 0.82,
        "hand": "right"
      },
      {
        "midi": 69,
        "time": 86,
        "duration": 0.25,
        "velocity": 0.82,
        "hand": "right"
      },
      {
        "midi": 38,
        "time": 86.5,
        "duration": 0.25,
        "velocity": 0.82,
        "hand": "left"
      },
      {
        "midi": 45,
        "time": 86.5,
        "duration": 0.25,
        "velocity": 0.82,
        "hand": "left"
      },
      {
        "midi": 62,
        "time": 86.5,
        "duration": 0.25,
        "velocity": 0.82,
        "hand": "right"
      },
      {
        "midi": 70,
        "time": 86.5,
        "duration": 0.25,
        "velocity": 0.82,
        "hand": "right"
      },
      {
        "midi": 45,
        "time": 87,
        "duration": 0.25,
        "velocity": 0.82,
        "hand": "left"
      },
      {
        "midi": 53,
        "time": 87,
        "duration": 1.485,
        "velocity": 0.86,
        "hand": "left"
      },
      {
        "midi": 65,
        "time": 87,
        "duration": 1.485,
        "velocity": 0.82,
        "hand": "right"
      },
      {
        "midi": 72,
        "time": 87,
        "duration": 1.485,
        "velocity": 0.88,
        "hand": "right"
      },
      {
        "midi": 52,
        "time": 87.5,
        "duration": 0.25,
        "velocity": 0.82,
        "hand": "left"
      },
      {
        "midi": 60,
        "time": 87.5,
        "duration": 0.25,
        "velocity": 0.82,
        "hand": "right"
      },
      {
        "midi": 52,
        "time": 88,
        "duration": 0.25,
        "velocity": 0.82,
        "hand": "left"
      },
      {
        "midi": 60,
        "time": 88,
        "duration": 0.25,
        "velocity": 0.82,
        "hand": "right"
      },
      {
        "midi": 53,
        "time": 88.5,
        "duration": 1,
        "velocity": 0.86,
        "hand": "left"
      },
      {
        "midi": 60,
        "time": 88.5,
        "duration": 0.25,
        "velocity": 0.82,
        "hand": "right"
      },
      {
        "midi": 65,
        "time": 88.5,
        "duration": 1,
        "velocity": 0.82,
        "hand": "right"
      },
      {
        "midi": 72,
        "time": 88.5,
        "duration": 1,
        "velocity": 0.82,
        "hand": "right"
      },
      {
        "midi": 48,
        "time": 89,
        "duration": 0.25,
        "velocity": 0.82,
        "hand": "left"
      },
      {
        "midi": 47,
        "time": 89.25,
        "duration": 0.235,
        "velocity": 0.82,
        "hand": "left"
      },
      {
        "midi": 47,
        "time": 89.5,
        "duration": 0.25,
        "velocity": 0.82,
        "hand": "left"
      },
      {
        "midi": 45,
        "time": 89.75,
        "duration": 0.235,
        "velocity": 0.82,
        "hand": "left"
      },
      {
        "midi": 46,
        "time": 90,
        "duration": 0.25,
        "velocity": 0.86,
        "hand": "left"
      },
      {
        "midi": 65,
        "time": 90,
        "duration": 0.25,
        "velocity": 0.82,
        "hand": "right"
      },
      {
        "midi": 74,
        "time": 90,
        "duration": 0.25,
        "velocity": 0.82,
        "hand": "right"
      },
      {
        "midi": 46,
        "time": 90.5,
        "duration": 0.25,
        "velocity": 0.86,
        "hand": "left"
      },
      {
        "midi": 52,
        "time": 90.5,
        "duration": 0.25,
        "velocity": 0.82,
        "hand": "left"
      },
      {
        "midi": 65,
        "time": 90.5,
        "duration": 0.25,
        "velocity": 0.82,
        "hand": "right"
      },
      {
        "midi": 74,
        "time": 90.5,
        "duration": 0.25,
        "velocity": 0.82,
        "hand": "right"
      },
      {
        "midi": 46,
        "time": 91,
        "duration": 0.25,
        "velocity": 0.86,
        "hand": "left"
      },
      {
        "midi": 65,
        "time": 91,
        "duration": 0.25,
        "velocity": 0.82,
        "hand": "right"
      },
      {
        "midi": 74,
        "time": 91,
        "duration": 0.25,
        "velocity": 0.82,
        "hand": "right"
      },
      {
        "midi": 45,
        "time": 91.5,
        "duration": 0.25,
        "velocity": 0.82,
        "hand": "left"
      },
      {
        "midi": 51,
        "time": 91.5,
        "duration": 0.25,
        "velocity": 0.86,
        "hand": "left"
      },
      {
        "midi": 63,
        "time": 91.5,
        "duration": 0.25,
        "velocity": 0.82,
        "hand": "right"
      },
      {
        "midi": 72,
        "time": 91.5,
        "duration": 0.25,
        "velocity": 0.82,
        "hand": "right"
      },
      {
        "midi": 52,
        "time": 92,
        "duration": 0.25,
        "velocity": 0.82,
        "hand": "left"
      },
      {
        "midi": 60,
        "time": 92,
        "duration": 0.25,
        "velocity": 0.82,
        "hand": "right"
      },
      {
        "midi": 63,
        "time": 92,
        "duration": 0.25,
        "velocity": 0.82,
        "hand": "right"
      },
      {
        "midi": 70,
        "time": 92,
        "duration": 0.25,
        "velocity": 0.82,
        "hand": "right"
      },
      {
        "midi": 38,
        "time": 92.5,
        "duration": 0.25,
        "velocity": 0.82,
        "hand": "left"
      },
      {
        "midi": 45,
        "time": 92.5,
        "duration": 0.25,
        "velocity": 0.82,
        "hand": "left"
      },
      {
        "midi": 63,
        "time": 92.5,
        "duration": 0.25,
        "velocity": 0.82,
        "hand": "right"
      },
      {
        "midi": 67,
        "time": 92.5,
        "duration": 0.25,
        "velocity": 0.82,
        "hand": "right"
      },
      {
        "midi": 46,
        "time": 93,
        "duration": 1,
        "velocity": 0.86,
        "hand": "left"
      },
      {
        "midi": 62,
        "time": 93,
        "duration": 1,
        "velocity": 0.82,
        "hand": "right"
      },
      {
        "midi": 65,
        "time": 93,
        "duration": 1,
        "velocity": 0.82,
        "hand": "right"
      },
      {
        "midi": 52,
        "time": 93.5,
        "duration": 0.25,
        "velocity": 0.82,
        "hand": "left"
      },
      {
        "midi": 45,
        "time": 94,
        "duration": 0.25,
        "velocity": 0.82,
        "hand": "left"
      },
      {
        "midi": 46,
        "time": 94.5,
        "duration": 1,
        "velocity": 0.86,
        "hand": "left"
      },
      {
        "midi": 62,
        "time": 94.5,
        "duration": 0.985,
        "velocity": 0.82,
        "hand": "right"
      },
      {
        "midi": 70,
        "time": 94.5,
        "duration": 1,
        "velocity": 0.82,
        "hand": "right"
      },
      {
        "midi": 52,
        "time": 95,
        "duration": 0.25,
        "velocity": 0.82,
        "hand": "left"
      },
      {
        "midi": 58,
        "time": 95,
        "duration": 0.75,
        "velocity": 0.86,
        "hand": "left"
      },
      {
        "midi": 60,
        "time": 95,
        "duration": 0.25,
        "velocity": 0.82,
        "hand": "right"
      },
      {
        "midi": 38,
        "time": 95.5,
        "duration": 0.25,
        "velocity": 0.82,
        "hand": "left"
      },
      {
        "midi": 45,
        "time": 95.5,
        "duration": 0.25,
        "velocity": 0.82,
        "hand": "left"
      },
      {
        "midi": 62,
        "time": 95.5,
        "duration": 0.25,
        "velocity": 0.86,
        "hand": "right"
      },
      {
        "midi": 65,
        "time": 95.5,
        "duration": 0.25,
        "velocity": 0.82,
        "hand": "right"
      },
      {
        "midi": 45,
        "time": 96,
        "duration": 0.25,
        "velocity": 0.82,
        "hand": "left"
      },
      {
        "midi": 53,
        "time": 96,
        "duration": 0.25,
        "velocity": 0.86,
        "hand": "left"
      },
      {
        "midi": 60,
        "time": 96,
        "duration": 0.25,
        "velocity": 0.86,
        "hand": "right"
      },
      {
        "midi": 63,
        "time": 96,
        "duration": 0.25,
        "velocity": 0.82,
        "hand": "right"
      },
      {
        "midi": 69,
        "time": 96,
        "duration": 0.25,
        "velocity": 0.82,
        "hand": "right"
      },
      {
        "midi": 53,
        "time": 96.5,
        "duration": 0.25,
        "velocity": 0.86,
        "hand": "left"
      },
      {
        "midi": 60,
        "time": 96.5,
        "duration": 0.25,
        "velocity": 0.86,
        "hand": "right"
      },
      {
        "midi": 63,
        "time": 96.5,
        "duration": 0.25,
        "velocity": 0.82,
        "hand": "right"
      },
      {
        "midi": 69,
        "time": 96.5,
        "duration": 0.25,
        "velocity": 0.82,
        "hand": "right"
      },
      {
        "midi": 45,
        "time": 97,
        "duration": 0.25,
        "velocity": 0.82,
        "hand": "left"
      },
      {
        "midi": 53,
        "time": 97,
        "duration": 0.25,
        "velocity": 0.86,
        "hand": "left"
      },
      {
        "midi": 60,
        "time": 97,
        "duration": 0.25,
        "velocity": 0.86,
        "hand": "right"
      },
      {
        "midi": 63,
        "time": 97,
        "duration": 0.25,
        "velocity": 0.82,
        "hand": "right"
      },
      {
        "midi": 69,
        "time": 97,
        "duration": 0.25,
        "velocity": 0.82,
        "hand": "right"
      },
      {
        "midi": 45,
        "time": 97.5,
        "duration": 0.25,
        "velocity": 0.82,
        "hand": "left"
      },
      {
        "midi": 53,
        "time": 97.5,
        "duration": 0.25,
        "velocity": 0.86,
        "hand": "left"
      },
      {
        "midi": 60,
        "time": 97.5,
        "duration": 0.25,
        "velocity": 0.86,
        "hand": "right"
      },
      {
        "midi": 63,
        "time": 97.5,
        "duration": 0.25,
        "velocity": 0.82,
        "hand": "right"
      },
      {
        "midi": 69,
        "time": 97.5,
        "duration": 0.25,
        "velocity": 0.82,
        "hand": "right"
      },
      {
        "midi": 53,
        "time": 98,
        "duration": 0.25,
        "velocity": 0.86,
        "hand": "left"
      },
      {
        "midi": 60,
        "time": 98,
        "duration": 0.25,
        "velocity": 0.82,
        "hand": "right"
      },
      {
        "midi": 63,
        "time": 98,
        "duration": 0.25,
        "velocity": 0.82,
        "hand": "right"
      },
      {
        "midi": 70,
        "time": 98,
        "duration": 0.25,
        "velocity": 0.82,
        "hand": "right"
      },
      {
        "midi": 38,
        "time": 98.5,
        "duration": 0.25,
        "velocity": 0.82,
        "hand": "left"
      },
      {
        "midi": 45,
        "time": 98.5,
        "duration": 0.25,
        "velocity": 0.82,
        "hand": "left"
      },
      {
        "midi": 63,
        "time": 98.5,
        "duration": 0.25,
        "velocity": 0.82,
        "hand": "right"
      },
      {
        "midi": 72,
        "time": 98.5,
        "duration": 0.25,
        "velocity": 0.82,
        "hand": "right"
      },
      {
        "midi": 46,
        "time": 99,
        "duration": 1.485,
        "velocity": 0.86,
        "hand": "left"
      },
      {
        "midi": 62,
        "time": 99,
        "duration": 1.485,
        "velocity": 0.82,
        "hand": "right"
      },
      {
        "midi": 70,
        "time": 99,
        "duration": 1.485,
        "velocity": 0.88,
        "hand": "right"
      },
      {
        "midi": 52,
        "time": 99.5,
        "duration": 0.25,
        "velocity": 0.82,
        "hand": "left"
      },
      {
        "midi": 60,
        "time": 99.5,
        "duration": 0.25,
        "velocity": 0.82,
        "hand": "right"
      },
      {
        "midi": 52,
        "time": 100,
        "duration": 0.25,
        "velocity": 0.82,
        "hand": "left"
      },
      {
        "midi": 60,
        "time": 100,
        "duration": 0.25,
        "velocity": 0.82,
        "hand": "right"
      },
      {
        "midi": 46,
        "time": 100.5,
        "duration": 1,
        "velocity": 0.86,
        "hand": "left"
      },
      {
        "midi": 52,
        "time": 100.5,
        "duration": 0.25,
        "velocity": 0.82,
        "hand": "left"
      },
      {
        "midi": 60,
        "time": 100.5,
        "duration": 0.25,
        "velocity": 0.82,
        "hand": "right"
      },
      {
        "midi": 62,
        "time": 100.5,
        "duration": 1,
        "velocity": 0.82,
        "hand": "right"
      },
      {
        "midi": 70,
        "time": 100.5,
        "duration": 1,
        "velocity": 0.82,
        "hand": "right"
      },
      {
        "midi": 48,
        "time": 101,
        "duration": 0.25,
        "velocity": 0.82,
        "hand": "left"
      },
      {
        "midi": 47,
        "time": 101.25,
        "duration": 0.235,
        "velocity": 0.82,
        "hand": "left"
      },
      {
        "midi": 47,
        "time": 101.5,
        "duration": 0.25,
        "velocity": 0.82,
        "hand": "left"
      },
      {
        "midi": 45,
        "time": 101.75,
        "duration": 0.235,
        "velocity": 0.82,
        "hand": "left"
      },
      {
        "midi": 46,
        "time": 102,
        "duration": 0.25,
        "velocity": 0.86,
        "hand": "left"
      },
      {
        "midi": 62,
        "time": 102,
        "duration": 0.25,
        "velocity": 0.82,
        "hand": "right"
      },
      {
        "midi": 65,
        "time": 102,
        "duration": 0.25,
        "velocity": 0.82,
        "hand": "right"
      },
      {
        "midi": 46,
        "time": 102.5,
        "duration": 0.25,
        "velocity": 0.86,
        "hand": "left"
      },
      {
        "midi": 52,
        "time": 102.5,
        "duration": 0.25,
        "velocity": 0.82,
        "hand": "left"
      },
      {
        "midi": 62,
        "time": 102.5,
        "duration": 0.25,
        "velocity": 0.82,
        "hand": "right"
      },
      {
        "midi": 65,
        "time": 102.5,
        "duration": 0.25,
        "velocity": 0.82,
        "hand": "right"
      },
      {
        "midi": 46,
        "time": 103,
        "duration": 0.25,
        "velocity": 0.86,
        "hand": "left"
      },
      {
        "midi": 62,
        "time": 103,
        "duration": 0.25,
        "velocity": 0.82,
        "hand": "right"
      },
      {
        "midi": 65,
        "time": 103,
        "duration": 0.25,
        "velocity": 0.82,
        "hand": "right"
      },
      {
        "midi": 45,
        "time": 103.5,
        "duration": 0.25,
        "velocity": 0.82,
        "hand": "left"
      },
      {
        "midi": 53,
        "time": 103.5,
        "duration": 0.25,
        "velocity": 0.86,
        "hand": "left"
      },
      {
        "midi": 63,
        "time": 103.5,
        "duration": 0.25,
        "velocity": 0.82,
        "hand": "right"
      },
      {
        "midi": 65,
        "time": 103.5,
        "duration": 0.25,
        "velocity": 0.82,
        "hand": "right"
      },
      {
        "midi": 53,
        "time": 104,
        "duration": 0.25,
        "velocity": 0.86,
        "hand": "left"
      },
      {
        "midi": 60,
        "time": 104,
        "duration": 0.25,
        "velocity": 0.82,
        "hand": "right"
      },
      {
        "midi": 63,
        "time": 104,
        "duration": 0.25,
        "velocity": 0.82,
        "hand": "right"
      },
      {
        "midi": 67,
        "time": 104,
        "duration": 0.25,
        "velocity": 0.82,
        "hand": "right"
      },
      {
        "midi": 38,
        "time": 104.5,
        "duration": 0.25,
        "velocity": 0.82,
        "hand": "left"
      },
      {
        "midi": 45,
        "time": 104.5,
        "duration": 0.25,
        "velocity": 0.82,
        "hand": "left"
      },
      {
        "midi": 60,
        "time": 104.5,
        "duration": 0.25,
        "velocity": 0.86,
        "hand": "right"
      },
      {
        "midi": 63,
        "time": 104.5,
        "duration": 0.25,
        "velocity": 0.82,
        "hand": "right"
      },
      {
        "midi": 69,
        "time": 104.5,
        "duration": 0.25,
        "velocity": 0.82,
        "hand": "right"
      },
      {
        "midi": 46,
        "time": 105,
        "duration": 1,
        "velocity": 0.86,
        "hand": "left"
      },
      {
        "midi": 62,
        "time": 105,
        "duration": 1,
        "velocity": 0.82,
        "hand": "right"
      },
      {
        "midi": 70,
        "time": 105,
        "duration": 1,
        "velocity": 0.82,
        "hand": "right"
      },
      {
        "midi": 52,
        "time": 105.5,
        "duration": 0.25,
        "velocity": 0.82,
        "hand": "left"
      },
      {
        "midi": 45,
        "time": 106,
        "duration": 0.25,
        "velocity": 0.82,
        "hand": "left"
      },
      {
        "midi": 46,
        "time": 106.5,
        "duration": 1,
        "velocity": 0.86,
        "hand": "left"
      },
      {
        "midi": 62,
        "time": 106.5,
        "duration": 0.985,
        "velocity": 0.82,
        "hand": "right"
      },
      {
        "midi": 65,
        "time": 106.5,
        "duration": 1,
        "velocity": 0.82,
        "hand": "right"
      },
      {
        "midi": 52,
        "time": 107,
        "duration": 0.25,
        "velocity": 0.82,
        "hand": "left"
      },
      {
        "midi": 60,
        "time": 107,
        "duration": 0.25,
        "velocity": 0.82,
        "hand": "right"
      },
      {
        "midi": 38,
        "time": 107.5,
        "duration": 0.25,
        "velocity": 0.82,
        "hand": "left"
      },
      {
        "midi": 45,
        "time": 107.5,
        "duration": 0.25,
        "velocity": 0.82,
        "hand": "left"
      },
      {
        "midi": 62,
        "time": 107.5,
        "duration": 0.25,
        "velocity": 0.86,
        "hand": "right"
      },
      {
        "midi": 45,
        "time": 108,
        "duration": 0.25,
        "velocity": 0.82,
        "hand": "left"
      },
      {
        "midi": 53,
        "time": 108,
        "duration": 0.25,
        "velocity": 0.86,
        "hand": "left"
      },
      {
        "midi": 60,
        "time": 108,
        "duration": 0.25,
        "velocity": 0.86,
        "hand": "right"
      },
      {
        "midi": 65,
        "time": 108,
        "duration": 0.25,
        "velocity": 0.82,
        "hand": "right"
      },
      {
        "midi": 69,
        "time": 108,
        "duration": 0.25,
        "velocity": 0.82,
        "hand": "right"
      },
      {
        "midi": 53,
        "time": 108.5,
        "duration": 0.25,
        "velocity": 0.86,
        "hand": "left"
      },
      {
        "midi": 60,
        "time": 108.5,
        "duration": 0.25,
        "velocity": 0.86,
        "hand": "right"
      },
      {
        "midi": 65,
        "time": 108.5,
        "duration": 0.25,
        "velocity": 0.82,
        "hand": "right"
      },
      {
        "midi": 69,
        "time": 108.5,
        "duration": 0.25,
        "velocity": 0.82,
        "hand": "right"
      },
      {
        "midi": 45,
        "time": 109,
        "duration": 0.25,
        "velocity": 0.82,
        "hand": "left"
      },
      {
        "midi": 53,
        "time": 109,
        "duration": 0.25,
        "velocity": 0.86,
        "hand": "left"
      },
      {
        "midi": 60,
        "time": 109,
        "duration": 0.25,
        "velocity": 0.86,
        "hand": "right"
      },
      {
        "midi": 65,
        "time": 109,
        "duration": 0.25,
        "velocity": 0.82,
        "hand": "right"
      },
      {
        "midi": 69,
        "time": 109,
        "duration": 0.25,
        "velocity": 0.82,
        "hand": "right"
      },
      {
        "midi": 45,
        "time": 109.5,
        "duration": 0.25,
        "velocity": 0.82,
        "hand": "left"
      },
      {
        "midi": 53,
        "time": 109.5,
        "duration": 0.25,
        "velocity": 0.86,
        "hand": "left"
      },
      {
        "midi": 60,
        "time": 109.5,
        "duration": 0.25,
        "velocity": 0.86,
        "hand": "right"
      },
      {
        "midi": 63,
        "time": 109.5,
        "duration": 0.25,
        "velocity": 0.82,
        "hand": "right"
      },
      {
        "midi": 69,
        "time": 109.5,
        "duration": 0.25,
        "velocity": 0.82,
        "hand": "right"
      },
      {
        "midi": 53,
        "time": 110,
        "duration": 0.25,
        "velocity": 0.86,
        "hand": "left"
      },
      {
        "midi": 60,
        "time": 110,
        "duration": 0.25,
        "velocity": 0.82,
        "hand": "right"
      },
      {
        "midi": 63,
        "time": 110,
        "duration": 0.25,
        "velocity": 0.82,
        "hand": "right"
      },
      {
        "midi": 70,
        "time": 110,
        "duration": 0.25,
        "velocity": 0.82,
        "hand": "right"
      },
      {
        "midi": 38,
        "time": 110.5,
        "duration": 0.25,
        "velocity": 0.82,
        "hand": "left"
      },
      {
        "midi": 45,
        "time": 110.5,
        "duration": 0.25,
        "velocity": 0.82,
        "hand": "left"
      },
      {
        "midi": 63,
        "time": 110.5,
        "duration": 0.25,
        "velocity": 0.82,
        "hand": "right"
      },
      {
        "midi": 72,
        "time": 110.5,
        "duration": 0.25,
        "velocity": 0.82,
        "hand": "right"
      },
      {
        "midi": 46,
        "time": 111,
        "duration": 1.485,
        "velocity": 0.86,
        "hand": "left"
      },
      {
        "midi": 62,
        "time": 111,
        "duration": 1.485,
        "velocity": 0.82,
        "hand": "right"
      },
      {
        "midi": 70,
        "time": 111,
        "duration": 1.485,
        "velocity": 0.88,
        "hand": "right"
      },
      {
        "midi": 52,
        "time": 111.5,
        "duration": 0.25,
        "velocity": 0.82,
        "hand": "left"
      },
      {
        "midi": 60,
        "time": 111.5,
        "duration": 0.25,
        "velocity": 0.82,
        "hand": "right"
      },
      {
        "midi": 52,
        "time": 112,
        "duration": 0.25,
        "velocity": 0.82,
        "hand": "left"
      },
      {
        "midi": 60,
        "time": 112,
        "duration": 0.25,
        "velocity": 0.82,
        "hand": "right"
      },
      {
        "midi": 46,
        "time": 112.5,
        "duration": 1,
        "velocity": 0.86,
        "hand": "left"
      },
      {
        "midi": 52,
        "time": 112.5,
        "duration": 0.25,
        "velocity": 0.82,
        "hand": "left"
      },
      {
        "midi": 60,
        "time": 112.5,
        "duration": 0.25,
        "velocity": 0.82,
        "hand": "right"
      },
      {
        "midi": 62,
        "time": 112.5,
        "duration": 1,
        "velocity": 0.82,
        "hand": "right"
      },
      {
        "midi": 70,
        "time": 112.5,
        "duration": 1,
        "velocity": 0.82,
        "hand": "right"
      },
      {
        "midi": 48,
        "time": 113,
        "duration": 0.25,
        "velocity": 0.82,
        "hand": "left"
      },
      {
        "midi": 47,
        "time": 113.25,
        "duration": 0.235,
        "velocity": 0.82,
        "hand": "left"
      },
      {
        "midi": 47,
        "time": 113.5,
        "duration": 0.25,
        "velocity": 0.82,
        "hand": "left"
      },
      {
        "midi": 45,
        "time": 113.75,
        "duration": 0.235,
        "velocity": 0.82,
        "hand": "left"
      },
      {
        "midi": 45,
        "time": 114,
        "duration": 0.25,
        "velocity": 0.82,
        "hand": "left"
      },
      {
        "midi": 51,
        "time": 114,
        "duration": 0.25,
        "velocity": 0.86,
        "hand": "left"
      },
      {
        "midi": 63,
        "time": 114,
        "duration": 0.25,
        "velocity": 0.82,
        "hand": "right"
      },
      {
        "midi": 67,
        "time": 114,
        "duration": 0.25,
        "velocity": 0.82,
        "hand": "right"
      },
      {
        "midi": 52,
        "time": 114.5,
        "duration": 0.25,
        "velocity": 0.82,
        "hand": "left"
      },
      {
        "midi": 63,
        "time": 114.5,
        "duration": 0.25,
        "velocity": 0.82,
        "hand": "right"
      },
      {
        "midi": 67,
        "time": 114.5,
        "duration": 0.25,
        "velocity": 0.82,
        "hand": "right"
      },
      {
        "midi": 45,
        "time": 115,
        "duration": 0.25,
        "velocity": 0.82,
        "hand": "left"
      },
      {
        "midi": 51,
        "time": 115,
        "duration": 0.25,
        "velocity": 0.86,
        "hand": "left"
      },
      {
        "midi": 63,
        "time": 115,
        "duration": 0.25,
        "velocity": 0.82,
        "hand": "right"
      },
      {
        "midi": 67,
        "time": 115,
        "duration": 0.25,
        "velocity": 0.82,
        "hand": "right"
      },
      {
        "midi": 45,
        "time": 115.5,
        "duration": 0.25,
        "velocity": 0.82,
        "hand": "left"
      },
      {
        "midi": 51,
        "time": 115.5,
        "duration": 0.25,
        "velocity": 0.86,
        "hand": "left"
      },
      {
        "midi": 67,
        "time": 115.5,
        "duration": 0.25,
        "velocity": 0.82,
        "hand": "right"
      },
      {
        "midi": 70,
        "time": 115.5,
        "duration": 0.25,
        "velocity": 0.82,
        "hand": "right"
      },
      {
        "midi": 52,
        "time": 116,
        "duration": 0.25,
        "velocity": 0.82,
        "hand": "left"
      },
      {
        "midi": 60,
        "time": 116,
        "duration": 0.25,
        "velocity": 0.82,
        "hand": "right"
      },
      {
        "midi": 65,
        "time": 116,
        "duration": 0.25,
        "velocity": 0.82,
        "hand": "right"
      },
      {
        "midi": 69,
        "time": 116,
        "duration": 0.25,
        "velocity": 0.82,
        "hand": "right"
      },
      {
        "midi": 38,
        "time": 116.5,
        "duration": 0.25,
        "velocity": 0.82,
        "hand": "left"
      },
      {
        "midi": 45,
        "time": 116.5,
        "duration": 0.25,
        "velocity": 0.82,
        "hand": "left"
      },
      {
        "midi": 63,
        "time": 116.5,
        "duration": 0.25,
        "velocity": 0.82,
        "hand": "right"
      },
      {
        "midi": 67,
        "time": 116.5,
        "duration": 0.25,
        "velocity": 0.82,
        "hand": "right"
      },
      {
        "midi": 46,
        "time": 117,
        "duration": 1,
        "velocity": 0.86,
        "hand": "left"
      },
      {
        "midi": 62,
        "time": 117,
        "duration": 1,
        "velocity": 0.82,
        "hand": "right"
      },
      {
        "midi": 65,
        "time": 117,
        "duration": 1,
        "velocity": 0.82,
        "hand": "right"
      },
      {
        "midi": 52,
        "time": 117.5,
        "duration": 0.25,
        "velocity": 0.82,
        "hand": "left"
      },
      {
        "midi": 45,
        "time": 118,
        "duration": 0.25,
        "velocity": 0.82,
        "hand": "left"
      },
      {
        "midi": 45,
        "time": 118.5,
        "duration": 0.25,
        "velocity": 0.82,
        "hand": "left"
      },
      {
        "midi": 50,
        "time": 118.5,
        "duration": 1,
        "velocity": 0.86,
        "hand": "left"
      },
      {
        "midi": 65,
        "time": 118.5,
        "duration": 1,
        "velocity": 0.82,
        "hand": "right"
      },
      {
        "midi": 70,
        "time": 118.5,
        "duration": 1,
        "velocity": 0.82,
        "hand": "right"
      },
      {
        "midi": 52,
        "time": 119,
        "duration": 0.25,
        "velocity": 0.82,
        "hand": "left"
      },
      {
        "midi": 60,
        "time": 119,
        "duration": 0.25,
        "velocity": 0.82,
        "hand": "right"
      },
      {
        "midi": 38,
        "time": 119.5,
        "duration": 0.25,
        "velocity": 0.82,
        "hand": "left"
      },
      {
        "midi": 45,
        "time": 119.5,
        "duration": 0.25,
        "velocity": 0.82,
        "hand": "left"
      },
      {
        "midi": 45,
        "time": 120,
        "duration": 0.25,
        "velocity": 0.82,
        "hand": "left"
      },
      {
        "midi": 55,
        "time": 120,
        "duration": 0.25,
        "velocity": 0.86,
        "hand": "left"
      },
      {
        "midi": 62,
        "time": 120,
        "duration": 0.25,
        "velocity": 0.86,
        "hand": "right"
      },
      {
        "midi": 67,
        "time": 120,
        "duration": 0.25,
        "velocity": 0.82,
        "hand": "right"
      },
      {
        "midi": 70,
        "time": 120,
        "duration": 0.25,
        "velocity": 0.82,
        "hand": "right"
      },
      {
        "midi": 52,
        "time": 120.5,
        "duration": 0.25,
        "velocity": 0.82,
        "hand": "left"
      },
      {
        "midi": 55,
        "time": 120.5,
        "duration": 0.25,
        "velocity": 0.86,
        "hand": "left"
      },
      {
        "midi": 62,
        "time": 120.5,
        "duration": 0.25,
        "velocity": 0.86,
        "hand": "right"
      },
      {
        "midi": 67,
        "time": 120.5,
        "duration": 0.25,
        "velocity": 0.82,
        "hand": "right"
      },
      {
        "midi": 70,
        "time": 120.5,
        "duration": 0.25,
        "velocity": 0.82,
        "hand": "right"
      },
      {
        "midi": 45,
        "time": 121,
        "duration": 0.25,
        "velocity": 0.82,
        "hand": "left"
      },
      {
        "midi": 53,
        "time": 121,
        "duration": 0.25,
        "velocity": 0.86,
        "hand": "left"
      },
      {
        "midi": 62,
        "time": 121,
        "duration": 0.25,
        "velocity": 0.86,
        "hand": "right"
      },
      {
        "midi": 67,
        "time": 121,
        "duration": 0.25,
        "velocity": 0.82,
        "hand": "right"
      },
      {
        "midi": 70,
        "time": 121,
        "duration": 0.25,
        "velocity": 0.82,
        "hand": "right"
      },
      {
        "midi": 45,
        "time": 121.5,
        "duration": 0.25,
        "velocity": 0.82,
        "hand": "left"
      },
      {
        "midi": 51,
        "time": 121.5,
        "duration": 0.25,
        "velocity": 0.86,
        "hand": "left"
      },
      {
        "midi": 63,
        "time": 121.5,
        "duration": 0.25,
        "velocity": 0.86,
        "hand": "right"
      },
      {
        "midi": 67,
        "time": 121.5,
        "duration": 0.25,
        "velocity": 0.82,
        "hand": "right"
      },
      {
        "midi": 70,
        "time": 121.5,
        "duration": 0.25,
        "velocity": 0.82,
        "hand": "right"
      },
      {
        "midi": 52,
        "time": 122,
        "duration": 0.25,
        "velocity": 0.82,
        "hand": "left"
      },
      {
        "midi": 60,
        "time": 122,
        "duration": 0.25,
        "velocity": 0.86,
        "hand": "right"
      },
      {
        "midi": 66,
        "time": 122,
        "duration": 0.25,
        "velocity": 0.82,
        "hand": "right"
      },
      {
        "midi": 69,
        "time": 122,
        "duration": 0.25,
        "velocity": 0.82,
        "hand": "right"
      },
      {
        "midi": 38,
        "time": 122.5,
        "duration": 0.25,
        "velocity": 0.82,
        "hand": "left"
      },
      {
        "midi": 45,
        "time": 122.5,
        "duration": 0.25,
        "velocity": 0.82,
        "hand": "left"
      },
      {
        "midi": 67,
        "time": 122.5,
        "duration": 0.25,
        "velocity": 0.82,
        "hand": "right"
      },
      {
        "midi": 70,
        "time": 122.5,
        "duration": 0.25,
        "velocity": 0.82,
        "hand": "right"
      },
      {
        "midi": 45,
        "time": 123,
        "duration": 0.25,
        "velocity": 0.82,
        "hand": "left"
      },
      {
        "midi": 53,
        "time": 123,
        "duration": 1.485,
        "velocity": 0.86,
        "hand": "left"
      },
      {
        "midi": 69,
        "time": 123,
        "duration": 1.485,
        "velocity": 0.82,
        "hand": "right"
      },
      {
        "midi": 72,
        "time": 123,
        "duration": 1.485,
        "velocity": 0.88,
        "hand": "right"
      },
      {
        "midi": 52,
        "time": 123.5,
        "duration": 0.25,
        "velocity": 0.82,
        "hand": "left"
      },
      {
        "midi": 60,
        "time": 123.5,
        "duration": 0.25,
        "velocity": 0.82,
        "hand": "right"
      },
      {
        "midi": 52,
        "time": 124,
        "duration": 0.25,
        "velocity": 0.82,
        "hand": "left"
      },
      {
        "midi": 60,
        "time": 124,
        "duration": 0.25,
        "velocity": 0.82,
        "hand": "right"
      },
      {
        "midi": 53,
        "time": 124.5,
        "duration": 1,
        "velocity": 0.86,
        "hand": "left"
      },
      {
        "midi": 60,
        "time": 124.5,
        "duration": 0.25,
        "velocity": 0.82,
        "hand": "right"
      },
      {
        "midi": 63,
        "time": 124.5,
        "duration": 1,
        "velocity": 0.86,
        "hand": "right"
      },
      {
        "midi": 69,
        "time": 124.5,
        "duration": 1,
        "velocity": 0.82,
        "hand": "right"
      },
      {
        "midi": 72,
        "time": 124.5,
        "duration": 1,
        "velocity": 0.82,
        "hand": "right"
      },
      {
        "midi": 48,
        "time": 125,
        "duration": 0.25,
        "velocity": 0.82,
        "hand": "left"
      },
      {
        "midi": 47,
        "time": 125.25,
        "duration": 0.235,
        "velocity": 0.82,
        "hand": "left"
      },
      {
        "midi": 47,
        "time": 125.5,
        "duration": 0.25,
        "velocity": 0.82,
        "hand": "left"
      },
      {
        "midi": 45,
        "time": 125.75,
        "duration": 0.235,
        "velocity": 0.82,
        "hand": "left"
      },
      {
        "midi": 46,
        "time": 126,
        "duration": 0.75,
        "velocity": 0.86,
        "hand": "left"
      },
      {
        "midi": 62,
        "time": 126,
        "duration": 0.75,
        "velocity": 0.86,
        "hand": "right"
      },
      {
        "midi": 70,
        "time": 126,
        "duration": 0.75,
        "velocity": 0.82,
        "hand": "right"
      },
      {
        "midi": 74,
        "time": 126,
        "duration": 1.485,
        "velocity": 0.88,
        "hand": "right"
      },
      {
        "midi": 52,
        "time": 126.5,
        "duration": 0.25,
        "velocity": 0.82,
        "hand": "left"
      },
      {
        "midi": 58,
        "time": 126.5,
        "duration": 0.25,
        "velocity": 0.86,
        "hand": "left"
      },
      {
        "midi": 65,
        "time": 126.5,
        "duration": 0.25,
        "velocity": 0.82,
        "hand": "right"
      },
      {
        "midi": 46,
        "time": 127,
        "duration": 0.25,
        "velocity": 0.86,
        "hand": "left"
      },
      {
        "midi": 65,
        "time": 127,
        "duration": 0.25,
        "velocity": 0.82,
        "hand": "right"
      },
      {
        "midi": 46,
        "time": 127.5,
        "duration": 0.25,
        "velocity": 0.86,
        "hand": "left"
      },
      {
        "midi": 74,
        "time": 127.5,
        "duration": 0.25,
        "velocity": 0.82,
        "hand": "right"
      },
      {
        "midi": 46,
        "time": 128,
        "duration": 0.25,
        "velocity": 0.86,
        "hand": "left"
      },
      {
        "midi": 52,
        "time": 128,
        "duration": 0.25,
        "velocity": 0.82,
        "hand": "left"
      },
      {
        "midi": 60,
        "time": 128,
        "duration": 0.25,
        "velocity": 0.82,
        "hand": "right"
      },
      {
        "midi": 64,
        "time": 128,
        "duration": 0.25,
        "velocity": 0.82,
        "hand": "right"
      },
      {
        "midi": 73,
        "time": 128,
        "duration": 0.25,
        "velocity": 0.82,
        "hand": "right"
      },
      {
        "midi": 38,
        "time": 128.5,
        "duration": 0.25,
        "velocity": 0.82,
        "hand": "left"
      },
      {
        "midi": 45,
        "time": 128.5,
        "duration": 0.25,
        "velocity": 0.82,
        "hand": "left"
      },
      {
        "midi": 65,
        "time": 128.5,
        "duration": 0.25,
        "velocity": 0.82,
        "hand": "right"
      },
      {
        "midi": 74,
        "time": 128.5,
        "duration": 0.25,
        "velocity": 0.82,
        "hand": "right"
      },
      {
        "midi": 46,
        "time": 129,
        "duration": 1,
        "velocity": 0.86,
        "hand": "left"
      },
      {
        "midi": 62,
        "time": 129,
        "duration": 1,
        "velocity": 0.82,
        "hand": "right"
      },
      {
        "midi": 70,
        "time": 129,
        "duration": 1,
        "velocity": 0.82,
        "hand": "right"
      },
      {
        "midi": 52,
        "time": 129.5,
        "duration": 0.25,
        "velocity": 0.82,
        "hand": "left"
      },
      {
        "midi": 45,
        "time": 130,
        "duration": 0.25,
        "velocity": 0.82,
        "hand": "left"
      },
      {
        "midi": 46,
        "time": 130.5,
        "duration": 1,
        "velocity": 0.86,
        "hand": "left"
      },
      {
        "midi": 62,
        "time": 130.5,
        "duration": 1,
        "velocity": 0.82,
        "hand": "right"
      },
      {
        "midi": 65,
        "time": 130.5,
        "duration": 1,
        "velocity": 0.82,
        "hand": "right"
      },
      {
        "midi": 52,
        "time": 131,
        "duration": 0.25,
        "velocity": 0.82,
        "hand": "left"
      },
      {
        "midi": 60,
        "time": 131,
        "duration": 0.25,
        "velocity": 0.82,
        "hand": "right"
      },
      {
        "midi": 38,
        "time": 131.5,
        "duration": 0.25,
        "velocity": 0.82,
        "hand": "left"
      },
      {
        "midi": 45,
        "time": 131.5,
        "duration": 0.25,
        "velocity": 0.82,
        "hand": "left"
      },
      {
        "midi": 46,
        "time": 132,
        "duration": 0.25,
        "velocity": 0.86,
        "hand": "left"
      },
      {
        "midi": 65,
        "time": 132,
        "duration": 0.25,
        "velocity": 0.82,
        "hand": "right"
      },
      {
        "midi": 74,
        "time": 132,
        "duration": 0.25,
        "velocity": 0.82,
        "hand": "right"
      },
      {
        "midi": 46,
        "time": 132.5,
        "duration": 0.25,
        "velocity": 0.86,
        "hand": "left"
      },
      {
        "midi": 52,
        "time": 132.5,
        "duration": 0.25,
        "velocity": 0.82,
        "hand": "left"
      },
      {
        "midi": 63,
        "time": 132.5,
        "duration": 0.25,
        "velocity": 0.82,
        "hand": "right"
      },
      {
        "midi": 72,
        "time": 132.5,
        "duration": 0.25,
        "velocity": 0.82,
        "hand": "right"
      },
      {
        "midi": 46,
        "time": 133,
        "duration": 0.25,
        "velocity": 0.86,
        "hand": "left"
      },
      {
        "midi": 62,
        "time": 133,
        "duration": 0.25,
        "velocity": 0.82,
        "hand": "right"
      },
      {
        "midi": 70,
        "time": 133,
        "duration": 0.25,
        "velocity": 0.82,
        "hand": "right"
      },
      {
        "midi": 45,
        "time": 133.5,
        "duration": 0.25,
        "velocity": 0.82,
        "hand": "left"
      },
      {
        "midi": 50,
        "time": 133.5,
        "duration": 0.25,
        "velocity": 0.86,
        "hand": "left"
      },
      {
        "midi": 65,
        "time": 133.5,
        "duration": 0.25,
        "velocity": 0.82,
        "hand": "right"
      },
      {
        "midi": 70,
        "time": 133.5,
        "duration": 0.25,
        "velocity": 0.82,
        "hand": "right"
      },
      {
        "midi": 48,
        "time": 134,
        "duration": 0.25,
        "velocity": 0.86,
        "hand": "left"
      },
      {
        "midi": 52,
        "time": 134,
        "duration": 0.25,
        "velocity": 0.82,
        "hand": "left"
      },
      {
        "midi": 60,
        "time": 134,
        "duration": 0.25,
        "velocity": 0.82,
        "hand": "right"
      },
      {
        "midi": 63,
        "time": 134,
        "duration": 0.25,
        "velocity": 0.82,
        "hand": "right"
      },
      {
        "midi": 69,
        "time": 134,
        "duration": 0.25,
        "velocity": 0.82,
        "hand": "right"
      },
      {
        "midi": 38,
        "time": 134.5,
        "duration": 0.25,
        "velocity": 0.82,
        "hand": "left"
      },
      {
        "midi": 45,
        "time": 134.5,
        "duration": 0.25,
        "velocity": 0.82,
        "hand": "left"
      },
      {
        "midi": 62,
        "time": 134.5,
        "duration": 0.25,
        "velocity": 0.82,
        "hand": "right"
      },
      {
        "midi": 70,
        "time": 134.5,
        "duration": 0.25,
        "velocity": 0.82,
        "hand": "right"
      },
      {
        "midi": 45,
        "time": 135,
        "duration": 0.25,
        "velocity": 0.82,
        "hand": "left"
      },
      {
        "midi": 53,
        "time": 135,
        "duration": 1.485,
        "velocity": 0.86,
        "hand": "left"
      },
      {
        "midi": 65,
        "time": 135,
        "duration": 1.485,
        "velocity": 0.82,
        "hand": "right"
      },
      {
        "midi": 72,
        "time": 135,
        "duration": 1.485,
        "velocity": 0.88,
        "hand": "right"
      },
      {
        "midi": 52,
        "time": 135.5,
        "duration": 0.25,
        "velocity": 0.82,
        "hand": "left"
      },
      {
        "midi": 60,
        "time": 135.5,
        "duration": 0.25,
        "velocity": 0.82,
        "hand": "right"
      },
      {
        "midi": 52,
        "time": 136,
        "duration": 0.25,
        "velocity": 0.82,
        "hand": "left"
      },
      {
        "midi": 60,
        "time": 136,
        "duration": 0.25,
        "velocity": 0.82,
        "hand": "right"
      },
      {
        "midi": 53,
        "time": 136.5,
        "duration": 1,
        "velocity": 0.86,
        "hand": "left"
      },
      {
        "midi": 60,
        "time": 136.5,
        "duration": 0.25,
        "velocity": 0.82,
        "hand": "right"
      },
      {
        "midi": 65,
        "time": 136.5,
        "duration": 1,
        "velocity": 0.82,
        "hand": "right"
      },
      {
        "midi": 72,
        "time": 136.5,
        "duration": 1,
        "velocity": 0.82,
        "hand": "right"
      },
      {
        "midi": 48,
        "time": 137,
        "duration": 0.25,
        "velocity": 0.82,
        "hand": "left"
      },
      {
        "midi": 47,
        "time": 137.25,
        "duration": 0.235,
        "velocity": 0.82,
        "hand": "left"
      },
      {
        "midi": 47,
        "time": 137.5,
        "duration": 0.25,
        "velocity": 0.82,
        "hand": "left"
      },
      {
        "midi": 45,
        "time": 137.75,
        "duration": 0.235,
        "velocity": 0.82,
        "hand": "left"
      },
      {
        "midi": 46,
        "time": 138,
        "duration": 0.25,
        "velocity": 0.86,
        "hand": "left"
      },
      {
        "midi": 65,
        "time": 138,
        "duration": 0.25,
        "velocity": 0.82,
        "hand": "right"
      },
      {
        "midi": 74,
        "time": 138,
        "duration": 0.25,
        "velocity": 0.82,
        "hand": "right"
      },
      {
        "midi": 46,
        "time": 138.5,
        "duration": 0.25,
        "velocity": 0.86,
        "hand": "left"
      },
      {
        "midi": 52,
        "time": 138.5,
        "duration": 0.25,
        "velocity": 0.82,
        "hand": "left"
      },
      {
        "midi": 65,
        "time": 138.5,
        "duration": 0.25,
        "velocity": 0.82,
        "hand": "right"
      },
      {
        "midi": 74,
        "time": 138.5,
        "duration": 0.25,
        "velocity": 0.82,
        "hand": "right"
      },
      {
        "midi": 46,
        "time": 139,
        "duration": 0.25,
        "velocity": 0.86,
        "hand": "left"
      },
      {
        "midi": 65,
        "time": 139,
        "duration": 0.25,
        "velocity": 0.82,
        "hand": "right"
      },
      {
        "midi": 74,
        "time": 139,
        "duration": 0.25,
        "velocity": 0.82,
        "hand": "right"
      },
      {
        "midi": 45,
        "time": 139.5,
        "duration": 0.25,
        "velocity": 0.82,
        "hand": "left"
      },
      {
        "midi": 51,
        "time": 139.5,
        "duration": 0.25,
        "velocity": 0.86,
        "hand": "left"
      },
      {
        "midi": 63,
        "time": 139.5,
        "duration": 0.25,
        "velocity": 0.82,
        "hand": "right"
      },
      {
        "midi": 72,
        "time": 139.5,
        "duration": 0.25,
        "velocity": 0.82,
        "hand": "right"
      },
      {
        "midi": 52,
        "time": 140,
        "duration": 0.25,
        "velocity": 0.82,
        "hand": "left"
      },
      {
        "midi": 60,
        "time": 140,
        "duration": 0.25,
        "velocity": 0.82,
        "hand": "right"
      },
      {
        "midi": 63,
        "time": 140,
        "duration": 0.25,
        "velocity": 0.82,
        "hand": "right"
      },
      {
        "midi": 70,
        "time": 140,
        "duration": 0.25,
        "velocity": 0.82,
        "hand": "right"
      },
      {
        "midi": 38,
        "time": 140.5,
        "duration": 0.25,
        "velocity": 0.82,
        "hand": "left"
      },
      {
        "midi": 45,
        "time": 140.5,
        "duration": 0.25,
        "velocity": 0.82,
        "hand": "left"
      },
      {
        "midi": 63,
        "time": 140.5,
        "duration": 0.25,
        "velocity": 0.82,
        "hand": "right"
      },
      {
        "midi": 67,
        "time": 140.5,
        "duration": 0.25,
        "velocity": 0.82,
        "hand": "right"
      },
      {
        "midi": 46,
        "time": 141,
        "duration": 1,
        "velocity": 0.86,
        "hand": "left"
      },
      {
        "midi": 62,
        "time": 141,
        "duration": 1,
        "velocity": 0.82,
        "hand": "right"
      },
      {
        "midi": 65,
        "time": 141,
        "duration": 1,
        "velocity": 0.82,
        "hand": "right"
      },
      {
        "midi": 52,
        "time": 141.5,
        "duration": 0.25,
        "velocity": 0.82,
        "hand": "left"
      },
      {
        "midi": 45,
        "time": 142,
        "duration": 0.25,
        "velocity": 0.82,
        "hand": "left"
      },
      {
        "midi": 46,
        "time": 142.5,
        "duration": 1,
        "velocity": 0.86,
        "hand": "left"
      },
      {
        "midi": 62,
        "time": 142.5,
        "duration": 0.985,
        "velocity": 0.82,
        "hand": "right"
      },
      {
        "midi": 70,
        "time": 142.5,
        "duration": 1,
        "velocity": 0.82,
        "hand": "right"
      },
      {
        "midi": 52,
        "time": 143,
        "duration": 0.25,
        "velocity": 0.82,
        "hand": "left"
      },
      {
        "midi": 58,
        "time": 143,
        "duration": 0.75,
        "velocity": 0.86,
        "hand": "left"
      },
      {
        "midi": 60,
        "time": 143,
        "duration": 0.25,
        "velocity": 0.82,
        "hand": "right"
      },
      {
        "midi": 38,
        "time": 143.5,
        "duration": 0.25,
        "velocity": 0.82,
        "hand": "left"
      },
      {
        "midi": 45,
        "time": 143.5,
        "duration": 0.25,
        "velocity": 0.82,
        "hand": "left"
      },
      {
        "midi": 62,
        "time": 143.5,
        "duration": 0.25,
        "velocity": 0.86,
        "hand": "right"
      },
      {
        "midi": 65,
        "time": 143.5,
        "duration": 0.25,
        "velocity": 0.82,
        "hand": "right"
      },
      {
        "midi": 45,
        "time": 144,
        "duration": 0.25,
        "velocity": 0.82,
        "hand": "left"
      },
      {
        "midi": 53,
        "time": 144,
        "duration": 0.25,
        "velocity": 0.86,
        "hand": "left"
      },
      {
        "midi": 60,
        "time": 144,
        "duration": 0.25,
        "velocity": 0.86,
        "hand": "right"
      },
      {
        "midi": 63,
        "time": 144,
        "duration": 0.25,
        "velocity": 0.82,
        "hand": "right"
      },
      {
        "midi": 69,
        "time": 144,
        "duration": 0.25,
        "velocity": 0.82,
        "hand": "right"
      },
      {
        "midi": 53,
        "time": 144.5,
        "duration": 0.25,
        "velocity": 0.86,
        "hand": "left"
      },
      {
        "midi": 60,
        "time": 144.5,
        "duration": 0.25,
        "velocity": 0.86,
        "hand": "right"
      },
      {
        "midi": 63,
        "time": 144.5,
        "duration": 0.25,
        "velocity": 0.82,
        "hand": "right"
      },
      {
        "midi": 69,
        "time": 144.5,
        "duration": 0.25,
        "velocity": 0.82,
        "hand": "right"
      },
      {
        "midi": 45,
        "time": 145,
        "duration": 0.25,
        "velocity": 0.82,
        "hand": "left"
      },
      {
        "midi": 53,
        "time": 145,
        "duration": 0.25,
        "velocity": 0.86,
        "hand": "left"
      },
      {
        "midi": 60,
        "time": 145,
        "duration": 0.25,
        "velocity": 0.86,
        "hand": "right"
      },
      {
        "midi": 63,
        "time": 145,
        "duration": 0.25,
        "velocity": 0.82,
        "hand": "right"
      },
      {
        "midi": 69,
        "time": 145,
        "duration": 0.25,
        "velocity": 0.82,
        "hand": "right"
      },
      {
        "midi": 45,
        "time": 145.5,
        "duration": 0.25,
        "velocity": 0.82,
        "hand": "left"
      },
      {
        "midi": 53,
        "time": 145.5,
        "duration": 0.25,
        "velocity": 0.86,
        "hand": "left"
      },
      {
        "midi": 60,
        "time": 145.5,
        "duration": 0.25,
        "velocity": 0.86,
        "hand": "right"
      },
      {
        "midi": 63,
        "time": 145.5,
        "duration": 0.25,
        "velocity": 0.82,
        "hand": "right"
      },
      {
        "midi": 69,
        "time": 145.5,
        "duration": 0.25,
        "velocity": 0.82,
        "hand": "right"
      },
      {
        "midi": 53,
        "time": 146,
        "duration": 0.25,
        "velocity": 0.86,
        "hand": "left"
      },
      {
        "midi": 60,
        "time": 146,
        "duration": 0.25,
        "velocity": 0.82,
        "hand": "right"
      },
      {
        "midi": 63,
        "time": 146,
        "duration": 0.25,
        "velocity": 0.82,
        "hand": "right"
      },
      {
        "midi": 70,
        "time": 146,
        "duration": 0.25,
        "velocity": 0.82,
        "hand": "right"
      },
      {
        "midi": 38,
        "time": 146.5,
        "duration": 0.25,
        "velocity": 0.82,
        "hand": "left"
      },
      {
        "midi": 45,
        "time": 146.5,
        "duration": 0.25,
        "velocity": 0.82,
        "hand": "left"
      },
      {
        "midi": 63,
        "time": 146.5,
        "duration": 0.25,
        "velocity": 0.82,
        "hand": "right"
      },
      {
        "midi": 72,
        "time": 146.5,
        "duration": 0.25,
        "velocity": 0.82,
        "hand": "right"
      },
      {
        "midi": 46,
        "time": 147,
        "duration": 1.485,
        "velocity": 0.86,
        "hand": "left"
      },
      {
        "midi": 62,
        "time": 147,
        "duration": 1.485,
        "velocity": 0.82,
        "hand": "right"
      },
      {
        "midi": 70,
        "time": 147,
        "duration": 1.485,
        "velocity": 0.88,
        "hand": "right"
      },
      {
        "midi": 52,
        "time": 147.5,
        "duration": 0.25,
        "velocity": 0.82,
        "hand": "left"
      },
      {
        "midi": 60,
        "time": 147.5,
        "duration": 0.25,
        "velocity": 0.82,
        "hand": "right"
      },
      {
        "midi": 52,
        "time": 148,
        "duration": 0.25,
        "velocity": 0.82,
        "hand": "left"
      },
      {
        "midi": 60,
        "time": 148,
        "duration": 0.25,
        "velocity": 0.82,
        "hand": "right"
      },
      {
        "midi": 46,
        "time": 148.5,
        "duration": 1,
        "velocity": 0.86,
        "hand": "left"
      },
      {
        "midi": 52,
        "time": 148.5,
        "duration": 0.25,
        "velocity": 0.82,
        "hand": "left"
      },
      {
        "midi": 60,
        "time": 148.5,
        "duration": 0.25,
        "velocity": 0.82,
        "hand": "right"
      },
      {
        "midi": 62,
        "time": 148.5,
        "duration": 1,
        "velocity": 0.82,
        "hand": "right"
      },
      {
        "midi": 70,
        "time": 148.5,
        "duration": 1,
        "velocity": 0.82,
        "hand": "right"
      },
      {
        "midi": 48,
        "time": 149,
        "duration": 0.25,
        "velocity": 0.82,
        "hand": "left"
      },
      {
        "midi": 47,
        "time": 149.25,
        "duration": 0.235,
        "velocity": 0.82,
        "hand": "left"
      },
      {
        "midi": 47,
        "time": 149.5,
        "duration": 0.25,
        "velocity": 0.82,
        "hand": "left"
      },
      {
        "midi": 45,
        "time": 149.75,
        "duration": 0.235,
        "velocity": 0.82,
        "hand": "left"
      },
      {
        "midi": 46,
        "time": 150,
        "duration": 0.25,
        "velocity": 0.86,
        "hand": "left"
      },
      {
        "midi": 62,
        "time": 150,
        "duration": 0.25,
        "velocity": 0.82,
        "hand": "right"
      },
      {
        "midi": 65,
        "time": 150,
        "duration": 0.25,
        "velocity": 0.82,
        "hand": "right"
      },
      {
        "midi": 46,
        "time": 150.5,
        "duration": 0.25,
        "velocity": 0.86,
        "hand": "left"
      },
      {
        "midi": 52,
        "time": 150.5,
        "duration": 0.25,
        "velocity": 0.82,
        "hand": "left"
      },
      {
        "midi": 62,
        "time": 150.5,
        "duration": 0.25,
        "velocity": 0.82,
        "hand": "right"
      },
      {
        "midi": 65,
        "time": 150.5,
        "duration": 0.25,
        "velocity": 0.82,
        "hand": "right"
      },
      {
        "midi": 46,
        "time": 151,
        "duration": 0.25,
        "velocity": 0.86,
        "hand": "left"
      },
      {
        "midi": 62,
        "time": 151,
        "duration": 0.25,
        "velocity": 0.82,
        "hand": "right"
      },
      {
        "midi": 65,
        "time": 151,
        "duration": 0.25,
        "velocity": 0.82,
        "hand": "right"
      },
      {
        "midi": 45,
        "time": 151.5,
        "duration": 0.25,
        "velocity": 0.82,
        "hand": "left"
      },
      {
        "midi": 53,
        "time": 151.5,
        "duration": 0.25,
        "velocity": 0.86,
        "hand": "left"
      },
      {
        "midi": 63,
        "time": 151.5,
        "duration": 0.25,
        "velocity": 0.82,
        "hand": "right"
      },
      {
        "midi": 65,
        "time": 151.5,
        "duration": 0.25,
        "velocity": 0.82,
        "hand": "right"
      },
      {
        "midi": 53,
        "time": 152,
        "duration": 0.25,
        "velocity": 0.86,
        "hand": "left"
      },
      {
        "midi": 60,
        "time": 152,
        "duration": 0.25,
        "velocity": 0.82,
        "hand": "right"
      },
      {
        "midi": 63,
        "time": 152,
        "duration": 0.25,
        "velocity": 0.82,
        "hand": "right"
      },
      {
        "midi": 67,
        "time": 152,
        "duration": 0.25,
        "velocity": 0.82,
        "hand": "right"
      },
      {
        "midi": 38,
        "time": 152.5,
        "duration": 0.25,
        "velocity": 0.82,
        "hand": "left"
      },
      {
        "midi": 45,
        "time": 152.5,
        "duration": 0.25,
        "velocity": 0.82,
        "hand": "left"
      },
      {
        "midi": 60,
        "time": 152.5,
        "duration": 0.25,
        "velocity": 0.86,
        "hand": "right"
      },
      {
        "midi": 63,
        "time": 152.5,
        "duration": 0.25,
        "velocity": 0.82,
        "hand": "right"
      },
      {
        "midi": 69,
        "time": 152.5,
        "duration": 0.25,
        "velocity": 0.82,
        "hand": "right"
      },
      {
        "midi": 46,
        "time": 153,
        "duration": 1,
        "velocity": 0.86,
        "hand": "left"
      },
      {
        "midi": 62,
        "time": 153,
        "duration": 1,
        "velocity": 0.82,
        "hand": "right"
      },
      {
        "midi": 70,
        "time": 153,
        "duration": 1,
        "velocity": 0.82,
        "hand": "right"
      },
      {
        "midi": 52,
        "time": 153.5,
        "duration": 0.25,
        "velocity": 0.82,
        "hand": "left"
      },
      {
        "midi": 45,
        "time": 154,
        "duration": 0.25,
        "velocity": 0.82,
        "hand": "left"
      },
      {
        "midi": 46,
        "time": 154.5,
        "duration": 1,
        "velocity": 0.86,
        "hand": "left"
      },
      {
        "midi": 62,
        "time": 154.5,
        "duration": 0.985,
        "velocity": 0.82,
        "hand": "right"
      },
      {
        "midi": 65,
        "time": 154.5,
        "duration": 1,
        "velocity": 0.82,
        "hand": "right"
      },
      {
        "midi": 52,
        "time": 155,
        "duration": 0.25,
        "velocity": 0.82,
        "hand": "left"
      },
      {
        "midi": 60,
        "time": 155,
        "duration": 0.25,
        "velocity": 0.82,
        "hand": "right"
      },
      {
        "midi": 38,
        "time": 155.5,
        "duration": 0.25,
        "velocity": 0.82,
        "hand": "left"
      },
      {
        "midi": 45,
        "time": 155.5,
        "duration": 0.25,
        "velocity": 0.82,
        "hand": "left"
      },
      {
        "midi": 62,
        "time": 155.5,
        "duration": 0.25,
        "velocity": 0.86,
        "hand": "right"
      },
      {
        "midi": 45,
        "time": 156,
        "duration": 0.25,
        "velocity": 0.82,
        "hand": "left"
      },
      {
        "midi": 53,
        "time": 156,
        "duration": 0.25,
        "velocity": 0.86,
        "hand": "left"
      },
      {
        "midi": 60,
        "time": 156,
        "duration": 0.25,
        "velocity": 0.86,
        "hand": "right"
      },
      {
        "midi": 65,
        "time": 156,
        "duration": 0.25,
        "velocity": 0.82,
        "hand": "right"
      },
      {
        "midi": 69,
        "time": 156,
        "duration": 0.25,
        "velocity": 0.82,
        "hand": "right"
      },
      {
        "midi": 53,
        "time": 156.5,
        "duration": 0.25,
        "velocity": 0.86,
        "hand": "left"
      },
      {
        "midi": 60,
        "time": 156.5,
        "duration": 0.25,
        "velocity": 0.86,
        "hand": "right"
      },
      {
        "midi": 65,
        "time": 156.5,
        "duration": 0.25,
        "velocity": 0.82,
        "hand": "right"
      },
      {
        "midi": 69,
        "time": 156.5,
        "duration": 0.25,
        "velocity": 0.82,
        "hand": "right"
      },
      {
        "midi": 45,
        "time": 157,
        "duration": 0.25,
        "velocity": 0.82,
        "hand": "left"
      },
      {
        "midi": 53,
        "time": 157,
        "duration": 0.25,
        "velocity": 0.86,
        "hand": "left"
      },
      {
        "midi": 60,
        "time": 157,
        "duration": 0.25,
        "velocity": 0.86,
        "hand": "right"
      },
      {
        "midi": 65,
        "time": 157,
        "duration": 0.25,
        "velocity": 0.82,
        "hand": "right"
      },
      {
        "midi": 69,
        "time": 157,
        "duration": 0.25,
        "velocity": 0.82,
        "hand": "right"
      },
      {
        "midi": 45,
        "time": 157.5,
        "duration": 0.25,
        "velocity": 0.82,
        "hand": "left"
      },
      {
        "midi": 53,
        "time": 157.5,
        "duration": 0.25,
        "velocity": 0.86,
        "hand": "left"
      },
      {
        "midi": 60,
        "time": 157.5,
        "duration": 0.25,
        "velocity": 0.86,
        "hand": "right"
      },
      {
        "midi": 63,
        "time": 157.5,
        "duration": 0.25,
        "velocity": 0.82,
        "hand": "right"
      },
      {
        "midi": 69,
        "time": 157.5,
        "duration": 0.25,
        "velocity": 0.82,
        "hand": "right"
      },
      {
        "midi": 53,
        "time": 158,
        "duration": 0.25,
        "velocity": 0.86,
        "hand": "left"
      },
      {
        "midi": 60,
        "time": 158,
        "duration": 0.25,
        "velocity": 0.82,
        "hand": "right"
      },
      {
        "midi": 63,
        "time": 158,
        "duration": 0.25,
        "velocity": 0.82,
        "hand": "right"
      },
      {
        "midi": 70,
        "time": 158,
        "duration": 0.25,
        "velocity": 0.82,
        "hand": "right"
      },
      {
        "midi": 38,
        "time": 158.5,
        "duration": 0.25,
        "velocity": 0.82,
        "hand": "left"
      },
      {
        "midi": 45,
        "time": 158.5,
        "duration": 0.25,
        "velocity": 0.82,
        "hand": "left"
      },
      {
        "midi": 63,
        "time": 158.5,
        "duration": 0.25,
        "velocity": 0.82,
        "hand": "right"
      },
      {
        "midi": 72,
        "time": 158.5,
        "duration": 0.25,
        "velocity": 0.82,
        "hand": "right"
      },
      {
        "midi": 46,
        "time": 159,
        "duration": 1.485,
        "velocity": 0.86,
        "hand": "left"
      },
      {
        "midi": 62,
        "time": 159,
        "duration": 1.485,
        "velocity": 0.82,
        "hand": "right"
      },
      {
        "midi": 70,
        "time": 159,
        "duration": 1.485,
        "velocity": 0.88,
        "hand": "right"
      },
      {
        "midi": 52,
        "time": 159.5,
        "duration": 0.25,
        "velocity": 0.82,
        "hand": "left"
      },
      {
        "midi": 60,
        "time": 159.5,
        "duration": 0.25,
        "velocity": 0.82,
        "hand": "right"
      },
      {
        "midi": 52,
        "time": 160,
        "duration": 0.25,
        "velocity": 0.82,
        "hand": "left"
      },
      {
        "midi": 60,
        "time": 160,
        "duration": 0.25,
        "velocity": 0.82,
        "hand": "right"
      },
      {
        "midi": 46,
        "time": 160.5,
        "duration": 1,
        "velocity": 0.86,
        "hand": "left"
      },
      {
        "midi": 52,
        "time": 160.5,
        "duration": 0.25,
        "velocity": 0.82,
        "hand": "left"
      },
      {
        "midi": 60,
        "time": 160.5,
        "duration": 0.25,
        "velocity": 0.82,
        "hand": "right"
      },
      {
        "midi": 62,
        "time": 160.5,
        "duration": 1,
        "velocity": 0.82,
        "hand": "right"
      },
      {
        "midi": 70,
        "time": 160.5,
        "duration": 1,
        "velocity": 0.82,
        "hand": "right"
      },
      {
        "midi": 48,
        "time": 161,
        "duration": 0.25,
        "velocity": 0.82,
        "hand": "left"
      },
      {
        "midi": 47,
        "time": 161.25,
        "duration": 0.235,
        "velocity": 0.82,
        "hand": "left"
      },
      {
        "midi": 47,
        "time": 161.5,
        "duration": 0.25,
        "velocity": 0.82,
        "hand": "left"
      },
      {
        "midi": 45,
        "time": 161.75,
        "duration": 0.235,
        "velocity": 0.82,
        "hand": "left"
      },
      {
        "midi": 45,
        "time": 162,
        "duration": 0.25,
        "velocity": 0.82,
        "hand": "left"
      },
      {
        "midi": 51,
        "time": 162,
        "duration": 0.25,
        "velocity": 0.86,
        "hand": "left"
      },
      {
        "midi": 63,
        "time": 162,
        "duration": 0.25,
        "velocity": 0.82,
        "hand": "right"
      },
      {
        "midi": 67,
        "time": 162,
        "duration": 0.25,
        "velocity": 0.82,
        "hand": "right"
      },
      {
        "midi": 52,
        "time": 162.5,
        "duration": 0.25,
        "velocity": 0.82,
        "hand": "left"
      },
      {
        "midi": 63,
        "time": 162.5,
        "duration": 0.25,
        "velocity": 0.82,
        "hand": "right"
      },
      {
        "midi": 67,
        "time": 162.5,
        "duration": 0.25,
        "velocity": 0.82,
        "hand": "right"
      },
      {
        "midi": 45,
        "time": 163,
        "duration": 0.25,
        "velocity": 0.82,
        "hand": "left"
      },
      {
        "midi": 51,
        "time": 163,
        "duration": 0.25,
        "velocity": 0.86,
        "hand": "left"
      },
      {
        "midi": 63,
        "time": 163,
        "duration": 0.25,
        "velocity": 0.82,
        "hand": "right"
      },
      {
        "midi": 67,
        "time": 163,
        "duration": 0.25,
        "velocity": 0.82,
        "hand": "right"
      },
      {
        "midi": 45,
        "time": 163.5,
        "duration": 0.25,
        "velocity": 0.82,
        "hand": "left"
      },
      {
        "midi": 51,
        "time": 163.5,
        "duration": 0.25,
        "velocity": 0.86,
        "hand": "left"
      },
      {
        "midi": 67,
        "time": 163.5,
        "duration": 0.25,
        "velocity": 0.82,
        "hand": "right"
      },
      {
        "midi": 70,
        "time": 163.5,
        "duration": 0.25,
        "velocity": 0.82,
        "hand": "right"
      },
      {
        "midi": 52,
        "time": 164,
        "duration": 0.25,
        "velocity": 0.82,
        "hand": "left"
      },
      {
        "midi": 60,
        "time": 164,
        "duration": 0.25,
        "velocity": 0.82,
        "hand": "right"
      },
      {
        "midi": 65,
        "time": 164,
        "duration": 0.25,
        "velocity": 0.82,
        "hand": "right"
      },
      {
        "midi": 69,
        "time": 164,
        "duration": 0.25,
        "velocity": 0.82,
        "hand": "right"
      },
      {
        "midi": 38,
        "time": 164.5,
        "duration": 0.25,
        "velocity": 0.82,
        "hand": "left"
      },
      {
        "midi": 45,
        "time": 164.5,
        "duration": 0.25,
        "velocity": 0.82,
        "hand": "left"
      },
      {
        "midi": 63,
        "time": 164.5,
        "duration": 0.25,
        "velocity": 0.82,
        "hand": "right"
      },
      {
        "midi": 67,
        "time": 164.5,
        "duration": 0.25,
        "velocity": 0.82,
        "hand": "right"
      },
      {
        "midi": 46,
        "time": 165,
        "duration": 1,
        "velocity": 0.86,
        "hand": "left"
      },
      {
        "midi": 62,
        "time": 165,
        "duration": 1,
        "velocity": 0.82,
        "hand": "right"
      },
      {
        "midi": 65,
        "time": 165,
        "duration": 1,
        "velocity": 0.82,
        "hand": "right"
      },
      {
        "midi": 52,
        "time": 165.5,
        "duration": 0.25,
        "velocity": 0.82,
        "hand": "left"
      },
      {
        "midi": 45,
        "time": 166,
        "duration": 0.25,
        "velocity": 0.82,
        "hand": "left"
      },
      {
        "midi": 45,
        "time": 166.5,
        "duration": 0.25,
        "velocity": 0.82,
        "hand": "left"
      },
      {
        "midi": 50,
        "time": 166.5,
        "duration": 1,
        "velocity": 0.86,
        "hand": "left"
      },
      {
        "midi": 65,
        "time": 166.5,
        "duration": 1,
        "velocity": 0.82,
        "hand": "right"
      },
      {
        "midi": 70,
        "time": 166.5,
        "duration": 1,
        "velocity": 0.82,
        "hand": "right"
      },
      {
        "midi": 52,
        "time": 167,
        "duration": 0.25,
        "velocity": 0.82,
        "hand": "left"
      },
      {
        "midi": 60,
        "time": 167,
        "duration": 0.25,
        "velocity": 0.82,
        "hand": "right"
      },
      {
        "midi": 38,
        "time": 167.5,
        "duration": 0.25,
        "velocity": 0.82,
        "hand": "left"
      },
      {
        "midi": 45,
        "time": 167.5,
        "duration": 0.25,
        "velocity": 0.82,
        "hand": "left"
      },
      {
        "midi": 45,
        "time": 168,
        "duration": 0.25,
        "velocity": 0.82,
        "hand": "left"
      },
      {
        "midi": 55,
        "time": 168,
        "duration": 0.25,
        "velocity": 0.86,
        "hand": "left"
      },
      {
        "midi": 62,
        "time": 168,
        "duration": 0.25,
        "velocity": 0.86,
        "hand": "right"
      },
      {
        "midi": 67,
        "time": 168,
        "duration": 0.25,
        "velocity": 0.82,
        "hand": "right"
      },
      {
        "midi": 70,
        "time": 168,
        "duration": 0.25,
        "velocity": 0.82,
        "hand": "right"
      },
      {
        "midi": 52,
        "time": 168.5,
        "duration": 0.25,
        "velocity": 0.82,
        "hand": "left"
      },
      {
        "midi": 55,
        "time": 168.5,
        "duration": 0.25,
        "velocity": 0.86,
        "hand": "left"
      },
      {
        "midi": 62,
        "time": 168.5,
        "duration": 0.25,
        "velocity": 0.86,
        "hand": "right"
      },
      {
        "midi": 67,
        "time": 168.5,
        "duration": 0.25,
        "velocity": 0.82,
        "hand": "right"
      },
      {
        "midi": 70,
        "time": 168.5,
        "duration": 0.25,
        "velocity": 0.82,
        "hand": "right"
      },
      {
        "midi": 45,
        "time": 169,
        "duration": 0.25,
        "velocity": 0.82,
        "hand": "left"
      },
      {
        "midi": 53,
        "time": 169,
        "duration": 0.25,
        "velocity": 0.86,
        "hand": "left"
      },
      {
        "midi": 62,
        "time": 169,
        "duration": 0.25,
        "velocity": 0.86,
        "hand": "right"
      },
      {
        "midi": 67,
        "time": 169,
        "duration": 0.25,
        "velocity": 0.82,
        "hand": "right"
      },
      {
        "midi": 70,
        "time": 169,
        "duration": 0.25,
        "velocity": 0.82,
        "hand": "right"
      },
      {
        "midi": 45,
        "time": 169.5,
        "duration": 0.25,
        "velocity": 0.82,
        "hand": "left"
      },
      {
        "midi": 51,
        "time": 169.5,
        "duration": 0.25,
        "velocity": 0.86,
        "hand": "left"
      },
      {
        "midi": 63,
        "time": 169.5,
        "duration": 0.25,
        "velocity": 0.86,
        "hand": "right"
      },
      {
        "midi": 67,
        "time": 169.5,
        "duration": 0.25,
        "velocity": 0.82,
        "hand": "right"
      },
      {
        "midi": 70,
        "time": 169.5,
        "duration": 0.25,
        "velocity": 0.82,
        "hand": "right"
      },
      {
        "midi": 52,
        "time": 170,
        "duration": 0.25,
        "velocity": 0.82,
        "hand": "left"
      },
      {
        "midi": 60,
        "time": 170,
        "duration": 0.25,
        "velocity": 0.86,
        "hand": "right"
      },
      {
        "midi": 66,
        "time": 170,
        "duration": 0.25,
        "velocity": 0.82,
        "hand": "right"
      },
      {
        "midi": 69,
        "time": 170,
        "duration": 0.25,
        "velocity": 0.82,
        "hand": "right"
      },
      {
        "midi": 38,
        "time": 170.5,
        "duration": 0.25,
        "velocity": 0.82,
        "hand": "left"
      },
      {
        "midi": 45,
        "time": 170.5,
        "duration": 0.25,
        "velocity": 0.82,
        "hand": "left"
      },
      {
        "midi": 67,
        "time": 170.5,
        "duration": 0.25,
        "velocity": 0.82,
        "hand": "right"
      },
      {
        "midi": 70,
        "time": 170.5,
        "duration": 0.25,
        "velocity": 0.82,
        "hand": "right"
      },
      {
        "midi": 45,
        "time": 171,
        "duration": 0.25,
        "velocity": 0.82,
        "hand": "left"
      },
      {
        "midi": 53,
        "time": 171,
        "duration": 1.485,
        "velocity": 0.86,
        "hand": "left"
      },
      {
        "midi": 69,
        "time": 171,
        "duration": 1.485,
        "velocity": 0.82,
        "hand": "right"
      },
      {
        "midi": 72,
        "time": 171,
        "duration": 1.485,
        "velocity": 0.88,
        "hand": "right"
      },
      {
        "midi": 52,
        "time": 171.5,
        "duration": 0.25,
        "velocity": 0.82,
        "hand": "left"
      },
      {
        "midi": 60,
        "time": 171.5,
        "duration": 0.25,
        "velocity": 0.82,
        "hand": "right"
      },
      {
        "midi": 52,
        "time": 172,
        "duration": 0.25,
        "velocity": 0.82,
        "hand": "left"
      },
      {
        "midi": 60,
        "time": 172,
        "duration": 0.25,
        "velocity": 0.82,
        "hand": "right"
      },
      {
        "midi": 53,
        "time": 172.5,
        "duration": 1,
        "velocity": 0.86,
        "hand": "left"
      },
      {
        "midi": 60,
        "time": 172.5,
        "duration": 0.25,
        "velocity": 0.82,
        "hand": "right"
      },
      {
        "midi": 63,
        "time": 172.5,
        "duration": 1,
        "velocity": 0.86,
        "hand": "right"
      },
      {
        "midi": 69,
        "time": 172.5,
        "duration": 1,
        "velocity": 0.82,
        "hand": "right"
      },
      {
        "midi": 72,
        "time": 172.5,
        "duration": 1,
        "velocity": 0.82,
        "hand": "right"
      },
      {
        "midi": 48,
        "time": 173,
        "duration": 0.25,
        "velocity": 0.82,
        "hand": "left"
      },
      {
        "midi": 47,
        "time": 173.25,
        "duration": 0.235,
        "velocity": 0.82,
        "hand": "left"
      },
      {
        "midi": 47,
        "time": 173.5,
        "duration": 0.25,
        "velocity": 0.82,
        "hand": "left"
      },
      {
        "midi": 45,
        "time": 173.75,
        "duration": 0.235,
        "velocity": 0.82,
        "hand": "left"
      },
      {
        "midi": 46,
        "time": 174,
        "duration": 0.75,
        "velocity": 0.86,
        "hand": "left"
      },
      {
        "midi": 62,
        "time": 174,
        "duration": 0.75,
        "velocity": 0.86,
        "hand": "right"
      },
      {
        "midi": 70,
        "time": 174,
        "duration": 0.75,
        "velocity": 0.82,
        "hand": "right"
      },
      {
        "midi": 74,
        "time": 174,
        "duration": 1.485,
        "velocity": 0.88,
        "hand": "right"
      },
      {
        "midi": 52,
        "time": 174.5,
        "duration": 0.25,
        "velocity": 0.82,
        "hand": "left"
      },
      {
        "midi": 58,
        "time": 174.5,
        "duration": 0.25,
        "velocity": 0.86,
        "hand": "left"
      },
      {
        "midi": 65,
        "time": 174.5,
        "duration": 0.25,
        "velocity": 0.82,
        "hand": "right"
      },
      {
        "midi": 46,
        "time": 175,
        "duration": 0.25,
        "velocity": 0.86,
        "hand": "left"
      },
      {
        "midi": 65,
        "time": 175,
        "duration": 0.25,
        "velocity": 0.82,
        "hand": "right"
      },
      {
        "midi": 46,
        "time": 175.5,
        "duration": 0.25,
        "velocity": 0.86,
        "hand": "left"
      },
      {
        "midi": 74,
        "time": 175.5,
        "duration": 0.25,
        "velocity": 0.82,
        "hand": "right"
      },
      {
        "midi": 46,
        "time": 176,
        "duration": 0.25,
        "velocity": 0.86,
        "hand": "left"
      },
      {
        "midi": 52,
        "time": 176,
        "duration": 0.25,
        "velocity": 0.82,
        "hand": "left"
      },
      {
        "midi": 60,
        "time": 176,
        "duration": 0.25,
        "velocity": 0.82,
        "hand": "right"
      },
      {
        "midi": 64,
        "time": 176,
        "duration": 0.25,
        "velocity": 0.82,
        "hand": "right"
      },
      {
        "midi": 73,
        "time": 176,
        "duration": 0.25,
        "velocity": 0.82,
        "hand": "right"
      },
      {
        "midi": 38,
        "time": 176.5,
        "duration": 0.25,
        "velocity": 0.82,
        "hand": "left"
      },
      {
        "midi": 45,
        "time": 176.5,
        "duration": 0.25,
        "velocity": 0.82,
        "hand": "left"
      },
      {
        "midi": 65,
        "time": 176.5,
        "duration": 0.25,
        "velocity": 0.82,
        "hand": "right"
      },
      {
        "midi": 74,
        "time": 176.5,
        "duration": 0.25,
        "velocity": 0.82,
        "hand": "right"
      },
      {
        "midi": 46,
        "time": 177,
        "duration": 1,
        "velocity": 0.86,
        "hand": "left"
      },
      {
        "midi": 62,
        "time": 177,
        "duration": 1,
        "velocity": 0.82,
        "hand": "right"
      },
      {
        "midi": 70,
        "time": 177,
        "duration": 1,
        "velocity": 0.82,
        "hand": "right"
      },
      {
        "midi": 52,
        "time": 177.5,
        "duration": 0.25,
        "velocity": 0.82,
        "hand": "left"
      },
      {
        "midi": 45,
        "time": 178,
        "duration": 0.25,
        "velocity": 0.82,
        "hand": "left"
      },
      {
        "midi": 46,
        "time": 178.5,
        "duration": 1,
        "velocity": 0.86,
        "hand": "left"
      },
      {
        "midi": 62,
        "time": 178.5,
        "duration": 1,
        "velocity": 0.82,
        "hand": "right"
      },
      {
        "midi": 65,
        "time": 178.5,
        "duration": 1,
        "velocity": 0.82,
        "hand": "right"
      },
      {
        "midi": 52,
        "time": 179,
        "duration": 0.25,
        "velocity": 0.82,
        "hand": "left"
      },
      {
        "midi": 60,
        "time": 179,
        "duration": 0.25,
        "velocity": 0.82,
        "hand": "right"
      },
      {
        "midi": 38,
        "time": 179.5,
        "duration": 0.25,
        "velocity": 0.82,
        "hand": "left"
      },
      {
        "midi": 45,
        "time": 179.5,
        "duration": 0.25,
        "velocity": 0.82,
        "hand": "left"
      },
      {
        "midi": 46,
        "time": 180,
        "duration": 0.25,
        "velocity": 0.86,
        "hand": "left"
      },
      {
        "midi": 65,
        "time": 180,
        "duration": 0.25,
        "velocity": 0.82,
        "hand": "right"
      },
      {
        "midi": 74,
        "time": 180,
        "duration": 0.25,
        "velocity": 0.82,
        "hand": "right"
      },
      {
        "midi": 46,
        "time": 180.5,
        "duration": 0.25,
        "velocity": 0.86,
        "hand": "left"
      },
      {
        "midi": 52,
        "time": 180.5,
        "duration": 0.25,
        "velocity": 0.82,
        "hand": "left"
      },
      {
        "midi": 63,
        "time": 180.5,
        "duration": 0.25,
        "velocity": 0.82,
        "hand": "right"
      },
      {
        "midi": 72,
        "time": 180.5,
        "duration": 0.25,
        "velocity": 0.82,
        "hand": "right"
      },
      {
        "midi": 46,
        "time": 181,
        "duration": 0.25,
        "velocity": 0.86,
        "hand": "left"
      },
      {
        "midi": 62,
        "time": 181,
        "duration": 0.25,
        "velocity": 0.82,
        "hand": "right"
      },
      {
        "midi": 70,
        "time": 181,
        "duration": 0.25,
        "velocity": 0.82,
        "hand": "right"
      },
      {
        "midi": 45,
        "time": 181.5,
        "duration": 0.25,
        "velocity": 0.82,
        "hand": "left"
      },
      {
        "midi": 50,
        "time": 181.5,
        "duration": 0.25,
        "velocity": 0.86,
        "hand": "left"
      },
      {
        "midi": 65,
        "time": 181.5,
        "duration": 0.25,
        "velocity": 0.82,
        "hand": "right"
      },
      {
        "midi": 70,
        "time": 181.5,
        "duration": 0.25,
        "velocity": 0.82,
        "hand": "right"
      },
      {
        "midi": 48,
        "time": 182,
        "duration": 0.25,
        "velocity": 0.86,
        "hand": "left"
      },
      {
        "midi": 52,
        "time": 182,
        "duration": 0.25,
        "velocity": 0.82,
        "hand": "left"
      },
      {
        "midi": 60,
        "time": 182,
        "duration": 0.25,
        "velocity": 0.82,
        "hand": "right"
      },
      {
        "midi": 63,
        "time": 182,
        "duration": 0.25,
        "velocity": 0.82,
        "hand": "right"
      },
      {
        "midi": 69,
        "time": 182,
        "duration": 0.25,
        "velocity": 0.82,
        "hand": "right"
      },
      {
        "midi": 38,
        "time": 182.5,
        "duration": 0.25,
        "velocity": 0.82,
        "hand": "left"
      },
      {
        "midi": 45,
        "time": 182.5,
        "duration": 0.25,
        "velocity": 0.82,
        "hand": "left"
      },
      {
        "midi": 62,
        "time": 182.5,
        "duration": 0.25,
        "velocity": 0.82,
        "hand": "right"
      },
      {
        "midi": 70,
        "time": 182.5,
        "duration": 0.25,
        "velocity": 0.82,
        "hand": "right"
      },
      {
        "midi": 45,
        "time": 183,
        "duration": 0.25,
        "velocity": 0.82,
        "hand": "left"
      },
      {
        "midi": 53,
        "time": 183,
        "duration": 1.485,
        "velocity": 0.86,
        "hand": "left"
      },
      {
        "midi": 65,
        "time": 183,
        "duration": 1.485,
        "velocity": 0.82,
        "hand": "right"
      },
      {
        "midi": 72,
        "time": 183,
        "duration": 1.485,
        "velocity": 0.88,
        "hand": "right"
      },
      {
        "midi": 52,
        "time": 183.5,
        "duration": 0.25,
        "velocity": 0.82,
        "hand": "left"
      },
      {
        "midi": 60,
        "time": 183.5,
        "duration": 0.25,
        "velocity": 0.82,
        "hand": "right"
      },
      {
        "midi": 52,
        "time": 184,
        "duration": 0.25,
        "velocity": 0.82,
        "hand": "left"
      },
      {
        "midi": 60,
        "time": 184,
        "duration": 0.25,
        "velocity": 0.82,
        "hand": "right"
      },
      {
        "midi": 53,
        "time": 184.5,
        "duration": 1,
        "velocity": 0.86,
        "hand": "left"
      },
      {
        "midi": 60,
        "time": 184.5,
        "duration": 0.25,
        "velocity": 0.82,
        "hand": "right"
      },
      {
        "midi": 65,
        "time": 184.5,
        "duration": 1,
        "velocity": 0.82,
        "hand": "right"
      },
      {
        "midi": 72,
        "time": 184.5,
        "duration": 1,
        "velocity": 0.82,
        "hand": "right"
      },
      {
        "midi": 48,
        "time": 185,
        "duration": 0.25,
        "velocity": 0.82,
        "hand": "left"
      },
      {
        "midi": 47,
        "time": 185.25,
        "duration": 0.235,
        "velocity": 0.82,
        "hand": "left"
      },
      {
        "midi": 47,
        "time": 185.5,
        "duration": 0.25,
        "velocity": 0.82,
        "hand": "left"
      },
      {
        "midi": 45,
        "time": 185.75,
        "duration": 0.235,
        "velocity": 0.82,
        "hand": "left"
      },
      {
        "midi": 46,
        "time": 186,
        "duration": 0.25,
        "velocity": 0.86,
        "hand": "left"
      },
      {
        "midi": 65,
        "time": 186,
        "duration": 0.25,
        "velocity": 0.82,
        "hand": "right"
      },
      {
        "midi": 74,
        "time": 186,
        "duration": 0.25,
        "velocity": 0.82,
        "hand": "right"
      },
      {
        "midi": 46,
        "time": 186.5,
        "duration": 0.25,
        "velocity": 0.86,
        "hand": "left"
      },
      {
        "midi": 52,
        "time": 186.5,
        "duration": 0.25,
        "velocity": 0.82,
        "hand": "left"
      },
      {
        "midi": 65,
        "time": 186.5,
        "duration": 0.25,
        "velocity": 0.82,
        "hand": "right"
      },
      {
        "midi": 74,
        "time": 186.5,
        "duration": 0.25,
        "velocity": 0.82,
        "hand": "right"
      },
      {
        "midi": 46,
        "time": 187,
        "duration": 0.25,
        "velocity": 0.86,
        "hand": "left"
      },
      {
        "midi": 65,
        "time": 187,
        "duration": 0.25,
        "velocity": 0.82,
        "hand": "right"
      },
      {
        "midi": 74,
        "time": 187,
        "duration": 0.25,
        "velocity": 0.82,
        "hand": "right"
      },
      {
        "midi": 45,
        "time": 187.5,
        "duration": 0.25,
        "velocity": 0.82,
        "hand": "left"
      },
      {
        "midi": 51,
        "time": 187.5,
        "duration": 0.25,
        "velocity": 0.86,
        "hand": "left"
      },
      {
        "midi": 63,
        "time": 187.5,
        "duration": 0.25,
        "velocity": 0.82,
        "hand": "right"
      },
      {
        "midi": 72,
        "time": 187.5,
        "duration": 0.25,
        "velocity": 0.82,
        "hand": "right"
      },
      {
        "midi": 52,
        "time": 188,
        "duration": 0.25,
        "velocity": 0.82,
        "hand": "left"
      },
      {
        "midi": 60,
        "time": 188,
        "duration": 0.25,
        "velocity": 0.82,
        "hand": "right"
      },
      {
        "midi": 63,
        "time": 188,
        "duration": 0.25,
        "velocity": 0.82,
        "hand": "right"
      },
      {
        "midi": 70,
        "time": 188,
        "duration": 0.25,
        "velocity": 0.82,
        "hand": "right"
      },
      {
        "midi": 38,
        "time": 188.5,
        "duration": 0.25,
        "velocity": 0.82,
        "hand": "left"
      },
      {
        "midi": 45,
        "time": 188.5,
        "duration": 0.25,
        "velocity": 0.82,
        "hand": "left"
      },
      {
        "midi": 63,
        "time": 188.5,
        "duration": 0.25,
        "velocity": 0.82,
        "hand": "right"
      },
      {
        "midi": 67,
        "time": 188.5,
        "duration": 0.25,
        "velocity": 0.82,
        "hand": "right"
      },
      {
        "midi": 46,
        "time": 189,
        "duration": 1,
        "velocity": 0.86,
        "hand": "left"
      },
      {
        "midi": 62,
        "time": 189,
        "duration": 1,
        "velocity": 0.82,
        "hand": "right"
      },
      {
        "midi": 65,
        "time": 189,
        "duration": 1,
        "velocity": 0.82,
        "hand": "right"
      },
      {
        "midi": 52,
        "time": 189.5,
        "duration": 0.25,
        "velocity": 0.82,
        "hand": "left"
      },
      {
        "midi": 45,
        "time": 190,
        "duration": 0.25,
        "velocity": 0.82,
        "hand": "left"
      },
      {
        "midi": 46,
        "time": 190.5,
        "duration": 1,
        "velocity": 0.86,
        "hand": "left"
      },
      {
        "midi": 62,
        "time": 190.5,
        "duration": 0.985,
        "velocity": 0.82,
        "hand": "right"
      },
      {
        "midi": 70,
        "time": 190.5,
        "duration": 1,
        "velocity": 0.82,
        "hand": "right"
      },
      {
        "midi": 52,
        "time": 191,
        "duration": 0.25,
        "velocity": 0.82,
        "hand": "left"
      },
      {
        "midi": 58,
        "time": 191,
        "duration": 0.75,
        "velocity": 0.86,
        "hand": "left"
      },
      {
        "midi": 60,
        "time": 191,
        "duration": 0.25,
        "velocity": 0.82,
        "hand": "right"
      },
      {
        "midi": 38,
        "time": 191.5,
        "duration": 0.25,
        "velocity": 0.82,
        "hand": "left"
      },
      {
        "midi": 45,
        "time": 191.5,
        "duration": 0.25,
        "velocity": 0.82,
        "hand": "left"
      },
      {
        "midi": 62,
        "time": 191.5,
        "duration": 0.25,
        "velocity": 0.86,
        "hand": "right"
      },
      {
        "midi": 65,
        "time": 191.5,
        "duration": 0.25,
        "velocity": 0.82,
        "hand": "right"
      },
      {
        "midi": 45,
        "time": 192,
        "duration": 0.25,
        "velocity": 0.82,
        "hand": "left"
      },
      {
        "midi": 53,
        "time": 192,
        "duration": 0.25,
        "velocity": 0.86,
        "hand": "left"
      },
      {
        "midi": 60,
        "time": 192,
        "duration": 0.25,
        "velocity": 0.86,
        "hand": "right"
      },
      {
        "midi": 63,
        "time": 192,
        "duration": 0.25,
        "velocity": 0.82,
        "hand": "right"
      },
      {
        "midi": 69,
        "time": 192,
        "duration": 0.25,
        "velocity": 0.82,
        "hand": "right"
      },
      {
        "midi": 53,
        "time": 192.5,
        "duration": 0.25,
        "velocity": 0.86,
        "hand": "left"
      },
      {
        "midi": 60,
        "time": 192.5,
        "duration": 0.25,
        "velocity": 0.86,
        "hand": "right"
      },
      {
        "midi": 63,
        "time": 192.5,
        "duration": 0.25,
        "velocity": 0.82,
        "hand": "right"
      },
      {
        "midi": 69,
        "time": 192.5,
        "duration": 0.25,
        "velocity": 0.82,
        "hand": "right"
      },
      {
        "midi": 45,
        "time": 193,
        "duration": 0.25,
        "velocity": 0.82,
        "hand": "left"
      },
      {
        "midi": 53,
        "time": 193,
        "duration": 0.25,
        "velocity": 0.86,
        "hand": "left"
      },
      {
        "midi": 60,
        "time": 193,
        "duration": 0.25,
        "velocity": 0.86,
        "hand": "right"
      },
      {
        "midi": 63,
        "time": 193,
        "duration": 0.25,
        "velocity": 0.82,
        "hand": "right"
      },
      {
        "midi": 69,
        "time": 193,
        "duration": 0.25,
        "velocity": 0.82,
        "hand": "right"
      },
      {
        "midi": 45,
        "time": 193.5,
        "duration": 0.25,
        "velocity": 0.82,
        "hand": "left"
      },
      {
        "midi": 53,
        "time": 193.5,
        "duration": 0.25,
        "velocity": 0.86,
        "hand": "left"
      },
      {
        "midi": 60,
        "time": 193.5,
        "duration": 0.25,
        "velocity": 0.86,
        "hand": "right"
      },
      {
        "midi": 63,
        "time": 193.5,
        "duration": 0.25,
        "velocity": 0.82,
        "hand": "right"
      },
      {
        "midi": 69,
        "time": 193.5,
        "duration": 0.25,
        "velocity": 0.82,
        "hand": "right"
      },
      {
        "midi": 53,
        "time": 194,
        "duration": 0.25,
        "velocity": 0.86,
        "hand": "left"
      },
      {
        "midi": 60,
        "time": 194,
        "duration": 0.25,
        "velocity": 0.82,
        "hand": "right"
      },
      {
        "midi": 63,
        "time": 194,
        "duration": 0.25,
        "velocity": 0.82,
        "hand": "right"
      },
      {
        "midi": 70,
        "time": 194,
        "duration": 0.25,
        "velocity": 0.82,
        "hand": "right"
      },
      {
        "midi": 38,
        "time": 194.5,
        "duration": 0.25,
        "velocity": 0.82,
        "hand": "left"
      },
      {
        "midi": 45,
        "time": 194.5,
        "duration": 0.25,
        "velocity": 0.82,
        "hand": "left"
      },
      {
        "midi": 63,
        "time": 194.5,
        "duration": 0.25,
        "velocity": 0.82,
        "hand": "right"
      },
      {
        "midi": 72,
        "time": 194.5,
        "duration": 0.25,
        "velocity": 0.82,
        "hand": "right"
      },
      {
        "midi": 46,
        "time": 195,
        "duration": 1.485,
        "velocity": 0.86,
        "hand": "left"
      },
      {
        "midi": 62,
        "time": 195,
        "duration": 1.485,
        "velocity": 0.82,
        "hand": "right"
      },
      {
        "midi": 70,
        "time": 195,
        "duration": 1.485,
        "velocity": 0.88,
        "hand": "right"
      },
      {
        "midi": 38,
        "time": 195.75,
        "duration": 0.25,
        "velocity": 0.82,
        "hand": "left"
      },
      {
        "midi": 47,
        "time": 196,
        "duration": 0.25,
        "velocity": 0.82,
        "hand": "left"
      },
      {
        "midi": 45,
        "time": 196.25,
        "duration": 0.235,
        "velocity": 0.82,
        "hand": "left"
      },
      {
        "midi": 46,
        "time": 196.5,
        "duration": 1,
        "velocity": 0.86,
        "hand": "left"
      },
      {
        "midi": 62,
        "time": 196.5,
        "duration": 1,
        "velocity": 0.82,
        "hand": "right"
      },
      {
        "midi": 70,
        "time": 196.5,
        "duration": 1,
        "velocity": 0.82,
        "hand": "right"
      }
    ]
  },
  "notes1Hand": [
    {
      "midi": 69,
      "time": 0,
      "duration": 0.6,
      "velocity": 0.82,
      "hand": "right"
    },
    {
      "midi": 69,
      "time": 1,
      "duration": 0.6,
      "velocity": 0.82,
      "hand": "right"
    },
    {
      "midi": 70,
      "time": 2,
      "duration": 0.6,
      "velocity": 0.82,
      "hand": "right"
    },
    {
      "midi": 70,
      "time": 3,
      "duration": 2.4,
      "velocity": 0.82,
      "hand": "right"
    },
    {
      "midi": 62,
      "time": 5.25,
      "duration": 0.6,
      "velocity": 0.82,
      "hand": "right"
    },
    {
      "midi": 65,
      "time": 6.5,
      "duration": 0.6,
      "velocity": 0.82,
      "hand": "right"
    },
    {
      "midi": 65,
      "time": 7.5,
      "duration": 0.6,
      "velocity": 0.82,
      "hand": "right"
    },
    {
      "midi": 69,
      "time": 8.5,
      "duration": 0.6,
      "velocity": 0.82,
      "hand": "right"
    },
    {
      "midi": 64,
      "time": 9.5,
      "duration": 0.6,
      "velocity": 0.82,
      "hand": "right"
    },
    {
      "midi": 65,
      "time": 10.5,
      "duration": 1,
      "velocity": 0.82,
      "hand": "right"
    },
    {
      "midi": 62,
      "time": 11.5,
      "duration": 0.6,
      "velocity": 0.86,
      "hand": "right"
    },
    {
      "midi": 69,
      "time": 12.5,
      "duration": 0.6,
      "velocity": 0.82,
      "hand": "right"
    },
    {
      "midi": 69,
      "time": 13.5,
      "duration": 0.6,
      "velocity": 0.82,
      "hand": "right"
    },
    {
      "midi": 72,
      "time": 14.5,
      "duration": 0.6,
      "velocity": 0.82,
      "hand": "right"
    },
    {
      "midi": 60,
      "time": 15.5,
      "duration": 0.6,
      "velocity": 0.82,
      "hand": "right"
    },
    {
      "midi": 70,
      "time": 16.5,
      "duration": 1,
      "velocity": 0.82,
      "hand": "right"
    },
    {
      "midi": 59,
      "time": 17.5,
      "duration": 0.6,
      "velocity": 0.82,
      "hand": "right"
    },
    {
      "midi": 67,
      "time": 18.5,
      "duration": 0.6,
      "velocity": 0.82,
      "hand": "right"
    },
    {
      "midi": 70,
      "time": 19.5,
      "duration": 0.6,
      "velocity": 0.82,
      "hand": "right"
    },
    {
      "midi": 67,
      "time": 20.5,
      "duration": 0.6,
      "velocity": 0.82,
      "hand": "right"
    },
    {
      "midi": 64,
      "time": 21.5,
      "duration": 0.6,
      "velocity": 0.82,
      "hand": "right"
    },
    {
      "midi": 70,
      "time": 22.5,
      "duration": 1,
      "velocity": 0.82,
      "hand": "right"
    },
    {
      "midi": 57,
      "time": 23.5,
      "duration": 0.6,
      "velocity": 0.82,
      "hand": "right"
    },
    {
      "midi": 70,
      "time": 24.5,
      "duration": 0.6,
      "velocity": 0.82,
      "hand": "right"
    },
    {
      "midi": 70,
      "time": 25.5,
      "duration": 0.6,
      "velocity": 0.82,
      "hand": "right"
    },
    {
      "midi": 70,
      "time": 26.5,
      "duration": 0.6,
      "velocity": 0.82,
      "hand": "right"
    },
    {
      "midi": 60,
      "time": 27.5,
      "duration": 0.6,
      "velocity": 0.82,
      "hand": "right"
    },
    {
      "midi": 72,
      "time": 28.5,
      "duration": 1,
      "velocity": 0.82,
      "hand": "right"
    },
    {
      "midi": 59,
      "time": 29.5,
      "duration": 0.6,
      "velocity": 0.82,
      "hand": "right"
    },
    {
      "midi": 65,
      "time": 30.5,
      "duration": 0.6,
      "velocity": 0.82,
      "hand": "right"
    },
    {
      "midi": 74,
      "time": 31.5,
      "duration": 0.6,
      "velocity": 0.82,
      "hand": "right"
    },
    {
      "midi": 74,
      "time": 32.5,
      "duration": 0.6,
      "velocity": 0.82,
      "hand": "right"
    },
    {
      "midi": 64,
      "time": 33.5,
      "duration": 0.6,
      "velocity": 0.82,
      "hand": "right"
    },
    {
      "midi": 65,
      "time": 34.5,
      "duration": 1,
      "velocity": 0.82,
      "hand": "right"
    },
    {
      "midi": 57,
      "time": 35.5,
      "duration": 0.6,
      "velocity": 0.82,
      "hand": "right"
    },
    {
      "midi": 72,
      "time": 36.5,
      "duration": 0.6,
      "velocity": 0.82,
      "hand": "right"
    },
    {
      "midi": 70,
      "time": 37.5,
      "duration": 0.6,
      "velocity": 0.82,
      "hand": "right"
    },
    {
      "midi": 70,
      "time": 38.5,
      "duration": 0.6,
      "velocity": 0.82,
      "hand": "right"
    },
    {
      "midi": 60,
      "time": 39.5,
      "duration": 0.6,
      "velocity": 0.82,
      "hand": "right"
    },
    {
      "midi": 72,
      "time": 40.5,
      "duration": 1,
      "velocity": 0.82,
      "hand": "right"
    },
    {
      "midi": 59,
      "time": 41.5,
      "duration": 0.6,
      "velocity": 0.82,
      "hand": "right"
    },
    {
      "midi": 74,
      "time": 42.5,
      "duration": 0.6,
      "velocity": 0.82,
      "hand": "right"
    },
    {
      "midi": 72,
      "time": 43.5,
      "duration": 0.6,
      "velocity": 0.82,
      "hand": "right"
    },
    {
      "midi": 67,
      "time": 44.5,
      "duration": 0.6,
      "velocity": 0.82,
      "hand": "right"
    },
    {
      "midi": 64,
      "time": 45.5,
      "duration": 0.6,
      "velocity": 0.82,
      "hand": "right"
    },
    {
      "midi": 70,
      "time": 46.5,
      "duration": 1,
      "velocity": 0.82,
      "hand": "right"
    },
    {
      "midi": 65,
      "time": 47.5,
      "duration": 0.6,
      "velocity": 0.82,
      "hand": "right"
    },
    {
      "midi": 69,
      "time": 48.5,
      "duration": 0.6,
      "velocity": 0.82,
      "hand": "right"
    },
    {
      "midi": 69,
      "time": 49.5,
      "duration": 0.6,
      "velocity": 0.82,
      "hand": "right"
    },
    {
      "midi": 72,
      "time": 50.5,
      "duration": 0.6,
      "velocity": 0.82,
      "hand": "right"
    },
    {
      "midi": 60,
      "time": 51.5,
      "duration": 0.6,
      "velocity": 0.82,
      "hand": "right"
    },
    {
      "midi": 70,
      "time": 52.5,
      "duration": 1,
      "velocity": 0.82,
      "hand": "right"
    },
    {
      "midi": 59,
      "time": 53.5,
      "duration": 0.6,
      "velocity": 0.82,
      "hand": "right"
    },
    {
      "midi": 65,
      "time": 54.5,
      "duration": 0.6,
      "velocity": 0.82,
      "hand": "right"
    },
    {
      "midi": 65,
      "time": 55.5,
      "duration": 0.6,
      "velocity": 0.82,
      "hand": "right"
    },
    {
      "midi": 69,
      "time": 56.5,
      "duration": 0.6,
      "velocity": 0.82,
      "hand": "right"
    },
    {
      "midi": 64,
      "time": 57.5,
      "duration": 0.6,
      "velocity": 0.82,
      "hand": "right"
    },
    {
      "midi": 65,
      "time": 58.5,
      "duration": 1,
      "velocity": 0.82,
      "hand": "right"
    },
    {
      "midi": 62,
      "time": 59.5,
      "duration": 0.6,
      "velocity": 0.86,
      "hand": "right"
    },
    {
      "midi": 69,
      "time": 60.5,
      "duration": 0.6,
      "velocity": 0.82,
      "hand": "right"
    },
    {
      "midi": 69,
      "time": 61.5,
      "duration": 0.6,
      "velocity": 0.82,
      "hand": "right"
    },
    {
      "midi": 72,
      "time": 62.5,
      "duration": 0.6,
      "velocity": 0.82,
      "hand": "right"
    },
    {
      "midi": 60,
      "time": 63.5,
      "duration": 0.6,
      "velocity": 0.82,
      "hand": "right"
    },
    {
      "midi": 70,
      "time": 64.5,
      "duration": 1,
      "velocity": 0.82,
      "hand": "right"
    },
    {
      "midi": 59,
      "time": 65.5,
      "duration": 0.6,
      "velocity": 0.82,
      "hand": "right"
    },
    {
      "midi": 67,
      "time": 66.5,
      "duration": 0.6,
      "velocity": 0.82,
      "hand": "right"
    },
    {
      "midi": 70,
      "time": 67.5,
      "duration": 0.6,
      "velocity": 0.82,
      "hand": "right"
    },
    {
      "midi": 67,
      "time": 68.5,
      "duration": 0.6,
      "velocity": 0.82,
      "hand": "right"
    },
    {
      "midi": 64,
      "time": 69.5,
      "duration": 0.6,
      "velocity": 0.82,
      "hand": "right"
    },
    {
      "midi": 70,
      "time": 70.5,
      "duration": 1,
      "velocity": 0.82,
      "hand": "right"
    },
    {
      "midi": 57,
      "time": 71.5,
      "duration": 0.6,
      "velocity": 0.82,
      "hand": "right"
    },
    {
      "midi": 70,
      "time": 72.5,
      "duration": 0.6,
      "velocity": 0.82,
      "hand": "right"
    },
    {
      "midi": 70,
      "time": 73.5,
      "duration": 0.6,
      "velocity": 0.82,
      "hand": "right"
    },
    {
      "midi": 70,
      "time": 74.5,
      "duration": 0.6,
      "velocity": 0.82,
      "hand": "right"
    },
    {
      "midi": 60,
      "time": 75.5,
      "duration": 0.6,
      "velocity": 0.82,
      "hand": "right"
    },
    {
      "midi": 72,
      "time": 76.5,
      "duration": 1,
      "velocity": 0.82,
      "hand": "right"
    },
    {
      "midi": 59,
      "time": 77.5,
      "duration": 0.6,
      "velocity": 0.82,
      "hand": "right"
    },
    {
      "midi": 65,
      "time": 78.5,
      "duration": 0.6,
      "velocity": 0.82,
      "hand": "right"
    },
    {
      "midi": 74,
      "time": 79.5,
      "duration": 0.6,
      "velocity": 0.82,
      "hand": "right"
    },
    {
      "midi": 74,
      "time": 80.5,
      "duration": 0.6,
      "velocity": 0.82,
      "hand": "right"
    },
    {
      "midi": 64,
      "time": 81.5,
      "duration": 0.6,
      "velocity": 0.82,
      "hand": "right"
    },
    {
      "midi": 65,
      "time": 82.5,
      "duration": 1,
      "velocity": 0.82,
      "hand": "right"
    },
    {
      "midi": 57,
      "time": 83.5,
      "duration": 0.6,
      "velocity": 0.82,
      "hand": "right"
    },
    {
      "midi": 72,
      "time": 84.5,
      "duration": 0.6,
      "velocity": 0.82,
      "hand": "right"
    },
    {
      "midi": 70,
      "time": 85.5,
      "duration": 0.6,
      "velocity": 0.82,
      "hand": "right"
    },
    {
      "midi": 70,
      "time": 86.5,
      "duration": 0.6,
      "velocity": 0.82,
      "hand": "right"
    },
    {
      "midi": 60,
      "time": 87.5,
      "duration": 0.6,
      "velocity": 0.82,
      "hand": "right"
    },
    {
      "midi": 72,
      "time": 88.5,
      "duration": 1,
      "velocity": 0.82,
      "hand": "right"
    },
    {
      "midi": 59,
      "time": 89.5,
      "duration": 0.6,
      "velocity": 0.82,
      "hand": "right"
    },
    {
      "midi": 74,
      "time": 90.5,
      "duration": 0.6,
      "velocity": 0.82,
      "hand": "right"
    },
    {
      "midi": 72,
      "time": 91.5,
      "duration": 0.6,
      "velocity": 0.82,
      "hand": "right"
    },
    {
      "midi": 67,
      "time": 92.5,
      "duration": 0.6,
      "velocity": 0.82,
      "hand": "right"
    },
    {
      "midi": 64,
      "time": 93.5,
      "duration": 0.6,
      "velocity": 0.82,
      "hand": "right"
    },
    {
      "midi": 70,
      "time": 94.5,
      "duration": 1,
      "velocity": 0.82,
      "hand": "right"
    },
    {
      "midi": 65,
      "time": 95.5,
      "duration": 0.6,
      "velocity": 0.82,
      "hand": "right"
    },
    {
      "midi": 69,
      "time": 96.5,
      "duration": 0.6,
      "velocity": 0.82,
      "hand": "right"
    },
    {
      "midi": 69,
      "time": 97.5,
      "duration": 0.6,
      "velocity": 0.82,
      "hand": "right"
    },
    {
      "midi": 72,
      "time": 98.5,
      "duration": 0.6,
      "velocity": 0.82,
      "hand": "right"
    },
    {
      "midi": 60,
      "time": 99.5,
      "duration": 0.6,
      "velocity": 0.82,
      "hand": "right"
    },
    {
      "midi": 70,
      "time": 100.5,
      "duration": 1,
      "velocity": 0.82,
      "hand": "right"
    },
    {
      "midi": 59,
      "time": 101.5,
      "duration": 0.6,
      "velocity": 0.82,
      "hand": "right"
    },
    {
      "midi": 65,
      "time": 102.5,
      "duration": 0.6,
      "velocity": 0.82,
      "hand": "right"
    },
    {
      "midi": 65,
      "time": 103.5,
      "duration": 0.6,
      "velocity": 0.82,
      "hand": "right"
    },
    {
      "midi": 69,
      "time": 104.5,
      "duration": 0.6,
      "velocity": 0.82,
      "hand": "right"
    },
    {
      "midi": 64,
      "time": 105.5,
      "duration": 0.6,
      "velocity": 0.82,
      "hand": "right"
    },
    {
      "midi": 65,
      "time": 106.5,
      "duration": 1,
      "velocity": 0.82,
      "hand": "right"
    },
    {
      "midi": 62,
      "time": 107.5,
      "duration": 0.6,
      "velocity": 0.86,
      "hand": "right"
    },
    {
      "midi": 69,
      "time": 108.5,
      "duration": 0.6,
      "velocity": 0.82,
      "hand": "right"
    },
    {
      "midi": 69,
      "time": 109.5,
      "duration": 0.6,
      "velocity": 0.82,
      "hand": "right"
    },
    {
      "midi": 72,
      "time": 110.5,
      "duration": 0.6,
      "velocity": 0.82,
      "hand": "right"
    },
    {
      "midi": 60,
      "time": 111.5,
      "duration": 0.6,
      "velocity": 0.82,
      "hand": "right"
    },
    {
      "midi": 70,
      "time": 112.5,
      "duration": 1,
      "velocity": 0.82,
      "hand": "right"
    },
    {
      "midi": 59,
      "time": 113.5,
      "duration": 0.6,
      "velocity": 0.82,
      "hand": "right"
    },
    {
      "midi": 67,
      "time": 114.5,
      "duration": 0.6,
      "velocity": 0.82,
      "hand": "right"
    },
    {
      "midi": 70,
      "time": 115.5,
      "duration": 0.6,
      "velocity": 0.82,
      "hand": "right"
    },
    {
      "midi": 67,
      "time": 116.5,
      "duration": 0.6,
      "velocity": 0.82,
      "hand": "right"
    },
    {
      "midi": 64,
      "time": 117.5,
      "duration": 0.6,
      "velocity": 0.82,
      "hand": "right"
    },
    {
      "midi": 70,
      "time": 118.5,
      "duration": 1,
      "velocity": 0.82,
      "hand": "right"
    },
    {
      "midi": 57,
      "time": 119.5,
      "duration": 0.6,
      "velocity": 0.82,
      "hand": "right"
    },
    {
      "midi": 70,
      "time": 120.5,
      "duration": 0.6,
      "velocity": 0.82,
      "hand": "right"
    },
    {
      "midi": 70,
      "time": 121.5,
      "duration": 0.6,
      "velocity": 0.82,
      "hand": "right"
    },
    {
      "midi": 70,
      "time": 122.5,
      "duration": 0.6,
      "velocity": 0.82,
      "hand": "right"
    },
    {
      "midi": 60,
      "time": 123.5,
      "duration": 0.6,
      "velocity": 0.82,
      "hand": "right"
    },
    {
      "midi": 72,
      "time": 124.5,
      "duration": 1,
      "velocity": 0.82,
      "hand": "right"
    },
    {
      "midi": 59,
      "time": 125.5,
      "duration": 0.6,
      "velocity": 0.82,
      "hand": "right"
    },
    {
      "midi": 65,
      "time": 126.5,
      "duration": 0.6,
      "velocity": 0.82,
      "hand": "right"
    },
    {
      "midi": 74,
      "time": 127.5,
      "duration": 0.6,
      "velocity": 0.82,
      "hand": "right"
    },
    {
      "midi": 74,
      "time": 128.5,
      "duration": 0.6,
      "velocity": 0.82,
      "hand": "right"
    },
    {
      "midi": 64,
      "time": 129.5,
      "duration": 0.6,
      "velocity": 0.82,
      "hand": "right"
    },
    {
      "midi": 65,
      "time": 130.5,
      "duration": 1,
      "velocity": 0.82,
      "hand": "right"
    },
    {
      "midi": 57,
      "time": 131.5,
      "duration": 0.6,
      "velocity": 0.82,
      "hand": "right"
    },
    {
      "midi": 72,
      "time": 132.5,
      "duration": 0.6,
      "velocity": 0.82,
      "hand": "right"
    },
    {
      "midi": 70,
      "time": 133.5,
      "duration": 0.6,
      "velocity": 0.82,
      "hand": "right"
    },
    {
      "midi": 70,
      "time": 134.5,
      "duration": 0.6,
      "velocity": 0.82,
      "hand": "right"
    },
    {
      "midi": 60,
      "time": 135.5,
      "duration": 0.6,
      "velocity": 0.82,
      "hand": "right"
    },
    {
      "midi": 72,
      "time": 136.5,
      "duration": 1,
      "velocity": 0.82,
      "hand": "right"
    },
    {
      "midi": 59,
      "time": 137.5,
      "duration": 0.6,
      "velocity": 0.82,
      "hand": "right"
    },
    {
      "midi": 74,
      "time": 138.5,
      "duration": 0.6,
      "velocity": 0.82,
      "hand": "right"
    },
    {
      "midi": 72,
      "time": 139.5,
      "duration": 0.6,
      "velocity": 0.82,
      "hand": "right"
    },
    {
      "midi": 67,
      "time": 140.5,
      "duration": 0.6,
      "velocity": 0.82,
      "hand": "right"
    },
    {
      "midi": 64,
      "time": 141.5,
      "duration": 0.6,
      "velocity": 0.82,
      "hand": "right"
    },
    {
      "midi": 70,
      "time": 142.5,
      "duration": 1,
      "velocity": 0.82,
      "hand": "right"
    },
    {
      "midi": 65,
      "time": 143.5,
      "duration": 0.6,
      "velocity": 0.82,
      "hand": "right"
    },
    {
      "midi": 69,
      "time": 144.5,
      "duration": 0.6,
      "velocity": 0.82,
      "hand": "right"
    },
    {
      "midi": 69,
      "time": 145.5,
      "duration": 0.6,
      "velocity": 0.82,
      "hand": "right"
    },
    {
      "midi": 72,
      "time": 146.5,
      "duration": 0.6,
      "velocity": 0.82,
      "hand": "right"
    },
    {
      "midi": 60,
      "time": 147.5,
      "duration": 0.6,
      "velocity": 0.82,
      "hand": "right"
    },
    {
      "midi": 70,
      "time": 148.5,
      "duration": 1,
      "velocity": 0.82,
      "hand": "right"
    },
    {
      "midi": 59,
      "time": 149.5,
      "duration": 0.6,
      "velocity": 0.82,
      "hand": "right"
    },
    {
      "midi": 65,
      "time": 150.5,
      "duration": 0.6,
      "velocity": 0.82,
      "hand": "right"
    },
    {
      "midi": 65,
      "time": 151.5,
      "duration": 0.6,
      "velocity": 0.82,
      "hand": "right"
    },
    {
      "midi": 69,
      "time": 152.5,
      "duration": 0.6,
      "velocity": 0.82,
      "hand": "right"
    },
    {
      "midi": 64,
      "time": 153.5,
      "duration": 0.6,
      "velocity": 0.82,
      "hand": "right"
    },
    {
      "midi": 65,
      "time": 154.5,
      "duration": 1,
      "velocity": 0.82,
      "hand": "right"
    },
    {
      "midi": 62,
      "time": 155.5,
      "duration": 0.6,
      "velocity": 0.86,
      "hand": "right"
    },
    {
      "midi": 69,
      "time": 156.5,
      "duration": 0.6,
      "velocity": 0.82,
      "hand": "right"
    },
    {
      "midi": 69,
      "time": 157.5,
      "duration": 0.6,
      "velocity": 0.82,
      "hand": "right"
    },
    {
      "midi": 72,
      "time": 158.5,
      "duration": 0.6,
      "velocity": 0.82,
      "hand": "right"
    },
    {
      "midi": 60,
      "time": 159.5,
      "duration": 0.6,
      "velocity": 0.82,
      "hand": "right"
    },
    {
      "midi": 70,
      "time": 160.5,
      "duration": 1,
      "velocity": 0.82,
      "hand": "right"
    },
    {
      "midi": 59,
      "time": 161.5,
      "duration": 0.6,
      "velocity": 0.82,
      "hand": "right"
    },
    {
      "midi": 67,
      "time": 162.5,
      "duration": 0.6,
      "velocity": 0.82,
      "hand": "right"
    },
    {
      "midi": 70,
      "time": 163.5,
      "duration": 0.6,
      "velocity": 0.82,
      "hand": "right"
    },
    {
      "midi": 67,
      "time": 164.5,
      "duration": 0.6,
      "velocity": 0.82,
      "hand": "right"
    },
    {
      "midi": 64,
      "time": 165.5,
      "duration": 0.6,
      "velocity": 0.82,
      "hand": "right"
    },
    {
      "midi": 70,
      "time": 166.5,
      "duration": 1,
      "velocity": 0.82,
      "hand": "right"
    },
    {
      "midi": 57,
      "time": 167.5,
      "duration": 0.6,
      "velocity": 0.82,
      "hand": "right"
    },
    {
      "midi": 70,
      "time": 168.5,
      "duration": 0.6,
      "velocity": 0.82,
      "hand": "right"
    },
    {
      "midi": 70,
      "time": 169.5,
      "duration": 0.6,
      "velocity": 0.82,
      "hand": "right"
    },
    {
      "midi": 70,
      "time": 170.5,
      "duration": 0.6,
      "velocity": 0.82,
      "hand": "right"
    },
    {
      "midi": 60,
      "time": 171.5,
      "duration": 0.6,
      "velocity": 0.82,
      "hand": "right"
    },
    {
      "midi": 72,
      "time": 172.5,
      "duration": 1,
      "velocity": 0.82,
      "hand": "right"
    },
    {
      "midi": 59,
      "time": 173.5,
      "duration": 0.6,
      "velocity": 0.82,
      "hand": "right"
    },
    {
      "midi": 65,
      "time": 174.5,
      "duration": 0.6,
      "velocity": 0.82,
      "hand": "right"
    },
    {
      "midi": 74,
      "time": 175.5,
      "duration": 0.6,
      "velocity": 0.82,
      "hand": "right"
    },
    {
      "midi": 74,
      "time": 176.5,
      "duration": 0.6,
      "velocity": 0.82,
      "hand": "right"
    },
    {
      "midi": 64,
      "time": 177.5,
      "duration": 0.6,
      "velocity": 0.82,
      "hand": "right"
    },
    {
      "midi": 65,
      "time": 178.5,
      "duration": 1,
      "velocity": 0.82,
      "hand": "right"
    },
    {
      "midi": 57,
      "time": 179.5,
      "duration": 0.6,
      "velocity": 0.82,
      "hand": "right"
    },
    {
      "midi": 72,
      "time": 180.5,
      "duration": 0.6,
      "velocity": 0.82,
      "hand": "right"
    },
    {
      "midi": 70,
      "time": 181.5,
      "duration": 0.6,
      "velocity": 0.82,
      "hand": "right"
    },
    {
      "midi": 70,
      "time": 182.5,
      "duration": 0.6,
      "velocity": 0.82,
      "hand": "right"
    },
    {
      "midi": 60,
      "time": 183.5,
      "duration": 0.6,
      "velocity": 0.82,
      "hand": "right"
    },
    {
      "midi": 72,
      "time": 184.5,
      "duration": 1,
      "velocity": 0.82,
      "hand": "right"
    },
    {
      "midi": 59,
      "time": 185.5,
      "duration": 0.6,
      "velocity": 0.82,
      "hand": "right"
    },
    {
      "midi": 74,
      "time": 186.5,
      "duration": 0.6,
      "velocity": 0.82,
      "hand": "right"
    },
    {
      "midi": 72,
      "time": 187.5,
      "duration": 0.6,
      "velocity": 0.82,
      "hand": "right"
    },
    {
      "midi": 67,
      "time": 188.5,
      "duration": 0.6,
      "velocity": 0.82,
      "hand": "right"
    },
    {
      "midi": 64,
      "time": 189.5,
      "duration": 0.6,
      "velocity": 0.82,
      "hand": "right"
    },
    {
      "midi": 70,
      "time": 190.5,
      "duration": 1,
      "velocity": 0.82,
      "hand": "right"
    },
    {
      "midi": 65,
      "time": 191.5,
      "duration": 0.6,
      "velocity": 0.82,
      "hand": "right"
    },
    {
      "midi": 69,
      "time": 192.5,
      "duration": 0.6,
      "velocity": 0.82,
      "hand": "right"
    },
    {
      "midi": 69,
      "time": 193.5,
      "duration": 0.6,
      "velocity": 0.82,
      "hand": "right"
    },
    {
      "midi": 72,
      "time": 194.5,
      "duration": 0.6,
      "velocity": 0.82,
      "hand": "right"
    },
    {
      "midi": 62,
      "time": 195.75,
      "duration": 0.6,
      "velocity": 0.82,
      "hand": "right"
    }
  ],
  "notes2Hands": [
    {
      "midi": 63,
      "time": 0,
      "duration": 0.25,
      "velocity": 0.82,
      "hand": "right"
    },
    {
      "midi": 69,
      "time": 0,
      "duration": 0.25,
      "velocity": 0.82,
      "hand": "right"
    },
    {
      "midi": 63,
      "time": 0.5,
      "duration": 0.25,
      "velocity": 0.82,
      "hand": "right"
    },
    {
      "midi": 69,
      "time": 0.5,
      "duration": 0.25,
      "velocity": 0.82,
      "hand": "right"
    },
    {
      "midi": 63,
      "time": 1,
      "duration": 0.25,
      "velocity": 0.82,
      "hand": "right"
    },
    {
      "midi": 69,
      "time": 1,
      "duration": 0.25,
      "velocity": 0.82,
      "hand": "right"
    },
    {
      "midi": 63,
      "time": 1.5,
      "duration": 0.25,
      "velocity": 0.82,
      "hand": "right"
    },
    {
      "midi": 69,
      "time": 1.5,
      "duration": 0.25,
      "velocity": 0.82,
      "hand": "right"
    },
    {
      "midi": 63,
      "time": 2,
      "duration": 0.25,
      "velocity": 0.82,
      "hand": "right"
    },
    {
      "midi": 70,
      "time": 2,
      "duration": 0.25,
      "velocity": 0.82,
      "hand": "right"
    },
    {
      "midi": 63,
      "time": 2.5,
      "duration": 0.25,
      "velocity": 0.82,
      "hand": "right"
    },
    {
      "midi": 72,
      "time": 2.5,
      "duration": 0.25,
      "velocity": 0.82,
      "hand": "right"
    },
    {
      "midi": 46,
      "time": 3,
      "duration": 2.75,
      "velocity": 0.86,
      "hand": "left"
    },
    {
      "midi": 58,
      "time": 3,
      "duration": 2.75,
      "velocity": 0.86,
      "hand": "left"
    },
    {
      "midi": 62,
      "time": 3,
      "duration": 2.75,
      "velocity": 0.82,
      "hand": "right"
    },
    {
      "midi": 70,
      "time": 3,
      "duration": 2.75,
      "velocity": 0.82,
      "hand": "right"
    },
    {
      "midi": 38,
      "time": 5.25,
      "duration": 0.25,
      "velocity": 0.82,
      "hand": "left"
    },
    {
      "midi": 47,
      "time": 5.5,
      "duration": 0.25,
      "velocity": 0.82,
      "hand": "left"
    },
    {
      "midi": 45,
      "time": 5.75,
      "duration": 0.235,
      "velocity": 0.82,
      "hand": "left"
    },
    {
      "midi": 46,
      "time": 6,
      "duration": 0.25,
      "velocity": 0.86,
      "hand": "left"
    },
    {
      "midi": 62,
      "time": 6,
      "duration": 0.25,
      "velocity": 0.82,
      "hand": "right"
    },
    {
      "midi": 65,
      "time": 6,
      "duration": 0.25,
      "velocity": 0.82,
      "hand": "right"
    },
    {
      "midi": 46,
      "time": 6.5,
      "duration": 0.25,
      "velocity": 0.86,
      "hand": "left"
    },
    {
      "midi": 52,
      "time": 6.5,
      "duration": 0.25,
      "velocity": 0.82,
      "hand": "left"
    },
    {
      "midi": 62,
      "time": 6.5,
      "duration": 0.25,
      "velocity": 0.82,
      "hand": "right"
    },
    {
      "midi": 65,
      "time": 6.5,
      "duration": 0.25,
      "velocity": 0.82,
      "hand": "right"
    },
    {
      "midi": 46,
      "time": 7,
      "duration": 0.25,
      "velocity": 0.86,
      "hand": "left"
    },
    {
      "midi": 62,
      "time": 7,
      "duration": 0.25,
      "velocity": 0.82,
      "hand": "right"
    },
    {
      "midi": 65,
      "time": 7,
      "duration": 0.25,
      "velocity": 0.82,
      "hand": "right"
    },
    {
      "midi": 45,
      "time": 7.5,
      "duration": 0.25,
      "velocity": 0.82,
      "hand": "left"
    },
    {
      "midi": 53,
      "time": 7.5,
      "duration": 0.25,
      "velocity": 0.86,
      "hand": "left"
    },
    {
      "midi": 63,
      "time": 7.5,
      "duration": 0.25,
      "velocity": 0.82,
      "hand": "right"
    },
    {
      "midi": 65,
      "time": 7.5,
      "duration": 0.25,
      "velocity": 0.82,
      "hand": "right"
    },
    {
      "midi": 53,
      "time": 8,
      "duration": 0.25,
      "velocity": 0.86,
      "hand": "left"
    },
    {
      "midi": 60,
      "time": 8,
      "duration": 0.25,
      "velocity": 0.82,
      "hand": "right"
    },
    {
      "midi": 63,
      "time": 8,
      "duration": 0.25,
      "velocity": 0.82,
      "hand": "right"
    },
    {
      "midi": 67,
      "time": 8,
      "duration": 0.25,
      "velocity": 0.82,
      "hand": "right"
    },
    {
      "midi": 38,
      "time": 8.5,
      "duration": 0.25,
      "velocity": 0.82,
      "hand": "left"
    },
    {
      "midi": 45,
      "time": 8.5,
      "duration": 0.25,
      "velocity": 0.82,
      "hand": "left"
    },
    {
      "midi": 60,
      "time": 8.5,
      "duration": 0.25,
      "velocity": 0.86,
      "hand": "right"
    },
    {
      "midi": 63,
      "time": 8.5,
      "duration": 0.25,
      "velocity": 0.82,
      "hand": "right"
    },
    {
      "midi": 69,
      "time": 8.5,
      "duration": 0.25,
      "velocity": 0.82,
      "hand": "right"
    },
    {
      "midi": 46,
      "time": 9,
      "duration": 1,
      "velocity": 0.86,
      "hand": "left"
    },
    {
      "midi": 62,
      "time": 9,
      "duration": 1,
      "velocity": 0.82,
      "hand": "right"
    },
    {
      "midi": 70,
      "time": 9,
      "duration": 1,
      "velocity": 0.82,
      "hand": "right"
    },
    {
      "midi": 52,
      "time": 9.5,
      "duration": 0.25,
      "velocity": 0.82,
      "hand": "left"
    },
    {
      "midi": 45,
      "time": 10,
      "duration": 0.25,
      "velocity": 0.82,
      "hand": "left"
    },
    {
      "midi": 46,
      "time": 10.5,
      "duration": 1,
      "velocity": 0.86,
      "hand": "left"
    },
    {
      "midi": 62,
      "time": 10.5,
      "duration": 0.985,
      "velocity": 0.82,
      "hand": "right"
    },
    {
      "midi": 65,
      "time": 10.5,
      "duration": 1,
      "velocity": 0.82,
      "hand": "right"
    },
    {
      "midi": 52,
      "time": 11,
      "duration": 0.25,
      "velocity": 0.82,
      "hand": "left"
    },
    {
      "midi": 60,
      "time": 11,
      "duration": 0.25,
      "velocity": 0.82,
      "hand": "right"
    },
    {
      "midi": 38,
      "time": 11.5,
      "duration": 0.25,
      "velocity": 0.82,
      "hand": "left"
    },
    {
      "midi": 45,
      "time": 11.5,
      "duration": 0.25,
      "velocity": 0.82,
      "hand": "left"
    },
    {
      "midi": 62,
      "time": 11.5,
      "duration": 0.25,
      "velocity": 0.86,
      "hand": "right"
    },
    {
      "midi": 45,
      "time": 12,
      "duration": 0.25,
      "velocity": 0.82,
      "hand": "left"
    },
    {
      "midi": 53,
      "time": 12,
      "duration": 0.25,
      "velocity": 0.86,
      "hand": "left"
    },
    {
      "midi": 60,
      "time": 12,
      "duration": 0.25,
      "velocity": 0.86,
      "hand": "right"
    },
    {
      "midi": 65,
      "time": 12,
      "duration": 0.25,
      "velocity": 0.82,
      "hand": "right"
    },
    {
      "midi": 69,
      "time": 12,
      "duration": 0.25,
      "velocity": 0.82,
      "hand": "right"
    },
    {
      "midi": 53,
      "time": 12.5,
      "duration": 0.25,
      "velocity": 0.86,
      "hand": "left"
    },
    {
      "midi": 60,
      "time": 12.5,
      "duration": 0.25,
      "velocity": 0.86,
      "hand": "right"
    },
    {
      "midi": 65,
      "time": 12.5,
      "duration": 0.25,
      "velocity": 0.82,
      "hand": "right"
    },
    {
      "midi": 69,
      "time": 12.5,
      "duration": 0.25,
      "velocity": 0.82,
      "hand": "right"
    },
    {
      "midi": 45,
      "time": 13,
      "duration": 0.25,
      "velocity": 0.82,
      "hand": "left"
    },
    {
      "midi": 53,
      "time": 13,
      "duration": 0.25,
      "velocity": 0.86,
      "hand": "left"
    },
    {
      "midi": 60,
      "time": 13,
      "duration": 0.25,
      "velocity": 0.86,
      "hand": "right"
    },
    {
      "midi": 65,
      "time": 13,
      "duration": 0.25,
      "velocity": 0.82,
      "hand": "right"
    },
    {
      "midi": 69,
      "time": 13,
      "duration": 0.25,
      "velocity": 0.82,
      "hand": "right"
    },
    {
      "midi": 45,
      "time": 13.5,
      "duration": 0.25,
      "velocity": 0.82,
      "hand": "left"
    },
    {
      "midi": 53,
      "time": 13.5,
      "duration": 0.25,
      "velocity": 0.86,
      "hand": "left"
    },
    {
      "midi": 60,
      "time": 13.5,
      "duration": 0.25,
      "velocity": 0.86,
      "hand": "right"
    },
    {
      "midi": 63,
      "time": 13.5,
      "duration": 0.25,
      "velocity": 0.82,
      "hand": "right"
    },
    {
      "midi": 69,
      "time": 13.5,
      "duration": 0.25,
      "velocity": 0.82,
      "hand": "right"
    },
    {
      "midi": 53,
      "time": 14,
      "duration": 0.25,
      "velocity": 0.86,
      "hand": "left"
    },
    {
      "midi": 60,
      "time": 14,
      "duration": 0.25,
      "velocity": 0.82,
      "hand": "right"
    },
    {
      "midi": 63,
      "time": 14,
      "duration": 0.25,
      "velocity": 0.82,
      "hand": "right"
    },
    {
      "midi": 70,
      "time": 14,
      "duration": 0.25,
      "velocity": 0.82,
      "hand": "right"
    },
    {
      "midi": 38,
      "time": 14.5,
      "duration": 0.25,
      "velocity": 0.82,
      "hand": "left"
    },
    {
      "midi": 45,
      "time": 14.5,
      "duration": 0.25,
      "velocity": 0.82,
      "hand": "left"
    },
    {
      "midi": 63,
      "time": 14.5,
      "duration": 0.25,
      "velocity": 0.82,
      "hand": "right"
    },
    {
      "midi": 72,
      "time": 14.5,
      "duration": 0.25,
      "velocity": 0.82,
      "hand": "right"
    },
    {
      "midi": 46,
      "time": 15,
      "duration": 1.485,
      "velocity": 0.86,
      "hand": "left"
    },
    {
      "midi": 62,
      "time": 15,
      "duration": 1.485,
      "velocity": 0.82,
      "hand": "right"
    },
    {
      "midi": 70,
      "time": 15,
      "duration": 1.485,
      "velocity": 0.88,
      "hand": "right"
    },
    {
      "midi": 52,
      "time": 15.5,
      "duration": 0.25,
      "velocity": 0.82,
      "hand": "left"
    },
    {
      "midi": 60,
      "time": 15.5,
      "duration": 0.25,
      "velocity": 0.82,
      "hand": "right"
    },
    {
      "midi": 52,
      "time": 16,
      "duration": 0.25,
      "velocity": 0.82,
      "hand": "left"
    },
    {
      "midi": 60,
      "time": 16,
      "duration": 0.25,
      "velocity": 0.82,
      "hand": "right"
    },
    {
      "midi": 46,
      "time": 16.5,
      "duration": 1,
      "velocity": 0.86,
      "hand": "left"
    },
    {
      "midi": 52,
      "time": 16.5,
      "duration": 0.25,
      "velocity": 0.82,
      "hand": "left"
    },
    {
      "midi": 60,
      "time": 16.5,
      "duration": 0.25,
      "velocity": 0.82,
      "hand": "right"
    },
    {
      "midi": 62,
      "time": 16.5,
      "duration": 1,
      "velocity": 0.82,
      "hand": "right"
    },
    {
      "midi": 70,
      "time": 16.5,
      "duration": 1,
      "velocity": 0.82,
      "hand": "right"
    },
    {
      "midi": 48,
      "time": 17,
      "duration": 0.25,
      "velocity": 0.82,
      "hand": "left"
    },
    {
      "midi": 47,
      "time": 17.25,
      "duration": 0.235,
      "velocity": 0.82,
      "hand": "left"
    },
    {
      "midi": 47,
      "time": 17.5,
      "duration": 0.25,
      "velocity": 0.82,
      "hand": "left"
    },
    {
      "midi": 45,
      "time": 17.75,
      "duration": 0.235,
      "velocity": 0.82,
      "hand": "left"
    },
    {
      "midi": 45,
      "time": 18,
      "duration": 0.25,
      "velocity": 0.82,
      "hand": "left"
    },
    {
      "midi": 51,
      "time": 18,
      "duration": 0.25,
      "velocity": 0.86,
      "hand": "left"
    },
    {
      "midi": 63,
      "time": 18,
      "duration": 0.25,
      "velocity": 0.82,
      "hand": "right"
    },
    {
      "midi": 67,
      "time": 18,
      "duration": 0.25,
      "velocity": 0.82,
      "hand": "right"
    },
    {
      "midi": 52,
      "time": 18.5,
      "duration": 0.25,
      "velocity": 0.82,
      "hand": "left"
    },
    {
      "midi": 63,
      "time": 18.5,
      "duration": 0.25,
      "velocity": 0.82,
      "hand": "right"
    },
    {
      "midi": 67,
      "time": 18.5,
      "duration": 0.25,
      "velocity": 0.82,
      "hand": "right"
    },
    {
      "midi": 45,
      "time": 19,
      "duration": 0.25,
      "velocity": 0.82,
      "hand": "left"
    },
    {
      "midi": 51,
      "time": 19,
      "duration": 0.25,
      "velocity": 0.86,
      "hand": "left"
    },
    {
      "midi": 63,
      "time": 19,
      "duration": 0.25,
      "velocity": 0.82,
      "hand": "right"
    },
    {
      "midi": 67,
      "time": 19,
      "duration": 0.25,
      "velocity": 0.82,
      "hand": "right"
    },
    {
      "midi": 45,
      "time": 19.5,
      "duration": 0.25,
      "velocity": 0.82,
      "hand": "left"
    },
    {
      "midi": 51,
      "time": 19.5,
      "duration": 0.25,
      "velocity": 0.86,
      "hand": "left"
    },
    {
      "midi": 67,
      "time": 19.5,
      "duration": 0.25,
      "velocity": 0.82,
      "hand": "right"
    },
    {
      "midi": 70,
      "time": 19.5,
      "duration": 0.25,
      "velocity": 0.82,
      "hand": "right"
    },
    {
      "midi": 52,
      "time": 20,
      "duration": 0.25,
      "velocity": 0.82,
      "hand": "left"
    },
    {
      "midi": 60,
      "time": 20,
      "duration": 0.25,
      "velocity": 0.82,
      "hand": "right"
    },
    {
      "midi": 65,
      "time": 20,
      "duration": 0.25,
      "velocity": 0.82,
      "hand": "right"
    },
    {
      "midi": 69,
      "time": 20,
      "duration": 0.25,
      "velocity": 0.82,
      "hand": "right"
    },
    {
      "midi": 38,
      "time": 20.5,
      "duration": 0.25,
      "velocity": 0.82,
      "hand": "left"
    },
    {
      "midi": 45,
      "time": 20.5,
      "duration": 0.25,
      "velocity": 0.82,
      "hand": "left"
    },
    {
      "midi": 63,
      "time": 20.5,
      "duration": 0.25,
      "velocity": 0.82,
      "hand": "right"
    },
    {
      "midi": 67,
      "time": 20.5,
      "duration": 0.25,
      "velocity": 0.82,
      "hand": "right"
    },
    {
      "midi": 46,
      "time": 21,
      "duration": 1,
      "velocity": 0.86,
      "hand": "left"
    },
    {
      "midi": 62,
      "time": 21,
      "duration": 1,
      "velocity": 0.82,
      "hand": "right"
    },
    {
      "midi": 65,
      "time": 21,
      "duration": 1,
      "velocity": 0.82,
      "hand": "right"
    },
    {
      "midi": 52,
      "time": 21.5,
      "duration": 0.25,
      "velocity": 0.82,
      "hand": "left"
    },
    {
      "midi": 45,
      "time": 22,
      "duration": 0.25,
      "velocity": 0.82,
      "hand": "left"
    },
    {
      "midi": 45,
      "time": 22.5,
      "duration": 0.25,
      "velocity": 0.82,
      "hand": "left"
    },
    {
      "midi": 50,
      "time": 22.5,
      "duration": 1,
      "velocity": 0.86,
      "hand": "left"
    },
    {
      "midi": 65,
      "time": 22.5,
      "duration": 1,
      "velocity": 0.82,
      "hand": "right"
    },
    {
      "midi": 70,
      "time": 22.5,
      "duration": 1,
      "velocity": 0.82,
      "hand": "right"
    },
    {
      "midi": 52,
      "time": 23,
      "duration": 0.25,
      "velocity": 0.82,
      "hand": "left"
    },
    {
      "midi": 60,
      "time": 23,
      "duration": 0.25,
      "velocity": 0.82,
      "hand": "right"
    },
    {
      "midi": 38,
      "time": 23.5,
      "duration": 0.25,
      "velocity": 0.82,
      "hand": "left"
    },
    {
      "midi": 45,
      "time": 23.5,
      "duration": 0.25,
      "velocity": 0.82,
      "hand": "left"
    },
    {
      "midi": 45,
      "time": 24,
      "duration": 0.25,
      "velocity": 0.82,
      "hand": "left"
    },
    {
      "midi": 55,
      "time": 24,
      "duration": 0.25,
      "velocity": 0.86,
      "hand": "left"
    },
    {
      "midi": 62,
      "time": 24,
      "duration": 0.25,
      "velocity": 0.86,
      "hand": "right"
    },
    {
      "midi": 67,
      "time": 24,
      "duration": 0.25,
      "velocity": 0.82,
      "hand": "right"
    },
    {
      "midi": 70,
      "time": 24,
      "duration": 0.25,
      "velocity": 0.82,
      "hand": "right"
    },
    {
      "midi": 52,
      "time": 24.5,
      "duration": 0.25,
      "velocity": 0.82,
      "hand": "left"
    },
    {
      "midi": 55,
      "time": 24.5,
      "duration": 0.25,
      "velocity": 0.86,
      "hand": "left"
    },
    {
      "midi": 62,
      "time": 24.5,
      "duration": 0.25,
      "velocity": 0.86,
      "hand": "right"
    },
    {
      "midi": 67,
      "time": 24.5,
      "duration": 0.25,
      "velocity": 0.82,
      "hand": "right"
    },
    {
      "midi": 70,
      "time": 24.5,
      "duration": 0.25,
      "velocity": 0.82,
      "hand": "right"
    },
    {
      "midi": 45,
      "time": 25,
      "duration": 0.25,
      "velocity": 0.82,
      "hand": "left"
    },
    {
      "midi": 53,
      "time": 25,
      "duration": 0.25,
      "velocity": 0.86,
      "hand": "left"
    },
    {
      "midi": 62,
      "time": 25,
      "duration": 0.25,
      "velocity": 0.86,
      "hand": "right"
    },
    {
      "midi": 67,
      "time": 25,
      "duration": 0.25,
      "velocity": 0.82,
      "hand": "right"
    },
    {
      "midi": 70,
      "time": 25,
      "duration": 0.25,
      "velocity": 0.82,
      "hand": "right"
    },
    {
      "midi": 45,
      "time": 25.5,
      "duration": 0.25,
      "velocity": 0.82,
      "hand": "left"
    },
    {
      "midi": 51,
      "time": 25.5,
      "duration": 0.25,
      "velocity": 0.86,
      "hand": "left"
    },
    {
      "midi": 63,
      "time": 25.5,
      "duration": 0.25,
      "velocity": 0.86,
      "hand": "right"
    },
    {
      "midi": 67,
      "time": 25.5,
      "duration": 0.25,
      "velocity": 0.82,
      "hand": "right"
    },
    {
      "midi": 70,
      "time": 25.5,
      "duration": 0.25,
      "velocity": 0.82,
      "hand": "right"
    },
    {
      "midi": 52,
      "time": 26,
      "duration": 0.25,
      "velocity": 0.82,
      "hand": "left"
    },
    {
      "midi": 60,
      "time": 26,
      "duration": 0.25,
      "velocity": 0.86,
      "hand": "right"
    },
    {
      "midi": 66,
      "time": 26,
      "duration": 0.25,
      "velocity": 0.82,
      "hand": "right"
    },
    {
      "midi": 69,
      "time": 26,
      "duration": 0.25,
      "velocity": 0.82,
      "hand": "right"
    },
    {
      "midi": 38,
      "time": 26.5,
      "duration": 0.25,
      "velocity": 0.82,
      "hand": "left"
    },
    {
      "midi": 45,
      "time": 26.5,
      "duration": 0.25,
      "velocity": 0.82,
      "hand": "left"
    },
    {
      "midi": 67,
      "time": 26.5,
      "duration": 0.25,
      "velocity": 0.82,
      "hand": "right"
    },
    {
      "midi": 70,
      "time": 26.5,
      "duration": 0.25,
      "velocity": 0.82,
      "hand": "right"
    },
    {
      "midi": 45,
      "time": 27,
      "duration": 0.25,
      "velocity": 0.82,
      "hand": "left"
    },
    {
      "midi": 53,
      "time": 27,
      "duration": 1.485,
      "velocity": 0.86,
      "hand": "left"
    },
    {
      "midi": 69,
      "time": 27,
      "duration": 1.485,
      "velocity": 0.82,
      "hand": "right"
    },
    {
      "midi": 72,
      "time": 27,
      "duration": 1.485,
      "velocity": 0.88,
      "hand": "right"
    },
    {
      "midi": 52,
      "time": 27.5,
      "duration": 0.25,
      "velocity": 0.82,
      "hand": "left"
    },
    {
      "midi": 60,
      "time": 27.5,
      "duration": 0.25,
      "velocity": 0.82,
      "hand": "right"
    },
    {
      "midi": 52,
      "time": 28,
      "duration": 0.25,
      "velocity": 0.82,
      "hand": "left"
    },
    {
      "midi": 60,
      "time": 28,
      "duration": 0.25,
      "velocity": 0.82,
      "hand": "right"
    },
    {
      "midi": 53,
      "time": 28.5,
      "duration": 1,
      "velocity": 0.86,
      "hand": "left"
    },
    {
      "midi": 60,
      "time": 28.5,
      "duration": 0.25,
      "velocity": 0.82,
      "hand": "right"
    },
    {
      "midi": 63,
      "time": 28.5,
      "duration": 1,
      "velocity": 0.86,
      "hand": "right"
    },
    {
      "midi": 69,
      "time": 28.5,
      "duration": 1,
      "velocity": 0.82,
      "hand": "right"
    },
    {
      "midi": 72,
      "time": 28.5,
      "duration": 1,
      "velocity": 0.82,
      "hand": "right"
    },
    {
      "midi": 48,
      "time": 29,
      "duration": 0.25,
      "velocity": 0.82,
      "hand": "left"
    },
    {
      "midi": 47,
      "time": 29.25,
      "duration": 0.235,
      "velocity": 0.82,
      "hand": "left"
    },
    {
      "midi": 47,
      "time": 29.5,
      "duration": 0.25,
      "velocity": 0.82,
      "hand": "left"
    },
    {
      "midi": 45,
      "time": 29.75,
      "duration": 0.235,
      "velocity": 0.82,
      "hand": "left"
    },
    {
      "midi": 46,
      "time": 30,
      "duration": 0.75,
      "velocity": 0.86,
      "hand": "left"
    },
    {
      "midi": 62,
      "time": 30,
      "duration": 0.75,
      "velocity": 0.86,
      "hand": "right"
    },
    {
      "midi": 70,
      "time": 30,
      "duration": 0.75,
      "velocity": 0.82,
      "hand": "right"
    },
    {
      "midi": 74,
      "time": 30,
      "duration": 1.485,
      "velocity": 0.88,
      "hand": "right"
    },
    {
      "midi": 52,
      "time": 30.5,
      "duration": 0.25,
      "velocity": 0.82,
      "hand": "left"
    },
    {
      "midi": 58,
      "time": 30.5,
      "duration": 0.25,
      "velocity": 0.86,
      "hand": "left"
    },
    {
      "midi": 65,
      "time": 30.5,
      "duration": 0.25,
      "velocity": 0.82,
      "hand": "right"
    },
    {
      "midi": 46,
      "time": 31,
      "duration": 0.25,
      "velocity": 0.86,
      "hand": "left"
    },
    {
      "midi": 65,
      "time": 31,
      "duration": 0.25,
      "velocity": 0.82,
      "hand": "right"
    },
    {
      "midi": 46,
      "time": 31.5,
      "duration": 0.25,
      "velocity": 0.86,
      "hand": "left"
    },
    {
      "midi": 74,
      "time": 31.5,
      "duration": 0.25,
      "velocity": 0.82,
      "hand": "right"
    },
    {
      "midi": 46,
      "time": 32,
      "duration": 0.25,
      "velocity": 0.86,
      "hand": "left"
    },
    {
      "midi": 52,
      "time": 32,
      "duration": 0.25,
      "velocity": 0.82,
      "hand": "left"
    },
    {
      "midi": 60,
      "time": 32,
      "duration": 0.25,
      "velocity": 0.82,
      "hand": "right"
    },
    {
      "midi": 64,
      "time": 32,
      "duration": 0.25,
      "velocity": 0.82,
      "hand": "right"
    },
    {
      "midi": 73,
      "time": 32,
      "duration": 0.25,
      "velocity": 0.82,
      "hand": "right"
    },
    {
      "midi": 38,
      "time": 32.5,
      "duration": 0.25,
      "velocity": 0.82,
      "hand": "left"
    },
    {
      "midi": 45,
      "time": 32.5,
      "duration": 0.25,
      "velocity": 0.82,
      "hand": "left"
    },
    {
      "midi": 65,
      "time": 32.5,
      "duration": 0.25,
      "velocity": 0.82,
      "hand": "right"
    },
    {
      "midi": 74,
      "time": 32.5,
      "duration": 0.25,
      "velocity": 0.82,
      "hand": "right"
    },
    {
      "midi": 46,
      "time": 33,
      "duration": 1,
      "velocity": 0.86,
      "hand": "left"
    },
    {
      "midi": 62,
      "time": 33,
      "duration": 1,
      "velocity": 0.82,
      "hand": "right"
    },
    {
      "midi": 70,
      "time": 33,
      "duration": 1,
      "velocity": 0.82,
      "hand": "right"
    },
    {
      "midi": 52,
      "time": 33.5,
      "duration": 0.25,
      "velocity": 0.82,
      "hand": "left"
    },
    {
      "midi": 45,
      "time": 34,
      "duration": 0.25,
      "velocity": 0.82,
      "hand": "left"
    },
    {
      "midi": 46,
      "time": 34.5,
      "duration": 1,
      "velocity": 0.86,
      "hand": "left"
    },
    {
      "midi": 62,
      "time": 34.5,
      "duration": 1,
      "velocity": 0.82,
      "hand": "right"
    },
    {
      "midi": 65,
      "time": 34.5,
      "duration": 1,
      "velocity": 0.82,
      "hand": "right"
    },
    {
      "midi": 52,
      "time": 35,
      "duration": 0.25,
      "velocity": 0.82,
      "hand": "left"
    },
    {
      "midi": 60,
      "time": 35,
      "duration": 0.25,
      "velocity": 0.82,
      "hand": "right"
    },
    {
      "midi": 38,
      "time": 35.5,
      "duration": 0.25,
      "velocity": 0.82,
      "hand": "left"
    },
    {
      "midi": 45,
      "time": 35.5,
      "duration": 0.25,
      "velocity": 0.82,
      "hand": "left"
    },
    {
      "midi": 46,
      "time": 36,
      "duration": 0.25,
      "velocity": 0.86,
      "hand": "left"
    },
    {
      "midi": 65,
      "time": 36,
      "duration": 0.25,
      "velocity": 0.82,
      "hand": "right"
    },
    {
      "midi": 74,
      "time": 36,
      "duration": 0.25,
      "velocity": 0.82,
      "hand": "right"
    },
    {
      "midi": 46,
      "time": 36.5,
      "duration": 0.25,
      "velocity": 0.86,
      "hand": "left"
    },
    {
      "midi": 52,
      "time": 36.5,
      "duration": 0.25,
      "velocity": 0.82,
      "hand": "left"
    },
    {
      "midi": 63,
      "time": 36.5,
      "duration": 0.25,
      "velocity": 0.82,
      "hand": "right"
    },
    {
      "midi": 72,
      "time": 36.5,
      "duration": 0.25,
      "velocity": 0.82,
      "hand": "right"
    },
    {
      "midi": 46,
      "time": 37,
      "duration": 0.25,
      "velocity": 0.86,
      "hand": "left"
    },
    {
      "midi": 62,
      "time": 37,
      "duration": 0.25,
      "velocity": 0.82,
      "hand": "right"
    },
    {
      "midi": 70,
      "time": 37,
      "duration": 0.25,
      "velocity": 0.82,
      "hand": "right"
    },
    {
      "midi": 45,
      "time": 37.5,
      "duration": 0.25,
      "velocity": 0.82,
      "hand": "left"
    },
    {
      "midi": 50,
      "time": 37.5,
      "duration": 0.25,
      "velocity": 0.86,
      "hand": "left"
    },
    {
      "midi": 65,
      "time": 37.5,
      "duration": 0.25,
      "velocity": 0.82,
      "hand": "right"
    },
    {
      "midi": 70,
      "time": 37.5,
      "duration": 0.25,
      "velocity": 0.82,
      "hand": "right"
    },
    {
      "midi": 48,
      "time": 38,
      "duration": 0.25,
      "velocity": 0.86,
      "hand": "left"
    },
    {
      "midi": 52,
      "time": 38,
      "duration": 0.25,
      "velocity": 0.82,
      "hand": "left"
    },
    {
      "midi": 60,
      "time": 38,
      "duration": 0.25,
      "velocity": 0.82,
      "hand": "right"
    },
    {
      "midi": 63,
      "time": 38,
      "duration": 0.25,
      "velocity": 0.82,
      "hand": "right"
    },
    {
      "midi": 69,
      "time": 38,
      "duration": 0.25,
      "velocity": 0.82,
      "hand": "right"
    },
    {
      "midi": 38,
      "time": 38.5,
      "duration": 0.25,
      "velocity": 0.82,
      "hand": "left"
    },
    {
      "midi": 45,
      "time": 38.5,
      "duration": 0.25,
      "velocity": 0.82,
      "hand": "left"
    },
    {
      "midi": 62,
      "time": 38.5,
      "duration": 0.25,
      "velocity": 0.82,
      "hand": "right"
    },
    {
      "midi": 70,
      "time": 38.5,
      "duration": 0.25,
      "velocity": 0.82,
      "hand": "right"
    },
    {
      "midi": 45,
      "time": 39,
      "duration": 0.25,
      "velocity": 0.82,
      "hand": "left"
    },
    {
      "midi": 53,
      "time": 39,
      "duration": 1.485,
      "velocity": 0.86,
      "hand": "left"
    },
    {
      "midi": 65,
      "time": 39,
      "duration": 1.485,
      "velocity": 0.82,
      "hand": "right"
    },
    {
      "midi": 72,
      "time": 39,
      "duration": 1.485,
      "velocity": 0.88,
      "hand": "right"
    },
    {
      "midi": 52,
      "time": 39.5,
      "duration": 0.25,
      "velocity": 0.82,
      "hand": "left"
    },
    {
      "midi": 60,
      "time": 39.5,
      "duration": 0.25,
      "velocity": 0.82,
      "hand": "right"
    },
    {
      "midi": 52,
      "time": 40,
      "duration": 0.25,
      "velocity": 0.82,
      "hand": "left"
    },
    {
      "midi": 60,
      "time": 40,
      "duration": 0.25,
      "velocity": 0.82,
      "hand": "right"
    },
    {
      "midi": 53,
      "time": 40.5,
      "duration": 1,
      "velocity": 0.86,
      "hand": "left"
    },
    {
      "midi": 60,
      "time": 40.5,
      "duration": 0.25,
      "velocity": 0.82,
      "hand": "right"
    },
    {
      "midi": 65,
      "time": 40.5,
      "duration": 1,
      "velocity": 0.82,
      "hand": "right"
    },
    {
      "midi": 72,
      "time": 40.5,
      "duration": 1,
      "velocity": 0.82,
      "hand": "right"
    },
    {
      "midi": 48,
      "time": 41,
      "duration": 0.25,
      "velocity": 0.82,
      "hand": "left"
    },
    {
      "midi": 47,
      "time": 41.25,
      "duration": 0.235,
      "velocity": 0.82,
      "hand": "left"
    },
    {
      "midi": 47,
      "time": 41.5,
      "duration": 0.25,
      "velocity": 0.82,
      "hand": "left"
    },
    {
      "midi": 45,
      "time": 41.75,
      "duration": 0.235,
      "velocity": 0.82,
      "hand": "left"
    },
    {
      "midi": 46,
      "time": 42,
      "duration": 0.25,
      "velocity": 0.86,
      "hand": "left"
    },
    {
      "midi": 65,
      "time": 42,
      "duration": 0.25,
      "velocity": 0.82,
      "hand": "right"
    },
    {
      "midi": 74,
      "time": 42,
      "duration": 0.25,
      "velocity": 0.82,
      "hand": "right"
    },
    {
      "midi": 46,
      "time": 42.5,
      "duration": 0.25,
      "velocity": 0.86,
      "hand": "left"
    },
    {
      "midi": 52,
      "time": 42.5,
      "duration": 0.25,
      "velocity": 0.82,
      "hand": "left"
    },
    {
      "midi": 65,
      "time": 42.5,
      "duration": 0.25,
      "velocity": 0.82,
      "hand": "right"
    },
    {
      "midi": 74,
      "time": 42.5,
      "duration": 0.25,
      "velocity": 0.82,
      "hand": "right"
    },
    {
      "midi": 46,
      "time": 43,
      "duration": 0.25,
      "velocity": 0.86,
      "hand": "left"
    },
    {
      "midi": 65,
      "time": 43,
      "duration": 0.25,
      "velocity": 0.82,
      "hand": "right"
    },
    {
      "midi": 74,
      "time": 43,
      "duration": 0.25,
      "velocity": 0.82,
      "hand": "right"
    },
    {
      "midi": 45,
      "time": 43.5,
      "duration": 0.25,
      "velocity": 0.82,
      "hand": "left"
    },
    {
      "midi": 51,
      "time": 43.5,
      "duration": 0.25,
      "velocity": 0.86,
      "hand": "left"
    },
    {
      "midi": 63,
      "time": 43.5,
      "duration": 0.25,
      "velocity": 0.82,
      "hand": "right"
    },
    {
      "midi": 72,
      "time": 43.5,
      "duration": 0.25,
      "velocity": 0.82,
      "hand": "right"
    },
    {
      "midi": 52,
      "time": 44,
      "duration": 0.25,
      "velocity": 0.82,
      "hand": "left"
    },
    {
      "midi": 60,
      "time": 44,
      "duration": 0.25,
      "velocity": 0.82,
      "hand": "right"
    },
    {
      "midi": 63,
      "time": 44,
      "duration": 0.25,
      "velocity": 0.82,
      "hand": "right"
    },
    {
      "midi": 70,
      "time": 44,
      "duration": 0.25,
      "velocity": 0.82,
      "hand": "right"
    },
    {
      "midi": 38,
      "time": 44.5,
      "duration": 0.25,
      "velocity": 0.82,
      "hand": "left"
    },
    {
      "midi": 45,
      "time": 44.5,
      "duration": 0.25,
      "velocity": 0.82,
      "hand": "left"
    },
    {
      "midi": 63,
      "time": 44.5,
      "duration": 0.25,
      "velocity": 0.82,
      "hand": "right"
    },
    {
      "midi": 67,
      "time": 44.5,
      "duration": 0.25,
      "velocity": 0.82,
      "hand": "right"
    },
    {
      "midi": 46,
      "time": 45,
      "duration": 1,
      "velocity": 0.86,
      "hand": "left"
    },
    {
      "midi": 62,
      "time": 45,
      "duration": 1,
      "velocity": 0.82,
      "hand": "right"
    },
    {
      "midi": 65,
      "time": 45,
      "duration": 1,
      "velocity": 0.82,
      "hand": "right"
    },
    {
      "midi": 52,
      "time": 45.5,
      "duration": 0.25,
      "velocity": 0.82,
      "hand": "left"
    },
    {
      "midi": 45,
      "time": 46,
      "duration": 0.25,
      "velocity": 0.82,
      "hand": "left"
    },
    {
      "midi": 46,
      "time": 46.5,
      "duration": 1,
      "velocity": 0.86,
      "hand": "left"
    },
    {
      "midi": 62,
      "time": 46.5,
      "duration": 0.985,
      "velocity": 0.82,
      "hand": "right"
    },
    {
      "midi": 70,
      "time": 46.5,
      "duration": 1,
      "velocity": 0.82,
      "hand": "right"
    },
    {
      "midi": 52,
      "time": 47,
      "duration": 0.25,
      "velocity": 0.82,
      "hand": "left"
    },
    {
      "midi": 58,
      "time": 47,
      "duration": 0.75,
      "velocity": 0.86,
      "hand": "left"
    },
    {
      "midi": 60,
      "time": 47,
      "duration": 0.25,
      "velocity": 0.82,
      "hand": "right"
    },
    {
      "midi": 38,
      "time": 47.5,
      "duration": 0.25,
      "velocity": 0.82,
      "hand": "left"
    },
    {
      "midi": 45,
      "time": 47.5,
      "duration": 0.25,
      "velocity": 0.82,
      "hand": "left"
    },
    {
      "midi": 62,
      "time": 47.5,
      "duration": 0.25,
      "velocity": 0.86,
      "hand": "right"
    },
    {
      "midi": 65,
      "time": 47.5,
      "duration": 0.25,
      "velocity": 0.82,
      "hand": "right"
    },
    {
      "midi": 45,
      "time": 48,
      "duration": 0.25,
      "velocity": 0.82,
      "hand": "left"
    },
    {
      "midi": 53,
      "time": 48,
      "duration": 0.25,
      "velocity": 0.86,
      "hand": "left"
    },
    {
      "midi": 60,
      "time": 48,
      "duration": 0.25,
      "velocity": 0.86,
      "hand": "right"
    },
    {
      "midi": 63,
      "time": 48,
      "duration": 0.25,
      "velocity": 0.82,
      "hand": "right"
    },
    {
      "midi": 69,
      "time": 48,
      "duration": 0.25,
      "velocity": 0.82,
      "hand": "right"
    },
    {
      "midi": 53,
      "time": 48.5,
      "duration": 0.25,
      "velocity": 0.86,
      "hand": "left"
    },
    {
      "midi": 60,
      "time": 48.5,
      "duration": 0.25,
      "velocity": 0.86,
      "hand": "right"
    },
    {
      "midi": 63,
      "time": 48.5,
      "duration": 0.25,
      "velocity": 0.82,
      "hand": "right"
    },
    {
      "midi": 69,
      "time": 48.5,
      "duration": 0.25,
      "velocity": 0.82,
      "hand": "right"
    },
    {
      "midi": 45,
      "time": 49,
      "duration": 0.25,
      "velocity": 0.82,
      "hand": "left"
    },
    {
      "midi": 53,
      "time": 49,
      "duration": 0.25,
      "velocity": 0.86,
      "hand": "left"
    },
    {
      "midi": 60,
      "time": 49,
      "duration": 0.25,
      "velocity": 0.86,
      "hand": "right"
    },
    {
      "midi": 63,
      "time": 49,
      "duration": 0.25,
      "velocity": 0.82,
      "hand": "right"
    },
    {
      "midi": 69,
      "time": 49,
      "duration": 0.25,
      "velocity": 0.82,
      "hand": "right"
    },
    {
      "midi": 45,
      "time": 49.5,
      "duration": 0.25,
      "velocity": 0.82,
      "hand": "left"
    },
    {
      "midi": 53,
      "time": 49.5,
      "duration": 0.25,
      "velocity": 0.86,
      "hand": "left"
    },
    {
      "midi": 60,
      "time": 49.5,
      "duration": 0.25,
      "velocity": 0.86,
      "hand": "right"
    },
    {
      "midi": 63,
      "time": 49.5,
      "duration": 0.25,
      "velocity": 0.82,
      "hand": "right"
    },
    {
      "midi": 69,
      "time": 49.5,
      "duration": 0.25,
      "velocity": 0.82,
      "hand": "right"
    },
    {
      "midi": 53,
      "time": 50,
      "duration": 0.25,
      "velocity": 0.86,
      "hand": "left"
    },
    {
      "midi": 60,
      "time": 50,
      "duration": 0.25,
      "velocity": 0.82,
      "hand": "right"
    },
    {
      "midi": 63,
      "time": 50,
      "duration": 0.25,
      "velocity": 0.82,
      "hand": "right"
    },
    {
      "midi": 70,
      "time": 50,
      "duration": 0.25,
      "velocity": 0.82,
      "hand": "right"
    },
    {
      "midi": 38,
      "time": 50.5,
      "duration": 0.25,
      "velocity": 0.82,
      "hand": "left"
    },
    {
      "midi": 45,
      "time": 50.5,
      "duration": 0.25,
      "velocity": 0.82,
      "hand": "left"
    },
    {
      "midi": 63,
      "time": 50.5,
      "duration": 0.25,
      "velocity": 0.82,
      "hand": "right"
    },
    {
      "midi": 72,
      "time": 50.5,
      "duration": 0.25,
      "velocity": 0.82,
      "hand": "right"
    },
    {
      "midi": 46,
      "time": 51,
      "duration": 1.485,
      "velocity": 0.86,
      "hand": "left"
    },
    {
      "midi": 62,
      "time": 51,
      "duration": 1.485,
      "velocity": 0.82,
      "hand": "right"
    },
    {
      "midi": 70,
      "time": 51,
      "duration": 1.485,
      "velocity": 0.88,
      "hand": "right"
    },
    {
      "midi": 52,
      "time": 51.5,
      "duration": 0.25,
      "velocity": 0.82,
      "hand": "left"
    },
    {
      "midi": 60,
      "time": 51.5,
      "duration": 0.25,
      "velocity": 0.82,
      "hand": "right"
    },
    {
      "midi": 52,
      "time": 52,
      "duration": 0.25,
      "velocity": 0.82,
      "hand": "left"
    },
    {
      "midi": 60,
      "time": 52,
      "duration": 0.25,
      "velocity": 0.82,
      "hand": "right"
    },
    {
      "midi": 46,
      "time": 52.5,
      "duration": 1,
      "velocity": 0.86,
      "hand": "left"
    },
    {
      "midi": 52,
      "time": 52.5,
      "duration": 0.25,
      "velocity": 0.82,
      "hand": "left"
    },
    {
      "midi": 60,
      "time": 52.5,
      "duration": 0.25,
      "velocity": 0.82,
      "hand": "right"
    },
    {
      "midi": 62,
      "time": 52.5,
      "duration": 1,
      "velocity": 0.82,
      "hand": "right"
    },
    {
      "midi": 70,
      "time": 52.5,
      "duration": 1,
      "velocity": 0.82,
      "hand": "right"
    },
    {
      "midi": 48,
      "time": 53,
      "duration": 0.25,
      "velocity": 0.82,
      "hand": "left"
    },
    {
      "midi": 47,
      "time": 53.25,
      "duration": 0.235,
      "velocity": 0.82,
      "hand": "left"
    },
    {
      "midi": 47,
      "time": 53.5,
      "duration": 0.25,
      "velocity": 0.82,
      "hand": "left"
    },
    {
      "midi": 45,
      "time": 53.75,
      "duration": 0.235,
      "velocity": 0.82,
      "hand": "left"
    },
    {
      "midi": 46,
      "time": 54,
      "duration": 0.25,
      "velocity": 0.86,
      "hand": "left"
    },
    {
      "midi": 62,
      "time": 54,
      "duration": 0.25,
      "velocity": 0.82,
      "hand": "right"
    },
    {
      "midi": 65,
      "time": 54,
      "duration": 0.25,
      "velocity": 0.82,
      "hand": "right"
    },
    {
      "midi": 46,
      "time": 54.5,
      "duration": 0.25,
      "velocity": 0.86,
      "hand": "left"
    },
    {
      "midi": 52,
      "time": 54.5,
      "duration": 0.25,
      "velocity": 0.82,
      "hand": "left"
    },
    {
      "midi": 62,
      "time": 54.5,
      "duration": 0.25,
      "velocity": 0.82,
      "hand": "right"
    },
    {
      "midi": 65,
      "time": 54.5,
      "duration": 0.25,
      "velocity": 0.82,
      "hand": "right"
    },
    {
      "midi": 46,
      "time": 55,
      "duration": 0.25,
      "velocity": 0.86,
      "hand": "left"
    },
    {
      "midi": 62,
      "time": 55,
      "duration": 0.25,
      "velocity": 0.82,
      "hand": "right"
    },
    {
      "midi": 65,
      "time": 55,
      "duration": 0.25,
      "velocity": 0.82,
      "hand": "right"
    },
    {
      "midi": 45,
      "time": 55.5,
      "duration": 0.25,
      "velocity": 0.82,
      "hand": "left"
    },
    {
      "midi": 53,
      "time": 55.5,
      "duration": 0.25,
      "velocity": 0.86,
      "hand": "left"
    },
    {
      "midi": 63,
      "time": 55.5,
      "duration": 0.25,
      "velocity": 0.82,
      "hand": "right"
    },
    {
      "midi": 65,
      "time": 55.5,
      "duration": 0.25,
      "velocity": 0.82,
      "hand": "right"
    },
    {
      "midi": 53,
      "time": 56,
      "duration": 0.25,
      "velocity": 0.86,
      "hand": "left"
    },
    {
      "midi": 60,
      "time": 56,
      "duration": 0.25,
      "velocity": 0.82,
      "hand": "right"
    },
    {
      "midi": 63,
      "time": 56,
      "duration": 0.25,
      "velocity": 0.82,
      "hand": "right"
    },
    {
      "midi": 67,
      "time": 56,
      "duration": 0.25,
      "velocity": 0.82,
      "hand": "right"
    },
    {
      "midi": 38,
      "time": 56.5,
      "duration": 0.25,
      "velocity": 0.82,
      "hand": "left"
    },
    {
      "midi": 45,
      "time": 56.5,
      "duration": 0.25,
      "velocity": 0.82,
      "hand": "left"
    },
    {
      "midi": 60,
      "time": 56.5,
      "duration": 0.25,
      "velocity": 0.86,
      "hand": "right"
    },
    {
      "midi": 63,
      "time": 56.5,
      "duration": 0.25,
      "velocity": 0.82,
      "hand": "right"
    },
    {
      "midi": 69,
      "time": 56.5,
      "duration": 0.25,
      "velocity": 0.82,
      "hand": "right"
    },
    {
      "midi": 46,
      "time": 57,
      "duration": 1,
      "velocity": 0.86,
      "hand": "left"
    },
    {
      "midi": 62,
      "time": 57,
      "duration": 1,
      "velocity": 0.82,
      "hand": "right"
    },
    {
      "midi": 70,
      "time": 57,
      "duration": 1,
      "velocity": 0.82,
      "hand": "right"
    },
    {
      "midi": 52,
      "time": 57.5,
      "duration": 0.25,
      "velocity": 0.82,
      "hand": "left"
    },
    {
      "midi": 45,
      "time": 58,
      "duration": 0.25,
      "velocity": 0.82,
      "hand": "left"
    },
    {
      "midi": 46,
      "time": 58.5,
      "duration": 1,
      "velocity": 0.86,
      "hand": "left"
    },
    {
      "midi": 62,
      "time": 58.5,
      "duration": 0.985,
      "velocity": 0.82,
      "hand": "right"
    },
    {
      "midi": 65,
      "time": 58.5,
      "duration": 1,
      "velocity": 0.82,
      "hand": "right"
    },
    {
      "midi": 52,
      "time": 59,
      "duration": 0.25,
      "velocity": 0.82,
      "hand": "left"
    },
    {
      "midi": 60,
      "time": 59,
      "duration": 0.25,
      "velocity": 0.82,
      "hand": "right"
    },
    {
      "midi": 38,
      "time": 59.5,
      "duration": 0.25,
      "velocity": 0.82,
      "hand": "left"
    },
    {
      "midi": 45,
      "time": 59.5,
      "duration": 0.25,
      "velocity": 0.82,
      "hand": "left"
    },
    {
      "midi": 62,
      "time": 59.5,
      "duration": 0.25,
      "velocity": 0.86,
      "hand": "right"
    },
    {
      "midi": 45,
      "time": 60,
      "duration": 0.25,
      "velocity": 0.82,
      "hand": "left"
    },
    {
      "midi": 53,
      "time": 60,
      "duration": 0.25,
      "velocity": 0.86,
      "hand": "left"
    },
    {
      "midi": 60,
      "time": 60,
      "duration": 0.25,
      "velocity": 0.86,
      "hand": "right"
    },
    {
      "midi": 65,
      "time": 60,
      "duration": 0.25,
      "velocity": 0.82,
      "hand": "right"
    },
    {
      "midi": 69,
      "time": 60,
      "duration": 0.25,
      "velocity": 0.82,
      "hand": "right"
    },
    {
      "midi": 53,
      "time": 60.5,
      "duration": 0.25,
      "velocity": 0.86,
      "hand": "left"
    },
    {
      "midi": 60,
      "time": 60.5,
      "duration": 0.25,
      "velocity": 0.86,
      "hand": "right"
    },
    {
      "midi": 65,
      "time": 60.5,
      "duration": 0.25,
      "velocity": 0.82,
      "hand": "right"
    },
    {
      "midi": 69,
      "time": 60.5,
      "duration": 0.25,
      "velocity": 0.82,
      "hand": "right"
    },
    {
      "midi": 45,
      "time": 61,
      "duration": 0.25,
      "velocity": 0.82,
      "hand": "left"
    },
    {
      "midi": 53,
      "time": 61,
      "duration": 0.25,
      "velocity": 0.86,
      "hand": "left"
    },
    {
      "midi": 60,
      "time": 61,
      "duration": 0.25,
      "velocity": 0.86,
      "hand": "right"
    },
    {
      "midi": 65,
      "time": 61,
      "duration": 0.25,
      "velocity": 0.82,
      "hand": "right"
    },
    {
      "midi": 69,
      "time": 61,
      "duration": 0.25,
      "velocity": 0.82,
      "hand": "right"
    },
    {
      "midi": 45,
      "time": 61.5,
      "duration": 0.25,
      "velocity": 0.82,
      "hand": "left"
    },
    {
      "midi": 53,
      "time": 61.5,
      "duration": 0.25,
      "velocity": 0.86,
      "hand": "left"
    },
    {
      "midi": 60,
      "time": 61.5,
      "duration": 0.25,
      "velocity": 0.86,
      "hand": "right"
    },
    {
      "midi": 63,
      "time": 61.5,
      "duration": 0.25,
      "velocity": 0.82,
      "hand": "right"
    },
    {
      "midi": 69,
      "time": 61.5,
      "duration": 0.25,
      "velocity": 0.82,
      "hand": "right"
    },
    {
      "midi": 53,
      "time": 62,
      "duration": 0.25,
      "velocity": 0.86,
      "hand": "left"
    },
    {
      "midi": 60,
      "time": 62,
      "duration": 0.25,
      "velocity": 0.82,
      "hand": "right"
    },
    {
      "midi": 63,
      "time": 62,
      "duration": 0.25,
      "velocity": 0.82,
      "hand": "right"
    },
    {
      "midi": 70,
      "time": 62,
      "duration": 0.25,
      "velocity": 0.82,
      "hand": "right"
    },
    {
      "midi": 38,
      "time": 62.5,
      "duration": 0.25,
      "velocity": 0.82,
      "hand": "left"
    },
    {
      "midi": 45,
      "time": 62.5,
      "duration": 0.25,
      "velocity": 0.82,
      "hand": "left"
    },
    {
      "midi": 63,
      "time": 62.5,
      "duration": 0.25,
      "velocity": 0.82,
      "hand": "right"
    },
    {
      "midi": 72,
      "time": 62.5,
      "duration": 0.25,
      "velocity": 0.82,
      "hand": "right"
    },
    {
      "midi": 46,
      "time": 63,
      "duration": 1.485,
      "velocity": 0.86,
      "hand": "left"
    },
    {
      "midi": 62,
      "time": 63,
      "duration": 1.485,
      "velocity": 0.82,
      "hand": "right"
    },
    {
      "midi": 70,
      "time": 63,
      "duration": 1.485,
      "velocity": 0.88,
      "hand": "right"
    },
    {
      "midi": 52,
      "time": 63.5,
      "duration": 0.25,
      "velocity": 0.82,
      "hand": "left"
    },
    {
      "midi": 60,
      "time": 63.5,
      "duration": 0.25,
      "velocity": 0.82,
      "hand": "right"
    },
    {
      "midi": 52,
      "time": 64,
      "duration": 0.25,
      "velocity": 0.82,
      "hand": "left"
    },
    {
      "midi": 60,
      "time": 64,
      "duration": 0.25,
      "velocity": 0.82,
      "hand": "right"
    },
    {
      "midi": 46,
      "time": 64.5,
      "duration": 1,
      "velocity": 0.86,
      "hand": "left"
    },
    {
      "midi": 52,
      "time": 64.5,
      "duration": 0.25,
      "velocity": 0.82,
      "hand": "left"
    },
    {
      "midi": 60,
      "time": 64.5,
      "duration": 0.25,
      "velocity": 0.82,
      "hand": "right"
    },
    {
      "midi": 62,
      "time": 64.5,
      "duration": 1,
      "velocity": 0.82,
      "hand": "right"
    },
    {
      "midi": 70,
      "time": 64.5,
      "duration": 1,
      "velocity": 0.82,
      "hand": "right"
    },
    {
      "midi": 48,
      "time": 65,
      "duration": 0.25,
      "velocity": 0.82,
      "hand": "left"
    },
    {
      "midi": 47,
      "time": 65.25,
      "duration": 0.235,
      "velocity": 0.82,
      "hand": "left"
    },
    {
      "midi": 47,
      "time": 65.5,
      "duration": 0.25,
      "velocity": 0.82,
      "hand": "left"
    },
    {
      "midi": 45,
      "time": 65.75,
      "duration": 0.235,
      "velocity": 0.82,
      "hand": "left"
    },
    {
      "midi": 45,
      "time": 66,
      "duration": 0.25,
      "velocity": 0.82,
      "hand": "left"
    },
    {
      "midi": 51,
      "time": 66,
      "duration": 0.25,
      "velocity": 0.86,
      "hand": "left"
    },
    {
      "midi": 63,
      "time": 66,
      "duration": 0.25,
      "velocity": 0.82,
      "hand": "right"
    },
    {
      "midi": 67,
      "time": 66,
      "duration": 0.25,
      "velocity": 0.82,
      "hand": "right"
    },
    {
      "midi": 52,
      "time": 66.5,
      "duration": 0.25,
      "velocity": 0.82,
      "hand": "left"
    },
    {
      "midi": 63,
      "time": 66.5,
      "duration": 0.25,
      "velocity": 0.82,
      "hand": "right"
    },
    {
      "midi": 67,
      "time": 66.5,
      "duration": 0.25,
      "velocity": 0.82,
      "hand": "right"
    },
    {
      "midi": 45,
      "time": 67,
      "duration": 0.25,
      "velocity": 0.82,
      "hand": "left"
    },
    {
      "midi": 51,
      "time": 67,
      "duration": 0.25,
      "velocity": 0.86,
      "hand": "left"
    },
    {
      "midi": 63,
      "time": 67,
      "duration": 0.25,
      "velocity": 0.82,
      "hand": "right"
    },
    {
      "midi": 67,
      "time": 67,
      "duration": 0.25,
      "velocity": 0.82,
      "hand": "right"
    },
    {
      "midi": 45,
      "time": 67.5,
      "duration": 0.25,
      "velocity": 0.82,
      "hand": "left"
    },
    {
      "midi": 51,
      "time": 67.5,
      "duration": 0.25,
      "velocity": 0.86,
      "hand": "left"
    },
    {
      "midi": 67,
      "time": 67.5,
      "duration": 0.25,
      "velocity": 0.82,
      "hand": "right"
    },
    {
      "midi": 70,
      "time": 67.5,
      "duration": 0.25,
      "velocity": 0.82,
      "hand": "right"
    },
    {
      "midi": 52,
      "time": 68,
      "duration": 0.25,
      "velocity": 0.82,
      "hand": "left"
    },
    {
      "midi": 60,
      "time": 68,
      "duration": 0.25,
      "velocity": 0.82,
      "hand": "right"
    },
    {
      "midi": 65,
      "time": 68,
      "duration": 0.25,
      "velocity": 0.82,
      "hand": "right"
    },
    {
      "midi": 69,
      "time": 68,
      "duration": 0.25,
      "velocity": 0.82,
      "hand": "right"
    },
    {
      "midi": 38,
      "time": 68.5,
      "duration": 0.25,
      "velocity": 0.82,
      "hand": "left"
    },
    {
      "midi": 45,
      "time": 68.5,
      "duration": 0.25,
      "velocity": 0.82,
      "hand": "left"
    },
    {
      "midi": 63,
      "time": 68.5,
      "duration": 0.25,
      "velocity": 0.82,
      "hand": "right"
    },
    {
      "midi": 67,
      "time": 68.5,
      "duration": 0.25,
      "velocity": 0.82,
      "hand": "right"
    },
    {
      "midi": 46,
      "time": 69,
      "duration": 1,
      "velocity": 0.86,
      "hand": "left"
    },
    {
      "midi": 62,
      "time": 69,
      "duration": 1,
      "velocity": 0.82,
      "hand": "right"
    },
    {
      "midi": 65,
      "time": 69,
      "duration": 1,
      "velocity": 0.82,
      "hand": "right"
    },
    {
      "midi": 52,
      "time": 69.5,
      "duration": 0.25,
      "velocity": 0.82,
      "hand": "left"
    },
    {
      "midi": 45,
      "time": 70,
      "duration": 0.25,
      "velocity": 0.82,
      "hand": "left"
    },
    {
      "midi": 45,
      "time": 70.5,
      "duration": 0.25,
      "velocity": 0.82,
      "hand": "left"
    },
    {
      "midi": 50,
      "time": 70.5,
      "duration": 1,
      "velocity": 0.86,
      "hand": "left"
    },
    {
      "midi": 65,
      "time": 70.5,
      "duration": 1,
      "velocity": 0.82,
      "hand": "right"
    },
    {
      "midi": 70,
      "time": 70.5,
      "duration": 1,
      "velocity": 0.82,
      "hand": "right"
    },
    {
      "midi": 52,
      "time": 71,
      "duration": 0.25,
      "velocity": 0.82,
      "hand": "left"
    },
    {
      "midi": 60,
      "time": 71,
      "duration": 0.25,
      "velocity": 0.82,
      "hand": "right"
    },
    {
      "midi": 38,
      "time": 71.5,
      "duration": 0.25,
      "velocity": 0.82,
      "hand": "left"
    },
    {
      "midi": 45,
      "time": 71.5,
      "duration": 0.25,
      "velocity": 0.82,
      "hand": "left"
    },
    {
      "midi": 45,
      "time": 72,
      "duration": 0.25,
      "velocity": 0.82,
      "hand": "left"
    },
    {
      "midi": 55,
      "time": 72,
      "duration": 0.25,
      "velocity": 0.86,
      "hand": "left"
    },
    {
      "midi": 62,
      "time": 72,
      "duration": 0.25,
      "velocity": 0.86,
      "hand": "right"
    },
    {
      "midi": 67,
      "time": 72,
      "duration": 0.25,
      "velocity": 0.82,
      "hand": "right"
    },
    {
      "midi": 70,
      "time": 72,
      "duration": 0.25,
      "velocity": 0.82,
      "hand": "right"
    },
    {
      "midi": 52,
      "time": 72.5,
      "duration": 0.25,
      "velocity": 0.82,
      "hand": "left"
    },
    {
      "midi": 55,
      "time": 72.5,
      "duration": 0.25,
      "velocity": 0.86,
      "hand": "left"
    },
    {
      "midi": 62,
      "time": 72.5,
      "duration": 0.25,
      "velocity": 0.86,
      "hand": "right"
    },
    {
      "midi": 67,
      "time": 72.5,
      "duration": 0.25,
      "velocity": 0.82,
      "hand": "right"
    },
    {
      "midi": 70,
      "time": 72.5,
      "duration": 0.25,
      "velocity": 0.82,
      "hand": "right"
    },
    {
      "midi": 45,
      "time": 73,
      "duration": 0.25,
      "velocity": 0.82,
      "hand": "left"
    },
    {
      "midi": 53,
      "time": 73,
      "duration": 0.25,
      "velocity": 0.86,
      "hand": "left"
    },
    {
      "midi": 62,
      "time": 73,
      "duration": 0.25,
      "velocity": 0.86,
      "hand": "right"
    },
    {
      "midi": 67,
      "time": 73,
      "duration": 0.25,
      "velocity": 0.82,
      "hand": "right"
    },
    {
      "midi": 70,
      "time": 73,
      "duration": 0.25,
      "velocity": 0.82,
      "hand": "right"
    },
    {
      "midi": 45,
      "time": 73.5,
      "duration": 0.25,
      "velocity": 0.82,
      "hand": "left"
    },
    {
      "midi": 51,
      "time": 73.5,
      "duration": 0.25,
      "velocity": 0.86,
      "hand": "left"
    },
    {
      "midi": 63,
      "time": 73.5,
      "duration": 0.25,
      "velocity": 0.86,
      "hand": "right"
    },
    {
      "midi": 67,
      "time": 73.5,
      "duration": 0.25,
      "velocity": 0.82,
      "hand": "right"
    },
    {
      "midi": 70,
      "time": 73.5,
      "duration": 0.25,
      "velocity": 0.82,
      "hand": "right"
    },
    {
      "midi": 52,
      "time": 74,
      "duration": 0.25,
      "velocity": 0.82,
      "hand": "left"
    },
    {
      "midi": 60,
      "time": 74,
      "duration": 0.25,
      "velocity": 0.86,
      "hand": "right"
    },
    {
      "midi": 66,
      "time": 74,
      "duration": 0.25,
      "velocity": 0.82,
      "hand": "right"
    },
    {
      "midi": 69,
      "time": 74,
      "duration": 0.25,
      "velocity": 0.82,
      "hand": "right"
    },
    {
      "midi": 38,
      "time": 74.5,
      "duration": 0.25,
      "velocity": 0.82,
      "hand": "left"
    },
    {
      "midi": 45,
      "time": 74.5,
      "duration": 0.25,
      "velocity": 0.82,
      "hand": "left"
    },
    {
      "midi": 67,
      "time": 74.5,
      "duration": 0.25,
      "velocity": 0.82,
      "hand": "right"
    },
    {
      "midi": 70,
      "time": 74.5,
      "duration": 0.25,
      "velocity": 0.82,
      "hand": "right"
    },
    {
      "midi": 45,
      "time": 75,
      "duration": 0.25,
      "velocity": 0.82,
      "hand": "left"
    },
    {
      "midi": 53,
      "time": 75,
      "duration": 1.485,
      "velocity": 0.86,
      "hand": "left"
    },
    {
      "midi": 69,
      "time": 75,
      "duration": 1.485,
      "velocity": 0.82,
      "hand": "right"
    },
    {
      "midi": 72,
      "time": 75,
      "duration": 1.485,
      "velocity": 0.88,
      "hand": "right"
    },
    {
      "midi": 52,
      "time": 75.5,
      "duration": 0.25,
      "velocity": 0.82,
      "hand": "left"
    },
    {
      "midi": 60,
      "time": 75.5,
      "duration": 0.25,
      "velocity": 0.82,
      "hand": "right"
    },
    {
      "midi": 52,
      "time": 76,
      "duration": 0.25,
      "velocity": 0.82,
      "hand": "left"
    },
    {
      "midi": 60,
      "time": 76,
      "duration": 0.25,
      "velocity": 0.82,
      "hand": "right"
    },
    {
      "midi": 53,
      "time": 76.5,
      "duration": 1,
      "velocity": 0.86,
      "hand": "left"
    },
    {
      "midi": 60,
      "time": 76.5,
      "duration": 0.25,
      "velocity": 0.82,
      "hand": "right"
    },
    {
      "midi": 63,
      "time": 76.5,
      "duration": 1,
      "velocity": 0.86,
      "hand": "right"
    },
    {
      "midi": 69,
      "time": 76.5,
      "duration": 1,
      "velocity": 0.82,
      "hand": "right"
    },
    {
      "midi": 72,
      "time": 76.5,
      "duration": 1,
      "velocity": 0.82,
      "hand": "right"
    },
    {
      "midi": 48,
      "time": 77,
      "duration": 0.25,
      "velocity": 0.82,
      "hand": "left"
    },
    {
      "midi": 47,
      "time": 77.25,
      "duration": 0.235,
      "velocity": 0.82,
      "hand": "left"
    },
    {
      "midi": 47,
      "time": 77.5,
      "duration": 0.25,
      "velocity": 0.82,
      "hand": "left"
    },
    {
      "midi": 45,
      "time": 77.75,
      "duration": 0.235,
      "velocity": 0.82,
      "hand": "left"
    },
    {
      "midi": 46,
      "time": 78,
      "duration": 0.75,
      "velocity": 0.86,
      "hand": "left"
    },
    {
      "midi": 62,
      "time": 78,
      "duration": 0.75,
      "velocity": 0.86,
      "hand": "right"
    },
    {
      "midi": 70,
      "time": 78,
      "duration": 0.75,
      "velocity": 0.82,
      "hand": "right"
    },
    {
      "midi": 74,
      "time": 78,
      "duration": 1.485,
      "velocity": 0.88,
      "hand": "right"
    },
    {
      "midi": 52,
      "time": 78.5,
      "duration": 0.25,
      "velocity": 0.82,
      "hand": "left"
    },
    {
      "midi": 58,
      "time": 78.5,
      "duration": 0.25,
      "velocity": 0.86,
      "hand": "left"
    },
    {
      "midi": 65,
      "time": 78.5,
      "duration": 0.25,
      "velocity": 0.82,
      "hand": "right"
    },
    {
      "midi": 46,
      "time": 79,
      "duration": 0.25,
      "velocity": 0.86,
      "hand": "left"
    },
    {
      "midi": 65,
      "time": 79,
      "duration": 0.25,
      "velocity": 0.82,
      "hand": "right"
    },
    {
      "midi": 46,
      "time": 79.5,
      "duration": 0.25,
      "velocity": 0.86,
      "hand": "left"
    },
    {
      "midi": 74,
      "time": 79.5,
      "duration": 0.25,
      "velocity": 0.82,
      "hand": "right"
    },
    {
      "midi": 46,
      "time": 80,
      "duration": 0.25,
      "velocity": 0.86,
      "hand": "left"
    },
    {
      "midi": 52,
      "time": 80,
      "duration": 0.25,
      "velocity": 0.82,
      "hand": "left"
    },
    {
      "midi": 60,
      "time": 80,
      "duration": 0.25,
      "velocity": 0.82,
      "hand": "right"
    },
    {
      "midi": 64,
      "time": 80,
      "duration": 0.25,
      "velocity": 0.82,
      "hand": "right"
    },
    {
      "midi": 73,
      "time": 80,
      "duration": 0.25,
      "velocity": 0.82,
      "hand": "right"
    },
    {
      "midi": 38,
      "time": 80.5,
      "duration": 0.25,
      "velocity": 0.82,
      "hand": "left"
    },
    {
      "midi": 45,
      "time": 80.5,
      "duration": 0.25,
      "velocity": 0.82,
      "hand": "left"
    },
    {
      "midi": 65,
      "time": 80.5,
      "duration": 0.25,
      "velocity": 0.82,
      "hand": "right"
    },
    {
      "midi": 74,
      "time": 80.5,
      "duration": 0.25,
      "velocity": 0.82,
      "hand": "right"
    },
    {
      "midi": 46,
      "time": 81,
      "duration": 1,
      "velocity": 0.86,
      "hand": "left"
    },
    {
      "midi": 62,
      "time": 81,
      "duration": 1,
      "velocity": 0.82,
      "hand": "right"
    },
    {
      "midi": 70,
      "time": 81,
      "duration": 1,
      "velocity": 0.82,
      "hand": "right"
    },
    {
      "midi": 52,
      "time": 81.5,
      "duration": 0.25,
      "velocity": 0.82,
      "hand": "left"
    },
    {
      "midi": 45,
      "time": 82,
      "duration": 0.25,
      "velocity": 0.82,
      "hand": "left"
    },
    {
      "midi": 46,
      "time": 82.5,
      "duration": 1,
      "velocity": 0.86,
      "hand": "left"
    },
    {
      "midi": 62,
      "time": 82.5,
      "duration": 1,
      "velocity": 0.82,
      "hand": "right"
    },
    {
      "midi": 65,
      "time": 82.5,
      "duration": 1,
      "velocity": 0.82,
      "hand": "right"
    },
    {
      "midi": 52,
      "time": 83,
      "duration": 0.25,
      "velocity": 0.82,
      "hand": "left"
    },
    {
      "midi": 60,
      "time": 83,
      "duration": 0.25,
      "velocity": 0.82,
      "hand": "right"
    },
    {
      "midi": 38,
      "time": 83.5,
      "duration": 0.25,
      "velocity": 0.82,
      "hand": "left"
    },
    {
      "midi": 45,
      "time": 83.5,
      "duration": 0.25,
      "velocity": 0.82,
      "hand": "left"
    },
    {
      "midi": 46,
      "time": 84,
      "duration": 0.25,
      "velocity": 0.86,
      "hand": "left"
    },
    {
      "midi": 65,
      "time": 84,
      "duration": 0.25,
      "velocity": 0.82,
      "hand": "right"
    },
    {
      "midi": 74,
      "time": 84,
      "duration": 0.25,
      "velocity": 0.82,
      "hand": "right"
    },
    {
      "midi": 46,
      "time": 84.5,
      "duration": 0.25,
      "velocity": 0.86,
      "hand": "left"
    },
    {
      "midi": 52,
      "time": 84.5,
      "duration": 0.25,
      "velocity": 0.82,
      "hand": "left"
    },
    {
      "midi": 63,
      "time": 84.5,
      "duration": 0.25,
      "velocity": 0.82,
      "hand": "right"
    },
    {
      "midi": 72,
      "time": 84.5,
      "duration": 0.25,
      "velocity": 0.82,
      "hand": "right"
    },
    {
      "midi": 46,
      "time": 85,
      "duration": 0.25,
      "velocity": 0.86,
      "hand": "left"
    },
    {
      "midi": 62,
      "time": 85,
      "duration": 0.25,
      "velocity": 0.82,
      "hand": "right"
    },
    {
      "midi": 70,
      "time": 85,
      "duration": 0.25,
      "velocity": 0.82,
      "hand": "right"
    },
    {
      "midi": 45,
      "time": 85.5,
      "duration": 0.25,
      "velocity": 0.82,
      "hand": "left"
    },
    {
      "midi": 50,
      "time": 85.5,
      "duration": 0.25,
      "velocity": 0.86,
      "hand": "left"
    },
    {
      "midi": 65,
      "time": 85.5,
      "duration": 0.25,
      "velocity": 0.82,
      "hand": "right"
    },
    {
      "midi": 70,
      "time": 85.5,
      "duration": 0.25,
      "velocity": 0.82,
      "hand": "right"
    },
    {
      "midi": 48,
      "time": 86,
      "duration": 0.25,
      "velocity": 0.86,
      "hand": "left"
    },
    {
      "midi": 52,
      "time": 86,
      "duration": 0.25,
      "velocity": 0.82,
      "hand": "left"
    },
    {
      "midi": 60,
      "time": 86,
      "duration": 0.25,
      "velocity": 0.82,
      "hand": "right"
    },
    {
      "midi": 63,
      "time": 86,
      "duration": 0.25,
      "velocity": 0.82,
      "hand": "right"
    },
    {
      "midi": 69,
      "time": 86,
      "duration": 0.25,
      "velocity": 0.82,
      "hand": "right"
    },
    {
      "midi": 38,
      "time": 86.5,
      "duration": 0.25,
      "velocity": 0.82,
      "hand": "left"
    },
    {
      "midi": 45,
      "time": 86.5,
      "duration": 0.25,
      "velocity": 0.82,
      "hand": "left"
    },
    {
      "midi": 62,
      "time": 86.5,
      "duration": 0.25,
      "velocity": 0.82,
      "hand": "right"
    },
    {
      "midi": 70,
      "time": 86.5,
      "duration": 0.25,
      "velocity": 0.82,
      "hand": "right"
    },
    {
      "midi": 45,
      "time": 87,
      "duration": 0.25,
      "velocity": 0.82,
      "hand": "left"
    },
    {
      "midi": 53,
      "time": 87,
      "duration": 1.485,
      "velocity": 0.86,
      "hand": "left"
    },
    {
      "midi": 65,
      "time": 87,
      "duration": 1.485,
      "velocity": 0.82,
      "hand": "right"
    },
    {
      "midi": 72,
      "time": 87,
      "duration": 1.485,
      "velocity": 0.88,
      "hand": "right"
    },
    {
      "midi": 52,
      "time": 87.5,
      "duration": 0.25,
      "velocity": 0.82,
      "hand": "left"
    },
    {
      "midi": 60,
      "time": 87.5,
      "duration": 0.25,
      "velocity": 0.82,
      "hand": "right"
    },
    {
      "midi": 52,
      "time": 88,
      "duration": 0.25,
      "velocity": 0.82,
      "hand": "left"
    },
    {
      "midi": 60,
      "time": 88,
      "duration": 0.25,
      "velocity": 0.82,
      "hand": "right"
    },
    {
      "midi": 53,
      "time": 88.5,
      "duration": 1,
      "velocity": 0.86,
      "hand": "left"
    },
    {
      "midi": 60,
      "time": 88.5,
      "duration": 0.25,
      "velocity": 0.82,
      "hand": "right"
    },
    {
      "midi": 65,
      "time": 88.5,
      "duration": 1,
      "velocity": 0.82,
      "hand": "right"
    },
    {
      "midi": 72,
      "time": 88.5,
      "duration": 1,
      "velocity": 0.82,
      "hand": "right"
    },
    {
      "midi": 48,
      "time": 89,
      "duration": 0.25,
      "velocity": 0.82,
      "hand": "left"
    },
    {
      "midi": 47,
      "time": 89.25,
      "duration": 0.235,
      "velocity": 0.82,
      "hand": "left"
    },
    {
      "midi": 47,
      "time": 89.5,
      "duration": 0.25,
      "velocity": 0.82,
      "hand": "left"
    },
    {
      "midi": 45,
      "time": 89.75,
      "duration": 0.235,
      "velocity": 0.82,
      "hand": "left"
    },
    {
      "midi": 46,
      "time": 90,
      "duration": 0.25,
      "velocity": 0.86,
      "hand": "left"
    },
    {
      "midi": 65,
      "time": 90,
      "duration": 0.25,
      "velocity": 0.82,
      "hand": "right"
    },
    {
      "midi": 74,
      "time": 90,
      "duration": 0.25,
      "velocity": 0.82,
      "hand": "right"
    },
    {
      "midi": 46,
      "time": 90.5,
      "duration": 0.25,
      "velocity": 0.86,
      "hand": "left"
    },
    {
      "midi": 52,
      "time": 90.5,
      "duration": 0.25,
      "velocity": 0.82,
      "hand": "left"
    },
    {
      "midi": 65,
      "time": 90.5,
      "duration": 0.25,
      "velocity": 0.82,
      "hand": "right"
    },
    {
      "midi": 74,
      "time": 90.5,
      "duration": 0.25,
      "velocity": 0.82,
      "hand": "right"
    },
    {
      "midi": 46,
      "time": 91,
      "duration": 0.25,
      "velocity": 0.86,
      "hand": "left"
    },
    {
      "midi": 65,
      "time": 91,
      "duration": 0.25,
      "velocity": 0.82,
      "hand": "right"
    },
    {
      "midi": 74,
      "time": 91,
      "duration": 0.25,
      "velocity": 0.82,
      "hand": "right"
    },
    {
      "midi": 45,
      "time": 91.5,
      "duration": 0.25,
      "velocity": 0.82,
      "hand": "left"
    },
    {
      "midi": 51,
      "time": 91.5,
      "duration": 0.25,
      "velocity": 0.86,
      "hand": "left"
    },
    {
      "midi": 63,
      "time": 91.5,
      "duration": 0.25,
      "velocity": 0.82,
      "hand": "right"
    },
    {
      "midi": 72,
      "time": 91.5,
      "duration": 0.25,
      "velocity": 0.82,
      "hand": "right"
    },
    {
      "midi": 52,
      "time": 92,
      "duration": 0.25,
      "velocity": 0.82,
      "hand": "left"
    },
    {
      "midi": 60,
      "time": 92,
      "duration": 0.25,
      "velocity": 0.82,
      "hand": "right"
    },
    {
      "midi": 63,
      "time": 92,
      "duration": 0.25,
      "velocity": 0.82,
      "hand": "right"
    },
    {
      "midi": 70,
      "time": 92,
      "duration": 0.25,
      "velocity": 0.82,
      "hand": "right"
    },
    {
      "midi": 38,
      "time": 92.5,
      "duration": 0.25,
      "velocity": 0.82,
      "hand": "left"
    },
    {
      "midi": 45,
      "time": 92.5,
      "duration": 0.25,
      "velocity": 0.82,
      "hand": "left"
    },
    {
      "midi": 63,
      "time": 92.5,
      "duration": 0.25,
      "velocity": 0.82,
      "hand": "right"
    },
    {
      "midi": 67,
      "time": 92.5,
      "duration": 0.25,
      "velocity": 0.82,
      "hand": "right"
    },
    {
      "midi": 46,
      "time": 93,
      "duration": 1,
      "velocity": 0.86,
      "hand": "left"
    },
    {
      "midi": 62,
      "time": 93,
      "duration": 1,
      "velocity": 0.82,
      "hand": "right"
    },
    {
      "midi": 65,
      "time": 93,
      "duration": 1,
      "velocity": 0.82,
      "hand": "right"
    },
    {
      "midi": 52,
      "time": 93.5,
      "duration": 0.25,
      "velocity": 0.82,
      "hand": "left"
    },
    {
      "midi": 45,
      "time": 94,
      "duration": 0.25,
      "velocity": 0.82,
      "hand": "left"
    },
    {
      "midi": 46,
      "time": 94.5,
      "duration": 1,
      "velocity": 0.86,
      "hand": "left"
    },
    {
      "midi": 62,
      "time": 94.5,
      "duration": 0.985,
      "velocity": 0.82,
      "hand": "right"
    },
    {
      "midi": 70,
      "time": 94.5,
      "duration": 1,
      "velocity": 0.82,
      "hand": "right"
    },
    {
      "midi": 52,
      "time": 95,
      "duration": 0.25,
      "velocity": 0.82,
      "hand": "left"
    },
    {
      "midi": 58,
      "time": 95,
      "duration": 0.75,
      "velocity": 0.86,
      "hand": "left"
    },
    {
      "midi": 60,
      "time": 95,
      "duration": 0.25,
      "velocity": 0.82,
      "hand": "right"
    },
    {
      "midi": 38,
      "time": 95.5,
      "duration": 0.25,
      "velocity": 0.82,
      "hand": "left"
    },
    {
      "midi": 45,
      "time": 95.5,
      "duration": 0.25,
      "velocity": 0.82,
      "hand": "left"
    },
    {
      "midi": 62,
      "time": 95.5,
      "duration": 0.25,
      "velocity": 0.86,
      "hand": "right"
    },
    {
      "midi": 65,
      "time": 95.5,
      "duration": 0.25,
      "velocity": 0.82,
      "hand": "right"
    },
    {
      "midi": 45,
      "time": 96,
      "duration": 0.25,
      "velocity": 0.82,
      "hand": "left"
    },
    {
      "midi": 53,
      "time": 96,
      "duration": 0.25,
      "velocity": 0.86,
      "hand": "left"
    },
    {
      "midi": 60,
      "time": 96,
      "duration": 0.25,
      "velocity": 0.86,
      "hand": "right"
    },
    {
      "midi": 63,
      "time": 96,
      "duration": 0.25,
      "velocity": 0.82,
      "hand": "right"
    },
    {
      "midi": 69,
      "time": 96,
      "duration": 0.25,
      "velocity": 0.82,
      "hand": "right"
    },
    {
      "midi": 53,
      "time": 96.5,
      "duration": 0.25,
      "velocity": 0.86,
      "hand": "left"
    },
    {
      "midi": 60,
      "time": 96.5,
      "duration": 0.25,
      "velocity": 0.86,
      "hand": "right"
    },
    {
      "midi": 63,
      "time": 96.5,
      "duration": 0.25,
      "velocity": 0.82,
      "hand": "right"
    },
    {
      "midi": 69,
      "time": 96.5,
      "duration": 0.25,
      "velocity": 0.82,
      "hand": "right"
    },
    {
      "midi": 45,
      "time": 97,
      "duration": 0.25,
      "velocity": 0.82,
      "hand": "left"
    },
    {
      "midi": 53,
      "time": 97,
      "duration": 0.25,
      "velocity": 0.86,
      "hand": "left"
    },
    {
      "midi": 60,
      "time": 97,
      "duration": 0.25,
      "velocity": 0.86,
      "hand": "right"
    },
    {
      "midi": 63,
      "time": 97,
      "duration": 0.25,
      "velocity": 0.82,
      "hand": "right"
    },
    {
      "midi": 69,
      "time": 97,
      "duration": 0.25,
      "velocity": 0.82,
      "hand": "right"
    },
    {
      "midi": 45,
      "time": 97.5,
      "duration": 0.25,
      "velocity": 0.82,
      "hand": "left"
    },
    {
      "midi": 53,
      "time": 97.5,
      "duration": 0.25,
      "velocity": 0.86,
      "hand": "left"
    },
    {
      "midi": 60,
      "time": 97.5,
      "duration": 0.25,
      "velocity": 0.86,
      "hand": "right"
    },
    {
      "midi": 63,
      "time": 97.5,
      "duration": 0.25,
      "velocity": 0.82,
      "hand": "right"
    },
    {
      "midi": 69,
      "time": 97.5,
      "duration": 0.25,
      "velocity": 0.82,
      "hand": "right"
    },
    {
      "midi": 53,
      "time": 98,
      "duration": 0.25,
      "velocity": 0.86,
      "hand": "left"
    },
    {
      "midi": 60,
      "time": 98,
      "duration": 0.25,
      "velocity": 0.82,
      "hand": "right"
    },
    {
      "midi": 63,
      "time": 98,
      "duration": 0.25,
      "velocity": 0.82,
      "hand": "right"
    },
    {
      "midi": 70,
      "time": 98,
      "duration": 0.25,
      "velocity": 0.82,
      "hand": "right"
    },
    {
      "midi": 38,
      "time": 98.5,
      "duration": 0.25,
      "velocity": 0.82,
      "hand": "left"
    },
    {
      "midi": 45,
      "time": 98.5,
      "duration": 0.25,
      "velocity": 0.82,
      "hand": "left"
    },
    {
      "midi": 63,
      "time": 98.5,
      "duration": 0.25,
      "velocity": 0.82,
      "hand": "right"
    },
    {
      "midi": 72,
      "time": 98.5,
      "duration": 0.25,
      "velocity": 0.82,
      "hand": "right"
    },
    {
      "midi": 46,
      "time": 99,
      "duration": 1.485,
      "velocity": 0.86,
      "hand": "left"
    },
    {
      "midi": 62,
      "time": 99,
      "duration": 1.485,
      "velocity": 0.82,
      "hand": "right"
    },
    {
      "midi": 70,
      "time": 99,
      "duration": 1.485,
      "velocity": 0.88,
      "hand": "right"
    },
    {
      "midi": 52,
      "time": 99.5,
      "duration": 0.25,
      "velocity": 0.82,
      "hand": "left"
    },
    {
      "midi": 60,
      "time": 99.5,
      "duration": 0.25,
      "velocity": 0.82,
      "hand": "right"
    },
    {
      "midi": 52,
      "time": 100,
      "duration": 0.25,
      "velocity": 0.82,
      "hand": "left"
    },
    {
      "midi": 60,
      "time": 100,
      "duration": 0.25,
      "velocity": 0.82,
      "hand": "right"
    },
    {
      "midi": 46,
      "time": 100.5,
      "duration": 1,
      "velocity": 0.86,
      "hand": "left"
    },
    {
      "midi": 52,
      "time": 100.5,
      "duration": 0.25,
      "velocity": 0.82,
      "hand": "left"
    },
    {
      "midi": 60,
      "time": 100.5,
      "duration": 0.25,
      "velocity": 0.82,
      "hand": "right"
    },
    {
      "midi": 62,
      "time": 100.5,
      "duration": 1,
      "velocity": 0.82,
      "hand": "right"
    },
    {
      "midi": 70,
      "time": 100.5,
      "duration": 1,
      "velocity": 0.82,
      "hand": "right"
    },
    {
      "midi": 48,
      "time": 101,
      "duration": 0.25,
      "velocity": 0.82,
      "hand": "left"
    },
    {
      "midi": 47,
      "time": 101.25,
      "duration": 0.235,
      "velocity": 0.82,
      "hand": "left"
    },
    {
      "midi": 47,
      "time": 101.5,
      "duration": 0.25,
      "velocity": 0.82,
      "hand": "left"
    },
    {
      "midi": 45,
      "time": 101.75,
      "duration": 0.235,
      "velocity": 0.82,
      "hand": "left"
    },
    {
      "midi": 46,
      "time": 102,
      "duration": 0.25,
      "velocity": 0.86,
      "hand": "left"
    },
    {
      "midi": 62,
      "time": 102,
      "duration": 0.25,
      "velocity": 0.82,
      "hand": "right"
    },
    {
      "midi": 65,
      "time": 102,
      "duration": 0.25,
      "velocity": 0.82,
      "hand": "right"
    },
    {
      "midi": 46,
      "time": 102.5,
      "duration": 0.25,
      "velocity": 0.86,
      "hand": "left"
    },
    {
      "midi": 52,
      "time": 102.5,
      "duration": 0.25,
      "velocity": 0.82,
      "hand": "left"
    },
    {
      "midi": 62,
      "time": 102.5,
      "duration": 0.25,
      "velocity": 0.82,
      "hand": "right"
    },
    {
      "midi": 65,
      "time": 102.5,
      "duration": 0.25,
      "velocity": 0.82,
      "hand": "right"
    },
    {
      "midi": 46,
      "time": 103,
      "duration": 0.25,
      "velocity": 0.86,
      "hand": "left"
    },
    {
      "midi": 62,
      "time": 103,
      "duration": 0.25,
      "velocity": 0.82,
      "hand": "right"
    },
    {
      "midi": 65,
      "time": 103,
      "duration": 0.25,
      "velocity": 0.82,
      "hand": "right"
    },
    {
      "midi": 45,
      "time": 103.5,
      "duration": 0.25,
      "velocity": 0.82,
      "hand": "left"
    },
    {
      "midi": 53,
      "time": 103.5,
      "duration": 0.25,
      "velocity": 0.86,
      "hand": "left"
    },
    {
      "midi": 63,
      "time": 103.5,
      "duration": 0.25,
      "velocity": 0.82,
      "hand": "right"
    },
    {
      "midi": 65,
      "time": 103.5,
      "duration": 0.25,
      "velocity": 0.82,
      "hand": "right"
    },
    {
      "midi": 53,
      "time": 104,
      "duration": 0.25,
      "velocity": 0.86,
      "hand": "left"
    },
    {
      "midi": 60,
      "time": 104,
      "duration": 0.25,
      "velocity": 0.82,
      "hand": "right"
    },
    {
      "midi": 63,
      "time": 104,
      "duration": 0.25,
      "velocity": 0.82,
      "hand": "right"
    },
    {
      "midi": 67,
      "time": 104,
      "duration": 0.25,
      "velocity": 0.82,
      "hand": "right"
    },
    {
      "midi": 38,
      "time": 104.5,
      "duration": 0.25,
      "velocity": 0.82,
      "hand": "left"
    },
    {
      "midi": 45,
      "time": 104.5,
      "duration": 0.25,
      "velocity": 0.82,
      "hand": "left"
    },
    {
      "midi": 60,
      "time": 104.5,
      "duration": 0.25,
      "velocity": 0.86,
      "hand": "right"
    },
    {
      "midi": 63,
      "time": 104.5,
      "duration": 0.25,
      "velocity": 0.82,
      "hand": "right"
    },
    {
      "midi": 69,
      "time": 104.5,
      "duration": 0.25,
      "velocity": 0.82,
      "hand": "right"
    },
    {
      "midi": 46,
      "time": 105,
      "duration": 1,
      "velocity": 0.86,
      "hand": "left"
    },
    {
      "midi": 62,
      "time": 105,
      "duration": 1,
      "velocity": 0.82,
      "hand": "right"
    },
    {
      "midi": 70,
      "time": 105,
      "duration": 1,
      "velocity": 0.82,
      "hand": "right"
    },
    {
      "midi": 52,
      "time": 105.5,
      "duration": 0.25,
      "velocity": 0.82,
      "hand": "left"
    },
    {
      "midi": 45,
      "time": 106,
      "duration": 0.25,
      "velocity": 0.82,
      "hand": "left"
    },
    {
      "midi": 46,
      "time": 106.5,
      "duration": 1,
      "velocity": 0.86,
      "hand": "left"
    },
    {
      "midi": 62,
      "time": 106.5,
      "duration": 0.985,
      "velocity": 0.82,
      "hand": "right"
    },
    {
      "midi": 65,
      "time": 106.5,
      "duration": 1,
      "velocity": 0.82,
      "hand": "right"
    },
    {
      "midi": 52,
      "time": 107,
      "duration": 0.25,
      "velocity": 0.82,
      "hand": "left"
    },
    {
      "midi": 60,
      "time": 107,
      "duration": 0.25,
      "velocity": 0.82,
      "hand": "right"
    },
    {
      "midi": 38,
      "time": 107.5,
      "duration": 0.25,
      "velocity": 0.82,
      "hand": "left"
    },
    {
      "midi": 45,
      "time": 107.5,
      "duration": 0.25,
      "velocity": 0.82,
      "hand": "left"
    },
    {
      "midi": 62,
      "time": 107.5,
      "duration": 0.25,
      "velocity": 0.86,
      "hand": "right"
    },
    {
      "midi": 45,
      "time": 108,
      "duration": 0.25,
      "velocity": 0.82,
      "hand": "left"
    },
    {
      "midi": 53,
      "time": 108,
      "duration": 0.25,
      "velocity": 0.86,
      "hand": "left"
    },
    {
      "midi": 60,
      "time": 108,
      "duration": 0.25,
      "velocity": 0.86,
      "hand": "right"
    },
    {
      "midi": 65,
      "time": 108,
      "duration": 0.25,
      "velocity": 0.82,
      "hand": "right"
    },
    {
      "midi": 69,
      "time": 108,
      "duration": 0.25,
      "velocity": 0.82,
      "hand": "right"
    },
    {
      "midi": 53,
      "time": 108.5,
      "duration": 0.25,
      "velocity": 0.86,
      "hand": "left"
    },
    {
      "midi": 60,
      "time": 108.5,
      "duration": 0.25,
      "velocity": 0.86,
      "hand": "right"
    },
    {
      "midi": 65,
      "time": 108.5,
      "duration": 0.25,
      "velocity": 0.82,
      "hand": "right"
    },
    {
      "midi": 69,
      "time": 108.5,
      "duration": 0.25,
      "velocity": 0.82,
      "hand": "right"
    },
    {
      "midi": 45,
      "time": 109,
      "duration": 0.25,
      "velocity": 0.82,
      "hand": "left"
    },
    {
      "midi": 53,
      "time": 109,
      "duration": 0.25,
      "velocity": 0.86,
      "hand": "left"
    },
    {
      "midi": 60,
      "time": 109,
      "duration": 0.25,
      "velocity": 0.86,
      "hand": "right"
    },
    {
      "midi": 65,
      "time": 109,
      "duration": 0.25,
      "velocity": 0.82,
      "hand": "right"
    },
    {
      "midi": 69,
      "time": 109,
      "duration": 0.25,
      "velocity": 0.82,
      "hand": "right"
    },
    {
      "midi": 45,
      "time": 109.5,
      "duration": 0.25,
      "velocity": 0.82,
      "hand": "left"
    },
    {
      "midi": 53,
      "time": 109.5,
      "duration": 0.25,
      "velocity": 0.86,
      "hand": "left"
    },
    {
      "midi": 60,
      "time": 109.5,
      "duration": 0.25,
      "velocity": 0.86,
      "hand": "right"
    },
    {
      "midi": 63,
      "time": 109.5,
      "duration": 0.25,
      "velocity": 0.82,
      "hand": "right"
    },
    {
      "midi": 69,
      "time": 109.5,
      "duration": 0.25,
      "velocity": 0.82,
      "hand": "right"
    },
    {
      "midi": 53,
      "time": 110,
      "duration": 0.25,
      "velocity": 0.86,
      "hand": "left"
    },
    {
      "midi": 60,
      "time": 110,
      "duration": 0.25,
      "velocity": 0.82,
      "hand": "right"
    },
    {
      "midi": 63,
      "time": 110,
      "duration": 0.25,
      "velocity": 0.82,
      "hand": "right"
    },
    {
      "midi": 70,
      "time": 110,
      "duration": 0.25,
      "velocity": 0.82,
      "hand": "right"
    },
    {
      "midi": 38,
      "time": 110.5,
      "duration": 0.25,
      "velocity": 0.82,
      "hand": "left"
    },
    {
      "midi": 45,
      "time": 110.5,
      "duration": 0.25,
      "velocity": 0.82,
      "hand": "left"
    },
    {
      "midi": 63,
      "time": 110.5,
      "duration": 0.25,
      "velocity": 0.82,
      "hand": "right"
    },
    {
      "midi": 72,
      "time": 110.5,
      "duration": 0.25,
      "velocity": 0.82,
      "hand": "right"
    },
    {
      "midi": 46,
      "time": 111,
      "duration": 1.485,
      "velocity": 0.86,
      "hand": "left"
    },
    {
      "midi": 62,
      "time": 111,
      "duration": 1.485,
      "velocity": 0.82,
      "hand": "right"
    },
    {
      "midi": 70,
      "time": 111,
      "duration": 1.485,
      "velocity": 0.88,
      "hand": "right"
    },
    {
      "midi": 52,
      "time": 111.5,
      "duration": 0.25,
      "velocity": 0.82,
      "hand": "left"
    },
    {
      "midi": 60,
      "time": 111.5,
      "duration": 0.25,
      "velocity": 0.82,
      "hand": "right"
    },
    {
      "midi": 52,
      "time": 112,
      "duration": 0.25,
      "velocity": 0.82,
      "hand": "left"
    },
    {
      "midi": 60,
      "time": 112,
      "duration": 0.25,
      "velocity": 0.82,
      "hand": "right"
    },
    {
      "midi": 46,
      "time": 112.5,
      "duration": 1,
      "velocity": 0.86,
      "hand": "left"
    },
    {
      "midi": 52,
      "time": 112.5,
      "duration": 0.25,
      "velocity": 0.82,
      "hand": "left"
    },
    {
      "midi": 60,
      "time": 112.5,
      "duration": 0.25,
      "velocity": 0.82,
      "hand": "right"
    },
    {
      "midi": 62,
      "time": 112.5,
      "duration": 1,
      "velocity": 0.82,
      "hand": "right"
    },
    {
      "midi": 70,
      "time": 112.5,
      "duration": 1,
      "velocity": 0.82,
      "hand": "right"
    },
    {
      "midi": 48,
      "time": 113,
      "duration": 0.25,
      "velocity": 0.82,
      "hand": "left"
    },
    {
      "midi": 47,
      "time": 113.25,
      "duration": 0.235,
      "velocity": 0.82,
      "hand": "left"
    },
    {
      "midi": 47,
      "time": 113.5,
      "duration": 0.25,
      "velocity": 0.82,
      "hand": "left"
    },
    {
      "midi": 45,
      "time": 113.75,
      "duration": 0.235,
      "velocity": 0.82,
      "hand": "left"
    },
    {
      "midi": 45,
      "time": 114,
      "duration": 0.25,
      "velocity": 0.82,
      "hand": "left"
    },
    {
      "midi": 51,
      "time": 114,
      "duration": 0.25,
      "velocity": 0.86,
      "hand": "left"
    },
    {
      "midi": 63,
      "time": 114,
      "duration": 0.25,
      "velocity": 0.82,
      "hand": "right"
    },
    {
      "midi": 67,
      "time": 114,
      "duration": 0.25,
      "velocity": 0.82,
      "hand": "right"
    },
    {
      "midi": 52,
      "time": 114.5,
      "duration": 0.25,
      "velocity": 0.82,
      "hand": "left"
    },
    {
      "midi": 63,
      "time": 114.5,
      "duration": 0.25,
      "velocity": 0.82,
      "hand": "right"
    },
    {
      "midi": 67,
      "time": 114.5,
      "duration": 0.25,
      "velocity": 0.82,
      "hand": "right"
    },
    {
      "midi": 45,
      "time": 115,
      "duration": 0.25,
      "velocity": 0.82,
      "hand": "left"
    },
    {
      "midi": 51,
      "time": 115,
      "duration": 0.25,
      "velocity": 0.86,
      "hand": "left"
    },
    {
      "midi": 63,
      "time": 115,
      "duration": 0.25,
      "velocity": 0.82,
      "hand": "right"
    },
    {
      "midi": 67,
      "time": 115,
      "duration": 0.25,
      "velocity": 0.82,
      "hand": "right"
    },
    {
      "midi": 45,
      "time": 115.5,
      "duration": 0.25,
      "velocity": 0.82,
      "hand": "left"
    },
    {
      "midi": 51,
      "time": 115.5,
      "duration": 0.25,
      "velocity": 0.86,
      "hand": "left"
    },
    {
      "midi": 67,
      "time": 115.5,
      "duration": 0.25,
      "velocity": 0.82,
      "hand": "right"
    },
    {
      "midi": 70,
      "time": 115.5,
      "duration": 0.25,
      "velocity": 0.82,
      "hand": "right"
    },
    {
      "midi": 52,
      "time": 116,
      "duration": 0.25,
      "velocity": 0.82,
      "hand": "left"
    },
    {
      "midi": 60,
      "time": 116,
      "duration": 0.25,
      "velocity": 0.82,
      "hand": "right"
    },
    {
      "midi": 65,
      "time": 116,
      "duration": 0.25,
      "velocity": 0.82,
      "hand": "right"
    },
    {
      "midi": 69,
      "time": 116,
      "duration": 0.25,
      "velocity": 0.82,
      "hand": "right"
    },
    {
      "midi": 38,
      "time": 116.5,
      "duration": 0.25,
      "velocity": 0.82,
      "hand": "left"
    },
    {
      "midi": 45,
      "time": 116.5,
      "duration": 0.25,
      "velocity": 0.82,
      "hand": "left"
    },
    {
      "midi": 63,
      "time": 116.5,
      "duration": 0.25,
      "velocity": 0.82,
      "hand": "right"
    },
    {
      "midi": 67,
      "time": 116.5,
      "duration": 0.25,
      "velocity": 0.82,
      "hand": "right"
    },
    {
      "midi": 46,
      "time": 117,
      "duration": 1,
      "velocity": 0.86,
      "hand": "left"
    },
    {
      "midi": 62,
      "time": 117,
      "duration": 1,
      "velocity": 0.82,
      "hand": "right"
    },
    {
      "midi": 65,
      "time": 117,
      "duration": 1,
      "velocity": 0.82,
      "hand": "right"
    },
    {
      "midi": 52,
      "time": 117.5,
      "duration": 0.25,
      "velocity": 0.82,
      "hand": "left"
    },
    {
      "midi": 45,
      "time": 118,
      "duration": 0.25,
      "velocity": 0.82,
      "hand": "left"
    },
    {
      "midi": 45,
      "time": 118.5,
      "duration": 0.25,
      "velocity": 0.82,
      "hand": "left"
    },
    {
      "midi": 50,
      "time": 118.5,
      "duration": 1,
      "velocity": 0.86,
      "hand": "left"
    },
    {
      "midi": 65,
      "time": 118.5,
      "duration": 1,
      "velocity": 0.82,
      "hand": "right"
    },
    {
      "midi": 70,
      "time": 118.5,
      "duration": 1,
      "velocity": 0.82,
      "hand": "right"
    },
    {
      "midi": 52,
      "time": 119,
      "duration": 0.25,
      "velocity": 0.82,
      "hand": "left"
    },
    {
      "midi": 60,
      "time": 119,
      "duration": 0.25,
      "velocity": 0.82,
      "hand": "right"
    },
    {
      "midi": 38,
      "time": 119.5,
      "duration": 0.25,
      "velocity": 0.82,
      "hand": "left"
    },
    {
      "midi": 45,
      "time": 119.5,
      "duration": 0.25,
      "velocity": 0.82,
      "hand": "left"
    },
    {
      "midi": 45,
      "time": 120,
      "duration": 0.25,
      "velocity": 0.82,
      "hand": "left"
    },
    {
      "midi": 55,
      "time": 120,
      "duration": 0.25,
      "velocity": 0.86,
      "hand": "left"
    },
    {
      "midi": 62,
      "time": 120,
      "duration": 0.25,
      "velocity": 0.86,
      "hand": "right"
    },
    {
      "midi": 67,
      "time": 120,
      "duration": 0.25,
      "velocity": 0.82,
      "hand": "right"
    },
    {
      "midi": 70,
      "time": 120,
      "duration": 0.25,
      "velocity": 0.82,
      "hand": "right"
    },
    {
      "midi": 52,
      "time": 120.5,
      "duration": 0.25,
      "velocity": 0.82,
      "hand": "left"
    },
    {
      "midi": 55,
      "time": 120.5,
      "duration": 0.25,
      "velocity": 0.86,
      "hand": "left"
    },
    {
      "midi": 62,
      "time": 120.5,
      "duration": 0.25,
      "velocity": 0.86,
      "hand": "right"
    },
    {
      "midi": 67,
      "time": 120.5,
      "duration": 0.25,
      "velocity": 0.82,
      "hand": "right"
    },
    {
      "midi": 70,
      "time": 120.5,
      "duration": 0.25,
      "velocity": 0.82,
      "hand": "right"
    },
    {
      "midi": 45,
      "time": 121,
      "duration": 0.25,
      "velocity": 0.82,
      "hand": "left"
    },
    {
      "midi": 53,
      "time": 121,
      "duration": 0.25,
      "velocity": 0.86,
      "hand": "left"
    },
    {
      "midi": 62,
      "time": 121,
      "duration": 0.25,
      "velocity": 0.86,
      "hand": "right"
    },
    {
      "midi": 67,
      "time": 121,
      "duration": 0.25,
      "velocity": 0.82,
      "hand": "right"
    },
    {
      "midi": 70,
      "time": 121,
      "duration": 0.25,
      "velocity": 0.82,
      "hand": "right"
    },
    {
      "midi": 45,
      "time": 121.5,
      "duration": 0.25,
      "velocity": 0.82,
      "hand": "left"
    },
    {
      "midi": 51,
      "time": 121.5,
      "duration": 0.25,
      "velocity": 0.86,
      "hand": "left"
    },
    {
      "midi": 63,
      "time": 121.5,
      "duration": 0.25,
      "velocity": 0.86,
      "hand": "right"
    },
    {
      "midi": 67,
      "time": 121.5,
      "duration": 0.25,
      "velocity": 0.82,
      "hand": "right"
    },
    {
      "midi": 70,
      "time": 121.5,
      "duration": 0.25,
      "velocity": 0.82,
      "hand": "right"
    },
    {
      "midi": 52,
      "time": 122,
      "duration": 0.25,
      "velocity": 0.82,
      "hand": "left"
    },
    {
      "midi": 60,
      "time": 122,
      "duration": 0.25,
      "velocity": 0.86,
      "hand": "right"
    },
    {
      "midi": 66,
      "time": 122,
      "duration": 0.25,
      "velocity": 0.82,
      "hand": "right"
    },
    {
      "midi": 69,
      "time": 122,
      "duration": 0.25,
      "velocity": 0.82,
      "hand": "right"
    },
    {
      "midi": 38,
      "time": 122.5,
      "duration": 0.25,
      "velocity": 0.82,
      "hand": "left"
    },
    {
      "midi": 45,
      "time": 122.5,
      "duration": 0.25,
      "velocity": 0.82,
      "hand": "left"
    },
    {
      "midi": 67,
      "time": 122.5,
      "duration": 0.25,
      "velocity": 0.82,
      "hand": "right"
    },
    {
      "midi": 70,
      "time": 122.5,
      "duration": 0.25,
      "velocity": 0.82,
      "hand": "right"
    },
    {
      "midi": 45,
      "time": 123,
      "duration": 0.25,
      "velocity": 0.82,
      "hand": "left"
    },
    {
      "midi": 53,
      "time": 123,
      "duration": 1.485,
      "velocity": 0.86,
      "hand": "left"
    },
    {
      "midi": 69,
      "time": 123,
      "duration": 1.485,
      "velocity": 0.82,
      "hand": "right"
    },
    {
      "midi": 72,
      "time": 123,
      "duration": 1.485,
      "velocity": 0.88,
      "hand": "right"
    },
    {
      "midi": 52,
      "time": 123.5,
      "duration": 0.25,
      "velocity": 0.82,
      "hand": "left"
    },
    {
      "midi": 60,
      "time": 123.5,
      "duration": 0.25,
      "velocity": 0.82,
      "hand": "right"
    },
    {
      "midi": 52,
      "time": 124,
      "duration": 0.25,
      "velocity": 0.82,
      "hand": "left"
    },
    {
      "midi": 60,
      "time": 124,
      "duration": 0.25,
      "velocity": 0.82,
      "hand": "right"
    },
    {
      "midi": 53,
      "time": 124.5,
      "duration": 1,
      "velocity": 0.86,
      "hand": "left"
    },
    {
      "midi": 60,
      "time": 124.5,
      "duration": 0.25,
      "velocity": 0.82,
      "hand": "right"
    },
    {
      "midi": 63,
      "time": 124.5,
      "duration": 1,
      "velocity": 0.86,
      "hand": "right"
    },
    {
      "midi": 69,
      "time": 124.5,
      "duration": 1,
      "velocity": 0.82,
      "hand": "right"
    },
    {
      "midi": 72,
      "time": 124.5,
      "duration": 1,
      "velocity": 0.82,
      "hand": "right"
    },
    {
      "midi": 48,
      "time": 125,
      "duration": 0.25,
      "velocity": 0.82,
      "hand": "left"
    },
    {
      "midi": 47,
      "time": 125.25,
      "duration": 0.235,
      "velocity": 0.82,
      "hand": "left"
    },
    {
      "midi": 47,
      "time": 125.5,
      "duration": 0.25,
      "velocity": 0.82,
      "hand": "left"
    },
    {
      "midi": 45,
      "time": 125.75,
      "duration": 0.235,
      "velocity": 0.82,
      "hand": "left"
    },
    {
      "midi": 46,
      "time": 126,
      "duration": 0.75,
      "velocity": 0.86,
      "hand": "left"
    },
    {
      "midi": 62,
      "time": 126,
      "duration": 0.75,
      "velocity": 0.86,
      "hand": "right"
    },
    {
      "midi": 70,
      "time": 126,
      "duration": 0.75,
      "velocity": 0.82,
      "hand": "right"
    },
    {
      "midi": 74,
      "time": 126,
      "duration": 1.485,
      "velocity": 0.88,
      "hand": "right"
    },
    {
      "midi": 52,
      "time": 126.5,
      "duration": 0.25,
      "velocity": 0.82,
      "hand": "left"
    },
    {
      "midi": 58,
      "time": 126.5,
      "duration": 0.25,
      "velocity": 0.86,
      "hand": "left"
    },
    {
      "midi": 65,
      "time": 126.5,
      "duration": 0.25,
      "velocity": 0.82,
      "hand": "right"
    },
    {
      "midi": 46,
      "time": 127,
      "duration": 0.25,
      "velocity": 0.86,
      "hand": "left"
    },
    {
      "midi": 65,
      "time": 127,
      "duration": 0.25,
      "velocity": 0.82,
      "hand": "right"
    },
    {
      "midi": 46,
      "time": 127.5,
      "duration": 0.25,
      "velocity": 0.86,
      "hand": "left"
    },
    {
      "midi": 74,
      "time": 127.5,
      "duration": 0.25,
      "velocity": 0.82,
      "hand": "right"
    },
    {
      "midi": 46,
      "time": 128,
      "duration": 0.25,
      "velocity": 0.86,
      "hand": "left"
    },
    {
      "midi": 52,
      "time": 128,
      "duration": 0.25,
      "velocity": 0.82,
      "hand": "left"
    },
    {
      "midi": 60,
      "time": 128,
      "duration": 0.25,
      "velocity": 0.82,
      "hand": "right"
    },
    {
      "midi": 64,
      "time": 128,
      "duration": 0.25,
      "velocity": 0.82,
      "hand": "right"
    },
    {
      "midi": 73,
      "time": 128,
      "duration": 0.25,
      "velocity": 0.82,
      "hand": "right"
    },
    {
      "midi": 38,
      "time": 128.5,
      "duration": 0.25,
      "velocity": 0.82,
      "hand": "left"
    },
    {
      "midi": 45,
      "time": 128.5,
      "duration": 0.25,
      "velocity": 0.82,
      "hand": "left"
    },
    {
      "midi": 65,
      "time": 128.5,
      "duration": 0.25,
      "velocity": 0.82,
      "hand": "right"
    },
    {
      "midi": 74,
      "time": 128.5,
      "duration": 0.25,
      "velocity": 0.82,
      "hand": "right"
    },
    {
      "midi": 46,
      "time": 129,
      "duration": 1,
      "velocity": 0.86,
      "hand": "left"
    },
    {
      "midi": 62,
      "time": 129,
      "duration": 1,
      "velocity": 0.82,
      "hand": "right"
    },
    {
      "midi": 70,
      "time": 129,
      "duration": 1,
      "velocity": 0.82,
      "hand": "right"
    },
    {
      "midi": 52,
      "time": 129.5,
      "duration": 0.25,
      "velocity": 0.82,
      "hand": "left"
    },
    {
      "midi": 45,
      "time": 130,
      "duration": 0.25,
      "velocity": 0.82,
      "hand": "left"
    },
    {
      "midi": 46,
      "time": 130.5,
      "duration": 1,
      "velocity": 0.86,
      "hand": "left"
    },
    {
      "midi": 62,
      "time": 130.5,
      "duration": 1,
      "velocity": 0.82,
      "hand": "right"
    },
    {
      "midi": 65,
      "time": 130.5,
      "duration": 1,
      "velocity": 0.82,
      "hand": "right"
    },
    {
      "midi": 52,
      "time": 131,
      "duration": 0.25,
      "velocity": 0.82,
      "hand": "left"
    },
    {
      "midi": 60,
      "time": 131,
      "duration": 0.25,
      "velocity": 0.82,
      "hand": "right"
    },
    {
      "midi": 38,
      "time": 131.5,
      "duration": 0.25,
      "velocity": 0.82,
      "hand": "left"
    },
    {
      "midi": 45,
      "time": 131.5,
      "duration": 0.25,
      "velocity": 0.82,
      "hand": "left"
    },
    {
      "midi": 46,
      "time": 132,
      "duration": 0.25,
      "velocity": 0.86,
      "hand": "left"
    },
    {
      "midi": 65,
      "time": 132,
      "duration": 0.25,
      "velocity": 0.82,
      "hand": "right"
    },
    {
      "midi": 74,
      "time": 132,
      "duration": 0.25,
      "velocity": 0.82,
      "hand": "right"
    },
    {
      "midi": 46,
      "time": 132.5,
      "duration": 0.25,
      "velocity": 0.86,
      "hand": "left"
    },
    {
      "midi": 52,
      "time": 132.5,
      "duration": 0.25,
      "velocity": 0.82,
      "hand": "left"
    },
    {
      "midi": 63,
      "time": 132.5,
      "duration": 0.25,
      "velocity": 0.82,
      "hand": "right"
    },
    {
      "midi": 72,
      "time": 132.5,
      "duration": 0.25,
      "velocity": 0.82,
      "hand": "right"
    },
    {
      "midi": 46,
      "time": 133,
      "duration": 0.25,
      "velocity": 0.86,
      "hand": "left"
    },
    {
      "midi": 62,
      "time": 133,
      "duration": 0.25,
      "velocity": 0.82,
      "hand": "right"
    },
    {
      "midi": 70,
      "time": 133,
      "duration": 0.25,
      "velocity": 0.82,
      "hand": "right"
    },
    {
      "midi": 45,
      "time": 133.5,
      "duration": 0.25,
      "velocity": 0.82,
      "hand": "left"
    },
    {
      "midi": 50,
      "time": 133.5,
      "duration": 0.25,
      "velocity": 0.86,
      "hand": "left"
    },
    {
      "midi": 65,
      "time": 133.5,
      "duration": 0.25,
      "velocity": 0.82,
      "hand": "right"
    },
    {
      "midi": 70,
      "time": 133.5,
      "duration": 0.25,
      "velocity": 0.82,
      "hand": "right"
    },
    {
      "midi": 48,
      "time": 134,
      "duration": 0.25,
      "velocity": 0.86,
      "hand": "left"
    },
    {
      "midi": 52,
      "time": 134,
      "duration": 0.25,
      "velocity": 0.82,
      "hand": "left"
    },
    {
      "midi": 60,
      "time": 134,
      "duration": 0.25,
      "velocity": 0.82,
      "hand": "right"
    },
    {
      "midi": 63,
      "time": 134,
      "duration": 0.25,
      "velocity": 0.82,
      "hand": "right"
    },
    {
      "midi": 69,
      "time": 134,
      "duration": 0.25,
      "velocity": 0.82,
      "hand": "right"
    },
    {
      "midi": 38,
      "time": 134.5,
      "duration": 0.25,
      "velocity": 0.82,
      "hand": "left"
    },
    {
      "midi": 45,
      "time": 134.5,
      "duration": 0.25,
      "velocity": 0.82,
      "hand": "left"
    },
    {
      "midi": 62,
      "time": 134.5,
      "duration": 0.25,
      "velocity": 0.82,
      "hand": "right"
    },
    {
      "midi": 70,
      "time": 134.5,
      "duration": 0.25,
      "velocity": 0.82,
      "hand": "right"
    },
    {
      "midi": 45,
      "time": 135,
      "duration": 0.25,
      "velocity": 0.82,
      "hand": "left"
    },
    {
      "midi": 53,
      "time": 135,
      "duration": 1.485,
      "velocity": 0.86,
      "hand": "left"
    },
    {
      "midi": 65,
      "time": 135,
      "duration": 1.485,
      "velocity": 0.82,
      "hand": "right"
    },
    {
      "midi": 72,
      "time": 135,
      "duration": 1.485,
      "velocity": 0.88,
      "hand": "right"
    },
    {
      "midi": 52,
      "time": 135.5,
      "duration": 0.25,
      "velocity": 0.82,
      "hand": "left"
    },
    {
      "midi": 60,
      "time": 135.5,
      "duration": 0.25,
      "velocity": 0.82,
      "hand": "right"
    },
    {
      "midi": 52,
      "time": 136,
      "duration": 0.25,
      "velocity": 0.82,
      "hand": "left"
    },
    {
      "midi": 60,
      "time": 136,
      "duration": 0.25,
      "velocity": 0.82,
      "hand": "right"
    },
    {
      "midi": 53,
      "time": 136.5,
      "duration": 1,
      "velocity": 0.86,
      "hand": "left"
    },
    {
      "midi": 60,
      "time": 136.5,
      "duration": 0.25,
      "velocity": 0.82,
      "hand": "right"
    },
    {
      "midi": 65,
      "time": 136.5,
      "duration": 1,
      "velocity": 0.82,
      "hand": "right"
    },
    {
      "midi": 72,
      "time": 136.5,
      "duration": 1,
      "velocity": 0.82,
      "hand": "right"
    },
    {
      "midi": 48,
      "time": 137,
      "duration": 0.25,
      "velocity": 0.82,
      "hand": "left"
    },
    {
      "midi": 47,
      "time": 137.25,
      "duration": 0.235,
      "velocity": 0.82,
      "hand": "left"
    },
    {
      "midi": 47,
      "time": 137.5,
      "duration": 0.25,
      "velocity": 0.82,
      "hand": "left"
    },
    {
      "midi": 45,
      "time": 137.75,
      "duration": 0.235,
      "velocity": 0.82,
      "hand": "left"
    },
    {
      "midi": 46,
      "time": 138,
      "duration": 0.25,
      "velocity": 0.86,
      "hand": "left"
    },
    {
      "midi": 65,
      "time": 138,
      "duration": 0.25,
      "velocity": 0.82,
      "hand": "right"
    },
    {
      "midi": 74,
      "time": 138,
      "duration": 0.25,
      "velocity": 0.82,
      "hand": "right"
    },
    {
      "midi": 46,
      "time": 138.5,
      "duration": 0.25,
      "velocity": 0.86,
      "hand": "left"
    },
    {
      "midi": 52,
      "time": 138.5,
      "duration": 0.25,
      "velocity": 0.82,
      "hand": "left"
    },
    {
      "midi": 65,
      "time": 138.5,
      "duration": 0.25,
      "velocity": 0.82,
      "hand": "right"
    },
    {
      "midi": 74,
      "time": 138.5,
      "duration": 0.25,
      "velocity": 0.82,
      "hand": "right"
    },
    {
      "midi": 46,
      "time": 139,
      "duration": 0.25,
      "velocity": 0.86,
      "hand": "left"
    },
    {
      "midi": 65,
      "time": 139,
      "duration": 0.25,
      "velocity": 0.82,
      "hand": "right"
    },
    {
      "midi": 74,
      "time": 139,
      "duration": 0.25,
      "velocity": 0.82,
      "hand": "right"
    },
    {
      "midi": 45,
      "time": 139.5,
      "duration": 0.25,
      "velocity": 0.82,
      "hand": "left"
    },
    {
      "midi": 51,
      "time": 139.5,
      "duration": 0.25,
      "velocity": 0.86,
      "hand": "left"
    },
    {
      "midi": 63,
      "time": 139.5,
      "duration": 0.25,
      "velocity": 0.82,
      "hand": "right"
    },
    {
      "midi": 72,
      "time": 139.5,
      "duration": 0.25,
      "velocity": 0.82,
      "hand": "right"
    },
    {
      "midi": 52,
      "time": 140,
      "duration": 0.25,
      "velocity": 0.82,
      "hand": "left"
    },
    {
      "midi": 60,
      "time": 140,
      "duration": 0.25,
      "velocity": 0.82,
      "hand": "right"
    },
    {
      "midi": 63,
      "time": 140,
      "duration": 0.25,
      "velocity": 0.82,
      "hand": "right"
    },
    {
      "midi": 70,
      "time": 140,
      "duration": 0.25,
      "velocity": 0.82,
      "hand": "right"
    },
    {
      "midi": 38,
      "time": 140.5,
      "duration": 0.25,
      "velocity": 0.82,
      "hand": "left"
    },
    {
      "midi": 45,
      "time": 140.5,
      "duration": 0.25,
      "velocity": 0.82,
      "hand": "left"
    },
    {
      "midi": 63,
      "time": 140.5,
      "duration": 0.25,
      "velocity": 0.82,
      "hand": "right"
    },
    {
      "midi": 67,
      "time": 140.5,
      "duration": 0.25,
      "velocity": 0.82,
      "hand": "right"
    },
    {
      "midi": 46,
      "time": 141,
      "duration": 1,
      "velocity": 0.86,
      "hand": "left"
    },
    {
      "midi": 62,
      "time": 141,
      "duration": 1,
      "velocity": 0.82,
      "hand": "right"
    },
    {
      "midi": 65,
      "time": 141,
      "duration": 1,
      "velocity": 0.82,
      "hand": "right"
    },
    {
      "midi": 52,
      "time": 141.5,
      "duration": 0.25,
      "velocity": 0.82,
      "hand": "left"
    },
    {
      "midi": 45,
      "time": 142,
      "duration": 0.25,
      "velocity": 0.82,
      "hand": "left"
    },
    {
      "midi": 46,
      "time": 142.5,
      "duration": 1,
      "velocity": 0.86,
      "hand": "left"
    },
    {
      "midi": 62,
      "time": 142.5,
      "duration": 0.985,
      "velocity": 0.82,
      "hand": "right"
    },
    {
      "midi": 70,
      "time": 142.5,
      "duration": 1,
      "velocity": 0.82,
      "hand": "right"
    },
    {
      "midi": 52,
      "time": 143,
      "duration": 0.25,
      "velocity": 0.82,
      "hand": "left"
    },
    {
      "midi": 58,
      "time": 143,
      "duration": 0.75,
      "velocity": 0.86,
      "hand": "left"
    },
    {
      "midi": 60,
      "time": 143,
      "duration": 0.25,
      "velocity": 0.82,
      "hand": "right"
    },
    {
      "midi": 38,
      "time": 143.5,
      "duration": 0.25,
      "velocity": 0.82,
      "hand": "left"
    },
    {
      "midi": 45,
      "time": 143.5,
      "duration": 0.25,
      "velocity": 0.82,
      "hand": "left"
    },
    {
      "midi": 62,
      "time": 143.5,
      "duration": 0.25,
      "velocity": 0.86,
      "hand": "right"
    },
    {
      "midi": 65,
      "time": 143.5,
      "duration": 0.25,
      "velocity": 0.82,
      "hand": "right"
    },
    {
      "midi": 45,
      "time": 144,
      "duration": 0.25,
      "velocity": 0.82,
      "hand": "left"
    },
    {
      "midi": 53,
      "time": 144,
      "duration": 0.25,
      "velocity": 0.86,
      "hand": "left"
    },
    {
      "midi": 60,
      "time": 144,
      "duration": 0.25,
      "velocity": 0.86,
      "hand": "right"
    },
    {
      "midi": 63,
      "time": 144,
      "duration": 0.25,
      "velocity": 0.82,
      "hand": "right"
    },
    {
      "midi": 69,
      "time": 144,
      "duration": 0.25,
      "velocity": 0.82,
      "hand": "right"
    },
    {
      "midi": 53,
      "time": 144.5,
      "duration": 0.25,
      "velocity": 0.86,
      "hand": "left"
    },
    {
      "midi": 60,
      "time": 144.5,
      "duration": 0.25,
      "velocity": 0.86,
      "hand": "right"
    },
    {
      "midi": 63,
      "time": 144.5,
      "duration": 0.25,
      "velocity": 0.82,
      "hand": "right"
    },
    {
      "midi": 69,
      "time": 144.5,
      "duration": 0.25,
      "velocity": 0.82,
      "hand": "right"
    },
    {
      "midi": 45,
      "time": 145,
      "duration": 0.25,
      "velocity": 0.82,
      "hand": "left"
    },
    {
      "midi": 53,
      "time": 145,
      "duration": 0.25,
      "velocity": 0.86,
      "hand": "left"
    },
    {
      "midi": 60,
      "time": 145,
      "duration": 0.25,
      "velocity": 0.86,
      "hand": "right"
    },
    {
      "midi": 63,
      "time": 145,
      "duration": 0.25,
      "velocity": 0.82,
      "hand": "right"
    },
    {
      "midi": 69,
      "time": 145,
      "duration": 0.25,
      "velocity": 0.82,
      "hand": "right"
    },
    {
      "midi": 45,
      "time": 145.5,
      "duration": 0.25,
      "velocity": 0.82,
      "hand": "left"
    },
    {
      "midi": 53,
      "time": 145.5,
      "duration": 0.25,
      "velocity": 0.86,
      "hand": "left"
    },
    {
      "midi": 60,
      "time": 145.5,
      "duration": 0.25,
      "velocity": 0.86,
      "hand": "right"
    },
    {
      "midi": 63,
      "time": 145.5,
      "duration": 0.25,
      "velocity": 0.82,
      "hand": "right"
    },
    {
      "midi": 69,
      "time": 145.5,
      "duration": 0.25,
      "velocity": 0.82,
      "hand": "right"
    },
    {
      "midi": 53,
      "time": 146,
      "duration": 0.25,
      "velocity": 0.86,
      "hand": "left"
    },
    {
      "midi": 60,
      "time": 146,
      "duration": 0.25,
      "velocity": 0.82,
      "hand": "right"
    },
    {
      "midi": 63,
      "time": 146,
      "duration": 0.25,
      "velocity": 0.82,
      "hand": "right"
    },
    {
      "midi": 70,
      "time": 146,
      "duration": 0.25,
      "velocity": 0.82,
      "hand": "right"
    },
    {
      "midi": 38,
      "time": 146.5,
      "duration": 0.25,
      "velocity": 0.82,
      "hand": "left"
    },
    {
      "midi": 45,
      "time": 146.5,
      "duration": 0.25,
      "velocity": 0.82,
      "hand": "left"
    },
    {
      "midi": 63,
      "time": 146.5,
      "duration": 0.25,
      "velocity": 0.82,
      "hand": "right"
    },
    {
      "midi": 72,
      "time": 146.5,
      "duration": 0.25,
      "velocity": 0.82,
      "hand": "right"
    },
    {
      "midi": 46,
      "time": 147,
      "duration": 1.485,
      "velocity": 0.86,
      "hand": "left"
    },
    {
      "midi": 62,
      "time": 147,
      "duration": 1.485,
      "velocity": 0.82,
      "hand": "right"
    },
    {
      "midi": 70,
      "time": 147,
      "duration": 1.485,
      "velocity": 0.88,
      "hand": "right"
    },
    {
      "midi": 52,
      "time": 147.5,
      "duration": 0.25,
      "velocity": 0.82,
      "hand": "left"
    },
    {
      "midi": 60,
      "time": 147.5,
      "duration": 0.25,
      "velocity": 0.82,
      "hand": "right"
    },
    {
      "midi": 52,
      "time": 148,
      "duration": 0.25,
      "velocity": 0.82,
      "hand": "left"
    },
    {
      "midi": 60,
      "time": 148,
      "duration": 0.25,
      "velocity": 0.82,
      "hand": "right"
    },
    {
      "midi": 46,
      "time": 148.5,
      "duration": 1,
      "velocity": 0.86,
      "hand": "left"
    },
    {
      "midi": 52,
      "time": 148.5,
      "duration": 0.25,
      "velocity": 0.82,
      "hand": "left"
    },
    {
      "midi": 60,
      "time": 148.5,
      "duration": 0.25,
      "velocity": 0.82,
      "hand": "right"
    },
    {
      "midi": 62,
      "time": 148.5,
      "duration": 1,
      "velocity": 0.82,
      "hand": "right"
    },
    {
      "midi": 70,
      "time": 148.5,
      "duration": 1,
      "velocity": 0.82,
      "hand": "right"
    },
    {
      "midi": 48,
      "time": 149,
      "duration": 0.25,
      "velocity": 0.82,
      "hand": "left"
    },
    {
      "midi": 47,
      "time": 149.25,
      "duration": 0.235,
      "velocity": 0.82,
      "hand": "left"
    },
    {
      "midi": 47,
      "time": 149.5,
      "duration": 0.25,
      "velocity": 0.82,
      "hand": "left"
    },
    {
      "midi": 45,
      "time": 149.75,
      "duration": 0.235,
      "velocity": 0.82,
      "hand": "left"
    },
    {
      "midi": 46,
      "time": 150,
      "duration": 0.25,
      "velocity": 0.86,
      "hand": "left"
    },
    {
      "midi": 62,
      "time": 150,
      "duration": 0.25,
      "velocity": 0.82,
      "hand": "right"
    },
    {
      "midi": 65,
      "time": 150,
      "duration": 0.25,
      "velocity": 0.82,
      "hand": "right"
    },
    {
      "midi": 46,
      "time": 150.5,
      "duration": 0.25,
      "velocity": 0.86,
      "hand": "left"
    },
    {
      "midi": 52,
      "time": 150.5,
      "duration": 0.25,
      "velocity": 0.82,
      "hand": "left"
    },
    {
      "midi": 62,
      "time": 150.5,
      "duration": 0.25,
      "velocity": 0.82,
      "hand": "right"
    },
    {
      "midi": 65,
      "time": 150.5,
      "duration": 0.25,
      "velocity": 0.82,
      "hand": "right"
    },
    {
      "midi": 46,
      "time": 151,
      "duration": 0.25,
      "velocity": 0.86,
      "hand": "left"
    },
    {
      "midi": 62,
      "time": 151,
      "duration": 0.25,
      "velocity": 0.82,
      "hand": "right"
    },
    {
      "midi": 65,
      "time": 151,
      "duration": 0.25,
      "velocity": 0.82,
      "hand": "right"
    },
    {
      "midi": 45,
      "time": 151.5,
      "duration": 0.25,
      "velocity": 0.82,
      "hand": "left"
    },
    {
      "midi": 53,
      "time": 151.5,
      "duration": 0.25,
      "velocity": 0.86,
      "hand": "left"
    },
    {
      "midi": 63,
      "time": 151.5,
      "duration": 0.25,
      "velocity": 0.82,
      "hand": "right"
    },
    {
      "midi": 65,
      "time": 151.5,
      "duration": 0.25,
      "velocity": 0.82,
      "hand": "right"
    },
    {
      "midi": 53,
      "time": 152,
      "duration": 0.25,
      "velocity": 0.86,
      "hand": "left"
    },
    {
      "midi": 60,
      "time": 152,
      "duration": 0.25,
      "velocity": 0.82,
      "hand": "right"
    },
    {
      "midi": 63,
      "time": 152,
      "duration": 0.25,
      "velocity": 0.82,
      "hand": "right"
    },
    {
      "midi": 67,
      "time": 152,
      "duration": 0.25,
      "velocity": 0.82,
      "hand": "right"
    },
    {
      "midi": 38,
      "time": 152.5,
      "duration": 0.25,
      "velocity": 0.82,
      "hand": "left"
    },
    {
      "midi": 45,
      "time": 152.5,
      "duration": 0.25,
      "velocity": 0.82,
      "hand": "left"
    },
    {
      "midi": 60,
      "time": 152.5,
      "duration": 0.25,
      "velocity": 0.86,
      "hand": "right"
    },
    {
      "midi": 63,
      "time": 152.5,
      "duration": 0.25,
      "velocity": 0.82,
      "hand": "right"
    },
    {
      "midi": 69,
      "time": 152.5,
      "duration": 0.25,
      "velocity": 0.82,
      "hand": "right"
    },
    {
      "midi": 46,
      "time": 153,
      "duration": 1,
      "velocity": 0.86,
      "hand": "left"
    },
    {
      "midi": 62,
      "time": 153,
      "duration": 1,
      "velocity": 0.82,
      "hand": "right"
    },
    {
      "midi": 70,
      "time": 153,
      "duration": 1,
      "velocity": 0.82,
      "hand": "right"
    },
    {
      "midi": 52,
      "time": 153.5,
      "duration": 0.25,
      "velocity": 0.82,
      "hand": "left"
    },
    {
      "midi": 45,
      "time": 154,
      "duration": 0.25,
      "velocity": 0.82,
      "hand": "left"
    },
    {
      "midi": 46,
      "time": 154.5,
      "duration": 1,
      "velocity": 0.86,
      "hand": "left"
    },
    {
      "midi": 62,
      "time": 154.5,
      "duration": 0.985,
      "velocity": 0.82,
      "hand": "right"
    },
    {
      "midi": 65,
      "time": 154.5,
      "duration": 1,
      "velocity": 0.82,
      "hand": "right"
    },
    {
      "midi": 52,
      "time": 155,
      "duration": 0.25,
      "velocity": 0.82,
      "hand": "left"
    },
    {
      "midi": 60,
      "time": 155,
      "duration": 0.25,
      "velocity": 0.82,
      "hand": "right"
    },
    {
      "midi": 38,
      "time": 155.5,
      "duration": 0.25,
      "velocity": 0.82,
      "hand": "left"
    },
    {
      "midi": 45,
      "time": 155.5,
      "duration": 0.25,
      "velocity": 0.82,
      "hand": "left"
    },
    {
      "midi": 62,
      "time": 155.5,
      "duration": 0.25,
      "velocity": 0.86,
      "hand": "right"
    },
    {
      "midi": 45,
      "time": 156,
      "duration": 0.25,
      "velocity": 0.82,
      "hand": "left"
    },
    {
      "midi": 53,
      "time": 156,
      "duration": 0.25,
      "velocity": 0.86,
      "hand": "left"
    },
    {
      "midi": 60,
      "time": 156,
      "duration": 0.25,
      "velocity": 0.86,
      "hand": "right"
    },
    {
      "midi": 65,
      "time": 156,
      "duration": 0.25,
      "velocity": 0.82,
      "hand": "right"
    },
    {
      "midi": 69,
      "time": 156,
      "duration": 0.25,
      "velocity": 0.82,
      "hand": "right"
    },
    {
      "midi": 53,
      "time": 156.5,
      "duration": 0.25,
      "velocity": 0.86,
      "hand": "left"
    },
    {
      "midi": 60,
      "time": 156.5,
      "duration": 0.25,
      "velocity": 0.86,
      "hand": "right"
    },
    {
      "midi": 65,
      "time": 156.5,
      "duration": 0.25,
      "velocity": 0.82,
      "hand": "right"
    },
    {
      "midi": 69,
      "time": 156.5,
      "duration": 0.25,
      "velocity": 0.82,
      "hand": "right"
    },
    {
      "midi": 45,
      "time": 157,
      "duration": 0.25,
      "velocity": 0.82,
      "hand": "left"
    },
    {
      "midi": 53,
      "time": 157,
      "duration": 0.25,
      "velocity": 0.86,
      "hand": "left"
    },
    {
      "midi": 60,
      "time": 157,
      "duration": 0.25,
      "velocity": 0.86,
      "hand": "right"
    },
    {
      "midi": 65,
      "time": 157,
      "duration": 0.25,
      "velocity": 0.82,
      "hand": "right"
    },
    {
      "midi": 69,
      "time": 157,
      "duration": 0.25,
      "velocity": 0.82,
      "hand": "right"
    },
    {
      "midi": 45,
      "time": 157.5,
      "duration": 0.25,
      "velocity": 0.82,
      "hand": "left"
    },
    {
      "midi": 53,
      "time": 157.5,
      "duration": 0.25,
      "velocity": 0.86,
      "hand": "left"
    },
    {
      "midi": 60,
      "time": 157.5,
      "duration": 0.25,
      "velocity": 0.86,
      "hand": "right"
    },
    {
      "midi": 63,
      "time": 157.5,
      "duration": 0.25,
      "velocity": 0.82,
      "hand": "right"
    },
    {
      "midi": 69,
      "time": 157.5,
      "duration": 0.25,
      "velocity": 0.82,
      "hand": "right"
    },
    {
      "midi": 53,
      "time": 158,
      "duration": 0.25,
      "velocity": 0.86,
      "hand": "left"
    },
    {
      "midi": 60,
      "time": 158,
      "duration": 0.25,
      "velocity": 0.82,
      "hand": "right"
    },
    {
      "midi": 63,
      "time": 158,
      "duration": 0.25,
      "velocity": 0.82,
      "hand": "right"
    },
    {
      "midi": 70,
      "time": 158,
      "duration": 0.25,
      "velocity": 0.82,
      "hand": "right"
    },
    {
      "midi": 38,
      "time": 158.5,
      "duration": 0.25,
      "velocity": 0.82,
      "hand": "left"
    },
    {
      "midi": 45,
      "time": 158.5,
      "duration": 0.25,
      "velocity": 0.82,
      "hand": "left"
    },
    {
      "midi": 63,
      "time": 158.5,
      "duration": 0.25,
      "velocity": 0.82,
      "hand": "right"
    },
    {
      "midi": 72,
      "time": 158.5,
      "duration": 0.25,
      "velocity": 0.82,
      "hand": "right"
    },
    {
      "midi": 46,
      "time": 159,
      "duration": 1.485,
      "velocity": 0.86,
      "hand": "left"
    },
    {
      "midi": 62,
      "time": 159,
      "duration": 1.485,
      "velocity": 0.82,
      "hand": "right"
    },
    {
      "midi": 70,
      "time": 159,
      "duration": 1.485,
      "velocity": 0.88,
      "hand": "right"
    },
    {
      "midi": 52,
      "time": 159.5,
      "duration": 0.25,
      "velocity": 0.82,
      "hand": "left"
    },
    {
      "midi": 60,
      "time": 159.5,
      "duration": 0.25,
      "velocity": 0.82,
      "hand": "right"
    },
    {
      "midi": 52,
      "time": 160,
      "duration": 0.25,
      "velocity": 0.82,
      "hand": "left"
    },
    {
      "midi": 60,
      "time": 160,
      "duration": 0.25,
      "velocity": 0.82,
      "hand": "right"
    },
    {
      "midi": 46,
      "time": 160.5,
      "duration": 1,
      "velocity": 0.86,
      "hand": "left"
    },
    {
      "midi": 52,
      "time": 160.5,
      "duration": 0.25,
      "velocity": 0.82,
      "hand": "left"
    },
    {
      "midi": 60,
      "time": 160.5,
      "duration": 0.25,
      "velocity": 0.82,
      "hand": "right"
    },
    {
      "midi": 62,
      "time": 160.5,
      "duration": 1,
      "velocity": 0.82,
      "hand": "right"
    },
    {
      "midi": 70,
      "time": 160.5,
      "duration": 1,
      "velocity": 0.82,
      "hand": "right"
    },
    {
      "midi": 48,
      "time": 161,
      "duration": 0.25,
      "velocity": 0.82,
      "hand": "left"
    },
    {
      "midi": 47,
      "time": 161.25,
      "duration": 0.235,
      "velocity": 0.82,
      "hand": "left"
    },
    {
      "midi": 47,
      "time": 161.5,
      "duration": 0.25,
      "velocity": 0.82,
      "hand": "left"
    },
    {
      "midi": 45,
      "time": 161.75,
      "duration": 0.235,
      "velocity": 0.82,
      "hand": "left"
    },
    {
      "midi": 45,
      "time": 162,
      "duration": 0.25,
      "velocity": 0.82,
      "hand": "left"
    },
    {
      "midi": 51,
      "time": 162,
      "duration": 0.25,
      "velocity": 0.86,
      "hand": "left"
    },
    {
      "midi": 63,
      "time": 162,
      "duration": 0.25,
      "velocity": 0.82,
      "hand": "right"
    },
    {
      "midi": 67,
      "time": 162,
      "duration": 0.25,
      "velocity": 0.82,
      "hand": "right"
    },
    {
      "midi": 52,
      "time": 162.5,
      "duration": 0.25,
      "velocity": 0.82,
      "hand": "left"
    },
    {
      "midi": 63,
      "time": 162.5,
      "duration": 0.25,
      "velocity": 0.82,
      "hand": "right"
    },
    {
      "midi": 67,
      "time": 162.5,
      "duration": 0.25,
      "velocity": 0.82,
      "hand": "right"
    },
    {
      "midi": 45,
      "time": 163,
      "duration": 0.25,
      "velocity": 0.82,
      "hand": "left"
    },
    {
      "midi": 51,
      "time": 163,
      "duration": 0.25,
      "velocity": 0.86,
      "hand": "left"
    },
    {
      "midi": 63,
      "time": 163,
      "duration": 0.25,
      "velocity": 0.82,
      "hand": "right"
    },
    {
      "midi": 67,
      "time": 163,
      "duration": 0.25,
      "velocity": 0.82,
      "hand": "right"
    },
    {
      "midi": 45,
      "time": 163.5,
      "duration": 0.25,
      "velocity": 0.82,
      "hand": "left"
    },
    {
      "midi": 51,
      "time": 163.5,
      "duration": 0.25,
      "velocity": 0.86,
      "hand": "left"
    },
    {
      "midi": 67,
      "time": 163.5,
      "duration": 0.25,
      "velocity": 0.82,
      "hand": "right"
    },
    {
      "midi": 70,
      "time": 163.5,
      "duration": 0.25,
      "velocity": 0.82,
      "hand": "right"
    },
    {
      "midi": 52,
      "time": 164,
      "duration": 0.25,
      "velocity": 0.82,
      "hand": "left"
    },
    {
      "midi": 60,
      "time": 164,
      "duration": 0.25,
      "velocity": 0.82,
      "hand": "right"
    },
    {
      "midi": 65,
      "time": 164,
      "duration": 0.25,
      "velocity": 0.82,
      "hand": "right"
    },
    {
      "midi": 69,
      "time": 164,
      "duration": 0.25,
      "velocity": 0.82,
      "hand": "right"
    },
    {
      "midi": 38,
      "time": 164.5,
      "duration": 0.25,
      "velocity": 0.82,
      "hand": "left"
    },
    {
      "midi": 45,
      "time": 164.5,
      "duration": 0.25,
      "velocity": 0.82,
      "hand": "left"
    },
    {
      "midi": 63,
      "time": 164.5,
      "duration": 0.25,
      "velocity": 0.82,
      "hand": "right"
    },
    {
      "midi": 67,
      "time": 164.5,
      "duration": 0.25,
      "velocity": 0.82,
      "hand": "right"
    },
    {
      "midi": 46,
      "time": 165,
      "duration": 1,
      "velocity": 0.86,
      "hand": "left"
    },
    {
      "midi": 62,
      "time": 165,
      "duration": 1,
      "velocity": 0.82,
      "hand": "right"
    },
    {
      "midi": 65,
      "time": 165,
      "duration": 1,
      "velocity": 0.82,
      "hand": "right"
    },
    {
      "midi": 52,
      "time": 165.5,
      "duration": 0.25,
      "velocity": 0.82,
      "hand": "left"
    },
    {
      "midi": 45,
      "time": 166,
      "duration": 0.25,
      "velocity": 0.82,
      "hand": "left"
    },
    {
      "midi": 45,
      "time": 166.5,
      "duration": 0.25,
      "velocity": 0.82,
      "hand": "left"
    },
    {
      "midi": 50,
      "time": 166.5,
      "duration": 1,
      "velocity": 0.86,
      "hand": "left"
    },
    {
      "midi": 65,
      "time": 166.5,
      "duration": 1,
      "velocity": 0.82,
      "hand": "right"
    },
    {
      "midi": 70,
      "time": 166.5,
      "duration": 1,
      "velocity": 0.82,
      "hand": "right"
    },
    {
      "midi": 52,
      "time": 167,
      "duration": 0.25,
      "velocity": 0.82,
      "hand": "left"
    },
    {
      "midi": 60,
      "time": 167,
      "duration": 0.25,
      "velocity": 0.82,
      "hand": "right"
    },
    {
      "midi": 38,
      "time": 167.5,
      "duration": 0.25,
      "velocity": 0.82,
      "hand": "left"
    },
    {
      "midi": 45,
      "time": 167.5,
      "duration": 0.25,
      "velocity": 0.82,
      "hand": "left"
    },
    {
      "midi": 45,
      "time": 168,
      "duration": 0.25,
      "velocity": 0.82,
      "hand": "left"
    },
    {
      "midi": 55,
      "time": 168,
      "duration": 0.25,
      "velocity": 0.86,
      "hand": "left"
    },
    {
      "midi": 62,
      "time": 168,
      "duration": 0.25,
      "velocity": 0.86,
      "hand": "right"
    },
    {
      "midi": 67,
      "time": 168,
      "duration": 0.25,
      "velocity": 0.82,
      "hand": "right"
    },
    {
      "midi": 70,
      "time": 168,
      "duration": 0.25,
      "velocity": 0.82,
      "hand": "right"
    },
    {
      "midi": 52,
      "time": 168.5,
      "duration": 0.25,
      "velocity": 0.82,
      "hand": "left"
    },
    {
      "midi": 55,
      "time": 168.5,
      "duration": 0.25,
      "velocity": 0.86,
      "hand": "left"
    },
    {
      "midi": 62,
      "time": 168.5,
      "duration": 0.25,
      "velocity": 0.86,
      "hand": "right"
    },
    {
      "midi": 67,
      "time": 168.5,
      "duration": 0.25,
      "velocity": 0.82,
      "hand": "right"
    },
    {
      "midi": 70,
      "time": 168.5,
      "duration": 0.25,
      "velocity": 0.82,
      "hand": "right"
    },
    {
      "midi": 45,
      "time": 169,
      "duration": 0.25,
      "velocity": 0.82,
      "hand": "left"
    },
    {
      "midi": 53,
      "time": 169,
      "duration": 0.25,
      "velocity": 0.86,
      "hand": "left"
    },
    {
      "midi": 62,
      "time": 169,
      "duration": 0.25,
      "velocity": 0.86,
      "hand": "right"
    },
    {
      "midi": 67,
      "time": 169,
      "duration": 0.25,
      "velocity": 0.82,
      "hand": "right"
    },
    {
      "midi": 70,
      "time": 169,
      "duration": 0.25,
      "velocity": 0.82,
      "hand": "right"
    },
    {
      "midi": 45,
      "time": 169.5,
      "duration": 0.25,
      "velocity": 0.82,
      "hand": "left"
    },
    {
      "midi": 51,
      "time": 169.5,
      "duration": 0.25,
      "velocity": 0.86,
      "hand": "left"
    },
    {
      "midi": 63,
      "time": 169.5,
      "duration": 0.25,
      "velocity": 0.86,
      "hand": "right"
    },
    {
      "midi": 67,
      "time": 169.5,
      "duration": 0.25,
      "velocity": 0.82,
      "hand": "right"
    },
    {
      "midi": 70,
      "time": 169.5,
      "duration": 0.25,
      "velocity": 0.82,
      "hand": "right"
    },
    {
      "midi": 52,
      "time": 170,
      "duration": 0.25,
      "velocity": 0.82,
      "hand": "left"
    },
    {
      "midi": 60,
      "time": 170,
      "duration": 0.25,
      "velocity": 0.86,
      "hand": "right"
    },
    {
      "midi": 66,
      "time": 170,
      "duration": 0.25,
      "velocity": 0.82,
      "hand": "right"
    },
    {
      "midi": 69,
      "time": 170,
      "duration": 0.25,
      "velocity": 0.82,
      "hand": "right"
    },
    {
      "midi": 38,
      "time": 170.5,
      "duration": 0.25,
      "velocity": 0.82,
      "hand": "left"
    },
    {
      "midi": 45,
      "time": 170.5,
      "duration": 0.25,
      "velocity": 0.82,
      "hand": "left"
    },
    {
      "midi": 67,
      "time": 170.5,
      "duration": 0.25,
      "velocity": 0.82,
      "hand": "right"
    },
    {
      "midi": 70,
      "time": 170.5,
      "duration": 0.25,
      "velocity": 0.82,
      "hand": "right"
    },
    {
      "midi": 45,
      "time": 171,
      "duration": 0.25,
      "velocity": 0.82,
      "hand": "left"
    },
    {
      "midi": 53,
      "time": 171,
      "duration": 1.485,
      "velocity": 0.86,
      "hand": "left"
    },
    {
      "midi": 69,
      "time": 171,
      "duration": 1.485,
      "velocity": 0.82,
      "hand": "right"
    },
    {
      "midi": 72,
      "time": 171,
      "duration": 1.485,
      "velocity": 0.88,
      "hand": "right"
    },
    {
      "midi": 52,
      "time": 171.5,
      "duration": 0.25,
      "velocity": 0.82,
      "hand": "left"
    },
    {
      "midi": 60,
      "time": 171.5,
      "duration": 0.25,
      "velocity": 0.82,
      "hand": "right"
    },
    {
      "midi": 52,
      "time": 172,
      "duration": 0.25,
      "velocity": 0.82,
      "hand": "left"
    },
    {
      "midi": 60,
      "time": 172,
      "duration": 0.25,
      "velocity": 0.82,
      "hand": "right"
    },
    {
      "midi": 53,
      "time": 172.5,
      "duration": 1,
      "velocity": 0.86,
      "hand": "left"
    },
    {
      "midi": 60,
      "time": 172.5,
      "duration": 0.25,
      "velocity": 0.82,
      "hand": "right"
    },
    {
      "midi": 63,
      "time": 172.5,
      "duration": 1,
      "velocity": 0.86,
      "hand": "right"
    },
    {
      "midi": 69,
      "time": 172.5,
      "duration": 1,
      "velocity": 0.82,
      "hand": "right"
    },
    {
      "midi": 72,
      "time": 172.5,
      "duration": 1,
      "velocity": 0.82,
      "hand": "right"
    },
    {
      "midi": 48,
      "time": 173,
      "duration": 0.25,
      "velocity": 0.82,
      "hand": "left"
    },
    {
      "midi": 47,
      "time": 173.25,
      "duration": 0.235,
      "velocity": 0.82,
      "hand": "left"
    },
    {
      "midi": 47,
      "time": 173.5,
      "duration": 0.25,
      "velocity": 0.82,
      "hand": "left"
    },
    {
      "midi": 45,
      "time": 173.75,
      "duration": 0.235,
      "velocity": 0.82,
      "hand": "left"
    },
    {
      "midi": 46,
      "time": 174,
      "duration": 0.75,
      "velocity": 0.86,
      "hand": "left"
    },
    {
      "midi": 62,
      "time": 174,
      "duration": 0.75,
      "velocity": 0.86,
      "hand": "right"
    },
    {
      "midi": 70,
      "time": 174,
      "duration": 0.75,
      "velocity": 0.82,
      "hand": "right"
    },
    {
      "midi": 74,
      "time": 174,
      "duration": 1.485,
      "velocity": 0.88,
      "hand": "right"
    },
    {
      "midi": 52,
      "time": 174.5,
      "duration": 0.25,
      "velocity": 0.82,
      "hand": "left"
    },
    {
      "midi": 58,
      "time": 174.5,
      "duration": 0.25,
      "velocity": 0.86,
      "hand": "left"
    },
    {
      "midi": 65,
      "time": 174.5,
      "duration": 0.25,
      "velocity": 0.82,
      "hand": "right"
    },
    {
      "midi": 46,
      "time": 175,
      "duration": 0.25,
      "velocity": 0.86,
      "hand": "left"
    },
    {
      "midi": 65,
      "time": 175,
      "duration": 0.25,
      "velocity": 0.82,
      "hand": "right"
    },
    {
      "midi": 46,
      "time": 175.5,
      "duration": 0.25,
      "velocity": 0.86,
      "hand": "left"
    },
    {
      "midi": 74,
      "time": 175.5,
      "duration": 0.25,
      "velocity": 0.82,
      "hand": "right"
    },
    {
      "midi": 46,
      "time": 176,
      "duration": 0.25,
      "velocity": 0.86,
      "hand": "left"
    },
    {
      "midi": 52,
      "time": 176,
      "duration": 0.25,
      "velocity": 0.82,
      "hand": "left"
    },
    {
      "midi": 60,
      "time": 176,
      "duration": 0.25,
      "velocity": 0.82,
      "hand": "right"
    },
    {
      "midi": 64,
      "time": 176,
      "duration": 0.25,
      "velocity": 0.82,
      "hand": "right"
    },
    {
      "midi": 73,
      "time": 176,
      "duration": 0.25,
      "velocity": 0.82,
      "hand": "right"
    },
    {
      "midi": 38,
      "time": 176.5,
      "duration": 0.25,
      "velocity": 0.82,
      "hand": "left"
    },
    {
      "midi": 45,
      "time": 176.5,
      "duration": 0.25,
      "velocity": 0.82,
      "hand": "left"
    },
    {
      "midi": 65,
      "time": 176.5,
      "duration": 0.25,
      "velocity": 0.82,
      "hand": "right"
    },
    {
      "midi": 74,
      "time": 176.5,
      "duration": 0.25,
      "velocity": 0.82,
      "hand": "right"
    },
    {
      "midi": 46,
      "time": 177,
      "duration": 1,
      "velocity": 0.86,
      "hand": "left"
    },
    {
      "midi": 62,
      "time": 177,
      "duration": 1,
      "velocity": 0.82,
      "hand": "right"
    },
    {
      "midi": 70,
      "time": 177,
      "duration": 1,
      "velocity": 0.82,
      "hand": "right"
    },
    {
      "midi": 52,
      "time": 177.5,
      "duration": 0.25,
      "velocity": 0.82,
      "hand": "left"
    },
    {
      "midi": 45,
      "time": 178,
      "duration": 0.25,
      "velocity": 0.82,
      "hand": "left"
    },
    {
      "midi": 46,
      "time": 178.5,
      "duration": 1,
      "velocity": 0.86,
      "hand": "left"
    },
    {
      "midi": 62,
      "time": 178.5,
      "duration": 1,
      "velocity": 0.82,
      "hand": "right"
    },
    {
      "midi": 65,
      "time": 178.5,
      "duration": 1,
      "velocity": 0.82,
      "hand": "right"
    },
    {
      "midi": 52,
      "time": 179,
      "duration": 0.25,
      "velocity": 0.82,
      "hand": "left"
    },
    {
      "midi": 60,
      "time": 179,
      "duration": 0.25,
      "velocity": 0.82,
      "hand": "right"
    },
    {
      "midi": 38,
      "time": 179.5,
      "duration": 0.25,
      "velocity": 0.82,
      "hand": "left"
    },
    {
      "midi": 45,
      "time": 179.5,
      "duration": 0.25,
      "velocity": 0.82,
      "hand": "left"
    },
    {
      "midi": 46,
      "time": 180,
      "duration": 0.25,
      "velocity": 0.86,
      "hand": "left"
    },
    {
      "midi": 65,
      "time": 180,
      "duration": 0.25,
      "velocity": 0.82,
      "hand": "right"
    },
    {
      "midi": 74,
      "time": 180,
      "duration": 0.25,
      "velocity": 0.82,
      "hand": "right"
    },
    {
      "midi": 46,
      "time": 180.5,
      "duration": 0.25,
      "velocity": 0.86,
      "hand": "left"
    },
    {
      "midi": 52,
      "time": 180.5,
      "duration": 0.25,
      "velocity": 0.82,
      "hand": "left"
    },
    {
      "midi": 63,
      "time": 180.5,
      "duration": 0.25,
      "velocity": 0.82,
      "hand": "right"
    },
    {
      "midi": 72,
      "time": 180.5,
      "duration": 0.25,
      "velocity": 0.82,
      "hand": "right"
    },
    {
      "midi": 46,
      "time": 181,
      "duration": 0.25,
      "velocity": 0.86,
      "hand": "left"
    },
    {
      "midi": 62,
      "time": 181,
      "duration": 0.25,
      "velocity": 0.82,
      "hand": "right"
    },
    {
      "midi": 70,
      "time": 181,
      "duration": 0.25,
      "velocity": 0.82,
      "hand": "right"
    },
    {
      "midi": 45,
      "time": 181.5,
      "duration": 0.25,
      "velocity": 0.82,
      "hand": "left"
    },
    {
      "midi": 50,
      "time": 181.5,
      "duration": 0.25,
      "velocity": 0.86,
      "hand": "left"
    },
    {
      "midi": 65,
      "time": 181.5,
      "duration": 0.25,
      "velocity": 0.82,
      "hand": "right"
    },
    {
      "midi": 70,
      "time": 181.5,
      "duration": 0.25,
      "velocity": 0.82,
      "hand": "right"
    },
    {
      "midi": 48,
      "time": 182,
      "duration": 0.25,
      "velocity": 0.86,
      "hand": "left"
    },
    {
      "midi": 52,
      "time": 182,
      "duration": 0.25,
      "velocity": 0.82,
      "hand": "left"
    },
    {
      "midi": 60,
      "time": 182,
      "duration": 0.25,
      "velocity": 0.82,
      "hand": "right"
    },
    {
      "midi": 63,
      "time": 182,
      "duration": 0.25,
      "velocity": 0.82,
      "hand": "right"
    },
    {
      "midi": 69,
      "time": 182,
      "duration": 0.25,
      "velocity": 0.82,
      "hand": "right"
    },
    {
      "midi": 38,
      "time": 182.5,
      "duration": 0.25,
      "velocity": 0.82,
      "hand": "left"
    },
    {
      "midi": 45,
      "time": 182.5,
      "duration": 0.25,
      "velocity": 0.82,
      "hand": "left"
    },
    {
      "midi": 62,
      "time": 182.5,
      "duration": 0.25,
      "velocity": 0.82,
      "hand": "right"
    },
    {
      "midi": 70,
      "time": 182.5,
      "duration": 0.25,
      "velocity": 0.82,
      "hand": "right"
    },
    {
      "midi": 45,
      "time": 183,
      "duration": 0.25,
      "velocity": 0.82,
      "hand": "left"
    },
    {
      "midi": 53,
      "time": 183,
      "duration": 1.485,
      "velocity": 0.86,
      "hand": "left"
    },
    {
      "midi": 65,
      "time": 183,
      "duration": 1.485,
      "velocity": 0.82,
      "hand": "right"
    },
    {
      "midi": 72,
      "time": 183,
      "duration": 1.485,
      "velocity": 0.88,
      "hand": "right"
    },
    {
      "midi": 52,
      "time": 183.5,
      "duration": 0.25,
      "velocity": 0.82,
      "hand": "left"
    },
    {
      "midi": 60,
      "time": 183.5,
      "duration": 0.25,
      "velocity": 0.82,
      "hand": "right"
    },
    {
      "midi": 52,
      "time": 184,
      "duration": 0.25,
      "velocity": 0.82,
      "hand": "left"
    },
    {
      "midi": 60,
      "time": 184,
      "duration": 0.25,
      "velocity": 0.82,
      "hand": "right"
    },
    {
      "midi": 53,
      "time": 184.5,
      "duration": 1,
      "velocity": 0.86,
      "hand": "left"
    },
    {
      "midi": 60,
      "time": 184.5,
      "duration": 0.25,
      "velocity": 0.82,
      "hand": "right"
    },
    {
      "midi": 65,
      "time": 184.5,
      "duration": 1,
      "velocity": 0.82,
      "hand": "right"
    },
    {
      "midi": 72,
      "time": 184.5,
      "duration": 1,
      "velocity": 0.82,
      "hand": "right"
    },
    {
      "midi": 48,
      "time": 185,
      "duration": 0.25,
      "velocity": 0.82,
      "hand": "left"
    },
    {
      "midi": 47,
      "time": 185.25,
      "duration": 0.235,
      "velocity": 0.82,
      "hand": "left"
    },
    {
      "midi": 47,
      "time": 185.5,
      "duration": 0.25,
      "velocity": 0.82,
      "hand": "left"
    },
    {
      "midi": 45,
      "time": 185.75,
      "duration": 0.235,
      "velocity": 0.82,
      "hand": "left"
    },
    {
      "midi": 46,
      "time": 186,
      "duration": 0.25,
      "velocity": 0.86,
      "hand": "left"
    },
    {
      "midi": 65,
      "time": 186,
      "duration": 0.25,
      "velocity": 0.82,
      "hand": "right"
    },
    {
      "midi": 74,
      "time": 186,
      "duration": 0.25,
      "velocity": 0.82,
      "hand": "right"
    },
    {
      "midi": 46,
      "time": 186.5,
      "duration": 0.25,
      "velocity": 0.86,
      "hand": "left"
    },
    {
      "midi": 52,
      "time": 186.5,
      "duration": 0.25,
      "velocity": 0.82,
      "hand": "left"
    },
    {
      "midi": 65,
      "time": 186.5,
      "duration": 0.25,
      "velocity": 0.82,
      "hand": "right"
    },
    {
      "midi": 74,
      "time": 186.5,
      "duration": 0.25,
      "velocity": 0.82,
      "hand": "right"
    },
    {
      "midi": 46,
      "time": 187,
      "duration": 0.25,
      "velocity": 0.86,
      "hand": "left"
    },
    {
      "midi": 65,
      "time": 187,
      "duration": 0.25,
      "velocity": 0.82,
      "hand": "right"
    },
    {
      "midi": 74,
      "time": 187,
      "duration": 0.25,
      "velocity": 0.82,
      "hand": "right"
    },
    {
      "midi": 45,
      "time": 187.5,
      "duration": 0.25,
      "velocity": 0.82,
      "hand": "left"
    },
    {
      "midi": 51,
      "time": 187.5,
      "duration": 0.25,
      "velocity": 0.86,
      "hand": "left"
    },
    {
      "midi": 63,
      "time": 187.5,
      "duration": 0.25,
      "velocity": 0.82,
      "hand": "right"
    },
    {
      "midi": 72,
      "time": 187.5,
      "duration": 0.25,
      "velocity": 0.82,
      "hand": "right"
    },
    {
      "midi": 52,
      "time": 188,
      "duration": 0.25,
      "velocity": 0.82,
      "hand": "left"
    },
    {
      "midi": 60,
      "time": 188,
      "duration": 0.25,
      "velocity": 0.82,
      "hand": "right"
    },
    {
      "midi": 63,
      "time": 188,
      "duration": 0.25,
      "velocity": 0.82,
      "hand": "right"
    },
    {
      "midi": 70,
      "time": 188,
      "duration": 0.25,
      "velocity": 0.82,
      "hand": "right"
    },
    {
      "midi": 38,
      "time": 188.5,
      "duration": 0.25,
      "velocity": 0.82,
      "hand": "left"
    },
    {
      "midi": 45,
      "time": 188.5,
      "duration": 0.25,
      "velocity": 0.82,
      "hand": "left"
    },
    {
      "midi": 63,
      "time": 188.5,
      "duration": 0.25,
      "velocity": 0.82,
      "hand": "right"
    },
    {
      "midi": 67,
      "time": 188.5,
      "duration": 0.25,
      "velocity": 0.82,
      "hand": "right"
    },
    {
      "midi": 46,
      "time": 189,
      "duration": 1,
      "velocity": 0.86,
      "hand": "left"
    },
    {
      "midi": 62,
      "time": 189,
      "duration": 1,
      "velocity": 0.82,
      "hand": "right"
    },
    {
      "midi": 65,
      "time": 189,
      "duration": 1,
      "velocity": 0.82,
      "hand": "right"
    },
    {
      "midi": 52,
      "time": 189.5,
      "duration": 0.25,
      "velocity": 0.82,
      "hand": "left"
    },
    {
      "midi": 45,
      "time": 190,
      "duration": 0.25,
      "velocity": 0.82,
      "hand": "left"
    },
    {
      "midi": 46,
      "time": 190.5,
      "duration": 1,
      "velocity": 0.86,
      "hand": "left"
    },
    {
      "midi": 62,
      "time": 190.5,
      "duration": 0.985,
      "velocity": 0.82,
      "hand": "right"
    },
    {
      "midi": 70,
      "time": 190.5,
      "duration": 1,
      "velocity": 0.82,
      "hand": "right"
    },
    {
      "midi": 52,
      "time": 191,
      "duration": 0.25,
      "velocity": 0.82,
      "hand": "left"
    },
    {
      "midi": 58,
      "time": 191,
      "duration": 0.75,
      "velocity": 0.86,
      "hand": "left"
    },
    {
      "midi": 60,
      "time": 191,
      "duration": 0.25,
      "velocity": 0.82,
      "hand": "right"
    },
    {
      "midi": 38,
      "time": 191.5,
      "duration": 0.25,
      "velocity": 0.82,
      "hand": "left"
    },
    {
      "midi": 45,
      "time": 191.5,
      "duration": 0.25,
      "velocity": 0.82,
      "hand": "left"
    },
    {
      "midi": 62,
      "time": 191.5,
      "duration": 0.25,
      "velocity": 0.86,
      "hand": "right"
    },
    {
      "midi": 65,
      "time": 191.5,
      "duration": 0.25,
      "velocity": 0.82,
      "hand": "right"
    },
    {
      "midi": 45,
      "time": 192,
      "duration": 0.25,
      "velocity": 0.82,
      "hand": "left"
    },
    {
      "midi": 53,
      "time": 192,
      "duration": 0.25,
      "velocity": 0.86,
      "hand": "left"
    },
    {
      "midi": 60,
      "time": 192,
      "duration": 0.25,
      "velocity": 0.86,
      "hand": "right"
    },
    {
      "midi": 63,
      "time": 192,
      "duration": 0.25,
      "velocity": 0.82,
      "hand": "right"
    },
    {
      "midi": 69,
      "time": 192,
      "duration": 0.25,
      "velocity": 0.82,
      "hand": "right"
    },
    {
      "midi": 53,
      "time": 192.5,
      "duration": 0.25,
      "velocity": 0.86,
      "hand": "left"
    },
    {
      "midi": 60,
      "time": 192.5,
      "duration": 0.25,
      "velocity": 0.86,
      "hand": "right"
    },
    {
      "midi": 63,
      "time": 192.5,
      "duration": 0.25,
      "velocity": 0.82,
      "hand": "right"
    },
    {
      "midi": 69,
      "time": 192.5,
      "duration": 0.25,
      "velocity": 0.82,
      "hand": "right"
    },
    {
      "midi": 45,
      "time": 193,
      "duration": 0.25,
      "velocity": 0.82,
      "hand": "left"
    },
    {
      "midi": 53,
      "time": 193,
      "duration": 0.25,
      "velocity": 0.86,
      "hand": "left"
    },
    {
      "midi": 60,
      "time": 193,
      "duration": 0.25,
      "velocity": 0.86,
      "hand": "right"
    },
    {
      "midi": 63,
      "time": 193,
      "duration": 0.25,
      "velocity": 0.82,
      "hand": "right"
    },
    {
      "midi": 69,
      "time": 193,
      "duration": 0.25,
      "velocity": 0.82,
      "hand": "right"
    },
    {
      "midi": 45,
      "time": 193.5,
      "duration": 0.25,
      "velocity": 0.82,
      "hand": "left"
    },
    {
      "midi": 53,
      "time": 193.5,
      "duration": 0.25,
      "velocity": 0.86,
      "hand": "left"
    },
    {
      "midi": 60,
      "time": 193.5,
      "duration": 0.25,
      "velocity": 0.86,
      "hand": "right"
    },
    {
      "midi": 63,
      "time": 193.5,
      "duration": 0.25,
      "velocity": 0.82,
      "hand": "right"
    },
    {
      "midi": 69,
      "time": 193.5,
      "duration": 0.25,
      "velocity": 0.82,
      "hand": "right"
    },
    {
      "midi": 53,
      "time": 194,
      "duration": 0.25,
      "velocity": 0.86,
      "hand": "left"
    },
    {
      "midi": 60,
      "time": 194,
      "duration": 0.25,
      "velocity": 0.82,
      "hand": "right"
    },
    {
      "midi": 63,
      "time": 194,
      "duration": 0.25,
      "velocity": 0.82,
      "hand": "right"
    },
    {
      "midi": 70,
      "time": 194,
      "duration": 0.25,
      "velocity": 0.82,
      "hand": "right"
    },
    {
      "midi": 38,
      "time": 194.5,
      "duration": 0.25,
      "velocity": 0.82,
      "hand": "left"
    },
    {
      "midi": 45,
      "time": 194.5,
      "duration": 0.25,
      "velocity": 0.82,
      "hand": "left"
    },
    {
      "midi": 63,
      "time": 194.5,
      "duration": 0.25,
      "velocity": 0.82,
      "hand": "right"
    },
    {
      "midi": 72,
      "time": 194.5,
      "duration": 0.25,
      "velocity": 0.82,
      "hand": "right"
    },
    {
      "midi": 46,
      "time": 195,
      "duration": 1.485,
      "velocity": 0.86,
      "hand": "left"
    },
    {
      "midi": 62,
      "time": 195,
      "duration": 1.485,
      "velocity": 0.82,
      "hand": "right"
    },
    {
      "midi": 70,
      "time": 195,
      "duration": 1.485,
      "velocity": 0.88,
      "hand": "right"
    },
    {
      "midi": 38,
      "time": 195.75,
      "duration": 0.25,
      "velocity": 0.82,
      "hand": "left"
    },
    {
      "midi": 47,
      "time": 196,
      "duration": 0.25,
      "velocity": 0.82,
      "hand": "left"
    },
    {
      "midi": 45,
      "time": 196.25,
      "duration": 0.235,
      "velocity": 0.82,
      "hand": "left"
    },
    {
      "midi": 46,
      "time": 196.5,
      "duration": 1,
      "velocity": 0.86,
      "hand": "left"
    },
    {
      "midi": 62,
      "time": 196.5,
      "duration": 1,
      "velocity": 0.82,
      "hand": "right"
    },
    {
      "midi": 70,
      "time": 196.5,
      "duration": 1,
      "velocity": 0.82,
      "hand": "right"
    }
  ]
}
