{
  "id": "ciranda-cirandinha",
  "title": "Ciranda, Cirandinha",
  "artist": "Tradicional",
  "difficulty": "Fácil",
  "bpm": 100,
  "duration": 81,
  "category": "Infantis",
  "isPremium": false,
  "coverUrl": "/images/covers/placeholder.png",
  "notes": [
    {
      "midi": 35,
      "time": 4.8,
      "duration": 0.075,
      "velocity": 0.59,
      "hand": "left"
    },
    {
      "midi": 36,
      "time": 4.8,
      "duration": 0.6,
      "velocity": 0.96,
      "hand": "left"
    },
    {
      "midi": 42,
      "time": 4.8,
      "duration": 0.075,
      "velocity": 0.73,
      "hand": "left"
    },
    {
      "midi": 55,
      "time": 4.8,
      "duration": 2.25,
      "velocity": 0.46,
      "hand": "left"
    },
    {
      "midi": 57,
      "time": 4.8,
      "duration": 0.15,
      "velocity": 0.61,
      "hand": "left"
    },
    {
      "midi": 57,
      "time": 4.8,
      "duration": 0.075,
      "velocity": 0.52,
      "hand": "left"
    },
    {
      "midi": 60,
      "time": 4.8,
      "duration": 0.6,
      "velocity": 0.73,
      "hand": "right"
    },
    {
      "midi": 60,
      "time": 4.8,
      "duration": 2.25,
      "velocity": 0.48,
      "hand": "right"
    },
    {
      "midi": 60,
      "time": 4.8,
      "duration": 1.65,
      "velocity": 0.53,
      "hand": "right"
    },
    {
      "midi": 60,
      "time": 4.8,
      "duration": 0.6,
      "velocity": 0.73,
      "hand": "right"
    },
    {
      "midi": 62,
      "time": 4.8,
      "duration": 0.15,
      "velocity": 0.58,
      "hand": "right"
    },
    {
      "midi": 62,
      "time": 4.8,
      "duration": 0.075,
      "velocity": 0.56,
      "hand": "right"
    },
    {
      "midi": 64,
      "time": 4.8,
      "duration": 4.35,
      "velocity": 0.44,
      "hand": "right"
    },
    {
      "midi": 64,
      "time": 4.8,
      "duration": 1.65,
      "velocity": 0.63,
      "hand": "right"
    },
    {
      "midi": 67,
      "time": 4.8,
      "duration": 0.15,
      "velocity": 0.57,
      "hand": "right"
    },
    {
      "midi": 67,
      "time": 4.8,
      "duration": 1.65,
      "velocity": 0.61,
      "hand": "right"
    },
    {
      "midi": 38,
      "time": 5.1,
      "duration": 0.075,
      "velocity": 0.57,
      "hand": "left"
    },
    {
      "midi": 42,
      "time": 5.1,
      "duration": 0.075,
      "velocity": 0.65,
      "hand": "left"
    },
    {
      "midi": 51,
      "time": 5.1,
      "duration": 0.075,
      "velocity": 0.56,
      "hand": "left"
    },
    {
      "midi": 54,
      "time": 5.1,
      "duration": 0.075,
      "velocity": 0.68,
      "hand": "left"
    },
    {
      "midi": 57,
      "time": 5.1,
      "duration": 0.15,
      "velocity": 0.55,
      "hand": "left"
    },
    {
      "midi": 62,
      "time": 5.1,
      "duration": 0.075,
      "velocity": 0.56,
      "hand": "right"
    },
    {
      "midi": 67,
      "time": 5.1,
      "duration": 0.15,
      "velocity": 0.52,
      "hand": "right"
    },
    {
      "midi": 70,
      "time": 5.1,
      "duration": 0.075,
      "velocity": 0.72,
      "hand": "right"
    },
    {
      "midi": 57,
      "time": 5.25,
      "duration": 0.15,
      "velocity": 0.51,
      "hand": "left"
    },
    {
      "midi": 62,
      "time": 5.25,
      "duration": 0.075,
      "velocity": 0.51,
      "hand": "right"
    },
    {
      "midi": 67,
      "time": 5.25,
      "duration": 0.15,
      "velocity": 0.54,
      "hand": "right"
    },
    {
      "midi": 31,
      "time": 5.4,
      "duration": 0.45,
      "velocity": 0.96,
      "hand": "left"
    },
    {
      "midi": 35,
      "time": 5.4,
      "duration": 0.075,
      "velocity": 0.55,
      "hand": "left"
    },
    {
      "midi": 42,
      "time": 5.4,
      "duration": 0.075,
      "velocity": 0.59,
      "hand": "left"
    },
    {
      "midi": 51,
      "time": 5.4,
      "duration": 0.075,
      "velocity": 0.57,
      "hand": "left"
    },
    {
      "midi": 57,
      "time": 5.4,
      "duration": 0.075,
      "velocity": 0.5,
      "hand": "left"
    },
    {
      "midi": 62,
      "time": 5.4,
      "duration": 0.075,
      "velocity": 0.72,
      "hand": "right"
    },
    {
      "midi": 64,
      "time": 5.4,
      "duration": 0.3,
      "velocity": 0.65,
      "hand": "right"
    },
    {
      "midi": 67,
      "time": 5.4,
      "duration": 0.15,
      "velocity": 0.5,
      "hand": "right"
    },
    {
      "midi": 70,
      "time": 5.4,
      "duration": 0.075,
      "velocity": 0.69,
      "hand": "right"
    },
    {
      "midi": 38,
      "time": 5.7,
      "duration": 0.075,
      "velocity": 0.53,
      "hand": "left"
    },
    {
      "midi": 42,
      "time": 5.7,
      "duration": 0.075,
      "velocity": 0.58,
      "hand": "left"
    },
    {
      "midi": 51,
      "time": 5.7,
      "duration": 0.075,
      "velocity": 0.49,
      "hand": "left"
    },
    {
      "midi": 54,
      "time": 5.7,
      "duration": 0.075,
      "velocity": 0.56,
      "hand": "left"
    },
    {
      "midi": 57,
      "time": 5.7,
      "duration": 0.75,
      "velocity": 0.65,
      "hand": "left"
    },
    {
      "midi": 57,
      "time": 5.7,
      "duration": 0.15,
      "velocity": 0.69,
      "hand": "left"
    },
    {
      "midi": 62,
      "time": 5.7,
      "duration": 0.75,
      "velocity": 0.72,
      "hand": "right"
    },
    {
      "midi": 62,
      "time": 5.7,
      "duration": 0.075,
      "velocity": 0.73,
      "hand": "right"
    },
    {
      "midi": 67,
      "time": 5.7,
      "duration": 0.75,
      "velocity": 0.61,
      "hand": "right"
    },
    {
      "midi": 67,
      "time": 5.7,
      "duration": 0.15,
      "velocity": 0.57,
      "hand": "right"
    },
    {
      "midi": 67,
      "time": 5.7,
      "duration": 0.6,
      "velocity": 0.54,
      "hand": "right"
    },
    {
      "midi": 70,
      "time": 5.7,
      "duration": 0.075,
      "velocity": 0.68,
      "hand": "right"
    },
    {
      "midi": 35,
      "time": 6,
      "duration": 0.075,
      "velocity": 0.55,
      "hand": "left"
    },
    {
      "midi": 36,
      "time": 6,
      "duration": 0.6,
      "velocity": 0.96,
      "hand": "left"
    },
    {
      "midi": 42,
      "time": 6,
      "duration": 0.075,
      "velocity": 0.61,
      "hand": "left"
    },
    {
      "midi": 51,
      "time": 6,
      "duration": 0.075,
      "velocity": 0.51,
      "hand": "left"
    },
    {
      "midi": 70,
      "time": 6,
      "duration": 0.075,
      "velocity": 0.61,
      "hand": "right"
    },
    {
      "midi": 38,
      "time": 6.3,
      "duration": 0.075,
      "velocity": 0.54,
      "hand": "left"
    },
    {
      "midi": 42,
      "time": 6.3,
      "duration": 0.075,
      "velocity": 0.61,
      "hand": "left"
    },
    {
      "midi": 51,
      "time": 6.3,
      "duration": 0.075,
      "velocity": 0.52,
      "hand": "left"
    },
    {
      "midi": 54,
      "time": 6.3,
      "duration": 0.075,
      "velocity": 0.68,
      "hand": "left"
    },
    {
      "midi": 57,
      "time": 6.3,
      "duration": 0.15,
      "velocity": 0.64,
      "hand": "left"
    },
    {
      "midi": 62,
      "time": 6.3,
      "duration": 0.075,
      "velocity": 0.72,
      "hand": "right"
    },
    {
      "midi": 64,
      "time": 6.3,
      "duration": 0.3,
      "velocity": 0.51,
      "hand": "right"
    },
    {
      "midi": 67,
      "time": 6.3,
      "duration": 0.075,
      "velocity": 0.55,
      "hand": "right"
    },
    {
      "midi": 31,
      "time": 6.6,
      "duration": 0.6,
      "velocity": 0.96,
      "hand": "left"
    },
    {
      "midi": 35,
      "time": 6.6,
      "duration": 0.075,
      "velocity": 0.68,
      "hand": "left"
    },
    {
      "midi": 42,
      "time": 6.6,
      "duration": 0.075,
      "velocity": 0.58,
      "hand": "left"
    },
    {
      "midi": 51,
      "time": 6.6,
      "duration": 0.075,
      "velocity": 0.49,
      "hand": "left"
    },
    {
      "midi": 57,
      "time": 6.6,
      "duration": 0.15,
      "velocity": 0.61,
      "hand": "left"
    },
    {
      "midi": 60,
      "time": 6.6,
      "duration": 0.45,
      "velocity": 0.57,
      "hand": "right"
    },
    {
      "midi": 62,
      "time": 6.6,
      "duration": 0.15,
      "velocity": 0.72,
      "hand": "right"
    },
    {
      "midi": 62,
      "time": 6.6,
      "duration": 0.075,
      "velocity": 0.72,
      "hand": "right"
    },
    {
      "midi": 62,
      "time": 6.6,
      "duration": 0.3,
      "velocity": 0.53,
      "hand": "right"
    },
    {
      "midi": 64,
      "time": 6.6,
      "duration": 0.45,
      "velocity": 0.68,
      "hand": "right"
    },
    {
      "midi": 67,
      "time": 6.6,
      "duration": 0.15,
      "velocity": 0.63,
      "hand": "right"
    },
    {
      "midi": 67,
      "time": 6.6,
      "duration": 0.075,
      "velocity": 0.54,
      "hand": "right"
    },
    {
      "midi": 69,
      "time": 6.6,
      "duration": 0.45,
      "velocity": 0.63,
      "hand": "right"
    },
    {
      "midi": 38,
      "time": 6.9,
      "duration": 0.075,
      "velocity": 0.53,
      "hand": "left"
    },
    {
      "midi": 42,
      "time": 6.9,
      "duration": 0.075,
      "velocity": 0.57,
      "hand": "left"
    },
    {
      "midi": 51,
      "time": 6.9,
      "duration": 0.075,
      "velocity": 0.56,
      "hand": "left"
    },
    {
      "midi": 54,
      "time": 6.9,
      "duration": 0.075,
      "velocity": 0.55,
      "hand": "left"
    },
    {
      "midi": 57,
      "time": 6.9,
      "duration": 0.15,
      "velocity": 0.49,
      "hand": "left"
    },
    {
      "midi": 60,
      "time": 6.9,
      "duration": 0.3,
      "velocity": 0.54,
      "hand": "right"
    },
    {
      "midi": 62,
      "time": 6.9,
      "duration": 0.075,
      "velocity": 0.57,
      "hand": "right"
    },
    {
      "midi": 67,
      "time": 6.9,
      "duration": 0.15,
      "velocity": 0.55,
      "hand": "right"
    },
    {
      "midi": 35,
      "time": 7.2,
      "duration": 0.6,
      "velocity": 0.96,
      "hand": "left"
    },
    {
      "midi": 35,
      "time": 7.2,
      "duration": 0.075,
      "velocity": 0.69,
      "hand": "left"
    },
    {
      "midi": 42,
      "time": 7.2,
      "duration": 0.075,
      "velocity": 0.54,
      "hand": "left"
    },
    {
      "midi": 51,
      "time": 7.2,
      "duration": 0.075,
      "velocity": 0.54,
      "hand": "left"
    },
    {
      "midi": 55,
      "time": 7.2,
      "duration": 0.75,
      "velocity": 0.61,
      "hand": "left"
    },
    {
      "midi": 55,
      "time": 7.2,
      "duration": 1.95,
      "velocity": 0.25,
      "hand": "left"
    },
    {
      "midi": 59,
      "time": 7.2,
      "duration": 0.75,
      "velocity": 0.61,
      "hand": "left"
    },
    {
      "midi": 59,
      "time": 7.2,
      "duration": 0.15,
      "velocity": 0.51,
      "hand": "left"
    },
    {
      "midi": 59,
      "time": 7.2,
      "duration": 0.6,
      "velocity": 0.57,
      "hand": "left"
    },
    {
      "midi": 59,
      "time": 7.2,
      "duration": 1.95,
      "velocity": 0.54,
      "hand": "left"
    },
    {
      "midi": 59,
      "time": 7.2,
      "duration": 0.6,
      "velocity": 0.57,
      "hand": "left"
    },
    {
      "midi": 60,
      "time": 7.2,
      "duration": 1.95,
      "velocity": 0.54,
      "hand": "right"
    },
    {
      "midi": 62,
      "time": 7.2,
      "duration": 0.75,
      "velocity": 0.55,
      "hand": "right"
    },
    {
      "midi": 62,
      "time": 7.2,
      "duration": 0.075,
      "velocity": 0.72,
      "hand": "right"
    },
    {
      "midi": 64,
      "time": 7.2,
      "duration": 0.75,
      "velocity": 0.53,
      "hand": "right"
    },
    {
      "midi": 64,
      "time": 7.2,
      "duration": 0.075,
      "velocity": 0.65,
      "hand": "right"
    },
    {
      "midi": 64,
      "time": 7.2,
      "duration": 1.95,
      "velocity": 0.56,
      "hand": "right"
    },
    {
      "midi": 67,
      "time": 7.2,
      "duration": 0.075,
      "velocity": 0.38,
      "hand": "right"
    },
    {
      "midi": 67,
      "time": 7.2,
      "duration": 2.1,
      "velocity": 0.63,
      "hand": "right"
    },
    {
      "midi": 71,
      "time": 7.2,
      "duration": 2.1,
      "velocity": 0.57,
      "hand": "right"
    },
    {
      "midi": 38,
      "time": 7.5,
      "duration": 0.075,
      "velocity": 0.58,
      "hand": "left"
    },
    {
      "midi": 42,
      "time": 7.5,
      "duration": 0.075,
      "velocity": 0.63,
      "hand": "left"
    },
    {
      "midi": 51,
      "time": 7.5,
      "duration": 0.075,
      "velocity": 0.55,
      "hand": "left"
    },
    {
      "midi": 54,
      "time": 7.5,
      "duration": 0.075,
      "velocity": 0.52,
      "hand": "left"
    },
    {
      "midi": 70,
      "time": 7.5,
      "duration": 0.075,
      "velocity": 0.72,
      "hand": "right"
    },
    {
      "midi": 59,
      "time": 7.65,
      "duration": 0.15,
      "velocity": 0.61,
      "hand": "left"
    },
    {
      "midi": 62,
      "time": 7.65,
      "duration": 0.075,
      "velocity": 0.57,
      "hand": "right"
    },
    {
      "midi": 64,
      "time": 7.65,
      "duration": 0.075,
      "velocity": 0.55,
      "hand": "right"
    },
    {
      "midi": 67,
      "time": 7.65,
      "duration": 0.15,
      "velocity": 0.53,
      "hand": "right"
    },
    {
      "midi": 35,
      "time": 7.8,
      "duration": 0.075,
      "velocity": 0.7,
      "hand": "left"
    },
    {
      "midi": 40,
      "time": 7.8,
      "duration": 0.6,
      "velocity": 0.96,
      "hand": "left"
    },
    {
      "midi": 42,
      "time": 7.8,
      "duration": 0.075,
      "velocity": 0.54,
      "hand": "left"
    },
    {
      "midi": 51,
      "time": 7.8,
      "duration": 0.075,
      "velocity": 0.51,
      "hand": "left"
    },
    {
      "midi": 59,
      "time": 7.8,
      "duration": 0.075,
      "velocity": 0.52,
      "hand": "left"
    },
    {
      "midi": 62,
      "time": 7.8,
      "duration": 0.075,
      "velocity": 0.56,
      "hand": "right"
    },
    {
      "midi": 64,
      "time": 7.8,
      "duration": 0.075,
      "velocity": 0.59,
      "hand": "right"
    },
    {
      "midi": 67,
      "time": 7.8,
      "duration": 0.075,
      "velocity": 0.42,
      "hand": "right"
    },
    {
      "midi": 69,
      "time": 7.8,
      "duration": 0.3,
      "velocity": 0.56,
      "hand": "right"
    },
    {
      "midi": 70,
      "time": 7.8,
      "duration": 0.075,
      "velocity": 0.72,
      "hand": "right"
    },
    {
      "midi": 38,
      "time": 8.1,
      "duration": 0.075,
      "velocity": 0.52,
      "hand": "left"
    },
    {
      "midi": 42,
      "time": 8.1,
      "duration": 0.075,
      "velocity": 0.54,
      "hand": "left"
    },
    {
      "midi": 51,
      "time": 8.1,
      "duration": 0.075,
      "velocity": 0.54,
      "hand": "left"
    },
    {
      "midi": 54,
      "time": 8.1,
      "duration": 0.075,
      "velocity": 0.57,
      "hand": "left"
    },
    {
      "midi": 55,
      "time": 8.1,
      "duration": 0.75,
      "velocity": 0.63,
      "hand": "left"
    },
    {
      "midi": 59,
      "time": 8.1,
      "duration": 0.75,
      "velocity": 0.68,
      "hand": "left"
    },
    {
      "midi": 59,
      "time": 8.1,
      "duration": 0.15,
      "velocity": 0.57,
      "hand": "left"
    },
    {
      "midi": 62,
      "time": 8.1,
      "duration": 0.75,
      "velocity": 0.61,
      "hand": "right"
    },
    {
      "midi": 62,
      "time": 8.1,
      "duration": 0.075,
      "velocity": 0.69,
      "hand": "right"
    },
    {
      "midi": 64,
      "time": 8.1,
      "duration": 0.75,
      "velocity": 0.55,
      "hand": "right"
    },
    {
      "midi": 64,
      "time": 8.1,
      "duration": 0.075,
      "velocity": 0.72,
      "hand": "right"
    },
    {
      "midi": 67,
      "time": 8.1,
      "duration": 0.15,
      "velocity": 0.55,
      "hand": "right"
    },
    {
      "midi": 67,
      "time": 8.1,
      "duration": 0.9,
      "velocity": 0.54,
      "hand": "right"
    },
    {
      "midi": 70,
      "time": 8.1,
      "duration": 0.075,
      "velocity": 0.58,
      "hand": "right"
    },
    {
      "midi": 35,
      "time": 8.4,
      "duration": 0.6,
      "velocity": 0.96,
      "hand": "left"
    },
    {
      "midi": 35,
      "time": 8.4,
      "duration": 0.075,
      "velocity": 0.51,
      "hand": "left"
    },
    {
      "midi": 42,
      "time": 8.4,
      "duration": 0.075,
      "velocity": 0.57,
      "hand": "left"
    },
    {
      "midi": 51,
      "time": 8.4,
      "duration": 0.075,
      "velocity": 0.56,
      "hand": "left"
    },
    {
      "midi": 70,
      "time": 8.4,
      "duration": 0.075,
      "velocity": 0.72,
      "hand": "right"
    },
    {
      "midi": 38,
      "time": 8.7,
      "duration": 0.075,
      "velocity": 0.57,
      "hand": "left"
    },
    {
      "midi": 42,
      "time": 8.7,
      "duration": 0.075,
      "velocity": 0.58,
      "hand": "left"
    },
    {
      "midi": 51,
      "time": 8.7,
      "duration": 0.075,
      "velocity": 0.54,
      "hand": "left"
    },
    {
      "midi": 54,
      "time": 8.7,
      "duration": 0.075,
      "velocity": 0.52,
      "hand": "left"
    },
    {
      "midi": 59,
      "time": 8.7,
      "duration": 0.075,
      "velocity": 0.63,
      "hand": "left"
    },
    {
      "midi": 62,
      "time": 8.7,
      "duration": 0.075,
      "velocity": 0.68,
      "hand": "right"
    },
    {
      "midi": 64,
      "time": 8.7,
      "duration": 0.075,
      "velocity": 0.58,
      "hand": "right"
    },
    {
      "midi": 67,
      "time": 8.7,
      "duration": 0.075,
      "velocity": 0.54,
      "hand": "right"
    },
    {
      "midi": 35,
      "time": 9,
      "duration": 0.075,
      "velocity": 0.72,
      "hand": "left"
    },
    {
      "midi": 40,
      "time": 9,
      "duration": 0.45,
      "velocity": 0.96,
      "hand": "left"
    },
    {
      "midi": 42,
      "time": 9,
      "duration": 0.075,
      "velocity": 0.54,
      "hand": "left"
    },
    {
      "midi": 51,
      "time": 9,
      "duration": 0.075,
      "velocity": 0.57,
      "hand": "left"
    },
    {
      "midi": 55,
      "time": 9,
      "duration": 0.3,
      "velocity": 0.58,
      "hand": "left"
    },
    {
      "midi": 59,
      "time": 9,
      "duration": 0.3,
      "velocity": 0.69,
      "hand": "left"
    },
    {
      "midi": 59,
      "time": 9,
      "duration": 0.15,
      "velocity": 0.72,
      "hand": "left"
    },
    {
      "midi": 62,
      "time": 9,
      "duration": 0.45,
      "velocity": 0.56,
      "hand": "right"
    },
    {
      "midi": 62,
      "time": 9,
      "duration": 0.075,
      "velocity": 0.72,
      "hand": "right"
    },
    {
      "midi": 64,
      "time": 9,
      "duration": 0.45,
      "velocity": 0.54,
      "hand": "right"
    },
    {
      "midi": 64,
      "time": 9,
      "duration": 0.075,
      "velocity": 0.69,
      "hand": "right"
    },
    {
      "midi": 67,
      "time": 9,
      "duration": 0.15,
      "velocity": 0.57,
      "hand": "right"
    },
    {
      "midi": 38,
      "time": 9.3,
      "duration": 0.075,
      "velocity": 0.56,
      "hand": "left"
    },
    {
      "midi": 42,
      "time": 9.3,
      "duration": 0.075,
      "velocity": 0.5,
      "hand": "left"
    },
    {
      "midi": 51,
      "time": 9.3,
      "duration": 0.075,
      "velocity": 0.56,
      "hand": "left"
    },
    {
      "midi": 54,
      "time": 9.3,
      "duration": 0.075,
      "velocity": 0.55,
      "hand": "left"
    },
    {
      "midi": 59,
      "time": 9.3,
      "duration": 0.15,
      "velocity": 0.54,
      "hand": "left"
    },
    {
      "midi": 62,
      "time": 9.3,
      "duration": 0.15,
      "velocity": 0.56,
      "hand": "right"
    },
    {
      "midi": 64,
      "time": 9.3,
      "duration": 0.075,
      "velocity": 0.55,
      "hand": "right"
    },
    {
      "midi": 67,
      "time": 9.3,
      "duration": 0.15,
      "velocity": 0.54,
      "hand": "right"
    },
    {
      "midi": 35,
      "time": 9.6,
      "duration": 0.075,
      "velocity": 0.57,
      "hand": "left"
    },
    {
      "midi": 38,
      "time": 9.6,
      "duration": 0.6,
      "velocity": 0.96,
      "hand": "left"
    },
    {
      "midi": 42,
      "time": 9.6,
      "duration": 0.075,
      "velocity": 0.55,
      "hand": "left"
    },
    {
      "midi": 51,
      "time": 9.6,
      "duration": 0.075,
      "velocity": 0.56,
      "hand": "left"
    },
    {
      "midi": 57,
      "time": 9.6,
      "duration": 0.45,
      "velocity": 0.72,
      "hand": "left"
    },
    {
      "midi": 57,
      "time": 9.6,
      "duration": 0.15,
      "velocity": 0.72,
      "hand": "left"
    },
    {
      "midi": 57,
      "time": 9.6,
      "duration": 0.45,
      "velocity": 0.73,
      "hand": "left"
    },
    {
      "midi": 57,
      "time": 9.6,
      "duration": 0.9,
      "velocity": 0.49,
      "hand": "left"
    },
    {
      "midi": 57,
      "time": 9.6,
      "duration": 0.45,
      "velocity": 0.73,
      "hand": "left"
    },
    {
      "midi": 60,
      "time": 9.6,
      "duration": 0.45,
      "velocity": 0.7,
      "hand": "right"
    },
    {
      "midi": 60,
      "time": 9.6,
      "duration": 0.9,
      "velocity": 0.5,
      "hand": "right"
    },
    {
      "midi": 62,
      "time": 9.6,
      "duration": 0.15,
      "velocity": 0.72,
      "hand": "right"
    },
    {
      "midi": 62,
      "time": 9.6,
      "duration": 1.2,
      "velocity": 0.51,
      "hand": "right"
    },
    {
      "midi": 62,
      "time": 9.6,
      "duration": 1.05,
      "velocity": 0.56,
      "hand": "right"
    },
    {
      "midi": 65,
      "time": 9.6,
      "duration": 0.6,
      "velocity": 0.68,
      "hand": "right"
    },
    {
      "midi": 65,
      "time": 9.6,
      "duration": 0.15,
      "velocity": 0.7,
      "hand": "right"
    },
    {
      "midi": 65,
      "time": 9.6,
      "duration": 1.05,
      "velocity": 0.5,
      "hand": "right"
    },
    {
      "midi": 69,
      "time": 9.6,
      "duration": 1.05,
      "velocity": 0.63,
      "hand": "right"
    },
    {
      "midi": 72,
      "time": 9.6,
      "duration": 1.05,
      "velocity": 0.56,
      "hand": "right"
    },
    {
      "midi": 38,
      "time": 9.9,
      "duration": 0.075,
      "velocity": 0.54,
      "hand": "left"
    },
    {
      "midi": 42,
      "time": 9.9,
      "duration": 0.075,
      "velocity": 0.54,
      "hand": "left"
    },
    {
      "midi": 51,
      "time": 9.9,
      "duration": 0.075,
      "velocity": 0.54,
      "hand": "left"
    },
    {
      "midi": 54,
      "time": 9.9,
      "duration": 0.075,
      "velocity": 0.55,
      "hand": "left"
    },
    {
      "midi": 70,
      "time": 9.9,
      "duration": 0.075,
      "velocity": 0.73,
      "hand": "right"
    },
    {
      "midi": 57,
      "time": 10.05,
      "duration": 0.15,
      "velocity": 0.63,
      "hand": "left"
    },
    {
      "midi": 62,
      "time": 10.05,
      "duration": 0.075,
      "velocity": 0.72,
      "hand": "right"
    },
    {
      "midi": 65,
      "time": 10.05,
      "duration": 0.075,
      "velocity": 0.57,
      "hand": "right"
    },
    {
      "midi": 33,
      "time": 10.2,
      "duration": 0.6,
      "velocity": 0.96,
      "hand": "left"
    },
    {
      "midi": 35,
      "time": 10.2,
      "duration": 0.075,
      "velocity": 0.68,
      "hand": "left"
    },
    {
      "midi": 42,
      "time": 10.2,
      "duration": 0.075,
      "velocity": 0.53,
      "hand": "left"
    },
    {
      "midi": 51,
      "time": 10.2,
      "duration": 0.075,
      "velocity": 0.54,
      "hand": "left"
    },
    {
      "midi": 57,
      "time": 10.2,
      "duration": 0.45,
      "velocity": 0.74,
      "hand": "left"
    },
    {
      "midi": 57,
      "time": 10.2,
      "duration": 0.15,
      "velocity": 0.54,
      "hand": "left"
    },
    {
      "midi": 60,
      "time": 10.2,
      "duration": 0.45,
      "velocity": 0.78,
      "hand": "right"
    },
    {
      "midi": 62,
      "time": 10.2,
      "duration": 0.075,
      "velocity": 0.68,
      "hand": "right"
    },
    {
      "midi": 65,
      "time": 10.2,
      "duration": 0.6,
      "velocity": 0.7,
      "hand": "right"
    },
    {
      "midi": 65,
      "time": 10.2,
      "duration": 0.15,
      "velocity": 0.49,
      "hand": "right"
    },
    {
      "midi": 69,
      "time": 10.2,
      "duration": 0.3,
      "velocity": 0.56,
      "hand": "right"
    },
    {
      "midi": 70,
      "time": 10.2,
      "duration": 0.075,
      "velocity": 0.72,
      "hand": "right"
    },
    {
      "midi": 38,
      "time": 10.5,
      "duration": 0.075,
      "velocity": 0.56,
      "hand": "left"
    },
    {
      "midi": 42,
      "time": 10.5,
      "duration": 0.075,
      "velocity": 0.57,
      "hand": "left"
    },
    {
      "midi": 51,
      "time": 10.5,
      "duration": 0.075,
      "velocity": 0.54,
      "hand": "left"
    },
    {
      "midi": 54,
      "time": 10.5,
      "duration": 0.075,
      "velocity": 0.54,
      "hand": "left"
    },
    {
      "midi": 57,
      "time": 10.5,
      "duration": 0.15,
      "velocity": 0.73,
      "hand": "left"
    },
    {
      "midi": 62,
      "time": 10.5,
      "duration": 0.15,
      "velocity": 0.75,
      "hand": "right"
    },
    {
      "midi": 65,
      "time": 10.5,
      "duration": 0.15,
      "velocity": 0.64,
      "hand": "right"
    },
    {
      "midi": 67,
      "time": 10.5,
      "duration": 0.6,
      "velocity": 0.5,
      "hand": "right"
    },
    {
      "midi": 70,
      "time": 10.5,
      "duration": 0.075,
      "velocity": 0.72,
      "hand": "right"
    },
    {
      "midi": 31,
      "time": 10.8,
      "duration": 0.6,
      "velocity": 0.96,
      "hand": "left"
    },
    {
      "midi": 35,
      "time": 10.8,
      "duration": 0.075,
      "velocity": 0.69,
      "hand": "left"
    },
    {
      "midi": 42,
      "time": 10.8,
      "duration": 0.075,
      "velocity": 0.68,
      "hand": "left"
    },
    {
      "midi": 51,
      "time": 10.8,
      "duration": 0.075,
      "velocity": 0.58,
      "hand": "left"
    },
    {
      "midi": 55,
      "time": 10.8,
      "duration": 0.45,
      "velocity": 0.68,
      "hand": "left"
    },
    {
      "midi": 55,
      "time": 10.8,
      "duration": 0.15,
      "velocity": 0.61,
      "hand": "left"
    },
    {
      "midi": 55,
      "time": 10.8,
      "duration": 0.9,
      "velocity": 0.5,
      "hand": "left"
    },
    {
      "midi": 59,
      "time": 10.8,
      "duration": 0.45,
      "velocity": 0.57,
      "hand": "left"
    },
    {
      "midi": 59,
      "time": 10.8,
      "duration": 0.15,
      "velocity": 0.58,
      "hand": "left"
    },
    {
      "midi": 59,
      "time": 10.8,
      "duration": 0.9,
      "velocity": 0.56,
      "hand": "left"
    },
    {
      "midi": 62,
      "time": 10.8,
      "duration": 0.6,
      "velocity": 0.54,
      "hand": "right"
    },
    {
      "midi": 62,
      "time": 10.8,
      "duration": 0.15,
      "velocity": 0.58,
      "hand": "right"
    },
    {
      "midi": 62,
      "time": 10.8,
      "duration": 0.9,
      "velocity": 0.49,
      "hand": "right"
    },
    {
      "midi": 65,
      "time": 10.8,
      "duration": 0.6,
      "velocity": 0.46,
      "hand": "right"
    },
    {
      "midi": 65,
      "time": 10.8,
      "duration": 0.15,
      "velocity": 0.54,
      "hand": "right"
    },
    {
      "midi": 65,
      "time": 10.8,
      "duration": 0.9,
      "velocity": 0.5,
      "hand": "right"
    },
    {
      "midi": 67,
      "time": 10.8,
      "duration": 1.05,
      "velocity": 0.61,
      "hand": "right"
    },
    {
      "midi": 70,
      "time": 10.8,
      "duration": 0.075,
      "velocity": 0.73,
      "hand": "right"
    },
    {
      "midi": 71,
      "time": 10.8,
      "duration": 1.05,
      "velocity": 0.57,
      "hand": "right"
    },
    {
      "midi": 38,
      "time": 11.1,
      "duration": 0.075,
      "velocity": 0.56,
      "hand": "left"
    },
    {
      "midi": 42,
      "time": 11.1,
      "duration": 0.075,
      "velocity": 0.61,
      "hand": "left"
    },
    {
      "midi": 51,
      "time": 11.1,
      "duration": 0.075,
      "velocity": 0.56,
      "hand": "left"
    },
    {
      "midi": 54,
      "time": 11.1,
      "duration": 0.075,
      "velocity": 0.55,
      "hand": "left"
    },
    {
      "midi": 55,
      "time": 11.1,
      "duration": 0.15,
      "velocity": 0.53,
      "hand": "left"
    },
    {
      "midi": 59,
      "time": 11.1,
      "duration": 0.15,
      "velocity": 0.55,
      "hand": "left"
    },
    {
      "midi": 62,
      "time": 11.1,
      "duration": 0.075,
      "velocity": 0.52,
      "hand": "right"
    },
    {
      "midi": 65,
      "time": 11.1,
      "duration": 0.15,
      "velocity": 0.54,
      "hand": "right"
    },
    {
      "midi": 65,
      "time": 11.1,
      "duration": 0.3,
      "velocity": 0.52,
      "hand": "right"
    },
    {
      "midi": 35,
      "time": 11.4,
      "duration": 0.075,
      "velocity": 0.57,
      "hand": "left"
    },
    {
      "midi": 38,
      "time": 11.4,
      "duration": 0.45,
      "velocity": 0.96,
      "hand": "left"
    },
    {
      "midi": 42,
      "time": 11.4,
      "duration": 0.075,
      "velocity": 0.61,
      "hand": "left"
    },
    {
      "midi": 51,
      "time": 11.4,
      "duration": 0.075,
      "velocity": 0.49,
      "hand": "left"
    },
    {
      "midi": 55,
      "time": 11.4,
      "duration": 0.45,
      "velocity": 0.54,
      "hand": "left"
    },
    {
      "midi": 55,
      "time": 11.4,
      "duration": 0.15,
      "velocity": 0.61,
      "hand": "left"
    },
    {
      "midi": 59,
      "time": 11.4,
      "duration": 0.3,
      "velocity": 0.55,
      "hand": "left"
    },
    {
      "midi": 59,
      "time": 11.4,
      "duration": 0.15,
      "velocity": 0.64,
      "hand": "left"
    },
    {
      "midi": 62,
      "time": 11.4,
      "duration": 0.3,
      "velocity": 0.54,
      "hand": "right"
    },
    {
      "midi": 62,
      "time": 11.4,
      "duration": 0.15,
      "velocity": 0.58,
      "hand": "right"
    },
    {
      "midi": 64,
      "time": 11.4,
      "duration": 0.3,
      "velocity": 0.57,
      "hand": "right"
    },
    {
      "midi": 65,
      "time": 11.4,
      "duration": 0.3,
      "velocity": 0.52,
      "hand": "right"
    },
    {
      "midi": 65,
      "time": 11.4,
      "duration": 0.15,
      "velocity": 0.57,
      "hand": "right"
    },
    {
      "midi": 38,
      "time": 11.7,
      "duration": 0.075,
      "velocity": 0.57,
      "hand": "left"
    },
    {
      "midi": 42,
      "time": 11.7,
      "duration": 0.075,
      "velocity": 0.58,
      "hand": "left"
    },
    {
      "midi": 51,
      "time": 11.7,
      "duration": 0.075,
      "velocity": 0.54,
      "hand": "left"
    },
    {
      "midi": 54,
      "time": 11.7,
      "duration": 0.075,
      "velocity": 0.54,
      "hand": "left"
    },
    {
      "midi": 55,
      "time": 11.7,
      "duration": 0.15,
      "velocity": 0.57,
      "hand": "left"
    },
    {
      "midi": 59,
      "time": 11.7,
      "duration": 0.075,
      "velocity": 0.61,
      "hand": "left"
    },
    {
      "midi": 62,
      "time": 11.7,
      "duration": 0.15,
      "velocity": 0.57,
      "hand": "right"
    },
    {
      "midi": 62,
      "time": 11.7,
      "duration": 0.3,
      "velocity": 0.54,
      "hand": "right"
    },
    {
      "midi": 65,
      "time": 11.7,
      "duration": 0.15,
      "velocity": 0.52,
      "hand": "right"
    },
    {
      "midi": 35,
      "time": 12,
      "duration": 0.075,
      "velocity": 0.7,
      "hand": "left"
    },
    {
      "midi": 36,
      "time": 12,
      "duration": 0.6,
      "velocity": 0.96,
      "hand": "left"
    },
    {
      "midi": 42,
      "time": 12,
      "duration": 0.075,
      "velocity": 0.55,
      "hand": "left"
    },
    {
      "midi": 51,
      "time": 12,
      "duration": 0.075,
      "velocity": 0.53,
      "hand": "left"
    },
    {
      "midi": 55,
      "time": 12,
      "duration": 0.6,
      "velocity": 0.54,
      "hand": "left"
    },
    {
      "midi": 55,
      "time": 12,
      "duration": 0.15,
      "velocity": 0.68,
      "hand": "left"
    },
    {
      "midi": 55,
      "time": 12,
      "duration": 0.75,
      "velocity": 0.4,
      "hand": "left"
    },
    {
      "midi": 60,
      "time": 12,
      "duration": 0.6,
      "velocity": 0.57,
      "hand": "right"
    },
    {
      "midi": 60,
      "time": 12,
      "duration": 0.15,
      "velocity": 0.73,
      "hand": "right"
    },
    {
      "midi": 60,
      "time": 12,
      "duration": 0.9,
      "velocity": 0.46,
      "hand": "right"
    },
    {
      "midi": 64,
      "time": 12,
      "duration": 0.6,
      "velocity": 0.56,
      "hand": "right"
    },
    {
      "midi": 64,
      "time": 12,
      "duration": 0.15,
      "velocity": 0.72,
      "hand": "right"
    },
    {
      "midi": 64,
      "time": 12,
      "duration": 1.5,
      "velocity": 0.52,
      "hand": "right"
    },
    {
      "midi": 64,
      "time": 12,
      "duration": 0.9,
      "velocity": 0.39,
      "hand": "right"
    },
    {
      "midi": 64,
      "time": 12,
      "duration": 1.5,
      "velocity": 0.52,
      "hand": "right"
    },
    {
      "midi": 67,
      "time": 12,
      "duration": 0.9,
      "velocity": 0.7,
      "hand": "right"
    },
    {
      "midi": 72,
      "time": 12,
      "duration": 1.05,
      "velocity": 0.69,
      "hand": "right"
    },
    {
      "midi": 38,
      "time": 12.3,
      "duration": 0.075,
      "velocity": 0.57,
      "hand": "left"
    },
    {
      "midi": 42,
      "time": 12.3,
      "duration": 0.075,
      "velocity": 0.61,
      "hand": "left"
    },
    {
      "midi": 51,
      "time": 12.3,
      "duration": 0.075,
      "velocity": 0.61,
      "hand": "left"
    },
    {
      "midi": 54,
      "time": 12.3,
      "duration": 0.075,
      "velocity": 0.57,
      "hand": "left"
    },
    {
      "midi": 70,
      "time": 12.3,
      "duration": 0.075,
      "velocity": 0.7,
      "hand": "right"
    },
    {
      "midi": 55,
      "time": 12.45,
      "duration": 0.15,
      "velocity": 0.57,
      "hand": "left"
    },
    {
      "midi": 60,
      "time": 12.45,
      "duration": 0.075,
      "velocity": 0.64,
      "hand": "right"
    },
    {
      "midi": 64,
      "time": 12.45,
      "duration": 0.15,
      "velocity": 0.59,
      "hand": "right"
    },
    {
      "midi": 31,
      "time": 12.6,
      "duration": 0.3,
      "velocity": 0.96,
      "hand": "left"
    },
    {
      "midi": 35,
      "time": 12.6,
      "duration": 0.075,
      "velocity": 0.73,
      "hand": "left"
    },
    {
      "midi": 42,
      "time": 12.6,
      "duration": 0.075,
      "velocity": 0.57,
      "hand": "left"
    },
    {
      "midi": 51,
      "time": 12.6,
      "duration": 0.075,
      "velocity": 0.53,
      "hand": "left"
    },
    {
      "midi": 55,
      "time": 12.6,
      "duration": 0.15,
      "velocity": 0.4,
      "hand": "left"
    },
    {
      "midi": 60,
      "time": 12.6,
      "duration": 0.3,
      "velocity": 0.56,
      "hand": "right"
    },
    {
      "midi": 60,
      "time": 12.6,
      "duration": 0.15,
      "velocity": 0.54,
      "hand": "right"
    },
    {
      "midi": 64,
      "time": 12.6,
      "duration": 0.3,
      "velocity": 0.52,
      "hand": "right"
    },
    {
      "midi": 64,
      "time": 12.6,
      "duration": 0.15,
      "velocity": 0.54,
      "hand": "right"
    },
    {
      "midi": 70,
      "time": 12.6,
      "duration": 0.075,
      "velocity": 0.63,
      "hand": "right"
    },
    {
      "midi": 36,
      "time": 12.9,
      "duration": 0.3,
      "velocity": 0.96,
      "hand": "left"
    },
    {
      "midi": 38,
      "time": 12.9,
      "duration": 0.075,
      "velocity": 0.55,
      "hand": "left"
    },
    {
      "midi": 42,
      "time": 12.9,
      "duration": 0.075,
      "velocity": 0.56,
      "hand": "left"
    },
    {
      "midi": 51,
      "time": 12.9,
      "duration": 0.075,
      "velocity": 0.57,
      "hand": "left"
    },
    {
      "midi": 54,
      "time": 12.9,
      "duration": 0.075,
      "velocity": 0.5,
      "hand": "left"
    },
    {
      "midi": 55,
      "time": 12.9,
      "duration": 0.15,
      "velocity": 0.65,
      "hand": "left"
    },
    {
      "midi": 60,
      "time": 12.9,
      "duration": 0.075,
      "velocity": 0.7,
      "hand": "right"
    },
    {
      "midi": 64,
      "time": 12.9,
      "duration": 0.15,
      "velocity": 0.7,
      "hand": "right"
    },
    {
      "midi": 70,
      "time": 12.9,
      "duration": 0.075,
      "velocity": 0.56,
      "hand": "right"
    },
    {
      "midi": 35,
      "time": 13.2,
      "duration": 0.075,
      "velocity": 0.72,
      "hand": "left"
    },
    {
      "midi": 38,
      "time": 13.2,
      "duration": 0.6,
      "velocity": 0.96,
      "hand": "left"
    },
    {
      "midi": 40,
      "time": 13.2,
      "duration": 0.3,
      "velocity": 0.96,
      "hand": "left"
    },
    {
      "midi": 42,
      "time": 13.2,
      "duration": 0.075,
      "velocity": 0.54,
      "hand": "left"
    },
    {
      "midi": 50,
      "time": 13.2,
      "duration": 0.15,
      "velocity": 0.63,
      "hand": "left"
    },
    {
      "midi": 51,
      "time": 13.2,
      "duration": 0.075,
      "velocity": 0.46,
      "hand": "left"
    },
    {
      "midi": 57,
      "time": 13.2,
      "duration": 0.3,
      "velocity": 0.72,
      "hand": "left"
    },
    {
      "midi": 57,
      "time": 13.2,
      "duration": 0.15,
      "velocity": 0.57,
      "hand": "left"
    },
    {
      "midi": 57,
      "time": 13.2,
      "duration": 0.3,
      "velocity": 0.47,
      "hand": "left"
    },
    {
      "midi": 60,
      "time": 13.2,
      "duration": 0.3,
      "velocity": 0.74,
      "hand": "right"
    },
    {
      "midi": 60,
      "time": 13.2,
      "duration": 0.15,
      "velocity": 0.7,
      "hand": "right"
    },
    {
      "midi": 60,
      "time": 13.2,
      "duration": 0.3,
      "velocity": 0.52,
      "hand": "right"
    },
    {
      "midi": 62,
      "time": 13.2,
      "duration": 0.3,
      "velocity": 0.72,
      "hand": "right"
    },
    {
      "midi": 62,
      "time": 13.2,
      "duration": 0.15,
      "velocity": 0.63,
      "hand": "right"
    },
    {
      "midi": 62,
      "time": 13.2,
      "duration": 0.45,
      "velocity": 0.49,
      "hand": "right"
    },
    {
      "midi": 62,
      "time": 13.2,
      "duration": 0.6,
      "velocity": 0.55,
      "hand": "right"
    },
    {
      "midi": 65,
      "time": 13.2,
      "duration": 0.3,
      "velocity": 0.64,
      "hand": "right"
    },
    {
      "midi": 65,
      "time": 13.2,
      "duration": 0.15,
      "velocity": 0.59,
      "hand": "right"
    },
    {
      "midi": 65,
      "time": 13.2,
      "duration": 0.45,
      "velocity": 0.46,
      "hand": "right"
    },
    {
      "midi": 69,
      "time": 13.2,
      "duration": 0.45,
      "velocity": 0.56,
      "hand": "right"
    },
    {
      "midi": 70,
      "time": 13.2,
      "duration": 0.075,
      "velocity": 0.73,
      "hand": "right"
    },
    {
      "midi": 72,
      "time": 13.2,
      "duration": 0.45,
      "velocity": 0.54,
      "hand": "right"
    },
    {
      "midi": 48,
      "time": 13.35,
      "duration": 0.15,
      "velocity": 0.54,
      "hand": "left"
    },
    {
      "midi": 38,
      "time": 13.5,
      "duration": 0.075,
      "velocity": 0.56,
      "hand": "left"
    },
    {
      "midi": 42,
      "time": 13.5,
      "duration": 0.075,
      "velocity": 0.46,
      "hand": "left"
    },
    {
      "midi": 51,
      "time": 13.5,
      "duration": 0.075,
      "velocity": 0.52,
      "hand": "left"
    },
    {
      "midi": 54,
      "time": 13.5,
      "duration": 0.075,
      "velocity": 0.56,
      "hand": "left"
    },
    {
      "midi": 57,
      "time": 13.5,
      "duration": 0.15,
      "velocity": 0.54,
      "hand": "left"
    },
    {
      "midi": 60,
      "time": 13.5,
      "duration": 0.15,
      "velocity": 0.57,
      "hand": "right"
    },
    {
      "midi": 62,
      "time": 13.5,
      "duration": 0.15,
      "velocity": 0.57,
      "hand": "right"
    },
    {
      "midi": 65,
      "time": 13.5,
      "duration": 0.3,
      "velocity": 0.54,
      "hand": "right"
    },
    {
      "midi": 65,
      "time": 13.5,
      "duration": 0.15,
      "velocity": 0.57,
      "hand": "right"
    },
    {
      "midi": 47,
      "time": 13.65,
      "duration": 0.15,
      "velocity": 0.63,
      "hand": "left"
    },
    {
      "midi": 31,
      "time": 13.8,
      "duration": 0.45,
      "velocity": 0.96,
      "hand": "left"
    },
    {
      "midi": 35,
      "time": 13.8,
      "duration": 0.075,
      "velocity": 0.7,
      "hand": "left"
    },
    {
      "midi": 42,
      "time": 13.8,
      "duration": 0.075,
      "velocity": 0.5,
      "hand": "left"
    },
    {
      "midi": 45,
      "time": 13.8,
      "duration": 0.15,
      "velocity": 0.63,
      "hand": "left"
    },
    {
      "midi": 51,
      "time": 13.8,
      "duration": 0.075,
      "velocity": 0.54,
      "hand": "left"
    },
    {
      "midi": 55,
      "time": 13.8,
      "duration": 0.3,
      "velocity": 0.69,
      "hand": "left"
    },
    {
      "midi": 55,
      "time": 13.8,
      "duration": 0.15,
      "velocity": 0.68,
      "hand": "left"
    },
    {
      "midi": 55,
      "time": 13.8,
      "duration": 0.3,
      "velocity": 0.49,
      "hand": "left"
    },
    {
      "midi": 59,
      "time": 13.8,
      "duration": 0.3,
      "velocity": 0.73,
      "hand": "left"
    },
    {
      "midi": 59,
      "time": 13.8,
      "duration": 0.15,
      "velocity": 0.72,
      "hand": "left"
    },
    {
      "midi": 59,
      "time": 13.8,
      "duration": 0.3,
      "velocity": 0.56,
      "hand": "left"
    },
    {
      "midi": 62,
      "time": 13.8,
      "duration": 0.3,
      "velocity": 0.65,
      "hand": "right"
    },
    {
      "midi": 62,
      "time": 13.8,
      "duration": 0.15,
      "velocity": 0.61,
      "hand": "right"
    },
    {
      "midi": 62,
      "time": 13.8,
      "duration": 0.3,
      "velocity": 0.42,
      "hand": "right"
    },
    {
      "midi": 65,
      "time": 13.8,
      "duration": 0.3,
      "velocity": 0.51,
      "hand": "right"
    },
    {
      "midi": 65,
      "time": 13.8,
      "duration": 0.15,
      "velocity": 0.57,
      "hand": "right"
    },
    {
      "midi": 65,
      "time": 13.8,
      "duration": 0.3,
      "velocity": 0.49,
      "hand": "right"
    },
    {
      "midi": 67,
      "time": 13.8,
      "duration": 0.3,
      "velocity": 0.55,
      "hand": "right"
    },
    {
      "midi": 71,
      "time": 13.8,
      "duration": 0.45,
      "velocity": 0.51,
      "hand": "right"
    },
    {
      "midi": 38,
      "time": 14.1,
      "duration": 0.075,
      "velocity": 0.53,
      "hand": "left"
    },
    {
      "midi": 42,
      "time": 14.1,
      "duration": 0.075,
      "velocity": 0.54,
      "hand": "left"
    },
    {
      "midi": 43,
      "time": 14.1,
      "duration": 0.15,
      "velocity": 0.69,
      "hand": "left"
    },
    {
      "midi": 51,
      "time": 14.1,
      "duration": 0.075,
      "velocity": 0.54,
      "hand": "left"
    },
    {
      "midi": 54,
      "time": 14.1,
      "duration": 0.075,
      "velocity": 0.57,
      "hand": "left"
    },
    {
      "midi": 55,
      "time": 14.1,
      "duration": 0.15,
      "velocity": 0.55,
      "hand": "left"
    },
    {
      "midi": 59,
      "time": 14.1,
      "duration": 0.15,
      "velocity": 0.57,
      "hand": "left"
    },
    {
      "midi": 62,
      "time": 14.1,
      "duration": 0.15,
      "velocity": 0.57,
      "hand": "right"
    },
    {
      "midi": 65,
      "time": 14.1,
      "duration": 0.15,
      "velocity": 0.54,
      "hand": "right"
    },
    {
      "midi": 35,
      "time": 14.4,
      "duration": 0.075,
      "velocity": 0.69,
      "hand": "left"
    },
    {
      "midi": 36,
      "time": 14.4,
      "duration": 0.6,
      "velocity": 0.96,
      "hand": "left"
    },
    {
      "midi": 42,
      "time": 14.4,
      "duration": 0.075,
      "velocity": 0.54,
      "hand": "left"
    },
    {
      "midi": 49,
      "time": 14.4,
      "duration": 0.075,
      "velocity": 0.79,
      "hand": "left"
    },
    {
      "midi": 51,
      "time": 14.4,
      "duration": 0.075,
      "velocity": 0.51,
      "hand": "left"
    },
    {
      "midi": 55,
      "time": 14.4,
      "duration": 0.75,
      "velocity": 0.64,
      "hand": "left"
    },
    {
      "midi": 55,
      "time": 14.4,
      "duration": 2.25,
      "velocity": 0.4,
      "hand": "left"
    },
    {
      "midi": 57,
      "time": 14.4,
      "duration": 0.15,
      "velocity": 0.63,
      "hand": "left"
    },
    {
      "midi": 60,
      "time": 14.4,
      "duration": 0.75,
      "velocity": 0.74,
      "hand": "right"
    },
    {
      "midi": 60,
      "time": 14.4,
      "duration": 0.6,
      "velocity": 0.69,
      "hand": "right"
    },
    {
      "midi": 60,
      "time": 14.4,
      "duration": 2.25,
      "velocity": 0.49,
      "hand": "right"
    },
    {
      "midi": 60,
      "time": 14.4,
      "duration": 1.65,
      "velocity": 0.63,
      "hand": "right"
    },
    {
      "midi": 60,
      "time": 14.4,
      "duration": 0.6,
      "velocity": 0.69,
      "hand": "right"
    },
    {
      "midi": 62,
      "time": 14.4,
      "duration": 0.15,
      "velocity": 0.61,
      "hand": "right"
    },
    {
      "midi": 64,
      "time": 14.4,
      "duration": 0.75,
      "velocity": 0.69,
      "hand": "right"
    },
    {
      "midi": 64,
      "time": 14.4,
      "duration": 2.25,
      "velocity": 0.48,
      "hand": "right"
    },
    {
      "midi": 64,
      "time": 14.4,
      "duration": 1.65,
      "velocity": 0.72,
      "hand": "right"
    },
    {
      "midi": 67,
      "time": 14.4,
      "duration": 0.15,
      "velocity": 0.57,
      "hand": "right"
    },
    {
      "midi": 67,
      "time": 14.4,
      "duration": 1.65,
      "velocity": 0.63,
      "hand": "right"
    },
    {
      "midi": 38,
      "time": 14.7,
      "duration": 0.075,
      "velocity": 0.54,
      "hand": "left"
    },
    {
      "midi": 42,
      "time": 14.7,
      "duration": 0.075,
      "velocity": 0.57,
      "hand": "left"
    },
    {
      "midi": 51,
      "time": 14.7,
      "duration": 0.075,
      "velocity": 0.55,
      "hand": "left"
    },
    {
      "midi": 54,
      "time": 14.7,
      "duration": 0.075,
      "velocity": 0.54,
      "hand": "left"
    },
    {
      "midi": 70,
      "time": 14.7,
      "duration": 0.075,
      "velocity": 0.72,
      "hand": "right"
    },
    {
      "midi": 57,
      "time": 14.85,
      "duration": 0.15,
      "velocity": 0.57,
      "hand": "left"
    },
    {
      "midi": 62,
      "time": 14.85,
      "duration": 0.075,
      "velocity": 0.61,
      "hand": "right"
    },
    {
      "midi": 67,
      "time": 14.85,
      "duration": 0.15,
      "velocity": 0.54,
      "hand": "right"
    },
    {
      "midi": 31,
      "time": 15,
      "duration": 0.6,
      "velocity": 0.96,
      "hand": "left"
    },
    {
      "midi": 35,
      "time": 15,
      "duration": 0.075,
      "velocity": 0.56,
      "hand": "left"
    },
    {
      "midi": 42,
      "time": 15,
      "duration": 0.075,
      "velocity": 0.57,
      "hand": "left"
    },
    {
      "midi": 51,
      "time": 15,
      "duration": 0.075,
      "velocity": 0.5,
      "hand": "left"
    },
    {
      "midi": 57,
      "time": 15,
      "duration": 0.15,
      "velocity": 0.52,
      "hand": "left"
    },
    {
      "midi": 62,
      "time": 15,
      "duration": 0.075,
      "velocity": 0.64,
      "hand": "right"
    },
    {
      "midi": 64,
      "time": 15,
      "duration": 0.3,
      "velocity": 0.59,
      "hand": "right"
    },
    {
      "midi": 67,
      "time": 15,
      "duration": 0.15,
      "velocity": 0.4,
      "hand": "right"
    },
    {
      "midi": 70,
      "time": 15,
      "duration": 0.075,
      "velocity": 0.69,
      "hand": "right"
    },
    {
      "midi": 38,
      "time": 15.3,
      "duration": 0.075,
      "velocity": 0.55,
      "hand": "left"
    },
    {
      "midi": 42,
      "time": 15.3,
      "duration": 0.075,
      "velocity": 0.54,
      "hand": "left"
    },
    {
      "midi": 51,
      "time": 15.3,
      "duration": 0.075,
      "velocity": 0.54,
      "hand": "left"
    },
    {
      "midi": 54,
      "time": 15.3,
      "duration": 0.075,
      "velocity": 0.64,
      "hand": "left"
    },
    {
      "midi": 55,
      "time": 15.3,
      "duration": 0.75,
      "velocity": 0.63,
      "hand": "left"
    },
    {
      "midi": 57,
      "time": 15.3,
      "duration": 0.15,
      "velocity": 0.68,
      "hand": "left"
    },
    {
      "midi": 60,
      "time": 15.3,
      "duration": 0.75,
      "velocity": 0.7,
      "hand": "right"
    },
    {
      "midi": 62,
      "time": 15.3,
      "duration": 0.075,
      "velocity": 0.73,
      "hand": "right"
    },
    {
      "midi": 64,
      "time": 15.3,
      "duration": 0.075,
      "velocity": 0.54,
      "hand": "right"
    },
    {
      "midi": 67,
      "time": 15.3,
      "duration": 0.75,
      "velocity": 0.73,
      "hand": "right"
    },
    {
      "midi": 67,
      "time": 15.3,
      "duration": 0.15,
      "velocity": 0.59,
      "hand": "right"
    },
    {
      "midi": 67,
      "time": 15.3,
      "duration": 0.6,
      "velocity": 0.51,
      "hand": "right"
    },
    {
      "midi": 70,
      "time": 15.3,
      "duration": 0.075,
      "velocity": 0.7,
      "hand": "right"
    },
    {
      "midi": 35,
      "time": 15.6,
      "duration": 0.075,
      "velocity": 0.56,
      "hand": "left"
    },
    {
      "midi": 36,
      "time": 15.6,
      "duration": 0.45,
      "velocity": 0.96,
      "hand": "left"
    },
    {
      "midi": 42,
      "time": 15.6,
      "duration": 0.075,
      "velocity": 0.65,
      "hand": "left"
    },
    {
      "midi": 51,
      "time": 15.6,
      "duration": 0.075,
      "velocity": 0.57,
      "hand": "left"
    },
    {
      "midi": 70,
      "time": 15.6,
      "duration": 0.075,
      "velocity": 0.72,
      "hand": "right"
    },
    {
      "midi": 38,
      "time": 15.9,
      "duration": 0.075,
      "velocity": 0.54,
      "hand": "left"
    },
    {
      "midi": 42,
      "time": 15.9,
      "duration": 0.075,
      "velocity": 0.58,
      "hand": "left"
    },
    {
      "midi": 51,
      "time": 15.9,
      "duration": 0.075,
      "velocity": 0.54,
      "hand": "left"
    },
    {
      "midi": 54,
      "time": 15.9,
      "duration": 0.075,
      "velocity": 0.56,
      "hand": "left"
    },
    {
      "midi": 57,
      "time": 15.9,
      "duration": 0.15,
      "velocity": 0.57,
      "hand": "left"
    },
    {
      "midi": 62,
      "time": 15.9,
      "duration": 0.15,
      "velocity": 0.7,
      "hand": "right"
    },
    {
      "midi": 64,
      "time": 15.9,
      "duration": 0.3,
      "velocity": 0.57,
      "hand": "right"
    },
    {
      "midi": 67,
      "time": 15.9,
      "duration": 0.15,
      "velocity": 0.56,
      "hand": "right"
    },
    {
      "midi": 31,
      "time": 16.2,
      "duration": 0.45,
      "velocity": 0.96,
      "hand": "left"
    },
    {
      "midi": 35,
      "time": 16.2,
      "duration": 0.075,
      "velocity": 0.61,
      "hand": "left"
    },
    {
      "midi": 42,
      "time": 16.2,
      "duration": 0.075,
      "velocity": 0.55,
      "hand": "left"
    },
    {
      "midi": 51,
      "time": 16.2,
      "duration": 0.075,
      "velocity": 0.61,
      "hand": "left"
    },
    {
      "midi": 55,
      "time": 16.2,
      "duration": 0.15,
      "velocity": 0.56,
      "hand": "left"
    },
    {
      "midi": 57,
      "time": 16.2,
      "duration": 0.15,
      "velocity": 0.61,
      "hand": "left"
    },
    {
      "midi": 60,
      "time": 16.2,
      "duration": 0.15,
      "velocity": 0.64,
      "hand": "right"
    },
    {
      "midi": 60,
      "time": 16.2,
      "duration": 0.45,
      "velocity": 0.51,
      "hand": "right"
    },
    {
      "midi": 62,
      "time": 16.2,
      "duration": 0.075,
      "velocity": 0.72,
      "hand": "right"
    },
    {
      "midi": 62,
      "time": 16.2,
      "duration": 0.3,
      "velocity": 0.49,
      "hand": "right"
    },
    {
      "midi": 64,
      "time": 16.2,
      "duration": 0.15,
      "velocity": 0.63,
      "hand": "right"
    },
    {
      "midi": 64,
      "time": 16.2,
      "duration": 0.45,
      "velocity": 0.55,
      "hand": "right"
    },
    {
      "midi": 67,
      "time": 16.2,
      "duration": 0.15,
      "velocity": 0.54,
      "hand": "right"
    },
    {
      "midi": 69,
      "time": 16.2,
      "duration": 0.45,
      "velocity": 0.57,
      "hand": "right"
    },
    {
      "midi": 38,
      "time": 16.5,
      "duration": 0.075,
      "velocity": 0.56,
      "hand": "left"
    },
    {
      "midi": 42,
      "time": 16.5,
      "duration": 0.075,
      "velocity": 0.55,
      "hand": "left"
    },
    {
      "midi": 51,
      "time": 16.5,
      "duration": 0.075,
      "velocity": 0.56,
      "hand": "left"
    },
    {
      "midi": 54,
      "time": 16.5,
      "duration": 0.075,
      "velocity": 0.58,
      "hand": "left"
    },
    {
      "midi": 57,
      "time": 16.5,
      "duration": 0.15,
      "velocity": 0.54,
      "hand": "left"
    },
    {
      "midi": 60,
      "time": 16.5,
      "duration": 0.15,
      "velocity": 0.54,
      "hand": "right"
    },
    {
      "midi": 62,
      "time": 16.5,
      "duration": 0.15,
      "velocity": 0.61,
      "hand": "right"
    },
    {
      "midi": 67,
      "time": 16.5,
      "duration": 0.15,
      "velocity": 0.51,
      "hand": "right"
    },
    {
      "midi": 35,
      "time": 16.8,
      "duration": 0.6,
      "velocity": 0.96,
      "hand": "left"
    },
    {
      "midi": 35,
      "time": 16.8,
      "duration": 0.075,
      "velocity": 0.59,
      "hand": "left"
    },
    {
      "midi": 42,
      "time": 16.8,
      "duration": 0.075,
      "velocity": 0.54,
      "hand": "left"
    },
    {
      "midi": 55,
      "time": 16.8,
      "duration": 1.95,
      "velocity": 0.4,
      "hand": "left"
    },
    {
      "midi": 59,
      "time": 16.8,
      "duration": 0.15,
      "velocity": 0.58,
      "hand": "left"
    },
    {
      "midi": 59,
      "time": 16.8,
      "duration": 0.45,
      "velocity": 0.57,
      "hand": "left"
    },
    {
      "midi": 59,
      "time": 16.8,
      "duration": 1.95,
      "velocity": 0.54,
      "hand": "left"
    },
    {
      "midi": 59,
      "time": 16.8,
      "duration": 0.45,
      "velocity": 0.57,
      "hand": "left"
    },
    {
      "midi": 60,
      "time": 16.8,
      "duration": 1.65,
      "velocity": 0.55,
      "hand": "right"
    },
    {
      "midi": 62,
      "time": 16.8,
      "duration": 0.75,
      "velocity": 0.69,
      "hand": "right"
    },
    {
      "midi": 62,
      "time": 16.8,
      "duration": 0.15,
      "velocity": 0.61,
      "hand": "right"
    },
    {
      "midi": 64,
      "time": 16.8,
      "duration": 0.75,
      "velocity": 0.7,
      "hand": "right"
    },
    {
      "midi": 64,
      "time": 16.8,
      "duration": 0.15,
      "velocity": 0.61,
      "hand": "right"
    },
    {
      "midi": 64,
      "time": 16.8,
      "duration": 1.95,
      "velocity": 0.29,
      "hand": "right"
    },
    {
      "midi": 64,
      "time": 16.8,
      "duration": 1.8,
      "velocity": 0.54,
      "hand": "right"
    },
    {
      "midi": 67,
      "time": 16.8,
      "duration": 0.75,
      "velocity": 0.61,
      "hand": "right"
    },
    {
      "midi": 67,
      "time": 16.8,
      "duration": 0.15,
      "velocity": 0.56,
      "hand": "right"
    },
    {
      "midi": 67,
      "time": 16.8,
      "duration": 1.8,
      "velocity": 0.56,
      "hand": "right"
    },
    {
      "midi": 71,
      "time": 16.8,
      "duration": 0.75,
      "velocity": 0.65,
      "hand": "right"
    },
    {
      "midi": 71,
      "time": 16.8,
      "duration": 1.8,
      "velocity": 0.54,
      "hand": "right"
    },
    {
      "midi": 38,
      "time": 17.1,
      "duration": 0.075,
      "velocity": 0.57,
      "hand": "left"
    },
    {
      "midi": 42,
      "time": 17.1,
      "duration": 0.075,
      "velocity": 0.65,
      "hand": "left"
    },
    {
      "midi": 51,
      "time": 17.1,
      "duration": 0.075,
      "velocity": 0.56,
      "hand": "left"
    },
    {
      "midi": 54,
      "time": 17.1,
      "duration": 0.075,
      "velocity": 0.68,
      "hand": "left"
    },
    {
      "midi": 70,
      "time": 17.1,
      "duration": 0.075,
      "velocity": 0.72,
      "hand": "right"
    },
    {
      "midi": 59,
      "time": 17.25,
      "duration": 0.15,
      "velocity": 0.61,
      "hand": "left"
    },
    {
      "midi": 62,
      "time": 17.25,
      "duration": 0.075,
      "velocity": 0.55,
      "hand": "right"
    },
    {
      "midi": 64,
      "time": 17.25,
      "duration": 0.075,
      "velocity": 0.57,
      "hand": "right"
    },
    {
      "midi": 67,
      "time": 17.25,
      "duration": 0.15,
      "velocity": 0.52,
      "hand": "right"
    },
    {
      "midi": 35,
      "time": 17.4,
      "duration": 0.075,
      "velocity": 0.55,
      "hand": "left"
    },
    {
      "midi": 40,
      "time": 17.4,
      "duration": 0.6,
      "velocity": 0.96,
      "hand": "left"
    },
    {
      "midi": 42,
      "time": 17.4,
      "duration": 0.075,
      "velocity": 0.59,
      "hand": "left"
    },
    {
      "midi": 51,
      "time": 17.4,
      "duration": 0.075,
      "velocity": 0.57,
      "hand": "left"
    },
    {
      "midi": 59,
      "time": 17.4,
      "duration": 0.15,
      "velocity": 0.54,
      "hand": "left"
    },
    {
      "midi": 62,
      "time": 17.4,
      "duration": 0.075,
      "velocity": 0.54,
      "hand": "right"
    },
    {
      "midi": 64,
      "time": 17.4,
      "duration": 0.075,
      "velocity": 0.57,
      "hand": "right"
    },
    {
      "midi": 67,
      "time": 17.4,
      "duration": 0.15,
      "velocity": 0.38,
      "hand": "right"
    },
    {
      "midi": 69,
      "time": 17.4,
      "duration": 0.3,
      "velocity": 0.59,
      "hand": "right"
    },
    {
      "midi": 70,
      "time": 17.4,
      "duration": 0.075,
      "velocity": 0.69,
      "hand": "right"
    },
    {
      "midi": 38,
      "time": 17.7,
      "duration": 0.075,
      "velocity": 0.53,
      "hand": "left"
    },
    {
      "midi": 42,
      "time": 17.7,
      "duration": 0.075,
      "velocity": 0.58,
      "hand": "left"
    },
    {
      "midi": 51,
      "time": 17.7,
      "duration": 0.075,
      "velocity": 0.49,
      "hand": "left"
    },
    {
      "midi": 54,
      "time": 17.7,
      "duration": 0.075,
      "velocity": 0.56,
      "hand": "left"
    },
    {
      "midi": 59,
      "time": 17.7,
      "duration": 0.15,
      "velocity": 0.72,
      "hand": "left"
    },
    {
      "midi": 62,
      "time": 17.7,
      "duration": 0.75,
      "velocity": 0.72,
      "hand": "right"
    },
    {
      "midi": 62,
      "time": 17.7,
      "duration": 0.075,
      "velocity": 0.72,
      "hand": "right"
    },
    {
      "midi": 64,
      "time": 17.7,
      "duration": 0.75,
      "velocity": 0.72,
      "hand": "right"
    },
    {
      "midi": 64,
      "time": 17.7,
      "duration": 0.075,
      "velocity": 0.72,
      "hand": "right"
    },
    {
      "midi": 67,
      "time": 17.7,
      "duration": 0.75,
      "velocity": 0.72,
      "hand": "right"
    },
    {
      "midi": 67,
      "time": 17.7,
      "duration": 0.15,
      "velocity": 0.61,
      "hand": "right"
    },
    {
      "midi": 67,
      "time": 17.7,
      "duration": 1.5,
      "velocity": 0.54,
      "hand": "right"
    },
    {
      "midi": 70,
      "time": 17.7,
      "duration": 0.075,
      "velocity": 0.68,
      "hand": "right"
    },
    {
      "midi": 71,
      "time": 17.7,
      "duration": 0.75,
      "velocity": 0.68,
      "hand": "right"
    },
    {
      "midi": 35,
      "time": 18,
      "duration": 0.6,
      "velocity": 0.96,
      "hand": "left"
    },
    {
      "midi": 35,
      "time": 18,
      "duration": 0.075,
      "velocity": 0.69,
      "hand": "left"
    },
    {
      "midi": 51,
      "time": 18,
      "duration": 0.075,
      "velocity": 0.54,
      "hand": "left"
    },
    {
      "midi": 70,
      "time": 18,
      "duration": 0.075,
      "velocity": 0.61,
      "hand": "right"
    },
    {
      "midi": 38,
      "time": 18.3,
      "duration": 0.075,
      "velocity": 0.58,
      "hand": "left"
    },
    {
      "midi": 42,
      "time": 18.3,
      "duration": 0.075,
      "velocity": 0.63,
      "hand": "left"
    },
    {
      "midi": 51,
      "time": 18.3,
      "duration": 0.075,
      "velocity": 0.55,
      "hand": "left"
    },
    {
      "midi": 54,
      "time": 18.3,
      "duration": 0.075,
      "velocity": 0.52,
      "hand": "left"
    },
    {
      "midi": 59,
      "time": 18.3,
      "duration": 0.15,
      "velocity": 0.7,
      "hand": "left"
    },
    {
      "midi": 62,
      "time": 18.3,
      "duration": 0.075,
      "velocity": 0.72,
      "hand": "right"
    },
    {
      "midi": 64,
      "time": 18.3,
      "duration": 0.075,
      "velocity": 0.72,
      "hand": "right"
    },
    {
      "midi": 67,
      "time": 18.3,
      "duration": 0.075,
      "velocity": 0.57,
      "hand": "right"
    },
    {
      "midi": 70,
      "time": 18.3,
      "duration": 0.075,
      "velocity": 0.72,
      "hand": "right"
    },
    {
      "midi": 35,
      "time": 18.6,
      "duration": 0.075,
      "velocity": 0.7,
      "hand": "left"
    },
    {
      "midi": 40,
      "time": 18.6,
      "duration": 0.6,
      "velocity": 0.96,
      "hand": "left"
    },
    {
      "midi": 42,
      "time": 18.6,
      "duration": 0.075,
      "velocity": 0.54,
      "hand": "left"
    },
    {
      "midi": 51,
      "time": 18.6,
      "duration": 0.075,
      "velocity": 0.51,
      "hand": "left"
    },
    {
      "midi": 59,
      "time": 18.6,
      "duration": 0.15,
      "velocity": 0.65,
      "hand": "left"
    },
    {
      "midi": 62,
      "time": 18.6,
      "duration": 0.15,
      "velocity": 0.65,
      "hand": "right"
    },
    {
      "midi": 64,
      "time": 18.6,
      "duration": 0.15,
      "velocity": 0.63,
      "hand": "right"
    },
    {
      "midi": 67,
      "time": 18.6,
      "duration": 0.15,
      "velocity": 0.57,
      "hand": "right"
    },
    {
      "midi": 70,
      "time": 18.6,
      "duration": 0.075,
      "velocity": 0.72,
      "hand": "right"
    },
    {
      "midi": 71,
      "time": 18.6,
      "duration": 0.15,
      "velocity": 0.57,
      "hand": "right"
    },
    {
      "midi": 38,
      "time": 18.9,
      "duration": 0.075,
      "velocity": 0.52,
      "hand": "left"
    },
    {
      "midi": 42,
      "time": 18.9,
      "duration": 0.075,
      "velocity": 0.54,
      "hand": "left"
    },
    {
      "midi": 51,
      "time": 18.9,
      "duration": 0.075,
      "velocity": 0.54,
      "hand": "left"
    },
    {
      "midi": 54,
      "time": 18.9,
      "duration": 0.075,
      "velocity": 0.57,
      "hand": "left"
    },
    {
      "midi": 70,
      "time": 18.9,
      "duration": 0.075,
      "velocity": 0.58,
      "hand": "right"
    },
    {
      "midi": 35,
      "time": 19.2,
      "duration": 0.075,
      "velocity": 0.69,
      "hand": "left"
    },
    {
      "midi": 38,
      "time": 19.2,
      "duration": 0.6,
      "velocity": 0.96,
      "hand": "left"
    },
    {
      "midi": 51,
      "time": 19.2,
      "duration": 0.075,
      "velocity": 0.54,
      "hand": "left"
    },
    {
      "midi": 57,
      "time": 19.2,
      "duration": 0.45,
      "velocity": 0.72,
      "hand": "left"
    },
    {
      "midi": 57,
      "time": 19.2,
      "duration": 0.15,
      "velocity": 0.72,
      "hand": "left"
    },
    {
      "midi": 57,
      "time": 19.2,
      "duration": 0.45,
      "velocity": 0.65,
      "hand": "left"
    },
    {
      "midi": 57,
      "time": 19.2,
      "duration": 0.75,
      "velocity": 0.47,
      "hand": "left"
    },
    {
      "midi": 57,
      "time": 19.2,
      "duration": 0.45,
      "velocity": 0.65,
      "hand": "left"
    },
    {
      "midi": 60,
      "time": 19.2,
      "duration": 0.45,
      "velocity": 0.72,
      "hand": "right"
    },
    {
      "midi": 60,
      "time": 19.2,
      "duration": 0.075,
      "velocity": 0.73,
      "hand": "right"
    },
    {
      "midi": 60,
      "time": 19.2,
      "duration": 0.9,
      "velocity": 0.52,
      "hand": "right"
    },
    {
      "midi": 62,
      "time": 19.2,
      "duration": 0.45,
      "velocity": 0.72,
      "hand": "right"
    },
    {
      "midi": 62,
      "time": 19.2,
      "duration": 0.075,
      "velocity": 0.72,
      "hand": "right"
    },
    {
      "midi": 62,
      "time": 19.2,
      "duration": 1.05,
      "velocity": 0.49,
      "hand": "right"
    },
    {
      "midi": 65,
      "time": 19.2,
      "duration": 0.45,
      "velocity": 0.57,
      "hand": "right"
    },
    {
      "midi": 65,
      "time": 19.2,
      "duration": 0.15,
      "velocity": 0.58,
      "hand": "right"
    },
    {
      "midi": 65,
      "time": 19.2,
      "duration": 1.05,
      "velocity": 0.51,
      "hand": "right"
    },
    {
      "midi": 69,
      "time": 19.2,
      "duration": 1.05,
      "velocity": 0.63,
      "hand": "right"
    },
    {
      "midi": 70,
      "time": 19.2,
      "duration": 0.075,
      "velocity": 0.72,
      "hand": "right"
    },
    {
      "midi": 72,
      "time": 19.2,
      "duration": 1.05,
      "velocity": 0.63,
      "hand": "right"
    },
    {
      "midi": 38,
      "time": 19.5,
      "duration": 0.075,
      "velocity": 0.58,
      "hand": "left"
    },
    {
      "midi": 42,
      "time": 19.5,
      "duration": 0.075,
      "velocity": 0.63,
      "hand": "left"
    },
    {
      "midi": 51,
      "time": 19.5,
      "duration": 0.075,
      "velocity": 0.55,
      "hand": "left"
    },
    {
      "midi": 54,
      "time": 19.5,
      "duration": 0.075,
      "velocity": 0.52,
      "hand": "left"
    },
    {
      "midi": 70,
      "time": 19.5,
      "duration": 0.075,
      "velocity": 0.72,
      "hand": "right"
    },
    {
      "midi": 57,
      "time": 19.65,
      "duration": 0.075,
      "velocity": 0.65,
      "hand": "left"
    },
    {
      "midi": 60,
      "time": 19.65,
      "duration": 0.075,
      "velocity": 0.69,
      "hand": "right"
    },
    {
      "midi": 62,
      "time": 19.65,
      "duration": 0.075,
      "velocity": 0.68,
      "hand": "right"
    },
    {
      "midi": 65,
      "time": 19.65,
      "duration": 0.075,
      "velocity": 0.56,
      "hand": "right"
    },
    {
      "midi": 69,
      "time": 19.65,
      "duration": 0.3,
      "velocity": 0.54,
      "hand": "right"
    },
    {
      "midi": 33,
      "time": 19.8,
      "duration": 0.6,
      "velocity": 0.96,
      "hand": "left"
    },
    {
      "midi": 35,
      "time": 19.8,
      "duration": 0.075,
      "velocity": 0.7,
      "hand": "left"
    },
    {
      "midi": 42,
      "time": 19.8,
      "duration": 0.075,
      "velocity": 0.54,
      "hand": "left"
    },
    {
      "midi": 51,
      "time": 19.8,
      "duration": 0.075,
      "velocity": 0.51,
      "hand": "left"
    },
    {
      "midi": 57,
      "time": 19.8,
      "duration": 0.45,
      "velocity": 0.68,
      "hand": "left"
    },
    {
      "midi": 57,
      "time": 19.8,
      "duration": 0.15,
      "velocity": 0.54,
      "hand": "left"
    },
    {
      "midi": 60,
      "time": 19.8,
      "duration": 0.45,
      "velocity": 0.7,
      "hand": "right"
    },
    {
      "midi": 60,
      "time": 19.8,
      "duration": 0.075,
      "velocity": 0.55,
      "hand": "right"
    },
    {
      "midi": 62,
      "time": 19.8,
      "duration": 0.45,
      "velocity": 0.65,
      "hand": "right"
    },
    {
      "midi": 62,
      "time": 19.8,
      "duration": 0.075,
      "velocity": 0.57,
      "hand": "right"
    },
    {
      "midi": 65,
      "time": 19.8,
      "duration": 0.45,
      "velocity": 0.61,
      "hand": "right"
    },
    {
      "midi": 65,
      "time": 19.8,
      "duration": 0.075,
      "velocity": 0.36,
      "hand": "right"
    },
    {
      "midi": 70,
      "time": 19.8,
      "duration": 0.075,
      "velocity": 0.72,
      "hand": "right"
    },
    {
      "midi": 38,
      "time": 20.1,
      "duration": 0.075,
      "velocity": 0.52,
      "hand": "left"
    },
    {
      "midi": 42,
      "time": 20.1,
      "duration": 0.075,
      "velocity": 0.54,
      "hand": "left"
    },
    {
      "midi": 51,
      "time": 20.1,
      "duration": 0.075,
      "velocity": 0.54,
      "hand": "left"
    },
    {
      "midi": 54,
      "time": 20.1,
      "duration": 0.075,
      "velocity": 0.57,
      "hand": "left"
    },
    {
      "midi": 57,
      "time": 20.1,
      "duration": 0.15,
      "velocity": 0.65,
      "hand": "left"
    },
    {
      "midi": 60,
      "time": 20.1,
      "duration": 0.075,
      "velocity": 0.63,
      "hand": "right"
    },
    {
      "midi": 62,
      "time": 20.1,
      "duration": 0.15,
      "velocity": 0.69,
      "hand": "right"
    },
    {
      "midi": 65,
      "time": 20.1,
      "duration": 0.15,
      "velocity": 0.57,
      "hand": "right"
    },
    {
      "midi": 67,
      "time": 20.1,
      "duration": 0.6,
      "velocity": 0.48,
      "hand": "right"
    },
    {
      "midi": 70,
      "time": 20.1,
      "duration": 0.075,
      "velocity": 0.58,
      "hand": "right"
    },
    {
      "midi": 31,
      "time": 20.4,
      "duration": 0.6,
      "velocity": 0.96,
      "hand": "left"
    },
    {
      "midi": 35,
      "time": 20.4,
      "duration": 0.075,
      "velocity": 0.51,
      "hand": "left"
    },
    {
      "midi": 42,
      "time": 20.4,
      "duration": 0.075,
      "velocity": 0.57,
      "hand": "left"
    },
    {
      "midi": 51,
      "time": 20.4,
      "duration": 0.075,
      "velocity": 0.56,
      "hand": "left"
    },
    {
      "midi": 55,
      "time": 20.4,
      "duration": 0.45,
      "velocity": 0.65,
      "hand": "left"
    },
    {
      "midi": 55,
      "time": 20.4,
      "duration": 0.15,
      "velocity": 0.57,
      "hand": "left"
    },
    {
      "midi": 55,
      "time": 20.4,
      "duration": 1.05,
      "velocity": 0.5,
      "hand": "left"
    },
    {
      "midi": 59,
      "time": 20.4,
      "duration": 0.45,
      "velocity": 0.63,
      "hand": "left"
    },
    {
      "midi": 59,
      "time": 20.4,
      "duration": 0.075,
      "velocity": 0.57,
      "hand": "left"
    },
    {
      "midi": 59,
      "time": 20.4,
      "duration": 1.05,
      "velocity": 0.54,
      "hand": "left"
    },
    {
      "midi": 62,
      "time": 20.4,
      "duration": 0.45,
      "velocity": 0.57,
      "hand": "right"
    },
    {
      "midi": 62,
      "time": 20.4,
      "duration": 0.15,
      "velocity": 0.63,
      "hand": "right"
    },
    {
      "midi": 62,
      "time": 20.4,
      "duration": 0.9,
      "velocity": 0.44,
      "hand": "right"
    },
    {
      "midi": 65,
      "time": 20.4,
      "duration": 0.45,
      "velocity": 0.53,
      "hand": "right"
    },
    {
      "midi": 65,
      "time": 20.4,
      "duration": 0.15,
      "velocity": 0.53,
      "hand": "right"
    },
    {
      "midi": 65,
      "time": 20.4,
      "duration": 1.05,
      "velocity": 0.46,
      "hand": "right"
    },
    {
      "midi": 65,
      "time": 20.4,
      "duration": 0.9,
      "velocity": 0.68,
      "hand": "right"
    },
    {
      "midi": 67,
      "time": 20.4,
      "duration": 1.05,
      "velocity": 0.64,
      "hand": "right"
    },
    {
      "midi": 70,
      "time": 20.4,
      "duration": 0.075,
      "velocity": 0.72,
      "hand": "right"
    },
    {
      "midi": 71,
      "time": 20.4,
      "duration": 1.05,
      "velocity": 0.58,
      "hand": "right"
    },
    {
      "midi": 38,
      "time": 20.7,
      "duration": 0.075,
      "velocity": 0.57,
      "hand": "left"
    },
    {
      "midi": 42,
      "time": 20.7,
      "duration": 0.075,
      "velocity": 0.58,
      "hand": "left"
    },
    {
      "midi": 51,
      "time": 20.7,
      "duration": 0.075,
      "velocity": 0.54,
      "hand": "left"
    },
    {
      "midi": 54,
      "time": 20.7,
      "duration": 0.075,
      "velocity": 0.52,
      "hand": "left"
    },
    {
      "midi": 55,
      "time": 20.7,
      "duration": 0.075,
      "velocity": 0.52,
      "hand": "left"
    },
    {
      "midi": 59,
      "time": 20.7,
      "duration": 0.075,
      "velocity": 0.54,
      "hand": "left"
    },
    {
      "midi": 62,
      "time": 20.7,
      "duration": 0.15,
      "velocity": 0.54,
      "hand": "right"
    },
    {
      "midi": 65,
      "time": 20.7,
      "duration": 0.15,
      "velocity": 0.51,
      "hand": "right"
    },
    {
      "midi": 65,
      "time": 20.7,
      "duration": 0.3,
      "velocity": 0.56,
      "hand": "right"
    },
    {
      "midi": 35,
      "time": 21,
      "duration": 0.075,
      "velocity": 0.72,
      "hand": "left"
    },
    {
      "midi": 38,
      "time": 21,
      "duration": 0.45,
      "velocity": 0.96,
      "hand": "left"
    },
    {
      "midi": 42,
      "time": 21,
      "duration": 0.075,
      "velocity": 0.54,
      "hand": "left"
    },
    {
      "midi": 51,
      "time": 21,
      "duration": 0.075,
      "velocity": 0.57,
      "hand": "left"
    },
    {
      "midi": 55,
      "time": 21,
      "duration": 0.15,
      "velocity": 0.49,
      "hand": "left"
    },
    {
      "midi": 59,
      "time": 21,
      "duration": 0.3,
      "velocity": 0.48,
      "hand": "left"
    },
    {
      "midi": 59,
      "time": 21,
      "duration": 0.15,
      "velocity": 0.58,
      "hand": "left"
    },
    {
      "midi": 62,
      "time": 21,
      "duration": 0.3,
      "velocity": 0.44,
      "hand": "right"
    },
    {
      "midi": 62,
      "time": 21,
      "duration": 0.15,
      "velocity": 0.54,
      "hand": "right"
    },
    {
      "midi": 64,
      "time": 21,
      "duration": 0.3,
      "velocity": 0.54,
      "hand": "right"
    },
    {
      "midi": 65,
      "time": 21,
      "duration": 0.3,
      "velocity": 0.46,
      "hand": "right"
    },
    {
      "midi": 65,
      "time": 21,
      "duration": 0.15,
      "velocity": 0.54,
      "hand": "right"
    },
    {
      "midi": 38,
      "time": 21.3,
      "duration": 0.075,
      "velocity": 0.56,
      "hand": "left"
    },
    {
      "midi": 42,
      "time": 21.3,
      "duration": 0.075,
      "velocity": 0.5,
      "hand": "left"
    },
    {
      "midi": 51,
      "time": 21.3,
      "duration": 0.075,
      "velocity": 0.56,
      "hand": "left"
    },
    {
      "midi": 54,
      "time": 21.3,
      "duration": 0.075,
      "velocity": 0.55,
      "hand": "left"
    },
    {
      "midi": 55,
      "time": 21.3,
      "duration": 0.15,
      "velocity": 0.4,
      "hand": "left"
    },
    {
      "midi": 59,
      "time": 21.3,
      "duration": 0.15,
      "velocity": 0.5,
      "hand": "left"
    },
    {
      "midi": 62,
      "time": 21.3,
      "duration": 0.15,
      "velocity": 0.49,
      "hand": "right"
    },
    {
      "midi": 62,
      "time": 21.3,
      "duration": 0.3,
      "velocity": 0.51,
      "hand": "right"
    },
    {
      "midi": 65,
      "time": 21.3,
      "duration": 0.15,
      "velocity": 0.48,
      "hand": "right"
    },
    {
      "midi": 35,
      "time": 21.6,
      "duration": 0.075,
      "velocity": 0.57,
      "hand": "left"
    },
    {
      "midi": 36,
      "time": 21.6,
      "duration": 0.6,
      "velocity": 0.96,
      "hand": "left"
    },
    {
      "midi": 42,
      "time": 21.6,
      "duration": 0.075,
      "velocity": 0.55,
      "hand": "left"
    },
    {
      "midi": 51,
      "time": 21.6,
      "duration": 0.075,
      "velocity": 0.56,
      "hand": "left"
    },
    {
      "midi": 55,
      "time": 21.6,
      "duration": 0.75,
      "velocity": 0.59,
      "hand": "left"
    },
    {
      "midi": 55,
      "time": 21.6,
      "duration": 0.15,
      "velocity": 0.61,
      "hand": "left"
    },
    {
      "midi": 55,
      "time": 21.6,
      "duration": 1.05,
      "velocity": 0.41,
      "hand": "left"
    },
    {
      "midi": 60,
      "time": 21.6,
      "duration": 0.75,
      "velocity": 0.64,
      "hand": "right"
    },
    {
      "midi": 60,
      "time": 21.6,
      "duration": 0.15,
      "velocity": 0.72,
      "hand": "right"
    },
    {
      "midi": 60,
      "time": 21.6,
      "duration": 1.05,
      "velocity": 0.51,
      "hand": "right"
    },
    {
      "midi": 64,
      "time": 21.6,
      "duration": 0.75,
      "velocity": 0.57,
      "hand": "right"
    },
    {
      "midi": 64,
      "time": 21.6,
      "duration": 0.15,
      "velocity": 0.64,
      "hand": "right"
    },
    {
      "midi": 64,
      "time": 21.6,
      "duration": 1.05,
      "velocity": 0.35,
      "hand": "right"
    },
    {
      "midi": 67,
      "time": 21.6,
      "duration": 1.05,
      "velocity": 0.5,
      "hand": "right"
    },
    {
      "midi": 71,
      "time": 21.6,
      "duration": 1.05,
      "velocity": 0.49,
      "hand": "right"
    },
    {
      "midi": 38,
      "time": 21.9,
      "duration": 0.075,
      "velocity": 0.54,
      "hand": "left"
    },
    {
      "midi": 42,
      "time": 21.9,
      "duration": 0.075,
      "velocity": 0.54,
      "hand": "left"
    },
    {
      "midi": 51,
      "time": 21.9,
      "duration": 0.075,
      "velocity": 0.54,
      "hand": "left"
    },
    {
      "midi": 54,
      "time": 21.9,
      "duration": 0.075,
      "velocity": 0.55,
      "hand": "left"
    },
    {
      "midi": 70,
      "time": 21.9,
      "duration": 0.075,
      "velocity": 0.73,
      "hand": "right"
    },
    {
      "midi": 55,
      "time": 22.05,
      "duration": 0.15,
      "velocity": 0.54,
      "hand": "left"
    },
    {
      "midi": 60,
      "time": 22.05,
      "duration": 0.075,
      "velocity": 0.59,
      "hand": "right"
    },
    {
      "midi": 64,
      "time": 22.05,
      "duration": 0.15,
      "velocity": 0.57,
      "hand": "right"
    },
    {
      "midi": 31,
      "time": 22.2,
      "duration": 0.3,
      "velocity": 0.96,
      "hand": "left"
    },
    {
      "midi": 35,
      "time": 22.2,
      "duration": 0.075,
      "velocity": 0.68,
      "hand": "left"
    },
    {
      "midi": 42,
      "time": 22.2,
      "duration": 0.075,
      "velocity": 0.53,
      "hand": "left"
    },
    {
      "midi": 51,
      "time": 22.2,
      "duration": 0.075,
      "velocity": 0.54,
      "hand": "left"
    },
    {
      "midi": 55,
      "time": 22.2,
      "duration": 0.15,
      "velocity": 0.54,
      "hand": "left"
    },
    {
      "midi": 60,
      "time": 22.2,
      "duration": 0.075,
      "velocity": 0.69,
      "hand": "right"
    },
    {
      "midi": 64,
      "time": 22.2,
      "duration": 0.15,
      "velocity": 0.64,
      "hand": "right"
    },
    {
      "midi": 70,
      "time": 22.2,
      "duration": 0.075,
      "velocity": 0.72,
      "hand": "right"
    },
    {
      "midi": 36,
      "time": 22.5,
      "duration": 0.3,
      "velocity": 0.96,
      "hand": "left"
    },
    {
      "midi": 38,
      "time": 22.5,
      "duration": 0.075,
      "velocity": 0.56,
      "hand": "left"
    },
    {
      "midi": 42,
      "time": 22.5,
      "duration": 0.075,
      "velocity": 0.57,
      "hand": "left"
    },
    {
      "midi": 51,
      "time": 22.5,
      "duration": 0.075,
      "velocity": 0.54,
      "hand": "left"
    },
    {
      "midi": 54,
      "time": 22.5,
      "duration": 0.075,
      "velocity": 0.54,
      "hand": "left"
    },
    {
      "midi": 55,
      "time": 22.5,
      "duration": 0.15,
      "velocity": 0.72,
      "hand": "left"
    },
    {
      "midi": 60,
      "time": 22.5,
      "duration": 0.075,
      "velocity": 0.74,
      "hand": "right"
    },
    {
      "midi": 64,
      "time": 22.5,
      "duration": 0.15,
      "velocity": 0.73,
      "hand": "right"
    },
    {
      "midi": 70,
      "time": 22.5,
      "duration": 0.075,
      "velocity": 0.72,
      "hand": "right"
    },
    {
      "midi": 35,
      "time": 22.8,
      "duration": 0.075,
      "velocity": 0.69,
      "hand": "left"
    },
    {
      "midi": 38,
      "time": 22.8,
      "duration": 0.45,
      "velocity": 0.91,
      "hand": "left"
    },
    {
      "midi": 38,
      "time": 22.8,
      "duration": 0.15,
      "velocity": 0.68,
      "hand": "left"
    },
    {
      "midi": 42,
      "time": 22.8,
      "duration": 0.075,
      "velocity": 0.68,
      "hand": "left"
    },
    {
      "midi": 51,
      "time": 22.8,
      "duration": 0.075,
      "velocity": 0.58,
      "hand": "left"
    },
    {
      "midi": 56,
      "time": 22.8,
      "duration": 0.45,
      "velocity": 0.57,
      "hand": "left"
    },
    {
      "midi": 56,
      "time": 22.8,
      "duration": 0.15,
      "velocity": 0.54,
      "hand": "left"
    },
    {
      "midi": 60,
      "time": 22.8,
      "duration": 0.45,
      "velocity": 0.64,
      "hand": "right"
    },
    {
      "midi": 60,
      "time": 22.8,
      "duration": 0.15,
      "velocity": 0.56,
      "hand": "right"
    },
    {
      "midi": 62,
      "time": 22.8,
      "duration": 0.3,
      "velocity": 0.54,
      "hand": "right"
    },
    {
      "midi": 62,
      "time": 22.8,
      "duration": 0.15,
      "velocity": 0.5,
      "hand": "right"
    },
    {
      "midi": 63,
      "time": 22.8,
      "duration": 0.075,
      "velocity": 0.43,
      "hand": "right"
    },
    {
      "midi": 65,
      "time": 22.8,
      "duration": 0.45,
      "velocity": 0.58,
      "hand": "right"
    },
    {
      "midi": 65,
      "time": 22.8,
      "duration": 0.15,
      "velocity": 0.5,
      "hand": "right"
    },
    {
      "midi": 70,
      "time": 22.8,
      "duration": 0.075,
      "velocity": 0.73,
      "hand": "right"
    },
    {
      "midi": 38,
      "time": 22.95,
      "duration": 0.15,
      "velocity": 0.72,
      "hand": "left"
    },
    {
      "midi": 42,
      "time": 23.1,
      "duration": 0.075,
      "velocity": 0.61,
      "hand": "left"
    },
    {
      "midi": 51,
      "time": 23.1,
      "duration": 0.075,
      "velocity": 0.56,
      "hand": "left"
    },
    {
      "midi": 54,
      "time": 23.1,
      "duration": 0.075,
      "velocity": 0.55,
      "hand": "left"
    },
    {
      "midi": 56,
      "time": 23.1,
      "duration": 0.15,
      "velocity": 0.55,
      "hand": "left"
    },
    {
      "midi": 60,
      "time": 23.1,
      "duration": 0.15,
      "velocity": 0.59,
      "hand": "right"
    },
    {
      "midi": 62,
      "time": 23.1,
      "duration": 0.15,
      "velocity": 0.53,
      "hand": "right"
    },
    {
      "midi": 65,
      "time": 23.1,
      "duration": 0.15,
      "velocity": 0.51,
      "hand": "right"
    },
    {
      "midi": 40,
      "time": 23.25,
      "duration": 0.15,
      "velocity": 0.72,
      "hand": "left"
    },
    {
      "midi": 32,
      "time": 23.4,
      "duration": 0.6,
      "velocity": 0.99,
      "hand": "left"
    },
    {
      "midi": 35,
      "time": 23.4,
      "duration": 0.075,
      "velocity": 0.57,
      "hand": "left"
    },
    {
      "midi": 38,
      "time": 23.4,
      "duration": 0.15,
      "velocity": 0.7,
      "hand": "left"
    },
    {
      "midi": 42,
      "time": 23.4,
      "duration": 0.075,
      "velocity": 0.61,
      "hand": "left"
    },
    {
      "midi": 51,
      "time": 23.4,
      "duration": 0.075,
      "velocity": 0.49,
      "hand": "left"
    },
    {
      "midi": 55,
      "time": 23.4,
      "duration": 0.3,
      "velocity": 0.49,
      "hand": "left"
    },
    {
      "midi": 55,
      "time": 23.4,
      "duration": 0.15,
      "velocity": 0.56,
      "hand": "left"
    },
    {
      "midi": 59,
      "time": 23.4,
      "duration": 0.3,
      "velocity": 0.57,
      "hand": "left"
    },
    {
      "midi": 59,
      "time": 23.4,
      "duration": 0.15,
      "velocity": 0.54,
      "hand": "left"
    },
    {
      "midi": 62,
      "time": 23.4,
      "duration": 0.15,
      "velocity": 0.44,
      "hand": "right"
    },
    {
      "midi": 63,
      "time": 23.4,
      "duration": 0.45,
      "velocity": 0.44,
      "hand": "right"
    },
    {
      "midi": 63,
      "time": 23.4,
      "duration": 0.075,
      "velocity": 0.46,
      "hand": "right"
    },
    {
      "midi": 65,
      "time": 23.4,
      "duration": 0.15,
      "velocity": 0.51,
      "hand": "right"
    },
    {
      "midi": 67,
      "time": 23.4,
      "duration": 0.45,
      "velocity": 0.59,
      "hand": "right"
    },
    {
      "midi": 42,
      "time": 23.7,
      "duration": 0.075,
      "velocity": 0.58,
      "hand": "left"
    },
    {
      "midi": 50,
      "time": 23.7,
      "duration": 0.15,
      "velocity": 0.73,
      "hand": "left"
    },
    {
      "midi": 51,
      "time": 23.7,
      "duration": 0.075,
      "velocity": 0.54,
      "hand": "left"
    },
    {
      "midi": 54,
      "time": 23.7,
      "duration": 0.075,
      "velocity": 0.54,
      "hand": "left"
    },
    {
      "midi": 55,
      "time": 23.7,
      "duration": 0.15,
      "velocity": 0.51,
      "hand": "left"
    },
    {
      "midi": 59,
      "time": 23.7,
      "duration": 0.15,
      "velocity": 0.5,
      "hand": "left"
    },
    {
      "midi": 62,
      "time": 23.7,
      "duration": 0.15,
      "velocity": 0.5,
      "hand": "right"
    },
    {
      "midi": 64,
      "time": 23.7,
      "duration": 0.3,
      "velocity": 0.73,
      "hand": "right"
    },
    {
      "midi": 65,
      "time": 23.7,
      "duration": 0.15,
      "velocity": 0.42,
      "hand": "right"
    },
    {
      "midi": 35,
      "time": 24,
      "duration": 0.075,
      "velocity": 0.7,
      "hand": "left"
    },
    {
      "midi": 36,
      "time": 24,
      "duration": 0.6,
      "velocity": 0.96,
      "hand": "left"
    },
    {
      "midi": 49,
      "time": 24,
      "duration": 0.075,
      "velocity": 0.79,
      "hand": "left"
    },
    {
      "midi": 51,
      "time": 24,
      "duration": 0.075,
      "velocity": 0.53,
      "hand": "left"
    },
    {
      "midi": 57,
      "time": 24,
      "duration": 0.6,
      "velocity": 0.43,
      "hand": "left"
    },
    {
      "midi": 57,
      "time": 24,
      "duration": 1.95,
      "velocity": 0.63,
      "hand": "left"
    },
    {
      "midi": 62,
      "time": 24,
      "duration": 0.6,
      "velocity": 0.48,
      "hand": "right"
    },
    {
      "midi": 62,
      "time": 24,
      "duration": 2.1,
      "velocity": 0.69,
      "hand": "right"
    },
    {
      "midi": 67,
      "time": 24,
      "duration": 0.6,
      "velocity": 0.43,
      "hand": "right"
    },
    {
      "midi": 67,
      "time": 24,
      "duration": 0.15,
      "velocity": 0.65,
      "hand": "right"
    },
    {
      "midi": 67,
      "time": 24,
      "duration": 2.1,
      "velocity": 0.64,
      "hand": "right"
    },
    {
      "midi": 38,
      "time": 24.3,
      "duration": 0.075,
      "velocity": 0.57,
      "hand": "left"
    },
    {
      "midi": 42,
      "time": 24.3,
      "duration": 0.075,
      "velocity": 0.61,
      "hand": "left"
    },
    {
      "midi": 51,
      "time": 24.3,
      "duration": 0.075,
      "velocity": 0.61,
      "hand": "left"
    },
    {
      "midi": 54,
      "time": 24.3,
      "duration": 0.075,
      "velocity": 0.57,
      "hand": "left"
    },
    {
      "midi": 57,
      "time": 24.3,
      "duration": 0.15,
      "velocity": 0.64,
      "hand": "left"
    },
    {
      "midi": 62,
      "time": 24.3,
      "duration": 0.075,
      "velocity": 0.7,
      "hand": "right"
    },
    {
      "midi": 67,
      "time": 24.3,
      "duration": 0.15,
      "velocity": 0.54,
      "hand": "right"
    },
    {
      "midi": 67,
      "time": 24.3,
      "duration": 0.3,
      "velocity": 0.54,
      "hand": "right"
    },
    {
      "midi": 70,
      "time": 24.3,
      "duration": 0.075,
      "velocity": 0.7,
      "hand": "right"
    },
    {
      "midi": 31,
      "time": 24.6,
      "duration": 0.6,
      "velocity": 0.96,
      "hand": "left"
    },
    {
      "midi": 35,
      "time": 24.6,
      "duration": 0.075,
      "velocity": 0.73,
      "hand": "left"
    },
    {
      "midi": 42,
      "time": 24.6,
      "duration": 0.075,
      "velocity": 0.57,
      "hand": "left"
    },
    {
      "midi": 51,
      "time": 24.6,
      "duration": 0.075,
      "velocity": 0.53,
      "hand": "left"
    },
    {
      "midi": 57,
      "time": 24.6,
      "duration": 0.45,
      "velocity": 0.43,
      "hand": "left"
    },
    {
      "midi": 62,
      "time": 24.6,
      "duration": 0.45,
      "velocity": 0.49,
      "hand": "right"
    },
    {
      "midi": 64,
      "time": 24.6,
      "duration": 0.3,
      "velocity": 0.59,
      "hand": "right"
    },
    {
      "midi": 67,
      "time": 24.6,
      "duration": 0.45,
      "velocity": 0.49,
      "hand": "right"
    },
    {
      "midi": 70,
      "time": 24.6,
      "duration": 0.075,
      "velocity": 0.63,
      "hand": "right"
    },
    {
      "midi": 38,
      "time": 24.9,
      "duration": 0.075,
      "velocity": 0.55,
      "hand": "left"
    },
    {
      "midi": 42,
      "time": 24.9,
      "duration": 0.075,
      "velocity": 0.56,
      "hand": "left"
    },
    {
      "midi": 51,
      "time": 24.9,
      "duration": 0.075,
      "velocity": 0.57,
      "hand": "left"
    },
    {
      "midi": 54,
      "time": 24.9,
      "duration": 0.075,
      "velocity": 0.5,
      "hand": "left"
    },
    {
      "midi": 57,
      "time": 24.9,
      "duration": 0.075,
      "velocity": 0.64,
      "hand": "left"
    },
    {
      "midi": 62,
      "time": 24.9,
      "duration": 0.075,
      "velocity": 0.72,
      "hand": "right"
    },
    {
      "midi": 65,
      "time": 24.9,
      "duration": 0.3,
      "velocity": 0.61,
      "hand": "right"
    },
    {
      "midi": 67,
      "time": 24.9,
      "duration": 0.075,
      "velocity": 0.56,
      "hand": "right"
    },
    {
      "midi": 70,
      "time": 24.9,
      "duration": 0.075,
      "velocity": 0.56,
      "hand": "right"
    },
    {
      "midi": 35,
      "time": 25.2,
      "duration": 0.075,
      "velocity": 0.72,
      "hand": "left"
    },
    {
      "midi": 36,
      "time": 25.2,
      "duration": 0.6,
      "velocity": 0.96,
      "hand": "left"
    },
    {
      "midi": 42,
      "time": 25.2,
      "duration": 0.075,
      "velocity": 0.54,
      "hand": "left"
    },
    {
      "midi": 51,
      "time": 25.2,
      "duration": 0.075,
      "velocity": 0.46,
      "hand": "left"
    },
    {
      "midi": 57,
      "time": 25.2,
      "duration": 0.6,
      "velocity": 0.56,
      "hand": "left"
    },
    {
      "midi": 62,
      "time": 25.2,
      "duration": 0.6,
      "velocity": 0.59,
      "hand": "right"
    },
    {
      "midi": 67,
      "time": 25.2,
      "duration": 0.6,
      "velocity": 0.61,
      "hand": "right"
    },
    {
      "midi": 67,
      "time": 25.2,
      "duration": 0.3,
      "velocity": 0.54,
      "hand": "right"
    },
    {
      "midi": 70,
      "time": 25.2,
      "duration": 0.075,
      "velocity": 0.73,
      "hand": "right"
    },
    {
      "midi": 38,
      "time": 25.5,
      "duration": 0.075,
      "velocity": 0.56,
      "hand": "left"
    },
    {
      "midi": 42,
      "time": 25.5,
      "duration": 0.075,
      "velocity": 0.46,
      "hand": "left"
    },
    {
      "midi": 51,
      "time": 25.5,
      "duration": 0.075,
      "velocity": 0.52,
      "hand": "left"
    },
    {
      "midi": 54,
      "time": 25.5,
      "duration": 0.075,
      "velocity": 0.56,
      "hand": "left"
    },
    {
      "midi": 57,
      "time": 25.5,
      "duration": 0.15,
      "velocity": 0.72,
      "hand": "left"
    },
    {
      "midi": 62,
      "time": 25.5,
      "duration": 0.075,
      "velocity": 0.72,
      "hand": "right"
    },
    {
      "midi": 67,
      "time": 25.5,
      "duration": 0.075,
      "velocity": 0.57,
      "hand": "right"
    },
    {
      "midi": 67,
      "time": 25.5,
      "duration": 0.15,
      "velocity": 0.72,
      "hand": "right"
    },
    {
      "midi": 31,
      "time": 25.8,
      "duration": 0.6,
      "velocity": 0.96,
      "hand": "left"
    },
    {
      "midi": 35,
      "time": 25.8,
      "duration": 0.075,
      "velocity": 0.7,
      "hand": "left"
    },
    {
      "midi": 42,
      "time": 25.8,
      "duration": 0.075,
      "velocity": 0.5,
      "hand": "left"
    },
    {
      "midi": 51,
      "time": 25.8,
      "duration": 0.075,
      "velocity": 0.54,
      "hand": "left"
    },
    {
      "midi": 57,
      "time": 25.8,
      "duration": 0.15,
      "velocity": 0.5,
      "hand": "left"
    },
    {
      "midi": 62,
      "time": 25.8,
      "duration": 0.15,
      "velocity": 0.52,
      "hand": "right"
    },
    {
      "midi": 67,
      "time": 25.8,
      "duration": 0.15,
      "velocity": 0.5,
      "hand": "right"
    },
    {
      "midi": 38,
      "time": 26.1,
      "duration": 0.075,
      "velocity": 0.53,
      "hand": "left"
    },
    {
      "midi": 42,
      "time": 26.1,
      "duration": 0.075,
      "velocity": 0.54,
      "hand": "left"
    },
    {
      "midi": 51,
      "time": 26.1,
      "duration": 0.075,
      "velocity": 0.54,
      "hand": "left"
    },
    {
      "midi": 54,
      "time": 26.1,
      "duration": 0.075,
      "velocity": 0.57,
      "hand": "left"
    },
    {
      "midi": 57,
      "time": 26.1,
      "duration": 0.15,
      "velocity": 0.51,
      "hand": "left"
    },
    {
      "midi": 62,
      "time": 26.1,
      "duration": 0.075,
      "velocity": 0.57,
      "hand": "right"
    },
    {
      "midi": 67,
      "time": 26.1,
      "duration": 0.15,
      "velocity": 0.51,
      "hand": "right"
    },
    {
      "midi": 35,
      "time": 26.4,
      "duration": 0.075,
      "velocity": 0.69,
      "hand": "left"
    },
    {
      "midi": 40,
      "time": 26.4,
      "duration": 0.6,
      "velocity": 0.96,
      "hand": "left"
    },
    {
      "midi": 42,
      "time": 26.4,
      "duration": 0.075,
      "velocity": 0.54,
      "hand": "left"
    },
    {
      "midi": 51,
      "time": 26.4,
      "duration": 0.075,
      "velocity": 0.51,
      "hand": "left"
    },
    {
      "midi": 59,
      "time": 26.4,
      "duration": 0.15,
      "velocity": 0.61,
      "hand": "left"
    },
    {
      "midi": 59,
      "time": 26.4,
      "duration": 0.3,
      "velocity": 0.57,
      "hand": "left"
    },
    {
      "midi": 62,
      "time": 26.4,
      "duration": 0.15,
      "velocity": 0.57,
      "hand": "right"
    },
    {
      "midi": 62,
      "time": 26.4,
      "duration": 0.3,
      "velocity": 0.57,
      "hand": "right"
    },
    {
      "midi": 64,
      "time": 26.4,
      "duration": 0.15,
      "velocity": 0.63,
      "hand": "right"
    },
    {
      "midi": 64,
      "time": 26.4,
      "duration": 0.3,
      "velocity": 0.59,
      "hand": "right"
    },
    {
      "midi": 67,
      "time": 26.4,
      "duration": 0.15,
      "velocity": 0.54,
      "hand": "right"
    },
    {
      "midi": 67,
      "time": 26.4,
      "duration": 0.3,
      "velocity": 0.54,
      "hand": "right"
    },
    {
      "midi": 69,
      "time": 26.4,
      "duration": 0.3,
      "velocity": 0.72,
      "hand": "right"
    },
    {
      "midi": 38,
      "time": 26.7,
      "duration": 0.075,
      "velocity": 0.54,
      "hand": "left"
    },
    {
      "midi": 42,
      "time": 26.7,
      "duration": 0.075,
      "velocity": 0.57,
      "hand": "left"
    },
    {
      "midi": 51,
      "time": 26.7,
      "duration": 0.075,
      "velocity": 0.55,
      "hand": "left"
    },
    {
      "midi": 54,
      "time": 26.7,
      "duration": 0.075,
      "velocity": 0.54,
      "hand": "left"
    },
    {
      "midi": 59,
      "time": 26.7,
      "duration": 0.15,
      "velocity": 0.59,
      "hand": "left"
    },
    {
      "midi": 62,
      "time": 26.7,
      "duration": 0.15,
      "velocity": 0.57,
      "hand": "right"
    },
    {
      "midi": 62,
      "time": 26.7,
      "duration": 0.075,
      "velocity": 0.57,
      "hand": "right"
    },
    {
      "midi": 64,
      "time": 26.7,
      "duration": 0.15,
      "velocity": 0.61,
      "hand": "right"
    },
    {
      "midi": 67,
      "time": 26.7,
      "duration": 0.15,
      "velocity": 0.57,
      "hand": "right"
    },
    {
      "midi": 67,
      "time": 26.7,
      "duration": 0.3,
      "velocity": 0.65,
      "hand": "right"
    },
    {
      "midi": 70,
      "time": 26.7,
      "duration": 0.075,
      "velocity": 0.72,
      "hand": "right"
    },
    {
      "midi": 35,
      "time": 27,
      "duration": 0.075,
      "velocity": 0.56,
      "hand": "left"
    },
    {
      "midi": 39,
      "time": 27,
      "duration": 0.45,
      "velocity": 0.96,
      "hand": "left"
    },
    {
      "midi": 42,
      "time": 27,
      "duration": 0.075,
      "velocity": 0.57,
      "hand": "left"
    },
    {
      "midi": 51,
      "time": 27,
      "duration": 0.075,
      "velocity": 0.5,
      "hand": "left"
    },
    {
      "midi": 58,
      "time": 27,
      "duration": 0.3,
      "velocity": 0.72,
      "hand": "left"
    },
    {
      "midi": 58,
      "time": 27,
      "duration": 0.15,
      "velocity": 0.61,
      "hand": "left"
    },
    {
      "midi": 58,
      "time": 27,
      "duration": 0.45,
      "velocity": 0.57,
      "hand": "left"
    },
    {
      "midi": 58,
      "time": 27,
      "duration": 0.3,
      "velocity": 0.59,
      "hand": "left"
    },
    {
      "midi": 61,
      "time": 27,
      "duration": 0.3,
      "velocity": 0.61,
      "hand": "right"
    },
    {
      "midi": 61,
      "time": 27,
      "duration": 0.15,
      "velocity": 0.56,
      "hand": "right"
    },
    {
      "midi": 61,
      "time": 27,
      "duration": 0.45,
      "velocity": 0.58,
      "hand": "right"
    },
    {
      "midi": 61,
      "time": 27,
      "duration": 0.3,
      "velocity": 0.52,
      "hand": "right"
    },
    {
      "midi": 63,
      "time": 27,
      "duration": 0.3,
      "velocity": 0.58,
      "hand": "right"
    },
    {
      "midi": 63,
      "time": 27,
      "duration": 0.15,
      "velocity": 0.57,
      "hand": "right"
    },
    {
      "midi": 63,
      "time": 27,
      "duration": 0.45,
      "velocity": 0.58,
      "hand": "right"
    },
    {
      "midi": 63,
      "time": 27,
      "duration": 0.3,
      "velocity": 0.54,
      "hand": "right"
    },
    {
      "midi": 65,
      "time": 27,
      "duration": 0.3,
      "velocity": 0.58,
      "hand": "right"
    },
    {
      "midi": 66,
      "time": 27,
      "duration": 0.3,
      "velocity": 0.54,
      "hand": "right"
    },
    {
      "midi": 68,
      "time": 27,
      "duration": 0.3,
      "velocity": 0.61,
      "hand": "right"
    },
    {
      "midi": 68,
      "time": 27,
      "duration": 0.15,
      "velocity": 0.54,
      "hand": "right"
    },
    {
      "midi": 68,
      "time": 27,
      "duration": 0.45,
      "velocity": 0.54,
      "hand": "right"
    },
    {
      "midi": 70,
      "time": 27,
      "duration": 0.075,
      "velocity": 0.69,
      "hand": "right"
    },
    {
      "midi": 38,
      "time": 27.3,
      "duration": 0.075,
      "velocity": 0.55,
      "hand": "left"
    },
    {
      "midi": 42,
      "time": 27.3,
      "duration": 0.075,
      "velocity": 0.54,
      "hand": "left"
    },
    {
      "midi": 51,
      "time": 27.3,
      "duration": 0.075,
      "velocity": 0.54,
      "hand": "left"
    },
    {
      "midi": 54,
      "time": 27.3,
      "duration": 0.075,
      "velocity": 0.64,
      "hand": "left"
    },
    {
      "midi": 58,
      "time": 27.3,
      "duration": 0.15,
      "velocity": 0.65,
      "hand": "left"
    },
    {
      "midi": 61,
      "time": 27.3,
      "duration": 0.15,
      "velocity": 0.69,
      "hand": "right"
    },
    {
      "midi": 63,
      "time": 27.3,
      "duration": 0.15,
      "velocity": 0.69,
      "hand": "right"
    },
    {
      "midi": 64,
      "time": 27.3,
      "duration": 0.15,
      "velocity": 0.64,
      "hand": "right"
    },
    {
      "midi": 68,
      "time": 27.3,
      "duration": 0.15,
      "velocity": 0.57,
      "hand": "right"
    },
    {
      "midi": 70,
      "time": 27.3,
      "duration": 0.075,
      "velocity": 0.7,
      "hand": "right"
    },
    {
      "midi": 35,
      "time": 27.6,
      "duration": 0.075,
      "velocity": 0.56,
      "hand": "left"
    },
    {
      "midi": 38,
      "time": 27.6,
      "duration": 0.6,
      "velocity": 0.87,
      "hand": "left"
    },
    {
      "midi": 42,
      "time": 27.6,
      "duration": 0.075,
      "velocity": 0.65,
      "hand": "left"
    },
    {
      "midi": 51,
      "time": 27.6,
      "duration": 0.075,
      "velocity": 0.57,
      "hand": "left"
    },
    {
      "midi": 57,
      "time": 27.6,
      "duration": 0.6,
      "velocity": 0.51,
      "hand": "left"
    },
    {
      "midi": 57,
      "time": 27.6,
      "duration": 2.25,
      "velocity": 0.5,
      "hand": "left"
    },
    {
      "midi": 57,
      "time": 27.6,
      "duration": 1.05,
      "velocity": 0.57,
      "hand": "left"
    },
    {
      "midi": 60,
      "time": 27.6,
      "duration": 0.45,
      "velocity": 0.52,
      "hand": "right"
    },
    {
      "midi": 60,
      "time": 27.6,
      "duration": 2.25,
      "velocity": 0.49,
      "hand": "right"
    },
    {
      "midi": 60,
      "time": 27.6,
      "duration": 1.05,
      "velocity": 0.54,
      "hand": "right"
    },
    {
      "midi": 62,
      "time": 27.6,
      "duration": 0.75,
      "velocity": 0.61,
      "hand": "right"
    },
    {
      "midi": 62,
      "time": 27.6,
      "duration": 3.3,
      "velocity": 0.49,
      "hand": "right"
    },
    {
      "midi": 62,
      "time": 27.6,
      "duration": 1.05,
      "velocity": 0.59,
      "hand": "right"
    },
    {
      "midi": 64,
      "time": 27.6,
      "duration": 0.6,
      "velocity": 0.5,
      "hand": "right"
    },
    {
      "midi": 65,
      "time": 27.6,
      "duration": 3.3,
      "velocity": 0.45,
      "hand": "right"
    },
    {
      "midi": 65,
      "time": 27.6,
      "duration": 1.05,
      "velocity": 0.57,
      "hand": "right"
    },
    {
      "midi": 67,
      "time": 27.6,
      "duration": 0.45,
      "velocity": 0.5,
      "hand": "right"
    },
    {
      "midi": 70,
      "time": 27.6,
      "duration": 0.075,
      "velocity": 0.72,
      "hand": "right"
    },
    {
      "midi": 38,
      "time": 27.9,
      "duration": 0.075,
      "velocity": 0.54,
      "hand": "left"
    },
    {
      "midi": 42,
      "time": 27.9,
      "duration": 0.075,
      "velocity": 0.58,
      "hand": "left"
    },
    {
      "midi": 51,
      "time": 27.9,
      "duration": 0.075,
      "velocity": 0.54,
      "hand": "left"
    },
    {
      "midi": 54,
      "time": 27.9,
      "duration": 0.075,
      "velocity": 0.56,
      "hand": "left"
    },
    {
      "midi": 57,
      "time": 27.9,
      "duration": 0.075,
      "velocity": 0.54,
      "hand": "left"
    },
    {
      "midi": 60,
      "time": 27.9,
      "duration": 0.075,
      "velocity": 0.61,
      "hand": "right"
    },
    {
      "midi": 64,
      "time": 27.9,
      "duration": 0.075,
      "velocity": 0.57,
      "hand": "right"
    },
    {
      "midi": 67,
      "time": 27.9,
      "duration": 0.075,
      "velocity": 0.5,
      "hand": "right"
    },
    {
      "midi": 33,
      "time": 28.2,
      "duration": 0.45,
      "velocity": 0.87,
      "hand": "left"
    },
    {
      "midi": 35,
      "time": 28.2,
      "duration": 0.075,
      "velocity": 0.61,
      "hand": "left"
    },
    {
      "midi": 42,
      "time": 28.2,
      "duration": 0.075,
      "velocity": 0.55,
      "hand": "left"
    },
    {
      "midi": 51,
      "time": 28.2,
      "duration": 0.075,
      "velocity": 0.61,
      "hand": "left"
    },
    {
      "midi": 57,
      "time": 28.2,
      "duration": 0.15,
      "velocity": 0.5,
      "hand": "left"
    },
    {
      "midi": 60,
      "time": 28.2,
      "duration": 0.15,
      "velocity": 0.51,
      "hand": "right"
    },
    {
      "midi": 64,
      "time": 28.2,
      "duration": 0.15,
      "velocity": 0.49,
      "hand": "right"
    },
    {
      "midi": 67,
      "time": 28.2,
      "duration": 0.15,
      "velocity": 0.39,
      "hand": "right"
    },
    {
      "midi": 38,
      "time": 28.5,
      "duration": 0.075,
      "velocity": 0.56,
      "hand": "left"
    },
    {
      "midi": 42,
      "time": 28.5,
      "duration": 0.075,
      "velocity": 0.55,
      "hand": "left"
    },
    {
      "midi": 51,
      "time": 28.5,
      "duration": 0.075,
      "velocity": 0.56,
      "hand": "left"
    },
    {
      "midi": 54,
      "time": 28.5,
      "duration": 0.075,
      "velocity": 0.58,
      "hand": "left"
    },
    {
      "midi": 57,
      "time": 28.5,
      "duration": 0.075,
      "velocity": 0.65,
      "hand": "left"
    },
    {
      "midi": 60,
      "time": 28.5,
      "duration": 0.075,
      "velocity": 0.72,
      "hand": "right"
    },
    {
      "midi": 64,
      "time": 28.5,
      "duration": 0.075,
      "velocity": 0.59,
      "hand": "right"
    },
    {
      "midi": 67,
      "time": 28.5,
      "duration": 0.15,
      "velocity": 0.55,
      "hand": "right"
    },
    {
      "midi": 69,
      "time": 28.5,
      "duration": 0.15,
      "velocity": 0.72,
      "hand": "right"
    },
    {
      "midi": 35,
      "time": 28.8,
      "duration": 0.075,
      "velocity": 0.7,
      "hand": "left"
    },
    {
      "midi": 38,
      "time": 28.8,
      "duration": 0.6,
      "velocity": 0.84,
      "hand": "left"
    },
    {
      "midi": 42,
      "time": 28.8,
      "duration": 0.075,
      "velocity": 0.54,
      "hand": "left"
    },
    {
      "midi": 51,
      "time": 28.8,
      "duration": 0.075,
      "velocity": 0.53,
      "hand": "left"
    },
    {
      "midi": 57,
      "time": 28.8,
      "duration": 0.15,
      "velocity": 0.51,
      "hand": "left"
    },
    {
      "midi": 57,
      "time": 28.8,
      "duration": 0.9,
      "velocity": 0.7,
      "hand": "left"
    },
    {
      "midi": 60,
      "time": 28.8,
      "duration": 0.075,
      "velocity": 0.54,
      "hand": "right"
    },
    {
      "midi": 60,
      "time": 28.8,
      "duration": 0.9,
      "velocity": 0.72,
      "hand": "right"
    },
    {
      "midi": 62,
      "time": 28.8,
      "duration": 1.05,
      "velocity": 0.68,
      "hand": "right"
    },
    {
      "midi": 64,
      "time": 28.8,
      "duration": 0.15,
      "velocity": 0.55,
      "hand": "right"
    },
    {
      "midi": 65,
      "time": 28.8,
      "duration": 1.05,
      "velocity": 0.58,
      "hand": "right"
    },
    {
      "midi": 67,
      "time": 28.8,
      "duration": 0.15,
      "velocity": 0.5,
      "hand": "right"
    },
    {
      "midi": 69,
      "time": 28.8,
      "duration": 0.15,
      "velocity": 0.59,
      "hand": "right"
    },
    {
      "midi": 57,
      "time": 28.95,
      "duration": 0.15,
      "velocity": 0.48,
      "hand": "left"
    },
    {
      "midi": 60,
      "time": 28.95,
      "duration": 0.075,
      "velocity": 0.53,
      "hand": "right"
    },
    {
      "midi": 64,
      "time": 28.95,
      "duration": 0.15,
      "velocity": 0.44,
      "hand": "right"
    },
    {
      "midi": 67,
      "time": 28.95,
      "duration": 0.075,
      "velocity": 0.31,
      "hand": "right"
    },
    {
      "midi": 38,
      "time": 29.1,
      "duration": 0.075,
      "velocity": 0.57,
      "hand": "left"
    },
    {
      "midi": 42,
      "time": 29.1,
      "duration": 0.075,
      "velocity": 0.61,
      "hand": "left"
    },
    {
      "midi": 51,
      "time": 29.1,
      "duration": 0.075,
      "velocity": 0.61,
      "hand": "left"
    },
    {
      "midi": 54,
      "time": 29.1,
      "duration": 0.075,
      "velocity": 0.57,
      "hand": "left"
    },
    {
      "midi": 57,
      "time": 29.1,
      "duration": 0.075,
      "velocity": 0.58,
      "hand": "left"
    },
    {
      "midi": 60,
      "time": 29.1,
      "duration": 0.075,
      "velocity": 0.72,
      "hand": "right"
    },
    {
      "midi": 64,
      "time": 29.1,
      "duration": 0.075,
      "velocity": 0.57,
      "hand": "right"
    },
    {
      "midi": 67,
      "time": 29.1,
      "duration": 0.075,
      "velocity": 0.52,
      "hand": "right"
    },
    {
      "midi": 69,
      "time": 29.1,
      "duration": 0.3,
      "velocity": 0.57,
      "hand": "right"
    },
    {
      "midi": 70,
      "time": 29.1,
      "duration": 0.075,
      "velocity": 0.7,
      "hand": "right"
    },
    {
      "midi": 33,
      "time": 29.4,
      "duration": 0.45,
      "velocity": 0.97,
      "hand": "left"
    },
    {
      "midi": 35,
      "time": 29.4,
      "duration": 0.075,
      "velocity": 0.73,
      "hand": "left"
    },
    {
      "midi": 42,
      "time": 29.4,
      "duration": 0.075,
      "velocity": 0.57,
      "hand": "left"
    },
    {
      "midi": 51,
      "time": 29.4,
      "duration": 0.075,
      "velocity": 0.53,
      "hand": "left"
    },
    {
      "midi": 57,
      "time": 29.4,
      "duration": 0.15,
      "velocity": 0.63,
      "hand": "left"
    },
    {
      "midi": 60,
      "time": 29.4,
      "duration": 0.15,
      "velocity": 0.68,
      "hand": "right"
    },
    {
      "midi": 64,
      "time": 29.4,
      "duration": 0.15,
      "velocity": 0.61,
      "hand": "right"
    },
    {
      "midi": 67,
      "time": 29.4,
      "duration": 0.15,
      "velocity": 0.51,
      "hand": "right"
    },
    {
      "midi": 70,
      "time": 29.4,
      "duration": 0.075,
      "velocity": 0.63,
      "hand": "right"
    },
    {
      "midi": 71,
      "time": 29.4,
      "duration": 0.3,
      "velocity": 0.57,
      "hand": "right"
    },
    {
      "midi": 38,
      "time": 29.7,
      "duration": 0.075,
      "velocity": 0.55,
      "hand": "left"
    },
    {
      "midi": 42,
      "time": 29.7,
      "duration": 0.075,
      "velocity": 0.56,
      "hand": "left"
    },
    {
      "midi": 51,
      "time": 29.7,
      "duration": 0.075,
      "velocity": 0.57,
      "hand": "left"
    },
    {
      "midi": 54,
      "time": 29.7,
      "duration": 0.075,
      "velocity": 0.5,
      "hand": "left"
    },
    {
      "midi": 57,
      "time": 29.7,
      "duration": 0.15,
      "velocity": 0.59,
      "hand": "left"
    },
    {
      "midi": 60,
      "time": 29.7,
      "duration": 0.075,
      "velocity": 0.68,
      "hand": "right"
    },
    {
      "midi": 64,
      "time": 29.7,
      "duration": 0.15,
      "velocity": 0.61,
      "hand": "right"
    },
    {
      "midi": 67,
      "time": 29.7,
      "duration": 0.15,
      "velocity": 0.56,
      "hand": "right"
    },
    {
      "midi": 69,
      "time": 29.7,
      "duration": 0.3,
      "velocity": 0.54,
      "hand": "right"
    },
    {
      "midi": 70,
      "time": 29.7,
      "duration": 0.075,
      "velocity": 0.56,
      "hand": "right"
    },
    {
      "midi": 35,
      "time": 30,
      "duration": 0.075,
      "velocity": 0.72,
      "hand": "left"
    },
    {
      "midi": 38,
      "time": 30,
      "duration": 0.6,
      "velocity": 0.98,
      "hand": "left"
    },
    {
      "midi": 42,
      "time": 30,
      "duration": 0.075,
      "velocity": 0.54,
      "hand": "left"
    },
    {
      "midi": 51,
      "time": 30,
      "duration": 0.075,
      "velocity": 0.46,
      "hand": "left"
    },
    {
      "midi": 53,
      "time": 30,
      "duration": 0.45,
      "velocity": 0.57,
      "hand": "left"
    },
    {
      "midi": 55,
      "time": 30,
      "duration": 0.75,
      "velocity": 0.55,
      "hand": "left"
    },
    {
      "midi": 55,
      "time": 30,
      "duration": 0.9,
      "velocity": 0.61,
      "hand": "left"
    },
    {
      "midi": 57,
      "time": 30,
      "duration": 0.45,
      "velocity": 0.56,
      "hand": "left"
    },
    {
      "midi": 59,
      "time": 30,
      "duration": 0.45,
      "velocity": 0.56,
      "hand": "left"
    },
    {
      "midi": 59,
      "time": 30,
      "duration": 0.75,
      "velocity": 0.53,
      "hand": "left"
    },
    {
      "midi": 59,
      "time": 30,
      "duration": 0.9,
      "velocity": 0.54,
      "hand": "left"
    },
    {
      "midi": 62,
      "time": 30,
      "duration": 1.05,
      "velocity": 0.59,
      "hand": "right"
    },
    {
      "midi": 64,
      "time": 30,
      "duration": 0.45,
      "velocity": 0.54,
      "hand": "right"
    },
    {
      "midi": 65,
      "time": 30,
      "duration": 0.9,
      "velocity": 0.55,
      "hand": "right"
    },
    {
      "midi": 67,
      "time": 30,
      "duration": 0.15,
      "velocity": 0.64,
      "hand": "right"
    },
    {
      "midi": 70,
      "time": 30,
      "duration": 0.075,
      "velocity": 0.73,
      "hand": "right"
    },
    {
      "midi": 38,
      "time": 30.3,
      "duration": 0.075,
      "velocity": 0.56,
      "hand": "left"
    },
    {
      "midi": 42,
      "time": 30.3,
      "duration": 0.075,
      "velocity": 0.46,
      "hand": "left"
    },
    {
      "midi": 51,
      "time": 30.3,
      "duration": 0.075,
      "velocity": 0.52,
      "hand": "left"
    },
    {
      "midi": 54,
      "time": 30.3,
      "duration": 0.075,
      "velocity": 0.56,
      "hand": "left"
    },
    {
      "midi": 59,
      "time": 30.3,
      "duration": 0.075,
      "velocity": 0.61,
      "hand": "left"
    },
    {
      "midi": 62,
      "time": 30.3,
      "duration": 0.075,
      "velocity": 0.68,
      "hand": "right"
    },
    {
      "midi": 64,
      "time": 30.3,
      "duration": 0.075,
      "velocity": 0.69,
      "hand": "right"
    },
    {
      "midi": 67,
      "time": 30.3,
      "duration": 0.3,
      "velocity": 0.52,
      "hand": "right"
    },
    {
      "midi": 69,
      "time": 30.3,
      "duration": 0.15,
      "velocity": 0.63,
      "hand": "right"
    },
    {
      "midi": 35,
      "time": 30.6,
      "duration": 0.075,
      "velocity": 0.7,
      "hand": "left"
    },
    {
      "midi": 38,
      "time": 30.6,
      "duration": 0.6,
      "velocity": 0.94,
      "hand": "left"
    },
    {
      "midi": 42,
      "time": 30.6,
      "duration": 0.075,
      "velocity": 0.5,
      "hand": "left"
    },
    {
      "midi": 51,
      "time": 30.6,
      "duration": 0.075,
      "velocity": 0.54,
      "hand": "left"
    },
    {
      "midi": 53,
      "time": 30.6,
      "duration": 0.15,
      "velocity": 0.63,
      "hand": "left"
    },
    {
      "midi": 57,
      "time": 30.6,
      "duration": 0.15,
      "velocity": 0.56,
      "hand": "left"
    },
    {
      "midi": 59,
      "time": 30.6,
      "duration": 0.15,
      "velocity": 0.57,
      "hand": "left"
    },
    {
      "midi": 64,
      "time": 30.6,
      "duration": 0.15,
      "velocity": 0.56,
      "hand": "right"
    },
    {
      "midi": 64,
      "time": 30.6,
      "duration": 0.3,
      "velocity": 0.63,
      "hand": "right"
    },
    {
      "midi": 38,
      "time": 30.9,
      "duration": 0.075,
      "velocity": 0.53,
      "hand": "left"
    },
    {
      "midi": 42,
      "time": 30.9,
      "duration": 0.075,
      "velocity": 0.54,
      "hand": "left"
    },
    {
      "midi": 51,
      "time": 30.9,
      "duration": 0.075,
      "velocity": 0.54,
      "hand": "left"
    },
    {
      "midi": 54,
      "time": 30.9,
      "duration": 0.075,
      "velocity": 0.57,
      "hand": "left"
    },
    {
      "midi": 59,
      "time": 30.9,
      "duration": 0.075,
      "velocity": 0.7,
      "hand": "left"
    },
    {
      "midi": 62,
      "time": 30.9,
      "duration": 0.075,
      "velocity": 0.72,
      "hand": "right"
    },
    {
      "midi": 64,
      "time": 30.9,
      "duration": 0.075,
      "velocity": 0.58,
      "hand": "right"
    },
    {
      "midi": 65,
      "time": 30.9,
      "duration": 0.075,
      "velocity": 0.35,
      "hand": "right"
    },
    {
      "midi": 67,
      "time": 30.9,
      "duration": 0.15,
      "velocity": 0.54,
      "hand": "right"
    },
    {
      "midi": 69,
      "time": 30.9,
      "duration": 0.15,
      "velocity": 0.68,
      "hand": "right"
    },
    {
      "midi": 35,
      "time": 31.2,
      "duration": 0.075,
      "velocity": 0.69,
      "hand": "left"
    },
    {
      "midi": 37,
      "time": 31.2,
      "duration": 0.45,
      "velocity": 0.94,
      "hand": "left"
    },
    {
      "midi": 42,
      "time": 31.2,
      "duration": 0.075,
      "velocity": 0.54,
      "hand": "left"
    },
    {
      "midi": 51,
      "time": 31.2,
      "duration": 0.075,
      "velocity": 0.51,
      "hand": "left"
    },
    {
      "midi": 56,
      "time": 31.2,
      "duration": 0.45,
      "velocity": 0.5,
      "hand": "left"
    },
    {
      "midi": 57,
      "time": 31.2,
      "duration": 0.15,
      "velocity": 0.57,
      "hand": "left"
    },
    {
      "midi": 57,
      "time": 31.2,
      "duration": 0.45,
      "velocity": 0.54,
      "hand": "left"
    },
    {
      "midi": 60,
      "time": 31.2,
      "duration": 0.15,
      "velocity": 0.58,
      "hand": "right"
    },
    {
      "midi": 60,
      "time": 31.2,
      "duration": 0.3,
      "velocity": 0.58,
      "hand": "right"
    },
    {
      "midi": 60,
      "time": 31.2,
      "duration": 0.45,
      "velocity": 0.57,
      "hand": "right"
    },
    {
      "midi": 62,
      "time": 31.2,
      "duration": 0.3,
      "velocity": 0.57,
      "hand": "right"
    },
    {
      "midi": 62,
      "time": 31.2,
      "duration": 0.45,
      "velocity": 0.45,
      "hand": "right"
    },
    {
      "midi": 64,
      "time": 31.2,
      "duration": 0.15,
      "velocity": 0.54,
      "hand": "right"
    },
    {
      "midi": 65,
      "time": 31.2,
      "duration": 0.15,
      "velocity": 0.65,
      "hand": "right"
    },
    {
      "midi": 65,
      "time": 31.2,
      "duration": 0.3,
      "velocity": 0.55,
      "hand": "right"
    },
    {
      "midi": 65,
      "time": 31.2,
      "duration": 0.45,
      "velocity": 0.51,
      "hand": "right"
    },
    {
      "midi": 67,
      "time": 31.2,
      "duration": 0.15,
      "velocity": 0.5,
      "hand": "right"
    },
    {
      "midi": 38,
      "time": 31.5,
      "duration": 0.075,
      "velocity": 0.54,
      "hand": "left"
    },
    {
      "midi": 42,
      "time": 31.5,
      "duration": 0.075,
      "velocity": 0.57,
      "hand": "left"
    },
    {
      "midi": 51,
      "time": 31.5,
      "duration": 0.075,
      "velocity": 0.55,
      "hand": "left"
    },
    {
      "midi": 54,
      "time": 31.5,
      "duration": 0.075,
      "velocity": 0.54,
      "hand": "left"
    },
    {
      "midi": 57,
      "time": 31.5,
      "duration": 0.15,
      "velocity": 0.54,
      "hand": "left"
    },
    {
      "midi": 57,
      "time": 31.5,
      "duration": 0.075,
      "velocity": 0.64,
      "hand": "left"
    },
    {
      "midi": 60,
      "time": 31.5,
      "duration": 0.15,
      "velocity": 0.53,
      "hand": "right"
    },
    {
      "midi": 60,
      "time": 31.5,
      "duration": 0.075,
      "velocity": 0.7,
      "hand": "right"
    },
    {
      "midi": 64,
      "time": 31.5,
      "duration": 0.15,
      "velocity": 0.52,
      "hand": "right"
    },
    {
      "midi": 64,
      "time": 31.5,
      "duration": 0.075,
      "velocity": 0.54,
      "hand": "right"
    },
    {
      "midi": 65,
      "time": 31.5,
      "duration": 0.075,
      "velocity": 0.51,
      "hand": "right"
    },
    {
      "midi": 65,
      "time": 31.5,
      "duration": 0.3,
      "velocity": 0.54,
      "hand": "right"
    },
    {
      "midi": 67,
      "time": 31.5,
      "duration": 0.15,
      "velocity": 0.39,
      "hand": "right"
    },
    {
      "midi": 67,
      "time": 31.5,
      "duration": 0.075,
      "velocity": 0.61,
      "hand": "right"
    },
    {
      "midi": 70,
      "time": 31.5,
      "duration": 0.075,
      "velocity": 0.72,
      "hand": "right"
    },
    {
      "midi": 35,
      "time": 31.8,
      "duration": 0.075,
      "velocity": 0.56,
      "hand": "left"
    },
    {
      "midi": 37,
      "time": 31.8,
      "duration": 0.6,
      "velocity": 0.98,
      "hand": "left"
    },
    {
      "midi": 42,
      "time": 31.8,
      "duration": 0.075,
      "velocity": 0.57,
      "hand": "left"
    },
    {
      "midi": 51,
      "time": 31.8,
      "duration": 0.075,
      "velocity": 0.5,
      "hand": "left"
    },
    {
      "midi": 55,
      "time": 31.8,
      "duration": 0.3,
      "velocity": 0.56,
      "hand": "left"
    },
    {
      "midi": 56,
      "time": 31.8,
      "duration": 0.15,
      "velocity": 0.55,
      "hand": "left"
    },
    {
      "midi": 56,
      "time": 31.8,
      "duration": 0.45,
      "velocity": 0.46,
      "hand": "left"
    },
    {
      "midi": 58,
      "time": 31.8,
      "duration": 0.075,
      "velocity": 0.44,
      "hand": "left"
    },
    {
      "midi": 59,
      "time": 31.8,
      "duration": 0.15,
      "velocity": 0.55,
      "hand": "left"
    },
    {
      "midi": 59,
      "time": 31.8,
      "duration": 0.3,
      "velocity": 0.52,
      "hand": "left"
    },
    {
      "midi": 62,
      "time": 31.8,
      "duration": 0.45,
      "velocity": 0.54,
      "hand": "right"
    },
    {
      "midi": 63,
      "time": 31.8,
      "duration": 0.15,
      "velocity": 0.51,
      "hand": "right"
    },
    {
      "midi": 63,
      "time": 31.8,
      "duration": 0.45,
      "velocity": 0.54,
      "hand": "right"
    },
    {
      "midi": 64,
      "time": 31.8,
      "duration": 0.3,
      "velocity": 0.61,
      "hand": "right"
    },
    {
      "midi": 65,
      "time": 31.8,
      "duration": 0.45,
      "velocity": 0.5,
      "hand": "right"
    },
    {
      "midi": 67,
      "time": 31.8,
      "duration": 0.15,
      "velocity": 0.37,
      "hand": "right"
    },
    {
      "midi": 67,
      "time": 31.8,
      "duration": 0.45,
      "velocity": 0.36,
      "hand": "right"
    },
    {
      "midi": 68,
      "time": 31.8,
      "duration": 0.15,
      "velocity": 0.37,
      "hand": "right"
    },
    {
      "midi": 70,
      "time": 31.8,
      "duration": 0.075,
      "velocity": 0.69,
      "hand": "right"
    },
    {
      "midi": 38,
      "time": 32.1,
      "duration": 0.075,
      "velocity": 0.55,
      "hand": "left"
    },
    {
      "midi": 42,
      "time": 32.1,
      "duration": 0.075,
      "velocity": 0.54,
      "hand": "left"
    },
    {
      "midi": 51,
      "time": 32.1,
      "duration": 0.075,
      "velocity": 0.54,
      "hand": "left"
    },
    {
      "midi": 54,
      "time": 32.1,
      "duration": 0.075,
      "velocity": 0.64,
      "hand": "left"
    },
    {
      "midi": 56,
      "time": 32.1,
      "duration": 0.15,
      "velocity": 0.53,
      "hand": "left"
    },
    {
      "midi": 59,
      "time": 32.1,
      "duration": 0.15,
      "velocity": 0.55,
      "hand": "left"
    },
    {
      "midi": 62,
      "time": 32.1,
      "duration": 0.3,
      "velocity": 0.57,
      "hand": "right"
    },
    {
      "midi": 63,
      "time": 32.1,
      "duration": 0.15,
      "velocity": 0.43,
      "hand": "right"
    },
    {
      "midi": 67,
      "time": 32.1,
      "duration": 0.15,
      "velocity": 0.49,
      "hand": "right"
    },
    {
      "midi": 70,
      "time": 32.1,
      "duration": 0.075,
      "velocity": 0.7,
      "hand": "right"
    },
    {
      "midi": 35,
      "time": 32.4,
      "duration": 0.075,
      "velocity": 0.56,
      "hand": "left"
    },
    {
      "midi": 36,
      "time": 32.4,
      "duration": 0.6,
      "velocity": 0.8,
      "hand": "left"
    },
    {
      "midi": 42,
      "time": 32.4,
      "duration": 0.075,
      "velocity": 0.65,
      "hand": "left"
    },
    {
      "midi": 51,
      "time": 32.4,
      "duration": 0.075,
      "velocity": 0.57,
      "hand": "left"
    },
    {
      "midi": 57,
      "time": 32.4,
      "duration": 0.6,
      "velocity": 0.53,
      "hand": "left"
    },
    {
      "midi": 57,
      "time": 32.4,
      "duration": 0.9,
      "velocity": 0.54,
      "hand": "left"
    },
    {
      "midi": 62,
      "time": 32.4,
      "duration": 0.6,
      "velocity": 0.55,
      "hand": "right"
    },
    {
      "midi": 62,
      "time": 32.4,
      "duration": 0.9,
      "velocity": 0.46,
      "hand": "right"
    },
    {
      "midi": 64,
      "time": 32.4,
      "duration": 0.75,
      "velocity": 0.72,
      "hand": "right"
    },
    {
      "midi": 67,
      "time": 32.4,
      "duration": 0.6,
      "velocity": 0.54,
      "hand": "right"
    },
    {
      "midi": 67,
      "time": 32.4,
      "duration": 0.9,
      "velocity": 0.5,
      "hand": "right"
    },
    {
      "midi": 70,
      "time": 32.4,
      "duration": 0.075,
      "velocity": 0.72,
      "hand": "right"
    },
    {
      "midi": 38,
      "time": 32.7,
      "duration": 0.075,
      "velocity": 0.54,
      "hand": "left"
    },
    {
      "midi": 42,
      "time": 32.7,
      "duration": 0.075,
      "velocity": 0.58,
      "hand": "left"
    },
    {
      "midi": 51,
      "time": 32.7,
      "duration": 0.075,
      "velocity": 0.54,
      "hand": "left"
    },
    {
      "midi": 54,
      "time": 32.7,
      "duration": 0.075,
      "velocity": 0.56,
      "hand": "left"
    },
    {
      "midi": 57,
      "time": 32.7,
      "duration": 0.075,
      "velocity": 0.57,
      "hand": "left"
    },
    {
      "midi": 62,
      "time": 32.7,
      "duration": 0.075,
      "velocity": 0.72,
      "hand": "right"
    },
    {
      "midi": 67,
      "time": 32.7,
      "duration": 0.15,
      "velocity": 0.56,
      "hand": "right"
    },
    {
      "midi": 31,
      "time": 33,
      "duration": 0.6,
      "velocity": 0.79,
      "hand": "left"
    },
    {
      "midi": 35,
      "time": 33,
      "duration": 0.075,
      "velocity": 0.61,
      "hand": "left"
    },
    {
      "midi": 42,
      "time": 33,
      "duration": 0.075,
      "velocity": 0.55,
      "hand": "left"
    },
    {
      "midi": 51,
      "time": 33,
      "duration": 0.075,
      "velocity": 0.61,
      "hand": "left"
    },
    {
      "midi": 57,
      "time": 33,
      "duration": 0.075,
      "velocity": 0.57,
      "hand": "left"
    },
    {
      "midi": 62,
      "time": 33,
      "duration": 0.075,
      "velocity": 0.61,
      "hand": "right"
    },
    {
      "midi": 67,
      "time": 33,
      "duration": 0.15,
      "velocity": 0.54,
      "hand": "right"
    },
    {
      "midi": 38,
      "time": 33.3,
      "duration": 0.075,
      "velocity": 0.56,
      "hand": "left"
    },
    {
      "midi": 42,
      "time": 33.3,
      "duration": 0.075,
      "velocity": 0.55,
      "hand": "left"
    },
    {
      "midi": 51,
      "time": 33.3,
      "duration": 0.075,
      "velocity": 0.56,
      "hand": "left"
    },
    {
      "midi": 54,
      "time": 33.3,
      "duration": 0.075,
      "velocity": 0.58,
      "hand": "left"
    },
    {
      "midi": 57,
      "time": 33.3,
      "duration": 0.075,
      "velocity": 0.57,
      "hand": "left"
    },
    {
      "midi": 62,
      "time": 33.3,
      "duration": 0.075,
      "velocity": 0.65,
      "hand": "right"
    },
    {
      "midi": 64,
      "time": 33.3,
      "duration": 0.3,
      "velocity": 0.72,
      "hand": "right"
    },
    {
      "midi": 67,
      "time": 33.3,
      "duration": 0.15,
      "velocity": 0.57,
      "hand": "right"
    },
    {
      "midi": 35,
      "time": 33.6,
      "duration": 0.075,
      "velocity": 0.7,
      "hand": "left"
    },
    {
      "midi": 36,
      "time": 33.6,
      "duration": 0.6,
      "velocity": 0.96,
      "hand": "left"
    },
    {
      "midi": 42,
      "time": 33.6,
      "duration": 0.075,
      "velocity": 0.54,
      "hand": "left"
    },
    {
      "midi": 51,
      "time": 33.6,
      "duration": 0.075,
      "velocity": 0.53,
      "hand": "left"
    },
    {
      "midi": 57,
      "time": 33.6,
      "duration": 0.6,
      "velocity": 0.43,
      "hand": "left"
    },
    {
      "midi": 57,
      "time": 33.6,
      "duration": 1.8,
      "velocity": 0.55,
      "hand": "left"
    },
    {
      "midi": 57,
      "time": 33.6,
      "duration": 2.1,
      "velocity": 0.69,
      "hand": "left"
    },
    {
      "midi": 57,
      "time": 33.6,
      "duration": 0.075,
      "velocity": 0.79,
      "hand": "left"
    },
    {
      "midi": 62,
      "time": 33.6,
      "duration": 0.6,
      "velocity": 0.48,
      "hand": "right"
    },
    {
      "midi": 62,
      "time": 33.6,
      "duration": 1.95,
      "velocity": 0.57,
      "hand": "right"
    },
    {
      "midi": 62,
      "time": 33.6,
      "duration": 2.1,
      "velocity": 0.72,
      "hand": "right"
    },
    {
      "midi": 67,
      "time": 33.6,
      "duration": 0.6,
      "velocity": 0.43,
      "hand": "right"
    },
    {
      "midi": 67,
      "time": 33.6,
      "duration": 0.15,
      "velocity": 0.79,
      "hand": "right"
    },
    {
      "midi": 67,
      "time": 33.6,
      "duration": 2.1,
      "velocity": 0.58,
      "hand": "right"
    },
    {
      "midi": 38,
      "time": 33.9,
      "duration": 0.075,
      "velocity": 0.57,
      "hand": "left"
    },
    {
      "midi": 42,
      "time": 33.9,
      "duration": 0.075,
      "velocity": 0.61,
      "hand": "left"
    },
    {
      "midi": 51,
      "time": 33.9,
      "duration": 0.075,
      "velocity": 0.61,
      "hand": "left"
    },
    {
      "midi": 54,
      "time": 33.9,
      "duration": 0.075,
      "velocity": 0.57,
      "hand": "left"
    },
    {
      "midi": 57,
      "time": 33.9,
      "duration": 0.15,
      "velocity": 0.64,
      "hand": "left"
    },
    {
      "midi": 62,
      "time": 33.9,
      "duration": 0.075,
      "velocity": 0.7,
      "hand": "right"
    },
    {
      "midi": 67,
      "time": 33.9,
      "duration": 0.15,
      "velocity": 0.54,
      "hand": "right"
    },
    {
      "midi": 67,
      "time": 33.9,
      "duration": 0.3,
      "velocity": 0.54,
      "hand": "right"
    },
    {
      "midi": 70,
      "time": 33.9,
      "duration": 0.075,
      "velocity": 0.7,
      "hand": "right"
    },
    {
      "midi": 31,
      "time": 34.2,
      "duration": 0.6,
      "velocity": 0.96,
      "hand": "left"
    },
    {
      "midi": 35,
      "time": 34.2,
      "duration": 0.075,
      "velocity": 0.73,
      "hand": "left"
    },
    {
      "midi": 42,
      "time": 34.2,
      "duration": 0.075,
      "velocity": 0.57,
      "hand": "left"
    },
    {
      "midi": 51,
      "time": 34.2,
      "duration": 0.075,
      "velocity": 0.53,
      "hand": "left"
    },
    {
      "midi": 57,
      "time": 34.2,
      "duration": 0.45,
      "velocity": 0.43,
      "hand": "left"
    },
    {
      "midi": 62,
      "time": 34.2,
      "duration": 0.45,
      "velocity": 0.49,
      "hand": "right"
    },
    {
      "midi": 64,
      "time": 34.2,
      "duration": 0.3,
      "velocity": 0.59,
      "hand": "right"
    },
    {
      "midi": 67,
      "time": 34.2,
      "duration": 0.45,
      "velocity": 0.49,
      "hand": "right"
    },
    {
      "midi": 70,
      "time": 34.2,
      "duration": 0.075,
      "velocity": 0.63,
      "hand": "right"
    },
    {
      "midi": 38,
      "time": 34.5,
      "duration": 0.075,
      "velocity": 0.55,
      "hand": "left"
    },
    {
      "midi": 42,
      "time": 34.5,
      "duration": 0.075,
      "velocity": 0.56,
      "hand": "left"
    },
    {
      "midi": 51,
      "time": 34.5,
      "duration": 0.075,
      "velocity": 0.57,
      "hand": "left"
    },
    {
      "midi": 54,
      "time": 34.5,
      "duration": 0.075,
      "velocity": 0.5,
      "hand": "left"
    },
    {
      "midi": 57,
      "time": 34.5,
      "duration": 0.075,
      "velocity": 0.64,
      "hand": "left"
    },
    {
      "midi": 62,
      "time": 34.5,
      "duration": 0.075,
      "velocity": 0.72,
      "hand": "right"
    },
    {
      "midi": 65,
      "time": 34.5,
      "duration": 0.3,
      "velocity": 0.61,
      "hand": "right"
    },
    {
      "midi": 67,
      "time": 34.5,
      "duration": 0.075,
      "velocity": 0.56,
      "hand": "right"
    },
    {
      "midi": 70,
      "time": 34.5,
      "duration": 0.075,
      "velocity": 0.56,
      "hand": "right"
    },
    {
      "midi": 35,
      "time": 34.8,
      "duration": 0.075,
      "velocity": 0.72,
      "hand": "left"
    },
    {
      "midi": 36,
      "time": 34.8,
      "duration": 0.6,
      "velocity": 0.96,
      "hand": "left"
    },
    {
      "midi": 42,
      "time": 34.8,
      "duration": 0.075,
      "velocity": 0.54,
      "hand": "left"
    },
    {
      "midi": 51,
      "time": 34.8,
      "duration": 0.075,
      "velocity": 0.46,
      "hand": "left"
    },
    {
      "midi": 57,
      "time": 34.8,
      "duration": 0.6,
      "velocity": 0.56,
      "hand": "left"
    },
    {
      "midi": 62,
      "time": 34.8,
      "duration": 0.6,
      "velocity": 0.59,
      "hand": "right"
    },
    {
      "midi": 67,
      "time": 34.8,
      "duration": 0.6,
      "velocity": 0.61,
      "hand": "right"
    },
    {
      "midi": 67,
      "time": 34.8,
      "duration": 0.3,
      "velocity": 0.54,
      "hand": "right"
    },
    {
      "midi": 70,
      "time": 34.8,
      "duration": 0.075,
      "velocity": 0.73,
      "hand": "right"
    },
    {
      "midi": 38,
      "time": 35.1,
      "duration": 0.075,
      "velocity": 0.56,
      "hand": "left"
    },
    {
      "midi": 42,
      "time": 35.1,
      "duration": 0.075,
      "velocity": 0.46,
      "hand": "left"
    },
    {
      "midi": 51,
      "time": 35.1,
      "duration": 0.075,
      "velocity": 0.52,
      "hand": "left"
    },
    {
      "midi": 54,
      "time": 35.1,
      "duration": 0.075,
      "velocity": 0.56,
      "hand": "left"
    },
    {
      "midi": 57,
      "time": 35.1,
      "duration": 0.15,
      "velocity": 0.72,
      "hand": "left"
    },
    {
      "midi": 62,
      "time": 35.1,
      "duration": 0.075,
      "velocity": 0.72,
      "hand": "right"
    },
    {
      "midi": 67,
      "time": 35.1,
      "duration": 0.075,
      "velocity": 0.57,
      "hand": "right"
    },
    {
      "midi": 67,
      "time": 35.1,
      "duration": 0.15,
      "velocity": 0.72,
      "hand": "right"
    },
    {
      "midi": 31,
      "time": 35.4,
      "duration": 0.6,
      "velocity": 0.96,
      "hand": "left"
    },
    {
      "midi": 35,
      "time": 35.4,
      "duration": 0.075,
      "velocity": 0.7,
      "hand": "left"
    },
    {
      "midi": 42,
      "time": 35.4,
      "duration": 0.075,
      "velocity": 0.5,
      "hand": "left"
    },
    {
      "midi": 51,
      "time": 35.4,
      "duration": 0.075,
      "velocity": 0.54,
      "hand": "left"
    },
    {
      "midi": 57,
      "time": 35.4,
      "duration": 0.15,
      "velocity": 0.5,
      "hand": "left"
    },
    {
      "midi": 62,
      "time": 35.4,
      "duration": 0.15,
      "velocity": 0.52,
      "hand": "right"
    },
    {
      "midi": 67,
      "time": 35.4,
      "duration": 0.15,
      "velocity": 0.5,
      "hand": "right"
    },
    {
      "midi": 38,
      "time": 35.7,
      "duration": 0.075,
      "velocity": 0.53,
      "hand": "left"
    },
    {
      "midi": 42,
      "time": 35.7,
      "duration": 0.075,
      "velocity": 0.54,
      "hand": "left"
    },
    {
      "midi": 51,
      "time": 35.7,
      "duration": 0.075,
      "velocity": 0.54,
      "hand": "left"
    },
    {
      "midi": 54,
      "time": 35.7,
      "duration": 0.075,
      "velocity": 0.57,
      "hand": "left"
    },
    {
      "midi": 57,
      "time": 35.7,
      "duration": 0.15,
      "velocity": 0.51,
      "hand": "left"
    },
    {
      "midi": 62,
      "time": 35.7,
      "duration": 0.075,
      "velocity": 0.57,
      "hand": "right"
    },
    {
      "midi": 67,
      "time": 35.7,
      "duration": 0.15,
      "velocity": 0.51,
      "hand": "right"
    },
    {
      "midi": 35,
      "time": 36,
      "duration": 0.075,
      "velocity": 0.69,
      "hand": "left"
    },
    {
      "midi": 40,
      "time": 36,
      "duration": 0.6,
      "velocity": 0.96,
      "hand": "left"
    },
    {
      "midi": 42,
      "time": 36,
      "duration": 0.075,
      "velocity": 0.54,
      "hand": "left"
    },
    {
      "midi": 51,
      "time": 36,
      "duration": 0.075,
      "velocity": 0.51,
      "hand": "left"
    },
    {
      "midi": 59,
      "time": 36,
      "duration": 0.15,
      "velocity": 0.61,
      "hand": "left"
    },
    {
      "midi": 59,
      "time": 36,
      "duration": 0.3,
      "velocity": 0.57,
      "hand": "left"
    },
    {
      "midi": 62,
      "time": 36,
      "duration": 0.15,
      "velocity": 0.57,
      "hand": "right"
    },
    {
      "midi": 62,
      "time": 36,
      "duration": 0.3,
      "velocity": 0.57,
      "hand": "right"
    },
    {
      "midi": 64,
      "time": 36,
      "duration": 0.15,
      "velocity": 0.63,
      "hand": "right"
    },
    {
      "midi": 64,
      "time": 36,
      "duration": 0.3,
      "velocity": 0.59,
      "hand": "right"
    },
    {
      "midi": 67,
      "time": 36,
      "duration": 0.15,
      "velocity": 0.54,
      "hand": "right"
    },
    {
      "midi": 67,
      "time": 36,
      "duration": 0.3,
      "velocity": 0.54,
      "hand": "right"
    },
    {
      "midi": 69,
      "time": 36,
      "duration": 0.3,
      "velocity": 0.72,
      "hand": "right"
    },
    {
      "midi": 38,
      "time": 36.3,
      "duration": 0.075,
      "velocity": 0.54,
      "hand": "left"
    },
    {
      "midi": 42,
      "time": 36.3,
      "duration": 0.075,
      "velocity": 0.57,
      "hand": "left"
    },
    {
      "midi": 51,
      "time": 36.3,
      "duration": 0.075,
      "velocity": 0.55,
      "hand": "left"
    },
    {
      "midi": 54,
      "time": 36.3,
      "duration": 0.075,
      "velocity": 0.54,
      "hand": "left"
    },
    {
      "midi": 59,
      "time": 36.3,
      "duration": 0.15,
      "velocity": 0.59,
      "hand": "left"
    },
    {
      "midi": 62,
      "time": 36.3,
      "duration": 0.15,
      "velocity": 0.57,
      "hand": "right"
    },
    {
      "midi": 62,
      "time": 36.3,
      "duration": 0.075,
      "velocity": 0.57,
      "hand": "right"
    },
    {
      "midi": 64,
      "time": 36.3,
      "duration": 0.15,
      "velocity": 0.61,
      "hand": "right"
    },
    {
      "midi": 67,
      "time": 36.3,
      "duration": 0.15,
      "velocity": 0.57,
      "hand": "right"
    },
    {
      "midi": 67,
      "time": 36.3,
      "duration": 0.3,
      "velocity": 0.65,
      "hand": "right"
    },
    {
      "midi": 70,
      "time": 36.3,
      "duration": 0.075,
      "velocity": 0.72,
      "hand": "right"
    },
    {
      "midi": 35,
      "time": 36.6,
      "duration": 0.075,
      "velocity": 0.56,
      "hand": "left"
    },
    {
      "midi": 39,
      "time": 36.6,
      "duration": 0.45,
      "velocity": 0.96,
      "hand": "left"
    },
    {
      "midi": 42,
      "time": 36.6,
      "duration": 0.075,
      "velocity": 0.57,
      "hand": "left"
    },
    {
      "midi": 51,
      "time": 36.6,
      "duration": 0.075,
      "velocity": 0.5,
      "hand": "left"
    },
    {
      "midi": 58,
      "time": 36.6,
      "duration": 0.3,
      "velocity": 0.72,
      "hand": "left"
    },
    {
      "midi": 58,
      "time": 36.6,
      "duration": 0.15,
      "velocity": 0.61,
      "hand": "left"
    },
    {
      "midi": 58,
      "time": 36.6,
      "duration": 0.45,
      "velocity": 0.57,
      "hand": "left"
    },
    {
      "midi": 61,
      "time": 36.6,
      "duration": 0.3,
      "velocity": 0.61,
      "hand": "right"
    },
    {
      "midi": 61,
      "time": 36.6,
      "duration": 0.15,
      "velocity": 0.56,
      "hand": "right"
    },
    {
      "midi": 61,
      "time": 36.6,
      "duration": 0.45,
      "velocity": 0.58,
      "hand": "right"
    },
    {
      "midi": 63,
      "time": 36.6,
      "duration": 0.3,
      "velocity": 0.58,
      "hand": "right"
    },
    {
      "midi": 63,
      "time": 36.6,
      "duration": 0.15,
      "velocity": 0.57,
      "hand": "right"
    },
    {
      "midi": 63,
      "time": 36.6,
      "duration": 0.45,
      "velocity": 0.58,
      "hand": "right"
    },
    {
      "midi": 65,
      "time": 36.6,
      "duration": 0.3,
      "velocity": 0.58,
      "hand": "right"
    },
    {
      "midi": 66,
      "time": 36.6,
      "duration": 0.45,
      "velocity": 0.56,
      "hand": "right"
    },
    {
      "midi": 68,
      "time": 36.6,
      "duration": 0.3,
      "velocity": 0.61,
      "hand": "right"
    },
    {
      "midi": 68,
      "time": 36.6,
      "duration": 0.15,
      "velocity": 0.54,
      "hand": "right"
    },
    {
      "midi": 68,
      "time": 36.6,
      "duration": 0.45,
      "velocity": 0.54,
      "hand": "right"
    },
    {
      "midi": 70,
      "time": 36.6,
      "duration": 0.075,
      "velocity": 0.69,
      "hand": "right"
    },
    {
      "midi": 38,
      "time": 36.9,
      "duration": 0.075,
      "velocity": 0.55,
      "hand": "left"
    },
    {
      "midi": 42,
      "time": 36.9,
      "duration": 0.075,
      "velocity": 0.54,
      "hand": "left"
    },
    {
      "midi": 51,
      "time": 36.9,
      "duration": 0.075,
      "velocity": 0.54,
      "hand": "left"
    },
    {
      "midi": 54,
      "time": 36.9,
      "duration": 0.075,
      "velocity": 0.64,
      "hand": "left"
    },
    {
      "midi": 58,
      "time": 36.9,
      "duration": 0.15,
      "velocity": 0.65,
      "hand": "left"
    },
    {
      "midi": 61,
      "time": 36.9,
      "duration": 0.15,
      "velocity": 0.69,
      "hand": "right"
    },
    {
      "midi": 63,
      "time": 36.9,
      "duration": 0.15,
      "velocity": 0.69,
      "hand": "right"
    },
    {
      "midi": 64,
      "time": 36.9,
      "duration": 0.15,
      "velocity": 0.64,
      "hand": "right"
    },
    {
      "midi": 68,
      "time": 36.9,
      "duration": 0.15,
      "velocity": 0.57,
      "hand": "right"
    },
    {
      "midi": 70,
      "time": 36.9,
      "duration": 0.075,
      "velocity": 0.7,
      "hand": "right"
    },
    {
      "midi": 35,
      "time": 37.2,
      "duration": 0.075,
      "velocity": 0.56,
      "hand": "left"
    },
    {
      "midi": 38,
      "time": 37.2,
      "duration": 0.6,
      "velocity": 0.87,
      "hand": "left"
    },
    {
      "midi": 42,
      "time": 37.2,
      "duration": 0.075,
      "velocity": 0.65,
      "hand": "left"
    },
    {
      "midi": 51,
      "time": 37.2,
      "duration": 0.075,
      "velocity": 0.57,
      "hand": "left"
    },
    {
      "midi": 57,
      "time": 37.2,
      "duration": 0.6,
      "velocity": 0.51,
      "hand": "left"
    },
    {
      "midi": 57,
      "time": 37.2,
      "duration": 2.25,
      "velocity": 0.5,
      "hand": "left"
    },
    {
      "midi": 57,
      "time": 37.2,
      "duration": 1.05,
      "velocity": 0.64,
      "hand": "left"
    },
    {
      "midi": 60,
      "time": 37.2,
      "duration": 0.45,
      "velocity": 0.52,
      "hand": "right"
    },
    {
      "midi": 60,
      "time": 37.2,
      "duration": 2.25,
      "velocity": 0.49,
      "hand": "right"
    },
    {
      "midi": 60,
      "time": 37.2,
      "duration": 1.05,
      "velocity": 0.61,
      "hand": "right"
    },
    {
      "midi": 62,
      "time": 37.2,
      "duration": 0.75,
      "velocity": 0.61,
      "hand": "right"
    },
    {
      "midi": 62,
      "time": 37.2,
      "duration": 3.3,
      "velocity": 0.49,
      "hand": "right"
    },
    {
      "midi": 62,
      "time": 37.2,
      "duration": 1.05,
      "velocity": 0.57,
      "hand": "right"
    },
    {
      "midi": 64,
      "time": 37.2,
      "duration": 0.6,
      "velocity": 0.5,
      "hand": "right"
    },
    {
      "midi": 65,
      "time": 37.2,
      "duration": 3.3,
      "velocity": 0.45,
      "hand": "right"
    },
    {
      "midi": 65,
      "time": 37.2,
      "duration": 1.05,
      "velocity": 0.58,
      "hand": "right"
    },
    {
      "midi": 67,
      "time": 37.2,
      "duration": 0.45,
      "velocity": 0.5,
      "hand": "right"
    },
    {
      "midi": 70,
      "time": 37.2,
      "duration": 0.075,
      "velocity": 0.72,
      "hand": "right"
    },
    {
      "midi": 38,
      "time": 37.5,
      "duration": 0.075,
      "velocity": 0.54,
      "hand": "left"
    },
    {
      "midi": 42,
      "time": 37.5,
      "duration": 0.075,
      "velocity": 0.58,
      "hand": "left"
    },
    {
      "midi": 51,
      "time": 37.5,
      "duration": 0.075,
      "velocity": 0.54,
      "hand": "left"
    },
    {
      "midi": 54,
      "time": 37.5,
      "duration": 0.075,
      "velocity": 0.56,
      "hand": "left"
    },
    {
      "midi": 57,
      "time": 37.5,
      "duration": 0.075,
      "velocity": 0.54,
      "hand": "left"
    },
    {
      "midi": 60,
      "time": 37.5,
      "duration": 0.075,
      "velocity": 0.61,
      "hand": "right"
    },
    {
      "midi": 64,
      "time": 37.5,
      "duration": 0.075,
      "velocity": 0.57,
      "hand": "right"
    },
    {
      "midi": 67,
      "time": 37.5,
      "duration": 0.075,
      "velocity": 0.5,
      "hand": "right"
    },
    {
      "midi": 33,
      "time": 37.8,
      "duration": 0.45,
      "velocity": 0.87,
      "hand": "left"
    },
    {
      "midi": 35,
      "time": 37.8,
      "duration": 0.075,
      "velocity": 0.61,
      "hand": "left"
    },
    {
      "midi": 42,
      "time": 37.8,
      "duration": 0.075,
      "velocity": 0.55,
      "hand": "left"
    },
    {
      "midi": 51,
      "time": 37.8,
      "duration": 0.075,
      "velocity": 0.61,
      "hand": "left"
    },
    {
      "midi": 57,
      "time": 37.8,
      "duration": 0.15,
      "velocity": 0.5,
      "hand": "left"
    },
    {
      "midi": 60,
      "time": 37.8,
      "duration": 0.15,
      "velocity": 0.51,
      "hand": "right"
    },
    {
      "midi": 64,
      "time": 37.8,
      "duration": 0.15,
      "velocity": 0.49,
      "hand": "right"
    },
    {
      "midi": 67,
      "time": 37.8,
      "duration": 0.15,
      "velocity": 0.39,
      "hand": "right"
    },
    {
      "midi": 38,
      "time": 38.1,
      "duration": 0.075,
      "velocity": 0.56,
      "hand": "left"
    },
    {
      "midi": 42,
      "time": 38.1,
      "duration": 0.075,
      "velocity": 0.55,
      "hand": "left"
    },
    {
      "midi": 51,
      "time": 38.1,
      "duration": 0.075,
      "velocity": 0.56,
      "hand": "left"
    },
    {
      "midi": 54,
      "time": 38.1,
      "duration": 0.075,
      "velocity": 0.58,
      "hand": "left"
    },
    {
      "midi": 57,
      "time": 38.1,
      "duration": 0.075,
      "velocity": 0.65,
      "hand": "left"
    },
    {
      "midi": 60,
      "time": 38.1,
      "duration": 0.075,
      "velocity": 0.72,
      "hand": "right"
    },
    {
      "midi": 64,
      "time": 38.1,
      "duration": 0.075,
      "velocity": 0.59,
      "hand": "right"
    },
    {
      "midi": 67,
      "time": 38.1,
      "duration": 0.15,
      "velocity": 0.55,
      "hand": "right"
    },
    {
      "midi": 69,
      "time": 38.1,
      "duration": 0.15,
      "velocity": 0.72,
      "hand": "right"
    },
    {
      "midi": 35,
      "time": 38.4,
      "duration": 0.075,
      "velocity": 0.7,
      "hand": "left"
    },
    {
      "midi": 38,
      "time": 38.4,
      "duration": 0.6,
      "velocity": 0.84,
      "hand": "left"
    },
    {
      "midi": 42,
      "time": 38.4,
      "duration": 0.075,
      "velocity": 0.54,
      "hand": "left"
    },
    {
      "midi": 51,
      "time": 38.4,
      "duration": 0.075,
      "velocity": 0.53,
      "hand": "left"
    },
    {
      "midi": 57,
      "time": 38.4,
      "duration": 0.15,
      "velocity": 0.51,
      "hand": "left"
    },
    {
      "midi": 57,
      "time": 38.4,
      "duration": 1.05,
      "velocity": 0.73,
      "hand": "left"
    },
    {
      "midi": 60,
      "time": 38.4,
      "duration": 0.075,
      "velocity": 0.54,
      "hand": "right"
    },
    {
      "midi": 60,
      "time": 38.4,
      "duration": 0.9,
      "velocity": 0.73,
      "hand": "right"
    },
    {
      "midi": 62,
      "time": 38.4,
      "duration": 1.05,
      "velocity": 0.69,
      "hand": "right"
    },
    {
      "midi": 64,
      "time": 38.4,
      "duration": 0.15,
      "velocity": 0.55,
      "hand": "right"
    },
    {
      "midi": 65,
      "time": 38.4,
      "duration": 1.05,
      "velocity": 0.61,
      "hand": "right"
    },
    {
      "midi": 67,
      "time": 38.4,
      "duration": 0.15,
      "velocity": 0.5,
      "hand": "right"
    },
    {
      "midi": 69,
      "time": 38.4,
      "duration": 0.15,
      "velocity": 0.59,
      "hand": "right"
    },
    {
      "midi": 57,
      "time": 38.55,
      "duration": 0.15,
      "velocity": 0.48,
      "hand": "left"
    },
    {
      "midi": 60,
      "time": 38.55,
      "duration": 0.075,
      "velocity": 0.53,
      "hand": "right"
    },
    {
      "midi": 64,
      "time": 38.55,
      "duration": 0.15,
      "velocity": 0.44,
      "hand": "right"
    },
    {
      "midi": 67,
      "time": 38.55,
      "duration": 0.075,
      "velocity": 0.31,
      "hand": "right"
    },
    {
      "midi": 38,
      "time": 38.7,
      "duration": 0.075,
      "velocity": 0.57,
      "hand": "left"
    },
    {
      "midi": 42,
      "time": 38.7,
      "duration": 0.075,
      "velocity": 0.61,
      "hand": "left"
    },
    {
      "midi": 51,
      "time": 38.7,
      "duration": 0.075,
      "velocity": 0.61,
      "hand": "left"
    },
    {
      "midi": 54,
      "time": 38.7,
      "duration": 0.075,
      "velocity": 0.57,
      "hand": "left"
    },
    {
      "midi": 57,
      "time": 38.7,
      "duration": 0.075,
      "velocity": 0.58,
      "hand": "left"
    },
    {
      "midi": 60,
      "time": 38.7,
      "duration": 0.075,
      "velocity": 0.72,
      "hand": "right"
    },
    {
      "midi": 64,
      "time": 38.7,
      "duration": 0.075,
      "velocity": 0.57,
      "hand": "right"
    },
    {
      "midi": 67,
      "time": 38.7,
      "duration": 0.075,
      "velocity": 0.52,
      "hand": "right"
    },
    {
      "midi": 69,
      "time": 38.7,
      "duration": 0.3,
      "velocity": 0.57,
      "hand": "right"
    },
    {
      "midi": 70,
      "time": 38.7,
      "duration": 0.075,
      "velocity": 0.7,
      "hand": "right"
    },
    {
      "midi": 33,
      "time": 39,
      "duration": 0.45,
      "velocity": 0.97,
      "hand": "left"
    },
    {
      "midi": 35,
      "time": 39,
      "duration": 0.075,
      "velocity": 0.73,
      "hand": "left"
    },
    {
      "midi": 42,
      "time": 39,
      "duration": 0.075,
      "velocity": 0.57,
      "hand": "left"
    },
    {
      "midi": 51,
      "time": 39,
      "duration": 0.075,
      "velocity": 0.53,
      "hand": "left"
    },
    {
      "midi": 57,
      "time": 39,
      "duration": 0.15,
      "velocity": 0.63,
      "hand": "left"
    },
    {
      "midi": 60,
      "time": 39,
      "duration": 0.15,
      "velocity": 0.68,
      "hand": "right"
    },
    {
      "midi": 64,
      "time": 39,
      "duration": 0.15,
      "velocity": 0.61,
      "hand": "right"
    },
    {
      "midi": 67,
      "time": 39,
      "duration": 0.15,
      "velocity": 0.51,
      "hand": "right"
    },
    {
      "midi": 70,
      "time": 39,
      "duration": 0.075,
      "velocity": 0.63,
      "hand": "right"
    },
    {
      "midi": 71,
      "time": 39,
      "duration": 0.3,
      "velocity": 0.57,
      "hand": "right"
    },
    {
      "midi": 38,
      "time": 39.3,
      "duration": 0.075,
      "velocity": 0.55,
      "hand": "left"
    },
    {
      "midi": 42,
      "time": 39.3,
      "duration": 0.075,
      "velocity": 0.56,
      "hand": "left"
    },
    {
      "midi": 51,
      "time": 39.3,
      "duration": 0.075,
      "velocity": 0.57,
      "hand": "left"
    },
    {
      "midi": 54,
      "time": 39.3,
      "duration": 0.075,
      "velocity": 0.5,
      "hand": "left"
    },
    {
      "midi": 57,
      "time": 39.3,
      "duration": 0.15,
      "velocity": 0.59,
      "hand": "left"
    },
    {
      "midi": 60,
      "time": 39.3,
      "duration": 0.075,
      "velocity": 0.68,
      "hand": "right"
    },
    {
      "midi": 64,
      "time": 39.3,
      "duration": 0.15,
      "velocity": 0.61,
      "hand": "right"
    },
    {
      "midi": 67,
      "time": 39.3,
      "duration": 0.15,
      "velocity": 0.56,
      "hand": "right"
    },
    {
      "midi": 69,
      "time": 39.3,
      "duration": 0.3,
      "velocity": 0.54,
      "hand": "right"
    },
    {
      "midi": 70,
      "time": 39.3,
      "duration": 0.075,
      "velocity": 0.56,
      "hand": "right"
    },
    {
      "midi": 35,
      "time": 39.6,
      "duration": 0.075,
      "velocity": 0.72,
      "hand": "left"
    },
    {
      "midi": 38,
      "time": 39.6,
      "duration": 0.6,
      "velocity": 0.98,
      "hand": "left"
    },
    {
      "midi": 42,
      "time": 39.6,
      "duration": 0.075,
      "velocity": 0.54,
      "hand": "left"
    },
    {
      "midi": 51,
      "time": 39.6,
      "duration": 0.075,
      "velocity": 0.46,
      "hand": "left"
    },
    {
      "midi": 53,
      "time": 39.6,
      "duration": 0.45,
      "velocity": 0.57,
      "hand": "left"
    },
    {
      "midi": 55,
      "time": 39.6,
      "duration": 0.75,
      "velocity": 0.55,
      "hand": "left"
    },
    {
      "midi": 55,
      "time": 39.6,
      "duration": 0.6,
      "velocity": 0.65,
      "hand": "left"
    },
    {
      "midi": 57,
      "time": 39.6,
      "duration": 0.45,
      "velocity": 0.56,
      "hand": "left"
    },
    {
      "midi": 59,
      "time": 39.6,
      "duration": 0.45,
      "velocity": 0.56,
      "hand": "left"
    },
    {
      "midi": 59,
      "time": 39.6,
      "duration": 0.75,
      "velocity": 0.53,
      "hand": "left"
    },
    {
      "midi": 59,
      "time": 39.6,
      "duration": 0.6,
      "velocity": 0.68,
      "hand": "left"
    },
    {
      "midi": 62,
      "time": 39.6,
      "duration": 0.75,
      "velocity": 0.58,
      "hand": "right"
    },
    {
      "midi": 64,
      "time": 39.6,
      "duration": 0.45,
      "velocity": 0.54,
      "hand": "right"
    },
    {
      "midi": 65,
      "time": 39.6,
      "duration": 0.75,
      "velocity": 0.56,
      "hand": "right"
    },
    {
      "midi": 67,
      "time": 39.6,
      "duration": 0.15,
      "velocity": 0.64,
      "hand": "right"
    },
    {
      "midi": 70,
      "time": 39.6,
      "duration": 0.075,
      "velocity": 0.73,
      "hand": "right"
    },
    {
      "midi": 38,
      "time": 39.9,
      "duration": 0.075,
      "velocity": 0.56,
      "hand": "left"
    },
    {
      "midi": 42,
      "time": 39.9,
      "duration": 0.075,
      "velocity": 0.46,
      "hand": "left"
    },
    {
      "midi": 51,
      "time": 39.9,
      "duration": 0.075,
      "velocity": 0.52,
      "hand": "left"
    },
    {
      "midi": 54,
      "time": 39.9,
      "duration": 0.075,
      "velocity": 0.56,
      "hand": "left"
    },
    {
      "midi": 59,
      "time": 39.9,
      "duration": 0.075,
      "velocity": 0.61,
      "hand": "left"
    },
    {
      "midi": 62,
      "time": 39.9,
      "duration": 0.075,
      "velocity": 0.68,
      "hand": "right"
    },
    {
      "midi": 64,
      "time": 39.9,
      "duration": 0.075,
      "velocity": 0.69,
      "hand": "right"
    },
    {
      "midi": 67,
      "time": 39.9,
      "duration": 0.3,
      "velocity": 0.52,
      "hand": "right"
    },
    {
      "midi": 69,
      "time": 39.9,
      "duration": 0.15,
      "velocity": 0.63,
      "hand": "right"
    },
    {
      "midi": 35,
      "time": 40.2,
      "duration": 0.075,
      "velocity": 0.7,
      "hand": "left"
    },
    {
      "midi": 38,
      "time": 40.2,
      "duration": 0.6,
      "velocity": 0.94,
      "hand": "left"
    },
    {
      "midi": 42,
      "time": 40.2,
      "duration": 0.075,
      "velocity": 0.5,
      "hand": "left"
    },
    {
      "midi": 51,
      "time": 40.2,
      "duration": 0.075,
      "velocity": 0.54,
      "hand": "left"
    },
    {
      "midi": 53,
      "time": 40.2,
      "duration": 0.15,
      "velocity": 0.63,
      "hand": "left"
    },
    {
      "midi": 57,
      "time": 40.2,
      "duration": 0.15,
      "velocity": 0.56,
      "hand": "left"
    },
    {
      "midi": 59,
      "time": 40.2,
      "duration": 0.15,
      "velocity": 0.57,
      "hand": "left"
    },
    {
      "midi": 64,
      "time": 40.2,
      "duration": 0.15,
      "velocity": 0.56,
      "hand": "right"
    },
    {
      "midi": 64,
      "time": 40.2,
      "duration": 0.3,
      "velocity": 0.63,
      "hand": "right"
    },
    {
      "midi": 38,
      "time": 40.5,
      "duration": 0.075,
      "velocity": 0.53,
      "hand": "left"
    },
    {
      "midi": 42,
      "time": 40.5,
      "duration": 0.075,
      "velocity": 0.54,
      "hand": "left"
    },
    {
      "midi": 51,
      "time": 40.5,
      "duration": 0.075,
      "velocity": 0.54,
      "hand": "left"
    },
    {
      "midi": 54,
      "time": 40.5,
      "duration": 0.075,
      "velocity": 0.57,
      "hand": "left"
    },
    {
      "midi": 59,
      "time": 40.5,
      "duration": 0.075,
      "velocity": 0.7,
      "hand": "left"
    },
    {
      "midi": 62,
      "time": 40.5,
      "duration": 0.075,
      "velocity": 0.72,
      "hand": "right"
    },
    {
      "midi": 64,
      "time": 40.5,
      "duration": 0.075,
      "velocity": 0.58,
      "hand": "right"
    },
    {
      "midi": 65,
      "time": 40.5,
      "duration": 0.075,
      "velocity": 0.35,
      "hand": "right"
    },
    {
      "midi": 67,
      "time": 40.5,
      "duration": 0.15,
      "velocity": 0.54,
      "hand": "right"
    },
    {
      "midi": 69,
      "time": 40.5,
      "duration": 0.15,
      "velocity": 0.68,
      "hand": "right"
    },
    {
      "midi": 35,
      "time": 40.8,
      "duration": 0.075,
      "velocity": 0.69,
      "hand": "left"
    },
    {
      "midi": 37,
      "time": 40.8,
      "duration": 0.45,
      "velocity": 0.94,
      "hand": "left"
    },
    {
      "midi": 42,
      "time": 40.8,
      "duration": 0.075,
      "velocity": 0.54,
      "hand": "left"
    },
    {
      "midi": 51,
      "time": 40.8,
      "duration": 0.075,
      "velocity": 0.51,
      "hand": "left"
    },
    {
      "midi": 56,
      "time": 40.8,
      "duration": 0.45,
      "velocity": 0.57,
      "hand": "left"
    },
    {
      "midi": 57,
      "time": 40.8,
      "duration": 0.15,
      "velocity": 0.57,
      "hand": "left"
    },
    {
      "midi": 57,
      "time": 40.8,
      "duration": 0.45,
      "velocity": 0.54,
      "hand": "left"
    },
    {
      "midi": 60,
      "time": 40.8,
      "duration": 0.15,
      "velocity": 0.58,
      "hand": "right"
    },
    {
      "midi": 60,
      "time": 40.8,
      "duration": 0.3,
      "velocity": 0.58,
      "hand": "right"
    },
    {
      "midi": 60,
      "time": 40.8,
      "duration": 0.45,
      "velocity": 0.56,
      "hand": "right"
    },
    {
      "midi": 62,
      "time": 40.8,
      "duration": 0.3,
      "velocity": 0.57,
      "hand": "right"
    },
    {
      "midi": 62,
      "time": 40.8,
      "duration": 0.45,
      "velocity": 0.5,
      "hand": "right"
    },
    {
      "midi": 64,
      "time": 40.8,
      "duration": 0.15,
      "velocity": 0.54,
      "hand": "right"
    },
    {
      "midi": 65,
      "time": 40.8,
      "duration": 0.15,
      "velocity": 0.65,
      "hand": "right"
    },
    {
      "midi": 65,
      "time": 40.8,
      "duration": 0.3,
      "velocity": 0.55,
      "hand": "right"
    },
    {
      "midi": 65,
      "time": 40.8,
      "duration": 0.45,
      "velocity": 0.47,
      "hand": "right"
    },
    {
      "midi": 67,
      "time": 40.8,
      "duration": 0.15,
      "velocity": 0.5,
      "hand": "right"
    },
    {
      "midi": 38,
      "time": 41.1,
      "duration": 0.075,
      "velocity": 0.54,
      "hand": "left"
    },
    {
      "midi": 42,
      "time": 41.1,
      "duration": 0.075,
      "velocity": 0.57,
      "hand": "left"
    },
    {
      "midi": 51,
      "time": 41.1,
      "duration": 0.075,
      "velocity": 0.55,
      "hand": "left"
    },
    {
      "midi": 54,
      "time": 41.1,
      "duration": 0.075,
      "velocity": 0.54,
      "hand": "left"
    },
    {
      "midi": 57,
      "time": 41.1,
      "duration": 0.15,
      "velocity": 0.54,
      "hand": "left"
    },
    {
      "midi": 57,
      "time": 41.1,
      "duration": 0.075,
      "velocity": 0.64,
      "hand": "left"
    },
    {
      "midi": 60,
      "time": 41.1,
      "duration": 0.15,
      "velocity": 0.53,
      "hand": "right"
    },
    {
      "midi": 60,
      "time": 41.1,
      "duration": 0.075,
      "velocity": 0.7,
      "hand": "right"
    },
    {
      "midi": 64,
      "time": 41.1,
      "duration": 0.15,
      "velocity": 0.52,
      "hand": "right"
    },
    {
      "midi": 64,
      "time": 41.1,
      "duration": 0.075,
      "velocity": 0.54,
      "hand": "right"
    },
    {
      "midi": 65,
      "time": 41.1,
      "duration": 0.075,
      "velocity": 0.51,
      "hand": "right"
    },
    {
      "midi": 65,
      "time": 41.1,
      "duration": 0.3,
      "velocity": 0.54,
      "hand": "right"
    },
    {
      "midi": 67,
      "time": 41.1,
      "duration": 0.15,
      "velocity": 0.39,
      "hand": "right"
    },
    {
      "midi": 67,
      "time": 41.1,
      "duration": 0.075,
      "velocity": 0.61,
      "hand": "right"
    },
    {
      "midi": 70,
      "time": 41.1,
      "duration": 0.075,
      "velocity": 0.72,
      "hand": "right"
    },
    {
      "midi": 35,
      "time": 41.4,
      "duration": 0.075,
      "velocity": 0.56,
      "hand": "left"
    },
    {
      "midi": 37,
      "time": 41.4,
      "duration": 0.6,
      "velocity": 0.98,
      "hand": "left"
    },
    {
      "midi": 42,
      "time": 41.4,
      "duration": 0.075,
      "velocity": 0.57,
      "hand": "left"
    },
    {
      "midi": 51,
      "time": 41.4,
      "duration": 0.075,
      "velocity": 0.5,
      "hand": "left"
    },
    {
      "midi": 55,
      "time": 41.4,
      "duration": 0.3,
      "velocity": 0.54,
      "hand": "left"
    },
    {
      "midi": 56,
      "time": 41.4,
      "duration": 0.15,
      "velocity": 0.55,
      "hand": "left"
    },
    {
      "midi": 56,
      "time": 41.4,
      "duration": 0.45,
      "velocity": 0.46,
      "hand": "left"
    },
    {
      "midi": 59,
      "time": 41.4,
      "duration": 0.15,
      "velocity": 0.55,
      "hand": "left"
    },
    {
      "midi": 59,
      "time": 41.4,
      "duration": 0.3,
      "velocity": 0.52,
      "hand": "left"
    },
    {
      "midi": 62,
      "time": 41.4,
      "duration": 0.3,
      "velocity": 0.51,
      "hand": "right"
    },
    {
      "midi": 63,
      "time": 41.4,
      "duration": 0.15,
      "velocity": 0.51,
      "hand": "right"
    },
    {
      "midi": 63,
      "time": 41.4,
      "duration": 0.45,
      "velocity": 0.54,
      "hand": "right"
    },
    {
      "midi": 64,
      "time": 41.4,
      "duration": 0.3,
      "velocity": 0.61,
      "hand": "right"
    },
    {
      "midi": 65,
      "time": 41.4,
      "duration": 0.3,
      "velocity": 0.47,
      "hand": "right"
    },
    {
      "midi": 67,
      "time": 41.4,
      "duration": 0.15,
      "velocity": 0.37,
      "hand": "right"
    },
    {
      "midi": 67,
      "time": 41.4,
      "duration": 0.45,
      "velocity": 0.36,
      "hand": "right"
    },
    {
      "midi": 68,
      "time": 41.4,
      "duration": 0.15,
      "velocity": 0.37,
      "hand": "right"
    },
    {
      "midi": 70,
      "time": 41.4,
      "duration": 0.075,
      "velocity": 0.69,
      "hand": "right"
    },
    {
      "midi": 38,
      "time": 41.7,
      "duration": 0.075,
      "velocity": 0.55,
      "hand": "left"
    },
    {
      "midi": 42,
      "time": 41.7,
      "duration": 0.075,
      "velocity": 0.54,
      "hand": "left"
    },
    {
      "midi": 51,
      "time": 41.7,
      "duration": 0.075,
      "velocity": 0.54,
      "hand": "left"
    },
    {
      "midi": 54,
      "time": 41.7,
      "duration": 0.075,
      "velocity": 0.64,
      "hand": "left"
    },
    {
      "midi": 56,
      "time": 41.7,
      "duration": 0.15,
      "velocity": 0.53,
      "hand": "left"
    },
    {
      "midi": 59,
      "time": 41.7,
      "duration": 0.15,
      "velocity": 0.55,
      "hand": "left"
    },
    {
      "midi": 62,
      "time": 41.7,
      "duration": 0.3,
      "velocity": 0.57,
      "hand": "right"
    },
    {
      "midi": 63,
      "time": 41.7,
      "duration": 0.15,
      "velocity": 0.43,
      "hand": "right"
    },
    {
      "midi": 67,
      "time": 41.7,
      "duration": 0.15,
      "velocity": 0.49,
      "hand": "right"
    },
    {
      "midi": 70,
      "time": 41.7,
      "duration": 0.075,
      "velocity": 0.7,
      "hand": "right"
    },
    {
      "midi": 35,
      "time": 42,
      "duration": 0.075,
      "velocity": 0.56,
      "hand": "left"
    },
    {
      "midi": 36,
      "time": 42,
      "duration": 0.6,
      "velocity": 0.8,
      "hand": "left"
    },
    {
      "midi": 42,
      "time": 42,
      "duration": 0.075,
      "velocity": 0.65,
      "hand": "left"
    },
    {
      "midi": 51,
      "time": 42,
      "duration": 0.075,
      "velocity": 0.57,
      "hand": "left"
    },
    {
      "midi": 57,
      "time": 42,
      "duration": 0.6,
      "velocity": 0.53,
      "hand": "left"
    },
    {
      "midi": 57,
      "time": 42,
      "duration": 0.9,
      "velocity": 0.54,
      "hand": "left"
    },
    {
      "midi": 57,
      "time": 42,
      "duration": 0.6,
      "velocity": 0.59,
      "hand": "left"
    },
    {
      "midi": 60,
      "time": 42,
      "duration": 0.75,
      "velocity": 0.72,
      "hand": "right"
    },
    {
      "midi": 62,
      "time": 42,
      "duration": 0.6,
      "velocity": 0.55,
      "hand": "right"
    },
    {
      "midi": 62,
      "time": 42,
      "duration": 0.9,
      "velocity": 0.46,
      "hand": "right"
    },
    {
      "midi": 62,
      "time": 42,
      "duration": 0.6,
      "velocity": 0.7,
      "hand": "right"
    },
    {
      "midi": 67,
      "time": 42,
      "duration": 0.6,
      "velocity": 0.54,
      "hand": "right"
    },
    {
      "midi": 67,
      "time": 42,
      "duration": 0.9,
      "velocity": 0.5,
      "hand": "right"
    },
    {
      "midi": 67,
      "time": 42,
      "duration": 0.6,
      "velocity": 0.63,
      "hand": "right"
    },
    {
      "midi": 70,
      "time": 42,
      "duration": 0.075,
      "velocity": 0.72,
      "hand": "right"
    },
    {
      "midi": 42,
      "time": 42.3,
      "duration": 0.075,
      "velocity": 0.58,
      "hand": "left"
    },
    {
      "midi": 50,
      "time": 42.3,
      "duration": 0.15,
      "velocity": 0.81,
      "hand": "left"
    },
    {
      "midi": 51,
      "time": 42.3,
      "duration": 0.075,
      "velocity": 0.54,
      "hand": "left"
    },
    {
      "midi": 54,
      "time": 42.3,
      "duration": 0.075,
      "velocity": 0.56,
      "hand": "left"
    },
    {
      "midi": 57,
      "time": 42.3,
      "duration": 0.075,
      "velocity": 0.57,
      "hand": "left"
    },
    {
      "midi": 62,
      "time": 42.3,
      "duration": 0.075,
      "velocity": 0.72,
      "hand": "right"
    },
    {
      "midi": 67,
      "time": 42.3,
      "duration": 0.15,
      "velocity": 0.56,
      "hand": "right"
    },
    {
      "midi": 31,
      "time": 42.6,
      "duration": 0.6,
      "velocity": 0.79,
      "hand": "left"
    },
    {
      "midi": 35,
      "time": 42.6,
      "duration": 0.075,
      "velocity": 0.61,
      "hand": "left"
    },
    {
      "midi": 42,
      "time": 42.6,
      "duration": 0.075,
      "velocity": 0.55,
      "hand": "left"
    },
    {
      "midi": 50,
      "time": 42.6,
      "duration": 0.075,
      "velocity": 0.81,
      "hand": "left"
    },
    {
      "midi": 51,
      "time": 42.6,
      "duration": 0.075,
      "velocity": 0.61,
      "hand": "left"
    },
    {
      "midi": 57,
      "time": 42.6,
      "duration": 0.075,
      "velocity": 0.57,
      "hand": "left"
    },
    {
      "midi": 62,
      "time": 42.6,
      "duration": 0.075,
      "velocity": 0.61,
      "hand": "right"
    },
    {
      "midi": 67,
      "time": 42.6,
      "duration": 0.15,
      "velocity": 0.54,
      "hand": "right"
    },
    {
      "midi": 42,
      "time": 42.9,
      "duration": 0.075,
      "velocity": 0.55,
      "hand": "left"
    },
    {
      "midi": 48,
      "time": 42.9,
      "duration": 0.15,
      "velocity": 0.81,
      "hand": "left"
    },
    {
      "midi": 51,
      "time": 42.9,
      "duration": 0.075,
      "velocity": 0.56,
      "hand": "left"
    },
    {
      "midi": 54,
      "time": 42.9,
      "duration": 0.075,
      "velocity": 0.58,
      "hand": "left"
    },
    {
      "midi": 55,
      "time": 42.9,
      "duration": 0.3,
      "velocity": 0.79,
      "hand": "left"
    },
    {
      "midi": 57,
      "time": 42.9,
      "duration": 0.075,
      "velocity": 0.57,
      "hand": "left"
    },
    {
      "midi": 60,
      "time": 42.9,
      "duration": 0.3,
      "velocity": 0.79,
      "hand": "right"
    },
    {
      "midi": 62,
      "time": 42.9,
      "duration": 0.075,
      "velocity": 0.65,
      "hand": "right"
    },
    {
      "midi": 64,
      "time": 42.9,
      "duration": 0.3,
      "velocity": 0.73,
      "hand": "right"
    },
    {
      "midi": 67,
      "time": 42.9,
      "duration": 0.15,
      "velocity": 0.57,
      "hand": "right"
    },
    {
      "midi": 47,
      "time": 43.05,
      "duration": 0.15,
      "velocity": 0.81,
      "hand": "left"
    },
    {
      "midi": 35,
      "time": 43.2,
      "duration": 0.075,
      "velocity": 0.7,
      "hand": "left"
    },
    {
      "midi": 36,
      "time": 43.2,
      "duration": 0.6,
      "velocity": 0.96,
      "hand": "left"
    },
    {
      "midi": 42,
      "time": 43.2,
      "duration": 0.075,
      "velocity": 0.54,
      "hand": "left"
    },
    {
      "midi": 49,
      "time": 43.2,
      "duration": 0.15,
      "velocity": 0.81,
      "hand": "left"
    },
    {
      "midi": 51,
      "time": 43.2,
      "duration": 0.075,
      "velocity": 0.53,
      "hand": "left"
    },
    {
      "midi": 57,
      "time": 43.2,
      "duration": 0.6,
      "velocity": 0.43,
      "hand": "left"
    },
    {
      "midi": 57,
      "time": 43.2,
      "duration": 1.8,
      "velocity": 0.55,
      "hand": "left"
    },
    {
      "midi": 57,
      "time": 43.2,
      "duration": 1.95,
      "velocity": 0.63,
      "hand": "left"
    },
    {
      "midi": 59,
      "time": 43.2,
      "duration": 0.3,
      "velocity": 0.79,
      "hand": "left"
    },
    {
      "midi": 62,
      "time": 43.2,
      "duration": 0.6,
      "velocity": 0.48,
      "hand": "right"
    },
    {
      "midi": 62,
      "time": 43.2,
      "duration": 1.95,
      "velocity": 0.57,
      "hand": "right"
    },
    {
      "midi": 62,
      "time": 43.2,
      "duration": 2.1,
      "velocity": 0.69,
      "hand": "right"
    },
    {
      "midi": 64,
      "time": 43.2,
      "duration": 0.3,
      "velocity": 0.79,
      "hand": "right"
    },
    {
      "midi": 67,
      "time": 43.2,
      "duration": 0.6,
      "velocity": 0.43,
      "hand": "right"
    },
    {
      "midi": 67,
      "time": 43.2,
      "duration": 0.15,
      "velocity": 0.65,
      "hand": "right"
    },
    {
      "midi": 67,
      "time": 43.2,
      "duration": 2.1,
      "velocity": 0.64,
      "hand": "right"
    },
    {
      "midi": 67,
      "time": 43.2,
      "duration": 0.15,
      "velocity": 0.65,
      "hand": "right"
    },
    {
      "midi": 38,
      "time": 43.5,
      "duration": 0.075,
      "velocity": 0.57,
      "hand": "left"
    },
    {
      "midi": 42,
      "time": 43.5,
      "duration": 0.075,
      "velocity": 0.61,
      "hand": "left"
    },
    {
      "midi": 51,
      "time": 43.5,
      "duration": 0.075,
      "velocity": 0.61,
      "hand": "left"
    },
    {
      "midi": 54,
      "time": 43.5,
      "duration": 0.075,
      "velocity": 0.57,
      "hand": "left"
    },
    {
      "midi": 57,
      "time": 43.5,
      "duration": 0.15,
      "velocity": 0.64,
      "hand": "left"
    },
    {
      "midi": 59,
      "time": 43.5,
      "duration": 0.3,
      "velocity": 0.54,
      "hand": "left"
    },
    {
      "midi": 62,
      "time": 43.5,
      "duration": 0.075,
      "velocity": 0.7,
      "hand": "right"
    },
    {
      "midi": 64,
      "time": 43.5,
      "duration": 0.3,
      "velocity": 0.54,
      "hand": "right"
    },
    {
      "midi": 67,
      "time": 43.5,
      "duration": 0.15,
      "velocity": 0.54,
      "hand": "right"
    },
    {
      "midi": 67,
      "time": 43.5,
      "duration": 0.3,
      "velocity": 0.54,
      "hand": "right"
    },
    {
      "midi": 70,
      "time": 43.5,
      "duration": 0.075,
      "velocity": 0.7,
      "hand": "right"
    },
    {
      "midi": 31,
      "time": 43.8,
      "duration": 0.6,
      "velocity": 0.96,
      "hand": "left"
    },
    {
      "midi": 35,
      "time": 43.8,
      "duration": 0.075,
      "velocity": 0.73,
      "hand": "left"
    },
    {
      "midi": 42,
      "time": 43.8,
      "duration": 0.075,
      "velocity": 0.57,
      "hand": "left"
    },
    {
      "midi": 51,
      "time": 43.8,
      "duration": 0.075,
      "velocity": 0.53,
      "hand": "left"
    },
    {
      "midi": 55,
      "time": 43.8,
      "duration": 0.3,
      "velocity": 0.59,
      "hand": "left"
    },
    {
      "midi": 57,
      "time": 43.8,
      "duration": 0.45,
      "velocity": 0.43,
      "hand": "left"
    },
    {
      "midi": 60,
      "time": 43.8,
      "duration": 0.3,
      "velocity": 0.59,
      "hand": "right"
    },
    {
      "midi": 62,
      "time": 43.8,
      "duration": 0.45,
      "velocity": 0.49,
      "hand": "right"
    },
    {
      "midi": 64,
      "time": 43.8,
      "duration": 0.3,
      "velocity": 0.59,
      "hand": "right"
    },
    {
      "midi": 67,
      "time": 43.8,
      "duration": 0.45,
      "velocity": 0.49,
      "hand": "right"
    },
    {
      "midi": 70,
      "time": 43.8,
      "duration": 0.075,
      "velocity": 0.63,
      "hand": "right"
    },
    {
      "midi": 38,
      "time": 44.1,
      "duration": 0.075,
      "velocity": 0.55,
      "hand": "left"
    },
    {
      "midi": 42,
      "time": 44.1,
      "duration": 0.075,
      "velocity": 0.56,
      "hand": "left"
    },
    {
      "midi": 51,
      "time": 44.1,
      "duration": 0.075,
      "velocity": 0.57,
      "hand": "left"
    },
    {
      "midi": 54,
      "time": 44.1,
      "duration": 0.075,
      "velocity": 0.5,
      "hand": "left"
    },
    {
      "midi": 57,
      "time": 44.1,
      "duration": 0.075,
      "velocity": 0.64,
      "hand": "left"
    },
    {
      "midi": 57,
      "time": 44.1,
      "duration": 0.3,
      "velocity": 0.61,
      "hand": "left"
    },
    {
      "midi": 62,
      "time": 44.1,
      "duration": 0.075,
      "velocity": 0.72,
      "hand": "right"
    },
    {
      "midi": 62,
      "time": 44.1,
      "duration": 0.3,
      "velocity": 0.61,
      "hand": "right"
    },
    {
      "midi": 65,
      "time": 44.1,
      "duration": 0.3,
      "velocity": 0.61,
      "hand": "right"
    },
    {
      "midi": 67,
      "time": 44.1,
      "duration": 0.075,
      "velocity": 0.56,
      "hand": "right"
    },
    {
      "midi": 70,
      "time": 44.1,
      "duration": 0.075,
      "velocity": 0.56,
      "hand": "right"
    },
    {
      "midi": 35,
      "time": 44.4,
      "duration": 0.075,
      "velocity": 0.72,
      "hand": "left"
    },
    {
      "midi": 36,
      "time": 44.4,
      "duration": 0.6,
      "velocity": 0.96,
      "hand": "left"
    },
    {
      "midi": 42,
      "time": 44.4,
      "duration": 0.075,
      "velocity": 0.54,
      "hand": "left"
    },
    {
      "midi": 51,
      "time": 44.4,
      "duration": 0.075,
      "velocity": 0.46,
      "hand": "left"
    },
    {
      "midi": 57,
      "time": 44.4,
      "duration": 0.6,
      "velocity": 0.56,
      "hand": "left"
    },
    {
      "midi": 59,
      "time": 44.4,
      "duration": 0.3,
      "velocity": 0.54,
      "hand": "left"
    },
    {
      "midi": 62,
      "time": 44.4,
      "duration": 0.6,
      "velocity": 0.59,
      "hand": "right"
    },
    {
      "midi": 64,
      "time": 44.4,
      "duration": 0.3,
      "velocity": 0.54,
      "hand": "right"
    },
    {
      "midi": 67,
      "time": 44.4,
      "duration": 0.6,
      "velocity": 0.61,
      "hand": "right"
    },
    {
      "midi": 67,
      "time": 44.4,
      "duration": 0.3,
      "velocity": 0.54,
      "hand": "right"
    },
    {
      "midi": 70,
      "time": 44.4,
      "duration": 0.075,
      "velocity": 0.73,
      "hand": "right"
    },
    {
      "midi": 38,
      "time": 44.7,
      "duration": 0.075,
      "velocity": 0.56,
      "hand": "left"
    },
    {
      "midi": 42,
      "time": 44.7,
      "duration": 0.075,
      "velocity": 0.46,
      "hand": "left"
    },
    {
      "midi": 51,
      "time": 44.7,
      "duration": 0.075,
      "velocity": 0.52,
      "hand": "left"
    },
    {
      "midi": 54,
      "time": 44.7,
      "duration": 0.075,
      "velocity": 0.56,
      "hand": "left"
    },
    {
      "midi": 57,
      "time": 44.7,
      "duration": 0.15,
      "velocity": 0.72,
      "hand": "left"
    },
    {
      "midi": 59,
      "time": 44.7,
      "duration": 0.15,
      "velocity": 0.72,
      "hand": "left"
    },
    {
      "midi": 62,
      "time": 44.7,
      "duration": 0.075,
      "velocity": 0.72,
      "hand": "right"
    },
    {
      "midi": 64,
      "time": 44.7,
      "duration": 0.15,
      "velocity": 0.72,
      "hand": "right"
    },
    {
      "midi": 67,
      "time": 44.7,
      "duration": 0.075,
      "velocity": 0.57,
      "hand": "right"
    },
    {
      "midi": 67,
      "time": 44.7,
      "duration": 0.15,
      "velocity": 0.72,
      "hand": "right"
    },
    {
      "midi": 31,
      "time": 45,
      "duration": 0.6,
      "velocity": 0.96,
      "hand": "left"
    },
    {
      "midi": 35,
      "time": 45,
      "duration": 0.075,
      "velocity": 0.7,
      "hand": "left"
    },
    {
      "midi": 42,
      "time": 45,
      "duration": 0.075,
      "velocity": 0.5,
      "hand": "left"
    },
    {
      "midi": 51,
      "time": 45,
      "duration": 0.075,
      "velocity": 0.54,
      "hand": "left"
    },
    {
      "midi": 57,
      "time": 45,
      "duration": 0.15,
      "velocity": 0.5,
      "hand": "left"
    },
    {
      "midi": 59,
      "time": 45,
      "duration": 0.15,
      "velocity": 0.61,
      "hand": "left"
    },
    {
      "midi": 62,
      "time": 45,
      "duration": 0.15,
      "velocity": 0.52,
      "hand": "right"
    },
    {
      "midi": 64,
      "time": 45,
      "duration": 0.15,
      "velocity": 0.61,
      "hand": "right"
    },
    {
      "midi": 67,
      "time": 45,
      "duration": 0.15,
      "velocity": 0.5,
      "hand": "right"
    },
    {
      "midi": 38,
      "time": 45.3,
      "duration": 0.075,
      "velocity": 0.53,
      "hand": "left"
    },
    {
      "midi": 42,
      "time": 45.3,
      "duration": 0.075,
      "velocity": 0.54,
      "hand": "left"
    },
    {
      "midi": 51,
      "time": 45.3,
      "duration": 0.075,
      "velocity": 0.54,
      "hand": "left"
    },
    {
      "midi": 54,
      "time": 45.3,
      "duration": 0.075,
      "velocity": 0.57,
      "hand": "left"
    },
    {
      "midi": 57,
      "time": 45.3,
      "duration": 0.15,
      "velocity": 0.51,
      "hand": "left"
    },
    {
      "midi": 59,
      "time": 45.3,
      "duration": 0.15,
      "velocity": 0.56,
      "hand": "left"
    },
    {
      "midi": 62,
      "time": 45.3,
      "duration": 0.075,
      "velocity": 0.57,
      "hand": "right"
    },
    {
      "midi": 64,
      "time": 45.3,
      "duration": 0.15,
      "velocity": 0.56,
      "hand": "right"
    },
    {
      "midi": 67,
      "time": 45.3,
      "duration": 0.15,
      "velocity": 0.51,
      "hand": "right"
    },
    {
      "midi": 35,
      "time": 45.6,
      "duration": 0.075,
      "velocity": 0.69,
      "hand": "left"
    },
    {
      "midi": 40,
      "time": 45.6,
      "duration": 0.6,
      "velocity": 0.96,
      "hand": "left"
    },
    {
      "midi": 42,
      "time": 45.6,
      "duration": 0.075,
      "velocity": 0.54,
      "hand": "left"
    },
    {
      "midi": 51,
      "time": 45.6,
      "duration": 0.075,
      "velocity": 0.51,
      "hand": "left"
    },
    {
      "midi": 59,
      "time": 45.6,
      "duration": 0.15,
      "velocity": 0.61,
      "hand": "left"
    },
    {
      "midi": 59,
      "time": 45.6,
      "duration": 0.3,
      "velocity": 0.57,
      "hand": "left"
    },
    {
      "midi": 60,
      "time": 45.6,
      "duration": 0.3,
      "velocity": 0.72,
      "hand": "right"
    },
    {
      "midi": 62,
      "time": 45.6,
      "duration": 0.15,
      "velocity": 0.57,
      "hand": "right"
    },
    {
      "midi": 62,
      "time": 45.6,
      "duration": 0.3,
      "velocity": 0.57,
      "hand": "right"
    },
    {
      "midi": 64,
      "time": 45.6,
      "duration": 0.15,
      "velocity": 0.63,
      "hand": "right"
    },
    {
      "midi": 64,
      "time": 45.6,
      "duration": 0.3,
      "velocity": 0.59,
      "hand": "right"
    },
    {
      "midi": 65,
      "time": 45.6,
      "duration": 0.3,
      "velocity": 0.72,
      "hand": "right"
    },
    {
      "midi": 67,
      "time": 45.6,
      "duration": 0.15,
      "velocity": 0.54,
      "hand": "right"
    },
    {
      "midi": 67,
      "time": 45.6,
      "duration": 0.3,
      "velocity": 0.54,
      "hand": "right"
    },
    {
      "midi": 69,
      "time": 45.6,
      "duration": 0.3,
      "velocity": 0.72,
      "hand": "right"
    },
    {
      "midi": 38,
      "time": 45.9,
      "duration": 0.075,
      "velocity": 0.54,
      "hand": "left"
    },
    {
      "midi": 42,
      "time": 45.9,
      "duration": 0.075,
      "velocity": 0.57,
      "hand": "left"
    },
    {
      "midi": 51,
      "time": 45.9,
      "duration": 0.075,
      "velocity": 0.55,
      "hand": "left"
    },
    {
      "midi": 54,
      "time": 45.9,
      "duration": 0.075,
      "velocity": 0.54,
      "hand": "left"
    },
    {
      "midi": 59,
      "time": 45.9,
      "duration": 0.15,
      "velocity": 0.59,
      "hand": "left"
    },
    {
      "midi": 59,
      "time": 45.9,
      "duration": 0.3,
      "velocity": 0.65,
      "hand": "left"
    },
    {
      "midi": 62,
      "time": 45.9,
      "duration": 0.15,
      "velocity": 0.57,
      "hand": "right"
    },
    {
      "midi": 62,
      "time": 45.9,
      "duration": 0.075,
      "velocity": 0.57,
      "hand": "right"
    },
    {
      "midi": 64,
      "time": 45.9,
      "duration": 0.15,
      "velocity": 0.61,
      "hand": "right"
    },
    {
      "midi": 64,
      "time": 45.9,
      "duration": 0.3,
      "velocity": 0.65,
      "hand": "right"
    },
    {
      "midi": 67,
      "time": 45.9,
      "duration": 0.15,
      "velocity": 0.57,
      "hand": "right"
    },
    {
      "midi": 67,
      "time": 45.9,
      "duration": 0.3,
      "velocity": 0.65,
      "hand": "right"
    },
    {
      "midi": 70,
      "time": 45.9,
      "duration": 0.075,
      "velocity": 0.72,
      "hand": "right"
    },
    {
      "midi": 35,
      "time": 46.2,
      "duration": 0.075,
      "velocity": 0.56,
      "hand": "left"
    },
    {
      "midi": 39,
      "time": 46.2,
      "duration": 0.45,
      "velocity": 0.96,
      "hand": "left"
    },
    {
      "midi": 42,
      "time": 46.2,
      "duration": 0.075,
      "velocity": 0.57,
      "hand": "left"
    },
    {
      "midi": 51,
      "time": 46.2,
      "duration": 0.075,
      "velocity": 0.5,
      "hand": "left"
    },
    {
      "midi": 57,
      "time": 46.2,
      "duration": 0.3,
      "velocity": 0.58,
      "hand": "left"
    },
    {
      "midi": 58,
      "time": 46.2,
      "duration": 0.3,
      "velocity": 0.72,
      "hand": "left"
    },
    {
      "midi": 58,
      "time": 46.2,
      "duration": 0.15,
      "velocity": 0.61,
      "hand": "left"
    },
    {
      "midi": 58,
      "time": 46.2,
      "duration": 0.45,
      "velocity": 0.57,
      "hand": "left"
    },
    {
      "midi": 58,
      "time": 46.2,
      "duration": 0.3,
      "velocity": 0.59,
      "hand": "left"
    },
    {
      "midi": 61,
      "time": 46.2,
      "duration": 0.3,
      "velocity": 0.61,
      "hand": "right"
    },
    {
      "midi": 61,
      "time": 46.2,
      "duration": 0.15,
      "velocity": 0.56,
      "hand": "right"
    },
    {
      "midi": 61,
      "time": 46.2,
      "duration": 0.45,
      "velocity": 0.58,
      "hand": "right"
    },
    {
      "midi": 61,
      "time": 46.2,
      "duration": 0.3,
      "velocity": 0.52,
      "hand": "right"
    },
    {
      "midi": 62,
      "time": 46.2,
      "duration": 0.3,
      "velocity": 0.58,
      "hand": "right"
    },
    {
      "midi": 63,
      "time": 46.2,
      "duration": 0.3,
      "velocity": 0.58,
      "hand": "right"
    },
    {
      "midi": 63,
      "time": 46.2,
      "duration": 0.15,
      "velocity": 0.57,
      "hand": "right"
    },
    {
      "midi": 63,
      "time": 46.2,
      "duration": 0.45,
      "velocity": 0.58,
      "hand": "right"
    },
    {
      "midi": 63,
      "time": 46.2,
      "duration": 0.3,
      "velocity": 0.54,
      "hand": "right"
    },
    {
      "midi": 65,
      "time": 46.2,
      "duration": 0.3,
      "velocity": 0.58,
      "hand": "right"
    },
    {
      "midi": 66,
      "time": 46.2,
      "duration": 0.3,
      "velocity": 0.54,
      "hand": "right"
    },
    {
      "midi": 68,
      "time": 46.2,
      "duration": 0.3,
      "velocity": 0.61,
      "hand": "right"
    },
    {
      "midi": 68,
      "time": 46.2,
      "duration": 0.15,
      "velocity": 0.54,
      "hand": "right"
    },
    {
      "midi": 68,
      "time": 46.2,
      "duration": 0.45,
      "velocity": 0.54,
      "hand": "right"
    },
    {
      "midi": 70,
      "time": 46.2,
      "duration": 0.075,
      "velocity": 0.69,
      "hand": "right"
    },
    {
      "midi": 38,
      "time": 46.5,
      "duration": 0.075,
      "velocity": 0.55,
      "hand": "left"
    },
    {
      "midi": 42,
      "time": 46.5,
      "duration": 0.075,
      "velocity": 0.54,
      "hand": "left"
    },
    {
      "midi": 51,
      "time": 46.5,
      "duration": 0.075,
      "velocity": 0.54,
      "hand": "left"
    },
    {
      "midi": 54,
      "time": 46.5,
      "duration": 0.075,
      "velocity": 0.64,
      "hand": "left"
    },
    {
      "midi": 55,
      "time": 46.5,
      "duration": 0.15,
      "velocity": 0.64,
      "hand": "left"
    },
    {
      "midi": 58,
      "time": 46.5,
      "duration": 0.15,
      "velocity": 0.65,
      "hand": "left"
    },
    {
      "midi": 60,
      "time": 46.5,
      "duration": 0.15,
      "velocity": 0.64,
      "hand": "right"
    },
    {
      "midi": 61,
      "time": 46.5,
      "duration": 0.15,
      "velocity": 0.69,
      "hand": "right"
    },
    {
      "midi": 63,
      "time": 46.5,
      "duration": 0.15,
      "velocity": 0.69,
      "hand": "right"
    },
    {
      "midi": 64,
      "time": 46.5,
      "duration": 0.15,
      "velocity": 0.64,
      "hand": "right"
    },
    {
      "midi": 68,
      "time": 46.5,
      "duration": 0.15,
      "velocity": 0.57,
      "hand": "right"
    },
    {
      "midi": 70,
      "time": 46.5,
      "duration": 0.075,
      "velocity": 0.7,
      "hand": "right"
    },
    {
      "midi": 35,
      "time": 46.8,
      "duration": 0.075,
      "velocity": 0.56,
      "hand": "left"
    },
    {
      "midi": 38,
      "time": 46.8,
      "duration": 0.6,
      "velocity": 0.87,
      "hand": "left"
    },
    {
      "midi": 42,
      "time": 46.8,
      "duration": 0.075,
      "velocity": 0.65,
      "hand": "left"
    },
    {
      "midi": 51,
      "time": 46.8,
      "duration": 0.075,
      "velocity": 0.57,
      "hand": "left"
    },
    {
      "midi": 55,
      "time": 46.8,
      "duration": 0.75,
      "velocity": 0.61,
      "hand": "left"
    },
    {
      "midi": 57,
      "time": 46.8,
      "duration": 0.6,
      "velocity": 0.51,
      "hand": "left"
    },
    {
      "midi": 57,
      "time": 46.8,
      "duration": 2.25,
      "velocity": 0.5,
      "hand": "left"
    },
    {
      "midi": 57,
      "time": 46.8,
      "duration": 1.05,
      "velocity": 0.57,
      "hand": "left"
    },
    {
      "midi": 57,
      "time": 46.8,
      "duration": 0.75,
      "velocity": 0.61,
      "hand": "left"
    },
    {
      "midi": 60,
      "time": 46.8,
      "duration": 0.45,
      "velocity": 0.52,
      "hand": "right"
    },
    {
      "midi": 60,
      "time": 46.8,
      "duration": 2.25,
      "velocity": 0.49,
      "hand": "right"
    },
    {
      "midi": 60,
      "time": 46.8,
      "duration": 1.05,
      "velocity": 0.54,
      "hand": "right"
    },
    {
      "midi": 62,
      "time": 46.8,
      "duration": 0.75,
      "velocity": 0.61,
      "hand": "right"
    },
    {
      "midi": 62,
      "time": 46.8,
      "duration": 3.3,
      "velocity": 0.49,
      "hand": "right"
    },
    {
      "midi": 62,
      "time": 46.8,
      "duration": 1.05,
      "velocity": 0.59,
      "hand": "right"
    },
    {
      "midi": 62,
      "time": 46.8,
      "duration": 0.75,
      "velocity": 0.61,
      "hand": "right"
    },
    {
      "midi": 64,
      "time": 46.8,
      "duration": 0.6,
      "velocity": 0.5,
      "hand": "right"
    },
    {
      "midi": 65,
      "time": 46.8,
      "duration": 3.3,
      "velocity": 0.45,
      "hand": "right"
    },
    {
      "midi": 65,
      "time": 46.8,
      "duration": 1.05,
      "velocity": 0.57,
      "hand": "right"
    },
    {
      "midi": 67,
      "time": 46.8,
      "duration": 0.45,
      "velocity": 0.5,
      "hand": "right"
    },
    {
      "midi": 70,
      "time": 46.8,
      "duration": 0.075,
      "velocity": 0.72,
      "hand": "right"
    },
    {
      "midi": 38,
      "time": 47.1,
      "duration": 0.075,
      "velocity": 0.54,
      "hand": "left"
    },
    {
      "midi": 42,
      "time": 47.1,
      "duration": 0.075,
      "velocity": 0.58,
      "hand": "left"
    },
    {
      "midi": 51,
      "time": 47.1,
      "duration": 0.075,
      "velocity": 0.54,
      "hand": "left"
    },
    {
      "midi": 54,
      "time": 47.1,
      "duration": 0.075,
      "velocity": 0.56,
      "hand": "left"
    },
    {
      "midi": 57,
      "time": 47.1,
      "duration": 0.075,
      "velocity": 0.54,
      "hand": "left"
    },
    {
      "midi": 60,
      "time": 47.1,
      "duration": 0.075,
      "velocity": 0.61,
      "hand": "right"
    },
    {
      "midi": 64,
      "time": 47.1,
      "duration": 0.075,
      "velocity": 0.57,
      "hand": "right"
    },
    {
      "midi": 67,
      "time": 47.1,
      "duration": 0.075,
      "velocity": 0.5,
      "hand": "right"
    },
    {
      "midi": 33,
      "time": 47.4,
      "duration": 0.45,
      "velocity": 0.87,
      "hand": "left"
    },
    {
      "midi": 35,
      "time": 47.4,
      "duration": 0.075,
      "velocity": 0.61,
      "hand": "left"
    },
    {
      "midi": 42,
      "time": 47.4,
      "duration": 0.075,
      "velocity": 0.55,
      "hand": "left"
    },
    {
      "midi": 51,
      "time": 47.4,
      "duration": 0.075,
      "velocity": 0.61,
      "hand": "left"
    },
    {
      "midi": 57,
      "time": 47.4,
      "duration": 0.15,
      "velocity": 0.5,
      "hand": "left"
    },
    {
      "midi": 60,
      "time": 47.4,
      "duration": 0.15,
      "velocity": 0.51,
      "hand": "right"
    },
    {
      "midi": 64,
      "time": 47.4,
      "duration": 0.15,
      "velocity": 0.49,
      "hand": "right"
    },
    {
      "midi": 67,
      "time": 47.4,
      "duration": 0.15,
      "velocity": 0.39,
      "hand": "right"
    },
    {
      "midi": 38,
      "time": 47.7,
      "duration": 0.075,
      "velocity": 0.56,
      "hand": "left"
    },
    {
      "midi": 42,
      "time": 47.7,
      "duration": 0.075,
      "velocity": 0.55,
      "hand": "left"
    },
    {
      "midi": 51,
      "time": 47.7,
      "duration": 0.075,
      "velocity": 0.56,
      "hand": "left"
    },
    {
      "midi": 54,
      "time": 47.7,
      "duration": 0.075,
      "velocity": 0.58,
      "hand": "left"
    },
    {
      "midi": 57,
      "time": 47.7,
      "duration": 0.075,
      "velocity": 0.65,
      "hand": "left"
    },
    {
      "midi": 57,
      "time": 47.7,
      "duration": 0.15,
      "velocity": 0.72,
      "hand": "left"
    },
    {
      "midi": 60,
      "time": 47.7,
      "duration": 0.075,
      "velocity": 0.72,
      "hand": "right"
    },
    {
      "midi": 64,
      "time": 47.7,
      "duration": 0.075,
      "velocity": 0.59,
      "hand": "right"
    },
    {
      "midi": 67,
      "time": 47.7,
      "duration": 0.15,
      "velocity": 0.55,
      "hand": "right"
    },
    {
      "midi": 69,
      "time": 47.7,
      "duration": 0.15,
      "velocity": 0.72,
      "hand": "right"
    },
    {
      "midi": 35,
      "time": 48,
      "duration": 0.075,
      "velocity": 0.7,
      "hand": "left"
    },
    {
      "midi": 38,
      "time": 48,
      "duration": 0.6,
      "velocity": 0.84,
      "hand": "left"
    },
    {
      "midi": 42,
      "time": 48,
      "duration": 0.075,
      "velocity": 0.54,
      "hand": "left"
    },
    {
      "midi": 51,
      "time": 48,
      "duration": 0.075,
      "velocity": 0.53,
      "hand": "left"
    },
    {
      "midi": 57,
      "time": 48,
      "duration": 0.15,
      "velocity": 0.51,
      "hand": "left"
    },
    {
      "midi": 57,
      "time": 48,
      "duration": 0.9,
      "velocity": 0.7,
      "hand": "left"
    },
    {
      "midi": 57,
      "time": 48,
      "duration": 0.15,
      "velocity": 0.59,
      "hand": "left"
    },
    {
      "midi": 60,
      "time": 48,
      "duration": 0.075,
      "velocity": 0.54,
      "hand": "right"
    },
    {
      "midi": 60,
      "time": 48,
      "duration": 0.9,
      "velocity": 0.72,
      "hand": "right"
    },
    {
      "midi": 62,
      "time": 48,
      "duration": 1.05,
      "velocity": 0.68,
      "hand": "right"
    },
    {
      "midi": 64,
      "time": 48,
      "duration": 0.15,
      "velocity": 0.55,
      "hand": "right"
    },
    {
      "midi": 65,
      "time": 48,
      "duration": 1.05,
      "velocity": 0.58,
      "hand": "right"
    },
    {
      "midi": 67,
      "time": 48,
      "duration": 0.15,
      "velocity": 0.5,
      "hand": "right"
    },
    {
      "midi": 69,
      "time": 48,
      "duration": 0.15,
      "velocity": 0.59,
      "hand": "right"
    },
    {
      "midi": 57,
      "time": 48.15,
      "duration": 0.15,
      "velocity": 0.48,
      "hand": "left"
    },
    {
      "midi": 60,
      "time": 48.15,
      "duration": 0.075,
      "velocity": 0.53,
      "hand": "right"
    },
    {
      "midi": 64,
      "time": 48.15,
      "duration": 0.15,
      "velocity": 0.44,
      "hand": "right"
    },
    {
      "midi": 67,
      "time": 48.15,
      "duration": 0.075,
      "velocity": 0.31,
      "hand": "right"
    },
    {
      "midi": 38,
      "time": 48.3,
      "duration": 0.075,
      "velocity": 0.57,
      "hand": "left"
    },
    {
      "midi": 42,
      "time": 48.3,
      "duration": 0.075,
      "velocity": 0.61,
      "hand": "left"
    },
    {
      "midi": 51,
      "time": 48.3,
      "duration": 0.075,
      "velocity": 0.61,
      "hand": "left"
    },
    {
      "midi": 54,
      "time": 48.3,
      "duration": 0.075,
      "velocity": 0.57,
      "hand": "left"
    },
    {
      "midi": 57,
      "time": 48.3,
      "duration": 0.075,
      "velocity": 0.58,
      "hand": "left"
    },
    {
      "midi": 57,
      "time": 48.3,
      "duration": 0.3,
      "velocity": 0.57,
      "hand": "left"
    },
    {
      "midi": 60,
      "time": 48.3,
      "duration": 0.075,
      "velocity": 0.72,
      "hand": "right"
    },
    {
      "midi": 64,
      "time": 48.3,
      "duration": 0.075,
      "velocity": 0.57,
      "hand": "right"
    },
    {
      "midi": 67,
      "time": 48.3,
      "duration": 0.075,
      "velocity": 0.52,
      "hand": "right"
    },
    {
      "midi": 69,
      "time": 48.3,
      "duration": 0.3,
      "velocity": 0.57,
      "hand": "right"
    },
    {
      "midi": 70,
      "time": 48.3,
      "duration": 0.075,
      "velocity": 0.7,
      "hand": "right"
    },
    {
      "midi": 33,
      "time": 48.6,
      "duration": 0.45,
      "velocity": 0.97,
      "hand": "left"
    },
    {
      "midi": 35,
      "time": 48.6,
      "duration": 0.075,
      "velocity": 0.73,
      "hand": "left"
    },
    {
      "midi": 42,
      "time": 48.6,
      "duration": 0.075,
      "velocity": 0.57,
      "hand": "left"
    },
    {
      "midi": 51,
      "time": 48.6,
      "duration": 0.075,
      "velocity": 0.53,
      "hand": "left"
    },
    {
      "midi": 57,
      "time": 48.6,
      "duration": 0.15,
      "velocity": 0.63,
      "hand": "left"
    },
    {
      "midi": 59,
      "time": 48.6,
      "duration": 0.3,
      "velocity": 0.57,
      "hand": "left"
    },
    {
      "midi": 60,
      "time": 48.6,
      "duration": 0.15,
      "velocity": 0.68,
      "hand": "right"
    },
    {
      "midi": 64,
      "time": 48.6,
      "duration": 0.15,
      "velocity": 0.61,
      "hand": "right"
    },
    {
      "midi": 67,
      "time": 48.6,
      "duration": 0.15,
      "velocity": 0.51,
      "hand": "right"
    },
    {
      "midi": 70,
      "time": 48.6,
      "duration": 0.075,
      "velocity": 0.63,
      "hand": "right"
    },
    {
      "midi": 71,
      "time": 48.6,
      "duration": 0.3,
      "velocity": 0.57,
      "hand": "right"
    },
    {
      "midi": 38,
      "time": 48.9,
      "duration": 0.075,
      "velocity": 0.55,
      "hand": "left"
    },
    {
      "midi": 42,
      "time": 48.9,
      "duration": 0.075,
      "velocity": 0.56,
      "hand": "left"
    },
    {
      "midi": 51,
      "time": 48.9,
      "duration": 0.075,
      "velocity": 0.57,
      "hand": "left"
    },
    {
      "midi": 54,
      "time": 48.9,
      "duration": 0.075,
      "velocity": 0.5,
      "hand": "left"
    },
    {
      "midi": 57,
      "time": 48.9,
      "duration": 0.15,
      "velocity": 0.59,
      "hand": "left"
    },
    {
      "midi": 57,
      "time": 48.9,
      "duration": 0.3,
      "velocity": 0.54,
      "hand": "left"
    },
    {
      "midi": 60,
      "time": 48.9,
      "duration": 0.075,
      "velocity": 0.68,
      "hand": "right"
    },
    {
      "midi": 64,
      "time": 48.9,
      "duration": 0.15,
      "velocity": 0.61,
      "hand": "right"
    },
    {
      "midi": 67,
      "time": 48.9,
      "duration": 0.15,
      "velocity": 0.56,
      "hand": "right"
    },
    {
      "midi": 69,
      "time": 48.9,
      "duration": 0.3,
      "velocity": 0.54,
      "hand": "right"
    },
    {
      "midi": 70,
      "time": 48.9,
      "duration": 0.075,
      "velocity": 0.56,
      "hand": "right"
    },
    {
      "midi": 35,
      "time": 49.2,
      "duration": 0.075,
      "velocity": 0.72,
      "hand": "left"
    },
    {
      "midi": 38,
      "time": 49.2,
      "duration": 0.6,
      "velocity": 0.98,
      "hand": "left"
    },
    {
      "midi": 42,
      "time": 49.2,
      "duration": 0.075,
      "velocity": 0.54,
      "hand": "left"
    },
    {
      "midi": 51,
      "time": 49.2,
      "duration": 0.075,
      "velocity": 0.46,
      "hand": "left"
    },
    {
      "midi": 53,
      "time": 49.2,
      "duration": 0.45,
      "velocity": 0.57,
      "hand": "left"
    },
    {
      "midi": 55,
      "time": 49.2,
      "duration": 0.75,
      "velocity": 0.55,
      "hand": "left"
    },
    {
      "midi": 55,
      "time": 49.2,
      "duration": 0.9,
      "velocity": 0.61,
      "hand": "left"
    },
    {
      "midi": 55,
      "time": 49.2,
      "duration": 0.15,
      "velocity": 0.64,
      "hand": "left"
    },
    {
      "midi": 57,
      "time": 49.2,
      "duration": 0.45,
      "velocity": 0.56,
      "hand": "left"
    },
    {
      "midi": 59,
      "time": 49.2,
      "duration": 0.45,
      "velocity": 0.56,
      "hand": "left"
    },
    {
      "midi": 59,
      "time": 49.2,
      "duration": 0.75,
      "velocity": 0.53,
      "hand": "left"
    },
    {
      "midi": 59,
      "time": 49.2,
      "duration": 0.9,
      "velocity": 0.54,
      "hand": "left"
    },
    {
      "midi": 62,
      "time": 49.2,
      "duration": 1.05,
      "velocity": 0.59,
      "hand": "right"
    },
    {
      "midi": 64,
      "time": 49.2,
      "duration": 0.45,
      "velocity": 0.54,
      "hand": "right"
    },
    {
      "midi": 65,
      "time": 49.2,
      "duration": 0.9,
      "velocity": 0.55,
      "hand": "right"
    },
    {
      "midi": 67,
      "time": 49.2,
      "duration": 0.15,
      "velocity": 0.64,
      "hand": "right"
    },
    {
      "midi": 70,
      "time": 49.2,
      "duration": 0.075,
      "velocity": 0.73,
      "hand": "right"
    },
    {
      "midi": 38,
      "time": 49.5,
      "duration": 0.075,
      "velocity": 0.56,
      "hand": "left"
    },
    {
      "midi": 42,
      "time": 49.5,
      "duration": 0.075,
      "velocity": 0.46,
      "hand": "left"
    },
    {
      "midi": 51,
      "time": 49.5,
      "duration": 0.075,
      "velocity": 0.52,
      "hand": "left"
    },
    {
      "midi": 54,
      "time": 49.5,
      "duration": 0.075,
      "velocity": 0.56,
      "hand": "left"
    },
    {
      "midi": 55,
      "time": 49.5,
      "duration": 0.3,
      "velocity": 0.52,
      "hand": "left"
    },
    {
      "midi": 59,
      "time": 49.5,
      "duration": 0.075,
      "velocity": 0.61,
      "hand": "left"
    },
    {
      "midi": 62,
      "time": 49.5,
      "duration": 0.075,
      "velocity": 0.68,
      "hand": "right"
    },
    {
      "midi": 64,
      "time": 49.5,
      "duration": 0.075,
      "velocity": 0.69,
      "hand": "right"
    },
    {
      "midi": 67,
      "time": 49.5,
      "duration": 0.3,
      "velocity": 0.52,
      "hand": "right"
    },
    {
      "midi": 69,
      "time": 49.5,
      "duration": 0.15,
      "velocity": 0.63,
      "hand": "right"
    },
    {
      "midi": 35,
      "time": 49.8,
      "duration": 0.075,
      "velocity": 0.7,
      "hand": "left"
    },
    {
      "midi": 38,
      "time": 49.8,
      "duration": 0.6,
      "velocity": 0.94,
      "hand": "left"
    },
    {
      "midi": 42,
      "time": 49.8,
      "duration": 0.075,
      "velocity": 0.5,
      "hand": "left"
    },
    {
      "midi": 51,
      "time": 49.8,
      "duration": 0.075,
      "velocity": 0.54,
      "hand": "left"
    },
    {
      "midi": 52,
      "time": 49.8,
      "duration": 0.3,
      "velocity": 0.63,
      "hand": "left"
    },
    {
      "midi": 53,
      "time": 49.8,
      "duration": 0.15,
      "velocity": 0.63,
      "hand": "left"
    },
    {
      "midi": 57,
      "time": 49.8,
      "duration": 0.15,
      "velocity": 0.56,
      "hand": "left"
    },
    {
      "midi": 59,
      "time": 49.8,
      "duration": 0.15,
      "velocity": 0.57,
      "hand": "left"
    },
    {
      "midi": 64,
      "time": 49.8,
      "duration": 0.15,
      "velocity": 0.56,
      "hand": "right"
    },
    {
      "midi": 64,
      "time": 49.8,
      "duration": 0.3,
      "velocity": 0.63,
      "hand": "right"
    },
    {
      "midi": 38,
      "time": 50.1,
      "duration": 0.075,
      "velocity": 0.53,
      "hand": "left"
    },
    {
      "midi": 42,
      "time": 50.1,
      "duration": 0.075,
      "velocity": 0.54,
      "hand": "left"
    },
    {
      "midi": 51,
      "time": 50.1,
      "duration": 0.075,
      "velocity": 0.54,
      "hand": "left"
    },
    {
      "midi": 54,
      "time": 50.1,
      "duration": 0.075,
      "velocity": 0.57,
      "hand": "left"
    },
    {
      "midi": 55,
      "time": 50.1,
      "duration": 0.15,
      "velocity": 0.54,
      "hand": "left"
    },
    {
      "midi": 59,
      "time": 50.1,
      "duration": 0.075,
      "velocity": 0.7,
      "hand": "left"
    },
    {
      "midi": 62,
      "time": 50.1,
      "duration": 0.075,
      "velocity": 0.72,
      "hand": "right"
    },
    {
      "midi": 64,
      "time": 50.1,
      "duration": 0.075,
      "velocity": 0.58,
      "hand": "right"
    },
    {
      "midi": 65,
      "time": 50.1,
      "duration": 0.075,
      "velocity": 0.35,
      "hand": "right"
    },
    {
      "midi": 67,
      "time": 50.1,
      "duration": 0.15,
      "velocity": 0.54,
      "hand": "right"
    },
    {
      "midi": 69,
      "time": 50.1,
      "duration": 0.15,
      "velocity": 0.68,
      "hand": "right"
    },
    {
      "midi": 35,
      "time": 50.4,
      "duration": 0.075,
      "velocity": 0.69,
      "hand": "left"
    },
    {
      "midi": 37,
      "time": 50.4,
      "duration": 0.45,
      "velocity": 0.94,
      "hand": "left"
    },
    {
      "midi": 42,
      "time": 50.4,
      "duration": 0.075,
      "velocity": 0.54,
      "hand": "left"
    },
    {
      "midi": 51,
      "time": 50.4,
      "duration": 0.075,
      "velocity": 0.51,
      "hand": "left"
    },
    {
      "midi": 53,
      "time": 50.4,
      "duration": 0.15,
      "velocity": 0.65,
      "hand": "left"
    },
    {
      "midi": 56,
      "time": 50.4,
      "duration": 0.45,
      "velocity": 0.5,
      "hand": "left"
    },
    {
      "midi": 57,
      "time": 50.4,
      "duration": 0.15,
      "velocity": 0.57,
      "hand": "left"
    },
    {
      "midi": 57,
      "time": 50.4,
      "duration": 0.45,
      "velocity": 0.54,
      "hand": "left"
    },
    {
      "midi": 60,
      "time": 50.4,
      "duration": 0.15,
      "velocity": 0.58,
      "hand": "right"
    },
    {
      "midi": 60,
      "time": 50.4,
      "duration": 0.3,
      "velocity": 0.58,
      "hand": "right"
    },
    {
      "midi": 60,
      "time": 50.4,
      "duration": 0.45,
      "velocity": 0.57,
      "hand": "right"
    },
    {
      "midi": 62,
      "time": 50.4,
      "duration": 0.3,
      "velocity": 0.57,
      "hand": "right"
    },
    {
      "midi": 62,
      "time": 50.4,
      "duration": 0.45,
      "velocity": 0.45,
      "hand": "right"
    },
    {
      "midi": 64,
      "time": 50.4,
      "duration": 0.15,
      "velocity": 0.54,
      "hand": "right"
    },
    {
      "midi": 65,
      "time": 50.4,
      "duration": 0.15,
      "velocity": 0.65,
      "hand": "right"
    },
    {
      "midi": 65,
      "time": 50.4,
      "duration": 0.3,
      "velocity": 0.55,
      "hand": "right"
    },
    {
      "midi": 65,
      "time": 50.4,
      "duration": 0.45,
      "velocity": 0.51,
      "hand": "right"
    },
    {
      "midi": 65,
      "time": 50.4,
      "duration": 0.15,
      "velocity": 0.65,
      "hand": "right"
    },
    {
      "midi": 67,
      "time": 50.4,
      "duration": 0.15,
      "velocity": 0.5,
      "hand": "right"
    },
    {
      "midi": 38,
      "time": 50.7,
      "duration": 0.075,
      "velocity": 0.54,
      "hand": "left"
    },
    {
      "midi": 42,
      "time": 50.7,
      "duration": 0.075,
      "velocity": 0.57,
      "hand": "left"
    },
    {
      "midi": 51,
      "time": 50.7,
      "duration": 0.075,
      "velocity": 0.55,
      "hand": "left"
    },
    {
      "midi": 53,
      "time": 50.7,
      "duration": 0.3,
      "velocity": 0.54,
      "hand": "left"
    },
    {
      "midi": 54,
      "time": 50.7,
      "duration": 0.075,
      "velocity": 0.54,
      "hand": "left"
    },
    {
      "midi": 57,
      "time": 50.7,
      "duration": 0.15,
      "velocity": 0.54,
      "hand": "left"
    },
    {
      "midi": 57,
      "time": 50.7,
      "duration": 0.075,
      "velocity": 0.64,
      "hand": "left"
    },
    {
      "midi": 60,
      "time": 50.7,
      "duration": 0.15,
      "velocity": 0.53,
      "hand": "right"
    },
    {
      "midi": 60,
      "time": 50.7,
      "duration": 0.075,
      "velocity": 0.7,
      "hand": "right"
    },
    {
      "midi": 64,
      "time": 50.7,
      "duration": 0.15,
      "velocity": 0.52,
      "hand": "right"
    },
    {
      "midi": 64,
      "time": 50.7,
      "duration": 0.075,
      "velocity": 0.54,
      "hand": "right"
    },
    {
      "midi": 65,
      "time": 50.7,
      "duration": 0.075,
      "velocity": 0.51,
      "hand": "right"
    },
    {
      "midi": 65,
      "time": 50.7,
      "duration": 0.3,
      "velocity": 0.54,
      "hand": "right"
    },
    {
      "midi": 67,
      "time": 50.7,
      "duration": 0.15,
      "velocity": 0.39,
      "hand": "right"
    },
    {
      "midi": 67,
      "time": 50.7,
      "duration": 0.075,
      "velocity": 0.61,
      "hand": "right"
    },
    {
      "midi": 70,
      "time": 50.7,
      "duration": 0.075,
      "velocity": 0.72,
      "hand": "right"
    },
    {
      "midi": 35,
      "time": 51,
      "duration": 0.075,
      "velocity": 0.56,
      "hand": "left"
    },
    {
      "midi": 37,
      "time": 51,
      "duration": 0.6,
      "velocity": 0.98,
      "hand": "left"
    },
    {
      "midi": 42,
      "time": 51,
      "duration": 0.075,
      "velocity": 0.57,
      "hand": "left"
    },
    {
      "midi": 51,
      "time": 51,
      "duration": 0.075,
      "velocity": 0.5,
      "hand": "left"
    },
    {
      "midi": 52,
      "time": 51,
      "duration": 0.3,
      "velocity": 0.61,
      "hand": "left"
    },
    {
      "midi": 55,
      "time": 51,
      "duration": 0.3,
      "velocity": 0.56,
      "hand": "left"
    },
    {
      "midi": 56,
      "time": 51,
      "duration": 0.15,
      "velocity": 0.55,
      "hand": "left"
    },
    {
      "midi": 56,
      "time": 51,
      "duration": 0.45,
      "velocity": 0.46,
      "hand": "left"
    },
    {
      "midi": 58,
      "time": 51,
      "duration": 0.075,
      "velocity": 0.44,
      "hand": "left"
    },
    {
      "midi": 59,
      "time": 51,
      "duration": 0.15,
      "velocity": 0.55,
      "hand": "left"
    },
    {
      "midi": 59,
      "time": 51,
      "duration": 0.3,
      "velocity": 0.52,
      "hand": "left"
    },
    {
      "midi": 62,
      "time": 51,
      "duration": 0.45,
      "velocity": 0.54,
      "hand": "right"
    },
    {
      "midi": 63,
      "time": 51,
      "duration": 0.15,
      "velocity": 0.51,
      "hand": "right"
    },
    {
      "midi": 63,
      "time": 51,
      "duration": 0.45,
      "velocity": 0.54,
      "hand": "right"
    },
    {
      "midi": 64,
      "time": 51,
      "duration": 0.3,
      "velocity": 0.61,
      "hand": "right"
    },
    {
      "midi": 65,
      "time": 51,
      "duration": 0.45,
      "velocity": 0.5,
      "hand": "right"
    },
    {
      "midi": 67,
      "time": 51,
      "duration": 0.15,
      "velocity": 0.37,
      "hand": "right"
    },
    {
      "midi": 67,
      "time": 51,
      "duration": 0.45,
      "velocity": 0.36,
      "hand": "right"
    },
    {
      "midi": 68,
      "time": 51,
      "duration": 0.15,
      "velocity": 0.37,
      "hand": "right"
    },
    {
      "midi": 70,
      "time": 51,
      "duration": 0.075,
      "velocity": 0.69,
      "hand": "right"
    },
    {
      "midi": 38,
      "time": 51.3,
      "duration": 0.075,
      "velocity": 0.55,
      "hand": "left"
    },
    {
      "midi": 42,
      "time": 51.3,
      "duration": 0.075,
      "velocity": 0.54,
      "hand": "left"
    },
    {
      "midi": 50,
      "time": 51.3,
      "duration": 0.3,
      "velocity": 0.57,
      "hand": "left"
    },
    {
      "midi": 51,
      "time": 51.3,
      "duration": 0.075,
      "velocity": 0.54,
      "hand": "left"
    },
    {
      "midi": 54,
      "time": 51.3,
      "duration": 0.075,
      "velocity": 0.64,
      "hand": "left"
    },
    {
      "midi": 56,
      "time": 51.3,
      "duration": 0.15,
      "velocity": 0.53,
      "hand": "left"
    },
    {
      "midi": 59,
      "time": 51.3,
      "duration": 0.15,
      "velocity": 0.55,
      "hand": "left"
    },
    {
      "midi": 62,
      "time": 51.3,
      "duration": 0.3,
      "velocity": 0.57,
      "hand": "right"
    },
    {
      "midi": 63,
      "time": 51.3,
      "duration": 0.15,
      "velocity": 0.43,
      "hand": "right"
    },
    {
      "midi": 67,
      "time": 51.3,
      "duration": 0.15,
      "velocity": 0.49,
      "hand": "right"
    },
    {
      "midi": 70,
      "time": 51.3,
      "duration": 0.075,
      "velocity": 0.7,
      "hand": "right"
    },
    {
      "midi": 35,
      "time": 51.6,
      "duration": 0.075,
      "velocity": 0.56,
      "hand": "left"
    },
    {
      "midi": 36,
      "time": 51.6,
      "duration": 0.6,
      "velocity": 0.8,
      "hand": "left"
    },
    {
      "midi": 42,
      "time": 51.6,
      "duration": 0.075,
      "velocity": 0.65,
      "hand": "left"
    },
    {
      "midi": 48,
      "time": 51.6,
      "duration": 0.75,
      "velocity": 0.72,
      "hand": "left"
    },
    {
      "midi": 51,
      "time": 51.6,
      "duration": 0.075,
      "velocity": 0.57,
      "hand": "left"
    },
    {
      "midi": 57,
      "time": 51.6,
      "duration": 0.6,
      "velocity": 0.53,
      "hand": "left"
    },
    {
      "midi": 57,
      "time": 51.6,
      "duration": 0.9,
      "velocity": 0.54,
      "hand": "left"
    },
    {
      "midi": 62,
      "time": 51.6,
      "duration": 0.6,
      "velocity": 0.55,
      "hand": "right"
    },
    {
      "midi": 62,
      "time": 51.6,
      "duration": 0.9,
      "velocity": 0.46,
      "hand": "right"
    },
    {
      "midi": 64,
      "time": 51.6,
      "duration": 0.75,
      "velocity": 0.72,
      "hand": "right"
    },
    {
      "midi": 67,
      "time": 51.6,
      "duration": 0.6,
      "velocity": 0.54,
      "hand": "right"
    },
    {
      "midi": 67,
      "time": 51.6,
      "duration": 0.9,
      "velocity": 0.5,
      "hand": "right"
    },
    {
      "midi": 67,
      "time": 51.6,
      "duration": 0.75,
      "velocity": 0.72,
      "hand": "right"
    },
    {
      "midi": 70,
      "time": 51.6,
      "duration": 0.075,
      "velocity": 0.72,
      "hand": "right"
    },
    {
      "midi": 38,
      "time": 51.9,
      "duration": 0.075,
      "velocity": 0.54,
      "hand": "left"
    },
    {
      "midi": 42,
      "time": 51.9,
      "duration": 0.075,
      "velocity": 0.58,
      "hand": "left"
    },
    {
      "midi": 51,
      "time": 51.9,
      "duration": 0.075,
      "velocity": 0.54,
      "hand": "left"
    },
    {
      "midi": 54,
      "time": 51.9,
      "duration": 0.075,
      "velocity": 0.56,
      "hand": "left"
    },
    {
      "midi": 57,
      "time": 51.9,
      "duration": 0.075,
      "velocity": 0.57,
      "hand": "left"
    },
    {
      "midi": 62,
      "time": 51.9,
      "duration": 0.075,
      "velocity": 0.72,
      "hand": "right"
    },
    {
      "midi": 67,
      "time": 51.9,
      "duration": 0.15,
      "velocity": 0.56,
      "hand": "right"
    },
    {
      "midi": 31,
      "time": 52.2,
      "duration": 0.6,
      "velocity": 0.79,
      "hand": "left"
    },
    {
      "midi": 35,
      "time": 52.2,
      "duration": 0.075,
      "velocity": 0.61,
      "hand": "left"
    },
    {
      "midi": 42,
      "time": 52.2,
      "duration": 0.075,
      "velocity": 0.55,
      "hand": "left"
    },
    {
      "midi": 51,
      "time": 52.2,
      "duration": 0.075,
      "velocity": 0.61,
      "hand": "left"
    },
    {
      "midi": 57,
      "time": 52.2,
      "duration": 0.075,
      "velocity": 0.57,
      "hand": "left"
    },
    {
      "midi": 62,
      "time": 52.2,
      "duration": 0.075,
      "velocity": 0.61,
      "hand": "right"
    },
    {
      "midi": 67,
      "time": 52.2,
      "duration": 0.15,
      "velocity": 0.54,
      "hand": "right"
    },
    {
      "midi": 38,
      "time": 52.5,
      "duration": 0.075,
      "velocity": 0.56,
      "hand": "left"
    },
    {
      "midi": 42,
      "time": 52.5,
      "duration": 0.075,
      "velocity": 0.55,
      "hand": "left"
    },
    {
      "midi": 51,
      "time": 52.5,
      "duration": 0.075,
      "velocity": 0.56,
      "hand": "left"
    },
    {
      "midi": 52,
      "time": 52.5,
      "duration": 0.3,
      "velocity": 0.72,
      "hand": "left"
    },
    {
      "midi": 54,
      "time": 52.5,
      "duration": 0.075,
      "velocity": 0.58,
      "hand": "left"
    },
    {
      "midi": 57,
      "time": 52.5,
      "duration": 0.075,
      "velocity": 0.57,
      "hand": "left"
    },
    {
      "midi": 62,
      "time": 52.5,
      "duration": 0.075,
      "velocity": 0.65,
      "hand": "right"
    },
    {
      "midi": 64,
      "time": 52.5,
      "duration": 0.3,
      "velocity": 0.72,
      "hand": "right"
    },
    {
      "midi": 67,
      "time": 52.5,
      "duration": 0.15,
      "velocity": 0.57,
      "hand": "right"
    },
    {
      "midi": 35,
      "time": 52.8,
      "duration": 0.075,
      "velocity": 0.7,
      "hand": "left"
    },
    {
      "midi": 36,
      "time": 52.8,
      "duration": 0.6,
      "velocity": 0.96,
      "hand": "left"
    },
    {
      "midi": 42,
      "time": 52.8,
      "duration": 0.075,
      "velocity": 0.54,
      "hand": "left"
    },
    {
      "midi": 51,
      "time": 52.8,
      "duration": 0.075,
      "velocity": 0.53,
      "hand": "left"
    },
    {
      "midi": 55,
      "time": 52.8,
      "duration": 0.15,
      "velocity": 0.79,
      "hand": "left"
    },
    {
      "midi": 57,
      "time": 52.8,
      "duration": 0.6,
      "velocity": 0.43,
      "hand": "left"
    },
    {
      "midi": 57,
      "time": 52.8,
      "duration": 1.8,
      "velocity": 0.55,
      "hand": "left"
    },
    {
      "midi": 57,
      "time": 52.8,
      "duration": 2.1,
      "velocity": 0.69,
      "hand": "left"
    },
    {
      "midi": 57,
      "time": 52.8,
      "duration": 0.15,
      "velocity": 0.81,
      "hand": "left"
    },
    {
      "midi": 62,
      "time": 52.8,
      "duration": 0.6,
      "velocity": 0.48,
      "hand": "right"
    },
    {
      "midi": 62,
      "time": 52.8,
      "duration": 1.95,
      "velocity": 0.57,
      "hand": "right"
    },
    {
      "midi": 62,
      "time": 52.8,
      "duration": 2.1,
      "velocity": 0.72,
      "hand": "right"
    },
    {
      "midi": 67,
      "time": 52.8,
      "duration": 0.6,
      "velocity": 0.43,
      "hand": "right"
    },
    {
      "midi": 67,
      "time": 52.8,
      "duration": 0.15,
      "velocity": 0.79,
      "hand": "right"
    },
    {
      "midi": 67,
      "time": 52.8,
      "duration": 2.1,
      "velocity": 0.58,
      "hand": "right"
    },
    {
      "midi": 67,
      "time": 52.8,
      "duration": 0.15,
      "velocity": 0.79,
      "hand": "right"
    },
    {
      "midi": 38,
      "time": 53.1,
      "duration": 0.075,
      "velocity": 0.57,
      "hand": "left"
    },
    {
      "midi": 42,
      "time": 53.1,
      "duration": 0.075,
      "velocity": 0.61,
      "hand": "left"
    },
    {
      "midi": 51,
      "time": 53.1,
      "duration": 0.075,
      "velocity": 0.61,
      "hand": "left"
    },
    {
      "midi": 54,
      "time": 53.1,
      "duration": 0.075,
      "velocity": 0.57,
      "hand": "left"
    },
    {
      "midi": 55,
      "time": 53.1,
      "duration": 0.3,
      "velocity": 0.54,
      "hand": "left"
    },
    {
      "midi": 57,
      "time": 53.1,
      "duration": 0.15,
      "velocity": 0.64,
      "hand": "left"
    },
    {
      "midi": 62,
      "time": 53.1,
      "duration": 0.075,
      "velocity": 0.7,
      "hand": "right"
    },
    {
      "midi": 67,
      "time": 53.1,
      "duration": 0.15,
      "velocity": 0.54,
      "hand": "right"
    },
    {
      "midi": 67,
      "time": 53.1,
      "duration": 0.3,
      "velocity": 0.54,
      "hand": "right"
    },
    {
      "midi": 70,
      "time": 53.1,
      "duration": 0.075,
      "velocity": 0.7,
      "hand": "right"
    },
    {
      "midi": 31,
      "time": 53.4,
      "duration": 0.6,
      "velocity": 0.96,
      "hand": "left"
    },
    {
      "midi": 35,
      "time": 53.4,
      "duration": 0.075,
      "velocity": 0.73,
      "hand": "left"
    },
    {
      "midi": 42,
      "time": 53.4,
      "duration": 0.075,
      "velocity": 0.57,
      "hand": "left"
    },
    {
      "midi": 51,
      "time": 53.4,
      "duration": 0.075,
      "velocity": 0.53,
      "hand": "left"
    },
    {
      "midi": 52,
      "time": 53.4,
      "duration": 0.3,
      "velocity": 0.59,
      "hand": "left"
    },
    {
      "midi": 57,
      "time": 53.4,
      "duration": 0.45,
      "velocity": 0.43,
      "hand": "left"
    },
    {
      "midi": 62,
      "time": 53.4,
      "duration": 0.45,
      "velocity": 0.49,
      "hand": "right"
    },
    {
      "midi": 64,
      "time": 53.4,
      "duration": 0.3,
      "velocity": 0.59,
      "hand": "right"
    },
    {
      "midi": 67,
      "time": 53.4,
      "duration": 0.45,
      "velocity": 0.49,
      "hand": "right"
    },
    {
      "midi": 70,
      "time": 53.4,
      "duration": 0.075,
      "velocity": 0.63,
      "hand": "right"
    },
    {
      "midi": 38,
      "time": 53.7,
      "duration": 0.075,
      "velocity": 0.55,
      "hand": "left"
    },
    {
      "midi": 42,
      "time": 53.7,
      "duration": 0.075,
      "velocity": 0.56,
      "hand": "left"
    },
    {
      "midi": 51,
      "time": 53.7,
      "duration": 0.075,
      "velocity": 0.57,
      "hand": "left"
    },
    {
      "midi": 53,
      "time": 53.7,
      "duration": 0.3,
      "velocity": 0.61,
      "hand": "left"
    },
    {
      "midi": 54,
      "time": 53.7,
      "duration": 0.075,
      "velocity": 0.5,
      "hand": "left"
    },
    {
      "midi": 57,
      "time": 53.7,
      "duration": 0.075,
      "velocity": 0.64,
      "hand": "left"
    },
    {
      "midi": 62,
      "time": 53.7,
      "duration": 0.075,
      "velocity": 0.72,
      "hand": "right"
    },
    {
      "midi": 65,
      "time": 53.7,
      "duration": 0.3,
      "velocity": 0.61,
      "hand": "right"
    },
    {
      "midi": 67,
      "time": 53.7,
      "duration": 0.075,
      "velocity": 0.56,
      "hand": "right"
    },
    {
      "midi": 70,
      "time": 53.7,
      "duration": 0.075,
      "velocity": 0.56,
      "hand": "right"
    },
    {
      "midi": 35,
      "time": 54,
      "duration": 0.075,
      "velocity": 0.72,
      "hand": "left"
    },
    {
      "midi": 36,
      "time": 54,
      "duration": 0.6,
      "velocity": 0.96,
      "hand": "left"
    },
    {
      "midi": 42,
      "time": 54,
      "duration": 0.075,
      "velocity": 0.54,
      "hand": "left"
    },
    {
      "midi": 51,
      "time": 54,
      "duration": 0.075,
      "velocity": 0.46,
      "hand": "left"
    },
    {
      "midi": 55,
      "time": 54,
      "duration": 0.3,
      "velocity": 0.54,
      "hand": "left"
    },
    {
      "midi": 57,
      "time": 54,
      "duration": 0.6,
      "velocity": 0.56,
      "hand": "left"
    },
    {
      "midi": 62,
      "time": 54,
      "duration": 0.6,
      "velocity": 0.59,
      "hand": "right"
    },
    {
      "midi": 67,
      "time": 54,
      "duration": 0.6,
      "velocity": 0.61,
      "hand": "right"
    },
    {
      "midi": 67,
      "time": 54,
      "duration": 0.3,
      "velocity": 0.54,
      "hand": "right"
    },
    {
      "midi": 70,
      "time": 54,
      "duration": 0.075,
      "velocity": 0.73,
      "hand": "right"
    },
    {
      "midi": 38,
      "time": 54.3,
      "duration": 0.075,
      "velocity": 0.56,
      "hand": "left"
    },
    {
      "midi": 42,
      "time": 54.3,
      "duration": 0.075,
      "velocity": 0.46,
      "hand": "left"
    },
    {
      "midi": 51,
      "time": 54.3,
      "duration": 0.075,
      "velocity": 0.52,
      "hand": "left"
    },
    {
      "midi": 54,
      "time": 54.3,
      "duration": 0.075,
      "velocity": 0.56,
      "hand": "left"
    },
    {
      "midi": 55,
      "time": 54.3,
      "duration": 0.15,
      "velocity": 0.72,
      "hand": "left"
    },
    {
      "midi": 57,
      "time": 54.3,
      "duration": 0.15,
      "velocity": 0.72,
      "hand": "left"
    },
    {
      "midi": 62,
      "time": 54.3,
      "duration": 0.075,
      "velocity": 0.72,
      "hand": "right"
    },
    {
      "midi": 67,
      "time": 54.3,
      "duration": 0.075,
      "velocity": 0.57,
      "hand": "right"
    },
    {
      "midi": 67,
      "time": 54.3,
      "duration": 0.15,
      "velocity": 0.72,
      "hand": "right"
    },
    {
      "midi": 31,
      "time": 54.6,
      "duration": 0.6,
      "velocity": 0.96,
      "hand": "left"
    },
    {
      "midi": 35,
      "time": 54.6,
      "duration": 0.075,
      "velocity": 0.7,
      "hand": "left"
    },
    {
      "midi": 42,
      "time": 54.6,
      "duration": 0.075,
      "velocity": 0.5,
      "hand": "left"
    },
    {
      "midi": 51,
      "time": 54.6,
      "duration": 0.075,
      "velocity": 0.54,
      "hand": "left"
    },
    {
      "midi": 55,
      "time": 54.6,
      "duration": 0.15,
      "velocity": 0.61,
      "hand": "left"
    },
    {
      "midi": 57,
      "time": 54.6,
      "duration": 0.15,
      "velocity": 0.5,
      "hand": "left"
    },
    {
      "midi": 62,
      "time": 54.6,
      "duration": 0.15,
      "velocity": 0.52,
      "hand": "right"
    },
    {
      "midi": 67,
      "time": 54.6,
      "duration": 0.15,
      "velocity": 0.5,
      "hand": "right"
    },
    {
      "midi": 38,
      "time": 54.9,
      "duration": 0.075,
      "velocity": 0.53,
      "hand": "left"
    },
    {
      "midi": 42,
      "time": 54.9,
      "duration": 0.075,
      "velocity": 0.54,
      "hand": "left"
    },
    {
      "midi": 51,
      "time": 54.9,
      "duration": 0.075,
      "velocity": 0.54,
      "hand": "left"
    },
    {
      "midi": 54,
      "time": 54.9,
      "duration": 0.075,
      "velocity": 0.57,
      "hand": "left"
    },
    {
      "midi": 55,
      "time": 54.9,
      "duration": 0.15,
      "velocity": 0.56,
      "hand": "left"
    },
    {
      "midi": 57,
      "time": 54.9,
      "duration": 0.15,
      "velocity": 0.51,
      "hand": "left"
    },
    {
      "midi": 62,
      "time": 54.9,
      "duration": 0.075,
      "velocity": 0.57,
      "hand": "right"
    },
    {
      "midi": 67,
      "time": 54.9,
      "duration": 0.15,
      "velocity": 0.51,
      "hand": "right"
    },
    {
      "midi": 35,
      "time": 55.2,
      "duration": 0.075,
      "velocity": 0.69,
      "hand": "left"
    },
    {
      "midi": 40,
      "time": 55.2,
      "duration": 0.6,
      "velocity": 0.96,
      "hand": "left"
    },
    {
      "midi": 42,
      "time": 55.2,
      "duration": 0.075,
      "velocity": 0.54,
      "hand": "left"
    },
    {
      "midi": 51,
      "time": 55.2,
      "duration": 0.075,
      "velocity": 0.51,
      "hand": "left"
    },
    {
      "midi": 57,
      "time": 55.2,
      "duration": 0.3,
      "velocity": 0.72,
      "hand": "left"
    },
    {
      "midi": 59,
      "time": 55.2,
      "duration": 0.15,
      "velocity": 0.61,
      "hand": "left"
    },
    {
      "midi": 59,
      "time": 55.2,
      "duration": 0.3,
      "velocity": 0.57,
      "hand": "left"
    },
    {
      "midi": 62,
      "time": 55.2,
      "duration": 0.15,
      "velocity": 0.57,
      "hand": "right"
    },
    {
      "midi": 62,
      "time": 55.2,
      "duration": 0.3,
      "velocity": 0.57,
      "hand": "right"
    },
    {
      "midi": 64,
      "time": 55.2,
      "duration": 0.15,
      "velocity": 0.63,
      "hand": "right"
    },
    {
      "midi": 64,
      "time": 55.2,
      "duration": 0.3,
      "velocity": 0.59,
      "hand": "right"
    },
    {
      "midi": 67,
      "time": 55.2,
      "duration": 0.15,
      "velocity": 0.54,
      "hand": "right"
    },
    {
      "midi": 67,
      "time": 55.2,
      "duration": 0.3,
      "velocity": 0.54,
      "hand": "right"
    },
    {
      "midi": 69,
      "time": 55.2,
      "duration": 0.3,
      "velocity": 0.72,
      "hand": "right"
    },
    {
      "midi": 38,
      "time": 55.5,
      "duration": 0.075,
      "velocity": 0.54,
      "hand": "left"
    },
    {
      "midi": 42,
      "time": 55.5,
      "duration": 0.075,
      "velocity": 0.57,
      "hand": "left"
    },
    {
      "midi": 51,
      "time": 55.5,
      "duration": 0.075,
      "velocity": 0.55,
      "hand": "left"
    },
    {
      "midi": 54,
      "time": 55.5,
      "duration": 0.075,
      "velocity": 0.54,
      "hand": "left"
    },
    {
      "midi": 55,
      "time": 55.5,
      "duration": 0.3,
      "velocity": 0.65,
      "hand": "left"
    },
    {
      "midi": 59,
      "time": 55.5,
      "duration": 0.15,
      "velocity": 0.59,
      "hand": "left"
    },
    {
      "midi": 62,
      "time": 55.5,
      "duration": 0.15,
      "velocity": 0.57,
      "hand": "right"
    },
    {
      "midi": 62,
      "time": 55.5,
      "duration": 0.075,
      "velocity": 0.57,
      "hand": "right"
    },
    {
      "midi": 64,
      "time": 55.5,
      "duration": 0.15,
      "velocity": 0.61,
      "hand": "right"
    },
    {
      "midi": 67,
      "time": 55.5,
      "duration": 0.15,
      "velocity": 0.57,
      "hand": "right"
    },
    {
      "midi": 67,
      "time": 55.5,
      "duration": 0.3,
      "velocity": 0.65,
      "hand": "right"
    },
    {
      "midi": 70,
      "time": 55.5,
      "duration": 0.075,
      "velocity": 0.72,
      "hand": "right"
    },
    {
      "midi": 35,
      "time": 55.8,
      "duration": 0.075,
      "velocity": 0.56,
      "hand": "left"
    },
    {
      "midi": 39,
      "time": 55.8,
      "duration": 0.45,
      "velocity": 0.96,
      "hand": "left"
    },
    {
      "midi": 42,
      "time": 55.8,
      "duration": 0.075,
      "velocity": 0.57,
      "hand": "left"
    },
    {
      "midi": 51,
      "time": 55.8,
      "duration": 0.075,
      "velocity": 0.5,
      "hand": "left"
    },
    {
      "midi": 53,
      "time": 55.8,
      "duration": 0.3,
      "velocity": 0.58,
      "hand": "left"
    },
    {
      "midi": 58,
      "time": 55.8,
      "duration": 0.3,
      "velocity": 0.72,
      "hand": "left"
    },
    {
      "midi": 58,
      "time": 55.8,
      "duration": 0.15,
      "velocity": 0.61,
      "hand": "left"
    },
    {
      "midi": 58,
      "time": 55.8,
      "duration": 0.45,
      "velocity": 0.57,
      "hand": "left"
    },
    {
      "midi": 61,
      "time": 55.8,
      "duration": 0.3,
      "velocity": 0.61,
      "hand": "right"
    },
    {
      "midi": 61,
      "time": 55.8,
      "duration": 0.15,
      "velocity": 0.56,
      "hand": "right"
    },
    {
      "midi": 61,
      "time": 55.8,
      "duration": 0.45,
      "velocity": 0.58,
      "hand": "right"
    },
    {
      "midi": 63,
      "time": 55.8,
      "duration": 0.3,
      "velocity": 0.58,
      "hand": "right"
    },
    {
      "midi": 63,
      "time": 55.8,
      "duration": 0.15,
      "velocity": 0.57,
      "hand": "right"
    },
    {
      "midi": 63,
      "time": 55.8,
      "duration": 0.45,
      "velocity": 0.58,
      "hand": "right"
    },
    {
      "midi": 65,
      "time": 55.8,
      "duration": 0.3,
      "velocity": 0.58,
      "hand": "right"
    },
    {
      "midi": 66,
      "time": 55.8,
      "duration": 0.45,
      "velocity": 0.56,
      "hand": "right"
    },
    {
      "midi": 68,
      "time": 55.8,
      "duration": 0.3,
      "velocity": 0.61,
      "hand": "right"
    },
    {
      "midi": 68,
      "time": 55.8,
      "duration": 0.15,
      "velocity": 0.54,
      "hand": "right"
    },
    {
      "midi": 68,
      "time": 55.8,
      "duration": 0.45,
      "velocity": 0.54,
      "hand": "right"
    },
    {
      "midi": 70,
      "time": 55.8,
      "duration": 0.075,
      "velocity": 0.69,
      "hand": "right"
    },
    {
      "midi": 38,
      "time": 56.1,
      "duration": 0.075,
      "velocity": 0.55,
      "hand": "left"
    },
    {
      "midi": 42,
      "time": 56.1,
      "duration": 0.075,
      "velocity": 0.54,
      "hand": "left"
    },
    {
      "midi": 51,
      "time": 56.1,
      "duration": 0.075,
      "velocity": 0.54,
      "hand": "left"
    },
    {
      "midi": 52,
      "time": 56.1,
      "duration": 0.15,
      "velocity": 0.64,
      "hand": "left"
    },
    {
      "midi": 54,
      "time": 56.1,
      "duration": 0.075,
      "velocity": 0.64,
      "hand": "left"
    },
    {
      "midi": 58,
      "time": 56.1,
      "duration": 0.15,
      "velocity": 0.65,
      "hand": "left"
    },
    {
      "midi": 61,
      "time": 56.1,
      "duration": 0.15,
      "velocity": 0.69,
      "hand": "right"
    },
    {
      "midi": 63,
      "time": 56.1,
      "duration": 0.15,
      "velocity": 0.69,
      "hand": "right"
    },
    {
      "midi": 64,
      "time": 56.1,
      "duration": 0.15,
      "velocity": 0.64,
      "hand": "right"
    },
    {
      "midi": 68,
      "time": 56.1,
      "duration": 0.15,
      "velocity": 0.57,
      "hand": "right"
    },
    {
      "midi": 70,
      "time": 56.1,
      "duration": 0.075,
      "velocity": 0.7,
      "hand": "right"
    },
    {
      "midi": 35,
      "time": 56.4,
      "duration": 0.075,
      "velocity": 0.56,
      "hand": "left"
    },
    {
      "midi": 38,
      "time": 56.4,
      "duration": 0.6,
      "velocity": 0.87,
      "hand": "left"
    },
    {
      "midi": 42,
      "time": 56.4,
      "duration": 0.075,
      "velocity": 0.65,
      "hand": "left"
    },
    {
      "midi": 45,
      "time": 56.4,
      "duration": 0.75,
      "velocity": 0.61,
      "hand": "left"
    },
    {
      "midi": 51,
      "time": 56.4,
      "duration": 0.075,
      "velocity": 0.57,
      "hand": "left"
    },
    {
      "midi": 57,
      "time": 56.4,
      "duration": 0.6,
      "velocity": 0.51,
      "hand": "left"
    },
    {
      "midi": 57,
      "time": 56.4,
      "duration": 2.25,
      "velocity": 0.5,
      "hand": "left"
    },
    {
      "midi": 57,
      "time": 56.4,
      "duration": 1.05,
      "velocity": 0.64,
      "hand": "left"
    },
    {
      "midi": 60,
      "time": 56.4,
      "duration": 0.45,
      "velocity": 0.52,
      "hand": "right"
    },
    {
      "midi": 60,
      "time": 56.4,
      "duration": 2.25,
      "velocity": 0.49,
      "hand": "right"
    },
    {
      "midi": 60,
      "time": 56.4,
      "duration": 1.05,
      "velocity": 0.61,
      "hand": "right"
    },
    {
      "midi": 62,
      "time": 56.4,
      "duration": 0.75,
      "velocity": 0.61,
      "hand": "right"
    },
    {
      "midi": 62,
      "time": 56.4,
      "duration": 3.3,
      "velocity": 0.49,
      "hand": "right"
    },
    {
      "midi": 62,
      "time": 56.4,
      "duration": 1.05,
      "velocity": 0.57,
      "hand": "right"
    },
    {
      "midi": 62,
      "time": 56.4,
      "duration": 0.75,
      "velocity": 0.61,
      "hand": "right"
    },
    {
      "midi": 64,
      "time": 56.4,
      "duration": 0.6,
      "velocity": 0.5,
      "hand": "right"
    },
    {
      "midi": 65,
      "time": 56.4,
      "duration": 3.3,
      "velocity": 0.45,
      "hand": "right"
    },
    {
      "midi": 65,
      "time": 56.4,
      "duration": 1.05,
      "velocity": 0.58,
      "hand": "right"
    },
    {
      "midi": 65,
      "time": 56.4,
      "duration": 0.75,
      "velocity": 0.61,
      "hand": "right"
    },
    {
      "midi": 67,
      "time": 56.4,
      "duration": 0.45,
      "velocity": 0.5,
      "hand": "right"
    },
    {
      "midi": 70,
      "time": 56.4,
      "duration": 0.075,
      "velocity": 0.72,
      "hand": "right"
    },
    {
      "midi": 38,
      "time": 56.7,
      "duration": 0.075,
      "velocity": 0.54,
      "hand": "left"
    },
    {
      "midi": 42,
      "time": 56.7,
      "duration": 0.075,
      "velocity": 0.58,
      "hand": "left"
    },
    {
      "midi": 51,
      "time": 56.7,
      "duration": 0.075,
      "velocity": 0.54,
      "hand": "left"
    },
    {
      "midi": 54,
      "time": 56.7,
      "duration": 0.075,
      "velocity": 0.56,
      "hand": "left"
    },
    {
      "midi": 57,
      "time": 56.7,
      "duration": 0.075,
      "velocity": 0.54,
      "hand": "left"
    },
    {
      "midi": 60,
      "time": 56.7,
      "duration": 0.075,
      "velocity": 0.61,
      "hand": "right"
    },
    {
      "midi": 64,
      "time": 56.7,
      "duration": 0.075,
      "velocity": 0.57,
      "hand": "right"
    },
    {
      "midi": 67,
      "time": 56.7,
      "duration": 0.075,
      "velocity": 0.5,
      "hand": "right"
    },
    {
      "midi": 33,
      "time": 57,
      "duration": 0.45,
      "velocity": 0.87,
      "hand": "left"
    },
    {
      "midi": 35,
      "time": 57,
      "duration": 0.075,
      "velocity": 0.61,
      "hand": "left"
    },
    {
      "midi": 42,
      "time": 57,
      "duration": 0.075,
      "velocity": 0.55,
      "hand": "left"
    },
    {
      "midi": 51,
      "time": 57,
      "duration": 0.075,
      "velocity": 0.61,
      "hand": "left"
    },
    {
      "midi": 57,
      "time": 57,
      "duration": 0.15,
      "velocity": 0.5,
      "hand": "left"
    },
    {
      "midi": 60,
      "time": 57,
      "duration": 0.15,
      "velocity": 0.51,
      "hand": "right"
    },
    {
      "midi": 64,
      "time": 57,
      "duration": 0.15,
      "velocity": 0.49,
      "hand": "right"
    },
    {
      "midi": 67,
      "time": 57,
      "duration": 0.15,
      "velocity": 0.39,
      "hand": "right"
    },
    {
      "midi": 38,
      "time": 57.3,
      "duration": 0.075,
      "velocity": 0.56,
      "hand": "left"
    },
    {
      "midi": 42,
      "time": 57.3,
      "duration": 0.075,
      "velocity": 0.55,
      "hand": "left"
    },
    {
      "midi": 51,
      "time": 57.3,
      "duration": 0.075,
      "velocity": 0.56,
      "hand": "left"
    },
    {
      "midi": 54,
      "time": 57.3,
      "duration": 0.075,
      "velocity": 0.58,
      "hand": "left"
    },
    {
      "midi": 57,
      "time": 57.3,
      "duration": 0.075,
      "velocity": 0.65,
      "hand": "left"
    },
    {
      "midi": 57,
      "time": 57.3,
      "duration": 0.15,
      "velocity": 0.72,
      "hand": "left"
    },
    {
      "midi": 60,
      "time": 57.3,
      "duration": 0.075,
      "velocity": 0.72,
      "hand": "right"
    },
    {
      "midi": 64,
      "time": 57.3,
      "duration": 0.075,
      "velocity": 0.59,
      "hand": "right"
    },
    {
      "midi": 67,
      "time": 57.3,
      "duration": 0.15,
      "velocity": 0.55,
      "hand": "right"
    },
    {
      "midi": 69,
      "time": 57.3,
      "duration": 0.15,
      "velocity": 0.72,
      "hand": "right"
    },
    {
      "midi": 35,
      "time": 57.6,
      "duration": 0.075,
      "velocity": 0.7,
      "hand": "left"
    },
    {
      "midi": 38,
      "time": 57.6,
      "duration": 0.6,
      "velocity": 0.84,
      "hand": "left"
    },
    {
      "midi": 42,
      "time": 57.6,
      "duration": 0.075,
      "velocity": 0.54,
      "hand": "left"
    },
    {
      "midi": 51,
      "time": 57.6,
      "duration": 0.075,
      "velocity": 0.53,
      "hand": "left"
    },
    {
      "midi": 57,
      "time": 57.6,
      "duration": 0.15,
      "velocity": 0.51,
      "hand": "left"
    },
    {
      "midi": 57,
      "time": 57.6,
      "duration": 1.05,
      "velocity": 0.73,
      "hand": "left"
    },
    {
      "midi": 57,
      "time": 57.6,
      "duration": 0.15,
      "velocity": 0.59,
      "hand": "left"
    },
    {
      "midi": 60,
      "time": 57.6,
      "duration": 0.075,
      "velocity": 0.54,
      "hand": "right"
    },
    {
      "midi": 60,
      "time": 57.6,
      "duration": 0.9,
      "velocity": 0.73,
      "hand": "right"
    },
    {
      "midi": 62,
      "time": 57.6,
      "duration": 1.05,
      "velocity": 0.69,
      "hand": "right"
    },
    {
      "midi": 64,
      "time": 57.6,
      "duration": 0.15,
      "velocity": 0.55,
      "hand": "right"
    },
    {
      "midi": 65,
      "time": 57.6,
      "duration": 1.05,
      "velocity": 0.61,
      "hand": "right"
    },
    {
      "midi": 67,
      "time": 57.6,
      "duration": 0.15,
      "velocity": 0.5,
      "hand": "right"
    },
    {
      "midi": 69,
      "time": 57.6,
      "duration": 0.15,
      "velocity": 0.59,
      "hand": "right"
    },
    {
      "midi": 57,
      "time": 57.75,
      "duration": 0.15,
      "velocity": 0.48,
      "hand": "left"
    },
    {
      "midi": 60,
      "time": 57.75,
      "duration": 0.075,
      "velocity": 0.53,
      "hand": "right"
    },
    {
      "midi": 64,
      "time": 57.75,
      "duration": 0.15,
      "velocity": 0.44,
      "hand": "right"
    },
    {
      "midi": 67,
      "time": 57.75,
      "duration": 0.075,
      "velocity": 0.31,
      "hand": "right"
    },
    {
      "midi": 38,
      "time": 57.9,
      "duration": 0.075,
      "velocity": 0.57,
      "hand": "left"
    },
    {
      "midi": 42,
      "time": 57.9,
      "duration": 0.075,
      "velocity": 0.61,
      "hand": "left"
    },
    {
      "midi": 51,
      "time": 57.9,
      "duration": 0.075,
      "velocity": 0.61,
      "hand": "left"
    },
    {
      "midi": 54,
      "time": 57.9,
      "duration": 0.075,
      "velocity": 0.57,
      "hand": "left"
    },
    {
      "midi": 57,
      "time": 57.9,
      "duration": 0.075,
      "velocity": 0.58,
      "hand": "left"
    },
    {
      "midi": 57,
      "time": 57.9,
      "duration": 0.3,
      "velocity": 0.57,
      "hand": "left"
    },
    {
      "midi": 60,
      "time": 57.9,
      "duration": 0.075,
      "velocity": 0.72,
      "hand": "right"
    },
    {
      "midi": 64,
      "time": 57.9,
      "duration": 0.075,
      "velocity": 0.57,
      "hand": "right"
    },
    {
      "midi": 67,
      "time": 57.9,
      "duration": 0.075,
      "velocity": 0.52,
      "hand": "right"
    },
    {
      "midi": 69,
      "time": 57.9,
      "duration": 0.3,
      "velocity": 0.57,
      "hand": "right"
    },
    {
      "midi": 70,
      "time": 57.9,
      "duration": 0.075,
      "velocity": 0.7,
      "hand": "right"
    },
    {
      "midi": 33,
      "time": 58.2,
      "duration": 0.45,
      "velocity": 0.97,
      "hand": "left"
    },
    {
      "midi": 35,
      "time": 58.2,
      "duration": 0.075,
      "velocity": 0.73,
      "hand": "left"
    },
    {
      "midi": 42,
      "time": 58.2,
      "duration": 0.075,
      "velocity": 0.57,
      "hand": "left"
    },
    {
      "midi": 51,
      "time": 58.2,
      "duration": 0.075,
      "velocity": 0.53,
      "hand": "left"
    },
    {
      "midi": 57,
      "time": 58.2,
      "duration": 0.15,
      "velocity": 0.63,
      "hand": "left"
    },
    {
      "midi": 59,
      "time": 58.2,
      "duration": 0.3,
      "velocity": 0.57,
      "hand": "left"
    },
    {
      "midi": 60,
      "time": 58.2,
      "duration": 0.15,
      "velocity": 0.68,
      "hand": "right"
    },
    {
      "midi": 64,
      "time": 58.2,
      "duration": 0.15,
      "velocity": 0.61,
      "hand": "right"
    },
    {
      "midi": 67,
      "time": 58.2,
      "duration": 0.15,
      "velocity": 0.51,
      "hand": "right"
    },
    {
      "midi": 70,
      "time": 58.2,
      "duration": 0.075,
      "velocity": 0.63,
      "hand": "right"
    },
    {
      "midi": 71,
      "time": 58.2,
      "duration": 0.3,
      "velocity": 0.57,
      "hand": "right"
    },
    {
      "midi": 38,
      "time": 58.5,
      "duration": 0.075,
      "velocity": 0.55,
      "hand": "left"
    },
    {
      "midi": 42,
      "time": 58.5,
      "duration": 0.075,
      "velocity": 0.56,
      "hand": "left"
    },
    {
      "midi": 51,
      "time": 58.5,
      "duration": 0.075,
      "velocity": 0.57,
      "hand": "left"
    },
    {
      "midi": 54,
      "time": 58.5,
      "duration": 0.075,
      "velocity": 0.5,
      "hand": "left"
    },
    {
      "midi": 57,
      "time": 58.5,
      "duration": 0.15,
      "velocity": 0.59,
      "hand": "left"
    },
    {
      "midi": 57,
      "time": 58.5,
      "duration": 0.3,
      "velocity": 0.54,
      "hand": "left"
    },
    {
      "midi": 60,
      "time": 58.5,
      "duration": 0.075,
      "velocity": 0.68,
      "hand": "right"
    },
    {
      "midi": 64,
      "time": 58.5,
      "duration": 0.15,
      "velocity": 0.61,
      "hand": "right"
    },
    {
      "midi": 67,
      "time": 58.5,
      "duration": 0.15,
      "velocity": 0.56,
      "hand": "right"
    },
    {
      "midi": 69,
      "time": 58.5,
      "duration": 0.3,
      "velocity": 0.54,
      "hand": "right"
    },
    {
      "midi": 70,
      "time": 58.5,
      "duration": 0.075,
      "velocity": 0.56,
      "hand": "right"
    },
    {
      "midi": 35,
      "time": 58.8,
      "duration": 0.075,
      "velocity": 0.72,
      "hand": "left"
    },
    {
      "midi": 38,
      "time": 58.8,
      "duration": 0.6,
      "velocity": 0.98,
      "hand": "left"
    },
    {
      "midi": 42,
      "time": 58.8,
      "duration": 0.075,
      "velocity": 0.54,
      "hand": "left"
    },
    {
      "midi": 51,
      "time": 58.8,
      "duration": 0.075,
      "velocity": 0.46,
      "hand": "left"
    },
    {
      "midi": 53,
      "time": 58.8,
      "duration": 0.45,
      "velocity": 0.57,
      "hand": "left"
    },
    {
      "midi": 55,
      "time": 58.8,
      "duration": 0.75,
      "velocity": 0.55,
      "hand": "left"
    },
    {
      "midi": 55,
      "time": 58.8,
      "duration": 0.6,
      "velocity": 0.65,
      "hand": "left"
    },
    {
      "midi": 55,
      "time": 58.8,
      "duration": 0.15,
      "velocity": 0.64,
      "hand": "left"
    },
    {
      "midi": 57,
      "time": 58.8,
      "duration": 0.45,
      "velocity": 0.56,
      "hand": "left"
    },
    {
      "midi": 59,
      "time": 58.8,
      "duration": 0.45,
      "velocity": 0.56,
      "hand": "left"
    },
    {
      "midi": 59,
      "time": 58.8,
      "duration": 0.75,
      "velocity": 0.53,
      "hand": "left"
    },
    {
      "midi": 59,
      "time": 58.8,
      "duration": 0.6,
      "velocity": 0.68,
      "hand": "left"
    },
    {
      "midi": 62,
      "time": 58.8,
      "duration": 0.75,
      "velocity": 0.58,
      "hand": "right"
    },
    {
      "midi": 64,
      "time": 58.8,
      "duration": 0.45,
      "velocity": 0.54,
      "hand": "right"
    },
    {
      "midi": 65,
      "time": 58.8,
      "duration": 0.75,
      "velocity": 0.56,
      "hand": "right"
    },
    {
      "midi": 67,
      "time": 58.8,
      "duration": 0.15,
      "velocity": 0.64,
      "hand": "right"
    },
    {
      "midi": 70,
      "time": 58.8,
      "duration": 0.075,
      "velocity": 0.73,
      "hand": "right"
    },
    {
      "midi": 38,
      "time": 59.1,
      "duration": 0.075,
      "velocity": 0.56,
      "hand": "left"
    },
    {
      "midi": 42,
      "time": 59.1,
      "duration": 0.075,
      "velocity": 0.46,
      "hand": "left"
    },
    {
      "midi": 51,
      "time": 59.1,
      "duration": 0.075,
      "velocity": 0.52,
      "hand": "left"
    },
    {
      "midi": 54,
      "time": 59.1,
      "duration": 0.075,
      "velocity": 0.56,
      "hand": "left"
    },
    {
      "midi": 55,
      "time": 59.1,
      "duration": 0.3,
      "velocity": 0.52,
      "hand": "left"
    },
    {
      "midi": 59,
      "time": 59.1,
      "duration": 0.075,
      "velocity": 0.61,
      "hand": "left"
    },
    {
      "midi": 62,
      "time": 59.1,
      "duration": 0.075,
      "velocity": 0.68,
      "hand": "right"
    },
    {
      "midi": 64,
      "time": 59.1,
      "duration": 0.075,
      "velocity": 0.69,
      "hand": "right"
    },
    {
      "midi": 67,
      "time": 59.1,
      "duration": 0.3,
      "velocity": 0.52,
      "hand": "right"
    },
    {
      "midi": 69,
      "time": 59.1,
      "duration": 0.15,
      "velocity": 0.63,
      "hand": "right"
    },
    {
      "midi": 35,
      "time": 59.4,
      "duration": 0.075,
      "velocity": 0.7,
      "hand": "left"
    },
    {
      "midi": 38,
      "time": 59.4,
      "duration": 0.6,
      "velocity": 0.94,
      "hand": "left"
    },
    {
      "midi": 42,
      "time": 59.4,
      "duration": 0.075,
      "velocity": 0.5,
      "hand": "left"
    },
    {
      "midi": 51,
      "time": 59.4,
      "duration": 0.075,
      "velocity": 0.54,
      "hand": "left"
    },
    {
      "midi": 52,
      "time": 59.4,
      "duration": 0.3,
      "velocity": 0.63,
      "hand": "left"
    },
    {
      "midi": 53,
      "time": 59.4,
      "duration": 0.15,
      "velocity": 0.63,
      "hand": "left"
    },
    {
      "midi": 57,
      "time": 59.4,
      "duration": 0.15,
      "velocity": 0.56,
      "hand": "left"
    },
    {
      "midi": 59,
      "time": 59.4,
      "duration": 0.15,
      "velocity": 0.57,
      "hand": "left"
    },
    {
      "midi": 64,
      "time": 59.4,
      "duration": 0.15,
      "velocity": 0.56,
      "hand": "right"
    },
    {
      "midi": 64,
      "time": 59.4,
      "duration": 0.3,
      "velocity": 0.63,
      "hand": "right"
    },
    {
      "midi": 38,
      "time": 59.7,
      "duration": 0.075,
      "velocity": 0.53,
      "hand": "left"
    },
    {
      "midi": 42,
      "time": 59.7,
      "duration": 0.075,
      "velocity": 0.54,
      "hand": "left"
    },
    {
      "midi": 51,
      "time": 59.7,
      "duration": 0.075,
      "velocity": 0.54,
      "hand": "left"
    },
    {
      "midi": 54,
      "time": 59.7,
      "duration": 0.075,
      "velocity": 0.57,
      "hand": "left"
    },
    {
      "midi": 55,
      "time": 59.7,
      "duration": 0.15,
      "velocity": 0.54,
      "hand": "left"
    },
    {
      "midi": 59,
      "time": 59.7,
      "duration": 0.075,
      "velocity": 0.7,
      "hand": "left"
    },
    {
      "midi": 62,
      "time": 59.7,
      "duration": 0.075,
      "velocity": 0.72,
      "hand": "right"
    },
    {
      "midi": 64,
      "time": 59.7,
      "duration": 0.075,
      "velocity": 0.58,
      "hand": "right"
    },
    {
      "midi": 65,
      "time": 59.7,
      "duration": 0.075,
      "velocity": 0.35,
      "hand": "right"
    },
    {
      "midi": 67,
      "time": 59.7,
      "duration": 0.15,
      "velocity": 0.54,
      "hand": "right"
    },
    {
      "midi": 69,
      "time": 59.7,
      "duration": 0.15,
      "velocity": 0.68,
      "hand": "right"
    },
    {
      "midi": 35,
      "time": 60,
      "duration": 0.075,
      "velocity": 0.69,
      "hand": "left"
    },
    {
      "midi": 37,
      "time": 60,
      "duration": 0.45,
      "velocity": 0.94,
      "hand": "left"
    },
    {
      "midi": 42,
      "time": 60,
      "duration": 0.075,
      "velocity": 0.54,
      "hand": "left"
    },
    {
      "midi": 51,
      "time": 60,
      "duration": 0.075,
      "velocity": 0.51,
      "hand": "left"
    },
    {
      "midi": 53,
      "time": 60,
      "duration": 0.15,
      "velocity": 0.65,
      "hand": "left"
    },
    {
      "midi": 56,
      "time": 60,
      "duration": 0.45,
      "velocity": 0.57,
      "hand": "left"
    },
    {
      "midi": 57,
      "time": 60,
      "duration": 0.15,
      "velocity": 0.57,
      "hand": "left"
    },
    {
      "midi": 57,
      "time": 60,
      "duration": 0.45,
      "velocity": 0.54,
      "hand": "left"
    },
    {
      "midi": 60,
      "time": 60,
      "duration": 0.15,
      "velocity": 0.58,
      "hand": "right"
    },
    {
      "midi": 60,
      "time": 60,
      "duration": 0.3,
      "velocity": 0.58,
      "hand": "right"
    },
    {
      "midi": 60,
      "time": 60,
      "duration": 0.45,
      "velocity": 0.56,
      "hand": "right"
    },
    {
      "midi": 62,
      "time": 60,
      "duration": 0.3,
      "velocity": 0.57,
      "hand": "right"
    },
    {
      "midi": 62,
      "time": 60,
      "duration": 0.45,
      "velocity": 0.5,
      "hand": "right"
    },
    {
      "midi": 64,
      "time": 60,
      "duration": 0.15,
      "velocity": 0.54,
      "hand": "right"
    },
    {
      "midi": 65,
      "time": 60,
      "duration": 0.15,
      "velocity": 0.65,
      "hand": "right"
    },
    {
      "midi": 65,
      "time": 60,
      "duration": 0.3,
      "velocity": 0.55,
      "hand": "right"
    },
    {
      "midi": 65,
      "time": 60,
      "duration": 0.45,
      "velocity": 0.47,
      "hand": "right"
    },
    {
      "midi": 65,
      "time": 60,
      "duration": 0.15,
      "velocity": 0.65,
      "hand": "right"
    },
    {
      "midi": 67,
      "time": 60,
      "duration": 0.15,
      "velocity": 0.5,
      "hand": "right"
    },
    {
      "midi": 38,
      "time": 60.3,
      "duration": 0.075,
      "velocity": 0.54,
      "hand": "left"
    },
    {
      "midi": 42,
      "time": 60.3,
      "duration": 0.075,
      "velocity": 0.57,
      "hand": "left"
    },
    {
      "midi": 51,
      "time": 60.3,
      "duration": 0.075,
      "velocity": 0.55,
      "hand": "left"
    },
    {
      "midi": 53,
      "time": 60.3,
      "duration": 0.3,
      "velocity": 0.54,
      "hand": "left"
    },
    {
      "midi": 54,
      "time": 60.3,
      "duration": 0.075,
      "velocity": 0.54,
      "hand": "left"
    },
    {
      "midi": 57,
      "time": 60.3,
      "duration": 0.15,
      "velocity": 0.54,
      "hand": "left"
    },
    {
      "midi": 57,
      "time": 60.3,
      "duration": 0.075,
      "velocity": 0.64,
      "hand": "left"
    },
    {
      "midi": 60,
      "time": 60.3,
      "duration": 0.15,
      "velocity": 0.53,
      "hand": "right"
    },
    {
      "midi": 60,
      "time": 60.3,
      "duration": 0.075,
      "velocity": 0.7,
      "hand": "right"
    },
    {
      "midi": 64,
      "time": 60.3,
      "duration": 0.15,
      "velocity": 0.52,
      "hand": "right"
    },
    {
      "midi": 64,
      "time": 60.3,
      "duration": 0.075,
      "velocity": 0.54,
      "hand": "right"
    },
    {
      "midi": 65,
      "time": 60.3,
      "duration": 0.075,
      "velocity": 0.51,
      "hand": "right"
    },
    {
      "midi": 65,
      "time": 60.3,
      "duration": 0.3,
      "velocity": 0.54,
      "hand": "right"
    },
    {
      "midi": 67,
      "time": 60.3,
      "duration": 0.15,
      "velocity": 0.39,
      "hand": "right"
    },
    {
      "midi": 67,
      "time": 60.3,
      "duration": 0.075,
      "velocity": 0.61,
      "hand": "right"
    },
    {
      "midi": 70,
      "time": 60.3,
      "duration": 0.075,
      "velocity": 0.72,
      "hand": "right"
    },
    {
      "midi": 35,
      "time": 60.6,
      "duration": 0.075,
      "velocity": 0.56,
      "hand": "left"
    },
    {
      "midi": 37,
      "time": 60.6,
      "duration": 0.6,
      "velocity": 0.98,
      "hand": "left"
    },
    {
      "midi": 42,
      "time": 60.6,
      "duration": 0.075,
      "velocity": 0.57,
      "hand": "left"
    },
    {
      "midi": 51,
      "time": 60.6,
      "duration": 0.075,
      "velocity": 0.5,
      "hand": "left"
    },
    {
      "midi": 52,
      "time": 60.6,
      "duration": 0.3,
      "velocity": 0.61,
      "hand": "left"
    },
    {
      "midi": 55,
      "time": 60.6,
      "duration": 0.3,
      "velocity": 0.54,
      "hand": "left"
    },
    {
      "midi": 56,
      "time": 60.6,
      "duration": 0.15,
      "velocity": 0.55,
      "hand": "left"
    },
    {
      "midi": 56,
      "time": 60.6,
      "duration": 0.45,
      "velocity": 0.46,
      "hand": "left"
    },
    {
      "midi": 59,
      "time": 60.6,
      "duration": 0.15,
      "velocity": 0.55,
      "hand": "left"
    },
    {
      "midi": 59,
      "time": 60.6,
      "duration": 0.3,
      "velocity": 0.52,
      "hand": "left"
    },
    {
      "midi": 62,
      "time": 60.6,
      "duration": 0.3,
      "velocity": 0.51,
      "hand": "right"
    },
    {
      "midi": 63,
      "time": 60.6,
      "duration": 0.15,
      "velocity": 0.51,
      "hand": "right"
    },
    {
      "midi": 63,
      "time": 60.6,
      "duration": 0.45,
      "velocity": 0.54,
      "hand": "right"
    },
    {
      "midi": 64,
      "time": 60.6,
      "duration": 0.3,
      "velocity": 0.61,
      "hand": "right"
    },
    {
      "midi": 65,
      "time": 60.6,
      "duration": 0.3,
      "velocity": 0.47,
      "hand": "right"
    },
    {
      "midi": 67,
      "time": 60.6,
      "duration": 0.15,
      "velocity": 0.37,
      "hand": "right"
    },
    {
      "midi": 67,
      "time": 60.6,
      "duration": 0.45,
      "velocity": 0.36,
      "hand": "right"
    },
    {
      "midi": 68,
      "time": 60.6,
      "duration": 0.15,
      "velocity": 0.37,
      "hand": "right"
    },
    {
      "midi": 70,
      "time": 60.6,
      "duration": 0.075,
      "velocity": 0.69,
      "hand": "right"
    },
    {
      "midi": 38,
      "time": 60.9,
      "duration": 0.075,
      "velocity": 0.55,
      "hand": "left"
    },
    {
      "midi": 42,
      "time": 60.9,
      "duration": 0.075,
      "velocity": 0.54,
      "hand": "left"
    },
    {
      "midi": 50,
      "time": 60.9,
      "duration": 0.3,
      "velocity": 0.57,
      "hand": "left"
    },
    {
      "midi": 51,
      "time": 60.9,
      "duration": 0.075,
      "velocity": 0.54,
      "hand": "left"
    },
    {
      "midi": 54,
      "time": 60.9,
      "duration": 0.075,
      "velocity": 0.64,
      "hand": "left"
    },
    {
      "midi": 56,
      "time": 60.9,
      "duration": 0.15,
      "velocity": 0.53,
      "hand": "left"
    },
    {
      "midi": 59,
      "time": 60.9,
      "duration": 0.15,
      "velocity": 0.55,
      "hand": "left"
    },
    {
      "midi": 62,
      "time": 60.9,
      "duration": 0.3,
      "velocity": 0.57,
      "hand": "right"
    },
    {
      "midi": 63,
      "time": 60.9,
      "duration": 0.15,
      "velocity": 0.43,
      "hand": "right"
    },
    {
      "midi": 67,
      "time": 60.9,
      "duration": 0.15,
      "velocity": 0.49,
      "hand": "right"
    },
    {
      "midi": 70,
      "time": 60.9,
      "duration": 0.075,
      "velocity": 0.7,
      "hand": "right"
    },
    {
      "midi": 35,
      "time": 61.2,
      "duration": 0.075,
      "velocity": 0.59,
      "hand": "left"
    },
    {
      "midi": 36,
      "time": 61.2,
      "duration": 0.6,
      "velocity": 0.96,
      "hand": "left"
    },
    {
      "midi": 42,
      "time": 61.2,
      "duration": 0.075,
      "velocity": 0.73,
      "hand": "left"
    },
    {
      "midi": 57,
      "time": 61.2,
      "duration": 0.15,
      "velocity": 0.61,
      "hand": "left"
    },
    {
      "midi": 57,
      "time": 61.2,
      "duration": 0.9,
      "velocity": 0.54,
      "hand": "left"
    },
    {
      "midi": 57,
      "time": 61.2,
      "duration": 0.6,
      "velocity": 0.59,
      "hand": "left"
    },
    {
      "midi": 57,
      "time": 61.2,
      "duration": 0.075,
      "velocity": 0.52,
      "hand": "left"
    },
    {
      "midi": 60,
      "time": 61.2,
      "duration": 0.6,
      "velocity": 0.72,
      "hand": "right"
    },
    {
      "midi": 60,
      "time": 61.2,
      "duration": 0.75,
      "velocity": 0.73,
      "hand": "right"
    },
    {
      "midi": 60,
      "time": 61.2,
      "duration": 0.6,
      "velocity": 0.72,
      "hand": "right"
    },
    {
      "midi": 60,
      "time": 61.2,
      "duration": 0.75,
      "velocity": 0.73,
      "hand": "right"
    },
    {
      "midi": 62,
      "time": 61.2,
      "duration": 0.15,
      "velocity": 0.58,
      "hand": "right"
    },
    {
      "midi": 62,
      "time": 61.2,
      "duration": 0.075,
      "velocity": 0.56,
      "hand": "right"
    },
    {
      "midi": 62,
      "time": 61.2,
      "duration": 0.9,
      "velocity": 0.46,
      "hand": "right"
    },
    {
      "midi": 62,
      "time": 61.2,
      "duration": 0.6,
      "velocity": 0.7,
      "hand": "right"
    },
    {
      "midi": 67,
      "time": 61.2,
      "duration": 0.15,
      "velocity": 0.57,
      "hand": "right"
    },
    {
      "midi": 67,
      "time": 61.2,
      "duration": 0.9,
      "velocity": 0.5,
      "hand": "right"
    },
    {
      "midi": 67,
      "time": 61.2,
      "duration": 0.6,
      "velocity": 0.63,
      "hand": "right"
    },
    {
      "midi": 38,
      "time": 61.5,
      "duration": 0.075,
      "velocity": 0.57,
      "hand": "left"
    },
    {
      "midi": 42,
      "time": 61.5,
      "duration": 0.075,
      "velocity": 0.65,
      "hand": "left"
    },
    {
      "midi": 51,
      "time": 61.5,
      "duration": 0.075,
      "velocity": 0.56,
      "hand": "left"
    },
    {
      "midi": 54,
      "time": 61.5,
      "duration": 0.075,
      "velocity": 0.68,
      "hand": "left"
    },
    {
      "midi": 57,
      "time": 61.5,
      "duration": 0.15,
      "velocity": 0.55,
      "hand": "left"
    },
    {
      "midi": 62,
      "time": 61.5,
      "duration": 0.075,
      "velocity": 0.56,
      "hand": "right"
    },
    {
      "midi": 67,
      "time": 61.5,
      "duration": 0.15,
      "velocity": 0.52,
      "hand": "right"
    },
    {
      "midi": 70,
      "time": 61.5,
      "duration": 0.075,
      "velocity": 0.72,
      "hand": "right"
    },
    {
      "midi": 57,
      "time": 61.65,
      "duration": 0.15,
      "velocity": 0.51,
      "hand": "left"
    },
    {
      "midi": 62,
      "time": 61.65,
      "duration": 0.075,
      "velocity": 0.51,
      "hand": "right"
    },
    {
      "midi": 67,
      "time": 61.65,
      "duration": 0.15,
      "velocity": 0.54,
      "hand": "right"
    },
    {
      "midi": 31,
      "time": 61.8,
      "duration": 0.45,
      "velocity": 0.96,
      "hand": "left"
    },
    {
      "midi": 35,
      "time": 61.8,
      "duration": 0.075,
      "velocity": 0.55,
      "hand": "left"
    },
    {
      "midi": 42,
      "time": 61.8,
      "duration": 0.075,
      "velocity": 0.59,
      "hand": "left"
    },
    {
      "midi": 51,
      "time": 61.8,
      "duration": 0.075,
      "velocity": 0.57,
      "hand": "left"
    },
    {
      "midi": 57,
      "time": 61.8,
      "duration": 0.075,
      "velocity": 0.5,
      "hand": "left"
    },
    {
      "midi": 62,
      "time": 61.8,
      "duration": 0.075,
      "velocity": 0.72,
      "hand": "right"
    },
    {
      "midi": 64,
      "time": 61.8,
      "duration": 0.3,
      "velocity": 0.65,
      "hand": "right"
    },
    {
      "midi": 67,
      "time": 61.8,
      "duration": 0.15,
      "velocity": 0.5,
      "hand": "right"
    },
    {
      "midi": 70,
      "time": 61.8,
      "duration": 0.075,
      "velocity": 0.69,
      "hand": "right"
    },
    {
      "midi": 38,
      "time": 62.1,
      "duration": 0.075,
      "velocity": 0.53,
      "hand": "left"
    },
    {
      "midi": 42,
      "time": 62.1,
      "duration": 0.075,
      "velocity": 0.58,
      "hand": "left"
    },
    {
      "midi": 51,
      "time": 62.1,
      "duration": 0.075,
      "velocity": 0.49,
      "hand": "left"
    },
    {
      "midi": 54,
      "time": 62.1,
      "duration": 0.075,
      "velocity": 0.56,
      "hand": "left"
    },
    {
      "midi": 57,
      "time": 62.1,
      "duration": 0.75,
      "velocity": 0.65,
      "hand": "left"
    },
    {
      "midi": 57,
      "time": 62.1,
      "duration": 0.15,
      "velocity": 0.69,
      "hand": "left"
    },
    {
      "midi": 62,
      "time": 62.1,
      "duration": 0.75,
      "velocity": 0.72,
      "hand": "right"
    },
    {
      "midi": 62,
      "time": 62.1,
      "duration": 0.075,
      "velocity": 0.73,
      "hand": "right"
    },
    {
      "midi": 67,
      "time": 62.1,
      "duration": 0.75,
      "velocity": 0.61,
      "hand": "right"
    },
    {
      "midi": 67,
      "time": 62.1,
      "duration": 0.15,
      "velocity": 0.57,
      "hand": "right"
    },
    {
      "midi": 67,
      "time": 62.1,
      "duration": 0.6,
      "velocity": 0.54,
      "hand": "right"
    },
    {
      "midi": 70,
      "time": 62.1,
      "duration": 0.075,
      "velocity": 0.68,
      "hand": "right"
    },
    {
      "midi": 35,
      "time": 62.4,
      "duration": 0.075,
      "velocity": 0.55,
      "hand": "left"
    },
    {
      "midi": 36,
      "time": 62.4,
      "duration": 0.6,
      "velocity": 0.96,
      "hand": "left"
    },
    {
      "midi": 42,
      "time": 62.4,
      "duration": 0.075,
      "velocity": 0.61,
      "hand": "left"
    },
    {
      "midi": 51,
      "time": 62.4,
      "duration": 0.075,
      "velocity": 0.51,
      "hand": "left"
    },
    {
      "midi": 70,
      "time": 62.4,
      "duration": 0.075,
      "velocity": 0.61,
      "hand": "right"
    },
    {
      "midi": 38,
      "time": 62.7,
      "duration": 0.075,
      "velocity": 0.54,
      "hand": "left"
    },
    {
      "midi": 42,
      "time": 62.7,
      "duration": 0.075,
      "velocity": 0.61,
      "hand": "left"
    },
    {
      "midi": 51,
      "time": 62.7,
      "duration": 0.075,
      "velocity": 0.52,
      "hand": "left"
    },
    {
      "midi": 54,
      "time": 62.7,
      "duration": 0.075,
      "velocity": 0.68,
      "hand": "left"
    },
    {
      "midi": 57,
      "time": 62.7,
      "duration": 0.15,
      "velocity": 0.64,
      "hand": "left"
    },
    {
      "midi": 62,
      "time": 62.7,
      "duration": 0.075,
      "velocity": 0.72,
      "hand": "right"
    },
    {
      "midi": 64,
      "time": 62.7,
      "duration": 0.3,
      "velocity": 0.51,
      "hand": "right"
    },
    {
      "midi": 67,
      "time": 62.7,
      "duration": 0.075,
      "velocity": 0.55,
      "hand": "right"
    },
    {
      "midi": 31,
      "time": 63,
      "duration": 0.6,
      "velocity": 0.96,
      "hand": "left"
    },
    {
      "midi": 35,
      "time": 63,
      "duration": 0.075,
      "velocity": 0.68,
      "hand": "left"
    },
    {
      "midi": 42,
      "time": 63,
      "duration": 0.075,
      "velocity": 0.58,
      "hand": "left"
    },
    {
      "midi": 51,
      "time": 63,
      "duration": 0.075,
      "velocity": 0.49,
      "hand": "left"
    },
    {
      "midi": 57,
      "time": 63,
      "duration": 0.15,
      "velocity": 0.61,
      "hand": "left"
    },
    {
      "midi": 60,
      "time": 63,
      "duration": 0.45,
      "velocity": 0.57,
      "hand": "right"
    },
    {
      "midi": 62,
      "time": 63,
      "duration": 0.15,
      "velocity": 0.72,
      "hand": "right"
    },
    {
      "midi": 62,
      "time": 63,
      "duration": 0.075,
      "velocity": 0.72,
      "hand": "right"
    },
    {
      "midi": 62,
      "time": 63,
      "duration": 0.3,
      "velocity": 0.53,
      "hand": "right"
    },
    {
      "midi": 64,
      "time": 63,
      "duration": 0.45,
      "velocity": 0.68,
      "hand": "right"
    },
    {
      "midi": 67,
      "time": 63,
      "duration": 0.15,
      "velocity": 0.63,
      "hand": "right"
    },
    {
      "midi": 67,
      "time": 63,
      "duration": 0.075,
      "velocity": 0.54,
      "hand": "right"
    },
    {
      "midi": 69,
      "time": 63,
      "duration": 0.45,
      "velocity": 0.63,
      "hand": "right"
    },
    {
      "midi": 38,
      "time": 63.3,
      "duration": 0.075,
      "velocity": 0.53,
      "hand": "left"
    },
    {
      "midi": 42,
      "time": 63.3,
      "duration": 0.075,
      "velocity": 0.57,
      "hand": "left"
    },
    {
      "midi": 51,
      "time": 63.3,
      "duration": 0.075,
      "velocity": 0.56,
      "hand": "left"
    },
    {
      "midi": 54,
      "time": 63.3,
      "duration": 0.075,
      "velocity": 0.55,
      "hand": "left"
    },
    {
      "midi": 57,
      "time": 63.3,
      "duration": 0.15,
      "velocity": 0.49,
      "hand": "left"
    },
    {
      "midi": 60,
      "time": 63.3,
      "duration": 0.3,
      "velocity": 0.54,
      "hand": "right"
    },
    {
      "midi": 62,
      "time": 63.3,
      "duration": 0.075,
      "velocity": 0.57,
      "hand": "right"
    },
    {
      "midi": 67,
      "time": 63.3,
      "duration": 0.15,
      "velocity": 0.55,
      "hand": "right"
    },
    {
      "midi": 35,
      "time": 63.6,
      "duration": 0.6,
      "velocity": 0.96,
      "hand": "left"
    },
    {
      "midi": 35,
      "time": 63.6,
      "duration": 0.075,
      "velocity": 0.69,
      "hand": "left"
    },
    {
      "midi": 42,
      "time": 63.6,
      "duration": 0.075,
      "velocity": 0.54,
      "hand": "left"
    },
    {
      "midi": 51,
      "time": 63.6,
      "duration": 0.075,
      "velocity": 0.54,
      "hand": "left"
    },
    {
      "midi": 55,
      "time": 63.6,
      "duration": 0.75,
      "velocity": 0.61,
      "hand": "left"
    },
    {
      "midi": 55,
      "time": 63.6,
      "duration": 1.95,
      "velocity": 0.25,
      "hand": "left"
    },
    {
      "midi": 59,
      "time": 63.6,
      "duration": 0.75,
      "velocity": 0.61,
      "hand": "left"
    },
    {
      "midi": 59,
      "time": 63.6,
      "duration": 0.15,
      "velocity": 0.51,
      "hand": "left"
    },
    {
      "midi": 59,
      "time": 63.6,
      "duration": 0.6,
      "velocity": 0.57,
      "hand": "left"
    },
    {
      "midi": 59,
      "time": 63.6,
      "duration": 1.95,
      "velocity": 0.54,
      "hand": "left"
    },
    {
      "midi": 59,
      "time": 63.6,
      "duration": 0.6,
      "velocity": 0.57,
      "hand": "left"
    },
    {
      "midi": 60,
      "time": 63.6,
      "duration": 1.95,
      "velocity": 0.54,
      "hand": "right"
    },
    {
      "midi": 62,
      "time": 63.6,
      "duration": 0.75,
      "velocity": 0.55,
      "hand": "right"
    },
    {
      "midi": 62,
      "time": 63.6,
      "duration": 0.075,
      "velocity": 0.72,
      "hand": "right"
    },
    {
      "midi": 64,
      "time": 63.6,
      "duration": 0.75,
      "velocity": 0.53,
      "hand": "right"
    },
    {
      "midi": 64,
      "time": 63.6,
      "duration": 0.075,
      "velocity": 0.65,
      "hand": "right"
    },
    {
      "midi": 64,
      "time": 63.6,
      "duration": 1.95,
      "velocity": 0.56,
      "hand": "right"
    },
    {
      "midi": 67,
      "time": 63.6,
      "duration": 0.075,
      "velocity": 0.38,
      "hand": "right"
    },
    {
      "midi": 67,
      "time": 63.6,
      "duration": 2.1,
      "velocity": 0.63,
      "hand": "right"
    },
    {
      "midi": 71,
      "time": 63.6,
      "duration": 2.1,
      "velocity": 0.57,
      "hand": "right"
    },
    {
      "midi": 38,
      "time": 63.9,
      "duration": 0.075,
      "velocity": 0.58,
      "hand": "left"
    },
    {
      "midi": 42,
      "time": 63.9,
      "duration": 0.075,
      "velocity": 0.63,
      "hand": "left"
    },
    {
      "midi": 51,
      "time": 63.9,
      "duration": 0.075,
      "velocity": 0.55,
      "hand": "left"
    },
    {
      "midi": 54,
      "time": 63.9,
      "duration": 0.075,
      "velocity": 0.52,
      "hand": "left"
    },
    {
      "midi": 70,
      "time": 63.9,
      "duration": 0.075,
      "velocity": 0.72,
      "hand": "right"
    },
    {
      "midi": 59,
      "time": 64.05,
      "duration": 0.15,
      "velocity": 0.61,
      "hand": "left"
    },
    {
      "midi": 62,
      "time": 64.05,
      "duration": 0.075,
      "velocity": 0.57,
      "hand": "right"
    },
    {
      "midi": 64,
      "time": 64.05,
      "duration": 0.075,
      "velocity": 0.55,
      "hand": "right"
    },
    {
      "midi": 67,
      "time": 64.05,
      "duration": 0.15,
      "velocity": 0.53,
      "hand": "right"
    },
    {
      "midi": 35,
      "time": 64.2,
      "duration": 0.075,
      "velocity": 0.7,
      "hand": "left"
    },
    {
      "midi": 40,
      "time": 64.2,
      "duration": 0.6,
      "velocity": 0.96,
      "hand": "left"
    },
    {
      "midi": 42,
      "time": 64.2,
      "duration": 0.075,
      "velocity": 0.54,
      "hand": "left"
    },
    {
      "midi": 51,
      "time": 64.2,
      "duration": 0.075,
      "velocity": 0.51,
      "hand": "left"
    },
    {
      "midi": 59,
      "time": 64.2,
      "duration": 0.075,
      "velocity": 0.52,
      "hand": "left"
    },
    {
      "midi": 62,
      "time": 64.2,
      "duration": 0.075,
      "velocity": 0.56,
      "hand": "right"
    },
    {
      "midi": 64,
      "time": 64.2,
      "duration": 0.075,
      "velocity": 0.59,
      "hand": "right"
    },
    {
      "midi": 67,
      "time": 64.2,
      "duration": 0.075,
      "velocity": 0.42,
      "hand": "right"
    },
    {
      "midi": 69,
      "time": 64.2,
      "duration": 0.3,
      "velocity": 0.56,
      "hand": "right"
    },
    {
      "midi": 70,
      "time": 64.2,
      "duration": 0.075,
      "velocity": 0.72,
      "hand": "right"
    },
    {
      "midi": 38,
      "time": 64.5,
      "duration": 0.075,
      "velocity": 0.52,
      "hand": "left"
    },
    {
      "midi": 42,
      "time": 64.5,
      "duration": 0.075,
      "velocity": 0.54,
      "hand": "left"
    },
    {
      "midi": 51,
      "time": 64.5,
      "duration": 0.075,
      "velocity": 0.54,
      "hand": "left"
    },
    {
      "midi": 54,
      "time": 64.5,
      "duration": 0.075,
      "velocity": 0.57,
      "hand": "left"
    },
    {
      "midi": 55,
      "time": 64.5,
      "duration": 0.75,
      "velocity": 0.63,
      "hand": "left"
    },
    {
      "midi": 59,
      "time": 64.5,
      "duration": 0.75,
      "velocity": 0.68,
      "hand": "left"
    },
    {
      "midi": 59,
      "time": 64.5,
      "duration": 0.15,
      "velocity": 0.57,
      "hand": "left"
    },
    {
      "midi": 62,
      "time": 64.5,
      "duration": 0.75,
      "velocity": 0.61,
      "hand": "right"
    },
    {
      "midi": 62,
      "time": 64.5,
      "duration": 0.075,
      "velocity": 0.69,
      "hand": "right"
    },
    {
      "midi": 64,
      "time": 64.5,
      "duration": 0.75,
      "velocity": 0.55,
      "hand": "right"
    },
    {
      "midi": 64,
      "time": 64.5,
      "duration": 0.075,
      "velocity": 0.72,
      "hand": "right"
    },
    {
      "midi": 67,
      "time": 64.5,
      "duration": 0.15,
      "velocity": 0.55,
      "hand": "right"
    },
    {
      "midi": 67,
      "time": 64.5,
      "duration": 0.9,
      "velocity": 0.54,
      "hand": "right"
    },
    {
      "midi": 70,
      "time": 64.5,
      "duration": 0.075,
      "velocity": 0.58,
      "hand": "right"
    },
    {
      "midi": 35,
      "time": 64.8,
      "duration": 0.6,
      "velocity": 0.96,
      "hand": "left"
    },
    {
      "midi": 35,
      "time": 64.8,
      "duration": 0.075,
      "velocity": 0.51,
      "hand": "left"
    },
    {
      "midi": 42,
      "time": 64.8,
      "duration": 0.075,
      "velocity": 0.57,
      "hand": "left"
    },
    {
      "midi": 51,
      "time": 64.8,
      "duration": 0.075,
      "velocity": 0.56,
      "hand": "left"
    },
    {
      "midi": 70,
      "time": 64.8,
      "duration": 0.075,
      "velocity": 0.72,
      "hand": "right"
    },
    {
      "midi": 38,
      "time": 65.1,
      "duration": 0.075,
      "velocity": 0.57,
      "hand": "left"
    },
    {
      "midi": 42,
      "time": 65.1,
      "duration": 0.075,
      "velocity": 0.58,
      "hand": "left"
    },
    {
      "midi": 51,
      "time": 65.1,
      "duration": 0.075,
      "velocity": 0.54,
      "hand": "left"
    },
    {
      "midi": 54,
      "time": 65.1,
      "duration": 0.075,
      "velocity": 0.52,
      "hand": "left"
    },
    {
      "midi": 59,
      "time": 65.1,
      "duration": 0.075,
      "velocity": 0.63,
      "hand": "left"
    },
    {
      "midi": 62,
      "time": 65.1,
      "duration": 0.075,
      "velocity": 0.68,
      "hand": "right"
    },
    {
      "midi": 64,
      "time": 65.1,
      "duration": 0.075,
      "velocity": 0.58,
      "hand": "right"
    },
    {
      "midi": 67,
      "time": 65.1,
      "duration": 0.075,
      "velocity": 0.54,
      "hand": "right"
    },
    {
      "midi": 35,
      "time": 65.4,
      "duration": 0.075,
      "velocity": 0.72,
      "hand": "left"
    },
    {
      "midi": 40,
      "time": 65.4,
      "duration": 0.45,
      "velocity": 0.96,
      "hand": "left"
    },
    {
      "midi": 42,
      "time": 65.4,
      "duration": 0.075,
      "velocity": 0.54,
      "hand": "left"
    },
    {
      "midi": 51,
      "time": 65.4,
      "duration": 0.075,
      "velocity": 0.57,
      "hand": "left"
    },
    {
      "midi": 55,
      "time": 65.4,
      "duration": 0.3,
      "velocity": 0.58,
      "hand": "left"
    },
    {
      "midi": 59,
      "time": 65.4,
      "duration": 0.3,
      "velocity": 0.69,
      "hand": "left"
    },
    {
      "midi": 59,
      "time": 65.4,
      "duration": 0.15,
      "velocity": 0.72,
      "hand": "left"
    },
    {
      "midi": 62,
      "time": 65.4,
      "duration": 0.45,
      "velocity": 0.56,
      "hand": "right"
    },
    {
      "midi": 62,
      "time": 65.4,
      "duration": 0.075,
      "velocity": 0.72,
      "hand": "right"
    },
    {
      "midi": 64,
      "time": 65.4,
      "duration": 0.45,
      "velocity": 0.54,
      "hand": "right"
    },
    {
      "midi": 64,
      "time": 65.4,
      "duration": 0.075,
      "velocity": 0.69,
      "hand": "right"
    },
    {
      "midi": 67,
      "time": 65.4,
      "duration": 0.15,
      "velocity": 0.57,
      "hand": "right"
    },
    {
      "midi": 38,
      "time": 65.7,
      "duration": 0.075,
      "velocity": 0.56,
      "hand": "left"
    },
    {
      "midi": 42,
      "time": 65.7,
      "duration": 0.075,
      "velocity": 0.5,
      "hand": "left"
    },
    {
      "midi": 51,
      "time": 65.7,
      "duration": 0.075,
      "velocity": 0.56,
      "hand": "left"
    },
    {
      "midi": 54,
      "time": 65.7,
      "duration": 0.075,
      "velocity": 0.55,
      "hand": "left"
    },
    {
      "midi": 59,
      "time": 65.7,
      "duration": 0.15,
      "velocity": 0.54,
      "hand": "left"
    },
    {
      "midi": 62,
      "time": 65.7,
      "duration": 0.15,
      "velocity": 0.56,
      "hand": "right"
    },
    {
      "midi": 64,
      "time": 65.7,
      "duration": 0.075,
      "velocity": 0.55,
      "hand": "right"
    },
    {
      "midi": 67,
      "time": 65.7,
      "duration": 0.15,
      "velocity": 0.54,
      "hand": "right"
    },
    {
      "midi": 35,
      "time": 66,
      "duration": 0.075,
      "velocity": 0.57,
      "hand": "left"
    },
    {
      "midi": 38,
      "time": 66,
      "duration": 0.6,
      "velocity": 0.96,
      "hand": "left"
    },
    {
      "midi": 42,
      "time": 66,
      "duration": 0.075,
      "velocity": 0.55,
      "hand": "left"
    },
    {
      "midi": 51,
      "time": 66,
      "duration": 0.075,
      "velocity": 0.56,
      "hand": "left"
    },
    {
      "midi": 57,
      "time": 66,
      "duration": 0.45,
      "velocity": 0.72,
      "hand": "left"
    },
    {
      "midi": 57,
      "time": 66,
      "duration": 0.15,
      "velocity": 0.72,
      "hand": "left"
    },
    {
      "midi": 57,
      "time": 66,
      "duration": 0.45,
      "velocity": 0.73,
      "hand": "left"
    },
    {
      "midi": 57,
      "time": 66,
      "duration": 0.9,
      "velocity": 0.49,
      "hand": "left"
    },
    {
      "midi": 57,
      "time": 66,
      "duration": 0.45,
      "velocity": 0.73,
      "hand": "left"
    },
    {
      "midi": 60,
      "time": 66,
      "duration": 0.45,
      "velocity": 0.7,
      "hand": "right"
    },
    {
      "midi": 60,
      "time": 66,
      "duration": 0.9,
      "velocity": 0.5,
      "hand": "right"
    },
    {
      "midi": 62,
      "time": 66,
      "duration": 0.15,
      "velocity": 0.72,
      "hand": "right"
    },
    {
      "midi": 62,
      "time": 66,
      "duration": 1.2,
      "velocity": 0.51,
      "hand": "right"
    },
    {
      "midi": 62,
      "time": 66,
      "duration": 1.05,
      "velocity": 0.56,
      "hand": "right"
    },
    {
      "midi": 65,
      "time": 66,
      "duration": 0.45,
      "velocity": 0.68,
      "hand": "right"
    },
    {
      "midi": 65,
      "time": 66,
      "duration": 0.15,
      "velocity": 0.7,
      "hand": "right"
    },
    {
      "midi": 65,
      "time": 66,
      "duration": 1.05,
      "velocity": 0.5,
      "hand": "right"
    },
    {
      "midi": 69,
      "time": 66,
      "duration": 1.05,
      "velocity": 0.63,
      "hand": "right"
    },
    {
      "midi": 72,
      "time": 66,
      "duration": 1.05,
      "velocity": 0.56,
      "hand": "right"
    },
    {
      "midi": 38,
      "time": 66.3,
      "duration": 0.075,
      "velocity": 0.54,
      "hand": "left"
    },
    {
      "midi": 42,
      "time": 66.3,
      "duration": 0.075,
      "velocity": 0.54,
      "hand": "left"
    },
    {
      "midi": 51,
      "time": 66.3,
      "duration": 0.075,
      "velocity": 0.54,
      "hand": "left"
    },
    {
      "midi": 54,
      "time": 66.3,
      "duration": 0.075,
      "velocity": 0.55,
      "hand": "left"
    },
    {
      "midi": 70,
      "time": 66.3,
      "duration": 0.075,
      "velocity": 0.73,
      "hand": "right"
    },
    {
      "midi": 57,
      "time": 66.45,
      "duration": 0.15,
      "velocity": 0.63,
      "hand": "left"
    },
    {
      "midi": 62,
      "time": 66.45,
      "duration": 0.075,
      "velocity": 0.72,
      "hand": "right"
    },
    {
      "midi": 65,
      "time": 66.45,
      "duration": 0.075,
      "velocity": 0.57,
      "hand": "right"
    },
    {
      "midi": 33,
      "time": 66.6,
      "duration": 0.6,
      "velocity": 0.96,
      "hand": "left"
    },
    {
      "midi": 35,
      "time": 66.6,
      "duration": 0.075,
      "velocity": 0.68,
      "hand": "left"
    },
    {
      "midi": 42,
      "time": 66.6,
      "duration": 0.075,
      "velocity": 0.53,
      "hand": "left"
    },
    {
      "midi": 51,
      "time": 66.6,
      "duration": 0.075,
      "velocity": 0.54,
      "hand": "left"
    },
    {
      "midi": 57,
      "time": 66.6,
      "duration": 0.45,
      "velocity": 0.74,
      "hand": "left"
    },
    {
      "midi": 57,
      "time": 66.6,
      "duration": 0.15,
      "velocity": 0.54,
      "hand": "left"
    },
    {
      "midi": 60,
      "time": 66.6,
      "duration": 0.45,
      "velocity": 0.78,
      "hand": "right"
    },
    {
      "midi": 62,
      "time": 66.6,
      "duration": 0.075,
      "velocity": 0.68,
      "hand": "right"
    },
    {
      "midi": 65,
      "time": 66.6,
      "duration": 0.6,
      "velocity": 0.7,
      "hand": "right"
    },
    {
      "midi": 65,
      "time": 66.6,
      "duration": 0.15,
      "velocity": 0.49,
      "hand": "right"
    },
    {
      "midi": 69,
      "time": 66.6,
      "duration": 0.3,
      "velocity": 0.56,
      "hand": "right"
    },
    {
      "midi": 70,
      "time": 66.6,
      "duration": 0.075,
      "velocity": 0.72,
      "hand": "right"
    },
    {
      "midi": 38,
      "time": 66.9,
      "duration": 0.075,
      "velocity": 0.56,
      "hand": "left"
    },
    {
      "midi": 42,
      "time": 66.9,
      "duration": 0.075,
      "velocity": 0.57,
      "hand": "left"
    },
    {
      "midi": 51,
      "time": 66.9,
      "duration": 0.075,
      "velocity": 0.54,
      "hand": "left"
    },
    {
      "midi": 54,
      "time": 66.9,
      "duration": 0.075,
      "velocity": 0.54,
      "hand": "left"
    },
    {
      "midi": 57,
      "time": 66.9,
      "duration": 0.15,
      "velocity": 0.73,
      "hand": "left"
    },
    {
      "midi": 62,
      "time": 66.9,
      "duration": 0.15,
      "velocity": 0.75,
      "hand": "right"
    },
    {
      "midi": 65,
      "time": 66.9,
      "duration": 0.15,
      "velocity": 0.64,
      "hand": "right"
    },
    {
      "midi": 67,
      "time": 66.9,
      "duration": 0.6,
      "velocity": 0.5,
      "hand": "right"
    },
    {
      "midi": 70,
      "time": 66.9,
      "duration": 0.075,
      "velocity": 0.72,
      "hand": "right"
    },
    {
      "midi": 31,
      "time": 67.2,
      "duration": 0.6,
      "velocity": 0.96,
      "hand": "left"
    },
    {
      "midi": 35,
      "time": 67.2,
      "duration": 0.075,
      "velocity": 0.69,
      "hand": "left"
    },
    {
      "midi": 42,
      "time": 67.2,
      "duration": 0.075,
      "velocity": 0.68,
      "hand": "left"
    },
    {
      "midi": 51,
      "time": 67.2,
      "duration": 0.075,
      "velocity": 0.58,
      "hand": "left"
    },
    {
      "midi": 55,
      "time": 67.2,
      "duration": 0.45,
      "velocity": 0.68,
      "hand": "left"
    },
    {
      "midi": 55,
      "time": 67.2,
      "duration": 0.15,
      "velocity": 0.61,
      "hand": "left"
    },
    {
      "midi": 55,
      "time": 67.2,
      "duration": 0.9,
      "velocity": 0.5,
      "hand": "left"
    },
    {
      "midi": 59,
      "time": 67.2,
      "duration": 0.45,
      "velocity": 0.57,
      "hand": "left"
    },
    {
      "midi": 59,
      "time": 67.2,
      "duration": 0.15,
      "velocity": 0.58,
      "hand": "left"
    },
    {
      "midi": 59,
      "time": 67.2,
      "duration": 0.9,
      "velocity": 0.56,
      "hand": "left"
    },
    {
      "midi": 62,
      "time": 67.2,
      "duration": 0.6,
      "velocity": 0.54,
      "hand": "right"
    },
    {
      "midi": 62,
      "time": 67.2,
      "duration": 0.15,
      "velocity": 0.58,
      "hand": "right"
    },
    {
      "midi": 62,
      "time": 67.2,
      "duration": 0.9,
      "velocity": 0.49,
      "hand": "right"
    },
    {
      "midi": 65,
      "time": 67.2,
      "duration": 0.6,
      "velocity": 0.46,
      "hand": "right"
    },
    {
      "midi": 65,
      "time": 67.2,
      "duration": 0.15,
      "velocity": 0.54,
      "hand": "right"
    },
    {
      "midi": 65,
      "time": 67.2,
      "duration": 0.9,
      "velocity": 0.5,
      "hand": "right"
    },
    {
      "midi": 67,
      "time": 67.2,
      "duration": 1.05,
      "velocity": 0.61,
      "hand": "right"
    },
    {
      "midi": 70,
      "time": 67.2,
      "duration": 0.075,
      "velocity": 0.73,
      "hand": "right"
    },
    {
      "midi": 71,
      "time": 67.2,
      "duration": 1.05,
      "velocity": 0.57,
      "hand": "right"
    },
    {
      "midi": 38,
      "time": 67.5,
      "duration": 0.075,
      "velocity": 0.56,
      "hand": "left"
    },
    {
      "midi": 42,
      "time": 67.5,
      "duration": 0.075,
      "velocity": 0.61,
      "hand": "left"
    },
    {
      "midi": 51,
      "time": 67.5,
      "duration": 0.075,
      "velocity": 0.56,
      "hand": "left"
    },
    {
      "midi": 54,
      "time": 67.5,
      "duration": 0.075,
      "velocity": 0.55,
      "hand": "left"
    },
    {
      "midi": 55,
      "time": 67.5,
      "duration": 0.15,
      "velocity": 0.53,
      "hand": "left"
    },
    {
      "midi": 59,
      "time": 67.5,
      "duration": 0.15,
      "velocity": 0.55,
      "hand": "left"
    },
    {
      "midi": 62,
      "time": 67.5,
      "duration": 0.075,
      "velocity": 0.52,
      "hand": "right"
    },
    {
      "midi": 65,
      "time": 67.5,
      "duration": 0.15,
      "velocity": 0.54,
      "hand": "right"
    },
    {
      "midi": 65,
      "time": 67.5,
      "duration": 0.3,
      "velocity": 0.52,
      "hand": "right"
    },
    {
      "midi": 35,
      "time": 67.8,
      "duration": 0.075,
      "velocity": 0.57,
      "hand": "left"
    },
    {
      "midi": 38,
      "time": 67.8,
      "duration": 0.45,
      "velocity": 0.96,
      "hand": "left"
    },
    {
      "midi": 42,
      "time": 67.8,
      "duration": 0.075,
      "velocity": 0.61,
      "hand": "left"
    },
    {
      "midi": 51,
      "time": 67.8,
      "duration": 0.075,
      "velocity": 0.49,
      "hand": "left"
    },
    {
      "midi": 55,
      "time": 67.8,
      "duration": 0.45,
      "velocity": 0.54,
      "hand": "left"
    },
    {
      "midi": 55,
      "time": 67.8,
      "duration": 0.15,
      "velocity": 0.61,
      "hand": "left"
    },
    {
      "midi": 59,
      "time": 67.8,
      "duration": 0.3,
      "velocity": 0.55,
      "hand": "left"
    },
    {
      "midi": 59,
      "time": 67.8,
      "duration": 0.15,
      "velocity": 0.64,
      "hand": "left"
    },
    {
      "midi": 62,
      "time": 67.8,
      "duration": 0.3,
      "velocity": 0.54,
      "hand": "right"
    },
    {
      "midi": 62,
      "time": 67.8,
      "duration": 0.15,
      "velocity": 0.58,
      "hand": "right"
    },
    {
      "midi": 64,
      "time": 67.8,
      "duration": 0.3,
      "velocity": 0.57,
      "hand": "right"
    },
    {
      "midi": 65,
      "time": 67.8,
      "duration": 0.3,
      "velocity": 0.52,
      "hand": "right"
    },
    {
      "midi": 65,
      "time": 67.8,
      "duration": 0.15,
      "velocity": 0.57,
      "hand": "right"
    },
    {
      "midi": 38,
      "time": 68.1,
      "duration": 0.075,
      "velocity": 0.57,
      "hand": "left"
    },
    {
      "midi": 42,
      "time": 68.1,
      "duration": 0.075,
      "velocity": 0.58,
      "hand": "left"
    },
    {
      "midi": 51,
      "time": 68.1,
      "duration": 0.075,
      "velocity": 0.54,
      "hand": "left"
    },
    {
      "midi": 54,
      "time": 68.1,
      "duration": 0.075,
      "velocity": 0.54,
      "hand": "left"
    },
    {
      "midi": 55,
      "time": 68.1,
      "duration": 0.15,
      "velocity": 0.57,
      "hand": "left"
    },
    {
      "midi": 59,
      "time": 68.1,
      "duration": 0.075,
      "velocity": 0.61,
      "hand": "left"
    },
    {
      "midi": 62,
      "time": 68.1,
      "duration": 0.15,
      "velocity": 0.57,
      "hand": "right"
    },
    {
      "midi": 62,
      "time": 68.1,
      "duration": 0.3,
      "velocity": 0.54,
      "hand": "right"
    },
    {
      "midi": 65,
      "time": 68.1,
      "duration": 0.15,
      "velocity": 0.52,
      "hand": "right"
    },
    {
      "midi": 35,
      "time": 68.4,
      "duration": 0.075,
      "velocity": 0.7,
      "hand": "left"
    },
    {
      "midi": 36,
      "time": 68.4,
      "duration": 0.6,
      "velocity": 0.96,
      "hand": "left"
    },
    {
      "midi": 42,
      "time": 68.4,
      "duration": 0.075,
      "velocity": 0.55,
      "hand": "left"
    },
    {
      "midi": 51,
      "time": 68.4,
      "duration": 0.075,
      "velocity": 0.53,
      "hand": "left"
    },
    {
      "midi": 55,
      "time": 68.4,
      "duration": 0.6,
      "velocity": 0.54,
      "hand": "left"
    },
    {
      "midi": 55,
      "time": 68.4,
      "duration": 0.15,
      "velocity": 0.68,
      "hand": "left"
    },
    {
      "midi": 55,
      "time": 68.4,
      "duration": 0.75,
      "velocity": 0.4,
      "hand": "left"
    },
    {
      "midi": 60,
      "time": 68.4,
      "duration": 0.6,
      "velocity": 0.57,
      "hand": "right"
    },
    {
      "midi": 60,
      "time": 68.4,
      "duration": 0.15,
      "velocity": 0.73,
      "hand": "right"
    },
    {
      "midi": 60,
      "time": 68.4,
      "duration": 0.9,
      "velocity": 0.46,
      "hand": "right"
    },
    {
      "midi": 64,
      "time": 68.4,
      "duration": 0.6,
      "velocity": 0.56,
      "hand": "right"
    },
    {
      "midi": 64,
      "time": 68.4,
      "duration": 0.15,
      "velocity": 0.72,
      "hand": "right"
    },
    {
      "midi": 64,
      "time": 68.4,
      "duration": 1.5,
      "velocity": 0.52,
      "hand": "right"
    },
    {
      "midi": 64,
      "time": 68.4,
      "duration": 0.9,
      "velocity": 0.39,
      "hand": "right"
    },
    {
      "midi": 64,
      "time": 68.4,
      "duration": 1.5,
      "velocity": 0.52,
      "hand": "right"
    },
    {
      "midi": 67,
      "time": 68.4,
      "duration": 0.9,
      "velocity": 0.7,
      "hand": "right"
    },
    {
      "midi": 72,
      "time": 68.4,
      "duration": 1.05,
      "velocity": 0.69,
      "hand": "right"
    },
    {
      "midi": 38,
      "time": 68.7,
      "duration": 0.075,
      "velocity": 0.57,
      "hand": "left"
    },
    {
      "midi": 42,
      "time": 68.7,
      "duration": 0.075,
      "velocity": 0.61,
      "hand": "left"
    },
    {
      "midi": 51,
      "time": 68.7,
      "duration": 0.075,
      "velocity": 0.61,
      "hand": "left"
    },
    {
      "midi": 54,
      "time": 68.7,
      "duration": 0.075,
      "velocity": 0.57,
      "hand": "left"
    },
    {
      "midi": 70,
      "time": 68.7,
      "duration": 0.075,
      "velocity": 0.7,
      "hand": "right"
    },
    {
      "midi": 55,
      "time": 68.85,
      "duration": 0.15,
      "velocity": 0.57,
      "hand": "left"
    },
    {
      "midi": 60,
      "time": 68.85,
      "duration": 0.075,
      "velocity": 0.64,
      "hand": "right"
    },
    {
      "midi": 64,
      "time": 68.85,
      "duration": 0.15,
      "velocity": 0.59,
      "hand": "right"
    },
    {
      "midi": 31,
      "time": 69,
      "duration": 0.3,
      "velocity": 0.96,
      "hand": "left"
    },
    {
      "midi": 35,
      "time": 69,
      "duration": 0.075,
      "velocity": 0.73,
      "hand": "left"
    },
    {
      "midi": 42,
      "time": 69,
      "duration": 0.075,
      "velocity": 0.57,
      "hand": "left"
    },
    {
      "midi": 51,
      "time": 69,
      "duration": 0.075,
      "velocity": 0.53,
      "hand": "left"
    },
    {
      "midi": 55,
      "time": 69,
      "duration": 0.15,
      "velocity": 0.4,
      "hand": "left"
    },
    {
      "midi": 60,
      "time": 69,
      "duration": 0.3,
      "velocity": 0.56,
      "hand": "right"
    },
    {
      "midi": 60,
      "time": 69,
      "duration": 0.15,
      "velocity": 0.54,
      "hand": "right"
    },
    {
      "midi": 64,
      "time": 69,
      "duration": 0.3,
      "velocity": 0.52,
      "hand": "right"
    },
    {
      "midi": 64,
      "time": 69,
      "duration": 0.15,
      "velocity": 0.54,
      "hand": "right"
    },
    {
      "midi": 70,
      "time": 69,
      "duration": 0.075,
      "velocity": 0.63,
      "hand": "right"
    },
    {
      "midi": 36,
      "time": 69.3,
      "duration": 0.3,
      "velocity": 0.96,
      "hand": "left"
    },
    {
      "midi": 38,
      "time": 69.3,
      "duration": 0.075,
      "velocity": 0.55,
      "hand": "left"
    },
    {
      "midi": 42,
      "time": 69.3,
      "duration": 0.075,
      "velocity": 0.56,
      "hand": "left"
    },
    {
      "midi": 51,
      "time": 69.3,
      "duration": 0.075,
      "velocity": 0.57,
      "hand": "left"
    },
    {
      "midi": 54,
      "time": 69.3,
      "duration": 0.075,
      "velocity": 0.5,
      "hand": "left"
    },
    {
      "midi": 55,
      "time": 69.3,
      "duration": 0.15,
      "velocity": 0.65,
      "hand": "left"
    },
    {
      "midi": 60,
      "time": 69.3,
      "duration": 0.075,
      "velocity": 0.7,
      "hand": "right"
    },
    {
      "midi": 64,
      "time": 69.3,
      "duration": 0.15,
      "velocity": 0.7,
      "hand": "right"
    },
    {
      "midi": 70,
      "time": 69.3,
      "duration": 0.075,
      "velocity": 0.56,
      "hand": "right"
    },
    {
      "midi": 35,
      "time": 69.6,
      "duration": 0.075,
      "velocity": 0.72,
      "hand": "left"
    },
    {
      "midi": 38,
      "time": 69.6,
      "duration": 0.6,
      "velocity": 0.96,
      "hand": "left"
    },
    {
      "midi": 40,
      "time": 69.6,
      "duration": 0.3,
      "velocity": 0.96,
      "hand": "left"
    },
    {
      "midi": 42,
      "time": 69.6,
      "duration": 0.075,
      "velocity": 0.54,
      "hand": "left"
    },
    {
      "midi": 50,
      "time": 69.6,
      "duration": 0.15,
      "velocity": 0.63,
      "hand": "left"
    },
    {
      "midi": 51,
      "time": 69.6,
      "duration": 0.075,
      "velocity": 0.46,
      "hand": "left"
    },
    {
      "midi": 57,
      "time": 69.6,
      "duration": 0.3,
      "velocity": 0.72,
      "hand": "left"
    },
    {
      "midi": 57,
      "time": 69.6,
      "duration": 0.15,
      "velocity": 0.57,
      "hand": "left"
    },
    {
      "midi": 57,
      "time": 69.6,
      "duration": 0.3,
      "velocity": 0.47,
      "hand": "left"
    },
    {
      "midi": 60,
      "time": 69.6,
      "duration": 0.3,
      "velocity": 0.74,
      "hand": "right"
    },
    {
      "midi": 60,
      "time": 69.6,
      "duration": 0.15,
      "velocity": 0.7,
      "hand": "right"
    },
    {
      "midi": 60,
      "time": 69.6,
      "duration": 0.3,
      "velocity": 0.52,
      "hand": "right"
    },
    {
      "midi": 62,
      "time": 69.6,
      "duration": 0.3,
      "velocity": 0.72,
      "hand": "right"
    },
    {
      "midi": 62,
      "time": 69.6,
      "duration": 0.15,
      "velocity": 0.63,
      "hand": "right"
    },
    {
      "midi": 62,
      "time": 69.6,
      "duration": 0.45,
      "velocity": 0.49,
      "hand": "right"
    },
    {
      "midi": 62,
      "time": 69.6,
      "duration": 0.6,
      "velocity": 0.55,
      "hand": "right"
    },
    {
      "midi": 65,
      "time": 69.6,
      "duration": 0.3,
      "velocity": 0.64,
      "hand": "right"
    },
    {
      "midi": 65,
      "time": 69.6,
      "duration": 0.15,
      "velocity": 0.59,
      "hand": "right"
    },
    {
      "midi": 65,
      "time": 69.6,
      "duration": 0.45,
      "velocity": 0.46,
      "hand": "right"
    },
    {
      "midi": 69,
      "time": 69.6,
      "duration": 0.45,
      "velocity": 0.56,
      "hand": "right"
    },
    {
      "midi": 70,
      "time": 69.6,
      "duration": 0.075,
      "velocity": 0.73,
      "hand": "right"
    },
    {
      "midi": 72,
      "time": 69.6,
      "duration": 0.45,
      "velocity": 0.54,
      "hand": "right"
    },
    {
      "midi": 48,
      "time": 69.75,
      "duration": 0.15,
      "velocity": 0.54,
      "hand": "left"
    },
    {
      "midi": 38,
      "time": 69.9,
      "duration": 0.075,
      "velocity": 0.56,
      "hand": "left"
    },
    {
      "midi": 42,
      "time": 69.9,
      "duration": 0.075,
      "velocity": 0.46,
      "hand": "left"
    },
    {
      "midi": 51,
      "time": 69.9,
      "duration": 0.075,
      "velocity": 0.52,
      "hand": "left"
    },
    {
      "midi": 54,
      "time": 69.9,
      "duration": 0.075,
      "velocity": 0.56,
      "hand": "left"
    },
    {
      "midi": 57,
      "time": 69.9,
      "duration": 0.15,
      "velocity": 0.54,
      "hand": "left"
    },
    {
      "midi": 60,
      "time": 69.9,
      "duration": 0.15,
      "velocity": 0.57,
      "hand": "right"
    },
    {
      "midi": 62,
      "time": 69.9,
      "duration": 0.15,
      "velocity": 0.57,
      "hand": "right"
    },
    {
      "midi": 65,
      "time": 69.9,
      "duration": 0.3,
      "velocity": 0.54,
      "hand": "right"
    },
    {
      "midi": 65,
      "time": 69.9,
      "duration": 0.15,
      "velocity": 0.57,
      "hand": "right"
    },
    {
      "midi": 47,
      "time": 70.05,
      "duration": 0.15,
      "velocity": 0.63,
      "hand": "left"
    },
    {
      "midi": 31,
      "time": 70.2,
      "duration": 0.45,
      "velocity": 0.96,
      "hand": "left"
    },
    {
      "midi": 35,
      "time": 70.2,
      "duration": 0.075,
      "velocity": 0.7,
      "hand": "left"
    },
    {
      "midi": 42,
      "time": 70.2,
      "duration": 0.075,
      "velocity": 0.5,
      "hand": "left"
    },
    {
      "midi": 45,
      "time": 70.2,
      "duration": 0.15,
      "velocity": 0.63,
      "hand": "left"
    },
    {
      "midi": 51,
      "time": 70.2,
      "duration": 0.075,
      "velocity": 0.54,
      "hand": "left"
    },
    {
      "midi": 55,
      "time": 70.2,
      "duration": 0.3,
      "velocity": 0.69,
      "hand": "left"
    },
    {
      "midi": 55,
      "time": 70.2,
      "duration": 0.15,
      "velocity": 0.68,
      "hand": "left"
    },
    {
      "midi": 55,
      "time": 70.2,
      "duration": 0.3,
      "velocity": 0.49,
      "hand": "left"
    },
    {
      "midi": 59,
      "time": 70.2,
      "duration": 0.3,
      "velocity": 0.73,
      "hand": "left"
    },
    {
      "midi": 59,
      "time": 70.2,
      "duration": 0.15,
      "velocity": 0.72,
      "hand": "left"
    },
    {
      "midi": 59,
      "time": 70.2,
      "duration": 0.3,
      "velocity": 0.56,
      "hand": "left"
    },
    {
      "midi": 62,
      "time": 70.2,
      "duration": 0.3,
      "velocity": 0.65,
      "hand": "right"
    },
    {
      "midi": 62,
      "time": 70.2,
      "duration": 0.15,
      "velocity": 0.61,
      "hand": "right"
    },
    {
      "midi": 62,
      "time": 70.2,
      "duration": 0.3,
      "velocity": 0.42,
      "hand": "right"
    },
    {
      "midi": 65,
      "time": 70.2,
      "duration": 0.3,
      "velocity": 0.51,
      "hand": "right"
    },
    {
      "midi": 65,
      "time": 70.2,
      "duration": 0.15,
      "velocity": 0.57,
      "hand": "right"
    },
    {
      "midi": 65,
      "time": 70.2,
      "duration": 0.3,
      "velocity": 0.49,
      "hand": "right"
    },
    {
      "midi": 67,
      "time": 70.2,
      "duration": 0.3,
      "velocity": 0.55,
      "hand": "right"
    },
    {
      "midi": 71,
      "time": 70.2,
      "duration": 0.45,
      "velocity": 0.51,
      "hand": "right"
    },
    {
      "midi": 38,
      "time": 70.5,
      "duration": 0.075,
      "velocity": 0.53,
      "hand": "left"
    },
    {
      "midi": 42,
      "time": 70.5,
      "duration": 0.075,
      "velocity": 0.54,
      "hand": "left"
    },
    {
      "midi": 43,
      "time": 70.5,
      "duration": 0.15,
      "velocity": 0.69,
      "hand": "left"
    },
    {
      "midi": 51,
      "time": 70.5,
      "duration": 0.075,
      "velocity": 0.54,
      "hand": "left"
    },
    {
      "midi": 54,
      "time": 70.5,
      "duration": 0.075,
      "velocity": 0.57,
      "hand": "left"
    },
    {
      "midi": 55,
      "time": 70.5,
      "duration": 0.15,
      "velocity": 0.55,
      "hand": "left"
    },
    {
      "midi": 59,
      "time": 70.5,
      "duration": 0.15,
      "velocity": 0.57,
      "hand": "left"
    },
    {
      "midi": 62,
      "time": 70.5,
      "duration": 0.15,
      "velocity": 0.57,
      "hand": "right"
    },
    {
      "midi": 65,
      "time": 70.5,
      "duration": 0.15,
      "velocity": 0.54,
      "hand": "right"
    },
    {
      "midi": 35,
      "time": 70.8,
      "duration": 0.075,
      "velocity": 0.69,
      "hand": "left"
    },
    {
      "midi": 36,
      "time": 70.8,
      "duration": 0.6,
      "velocity": 0.96,
      "hand": "left"
    },
    {
      "midi": 42,
      "time": 70.8,
      "duration": 0.075,
      "velocity": 0.54,
      "hand": "left"
    },
    {
      "midi": 49,
      "time": 70.8,
      "duration": 0.075,
      "velocity": 0.79,
      "hand": "left"
    },
    {
      "midi": 51,
      "time": 70.8,
      "duration": 0.075,
      "velocity": 0.51,
      "hand": "left"
    },
    {
      "midi": 55,
      "time": 70.8,
      "duration": 0.75,
      "velocity": 0.64,
      "hand": "left"
    },
    {
      "midi": 55,
      "time": 70.8,
      "duration": 2.25,
      "velocity": 0.4,
      "hand": "left"
    },
    {
      "midi": 57,
      "time": 70.8,
      "duration": 0.15,
      "velocity": 0.63,
      "hand": "left"
    },
    {
      "midi": 60,
      "time": 70.8,
      "duration": 0.75,
      "velocity": 0.74,
      "hand": "right"
    },
    {
      "midi": 60,
      "time": 70.8,
      "duration": 0.6,
      "velocity": 0.69,
      "hand": "right"
    },
    {
      "midi": 60,
      "time": 70.8,
      "duration": 2.25,
      "velocity": 0.49,
      "hand": "right"
    },
    {
      "midi": 60,
      "time": 70.8,
      "duration": 1.65,
      "velocity": 0.63,
      "hand": "right"
    },
    {
      "midi": 60,
      "time": 70.8,
      "duration": 0.6,
      "velocity": 0.69,
      "hand": "right"
    },
    {
      "midi": 62,
      "time": 70.8,
      "duration": 0.15,
      "velocity": 0.61,
      "hand": "right"
    },
    {
      "midi": 64,
      "time": 70.8,
      "duration": 0.75,
      "velocity": 0.69,
      "hand": "right"
    },
    {
      "midi": 64,
      "time": 70.8,
      "duration": 2.25,
      "velocity": 0.48,
      "hand": "right"
    },
    {
      "midi": 64,
      "time": 70.8,
      "duration": 1.65,
      "velocity": 0.72,
      "hand": "right"
    },
    {
      "midi": 67,
      "time": 70.8,
      "duration": 0.15,
      "velocity": 0.57,
      "hand": "right"
    },
    {
      "midi": 67,
      "time": 70.8,
      "duration": 1.65,
      "velocity": 0.63,
      "hand": "right"
    },
    {
      "midi": 38,
      "time": 71.1,
      "duration": 0.075,
      "velocity": 0.54,
      "hand": "left"
    },
    {
      "midi": 42,
      "time": 71.1,
      "duration": 0.075,
      "velocity": 0.57,
      "hand": "left"
    },
    {
      "midi": 51,
      "time": 71.1,
      "duration": 0.075,
      "velocity": 0.55,
      "hand": "left"
    },
    {
      "midi": 54,
      "time": 71.1,
      "duration": 0.075,
      "velocity": 0.54,
      "hand": "left"
    },
    {
      "midi": 70,
      "time": 71.1,
      "duration": 0.075,
      "velocity": 0.72,
      "hand": "right"
    },
    {
      "midi": 57,
      "time": 71.25,
      "duration": 0.15,
      "velocity": 0.57,
      "hand": "left"
    },
    {
      "midi": 62,
      "time": 71.25,
      "duration": 0.075,
      "velocity": 0.61,
      "hand": "right"
    },
    {
      "midi": 67,
      "time": 71.25,
      "duration": 0.15,
      "velocity": 0.54,
      "hand": "right"
    },
    {
      "midi": 31,
      "time": 71.4,
      "duration": 0.6,
      "velocity": 0.96,
      "hand": "left"
    },
    {
      "midi": 35,
      "time": 71.4,
      "duration": 0.075,
      "velocity": 0.56,
      "hand": "left"
    },
    {
      "midi": 42,
      "time": 71.4,
      "duration": 0.075,
      "velocity": 0.57,
      "hand": "left"
    },
    {
      "midi": 51,
      "time": 71.4,
      "duration": 0.075,
      "velocity": 0.5,
      "hand": "left"
    },
    {
      "midi": 57,
      "time": 71.4,
      "duration": 0.15,
      "velocity": 0.52,
      "hand": "left"
    },
    {
      "midi": 62,
      "time": 71.4,
      "duration": 0.075,
      "velocity": 0.64,
      "hand": "right"
    },
    {
      "midi": 64,
      "time": 71.4,
      "duration": 0.3,
      "velocity": 0.59,
      "hand": "right"
    },
    {
      "midi": 67,
      "time": 71.4,
      "duration": 0.15,
      "velocity": 0.4,
      "hand": "right"
    },
    {
      "midi": 70,
      "time": 71.4,
      "duration": 0.075,
      "velocity": 0.69,
      "hand": "right"
    },
    {
      "midi": 38,
      "time": 71.7,
      "duration": 0.075,
      "velocity": 0.55,
      "hand": "left"
    },
    {
      "midi": 42,
      "time": 71.7,
      "duration": 0.075,
      "velocity": 0.54,
      "hand": "left"
    },
    {
      "midi": 51,
      "time": 71.7,
      "duration": 0.075,
      "velocity": 0.54,
      "hand": "left"
    },
    {
      "midi": 54,
      "time": 71.7,
      "duration": 0.075,
      "velocity": 0.64,
      "hand": "left"
    },
    {
      "midi": 55,
      "time": 71.7,
      "duration": 0.75,
      "velocity": 0.63,
      "hand": "left"
    },
    {
      "midi": 57,
      "time": 71.7,
      "duration": 0.15,
      "velocity": 0.68,
      "hand": "left"
    },
    {
      "midi": 60,
      "time": 71.7,
      "duration": 0.75,
      "velocity": 0.7,
      "hand": "right"
    },
    {
      "midi": 62,
      "time": 71.7,
      "duration": 0.075,
      "velocity": 0.73,
      "hand": "right"
    },
    {
      "midi": 64,
      "time": 71.7,
      "duration": 0.075,
      "velocity": 0.54,
      "hand": "right"
    },
    {
      "midi": 67,
      "time": 71.7,
      "duration": 0.75,
      "velocity": 0.73,
      "hand": "right"
    },
    {
      "midi": 67,
      "time": 71.7,
      "duration": 0.15,
      "velocity": 0.59,
      "hand": "right"
    },
    {
      "midi": 67,
      "time": 71.7,
      "duration": 0.6,
      "velocity": 0.51,
      "hand": "right"
    },
    {
      "midi": 70,
      "time": 71.7,
      "duration": 0.075,
      "velocity": 0.7,
      "hand": "right"
    },
    {
      "midi": 35,
      "time": 72,
      "duration": 0.075,
      "velocity": 0.56,
      "hand": "left"
    },
    {
      "midi": 36,
      "time": 72,
      "duration": 0.45,
      "velocity": 0.96,
      "hand": "left"
    },
    {
      "midi": 42,
      "time": 72,
      "duration": 0.075,
      "velocity": 0.65,
      "hand": "left"
    },
    {
      "midi": 51,
      "time": 72,
      "duration": 0.075,
      "velocity": 0.57,
      "hand": "left"
    },
    {
      "midi": 70,
      "time": 72,
      "duration": 0.075,
      "velocity": 0.72,
      "hand": "right"
    },
    {
      "midi": 38,
      "time": 72.3,
      "duration": 0.075,
      "velocity": 0.54,
      "hand": "left"
    },
    {
      "midi": 42,
      "time": 72.3,
      "duration": 0.075,
      "velocity": 0.58,
      "hand": "left"
    },
    {
      "midi": 51,
      "time": 72.3,
      "duration": 0.075,
      "velocity": 0.54,
      "hand": "left"
    },
    {
      "midi": 54,
      "time": 72.3,
      "duration": 0.075,
      "velocity": 0.56,
      "hand": "left"
    },
    {
      "midi": 57,
      "time": 72.3,
      "duration": 0.15,
      "velocity": 0.57,
      "hand": "left"
    },
    {
      "midi": 62,
      "time": 72.3,
      "duration": 0.15,
      "velocity": 0.7,
      "hand": "right"
    },
    {
      "midi": 64,
      "time": 72.3,
      "duration": 0.3,
      "velocity": 0.57,
      "hand": "right"
    },
    {
      "midi": 67,
      "time": 72.3,
      "duration": 0.15,
      "velocity": 0.56,
      "hand": "right"
    },
    {
      "midi": 31,
      "time": 72.6,
      "duration": 0.45,
      "velocity": 0.96,
      "hand": "left"
    },
    {
      "midi": 35,
      "time": 72.6,
      "duration": 0.075,
      "velocity": 0.61,
      "hand": "left"
    },
    {
      "midi": 42,
      "time": 72.6,
      "duration": 0.075,
      "velocity": 0.55,
      "hand": "left"
    },
    {
      "midi": 51,
      "time": 72.6,
      "duration": 0.075,
      "velocity": 0.61,
      "hand": "left"
    },
    {
      "midi": 55,
      "time": 72.6,
      "duration": 0.15,
      "velocity": 0.56,
      "hand": "left"
    },
    {
      "midi": 57,
      "time": 72.6,
      "duration": 0.15,
      "velocity": 0.61,
      "hand": "left"
    },
    {
      "midi": 60,
      "time": 72.6,
      "duration": 0.15,
      "velocity": 0.64,
      "hand": "right"
    },
    {
      "midi": 60,
      "time": 72.6,
      "duration": 0.45,
      "velocity": 0.51,
      "hand": "right"
    },
    {
      "midi": 62,
      "time": 72.6,
      "duration": 0.15,
      "velocity": 0.72,
      "hand": "right"
    },
    {
      "midi": 62,
      "time": 72.6,
      "duration": 0.3,
      "velocity": 0.49,
      "hand": "right"
    },
    {
      "midi": 64,
      "time": 72.6,
      "duration": 0.15,
      "velocity": 0.63,
      "hand": "right"
    },
    {
      "midi": 64,
      "time": 72.6,
      "duration": 0.45,
      "velocity": 0.55,
      "hand": "right"
    },
    {
      "midi": 67,
      "time": 72.6,
      "duration": 0.15,
      "velocity": 0.54,
      "hand": "right"
    },
    {
      "midi": 69,
      "time": 72.6,
      "duration": 0.45,
      "velocity": 0.57,
      "hand": "right"
    },
    {
      "midi": 38,
      "time": 72.9,
      "duration": 0.075,
      "velocity": 0.56,
      "hand": "left"
    },
    {
      "midi": 42,
      "time": 72.9,
      "duration": 0.075,
      "velocity": 0.55,
      "hand": "left"
    },
    {
      "midi": 51,
      "time": 72.9,
      "duration": 0.075,
      "velocity": 0.56,
      "hand": "left"
    },
    {
      "midi": 54,
      "time": 72.9,
      "duration": 0.075,
      "velocity": 0.58,
      "hand": "left"
    },
    {
      "midi": 57,
      "time": 72.9,
      "duration": 0.15,
      "velocity": 0.54,
      "hand": "left"
    },
    {
      "midi": 60,
      "time": 72.9,
      "duration": 0.15,
      "velocity": 0.54,
      "hand": "right"
    },
    {
      "midi": 62,
      "time": 72.9,
      "duration": 0.15,
      "velocity": 0.61,
      "hand": "right"
    },
    {
      "midi": 67,
      "time": 72.9,
      "duration": 0.15,
      "velocity": 0.51,
      "hand": "right"
    },
    {
      "midi": 35,
      "time": 73.2,
      "duration": 0.6,
      "velocity": 0.96,
      "hand": "left"
    },
    {
      "midi": 35,
      "time": 73.2,
      "duration": 0.075,
      "velocity": 0.59,
      "hand": "left"
    },
    {
      "midi": 42,
      "time": 73.2,
      "duration": 0.075,
      "velocity": 0.54,
      "hand": "left"
    },
    {
      "midi": 55,
      "time": 73.2,
      "duration": 1.95,
      "velocity": 0.4,
      "hand": "left"
    },
    {
      "midi": 59,
      "time": 73.2,
      "duration": 0.15,
      "velocity": 0.58,
      "hand": "left"
    },
    {
      "midi": 59,
      "time": 73.2,
      "duration": 0.45,
      "velocity": 0.57,
      "hand": "left"
    },
    {
      "midi": 59,
      "time": 73.2,
      "duration": 1.95,
      "velocity": 0.54,
      "hand": "left"
    },
    {
      "midi": 59,
      "time": 73.2,
      "duration": 0.45,
      "velocity": 0.57,
      "hand": "left"
    },
    {
      "midi": 60,
      "time": 73.2,
      "duration": 1.65,
      "velocity": 0.55,
      "hand": "right"
    },
    {
      "midi": 62,
      "time": 73.2,
      "duration": 0.75,
      "velocity": 0.69,
      "hand": "right"
    },
    {
      "midi": 62,
      "time": 73.2,
      "duration": 0.15,
      "velocity": 0.61,
      "hand": "right"
    },
    {
      "midi": 64,
      "time": 73.2,
      "duration": 0.75,
      "velocity": 0.7,
      "hand": "right"
    },
    {
      "midi": 64,
      "time": 73.2,
      "duration": 0.15,
      "velocity": 0.61,
      "hand": "right"
    },
    {
      "midi": 64,
      "time": 73.2,
      "duration": 1.95,
      "velocity": 0.29,
      "hand": "right"
    },
    {
      "midi": 64,
      "time": 73.2,
      "duration": 1.8,
      "velocity": 0.54,
      "hand": "right"
    },
    {
      "midi": 67,
      "time": 73.2,
      "duration": 0.75,
      "velocity": 0.61,
      "hand": "right"
    },
    {
      "midi": 67,
      "time": 73.2,
      "duration": 0.15,
      "velocity": 0.56,
      "hand": "right"
    },
    {
      "midi": 67,
      "time": 73.2,
      "duration": 1.8,
      "velocity": 0.56,
      "hand": "right"
    },
    {
      "midi": 71,
      "time": 73.2,
      "duration": 0.75,
      "velocity": 0.65,
      "hand": "right"
    },
    {
      "midi": 71,
      "time": 73.2,
      "duration": 1.8,
      "velocity": 0.54,
      "hand": "right"
    },
    {
      "midi": 38,
      "time": 73.5,
      "duration": 0.075,
      "velocity": 0.57,
      "hand": "left"
    },
    {
      "midi": 42,
      "time": 73.5,
      "duration": 0.075,
      "velocity": 0.65,
      "hand": "left"
    },
    {
      "midi": 51,
      "time": 73.5,
      "duration": 0.075,
      "velocity": 0.56,
      "hand": "left"
    },
    {
      "midi": 54,
      "time": 73.5,
      "duration": 0.075,
      "velocity": 0.68,
      "hand": "left"
    },
    {
      "midi": 70,
      "time": 73.5,
      "duration": 0.075,
      "velocity": 0.72,
      "hand": "right"
    },
    {
      "midi": 59,
      "time": 73.65,
      "duration": 0.15,
      "velocity": 0.61,
      "hand": "left"
    },
    {
      "midi": 62,
      "time": 73.65,
      "duration": 0.075,
      "velocity": 0.55,
      "hand": "right"
    },
    {
      "midi": 64,
      "time": 73.65,
      "duration": 0.075,
      "velocity": 0.57,
      "hand": "right"
    },
    {
      "midi": 67,
      "time": 73.65,
      "duration": 0.15,
      "velocity": 0.52,
      "hand": "right"
    },
    {
      "midi": 35,
      "time": 73.8,
      "duration": 0.075,
      "velocity": 0.55,
      "hand": "left"
    },
    {
      "midi": 40,
      "time": 73.8,
      "duration": 0.6,
      "velocity": 0.96,
      "hand": "left"
    },
    {
      "midi": 42,
      "time": 73.8,
      "duration": 0.075,
      "velocity": 0.59,
      "hand": "left"
    },
    {
      "midi": 51,
      "time": 73.8,
      "duration": 0.075,
      "velocity": 0.57,
      "hand": "left"
    },
    {
      "midi": 59,
      "time": 73.8,
      "duration": 0.15,
      "velocity": 0.54,
      "hand": "left"
    },
    {
      "midi": 62,
      "time": 73.8,
      "duration": 0.075,
      "velocity": 0.54,
      "hand": "right"
    },
    {
      "midi": 64,
      "time": 73.8,
      "duration": 0.075,
      "velocity": 0.57,
      "hand": "right"
    },
    {
      "midi": 67,
      "time": 73.8,
      "duration": 0.15,
      "velocity": 0.38,
      "hand": "right"
    },
    {
      "midi": 69,
      "time": 73.8,
      "duration": 0.3,
      "velocity": 0.59,
      "hand": "right"
    },
    {
      "midi": 70,
      "time": 73.8,
      "duration": 0.075,
      "velocity": 0.69,
      "hand": "right"
    },
    {
      "midi": 38,
      "time": 74.1,
      "duration": 0.075,
      "velocity": 0.53,
      "hand": "left"
    },
    {
      "midi": 42,
      "time": 74.1,
      "duration": 0.075,
      "velocity": 0.58,
      "hand": "left"
    },
    {
      "midi": 51,
      "time": 74.1,
      "duration": 0.075,
      "velocity": 0.49,
      "hand": "left"
    },
    {
      "midi": 54,
      "time": 74.1,
      "duration": 0.075,
      "velocity": 0.56,
      "hand": "left"
    },
    {
      "midi": 59,
      "time": 74.1,
      "duration": 0.15,
      "velocity": 0.72,
      "hand": "left"
    },
    {
      "midi": 62,
      "time": 74.1,
      "duration": 0.75,
      "velocity": 0.72,
      "hand": "right"
    },
    {
      "midi": 62,
      "time": 74.1,
      "duration": 0.075,
      "velocity": 0.72,
      "hand": "right"
    },
    {
      "midi": 64,
      "time": 74.1,
      "duration": 0.75,
      "velocity": 0.72,
      "hand": "right"
    },
    {
      "midi": 64,
      "time": 74.1,
      "duration": 0.075,
      "velocity": 0.72,
      "hand": "right"
    },
    {
      "midi": 67,
      "time": 74.1,
      "duration": 0.75,
      "velocity": 0.72,
      "hand": "right"
    },
    {
      "midi": 67,
      "time": 74.1,
      "duration": 0.15,
      "velocity": 0.61,
      "hand": "right"
    },
    {
      "midi": 67,
      "time": 74.1,
      "duration": 1.5,
      "velocity": 0.54,
      "hand": "right"
    },
    {
      "midi": 70,
      "time": 74.1,
      "duration": 0.075,
      "velocity": 0.68,
      "hand": "right"
    },
    {
      "midi": 71,
      "time": 74.1,
      "duration": 0.75,
      "velocity": 0.68,
      "hand": "right"
    },
    {
      "midi": 35,
      "time": 74.4,
      "duration": 0.6,
      "velocity": 0.96,
      "hand": "left"
    },
    {
      "midi": 35,
      "time": 74.4,
      "duration": 0.075,
      "velocity": 0.69,
      "hand": "left"
    },
    {
      "midi": 51,
      "time": 74.4,
      "duration": 0.075,
      "velocity": 0.54,
      "hand": "left"
    },
    {
      "midi": 70,
      "time": 74.4,
      "duration": 0.075,
      "velocity": 0.61,
      "hand": "right"
    },
    {
      "midi": 38,
      "time": 74.7,
      "duration": 0.075,
      "velocity": 0.58,
      "hand": "left"
    },
    {
      "midi": 42,
      "time": 74.7,
      "duration": 0.075,
      "velocity": 0.63,
      "hand": "left"
    },
    {
      "midi": 51,
      "time": 74.7,
      "duration": 0.075,
      "velocity": 0.55,
      "hand": "left"
    },
    {
      "midi": 54,
      "time": 74.7,
      "duration": 0.075,
      "velocity": 0.52,
      "hand": "left"
    },
    {
      "midi": 59,
      "time": 74.7,
      "duration": 0.15,
      "velocity": 0.7,
      "hand": "left"
    },
    {
      "midi": 62,
      "time": 74.7,
      "duration": 0.075,
      "velocity": 0.72,
      "hand": "right"
    },
    {
      "midi": 64,
      "time": 74.7,
      "duration": 0.075,
      "velocity": 0.72,
      "hand": "right"
    },
    {
      "midi": 67,
      "time": 74.7,
      "duration": 0.075,
      "velocity": 0.57,
      "hand": "right"
    },
    {
      "midi": 70,
      "time": 74.7,
      "duration": 0.075,
      "velocity": 0.72,
      "hand": "right"
    },
    {
      "midi": 35,
      "time": 75,
      "duration": 0.075,
      "velocity": 0.7,
      "hand": "left"
    },
    {
      "midi": 40,
      "time": 75,
      "duration": 0.6,
      "velocity": 0.96,
      "hand": "left"
    },
    {
      "midi": 42,
      "time": 75,
      "duration": 0.075,
      "velocity": 0.54,
      "hand": "left"
    },
    {
      "midi": 51,
      "time": 75,
      "duration": 0.075,
      "velocity": 0.51,
      "hand": "left"
    },
    {
      "midi": 59,
      "time": 75,
      "duration": 0.15,
      "velocity": 0.65,
      "hand": "left"
    },
    {
      "midi": 62,
      "time": 75,
      "duration": 0.15,
      "velocity": 0.65,
      "hand": "right"
    },
    {
      "midi": 64,
      "time": 75,
      "duration": 0.15,
      "velocity": 0.63,
      "hand": "right"
    },
    {
      "midi": 67,
      "time": 75,
      "duration": 0.15,
      "velocity": 0.57,
      "hand": "right"
    },
    {
      "midi": 70,
      "time": 75,
      "duration": 0.075,
      "velocity": 0.72,
      "hand": "right"
    },
    {
      "midi": 71,
      "time": 75,
      "duration": 0.15,
      "velocity": 0.57,
      "hand": "right"
    },
    {
      "midi": 38,
      "time": 75.3,
      "duration": 0.075,
      "velocity": 0.52,
      "hand": "left"
    },
    {
      "midi": 42,
      "time": 75.3,
      "duration": 0.075,
      "velocity": 0.54,
      "hand": "left"
    },
    {
      "midi": 51,
      "time": 75.3,
      "duration": 0.075,
      "velocity": 0.54,
      "hand": "left"
    },
    {
      "midi": 54,
      "time": 75.3,
      "duration": 0.075,
      "velocity": 0.57,
      "hand": "left"
    },
    {
      "midi": 70,
      "time": 75.3,
      "duration": 0.075,
      "velocity": 0.58,
      "hand": "right"
    },
    {
      "midi": 35,
      "time": 75.6,
      "duration": 0.075,
      "velocity": 0.69,
      "hand": "left"
    },
    {
      "midi": 38,
      "time": 75.6,
      "duration": 0.6,
      "velocity": 0.96,
      "hand": "left"
    },
    {
      "midi": 51,
      "time": 75.6,
      "duration": 0.075,
      "velocity": 0.54,
      "hand": "left"
    },
    {
      "midi": 57,
      "time": 75.6,
      "duration": 0.45,
      "velocity": 0.72,
      "hand": "left"
    },
    {
      "midi": 57,
      "time": 75.6,
      "duration": 0.15,
      "velocity": 0.72,
      "hand": "left"
    },
    {
      "midi": 57,
      "time": 75.6,
      "duration": 0.45,
      "velocity": 0.65,
      "hand": "left"
    },
    {
      "midi": 57,
      "time": 75.6,
      "duration": 0.75,
      "velocity": 0.47,
      "hand": "left"
    },
    {
      "midi": 57,
      "time": 75.6,
      "duration": 0.45,
      "velocity": 0.65,
      "hand": "left"
    },
    {
      "midi": 60,
      "time": 75.6,
      "duration": 0.45,
      "velocity": 0.72,
      "hand": "right"
    },
    {
      "midi": 60,
      "time": 75.6,
      "duration": 0.075,
      "velocity": 0.73,
      "hand": "right"
    },
    {
      "midi": 60,
      "time": 75.6,
      "duration": 0.9,
      "velocity": 0.52,
      "hand": "right"
    },
    {
      "midi": 62,
      "time": 75.6,
      "duration": 0.45,
      "velocity": 0.72,
      "hand": "right"
    },
    {
      "midi": 62,
      "time": 75.6,
      "duration": 0.15,
      "velocity": 0.72,
      "hand": "right"
    },
    {
      "midi": 62,
      "time": 75.6,
      "duration": 1.05,
      "velocity": 0.49,
      "hand": "right"
    },
    {
      "midi": 65,
      "time": 75.6,
      "duration": 0.45,
      "velocity": 0.57,
      "hand": "right"
    },
    {
      "midi": 65,
      "time": 75.6,
      "duration": 0.15,
      "velocity": 0.58,
      "hand": "right"
    },
    {
      "midi": 65,
      "time": 75.6,
      "duration": 1.05,
      "velocity": 0.51,
      "hand": "right"
    },
    {
      "midi": 69,
      "time": 75.6,
      "duration": 1.05,
      "velocity": 0.63,
      "hand": "right"
    },
    {
      "midi": 70,
      "time": 75.6,
      "duration": 0.075,
      "velocity": 0.72,
      "hand": "right"
    },
    {
      "midi": 72,
      "time": 75.6,
      "duration": 1.05,
      "velocity": 0.63,
      "hand": "right"
    },
    {
      "midi": 38,
      "time": 75.9,
      "duration": 0.075,
      "velocity": 0.58,
      "hand": "left"
    },
    {
      "midi": 42,
      "time": 75.9,
      "duration": 0.075,
      "velocity": 0.63,
      "hand": "left"
    },
    {
      "midi": 51,
      "time": 75.9,
      "duration": 0.075,
      "velocity": 0.55,
      "hand": "left"
    },
    {
      "midi": 54,
      "time": 75.9,
      "duration": 0.075,
      "velocity": 0.52,
      "hand": "left"
    },
    {
      "midi": 70,
      "time": 75.9,
      "duration": 0.075,
      "velocity": 0.72,
      "hand": "right"
    },
    {
      "midi": 57,
      "time": 76.05,
      "duration": 0.15,
      "velocity": 0.65,
      "hand": "left"
    },
    {
      "midi": 60,
      "time": 76.05,
      "duration": 0.075,
      "velocity": 0.69,
      "hand": "right"
    },
    {
      "midi": 62,
      "time": 76.05,
      "duration": 0.075,
      "velocity": 0.68,
      "hand": "right"
    },
    {
      "midi": 65,
      "time": 76.05,
      "duration": 0.075,
      "velocity": 0.56,
      "hand": "right"
    },
    {
      "midi": 69,
      "time": 76.05,
      "duration": 0.3,
      "velocity": 0.54,
      "hand": "right"
    },
    {
      "midi": 33,
      "time": 76.2,
      "duration": 0.6,
      "velocity": 0.96,
      "hand": "left"
    },
    {
      "midi": 35,
      "time": 76.2,
      "duration": 0.075,
      "velocity": 0.7,
      "hand": "left"
    },
    {
      "midi": 42,
      "time": 76.2,
      "duration": 0.075,
      "velocity": 0.54,
      "hand": "left"
    },
    {
      "midi": 51,
      "time": 76.2,
      "duration": 0.075,
      "velocity": 0.51,
      "hand": "left"
    },
    {
      "midi": 57,
      "time": 76.2,
      "duration": 0.45,
      "velocity": 0.68,
      "hand": "left"
    },
    {
      "midi": 57,
      "time": 76.2,
      "duration": 0.15,
      "velocity": 0.54,
      "hand": "left"
    },
    {
      "midi": 60,
      "time": 76.2,
      "duration": 0.45,
      "velocity": 0.7,
      "hand": "right"
    },
    {
      "midi": 60,
      "time": 76.2,
      "duration": 0.075,
      "velocity": 0.55,
      "hand": "right"
    },
    {
      "midi": 62,
      "time": 76.2,
      "duration": 0.45,
      "velocity": 0.65,
      "hand": "right"
    },
    {
      "midi": 62,
      "time": 76.2,
      "duration": 0.075,
      "velocity": 0.57,
      "hand": "right"
    },
    {
      "midi": 65,
      "time": 76.2,
      "duration": 0.45,
      "velocity": 0.61,
      "hand": "right"
    },
    {
      "midi": 65,
      "time": 76.2,
      "duration": 0.075,
      "velocity": 0.36,
      "hand": "right"
    },
    {
      "midi": 70,
      "time": 76.2,
      "duration": 0.075,
      "velocity": 0.72,
      "hand": "right"
    },
    {
      "midi": 38,
      "time": 76.5,
      "duration": 0.075,
      "velocity": 0.52,
      "hand": "left"
    },
    {
      "midi": 42,
      "time": 76.5,
      "duration": 0.075,
      "velocity": 0.54,
      "hand": "left"
    },
    {
      "midi": 51,
      "time": 76.5,
      "duration": 0.075,
      "velocity": 0.54,
      "hand": "left"
    },
    {
      "midi": 54,
      "time": 76.5,
      "duration": 0.075,
      "velocity": 0.57,
      "hand": "left"
    },
    {
      "midi": 57,
      "time": 76.5,
      "duration": 0.15,
      "velocity": 0.65,
      "hand": "left"
    },
    {
      "midi": 60,
      "time": 76.5,
      "duration": 0.075,
      "velocity": 0.63,
      "hand": "right"
    },
    {
      "midi": 62,
      "time": 76.5,
      "duration": 0.15,
      "velocity": 0.69,
      "hand": "right"
    },
    {
      "midi": 65,
      "time": 76.5,
      "duration": 0.15,
      "velocity": 0.57,
      "hand": "right"
    },
    {
      "midi": 67,
      "time": 76.5,
      "duration": 0.6,
      "velocity": 0.48,
      "hand": "right"
    },
    {
      "midi": 70,
      "time": 76.5,
      "duration": 0.075,
      "velocity": 0.58,
      "hand": "right"
    },
    {
      "midi": 31,
      "time": 76.8,
      "duration": 0.6,
      "velocity": 0.96,
      "hand": "left"
    },
    {
      "midi": 35,
      "time": 76.8,
      "duration": 0.075,
      "velocity": 0.51,
      "hand": "left"
    },
    {
      "midi": 42,
      "time": 76.8,
      "duration": 0.075,
      "velocity": 0.57,
      "hand": "left"
    },
    {
      "midi": 51,
      "time": 76.8,
      "duration": 0.075,
      "velocity": 0.56,
      "hand": "left"
    },
    {
      "midi": 55,
      "time": 76.8,
      "duration": 0.45,
      "velocity": 0.65,
      "hand": "left"
    },
    {
      "midi": 55,
      "time": 76.8,
      "duration": 0.15,
      "velocity": 0.57,
      "hand": "left"
    },
    {
      "midi": 55,
      "time": 76.8,
      "duration": 1.05,
      "velocity": 0.5,
      "hand": "left"
    },
    {
      "midi": 59,
      "time": 76.8,
      "duration": 0.45,
      "velocity": 0.63,
      "hand": "left"
    },
    {
      "midi": 59,
      "time": 76.8,
      "duration": 0.075,
      "velocity": 0.57,
      "hand": "left"
    },
    {
      "midi": 59,
      "time": 76.8,
      "duration": 1.05,
      "velocity": 0.54,
      "hand": "left"
    },
    {
      "midi": 62,
      "time": 76.8,
      "duration": 0.45,
      "velocity": 0.57,
      "hand": "right"
    },
    {
      "midi": 62,
      "time": 76.8,
      "duration": 0.15,
      "velocity": 0.63,
      "hand": "right"
    },
    {
      "midi": 62,
      "time": 76.8,
      "duration": 0.9,
      "velocity": 0.44,
      "hand": "right"
    },
    {
      "midi": 65,
      "time": 76.8,
      "duration": 0.45,
      "velocity": 0.53,
      "hand": "right"
    },
    {
      "midi": 65,
      "time": 76.8,
      "duration": 0.15,
      "velocity": 0.53,
      "hand": "right"
    },
    {
      "midi": 65,
      "time": 76.8,
      "duration": 1.05,
      "velocity": 0.46,
      "hand": "right"
    },
    {
      "midi": 65,
      "time": 76.8,
      "duration": 0.9,
      "velocity": 0.68,
      "hand": "right"
    },
    {
      "midi": 67,
      "time": 76.8,
      "duration": 1.05,
      "velocity": 0.64,
      "hand": "right"
    },
    {
      "midi": 70,
      "time": 76.8,
      "duration": 0.075,
      "velocity": 0.72,
      "hand": "right"
    },
    {
      "midi": 71,
      "time": 76.8,
      "duration": 1.05,
      "velocity": 0.58,
      "hand": "right"
    },
    {
      "midi": 38,
      "time": 77.1,
      "duration": 0.075,
      "velocity": 0.57,
      "hand": "left"
    },
    {
      "midi": 42,
      "time": 77.1,
      "duration": 0.075,
      "velocity": 0.58,
      "hand": "left"
    },
    {
      "midi": 51,
      "time": 77.1,
      "duration": 0.075,
      "velocity": 0.54,
      "hand": "left"
    },
    {
      "midi": 54,
      "time": 77.1,
      "duration": 0.075,
      "velocity": 0.52,
      "hand": "left"
    },
    {
      "midi": 55,
      "time": 77.1,
      "duration": 0.075,
      "velocity": 0.52,
      "hand": "left"
    },
    {
      "midi": 59,
      "time": 77.1,
      "duration": 0.075,
      "velocity": 0.54,
      "hand": "left"
    },
    {
      "midi": 62,
      "time": 77.1,
      "duration": 0.15,
      "velocity": 0.54,
      "hand": "right"
    },
    {
      "midi": 65,
      "time": 77.1,
      "duration": 0.15,
      "velocity": 0.51,
      "hand": "right"
    },
    {
      "midi": 65,
      "time": 77.1,
      "duration": 0.3,
      "velocity": 0.56,
      "hand": "right"
    },
    {
      "midi": 35,
      "time": 77.4,
      "duration": 0.075,
      "velocity": 0.72,
      "hand": "left"
    },
    {
      "midi": 38,
      "time": 77.4,
      "duration": 0.45,
      "velocity": 0.96,
      "hand": "left"
    },
    {
      "midi": 42,
      "time": 77.4,
      "duration": 0.075,
      "velocity": 0.54,
      "hand": "left"
    },
    {
      "midi": 51,
      "time": 77.4,
      "duration": 0.075,
      "velocity": 0.57,
      "hand": "left"
    },
    {
      "midi": 55,
      "time": 77.4,
      "duration": 0.15,
      "velocity": 0.49,
      "hand": "left"
    },
    {
      "midi": 59,
      "time": 77.4,
      "duration": 0.3,
      "velocity": 0.48,
      "hand": "left"
    },
    {
      "midi": 59,
      "time": 77.4,
      "duration": 0.15,
      "velocity": 0.58,
      "hand": "left"
    },
    {
      "midi": 62,
      "time": 77.4,
      "duration": 0.3,
      "velocity": 0.44,
      "hand": "right"
    },
    {
      "midi": 62,
      "time": 77.4,
      "duration": 0.15,
      "velocity": 0.54,
      "hand": "right"
    },
    {
      "midi": 64,
      "time": 77.4,
      "duration": 0.3,
      "velocity": 0.54,
      "hand": "right"
    },
    {
      "midi": 65,
      "time": 77.4,
      "duration": 0.3,
      "velocity": 0.46,
      "hand": "right"
    },
    {
      "midi": 65,
      "time": 77.4,
      "duration": 0.15,
      "velocity": 0.54,
      "hand": "right"
    },
    {
      "midi": 38,
      "time": 77.7,
      "duration": 0.075,
      "velocity": 0.56,
      "hand": "left"
    },
    {
      "midi": 42,
      "time": 77.7,
      "duration": 0.075,
      "velocity": 0.5,
      "hand": "left"
    },
    {
      "midi": 51,
      "time": 77.7,
      "duration": 0.075,
      "velocity": 0.56,
      "hand": "left"
    },
    {
      "midi": 54,
      "time": 77.7,
      "duration": 0.075,
      "velocity": 0.55,
      "hand": "left"
    },
    {
      "midi": 55,
      "time": 77.7,
      "duration": 0.15,
      "velocity": 0.4,
      "hand": "left"
    },
    {
      "midi": 59,
      "time": 77.7,
      "duration": 0.15,
      "velocity": 0.5,
      "hand": "left"
    },
    {
      "midi": 62,
      "time": 77.7,
      "duration": 0.15,
      "velocity": 0.49,
      "hand": "right"
    },
    {
      "midi": 62,
      "time": 77.7,
      "duration": 0.3,
      "velocity": 0.51,
      "hand": "right"
    },
    {
      "midi": 65,
      "time": 77.7,
      "duration": 0.15,
      "velocity": 0.48,
      "hand": "right"
    },
    {
      "midi": 35,
      "time": 78,
      "duration": 0.075,
      "velocity": 0.56,
      "hand": "left"
    },
    {
      "midi": 36,
      "time": 78,
      "duration": 0.6,
      "velocity": 0.8,
      "hand": "left"
    },
    {
      "midi": 42,
      "time": 78,
      "duration": 0.075,
      "velocity": 0.55,
      "hand": "left"
    },
    {
      "midi": 51,
      "time": 78,
      "duration": 0.075,
      "velocity": 0.57,
      "hand": "left"
    },
    {
      "midi": 55,
      "time": 78,
      "duration": 0.75,
      "velocity": 0.59,
      "hand": "left"
    },
    {
      "midi": 55,
      "time": 78,
      "duration": 0.15,
      "velocity": 0.61,
      "hand": "left"
    },
    {
      "midi": 57,
      "time": 78,
      "duration": 0.15,
      "velocity": 0.53,
      "hand": "left"
    },
    {
      "midi": 57,
      "time": 78,
      "duration": 0.075,
      "velocity": 0.81,
      "hand": "left"
    },
    {
      "midi": 60,
      "time": 78,
      "duration": 0.75,
      "velocity": 0.64,
      "hand": "right"
    },
    {
      "midi": 60,
      "time": 78,
      "duration": 0.15,
      "velocity": 0.72,
      "hand": "right"
    },
    {
      "midi": 62,
      "time": 78,
      "duration": 0.15,
      "velocity": 0.55,
      "hand": "right"
    },
    {
      "midi": 64,
      "time": 78,
      "duration": 0.75,
      "velocity": 0.57,
      "hand": "right"
    },
    {
      "midi": 64,
      "time": 78,
      "duration": 0.15,
      "velocity": 0.64,
      "hand": "right"
    },
    {
      "midi": 67,
      "time": 78,
      "duration": 0.15,
      "velocity": 0.54,
      "hand": "right"
    },
    {
      "midi": 70,
      "time": 78,
      "duration": 0.075,
      "velocity": 0.72,
      "hand": "right"
    },
    {
      "midi": 72,
      "time": 78,
      "duration": 0.15,
      "velocity": 0.51,
      "hand": "right"
    },
    {
      "midi": 67,
      "time": 78.6,
      "duration": 0.15,
      "velocity": 0.73,
      "hand": "right"
    },
    {
      "midi": 67,
      "time": 78.9,
      "duration": 0.075,
      "velocity": 0.72,
      "hand": "right"
    },
    {
      "midi": 67,
      "time": 79.05,
      "duration": 0.15,
      "velocity": 0.65,
      "hand": "right"
    },
    {
      "midi": 69,
      "time": 79.2,
      "duration": 0.15,
      "velocity": 0.74,
      "hand": "right"
    },
    {
      "midi": 67,
      "time": 79.5,
      "duration": 0.15,
      "velocity": 0.83,
      "hand": "right"
    },
    {
      "midi": 31,
      "time": 80.1,
      "duration": 0.3,
      "velocity": 0.57,
      "hand": "left"
    },
    {
      "midi": 35,
      "time": 80.1,
      "duration": 0.15,
      "velocity": 0.79,
      "hand": "left"
    },
    {
      "midi": 40,
      "time": 80.1,
      "duration": 0.15,
      "velocity": 0.79,
      "hand": "left"
    },
    {
      "midi": 57,
      "time": 80.1,
      "duration": 0.15,
      "velocity": 0.79,
      "hand": "left"
    },
    {
      "midi": 59,
      "time": 80.1,
      "duration": 0.15,
      "velocity": 0.65,
      "hand": "left"
    },
    {
      "midi": 62,
      "time": 80.1,
      "duration": 0.15,
      "velocity": 0.61,
      "hand": "right"
    },
    {
      "midi": 65,
      "time": 80.1,
      "duration": 0.15,
      "velocity": 0.72,
      "hand": "right"
    },
    {
      "midi": 67,
      "time": 80.1,
      "duration": 0.15,
      "velocity": 0.72,
      "hand": "right"
    },
    {
      "midi": 71,
      "time": 80.1,
      "duration": 0.15,
      "velocity": 0.63,
      "hand": "right"
    },
    {
      "midi": 55,
      "time": 80.25,
      "duration": 0.15,
      "velocity": 0.72,
      "hand": "left"
    },
    {
      "midi": 35,
      "time": 80.4,
      "duration": 0.075,
      "velocity": 0.79,
      "hand": "left"
    },
    {
      "midi": 36,
      "time": 80.4,
      "duration": 0.15,
      "velocity": 0.74,
      "hand": "left"
    },
    {
      "midi": 40,
      "time": 80.4,
      "duration": 0.15,
      "velocity": 0.81,
      "hand": "left"
    },
    {
      "midi": 49,
      "time": 80.4,
      "duration": 0.075,
      "velocity": 0.79,
      "hand": "left"
    },
    {
      "midi": 57,
      "time": 80.4,
      "duration": 0.15,
      "velocity": 0.52,
      "hand": "left"
    },
    {
      "midi": 60,
      "time": 80.4,
      "duration": 0.15,
      "velocity": 0.72,
      "hand": "right"
    },
    {
      "midi": 64,
      "time": 80.4,
      "duration": 0.15,
      "velocity": 0.64,
      "hand": "right"
    },
    {
      "midi": 65,
      "time": 80.4,
      "duration": 0.075,
      "velocity": 0.46,
      "hand": "right"
    },
    {
      "midi": 67,
      "time": 80.4,
      "duration": 0.15,
      "velocity": 0.72,
      "hand": "right"
    },
    {
      "midi": 69,
      "time": 80.4,
      "duration": 0.15,
      "velocity": 0.72,
      "hand": "right"
    },
    {
      "midi": 72,
      "time": 80.4,
      "duration": 0.15,
      "velocity": 0.72,
      "hand": "right"
    }
  ],
  "arrangements": {
    "easy": [
      {
        "midi": 67,
        "time": 4.8,
        "duration": 0.2,
        "velocity": 0.57,
        "hand": "right"
      },
      {
        "midi": 70,
        "time": 5.1,
        "duration": 0.2,
        "velocity": 0.72,
        "hand": "right"
      },
      {
        "midi": 67,
        "time": 5.25,
        "duration": 0.2,
        "velocity": 0.54,
        "hand": "right"
      },
      {
        "midi": 70,
        "time": 5.4,
        "duration": 0.2,
        "velocity": 0.69,
        "hand": "right"
      },
      {
        "midi": 70,
        "time": 5.7,
        "duration": 0.2,
        "velocity": 0.68,
        "hand": "right"
      },
      {
        "midi": 70,
        "time": 6,
        "duration": 0.2,
        "velocity": 0.61,
        "hand": "right"
      },
      {
        "midi": 67,
        "time": 6.3,
        "duration": 0.2,
        "velocity": 0.55,
        "hand": "right"
      },
      {
        "midi": 69,
        "time": 6.6,
        "duration": 0.45,
        "velocity": 0.63,
        "hand": "right"
      },
      {
        "midi": 67,
        "time": 6.9,
        "duration": 0.2,
        "velocity": 0.55,
        "hand": "right"
      },
      {
        "midi": 71,
        "time": 7.2,
        "duration": 2.1,
        "velocity": 0.57,
        "hand": "right"
      },
      {
        "midi": 70,
        "time": 7.5,
        "duration": 0.2,
        "velocity": 0.72,
        "hand": "right"
      },
      {
        "midi": 67,
        "time": 7.65,
        "duration": 0.2,
        "velocity": 0.53,
        "hand": "right"
      },
      {
        "midi": 70,
        "time": 7.8,
        "duration": 0.2,
        "velocity": 0.72,
        "hand": "right"
      },
      {
        "midi": 70,
        "time": 8.1,
        "duration": 0.2,
        "velocity": 0.58,
        "hand": "right"
      },
      {
        "midi": 70,
        "time": 8.4,
        "duration": 0.2,
        "velocity": 0.72,
        "hand": "right"
      },
      {
        "midi": 67,
        "time": 8.7,
        "duration": 0.2,
        "velocity": 0.54,
        "hand": "right"
      },
      {
        "midi": 67,
        "time": 9,
        "duration": 0.2,
        "velocity": 0.57,
        "hand": "right"
      },
      {
        "midi": 67,
        "time": 9.3,
        "duration": 0.2,
        "velocity": 0.54,
        "hand": "right"
      },
      {
        "midi": 72,
        "time": 9.6,
        "duration": 1.05,
        "velocity": 0.56,
        "hand": "right"
      },
      {
        "midi": 70,
        "time": 9.9,
        "duration": 0.2,
        "velocity": 0.73,
        "hand": "right"
      },
      {
        "midi": 65,
        "time": 10.05,
        "duration": 0.2,
        "velocity": 0.57,
        "hand": "right"
      },
      {
        "midi": 70,
        "time": 10.2,
        "duration": 0.2,
        "velocity": 0.72,
        "hand": "right"
      },
      {
        "midi": 70,
        "time": 10.5,
        "duration": 0.2,
        "velocity": 0.72,
        "hand": "right"
      },
      {
        "midi": 71,
        "time": 10.8,
        "duration": 1.05,
        "velocity": 0.57,
        "hand": "right"
      },
      {
        "midi": 65,
        "time": 11.1,
        "duration": 0.2,
        "velocity": 0.54,
        "hand": "right"
      },
      {
        "midi": 65,
        "time": 11.4,
        "duration": 0.3,
        "velocity": 0.52,
        "hand": "right"
      },
      {
        "midi": 65,
        "time": 11.7,
        "duration": 0.2,
        "velocity": 0.52,
        "hand": "right"
      },
      {
        "midi": 72,
        "time": 12,
        "duration": 1.05,
        "velocity": 0.69,
        "hand": "right"
      },
      {
        "midi": 70,
        "time": 12.3,
        "duration": 0.2,
        "velocity": 0.7,
        "hand": "right"
      },
      {
        "midi": 64,
        "time": 12.45,
        "duration": 0.2,
        "velocity": 0.59,
        "hand": "right"
      },
      {
        "midi": 70,
        "time": 12.6,
        "duration": 0.2,
        "velocity": 0.63,
        "hand": "right"
      },
      {
        "midi": 70,
        "time": 12.9,
        "duration": 0.2,
        "velocity": 0.56,
        "hand": "right"
      },
      {
        "midi": 72,
        "time": 13.2,
        "duration": 0.45,
        "velocity": 0.54,
        "hand": "right"
      },
      {
        "midi": 48,
        "time": 13.35,
        "duration": 0.2,
        "velocity": 0.54,
        "hand": "right"
      },
      {
        "midi": 65,
        "time": 13.5,
        "duration": 0.3,
        "velocity": 0.54,
        "hand": "right"
      },
      {
        "midi": 47,
        "time": 13.65,
        "duration": 0.2,
        "velocity": 0.63,
        "hand": "right"
      },
      {
        "midi": 71,
        "time": 13.8,
        "duration": 0.45,
        "velocity": 0.51,
        "hand": "right"
      },
      {
        "midi": 65,
        "time": 14.1,
        "duration": 0.2,
        "velocity": 0.54,
        "hand": "right"
      },
      {
        "midi": 67,
        "time": 14.4,
        "duration": 0.2,
        "velocity": 0.57,
        "hand": "right"
      },
      {
        "midi": 70,
        "time": 14.7,
        "duration": 0.2,
        "velocity": 0.72,
        "hand": "right"
      },
      {
        "midi": 67,
        "time": 14.85,
        "duration": 0.2,
        "velocity": 0.54,
        "hand": "right"
      },
      {
        "midi": 70,
        "time": 15,
        "duration": 0.2,
        "velocity": 0.69,
        "hand": "right"
      },
      {
        "midi": 70,
        "time": 15.3,
        "duration": 0.2,
        "velocity": 0.7,
        "hand": "right"
      },
      {
        "midi": 70,
        "time": 15.6,
        "duration": 0.2,
        "velocity": 0.72,
        "hand": "right"
      },
      {
        "midi": 67,
        "time": 15.9,
        "duration": 0.2,
        "velocity": 0.56,
        "hand": "right"
      },
      {
        "midi": 69,
        "time": 16.2,
        "duration": 0.45,
        "velocity": 0.57,
        "hand": "right"
      },
      {
        "midi": 67,
        "time": 16.5,
        "duration": 0.2,
        "velocity": 0.51,
        "hand": "right"
      },
      {
        "midi": 71,
        "time": 16.8,
        "duration": 0.75,
        "velocity": 0.65,
        "hand": "right"
      },
      {
        "midi": 70,
        "time": 17.1,
        "duration": 0.2,
        "velocity": 0.72,
        "hand": "right"
      },
      {
        "midi": 67,
        "time": 17.25,
        "duration": 0.2,
        "velocity": 0.52,
        "hand": "right"
      },
      {
        "midi": 70,
        "time": 17.4,
        "duration": 0.2,
        "velocity": 0.69,
        "hand": "right"
      },
      {
        "midi": 71,
        "time": 17.7,
        "duration": 0.75,
        "velocity": 0.68,
        "hand": "right"
      },
      {
        "midi": 70,
        "time": 18,
        "duration": 0.2,
        "velocity": 0.61,
        "hand": "right"
      },
      {
        "midi": 70,
        "time": 18.3,
        "duration": 0.2,
        "velocity": 0.72,
        "hand": "right"
      },
      {
        "midi": 71,
        "time": 18.6,
        "duration": 0.2,
        "velocity": 0.57,
        "hand": "right"
      },
      {
        "midi": 70,
        "time": 18.9,
        "duration": 0.2,
        "velocity": 0.58,
        "hand": "right"
      },
      {
        "midi": 72,
        "time": 19.2,
        "duration": 1.05,
        "velocity": 0.63,
        "hand": "right"
      },
      {
        "midi": 70,
        "time": 19.5,
        "duration": 0.2,
        "velocity": 0.72,
        "hand": "right"
      },
      {
        "midi": 69,
        "time": 19.65,
        "duration": 0.3,
        "velocity": 0.54,
        "hand": "right"
      },
      {
        "midi": 70,
        "time": 19.8,
        "duration": 0.2,
        "velocity": 0.72,
        "hand": "right"
      },
      {
        "midi": 70,
        "time": 20.1,
        "duration": 0.2,
        "velocity": 0.58,
        "hand": "right"
      },
      {
        "midi": 71,
        "time": 20.4,
        "duration": 1.05,
        "velocity": 0.58,
        "hand": "right"
      },
      {
        "midi": 65,
        "time": 20.7,
        "duration": 0.2,
        "velocity": 0.51,
        "hand": "right"
      },
      {
        "midi": 65,
        "time": 21,
        "duration": 0.3,
        "velocity": 0.46,
        "hand": "right"
      },
      {
        "midi": 65,
        "time": 21.3,
        "duration": 0.2,
        "velocity": 0.48,
        "hand": "right"
      },
      {
        "midi": 71,
        "time": 21.6,
        "duration": 1.05,
        "velocity": 0.49,
        "hand": "right"
      },
      {
        "midi": 70,
        "time": 21.9,
        "duration": 0.2,
        "velocity": 0.73,
        "hand": "right"
      },
      {
        "midi": 64,
        "time": 22.05,
        "duration": 0.2,
        "velocity": 0.57,
        "hand": "right"
      },
      {
        "midi": 70,
        "time": 22.2,
        "duration": 0.2,
        "velocity": 0.72,
        "hand": "right"
      },
      {
        "midi": 70,
        "time": 22.5,
        "duration": 0.2,
        "velocity": 0.72,
        "hand": "right"
      },
      {
        "midi": 70,
        "time": 22.8,
        "duration": 0.2,
        "velocity": 0.73,
        "hand": "right"
      },
      {
        "midi": 38,
        "time": 22.95,
        "duration": 0.2,
        "velocity": 0.72,
        "hand": "right"
      },
      {
        "midi": 65,
        "time": 23.1,
        "duration": 0.2,
        "velocity": 0.51,
        "hand": "right"
      },
      {
        "midi": 40,
        "time": 23.25,
        "duration": 0.2,
        "velocity": 0.72,
        "hand": "right"
      },
      {
        "midi": 67,
        "time": 23.4,
        "duration": 0.45,
        "velocity": 0.59,
        "hand": "right"
      },
      {
        "midi": 65,
        "time": 23.7,
        "duration": 0.2,
        "velocity": 0.42,
        "hand": "right"
      },
      {
        "midi": 67,
        "time": 24,
        "duration": 0.6,
        "velocity": 0.43,
        "hand": "right"
      },
      {
        "midi": 70,
        "time": 24.3,
        "duration": 0.2,
        "velocity": 0.7,
        "hand": "right"
      },
      {
        "midi": 70,
        "time": 24.6,
        "duration": 0.2,
        "velocity": 0.63,
        "hand": "right"
      },
      {
        "midi": 70,
        "time": 24.9,
        "duration": 0.2,
        "velocity": 0.56,
        "hand": "right"
      },
      {
        "midi": 70,
        "time": 25.2,
        "duration": 0.2,
        "velocity": 0.73,
        "hand": "right"
      },
      {
        "midi": 67,
        "time": 25.5,
        "duration": 0.2,
        "velocity": 0.57,
        "hand": "right"
      },
      {
        "midi": 67,
        "time": 25.8,
        "duration": 0.2,
        "velocity": 0.5,
        "hand": "right"
      },
      {
        "midi": 67,
        "time": 26.1,
        "duration": 0.2,
        "velocity": 0.51,
        "hand": "right"
      },
      {
        "midi": 69,
        "time": 26.4,
        "duration": 0.3,
        "velocity": 0.72,
        "hand": "right"
      },
      {
        "midi": 70,
        "time": 26.7,
        "duration": 0.2,
        "velocity": 0.72,
        "hand": "right"
      },
      {
        "midi": 70,
        "time": 27,
        "duration": 0.2,
        "velocity": 0.69,
        "hand": "right"
      },
      {
        "midi": 70,
        "time": 27.3,
        "duration": 0.2,
        "velocity": 0.7,
        "hand": "right"
      },
      {
        "midi": 70,
        "time": 27.6,
        "duration": 0.2,
        "velocity": 0.72,
        "hand": "right"
      },
      {
        "midi": 67,
        "time": 27.9,
        "duration": 0.2,
        "velocity": 0.5,
        "hand": "right"
      },
      {
        "midi": 67,
        "time": 28.2,
        "duration": 0.2,
        "velocity": 0.39,
        "hand": "right"
      },
      {
        "midi": 69,
        "time": 28.5,
        "duration": 0.2,
        "velocity": 0.72,
        "hand": "right"
      },
      {
        "midi": 69,
        "time": 28.8,
        "duration": 0.2,
        "velocity": 0.59,
        "hand": "right"
      },
      {
        "midi": 67,
        "time": 28.95,
        "duration": 0.2,
        "velocity": 0.31,
        "hand": "right"
      },
      {
        "midi": 70,
        "time": 29.1,
        "duration": 0.2,
        "velocity": 0.7,
        "hand": "right"
      },
      {
        "midi": 71,
        "time": 29.4,
        "duration": 0.3,
        "velocity": 0.57,
        "hand": "right"
      },
      {
        "midi": 70,
        "time": 29.7,
        "duration": 0.2,
        "velocity": 0.56,
        "hand": "right"
      },
      {
        "midi": 70,
        "time": 30,
        "duration": 0.2,
        "velocity": 0.73,
        "hand": "right"
      },
      {
        "midi": 69,
        "time": 30.3,
        "duration": 0.2,
        "velocity": 0.63,
        "hand": "right"
      },
      {
        "midi": 64,
        "time": 30.6,
        "duration": 0.2,
        "velocity": 0.56,
        "hand": "right"
      },
      {
        "midi": 69,
        "time": 30.9,
        "duration": 0.2,
        "velocity": 0.68,
        "hand": "right"
      },
      {
        "midi": 67,
        "time": 31.2,
        "duration": 0.2,
        "velocity": 0.5,
        "hand": "right"
      },
      {
        "midi": 70,
        "time": 31.5,
        "duration": 0.2,
        "velocity": 0.72,
        "hand": "right"
      },
      {
        "midi": 70,
        "time": 31.8,
        "duration": 0.2,
        "velocity": 0.69,
        "hand": "right"
      },
      {
        "midi": 70,
        "time": 32.1,
        "duration": 0.2,
        "velocity": 0.7,
        "hand": "right"
      },
      {
        "midi": 70,
        "time": 32.4,
        "duration": 0.2,
        "velocity": 0.72,
        "hand": "right"
      },
      {
        "midi": 67,
        "time": 32.7,
        "duration": 0.2,
        "velocity": 0.56,
        "hand": "right"
      },
      {
        "midi": 67,
        "time": 33,
        "duration": 0.2,
        "velocity": 0.54,
        "hand": "right"
      },
      {
        "midi": 67,
        "time": 33.3,
        "duration": 0.2,
        "velocity": 0.57,
        "hand": "right"
      },
      {
        "midi": 67,
        "time": 33.6,
        "duration": 0.6,
        "velocity": 0.43,
        "hand": "right"
      },
      {
        "midi": 70,
        "time": 33.9,
        "duration": 0.2,
        "velocity": 0.7,
        "hand": "right"
      },
      {
        "midi": 70,
        "time": 34.2,
        "duration": 0.2,
        "velocity": 0.63,
        "hand": "right"
      },
      {
        "midi": 70,
        "time": 34.5,
        "duration": 0.2,
        "velocity": 0.56,
        "hand": "right"
      },
      {
        "midi": 70,
        "time": 34.8,
        "duration": 0.2,
        "velocity": 0.73,
        "hand": "right"
      },
      {
        "midi": 67,
        "time": 35.1,
        "duration": 0.2,
        "velocity": 0.57,
        "hand": "right"
      },
      {
        "midi": 67,
        "time": 35.4,
        "duration": 0.2,
        "velocity": 0.5,
        "hand": "right"
      },
      {
        "midi": 67,
        "time": 35.7,
        "duration": 0.2,
        "velocity": 0.51,
        "hand": "right"
      },
      {
        "midi": 69,
        "time": 36,
        "duration": 0.3,
        "velocity": 0.72,
        "hand": "right"
      },
      {
        "midi": 70,
        "time": 36.3,
        "duration": 0.2,
        "velocity": 0.72,
        "hand": "right"
      },
      {
        "midi": 70,
        "time": 36.6,
        "duration": 0.2,
        "velocity": 0.69,
        "hand": "right"
      },
      {
        "midi": 70,
        "time": 36.9,
        "duration": 0.2,
        "velocity": 0.7,
        "hand": "right"
      },
      {
        "midi": 70,
        "time": 37.2,
        "duration": 0.2,
        "velocity": 0.72,
        "hand": "right"
      },
      {
        "midi": 67,
        "time": 37.5,
        "duration": 0.2,
        "velocity": 0.5,
        "hand": "right"
      },
      {
        "midi": 67,
        "time": 37.8,
        "duration": 0.2,
        "velocity": 0.39,
        "hand": "right"
      },
      {
        "midi": 69,
        "time": 38.1,
        "duration": 0.2,
        "velocity": 0.72,
        "hand": "right"
      },
      {
        "midi": 69,
        "time": 38.4,
        "duration": 0.2,
        "velocity": 0.59,
        "hand": "right"
      },
      {
        "midi": 67,
        "time": 38.55,
        "duration": 0.2,
        "velocity": 0.31,
        "hand": "right"
      },
      {
        "midi": 70,
        "time": 38.7,
        "duration": 0.2,
        "velocity": 0.7,
        "hand": "right"
      },
      {
        "midi": 71,
        "time": 39,
        "duration": 0.3,
        "velocity": 0.57,
        "hand": "right"
      },
      {
        "midi": 70,
        "time": 39.3,
        "duration": 0.2,
        "velocity": 0.56,
        "hand": "right"
      },
      {
        "midi": 70,
        "time": 39.6,
        "duration": 0.2,
        "velocity": 0.73,
        "hand": "right"
      },
      {
        "midi": 69,
        "time": 39.9,
        "duration": 0.2,
        "velocity": 0.63,
        "hand": "right"
      },
      {
        "midi": 64,
        "time": 40.2,
        "duration": 0.2,
        "velocity": 0.56,
        "hand": "right"
      },
      {
        "midi": 69,
        "time": 40.5,
        "duration": 0.2,
        "velocity": 0.68,
        "hand": "right"
      },
      {
        "midi": 67,
        "time": 40.8,
        "duration": 0.2,
        "velocity": 0.5,
        "hand": "right"
      },
      {
        "midi": 70,
        "time": 41.1,
        "duration": 0.2,
        "velocity": 0.72,
        "hand": "right"
      },
      {
        "midi": 70,
        "time": 41.4,
        "duration": 0.2,
        "velocity": 0.69,
        "hand": "right"
      },
      {
        "midi": 70,
        "time": 41.7,
        "duration": 0.2,
        "velocity": 0.7,
        "hand": "right"
      },
      {
        "midi": 70,
        "time": 42,
        "duration": 0.2,
        "velocity": 0.72,
        "hand": "right"
      },
      {
        "midi": 67,
        "time": 42.3,
        "duration": 0.2,
        "velocity": 0.56,
        "hand": "right"
      },
      {
        "midi": 67,
        "time": 42.6,
        "duration": 0.2,
        "velocity": 0.54,
        "hand": "right"
      },
      {
        "midi": 67,
        "time": 42.9,
        "duration": 0.2,
        "velocity": 0.57,
        "hand": "right"
      },
      {
        "midi": 47,
        "time": 43.05,
        "duration": 0.2,
        "velocity": 0.81,
        "hand": "right"
      },
      {
        "midi": 67,
        "time": 43.2,
        "duration": 0.6,
        "velocity": 0.43,
        "hand": "right"
      },
      {
        "midi": 70,
        "time": 43.5,
        "duration": 0.2,
        "velocity": 0.7,
        "hand": "right"
      },
      {
        "midi": 70,
        "time": 43.8,
        "duration": 0.2,
        "velocity": 0.63,
        "hand": "right"
      },
      {
        "midi": 70,
        "time": 44.1,
        "duration": 0.2,
        "velocity": 0.56,
        "hand": "right"
      },
      {
        "midi": 70,
        "time": 44.4,
        "duration": 0.2,
        "velocity": 0.73,
        "hand": "right"
      },
      {
        "midi": 67,
        "time": 44.7,
        "duration": 0.2,
        "velocity": 0.57,
        "hand": "right"
      },
      {
        "midi": 67,
        "time": 45,
        "duration": 0.2,
        "velocity": 0.5,
        "hand": "right"
      },
      {
        "midi": 67,
        "time": 45.3,
        "duration": 0.2,
        "velocity": 0.51,
        "hand": "right"
      },
      {
        "midi": 69,
        "time": 45.6,
        "duration": 0.3,
        "velocity": 0.72,
        "hand": "right"
      },
      {
        "midi": 70,
        "time": 45.9,
        "duration": 0.2,
        "velocity": 0.72,
        "hand": "right"
      },
      {
        "midi": 70,
        "time": 46.2,
        "duration": 0.2,
        "velocity": 0.69,
        "hand": "right"
      },
      {
        "midi": 70,
        "time": 46.5,
        "duration": 0.2,
        "velocity": 0.7,
        "hand": "right"
      },
      {
        "midi": 70,
        "time": 46.8,
        "duration": 0.2,
        "velocity": 0.72,
        "hand": "right"
      },
      {
        "midi": 67,
        "time": 47.1,
        "duration": 0.2,
        "velocity": 0.5,
        "hand": "right"
      },
      {
        "midi": 67,
        "time": 47.4,
        "duration": 0.2,
        "velocity": 0.39,
        "hand": "right"
      },
      {
        "midi": 69,
        "time": 47.7,
        "duration": 0.2,
        "velocity": 0.72,
        "hand": "right"
      },
      {
        "midi": 69,
        "time": 48,
        "duration": 0.2,
        "velocity": 0.59,
        "hand": "right"
      },
      {
        "midi": 67,
        "time": 48.15,
        "duration": 0.2,
        "velocity": 0.31,
        "hand": "right"
      },
      {
        "midi": 70,
        "time": 48.3,
        "duration": 0.2,
        "velocity": 0.7,
        "hand": "right"
      },
      {
        "midi": 71,
        "time": 48.6,
        "duration": 0.3,
        "velocity": 0.57,
        "hand": "right"
      },
      {
        "midi": 70,
        "time": 48.9,
        "duration": 0.2,
        "velocity": 0.56,
        "hand": "right"
      },
      {
        "midi": 70,
        "time": 49.2,
        "duration": 0.2,
        "velocity": 0.73,
        "hand": "right"
      },
      {
        "midi": 69,
        "time": 49.5,
        "duration": 0.2,
        "velocity": 0.63,
        "hand": "right"
      },
      {
        "midi": 64,
        "time": 49.8,
        "duration": 0.2,
        "velocity": 0.56,
        "hand": "right"
      },
      {
        "midi": 69,
        "time": 50.1,
        "duration": 0.2,
        "velocity": 0.68,
        "hand": "right"
      },
      {
        "midi": 67,
        "time": 50.4,
        "duration": 0.2,
        "velocity": 0.5,
        "hand": "right"
      },
      {
        "midi": 70,
        "time": 50.7,
        "duration": 0.2,
        "velocity": 0.72,
        "hand": "right"
      },
      {
        "midi": 70,
        "time": 51,
        "duration": 0.2,
        "velocity": 0.69,
        "hand": "right"
      },
      {
        "midi": 70,
        "time": 51.3,
        "duration": 0.2,
        "velocity": 0.7,
        "hand": "right"
      },
      {
        "midi": 70,
        "time": 51.6,
        "duration": 0.2,
        "velocity": 0.72,
        "hand": "right"
      },
      {
        "midi": 67,
        "time": 51.9,
        "duration": 0.2,
        "velocity": 0.56,
        "hand": "right"
      },
      {
        "midi": 67,
        "time": 52.2,
        "duration": 0.2,
        "velocity": 0.54,
        "hand": "right"
      },
      {
        "midi": 67,
        "time": 52.5,
        "duration": 0.2,
        "velocity": 0.57,
        "hand": "right"
      },
      {
        "midi": 67,
        "time": 52.8,
        "duration": 0.6,
        "velocity": 0.43,
        "hand": "right"
      },
      {
        "midi": 70,
        "time": 53.1,
        "duration": 0.2,
        "velocity": 0.7,
        "hand": "right"
      },
      {
        "midi": 70,
        "time": 53.4,
        "duration": 0.2,
        "velocity": 0.63,
        "hand": "right"
      },
      {
        "midi": 70,
        "time": 53.7,
        "duration": 0.2,
        "velocity": 0.56,
        "hand": "right"
      },
      {
        "midi": 70,
        "time": 54,
        "duration": 0.2,
        "velocity": 0.73,
        "hand": "right"
      },
      {
        "midi": 67,
        "time": 54.3,
        "duration": 0.2,
        "velocity": 0.57,
        "hand": "right"
      },
      {
        "midi": 67,
        "time": 54.6,
        "duration": 0.2,
        "velocity": 0.5,
        "hand": "right"
      },
      {
        "midi": 67,
        "time": 54.9,
        "duration": 0.2,
        "velocity": 0.51,
        "hand": "right"
      },
      {
        "midi": 69,
        "time": 55.2,
        "duration": 0.3,
        "velocity": 0.72,
        "hand": "right"
      },
      {
        "midi": 70,
        "time": 55.5,
        "duration": 0.2,
        "velocity": 0.72,
        "hand": "right"
      },
      {
        "midi": 70,
        "time": 55.8,
        "duration": 0.2,
        "velocity": 0.69,
        "hand": "right"
      },
      {
        "midi": 70,
        "time": 56.1,
        "duration": 0.2,
        "velocity": 0.7,
        "hand": "right"
      },
      {
        "midi": 70,
        "time": 56.4,
        "duration": 0.2,
        "velocity": 0.72,
        "hand": "right"
      },
      {
        "midi": 67,
        "time": 56.7,
        "duration": 0.2,
        "velocity": 0.5,
        "hand": "right"
      },
      {
        "midi": 67,
        "time": 57,
        "duration": 0.2,
        "velocity": 0.39,
        "hand": "right"
      },
      {
        "midi": 69,
        "time": 57.3,
        "duration": 0.2,
        "velocity": 0.72,
        "hand": "right"
      },
      {
        "midi": 69,
        "time": 57.6,
        "duration": 0.2,
        "velocity": 0.59,
        "hand": "right"
      },
      {
        "midi": 67,
        "time": 57.75,
        "duration": 0.2,
        "velocity": 0.31,
        "hand": "right"
      },
      {
        "midi": 70,
        "time": 57.9,
        "duration": 0.2,
        "velocity": 0.7,
        "hand": "right"
      },
      {
        "midi": 71,
        "time": 58.2,
        "duration": 0.3,
        "velocity": 0.57,
        "hand": "right"
      },
      {
        "midi": 70,
        "time": 58.5,
        "duration": 0.2,
        "velocity": 0.56,
        "hand": "right"
      },
      {
        "midi": 70,
        "time": 58.8,
        "duration": 0.2,
        "velocity": 0.73,
        "hand": "right"
      },
      {
        "midi": 69,
        "time": 59.1,
        "duration": 0.2,
        "velocity": 0.63,
        "hand": "right"
      },
      {
        "midi": 64,
        "time": 59.4,
        "duration": 0.2,
        "velocity": 0.56,
        "hand": "right"
      },
      {
        "midi": 69,
        "time": 59.7,
        "duration": 0.2,
        "velocity": 0.68,
        "hand": "right"
      },
      {
        "midi": 67,
        "time": 60,
        "duration": 0.2,
        "velocity": 0.5,
        "hand": "right"
      },
      {
        "midi": 70,
        "time": 60.3,
        "duration": 0.2,
        "velocity": 0.72,
        "hand": "right"
      },
      {
        "midi": 70,
        "time": 60.6,
        "duration": 0.2,
        "velocity": 0.69,
        "hand": "right"
      },
      {
        "midi": 70,
        "time": 60.9,
        "duration": 0.2,
        "velocity": 0.7,
        "hand": "right"
      },
      {
        "midi": 67,
        "time": 61.2,
        "duration": 0.2,
        "velocity": 0.57,
        "hand": "right"
      },
      {
        "midi": 70,
        "time": 61.5,
        "duration": 0.2,
        "velocity": 0.72,
        "hand": "right"
      },
      {
        "midi": 67,
        "time": 61.65,
        "duration": 0.2,
        "velocity": 0.54,
        "hand": "right"
      },
      {
        "midi": 70,
        "time": 61.8,
        "duration": 0.2,
        "velocity": 0.69,
        "hand": "right"
      },
      {
        "midi": 70,
        "time": 62.1,
        "duration": 0.2,
        "velocity": 0.68,
        "hand": "right"
      },
      {
        "midi": 70,
        "time": 62.4,
        "duration": 0.2,
        "velocity": 0.61,
        "hand": "right"
      },
      {
        "midi": 67,
        "time": 62.7,
        "duration": 0.2,
        "velocity": 0.55,
        "hand": "right"
      },
      {
        "midi": 69,
        "time": 63,
        "duration": 0.45,
        "velocity": 0.63,
        "hand": "right"
      },
      {
        "midi": 67,
        "time": 63.3,
        "duration": 0.2,
        "velocity": 0.55,
        "hand": "right"
      },
      {
        "midi": 71,
        "time": 63.6,
        "duration": 2.1,
        "velocity": 0.57,
        "hand": "right"
      },
      {
        "midi": 70,
        "time": 63.9,
        "duration": 0.2,
        "velocity": 0.72,
        "hand": "right"
      },
      {
        "midi": 67,
        "time": 64.05,
        "duration": 0.2,
        "velocity": 0.53,
        "hand": "right"
      },
      {
        "midi": 70,
        "time": 64.2,
        "duration": 0.2,
        "velocity": 0.72,
        "hand": "right"
      },
      {
        "midi": 70,
        "time": 64.5,
        "duration": 0.2,
        "velocity": 0.58,
        "hand": "right"
      },
      {
        "midi": 70,
        "time": 64.8,
        "duration": 0.2,
        "velocity": 0.72,
        "hand": "right"
      },
      {
        "midi": 67,
        "time": 65.1,
        "duration": 0.2,
        "velocity": 0.54,
        "hand": "right"
      },
      {
        "midi": 67,
        "time": 65.4,
        "duration": 0.2,
        "velocity": 0.57,
        "hand": "right"
      },
      {
        "midi": 67,
        "time": 65.7,
        "duration": 0.2,
        "velocity": 0.54,
        "hand": "right"
      },
      {
        "midi": 72,
        "time": 66,
        "duration": 1.05,
        "velocity": 0.56,
        "hand": "right"
      },
      {
        "midi": 70,
        "time": 66.3,
        "duration": 0.2,
        "velocity": 0.73,
        "hand": "right"
      },
      {
        "midi": 65,
        "time": 66.45,
        "duration": 0.2,
        "velocity": 0.57,
        "hand": "right"
      },
      {
        "midi": 70,
        "time": 66.6,
        "duration": 0.2,
        "velocity": 0.72,
        "hand": "right"
      },
      {
        "midi": 70,
        "time": 66.9,
        "duration": 0.2,
        "velocity": 0.72,
        "hand": "right"
      },
      {
        "midi": 71,
        "time": 67.2,
        "duration": 1.05,
        "velocity": 0.57,
        "hand": "right"
      },
      {
        "midi": 65,
        "time": 67.5,
        "duration": 0.2,
        "velocity": 0.54,
        "hand": "right"
      },
      {
        "midi": 65,
        "time": 67.8,
        "duration": 0.3,
        "velocity": 0.52,
        "hand": "right"
      },
      {
        "midi": 65,
        "time": 68.1,
        "duration": 0.2,
        "velocity": 0.52,
        "hand": "right"
      },
      {
        "midi": 72,
        "time": 68.4,
        "duration": 1.05,
        "velocity": 0.69,
        "hand": "right"
      },
      {
        "midi": 70,
        "time": 68.7,
        "duration": 0.2,
        "velocity": 0.7,
        "hand": "right"
      },
      {
        "midi": 64,
        "time": 68.85,
        "duration": 0.2,
        "velocity": 0.59,
        "hand": "right"
      },
      {
        "midi": 70,
        "time": 69,
        "duration": 0.2,
        "velocity": 0.63,
        "hand": "right"
      },
      {
        "midi": 70,
        "time": 69.3,
        "duration": 0.2,
        "velocity": 0.56,
        "hand": "right"
      },
      {
        "midi": 72,
        "time": 69.6,
        "duration": 0.45,
        "velocity": 0.54,
        "hand": "right"
      },
      {
        "midi": 48,
        "time": 69.75,
        "duration": 0.2,
        "velocity": 0.54,
        "hand": "right"
      },
      {
        "midi": 65,
        "time": 69.9,
        "duration": 0.3,
        "velocity": 0.54,
        "hand": "right"
      },
      {
        "midi": 47,
        "time": 70.05,
        "duration": 0.2,
        "velocity": 0.63,
        "hand": "right"
      },
      {
        "midi": 71,
        "time": 70.2,
        "duration": 0.45,
        "velocity": 0.51,
        "hand": "right"
      },
      {
        "midi": 65,
        "time": 70.5,
        "duration": 0.2,
        "velocity": 0.54,
        "hand": "right"
      },
      {
        "midi": 67,
        "time": 70.8,
        "duration": 0.2,
        "velocity": 0.57,
        "hand": "right"
      },
      {
        "midi": 70,
        "time": 71.1,
        "duration": 0.2,
        "velocity": 0.72,
        "hand": "right"
      },
      {
        "midi": 67,
        "time": 71.25,
        "duration": 0.2,
        "velocity": 0.54,
        "hand": "right"
      },
      {
        "midi": 70,
        "time": 71.4,
        "duration": 0.2,
        "velocity": 0.69,
        "hand": "right"
      },
      {
        "midi": 70,
        "time": 71.7,
        "duration": 0.2,
        "velocity": 0.7,
        "hand": "right"
      },
      {
        "midi": 70,
        "time": 72,
        "duration": 0.2,
        "velocity": 0.72,
        "hand": "right"
      },
      {
        "midi": 67,
        "time": 72.3,
        "duration": 0.2,
        "velocity": 0.56,
        "hand": "right"
      },
      {
        "midi": 69,
        "time": 72.6,
        "duration": 0.45,
        "velocity": 0.57,
        "hand": "right"
      },
      {
        "midi": 67,
        "time": 72.9,
        "duration": 0.2,
        "velocity": 0.51,
        "hand": "right"
      },
      {
        "midi": 71,
        "time": 73.2,
        "duration": 0.75,
        "velocity": 0.65,
        "hand": "right"
      },
      {
        "midi": 70,
        "time": 73.5,
        "duration": 0.2,
        "velocity": 0.72,
        "hand": "right"
      },
      {
        "midi": 67,
        "time": 73.65,
        "duration": 0.2,
        "velocity": 0.52,
        "hand": "right"
      },
      {
        "midi": 70,
        "time": 73.8,
        "duration": 0.2,
        "velocity": 0.69,
        "hand": "right"
      },
      {
        "midi": 71,
        "time": 74.1,
        "duration": 0.75,
        "velocity": 0.68,
        "hand": "right"
      },
      {
        "midi": 70,
        "time": 74.4,
        "duration": 0.2,
        "velocity": 0.61,
        "hand": "right"
      },
      {
        "midi": 70,
        "time": 74.7,
        "duration": 0.2,
        "velocity": 0.72,
        "hand": "right"
      },
      {
        "midi": 71,
        "time": 75,
        "duration": 0.2,
        "velocity": 0.57,
        "hand": "right"
      },
      {
        "midi": 70,
        "time": 75.3,
        "duration": 0.2,
        "velocity": 0.58,
        "hand": "right"
      },
      {
        "midi": 72,
        "time": 75.6,
        "duration": 1.05,
        "velocity": 0.63,
        "hand": "right"
      },
      {
        "midi": 70,
        "time": 75.9,
        "duration": 0.2,
        "velocity": 0.72,
        "hand": "right"
      },
      {
        "midi": 69,
        "time": 76.05,
        "duration": 0.3,
        "velocity": 0.54,
        "hand": "right"
      },
      {
        "midi": 70,
        "time": 76.2,
        "duration": 0.2,
        "velocity": 0.72,
        "hand": "right"
      },
      {
        "midi": 70,
        "time": 76.5,
        "duration": 0.2,
        "velocity": 0.58,
        "hand": "right"
      },
      {
        "midi": 71,
        "time": 76.8,
        "duration": 1.05,
        "velocity": 0.58,
        "hand": "right"
      },
      {
        "midi": 65,
        "time": 77.1,
        "duration": 0.2,
        "velocity": 0.51,
        "hand": "right"
      },
      {
        "midi": 65,
        "time": 77.4,
        "duration": 0.3,
        "velocity": 0.46,
        "hand": "right"
      },
      {
        "midi": 65,
        "time": 77.7,
        "duration": 0.2,
        "velocity": 0.48,
        "hand": "right"
      },
      {
        "midi": 72,
        "time": 78,
        "duration": 0.2,
        "velocity": 0.51,
        "hand": "right"
      },
      {
        "midi": 67,
        "time": 78.6,
        "duration": 0.2,
        "velocity": 0.73,
        "hand": "right"
      },
      {
        "midi": 67,
        "time": 78.9,
        "duration": 0.2,
        "velocity": 0.72,
        "hand": "right"
      },
      {
        "midi": 69,
        "time": 79.2,
        "duration": 0.2,
        "velocity": 0.74,
        "hand": "right"
      },
      {
        "midi": 67,
        "time": 79.5,
        "duration": 0.2,
        "velocity": 0.83,
        "hand": "right"
      },
      {
        "midi": 71,
        "time": 80.1,
        "duration": 0.2,
        "velocity": 0.63,
        "hand": "right"
      },
      {
        "midi": 55,
        "time": 80.25,
        "duration": 0.2,
        "velocity": 0.72,
        "hand": "right"
      },
      {
        "midi": 72,
        "time": 80.4,
        "duration": 0.2,
        "velocity": 0.72,
        "hand": "right"
      }
    ],
    "medium": [
      {
        "midi": 35,
        "time": 4.8,
        "duration": 0.15,
        "velocity": 0.59,
        "hand": "left"
      },
      {
        "midi": 60,
        "time": 4.8,
        "duration": 1.65,
        "velocity": 0.53,
        "hand": "right"
      },
      {
        "midi": 67,
        "time": 4.8,
        "duration": 1.65,
        "velocity": 0.61,
        "hand": "right"
      },
      {
        "midi": 38,
        "time": 5.1,
        "duration": 0.15,
        "velocity": 0.57,
        "hand": "left"
      },
      {
        "midi": 57,
        "time": 5.1,
        "duration": 0.15,
        "velocity": 0.55,
        "hand": "left"
      },
      {
        "midi": 70,
        "time": 5.1,
        "duration": 0.15,
        "velocity": 0.72,
        "hand": "right"
      },
      {
        "midi": 57,
        "time": 5.25,
        "duration": 0.15,
        "velocity": 0.51,
        "hand": "left"
      },
      {
        "midi": 62,
        "time": 5.25,
        "duration": 0.15,
        "velocity": 0.51,
        "hand": "right"
      },
      {
        "midi": 67,
        "time": 5.25,
        "duration": 0.15,
        "velocity": 0.54,
        "hand": "right"
      },
      {
        "midi": 31,
        "time": 5.4,
        "duration": 0.45,
        "velocity": 0.96,
        "hand": "left"
      },
      {
        "midi": 57,
        "time": 5.4,
        "duration": 0.15,
        "velocity": 0.5,
        "hand": "left"
      },
      {
        "midi": 70,
        "time": 5.4,
        "duration": 0.15,
        "velocity": 0.69,
        "hand": "right"
      },
      {
        "midi": 38,
        "time": 5.7,
        "duration": 0.15,
        "velocity": 0.53,
        "hand": "left"
      },
      {
        "midi": 62,
        "time": 5.7,
        "duration": 0.75,
        "velocity": 0.72,
        "hand": "right"
      },
      {
        "midi": 70,
        "time": 5.7,
        "duration": 0.15,
        "velocity": 0.68,
        "hand": "right"
      },
      {
        "midi": 35,
        "time": 6,
        "duration": 0.15,
        "velocity": 0.55,
        "hand": "left"
      },
      {
        "midi": 42,
        "time": 6,
        "duration": 0.15,
        "velocity": 0.61,
        "hand": "left"
      },
      {
        "midi": 70,
        "time": 6,
        "duration": 0.15,
        "velocity": 0.61,
        "hand": "right"
      },
      {
        "midi": 38,
        "time": 6.3,
        "duration": 0.15,
        "velocity": 0.54,
        "hand": "left"
      },
      {
        "midi": 57,
        "time": 6.3,
        "duration": 0.15,
        "velocity": 0.64,
        "hand": "left"
      },
      {
        "midi": 67,
        "time": 6.3,
        "duration": 0.15,
        "velocity": 0.55,
        "hand": "right"
      },
      {
        "midi": 31,
        "time": 6.6,
        "duration": 0.6,
        "velocity": 0.96,
        "hand": "left"
      },
      {
        "midi": 62,
        "time": 6.6,
        "duration": 0.15,
        "velocity": 0.72,
        "hand": "right"
      },
      {
        "midi": 69,
        "time": 6.6,
        "duration": 0.45,
        "velocity": 0.63,
        "hand": "right"
      },
      {
        "midi": 38,
        "time": 6.9,
        "duration": 0.15,
        "velocity": 0.53,
        "hand": "left"
      },
      {
        "midi": 57,
        "time": 6.9,
        "duration": 0.15,
        "velocity": 0.49,
        "hand": "left"
      },
      {
        "midi": 67,
        "time": 6.9,
        "duration": 0.15,
        "velocity": 0.55,
        "hand": "right"
      },
      {
        "midi": 35,
        "time": 7.2,
        "duration": 0.6,
        "velocity": 0.96,
        "hand": "left"
      },
      {
        "midi": 59,
        "time": 7.2,
        "duration": 0.6,
        "velocity": 0.57,
        "hand": "left"
      },
      {
        "midi": 71,
        "time": 7.2,
        "duration": 2.1,
        "velocity": 0.57,
        "hand": "right"
      },
      {
        "midi": 38,
        "time": 7.5,
        "duration": 0.15,
        "velocity": 0.58,
        "hand": "left"
      },
      {
        "midi": 51,
        "time": 7.5,
        "duration": 0.15,
        "velocity": 0.55,
        "hand": "left"
      },
      {
        "midi": 70,
        "time": 7.5,
        "duration": 0.15,
        "velocity": 0.72,
        "hand": "right"
      },
      {
        "midi": 59,
        "time": 7.65,
        "duration": 0.15,
        "velocity": 0.61,
        "hand": "left"
      },
      {
        "midi": 64,
        "time": 7.65,
        "duration": 0.15,
        "velocity": 0.55,
        "hand": "right"
      },
      {
        "midi": 67,
        "time": 7.65,
        "duration": 0.15,
        "velocity": 0.53,
        "hand": "right"
      },
      {
        "midi": 35,
        "time": 7.8,
        "duration": 0.15,
        "velocity": 0.7,
        "hand": "left"
      },
      {
        "midi": 62,
        "time": 7.8,
        "duration": 0.15,
        "velocity": 0.56,
        "hand": "right"
      },
      {
        "midi": 70,
        "time": 7.8,
        "duration": 0.15,
        "velocity": 0.72,
        "hand": "right"
      },
      {
        "midi": 38,
        "time": 8.1,
        "duration": 0.15,
        "velocity": 0.52,
        "hand": "left"
      },
      {
        "midi": 62,
        "time": 8.1,
        "duration": 0.75,
        "velocity": 0.61,
        "hand": "right"
      },
      {
        "midi": 70,
        "time": 8.1,
        "duration": 0.15,
        "velocity": 0.58,
        "hand": "right"
      },
      {
        "midi": 35,
        "time": 8.4,
        "duration": 0.6,
        "velocity": 0.96,
        "hand": "left"
      },
      {
        "midi": 42,
        "time": 8.4,
        "duration": 0.15,
        "velocity": 0.57,
        "hand": "left"
      },
      {
        "midi": 70,
        "time": 8.4,
        "duration": 0.15,
        "velocity": 0.72,
        "hand": "right"
      },
      {
        "midi": 38,
        "time": 8.7,
        "duration": 0.15,
        "velocity": 0.57,
        "hand": "left"
      },
      {
        "midi": 59,
        "time": 8.7,
        "duration": 0.15,
        "velocity": 0.63,
        "hand": "left"
      },
      {
        "midi": 67,
        "time": 8.7,
        "duration": 0.15,
        "velocity": 0.54,
        "hand": "right"
      },
      {
        "midi": 35,
        "time": 9,
        "duration": 0.15,
        "velocity": 0.72,
        "hand": "left"
      },
      {
        "midi": 59,
        "time": 9,
        "duration": 0.15,
        "velocity": 0.72,
        "hand": "left"
      },
      {
        "midi": 67,
        "time": 9,
        "duration": 0.15,
        "velocity": 0.57,
        "hand": "right"
      },
      {
        "midi": 38,
        "time": 9.3,
        "duration": 0.15,
        "velocity": 0.56,
        "hand": "left"
      },
      {
        "midi": 59,
        "time": 9.3,
        "duration": 0.15,
        "velocity": 0.54,
        "hand": "left"
      },
      {
        "midi": 67,
        "time": 9.3,
        "duration": 0.15,
        "velocity": 0.54,
        "hand": "right"
      },
      {
        "midi": 35,
        "time": 9.6,
        "duration": 0.15,
        "velocity": 0.57,
        "hand": "left"
      },
      {
        "midi": 60,
        "time": 9.6,
        "duration": 0.45,
        "velocity": 0.7,
        "hand": "right"
      },
      {
        "midi": 72,
        "time": 9.6,
        "duration": 1.05,
        "velocity": 0.56,
        "hand": "right"
      },
      {
        "midi": 38,
        "time": 9.9,
        "duration": 0.15,
        "velocity": 0.54,
        "hand": "left"
      },
      {
        "midi": 51,
        "time": 9.9,
        "duration": 0.15,
        "velocity": 0.54,
        "hand": "left"
      },
      {
        "midi": 70,
        "time": 9.9,
        "duration": 0.15,
        "velocity": 0.73,
        "hand": "right"
      },
      {
        "midi": 57,
        "time": 10.05,
        "duration": 0.15,
        "velocity": 0.63,
        "hand": "left"
      },
      {
        "midi": 62,
        "time": 10.05,
        "duration": 0.15,
        "velocity": 0.72,
        "hand": "right"
      },
      {
        "midi": 65,
        "time": 10.05,
        "duration": 0.15,
        "velocity": 0.57,
        "hand": "right"
      },
      {
        "midi": 33,
        "time": 10.2,
        "duration": 0.6,
        "velocity": 0.96,
        "hand": "left"
      },
      {
        "midi": 60,
        "time": 10.2,
        "duration": 0.45,
        "velocity": 0.78,
        "hand": "right"
      },
      {
        "midi": 70,
        "time": 10.2,
        "duration": 0.15,
        "velocity": 0.72,
        "hand": "right"
      },
      {
        "midi": 38,
        "time": 10.5,
        "duration": 0.15,
        "velocity": 0.56,
        "hand": "left"
      },
      {
        "midi": 57,
        "time": 10.5,
        "duration": 0.15,
        "velocity": 0.73,
        "hand": "left"
      },
      {
        "midi": 70,
        "time": 10.5,
        "duration": 0.15,
        "velocity": 0.72,
        "hand": "right"
      },
      {
        "midi": 31,
        "time": 10.8,
        "duration": 0.6,
        "velocity": 0.96,
        "hand": "left"
      },
      {
        "midi": 59,
        "time": 10.8,
        "duration": 0.9,
        "velocity": 0.56,
        "hand": "left"
      },
      {
        "midi": 71,
        "time": 10.8,
        "duration": 1.05,
        "velocity": 0.57,
        "hand": "right"
      },
      {
        "midi": 38,
        "time": 11.1,
        "duration": 0.15,
        "velocity": 0.56,
        "hand": "left"
      },
      {
        "midi": 55,
        "time": 11.1,
        "duration": 0.15,
        "velocity": 0.53,
        "hand": "left"
      },
      {
        "midi": 65,
        "time": 11.1,
        "duration": 0.3,
        "velocity": 0.52,
        "hand": "right"
      },
      {
        "midi": 35,
        "time": 11.4,
        "duration": 0.15,
        "velocity": 0.57,
        "hand": "left"
      },
      {
        "midi": 59,
        "time": 11.4,
        "duration": 0.3,
        "velocity": 0.55,
        "hand": "left"
      },
      {
        "midi": 65,
        "time": 11.4,
        "duration": 0.15,
        "velocity": 0.57,
        "hand": "right"
      },
      {
        "midi": 38,
        "time": 11.7,
        "duration": 0.15,
        "velocity": 0.57,
        "hand": "left"
      },
      {
        "midi": 55,
        "time": 11.7,
        "duration": 0.15,
        "velocity": 0.57,
        "hand": "left"
      },
      {
        "midi": 65,
        "time": 11.7,
        "duration": 0.15,
        "velocity": 0.52,
        "hand": "right"
      },
      {
        "midi": 35,
        "time": 12,
        "duration": 0.15,
        "velocity": 0.7,
        "hand": "left"
      },
      {
        "midi": 60,
        "time": 12,
        "duration": 0.15,
        "velocity": 0.73,
        "hand": "right"
      },
      {
        "midi": 72,
        "time": 12,
        "duration": 1.05,
        "velocity": 0.69,
        "hand": "right"
      },
      {
        "midi": 38,
        "time": 12.3,
        "duration": 0.15,
        "velocity": 0.57,
        "hand": "left"
      },
      {
        "midi": 51,
        "time": 12.3,
        "duration": 0.15,
        "velocity": 0.61,
        "hand": "left"
      },
      {
        "midi": 70,
        "time": 12.3,
        "duration": 0.15,
        "velocity": 0.7,
        "hand": "right"
      },
      {
        "midi": 55,
        "time": 12.45,
        "duration": 0.15,
        "velocity": 0.57,
        "hand": "left"
      },
      {
        "midi": 60,
        "time": 12.45,
        "duration": 0.15,
        "velocity": 0.64,
        "hand": "right"
      },
      {
        "midi": 64,
        "time": 12.45,
        "duration": 0.15,
        "velocity": 0.59,
        "hand": "right"
      },
      {
        "midi": 31,
        "time": 12.6,
        "duration": 0.3,
        "velocity": 0.96,
        "hand": "left"
      },
      {
        "midi": 60,
        "time": 12.6,
        "duration": 0.3,
        "velocity": 0.56,
        "hand": "right"
      },
      {
        "midi": 70,
        "time": 12.6,
        "duration": 0.15,
        "velocity": 0.63,
        "hand": "right"
      },
      {
        "midi": 36,
        "time": 12.9,
        "duration": 0.3,
        "velocity": 0.96,
        "hand": "left"
      },
      {
        "midi": 54,
        "time": 12.9,
        "duration": 0.15,
        "velocity": 0.5,
        "hand": "left"
      },
      {
        "midi": 70,
        "time": 12.9,
        "duration": 0.15,
        "velocity": 0.56,
        "hand": "right"
      },
      {
        "midi": 35,
        "time": 13.2,
        "duration": 0.15,
        "velocity": 0.72,
        "hand": "left"
      },
      {
        "midi": 60,
        "time": 13.2,
        "duration": 0.3,
        "velocity": 0.52,
        "hand": "right"
      },
      {
        "midi": 72,
        "time": 13.2,
        "duration": 0.45,
        "velocity": 0.54,
        "hand": "right"
      },
      {
        "midi": 48,
        "time": 13.35,
        "duration": 0.15,
        "velocity": 0.54,
        "hand": "left"
      },
      {
        "midi": 38,
        "time": 13.5,
        "duration": 0.15,
        "velocity": 0.56,
        "hand": "left"
      },
      {
        "midi": 57,
        "time": 13.5,
        "duration": 0.15,
        "velocity": 0.54,
        "hand": "left"
      },
      {
        "midi": 65,
        "time": 13.5,
        "duration": 0.15,
        "velocity": 0.57,
        "hand": "right"
      },
      {
        "midi": 47,
        "time": 13.65,
        "duration": 0.15,
        "velocity": 0.63,
        "hand": "left"
      },
      {
        "midi": 31,
        "time": 13.8,
        "duration": 0.45,
        "velocity": 0.96,
        "hand": "left"
      },
      {
        "midi": 59,
        "time": 13.8,
        "duration": 0.15,
        "velocity": 0.72,
        "hand": "left"
      },
      {
        "midi": 71,
        "time": 13.8,
        "duration": 0.45,
        "velocity": 0.51,
        "hand": "right"
      },
      {
        "midi": 38,
        "time": 14.1,
        "duration": 0.15,
        "velocity": 0.53,
        "hand": "left"
      },
      {
        "midi": 54,
        "time": 14.1,
        "duration": 0.15,
        "velocity": 0.57,
        "hand": "left"
      },
      {
        "midi": 65,
        "time": 14.1,
        "duration": 0.15,
        "velocity": 0.54,
        "hand": "right"
      },
      {
        "midi": 35,
        "time": 14.4,
        "duration": 0.15,
        "velocity": 0.69,
        "hand": "left"
      },
      {
        "midi": 60,
        "time": 14.4,
        "duration": 0.6,
        "velocity": 0.69,
        "hand": "right"
      },
      {
        "midi": 67,
        "time": 14.4,
        "duration": 1.65,
        "velocity": 0.63,
        "hand": "right"
      },
      {
        "midi": 38,
        "time": 14.7,
        "duration": 0.15,
        "velocity": 0.54,
        "hand": "left"
      },
      {
        "midi": 51,
        "time": 14.7,
        "duration": 0.15,
        "velocity": 0.55,
        "hand": "left"
      },
      {
        "midi": 70,
        "time": 14.7,
        "duration": 0.15,
        "velocity": 0.72,
        "hand": "right"
      },
      {
        "midi": 57,
        "time": 14.85,
        "duration": 0.15,
        "velocity": 0.57,
        "hand": "left"
      },
      {
        "midi": 62,
        "time": 14.85,
        "duration": 0.15,
        "velocity": 0.61,
        "hand": "right"
      },
      {
        "midi": 67,
        "time": 14.85,
        "duration": 0.15,
        "velocity": 0.54,
        "hand": "right"
      },
      {
        "midi": 31,
        "time": 15,
        "duration": 0.6,
        "velocity": 0.96,
        "hand": "left"
      },
      {
        "midi": 57,
        "time": 15,
        "duration": 0.15,
        "velocity": 0.52,
        "hand": "left"
      },
      {
        "midi": 70,
        "time": 15,
        "duration": 0.15,
        "velocity": 0.69,
        "hand": "right"
      },
      {
        "midi": 38,
        "time": 15.3,
        "duration": 0.15,
        "velocity": 0.55,
        "hand": "left"
      },
      {
        "midi": 60,
        "time": 15.3,
        "duration": 0.75,
        "velocity": 0.7,
        "hand": "right"
      },
      {
        "midi": 70,
        "time": 15.3,
        "duration": 0.15,
        "velocity": 0.7,
        "hand": "right"
      },
      {
        "midi": 35,
        "time": 15.6,
        "duration": 0.15,
        "velocity": 0.56,
        "hand": "left"
      },
      {
        "midi": 42,
        "time": 15.6,
        "duration": 0.15,
        "velocity": 0.65,
        "hand": "left"
      },
      {
        "midi": 70,
        "time": 15.6,
        "duration": 0.15,
        "velocity": 0.72,
        "hand": "right"
      },
      {
        "midi": 38,
        "time": 15.9,
        "duration": 0.15,
        "velocity": 0.54,
        "hand": "left"
      },
      {
        "midi": 57,
        "time": 15.9,
        "duration": 0.15,
        "velocity": 0.57,
        "hand": "left"
      },
      {
        "midi": 67,
        "time": 15.9,
        "duration": 0.15,
        "velocity": 0.56,
        "hand": "right"
      },
      {
        "midi": 31,
        "time": 16.2,
        "duration": 0.45,
        "velocity": 0.96,
        "hand": "left"
      },
      {
        "midi": 60,
        "time": 16.2,
        "duration": 0.45,
        "velocity": 0.51,
        "hand": "right"
      },
      {
        "midi": 69,
        "time": 16.2,
        "duration": 0.45,
        "velocity": 0.57,
        "hand": "right"
      },
      {
        "midi": 38,
        "time": 16.5,
        "duration": 0.15,
        "velocity": 0.56,
        "hand": "left"
      },
      {
        "midi": 57,
        "time": 16.5,
        "duration": 0.15,
        "velocity": 0.54,
        "hand": "left"
      },
      {
        "midi": 67,
        "time": 16.5,
        "duration": 0.15,
        "velocity": 0.51,
        "hand": "right"
      },
      {
        "midi": 35,
        "time": 16.8,
        "duration": 0.6,
        "velocity": 0.96,
        "hand": "left"
      },
      {
        "midi": 62,
        "time": 16.8,
        "duration": 0.15,
        "velocity": 0.61,
        "hand": "right"
      },
      {
        "midi": 71,
        "time": 16.8,
        "duration": 1.8,
        "velocity": 0.54,
        "hand": "right"
      },
      {
        "midi": 38,
        "time": 17.1,
        "duration": 0.15,
        "velocity": 0.57,
        "hand": "left"
      },
      {
        "midi": 51,
        "time": 17.1,
        "duration": 0.15,
        "velocity": 0.56,
        "hand": "left"
      },
      {
        "midi": 70,
        "time": 17.1,
        "duration": 0.15,
        "velocity": 0.72,
        "hand": "right"
      },
      {
        "midi": 59,
        "time": 17.25,
        "duration": 0.15,
        "velocity": 0.61,
        "hand": "left"
      },
      {
        "midi": 64,
        "time": 17.25,
        "duration": 0.15,
        "velocity": 0.57,
        "hand": "right"
      },
      {
        "midi": 67,
        "time": 17.25,
        "duration": 0.15,
        "velocity": 0.52,
        "hand": "right"
      },
      {
        "midi": 35,
        "time": 17.4,
        "duration": 0.15,
        "velocity": 0.55,
        "hand": "left"
      },
      {
        "midi": 62,
        "time": 17.4,
        "duration": 0.15,
        "velocity": 0.54,
        "hand": "right"
      },
      {
        "midi": 70,
        "time": 17.4,
        "duration": 0.15,
        "velocity": 0.69,
        "hand": "right"
      },
      {
        "midi": 38,
        "time": 17.7,
        "duration": 0.15,
        "velocity": 0.53,
        "hand": "left"
      },
      {
        "midi": 64,
        "time": 17.7,
        "duration": 0.75,
        "velocity": 0.72,
        "hand": "right"
      },
      {
        "midi": 71,
        "time": 17.7,
        "duration": 0.75,
        "velocity": 0.68,
        "hand": "right"
      },
      {
        "midi": 35,
        "time": 18,
        "duration": 0.6,
        "velocity": 0.96,
        "hand": "left"
      },
      {
        "midi": 51,
        "time": 18,
        "duration": 0.15,
        "velocity": 0.54,
        "hand": "left"
      },
      {
        "midi": 70,
        "time": 18,
        "duration": 0.15,
        "velocity": 0.61,
        "hand": "right"
      },
      {
        "midi": 38,
        "time": 18.3,
        "duration": 0.15,
        "velocity": 0.58,
        "hand": "left"
      },
      {
        "midi": 59,
        "time": 18.3,
        "duration": 0.15,
        "velocity": 0.7,
        "hand": "left"
      },
      {
        "midi": 70,
        "time": 18.3,
        "duration": 0.15,
        "velocity": 0.72,
        "hand": "right"
      },
      {
        "midi": 35,
        "time": 18.6,
        "duration": 0.15,
        "velocity": 0.7,
        "hand": "left"
      },
      {
        "midi": 62,
        "time": 18.6,
        "duration": 0.15,
        "velocity": 0.65,
        "hand": "right"
      },
      {
        "midi": 71,
        "time": 18.6,
        "duration": 0.15,
        "velocity": 0.57,
        "hand": "right"
      },
      {
        "midi": 38,
        "time": 18.9,
        "duration": 0.15,
        "velocity": 0.52,
        "hand": "left"
      },
      {
        "midi": 51,
        "time": 18.9,
        "duration": 0.15,
        "velocity": 0.54,
        "hand": "left"
      },
      {
        "midi": 70,
        "time": 18.9,
        "duration": 0.15,
        "velocity": 0.58,
        "hand": "right"
      },
      {
        "midi": 35,
        "time": 19.2,
        "duration": 0.15,
        "velocity": 0.69,
        "hand": "left"
      },
      {
        "midi": 60,
        "time": 19.2,
        "duration": 0.9,
        "velocity": 0.52,
        "hand": "right"
      },
      {
        "midi": 72,
        "time": 19.2,
        "duration": 1.05,
        "velocity": 0.63,
        "hand": "right"
      },
      {
        "midi": 38,
        "time": 19.5,
        "duration": 0.15,
        "velocity": 0.58,
        "hand": "left"
      },
      {
        "midi": 51,
        "time": 19.5,
        "duration": 0.15,
        "velocity": 0.55,
        "hand": "left"
      },
      {
        "midi": 70,
        "time": 19.5,
        "duration": 0.15,
        "velocity": 0.72,
        "hand": "right"
      },
      {
        "midi": 57,
        "time": 19.65,
        "duration": 0.15,
        "velocity": 0.65,
        "hand": "left"
      },
      {
        "midi": 62,
        "time": 19.65,
        "duration": 0.15,
        "velocity": 0.68,
        "hand": "right"
      },
      {
        "midi": 69,
        "time": 19.65,
        "duration": 0.3,
        "velocity": 0.54,
        "hand": "right"
      },
      {
        "midi": 33,
        "time": 19.8,
        "duration": 0.6,
        "velocity": 0.96,
        "hand": "left"
      },
      {
        "midi": 60,
        "time": 19.8,
        "duration": 0.45,
        "velocity": 0.7,
        "hand": "right"
      },
      {
        "midi": 70,
        "time": 19.8,
        "duration": 0.15,
        "velocity": 0.72,
        "hand": "right"
      },
      {
        "midi": 38,
        "time": 20.1,
        "duration": 0.15,
        "velocity": 0.52,
        "hand": "left"
      },
      {
        "midi": 60,
        "time": 20.1,
        "duration": 0.15,
        "velocity": 0.63,
        "hand": "right"
      },
      {
        "midi": 70,
        "time": 20.1,
        "duration": 0.15,
        "velocity": 0.58,
        "hand": "right"
      },
      {
        "midi": 31,
        "time": 20.4,
        "duration": 0.6,
        "velocity": 0.96,
        "hand": "left"
      },
      {
        "midi": 62,
        "time": 20.4,
        "duration": 0.45,
        "velocity": 0.57,
        "hand": "right"
      },
      {
        "midi": 71,
        "time": 20.4,
        "duration": 1.05,
        "velocity": 0.58,
        "hand": "right"
      },
      {
        "midi": 38,
        "time": 20.7,
        "duration": 0.15,
        "velocity": 0.57,
        "hand": "left"
      },
      {
        "midi": 55,
        "time": 20.7,
        "duration": 0.15,
        "velocity": 0.52,
        "hand": "left"
      },
      {
        "midi": 65,
        "time": 20.7,
        "duration": 0.3,
        "velocity": 0.56,
        "hand": "right"
      },
      {
        "midi": 35,
        "time": 21,
        "duration": 0.15,
        "velocity": 0.72,
        "hand": "left"
      },
      {
        "midi": 59,
        "time": 21,
        "duration": 0.15,
        "velocity": 0.58,
        "hand": "left"
      },
      {
        "midi": 65,
        "time": 21,
        "duration": 0.15,
        "velocity": 0.54,
        "hand": "right"
      },
      {
        "midi": 38,
        "time": 21.3,
        "duration": 0.15,
        "velocity": 0.56,
        "hand": "left"
      },
      {
        "midi": 55,
        "time": 21.3,
        "duration": 0.15,
        "velocity": 0.4,
        "hand": "left"
      },
      {
        "midi": 65,
        "time": 21.3,
        "duration": 0.15,
        "velocity": 0.48,
        "hand": "right"
      },
      {
        "midi": 35,
        "time": 21.6,
        "duration": 0.15,
        "velocity": 0.57,
        "hand": "left"
      },
      {
        "midi": 60,
        "time": 21.6,
        "duration": 0.75,
        "velocity": 0.64,
        "hand": "right"
      },
      {
        "midi": 71,
        "time": 21.6,
        "duration": 1.05,
        "velocity": 0.49,
        "hand": "right"
      },
      {
        "midi": 38,
        "time": 21.9,
        "duration": 0.15,
        "velocity": 0.54,
        "hand": "left"
      },
      {
        "midi": 51,
        "time": 21.9,
        "duration": 0.15,
        "velocity": 0.54,
        "hand": "left"
      },
      {
        "midi": 70,
        "time": 21.9,
        "duration": 0.15,
        "velocity": 0.73,
        "hand": "right"
      },
      {
        "midi": 55,
        "time": 22.05,
        "duration": 0.15,
        "velocity": 0.54,
        "hand": "left"
      },
      {
        "midi": 60,
        "time": 22.05,
        "duration": 0.15,
        "velocity": 0.59,
        "hand": "right"
      },
      {
        "midi": 64,
        "time": 22.05,
        "duration": 0.15,
        "velocity": 0.57,
        "hand": "right"
      },
      {
        "midi": 31,
        "time": 22.2,
        "duration": 0.3,
        "velocity": 0.96,
        "hand": "left"
      },
      {
        "midi": 55,
        "time": 22.2,
        "duration": 0.15,
        "velocity": 0.54,
        "hand": "left"
      },
      {
        "midi": 70,
        "time": 22.2,
        "duration": 0.15,
        "velocity": 0.72,
        "hand": "right"
      },
      {
        "midi": 36,
        "time": 22.5,
        "duration": 0.3,
        "velocity": 0.96,
        "hand": "left"
      },
      {
        "midi": 54,
        "time": 22.5,
        "duration": 0.15,
        "velocity": 0.54,
        "hand": "left"
      },
      {
        "midi": 70,
        "time": 22.5,
        "duration": 0.15,
        "velocity": 0.72,
        "hand": "right"
      },
      {
        "midi": 35,
        "time": 22.8,
        "duration": 0.15,
        "velocity": 0.69,
        "hand": "left"
      },
      {
        "midi": 60,
        "time": 22.8,
        "duration": 0.45,
        "velocity": 0.64,
        "hand": "right"
      },
      {
        "midi": 70,
        "time": 22.8,
        "duration": 0.15,
        "velocity": 0.73,
        "hand": "right"
      },
      {
        "midi": 38,
        "time": 22.95,
        "duration": 0.15,
        "velocity": 0.72,
        "hand": "left"
      },
      {
        "midi": 42,
        "time": 23.1,
        "duration": 0.15,
        "velocity": 0.61,
        "hand": "left"
      },
      {
        "midi": 56,
        "time": 23.1,
        "duration": 0.15,
        "velocity": 0.55,
        "hand": "left"
      },
      {
        "midi": 65,
        "time": 23.1,
        "duration": 0.15,
        "velocity": 0.51,
        "hand": "right"
      },
      {
        "midi": 40,
        "time": 23.25,
        "duration": 0.15,
        "velocity": 0.72,
        "hand": "left"
      },
      {
        "midi": 32,
        "time": 23.4,
        "duration": 0.6,
        "velocity": 0.99,
        "hand": "left"
      },
      {
        "midi": 59,
        "time": 23.4,
        "duration": 0.3,
        "velocity": 0.57,
        "hand": "left"
      },
      {
        "midi": 67,
        "time": 23.4,
        "duration": 0.45,
        "velocity": 0.59,
        "hand": "right"
      },
      {
        "midi": 42,
        "time": 23.7,
        "duration": 0.15,
        "velocity": 0.58,
        "hand": "left"
      },
      {
        "midi": 55,
        "time": 23.7,
        "duration": 0.15,
        "velocity": 0.51,
        "hand": "left"
      },
      {
        "midi": 65,
        "time": 23.7,
        "duration": 0.15,
        "velocity": 0.42,
        "hand": "right"
      },
      {
        "midi": 35,
        "time": 24,
        "duration": 0.15,
        "velocity": 0.7,
        "hand": "left"
      },
      {
        "midi": 57,
        "time": 24,
        "duration": 1.95,
        "velocity": 0.63,
        "hand": "left"
      },
      {
        "midi": 67,
        "time": 24,
        "duration": 2.1,
        "velocity": 0.64,
        "hand": "right"
      },
      {
        "midi": 38,
        "time": 24.3,
        "duration": 0.15,
        "velocity": 0.57,
        "hand": "left"
      },
      {
        "midi": 57,
        "time": 24.3,
        "duration": 0.15,
        "velocity": 0.64,
        "hand": "left"
      },
      {
        "midi": 70,
        "time": 24.3,
        "duration": 0.15,
        "velocity": 0.7,
        "hand": "right"
      },
      {
        "midi": 31,
        "time": 24.6,
        "duration": 0.6,
        "velocity": 0.96,
        "hand": "left"
      },
      {
        "midi": 57,
        "time": 24.6,
        "duration": 0.45,
        "velocity": 0.43,
        "hand": "left"
      },
      {
        "midi": 70,
        "time": 24.6,
        "duration": 0.15,
        "velocity": 0.63,
        "hand": "right"
      },
      {
        "midi": 38,
        "time": 24.9,
        "duration": 0.15,
        "velocity": 0.55,
        "hand": "left"
      },
      {
        "midi": 57,
        "time": 24.9,
        "duration": 0.15,
        "velocity": 0.64,
        "hand": "left"
      },
      {
        "midi": 70,
        "time": 24.9,
        "duration": 0.15,
        "velocity": 0.56,
        "hand": "right"
      },
      {
        "midi": 35,
        "time": 25.2,
        "duration": 0.15,
        "velocity": 0.72,
        "hand": "left"
      },
      {
        "midi": 57,
        "time": 25.2,
        "duration": 0.6,
        "velocity": 0.56,
        "hand": "left"
      },
      {
        "midi": 70,
        "time": 25.2,
        "duration": 0.15,
        "velocity": 0.73,
        "hand": "right"
      },
      {
        "midi": 38,
        "time": 25.5,
        "duration": 0.15,
        "velocity": 0.56,
        "hand": "left"
      },
      {
        "midi": 57,
        "time": 25.5,
        "duration": 0.15,
        "velocity": 0.72,
        "hand": "left"
      },
      {
        "midi": 67,
        "time": 25.5,
        "duration": 0.15,
        "velocity": 0.72,
        "hand": "right"
      },
      {
        "midi": 31,
        "time": 25.8,
        "duration": 0.6,
        "velocity": 0.96,
        "hand": "left"
      },
      {
        "midi": 51,
        "time": 25.8,
        "duration": 0.15,
        "velocity": 0.54,
        "hand": "left"
      },
      {
        "midi": 67,
        "time": 25.8,
        "duration": 0.15,
        "velocity": 0.5,
        "hand": "right"
      },
      {
        "midi": 38,
        "time": 26.1,
        "duration": 0.15,
        "velocity": 0.53,
        "hand": "left"
      },
      {
        "midi": 54,
        "time": 26.1,
        "duration": 0.15,
        "velocity": 0.57,
        "hand": "left"
      },
      {
        "midi": 67,
        "time": 26.1,
        "duration": 0.15,
        "velocity": 0.51,
        "hand": "right"
      },
      {
        "midi": 35,
        "time": 26.4,
        "duration": 0.15,
        "velocity": 0.69,
        "hand": "left"
      },
      {
        "midi": 62,
        "time": 26.4,
        "duration": 0.15,
        "velocity": 0.57,
        "hand": "right"
      },
      {
        "midi": 69,
        "time": 26.4,
        "duration": 0.3,
        "velocity": 0.72,
        "hand": "right"
      },
      {
        "midi": 38,
        "time": 26.7,
        "duration": 0.15,
        "velocity": 0.54,
        "hand": "left"
      },
      {
        "midi": 62,
        "time": 26.7,
        "duration": 0.15,
        "velocity": 0.57,
        "hand": "right"
      },
      {
        "midi": 70,
        "time": 26.7,
        "duration": 0.15,
        "velocity": 0.72,
        "hand": "right"
      },
      {
        "midi": 35,
        "time": 27,
        "duration": 0.15,
        "velocity": 0.56,
        "hand": "left"
      },
      {
        "midi": 61,
        "time": 27,
        "duration": 0.3,
        "velocity": 0.52,
        "hand": "right"
      },
      {
        "midi": 70,
        "time": 27,
        "duration": 0.15,
        "velocity": 0.69,
        "hand": "right"
      },
      {
        "midi": 38,
        "time": 27.3,
        "duration": 0.15,
        "velocity": 0.55,
        "hand": "left"
      },
      {
        "midi": 61,
        "time": 27.3,
        "duration": 0.15,
        "velocity": 0.69,
        "hand": "right"
      },
      {
        "midi": 70,
        "time": 27.3,
        "duration": 0.15,
        "velocity": 0.7,
        "hand": "right"
      },
      {
        "midi": 35,
        "time": 27.6,
        "duration": 0.15,
        "velocity": 0.56,
        "hand": "left"
      },
      {
        "midi": 60,
        "time": 27.6,
        "duration": 1.05,
        "velocity": 0.54,
        "hand": "right"
      },
      {
        "midi": 70,
        "time": 27.6,
        "duration": 0.15,
        "velocity": 0.72,
        "hand": "right"
      },
      {
        "midi": 38,
        "time": 27.9,
        "duration": 0.15,
        "velocity": 0.54,
        "hand": "left"
      },
      {
        "midi": 57,
        "time": 27.9,
        "duration": 0.15,
        "velocity": 0.54,
        "hand": "left"
      },
      {
        "midi": 67,
        "time": 27.9,
        "duration": 0.15,
        "velocity": 0.5,
        "hand": "right"
      },
      {
        "midi": 33,
        "time": 28.2,
        "duration": 0.45,
        "velocity": 0.87,
        "hand": "left"
      },
      {
        "midi": 57,
        "time": 28.2,
        "duration": 0.15,
        "velocity": 0.5,
        "hand": "left"
      },
      {
        "midi": 67,
        "time": 28.2,
        "duration": 0.15,
        "velocity": 0.39,
        "hand": "right"
      },
      {
        "midi": 38,
        "time": 28.5,
        "duration": 0.15,
        "velocity": 0.56,
        "hand": "left"
      },
      {
        "midi": 57,
        "time": 28.5,
        "duration": 0.15,
        "velocity": 0.65,
        "hand": "left"
      },
      {
        "midi": 69,
        "time": 28.5,
        "duration": 0.15,
        "velocity": 0.72,
        "hand": "right"
      },
      {
        "midi": 35,
        "time": 28.8,
        "duration": 0.15,
        "velocity": 0.7,
        "hand": "left"
      },
      {
        "midi": 60,
        "time": 28.8,
        "duration": 0.15,
        "velocity": 0.54,
        "hand": "right"
      },
      {
        "midi": 69,
        "time": 28.8,
        "duration": 0.15,
        "velocity": 0.59,
        "hand": "right"
      },
      {
        "midi": 57,
        "time": 28.95,
        "duration": 0.15,
        "velocity": 0.48,
        "hand": "left"
      },
      {
        "midi": 64,
        "time": 28.95,
        "duration": 0.15,
        "velocity": 0.44,
        "hand": "right"
      },
      {
        "midi": 67,
        "time": 28.95,
        "duration": 0.15,
        "velocity": 0.31,
        "hand": "right"
      },
      {
        "midi": 38,
        "time": 29.1,
        "duration": 0.15,
        "velocity": 0.57,
        "hand": "left"
      },
      {
        "midi": 60,
        "time": 29.1,
        "duration": 0.15,
        "velocity": 0.72,
        "hand": "right"
      },
      {
        "midi": 70,
        "time": 29.1,
        "duration": 0.15,
        "velocity": 0.7,
        "hand": "right"
      },
      {
        "midi": 33,
        "time": 29.4,
        "duration": 0.45,
        "velocity": 0.97,
        "hand": "left"
      },
      {
        "midi": 60,
        "time": 29.4,
        "duration": 0.15,
        "velocity": 0.68,
        "hand": "right"
      },
      {
        "midi": 71,
        "time": 29.4,
        "duration": 0.3,
        "velocity": 0.57,
        "hand": "right"
      },
      {
        "midi": 38,
        "time": 29.7,
        "duration": 0.15,
        "velocity": 0.55,
        "hand": "left"
      },
      {
        "midi": 60,
        "time": 29.7,
        "duration": 0.15,
        "velocity": 0.68,
        "hand": "right"
      },
      {
        "midi": 70,
        "time": 29.7,
        "duration": 0.15,
        "velocity": 0.56,
        "hand": "right"
      },
      {
        "midi": 35,
        "time": 30,
        "duration": 0.15,
        "velocity": 0.72,
        "hand": "left"
      },
      {
        "midi": 59,
        "time": 30,
        "duration": 0.45,
        "velocity": 0.56,
        "hand": "left"
      },
      {
        "midi": 70,
        "time": 30,
        "duration": 0.15,
        "velocity": 0.73,
        "hand": "right"
      },
      {
        "midi": 38,
        "time": 30.3,
        "duration": 0.15,
        "velocity": 0.56,
        "hand": "left"
      },
      {
        "midi": 59,
        "time": 30.3,
        "duration": 0.15,
        "velocity": 0.61,
        "hand": "left"
      },
      {
        "midi": 69,
        "time": 30.3,
        "duration": 0.15,
        "velocity": 0.63,
        "hand": "right"
      },
      {
        "midi": 35,
        "time": 30.6,
        "duration": 0.15,
        "velocity": 0.7,
        "hand": "left"
      },
      {
        "midi": 53,
        "time": 30.6,
        "duration": 0.15,
        "velocity": 0.63,
        "hand": "left"
      },
      {
        "midi": 64,
        "time": 30.6,
        "duration": 0.3,
        "velocity": 0.63,
        "hand": "right"
      },
      {
        "midi": 38,
        "time": 30.9,
        "duration": 0.15,
        "velocity": 0.53,
        "hand": "left"
      },
      {
        "midi": 62,
        "time": 30.9,
        "duration": 0.15,
        "velocity": 0.72,
        "hand": "right"
      },
      {
        "midi": 69,
        "time": 30.9,
        "duration": 0.15,
        "velocity": 0.68,
        "hand": "right"
      },
      {
        "midi": 35,
        "time": 31.2,
        "duration": 0.15,
        "velocity": 0.69,
        "hand": "left"
      },
      {
        "midi": 60,
        "time": 31.2,
        "duration": 0.3,
        "velocity": 0.58,
        "hand": "right"
      },
      {
        "midi": 67,
        "time": 31.2,
        "duration": 0.15,
        "velocity": 0.5,
        "hand": "right"
      },
      {
        "midi": 38,
        "time": 31.5,
        "duration": 0.15,
        "velocity": 0.54,
        "hand": "left"
      },
      {
        "midi": 60,
        "time": 31.5,
        "duration": 0.15,
        "velocity": 0.7,
        "hand": "right"
      },
      {
        "midi": 70,
        "time": 31.5,
        "duration": 0.15,
        "velocity": 0.72,
        "hand": "right"
      },
      {
        "midi": 35,
        "time": 31.8,
        "duration": 0.15,
        "velocity": 0.56,
        "hand": "left"
      },
      {
        "midi": 59,
        "time": 31.8,
        "duration": 0.3,
        "velocity": 0.52,
        "hand": "left"
      },
      {
        "midi": 70,
        "time": 31.8,
        "duration": 0.15,
        "velocity": 0.69,
        "hand": "right"
      },
      {
        "midi": 38,
        "time": 32.1,
        "duration": 0.15,
        "velocity": 0.55,
        "hand": "left"
      },
      {
        "midi": 59,
        "time": 32.1,
        "duration": 0.15,
        "velocity": 0.55,
        "hand": "left"
      },
      {
        "midi": 70,
        "time": 32.1,
        "duration": 0.15,
        "velocity": 0.7,
        "hand": "right"
      },
      {
        "midi": 35,
        "time": 32.4,
        "duration": 0.15,
        "velocity": 0.56,
        "hand": "left"
      },
      {
        "midi": 62,
        "time": 32.4,
        "duration": 0.6,
        "velocity": 0.55,
        "hand": "right"
      },
      {
        "midi": 70,
        "time": 32.4,
        "duration": 0.15,
        "velocity": 0.72,
        "hand": "right"
      },
      {
        "midi": 38,
        "time": 32.7,
        "duration": 0.15,
        "velocity": 0.54,
        "hand": "left"
      },
      {
        "midi": 54,
        "time": 32.7,
        "duration": 0.15,
        "velocity": 0.56,
        "hand": "left"
      },
      {
        "midi": 67,
        "time": 32.7,
        "duration": 0.15,
        "velocity": 0.56,
        "hand": "right"
      },
      {
        "midi": 31,
        "time": 33,
        "duration": 0.6,
        "velocity": 0.79,
        "hand": "left"
      },
      {
        "midi": 51,
        "time": 33,
        "duration": 0.15,
        "velocity": 0.61,
        "hand": "left"
      },
      {
        "midi": 67,
        "time": 33,
        "duration": 0.15,
        "velocity": 0.54,
        "hand": "right"
      },
      {
        "midi": 38,
        "time": 33.3,
        "duration": 0.15,
        "velocity": 0.56,
        "hand": "left"
      },
      {
        "midi": 57,
        "time": 33.3,
        "duration": 0.15,
        "velocity": 0.57,
        "hand": "left"
      },
      {
        "midi": 67,
        "time": 33.3,
        "duration": 0.15,
        "velocity": 0.57,
        "hand": "right"
      },
      {
        "midi": 35,
        "time": 33.6,
        "duration": 0.15,
        "velocity": 0.7,
        "hand": "left"
      },
      {
        "midi": 57,
        "time": 33.6,
        "duration": 0.15,
        "velocity": 0.79,
        "hand": "left"
      },
      {
        "midi": 67,
        "time": 33.6,
        "duration": 2.1,
        "velocity": 0.58,
        "hand": "right"
      },
      {
        "midi": 38,
        "time": 33.9,
        "duration": 0.15,
        "velocity": 0.57,
        "hand": "left"
      },
      {
        "midi": 57,
        "time": 33.9,
        "duration": 0.15,
        "velocity": 0.64,
        "hand": "left"
      },
      {
        "midi": 70,
        "time": 33.9,
        "duration": 0.15,
        "velocity": 0.7,
        "hand": "right"
      },
      {
        "midi": 31,
        "time": 34.2,
        "duration": 0.6,
        "velocity": 0.96,
        "hand": "left"
      },
      {
        "midi": 57,
        "time": 34.2,
        "duration": 0.45,
        "velocity": 0.43,
        "hand": "left"
      },
      {
        "midi": 70,
        "time": 34.2,
        "duration": 0.15,
        "velocity": 0.63,
        "hand": "right"
      },
      {
        "midi": 38,
        "time": 34.5,
        "duration": 0.15,
        "velocity": 0.55,
        "hand": "left"
      },
      {
        "midi": 57,
        "time": 34.5,
        "duration": 0.15,
        "velocity": 0.64,
        "hand": "left"
      },
      {
        "midi": 70,
        "time": 34.5,
        "duration": 0.15,
        "velocity": 0.56,
        "hand": "right"
      },
      {
        "midi": 35,
        "time": 34.8,
        "duration": 0.15,
        "velocity": 0.72,
        "hand": "left"
      },
      {
        "midi": 57,
        "time": 34.8,
        "duration": 0.6,
        "velocity": 0.56,
        "hand": "left"
      },
      {
        "midi": 70,
        "time": 34.8,
        "duration": 0.15,
        "velocity": 0.73,
        "hand": "right"
      },
      {
        "midi": 38,
        "time": 35.1,
        "duration": 0.15,
        "velocity": 0.56,
        "hand": "left"
      },
      {
        "midi": 57,
        "time": 35.1,
        "duration": 0.15,
        "velocity": 0.72,
        "hand": "left"
      },
      {
        "midi": 67,
        "time": 35.1,
        "duration": 0.15,
        "velocity": 0.72,
        "hand": "right"
      },
      {
        "midi": 31,
        "time": 35.4,
        "duration": 0.6,
        "velocity": 0.96,
        "hand": "left"
      },
      {
        "midi": 51,
        "time": 35.4,
        "duration": 0.15,
        "velocity": 0.54,
        "hand": "left"
      },
      {
        "midi": 67,
        "time": 35.4,
        "duration": 0.15,
        "velocity": 0.5,
        "hand": "right"
      },
      {
        "midi": 38,
        "time": 35.7,
        "duration": 0.15,
        "velocity": 0.53,
        "hand": "left"
      },
      {
        "midi": 54,
        "time": 35.7,
        "duration": 0.15,
        "velocity": 0.57,
        "hand": "left"
      },
      {
        "midi": 67,
        "time": 35.7,
        "duration": 0.15,
        "velocity": 0.51,
        "hand": "right"
      },
      {
        "midi": 35,
        "time": 36,
        "duration": 0.15,
        "velocity": 0.69,
        "hand": "left"
      },
      {
        "midi": 62,
        "time": 36,
        "duration": 0.15,
        "velocity": 0.57,
        "hand": "right"
      },
      {
        "midi": 69,
        "time": 36,
        "duration": 0.3,
        "velocity": 0.72,
        "hand": "right"
      },
      {
        "midi": 38,
        "time": 36.3,
        "duration": 0.15,
        "velocity": 0.54,
        "hand": "left"
      },
      {
        "midi": 62,
        "time": 36.3,
        "duration": 0.15,
        "velocity": 0.57,
        "hand": "right"
      },
      {
        "midi": 70,
        "time": 36.3,
        "duration": 0.15,
        "velocity": 0.72,
        "hand": "right"
      },
      {
        "midi": 35,
        "time": 36.6,
        "duration": 0.15,
        "velocity": 0.56,
        "hand": "left"
      },
      {
        "midi": 61,
        "time": 36.6,
        "duration": 0.45,
        "velocity": 0.58,
        "hand": "right"
      },
      {
        "midi": 70,
        "time": 36.6,
        "duration": 0.15,
        "velocity": 0.69,
        "hand": "right"
      },
      {
        "midi": 38,
        "time": 36.9,
        "duration": 0.15,
        "velocity": 0.55,
        "hand": "left"
      },
      {
        "midi": 61,
        "time": 36.9,
        "duration": 0.15,
        "velocity": 0.69,
        "hand": "right"
      },
      {
        "midi": 70,
        "time": 36.9,
        "duration": 0.15,
        "velocity": 0.7,
        "hand": "right"
      },
      {
        "midi": 35,
        "time": 37.2,
        "duration": 0.15,
        "velocity": 0.56,
        "hand": "left"
      },
      {
        "midi": 60,
        "time": 37.2,
        "duration": 1.05,
        "velocity": 0.61,
        "hand": "right"
      },
      {
        "midi": 70,
        "time": 37.2,
        "duration": 0.15,
        "velocity": 0.72,
        "hand": "right"
      },
      {
        "midi": 38,
        "time": 37.5,
        "duration": 0.15,
        "velocity": 0.54,
        "hand": "left"
      },
      {
        "midi": 57,
        "time": 37.5,
        "duration": 0.15,
        "velocity": 0.54,
        "hand": "left"
      },
      {
        "midi": 67,
        "time": 37.5,
        "duration": 0.15,
        "velocity": 0.5,
        "hand": "right"
      },
      {
        "midi": 33,
        "time": 37.8,
        "duration": 0.45,
        "velocity": 0.87,
        "hand": "left"
      },
      {
        "midi": 57,
        "time": 37.8,
        "duration": 0.15,
        "velocity": 0.5,
        "hand": "left"
      },
      {
        "midi": 67,
        "time": 37.8,
        "duration": 0.15,
        "velocity": 0.39,
        "hand": "right"
      },
      {
        "midi": 38,
        "time": 38.1,
        "duration": 0.15,
        "velocity": 0.56,
        "hand": "left"
      },
      {
        "midi": 57,
        "time": 38.1,
        "duration": 0.15,
        "velocity": 0.65,
        "hand": "left"
      },
      {
        "midi": 69,
        "time": 38.1,
        "duration": 0.15,
        "velocity": 0.72,
        "hand": "right"
      },
      {
        "midi": 35,
        "time": 38.4,
        "duration": 0.15,
        "velocity": 0.7,
        "hand": "left"
      },
      {
        "midi": 60,
        "time": 38.4,
        "duration": 0.15,
        "velocity": 0.54,
        "hand": "right"
      },
      {
        "midi": 69,
        "time": 38.4,
        "duration": 0.15,
        "velocity": 0.59,
        "hand": "right"
      },
      {
        "midi": 57,
        "time": 38.55,
        "duration": 0.15,
        "velocity": 0.48,
        "hand": "left"
      },
      {
        "midi": 64,
        "time": 38.55,
        "duration": 0.15,
        "velocity": 0.44,
        "hand": "right"
      },
      {
        "midi": 67,
        "time": 38.55,
        "duration": 0.15,
        "velocity": 0.31,
        "hand": "right"
      },
      {
        "midi": 38,
        "time": 38.7,
        "duration": 0.15,
        "velocity": 0.57,
        "hand": "left"
      },
      {
        "midi": 60,
        "time": 38.7,
        "duration": 0.15,
        "velocity": 0.72,
        "hand": "right"
      },
      {
        "midi": 70,
        "time": 38.7,
        "duration": 0.15,
        "velocity": 0.7,
        "hand": "right"
      },
      {
        "midi": 33,
        "time": 39,
        "duration": 0.45,
        "velocity": 0.97,
        "hand": "left"
      },
      {
        "midi": 60,
        "time": 39,
        "duration": 0.15,
        "velocity": 0.68,
        "hand": "right"
      },
      {
        "midi": 71,
        "time": 39,
        "duration": 0.3,
        "velocity": 0.57,
        "hand": "right"
      },
      {
        "midi": 38,
        "time": 39.3,
        "duration": 0.15,
        "velocity": 0.55,
        "hand": "left"
      },
      {
        "midi": 60,
        "time": 39.3,
        "duration": 0.15,
        "velocity": 0.68,
        "hand": "right"
      },
      {
        "midi": 70,
        "time": 39.3,
        "duration": 0.15,
        "velocity": 0.56,
        "hand": "right"
      },
      {
        "midi": 35,
        "time": 39.6,
        "duration": 0.15,
        "velocity": 0.72,
        "hand": "left"
      },
      {
        "midi": 59,
        "time": 39.6,
        "duration": 0.45,
        "velocity": 0.56,
        "hand": "left"
      },
      {
        "midi": 70,
        "time": 39.6,
        "duration": 0.15,
        "velocity": 0.73,
        "hand": "right"
      },
      {
        "midi": 38,
        "time": 39.9,
        "duration": 0.15,
        "velocity": 0.56,
        "hand": "left"
      },
      {
        "midi": 59,
        "time": 39.9,
        "duration": 0.15,
        "velocity": 0.61,
        "hand": "left"
      },
      {
        "midi": 69,
        "time": 39.9,
        "duration": 0.15,
        "velocity": 0.63,
        "hand": "right"
      },
      {
        "midi": 35,
        "time": 40.2,
        "duration": 0.15,
        "velocity": 0.7,
        "hand": "left"
      },
      {
        "midi": 53,
        "time": 40.2,
        "duration": 0.15,
        "velocity": 0.63,
        "hand": "left"
      },
      {
        "midi": 64,
        "time": 40.2,
        "duration": 0.3,
        "velocity": 0.63,
        "hand": "right"
      },
      {
        "midi": 38,
        "time": 40.5,
        "duration": 0.15,
        "velocity": 0.53,
        "hand": "left"
      },
      {
        "midi": 62,
        "time": 40.5,
        "duration": 0.15,
        "velocity": 0.72,
        "hand": "right"
      },
      {
        "midi": 69,
        "time": 40.5,
        "duration": 0.15,
        "velocity": 0.68,
        "hand": "right"
      },
      {
        "midi": 35,
        "time": 40.8,
        "duration": 0.15,
        "velocity": 0.69,
        "hand": "left"
      },
      {
        "midi": 60,
        "time": 40.8,
        "duration": 0.3,
        "velocity": 0.58,
        "hand": "right"
      },
      {
        "midi": 67,
        "time": 40.8,
        "duration": 0.15,
        "velocity": 0.5,
        "hand": "right"
      },
      {
        "midi": 38,
        "time": 41.1,
        "duration": 0.15,
        "velocity": 0.54,
        "hand": "left"
      },
      {
        "midi": 60,
        "time": 41.1,
        "duration": 0.15,
        "velocity": 0.7,
        "hand": "right"
      },
      {
        "midi": 70,
        "time": 41.1,
        "duration": 0.15,
        "velocity": 0.72,
        "hand": "right"
      },
      {
        "midi": 35,
        "time": 41.4,
        "duration": 0.15,
        "velocity": 0.56,
        "hand": "left"
      },
      {
        "midi": 62,
        "time": 41.4,
        "duration": 0.3,
        "velocity": 0.51,
        "hand": "right"
      },
      {
        "midi": 70,
        "time": 41.4,
        "duration": 0.15,
        "velocity": 0.69,
        "hand": "right"
      },
      {
        "midi": 38,
        "time": 41.7,
        "duration": 0.15,
        "velocity": 0.55,
        "hand": "left"
      },
      {
        "midi": 59,
        "time": 41.7,
        "duration": 0.15,
        "velocity": 0.55,
        "hand": "left"
      },
      {
        "midi": 70,
        "time": 41.7,
        "duration": 0.15,
        "velocity": 0.7,
        "hand": "right"
      },
      {
        "midi": 35,
        "time": 42,
        "duration": 0.15,
        "velocity": 0.56,
        "hand": "left"
      },
      {
        "midi": 60,
        "time": 42,
        "duration": 0.75,
        "velocity": 0.72,
        "hand": "right"
      },
      {
        "midi": 70,
        "time": 42,
        "duration": 0.15,
        "velocity": 0.72,
        "hand": "right"
      },
      {
        "midi": 42,
        "time": 42.3,
        "duration": 0.15,
        "velocity": 0.58,
        "hand": "left"
      },
      {
        "midi": 54,
        "time": 42.3,
        "duration": 0.15,
        "velocity": 0.56,
        "hand": "left"
      },
      {
        "midi": 67,
        "time": 42.3,
        "duration": 0.15,
        "velocity": 0.56,
        "hand": "right"
      },
      {
        "midi": 31,
        "time": 42.6,
        "duration": 0.6,
        "velocity": 0.79,
        "hand": "left"
      },
      {
        "midi": 51,
        "time": 42.6,
        "duration": 0.15,
        "velocity": 0.61,
        "hand": "left"
      },
      {
        "midi": 67,
        "time": 42.6,
        "duration": 0.15,
        "velocity": 0.54,
        "hand": "right"
      },
      {
        "midi": 42,
        "time": 42.9,
        "duration": 0.15,
        "velocity": 0.55,
        "hand": "left"
      },
      {
        "midi": 57,
        "time": 42.9,
        "duration": 0.15,
        "velocity": 0.57,
        "hand": "left"
      },
      {
        "midi": 67,
        "time": 42.9,
        "duration": 0.15,
        "velocity": 0.57,
        "hand": "right"
      },
      {
        "midi": 47,
        "time": 43.05,
        "duration": 0.15,
        "velocity": 0.81,
        "hand": "left"
      },
      {
        "midi": 35,
        "time": 43.2,
        "duration": 0.15,
        "velocity": 0.7,
        "hand": "left"
      },
      {
        "midi": 59,
        "time": 43.2,
        "duration": 0.3,
        "velocity": 0.79,
        "hand": "left"
      },
      {
        "midi": 67,
        "time": 43.2,
        "duration": 0.15,
        "velocity": 0.65,
        "hand": "right"
      },
      {
        "midi": 38,
        "time": 43.5,
        "duration": 0.15,
        "velocity": 0.57,
        "hand": "left"
      },
      {
        "midi": 59,
        "time": 43.5,
        "duration": 0.3,
        "velocity": 0.54,
        "hand": "left"
      },
      {
        "midi": 70,
        "time": 43.5,
        "duration": 0.15,
        "velocity": 0.7,
        "hand": "right"
      },
      {
        "midi": 31,
        "time": 43.8,
        "duration": 0.6,
        "velocity": 0.96,
        "hand": "left"
      },
      {
        "midi": 57,
        "time": 43.8,
        "duration": 0.45,
        "velocity": 0.43,
        "hand": "left"
      },
      {
        "midi": 70,
        "time": 43.8,
        "duration": 0.15,
        "velocity": 0.63,
        "hand": "right"
      },
      {
        "midi": 38,
        "time": 44.1,
        "duration": 0.15,
        "velocity": 0.55,
        "hand": "left"
      },
      {
        "midi": 57,
        "time": 44.1,
        "duration": 0.3,
        "velocity": 0.61,
        "hand": "left"
      },
      {
        "midi": 70,
        "time": 44.1,
        "duration": 0.15,
        "velocity": 0.56,
        "hand": "right"
      },
      {
        "midi": 35,
        "time": 44.4,
        "duration": 0.15,
        "velocity": 0.72,
        "hand": "left"
      },
      {
        "midi": 59,
        "time": 44.4,
        "duration": 0.3,
        "velocity": 0.54,
        "hand": "left"
      },
      {
        "midi": 70,
        "time": 44.4,
        "duration": 0.15,
        "velocity": 0.73,
        "hand": "right"
      },
      {
        "midi": 38,
        "time": 44.7,
        "duration": 0.15,
        "velocity": 0.56,
        "hand": "left"
      },
      {
        "midi": 59,
        "time": 44.7,
        "duration": 0.15,
        "velocity": 0.72,
        "hand": "left"
      },
      {
        "midi": 67,
        "time": 44.7,
        "duration": 0.15,
        "velocity": 0.72,
        "hand": "right"
      },
      {
        "midi": 31,
        "time": 45,
        "duration": 0.6,
        "velocity": 0.96,
        "hand": "left"
      },
      {
        "midi": 57,
        "time": 45,
        "duration": 0.15,
        "velocity": 0.5,
        "hand": "left"
      },
      {
        "midi": 67,
        "time": 45,
        "duration": 0.15,
        "velocity": 0.5,
        "hand": "right"
      },
      {
        "midi": 38,
        "time": 45.3,
        "duration": 0.15,
        "velocity": 0.53,
        "hand": "left"
      },
      {
        "midi": 57,
        "time": 45.3,
        "duration": 0.15,
        "velocity": 0.51,
        "hand": "left"
      },
      {
        "midi": 67,
        "time": 45.3,
        "duration": 0.15,
        "velocity": 0.51,
        "hand": "right"
      },
      {
        "midi": 35,
        "time": 45.6,
        "duration": 0.15,
        "velocity": 0.69,
        "hand": "left"
      },
      {
        "midi": 62,
        "time": 45.6,
        "duration": 0.15,
        "velocity": 0.57,
        "hand": "right"
      },
      {
        "midi": 69,
        "time": 45.6,
        "duration": 0.3,
        "velocity": 0.72,
        "hand": "right"
      },
      {
        "midi": 38,
        "time": 45.9,
        "duration": 0.15,
        "velocity": 0.54,
        "hand": "left"
      },
      {
        "midi": 62,
        "time": 45.9,
        "duration": 0.15,
        "velocity": 0.57,
        "hand": "right"
      },
      {
        "midi": 70,
        "time": 45.9,
        "duration": 0.15,
        "velocity": 0.72,
        "hand": "right"
      },
      {
        "midi": 35,
        "time": 46.2,
        "duration": 0.15,
        "velocity": 0.56,
        "hand": "left"
      },
      {
        "midi": 61,
        "time": 46.2,
        "duration": 0.3,
        "velocity": 0.52,
        "hand": "right"
      },
      {
        "midi": 70,
        "time": 46.2,
        "duration": 0.15,
        "velocity": 0.69,
        "hand": "right"
      },
      {
        "midi": 38,
        "time": 46.5,
        "duration": 0.15,
        "velocity": 0.55,
        "hand": "left"
      },
      {
        "midi": 60,
        "time": 46.5,
        "duration": 0.15,
        "velocity": 0.64,
        "hand": "right"
      },
      {
        "midi": 70,
        "time": 46.5,
        "duration": 0.15,
        "velocity": 0.7,
        "hand": "right"
      },
      {
        "midi": 35,
        "time": 46.8,
        "duration": 0.15,
        "velocity": 0.56,
        "hand": "left"
      },
      {
        "midi": 60,
        "time": 46.8,
        "duration": 2.25,
        "velocity": 0.49,
        "hand": "right"
      },
      {
        "midi": 70,
        "time": 46.8,
        "duration": 0.15,
        "velocity": 0.72,
        "hand": "right"
      },
      {
        "midi": 38,
        "time": 47.1,
        "duration": 0.15,
        "velocity": 0.54,
        "hand": "left"
      },
      {
        "midi": 57,
        "time": 47.1,
        "duration": 0.15,
        "velocity": 0.54,
        "hand": "left"
      },
      {
        "midi": 67,
        "time": 47.1,
        "duration": 0.15,
        "velocity": 0.5,
        "hand": "right"
      },
      {
        "midi": 33,
        "time": 47.4,
        "duration": 0.45,
        "velocity": 0.87,
        "hand": "left"
      },
      {
        "midi": 57,
        "time": 47.4,
        "duration": 0.15,
        "velocity": 0.5,
        "hand": "left"
      },
      {
        "midi": 67,
        "time": 47.4,
        "duration": 0.15,
        "velocity": 0.39,
        "hand": "right"
      },
      {
        "midi": 38,
        "time": 47.7,
        "duration": 0.15,
        "velocity": 0.56,
        "hand": "left"
      },
      {
        "midi": 57,
        "time": 47.7,
        "duration": 0.15,
        "velocity": 0.72,
        "hand": "left"
      },
      {
        "midi": 69,
        "time": 47.7,
        "duration": 0.15,
        "velocity": 0.72,
        "hand": "right"
      },
      {
        "midi": 35,
        "time": 48,
        "duration": 0.15,
        "velocity": 0.7,
        "hand": "left"
      },
      {
        "midi": 60,
        "time": 48,
        "duration": 0.15,
        "velocity": 0.54,
        "hand": "right"
      },
      {
        "midi": 69,
        "time": 48,
        "duration": 0.15,
        "velocity": 0.59,
        "hand": "right"
      },
      {
        "midi": 57,
        "time": 48.15,
        "duration": 0.15,
        "velocity": 0.48,
        "hand": "left"
      },
      {
        "midi": 64,
        "time": 48.15,
        "duration": 0.15,
        "velocity": 0.44,
        "hand": "right"
      },
      {
        "midi": 67,
        "time": 48.15,
        "duration": 0.15,
        "velocity": 0.31,
        "hand": "right"
      },
      {
        "midi": 38,
        "time": 48.3,
        "duration": 0.15,
        "velocity": 0.57,
        "hand": "left"
      },
      {
        "midi": 57,
        "time": 48.3,
        "duration": 0.3,
        "velocity": 0.57,
        "hand": "left"
      },
      {
        "midi": 70,
        "time": 48.3,
        "duration": 0.15,
        "velocity": 0.7,
        "hand": "right"
      },
      {
        "midi": 33,
        "time": 48.6,
        "duration": 0.45,
        "velocity": 0.97,
        "hand": "left"
      },
      {
        "midi": 59,
        "time": 48.6,
        "duration": 0.3,
        "velocity": 0.57,
        "hand": "left"
      },
      {
        "midi": 71,
        "time": 48.6,
        "duration": 0.3,
        "velocity": 0.57,
        "hand": "right"
      },
      {
        "midi": 38,
        "time": 48.9,
        "duration": 0.15,
        "velocity": 0.55,
        "hand": "left"
      },
      {
        "midi": 57,
        "time": 48.9,
        "duration": 0.3,
        "velocity": 0.54,
        "hand": "left"
      },
      {
        "midi": 70,
        "time": 48.9,
        "duration": 0.15,
        "velocity": 0.56,
        "hand": "right"
      },
      {
        "midi": 35,
        "time": 49.2,
        "duration": 0.15,
        "velocity": 0.72,
        "hand": "left"
      },
      {
        "midi": 57,
        "time": 49.2,
        "duration": 0.45,
        "velocity": 0.56,
        "hand": "left"
      },
      {
        "midi": 70,
        "time": 49.2,
        "duration": 0.15,
        "velocity": 0.73,
        "hand": "right"
      },
      {
        "midi": 38,
        "time": 49.5,
        "duration": 0.15,
        "velocity": 0.56,
        "hand": "left"
      },
      {
        "midi": 59,
        "time": 49.5,
        "duration": 0.15,
        "velocity": 0.61,
        "hand": "left"
      },
      {
        "midi": 69,
        "time": 49.5,
        "duration": 0.15,
        "velocity": 0.63,
        "hand": "right"
      },
      {
        "midi": 35,
        "time": 49.8,
        "duration": 0.15,
        "velocity": 0.7,
        "hand": "left"
      },
      {
        "midi": 53,
        "time": 49.8,
        "duration": 0.15,
        "velocity": 0.63,
        "hand": "left"
      },
      {
        "midi": 64,
        "time": 49.8,
        "duration": 0.3,
        "velocity": 0.63,
        "hand": "right"
      },
      {
        "midi": 38,
        "time": 50.1,
        "duration": 0.15,
        "velocity": 0.53,
        "hand": "left"
      },
      {
        "midi": 59,
        "time": 50.1,
        "duration": 0.15,
        "velocity": 0.7,
        "hand": "left"
      },
      {
        "midi": 69,
        "time": 50.1,
        "duration": 0.15,
        "velocity": 0.68,
        "hand": "right"
      },
      {
        "midi": 35,
        "time": 50.4,
        "duration": 0.15,
        "velocity": 0.69,
        "hand": "left"
      },
      {
        "midi": 60,
        "time": 50.4,
        "duration": 0.3,
        "velocity": 0.58,
        "hand": "right"
      },
      {
        "midi": 67,
        "time": 50.4,
        "duration": 0.15,
        "velocity": 0.5,
        "hand": "right"
      },
      {
        "midi": 38,
        "time": 50.7,
        "duration": 0.15,
        "velocity": 0.54,
        "hand": "left"
      },
      {
        "midi": 60,
        "time": 50.7,
        "duration": 0.15,
        "velocity": 0.7,
        "hand": "right"
      },
      {
        "midi": 70,
        "time": 50.7,
        "duration": 0.15,
        "velocity": 0.72,
        "hand": "right"
      },
      {
        "midi": 35,
        "time": 51,
        "duration": 0.15,
        "velocity": 0.56,
        "hand": "left"
      },
      {
        "midi": 59,
        "time": 51,
        "duration": 0.3,
        "velocity": 0.52,
        "hand": "left"
      },
      {
        "midi": 70,
        "time": 51,
        "duration": 0.15,
        "velocity": 0.69,
        "hand": "right"
      },
      {
        "midi": 38,
        "time": 51.3,
        "duration": 0.15,
        "velocity": 0.55,
        "hand": "left"
      },
      {
        "midi": 56,
        "time": 51.3,
        "duration": 0.15,
        "velocity": 0.53,
        "hand": "left"
      },
      {
        "midi": 70,
        "time": 51.3,
        "duration": 0.15,
        "velocity": 0.7,
        "hand": "right"
      },
      {
        "midi": 35,
        "time": 51.6,
        "duration": 0.15,
        "velocity": 0.56,
        "hand": "left"
      },
      {
        "midi": 62,
        "time": 51.6,
        "duration": 0.6,
        "velocity": 0.55,
        "hand": "right"
      },
      {
        "midi": 70,
        "time": 51.6,
        "duration": 0.15,
        "velocity": 0.72,
        "hand": "right"
      },
      {
        "midi": 38,
        "time": 51.9,
        "duration": 0.15,
        "velocity": 0.54,
        "hand": "left"
      },
      {
        "midi": 54,
        "time": 51.9,
        "duration": 0.15,
        "velocity": 0.56,
        "hand": "left"
      },
      {
        "midi": 67,
        "time": 51.9,
        "duration": 0.15,
        "velocity": 0.56,
        "hand": "right"
      },
      {
        "midi": 31,
        "time": 52.2,
        "duration": 0.6,
        "velocity": 0.79,
        "hand": "left"
      },
      {
        "midi": 51,
        "time": 52.2,
        "duration": 0.15,
        "velocity": 0.61,
        "hand": "left"
      },
      {
        "midi": 67,
        "time": 52.2,
        "duration": 0.15,
        "velocity": 0.54,
        "hand": "right"
      },
      {
        "midi": 38,
        "time": 52.5,
        "duration": 0.15,
        "velocity": 0.56,
        "hand": "left"
      },
      {
        "midi": 54,
        "time": 52.5,
        "duration": 0.15,
        "velocity": 0.58,
        "hand": "left"
      },
      {
        "midi": 67,
        "time": 52.5,
        "duration": 0.15,
        "velocity": 0.57,
        "hand": "right"
      },
      {
        "midi": 35,
        "time": 52.8,
        "duration": 0.15,
        "velocity": 0.7,
        "hand": "left"
      },
      {
        "midi": 57,
        "time": 52.8,
        "duration": 0.15,
        "velocity": 0.81,
        "hand": "left"
      },
      {
        "midi": 67,
        "time": 52.8,
        "duration": 0.15,
        "velocity": 0.79,
        "hand": "right"
      },
      {
        "midi": 38,
        "time": 53.1,
        "duration": 0.15,
        "velocity": 0.57,
        "hand": "left"
      },
      {
        "midi": 57,
        "time": 53.1,
        "duration": 0.15,
        "velocity": 0.64,
        "hand": "left"
      },
      {
        "midi": 70,
        "time": 53.1,
        "duration": 0.15,
        "velocity": 0.7,
        "hand": "right"
      },
      {
        "midi": 31,
        "time": 53.4,
        "duration": 0.6,
        "velocity": 0.96,
        "hand": "left"
      },
      {
        "midi": 57,
        "time": 53.4,
        "duration": 0.45,
        "velocity": 0.43,
        "hand": "left"
      },
      {
        "midi": 70,
        "time": 53.4,
        "duration": 0.15,
        "velocity": 0.63,
        "hand": "right"
      },
      {
        "midi": 38,
        "time": 53.7,
        "duration": 0.15,
        "velocity": 0.55,
        "hand": "left"
      },
      {
        "midi": 57,
        "time": 53.7,
        "duration": 0.15,
        "velocity": 0.64,
        "hand": "left"
      },
      {
        "midi": 70,
        "time": 53.7,
        "duration": 0.15,
        "velocity": 0.56,
        "hand": "right"
      },
      {
        "midi": 35,
        "time": 54,
        "duration": 0.15,
        "velocity": 0.72,
        "hand": "left"
      },
      {
        "midi": 57,
        "time": 54,
        "duration": 0.6,
        "velocity": 0.56,
        "hand": "left"
      },
      {
        "midi": 70,
        "time": 54,
        "duration": 0.15,
        "velocity": 0.73,
        "hand": "right"
      },
      {
        "midi": 38,
        "time": 54.3,
        "duration": 0.15,
        "velocity": 0.56,
        "hand": "left"
      },
      {
        "midi": 55,
        "time": 54.3,
        "duration": 0.15,
        "velocity": 0.72,
        "hand": "left"
      },
      {
        "midi": 67,
        "time": 54.3,
        "duration": 0.15,
        "velocity": 0.72,
        "hand": "right"
      },
      {
        "midi": 31,
        "time": 54.6,
        "duration": 0.6,
        "velocity": 0.96,
        "hand": "left"
      },
      {
        "midi": 55,
        "time": 54.6,
        "duration": 0.15,
        "velocity": 0.61,
        "hand": "left"
      },
      {
        "midi": 67,
        "time": 54.6,
        "duration": 0.15,
        "velocity": 0.5,
        "hand": "right"
      },
      {
        "midi": 38,
        "time": 54.9,
        "duration": 0.15,
        "velocity": 0.53,
        "hand": "left"
      },
      {
        "midi": 55,
        "time": 54.9,
        "duration": 0.15,
        "velocity": 0.56,
        "hand": "left"
      },
      {
        "midi": 67,
        "time": 54.9,
        "duration": 0.15,
        "velocity": 0.51,
        "hand": "right"
      },
      {
        "midi": 35,
        "time": 55.2,
        "duration": 0.15,
        "velocity": 0.69,
        "hand": "left"
      },
      {
        "midi": 62,
        "time": 55.2,
        "duration": 0.15,
        "velocity": 0.57,
        "hand": "right"
      },
      {
        "midi": 69,
        "time": 55.2,
        "duration": 0.3,
        "velocity": 0.72,
        "hand": "right"
      },
      {
        "midi": 38,
        "time": 55.5,
        "duration": 0.15,
        "velocity": 0.54,
        "hand": "left"
      },
      {
        "midi": 62,
        "time": 55.5,
        "duration": 0.15,
        "velocity": 0.57,
        "hand": "right"
      },
      {
        "midi": 70,
        "time": 55.5,
        "duration": 0.15,
        "velocity": 0.72,
        "hand": "right"
      },
      {
        "midi": 35,
        "time": 55.8,
        "duration": 0.15,
        "velocity": 0.56,
        "hand": "left"
      },
      {
        "midi": 61,
        "time": 55.8,
        "duration": 0.45,
        "velocity": 0.58,
        "hand": "right"
      },
      {
        "midi": 70,
        "time": 55.8,
        "duration": 0.15,
        "velocity": 0.69,
        "hand": "right"
      },
      {
        "midi": 38,
        "time": 56.1,
        "duration": 0.15,
        "velocity": 0.55,
        "hand": "left"
      },
      {
        "midi": 58,
        "time": 56.1,
        "duration": 0.15,
        "velocity": 0.65,
        "hand": "left"
      },
      {
        "midi": 70,
        "time": 56.1,
        "duration": 0.15,
        "velocity": 0.7,
        "hand": "right"
      },
      {
        "midi": 35,
        "time": 56.4,
        "duration": 0.15,
        "velocity": 0.56,
        "hand": "left"
      },
      {
        "midi": 60,
        "time": 56.4,
        "duration": 1.05,
        "velocity": 0.61,
        "hand": "right"
      },
      {
        "midi": 70,
        "time": 56.4,
        "duration": 0.15,
        "velocity": 0.72,
        "hand": "right"
      },
      {
        "midi": 38,
        "time": 56.7,
        "duration": 0.15,
        "velocity": 0.54,
        "hand": "left"
      },
      {
        "midi": 57,
        "time": 56.7,
        "duration": 0.15,
        "velocity": 0.54,
        "hand": "left"
      },
      {
        "midi": 67,
        "time": 56.7,
        "duration": 0.15,
        "velocity": 0.5,
        "hand": "right"
      },
      {
        "midi": 33,
        "time": 57,
        "duration": 0.45,
        "velocity": 0.87,
        "hand": "left"
      },
      {
        "midi": 57,
        "time": 57,
        "duration": 0.15,
        "velocity": 0.5,
        "hand": "left"
      },
      {
        "midi": 67,
        "time": 57,
        "duration": 0.15,
        "velocity": 0.39,
        "hand": "right"
      },
      {
        "midi": 38,
        "time": 57.3,
        "duration": 0.15,
        "velocity": 0.56,
        "hand": "left"
      },
      {
        "midi": 57,
        "time": 57.3,
        "duration": 0.15,
        "velocity": 0.72,
        "hand": "left"
      },
      {
        "midi": 69,
        "time": 57.3,
        "duration": 0.15,
        "velocity": 0.72,
        "hand": "right"
      },
      {
        "midi": 35,
        "time": 57.6,
        "duration": 0.15,
        "velocity": 0.7,
        "hand": "left"
      },
      {
        "midi": 60,
        "time": 57.6,
        "duration": 0.15,
        "velocity": 0.54,
        "hand": "right"
      },
      {
        "midi": 69,
        "time": 57.6,
        "duration": 0.15,
        "velocity": 0.59,
        "hand": "right"
      },
      {
        "midi": 57,
        "time": 57.75,
        "duration": 0.15,
        "velocity": 0.48,
        "hand": "left"
      },
      {
        "midi": 64,
        "time": 57.75,
        "duration": 0.15,
        "velocity": 0.44,
        "hand": "right"
      },
      {
        "midi": 67,
        "time": 57.75,
        "duration": 0.15,
        "velocity": 0.31,
        "hand": "right"
      },
      {
        "midi": 38,
        "time": 57.9,
        "duration": 0.15,
        "velocity": 0.57,
        "hand": "left"
      },
      {
        "midi": 57,
        "time": 57.9,
        "duration": 0.3,
        "velocity": 0.57,
        "hand": "left"
      },
      {
        "midi": 70,
        "time": 57.9,
        "duration": 0.15,
        "velocity": 0.7,
        "hand": "right"
      },
      {
        "midi": 33,
        "time": 58.2,
        "duration": 0.45,
        "velocity": 0.97,
        "hand": "left"
      },
      {
        "midi": 59,
        "time": 58.2,
        "duration": 0.3,
        "velocity": 0.57,
        "hand": "left"
      },
      {
        "midi": 71,
        "time": 58.2,
        "duration": 0.3,
        "velocity": 0.57,
        "hand": "right"
      },
      {
        "midi": 38,
        "time": 58.5,
        "duration": 0.15,
        "velocity": 0.55,
        "hand": "left"
      },
      {
        "midi": 57,
        "time": 58.5,
        "duration": 0.3,
        "velocity": 0.54,
        "hand": "left"
      },
      {
        "midi": 70,
        "time": 58.5,
        "duration": 0.15,
        "velocity": 0.56,
        "hand": "right"
      },
      {
        "midi": 35,
        "time": 58.8,
        "duration": 0.15,
        "velocity": 0.72,
        "hand": "left"
      },
      {
        "midi": 57,
        "time": 58.8,
        "duration": 0.45,
        "velocity": 0.56,
        "hand": "left"
      },
      {
        "midi": 70,
        "time": 58.8,
        "duration": 0.15,
        "velocity": 0.73,
        "hand": "right"
      },
      {
        "midi": 38,
        "time": 59.1,
        "duration": 0.15,
        "velocity": 0.56,
        "hand": "left"
      },
      {
        "midi": 59,
        "time": 59.1,
        "duration": 0.15,
        "velocity": 0.61,
        "hand": "left"
      },
      {
        "midi": 69,
        "time": 59.1,
        "duration": 0.15,
        "velocity": 0.63,
        "hand": "right"
      },
      {
        "midi": 35,
        "time": 59.4,
        "duration": 0.15,
        "velocity": 0.7,
        "hand": "left"
      },
      {
        "midi": 53,
        "time": 59.4,
        "duration": 0.15,
        "velocity": 0.63,
        "hand": "left"
      },
      {
        "midi": 64,
        "time": 59.4,
        "duration": 0.3,
        "velocity": 0.63,
        "hand": "right"
      },
      {
        "midi": 38,
        "time": 59.7,
        "duration": 0.15,
        "velocity": 0.53,
        "hand": "left"
      },
      {
        "midi": 59,
        "time": 59.7,
        "duration": 0.15,
        "velocity": 0.7,
        "hand": "left"
      },
      {
        "midi": 69,
        "time": 59.7,
        "duration": 0.15,
        "velocity": 0.68,
        "hand": "right"
      },
      {
        "midi": 35,
        "time": 60,
        "duration": 0.15,
        "velocity": 0.69,
        "hand": "left"
      },
      {
        "midi": 60,
        "time": 60,
        "duration": 0.3,
        "velocity": 0.58,
        "hand": "right"
      },
      {
        "midi": 67,
        "time": 60,
        "duration": 0.15,
        "velocity": 0.5,
        "hand": "right"
      },
      {
        "midi": 38,
        "time": 60.3,
        "duration": 0.15,
        "velocity": 0.54,
        "hand": "left"
      },
      {
        "midi": 60,
        "time": 60.3,
        "duration": 0.15,
        "velocity": 0.7,
        "hand": "right"
      },
      {
        "midi": 70,
        "time": 60.3,
        "duration": 0.15,
        "velocity": 0.72,
        "hand": "right"
      },
      {
        "midi": 35,
        "time": 60.6,
        "duration": 0.15,
        "velocity": 0.56,
        "hand": "left"
      },
      {
        "midi": 59,
        "time": 60.6,
        "duration": 0.3,
        "velocity": 0.52,
        "hand": "left"
      },
      {
        "midi": 70,
        "time": 60.6,
        "duration": 0.15,
        "velocity": 0.69,
        "hand": "right"
      },
      {
        "midi": 38,
        "time": 60.9,
        "duration": 0.15,
        "velocity": 0.55,
        "hand": "left"
      },
      {
        "midi": 56,
        "time": 60.9,
        "duration": 0.15,
        "velocity": 0.53,
        "hand": "left"
      },
      {
        "midi": 70,
        "time": 60.9,
        "duration": 0.15,
        "velocity": 0.7,
        "hand": "right"
      },
      {
        "midi": 35,
        "time": 61.2,
        "duration": 0.15,
        "velocity": 0.59,
        "hand": "left"
      },
      {
        "midi": 60,
        "time": 61.2,
        "duration": 0.6,
        "velocity": 0.72,
        "hand": "right"
      },
      {
        "midi": 67,
        "time": 61.2,
        "duration": 0.6,
        "velocity": 0.63,
        "hand": "right"
      },
      {
        "midi": 38,
        "time": 61.5,
        "duration": 0.15,
        "velocity": 0.57,
        "hand": "left"
      },
      {
        "midi": 57,
        "time": 61.5,
        "duration": 0.15,
        "velocity": 0.55,
        "hand": "left"
      },
      {
        "midi": 70,
        "time": 61.5,
        "duration": 0.15,
        "velocity": 0.72,
        "hand": "right"
      },
      {
        "midi": 57,
        "time": 61.65,
        "duration": 0.15,
        "velocity": 0.51,
        "hand": "left"
      },
      {
        "midi": 62,
        "time": 61.65,
        "duration": 0.15,
        "velocity": 0.51,
        "hand": "right"
      },
      {
        "midi": 67,
        "time": 61.65,
        "duration": 0.15,
        "velocity": 0.54,
        "hand": "right"
      },
      {
        "midi": 31,
        "time": 61.8,
        "duration": 0.45,
        "velocity": 0.96,
        "hand": "left"
      },
      {
        "midi": 57,
        "time": 61.8,
        "duration": 0.15,
        "velocity": 0.5,
        "hand": "left"
      },
      {
        "midi": 70,
        "time": 61.8,
        "duration": 0.15,
        "velocity": 0.69,
        "hand": "right"
      },
      {
        "midi": 38,
        "time": 62.1,
        "duration": 0.15,
        "velocity": 0.53,
        "hand": "left"
      },
      {
        "midi": 62,
        "time": 62.1,
        "duration": 0.75,
        "velocity": 0.72,
        "hand": "right"
      },
      {
        "midi": 70,
        "time": 62.1,
        "duration": 0.15,
        "velocity": 0.68,
        "hand": "right"
      },
      {
        "midi": 35,
        "time": 62.4,
        "duration": 0.15,
        "velocity": 0.55,
        "hand": "left"
      },
      {
        "midi": 42,
        "time": 62.4,
        "duration": 0.15,
        "velocity": 0.61,
        "hand": "left"
      },
      {
        "midi": 70,
        "time": 62.4,
        "duration": 0.15,
        "velocity": 0.61,
        "hand": "right"
      },
      {
        "midi": 38,
        "time": 62.7,
        "duration": 0.15,
        "velocity": 0.54,
        "hand": "left"
      },
      {
        "midi": 57,
        "time": 62.7,
        "duration": 0.15,
        "velocity": 0.64,
        "hand": "left"
      },
      {
        "midi": 67,
        "time": 62.7,
        "duration": 0.15,
        "velocity": 0.55,
        "hand": "right"
      },
      {
        "midi": 31,
        "time": 63,
        "duration": 0.6,
        "velocity": 0.96,
        "hand": "left"
      },
      {
        "midi": 62,
        "time": 63,
        "duration": 0.15,
        "velocity": 0.72,
        "hand": "right"
      },
      {
        "midi": 69,
        "time": 63,
        "duration": 0.45,
        "velocity": 0.63,
        "hand": "right"
      },
      {
        "midi": 38,
        "time": 63.3,
        "duration": 0.15,
        "velocity": 0.53,
        "hand": "left"
      },
      {
        "midi": 57,
        "time": 63.3,
        "duration": 0.15,
        "velocity": 0.49,
        "hand": "left"
      },
      {
        "midi": 67,
        "time": 63.3,
        "duration": 0.15,
        "velocity": 0.55,
        "hand": "right"
      },
      {
        "midi": 35,
        "time": 63.6,
        "duration": 0.6,
        "velocity": 0.96,
        "hand": "left"
      },
      {
        "midi": 59,
        "time": 63.6,
        "duration": 0.6,
        "velocity": 0.57,
        "hand": "left"
      },
      {
        "midi": 71,
        "time": 63.6,
        "duration": 2.1,
        "velocity": 0.57,
        "hand": "right"
      },
      {
        "midi": 38,
        "time": 63.9,
        "duration": 0.15,
        "velocity": 0.58,
        "hand": "left"
      },
      {
        "midi": 51,
        "time": 63.9,
        "duration": 0.15,
        "velocity": 0.55,
        "hand": "left"
      },
      {
        "midi": 70,
        "time": 63.9,
        "duration": 0.15,
        "velocity": 0.72,
        "hand": "right"
      },
      {
        "midi": 59,
        "time": 64.05,
        "duration": 0.15,
        "velocity": 0.61,
        "hand": "left"
      },
      {
        "midi": 64,
        "time": 64.05,
        "duration": 0.15,
        "velocity": 0.55,
        "hand": "right"
      },
      {
        "midi": 67,
        "time": 64.05,
        "duration": 0.15,
        "velocity": 0.53,
        "hand": "right"
      },
      {
        "midi": 35,
        "time": 64.2,
        "duration": 0.15,
        "velocity": 0.7,
        "hand": "left"
      },
      {
        "midi": 62,
        "time": 64.2,
        "duration": 0.15,
        "velocity": 0.56,
        "hand": "right"
      },
      {
        "midi": 70,
        "time": 64.2,
        "duration": 0.15,
        "velocity": 0.72,
        "hand": "right"
      },
      {
        "midi": 38,
        "time": 64.5,
        "duration": 0.15,
        "velocity": 0.52,
        "hand": "left"
      },
      {
        "midi": 62,
        "time": 64.5,
        "duration": 0.75,
        "velocity": 0.61,
        "hand": "right"
      },
      {
        "midi": 70,
        "time": 64.5,
        "duration": 0.15,
        "velocity": 0.58,
        "hand": "right"
      },
      {
        "midi": 35,
        "time": 64.8,
        "duration": 0.6,
        "velocity": 0.96,
        "hand": "left"
      },
      {
        "midi": 42,
        "time": 64.8,
        "duration": 0.15,
        "velocity": 0.57,
        "hand": "left"
      },
      {
        "midi": 70,
        "time": 64.8,
        "duration": 0.15,
        "velocity": 0.72,
        "hand": "right"
      },
      {
        "midi": 38,
        "time": 65.1,
        "duration": 0.15,
        "velocity": 0.57,
        "hand": "left"
      },
      {
        "midi": 59,
        "time": 65.1,
        "duration": 0.15,
        "velocity": 0.63,
        "hand": "left"
      },
      {
        "midi": 67,
        "time": 65.1,
        "duration": 0.15,
        "velocity": 0.54,
        "hand": "right"
      },
      {
        "midi": 35,
        "time": 65.4,
        "duration": 0.15,
        "velocity": 0.72,
        "hand": "left"
      },
      {
        "midi": 59,
        "time": 65.4,
        "duration": 0.15,
        "velocity": 0.72,
        "hand": "left"
      },
      {
        "midi": 67,
        "time": 65.4,
        "duration": 0.15,
        "velocity": 0.57,
        "hand": "right"
      },
      {
        "midi": 38,
        "time": 65.7,
        "duration": 0.15,
        "velocity": 0.56,
        "hand": "left"
      },
      {
        "midi": 59,
        "time": 65.7,
        "duration": 0.15,
        "velocity": 0.54,
        "hand": "left"
      },
      {
        "midi": 67,
        "time": 65.7,
        "duration": 0.15,
        "velocity": 0.54,
        "hand": "right"
      },
      {
        "midi": 35,
        "time": 66,
        "duration": 0.15,
        "velocity": 0.57,
        "hand": "left"
      },
      {
        "midi": 60,
        "time": 66,
        "duration": 0.45,
        "velocity": 0.7,
        "hand": "right"
      },
      {
        "midi": 72,
        "time": 66,
        "duration": 1.05,
        "velocity": 0.56,
        "hand": "right"
      },
      {
        "midi": 38,
        "time": 66.3,
        "duration": 0.15,
        "velocity": 0.54,
        "hand": "left"
      },
      {
        "midi": 51,
        "time": 66.3,
        "duration": 0.15,
        "velocity": 0.54,
        "hand": "left"
      },
      {
        "midi": 70,
        "time": 66.3,
        "duration": 0.15,
        "velocity": 0.73,
        "hand": "right"
      },
      {
        "midi": 57,
        "time": 66.45,
        "duration": 0.15,
        "velocity": 0.63,
        "hand": "left"
      },
      {
        "midi": 62,
        "time": 66.45,
        "duration": 0.15,
        "velocity": 0.72,
        "hand": "right"
      },
      {
        "midi": 65,
        "time": 66.45,
        "duration": 0.15,
        "velocity": 0.57,
        "hand": "right"
      },
      {
        "midi": 33,
        "time": 66.6,
        "duration": 0.6,
        "velocity": 0.96,
        "hand": "left"
      },
      {
        "midi": 60,
        "time": 66.6,
        "duration": 0.45,
        "velocity": 0.78,
        "hand": "right"
      },
      {
        "midi": 70,
        "time": 66.6,
        "duration": 0.15,
        "velocity": 0.72,
        "hand": "right"
      },
      {
        "midi": 38,
        "time": 66.9,
        "duration": 0.15,
        "velocity": 0.56,
        "hand": "left"
      },
      {
        "midi": 57,
        "time": 66.9,
        "duration": 0.15,
        "velocity": 0.73,
        "hand": "left"
      },
      {
        "midi": 70,
        "time": 66.9,
        "duration": 0.15,
        "velocity": 0.72,
        "hand": "right"
      },
      {
        "midi": 31,
        "time": 67.2,
        "duration": 0.6,
        "velocity": 0.96,
        "hand": "left"
      },
      {
        "midi": 59,
        "time": 67.2,
        "duration": 0.9,
        "velocity": 0.56,
        "hand": "left"
      },
      {
        "midi": 71,
        "time": 67.2,
        "duration": 1.05,
        "velocity": 0.57,
        "hand": "right"
      },
      {
        "midi": 38,
        "time": 67.5,
        "duration": 0.15,
        "velocity": 0.56,
        "hand": "left"
      },
      {
        "midi": 55,
        "time": 67.5,
        "duration": 0.15,
        "velocity": 0.53,
        "hand": "left"
      },
      {
        "midi": 65,
        "time": 67.5,
        "duration": 0.3,
        "velocity": 0.52,
        "hand": "right"
      },
      {
        "midi": 35,
        "time": 67.8,
        "duration": 0.15,
        "velocity": 0.57,
        "hand": "left"
      },
      {
        "midi": 59,
        "time": 67.8,
        "duration": 0.3,
        "velocity": 0.55,
        "hand": "left"
      },
      {
        "midi": 65,
        "time": 67.8,
        "duration": 0.15,
        "velocity": 0.57,
        "hand": "right"
      },
      {
        "midi": 38,
        "time": 68.1,
        "duration": 0.15,
        "velocity": 0.57,
        "hand": "left"
      },
      {
        "midi": 55,
        "time": 68.1,
        "duration": 0.15,
        "velocity": 0.57,
        "hand": "left"
      },
      {
        "midi": 65,
        "time": 68.1,
        "duration": 0.15,
        "velocity": 0.52,
        "hand": "right"
      },
      {
        "midi": 35,
        "time": 68.4,
        "duration": 0.15,
        "velocity": 0.7,
        "hand": "left"
      },
      {
        "midi": 60,
        "time": 68.4,
        "duration": 0.15,
        "velocity": 0.73,
        "hand": "right"
      },
      {
        "midi": 72,
        "time": 68.4,
        "duration": 1.05,
        "velocity": 0.69,
        "hand": "right"
      },
      {
        "midi": 38,
        "time": 68.7,
        "duration": 0.15,
        "velocity": 0.57,
        "hand": "left"
      },
      {
        "midi": 51,
        "time": 68.7,
        "duration": 0.15,
        "velocity": 0.61,
        "hand": "left"
      },
      {
        "midi": 70,
        "time": 68.7,
        "duration": 0.15,
        "velocity": 0.7,
        "hand": "right"
      },
      {
        "midi": 55,
        "time": 68.85,
        "duration": 0.15,
        "velocity": 0.57,
        "hand": "left"
      },
      {
        "midi": 60,
        "time": 68.85,
        "duration": 0.15,
        "velocity": 0.64,
        "hand": "right"
      },
      {
        "midi": 64,
        "time": 68.85,
        "duration": 0.15,
        "velocity": 0.59,
        "hand": "right"
      },
      {
        "midi": 31,
        "time": 69,
        "duration": 0.3,
        "velocity": 0.96,
        "hand": "left"
      },
      {
        "midi": 60,
        "time": 69,
        "duration": 0.3,
        "velocity": 0.56,
        "hand": "right"
      },
      {
        "midi": 70,
        "time": 69,
        "duration": 0.15,
        "velocity": 0.63,
        "hand": "right"
      },
      {
        "midi": 36,
        "time": 69.3,
        "duration": 0.3,
        "velocity": 0.96,
        "hand": "left"
      },
      {
        "midi": 54,
        "time": 69.3,
        "duration": 0.15,
        "velocity": 0.5,
        "hand": "left"
      },
      {
        "midi": 70,
        "time": 69.3,
        "duration": 0.15,
        "velocity": 0.56,
        "hand": "right"
      },
      {
        "midi": 35,
        "time": 69.6,
        "duration": 0.15,
        "velocity": 0.72,
        "hand": "left"
      },
      {
        "midi": 60,
        "time": 69.6,
        "duration": 0.3,
        "velocity": 0.52,
        "hand": "right"
      },
      {
        "midi": 72,
        "time": 69.6,
        "duration": 0.45,
        "velocity": 0.54,
        "hand": "right"
      },
      {
        "midi": 48,
        "time": 69.75,
        "duration": 0.15,
        "velocity": 0.54,
        "hand": "left"
      },
      {
        "midi": 38,
        "time": 69.9,
        "duration": 0.15,
        "velocity": 0.56,
        "hand": "left"
      },
      {
        "midi": 57,
        "time": 69.9,
        "duration": 0.15,
        "velocity": 0.54,
        "hand": "left"
      },
      {
        "midi": 65,
        "time": 69.9,
        "duration": 0.15,
        "velocity": 0.57,
        "hand": "right"
      },
      {
        "midi": 47,
        "time": 70.05,
        "duration": 0.15,
        "velocity": 0.63,
        "hand": "left"
      },
      {
        "midi": 31,
        "time": 70.2,
        "duration": 0.45,
        "velocity": 0.96,
        "hand": "left"
      },
      {
        "midi": 59,
        "time": 70.2,
        "duration": 0.15,
        "velocity": 0.72,
        "hand": "left"
      },
      {
        "midi": 71,
        "time": 70.2,
        "duration": 0.45,
        "velocity": 0.51,
        "hand": "right"
      },
      {
        "midi": 38,
        "time": 70.5,
        "duration": 0.15,
        "velocity": 0.53,
        "hand": "left"
      },
      {
        "midi": 54,
        "time": 70.5,
        "duration": 0.15,
        "velocity": 0.57,
        "hand": "left"
      },
      {
        "midi": 65,
        "time": 70.5,
        "duration": 0.15,
        "velocity": 0.54,
        "hand": "right"
      },
      {
        "midi": 35,
        "time": 70.8,
        "duration": 0.15,
        "velocity": 0.69,
        "hand": "left"
      },
      {
        "midi": 60,
        "time": 70.8,
        "duration": 0.6,
        "velocity": 0.69,
        "hand": "right"
      },
      {
        "midi": 67,
        "time": 70.8,
        "duration": 1.65,
        "velocity": 0.63,
        "hand": "right"
      },
      {
        "midi": 38,
        "time": 71.1,
        "duration": 0.15,
        "velocity": 0.54,
        "hand": "left"
      },
      {
        "midi": 51,
        "time": 71.1,
        "duration": 0.15,
        "velocity": 0.55,
        "hand": "left"
      },
      {
        "midi": 70,
        "time": 71.1,
        "duration": 0.15,
        "velocity": 0.72,
        "hand": "right"
      },
      {
        "midi": 57,
        "time": 71.25,
        "duration": 0.15,
        "velocity": 0.57,
        "hand": "left"
      },
      {
        "midi": 62,
        "time": 71.25,
        "duration": 0.15,
        "velocity": 0.61,
        "hand": "right"
      },
      {
        "midi": 67,
        "time": 71.25,
        "duration": 0.15,
        "velocity": 0.54,
        "hand": "right"
      },
      {
        "midi": 31,
        "time": 71.4,
        "duration": 0.6,
        "velocity": 0.96,
        "hand": "left"
      },
      {
        "midi": 57,
        "time": 71.4,
        "duration": 0.15,
        "velocity": 0.52,
        "hand": "left"
      },
      {
        "midi": 70,
        "time": 71.4,
        "duration": 0.15,
        "velocity": 0.69,
        "hand": "right"
      },
      {
        "midi": 38,
        "time": 71.7,
        "duration": 0.15,
        "velocity": 0.55,
        "hand": "left"
      },
      {
        "midi": 60,
        "time": 71.7,
        "duration": 0.75,
        "velocity": 0.7,
        "hand": "right"
      },
      {
        "midi": 70,
        "time": 71.7,
        "duration": 0.15,
        "velocity": 0.7,
        "hand": "right"
      },
      {
        "midi": 35,
        "time": 72,
        "duration": 0.15,
        "velocity": 0.56,
        "hand": "left"
      },
      {
        "midi": 42,
        "time": 72,
        "duration": 0.15,
        "velocity": 0.65,
        "hand": "left"
      },
      {
        "midi": 70,
        "time": 72,
        "duration": 0.15,
        "velocity": 0.72,
        "hand": "right"
      },
      {
        "midi": 38,
        "time": 72.3,
        "duration": 0.15,
        "velocity": 0.54,
        "hand": "left"
      },
      {
        "midi": 57,
        "time": 72.3,
        "duration": 0.15,
        "velocity": 0.57,
        "hand": "left"
      },
      {
        "midi": 67,
        "time": 72.3,
        "duration": 0.15,
        "velocity": 0.56,
        "hand": "right"
      },
      {
        "midi": 31,
        "time": 72.6,
        "duration": 0.45,
        "velocity": 0.96,
        "hand": "left"
      },
      {
        "midi": 60,
        "time": 72.6,
        "duration": 0.45,
        "velocity": 0.51,
        "hand": "right"
      },
      {
        "midi": 69,
        "time": 72.6,
        "duration": 0.45,
        "velocity": 0.57,
        "hand": "right"
      },
      {
        "midi": 38,
        "time": 72.9,
        "duration": 0.15,
        "velocity": 0.56,
        "hand": "left"
      },
      {
        "midi": 57,
        "time": 72.9,
        "duration": 0.15,
        "velocity": 0.54,
        "hand": "left"
      },
      {
        "midi": 67,
        "time": 72.9,
        "duration": 0.15,
        "velocity": 0.51,
        "hand": "right"
      },
      {
        "midi": 35,
        "time": 73.2,
        "duration": 0.6,
        "velocity": 0.96,
        "hand": "left"
      },
      {
        "midi": 62,
        "time": 73.2,
        "duration": 0.15,
        "velocity": 0.61,
        "hand": "right"
      },
      {
        "midi": 71,
        "time": 73.2,
        "duration": 1.8,
        "velocity": 0.54,
        "hand": "right"
      },
      {
        "midi": 38,
        "time": 73.5,
        "duration": 0.15,
        "velocity": 0.57,
        "hand": "left"
      },
      {
        "midi": 51,
        "time": 73.5,
        "duration": 0.15,
        "velocity": 0.56,
        "hand": "left"
      },
      {
        "midi": 70,
        "time": 73.5,
        "duration": 0.15,
        "velocity": 0.72,
        "hand": "right"
      },
      {
        "midi": 59,
        "time": 73.65,
        "duration": 0.15,
        "velocity": 0.61,
        "hand": "left"
      },
      {
        "midi": 64,
        "time": 73.65,
        "duration": 0.15,
        "velocity": 0.57,
        "hand": "right"
      },
      {
        "midi": 67,
        "time": 73.65,
        "duration": 0.15,
        "velocity": 0.52,
        "hand": "right"
      },
      {
        "midi": 35,
        "time": 73.8,
        "duration": 0.15,
        "velocity": 0.55,
        "hand": "left"
      },
      {
        "midi": 62,
        "time": 73.8,
        "duration": 0.15,
        "velocity": 0.54,
        "hand": "right"
      },
      {
        "midi": 70,
        "time": 73.8,
        "duration": 0.15,
        "velocity": 0.69,
        "hand": "right"
      },
      {
        "midi": 38,
        "time": 74.1,
        "duration": 0.15,
        "velocity": 0.53,
        "hand": "left"
      },
      {
        "midi": 64,
        "time": 74.1,
        "duration": 0.75,
        "velocity": 0.72,
        "hand": "right"
      },
      {
        "midi": 71,
        "time": 74.1,
        "duration": 0.75,
        "velocity": 0.68,
        "hand": "right"
      },
      {
        "midi": 35,
        "time": 74.4,
        "duration": 0.6,
        "velocity": 0.96,
        "hand": "left"
      },
      {
        "midi": 51,
        "time": 74.4,
        "duration": 0.15,
        "velocity": 0.54,
        "hand": "left"
      },
      {
        "midi": 70,
        "time": 74.4,
        "duration": 0.15,
        "velocity": 0.61,
        "hand": "right"
      },
      {
        "midi": 38,
        "time": 74.7,
        "duration": 0.15,
        "velocity": 0.58,
        "hand": "left"
      },
      {
        "midi": 59,
        "time": 74.7,
        "duration": 0.15,
        "velocity": 0.7,
        "hand": "left"
      },
      {
        "midi": 70,
        "time": 74.7,
        "duration": 0.15,
        "velocity": 0.72,
        "hand": "right"
      },
      {
        "midi": 35,
        "time": 75,
        "duration": 0.15,
        "velocity": 0.7,
        "hand": "left"
      },
      {
        "midi": 62,
        "time": 75,
        "duration": 0.15,
        "velocity": 0.65,
        "hand": "right"
      },
      {
        "midi": 71,
        "time": 75,
        "duration": 0.15,
        "velocity": 0.57,
        "hand": "right"
      },
      {
        "midi": 38,
        "time": 75.3,
        "duration": 0.15,
        "velocity": 0.52,
        "hand": "left"
      },
      {
        "midi": 51,
        "time": 75.3,
        "duration": 0.15,
        "velocity": 0.54,
        "hand": "left"
      },
      {
        "midi": 70,
        "time": 75.3,
        "duration": 0.15,
        "velocity": 0.58,
        "hand": "right"
      },
      {
        "midi": 35,
        "time": 75.6,
        "duration": 0.15,
        "velocity": 0.69,
        "hand": "left"
      },
      {
        "midi": 60,
        "time": 75.6,
        "duration": 0.9,
        "velocity": 0.52,
        "hand": "right"
      },
      {
        "midi": 72,
        "time": 75.6,
        "duration": 1.05,
        "velocity": 0.63,
        "hand": "right"
      },
      {
        "midi": 38,
        "time": 75.9,
        "duration": 0.15,
        "velocity": 0.58,
        "hand": "left"
      },
      {
        "midi": 51,
        "time": 75.9,
        "duration": 0.15,
        "velocity": 0.55,
        "hand": "left"
      },
      {
        "midi": 70,
        "time": 75.9,
        "duration": 0.15,
        "velocity": 0.72,
        "hand": "right"
      },
      {
        "midi": 57,
        "time": 76.05,
        "duration": 0.15,
        "velocity": 0.65,
        "hand": "left"
      },
      {
        "midi": 62,
        "time": 76.05,
        "duration": 0.15,
        "velocity": 0.68,
        "hand": "right"
      },
      {
        "midi": 69,
        "time": 76.05,
        "duration": 0.3,
        "velocity": 0.54,
        "hand": "right"
      },
      {
        "midi": 33,
        "time": 76.2,
        "duration": 0.6,
        "velocity": 0.96,
        "hand": "left"
      },
      {
        "midi": 60,
        "time": 76.2,
        "duration": 0.45,
        "velocity": 0.7,
        "hand": "right"
      },
      {
        "midi": 70,
        "time": 76.2,
        "duration": 0.15,
        "velocity": 0.72,
        "hand": "right"
      },
      {
        "midi": 38,
        "time": 76.5,
        "duration": 0.15,
        "velocity": 0.52,
        "hand": "left"
      },
      {
        "midi": 60,
        "time": 76.5,
        "duration": 0.15,
        "velocity": 0.63,
        "hand": "right"
      },
      {
        "midi": 70,
        "time": 76.5,
        "duration": 0.15,
        "velocity": 0.58,
        "hand": "right"
      },
      {
        "midi": 31,
        "time": 76.8,
        "duration": 0.6,
        "velocity": 0.96,
        "hand": "left"
      },
      {
        "midi": 62,
        "time": 76.8,
        "duration": 0.45,
        "velocity": 0.57,
        "hand": "right"
      },
      {
        "midi": 71,
        "time": 76.8,
        "duration": 1.05,
        "velocity": 0.58,
        "hand": "right"
      },
      {
        "midi": 38,
        "time": 77.1,
        "duration": 0.15,
        "velocity": 0.57,
        "hand": "left"
      },
      {
        "midi": 55,
        "time": 77.1,
        "duration": 0.15,
        "velocity": 0.52,
        "hand": "left"
      },
      {
        "midi": 65,
        "time": 77.1,
        "duration": 0.3,
        "velocity": 0.56,
        "hand": "right"
      },
      {
        "midi": 35,
        "time": 77.4,
        "duration": 0.15,
        "velocity": 0.72,
        "hand": "left"
      },
      {
        "midi": 59,
        "time": 77.4,
        "duration": 0.15,
        "velocity": 0.58,
        "hand": "left"
      },
      {
        "midi": 65,
        "time": 77.4,
        "duration": 0.15,
        "velocity": 0.54,
        "hand": "right"
      },
      {
        "midi": 38,
        "time": 77.7,
        "duration": 0.15,
        "velocity": 0.56,
        "hand": "left"
      },
      {
        "midi": 55,
        "time": 77.7,
        "duration": 0.15,
        "velocity": 0.4,
        "hand": "left"
      },
      {
        "midi": 65,
        "time": 77.7,
        "duration": 0.15,
        "velocity": 0.48,
        "hand": "right"
      },
      {
        "midi": 35,
        "time": 78,
        "duration": 0.15,
        "velocity": 0.56,
        "hand": "left"
      },
      {
        "midi": 60,
        "time": 78,
        "duration": 0.75,
        "velocity": 0.64,
        "hand": "right"
      },
      {
        "midi": 72,
        "time": 78,
        "duration": 0.15,
        "velocity": 0.51,
        "hand": "right"
      },
      {
        "midi": 67,
        "time": 78.6,
        "duration": 0.15,
        "velocity": 0.73,
        "hand": "right"
      },
      {
        "midi": 67,
        "time": 78.9,
        "duration": 0.15,
        "velocity": 0.72,
        "hand": "right"
      },
      {
        "midi": 67,
        "time": 79.05,
        "duration": 0.15,
        "velocity": 0.65,
        "hand": "right"
      },
      {
        "midi": 69,
        "time": 79.2,
        "duration": 0.15,
        "velocity": 0.74,
        "hand": "right"
      },
      {
        "midi": 67,
        "time": 79.5,
        "duration": 0.15,
        "velocity": 0.83,
        "hand": "right"
      },
      {
        "midi": 31,
        "time": 80.1,
        "duration": 0.3,
        "velocity": 0.57,
        "hand": "left"
      },
      {
        "midi": 59,
        "time": 80.1,
        "duration": 0.15,
        "velocity": 0.65,
        "hand": "left"
      },
      {
        "midi": 71,
        "time": 80.1,
        "duration": 0.15,
        "velocity": 0.63,
        "hand": "right"
      },
      {
        "midi": 55,
        "time": 80.25,
        "duration": 0.15,
        "velocity": 0.72,
        "hand": "left"
      },
      {
        "midi": 35,
        "time": 80.4,
        "duration": 0.15,
        "velocity": 0.79,
        "hand": "left"
      },
      {
        "midi": 60,
        "time": 80.4,
        "duration": 0.15,
        "velocity": 0.72,
        "hand": "right"
      },
      {
        "midi": 72,
        "time": 80.4,
        "duration": 0.15,
        "velocity": 0.72,
        "hand": "right"
      }
    ],
    "hard": [
      {
        "midi": 35,
        "time": 4.8,
        "duration": 0.075,
        "velocity": 0.59,
        "hand": "left"
      },
      {
        "midi": 36,
        "time": 4.8,
        "duration": 0.6,
        "velocity": 0.96,
        "hand": "left"
      },
      {
        "midi": 42,
        "time": 4.8,
        "duration": 0.075,
        "velocity": 0.73,
        "hand": "left"
      },
      {
        "midi": 55,
        "time": 4.8,
        "duration": 2.25,
        "velocity": 0.46,
        "hand": "left"
      },
      {
        "midi": 57,
        "time": 4.8,
        "duration": 0.15,
        "velocity": 0.61,
        "hand": "left"
      },
      {
        "midi": 57,
        "time": 4.8,
        "duration": 0.075,
        "velocity": 0.52,
        "hand": "left"
      },
      {
        "midi": 60,
        "time": 4.8,
        "duration": 0.6,
        "velocity": 0.73,
        "hand": "right"
      },
      {
        "midi": 60,
        "time": 4.8,
        "duration": 2.25,
        "velocity": 0.48,
        "hand": "right"
      },
      {
        "midi": 60,
        "time": 4.8,
        "duration": 1.65,
        "velocity": 0.53,
        "hand": "right"
      },
      {
        "midi": 60,
        "time": 4.8,
        "duration": 0.6,
        "velocity": 0.73,
        "hand": "right"
      },
      {
        "midi": 62,
        "time": 4.8,
        "duration": 0.15,
        "velocity": 0.58,
        "hand": "right"
      },
      {
        "midi": 62,
        "time": 4.8,
        "duration": 0.075,
        "velocity": 0.56,
        "hand": "right"
      },
      {
        "midi": 64,
        "time": 4.8,
        "duration": 4.35,
        "velocity": 0.44,
        "hand": "right"
      },
      {
        "midi": 64,
        "time": 4.8,
        "duration": 1.65,
        "velocity": 0.63,
        "hand": "right"
      },
      {
        "midi": 67,
        "time": 4.8,
        "duration": 0.15,
        "velocity": 0.57,
        "hand": "right"
      },
      {
        "midi": 67,
        "time": 4.8,
        "duration": 1.65,
        "velocity": 0.61,
        "hand": "right"
      },
      {
        "midi": 38,
        "time": 5.1,
        "duration": 0.075,
        "velocity": 0.57,
        "hand": "left"
      },
      {
        "midi": 42,
        "time": 5.1,
        "duration": 0.075,
        "velocity": 0.65,
        "hand": "left"
      },
      {
        "midi": 51,
        "time": 5.1,
        "duration": 0.075,
        "velocity": 0.56,
        "hand": "left"
      },
      {
        "midi": 54,
        "time": 5.1,
        "duration": 0.075,
        "velocity": 0.68,
        "hand": "left"
      },
      {
        "midi": 57,
        "time": 5.1,
        "duration": 0.15,
        "velocity": 0.55,
        "hand": "left"
      },
      {
        "midi": 62,
        "time": 5.1,
        "duration": 0.075,
        "velocity": 0.56,
        "hand": "right"
      },
      {
        "midi": 67,
        "time": 5.1,
        "duration": 0.15,
        "velocity": 0.52,
        "hand": "right"
      },
      {
        "midi": 70,
        "time": 5.1,
        "duration": 0.075,
        "velocity": 0.72,
        "hand": "right"
      },
      {
        "midi": 57,
        "time": 5.25,
        "duration": 0.15,
        "velocity": 0.51,
        "hand": "left"
      },
      {
        "midi": 62,
        "time": 5.25,
        "duration": 0.075,
        "velocity": 0.51,
        "hand": "right"
      },
      {
        "midi": 67,
        "time": 5.25,
        "duration": 0.15,
        "velocity": 0.54,
        "hand": "right"
      },
      {
        "midi": 31,
        "time": 5.4,
        "duration": 0.45,
        "velocity": 0.96,
        "hand": "left"
      },
      {
        "midi": 35,
        "time": 5.4,
        "duration": 0.075,
        "velocity": 0.55,
        "hand": "left"
      },
      {
        "midi": 42,
        "time": 5.4,
        "duration": 0.075,
        "velocity": 0.59,
        "hand": "left"
      },
      {
        "midi": 51,
        "time": 5.4,
        "duration": 0.075,
        "velocity": 0.57,
        "hand": "left"
      },
      {
        "midi": 57,
        "time": 5.4,
        "duration": 0.075,
        "velocity": 0.5,
        "hand": "left"
      },
      {
        "midi": 62,
        "time": 5.4,
        "duration": 0.075,
        "velocity": 0.72,
        "hand": "right"
      },
      {
        "midi": 64,
        "time": 5.4,
        "duration": 0.3,
        "velocity": 0.65,
        "hand": "right"
      },
      {
        "midi": 67,
        "time": 5.4,
        "duration": 0.15,
        "velocity": 0.5,
        "hand": "right"
      },
      {
        "midi": 70,
        "time": 5.4,
        "duration": 0.075,
        "velocity": 0.69,
        "hand": "right"
      },
      {
        "midi": 38,
        "time": 5.7,
        "duration": 0.075,
        "velocity": 0.53,
        "hand": "left"
      },
      {
        "midi": 42,
        "time": 5.7,
        "duration": 0.075,
        "velocity": 0.58,
        "hand": "left"
      },
      {
        "midi": 51,
        "time": 5.7,
        "duration": 0.075,
        "velocity": 0.49,
        "hand": "left"
      },
      {
        "midi": 54,
        "time": 5.7,
        "duration": 0.075,
        "velocity": 0.56,
        "hand": "left"
      },
      {
        "midi": 57,
        "time": 5.7,
        "duration": 0.75,
        "velocity": 0.65,
        "hand": "left"
      },
      {
        "midi": 57,
        "time": 5.7,
        "duration": 0.15,
        "velocity": 0.69,
        "hand": "left"
      },
      {
        "midi": 62,
        "time": 5.7,
        "duration": 0.75,
        "velocity": 0.72,
        "hand": "right"
      },
      {
        "midi": 62,
        "time": 5.7,
        "duration": 0.075,
        "velocity": 0.73,
        "hand": "right"
      },
      {
        "midi": 67,
        "time": 5.7,
        "duration": 0.75,
        "velocity": 0.61,
        "hand": "right"
      },
      {
        "midi": 67,
        "time": 5.7,
        "duration": 0.15,
        "velocity": 0.57,
        "hand": "right"
      },
      {
        "midi": 67,
        "time": 5.7,
        "duration": 0.6,
        "velocity": 0.54,
        "hand": "right"
      },
      {
        "midi": 70,
        "time": 5.7,
        "duration": 0.075,
        "velocity": 0.68,
        "hand": "right"
      },
      {
        "midi": 35,
        "time": 6,
        "duration": 0.075,
        "velocity": 0.55,
        "hand": "left"
      },
      {
        "midi": 36,
        "time": 6,
        "duration": 0.6,
        "velocity": 0.96,
        "hand": "left"
      },
      {
        "midi": 42,
        "time": 6,
        "duration": 0.075,
        "velocity": 0.61,
        "hand": "left"
      },
      {
        "midi": 51,
        "time": 6,
        "duration": 0.075,
        "velocity": 0.51,
        "hand": "left"
      },
      {
        "midi": 70,
        "time": 6,
        "duration": 0.075,
        "velocity": 0.61,
        "hand": "right"
      },
      {
        "midi": 38,
        "time": 6.3,
        "duration": 0.075,
        "velocity": 0.54,
        "hand": "left"
      },
      {
        "midi": 42,
        "time": 6.3,
        "duration": 0.075,
        "velocity": 0.61,
        "hand": "left"
      },
      {
        "midi": 51,
        "time": 6.3,
        "duration": 0.075,
        "velocity": 0.52,
        "hand": "left"
      },
      {
        "midi": 54,
        "time": 6.3,
        "duration": 0.075,
        "velocity": 0.68,
        "hand": "left"
      },
      {
        "midi": 57,
        "time": 6.3,
        "duration": 0.15,
        "velocity": 0.64,
        "hand": "left"
      },
      {
        "midi": 62,
        "time": 6.3,
        "duration": 0.075,
        "velocity": 0.72,
        "hand": "right"
      },
      {
        "midi": 64,
        "time": 6.3,
        "duration": 0.3,
        "velocity": 0.51,
        "hand": "right"
      },
      {
        "midi": 67,
        "time": 6.3,
        "duration": 0.075,
        "velocity": 0.55,
        "hand": "right"
      },
      {
        "midi": 31,
        "time": 6.6,
        "duration": 0.6,
        "velocity": 0.96,
        "hand": "left"
      },
      {
        "midi": 35,
        "time": 6.6,
        "duration": 0.075,
        "velocity": 0.68,
        "hand": "left"
      },
      {
        "midi": 42,
        "time": 6.6,
        "duration": 0.075,
        "velocity": 0.58,
        "hand": "left"
      },
      {
        "midi": 51,
        "time": 6.6,
        "duration": 0.075,
        "velocity": 0.49,
        "hand": "left"
      },
      {
        "midi": 57,
        "time": 6.6,
        "duration": 0.15,
        "velocity": 0.61,
        "hand": "left"
      },
      {
        "midi": 60,
        "time": 6.6,
        "duration": 0.45,
        "velocity": 0.57,
        "hand": "right"
      },
      {
        "midi": 62,
        "time": 6.6,
        "duration": 0.15,
        "velocity": 0.72,
        "hand": "right"
      },
      {
        "midi": 62,
        "time": 6.6,
        "duration": 0.075,
        "velocity": 0.72,
        "hand": "right"
      },
      {
        "midi": 62,
        "time": 6.6,
        "duration": 0.3,
        "velocity": 0.53,
        "hand": "right"
      },
      {
        "midi": 64,
        "time": 6.6,
        "duration": 0.45,
        "velocity": 0.68,
        "hand": "right"
      },
      {
        "midi": 67,
        "time": 6.6,
        "duration": 0.15,
        "velocity": 0.63,
        "hand": "right"
      },
      {
        "midi": 67,
        "time": 6.6,
        "duration": 0.075,
        "velocity": 0.54,
        "hand": "right"
      },
      {
        "midi": 69,
        "time": 6.6,
        "duration": 0.45,
        "velocity": 0.63,
        "hand": "right"
      },
      {
        "midi": 38,
        "time": 6.9,
        "duration": 0.075,
        "velocity": 0.53,
        "hand": "left"
      },
      {
        "midi": 42,
        "time": 6.9,
        "duration": 0.075,
        "velocity": 0.57,
        "hand": "left"
      },
      {
        "midi": 51,
        "time": 6.9,
        "duration": 0.075,
        "velocity": 0.56,
        "hand": "left"
      },
      {
        "midi": 54,
        "time": 6.9,
        "duration": 0.075,
        "velocity": 0.55,
        "hand": "left"
      },
      {
        "midi": 57,
        "time": 6.9,
        "duration": 0.15,
        "velocity": 0.49,
        "hand": "left"
      },
      {
        "midi": 60,
        "time": 6.9,
        "duration": 0.3,
        "velocity": 0.54,
        "hand": "right"
      },
      {
        "midi": 62,
        "time": 6.9,
        "duration": 0.075,
        "velocity": 0.57,
        "hand": "right"
      },
      {
        "midi": 67,
        "time": 6.9,
        "duration": 0.15,
        "velocity": 0.55,
        "hand": "right"
      },
      {
        "midi": 35,
        "time": 7.2,
        "duration": 0.6,
        "velocity": 0.96,
        "hand": "left"
      },
      {
        "midi": 35,
        "time": 7.2,
        "duration": 0.075,
        "velocity": 0.69,
        "hand": "left"
      },
      {
        "midi": 42,
        "time": 7.2,
        "duration": 0.075,
        "velocity": 0.54,
        "hand": "left"
      },
      {
        "midi": 51,
        "time": 7.2,
        "duration": 0.075,
        "velocity": 0.54,
        "hand": "left"
      },
      {
        "midi": 55,
        "time": 7.2,
        "duration": 0.75,
        "velocity": 0.61,
        "hand": "left"
      },
      {
        "midi": 55,
        "time": 7.2,
        "duration": 1.95,
        "velocity": 0.25,
        "hand": "left"
      },
      {
        "midi": 59,
        "time": 7.2,
        "duration": 0.75,
        "velocity": 0.61,
        "hand": "left"
      },
      {
        "midi": 59,
        "time": 7.2,
        "duration": 0.15,
        "velocity": 0.51,
        "hand": "left"
      },
      {
        "midi": 59,
        "time": 7.2,
        "duration": 0.6,
        "velocity": 0.57,
        "hand": "left"
      },
      {
        "midi": 59,
        "time": 7.2,
        "duration": 1.95,
        "velocity": 0.54,
        "hand": "left"
      },
      {
        "midi": 59,
        "time": 7.2,
        "duration": 0.6,
        "velocity": 0.57,
        "hand": "left"
      },
      {
        "midi": 60,
        "time": 7.2,
        "duration": 1.95,
        "velocity": 0.54,
        "hand": "right"
      },
      {
        "midi": 62,
        "time": 7.2,
        "duration": 0.75,
        "velocity": 0.55,
        "hand": "right"
      },
      {
        "midi": 62,
        "time": 7.2,
        "duration": 0.075,
        "velocity": 0.72,
        "hand": "right"
      },
      {
        "midi": 64,
        "time": 7.2,
        "duration": 0.75,
        "velocity": 0.53,
        "hand": "right"
      },
      {
        "midi": 64,
        "time": 7.2,
        "duration": 0.075,
        "velocity": 0.65,
        "hand": "right"
      },
      {
        "midi": 64,
        "time": 7.2,
        "duration": 1.95,
        "velocity": 0.56,
        "hand": "right"
      },
      {
        "midi": 67,
        "time": 7.2,
        "duration": 0.075,
        "velocity": 0.38,
        "hand": "right"
      },
      {
        "midi": 67,
        "time": 7.2,
        "duration": 2.1,
        "velocity": 0.63,
        "hand": "right"
      },
      {
        "midi": 71,
        "time": 7.2,
        "duration": 2.1,
        "velocity": 0.57,
        "hand": "right"
      },
      {
        "midi": 38,
        "time": 7.5,
        "duration": 0.075,
        "velocity": 0.58,
        "hand": "left"
      },
      {
        "midi": 42,
        "time": 7.5,
        "duration": 0.075,
        "velocity": 0.63,
        "hand": "left"
      },
      {
        "midi": 51,
        "time": 7.5,
        "duration": 0.075,
        "velocity": 0.55,
        "hand": "left"
      },
      {
        "midi": 54,
        "time": 7.5,
        "duration": 0.075,
        "velocity": 0.52,
        "hand": "left"
      },
      {
        "midi": 70,
        "time": 7.5,
        "duration": 0.075,
        "velocity": 0.72,
        "hand": "right"
      },
      {
        "midi": 59,
        "time": 7.65,
        "duration": 0.15,
        "velocity": 0.61,
        "hand": "left"
      },
      {
        "midi": 62,
        "time": 7.65,
        "duration": 0.075,
        "velocity": 0.57,
        "hand": "right"
      },
      {
        "midi": 64,
        "time": 7.65,
        "duration": 0.075,
        "velocity": 0.55,
        "hand": "right"
      },
      {
        "midi": 67,
        "time": 7.65,
        "duration": 0.15,
        "velocity": 0.53,
        "hand": "right"
      },
      {
        "midi": 35,
        "time": 7.8,
        "duration": 0.075,
        "velocity": 0.7,
        "hand": "left"
      },
      {
        "midi": 40,
        "time": 7.8,
        "duration": 0.6,
        "velocity": 0.96,
        "hand": "left"
      },
      {
        "midi": 42,
        "time": 7.8,
        "duration": 0.075,
        "velocity": 0.54,
        "hand": "left"
      },
      {
        "midi": 51,
        "time": 7.8,
        "duration": 0.075,
        "velocity": 0.51,
        "hand": "left"
      },
      {
        "midi": 59,
        "time": 7.8,
        "duration": 0.075,
        "velocity": 0.52,
        "hand": "left"
      },
      {
        "midi": 62,
        "time": 7.8,
        "duration": 0.075,
        "velocity": 0.56,
        "hand": "right"
      },
      {
        "midi": 64,
        "time": 7.8,
        "duration": 0.075,
        "velocity": 0.59,
        "hand": "right"
      },
      {
        "midi": 67,
        "time": 7.8,
        "duration": 0.075,
        "velocity": 0.42,
        "hand": "right"
      },
      {
        "midi": 69,
        "time": 7.8,
        "duration": 0.3,
        "velocity": 0.56,
        "hand": "right"
      },
      {
        "midi": 70,
        "time": 7.8,
        "duration": 0.075,
        "velocity": 0.72,
        "hand": "right"
      },
      {
        "midi": 38,
        "time": 8.1,
        "duration": 0.075,
        "velocity": 0.52,
        "hand": "left"
      },
      {
        "midi": 42,
        "time": 8.1,
        "duration": 0.075,
        "velocity": 0.54,
        "hand": "left"
      },
      {
        "midi": 51,
        "time": 8.1,
        "duration": 0.075,
        "velocity": 0.54,
        "hand": "left"
      },
      {
        "midi": 54,
        "time": 8.1,
        "duration": 0.075,
        "velocity": 0.57,
        "hand": "left"
      },
      {
        "midi": 55,
        "time": 8.1,
        "duration": 0.75,
        "velocity": 0.63,
        "hand": "left"
      },
      {
        "midi": 59,
        "time": 8.1,
        "duration": 0.75,
        "velocity": 0.68,
        "hand": "left"
      },
      {
        "midi": 59,
        "time": 8.1,
        "duration": 0.15,
        "velocity": 0.57,
        "hand": "left"
      },
      {
        "midi": 62,
        "time": 8.1,
        "duration": 0.75,
        "velocity": 0.61,
        "hand": "right"
      },
      {
        "midi": 62,
        "time": 8.1,
        "duration": 0.075,
        "velocity": 0.69,
        "hand": "right"
      },
      {
        "midi": 64,
        "time": 8.1,
        "duration": 0.75,
        "velocity": 0.55,
        "hand": "right"
      },
      {
        "midi": 64,
        "time": 8.1,
        "duration": 0.075,
        "velocity": 0.72,
        "hand": "right"
      },
      {
        "midi": 67,
        "time": 8.1,
        "duration": 0.15,
        "velocity": 0.55,
        "hand": "right"
      },
      {
        "midi": 67,
        "time": 8.1,
        "duration": 0.9,
        "velocity": 0.54,
        "hand": "right"
      },
      {
        "midi": 70,
        "time": 8.1,
        "duration": 0.075,
        "velocity": 0.58,
        "hand": "right"
      },
      {
        "midi": 35,
        "time": 8.4,
        "duration": 0.6,
        "velocity": 0.96,
        "hand": "left"
      },
      {
        "midi": 35,
        "time": 8.4,
        "duration": 0.075,
        "velocity": 0.51,
        "hand": "left"
      },
      {
        "midi": 42,
        "time": 8.4,
        "duration": 0.075,
        "velocity": 0.57,
        "hand": "left"
      },
      {
        "midi": 51,
        "time": 8.4,
        "duration": 0.075,
        "velocity": 0.56,
        "hand": "left"
      },
      {
        "midi": 70,
        "time": 8.4,
        "duration": 0.075,
        "velocity": 0.72,
        "hand": "right"
      },
      {
        "midi": 38,
        "time": 8.7,
        "duration": 0.075,
        "velocity": 0.57,
        "hand": "left"
      },
      {
        "midi": 42,
        "time": 8.7,
        "duration": 0.075,
        "velocity": 0.58,
        "hand": "left"
      },
      {
        "midi": 51,
        "time": 8.7,
        "duration": 0.075,
        "velocity": 0.54,
        "hand": "left"
      },
      {
        "midi": 54,
        "time": 8.7,
        "duration": 0.075,
        "velocity": 0.52,
        "hand": "left"
      },
      {
        "midi": 59,
        "time": 8.7,
        "duration": 0.075,
        "velocity": 0.63,
        "hand": "left"
      },
      {
        "midi": 62,
        "time": 8.7,
        "duration": 0.075,
        "velocity": 0.68,
        "hand": "right"
      },
      {
        "midi": 64,
        "time": 8.7,
        "duration": 0.075,
        "velocity": 0.58,
        "hand": "right"
      },
      {
        "midi": 67,
        "time": 8.7,
        "duration": 0.075,
        "velocity": 0.54,
        "hand": "right"
      },
      {
        "midi": 35,
        "time": 9,
        "duration": 0.075,
        "velocity": 0.72,
        "hand": "left"
      },
      {
        "midi": 40,
        "time": 9,
        "duration": 0.45,
        "velocity": 0.96,
        "hand": "left"
      },
      {
        "midi": 42,
        "time": 9,
        "duration": 0.075,
        "velocity": 0.54,
        "hand": "left"
      },
      {
        "midi": 51,
        "time": 9,
        "duration": 0.075,
        "velocity": 0.57,
        "hand": "left"
      },
      {
        "midi": 55,
        "time": 9,
        "duration": 0.3,
        "velocity": 0.58,
        "hand": "left"
      },
      {
        "midi": 59,
        "time": 9,
        "duration": 0.3,
        "velocity": 0.69,
        "hand": "left"
      },
      {
        "midi": 59,
        "time": 9,
        "duration": 0.15,
        "velocity": 0.72,
        "hand": "left"
      },
      {
        "midi": 62,
        "time": 9,
        "duration": 0.45,
        "velocity": 0.56,
        "hand": "right"
      },
      {
        "midi": 62,
        "time": 9,
        "duration": 0.075,
        "velocity": 0.72,
        "hand": "right"
      },
      {
        "midi": 64,
        "time": 9,
        "duration": 0.45,
        "velocity": 0.54,
        "hand": "right"
      },
      {
        "midi": 64,
        "time": 9,
        "duration": 0.075,
        "velocity": 0.69,
        "hand": "right"
      },
      {
        "midi": 67,
        "time": 9,
        "duration": 0.15,
        "velocity": 0.57,
        "hand": "right"
      },
      {
        "midi": 38,
        "time": 9.3,
        "duration": 0.075,
        "velocity": 0.56,
        "hand": "left"
      },
      {
        "midi": 42,
        "time": 9.3,
        "duration": 0.075,
        "velocity": 0.5,
        "hand": "left"
      },
      {
        "midi": 51,
        "time": 9.3,
        "duration": 0.075,
        "velocity": 0.56,
        "hand": "left"
      },
      {
        "midi": 54,
        "time": 9.3,
        "duration": 0.075,
        "velocity": 0.55,
        "hand": "left"
      },
      {
        "midi": 59,
        "time": 9.3,
        "duration": 0.15,
        "velocity": 0.54,
        "hand": "left"
      },
      {
        "midi": 62,
        "time": 9.3,
        "duration": 0.15,
        "velocity": 0.56,
        "hand": "right"
      },
      {
        "midi": 64,
        "time": 9.3,
        "duration": 0.075,
        "velocity": 0.55,
        "hand": "right"
      },
      {
        "midi": 67,
        "time": 9.3,
        "duration": 0.15,
        "velocity": 0.54,
        "hand": "right"
      },
      {
        "midi": 35,
        "time": 9.6,
        "duration": 0.075,
        "velocity": 0.57,
        "hand": "left"
      },
      {
        "midi": 38,
        "time": 9.6,
        "duration": 0.6,
        "velocity": 0.96,
        "hand": "left"
      },
      {
        "midi": 42,
        "time": 9.6,
        "duration": 0.075,
        "velocity": 0.55,
        "hand": "left"
      },
      {
        "midi": 51,
        "time": 9.6,
        "duration": 0.075,
        "velocity": 0.56,
        "hand": "left"
      },
      {
        "midi": 57,
        "time": 9.6,
        "duration": 0.45,
        "velocity": 0.72,
        "hand": "left"
      },
      {
        "midi": 57,
        "time": 9.6,
        "duration": 0.15,
        "velocity": 0.72,
        "hand": "left"
      },
      {
        "midi": 57,
        "time": 9.6,
        "duration": 0.45,
        "velocity": 0.73,
        "hand": "left"
      },
      {
        "midi": 57,
        "time": 9.6,
        "duration": 0.9,
        "velocity": 0.49,
        "hand": "left"
      },
      {
        "midi": 57,
        "time": 9.6,
        "duration": 0.45,
        "velocity": 0.73,
        "hand": "left"
      },
      {
        "midi": 60,
        "time": 9.6,
        "duration": 0.45,
        "velocity": 0.7,
        "hand": "right"
      },
      {
        "midi": 60,
        "time": 9.6,
        "duration": 0.9,
        "velocity": 0.5,
        "hand": "right"
      },
      {
        "midi": 62,
        "time": 9.6,
        "duration": 0.15,
        "velocity": 0.72,
        "hand": "right"
      },
      {
        "midi": 62,
        "time": 9.6,
        "duration": 1.2,
        "velocity": 0.51,
        "hand": "right"
      },
      {
        "midi": 62,
        "time": 9.6,
        "duration": 1.05,
        "velocity": 0.56,
        "hand": "right"
      },
      {
        "midi": 65,
        "time": 9.6,
        "duration": 0.6,
        "velocity": 0.68,
        "hand": "right"
      },
      {
        "midi": 65,
        "time": 9.6,
        "duration": 0.15,
        "velocity": 0.7,
        "hand": "right"
      },
      {
        "midi": 65,
        "time": 9.6,
        "duration": 1.05,
        "velocity": 0.5,
        "hand": "right"
      },
      {
        "midi": 69,
        "time": 9.6,
        "duration": 1.05,
        "velocity": 0.63,
        "hand": "right"
      },
      {
        "midi": 72,
        "time": 9.6,
        "duration": 1.05,
        "velocity": 0.56,
        "hand": "right"
      },
      {
        "midi": 38,
        "time": 9.9,
        "duration": 0.075,
        "velocity": 0.54,
        "hand": "left"
      },
      {
        "midi": 42,
        "time": 9.9,
        "duration": 0.075,
        "velocity": 0.54,
        "hand": "left"
      },
      {
        "midi": 51,
        "time": 9.9,
        "duration": 0.075,
        "velocity": 0.54,
        "hand": "left"
      },
      {
        "midi": 54,
        "time": 9.9,
        "duration": 0.075,
        "velocity": 0.55,
        "hand": "left"
      },
      {
        "midi": 70,
        "time": 9.9,
        "duration": 0.075,
        "velocity": 0.73,
        "hand": "right"
      },
      {
        "midi": 57,
        "time": 10.05,
        "duration": 0.15,
        "velocity": 0.63,
        "hand": "left"
      },
      {
        "midi": 62,
        "time": 10.05,
        "duration": 0.075,
        "velocity": 0.72,
        "hand": "right"
      },
      {
        "midi": 65,
        "time": 10.05,
        "duration": 0.075,
        "velocity": 0.57,
        "hand": "right"
      },
      {
        "midi": 33,
        "time": 10.2,
        "duration": 0.6,
        "velocity": 0.96,
        "hand": "left"
      },
      {
        "midi": 35,
        "time": 10.2,
        "duration": 0.075,
        "velocity": 0.68,
        "hand": "left"
      },
      {
        "midi": 42,
        "time": 10.2,
        "duration": 0.075,
        "velocity": 0.53,
        "hand": "left"
      },
      {
        "midi": 51,
        "time": 10.2,
        "duration": 0.075,
        "velocity": 0.54,
        "hand": "left"
      },
      {
        "midi": 57,
        "time": 10.2,
        "duration": 0.45,
        "velocity": 0.74,
        "hand": "left"
      },
      {
        "midi": 57,
        "time": 10.2,
        "duration": 0.15,
        "velocity": 0.54,
        "hand": "left"
      },
      {
        "midi": 60,
        "time": 10.2,
        "duration": 0.45,
        "velocity": 0.78,
        "hand": "right"
      },
      {
        "midi": 62,
        "time": 10.2,
        "duration": 0.075,
        "velocity": 0.68,
        "hand": "right"
      },
      {
        "midi": 65,
        "time": 10.2,
        "duration": 0.6,
        "velocity": 0.7,
        "hand": "right"
      },
      {
        "midi": 65,
        "time": 10.2,
        "duration": 0.15,
        "velocity": 0.49,
        "hand": "right"
      },
      {
        "midi": 69,
        "time": 10.2,
        "duration": 0.3,
        "velocity": 0.56,
        "hand": "right"
      },
      {
        "midi": 70,
        "time": 10.2,
        "duration": 0.075,
        "velocity": 0.72,
        "hand": "right"
      },
      {
        "midi": 38,
        "time": 10.5,
        "duration": 0.075,
        "velocity": 0.56,
        "hand": "left"
      },
      {
        "midi": 42,
        "time": 10.5,
        "duration": 0.075,
        "velocity": 0.57,
        "hand": "left"
      },
      {
        "midi": 51,
        "time": 10.5,
        "duration": 0.075,
        "velocity": 0.54,
        "hand": "left"
      },
      {
        "midi": 54,
        "time": 10.5,
        "duration": 0.075,
        "velocity": 0.54,
        "hand": "left"
      },
      {
        "midi": 57,
        "time": 10.5,
        "duration": 0.15,
        "velocity": 0.73,
        "hand": "left"
      },
      {
        "midi": 62,
        "time": 10.5,
        "duration": 0.15,
        "velocity": 0.75,
        "hand": "right"
      },
      {
        "midi": 65,
        "time": 10.5,
        "duration": 0.15,
        "velocity": 0.64,
        "hand": "right"
      },
      {
        "midi": 67,
        "time": 10.5,
        "duration": 0.6,
        "velocity": 0.5,
        "hand": "right"
      },
      {
        "midi": 70,
        "time": 10.5,
        "duration": 0.075,
        "velocity": 0.72,
        "hand": "right"
      },
      {
        "midi": 31,
        "time": 10.8,
        "duration": 0.6,
        "velocity": 0.96,
        "hand": "left"
      },
      {
        "midi": 35,
        "time": 10.8,
        "duration": 0.075,
        "velocity": 0.69,
        "hand": "left"
      },
      {
        "midi": 42,
        "time": 10.8,
        "duration": 0.075,
        "velocity": 0.68,
        "hand": "left"
      },
      {
        "midi": 51,
        "time": 10.8,
        "duration": 0.075,
        "velocity": 0.58,
        "hand": "left"
      },
      {
        "midi": 55,
        "time": 10.8,
        "duration": 0.45,
        "velocity": 0.68,
        "hand": "left"
      },
      {
        "midi": 55,
        "time": 10.8,
        "duration": 0.15,
        "velocity": 0.61,
        "hand": "left"
      },
      {
        "midi": 55,
        "time": 10.8,
        "duration": 0.9,
        "velocity": 0.5,
        "hand": "left"
      },
      {
        "midi": 59,
        "time": 10.8,
        "duration": 0.45,
        "velocity": 0.57,
        "hand": "left"
      },
      {
        "midi": 59,
        "time": 10.8,
        "duration": 0.15,
        "velocity": 0.58,
        "hand": "left"
      },
      {
        "midi": 59,
        "time": 10.8,
        "duration": 0.9,
        "velocity": 0.56,
        "hand": "left"
      },
      {
        "midi": 62,
        "time": 10.8,
        "duration": 0.6,
        "velocity": 0.54,
        "hand": "right"
      },
      {
        "midi": 62,
        "time": 10.8,
        "duration": 0.15,
        "velocity": 0.58,
        "hand": "right"
      },
      {
        "midi": 62,
        "time": 10.8,
        "duration": 0.9,
        "velocity": 0.49,
        "hand": "right"
      },
      {
        "midi": 65,
        "time": 10.8,
        "duration": 0.6,
        "velocity": 0.46,
        "hand": "right"
      },
      {
        "midi": 65,
        "time": 10.8,
        "duration": 0.15,
        "velocity": 0.54,
        "hand": "right"
      },
      {
        "midi": 65,
        "time": 10.8,
        "duration": 0.9,
        "velocity": 0.5,
        "hand": "right"
      },
      {
        "midi": 67,
        "time": 10.8,
        "duration": 1.05,
        "velocity": 0.61,
        "hand": "right"
      },
      {
        "midi": 70,
        "time": 10.8,
        "duration": 0.075,
        "velocity": 0.73,
        "hand": "right"
      },
      {
        "midi": 71,
        "time": 10.8,
        "duration": 1.05,
        "velocity": 0.57,
        "hand": "right"
      },
      {
        "midi": 38,
        "time": 11.1,
        "duration": 0.075,
        "velocity": 0.56,
        "hand": "left"
      },
      {
        "midi": 42,
        "time": 11.1,
        "duration": 0.075,
        "velocity": 0.61,
        "hand": "left"
      },
      {
        "midi": 51,
        "time": 11.1,
        "duration": 0.075,
        "velocity": 0.56,
        "hand": "left"
      },
      {
        "midi": 54,
        "time": 11.1,
        "duration": 0.075,
        "velocity": 0.55,
        "hand": "left"
      },
      {
        "midi": 55,
        "time": 11.1,
        "duration": 0.15,
        "velocity": 0.53,
        "hand": "left"
      },
      {
        "midi": 59,
        "time": 11.1,
        "duration": 0.15,
        "velocity": 0.55,
        "hand": "left"
      },
      {
        "midi": 62,
        "time": 11.1,
        "duration": 0.075,
        "velocity": 0.52,
        "hand": "right"
      },
      {
        "midi": 65,
        "time": 11.1,
        "duration": 0.15,
        "velocity": 0.54,
        "hand": "right"
      },
      {
        "midi": 65,
        "time": 11.1,
        "duration": 0.3,
        "velocity": 0.52,
        "hand": "right"
      },
      {
        "midi": 35,
        "time": 11.4,
        "duration": 0.075,
        "velocity": 0.57,
        "hand": "left"
      },
      {
        "midi": 38,
        "time": 11.4,
        "duration": 0.45,
        "velocity": 0.96,
        "hand": "left"
      },
      {
        "midi": 42,
        "time": 11.4,
        "duration": 0.075,
        "velocity": 0.61,
        "hand": "left"
      },
      {
        "midi": 51,
        "time": 11.4,
        "duration": 0.075,
        "velocity": 0.49,
        "hand": "left"
      },
      {
        "midi": 55,
        "time": 11.4,
        "duration": 0.45,
        "velocity": 0.54,
        "hand": "left"
      },
      {
        "midi": 55,
        "time": 11.4,
        "duration": 0.15,
        "velocity": 0.61,
        "hand": "left"
      },
      {
        "midi": 59,
        "time": 11.4,
        "duration": 0.3,
        "velocity": 0.55,
        "hand": "left"
      },
      {
        "midi": 59,
        "time": 11.4,
        "duration": 0.15,
        "velocity": 0.64,
        "hand": "left"
      },
      {
        "midi": 62,
        "time": 11.4,
        "duration": 0.3,
        "velocity": 0.54,
        "hand": "right"
      },
      {
        "midi": 62,
        "time": 11.4,
        "duration": 0.15,
        "velocity": 0.58,
        "hand": "right"
      },
      {
        "midi": 64,
        "time": 11.4,
        "duration": 0.3,
        "velocity": 0.57,
        "hand": "right"
      },
      {
        "midi": 65,
        "time": 11.4,
        "duration": 0.3,
        "velocity": 0.52,
        "hand": "right"
      },
      {
        "midi": 65,
        "time": 11.4,
        "duration": 0.15,
        "velocity": 0.57,
        "hand": "right"
      },
      {
        "midi": 38,
        "time": 11.7,
        "duration": 0.075,
        "velocity": 0.57,
        "hand": "left"
      },
      {
        "midi": 42,
        "time": 11.7,
        "duration": 0.075,
        "velocity": 0.58,
        "hand": "left"
      },
      {
        "midi": 51,
        "time": 11.7,
        "duration": 0.075,
        "velocity": 0.54,
        "hand": "left"
      },
      {
        "midi": 54,
        "time": 11.7,
        "duration": 0.075,
        "velocity": 0.54,
        "hand": "left"
      },
      {
        "midi": 55,
        "time": 11.7,
        "duration": 0.15,
        "velocity": 0.57,
        "hand": "left"
      },
      {
        "midi": 59,
        "time": 11.7,
        "duration": 0.075,
        "velocity": 0.61,
        "hand": "left"
      },
      {
        "midi": 62,
        "time": 11.7,
        "duration": 0.15,
        "velocity": 0.57,
        "hand": "right"
      },
      {
        "midi": 62,
        "time": 11.7,
        "duration": 0.3,
        "velocity": 0.54,
        "hand": "right"
      },
      {
        "midi": 65,
        "time": 11.7,
        "duration": 0.15,
        "velocity": 0.52,
        "hand": "right"
      },
      {
        "midi": 35,
        "time": 12,
        "duration": 0.075,
        "velocity": 0.7,
        "hand": "left"
      },
      {
        "midi": 36,
        "time": 12,
        "duration": 0.6,
        "velocity": 0.96,
        "hand": "left"
      },
      {
        "midi": 42,
        "time": 12,
        "duration": 0.075,
        "velocity": 0.55,
        "hand": "left"
      },
      {
        "midi": 51,
        "time": 12,
        "duration": 0.075,
        "velocity": 0.53,
        "hand": "left"
      },
      {
        "midi": 55,
        "time": 12,
        "duration": 0.6,
        "velocity": 0.54,
        "hand": "left"
      },
      {
        "midi": 55,
        "time": 12,
        "duration": 0.15,
        "velocity": 0.68,
        "hand": "left"
      },
      {
        "midi": 55,
        "time": 12,
        "duration": 0.75,
        "velocity": 0.4,
        "hand": "left"
      },
      {
        "midi": 60,
        "time": 12,
        "duration": 0.6,
        "velocity": 0.57,
        "hand": "right"
      },
      {
        "midi": 60,
        "time": 12,
        "duration": 0.15,
        "velocity": 0.73,
        "hand": "right"
      },
      {
        "midi": 60,
        "time": 12,
        "duration": 0.9,
        "velocity": 0.46,
        "hand": "right"
      },
      {
        "midi": 64,
        "time": 12,
        "duration": 0.6,
        "velocity": 0.56,
        "hand": "right"
      },
      {
        "midi": 64,
        "time": 12,
        "duration": 0.15,
        "velocity": 0.72,
        "hand": "right"
      },
      {
        "midi": 64,
        "time": 12,
        "duration": 1.5,
        "velocity": 0.52,
        "hand": "right"
      },
      {
        "midi": 64,
        "time": 12,
        "duration": 0.9,
        "velocity": 0.39,
        "hand": "right"
      },
      {
        "midi": 64,
        "time": 12,
        "duration": 1.5,
        "velocity": 0.52,
        "hand": "right"
      },
      {
        "midi": 67,
        "time": 12,
        "duration": 0.9,
        "velocity": 0.7,
        "hand": "right"
      },
      {
        "midi": 72,
        "time": 12,
        "duration": 1.05,
        "velocity": 0.69,
        "hand": "right"
      },
      {
        "midi": 38,
        "time": 12.3,
        "duration": 0.075,
        "velocity": 0.57,
        "hand": "left"
      },
      {
        "midi": 42,
        "time": 12.3,
        "duration": 0.075,
        "velocity": 0.61,
        "hand": "left"
      },
      {
        "midi": 51,
        "time": 12.3,
        "duration": 0.075,
        "velocity": 0.61,
        "hand": "left"
      },
      {
        "midi": 54,
        "time": 12.3,
        "duration": 0.075,
        "velocity": 0.57,
        "hand": "left"
      },
      {
        "midi": 70,
        "time": 12.3,
        "duration": 0.075,
        "velocity": 0.7,
        "hand": "right"
      },
      {
        "midi": 55,
        "time": 12.45,
        "duration": 0.15,
        "velocity": 0.57,
        "hand": "left"
      },
      {
        "midi": 60,
        "time": 12.45,
        "duration": 0.075,
        "velocity": 0.64,
        "hand": "right"
      },
      {
        "midi": 64,
        "time": 12.45,
        "duration": 0.15,
        "velocity": 0.59,
        "hand": "right"
      },
      {
        "midi": 31,
        "time": 12.6,
        "duration": 0.3,
        "velocity": 0.96,
        "hand": "left"
      },
      {
        "midi": 35,
        "time": 12.6,
        "duration": 0.075,
        "velocity": 0.73,
        "hand": "left"
      },
      {
        "midi": 42,
        "time": 12.6,
        "duration": 0.075,
        "velocity": 0.57,
        "hand": "left"
      },
      {
        "midi": 51,
        "time": 12.6,
        "duration": 0.075,
        "velocity": 0.53,
        "hand": "left"
      },
      {
        "midi": 55,
        "time": 12.6,
        "duration": 0.15,
        "velocity": 0.4,
        "hand": "left"
      },
      {
        "midi": 60,
        "time": 12.6,
        "duration": 0.3,
        "velocity": 0.56,
        "hand": "right"
      },
      {
        "midi": 60,
        "time": 12.6,
        "duration": 0.15,
        "velocity": 0.54,
        "hand": "right"
      },
      {
        "midi": 64,
        "time": 12.6,
        "duration": 0.3,
        "velocity": 0.52,
        "hand": "right"
      },
      {
        "midi": 64,
        "time": 12.6,
        "duration": 0.15,
        "velocity": 0.54,
        "hand": "right"
      },
      {
        "midi": 70,
        "time": 12.6,
        "duration": 0.075,
        "velocity": 0.63,
        "hand": "right"
      },
      {
        "midi": 36,
        "time": 12.9,
        "duration": 0.3,
        "velocity": 0.96,
        "hand": "left"
      },
      {
        "midi": 38,
        "time": 12.9,
        "duration": 0.075,
        "velocity": 0.55,
        "hand": "left"
      },
      {
        "midi": 42,
        "time": 12.9,
        "duration": 0.075,
        "velocity": 0.56,
        "hand": "left"
      },
      {
        "midi": 51,
        "time": 12.9,
        "duration": 0.075,
        "velocity": 0.57,
        "hand": "left"
      },
      {
        "midi": 54,
        "time": 12.9,
        "duration": 0.075,
        "velocity": 0.5,
        "hand": "left"
      },
      {
        "midi": 55,
        "time": 12.9,
        "duration": 0.15,
        "velocity": 0.65,
        "hand": "left"
      },
      {
        "midi": 60,
        "time": 12.9,
        "duration": 0.075,
        "velocity": 0.7,
        "hand": "right"
      },
      {
        "midi": 64,
        "time": 12.9,
        "duration": 0.15,
        "velocity": 0.7,
        "hand": "right"
      },
      {
        "midi": 70,
        "time": 12.9,
        "duration": 0.075,
        "velocity": 0.56,
        "hand": "right"
      },
      {
        "midi": 35,
        "time": 13.2,
        "duration": 0.075,
        "velocity": 0.72,
        "hand": "left"
      },
      {
        "midi": 38,
        "time": 13.2,
        "duration": 0.6,
        "velocity": 0.96,
        "hand": "left"
      },
      {
        "midi": 40,
        "time": 13.2,
        "duration": 0.3,
        "velocity": 0.96,
        "hand": "left"
      },
      {
        "midi": 42,
        "time": 13.2,
        "duration": 0.075,
        "velocity": 0.54,
        "hand": "left"
      },
      {
        "midi": 50,
        "time": 13.2,
        "duration": 0.15,
        "velocity": 0.63,
        "hand": "left"
      },
      {
        "midi": 51,
        "time": 13.2,
        "duration": 0.075,
        "velocity": 0.46,
        "hand": "left"
      },
      {
        "midi": 57,
        "time": 13.2,
        "duration": 0.3,
        "velocity": 0.72,
        "hand": "left"
      },
      {
        "midi": 57,
        "time": 13.2,
        "duration": 0.15,
        "velocity": 0.57,
        "hand": "left"
      },
      {
        "midi": 57,
        "time": 13.2,
        "duration": 0.3,
        "velocity": 0.47,
        "hand": "left"
      },
      {
        "midi": 60,
        "time": 13.2,
        "duration": 0.3,
        "velocity": 0.74,
        "hand": "right"
      },
      {
        "midi": 60,
        "time": 13.2,
        "duration": 0.15,
        "velocity": 0.7,
        "hand": "right"
      },
      {
        "midi": 60,
        "time": 13.2,
        "duration": 0.3,
        "velocity": 0.52,
        "hand": "right"
      },
      {
        "midi": 62,
        "time": 13.2,
        "duration": 0.3,
        "velocity": 0.72,
        "hand": "right"
      },
      {
        "midi": 62,
        "time": 13.2,
        "duration": 0.15,
        "velocity": 0.63,
        "hand": "right"
      },
      {
        "midi": 62,
        "time": 13.2,
        "duration": 0.45,
        "velocity": 0.49,
        "hand": "right"
      },
      {
        "midi": 62,
        "time": 13.2,
        "duration": 0.6,
        "velocity": 0.55,
        "hand": "right"
      },
      {
        "midi": 65,
        "time": 13.2,
        "duration": 0.3,
        "velocity": 0.64,
        "hand": "right"
      },
      {
        "midi": 65,
        "time": 13.2,
        "duration": 0.15,
        "velocity": 0.59,
        "hand": "right"
      },
      {
        "midi": 65,
        "time": 13.2,
        "duration": 0.45,
        "velocity": 0.46,
        "hand": "right"
      },
      {
        "midi": 69,
        "time": 13.2,
        "duration": 0.45,
        "velocity": 0.56,
        "hand": "right"
      },
      {
        "midi": 70,
        "time": 13.2,
        "duration": 0.075,
        "velocity": 0.73,
        "hand": "right"
      },
      {
        "midi": 72,
        "time": 13.2,
        "duration": 0.45,
        "velocity": 0.54,
        "hand": "right"
      },
      {
        "midi": 48,
        "time": 13.35,
        "duration": 0.15,
        "velocity": 0.54,
        "hand": "left"
      },
      {
        "midi": 38,
        "time": 13.5,
        "duration": 0.075,
        "velocity": 0.56,
        "hand": "left"
      },
      {
        "midi": 42,
        "time": 13.5,
        "duration": 0.075,
        "velocity": 0.46,
        "hand": "left"
      },
      {
        "midi": 51,
        "time": 13.5,
        "duration": 0.075,
        "velocity": 0.52,
        "hand": "left"
      },
      {
        "midi": 54,
        "time": 13.5,
        "duration": 0.075,
        "velocity": 0.56,
        "hand": "left"
      },
      {
        "midi": 57,
        "time": 13.5,
        "duration": 0.15,
        "velocity": 0.54,
        "hand": "left"
      },
      {
        "midi": 60,
        "time": 13.5,
        "duration": 0.15,
        "velocity": 0.57,
        "hand": "right"
      },
      {
        "midi": 62,
        "time": 13.5,
        "duration": 0.15,
        "velocity": 0.57,
        "hand": "right"
      },
      {
        "midi": 65,
        "time": 13.5,
        "duration": 0.3,
        "velocity": 0.54,
        "hand": "right"
      },
      {
        "midi": 65,
        "time": 13.5,
        "duration": 0.15,
        "velocity": 0.57,
        "hand": "right"
      },
      {
        "midi": 47,
        "time": 13.65,
        "duration": 0.15,
        "velocity": 0.63,
        "hand": "left"
      },
      {
        "midi": 31,
        "time": 13.8,
        "duration": 0.45,
        "velocity": 0.96,
        "hand": "left"
      },
      {
        "midi": 35,
        "time": 13.8,
        "duration": 0.075,
        "velocity": 0.7,
        "hand": "left"
      },
      {
        "midi": 42,
        "time": 13.8,
        "duration": 0.075,
        "velocity": 0.5,
        "hand": "left"
      },
      {
        "midi": 45,
        "time": 13.8,
        "duration": 0.15,
        "velocity": 0.63,
        "hand": "left"
      },
      {
        "midi": 51,
        "time": 13.8,
        "duration": 0.075,
        "velocity": 0.54,
        "hand": "left"
      },
      {
        "midi": 55,
        "time": 13.8,
        "duration": 0.3,
        "velocity": 0.69,
        "hand": "left"
      },
      {
        "midi": 55,
        "time": 13.8,
        "duration": 0.15,
        "velocity": 0.68,
        "hand": "left"
      },
      {
        "midi": 55,
        "time": 13.8,
        "duration": 0.3,
        "velocity": 0.49,
        "hand": "left"
      },
      {
        "midi": 59,
        "time": 13.8,
        "duration": 0.3,
        "velocity": 0.73,
        "hand": "left"
      },
      {
        "midi": 59,
        "time": 13.8,
        "duration": 0.15,
        "velocity": 0.72,
        "hand": "left"
      },
      {
        "midi": 59,
        "time": 13.8,
        "duration": 0.3,
        "velocity": 0.56,
        "hand": "left"
      },
      {
        "midi": 62,
        "time": 13.8,
        "duration": 0.3,
        "velocity": 0.65,
        "hand": "right"
      },
      {
        "midi": 62,
        "time": 13.8,
        "duration": 0.15,
        "velocity": 0.61,
        "hand": "right"
      },
      {
        "midi": 62,
        "time": 13.8,
        "duration": 0.3,
        "velocity": 0.42,
        "hand": "right"
      },
      {
        "midi": 65,
        "time": 13.8,
        "duration": 0.3,
        "velocity": 0.51,
        "hand": "right"
      },
      {
        "midi": 65,
        "time": 13.8,
        "duration": 0.15,
        "velocity": 0.57,
        "hand": "right"
      },
      {
        "midi": 65,
        "time": 13.8,
        "duration": 0.3,
        "velocity": 0.49,
        "hand": "right"
      },
      {
        "midi": 67,
        "time": 13.8,
        "duration": 0.3,
        "velocity": 0.55,
        "hand": "right"
      },
      {
        "midi": 71,
        "time": 13.8,
        "duration": 0.45,
        "velocity": 0.51,
        "hand": "right"
      },
      {
        "midi": 38,
        "time": 14.1,
        "duration": 0.075,
        "velocity": 0.53,
        "hand": "left"
      },
      {
        "midi": 42,
        "time": 14.1,
        "duration": 0.075,
        "velocity": 0.54,
        "hand": "left"
      },
      {
        "midi": 43,
        "time": 14.1,
        "duration": 0.15,
        "velocity": 0.69,
        "hand": "left"
      },
      {
        "midi": 51,
        "time": 14.1,
        "duration": 0.075,
        "velocity": 0.54,
        "hand": "left"
      },
      {
        "midi": 54,
        "time": 14.1,
        "duration": 0.075,
        "velocity": 0.57,
        "hand": "left"
      },
      {
        "midi": 55,
        "time": 14.1,
        "duration": 0.15,
        "velocity": 0.55,
        "hand": "left"
      },
      {
        "midi": 59,
        "time": 14.1,
        "duration": 0.15,
        "velocity": 0.57,
        "hand": "left"
      },
      {
        "midi": 62,
        "time": 14.1,
        "duration": 0.15,
        "velocity": 0.57,
        "hand": "right"
      },
      {
        "midi": 65,
        "time": 14.1,
        "duration": 0.15,
        "velocity": 0.54,
        "hand": "right"
      },
      {
        "midi": 35,
        "time": 14.4,
        "duration": 0.075,
        "velocity": 0.69,
        "hand": "left"
      },
      {
        "midi": 36,
        "time": 14.4,
        "duration": 0.6,
        "velocity": 0.96,
        "hand": "left"
      },
      {
        "midi": 42,
        "time": 14.4,
        "duration": 0.075,
        "velocity": 0.54,
        "hand": "left"
      },
      {
        "midi": 49,
        "time": 14.4,
        "duration": 0.075,
        "velocity": 0.79,
        "hand": "left"
      },
      {
        "midi": 51,
        "time": 14.4,
        "duration": 0.075,
        "velocity": 0.51,
        "hand": "left"
      },
      {
        "midi": 55,
        "time": 14.4,
        "duration": 0.75,
        "velocity": 0.64,
        "hand": "left"
      },
      {
        "midi": 55,
        "time": 14.4,
        "duration": 2.25,
        "velocity": 0.4,
        "hand": "left"
      },
      {
        "midi": 57,
        "time": 14.4,
        "duration": 0.15,
        "velocity": 0.63,
        "hand": "left"
      },
      {
        "midi": 60,
        "time": 14.4,
        "duration": 0.75,
        "velocity": 0.74,
        "hand": "right"
      },
      {
        "midi": 60,
        "time": 14.4,
        "duration": 0.6,
        "velocity": 0.69,
        "hand": "right"
      },
      {
        "midi": 60,
        "time": 14.4,
        "duration": 2.25,
        "velocity": 0.49,
        "hand": "right"
      },
      {
        "midi": 60,
        "time": 14.4,
        "duration": 1.65,
        "velocity": 0.63,
        "hand": "right"
      },
      {
        "midi": 60,
        "time": 14.4,
        "duration": 0.6,
        "velocity": 0.69,
        "hand": "right"
      },
      {
        "midi": 62,
        "time": 14.4,
        "duration": 0.15,
        "velocity": 0.61,
        "hand": "right"
      },
      {
        "midi": 64,
        "time": 14.4,
        "duration": 0.75,
        "velocity": 0.69,
        "hand": "right"
      },
      {
        "midi": 64,
        "time": 14.4,
        "duration": 2.25,
        "velocity": 0.48,
        "hand": "right"
      },
      {
        "midi": 64,
        "time": 14.4,
        "duration": 1.65,
        "velocity": 0.72,
        "hand": "right"
      },
      {
        "midi": 67,
        "time": 14.4,
        "duration": 0.15,
        "velocity": 0.57,
        "hand": "right"
      },
      {
        "midi": 67,
        "time": 14.4,
        "duration": 1.65,
        "velocity": 0.63,
        "hand": "right"
      },
      {
        "midi": 38,
        "time": 14.7,
        "duration": 0.075,
        "velocity": 0.54,
        "hand": "left"
      },
      {
        "midi": 42,
        "time": 14.7,
        "duration": 0.075,
        "velocity": 0.57,
        "hand": "left"
      },
      {
        "midi": 51,
        "time": 14.7,
        "duration": 0.075,
        "velocity": 0.55,
        "hand": "left"
      },
      {
        "midi": 54,
        "time": 14.7,
        "duration": 0.075,
        "velocity": 0.54,
        "hand": "left"
      },
      {
        "midi": 70,
        "time": 14.7,
        "duration": 0.075,
        "velocity": 0.72,
        "hand": "right"
      },
      {
        "midi": 57,
        "time": 14.85,
        "duration": 0.15,
        "velocity": 0.57,
        "hand": "left"
      },
      {
        "midi": 62,
        "time": 14.85,
        "duration": 0.075,
        "velocity": 0.61,
        "hand": "right"
      },
      {
        "midi": 67,
        "time": 14.85,
        "duration": 0.15,
        "velocity": 0.54,
        "hand": "right"
      },
      {
        "midi": 31,
        "time": 15,
        "duration": 0.6,
        "velocity": 0.96,
        "hand": "left"
      },
      {
        "midi": 35,
        "time": 15,
        "duration": 0.075,
        "velocity": 0.56,
        "hand": "left"
      },
      {
        "midi": 42,
        "time": 15,
        "duration": 0.075,
        "velocity": 0.57,
        "hand": "left"
      },
      {
        "midi": 51,
        "time": 15,
        "duration": 0.075,
        "velocity": 0.5,
        "hand": "left"
      },
      {
        "midi": 57,
        "time": 15,
        "duration": 0.15,
        "velocity": 0.52,
        "hand": "left"
      },
      {
        "midi": 62,
        "time": 15,
        "duration": 0.075,
        "velocity": 0.64,
        "hand": "right"
      },
      {
        "midi": 64,
        "time": 15,
        "duration": 0.3,
        "velocity": 0.59,
        "hand": "right"
      },
      {
        "midi": 67,
        "time": 15,
        "duration": 0.15,
        "velocity": 0.4,
        "hand": "right"
      },
      {
        "midi": 70,
        "time": 15,
        "duration": 0.075,
        "velocity": 0.69,
        "hand": "right"
      },
      {
        "midi": 38,
        "time": 15.3,
        "duration": 0.075,
        "velocity": 0.55,
        "hand": "left"
      },
      {
        "midi": 42,
        "time": 15.3,
        "duration": 0.075,
        "velocity": 0.54,
        "hand": "left"
      },
      {
        "midi": 51,
        "time": 15.3,
        "duration": 0.075,
        "velocity": 0.54,
        "hand": "left"
      },
      {
        "midi": 54,
        "time": 15.3,
        "duration": 0.075,
        "velocity": 0.64,
        "hand": "left"
      },
      {
        "midi": 55,
        "time": 15.3,
        "duration": 0.75,
        "velocity": 0.63,
        "hand": "left"
      },
      {
        "midi": 57,
        "time": 15.3,
        "duration": 0.15,
        "velocity": 0.68,
        "hand": "left"
      },
      {
        "midi": 60,
        "time": 15.3,
        "duration": 0.75,
        "velocity": 0.7,
        "hand": "right"
      },
      {
        "midi": 62,
        "time": 15.3,
        "duration": 0.075,
        "velocity": 0.73,
        "hand": "right"
      },
      {
        "midi": 64,
        "time": 15.3,
        "duration": 0.075,
        "velocity": 0.54,
        "hand": "right"
      },
      {
        "midi": 67,
        "time": 15.3,
        "duration": 0.75,
        "velocity": 0.73,
        "hand": "right"
      },
      {
        "midi": 67,
        "time": 15.3,
        "duration": 0.15,
        "velocity": 0.59,
        "hand": "right"
      },
      {
        "midi": 67,
        "time": 15.3,
        "duration": 0.6,
        "velocity": 0.51,
        "hand": "right"
      },
      {
        "midi": 70,
        "time": 15.3,
        "duration": 0.075,
        "velocity": 0.7,
        "hand": "right"
      },
      {
        "midi": 35,
        "time": 15.6,
        "duration": 0.075,
        "velocity": 0.56,
        "hand": "left"
      },
      {
        "midi": 36,
        "time": 15.6,
        "duration": 0.45,
        "velocity": 0.96,
        "hand": "left"
      },
      {
        "midi": 42,
        "time": 15.6,
        "duration": 0.075,
        "velocity": 0.65,
        "hand": "left"
      },
      {
        "midi": 51,
        "time": 15.6,
        "duration": 0.075,
        "velocity": 0.57,
        "hand": "left"
      },
      {
        "midi": 70,
        "time": 15.6,
        "duration": 0.075,
        "velocity": 0.72,
        "hand": "right"
      },
      {
        "midi": 38,
        "time": 15.9,
        "duration": 0.075,
        "velocity": 0.54,
        "hand": "left"
      },
      {
        "midi": 42,
        "time": 15.9,
        "duration": 0.075,
        "velocity": 0.58,
        "hand": "left"
      },
      {
        "midi": 51,
        "time": 15.9,
        "duration": 0.075,
        "velocity": 0.54,
        "hand": "left"
      },
      {
        "midi": 54,
        "time": 15.9,
        "duration": 0.075,
        "velocity": 0.56,
        "hand": "left"
      },
      {
        "midi": 57,
        "time": 15.9,
        "duration": 0.15,
        "velocity": 0.57,
        "hand": "left"
      },
      {
        "midi": 62,
        "time": 15.9,
        "duration": 0.15,
        "velocity": 0.7,
        "hand": "right"
      },
      {
        "midi": 64,
        "time": 15.9,
        "duration": 0.3,
        "velocity": 0.57,
        "hand": "right"
      },
      {
        "midi": 67,
        "time": 15.9,
        "duration": 0.15,
        "velocity": 0.56,
        "hand": "right"
      },
      {
        "midi": 31,
        "time": 16.2,
        "duration": 0.45,
        "velocity": 0.96,
        "hand": "left"
      },
      {
        "midi": 35,
        "time": 16.2,
        "duration": 0.075,
        "velocity": 0.61,
        "hand": "left"
      },
      {
        "midi": 42,
        "time": 16.2,
        "duration": 0.075,
        "velocity": 0.55,
        "hand": "left"
      },
      {
        "midi": 51,
        "time": 16.2,
        "duration": 0.075,
        "velocity": 0.61,
        "hand": "left"
      },
      {
        "midi": 55,
        "time": 16.2,
        "duration": 0.15,
        "velocity": 0.56,
        "hand": "left"
      },
      {
        "midi": 57,
        "time": 16.2,
        "duration": 0.15,
        "velocity": 0.61,
        "hand": "left"
      },
      {
        "midi": 60,
        "time": 16.2,
        "duration": 0.15,
        "velocity": 0.64,
        "hand": "right"
      },
      {
        "midi": 60,
        "time": 16.2,
        "duration": 0.45,
        "velocity": 0.51,
        "hand": "right"
      },
      {
        "midi": 62,
        "time": 16.2,
        "duration": 0.075,
        "velocity": 0.72,
        "hand": "right"
      },
      {
        "midi": 62,
        "time": 16.2,
        "duration": 0.3,
        "velocity": 0.49,
        "hand": "right"
      },
      {
        "midi": 64,
        "time": 16.2,
        "duration": 0.15,
        "velocity": 0.63,
        "hand": "right"
      },
      {
        "midi": 64,
        "time": 16.2,
        "duration": 0.45,
        "velocity": 0.55,
        "hand": "right"
      },
      {
        "midi": 67,
        "time": 16.2,
        "duration": 0.15,
        "velocity": 0.54,
        "hand": "right"
      },
      {
        "midi": 69,
        "time": 16.2,
        "duration": 0.45,
        "velocity": 0.57,
        "hand": "right"
      },
      {
        "midi": 38,
        "time": 16.5,
        "duration": 0.075,
        "velocity": 0.56,
        "hand": "left"
      },
      {
        "midi": 42,
        "time": 16.5,
        "duration": 0.075,
        "velocity": 0.55,
        "hand": "left"
      },
      {
        "midi": 51,
        "time": 16.5,
        "duration": 0.075,
        "velocity": 0.56,
        "hand": "left"
      },
      {
        "midi": 54,
        "time": 16.5,
        "duration": 0.075,
        "velocity": 0.58,
        "hand": "left"
      },
      {
        "midi": 57,
        "time": 16.5,
        "duration": 0.15,
        "velocity": 0.54,
        "hand": "left"
      },
      {
        "midi": 60,
        "time": 16.5,
        "duration": 0.15,
        "velocity": 0.54,
        "hand": "right"
      },
      {
        "midi": 62,
        "time": 16.5,
        "duration": 0.15,
        "velocity": 0.61,
        "hand": "right"
      },
      {
        "midi": 67,
        "time": 16.5,
        "duration": 0.15,
        "velocity": 0.51,
        "hand": "right"
      },
      {
        "midi": 35,
        "time": 16.8,
        "duration": 0.6,
        "velocity": 0.96,
        "hand": "left"
      },
      {
        "midi": 35,
        "time": 16.8,
        "duration": 0.075,
        "velocity": 0.59,
        "hand": "left"
      },
      {
        "midi": 42,
        "time": 16.8,
        "duration": 0.075,
        "velocity": 0.54,
        "hand": "left"
      },
      {
        "midi": 55,
        "time": 16.8,
        "duration": 1.95,
        "velocity": 0.4,
        "hand": "left"
      },
      {
        "midi": 59,
        "time": 16.8,
        "duration": 0.15,
        "velocity": 0.58,
        "hand": "left"
      },
      {
        "midi": 59,
        "time": 16.8,
        "duration": 0.45,
        "velocity": 0.57,
        "hand": "left"
      },
      {
        "midi": 59,
        "time": 16.8,
        "duration": 1.95,
        "velocity": 0.54,
        "hand": "left"
      },
      {
        "midi": 59,
        "time": 16.8,
        "duration": 0.45,
        "velocity": 0.57,
        "hand": "left"
      },
      {
        "midi": 60,
        "time": 16.8,
        "duration": 1.65,
        "velocity": 0.55,
        "hand": "right"
      },
      {
        "midi": 62,
        "time": 16.8,
        "duration": 0.75,
        "velocity": 0.69,
        "hand": "right"
      },
      {
        "midi": 62,
        "time": 16.8,
        "duration": 0.15,
        "velocity": 0.61,
        "hand": "right"
      },
      {
        "midi": 64,
        "time": 16.8,
        "duration": 0.75,
        "velocity": 0.7,
        "hand": "right"
      },
      {
        "midi": 64,
        "time": 16.8,
        "duration": 0.15,
        "velocity": 0.61,
        "hand": "right"
      },
      {
        "midi": 64,
        "time": 16.8,
        "duration": 1.95,
        "velocity": 0.29,
        "hand": "right"
      },
      {
        "midi": 64,
        "time": 16.8,
        "duration": 1.8,
        "velocity": 0.54,
        "hand": "right"
      },
      {
        "midi": 67,
        "time": 16.8,
        "duration": 0.75,
        "velocity": 0.61,
        "hand": "right"
      },
      {
        "midi": 67,
        "time": 16.8,
        "duration": 0.15,
        "velocity": 0.56,
        "hand": "right"
      },
      {
        "midi": 67,
        "time": 16.8,
        "duration": 1.8,
        "velocity": 0.56,
        "hand": "right"
      },
      {
        "midi": 71,
        "time": 16.8,
        "duration": 0.75,
        "velocity": 0.65,
        "hand": "right"
      },
      {
        "midi": 71,
        "time": 16.8,
        "duration": 1.8,
        "velocity": 0.54,
        "hand": "right"
      },
      {
        "midi": 38,
        "time": 17.1,
        "duration": 0.075,
        "velocity": 0.57,
        "hand": "left"
      },
      {
        "midi": 42,
        "time": 17.1,
        "duration": 0.075,
        "velocity": 0.65,
        "hand": "left"
      },
      {
        "midi": 51,
        "time": 17.1,
        "duration": 0.075,
        "velocity": 0.56,
        "hand": "left"
      },
      {
        "midi": 54,
        "time": 17.1,
        "duration": 0.075,
        "velocity": 0.68,
        "hand": "left"
      },
      {
        "midi": 70,
        "time": 17.1,
        "duration": 0.075,
        "velocity": 0.72,
        "hand": "right"
      },
      {
        "midi": 59,
        "time": 17.25,
        "duration": 0.15,
        "velocity": 0.61,
        "hand": "left"
      },
      {
        "midi": 62,
        "time": 17.25,
        "duration": 0.075,
        "velocity": 0.55,
        "hand": "right"
      },
      {
        "midi": 64,
        "time": 17.25,
        "duration": 0.075,
        "velocity": 0.57,
        "hand": "right"
      },
      {
        "midi": 67,
        "time": 17.25,
        "duration": 0.15,
        "velocity": 0.52,
        "hand": "right"
      },
      {
        "midi": 35,
        "time": 17.4,
        "duration": 0.075,
        "velocity": 0.55,
        "hand": "left"
      },
      {
        "midi": 40,
        "time": 17.4,
        "duration": 0.6,
        "velocity": 0.96,
        "hand": "left"
      },
      {
        "midi": 42,
        "time": 17.4,
        "duration": 0.075,
        "velocity": 0.59,
        "hand": "left"
      },
      {
        "midi": 51,
        "time": 17.4,
        "duration": 0.075,
        "velocity": 0.57,
        "hand": "left"
      },
      {
        "midi": 59,
        "time": 17.4,
        "duration": 0.15,
        "velocity": 0.54,
        "hand": "left"
      },
      {
        "midi": 62,
        "time": 17.4,
        "duration": 0.075,
        "velocity": 0.54,
        "hand": "right"
      },
      {
        "midi": 64,
        "time": 17.4,
        "duration": 0.075,
        "velocity": 0.57,
        "hand": "right"
      },
      {
        "midi": 67,
        "time": 17.4,
        "duration": 0.15,
        "velocity": 0.38,
        "hand": "right"
      },
      {
        "midi": 69,
        "time": 17.4,
        "duration": 0.3,
        "velocity": 0.59,
        "hand": "right"
      },
      {
        "midi": 70,
        "time": 17.4,
        "duration": 0.075,
        "velocity": 0.69,
        "hand": "right"
      },
      {
        "midi": 38,
        "time": 17.7,
        "duration": 0.075,
        "velocity": 0.53,
        "hand": "left"
      },
      {
        "midi": 42,
        "time": 17.7,
        "duration": 0.075,
        "velocity": 0.58,
        "hand": "left"
      },
      {
        "midi": 51,
        "time": 17.7,
        "duration": 0.075,
        "velocity": 0.49,
        "hand": "left"
      },
      {
        "midi": 54,
        "time": 17.7,
        "duration": 0.075,
        "velocity": 0.56,
        "hand": "left"
      },
      {
        "midi": 59,
        "time": 17.7,
        "duration": 0.15,
        "velocity": 0.72,
        "hand": "left"
      },
      {
        "midi": 62,
        "time": 17.7,
        "duration": 0.75,
        "velocity": 0.72,
        "hand": "right"
      },
      {
        "midi": 62,
        "time": 17.7,
        "duration": 0.075,
        "velocity": 0.72,
        "hand": "right"
      },
      {
        "midi": 64,
        "time": 17.7,
        "duration": 0.75,
        "velocity": 0.72,
        "hand": "right"
      },
      {
        "midi": 64,
        "time": 17.7,
        "duration": 0.075,
        "velocity": 0.72,
        "hand": "right"
      },
      {
        "midi": 67,
        "time": 17.7,
        "duration": 0.75,
        "velocity": 0.72,
        "hand": "right"
      },
      {
        "midi": 67,
        "time": 17.7,
        "duration": 0.15,
        "velocity": 0.61,
        "hand": "right"
      },
      {
        "midi": 67,
        "time": 17.7,
        "duration": 1.5,
        "velocity": 0.54,
        "hand": "right"
      },
      {
        "midi": 70,
        "time": 17.7,
        "duration": 0.075,
        "velocity": 0.68,
        "hand": "right"
      },
      {
        "midi": 71,
        "time": 17.7,
        "duration": 0.75,
        "velocity": 0.68,
        "hand": "right"
      },
      {
        "midi": 35,
        "time": 18,
        "duration": 0.6,
        "velocity": 0.96,
        "hand": "left"
      },
      {
        "midi": 35,
        "time": 18,
        "duration": 0.075,
        "velocity": 0.69,
        "hand": "left"
      },
      {
        "midi": 51,
        "time": 18,
        "duration": 0.075,
        "velocity": 0.54,
        "hand": "left"
      },
      {
        "midi": 70,
        "time": 18,
        "duration": 0.075,
        "velocity": 0.61,
        "hand": "right"
      },
      {
        "midi": 38,
        "time": 18.3,
        "duration": 0.075,
        "velocity": 0.58,
        "hand": "left"
      },
      {
        "midi": 42,
        "time": 18.3,
        "duration": 0.075,
        "velocity": 0.63,
        "hand": "left"
      },
      {
        "midi": 51,
        "time": 18.3,
        "duration": 0.075,
        "velocity": 0.55,
        "hand": "left"
      },
      {
        "midi": 54,
        "time": 18.3,
        "duration": 0.075,
        "velocity": 0.52,
        "hand": "left"
      },
      {
        "midi": 59,
        "time": 18.3,
        "duration": 0.15,
        "velocity": 0.7,
        "hand": "left"
      },
      {
        "midi": 62,
        "time": 18.3,
        "duration": 0.075,
        "velocity": 0.72,
        "hand": "right"
      },
      {
        "midi": 64,
        "time": 18.3,
        "duration": 0.075,
        "velocity": 0.72,
        "hand": "right"
      },
      {
        "midi": 67,
        "time": 18.3,
        "duration": 0.075,
        "velocity": 0.57,
        "hand": "right"
      },
      {
        "midi": 70,
        "time": 18.3,
        "duration": 0.075,
        "velocity": 0.72,
        "hand": "right"
      },
      {
        "midi": 35,
        "time": 18.6,
        "duration": 0.075,
        "velocity": 0.7,
        "hand": "left"
      },
      {
        "midi": 40,
        "time": 18.6,
        "duration": 0.6,
        "velocity": 0.96,
        "hand": "left"
      },
      {
        "midi": 42,
        "time": 18.6,
        "duration": 0.075,
        "velocity": 0.54,
        "hand": "left"
      },
      {
        "midi": 51,
        "time": 18.6,
        "duration": 0.075,
        "velocity": 0.51,
        "hand": "left"
      },
      {
        "midi": 59,
        "time": 18.6,
        "duration": 0.15,
        "velocity": 0.65,
        "hand": "left"
      },
      {
        "midi": 62,
        "time": 18.6,
        "duration": 0.15,
        "velocity": 0.65,
        "hand": "right"
      },
      {
        "midi": 64,
        "time": 18.6,
        "duration": 0.15,
        "velocity": 0.63,
        "hand": "right"
      },
      {
        "midi": 67,
        "time": 18.6,
        "duration": 0.15,
        "velocity": 0.57,
        "hand": "right"
      },
      {
        "midi": 70,
        "time": 18.6,
        "duration": 0.075,
        "velocity": 0.72,
        "hand": "right"
      },
      {
        "midi": 71,
        "time": 18.6,
        "duration": 0.15,
        "velocity": 0.57,
        "hand": "right"
      },
      {
        "midi": 38,
        "time": 18.9,
        "duration": 0.075,
        "velocity": 0.52,
        "hand": "left"
      },
      {
        "midi": 42,
        "time": 18.9,
        "duration": 0.075,
        "velocity": 0.54,
        "hand": "left"
      },
      {
        "midi": 51,
        "time": 18.9,
        "duration": 0.075,
        "velocity": 0.54,
        "hand": "left"
      },
      {
        "midi": 54,
        "time": 18.9,
        "duration": 0.075,
        "velocity": 0.57,
        "hand": "left"
      },
      {
        "midi": 70,
        "time": 18.9,
        "duration": 0.075,
        "velocity": 0.58,
        "hand": "right"
      },
      {
        "midi": 35,
        "time": 19.2,
        "duration": 0.075,
        "velocity": 0.69,
        "hand": "left"
      },
      {
        "midi": 38,
        "time": 19.2,
        "duration": 0.6,
        "velocity": 0.96,
        "hand": "left"
      },
      {
        "midi": 51,
        "time": 19.2,
        "duration": 0.075,
        "velocity": 0.54,
        "hand": "left"
      },
      {
        "midi": 57,
        "time": 19.2,
        "duration": 0.45,
        "velocity": 0.72,
        "hand": "left"
      },
      {
        "midi": 57,
        "time": 19.2,
        "duration": 0.15,
        "velocity": 0.72,
        "hand": "left"
      },
      {
        "midi": 57,
        "time": 19.2,
        "duration": 0.45,
        "velocity": 0.65,
        "hand": "left"
      },
      {
        "midi": 57,
        "time": 19.2,
        "duration": 0.75,
        "velocity": 0.47,
        "hand": "left"
      },
      {
        "midi": 57,
        "time": 19.2,
        "duration": 0.45,
        "velocity": 0.65,
        "hand": "left"
      },
      {
        "midi": 60,
        "time": 19.2,
        "duration": 0.45,
        "velocity": 0.72,
        "hand": "right"
      },
      {
        "midi": 60,
        "time": 19.2,
        "duration": 0.075,
        "velocity": 0.73,
        "hand": "right"
      },
      {
        "midi": 60,
        "time": 19.2,
        "duration": 0.9,
        "velocity": 0.52,
        "hand": "right"
      },
      {
        "midi": 62,
        "time": 19.2,
        "duration": 0.45,
        "velocity": 0.72,
        "hand": "right"
      },
      {
        "midi": 62,
        "time": 19.2,
        "duration": 0.075,
        "velocity": 0.72,
        "hand": "right"
      },
      {
        "midi": 62,
        "time": 19.2,
        "duration": 1.05,
        "velocity": 0.49,
        "hand": "right"
      },
      {
        "midi": 65,
        "time": 19.2,
        "duration": 0.45,
        "velocity": 0.57,
        "hand": "right"
      },
      {
        "midi": 65,
        "time": 19.2,
        "duration": 0.15,
        "velocity": 0.58,
        "hand": "right"
      },
      {
        "midi": 65,
        "time": 19.2,
        "duration": 1.05,
        "velocity": 0.51,
        "hand": "right"
      },
      {
        "midi": 69,
        "time": 19.2,
        "duration": 1.05,
        "velocity": 0.63,
        "hand": "right"
      },
      {
        "midi": 70,
        "time": 19.2,
        "duration": 0.075,
        "velocity": 0.72,
        "hand": "right"
      },
      {
        "midi": 72,
        "time": 19.2,
        "duration": 1.05,
        "velocity": 0.63,
        "hand": "right"
      },
      {
        "midi": 38,
        "time": 19.5,
        "duration": 0.075,
        "velocity": 0.58,
        "hand": "left"
      },
      {
        "midi": 42,
        "time": 19.5,
        "duration": 0.075,
        "velocity": 0.63,
        "hand": "left"
      },
      {
        "midi": 51,
        "time": 19.5,
        "duration": 0.075,
        "velocity": 0.55,
        "hand": "left"
      },
      {
        "midi": 54,
        "time": 19.5,
        "duration": 0.075,
        "velocity": 0.52,
        "hand": "left"
      },
      {
        "midi": 70,
        "time": 19.5,
        "duration": 0.075,
        "velocity": 0.72,
        "hand": "right"
      },
      {
        "midi": 57,
        "time": 19.65,
        "duration": 0.075,
        "velocity": 0.65,
        "hand": "left"
      },
      {
        "midi": 60,
        "time": 19.65,
        "duration": 0.075,
        "velocity": 0.69,
        "hand": "right"
      },
      {
        "midi": 62,
        "time": 19.65,
        "duration": 0.075,
        "velocity": 0.68,
        "hand": "right"
      },
      {
        "midi": 65,
        "time": 19.65,
        "duration": 0.075,
        "velocity": 0.56,
        "hand": "right"
      },
      {
        "midi": 69,
        "time": 19.65,
        "duration": 0.3,
        "velocity": 0.54,
        "hand": "right"
      },
      {
        "midi": 33,
        "time": 19.8,
        "duration": 0.6,
        "velocity": 0.96,
        "hand": "left"
      },
      {
        "midi": 35,
        "time": 19.8,
        "duration": 0.075,
        "velocity": 0.7,
        "hand": "left"
      },
      {
        "midi": 42,
        "time": 19.8,
        "duration": 0.075,
        "velocity": 0.54,
        "hand": "left"
      },
      {
        "midi": 51,
        "time": 19.8,
        "duration": 0.075,
        "velocity": 0.51,
        "hand": "left"
      },
      {
        "midi": 57,
        "time": 19.8,
        "duration": 0.45,
        "velocity": 0.68,
        "hand": "left"
      },
      {
        "midi": 57,
        "time": 19.8,
        "duration": 0.15,
        "velocity": 0.54,
        "hand": "left"
      },
      {
        "midi": 60,
        "time": 19.8,
        "duration": 0.45,
        "velocity": 0.7,
        "hand": "right"
      },
      {
        "midi": 60,
        "time": 19.8,
        "duration": 0.075,
        "velocity": 0.55,
        "hand": "right"
      },
      {
        "midi": 62,
        "time": 19.8,
        "duration": 0.45,
        "velocity": 0.65,
        "hand": "right"
      },
      {
        "midi": 62,
        "time": 19.8,
        "duration": 0.075,
        "velocity": 0.57,
        "hand": "right"
      },
      {
        "midi": 65,
        "time": 19.8,
        "duration": 0.45,
        "velocity": 0.61,
        "hand": "right"
      },
      {
        "midi": 65,
        "time": 19.8,
        "duration": 0.075,
        "velocity": 0.36,
        "hand": "right"
      },
      {
        "midi": 70,
        "time": 19.8,
        "duration": 0.075,
        "velocity": 0.72,
        "hand": "right"
      },
      {
        "midi": 38,
        "time": 20.1,
        "duration": 0.075,
        "velocity": 0.52,
        "hand": "left"
      },
      {
        "midi": 42,
        "time": 20.1,
        "duration": 0.075,
        "velocity": 0.54,
        "hand": "left"
      },
      {
        "midi": 51,
        "time": 20.1,
        "duration": 0.075,
        "velocity": 0.54,
        "hand": "left"
      },
      {
        "midi": 54,
        "time": 20.1,
        "duration": 0.075,
        "velocity": 0.57,
        "hand": "left"
      },
      {
        "midi": 57,
        "time": 20.1,
        "duration": 0.15,
        "velocity": 0.65,
        "hand": "left"
      },
      {
        "midi": 60,
        "time": 20.1,
        "duration": 0.075,
        "velocity": 0.63,
        "hand": "right"
      },
      {
        "midi": 62,
        "time": 20.1,
        "duration": 0.15,
        "velocity": 0.69,
        "hand": "right"
      },
      {
        "midi": 65,
        "time": 20.1,
        "duration": 0.15,
        "velocity": 0.57,
        "hand": "right"
      },
      {
        "midi": 67,
        "time": 20.1,
        "duration": 0.6,
        "velocity": 0.48,
        "hand": "right"
      },
      {
        "midi": 70,
        "time": 20.1,
        "duration": 0.075,
        "velocity": 0.58,
        "hand": "right"
      },
      {
        "midi": 31,
        "time": 20.4,
        "duration": 0.6,
        "velocity": 0.96,
        "hand": "left"
      },
      {
        "midi": 35,
        "time": 20.4,
        "duration": 0.075,
        "velocity": 0.51,
        "hand": "left"
      },
      {
        "midi": 42,
        "time": 20.4,
        "duration": 0.075,
        "velocity": 0.57,
        "hand": "left"
      },
      {
        "midi": 51,
        "time": 20.4,
        "duration": 0.075,
        "velocity": 0.56,
        "hand": "left"
      },
      {
        "midi": 55,
        "time": 20.4,
        "duration": 0.45,
        "velocity": 0.65,
        "hand": "left"
      },
      {
        "midi": 55,
        "time": 20.4,
        "duration": 0.15,
        "velocity": 0.57,
        "hand": "left"
      },
      {
        "midi": 55,
        "time": 20.4,
        "duration": 1.05,
        "velocity": 0.5,
        "hand": "left"
      },
      {
        "midi": 59,
        "time": 20.4,
        "duration": 0.45,
        "velocity": 0.63,
        "hand": "left"
      },
      {
        "midi": 59,
        "time": 20.4,
        "duration": 0.075,
        "velocity": 0.57,
        "hand": "left"
      },
      {
        "midi": 59,
        "time": 20.4,
        "duration": 1.05,
        "velocity": 0.54,
        "hand": "left"
      },
      {
        "midi": 62,
        "time": 20.4,
        "duration": 0.45,
        "velocity": 0.57,
        "hand": "right"
      },
      {
        "midi": 62,
        "time": 20.4,
        "duration": 0.15,
        "velocity": 0.63,
        "hand": "right"
      },
      {
        "midi": 62,
        "time": 20.4,
        "duration": 0.9,
        "velocity": 0.44,
        "hand": "right"
      },
      {
        "midi": 65,
        "time": 20.4,
        "duration": 0.45,
        "velocity": 0.53,
        "hand": "right"
      },
      {
        "midi": 65,
        "time": 20.4,
        "duration": 0.15,
        "velocity": 0.53,
        "hand": "right"
      },
      {
        "midi": 65,
        "time": 20.4,
        "duration": 1.05,
        "velocity": 0.46,
        "hand": "right"
      },
      {
        "midi": 65,
        "time": 20.4,
        "duration": 0.9,
        "velocity": 0.68,
        "hand": "right"
      },
      {
        "midi": 67,
        "time": 20.4,
        "duration": 1.05,
        "velocity": 0.64,
        "hand": "right"
      },
      {
        "midi": 70,
        "time": 20.4,
        "duration": 0.075,
        "velocity": 0.72,
        "hand": "right"
      },
      {
        "midi": 71,
        "time": 20.4,
        "duration": 1.05,
        "velocity": 0.58,
        "hand": "right"
      },
      {
        "midi": 38,
        "time": 20.7,
        "duration": 0.075,
        "velocity": 0.57,
        "hand": "left"
      },
      {
        "midi": 42,
        "time": 20.7,
        "duration": 0.075,
        "velocity": 0.58,
        "hand": "left"
      },
      {
        "midi": 51,
        "time": 20.7,
        "duration": 0.075,
        "velocity": 0.54,
        "hand": "left"
      },
      {
        "midi": 54,
        "time": 20.7,
        "duration": 0.075,
        "velocity": 0.52,
        "hand": "left"
      },
      {
        "midi": 55,
        "time": 20.7,
        "duration": 0.075,
        "velocity": 0.52,
        "hand": "left"
      },
      {
        "midi": 59,
        "time": 20.7,
        "duration": 0.075,
        "velocity": 0.54,
        "hand": "left"
      },
      {
        "midi": 62,
        "time": 20.7,
        "duration": 0.15,
        "velocity": 0.54,
        "hand": "right"
      },
      {
        "midi": 65,
        "time": 20.7,
        "duration": 0.15,
        "velocity": 0.51,
        "hand": "right"
      },
      {
        "midi": 65,
        "time": 20.7,
        "duration": 0.3,
        "velocity": 0.56,
        "hand": "right"
      },
      {
        "midi": 35,
        "time": 21,
        "duration": 0.075,
        "velocity": 0.72,
        "hand": "left"
      },
      {
        "midi": 38,
        "time": 21,
        "duration": 0.45,
        "velocity": 0.96,
        "hand": "left"
      },
      {
        "midi": 42,
        "time": 21,
        "duration": 0.075,
        "velocity": 0.54,
        "hand": "left"
      },
      {
        "midi": 51,
        "time": 21,
        "duration": 0.075,
        "velocity": 0.57,
        "hand": "left"
      },
      {
        "midi": 55,
        "time": 21,
        "duration": 0.15,
        "velocity": 0.49,
        "hand": "left"
      },
      {
        "midi": 59,
        "time": 21,
        "duration": 0.3,
        "velocity": 0.48,
        "hand": "left"
      },
      {
        "midi": 59,
        "time": 21,
        "duration": 0.15,
        "velocity": 0.58,
        "hand": "left"
      },
      {
        "midi": 62,
        "time": 21,
        "duration": 0.3,
        "velocity": 0.44,
        "hand": "right"
      },
      {
        "midi": 62,
        "time": 21,
        "duration": 0.15,
        "velocity": 0.54,
        "hand": "right"
      },
      {
        "midi": 64,
        "time": 21,
        "duration": 0.3,
        "velocity": 0.54,
        "hand": "right"
      },
      {
        "midi": 65,
        "time": 21,
        "duration": 0.3,
        "velocity": 0.46,
        "hand": "right"
      },
      {
        "midi": 65,
        "time": 21,
        "duration": 0.15,
        "velocity": 0.54,
        "hand": "right"
      },
      {
        "midi": 38,
        "time": 21.3,
        "duration": 0.075,
        "velocity": 0.56,
        "hand": "left"
      },
      {
        "midi": 42,
        "time": 21.3,
        "duration": 0.075,
        "velocity": 0.5,
        "hand": "left"
      },
      {
        "midi": 51,
        "time": 21.3,
        "duration": 0.075,
        "velocity": 0.56,
        "hand": "left"
      },
      {
        "midi": 54,
        "time": 21.3,
        "duration": 0.075,
        "velocity": 0.55,
        "hand": "left"
      },
      {
        "midi": 55,
        "time": 21.3,
        "duration": 0.15,
        "velocity": 0.4,
        "hand": "left"
      },
      {
        "midi": 59,
        "time": 21.3,
        "duration": 0.15,
        "velocity": 0.5,
        "hand": "left"
      },
      {
        "midi": 62,
        "time": 21.3,
        "duration": 0.15,
        "velocity": 0.49,
        "hand": "right"
      },
      {
        "midi": 62,
        "time": 21.3,
        "duration": 0.3,
        "velocity": 0.51,
        "hand": "right"
      },
      {
        "midi": 65,
        "time": 21.3,
        "duration": 0.15,
        "velocity": 0.48,
        "hand": "right"
      },
      {
        "midi": 35,
        "time": 21.6,
        "duration": 0.075,
        "velocity": 0.57,
        "hand": "left"
      },
      {
        "midi": 36,
        "time": 21.6,
        "duration": 0.6,
        "velocity": 0.96,
        "hand": "left"
      },
      {
        "midi": 42,
        "time": 21.6,
        "duration": 0.075,
        "velocity": 0.55,
        "hand": "left"
      },
      {
        "midi": 51,
        "time": 21.6,
        "duration": 0.075,
        "velocity": 0.56,
        "hand": "left"
      },
      {
        "midi": 55,
        "time": 21.6,
        "duration": 0.75,
        "velocity": 0.59,
        "hand": "left"
      },
      {
        "midi": 55,
        "time": 21.6,
        "duration": 0.15,
        "velocity": 0.61,
        "hand": "left"
      },
      {
        "midi": 55,
        "time": 21.6,
        "duration": 1.05,
        "velocity": 0.41,
        "hand": "left"
      },
      {
        "midi": 60,
        "time": 21.6,
        "duration": 0.75,
        "velocity": 0.64,
        "hand": "right"
      },
      {
        "midi": 60,
        "time": 21.6,
        "duration": 0.15,
        "velocity": 0.72,
        "hand": "right"
      },
      {
        "midi": 60,
        "time": 21.6,
        "duration": 1.05,
        "velocity": 0.51,
        "hand": "right"
      },
      {
        "midi": 64,
        "time": 21.6,
        "duration": 0.75,
        "velocity": 0.57,
        "hand": "right"
      },
      {
        "midi": 64,
        "time": 21.6,
        "duration": 0.15,
        "velocity": 0.64,
        "hand": "right"
      },
      {
        "midi": 64,
        "time": 21.6,
        "duration": 1.05,
        "velocity": 0.35,
        "hand": "right"
      },
      {
        "midi": 67,
        "time": 21.6,
        "duration": 1.05,
        "velocity": 0.5,
        "hand": "right"
      },
      {
        "midi": 71,
        "time": 21.6,
        "duration": 1.05,
        "velocity": 0.49,
        "hand": "right"
      },
      {
        "midi": 38,
        "time": 21.9,
        "duration": 0.075,
        "velocity": 0.54,
        "hand": "left"
      },
      {
        "midi": 42,
        "time": 21.9,
        "duration": 0.075,
        "velocity": 0.54,
        "hand": "left"
      },
      {
        "midi": 51,
        "time": 21.9,
        "duration": 0.075,
        "velocity": 0.54,
        "hand": "left"
      },
      {
        "midi": 54,
        "time": 21.9,
        "duration": 0.075,
        "velocity": 0.55,
        "hand": "left"
      },
      {
        "midi": 70,
        "time": 21.9,
        "duration": 0.075,
        "velocity": 0.73,
        "hand": "right"
      },
      {
        "midi": 55,
        "time": 22.05,
        "duration": 0.15,
        "velocity": 0.54,
        "hand": "left"
      },
      {
        "midi": 60,
        "time": 22.05,
        "duration": 0.075,
        "velocity": 0.59,
        "hand": "right"
      },
      {
        "midi": 64,
        "time": 22.05,
        "duration": 0.15,
        "velocity": 0.57,
        "hand": "right"
      },
      {
        "midi": 31,
        "time": 22.2,
        "duration": 0.3,
        "velocity": 0.96,
        "hand": "left"
      },
      {
        "midi": 35,
        "time": 22.2,
        "duration": 0.075,
        "velocity": 0.68,
        "hand": "left"
      },
      {
        "midi": 42,
        "time": 22.2,
        "duration": 0.075,
        "velocity": 0.53,
        "hand": "left"
      },
      {
        "midi": 51,
        "time": 22.2,
        "duration": 0.075,
        "velocity": 0.54,
        "hand": "left"
      },
      {
        "midi": 55,
        "time": 22.2,
        "duration": 0.15,
        "velocity": 0.54,
        "hand": "left"
      },
      {
        "midi": 60,
        "time": 22.2,
        "duration": 0.075,
        "velocity": 0.69,
        "hand": "right"
      },
      {
        "midi": 64,
        "time": 22.2,
        "duration": 0.15,
        "velocity": 0.64,
        "hand": "right"
      },
      {
        "midi": 70,
        "time": 22.2,
        "duration": 0.075,
        "velocity": 0.72,
        "hand": "right"
      },
      {
        "midi": 36,
        "time": 22.5,
        "duration": 0.3,
        "velocity": 0.96,
        "hand": "left"
      },
      {
        "midi": 38,
        "time": 22.5,
        "duration": 0.075,
        "velocity": 0.56,
        "hand": "left"
      },
      {
        "midi": 42,
        "time": 22.5,
        "duration": 0.075,
        "velocity": 0.57,
        "hand": "left"
      },
      {
        "midi": 51,
        "time": 22.5,
        "duration": 0.075,
        "velocity": 0.54,
        "hand": "left"
      },
      {
        "midi": 54,
        "time": 22.5,
        "duration": 0.075,
        "velocity": 0.54,
        "hand": "left"
      },
      {
        "midi": 55,
        "time": 22.5,
        "duration": 0.15,
        "velocity": 0.72,
        "hand": "left"
      },
      {
        "midi": 60,
        "time": 22.5,
        "duration": 0.075,
        "velocity": 0.74,
        "hand": "right"
      },
      {
        "midi": 64,
        "time": 22.5,
        "duration": 0.15,
        "velocity": 0.73,
        "hand": "right"
      },
      {
        "midi": 70,
        "time": 22.5,
        "duration": 0.075,
        "velocity": 0.72,
        "hand": "right"
      },
      {
        "midi": 35,
        "time": 22.8,
        "duration": 0.075,
        "velocity": 0.69,
        "hand": "left"
      },
      {
        "midi": 38,
        "time": 22.8,
        "duration": 0.45,
        "velocity": 0.91,
        "hand": "left"
      },
      {
        "midi": 38,
        "time": 22.8,
        "duration": 0.15,
        "velocity": 0.68,
        "hand": "left"
      },
      {
        "midi": 42,
        "time": 22.8,
        "duration": 0.075,
        "velocity": 0.68,
        "hand": "left"
      },
      {
        "midi": 51,
        "time": 22.8,
        "duration": 0.075,
        "velocity": 0.58,
        "hand": "left"
      },
      {
        "midi": 56,
        "time": 22.8,
        "duration": 0.45,
        "velocity": 0.57,
        "hand": "left"
      },
      {
        "midi": 56,
        "time": 22.8,
        "duration": 0.15,
        "velocity": 0.54,
        "hand": "left"
      },
      {
        "midi": 60,
        "time": 22.8,
        "duration": 0.45,
        "velocity": 0.64,
        "hand": "right"
      },
      {
        "midi": 60,
        "time": 22.8,
        "duration": 0.15,
        "velocity": 0.56,
        "hand": "right"
      },
      {
        "midi": 62,
        "time": 22.8,
        "duration": 0.3,
        "velocity": 0.54,
        "hand": "right"
      },
      {
        "midi": 62,
        "time": 22.8,
        "duration": 0.15,
        "velocity": 0.5,
        "hand": "right"
      },
      {
        "midi": 63,
        "time": 22.8,
        "duration": 0.075,
        "velocity": 0.43,
        "hand": "right"
      },
      {
        "midi": 65,
        "time": 22.8,
        "duration": 0.45,
        "velocity": 0.58,
        "hand": "right"
      },
      {
        "midi": 65,
        "time": 22.8,
        "duration": 0.15,
        "velocity": 0.5,
        "hand": "right"
      },
      {
        "midi": 70,
        "time": 22.8,
        "duration": 0.075,
        "velocity": 0.73,
        "hand": "right"
      },
      {
        "midi": 38,
        "time": 22.95,
        "duration": 0.15,
        "velocity": 0.72,
        "hand": "left"
      },
      {
        "midi": 42,
        "time": 23.1,
        "duration": 0.075,
        "velocity": 0.61,
        "hand": "left"
      },
      {
        "midi": 51,
        "time": 23.1,
        "duration": 0.075,
        "velocity": 0.56,
        "hand": "left"
      },
      {
        "midi": 54,
        "time": 23.1,
        "duration": 0.075,
        "velocity": 0.55,
        "hand": "left"
      },
      {
        "midi": 56,
        "time": 23.1,
        "duration": 0.15,
        "velocity": 0.55,
        "hand": "left"
      },
      {
        "midi": 60,
        "time": 23.1,
        "duration": 0.15,
        "velocity": 0.59,
        "hand": "right"
      },
      {
        "midi": 62,
        "time": 23.1,
        "duration": 0.15,
        "velocity": 0.53,
        "hand": "right"
      },
      {
        "midi": 65,
        "time": 23.1,
        "duration": 0.15,
        "velocity": 0.51,
        "hand": "right"
      },
      {
        "midi": 40,
        "time": 23.25,
        "duration": 0.15,
        "velocity": 0.72,
        "hand": "left"
      },
      {
        "midi": 32,
        "time": 23.4,
        "duration": 0.6,
        "velocity": 0.99,
        "hand": "left"
      },
      {
        "midi": 35,
        "time": 23.4,
        "duration": 0.075,
        "velocity": 0.57,
        "hand": "left"
      },
      {
        "midi": 38,
        "time": 23.4,
        "duration": 0.15,
        "velocity": 0.7,
        "hand": "left"
      },
      {
        "midi": 42,
        "time": 23.4,
        "duration": 0.075,
        "velocity": 0.61,
        "hand": "left"
      },
      {
        "midi": 51,
        "time": 23.4,
        "duration": 0.075,
        "velocity": 0.49,
        "hand": "left"
      },
      {
        "midi": 55,
        "time": 23.4,
        "duration": 0.3,
        "velocity": 0.49,
        "hand": "left"
      },
      {
        "midi": 55,
        "time": 23.4,
        "duration": 0.15,
        "velocity": 0.56,
        "hand": "left"
      },
      {
        "midi": 59,
        "time": 23.4,
        "duration": 0.3,
        "velocity": 0.57,
        "hand": "left"
      },
      {
        "midi": 59,
        "time": 23.4,
        "duration": 0.15,
        "velocity": 0.54,
        "hand": "left"
      },
      {
        "midi": 62,
        "time": 23.4,
        "duration": 0.15,
        "velocity": 0.44,
        "hand": "right"
      },
      {
        "midi": 63,
        "time": 23.4,
        "duration": 0.45,
        "velocity": 0.44,
        "hand": "right"
      },
      {
        "midi": 63,
        "time": 23.4,
        "duration": 0.075,
        "velocity": 0.46,
        "hand": "right"
      },
      {
        "midi": 65,
        "time": 23.4,
        "duration": 0.15,
        "velocity": 0.51,
        "hand": "right"
      },
      {
        "midi": 67,
        "time": 23.4,
        "duration": 0.45,
        "velocity": 0.59,
        "hand": "right"
      },
      {
        "midi": 42,
        "time": 23.7,
        "duration": 0.075,
        "velocity": 0.58,
        "hand": "left"
      },
      {
        "midi": 50,
        "time": 23.7,
        "duration": 0.15,
        "velocity": 0.73,
        "hand": "left"
      },
      {
        "midi": 51,
        "time": 23.7,
        "duration": 0.075,
        "velocity": 0.54,
        "hand": "left"
      },
      {
        "midi": 54,
        "time": 23.7,
        "duration": 0.075,
        "velocity": 0.54,
        "hand": "left"
      },
      {
        "midi": 55,
        "time": 23.7,
        "duration": 0.15,
        "velocity": 0.51,
        "hand": "left"
      },
      {
        "midi": 59,
        "time": 23.7,
        "duration": 0.15,
        "velocity": 0.5,
        "hand": "left"
      },
      {
        "midi": 62,
        "time": 23.7,
        "duration": 0.15,
        "velocity": 0.5,
        "hand": "right"
      },
      {
        "midi": 64,
        "time": 23.7,
        "duration": 0.3,
        "velocity": 0.73,
        "hand": "right"
      },
      {
        "midi": 65,
        "time": 23.7,
        "duration": 0.15,
        "velocity": 0.42,
        "hand": "right"
      },
      {
        "midi": 35,
        "time": 24,
        "duration": 0.075,
        "velocity": 0.7,
        "hand": "left"
      },
      {
        "midi": 36,
        "time": 24,
        "duration": 0.6,
        "velocity": 0.96,
        "hand": "left"
      },
      {
        "midi": 49,
        "time": 24,
        "duration": 0.075,
        "velocity": 0.79,
        "hand": "left"
      },
      {
        "midi": 51,
        "time": 24,
        "duration": 0.075,
        "velocity": 0.53,
        "hand": "left"
      },
      {
        "midi": 57,
        "time": 24,
        "duration": 0.6,
        "velocity": 0.43,
        "hand": "left"
      },
      {
        "midi": 57,
        "time": 24,
        "duration": 1.95,
        "velocity": 0.63,
        "hand": "left"
      },
      {
        "midi": 62,
        "time": 24,
        "duration": 0.6,
        "velocity": 0.48,
        "hand": "right"
      },
      {
        "midi": 62,
        "time": 24,
        "duration": 2.1,
        "velocity": 0.69,
        "hand": "right"
      },
      {
        "midi": 67,
        "time": 24,
        "duration": 0.6,
        "velocity": 0.43,
        "hand": "right"
      },
      {
        "midi": 67,
        "time": 24,
        "duration": 0.15,
        "velocity": 0.65,
        "hand": "right"
      },
      {
        "midi": 67,
        "time": 24,
        "duration": 2.1,
        "velocity": 0.64,
        "hand": "right"
      },
      {
        "midi": 38,
        "time": 24.3,
        "duration": 0.075,
        "velocity": 0.57,
        "hand": "left"
      },
      {
        "midi": 42,
        "time": 24.3,
        "duration": 0.075,
        "velocity": 0.61,
        "hand": "left"
      },
      {
        "midi": 51,
        "time": 24.3,
        "duration": 0.075,
        "velocity": 0.61,
        "hand": "left"
      },
      {
        "midi": 54,
        "time": 24.3,
        "duration": 0.075,
        "velocity": 0.57,
        "hand": "left"
      },
      {
        "midi": 57,
        "time": 24.3,
        "duration": 0.15,
        "velocity": 0.64,
        "hand": "left"
      },
      {
        "midi": 62,
        "time": 24.3,
        "duration": 0.075,
        "velocity": 0.7,
        "hand": "right"
      },
      {
        "midi": 67,
        "time": 24.3,
        "duration": 0.15,
        "velocity": 0.54,
        "hand": "right"
      },
      {
        "midi": 67,
        "time": 24.3,
        "duration": 0.3,
        "velocity": 0.54,
        "hand": "right"
      },
      {
        "midi": 70,
        "time": 24.3,
        "duration": 0.075,
        "velocity": 0.7,
        "hand": "right"
      },
      {
        "midi": 31,
        "time": 24.6,
        "duration": 0.6,
        "velocity": 0.96,
        "hand": "left"
      },
      {
        "midi": 35,
        "time": 24.6,
        "duration": 0.075,
        "velocity": 0.73,
        "hand": "left"
      },
      {
        "midi": 42,
        "time": 24.6,
        "duration": 0.075,
        "velocity": 0.57,
        "hand": "left"
      },
      {
        "midi": 51,
        "time": 24.6,
        "duration": 0.075,
        "velocity": 0.53,
        "hand": "left"
      },
      {
        "midi": 57,
        "time": 24.6,
        "duration": 0.45,
        "velocity": 0.43,
        "hand": "left"
      },
      {
        "midi": 62,
        "time": 24.6,
        "duration": 0.45,
        "velocity": 0.49,
        "hand": "right"
      },
      {
        "midi": 64,
        "time": 24.6,
        "duration": 0.3,
        "velocity": 0.59,
        "hand": "right"
      },
      {
        "midi": 67,
        "time": 24.6,
        "duration": 0.45,
        "velocity": 0.49,
        "hand": "right"
      },
      {
        "midi": 70,
        "time": 24.6,
        "duration": 0.075,
        "velocity": 0.63,
        "hand": "right"
      },
      {
        "midi": 38,
        "time": 24.9,
        "duration": 0.075,
        "velocity": 0.55,
        "hand": "left"
      },
      {
        "midi": 42,
        "time": 24.9,
        "duration": 0.075,
        "velocity": 0.56,
        "hand": "left"
      },
      {
        "midi": 51,
        "time": 24.9,
        "duration": 0.075,
        "velocity": 0.57,
        "hand": "left"
      },
      {
        "midi": 54,
        "time": 24.9,
        "duration": 0.075,
        "velocity": 0.5,
        "hand": "left"
      },
      {
        "midi": 57,
        "time": 24.9,
        "duration": 0.075,
        "velocity": 0.64,
        "hand": "left"
      },
      {
        "midi": 62,
        "time": 24.9,
        "duration": 0.075,
        "velocity": 0.72,
        "hand": "right"
      },
      {
        "midi": 65,
        "time": 24.9,
        "duration": 0.3,
        "velocity": 0.61,
        "hand": "right"
      },
      {
        "midi": 67,
        "time": 24.9,
        "duration": 0.075,
        "velocity": 0.56,
        "hand": "right"
      },
      {
        "midi": 70,
        "time": 24.9,
        "duration": 0.075,
        "velocity": 0.56,
        "hand": "right"
      },
      {
        "midi": 35,
        "time": 25.2,
        "duration": 0.075,
        "velocity": 0.72,
        "hand": "left"
      },
      {
        "midi": 36,
        "time": 25.2,
        "duration": 0.6,
        "velocity": 0.96,
        "hand": "left"
      },
      {
        "midi": 42,
        "time": 25.2,
        "duration": 0.075,
        "velocity": 0.54,
        "hand": "left"
      },
      {
        "midi": 51,
        "time": 25.2,
        "duration": 0.075,
        "velocity": 0.46,
        "hand": "left"
      },
      {
        "midi": 57,
        "time": 25.2,
        "duration": 0.6,
        "velocity": 0.56,
        "hand": "left"
      },
      {
        "midi": 62,
        "time": 25.2,
        "duration": 0.6,
        "velocity": 0.59,
        "hand": "right"
      },
      {
        "midi": 67,
        "time": 25.2,
        "duration": 0.6,
        "velocity": 0.61,
        "hand": "right"
      },
      {
        "midi": 67,
        "time": 25.2,
        "duration": 0.3,
        "velocity": 0.54,
        "hand": "right"
      },
      {
        "midi": 70,
        "time": 25.2,
        "duration": 0.075,
        "velocity": 0.73,
        "hand": "right"
      },
      {
        "midi": 38,
        "time": 25.5,
        "duration": 0.075,
        "velocity": 0.56,
        "hand": "left"
      },
      {
        "midi": 42,
        "time": 25.5,
        "duration": 0.075,
        "velocity": 0.46,
        "hand": "left"
      },
      {
        "midi": 51,
        "time": 25.5,
        "duration": 0.075,
        "velocity": 0.52,
        "hand": "left"
      },
      {
        "midi": 54,
        "time": 25.5,
        "duration": 0.075,
        "velocity": 0.56,
        "hand": "left"
      },
      {
        "midi": 57,
        "time": 25.5,
        "duration": 0.15,
        "velocity": 0.72,
        "hand": "left"
      },
      {
        "midi": 62,
        "time": 25.5,
        "duration": 0.075,
        "velocity": 0.72,
        "hand": "right"
      },
      {
        "midi": 67,
        "time": 25.5,
        "duration": 0.075,
        "velocity": 0.57,
        "hand": "right"
      },
      {
        "midi": 67,
        "time": 25.5,
        "duration": 0.15,
        "velocity": 0.72,
        "hand": "right"
      },
      {
        "midi": 31,
        "time": 25.8,
        "duration": 0.6,
        "velocity": 0.96,
        "hand": "left"
      },
      {
        "midi": 35,
        "time": 25.8,
        "duration": 0.075,
        "velocity": 0.7,
        "hand": "left"
      },
      {
        "midi": 42,
        "time": 25.8,
        "duration": 0.075,
        "velocity": 0.5,
        "hand": "left"
      },
      {
        "midi": 51,
        "time": 25.8,
        "duration": 0.075,
        "velocity": 0.54,
        "hand": "left"
      },
      {
        "midi": 57,
        "time": 25.8,
        "duration": 0.15,
        "velocity": 0.5,
        "hand": "left"
      },
      {
        "midi": 62,
        "time": 25.8,
        "duration": 0.15,
        "velocity": 0.52,
        "hand": "right"
      },
      {
        "midi": 67,
        "time": 25.8,
        "duration": 0.15,
        "velocity": 0.5,
        "hand": "right"
      },
      {
        "midi": 38,
        "time": 26.1,
        "duration": 0.075,
        "velocity": 0.53,
        "hand": "left"
      },
      {
        "midi": 42,
        "time": 26.1,
        "duration": 0.075,
        "velocity": 0.54,
        "hand": "left"
      },
      {
        "midi": 51,
        "time": 26.1,
        "duration": 0.075,
        "velocity": 0.54,
        "hand": "left"
      },
      {
        "midi": 54,
        "time": 26.1,
        "duration": 0.075,
        "velocity": 0.57,
        "hand": "left"
      },
      {
        "midi": 57,
        "time": 26.1,
        "duration": 0.15,
        "velocity": 0.51,
        "hand": "left"
      },
      {
        "midi": 62,
        "time": 26.1,
        "duration": 0.075,
        "velocity": 0.57,
        "hand": "right"
      },
      {
        "midi": 67,
        "time": 26.1,
        "duration": 0.15,
        "velocity": 0.51,
        "hand": "right"
      },
      {
        "midi": 35,
        "time": 26.4,
        "duration": 0.075,
        "velocity": 0.69,
        "hand": "left"
      },
      {
        "midi": 40,
        "time": 26.4,
        "duration": 0.6,
        "velocity": 0.96,
        "hand": "left"
      },
      {
        "midi": 42,
        "time": 26.4,
        "duration": 0.075,
        "velocity": 0.54,
        "hand": "left"
      },
      {
        "midi": 51,
        "time": 26.4,
        "duration": 0.075,
        "velocity": 0.51,
        "hand": "left"
      },
      {
        "midi": 59,
        "time": 26.4,
        "duration": 0.15,
        "velocity": 0.61,
        "hand": "left"
      },
      {
        "midi": 59,
        "time": 26.4,
        "duration": 0.3,
        "velocity": 0.57,
        "hand": "left"
      },
      {
        "midi": 62,
        "time": 26.4,
        "duration": 0.15,
        "velocity": 0.57,
        "hand": "right"
      },
      {
        "midi": 62,
        "time": 26.4,
        "duration": 0.3,
        "velocity": 0.57,
        "hand": "right"
      },
      {
        "midi": 64,
        "time": 26.4,
        "duration": 0.15,
        "velocity": 0.63,
        "hand": "right"
      },
      {
        "midi": 64,
        "time": 26.4,
        "duration": 0.3,
        "velocity": 0.59,
        "hand": "right"
      },
      {
        "midi": 67,
        "time": 26.4,
        "duration": 0.15,
        "velocity": 0.54,
        "hand": "right"
      },
      {
        "midi": 67,
        "time": 26.4,
        "duration": 0.3,
        "velocity": 0.54,
        "hand": "right"
      },
      {
        "midi": 69,
        "time": 26.4,
        "duration": 0.3,
        "velocity": 0.72,
        "hand": "right"
      },
      {
        "midi": 38,
        "time": 26.7,
        "duration": 0.075,
        "velocity": 0.54,
        "hand": "left"
      },
      {
        "midi": 42,
        "time": 26.7,
        "duration": 0.075,
        "velocity": 0.57,
        "hand": "left"
      },
      {
        "midi": 51,
        "time": 26.7,
        "duration": 0.075,
        "velocity": 0.55,
        "hand": "left"
      },
      {
        "midi": 54,
        "time": 26.7,
        "duration": 0.075,
        "velocity": 0.54,
        "hand": "left"
      },
      {
        "midi": 59,
        "time": 26.7,
        "duration": 0.15,
        "velocity": 0.59,
        "hand": "left"
      },
      {
        "midi": 62,
        "time": 26.7,
        "duration": 0.15,
        "velocity": 0.57,
        "hand": "right"
      },
      {
        "midi": 62,
        "time": 26.7,
        "duration": 0.075,
        "velocity": 0.57,
        "hand": "right"
      },
      {
        "midi": 64,
        "time": 26.7,
        "duration": 0.15,
        "velocity": 0.61,
        "hand": "right"
      },
      {
        "midi": 67,
        "time": 26.7,
        "duration": 0.15,
        "velocity": 0.57,
        "hand": "right"
      },
      {
        "midi": 67,
        "time": 26.7,
        "duration": 0.3,
        "velocity": 0.65,
        "hand": "right"
      },
      {
        "midi": 70,
        "time": 26.7,
        "duration": 0.075,
        "velocity": 0.72,
        "hand": "right"
      },
      {
        "midi": 35,
        "time": 27,
        "duration": 0.075,
        "velocity": 0.56,
        "hand": "left"
      },
      {
        "midi": 39,
        "time": 27,
        "duration": 0.45,
        "velocity": 0.96,
        "hand": "left"
      },
      {
        "midi": 42,
        "time": 27,
        "duration": 0.075,
        "velocity": 0.57,
        "hand": "left"
      },
      {
        "midi": 51,
        "time": 27,
        "duration": 0.075,
        "velocity": 0.5,
        "hand": "left"
      },
      {
        "midi": 58,
        "time": 27,
        "duration": 0.3,
        "velocity": 0.72,
        "hand": "left"
      },
      {
        "midi": 58,
        "time": 27,
        "duration": 0.15,
        "velocity": 0.61,
        "hand": "left"
      },
      {
        "midi": 58,
        "time": 27,
        "duration": 0.45,
        "velocity": 0.57,
        "hand": "left"
      },
      {
        "midi": 58,
        "time": 27,
        "duration": 0.3,
        "velocity": 0.59,
        "hand": "left"
      },
      {
        "midi": 61,
        "time": 27,
        "duration": 0.3,
        "velocity": 0.61,
        "hand": "right"
      },
      {
        "midi": 61,
        "time": 27,
        "duration": 0.15,
        "velocity": 0.56,
        "hand": "right"
      },
      {
        "midi": 61,
        "time": 27,
        "duration": 0.45,
        "velocity": 0.58,
        "hand": "right"
      },
      {
        "midi": 61,
        "time": 27,
        "duration": 0.3,
        "velocity": 0.52,
        "hand": "right"
      },
      {
        "midi": 63,
        "time": 27,
        "duration": 0.3,
        "velocity": 0.58,
        "hand": "right"
      },
      {
        "midi": 63,
        "time": 27,
        "duration": 0.15,
        "velocity": 0.57,
        "hand": "right"
      },
      {
        "midi": 63,
        "time": 27,
        "duration": 0.45,
        "velocity": 0.58,
        "hand": "right"
      },
      {
        "midi": 63,
        "time": 27,
        "duration": 0.3,
        "velocity": 0.54,
        "hand": "right"
      },
      {
        "midi": 65,
        "time": 27,
        "duration": 0.3,
        "velocity": 0.58,
        "hand": "right"
      },
      {
        "midi": 66,
        "time": 27,
        "duration": 0.3,
        "velocity": 0.54,
        "hand": "right"
      },
      {
        "midi": 68,
        "time": 27,
        "duration": 0.3,
        "velocity": 0.61,
        "hand": "right"
      },
      {
        "midi": 68,
        "time": 27,
        "duration": 0.15,
        "velocity": 0.54,
        "hand": "right"
      },
      {
        "midi": 68,
        "time": 27,
        "duration": 0.45,
        "velocity": 0.54,
        "hand": "right"
      },
      {
        "midi": 70,
        "time": 27,
        "duration": 0.075,
        "velocity": 0.69,
        "hand": "right"
      },
      {
        "midi": 38,
        "time": 27.3,
        "duration": 0.075,
        "velocity": 0.55,
        "hand": "left"
      },
      {
        "midi": 42,
        "time": 27.3,
        "duration": 0.075,
        "velocity": 0.54,
        "hand": "left"
      },
      {
        "midi": 51,
        "time": 27.3,
        "duration": 0.075,
        "velocity": 0.54,
        "hand": "left"
      },
      {
        "midi": 54,
        "time": 27.3,
        "duration": 0.075,
        "velocity": 0.64,
        "hand": "left"
      },
      {
        "midi": 58,
        "time": 27.3,
        "duration": 0.15,
        "velocity": 0.65,
        "hand": "left"
      },
      {
        "midi": 61,
        "time": 27.3,
        "duration": 0.15,
        "velocity": 0.69,
        "hand": "right"
      },
      {
        "midi": 63,
        "time": 27.3,
        "duration": 0.15,
        "velocity": 0.69,
        "hand": "right"
      },
      {
        "midi": 64,
        "time": 27.3,
        "duration": 0.15,
        "velocity": 0.64,
        "hand": "right"
      },
      {
        "midi": 68,
        "time": 27.3,
        "duration": 0.15,
        "velocity": 0.57,
        "hand": "right"
      },
      {
        "midi": 70,
        "time": 27.3,
        "duration": 0.075,
        "velocity": 0.7,
        "hand": "right"
      },
      {
        "midi": 35,
        "time": 27.6,
        "duration": 0.075,
        "velocity": 0.56,
        "hand": "left"
      },
      {
        "midi": 38,
        "time": 27.6,
        "duration": 0.6,
        "velocity": 0.87,
        "hand": "left"
      },
      {
        "midi": 42,
        "time": 27.6,
        "duration": 0.075,
        "velocity": 0.65,
        "hand": "left"
      },
      {
        "midi": 51,
        "time": 27.6,
        "duration": 0.075,
        "velocity": 0.57,
        "hand": "left"
      },
      {
        "midi": 57,
        "time": 27.6,
        "duration": 0.6,
        "velocity": 0.51,
        "hand": "left"
      },
      {
        "midi": 57,
        "time": 27.6,
        "duration": 2.25,
        "velocity": 0.5,
        "hand": "left"
      },
      {
        "midi": 57,
        "time": 27.6,
        "duration": 1.05,
        "velocity": 0.57,
        "hand": "left"
      },
      {
        "midi": 60,
        "time": 27.6,
        "duration": 0.45,
        "velocity": 0.52,
        "hand": "right"
      },
      {
        "midi": 60,
        "time": 27.6,
        "duration": 2.25,
        "velocity": 0.49,
        "hand": "right"
      },
      {
        "midi": 60,
        "time": 27.6,
        "duration": 1.05,
        "velocity": 0.54,
        "hand": "right"
      },
      {
        "midi": 62,
        "time": 27.6,
        "duration": 0.75,
        "velocity": 0.61,
        "hand": "right"
      },
      {
        "midi": 62,
        "time": 27.6,
        "duration": 3.3,
        "velocity": 0.49,
        "hand": "right"
      },
      {
        "midi": 62,
        "time": 27.6,
        "duration": 1.05,
        "velocity": 0.59,
        "hand": "right"
      },
      {
        "midi": 64,
        "time": 27.6,
        "duration": 0.6,
        "velocity": 0.5,
        "hand": "right"
      },
      {
        "midi": 65,
        "time": 27.6,
        "duration": 3.3,
        "velocity": 0.45,
        "hand": "right"
      },
      {
        "midi": 65,
        "time": 27.6,
        "duration": 1.05,
        "velocity": 0.57,
        "hand": "right"
      },
      {
        "midi": 67,
        "time": 27.6,
        "duration": 0.45,
        "velocity": 0.5,
        "hand": "right"
      },
      {
        "midi": 70,
        "time": 27.6,
        "duration": 0.075,
        "velocity": 0.72,
        "hand": "right"
      },
      {
        "midi": 38,
        "time": 27.9,
        "duration": 0.075,
        "velocity": 0.54,
        "hand": "left"
      },
      {
        "midi": 42,
        "time": 27.9,
        "duration": 0.075,
        "velocity": 0.58,
        "hand": "left"
      },
      {
        "midi": 51,
        "time": 27.9,
        "duration": 0.075,
        "velocity": 0.54,
        "hand": "left"
      },
      {
        "midi": 54,
        "time": 27.9,
        "duration": 0.075,
        "velocity": 0.56,
        "hand": "left"
      },
      {
        "midi": 57,
        "time": 27.9,
        "duration": 0.075,
        "velocity": 0.54,
        "hand": "left"
      },
      {
        "midi": 60,
        "time": 27.9,
        "duration": 0.075,
        "velocity": 0.61,
        "hand": "right"
      },
      {
        "midi": 64,
        "time": 27.9,
        "duration": 0.075,
        "velocity": 0.57,
        "hand": "right"
      },
      {
        "midi": 67,
        "time": 27.9,
        "duration": 0.075,
        "velocity": 0.5,
        "hand": "right"
      },
      {
        "midi": 33,
        "time": 28.2,
        "duration": 0.45,
        "velocity": 0.87,
        "hand": "left"
      },
      {
        "midi": 35,
        "time": 28.2,
        "duration": 0.075,
        "velocity": 0.61,
        "hand": "left"
      },
      {
        "midi": 42,
        "time": 28.2,
        "duration": 0.075,
        "velocity": 0.55,
        "hand": "left"
      },
      {
        "midi": 51,
        "time": 28.2,
        "duration": 0.075,
        "velocity": 0.61,
        "hand": "left"
      },
      {
        "midi": 57,
        "time": 28.2,
        "duration": 0.15,
        "velocity": 0.5,
        "hand": "left"
      },
      {
        "midi": 60,
        "time": 28.2,
        "duration": 0.15,
        "velocity": 0.51,
        "hand": "right"
      },
      {
        "midi": 64,
        "time": 28.2,
        "duration": 0.15,
        "velocity": 0.49,
        "hand": "right"
      },
      {
        "midi": 67,
        "time": 28.2,
        "duration": 0.15,
        "velocity": 0.39,
        "hand": "right"
      },
      {
        "midi": 38,
        "time": 28.5,
        "duration": 0.075,
        "velocity": 0.56,
        "hand": "left"
      },
      {
        "midi": 42,
        "time": 28.5,
        "duration": 0.075,
        "velocity": 0.55,
        "hand": "left"
      },
      {
        "midi": 51,
        "time": 28.5,
        "duration": 0.075,
        "velocity": 0.56,
        "hand": "left"
      },
      {
        "midi": 54,
        "time": 28.5,
        "duration": 0.075,
        "velocity": 0.58,
        "hand": "left"
      },
      {
        "midi": 57,
        "time": 28.5,
        "duration": 0.075,
        "velocity": 0.65,
        "hand": "left"
      },
      {
        "midi": 60,
        "time": 28.5,
        "duration": 0.075,
        "velocity": 0.72,
        "hand": "right"
      },
      {
        "midi": 64,
        "time": 28.5,
        "duration": 0.075,
        "velocity": 0.59,
        "hand": "right"
      },
      {
        "midi": 67,
        "time": 28.5,
        "duration": 0.15,
        "velocity": 0.55,
        "hand": "right"
      },
      {
        "midi": 69,
        "time": 28.5,
        "duration": 0.15,
        "velocity": 0.72,
        "hand": "right"
      },
      {
        "midi": 35,
        "time": 28.8,
        "duration": 0.075,
        "velocity": 0.7,
        "hand": "left"
      },
      {
        "midi": 38,
        "time": 28.8,
        "duration": 0.6,
        "velocity": 0.84,
        "hand": "left"
      },
      {
        "midi": 42,
        "time": 28.8,
        "duration": 0.075,
        "velocity": 0.54,
        "hand": "left"
      },
      {
        "midi": 51,
        "time": 28.8,
        "duration": 0.075,
        "velocity": 0.53,
        "hand": "left"
      },
      {
        "midi": 57,
        "time": 28.8,
        "duration": 0.15,
        "velocity": 0.51,
        "hand": "left"
      },
      {
        "midi": 57,
        "time": 28.8,
        "duration": 0.9,
        "velocity": 0.7,
        "hand": "left"
      },
      {
        "midi": 60,
        "time": 28.8,
        "duration": 0.075,
        "velocity": 0.54,
        "hand": "right"
      },
      {
        "midi": 60,
        "time": 28.8,
        "duration": 0.9,
        "velocity": 0.72,
        "hand": "right"
      },
      {
        "midi": 62,
        "time": 28.8,
        "duration": 1.05,
        "velocity": 0.68,
        "hand": "right"
      },
      {
        "midi": 64,
        "time": 28.8,
        "duration": 0.15,
        "velocity": 0.55,
        "hand": "right"
      },
      {
        "midi": 65,
        "time": 28.8,
        "duration": 1.05,
        "velocity": 0.58,
        "hand": "right"
      },
      {
        "midi": 67,
        "time": 28.8,
        "duration": 0.15,
        "velocity": 0.5,
        "hand": "right"
      },
      {
        "midi": 69,
        "time": 28.8,
        "duration": 0.15,
        "velocity": 0.59,
        "hand": "right"
      },
      {
        "midi": 57,
        "time": 28.95,
        "duration": 0.15,
        "velocity": 0.48,
        "hand": "left"
      },
      {
        "midi": 60,
        "time": 28.95,
        "duration": 0.075,
        "velocity": 0.53,
        "hand": "right"
      },
      {
        "midi": 64,
        "time": 28.95,
        "duration": 0.15,
        "velocity": 0.44,
        "hand": "right"
      },
      {
        "midi": 67,
        "time": 28.95,
        "duration": 0.075,
        "velocity": 0.31,
        "hand": "right"
      },
      {
        "midi": 38,
        "time": 29.1,
        "duration": 0.075,
        "velocity": 0.57,
        "hand": "left"
      },
      {
        "midi": 42,
        "time": 29.1,
        "duration": 0.075,
        "velocity": 0.61,
        "hand": "left"
      },
      {
        "midi": 51,
        "time": 29.1,
        "duration": 0.075,
        "velocity": 0.61,
        "hand": "left"
      },
      {
        "midi": 54,
        "time": 29.1,
        "duration": 0.075,
        "velocity": 0.57,
        "hand": "left"
      },
      {
        "midi": 57,
        "time": 29.1,
        "duration": 0.075,
        "velocity": 0.58,
        "hand": "left"
      },
      {
        "midi": 60,
        "time": 29.1,
        "duration": 0.075,
        "velocity": 0.72,
        "hand": "right"
      },
      {
        "midi": 64,
        "time": 29.1,
        "duration": 0.075,
        "velocity": 0.57,
        "hand": "right"
      },
      {
        "midi": 67,
        "time": 29.1,
        "duration": 0.075,
        "velocity": 0.52,
        "hand": "right"
      },
      {
        "midi": 69,
        "time": 29.1,
        "duration": 0.3,
        "velocity": 0.57,
        "hand": "right"
      },
      {
        "midi": 70,
        "time": 29.1,
        "duration": 0.075,
        "velocity": 0.7,
        "hand": "right"
      },
      {
        "midi": 33,
        "time": 29.4,
        "duration": 0.45,
        "velocity": 0.97,
        "hand": "left"
      },
      {
        "midi": 35,
        "time": 29.4,
        "duration": 0.075,
        "velocity": 0.73,
        "hand": "left"
      },
      {
        "midi": 42,
        "time": 29.4,
        "duration": 0.075,
        "velocity": 0.57,
        "hand": "left"
      },
      {
        "midi": 51,
        "time": 29.4,
        "duration": 0.075,
        "velocity": 0.53,
        "hand": "left"
      },
      {
        "midi": 57,
        "time": 29.4,
        "duration": 0.15,
        "velocity": 0.63,
        "hand": "left"
      },
      {
        "midi": 60,
        "time": 29.4,
        "duration": 0.15,
        "velocity": 0.68,
        "hand": "right"
      },
      {
        "midi": 64,
        "time": 29.4,
        "duration": 0.15,
        "velocity": 0.61,
        "hand": "right"
      },
      {
        "midi": 67,
        "time": 29.4,
        "duration": 0.15,
        "velocity": 0.51,
        "hand": "right"
      },
      {
        "midi": 70,
        "time": 29.4,
        "duration": 0.075,
        "velocity": 0.63,
        "hand": "right"
      },
      {
        "midi": 71,
        "time": 29.4,
        "duration": 0.3,
        "velocity": 0.57,
        "hand": "right"
      },
      {
        "midi": 38,
        "time": 29.7,
        "duration": 0.075,
        "velocity": 0.55,
        "hand": "left"
      },
      {
        "midi": 42,
        "time": 29.7,
        "duration": 0.075,
        "velocity": 0.56,
        "hand": "left"
      },
      {
        "midi": 51,
        "time": 29.7,
        "duration": 0.075,
        "velocity": 0.57,
        "hand": "left"
      },
      {
        "midi": 54,
        "time": 29.7,
        "duration": 0.075,
        "velocity": 0.5,
        "hand": "left"
      },
      {
        "midi": 57,
        "time": 29.7,
        "duration": 0.15,
        "velocity": 0.59,
        "hand": "left"
      },
      {
        "midi": 60,
        "time": 29.7,
        "duration": 0.075,
        "velocity": 0.68,
        "hand": "right"
      },
      {
        "midi": 64,
        "time": 29.7,
        "duration": 0.15,
        "velocity": 0.61,
        "hand": "right"
      },
      {
        "midi": 67,
        "time": 29.7,
        "duration": 0.15,
        "velocity": 0.56,
        "hand": "right"
      },
      {
        "midi": 69,
        "time": 29.7,
        "duration": 0.3,
        "velocity": 0.54,
        "hand": "right"
      },
      {
        "midi": 70,
        "time": 29.7,
        "duration": 0.075,
        "velocity": 0.56,
        "hand": "right"
      },
      {
        "midi": 35,
        "time": 30,
        "duration": 0.075,
        "velocity": 0.72,
        "hand": "left"
      },
      {
        "midi": 38,
        "time": 30,
        "duration": 0.6,
        "velocity": 0.98,
        "hand": "left"
      },
      {
        "midi": 42,
        "time": 30,
        "duration": 0.075,
        "velocity": 0.54,
        "hand": "left"
      },
      {
        "midi": 51,
        "time": 30,
        "duration": 0.075,
        "velocity": 0.46,
        "hand": "left"
      },
      {
        "midi": 53,
        "time": 30,
        "duration": 0.45,
        "velocity": 0.57,
        "hand": "left"
      },
      {
        "midi": 55,
        "time": 30,
        "duration": 0.75,
        "velocity": 0.55,
        "hand": "left"
      },
      {
        "midi": 55,
        "time": 30,
        "duration": 0.9,
        "velocity": 0.61,
        "hand": "left"
      },
      {
        "midi": 57,
        "time": 30,
        "duration": 0.45,
        "velocity": 0.56,
        "hand": "left"
      },
      {
        "midi": 59,
        "time": 30,
        "duration": 0.45,
        "velocity": 0.56,
        "hand": "left"
      },
      {
        "midi": 59,
        "time": 30,
        "duration": 0.75,
        "velocity": 0.53,
        "hand": "left"
      },
      {
        "midi": 59,
        "time": 30,
        "duration": 0.9,
        "velocity": 0.54,
        "hand": "left"
      },
      {
        "midi": 62,
        "time": 30,
        "duration": 1.05,
        "velocity": 0.59,
        "hand": "right"
      },
      {
        "midi": 64,
        "time": 30,
        "duration": 0.45,
        "velocity": 0.54,
        "hand": "right"
      },
      {
        "midi": 65,
        "time": 30,
        "duration": 0.9,
        "velocity": 0.55,
        "hand": "right"
      },
      {
        "midi": 67,
        "time": 30,
        "duration": 0.15,
        "velocity": 0.64,
        "hand": "right"
      },
      {
        "midi": 70,
        "time": 30,
        "duration": 0.075,
        "velocity": 0.73,
        "hand": "right"
      },
      {
        "midi": 38,
        "time": 30.3,
        "duration": 0.075,
        "velocity": 0.56,
        "hand": "left"
      },
      {
        "midi": 42,
        "time": 30.3,
        "duration": 0.075,
        "velocity": 0.46,
        "hand": "left"
      },
      {
        "midi": 51,
        "time": 30.3,
        "duration": 0.075,
        "velocity": 0.52,
        "hand": "left"
      },
      {
        "midi": 54,
        "time": 30.3,
        "duration": 0.075,
        "velocity": 0.56,
        "hand": "left"
      },
      {
        "midi": 59,
        "time": 30.3,
        "duration": 0.075,
        "velocity": 0.61,
        "hand": "left"
      },
      {
        "midi": 62,
        "time": 30.3,
        "duration": 0.075,
        "velocity": 0.68,
        "hand": "right"
      },
      {
        "midi": 64,
        "time": 30.3,
        "duration": 0.075,
        "velocity": 0.69,
        "hand": "right"
      },
      {
        "midi": 67,
        "time": 30.3,
        "duration": 0.3,
        "velocity": 0.52,
        "hand": "right"
      },
      {
        "midi": 69,
        "time": 30.3,
        "duration": 0.15,
        "velocity": 0.63,
        "hand": "right"
      },
      {
        "midi": 35,
        "time": 30.6,
        "duration": 0.075,
        "velocity": 0.7,
        "hand": "left"
      },
      {
        "midi": 38,
        "time": 30.6,
        "duration": 0.6,
        "velocity": 0.94,
        "hand": "left"
      },
      {
        "midi": 42,
        "time": 30.6,
        "duration": 0.075,
        "velocity": 0.5,
        "hand": "left"
      },
      {
        "midi": 51,
        "time": 30.6,
        "duration": 0.075,
        "velocity": 0.54,
        "hand": "left"
      },
      {
        "midi": 53,
        "time": 30.6,
        "duration": 0.15,
        "velocity": 0.63,
        "hand": "left"
      },
      {
        "midi": 57,
        "time": 30.6,
        "duration": 0.15,
        "velocity": 0.56,
        "hand": "left"
      },
      {
        "midi": 59,
        "time": 30.6,
        "duration": 0.15,
        "velocity": 0.57,
        "hand": "left"
      },
      {
        "midi": 64,
        "time": 30.6,
        "duration": 0.15,
        "velocity": 0.56,
        "hand": "right"
      },
      {
        "midi": 64,
        "time": 30.6,
        "duration": 0.3,
        "velocity": 0.63,
        "hand": "right"
      },
      {
        "midi": 38,
        "time": 30.9,
        "duration": 0.075,
        "velocity": 0.53,
        "hand": "left"
      },
      {
        "midi": 42,
        "time": 30.9,
        "duration": 0.075,
        "velocity": 0.54,
        "hand": "left"
      },
      {
        "midi": 51,
        "time": 30.9,
        "duration": 0.075,
        "velocity": 0.54,
        "hand": "left"
      },
      {
        "midi": 54,
        "time": 30.9,
        "duration": 0.075,
        "velocity": 0.57,
        "hand": "left"
      },
      {
        "midi": 59,
        "time": 30.9,
        "duration": 0.075,
        "velocity": 0.7,
        "hand": "left"
      },
      {
        "midi": 62,
        "time": 30.9,
        "duration": 0.075,
        "velocity": 0.72,
        "hand": "right"
      },
      {
        "midi": 64,
        "time": 30.9,
        "duration": 0.075,
        "velocity": 0.58,
        "hand": "right"
      },
      {
        "midi": 65,
        "time": 30.9,
        "duration": 0.075,
        "velocity": 0.35,
        "hand": "right"
      },
      {
        "midi": 67,
        "time": 30.9,
        "duration": 0.15,
        "velocity": 0.54,
        "hand": "right"
      },
      {
        "midi": 69,
        "time": 30.9,
        "duration": 0.15,
        "velocity": 0.68,
        "hand": "right"
      },
      {
        "midi": 35,
        "time": 31.2,
        "duration": 0.075,
        "velocity": 0.69,
        "hand": "left"
      },
      {
        "midi": 37,
        "time": 31.2,
        "duration": 0.45,
        "velocity": 0.94,
        "hand": "left"
      },
      {
        "midi": 42,
        "time": 31.2,
        "duration": 0.075,
        "velocity": 0.54,
        "hand": "left"
      },
      {
        "midi": 51,
        "time": 31.2,
        "duration": 0.075,
        "velocity": 0.51,
        "hand": "left"
      },
      {
        "midi": 56,
        "time": 31.2,
        "duration": 0.45,
        "velocity": 0.5,
        "hand": "left"
      },
      {
        "midi": 57,
        "time": 31.2,
        "duration": 0.15,
        "velocity": 0.57,
        "hand": "left"
      },
      {
        "midi": 57,
        "time": 31.2,
        "duration": 0.45,
        "velocity": 0.54,
        "hand": "left"
      },
      {
        "midi": 60,
        "time": 31.2,
        "duration": 0.15,
        "velocity": 0.58,
        "hand": "right"
      },
      {
        "midi": 60,
        "time": 31.2,
        "duration": 0.3,
        "velocity": 0.58,
        "hand": "right"
      },
      {
        "midi": 60,
        "time": 31.2,
        "duration": 0.45,
        "velocity": 0.57,
        "hand": "right"
      },
      {
        "midi": 62,
        "time": 31.2,
        "duration": 0.3,
        "velocity": 0.57,
        "hand": "right"
      },
      {
        "midi": 62,
        "time": 31.2,
        "duration": 0.45,
        "velocity": 0.45,
        "hand": "right"
      },
      {
        "midi": 64,
        "time": 31.2,
        "duration": 0.15,
        "velocity": 0.54,
        "hand": "right"
      },
      {
        "midi": 65,
        "time": 31.2,
        "duration": 0.15,
        "velocity": 0.65,
        "hand": "right"
      },
      {
        "midi": 65,
        "time": 31.2,
        "duration": 0.3,
        "velocity": 0.55,
        "hand": "right"
      },
      {
        "midi": 65,
        "time": 31.2,
        "duration": 0.45,
        "velocity": 0.51,
        "hand": "right"
      },
      {
        "midi": 67,
        "time": 31.2,
        "duration": 0.15,
        "velocity": 0.5,
        "hand": "right"
      },
      {
        "midi": 38,
        "time": 31.5,
        "duration": 0.075,
        "velocity": 0.54,
        "hand": "left"
      },
      {
        "midi": 42,
        "time": 31.5,
        "duration": 0.075,
        "velocity": 0.57,
        "hand": "left"
      },
      {
        "midi": 51,
        "time": 31.5,
        "duration": 0.075,
        "velocity": 0.55,
        "hand": "left"
      },
      {
        "midi": 54,
        "time": 31.5,
        "duration": 0.075,
        "velocity": 0.54,
        "hand": "left"
      },
      {
        "midi": 57,
        "time": 31.5,
        "duration": 0.15,
        "velocity": 0.54,
        "hand": "left"
      },
      {
        "midi": 57,
        "time": 31.5,
        "duration": 0.075,
        "velocity": 0.64,
        "hand": "left"
      },
      {
        "midi": 60,
        "time": 31.5,
        "duration": 0.15,
        "velocity": 0.53,
        "hand": "right"
      },
      {
        "midi": 60,
        "time": 31.5,
        "duration": 0.075,
        "velocity": 0.7,
        "hand": "right"
      },
      {
        "midi": 64,
        "time": 31.5,
        "duration": 0.15,
        "velocity": 0.52,
        "hand": "right"
      },
      {
        "midi": 64,
        "time": 31.5,
        "duration": 0.075,
        "velocity": 0.54,
        "hand": "right"
      },
      {
        "midi": 65,
        "time": 31.5,
        "duration": 0.075,
        "velocity": 0.51,
        "hand": "right"
      },
      {
        "midi": 65,
        "time": 31.5,
        "duration": 0.3,
        "velocity": 0.54,
        "hand": "right"
      },
      {
        "midi": 67,
        "time": 31.5,
        "duration": 0.15,
        "velocity": 0.39,
        "hand": "right"
      },
      {
        "midi": 67,
        "time": 31.5,
        "duration": 0.075,
        "velocity": 0.61,
        "hand": "right"
      },
      {
        "midi": 70,
        "time": 31.5,
        "duration": 0.075,
        "velocity": 0.72,
        "hand": "right"
      },
      {
        "midi": 35,
        "time": 31.8,
        "duration": 0.075,
        "velocity": 0.56,
        "hand": "left"
      },
      {
        "midi": 37,
        "time": 31.8,
        "duration": 0.6,
        "velocity": 0.98,
        "hand": "left"
      },
      {
        "midi": 42,
        "time": 31.8,
        "duration": 0.075,
        "velocity": 0.57,
        "hand": "left"
      },
      {
        "midi": 51,
        "time": 31.8,
        "duration": 0.075,
        "velocity": 0.5,
        "hand": "left"
      },
      {
        "midi": 55,
        "time": 31.8,
        "duration": 0.3,
        "velocity": 0.56,
        "hand": "left"
      },
      {
        "midi": 56,
        "time": 31.8,
        "duration": 0.15,
        "velocity": 0.55,
        "hand": "left"
      },
      {
        "midi": 56,
        "time": 31.8,
        "duration": 0.45,
        "velocity": 0.46,
        "hand": "left"
      },
      {
        "midi": 58,
        "time": 31.8,
        "duration": 0.075,
        "velocity": 0.44,
        "hand": "left"
      },
      {
        "midi": 59,
        "time": 31.8,
        "duration": 0.15,
        "velocity": 0.55,
        "hand": "left"
      },
      {
        "midi": 59,
        "time": 31.8,
        "duration": 0.3,
        "velocity": 0.52,
        "hand": "left"
      },
      {
        "midi": 62,
        "time": 31.8,
        "duration": 0.45,
        "velocity": 0.54,
        "hand": "right"
      },
      {
        "midi": 63,
        "time": 31.8,
        "duration": 0.15,
        "velocity": 0.51,
        "hand": "right"
      },
      {
        "midi": 63,
        "time": 31.8,
        "duration": 0.45,
        "velocity": 0.54,
        "hand": "right"
      },
      {
        "midi": 64,
        "time": 31.8,
        "duration": 0.3,
        "velocity": 0.61,
        "hand": "right"
      },
      {
        "midi": 65,
        "time": 31.8,
        "duration": 0.45,
        "velocity": 0.5,
        "hand": "right"
      },
      {
        "midi": 67,
        "time": 31.8,
        "duration": 0.15,
        "velocity": 0.37,
        "hand": "right"
      },
      {
        "midi": 67,
        "time": 31.8,
        "duration": 0.45,
        "velocity": 0.36,
        "hand": "right"
      },
      {
        "midi": 68,
        "time": 31.8,
        "duration": 0.15,
        "velocity": 0.37,
        "hand": "right"
      },
      {
        "midi": 70,
        "time": 31.8,
        "duration": 0.075,
        "velocity": 0.69,
        "hand": "right"
      },
      {
        "midi": 38,
        "time": 32.1,
        "duration": 0.075,
        "velocity": 0.55,
        "hand": "left"
      },
      {
        "midi": 42,
        "time": 32.1,
        "duration": 0.075,
        "velocity": 0.54,
        "hand": "left"
      },
      {
        "midi": 51,
        "time": 32.1,
        "duration": 0.075,
        "velocity": 0.54,
        "hand": "left"
      },
      {
        "midi": 54,
        "time": 32.1,
        "duration": 0.075,
        "velocity": 0.64,
        "hand": "left"
      },
      {
        "midi": 56,
        "time": 32.1,
        "duration": 0.15,
        "velocity": 0.53,
        "hand": "left"
      },
      {
        "midi": 59,
        "time": 32.1,
        "duration": 0.15,
        "velocity": 0.55,
        "hand": "left"
      },
      {
        "midi": 62,
        "time": 32.1,
        "duration": 0.3,
        "velocity": 0.57,
        "hand": "right"
      },
      {
        "midi": 63,
        "time": 32.1,
        "duration": 0.15,
        "velocity": 0.43,
        "hand": "right"
      },
      {
        "midi": 67,
        "time": 32.1,
        "duration": 0.15,
        "velocity": 0.49,
        "hand": "right"
      },
      {
        "midi": 70,
        "time": 32.1,
        "duration": 0.075,
        "velocity": 0.7,
        "hand": "right"
      },
      {
        "midi": 35,
        "time": 32.4,
        "duration": 0.075,
        "velocity": 0.56,
        "hand": "left"
      },
      {
        "midi": 36,
        "time": 32.4,
        "duration": 0.6,
        "velocity": 0.8,
        "hand": "left"
      },
      {
        "midi": 42,
        "time": 32.4,
        "duration": 0.075,
        "velocity": 0.65,
        "hand": "left"
      },
      {
        "midi": 51,
        "time": 32.4,
        "duration": 0.075,
        "velocity": 0.57,
        "hand": "left"
      },
      {
        "midi": 57,
        "time": 32.4,
        "duration": 0.6,
        "velocity": 0.53,
        "hand": "left"
      },
      {
        "midi": 57,
        "time": 32.4,
        "duration": 0.9,
        "velocity": 0.54,
        "hand": "left"
      },
      {
        "midi": 62,
        "time": 32.4,
        "duration": 0.6,
        "velocity": 0.55,
        "hand": "right"
      },
      {
        "midi": 62,
        "time": 32.4,
        "duration": 0.9,
        "velocity": 0.46,
        "hand": "right"
      },
      {
        "midi": 64,
        "time": 32.4,
        "duration": 0.75,
        "velocity": 0.72,
        "hand": "right"
      },
      {
        "midi": 67,
        "time": 32.4,
        "duration": 0.6,
        "velocity": 0.54,
        "hand": "right"
      },
      {
        "midi": 67,
        "time": 32.4,
        "duration": 0.9,
        "velocity": 0.5,
        "hand": "right"
      },
      {
        "midi": 70,
        "time": 32.4,
        "duration": 0.075,
        "velocity": 0.72,
        "hand": "right"
      },
      {
        "midi": 38,
        "time": 32.7,
        "duration": 0.075,
        "velocity": 0.54,
        "hand": "left"
      },
      {
        "midi": 42,
        "time": 32.7,
        "duration": 0.075,
        "velocity": 0.58,
        "hand": "left"
      },
      {
        "midi": 51,
        "time": 32.7,
        "duration": 0.075,
        "velocity": 0.54,
        "hand": "left"
      },
      {
        "midi": 54,
        "time": 32.7,
        "duration": 0.075,
        "velocity": 0.56,
        "hand": "left"
      },
      {
        "midi": 57,
        "time": 32.7,
        "duration": 0.075,
        "velocity": 0.57,
        "hand": "left"
      },
      {
        "midi": 62,
        "time": 32.7,
        "duration": 0.075,
        "velocity": 0.72,
        "hand": "right"
      },
      {
        "midi": 67,
        "time": 32.7,
        "duration": 0.15,
        "velocity": 0.56,
        "hand": "right"
      },
      {
        "midi": 31,
        "time": 33,
        "duration": 0.6,
        "velocity": 0.79,
        "hand": "left"
      },
      {
        "midi": 35,
        "time": 33,
        "duration": 0.075,
        "velocity": 0.61,
        "hand": "left"
      },
      {
        "midi": 42,
        "time": 33,
        "duration": 0.075,
        "velocity": 0.55,
        "hand": "left"
      },
      {
        "midi": 51,
        "time": 33,
        "duration": 0.075,
        "velocity": 0.61,
        "hand": "left"
      },
      {
        "midi": 57,
        "time": 33,
        "duration": 0.075,
        "velocity": 0.57,
        "hand": "left"
      },
      {
        "midi": 62,
        "time": 33,
        "duration": 0.075,
        "velocity": 0.61,
        "hand": "right"
      },
      {
        "midi": 67,
        "time": 33,
        "duration": 0.15,
        "velocity": 0.54,
        "hand": "right"
      },
      {
        "midi": 38,
        "time": 33.3,
        "duration": 0.075,
        "velocity": 0.56,
        "hand": "left"
      },
      {
        "midi": 42,
        "time": 33.3,
        "duration": 0.075,
        "velocity": 0.55,
        "hand": "left"
      },
      {
        "midi": 51,
        "time": 33.3,
        "duration": 0.075,
        "velocity": 0.56,
        "hand": "left"
      },
      {
        "midi": 54,
        "time": 33.3,
        "duration": 0.075,
        "velocity": 0.58,
        "hand": "left"
      },
      {
        "midi": 57,
        "time": 33.3,
        "duration": 0.075,
        "velocity": 0.57,
        "hand": "left"
      },
      {
        "midi": 62,
        "time": 33.3,
        "duration": 0.075,
        "velocity": 0.65,
        "hand": "right"
      },
      {
        "midi": 64,
        "time": 33.3,
        "duration": 0.3,
        "velocity": 0.72,
        "hand": "right"
      },
      {
        "midi": 67,
        "time": 33.3,
        "duration": 0.15,
        "velocity": 0.57,
        "hand": "right"
      },
      {
        "midi": 35,
        "time": 33.6,
        "duration": 0.075,
        "velocity": 0.7,
        "hand": "left"
      },
      {
        "midi": 36,
        "time": 33.6,
        "duration": 0.6,
        "velocity": 0.96,
        "hand": "left"
      },
      {
        "midi": 42,
        "time": 33.6,
        "duration": 0.075,
        "velocity": 0.54,
        "hand": "left"
      },
      {
        "midi": 51,
        "time": 33.6,
        "duration": 0.075,
        "velocity": 0.53,
        "hand": "left"
      },
      {
        "midi": 57,
        "time": 33.6,
        "duration": 0.6,
        "velocity": 0.43,
        "hand": "left"
      },
      {
        "midi": 57,
        "time": 33.6,
        "duration": 1.8,
        "velocity": 0.55,
        "hand": "left"
      },
      {
        "midi": 57,
        "time": 33.6,
        "duration": 2.1,
        "velocity": 0.69,
        "hand": "left"
      },
      {
        "midi": 57,
        "time": 33.6,
        "duration": 0.075,
        "velocity": 0.79,
        "hand": "left"
      },
      {
        "midi": 62,
        "time": 33.6,
        "duration": 0.6,
        "velocity": 0.48,
        "hand": "right"
      },
      {
        "midi": 62,
        "time": 33.6,
        "duration": 1.95,
        "velocity": 0.57,
        "hand": "right"
      },
      {
        "midi": 62,
        "time": 33.6,
        "duration": 2.1,
        "velocity": 0.72,
        "hand": "right"
      },
      {
        "midi": 67,
        "time": 33.6,
        "duration": 0.6,
        "velocity": 0.43,
        "hand": "right"
      },
      {
        "midi": 67,
        "time": 33.6,
        "duration": 0.15,
        "velocity": 0.79,
        "hand": "right"
      },
      {
        "midi": 67,
        "time": 33.6,
        "duration": 2.1,
        "velocity": 0.58,
        "hand": "right"
      },
      {
        "midi": 38,
        "time": 33.9,
        "duration": 0.075,
        "velocity": 0.57,
        "hand": "left"
      },
      {
        "midi": 42,
        "time": 33.9,
        "duration": 0.075,
        "velocity": 0.61,
        "hand": "left"
      },
      {
        "midi": 51,
        "time": 33.9,
        "duration": 0.075,
        "velocity": 0.61,
        "hand": "left"
      },
      {
        "midi": 54,
        "time": 33.9,
        "duration": 0.075,
        "velocity": 0.57,
        "hand": "left"
      },
      {
        "midi": 57,
        "time": 33.9,
        "duration": 0.15,
        "velocity": 0.64,
        "hand": "left"
      },
      {
        "midi": 62,
        "time": 33.9,
        "duration": 0.075,
        "velocity": 0.7,
        "hand": "right"
      },
      {
        "midi": 67,
        "time": 33.9,
        "duration": 0.15,
        "velocity": 0.54,
        "hand": "right"
      },
      {
        "midi": 67,
        "time": 33.9,
        "duration": 0.3,
        "velocity": 0.54,
        "hand": "right"
      },
      {
        "midi": 70,
        "time": 33.9,
        "duration": 0.075,
        "velocity": 0.7,
        "hand": "right"
      },
      {
        "midi": 31,
        "time": 34.2,
        "duration": 0.6,
        "velocity": 0.96,
        "hand": "left"
      },
      {
        "midi": 35,
        "time": 34.2,
        "duration": 0.075,
        "velocity": 0.73,
        "hand": "left"
      },
      {
        "midi": 42,
        "time": 34.2,
        "duration": 0.075,
        "velocity": 0.57,
        "hand": "left"
      },
      {
        "midi": 51,
        "time": 34.2,
        "duration": 0.075,
        "velocity": 0.53,
        "hand": "left"
      },
      {
        "midi": 57,
        "time": 34.2,
        "duration": 0.45,
        "velocity": 0.43,
        "hand": "left"
      },
      {
        "midi": 62,
        "time": 34.2,
        "duration": 0.45,
        "velocity": 0.49,
        "hand": "right"
      },
      {
        "midi": 64,
        "time": 34.2,
        "duration": 0.3,
        "velocity": 0.59,
        "hand": "right"
      },
      {
        "midi": 67,
        "time": 34.2,
        "duration": 0.45,
        "velocity": 0.49,
        "hand": "right"
      },
      {
        "midi": 70,
        "time": 34.2,
        "duration": 0.075,
        "velocity": 0.63,
        "hand": "right"
      },
      {
        "midi": 38,
        "time": 34.5,
        "duration": 0.075,
        "velocity": 0.55,
        "hand": "left"
      },
      {
        "midi": 42,
        "time": 34.5,
        "duration": 0.075,
        "velocity": 0.56,
        "hand": "left"
      },
      {
        "midi": 51,
        "time": 34.5,
        "duration": 0.075,
        "velocity": 0.57,
        "hand": "left"
      },
      {
        "midi": 54,
        "time": 34.5,
        "duration": 0.075,
        "velocity": 0.5,
        "hand": "left"
      },
      {
        "midi": 57,
        "time": 34.5,
        "duration": 0.075,
        "velocity": 0.64,
        "hand": "left"
      },
      {
        "midi": 62,
        "time": 34.5,
        "duration": 0.075,
        "velocity": 0.72,
        "hand": "right"
      },
      {
        "midi": 65,
        "time": 34.5,
        "duration": 0.3,
        "velocity": 0.61,
        "hand": "right"
      },
      {
        "midi": 67,
        "time": 34.5,
        "duration": 0.075,
        "velocity": 0.56,
        "hand": "right"
      },
      {
        "midi": 70,
        "time": 34.5,
        "duration": 0.075,
        "velocity": 0.56,
        "hand": "right"
      },
      {
        "midi": 35,
        "time": 34.8,
        "duration": 0.075,
        "velocity": 0.72,
        "hand": "left"
      },
      {
        "midi": 36,
        "time": 34.8,
        "duration": 0.6,
        "velocity": 0.96,
        "hand": "left"
      },
      {
        "midi": 42,
        "time": 34.8,
        "duration": 0.075,
        "velocity": 0.54,
        "hand": "left"
      },
      {
        "midi": 51,
        "time": 34.8,
        "duration": 0.075,
        "velocity": 0.46,
        "hand": "left"
      },
      {
        "midi": 57,
        "time": 34.8,
        "duration": 0.6,
        "velocity": 0.56,
        "hand": "left"
      },
      {
        "midi": 62,
        "time": 34.8,
        "duration": 0.6,
        "velocity": 0.59,
        "hand": "right"
      },
      {
        "midi": 67,
        "time": 34.8,
        "duration": 0.6,
        "velocity": 0.61,
        "hand": "right"
      },
      {
        "midi": 67,
        "time": 34.8,
        "duration": 0.3,
        "velocity": 0.54,
        "hand": "right"
      },
      {
        "midi": 70,
        "time": 34.8,
        "duration": 0.075,
        "velocity": 0.73,
        "hand": "right"
      },
      {
        "midi": 38,
        "time": 35.1,
        "duration": 0.075,
        "velocity": 0.56,
        "hand": "left"
      },
      {
        "midi": 42,
        "time": 35.1,
        "duration": 0.075,
        "velocity": 0.46,
        "hand": "left"
      },
      {
        "midi": 51,
        "time": 35.1,
        "duration": 0.075,
        "velocity": 0.52,
        "hand": "left"
      },
      {
        "midi": 54,
        "time": 35.1,
        "duration": 0.075,
        "velocity": 0.56,
        "hand": "left"
      },
      {
        "midi": 57,
        "time": 35.1,
        "duration": 0.15,
        "velocity": 0.72,
        "hand": "left"
      },
      {
        "midi": 62,
        "time": 35.1,
        "duration": 0.075,
        "velocity": 0.72,
        "hand": "right"
      },
      {
        "midi": 67,
        "time": 35.1,
        "duration": 0.075,
        "velocity": 0.57,
        "hand": "right"
      },
      {
        "midi": 67,
        "time": 35.1,
        "duration": 0.15,
        "velocity": 0.72,
        "hand": "right"
      },
      {
        "midi": 31,
        "time": 35.4,
        "duration": 0.6,
        "velocity": 0.96,
        "hand": "left"
      },
      {
        "midi": 35,
        "time": 35.4,
        "duration": 0.075,
        "velocity": 0.7,
        "hand": "left"
      },
      {
        "midi": 42,
        "time": 35.4,
        "duration": 0.075,
        "velocity": 0.5,
        "hand": "left"
      },
      {
        "midi": 51,
        "time": 35.4,
        "duration": 0.075,
        "velocity": 0.54,
        "hand": "left"
      },
      {
        "midi": 57,
        "time": 35.4,
        "duration": 0.15,
        "velocity": 0.5,
        "hand": "left"
      },
      {
        "midi": 62,
        "time": 35.4,
        "duration": 0.15,
        "velocity": 0.52,
        "hand": "right"
      },
      {
        "midi": 67,
        "time": 35.4,
        "duration": 0.15,
        "velocity": 0.5,
        "hand": "right"
      },
      {
        "midi": 38,
        "time": 35.7,
        "duration": 0.075,
        "velocity": 0.53,
        "hand": "left"
      },
      {
        "midi": 42,
        "time": 35.7,
        "duration": 0.075,
        "velocity": 0.54,
        "hand": "left"
      },
      {
        "midi": 51,
        "time": 35.7,
        "duration": 0.075,
        "velocity": 0.54,
        "hand": "left"
      },
      {
        "midi": 54,
        "time": 35.7,
        "duration": 0.075,
        "velocity": 0.57,
        "hand": "left"
      },
      {
        "midi": 57,
        "time": 35.7,
        "duration": 0.15,
        "velocity": 0.51,
        "hand": "left"
      },
      {
        "midi": 62,
        "time": 35.7,
        "duration": 0.075,
        "velocity": 0.57,
        "hand": "right"
      },
      {
        "midi": 67,
        "time": 35.7,
        "duration": 0.15,
        "velocity": 0.51,
        "hand": "right"
      },
      {
        "midi": 35,
        "time": 36,
        "duration": 0.075,
        "velocity": 0.69,
        "hand": "left"
      },
      {
        "midi": 40,
        "time": 36,
        "duration": 0.6,
        "velocity": 0.96,
        "hand": "left"
      },
      {
        "midi": 42,
        "time": 36,
        "duration": 0.075,
        "velocity": 0.54,
        "hand": "left"
      },
      {
        "midi": 51,
        "time": 36,
        "duration": 0.075,
        "velocity": 0.51,
        "hand": "left"
      },
      {
        "midi": 59,
        "time": 36,
        "duration": 0.15,
        "velocity": 0.61,
        "hand": "left"
      },
      {
        "midi": 59,
        "time": 36,
        "duration": 0.3,
        "velocity": 0.57,
        "hand": "left"
      },
      {
        "midi": 62,
        "time": 36,
        "duration": 0.15,
        "velocity": 0.57,
        "hand": "right"
      },
      {
        "midi": 62,
        "time": 36,
        "duration": 0.3,
        "velocity": 0.57,
        "hand": "right"
      },
      {
        "midi": 64,
        "time": 36,
        "duration": 0.15,
        "velocity": 0.63,
        "hand": "right"
      },
      {
        "midi": 64,
        "time": 36,
        "duration": 0.3,
        "velocity": 0.59,
        "hand": "right"
      },
      {
        "midi": 67,
        "time": 36,
        "duration": 0.15,
        "velocity": 0.54,
        "hand": "right"
      },
      {
        "midi": 67,
        "time": 36,
        "duration": 0.3,
        "velocity": 0.54,
        "hand": "right"
      },
      {
        "midi": 69,
        "time": 36,
        "duration": 0.3,
        "velocity": 0.72,
        "hand": "right"
      },
      {
        "midi": 38,
        "time": 36.3,
        "duration": 0.075,
        "velocity": 0.54,
        "hand": "left"
      },
      {
        "midi": 42,
        "time": 36.3,
        "duration": 0.075,
        "velocity": 0.57,
        "hand": "left"
      },
      {
        "midi": 51,
        "time": 36.3,
        "duration": 0.075,
        "velocity": 0.55,
        "hand": "left"
      },
      {
        "midi": 54,
        "time": 36.3,
        "duration": 0.075,
        "velocity": 0.54,
        "hand": "left"
      },
      {
        "midi": 59,
        "time": 36.3,
        "duration": 0.15,
        "velocity": 0.59,
        "hand": "left"
      },
      {
        "midi": 62,
        "time": 36.3,
        "duration": 0.15,
        "velocity": 0.57,
        "hand": "right"
      },
      {
        "midi": 62,
        "time": 36.3,
        "duration": 0.075,
        "velocity": 0.57,
        "hand": "right"
      },
      {
        "midi": 64,
        "time": 36.3,
        "duration": 0.15,
        "velocity": 0.61,
        "hand": "right"
      },
      {
        "midi": 67,
        "time": 36.3,
        "duration": 0.15,
        "velocity": 0.57,
        "hand": "right"
      },
      {
        "midi": 67,
        "time": 36.3,
        "duration": 0.3,
        "velocity": 0.65,
        "hand": "right"
      },
      {
        "midi": 70,
        "time": 36.3,
        "duration": 0.075,
        "velocity": 0.72,
        "hand": "right"
      },
      {
        "midi": 35,
        "time": 36.6,
        "duration": 0.075,
        "velocity": 0.56,
        "hand": "left"
      },
      {
        "midi": 39,
        "time": 36.6,
        "duration": 0.45,
        "velocity": 0.96,
        "hand": "left"
      },
      {
        "midi": 42,
        "time": 36.6,
        "duration": 0.075,
        "velocity": 0.57,
        "hand": "left"
      },
      {
        "midi": 51,
        "time": 36.6,
        "duration": 0.075,
        "velocity": 0.5,
        "hand": "left"
      },
      {
        "midi": 58,
        "time": 36.6,
        "duration": 0.3,
        "velocity": 0.72,
        "hand": "left"
      },
      {
        "midi": 58,
        "time": 36.6,
        "duration": 0.15,
        "velocity": 0.61,
        "hand": "left"
      },
      {
        "midi": 58,
        "time": 36.6,
        "duration": 0.45,
        "velocity": 0.57,
        "hand": "left"
      },
      {
        "midi": 61,
        "time": 36.6,
        "duration": 0.3,
        "velocity": 0.61,
        "hand": "right"
      },
      {
        "midi": 61,
        "time": 36.6,
        "duration": 0.15,
        "velocity": 0.56,
        "hand": "right"
      },
      {
        "midi": 61,
        "time": 36.6,
        "duration": 0.45,
        "velocity": 0.58,
        "hand": "right"
      },
      {
        "midi": 63,
        "time": 36.6,
        "duration": 0.3,
        "velocity": 0.58,
        "hand": "right"
      },
      {
        "midi": 63,
        "time": 36.6,
        "duration": 0.15,
        "velocity": 0.57,
        "hand": "right"
      },
      {
        "midi": 63,
        "time": 36.6,
        "duration": 0.45,
        "velocity": 0.58,
        "hand": "right"
      },
      {
        "midi": 65,
        "time": 36.6,
        "duration": 0.3,
        "velocity": 0.58,
        "hand": "right"
      },
      {
        "midi": 66,
        "time": 36.6,
        "duration": 0.45,
        "velocity": 0.56,
        "hand": "right"
      },
      {
        "midi": 68,
        "time": 36.6,
        "duration": 0.3,
        "velocity": 0.61,
        "hand": "right"
      },
      {
        "midi": 68,
        "time": 36.6,
        "duration": 0.15,
        "velocity": 0.54,
        "hand": "right"
      },
      {
        "midi": 68,
        "time": 36.6,
        "duration": 0.45,
        "velocity": 0.54,
        "hand": "right"
      },
      {
        "midi": 70,
        "time": 36.6,
        "duration": 0.075,
        "velocity": 0.69,
        "hand": "right"
      },
      {
        "midi": 38,
        "time": 36.9,
        "duration": 0.075,
        "velocity": 0.55,
        "hand": "left"
      },
      {
        "midi": 42,
        "time": 36.9,
        "duration": 0.075,
        "velocity": 0.54,
        "hand": "left"
      },
      {
        "midi": 51,
        "time": 36.9,
        "duration": 0.075,
        "velocity": 0.54,
        "hand": "left"
      },
      {
        "midi": 54,
        "time": 36.9,
        "duration": 0.075,
        "velocity": 0.64,
        "hand": "left"
      },
      {
        "midi": 58,
        "time": 36.9,
        "duration": 0.15,
        "velocity": 0.65,
        "hand": "left"
      },
      {
        "midi": 61,
        "time": 36.9,
        "duration": 0.15,
        "velocity": 0.69,
        "hand": "right"
      },
      {
        "midi": 63,
        "time": 36.9,
        "duration": 0.15,
        "velocity": 0.69,
        "hand": "right"
      },
      {
        "midi": 64,
        "time": 36.9,
        "duration": 0.15,
        "velocity": 0.64,
        "hand": "right"
      },
      {
        "midi": 68,
        "time": 36.9,
        "duration": 0.15,
        "velocity": 0.57,
        "hand": "right"
      },
      {
        "midi": 70,
        "time": 36.9,
        "duration": 0.075,
        "velocity": 0.7,
        "hand": "right"
      },
      {
        "midi": 35,
        "time": 37.2,
        "duration": 0.075,
        "velocity": 0.56,
        "hand": "left"
      },
      {
        "midi": 38,
        "time": 37.2,
        "duration": 0.6,
        "velocity": 0.87,
        "hand": "left"
      },
      {
        "midi": 42,
        "time": 37.2,
        "duration": 0.075,
        "velocity": 0.65,
        "hand": "left"
      },
      {
        "midi": 51,
        "time": 37.2,
        "duration": 0.075,
        "velocity": 0.57,
        "hand": "left"
      },
      {
        "midi": 57,
        "time": 37.2,
        "duration": 0.6,
        "velocity": 0.51,
        "hand": "left"
      },
      {
        "midi": 57,
        "time": 37.2,
        "duration": 2.25,
        "velocity": 0.5,
        "hand": "left"
      },
      {
        "midi": 57,
        "time": 37.2,
        "duration": 1.05,
        "velocity": 0.64,
        "hand": "left"
      },
      {
        "midi": 60,
        "time": 37.2,
        "duration": 0.45,
        "velocity": 0.52,
        "hand": "right"
      },
      {
        "midi": 60,
        "time": 37.2,
        "duration": 2.25,
        "velocity": 0.49,
        "hand": "right"
      },
      {
        "midi": 60,
        "time": 37.2,
        "duration": 1.05,
        "velocity": 0.61,
        "hand": "right"
      },
      {
        "midi": 62,
        "time": 37.2,
        "duration": 0.75,
        "velocity": 0.61,
        "hand": "right"
      },
      {
        "midi": 62,
        "time": 37.2,
        "duration": 3.3,
        "velocity": 0.49,
        "hand": "right"
      },
      {
        "midi": 62,
        "time": 37.2,
        "duration": 1.05,
        "velocity": 0.57,
        "hand": "right"
      },
      {
        "midi": 64,
        "time": 37.2,
        "duration": 0.6,
        "velocity": 0.5,
        "hand": "right"
      },
      {
        "midi": 65,
        "time": 37.2,
        "duration": 3.3,
        "velocity": 0.45,
        "hand": "right"
      },
      {
        "midi": 65,
        "time": 37.2,
        "duration": 1.05,
        "velocity": 0.58,
        "hand": "right"
      },
      {
        "midi": 67,
        "time": 37.2,
        "duration": 0.45,
        "velocity": 0.5,
        "hand": "right"
      },
      {
        "midi": 70,
        "time": 37.2,
        "duration": 0.075,
        "velocity": 0.72,
        "hand": "right"
      },
      {
        "midi": 38,
        "time": 37.5,
        "duration": 0.075,
        "velocity": 0.54,
        "hand": "left"
      },
      {
        "midi": 42,
        "time": 37.5,
        "duration": 0.075,
        "velocity": 0.58,
        "hand": "left"
      },
      {
        "midi": 51,
        "time": 37.5,
        "duration": 0.075,
        "velocity": 0.54,
        "hand": "left"
      },
      {
        "midi": 54,
        "time": 37.5,
        "duration": 0.075,
        "velocity": 0.56,
        "hand": "left"
      },
      {
        "midi": 57,
        "time": 37.5,
        "duration": 0.075,
        "velocity": 0.54,
        "hand": "left"
      },
      {
        "midi": 60,
        "time": 37.5,
        "duration": 0.075,
        "velocity": 0.61,
        "hand": "right"
      },
      {
        "midi": 64,
        "time": 37.5,
        "duration": 0.075,
        "velocity": 0.57,
        "hand": "right"
      },
      {
        "midi": 67,
        "time": 37.5,
        "duration": 0.075,
        "velocity": 0.5,
        "hand": "right"
      },
      {
        "midi": 33,
        "time": 37.8,
        "duration": 0.45,
        "velocity": 0.87,
        "hand": "left"
      },
      {
        "midi": 35,
        "time": 37.8,
        "duration": 0.075,
        "velocity": 0.61,
        "hand": "left"
      },
      {
        "midi": 42,
        "time": 37.8,
        "duration": 0.075,
        "velocity": 0.55,
        "hand": "left"
      },
      {
        "midi": 51,
        "time": 37.8,
        "duration": 0.075,
        "velocity": 0.61,
        "hand": "left"
      },
      {
        "midi": 57,
        "time": 37.8,
        "duration": 0.15,
        "velocity": 0.5,
        "hand": "left"
      },
      {
        "midi": 60,
        "time": 37.8,
        "duration": 0.15,
        "velocity": 0.51,
        "hand": "right"
      },
      {
        "midi": 64,
        "time": 37.8,
        "duration": 0.15,
        "velocity": 0.49,
        "hand": "right"
      },
      {
        "midi": 67,
        "time": 37.8,
        "duration": 0.15,
        "velocity": 0.39,
        "hand": "right"
      },
      {
        "midi": 38,
        "time": 38.1,
        "duration": 0.075,
        "velocity": 0.56,
        "hand": "left"
      },
      {
        "midi": 42,
        "time": 38.1,
        "duration": 0.075,
        "velocity": 0.55,
        "hand": "left"
      },
      {
        "midi": 51,
        "time": 38.1,
        "duration": 0.075,
        "velocity": 0.56,
        "hand": "left"
      },
      {
        "midi": 54,
        "time": 38.1,
        "duration": 0.075,
        "velocity": 0.58,
        "hand": "left"
      },
      {
        "midi": 57,
        "time": 38.1,
        "duration": 0.075,
        "velocity": 0.65,
        "hand": "left"
      },
      {
        "midi": 60,
        "time": 38.1,
        "duration": 0.075,
        "velocity": 0.72,
        "hand": "right"
      },
      {
        "midi": 64,
        "time": 38.1,
        "duration": 0.075,
        "velocity": 0.59,
        "hand": "right"
      },
      {
        "midi": 67,
        "time": 38.1,
        "duration": 0.15,
        "velocity": 0.55,
        "hand": "right"
      },
      {
        "midi": 69,
        "time": 38.1,
        "duration": 0.15,
        "velocity": 0.72,
        "hand": "right"
      },
      {
        "midi": 35,
        "time": 38.4,
        "duration": 0.075,
        "velocity": 0.7,
        "hand": "left"
      },
      {
        "midi": 38,
        "time": 38.4,
        "duration": 0.6,
        "velocity": 0.84,
        "hand": "left"
      },
      {
        "midi": 42,
        "time": 38.4,
        "duration": 0.075,
        "velocity": 0.54,
        "hand": "left"
      },
      {
        "midi": 51,
        "time": 38.4,
        "duration": 0.075,
        "velocity": 0.53,
        "hand": "left"
      },
      {
        "midi": 57,
        "time": 38.4,
        "duration": 0.15,
        "velocity": 0.51,
        "hand": "left"
      },
      {
        "midi": 57,
        "time": 38.4,
        "duration": 1.05,
        "velocity": 0.73,
        "hand": "left"
      },
      {
        "midi": 60,
        "time": 38.4,
        "duration": 0.075,
        "velocity": 0.54,
        "hand": "right"
      },
      {
        "midi": 60,
        "time": 38.4,
        "duration": 0.9,
        "velocity": 0.73,
        "hand": "right"
      },
      {
        "midi": 62,
        "time": 38.4,
        "duration": 1.05,
        "velocity": 0.69,
        "hand": "right"
      },
      {
        "midi": 64,
        "time": 38.4,
        "duration": 0.15,
        "velocity": 0.55,
        "hand": "right"
      },
      {
        "midi": 65,
        "time": 38.4,
        "duration": 1.05,
        "velocity": 0.61,
        "hand": "right"
      },
      {
        "midi": 67,
        "time": 38.4,
        "duration": 0.15,
        "velocity": 0.5,
        "hand": "right"
      },
      {
        "midi": 69,
        "time": 38.4,
        "duration": 0.15,
        "velocity": 0.59,
        "hand": "right"
      },
      {
        "midi": 57,
        "time": 38.55,
        "duration": 0.15,
        "velocity": 0.48,
        "hand": "left"
      },
      {
        "midi": 60,
        "time": 38.55,
        "duration": 0.075,
        "velocity": 0.53,
        "hand": "right"
      },
      {
        "midi": 64,
        "time": 38.55,
        "duration": 0.15,
        "velocity": 0.44,
        "hand": "right"
      },
      {
        "midi": 67,
        "time": 38.55,
        "duration": 0.075,
        "velocity": 0.31,
        "hand": "right"
      },
      {
        "midi": 38,
        "time": 38.7,
        "duration": 0.075,
        "velocity": 0.57,
        "hand": "left"
      },
      {
        "midi": 42,
        "time": 38.7,
        "duration": 0.075,
        "velocity": 0.61,
        "hand": "left"
      },
      {
        "midi": 51,
        "time": 38.7,
        "duration": 0.075,
        "velocity": 0.61,
        "hand": "left"
      },
      {
        "midi": 54,
        "time": 38.7,
        "duration": 0.075,
        "velocity": 0.57,
        "hand": "left"
      },
      {
        "midi": 57,
        "time": 38.7,
        "duration": 0.075,
        "velocity": 0.58,
        "hand": "left"
      },
      {
        "midi": 60,
        "time": 38.7,
        "duration": 0.075,
        "velocity": 0.72,
        "hand": "right"
      },
      {
        "midi": 64,
        "time": 38.7,
        "duration": 0.075,
        "velocity": 0.57,
        "hand": "right"
      },
      {
        "midi": 67,
        "time": 38.7,
        "duration": 0.075,
        "velocity": 0.52,
        "hand": "right"
      },
      {
        "midi": 69,
        "time": 38.7,
        "duration": 0.3,
        "velocity": 0.57,
        "hand": "right"
      },
      {
        "midi": 70,
        "time": 38.7,
        "duration": 0.075,
        "velocity": 0.7,
        "hand": "right"
      },
      {
        "midi": 33,
        "time": 39,
        "duration": 0.45,
        "velocity": 0.97,
        "hand": "left"
      },
      {
        "midi": 35,
        "time": 39,
        "duration": 0.075,
        "velocity": 0.73,
        "hand": "left"
      },
      {
        "midi": 42,
        "time": 39,
        "duration": 0.075,
        "velocity": 0.57,
        "hand": "left"
      },
      {
        "midi": 51,
        "time": 39,
        "duration": 0.075,
        "velocity": 0.53,
        "hand": "left"
      },
      {
        "midi": 57,
        "time": 39,
        "duration": 0.15,
        "velocity": 0.63,
        "hand": "left"
      },
      {
        "midi": 60,
        "time": 39,
        "duration": 0.15,
        "velocity": 0.68,
        "hand": "right"
      },
      {
        "midi": 64,
        "time": 39,
        "duration": 0.15,
        "velocity": 0.61,
        "hand": "right"
      },
      {
        "midi": 67,
        "time": 39,
        "duration": 0.15,
        "velocity": 0.51,
        "hand": "right"
      },
      {
        "midi": 70,
        "time": 39,
        "duration": 0.075,
        "velocity": 0.63,
        "hand": "right"
      },
      {
        "midi": 71,
        "time": 39,
        "duration": 0.3,
        "velocity": 0.57,
        "hand": "right"
      },
      {
        "midi": 38,
        "time": 39.3,
        "duration": 0.075,
        "velocity": 0.55,
        "hand": "left"
      },
      {
        "midi": 42,
        "time": 39.3,
        "duration": 0.075,
        "velocity": 0.56,
        "hand": "left"
      },
      {
        "midi": 51,
        "time": 39.3,
        "duration": 0.075,
        "velocity": 0.57,
        "hand": "left"
      },
      {
        "midi": 54,
        "time": 39.3,
        "duration": 0.075,
        "velocity": 0.5,
        "hand": "left"
      },
      {
        "midi": 57,
        "time": 39.3,
        "duration": 0.15,
        "velocity": 0.59,
        "hand": "left"
      },
      {
        "midi": 60,
        "time": 39.3,
        "duration": 0.075,
        "velocity": 0.68,
        "hand": "right"
      },
      {
        "midi": 64,
        "time": 39.3,
        "duration": 0.15,
        "velocity": 0.61,
        "hand": "right"
      },
      {
        "midi": 67,
        "time": 39.3,
        "duration": 0.15,
        "velocity": 0.56,
        "hand": "right"
      },
      {
        "midi": 69,
        "time": 39.3,
        "duration": 0.3,
        "velocity": 0.54,
        "hand": "right"
      },
      {
        "midi": 70,
        "time": 39.3,
        "duration": 0.075,
        "velocity": 0.56,
        "hand": "right"
      },
      {
        "midi": 35,
        "time": 39.6,
        "duration": 0.075,
        "velocity": 0.72,
        "hand": "left"
      },
      {
        "midi": 38,
        "time": 39.6,
        "duration": 0.6,
        "velocity": 0.98,
        "hand": "left"
      },
      {
        "midi": 42,
        "time": 39.6,
        "duration": 0.075,
        "velocity": 0.54,
        "hand": "left"
      },
      {
        "midi": 51,
        "time": 39.6,
        "duration": 0.075,
        "velocity": 0.46,
        "hand": "left"
      },
      {
        "midi": 53,
        "time": 39.6,
        "duration": 0.45,
        "velocity": 0.57,
        "hand": "left"
      },
      {
        "midi": 55,
        "time": 39.6,
        "duration": 0.75,
        "velocity": 0.55,
        "hand": "left"
      },
      {
        "midi": 55,
        "time": 39.6,
        "duration": 0.6,
        "velocity": 0.65,
        "hand": "left"
      },
      {
        "midi": 57,
        "time": 39.6,
        "duration": 0.45,
        "velocity": 0.56,
        "hand": "left"
      },
      {
        "midi": 59,
        "time": 39.6,
        "duration": 0.45,
        "velocity": 0.56,
        "hand": "left"
      },
      {
        "midi": 59,
        "time": 39.6,
        "duration": 0.75,
        "velocity": 0.53,
        "hand": "left"
      },
      {
        "midi": 59,
        "time": 39.6,
        "duration": 0.6,
        "velocity": 0.68,
        "hand": "left"
      },
      {
        "midi": 62,
        "time": 39.6,
        "duration": 0.75,
        "velocity": 0.58,
        "hand": "right"
      },
      {
        "midi": 64,
        "time": 39.6,
        "duration": 0.45,
        "velocity": 0.54,
        "hand": "right"
      },
      {
        "midi": 65,
        "time": 39.6,
        "duration": 0.75,
        "velocity": 0.56,
        "hand": "right"
      },
      {
        "midi": 67,
        "time": 39.6,
        "duration": 0.15,
        "velocity": 0.64,
        "hand": "right"
      },
      {
        "midi": 70,
        "time": 39.6,
        "duration": 0.075,
        "velocity": 0.73,
        "hand": "right"
      },
      {
        "midi": 38,
        "time": 39.9,
        "duration": 0.075,
        "velocity": 0.56,
        "hand": "left"
      },
      {
        "midi": 42,
        "time": 39.9,
        "duration": 0.075,
        "velocity": 0.46,
        "hand": "left"
      },
      {
        "midi": 51,
        "time": 39.9,
        "duration": 0.075,
        "velocity": 0.52,
        "hand": "left"
      },
      {
        "midi": 54,
        "time": 39.9,
        "duration": 0.075,
        "velocity": 0.56,
        "hand": "left"
      },
      {
        "midi": 59,
        "time": 39.9,
        "duration": 0.075,
        "velocity": 0.61,
        "hand": "left"
      },
      {
        "midi": 62,
        "time": 39.9,
        "duration": 0.075,
        "velocity": 0.68,
        "hand": "right"
      },
      {
        "midi": 64,
        "time": 39.9,
        "duration": 0.075,
        "velocity": 0.69,
        "hand": "right"
      },
      {
        "midi": 67,
        "time": 39.9,
        "duration": 0.3,
        "velocity": 0.52,
        "hand": "right"
      },
      {
        "midi": 69,
        "time": 39.9,
        "duration": 0.15,
        "velocity": 0.63,
        "hand": "right"
      },
      {
        "midi": 35,
        "time": 40.2,
        "duration": 0.075,
        "velocity": 0.7,
        "hand": "left"
      },
      {
        "midi": 38,
        "time": 40.2,
        "duration": 0.6,
        "velocity": 0.94,
        "hand": "left"
      },
      {
        "midi": 42,
        "time": 40.2,
        "duration": 0.075,
        "velocity": 0.5,
        "hand": "left"
      },
      {
        "midi": 51,
        "time": 40.2,
        "duration": 0.075,
        "velocity": 0.54,
        "hand": "left"
      },
      {
        "midi": 53,
        "time": 40.2,
        "duration": 0.15,
        "velocity": 0.63,
        "hand": "left"
      },
      {
        "midi": 57,
        "time": 40.2,
        "duration": 0.15,
        "velocity": 0.56,
        "hand": "left"
      },
      {
        "midi": 59,
        "time": 40.2,
        "duration": 0.15,
        "velocity": 0.57,
        "hand": "left"
      },
      {
        "midi": 64,
        "time": 40.2,
        "duration": 0.15,
        "velocity": 0.56,
        "hand": "right"
      },
      {
        "midi": 64,
        "time": 40.2,
        "duration": 0.3,
        "velocity": 0.63,
        "hand": "right"
      },
      {
        "midi": 38,
        "time": 40.5,
        "duration": 0.075,
        "velocity": 0.53,
        "hand": "left"
      },
      {
        "midi": 42,
        "time": 40.5,
        "duration": 0.075,
        "velocity": 0.54,
        "hand": "left"
      },
      {
        "midi": 51,
        "time": 40.5,
        "duration": 0.075,
        "velocity": 0.54,
        "hand": "left"
      },
      {
        "midi": 54,
        "time": 40.5,
        "duration": 0.075,
        "velocity": 0.57,
        "hand": "left"
      },
      {
        "midi": 59,
        "time": 40.5,
        "duration": 0.075,
        "velocity": 0.7,
        "hand": "left"
      },
      {
        "midi": 62,
        "time": 40.5,
        "duration": 0.075,
        "velocity": 0.72,
        "hand": "right"
      },
      {
        "midi": 64,
        "time": 40.5,
        "duration": 0.075,
        "velocity": 0.58,
        "hand": "right"
      },
      {
        "midi": 65,
        "time": 40.5,
        "duration": 0.075,
        "velocity": 0.35,
        "hand": "right"
      },
      {
        "midi": 67,
        "time": 40.5,
        "duration": 0.15,
        "velocity": 0.54,
        "hand": "right"
      },
      {
        "midi": 69,
        "time": 40.5,
        "duration": 0.15,
        "velocity": 0.68,
        "hand": "right"
      },
      {
        "midi": 35,
        "time": 40.8,
        "duration": 0.075,
        "velocity": 0.69,
        "hand": "left"
      },
      {
        "midi": 37,
        "time": 40.8,
        "duration": 0.45,
        "velocity": 0.94,
        "hand": "left"
      },
      {
        "midi": 42,
        "time": 40.8,
        "duration": 0.075,
        "velocity": 0.54,
        "hand": "left"
      },
      {
        "midi": 51,
        "time": 40.8,
        "duration": 0.075,
        "velocity": 0.51,
        "hand": "left"
      },
      {
        "midi": 56,
        "time": 40.8,
        "duration": 0.45,
        "velocity": 0.57,
        "hand": "left"
      },
      {
        "midi": 57,
        "time": 40.8,
        "duration": 0.15,
        "velocity": 0.57,
        "hand": "left"
      },
      {
        "midi": 57,
        "time": 40.8,
        "duration": 0.45,
        "velocity": 0.54,
        "hand": "left"
      },
      {
        "midi": 60,
        "time": 40.8,
        "duration": 0.15,
        "velocity": 0.58,
        "hand": "right"
      },
      {
        "midi": 60,
        "time": 40.8,
        "duration": 0.3,
        "velocity": 0.58,
        "hand": "right"
      },
      {
        "midi": 60,
        "time": 40.8,
        "duration": 0.45,
        "velocity": 0.56,
        "hand": "right"
      },
      {
        "midi": 62,
        "time": 40.8,
        "duration": 0.3,
        "velocity": 0.57,
        "hand": "right"
      },
      {
        "midi": 62,
        "time": 40.8,
        "duration": 0.45,
        "velocity": 0.5,
        "hand": "right"
      },
      {
        "midi": 64,
        "time": 40.8,
        "duration": 0.15,
        "velocity": 0.54,
        "hand": "right"
      },
      {
        "midi": 65,
        "time": 40.8,
        "duration": 0.15,
        "velocity": 0.65,
        "hand": "right"
      },
      {
        "midi": 65,
        "time": 40.8,
        "duration": 0.3,
        "velocity": 0.55,
        "hand": "right"
      },
      {
        "midi": 65,
        "time": 40.8,
        "duration": 0.45,
        "velocity": 0.47,
        "hand": "right"
      },
      {
        "midi": 67,
        "time": 40.8,
        "duration": 0.15,
        "velocity": 0.5,
        "hand": "right"
      },
      {
        "midi": 38,
        "time": 41.1,
        "duration": 0.075,
        "velocity": 0.54,
        "hand": "left"
      },
      {
        "midi": 42,
        "time": 41.1,
        "duration": 0.075,
        "velocity": 0.57,
        "hand": "left"
      },
      {
        "midi": 51,
        "time": 41.1,
        "duration": 0.075,
        "velocity": 0.55,
        "hand": "left"
      },
      {
        "midi": 54,
        "time": 41.1,
        "duration": 0.075,
        "velocity": 0.54,
        "hand": "left"
      },
      {
        "midi": 57,
        "time": 41.1,
        "duration": 0.15,
        "velocity": 0.54,
        "hand": "left"
      },
      {
        "midi": 57,
        "time": 41.1,
        "duration": 0.075,
        "velocity": 0.64,
        "hand": "left"
      },
      {
        "midi": 60,
        "time": 41.1,
        "duration": 0.15,
        "velocity": 0.53,
        "hand": "right"
      },
      {
        "midi": 60,
        "time": 41.1,
        "duration": 0.075,
        "velocity": 0.7,
        "hand": "right"
      },
      {
        "midi": 64,
        "time": 41.1,
        "duration": 0.15,
        "velocity": 0.52,
        "hand": "right"
      },
      {
        "midi": 64,
        "time": 41.1,
        "duration": 0.075,
        "velocity": 0.54,
        "hand": "right"
      },
      {
        "midi": 65,
        "time": 41.1,
        "duration": 0.075,
        "velocity": 0.51,
        "hand": "right"
      },
      {
        "midi": 65,
        "time": 41.1,
        "duration": 0.3,
        "velocity": 0.54,
        "hand": "right"
      },
      {
        "midi": 67,
        "time": 41.1,
        "duration": 0.15,
        "velocity": 0.39,
        "hand": "right"
      },
      {
        "midi": 67,
        "time": 41.1,
        "duration": 0.075,
        "velocity": 0.61,
        "hand": "right"
      },
      {
        "midi": 70,
        "time": 41.1,
        "duration": 0.075,
        "velocity": 0.72,
        "hand": "right"
      },
      {
        "midi": 35,
        "time": 41.4,
        "duration": 0.075,
        "velocity": 0.56,
        "hand": "left"
      },
      {
        "midi": 37,
        "time": 41.4,
        "duration": 0.6,
        "velocity": 0.98,
        "hand": "left"
      },
      {
        "midi": 42,
        "time": 41.4,
        "duration": 0.075,
        "velocity": 0.57,
        "hand": "left"
      },
      {
        "midi": 51,
        "time": 41.4,
        "duration": 0.075,
        "velocity": 0.5,
        "hand": "left"
      },
      {
        "midi": 55,
        "time": 41.4,
        "duration": 0.3,
        "velocity": 0.54,
        "hand": "left"
      },
      {
        "midi": 56,
        "time": 41.4,
        "duration": 0.15,
        "velocity": 0.55,
        "hand": "left"
      },
      {
        "midi": 56,
        "time": 41.4,
        "duration": 0.45,
        "velocity": 0.46,
        "hand": "left"
      },
      {
        "midi": 59,
        "time": 41.4,
        "duration": 0.15,
        "velocity": 0.55,
        "hand": "left"
      },
      {
        "midi": 59,
        "time": 41.4,
        "duration": 0.3,
        "velocity": 0.52,
        "hand": "left"
      },
      {
        "midi": 62,
        "time": 41.4,
        "duration": 0.3,
        "velocity": 0.51,
        "hand": "right"
      },
      {
        "midi": 63,
        "time": 41.4,
        "duration": 0.15,
        "velocity": 0.51,
        "hand": "right"
      },
      {
        "midi": 63,
        "time": 41.4,
        "duration": 0.45,
        "velocity": 0.54,
        "hand": "right"
      },
      {
        "midi": 64,
        "time": 41.4,
        "duration": 0.3,
        "velocity": 0.61,
        "hand": "right"
      },
      {
        "midi": 65,
        "time": 41.4,
        "duration": 0.3,
        "velocity": 0.47,
        "hand": "right"
      },
      {
        "midi": 67,
        "time": 41.4,
        "duration": 0.15,
        "velocity": 0.37,
        "hand": "right"
      },
      {
        "midi": 67,
        "time": 41.4,
        "duration": 0.45,
        "velocity": 0.36,
        "hand": "right"
      },
      {
        "midi": 68,
        "time": 41.4,
        "duration": 0.15,
        "velocity": 0.37,
        "hand": "right"
      },
      {
        "midi": 70,
        "time": 41.4,
        "duration": 0.075,
        "velocity": 0.69,
        "hand": "right"
      },
      {
        "midi": 38,
        "time": 41.7,
        "duration": 0.075,
        "velocity": 0.55,
        "hand": "left"
      },
      {
        "midi": 42,
        "time": 41.7,
        "duration": 0.075,
        "velocity": 0.54,
        "hand": "left"
      },
      {
        "midi": 51,
        "time": 41.7,
        "duration": 0.075,
        "velocity": 0.54,
        "hand": "left"
      },
      {
        "midi": 54,
        "time": 41.7,
        "duration": 0.075,
        "velocity": 0.64,
        "hand": "left"
      },
      {
        "midi": 56,
        "time": 41.7,
        "duration": 0.15,
        "velocity": 0.53,
        "hand": "left"
      },
      {
        "midi": 59,
        "time": 41.7,
        "duration": 0.15,
        "velocity": 0.55,
        "hand": "left"
      },
      {
        "midi": 62,
        "time": 41.7,
        "duration": 0.3,
        "velocity": 0.57,
        "hand": "right"
      },
      {
        "midi": 63,
        "time": 41.7,
        "duration": 0.15,
        "velocity": 0.43,
        "hand": "right"
      },
      {
        "midi": 67,
        "time": 41.7,
        "duration": 0.15,
        "velocity": 0.49,
        "hand": "right"
      },
      {
        "midi": 70,
        "time": 41.7,
        "duration": 0.075,
        "velocity": 0.7,
        "hand": "right"
      },
      {
        "midi": 35,
        "time": 42,
        "duration": 0.075,
        "velocity": 0.56,
        "hand": "left"
      },
      {
        "midi": 36,
        "time": 42,
        "duration": 0.6,
        "velocity": 0.8,
        "hand": "left"
      },
      {
        "midi": 42,
        "time": 42,
        "duration": 0.075,
        "velocity": 0.65,
        "hand": "left"
      },
      {
        "midi": 51,
        "time": 42,
        "duration": 0.075,
        "velocity": 0.57,
        "hand": "left"
      },
      {
        "midi": 57,
        "time": 42,
        "duration": 0.6,
        "velocity": 0.53,
        "hand": "left"
      },
      {
        "midi": 57,
        "time": 42,
        "duration": 0.9,
        "velocity": 0.54,
        "hand": "left"
      },
      {
        "midi": 57,
        "time": 42,
        "duration": 0.6,
        "velocity": 0.59,
        "hand": "left"
      },
      {
        "midi": 60,
        "time": 42,
        "duration": 0.75,
        "velocity": 0.72,
        "hand": "right"
      },
      {
        "midi": 62,
        "time": 42,
        "duration": 0.6,
        "velocity": 0.55,
        "hand": "right"
      },
      {
        "midi": 62,
        "time": 42,
        "duration": 0.9,
        "velocity": 0.46,
        "hand": "right"
      },
      {
        "midi": 62,
        "time": 42,
        "duration": 0.6,
        "velocity": 0.7,
        "hand": "right"
      },
      {
        "midi": 67,
        "time": 42,
        "duration": 0.6,
        "velocity": 0.54,
        "hand": "right"
      },
      {
        "midi": 67,
        "time": 42,
        "duration": 0.9,
        "velocity": 0.5,
        "hand": "right"
      },
      {
        "midi": 67,
        "time": 42,
        "duration": 0.6,
        "velocity": 0.63,
        "hand": "right"
      },
      {
        "midi": 70,
        "time": 42,
        "duration": 0.075,
        "velocity": 0.72,
        "hand": "right"
      },
      {
        "midi": 42,
        "time": 42.3,
        "duration": 0.075,
        "velocity": 0.58,
        "hand": "left"
      },
      {
        "midi": 50,
        "time": 42.3,
        "duration": 0.15,
        "velocity": 0.81,
        "hand": "left"
      },
      {
        "midi": 51,
        "time": 42.3,
        "duration": 0.075,
        "velocity": 0.54,
        "hand": "left"
      },
      {
        "midi": 54,
        "time": 42.3,
        "duration": 0.075,
        "velocity": 0.56,
        "hand": "left"
      },
      {
        "midi": 57,
        "time": 42.3,
        "duration": 0.075,
        "velocity": 0.57,
        "hand": "left"
      },
      {
        "midi": 62,
        "time": 42.3,
        "duration": 0.075,
        "velocity": 0.72,
        "hand": "right"
      },
      {
        "midi": 67,
        "time": 42.3,
        "duration": 0.15,
        "velocity": 0.56,
        "hand": "right"
      },
      {
        "midi": 31,
        "time": 42.6,
        "duration": 0.6,
        "velocity": 0.79,
        "hand": "left"
      },
      {
        "midi": 35,
        "time": 42.6,
        "duration": 0.075,
        "velocity": 0.61,
        "hand": "left"
      },
      {
        "midi": 42,
        "time": 42.6,
        "duration": 0.075,
        "velocity": 0.55,
        "hand": "left"
      },
      {
        "midi": 50,
        "time": 42.6,
        "duration": 0.075,
        "velocity": 0.81,
        "hand": "left"
      },
      {
        "midi": 51,
        "time": 42.6,
        "duration": 0.075,
        "velocity": 0.61,
        "hand": "left"
      },
      {
        "midi": 57,
        "time": 42.6,
        "duration": 0.075,
        "velocity": 0.57,
        "hand": "left"
      },
      {
        "midi": 62,
        "time": 42.6,
        "duration": 0.075,
        "velocity": 0.61,
        "hand": "right"
      },
      {
        "midi": 67,
        "time": 42.6,
        "duration": 0.15,
        "velocity": 0.54,
        "hand": "right"
      },
      {
        "midi": 42,
        "time": 42.9,
        "duration": 0.075,
        "velocity": 0.55,
        "hand": "left"
      },
      {
        "midi": 48,
        "time": 42.9,
        "duration": 0.15,
        "velocity": 0.81,
        "hand": "left"
      },
      {
        "midi": 51,
        "time": 42.9,
        "duration": 0.075,
        "velocity": 0.56,
        "hand": "left"
      },
      {
        "midi": 54,
        "time": 42.9,
        "duration": 0.075,
        "velocity": 0.58,
        "hand": "left"
      },
      {
        "midi": 55,
        "time": 42.9,
        "duration": 0.3,
        "velocity": 0.79,
        "hand": "left"
      },
      {
        "midi": 57,
        "time": 42.9,
        "duration": 0.075,
        "velocity": 0.57,
        "hand": "left"
      },
      {
        "midi": 60,
        "time": 42.9,
        "duration": 0.3,
        "velocity": 0.79,
        "hand": "right"
      },
      {
        "midi": 62,
        "time": 42.9,
        "duration": 0.075,
        "velocity": 0.65,
        "hand": "right"
      },
      {
        "midi": 64,
        "time": 42.9,
        "duration": 0.3,
        "velocity": 0.73,
        "hand": "right"
      },
      {
        "midi": 67,
        "time": 42.9,
        "duration": 0.15,
        "velocity": 0.57,
        "hand": "right"
      },
      {
        "midi": 47,
        "time": 43.05,
        "duration": 0.15,
        "velocity": 0.81,
        "hand": "left"
      },
      {
        "midi": 35,
        "time": 43.2,
        "duration": 0.075,
        "velocity": 0.7,
        "hand": "left"
      },
      {
        "midi": 36,
        "time": 43.2,
        "duration": 0.6,
        "velocity": 0.96,
        "hand": "left"
      },
      {
        "midi": 42,
        "time": 43.2,
        "duration": 0.075,
        "velocity": 0.54,
        "hand": "left"
      },
      {
        "midi": 49,
        "time": 43.2,
        "duration": 0.15,
        "velocity": 0.81,
        "hand": "left"
      },
      {
        "midi": 51,
        "time": 43.2,
        "duration": 0.075,
        "velocity": 0.53,
        "hand": "left"
      },
      {
        "midi": 57,
        "time": 43.2,
        "duration": 0.6,
        "velocity": 0.43,
        "hand": "left"
      },
      {
        "midi": 57,
        "time": 43.2,
        "duration": 1.8,
        "velocity": 0.55,
        "hand": "left"
      },
      {
        "midi": 57,
        "time": 43.2,
        "duration": 1.95,
        "velocity": 0.63,
        "hand": "left"
      },
      {
        "midi": 59,
        "time": 43.2,
        "duration": 0.3,
        "velocity": 0.79,
        "hand": "left"
      },
      {
        "midi": 62,
        "time": 43.2,
        "duration": 0.6,
        "velocity": 0.48,
        "hand": "right"
      },
      {
        "midi": 62,
        "time": 43.2,
        "duration": 1.95,
        "velocity": 0.57,
        "hand": "right"
      },
      {
        "midi": 62,
        "time": 43.2,
        "duration": 2.1,
        "velocity": 0.69,
        "hand": "right"
      },
      {
        "midi": 64,
        "time": 43.2,
        "duration": 0.3,
        "velocity": 0.79,
        "hand": "right"
      },
      {
        "midi": 67,
        "time": 43.2,
        "duration": 0.6,
        "velocity": 0.43,
        "hand": "right"
      },
      {
        "midi": 67,
        "time": 43.2,
        "duration": 0.15,
        "velocity": 0.65,
        "hand": "right"
      },
      {
        "midi": 67,
        "time": 43.2,
        "duration": 2.1,
        "velocity": 0.64,
        "hand": "right"
      },
      {
        "midi": 67,
        "time": 43.2,
        "duration": 0.15,
        "velocity": 0.65,
        "hand": "right"
      },
      {
        "midi": 38,
        "time": 43.5,
        "duration": 0.075,
        "velocity": 0.57,
        "hand": "left"
      },
      {
        "midi": 42,
        "time": 43.5,
        "duration": 0.075,
        "velocity": 0.61,
        "hand": "left"
      },
      {
        "midi": 51,
        "time": 43.5,
        "duration": 0.075,
        "velocity": 0.61,
        "hand": "left"
      },
      {
        "midi": 54,
        "time": 43.5,
        "duration": 0.075,
        "velocity": 0.57,
        "hand": "left"
      },
      {
        "midi": 57,
        "time": 43.5,
        "duration": 0.15,
        "velocity": 0.64,
        "hand": "left"
      },
      {
        "midi": 59,
        "time": 43.5,
        "duration": 0.3,
        "velocity": 0.54,
        "hand": "left"
      },
      {
        "midi": 62,
        "time": 43.5,
        "duration": 0.075,
        "velocity": 0.7,
        "hand": "right"
      },
      {
        "midi": 64,
        "time": 43.5,
        "duration": 0.3,
        "velocity": 0.54,
        "hand": "right"
      },
      {
        "midi": 67,
        "time": 43.5,
        "duration": 0.15,
        "velocity": 0.54,
        "hand": "right"
      },
      {
        "midi": 67,
        "time": 43.5,
        "duration": 0.3,
        "velocity": 0.54,
        "hand": "right"
      },
      {
        "midi": 70,
        "time": 43.5,
        "duration": 0.075,
        "velocity": 0.7,
        "hand": "right"
      },
      {
        "midi": 31,
        "time": 43.8,
        "duration": 0.6,
        "velocity": 0.96,
        "hand": "left"
      },
      {
        "midi": 35,
        "time": 43.8,
        "duration": 0.075,
        "velocity": 0.73,
        "hand": "left"
      },
      {
        "midi": 42,
        "time": 43.8,
        "duration": 0.075,
        "velocity": 0.57,
        "hand": "left"
      },
      {
        "midi": 51,
        "time": 43.8,
        "duration": 0.075,
        "velocity": 0.53,
        "hand": "left"
      },
      {
        "midi": 55,
        "time": 43.8,
        "duration": 0.3,
        "velocity": 0.59,
        "hand": "left"
      },
      {
        "midi": 57,
        "time": 43.8,
        "duration": 0.45,
        "velocity": 0.43,
        "hand": "left"
      },
      {
        "midi": 60,
        "time": 43.8,
        "duration": 0.3,
        "velocity": 0.59,
        "hand": "right"
      },
      {
        "midi": 62,
        "time": 43.8,
        "duration": 0.45,
        "velocity": 0.49,
        "hand": "right"
      },
      {
        "midi": 64,
        "time": 43.8,
        "duration": 0.3,
        "velocity": 0.59,
        "hand": "right"
      },
      {
        "midi": 67,
        "time": 43.8,
        "duration": 0.45,
        "velocity": 0.49,
        "hand": "right"
      },
      {
        "midi": 70,
        "time": 43.8,
        "duration": 0.075,
        "velocity": 0.63,
        "hand": "right"
      },
      {
        "midi": 38,
        "time": 44.1,
        "duration": 0.075,
        "velocity": 0.55,
        "hand": "left"
      },
      {
        "midi": 42,
        "time": 44.1,
        "duration": 0.075,
        "velocity": 0.56,
        "hand": "left"
      },
      {
        "midi": 51,
        "time": 44.1,
        "duration": 0.075,
        "velocity": 0.57,
        "hand": "left"
      },
      {
        "midi": 54,
        "time": 44.1,
        "duration": 0.075,
        "velocity": 0.5,
        "hand": "left"
      },
      {
        "midi": 57,
        "time": 44.1,
        "duration": 0.075,
        "velocity": 0.64,
        "hand": "left"
      },
      {
        "midi": 57,
        "time": 44.1,
        "duration": 0.3,
        "velocity": 0.61,
        "hand": "left"
      },
      {
        "midi": 62,
        "time": 44.1,
        "duration": 0.075,
        "velocity": 0.72,
        "hand": "right"
      },
      {
        "midi": 62,
        "time": 44.1,
        "duration": 0.3,
        "velocity": 0.61,
        "hand": "right"
      },
      {
        "midi": 65,
        "time": 44.1,
        "duration": 0.3,
        "velocity": 0.61,
        "hand": "right"
      },
      {
        "midi": 67,
        "time": 44.1,
        "duration": 0.075,
        "velocity": 0.56,
        "hand": "right"
      },
      {
        "midi": 70,
        "time": 44.1,
        "duration": 0.075,
        "velocity": 0.56,
        "hand": "right"
      },
      {
        "midi": 35,
        "time": 44.4,
        "duration": 0.075,
        "velocity": 0.72,
        "hand": "left"
      },
      {
        "midi": 36,
        "time": 44.4,
        "duration": 0.6,
        "velocity": 0.96,
        "hand": "left"
      },
      {
        "midi": 42,
        "time": 44.4,
        "duration": 0.075,
        "velocity": 0.54,
        "hand": "left"
      },
      {
        "midi": 51,
        "time": 44.4,
        "duration": 0.075,
        "velocity": 0.46,
        "hand": "left"
      },
      {
        "midi": 57,
        "time": 44.4,
        "duration": 0.6,
        "velocity": 0.56,
        "hand": "left"
      },
      {
        "midi": 59,
        "time": 44.4,
        "duration": 0.3,
        "velocity": 0.54,
        "hand": "left"
      },
      {
        "midi": 62,
        "time": 44.4,
        "duration": 0.6,
        "velocity": 0.59,
        "hand": "right"
      },
      {
        "midi": 64,
        "time": 44.4,
        "duration": 0.3,
        "velocity": 0.54,
        "hand": "right"
      },
      {
        "midi": 67,
        "time": 44.4,
        "duration": 0.6,
        "velocity": 0.61,
        "hand": "right"
      },
      {
        "midi": 67,
        "time": 44.4,
        "duration": 0.3,
        "velocity": 0.54,
        "hand": "right"
      },
      {
        "midi": 70,
        "time": 44.4,
        "duration": 0.075,
        "velocity": 0.73,
        "hand": "right"
      },
      {
        "midi": 38,
        "time": 44.7,
        "duration": 0.075,
        "velocity": 0.56,
        "hand": "left"
      },
      {
        "midi": 42,
        "time": 44.7,
        "duration": 0.075,
        "velocity": 0.46,
        "hand": "left"
      },
      {
        "midi": 51,
        "time": 44.7,
        "duration": 0.075,
        "velocity": 0.52,
        "hand": "left"
      },
      {
        "midi": 54,
        "time": 44.7,
        "duration": 0.075,
        "velocity": 0.56,
        "hand": "left"
      },
      {
        "midi": 57,
        "time": 44.7,
        "duration": 0.15,
        "velocity": 0.72,
        "hand": "left"
      },
      {
        "midi": 59,
        "time": 44.7,
        "duration": 0.15,
        "velocity": 0.72,
        "hand": "left"
      },
      {
        "midi": 62,
        "time": 44.7,
        "duration": 0.075,
        "velocity": 0.72,
        "hand": "right"
      },
      {
        "midi": 64,
        "time": 44.7,
        "duration": 0.15,
        "velocity": 0.72,
        "hand": "right"
      },
      {
        "midi": 67,
        "time": 44.7,
        "duration": 0.075,
        "velocity": 0.57,
        "hand": "right"
      },
      {
        "midi": 67,
        "time": 44.7,
        "duration": 0.15,
        "velocity": 0.72,
        "hand": "right"
      },
      {
        "midi": 31,
        "time": 45,
        "duration": 0.6,
        "velocity": 0.96,
        "hand": "left"
      },
      {
        "midi": 35,
        "time": 45,
        "duration": 0.075,
        "velocity": 0.7,
        "hand": "left"
      },
      {
        "midi": 42,
        "time": 45,
        "duration": 0.075,
        "velocity": 0.5,
        "hand": "left"
      },
      {
        "midi": 51,
        "time": 45,
        "duration": 0.075,
        "velocity": 0.54,
        "hand": "left"
      },
      {
        "midi": 57,
        "time": 45,
        "duration": 0.15,
        "velocity": 0.5,
        "hand": "left"
      },
      {
        "midi": 59,
        "time": 45,
        "duration": 0.15,
        "velocity": 0.61,
        "hand": "left"
      },
      {
        "midi": 62,
        "time": 45,
        "duration": 0.15,
        "velocity": 0.52,
        "hand": "right"
      },
      {
        "midi": 64,
        "time": 45,
        "duration": 0.15,
        "velocity": 0.61,
        "hand": "right"
      },
      {
        "midi": 67,
        "time": 45,
        "duration": 0.15,
        "velocity": 0.5,
        "hand": "right"
      },
      {
        "midi": 38,
        "time": 45.3,
        "duration": 0.075,
        "velocity": 0.53,
        "hand": "left"
      },
      {
        "midi": 42,
        "time": 45.3,
        "duration": 0.075,
        "velocity": 0.54,
        "hand": "left"
      },
      {
        "midi": 51,
        "time": 45.3,
        "duration": 0.075,
        "velocity": 0.54,
        "hand": "left"
      },
      {
        "midi": 54,
        "time": 45.3,
        "duration": 0.075,
        "velocity": 0.57,
        "hand": "left"
      },
      {
        "midi": 57,
        "time": 45.3,
        "duration": 0.15,
        "velocity": 0.51,
        "hand": "left"
      },
      {
        "midi": 59,
        "time": 45.3,
        "duration": 0.15,
        "velocity": 0.56,
        "hand": "left"
      },
      {
        "midi": 62,
        "time": 45.3,
        "duration": 0.075,
        "velocity": 0.57,
        "hand": "right"
      },
      {
        "midi": 64,
        "time": 45.3,
        "duration": 0.15,
        "velocity": 0.56,
        "hand": "right"
      },
      {
        "midi": 67,
        "time": 45.3,
        "duration": 0.15,
        "velocity": 0.51,
        "hand": "right"
      },
      {
        "midi": 35,
        "time": 45.6,
        "duration": 0.075,
        "velocity": 0.69,
        "hand": "left"
      },
      {
        "midi": 40,
        "time": 45.6,
        "duration": 0.6,
        "velocity": 0.96,
        "hand": "left"
      },
      {
        "midi": 42,
        "time": 45.6,
        "duration": 0.075,
        "velocity": 0.54,
        "hand": "left"
      },
      {
        "midi": 51,
        "time": 45.6,
        "duration": 0.075,
        "velocity": 0.51,
        "hand": "left"
      },
      {
        "midi": 59,
        "time": 45.6,
        "duration": 0.15,
        "velocity": 0.61,
        "hand": "left"
      },
      {
        "midi": 59,
        "time": 45.6,
        "duration": 0.3,
        "velocity": 0.57,
        "hand": "left"
      },
      {
        "midi": 60,
        "time": 45.6,
        "duration": 0.3,
        "velocity": 0.72,
        "hand": "right"
      },
      {
        "midi": 62,
        "time": 45.6,
        "duration": 0.15,
        "velocity": 0.57,
        "hand": "right"
      },
      {
        "midi": 62,
        "time": 45.6,
        "duration": 0.3,
        "velocity": 0.57,
        "hand": "right"
      },
      {
        "midi": 64,
        "time": 45.6,
        "duration": 0.15,
        "velocity": 0.63,
        "hand": "right"
      },
      {
        "midi": 64,
        "time": 45.6,
        "duration": 0.3,
        "velocity": 0.59,
        "hand": "right"
      },
      {
        "midi": 65,
        "time": 45.6,
        "duration": 0.3,
        "velocity": 0.72,
        "hand": "right"
      },
      {
        "midi": 67,
        "time": 45.6,
        "duration": 0.15,
        "velocity": 0.54,
        "hand": "right"
      },
      {
        "midi": 67,
        "time": 45.6,
        "duration": 0.3,
        "velocity": 0.54,
        "hand": "right"
      },
      {
        "midi": 69,
        "time": 45.6,
        "duration": 0.3,
        "velocity": 0.72,
        "hand": "right"
      },
      {
        "midi": 38,
        "time": 45.9,
        "duration": 0.075,
        "velocity": 0.54,
        "hand": "left"
      },
      {
        "midi": 42,
        "time": 45.9,
        "duration": 0.075,
        "velocity": 0.57,
        "hand": "left"
      },
      {
        "midi": 51,
        "time": 45.9,
        "duration": 0.075,
        "velocity": 0.55,
        "hand": "left"
      },
      {
        "midi": 54,
        "time": 45.9,
        "duration": 0.075,
        "velocity": 0.54,
        "hand": "left"
      },
      {
        "midi": 59,
        "time": 45.9,
        "duration": 0.15,
        "velocity": 0.59,
        "hand": "left"
      },
      {
        "midi": 59,
        "time": 45.9,
        "duration": 0.3,
        "velocity": 0.65,
        "hand": "left"
      },
      {
        "midi": 62,
        "time": 45.9,
        "duration": 0.15,
        "velocity": 0.57,
        "hand": "right"
      },
      {
        "midi": 62,
        "time": 45.9,
        "duration": 0.075,
        "velocity": 0.57,
        "hand": "right"
      },
      {
        "midi": 64,
        "time": 45.9,
        "duration": 0.15,
        "velocity": 0.61,
        "hand": "right"
      },
      {
        "midi": 64,
        "time": 45.9,
        "duration": 0.3,
        "velocity": 0.65,
        "hand": "right"
      },
      {
        "midi": 67,
        "time": 45.9,
        "duration": 0.15,
        "velocity": 0.57,
        "hand": "right"
      },
      {
        "midi": 67,
        "time": 45.9,
        "duration": 0.3,
        "velocity": 0.65,
        "hand": "right"
      },
      {
        "midi": 70,
        "time": 45.9,
        "duration": 0.075,
        "velocity": 0.72,
        "hand": "right"
      },
      {
        "midi": 35,
        "time": 46.2,
        "duration": 0.075,
        "velocity": 0.56,
        "hand": "left"
      },
      {
        "midi": 39,
        "time": 46.2,
        "duration": 0.45,
        "velocity": 0.96,
        "hand": "left"
      },
      {
        "midi": 42,
        "time": 46.2,
        "duration": 0.075,
        "velocity": 0.57,
        "hand": "left"
      },
      {
        "midi": 51,
        "time": 46.2,
        "duration": 0.075,
        "velocity": 0.5,
        "hand": "left"
      },
      {
        "midi": 57,
        "time": 46.2,
        "duration": 0.3,
        "velocity": 0.58,
        "hand": "left"
      },
      {
        "midi": 58,
        "time": 46.2,
        "duration": 0.3,
        "velocity": 0.72,
        "hand": "left"
      },
      {
        "midi": 58,
        "time": 46.2,
        "duration": 0.15,
        "velocity": 0.61,
        "hand": "left"
      },
      {
        "midi": 58,
        "time": 46.2,
        "duration": 0.45,
        "velocity": 0.57,
        "hand": "left"
      },
      {
        "midi": 58,
        "time": 46.2,
        "duration": 0.3,
        "velocity": 0.59,
        "hand": "left"
      },
      {
        "midi": 61,
        "time": 46.2,
        "duration": 0.3,
        "velocity": 0.61,
        "hand": "right"
      },
      {
        "midi": 61,
        "time": 46.2,
        "duration": 0.15,
        "velocity": 0.56,
        "hand": "right"
      },
      {
        "midi": 61,
        "time": 46.2,
        "duration": 0.45,
        "velocity": 0.58,
        "hand": "right"
      },
      {
        "midi": 61,
        "time": 46.2,
        "duration": 0.3,
        "velocity": 0.52,
        "hand": "right"
      },
      {
        "midi": 62,
        "time": 46.2,
        "duration": 0.3,
        "velocity": 0.58,
        "hand": "right"
      },
      {
        "midi": 63,
        "time": 46.2,
        "duration": 0.3,
        "velocity": 0.58,
        "hand": "right"
      },
      {
        "midi": 63,
        "time": 46.2,
        "duration": 0.15,
        "velocity": 0.57,
        "hand": "right"
      },
      {
        "midi": 63,
        "time": 46.2,
        "duration": 0.45,
        "velocity": 0.58,
        "hand": "right"
      },
      {
        "midi": 63,
        "time": 46.2,
        "duration": 0.3,
        "velocity": 0.54,
        "hand": "right"
      },
      {
        "midi": 65,
        "time": 46.2,
        "duration": 0.3,
        "velocity": 0.58,
        "hand": "right"
      },
      {
        "midi": 66,
        "time": 46.2,
        "duration": 0.3,
        "velocity": 0.54,
        "hand": "right"
      },
      {
        "midi": 68,
        "time": 46.2,
        "duration": 0.3,
        "velocity": 0.61,
        "hand": "right"
      },
      {
        "midi": 68,
        "time": 46.2,
        "duration": 0.15,
        "velocity": 0.54,
        "hand": "right"
      },
      {
        "midi": 68,
        "time": 46.2,
        "duration": 0.45,
        "velocity": 0.54,
        "hand": "right"
      },
      {
        "midi": 70,
        "time": 46.2,
        "duration": 0.075,
        "velocity": 0.69,
        "hand": "right"
      },
      {
        "midi": 38,
        "time": 46.5,
        "duration": 0.075,
        "velocity": 0.55,
        "hand": "left"
      },
      {
        "midi": 42,
        "time": 46.5,
        "duration": 0.075,
        "velocity": 0.54,
        "hand": "left"
      },
      {
        "midi": 51,
        "time": 46.5,
        "duration": 0.075,
        "velocity": 0.54,
        "hand": "left"
      },
      {
        "midi": 54,
        "time": 46.5,
        "duration": 0.075,
        "velocity": 0.64,
        "hand": "left"
      },
      {
        "midi": 55,
        "time": 46.5,
        "duration": 0.15,
        "velocity": 0.64,
        "hand": "left"
      },
      {
        "midi": 58,
        "time": 46.5,
        "duration": 0.15,
        "velocity": 0.65,
        "hand": "left"
      },
      {
        "midi": 60,
        "time": 46.5,
        "duration": 0.15,
        "velocity": 0.64,
        "hand": "right"
      },
      {
        "midi": 61,
        "time": 46.5,
        "duration": 0.15,
        "velocity": 0.69,
        "hand": "right"
      },
      {
        "midi": 63,
        "time": 46.5,
        "duration": 0.15,
        "velocity": 0.69,
        "hand": "right"
      },
      {
        "midi": 64,
        "time": 46.5,
        "duration": 0.15,
        "velocity": 0.64,
        "hand": "right"
      },
      {
        "midi": 68,
        "time": 46.5,
        "duration": 0.15,
        "velocity": 0.57,
        "hand": "right"
      },
      {
        "midi": 70,
        "time": 46.5,
        "duration": 0.075,
        "velocity": 0.7,
        "hand": "right"
      },
      {
        "midi": 35,
        "time": 46.8,
        "duration": 0.075,
        "velocity": 0.56,
        "hand": "left"
      },
      {
        "midi": 38,
        "time": 46.8,
        "duration": 0.6,
        "velocity": 0.87,
        "hand": "left"
      },
      {
        "midi": 42,
        "time": 46.8,
        "duration": 0.075,
        "velocity": 0.65,
        "hand": "left"
      },
      {
        "midi": 51,
        "time": 46.8,
        "duration": 0.075,
        "velocity": 0.57,
        "hand": "left"
      },
      {
        "midi": 55,
        "time": 46.8,
        "duration": 0.75,
        "velocity": 0.61,
        "hand": "left"
      },
      {
        "midi": 57,
        "time": 46.8,
        "duration": 0.6,
        "velocity": 0.51,
        "hand": "left"
      },
      {
        "midi": 57,
        "time": 46.8,
        "duration": 2.25,
        "velocity": 0.5,
        "hand": "left"
      },
      {
        "midi": 57,
        "time": 46.8,
        "duration": 1.05,
        "velocity": 0.57,
        "hand": "left"
      },
      {
        "midi": 57,
        "time": 46.8,
        "duration": 0.75,
        "velocity": 0.61,
        "hand": "left"
      },
      {
        "midi": 60,
        "time": 46.8,
        "duration": 0.45,
        "velocity": 0.52,
        "hand": "right"
      },
      {
        "midi": 60,
        "time": 46.8,
        "duration": 2.25,
        "velocity": 0.49,
        "hand": "right"
      },
      {
        "midi": 60,
        "time": 46.8,
        "duration": 1.05,
        "velocity": 0.54,
        "hand": "right"
      },
      {
        "midi": 62,
        "time": 46.8,
        "duration": 0.75,
        "velocity": 0.61,
        "hand": "right"
      },
      {
        "midi": 62,
        "time": 46.8,
        "duration": 3.3,
        "velocity": 0.49,
        "hand": "right"
      },
      {
        "midi": 62,
        "time": 46.8,
        "duration": 1.05,
        "velocity": 0.59,
        "hand": "right"
      },
      {
        "midi": 62,
        "time": 46.8,
        "duration": 0.75,
        "velocity": 0.61,
        "hand": "right"
      },
      {
        "midi": 64,
        "time": 46.8,
        "duration": 0.6,
        "velocity": 0.5,
        "hand": "right"
      },
      {
        "midi": 65,
        "time": 46.8,
        "duration": 3.3,
        "velocity": 0.45,
        "hand": "right"
      },
      {
        "midi": 65,
        "time": 46.8,
        "duration": 1.05,
        "velocity": 0.57,
        "hand": "right"
      },
      {
        "midi": 67,
        "time": 46.8,
        "duration": 0.45,
        "velocity": 0.5,
        "hand": "right"
      },
      {
        "midi": 70,
        "time": 46.8,
        "duration": 0.075,
        "velocity": 0.72,
        "hand": "right"
      },
      {
        "midi": 38,
        "time": 47.1,
        "duration": 0.075,
        "velocity": 0.54,
        "hand": "left"
      },
      {
        "midi": 42,
        "time": 47.1,
        "duration": 0.075,
        "velocity": 0.58,
        "hand": "left"
      },
      {
        "midi": 51,
        "time": 47.1,
        "duration": 0.075,
        "velocity": 0.54,
        "hand": "left"
      },
      {
        "midi": 54,
        "time": 47.1,
        "duration": 0.075,
        "velocity": 0.56,
        "hand": "left"
      },
      {
        "midi": 57,
        "time": 47.1,
        "duration": 0.075,
        "velocity": 0.54,
        "hand": "left"
      },
      {
        "midi": 60,
        "time": 47.1,
        "duration": 0.075,
        "velocity": 0.61,
        "hand": "right"
      },
      {
        "midi": 64,
        "time": 47.1,
        "duration": 0.075,
        "velocity": 0.57,
        "hand": "right"
      },
      {
        "midi": 67,
        "time": 47.1,
        "duration": 0.075,
        "velocity": 0.5,
        "hand": "right"
      },
      {
        "midi": 33,
        "time": 47.4,
        "duration": 0.45,
        "velocity": 0.87,
        "hand": "left"
      },
      {
        "midi": 35,
        "time": 47.4,
        "duration": 0.075,
        "velocity": 0.61,
        "hand": "left"
      },
      {
        "midi": 42,
        "time": 47.4,
        "duration": 0.075,
        "velocity": 0.55,
        "hand": "left"
      },
      {
        "midi": 51,
        "time": 47.4,
        "duration": 0.075,
        "velocity": 0.61,
        "hand": "left"
      },
      {
        "midi": 57,
        "time": 47.4,
        "duration": 0.15,
        "velocity": 0.5,
        "hand": "left"
      },
      {
        "midi": 60,
        "time": 47.4,
        "duration": 0.15,
        "velocity": 0.51,
        "hand": "right"
      },
      {
        "midi": 64,
        "time": 47.4,
        "duration": 0.15,
        "velocity": 0.49,
        "hand": "right"
      },
      {
        "midi": 67,
        "time": 47.4,
        "duration": 0.15,
        "velocity": 0.39,
        "hand": "right"
      },
      {
        "midi": 38,
        "time": 47.7,
        "duration": 0.075,
        "velocity": 0.56,
        "hand": "left"
      },
      {
        "midi": 42,
        "time": 47.7,
        "duration": 0.075,
        "velocity": 0.55,
        "hand": "left"
      },
      {
        "midi": 51,
        "time": 47.7,
        "duration": 0.075,
        "velocity": 0.56,
        "hand": "left"
      },
      {
        "midi": 54,
        "time": 47.7,
        "duration": 0.075,
        "velocity": 0.58,
        "hand": "left"
      },
      {
        "midi": 57,
        "time": 47.7,
        "duration": 0.075,
        "velocity": 0.65,
        "hand": "left"
      },
      {
        "midi": 57,
        "time": 47.7,
        "duration": 0.15,
        "velocity": 0.72,
        "hand": "left"
      },
      {
        "midi": 60,
        "time": 47.7,
        "duration": 0.075,
        "velocity": 0.72,
        "hand": "right"
      },
      {
        "midi": 64,
        "time": 47.7,
        "duration": 0.075,
        "velocity": 0.59,
        "hand": "right"
      },
      {
        "midi": 67,
        "time": 47.7,
        "duration": 0.15,
        "velocity": 0.55,
        "hand": "right"
      },
      {
        "midi": 69,
        "time": 47.7,
        "duration": 0.15,
        "velocity": 0.72,
        "hand": "right"
      },
      {
        "midi": 35,
        "time": 48,
        "duration": 0.075,
        "velocity": 0.7,
        "hand": "left"
      },
      {
        "midi": 38,
        "time": 48,
        "duration": 0.6,
        "velocity": 0.84,
        "hand": "left"
      },
      {
        "midi": 42,
        "time": 48,
        "duration": 0.075,
        "velocity": 0.54,
        "hand": "left"
      },
      {
        "midi": 51,
        "time": 48,
        "duration": 0.075,
        "velocity": 0.53,
        "hand": "left"
      },
      {
        "midi": 57,
        "time": 48,
        "duration": 0.15,
        "velocity": 0.51,
        "hand": "left"
      },
      {
        "midi": 57,
        "time": 48,
        "duration": 0.9,
        "velocity": 0.7,
        "hand": "left"
      },
      {
        "midi": 57,
        "time": 48,
        "duration": 0.15,
        "velocity": 0.59,
        "hand": "left"
      },
      {
        "midi": 60,
        "time": 48,
        "duration": 0.075,
        "velocity": 0.54,
        "hand": "right"
      },
      {
        "midi": 60,
        "time": 48,
        "duration": 0.9,
        "velocity": 0.72,
        "hand": "right"
      },
      {
        "midi": 62,
        "time": 48,
        "duration": 1.05,
        "velocity": 0.68,
        "hand": "right"
      },
      {
        "midi": 64,
        "time": 48,
        "duration": 0.15,
        "velocity": 0.55,
        "hand": "right"
      },
      {
        "midi": 65,
        "time": 48,
        "duration": 1.05,
        "velocity": 0.58,
        "hand": "right"
      },
      {
        "midi": 67,
        "time": 48,
        "duration": 0.15,
        "velocity": 0.5,
        "hand": "right"
      },
      {
        "midi": 69,
        "time": 48,
        "duration": 0.15,
        "velocity": 0.59,
        "hand": "right"
      },
      {
        "midi": 57,
        "time": 48.15,
        "duration": 0.15,
        "velocity": 0.48,
        "hand": "left"
      },
      {
        "midi": 60,
        "time": 48.15,
        "duration": 0.075,
        "velocity": 0.53,
        "hand": "right"
      },
      {
        "midi": 64,
        "time": 48.15,
        "duration": 0.15,
        "velocity": 0.44,
        "hand": "right"
      },
      {
        "midi": 67,
        "time": 48.15,
        "duration": 0.075,
        "velocity": 0.31,
        "hand": "right"
      },
      {
        "midi": 38,
        "time": 48.3,
        "duration": 0.075,
        "velocity": 0.57,
        "hand": "left"
      },
      {
        "midi": 42,
        "time": 48.3,
        "duration": 0.075,
        "velocity": 0.61,
        "hand": "left"
      },
      {
        "midi": 51,
        "time": 48.3,
        "duration": 0.075,
        "velocity": 0.61,
        "hand": "left"
      },
      {
        "midi": 54,
        "time": 48.3,
        "duration": 0.075,
        "velocity": 0.57,
        "hand": "left"
      },
      {
        "midi": 57,
        "time": 48.3,
        "duration": 0.075,
        "velocity": 0.58,
        "hand": "left"
      },
      {
        "midi": 57,
        "time": 48.3,
        "duration": 0.3,
        "velocity": 0.57,
        "hand": "left"
      },
      {
        "midi": 60,
        "time": 48.3,
        "duration": 0.075,
        "velocity": 0.72,
        "hand": "right"
      },
      {
        "midi": 64,
        "time": 48.3,
        "duration": 0.075,
        "velocity": 0.57,
        "hand": "right"
      },
      {
        "midi": 67,
        "time": 48.3,
        "duration": 0.075,
        "velocity": 0.52,
        "hand": "right"
      },
      {
        "midi": 69,
        "time": 48.3,
        "duration": 0.3,
        "velocity": 0.57,
        "hand": "right"
      },
      {
        "midi": 70,
        "time": 48.3,
        "duration": 0.075,
        "velocity": 0.7,
        "hand": "right"
      },
      {
        "midi": 33,
        "time": 48.6,
        "duration": 0.45,
        "velocity": 0.97,
        "hand": "left"
      },
      {
        "midi": 35,
        "time": 48.6,
        "duration": 0.075,
        "velocity": 0.73,
        "hand": "left"
      },
      {
        "midi": 42,
        "time": 48.6,
        "duration": 0.075,
        "velocity": 0.57,
        "hand": "left"
      },
      {
        "midi": 51,
        "time": 48.6,
        "duration": 0.075,
        "velocity": 0.53,
        "hand": "left"
      },
      {
        "midi": 57,
        "time": 48.6,
        "duration": 0.15,
        "velocity": 0.63,
        "hand": "left"
      },
      {
        "midi": 59,
        "time": 48.6,
        "duration": 0.3,
        "velocity": 0.57,
        "hand": "left"
      },
      {
        "midi": 60,
        "time": 48.6,
        "duration": 0.15,
        "velocity": 0.68,
        "hand": "right"
      },
      {
        "midi": 64,
        "time": 48.6,
        "duration": 0.15,
        "velocity": 0.61,
        "hand": "right"
      },
      {
        "midi": 67,
        "time": 48.6,
        "duration": 0.15,
        "velocity": 0.51,
        "hand": "right"
      },
      {
        "midi": 70,
        "time": 48.6,
        "duration": 0.075,
        "velocity": 0.63,
        "hand": "right"
      },
      {
        "midi": 71,
        "time": 48.6,
        "duration": 0.3,
        "velocity": 0.57,
        "hand": "right"
      },
      {
        "midi": 38,
        "time": 48.9,
        "duration": 0.075,
        "velocity": 0.55,
        "hand": "left"
      },
      {
        "midi": 42,
        "time": 48.9,
        "duration": 0.075,
        "velocity": 0.56,
        "hand": "left"
      },
      {
        "midi": 51,
        "time": 48.9,
        "duration": 0.075,
        "velocity": 0.57,
        "hand": "left"
      },
      {
        "midi": 54,
        "time": 48.9,
        "duration": 0.075,
        "velocity": 0.5,
        "hand": "left"
      },
      {
        "midi": 57,
        "time": 48.9,
        "duration": 0.15,
        "velocity": 0.59,
        "hand": "left"
      },
      {
        "midi": 57,
        "time": 48.9,
        "duration": 0.3,
        "velocity": 0.54,
        "hand": "left"
      },
      {
        "midi": 60,
        "time": 48.9,
        "duration": 0.075,
        "velocity": 0.68,
        "hand": "right"
      },
      {
        "midi": 64,
        "time": 48.9,
        "duration": 0.15,
        "velocity": 0.61,
        "hand": "right"
      },
      {
        "midi": 67,
        "time": 48.9,
        "duration": 0.15,
        "velocity": 0.56,
        "hand": "right"
      },
      {
        "midi": 69,
        "time": 48.9,
        "duration": 0.3,
        "velocity": 0.54,
        "hand": "right"
      },
      {
        "midi": 70,
        "time": 48.9,
        "duration": 0.075,
        "velocity": 0.56,
        "hand": "right"
      },
      {
        "midi": 35,
        "time": 49.2,
        "duration": 0.075,
        "velocity": 0.72,
        "hand": "left"
      },
      {
        "midi": 38,
        "time": 49.2,
        "duration": 0.6,
        "velocity": 0.98,
        "hand": "left"
      },
      {
        "midi": 42,
        "time": 49.2,
        "duration": 0.075,
        "velocity": 0.54,
        "hand": "left"
      },
      {
        "midi": 51,
        "time": 49.2,
        "duration": 0.075,
        "velocity": 0.46,
        "hand": "left"
      },
      {
        "midi": 53,
        "time": 49.2,
        "duration": 0.45,
        "velocity": 0.57,
        "hand": "left"
      },
      {
        "midi": 55,
        "time": 49.2,
        "duration": 0.75,
        "velocity": 0.55,
        "hand": "left"
      },
      {
        "midi": 55,
        "time": 49.2,
        "duration": 0.9,
        "velocity": 0.61,
        "hand": "left"
      },
      {
        "midi": 55,
        "time": 49.2,
        "duration": 0.15,
        "velocity": 0.64,
        "hand": "left"
      },
      {
        "midi": 57,
        "time": 49.2,
        "duration": 0.45,
        "velocity": 0.56,
        "hand": "left"
      },
      {
        "midi": 59,
        "time": 49.2,
        "duration": 0.45,
        "velocity": 0.56,
        "hand": "left"
      },
      {
        "midi": 59,
        "time": 49.2,
        "duration": 0.75,
        "velocity": 0.53,
        "hand": "left"
      },
      {
        "midi": 59,
        "time": 49.2,
        "duration": 0.9,
        "velocity": 0.54,
        "hand": "left"
      },
      {
        "midi": 62,
        "time": 49.2,
        "duration": 1.05,
        "velocity": 0.59,
        "hand": "right"
      },
      {
        "midi": 64,
        "time": 49.2,
        "duration": 0.45,
        "velocity": 0.54,
        "hand": "right"
      },
      {
        "midi": 65,
        "time": 49.2,
        "duration": 0.9,
        "velocity": 0.55,
        "hand": "right"
      },
      {
        "midi": 67,
        "time": 49.2,
        "duration": 0.15,
        "velocity": 0.64,
        "hand": "right"
      },
      {
        "midi": 70,
        "time": 49.2,
        "duration": 0.075,
        "velocity": 0.73,
        "hand": "right"
      },
      {
        "midi": 38,
        "time": 49.5,
        "duration": 0.075,
        "velocity": 0.56,
        "hand": "left"
      },
      {
        "midi": 42,
        "time": 49.5,
        "duration": 0.075,
        "velocity": 0.46,
        "hand": "left"
      },
      {
        "midi": 51,
        "time": 49.5,
        "duration": 0.075,
        "velocity": 0.52,
        "hand": "left"
      },
      {
        "midi": 54,
        "time": 49.5,
        "duration": 0.075,
        "velocity": 0.56,
        "hand": "left"
      },
      {
        "midi": 55,
        "time": 49.5,
        "duration": 0.3,
        "velocity": 0.52,
        "hand": "left"
      },
      {
        "midi": 59,
        "time": 49.5,
        "duration": 0.075,
        "velocity": 0.61,
        "hand": "left"
      },
      {
        "midi": 62,
        "time": 49.5,
        "duration": 0.075,
        "velocity": 0.68,
        "hand": "right"
      },
      {
        "midi": 64,
        "time": 49.5,
        "duration": 0.075,
        "velocity": 0.69,
        "hand": "right"
      },
      {
        "midi": 67,
        "time": 49.5,
        "duration": 0.3,
        "velocity": 0.52,
        "hand": "right"
      },
      {
        "midi": 69,
        "time": 49.5,
        "duration": 0.15,
        "velocity": 0.63,
        "hand": "right"
      },
      {
        "midi": 35,
        "time": 49.8,
        "duration": 0.075,
        "velocity": 0.7,
        "hand": "left"
      },
      {
        "midi": 38,
        "time": 49.8,
        "duration": 0.6,
        "velocity": 0.94,
        "hand": "left"
      },
      {
        "midi": 42,
        "time": 49.8,
        "duration": 0.075,
        "velocity": 0.5,
        "hand": "left"
      },
      {
        "midi": 51,
        "time": 49.8,
        "duration": 0.075,
        "velocity": 0.54,
        "hand": "left"
      },
      {
        "midi": 52,
        "time": 49.8,
        "duration": 0.3,
        "velocity": 0.63,
        "hand": "left"
      },
      {
        "midi": 53,
        "time": 49.8,
        "duration": 0.15,
        "velocity": 0.63,
        "hand": "left"
      },
      {
        "midi": 57,
        "time": 49.8,
        "duration": 0.15,
        "velocity": 0.56,
        "hand": "left"
      },
      {
        "midi": 59,
        "time": 49.8,
        "duration": 0.15,
        "velocity": 0.57,
        "hand": "left"
      },
      {
        "midi": 64,
        "time": 49.8,
        "duration": 0.15,
        "velocity": 0.56,
        "hand": "right"
      },
      {
        "midi": 64,
        "time": 49.8,
        "duration": 0.3,
        "velocity": 0.63,
        "hand": "right"
      },
      {
        "midi": 38,
        "time": 50.1,
        "duration": 0.075,
        "velocity": 0.53,
        "hand": "left"
      },
      {
        "midi": 42,
        "time": 50.1,
        "duration": 0.075,
        "velocity": 0.54,
        "hand": "left"
      },
      {
        "midi": 51,
        "time": 50.1,
        "duration": 0.075,
        "velocity": 0.54,
        "hand": "left"
      },
      {
        "midi": 54,
        "time": 50.1,
        "duration": 0.075,
        "velocity": 0.57,
        "hand": "left"
      },
      {
        "midi": 55,
        "time": 50.1,
        "duration": 0.15,
        "velocity": 0.54,
        "hand": "left"
      },
      {
        "midi": 59,
        "time": 50.1,
        "duration": 0.075,
        "velocity": 0.7,
        "hand": "left"
      },
      {
        "midi": 62,
        "time": 50.1,
        "duration": 0.075,
        "velocity": 0.72,
        "hand": "right"
      },
      {
        "midi": 64,
        "time": 50.1,
        "duration": 0.075,
        "velocity": 0.58,
        "hand": "right"
      },
      {
        "midi": 65,
        "time": 50.1,
        "duration": 0.075,
        "velocity": 0.35,
        "hand": "right"
      },
      {
        "midi": 67,
        "time": 50.1,
        "duration": 0.15,
        "velocity": 0.54,
        "hand": "right"
      },
      {
        "midi": 69,
        "time": 50.1,
        "duration": 0.15,
        "velocity": 0.68,
        "hand": "right"
      },
      {
        "midi": 35,
        "time": 50.4,
        "duration": 0.075,
        "velocity": 0.69,
        "hand": "left"
      },
      {
        "midi": 37,
        "time": 50.4,
        "duration": 0.45,
        "velocity": 0.94,
        "hand": "left"
      },
      {
        "midi": 42,
        "time": 50.4,
        "duration": 0.075,
        "velocity": 0.54,
        "hand": "left"
      },
      {
        "midi": 51,
        "time": 50.4,
        "duration": 0.075,
        "velocity": 0.51,
        "hand": "left"
      },
      {
        "midi": 53,
        "time": 50.4,
        "duration": 0.15,
        "velocity": 0.65,
        "hand": "left"
      },
      {
        "midi": 56,
        "time": 50.4,
        "duration": 0.45,
        "velocity": 0.5,
        "hand": "left"
      },
      {
        "midi": 57,
        "time": 50.4,
        "duration": 0.15,
        "velocity": 0.57,
        "hand": "left"
      },
      {
        "midi": 57,
        "time": 50.4,
        "duration": 0.45,
        "velocity": 0.54,
        "hand": "left"
      },
      {
        "midi": 60,
        "time": 50.4,
        "duration": 0.15,
        "velocity": 0.58,
        "hand": "right"
      },
      {
        "midi": 60,
        "time": 50.4,
        "duration": 0.3,
        "velocity": 0.58,
        "hand": "right"
      },
      {
        "midi": 60,
        "time": 50.4,
        "duration": 0.45,
        "velocity": 0.57,
        "hand": "right"
      },
      {
        "midi": 62,
        "time": 50.4,
        "duration": 0.3,
        "velocity": 0.57,
        "hand": "right"
      },
      {
        "midi": 62,
        "time": 50.4,
        "duration": 0.45,
        "velocity": 0.45,
        "hand": "right"
      },
      {
        "midi": 64,
        "time": 50.4,
        "duration": 0.15,
        "velocity": 0.54,
        "hand": "right"
      },
      {
        "midi": 65,
        "time": 50.4,
        "duration": 0.15,
        "velocity": 0.65,
        "hand": "right"
      },
      {
        "midi": 65,
        "time": 50.4,
        "duration": 0.3,
        "velocity": 0.55,
        "hand": "right"
      },
      {
        "midi": 65,
        "time": 50.4,
        "duration": 0.45,
        "velocity": 0.51,
        "hand": "right"
      },
      {
        "midi": 65,
        "time": 50.4,
        "duration": 0.15,
        "velocity": 0.65,
        "hand": "right"
      },
      {
        "midi": 67,
        "time": 50.4,
        "duration": 0.15,
        "velocity": 0.5,
        "hand": "right"
      },
      {
        "midi": 38,
        "time": 50.7,
        "duration": 0.075,
        "velocity": 0.54,
        "hand": "left"
      },
      {
        "midi": 42,
        "time": 50.7,
        "duration": 0.075,
        "velocity": 0.57,
        "hand": "left"
      },
      {
        "midi": 51,
        "time": 50.7,
        "duration": 0.075,
        "velocity": 0.55,
        "hand": "left"
      },
      {
        "midi": 53,
        "time": 50.7,
        "duration": 0.3,
        "velocity": 0.54,
        "hand": "left"
      },
      {
        "midi": 54,
        "time": 50.7,
        "duration": 0.075,
        "velocity": 0.54,
        "hand": "left"
      },
      {
        "midi": 57,
        "time": 50.7,
        "duration": 0.15,
        "velocity": 0.54,
        "hand": "left"
      },
      {
        "midi": 57,
        "time": 50.7,
        "duration": 0.075,
        "velocity": 0.64,
        "hand": "left"
      },
      {
        "midi": 60,
        "time": 50.7,
        "duration": 0.15,
        "velocity": 0.53,
        "hand": "right"
      },
      {
        "midi": 60,
        "time": 50.7,
        "duration": 0.075,
        "velocity": 0.7,
        "hand": "right"
      },
      {
        "midi": 64,
        "time": 50.7,
        "duration": 0.15,
        "velocity": 0.52,
        "hand": "right"
      },
      {
        "midi": 64,
        "time": 50.7,
        "duration": 0.075,
        "velocity": 0.54,
        "hand": "right"
      },
      {
        "midi": 65,
        "time": 50.7,
        "duration": 0.075,
        "velocity": 0.51,
        "hand": "right"
      },
      {
        "midi": 65,
        "time": 50.7,
        "duration": 0.3,
        "velocity": 0.54,
        "hand": "right"
      },
      {
        "midi": 67,
        "time": 50.7,
        "duration": 0.15,
        "velocity": 0.39,
        "hand": "right"
      },
      {
        "midi": 67,
        "time": 50.7,
        "duration": 0.075,
        "velocity": 0.61,
        "hand": "right"
      },
      {
        "midi": 70,
        "time": 50.7,
        "duration": 0.075,
        "velocity": 0.72,
        "hand": "right"
      },
      {
        "midi": 35,
        "time": 51,
        "duration": 0.075,
        "velocity": 0.56,
        "hand": "left"
      },
      {
        "midi": 37,
        "time": 51,
        "duration": 0.6,
        "velocity": 0.98,
        "hand": "left"
      },
      {
        "midi": 42,
        "time": 51,
        "duration": 0.075,
        "velocity": 0.57,
        "hand": "left"
      },
      {
        "midi": 51,
        "time": 51,
        "duration": 0.075,
        "velocity": 0.5,
        "hand": "left"
      },
      {
        "midi": 52,
        "time": 51,
        "duration": 0.3,
        "velocity": 0.61,
        "hand": "left"
      },
      {
        "midi": 55,
        "time": 51,
        "duration": 0.3,
        "velocity": 0.56,
        "hand": "left"
      },
      {
        "midi": 56,
        "time": 51,
        "duration": 0.15,
        "velocity": 0.55,
        "hand": "left"
      },
      {
        "midi": 56,
        "time": 51,
        "duration": 0.45,
        "velocity": 0.46,
        "hand": "left"
      },
      {
        "midi": 58,
        "time": 51,
        "duration": 0.075,
        "velocity": 0.44,
        "hand": "left"
      },
      {
        "midi": 59,
        "time": 51,
        "duration": 0.15,
        "velocity": 0.55,
        "hand": "left"
      },
      {
        "midi": 59,
        "time": 51,
        "duration": 0.3,
        "velocity": 0.52,
        "hand": "left"
      },
      {
        "midi": 62,
        "time": 51,
        "duration": 0.45,
        "velocity": 0.54,
        "hand": "right"
      },
      {
        "midi": 63,
        "time": 51,
        "duration": 0.15,
        "velocity": 0.51,
        "hand": "right"
      },
      {
        "midi": 63,
        "time": 51,
        "duration": 0.45,
        "velocity": 0.54,
        "hand": "right"
      },
      {
        "midi": 64,
        "time": 51,
        "duration": 0.3,
        "velocity": 0.61,
        "hand": "right"
      },
      {
        "midi": 65,
        "time": 51,
        "duration": 0.45,
        "velocity": 0.5,
        "hand": "right"
      },
      {
        "midi": 67,
        "time": 51,
        "duration": 0.15,
        "velocity": 0.37,
        "hand": "right"
      },
      {
        "midi": 67,
        "time": 51,
        "duration": 0.45,
        "velocity": 0.36,
        "hand": "right"
      },
      {
        "midi": 68,
        "time": 51,
        "duration": 0.15,
        "velocity": 0.37,
        "hand": "right"
      },
      {
        "midi": 70,
        "time": 51,
        "duration": 0.075,
        "velocity": 0.69,
        "hand": "right"
      },
      {
        "midi": 38,
        "time": 51.3,
        "duration": 0.075,
        "velocity": 0.55,
        "hand": "left"
      },
      {
        "midi": 42,
        "time": 51.3,
        "duration": 0.075,
        "velocity": 0.54,
        "hand": "left"
      },
      {
        "midi": 50,
        "time": 51.3,
        "duration": 0.3,
        "velocity": 0.57,
        "hand": "left"
      },
      {
        "midi": 51,
        "time": 51.3,
        "duration": 0.075,
        "velocity": 0.54,
        "hand": "left"
      },
      {
        "midi": 54,
        "time": 51.3,
        "duration": 0.075,
        "velocity": 0.64,
        "hand": "left"
      },
      {
        "midi": 56,
        "time": 51.3,
        "duration": 0.15,
        "velocity": 0.53,
        "hand": "left"
      },
      {
        "midi": 59,
        "time": 51.3,
        "duration": 0.15,
        "velocity": 0.55,
        "hand": "left"
      },
      {
        "midi": 62,
        "time": 51.3,
        "duration": 0.3,
        "velocity": 0.57,
        "hand": "right"
      },
      {
        "midi": 63,
        "time": 51.3,
        "duration": 0.15,
        "velocity": 0.43,
        "hand": "right"
      },
      {
        "midi": 67,
        "time": 51.3,
        "duration": 0.15,
        "velocity": 0.49,
        "hand": "right"
      },
      {
        "midi": 70,
        "time": 51.3,
        "duration": 0.075,
        "velocity": 0.7,
        "hand": "right"
      },
      {
        "midi": 35,
        "time": 51.6,
        "duration": 0.075,
        "velocity": 0.56,
        "hand": "left"
      },
      {
        "midi": 36,
        "time": 51.6,
        "duration": 0.6,
        "velocity": 0.8,
        "hand": "left"
      },
      {
        "midi": 42,
        "time": 51.6,
        "duration": 0.075,
        "velocity": 0.65,
        "hand": "left"
      },
      {
        "midi": 48,
        "time": 51.6,
        "duration": 0.75,
        "velocity": 0.72,
        "hand": "left"
      },
      {
        "midi": 51,
        "time": 51.6,
        "duration": 0.075,
        "velocity": 0.57,
        "hand": "left"
      },
      {
        "midi": 57,
        "time": 51.6,
        "duration": 0.6,
        "velocity": 0.53,
        "hand": "left"
      },
      {
        "midi": 57,
        "time": 51.6,
        "duration": 0.9,
        "velocity": 0.54,
        "hand": "left"
      },
      {
        "midi": 62,
        "time": 51.6,
        "duration": 0.6,
        "velocity": 0.55,
        "hand": "right"
      },
      {
        "midi": 62,
        "time": 51.6,
        "duration": 0.9,
        "velocity": 0.46,
        "hand": "right"
      },
      {
        "midi": 64,
        "time": 51.6,
        "duration": 0.75,
        "velocity": 0.72,
        "hand": "right"
      },
      {
        "midi": 67,
        "time": 51.6,
        "duration": 0.6,
        "velocity": 0.54,
        "hand": "right"
      },
      {
        "midi": 67,
        "time": 51.6,
        "duration": 0.9,
        "velocity": 0.5,
        "hand": "right"
      },
      {
        "midi": 67,
        "time": 51.6,
        "duration": 0.75,
        "velocity": 0.72,
        "hand": "right"
      },
      {
        "midi": 70,
        "time": 51.6,
        "duration": 0.075,
        "velocity": 0.72,
        "hand": "right"
      },
      {
        "midi": 38,
        "time": 51.9,
        "duration": 0.075,
        "velocity": 0.54,
        "hand": "left"
      },
      {
        "midi": 42,
        "time": 51.9,
        "duration": 0.075,
        "velocity": 0.58,
        "hand": "left"
      },
      {
        "midi": 51,
        "time": 51.9,
        "duration": 0.075,
        "velocity": 0.54,
        "hand": "left"
      },
      {
        "midi": 54,
        "time": 51.9,
        "duration": 0.075,
        "velocity": 0.56,
        "hand": "left"
      },
      {
        "midi": 57,
        "time": 51.9,
        "duration": 0.075,
        "velocity": 0.57,
        "hand": "left"
      },
      {
        "midi": 62,
        "time": 51.9,
        "duration": 0.075,
        "velocity": 0.72,
        "hand": "right"
      },
      {
        "midi": 67,
        "time": 51.9,
        "duration": 0.15,
        "velocity": 0.56,
        "hand": "right"
      },
      {
        "midi": 31,
        "time": 52.2,
        "duration": 0.6,
        "velocity": 0.79,
        "hand": "left"
      },
      {
        "midi": 35,
        "time": 52.2,
        "duration": 0.075,
        "velocity": 0.61,
        "hand": "left"
      },
      {
        "midi": 42,
        "time": 52.2,
        "duration": 0.075,
        "velocity": 0.55,
        "hand": "left"
      },
      {
        "midi": 51,
        "time": 52.2,
        "duration": 0.075,
        "velocity": 0.61,
        "hand": "left"
      },
      {
        "midi": 57,
        "time": 52.2,
        "duration": 0.075,
        "velocity": 0.57,
        "hand": "left"
      },
      {
        "midi": 62,
        "time": 52.2,
        "duration": 0.075,
        "velocity": 0.61,
        "hand": "right"
      },
      {
        "midi": 67,
        "time": 52.2,
        "duration": 0.15,
        "velocity": 0.54,
        "hand": "right"
      },
      {
        "midi": 38,
        "time": 52.5,
        "duration": 0.075,
        "velocity": 0.56,
        "hand": "left"
      },
      {
        "midi": 42,
        "time": 52.5,
        "duration": 0.075,
        "velocity": 0.55,
        "hand": "left"
      },
      {
        "midi": 51,
        "time": 52.5,
        "duration": 0.075,
        "velocity": 0.56,
        "hand": "left"
      },
      {
        "midi": 52,
        "time": 52.5,
        "duration": 0.3,
        "velocity": 0.72,
        "hand": "left"
      },
      {
        "midi": 54,
        "time": 52.5,
        "duration": 0.075,
        "velocity": 0.58,
        "hand": "left"
      },
      {
        "midi": 57,
        "time": 52.5,
        "duration": 0.075,
        "velocity": 0.57,
        "hand": "left"
      },
      {
        "midi": 62,
        "time": 52.5,
        "duration": 0.075,
        "velocity": 0.65,
        "hand": "right"
      },
      {
        "midi": 64,
        "time": 52.5,
        "duration": 0.3,
        "velocity": 0.72,
        "hand": "right"
      },
      {
        "midi": 67,
        "time": 52.5,
        "duration": 0.15,
        "velocity": 0.57,
        "hand": "right"
      },
      {
        "midi": 35,
        "time": 52.8,
        "duration": 0.075,
        "velocity": 0.7,
        "hand": "left"
      },
      {
        "midi": 36,
        "time": 52.8,
        "duration": 0.6,
        "velocity": 0.96,
        "hand": "left"
      },
      {
        "midi": 42,
        "time": 52.8,
        "duration": 0.075,
        "velocity": 0.54,
        "hand": "left"
      },
      {
        "midi": 51,
        "time": 52.8,
        "duration": 0.075,
        "velocity": 0.53,
        "hand": "left"
      },
      {
        "midi": 55,
        "time": 52.8,
        "duration": 0.15,
        "velocity": 0.79,
        "hand": "left"
      },
      {
        "midi": 57,
        "time": 52.8,
        "duration": 0.6,
        "velocity": 0.43,
        "hand": "left"
      },
      {
        "midi": 57,
        "time": 52.8,
        "duration": 1.8,
        "velocity": 0.55,
        "hand": "left"
      },
      {
        "midi": 57,
        "time": 52.8,
        "duration": 2.1,
        "velocity": 0.69,
        "hand": "left"
      },
      {
        "midi": 57,
        "time": 52.8,
        "duration": 0.15,
        "velocity": 0.81,
        "hand": "left"
      },
      {
        "midi": 62,
        "time": 52.8,
        "duration": 0.6,
        "velocity": 0.48,
        "hand": "right"
      },
      {
        "midi": 62,
        "time": 52.8,
        "duration": 1.95,
        "velocity": 0.57,
        "hand": "right"
      },
      {
        "midi": 62,
        "time": 52.8,
        "duration": 2.1,
        "velocity": 0.72,
        "hand": "right"
      },
      {
        "midi": 67,
        "time": 52.8,
        "duration": 0.6,
        "velocity": 0.43,
        "hand": "right"
      },
      {
        "midi": 67,
        "time": 52.8,
        "duration": 0.15,
        "velocity": 0.79,
        "hand": "right"
      },
      {
        "midi": 67,
        "time": 52.8,
        "duration": 2.1,
        "velocity": 0.58,
        "hand": "right"
      },
      {
        "midi": 67,
        "time": 52.8,
        "duration": 0.15,
        "velocity": 0.79,
        "hand": "right"
      },
      {
        "midi": 38,
        "time": 53.1,
        "duration": 0.075,
        "velocity": 0.57,
        "hand": "left"
      },
      {
        "midi": 42,
        "time": 53.1,
        "duration": 0.075,
        "velocity": 0.61,
        "hand": "left"
      },
      {
        "midi": 51,
        "time": 53.1,
        "duration": 0.075,
        "velocity": 0.61,
        "hand": "left"
      },
      {
        "midi": 54,
        "time": 53.1,
        "duration": 0.075,
        "velocity": 0.57,
        "hand": "left"
      },
      {
        "midi": 55,
        "time": 53.1,
        "duration": 0.3,
        "velocity": 0.54,
        "hand": "left"
      },
      {
        "midi": 57,
        "time": 53.1,
        "duration": 0.15,
        "velocity": 0.64,
        "hand": "left"
      },
      {
        "midi": 62,
        "time": 53.1,
        "duration": 0.075,
        "velocity": 0.7,
        "hand": "right"
      },
      {
        "midi": 67,
        "time": 53.1,
        "duration": 0.15,
        "velocity": 0.54,
        "hand": "right"
      },
      {
        "midi": 67,
        "time": 53.1,
        "duration": 0.3,
        "velocity": 0.54,
        "hand": "right"
      },
      {
        "midi": 70,
        "time": 53.1,
        "duration": 0.075,
        "velocity": 0.7,
        "hand": "right"
      },
      {
        "midi": 31,
        "time": 53.4,
        "duration": 0.6,
        "velocity": 0.96,
        "hand": "left"
      },
      {
        "midi": 35,
        "time": 53.4,
        "duration": 0.075,
        "velocity": 0.73,
        "hand": "left"
      },
      {
        "midi": 42,
        "time": 53.4,
        "duration": 0.075,
        "velocity": 0.57,
        "hand": "left"
      },
      {
        "midi": 51,
        "time": 53.4,
        "duration": 0.075,
        "velocity": 0.53,
        "hand": "left"
      },
      {
        "midi": 52,
        "time": 53.4,
        "duration": 0.3,
        "velocity": 0.59,
        "hand": "left"
      },
      {
        "midi": 57,
        "time": 53.4,
        "duration": 0.45,
        "velocity": 0.43,
        "hand": "left"
      },
      {
        "midi": 62,
        "time": 53.4,
        "duration": 0.45,
        "velocity": 0.49,
        "hand": "right"
      },
      {
        "midi": 64,
        "time": 53.4,
        "duration": 0.3,
        "velocity": 0.59,
        "hand": "right"
      },
      {
        "midi": 67,
        "time": 53.4,
        "duration": 0.45,
        "velocity": 0.49,
        "hand": "right"
      },
      {
        "midi": 70,
        "time": 53.4,
        "duration": 0.075,
        "velocity": 0.63,
        "hand": "right"
      },
      {
        "midi": 38,
        "time": 53.7,
        "duration": 0.075,
        "velocity": 0.55,
        "hand": "left"
      },
      {
        "midi": 42,
        "time": 53.7,
        "duration": 0.075,
        "velocity": 0.56,
        "hand": "left"
      },
      {
        "midi": 51,
        "time": 53.7,
        "duration": 0.075,
        "velocity": 0.57,
        "hand": "left"
      },
      {
        "midi": 53,
        "time": 53.7,
        "duration": 0.3,
        "velocity": 0.61,
        "hand": "left"
      },
      {
        "midi": 54,
        "time": 53.7,
        "duration": 0.075,
        "velocity": 0.5,
        "hand": "left"
      },
      {
        "midi": 57,
        "time": 53.7,
        "duration": 0.075,
        "velocity": 0.64,
        "hand": "left"
      },
      {
        "midi": 62,
        "time": 53.7,
        "duration": 0.075,
        "velocity": 0.72,
        "hand": "right"
      },
      {
        "midi": 65,
        "time": 53.7,
        "duration": 0.3,
        "velocity": 0.61,
        "hand": "right"
      },
      {
        "midi": 67,
        "time": 53.7,
        "duration": 0.075,
        "velocity": 0.56,
        "hand": "right"
      },
      {
        "midi": 70,
        "time": 53.7,
        "duration": 0.075,
        "velocity": 0.56,
        "hand": "right"
      },
      {
        "midi": 35,
        "time": 54,
        "duration": 0.075,
        "velocity": 0.72,
        "hand": "left"
      },
      {
        "midi": 36,
        "time": 54,
        "duration": 0.6,
        "velocity": 0.96,
        "hand": "left"
      },
      {
        "midi": 42,
        "time": 54,
        "duration": 0.075,
        "velocity": 0.54,
        "hand": "left"
      },
      {
        "midi": 51,
        "time": 54,
        "duration": 0.075,
        "velocity": 0.46,
        "hand": "left"
      },
      {
        "midi": 55,
        "time": 54,
        "duration": 0.3,
        "velocity": 0.54,
        "hand": "left"
      },
      {
        "midi": 57,
        "time": 54,
        "duration": 0.6,
        "velocity": 0.56,
        "hand": "left"
      },
      {
        "midi": 62,
        "time": 54,
        "duration": 0.6,
        "velocity": 0.59,
        "hand": "right"
      },
      {
        "midi": 67,
        "time": 54,
        "duration": 0.6,
        "velocity": 0.61,
        "hand": "right"
      },
      {
        "midi": 67,
        "time": 54,
        "duration": 0.3,
        "velocity": 0.54,
        "hand": "right"
      },
      {
        "midi": 70,
        "time": 54,
        "duration": 0.075,
        "velocity": 0.73,
        "hand": "right"
      },
      {
        "midi": 38,
        "time": 54.3,
        "duration": 0.075,
        "velocity": 0.56,
        "hand": "left"
      },
      {
        "midi": 42,
        "time": 54.3,
        "duration": 0.075,
        "velocity": 0.46,
        "hand": "left"
      },
      {
        "midi": 51,
        "time": 54.3,
        "duration": 0.075,
        "velocity": 0.52,
        "hand": "left"
      },
      {
        "midi": 54,
        "time": 54.3,
        "duration": 0.075,
        "velocity": 0.56,
        "hand": "left"
      },
      {
        "midi": 55,
        "time": 54.3,
        "duration": 0.15,
        "velocity": 0.72,
        "hand": "left"
      },
      {
        "midi": 57,
        "time": 54.3,
        "duration": 0.15,
        "velocity": 0.72,
        "hand": "left"
      },
      {
        "midi": 62,
        "time": 54.3,
        "duration": 0.075,
        "velocity": 0.72,
        "hand": "right"
      },
      {
        "midi": 67,
        "time": 54.3,
        "duration": 0.075,
        "velocity": 0.57,
        "hand": "right"
      },
      {
        "midi": 67,
        "time": 54.3,
        "duration": 0.15,
        "velocity": 0.72,
        "hand": "right"
      },
      {
        "midi": 31,
        "time": 54.6,
        "duration": 0.6,
        "velocity": 0.96,
        "hand": "left"
      },
      {
        "midi": 35,
        "time": 54.6,
        "duration": 0.075,
        "velocity": 0.7,
        "hand": "left"
      },
      {
        "midi": 42,
        "time": 54.6,
        "duration": 0.075,
        "velocity": 0.5,
        "hand": "left"
      },
      {
        "midi": 51,
        "time": 54.6,
        "duration": 0.075,
        "velocity": 0.54,
        "hand": "left"
      },
      {
        "midi": 55,
        "time": 54.6,
        "duration": 0.15,
        "velocity": 0.61,
        "hand": "left"
      },
      {
        "midi": 57,
        "time": 54.6,
        "duration": 0.15,
        "velocity": 0.5,
        "hand": "left"
      },
      {
        "midi": 62,
        "time": 54.6,
        "duration": 0.15,
        "velocity": 0.52,
        "hand": "right"
      },
      {
        "midi": 67,
        "time": 54.6,
        "duration": 0.15,
        "velocity": 0.5,
        "hand": "right"
      },
      {
        "midi": 38,
        "time": 54.9,
        "duration": 0.075,
        "velocity": 0.53,
        "hand": "left"
      },
      {
        "midi": 42,
        "time": 54.9,
        "duration": 0.075,
        "velocity": 0.54,
        "hand": "left"
      },
      {
        "midi": 51,
        "time": 54.9,
        "duration": 0.075,
        "velocity": 0.54,
        "hand": "left"
      },
      {
        "midi": 54,
        "time": 54.9,
        "duration": 0.075,
        "velocity": 0.57,
        "hand": "left"
      },
      {
        "midi": 55,
        "time": 54.9,
        "duration": 0.15,
        "velocity": 0.56,
        "hand": "left"
      },
      {
        "midi": 57,
        "time": 54.9,
        "duration": 0.15,
        "velocity": 0.51,
        "hand": "left"
      },
      {
        "midi": 62,
        "time": 54.9,
        "duration": 0.075,
        "velocity": 0.57,
        "hand": "right"
      },
      {
        "midi": 67,
        "time": 54.9,
        "duration": 0.15,
        "velocity": 0.51,
        "hand": "right"
      },
      {
        "midi": 35,
        "time": 55.2,
        "duration": 0.075,
        "velocity": 0.69,
        "hand": "left"
      },
      {
        "midi": 40,
        "time": 55.2,
        "duration": 0.6,
        "velocity": 0.96,
        "hand": "left"
      },
      {
        "midi": 42,
        "time": 55.2,
        "duration": 0.075,
        "velocity": 0.54,
        "hand": "left"
      },
      {
        "midi": 51,
        "time": 55.2,
        "duration": 0.075,
        "velocity": 0.51,
        "hand": "left"
      },
      {
        "midi": 57,
        "time": 55.2,
        "duration": 0.3,
        "velocity": 0.72,
        "hand": "left"
      },
      {
        "midi": 59,
        "time": 55.2,
        "duration": 0.15,
        "velocity": 0.61,
        "hand": "left"
      },
      {
        "midi": 59,
        "time": 55.2,
        "duration": 0.3,
        "velocity": 0.57,
        "hand": "left"
      },
      {
        "midi": 62,
        "time": 55.2,
        "duration": 0.15,
        "velocity": 0.57,
        "hand": "right"
      },
      {
        "midi": 62,
        "time": 55.2,
        "duration": 0.3,
        "velocity": 0.57,
        "hand": "right"
      },
      {
        "midi": 64,
        "time": 55.2,
        "duration": 0.15,
        "velocity": 0.63,
        "hand": "right"
      },
      {
        "midi": 64,
        "time": 55.2,
        "duration": 0.3,
        "velocity": 0.59,
        "hand": "right"
      },
      {
        "midi": 67,
        "time": 55.2,
        "duration": 0.15,
        "velocity": 0.54,
        "hand": "right"
      },
      {
        "midi": 67,
        "time": 55.2,
        "duration": 0.3,
        "velocity": 0.54,
        "hand": "right"
      },
      {
        "midi": 69,
        "time": 55.2,
        "duration": 0.3,
        "velocity": 0.72,
        "hand": "right"
      },
      {
        "midi": 38,
        "time": 55.5,
        "duration": 0.075,
        "velocity": 0.54,
        "hand": "left"
      },
      {
        "midi": 42,
        "time": 55.5,
        "duration": 0.075,
        "velocity": 0.57,
        "hand": "left"
      },
      {
        "midi": 51,
        "time": 55.5,
        "duration": 0.075,
        "velocity": 0.55,
        "hand": "left"
      },
      {
        "midi": 54,
        "time": 55.5,
        "duration": 0.075,
        "velocity": 0.54,
        "hand": "left"
      },
      {
        "midi": 55,
        "time": 55.5,
        "duration": 0.3,
        "velocity": 0.65,
        "hand": "left"
      },
      {
        "midi": 59,
        "time": 55.5,
        "duration": 0.15,
        "velocity": 0.59,
        "hand": "left"
      },
      {
        "midi": 62,
        "time": 55.5,
        "duration": 0.15,
        "velocity": 0.57,
        "hand": "right"
      },
      {
        "midi": 62,
        "time": 55.5,
        "duration": 0.075,
        "velocity": 0.57,
        "hand": "right"
      },
      {
        "midi": 64,
        "time": 55.5,
        "duration": 0.15,
        "velocity": 0.61,
        "hand": "right"
      },
      {
        "midi": 67,
        "time": 55.5,
        "duration": 0.15,
        "velocity": 0.57,
        "hand": "right"
      },
      {
        "midi": 67,
        "time": 55.5,
        "duration": 0.3,
        "velocity": 0.65,
        "hand": "right"
      },
      {
        "midi": 70,
        "time": 55.5,
        "duration": 0.075,
        "velocity": 0.72,
        "hand": "right"
      },
      {
        "midi": 35,
        "time": 55.8,
        "duration": 0.075,
        "velocity": 0.56,
        "hand": "left"
      },
      {
        "midi": 39,
        "time": 55.8,
        "duration": 0.45,
        "velocity": 0.96,
        "hand": "left"
      },
      {
        "midi": 42,
        "time": 55.8,
        "duration": 0.075,
        "velocity": 0.57,
        "hand": "left"
      },
      {
        "midi": 51,
        "time": 55.8,
        "duration": 0.075,
        "velocity": 0.5,
        "hand": "left"
      },
      {
        "midi": 53,
        "time": 55.8,
        "duration": 0.3,
        "velocity": 0.58,
        "hand": "left"
      },
      {
        "midi": 58,
        "time": 55.8,
        "duration": 0.3,
        "velocity": 0.72,
        "hand": "left"
      },
      {
        "midi": 58,
        "time": 55.8,
        "duration": 0.15,
        "velocity": 0.61,
        "hand": "left"
      },
      {
        "midi": 58,
        "time": 55.8,
        "duration": 0.45,
        "velocity": 0.57,
        "hand": "left"
      },
      {
        "midi": 61,
        "time": 55.8,
        "duration": 0.3,
        "velocity": 0.61,
        "hand": "right"
      },
      {
        "midi": 61,
        "time": 55.8,
        "duration": 0.15,
        "velocity": 0.56,
        "hand": "right"
      },
      {
        "midi": 61,
        "time": 55.8,
        "duration": 0.45,
        "velocity": 0.58,
        "hand": "right"
      },
      {
        "midi": 63,
        "time": 55.8,
        "duration": 0.3,
        "velocity": 0.58,
        "hand": "right"
      },
      {
        "midi": 63,
        "time": 55.8,
        "duration": 0.15,
        "velocity": 0.57,
        "hand": "right"
      },
      {
        "midi": 63,
        "time": 55.8,
        "duration": 0.45,
        "velocity": 0.58,
        "hand": "right"
      },
      {
        "midi": 65,
        "time": 55.8,
        "duration": 0.3,
        "velocity": 0.58,
        "hand": "right"
      },
      {
        "midi": 66,
        "time": 55.8,
        "duration": 0.45,
        "velocity": 0.56,
        "hand": "right"
      },
      {
        "midi": 68,
        "time": 55.8,
        "duration": 0.3,
        "velocity": 0.61,
        "hand": "right"
      },
      {
        "midi": 68,
        "time": 55.8,
        "duration": 0.15,
        "velocity": 0.54,
        "hand": "right"
      },
      {
        "midi": 68,
        "time": 55.8,
        "duration": 0.45,
        "velocity": 0.54,
        "hand": "right"
      },
      {
        "midi": 70,
        "time": 55.8,
        "duration": 0.075,
        "velocity": 0.69,
        "hand": "right"
      },
      {
        "midi": 38,
        "time": 56.1,
        "duration": 0.075,
        "velocity": 0.55,
        "hand": "left"
      },
      {
        "midi": 42,
        "time": 56.1,
        "duration": 0.075,
        "velocity": 0.54,
        "hand": "left"
      },
      {
        "midi": 51,
        "time": 56.1,
        "duration": 0.075,
        "velocity": 0.54,
        "hand": "left"
      },
      {
        "midi": 52,
        "time": 56.1,
        "duration": 0.15,
        "velocity": 0.64,
        "hand": "left"
      },
      {
        "midi": 54,
        "time": 56.1,
        "duration": 0.075,
        "velocity": 0.64,
        "hand": "left"
      },
      {
        "midi": 58,
        "time": 56.1,
        "duration": 0.15,
        "velocity": 0.65,
        "hand": "left"
      },
      {
        "midi": 61,
        "time": 56.1,
        "duration": 0.15,
        "velocity": 0.69,
        "hand": "right"
      },
      {
        "midi": 63,
        "time": 56.1,
        "duration": 0.15,
        "velocity": 0.69,
        "hand": "right"
      },
      {
        "midi": 64,
        "time": 56.1,
        "duration": 0.15,
        "velocity": 0.64,
        "hand": "right"
      },
      {
        "midi": 68,
        "time": 56.1,
        "duration": 0.15,
        "velocity": 0.57,
        "hand": "right"
      },
      {
        "midi": 70,
        "time": 56.1,
        "duration": 0.075,
        "velocity": 0.7,
        "hand": "right"
      },
      {
        "midi": 35,
        "time": 56.4,
        "duration": 0.075,
        "velocity": 0.56,
        "hand": "left"
      },
      {
        "midi": 38,
        "time": 56.4,
        "duration": 0.6,
        "velocity": 0.87,
        "hand": "left"
      },
      {
        "midi": 42,
        "time": 56.4,
        "duration": 0.075,
        "velocity": 0.65,
        "hand": "left"
      },
      {
        "midi": 45,
        "time": 56.4,
        "duration": 0.75,
        "velocity": 0.61,
        "hand": "left"
      },
      {
        "midi": 51,
        "time": 56.4,
        "duration": 0.075,
        "velocity": 0.57,
        "hand": "left"
      },
      {
        "midi": 57,
        "time": 56.4,
        "duration": 0.6,
        "velocity": 0.51,
        "hand": "left"
      },
      {
        "midi": 57,
        "time": 56.4,
        "duration": 2.25,
        "velocity": 0.5,
        "hand": "left"
      },
      {
        "midi": 57,
        "time": 56.4,
        "duration": 1.05,
        "velocity": 0.64,
        "hand": "left"
      },
      {
        "midi": 60,
        "time": 56.4,
        "duration": 0.45,
        "velocity": 0.52,
        "hand": "right"
      },
      {
        "midi": 60,
        "time": 56.4,
        "duration": 2.25,
        "velocity": 0.49,
        "hand": "right"
      },
      {
        "midi": 60,
        "time": 56.4,
        "duration": 1.05,
        "velocity": 0.61,
        "hand": "right"
      },
      {
        "midi": 62,
        "time": 56.4,
        "duration": 0.75,
        "velocity": 0.61,
        "hand": "right"
      },
      {
        "midi": 62,
        "time": 56.4,
        "duration": 3.3,
        "velocity": 0.49,
        "hand": "right"
      },
      {
        "midi": 62,
        "time": 56.4,
        "duration": 1.05,
        "velocity": 0.57,
        "hand": "right"
      },
      {
        "midi": 62,
        "time": 56.4,
        "duration": 0.75,
        "velocity": 0.61,
        "hand": "right"
      },
      {
        "midi": 64,
        "time": 56.4,
        "duration": 0.6,
        "velocity": 0.5,
        "hand": "right"
      },
      {
        "midi": 65,
        "time": 56.4,
        "duration": 3.3,
        "velocity": 0.45,
        "hand": "right"
      },
      {
        "midi": 65,
        "time": 56.4,
        "duration": 1.05,
        "velocity": 0.58,
        "hand": "right"
      },
      {
        "midi": 65,
        "time": 56.4,
        "duration": 0.75,
        "velocity": 0.61,
        "hand": "right"
      },
      {
        "midi": 67,
        "time": 56.4,
        "duration": 0.45,
        "velocity": 0.5,
        "hand": "right"
      },
      {
        "midi": 70,
        "time": 56.4,
        "duration": 0.075,
        "velocity": 0.72,
        "hand": "right"
      },
      {
        "midi": 38,
        "time": 56.7,
        "duration": 0.075,
        "velocity": 0.54,
        "hand": "left"
      },
      {
        "midi": 42,
        "time": 56.7,
        "duration": 0.075,
        "velocity": 0.58,
        "hand": "left"
      },
      {
        "midi": 51,
        "time": 56.7,
        "duration": 0.075,
        "velocity": 0.54,
        "hand": "left"
      },
      {
        "midi": 54,
        "time": 56.7,
        "duration": 0.075,
        "velocity": 0.56,
        "hand": "left"
      },
      {
        "midi": 57,
        "time": 56.7,
        "duration": 0.075,
        "velocity": 0.54,
        "hand": "left"
      },
      {
        "midi": 60,
        "time": 56.7,
        "duration": 0.075,
        "velocity": 0.61,
        "hand": "right"
      },
      {
        "midi": 64,
        "time": 56.7,
        "duration": 0.075,
        "velocity": 0.57,
        "hand": "right"
      },
      {
        "midi": 67,
        "time": 56.7,
        "duration": 0.075,
        "velocity": 0.5,
        "hand": "right"
      },
      {
        "midi": 33,
        "time": 57,
        "duration": 0.45,
        "velocity": 0.87,
        "hand": "left"
      },
      {
        "midi": 35,
        "time": 57,
        "duration": 0.075,
        "velocity": 0.61,
        "hand": "left"
      },
      {
        "midi": 42,
        "time": 57,
        "duration": 0.075,
        "velocity": 0.55,
        "hand": "left"
      },
      {
        "midi": 51,
        "time": 57,
        "duration": 0.075,
        "velocity": 0.61,
        "hand": "left"
      },
      {
        "midi": 57,
        "time": 57,
        "duration": 0.15,
        "velocity": 0.5,
        "hand": "left"
      },
      {
        "midi": 60,
        "time": 57,
        "duration": 0.15,
        "velocity": 0.51,
        "hand": "right"
      },
      {
        "midi": 64,
        "time": 57,
        "duration": 0.15,
        "velocity": 0.49,
        "hand": "right"
      },
      {
        "midi": 67,
        "time": 57,
        "duration": 0.15,
        "velocity": 0.39,
        "hand": "right"
      },
      {
        "midi": 38,
        "time": 57.3,
        "duration": 0.075,
        "velocity": 0.56,
        "hand": "left"
      },
      {
        "midi": 42,
        "time": 57.3,
        "duration": 0.075,
        "velocity": 0.55,
        "hand": "left"
      },
      {
        "midi": 51,
        "time": 57.3,
        "duration": 0.075,
        "velocity": 0.56,
        "hand": "left"
      },
      {
        "midi": 54,
        "time": 57.3,
        "duration": 0.075,
        "velocity": 0.58,
        "hand": "left"
      },
      {
        "midi": 57,
        "time": 57.3,
        "duration": 0.075,
        "velocity": 0.65,
        "hand": "left"
      },
      {
        "midi": 57,
        "time": 57.3,
        "duration": 0.15,
        "velocity": 0.72,
        "hand": "left"
      },
      {
        "midi": 60,
        "time": 57.3,
        "duration": 0.075,
        "velocity": 0.72,
        "hand": "right"
      },
      {
        "midi": 64,
        "time": 57.3,
        "duration": 0.075,
        "velocity": 0.59,
        "hand": "right"
      },
      {
        "midi": 67,
        "time": 57.3,
        "duration": 0.15,
        "velocity": 0.55,
        "hand": "right"
      },
      {
        "midi": 69,
        "time": 57.3,
        "duration": 0.15,
        "velocity": 0.72,
        "hand": "right"
      },
      {
        "midi": 35,
        "time": 57.6,
        "duration": 0.075,
        "velocity": 0.7,
        "hand": "left"
      },
      {
        "midi": 38,
        "time": 57.6,
        "duration": 0.6,
        "velocity": 0.84,
        "hand": "left"
      },
      {
        "midi": 42,
        "time": 57.6,
        "duration": 0.075,
        "velocity": 0.54,
        "hand": "left"
      },
      {
        "midi": 51,
        "time": 57.6,
        "duration": 0.075,
        "velocity": 0.53,
        "hand": "left"
      },
      {
        "midi": 57,
        "time": 57.6,
        "duration": 0.15,
        "velocity": 0.51,
        "hand": "left"
      },
      {
        "midi": 57,
        "time": 57.6,
        "duration": 1.05,
        "velocity": 0.73,
        "hand": "left"
      },
      {
        "midi": 57,
        "time": 57.6,
        "duration": 0.15,
        "velocity": 0.59,
        "hand": "left"
      },
      {
        "midi": 60,
        "time": 57.6,
        "duration": 0.075,
        "velocity": 0.54,
        "hand": "right"
      },
      {
        "midi": 60,
        "time": 57.6,
        "duration": 0.9,
        "velocity": 0.73,
        "hand": "right"
      },
      {
        "midi": 62,
        "time": 57.6,
        "duration": 1.05,
        "velocity": 0.69,
        "hand": "right"
      },
      {
        "midi": 64,
        "time": 57.6,
        "duration": 0.15,
        "velocity": 0.55,
        "hand": "right"
      },
      {
        "midi": 65,
        "time": 57.6,
        "duration": 1.05,
        "velocity": 0.61,
        "hand": "right"
      },
      {
        "midi": 67,
        "time": 57.6,
        "duration": 0.15,
        "velocity": 0.5,
        "hand": "right"
      },
      {
        "midi": 69,
        "time": 57.6,
        "duration": 0.15,
        "velocity": 0.59,
        "hand": "right"
      },
      {
        "midi": 57,
        "time": 57.75,
        "duration": 0.15,
        "velocity": 0.48,
        "hand": "left"
      },
      {
        "midi": 60,
        "time": 57.75,
        "duration": 0.075,
        "velocity": 0.53,
        "hand": "right"
      },
      {
        "midi": 64,
        "time": 57.75,
        "duration": 0.15,
        "velocity": 0.44,
        "hand": "right"
      },
      {
        "midi": 67,
        "time": 57.75,
        "duration": 0.075,
        "velocity": 0.31,
        "hand": "right"
      },
      {
        "midi": 38,
        "time": 57.9,
        "duration": 0.075,
        "velocity": 0.57,
        "hand": "left"
      },
      {
        "midi": 42,
        "time": 57.9,
        "duration": 0.075,
        "velocity": 0.61,
        "hand": "left"
      },
      {
        "midi": 51,
        "time": 57.9,
        "duration": 0.075,
        "velocity": 0.61,
        "hand": "left"
      },
      {
        "midi": 54,
        "time": 57.9,
        "duration": 0.075,
        "velocity": 0.57,
        "hand": "left"
      },
      {
        "midi": 57,
        "time": 57.9,
        "duration": 0.075,
        "velocity": 0.58,
        "hand": "left"
      },
      {
        "midi": 57,
        "time": 57.9,
        "duration": 0.3,
        "velocity": 0.57,
        "hand": "left"
      },
      {
        "midi": 60,
        "time": 57.9,
        "duration": 0.075,
        "velocity": 0.72,
        "hand": "right"
      },
      {
        "midi": 64,
        "time": 57.9,
        "duration": 0.075,
        "velocity": 0.57,
        "hand": "right"
      },
      {
        "midi": 67,
        "time": 57.9,
        "duration": 0.075,
        "velocity": 0.52,
        "hand": "right"
      },
      {
        "midi": 69,
        "time": 57.9,
        "duration": 0.3,
        "velocity": 0.57,
        "hand": "right"
      },
      {
        "midi": 70,
        "time": 57.9,
        "duration": 0.075,
        "velocity": 0.7,
        "hand": "right"
      },
      {
        "midi": 33,
        "time": 58.2,
        "duration": 0.45,
        "velocity": 0.97,
        "hand": "left"
      },
      {
        "midi": 35,
        "time": 58.2,
        "duration": 0.075,
        "velocity": 0.73,
        "hand": "left"
      },
      {
        "midi": 42,
        "time": 58.2,
        "duration": 0.075,
        "velocity": 0.57,
        "hand": "left"
      },
      {
        "midi": 51,
        "time": 58.2,
        "duration": 0.075,
        "velocity": 0.53,
        "hand": "left"
      },
      {
        "midi": 57,
        "time": 58.2,
        "duration": 0.15,
        "velocity": 0.63,
        "hand": "left"
      },
      {
        "midi": 59,
        "time": 58.2,
        "duration": 0.3,
        "velocity": 0.57,
        "hand": "left"
      },
      {
        "midi": 60,
        "time": 58.2,
        "duration": 0.15,
        "velocity": 0.68,
        "hand": "right"
      },
      {
        "midi": 64,
        "time": 58.2,
        "duration": 0.15,
        "velocity": 0.61,
        "hand": "right"
      },
      {
        "midi": 67,
        "time": 58.2,
        "duration": 0.15,
        "velocity": 0.51,
        "hand": "right"
      },
      {
        "midi": 70,
        "time": 58.2,
        "duration": 0.075,
        "velocity": 0.63,
        "hand": "right"
      },
      {
        "midi": 71,
        "time": 58.2,
        "duration": 0.3,
        "velocity": 0.57,
        "hand": "right"
      },
      {
        "midi": 38,
        "time": 58.5,
        "duration": 0.075,
        "velocity": 0.55,
        "hand": "left"
      },
      {
        "midi": 42,
        "time": 58.5,
        "duration": 0.075,
        "velocity": 0.56,
        "hand": "left"
      },
      {
        "midi": 51,
        "time": 58.5,
        "duration": 0.075,
        "velocity": 0.57,
        "hand": "left"
      },
      {
        "midi": 54,
        "time": 58.5,
        "duration": 0.075,
        "velocity": 0.5,
        "hand": "left"
      },
      {
        "midi": 57,
        "time": 58.5,
        "duration": 0.15,
        "velocity": 0.59,
        "hand": "left"
      },
      {
        "midi": 57,
        "time": 58.5,
        "duration": 0.3,
        "velocity": 0.54,
        "hand": "left"
      },
      {
        "midi": 60,
        "time": 58.5,
        "duration": 0.075,
        "velocity": 0.68,
        "hand": "right"
      },
      {
        "midi": 64,
        "time": 58.5,
        "duration": 0.15,
        "velocity": 0.61,
        "hand": "right"
      },
      {
        "midi": 67,
        "time": 58.5,
        "duration": 0.15,
        "velocity": 0.56,
        "hand": "right"
      },
      {
        "midi": 69,
        "time": 58.5,
        "duration": 0.3,
        "velocity": 0.54,
        "hand": "right"
      },
      {
        "midi": 70,
        "time": 58.5,
        "duration": 0.075,
        "velocity": 0.56,
        "hand": "right"
      },
      {
        "midi": 35,
        "time": 58.8,
        "duration": 0.075,
        "velocity": 0.72,
        "hand": "left"
      },
      {
        "midi": 38,
        "time": 58.8,
        "duration": 0.6,
        "velocity": 0.98,
        "hand": "left"
      },
      {
        "midi": 42,
        "time": 58.8,
        "duration": 0.075,
        "velocity": 0.54,
        "hand": "left"
      },
      {
        "midi": 51,
        "time": 58.8,
        "duration": 0.075,
        "velocity": 0.46,
        "hand": "left"
      },
      {
        "midi": 53,
        "time": 58.8,
        "duration": 0.45,
        "velocity": 0.57,
        "hand": "left"
      },
      {
        "midi": 55,
        "time": 58.8,
        "duration": 0.75,
        "velocity": 0.55,
        "hand": "left"
      },
      {
        "midi": 55,
        "time": 58.8,
        "duration": 0.6,
        "velocity": 0.65,
        "hand": "left"
      },
      {
        "midi": 55,
        "time": 58.8,
        "duration": 0.15,
        "velocity": 0.64,
        "hand": "left"
      },
      {
        "midi": 57,
        "time": 58.8,
        "duration": 0.45,
        "velocity": 0.56,
        "hand": "left"
      },
      {
        "midi": 59,
        "time": 58.8,
        "duration": 0.45,
        "velocity": 0.56,
        "hand": "left"
      },
      {
        "midi": 59,
        "time": 58.8,
        "duration": 0.75,
        "velocity": 0.53,
        "hand": "left"
      },
      {
        "midi": 59,
        "time": 58.8,
        "duration": 0.6,
        "velocity": 0.68,
        "hand": "left"
      },
      {
        "midi": 62,
        "time": 58.8,
        "duration": 0.75,
        "velocity": 0.58,
        "hand": "right"
      },
      {
        "midi": 64,
        "time": 58.8,
        "duration": 0.45,
        "velocity": 0.54,
        "hand": "right"
      },
      {
        "midi": 65,
        "time": 58.8,
        "duration": 0.75,
        "velocity": 0.56,
        "hand": "right"
      },
      {
        "midi": 67,
        "time": 58.8,
        "duration": 0.15,
        "velocity": 0.64,
        "hand": "right"
      },
      {
        "midi": 70,
        "time": 58.8,
        "duration": 0.075,
        "velocity": 0.73,
        "hand": "right"
      },
      {
        "midi": 38,
        "time": 59.1,
        "duration": 0.075,
        "velocity": 0.56,
        "hand": "left"
      },
      {
        "midi": 42,
        "time": 59.1,
        "duration": 0.075,
        "velocity": 0.46,
        "hand": "left"
      },
      {
        "midi": 51,
        "time": 59.1,
        "duration": 0.075,
        "velocity": 0.52,
        "hand": "left"
      },
      {
        "midi": 54,
        "time": 59.1,
        "duration": 0.075,
        "velocity": 0.56,
        "hand": "left"
      },
      {
        "midi": 55,
        "time": 59.1,
        "duration": 0.3,
        "velocity": 0.52,
        "hand": "left"
      },
      {
        "midi": 59,
        "time": 59.1,
        "duration": 0.075,
        "velocity": 0.61,
        "hand": "left"
      },
      {
        "midi": 62,
        "time": 59.1,
        "duration": 0.075,
        "velocity": 0.68,
        "hand": "right"
      },
      {
        "midi": 64,
        "time": 59.1,
        "duration": 0.075,
        "velocity": 0.69,
        "hand": "right"
      },
      {
        "midi": 67,
        "time": 59.1,
        "duration": 0.3,
        "velocity": 0.52,
        "hand": "right"
      },
      {
        "midi": 69,
        "time": 59.1,
        "duration": 0.15,
        "velocity": 0.63,
        "hand": "right"
      },
      {
        "midi": 35,
        "time": 59.4,
        "duration": 0.075,
        "velocity": 0.7,
        "hand": "left"
      },
      {
        "midi": 38,
        "time": 59.4,
        "duration": 0.6,
        "velocity": 0.94,
        "hand": "left"
      },
      {
        "midi": 42,
        "time": 59.4,
        "duration": 0.075,
        "velocity": 0.5,
        "hand": "left"
      },
      {
        "midi": 51,
        "time": 59.4,
        "duration": 0.075,
        "velocity": 0.54,
        "hand": "left"
      },
      {
        "midi": 52,
        "time": 59.4,
        "duration": 0.3,
        "velocity": 0.63,
        "hand": "left"
      },
      {
        "midi": 53,
        "time": 59.4,
        "duration": 0.15,
        "velocity": 0.63,
        "hand": "left"
      },
      {
        "midi": 57,
        "time": 59.4,
        "duration": 0.15,
        "velocity": 0.56,
        "hand": "left"
      },
      {
        "midi": 59,
        "time": 59.4,
        "duration": 0.15,
        "velocity": 0.57,
        "hand": "left"
      },
      {
        "midi": 64,
        "time": 59.4,
        "duration": 0.15,
        "velocity": 0.56,
        "hand": "right"
      },
      {
        "midi": 64,
        "time": 59.4,
        "duration": 0.3,
        "velocity": 0.63,
        "hand": "right"
      },
      {
        "midi": 38,
        "time": 59.7,
        "duration": 0.075,
        "velocity": 0.53,
        "hand": "left"
      },
      {
        "midi": 42,
        "time": 59.7,
        "duration": 0.075,
        "velocity": 0.54,
        "hand": "left"
      },
      {
        "midi": 51,
        "time": 59.7,
        "duration": 0.075,
        "velocity": 0.54,
        "hand": "left"
      },
      {
        "midi": 54,
        "time": 59.7,
        "duration": 0.075,
        "velocity": 0.57,
        "hand": "left"
      },
      {
        "midi": 55,
        "time": 59.7,
        "duration": 0.15,
        "velocity": 0.54,
        "hand": "left"
      },
      {
        "midi": 59,
        "time": 59.7,
        "duration": 0.075,
        "velocity": 0.7,
        "hand": "left"
      },
      {
        "midi": 62,
        "time": 59.7,
        "duration": 0.075,
        "velocity": 0.72,
        "hand": "right"
      },
      {
        "midi": 64,
        "time": 59.7,
        "duration": 0.075,
        "velocity": 0.58,
        "hand": "right"
      },
      {
        "midi": 65,
        "time": 59.7,
        "duration": 0.075,
        "velocity": 0.35,
        "hand": "right"
      },
      {
        "midi": 67,
        "time": 59.7,
        "duration": 0.15,
        "velocity": 0.54,
        "hand": "right"
      },
      {
        "midi": 69,
        "time": 59.7,
        "duration": 0.15,
        "velocity": 0.68,
        "hand": "right"
      },
      {
        "midi": 35,
        "time": 60,
        "duration": 0.075,
        "velocity": 0.69,
        "hand": "left"
      },
      {
        "midi": 37,
        "time": 60,
        "duration": 0.45,
        "velocity": 0.94,
        "hand": "left"
      },
      {
        "midi": 42,
        "time": 60,
        "duration": 0.075,
        "velocity": 0.54,
        "hand": "left"
      },
      {
        "midi": 51,
        "time": 60,
        "duration": 0.075,
        "velocity": 0.51,
        "hand": "left"
      },
      {
        "midi": 53,
        "time": 60,
        "duration": 0.15,
        "velocity": 0.65,
        "hand": "left"
      },
      {
        "midi": 56,
        "time": 60,
        "duration": 0.45,
        "velocity": 0.57,
        "hand": "left"
      },
      {
        "midi": 57,
        "time": 60,
        "duration": 0.15,
        "velocity": 0.57,
        "hand": "left"
      },
      {
        "midi": 57,
        "time": 60,
        "duration": 0.45,
        "velocity": 0.54,
        "hand": "left"
      },
      {
        "midi": 60,
        "time": 60,
        "duration": 0.15,
        "velocity": 0.58,
        "hand": "right"
      },
      {
        "midi": 60,
        "time": 60,
        "duration": 0.3,
        "velocity": 0.58,
        "hand": "right"
      },
      {
        "midi": 60,
        "time": 60,
        "duration": 0.45,
        "velocity": 0.56,
        "hand": "right"
      },
      {
        "midi": 62,
        "time": 60,
        "duration": 0.3,
        "velocity": 0.57,
        "hand": "right"
      },
      {
        "midi": 62,
        "time": 60,
        "duration": 0.45,
        "velocity": 0.5,
        "hand": "right"
      },
      {
        "midi": 64,
        "time": 60,
        "duration": 0.15,
        "velocity": 0.54,
        "hand": "right"
      },
      {
        "midi": 65,
        "time": 60,
        "duration": 0.15,
        "velocity": 0.65,
        "hand": "right"
      },
      {
        "midi": 65,
        "time": 60,
        "duration": 0.3,
        "velocity": 0.55,
        "hand": "right"
      },
      {
        "midi": 65,
        "time": 60,
        "duration": 0.45,
        "velocity": 0.47,
        "hand": "right"
      },
      {
        "midi": 65,
        "time": 60,
        "duration": 0.15,
        "velocity": 0.65,
        "hand": "right"
      },
      {
        "midi": 67,
        "time": 60,
        "duration": 0.15,
        "velocity": 0.5,
        "hand": "right"
      },
      {
        "midi": 38,
        "time": 60.3,
        "duration": 0.075,
        "velocity": 0.54,
        "hand": "left"
      },
      {
        "midi": 42,
        "time": 60.3,
        "duration": 0.075,
        "velocity": 0.57,
        "hand": "left"
      },
      {
        "midi": 51,
        "time": 60.3,
        "duration": 0.075,
        "velocity": 0.55,
        "hand": "left"
      },
      {
        "midi": 53,
        "time": 60.3,
        "duration": 0.3,
        "velocity": 0.54,
        "hand": "left"
      },
      {
        "midi": 54,
        "time": 60.3,
        "duration": 0.075,
        "velocity": 0.54,
        "hand": "left"
      },
      {
        "midi": 57,
        "time": 60.3,
        "duration": 0.15,
        "velocity": 0.54,
        "hand": "left"
      },
      {
        "midi": 57,
        "time": 60.3,
        "duration": 0.075,
        "velocity": 0.64,
        "hand": "left"
      },
      {
        "midi": 60,
        "time": 60.3,
        "duration": 0.15,
        "velocity": 0.53,
        "hand": "right"
      },
      {
        "midi": 60,
        "time": 60.3,
        "duration": 0.075,
        "velocity": 0.7,
        "hand": "right"
      },
      {
        "midi": 64,
        "time": 60.3,
        "duration": 0.15,
        "velocity": 0.52,
        "hand": "right"
      },
      {
        "midi": 64,
        "time": 60.3,
        "duration": 0.075,
        "velocity": 0.54,
        "hand": "right"
      },
      {
        "midi": 65,
        "time": 60.3,
        "duration": 0.075,
        "velocity": 0.51,
        "hand": "right"
      },
      {
        "midi": 65,
        "time": 60.3,
        "duration": 0.3,
        "velocity": 0.54,
        "hand": "right"
      },
      {
        "midi": 67,
        "time": 60.3,
        "duration": 0.15,
        "velocity": 0.39,
        "hand": "right"
      },
      {
        "midi": 67,
        "time": 60.3,
        "duration": 0.075,
        "velocity": 0.61,
        "hand": "right"
      },
      {
        "midi": 70,
        "time": 60.3,
        "duration": 0.075,
        "velocity": 0.72,
        "hand": "right"
      },
      {
        "midi": 35,
        "time": 60.6,
        "duration": 0.075,
        "velocity": 0.56,
        "hand": "left"
      },
      {
        "midi": 37,
        "time": 60.6,
        "duration": 0.6,
        "velocity": 0.98,
        "hand": "left"
      },
      {
        "midi": 42,
        "time": 60.6,
        "duration": 0.075,
        "velocity": 0.57,
        "hand": "left"
      },
      {
        "midi": 51,
        "time": 60.6,
        "duration": 0.075,
        "velocity": 0.5,
        "hand": "left"
      },
      {
        "midi": 52,
        "time": 60.6,
        "duration": 0.3,
        "velocity": 0.61,
        "hand": "left"
      },
      {
        "midi": 55,
        "time": 60.6,
        "duration": 0.3,
        "velocity": 0.54,
        "hand": "left"
      },
      {
        "midi": 56,
        "time": 60.6,
        "duration": 0.15,
        "velocity": 0.55,
        "hand": "left"
      },
      {
        "midi": 56,
        "time": 60.6,
        "duration": 0.45,
        "velocity": 0.46,
        "hand": "left"
      },
      {
        "midi": 59,
        "time": 60.6,
        "duration": 0.15,
        "velocity": 0.55,
        "hand": "left"
      },
      {
        "midi": 59,
        "time": 60.6,
        "duration": 0.3,
        "velocity": 0.52,
        "hand": "left"
      },
      {
        "midi": 62,
        "time": 60.6,
        "duration": 0.3,
        "velocity": 0.51,
        "hand": "right"
      },
      {
        "midi": 63,
        "time": 60.6,
        "duration": 0.15,
        "velocity": 0.51,
        "hand": "right"
      },
      {
        "midi": 63,
        "time": 60.6,
        "duration": 0.45,
        "velocity": 0.54,
        "hand": "right"
      },
      {
        "midi": 64,
        "time": 60.6,
        "duration": 0.3,
        "velocity": 0.61,
        "hand": "right"
      },
      {
        "midi": 65,
        "time": 60.6,
        "duration": 0.3,
        "velocity": 0.47,
        "hand": "right"
      },
      {
        "midi": 67,
        "time": 60.6,
        "duration": 0.15,
        "velocity": 0.37,
        "hand": "right"
      },
      {
        "midi": 67,
        "time": 60.6,
        "duration": 0.45,
        "velocity": 0.36,
        "hand": "right"
      },
      {
        "midi": 68,
        "time": 60.6,
        "duration": 0.15,
        "velocity": 0.37,
        "hand": "right"
      },
      {
        "midi": 70,
        "time": 60.6,
        "duration": 0.075,
        "velocity": 0.69,
        "hand": "right"
      },
      {
        "midi": 38,
        "time": 60.9,
        "duration": 0.075,
        "velocity": 0.55,
        "hand": "left"
      },
      {
        "midi": 42,
        "time": 60.9,
        "duration": 0.075,
        "velocity": 0.54,
        "hand": "left"
      },
      {
        "midi": 50,
        "time": 60.9,
        "duration": 0.3,
        "velocity": 0.57,
        "hand": "left"
      },
      {
        "midi": 51,
        "time": 60.9,
        "duration": 0.075,
        "velocity": 0.54,
        "hand": "left"
      },
      {
        "midi": 54,
        "time": 60.9,
        "duration": 0.075,
        "velocity": 0.64,
        "hand": "left"
      },
      {
        "midi": 56,
        "time": 60.9,
        "duration": 0.15,
        "velocity": 0.53,
        "hand": "left"
      },
      {
        "midi": 59,
        "time": 60.9,
        "duration": 0.15,
        "velocity": 0.55,
        "hand": "left"
      },
      {
        "midi": 62,
        "time": 60.9,
        "duration": 0.3,
        "velocity": 0.57,
        "hand": "right"
      },
      {
        "midi": 63,
        "time": 60.9,
        "duration": 0.15,
        "velocity": 0.43,
        "hand": "right"
      },
      {
        "midi": 67,
        "time": 60.9,
        "duration": 0.15,
        "velocity": 0.49,
        "hand": "right"
      },
      {
        "midi": 70,
        "time": 60.9,
        "duration": 0.075,
        "velocity": 0.7,
        "hand": "right"
      },
      {
        "midi": 35,
        "time": 61.2,
        "duration": 0.075,
        "velocity": 0.59,
        "hand": "left"
      },
      {
        "midi": 36,
        "time": 61.2,
        "duration": 0.6,
        "velocity": 0.96,
        "hand": "left"
      },
      {
        "midi": 42,
        "time": 61.2,
        "duration": 0.075,
        "velocity": 0.73,
        "hand": "left"
      },
      {
        "midi": 57,
        "time": 61.2,
        "duration": 0.15,
        "velocity": 0.61,
        "hand": "left"
      },
      {
        "midi": 57,
        "time": 61.2,
        "duration": 0.9,
        "velocity": 0.54,
        "hand": "left"
      },
      {
        "midi": 57,
        "time": 61.2,
        "duration": 0.6,
        "velocity": 0.59,
        "hand": "left"
      },
      {
        "midi": 57,
        "time": 61.2,
        "duration": 0.075,
        "velocity": 0.52,
        "hand": "left"
      },
      {
        "midi": 60,
        "time": 61.2,
        "duration": 0.6,
        "velocity": 0.72,
        "hand": "right"
      },
      {
        "midi": 60,
        "time": 61.2,
        "duration": 0.75,
        "velocity": 0.73,
        "hand": "right"
      },
      {
        "midi": 60,
        "time": 61.2,
        "duration": 0.6,
        "velocity": 0.72,
        "hand": "right"
      },
      {
        "midi": 60,
        "time": 61.2,
        "duration": 0.75,
        "velocity": 0.73,
        "hand": "right"
      },
      {
        "midi": 62,
        "time": 61.2,
        "duration": 0.15,
        "velocity": 0.58,
        "hand": "right"
      },
      {
        "midi": 62,
        "time": 61.2,
        "duration": 0.075,
        "velocity": 0.56,
        "hand": "right"
      },
      {
        "midi": 62,
        "time": 61.2,
        "duration": 0.9,
        "velocity": 0.46,
        "hand": "right"
      },
      {
        "midi": 62,
        "time": 61.2,
        "duration": 0.6,
        "velocity": 0.7,
        "hand": "right"
      },
      {
        "midi": 67,
        "time": 61.2,
        "duration": 0.15,
        "velocity": 0.57,
        "hand": "right"
      },
      {
        "midi": 67,
        "time": 61.2,
        "duration": 0.9,
        "velocity": 0.5,
        "hand": "right"
      },
      {
        "midi": 67,
        "time": 61.2,
        "duration": 0.6,
        "velocity": 0.63,
        "hand": "right"
      },
      {
        "midi": 38,
        "time": 61.5,
        "duration": 0.075,
        "velocity": 0.57,
        "hand": "left"
      },
      {
        "midi": 42,
        "time": 61.5,
        "duration": 0.075,
        "velocity": 0.65,
        "hand": "left"
      },
      {
        "midi": 51,
        "time": 61.5,
        "duration": 0.075,
        "velocity": 0.56,
        "hand": "left"
      },
      {
        "midi": 54,
        "time": 61.5,
        "duration": 0.075,
        "velocity": 0.68,
        "hand": "left"
      },
      {
        "midi": 57,
        "time": 61.5,
        "duration": 0.15,
        "velocity": 0.55,
        "hand": "left"
      },
      {
        "midi": 62,
        "time": 61.5,
        "duration": 0.075,
        "velocity": 0.56,
        "hand": "right"
      },
      {
        "midi": 67,
        "time": 61.5,
        "duration": 0.15,
        "velocity": 0.52,
        "hand": "right"
      },
      {
        "midi": 70,
        "time": 61.5,
        "duration": 0.075,
        "velocity": 0.72,
        "hand": "right"
      },
      {
        "midi": 57,
        "time": 61.65,
        "duration": 0.15,
        "velocity": 0.51,
        "hand": "left"
      },
      {
        "midi": 62,
        "time": 61.65,
        "duration": 0.075,
        "velocity": 0.51,
        "hand": "right"
      },
      {
        "midi": 67,
        "time": 61.65,
        "duration": 0.15,
        "velocity": 0.54,
        "hand": "right"
      },
      {
        "midi": 31,
        "time": 61.8,
        "duration": 0.45,
        "velocity": 0.96,
        "hand": "left"
      },
      {
        "midi": 35,
        "time": 61.8,
        "duration": 0.075,
        "velocity": 0.55,
        "hand": "left"
      },
      {
        "midi": 42,
        "time": 61.8,
        "duration": 0.075,
        "velocity": 0.59,
        "hand": "left"
      },
      {
        "midi": 51,
        "time": 61.8,
        "duration": 0.075,
        "velocity": 0.57,
        "hand": "left"
      },
      {
        "midi": 57,
        "time": 61.8,
        "duration": 0.075,
        "velocity": 0.5,
        "hand": "left"
      },
      {
        "midi": 62,
        "time": 61.8,
        "duration": 0.075,
        "velocity": 0.72,
        "hand": "right"
      },
      {
        "midi": 64,
        "time": 61.8,
        "duration": 0.3,
        "velocity": 0.65,
        "hand": "right"
      },
      {
        "midi": 67,
        "time": 61.8,
        "duration": 0.15,
        "velocity": 0.5,
        "hand": "right"
      },
      {
        "midi": 70,
        "time": 61.8,
        "duration": 0.075,
        "velocity": 0.69,
        "hand": "right"
      },
      {
        "midi": 38,
        "time": 62.1,
        "duration": 0.075,
        "velocity": 0.53,
        "hand": "left"
      },
      {
        "midi": 42,
        "time": 62.1,
        "duration": 0.075,
        "velocity": 0.58,
        "hand": "left"
      },
      {
        "midi": 51,
        "time": 62.1,
        "duration": 0.075,
        "velocity": 0.49,
        "hand": "left"
      },
      {
        "midi": 54,
        "time": 62.1,
        "duration": 0.075,
        "velocity": 0.56,
        "hand": "left"
      },
      {
        "midi": 57,
        "time": 62.1,
        "duration": 0.75,
        "velocity": 0.65,
        "hand": "left"
      },
      {
        "midi": 57,
        "time": 62.1,
        "duration": 0.15,
        "velocity": 0.69,
        "hand": "left"
      },
      {
        "midi": 62,
        "time": 62.1,
        "duration": 0.75,
        "velocity": 0.72,
        "hand": "right"
      },
      {
        "midi": 62,
        "time": 62.1,
        "duration": 0.075,
        "velocity": 0.73,
        "hand": "right"
      },
      {
        "midi": 67,
        "time": 62.1,
        "duration": 0.75,
        "velocity": 0.61,
        "hand": "right"
      },
      {
        "midi": 67,
        "time": 62.1,
        "duration": 0.15,
        "velocity": 0.57,
        "hand": "right"
      },
      {
        "midi": 67,
        "time": 62.1,
        "duration": 0.6,
        "velocity": 0.54,
        "hand": "right"
      },
      {
        "midi": 70,
        "time": 62.1,
        "duration": 0.075,
        "velocity": 0.68,
        "hand": "right"
      },
      {
        "midi": 35,
        "time": 62.4,
        "duration": 0.075,
        "velocity": 0.55,
        "hand": "left"
      },
      {
        "midi": 36,
        "time": 62.4,
        "duration": 0.6,
        "velocity": 0.96,
        "hand": "left"
      },
      {
        "midi": 42,
        "time": 62.4,
        "duration": 0.075,
        "velocity": 0.61,
        "hand": "left"
      },
      {
        "midi": 51,
        "time": 62.4,
        "duration": 0.075,
        "velocity": 0.51,
        "hand": "left"
      },
      {
        "midi": 70,
        "time": 62.4,
        "duration": 0.075,
        "velocity": 0.61,
        "hand": "right"
      },
      {
        "midi": 38,
        "time": 62.7,
        "duration": 0.075,
        "velocity": 0.54,
        "hand": "left"
      },
      {
        "midi": 42,
        "time": 62.7,
        "duration": 0.075,
        "velocity": 0.61,
        "hand": "left"
      },
      {
        "midi": 51,
        "time": 62.7,
        "duration": 0.075,
        "velocity": 0.52,
        "hand": "left"
      },
      {
        "midi": 54,
        "time": 62.7,
        "duration": 0.075,
        "velocity": 0.68,
        "hand": "left"
      },
      {
        "midi": 57,
        "time": 62.7,
        "duration": 0.15,
        "velocity": 0.64,
        "hand": "left"
      },
      {
        "midi": 62,
        "time": 62.7,
        "duration": 0.075,
        "velocity": 0.72,
        "hand": "right"
      },
      {
        "midi": 64,
        "time": 62.7,
        "duration": 0.3,
        "velocity": 0.51,
        "hand": "right"
      },
      {
        "midi": 67,
        "time": 62.7,
        "duration": 0.075,
        "velocity": 0.55,
        "hand": "right"
      },
      {
        "midi": 31,
        "time": 63,
        "duration": 0.6,
        "velocity": 0.96,
        "hand": "left"
      },
      {
        "midi": 35,
        "time": 63,
        "duration": 0.075,
        "velocity": 0.68,
        "hand": "left"
      },
      {
        "midi": 42,
        "time": 63,
        "duration": 0.075,
        "velocity": 0.58,
        "hand": "left"
      },
      {
        "midi": 51,
        "time": 63,
        "duration": 0.075,
        "velocity": 0.49,
        "hand": "left"
      },
      {
        "midi": 57,
        "time": 63,
        "duration": 0.15,
        "velocity": 0.61,
        "hand": "left"
      },
      {
        "midi": 60,
        "time": 63,
        "duration": 0.45,
        "velocity": 0.57,
        "hand": "right"
      },
      {
        "midi": 62,
        "time": 63,
        "duration": 0.15,
        "velocity": 0.72,
        "hand": "right"
      },
      {
        "midi": 62,
        "time": 63,
        "duration": 0.075,
        "velocity": 0.72,
        "hand": "right"
      },
      {
        "midi": 62,
        "time": 63,
        "duration": 0.3,
        "velocity": 0.53,
        "hand": "right"
      },
      {
        "midi": 64,
        "time": 63,
        "duration": 0.45,
        "velocity": 0.68,
        "hand": "right"
      },
      {
        "midi": 67,
        "time": 63,
        "duration": 0.15,
        "velocity": 0.63,
        "hand": "right"
      },
      {
        "midi": 67,
        "time": 63,
        "duration": 0.075,
        "velocity": 0.54,
        "hand": "right"
      },
      {
        "midi": 69,
        "time": 63,
        "duration": 0.45,
        "velocity": 0.63,
        "hand": "right"
      },
      {
        "midi": 38,
        "time": 63.3,
        "duration": 0.075,
        "velocity": 0.53,
        "hand": "left"
      },
      {
        "midi": 42,
        "time": 63.3,
        "duration": 0.075,
        "velocity": 0.57,
        "hand": "left"
      },
      {
        "midi": 51,
        "time": 63.3,
        "duration": 0.075,
        "velocity": 0.56,
        "hand": "left"
      },
      {
        "midi": 54,
        "time": 63.3,
        "duration": 0.075,
        "velocity": 0.55,
        "hand": "left"
      },
      {
        "midi": 57,
        "time": 63.3,
        "duration": 0.15,
        "velocity": 0.49,
        "hand": "left"
      },
      {
        "midi": 60,
        "time": 63.3,
        "duration": 0.3,
        "velocity": 0.54,
        "hand": "right"
      },
      {
        "midi": 62,
        "time": 63.3,
        "duration": 0.075,
        "velocity": 0.57,
        "hand": "right"
      },
      {
        "midi": 67,
        "time": 63.3,
        "duration": 0.15,
        "velocity": 0.55,
        "hand": "right"
      },
      {
        "midi": 35,
        "time": 63.6,
        "duration": 0.6,
        "velocity": 0.96,
        "hand": "left"
      },
      {
        "midi": 35,
        "time": 63.6,
        "duration": 0.075,
        "velocity": 0.69,
        "hand": "left"
      },
      {
        "midi": 42,
        "time": 63.6,
        "duration": 0.075,
        "velocity": 0.54,
        "hand": "left"
      },
      {
        "midi": 51,
        "time": 63.6,
        "duration": 0.075,
        "velocity": 0.54,
        "hand": "left"
      },
      {
        "midi": 55,
        "time": 63.6,
        "duration": 0.75,
        "velocity": 0.61,
        "hand": "left"
      },
      {
        "midi": 55,
        "time": 63.6,
        "duration": 1.95,
        "velocity": 0.25,
        "hand": "left"
      },
      {
        "midi": 59,
        "time": 63.6,
        "duration": 0.75,
        "velocity": 0.61,
        "hand": "left"
      },
      {
        "midi": 59,
        "time": 63.6,
        "duration": 0.15,
        "velocity": 0.51,
        "hand": "left"
      },
      {
        "midi": 59,
        "time": 63.6,
        "duration": 0.6,
        "velocity": 0.57,
        "hand": "left"
      },
      {
        "midi": 59,
        "time": 63.6,
        "duration": 1.95,
        "velocity": 0.54,
        "hand": "left"
      },
      {
        "midi": 59,
        "time": 63.6,
        "duration": 0.6,
        "velocity": 0.57,
        "hand": "left"
      },
      {
        "midi": 60,
        "time": 63.6,
        "duration": 1.95,
        "velocity": 0.54,
        "hand": "right"
      },
      {
        "midi": 62,
        "time": 63.6,
        "duration": 0.75,
        "velocity": 0.55,
        "hand": "right"
      },
      {
        "midi": 62,
        "time": 63.6,
        "duration": 0.075,
        "velocity": 0.72,
        "hand": "right"
      },
      {
        "midi": 64,
        "time": 63.6,
        "duration": 0.75,
        "velocity": 0.53,
        "hand": "right"
      },
      {
        "midi": 64,
        "time": 63.6,
        "duration": 0.075,
        "velocity": 0.65,
        "hand": "right"
      },
      {
        "midi": 64,
        "time": 63.6,
        "duration": 1.95,
        "velocity": 0.56,
        "hand": "right"
      },
      {
        "midi": 67,
        "time": 63.6,
        "duration": 0.075,
        "velocity": 0.38,
        "hand": "right"
      },
      {
        "midi": 67,
        "time": 63.6,
        "duration": 2.1,
        "velocity": 0.63,
        "hand": "right"
      },
      {
        "midi": 71,
        "time": 63.6,
        "duration": 2.1,
        "velocity": 0.57,
        "hand": "right"
      },
      {
        "midi": 38,
        "time": 63.9,
        "duration": 0.075,
        "velocity": 0.58,
        "hand": "left"
      },
      {
        "midi": 42,
        "time": 63.9,
        "duration": 0.075,
        "velocity": 0.63,
        "hand": "left"
      },
      {
        "midi": 51,
        "time": 63.9,
        "duration": 0.075,
        "velocity": 0.55,
        "hand": "left"
      },
      {
        "midi": 54,
        "time": 63.9,
        "duration": 0.075,
        "velocity": 0.52,
        "hand": "left"
      },
      {
        "midi": 70,
        "time": 63.9,
        "duration": 0.075,
        "velocity": 0.72,
        "hand": "right"
      },
      {
        "midi": 59,
        "time": 64.05,
        "duration": 0.15,
        "velocity": 0.61,
        "hand": "left"
      },
      {
        "midi": 62,
        "time": 64.05,
        "duration": 0.075,
        "velocity": 0.57,
        "hand": "right"
      },
      {
        "midi": 64,
        "time": 64.05,
        "duration": 0.075,
        "velocity": 0.55,
        "hand": "right"
      },
      {
        "midi": 67,
        "time": 64.05,
        "duration": 0.15,
        "velocity": 0.53,
        "hand": "right"
      },
      {
        "midi": 35,
        "time": 64.2,
        "duration": 0.075,
        "velocity": 0.7,
        "hand": "left"
      },
      {
        "midi": 40,
        "time": 64.2,
        "duration": 0.6,
        "velocity": 0.96,
        "hand": "left"
      },
      {
        "midi": 42,
        "time": 64.2,
        "duration": 0.075,
        "velocity": 0.54,
        "hand": "left"
      },
      {
        "midi": 51,
        "time": 64.2,
        "duration": 0.075,
        "velocity": 0.51,
        "hand": "left"
      },
      {
        "midi": 59,
        "time": 64.2,
        "duration": 0.075,
        "velocity": 0.52,
        "hand": "left"
      },
      {
        "midi": 62,
        "time": 64.2,
        "duration": 0.075,
        "velocity": 0.56,
        "hand": "right"
      },
      {
        "midi": 64,
        "time": 64.2,
        "duration": 0.075,
        "velocity": 0.59,
        "hand": "right"
      },
      {
        "midi": 67,
        "time": 64.2,
        "duration": 0.075,
        "velocity": 0.42,
        "hand": "right"
      },
      {
        "midi": 69,
        "time": 64.2,
        "duration": 0.3,
        "velocity": 0.56,
        "hand": "right"
      },
      {
        "midi": 70,
        "time": 64.2,
        "duration": 0.075,
        "velocity": 0.72,
        "hand": "right"
      },
      {
        "midi": 38,
        "time": 64.5,
        "duration": 0.075,
        "velocity": 0.52,
        "hand": "left"
      },
      {
        "midi": 42,
        "time": 64.5,
        "duration": 0.075,
        "velocity": 0.54,
        "hand": "left"
      },
      {
        "midi": 51,
        "time": 64.5,
        "duration": 0.075,
        "velocity": 0.54,
        "hand": "left"
      },
      {
        "midi": 54,
        "time": 64.5,
        "duration": 0.075,
        "velocity": 0.57,
        "hand": "left"
      },
      {
        "midi": 55,
        "time": 64.5,
        "duration": 0.75,
        "velocity": 0.63,
        "hand": "left"
      },
      {
        "midi": 59,
        "time": 64.5,
        "duration": 0.75,
        "velocity": 0.68,
        "hand": "left"
      },
      {
        "midi": 59,
        "time": 64.5,
        "duration": 0.15,
        "velocity": 0.57,
        "hand": "left"
      },
      {
        "midi": 62,
        "time": 64.5,
        "duration": 0.75,
        "velocity": 0.61,
        "hand": "right"
      },
      {
        "midi": 62,
        "time": 64.5,
        "duration": 0.075,
        "velocity": 0.69,
        "hand": "right"
      },
      {
        "midi": 64,
        "time": 64.5,
        "duration": 0.75,
        "velocity": 0.55,
        "hand": "right"
      },
      {
        "midi": 64,
        "time": 64.5,
        "duration": 0.075,
        "velocity": 0.72,
        "hand": "right"
      },
      {
        "midi": 67,
        "time": 64.5,
        "duration": 0.15,
        "velocity": 0.55,
        "hand": "right"
      },
      {
        "midi": 67,
        "time": 64.5,
        "duration": 0.9,
        "velocity": 0.54,
        "hand": "right"
      },
      {
        "midi": 70,
        "time": 64.5,
        "duration": 0.075,
        "velocity": 0.58,
        "hand": "right"
      },
      {
        "midi": 35,
        "time": 64.8,
        "duration": 0.6,
        "velocity": 0.96,
        "hand": "left"
      },
      {
        "midi": 35,
        "time": 64.8,
        "duration": 0.075,
        "velocity": 0.51,
        "hand": "left"
      },
      {
        "midi": 42,
        "time": 64.8,
        "duration": 0.075,
        "velocity": 0.57,
        "hand": "left"
      },
      {
        "midi": 51,
        "time": 64.8,
        "duration": 0.075,
        "velocity": 0.56,
        "hand": "left"
      },
      {
        "midi": 70,
        "time": 64.8,
        "duration": 0.075,
        "velocity": 0.72,
        "hand": "right"
      },
      {
        "midi": 38,
        "time": 65.1,
        "duration": 0.075,
        "velocity": 0.57,
        "hand": "left"
      },
      {
        "midi": 42,
        "time": 65.1,
        "duration": 0.075,
        "velocity": 0.58,
        "hand": "left"
      },
      {
        "midi": 51,
        "time": 65.1,
        "duration": 0.075,
        "velocity": 0.54,
        "hand": "left"
      },
      {
        "midi": 54,
        "time": 65.1,
        "duration": 0.075,
        "velocity": 0.52,
        "hand": "left"
      },
      {
        "midi": 59,
        "time": 65.1,
        "duration": 0.075,
        "velocity": 0.63,
        "hand": "left"
      },
      {
        "midi": 62,
        "time": 65.1,
        "duration": 0.075,
        "velocity": 0.68,
        "hand": "right"
      },
      {
        "midi": 64,
        "time": 65.1,
        "duration": 0.075,
        "velocity": 0.58,
        "hand": "right"
      },
      {
        "midi": 67,
        "time": 65.1,
        "duration": 0.075,
        "velocity": 0.54,
        "hand": "right"
      },
      {
        "midi": 35,
        "time": 65.4,
        "duration": 0.075,
        "velocity": 0.72,
        "hand": "left"
      },
      {
        "midi": 40,
        "time": 65.4,
        "duration": 0.45,
        "velocity": 0.96,
        "hand": "left"
      },
      {
        "midi": 42,
        "time": 65.4,
        "duration": 0.075,
        "velocity": 0.54,
        "hand": "left"
      },
      {
        "midi": 51,
        "time": 65.4,
        "duration": 0.075,
        "velocity": 0.57,
        "hand": "left"
      },
      {
        "midi": 55,
        "time": 65.4,
        "duration": 0.3,
        "velocity": 0.58,
        "hand": "left"
      },
      {
        "midi": 59,
        "time": 65.4,
        "duration": 0.3,
        "velocity": 0.69,
        "hand": "left"
      },
      {
        "midi": 59,
        "time": 65.4,
        "duration": 0.15,
        "velocity": 0.72,
        "hand": "left"
      },
      {
        "midi": 62,
        "time": 65.4,
        "duration": 0.45,
        "velocity": 0.56,
        "hand": "right"
      },
      {
        "midi": 62,
        "time": 65.4,
        "duration": 0.075,
        "velocity": 0.72,
        "hand": "right"
      },
      {
        "midi": 64,
        "time": 65.4,
        "duration": 0.45,
        "velocity": 0.54,
        "hand": "right"
      },
      {
        "midi": 64,
        "time": 65.4,
        "duration": 0.075,
        "velocity": 0.69,
        "hand": "right"
      },
      {
        "midi": 67,
        "time": 65.4,
        "duration": 0.15,
        "velocity": 0.57,
        "hand": "right"
      },
      {
        "midi": 38,
        "time": 65.7,
        "duration": 0.075,
        "velocity": 0.56,
        "hand": "left"
      },
      {
        "midi": 42,
        "time": 65.7,
        "duration": 0.075,
        "velocity": 0.5,
        "hand": "left"
      },
      {
        "midi": 51,
        "time": 65.7,
        "duration": 0.075,
        "velocity": 0.56,
        "hand": "left"
      },
      {
        "midi": 54,
        "time": 65.7,
        "duration": 0.075,
        "velocity": 0.55,
        "hand": "left"
      },
      {
        "midi": 59,
        "time": 65.7,
        "duration": 0.15,
        "velocity": 0.54,
        "hand": "left"
      },
      {
        "midi": 62,
        "time": 65.7,
        "duration": 0.15,
        "velocity": 0.56,
        "hand": "right"
      },
      {
        "midi": 64,
        "time": 65.7,
        "duration": 0.075,
        "velocity": 0.55,
        "hand": "right"
      },
      {
        "midi": 67,
        "time": 65.7,
        "duration": 0.15,
        "velocity": 0.54,
        "hand": "right"
      },
      {
        "midi": 35,
        "time": 66,
        "duration": 0.075,
        "velocity": 0.57,
        "hand": "left"
      },
      {
        "midi": 38,
        "time": 66,
        "duration": 0.6,
        "velocity": 0.96,
        "hand": "left"
      },
      {
        "midi": 42,
        "time": 66,
        "duration": 0.075,
        "velocity": 0.55,
        "hand": "left"
      },
      {
        "midi": 51,
        "time": 66,
        "duration": 0.075,
        "velocity": 0.56,
        "hand": "left"
      },
      {
        "midi": 57,
        "time": 66,
        "duration": 0.45,
        "velocity": 0.72,
        "hand": "left"
      },
      {
        "midi": 57,
        "time": 66,
        "duration": 0.15,
        "velocity": 0.72,
        "hand": "left"
      },
      {
        "midi": 57,
        "time": 66,
        "duration": 0.45,
        "velocity": 0.73,
        "hand": "left"
      },
      {
        "midi": 57,
        "time": 66,
        "duration": 0.9,
        "velocity": 0.49,
        "hand": "left"
      },
      {
        "midi": 57,
        "time": 66,
        "duration": 0.45,
        "velocity": 0.73,
        "hand": "left"
      },
      {
        "midi": 60,
        "time": 66,
        "duration": 0.45,
        "velocity": 0.7,
        "hand": "right"
      },
      {
        "midi": 60,
        "time": 66,
        "duration": 0.9,
        "velocity": 0.5,
        "hand": "right"
      },
      {
        "midi": 62,
        "time": 66,
        "duration": 0.15,
        "velocity": 0.72,
        "hand": "right"
      },
      {
        "midi": 62,
        "time": 66,
        "duration": 1.2,
        "velocity": 0.51,
        "hand": "right"
      },
      {
        "midi": 62,
        "time": 66,
        "duration": 1.05,
        "velocity": 0.56,
        "hand": "right"
      },
      {
        "midi": 65,
        "time": 66,
        "duration": 0.45,
        "velocity": 0.68,
        "hand": "right"
      },
      {
        "midi": 65,
        "time": 66,
        "duration": 0.15,
        "velocity": 0.7,
        "hand": "right"
      },
      {
        "midi": 65,
        "time": 66,
        "duration": 1.05,
        "velocity": 0.5,
        "hand": "right"
      },
      {
        "midi": 69,
        "time": 66,
        "duration": 1.05,
        "velocity": 0.63,
        "hand": "right"
      },
      {
        "midi": 72,
        "time": 66,
        "duration": 1.05,
        "velocity": 0.56,
        "hand": "right"
      },
      {
        "midi": 38,
        "time": 66.3,
        "duration": 0.075,
        "velocity": 0.54,
        "hand": "left"
      },
      {
        "midi": 42,
        "time": 66.3,
        "duration": 0.075,
        "velocity": 0.54,
        "hand": "left"
      },
      {
        "midi": 51,
        "time": 66.3,
        "duration": 0.075,
        "velocity": 0.54,
        "hand": "left"
      },
      {
        "midi": 54,
        "time": 66.3,
        "duration": 0.075,
        "velocity": 0.55,
        "hand": "left"
      },
      {
        "midi": 70,
        "time": 66.3,
        "duration": 0.075,
        "velocity": 0.73,
        "hand": "right"
      },
      {
        "midi": 57,
        "time": 66.45,
        "duration": 0.15,
        "velocity": 0.63,
        "hand": "left"
      },
      {
        "midi": 62,
        "time": 66.45,
        "duration": 0.075,
        "velocity": 0.72,
        "hand": "right"
      },
      {
        "midi": 65,
        "time": 66.45,
        "duration": 0.075,
        "velocity": 0.57,
        "hand": "right"
      },
      {
        "midi": 33,
        "time": 66.6,
        "duration": 0.6,
        "velocity": 0.96,
        "hand": "left"
      },
      {
        "midi": 35,
        "time": 66.6,
        "duration": 0.075,
        "velocity": 0.68,
        "hand": "left"
      },
      {
        "midi": 42,
        "time": 66.6,
        "duration": 0.075,
        "velocity": 0.53,
        "hand": "left"
      },
      {
        "midi": 51,
        "time": 66.6,
        "duration": 0.075,
        "velocity": 0.54,
        "hand": "left"
      },
      {
        "midi": 57,
        "time": 66.6,
        "duration": 0.45,
        "velocity": 0.74,
        "hand": "left"
      },
      {
        "midi": 57,
        "time": 66.6,
        "duration": 0.15,
        "velocity": 0.54,
        "hand": "left"
      },
      {
        "midi": 60,
        "time": 66.6,
        "duration": 0.45,
        "velocity": 0.78,
        "hand": "right"
      },
      {
        "midi": 62,
        "time": 66.6,
        "duration": 0.075,
        "velocity": 0.68,
        "hand": "right"
      },
      {
        "midi": 65,
        "time": 66.6,
        "duration": 0.6,
        "velocity": 0.7,
        "hand": "right"
      },
      {
        "midi": 65,
        "time": 66.6,
        "duration": 0.15,
        "velocity": 0.49,
        "hand": "right"
      },
      {
        "midi": 69,
        "time": 66.6,
        "duration": 0.3,
        "velocity": 0.56,
        "hand": "right"
      },
      {
        "midi": 70,
        "time": 66.6,
        "duration": 0.075,
        "velocity": 0.72,
        "hand": "right"
      },
      {
        "midi": 38,
        "time": 66.9,
        "duration": 0.075,
        "velocity": 0.56,
        "hand": "left"
      },
      {
        "midi": 42,
        "time": 66.9,
        "duration": 0.075,
        "velocity": 0.57,
        "hand": "left"
      },
      {
        "midi": 51,
        "time": 66.9,
        "duration": 0.075,
        "velocity": 0.54,
        "hand": "left"
      },
      {
        "midi": 54,
        "time": 66.9,
        "duration": 0.075,
        "velocity": 0.54,
        "hand": "left"
      },
      {
        "midi": 57,
        "time": 66.9,
        "duration": 0.15,
        "velocity": 0.73,
        "hand": "left"
      },
      {
        "midi": 62,
        "time": 66.9,
        "duration": 0.15,
        "velocity": 0.75,
        "hand": "right"
      },
      {
        "midi": 65,
        "time": 66.9,
        "duration": 0.15,
        "velocity": 0.64,
        "hand": "right"
      },
      {
        "midi": 67,
        "time": 66.9,
        "duration": 0.6,
        "velocity": 0.5,
        "hand": "right"
      },
      {
        "midi": 70,
        "time": 66.9,
        "duration": 0.075,
        "velocity": 0.72,
        "hand": "right"
      },
      {
        "midi": 31,
        "time": 67.2,
        "duration": 0.6,
        "velocity": 0.96,
        "hand": "left"
      },
      {
        "midi": 35,
        "time": 67.2,
        "duration": 0.075,
        "velocity": 0.69,
        "hand": "left"
      },
      {
        "midi": 42,
        "time": 67.2,
        "duration": 0.075,
        "velocity": 0.68,
        "hand": "left"
      },
      {
        "midi": 51,
        "time": 67.2,
        "duration": 0.075,
        "velocity": 0.58,
        "hand": "left"
      },
      {
        "midi": 55,
        "time": 67.2,
        "duration": 0.45,
        "velocity": 0.68,
        "hand": "left"
      },
      {
        "midi": 55,
        "time": 67.2,
        "duration": 0.15,
        "velocity": 0.61,
        "hand": "left"
      },
      {
        "midi": 55,
        "time": 67.2,
        "duration": 0.9,
        "velocity": 0.5,
        "hand": "left"
      },
      {
        "midi": 59,
        "time": 67.2,
        "duration": 0.45,
        "velocity": 0.57,
        "hand": "left"
      },
      {
        "midi": 59,
        "time": 67.2,
        "duration": 0.15,
        "velocity": 0.58,
        "hand": "left"
      },
      {
        "midi": 59,
        "time": 67.2,
        "duration": 0.9,
        "velocity": 0.56,
        "hand": "left"
      },
      {
        "midi": 62,
        "time": 67.2,
        "duration": 0.6,
        "velocity": 0.54,
        "hand": "right"
      },
      {
        "midi": 62,
        "time": 67.2,
        "duration": 0.15,
        "velocity": 0.58,
        "hand": "right"
      },
      {
        "midi": 62,
        "time": 67.2,
        "duration": 0.9,
        "velocity": 0.49,
        "hand": "right"
      },
      {
        "midi": 65,
        "time": 67.2,
        "duration": 0.6,
        "velocity": 0.46,
        "hand": "right"
      },
      {
        "midi": 65,
        "time": 67.2,
        "duration": 0.15,
        "velocity": 0.54,
        "hand": "right"
      },
      {
        "midi": 65,
        "time": 67.2,
        "duration": 0.9,
        "velocity": 0.5,
        "hand": "right"
      },
      {
        "midi": 67,
        "time": 67.2,
        "duration": 1.05,
        "velocity": 0.61,
        "hand": "right"
      },
      {
        "midi": 70,
        "time": 67.2,
        "duration": 0.075,
        "velocity": 0.73,
        "hand": "right"
      },
      {
        "midi": 71,
        "time": 67.2,
        "duration": 1.05,
        "velocity": 0.57,
        "hand": "right"
      },
      {
        "midi": 38,
        "time": 67.5,
        "duration": 0.075,
        "velocity": 0.56,
        "hand": "left"
      },
      {
        "midi": 42,
        "time": 67.5,
        "duration": 0.075,
        "velocity": 0.61,
        "hand": "left"
      },
      {
        "midi": 51,
        "time": 67.5,
        "duration": 0.075,
        "velocity": 0.56,
        "hand": "left"
      },
      {
        "midi": 54,
        "time": 67.5,
        "duration": 0.075,
        "velocity": 0.55,
        "hand": "left"
      },
      {
        "midi": 55,
        "time": 67.5,
        "duration": 0.15,
        "velocity": 0.53,
        "hand": "left"
      },
      {
        "midi": 59,
        "time": 67.5,
        "duration": 0.15,
        "velocity": 0.55,
        "hand": "left"
      },
      {
        "midi": 62,
        "time": 67.5,
        "duration": 0.075,
        "velocity": 0.52,
        "hand": "right"
      },
      {
        "midi": 65,
        "time": 67.5,
        "duration": 0.15,
        "velocity": 0.54,
        "hand": "right"
      },
      {
        "midi": 65,
        "time": 67.5,
        "duration": 0.3,
        "velocity": 0.52,
        "hand": "right"
      },
      {
        "midi": 35,
        "time": 67.8,
        "duration": 0.075,
        "velocity": 0.57,
        "hand": "left"
      },
      {
        "midi": 38,
        "time": 67.8,
        "duration": 0.45,
        "velocity": 0.96,
        "hand": "left"
      },
      {
        "midi": 42,
        "time": 67.8,
        "duration": 0.075,
        "velocity": 0.61,
        "hand": "left"
      },
      {
        "midi": 51,
        "time": 67.8,
        "duration": 0.075,
        "velocity": 0.49,
        "hand": "left"
      },
      {
        "midi": 55,
        "time": 67.8,
        "duration": 0.45,
        "velocity": 0.54,
        "hand": "left"
      },
      {
        "midi": 55,
        "time": 67.8,
        "duration": 0.15,
        "velocity": 0.61,
        "hand": "left"
      },
      {
        "midi": 59,
        "time": 67.8,
        "duration": 0.3,
        "velocity": 0.55,
        "hand": "left"
      },
      {
        "midi": 59,
        "time": 67.8,
        "duration": 0.15,
        "velocity": 0.64,
        "hand": "left"
      },
      {
        "midi": 62,
        "time": 67.8,
        "duration": 0.3,
        "velocity": 0.54,
        "hand": "right"
      },
      {
        "midi": 62,
        "time": 67.8,
        "duration": 0.15,
        "velocity": 0.58,
        "hand": "right"
      },
      {
        "midi": 64,
        "time": 67.8,
        "duration": 0.3,
        "velocity": 0.57,
        "hand": "right"
      },
      {
        "midi": 65,
        "time": 67.8,
        "duration": 0.3,
        "velocity": 0.52,
        "hand": "right"
      },
      {
        "midi": 65,
        "time": 67.8,
        "duration": 0.15,
        "velocity": 0.57,
        "hand": "right"
      },
      {
        "midi": 38,
        "time": 68.1,
        "duration": 0.075,
        "velocity": 0.57,
        "hand": "left"
      },
      {
        "midi": 42,
        "time": 68.1,
        "duration": 0.075,
        "velocity": 0.58,
        "hand": "left"
      },
      {
        "midi": 51,
        "time": 68.1,
        "duration": 0.075,
        "velocity": 0.54,
        "hand": "left"
      },
      {
        "midi": 54,
        "time": 68.1,
        "duration": 0.075,
        "velocity": 0.54,
        "hand": "left"
      },
      {
        "midi": 55,
        "time": 68.1,
        "duration": 0.15,
        "velocity": 0.57,
        "hand": "left"
      },
      {
        "midi": 59,
        "time": 68.1,
        "duration": 0.075,
        "velocity": 0.61,
        "hand": "left"
      },
      {
        "midi": 62,
        "time": 68.1,
        "duration": 0.15,
        "velocity": 0.57,
        "hand": "right"
      },
      {
        "midi": 62,
        "time": 68.1,
        "duration": 0.3,
        "velocity": 0.54,
        "hand": "right"
      },
      {
        "midi": 65,
        "time": 68.1,
        "duration": 0.15,
        "velocity": 0.52,
        "hand": "right"
      },
      {
        "midi": 35,
        "time": 68.4,
        "duration": 0.075,
        "velocity": 0.7,
        "hand": "left"
      },
      {
        "midi": 36,
        "time": 68.4,
        "duration": 0.6,
        "velocity": 0.96,
        "hand": "left"
      },
      {
        "midi": 42,
        "time": 68.4,
        "duration": 0.075,
        "velocity": 0.55,
        "hand": "left"
      },
      {
        "midi": 51,
        "time": 68.4,
        "duration": 0.075,
        "velocity": 0.53,
        "hand": "left"
      },
      {
        "midi": 55,
        "time": 68.4,
        "duration": 0.6,
        "velocity": 0.54,
        "hand": "left"
      },
      {
        "midi": 55,
        "time": 68.4,
        "duration": 0.15,
        "velocity": 0.68,
        "hand": "left"
      },
      {
        "midi": 55,
        "time": 68.4,
        "duration": 0.75,
        "velocity": 0.4,
        "hand": "left"
      },
      {
        "midi": 60,
        "time": 68.4,
        "duration": 0.6,
        "velocity": 0.57,
        "hand": "right"
      },
      {
        "midi": 60,
        "time": 68.4,
        "duration": 0.15,
        "velocity": 0.73,
        "hand": "right"
      },
      {
        "midi": 60,
        "time": 68.4,
        "duration": 0.9,
        "velocity": 0.46,
        "hand": "right"
      },
      {
        "midi": 64,
        "time": 68.4,
        "duration": 0.6,
        "velocity": 0.56,
        "hand": "right"
      },
      {
        "midi": 64,
        "time": 68.4,
        "duration": 0.15,
        "velocity": 0.72,
        "hand": "right"
      },
      {
        "midi": 64,
        "time": 68.4,
        "duration": 1.5,
        "velocity": 0.52,
        "hand": "right"
      },
      {
        "midi": 64,
        "time": 68.4,
        "duration": 0.9,
        "velocity": 0.39,
        "hand": "right"
      },
      {
        "midi": 64,
        "time": 68.4,
        "duration": 1.5,
        "velocity": 0.52,
        "hand": "right"
      },
      {
        "midi": 67,
        "time": 68.4,
        "duration": 0.9,
        "velocity": 0.7,
        "hand": "right"
      },
      {
        "midi": 72,
        "time": 68.4,
        "duration": 1.05,
        "velocity": 0.69,
        "hand": "right"
      },
      {
        "midi": 38,
        "time": 68.7,
        "duration": 0.075,
        "velocity": 0.57,
        "hand": "left"
      },
      {
        "midi": 42,
        "time": 68.7,
        "duration": 0.075,
        "velocity": 0.61,
        "hand": "left"
      },
      {
        "midi": 51,
        "time": 68.7,
        "duration": 0.075,
        "velocity": 0.61,
        "hand": "left"
      },
      {
        "midi": 54,
        "time": 68.7,
        "duration": 0.075,
        "velocity": 0.57,
        "hand": "left"
      },
      {
        "midi": 70,
        "time": 68.7,
        "duration": 0.075,
        "velocity": 0.7,
        "hand": "right"
      },
      {
        "midi": 55,
        "time": 68.85,
        "duration": 0.15,
        "velocity": 0.57,
        "hand": "left"
      },
      {
        "midi": 60,
        "time": 68.85,
        "duration": 0.075,
        "velocity": 0.64,
        "hand": "right"
      },
      {
        "midi": 64,
        "time": 68.85,
        "duration": 0.15,
        "velocity": 0.59,
        "hand": "right"
      },
      {
        "midi": 31,
        "time": 69,
        "duration": 0.3,
        "velocity": 0.96,
        "hand": "left"
      },
      {
        "midi": 35,
        "time": 69,
        "duration": 0.075,
        "velocity": 0.73,
        "hand": "left"
      },
      {
        "midi": 42,
        "time": 69,
        "duration": 0.075,
        "velocity": 0.57,
        "hand": "left"
      },
      {
        "midi": 51,
        "time": 69,
        "duration": 0.075,
        "velocity": 0.53,
        "hand": "left"
      },
      {
        "midi": 55,
        "time": 69,
        "duration": 0.15,
        "velocity": 0.4,
        "hand": "left"
      },
      {
        "midi": 60,
        "time": 69,
        "duration": 0.3,
        "velocity": 0.56,
        "hand": "right"
      },
      {
        "midi": 60,
        "time": 69,
        "duration": 0.15,
        "velocity": 0.54,
        "hand": "right"
      },
      {
        "midi": 64,
        "time": 69,
        "duration": 0.3,
        "velocity": 0.52,
        "hand": "right"
      },
      {
        "midi": 64,
        "time": 69,
        "duration": 0.15,
        "velocity": 0.54,
        "hand": "right"
      },
      {
        "midi": 70,
        "time": 69,
        "duration": 0.075,
        "velocity": 0.63,
        "hand": "right"
      },
      {
        "midi": 36,
        "time": 69.3,
        "duration": 0.3,
        "velocity": 0.96,
        "hand": "left"
      },
      {
        "midi": 38,
        "time": 69.3,
        "duration": 0.075,
        "velocity": 0.55,
        "hand": "left"
      },
      {
        "midi": 42,
        "time": 69.3,
        "duration": 0.075,
        "velocity": 0.56,
        "hand": "left"
      },
      {
        "midi": 51,
        "time": 69.3,
        "duration": 0.075,
        "velocity": 0.57,
        "hand": "left"
      },
      {
        "midi": 54,
        "time": 69.3,
        "duration": 0.075,
        "velocity": 0.5,
        "hand": "left"
      },
      {
        "midi": 55,
        "time": 69.3,
        "duration": 0.15,
        "velocity": 0.65,
        "hand": "left"
      },
      {
        "midi": 60,
        "time": 69.3,
        "duration": 0.075,
        "velocity": 0.7,
        "hand": "right"
      },
      {
        "midi": 64,
        "time": 69.3,
        "duration": 0.15,
        "velocity": 0.7,
        "hand": "right"
      },
      {
        "midi": 70,
        "time": 69.3,
        "duration": 0.075,
        "velocity": 0.56,
        "hand": "right"
      },
      {
        "midi": 35,
        "time": 69.6,
        "duration": 0.075,
        "velocity": 0.72,
        "hand": "left"
      },
      {
        "midi": 38,
        "time": 69.6,
        "duration": 0.6,
        "velocity": 0.96,
        "hand": "left"
      },
      {
        "midi": 40,
        "time": 69.6,
        "duration": 0.3,
        "velocity": 0.96,
        "hand": "left"
      },
      {
        "midi": 42,
        "time": 69.6,
        "duration": 0.075,
        "velocity": 0.54,
        "hand": "left"
      },
      {
        "midi": 50,
        "time": 69.6,
        "duration": 0.15,
        "velocity": 0.63,
        "hand": "left"
      },
      {
        "midi": 51,
        "time": 69.6,
        "duration": 0.075,
        "velocity": 0.46,
        "hand": "left"
      },
      {
        "midi": 57,
        "time": 69.6,
        "duration": 0.3,
        "velocity": 0.72,
        "hand": "left"
      },
      {
        "midi": 57,
        "time": 69.6,
        "duration": 0.15,
        "velocity": 0.57,
        "hand": "left"
      },
      {
        "midi": 57,
        "time": 69.6,
        "duration": 0.3,
        "velocity": 0.47,
        "hand": "left"
      },
      {
        "midi": 60,
        "time": 69.6,
        "duration": 0.3,
        "velocity": 0.74,
        "hand": "right"
      },
      {
        "midi": 60,
        "time": 69.6,
        "duration": 0.15,
        "velocity": 0.7,
        "hand": "right"
      },
      {
        "midi": 60,
        "time": 69.6,
        "duration": 0.3,
        "velocity": 0.52,
        "hand": "right"
      },
      {
        "midi": 62,
        "time": 69.6,
        "duration": 0.3,
        "velocity": 0.72,
        "hand": "right"
      },
      {
        "midi": 62,
        "time": 69.6,
        "duration": 0.15,
        "velocity": 0.63,
        "hand": "right"
      },
      {
        "midi": 62,
        "time": 69.6,
        "duration": 0.45,
        "velocity": 0.49,
        "hand": "right"
      },
      {
        "midi": 62,
        "time": 69.6,
        "duration": 0.6,
        "velocity": 0.55,
        "hand": "right"
      },
      {
        "midi": 65,
        "time": 69.6,
        "duration": 0.3,
        "velocity": 0.64,
        "hand": "right"
      },
      {
        "midi": 65,
        "time": 69.6,
        "duration": 0.15,
        "velocity": 0.59,
        "hand": "right"
      },
      {
        "midi": 65,
        "time": 69.6,
        "duration": 0.45,
        "velocity": 0.46,
        "hand": "right"
      },
      {
        "midi": 69,
        "time": 69.6,
        "duration": 0.45,
        "velocity": 0.56,
        "hand": "right"
      },
      {
        "midi": 70,
        "time": 69.6,
        "duration": 0.075,
        "velocity": 0.73,
        "hand": "right"
      },
      {
        "midi": 72,
        "time": 69.6,
        "duration": 0.45,
        "velocity": 0.54,
        "hand": "right"
      },
      {
        "midi": 48,
        "time": 69.75,
        "duration": 0.15,
        "velocity": 0.54,
        "hand": "left"
      },
      {
        "midi": 38,
        "time": 69.9,
        "duration": 0.075,
        "velocity": 0.56,
        "hand": "left"
      },
      {
        "midi": 42,
        "time": 69.9,
        "duration": 0.075,
        "velocity": 0.46,
        "hand": "left"
      },
      {
        "midi": 51,
        "time": 69.9,
        "duration": 0.075,
        "velocity": 0.52,
        "hand": "left"
      },
      {
        "midi": 54,
        "time": 69.9,
        "duration": 0.075,
        "velocity": 0.56,
        "hand": "left"
      },
      {
        "midi": 57,
        "time": 69.9,
        "duration": 0.15,
        "velocity": 0.54,
        "hand": "left"
      },
      {
        "midi": 60,
        "time": 69.9,
        "duration": 0.15,
        "velocity": 0.57,
        "hand": "right"
      },
      {
        "midi": 62,
        "time": 69.9,
        "duration": 0.15,
        "velocity": 0.57,
        "hand": "right"
      },
      {
        "midi": 65,
        "time": 69.9,
        "duration": 0.3,
        "velocity": 0.54,
        "hand": "right"
      },
      {
        "midi": 65,
        "time": 69.9,
        "duration": 0.15,
        "velocity": 0.57,
        "hand": "right"
      },
      {
        "midi": 47,
        "time": 70.05,
        "duration": 0.15,
        "velocity": 0.63,
        "hand": "left"
      },
      {
        "midi": 31,
        "time": 70.2,
        "duration": 0.45,
        "velocity": 0.96,
        "hand": "left"
      },
      {
        "midi": 35,
        "time": 70.2,
        "duration": 0.075,
        "velocity": 0.7,
        "hand": "left"
      },
      {
        "midi": 42,
        "time": 70.2,
        "duration": 0.075,
        "velocity": 0.5,
        "hand": "left"
      },
      {
        "midi": 45,
        "time": 70.2,
        "duration": 0.15,
        "velocity": 0.63,
        "hand": "left"
      },
      {
        "midi": 51,
        "time": 70.2,
        "duration": 0.075,
        "velocity": 0.54,
        "hand": "left"
      },
      {
        "midi": 55,
        "time": 70.2,
        "duration": 0.3,
        "velocity": 0.69,
        "hand": "left"
      },
      {
        "midi": 55,
        "time": 70.2,
        "duration": 0.15,
        "velocity": 0.68,
        "hand": "left"
      },
      {
        "midi": 55,
        "time": 70.2,
        "duration": 0.3,
        "velocity": 0.49,
        "hand": "left"
      },
      {
        "midi": 59,
        "time": 70.2,
        "duration": 0.3,
        "velocity": 0.73,
        "hand": "left"
      },
      {
        "midi": 59,
        "time": 70.2,
        "duration": 0.15,
        "velocity": 0.72,
        "hand": "left"
      },
      {
        "midi": 59,
        "time": 70.2,
        "duration": 0.3,
        "velocity": 0.56,
        "hand": "left"
      },
      {
        "midi": 62,
        "time": 70.2,
        "duration": 0.3,
        "velocity": 0.65,
        "hand": "right"
      },
      {
        "midi": 62,
        "time": 70.2,
        "duration": 0.15,
        "velocity": 0.61,
        "hand": "right"
      },
      {
        "midi": 62,
        "time": 70.2,
        "duration": 0.3,
        "velocity": 0.42,
        "hand": "right"
      },
      {
        "midi": 65,
        "time": 70.2,
        "duration": 0.3,
        "velocity": 0.51,
        "hand": "right"
      },
      {
        "midi": 65,
        "time": 70.2,
        "duration": 0.15,
        "velocity": 0.57,
        "hand": "right"
      },
      {
        "midi": 65,
        "time": 70.2,
        "duration": 0.3,
        "velocity": 0.49,
        "hand": "right"
      },
      {
        "midi": 67,
        "time": 70.2,
        "duration": 0.3,
        "velocity": 0.55,
        "hand": "right"
      },
      {
        "midi": 71,
        "time": 70.2,
        "duration": 0.45,
        "velocity": 0.51,
        "hand": "right"
      },
      {
        "midi": 38,
        "time": 70.5,
        "duration": 0.075,
        "velocity": 0.53,
        "hand": "left"
      },
      {
        "midi": 42,
        "time": 70.5,
        "duration": 0.075,
        "velocity": 0.54,
        "hand": "left"
      },
      {
        "midi": 43,
        "time": 70.5,
        "duration": 0.15,
        "velocity": 0.69,
        "hand": "left"
      },
      {
        "midi": 51,
        "time": 70.5,
        "duration": 0.075,
        "velocity": 0.54,
        "hand": "left"
      },
      {
        "midi": 54,
        "time": 70.5,
        "duration": 0.075,
        "velocity": 0.57,
        "hand": "left"
      },
      {
        "midi": 55,
        "time": 70.5,
        "duration": 0.15,
        "velocity": 0.55,
        "hand": "left"
      },
      {
        "midi": 59,
        "time": 70.5,
        "duration": 0.15,
        "velocity": 0.57,
        "hand": "left"
      },
      {
        "midi": 62,
        "time": 70.5,
        "duration": 0.15,
        "velocity": 0.57,
        "hand": "right"
      },
      {
        "midi": 65,
        "time": 70.5,
        "duration": 0.15,
        "velocity": 0.54,
        "hand": "right"
      },
      {
        "midi": 35,
        "time": 70.8,
        "duration": 0.075,
        "velocity": 0.69,
        "hand": "left"
      },
      {
        "midi": 36,
        "time": 70.8,
        "duration": 0.6,
        "velocity": 0.96,
        "hand": "left"
      },
      {
        "midi": 42,
        "time": 70.8,
        "duration": 0.075,
        "velocity": 0.54,
        "hand": "left"
      },
      {
        "midi": 49,
        "time": 70.8,
        "duration": 0.075,
        "velocity": 0.79,
        "hand": "left"
      },
      {
        "midi": 51,
        "time": 70.8,
        "duration": 0.075,
        "velocity": 0.51,
        "hand": "left"
      },
      {
        "midi": 55,
        "time": 70.8,
        "duration": 0.75,
        "velocity": 0.64,
        "hand": "left"
      },
      {
        "midi": 55,
        "time": 70.8,
        "duration": 2.25,
        "velocity": 0.4,
        "hand": "left"
      },
      {
        "midi": 57,
        "time": 70.8,
        "duration": 0.15,
        "velocity": 0.63,
        "hand": "left"
      },
      {
        "midi": 60,
        "time": 70.8,
        "duration": 0.75,
        "velocity": 0.74,
        "hand": "right"
      },
      {
        "midi": 60,
        "time": 70.8,
        "duration": 0.6,
        "velocity": 0.69,
        "hand": "right"
      },
      {
        "midi": 60,
        "time": 70.8,
        "duration": 2.25,
        "velocity": 0.49,
        "hand": "right"
      },
      {
        "midi": 60,
        "time": 70.8,
        "duration": 1.65,
        "velocity": 0.63,
        "hand": "right"
      },
      {
        "midi": 60,
        "time": 70.8,
        "duration": 0.6,
        "velocity": 0.69,
        "hand": "right"
      },
      {
        "midi": 62,
        "time": 70.8,
        "duration": 0.15,
        "velocity": 0.61,
        "hand": "right"
      },
      {
        "midi": 64,
        "time": 70.8,
        "duration": 0.75,
        "velocity": 0.69,
        "hand": "right"
      },
      {
        "midi": 64,
        "time": 70.8,
        "duration": 2.25,
        "velocity": 0.48,
        "hand": "right"
      },
      {
        "midi": 64,
        "time": 70.8,
        "duration": 1.65,
        "velocity": 0.72,
        "hand": "right"
      },
      {
        "midi": 67,
        "time": 70.8,
        "duration": 0.15,
        "velocity": 0.57,
        "hand": "right"
      },
      {
        "midi": 67,
        "time": 70.8,
        "duration": 1.65,
        "velocity": 0.63,
        "hand": "right"
      },
      {
        "midi": 38,
        "time": 71.1,
        "duration": 0.075,
        "velocity": 0.54,
        "hand": "left"
      },
      {
        "midi": 42,
        "time": 71.1,
        "duration": 0.075,
        "velocity": 0.57,
        "hand": "left"
      },
      {
        "midi": 51,
        "time": 71.1,
        "duration": 0.075,
        "velocity": 0.55,
        "hand": "left"
      },
      {
        "midi": 54,
        "time": 71.1,
        "duration": 0.075,
        "velocity": 0.54,
        "hand": "left"
      },
      {
        "midi": 70,
        "time": 71.1,
        "duration": 0.075,
        "velocity": 0.72,
        "hand": "right"
      },
      {
        "midi": 57,
        "time": 71.25,
        "duration": 0.15,
        "velocity": 0.57,
        "hand": "left"
      },
      {
        "midi": 62,
        "time": 71.25,
        "duration": 0.075,
        "velocity": 0.61,
        "hand": "right"
      },
      {
        "midi": 67,
        "time": 71.25,
        "duration": 0.15,
        "velocity": 0.54,
        "hand": "right"
      },
      {
        "midi": 31,
        "time": 71.4,
        "duration": 0.6,
        "velocity": 0.96,
        "hand": "left"
      },
      {
        "midi": 35,
        "time": 71.4,
        "duration": 0.075,
        "velocity": 0.56,
        "hand": "left"
      },
      {
        "midi": 42,
        "time": 71.4,
        "duration": 0.075,
        "velocity": 0.57,
        "hand": "left"
      },
      {
        "midi": 51,
        "time": 71.4,
        "duration": 0.075,
        "velocity": 0.5,
        "hand": "left"
      },
      {
        "midi": 57,
        "time": 71.4,
        "duration": 0.15,
        "velocity": 0.52,
        "hand": "left"
      },
      {
        "midi": 62,
        "time": 71.4,
        "duration": 0.075,
        "velocity": 0.64,
        "hand": "right"
      },
      {
        "midi": 64,
        "time": 71.4,
        "duration": 0.3,
        "velocity": 0.59,
        "hand": "right"
      },
      {
        "midi": 67,
        "time": 71.4,
        "duration": 0.15,
        "velocity": 0.4,
        "hand": "right"
      },
      {
        "midi": 70,
        "time": 71.4,
        "duration": 0.075,
        "velocity": 0.69,
        "hand": "right"
      },
      {
        "midi": 38,
        "time": 71.7,
        "duration": 0.075,
        "velocity": 0.55,
        "hand": "left"
      },
      {
        "midi": 42,
        "time": 71.7,
        "duration": 0.075,
        "velocity": 0.54,
        "hand": "left"
      },
      {
        "midi": 51,
        "time": 71.7,
        "duration": 0.075,
        "velocity": 0.54,
        "hand": "left"
      },
      {
        "midi": 54,
        "time": 71.7,
        "duration": 0.075,
        "velocity": 0.64,
        "hand": "left"
      },
      {
        "midi": 55,
        "time": 71.7,
        "duration": 0.75,
        "velocity": 0.63,
        "hand": "left"
      },
      {
        "midi": 57,
        "time": 71.7,
        "duration": 0.15,
        "velocity": 0.68,
        "hand": "left"
      },
      {
        "midi": 60,
        "time": 71.7,
        "duration": 0.75,
        "velocity": 0.7,
        "hand": "right"
      },
      {
        "midi": 62,
        "time": 71.7,
        "duration": 0.075,
        "velocity": 0.73,
        "hand": "right"
      },
      {
        "midi": 64,
        "time": 71.7,
        "duration": 0.075,
        "velocity": 0.54,
        "hand": "right"
      },
      {
        "midi": 67,
        "time": 71.7,
        "duration": 0.75,
        "velocity": 0.73,
        "hand": "right"
      },
      {
        "midi": 67,
        "time": 71.7,
        "duration": 0.15,
        "velocity": 0.59,
        "hand": "right"
      },
      {
        "midi": 67,
        "time": 71.7,
        "duration": 0.6,
        "velocity": 0.51,
        "hand": "right"
      },
      {
        "midi": 70,
        "time": 71.7,
        "duration": 0.075,
        "velocity": 0.7,
        "hand": "right"
      },
      {
        "midi": 35,
        "time": 72,
        "duration": 0.075,
        "velocity": 0.56,
        "hand": "left"
      },
      {
        "midi": 36,
        "time": 72,
        "duration": 0.45,
        "velocity": 0.96,
        "hand": "left"
      },
      {
        "midi": 42,
        "time": 72,
        "duration": 0.075,
        "velocity": 0.65,
        "hand": "left"
      },
      {
        "midi": 51,
        "time": 72,
        "duration": 0.075,
        "velocity": 0.57,
        "hand": "left"
      },
      {
        "midi": 70,
        "time": 72,
        "duration": 0.075,
        "velocity": 0.72,
        "hand": "right"
      },
      {
        "midi": 38,
        "time": 72.3,
        "duration": 0.075,
        "velocity": 0.54,
        "hand": "left"
      },
      {
        "midi": 42,
        "time": 72.3,
        "duration": 0.075,
        "velocity": 0.58,
        "hand": "left"
      },
      {
        "midi": 51,
        "time": 72.3,
        "duration": 0.075,
        "velocity": 0.54,
        "hand": "left"
      },
      {
        "midi": 54,
        "time": 72.3,
        "duration": 0.075,
        "velocity": 0.56,
        "hand": "left"
      },
      {
        "midi": 57,
        "time": 72.3,
        "duration": 0.15,
        "velocity": 0.57,
        "hand": "left"
      },
      {
        "midi": 62,
        "time": 72.3,
        "duration": 0.15,
        "velocity": 0.7,
        "hand": "right"
      },
      {
        "midi": 64,
        "time": 72.3,
        "duration": 0.3,
        "velocity": 0.57,
        "hand": "right"
      },
      {
        "midi": 67,
        "time": 72.3,
        "duration": 0.15,
        "velocity": 0.56,
        "hand": "right"
      },
      {
        "midi": 31,
        "time": 72.6,
        "duration": 0.45,
        "velocity": 0.96,
        "hand": "left"
      },
      {
        "midi": 35,
        "time": 72.6,
        "duration": 0.075,
        "velocity": 0.61,
        "hand": "left"
      },
      {
        "midi": 42,
        "time": 72.6,
        "duration": 0.075,
        "velocity": 0.55,
        "hand": "left"
      },
      {
        "midi": 51,
        "time": 72.6,
        "duration": 0.075,
        "velocity": 0.61,
        "hand": "left"
      },
      {
        "midi": 55,
        "time": 72.6,
        "duration": 0.15,
        "velocity": 0.56,
        "hand": "left"
      },
      {
        "midi": 57,
        "time": 72.6,
        "duration": 0.15,
        "velocity": 0.61,
        "hand": "left"
      },
      {
        "midi": 60,
        "time": 72.6,
        "duration": 0.15,
        "velocity": 0.64,
        "hand": "right"
      },
      {
        "midi": 60,
        "time": 72.6,
        "duration": 0.45,
        "velocity": 0.51,
        "hand": "right"
      },
      {
        "midi": 62,
        "time": 72.6,
        "duration": 0.15,
        "velocity": 0.72,
        "hand": "right"
      },
      {
        "midi": 62,
        "time": 72.6,
        "duration": 0.3,
        "velocity": 0.49,
        "hand": "right"
      },
      {
        "midi": 64,
        "time": 72.6,
        "duration": 0.15,
        "velocity": 0.63,
        "hand": "right"
      },
      {
        "midi": 64,
        "time": 72.6,
        "duration": 0.45,
        "velocity": 0.55,
        "hand": "right"
      },
      {
        "midi": 67,
        "time": 72.6,
        "duration": 0.15,
        "velocity": 0.54,
        "hand": "right"
      },
      {
        "midi": 69,
        "time": 72.6,
        "duration": 0.45,
        "velocity": 0.57,
        "hand": "right"
      },
      {
        "midi": 38,
        "time": 72.9,
        "duration": 0.075,
        "velocity": 0.56,
        "hand": "left"
      },
      {
        "midi": 42,
        "time": 72.9,
        "duration": 0.075,
        "velocity": 0.55,
        "hand": "left"
      },
      {
        "midi": 51,
        "time": 72.9,
        "duration": 0.075,
        "velocity": 0.56,
        "hand": "left"
      },
      {
        "midi": 54,
        "time": 72.9,
        "duration": 0.075,
        "velocity": 0.58,
        "hand": "left"
      },
      {
        "midi": 57,
        "time": 72.9,
        "duration": 0.15,
        "velocity": 0.54,
        "hand": "left"
      },
      {
        "midi": 60,
        "time": 72.9,
        "duration": 0.15,
        "velocity": 0.54,
        "hand": "right"
      },
      {
        "midi": 62,
        "time": 72.9,
        "duration": 0.15,
        "velocity": 0.61,
        "hand": "right"
      },
      {
        "midi": 67,
        "time": 72.9,
        "duration": 0.15,
        "velocity": 0.51,
        "hand": "right"
      },
      {
        "midi": 35,
        "time": 73.2,
        "duration": 0.6,
        "velocity": 0.96,
        "hand": "left"
      },
      {
        "midi": 35,
        "time": 73.2,
        "duration": 0.075,
        "velocity": 0.59,
        "hand": "left"
      },
      {
        "midi": 42,
        "time": 73.2,
        "duration": 0.075,
        "velocity": 0.54,
        "hand": "left"
      },
      {
        "midi": 55,
        "time": 73.2,
        "duration": 1.95,
        "velocity": 0.4,
        "hand": "left"
      },
      {
        "midi": 59,
        "time": 73.2,
        "duration": 0.15,
        "velocity": 0.58,
        "hand": "left"
      },
      {
        "midi": 59,
        "time": 73.2,
        "duration": 0.45,
        "velocity": 0.57,
        "hand": "left"
      },
      {
        "midi": 59,
        "time": 73.2,
        "duration": 1.95,
        "velocity": 0.54,
        "hand": "left"
      },
      {
        "midi": 59,
        "time": 73.2,
        "duration": 0.45,
        "velocity": 0.57,
        "hand": "left"
      },
      {
        "midi": 60,
        "time": 73.2,
        "duration": 1.65,
        "velocity": 0.55,
        "hand": "right"
      },
      {
        "midi": 62,
        "time": 73.2,
        "duration": 0.75,
        "velocity": 0.69,
        "hand": "right"
      },
      {
        "midi": 62,
        "time": 73.2,
        "duration": 0.15,
        "velocity": 0.61,
        "hand": "right"
      },
      {
        "midi": 64,
        "time": 73.2,
        "duration": 0.75,
        "velocity": 0.7,
        "hand": "right"
      },
      {
        "midi": 64,
        "time": 73.2,
        "duration": 0.15,
        "velocity": 0.61,
        "hand": "right"
      },
      {
        "midi": 64,
        "time": 73.2,
        "duration": 1.95,
        "velocity": 0.29,
        "hand": "right"
      },
      {
        "midi": 64,
        "time": 73.2,
        "duration": 1.8,
        "velocity": 0.54,
        "hand": "right"
      },
      {
        "midi": 67,
        "time": 73.2,
        "duration": 0.75,
        "velocity": 0.61,
        "hand": "right"
      },
      {
        "midi": 67,
        "time": 73.2,
        "duration": 0.15,
        "velocity": 0.56,
        "hand": "right"
      },
      {
        "midi": 67,
        "time": 73.2,
        "duration": 1.8,
        "velocity": 0.56,
        "hand": "right"
      },
      {
        "midi": 71,
        "time": 73.2,
        "duration": 0.75,
        "velocity": 0.65,
        "hand": "right"
      },
      {
        "midi": 71,
        "time": 73.2,
        "duration": 1.8,
        "velocity": 0.54,
        "hand": "right"
      },
      {
        "midi": 38,
        "time": 73.5,
        "duration": 0.075,
        "velocity": 0.57,
        "hand": "left"
      },
      {
        "midi": 42,
        "time": 73.5,
        "duration": 0.075,
        "velocity": 0.65,
        "hand": "left"
      },
      {
        "midi": 51,
        "time": 73.5,
        "duration": 0.075,
        "velocity": 0.56,
        "hand": "left"
      },
      {
        "midi": 54,
        "time": 73.5,
        "duration": 0.075,
        "velocity": 0.68,
        "hand": "left"
      },
      {
        "midi": 70,
        "time": 73.5,
        "duration": 0.075,
        "velocity": 0.72,
        "hand": "right"
      },
      {
        "midi": 59,
        "time": 73.65,
        "duration": 0.15,
        "velocity": 0.61,
        "hand": "left"
      },
      {
        "midi": 62,
        "time": 73.65,
        "duration": 0.075,
        "velocity": 0.55,
        "hand": "right"
      },
      {
        "midi": 64,
        "time": 73.65,
        "duration": 0.075,
        "velocity": 0.57,
        "hand": "right"
      },
      {
        "midi": 67,
        "time": 73.65,
        "duration": 0.15,
        "velocity": 0.52,
        "hand": "right"
      },
      {
        "midi": 35,
        "time": 73.8,
        "duration": 0.075,
        "velocity": 0.55,
        "hand": "left"
      },
      {
        "midi": 40,
        "time": 73.8,
        "duration": 0.6,
        "velocity": 0.96,
        "hand": "left"
      },
      {
        "midi": 42,
        "time": 73.8,
        "duration": 0.075,
        "velocity": 0.59,
        "hand": "left"
      },
      {
        "midi": 51,
        "time": 73.8,
        "duration": 0.075,
        "velocity": 0.57,
        "hand": "left"
      },
      {
        "midi": 59,
        "time": 73.8,
        "duration": 0.15,
        "velocity": 0.54,
        "hand": "left"
      },
      {
        "midi": 62,
        "time": 73.8,
        "duration": 0.075,
        "velocity": 0.54,
        "hand": "right"
      },
      {
        "midi": 64,
        "time": 73.8,
        "duration": 0.075,
        "velocity": 0.57,
        "hand": "right"
      },
      {
        "midi": 67,
        "time": 73.8,
        "duration": 0.15,
        "velocity": 0.38,
        "hand": "right"
      },
      {
        "midi": 69,
        "time": 73.8,
        "duration": 0.3,
        "velocity": 0.59,
        "hand": "right"
      },
      {
        "midi": 70,
        "time": 73.8,
        "duration": 0.075,
        "velocity": 0.69,
        "hand": "right"
      },
      {
        "midi": 38,
        "time": 74.1,
        "duration": 0.075,
        "velocity": 0.53,
        "hand": "left"
      },
      {
        "midi": 42,
        "time": 74.1,
        "duration": 0.075,
        "velocity": 0.58,
        "hand": "left"
      },
      {
        "midi": 51,
        "time": 74.1,
        "duration": 0.075,
        "velocity": 0.49,
        "hand": "left"
      },
      {
        "midi": 54,
        "time": 74.1,
        "duration": 0.075,
        "velocity": 0.56,
        "hand": "left"
      },
      {
        "midi": 59,
        "time": 74.1,
        "duration": 0.15,
        "velocity": 0.72,
        "hand": "left"
      },
      {
        "midi": 62,
        "time": 74.1,
        "duration": 0.75,
        "velocity": 0.72,
        "hand": "right"
      },
      {
        "midi": 62,
        "time": 74.1,
        "duration": 0.075,
        "velocity": 0.72,
        "hand": "right"
      },
      {
        "midi": 64,
        "time": 74.1,
        "duration": 0.75,
        "velocity": 0.72,
        "hand": "right"
      },
      {
        "midi": 64,
        "time": 74.1,
        "duration": 0.075,
        "velocity": 0.72,
        "hand": "right"
      },
      {
        "midi": 67,
        "time": 74.1,
        "duration": 0.75,
        "velocity": 0.72,
        "hand": "right"
      },
      {
        "midi": 67,
        "time": 74.1,
        "duration": 0.15,
        "velocity": 0.61,
        "hand": "right"
      },
      {
        "midi": 67,
        "time": 74.1,
        "duration": 1.5,
        "velocity": 0.54,
        "hand": "right"
      },
      {
        "midi": 70,
        "time": 74.1,
        "duration": 0.075,
        "velocity": 0.68,
        "hand": "right"
      },
      {
        "midi": 71,
        "time": 74.1,
        "duration": 0.75,
        "velocity": 0.68,
        "hand": "right"
      },
      {
        "midi": 35,
        "time": 74.4,
        "duration": 0.6,
        "velocity": 0.96,
        "hand": "left"
      },
      {
        "midi": 35,
        "time": 74.4,
        "duration": 0.075,
        "velocity": 0.69,
        "hand": "left"
      },
      {
        "midi": 51,
        "time": 74.4,
        "duration": 0.075,
        "velocity": 0.54,
        "hand": "left"
      },
      {
        "midi": 70,
        "time": 74.4,
        "duration": 0.075,
        "velocity": 0.61,
        "hand": "right"
      },
      {
        "midi": 38,
        "time": 74.7,
        "duration": 0.075,
        "velocity": 0.58,
        "hand": "left"
      },
      {
        "midi": 42,
        "time": 74.7,
        "duration": 0.075,
        "velocity": 0.63,
        "hand": "left"
      },
      {
        "midi": 51,
        "time": 74.7,
        "duration": 0.075,
        "velocity": 0.55,
        "hand": "left"
      },
      {
        "midi": 54,
        "time": 74.7,
        "duration": 0.075,
        "velocity": 0.52,
        "hand": "left"
      },
      {
        "midi": 59,
        "time": 74.7,
        "duration": 0.15,
        "velocity": 0.7,
        "hand": "left"
      },
      {
        "midi": 62,
        "time": 74.7,
        "duration": 0.075,
        "velocity": 0.72,
        "hand": "right"
      },
      {
        "midi": 64,
        "time": 74.7,
        "duration": 0.075,
        "velocity": 0.72,
        "hand": "right"
      },
      {
        "midi": 67,
        "time": 74.7,
        "duration": 0.075,
        "velocity": 0.57,
        "hand": "right"
      },
      {
        "midi": 70,
        "time": 74.7,
        "duration": 0.075,
        "velocity": 0.72,
        "hand": "right"
      },
      {
        "midi": 35,
        "time": 75,
        "duration": 0.075,
        "velocity": 0.7,
        "hand": "left"
      },
      {
        "midi": 40,
        "time": 75,
        "duration": 0.6,
        "velocity": 0.96,
        "hand": "left"
      },
      {
        "midi": 42,
        "time": 75,
        "duration": 0.075,
        "velocity": 0.54,
        "hand": "left"
      },
      {
        "midi": 51,
        "time": 75,
        "duration": 0.075,
        "velocity": 0.51,
        "hand": "left"
      },
      {
        "midi": 59,
        "time": 75,
        "duration": 0.15,
        "velocity": 0.65,
        "hand": "left"
      },
      {
        "midi": 62,
        "time": 75,
        "duration": 0.15,
        "velocity": 0.65,
        "hand": "right"
      },
      {
        "midi": 64,
        "time": 75,
        "duration": 0.15,
        "velocity": 0.63,
        "hand": "right"
      },
      {
        "midi": 67,
        "time": 75,
        "duration": 0.15,
        "velocity": 0.57,
        "hand": "right"
      },
      {
        "midi": 70,
        "time": 75,
        "duration": 0.075,
        "velocity": 0.72,
        "hand": "right"
      },
      {
        "midi": 71,
        "time": 75,
        "duration": 0.15,
        "velocity": 0.57,
        "hand": "right"
      },
      {
        "midi": 38,
        "time": 75.3,
        "duration": 0.075,
        "velocity": 0.52,
        "hand": "left"
      },
      {
        "midi": 42,
        "time": 75.3,
        "duration": 0.075,
        "velocity": 0.54,
        "hand": "left"
      },
      {
        "midi": 51,
        "time": 75.3,
        "duration": 0.075,
        "velocity": 0.54,
        "hand": "left"
      },
      {
        "midi": 54,
        "time": 75.3,
        "duration": 0.075,
        "velocity": 0.57,
        "hand": "left"
      },
      {
        "midi": 70,
        "time": 75.3,
        "duration": 0.075,
        "velocity": 0.58,
        "hand": "right"
      },
      {
        "midi": 35,
        "time": 75.6,
        "duration": 0.075,
        "velocity": 0.69,
        "hand": "left"
      },
      {
        "midi": 38,
        "time": 75.6,
        "duration": 0.6,
        "velocity": 0.96,
        "hand": "left"
      },
      {
        "midi": 51,
        "time": 75.6,
        "duration": 0.075,
        "velocity": 0.54,
        "hand": "left"
      },
      {
        "midi": 57,
        "time": 75.6,
        "duration": 0.45,
        "velocity": 0.72,
        "hand": "left"
      },
      {
        "midi": 57,
        "time": 75.6,
        "duration": 0.15,
        "velocity": 0.72,
        "hand": "left"
      },
      {
        "midi": 57,
        "time": 75.6,
        "duration": 0.45,
        "velocity": 0.65,
        "hand": "left"
      },
      {
        "midi": 57,
        "time": 75.6,
        "duration": 0.75,
        "velocity": 0.47,
        "hand": "left"
      },
      {
        "midi": 57,
        "time": 75.6,
        "duration": 0.45,
        "velocity": 0.65,
        "hand": "left"
      },
      {
        "midi": 60,
        "time": 75.6,
        "duration": 0.45,
        "velocity": 0.72,
        "hand": "right"
      },
      {
        "midi": 60,
        "time": 75.6,
        "duration": 0.075,
        "velocity": 0.73,
        "hand": "right"
      },
      {
        "midi": 60,
        "time": 75.6,
        "duration": 0.9,
        "velocity": 0.52,
        "hand": "right"
      },
      {
        "midi": 62,
        "time": 75.6,
        "duration": 0.45,
        "velocity": 0.72,
        "hand": "right"
      },
      {
        "midi": 62,
        "time": 75.6,
        "duration": 0.15,
        "velocity": 0.72,
        "hand": "right"
      },
      {
        "midi": 62,
        "time": 75.6,
        "duration": 1.05,
        "velocity": 0.49,
        "hand": "right"
      },
      {
        "midi": 65,
        "time": 75.6,
        "duration": 0.45,
        "velocity": 0.57,
        "hand": "right"
      },
      {
        "midi": 65,
        "time": 75.6,
        "duration": 0.15,
        "velocity": 0.58,
        "hand": "right"
      },
      {
        "midi": 65,
        "time": 75.6,
        "duration": 1.05,
        "velocity": 0.51,
        "hand": "right"
      },
      {
        "midi": 69,
        "time": 75.6,
        "duration": 1.05,
        "velocity": 0.63,
        "hand": "right"
      },
      {
        "midi": 70,
        "time": 75.6,
        "duration": 0.075,
        "velocity": 0.72,
        "hand": "right"
      },
      {
        "midi": 72,
        "time": 75.6,
        "duration": 1.05,
        "velocity": 0.63,
        "hand": "right"
      },
      {
        "midi": 38,
        "time": 75.9,
        "duration": 0.075,
        "velocity": 0.58,
        "hand": "left"
      },
      {
        "midi": 42,
        "time": 75.9,
        "duration": 0.075,
        "velocity": 0.63,
        "hand": "left"
      },
      {
        "midi": 51,
        "time": 75.9,
        "duration": 0.075,
        "velocity": 0.55,
        "hand": "left"
      },
      {
        "midi": 54,
        "time": 75.9,
        "duration": 0.075,
        "velocity": 0.52,
        "hand": "left"
      },
      {
        "midi": 70,
        "time": 75.9,
        "duration": 0.075,
        "velocity": 0.72,
        "hand": "right"
      },
      {
        "midi": 57,
        "time": 76.05,
        "duration": 0.15,
        "velocity": 0.65,
        "hand": "left"
      },
      {
        "midi": 60,
        "time": 76.05,
        "duration": 0.075,
        "velocity": 0.69,
        "hand": "right"
      },
      {
        "midi": 62,
        "time": 76.05,
        "duration": 0.075,
        "velocity": 0.68,
        "hand": "right"
      },
      {
        "midi": 65,
        "time": 76.05,
        "duration": 0.075,
        "velocity": 0.56,
        "hand": "right"
      },
      {
        "midi": 69,
        "time": 76.05,
        "duration": 0.3,
        "velocity": 0.54,
        "hand": "right"
      },
      {
        "midi": 33,
        "time": 76.2,
        "duration": 0.6,
        "velocity": 0.96,
        "hand": "left"
      },
      {
        "midi": 35,
        "time": 76.2,
        "duration": 0.075,
        "velocity": 0.7,
        "hand": "left"
      },
      {
        "midi": 42,
        "time": 76.2,
        "duration": 0.075,
        "velocity": 0.54,
        "hand": "left"
      },
      {
        "midi": 51,
        "time": 76.2,
        "duration": 0.075,
        "velocity": 0.51,
        "hand": "left"
      },
      {
        "midi": 57,
        "time": 76.2,
        "duration": 0.45,
        "velocity": 0.68,
        "hand": "left"
      },
      {
        "midi": 57,
        "time": 76.2,
        "duration": 0.15,
        "velocity": 0.54,
        "hand": "left"
      },
      {
        "midi": 60,
        "time": 76.2,
        "duration": 0.45,
        "velocity": 0.7,
        "hand": "right"
      },
      {
        "midi": 60,
        "time": 76.2,
        "duration": 0.075,
        "velocity": 0.55,
        "hand": "right"
      },
      {
        "midi": 62,
        "time": 76.2,
        "duration": 0.45,
        "velocity": 0.65,
        "hand": "right"
      },
      {
        "midi": 62,
        "time": 76.2,
        "duration": 0.075,
        "velocity": 0.57,
        "hand": "right"
      },
      {
        "midi": 65,
        "time": 76.2,
        "duration": 0.45,
        "velocity": 0.61,
        "hand": "right"
      },
      {
        "midi": 65,
        "time": 76.2,
        "duration": 0.075,
        "velocity": 0.36,
        "hand": "right"
      },
      {
        "midi": 70,
        "time": 76.2,
        "duration": 0.075,
        "velocity": 0.72,
        "hand": "right"
      },
      {
        "midi": 38,
        "time": 76.5,
        "duration": 0.075,
        "velocity": 0.52,
        "hand": "left"
      },
      {
        "midi": 42,
        "time": 76.5,
        "duration": 0.075,
        "velocity": 0.54,
        "hand": "left"
      },
      {
        "midi": 51,
        "time": 76.5,
        "duration": 0.075,
        "velocity": 0.54,
        "hand": "left"
      },
      {
        "midi": 54,
        "time": 76.5,
        "duration": 0.075,
        "velocity": 0.57,
        "hand": "left"
      },
      {
        "midi": 57,
        "time": 76.5,
        "duration": 0.15,
        "velocity": 0.65,
        "hand": "left"
      },
      {
        "midi": 60,
        "time": 76.5,
        "duration": 0.075,
        "velocity": 0.63,
        "hand": "right"
      },
      {
        "midi": 62,
        "time": 76.5,
        "duration": 0.15,
        "velocity": 0.69,
        "hand": "right"
      },
      {
        "midi": 65,
        "time": 76.5,
        "duration": 0.15,
        "velocity": 0.57,
        "hand": "right"
      },
      {
        "midi": 67,
        "time": 76.5,
        "duration": 0.6,
        "velocity": 0.48,
        "hand": "right"
      },
      {
        "midi": 70,
        "time": 76.5,
        "duration": 0.075,
        "velocity": 0.58,
        "hand": "right"
      },
      {
        "midi": 31,
        "time": 76.8,
        "duration": 0.6,
        "velocity": 0.96,
        "hand": "left"
      },
      {
        "midi": 35,
        "time": 76.8,
        "duration": 0.075,
        "velocity": 0.51,
        "hand": "left"
      },
      {
        "midi": 42,
        "time": 76.8,
        "duration": 0.075,
        "velocity": 0.57,
        "hand": "left"
      },
      {
        "midi": 51,
        "time": 76.8,
        "duration": 0.075,
        "velocity": 0.56,
        "hand": "left"
      },
      {
        "midi": 55,
        "time": 76.8,
        "duration": 0.45,
        "velocity": 0.65,
        "hand": "left"
      },
      {
        "midi": 55,
        "time": 76.8,
        "duration": 0.15,
        "velocity": 0.57,
        "hand": "left"
      },
      {
        "midi": 55,
        "time": 76.8,
        "duration": 1.05,
        "velocity": 0.5,
        "hand": "left"
      },
      {
        "midi": 59,
        "time": 76.8,
        "duration": 0.45,
        "velocity": 0.63,
        "hand": "left"
      },
      {
        "midi": 59,
        "time": 76.8,
        "duration": 0.075,
        "velocity": 0.57,
        "hand": "left"
      },
      {
        "midi": 59,
        "time": 76.8,
        "duration": 1.05,
        "velocity": 0.54,
        "hand": "left"
      },
      {
        "midi": 62,
        "time": 76.8,
        "duration": 0.45,
        "velocity": 0.57,
        "hand": "right"
      },
      {
        "midi": 62,
        "time": 76.8,
        "duration": 0.15,
        "velocity": 0.63,
        "hand": "right"
      },
      {
        "midi": 62,
        "time": 76.8,
        "duration": 0.9,
        "velocity": 0.44,
        "hand": "right"
      },
      {
        "midi": 65,
        "time": 76.8,
        "duration": 0.45,
        "velocity": 0.53,
        "hand": "right"
      },
      {
        "midi": 65,
        "time": 76.8,
        "duration": 0.15,
        "velocity": 0.53,
        "hand": "right"
      },
      {
        "midi": 65,
        "time": 76.8,
        "duration": 1.05,
        "velocity": 0.46,
        "hand": "right"
      },
      {
        "midi": 65,
        "time": 76.8,
        "duration": 0.9,
        "velocity": 0.68,
        "hand": "right"
      },
      {
        "midi": 67,
        "time": 76.8,
        "duration": 1.05,
        "velocity": 0.64,
        "hand": "right"
      },
      {
        "midi": 70,
        "time": 76.8,
        "duration": 0.075,
        "velocity": 0.72,
        "hand": "right"
      },
      {
        "midi": 71,
        "time": 76.8,
        "duration": 1.05,
        "velocity": 0.58,
        "hand": "right"
      },
      {
        "midi": 38,
        "time": 77.1,
        "duration": 0.075,
        "velocity": 0.57,
        "hand": "left"
      },
      {
        "midi": 42,
        "time": 77.1,
        "duration": 0.075,
        "velocity": 0.58,
        "hand": "left"
      },
      {
        "midi": 51,
        "time": 77.1,
        "duration": 0.075,
        "velocity": 0.54,
        "hand": "left"
      },
      {
        "midi": 54,
        "time": 77.1,
        "duration": 0.075,
        "velocity": 0.52,
        "hand": "left"
      },
      {
        "midi": 55,
        "time": 77.1,
        "duration": 0.075,
        "velocity": 0.52,
        "hand": "left"
      },
      {
        "midi": 59,
        "time": 77.1,
        "duration": 0.075,
        "velocity": 0.54,
        "hand": "left"
      },
      {
        "midi": 62,
        "time": 77.1,
        "duration": 0.15,
        "velocity": 0.54,
        "hand": "right"
      },
      {
        "midi": 65,
        "time": 77.1,
        "duration": 0.15,
        "velocity": 0.51,
        "hand": "right"
      },
      {
        "midi": 65,
        "time": 77.1,
        "duration": 0.3,
        "velocity": 0.56,
        "hand": "right"
      },
      {
        "midi": 35,
        "time": 77.4,
        "duration": 0.075,
        "velocity": 0.72,
        "hand": "left"
      },
      {
        "midi": 38,
        "time": 77.4,
        "duration": 0.45,
        "velocity": 0.96,
        "hand": "left"
      },
      {
        "midi": 42,
        "time": 77.4,
        "duration": 0.075,
        "velocity": 0.54,
        "hand": "left"
      },
      {
        "midi": 51,
        "time": 77.4,
        "duration": 0.075,
        "velocity": 0.57,
        "hand": "left"
      },
      {
        "midi": 55,
        "time": 77.4,
        "duration": 0.15,
        "velocity": 0.49,
        "hand": "left"
      },
      {
        "midi": 59,
        "time": 77.4,
        "duration": 0.3,
        "velocity": 0.48,
        "hand": "left"
      },
      {
        "midi": 59,
        "time": 77.4,
        "duration": 0.15,
        "velocity": 0.58,
        "hand": "left"
      },
      {
        "midi": 62,
        "time": 77.4,
        "duration": 0.3,
        "velocity": 0.44,
        "hand": "right"
      },
      {
        "midi": 62,
        "time": 77.4,
        "duration": 0.15,
        "velocity": 0.54,
        "hand": "right"
      },
      {
        "midi": 64,
        "time": 77.4,
        "duration": 0.3,
        "velocity": 0.54,
        "hand": "right"
      },
      {
        "midi": 65,
        "time": 77.4,
        "duration": 0.3,
        "velocity": 0.46,
        "hand": "right"
      },
      {
        "midi": 65,
        "time": 77.4,
        "duration": 0.15,
        "velocity": 0.54,
        "hand": "right"
      },
      {
        "midi": 38,
        "time": 77.7,
        "duration": 0.075,
        "velocity": 0.56,
        "hand": "left"
      },
      {
        "midi": 42,
        "time": 77.7,
        "duration": 0.075,
        "velocity": 0.5,
        "hand": "left"
      },
      {
        "midi": 51,
        "time": 77.7,
        "duration": 0.075,
        "velocity": 0.56,
        "hand": "left"
      },
      {
        "midi": 54,
        "time": 77.7,
        "duration": 0.075,
        "velocity": 0.55,
        "hand": "left"
      },
      {
        "midi": 55,
        "time": 77.7,
        "duration": 0.15,
        "velocity": 0.4,
        "hand": "left"
      },
      {
        "midi": 59,
        "time": 77.7,
        "duration": 0.15,
        "velocity": 0.5,
        "hand": "left"
      },
      {
        "midi": 62,
        "time": 77.7,
        "duration": 0.15,
        "velocity": 0.49,
        "hand": "right"
      },
      {
        "midi": 62,
        "time": 77.7,
        "duration": 0.3,
        "velocity": 0.51,
        "hand": "right"
      },
      {
        "midi": 65,
        "time": 77.7,
        "duration": 0.15,
        "velocity": 0.48,
        "hand": "right"
      },
      {
        "midi": 35,
        "time": 78,
        "duration": 0.075,
        "velocity": 0.56,
        "hand": "left"
      },
      {
        "midi": 36,
        "time": 78,
        "duration": 0.6,
        "velocity": 0.8,
        "hand": "left"
      },
      {
        "midi": 42,
        "time": 78,
        "duration": 0.075,
        "velocity": 0.55,
        "hand": "left"
      },
      {
        "midi": 51,
        "time": 78,
        "duration": 0.075,
        "velocity": 0.57,
        "hand": "left"
      },
      {
        "midi": 55,
        "time": 78,
        "duration": 0.75,
        "velocity": 0.59,
        "hand": "left"
      },
      {
        "midi": 55,
        "time": 78,
        "duration": 0.15,
        "velocity": 0.61,
        "hand": "left"
      },
      {
        "midi": 57,
        "time": 78,
        "duration": 0.15,
        "velocity": 0.53,
        "hand": "left"
      },
      {
        "midi": 57,
        "time": 78,
        "duration": 0.075,
        "velocity": 0.81,
        "hand": "left"
      },
      {
        "midi": 60,
        "time": 78,
        "duration": 0.75,
        "velocity": 0.64,
        "hand": "right"
      },
      {
        "midi": 60,
        "time": 78,
        "duration": 0.15,
        "velocity": 0.72,
        "hand": "right"
      },
      {
        "midi": 62,
        "time": 78,
        "duration": 0.15,
        "velocity": 0.55,
        "hand": "right"
      },
      {
        "midi": 64,
        "time": 78,
        "duration": 0.75,
        "velocity": 0.57,
        "hand": "right"
      },
      {
        "midi": 64,
        "time": 78,
        "duration": 0.15,
        "velocity": 0.64,
        "hand": "right"
      },
      {
        "midi": 67,
        "time": 78,
        "duration": 0.15,
        "velocity": 0.54,
        "hand": "right"
      },
      {
        "midi": 70,
        "time": 78,
        "duration": 0.075,
        "velocity": 0.72,
        "hand": "right"
      },
      {
        "midi": 72,
        "time": 78,
        "duration": 0.15,
        "velocity": 0.51,
        "hand": "right"
      },
      {
        "midi": 67,
        "time": 78.6,
        "duration": 0.15,
        "velocity": 0.73,
        "hand": "right"
      },
      {
        "midi": 67,
        "time": 78.9,
        "duration": 0.075,
        "velocity": 0.72,
        "hand": "right"
      },
      {
        "midi": 67,
        "time": 79.05,
        "duration": 0.15,
        "velocity": 0.65,
        "hand": "right"
      },
      {
        "midi": 69,
        "time": 79.2,
        "duration": 0.15,
        "velocity": 0.74,
        "hand": "right"
      },
      {
        "midi": 67,
        "time": 79.5,
        "duration": 0.15,
        "velocity": 0.83,
        "hand": "right"
      },
      {
        "midi": 31,
        "time": 80.1,
        "duration": 0.3,
        "velocity": 0.57,
        "hand": "left"
      },
      {
        "midi": 35,
        "time": 80.1,
        "duration": 0.15,
        "velocity": 0.79,
        "hand": "left"
      },
      {
        "midi": 40,
        "time": 80.1,
        "duration": 0.15,
        "velocity": 0.79,
        "hand": "left"
      },
      {
        "midi": 57,
        "time": 80.1,
        "duration": 0.15,
        "velocity": 0.79,
        "hand": "left"
      },
      {
        "midi": 59,
        "time": 80.1,
        "duration": 0.15,
        "velocity": 0.65,
        "hand": "left"
      },
      {
        "midi": 62,
        "time": 80.1,
        "duration": 0.15,
        "velocity": 0.61,
        "hand": "right"
      },
      {
        "midi": 65,
        "time": 80.1,
        "duration": 0.15,
        "velocity": 0.72,
        "hand": "right"
      },
      {
        "midi": 67,
        "time": 80.1,
        "duration": 0.15,
        "velocity": 0.72,
        "hand": "right"
      },
      {
        "midi": 71,
        "time": 80.1,
        "duration": 0.15,
        "velocity": 0.63,
        "hand": "right"
      },
      {
        "midi": 55,
        "time": 80.25,
        "duration": 0.15,
        "velocity": 0.72,
        "hand": "left"
      },
      {
        "midi": 35,
        "time": 80.4,
        "duration": 0.075,
        "velocity": 0.79,
        "hand": "left"
      },
      {
        "midi": 36,
        "time": 80.4,
        "duration": 0.15,
        "velocity": 0.74,
        "hand": "left"
      },
      {
        "midi": 40,
        "time": 80.4,
        "duration": 0.15,
        "velocity": 0.81,
        "hand": "left"
      },
      {
        "midi": 49,
        "time": 80.4,
        "duration": 0.075,
        "velocity": 0.79,
        "hand": "left"
      },
      {
        "midi": 57,
        "time": 80.4,
        "duration": 0.15,
        "velocity": 0.52,
        "hand": "left"
      },
      {
        "midi": 60,
        "time": 80.4,
        "duration": 0.15,
        "velocity": 0.72,
        "hand": "right"
      },
      {
        "midi": 64,
        "time": 80.4,
        "duration": 0.15,
        "velocity": 0.64,
        "hand": "right"
      },
      {
        "midi": 65,
        "time": 80.4,
        "duration": 0.075,
        "velocity": 0.46,
        "hand": "right"
      },
      {
        "midi": 67,
        "time": 80.4,
        "duration": 0.15,
        "velocity": 0.72,
        "hand": "right"
      },
      {
        "midi": 69,
        "time": 80.4,
        "duration": 0.15,
        "velocity": 0.72,
        "hand": "right"
      },
      {
        "midi": 72,
        "time": 80.4,
        "duration": 0.15,
        "velocity": 0.72,
        "hand": "right"
      }
    ]
  },
  "notes1Hand": [
    {
      "midi": 67,
      "time": 4.8,
      "duration": 0.2,
      "velocity": 0.57,
      "hand": "right"
    },
    {
      "midi": 70,
      "time": 5.1,
      "duration": 0.2,
      "velocity": 0.72,
      "hand": "right"
    },
    {
      "midi": 67,
      "time": 5.25,
      "duration": 0.2,
      "velocity": 0.54,
      "hand": "right"
    },
    {
      "midi": 70,
      "time": 5.4,
      "duration": 0.2,
      "velocity": 0.69,
      "hand": "right"
    },
    {
      "midi": 70,
      "time": 5.7,
      "duration": 0.2,
      "velocity": 0.68,
      "hand": "right"
    },
    {
      "midi": 70,
      "time": 6,
      "duration": 0.2,
      "velocity": 0.61,
      "hand": "right"
    },
    {
      "midi": 67,
      "time": 6.3,
      "duration": 0.2,
      "velocity": 0.55,
      "hand": "right"
    },
    {
      "midi": 69,
      "time": 6.6,
      "duration": 0.45,
      "velocity": 0.63,
      "hand": "right"
    },
    {
      "midi": 67,
      "time": 6.9,
      "duration": 0.2,
      "velocity": 0.55,
      "hand": "right"
    },
    {
      "midi": 71,
      "time": 7.2,
      "duration": 2.1,
      "velocity": 0.57,
      "hand": "right"
    },
    {
      "midi": 70,
      "time": 7.5,
      "duration": 0.2,
      "velocity": 0.72,
      "hand": "right"
    },
    {
      "midi": 67,
      "time": 7.65,
      "duration": 0.2,
      "velocity": 0.53,
      "hand": "right"
    },
    {
      "midi": 70,
      "time": 7.8,
      "duration": 0.2,
      "velocity": 0.72,
      "hand": "right"
    },
    {
      "midi": 70,
      "time": 8.1,
      "duration": 0.2,
      "velocity": 0.58,
      "hand": "right"
    },
    {
      "midi": 70,
      "time": 8.4,
      "duration": 0.2,
      "velocity": 0.72,
      "hand": "right"
    },
    {
      "midi": 67,
      "time": 8.7,
      "duration": 0.2,
      "velocity": 0.54,
      "hand": "right"
    },
    {
      "midi": 67,
      "time": 9,
      "duration": 0.2,
      "velocity": 0.57,
      "hand": "right"
    },
    {
      "midi": 67,
      "time": 9.3,
      "duration": 0.2,
      "velocity": 0.54,
      "hand": "right"
    },
    {
      "midi": 72,
      "time": 9.6,
      "duration": 1.05,
      "velocity": 0.56,
      "hand": "right"
    },
    {
      "midi": 70,
      "time": 9.9,
      "duration": 0.2,
      "velocity": 0.73,
      "hand": "right"
    },
    {
      "midi": 65,
      "time": 10.05,
      "duration": 0.2,
      "velocity": 0.57,
      "hand": "right"
    },
    {
      "midi": 70,
      "time": 10.2,
      "duration": 0.2,
      "velocity": 0.72,
      "hand": "right"
    },
    {
      "midi": 70,
      "time": 10.5,
      "duration": 0.2,
      "velocity": 0.72,
      "hand": "right"
    },
    {
      "midi": 71,
      "time": 10.8,
      "duration": 1.05,
      "velocity": 0.57,
      "hand": "right"
    },
    {
      "midi": 65,
      "time": 11.1,
      "duration": 0.2,
      "velocity": 0.54,
      "hand": "right"
    },
    {
      "midi": 65,
      "time": 11.4,
      "duration": 0.3,
      "velocity": 0.52,
      "hand": "right"
    },
    {
      "midi": 65,
      "time": 11.7,
      "duration": 0.2,
      "velocity": 0.52,
      "hand": "right"
    },
    {
      "midi": 72,
      "time": 12,
      "duration": 1.05,
      "velocity": 0.69,
      "hand": "right"
    },
    {
      "midi": 70,
      "time": 12.3,
      "duration": 0.2,
      "velocity": 0.7,
      "hand": "right"
    },
    {
      "midi": 64,
      "time": 12.45,
      "duration": 0.2,
      "velocity": 0.59,
      "hand": "right"
    },
    {
      "midi": 70,
      "time": 12.6,
      "duration": 0.2,
      "velocity": 0.63,
      "hand": "right"
    },
    {
      "midi": 70,
      "time": 12.9,
      "duration": 0.2,
      "velocity": 0.56,
      "hand": "right"
    },
    {
      "midi": 72,
      "time": 13.2,
      "duration": 0.45,
      "velocity": 0.54,
      "hand": "right"
    },
    {
      "midi": 48,
      "time": 13.35,
      "duration": 0.2,
      "velocity": 0.54,
      "hand": "right"
    },
    {
      "midi": 65,
      "time": 13.5,
      "duration": 0.3,
      "velocity": 0.54,
      "hand": "right"
    },
    {
      "midi": 47,
      "time": 13.65,
      "duration": 0.2,
      "velocity": 0.63,
      "hand": "right"
    },
    {
      "midi": 71,
      "time": 13.8,
      "duration": 0.45,
      "velocity": 0.51,
      "hand": "right"
    },
    {
      "midi": 65,
      "time": 14.1,
      "duration": 0.2,
      "velocity": 0.54,
      "hand": "right"
    },
    {
      "midi": 67,
      "time": 14.4,
      "duration": 0.2,
      "velocity": 0.57,
      "hand": "right"
    },
    {
      "midi": 70,
      "time": 14.7,
      "duration": 0.2,
      "velocity": 0.72,
      "hand": "right"
    },
    {
      "midi": 67,
      "time": 14.85,
      "duration": 0.2,
      "velocity": 0.54,
      "hand": "right"
    },
    {
      "midi": 70,
      "time": 15,
      "duration": 0.2,
      "velocity": 0.69,
      "hand": "right"
    },
    {
      "midi": 70,
      "time": 15.3,
      "duration": 0.2,
      "velocity": 0.7,
      "hand": "right"
    },
    {
      "midi": 70,
      "time": 15.6,
      "duration": 0.2,
      "velocity": 0.72,
      "hand": "right"
    },
    {
      "midi": 67,
      "time": 15.9,
      "duration": 0.2,
      "velocity": 0.56,
      "hand": "right"
    },
    {
      "midi": 69,
      "time": 16.2,
      "duration": 0.45,
      "velocity": 0.57,
      "hand": "right"
    },
    {
      "midi": 67,
      "time": 16.5,
      "duration": 0.2,
      "velocity": 0.51,
      "hand": "right"
    },
    {
      "midi": 71,
      "time": 16.8,
      "duration": 0.75,
      "velocity": 0.65,
      "hand": "right"
    },
    {
      "midi": 70,
      "time": 17.1,
      "duration": 0.2,
      "velocity": 0.72,
      "hand": "right"
    },
    {
      "midi": 67,
      "time": 17.25,
      "duration": 0.2,
      "velocity": 0.52,
      "hand": "right"
    },
    {
      "midi": 70,
      "time": 17.4,
      "duration": 0.2,
      "velocity": 0.69,
      "hand": "right"
    },
    {
      "midi": 71,
      "time": 17.7,
      "duration": 0.75,
      "velocity": 0.68,
      "hand": "right"
    },
    {
      "midi": 70,
      "time": 18,
      "duration": 0.2,
      "velocity": 0.61,
      "hand": "right"
    },
    {
      "midi": 70,
      "time": 18.3,
      "duration": 0.2,
      "velocity": 0.72,
      "hand": "right"
    },
    {
      "midi": 71,
      "time": 18.6,
      "duration": 0.2,
      "velocity": 0.57,
      "hand": "right"
    },
    {
      "midi": 70,
      "time": 18.9,
      "duration": 0.2,
      "velocity": 0.58,
      "hand": "right"
    },
    {
      "midi": 72,
      "time": 19.2,
      "duration": 1.05,
      "velocity": 0.63,
      "hand": "right"
    },
    {
      "midi": 70,
      "time": 19.5,
      "duration": 0.2,
      "velocity": 0.72,
      "hand": "right"
    },
    {
      "midi": 69,
      "time": 19.65,
      "duration": 0.3,
      "velocity": 0.54,
      "hand": "right"
    },
    {
      "midi": 70,
      "time": 19.8,
      "duration": 0.2,
      "velocity": 0.72,
      "hand": "right"
    },
    {
      "midi": 70,
      "time": 20.1,
      "duration": 0.2,
      "velocity": 0.58,
      "hand": "right"
    },
    {
      "midi": 71,
      "time": 20.4,
      "duration": 1.05,
      "velocity": 0.58,
      "hand": "right"
    },
    {
      "midi": 65,
      "time": 20.7,
      "duration": 0.2,
      "velocity": 0.51,
      "hand": "right"
    },
    {
      "midi": 65,
      "time": 21,
      "duration": 0.3,
      "velocity": 0.46,
      "hand": "right"
    },
    {
      "midi": 65,
      "time": 21.3,
      "duration": 0.2,
      "velocity": 0.48,
      "hand": "right"
    },
    {
      "midi": 71,
      "time": 21.6,
      "duration": 1.05,
      "velocity": 0.49,
      "hand": "right"
    },
    {
      "midi": 70,
      "time": 21.9,
      "duration": 0.2,
      "velocity": 0.73,
      "hand": "right"
    },
    {
      "midi": 64,
      "time": 22.05,
      "duration": 0.2,
      "velocity": 0.57,
      "hand": "right"
    },
    {
      "midi": 70,
      "time": 22.2,
      "duration": 0.2,
      "velocity": 0.72,
      "hand": "right"
    },
    {
      "midi": 70,
      "time": 22.5,
      "duration": 0.2,
      "velocity": 0.72,
      "hand": "right"
    },
    {
      "midi": 70,
      "time": 22.8,
      "duration": 0.2,
      "velocity": 0.73,
      "hand": "right"
    },
    {
      "midi": 38,
      "time": 22.95,
      "duration": 0.2,
      "velocity": 0.72,
      "hand": "right"
    },
    {
      "midi": 65,
      "time": 23.1,
      "duration": 0.2,
      "velocity": 0.51,
      "hand": "right"
    },
    {
      "midi": 40,
      "time": 23.25,
      "duration": 0.2,
      "velocity": 0.72,
      "hand": "right"
    },
    {
      "midi": 67,
      "time": 23.4,
      "duration": 0.45,
      "velocity": 0.59,
      "hand": "right"
    },
    {
      "midi": 65,
      "time": 23.7,
      "duration": 0.2,
      "velocity": 0.42,
      "hand": "right"
    },
    {
      "midi": 67,
      "time": 24,
      "duration": 0.6,
      "velocity": 0.43,
      "hand": "right"
    },
    {
      "midi": 70,
      "time": 24.3,
      "duration": 0.2,
      "velocity": 0.7,
      "hand": "right"
    },
    {
      "midi": 70,
      "time": 24.6,
      "duration": 0.2,
      "velocity": 0.63,
      "hand": "right"
    },
    {
      "midi": 70,
      "time": 24.9,
      "duration": 0.2,
      "velocity": 0.56,
      "hand": "right"
    },
    {
      "midi": 70,
      "time": 25.2,
      "duration": 0.2,
      "velocity": 0.73,
      "hand": "right"
    },
    {
      "midi": 67,
      "time": 25.5,
      "duration": 0.2,
      "velocity": 0.57,
      "hand": "right"
    },
    {
      "midi": 67,
      "time": 25.8,
      "duration": 0.2,
      "velocity": 0.5,
      "hand": "right"
    },
    {
      "midi": 67,
      "time": 26.1,
      "duration": 0.2,
      "velocity": 0.51,
      "hand": "right"
    },
    {
      "midi": 69,
      "time": 26.4,
      "duration": 0.3,
      "velocity": 0.72,
      "hand": "right"
    },
    {
      "midi": 70,
      "time": 26.7,
      "duration": 0.2,
      "velocity": 0.72,
      "hand": "right"
    },
    {
      "midi": 70,
      "time": 27,
      "duration": 0.2,
      "velocity": 0.69,
      "hand": "right"
    },
    {
      "midi": 70,
      "time": 27.3,
      "duration": 0.2,
      "velocity": 0.7,
      "hand": "right"
    },
    {
      "midi": 70,
      "time": 27.6,
      "duration": 0.2,
      "velocity": 0.72,
      "hand": "right"
    },
    {
      "midi": 67,
      "time": 27.9,
      "duration": 0.2,
      "velocity": 0.5,
      "hand": "right"
    },
    {
      "midi": 67,
      "time": 28.2,
      "duration": 0.2,
      "velocity": 0.39,
      "hand": "right"
    },
    {
      "midi": 69,
      "time": 28.5,
      "duration": 0.2,
      "velocity": 0.72,
      "hand": "right"
    },
    {
      "midi": 69,
      "time": 28.8,
      "duration": 0.2,
      "velocity": 0.59,
      "hand": "right"
    },
    {
      "midi": 67,
      "time": 28.95,
      "duration": 0.2,
      "velocity": 0.31,
      "hand": "right"
    },
    {
      "midi": 70,
      "time": 29.1,
      "duration": 0.2,
      "velocity": 0.7,
      "hand": "right"
    },
    {
      "midi": 71,
      "time": 29.4,
      "duration": 0.3,
      "velocity": 0.57,
      "hand": "right"
    },
    {
      "midi": 70,
      "time": 29.7,
      "duration": 0.2,
      "velocity": 0.56,
      "hand": "right"
    },
    {
      "midi": 70,
      "time": 30,
      "duration": 0.2,
      "velocity": 0.73,
      "hand": "right"
    },
    {
      "midi": 69,
      "time": 30.3,
      "duration": 0.2,
      "velocity": 0.63,
      "hand": "right"
    },
    {
      "midi": 64,
      "time": 30.6,
      "duration": 0.2,
      "velocity": 0.56,
      "hand": "right"
    },
    {
      "midi": 69,
      "time": 30.9,
      "duration": 0.2,
      "velocity": 0.68,
      "hand": "right"
    },
    {
      "midi": 67,
      "time": 31.2,
      "duration": 0.2,
      "velocity": 0.5,
      "hand": "right"
    },
    {
      "midi": 70,
      "time": 31.5,
      "duration": 0.2,
      "velocity": 0.72,
      "hand": "right"
    },
    {
      "midi": 70,
      "time": 31.8,
      "duration": 0.2,
      "velocity": 0.69,
      "hand": "right"
    },
    {
      "midi": 70,
      "time": 32.1,
      "duration": 0.2,
      "velocity": 0.7,
      "hand": "right"
    },
    {
      "midi": 70,
      "time": 32.4,
      "duration": 0.2,
      "velocity": 0.72,
      "hand": "right"
    },
    {
      "midi": 67,
      "time": 32.7,
      "duration": 0.2,
      "velocity": 0.56,
      "hand": "right"
    },
    {
      "midi": 67,
      "time": 33,
      "duration": 0.2,
      "velocity": 0.54,
      "hand": "right"
    },
    {
      "midi": 67,
      "time": 33.3,
      "duration": 0.2,
      "velocity": 0.57,
      "hand": "right"
    },
    {
      "midi": 67,
      "time": 33.6,
      "duration": 0.6,
      "velocity": 0.43,
      "hand": "right"
    },
    {
      "midi": 70,
      "time": 33.9,
      "duration": 0.2,
      "velocity": 0.7,
      "hand": "right"
    },
    {
      "midi": 70,
      "time": 34.2,
      "duration": 0.2,
      "velocity": 0.63,
      "hand": "right"
    },
    {
      "midi": 70,
      "time": 34.5,
      "duration": 0.2,
      "velocity": 0.56,
      "hand": "right"
    },
    {
      "midi": 70,
      "time": 34.8,
      "duration": 0.2,
      "velocity": 0.73,
      "hand": "right"
    },
    {
      "midi": 67,
      "time": 35.1,
      "duration": 0.2,
      "velocity": 0.57,
      "hand": "right"
    },
    {
      "midi": 67,
      "time": 35.4,
      "duration": 0.2,
      "velocity": 0.5,
      "hand": "right"
    },
    {
      "midi": 67,
      "time": 35.7,
      "duration": 0.2,
      "velocity": 0.51,
      "hand": "right"
    },
    {
      "midi": 69,
      "time": 36,
      "duration": 0.3,
      "velocity": 0.72,
      "hand": "right"
    },
    {
      "midi": 70,
      "time": 36.3,
      "duration": 0.2,
      "velocity": 0.72,
      "hand": "right"
    },
    {
      "midi": 70,
      "time": 36.6,
      "duration": 0.2,
      "velocity": 0.69,
      "hand": "right"
    },
    {
      "midi": 70,
      "time": 36.9,
      "duration": 0.2,
      "velocity": 0.7,
      "hand": "right"
    },
    {
      "midi": 70,
      "time": 37.2,
      "duration": 0.2,
      "velocity": 0.72,
      "hand": "right"
    },
    {
      "midi": 67,
      "time": 37.5,
      "duration": 0.2,
      "velocity": 0.5,
      "hand": "right"
    },
    {
      "midi": 67,
      "time": 37.8,
      "duration": 0.2,
      "velocity": 0.39,
      "hand": "right"
    },
    {
      "midi": 69,
      "time": 38.1,
      "duration": 0.2,
      "velocity": 0.72,
      "hand": "right"
    },
    {
      "midi": 69,
      "time": 38.4,
      "duration": 0.2,
      "velocity": 0.59,
      "hand": "right"
    },
    {
      "midi": 67,
      "time": 38.55,
      "duration": 0.2,
      "velocity": 0.31,
      "hand": "right"
    },
    {
      "midi": 70,
      "time": 38.7,
      "duration": 0.2,
      "velocity": 0.7,
      "hand": "right"
    },
    {
      "midi": 71,
      "time": 39,
      "duration": 0.3,
      "velocity": 0.57,
      "hand": "right"
    },
    {
      "midi": 70,
      "time": 39.3,
      "duration": 0.2,
      "velocity": 0.56,
      "hand": "right"
    },
    {
      "midi": 70,
      "time": 39.6,
      "duration": 0.2,
      "velocity": 0.73,
      "hand": "right"
    },
    {
      "midi": 69,
      "time": 39.9,
      "duration": 0.2,
      "velocity": 0.63,
      "hand": "right"
    },
    {
      "midi": 64,
      "time": 40.2,
      "duration": 0.2,
      "velocity": 0.56,
      "hand": "right"
    },
    {
      "midi": 69,
      "time": 40.5,
      "duration": 0.2,
      "velocity": 0.68,
      "hand": "right"
    },
    {
      "midi": 67,
      "time": 40.8,
      "duration": 0.2,
      "velocity": 0.5,
      "hand": "right"
    },
    {
      "midi": 70,
      "time": 41.1,
      "duration": 0.2,
      "velocity": 0.72,
      "hand": "right"
    },
    {
      "midi": 70,
      "time": 41.4,
      "duration": 0.2,
      "velocity": 0.69,
      "hand": "right"
    },
    {
      "midi": 70,
      "time": 41.7,
      "duration": 0.2,
      "velocity": 0.7,
      "hand": "right"
    },
    {
      "midi": 70,
      "time": 42,
      "duration": 0.2,
      "velocity": 0.72,
      "hand": "right"
    },
    {
      "midi": 67,
      "time": 42.3,
      "duration": 0.2,
      "velocity": 0.56,
      "hand": "right"
    },
    {
      "midi": 67,
      "time": 42.6,
      "duration": 0.2,
      "velocity": 0.54,
      "hand": "right"
    },
    {
      "midi": 67,
      "time": 42.9,
      "duration": 0.2,
      "velocity": 0.57,
      "hand": "right"
    },
    {
      "midi": 47,
      "time": 43.05,
      "duration": 0.2,
      "velocity": 0.81,
      "hand": "right"
    },
    {
      "midi": 67,
      "time": 43.2,
      "duration": 0.6,
      "velocity": 0.43,
      "hand": "right"
    },
    {
      "midi": 70,
      "time": 43.5,
      "duration": 0.2,
      "velocity": 0.7,
      "hand": "right"
    },
    {
      "midi": 70,
      "time": 43.8,
      "duration": 0.2,
      "velocity": 0.63,
      "hand": "right"
    },
    {
      "midi": 70,
      "time": 44.1,
      "duration": 0.2,
      "velocity": 0.56,
      "hand": "right"
    },
    {
      "midi": 70,
      "time": 44.4,
      "duration": 0.2,
      "velocity": 0.73,
      "hand": "right"
    },
    {
      "midi": 67,
      "time": 44.7,
      "duration": 0.2,
      "velocity": 0.57,
      "hand": "right"
    },
    {
      "midi": 67,
      "time": 45,
      "duration": 0.2,
      "velocity": 0.5,
      "hand": "right"
    },
    {
      "midi": 67,
      "time": 45.3,
      "duration": 0.2,
      "velocity": 0.51,
      "hand": "right"
    },
    {
      "midi": 69,
      "time": 45.6,
      "duration": 0.3,
      "velocity": 0.72,
      "hand": "right"
    },
    {
      "midi": 70,
      "time": 45.9,
      "duration": 0.2,
      "velocity": 0.72,
      "hand": "right"
    },
    {
      "midi": 70,
      "time": 46.2,
      "duration": 0.2,
      "velocity": 0.69,
      "hand": "right"
    },
    {
      "midi": 70,
      "time": 46.5,
      "duration": 0.2,
      "velocity": 0.7,
      "hand": "right"
    },
    {
      "midi": 70,
      "time": 46.8,
      "duration": 0.2,
      "velocity": 0.72,
      "hand": "right"
    },
    {
      "midi": 67,
      "time": 47.1,
      "duration": 0.2,
      "velocity": 0.5,
      "hand": "right"
    },
    {
      "midi": 67,
      "time": 47.4,
      "duration": 0.2,
      "velocity": 0.39,
      "hand": "right"
    },
    {
      "midi": 69,
      "time": 47.7,
      "duration": 0.2,
      "velocity": 0.72,
      "hand": "right"
    },
    {
      "midi": 69,
      "time": 48,
      "duration": 0.2,
      "velocity": 0.59,
      "hand": "right"
    },
    {
      "midi": 67,
      "time": 48.15,
      "duration": 0.2,
      "velocity": 0.31,
      "hand": "right"
    },
    {
      "midi": 70,
      "time": 48.3,
      "duration": 0.2,
      "velocity": 0.7,
      "hand": "right"
    },
    {
      "midi": 71,
      "time": 48.6,
      "duration": 0.3,
      "velocity": 0.57,
      "hand": "right"
    },
    {
      "midi": 70,
      "time": 48.9,
      "duration": 0.2,
      "velocity": 0.56,
      "hand": "right"
    },
    {
      "midi": 70,
      "time": 49.2,
      "duration": 0.2,
      "velocity": 0.73,
      "hand": "right"
    },
    {
      "midi": 69,
      "time": 49.5,
      "duration": 0.2,
      "velocity": 0.63,
      "hand": "right"
    },
    {
      "midi": 64,
      "time": 49.8,
      "duration": 0.2,
      "velocity": 0.56,
      "hand": "right"
    },
    {
      "midi": 69,
      "time": 50.1,
      "duration": 0.2,
      "velocity": 0.68,
      "hand": "right"
    },
    {
      "midi": 67,
      "time": 50.4,
      "duration": 0.2,
      "velocity": 0.5,
      "hand": "right"
    },
    {
      "midi": 70,
      "time": 50.7,
      "duration": 0.2,
      "velocity": 0.72,
      "hand": "right"
    },
    {
      "midi": 70,
      "time": 51,
      "duration": 0.2,
      "velocity": 0.69,
      "hand": "right"
    },
    {
      "midi": 70,
      "time": 51.3,
      "duration": 0.2,
      "velocity": 0.7,
      "hand": "right"
    },
    {
      "midi": 70,
      "time": 51.6,
      "duration": 0.2,
      "velocity": 0.72,
      "hand": "right"
    },
    {
      "midi": 67,
      "time": 51.9,
      "duration": 0.2,
      "velocity": 0.56,
      "hand": "right"
    },
    {
      "midi": 67,
      "time": 52.2,
      "duration": 0.2,
      "velocity": 0.54,
      "hand": "right"
    },
    {
      "midi": 67,
      "time": 52.5,
      "duration": 0.2,
      "velocity": 0.57,
      "hand": "right"
    },
    {
      "midi": 67,
      "time": 52.8,
      "duration": 0.6,
      "velocity": 0.43,
      "hand": "right"
    },
    {
      "midi": 70,
      "time": 53.1,
      "duration": 0.2,
      "velocity": 0.7,
      "hand": "right"
    },
    {
      "midi": 70,
      "time": 53.4,
      "duration": 0.2,
      "velocity": 0.63,
      "hand": "right"
    },
    {
      "midi": 70,
      "time": 53.7,
      "duration": 0.2,
      "velocity": 0.56,
      "hand": "right"
    },
    {
      "midi": 70,
      "time": 54,
      "duration": 0.2,
      "velocity": 0.73,
      "hand": "right"
    },
    {
      "midi": 67,
      "time": 54.3,
      "duration": 0.2,
      "velocity": 0.57,
      "hand": "right"
    },
    {
      "midi": 67,
      "time": 54.6,
      "duration": 0.2,
      "velocity": 0.5,
      "hand": "right"
    },
    {
      "midi": 67,
      "time": 54.9,
      "duration": 0.2,
      "velocity": 0.51,
      "hand": "right"
    },
    {
      "midi": 69,
      "time": 55.2,
      "duration": 0.3,
      "velocity": 0.72,
      "hand": "right"
    },
    {
      "midi": 70,
      "time": 55.5,
      "duration": 0.2,
      "velocity": 0.72,
      "hand": "right"
    },
    {
      "midi": 70,
      "time": 55.8,
      "duration": 0.2,
      "velocity": 0.69,
      "hand": "right"
    },
    {
      "midi": 70,
      "time": 56.1,
      "duration": 0.2,
      "velocity": 0.7,
      "hand": "right"
    },
    {
      "midi": 70,
      "time": 56.4,
      "duration": 0.2,
      "velocity": 0.72,
      "hand": "right"
    },
    {
      "midi": 67,
      "time": 56.7,
      "duration": 0.2,
      "velocity": 0.5,
      "hand": "right"
    },
    {
      "midi": 67,
      "time": 57,
      "duration": 0.2,
      "velocity": 0.39,
      "hand": "right"
    },
    {
      "midi": 69,
      "time": 57.3,
      "duration": 0.2,
      "velocity": 0.72,
      "hand": "right"
    },
    {
      "midi": 69,
      "time": 57.6,
      "duration": 0.2,
      "velocity": 0.59,
      "hand": "right"
    },
    {
      "midi": 67,
      "time": 57.75,
      "duration": 0.2,
      "velocity": 0.31,
      "hand": "right"
    },
    {
      "midi": 70,
      "time": 57.9,
      "duration": 0.2,
      "velocity": 0.7,
      "hand": "right"
    },
    {
      "midi": 71,
      "time": 58.2,
      "duration": 0.3,
      "velocity": 0.57,
      "hand": "right"
    },
    {
      "midi": 70,
      "time": 58.5,
      "duration": 0.2,
      "velocity": 0.56,
      "hand": "right"
    },
    {
      "midi": 70,
      "time": 58.8,
      "duration": 0.2,
      "velocity": 0.73,
      "hand": "right"
    },
    {
      "midi": 69,
      "time": 59.1,
      "duration": 0.2,
      "velocity": 0.63,
      "hand": "right"
    },
    {
      "midi": 64,
      "time": 59.4,
      "duration": 0.2,
      "velocity": 0.56,
      "hand": "right"
    },
    {
      "midi": 69,
      "time": 59.7,
      "duration": 0.2,
      "velocity": 0.68,
      "hand": "right"
    },
    {
      "midi": 67,
      "time": 60,
      "duration": 0.2,
      "velocity": 0.5,
      "hand": "right"
    },
    {
      "midi": 70,
      "time": 60.3,
      "duration": 0.2,
      "velocity": 0.72,
      "hand": "right"
    },
    {
      "midi": 70,
      "time": 60.6,
      "duration": 0.2,
      "velocity": 0.69,
      "hand": "right"
    },
    {
      "midi": 70,
      "time": 60.9,
      "duration": 0.2,
      "velocity": 0.7,
      "hand": "right"
    },
    {
      "midi": 67,
      "time": 61.2,
      "duration": 0.2,
      "velocity": 0.57,
      "hand": "right"
    },
    {
      "midi": 70,
      "time": 61.5,
      "duration": 0.2,
      "velocity": 0.72,
      "hand": "right"
    },
    {
      "midi": 67,
      "time": 61.65,
      "duration": 0.2,
      "velocity": 0.54,
      "hand": "right"
    },
    {
      "midi": 70,
      "time": 61.8,
      "duration": 0.2,
      "velocity": 0.69,
      "hand": "right"
    },
    {
      "midi": 70,
      "time": 62.1,
      "duration": 0.2,
      "velocity": 0.68,
      "hand": "right"
    },
    {
      "midi": 70,
      "time": 62.4,
      "duration": 0.2,
      "velocity": 0.61,
      "hand": "right"
    },
    {
      "midi": 67,
      "time": 62.7,
      "duration": 0.2,
      "velocity": 0.55,
      "hand": "right"
    },
    {
      "midi": 69,
      "time": 63,
      "duration": 0.45,
      "velocity": 0.63,
      "hand": "right"
    },
    {
      "midi": 67,
      "time": 63.3,
      "duration": 0.2,
      "velocity": 0.55,
      "hand": "right"
    },
    {
      "midi": 71,
      "time": 63.6,
      "duration": 2.1,
      "velocity": 0.57,
      "hand": "right"
    },
    {
      "midi": 70,
      "time": 63.9,
      "duration": 0.2,
      "velocity": 0.72,
      "hand": "right"
    },
    {
      "midi": 67,
      "time": 64.05,
      "duration": 0.2,
      "velocity": 0.53,
      "hand": "right"
    },
    {
      "midi": 70,
      "time": 64.2,
      "duration": 0.2,
      "velocity": 0.72,
      "hand": "right"
    },
    {
      "midi": 70,
      "time": 64.5,
      "duration": 0.2,
      "velocity": 0.58,
      "hand": "right"
    },
    {
      "midi": 70,
      "time": 64.8,
      "duration": 0.2,
      "velocity": 0.72,
      "hand": "right"
    },
    {
      "midi": 67,
      "time": 65.1,
      "duration": 0.2,
      "velocity": 0.54,
      "hand": "right"
    },
    {
      "midi": 67,
      "time": 65.4,
      "duration": 0.2,
      "velocity": 0.57,
      "hand": "right"
    },
    {
      "midi": 67,
      "time": 65.7,
      "duration": 0.2,
      "velocity": 0.54,
      "hand": "right"
    },
    {
      "midi": 72,
      "time": 66,
      "duration": 1.05,
      "velocity": 0.56,
      "hand": "right"
    },
    {
      "midi": 70,
      "time": 66.3,
      "duration": 0.2,
      "velocity": 0.73,
      "hand": "right"
    },
    {
      "midi": 65,
      "time": 66.45,
      "duration": 0.2,
      "velocity": 0.57,
      "hand": "right"
    },
    {
      "midi": 70,
      "time": 66.6,
      "duration": 0.2,
      "velocity": 0.72,
      "hand": "right"
    },
    {
      "midi": 70,
      "time": 66.9,
      "duration": 0.2,
      "velocity": 0.72,
      "hand": "right"
    },
    {
      "midi": 71,
      "time": 67.2,
      "duration": 1.05,
      "velocity": 0.57,
      "hand": "right"
    },
    {
      "midi": 65,
      "time": 67.5,
      "duration": 0.2,
      "velocity": 0.54,
      "hand": "right"
    },
    {
      "midi": 65,
      "time": 67.8,
      "duration": 0.3,
      "velocity": 0.52,
      "hand": "right"
    },
    {
      "midi": 65,
      "time": 68.1,
      "duration": 0.2,
      "velocity": 0.52,
      "hand": "right"
    },
    {
      "midi": 72,
      "time": 68.4,
      "duration": 1.05,
      "velocity": 0.69,
      "hand": "right"
    },
    {
      "midi": 70,
      "time": 68.7,
      "duration": 0.2,
      "velocity": 0.7,
      "hand": "right"
    },
    {
      "midi": 64,
      "time": 68.85,
      "duration": 0.2,
      "velocity": 0.59,
      "hand": "right"
    },
    {
      "midi": 70,
      "time": 69,
      "duration": 0.2,
      "velocity": 0.63,
      "hand": "right"
    },
    {
      "midi": 70,
      "time": 69.3,
      "duration": 0.2,
      "velocity": 0.56,
      "hand": "right"
    },
    {
      "midi": 72,
      "time": 69.6,
      "duration": 0.45,
      "velocity": 0.54,
      "hand": "right"
    },
    {
      "midi": 48,
      "time": 69.75,
      "duration": 0.2,
      "velocity": 0.54,
      "hand": "right"
    },
    {
      "midi": 65,
      "time": 69.9,
      "duration": 0.3,
      "velocity": 0.54,
      "hand": "right"
    },
    {
      "midi": 47,
      "time": 70.05,
      "duration": 0.2,
      "velocity": 0.63,
      "hand": "right"
    },
    {
      "midi": 71,
      "time": 70.2,
      "duration": 0.45,
      "velocity": 0.51,
      "hand": "right"
    },
    {
      "midi": 65,
      "time": 70.5,
      "duration": 0.2,
      "velocity": 0.54,
      "hand": "right"
    },
    {
      "midi": 67,
      "time": 70.8,
      "duration": 0.2,
      "velocity": 0.57,
      "hand": "right"
    },
    {
      "midi": 70,
      "time": 71.1,
      "duration": 0.2,
      "velocity": 0.72,
      "hand": "right"
    },
    {
      "midi": 67,
      "time": 71.25,
      "duration": 0.2,
      "velocity": 0.54,
      "hand": "right"
    },
    {
      "midi": 70,
      "time": 71.4,
      "duration": 0.2,
      "velocity": 0.69,
      "hand": "right"
    },
    {
      "midi": 70,
      "time": 71.7,
      "duration": 0.2,
      "velocity": 0.7,
      "hand": "right"
    },
    {
      "midi": 70,
      "time": 72,
      "duration": 0.2,
      "velocity": 0.72,
      "hand": "right"
    },
    {
      "midi": 67,
      "time": 72.3,
      "duration": 0.2,
      "velocity": 0.56,
      "hand": "right"
    },
    {
      "midi": 69,
      "time": 72.6,
      "duration": 0.45,
      "velocity": 0.57,
      "hand": "right"
    },
    {
      "midi": 67,
      "time": 72.9,
      "duration": 0.2,
      "velocity": 0.51,
      "hand": "right"
    },
    {
      "midi": 71,
      "time": 73.2,
      "duration": 0.75,
      "velocity": 0.65,
      "hand": "right"
    },
    {
      "midi": 70,
      "time": 73.5,
      "duration": 0.2,
      "velocity": 0.72,
      "hand": "right"
    },
    {
      "midi": 67,
      "time": 73.65,
      "duration": 0.2,
      "velocity": 0.52,
      "hand": "right"
    },
    {
      "midi": 70,
      "time": 73.8,
      "duration": 0.2,
      "velocity": 0.69,
      "hand": "right"
    },
    {
      "midi": 71,
      "time": 74.1,
      "duration": 0.75,
      "velocity": 0.68,
      "hand": "right"
    },
    {
      "midi": 70,
      "time": 74.4,
      "duration": 0.2,
      "velocity": 0.61,
      "hand": "right"
    },
    {
      "midi": 70,
      "time": 74.7,
      "duration": 0.2,
      "velocity": 0.72,
      "hand": "right"
    },
    {
      "midi": 71,
      "time": 75,
      "duration": 0.2,
      "velocity": 0.57,
      "hand": "right"
    },
    {
      "midi": 70,
      "time": 75.3,
      "duration": 0.2,
      "velocity": 0.58,
      "hand": "right"
    },
    {
      "midi": 72,
      "time": 75.6,
      "duration": 1.05,
      "velocity": 0.63,
      "hand": "right"
    },
    {
      "midi": 70,
      "time": 75.9,
      "duration": 0.2,
      "velocity": 0.72,
      "hand": "right"
    },
    {
      "midi": 69,
      "time": 76.05,
      "duration": 0.3,
      "velocity": 0.54,
      "hand": "right"
    },
    {
      "midi": 70,
      "time": 76.2,
      "duration": 0.2,
      "velocity": 0.72,
      "hand": "right"
    },
    {
      "midi": 70,
      "time": 76.5,
      "duration": 0.2,
      "velocity": 0.58,
      "hand": "right"
    },
    {
      "midi": 71,
      "time": 76.8,
      "duration": 1.05,
      "velocity": 0.58,
      "hand": "right"
    },
    {
      "midi": 65,
      "time": 77.1,
      "duration": 0.2,
      "velocity": 0.51,
      "hand": "right"
    },
    {
      "midi": 65,
      "time": 77.4,
      "duration": 0.3,
      "velocity": 0.46,
      "hand": "right"
    },
    {
      "midi": 65,
      "time": 77.7,
      "duration": 0.2,
      "velocity": 0.48,
      "hand": "right"
    },
    {
      "midi": 72,
      "time": 78,
      "duration": 0.2,
      "velocity": 0.51,
      "hand": "right"
    },
    {
      "midi": 67,
      "time": 78.6,
      "duration": 0.2,
      "velocity": 0.73,
      "hand": "right"
    },
    {
      "midi": 67,
      "time": 78.9,
      "duration": 0.2,
      "velocity": 0.72,
      "hand": "right"
    },
    {
      "midi": 69,
      "time": 79.2,
      "duration": 0.2,
      "velocity": 0.74,
      "hand": "right"
    },
    {
      "midi": 67,
      "time": 79.5,
      "duration": 0.2,
      "velocity": 0.83,
      "hand": "right"
    },
    {
      "midi": 71,
      "time": 80.1,
      "duration": 0.2,
      "velocity": 0.63,
      "hand": "right"
    },
    {
      "midi": 55,
      "time": 80.25,
      "duration": 0.2,
      "velocity": 0.72,
      "hand": "right"
    },
    {
      "midi": 72,
      "time": 80.4,
      "duration": 0.2,
      "velocity": 0.72,
      "hand": "right"
    }
  ],
  "notes2Hands": [
    {
      "midi": 35,
      "time": 4.8,
      "duration": 0.075,
      "velocity": 0.59,
      "hand": "left"
    },
    {
      "midi": 36,
      "time": 4.8,
      "duration": 0.6,
      "velocity": 0.96,
      "hand": "left"
    },
    {
      "midi": 42,
      "time": 4.8,
      "duration": 0.075,
      "velocity": 0.73,
      "hand": "left"
    },
    {
      "midi": 55,
      "time": 4.8,
      "duration": 2.25,
      "velocity": 0.46,
      "hand": "left"
    },
    {
      "midi": 57,
      "time": 4.8,
      "duration": 0.15,
      "velocity": 0.61,
      "hand": "left"
    },
    {
      "midi": 57,
      "time": 4.8,
      "duration": 0.075,
      "velocity": 0.52,
      "hand": "left"
    },
    {
      "midi": 60,
      "time": 4.8,
      "duration": 0.6,
      "velocity": 0.73,
      "hand": "right"
    },
    {
      "midi": 60,
      "time": 4.8,
      "duration": 2.25,
      "velocity": 0.48,
      "hand": "right"
    },
    {
      "midi": 60,
      "time": 4.8,
      "duration": 1.65,
      "velocity": 0.53,
      "hand": "right"
    },
    {
      "midi": 60,
      "time": 4.8,
      "duration": 0.6,
      "velocity": 0.73,
      "hand": "right"
    },
    {
      "midi": 62,
      "time": 4.8,
      "duration": 0.15,
      "velocity": 0.58,
      "hand": "right"
    },
    {
      "midi": 62,
      "time": 4.8,
      "duration": 0.075,
      "velocity": 0.56,
      "hand": "right"
    },
    {
      "midi": 64,
      "time": 4.8,
      "duration": 4.35,
      "velocity": 0.44,
      "hand": "right"
    },
    {
      "midi": 64,
      "time": 4.8,
      "duration": 1.65,
      "velocity": 0.63,
      "hand": "right"
    },
    {
      "midi": 67,
      "time": 4.8,
      "duration": 0.15,
      "velocity": 0.57,
      "hand": "right"
    },
    {
      "midi": 67,
      "time": 4.8,
      "duration": 1.65,
      "velocity": 0.61,
      "hand": "right"
    },
    {
      "midi": 38,
      "time": 5.1,
      "duration": 0.075,
      "velocity": 0.57,
      "hand": "left"
    },
    {
      "midi": 42,
      "time": 5.1,
      "duration": 0.075,
      "velocity": 0.65,
      "hand": "left"
    },
    {
      "midi": 51,
      "time": 5.1,
      "duration": 0.075,
      "velocity": 0.56,
      "hand": "left"
    },
    {
      "midi": 54,
      "time": 5.1,
      "duration": 0.075,
      "velocity": 0.68,
      "hand": "left"
    },
    {
      "midi": 57,
      "time": 5.1,
      "duration": 0.15,
      "velocity": 0.55,
      "hand": "left"
    },
    {
      "midi": 62,
      "time": 5.1,
      "duration": 0.075,
      "velocity": 0.56,
      "hand": "right"
    },
    {
      "midi": 67,
      "time": 5.1,
      "duration": 0.15,
      "velocity": 0.52,
      "hand": "right"
    },
    {
      "midi": 70,
      "time": 5.1,
      "duration": 0.075,
      "velocity": 0.72,
      "hand": "right"
    },
    {
      "midi": 57,
      "time": 5.25,
      "duration": 0.15,
      "velocity": 0.51,
      "hand": "left"
    },
    {
      "midi": 62,
      "time": 5.25,
      "duration": 0.075,
      "velocity": 0.51,
      "hand": "right"
    },
    {
      "midi": 67,
      "time": 5.25,
      "duration": 0.15,
      "velocity": 0.54,
      "hand": "right"
    },
    {
      "midi": 31,
      "time": 5.4,
      "duration": 0.45,
      "velocity": 0.96,
      "hand": "left"
    },
    {
      "midi": 35,
      "time": 5.4,
      "duration": 0.075,
      "velocity": 0.55,
      "hand": "left"
    },
    {
      "midi": 42,
      "time": 5.4,
      "duration": 0.075,
      "velocity": 0.59,
      "hand": "left"
    },
    {
      "midi": 51,
      "time": 5.4,
      "duration": 0.075,
      "velocity": 0.57,
      "hand": "left"
    },
    {
      "midi": 57,
      "time": 5.4,
      "duration": 0.075,
      "velocity": 0.5,
      "hand": "left"
    },
    {
      "midi": 62,
      "time": 5.4,
      "duration": 0.075,
      "velocity": 0.72,
      "hand": "right"
    },
    {
      "midi": 64,
      "time": 5.4,
      "duration": 0.3,
      "velocity": 0.65,
      "hand": "right"
    },
    {
      "midi": 67,
      "time": 5.4,
      "duration": 0.15,
      "velocity": 0.5,
      "hand": "right"
    },
    {
      "midi": 70,
      "time": 5.4,
      "duration": 0.075,
      "velocity": 0.69,
      "hand": "right"
    },
    {
      "midi": 38,
      "time": 5.7,
      "duration": 0.075,
      "velocity": 0.53,
      "hand": "left"
    },
    {
      "midi": 42,
      "time": 5.7,
      "duration": 0.075,
      "velocity": 0.58,
      "hand": "left"
    },
    {
      "midi": 51,
      "time": 5.7,
      "duration": 0.075,
      "velocity": 0.49,
      "hand": "left"
    },
    {
      "midi": 54,
      "time": 5.7,
      "duration": 0.075,
      "velocity": 0.56,
      "hand": "left"
    },
    {
      "midi": 57,
      "time": 5.7,
      "duration": 0.75,
      "velocity": 0.65,
      "hand": "left"
    },
    {
      "midi": 57,
      "time": 5.7,
      "duration": 0.15,
      "velocity": 0.69,
      "hand": "left"
    },
    {
      "midi": 62,
      "time": 5.7,
      "duration": 0.75,
      "velocity": 0.72,
      "hand": "right"
    },
    {
      "midi": 62,
      "time": 5.7,
      "duration": 0.075,
      "velocity": 0.73,
      "hand": "right"
    },
    {
      "midi": 67,
      "time": 5.7,
      "duration": 0.75,
      "velocity": 0.61,
      "hand": "right"
    },
    {
      "midi": 67,
      "time": 5.7,
      "duration": 0.15,
      "velocity": 0.57,
      "hand": "right"
    },
    {
      "midi": 67,
      "time": 5.7,
      "duration": 0.6,
      "velocity": 0.54,
      "hand": "right"
    },
    {
      "midi": 70,
      "time": 5.7,
      "duration": 0.075,
      "velocity": 0.68,
      "hand": "right"
    },
    {
      "midi": 35,
      "time": 6,
      "duration": 0.075,
      "velocity": 0.55,
      "hand": "left"
    },
    {
      "midi": 36,
      "time": 6,
      "duration": 0.6,
      "velocity": 0.96,
      "hand": "left"
    },
    {
      "midi": 42,
      "time": 6,
      "duration": 0.075,
      "velocity": 0.61,
      "hand": "left"
    },
    {
      "midi": 51,
      "time": 6,
      "duration": 0.075,
      "velocity": 0.51,
      "hand": "left"
    },
    {
      "midi": 70,
      "time": 6,
      "duration": 0.075,
      "velocity": 0.61,
      "hand": "right"
    },
    {
      "midi": 38,
      "time": 6.3,
      "duration": 0.075,
      "velocity": 0.54,
      "hand": "left"
    },
    {
      "midi": 42,
      "time": 6.3,
      "duration": 0.075,
      "velocity": 0.61,
      "hand": "left"
    },
    {
      "midi": 51,
      "time": 6.3,
      "duration": 0.075,
      "velocity": 0.52,
      "hand": "left"
    },
    {
      "midi": 54,
      "time": 6.3,
      "duration": 0.075,
      "velocity": 0.68,
      "hand": "left"
    },
    {
      "midi": 57,
      "time": 6.3,
      "duration": 0.15,
      "velocity": 0.64,
      "hand": "left"
    },
    {
      "midi": 62,
      "time": 6.3,
      "duration": 0.075,
      "velocity": 0.72,
      "hand": "right"
    },
    {
      "midi": 64,
      "time": 6.3,
      "duration": 0.3,
      "velocity": 0.51,
      "hand": "right"
    },
    {
      "midi": 67,
      "time": 6.3,
      "duration": 0.075,
      "velocity": 0.55,
      "hand": "right"
    },
    {
      "midi": 31,
      "time": 6.6,
      "duration": 0.6,
      "velocity": 0.96,
      "hand": "left"
    },
    {
      "midi": 35,
      "time": 6.6,
      "duration": 0.075,
      "velocity": 0.68,
      "hand": "left"
    },
    {
      "midi": 42,
      "time": 6.6,
      "duration": 0.075,
      "velocity": 0.58,
      "hand": "left"
    },
    {
      "midi": 51,
      "time": 6.6,
      "duration": 0.075,
      "velocity": 0.49,
      "hand": "left"
    },
    {
      "midi": 57,
      "time": 6.6,
      "duration": 0.15,
      "velocity": 0.61,
      "hand": "left"
    },
    {
      "midi": 60,
      "time": 6.6,
      "duration": 0.45,
      "velocity": 0.57,
      "hand": "right"
    },
    {
      "midi": 62,
      "time": 6.6,
      "duration": 0.15,
      "velocity": 0.72,
      "hand": "right"
    },
    {
      "midi": 62,
      "time": 6.6,
      "duration": 0.075,
      "velocity": 0.72,
      "hand": "right"
    },
    {
      "midi": 62,
      "time": 6.6,
      "duration": 0.3,
      "velocity": 0.53,
      "hand": "right"
    },
    {
      "midi": 64,
      "time": 6.6,
      "duration": 0.45,
      "velocity": 0.68,
      "hand": "right"
    },
    {
      "midi": 67,
      "time": 6.6,
      "duration": 0.15,
      "velocity": 0.63,
      "hand": "right"
    },
    {
      "midi": 67,
      "time": 6.6,
      "duration": 0.075,
      "velocity": 0.54,
      "hand": "right"
    },
    {
      "midi": 69,
      "time": 6.6,
      "duration": 0.45,
      "velocity": 0.63,
      "hand": "right"
    },
    {
      "midi": 38,
      "time": 6.9,
      "duration": 0.075,
      "velocity": 0.53,
      "hand": "left"
    },
    {
      "midi": 42,
      "time": 6.9,
      "duration": 0.075,
      "velocity": 0.57,
      "hand": "left"
    },
    {
      "midi": 51,
      "time": 6.9,
      "duration": 0.075,
      "velocity": 0.56,
      "hand": "left"
    },
    {
      "midi": 54,
      "time": 6.9,
      "duration": 0.075,
      "velocity": 0.55,
      "hand": "left"
    },
    {
      "midi": 57,
      "time": 6.9,
      "duration": 0.15,
      "velocity": 0.49,
      "hand": "left"
    },
    {
      "midi": 60,
      "time": 6.9,
      "duration": 0.3,
      "velocity": 0.54,
      "hand": "right"
    },
    {
      "midi": 62,
      "time": 6.9,
      "duration": 0.075,
      "velocity": 0.57,
      "hand": "right"
    },
    {
      "midi": 67,
      "time": 6.9,
      "duration": 0.15,
      "velocity": 0.55,
      "hand": "right"
    },
    {
      "midi": 35,
      "time": 7.2,
      "duration": 0.6,
      "velocity": 0.96,
      "hand": "left"
    },
    {
      "midi": 35,
      "time": 7.2,
      "duration": 0.075,
      "velocity": 0.69,
      "hand": "left"
    },
    {
      "midi": 42,
      "time": 7.2,
      "duration": 0.075,
      "velocity": 0.54,
      "hand": "left"
    },
    {
      "midi": 51,
      "time": 7.2,
      "duration": 0.075,
      "velocity": 0.54,
      "hand": "left"
    },
    {
      "midi": 55,
      "time": 7.2,
      "duration": 0.75,
      "velocity": 0.61,
      "hand": "left"
    },
    {
      "midi": 55,
      "time": 7.2,
      "duration": 1.95,
      "velocity": 0.25,
      "hand": "left"
    },
    {
      "midi": 59,
      "time": 7.2,
      "duration": 0.75,
      "velocity": 0.61,
      "hand": "left"
    },
    {
      "midi": 59,
      "time": 7.2,
      "duration": 0.15,
      "velocity": 0.51,
      "hand": "left"
    },
    {
      "midi": 59,
      "time": 7.2,
      "duration": 0.6,
      "velocity": 0.57,
      "hand": "left"
    },
    {
      "midi": 59,
      "time": 7.2,
      "duration": 1.95,
      "velocity": 0.54,
      "hand": "left"
    },
    {
      "midi": 59,
      "time": 7.2,
      "duration": 0.6,
      "velocity": 0.57,
      "hand": "left"
    },
    {
      "midi": 60,
      "time": 7.2,
      "duration": 1.95,
      "velocity": 0.54,
      "hand": "right"
    },
    {
      "midi": 62,
      "time": 7.2,
      "duration": 0.75,
      "velocity": 0.55,
      "hand": "right"
    },
    {
      "midi": 62,
      "time": 7.2,
      "duration": 0.075,
      "velocity": 0.72,
      "hand": "right"
    },
    {
      "midi": 64,
      "time": 7.2,
      "duration": 0.75,
      "velocity": 0.53,
      "hand": "right"
    },
    {
      "midi": 64,
      "time": 7.2,
      "duration": 0.075,
      "velocity": 0.65,
      "hand": "right"
    },
    {
      "midi": 64,
      "time": 7.2,
      "duration": 1.95,
      "velocity": 0.56,
      "hand": "right"
    },
    {
      "midi": 67,
      "time": 7.2,
      "duration": 0.075,
      "velocity": 0.38,
      "hand": "right"
    },
    {
      "midi": 67,
      "time": 7.2,
      "duration": 2.1,
      "velocity": 0.63,
      "hand": "right"
    },
    {
      "midi": 71,
      "time": 7.2,
      "duration": 2.1,
      "velocity": 0.57,
      "hand": "right"
    },
    {
      "midi": 38,
      "time": 7.5,
      "duration": 0.075,
      "velocity": 0.58,
      "hand": "left"
    },
    {
      "midi": 42,
      "time": 7.5,
      "duration": 0.075,
      "velocity": 0.63,
      "hand": "left"
    },
    {
      "midi": 51,
      "time": 7.5,
      "duration": 0.075,
      "velocity": 0.55,
      "hand": "left"
    },
    {
      "midi": 54,
      "time": 7.5,
      "duration": 0.075,
      "velocity": 0.52,
      "hand": "left"
    },
    {
      "midi": 70,
      "time": 7.5,
      "duration": 0.075,
      "velocity": 0.72,
      "hand": "right"
    },
    {
      "midi": 59,
      "time": 7.65,
      "duration": 0.15,
      "velocity": 0.61,
      "hand": "left"
    },
    {
      "midi": 62,
      "time": 7.65,
      "duration": 0.075,
      "velocity": 0.57,
      "hand": "right"
    },
    {
      "midi": 64,
      "time": 7.65,
      "duration": 0.075,
      "velocity": 0.55,
      "hand": "right"
    },
    {
      "midi": 67,
      "time": 7.65,
      "duration": 0.15,
      "velocity": 0.53,
      "hand": "right"
    },
    {
      "midi": 35,
      "time": 7.8,
      "duration": 0.075,
      "velocity": 0.7,
      "hand": "left"
    },
    {
      "midi": 40,
      "time": 7.8,
      "duration": 0.6,
      "velocity": 0.96,
      "hand": "left"
    },
    {
      "midi": 42,
      "time": 7.8,
      "duration": 0.075,
      "velocity": 0.54,
      "hand": "left"
    },
    {
      "midi": 51,
      "time": 7.8,
      "duration": 0.075,
      "velocity": 0.51,
      "hand": "left"
    },
    {
      "midi": 59,
      "time": 7.8,
      "duration": 0.075,
      "velocity": 0.52,
      "hand": "left"
    },
    {
      "midi": 62,
      "time": 7.8,
      "duration": 0.075,
      "velocity": 0.56,
      "hand": "right"
    },
    {
      "midi": 64,
      "time": 7.8,
      "duration": 0.075,
      "velocity": 0.59,
      "hand": "right"
    },
    {
      "midi": 67,
      "time": 7.8,
      "duration": 0.075,
      "velocity": 0.42,
      "hand": "right"
    },
    {
      "midi": 69,
      "time": 7.8,
      "duration": 0.3,
      "velocity": 0.56,
      "hand": "right"
    },
    {
      "midi": 70,
      "time": 7.8,
      "duration": 0.075,
      "velocity": 0.72,
      "hand": "right"
    },
    {
      "midi": 38,
      "time": 8.1,
      "duration": 0.075,
      "velocity": 0.52,
      "hand": "left"
    },
    {
      "midi": 42,
      "time": 8.1,
      "duration": 0.075,
      "velocity": 0.54,
      "hand": "left"
    },
    {
      "midi": 51,
      "time": 8.1,
      "duration": 0.075,
      "velocity": 0.54,
      "hand": "left"
    },
    {
      "midi": 54,
      "time": 8.1,
      "duration": 0.075,
      "velocity": 0.57,
      "hand": "left"
    },
    {
      "midi": 55,
      "time": 8.1,
      "duration": 0.75,
      "velocity": 0.63,
      "hand": "left"
    },
    {
      "midi": 59,
      "time": 8.1,
      "duration": 0.75,
      "velocity": 0.68,
      "hand": "left"
    },
    {
      "midi": 59,
      "time": 8.1,
      "duration": 0.15,
      "velocity": 0.57,
      "hand": "left"
    },
    {
      "midi": 62,
      "time": 8.1,
      "duration": 0.75,
      "velocity": 0.61,
      "hand": "right"
    },
    {
      "midi": 62,
      "time": 8.1,
      "duration": 0.075,
      "velocity": 0.69,
      "hand": "right"
    },
    {
      "midi": 64,
      "time": 8.1,
      "duration": 0.75,
      "velocity": 0.55,
      "hand": "right"
    },
    {
      "midi": 64,
      "time": 8.1,
      "duration": 0.075,
      "velocity": 0.72,
      "hand": "right"
    },
    {
      "midi": 67,
      "time": 8.1,
      "duration": 0.15,
      "velocity": 0.55,
      "hand": "right"
    },
    {
      "midi": 67,
      "time": 8.1,
      "duration": 0.9,
      "velocity": 0.54,
      "hand": "right"
    },
    {
      "midi": 70,
      "time": 8.1,
      "duration": 0.075,
      "velocity": 0.58,
      "hand": "right"
    },
    {
      "midi": 35,
      "time": 8.4,
      "duration": 0.6,
      "velocity": 0.96,
      "hand": "left"
    },
    {
      "midi": 35,
      "time": 8.4,
      "duration": 0.075,
      "velocity": 0.51,
      "hand": "left"
    },
    {
      "midi": 42,
      "time": 8.4,
      "duration": 0.075,
      "velocity": 0.57,
      "hand": "left"
    },
    {
      "midi": 51,
      "time": 8.4,
      "duration": 0.075,
      "velocity": 0.56,
      "hand": "left"
    },
    {
      "midi": 70,
      "time": 8.4,
      "duration": 0.075,
      "velocity": 0.72,
      "hand": "right"
    },
    {
      "midi": 38,
      "time": 8.7,
      "duration": 0.075,
      "velocity": 0.57,
      "hand": "left"
    },
    {
      "midi": 42,
      "time": 8.7,
      "duration": 0.075,
      "velocity": 0.58,
      "hand": "left"
    },
    {
      "midi": 51,
      "time": 8.7,
      "duration": 0.075,
      "velocity": 0.54,
      "hand": "left"
    },
    {
      "midi": 54,
      "time": 8.7,
      "duration": 0.075,
      "velocity": 0.52,
      "hand": "left"
    },
    {
      "midi": 59,
      "time": 8.7,
      "duration": 0.075,
      "velocity": 0.63,
      "hand": "left"
    },
    {
      "midi": 62,
      "time": 8.7,
      "duration": 0.075,
      "velocity": 0.68,
      "hand": "right"
    },
    {
      "midi": 64,
      "time": 8.7,
      "duration": 0.075,
      "velocity": 0.58,
      "hand": "right"
    },
    {
      "midi": 67,
      "time": 8.7,
      "duration": 0.075,
      "velocity": 0.54,
      "hand": "right"
    },
    {
      "midi": 35,
      "time": 9,
      "duration": 0.075,
      "velocity": 0.72,
      "hand": "left"
    },
    {
      "midi": 40,
      "time": 9,
      "duration": 0.45,
      "velocity": 0.96,
      "hand": "left"
    },
    {
      "midi": 42,
      "time": 9,
      "duration": 0.075,
      "velocity": 0.54,
      "hand": "left"
    },
    {
      "midi": 51,
      "time": 9,
      "duration": 0.075,
      "velocity": 0.57,
      "hand": "left"
    },
    {
      "midi": 55,
      "time": 9,
      "duration": 0.3,
      "velocity": 0.58,
      "hand": "left"
    },
    {
      "midi": 59,
      "time": 9,
      "duration": 0.3,
      "velocity": 0.69,
      "hand": "left"
    },
    {
      "midi": 59,
      "time": 9,
      "duration": 0.15,
      "velocity": 0.72,
      "hand": "left"
    },
    {
      "midi": 62,
      "time": 9,
      "duration": 0.45,
      "velocity": 0.56,
      "hand": "right"
    },
    {
      "midi": 62,
      "time": 9,
      "duration": 0.075,
      "velocity": 0.72,
      "hand": "right"
    },
    {
      "midi": 64,
      "time": 9,
      "duration": 0.45,
      "velocity": 0.54,
      "hand": "right"
    },
    {
      "midi": 64,
      "time": 9,
      "duration": 0.075,
      "velocity": 0.69,
      "hand": "right"
    },
    {
      "midi": 67,
      "time": 9,
      "duration": 0.15,
      "velocity": 0.57,
      "hand": "right"
    },
    {
      "midi": 38,
      "time": 9.3,
      "duration": 0.075,
      "velocity": 0.56,
      "hand": "left"
    },
    {
      "midi": 42,
      "time": 9.3,
      "duration": 0.075,
      "velocity": 0.5,
      "hand": "left"
    },
    {
      "midi": 51,
      "time": 9.3,
      "duration": 0.075,
      "velocity": 0.56,
      "hand": "left"
    },
    {
      "midi": 54,
      "time": 9.3,
      "duration": 0.075,
      "velocity": 0.55,
      "hand": "left"
    },
    {
      "midi": 59,
      "time": 9.3,
      "duration": 0.15,
      "velocity": 0.54,
      "hand": "left"
    },
    {
      "midi": 62,
      "time": 9.3,
      "duration": 0.15,
      "velocity": 0.56,
      "hand": "right"
    },
    {
      "midi": 64,
      "time": 9.3,
      "duration": 0.075,
      "velocity": 0.55,
      "hand": "right"
    },
    {
      "midi": 67,
      "time": 9.3,
      "duration": 0.15,
      "velocity": 0.54,
      "hand": "right"
    },
    {
      "midi": 35,
      "time": 9.6,
      "duration": 0.075,
      "velocity": 0.57,
      "hand": "left"
    },
    {
      "midi": 38,
      "time": 9.6,
      "duration": 0.6,
      "velocity": 0.96,
      "hand": "left"
    },
    {
      "midi": 42,
      "time": 9.6,
      "duration": 0.075,
      "velocity": 0.55,
      "hand": "left"
    },
    {
      "midi": 51,
      "time": 9.6,
      "duration": 0.075,
      "velocity": 0.56,
      "hand": "left"
    },
    {
      "midi": 57,
      "time": 9.6,
      "duration": 0.45,
      "velocity": 0.72,
      "hand": "left"
    },
    {
      "midi": 57,
      "time": 9.6,
      "duration": 0.15,
      "velocity": 0.72,
      "hand": "left"
    },
    {
      "midi": 57,
      "time": 9.6,
      "duration": 0.45,
      "velocity": 0.73,
      "hand": "left"
    },
    {
      "midi": 57,
      "time": 9.6,
      "duration": 0.9,
      "velocity": 0.49,
      "hand": "left"
    },
    {
      "midi": 57,
      "time": 9.6,
      "duration": 0.45,
      "velocity": 0.73,
      "hand": "left"
    },
    {
      "midi": 60,
      "time": 9.6,
      "duration": 0.45,
      "velocity": 0.7,
      "hand": "right"
    },
    {
      "midi": 60,
      "time": 9.6,
      "duration": 0.9,
      "velocity": 0.5,
      "hand": "right"
    },
    {
      "midi": 62,
      "time": 9.6,
      "duration": 0.15,
      "velocity": 0.72,
      "hand": "right"
    },
    {
      "midi": 62,
      "time": 9.6,
      "duration": 1.2,
      "velocity": 0.51,
      "hand": "right"
    },
    {
      "midi": 62,
      "time": 9.6,
      "duration": 1.05,
      "velocity": 0.56,
      "hand": "right"
    },
    {
      "midi": 65,
      "time": 9.6,
      "duration": 0.6,
      "velocity": 0.68,
      "hand": "right"
    },
    {
      "midi": 65,
      "time": 9.6,
      "duration": 0.15,
      "velocity": 0.7,
      "hand": "right"
    },
    {
      "midi": 65,
      "time": 9.6,
      "duration": 1.05,
      "velocity": 0.5,
      "hand": "right"
    },
    {
      "midi": 69,
      "time": 9.6,
      "duration": 1.05,
      "velocity": 0.63,
      "hand": "right"
    },
    {
      "midi": 72,
      "time": 9.6,
      "duration": 1.05,
      "velocity": 0.56,
      "hand": "right"
    },
    {
      "midi": 38,
      "time": 9.9,
      "duration": 0.075,
      "velocity": 0.54,
      "hand": "left"
    },
    {
      "midi": 42,
      "time": 9.9,
      "duration": 0.075,
      "velocity": 0.54,
      "hand": "left"
    },
    {
      "midi": 51,
      "time": 9.9,
      "duration": 0.075,
      "velocity": 0.54,
      "hand": "left"
    },
    {
      "midi": 54,
      "time": 9.9,
      "duration": 0.075,
      "velocity": 0.55,
      "hand": "left"
    },
    {
      "midi": 70,
      "time": 9.9,
      "duration": 0.075,
      "velocity": 0.73,
      "hand": "right"
    },
    {
      "midi": 57,
      "time": 10.05,
      "duration": 0.15,
      "velocity": 0.63,
      "hand": "left"
    },
    {
      "midi": 62,
      "time": 10.05,
      "duration": 0.075,
      "velocity": 0.72,
      "hand": "right"
    },
    {
      "midi": 65,
      "time": 10.05,
      "duration": 0.075,
      "velocity": 0.57,
      "hand": "right"
    },
    {
      "midi": 33,
      "time": 10.2,
      "duration": 0.6,
      "velocity": 0.96,
      "hand": "left"
    },
    {
      "midi": 35,
      "time": 10.2,
      "duration": 0.075,
      "velocity": 0.68,
      "hand": "left"
    },
    {
      "midi": 42,
      "time": 10.2,
      "duration": 0.075,
      "velocity": 0.53,
      "hand": "left"
    },
    {
      "midi": 51,
      "time": 10.2,
      "duration": 0.075,
      "velocity": 0.54,
      "hand": "left"
    },
    {
      "midi": 57,
      "time": 10.2,
      "duration": 0.45,
      "velocity": 0.74,
      "hand": "left"
    },
    {
      "midi": 57,
      "time": 10.2,
      "duration": 0.15,
      "velocity": 0.54,
      "hand": "left"
    },
    {
      "midi": 60,
      "time": 10.2,
      "duration": 0.45,
      "velocity": 0.78,
      "hand": "right"
    },
    {
      "midi": 62,
      "time": 10.2,
      "duration": 0.075,
      "velocity": 0.68,
      "hand": "right"
    },
    {
      "midi": 65,
      "time": 10.2,
      "duration": 0.6,
      "velocity": 0.7,
      "hand": "right"
    },
    {
      "midi": 65,
      "time": 10.2,
      "duration": 0.15,
      "velocity": 0.49,
      "hand": "right"
    },
    {
      "midi": 69,
      "time": 10.2,
      "duration": 0.3,
      "velocity": 0.56,
      "hand": "right"
    },
    {
      "midi": 70,
      "time": 10.2,
      "duration": 0.075,
      "velocity": 0.72,
      "hand": "right"
    },
    {
      "midi": 38,
      "time": 10.5,
      "duration": 0.075,
      "velocity": 0.56,
      "hand": "left"
    },
    {
      "midi": 42,
      "time": 10.5,
      "duration": 0.075,
      "velocity": 0.57,
      "hand": "left"
    },
    {
      "midi": 51,
      "time": 10.5,
      "duration": 0.075,
      "velocity": 0.54,
      "hand": "left"
    },
    {
      "midi": 54,
      "time": 10.5,
      "duration": 0.075,
      "velocity": 0.54,
      "hand": "left"
    },
    {
      "midi": 57,
      "time": 10.5,
      "duration": 0.15,
      "velocity": 0.73,
      "hand": "left"
    },
    {
      "midi": 62,
      "time": 10.5,
      "duration": 0.15,
      "velocity": 0.75,
      "hand": "right"
    },
    {
      "midi": 65,
      "time": 10.5,
      "duration": 0.15,
      "velocity": 0.64,
      "hand": "right"
    },
    {
      "midi": 67,
      "time": 10.5,
      "duration": 0.6,
      "velocity": 0.5,
      "hand": "right"
    },
    {
      "midi": 70,
      "time": 10.5,
      "duration": 0.075,
      "velocity": 0.72,
      "hand": "right"
    },
    {
      "midi": 31,
      "time": 10.8,
      "duration": 0.6,
      "velocity": 0.96,
      "hand": "left"
    },
    {
      "midi": 35,
      "time": 10.8,
      "duration": 0.075,
      "velocity": 0.69,
      "hand": "left"
    },
    {
      "midi": 42,
      "time": 10.8,
      "duration": 0.075,
      "velocity": 0.68,
      "hand": "left"
    },
    {
      "midi": 51,
      "time": 10.8,
      "duration": 0.075,
      "velocity": 0.58,
      "hand": "left"
    },
    {
      "midi": 55,
      "time": 10.8,
      "duration": 0.45,
      "velocity": 0.68,
      "hand": "left"
    },
    {
      "midi": 55,
      "time": 10.8,
      "duration": 0.15,
      "velocity": 0.61,
      "hand": "left"
    },
    {
      "midi": 55,
      "time": 10.8,
      "duration": 0.9,
      "velocity": 0.5,
      "hand": "left"
    },
    {
      "midi": 59,
      "time": 10.8,
      "duration": 0.45,
      "velocity": 0.57,
      "hand": "left"
    },
    {
      "midi": 59,
      "time": 10.8,
      "duration": 0.15,
      "velocity": 0.58,
      "hand": "left"
    },
    {
      "midi": 59,
      "time": 10.8,
      "duration": 0.9,
      "velocity": 0.56,
      "hand": "left"
    },
    {
      "midi": 62,
      "time": 10.8,
      "duration": 0.6,
      "velocity": 0.54,
      "hand": "right"
    },
    {
      "midi": 62,
      "time": 10.8,
      "duration": 0.15,
      "velocity": 0.58,
      "hand": "right"
    },
    {
      "midi": 62,
      "time": 10.8,
      "duration": 0.9,
      "velocity": 0.49,
      "hand": "right"
    },
    {
      "midi": 65,
      "time": 10.8,
      "duration": 0.6,
      "velocity": 0.46,
      "hand": "right"
    },
    {
      "midi": 65,
      "time": 10.8,
      "duration": 0.15,
      "velocity": 0.54,
      "hand": "right"
    },
    {
      "midi": 65,
      "time": 10.8,
      "duration": 0.9,
      "velocity": 0.5,
      "hand": "right"
    },
    {
      "midi": 67,
      "time": 10.8,
      "duration": 1.05,
      "velocity": 0.61,
      "hand": "right"
    },
    {
      "midi": 70,
      "time": 10.8,
      "duration": 0.075,
      "velocity": 0.73,
      "hand": "right"
    },
    {
      "midi": 71,
      "time": 10.8,
      "duration": 1.05,
      "velocity": 0.57,
      "hand": "right"
    },
    {
      "midi": 38,
      "time": 11.1,
      "duration": 0.075,
      "velocity": 0.56,
      "hand": "left"
    },
    {
      "midi": 42,
      "time": 11.1,
      "duration": 0.075,
      "velocity": 0.61,
      "hand": "left"
    },
    {
      "midi": 51,
      "time": 11.1,
      "duration": 0.075,
      "velocity": 0.56,
      "hand": "left"
    },
    {
      "midi": 54,
      "time": 11.1,
      "duration": 0.075,
      "velocity": 0.55,
      "hand": "left"
    },
    {
      "midi": 55,
      "time": 11.1,
      "duration": 0.15,
      "velocity": 0.53,
      "hand": "left"
    },
    {
      "midi": 59,
      "time": 11.1,
      "duration": 0.15,
      "velocity": 0.55,
      "hand": "left"
    },
    {
      "midi": 62,
      "time": 11.1,
      "duration": 0.075,
      "velocity": 0.52,
      "hand": "right"
    },
    {
      "midi": 65,
      "time": 11.1,
      "duration": 0.15,
      "velocity": 0.54,
      "hand": "right"
    },
    {
      "midi": 65,
      "time": 11.1,
      "duration": 0.3,
      "velocity": 0.52,
      "hand": "right"
    },
    {
      "midi": 35,
      "time": 11.4,
      "duration": 0.075,
      "velocity": 0.57,
      "hand": "left"
    },
    {
      "midi": 38,
      "time": 11.4,
      "duration": 0.45,
      "velocity": 0.96,
      "hand": "left"
    },
    {
      "midi": 42,
      "time": 11.4,
      "duration": 0.075,
      "velocity": 0.61,
      "hand": "left"
    },
    {
      "midi": 51,
      "time": 11.4,
      "duration": 0.075,
      "velocity": 0.49,
      "hand": "left"
    },
    {
      "midi": 55,
      "time": 11.4,
      "duration": 0.45,
      "velocity": 0.54,
      "hand": "left"
    },
    {
      "midi": 55,
      "time": 11.4,
      "duration": 0.15,
      "velocity": 0.61,
      "hand": "left"
    },
    {
      "midi": 59,
      "time": 11.4,
      "duration": 0.3,
      "velocity": 0.55,
      "hand": "left"
    },
    {
      "midi": 59,
      "time": 11.4,
      "duration": 0.15,
      "velocity": 0.64,
      "hand": "left"
    },
    {
      "midi": 62,
      "time": 11.4,
      "duration": 0.3,
      "velocity": 0.54,
      "hand": "right"
    },
    {
      "midi": 62,
      "time": 11.4,
      "duration": 0.15,
      "velocity": 0.58,
      "hand": "right"
    },
    {
      "midi": 64,
      "time": 11.4,
      "duration": 0.3,
      "velocity": 0.57,
      "hand": "right"
    },
    {
      "midi": 65,
      "time": 11.4,
      "duration": 0.3,
      "velocity": 0.52,
      "hand": "right"
    },
    {
      "midi": 65,
      "time": 11.4,
      "duration": 0.15,
      "velocity": 0.57,
      "hand": "right"
    },
    {
      "midi": 38,
      "time": 11.7,
      "duration": 0.075,
      "velocity": 0.57,
      "hand": "left"
    },
    {
      "midi": 42,
      "time": 11.7,
      "duration": 0.075,
      "velocity": 0.58,
      "hand": "left"
    },
    {
      "midi": 51,
      "time": 11.7,
      "duration": 0.075,
      "velocity": 0.54,
      "hand": "left"
    },
    {
      "midi": 54,
      "time": 11.7,
      "duration": 0.075,
      "velocity": 0.54,
      "hand": "left"
    },
    {
      "midi": 55,
      "time": 11.7,
      "duration": 0.15,
      "velocity": 0.57,
      "hand": "left"
    },
    {
      "midi": 59,
      "time": 11.7,
      "duration": 0.075,
      "velocity": 0.61,
      "hand": "left"
    },
    {
      "midi": 62,
      "time": 11.7,
      "duration": 0.15,
      "velocity": 0.57,
      "hand": "right"
    },
    {
      "midi": 62,
      "time": 11.7,
      "duration": 0.3,
      "velocity": 0.54,
      "hand": "right"
    },
    {
      "midi": 65,
      "time": 11.7,
      "duration": 0.15,
      "velocity": 0.52,
      "hand": "right"
    },
    {
      "midi": 35,
      "time": 12,
      "duration": 0.075,
      "velocity": 0.7,
      "hand": "left"
    },
    {
      "midi": 36,
      "time": 12,
      "duration": 0.6,
      "velocity": 0.96,
      "hand": "left"
    },
    {
      "midi": 42,
      "time": 12,
      "duration": 0.075,
      "velocity": 0.55,
      "hand": "left"
    },
    {
      "midi": 51,
      "time": 12,
      "duration": 0.075,
      "velocity": 0.53,
      "hand": "left"
    },
    {
      "midi": 55,
      "time": 12,
      "duration": 0.6,
      "velocity": 0.54,
      "hand": "left"
    },
    {
      "midi": 55,
      "time": 12,
      "duration": 0.15,
      "velocity": 0.68,
      "hand": "left"
    },
    {
      "midi": 55,
      "time": 12,
      "duration": 0.75,
      "velocity": 0.4,
      "hand": "left"
    },
    {
      "midi": 60,
      "time": 12,
      "duration": 0.6,
      "velocity": 0.57,
      "hand": "right"
    },
    {
      "midi": 60,
      "time": 12,
      "duration": 0.15,
      "velocity": 0.73,
      "hand": "right"
    },
    {
      "midi": 60,
      "time": 12,
      "duration": 0.9,
      "velocity": 0.46,
      "hand": "right"
    },
    {
      "midi": 64,
      "time": 12,
      "duration": 0.6,
      "velocity": 0.56,
      "hand": "right"
    },
    {
      "midi": 64,
      "time": 12,
      "duration": 0.15,
      "velocity": 0.72,
      "hand": "right"
    },
    {
      "midi": 64,
      "time": 12,
      "duration": 1.5,
      "velocity": 0.52,
      "hand": "right"
    },
    {
      "midi": 64,
      "time": 12,
      "duration": 0.9,
      "velocity": 0.39,
      "hand": "right"
    },
    {
      "midi": 64,
      "time": 12,
      "duration": 1.5,
      "velocity": 0.52,
      "hand": "right"
    },
    {
      "midi": 67,
      "time": 12,
      "duration": 0.9,
      "velocity": 0.7,
      "hand": "right"
    },
    {
      "midi": 72,
      "time": 12,
      "duration": 1.05,
      "velocity": 0.69,
      "hand": "right"
    },
    {
      "midi": 38,
      "time": 12.3,
      "duration": 0.075,
      "velocity": 0.57,
      "hand": "left"
    },
    {
      "midi": 42,
      "time": 12.3,
      "duration": 0.075,
      "velocity": 0.61,
      "hand": "left"
    },
    {
      "midi": 51,
      "time": 12.3,
      "duration": 0.075,
      "velocity": 0.61,
      "hand": "left"
    },
    {
      "midi": 54,
      "time": 12.3,
      "duration": 0.075,
      "velocity": 0.57,
      "hand": "left"
    },
    {
      "midi": 70,
      "time": 12.3,
      "duration": 0.075,
      "velocity": 0.7,
      "hand": "right"
    },
    {
      "midi": 55,
      "time": 12.45,
      "duration": 0.15,
      "velocity": 0.57,
      "hand": "left"
    },
    {
      "midi": 60,
      "time": 12.45,
      "duration": 0.075,
      "velocity": 0.64,
      "hand": "right"
    },
    {
      "midi": 64,
      "time": 12.45,
      "duration": 0.15,
      "velocity": 0.59,
      "hand": "right"
    },
    {
      "midi": 31,
      "time": 12.6,
      "duration": 0.3,
      "velocity": 0.96,
      "hand": "left"
    },
    {
      "midi": 35,
      "time": 12.6,
      "duration": 0.075,
      "velocity": 0.73,
      "hand": "left"
    },
    {
      "midi": 42,
      "time": 12.6,
      "duration": 0.075,
      "velocity": 0.57,
      "hand": "left"
    },
    {
      "midi": 51,
      "time": 12.6,
      "duration": 0.075,
      "velocity": 0.53,
      "hand": "left"
    },
    {
      "midi": 55,
      "time": 12.6,
      "duration": 0.15,
      "velocity": 0.4,
      "hand": "left"
    },
    {
      "midi": 60,
      "time": 12.6,
      "duration": 0.3,
      "velocity": 0.56,
      "hand": "right"
    },
    {
      "midi": 60,
      "time": 12.6,
      "duration": 0.15,
      "velocity": 0.54,
      "hand": "right"
    },
    {
      "midi": 64,
      "time": 12.6,
      "duration": 0.3,
      "velocity": 0.52,
      "hand": "right"
    },
    {
      "midi": 64,
      "time": 12.6,
      "duration": 0.15,
      "velocity": 0.54,
      "hand": "right"
    },
    {
      "midi": 70,
      "time": 12.6,
      "duration": 0.075,
      "velocity": 0.63,
      "hand": "right"
    },
    {
      "midi": 36,
      "time": 12.9,
      "duration": 0.3,
      "velocity": 0.96,
      "hand": "left"
    },
    {
      "midi": 38,
      "time": 12.9,
      "duration": 0.075,
      "velocity": 0.55,
      "hand": "left"
    },
    {
      "midi": 42,
      "time": 12.9,
      "duration": 0.075,
      "velocity": 0.56,
      "hand": "left"
    },
    {
      "midi": 51,
      "time": 12.9,
      "duration": 0.075,
      "velocity": 0.57,
      "hand": "left"
    },
    {
      "midi": 54,
      "time": 12.9,
      "duration": 0.075,
      "velocity": 0.5,
      "hand": "left"
    },
    {
      "midi": 55,
      "time": 12.9,
      "duration": 0.15,
      "velocity": 0.65,
      "hand": "left"
    },
    {
      "midi": 60,
      "time": 12.9,
      "duration": 0.075,
      "velocity": 0.7,
      "hand": "right"
    },
    {
      "midi": 64,
      "time": 12.9,
      "duration": 0.15,
      "velocity": 0.7,
      "hand": "right"
    },
    {
      "midi": 70,
      "time": 12.9,
      "duration": 0.075,
      "velocity": 0.56,
      "hand": "right"
    },
    {
      "midi": 35,
      "time": 13.2,
      "duration": 0.075,
      "velocity": 0.72,
      "hand": "left"
    },
    {
      "midi": 38,
      "time": 13.2,
      "duration": 0.6,
      "velocity": 0.96,
      "hand": "left"
    },
    {
      "midi": 40,
      "time": 13.2,
      "duration": 0.3,
      "velocity": 0.96,
      "hand": "left"
    },
    {
      "midi": 42,
      "time": 13.2,
      "duration": 0.075,
      "velocity": 0.54,
      "hand": "left"
    },
    {
      "midi": 50,
      "time": 13.2,
      "duration": 0.15,
      "velocity": 0.63,
      "hand": "left"
    },
    {
      "midi": 51,
      "time": 13.2,
      "duration": 0.075,
      "velocity": 0.46,
      "hand": "left"
    },
    {
      "midi": 57,
      "time": 13.2,
      "duration": 0.3,
      "velocity": 0.72,
      "hand": "left"
    },
    {
      "midi": 57,
      "time": 13.2,
      "duration": 0.15,
      "velocity": 0.57,
      "hand": "left"
    },
    {
      "midi": 57,
      "time": 13.2,
      "duration": 0.3,
      "velocity": 0.47,
      "hand": "left"
    },
    {
      "midi": 60,
      "time": 13.2,
      "duration": 0.3,
      "velocity": 0.74,
      "hand": "right"
    },
    {
      "midi": 60,
      "time": 13.2,
      "duration": 0.15,
      "velocity": 0.7,
      "hand": "right"
    },
    {
      "midi": 60,
      "time": 13.2,
      "duration": 0.3,
      "velocity": 0.52,
      "hand": "right"
    },
    {
      "midi": 62,
      "time": 13.2,
      "duration": 0.3,
      "velocity": 0.72,
      "hand": "right"
    },
    {
      "midi": 62,
      "time": 13.2,
      "duration": 0.15,
      "velocity": 0.63,
      "hand": "right"
    },
    {
      "midi": 62,
      "time": 13.2,
      "duration": 0.45,
      "velocity": 0.49,
      "hand": "right"
    },
    {
      "midi": 62,
      "time": 13.2,
      "duration": 0.6,
      "velocity": 0.55,
      "hand": "right"
    },
    {
      "midi": 65,
      "time": 13.2,
      "duration": 0.3,
      "velocity": 0.64,
      "hand": "right"
    },
    {
      "midi": 65,
      "time": 13.2,
      "duration": 0.15,
      "velocity": 0.59,
      "hand": "right"
    },
    {
      "midi": 65,
      "time": 13.2,
      "duration": 0.45,
      "velocity": 0.46,
      "hand": "right"
    },
    {
      "midi": 69,
      "time": 13.2,
      "duration": 0.45,
      "velocity": 0.56,
      "hand": "right"
    },
    {
      "midi": 70,
      "time": 13.2,
      "duration": 0.075,
      "velocity": 0.73,
      "hand": "right"
    },
    {
      "midi": 72,
      "time": 13.2,
      "duration": 0.45,
      "velocity": 0.54,
      "hand": "right"
    },
    {
      "midi": 48,
      "time": 13.35,
      "duration": 0.15,
      "velocity": 0.54,
      "hand": "left"
    },
    {
      "midi": 38,
      "time": 13.5,
      "duration": 0.075,
      "velocity": 0.56,
      "hand": "left"
    },
    {
      "midi": 42,
      "time": 13.5,
      "duration": 0.075,
      "velocity": 0.46,
      "hand": "left"
    },
    {
      "midi": 51,
      "time": 13.5,
      "duration": 0.075,
      "velocity": 0.52,
      "hand": "left"
    },
    {
      "midi": 54,
      "time": 13.5,
      "duration": 0.075,
      "velocity": 0.56,
      "hand": "left"
    },
    {
      "midi": 57,
      "time": 13.5,
      "duration": 0.15,
      "velocity": 0.54,
      "hand": "left"
    },
    {
      "midi": 60,
      "time": 13.5,
      "duration": 0.15,
      "velocity": 0.57,
      "hand": "right"
    },
    {
      "midi": 62,
      "time": 13.5,
      "duration": 0.15,
      "velocity": 0.57,
      "hand": "right"
    },
    {
      "midi": 65,
      "time": 13.5,
      "duration": 0.3,
      "velocity": 0.54,
      "hand": "right"
    },
    {
      "midi": 65,
      "time": 13.5,
      "duration": 0.15,
      "velocity": 0.57,
      "hand": "right"
    },
    {
      "midi": 47,
      "time": 13.65,
      "duration": 0.15,
      "velocity": 0.63,
      "hand": "left"
    },
    {
      "midi": 31,
      "time": 13.8,
      "duration": 0.45,
      "velocity": 0.96,
      "hand": "left"
    },
    {
      "midi": 35,
      "time": 13.8,
      "duration": 0.075,
      "velocity": 0.7,
      "hand": "left"
    },
    {
      "midi": 42,
      "time": 13.8,
      "duration": 0.075,
      "velocity": 0.5,
      "hand": "left"
    },
    {
      "midi": 45,
      "time": 13.8,
      "duration": 0.15,
      "velocity": 0.63,
      "hand": "left"
    },
    {
      "midi": 51,
      "time": 13.8,
      "duration": 0.075,
      "velocity": 0.54,
      "hand": "left"
    },
    {
      "midi": 55,
      "time": 13.8,
      "duration": 0.3,
      "velocity": 0.69,
      "hand": "left"
    },
    {
      "midi": 55,
      "time": 13.8,
      "duration": 0.15,
      "velocity": 0.68,
      "hand": "left"
    },
    {
      "midi": 55,
      "time": 13.8,
      "duration": 0.3,
      "velocity": 0.49,
      "hand": "left"
    },
    {
      "midi": 59,
      "time": 13.8,
      "duration": 0.3,
      "velocity": 0.73,
      "hand": "left"
    },
    {
      "midi": 59,
      "time": 13.8,
      "duration": 0.15,
      "velocity": 0.72,
      "hand": "left"
    },
    {
      "midi": 59,
      "time": 13.8,
      "duration": 0.3,
      "velocity": 0.56,
      "hand": "left"
    },
    {
      "midi": 62,
      "time": 13.8,
      "duration": 0.3,
      "velocity": 0.65,
      "hand": "right"
    },
    {
      "midi": 62,
      "time": 13.8,
      "duration": 0.15,
      "velocity": 0.61,
      "hand": "right"
    },
    {
      "midi": 62,
      "time": 13.8,
      "duration": 0.3,
      "velocity": 0.42,
      "hand": "right"
    },
    {
      "midi": 65,
      "time": 13.8,
      "duration": 0.3,
      "velocity": 0.51,
      "hand": "right"
    },
    {
      "midi": 65,
      "time": 13.8,
      "duration": 0.15,
      "velocity": 0.57,
      "hand": "right"
    },
    {
      "midi": 65,
      "time": 13.8,
      "duration": 0.3,
      "velocity": 0.49,
      "hand": "right"
    },
    {
      "midi": 67,
      "time": 13.8,
      "duration": 0.3,
      "velocity": 0.55,
      "hand": "right"
    },
    {
      "midi": 71,
      "time": 13.8,
      "duration": 0.45,
      "velocity": 0.51,
      "hand": "right"
    },
    {
      "midi": 38,
      "time": 14.1,
      "duration": 0.075,
      "velocity": 0.53,
      "hand": "left"
    },
    {
      "midi": 42,
      "time": 14.1,
      "duration": 0.075,
      "velocity": 0.54,
      "hand": "left"
    },
    {
      "midi": 43,
      "time": 14.1,
      "duration": 0.15,
      "velocity": 0.69,
      "hand": "left"
    },
    {
      "midi": 51,
      "time": 14.1,
      "duration": 0.075,
      "velocity": 0.54,
      "hand": "left"
    },
    {
      "midi": 54,
      "time": 14.1,
      "duration": 0.075,
      "velocity": 0.57,
      "hand": "left"
    },
    {
      "midi": 55,
      "time": 14.1,
      "duration": 0.15,
      "velocity": 0.55,
      "hand": "left"
    },
    {
      "midi": 59,
      "time": 14.1,
      "duration": 0.15,
      "velocity": 0.57,
      "hand": "left"
    },
    {
      "midi": 62,
      "time": 14.1,
      "duration": 0.15,
      "velocity": 0.57,
      "hand": "right"
    },
    {
      "midi": 65,
      "time": 14.1,
      "duration": 0.15,
      "velocity": 0.54,
      "hand": "right"
    },
    {
      "midi": 35,
      "time": 14.4,
      "duration": 0.075,
      "velocity": 0.69,
      "hand": "left"
    },
    {
      "midi": 36,
      "time": 14.4,
      "duration": 0.6,
      "velocity": 0.96,
      "hand": "left"
    },
    {
      "midi": 42,
      "time": 14.4,
      "duration": 0.075,
      "velocity": 0.54,
      "hand": "left"
    },
    {
      "midi": 49,
      "time": 14.4,
      "duration": 0.075,
      "velocity": 0.79,
      "hand": "left"
    },
    {
      "midi": 51,
      "time": 14.4,
      "duration": 0.075,
      "velocity": 0.51,
      "hand": "left"
    },
    {
      "midi": 55,
      "time": 14.4,
      "duration": 0.75,
      "velocity": 0.64,
      "hand": "left"
    },
    {
      "midi": 55,
      "time": 14.4,
      "duration": 2.25,
      "velocity": 0.4,
      "hand": "left"
    },
    {
      "midi": 57,
      "time": 14.4,
      "duration": 0.15,
      "velocity": 0.63,
      "hand": "left"
    },
    {
      "midi": 60,
      "time": 14.4,
      "duration": 0.75,
      "velocity": 0.74,
      "hand": "right"
    },
    {
      "midi": 60,
      "time": 14.4,
      "duration": 0.6,
      "velocity": 0.69,
      "hand": "right"
    },
    {
      "midi": 60,
      "time": 14.4,
      "duration": 2.25,
      "velocity": 0.49,
      "hand": "right"
    },
    {
      "midi": 60,
      "time": 14.4,
      "duration": 1.65,
      "velocity": 0.63,
      "hand": "right"
    },
    {
      "midi": 60,
      "time": 14.4,
      "duration": 0.6,
      "velocity": 0.69,
      "hand": "right"
    },
    {
      "midi": 62,
      "time": 14.4,
      "duration": 0.15,
      "velocity": 0.61,
      "hand": "right"
    },
    {
      "midi": 64,
      "time": 14.4,
      "duration": 0.75,
      "velocity": 0.69,
      "hand": "right"
    },
    {
      "midi": 64,
      "time": 14.4,
      "duration": 2.25,
      "velocity": 0.48,
      "hand": "right"
    },
    {
      "midi": 64,
      "time": 14.4,
      "duration": 1.65,
      "velocity": 0.72,
      "hand": "right"
    },
    {
      "midi": 67,
      "time": 14.4,
      "duration": 0.15,
      "velocity": 0.57,
      "hand": "right"
    },
    {
      "midi": 67,
      "time": 14.4,
      "duration": 1.65,
      "velocity": 0.63,
      "hand": "right"
    },
    {
      "midi": 38,
      "time": 14.7,
      "duration": 0.075,
      "velocity": 0.54,
      "hand": "left"
    },
    {
      "midi": 42,
      "time": 14.7,
      "duration": 0.075,
      "velocity": 0.57,
      "hand": "left"
    },
    {
      "midi": 51,
      "time": 14.7,
      "duration": 0.075,
      "velocity": 0.55,
      "hand": "left"
    },
    {
      "midi": 54,
      "time": 14.7,
      "duration": 0.075,
      "velocity": 0.54,
      "hand": "left"
    },
    {
      "midi": 70,
      "time": 14.7,
      "duration": 0.075,
      "velocity": 0.72,
      "hand": "right"
    },
    {
      "midi": 57,
      "time": 14.85,
      "duration": 0.15,
      "velocity": 0.57,
      "hand": "left"
    },
    {
      "midi": 62,
      "time": 14.85,
      "duration": 0.075,
      "velocity": 0.61,
      "hand": "right"
    },
    {
      "midi": 67,
      "time": 14.85,
      "duration": 0.15,
      "velocity": 0.54,
      "hand": "right"
    },
    {
      "midi": 31,
      "time": 15,
      "duration": 0.6,
      "velocity": 0.96,
      "hand": "left"
    },
    {
      "midi": 35,
      "time": 15,
      "duration": 0.075,
      "velocity": 0.56,
      "hand": "left"
    },
    {
      "midi": 42,
      "time": 15,
      "duration": 0.075,
      "velocity": 0.57,
      "hand": "left"
    },
    {
      "midi": 51,
      "time": 15,
      "duration": 0.075,
      "velocity": 0.5,
      "hand": "left"
    },
    {
      "midi": 57,
      "time": 15,
      "duration": 0.15,
      "velocity": 0.52,
      "hand": "left"
    },
    {
      "midi": 62,
      "time": 15,
      "duration": 0.075,
      "velocity": 0.64,
      "hand": "right"
    },
    {
      "midi": 64,
      "time": 15,
      "duration": 0.3,
      "velocity": 0.59,
      "hand": "right"
    },
    {
      "midi": 67,
      "time": 15,
      "duration": 0.15,
      "velocity": 0.4,
      "hand": "right"
    },
    {
      "midi": 70,
      "time": 15,
      "duration": 0.075,
      "velocity": 0.69,
      "hand": "right"
    },
    {
      "midi": 38,
      "time": 15.3,
      "duration": 0.075,
      "velocity": 0.55,
      "hand": "left"
    },
    {
      "midi": 42,
      "time": 15.3,
      "duration": 0.075,
      "velocity": 0.54,
      "hand": "left"
    },
    {
      "midi": 51,
      "time": 15.3,
      "duration": 0.075,
      "velocity": 0.54,
      "hand": "left"
    },
    {
      "midi": 54,
      "time": 15.3,
      "duration": 0.075,
      "velocity": 0.64,
      "hand": "left"
    },
    {
      "midi": 55,
      "time": 15.3,
      "duration": 0.75,
      "velocity": 0.63,
      "hand": "left"
    },
    {
      "midi": 57,
      "time": 15.3,
      "duration": 0.15,
      "velocity": 0.68,
      "hand": "left"
    },
    {
      "midi": 60,
      "time": 15.3,
      "duration": 0.75,
      "velocity": 0.7,
      "hand": "right"
    },
    {
      "midi": 62,
      "time": 15.3,
      "duration": 0.075,
      "velocity": 0.73,
      "hand": "right"
    },
    {
      "midi": 64,
      "time": 15.3,
      "duration": 0.075,
      "velocity": 0.54,
      "hand": "right"
    },
    {
      "midi": 67,
      "time": 15.3,
      "duration": 0.75,
      "velocity": 0.73,
      "hand": "right"
    },
    {
      "midi": 67,
      "time": 15.3,
      "duration": 0.15,
      "velocity": 0.59,
      "hand": "right"
    },
    {
      "midi": 67,
      "time": 15.3,
      "duration": 0.6,
      "velocity": 0.51,
      "hand": "right"
    },
    {
      "midi": 70,
      "time": 15.3,
      "duration": 0.075,
      "velocity": 0.7,
      "hand": "right"
    },
    {
      "midi": 35,
      "time": 15.6,
      "duration": 0.075,
      "velocity": 0.56,
      "hand": "left"
    },
    {
      "midi": 36,
      "time": 15.6,
      "duration": 0.45,
      "velocity": 0.96,
      "hand": "left"
    },
    {
      "midi": 42,
      "time": 15.6,
      "duration": 0.075,
      "velocity": 0.65,
      "hand": "left"
    },
    {
      "midi": 51,
      "time": 15.6,
      "duration": 0.075,
      "velocity": 0.57,
      "hand": "left"
    },
    {
      "midi": 70,
      "time": 15.6,
      "duration": 0.075,
      "velocity": 0.72,
      "hand": "right"
    },
    {
      "midi": 38,
      "time": 15.9,
      "duration": 0.075,
      "velocity": 0.54,
      "hand": "left"
    },
    {
      "midi": 42,
      "time": 15.9,
      "duration": 0.075,
      "velocity": 0.58,
      "hand": "left"
    },
    {
      "midi": 51,
      "time": 15.9,
      "duration": 0.075,
      "velocity": 0.54,
      "hand": "left"
    },
    {
      "midi": 54,
      "time": 15.9,
      "duration": 0.075,
      "velocity": 0.56,
      "hand": "left"
    },
    {
      "midi": 57,
      "time": 15.9,
      "duration": 0.15,
      "velocity": 0.57,
      "hand": "left"
    },
    {
      "midi": 62,
      "time": 15.9,
      "duration": 0.15,
      "velocity": 0.7,
      "hand": "right"
    },
    {
      "midi": 64,
      "time": 15.9,
      "duration": 0.3,
      "velocity": 0.57,
      "hand": "right"
    },
    {
      "midi": 67,
      "time": 15.9,
      "duration": 0.15,
      "velocity": 0.56,
      "hand": "right"
    },
    {
      "midi": 31,
      "time": 16.2,
      "duration": 0.45,
      "velocity": 0.96,
      "hand": "left"
    },
    {
      "midi": 35,
      "time": 16.2,
      "duration": 0.075,
      "velocity": 0.61,
      "hand": "left"
    },
    {
      "midi": 42,
      "time": 16.2,
      "duration": 0.075,
      "velocity": 0.55,
      "hand": "left"
    },
    {
      "midi": 51,
      "time": 16.2,
      "duration": 0.075,
      "velocity": 0.61,
      "hand": "left"
    },
    {
      "midi": 55,
      "time": 16.2,
      "duration": 0.15,
      "velocity": 0.56,
      "hand": "left"
    },
    {
      "midi": 57,
      "time": 16.2,
      "duration": 0.15,
      "velocity": 0.61,
      "hand": "left"
    },
    {
      "midi": 60,
      "time": 16.2,
      "duration": 0.15,
      "velocity": 0.64,
      "hand": "right"
    },
    {
      "midi": 60,
      "time": 16.2,
      "duration": 0.45,
      "velocity": 0.51,
      "hand": "right"
    },
    {
      "midi": 62,
      "time": 16.2,
      "duration": 0.075,
      "velocity": 0.72,
      "hand": "right"
    },
    {
      "midi": 62,
      "time": 16.2,
      "duration": 0.3,
      "velocity": 0.49,
      "hand": "right"
    },
    {
      "midi": 64,
      "time": 16.2,
      "duration": 0.15,
      "velocity": 0.63,
      "hand": "right"
    },
    {
      "midi": 64,
      "time": 16.2,
      "duration": 0.45,
      "velocity": 0.55,
      "hand": "right"
    },
    {
      "midi": 67,
      "time": 16.2,
      "duration": 0.15,
      "velocity": 0.54,
      "hand": "right"
    },
    {
      "midi": 69,
      "time": 16.2,
      "duration": 0.45,
      "velocity": 0.57,
      "hand": "right"
    },
    {
      "midi": 38,
      "time": 16.5,
      "duration": 0.075,
      "velocity": 0.56,
      "hand": "left"
    },
    {
      "midi": 42,
      "time": 16.5,
      "duration": 0.075,
      "velocity": 0.55,
      "hand": "left"
    },
    {
      "midi": 51,
      "time": 16.5,
      "duration": 0.075,
      "velocity": 0.56,
      "hand": "left"
    },
    {
      "midi": 54,
      "time": 16.5,
      "duration": 0.075,
      "velocity": 0.58,
      "hand": "left"
    },
    {
      "midi": 57,
      "time": 16.5,
      "duration": 0.15,
      "velocity": 0.54,
      "hand": "left"
    },
    {
      "midi": 60,
      "time": 16.5,
      "duration": 0.15,
      "velocity": 0.54,
      "hand": "right"
    },
    {
      "midi": 62,
      "time": 16.5,
      "duration": 0.15,
      "velocity": 0.61,
      "hand": "right"
    },
    {
      "midi": 67,
      "time": 16.5,
      "duration": 0.15,
      "velocity": 0.51,
      "hand": "right"
    },
    {
      "midi": 35,
      "time": 16.8,
      "duration": 0.6,
      "velocity": 0.96,
      "hand": "left"
    },
    {
      "midi": 35,
      "time": 16.8,
      "duration": 0.075,
      "velocity": 0.59,
      "hand": "left"
    },
    {
      "midi": 42,
      "time": 16.8,
      "duration": 0.075,
      "velocity": 0.54,
      "hand": "left"
    },
    {
      "midi": 55,
      "time": 16.8,
      "duration": 1.95,
      "velocity": 0.4,
      "hand": "left"
    },
    {
      "midi": 59,
      "time": 16.8,
      "duration": 0.15,
      "velocity": 0.58,
      "hand": "left"
    },
    {
      "midi": 59,
      "time": 16.8,
      "duration": 0.45,
      "velocity": 0.57,
      "hand": "left"
    },
    {
      "midi": 59,
      "time": 16.8,
      "duration": 1.95,
      "velocity": 0.54,
      "hand": "left"
    },
    {
      "midi": 59,
      "time": 16.8,
      "duration": 0.45,
      "velocity": 0.57,
      "hand": "left"
    },
    {
      "midi": 60,
      "time": 16.8,
      "duration": 1.65,
      "velocity": 0.55,
      "hand": "right"
    },
    {
      "midi": 62,
      "time": 16.8,
      "duration": 0.75,
      "velocity": 0.69,
      "hand": "right"
    },
    {
      "midi": 62,
      "time": 16.8,
      "duration": 0.15,
      "velocity": 0.61,
      "hand": "right"
    },
    {
      "midi": 64,
      "time": 16.8,
      "duration": 0.75,
      "velocity": 0.7,
      "hand": "right"
    },
    {
      "midi": 64,
      "time": 16.8,
      "duration": 0.15,
      "velocity": 0.61,
      "hand": "right"
    },
    {
      "midi": 64,
      "time": 16.8,
      "duration": 1.95,
      "velocity": 0.29,
      "hand": "right"
    },
    {
      "midi": 64,
      "time": 16.8,
      "duration": 1.8,
      "velocity": 0.54,
      "hand": "right"
    },
    {
      "midi": 67,
      "time": 16.8,
      "duration": 0.75,
      "velocity": 0.61,
      "hand": "right"
    },
    {
      "midi": 67,
      "time": 16.8,
      "duration": 0.15,
      "velocity": 0.56,
      "hand": "right"
    },
    {
      "midi": 67,
      "time": 16.8,
      "duration": 1.8,
      "velocity": 0.56,
      "hand": "right"
    },
    {
      "midi": 71,
      "time": 16.8,
      "duration": 0.75,
      "velocity": 0.65,
      "hand": "right"
    },
    {
      "midi": 71,
      "time": 16.8,
      "duration": 1.8,
      "velocity": 0.54,
      "hand": "right"
    },
    {
      "midi": 38,
      "time": 17.1,
      "duration": 0.075,
      "velocity": 0.57,
      "hand": "left"
    },
    {
      "midi": 42,
      "time": 17.1,
      "duration": 0.075,
      "velocity": 0.65,
      "hand": "left"
    },
    {
      "midi": 51,
      "time": 17.1,
      "duration": 0.075,
      "velocity": 0.56,
      "hand": "left"
    },
    {
      "midi": 54,
      "time": 17.1,
      "duration": 0.075,
      "velocity": 0.68,
      "hand": "left"
    },
    {
      "midi": 70,
      "time": 17.1,
      "duration": 0.075,
      "velocity": 0.72,
      "hand": "right"
    },
    {
      "midi": 59,
      "time": 17.25,
      "duration": 0.15,
      "velocity": 0.61,
      "hand": "left"
    },
    {
      "midi": 62,
      "time": 17.25,
      "duration": 0.075,
      "velocity": 0.55,
      "hand": "right"
    },
    {
      "midi": 64,
      "time": 17.25,
      "duration": 0.075,
      "velocity": 0.57,
      "hand": "right"
    },
    {
      "midi": 67,
      "time": 17.25,
      "duration": 0.15,
      "velocity": 0.52,
      "hand": "right"
    },
    {
      "midi": 35,
      "time": 17.4,
      "duration": 0.075,
      "velocity": 0.55,
      "hand": "left"
    },
    {
      "midi": 40,
      "time": 17.4,
      "duration": 0.6,
      "velocity": 0.96,
      "hand": "left"
    },
    {
      "midi": 42,
      "time": 17.4,
      "duration": 0.075,
      "velocity": 0.59,
      "hand": "left"
    },
    {
      "midi": 51,
      "time": 17.4,
      "duration": 0.075,
      "velocity": 0.57,
      "hand": "left"
    },
    {
      "midi": 59,
      "time": 17.4,
      "duration": 0.15,
      "velocity": 0.54,
      "hand": "left"
    },
    {
      "midi": 62,
      "time": 17.4,
      "duration": 0.075,
      "velocity": 0.54,
      "hand": "right"
    },
    {
      "midi": 64,
      "time": 17.4,
      "duration": 0.075,
      "velocity": 0.57,
      "hand": "right"
    },
    {
      "midi": 67,
      "time": 17.4,
      "duration": 0.15,
      "velocity": 0.38,
      "hand": "right"
    },
    {
      "midi": 69,
      "time": 17.4,
      "duration": 0.3,
      "velocity": 0.59,
      "hand": "right"
    },
    {
      "midi": 70,
      "time": 17.4,
      "duration": 0.075,
      "velocity": 0.69,
      "hand": "right"
    },
    {
      "midi": 38,
      "time": 17.7,
      "duration": 0.075,
      "velocity": 0.53,
      "hand": "left"
    },
    {
      "midi": 42,
      "time": 17.7,
      "duration": 0.075,
      "velocity": 0.58,
      "hand": "left"
    },
    {
      "midi": 51,
      "time": 17.7,
      "duration": 0.075,
      "velocity": 0.49,
      "hand": "left"
    },
    {
      "midi": 54,
      "time": 17.7,
      "duration": 0.075,
      "velocity": 0.56,
      "hand": "left"
    },
    {
      "midi": 59,
      "time": 17.7,
      "duration": 0.15,
      "velocity": 0.72,
      "hand": "left"
    },
    {
      "midi": 62,
      "time": 17.7,
      "duration": 0.75,
      "velocity": 0.72,
      "hand": "right"
    },
    {
      "midi": 62,
      "time": 17.7,
      "duration": 0.075,
      "velocity": 0.72,
      "hand": "right"
    },
    {
      "midi": 64,
      "time": 17.7,
      "duration": 0.75,
      "velocity": 0.72,
      "hand": "right"
    },
    {
      "midi": 64,
      "time": 17.7,
      "duration": 0.075,
      "velocity": 0.72,
      "hand": "right"
    },
    {
      "midi": 67,
      "time": 17.7,
      "duration": 0.75,
      "velocity": 0.72,
      "hand": "right"
    },
    {
      "midi": 67,
      "time": 17.7,
      "duration": 0.15,
      "velocity": 0.61,
      "hand": "right"
    },
    {
      "midi": 67,
      "time": 17.7,
      "duration": 1.5,
      "velocity": 0.54,
      "hand": "right"
    },
    {
      "midi": 70,
      "time": 17.7,
      "duration": 0.075,
      "velocity": 0.68,
      "hand": "right"
    },
    {
      "midi": 71,
      "time": 17.7,
      "duration": 0.75,
      "velocity": 0.68,
      "hand": "right"
    },
    {
      "midi": 35,
      "time": 18,
      "duration": 0.6,
      "velocity": 0.96,
      "hand": "left"
    },
    {
      "midi": 35,
      "time": 18,
      "duration": 0.075,
      "velocity": 0.69,
      "hand": "left"
    },
    {
      "midi": 51,
      "time": 18,
      "duration": 0.075,
      "velocity": 0.54,
      "hand": "left"
    },
    {
      "midi": 70,
      "time": 18,
      "duration": 0.075,
      "velocity": 0.61,
      "hand": "right"
    },
    {
      "midi": 38,
      "time": 18.3,
      "duration": 0.075,
      "velocity": 0.58,
      "hand": "left"
    },
    {
      "midi": 42,
      "time": 18.3,
      "duration": 0.075,
      "velocity": 0.63,
      "hand": "left"
    },
    {
      "midi": 51,
      "time": 18.3,
      "duration": 0.075,
      "velocity": 0.55,
      "hand": "left"
    },
    {
      "midi": 54,
      "time": 18.3,
      "duration": 0.075,
      "velocity": 0.52,
      "hand": "left"
    },
    {
      "midi": 59,
      "time": 18.3,
      "duration": 0.15,
      "velocity": 0.7,
      "hand": "left"
    },
    {
      "midi": 62,
      "time": 18.3,
      "duration": 0.075,
      "velocity": 0.72,
      "hand": "right"
    },
    {
      "midi": 64,
      "time": 18.3,
      "duration": 0.075,
      "velocity": 0.72,
      "hand": "right"
    },
    {
      "midi": 67,
      "time": 18.3,
      "duration": 0.075,
      "velocity": 0.57,
      "hand": "right"
    },
    {
      "midi": 70,
      "time": 18.3,
      "duration": 0.075,
      "velocity": 0.72,
      "hand": "right"
    },
    {
      "midi": 35,
      "time": 18.6,
      "duration": 0.075,
      "velocity": 0.7,
      "hand": "left"
    },
    {
      "midi": 40,
      "time": 18.6,
      "duration": 0.6,
      "velocity": 0.96,
      "hand": "left"
    },
    {
      "midi": 42,
      "time": 18.6,
      "duration": 0.075,
      "velocity": 0.54,
      "hand": "left"
    },
    {
      "midi": 51,
      "time": 18.6,
      "duration": 0.075,
      "velocity": 0.51,
      "hand": "left"
    },
    {
      "midi": 59,
      "time": 18.6,
      "duration": 0.15,
      "velocity": 0.65,
      "hand": "left"
    },
    {
      "midi": 62,
      "time": 18.6,
      "duration": 0.15,
      "velocity": 0.65,
      "hand": "right"
    },
    {
      "midi": 64,
      "time": 18.6,
      "duration": 0.15,
      "velocity": 0.63,
      "hand": "right"
    },
    {
      "midi": 67,
      "time": 18.6,
      "duration": 0.15,
      "velocity": 0.57,
      "hand": "right"
    },
    {
      "midi": 70,
      "time": 18.6,
      "duration": 0.075,
      "velocity": 0.72,
      "hand": "right"
    },
    {
      "midi": 71,
      "time": 18.6,
      "duration": 0.15,
      "velocity": 0.57,
      "hand": "right"
    },
    {
      "midi": 38,
      "time": 18.9,
      "duration": 0.075,
      "velocity": 0.52,
      "hand": "left"
    },
    {
      "midi": 42,
      "time": 18.9,
      "duration": 0.075,
      "velocity": 0.54,
      "hand": "left"
    },
    {
      "midi": 51,
      "time": 18.9,
      "duration": 0.075,
      "velocity": 0.54,
      "hand": "left"
    },
    {
      "midi": 54,
      "time": 18.9,
      "duration": 0.075,
      "velocity": 0.57,
      "hand": "left"
    },
    {
      "midi": 70,
      "time": 18.9,
      "duration": 0.075,
      "velocity": 0.58,
      "hand": "right"
    },
    {
      "midi": 35,
      "time": 19.2,
      "duration": 0.075,
      "velocity": 0.69,
      "hand": "left"
    },
    {
      "midi": 38,
      "time": 19.2,
      "duration": 0.6,
      "velocity": 0.96,
      "hand": "left"
    },
    {
      "midi": 51,
      "time": 19.2,
      "duration": 0.075,
      "velocity": 0.54,
      "hand": "left"
    },
    {
      "midi": 57,
      "time": 19.2,
      "duration": 0.45,
      "velocity": 0.72,
      "hand": "left"
    },
    {
      "midi": 57,
      "time": 19.2,
      "duration": 0.15,
      "velocity": 0.72,
      "hand": "left"
    },
    {
      "midi": 57,
      "time": 19.2,
      "duration": 0.45,
      "velocity": 0.65,
      "hand": "left"
    },
    {
      "midi": 57,
      "time": 19.2,
      "duration": 0.75,
      "velocity": 0.47,
      "hand": "left"
    },
    {
      "midi": 57,
      "time": 19.2,
      "duration": 0.45,
      "velocity": 0.65,
      "hand": "left"
    },
    {
      "midi": 60,
      "time": 19.2,
      "duration": 0.45,
      "velocity": 0.72,
      "hand": "right"
    },
    {
      "midi": 60,
      "time": 19.2,
      "duration": 0.075,
      "velocity": 0.73,
      "hand": "right"
    },
    {
      "midi": 60,
      "time": 19.2,
      "duration": 0.9,
      "velocity": 0.52,
      "hand": "right"
    },
    {
      "midi": 62,
      "time": 19.2,
      "duration": 0.45,
      "velocity": 0.72,
      "hand": "right"
    },
    {
      "midi": 62,
      "time": 19.2,
      "duration": 0.075,
      "velocity": 0.72,
      "hand": "right"
    },
    {
      "midi": 62,
      "time": 19.2,
      "duration": 1.05,
      "velocity": 0.49,
      "hand": "right"
    },
    {
      "midi": 65,
      "time": 19.2,
      "duration": 0.45,
      "velocity": 0.57,
      "hand": "right"
    },
    {
      "midi": 65,
      "time": 19.2,
      "duration": 0.15,
      "velocity": 0.58,
      "hand": "right"
    },
    {
      "midi": 65,
      "time": 19.2,
      "duration": 1.05,
      "velocity": 0.51,
      "hand": "right"
    },
    {
      "midi": 69,
      "time": 19.2,
      "duration": 1.05,
      "velocity": 0.63,
      "hand": "right"
    },
    {
      "midi": 70,
      "time": 19.2,
      "duration": 0.075,
      "velocity": 0.72,
      "hand": "right"
    },
    {
      "midi": 72,
      "time": 19.2,
      "duration": 1.05,
      "velocity": 0.63,
      "hand": "right"
    },
    {
      "midi": 38,
      "time": 19.5,
      "duration": 0.075,
      "velocity": 0.58,
      "hand": "left"
    },
    {
      "midi": 42,
      "time": 19.5,
      "duration": 0.075,
      "velocity": 0.63,
      "hand": "left"
    },
    {
      "midi": 51,
      "time": 19.5,
      "duration": 0.075,
      "velocity": 0.55,
      "hand": "left"
    },
    {
      "midi": 54,
      "time": 19.5,
      "duration": 0.075,
      "velocity": 0.52,
      "hand": "left"
    },
    {
      "midi": 70,
      "time": 19.5,
      "duration": 0.075,
      "velocity": 0.72,
      "hand": "right"
    },
    {
      "midi": 57,
      "time": 19.65,
      "duration": 0.075,
      "velocity": 0.65,
      "hand": "left"
    },
    {
      "midi": 60,
      "time": 19.65,
      "duration": 0.075,
      "velocity": 0.69,
      "hand": "right"
    },
    {
      "midi": 62,
      "time": 19.65,
      "duration": 0.075,
      "velocity": 0.68,
      "hand": "right"
    },
    {
      "midi": 65,
      "time": 19.65,
      "duration": 0.075,
      "velocity": 0.56,
      "hand": "right"
    },
    {
      "midi": 69,
      "time": 19.65,
      "duration": 0.3,
      "velocity": 0.54,
      "hand": "right"
    },
    {
      "midi": 33,
      "time": 19.8,
      "duration": 0.6,
      "velocity": 0.96,
      "hand": "left"
    },
    {
      "midi": 35,
      "time": 19.8,
      "duration": 0.075,
      "velocity": 0.7,
      "hand": "left"
    },
    {
      "midi": 42,
      "time": 19.8,
      "duration": 0.075,
      "velocity": 0.54,
      "hand": "left"
    },
    {
      "midi": 51,
      "time": 19.8,
      "duration": 0.075,
      "velocity": 0.51,
      "hand": "left"
    },
    {
      "midi": 57,
      "time": 19.8,
      "duration": 0.45,
      "velocity": 0.68,
      "hand": "left"
    },
    {
      "midi": 57,
      "time": 19.8,
      "duration": 0.15,
      "velocity": 0.54,
      "hand": "left"
    },
    {
      "midi": 60,
      "time": 19.8,
      "duration": 0.45,
      "velocity": 0.7,
      "hand": "right"
    },
    {
      "midi": 60,
      "time": 19.8,
      "duration": 0.075,
      "velocity": 0.55,
      "hand": "right"
    },
    {
      "midi": 62,
      "time": 19.8,
      "duration": 0.45,
      "velocity": 0.65,
      "hand": "right"
    },
    {
      "midi": 62,
      "time": 19.8,
      "duration": 0.075,
      "velocity": 0.57,
      "hand": "right"
    },
    {
      "midi": 65,
      "time": 19.8,
      "duration": 0.45,
      "velocity": 0.61,
      "hand": "right"
    },
    {
      "midi": 65,
      "time": 19.8,
      "duration": 0.075,
      "velocity": 0.36,
      "hand": "right"
    },
    {
      "midi": 70,
      "time": 19.8,
      "duration": 0.075,
      "velocity": 0.72,
      "hand": "right"
    },
    {
      "midi": 38,
      "time": 20.1,
      "duration": 0.075,
      "velocity": 0.52,
      "hand": "left"
    },
    {
      "midi": 42,
      "time": 20.1,
      "duration": 0.075,
      "velocity": 0.54,
      "hand": "left"
    },
    {
      "midi": 51,
      "time": 20.1,
      "duration": 0.075,
      "velocity": 0.54,
      "hand": "left"
    },
    {
      "midi": 54,
      "time": 20.1,
      "duration": 0.075,
      "velocity": 0.57,
      "hand": "left"
    },
    {
      "midi": 57,
      "time": 20.1,
      "duration": 0.15,
      "velocity": 0.65,
      "hand": "left"
    },
    {
      "midi": 60,
      "time": 20.1,
      "duration": 0.075,
      "velocity": 0.63,
      "hand": "right"
    },
    {
      "midi": 62,
      "time": 20.1,
      "duration": 0.15,
      "velocity": 0.69,
      "hand": "right"
    },
    {
      "midi": 65,
      "time": 20.1,
      "duration": 0.15,
      "velocity": 0.57,
      "hand": "right"
    },
    {
      "midi": 67,
      "time": 20.1,
      "duration": 0.6,
      "velocity": 0.48,
      "hand": "right"
    },
    {
      "midi": 70,
      "time": 20.1,
      "duration": 0.075,
      "velocity": 0.58,
      "hand": "right"
    },
    {
      "midi": 31,
      "time": 20.4,
      "duration": 0.6,
      "velocity": 0.96,
      "hand": "left"
    },
    {
      "midi": 35,
      "time": 20.4,
      "duration": 0.075,
      "velocity": 0.51,
      "hand": "left"
    },
    {
      "midi": 42,
      "time": 20.4,
      "duration": 0.075,
      "velocity": 0.57,
      "hand": "left"
    },
    {
      "midi": 51,
      "time": 20.4,
      "duration": 0.075,
      "velocity": 0.56,
      "hand": "left"
    },
    {
      "midi": 55,
      "time": 20.4,
      "duration": 0.45,
      "velocity": 0.65,
      "hand": "left"
    },
    {
      "midi": 55,
      "time": 20.4,
      "duration": 0.15,
      "velocity": 0.57,
      "hand": "left"
    },
    {
      "midi": 55,
      "time": 20.4,
      "duration": 1.05,
      "velocity": 0.5,
      "hand": "left"
    },
    {
      "midi": 59,
      "time": 20.4,
      "duration": 0.45,
      "velocity": 0.63,
      "hand": "left"
    },
    {
      "midi": 59,
      "time": 20.4,
      "duration": 0.075,
      "velocity": 0.57,
      "hand": "left"
    },
    {
      "midi": 59,
      "time": 20.4,
      "duration": 1.05,
      "velocity": 0.54,
      "hand": "left"
    },
    {
      "midi": 62,
      "time": 20.4,
      "duration": 0.45,
      "velocity": 0.57,
      "hand": "right"
    },
    {
      "midi": 62,
      "time": 20.4,
      "duration": 0.15,
      "velocity": 0.63,
      "hand": "right"
    },
    {
      "midi": 62,
      "time": 20.4,
      "duration": 0.9,
      "velocity": 0.44,
      "hand": "right"
    },
    {
      "midi": 65,
      "time": 20.4,
      "duration": 0.45,
      "velocity": 0.53,
      "hand": "right"
    },
    {
      "midi": 65,
      "time": 20.4,
      "duration": 0.15,
      "velocity": 0.53,
      "hand": "right"
    },
    {
      "midi": 65,
      "time": 20.4,
      "duration": 1.05,
      "velocity": 0.46,
      "hand": "right"
    },
    {
      "midi": 65,
      "time": 20.4,
      "duration": 0.9,
      "velocity": 0.68,
      "hand": "right"
    },
    {
      "midi": 67,
      "time": 20.4,
      "duration": 1.05,
      "velocity": 0.64,
      "hand": "right"
    },
    {
      "midi": 70,
      "time": 20.4,
      "duration": 0.075,
      "velocity": 0.72,
      "hand": "right"
    },
    {
      "midi": 71,
      "time": 20.4,
      "duration": 1.05,
      "velocity": 0.58,
      "hand": "right"
    },
    {
      "midi": 38,
      "time": 20.7,
      "duration": 0.075,
      "velocity": 0.57,
      "hand": "left"
    },
    {
      "midi": 42,
      "time": 20.7,
      "duration": 0.075,
      "velocity": 0.58,
      "hand": "left"
    },
    {
      "midi": 51,
      "time": 20.7,
      "duration": 0.075,
      "velocity": 0.54,
      "hand": "left"
    },
    {
      "midi": 54,
      "time": 20.7,
      "duration": 0.075,
      "velocity": 0.52,
      "hand": "left"
    },
    {
      "midi": 55,
      "time": 20.7,
      "duration": 0.075,
      "velocity": 0.52,
      "hand": "left"
    },
    {
      "midi": 59,
      "time": 20.7,
      "duration": 0.075,
      "velocity": 0.54,
      "hand": "left"
    },
    {
      "midi": 62,
      "time": 20.7,
      "duration": 0.15,
      "velocity": 0.54,
      "hand": "right"
    },
    {
      "midi": 65,
      "time": 20.7,
      "duration": 0.15,
      "velocity": 0.51,
      "hand": "right"
    },
    {
      "midi": 65,
      "time": 20.7,
      "duration": 0.3,
      "velocity": 0.56,
      "hand": "right"
    },
    {
      "midi": 35,
      "time": 21,
      "duration": 0.075,
      "velocity": 0.72,
      "hand": "left"
    },
    {
      "midi": 38,
      "time": 21,
      "duration": 0.45,
      "velocity": 0.96,
      "hand": "left"
    },
    {
      "midi": 42,
      "time": 21,
      "duration": 0.075,
      "velocity": 0.54,
      "hand": "left"
    },
    {
      "midi": 51,
      "time": 21,
      "duration": 0.075,
      "velocity": 0.57,
      "hand": "left"
    },
    {
      "midi": 55,
      "time": 21,
      "duration": 0.15,
      "velocity": 0.49,
      "hand": "left"
    },
    {
      "midi": 59,
      "time": 21,
      "duration": 0.3,
      "velocity": 0.48,
      "hand": "left"
    },
    {
      "midi": 59,
      "time": 21,
      "duration": 0.15,
      "velocity": 0.58,
      "hand": "left"
    },
    {
      "midi": 62,
      "time": 21,
      "duration": 0.3,
      "velocity": 0.44,
      "hand": "right"
    },
    {
      "midi": 62,
      "time": 21,
      "duration": 0.15,
      "velocity": 0.54,
      "hand": "right"
    },
    {
      "midi": 64,
      "time": 21,
      "duration": 0.3,
      "velocity": 0.54,
      "hand": "right"
    },
    {
      "midi": 65,
      "time": 21,
      "duration": 0.3,
      "velocity": 0.46,
      "hand": "right"
    },
    {
      "midi": 65,
      "time": 21,
      "duration": 0.15,
      "velocity": 0.54,
      "hand": "right"
    },
    {
      "midi": 38,
      "time": 21.3,
      "duration": 0.075,
      "velocity": 0.56,
      "hand": "left"
    },
    {
      "midi": 42,
      "time": 21.3,
      "duration": 0.075,
      "velocity": 0.5,
      "hand": "left"
    },
    {
      "midi": 51,
      "time": 21.3,
      "duration": 0.075,
      "velocity": 0.56,
      "hand": "left"
    },
    {
      "midi": 54,
      "time": 21.3,
      "duration": 0.075,
      "velocity": 0.55,
      "hand": "left"
    },
    {
      "midi": 55,
      "time": 21.3,
      "duration": 0.15,
      "velocity": 0.4,
      "hand": "left"
    },
    {
      "midi": 59,
      "time": 21.3,
      "duration": 0.15,
      "velocity": 0.5,
      "hand": "left"
    },
    {
      "midi": 62,
      "time": 21.3,
      "duration": 0.15,
      "velocity": 0.49,
      "hand": "right"
    },
    {
      "midi": 62,
      "time": 21.3,
      "duration": 0.3,
      "velocity": 0.51,
      "hand": "right"
    },
    {
      "midi": 65,
      "time": 21.3,
      "duration": 0.15,
      "velocity": 0.48,
      "hand": "right"
    },
    {
      "midi": 35,
      "time": 21.6,
      "duration": 0.075,
      "velocity": 0.57,
      "hand": "left"
    },
    {
      "midi": 36,
      "time": 21.6,
      "duration": 0.6,
      "velocity": 0.96,
      "hand": "left"
    },
    {
      "midi": 42,
      "time": 21.6,
      "duration": 0.075,
      "velocity": 0.55,
      "hand": "left"
    },
    {
      "midi": 51,
      "time": 21.6,
      "duration": 0.075,
      "velocity": 0.56,
      "hand": "left"
    },
    {
      "midi": 55,
      "time": 21.6,
      "duration": 0.75,
      "velocity": 0.59,
      "hand": "left"
    },
    {
      "midi": 55,
      "time": 21.6,
      "duration": 0.15,
      "velocity": 0.61,
      "hand": "left"
    },
    {
      "midi": 55,
      "time": 21.6,
      "duration": 1.05,
      "velocity": 0.41,
      "hand": "left"
    },
    {
      "midi": 60,
      "time": 21.6,
      "duration": 0.75,
      "velocity": 0.64,
      "hand": "right"
    },
    {
      "midi": 60,
      "time": 21.6,
      "duration": 0.15,
      "velocity": 0.72,
      "hand": "right"
    },
    {
      "midi": 60,
      "time": 21.6,
      "duration": 1.05,
      "velocity": 0.51,
      "hand": "right"
    },
    {
      "midi": 64,
      "time": 21.6,
      "duration": 0.75,
      "velocity": 0.57,
      "hand": "right"
    },
    {
      "midi": 64,
      "time": 21.6,
      "duration": 0.15,
      "velocity": 0.64,
      "hand": "right"
    },
    {
      "midi": 64,
      "time": 21.6,
      "duration": 1.05,
      "velocity": 0.35,
      "hand": "right"
    },
    {
      "midi": 67,
      "time": 21.6,
      "duration": 1.05,
      "velocity": 0.5,
      "hand": "right"
    },
    {
      "midi": 71,
      "time": 21.6,
      "duration": 1.05,
      "velocity": 0.49,
      "hand": "right"
    },
    {
      "midi": 38,
      "time": 21.9,
      "duration": 0.075,
      "velocity": 0.54,
      "hand": "left"
    },
    {
      "midi": 42,
      "time": 21.9,
      "duration": 0.075,
      "velocity": 0.54,
      "hand": "left"
    },
    {
      "midi": 51,
      "time": 21.9,
      "duration": 0.075,
      "velocity": 0.54,
      "hand": "left"
    },
    {
      "midi": 54,
      "time": 21.9,
      "duration": 0.075,
      "velocity": 0.55,
      "hand": "left"
    },
    {
      "midi": 70,
      "time": 21.9,
      "duration": 0.075,
      "velocity": 0.73,
      "hand": "right"
    },
    {
      "midi": 55,
      "time": 22.05,
      "duration": 0.15,
      "velocity": 0.54,
      "hand": "left"
    },
    {
      "midi": 60,
      "time": 22.05,
      "duration": 0.075,
      "velocity": 0.59,
      "hand": "right"
    },
    {
      "midi": 64,
      "time": 22.05,
      "duration": 0.15,
      "velocity": 0.57,
      "hand": "right"
    },
    {
      "midi": 31,
      "time": 22.2,
      "duration": 0.3,
      "velocity": 0.96,
      "hand": "left"
    },
    {
      "midi": 35,
      "time": 22.2,
      "duration": 0.075,
      "velocity": 0.68,
      "hand": "left"
    },
    {
      "midi": 42,
      "time": 22.2,
      "duration": 0.075,
      "velocity": 0.53,
      "hand": "left"
    },
    {
      "midi": 51,
      "time": 22.2,
      "duration": 0.075,
      "velocity": 0.54,
      "hand": "left"
    },
    {
      "midi": 55,
      "time": 22.2,
      "duration": 0.15,
      "velocity": 0.54,
      "hand": "left"
    },
    {
      "midi": 60,
      "time": 22.2,
      "duration": 0.075,
      "velocity": 0.69,
      "hand": "right"
    },
    {
      "midi": 64,
      "time": 22.2,
      "duration": 0.15,
      "velocity": 0.64,
      "hand": "right"
    },
    {
      "midi": 70,
      "time": 22.2,
      "duration": 0.075,
      "velocity": 0.72,
      "hand": "right"
    },
    {
      "midi": 36,
      "time": 22.5,
      "duration": 0.3,
      "velocity": 0.96,
      "hand": "left"
    },
    {
      "midi": 38,
      "time": 22.5,
      "duration": 0.075,
      "velocity": 0.56,
      "hand": "left"
    },
    {
      "midi": 42,
      "time": 22.5,
      "duration": 0.075,
      "velocity": 0.57,
      "hand": "left"
    },
    {
      "midi": 51,
      "time": 22.5,
      "duration": 0.075,
      "velocity": 0.54,
      "hand": "left"
    },
    {
      "midi": 54,
      "time": 22.5,
      "duration": 0.075,
      "velocity": 0.54,
      "hand": "left"
    },
    {
      "midi": 55,
      "time": 22.5,
      "duration": 0.15,
      "velocity": 0.72,
      "hand": "left"
    },
    {
      "midi": 60,
      "time": 22.5,
      "duration": 0.075,
      "velocity": 0.74,
      "hand": "right"
    },
    {
      "midi": 64,
      "time": 22.5,
      "duration": 0.15,
      "velocity": 0.73,
      "hand": "right"
    },
    {
      "midi": 70,
      "time": 22.5,
      "duration": 0.075,
      "velocity": 0.72,
      "hand": "right"
    },
    {
      "midi": 35,
      "time": 22.8,
      "duration": 0.075,
      "velocity": 0.69,
      "hand": "left"
    },
    {
      "midi": 38,
      "time": 22.8,
      "duration": 0.45,
      "velocity": 0.91,
      "hand": "left"
    },
    {
      "midi": 38,
      "time": 22.8,
      "duration": 0.15,
      "velocity": 0.68,
      "hand": "left"
    },
    {
      "midi": 42,
      "time": 22.8,
      "duration": 0.075,
      "velocity": 0.68,
      "hand": "left"
    },
    {
      "midi": 51,
      "time": 22.8,
      "duration": 0.075,
      "velocity": 0.58,
      "hand": "left"
    },
    {
      "midi": 56,
      "time": 22.8,
      "duration": 0.45,
      "velocity": 0.57,
      "hand": "left"
    },
    {
      "midi": 56,
      "time": 22.8,
      "duration": 0.15,
      "velocity": 0.54,
      "hand": "left"
    },
    {
      "midi": 60,
      "time": 22.8,
      "duration": 0.45,
      "velocity": 0.64,
      "hand": "right"
    },
    {
      "midi": 60,
      "time": 22.8,
      "duration": 0.15,
      "velocity": 0.56,
      "hand": "right"
    },
    {
      "midi": 62,
      "time": 22.8,
      "duration": 0.3,
      "velocity": 0.54,
      "hand": "right"
    },
    {
      "midi": 62,
      "time": 22.8,
      "duration": 0.15,
      "velocity": 0.5,
      "hand": "right"
    },
    {
      "midi": 63,
      "time": 22.8,
      "duration": 0.075,
      "velocity": 0.43,
      "hand": "right"
    },
    {
      "midi": 65,
      "time": 22.8,
      "duration": 0.45,
      "velocity": 0.58,
      "hand": "right"
    },
    {
      "midi": 65,
      "time": 22.8,
      "duration": 0.15,
      "velocity": 0.5,
      "hand": "right"
    },
    {
      "midi": 70,
      "time": 22.8,
      "duration": 0.075,
      "velocity": 0.73,
      "hand": "right"
    },
    {
      "midi": 38,
      "time": 22.95,
      "duration": 0.15,
      "velocity": 0.72,
      "hand": "left"
    },
    {
      "midi": 42,
      "time": 23.1,
      "duration": 0.075,
      "velocity": 0.61,
      "hand": "left"
    },
    {
      "midi": 51,
      "time": 23.1,
      "duration": 0.075,
      "velocity": 0.56,
      "hand": "left"
    },
    {
      "midi": 54,
      "time": 23.1,
      "duration": 0.075,
      "velocity": 0.55,
      "hand": "left"
    },
    {
      "midi": 56,
      "time": 23.1,
      "duration": 0.15,
      "velocity": 0.55,
      "hand": "left"
    },
    {
      "midi": 60,
      "time": 23.1,
      "duration": 0.15,
      "velocity": 0.59,
      "hand": "right"
    },
    {
      "midi": 62,
      "time": 23.1,
      "duration": 0.15,
      "velocity": 0.53,
      "hand": "right"
    },
    {
      "midi": 65,
      "time": 23.1,
      "duration": 0.15,
      "velocity": 0.51,
      "hand": "right"
    },
    {
      "midi": 40,
      "time": 23.25,
      "duration": 0.15,
      "velocity": 0.72,
      "hand": "left"
    },
    {
      "midi": 32,
      "time": 23.4,
      "duration": 0.6,
      "velocity": 0.99,
      "hand": "left"
    },
    {
      "midi": 35,
      "time": 23.4,
      "duration": 0.075,
      "velocity": 0.57,
      "hand": "left"
    },
    {
      "midi": 38,
      "time": 23.4,
      "duration": 0.15,
      "velocity": 0.7,
      "hand": "left"
    },
    {
      "midi": 42,
      "time": 23.4,
      "duration": 0.075,
      "velocity": 0.61,
      "hand": "left"
    },
    {
      "midi": 51,
      "time": 23.4,
      "duration": 0.075,
      "velocity": 0.49,
      "hand": "left"
    },
    {
      "midi": 55,
      "time": 23.4,
      "duration": 0.3,
      "velocity": 0.49,
      "hand": "left"
    },
    {
      "midi": 55,
      "time": 23.4,
      "duration": 0.15,
      "velocity": 0.56,
      "hand": "left"
    },
    {
      "midi": 59,
      "time": 23.4,
      "duration": 0.3,
      "velocity": 0.57,
      "hand": "left"
    },
    {
      "midi": 59,
      "time": 23.4,
      "duration": 0.15,
      "velocity": 0.54,
      "hand": "left"
    },
    {
      "midi": 62,
      "time": 23.4,
      "duration": 0.15,
      "velocity": 0.44,
      "hand": "right"
    },
    {
      "midi": 63,
      "time": 23.4,
      "duration": 0.45,
      "velocity": 0.44,
      "hand": "right"
    },
    {
      "midi": 63,
      "time": 23.4,
      "duration": 0.075,
      "velocity": 0.46,
      "hand": "right"
    },
    {
      "midi": 65,
      "time": 23.4,
      "duration": 0.15,
      "velocity": 0.51,
      "hand": "right"
    },
    {
      "midi": 67,
      "time": 23.4,
      "duration": 0.45,
      "velocity": 0.59,
      "hand": "right"
    },
    {
      "midi": 42,
      "time": 23.7,
      "duration": 0.075,
      "velocity": 0.58,
      "hand": "left"
    },
    {
      "midi": 50,
      "time": 23.7,
      "duration": 0.15,
      "velocity": 0.73,
      "hand": "left"
    },
    {
      "midi": 51,
      "time": 23.7,
      "duration": 0.075,
      "velocity": 0.54,
      "hand": "left"
    },
    {
      "midi": 54,
      "time": 23.7,
      "duration": 0.075,
      "velocity": 0.54,
      "hand": "left"
    },
    {
      "midi": 55,
      "time": 23.7,
      "duration": 0.15,
      "velocity": 0.51,
      "hand": "left"
    },
    {
      "midi": 59,
      "time": 23.7,
      "duration": 0.15,
      "velocity": 0.5,
      "hand": "left"
    },
    {
      "midi": 62,
      "time": 23.7,
      "duration": 0.15,
      "velocity": 0.5,
      "hand": "right"
    },
    {
      "midi": 64,
      "time": 23.7,
      "duration": 0.3,
      "velocity": 0.73,
      "hand": "right"
    },
    {
      "midi": 65,
      "time": 23.7,
      "duration": 0.15,
      "velocity": 0.42,
      "hand": "right"
    },
    {
      "midi": 35,
      "time": 24,
      "duration": 0.075,
      "velocity": 0.7,
      "hand": "left"
    },
    {
      "midi": 36,
      "time": 24,
      "duration": 0.6,
      "velocity": 0.96,
      "hand": "left"
    },
    {
      "midi": 49,
      "time": 24,
      "duration": 0.075,
      "velocity": 0.79,
      "hand": "left"
    },
    {
      "midi": 51,
      "time": 24,
      "duration": 0.075,
      "velocity": 0.53,
      "hand": "left"
    },
    {
      "midi": 57,
      "time": 24,
      "duration": 0.6,
      "velocity": 0.43,
      "hand": "left"
    },
    {
      "midi": 57,
      "time": 24,
      "duration": 1.95,
      "velocity": 0.63,
      "hand": "left"
    },
    {
      "midi": 62,
      "time": 24,
      "duration": 0.6,
      "velocity": 0.48,
      "hand": "right"
    },
    {
      "midi": 62,
      "time": 24,
      "duration": 2.1,
      "velocity": 0.69,
      "hand": "right"
    },
    {
      "midi": 67,
      "time": 24,
      "duration": 0.6,
      "velocity": 0.43,
      "hand": "right"
    },
    {
      "midi": 67,
      "time": 24,
      "duration": 0.15,
      "velocity": 0.65,
      "hand": "right"
    },
    {
      "midi": 67,
      "time": 24,
      "duration": 2.1,
      "velocity": 0.64,
      "hand": "right"
    },
    {
      "midi": 38,
      "time": 24.3,
      "duration": 0.075,
      "velocity": 0.57,
      "hand": "left"
    },
    {
      "midi": 42,
      "time": 24.3,
      "duration": 0.075,
      "velocity": 0.61,
      "hand": "left"
    },
    {
      "midi": 51,
      "time": 24.3,
      "duration": 0.075,
      "velocity": 0.61,
      "hand": "left"
    },
    {
      "midi": 54,
      "time": 24.3,
      "duration": 0.075,
      "velocity": 0.57,
      "hand": "left"
    },
    {
      "midi": 57,
      "time": 24.3,
      "duration": 0.15,
      "velocity": 0.64,
      "hand": "left"
    },
    {
      "midi": 62,
      "time": 24.3,
      "duration": 0.075,
      "velocity": 0.7,
      "hand": "right"
    },
    {
      "midi": 67,
      "time": 24.3,
      "duration": 0.15,
      "velocity": 0.54,
      "hand": "right"
    },
    {
      "midi": 67,
      "time": 24.3,
      "duration": 0.3,
      "velocity": 0.54,
      "hand": "right"
    },
    {
      "midi": 70,
      "time": 24.3,
      "duration": 0.075,
      "velocity": 0.7,
      "hand": "right"
    },
    {
      "midi": 31,
      "time": 24.6,
      "duration": 0.6,
      "velocity": 0.96,
      "hand": "left"
    },
    {
      "midi": 35,
      "time": 24.6,
      "duration": 0.075,
      "velocity": 0.73,
      "hand": "left"
    },
    {
      "midi": 42,
      "time": 24.6,
      "duration": 0.075,
      "velocity": 0.57,
      "hand": "left"
    },
    {
      "midi": 51,
      "time": 24.6,
      "duration": 0.075,
      "velocity": 0.53,
      "hand": "left"
    },
    {
      "midi": 57,
      "time": 24.6,
      "duration": 0.45,
      "velocity": 0.43,
      "hand": "left"
    },
    {
      "midi": 62,
      "time": 24.6,
      "duration": 0.45,
      "velocity": 0.49,
      "hand": "right"
    },
    {
      "midi": 64,
      "time": 24.6,
      "duration": 0.3,
      "velocity": 0.59,
      "hand": "right"
    },
    {
      "midi": 67,
      "time": 24.6,
      "duration": 0.45,
      "velocity": 0.49,
      "hand": "right"
    },
    {
      "midi": 70,
      "time": 24.6,
      "duration": 0.075,
      "velocity": 0.63,
      "hand": "right"
    },
    {
      "midi": 38,
      "time": 24.9,
      "duration": 0.075,
      "velocity": 0.55,
      "hand": "left"
    },
    {
      "midi": 42,
      "time": 24.9,
      "duration": 0.075,
      "velocity": 0.56,
      "hand": "left"
    },
    {
      "midi": 51,
      "time": 24.9,
      "duration": 0.075,
      "velocity": 0.57,
      "hand": "left"
    },
    {
      "midi": 54,
      "time": 24.9,
      "duration": 0.075,
      "velocity": 0.5,
      "hand": "left"
    },
    {
      "midi": 57,
      "time": 24.9,
      "duration": 0.075,
      "velocity": 0.64,
      "hand": "left"
    },
    {
      "midi": 62,
      "time": 24.9,
      "duration": 0.075,
      "velocity": 0.72,
      "hand": "right"
    },
    {
      "midi": 65,
      "time": 24.9,
      "duration": 0.3,
      "velocity": 0.61,
      "hand": "right"
    },
    {
      "midi": 67,
      "time": 24.9,
      "duration": 0.075,
      "velocity": 0.56,
      "hand": "right"
    },
    {
      "midi": 70,
      "time": 24.9,
      "duration": 0.075,
      "velocity": 0.56,
      "hand": "right"
    },
    {
      "midi": 35,
      "time": 25.2,
      "duration": 0.075,
      "velocity": 0.72,
      "hand": "left"
    },
    {
      "midi": 36,
      "time": 25.2,
      "duration": 0.6,
      "velocity": 0.96,
      "hand": "left"
    },
    {
      "midi": 42,
      "time": 25.2,
      "duration": 0.075,
      "velocity": 0.54,
      "hand": "left"
    },
    {
      "midi": 51,
      "time": 25.2,
      "duration": 0.075,
      "velocity": 0.46,
      "hand": "left"
    },
    {
      "midi": 57,
      "time": 25.2,
      "duration": 0.6,
      "velocity": 0.56,
      "hand": "left"
    },
    {
      "midi": 62,
      "time": 25.2,
      "duration": 0.6,
      "velocity": 0.59,
      "hand": "right"
    },
    {
      "midi": 67,
      "time": 25.2,
      "duration": 0.6,
      "velocity": 0.61,
      "hand": "right"
    },
    {
      "midi": 67,
      "time": 25.2,
      "duration": 0.3,
      "velocity": 0.54,
      "hand": "right"
    },
    {
      "midi": 70,
      "time": 25.2,
      "duration": 0.075,
      "velocity": 0.73,
      "hand": "right"
    },
    {
      "midi": 38,
      "time": 25.5,
      "duration": 0.075,
      "velocity": 0.56,
      "hand": "left"
    },
    {
      "midi": 42,
      "time": 25.5,
      "duration": 0.075,
      "velocity": 0.46,
      "hand": "left"
    },
    {
      "midi": 51,
      "time": 25.5,
      "duration": 0.075,
      "velocity": 0.52,
      "hand": "left"
    },
    {
      "midi": 54,
      "time": 25.5,
      "duration": 0.075,
      "velocity": 0.56,
      "hand": "left"
    },
    {
      "midi": 57,
      "time": 25.5,
      "duration": 0.15,
      "velocity": 0.72,
      "hand": "left"
    },
    {
      "midi": 62,
      "time": 25.5,
      "duration": 0.075,
      "velocity": 0.72,
      "hand": "right"
    },
    {
      "midi": 67,
      "time": 25.5,
      "duration": 0.075,
      "velocity": 0.57,
      "hand": "right"
    },
    {
      "midi": 67,
      "time": 25.5,
      "duration": 0.15,
      "velocity": 0.72,
      "hand": "right"
    },
    {
      "midi": 31,
      "time": 25.8,
      "duration": 0.6,
      "velocity": 0.96,
      "hand": "left"
    },
    {
      "midi": 35,
      "time": 25.8,
      "duration": 0.075,
      "velocity": 0.7,
      "hand": "left"
    },
    {
      "midi": 42,
      "time": 25.8,
      "duration": 0.075,
      "velocity": 0.5,
      "hand": "left"
    },
    {
      "midi": 51,
      "time": 25.8,
      "duration": 0.075,
      "velocity": 0.54,
      "hand": "left"
    },
    {
      "midi": 57,
      "time": 25.8,
      "duration": 0.15,
      "velocity": 0.5,
      "hand": "left"
    },
    {
      "midi": 62,
      "time": 25.8,
      "duration": 0.15,
      "velocity": 0.52,
      "hand": "right"
    },
    {
      "midi": 67,
      "time": 25.8,
      "duration": 0.15,
      "velocity": 0.5,
      "hand": "right"
    },
    {
      "midi": 38,
      "time": 26.1,
      "duration": 0.075,
      "velocity": 0.53,
      "hand": "left"
    },
    {
      "midi": 42,
      "time": 26.1,
      "duration": 0.075,
      "velocity": 0.54,
      "hand": "left"
    },
    {
      "midi": 51,
      "time": 26.1,
      "duration": 0.075,
      "velocity": 0.54,
      "hand": "left"
    },
    {
      "midi": 54,
      "time": 26.1,
      "duration": 0.075,
      "velocity": 0.57,
      "hand": "left"
    },
    {
      "midi": 57,
      "time": 26.1,
      "duration": 0.15,
      "velocity": 0.51,
      "hand": "left"
    },
    {
      "midi": 62,
      "time": 26.1,
      "duration": 0.075,
      "velocity": 0.57,
      "hand": "right"
    },
    {
      "midi": 67,
      "time": 26.1,
      "duration": 0.15,
      "velocity": 0.51,
      "hand": "right"
    },
    {
      "midi": 35,
      "time": 26.4,
      "duration": 0.075,
      "velocity": 0.69,
      "hand": "left"
    },
    {
      "midi": 40,
      "time": 26.4,
      "duration": 0.6,
      "velocity": 0.96,
      "hand": "left"
    },
    {
      "midi": 42,
      "time": 26.4,
      "duration": 0.075,
      "velocity": 0.54,
      "hand": "left"
    },
    {
      "midi": 51,
      "time": 26.4,
      "duration": 0.075,
      "velocity": 0.51,
      "hand": "left"
    },
    {
      "midi": 59,
      "time": 26.4,
      "duration": 0.15,
      "velocity": 0.61,
      "hand": "left"
    },
    {
      "midi": 59,
      "time": 26.4,
      "duration": 0.3,
      "velocity": 0.57,
      "hand": "left"
    },
    {
      "midi": 62,
      "time": 26.4,
      "duration": 0.15,
      "velocity": 0.57,
      "hand": "right"
    },
    {
      "midi": 62,
      "time": 26.4,
      "duration": 0.3,
      "velocity": 0.57,
      "hand": "right"
    },
    {
      "midi": 64,
      "time": 26.4,
      "duration": 0.15,
      "velocity": 0.63,
      "hand": "right"
    },
    {
      "midi": 64,
      "time": 26.4,
      "duration": 0.3,
      "velocity": 0.59,
      "hand": "right"
    },
    {
      "midi": 67,
      "time": 26.4,
      "duration": 0.15,
      "velocity": 0.54,
      "hand": "right"
    },
    {
      "midi": 67,
      "time": 26.4,
      "duration": 0.3,
      "velocity": 0.54,
      "hand": "right"
    },
    {
      "midi": 69,
      "time": 26.4,
      "duration": 0.3,
      "velocity": 0.72,
      "hand": "right"
    },
    {
      "midi": 38,
      "time": 26.7,
      "duration": 0.075,
      "velocity": 0.54,
      "hand": "left"
    },
    {
      "midi": 42,
      "time": 26.7,
      "duration": 0.075,
      "velocity": 0.57,
      "hand": "left"
    },
    {
      "midi": 51,
      "time": 26.7,
      "duration": 0.075,
      "velocity": 0.55,
      "hand": "left"
    },
    {
      "midi": 54,
      "time": 26.7,
      "duration": 0.075,
      "velocity": 0.54,
      "hand": "left"
    },
    {
      "midi": 59,
      "time": 26.7,
      "duration": 0.15,
      "velocity": 0.59,
      "hand": "left"
    },
    {
      "midi": 62,
      "time": 26.7,
      "duration": 0.15,
      "velocity": 0.57,
      "hand": "right"
    },
    {
      "midi": 62,
      "time": 26.7,
      "duration": 0.075,
      "velocity": 0.57,
      "hand": "right"
    },
    {
      "midi": 64,
      "time": 26.7,
      "duration": 0.15,
      "velocity": 0.61,
      "hand": "right"
    },
    {
      "midi": 67,
      "time": 26.7,
      "duration": 0.15,
      "velocity": 0.57,
      "hand": "right"
    },
    {
      "midi": 67,
      "time": 26.7,
      "duration": 0.3,
      "velocity": 0.65,
      "hand": "right"
    },
    {
      "midi": 70,
      "time": 26.7,
      "duration": 0.075,
      "velocity": 0.72,
      "hand": "right"
    },
    {
      "midi": 35,
      "time": 27,
      "duration": 0.075,
      "velocity": 0.56,
      "hand": "left"
    },
    {
      "midi": 39,
      "time": 27,
      "duration": 0.45,
      "velocity": 0.96,
      "hand": "left"
    },
    {
      "midi": 42,
      "time": 27,
      "duration": 0.075,
      "velocity": 0.57,
      "hand": "left"
    },
    {
      "midi": 51,
      "time": 27,
      "duration": 0.075,
      "velocity": 0.5,
      "hand": "left"
    },
    {
      "midi": 58,
      "time": 27,
      "duration": 0.3,
      "velocity": 0.72,
      "hand": "left"
    },
    {
      "midi": 58,
      "time": 27,
      "duration": 0.15,
      "velocity": 0.61,
      "hand": "left"
    },
    {
      "midi": 58,
      "time": 27,
      "duration": 0.45,
      "velocity": 0.57,
      "hand": "left"
    },
    {
      "midi": 58,
      "time": 27,
      "duration": 0.3,
      "velocity": 0.59,
      "hand": "left"
    },
    {
      "midi": 61,
      "time": 27,
      "duration": 0.3,
      "velocity": 0.61,
      "hand": "right"
    },
    {
      "midi": 61,
      "time": 27,
      "duration": 0.15,
      "velocity": 0.56,
      "hand": "right"
    },
    {
      "midi": 61,
      "time": 27,
      "duration": 0.45,
      "velocity": 0.58,
      "hand": "right"
    },
    {
      "midi": 61,
      "time": 27,
      "duration": 0.3,
      "velocity": 0.52,
      "hand": "right"
    },
    {
      "midi": 63,
      "time": 27,
      "duration": 0.3,
      "velocity": 0.58,
      "hand": "right"
    },
    {
      "midi": 63,
      "time": 27,
      "duration": 0.15,
      "velocity": 0.57,
      "hand": "right"
    },
    {
      "midi": 63,
      "time": 27,
      "duration": 0.45,
      "velocity": 0.58,
      "hand": "right"
    },
    {
      "midi": 63,
      "time": 27,
      "duration": 0.3,
      "velocity": 0.54,
      "hand": "right"
    },
    {
      "midi": 65,
      "time": 27,
      "duration": 0.3,
      "velocity": 0.58,
      "hand": "right"
    },
    {
      "midi": 66,
      "time": 27,
      "duration": 0.3,
      "velocity": 0.54,
      "hand": "right"
    },
    {
      "midi": 68,
      "time": 27,
      "duration": 0.3,
      "velocity": 0.61,
      "hand": "right"
    },
    {
      "midi": 68,
      "time": 27,
      "duration": 0.15,
      "velocity": 0.54,
      "hand": "right"
    },
    {
      "midi": 68,
      "time": 27,
      "duration": 0.45,
      "velocity": 0.54,
      "hand": "right"
    },
    {
      "midi": 70,
      "time": 27,
      "duration": 0.075,
      "velocity": 0.69,
      "hand": "right"
    },
    {
      "midi": 38,
      "time": 27.3,
      "duration": 0.075,
      "velocity": 0.55,
      "hand": "left"
    },
    {
      "midi": 42,
      "time": 27.3,
      "duration": 0.075,
      "velocity": 0.54,
      "hand": "left"
    },
    {
      "midi": 51,
      "time": 27.3,
      "duration": 0.075,
      "velocity": 0.54,
      "hand": "left"
    },
    {
      "midi": 54,
      "time": 27.3,
      "duration": 0.075,
      "velocity": 0.64,
      "hand": "left"
    },
    {
      "midi": 58,
      "time": 27.3,
      "duration": 0.15,
      "velocity": 0.65,
      "hand": "left"
    },
    {
      "midi": 61,
      "time": 27.3,
      "duration": 0.15,
      "velocity": 0.69,
      "hand": "right"
    },
    {
      "midi": 63,
      "time": 27.3,
      "duration": 0.15,
      "velocity": 0.69,
      "hand": "right"
    },
    {
      "midi": 64,
      "time": 27.3,
      "duration": 0.15,
      "velocity": 0.64,
      "hand": "right"
    },
    {
      "midi": 68,
      "time": 27.3,
      "duration": 0.15,
      "velocity": 0.57,
      "hand": "right"
    },
    {
      "midi": 70,
      "time": 27.3,
      "duration": 0.075,
      "velocity": 0.7,
      "hand": "right"
    },
    {
      "midi": 35,
      "time": 27.6,
      "duration": 0.075,
      "velocity": 0.56,
      "hand": "left"
    },
    {
      "midi": 38,
      "time": 27.6,
      "duration": 0.6,
      "velocity": 0.87,
      "hand": "left"
    },
    {
      "midi": 42,
      "time": 27.6,
      "duration": 0.075,
      "velocity": 0.65,
      "hand": "left"
    },
    {
      "midi": 51,
      "time": 27.6,
      "duration": 0.075,
      "velocity": 0.57,
      "hand": "left"
    },
    {
      "midi": 57,
      "time": 27.6,
      "duration": 0.6,
      "velocity": 0.51,
      "hand": "left"
    },
    {
      "midi": 57,
      "time": 27.6,
      "duration": 2.25,
      "velocity": 0.5,
      "hand": "left"
    },
    {
      "midi": 57,
      "time": 27.6,
      "duration": 1.05,
      "velocity": 0.57,
      "hand": "left"
    },
    {
      "midi": 60,
      "time": 27.6,
      "duration": 0.45,
      "velocity": 0.52,
      "hand": "right"
    },
    {
      "midi": 60,
      "time": 27.6,
      "duration": 2.25,
      "velocity": 0.49,
      "hand": "right"
    },
    {
      "midi": 60,
      "time": 27.6,
      "duration": 1.05,
      "velocity": 0.54,
      "hand": "right"
    },
    {
      "midi": 62,
      "time": 27.6,
      "duration": 0.75,
      "velocity": 0.61,
      "hand": "right"
    },
    {
      "midi": 62,
      "time": 27.6,
      "duration": 3.3,
      "velocity": 0.49,
      "hand": "right"
    },
    {
      "midi": 62,
      "time": 27.6,
      "duration": 1.05,
      "velocity": 0.59,
      "hand": "right"
    },
    {
      "midi": 64,
      "time": 27.6,
      "duration": 0.6,
      "velocity": 0.5,
      "hand": "right"
    },
    {
      "midi": 65,
      "time": 27.6,
      "duration": 3.3,
      "velocity": 0.45,
      "hand": "right"
    },
    {
      "midi": 65,
      "time": 27.6,
      "duration": 1.05,
      "velocity": 0.57,
      "hand": "right"
    },
    {
      "midi": 67,
      "time": 27.6,
      "duration": 0.45,
      "velocity": 0.5,
      "hand": "right"
    },
    {
      "midi": 70,
      "time": 27.6,
      "duration": 0.075,
      "velocity": 0.72,
      "hand": "right"
    },
    {
      "midi": 38,
      "time": 27.9,
      "duration": 0.075,
      "velocity": 0.54,
      "hand": "left"
    },
    {
      "midi": 42,
      "time": 27.9,
      "duration": 0.075,
      "velocity": 0.58,
      "hand": "left"
    },
    {
      "midi": 51,
      "time": 27.9,
      "duration": 0.075,
      "velocity": 0.54,
      "hand": "left"
    },
    {
      "midi": 54,
      "time": 27.9,
      "duration": 0.075,
      "velocity": 0.56,
      "hand": "left"
    },
    {
      "midi": 57,
      "time": 27.9,
      "duration": 0.075,
      "velocity": 0.54,
      "hand": "left"
    },
    {
      "midi": 60,
      "time": 27.9,
      "duration": 0.075,
      "velocity": 0.61,
      "hand": "right"
    },
    {
      "midi": 64,
      "time": 27.9,
      "duration": 0.075,
      "velocity": 0.57,
      "hand": "right"
    },
    {
      "midi": 67,
      "time": 27.9,
      "duration": 0.075,
      "velocity": 0.5,
      "hand": "right"
    },
    {
      "midi": 33,
      "time": 28.2,
      "duration": 0.45,
      "velocity": 0.87,
      "hand": "left"
    },
    {
      "midi": 35,
      "time": 28.2,
      "duration": 0.075,
      "velocity": 0.61,
      "hand": "left"
    },
    {
      "midi": 42,
      "time": 28.2,
      "duration": 0.075,
      "velocity": 0.55,
      "hand": "left"
    },
    {
      "midi": 51,
      "time": 28.2,
      "duration": 0.075,
      "velocity": 0.61,
      "hand": "left"
    },
    {
      "midi": 57,
      "time": 28.2,
      "duration": 0.15,
      "velocity": 0.5,
      "hand": "left"
    },
    {
      "midi": 60,
      "time": 28.2,
      "duration": 0.15,
      "velocity": 0.51,
      "hand": "right"
    },
    {
      "midi": 64,
      "time": 28.2,
      "duration": 0.15,
      "velocity": 0.49,
      "hand": "right"
    },
    {
      "midi": 67,
      "time": 28.2,
      "duration": 0.15,
      "velocity": 0.39,
      "hand": "right"
    },
    {
      "midi": 38,
      "time": 28.5,
      "duration": 0.075,
      "velocity": 0.56,
      "hand": "left"
    },
    {
      "midi": 42,
      "time": 28.5,
      "duration": 0.075,
      "velocity": 0.55,
      "hand": "left"
    },
    {
      "midi": 51,
      "time": 28.5,
      "duration": 0.075,
      "velocity": 0.56,
      "hand": "left"
    },
    {
      "midi": 54,
      "time": 28.5,
      "duration": 0.075,
      "velocity": 0.58,
      "hand": "left"
    },
    {
      "midi": 57,
      "time": 28.5,
      "duration": 0.075,
      "velocity": 0.65,
      "hand": "left"
    },
    {
      "midi": 60,
      "time": 28.5,
      "duration": 0.075,
      "velocity": 0.72,
      "hand": "right"
    },
    {
      "midi": 64,
      "time": 28.5,
      "duration": 0.075,
      "velocity": 0.59,
      "hand": "right"
    },
    {
      "midi": 67,
      "time": 28.5,
      "duration": 0.15,
      "velocity": 0.55,
      "hand": "right"
    },
    {
      "midi": 69,
      "time": 28.5,
      "duration": 0.15,
      "velocity": 0.72,
      "hand": "right"
    },
    {
      "midi": 35,
      "time": 28.8,
      "duration": 0.075,
      "velocity": 0.7,
      "hand": "left"
    },
    {
      "midi": 38,
      "time": 28.8,
      "duration": 0.6,
      "velocity": 0.84,
      "hand": "left"
    },
    {
      "midi": 42,
      "time": 28.8,
      "duration": 0.075,
      "velocity": 0.54,
      "hand": "left"
    },
    {
      "midi": 51,
      "time": 28.8,
      "duration": 0.075,
      "velocity": 0.53,
      "hand": "left"
    },
    {
      "midi": 57,
      "time": 28.8,
      "duration": 0.15,
      "velocity": 0.51,
      "hand": "left"
    },
    {
      "midi": 57,
      "time": 28.8,
      "duration": 0.9,
      "velocity": 0.7,
      "hand": "left"
    },
    {
      "midi": 60,
      "time": 28.8,
      "duration": 0.075,
      "velocity": 0.54,
      "hand": "right"
    },
    {
      "midi": 60,
      "time": 28.8,
      "duration": 0.9,
      "velocity": 0.72,
      "hand": "right"
    },
    {
      "midi": 62,
      "time": 28.8,
      "duration": 1.05,
      "velocity": 0.68,
      "hand": "right"
    },
    {
      "midi": 64,
      "time": 28.8,
      "duration": 0.15,
      "velocity": 0.55,
      "hand": "right"
    },
    {
      "midi": 65,
      "time": 28.8,
      "duration": 1.05,
      "velocity": 0.58,
      "hand": "right"
    },
    {
      "midi": 67,
      "time": 28.8,
      "duration": 0.15,
      "velocity": 0.5,
      "hand": "right"
    },
    {
      "midi": 69,
      "time": 28.8,
      "duration": 0.15,
      "velocity": 0.59,
      "hand": "right"
    },
    {
      "midi": 57,
      "time": 28.95,
      "duration": 0.15,
      "velocity": 0.48,
      "hand": "left"
    },
    {
      "midi": 60,
      "time": 28.95,
      "duration": 0.075,
      "velocity": 0.53,
      "hand": "right"
    },
    {
      "midi": 64,
      "time": 28.95,
      "duration": 0.15,
      "velocity": 0.44,
      "hand": "right"
    },
    {
      "midi": 67,
      "time": 28.95,
      "duration": 0.075,
      "velocity": 0.31,
      "hand": "right"
    },
    {
      "midi": 38,
      "time": 29.1,
      "duration": 0.075,
      "velocity": 0.57,
      "hand": "left"
    },
    {
      "midi": 42,
      "time": 29.1,
      "duration": 0.075,
      "velocity": 0.61,
      "hand": "left"
    },
    {
      "midi": 51,
      "time": 29.1,
      "duration": 0.075,
      "velocity": 0.61,
      "hand": "left"
    },
    {
      "midi": 54,
      "time": 29.1,
      "duration": 0.075,
      "velocity": 0.57,
      "hand": "left"
    },
    {
      "midi": 57,
      "time": 29.1,
      "duration": 0.075,
      "velocity": 0.58,
      "hand": "left"
    },
    {
      "midi": 60,
      "time": 29.1,
      "duration": 0.075,
      "velocity": 0.72,
      "hand": "right"
    },
    {
      "midi": 64,
      "time": 29.1,
      "duration": 0.075,
      "velocity": 0.57,
      "hand": "right"
    },
    {
      "midi": 67,
      "time": 29.1,
      "duration": 0.075,
      "velocity": 0.52,
      "hand": "right"
    },
    {
      "midi": 69,
      "time": 29.1,
      "duration": 0.3,
      "velocity": 0.57,
      "hand": "right"
    },
    {
      "midi": 70,
      "time": 29.1,
      "duration": 0.075,
      "velocity": 0.7,
      "hand": "right"
    },
    {
      "midi": 33,
      "time": 29.4,
      "duration": 0.45,
      "velocity": 0.97,
      "hand": "left"
    },
    {
      "midi": 35,
      "time": 29.4,
      "duration": 0.075,
      "velocity": 0.73,
      "hand": "left"
    },
    {
      "midi": 42,
      "time": 29.4,
      "duration": 0.075,
      "velocity": 0.57,
      "hand": "left"
    },
    {
      "midi": 51,
      "time": 29.4,
      "duration": 0.075,
      "velocity": 0.53,
      "hand": "left"
    },
    {
      "midi": 57,
      "time": 29.4,
      "duration": 0.15,
      "velocity": 0.63,
      "hand": "left"
    },
    {
      "midi": 60,
      "time": 29.4,
      "duration": 0.15,
      "velocity": 0.68,
      "hand": "right"
    },
    {
      "midi": 64,
      "time": 29.4,
      "duration": 0.15,
      "velocity": 0.61,
      "hand": "right"
    },
    {
      "midi": 67,
      "time": 29.4,
      "duration": 0.15,
      "velocity": 0.51,
      "hand": "right"
    },
    {
      "midi": 70,
      "time": 29.4,
      "duration": 0.075,
      "velocity": 0.63,
      "hand": "right"
    },
    {
      "midi": 71,
      "time": 29.4,
      "duration": 0.3,
      "velocity": 0.57,
      "hand": "right"
    },
    {
      "midi": 38,
      "time": 29.7,
      "duration": 0.075,
      "velocity": 0.55,
      "hand": "left"
    },
    {
      "midi": 42,
      "time": 29.7,
      "duration": 0.075,
      "velocity": 0.56,
      "hand": "left"
    },
    {
      "midi": 51,
      "time": 29.7,
      "duration": 0.075,
      "velocity": 0.57,
      "hand": "left"
    },
    {
      "midi": 54,
      "time": 29.7,
      "duration": 0.075,
      "velocity": 0.5,
      "hand": "left"
    },
    {
      "midi": 57,
      "time": 29.7,
      "duration": 0.15,
      "velocity": 0.59,
      "hand": "left"
    },
    {
      "midi": 60,
      "time": 29.7,
      "duration": 0.075,
      "velocity": 0.68,
      "hand": "right"
    },
    {
      "midi": 64,
      "time": 29.7,
      "duration": 0.15,
      "velocity": 0.61,
      "hand": "right"
    },
    {
      "midi": 67,
      "time": 29.7,
      "duration": 0.15,
      "velocity": 0.56,
      "hand": "right"
    },
    {
      "midi": 69,
      "time": 29.7,
      "duration": 0.3,
      "velocity": 0.54,
      "hand": "right"
    },
    {
      "midi": 70,
      "time": 29.7,
      "duration": 0.075,
      "velocity": 0.56,
      "hand": "right"
    },
    {
      "midi": 35,
      "time": 30,
      "duration": 0.075,
      "velocity": 0.72,
      "hand": "left"
    },
    {
      "midi": 38,
      "time": 30,
      "duration": 0.6,
      "velocity": 0.98,
      "hand": "left"
    },
    {
      "midi": 42,
      "time": 30,
      "duration": 0.075,
      "velocity": 0.54,
      "hand": "left"
    },
    {
      "midi": 51,
      "time": 30,
      "duration": 0.075,
      "velocity": 0.46,
      "hand": "left"
    },
    {
      "midi": 53,
      "time": 30,
      "duration": 0.45,
      "velocity": 0.57,
      "hand": "left"
    },
    {
      "midi": 55,
      "time": 30,
      "duration": 0.75,
      "velocity": 0.55,
      "hand": "left"
    },
    {
      "midi": 55,
      "time": 30,
      "duration": 0.9,
      "velocity": 0.61,
      "hand": "left"
    },
    {
      "midi": 57,
      "time": 30,
      "duration": 0.45,
      "velocity": 0.56,
      "hand": "left"
    },
    {
      "midi": 59,
      "time": 30,
      "duration": 0.45,
      "velocity": 0.56,
      "hand": "left"
    },
    {
      "midi": 59,
      "time": 30,
      "duration": 0.75,
      "velocity": 0.53,
      "hand": "left"
    },
    {
      "midi": 59,
      "time": 30,
      "duration": 0.9,
      "velocity": 0.54,
      "hand": "left"
    },
    {
      "midi": 62,
      "time": 30,
      "duration": 1.05,
      "velocity": 0.59,
      "hand": "right"
    },
    {
      "midi": 64,
      "time": 30,
      "duration": 0.45,
      "velocity": 0.54,
      "hand": "right"
    },
    {
      "midi": 65,
      "time": 30,
      "duration": 0.9,
      "velocity": 0.55,
      "hand": "right"
    },
    {
      "midi": 67,
      "time": 30,
      "duration": 0.15,
      "velocity": 0.64,
      "hand": "right"
    },
    {
      "midi": 70,
      "time": 30,
      "duration": 0.075,
      "velocity": 0.73,
      "hand": "right"
    },
    {
      "midi": 38,
      "time": 30.3,
      "duration": 0.075,
      "velocity": 0.56,
      "hand": "left"
    },
    {
      "midi": 42,
      "time": 30.3,
      "duration": 0.075,
      "velocity": 0.46,
      "hand": "left"
    },
    {
      "midi": 51,
      "time": 30.3,
      "duration": 0.075,
      "velocity": 0.52,
      "hand": "left"
    },
    {
      "midi": 54,
      "time": 30.3,
      "duration": 0.075,
      "velocity": 0.56,
      "hand": "left"
    },
    {
      "midi": 59,
      "time": 30.3,
      "duration": 0.075,
      "velocity": 0.61,
      "hand": "left"
    },
    {
      "midi": 62,
      "time": 30.3,
      "duration": 0.075,
      "velocity": 0.68,
      "hand": "right"
    },
    {
      "midi": 64,
      "time": 30.3,
      "duration": 0.075,
      "velocity": 0.69,
      "hand": "right"
    },
    {
      "midi": 67,
      "time": 30.3,
      "duration": 0.3,
      "velocity": 0.52,
      "hand": "right"
    },
    {
      "midi": 69,
      "time": 30.3,
      "duration": 0.15,
      "velocity": 0.63,
      "hand": "right"
    },
    {
      "midi": 35,
      "time": 30.6,
      "duration": 0.075,
      "velocity": 0.7,
      "hand": "left"
    },
    {
      "midi": 38,
      "time": 30.6,
      "duration": 0.6,
      "velocity": 0.94,
      "hand": "left"
    },
    {
      "midi": 42,
      "time": 30.6,
      "duration": 0.075,
      "velocity": 0.5,
      "hand": "left"
    },
    {
      "midi": 51,
      "time": 30.6,
      "duration": 0.075,
      "velocity": 0.54,
      "hand": "left"
    },
    {
      "midi": 53,
      "time": 30.6,
      "duration": 0.15,
      "velocity": 0.63,
      "hand": "left"
    },
    {
      "midi": 57,
      "time": 30.6,
      "duration": 0.15,
      "velocity": 0.56,
      "hand": "left"
    },
    {
      "midi": 59,
      "time": 30.6,
      "duration": 0.15,
      "velocity": 0.57,
      "hand": "left"
    },
    {
      "midi": 64,
      "time": 30.6,
      "duration": 0.15,
      "velocity": 0.56,
      "hand": "right"
    },
    {
      "midi": 64,
      "time": 30.6,
      "duration": 0.3,
      "velocity": 0.63,
      "hand": "right"
    },
    {
      "midi": 38,
      "time": 30.9,
      "duration": 0.075,
      "velocity": 0.53,
      "hand": "left"
    },
    {
      "midi": 42,
      "time": 30.9,
      "duration": 0.075,
      "velocity": 0.54,
      "hand": "left"
    },
    {
      "midi": 51,
      "time": 30.9,
      "duration": 0.075,
      "velocity": 0.54,
      "hand": "left"
    },
    {
      "midi": 54,
      "time": 30.9,
      "duration": 0.075,
      "velocity": 0.57,
      "hand": "left"
    },
    {
      "midi": 59,
      "time": 30.9,
      "duration": 0.075,
      "velocity": 0.7,
      "hand": "left"
    },
    {
      "midi": 62,
      "time": 30.9,
      "duration": 0.075,
      "velocity": 0.72,
      "hand": "right"
    },
    {
      "midi": 64,
      "time": 30.9,
      "duration": 0.075,
      "velocity": 0.58,
      "hand": "right"
    },
    {
      "midi": 65,
      "time": 30.9,
      "duration": 0.075,
      "velocity": 0.35,
      "hand": "right"
    },
    {
      "midi": 67,
      "time": 30.9,
      "duration": 0.15,
      "velocity": 0.54,
      "hand": "right"
    },
    {
      "midi": 69,
      "time": 30.9,
      "duration": 0.15,
      "velocity": 0.68,
      "hand": "right"
    },
    {
      "midi": 35,
      "time": 31.2,
      "duration": 0.075,
      "velocity": 0.69,
      "hand": "left"
    },
    {
      "midi": 37,
      "time": 31.2,
      "duration": 0.45,
      "velocity": 0.94,
      "hand": "left"
    },
    {
      "midi": 42,
      "time": 31.2,
      "duration": 0.075,
      "velocity": 0.54,
      "hand": "left"
    },
    {
      "midi": 51,
      "time": 31.2,
      "duration": 0.075,
      "velocity": 0.51,
      "hand": "left"
    },
    {
      "midi": 56,
      "time": 31.2,
      "duration": 0.45,
      "velocity": 0.5,
      "hand": "left"
    },
    {
      "midi": 57,
      "time": 31.2,
      "duration": 0.15,
      "velocity": 0.57,
      "hand": "left"
    },
    {
      "midi": 57,
      "time": 31.2,
      "duration": 0.45,
      "velocity": 0.54,
      "hand": "left"
    },
    {
      "midi": 60,
      "time": 31.2,
      "duration": 0.15,
      "velocity": 0.58,
      "hand": "right"
    },
    {
      "midi": 60,
      "time": 31.2,
      "duration": 0.3,
      "velocity": 0.58,
      "hand": "right"
    },
    {
      "midi": 60,
      "time": 31.2,
      "duration": 0.45,
      "velocity": 0.57,
      "hand": "right"
    },
    {
      "midi": 62,
      "time": 31.2,
      "duration": 0.3,
      "velocity": 0.57,
      "hand": "right"
    },
    {
      "midi": 62,
      "time": 31.2,
      "duration": 0.45,
      "velocity": 0.45,
      "hand": "right"
    },
    {
      "midi": 64,
      "time": 31.2,
      "duration": 0.15,
      "velocity": 0.54,
      "hand": "right"
    },
    {
      "midi": 65,
      "time": 31.2,
      "duration": 0.15,
      "velocity": 0.65,
      "hand": "right"
    },
    {
      "midi": 65,
      "time": 31.2,
      "duration": 0.3,
      "velocity": 0.55,
      "hand": "right"
    },
    {
      "midi": 65,
      "time": 31.2,
      "duration": 0.45,
      "velocity": 0.51,
      "hand": "right"
    },
    {
      "midi": 67,
      "time": 31.2,
      "duration": 0.15,
      "velocity": 0.5,
      "hand": "right"
    },
    {
      "midi": 38,
      "time": 31.5,
      "duration": 0.075,
      "velocity": 0.54,
      "hand": "left"
    },
    {
      "midi": 42,
      "time": 31.5,
      "duration": 0.075,
      "velocity": 0.57,
      "hand": "left"
    },
    {
      "midi": 51,
      "time": 31.5,
      "duration": 0.075,
      "velocity": 0.55,
      "hand": "left"
    },
    {
      "midi": 54,
      "time": 31.5,
      "duration": 0.075,
      "velocity": 0.54,
      "hand": "left"
    },
    {
      "midi": 57,
      "time": 31.5,
      "duration": 0.15,
      "velocity": 0.54,
      "hand": "left"
    },
    {
      "midi": 57,
      "time": 31.5,
      "duration": 0.075,
      "velocity": 0.64,
      "hand": "left"
    },
    {
      "midi": 60,
      "time": 31.5,
      "duration": 0.15,
      "velocity": 0.53,
      "hand": "right"
    },
    {
      "midi": 60,
      "time": 31.5,
      "duration": 0.075,
      "velocity": 0.7,
      "hand": "right"
    },
    {
      "midi": 64,
      "time": 31.5,
      "duration": 0.15,
      "velocity": 0.52,
      "hand": "right"
    },
    {
      "midi": 64,
      "time": 31.5,
      "duration": 0.075,
      "velocity": 0.54,
      "hand": "right"
    },
    {
      "midi": 65,
      "time": 31.5,
      "duration": 0.075,
      "velocity": 0.51,
      "hand": "right"
    },
    {
      "midi": 65,
      "time": 31.5,
      "duration": 0.3,
      "velocity": 0.54,
      "hand": "right"
    },
    {
      "midi": 67,
      "time": 31.5,
      "duration": 0.15,
      "velocity": 0.39,
      "hand": "right"
    },
    {
      "midi": 67,
      "time": 31.5,
      "duration": 0.075,
      "velocity": 0.61,
      "hand": "right"
    },
    {
      "midi": 70,
      "time": 31.5,
      "duration": 0.075,
      "velocity": 0.72,
      "hand": "right"
    },
    {
      "midi": 35,
      "time": 31.8,
      "duration": 0.075,
      "velocity": 0.56,
      "hand": "left"
    },
    {
      "midi": 37,
      "time": 31.8,
      "duration": 0.6,
      "velocity": 0.98,
      "hand": "left"
    },
    {
      "midi": 42,
      "time": 31.8,
      "duration": 0.075,
      "velocity": 0.57,
      "hand": "left"
    },
    {
      "midi": 51,
      "time": 31.8,
      "duration": 0.075,
      "velocity": 0.5,
      "hand": "left"
    },
    {
      "midi": 55,
      "time": 31.8,
      "duration": 0.3,
      "velocity": 0.56,
      "hand": "left"
    },
    {
      "midi": 56,
      "time": 31.8,
      "duration": 0.15,
      "velocity": 0.55,
      "hand": "left"
    },
    {
      "midi": 56,
      "time": 31.8,
      "duration": 0.45,
      "velocity": 0.46,
      "hand": "left"
    },
    {
      "midi": 58,
      "time": 31.8,
      "duration": 0.075,
      "velocity": 0.44,
      "hand": "left"
    },
    {
      "midi": 59,
      "time": 31.8,
      "duration": 0.15,
      "velocity": 0.55,
      "hand": "left"
    },
    {
      "midi": 59,
      "time": 31.8,
      "duration": 0.3,
      "velocity": 0.52,
      "hand": "left"
    },
    {
      "midi": 62,
      "time": 31.8,
      "duration": 0.45,
      "velocity": 0.54,
      "hand": "right"
    },
    {
      "midi": 63,
      "time": 31.8,
      "duration": 0.15,
      "velocity": 0.51,
      "hand": "right"
    },
    {
      "midi": 63,
      "time": 31.8,
      "duration": 0.45,
      "velocity": 0.54,
      "hand": "right"
    },
    {
      "midi": 64,
      "time": 31.8,
      "duration": 0.3,
      "velocity": 0.61,
      "hand": "right"
    },
    {
      "midi": 65,
      "time": 31.8,
      "duration": 0.45,
      "velocity": 0.5,
      "hand": "right"
    },
    {
      "midi": 67,
      "time": 31.8,
      "duration": 0.15,
      "velocity": 0.37,
      "hand": "right"
    },
    {
      "midi": 67,
      "time": 31.8,
      "duration": 0.45,
      "velocity": 0.36,
      "hand": "right"
    },
    {
      "midi": 68,
      "time": 31.8,
      "duration": 0.15,
      "velocity": 0.37,
      "hand": "right"
    },
    {
      "midi": 70,
      "time": 31.8,
      "duration": 0.075,
      "velocity": 0.69,
      "hand": "right"
    },
    {
      "midi": 38,
      "time": 32.1,
      "duration": 0.075,
      "velocity": 0.55,
      "hand": "left"
    },
    {
      "midi": 42,
      "time": 32.1,
      "duration": 0.075,
      "velocity": 0.54,
      "hand": "left"
    },
    {
      "midi": 51,
      "time": 32.1,
      "duration": 0.075,
      "velocity": 0.54,
      "hand": "left"
    },
    {
      "midi": 54,
      "time": 32.1,
      "duration": 0.075,
      "velocity": 0.64,
      "hand": "left"
    },
    {
      "midi": 56,
      "time": 32.1,
      "duration": 0.15,
      "velocity": 0.53,
      "hand": "left"
    },
    {
      "midi": 59,
      "time": 32.1,
      "duration": 0.15,
      "velocity": 0.55,
      "hand": "left"
    },
    {
      "midi": 62,
      "time": 32.1,
      "duration": 0.3,
      "velocity": 0.57,
      "hand": "right"
    },
    {
      "midi": 63,
      "time": 32.1,
      "duration": 0.15,
      "velocity": 0.43,
      "hand": "right"
    },
    {
      "midi": 67,
      "time": 32.1,
      "duration": 0.15,
      "velocity": 0.49,
      "hand": "right"
    },
    {
      "midi": 70,
      "time": 32.1,
      "duration": 0.075,
      "velocity": 0.7,
      "hand": "right"
    },
    {
      "midi": 35,
      "time": 32.4,
      "duration": 0.075,
      "velocity": 0.56,
      "hand": "left"
    },
    {
      "midi": 36,
      "time": 32.4,
      "duration": 0.6,
      "velocity": 0.8,
      "hand": "left"
    },
    {
      "midi": 42,
      "time": 32.4,
      "duration": 0.075,
      "velocity": 0.65,
      "hand": "left"
    },
    {
      "midi": 51,
      "time": 32.4,
      "duration": 0.075,
      "velocity": 0.57,
      "hand": "left"
    },
    {
      "midi": 57,
      "time": 32.4,
      "duration": 0.6,
      "velocity": 0.53,
      "hand": "left"
    },
    {
      "midi": 57,
      "time": 32.4,
      "duration": 0.9,
      "velocity": 0.54,
      "hand": "left"
    },
    {
      "midi": 62,
      "time": 32.4,
      "duration": 0.6,
      "velocity": 0.55,
      "hand": "right"
    },
    {
      "midi": 62,
      "time": 32.4,
      "duration": 0.9,
      "velocity": 0.46,
      "hand": "right"
    },
    {
      "midi": 64,
      "time": 32.4,
      "duration": 0.75,
      "velocity": 0.72,
      "hand": "right"
    },
    {
      "midi": 67,
      "time": 32.4,
      "duration": 0.6,
      "velocity": 0.54,
      "hand": "right"
    },
    {
      "midi": 67,
      "time": 32.4,
      "duration": 0.9,
      "velocity": 0.5,
      "hand": "right"
    },
    {
      "midi": 70,
      "time": 32.4,
      "duration": 0.075,
      "velocity": 0.72,
      "hand": "right"
    },
    {
      "midi": 38,
      "time": 32.7,
      "duration": 0.075,
      "velocity": 0.54,
      "hand": "left"
    },
    {
      "midi": 42,
      "time": 32.7,
      "duration": 0.075,
      "velocity": 0.58,
      "hand": "left"
    },
    {
      "midi": 51,
      "time": 32.7,
      "duration": 0.075,
      "velocity": 0.54,
      "hand": "left"
    },
    {
      "midi": 54,
      "time": 32.7,
      "duration": 0.075,
      "velocity": 0.56,
      "hand": "left"
    },
    {
      "midi": 57,
      "time": 32.7,
      "duration": 0.075,
      "velocity": 0.57,
      "hand": "left"
    },
    {
      "midi": 62,
      "time": 32.7,
      "duration": 0.075,
      "velocity": 0.72,
      "hand": "right"
    },
    {
      "midi": 67,
      "time": 32.7,
      "duration": 0.15,
      "velocity": 0.56,
      "hand": "right"
    },
    {
      "midi": 31,
      "time": 33,
      "duration": 0.6,
      "velocity": 0.79,
      "hand": "left"
    },
    {
      "midi": 35,
      "time": 33,
      "duration": 0.075,
      "velocity": 0.61,
      "hand": "left"
    },
    {
      "midi": 42,
      "time": 33,
      "duration": 0.075,
      "velocity": 0.55,
      "hand": "left"
    },
    {
      "midi": 51,
      "time": 33,
      "duration": 0.075,
      "velocity": 0.61,
      "hand": "left"
    },
    {
      "midi": 57,
      "time": 33,
      "duration": 0.075,
      "velocity": 0.57,
      "hand": "left"
    },
    {
      "midi": 62,
      "time": 33,
      "duration": 0.075,
      "velocity": 0.61,
      "hand": "right"
    },
    {
      "midi": 67,
      "time": 33,
      "duration": 0.15,
      "velocity": 0.54,
      "hand": "right"
    },
    {
      "midi": 38,
      "time": 33.3,
      "duration": 0.075,
      "velocity": 0.56,
      "hand": "left"
    },
    {
      "midi": 42,
      "time": 33.3,
      "duration": 0.075,
      "velocity": 0.55,
      "hand": "left"
    },
    {
      "midi": 51,
      "time": 33.3,
      "duration": 0.075,
      "velocity": 0.56,
      "hand": "left"
    },
    {
      "midi": 54,
      "time": 33.3,
      "duration": 0.075,
      "velocity": 0.58,
      "hand": "left"
    },
    {
      "midi": 57,
      "time": 33.3,
      "duration": 0.075,
      "velocity": 0.57,
      "hand": "left"
    },
    {
      "midi": 62,
      "time": 33.3,
      "duration": 0.075,
      "velocity": 0.65,
      "hand": "right"
    },
    {
      "midi": 64,
      "time": 33.3,
      "duration": 0.3,
      "velocity": 0.72,
      "hand": "right"
    },
    {
      "midi": 67,
      "time": 33.3,
      "duration": 0.15,
      "velocity": 0.57,
      "hand": "right"
    },
    {
      "midi": 35,
      "time": 33.6,
      "duration": 0.075,
      "velocity": 0.7,
      "hand": "left"
    },
    {
      "midi": 36,
      "time": 33.6,
      "duration": 0.6,
      "velocity": 0.96,
      "hand": "left"
    },
    {
      "midi": 42,
      "time": 33.6,
      "duration": 0.075,
      "velocity": 0.54,
      "hand": "left"
    },
    {
      "midi": 51,
      "time": 33.6,
      "duration": 0.075,
      "velocity": 0.53,
      "hand": "left"
    },
    {
      "midi": 57,
      "time": 33.6,
      "duration": 0.6,
      "velocity": 0.43,
      "hand": "left"
    },
    {
      "midi": 57,
      "time": 33.6,
      "duration": 1.8,
      "velocity": 0.55,
      "hand": "left"
    },
    {
      "midi": 57,
      "time": 33.6,
      "duration": 2.1,
      "velocity": 0.69,
      "hand": "left"
    },
    {
      "midi": 57,
      "time": 33.6,
      "duration": 0.075,
      "velocity": 0.79,
      "hand": "left"
    },
    {
      "midi": 62,
      "time": 33.6,
      "duration": 0.6,
      "velocity": 0.48,
      "hand": "right"
    },
    {
      "midi": 62,
      "time": 33.6,
      "duration": 1.95,
      "velocity": 0.57,
      "hand": "right"
    },
    {
      "midi": 62,
      "time": 33.6,
      "duration": 2.1,
      "velocity": 0.72,
      "hand": "right"
    },
    {
      "midi": 67,
      "time": 33.6,
      "duration": 0.6,
      "velocity": 0.43,
      "hand": "right"
    },
    {
      "midi": 67,
      "time": 33.6,
      "duration": 0.15,
      "velocity": 0.79,
      "hand": "right"
    },
    {
      "midi": 67,
      "time": 33.6,
      "duration": 2.1,
      "velocity": 0.58,
      "hand": "right"
    },
    {
      "midi": 38,
      "time": 33.9,
      "duration": 0.075,
      "velocity": 0.57,
      "hand": "left"
    },
    {
      "midi": 42,
      "time": 33.9,
      "duration": 0.075,
      "velocity": 0.61,
      "hand": "left"
    },
    {
      "midi": 51,
      "time": 33.9,
      "duration": 0.075,
      "velocity": 0.61,
      "hand": "left"
    },
    {
      "midi": 54,
      "time": 33.9,
      "duration": 0.075,
      "velocity": 0.57,
      "hand": "left"
    },
    {
      "midi": 57,
      "time": 33.9,
      "duration": 0.15,
      "velocity": 0.64,
      "hand": "left"
    },
    {
      "midi": 62,
      "time": 33.9,
      "duration": 0.075,
      "velocity": 0.7,
      "hand": "right"
    },
    {
      "midi": 67,
      "time": 33.9,
      "duration": 0.15,
      "velocity": 0.54,
      "hand": "right"
    },
    {
      "midi": 67,
      "time": 33.9,
      "duration": 0.3,
      "velocity": 0.54,
      "hand": "right"
    },
    {
      "midi": 70,
      "time": 33.9,
      "duration": 0.075,
      "velocity": 0.7,
      "hand": "right"
    },
    {
      "midi": 31,
      "time": 34.2,
      "duration": 0.6,
      "velocity": 0.96,
      "hand": "left"
    },
    {
      "midi": 35,
      "time": 34.2,
      "duration": 0.075,
      "velocity": 0.73,
      "hand": "left"
    },
    {
      "midi": 42,
      "time": 34.2,
      "duration": 0.075,
      "velocity": 0.57,
      "hand": "left"
    },
    {
      "midi": 51,
      "time": 34.2,
      "duration": 0.075,
      "velocity": 0.53,
      "hand": "left"
    },
    {
      "midi": 57,
      "time": 34.2,
      "duration": 0.45,
      "velocity": 0.43,
      "hand": "left"
    },
    {
      "midi": 62,
      "time": 34.2,
      "duration": 0.45,
      "velocity": 0.49,
      "hand": "right"
    },
    {
      "midi": 64,
      "time": 34.2,
      "duration": 0.3,
      "velocity": 0.59,
      "hand": "right"
    },
    {
      "midi": 67,
      "time": 34.2,
      "duration": 0.45,
      "velocity": 0.49,
      "hand": "right"
    },
    {
      "midi": 70,
      "time": 34.2,
      "duration": 0.075,
      "velocity": 0.63,
      "hand": "right"
    },
    {
      "midi": 38,
      "time": 34.5,
      "duration": 0.075,
      "velocity": 0.55,
      "hand": "left"
    },
    {
      "midi": 42,
      "time": 34.5,
      "duration": 0.075,
      "velocity": 0.56,
      "hand": "left"
    },
    {
      "midi": 51,
      "time": 34.5,
      "duration": 0.075,
      "velocity": 0.57,
      "hand": "left"
    },
    {
      "midi": 54,
      "time": 34.5,
      "duration": 0.075,
      "velocity": 0.5,
      "hand": "left"
    },
    {
      "midi": 57,
      "time": 34.5,
      "duration": 0.075,
      "velocity": 0.64,
      "hand": "left"
    },
    {
      "midi": 62,
      "time": 34.5,
      "duration": 0.075,
      "velocity": 0.72,
      "hand": "right"
    },
    {
      "midi": 65,
      "time": 34.5,
      "duration": 0.3,
      "velocity": 0.61,
      "hand": "right"
    },
    {
      "midi": 67,
      "time": 34.5,
      "duration": 0.075,
      "velocity": 0.56,
      "hand": "right"
    },
    {
      "midi": 70,
      "time": 34.5,
      "duration": 0.075,
      "velocity": 0.56,
      "hand": "right"
    },
    {
      "midi": 35,
      "time": 34.8,
      "duration": 0.075,
      "velocity": 0.72,
      "hand": "left"
    },
    {
      "midi": 36,
      "time": 34.8,
      "duration": 0.6,
      "velocity": 0.96,
      "hand": "left"
    },
    {
      "midi": 42,
      "time": 34.8,
      "duration": 0.075,
      "velocity": 0.54,
      "hand": "left"
    },
    {
      "midi": 51,
      "time": 34.8,
      "duration": 0.075,
      "velocity": 0.46,
      "hand": "left"
    },
    {
      "midi": 57,
      "time": 34.8,
      "duration": 0.6,
      "velocity": 0.56,
      "hand": "left"
    },
    {
      "midi": 62,
      "time": 34.8,
      "duration": 0.6,
      "velocity": 0.59,
      "hand": "right"
    },
    {
      "midi": 67,
      "time": 34.8,
      "duration": 0.6,
      "velocity": 0.61,
      "hand": "right"
    },
    {
      "midi": 67,
      "time": 34.8,
      "duration": 0.3,
      "velocity": 0.54,
      "hand": "right"
    },
    {
      "midi": 70,
      "time": 34.8,
      "duration": 0.075,
      "velocity": 0.73,
      "hand": "right"
    },
    {
      "midi": 38,
      "time": 35.1,
      "duration": 0.075,
      "velocity": 0.56,
      "hand": "left"
    },
    {
      "midi": 42,
      "time": 35.1,
      "duration": 0.075,
      "velocity": 0.46,
      "hand": "left"
    },
    {
      "midi": 51,
      "time": 35.1,
      "duration": 0.075,
      "velocity": 0.52,
      "hand": "left"
    },
    {
      "midi": 54,
      "time": 35.1,
      "duration": 0.075,
      "velocity": 0.56,
      "hand": "left"
    },
    {
      "midi": 57,
      "time": 35.1,
      "duration": 0.15,
      "velocity": 0.72,
      "hand": "left"
    },
    {
      "midi": 62,
      "time": 35.1,
      "duration": 0.075,
      "velocity": 0.72,
      "hand": "right"
    },
    {
      "midi": 67,
      "time": 35.1,
      "duration": 0.075,
      "velocity": 0.57,
      "hand": "right"
    },
    {
      "midi": 67,
      "time": 35.1,
      "duration": 0.15,
      "velocity": 0.72,
      "hand": "right"
    },
    {
      "midi": 31,
      "time": 35.4,
      "duration": 0.6,
      "velocity": 0.96,
      "hand": "left"
    },
    {
      "midi": 35,
      "time": 35.4,
      "duration": 0.075,
      "velocity": 0.7,
      "hand": "left"
    },
    {
      "midi": 42,
      "time": 35.4,
      "duration": 0.075,
      "velocity": 0.5,
      "hand": "left"
    },
    {
      "midi": 51,
      "time": 35.4,
      "duration": 0.075,
      "velocity": 0.54,
      "hand": "left"
    },
    {
      "midi": 57,
      "time": 35.4,
      "duration": 0.15,
      "velocity": 0.5,
      "hand": "left"
    },
    {
      "midi": 62,
      "time": 35.4,
      "duration": 0.15,
      "velocity": 0.52,
      "hand": "right"
    },
    {
      "midi": 67,
      "time": 35.4,
      "duration": 0.15,
      "velocity": 0.5,
      "hand": "right"
    },
    {
      "midi": 38,
      "time": 35.7,
      "duration": 0.075,
      "velocity": 0.53,
      "hand": "left"
    },
    {
      "midi": 42,
      "time": 35.7,
      "duration": 0.075,
      "velocity": 0.54,
      "hand": "left"
    },
    {
      "midi": 51,
      "time": 35.7,
      "duration": 0.075,
      "velocity": 0.54,
      "hand": "left"
    },
    {
      "midi": 54,
      "time": 35.7,
      "duration": 0.075,
      "velocity": 0.57,
      "hand": "left"
    },
    {
      "midi": 57,
      "time": 35.7,
      "duration": 0.15,
      "velocity": 0.51,
      "hand": "left"
    },
    {
      "midi": 62,
      "time": 35.7,
      "duration": 0.075,
      "velocity": 0.57,
      "hand": "right"
    },
    {
      "midi": 67,
      "time": 35.7,
      "duration": 0.15,
      "velocity": 0.51,
      "hand": "right"
    },
    {
      "midi": 35,
      "time": 36,
      "duration": 0.075,
      "velocity": 0.69,
      "hand": "left"
    },
    {
      "midi": 40,
      "time": 36,
      "duration": 0.6,
      "velocity": 0.96,
      "hand": "left"
    },
    {
      "midi": 42,
      "time": 36,
      "duration": 0.075,
      "velocity": 0.54,
      "hand": "left"
    },
    {
      "midi": 51,
      "time": 36,
      "duration": 0.075,
      "velocity": 0.51,
      "hand": "left"
    },
    {
      "midi": 59,
      "time": 36,
      "duration": 0.15,
      "velocity": 0.61,
      "hand": "left"
    },
    {
      "midi": 59,
      "time": 36,
      "duration": 0.3,
      "velocity": 0.57,
      "hand": "left"
    },
    {
      "midi": 62,
      "time": 36,
      "duration": 0.15,
      "velocity": 0.57,
      "hand": "right"
    },
    {
      "midi": 62,
      "time": 36,
      "duration": 0.3,
      "velocity": 0.57,
      "hand": "right"
    },
    {
      "midi": 64,
      "time": 36,
      "duration": 0.15,
      "velocity": 0.63,
      "hand": "right"
    },
    {
      "midi": 64,
      "time": 36,
      "duration": 0.3,
      "velocity": 0.59,
      "hand": "right"
    },
    {
      "midi": 67,
      "time": 36,
      "duration": 0.15,
      "velocity": 0.54,
      "hand": "right"
    },
    {
      "midi": 67,
      "time": 36,
      "duration": 0.3,
      "velocity": 0.54,
      "hand": "right"
    },
    {
      "midi": 69,
      "time": 36,
      "duration": 0.3,
      "velocity": 0.72,
      "hand": "right"
    },
    {
      "midi": 38,
      "time": 36.3,
      "duration": 0.075,
      "velocity": 0.54,
      "hand": "left"
    },
    {
      "midi": 42,
      "time": 36.3,
      "duration": 0.075,
      "velocity": 0.57,
      "hand": "left"
    },
    {
      "midi": 51,
      "time": 36.3,
      "duration": 0.075,
      "velocity": 0.55,
      "hand": "left"
    },
    {
      "midi": 54,
      "time": 36.3,
      "duration": 0.075,
      "velocity": 0.54,
      "hand": "left"
    },
    {
      "midi": 59,
      "time": 36.3,
      "duration": 0.15,
      "velocity": 0.59,
      "hand": "left"
    },
    {
      "midi": 62,
      "time": 36.3,
      "duration": 0.15,
      "velocity": 0.57,
      "hand": "right"
    },
    {
      "midi": 62,
      "time": 36.3,
      "duration": 0.075,
      "velocity": 0.57,
      "hand": "right"
    },
    {
      "midi": 64,
      "time": 36.3,
      "duration": 0.15,
      "velocity": 0.61,
      "hand": "right"
    },
    {
      "midi": 67,
      "time": 36.3,
      "duration": 0.15,
      "velocity": 0.57,
      "hand": "right"
    },
    {
      "midi": 67,
      "time": 36.3,
      "duration": 0.3,
      "velocity": 0.65,
      "hand": "right"
    },
    {
      "midi": 70,
      "time": 36.3,
      "duration": 0.075,
      "velocity": 0.72,
      "hand": "right"
    },
    {
      "midi": 35,
      "time": 36.6,
      "duration": 0.075,
      "velocity": 0.56,
      "hand": "left"
    },
    {
      "midi": 39,
      "time": 36.6,
      "duration": 0.45,
      "velocity": 0.96,
      "hand": "left"
    },
    {
      "midi": 42,
      "time": 36.6,
      "duration": 0.075,
      "velocity": 0.57,
      "hand": "left"
    },
    {
      "midi": 51,
      "time": 36.6,
      "duration": 0.075,
      "velocity": 0.5,
      "hand": "left"
    },
    {
      "midi": 58,
      "time": 36.6,
      "duration": 0.3,
      "velocity": 0.72,
      "hand": "left"
    },
    {
      "midi": 58,
      "time": 36.6,
      "duration": 0.15,
      "velocity": 0.61,
      "hand": "left"
    },
    {
      "midi": 58,
      "time": 36.6,
      "duration": 0.45,
      "velocity": 0.57,
      "hand": "left"
    },
    {
      "midi": 61,
      "time": 36.6,
      "duration": 0.3,
      "velocity": 0.61,
      "hand": "right"
    },
    {
      "midi": 61,
      "time": 36.6,
      "duration": 0.15,
      "velocity": 0.56,
      "hand": "right"
    },
    {
      "midi": 61,
      "time": 36.6,
      "duration": 0.45,
      "velocity": 0.58,
      "hand": "right"
    },
    {
      "midi": 63,
      "time": 36.6,
      "duration": 0.3,
      "velocity": 0.58,
      "hand": "right"
    },
    {
      "midi": 63,
      "time": 36.6,
      "duration": 0.15,
      "velocity": 0.57,
      "hand": "right"
    },
    {
      "midi": 63,
      "time": 36.6,
      "duration": 0.45,
      "velocity": 0.58,
      "hand": "right"
    },
    {
      "midi": 65,
      "time": 36.6,
      "duration": 0.3,
      "velocity": 0.58,
      "hand": "right"
    },
    {
      "midi": 66,
      "time": 36.6,
      "duration": 0.45,
      "velocity": 0.56,
      "hand": "right"
    },
    {
      "midi": 68,
      "time": 36.6,
      "duration": 0.3,
      "velocity": 0.61,
      "hand": "right"
    },
    {
      "midi": 68,
      "time": 36.6,
      "duration": 0.15,
      "velocity": 0.54,
      "hand": "right"
    },
    {
      "midi": 68,
      "time": 36.6,
      "duration": 0.45,
      "velocity": 0.54,
      "hand": "right"
    },
    {
      "midi": 70,
      "time": 36.6,
      "duration": 0.075,
      "velocity": 0.69,
      "hand": "right"
    },
    {
      "midi": 38,
      "time": 36.9,
      "duration": 0.075,
      "velocity": 0.55,
      "hand": "left"
    },
    {
      "midi": 42,
      "time": 36.9,
      "duration": 0.075,
      "velocity": 0.54,
      "hand": "left"
    },
    {
      "midi": 51,
      "time": 36.9,
      "duration": 0.075,
      "velocity": 0.54,
      "hand": "left"
    },
    {
      "midi": 54,
      "time": 36.9,
      "duration": 0.075,
      "velocity": 0.64,
      "hand": "left"
    },
    {
      "midi": 58,
      "time": 36.9,
      "duration": 0.15,
      "velocity": 0.65,
      "hand": "left"
    },
    {
      "midi": 61,
      "time": 36.9,
      "duration": 0.15,
      "velocity": 0.69,
      "hand": "right"
    },
    {
      "midi": 63,
      "time": 36.9,
      "duration": 0.15,
      "velocity": 0.69,
      "hand": "right"
    },
    {
      "midi": 64,
      "time": 36.9,
      "duration": 0.15,
      "velocity": 0.64,
      "hand": "right"
    },
    {
      "midi": 68,
      "time": 36.9,
      "duration": 0.15,
      "velocity": 0.57,
      "hand": "right"
    },
    {
      "midi": 70,
      "time": 36.9,
      "duration": 0.075,
      "velocity": 0.7,
      "hand": "right"
    },
    {
      "midi": 35,
      "time": 37.2,
      "duration": 0.075,
      "velocity": 0.56,
      "hand": "left"
    },
    {
      "midi": 38,
      "time": 37.2,
      "duration": 0.6,
      "velocity": 0.87,
      "hand": "left"
    },
    {
      "midi": 42,
      "time": 37.2,
      "duration": 0.075,
      "velocity": 0.65,
      "hand": "left"
    },
    {
      "midi": 51,
      "time": 37.2,
      "duration": 0.075,
      "velocity": 0.57,
      "hand": "left"
    },
    {
      "midi": 57,
      "time": 37.2,
      "duration": 0.6,
      "velocity": 0.51,
      "hand": "left"
    },
    {
      "midi": 57,
      "time": 37.2,
      "duration": 2.25,
      "velocity": 0.5,
      "hand": "left"
    },
    {
      "midi": 57,
      "time": 37.2,
      "duration": 1.05,
      "velocity": 0.64,
      "hand": "left"
    },
    {
      "midi": 60,
      "time": 37.2,
      "duration": 0.45,
      "velocity": 0.52,
      "hand": "right"
    },
    {
      "midi": 60,
      "time": 37.2,
      "duration": 2.25,
      "velocity": 0.49,
      "hand": "right"
    },
    {
      "midi": 60,
      "time": 37.2,
      "duration": 1.05,
      "velocity": 0.61,
      "hand": "right"
    },
    {
      "midi": 62,
      "time": 37.2,
      "duration": 0.75,
      "velocity": 0.61,
      "hand": "right"
    },
    {
      "midi": 62,
      "time": 37.2,
      "duration": 3.3,
      "velocity": 0.49,
      "hand": "right"
    },
    {
      "midi": 62,
      "time": 37.2,
      "duration": 1.05,
      "velocity": 0.57,
      "hand": "right"
    },
    {
      "midi": 64,
      "time": 37.2,
      "duration": 0.6,
      "velocity": 0.5,
      "hand": "right"
    },
    {
      "midi": 65,
      "time": 37.2,
      "duration": 3.3,
      "velocity": 0.45,
      "hand": "right"
    },
    {
      "midi": 65,
      "time": 37.2,
      "duration": 1.05,
      "velocity": 0.58,
      "hand": "right"
    },
    {
      "midi": 67,
      "time": 37.2,
      "duration": 0.45,
      "velocity": 0.5,
      "hand": "right"
    },
    {
      "midi": 70,
      "time": 37.2,
      "duration": 0.075,
      "velocity": 0.72,
      "hand": "right"
    },
    {
      "midi": 38,
      "time": 37.5,
      "duration": 0.075,
      "velocity": 0.54,
      "hand": "left"
    },
    {
      "midi": 42,
      "time": 37.5,
      "duration": 0.075,
      "velocity": 0.58,
      "hand": "left"
    },
    {
      "midi": 51,
      "time": 37.5,
      "duration": 0.075,
      "velocity": 0.54,
      "hand": "left"
    },
    {
      "midi": 54,
      "time": 37.5,
      "duration": 0.075,
      "velocity": 0.56,
      "hand": "left"
    },
    {
      "midi": 57,
      "time": 37.5,
      "duration": 0.075,
      "velocity": 0.54,
      "hand": "left"
    },
    {
      "midi": 60,
      "time": 37.5,
      "duration": 0.075,
      "velocity": 0.61,
      "hand": "right"
    },
    {
      "midi": 64,
      "time": 37.5,
      "duration": 0.075,
      "velocity": 0.57,
      "hand": "right"
    },
    {
      "midi": 67,
      "time": 37.5,
      "duration": 0.075,
      "velocity": 0.5,
      "hand": "right"
    },
    {
      "midi": 33,
      "time": 37.8,
      "duration": 0.45,
      "velocity": 0.87,
      "hand": "left"
    },
    {
      "midi": 35,
      "time": 37.8,
      "duration": 0.075,
      "velocity": 0.61,
      "hand": "left"
    },
    {
      "midi": 42,
      "time": 37.8,
      "duration": 0.075,
      "velocity": 0.55,
      "hand": "left"
    },
    {
      "midi": 51,
      "time": 37.8,
      "duration": 0.075,
      "velocity": 0.61,
      "hand": "left"
    },
    {
      "midi": 57,
      "time": 37.8,
      "duration": 0.15,
      "velocity": 0.5,
      "hand": "left"
    },
    {
      "midi": 60,
      "time": 37.8,
      "duration": 0.15,
      "velocity": 0.51,
      "hand": "right"
    },
    {
      "midi": 64,
      "time": 37.8,
      "duration": 0.15,
      "velocity": 0.49,
      "hand": "right"
    },
    {
      "midi": 67,
      "time": 37.8,
      "duration": 0.15,
      "velocity": 0.39,
      "hand": "right"
    },
    {
      "midi": 38,
      "time": 38.1,
      "duration": 0.075,
      "velocity": 0.56,
      "hand": "left"
    },
    {
      "midi": 42,
      "time": 38.1,
      "duration": 0.075,
      "velocity": 0.55,
      "hand": "left"
    },
    {
      "midi": 51,
      "time": 38.1,
      "duration": 0.075,
      "velocity": 0.56,
      "hand": "left"
    },
    {
      "midi": 54,
      "time": 38.1,
      "duration": 0.075,
      "velocity": 0.58,
      "hand": "left"
    },
    {
      "midi": 57,
      "time": 38.1,
      "duration": 0.075,
      "velocity": 0.65,
      "hand": "left"
    },
    {
      "midi": 60,
      "time": 38.1,
      "duration": 0.075,
      "velocity": 0.72,
      "hand": "right"
    },
    {
      "midi": 64,
      "time": 38.1,
      "duration": 0.075,
      "velocity": 0.59,
      "hand": "right"
    },
    {
      "midi": 67,
      "time": 38.1,
      "duration": 0.15,
      "velocity": 0.55,
      "hand": "right"
    },
    {
      "midi": 69,
      "time": 38.1,
      "duration": 0.15,
      "velocity": 0.72,
      "hand": "right"
    },
    {
      "midi": 35,
      "time": 38.4,
      "duration": 0.075,
      "velocity": 0.7,
      "hand": "left"
    },
    {
      "midi": 38,
      "time": 38.4,
      "duration": 0.6,
      "velocity": 0.84,
      "hand": "left"
    },
    {
      "midi": 42,
      "time": 38.4,
      "duration": 0.075,
      "velocity": 0.54,
      "hand": "left"
    },
    {
      "midi": 51,
      "time": 38.4,
      "duration": 0.075,
      "velocity": 0.53,
      "hand": "left"
    },
    {
      "midi": 57,
      "time": 38.4,
      "duration": 0.15,
      "velocity": 0.51,
      "hand": "left"
    },
    {
      "midi": 57,
      "time": 38.4,
      "duration": 1.05,
      "velocity": 0.73,
      "hand": "left"
    },
    {
      "midi": 60,
      "time": 38.4,
      "duration": 0.075,
      "velocity": 0.54,
      "hand": "right"
    },
    {
      "midi": 60,
      "time": 38.4,
      "duration": 0.9,
      "velocity": 0.73,
      "hand": "right"
    },
    {
      "midi": 62,
      "time": 38.4,
      "duration": 1.05,
      "velocity": 0.69,
      "hand": "right"
    },
    {
      "midi": 64,
      "time": 38.4,
      "duration": 0.15,
      "velocity": 0.55,
      "hand": "right"
    },
    {
      "midi": 65,
      "time": 38.4,
      "duration": 1.05,
      "velocity": 0.61,
      "hand": "right"
    },
    {
      "midi": 67,
      "time": 38.4,
      "duration": 0.15,
      "velocity": 0.5,
      "hand": "right"
    },
    {
      "midi": 69,
      "time": 38.4,
      "duration": 0.15,
      "velocity": 0.59,
      "hand": "right"
    },
    {
      "midi": 57,
      "time": 38.55,
      "duration": 0.15,
      "velocity": 0.48,
      "hand": "left"
    },
    {
      "midi": 60,
      "time": 38.55,
      "duration": 0.075,
      "velocity": 0.53,
      "hand": "right"
    },
    {
      "midi": 64,
      "time": 38.55,
      "duration": 0.15,
      "velocity": 0.44,
      "hand": "right"
    },
    {
      "midi": 67,
      "time": 38.55,
      "duration": 0.075,
      "velocity": 0.31,
      "hand": "right"
    },
    {
      "midi": 38,
      "time": 38.7,
      "duration": 0.075,
      "velocity": 0.57,
      "hand": "left"
    },
    {
      "midi": 42,
      "time": 38.7,
      "duration": 0.075,
      "velocity": 0.61,
      "hand": "left"
    },
    {
      "midi": 51,
      "time": 38.7,
      "duration": 0.075,
      "velocity": 0.61,
      "hand": "left"
    },
    {
      "midi": 54,
      "time": 38.7,
      "duration": 0.075,
      "velocity": 0.57,
      "hand": "left"
    },
    {
      "midi": 57,
      "time": 38.7,
      "duration": 0.075,
      "velocity": 0.58,
      "hand": "left"
    },
    {
      "midi": 60,
      "time": 38.7,
      "duration": 0.075,
      "velocity": 0.72,
      "hand": "right"
    },
    {
      "midi": 64,
      "time": 38.7,
      "duration": 0.075,
      "velocity": 0.57,
      "hand": "right"
    },
    {
      "midi": 67,
      "time": 38.7,
      "duration": 0.075,
      "velocity": 0.52,
      "hand": "right"
    },
    {
      "midi": 69,
      "time": 38.7,
      "duration": 0.3,
      "velocity": 0.57,
      "hand": "right"
    },
    {
      "midi": 70,
      "time": 38.7,
      "duration": 0.075,
      "velocity": 0.7,
      "hand": "right"
    },
    {
      "midi": 33,
      "time": 39,
      "duration": 0.45,
      "velocity": 0.97,
      "hand": "left"
    },
    {
      "midi": 35,
      "time": 39,
      "duration": 0.075,
      "velocity": 0.73,
      "hand": "left"
    },
    {
      "midi": 42,
      "time": 39,
      "duration": 0.075,
      "velocity": 0.57,
      "hand": "left"
    },
    {
      "midi": 51,
      "time": 39,
      "duration": 0.075,
      "velocity": 0.53,
      "hand": "left"
    },
    {
      "midi": 57,
      "time": 39,
      "duration": 0.15,
      "velocity": 0.63,
      "hand": "left"
    },
    {
      "midi": 60,
      "time": 39,
      "duration": 0.15,
      "velocity": 0.68,
      "hand": "right"
    },
    {
      "midi": 64,
      "time": 39,
      "duration": 0.15,
      "velocity": 0.61,
      "hand": "right"
    },
    {
      "midi": 67,
      "time": 39,
      "duration": 0.15,
      "velocity": 0.51,
      "hand": "right"
    },
    {
      "midi": 70,
      "time": 39,
      "duration": 0.075,
      "velocity": 0.63,
      "hand": "right"
    },
    {
      "midi": 71,
      "time": 39,
      "duration": 0.3,
      "velocity": 0.57,
      "hand": "right"
    },
    {
      "midi": 38,
      "time": 39.3,
      "duration": 0.075,
      "velocity": 0.55,
      "hand": "left"
    },
    {
      "midi": 42,
      "time": 39.3,
      "duration": 0.075,
      "velocity": 0.56,
      "hand": "left"
    },
    {
      "midi": 51,
      "time": 39.3,
      "duration": 0.075,
      "velocity": 0.57,
      "hand": "left"
    },
    {
      "midi": 54,
      "time": 39.3,
      "duration": 0.075,
      "velocity": 0.5,
      "hand": "left"
    },
    {
      "midi": 57,
      "time": 39.3,
      "duration": 0.15,
      "velocity": 0.59,
      "hand": "left"
    },
    {
      "midi": 60,
      "time": 39.3,
      "duration": 0.075,
      "velocity": 0.68,
      "hand": "right"
    },
    {
      "midi": 64,
      "time": 39.3,
      "duration": 0.15,
      "velocity": 0.61,
      "hand": "right"
    },
    {
      "midi": 67,
      "time": 39.3,
      "duration": 0.15,
      "velocity": 0.56,
      "hand": "right"
    },
    {
      "midi": 69,
      "time": 39.3,
      "duration": 0.3,
      "velocity": 0.54,
      "hand": "right"
    },
    {
      "midi": 70,
      "time": 39.3,
      "duration": 0.075,
      "velocity": 0.56,
      "hand": "right"
    },
    {
      "midi": 35,
      "time": 39.6,
      "duration": 0.075,
      "velocity": 0.72,
      "hand": "left"
    },
    {
      "midi": 38,
      "time": 39.6,
      "duration": 0.6,
      "velocity": 0.98,
      "hand": "left"
    },
    {
      "midi": 42,
      "time": 39.6,
      "duration": 0.075,
      "velocity": 0.54,
      "hand": "left"
    },
    {
      "midi": 51,
      "time": 39.6,
      "duration": 0.075,
      "velocity": 0.46,
      "hand": "left"
    },
    {
      "midi": 53,
      "time": 39.6,
      "duration": 0.45,
      "velocity": 0.57,
      "hand": "left"
    },
    {
      "midi": 55,
      "time": 39.6,
      "duration": 0.75,
      "velocity": 0.55,
      "hand": "left"
    },
    {
      "midi": 55,
      "time": 39.6,
      "duration": 0.6,
      "velocity": 0.65,
      "hand": "left"
    },
    {
      "midi": 57,
      "time": 39.6,
      "duration": 0.45,
      "velocity": 0.56,
      "hand": "left"
    },
    {
      "midi": 59,
      "time": 39.6,
      "duration": 0.45,
      "velocity": 0.56,
      "hand": "left"
    },
    {
      "midi": 59,
      "time": 39.6,
      "duration": 0.75,
      "velocity": 0.53,
      "hand": "left"
    },
    {
      "midi": 59,
      "time": 39.6,
      "duration": 0.6,
      "velocity": 0.68,
      "hand": "left"
    },
    {
      "midi": 62,
      "time": 39.6,
      "duration": 0.75,
      "velocity": 0.58,
      "hand": "right"
    },
    {
      "midi": 64,
      "time": 39.6,
      "duration": 0.45,
      "velocity": 0.54,
      "hand": "right"
    },
    {
      "midi": 65,
      "time": 39.6,
      "duration": 0.75,
      "velocity": 0.56,
      "hand": "right"
    },
    {
      "midi": 67,
      "time": 39.6,
      "duration": 0.15,
      "velocity": 0.64,
      "hand": "right"
    },
    {
      "midi": 70,
      "time": 39.6,
      "duration": 0.075,
      "velocity": 0.73,
      "hand": "right"
    },
    {
      "midi": 38,
      "time": 39.9,
      "duration": 0.075,
      "velocity": 0.56,
      "hand": "left"
    },
    {
      "midi": 42,
      "time": 39.9,
      "duration": 0.075,
      "velocity": 0.46,
      "hand": "left"
    },
    {
      "midi": 51,
      "time": 39.9,
      "duration": 0.075,
      "velocity": 0.52,
      "hand": "left"
    },
    {
      "midi": 54,
      "time": 39.9,
      "duration": 0.075,
      "velocity": 0.56,
      "hand": "left"
    },
    {
      "midi": 59,
      "time": 39.9,
      "duration": 0.075,
      "velocity": 0.61,
      "hand": "left"
    },
    {
      "midi": 62,
      "time": 39.9,
      "duration": 0.075,
      "velocity": 0.68,
      "hand": "right"
    },
    {
      "midi": 64,
      "time": 39.9,
      "duration": 0.075,
      "velocity": 0.69,
      "hand": "right"
    },
    {
      "midi": 67,
      "time": 39.9,
      "duration": 0.3,
      "velocity": 0.52,
      "hand": "right"
    },
    {
      "midi": 69,
      "time": 39.9,
      "duration": 0.15,
      "velocity": 0.63,
      "hand": "right"
    },
    {
      "midi": 35,
      "time": 40.2,
      "duration": 0.075,
      "velocity": 0.7,
      "hand": "left"
    },
    {
      "midi": 38,
      "time": 40.2,
      "duration": 0.6,
      "velocity": 0.94,
      "hand": "left"
    },
    {
      "midi": 42,
      "time": 40.2,
      "duration": 0.075,
      "velocity": 0.5,
      "hand": "left"
    },
    {
      "midi": 51,
      "time": 40.2,
      "duration": 0.075,
      "velocity": 0.54,
      "hand": "left"
    },
    {
      "midi": 53,
      "time": 40.2,
      "duration": 0.15,
      "velocity": 0.63,
      "hand": "left"
    },
    {
      "midi": 57,
      "time": 40.2,
      "duration": 0.15,
      "velocity": 0.56,
      "hand": "left"
    },
    {
      "midi": 59,
      "time": 40.2,
      "duration": 0.15,
      "velocity": 0.57,
      "hand": "left"
    },
    {
      "midi": 64,
      "time": 40.2,
      "duration": 0.15,
      "velocity": 0.56,
      "hand": "right"
    },
    {
      "midi": 64,
      "time": 40.2,
      "duration": 0.3,
      "velocity": 0.63,
      "hand": "right"
    },
    {
      "midi": 38,
      "time": 40.5,
      "duration": 0.075,
      "velocity": 0.53,
      "hand": "left"
    },
    {
      "midi": 42,
      "time": 40.5,
      "duration": 0.075,
      "velocity": 0.54,
      "hand": "left"
    },
    {
      "midi": 51,
      "time": 40.5,
      "duration": 0.075,
      "velocity": 0.54,
      "hand": "left"
    },
    {
      "midi": 54,
      "time": 40.5,
      "duration": 0.075,
      "velocity": 0.57,
      "hand": "left"
    },
    {
      "midi": 59,
      "time": 40.5,
      "duration": 0.075,
      "velocity": 0.7,
      "hand": "left"
    },
    {
      "midi": 62,
      "time": 40.5,
      "duration": 0.075,
      "velocity": 0.72,
      "hand": "right"
    },
    {
      "midi": 64,
      "time": 40.5,
      "duration": 0.075,
      "velocity": 0.58,
      "hand": "right"
    },
    {
      "midi": 65,
      "time": 40.5,
      "duration": 0.075,
      "velocity": 0.35,
      "hand": "right"
    },
    {
      "midi": 67,
      "time": 40.5,
      "duration": 0.15,
      "velocity": 0.54,
      "hand": "right"
    },
    {
      "midi": 69,
      "time": 40.5,
      "duration": 0.15,
      "velocity": 0.68,
      "hand": "right"
    },
    {
      "midi": 35,
      "time": 40.8,
      "duration": 0.075,
      "velocity": 0.69,
      "hand": "left"
    },
    {
      "midi": 37,
      "time": 40.8,
      "duration": 0.45,
      "velocity": 0.94,
      "hand": "left"
    },
    {
      "midi": 42,
      "time": 40.8,
      "duration": 0.075,
      "velocity": 0.54,
      "hand": "left"
    },
    {
      "midi": 51,
      "time": 40.8,
      "duration": 0.075,
      "velocity": 0.51,
      "hand": "left"
    },
    {
      "midi": 56,
      "time": 40.8,
      "duration": 0.45,
      "velocity": 0.57,
      "hand": "left"
    },
    {
      "midi": 57,
      "time": 40.8,
      "duration": 0.15,
      "velocity": 0.57,
      "hand": "left"
    },
    {
      "midi": 57,
      "time": 40.8,
      "duration": 0.45,
      "velocity": 0.54,
      "hand": "left"
    },
    {
      "midi": 60,
      "time": 40.8,
      "duration": 0.15,
      "velocity": 0.58,
      "hand": "right"
    },
    {
      "midi": 60,
      "time": 40.8,
      "duration": 0.3,
      "velocity": 0.58,
      "hand": "right"
    },
    {
      "midi": 60,
      "time": 40.8,
      "duration": 0.45,
      "velocity": 0.56,
      "hand": "right"
    },
    {
      "midi": 62,
      "time": 40.8,
      "duration": 0.3,
      "velocity": 0.57,
      "hand": "right"
    },
    {
      "midi": 62,
      "time": 40.8,
      "duration": 0.45,
      "velocity": 0.5,
      "hand": "right"
    },
    {
      "midi": 64,
      "time": 40.8,
      "duration": 0.15,
      "velocity": 0.54,
      "hand": "right"
    },
    {
      "midi": 65,
      "time": 40.8,
      "duration": 0.15,
      "velocity": 0.65,
      "hand": "right"
    },
    {
      "midi": 65,
      "time": 40.8,
      "duration": 0.3,
      "velocity": 0.55,
      "hand": "right"
    },
    {
      "midi": 65,
      "time": 40.8,
      "duration": 0.45,
      "velocity": 0.47,
      "hand": "right"
    },
    {
      "midi": 67,
      "time": 40.8,
      "duration": 0.15,
      "velocity": 0.5,
      "hand": "right"
    },
    {
      "midi": 38,
      "time": 41.1,
      "duration": 0.075,
      "velocity": 0.54,
      "hand": "left"
    },
    {
      "midi": 42,
      "time": 41.1,
      "duration": 0.075,
      "velocity": 0.57,
      "hand": "left"
    },
    {
      "midi": 51,
      "time": 41.1,
      "duration": 0.075,
      "velocity": 0.55,
      "hand": "left"
    },
    {
      "midi": 54,
      "time": 41.1,
      "duration": 0.075,
      "velocity": 0.54,
      "hand": "left"
    },
    {
      "midi": 57,
      "time": 41.1,
      "duration": 0.15,
      "velocity": 0.54,
      "hand": "left"
    },
    {
      "midi": 57,
      "time": 41.1,
      "duration": 0.075,
      "velocity": 0.64,
      "hand": "left"
    },
    {
      "midi": 60,
      "time": 41.1,
      "duration": 0.15,
      "velocity": 0.53,
      "hand": "right"
    },
    {
      "midi": 60,
      "time": 41.1,
      "duration": 0.075,
      "velocity": 0.7,
      "hand": "right"
    },
    {
      "midi": 64,
      "time": 41.1,
      "duration": 0.15,
      "velocity": 0.52,
      "hand": "right"
    },
    {
      "midi": 64,
      "time": 41.1,
      "duration": 0.075,
      "velocity": 0.54,
      "hand": "right"
    },
    {
      "midi": 65,
      "time": 41.1,
      "duration": 0.075,
      "velocity": 0.51,
      "hand": "right"
    },
    {
      "midi": 65,
      "time": 41.1,
      "duration": 0.3,
      "velocity": 0.54,
      "hand": "right"
    },
    {
      "midi": 67,
      "time": 41.1,
      "duration": 0.15,
      "velocity": 0.39,
      "hand": "right"
    },
    {
      "midi": 67,
      "time": 41.1,
      "duration": 0.075,
      "velocity": 0.61,
      "hand": "right"
    },
    {
      "midi": 70,
      "time": 41.1,
      "duration": 0.075,
      "velocity": 0.72,
      "hand": "right"
    },
    {
      "midi": 35,
      "time": 41.4,
      "duration": 0.075,
      "velocity": 0.56,
      "hand": "left"
    },
    {
      "midi": 37,
      "time": 41.4,
      "duration": 0.6,
      "velocity": 0.98,
      "hand": "left"
    },
    {
      "midi": 42,
      "time": 41.4,
      "duration": 0.075,
      "velocity": 0.57,
      "hand": "left"
    },
    {
      "midi": 51,
      "time": 41.4,
      "duration": 0.075,
      "velocity": 0.5,
      "hand": "left"
    },
    {
      "midi": 55,
      "time": 41.4,
      "duration": 0.3,
      "velocity": 0.54,
      "hand": "left"
    },
    {
      "midi": 56,
      "time": 41.4,
      "duration": 0.15,
      "velocity": 0.55,
      "hand": "left"
    },
    {
      "midi": 56,
      "time": 41.4,
      "duration": 0.45,
      "velocity": 0.46,
      "hand": "left"
    },
    {
      "midi": 59,
      "time": 41.4,
      "duration": 0.15,
      "velocity": 0.55,
      "hand": "left"
    },
    {
      "midi": 59,
      "time": 41.4,
      "duration": 0.3,
      "velocity": 0.52,
      "hand": "left"
    },
    {
      "midi": 62,
      "time": 41.4,
      "duration": 0.3,
      "velocity": 0.51,
      "hand": "right"
    },
    {
      "midi": 63,
      "time": 41.4,
      "duration": 0.15,
      "velocity": 0.51,
      "hand": "right"
    },
    {
      "midi": 63,
      "time": 41.4,
      "duration": 0.45,
      "velocity": 0.54,
      "hand": "right"
    },
    {
      "midi": 64,
      "time": 41.4,
      "duration": 0.3,
      "velocity": 0.61,
      "hand": "right"
    },
    {
      "midi": 65,
      "time": 41.4,
      "duration": 0.3,
      "velocity": 0.47,
      "hand": "right"
    },
    {
      "midi": 67,
      "time": 41.4,
      "duration": 0.15,
      "velocity": 0.37,
      "hand": "right"
    },
    {
      "midi": 67,
      "time": 41.4,
      "duration": 0.45,
      "velocity": 0.36,
      "hand": "right"
    },
    {
      "midi": 68,
      "time": 41.4,
      "duration": 0.15,
      "velocity": 0.37,
      "hand": "right"
    },
    {
      "midi": 70,
      "time": 41.4,
      "duration": 0.075,
      "velocity": 0.69,
      "hand": "right"
    },
    {
      "midi": 38,
      "time": 41.7,
      "duration": 0.075,
      "velocity": 0.55,
      "hand": "left"
    },
    {
      "midi": 42,
      "time": 41.7,
      "duration": 0.075,
      "velocity": 0.54,
      "hand": "left"
    },
    {
      "midi": 51,
      "time": 41.7,
      "duration": 0.075,
      "velocity": 0.54,
      "hand": "left"
    },
    {
      "midi": 54,
      "time": 41.7,
      "duration": 0.075,
      "velocity": 0.64,
      "hand": "left"
    },
    {
      "midi": 56,
      "time": 41.7,
      "duration": 0.15,
      "velocity": 0.53,
      "hand": "left"
    },
    {
      "midi": 59,
      "time": 41.7,
      "duration": 0.15,
      "velocity": 0.55,
      "hand": "left"
    },
    {
      "midi": 62,
      "time": 41.7,
      "duration": 0.3,
      "velocity": 0.57,
      "hand": "right"
    },
    {
      "midi": 63,
      "time": 41.7,
      "duration": 0.15,
      "velocity": 0.43,
      "hand": "right"
    },
    {
      "midi": 67,
      "time": 41.7,
      "duration": 0.15,
      "velocity": 0.49,
      "hand": "right"
    },
    {
      "midi": 70,
      "time": 41.7,
      "duration": 0.075,
      "velocity": 0.7,
      "hand": "right"
    },
    {
      "midi": 35,
      "time": 42,
      "duration": 0.075,
      "velocity": 0.56,
      "hand": "left"
    },
    {
      "midi": 36,
      "time": 42,
      "duration": 0.6,
      "velocity": 0.8,
      "hand": "left"
    },
    {
      "midi": 42,
      "time": 42,
      "duration": 0.075,
      "velocity": 0.65,
      "hand": "left"
    },
    {
      "midi": 51,
      "time": 42,
      "duration": 0.075,
      "velocity": 0.57,
      "hand": "left"
    },
    {
      "midi": 57,
      "time": 42,
      "duration": 0.6,
      "velocity": 0.53,
      "hand": "left"
    },
    {
      "midi": 57,
      "time": 42,
      "duration": 0.9,
      "velocity": 0.54,
      "hand": "left"
    },
    {
      "midi": 57,
      "time": 42,
      "duration": 0.6,
      "velocity": 0.59,
      "hand": "left"
    },
    {
      "midi": 60,
      "time": 42,
      "duration": 0.75,
      "velocity": 0.72,
      "hand": "right"
    },
    {
      "midi": 62,
      "time": 42,
      "duration": 0.6,
      "velocity": 0.55,
      "hand": "right"
    },
    {
      "midi": 62,
      "time": 42,
      "duration": 0.9,
      "velocity": 0.46,
      "hand": "right"
    },
    {
      "midi": 62,
      "time": 42,
      "duration": 0.6,
      "velocity": 0.7,
      "hand": "right"
    },
    {
      "midi": 67,
      "time": 42,
      "duration": 0.6,
      "velocity": 0.54,
      "hand": "right"
    },
    {
      "midi": 67,
      "time": 42,
      "duration": 0.9,
      "velocity": 0.5,
      "hand": "right"
    },
    {
      "midi": 67,
      "time": 42,
      "duration": 0.6,
      "velocity": 0.63,
      "hand": "right"
    },
    {
      "midi": 70,
      "time": 42,
      "duration": 0.075,
      "velocity": 0.72,
      "hand": "right"
    },
    {
      "midi": 42,
      "time": 42.3,
      "duration": 0.075,
      "velocity": 0.58,
      "hand": "left"
    },
    {
      "midi": 50,
      "time": 42.3,
      "duration": 0.15,
      "velocity": 0.81,
      "hand": "left"
    },
    {
      "midi": 51,
      "time": 42.3,
      "duration": 0.075,
      "velocity": 0.54,
      "hand": "left"
    },
    {
      "midi": 54,
      "time": 42.3,
      "duration": 0.075,
      "velocity": 0.56,
      "hand": "left"
    },
    {
      "midi": 57,
      "time": 42.3,
      "duration": 0.075,
      "velocity": 0.57,
      "hand": "left"
    },
    {
      "midi": 62,
      "time": 42.3,
      "duration": 0.075,
      "velocity": 0.72,
      "hand": "right"
    },
    {
      "midi": 67,
      "time": 42.3,
      "duration": 0.15,
      "velocity": 0.56,
      "hand": "right"
    },
    {
      "midi": 31,
      "time": 42.6,
      "duration": 0.6,
      "velocity": 0.79,
      "hand": "left"
    },
    {
      "midi": 35,
      "time": 42.6,
      "duration": 0.075,
      "velocity": 0.61,
      "hand": "left"
    },
    {
      "midi": 42,
      "time": 42.6,
      "duration": 0.075,
      "velocity": 0.55,
      "hand": "left"
    },
    {
      "midi": 50,
      "time": 42.6,
      "duration": 0.075,
      "velocity": 0.81,
      "hand": "left"
    },
    {
      "midi": 51,
      "time": 42.6,
      "duration": 0.075,
      "velocity": 0.61,
      "hand": "left"
    },
    {
      "midi": 57,
      "time": 42.6,
      "duration": 0.075,
      "velocity": 0.57,
      "hand": "left"
    },
    {
      "midi": 62,
      "time": 42.6,
      "duration": 0.075,
      "velocity": 0.61,
      "hand": "right"
    },
    {
      "midi": 67,
      "time": 42.6,
      "duration": 0.15,
      "velocity": 0.54,
      "hand": "right"
    },
    {
      "midi": 42,
      "time": 42.9,
      "duration": 0.075,
      "velocity": 0.55,
      "hand": "left"
    },
    {
      "midi": 48,
      "time": 42.9,
      "duration": 0.15,
      "velocity": 0.81,
      "hand": "left"
    },
    {
      "midi": 51,
      "time": 42.9,
      "duration": 0.075,
      "velocity": 0.56,
      "hand": "left"
    },
    {
      "midi": 54,
      "time": 42.9,
      "duration": 0.075,
      "velocity": 0.58,
      "hand": "left"
    },
    {
      "midi": 55,
      "time": 42.9,
      "duration": 0.3,
      "velocity": 0.79,
      "hand": "left"
    },
    {
      "midi": 57,
      "time": 42.9,
      "duration": 0.075,
      "velocity": 0.57,
      "hand": "left"
    },
    {
      "midi": 60,
      "time": 42.9,
      "duration": 0.3,
      "velocity": 0.79,
      "hand": "right"
    },
    {
      "midi": 62,
      "time": 42.9,
      "duration": 0.075,
      "velocity": 0.65,
      "hand": "right"
    },
    {
      "midi": 64,
      "time": 42.9,
      "duration": 0.3,
      "velocity": 0.73,
      "hand": "right"
    },
    {
      "midi": 67,
      "time": 42.9,
      "duration": 0.15,
      "velocity": 0.57,
      "hand": "right"
    },
    {
      "midi": 47,
      "time": 43.05,
      "duration": 0.15,
      "velocity": 0.81,
      "hand": "left"
    },
    {
      "midi": 35,
      "time": 43.2,
      "duration": 0.075,
      "velocity": 0.7,
      "hand": "left"
    },
    {
      "midi": 36,
      "time": 43.2,
      "duration": 0.6,
      "velocity": 0.96,
      "hand": "left"
    },
    {
      "midi": 42,
      "time": 43.2,
      "duration": 0.075,
      "velocity": 0.54,
      "hand": "left"
    },
    {
      "midi": 49,
      "time": 43.2,
      "duration": 0.15,
      "velocity": 0.81,
      "hand": "left"
    },
    {
      "midi": 51,
      "time": 43.2,
      "duration": 0.075,
      "velocity": 0.53,
      "hand": "left"
    },
    {
      "midi": 57,
      "time": 43.2,
      "duration": 0.6,
      "velocity": 0.43,
      "hand": "left"
    },
    {
      "midi": 57,
      "time": 43.2,
      "duration": 1.8,
      "velocity": 0.55,
      "hand": "left"
    },
    {
      "midi": 57,
      "time": 43.2,
      "duration": 1.95,
      "velocity": 0.63,
      "hand": "left"
    },
    {
      "midi": 59,
      "time": 43.2,
      "duration": 0.3,
      "velocity": 0.79,
      "hand": "left"
    },
    {
      "midi": 62,
      "time": 43.2,
      "duration": 0.6,
      "velocity": 0.48,
      "hand": "right"
    },
    {
      "midi": 62,
      "time": 43.2,
      "duration": 1.95,
      "velocity": 0.57,
      "hand": "right"
    },
    {
      "midi": 62,
      "time": 43.2,
      "duration": 2.1,
      "velocity": 0.69,
      "hand": "right"
    },
    {
      "midi": 64,
      "time": 43.2,
      "duration": 0.3,
      "velocity": 0.79,
      "hand": "right"
    },
    {
      "midi": 67,
      "time": 43.2,
      "duration": 0.6,
      "velocity": 0.43,
      "hand": "right"
    },
    {
      "midi": 67,
      "time": 43.2,
      "duration": 0.15,
      "velocity": 0.65,
      "hand": "right"
    },
    {
      "midi": 67,
      "time": 43.2,
      "duration": 2.1,
      "velocity": 0.64,
      "hand": "right"
    },
    {
      "midi": 67,
      "time": 43.2,
      "duration": 0.15,
      "velocity": 0.65,
      "hand": "right"
    },
    {
      "midi": 38,
      "time": 43.5,
      "duration": 0.075,
      "velocity": 0.57,
      "hand": "left"
    },
    {
      "midi": 42,
      "time": 43.5,
      "duration": 0.075,
      "velocity": 0.61,
      "hand": "left"
    },
    {
      "midi": 51,
      "time": 43.5,
      "duration": 0.075,
      "velocity": 0.61,
      "hand": "left"
    },
    {
      "midi": 54,
      "time": 43.5,
      "duration": 0.075,
      "velocity": 0.57,
      "hand": "left"
    },
    {
      "midi": 57,
      "time": 43.5,
      "duration": 0.15,
      "velocity": 0.64,
      "hand": "left"
    },
    {
      "midi": 59,
      "time": 43.5,
      "duration": 0.3,
      "velocity": 0.54,
      "hand": "left"
    },
    {
      "midi": 62,
      "time": 43.5,
      "duration": 0.075,
      "velocity": 0.7,
      "hand": "right"
    },
    {
      "midi": 64,
      "time": 43.5,
      "duration": 0.3,
      "velocity": 0.54,
      "hand": "right"
    },
    {
      "midi": 67,
      "time": 43.5,
      "duration": 0.15,
      "velocity": 0.54,
      "hand": "right"
    },
    {
      "midi": 67,
      "time": 43.5,
      "duration": 0.3,
      "velocity": 0.54,
      "hand": "right"
    },
    {
      "midi": 70,
      "time": 43.5,
      "duration": 0.075,
      "velocity": 0.7,
      "hand": "right"
    },
    {
      "midi": 31,
      "time": 43.8,
      "duration": 0.6,
      "velocity": 0.96,
      "hand": "left"
    },
    {
      "midi": 35,
      "time": 43.8,
      "duration": 0.075,
      "velocity": 0.73,
      "hand": "left"
    },
    {
      "midi": 42,
      "time": 43.8,
      "duration": 0.075,
      "velocity": 0.57,
      "hand": "left"
    },
    {
      "midi": 51,
      "time": 43.8,
      "duration": 0.075,
      "velocity": 0.53,
      "hand": "left"
    },
    {
      "midi": 55,
      "time": 43.8,
      "duration": 0.3,
      "velocity": 0.59,
      "hand": "left"
    },
    {
      "midi": 57,
      "time": 43.8,
      "duration": 0.45,
      "velocity": 0.43,
      "hand": "left"
    },
    {
      "midi": 60,
      "time": 43.8,
      "duration": 0.3,
      "velocity": 0.59,
      "hand": "right"
    },
    {
      "midi": 62,
      "time": 43.8,
      "duration": 0.45,
      "velocity": 0.49,
      "hand": "right"
    },
    {
      "midi": 64,
      "time": 43.8,
      "duration": 0.3,
      "velocity": 0.59,
      "hand": "right"
    },
    {
      "midi": 67,
      "time": 43.8,
      "duration": 0.45,
      "velocity": 0.49,
      "hand": "right"
    },
    {
      "midi": 70,
      "time": 43.8,
      "duration": 0.075,
      "velocity": 0.63,
      "hand": "right"
    },
    {
      "midi": 38,
      "time": 44.1,
      "duration": 0.075,
      "velocity": 0.55,
      "hand": "left"
    },
    {
      "midi": 42,
      "time": 44.1,
      "duration": 0.075,
      "velocity": 0.56,
      "hand": "left"
    },
    {
      "midi": 51,
      "time": 44.1,
      "duration": 0.075,
      "velocity": 0.57,
      "hand": "left"
    },
    {
      "midi": 54,
      "time": 44.1,
      "duration": 0.075,
      "velocity": 0.5,
      "hand": "left"
    },
    {
      "midi": 57,
      "time": 44.1,
      "duration": 0.075,
      "velocity": 0.64,
      "hand": "left"
    },
    {
      "midi": 57,
      "time": 44.1,
      "duration": 0.3,
      "velocity": 0.61,
      "hand": "left"
    },
    {
      "midi": 62,
      "time": 44.1,
      "duration": 0.075,
      "velocity": 0.72,
      "hand": "right"
    },
    {
      "midi": 62,
      "time": 44.1,
      "duration": 0.3,
      "velocity": 0.61,
      "hand": "right"
    },
    {
      "midi": 65,
      "time": 44.1,
      "duration": 0.3,
      "velocity": 0.61,
      "hand": "right"
    },
    {
      "midi": 67,
      "time": 44.1,
      "duration": 0.075,
      "velocity": 0.56,
      "hand": "right"
    },
    {
      "midi": 70,
      "time": 44.1,
      "duration": 0.075,
      "velocity": 0.56,
      "hand": "right"
    },
    {
      "midi": 35,
      "time": 44.4,
      "duration": 0.075,
      "velocity": 0.72,
      "hand": "left"
    },
    {
      "midi": 36,
      "time": 44.4,
      "duration": 0.6,
      "velocity": 0.96,
      "hand": "left"
    },
    {
      "midi": 42,
      "time": 44.4,
      "duration": 0.075,
      "velocity": 0.54,
      "hand": "left"
    },
    {
      "midi": 51,
      "time": 44.4,
      "duration": 0.075,
      "velocity": 0.46,
      "hand": "left"
    },
    {
      "midi": 57,
      "time": 44.4,
      "duration": 0.6,
      "velocity": 0.56,
      "hand": "left"
    },
    {
      "midi": 59,
      "time": 44.4,
      "duration": 0.3,
      "velocity": 0.54,
      "hand": "left"
    },
    {
      "midi": 62,
      "time": 44.4,
      "duration": 0.6,
      "velocity": 0.59,
      "hand": "right"
    },
    {
      "midi": 64,
      "time": 44.4,
      "duration": 0.3,
      "velocity": 0.54,
      "hand": "right"
    },
    {
      "midi": 67,
      "time": 44.4,
      "duration": 0.6,
      "velocity": 0.61,
      "hand": "right"
    },
    {
      "midi": 67,
      "time": 44.4,
      "duration": 0.3,
      "velocity": 0.54,
      "hand": "right"
    },
    {
      "midi": 70,
      "time": 44.4,
      "duration": 0.075,
      "velocity": 0.73,
      "hand": "right"
    },
    {
      "midi": 38,
      "time": 44.7,
      "duration": 0.075,
      "velocity": 0.56,
      "hand": "left"
    },
    {
      "midi": 42,
      "time": 44.7,
      "duration": 0.075,
      "velocity": 0.46,
      "hand": "left"
    },
    {
      "midi": 51,
      "time": 44.7,
      "duration": 0.075,
      "velocity": 0.52,
      "hand": "left"
    },
    {
      "midi": 54,
      "time": 44.7,
      "duration": 0.075,
      "velocity": 0.56,
      "hand": "left"
    },
    {
      "midi": 57,
      "time": 44.7,
      "duration": 0.15,
      "velocity": 0.72,
      "hand": "left"
    },
    {
      "midi": 59,
      "time": 44.7,
      "duration": 0.15,
      "velocity": 0.72,
      "hand": "left"
    },
    {
      "midi": 62,
      "time": 44.7,
      "duration": 0.075,
      "velocity": 0.72,
      "hand": "right"
    },
    {
      "midi": 64,
      "time": 44.7,
      "duration": 0.15,
      "velocity": 0.72,
      "hand": "right"
    },
    {
      "midi": 67,
      "time": 44.7,
      "duration": 0.075,
      "velocity": 0.57,
      "hand": "right"
    },
    {
      "midi": 67,
      "time": 44.7,
      "duration": 0.15,
      "velocity": 0.72,
      "hand": "right"
    },
    {
      "midi": 31,
      "time": 45,
      "duration": 0.6,
      "velocity": 0.96,
      "hand": "left"
    },
    {
      "midi": 35,
      "time": 45,
      "duration": 0.075,
      "velocity": 0.7,
      "hand": "left"
    },
    {
      "midi": 42,
      "time": 45,
      "duration": 0.075,
      "velocity": 0.5,
      "hand": "left"
    },
    {
      "midi": 51,
      "time": 45,
      "duration": 0.075,
      "velocity": 0.54,
      "hand": "left"
    },
    {
      "midi": 57,
      "time": 45,
      "duration": 0.15,
      "velocity": 0.5,
      "hand": "left"
    },
    {
      "midi": 59,
      "time": 45,
      "duration": 0.15,
      "velocity": 0.61,
      "hand": "left"
    },
    {
      "midi": 62,
      "time": 45,
      "duration": 0.15,
      "velocity": 0.52,
      "hand": "right"
    },
    {
      "midi": 64,
      "time": 45,
      "duration": 0.15,
      "velocity": 0.61,
      "hand": "right"
    },
    {
      "midi": 67,
      "time": 45,
      "duration": 0.15,
      "velocity": 0.5,
      "hand": "right"
    },
    {
      "midi": 38,
      "time": 45.3,
      "duration": 0.075,
      "velocity": 0.53,
      "hand": "left"
    },
    {
      "midi": 42,
      "time": 45.3,
      "duration": 0.075,
      "velocity": 0.54,
      "hand": "left"
    },
    {
      "midi": 51,
      "time": 45.3,
      "duration": 0.075,
      "velocity": 0.54,
      "hand": "left"
    },
    {
      "midi": 54,
      "time": 45.3,
      "duration": 0.075,
      "velocity": 0.57,
      "hand": "left"
    },
    {
      "midi": 57,
      "time": 45.3,
      "duration": 0.15,
      "velocity": 0.51,
      "hand": "left"
    },
    {
      "midi": 59,
      "time": 45.3,
      "duration": 0.15,
      "velocity": 0.56,
      "hand": "left"
    },
    {
      "midi": 62,
      "time": 45.3,
      "duration": 0.075,
      "velocity": 0.57,
      "hand": "right"
    },
    {
      "midi": 64,
      "time": 45.3,
      "duration": 0.15,
      "velocity": 0.56,
      "hand": "right"
    },
    {
      "midi": 67,
      "time": 45.3,
      "duration": 0.15,
      "velocity": 0.51,
      "hand": "right"
    },
    {
      "midi": 35,
      "time": 45.6,
      "duration": 0.075,
      "velocity": 0.69,
      "hand": "left"
    },
    {
      "midi": 40,
      "time": 45.6,
      "duration": 0.6,
      "velocity": 0.96,
      "hand": "left"
    },
    {
      "midi": 42,
      "time": 45.6,
      "duration": 0.075,
      "velocity": 0.54,
      "hand": "left"
    },
    {
      "midi": 51,
      "time": 45.6,
      "duration": 0.075,
      "velocity": 0.51,
      "hand": "left"
    },
    {
      "midi": 59,
      "time": 45.6,
      "duration": 0.15,
      "velocity": 0.61,
      "hand": "left"
    },
    {
      "midi": 59,
      "time": 45.6,
      "duration": 0.3,
      "velocity": 0.57,
      "hand": "left"
    },
    {
      "midi": 60,
      "time": 45.6,
      "duration": 0.3,
      "velocity": 0.72,
      "hand": "right"
    },
    {
      "midi": 62,
      "time": 45.6,
      "duration": 0.15,
      "velocity": 0.57,
      "hand": "right"
    },
    {
      "midi": 62,
      "time": 45.6,
      "duration": 0.3,
      "velocity": 0.57,
      "hand": "right"
    },
    {
      "midi": 64,
      "time": 45.6,
      "duration": 0.15,
      "velocity": 0.63,
      "hand": "right"
    },
    {
      "midi": 64,
      "time": 45.6,
      "duration": 0.3,
      "velocity": 0.59,
      "hand": "right"
    },
    {
      "midi": 65,
      "time": 45.6,
      "duration": 0.3,
      "velocity": 0.72,
      "hand": "right"
    },
    {
      "midi": 67,
      "time": 45.6,
      "duration": 0.15,
      "velocity": 0.54,
      "hand": "right"
    },
    {
      "midi": 67,
      "time": 45.6,
      "duration": 0.3,
      "velocity": 0.54,
      "hand": "right"
    },
    {
      "midi": 69,
      "time": 45.6,
      "duration": 0.3,
      "velocity": 0.72,
      "hand": "right"
    },
    {
      "midi": 38,
      "time": 45.9,
      "duration": 0.075,
      "velocity": 0.54,
      "hand": "left"
    },
    {
      "midi": 42,
      "time": 45.9,
      "duration": 0.075,
      "velocity": 0.57,
      "hand": "left"
    },
    {
      "midi": 51,
      "time": 45.9,
      "duration": 0.075,
      "velocity": 0.55,
      "hand": "left"
    },
    {
      "midi": 54,
      "time": 45.9,
      "duration": 0.075,
      "velocity": 0.54,
      "hand": "left"
    },
    {
      "midi": 59,
      "time": 45.9,
      "duration": 0.15,
      "velocity": 0.59,
      "hand": "left"
    },
    {
      "midi": 59,
      "time": 45.9,
      "duration": 0.3,
      "velocity": 0.65,
      "hand": "left"
    },
    {
      "midi": 62,
      "time": 45.9,
      "duration": 0.15,
      "velocity": 0.57,
      "hand": "right"
    },
    {
      "midi": 62,
      "time": 45.9,
      "duration": 0.075,
      "velocity": 0.57,
      "hand": "right"
    },
    {
      "midi": 64,
      "time": 45.9,
      "duration": 0.15,
      "velocity": 0.61,
      "hand": "right"
    },
    {
      "midi": 64,
      "time": 45.9,
      "duration": 0.3,
      "velocity": 0.65,
      "hand": "right"
    },
    {
      "midi": 67,
      "time": 45.9,
      "duration": 0.15,
      "velocity": 0.57,
      "hand": "right"
    },
    {
      "midi": 67,
      "time": 45.9,
      "duration": 0.3,
      "velocity": 0.65,
      "hand": "right"
    },
    {
      "midi": 70,
      "time": 45.9,
      "duration": 0.075,
      "velocity": 0.72,
      "hand": "right"
    },
    {
      "midi": 35,
      "time": 46.2,
      "duration": 0.075,
      "velocity": 0.56,
      "hand": "left"
    },
    {
      "midi": 39,
      "time": 46.2,
      "duration": 0.45,
      "velocity": 0.96,
      "hand": "left"
    },
    {
      "midi": 42,
      "time": 46.2,
      "duration": 0.075,
      "velocity": 0.57,
      "hand": "left"
    },
    {
      "midi": 51,
      "time": 46.2,
      "duration": 0.075,
      "velocity": 0.5,
      "hand": "left"
    },
    {
      "midi": 57,
      "time": 46.2,
      "duration": 0.3,
      "velocity": 0.58,
      "hand": "left"
    },
    {
      "midi": 58,
      "time": 46.2,
      "duration": 0.3,
      "velocity": 0.72,
      "hand": "left"
    },
    {
      "midi": 58,
      "time": 46.2,
      "duration": 0.15,
      "velocity": 0.61,
      "hand": "left"
    },
    {
      "midi": 58,
      "time": 46.2,
      "duration": 0.45,
      "velocity": 0.57,
      "hand": "left"
    },
    {
      "midi": 58,
      "time": 46.2,
      "duration": 0.3,
      "velocity": 0.59,
      "hand": "left"
    },
    {
      "midi": 61,
      "time": 46.2,
      "duration": 0.3,
      "velocity": 0.61,
      "hand": "right"
    },
    {
      "midi": 61,
      "time": 46.2,
      "duration": 0.15,
      "velocity": 0.56,
      "hand": "right"
    },
    {
      "midi": 61,
      "time": 46.2,
      "duration": 0.45,
      "velocity": 0.58,
      "hand": "right"
    },
    {
      "midi": 61,
      "time": 46.2,
      "duration": 0.3,
      "velocity": 0.52,
      "hand": "right"
    },
    {
      "midi": 62,
      "time": 46.2,
      "duration": 0.3,
      "velocity": 0.58,
      "hand": "right"
    },
    {
      "midi": 63,
      "time": 46.2,
      "duration": 0.3,
      "velocity": 0.58,
      "hand": "right"
    },
    {
      "midi": 63,
      "time": 46.2,
      "duration": 0.15,
      "velocity": 0.57,
      "hand": "right"
    },
    {
      "midi": 63,
      "time": 46.2,
      "duration": 0.45,
      "velocity": 0.58,
      "hand": "right"
    },
    {
      "midi": 63,
      "time": 46.2,
      "duration": 0.3,
      "velocity": 0.54,
      "hand": "right"
    },
    {
      "midi": 65,
      "time": 46.2,
      "duration": 0.3,
      "velocity": 0.58,
      "hand": "right"
    },
    {
      "midi": 66,
      "time": 46.2,
      "duration": 0.3,
      "velocity": 0.54,
      "hand": "right"
    },
    {
      "midi": 68,
      "time": 46.2,
      "duration": 0.3,
      "velocity": 0.61,
      "hand": "right"
    },
    {
      "midi": 68,
      "time": 46.2,
      "duration": 0.15,
      "velocity": 0.54,
      "hand": "right"
    },
    {
      "midi": 68,
      "time": 46.2,
      "duration": 0.45,
      "velocity": 0.54,
      "hand": "right"
    },
    {
      "midi": 70,
      "time": 46.2,
      "duration": 0.075,
      "velocity": 0.69,
      "hand": "right"
    },
    {
      "midi": 38,
      "time": 46.5,
      "duration": 0.075,
      "velocity": 0.55,
      "hand": "left"
    },
    {
      "midi": 42,
      "time": 46.5,
      "duration": 0.075,
      "velocity": 0.54,
      "hand": "left"
    },
    {
      "midi": 51,
      "time": 46.5,
      "duration": 0.075,
      "velocity": 0.54,
      "hand": "left"
    },
    {
      "midi": 54,
      "time": 46.5,
      "duration": 0.075,
      "velocity": 0.64,
      "hand": "left"
    },
    {
      "midi": 55,
      "time": 46.5,
      "duration": 0.15,
      "velocity": 0.64,
      "hand": "left"
    },
    {
      "midi": 58,
      "time": 46.5,
      "duration": 0.15,
      "velocity": 0.65,
      "hand": "left"
    },
    {
      "midi": 60,
      "time": 46.5,
      "duration": 0.15,
      "velocity": 0.64,
      "hand": "right"
    },
    {
      "midi": 61,
      "time": 46.5,
      "duration": 0.15,
      "velocity": 0.69,
      "hand": "right"
    },
    {
      "midi": 63,
      "time": 46.5,
      "duration": 0.15,
      "velocity": 0.69,
      "hand": "right"
    },
    {
      "midi": 64,
      "time": 46.5,
      "duration": 0.15,
      "velocity": 0.64,
      "hand": "right"
    },
    {
      "midi": 68,
      "time": 46.5,
      "duration": 0.15,
      "velocity": 0.57,
      "hand": "right"
    },
    {
      "midi": 70,
      "time": 46.5,
      "duration": 0.075,
      "velocity": 0.7,
      "hand": "right"
    },
    {
      "midi": 35,
      "time": 46.8,
      "duration": 0.075,
      "velocity": 0.56,
      "hand": "left"
    },
    {
      "midi": 38,
      "time": 46.8,
      "duration": 0.6,
      "velocity": 0.87,
      "hand": "left"
    },
    {
      "midi": 42,
      "time": 46.8,
      "duration": 0.075,
      "velocity": 0.65,
      "hand": "left"
    },
    {
      "midi": 51,
      "time": 46.8,
      "duration": 0.075,
      "velocity": 0.57,
      "hand": "left"
    },
    {
      "midi": 55,
      "time": 46.8,
      "duration": 0.75,
      "velocity": 0.61,
      "hand": "left"
    },
    {
      "midi": 57,
      "time": 46.8,
      "duration": 0.6,
      "velocity": 0.51,
      "hand": "left"
    },
    {
      "midi": 57,
      "time": 46.8,
      "duration": 2.25,
      "velocity": 0.5,
      "hand": "left"
    },
    {
      "midi": 57,
      "time": 46.8,
      "duration": 1.05,
      "velocity": 0.57,
      "hand": "left"
    },
    {
      "midi": 57,
      "time": 46.8,
      "duration": 0.75,
      "velocity": 0.61,
      "hand": "left"
    },
    {
      "midi": 60,
      "time": 46.8,
      "duration": 0.45,
      "velocity": 0.52,
      "hand": "right"
    },
    {
      "midi": 60,
      "time": 46.8,
      "duration": 2.25,
      "velocity": 0.49,
      "hand": "right"
    },
    {
      "midi": 60,
      "time": 46.8,
      "duration": 1.05,
      "velocity": 0.54,
      "hand": "right"
    },
    {
      "midi": 62,
      "time": 46.8,
      "duration": 0.75,
      "velocity": 0.61,
      "hand": "right"
    },
    {
      "midi": 62,
      "time": 46.8,
      "duration": 3.3,
      "velocity": 0.49,
      "hand": "right"
    },
    {
      "midi": 62,
      "time": 46.8,
      "duration": 1.05,
      "velocity": 0.59,
      "hand": "right"
    },
    {
      "midi": 62,
      "time": 46.8,
      "duration": 0.75,
      "velocity": 0.61,
      "hand": "right"
    },
    {
      "midi": 64,
      "time": 46.8,
      "duration": 0.6,
      "velocity": 0.5,
      "hand": "right"
    },
    {
      "midi": 65,
      "time": 46.8,
      "duration": 3.3,
      "velocity": 0.45,
      "hand": "right"
    },
    {
      "midi": 65,
      "time": 46.8,
      "duration": 1.05,
      "velocity": 0.57,
      "hand": "right"
    },
    {
      "midi": 67,
      "time": 46.8,
      "duration": 0.45,
      "velocity": 0.5,
      "hand": "right"
    },
    {
      "midi": 70,
      "time": 46.8,
      "duration": 0.075,
      "velocity": 0.72,
      "hand": "right"
    },
    {
      "midi": 38,
      "time": 47.1,
      "duration": 0.075,
      "velocity": 0.54,
      "hand": "left"
    },
    {
      "midi": 42,
      "time": 47.1,
      "duration": 0.075,
      "velocity": 0.58,
      "hand": "left"
    },
    {
      "midi": 51,
      "time": 47.1,
      "duration": 0.075,
      "velocity": 0.54,
      "hand": "left"
    },
    {
      "midi": 54,
      "time": 47.1,
      "duration": 0.075,
      "velocity": 0.56,
      "hand": "left"
    },
    {
      "midi": 57,
      "time": 47.1,
      "duration": 0.075,
      "velocity": 0.54,
      "hand": "left"
    },
    {
      "midi": 60,
      "time": 47.1,
      "duration": 0.075,
      "velocity": 0.61,
      "hand": "right"
    },
    {
      "midi": 64,
      "time": 47.1,
      "duration": 0.075,
      "velocity": 0.57,
      "hand": "right"
    },
    {
      "midi": 67,
      "time": 47.1,
      "duration": 0.075,
      "velocity": 0.5,
      "hand": "right"
    },
    {
      "midi": 33,
      "time": 47.4,
      "duration": 0.45,
      "velocity": 0.87,
      "hand": "left"
    },
    {
      "midi": 35,
      "time": 47.4,
      "duration": 0.075,
      "velocity": 0.61,
      "hand": "left"
    },
    {
      "midi": 42,
      "time": 47.4,
      "duration": 0.075,
      "velocity": 0.55,
      "hand": "left"
    },
    {
      "midi": 51,
      "time": 47.4,
      "duration": 0.075,
      "velocity": 0.61,
      "hand": "left"
    },
    {
      "midi": 57,
      "time": 47.4,
      "duration": 0.15,
      "velocity": 0.5,
      "hand": "left"
    },
    {
      "midi": 60,
      "time": 47.4,
      "duration": 0.15,
      "velocity": 0.51,
      "hand": "right"
    },
    {
      "midi": 64,
      "time": 47.4,
      "duration": 0.15,
      "velocity": 0.49,
      "hand": "right"
    },
    {
      "midi": 67,
      "time": 47.4,
      "duration": 0.15,
      "velocity": 0.39,
      "hand": "right"
    },
    {
      "midi": 38,
      "time": 47.7,
      "duration": 0.075,
      "velocity": 0.56,
      "hand": "left"
    },
    {
      "midi": 42,
      "time": 47.7,
      "duration": 0.075,
      "velocity": 0.55,
      "hand": "left"
    },
    {
      "midi": 51,
      "time": 47.7,
      "duration": 0.075,
      "velocity": 0.56,
      "hand": "left"
    },
    {
      "midi": 54,
      "time": 47.7,
      "duration": 0.075,
      "velocity": 0.58,
      "hand": "left"
    },
    {
      "midi": 57,
      "time": 47.7,
      "duration": 0.075,
      "velocity": 0.65,
      "hand": "left"
    },
    {
      "midi": 57,
      "time": 47.7,
      "duration": 0.15,
      "velocity": 0.72,
      "hand": "left"
    },
    {
      "midi": 60,
      "time": 47.7,
      "duration": 0.075,
      "velocity": 0.72,
      "hand": "right"
    },
    {
      "midi": 64,
      "time": 47.7,
      "duration": 0.075,
      "velocity": 0.59,
      "hand": "right"
    },
    {
      "midi": 67,
      "time": 47.7,
      "duration": 0.15,
      "velocity": 0.55,
      "hand": "right"
    },
    {
      "midi": 69,
      "time": 47.7,
      "duration": 0.15,
      "velocity": 0.72,
      "hand": "right"
    },
    {
      "midi": 35,
      "time": 48,
      "duration": 0.075,
      "velocity": 0.7,
      "hand": "left"
    },
    {
      "midi": 38,
      "time": 48,
      "duration": 0.6,
      "velocity": 0.84,
      "hand": "left"
    },
    {
      "midi": 42,
      "time": 48,
      "duration": 0.075,
      "velocity": 0.54,
      "hand": "left"
    },
    {
      "midi": 51,
      "time": 48,
      "duration": 0.075,
      "velocity": 0.53,
      "hand": "left"
    },
    {
      "midi": 57,
      "time": 48,
      "duration": 0.15,
      "velocity": 0.51,
      "hand": "left"
    },
    {
      "midi": 57,
      "time": 48,
      "duration": 0.9,
      "velocity": 0.7,
      "hand": "left"
    },
    {
      "midi": 57,
      "time": 48,
      "duration": 0.15,
      "velocity": 0.59,
      "hand": "left"
    },
    {
      "midi": 60,
      "time": 48,
      "duration": 0.075,
      "velocity": 0.54,
      "hand": "right"
    },
    {
      "midi": 60,
      "time": 48,
      "duration": 0.9,
      "velocity": 0.72,
      "hand": "right"
    },
    {
      "midi": 62,
      "time": 48,
      "duration": 1.05,
      "velocity": 0.68,
      "hand": "right"
    },
    {
      "midi": 64,
      "time": 48,
      "duration": 0.15,
      "velocity": 0.55,
      "hand": "right"
    },
    {
      "midi": 65,
      "time": 48,
      "duration": 1.05,
      "velocity": 0.58,
      "hand": "right"
    },
    {
      "midi": 67,
      "time": 48,
      "duration": 0.15,
      "velocity": 0.5,
      "hand": "right"
    },
    {
      "midi": 69,
      "time": 48,
      "duration": 0.15,
      "velocity": 0.59,
      "hand": "right"
    },
    {
      "midi": 57,
      "time": 48.15,
      "duration": 0.15,
      "velocity": 0.48,
      "hand": "left"
    },
    {
      "midi": 60,
      "time": 48.15,
      "duration": 0.075,
      "velocity": 0.53,
      "hand": "right"
    },
    {
      "midi": 64,
      "time": 48.15,
      "duration": 0.15,
      "velocity": 0.44,
      "hand": "right"
    },
    {
      "midi": 67,
      "time": 48.15,
      "duration": 0.075,
      "velocity": 0.31,
      "hand": "right"
    },
    {
      "midi": 38,
      "time": 48.3,
      "duration": 0.075,
      "velocity": 0.57,
      "hand": "left"
    },
    {
      "midi": 42,
      "time": 48.3,
      "duration": 0.075,
      "velocity": 0.61,
      "hand": "left"
    },
    {
      "midi": 51,
      "time": 48.3,
      "duration": 0.075,
      "velocity": 0.61,
      "hand": "left"
    },
    {
      "midi": 54,
      "time": 48.3,
      "duration": 0.075,
      "velocity": 0.57,
      "hand": "left"
    },
    {
      "midi": 57,
      "time": 48.3,
      "duration": 0.075,
      "velocity": 0.58,
      "hand": "left"
    },
    {
      "midi": 57,
      "time": 48.3,
      "duration": 0.3,
      "velocity": 0.57,
      "hand": "left"
    },
    {
      "midi": 60,
      "time": 48.3,
      "duration": 0.075,
      "velocity": 0.72,
      "hand": "right"
    },
    {
      "midi": 64,
      "time": 48.3,
      "duration": 0.075,
      "velocity": 0.57,
      "hand": "right"
    },
    {
      "midi": 67,
      "time": 48.3,
      "duration": 0.075,
      "velocity": 0.52,
      "hand": "right"
    },
    {
      "midi": 69,
      "time": 48.3,
      "duration": 0.3,
      "velocity": 0.57,
      "hand": "right"
    },
    {
      "midi": 70,
      "time": 48.3,
      "duration": 0.075,
      "velocity": 0.7,
      "hand": "right"
    },
    {
      "midi": 33,
      "time": 48.6,
      "duration": 0.45,
      "velocity": 0.97,
      "hand": "left"
    },
    {
      "midi": 35,
      "time": 48.6,
      "duration": 0.075,
      "velocity": 0.73,
      "hand": "left"
    },
    {
      "midi": 42,
      "time": 48.6,
      "duration": 0.075,
      "velocity": 0.57,
      "hand": "left"
    },
    {
      "midi": 51,
      "time": 48.6,
      "duration": 0.075,
      "velocity": 0.53,
      "hand": "left"
    },
    {
      "midi": 57,
      "time": 48.6,
      "duration": 0.15,
      "velocity": 0.63,
      "hand": "left"
    },
    {
      "midi": 59,
      "time": 48.6,
      "duration": 0.3,
      "velocity": 0.57,
      "hand": "left"
    },
    {
      "midi": 60,
      "time": 48.6,
      "duration": 0.15,
      "velocity": 0.68,
      "hand": "right"
    },
    {
      "midi": 64,
      "time": 48.6,
      "duration": 0.15,
      "velocity": 0.61,
      "hand": "right"
    },
    {
      "midi": 67,
      "time": 48.6,
      "duration": 0.15,
      "velocity": 0.51,
      "hand": "right"
    },
    {
      "midi": 70,
      "time": 48.6,
      "duration": 0.075,
      "velocity": 0.63,
      "hand": "right"
    },
    {
      "midi": 71,
      "time": 48.6,
      "duration": 0.3,
      "velocity": 0.57,
      "hand": "right"
    },
    {
      "midi": 38,
      "time": 48.9,
      "duration": 0.075,
      "velocity": 0.55,
      "hand": "left"
    },
    {
      "midi": 42,
      "time": 48.9,
      "duration": 0.075,
      "velocity": 0.56,
      "hand": "left"
    },
    {
      "midi": 51,
      "time": 48.9,
      "duration": 0.075,
      "velocity": 0.57,
      "hand": "left"
    },
    {
      "midi": 54,
      "time": 48.9,
      "duration": 0.075,
      "velocity": 0.5,
      "hand": "left"
    },
    {
      "midi": 57,
      "time": 48.9,
      "duration": 0.15,
      "velocity": 0.59,
      "hand": "left"
    },
    {
      "midi": 57,
      "time": 48.9,
      "duration": 0.3,
      "velocity": 0.54,
      "hand": "left"
    },
    {
      "midi": 60,
      "time": 48.9,
      "duration": 0.075,
      "velocity": 0.68,
      "hand": "right"
    },
    {
      "midi": 64,
      "time": 48.9,
      "duration": 0.15,
      "velocity": 0.61,
      "hand": "right"
    },
    {
      "midi": 67,
      "time": 48.9,
      "duration": 0.15,
      "velocity": 0.56,
      "hand": "right"
    },
    {
      "midi": 69,
      "time": 48.9,
      "duration": 0.3,
      "velocity": 0.54,
      "hand": "right"
    },
    {
      "midi": 70,
      "time": 48.9,
      "duration": 0.075,
      "velocity": 0.56,
      "hand": "right"
    },
    {
      "midi": 35,
      "time": 49.2,
      "duration": 0.075,
      "velocity": 0.72,
      "hand": "left"
    },
    {
      "midi": 38,
      "time": 49.2,
      "duration": 0.6,
      "velocity": 0.98,
      "hand": "left"
    },
    {
      "midi": 42,
      "time": 49.2,
      "duration": 0.075,
      "velocity": 0.54,
      "hand": "left"
    },
    {
      "midi": 51,
      "time": 49.2,
      "duration": 0.075,
      "velocity": 0.46,
      "hand": "left"
    },
    {
      "midi": 53,
      "time": 49.2,
      "duration": 0.45,
      "velocity": 0.57,
      "hand": "left"
    },
    {
      "midi": 55,
      "time": 49.2,
      "duration": 0.75,
      "velocity": 0.55,
      "hand": "left"
    },
    {
      "midi": 55,
      "time": 49.2,
      "duration": 0.9,
      "velocity": 0.61,
      "hand": "left"
    },
    {
      "midi": 55,
      "time": 49.2,
      "duration": 0.15,
      "velocity": 0.64,
      "hand": "left"
    },
    {
      "midi": 57,
      "time": 49.2,
      "duration": 0.45,
      "velocity": 0.56,
      "hand": "left"
    },
    {
      "midi": 59,
      "time": 49.2,
      "duration": 0.45,
      "velocity": 0.56,
      "hand": "left"
    },
    {
      "midi": 59,
      "time": 49.2,
      "duration": 0.75,
      "velocity": 0.53,
      "hand": "left"
    },
    {
      "midi": 59,
      "time": 49.2,
      "duration": 0.9,
      "velocity": 0.54,
      "hand": "left"
    },
    {
      "midi": 62,
      "time": 49.2,
      "duration": 1.05,
      "velocity": 0.59,
      "hand": "right"
    },
    {
      "midi": 64,
      "time": 49.2,
      "duration": 0.45,
      "velocity": 0.54,
      "hand": "right"
    },
    {
      "midi": 65,
      "time": 49.2,
      "duration": 0.9,
      "velocity": 0.55,
      "hand": "right"
    },
    {
      "midi": 67,
      "time": 49.2,
      "duration": 0.15,
      "velocity": 0.64,
      "hand": "right"
    },
    {
      "midi": 70,
      "time": 49.2,
      "duration": 0.075,
      "velocity": 0.73,
      "hand": "right"
    },
    {
      "midi": 38,
      "time": 49.5,
      "duration": 0.075,
      "velocity": 0.56,
      "hand": "left"
    },
    {
      "midi": 42,
      "time": 49.5,
      "duration": 0.075,
      "velocity": 0.46,
      "hand": "left"
    },
    {
      "midi": 51,
      "time": 49.5,
      "duration": 0.075,
      "velocity": 0.52,
      "hand": "left"
    },
    {
      "midi": 54,
      "time": 49.5,
      "duration": 0.075,
      "velocity": 0.56,
      "hand": "left"
    },
    {
      "midi": 55,
      "time": 49.5,
      "duration": 0.3,
      "velocity": 0.52,
      "hand": "left"
    },
    {
      "midi": 59,
      "time": 49.5,
      "duration": 0.075,
      "velocity": 0.61,
      "hand": "left"
    },
    {
      "midi": 62,
      "time": 49.5,
      "duration": 0.075,
      "velocity": 0.68,
      "hand": "right"
    },
    {
      "midi": 64,
      "time": 49.5,
      "duration": 0.075,
      "velocity": 0.69,
      "hand": "right"
    },
    {
      "midi": 67,
      "time": 49.5,
      "duration": 0.3,
      "velocity": 0.52,
      "hand": "right"
    },
    {
      "midi": 69,
      "time": 49.5,
      "duration": 0.15,
      "velocity": 0.63,
      "hand": "right"
    },
    {
      "midi": 35,
      "time": 49.8,
      "duration": 0.075,
      "velocity": 0.7,
      "hand": "left"
    },
    {
      "midi": 38,
      "time": 49.8,
      "duration": 0.6,
      "velocity": 0.94,
      "hand": "left"
    },
    {
      "midi": 42,
      "time": 49.8,
      "duration": 0.075,
      "velocity": 0.5,
      "hand": "left"
    },
    {
      "midi": 51,
      "time": 49.8,
      "duration": 0.075,
      "velocity": 0.54,
      "hand": "left"
    },
    {
      "midi": 52,
      "time": 49.8,
      "duration": 0.3,
      "velocity": 0.63,
      "hand": "left"
    },
    {
      "midi": 53,
      "time": 49.8,
      "duration": 0.15,
      "velocity": 0.63,
      "hand": "left"
    },
    {
      "midi": 57,
      "time": 49.8,
      "duration": 0.15,
      "velocity": 0.56,
      "hand": "left"
    },
    {
      "midi": 59,
      "time": 49.8,
      "duration": 0.15,
      "velocity": 0.57,
      "hand": "left"
    },
    {
      "midi": 64,
      "time": 49.8,
      "duration": 0.15,
      "velocity": 0.56,
      "hand": "right"
    },
    {
      "midi": 64,
      "time": 49.8,
      "duration": 0.3,
      "velocity": 0.63,
      "hand": "right"
    },
    {
      "midi": 38,
      "time": 50.1,
      "duration": 0.075,
      "velocity": 0.53,
      "hand": "left"
    },
    {
      "midi": 42,
      "time": 50.1,
      "duration": 0.075,
      "velocity": 0.54,
      "hand": "left"
    },
    {
      "midi": 51,
      "time": 50.1,
      "duration": 0.075,
      "velocity": 0.54,
      "hand": "left"
    },
    {
      "midi": 54,
      "time": 50.1,
      "duration": 0.075,
      "velocity": 0.57,
      "hand": "left"
    },
    {
      "midi": 55,
      "time": 50.1,
      "duration": 0.15,
      "velocity": 0.54,
      "hand": "left"
    },
    {
      "midi": 59,
      "time": 50.1,
      "duration": 0.075,
      "velocity": 0.7,
      "hand": "left"
    },
    {
      "midi": 62,
      "time": 50.1,
      "duration": 0.075,
      "velocity": 0.72,
      "hand": "right"
    },
    {
      "midi": 64,
      "time": 50.1,
      "duration": 0.075,
      "velocity": 0.58,
      "hand": "right"
    },
    {
      "midi": 65,
      "time": 50.1,
      "duration": 0.075,
      "velocity": 0.35,
      "hand": "right"
    },
    {
      "midi": 67,
      "time": 50.1,
      "duration": 0.15,
      "velocity": 0.54,
      "hand": "right"
    },
    {
      "midi": 69,
      "time": 50.1,
      "duration": 0.15,
      "velocity": 0.68,
      "hand": "right"
    },
    {
      "midi": 35,
      "time": 50.4,
      "duration": 0.075,
      "velocity": 0.69,
      "hand": "left"
    },
    {
      "midi": 37,
      "time": 50.4,
      "duration": 0.45,
      "velocity": 0.94,
      "hand": "left"
    },
    {
      "midi": 42,
      "time": 50.4,
      "duration": 0.075,
      "velocity": 0.54,
      "hand": "left"
    },
    {
      "midi": 51,
      "time": 50.4,
      "duration": 0.075,
      "velocity": 0.51,
      "hand": "left"
    },
    {
      "midi": 53,
      "time": 50.4,
      "duration": 0.15,
      "velocity": 0.65,
      "hand": "left"
    },
    {
      "midi": 56,
      "time": 50.4,
      "duration": 0.45,
      "velocity": 0.5,
      "hand": "left"
    },
    {
      "midi": 57,
      "time": 50.4,
      "duration": 0.15,
      "velocity": 0.57,
      "hand": "left"
    },
    {
      "midi": 57,
      "time": 50.4,
      "duration": 0.45,
      "velocity": 0.54,
      "hand": "left"
    },
    {
      "midi": 60,
      "time": 50.4,
      "duration": 0.15,
      "velocity": 0.58,
      "hand": "right"
    },
    {
      "midi": 60,
      "time": 50.4,
      "duration": 0.3,
      "velocity": 0.58,
      "hand": "right"
    },
    {
      "midi": 60,
      "time": 50.4,
      "duration": 0.45,
      "velocity": 0.57,
      "hand": "right"
    },
    {
      "midi": 62,
      "time": 50.4,
      "duration": 0.3,
      "velocity": 0.57,
      "hand": "right"
    },
    {
      "midi": 62,
      "time": 50.4,
      "duration": 0.45,
      "velocity": 0.45,
      "hand": "right"
    },
    {
      "midi": 64,
      "time": 50.4,
      "duration": 0.15,
      "velocity": 0.54,
      "hand": "right"
    },
    {
      "midi": 65,
      "time": 50.4,
      "duration": 0.15,
      "velocity": 0.65,
      "hand": "right"
    },
    {
      "midi": 65,
      "time": 50.4,
      "duration": 0.3,
      "velocity": 0.55,
      "hand": "right"
    },
    {
      "midi": 65,
      "time": 50.4,
      "duration": 0.45,
      "velocity": 0.51,
      "hand": "right"
    },
    {
      "midi": 65,
      "time": 50.4,
      "duration": 0.15,
      "velocity": 0.65,
      "hand": "right"
    },
    {
      "midi": 67,
      "time": 50.4,
      "duration": 0.15,
      "velocity": 0.5,
      "hand": "right"
    },
    {
      "midi": 38,
      "time": 50.7,
      "duration": 0.075,
      "velocity": 0.54,
      "hand": "left"
    },
    {
      "midi": 42,
      "time": 50.7,
      "duration": 0.075,
      "velocity": 0.57,
      "hand": "left"
    },
    {
      "midi": 51,
      "time": 50.7,
      "duration": 0.075,
      "velocity": 0.55,
      "hand": "left"
    },
    {
      "midi": 53,
      "time": 50.7,
      "duration": 0.3,
      "velocity": 0.54,
      "hand": "left"
    },
    {
      "midi": 54,
      "time": 50.7,
      "duration": 0.075,
      "velocity": 0.54,
      "hand": "left"
    },
    {
      "midi": 57,
      "time": 50.7,
      "duration": 0.15,
      "velocity": 0.54,
      "hand": "left"
    },
    {
      "midi": 57,
      "time": 50.7,
      "duration": 0.075,
      "velocity": 0.64,
      "hand": "left"
    },
    {
      "midi": 60,
      "time": 50.7,
      "duration": 0.15,
      "velocity": 0.53,
      "hand": "right"
    },
    {
      "midi": 60,
      "time": 50.7,
      "duration": 0.075,
      "velocity": 0.7,
      "hand": "right"
    },
    {
      "midi": 64,
      "time": 50.7,
      "duration": 0.15,
      "velocity": 0.52,
      "hand": "right"
    },
    {
      "midi": 64,
      "time": 50.7,
      "duration": 0.075,
      "velocity": 0.54,
      "hand": "right"
    },
    {
      "midi": 65,
      "time": 50.7,
      "duration": 0.075,
      "velocity": 0.51,
      "hand": "right"
    },
    {
      "midi": 65,
      "time": 50.7,
      "duration": 0.3,
      "velocity": 0.54,
      "hand": "right"
    },
    {
      "midi": 67,
      "time": 50.7,
      "duration": 0.15,
      "velocity": 0.39,
      "hand": "right"
    },
    {
      "midi": 67,
      "time": 50.7,
      "duration": 0.075,
      "velocity": 0.61,
      "hand": "right"
    },
    {
      "midi": 70,
      "time": 50.7,
      "duration": 0.075,
      "velocity": 0.72,
      "hand": "right"
    },
    {
      "midi": 35,
      "time": 51,
      "duration": 0.075,
      "velocity": 0.56,
      "hand": "left"
    },
    {
      "midi": 37,
      "time": 51,
      "duration": 0.6,
      "velocity": 0.98,
      "hand": "left"
    },
    {
      "midi": 42,
      "time": 51,
      "duration": 0.075,
      "velocity": 0.57,
      "hand": "left"
    },
    {
      "midi": 51,
      "time": 51,
      "duration": 0.075,
      "velocity": 0.5,
      "hand": "left"
    },
    {
      "midi": 52,
      "time": 51,
      "duration": 0.3,
      "velocity": 0.61,
      "hand": "left"
    },
    {
      "midi": 55,
      "time": 51,
      "duration": 0.3,
      "velocity": 0.56,
      "hand": "left"
    },
    {
      "midi": 56,
      "time": 51,
      "duration": 0.15,
      "velocity": 0.55,
      "hand": "left"
    },
    {
      "midi": 56,
      "time": 51,
      "duration": 0.45,
      "velocity": 0.46,
      "hand": "left"
    },
    {
      "midi": 58,
      "time": 51,
      "duration": 0.075,
      "velocity": 0.44,
      "hand": "left"
    },
    {
      "midi": 59,
      "time": 51,
      "duration": 0.15,
      "velocity": 0.55,
      "hand": "left"
    },
    {
      "midi": 59,
      "time": 51,
      "duration": 0.3,
      "velocity": 0.52,
      "hand": "left"
    },
    {
      "midi": 62,
      "time": 51,
      "duration": 0.45,
      "velocity": 0.54,
      "hand": "right"
    },
    {
      "midi": 63,
      "time": 51,
      "duration": 0.15,
      "velocity": 0.51,
      "hand": "right"
    },
    {
      "midi": 63,
      "time": 51,
      "duration": 0.45,
      "velocity": 0.54,
      "hand": "right"
    },
    {
      "midi": 64,
      "time": 51,
      "duration": 0.3,
      "velocity": 0.61,
      "hand": "right"
    },
    {
      "midi": 65,
      "time": 51,
      "duration": 0.45,
      "velocity": 0.5,
      "hand": "right"
    },
    {
      "midi": 67,
      "time": 51,
      "duration": 0.15,
      "velocity": 0.37,
      "hand": "right"
    },
    {
      "midi": 67,
      "time": 51,
      "duration": 0.45,
      "velocity": 0.36,
      "hand": "right"
    },
    {
      "midi": 68,
      "time": 51,
      "duration": 0.15,
      "velocity": 0.37,
      "hand": "right"
    },
    {
      "midi": 70,
      "time": 51,
      "duration": 0.075,
      "velocity": 0.69,
      "hand": "right"
    },
    {
      "midi": 38,
      "time": 51.3,
      "duration": 0.075,
      "velocity": 0.55,
      "hand": "left"
    },
    {
      "midi": 42,
      "time": 51.3,
      "duration": 0.075,
      "velocity": 0.54,
      "hand": "left"
    },
    {
      "midi": 50,
      "time": 51.3,
      "duration": 0.3,
      "velocity": 0.57,
      "hand": "left"
    },
    {
      "midi": 51,
      "time": 51.3,
      "duration": 0.075,
      "velocity": 0.54,
      "hand": "left"
    },
    {
      "midi": 54,
      "time": 51.3,
      "duration": 0.075,
      "velocity": 0.64,
      "hand": "left"
    },
    {
      "midi": 56,
      "time": 51.3,
      "duration": 0.15,
      "velocity": 0.53,
      "hand": "left"
    },
    {
      "midi": 59,
      "time": 51.3,
      "duration": 0.15,
      "velocity": 0.55,
      "hand": "left"
    },
    {
      "midi": 62,
      "time": 51.3,
      "duration": 0.3,
      "velocity": 0.57,
      "hand": "right"
    },
    {
      "midi": 63,
      "time": 51.3,
      "duration": 0.15,
      "velocity": 0.43,
      "hand": "right"
    },
    {
      "midi": 67,
      "time": 51.3,
      "duration": 0.15,
      "velocity": 0.49,
      "hand": "right"
    },
    {
      "midi": 70,
      "time": 51.3,
      "duration": 0.075,
      "velocity": 0.7,
      "hand": "right"
    },
    {
      "midi": 35,
      "time": 51.6,
      "duration": 0.075,
      "velocity": 0.56,
      "hand": "left"
    },
    {
      "midi": 36,
      "time": 51.6,
      "duration": 0.6,
      "velocity": 0.8,
      "hand": "left"
    },
    {
      "midi": 42,
      "time": 51.6,
      "duration": 0.075,
      "velocity": 0.65,
      "hand": "left"
    },
    {
      "midi": 48,
      "time": 51.6,
      "duration": 0.75,
      "velocity": 0.72,
      "hand": "left"
    },
    {
      "midi": 51,
      "time": 51.6,
      "duration": 0.075,
      "velocity": 0.57,
      "hand": "left"
    },
    {
      "midi": 57,
      "time": 51.6,
      "duration": 0.6,
      "velocity": 0.53,
      "hand": "left"
    },
    {
      "midi": 57,
      "time": 51.6,
      "duration": 0.9,
      "velocity": 0.54,
      "hand": "left"
    },
    {
      "midi": 62,
      "time": 51.6,
      "duration": 0.6,
      "velocity": 0.55,
      "hand": "right"
    },
    {
      "midi": 62,
      "time": 51.6,
      "duration": 0.9,
      "velocity": 0.46,
      "hand": "right"
    },
    {
      "midi": 64,
      "time": 51.6,
      "duration": 0.75,
      "velocity": 0.72,
      "hand": "right"
    },
    {
      "midi": 67,
      "time": 51.6,
      "duration": 0.6,
      "velocity": 0.54,
      "hand": "right"
    },
    {
      "midi": 67,
      "time": 51.6,
      "duration": 0.9,
      "velocity": 0.5,
      "hand": "right"
    },
    {
      "midi": 67,
      "time": 51.6,
      "duration": 0.75,
      "velocity": 0.72,
      "hand": "right"
    },
    {
      "midi": 70,
      "time": 51.6,
      "duration": 0.075,
      "velocity": 0.72,
      "hand": "right"
    },
    {
      "midi": 38,
      "time": 51.9,
      "duration": 0.075,
      "velocity": 0.54,
      "hand": "left"
    },
    {
      "midi": 42,
      "time": 51.9,
      "duration": 0.075,
      "velocity": 0.58,
      "hand": "left"
    },
    {
      "midi": 51,
      "time": 51.9,
      "duration": 0.075,
      "velocity": 0.54,
      "hand": "left"
    },
    {
      "midi": 54,
      "time": 51.9,
      "duration": 0.075,
      "velocity": 0.56,
      "hand": "left"
    },
    {
      "midi": 57,
      "time": 51.9,
      "duration": 0.075,
      "velocity": 0.57,
      "hand": "left"
    },
    {
      "midi": 62,
      "time": 51.9,
      "duration": 0.075,
      "velocity": 0.72,
      "hand": "right"
    },
    {
      "midi": 67,
      "time": 51.9,
      "duration": 0.15,
      "velocity": 0.56,
      "hand": "right"
    },
    {
      "midi": 31,
      "time": 52.2,
      "duration": 0.6,
      "velocity": 0.79,
      "hand": "left"
    },
    {
      "midi": 35,
      "time": 52.2,
      "duration": 0.075,
      "velocity": 0.61,
      "hand": "left"
    },
    {
      "midi": 42,
      "time": 52.2,
      "duration": 0.075,
      "velocity": 0.55,
      "hand": "left"
    },
    {
      "midi": 51,
      "time": 52.2,
      "duration": 0.075,
      "velocity": 0.61,
      "hand": "left"
    },
    {
      "midi": 57,
      "time": 52.2,
      "duration": 0.075,
      "velocity": 0.57,
      "hand": "left"
    },
    {
      "midi": 62,
      "time": 52.2,
      "duration": 0.075,
      "velocity": 0.61,
      "hand": "right"
    },
    {
      "midi": 67,
      "time": 52.2,
      "duration": 0.15,
      "velocity": 0.54,
      "hand": "right"
    },
    {
      "midi": 38,
      "time": 52.5,
      "duration": 0.075,
      "velocity": 0.56,
      "hand": "left"
    },
    {
      "midi": 42,
      "time": 52.5,
      "duration": 0.075,
      "velocity": 0.55,
      "hand": "left"
    },
    {
      "midi": 51,
      "time": 52.5,
      "duration": 0.075,
      "velocity": 0.56,
      "hand": "left"
    },
    {
      "midi": 52,
      "time": 52.5,
      "duration": 0.3,
      "velocity": 0.72,
      "hand": "left"
    },
    {
      "midi": 54,
      "time": 52.5,
      "duration": 0.075,
      "velocity": 0.58,
      "hand": "left"
    },
    {
      "midi": 57,
      "time": 52.5,
      "duration": 0.075,
      "velocity": 0.57,
      "hand": "left"
    },
    {
      "midi": 62,
      "time": 52.5,
      "duration": 0.075,
      "velocity": 0.65,
      "hand": "right"
    },
    {
      "midi": 64,
      "time": 52.5,
      "duration": 0.3,
      "velocity": 0.72,
      "hand": "right"
    },
    {
      "midi": 67,
      "time": 52.5,
      "duration": 0.15,
      "velocity": 0.57,
      "hand": "right"
    },
    {
      "midi": 35,
      "time": 52.8,
      "duration": 0.075,
      "velocity": 0.7,
      "hand": "left"
    },
    {
      "midi": 36,
      "time": 52.8,
      "duration": 0.6,
      "velocity": 0.96,
      "hand": "left"
    },
    {
      "midi": 42,
      "time": 52.8,
      "duration": 0.075,
      "velocity": 0.54,
      "hand": "left"
    },
    {
      "midi": 51,
      "time": 52.8,
      "duration": 0.075,
      "velocity": 0.53,
      "hand": "left"
    },
    {
      "midi": 55,
      "time": 52.8,
      "duration": 0.15,
      "velocity": 0.79,
      "hand": "left"
    },
    {
      "midi": 57,
      "time": 52.8,
      "duration": 0.6,
      "velocity": 0.43,
      "hand": "left"
    },
    {
      "midi": 57,
      "time": 52.8,
      "duration": 1.8,
      "velocity": 0.55,
      "hand": "left"
    },
    {
      "midi": 57,
      "time": 52.8,
      "duration": 2.1,
      "velocity": 0.69,
      "hand": "left"
    },
    {
      "midi": 57,
      "time": 52.8,
      "duration": 0.15,
      "velocity": 0.81,
      "hand": "left"
    },
    {
      "midi": 62,
      "time": 52.8,
      "duration": 0.6,
      "velocity": 0.48,
      "hand": "right"
    },
    {
      "midi": 62,
      "time": 52.8,
      "duration": 1.95,
      "velocity": 0.57,
      "hand": "right"
    },
    {
      "midi": 62,
      "time": 52.8,
      "duration": 2.1,
      "velocity": 0.72,
      "hand": "right"
    },
    {
      "midi": 67,
      "time": 52.8,
      "duration": 0.6,
      "velocity": 0.43,
      "hand": "right"
    },
    {
      "midi": 67,
      "time": 52.8,
      "duration": 0.15,
      "velocity": 0.79,
      "hand": "right"
    },
    {
      "midi": 67,
      "time": 52.8,
      "duration": 2.1,
      "velocity": 0.58,
      "hand": "right"
    },
    {
      "midi": 67,
      "time": 52.8,
      "duration": 0.15,
      "velocity": 0.79,
      "hand": "right"
    },
    {
      "midi": 38,
      "time": 53.1,
      "duration": 0.075,
      "velocity": 0.57,
      "hand": "left"
    },
    {
      "midi": 42,
      "time": 53.1,
      "duration": 0.075,
      "velocity": 0.61,
      "hand": "left"
    },
    {
      "midi": 51,
      "time": 53.1,
      "duration": 0.075,
      "velocity": 0.61,
      "hand": "left"
    },
    {
      "midi": 54,
      "time": 53.1,
      "duration": 0.075,
      "velocity": 0.57,
      "hand": "left"
    },
    {
      "midi": 55,
      "time": 53.1,
      "duration": 0.3,
      "velocity": 0.54,
      "hand": "left"
    },
    {
      "midi": 57,
      "time": 53.1,
      "duration": 0.15,
      "velocity": 0.64,
      "hand": "left"
    },
    {
      "midi": 62,
      "time": 53.1,
      "duration": 0.075,
      "velocity": 0.7,
      "hand": "right"
    },
    {
      "midi": 67,
      "time": 53.1,
      "duration": 0.15,
      "velocity": 0.54,
      "hand": "right"
    },
    {
      "midi": 67,
      "time": 53.1,
      "duration": 0.3,
      "velocity": 0.54,
      "hand": "right"
    },
    {
      "midi": 70,
      "time": 53.1,
      "duration": 0.075,
      "velocity": 0.7,
      "hand": "right"
    },
    {
      "midi": 31,
      "time": 53.4,
      "duration": 0.6,
      "velocity": 0.96,
      "hand": "left"
    },
    {
      "midi": 35,
      "time": 53.4,
      "duration": 0.075,
      "velocity": 0.73,
      "hand": "left"
    },
    {
      "midi": 42,
      "time": 53.4,
      "duration": 0.075,
      "velocity": 0.57,
      "hand": "left"
    },
    {
      "midi": 51,
      "time": 53.4,
      "duration": 0.075,
      "velocity": 0.53,
      "hand": "left"
    },
    {
      "midi": 52,
      "time": 53.4,
      "duration": 0.3,
      "velocity": 0.59,
      "hand": "left"
    },
    {
      "midi": 57,
      "time": 53.4,
      "duration": 0.45,
      "velocity": 0.43,
      "hand": "left"
    },
    {
      "midi": 62,
      "time": 53.4,
      "duration": 0.45,
      "velocity": 0.49,
      "hand": "right"
    },
    {
      "midi": 64,
      "time": 53.4,
      "duration": 0.3,
      "velocity": 0.59,
      "hand": "right"
    },
    {
      "midi": 67,
      "time": 53.4,
      "duration": 0.45,
      "velocity": 0.49,
      "hand": "right"
    },
    {
      "midi": 70,
      "time": 53.4,
      "duration": 0.075,
      "velocity": 0.63,
      "hand": "right"
    },
    {
      "midi": 38,
      "time": 53.7,
      "duration": 0.075,
      "velocity": 0.55,
      "hand": "left"
    },
    {
      "midi": 42,
      "time": 53.7,
      "duration": 0.075,
      "velocity": 0.56,
      "hand": "left"
    },
    {
      "midi": 51,
      "time": 53.7,
      "duration": 0.075,
      "velocity": 0.57,
      "hand": "left"
    },
    {
      "midi": 53,
      "time": 53.7,
      "duration": 0.3,
      "velocity": 0.61,
      "hand": "left"
    },
    {
      "midi": 54,
      "time": 53.7,
      "duration": 0.075,
      "velocity": 0.5,
      "hand": "left"
    },
    {
      "midi": 57,
      "time": 53.7,
      "duration": 0.075,
      "velocity": 0.64,
      "hand": "left"
    },
    {
      "midi": 62,
      "time": 53.7,
      "duration": 0.075,
      "velocity": 0.72,
      "hand": "right"
    },
    {
      "midi": 65,
      "time": 53.7,
      "duration": 0.3,
      "velocity": 0.61,
      "hand": "right"
    },
    {
      "midi": 67,
      "time": 53.7,
      "duration": 0.075,
      "velocity": 0.56,
      "hand": "right"
    },
    {
      "midi": 70,
      "time": 53.7,
      "duration": 0.075,
      "velocity": 0.56,
      "hand": "right"
    },
    {
      "midi": 35,
      "time": 54,
      "duration": 0.075,
      "velocity": 0.72,
      "hand": "left"
    },
    {
      "midi": 36,
      "time": 54,
      "duration": 0.6,
      "velocity": 0.96,
      "hand": "left"
    },
    {
      "midi": 42,
      "time": 54,
      "duration": 0.075,
      "velocity": 0.54,
      "hand": "left"
    },
    {
      "midi": 51,
      "time": 54,
      "duration": 0.075,
      "velocity": 0.46,
      "hand": "left"
    },
    {
      "midi": 55,
      "time": 54,
      "duration": 0.3,
      "velocity": 0.54,
      "hand": "left"
    },
    {
      "midi": 57,
      "time": 54,
      "duration": 0.6,
      "velocity": 0.56,
      "hand": "left"
    },
    {
      "midi": 62,
      "time": 54,
      "duration": 0.6,
      "velocity": 0.59,
      "hand": "right"
    },
    {
      "midi": 67,
      "time": 54,
      "duration": 0.6,
      "velocity": 0.61,
      "hand": "right"
    },
    {
      "midi": 67,
      "time": 54,
      "duration": 0.3,
      "velocity": 0.54,
      "hand": "right"
    },
    {
      "midi": 70,
      "time": 54,
      "duration": 0.075,
      "velocity": 0.73,
      "hand": "right"
    },
    {
      "midi": 38,
      "time": 54.3,
      "duration": 0.075,
      "velocity": 0.56,
      "hand": "left"
    },
    {
      "midi": 42,
      "time": 54.3,
      "duration": 0.075,
      "velocity": 0.46,
      "hand": "left"
    },
    {
      "midi": 51,
      "time": 54.3,
      "duration": 0.075,
      "velocity": 0.52,
      "hand": "left"
    },
    {
      "midi": 54,
      "time": 54.3,
      "duration": 0.075,
      "velocity": 0.56,
      "hand": "left"
    },
    {
      "midi": 55,
      "time": 54.3,
      "duration": 0.15,
      "velocity": 0.72,
      "hand": "left"
    },
    {
      "midi": 57,
      "time": 54.3,
      "duration": 0.15,
      "velocity": 0.72,
      "hand": "left"
    },
    {
      "midi": 62,
      "time": 54.3,
      "duration": 0.075,
      "velocity": 0.72,
      "hand": "right"
    },
    {
      "midi": 67,
      "time": 54.3,
      "duration": 0.075,
      "velocity": 0.57,
      "hand": "right"
    },
    {
      "midi": 67,
      "time": 54.3,
      "duration": 0.15,
      "velocity": 0.72,
      "hand": "right"
    },
    {
      "midi": 31,
      "time": 54.6,
      "duration": 0.6,
      "velocity": 0.96,
      "hand": "left"
    },
    {
      "midi": 35,
      "time": 54.6,
      "duration": 0.075,
      "velocity": 0.7,
      "hand": "left"
    },
    {
      "midi": 42,
      "time": 54.6,
      "duration": 0.075,
      "velocity": 0.5,
      "hand": "left"
    },
    {
      "midi": 51,
      "time": 54.6,
      "duration": 0.075,
      "velocity": 0.54,
      "hand": "left"
    },
    {
      "midi": 55,
      "time": 54.6,
      "duration": 0.15,
      "velocity": 0.61,
      "hand": "left"
    },
    {
      "midi": 57,
      "time": 54.6,
      "duration": 0.15,
      "velocity": 0.5,
      "hand": "left"
    },
    {
      "midi": 62,
      "time": 54.6,
      "duration": 0.15,
      "velocity": 0.52,
      "hand": "right"
    },
    {
      "midi": 67,
      "time": 54.6,
      "duration": 0.15,
      "velocity": 0.5,
      "hand": "right"
    },
    {
      "midi": 38,
      "time": 54.9,
      "duration": 0.075,
      "velocity": 0.53,
      "hand": "left"
    },
    {
      "midi": 42,
      "time": 54.9,
      "duration": 0.075,
      "velocity": 0.54,
      "hand": "left"
    },
    {
      "midi": 51,
      "time": 54.9,
      "duration": 0.075,
      "velocity": 0.54,
      "hand": "left"
    },
    {
      "midi": 54,
      "time": 54.9,
      "duration": 0.075,
      "velocity": 0.57,
      "hand": "left"
    },
    {
      "midi": 55,
      "time": 54.9,
      "duration": 0.15,
      "velocity": 0.56,
      "hand": "left"
    },
    {
      "midi": 57,
      "time": 54.9,
      "duration": 0.15,
      "velocity": 0.51,
      "hand": "left"
    },
    {
      "midi": 62,
      "time": 54.9,
      "duration": 0.075,
      "velocity": 0.57,
      "hand": "right"
    },
    {
      "midi": 67,
      "time": 54.9,
      "duration": 0.15,
      "velocity": 0.51,
      "hand": "right"
    },
    {
      "midi": 35,
      "time": 55.2,
      "duration": 0.075,
      "velocity": 0.69,
      "hand": "left"
    },
    {
      "midi": 40,
      "time": 55.2,
      "duration": 0.6,
      "velocity": 0.96,
      "hand": "left"
    },
    {
      "midi": 42,
      "time": 55.2,
      "duration": 0.075,
      "velocity": 0.54,
      "hand": "left"
    },
    {
      "midi": 51,
      "time": 55.2,
      "duration": 0.075,
      "velocity": 0.51,
      "hand": "left"
    },
    {
      "midi": 57,
      "time": 55.2,
      "duration": 0.3,
      "velocity": 0.72,
      "hand": "left"
    },
    {
      "midi": 59,
      "time": 55.2,
      "duration": 0.15,
      "velocity": 0.61,
      "hand": "left"
    },
    {
      "midi": 59,
      "time": 55.2,
      "duration": 0.3,
      "velocity": 0.57,
      "hand": "left"
    },
    {
      "midi": 62,
      "time": 55.2,
      "duration": 0.15,
      "velocity": 0.57,
      "hand": "right"
    },
    {
      "midi": 62,
      "time": 55.2,
      "duration": 0.3,
      "velocity": 0.57,
      "hand": "right"
    },
    {
      "midi": 64,
      "time": 55.2,
      "duration": 0.15,
      "velocity": 0.63,
      "hand": "right"
    },
    {
      "midi": 64,
      "time": 55.2,
      "duration": 0.3,
      "velocity": 0.59,
      "hand": "right"
    },
    {
      "midi": 67,
      "time": 55.2,
      "duration": 0.15,
      "velocity": 0.54,
      "hand": "right"
    },
    {
      "midi": 67,
      "time": 55.2,
      "duration": 0.3,
      "velocity": 0.54,
      "hand": "right"
    },
    {
      "midi": 69,
      "time": 55.2,
      "duration": 0.3,
      "velocity": 0.72,
      "hand": "right"
    },
    {
      "midi": 38,
      "time": 55.5,
      "duration": 0.075,
      "velocity": 0.54,
      "hand": "left"
    },
    {
      "midi": 42,
      "time": 55.5,
      "duration": 0.075,
      "velocity": 0.57,
      "hand": "left"
    },
    {
      "midi": 51,
      "time": 55.5,
      "duration": 0.075,
      "velocity": 0.55,
      "hand": "left"
    },
    {
      "midi": 54,
      "time": 55.5,
      "duration": 0.075,
      "velocity": 0.54,
      "hand": "left"
    },
    {
      "midi": 55,
      "time": 55.5,
      "duration": 0.3,
      "velocity": 0.65,
      "hand": "left"
    },
    {
      "midi": 59,
      "time": 55.5,
      "duration": 0.15,
      "velocity": 0.59,
      "hand": "left"
    },
    {
      "midi": 62,
      "time": 55.5,
      "duration": 0.15,
      "velocity": 0.57,
      "hand": "right"
    },
    {
      "midi": 62,
      "time": 55.5,
      "duration": 0.075,
      "velocity": 0.57,
      "hand": "right"
    },
    {
      "midi": 64,
      "time": 55.5,
      "duration": 0.15,
      "velocity": 0.61,
      "hand": "right"
    },
    {
      "midi": 67,
      "time": 55.5,
      "duration": 0.15,
      "velocity": 0.57,
      "hand": "right"
    },
    {
      "midi": 67,
      "time": 55.5,
      "duration": 0.3,
      "velocity": 0.65,
      "hand": "right"
    },
    {
      "midi": 70,
      "time": 55.5,
      "duration": 0.075,
      "velocity": 0.72,
      "hand": "right"
    },
    {
      "midi": 35,
      "time": 55.8,
      "duration": 0.075,
      "velocity": 0.56,
      "hand": "left"
    },
    {
      "midi": 39,
      "time": 55.8,
      "duration": 0.45,
      "velocity": 0.96,
      "hand": "left"
    },
    {
      "midi": 42,
      "time": 55.8,
      "duration": 0.075,
      "velocity": 0.57,
      "hand": "left"
    },
    {
      "midi": 51,
      "time": 55.8,
      "duration": 0.075,
      "velocity": 0.5,
      "hand": "left"
    },
    {
      "midi": 53,
      "time": 55.8,
      "duration": 0.3,
      "velocity": 0.58,
      "hand": "left"
    },
    {
      "midi": 58,
      "time": 55.8,
      "duration": 0.3,
      "velocity": 0.72,
      "hand": "left"
    },
    {
      "midi": 58,
      "time": 55.8,
      "duration": 0.15,
      "velocity": 0.61,
      "hand": "left"
    },
    {
      "midi": 58,
      "time": 55.8,
      "duration": 0.45,
      "velocity": 0.57,
      "hand": "left"
    },
    {
      "midi": 61,
      "time": 55.8,
      "duration": 0.3,
      "velocity": 0.61,
      "hand": "right"
    },
    {
      "midi": 61,
      "time": 55.8,
      "duration": 0.15,
      "velocity": 0.56,
      "hand": "right"
    },
    {
      "midi": 61,
      "time": 55.8,
      "duration": 0.45,
      "velocity": 0.58,
      "hand": "right"
    },
    {
      "midi": 63,
      "time": 55.8,
      "duration": 0.3,
      "velocity": 0.58,
      "hand": "right"
    },
    {
      "midi": 63,
      "time": 55.8,
      "duration": 0.15,
      "velocity": 0.57,
      "hand": "right"
    },
    {
      "midi": 63,
      "time": 55.8,
      "duration": 0.45,
      "velocity": 0.58,
      "hand": "right"
    },
    {
      "midi": 65,
      "time": 55.8,
      "duration": 0.3,
      "velocity": 0.58,
      "hand": "right"
    },
    {
      "midi": 66,
      "time": 55.8,
      "duration": 0.45,
      "velocity": 0.56,
      "hand": "right"
    },
    {
      "midi": 68,
      "time": 55.8,
      "duration": 0.3,
      "velocity": 0.61,
      "hand": "right"
    },
    {
      "midi": 68,
      "time": 55.8,
      "duration": 0.15,
      "velocity": 0.54,
      "hand": "right"
    },
    {
      "midi": 68,
      "time": 55.8,
      "duration": 0.45,
      "velocity": 0.54,
      "hand": "right"
    },
    {
      "midi": 70,
      "time": 55.8,
      "duration": 0.075,
      "velocity": 0.69,
      "hand": "right"
    },
    {
      "midi": 38,
      "time": 56.1,
      "duration": 0.075,
      "velocity": 0.55,
      "hand": "left"
    },
    {
      "midi": 42,
      "time": 56.1,
      "duration": 0.075,
      "velocity": 0.54,
      "hand": "left"
    },
    {
      "midi": 51,
      "time": 56.1,
      "duration": 0.075,
      "velocity": 0.54,
      "hand": "left"
    },
    {
      "midi": 52,
      "time": 56.1,
      "duration": 0.15,
      "velocity": 0.64,
      "hand": "left"
    },
    {
      "midi": 54,
      "time": 56.1,
      "duration": 0.075,
      "velocity": 0.64,
      "hand": "left"
    },
    {
      "midi": 58,
      "time": 56.1,
      "duration": 0.15,
      "velocity": 0.65,
      "hand": "left"
    },
    {
      "midi": 61,
      "time": 56.1,
      "duration": 0.15,
      "velocity": 0.69,
      "hand": "right"
    },
    {
      "midi": 63,
      "time": 56.1,
      "duration": 0.15,
      "velocity": 0.69,
      "hand": "right"
    },
    {
      "midi": 64,
      "time": 56.1,
      "duration": 0.15,
      "velocity": 0.64,
      "hand": "right"
    },
    {
      "midi": 68,
      "time": 56.1,
      "duration": 0.15,
      "velocity": 0.57,
      "hand": "right"
    },
    {
      "midi": 70,
      "time": 56.1,
      "duration": 0.075,
      "velocity": 0.7,
      "hand": "right"
    },
    {
      "midi": 35,
      "time": 56.4,
      "duration": 0.075,
      "velocity": 0.56,
      "hand": "left"
    },
    {
      "midi": 38,
      "time": 56.4,
      "duration": 0.6,
      "velocity": 0.87,
      "hand": "left"
    },
    {
      "midi": 42,
      "time": 56.4,
      "duration": 0.075,
      "velocity": 0.65,
      "hand": "left"
    },
    {
      "midi": 45,
      "time": 56.4,
      "duration": 0.75,
      "velocity": 0.61,
      "hand": "left"
    },
    {
      "midi": 51,
      "time": 56.4,
      "duration": 0.075,
      "velocity": 0.57,
      "hand": "left"
    },
    {
      "midi": 57,
      "time": 56.4,
      "duration": 0.6,
      "velocity": 0.51,
      "hand": "left"
    },
    {
      "midi": 57,
      "time": 56.4,
      "duration": 2.25,
      "velocity": 0.5,
      "hand": "left"
    },
    {
      "midi": 57,
      "time": 56.4,
      "duration": 1.05,
      "velocity": 0.64,
      "hand": "left"
    },
    {
      "midi": 60,
      "time": 56.4,
      "duration": 0.45,
      "velocity": 0.52,
      "hand": "right"
    },
    {
      "midi": 60,
      "time": 56.4,
      "duration": 2.25,
      "velocity": 0.49,
      "hand": "right"
    },
    {
      "midi": 60,
      "time": 56.4,
      "duration": 1.05,
      "velocity": 0.61,
      "hand": "right"
    },
    {
      "midi": 62,
      "time": 56.4,
      "duration": 0.75,
      "velocity": 0.61,
      "hand": "right"
    },
    {
      "midi": 62,
      "time": 56.4,
      "duration": 3.3,
      "velocity": 0.49,
      "hand": "right"
    },
    {
      "midi": 62,
      "time": 56.4,
      "duration": 1.05,
      "velocity": 0.57,
      "hand": "right"
    },
    {
      "midi": 62,
      "time": 56.4,
      "duration": 0.75,
      "velocity": 0.61,
      "hand": "right"
    },
    {
      "midi": 64,
      "time": 56.4,
      "duration": 0.6,
      "velocity": 0.5,
      "hand": "right"
    },
    {
      "midi": 65,
      "time": 56.4,
      "duration": 3.3,
      "velocity": 0.45,
      "hand": "right"
    },
    {
      "midi": 65,
      "time": 56.4,
      "duration": 1.05,
      "velocity": 0.58,
      "hand": "right"
    },
    {
      "midi": 65,
      "time": 56.4,
      "duration": 0.75,
      "velocity": 0.61,
      "hand": "right"
    },
    {
      "midi": 67,
      "time": 56.4,
      "duration": 0.45,
      "velocity": 0.5,
      "hand": "right"
    },
    {
      "midi": 70,
      "time": 56.4,
      "duration": 0.075,
      "velocity": 0.72,
      "hand": "right"
    },
    {
      "midi": 38,
      "time": 56.7,
      "duration": 0.075,
      "velocity": 0.54,
      "hand": "left"
    },
    {
      "midi": 42,
      "time": 56.7,
      "duration": 0.075,
      "velocity": 0.58,
      "hand": "left"
    },
    {
      "midi": 51,
      "time": 56.7,
      "duration": 0.075,
      "velocity": 0.54,
      "hand": "left"
    },
    {
      "midi": 54,
      "time": 56.7,
      "duration": 0.075,
      "velocity": 0.56,
      "hand": "left"
    },
    {
      "midi": 57,
      "time": 56.7,
      "duration": 0.075,
      "velocity": 0.54,
      "hand": "left"
    },
    {
      "midi": 60,
      "time": 56.7,
      "duration": 0.075,
      "velocity": 0.61,
      "hand": "right"
    },
    {
      "midi": 64,
      "time": 56.7,
      "duration": 0.075,
      "velocity": 0.57,
      "hand": "right"
    },
    {
      "midi": 67,
      "time": 56.7,
      "duration": 0.075,
      "velocity": 0.5,
      "hand": "right"
    },
    {
      "midi": 33,
      "time": 57,
      "duration": 0.45,
      "velocity": 0.87,
      "hand": "left"
    },
    {
      "midi": 35,
      "time": 57,
      "duration": 0.075,
      "velocity": 0.61,
      "hand": "left"
    },
    {
      "midi": 42,
      "time": 57,
      "duration": 0.075,
      "velocity": 0.55,
      "hand": "left"
    },
    {
      "midi": 51,
      "time": 57,
      "duration": 0.075,
      "velocity": 0.61,
      "hand": "left"
    },
    {
      "midi": 57,
      "time": 57,
      "duration": 0.15,
      "velocity": 0.5,
      "hand": "left"
    },
    {
      "midi": 60,
      "time": 57,
      "duration": 0.15,
      "velocity": 0.51,
      "hand": "right"
    },
    {
      "midi": 64,
      "time": 57,
      "duration": 0.15,
      "velocity": 0.49,
      "hand": "right"
    },
    {
      "midi": 67,
      "time": 57,
      "duration": 0.15,
      "velocity": 0.39,
      "hand": "right"
    },
    {
      "midi": 38,
      "time": 57.3,
      "duration": 0.075,
      "velocity": 0.56,
      "hand": "left"
    },
    {
      "midi": 42,
      "time": 57.3,
      "duration": 0.075,
      "velocity": 0.55,
      "hand": "left"
    },
    {
      "midi": 51,
      "time": 57.3,
      "duration": 0.075,
      "velocity": 0.56,
      "hand": "left"
    },
    {
      "midi": 54,
      "time": 57.3,
      "duration": 0.075,
      "velocity": 0.58,
      "hand": "left"
    },
    {
      "midi": 57,
      "time": 57.3,
      "duration": 0.075,
      "velocity": 0.65,
      "hand": "left"
    },
    {
      "midi": 57,
      "time": 57.3,
      "duration": 0.15,
      "velocity": 0.72,
      "hand": "left"
    },
    {
      "midi": 60,
      "time": 57.3,
      "duration": 0.075,
      "velocity": 0.72,
      "hand": "right"
    },
    {
      "midi": 64,
      "time": 57.3,
      "duration": 0.075,
      "velocity": 0.59,
      "hand": "right"
    },
    {
      "midi": 67,
      "time": 57.3,
      "duration": 0.15,
      "velocity": 0.55,
      "hand": "right"
    },
    {
      "midi": 69,
      "time": 57.3,
      "duration": 0.15,
      "velocity": 0.72,
      "hand": "right"
    },
    {
      "midi": 35,
      "time": 57.6,
      "duration": 0.075,
      "velocity": 0.7,
      "hand": "left"
    },
    {
      "midi": 38,
      "time": 57.6,
      "duration": 0.6,
      "velocity": 0.84,
      "hand": "left"
    },
    {
      "midi": 42,
      "time": 57.6,
      "duration": 0.075,
      "velocity": 0.54,
      "hand": "left"
    },
    {
      "midi": 51,
      "time": 57.6,
      "duration": 0.075,
      "velocity": 0.53,
      "hand": "left"
    },
    {
      "midi": 57,
      "time": 57.6,
      "duration": 0.15,
      "velocity": 0.51,
      "hand": "left"
    },
    {
      "midi": 57,
      "time": 57.6,
      "duration": 1.05,
      "velocity": 0.73,
      "hand": "left"
    },
    {
      "midi": 57,
      "time": 57.6,
      "duration": 0.15,
      "velocity": 0.59,
      "hand": "left"
    },
    {
      "midi": 60,
      "time": 57.6,
      "duration": 0.075,
      "velocity": 0.54,
      "hand": "right"
    },
    {
      "midi": 60,
      "time": 57.6,
      "duration": 0.9,
      "velocity": 0.73,
      "hand": "right"
    },
    {
      "midi": 62,
      "time": 57.6,
      "duration": 1.05,
      "velocity": 0.69,
      "hand": "right"
    },
    {
      "midi": 64,
      "time": 57.6,
      "duration": 0.15,
      "velocity": 0.55,
      "hand": "right"
    },
    {
      "midi": 65,
      "time": 57.6,
      "duration": 1.05,
      "velocity": 0.61,
      "hand": "right"
    },
    {
      "midi": 67,
      "time": 57.6,
      "duration": 0.15,
      "velocity": 0.5,
      "hand": "right"
    },
    {
      "midi": 69,
      "time": 57.6,
      "duration": 0.15,
      "velocity": 0.59,
      "hand": "right"
    },
    {
      "midi": 57,
      "time": 57.75,
      "duration": 0.15,
      "velocity": 0.48,
      "hand": "left"
    },
    {
      "midi": 60,
      "time": 57.75,
      "duration": 0.075,
      "velocity": 0.53,
      "hand": "right"
    },
    {
      "midi": 64,
      "time": 57.75,
      "duration": 0.15,
      "velocity": 0.44,
      "hand": "right"
    },
    {
      "midi": 67,
      "time": 57.75,
      "duration": 0.075,
      "velocity": 0.31,
      "hand": "right"
    },
    {
      "midi": 38,
      "time": 57.9,
      "duration": 0.075,
      "velocity": 0.57,
      "hand": "left"
    },
    {
      "midi": 42,
      "time": 57.9,
      "duration": 0.075,
      "velocity": 0.61,
      "hand": "left"
    },
    {
      "midi": 51,
      "time": 57.9,
      "duration": 0.075,
      "velocity": 0.61,
      "hand": "left"
    },
    {
      "midi": 54,
      "time": 57.9,
      "duration": 0.075,
      "velocity": 0.57,
      "hand": "left"
    },
    {
      "midi": 57,
      "time": 57.9,
      "duration": 0.075,
      "velocity": 0.58,
      "hand": "left"
    },
    {
      "midi": 57,
      "time": 57.9,
      "duration": 0.3,
      "velocity": 0.57,
      "hand": "left"
    },
    {
      "midi": 60,
      "time": 57.9,
      "duration": 0.075,
      "velocity": 0.72,
      "hand": "right"
    },
    {
      "midi": 64,
      "time": 57.9,
      "duration": 0.075,
      "velocity": 0.57,
      "hand": "right"
    },
    {
      "midi": 67,
      "time": 57.9,
      "duration": 0.075,
      "velocity": 0.52,
      "hand": "right"
    },
    {
      "midi": 69,
      "time": 57.9,
      "duration": 0.3,
      "velocity": 0.57,
      "hand": "right"
    },
    {
      "midi": 70,
      "time": 57.9,
      "duration": 0.075,
      "velocity": 0.7,
      "hand": "right"
    },
    {
      "midi": 33,
      "time": 58.2,
      "duration": 0.45,
      "velocity": 0.97,
      "hand": "left"
    },
    {
      "midi": 35,
      "time": 58.2,
      "duration": 0.075,
      "velocity": 0.73,
      "hand": "left"
    },
    {
      "midi": 42,
      "time": 58.2,
      "duration": 0.075,
      "velocity": 0.57,
      "hand": "left"
    },
    {
      "midi": 51,
      "time": 58.2,
      "duration": 0.075,
      "velocity": 0.53,
      "hand": "left"
    },
    {
      "midi": 57,
      "time": 58.2,
      "duration": 0.15,
      "velocity": 0.63,
      "hand": "left"
    },
    {
      "midi": 59,
      "time": 58.2,
      "duration": 0.3,
      "velocity": 0.57,
      "hand": "left"
    },
    {
      "midi": 60,
      "time": 58.2,
      "duration": 0.15,
      "velocity": 0.68,
      "hand": "right"
    },
    {
      "midi": 64,
      "time": 58.2,
      "duration": 0.15,
      "velocity": 0.61,
      "hand": "right"
    },
    {
      "midi": 67,
      "time": 58.2,
      "duration": 0.15,
      "velocity": 0.51,
      "hand": "right"
    },
    {
      "midi": 70,
      "time": 58.2,
      "duration": 0.075,
      "velocity": 0.63,
      "hand": "right"
    },
    {
      "midi": 71,
      "time": 58.2,
      "duration": 0.3,
      "velocity": 0.57,
      "hand": "right"
    },
    {
      "midi": 38,
      "time": 58.5,
      "duration": 0.075,
      "velocity": 0.55,
      "hand": "left"
    },
    {
      "midi": 42,
      "time": 58.5,
      "duration": 0.075,
      "velocity": 0.56,
      "hand": "left"
    },
    {
      "midi": 51,
      "time": 58.5,
      "duration": 0.075,
      "velocity": 0.57,
      "hand": "left"
    },
    {
      "midi": 54,
      "time": 58.5,
      "duration": 0.075,
      "velocity": 0.5,
      "hand": "left"
    },
    {
      "midi": 57,
      "time": 58.5,
      "duration": 0.15,
      "velocity": 0.59,
      "hand": "left"
    },
    {
      "midi": 57,
      "time": 58.5,
      "duration": 0.3,
      "velocity": 0.54,
      "hand": "left"
    },
    {
      "midi": 60,
      "time": 58.5,
      "duration": 0.075,
      "velocity": 0.68,
      "hand": "right"
    },
    {
      "midi": 64,
      "time": 58.5,
      "duration": 0.15,
      "velocity": 0.61,
      "hand": "right"
    },
    {
      "midi": 67,
      "time": 58.5,
      "duration": 0.15,
      "velocity": 0.56,
      "hand": "right"
    },
    {
      "midi": 69,
      "time": 58.5,
      "duration": 0.3,
      "velocity": 0.54,
      "hand": "right"
    },
    {
      "midi": 70,
      "time": 58.5,
      "duration": 0.075,
      "velocity": 0.56,
      "hand": "right"
    },
    {
      "midi": 35,
      "time": 58.8,
      "duration": 0.075,
      "velocity": 0.72,
      "hand": "left"
    },
    {
      "midi": 38,
      "time": 58.8,
      "duration": 0.6,
      "velocity": 0.98,
      "hand": "left"
    },
    {
      "midi": 42,
      "time": 58.8,
      "duration": 0.075,
      "velocity": 0.54,
      "hand": "left"
    },
    {
      "midi": 51,
      "time": 58.8,
      "duration": 0.075,
      "velocity": 0.46,
      "hand": "left"
    },
    {
      "midi": 53,
      "time": 58.8,
      "duration": 0.45,
      "velocity": 0.57,
      "hand": "left"
    },
    {
      "midi": 55,
      "time": 58.8,
      "duration": 0.75,
      "velocity": 0.55,
      "hand": "left"
    },
    {
      "midi": 55,
      "time": 58.8,
      "duration": 0.6,
      "velocity": 0.65,
      "hand": "left"
    },
    {
      "midi": 55,
      "time": 58.8,
      "duration": 0.15,
      "velocity": 0.64,
      "hand": "left"
    },
    {
      "midi": 57,
      "time": 58.8,
      "duration": 0.45,
      "velocity": 0.56,
      "hand": "left"
    },
    {
      "midi": 59,
      "time": 58.8,
      "duration": 0.45,
      "velocity": 0.56,
      "hand": "left"
    },
    {
      "midi": 59,
      "time": 58.8,
      "duration": 0.75,
      "velocity": 0.53,
      "hand": "left"
    },
    {
      "midi": 59,
      "time": 58.8,
      "duration": 0.6,
      "velocity": 0.68,
      "hand": "left"
    },
    {
      "midi": 62,
      "time": 58.8,
      "duration": 0.75,
      "velocity": 0.58,
      "hand": "right"
    },
    {
      "midi": 64,
      "time": 58.8,
      "duration": 0.45,
      "velocity": 0.54,
      "hand": "right"
    },
    {
      "midi": 65,
      "time": 58.8,
      "duration": 0.75,
      "velocity": 0.56,
      "hand": "right"
    },
    {
      "midi": 67,
      "time": 58.8,
      "duration": 0.15,
      "velocity": 0.64,
      "hand": "right"
    },
    {
      "midi": 70,
      "time": 58.8,
      "duration": 0.075,
      "velocity": 0.73,
      "hand": "right"
    },
    {
      "midi": 38,
      "time": 59.1,
      "duration": 0.075,
      "velocity": 0.56,
      "hand": "left"
    },
    {
      "midi": 42,
      "time": 59.1,
      "duration": 0.075,
      "velocity": 0.46,
      "hand": "left"
    },
    {
      "midi": 51,
      "time": 59.1,
      "duration": 0.075,
      "velocity": 0.52,
      "hand": "left"
    },
    {
      "midi": 54,
      "time": 59.1,
      "duration": 0.075,
      "velocity": 0.56,
      "hand": "left"
    },
    {
      "midi": 55,
      "time": 59.1,
      "duration": 0.3,
      "velocity": 0.52,
      "hand": "left"
    },
    {
      "midi": 59,
      "time": 59.1,
      "duration": 0.075,
      "velocity": 0.61,
      "hand": "left"
    },
    {
      "midi": 62,
      "time": 59.1,
      "duration": 0.075,
      "velocity": 0.68,
      "hand": "right"
    },
    {
      "midi": 64,
      "time": 59.1,
      "duration": 0.075,
      "velocity": 0.69,
      "hand": "right"
    },
    {
      "midi": 67,
      "time": 59.1,
      "duration": 0.3,
      "velocity": 0.52,
      "hand": "right"
    },
    {
      "midi": 69,
      "time": 59.1,
      "duration": 0.15,
      "velocity": 0.63,
      "hand": "right"
    },
    {
      "midi": 35,
      "time": 59.4,
      "duration": 0.075,
      "velocity": 0.7,
      "hand": "left"
    },
    {
      "midi": 38,
      "time": 59.4,
      "duration": 0.6,
      "velocity": 0.94,
      "hand": "left"
    },
    {
      "midi": 42,
      "time": 59.4,
      "duration": 0.075,
      "velocity": 0.5,
      "hand": "left"
    },
    {
      "midi": 51,
      "time": 59.4,
      "duration": 0.075,
      "velocity": 0.54,
      "hand": "left"
    },
    {
      "midi": 52,
      "time": 59.4,
      "duration": 0.3,
      "velocity": 0.63,
      "hand": "left"
    },
    {
      "midi": 53,
      "time": 59.4,
      "duration": 0.15,
      "velocity": 0.63,
      "hand": "left"
    },
    {
      "midi": 57,
      "time": 59.4,
      "duration": 0.15,
      "velocity": 0.56,
      "hand": "left"
    },
    {
      "midi": 59,
      "time": 59.4,
      "duration": 0.15,
      "velocity": 0.57,
      "hand": "left"
    },
    {
      "midi": 64,
      "time": 59.4,
      "duration": 0.15,
      "velocity": 0.56,
      "hand": "right"
    },
    {
      "midi": 64,
      "time": 59.4,
      "duration": 0.3,
      "velocity": 0.63,
      "hand": "right"
    },
    {
      "midi": 38,
      "time": 59.7,
      "duration": 0.075,
      "velocity": 0.53,
      "hand": "left"
    },
    {
      "midi": 42,
      "time": 59.7,
      "duration": 0.075,
      "velocity": 0.54,
      "hand": "left"
    },
    {
      "midi": 51,
      "time": 59.7,
      "duration": 0.075,
      "velocity": 0.54,
      "hand": "left"
    },
    {
      "midi": 54,
      "time": 59.7,
      "duration": 0.075,
      "velocity": 0.57,
      "hand": "left"
    },
    {
      "midi": 55,
      "time": 59.7,
      "duration": 0.15,
      "velocity": 0.54,
      "hand": "left"
    },
    {
      "midi": 59,
      "time": 59.7,
      "duration": 0.075,
      "velocity": 0.7,
      "hand": "left"
    },
    {
      "midi": 62,
      "time": 59.7,
      "duration": 0.075,
      "velocity": 0.72,
      "hand": "right"
    },
    {
      "midi": 64,
      "time": 59.7,
      "duration": 0.075,
      "velocity": 0.58,
      "hand": "right"
    },
    {
      "midi": 65,
      "time": 59.7,
      "duration": 0.075,
      "velocity": 0.35,
      "hand": "right"
    },
    {
      "midi": 67,
      "time": 59.7,
      "duration": 0.15,
      "velocity": 0.54,
      "hand": "right"
    },
    {
      "midi": 69,
      "time": 59.7,
      "duration": 0.15,
      "velocity": 0.68,
      "hand": "right"
    },
    {
      "midi": 35,
      "time": 60,
      "duration": 0.075,
      "velocity": 0.69,
      "hand": "left"
    },
    {
      "midi": 37,
      "time": 60,
      "duration": 0.45,
      "velocity": 0.94,
      "hand": "left"
    },
    {
      "midi": 42,
      "time": 60,
      "duration": 0.075,
      "velocity": 0.54,
      "hand": "left"
    },
    {
      "midi": 51,
      "time": 60,
      "duration": 0.075,
      "velocity": 0.51,
      "hand": "left"
    },
    {
      "midi": 53,
      "time": 60,
      "duration": 0.15,
      "velocity": 0.65,
      "hand": "left"
    },
    {
      "midi": 56,
      "time": 60,
      "duration": 0.45,
      "velocity": 0.57,
      "hand": "left"
    },
    {
      "midi": 57,
      "time": 60,
      "duration": 0.15,
      "velocity": 0.57,
      "hand": "left"
    },
    {
      "midi": 57,
      "time": 60,
      "duration": 0.45,
      "velocity": 0.54,
      "hand": "left"
    },
    {
      "midi": 60,
      "time": 60,
      "duration": 0.15,
      "velocity": 0.58,
      "hand": "right"
    },
    {
      "midi": 60,
      "time": 60,
      "duration": 0.3,
      "velocity": 0.58,
      "hand": "right"
    },
    {
      "midi": 60,
      "time": 60,
      "duration": 0.45,
      "velocity": 0.56,
      "hand": "right"
    },
    {
      "midi": 62,
      "time": 60,
      "duration": 0.3,
      "velocity": 0.57,
      "hand": "right"
    },
    {
      "midi": 62,
      "time": 60,
      "duration": 0.45,
      "velocity": 0.5,
      "hand": "right"
    },
    {
      "midi": 64,
      "time": 60,
      "duration": 0.15,
      "velocity": 0.54,
      "hand": "right"
    },
    {
      "midi": 65,
      "time": 60,
      "duration": 0.15,
      "velocity": 0.65,
      "hand": "right"
    },
    {
      "midi": 65,
      "time": 60,
      "duration": 0.3,
      "velocity": 0.55,
      "hand": "right"
    },
    {
      "midi": 65,
      "time": 60,
      "duration": 0.45,
      "velocity": 0.47,
      "hand": "right"
    },
    {
      "midi": 65,
      "time": 60,
      "duration": 0.15,
      "velocity": 0.65,
      "hand": "right"
    },
    {
      "midi": 67,
      "time": 60,
      "duration": 0.15,
      "velocity": 0.5,
      "hand": "right"
    },
    {
      "midi": 38,
      "time": 60.3,
      "duration": 0.075,
      "velocity": 0.54,
      "hand": "left"
    },
    {
      "midi": 42,
      "time": 60.3,
      "duration": 0.075,
      "velocity": 0.57,
      "hand": "left"
    },
    {
      "midi": 51,
      "time": 60.3,
      "duration": 0.075,
      "velocity": 0.55,
      "hand": "left"
    },
    {
      "midi": 53,
      "time": 60.3,
      "duration": 0.3,
      "velocity": 0.54,
      "hand": "left"
    },
    {
      "midi": 54,
      "time": 60.3,
      "duration": 0.075,
      "velocity": 0.54,
      "hand": "left"
    },
    {
      "midi": 57,
      "time": 60.3,
      "duration": 0.15,
      "velocity": 0.54,
      "hand": "left"
    },
    {
      "midi": 57,
      "time": 60.3,
      "duration": 0.075,
      "velocity": 0.64,
      "hand": "left"
    },
    {
      "midi": 60,
      "time": 60.3,
      "duration": 0.15,
      "velocity": 0.53,
      "hand": "right"
    },
    {
      "midi": 60,
      "time": 60.3,
      "duration": 0.075,
      "velocity": 0.7,
      "hand": "right"
    },
    {
      "midi": 64,
      "time": 60.3,
      "duration": 0.15,
      "velocity": 0.52,
      "hand": "right"
    },
    {
      "midi": 64,
      "time": 60.3,
      "duration": 0.075,
      "velocity": 0.54,
      "hand": "right"
    },
    {
      "midi": 65,
      "time": 60.3,
      "duration": 0.075,
      "velocity": 0.51,
      "hand": "right"
    },
    {
      "midi": 65,
      "time": 60.3,
      "duration": 0.3,
      "velocity": 0.54,
      "hand": "right"
    },
    {
      "midi": 67,
      "time": 60.3,
      "duration": 0.15,
      "velocity": 0.39,
      "hand": "right"
    },
    {
      "midi": 67,
      "time": 60.3,
      "duration": 0.075,
      "velocity": 0.61,
      "hand": "right"
    },
    {
      "midi": 70,
      "time": 60.3,
      "duration": 0.075,
      "velocity": 0.72,
      "hand": "right"
    },
    {
      "midi": 35,
      "time": 60.6,
      "duration": 0.075,
      "velocity": 0.56,
      "hand": "left"
    },
    {
      "midi": 37,
      "time": 60.6,
      "duration": 0.6,
      "velocity": 0.98,
      "hand": "left"
    },
    {
      "midi": 42,
      "time": 60.6,
      "duration": 0.075,
      "velocity": 0.57,
      "hand": "left"
    },
    {
      "midi": 51,
      "time": 60.6,
      "duration": 0.075,
      "velocity": 0.5,
      "hand": "left"
    },
    {
      "midi": 52,
      "time": 60.6,
      "duration": 0.3,
      "velocity": 0.61,
      "hand": "left"
    },
    {
      "midi": 55,
      "time": 60.6,
      "duration": 0.3,
      "velocity": 0.54,
      "hand": "left"
    },
    {
      "midi": 56,
      "time": 60.6,
      "duration": 0.15,
      "velocity": 0.55,
      "hand": "left"
    },
    {
      "midi": 56,
      "time": 60.6,
      "duration": 0.45,
      "velocity": 0.46,
      "hand": "left"
    },
    {
      "midi": 59,
      "time": 60.6,
      "duration": 0.15,
      "velocity": 0.55,
      "hand": "left"
    },
    {
      "midi": 59,
      "time": 60.6,
      "duration": 0.3,
      "velocity": 0.52,
      "hand": "left"
    },
    {
      "midi": 62,
      "time": 60.6,
      "duration": 0.3,
      "velocity": 0.51,
      "hand": "right"
    },
    {
      "midi": 63,
      "time": 60.6,
      "duration": 0.15,
      "velocity": 0.51,
      "hand": "right"
    },
    {
      "midi": 63,
      "time": 60.6,
      "duration": 0.45,
      "velocity": 0.54,
      "hand": "right"
    },
    {
      "midi": 64,
      "time": 60.6,
      "duration": 0.3,
      "velocity": 0.61,
      "hand": "right"
    },
    {
      "midi": 65,
      "time": 60.6,
      "duration": 0.3,
      "velocity": 0.47,
      "hand": "right"
    },
    {
      "midi": 67,
      "time": 60.6,
      "duration": 0.15,
      "velocity": 0.37,
      "hand": "right"
    },
    {
      "midi": 67,
      "time": 60.6,
      "duration": 0.45,
      "velocity": 0.36,
      "hand": "right"
    },
    {
      "midi": 68,
      "time": 60.6,
      "duration": 0.15,
      "velocity": 0.37,
      "hand": "right"
    },
    {
      "midi": 70,
      "time": 60.6,
      "duration": 0.075,
      "velocity": 0.69,
      "hand": "right"
    },
    {
      "midi": 38,
      "time": 60.9,
      "duration": 0.075,
      "velocity": 0.55,
      "hand": "left"
    },
    {
      "midi": 42,
      "time": 60.9,
      "duration": 0.075,
      "velocity": 0.54,
      "hand": "left"
    },
    {
      "midi": 50,
      "time": 60.9,
      "duration": 0.3,
      "velocity": 0.57,
      "hand": "left"
    },
    {
      "midi": 51,
      "time": 60.9,
      "duration": 0.075,
      "velocity": 0.54,
      "hand": "left"
    },
    {
      "midi": 54,
      "time": 60.9,
      "duration": 0.075,
      "velocity": 0.64,
      "hand": "left"
    },
    {
      "midi": 56,
      "time": 60.9,
      "duration": 0.15,
      "velocity": 0.53,
      "hand": "left"
    },
    {
      "midi": 59,
      "time": 60.9,
      "duration": 0.15,
      "velocity": 0.55,
      "hand": "left"
    },
    {
      "midi": 62,
      "time": 60.9,
      "duration": 0.3,
      "velocity": 0.57,
      "hand": "right"
    },
    {
      "midi": 63,
      "time": 60.9,
      "duration": 0.15,
      "velocity": 0.43,
      "hand": "right"
    },
    {
      "midi": 67,
      "time": 60.9,
      "duration": 0.15,
      "velocity": 0.49,
      "hand": "right"
    },
    {
      "midi": 70,
      "time": 60.9,
      "duration": 0.075,
      "velocity": 0.7,
      "hand": "right"
    },
    {
      "midi": 35,
      "time": 61.2,
      "duration": 0.075,
      "velocity": 0.59,
      "hand": "left"
    },
    {
      "midi": 36,
      "time": 61.2,
      "duration": 0.6,
      "velocity": 0.96,
      "hand": "left"
    },
    {
      "midi": 42,
      "time": 61.2,
      "duration": 0.075,
      "velocity": 0.73,
      "hand": "left"
    },
    {
      "midi": 57,
      "time": 61.2,
      "duration": 0.15,
      "velocity": 0.61,
      "hand": "left"
    },
    {
      "midi": 57,
      "time": 61.2,
      "duration": 0.9,
      "velocity": 0.54,
      "hand": "left"
    },
    {
      "midi": 57,
      "time": 61.2,
      "duration": 0.6,
      "velocity": 0.59,
      "hand": "left"
    },
    {
      "midi": 57,
      "time": 61.2,
      "duration": 0.075,
      "velocity": 0.52,
      "hand": "left"
    },
    {
      "midi": 60,
      "time": 61.2,
      "duration": 0.6,
      "velocity": 0.72,
      "hand": "right"
    },
    {
      "midi": 60,
      "time": 61.2,
      "duration": 0.75,
      "velocity": 0.73,
      "hand": "right"
    },
    {
      "midi": 60,
      "time": 61.2,
      "duration": 0.6,
      "velocity": 0.72,
      "hand": "right"
    },
    {
      "midi": 60,
      "time": 61.2,
      "duration": 0.75,
      "velocity": 0.73,
      "hand": "right"
    },
    {
      "midi": 62,
      "time": 61.2,
      "duration": 0.15,
      "velocity": 0.58,
      "hand": "right"
    },
    {
      "midi": 62,
      "time": 61.2,
      "duration": 0.075,
      "velocity": 0.56,
      "hand": "right"
    },
    {
      "midi": 62,
      "time": 61.2,
      "duration": 0.9,
      "velocity": 0.46,
      "hand": "right"
    },
    {
      "midi": 62,
      "time": 61.2,
      "duration": 0.6,
      "velocity": 0.7,
      "hand": "right"
    },
    {
      "midi": 67,
      "time": 61.2,
      "duration": 0.15,
      "velocity": 0.57,
      "hand": "right"
    },
    {
      "midi": 67,
      "time": 61.2,
      "duration": 0.9,
      "velocity": 0.5,
      "hand": "right"
    },
    {
      "midi": 67,
      "time": 61.2,
      "duration": 0.6,
      "velocity": 0.63,
      "hand": "right"
    },
    {
      "midi": 38,
      "time": 61.5,
      "duration": 0.075,
      "velocity": 0.57,
      "hand": "left"
    },
    {
      "midi": 42,
      "time": 61.5,
      "duration": 0.075,
      "velocity": 0.65,
      "hand": "left"
    },
    {
      "midi": 51,
      "time": 61.5,
      "duration": 0.075,
      "velocity": 0.56,
      "hand": "left"
    },
    {
      "midi": 54,
      "time": 61.5,
      "duration": 0.075,
      "velocity": 0.68,
      "hand": "left"
    },
    {
      "midi": 57,
      "time": 61.5,
      "duration": 0.15,
      "velocity": 0.55,
      "hand": "left"
    },
    {
      "midi": 62,
      "time": 61.5,
      "duration": 0.075,
      "velocity": 0.56,
      "hand": "right"
    },
    {
      "midi": 67,
      "time": 61.5,
      "duration": 0.15,
      "velocity": 0.52,
      "hand": "right"
    },
    {
      "midi": 70,
      "time": 61.5,
      "duration": 0.075,
      "velocity": 0.72,
      "hand": "right"
    },
    {
      "midi": 57,
      "time": 61.65,
      "duration": 0.15,
      "velocity": 0.51,
      "hand": "left"
    },
    {
      "midi": 62,
      "time": 61.65,
      "duration": 0.075,
      "velocity": 0.51,
      "hand": "right"
    },
    {
      "midi": 67,
      "time": 61.65,
      "duration": 0.15,
      "velocity": 0.54,
      "hand": "right"
    },
    {
      "midi": 31,
      "time": 61.8,
      "duration": 0.45,
      "velocity": 0.96,
      "hand": "left"
    },
    {
      "midi": 35,
      "time": 61.8,
      "duration": 0.075,
      "velocity": 0.55,
      "hand": "left"
    },
    {
      "midi": 42,
      "time": 61.8,
      "duration": 0.075,
      "velocity": 0.59,
      "hand": "left"
    },
    {
      "midi": 51,
      "time": 61.8,
      "duration": 0.075,
      "velocity": 0.57,
      "hand": "left"
    },
    {
      "midi": 57,
      "time": 61.8,
      "duration": 0.075,
      "velocity": 0.5,
      "hand": "left"
    },
    {
      "midi": 62,
      "time": 61.8,
      "duration": 0.075,
      "velocity": 0.72,
      "hand": "right"
    },
    {
      "midi": 64,
      "time": 61.8,
      "duration": 0.3,
      "velocity": 0.65,
      "hand": "right"
    },
    {
      "midi": 67,
      "time": 61.8,
      "duration": 0.15,
      "velocity": 0.5,
      "hand": "right"
    },
    {
      "midi": 70,
      "time": 61.8,
      "duration": 0.075,
      "velocity": 0.69,
      "hand": "right"
    },
    {
      "midi": 38,
      "time": 62.1,
      "duration": 0.075,
      "velocity": 0.53,
      "hand": "left"
    },
    {
      "midi": 42,
      "time": 62.1,
      "duration": 0.075,
      "velocity": 0.58,
      "hand": "left"
    },
    {
      "midi": 51,
      "time": 62.1,
      "duration": 0.075,
      "velocity": 0.49,
      "hand": "left"
    },
    {
      "midi": 54,
      "time": 62.1,
      "duration": 0.075,
      "velocity": 0.56,
      "hand": "left"
    },
    {
      "midi": 57,
      "time": 62.1,
      "duration": 0.75,
      "velocity": 0.65,
      "hand": "left"
    },
    {
      "midi": 57,
      "time": 62.1,
      "duration": 0.15,
      "velocity": 0.69,
      "hand": "left"
    },
    {
      "midi": 62,
      "time": 62.1,
      "duration": 0.75,
      "velocity": 0.72,
      "hand": "right"
    },
    {
      "midi": 62,
      "time": 62.1,
      "duration": 0.075,
      "velocity": 0.73,
      "hand": "right"
    },
    {
      "midi": 67,
      "time": 62.1,
      "duration": 0.75,
      "velocity": 0.61,
      "hand": "right"
    },
    {
      "midi": 67,
      "time": 62.1,
      "duration": 0.15,
      "velocity": 0.57,
      "hand": "right"
    },
    {
      "midi": 67,
      "time": 62.1,
      "duration": 0.6,
      "velocity": 0.54,
      "hand": "right"
    },
    {
      "midi": 70,
      "time": 62.1,
      "duration": 0.075,
      "velocity": 0.68,
      "hand": "right"
    },
    {
      "midi": 35,
      "time": 62.4,
      "duration": 0.075,
      "velocity": 0.55,
      "hand": "left"
    },
    {
      "midi": 36,
      "time": 62.4,
      "duration": 0.6,
      "velocity": 0.96,
      "hand": "left"
    },
    {
      "midi": 42,
      "time": 62.4,
      "duration": 0.075,
      "velocity": 0.61,
      "hand": "left"
    },
    {
      "midi": 51,
      "time": 62.4,
      "duration": 0.075,
      "velocity": 0.51,
      "hand": "left"
    },
    {
      "midi": 70,
      "time": 62.4,
      "duration": 0.075,
      "velocity": 0.61,
      "hand": "right"
    },
    {
      "midi": 38,
      "time": 62.7,
      "duration": 0.075,
      "velocity": 0.54,
      "hand": "left"
    },
    {
      "midi": 42,
      "time": 62.7,
      "duration": 0.075,
      "velocity": 0.61,
      "hand": "left"
    },
    {
      "midi": 51,
      "time": 62.7,
      "duration": 0.075,
      "velocity": 0.52,
      "hand": "left"
    },
    {
      "midi": 54,
      "time": 62.7,
      "duration": 0.075,
      "velocity": 0.68,
      "hand": "left"
    },
    {
      "midi": 57,
      "time": 62.7,
      "duration": 0.15,
      "velocity": 0.64,
      "hand": "left"
    },
    {
      "midi": 62,
      "time": 62.7,
      "duration": 0.075,
      "velocity": 0.72,
      "hand": "right"
    },
    {
      "midi": 64,
      "time": 62.7,
      "duration": 0.3,
      "velocity": 0.51,
      "hand": "right"
    },
    {
      "midi": 67,
      "time": 62.7,
      "duration": 0.075,
      "velocity": 0.55,
      "hand": "right"
    },
    {
      "midi": 31,
      "time": 63,
      "duration": 0.6,
      "velocity": 0.96,
      "hand": "left"
    },
    {
      "midi": 35,
      "time": 63,
      "duration": 0.075,
      "velocity": 0.68,
      "hand": "left"
    },
    {
      "midi": 42,
      "time": 63,
      "duration": 0.075,
      "velocity": 0.58,
      "hand": "left"
    },
    {
      "midi": 51,
      "time": 63,
      "duration": 0.075,
      "velocity": 0.49,
      "hand": "left"
    },
    {
      "midi": 57,
      "time": 63,
      "duration": 0.15,
      "velocity": 0.61,
      "hand": "left"
    },
    {
      "midi": 60,
      "time": 63,
      "duration": 0.45,
      "velocity": 0.57,
      "hand": "right"
    },
    {
      "midi": 62,
      "time": 63,
      "duration": 0.15,
      "velocity": 0.72,
      "hand": "right"
    },
    {
      "midi": 62,
      "time": 63,
      "duration": 0.075,
      "velocity": 0.72,
      "hand": "right"
    },
    {
      "midi": 62,
      "time": 63,
      "duration": 0.3,
      "velocity": 0.53,
      "hand": "right"
    },
    {
      "midi": 64,
      "time": 63,
      "duration": 0.45,
      "velocity": 0.68,
      "hand": "right"
    },
    {
      "midi": 67,
      "time": 63,
      "duration": 0.15,
      "velocity": 0.63,
      "hand": "right"
    },
    {
      "midi": 67,
      "time": 63,
      "duration": 0.075,
      "velocity": 0.54,
      "hand": "right"
    },
    {
      "midi": 69,
      "time": 63,
      "duration": 0.45,
      "velocity": 0.63,
      "hand": "right"
    },
    {
      "midi": 38,
      "time": 63.3,
      "duration": 0.075,
      "velocity": 0.53,
      "hand": "left"
    },
    {
      "midi": 42,
      "time": 63.3,
      "duration": 0.075,
      "velocity": 0.57,
      "hand": "left"
    },
    {
      "midi": 51,
      "time": 63.3,
      "duration": 0.075,
      "velocity": 0.56,
      "hand": "left"
    },
    {
      "midi": 54,
      "time": 63.3,
      "duration": 0.075,
      "velocity": 0.55,
      "hand": "left"
    },
    {
      "midi": 57,
      "time": 63.3,
      "duration": 0.15,
      "velocity": 0.49,
      "hand": "left"
    },
    {
      "midi": 60,
      "time": 63.3,
      "duration": 0.3,
      "velocity": 0.54,
      "hand": "right"
    },
    {
      "midi": 62,
      "time": 63.3,
      "duration": 0.075,
      "velocity": 0.57,
      "hand": "right"
    },
    {
      "midi": 67,
      "time": 63.3,
      "duration": 0.15,
      "velocity": 0.55,
      "hand": "right"
    },
    {
      "midi": 35,
      "time": 63.6,
      "duration": 0.6,
      "velocity": 0.96,
      "hand": "left"
    },
    {
      "midi": 35,
      "time": 63.6,
      "duration": 0.075,
      "velocity": 0.69,
      "hand": "left"
    },
    {
      "midi": 42,
      "time": 63.6,
      "duration": 0.075,
      "velocity": 0.54,
      "hand": "left"
    },
    {
      "midi": 51,
      "time": 63.6,
      "duration": 0.075,
      "velocity": 0.54,
      "hand": "left"
    },
    {
      "midi": 55,
      "time": 63.6,
      "duration": 0.75,
      "velocity": 0.61,
      "hand": "left"
    },
    {
      "midi": 55,
      "time": 63.6,
      "duration": 1.95,
      "velocity": 0.25,
      "hand": "left"
    },
    {
      "midi": 59,
      "time": 63.6,
      "duration": 0.75,
      "velocity": 0.61,
      "hand": "left"
    },
    {
      "midi": 59,
      "time": 63.6,
      "duration": 0.15,
      "velocity": 0.51,
      "hand": "left"
    },
    {
      "midi": 59,
      "time": 63.6,
      "duration": 0.6,
      "velocity": 0.57,
      "hand": "left"
    },
    {
      "midi": 59,
      "time": 63.6,
      "duration": 1.95,
      "velocity": 0.54,
      "hand": "left"
    },
    {
      "midi": 59,
      "time": 63.6,
      "duration": 0.6,
      "velocity": 0.57,
      "hand": "left"
    },
    {
      "midi": 60,
      "time": 63.6,
      "duration": 1.95,
      "velocity": 0.54,
      "hand": "right"
    },
    {
      "midi": 62,
      "time": 63.6,
      "duration": 0.75,
      "velocity": 0.55,
      "hand": "right"
    },
    {
      "midi": 62,
      "time": 63.6,
      "duration": 0.075,
      "velocity": 0.72,
      "hand": "right"
    },
    {
      "midi": 64,
      "time": 63.6,
      "duration": 0.75,
      "velocity": 0.53,
      "hand": "right"
    },
    {
      "midi": 64,
      "time": 63.6,
      "duration": 0.075,
      "velocity": 0.65,
      "hand": "right"
    },
    {
      "midi": 64,
      "time": 63.6,
      "duration": 1.95,
      "velocity": 0.56,
      "hand": "right"
    },
    {
      "midi": 67,
      "time": 63.6,
      "duration": 0.075,
      "velocity": 0.38,
      "hand": "right"
    },
    {
      "midi": 67,
      "time": 63.6,
      "duration": 2.1,
      "velocity": 0.63,
      "hand": "right"
    },
    {
      "midi": 71,
      "time": 63.6,
      "duration": 2.1,
      "velocity": 0.57,
      "hand": "right"
    },
    {
      "midi": 38,
      "time": 63.9,
      "duration": 0.075,
      "velocity": 0.58,
      "hand": "left"
    },
    {
      "midi": 42,
      "time": 63.9,
      "duration": 0.075,
      "velocity": 0.63,
      "hand": "left"
    },
    {
      "midi": 51,
      "time": 63.9,
      "duration": 0.075,
      "velocity": 0.55,
      "hand": "left"
    },
    {
      "midi": 54,
      "time": 63.9,
      "duration": 0.075,
      "velocity": 0.52,
      "hand": "left"
    },
    {
      "midi": 70,
      "time": 63.9,
      "duration": 0.075,
      "velocity": 0.72,
      "hand": "right"
    },
    {
      "midi": 59,
      "time": 64.05,
      "duration": 0.15,
      "velocity": 0.61,
      "hand": "left"
    },
    {
      "midi": 62,
      "time": 64.05,
      "duration": 0.075,
      "velocity": 0.57,
      "hand": "right"
    },
    {
      "midi": 64,
      "time": 64.05,
      "duration": 0.075,
      "velocity": 0.55,
      "hand": "right"
    },
    {
      "midi": 67,
      "time": 64.05,
      "duration": 0.15,
      "velocity": 0.53,
      "hand": "right"
    },
    {
      "midi": 35,
      "time": 64.2,
      "duration": 0.075,
      "velocity": 0.7,
      "hand": "left"
    },
    {
      "midi": 40,
      "time": 64.2,
      "duration": 0.6,
      "velocity": 0.96,
      "hand": "left"
    },
    {
      "midi": 42,
      "time": 64.2,
      "duration": 0.075,
      "velocity": 0.54,
      "hand": "left"
    },
    {
      "midi": 51,
      "time": 64.2,
      "duration": 0.075,
      "velocity": 0.51,
      "hand": "left"
    },
    {
      "midi": 59,
      "time": 64.2,
      "duration": 0.075,
      "velocity": 0.52,
      "hand": "left"
    },
    {
      "midi": 62,
      "time": 64.2,
      "duration": 0.075,
      "velocity": 0.56,
      "hand": "right"
    },
    {
      "midi": 64,
      "time": 64.2,
      "duration": 0.075,
      "velocity": 0.59,
      "hand": "right"
    },
    {
      "midi": 67,
      "time": 64.2,
      "duration": 0.075,
      "velocity": 0.42,
      "hand": "right"
    },
    {
      "midi": 69,
      "time": 64.2,
      "duration": 0.3,
      "velocity": 0.56,
      "hand": "right"
    },
    {
      "midi": 70,
      "time": 64.2,
      "duration": 0.075,
      "velocity": 0.72,
      "hand": "right"
    },
    {
      "midi": 38,
      "time": 64.5,
      "duration": 0.075,
      "velocity": 0.52,
      "hand": "left"
    },
    {
      "midi": 42,
      "time": 64.5,
      "duration": 0.075,
      "velocity": 0.54,
      "hand": "left"
    },
    {
      "midi": 51,
      "time": 64.5,
      "duration": 0.075,
      "velocity": 0.54,
      "hand": "left"
    },
    {
      "midi": 54,
      "time": 64.5,
      "duration": 0.075,
      "velocity": 0.57,
      "hand": "left"
    },
    {
      "midi": 55,
      "time": 64.5,
      "duration": 0.75,
      "velocity": 0.63,
      "hand": "left"
    },
    {
      "midi": 59,
      "time": 64.5,
      "duration": 0.75,
      "velocity": 0.68,
      "hand": "left"
    },
    {
      "midi": 59,
      "time": 64.5,
      "duration": 0.15,
      "velocity": 0.57,
      "hand": "left"
    },
    {
      "midi": 62,
      "time": 64.5,
      "duration": 0.75,
      "velocity": 0.61,
      "hand": "right"
    },
    {
      "midi": 62,
      "time": 64.5,
      "duration": 0.075,
      "velocity": 0.69,
      "hand": "right"
    },
    {
      "midi": 64,
      "time": 64.5,
      "duration": 0.75,
      "velocity": 0.55,
      "hand": "right"
    },
    {
      "midi": 64,
      "time": 64.5,
      "duration": 0.075,
      "velocity": 0.72,
      "hand": "right"
    },
    {
      "midi": 67,
      "time": 64.5,
      "duration": 0.15,
      "velocity": 0.55,
      "hand": "right"
    },
    {
      "midi": 67,
      "time": 64.5,
      "duration": 0.9,
      "velocity": 0.54,
      "hand": "right"
    },
    {
      "midi": 70,
      "time": 64.5,
      "duration": 0.075,
      "velocity": 0.58,
      "hand": "right"
    },
    {
      "midi": 35,
      "time": 64.8,
      "duration": 0.6,
      "velocity": 0.96,
      "hand": "left"
    },
    {
      "midi": 35,
      "time": 64.8,
      "duration": 0.075,
      "velocity": 0.51,
      "hand": "left"
    },
    {
      "midi": 42,
      "time": 64.8,
      "duration": 0.075,
      "velocity": 0.57,
      "hand": "left"
    },
    {
      "midi": 51,
      "time": 64.8,
      "duration": 0.075,
      "velocity": 0.56,
      "hand": "left"
    },
    {
      "midi": 70,
      "time": 64.8,
      "duration": 0.075,
      "velocity": 0.72,
      "hand": "right"
    },
    {
      "midi": 38,
      "time": 65.1,
      "duration": 0.075,
      "velocity": 0.57,
      "hand": "left"
    },
    {
      "midi": 42,
      "time": 65.1,
      "duration": 0.075,
      "velocity": 0.58,
      "hand": "left"
    },
    {
      "midi": 51,
      "time": 65.1,
      "duration": 0.075,
      "velocity": 0.54,
      "hand": "left"
    },
    {
      "midi": 54,
      "time": 65.1,
      "duration": 0.075,
      "velocity": 0.52,
      "hand": "left"
    },
    {
      "midi": 59,
      "time": 65.1,
      "duration": 0.075,
      "velocity": 0.63,
      "hand": "left"
    },
    {
      "midi": 62,
      "time": 65.1,
      "duration": 0.075,
      "velocity": 0.68,
      "hand": "right"
    },
    {
      "midi": 64,
      "time": 65.1,
      "duration": 0.075,
      "velocity": 0.58,
      "hand": "right"
    },
    {
      "midi": 67,
      "time": 65.1,
      "duration": 0.075,
      "velocity": 0.54,
      "hand": "right"
    },
    {
      "midi": 35,
      "time": 65.4,
      "duration": 0.075,
      "velocity": 0.72,
      "hand": "left"
    },
    {
      "midi": 40,
      "time": 65.4,
      "duration": 0.45,
      "velocity": 0.96,
      "hand": "left"
    },
    {
      "midi": 42,
      "time": 65.4,
      "duration": 0.075,
      "velocity": 0.54,
      "hand": "left"
    },
    {
      "midi": 51,
      "time": 65.4,
      "duration": 0.075,
      "velocity": 0.57,
      "hand": "left"
    },
    {
      "midi": 55,
      "time": 65.4,
      "duration": 0.3,
      "velocity": 0.58,
      "hand": "left"
    },
    {
      "midi": 59,
      "time": 65.4,
      "duration": 0.3,
      "velocity": 0.69,
      "hand": "left"
    },
    {
      "midi": 59,
      "time": 65.4,
      "duration": 0.15,
      "velocity": 0.72,
      "hand": "left"
    },
    {
      "midi": 62,
      "time": 65.4,
      "duration": 0.45,
      "velocity": 0.56,
      "hand": "right"
    },
    {
      "midi": 62,
      "time": 65.4,
      "duration": 0.075,
      "velocity": 0.72,
      "hand": "right"
    },
    {
      "midi": 64,
      "time": 65.4,
      "duration": 0.45,
      "velocity": 0.54,
      "hand": "right"
    },
    {
      "midi": 64,
      "time": 65.4,
      "duration": 0.075,
      "velocity": 0.69,
      "hand": "right"
    },
    {
      "midi": 67,
      "time": 65.4,
      "duration": 0.15,
      "velocity": 0.57,
      "hand": "right"
    },
    {
      "midi": 38,
      "time": 65.7,
      "duration": 0.075,
      "velocity": 0.56,
      "hand": "left"
    },
    {
      "midi": 42,
      "time": 65.7,
      "duration": 0.075,
      "velocity": 0.5,
      "hand": "left"
    },
    {
      "midi": 51,
      "time": 65.7,
      "duration": 0.075,
      "velocity": 0.56,
      "hand": "left"
    },
    {
      "midi": 54,
      "time": 65.7,
      "duration": 0.075,
      "velocity": 0.55,
      "hand": "left"
    },
    {
      "midi": 59,
      "time": 65.7,
      "duration": 0.15,
      "velocity": 0.54,
      "hand": "left"
    },
    {
      "midi": 62,
      "time": 65.7,
      "duration": 0.15,
      "velocity": 0.56,
      "hand": "right"
    },
    {
      "midi": 64,
      "time": 65.7,
      "duration": 0.075,
      "velocity": 0.55,
      "hand": "right"
    },
    {
      "midi": 67,
      "time": 65.7,
      "duration": 0.15,
      "velocity": 0.54,
      "hand": "right"
    },
    {
      "midi": 35,
      "time": 66,
      "duration": 0.075,
      "velocity": 0.57,
      "hand": "left"
    },
    {
      "midi": 38,
      "time": 66,
      "duration": 0.6,
      "velocity": 0.96,
      "hand": "left"
    },
    {
      "midi": 42,
      "time": 66,
      "duration": 0.075,
      "velocity": 0.55,
      "hand": "left"
    },
    {
      "midi": 51,
      "time": 66,
      "duration": 0.075,
      "velocity": 0.56,
      "hand": "left"
    },
    {
      "midi": 57,
      "time": 66,
      "duration": 0.45,
      "velocity": 0.72,
      "hand": "left"
    },
    {
      "midi": 57,
      "time": 66,
      "duration": 0.15,
      "velocity": 0.72,
      "hand": "left"
    },
    {
      "midi": 57,
      "time": 66,
      "duration": 0.45,
      "velocity": 0.73,
      "hand": "left"
    },
    {
      "midi": 57,
      "time": 66,
      "duration": 0.9,
      "velocity": 0.49,
      "hand": "left"
    },
    {
      "midi": 57,
      "time": 66,
      "duration": 0.45,
      "velocity": 0.73,
      "hand": "left"
    },
    {
      "midi": 60,
      "time": 66,
      "duration": 0.45,
      "velocity": 0.7,
      "hand": "right"
    },
    {
      "midi": 60,
      "time": 66,
      "duration": 0.9,
      "velocity": 0.5,
      "hand": "right"
    },
    {
      "midi": 62,
      "time": 66,
      "duration": 0.15,
      "velocity": 0.72,
      "hand": "right"
    },
    {
      "midi": 62,
      "time": 66,
      "duration": 1.2,
      "velocity": 0.51,
      "hand": "right"
    },
    {
      "midi": 62,
      "time": 66,
      "duration": 1.05,
      "velocity": 0.56,
      "hand": "right"
    },
    {
      "midi": 65,
      "time": 66,
      "duration": 0.45,
      "velocity": 0.68,
      "hand": "right"
    },
    {
      "midi": 65,
      "time": 66,
      "duration": 0.15,
      "velocity": 0.7,
      "hand": "right"
    },
    {
      "midi": 65,
      "time": 66,
      "duration": 1.05,
      "velocity": 0.5,
      "hand": "right"
    },
    {
      "midi": 69,
      "time": 66,
      "duration": 1.05,
      "velocity": 0.63,
      "hand": "right"
    },
    {
      "midi": 72,
      "time": 66,
      "duration": 1.05,
      "velocity": 0.56,
      "hand": "right"
    },
    {
      "midi": 38,
      "time": 66.3,
      "duration": 0.075,
      "velocity": 0.54,
      "hand": "left"
    },
    {
      "midi": 42,
      "time": 66.3,
      "duration": 0.075,
      "velocity": 0.54,
      "hand": "left"
    },
    {
      "midi": 51,
      "time": 66.3,
      "duration": 0.075,
      "velocity": 0.54,
      "hand": "left"
    },
    {
      "midi": 54,
      "time": 66.3,
      "duration": 0.075,
      "velocity": 0.55,
      "hand": "left"
    },
    {
      "midi": 70,
      "time": 66.3,
      "duration": 0.075,
      "velocity": 0.73,
      "hand": "right"
    },
    {
      "midi": 57,
      "time": 66.45,
      "duration": 0.15,
      "velocity": 0.63,
      "hand": "left"
    },
    {
      "midi": 62,
      "time": 66.45,
      "duration": 0.075,
      "velocity": 0.72,
      "hand": "right"
    },
    {
      "midi": 65,
      "time": 66.45,
      "duration": 0.075,
      "velocity": 0.57,
      "hand": "right"
    },
    {
      "midi": 33,
      "time": 66.6,
      "duration": 0.6,
      "velocity": 0.96,
      "hand": "left"
    },
    {
      "midi": 35,
      "time": 66.6,
      "duration": 0.075,
      "velocity": 0.68,
      "hand": "left"
    },
    {
      "midi": 42,
      "time": 66.6,
      "duration": 0.075,
      "velocity": 0.53,
      "hand": "left"
    },
    {
      "midi": 51,
      "time": 66.6,
      "duration": 0.075,
      "velocity": 0.54,
      "hand": "left"
    },
    {
      "midi": 57,
      "time": 66.6,
      "duration": 0.45,
      "velocity": 0.74,
      "hand": "left"
    },
    {
      "midi": 57,
      "time": 66.6,
      "duration": 0.15,
      "velocity": 0.54,
      "hand": "left"
    },
    {
      "midi": 60,
      "time": 66.6,
      "duration": 0.45,
      "velocity": 0.78,
      "hand": "right"
    },
    {
      "midi": 62,
      "time": 66.6,
      "duration": 0.075,
      "velocity": 0.68,
      "hand": "right"
    },
    {
      "midi": 65,
      "time": 66.6,
      "duration": 0.6,
      "velocity": 0.7,
      "hand": "right"
    },
    {
      "midi": 65,
      "time": 66.6,
      "duration": 0.15,
      "velocity": 0.49,
      "hand": "right"
    },
    {
      "midi": 69,
      "time": 66.6,
      "duration": 0.3,
      "velocity": 0.56,
      "hand": "right"
    },
    {
      "midi": 70,
      "time": 66.6,
      "duration": 0.075,
      "velocity": 0.72,
      "hand": "right"
    },
    {
      "midi": 38,
      "time": 66.9,
      "duration": 0.075,
      "velocity": 0.56,
      "hand": "left"
    },
    {
      "midi": 42,
      "time": 66.9,
      "duration": 0.075,
      "velocity": 0.57,
      "hand": "left"
    },
    {
      "midi": 51,
      "time": 66.9,
      "duration": 0.075,
      "velocity": 0.54,
      "hand": "left"
    },
    {
      "midi": 54,
      "time": 66.9,
      "duration": 0.075,
      "velocity": 0.54,
      "hand": "left"
    },
    {
      "midi": 57,
      "time": 66.9,
      "duration": 0.15,
      "velocity": 0.73,
      "hand": "left"
    },
    {
      "midi": 62,
      "time": 66.9,
      "duration": 0.15,
      "velocity": 0.75,
      "hand": "right"
    },
    {
      "midi": 65,
      "time": 66.9,
      "duration": 0.15,
      "velocity": 0.64,
      "hand": "right"
    },
    {
      "midi": 67,
      "time": 66.9,
      "duration": 0.6,
      "velocity": 0.5,
      "hand": "right"
    },
    {
      "midi": 70,
      "time": 66.9,
      "duration": 0.075,
      "velocity": 0.72,
      "hand": "right"
    },
    {
      "midi": 31,
      "time": 67.2,
      "duration": 0.6,
      "velocity": 0.96,
      "hand": "left"
    },
    {
      "midi": 35,
      "time": 67.2,
      "duration": 0.075,
      "velocity": 0.69,
      "hand": "left"
    },
    {
      "midi": 42,
      "time": 67.2,
      "duration": 0.075,
      "velocity": 0.68,
      "hand": "left"
    },
    {
      "midi": 51,
      "time": 67.2,
      "duration": 0.075,
      "velocity": 0.58,
      "hand": "left"
    },
    {
      "midi": 55,
      "time": 67.2,
      "duration": 0.45,
      "velocity": 0.68,
      "hand": "left"
    },
    {
      "midi": 55,
      "time": 67.2,
      "duration": 0.15,
      "velocity": 0.61,
      "hand": "left"
    },
    {
      "midi": 55,
      "time": 67.2,
      "duration": 0.9,
      "velocity": 0.5,
      "hand": "left"
    },
    {
      "midi": 59,
      "time": 67.2,
      "duration": 0.45,
      "velocity": 0.57,
      "hand": "left"
    },
    {
      "midi": 59,
      "time": 67.2,
      "duration": 0.15,
      "velocity": 0.58,
      "hand": "left"
    },
    {
      "midi": 59,
      "time": 67.2,
      "duration": 0.9,
      "velocity": 0.56,
      "hand": "left"
    },
    {
      "midi": 62,
      "time": 67.2,
      "duration": 0.6,
      "velocity": 0.54,
      "hand": "right"
    },
    {
      "midi": 62,
      "time": 67.2,
      "duration": 0.15,
      "velocity": 0.58,
      "hand": "right"
    },
    {
      "midi": 62,
      "time": 67.2,
      "duration": 0.9,
      "velocity": 0.49,
      "hand": "right"
    },
    {
      "midi": 65,
      "time": 67.2,
      "duration": 0.6,
      "velocity": 0.46,
      "hand": "right"
    },
    {
      "midi": 65,
      "time": 67.2,
      "duration": 0.15,
      "velocity": 0.54,
      "hand": "right"
    },
    {
      "midi": 65,
      "time": 67.2,
      "duration": 0.9,
      "velocity": 0.5,
      "hand": "right"
    },
    {
      "midi": 67,
      "time": 67.2,
      "duration": 1.05,
      "velocity": 0.61,
      "hand": "right"
    },
    {
      "midi": 70,
      "time": 67.2,
      "duration": 0.075,
      "velocity": 0.73,
      "hand": "right"
    },
    {
      "midi": 71,
      "time": 67.2,
      "duration": 1.05,
      "velocity": 0.57,
      "hand": "right"
    },
    {
      "midi": 38,
      "time": 67.5,
      "duration": 0.075,
      "velocity": 0.56,
      "hand": "left"
    },
    {
      "midi": 42,
      "time": 67.5,
      "duration": 0.075,
      "velocity": 0.61,
      "hand": "left"
    },
    {
      "midi": 51,
      "time": 67.5,
      "duration": 0.075,
      "velocity": 0.56,
      "hand": "left"
    },
    {
      "midi": 54,
      "time": 67.5,
      "duration": 0.075,
      "velocity": 0.55,
      "hand": "left"
    },
    {
      "midi": 55,
      "time": 67.5,
      "duration": 0.15,
      "velocity": 0.53,
      "hand": "left"
    },
    {
      "midi": 59,
      "time": 67.5,
      "duration": 0.15,
      "velocity": 0.55,
      "hand": "left"
    },
    {
      "midi": 62,
      "time": 67.5,
      "duration": 0.075,
      "velocity": 0.52,
      "hand": "right"
    },
    {
      "midi": 65,
      "time": 67.5,
      "duration": 0.15,
      "velocity": 0.54,
      "hand": "right"
    },
    {
      "midi": 65,
      "time": 67.5,
      "duration": 0.3,
      "velocity": 0.52,
      "hand": "right"
    },
    {
      "midi": 35,
      "time": 67.8,
      "duration": 0.075,
      "velocity": 0.57,
      "hand": "left"
    },
    {
      "midi": 38,
      "time": 67.8,
      "duration": 0.45,
      "velocity": 0.96,
      "hand": "left"
    },
    {
      "midi": 42,
      "time": 67.8,
      "duration": 0.075,
      "velocity": 0.61,
      "hand": "left"
    },
    {
      "midi": 51,
      "time": 67.8,
      "duration": 0.075,
      "velocity": 0.49,
      "hand": "left"
    },
    {
      "midi": 55,
      "time": 67.8,
      "duration": 0.45,
      "velocity": 0.54,
      "hand": "left"
    },
    {
      "midi": 55,
      "time": 67.8,
      "duration": 0.15,
      "velocity": 0.61,
      "hand": "left"
    },
    {
      "midi": 59,
      "time": 67.8,
      "duration": 0.3,
      "velocity": 0.55,
      "hand": "left"
    },
    {
      "midi": 59,
      "time": 67.8,
      "duration": 0.15,
      "velocity": 0.64,
      "hand": "left"
    },
    {
      "midi": 62,
      "time": 67.8,
      "duration": 0.3,
      "velocity": 0.54,
      "hand": "right"
    },
    {
      "midi": 62,
      "time": 67.8,
      "duration": 0.15,
      "velocity": 0.58,
      "hand": "right"
    },
    {
      "midi": 64,
      "time": 67.8,
      "duration": 0.3,
      "velocity": 0.57,
      "hand": "right"
    },
    {
      "midi": 65,
      "time": 67.8,
      "duration": 0.3,
      "velocity": 0.52,
      "hand": "right"
    },
    {
      "midi": 65,
      "time": 67.8,
      "duration": 0.15,
      "velocity": 0.57,
      "hand": "right"
    },
    {
      "midi": 38,
      "time": 68.1,
      "duration": 0.075,
      "velocity": 0.57,
      "hand": "left"
    },
    {
      "midi": 42,
      "time": 68.1,
      "duration": 0.075,
      "velocity": 0.58,
      "hand": "left"
    },
    {
      "midi": 51,
      "time": 68.1,
      "duration": 0.075,
      "velocity": 0.54,
      "hand": "left"
    },
    {
      "midi": 54,
      "time": 68.1,
      "duration": 0.075,
      "velocity": 0.54,
      "hand": "left"
    },
    {
      "midi": 55,
      "time": 68.1,
      "duration": 0.15,
      "velocity": 0.57,
      "hand": "left"
    },
    {
      "midi": 59,
      "time": 68.1,
      "duration": 0.075,
      "velocity": 0.61,
      "hand": "left"
    },
    {
      "midi": 62,
      "time": 68.1,
      "duration": 0.15,
      "velocity": 0.57,
      "hand": "right"
    },
    {
      "midi": 62,
      "time": 68.1,
      "duration": 0.3,
      "velocity": 0.54,
      "hand": "right"
    },
    {
      "midi": 65,
      "time": 68.1,
      "duration": 0.15,
      "velocity": 0.52,
      "hand": "right"
    },
    {
      "midi": 35,
      "time": 68.4,
      "duration": 0.075,
      "velocity": 0.7,
      "hand": "left"
    },
    {
      "midi": 36,
      "time": 68.4,
      "duration": 0.6,
      "velocity": 0.96,
      "hand": "left"
    },
    {
      "midi": 42,
      "time": 68.4,
      "duration": 0.075,
      "velocity": 0.55,
      "hand": "left"
    },
    {
      "midi": 51,
      "time": 68.4,
      "duration": 0.075,
      "velocity": 0.53,
      "hand": "left"
    },
    {
      "midi": 55,
      "time": 68.4,
      "duration": 0.6,
      "velocity": 0.54,
      "hand": "left"
    },
    {
      "midi": 55,
      "time": 68.4,
      "duration": 0.15,
      "velocity": 0.68,
      "hand": "left"
    },
    {
      "midi": 55,
      "time": 68.4,
      "duration": 0.75,
      "velocity": 0.4,
      "hand": "left"
    },
    {
      "midi": 60,
      "time": 68.4,
      "duration": 0.6,
      "velocity": 0.57,
      "hand": "right"
    },
    {
      "midi": 60,
      "time": 68.4,
      "duration": 0.15,
      "velocity": 0.73,
      "hand": "right"
    },
    {
      "midi": 60,
      "time": 68.4,
      "duration": 0.9,
      "velocity": 0.46,
      "hand": "right"
    },
    {
      "midi": 64,
      "time": 68.4,
      "duration": 0.6,
      "velocity": 0.56,
      "hand": "right"
    },
    {
      "midi": 64,
      "time": 68.4,
      "duration": 0.15,
      "velocity": 0.72,
      "hand": "right"
    },
    {
      "midi": 64,
      "time": 68.4,
      "duration": 1.5,
      "velocity": 0.52,
      "hand": "right"
    },
    {
      "midi": 64,
      "time": 68.4,
      "duration": 0.9,
      "velocity": 0.39,
      "hand": "right"
    },
    {
      "midi": 64,
      "time": 68.4,
      "duration": 1.5,
      "velocity": 0.52,
      "hand": "right"
    },
    {
      "midi": 67,
      "time": 68.4,
      "duration": 0.9,
      "velocity": 0.7,
      "hand": "right"
    },
    {
      "midi": 72,
      "time": 68.4,
      "duration": 1.05,
      "velocity": 0.69,
      "hand": "right"
    },
    {
      "midi": 38,
      "time": 68.7,
      "duration": 0.075,
      "velocity": 0.57,
      "hand": "left"
    },
    {
      "midi": 42,
      "time": 68.7,
      "duration": 0.075,
      "velocity": 0.61,
      "hand": "left"
    },
    {
      "midi": 51,
      "time": 68.7,
      "duration": 0.075,
      "velocity": 0.61,
      "hand": "left"
    },
    {
      "midi": 54,
      "time": 68.7,
      "duration": 0.075,
      "velocity": 0.57,
      "hand": "left"
    },
    {
      "midi": 70,
      "time": 68.7,
      "duration": 0.075,
      "velocity": 0.7,
      "hand": "right"
    },
    {
      "midi": 55,
      "time": 68.85,
      "duration": 0.15,
      "velocity": 0.57,
      "hand": "left"
    },
    {
      "midi": 60,
      "time": 68.85,
      "duration": 0.075,
      "velocity": 0.64,
      "hand": "right"
    },
    {
      "midi": 64,
      "time": 68.85,
      "duration": 0.15,
      "velocity": 0.59,
      "hand": "right"
    },
    {
      "midi": 31,
      "time": 69,
      "duration": 0.3,
      "velocity": 0.96,
      "hand": "left"
    },
    {
      "midi": 35,
      "time": 69,
      "duration": 0.075,
      "velocity": 0.73,
      "hand": "left"
    },
    {
      "midi": 42,
      "time": 69,
      "duration": 0.075,
      "velocity": 0.57,
      "hand": "left"
    },
    {
      "midi": 51,
      "time": 69,
      "duration": 0.075,
      "velocity": 0.53,
      "hand": "left"
    },
    {
      "midi": 55,
      "time": 69,
      "duration": 0.15,
      "velocity": 0.4,
      "hand": "left"
    },
    {
      "midi": 60,
      "time": 69,
      "duration": 0.3,
      "velocity": 0.56,
      "hand": "right"
    },
    {
      "midi": 60,
      "time": 69,
      "duration": 0.15,
      "velocity": 0.54,
      "hand": "right"
    },
    {
      "midi": 64,
      "time": 69,
      "duration": 0.3,
      "velocity": 0.52,
      "hand": "right"
    },
    {
      "midi": 64,
      "time": 69,
      "duration": 0.15,
      "velocity": 0.54,
      "hand": "right"
    },
    {
      "midi": 70,
      "time": 69,
      "duration": 0.075,
      "velocity": 0.63,
      "hand": "right"
    },
    {
      "midi": 36,
      "time": 69.3,
      "duration": 0.3,
      "velocity": 0.96,
      "hand": "left"
    },
    {
      "midi": 38,
      "time": 69.3,
      "duration": 0.075,
      "velocity": 0.55,
      "hand": "left"
    },
    {
      "midi": 42,
      "time": 69.3,
      "duration": 0.075,
      "velocity": 0.56,
      "hand": "left"
    },
    {
      "midi": 51,
      "time": 69.3,
      "duration": 0.075,
      "velocity": 0.57,
      "hand": "left"
    },
    {
      "midi": 54,
      "time": 69.3,
      "duration": 0.075,
      "velocity": 0.5,
      "hand": "left"
    },
    {
      "midi": 55,
      "time": 69.3,
      "duration": 0.15,
      "velocity": 0.65,
      "hand": "left"
    },
    {
      "midi": 60,
      "time": 69.3,
      "duration": 0.075,
      "velocity": 0.7,
      "hand": "right"
    },
    {
      "midi": 64,
      "time": 69.3,
      "duration": 0.15,
      "velocity": 0.7,
      "hand": "right"
    },
    {
      "midi": 70,
      "time": 69.3,
      "duration": 0.075,
      "velocity": 0.56,
      "hand": "right"
    },
    {
      "midi": 35,
      "time": 69.6,
      "duration": 0.075,
      "velocity": 0.72,
      "hand": "left"
    },
    {
      "midi": 38,
      "time": 69.6,
      "duration": 0.6,
      "velocity": 0.96,
      "hand": "left"
    },
    {
      "midi": 40,
      "time": 69.6,
      "duration": 0.3,
      "velocity": 0.96,
      "hand": "left"
    },
    {
      "midi": 42,
      "time": 69.6,
      "duration": 0.075,
      "velocity": 0.54,
      "hand": "left"
    },
    {
      "midi": 50,
      "time": 69.6,
      "duration": 0.15,
      "velocity": 0.63,
      "hand": "left"
    },
    {
      "midi": 51,
      "time": 69.6,
      "duration": 0.075,
      "velocity": 0.46,
      "hand": "left"
    },
    {
      "midi": 57,
      "time": 69.6,
      "duration": 0.3,
      "velocity": 0.72,
      "hand": "left"
    },
    {
      "midi": 57,
      "time": 69.6,
      "duration": 0.15,
      "velocity": 0.57,
      "hand": "left"
    },
    {
      "midi": 57,
      "time": 69.6,
      "duration": 0.3,
      "velocity": 0.47,
      "hand": "left"
    },
    {
      "midi": 60,
      "time": 69.6,
      "duration": 0.3,
      "velocity": 0.74,
      "hand": "right"
    },
    {
      "midi": 60,
      "time": 69.6,
      "duration": 0.15,
      "velocity": 0.7,
      "hand": "right"
    },
    {
      "midi": 60,
      "time": 69.6,
      "duration": 0.3,
      "velocity": 0.52,
      "hand": "right"
    },
    {
      "midi": 62,
      "time": 69.6,
      "duration": 0.3,
      "velocity": 0.72,
      "hand": "right"
    },
    {
      "midi": 62,
      "time": 69.6,
      "duration": 0.15,
      "velocity": 0.63,
      "hand": "right"
    },
    {
      "midi": 62,
      "time": 69.6,
      "duration": 0.45,
      "velocity": 0.49,
      "hand": "right"
    },
    {
      "midi": 62,
      "time": 69.6,
      "duration": 0.6,
      "velocity": 0.55,
      "hand": "right"
    },
    {
      "midi": 65,
      "time": 69.6,
      "duration": 0.3,
      "velocity": 0.64,
      "hand": "right"
    },
    {
      "midi": 65,
      "time": 69.6,
      "duration": 0.15,
      "velocity": 0.59,
      "hand": "right"
    },
    {
      "midi": 65,
      "time": 69.6,
      "duration": 0.45,
      "velocity": 0.46,
      "hand": "right"
    },
    {
      "midi": 69,
      "time": 69.6,
      "duration": 0.45,
      "velocity": 0.56,
      "hand": "right"
    },
    {
      "midi": 70,
      "time": 69.6,
      "duration": 0.075,
      "velocity": 0.73,
      "hand": "right"
    },
    {
      "midi": 72,
      "time": 69.6,
      "duration": 0.45,
      "velocity": 0.54,
      "hand": "right"
    },
    {
      "midi": 48,
      "time": 69.75,
      "duration": 0.15,
      "velocity": 0.54,
      "hand": "left"
    },
    {
      "midi": 38,
      "time": 69.9,
      "duration": 0.075,
      "velocity": 0.56,
      "hand": "left"
    },
    {
      "midi": 42,
      "time": 69.9,
      "duration": 0.075,
      "velocity": 0.46,
      "hand": "left"
    },
    {
      "midi": 51,
      "time": 69.9,
      "duration": 0.075,
      "velocity": 0.52,
      "hand": "left"
    },
    {
      "midi": 54,
      "time": 69.9,
      "duration": 0.075,
      "velocity": 0.56,
      "hand": "left"
    },
    {
      "midi": 57,
      "time": 69.9,
      "duration": 0.15,
      "velocity": 0.54,
      "hand": "left"
    },
    {
      "midi": 60,
      "time": 69.9,
      "duration": 0.15,
      "velocity": 0.57,
      "hand": "right"
    },
    {
      "midi": 62,
      "time": 69.9,
      "duration": 0.15,
      "velocity": 0.57,
      "hand": "right"
    },
    {
      "midi": 65,
      "time": 69.9,
      "duration": 0.3,
      "velocity": 0.54,
      "hand": "right"
    },
    {
      "midi": 65,
      "time": 69.9,
      "duration": 0.15,
      "velocity": 0.57,
      "hand": "right"
    },
    {
      "midi": 47,
      "time": 70.05,
      "duration": 0.15,
      "velocity": 0.63,
      "hand": "left"
    },
    {
      "midi": 31,
      "time": 70.2,
      "duration": 0.45,
      "velocity": 0.96,
      "hand": "left"
    },
    {
      "midi": 35,
      "time": 70.2,
      "duration": 0.075,
      "velocity": 0.7,
      "hand": "left"
    },
    {
      "midi": 42,
      "time": 70.2,
      "duration": 0.075,
      "velocity": 0.5,
      "hand": "left"
    },
    {
      "midi": 45,
      "time": 70.2,
      "duration": 0.15,
      "velocity": 0.63,
      "hand": "left"
    },
    {
      "midi": 51,
      "time": 70.2,
      "duration": 0.075,
      "velocity": 0.54,
      "hand": "left"
    },
    {
      "midi": 55,
      "time": 70.2,
      "duration": 0.3,
      "velocity": 0.69,
      "hand": "left"
    },
    {
      "midi": 55,
      "time": 70.2,
      "duration": 0.15,
      "velocity": 0.68,
      "hand": "left"
    },
    {
      "midi": 55,
      "time": 70.2,
      "duration": 0.3,
      "velocity": 0.49,
      "hand": "left"
    },
    {
      "midi": 59,
      "time": 70.2,
      "duration": 0.3,
      "velocity": 0.73,
      "hand": "left"
    },
    {
      "midi": 59,
      "time": 70.2,
      "duration": 0.15,
      "velocity": 0.72,
      "hand": "left"
    },
    {
      "midi": 59,
      "time": 70.2,
      "duration": 0.3,
      "velocity": 0.56,
      "hand": "left"
    },
    {
      "midi": 62,
      "time": 70.2,
      "duration": 0.3,
      "velocity": 0.65,
      "hand": "right"
    },
    {
      "midi": 62,
      "time": 70.2,
      "duration": 0.15,
      "velocity": 0.61,
      "hand": "right"
    },
    {
      "midi": 62,
      "time": 70.2,
      "duration": 0.3,
      "velocity": 0.42,
      "hand": "right"
    },
    {
      "midi": 65,
      "time": 70.2,
      "duration": 0.3,
      "velocity": 0.51,
      "hand": "right"
    },
    {
      "midi": 65,
      "time": 70.2,
      "duration": 0.15,
      "velocity": 0.57,
      "hand": "right"
    },
    {
      "midi": 65,
      "time": 70.2,
      "duration": 0.3,
      "velocity": 0.49,
      "hand": "right"
    },
    {
      "midi": 67,
      "time": 70.2,
      "duration": 0.3,
      "velocity": 0.55,
      "hand": "right"
    },
    {
      "midi": 71,
      "time": 70.2,
      "duration": 0.45,
      "velocity": 0.51,
      "hand": "right"
    },
    {
      "midi": 38,
      "time": 70.5,
      "duration": 0.075,
      "velocity": 0.53,
      "hand": "left"
    },
    {
      "midi": 42,
      "time": 70.5,
      "duration": 0.075,
      "velocity": 0.54,
      "hand": "left"
    },
    {
      "midi": 43,
      "time": 70.5,
      "duration": 0.15,
      "velocity": 0.69,
      "hand": "left"
    },
    {
      "midi": 51,
      "time": 70.5,
      "duration": 0.075,
      "velocity": 0.54,
      "hand": "left"
    },
    {
      "midi": 54,
      "time": 70.5,
      "duration": 0.075,
      "velocity": 0.57,
      "hand": "left"
    },
    {
      "midi": 55,
      "time": 70.5,
      "duration": 0.15,
      "velocity": 0.55,
      "hand": "left"
    },
    {
      "midi": 59,
      "time": 70.5,
      "duration": 0.15,
      "velocity": 0.57,
      "hand": "left"
    },
    {
      "midi": 62,
      "time": 70.5,
      "duration": 0.15,
      "velocity": 0.57,
      "hand": "right"
    },
    {
      "midi": 65,
      "time": 70.5,
      "duration": 0.15,
      "velocity": 0.54,
      "hand": "right"
    },
    {
      "midi": 35,
      "time": 70.8,
      "duration": 0.075,
      "velocity": 0.69,
      "hand": "left"
    },
    {
      "midi": 36,
      "time": 70.8,
      "duration": 0.6,
      "velocity": 0.96,
      "hand": "left"
    },
    {
      "midi": 42,
      "time": 70.8,
      "duration": 0.075,
      "velocity": 0.54,
      "hand": "left"
    },
    {
      "midi": 49,
      "time": 70.8,
      "duration": 0.075,
      "velocity": 0.79,
      "hand": "left"
    },
    {
      "midi": 51,
      "time": 70.8,
      "duration": 0.075,
      "velocity": 0.51,
      "hand": "left"
    },
    {
      "midi": 55,
      "time": 70.8,
      "duration": 0.75,
      "velocity": 0.64,
      "hand": "left"
    },
    {
      "midi": 55,
      "time": 70.8,
      "duration": 2.25,
      "velocity": 0.4,
      "hand": "left"
    },
    {
      "midi": 57,
      "time": 70.8,
      "duration": 0.15,
      "velocity": 0.63,
      "hand": "left"
    },
    {
      "midi": 60,
      "time": 70.8,
      "duration": 0.75,
      "velocity": 0.74,
      "hand": "right"
    },
    {
      "midi": 60,
      "time": 70.8,
      "duration": 0.6,
      "velocity": 0.69,
      "hand": "right"
    },
    {
      "midi": 60,
      "time": 70.8,
      "duration": 2.25,
      "velocity": 0.49,
      "hand": "right"
    },
    {
      "midi": 60,
      "time": 70.8,
      "duration": 1.65,
      "velocity": 0.63,
      "hand": "right"
    },
    {
      "midi": 60,
      "time": 70.8,
      "duration": 0.6,
      "velocity": 0.69,
      "hand": "right"
    },
    {
      "midi": 62,
      "time": 70.8,
      "duration": 0.15,
      "velocity": 0.61,
      "hand": "right"
    },
    {
      "midi": 64,
      "time": 70.8,
      "duration": 0.75,
      "velocity": 0.69,
      "hand": "right"
    },
    {
      "midi": 64,
      "time": 70.8,
      "duration": 2.25,
      "velocity": 0.48,
      "hand": "right"
    },
    {
      "midi": 64,
      "time": 70.8,
      "duration": 1.65,
      "velocity": 0.72,
      "hand": "right"
    },
    {
      "midi": 67,
      "time": 70.8,
      "duration": 0.15,
      "velocity": 0.57,
      "hand": "right"
    },
    {
      "midi": 67,
      "time": 70.8,
      "duration": 1.65,
      "velocity": 0.63,
      "hand": "right"
    },
    {
      "midi": 38,
      "time": 71.1,
      "duration": 0.075,
      "velocity": 0.54,
      "hand": "left"
    },
    {
      "midi": 42,
      "time": 71.1,
      "duration": 0.075,
      "velocity": 0.57,
      "hand": "left"
    },
    {
      "midi": 51,
      "time": 71.1,
      "duration": 0.075,
      "velocity": 0.55,
      "hand": "left"
    },
    {
      "midi": 54,
      "time": 71.1,
      "duration": 0.075,
      "velocity": 0.54,
      "hand": "left"
    },
    {
      "midi": 70,
      "time": 71.1,
      "duration": 0.075,
      "velocity": 0.72,
      "hand": "right"
    },
    {
      "midi": 57,
      "time": 71.25,
      "duration": 0.15,
      "velocity": 0.57,
      "hand": "left"
    },
    {
      "midi": 62,
      "time": 71.25,
      "duration": 0.075,
      "velocity": 0.61,
      "hand": "right"
    },
    {
      "midi": 67,
      "time": 71.25,
      "duration": 0.15,
      "velocity": 0.54,
      "hand": "right"
    },
    {
      "midi": 31,
      "time": 71.4,
      "duration": 0.6,
      "velocity": 0.96,
      "hand": "left"
    },
    {
      "midi": 35,
      "time": 71.4,
      "duration": 0.075,
      "velocity": 0.56,
      "hand": "left"
    },
    {
      "midi": 42,
      "time": 71.4,
      "duration": 0.075,
      "velocity": 0.57,
      "hand": "left"
    },
    {
      "midi": 51,
      "time": 71.4,
      "duration": 0.075,
      "velocity": 0.5,
      "hand": "left"
    },
    {
      "midi": 57,
      "time": 71.4,
      "duration": 0.15,
      "velocity": 0.52,
      "hand": "left"
    },
    {
      "midi": 62,
      "time": 71.4,
      "duration": 0.075,
      "velocity": 0.64,
      "hand": "right"
    },
    {
      "midi": 64,
      "time": 71.4,
      "duration": 0.3,
      "velocity": 0.59,
      "hand": "right"
    },
    {
      "midi": 67,
      "time": 71.4,
      "duration": 0.15,
      "velocity": 0.4,
      "hand": "right"
    },
    {
      "midi": 70,
      "time": 71.4,
      "duration": 0.075,
      "velocity": 0.69,
      "hand": "right"
    },
    {
      "midi": 38,
      "time": 71.7,
      "duration": 0.075,
      "velocity": 0.55,
      "hand": "left"
    },
    {
      "midi": 42,
      "time": 71.7,
      "duration": 0.075,
      "velocity": 0.54,
      "hand": "left"
    },
    {
      "midi": 51,
      "time": 71.7,
      "duration": 0.075,
      "velocity": 0.54,
      "hand": "left"
    },
    {
      "midi": 54,
      "time": 71.7,
      "duration": 0.075,
      "velocity": 0.64,
      "hand": "left"
    },
    {
      "midi": 55,
      "time": 71.7,
      "duration": 0.75,
      "velocity": 0.63,
      "hand": "left"
    },
    {
      "midi": 57,
      "time": 71.7,
      "duration": 0.15,
      "velocity": 0.68,
      "hand": "left"
    },
    {
      "midi": 60,
      "time": 71.7,
      "duration": 0.75,
      "velocity": 0.7,
      "hand": "right"
    },
    {
      "midi": 62,
      "time": 71.7,
      "duration": 0.075,
      "velocity": 0.73,
      "hand": "right"
    },
    {
      "midi": 64,
      "time": 71.7,
      "duration": 0.075,
      "velocity": 0.54,
      "hand": "right"
    },
    {
      "midi": 67,
      "time": 71.7,
      "duration": 0.75,
      "velocity": 0.73,
      "hand": "right"
    },
    {
      "midi": 67,
      "time": 71.7,
      "duration": 0.15,
      "velocity": 0.59,
      "hand": "right"
    },
    {
      "midi": 67,
      "time": 71.7,
      "duration": 0.6,
      "velocity": 0.51,
      "hand": "right"
    },
    {
      "midi": 70,
      "time": 71.7,
      "duration": 0.075,
      "velocity": 0.7,
      "hand": "right"
    },
    {
      "midi": 35,
      "time": 72,
      "duration": 0.075,
      "velocity": 0.56,
      "hand": "left"
    },
    {
      "midi": 36,
      "time": 72,
      "duration": 0.45,
      "velocity": 0.96,
      "hand": "left"
    },
    {
      "midi": 42,
      "time": 72,
      "duration": 0.075,
      "velocity": 0.65,
      "hand": "left"
    },
    {
      "midi": 51,
      "time": 72,
      "duration": 0.075,
      "velocity": 0.57,
      "hand": "left"
    },
    {
      "midi": 70,
      "time": 72,
      "duration": 0.075,
      "velocity": 0.72,
      "hand": "right"
    },
    {
      "midi": 38,
      "time": 72.3,
      "duration": 0.075,
      "velocity": 0.54,
      "hand": "left"
    },
    {
      "midi": 42,
      "time": 72.3,
      "duration": 0.075,
      "velocity": 0.58,
      "hand": "left"
    },
    {
      "midi": 51,
      "time": 72.3,
      "duration": 0.075,
      "velocity": 0.54,
      "hand": "left"
    },
    {
      "midi": 54,
      "time": 72.3,
      "duration": 0.075,
      "velocity": 0.56,
      "hand": "left"
    },
    {
      "midi": 57,
      "time": 72.3,
      "duration": 0.15,
      "velocity": 0.57,
      "hand": "left"
    },
    {
      "midi": 62,
      "time": 72.3,
      "duration": 0.15,
      "velocity": 0.7,
      "hand": "right"
    },
    {
      "midi": 64,
      "time": 72.3,
      "duration": 0.3,
      "velocity": 0.57,
      "hand": "right"
    },
    {
      "midi": 67,
      "time": 72.3,
      "duration": 0.15,
      "velocity": 0.56,
      "hand": "right"
    },
    {
      "midi": 31,
      "time": 72.6,
      "duration": 0.45,
      "velocity": 0.96,
      "hand": "left"
    },
    {
      "midi": 35,
      "time": 72.6,
      "duration": 0.075,
      "velocity": 0.61,
      "hand": "left"
    },
    {
      "midi": 42,
      "time": 72.6,
      "duration": 0.075,
      "velocity": 0.55,
      "hand": "left"
    },
    {
      "midi": 51,
      "time": 72.6,
      "duration": 0.075,
      "velocity": 0.61,
      "hand": "left"
    },
    {
      "midi": 55,
      "time": 72.6,
      "duration": 0.15,
      "velocity": 0.56,
      "hand": "left"
    },
    {
      "midi": 57,
      "time": 72.6,
      "duration": 0.15,
      "velocity": 0.61,
      "hand": "left"
    },
    {
      "midi": 60,
      "time": 72.6,
      "duration": 0.15,
      "velocity": 0.64,
      "hand": "right"
    },
    {
      "midi": 60,
      "time": 72.6,
      "duration": 0.45,
      "velocity": 0.51,
      "hand": "right"
    },
    {
      "midi": 62,
      "time": 72.6,
      "duration": 0.15,
      "velocity": 0.72,
      "hand": "right"
    },
    {
      "midi": 62,
      "time": 72.6,
      "duration": 0.3,
      "velocity": 0.49,
      "hand": "right"
    },
    {
      "midi": 64,
      "time": 72.6,
      "duration": 0.15,
      "velocity": 0.63,
      "hand": "right"
    },
    {
      "midi": 64,
      "time": 72.6,
      "duration": 0.45,
      "velocity": 0.55,
      "hand": "right"
    },
    {
      "midi": 67,
      "time": 72.6,
      "duration": 0.15,
      "velocity": 0.54,
      "hand": "right"
    },
    {
      "midi": 69,
      "time": 72.6,
      "duration": 0.45,
      "velocity": 0.57,
      "hand": "right"
    },
    {
      "midi": 38,
      "time": 72.9,
      "duration": 0.075,
      "velocity": 0.56,
      "hand": "left"
    },
    {
      "midi": 42,
      "time": 72.9,
      "duration": 0.075,
      "velocity": 0.55,
      "hand": "left"
    },
    {
      "midi": 51,
      "time": 72.9,
      "duration": 0.075,
      "velocity": 0.56,
      "hand": "left"
    },
    {
      "midi": 54,
      "time": 72.9,
      "duration": 0.075,
      "velocity": 0.58,
      "hand": "left"
    },
    {
      "midi": 57,
      "time": 72.9,
      "duration": 0.15,
      "velocity": 0.54,
      "hand": "left"
    },
    {
      "midi": 60,
      "time": 72.9,
      "duration": 0.15,
      "velocity": 0.54,
      "hand": "right"
    },
    {
      "midi": 62,
      "time": 72.9,
      "duration": 0.15,
      "velocity": 0.61,
      "hand": "right"
    },
    {
      "midi": 67,
      "time": 72.9,
      "duration": 0.15,
      "velocity": 0.51,
      "hand": "right"
    },
    {
      "midi": 35,
      "time": 73.2,
      "duration": 0.6,
      "velocity": 0.96,
      "hand": "left"
    },
    {
      "midi": 35,
      "time": 73.2,
      "duration": 0.075,
      "velocity": 0.59,
      "hand": "left"
    },
    {
      "midi": 42,
      "time": 73.2,
      "duration": 0.075,
      "velocity": 0.54,
      "hand": "left"
    },
    {
      "midi": 55,
      "time": 73.2,
      "duration": 1.95,
      "velocity": 0.4,
      "hand": "left"
    },
    {
      "midi": 59,
      "time": 73.2,
      "duration": 0.15,
      "velocity": 0.58,
      "hand": "left"
    },
    {
      "midi": 59,
      "time": 73.2,
      "duration": 0.45,
      "velocity": 0.57,
      "hand": "left"
    },
    {
      "midi": 59,
      "time": 73.2,
      "duration": 1.95,
      "velocity": 0.54,
      "hand": "left"
    },
    {
      "midi": 59,
      "time": 73.2,
      "duration": 0.45,
      "velocity": 0.57,
      "hand": "left"
    },
    {
      "midi": 60,
      "time": 73.2,
      "duration": 1.65,
      "velocity": 0.55,
      "hand": "right"
    },
    {
      "midi": 62,
      "time": 73.2,
      "duration": 0.75,
      "velocity": 0.69,
      "hand": "right"
    },
    {
      "midi": 62,
      "time": 73.2,
      "duration": 0.15,
      "velocity": 0.61,
      "hand": "right"
    },
    {
      "midi": 64,
      "time": 73.2,
      "duration": 0.75,
      "velocity": 0.7,
      "hand": "right"
    },
    {
      "midi": 64,
      "time": 73.2,
      "duration": 0.15,
      "velocity": 0.61,
      "hand": "right"
    },
    {
      "midi": 64,
      "time": 73.2,
      "duration": 1.95,
      "velocity": 0.29,
      "hand": "right"
    },
    {
      "midi": 64,
      "time": 73.2,
      "duration": 1.8,
      "velocity": 0.54,
      "hand": "right"
    },
    {
      "midi": 67,
      "time": 73.2,
      "duration": 0.75,
      "velocity": 0.61,
      "hand": "right"
    },
    {
      "midi": 67,
      "time": 73.2,
      "duration": 0.15,
      "velocity": 0.56,
      "hand": "right"
    },
    {
      "midi": 67,
      "time": 73.2,
      "duration": 1.8,
      "velocity": 0.56,
      "hand": "right"
    },
    {
      "midi": 71,
      "time": 73.2,
      "duration": 0.75,
      "velocity": 0.65,
      "hand": "right"
    },
    {
      "midi": 71,
      "time": 73.2,
      "duration": 1.8,
      "velocity": 0.54,
      "hand": "right"
    },
    {
      "midi": 38,
      "time": 73.5,
      "duration": 0.075,
      "velocity": 0.57,
      "hand": "left"
    },
    {
      "midi": 42,
      "time": 73.5,
      "duration": 0.075,
      "velocity": 0.65,
      "hand": "left"
    },
    {
      "midi": 51,
      "time": 73.5,
      "duration": 0.075,
      "velocity": 0.56,
      "hand": "left"
    },
    {
      "midi": 54,
      "time": 73.5,
      "duration": 0.075,
      "velocity": 0.68,
      "hand": "left"
    },
    {
      "midi": 70,
      "time": 73.5,
      "duration": 0.075,
      "velocity": 0.72,
      "hand": "right"
    },
    {
      "midi": 59,
      "time": 73.65,
      "duration": 0.15,
      "velocity": 0.61,
      "hand": "left"
    },
    {
      "midi": 62,
      "time": 73.65,
      "duration": 0.075,
      "velocity": 0.55,
      "hand": "right"
    },
    {
      "midi": 64,
      "time": 73.65,
      "duration": 0.075,
      "velocity": 0.57,
      "hand": "right"
    },
    {
      "midi": 67,
      "time": 73.65,
      "duration": 0.15,
      "velocity": 0.52,
      "hand": "right"
    },
    {
      "midi": 35,
      "time": 73.8,
      "duration": 0.075,
      "velocity": 0.55,
      "hand": "left"
    },
    {
      "midi": 40,
      "time": 73.8,
      "duration": 0.6,
      "velocity": 0.96,
      "hand": "left"
    },
    {
      "midi": 42,
      "time": 73.8,
      "duration": 0.075,
      "velocity": 0.59,
      "hand": "left"
    },
    {
      "midi": 51,
      "time": 73.8,
      "duration": 0.075,
      "velocity": 0.57,
      "hand": "left"
    },
    {
      "midi": 59,
      "time": 73.8,
      "duration": 0.15,
      "velocity": 0.54,
      "hand": "left"
    },
    {
      "midi": 62,
      "time": 73.8,
      "duration": 0.075,
      "velocity": 0.54,
      "hand": "right"
    },
    {
      "midi": 64,
      "time": 73.8,
      "duration": 0.075,
      "velocity": 0.57,
      "hand": "right"
    },
    {
      "midi": 67,
      "time": 73.8,
      "duration": 0.15,
      "velocity": 0.38,
      "hand": "right"
    },
    {
      "midi": 69,
      "time": 73.8,
      "duration": 0.3,
      "velocity": 0.59,
      "hand": "right"
    },
    {
      "midi": 70,
      "time": 73.8,
      "duration": 0.075,
      "velocity": 0.69,
      "hand": "right"
    },
    {
      "midi": 38,
      "time": 74.1,
      "duration": 0.075,
      "velocity": 0.53,
      "hand": "left"
    },
    {
      "midi": 42,
      "time": 74.1,
      "duration": 0.075,
      "velocity": 0.58,
      "hand": "left"
    },
    {
      "midi": 51,
      "time": 74.1,
      "duration": 0.075,
      "velocity": 0.49,
      "hand": "left"
    },
    {
      "midi": 54,
      "time": 74.1,
      "duration": 0.075,
      "velocity": 0.56,
      "hand": "left"
    },
    {
      "midi": 59,
      "time": 74.1,
      "duration": 0.15,
      "velocity": 0.72,
      "hand": "left"
    },
    {
      "midi": 62,
      "time": 74.1,
      "duration": 0.75,
      "velocity": 0.72,
      "hand": "right"
    },
    {
      "midi": 62,
      "time": 74.1,
      "duration": 0.075,
      "velocity": 0.72,
      "hand": "right"
    },
    {
      "midi": 64,
      "time": 74.1,
      "duration": 0.75,
      "velocity": 0.72,
      "hand": "right"
    },
    {
      "midi": 64,
      "time": 74.1,
      "duration": 0.075,
      "velocity": 0.72,
      "hand": "right"
    },
    {
      "midi": 67,
      "time": 74.1,
      "duration": 0.75,
      "velocity": 0.72,
      "hand": "right"
    },
    {
      "midi": 67,
      "time": 74.1,
      "duration": 0.15,
      "velocity": 0.61,
      "hand": "right"
    },
    {
      "midi": 67,
      "time": 74.1,
      "duration": 1.5,
      "velocity": 0.54,
      "hand": "right"
    },
    {
      "midi": 70,
      "time": 74.1,
      "duration": 0.075,
      "velocity": 0.68,
      "hand": "right"
    },
    {
      "midi": 71,
      "time": 74.1,
      "duration": 0.75,
      "velocity": 0.68,
      "hand": "right"
    },
    {
      "midi": 35,
      "time": 74.4,
      "duration": 0.6,
      "velocity": 0.96,
      "hand": "left"
    },
    {
      "midi": 35,
      "time": 74.4,
      "duration": 0.075,
      "velocity": 0.69,
      "hand": "left"
    },
    {
      "midi": 51,
      "time": 74.4,
      "duration": 0.075,
      "velocity": 0.54,
      "hand": "left"
    },
    {
      "midi": 70,
      "time": 74.4,
      "duration": 0.075,
      "velocity": 0.61,
      "hand": "right"
    },
    {
      "midi": 38,
      "time": 74.7,
      "duration": 0.075,
      "velocity": 0.58,
      "hand": "left"
    },
    {
      "midi": 42,
      "time": 74.7,
      "duration": 0.075,
      "velocity": 0.63,
      "hand": "left"
    },
    {
      "midi": 51,
      "time": 74.7,
      "duration": 0.075,
      "velocity": 0.55,
      "hand": "left"
    },
    {
      "midi": 54,
      "time": 74.7,
      "duration": 0.075,
      "velocity": 0.52,
      "hand": "left"
    },
    {
      "midi": 59,
      "time": 74.7,
      "duration": 0.15,
      "velocity": 0.7,
      "hand": "left"
    },
    {
      "midi": 62,
      "time": 74.7,
      "duration": 0.075,
      "velocity": 0.72,
      "hand": "right"
    },
    {
      "midi": 64,
      "time": 74.7,
      "duration": 0.075,
      "velocity": 0.72,
      "hand": "right"
    },
    {
      "midi": 67,
      "time": 74.7,
      "duration": 0.075,
      "velocity": 0.57,
      "hand": "right"
    },
    {
      "midi": 70,
      "time": 74.7,
      "duration": 0.075,
      "velocity": 0.72,
      "hand": "right"
    },
    {
      "midi": 35,
      "time": 75,
      "duration": 0.075,
      "velocity": 0.7,
      "hand": "left"
    },
    {
      "midi": 40,
      "time": 75,
      "duration": 0.6,
      "velocity": 0.96,
      "hand": "left"
    },
    {
      "midi": 42,
      "time": 75,
      "duration": 0.075,
      "velocity": 0.54,
      "hand": "left"
    },
    {
      "midi": 51,
      "time": 75,
      "duration": 0.075,
      "velocity": 0.51,
      "hand": "left"
    },
    {
      "midi": 59,
      "time": 75,
      "duration": 0.15,
      "velocity": 0.65,
      "hand": "left"
    },
    {
      "midi": 62,
      "time": 75,
      "duration": 0.15,
      "velocity": 0.65,
      "hand": "right"
    },
    {
      "midi": 64,
      "time": 75,
      "duration": 0.15,
      "velocity": 0.63,
      "hand": "right"
    },
    {
      "midi": 67,
      "time": 75,
      "duration": 0.15,
      "velocity": 0.57,
      "hand": "right"
    },
    {
      "midi": 70,
      "time": 75,
      "duration": 0.075,
      "velocity": 0.72,
      "hand": "right"
    },
    {
      "midi": 71,
      "time": 75,
      "duration": 0.15,
      "velocity": 0.57,
      "hand": "right"
    },
    {
      "midi": 38,
      "time": 75.3,
      "duration": 0.075,
      "velocity": 0.52,
      "hand": "left"
    },
    {
      "midi": 42,
      "time": 75.3,
      "duration": 0.075,
      "velocity": 0.54,
      "hand": "left"
    },
    {
      "midi": 51,
      "time": 75.3,
      "duration": 0.075,
      "velocity": 0.54,
      "hand": "left"
    },
    {
      "midi": 54,
      "time": 75.3,
      "duration": 0.075,
      "velocity": 0.57,
      "hand": "left"
    },
    {
      "midi": 70,
      "time": 75.3,
      "duration": 0.075,
      "velocity": 0.58,
      "hand": "right"
    },
    {
      "midi": 35,
      "time": 75.6,
      "duration": 0.075,
      "velocity": 0.69,
      "hand": "left"
    },
    {
      "midi": 38,
      "time": 75.6,
      "duration": 0.6,
      "velocity": 0.96,
      "hand": "left"
    },
    {
      "midi": 51,
      "time": 75.6,
      "duration": 0.075,
      "velocity": 0.54,
      "hand": "left"
    },
    {
      "midi": 57,
      "time": 75.6,
      "duration": 0.45,
      "velocity": 0.72,
      "hand": "left"
    },
    {
      "midi": 57,
      "time": 75.6,
      "duration": 0.15,
      "velocity": 0.72,
      "hand": "left"
    },
    {
      "midi": 57,
      "time": 75.6,
      "duration": 0.45,
      "velocity": 0.65,
      "hand": "left"
    },
    {
      "midi": 57,
      "time": 75.6,
      "duration": 0.75,
      "velocity": 0.47,
      "hand": "left"
    },
    {
      "midi": 57,
      "time": 75.6,
      "duration": 0.45,
      "velocity": 0.65,
      "hand": "left"
    },
    {
      "midi": 60,
      "time": 75.6,
      "duration": 0.45,
      "velocity": 0.72,
      "hand": "right"
    },
    {
      "midi": 60,
      "time": 75.6,
      "duration": 0.075,
      "velocity": 0.73,
      "hand": "right"
    },
    {
      "midi": 60,
      "time": 75.6,
      "duration": 0.9,
      "velocity": 0.52,
      "hand": "right"
    },
    {
      "midi": 62,
      "time": 75.6,
      "duration": 0.45,
      "velocity": 0.72,
      "hand": "right"
    },
    {
      "midi": 62,
      "time": 75.6,
      "duration": 0.15,
      "velocity": 0.72,
      "hand": "right"
    },
    {
      "midi": 62,
      "time": 75.6,
      "duration": 1.05,
      "velocity": 0.49,
      "hand": "right"
    },
    {
      "midi": 65,
      "time": 75.6,
      "duration": 0.45,
      "velocity": 0.57,
      "hand": "right"
    },
    {
      "midi": 65,
      "time": 75.6,
      "duration": 0.15,
      "velocity": 0.58,
      "hand": "right"
    },
    {
      "midi": 65,
      "time": 75.6,
      "duration": 1.05,
      "velocity": 0.51,
      "hand": "right"
    },
    {
      "midi": 69,
      "time": 75.6,
      "duration": 1.05,
      "velocity": 0.63,
      "hand": "right"
    },
    {
      "midi": 70,
      "time": 75.6,
      "duration": 0.075,
      "velocity": 0.72,
      "hand": "right"
    },
    {
      "midi": 72,
      "time": 75.6,
      "duration": 1.05,
      "velocity": 0.63,
      "hand": "right"
    },
    {
      "midi": 38,
      "time": 75.9,
      "duration": 0.075,
      "velocity": 0.58,
      "hand": "left"
    },
    {
      "midi": 42,
      "time": 75.9,
      "duration": 0.075,
      "velocity": 0.63,
      "hand": "left"
    },
    {
      "midi": 51,
      "time": 75.9,
      "duration": 0.075,
      "velocity": 0.55,
      "hand": "left"
    },
    {
      "midi": 54,
      "time": 75.9,
      "duration": 0.075,
      "velocity": 0.52,
      "hand": "left"
    },
    {
      "midi": 70,
      "time": 75.9,
      "duration": 0.075,
      "velocity": 0.72,
      "hand": "right"
    },
    {
      "midi": 57,
      "time": 76.05,
      "duration": 0.15,
      "velocity": 0.65,
      "hand": "left"
    },
    {
      "midi": 60,
      "time": 76.05,
      "duration": 0.075,
      "velocity": 0.69,
      "hand": "right"
    },
    {
      "midi": 62,
      "time": 76.05,
      "duration": 0.075,
      "velocity": 0.68,
      "hand": "right"
    },
    {
      "midi": 65,
      "time": 76.05,
      "duration": 0.075,
      "velocity": 0.56,
      "hand": "right"
    },
    {
      "midi": 69,
      "time": 76.05,
      "duration": 0.3,
      "velocity": 0.54,
      "hand": "right"
    },
    {
      "midi": 33,
      "time": 76.2,
      "duration": 0.6,
      "velocity": 0.96,
      "hand": "left"
    },
    {
      "midi": 35,
      "time": 76.2,
      "duration": 0.075,
      "velocity": 0.7,
      "hand": "left"
    },
    {
      "midi": 42,
      "time": 76.2,
      "duration": 0.075,
      "velocity": 0.54,
      "hand": "left"
    },
    {
      "midi": 51,
      "time": 76.2,
      "duration": 0.075,
      "velocity": 0.51,
      "hand": "left"
    },
    {
      "midi": 57,
      "time": 76.2,
      "duration": 0.45,
      "velocity": 0.68,
      "hand": "left"
    },
    {
      "midi": 57,
      "time": 76.2,
      "duration": 0.15,
      "velocity": 0.54,
      "hand": "left"
    },
    {
      "midi": 60,
      "time": 76.2,
      "duration": 0.45,
      "velocity": 0.7,
      "hand": "right"
    },
    {
      "midi": 60,
      "time": 76.2,
      "duration": 0.075,
      "velocity": 0.55,
      "hand": "right"
    },
    {
      "midi": 62,
      "time": 76.2,
      "duration": 0.45,
      "velocity": 0.65,
      "hand": "right"
    },
    {
      "midi": 62,
      "time": 76.2,
      "duration": 0.075,
      "velocity": 0.57,
      "hand": "right"
    },
    {
      "midi": 65,
      "time": 76.2,
      "duration": 0.45,
      "velocity": 0.61,
      "hand": "right"
    },
    {
      "midi": 65,
      "time": 76.2,
      "duration": 0.075,
      "velocity": 0.36,
      "hand": "right"
    },
    {
      "midi": 70,
      "time": 76.2,
      "duration": 0.075,
      "velocity": 0.72,
      "hand": "right"
    },
    {
      "midi": 38,
      "time": 76.5,
      "duration": 0.075,
      "velocity": 0.52,
      "hand": "left"
    },
    {
      "midi": 42,
      "time": 76.5,
      "duration": 0.075,
      "velocity": 0.54,
      "hand": "left"
    },
    {
      "midi": 51,
      "time": 76.5,
      "duration": 0.075,
      "velocity": 0.54,
      "hand": "left"
    },
    {
      "midi": 54,
      "time": 76.5,
      "duration": 0.075,
      "velocity": 0.57,
      "hand": "left"
    },
    {
      "midi": 57,
      "time": 76.5,
      "duration": 0.15,
      "velocity": 0.65,
      "hand": "left"
    },
    {
      "midi": 60,
      "time": 76.5,
      "duration": 0.075,
      "velocity": 0.63,
      "hand": "right"
    },
    {
      "midi": 62,
      "time": 76.5,
      "duration": 0.15,
      "velocity": 0.69,
      "hand": "right"
    },
    {
      "midi": 65,
      "time": 76.5,
      "duration": 0.15,
      "velocity": 0.57,
      "hand": "right"
    },
    {
      "midi": 67,
      "time": 76.5,
      "duration": 0.6,
      "velocity": 0.48,
      "hand": "right"
    },
    {
      "midi": 70,
      "time": 76.5,
      "duration": 0.075,
      "velocity": 0.58,
      "hand": "right"
    },
    {
      "midi": 31,
      "time": 76.8,
      "duration": 0.6,
      "velocity": 0.96,
      "hand": "left"
    },
    {
      "midi": 35,
      "time": 76.8,
      "duration": 0.075,
      "velocity": 0.51,
      "hand": "left"
    },
    {
      "midi": 42,
      "time": 76.8,
      "duration": 0.075,
      "velocity": 0.57,
      "hand": "left"
    },
    {
      "midi": 51,
      "time": 76.8,
      "duration": 0.075,
      "velocity": 0.56,
      "hand": "left"
    },
    {
      "midi": 55,
      "time": 76.8,
      "duration": 0.45,
      "velocity": 0.65,
      "hand": "left"
    },
    {
      "midi": 55,
      "time": 76.8,
      "duration": 0.15,
      "velocity": 0.57,
      "hand": "left"
    },
    {
      "midi": 55,
      "time": 76.8,
      "duration": 1.05,
      "velocity": 0.5,
      "hand": "left"
    },
    {
      "midi": 59,
      "time": 76.8,
      "duration": 0.45,
      "velocity": 0.63,
      "hand": "left"
    },
    {
      "midi": 59,
      "time": 76.8,
      "duration": 0.075,
      "velocity": 0.57,
      "hand": "left"
    },
    {
      "midi": 59,
      "time": 76.8,
      "duration": 1.05,
      "velocity": 0.54,
      "hand": "left"
    },
    {
      "midi": 62,
      "time": 76.8,
      "duration": 0.45,
      "velocity": 0.57,
      "hand": "right"
    },
    {
      "midi": 62,
      "time": 76.8,
      "duration": 0.15,
      "velocity": 0.63,
      "hand": "right"
    },
    {
      "midi": 62,
      "time": 76.8,
      "duration": 0.9,
      "velocity": 0.44,
      "hand": "right"
    },
    {
      "midi": 65,
      "time": 76.8,
      "duration": 0.45,
      "velocity": 0.53,
      "hand": "right"
    },
    {
      "midi": 65,
      "time": 76.8,
      "duration": 0.15,
      "velocity": 0.53,
      "hand": "right"
    },
    {
      "midi": 65,
      "time": 76.8,
      "duration": 1.05,
      "velocity": 0.46,
      "hand": "right"
    },
    {
      "midi": 65,
      "time": 76.8,
      "duration": 0.9,
      "velocity": 0.68,
      "hand": "right"
    },
    {
      "midi": 67,
      "time": 76.8,
      "duration": 1.05,
      "velocity": 0.64,
      "hand": "right"
    },
    {
      "midi": 70,
      "time": 76.8,
      "duration": 0.075,
      "velocity": 0.72,
      "hand": "right"
    },
    {
      "midi": 71,
      "time": 76.8,
      "duration": 1.05,
      "velocity": 0.58,
      "hand": "right"
    },
    {
      "midi": 38,
      "time": 77.1,
      "duration": 0.075,
      "velocity": 0.57,
      "hand": "left"
    },
    {
      "midi": 42,
      "time": 77.1,
      "duration": 0.075,
      "velocity": 0.58,
      "hand": "left"
    },
    {
      "midi": 51,
      "time": 77.1,
      "duration": 0.075,
      "velocity": 0.54,
      "hand": "left"
    },
    {
      "midi": 54,
      "time": 77.1,
      "duration": 0.075,
      "velocity": 0.52,
      "hand": "left"
    },
    {
      "midi": 55,
      "time": 77.1,
      "duration": 0.075,
      "velocity": 0.52,
      "hand": "left"
    },
    {
      "midi": 59,
      "time": 77.1,
      "duration": 0.075,
      "velocity": 0.54,
      "hand": "left"
    },
    {
      "midi": 62,
      "time": 77.1,
      "duration": 0.15,
      "velocity": 0.54,
      "hand": "right"
    },
    {
      "midi": 65,
      "time": 77.1,
      "duration": 0.15,
      "velocity": 0.51,
      "hand": "right"
    },
    {
      "midi": 65,
      "time": 77.1,
      "duration": 0.3,
      "velocity": 0.56,
      "hand": "right"
    },
    {
      "midi": 35,
      "time": 77.4,
      "duration": 0.075,
      "velocity": 0.72,
      "hand": "left"
    },
    {
      "midi": 38,
      "time": 77.4,
      "duration": 0.45,
      "velocity": 0.96,
      "hand": "left"
    },
    {
      "midi": 42,
      "time": 77.4,
      "duration": 0.075,
      "velocity": 0.54,
      "hand": "left"
    },
    {
      "midi": 51,
      "time": 77.4,
      "duration": 0.075,
      "velocity": 0.57,
      "hand": "left"
    },
    {
      "midi": 55,
      "time": 77.4,
      "duration": 0.15,
      "velocity": 0.49,
      "hand": "left"
    },
    {
      "midi": 59,
      "time": 77.4,
      "duration": 0.3,
      "velocity": 0.48,
      "hand": "left"
    },
    {
      "midi": 59,
      "time": 77.4,
      "duration": 0.15,
      "velocity": 0.58,
      "hand": "left"
    },
    {
      "midi": 62,
      "time": 77.4,
      "duration": 0.3,
      "velocity": 0.44,
      "hand": "right"
    },
    {
      "midi": 62,
      "time": 77.4,
      "duration": 0.15,
      "velocity": 0.54,
      "hand": "right"
    },
    {
      "midi": 64,
      "time": 77.4,
      "duration": 0.3,
      "velocity": 0.54,
      "hand": "right"
    },
    {
      "midi": 65,
      "time": 77.4,
      "duration": 0.3,
      "velocity": 0.46,
      "hand": "right"
    },
    {
      "midi": 65,
      "time": 77.4,
      "duration": 0.15,
      "velocity": 0.54,
      "hand": "right"
    },
    {
      "midi": 38,
      "time": 77.7,
      "duration": 0.075,
      "velocity": 0.56,
      "hand": "left"
    },
    {
      "midi": 42,
      "time": 77.7,
      "duration": 0.075,
      "velocity": 0.5,
      "hand": "left"
    },
    {
      "midi": 51,
      "time": 77.7,
      "duration": 0.075,
      "velocity": 0.56,
      "hand": "left"
    },
    {
      "midi": 54,
      "time": 77.7,
      "duration": 0.075,
      "velocity": 0.55,
      "hand": "left"
    },
    {
      "midi": 55,
      "time": 77.7,
      "duration": 0.15,
      "velocity": 0.4,
      "hand": "left"
    },
    {
      "midi": 59,
      "time": 77.7,
      "duration": 0.15,
      "velocity": 0.5,
      "hand": "left"
    },
    {
      "midi": 62,
      "time": 77.7,
      "duration": 0.15,
      "velocity": 0.49,
      "hand": "right"
    },
    {
      "midi": 62,
      "time": 77.7,
      "duration": 0.3,
      "velocity": 0.51,
      "hand": "right"
    },
    {
      "midi": 65,
      "time": 77.7,
      "duration": 0.15,
      "velocity": 0.48,
      "hand": "right"
    },
    {
      "midi": 35,
      "time": 78,
      "duration": 0.075,
      "velocity": 0.56,
      "hand": "left"
    },
    {
      "midi": 36,
      "time": 78,
      "duration": 0.6,
      "velocity": 0.8,
      "hand": "left"
    },
    {
      "midi": 42,
      "time": 78,
      "duration": 0.075,
      "velocity": 0.55,
      "hand": "left"
    },
    {
      "midi": 51,
      "time": 78,
      "duration": 0.075,
      "velocity": 0.57,
      "hand": "left"
    },
    {
      "midi": 55,
      "time": 78,
      "duration": 0.75,
      "velocity": 0.59,
      "hand": "left"
    },
    {
      "midi": 55,
      "time": 78,
      "duration": 0.15,
      "velocity": 0.61,
      "hand": "left"
    },
    {
      "midi": 57,
      "time": 78,
      "duration": 0.15,
      "velocity": 0.53,
      "hand": "left"
    },
    {
      "midi": 57,
      "time": 78,
      "duration": 0.075,
      "velocity": 0.81,
      "hand": "left"
    },
    {
      "midi": 60,
      "time": 78,
      "duration": 0.75,
      "velocity": 0.64,
      "hand": "right"
    },
    {
      "midi": 60,
      "time": 78,
      "duration": 0.15,
      "velocity": 0.72,
      "hand": "right"
    },
    {
      "midi": 62,
      "time": 78,
      "duration": 0.15,
      "velocity": 0.55,
      "hand": "right"
    },
    {
      "midi": 64,
      "time": 78,
      "duration": 0.75,
      "velocity": 0.57,
      "hand": "right"
    },
    {
      "midi": 64,
      "time": 78,
      "duration": 0.15,
      "velocity": 0.64,
      "hand": "right"
    },
    {
      "midi": 67,
      "time": 78,
      "duration": 0.15,
      "velocity": 0.54,
      "hand": "right"
    },
    {
      "midi": 70,
      "time": 78,
      "duration": 0.075,
      "velocity": 0.72,
      "hand": "right"
    },
    {
      "midi": 72,
      "time": 78,
      "duration": 0.15,
      "velocity": 0.51,
      "hand": "right"
    },
    {
      "midi": 67,
      "time": 78.6,
      "duration": 0.15,
      "velocity": 0.73,
      "hand": "right"
    },
    {
      "midi": 67,
      "time": 78.9,
      "duration": 0.075,
      "velocity": 0.72,
      "hand": "right"
    },
    {
      "midi": 67,
      "time": 79.05,
      "duration": 0.15,
      "velocity": 0.65,
      "hand": "right"
    },
    {
      "midi": 69,
      "time": 79.2,
      "duration": 0.15,
      "velocity": 0.74,
      "hand": "right"
    },
    {
      "midi": 67,
      "time": 79.5,
      "duration": 0.15,
      "velocity": 0.83,
      "hand": "right"
    },
    {
      "midi": 31,
      "time": 80.1,
      "duration": 0.3,
      "velocity": 0.57,
      "hand": "left"
    },
    {
      "midi": 35,
      "time": 80.1,
      "duration": 0.15,
      "velocity": 0.79,
      "hand": "left"
    },
    {
      "midi": 40,
      "time": 80.1,
      "duration": 0.15,
      "velocity": 0.79,
      "hand": "left"
    },
    {
      "midi": 57,
      "time": 80.1,
      "duration": 0.15,
      "velocity": 0.79,
      "hand": "left"
    },
    {
      "midi": 59,
      "time": 80.1,
      "duration": 0.15,
      "velocity": 0.65,
      "hand": "left"
    },
    {
      "midi": 62,
      "time": 80.1,
      "duration": 0.15,
      "velocity": 0.61,
      "hand": "right"
    },
    {
      "midi": 65,
      "time": 80.1,
      "duration": 0.15,
      "velocity": 0.72,
      "hand": "right"
    },
    {
      "midi": 67,
      "time": 80.1,
      "duration": 0.15,
      "velocity": 0.72,
      "hand": "right"
    },
    {
      "midi": 71,
      "time": 80.1,
      "duration": 0.15,
      "velocity": 0.63,
      "hand": "right"
    },
    {
      "midi": 55,
      "time": 80.25,
      "duration": 0.15,
      "velocity": 0.72,
      "hand": "left"
    },
    {
      "midi": 35,
      "time": 80.4,
      "duration": 0.075,
      "velocity": 0.79,
      "hand": "left"
    },
    {
      "midi": 36,
      "time": 80.4,
      "duration": 0.15,
      "velocity": 0.74,
      "hand": "left"
    },
    {
      "midi": 40,
      "time": 80.4,
      "duration": 0.15,
      "velocity": 0.81,
      "hand": "left"
    },
    {
      "midi": 49,
      "time": 80.4,
      "duration": 0.075,
      "velocity": 0.79,
      "hand": "left"
    },
    {
      "midi": 57,
      "time": 80.4,
      "duration": 0.15,
      "velocity": 0.52,
      "hand": "left"
    },
    {
      "midi": 60,
      "time": 80.4,
      "duration": 0.15,
      "velocity": 0.72,
      "hand": "right"
    },
    {
      "midi": 64,
      "time": 80.4,
      "duration": 0.15,
      "velocity": 0.64,
      "hand": "right"
    },
    {
      "midi": 65,
      "time": 80.4,
      "duration": 0.075,
      "velocity": 0.46,
      "hand": "right"
    },
    {
      "midi": 67,
      "time": 80.4,
      "duration": 0.15,
      "velocity": 0.72,
      "hand": "right"
    },
    {
      "midi": 69,
      "time": 80.4,
      "duration": 0.15,
      "velocity": 0.72,
      "hand": "right"
    },
    {
      "midi": 72,
      "time": 80.4,
      "duration": 0.15,
      "velocity": 0.72,
      "hand": "right"
    }
  ]
}
