{
  "id": "conta-as-bencaos",
  "title": "Conta as Bencaos",
  "artist": "Johnson Oatman Jr.",
  "difficulty": "Médio",
  "bpm": 90,
  "duration": 46,
  "category": "Religiosos",
  "isPremium": false,
  "coverUrl": "/images/covers/placeholder.png",
  "notes": [
    {
      "midi": 51,
      "time": 0,
      "duration": 0.333,
      "velocity": 0.5,
      "hand": "left"
    },
    {
      "midi": 58,
      "time": 0,
      "duration": 0.333,
      "velocity": 0.5,
      "hand": "left"
    },
    {
      "midi": 63,
      "time": 0,
      "duration": 0.333,
      "velocity": 0.54,
      "hand": "right"
    },
    {
      "midi": 67,
      "time": 0,
      "duration": 0.333,
      "velocity": 0.54,
      "hand": "right"
    },
    {
      "midi": 51,
      "time": 0.333,
      "duration": 0.333,
      "velocity": 0.6,
      "hand": "left"
    },
    {
      "midi": 58,
      "time": 0.333,
      "duration": 0.333,
      "velocity": 0.6,
      "hand": "left"
    },
    {
      "midi": 63,
      "time": 0.333,
      "duration": 0.333,
      "velocity": 0.61,
      "hand": "right"
    },
    {
      "midi": 67,
      "time": 0.333,
      "duration": 0.333,
      "velocity": 0.61,
      "hand": "right"
    },
    {
      "midi": 51,
      "time": 0.667,
      "duration": 0.333,
      "velocity": 0.57,
      "hand": "left"
    },
    {
      "midi": 58,
      "time": 0.667,
      "duration": 0.333,
      "velocity": 0.57,
      "hand": "left"
    },
    {
      "midi": 63,
      "time": 0.667,
      "duration": 0.333,
      "velocity": 0.59,
      "hand": "right"
    },
    {
      "midi": 67,
      "time": 0.667,
      "duration": 0.333,
      "velocity": 0.59,
      "hand": "right"
    },
    {
      "midi": 51,
      "time": 1,
      "duration": 0.333,
      "velocity": 0.61,
      "hand": "left"
    },
    {
      "midi": 58,
      "time": 1,
      "duration": 0.333,
      "velocity": 0.61,
      "hand": "left"
    },
    {
      "midi": 65,
      "time": 1,
      "duration": 0.333,
      "velocity": 0.63,
      "hand": "right"
    },
    {
      "midi": 68,
      "time": 1,
      "duration": 0.333,
      "velocity": 0.63,
      "hand": "right"
    },
    {
      "midi": 51,
      "time": 1.333,
      "duration": 0.333,
      "velocity": 0.67,
      "hand": "left"
    },
    {
      "midi": 63,
      "time": 1.333,
      "duration": 0.333,
      "velocity": 0.67,
      "hand": "right"
    },
    {
      "midi": 67,
      "time": 1.333,
      "duration": 0.333,
      "velocity": 0.62,
      "hand": "right"
    },
    {
      "midi": 70,
      "time": 1.333,
      "duration": 0.333,
      "velocity": 0.62,
      "hand": "right"
    },
    {
      "midi": 51,
      "time": 1.667,
      "duration": 0.333,
      "velocity": 0.57,
      "hand": "left"
    },
    {
      "midi": 58,
      "time": 1.667,
      "duration": 0.333,
      "velocity": 0.57,
      "hand": "left"
    },
    {
      "midi": 67,
      "time": 1.667,
      "duration": 0.333,
      "velocity": 0.61,
      "hand": "right"
    },
    {
      "midi": 70,
      "time": 1.667,
      "duration": 0.333,
      "velocity": 0.61,
      "hand": "right"
    },
    {
      "midi": 67,
      "time": 2,
      "duration": 0.333,
      "velocity": 0.58,
      "hand": "right"
    },
    {
      "midi": 70,
      "time": 2,
      "duration": 0.333,
      "velocity": 0.58,
      "hand": "right"
    },
    {
      "midi": 63,
      "time": 2.333,
      "duration": 0.333,
      "velocity": 0.52,
      "hand": "right"
    },
    {
      "midi": 67,
      "time": 2.333,
      "duration": 0.333,
      "velocity": 0.52,
      "hand": "right"
    },
    {
      "midi": 46,
      "time": 2.667,
      "duration": 0.333,
      "velocity": 0.56,
      "hand": "left"
    },
    {
      "midi": 58,
      "time": 2.667,
      "duration": 0.333,
      "velocity": 0.56,
      "hand": "left"
    },
    {
      "midi": 65,
      "time": 2.667,
      "duration": 0.667,
      "velocity": 0.63,
      "hand": "right"
    },
    {
      "midi": 68,
      "time": 2.667,
      "duration": 0.667,
      "velocity": 0.63,
      "hand": "right"
    },
    {
      "midi": 46,
      "time": 3,
      "duration": 0.333,
      "velocity": 0.64,
      "hand": "left"
    },
    {
      "midi": 58,
      "time": 3,
      "duration": 0.333,
      "velocity": 0.64,
      "hand": "left"
    },
    {
      "midi": 46,
      "time": 3.333,
      "duration": 0.333,
      "velocity": 0.61,
      "hand": "left"
    },
    {
      "midi": 58,
      "time": 3.333,
      "duration": 0.333,
      "velocity": 0.61,
      "hand": "left"
    },
    {
      "midi": 64,
      "time": 3.333,
      "duration": 0.667,
      "velocity": 0.56,
      "hand": "right"
    },
    {
      "midi": 67,
      "time": 3.333,
      "duration": 0.667,
      "velocity": 0.56,
      "hand": "right"
    },
    {
      "midi": 46,
      "time": 3.667,
      "duration": 0.333,
      "velocity": 0.57,
      "hand": "left"
    },
    {
      "midi": 58,
      "time": 3.667,
      "duration": 0.333,
      "velocity": 0.57,
      "hand": "left"
    },
    {
      "midi": 46,
      "time": 4,
      "duration": 1.333,
      "velocity": 0.61,
      "hand": "left"
    },
    {
      "midi": 58,
      "time": 4,
      "duration": 1.333,
      "velocity": 0.61,
      "hand": "left"
    },
    {
      "midi": 65,
      "time": 4,
      "duration": 1.333,
      "velocity": 0.62,
      "hand": "right"
    },
    {
      "midi": 68,
      "time": 4,
      "duration": 1.333,
      "velocity": 0.62,
      "hand": "right"
    },
    {
      "midi": 46,
      "time": 5.333,
      "duration": 0.333,
      "velocity": 0.57,
      "hand": "left"
    },
    {
      "midi": 58,
      "time": 5.333,
      "duration": 0.333,
      "velocity": 0.57,
      "hand": "left"
    },
    {
      "midi": 62,
      "time": 5.333,
      "duration": 0.333,
      "velocity": 0.5,
      "hand": "right"
    },
    {
      "midi": 65,
      "time": 5.333,
      "duration": 0.333,
      "velocity": 0.5,
      "hand": "right"
    },
    {
      "midi": 46,
      "time": 5.667,
      "duration": 0.333,
      "velocity": 0.62,
      "hand": "left"
    },
    {
      "midi": 58,
      "time": 5.667,
      "duration": 0.333,
      "velocity": 0.62,
      "hand": "left"
    },
    {
      "midi": 63,
      "time": 5.667,
      "duration": 0.333,
      "velocity": 0.59,
      "hand": "right"
    },
    {
      "midi": 67,
      "time": 5.667,
      "duration": 0.333,
      "velocity": 0.59,
      "hand": "right"
    },
    {
      "midi": 46,
      "time": 6,
      "duration": 0.333,
      "velocity": 0.63,
      "hand": "left"
    },
    {
      "midi": 58,
      "time": 6,
      "duration": 0.333,
      "velocity": 0.63,
      "hand": "left"
    },
    {
      "midi": 65,
      "time": 6,
      "duration": 0.333,
      "velocity": 0.64,
      "hand": "right"
    },
    {
      "midi": 68,
      "time": 6,
      "duration": 0.333,
      "velocity": 0.64,
      "hand": "right"
    },
    {
      "midi": 46,
      "time": 6.333,
      "duration": 0.333,
      "velocity": 0.6,
      "hand": "left"
    },
    {
      "midi": 58,
      "time": 6.333,
      "duration": 0.333,
      "velocity": 0.6,
      "hand": "left"
    },
    {
      "midi": 67,
      "time": 6.333,
      "duration": 0.333,
      "velocity": 0.64,
      "hand": "right"
    },
    {
      "midi": 70,
      "time": 6.333,
      "duration": 0.333,
      "velocity": 0.64,
      "hand": "right"
    },
    {
      "midi": 46,
      "time": 6.667,
      "duration": 0.333,
      "velocity": 0.55,
      "hand": "left"
    },
    {
      "midi": 58,
      "time": 6.667,
      "duration": 0.333,
      "velocity": 0.55,
      "hand": "left"
    },
    {
      "midi": 70,
      "time": 6.667,
      "duration": 0.333,
      "velocity": 0.7,
      "hand": "right"
    },
    {
      "midi": 74,
      "time": 6.667,
      "duration": 0.333,
      "velocity": 0.7,
      "hand": "right"
    },
    {
      "midi": 46,
      "time": 7,
      "duration": 0.333,
      "velocity": 0.6,
      "hand": "left"
    },
    {
      "midi": 58,
      "time": 7,
      "duration": 0.333,
      "velocity": 0.6,
      "hand": "left"
    },
    {
      "midi": 68,
      "time": 7,
      "duration": 0.333,
      "velocity": 0.54,
      "hand": "right"
    },
    {
      "midi": 72,
      "time": 7,
      "duration": 0.333,
      "velocity": 0.54,
      "hand": "right"
    },
    {
      "midi": 67,
      "time": 7.333,
      "duration": 0.333,
      "velocity": 0.53,
      "hand": "right"
    },
    {
      "midi": 70,
      "time": 7.333,
      "duration": 0.333,
      "velocity": 0.53,
      "hand": "right"
    },
    {
      "midi": 65,
      "time": 7.667,
      "duration": 0.333,
      "velocity": 0.55,
      "hand": "right"
    },
    {
      "midi": 68,
      "time": 7.667,
      "duration": 0.333,
      "velocity": 0.55,
      "hand": "right"
    },
    {
      "midi": 51,
      "time": 8,
      "duration": 0.333,
      "velocity": 0.54,
      "hand": "left"
    },
    {
      "midi": 58,
      "time": 8,
      "duration": 0.333,
      "velocity": 0.54,
      "hand": "left"
    },
    {
      "midi": 63,
      "time": 8,
      "duration": 0.667,
      "velocity": 0.55,
      "hand": "right"
    },
    {
      "midi": 67,
      "time": 8,
      "duration": 0.667,
      "velocity": 0.55,
      "hand": "right"
    },
    {
      "midi": 51,
      "time": 8.333,
      "duration": 0.333,
      "velocity": 0.54,
      "hand": "left"
    },
    {
      "midi": 58,
      "time": 8.333,
      "duration": 0.333,
      "velocity": 0.54,
      "hand": "left"
    },
    {
      "midi": 51,
      "time": 8.667,
      "duration": 0.333,
      "velocity": 0.69,
      "hand": "left"
    },
    {
      "midi": 63,
      "time": 8.667,
      "duration": 0.333,
      "velocity": 0.69,
      "hand": "right"
    },
    {
      "midi": 65,
      "time": 8.667,
      "duration": 0.667,
      "velocity": 0.63,
      "hand": "right"
    },
    {
      "midi": 68,
      "time": 8.667,
      "duration": 0.667,
      "velocity": 0.63,
      "hand": "right"
    },
    {
      "midi": 51,
      "time": 9,
      "duration": 0.333,
      "velocity": 0.61,
      "hand": "left"
    },
    {
      "midi": 63,
      "time": 9,
      "duration": 0.333,
      "velocity": 0.61,
      "hand": "right"
    },
    {
      "midi": 51,
      "time": 9.333,
      "duration": 1.333,
      "velocity": 0.62,
      "hand": "left"
    },
    {
      "midi": 63,
      "time": 9.333,
      "duration": 1.333,
      "velocity": 0.62,
      "hand": "right"
    },
    {
      "midi": 67,
      "time": 9.333,
      "duration": 1.333,
      "velocity": 0.63,
      "hand": "right"
    },
    {
      "midi": 70,
      "time": 9.333,
      "duration": 1.333,
      "velocity": 0.63,
      "hand": "right"
    },
    {
      "midi": 51,
      "time": 10.667,
      "duration": 0.333,
      "velocity": 0.53,
      "hand": "left"
    },
    {
      "midi": 58,
      "time": 10.667,
      "duration": 0.333,
      "velocity": 0.53,
      "hand": "left"
    },
    {
      "midi": 63,
      "time": 10.667,
      "duration": 0.333,
      "velocity": 0.56,
      "hand": "right"
    },
    {
      "midi": 67,
      "time": 10.667,
      "duration": 0.333,
      "velocity": 0.56,
      "hand": "right"
    },
    {
      "midi": 51,
      "time": 11,
      "duration": 0.333,
      "velocity": 0.57,
      "hand": "left"
    },
    {
      "midi": 58,
      "time": 11,
      "duration": 0.333,
      "velocity": 0.57,
      "hand": "left"
    },
    {
      "midi": 63,
      "time": 11,
      "duration": 0.333,
      "velocity": 0.58,
      "hand": "right"
    },
    {
      "midi": 67,
      "time": 11,
      "duration": 0.333,
      "velocity": 0.58,
      "hand": "right"
    },
    {
      "midi": 51,
      "time": 11.333,
      "duration": 0.333,
      "velocity": 0.58,
      "hand": "left"
    },
    {
      "midi": 58,
      "time": 11.333,
      "duration": 0.333,
      "velocity": 0.58,
      "hand": "left"
    },
    {
      "midi": 63,
      "time": 11.333,
      "duration": 0.333,
      "velocity": 0.57,
      "hand": "right"
    },
    {
      "midi": 67,
      "time": 11.333,
      "duration": 0.333,
      "velocity": 0.57,
      "hand": "right"
    },
    {
      "midi": 51,
      "time": 11.667,
      "duration": 0.333,
      "velocity": 0.58,
      "hand": "left"
    },
    {
      "midi": 58,
      "time": 11.667,
      "duration": 0.333,
      "velocity": 0.58,
      "hand": "left"
    },
    {
      "midi": 65,
      "time": 11.667,
      "duration": 0.333,
      "velocity": 0.63,
      "hand": "right"
    },
    {
      "midi": 68,
      "time": 11.667,
      "duration": 0.333,
      "velocity": 0.63,
      "hand": "right"
    },
    {
      "midi": 51,
      "time": 12,
      "duration": 0.333,
      "velocity": 0.72,
      "hand": "left"
    },
    {
      "midi": 63,
      "time": 12,
      "duration": 0.333,
      "velocity": 0.72,
      "hand": "right"
    },
    {
      "midi": 67,
      "time": 12,
      "duration": 0.333,
      "velocity": 0.61,
      "hand": "right"
    },
    {
      "midi": 70,
      "time": 12,
      "duration": 0.333,
      "velocity": 0.61,
      "hand": "right"
    },
    {
      "midi": 51,
      "time": 12.333,
      "duration": 0.333,
      "velocity": 0.56,
      "hand": "left"
    },
    {
      "midi": 58,
      "time": 12.333,
      "duration": 0.333,
      "velocity": 0.56,
      "hand": "left"
    },
    {
      "midi": 67,
      "time": 12.333,
      "duration": 0.333,
      "velocity": 0.6,
      "hand": "right"
    },
    {
      "midi": 70,
      "time": 12.333,
      "duration": 0.333,
      "velocity": 0.6,
      "hand": "right"
    },
    {
      "midi": 67,
      "time": 12.667,
      "duration": 0.333,
      "velocity": 0.6,
      "hand": "right"
    },
    {
      "midi": 70,
      "time": 12.667,
      "duration": 0.333,
      "velocity": 0.6,
      "hand": "right"
    },
    {
      "midi": 63,
      "time": 13,
      "duration": 0.333,
      "velocity": 0.5,
      "hand": "right"
    },
    {
      "midi": 67,
      "time": 13,
      "duration": 0.333,
      "velocity": 0.5,
      "hand": "right"
    },
    {
      "midi": 46,
      "time": 13.333,
      "duration": 0.333,
      "velocity": 0.53,
      "hand": "left"
    },
    {
      "midi": 58,
      "time": 13.333,
      "duration": 0.333,
      "velocity": 0.53,
      "hand": "left"
    },
    {
      "midi": 65,
      "time": 13.333,
      "duration": 0.667,
      "velocity": 0.63,
      "hand": "right"
    },
    {
      "midi": 68,
      "time": 13.333,
      "duration": 0.667,
      "velocity": 0.63,
      "hand": "right"
    },
    {
      "midi": 46,
      "time": 13.667,
      "duration": 0.333,
      "velocity": 0.59,
      "hand": "left"
    },
    {
      "midi": 58,
      "time": 13.667,
      "duration": 0.333,
      "velocity": 0.59,
      "hand": "left"
    },
    {
      "midi": 46,
      "time": 14,
      "duration": 0.333,
      "velocity": 0.58,
      "hand": "left"
    },
    {
      "midi": 58,
      "time": 14,
      "duration": 0.333,
      "velocity": 0.58,
      "hand": "left"
    },
    {
      "midi": 64,
      "time": 14,
      "duration": 0.667,
      "velocity": 0.56,
      "hand": "right"
    },
    {
      "midi": 67,
      "time": 14,
      "duration": 0.667,
      "velocity": 0.56,
      "hand": "right"
    },
    {
      "midi": 46,
      "time": 14.333,
      "duration": 0.333,
      "velocity": 0.63,
      "hand": "left"
    },
    {
      "midi": 58,
      "time": 14.333,
      "duration": 0.333,
      "velocity": 0.63,
      "hand": "left"
    },
    {
      "midi": 46,
      "time": 14.667,
      "duration": 1.333,
      "velocity": 0.6,
      "hand": "left"
    },
    {
      "midi": 58,
      "time": 14.667,
      "duration": 1.333,
      "velocity": 0.6,
      "hand": "left"
    },
    {
      "midi": 65,
      "time": 14.667,
      "duration": 1.333,
      "velocity": 0.57,
      "hand": "right"
    },
    {
      "midi": 68,
      "time": 14.667,
      "duration": 1.333,
      "velocity": 0.57,
      "hand": "right"
    },
    {
      "midi": 46,
      "time": 16,
      "duration": 0.333,
      "velocity": 0.57,
      "hand": "left"
    },
    {
      "midi": 58,
      "time": 16,
      "duration": 0.333,
      "velocity": 0.57,
      "hand": "left"
    },
    {
      "midi": 62,
      "time": 16,
      "duration": 0.333,
      "velocity": 0.56,
      "hand": "right"
    },
    {
      "midi": 65,
      "time": 16,
      "duration": 0.333,
      "velocity": 0.56,
      "hand": "right"
    },
    {
      "midi": 46,
      "time": 16.333,
      "duration": 0.333,
      "velocity": 0.62,
      "hand": "left"
    },
    {
      "midi": 58,
      "time": 16.333,
      "duration": 0.333,
      "velocity": 0.62,
      "hand": "left"
    },
    {
      "midi": 63,
      "time": 16.333,
      "duration": 0.333,
      "velocity": 0.63,
      "hand": "right"
    },
    {
      "midi": 67,
      "time": 16.333,
      "duration": 0.333,
      "velocity": 0.63,
      "hand": "right"
    },
    {
      "midi": 46,
      "time": 16.667,
      "duration": 0.333,
      "velocity": 0.58,
      "hand": "left"
    },
    {
      "midi": 58,
      "time": 16.667,
      "duration": 0.333,
      "velocity": 0.58,
      "hand": "left"
    },
    {
      "midi": 65,
      "time": 16.667,
      "duration": 0.333,
      "velocity": 0.64,
      "hand": "right"
    },
    {
      "midi": 68,
      "time": 16.667,
      "duration": 0.333,
      "velocity": 0.64,
      "hand": "right"
    },
    {
      "midi": 46,
      "time": 17,
      "duration": 0.333,
      "velocity": 0.61,
      "hand": "left"
    },
    {
      "midi": 58,
      "time": 17,
      "duration": 0.333,
      "velocity": 0.61,
      "hand": "left"
    },
    {
      "midi": 67,
      "time": 17,
      "duration": 0.333,
      "velocity": 0.62,
      "hand": "right"
    },
    {
      "midi": 70,
      "time": 17,
      "duration": 0.333,
      "velocity": 0.62,
      "hand": "right"
    },
    {
      "midi": 46,
      "time": 17.333,
      "duration": 0.333,
      "velocity": 0.59,
      "hand": "left"
    },
    {
      "midi": 58,
      "time": 17.333,
      "duration": 0.333,
      "velocity": 0.59,
      "hand": "left"
    },
    {
      "midi": 70,
      "time": 17.333,
      "duration": 0.333,
      "velocity": 0.65,
      "hand": "right"
    },
    {
      "midi": 74,
      "time": 17.333,
      "duration": 0.333,
      "velocity": 0.65,
      "hand": "right"
    },
    {
      "midi": 46,
      "time": 17.667,
      "duration": 0.333,
      "velocity": 0.61,
      "hand": "left"
    },
    {
      "midi": 58,
      "time": 17.667,
      "duration": 0.333,
      "velocity": 0.61,
      "hand": "left"
    },
    {
      "midi": 68,
      "time": 17.667,
      "duration": 0.333,
      "velocity": 0.56,
      "hand": "right"
    },
    {
      "midi": 72,
      "time": 17.667,
      "duration": 0.333,
      "velocity": 0.56,
      "hand": "right"
    },
    {
      "midi": 67,
      "time": 18,
      "duration": 0.333,
      "velocity": 0.58,
      "hand": "right"
    },
    {
      "midi": 70,
      "time": 18,
      "duration": 0.333,
      "velocity": 0.58,
      "hand": "right"
    },
    {
      "midi": 65,
      "time": 18.333,
      "duration": 0.333,
      "velocity": 0.54,
      "hand": "right"
    },
    {
      "midi": 68,
      "time": 18.333,
      "duration": 0.333,
      "velocity": 0.54,
      "hand": "right"
    },
    {
      "midi": 46,
      "time": 18.667,
      "duration": 0.333,
      "velocity": 0.55,
      "hand": "left"
    },
    {
      "midi": 58,
      "time": 18.667,
      "duration": 0.333,
      "velocity": 0.55,
      "hand": "left"
    },
    {
      "midi": 63,
      "time": 18.667,
      "duration": 0.667,
      "velocity": 0.56,
      "hand": "right"
    },
    {
      "midi": 67,
      "time": 18.667,
      "duration": 0.667,
      "velocity": 0.56,
      "hand": "right"
    },
    {
      "midi": 46,
      "time": 19,
      "duration": 0.333,
      "velocity": 0.59,
      "hand": "left"
    },
    {
      "midi": 58,
      "time": 19,
      "duration": 0.333,
      "velocity": 0.59,
      "hand": "left"
    },
    {
      "midi": 46,
      "time": 19.333,
      "duration": 0.333,
      "velocity": 0.59,
      "hand": "left"
    },
    {
      "midi": 56,
      "time": 19.333,
      "duration": 0.333,
      "velocity": 0.59,
      "hand": "left"
    },
    {
      "midi": 62,
      "time": 19.333,
      "duration": 0.667,
      "velocity": 0.56,
      "hand": "right"
    },
    {
      "midi": 65,
      "time": 19.333,
      "duration": 0.667,
      "velocity": 0.56,
      "hand": "right"
    },
    {
      "midi": 46,
      "time": 19.667,
      "duration": 0.333,
      "velocity": 0.57,
      "hand": "left"
    },
    {
      "midi": 56,
      "time": 19.667,
      "duration": 0.333,
      "velocity": 0.57,
      "hand": "left"
    },
    {
      "midi": 51,
      "time": 20,
      "duration": 1.333,
      "velocity": 0.58,
      "hand": "left"
    },
    {
      "midi": 55,
      "time": 20,
      "duration": 1.333,
      "velocity": 0.58,
      "hand": "left"
    },
    {
      "midi": 63,
      "time": 20,
      "duration": 1.333,
      "velocity": 0.59,
      "hand": "right"
    },
    {
      "midi": 51,
      "time": 21.333,
      "duration": 0.333,
      "velocity": 0.72,
      "hand": "left"
    },
    {
      "midi": 63,
      "time": 21.333,
      "duration": 0.333,
      "velocity": 0.72,
      "hand": "right"
    },
    {
      "midi": 67,
      "time": 21.333,
      "duration": 1,
      "velocity": 0.71,
      "hand": "right"
    },
    {
      "midi": 70,
      "time": 21.333,
      "duration": 1,
      "velocity": 0.71,
      "hand": "right"
    },
    {
      "midi": 51,
      "time": 21.667,
      "duration": 0.333,
      "velocity": 0.61,
      "hand": "left"
    },
    {
      "midi": 63,
      "time": 21.667,
      "duration": 0.333,
      "velocity": 0.61,
      "hand": "right"
    },
    {
      "midi": 51,
      "time": 22,
      "duration": 0.333,
      "velocity": 0.6,
      "hand": "left"
    },
    {
      "midi": 63,
      "time": 22,
      "duration": 0.333,
      "velocity": 0.6,
      "hand": "right"
    },
    {
      "midi": 51,
      "time": 22.333,
      "duration": 0.333,
      "velocity": 0.57,
      "hand": "left"
    },
    {
      "midi": 63,
      "time": 22.333,
      "duration": 0.333,
      "velocity": 0.57,
      "hand": "right"
    },
    {
      "midi": 67,
      "time": 22.333,
      "duration": 0.333,
      "velocity": 0.62,
      "hand": "right"
    },
    {
      "midi": 70,
      "time": 22.333,
      "duration": 0.333,
      "velocity": 0.62,
      "hand": "right"
    },
    {
      "midi": 51,
      "time": 22.667,
      "duration": 0.333,
      "velocity": 0.56,
      "hand": "left"
    },
    {
      "midi": 58,
      "time": 22.667,
      "duration": 0.333,
      "velocity": 0.56,
      "hand": "left"
    },
    {
      "midi": 67,
      "time": 22.667,
      "duration": 0.333,
      "velocity": 0.69,
      "hand": "right"
    },
    {
      "midi": 75,
      "time": 22.667,
      "duration": 0.333,
      "velocity": 0.69,
      "hand": "right"
    },
    {
      "midi": 51,
      "time": 23,
      "duration": 0.333,
      "velocity": 0.57,
      "hand": "left"
    },
    {
      "midi": 58,
      "time": 23,
      "duration": 0.333,
      "velocity": 0.57,
      "hand": "left"
    },
    {
      "midi": 67,
      "time": 23,
      "duration": 0.333,
      "velocity": 0.55,
      "hand": "right"
    },
    {
      "midi": 70,
      "time": 23,
      "duration": 0.333,
      "velocity": 0.55,
      "hand": "right"
    },
    {
      "midi": 67,
      "time": 23.333,
      "duration": 0.333,
      "velocity": 0.62,
      "hand": "right"
    },
    {
      "midi": 70,
      "time": 23.333,
      "duration": 0.333,
      "velocity": 0.62,
      "hand": "right"
    },
    {
      "midi": 63,
      "time": 23.667,
      "duration": 0.333,
      "velocity": 0.52,
      "hand": "right"
    },
    {
      "midi": 67,
      "time": 23.667,
      "duration": 0.333,
      "velocity": 0.52,
      "hand": "right"
    },
    {
      "midi": 46,
      "time": 24,
      "duration": 0.333,
      "velocity": 0.51,
      "hand": "left"
    },
    {
      "midi": 58,
      "time": 24,
      "duration": 0.333,
      "velocity": 0.51,
      "hand": "left"
    },
    {
      "midi": 65,
      "time": 24,
      "duration": 0.333,
      "velocity": 0.62,
      "hand": "right"
    },
    {
      "midi": 68,
      "time": 24,
      "duration": 0.667,
      "velocity": 0.62,
      "hand": "right"
    },
    {
      "midi": 46,
      "time": 24.333,
      "duration": 0.333,
      "velocity": 0.6,
      "hand": "left"
    },
    {
      "midi": 58,
      "time": 24.333,
      "duration": 0.333,
      "velocity": 0.6,
      "hand": "left"
    },
    {
      "midi": 63,
      "time": 24.333,
      "duration": 0.333,
      "velocity": 0.55,
      "hand": "right"
    },
    {
      "midi": 46,
      "time": 24.667,
      "duration": 0.333,
      "velocity": 0.56,
      "hand": "left"
    },
    {
      "midi": 58,
      "time": 24.667,
      "duration": 0.333,
      "velocity": 0.56,
      "hand": "left"
    },
    {
      "midi": 62,
      "time": 24.667,
      "duration": 0.333,
      "velocity": 0.56,
      "hand": "right"
    },
    {
      "midi": 68,
      "time": 24.667,
      "duration": 0.667,
      "velocity": 0.58,
      "hand": "right"
    },
    {
      "midi": 46,
      "time": 25,
      "duration": 0.333,
      "velocity": 0.61,
      "hand": "left"
    },
    {
      "midi": 58,
      "time": 25,
      "duration": 0.333,
      "velocity": 0.61,
      "hand": "left"
    },
    {
      "midi": 60,
      "time": 25,
      "duration": 0.333,
      "velocity": 0.6,
      "hand": "right"
    },
    {
      "midi": 46,
      "time": 25.333,
      "duration": 1.333,
      "velocity": 0.59,
      "hand": "left"
    },
    {
      "midi": 58,
      "time": 25.333,
      "duration": 1.333,
      "velocity": 0.58,
      "hand": "left"
    },
    {
      "midi": 68,
      "time": 25.333,
      "duration": 1.333,
      "velocity": 0.58,
      "hand": "right"
    },
    {
      "midi": 46,
      "time": 26.667,
      "duration": 0.333,
      "velocity": 0.57,
      "hand": "left"
    },
    {
      "midi": 58,
      "time": 26.667,
      "duration": 0.333,
      "velocity": 0.57,
      "hand": "left"
    },
    {
      "midi": 65,
      "time": 26.667,
      "duration": 1,
      "velocity": 0.61,
      "hand": "right"
    },
    {
      "midi": 68,
      "time": 26.667,
      "duration": 1,
      "velocity": 0.61,
      "hand": "right"
    },
    {
      "midi": 46,
      "time": 27,
      "duration": 0.333,
      "velocity": 0.61,
      "hand": "left"
    },
    {
      "midi": 58,
      "time": 27,
      "duration": 0.333,
      "velocity": 0.61,
      "hand": "left"
    },
    {
      "midi": 46,
      "time": 27.333,
      "duration": 0.333,
      "velocity": 0.57,
      "hand": "left"
    },
    {
      "midi": 58,
      "time": 27.333,
      "duration": 0.333,
      "velocity": 0.57,
      "hand": "left"
    },
    {
      "midi": 46,
      "time": 27.667,
      "duration": 0.333,
      "velocity": 0.58,
      "hand": "left"
    },
    {
      "midi": 58,
      "time": 27.667,
      "duration": 0.333,
      "velocity": 0.58,
      "hand": "left"
    },
    {
      "midi": 65,
      "time": 27.667,
      "duration": 0.333,
      "velocity": 0.62,
      "hand": "right"
    },
    {
      "midi": 68,
      "time": 27.667,
      "duration": 0.333,
      "velocity": 0.62,
      "hand": "right"
    },
    {
      "midi": 46,
      "time": 28,
      "duration": 0.333,
      "velocity": 0.58,
      "hand": "left"
    },
    {
      "midi": 58,
      "time": 28,
      "duration": 0.333,
      "velocity": 0.58,
      "hand": "left"
    },
    {
      "midi": 70,
      "time": 28,
      "duration": 0.333,
      "velocity": 0.65,
      "hand": "right"
    },
    {
      "midi": 74,
      "time": 28,
      "duration": 0.333,
      "velocity": 0.65,
      "hand": "right"
    },
    {
      "midi": 46,
      "time": 28.333,
      "duration": 0.333,
      "velocity": 0.63,
      "hand": "left"
    },
    {
      "midi": 58,
      "time": 28.333,
      "duration": 0.333,
      "velocity": 0.63,
      "hand": "left"
    },
    {
      "midi": 68,
      "time": 28.333,
      "duration": 0.333,
      "velocity": 0.56,
      "hand": "right"
    },
    {
      "midi": 72,
      "time": 28.333,
      "duration": 0.333,
      "velocity": 0.56,
      "hand": "right"
    },
    {
      "midi": 67,
      "time": 28.667,
      "duration": 0.333,
      "velocity": 0.56,
      "hand": "right"
    },
    {
      "midi": 70,
      "time": 28.667,
      "duration": 0.333,
      "velocity": 0.56,
      "hand": "right"
    },
    {
      "midi": 65,
      "time": 29,
      "duration": 0.333,
      "velocity": 0.54,
      "hand": "right"
    },
    {
      "midi": 68,
      "time": 29,
      "duration": 0.333,
      "velocity": 0.54,
      "hand": "right"
    },
    {
      "midi": 51,
      "time": 29.333,
      "duration": 0.333,
      "velocity": 0.53,
      "hand": "left"
    },
    {
      "midi": 58,
      "time": 29.333,
      "duration": 0.333,
      "velocity": 0.53,
      "hand": "left"
    },
    {
      "midi": 63,
      "time": 29.333,
      "duration": 0.667,
      "velocity": 0.54,
      "hand": "right"
    },
    {
      "midi": 67,
      "time": 29.333,
      "duration": 0.667,
      "velocity": 0.54,
      "hand": "right"
    },
    {
      "midi": 51,
      "time": 29.667,
      "duration": 0.333,
      "velocity": 0.57,
      "hand": "left"
    },
    {
      "midi": 58,
      "time": 29.667,
      "duration": 0.333,
      "velocity": 0.57,
      "hand": "left"
    },
    {
      "midi": 51,
      "time": 30,
      "duration": 0.333,
      "velocity": 0.63,
      "hand": "left"
    },
    {
      "midi": 58,
      "time": 30,
      "duration": 0.333,
      "velocity": 0.63,
      "hand": "left"
    },
    {
      "midi": 65,
      "time": 30,
      "duration": 0.667,
      "velocity": 0.62,
      "hand": "right"
    },
    {
      "midi": 68,
      "time": 30,
      "duration": 0.667,
      "velocity": 0.62,
      "hand": "right"
    },
    {
      "midi": 51,
      "time": 30.333,
      "duration": 0.333,
      "velocity": 0.57,
      "hand": "left"
    },
    {
      "midi": 58,
      "time": 30.333,
      "duration": 0.333,
      "velocity": 0.57,
      "hand": "left"
    },
    {
      "midi": 51,
      "time": 30.667,
      "duration": 1.333,
      "velocity": 0.7,
      "hand": "left"
    },
    {
      "midi": 63,
      "time": 30.667,
      "duration": 1.333,
      "velocity": 0.7,
      "hand": "right"
    },
    {
      "midi": 67,
      "time": 30.667,
      "duration": 1.333,
      "velocity": 0.63,
      "hand": "right"
    },
    {
      "midi": 70,
      "time": 30.667,
      "duration": 1.333,
      "velocity": 0.63,
      "hand": "right"
    },
    {
      "midi": 51,
      "time": 32,
      "duration": 0.333,
      "velocity": 0.59,
      "hand": "left"
    },
    {
      "midi": 58,
      "time": 32,
      "duration": 0.333,
      "velocity": 0.59,
      "hand": "left"
    },
    {
      "midi": 67,
      "time": 32,
      "duration": 1,
      "velocity": 0.7,
      "hand": "right"
    },
    {
      "midi": 75,
      "time": 32,
      "duration": 1,
      "velocity": 0.7,
      "hand": "right"
    },
    {
      "midi": 51,
      "time": 32.333,
      "duration": 0.333,
      "velocity": 0.58,
      "hand": "left"
    },
    {
      "midi": 58,
      "time": 32.333,
      "duration": 0.333,
      "velocity": 0.58,
      "hand": "left"
    },
    {
      "midi": 51,
      "time": 32.667,
      "duration": 0.333,
      "velocity": 0.6,
      "hand": "left"
    },
    {
      "midi": 58,
      "time": 32.667,
      "duration": 0.333,
      "velocity": 0.6,
      "hand": "left"
    },
    {
      "midi": 51,
      "time": 33,
      "duration": 0.333,
      "velocity": 0.67,
      "hand": "left"
    },
    {
      "midi": 63,
      "time": 33,
      "duration": 0.333,
      "velocity": 0.67,
      "hand": "right"
    },
    {
      "midi": 67,
      "time": 33,
      "duration": 0.333,
      "velocity": 0.63,
      "hand": "right"
    },
    {
      "midi": 75,
      "time": 33,
      "duration": 0.333,
      "velocity": 0.63,
      "hand": "right"
    },
    {
      "midi": 56,
      "time": 33.333,
      "duration": 0.333,
      "velocity": 0.63,
      "hand": "left"
    },
    {
      "midi": 63,
      "time": 33.333,
      "duration": 0.333,
      "velocity": 0.63,
      "hand": "right"
    },
    {
      "midi": 70,
      "time": 33.333,
      "duration": 0.333,
      "velocity": 0.59,
      "hand": "right"
    },
    {
      "midi": 74,
      "time": 33.333,
      "duration": 0.333,
      "velocity": 0.59,
      "hand": "right"
    },
    {
      "midi": 56,
      "time": 33.667,
      "duration": 0.333,
      "velocity": 0.6,
      "hand": "left"
    },
    {
      "midi": 63,
      "time": 33.667,
      "duration": 0.333,
      "velocity": 0.6,
      "hand": "right"
    },
    {
      "midi": 68,
      "time": 33.667,
      "duration": 0.333,
      "velocity": 0.56,
      "hand": "right"
    },
    {
      "midi": 72,
      "time": 33.667,
      "duration": 0.333,
      "velocity": 0.56,
      "hand": "right"
    },
    {
      "midi": 58,
      "time": 34.667,
      "duration": 0.333,
      "velocity": 0.56,
      "hand": "left"
    },
    {
      "midi": 65,
      "time": 34.667,
      "duration": 0.333,
      "velocity": 0.56,
      "hand": "right"
    },
    {
      "midi": 68,
      "time": 34.667,
      "duration": 0.333,
      "velocity": 0.5,
      "hand": "right"
    },
    {
      "midi": 74,
      "time": 34.667,
      "duration": 0.333,
      "velocity": 0.5,
      "hand": "right"
    },
    {
      "midi": 58,
      "time": 35,
      "duration": 0.333,
      "velocity": 0.6,
      "hand": "left"
    },
    {
      "midi": 65,
      "time": 35,
      "duration": 0.333,
      "velocity": 0.6,
      "hand": "right"
    },
    {
      "midi": 68,
      "time": 35,
      "duration": 0.333,
      "velocity": 0.59,
      "hand": "right"
    },
    {
      "midi": 74,
      "time": 35,
      "duration": 0.333,
      "velocity": 0.59,
      "hand": "right"
    },
    {
      "midi": 58,
      "time": 35.333,
      "duration": 0.333,
      "velocity": 0.57,
      "hand": "left"
    },
    {
      "midi": 63,
      "time": 35.333,
      "duration": 0.333,
      "velocity": 0.57,
      "hand": "right"
    },
    {
      "midi": 68,
      "time": 35.333,
      "duration": 0.333,
      "velocity": 0.54,
      "hand": "right"
    },
    {
      "midi": 72,
      "time": 35.333,
      "duration": 0.333,
      "velocity": 0.54,
      "hand": "right"
    },
    {
      "midi": 58,
      "time": 35.833,
      "duration": 0.5,
      "velocity": 0.58,
      "hand": "left"
    },
    {
      "midi": 63,
      "time": 35.833,
      "duration": 0.5,
      "velocity": 0.58,
      "hand": "right"
    },
    {
      "midi": 68,
      "time": 35.833,
      "duration": 0.5,
      "velocity": 0.61,
      "hand": "right"
    },
    {
      "midi": 72,
      "time": 35.833,
      "duration": 0.5,
      "velocity": 0.61,
      "hand": "right"
    },
    {
      "midi": 58,
      "time": 36.167,
      "duration": 2.833,
      "velocity": 0.59,
      "hand": "left"
    },
    {
      "midi": 62,
      "time": 36.167,
      "duration": 2.833,
      "velocity": 0.59,
      "hand": "right"
    },
    {
      "midi": 68,
      "time": 36.167,
      "duration": 2.833,
      "velocity": 0.57,
      "hand": "right"
    },
    {
      "midi": 70,
      "time": 36.167,
      "duration": 2.833,
      "velocity": 0.57,
      "hand": "right"
    },
    {
      "midi": 51,
      "time": 39,
      "duration": 0.5,
      "velocity": 0.61,
      "hand": "left"
    },
    {
      "midi": 63,
      "time": 39,
      "duration": 0.5,
      "velocity": 0.61,
      "hand": "right"
    },
    {
      "midi": 67,
      "time": 39,
      "duration": 0.5,
      "velocity": 0.69,
      "hand": "right"
    },
    {
      "midi": 75,
      "time": 39,
      "duration": 0.5,
      "velocity": 0.69,
      "hand": "right"
    },
    {
      "midi": 51,
      "time": 39.5,
      "duration": 0.5,
      "velocity": 0.59,
      "hand": "left"
    },
    {
      "midi": 63,
      "time": 39.5,
      "duration": 0.5,
      "velocity": 0.59,
      "hand": "right"
    },
    {
      "midi": 67,
      "time": 39.5,
      "duration": 0.5,
      "velocity": 0.62,
      "hand": "right"
    },
    {
      "midi": 75,
      "time": 39.5,
      "duration": 0.5,
      "velocity": 0.62,
      "hand": "right"
    },
    {
      "midi": 51,
      "time": 39.833,
      "duration": 0.5,
      "velocity": 0.61,
      "hand": "left"
    },
    {
      "midi": 63,
      "time": 39.833,
      "duration": 0.5,
      "velocity": 0.61,
      "hand": "right"
    },
    {
      "midi": 67,
      "time": 39.833,
      "duration": 0.5,
      "velocity": 0.57,
      "hand": "right"
    },
    {
      "midi": 74,
      "time": 39.833,
      "duration": 0.5,
      "velocity": 0.57,
      "hand": "right"
    },
    {
      "midi": 51,
      "time": 40.333,
      "duration": 0.5,
      "velocity": 0.59,
      "hand": "left"
    },
    {
      "midi": 63,
      "time": 40.333,
      "duration": 0.5,
      "velocity": 0.59,
      "hand": "right"
    },
    {
      "midi": 67,
      "time": 40.333,
      "duration": 0.5,
      "velocity": 0.65,
      "hand": "right"
    },
    {
      "midi": 75,
      "time": 40.333,
      "duration": 0.5,
      "velocity": 0.65,
      "hand": "right"
    },
    {
      "midi": 56,
      "time": 40.833,
      "duration": 0.5,
      "velocity": 0.61,
      "hand": "left"
    },
    {
      "midi": 63,
      "time": 40.833,
      "duration": 0.5,
      "velocity": 0.61,
      "hand": "right"
    },
    {
      "midi": 70,
      "time": 40.833,
      "duration": 0.5,
      "velocity": 0.58,
      "hand": "right"
    },
    {
      "midi": 74,
      "time": 40.833,
      "duration": 0.5,
      "velocity": 0.58,
      "hand": "right"
    },
    {
      "midi": 56,
      "time": 41.167,
      "duration": 0.5,
      "velocity": 0.61,
      "hand": "left"
    },
    {
      "midi": 63,
      "time": 41.167,
      "duration": 0.5,
      "velocity": 0.61,
      "hand": "right"
    },
    {
      "midi": 68,
      "time": 41.167,
      "duration": 0.5,
      "velocity": 0.54,
      "hand": "right"
    },
    {
      "midi": 72,
      "time": 41.167,
      "duration": 0.5,
      "velocity": 0.54,
      "hand": "right"
    },
    {
      "midi": 56,
      "time": 41.667,
      "duration": 0.5,
      "velocity": 0.52,
      "hand": "left"
    },
    {
      "midi": 60,
      "time": 41.667,
      "duration": 0.5,
      "velocity": 0.52,
      "hand": "right"
    },
    {
      "midi": 65,
      "time": 41.667,
      "duration": 0.5,
      "velocity": 0.55,
      "hand": "right"
    },
    {
      "midi": 70,
      "time": 41.667,
      "duration": 0.5,
      "velocity": 0.55,
      "hand": "right"
    },
    {
      "midi": 56,
      "time": 42.167,
      "duration": 0.5,
      "velocity": 0.6,
      "hand": "left"
    },
    {
      "midi": 60,
      "time": 42.167,
      "duration": 0.5,
      "velocity": 0.6,
      "hand": "right"
    },
    {
      "midi": 65,
      "time": 42.167,
      "duration": 0.5,
      "velocity": 0.54,
      "hand": "right"
    },
    {
      "midi": 68,
      "time": 42.167,
      "duration": 0.5,
      "velocity": 0.54,
      "hand": "right"
    },
    {
      "midi": 58,
      "time": 42.667,
      "duration": 0.833,
      "velocity": 0.57,
      "hand": "left"
    },
    {
      "midi": 63,
      "time": 42.667,
      "duration": 0.833,
      "velocity": 0.6,
      "hand": "right"
    },
    {
      "midi": 67,
      "time": 42.667,
      "duration": 0.833,
      "velocity": 0.6,
      "hand": "right"
    },
    {
      "midi": 46,
      "time": 43.5,
      "duration": 0.833,
      "velocity": 0.6,
      "hand": "left"
    },
    {
      "midi": 56,
      "time": 43.5,
      "duration": 0.833,
      "velocity": 0.6,
      "hand": "left"
    },
    {
      "midi": 62,
      "time": 43.5,
      "duration": 0.833,
      "velocity": 0.54,
      "hand": "right"
    },
    {
      "midi": 65,
      "time": 43.5,
      "duration": 0.833,
      "velocity": 0.54,
      "hand": "right"
    },
    {
      "midi": 51,
      "time": 44.333,
      "duration": 1.833,
      "velocity": 0.61,
      "hand": "left"
    },
    {
      "midi": 55,
      "time": 44.333,
      "duration": 1.833,
      "velocity": 0.61,
      "hand": "left"
    },
    {
      "midi": 63,
      "time": 44.333,
      "duration": 1.833,
      "velocity": 0.57,
      "hand": "right"
    }
  ],
  "arrangements": {
    "easy": [
      {
        "midi": 67,
        "time": 0,
        "duration": 0.333,
        "velocity": 0.54,
        "hand": "right"
      },
      {
        "midi": 67,
        "time": 0.333,
        "duration": 0.333,
        "velocity": 0.61,
        "hand": "right"
      },
      {
        "midi": 67,
        "time": 0.667,
        "duration": 0.333,
        "velocity": 0.59,
        "hand": "right"
      },
      {
        "midi": 68,
        "time": 1,
        "duration": 0.333,
        "velocity": 0.63,
        "hand": "right"
      },
      {
        "midi": 70,
        "time": 1.333,
        "duration": 0.333,
        "velocity": 0.62,
        "hand": "right"
      },
      {
        "midi": 70,
        "time": 1.667,
        "duration": 0.333,
        "velocity": 0.61,
        "hand": "right"
      },
      {
        "midi": 70,
        "time": 2,
        "duration": 0.333,
        "velocity": 0.58,
        "hand": "right"
      },
      {
        "midi": 67,
        "time": 2.333,
        "duration": 0.333,
        "velocity": 0.52,
        "hand": "right"
      },
      {
        "midi": 68,
        "time": 2.667,
        "duration": 0.667,
        "velocity": 0.63,
        "hand": "right"
      },
      {
        "midi": 58,
        "time": 3,
        "duration": 0.333,
        "velocity": 0.64,
        "hand": "right"
      },
      {
        "midi": 67,
        "time": 3.333,
        "duration": 0.667,
        "velocity": 0.56,
        "hand": "right"
      },
      {
        "midi": 58,
        "time": 3.667,
        "duration": 0.333,
        "velocity": 0.57,
        "hand": "right"
      },
      {
        "midi": 68,
        "time": 4,
        "duration": 1.333,
        "velocity": 0.62,
        "hand": "right"
      },
      {
        "midi": 65,
        "time": 5.333,
        "duration": 0.333,
        "velocity": 0.5,
        "hand": "right"
      },
      {
        "midi": 67,
        "time": 5.667,
        "duration": 0.333,
        "velocity": 0.59,
        "hand": "right"
      },
      {
        "midi": 68,
        "time": 6,
        "duration": 0.333,
        "velocity": 0.64,
        "hand": "right"
      },
      {
        "midi": 70,
        "time": 6.333,
        "duration": 0.333,
        "velocity": 0.64,
        "hand": "right"
      },
      {
        "midi": 74,
        "time": 6.667,
        "duration": 0.333,
        "velocity": 0.7,
        "hand": "right"
      },
      {
        "midi": 72,
        "time": 7,
        "duration": 0.333,
        "velocity": 0.54,
        "hand": "right"
      },
      {
        "midi": 70,
        "time": 7.333,
        "duration": 0.333,
        "velocity": 0.53,
        "hand": "right"
      },
      {
        "midi": 68,
        "time": 7.667,
        "duration": 0.333,
        "velocity": 0.55,
        "hand": "right"
      },
      {
        "midi": 67,
        "time": 8,
        "duration": 0.667,
        "velocity": 0.55,
        "hand": "right"
      },
      {
        "midi": 58,
        "time": 8.333,
        "duration": 0.333,
        "velocity": 0.54,
        "hand": "right"
      },
      {
        "midi": 68,
        "time": 8.667,
        "duration": 0.667,
        "velocity": 0.63,
        "hand": "right"
      },
      {
        "midi": 63,
        "time": 9,
        "duration": 0.333,
        "velocity": 0.61,
        "hand": "right"
      },
      {
        "midi": 70,
        "time": 9.333,
        "duration": 1.333,
        "velocity": 0.63,
        "hand": "right"
      },
      {
        "midi": 67,
        "time": 10.667,
        "duration": 0.333,
        "velocity": 0.56,
        "hand": "right"
      },
      {
        "midi": 67,
        "time": 11,
        "duration": 0.333,
        "velocity": 0.58,
        "hand": "right"
      },
      {
        "midi": 67,
        "time": 11.333,
        "duration": 0.333,
        "velocity": 0.57,
        "hand": "right"
      },
      {
        "midi": 68,
        "time": 11.667,
        "duration": 0.333,
        "velocity": 0.63,
        "hand": "right"
      },
      {
        "midi": 70,
        "time": 12,
        "duration": 0.333,
        "velocity": 0.61,
        "hand": "right"
      },
      {
        "midi": 70,
        "time": 12.333,
        "duration": 0.333,
        "velocity": 0.6,
        "hand": "right"
      },
      {
        "midi": 70,
        "time": 12.667,
        "duration": 0.333,
        "velocity": 0.6,
        "hand": "right"
      },
      {
        "midi": 67,
        "time": 13,
        "duration": 0.333,
        "velocity": 0.5,
        "hand": "right"
      },
      {
        "midi": 68,
        "time": 13.333,
        "duration": 0.667,
        "velocity": 0.63,
        "hand": "right"
      },
      {
        "midi": 58,
        "time": 13.667,
        "duration": 0.333,
        "velocity": 0.59,
        "hand": "right"
      },
      {
        "midi": 67,
        "time": 14,
        "duration": 0.667,
        "velocity": 0.56,
        "hand": "right"
      },
      {
        "midi": 58,
        "time": 14.333,
        "duration": 0.333,
        "velocity": 0.63,
        "hand": "right"
      },
      {
        "midi": 68,
        "time": 14.667,
        "duration": 1.333,
        "velocity": 0.57,
        "hand": "right"
      },
      {
        "midi": 65,
        "time": 16,
        "duration": 0.333,
        "velocity": 0.56,
        "hand": "right"
      },
      {
        "midi": 67,
        "time": 16.333,
        "duration": 0.333,
        "velocity": 0.63,
        "hand": "right"
      },
      {
        "midi": 68,
        "time": 16.667,
        "duration": 0.333,
        "velocity": 0.64,
        "hand": "right"
      },
      {
        "midi": 70,
        "time": 17,
        "duration": 0.333,
        "velocity": 0.62,
        "hand": "right"
      },
      {
        "midi": 74,
        "time": 17.333,
        "duration": 0.333,
        "velocity": 0.65,
        "hand": "right"
      },
      {
        "midi": 72,
        "time": 17.667,
        "duration": 0.333,
        "velocity": 0.56,
        "hand": "right"
      },
      {
        "midi": 70,
        "time": 18,
        "duration": 0.333,
        "velocity": 0.58,
        "hand": "right"
      },
      {
        "midi": 68,
        "time": 18.333,
        "duration": 0.333,
        "velocity": 0.54,
        "hand": "right"
      },
      {
        "midi": 67,
        "time": 18.667,
        "duration": 0.667,
        "velocity": 0.56,
        "hand": "right"
      },
      {
        "midi": 58,
        "time": 19,
        "duration": 0.333,
        "velocity": 0.59,
        "hand": "right"
      },
      {
        "midi": 65,
        "time": 19.333,
        "duration": 0.667,
        "velocity": 0.56,
        "hand": "right"
      },
      {
        "midi": 56,
        "time": 19.667,
        "duration": 0.333,
        "velocity": 0.57,
        "hand": "right"
      },
      {
        "midi": 63,
        "time": 20,
        "duration": 1.333,
        "velocity": 0.59,
        "hand": "right"
      },
      {
        "midi": 70,
        "time": 21.333,
        "duration": 1,
        "velocity": 0.71,
        "hand": "right"
      },
      {
        "midi": 63,
        "time": 21.667,
        "duration": 0.333,
        "velocity": 0.61,
        "hand": "right"
      },
      {
        "midi": 63,
        "time": 22,
        "duration": 0.333,
        "velocity": 0.6,
        "hand": "right"
      },
      {
        "midi": 70,
        "time": 22.333,
        "duration": 0.333,
        "velocity": 0.62,
        "hand": "right"
      },
      {
        "midi": 75,
        "time": 22.667,
        "duration": 0.333,
        "velocity": 0.69,
        "hand": "right"
      },
      {
        "midi": 70,
        "time": 23,
        "duration": 0.333,
        "velocity": 0.55,
        "hand": "right"
      },
      {
        "midi": 70,
        "time": 23.333,
        "duration": 0.333,
        "velocity": 0.62,
        "hand": "right"
      },
      {
        "midi": 67,
        "time": 23.667,
        "duration": 0.333,
        "velocity": 0.52,
        "hand": "right"
      },
      {
        "midi": 68,
        "time": 24,
        "duration": 0.667,
        "velocity": 0.62,
        "hand": "right"
      },
      {
        "midi": 63,
        "time": 24.333,
        "duration": 0.333,
        "velocity": 0.55,
        "hand": "right"
      },
      {
        "midi": 68,
        "time": 24.667,
        "duration": 0.667,
        "velocity": 0.58,
        "hand": "right"
      },
      {
        "midi": 60,
        "time": 25,
        "duration": 0.333,
        "velocity": 0.6,
        "hand": "right"
      },
      {
        "midi": 68,
        "time": 25.333,
        "duration": 1.333,
        "velocity": 0.58,
        "hand": "right"
      },
      {
        "midi": 68,
        "time": 26.667,
        "duration": 1,
        "velocity": 0.61,
        "hand": "right"
      },
      {
        "midi": 58,
        "time": 27,
        "duration": 0.333,
        "velocity": 0.61,
        "hand": "right"
      },
      {
        "midi": 58,
        "time": 27.333,
        "duration": 0.333,
        "velocity": 0.57,
        "hand": "right"
      },
      {
        "midi": 68,
        "time": 27.667,
        "duration": 0.333,
        "velocity": 0.62,
        "hand": "right"
      },
      {
        "midi": 74,
        "time": 28,
        "duration": 0.333,
        "velocity": 0.65,
        "hand": "right"
      },
      {
        "midi": 72,
        "time": 28.333,
        "duration": 0.333,
        "velocity": 0.56,
        "hand": "right"
      },
      {
        "midi": 70,
        "time": 28.667,
        "duration": 0.333,
        "velocity": 0.56,
        "hand": "right"
      },
      {
        "midi": 68,
        "time": 29,
        "duration": 0.333,
        "velocity": 0.54,
        "hand": "right"
      },
      {
        "midi": 67,
        "time": 29.333,
        "duration": 0.667,
        "velocity": 0.54,
        "hand": "right"
      },
      {
        "midi": 58,
        "time": 29.667,
        "duration": 0.333,
        "velocity": 0.57,
        "hand": "right"
      },
      {
        "midi": 68,
        "time": 30,
        "duration": 0.667,
        "velocity": 0.62,
        "hand": "right"
      },
      {
        "midi": 58,
        "time": 30.333,
        "duration": 0.333,
        "velocity": 0.57,
        "hand": "right"
      },
      {
        "midi": 70,
        "time": 30.667,
        "duration": 1.333,
        "velocity": 0.63,
        "hand": "right"
      },
      {
        "midi": 75,
        "time": 32,
        "duration": 1,
        "velocity": 0.7,
        "hand": "right"
      },
      {
        "midi": 58,
        "time": 32.333,
        "duration": 0.333,
        "velocity": 0.58,
        "hand": "right"
      },
      {
        "midi": 58,
        "time": 32.667,
        "duration": 0.333,
        "velocity": 0.6,
        "hand": "right"
      },
      {
        "midi": 75,
        "time": 33,
        "duration": 0.333,
        "velocity": 0.63,
        "hand": "right"
      },
      {
        "midi": 74,
        "time": 33.333,
        "duration": 0.333,
        "velocity": 0.59,
        "hand": "right"
      },
      {
        "midi": 72,
        "time": 33.667,
        "duration": 0.333,
        "velocity": 0.56,
        "hand": "right"
      },
      {
        "midi": 74,
        "time": 34.667,
        "duration": 0.333,
        "velocity": 0.5,
        "hand": "right"
      },
      {
        "midi": 74,
        "time": 35,
        "duration": 0.333,
        "velocity": 0.59,
        "hand": "right"
      },
      {
        "midi": 72,
        "time": 35.333,
        "duration": 0.333,
        "velocity": 0.54,
        "hand": "right"
      },
      {
        "midi": 72,
        "time": 35.833,
        "duration": 0.5,
        "velocity": 0.61,
        "hand": "right"
      },
      {
        "midi": 70,
        "time": 36.167,
        "duration": 2.833,
        "velocity": 0.57,
        "hand": "right"
      },
      {
        "midi": 75,
        "time": 39,
        "duration": 0.5,
        "velocity": 0.69,
        "hand": "right"
      },
      {
        "midi": 75,
        "time": 39.5,
        "duration": 0.5,
        "velocity": 0.62,
        "hand": "right"
      },
      {
        "midi": 74,
        "time": 39.833,
        "duration": 0.5,
        "velocity": 0.57,
        "hand": "right"
      },
      {
        "midi": 75,
        "time": 40.333,
        "duration": 0.5,
        "velocity": 0.65,
        "hand": "right"
      },
      {
        "midi": 74,
        "time": 40.833,
        "duration": 0.5,
        "velocity": 0.58,
        "hand": "right"
      },
      {
        "midi": 72,
        "time": 41.167,
        "duration": 0.5,
        "velocity": 0.54,
        "hand": "right"
      },
      {
        "midi": 70,
        "time": 41.667,
        "duration": 0.5,
        "velocity": 0.55,
        "hand": "right"
      },
      {
        "midi": 68,
        "time": 42.167,
        "duration": 0.5,
        "velocity": 0.54,
        "hand": "right"
      },
      {
        "midi": 67,
        "time": 42.667,
        "duration": 0.833,
        "velocity": 0.6,
        "hand": "right"
      },
      {
        "midi": 65,
        "time": 43.5,
        "duration": 0.833,
        "velocity": 0.54,
        "hand": "right"
      },
      {
        "midi": 63,
        "time": 44.333,
        "duration": 1.833,
        "velocity": 0.57,
        "hand": "right"
      }
    ],
    "medium": [
      {
        "midi": 51,
        "time": 0,
        "duration": 0.333,
        "velocity": 0.5,
        "hand": "left"
      },
      {
        "midi": 63,
        "time": 0,
        "duration": 0.333,
        "velocity": 0.54,
        "hand": "right"
      },
      {
        "midi": 67,
        "time": 0,
        "duration": 0.333,
        "velocity": 0.54,
        "hand": "right"
      },
      {
        "midi": 51,
        "time": 0.333,
        "duration": 0.333,
        "velocity": 0.6,
        "hand": "left"
      },
      {
        "midi": 63,
        "time": 0.333,
        "duration": 0.333,
        "velocity": 0.61,
        "hand": "right"
      },
      {
        "midi": 67,
        "time": 0.333,
        "duration": 0.333,
        "velocity": 0.61,
        "hand": "right"
      },
      {
        "midi": 51,
        "time": 0.667,
        "duration": 0.333,
        "velocity": 0.57,
        "hand": "left"
      },
      {
        "midi": 63,
        "time": 0.667,
        "duration": 0.333,
        "velocity": 0.59,
        "hand": "right"
      },
      {
        "midi": 67,
        "time": 0.667,
        "duration": 0.333,
        "velocity": 0.59,
        "hand": "right"
      },
      {
        "midi": 51,
        "time": 1,
        "duration": 0.333,
        "velocity": 0.61,
        "hand": "left"
      },
      {
        "midi": 65,
        "time": 1,
        "duration": 0.333,
        "velocity": 0.63,
        "hand": "right"
      },
      {
        "midi": 68,
        "time": 1,
        "duration": 0.333,
        "velocity": 0.63,
        "hand": "right"
      },
      {
        "midi": 51,
        "time": 1.333,
        "duration": 0.333,
        "velocity": 0.67,
        "hand": "left"
      },
      {
        "midi": 67,
        "time": 1.333,
        "duration": 0.333,
        "velocity": 0.62,
        "hand": "right"
      },
      {
        "midi": 70,
        "time": 1.333,
        "duration": 0.333,
        "velocity": 0.62,
        "hand": "right"
      },
      {
        "midi": 51,
        "time": 1.667,
        "duration": 0.333,
        "velocity": 0.57,
        "hand": "left"
      },
      {
        "midi": 67,
        "time": 1.667,
        "duration": 0.333,
        "velocity": 0.61,
        "hand": "right"
      },
      {
        "midi": 70,
        "time": 1.667,
        "duration": 0.333,
        "velocity": 0.61,
        "hand": "right"
      },
      {
        "midi": 67,
        "time": 2,
        "duration": 0.333,
        "velocity": 0.58,
        "hand": "right"
      },
      {
        "midi": 70,
        "time": 2,
        "duration": 0.333,
        "velocity": 0.58,
        "hand": "right"
      },
      {
        "midi": 63,
        "time": 2.333,
        "duration": 0.333,
        "velocity": 0.52,
        "hand": "right"
      },
      {
        "midi": 67,
        "time": 2.333,
        "duration": 0.333,
        "velocity": 0.52,
        "hand": "right"
      },
      {
        "midi": 46,
        "time": 2.667,
        "duration": 0.333,
        "velocity": 0.56,
        "hand": "left"
      },
      {
        "midi": 65,
        "time": 2.667,
        "duration": 0.667,
        "velocity": 0.63,
        "hand": "right"
      },
      {
        "midi": 68,
        "time": 2.667,
        "duration": 0.667,
        "velocity": 0.63,
        "hand": "right"
      },
      {
        "midi": 46,
        "time": 3,
        "duration": 0.333,
        "velocity": 0.64,
        "hand": "left"
      },
      {
        "midi": 58,
        "time": 3,
        "duration": 0.333,
        "velocity": 0.64,
        "hand": "left"
      },
      {
        "midi": 46,
        "time": 3.333,
        "duration": 0.333,
        "velocity": 0.61,
        "hand": "left"
      },
      {
        "midi": 64,
        "time": 3.333,
        "duration": 0.667,
        "velocity": 0.56,
        "hand": "right"
      },
      {
        "midi": 67,
        "time": 3.333,
        "duration": 0.667,
        "velocity": 0.56,
        "hand": "right"
      },
      {
        "midi": 46,
        "time": 3.667,
        "duration": 0.333,
        "velocity": 0.57,
        "hand": "left"
      },
      {
        "midi": 58,
        "time": 3.667,
        "duration": 0.333,
        "velocity": 0.57,
        "hand": "left"
      },
      {
        "midi": 46,
        "time": 4,
        "duration": 1.333,
        "velocity": 0.61,
        "hand": "left"
      },
      {
        "midi": 65,
        "time": 4,
        "duration": 1.333,
        "velocity": 0.62,
        "hand": "right"
      },
      {
        "midi": 68,
        "time": 4,
        "duration": 1.333,
        "velocity": 0.62,
        "hand": "right"
      },
      {
        "midi": 46,
        "time": 5.333,
        "duration": 0.333,
        "velocity": 0.57,
        "hand": "left"
      },
      {
        "midi": 62,
        "time": 5.333,
        "duration": 0.333,
        "velocity": 0.5,
        "hand": "right"
      },
      {
        "midi": 65,
        "time": 5.333,
        "duration": 0.333,
        "velocity": 0.5,
        "hand": "right"
      },
      {
        "midi": 46,
        "time": 5.667,
        "duration": 0.333,
        "velocity": 0.62,
        "hand": "left"
      },
      {
        "midi": 63,
        "time": 5.667,
        "duration": 0.333,
        "velocity": 0.59,
        "hand": "right"
      },
      {
        "midi": 67,
        "time": 5.667,
        "duration": 0.333,
        "velocity": 0.59,
        "hand": "right"
      },
      {
        "midi": 46,
        "time": 6,
        "duration": 0.333,
        "velocity": 0.63,
        "hand": "left"
      },
      {
        "midi": 65,
        "time": 6,
        "duration": 0.333,
        "velocity": 0.64,
        "hand": "right"
      },
      {
        "midi": 68,
        "time": 6,
        "duration": 0.333,
        "velocity": 0.64,
        "hand": "right"
      },
      {
        "midi": 46,
        "time": 6.333,
        "duration": 0.333,
        "velocity": 0.6,
        "hand": "left"
      },
      {
        "midi": 67,
        "time": 6.333,
        "duration": 0.333,
        "velocity": 0.64,
        "hand": "right"
      },
      {
        "midi": 70,
        "time": 6.333,
        "duration": 0.333,
        "velocity": 0.64,
        "hand": "right"
      },
      {
        "midi": 46,
        "time": 6.667,
        "duration": 0.333,
        "velocity": 0.55,
        "hand": "left"
      },
      {
        "midi": 70,
        "time": 6.667,
        "duration": 0.333,
        "velocity": 0.7,
        "hand": "right"
      },
      {
        "midi": 74,
        "time": 6.667,
        "duration": 0.333,
        "velocity": 0.7,
        "hand": "right"
      },
      {
        "midi": 46,
        "time": 7,
        "duration": 0.333,
        "velocity": 0.6,
        "hand": "left"
      },
      {
        "midi": 68,
        "time": 7,
        "duration": 0.333,
        "velocity": 0.54,
        "hand": "right"
      },
      {
        "midi": 72,
        "time": 7,
        "duration": 0.333,
        "velocity": 0.54,
        "hand": "right"
      },
      {
        "midi": 67,
        "time": 7.333,
        "duration": 0.333,
        "velocity": 0.53,
        "hand": "right"
      },
      {
        "midi": 70,
        "time": 7.333,
        "duration": 0.333,
        "velocity": 0.53,
        "hand": "right"
      },
      {
        "midi": 65,
        "time": 7.667,
        "duration": 0.333,
        "velocity": 0.55,
        "hand": "right"
      },
      {
        "midi": 68,
        "time": 7.667,
        "duration": 0.333,
        "velocity": 0.55,
        "hand": "right"
      },
      {
        "midi": 51,
        "time": 8,
        "duration": 0.333,
        "velocity": 0.54,
        "hand": "left"
      },
      {
        "midi": 63,
        "time": 8,
        "duration": 0.667,
        "velocity": 0.55,
        "hand": "right"
      },
      {
        "midi": 67,
        "time": 8,
        "duration": 0.667,
        "velocity": 0.55,
        "hand": "right"
      },
      {
        "midi": 51,
        "time": 8.333,
        "duration": 0.333,
        "velocity": 0.54,
        "hand": "left"
      },
      {
        "midi": 58,
        "time": 8.333,
        "duration": 0.333,
        "velocity": 0.54,
        "hand": "left"
      },
      {
        "midi": 51,
        "time": 8.667,
        "duration": 0.333,
        "velocity": 0.69,
        "hand": "left"
      },
      {
        "midi": 65,
        "time": 8.667,
        "duration": 0.667,
        "velocity": 0.63,
        "hand": "right"
      },
      {
        "midi": 68,
        "time": 8.667,
        "duration": 0.667,
        "velocity": 0.63,
        "hand": "right"
      },
      {
        "midi": 51,
        "time": 9,
        "duration": 0.333,
        "velocity": 0.61,
        "hand": "left"
      },
      {
        "midi": 63,
        "time": 9,
        "duration": 0.333,
        "velocity": 0.61,
        "hand": "right"
      },
      {
        "midi": 51,
        "time": 9.333,
        "duration": 1.333,
        "velocity": 0.62,
        "hand": "left"
      },
      {
        "midi": 67,
        "time": 9.333,
        "duration": 1.333,
        "velocity": 0.63,
        "hand": "right"
      },
      {
        "midi": 70,
        "time": 9.333,
        "duration": 1.333,
        "velocity": 0.63,
        "hand": "right"
      },
      {
        "midi": 51,
        "time": 10.667,
        "duration": 0.333,
        "velocity": 0.53,
        "hand": "left"
      },
      {
        "midi": 63,
        "time": 10.667,
        "duration": 0.333,
        "velocity": 0.56,
        "hand": "right"
      },
      {
        "midi": 67,
        "time": 10.667,
        "duration": 0.333,
        "velocity": 0.56,
        "hand": "right"
      },
      {
        "midi": 51,
        "time": 11,
        "duration": 0.333,
        "velocity": 0.57,
        "hand": "left"
      },
      {
        "midi": 63,
        "time": 11,
        "duration": 0.333,
        "velocity": 0.58,
        "hand": "right"
      },
      {
        "midi": 67,
        "time": 11,
        "duration": 0.333,
        "velocity": 0.58,
        "hand": "right"
      },
      {
        "midi": 51,
        "time": 11.333,
        "duration": 0.333,
        "velocity": 0.58,
        "hand": "left"
      },
      {
        "midi": 63,
        "time": 11.333,
        "duration": 0.333,
        "velocity": 0.57,
        "hand": "right"
      },
      {
        "midi": 67,
        "time": 11.333,
        "duration": 0.333,
        "velocity": 0.57,
        "hand": "right"
      },
      {
        "midi": 51,
        "time": 11.667,
        "duration": 0.333,
        "velocity": 0.58,
        "hand": "left"
      },
      {
        "midi": 65,
        "time": 11.667,
        "duration": 0.333,
        "velocity": 0.63,
        "hand": "right"
      },
      {
        "midi": 68,
        "time": 11.667,
        "duration": 0.333,
        "velocity": 0.63,
        "hand": "right"
      },
      {
        "midi": 51,
        "time": 12,
        "duration": 0.333,
        "velocity": 0.72,
        "hand": "left"
      },
      {
        "midi": 67,
        "time": 12,
        "duration": 0.333,
        "velocity": 0.61,
        "hand": "right"
      },
      {
        "midi": 70,
        "time": 12,
        "duration": 0.333,
        "velocity": 0.61,
        "hand": "right"
      },
      {
        "midi": 51,
        "time": 12.333,
        "duration": 0.333,
        "velocity": 0.56,
        "hand": "left"
      },
      {
        "midi": 67,
        "time": 12.333,
        "duration": 0.333,
        "velocity": 0.6,
        "hand": "right"
      },
      {
        "midi": 70,
        "time": 12.333,
        "duration": 0.333,
        "velocity": 0.6,
        "hand": "right"
      },
      {
        "midi": 67,
        "time": 12.667,
        "duration": 0.333,
        "velocity": 0.6,
        "hand": "right"
      },
      {
        "midi": 70,
        "time": 12.667,
        "duration": 0.333,
        "velocity": 0.6,
        "hand": "right"
      },
      {
        "midi": 63,
        "time": 13,
        "duration": 0.333,
        "velocity": 0.5,
        "hand": "right"
      },
      {
        "midi": 67,
        "time": 13,
        "duration": 0.333,
        "velocity": 0.5,
        "hand": "right"
      },
      {
        "midi": 46,
        "time": 13.333,
        "duration": 0.333,
        "velocity": 0.53,
        "hand": "left"
      },
      {
        "midi": 65,
        "time": 13.333,
        "duration": 0.667,
        "velocity": 0.63,
        "hand": "right"
      },
      {
        "midi": 68,
        "time": 13.333,
        "duration": 0.667,
        "velocity": 0.63,
        "hand": "right"
      },
      {
        "midi": 46,
        "time": 13.667,
        "duration": 0.333,
        "velocity": 0.59,
        "hand": "left"
      },
      {
        "midi": 58,
        "time": 13.667,
        "duration": 0.333,
        "velocity": 0.59,
        "hand": "left"
      },
      {
        "midi": 46,
        "time": 14,
        "duration": 0.333,
        "velocity": 0.58,
        "hand": "left"
      },
      {
        "midi": 64,
        "time": 14,
        "duration": 0.667,
        "velocity": 0.56,
        "hand": "right"
      },
      {
        "midi": 67,
        "time": 14,
        "duration": 0.667,
        "velocity": 0.56,
        "hand": "right"
      },
      {
        "midi": 46,
        "time": 14.333,
        "duration": 0.333,
        "velocity": 0.63,
        "hand": "left"
      },
      {
        "midi": 58,
        "time": 14.333,
        "duration": 0.333,
        "velocity": 0.63,
        "hand": "left"
      },
      {
        "midi": 46,
        "time": 14.667,
        "duration": 1.333,
        "velocity": 0.6,
        "hand": "left"
      },
      {
        "midi": 65,
        "time": 14.667,
        "duration": 1.333,
        "velocity": 0.57,
        "hand": "right"
      },
      {
        "midi": 68,
        "time": 14.667,
        "duration": 1.333,
        "velocity": 0.57,
        "hand": "right"
      },
      {
        "midi": 46,
        "time": 16,
        "duration": 0.333,
        "velocity": 0.57,
        "hand": "left"
      },
      {
        "midi": 62,
        "time": 16,
        "duration": 0.333,
        "velocity": 0.56,
        "hand": "right"
      },
      {
        "midi": 65,
        "time": 16,
        "duration": 0.333,
        "velocity": 0.56,
        "hand": "right"
      },
      {
        "midi": 46,
        "time": 16.333,
        "duration": 0.333,
        "velocity": 0.62,
        "hand": "left"
      },
      {
        "midi": 63,
        "time": 16.333,
        "duration": 0.333,
        "velocity": 0.63,
        "hand": "right"
      },
      {
        "midi": 67,
        "time": 16.333,
        "duration": 0.333,
        "velocity": 0.63,
        "hand": "right"
      },
      {
        "midi": 46,
        "time": 16.667,
        "duration": 0.333,
        "velocity": 0.58,
        "hand": "left"
      },
      {
        "midi": 65,
        "time": 16.667,
        "duration": 0.333,
        "velocity": 0.64,
        "hand": "right"
      },
      {
        "midi": 68,
        "time": 16.667,
        "duration": 0.333,
        "velocity": 0.64,
        "hand": "right"
      },
      {
        "midi": 46,
        "time": 17,
        "duration": 0.333,
        "velocity": 0.61,
        "hand": "left"
      },
      {
        "midi": 67,
        "time": 17,
        "duration": 0.333,
        "velocity": 0.62,
        "hand": "right"
      },
      {
        "midi": 70,
        "time": 17,
        "duration": 0.333,
        "velocity": 0.62,
        "hand": "right"
      },
      {
        "midi": 46,
        "time": 17.333,
        "duration": 0.333,
        "velocity": 0.59,
        "hand": "left"
      },
      {
        "midi": 70,
        "time": 17.333,
        "duration": 0.333,
        "velocity": 0.65,
        "hand": "right"
      },
      {
        "midi": 74,
        "time": 17.333,
        "duration": 0.333,
        "velocity": 0.65,
        "hand": "right"
      },
      {
        "midi": 46,
        "time": 17.667,
        "duration": 0.333,
        "velocity": 0.61,
        "hand": "left"
      },
      {
        "midi": 68,
        "time": 17.667,
        "duration": 0.333,
        "velocity": 0.56,
        "hand": "right"
      },
      {
        "midi": 72,
        "time": 17.667,
        "duration": 0.333,
        "velocity": 0.56,
        "hand": "right"
      },
      {
        "midi": 67,
        "time": 18,
        "duration": 0.333,
        "velocity": 0.58,
        "hand": "right"
      },
      {
        "midi": 70,
        "time": 18,
        "duration": 0.333,
        "velocity": 0.58,
        "hand": "right"
      },
      {
        "midi": 65,
        "time": 18.333,
        "duration": 0.333,
        "velocity": 0.54,
        "hand": "right"
      },
      {
        "midi": 68,
        "time": 18.333,
        "duration": 0.333,
        "velocity": 0.54,
        "hand": "right"
      },
      {
        "midi": 46,
        "time": 18.667,
        "duration": 0.333,
        "velocity": 0.55,
        "hand": "left"
      },
      {
        "midi": 63,
        "time": 18.667,
        "duration": 0.667,
        "velocity": 0.56,
        "hand": "right"
      },
      {
        "midi": 67,
        "time": 18.667,
        "duration": 0.667,
        "velocity": 0.56,
        "hand": "right"
      },
      {
        "midi": 46,
        "time": 19,
        "duration": 0.333,
        "velocity": 0.59,
        "hand": "left"
      },
      {
        "midi": 58,
        "time": 19,
        "duration": 0.333,
        "velocity": 0.59,
        "hand": "left"
      },
      {
        "midi": 46,
        "time": 19.333,
        "duration": 0.333,
        "velocity": 0.59,
        "hand": "left"
      },
      {
        "midi": 62,
        "time": 19.333,
        "duration": 0.667,
        "velocity": 0.56,
        "hand": "right"
      },
      {
        "midi": 65,
        "time": 19.333,
        "duration": 0.667,
        "velocity": 0.56,
        "hand": "right"
      },
      {
        "midi": 46,
        "time": 19.667,
        "duration": 0.333,
        "velocity": 0.57,
        "hand": "left"
      },
      {
        "midi": 56,
        "time": 19.667,
        "duration": 0.333,
        "velocity": 0.57,
        "hand": "left"
      },
      {
        "midi": 51,
        "time": 20,
        "duration": 1.333,
        "velocity": 0.58,
        "hand": "left"
      },
      {
        "midi": 55,
        "time": 20,
        "duration": 1.333,
        "velocity": 0.58,
        "hand": "left"
      },
      {
        "midi": 63,
        "time": 20,
        "duration": 1.333,
        "velocity": 0.59,
        "hand": "right"
      },
      {
        "midi": 51,
        "time": 21.333,
        "duration": 0.333,
        "velocity": 0.72,
        "hand": "left"
      },
      {
        "midi": 67,
        "time": 21.333,
        "duration": 1,
        "velocity": 0.71,
        "hand": "right"
      },
      {
        "midi": 70,
        "time": 21.333,
        "duration": 1,
        "velocity": 0.71,
        "hand": "right"
      },
      {
        "midi": 51,
        "time": 21.667,
        "duration": 0.333,
        "velocity": 0.61,
        "hand": "left"
      },
      {
        "midi": 63,
        "time": 21.667,
        "duration": 0.333,
        "velocity": 0.61,
        "hand": "right"
      },
      {
        "midi": 51,
        "time": 22,
        "duration": 0.333,
        "velocity": 0.6,
        "hand": "left"
      },
      {
        "midi": 63,
        "time": 22,
        "duration": 0.333,
        "velocity": 0.6,
        "hand": "right"
      },
      {
        "midi": 51,
        "time": 22.333,
        "duration": 0.333,
        "velocity": 0.57,
        "hand": "left"
      },
      {
        "midi": 67,
        "time": 22.333,
        "duration": 0.333,
        "velocity": 0.62,
        "hand": "right"
      },
      {
        "midi": 70,
        "time": 22.333,
        "duration": 0.333,
        "velocity": 0.62,
        "hand": "right"
      },
      {
        "midi": 51,
        "time": 22.667,
        "duration": 0.333,
        "velocity": 0.56,
        "hand": "left"
      },
      {
        "midi": 67,
        "time": 22.667,
        "duration": 0.333,
        "velocity": 0.69,
        "hand": "right"
      },
      {
        "midi": 75,
        "time": 22.667,
        "duration": 0.333,
        "velocity": 0.69,
        "hand": "right"
      },
      {
        "midi": 51,
        "time": 23,
        "duration": 0.333,
        "velocity": 0.57,
        "hand": "left"
      },
      {
        "midi": 67,
        "time": 23,
        "duration": 0.333,
        "velocity": 0.55,
        "hand": "right"
      },
      {
        "midi": 70,
        "time": 23,
        "duration": 0.333,
        "velocity": 0.55,
        "hand": "right"
      },
      {
        "midi": 67,
        "time": 23.333,
        "duration": 0.333,
        "velocity": 0.62,
        "hand": "right"
      },
      {
        "midi": 70,
        "time": 23.333,
        "duration": 0.333,
        "velocity": 0.62,
        "hand": "right"
      },
      {
        "midi": 63,
        "time": 23.667,
        "duration": 0.333,
        "velocity": 0.52,
        "hand": "right"
      },
      {
        "midi": 67,
        "time": 23.667,
        "duration": 0.333,
        "velocity": 0.52,
        "hand": "right"
      },
      {
        "midi": 46,
        "time": 24,
        "duration": 0.333,
        "velocity": 0.51,
        "hand": "left"
      },
      {
        "midi": 65,
        "time": 24,
        "duration": 0.333,
        "velocity": 0.62,
        "hand": "right"
      },
      {
        "midi": 68,
        "time": 24,
        "duration": 0.667,
        "velocity": 0.62,
        "hand": "right"
      },
      {
        "midi": 46,
        "time": 24.333,
        "duration": 0.333,
        "velocity": 0.6,
        "hand": "left"
      },
      {
        "midi": 58,
        "time": 24.333,
        "duration": 0.333,
        "velocity": 0.6,
        "hand": "left"
      },
      {
        "midi": 63,
        "time": 24.333,
        "duration": 0.333,
        "velocity": 0.55,
        "hand": "right"
      },
      {
        "midi": 46,
        "time": 24.667,
        "duration": 0.333,
        "velocity": 0.56,
        "hand": "left"
      },
      {
        "midi": 62,
        "time": 24.667,
        "duration": 0.333,
        "velocity": 0.56,
        "hand": "right"
      },
      {
        "midi": 68,
        "time": 24.667,
        "duration": 0.667,
        "velocity": 0.58,
        "hand": "right"
      },
      {
        "midi": 46,
        "time": 25,
        "duration": 0.333,
        "velocity": 0.61,
        "hand": "left"
      },
      {
        "midi": 58,
        "time": 25,
        "duration": 0.333,
        "velocity": 0.61,
        "hand": "left"
      },
      {
        "midi": 60,
        "time": 25,
        "duration": 0.333,
        "velocity": 0.6,
        "hand": "right"
      },
      {
        "midi": 46,
        "time": 25.333,
        "duration": 1.333,
        "velocity": 0.59,
        "hand": "left"
      },
      {
        "midi": 58,
        "time": 25.333,
        "duration": 1.333,
        "velocity": 0.58,
        "hand": "left"
      },
      {
        "midi": 68,
        "time": 25.333,
        "duration": 1.333,
        "velocity": 0.58,
        "hand": "right"
      },
      {
        "midi": 46,
        "time": 26.667,
        "duration": 0.333,
        "velocity": 0.57,
        "hand": "left"
      },
      {
        "midi": 65,
        "time": 26.667,
        "duration": 1,
        "velocity": 0.61,
        "hand": "right"
      },
      {
        "midi": 68,
        "time": 26.667,
        "duration": 1,
        "velocity": 0.61,
        "hand": "right"
      },
      {
        "midi": 46,
        "time": 27,
        "duration": 0.333,
        "velocity": 0.61,
        "hand": "left"
      },
      {
        "midi": 58,
        "time": 27,
        "duration": 0.333,
        "velocity": 0.61,
        "hand": "left"
      },
      {
        "midi": 46,
        "time": 27.333,
        "duration": 0.333,
        "velocity": 0.57,
        "hand": "left"
      },
      {
        "midi": 58,
        "time": 27.333,
        "duration": 0.333,
        "velocity": 0.57,
        "hand": "left"
      },
      {
        "midi": 46,
        "time": 27.667,
        "duration": 0.333,
        "velocity": 0.58,
        "hand": "left"
      },
      {
        "midi": 65,
        "time": 27.667,
        "duration": 0.333,
        "velocity": 0.62,
        "hand": "right"
      },
      {
        "midi": 68,
        "time": 27.667,
        "duration": 0.333,
        "velocity": 0.62,
        "hand": "right"
      },
      {
        "midi": 46,
        "time": 28,
        "duration": 0.333,
        "velocity": 0.58,
        "hand": "left"
      },
      {
        "midi": 70,
        "time": 28,
        "duration": 0.333,
        "velocity": 0.65,
        "hand": "right"
      },
      {
        "midi": 74,
        "time": 28,
        "duration": 0.333,
        "velocity": 0.65,
        "hand": "right"
      },
      {
        "midi": 46,
        "time": 28.333,
        "duration": 0.333,
        "velocity": 0.63,
        "hand": "left"
      },
      {
        "midi": 68,
        "time": 28.333,
        "duration": 0.333,
        "velocity": 0.56,
        "hand": "right"
      },
      {
        "midi": 72,
        "time": 28.333,
        "duration": 0.333,
        "velocity": 0.56,
        "hand": "right"
      },
      {
        "midi": 67,
        "time": 28.667,
        "duration": 0.333,
        "velocity": 0.56,
        "hand": "right"
      },
      {
        "midi": 70,
        "time": 28.667,
        "duration": 0.333,
        "velocity": 0.56,
        "hand": "right"
      },
      {
        "midi": 65,
        "time": 29,
        "duration": 0.333,
        "velocity": 0.54,
        "hand": "right"
      },
      {
        "midi": 68,
        "time": 29,
        "duration": 0.333,
        "velocity": 0.54,
        "hand": "right"
      },
      {
        "midi": 51,
        "time": 29.333,
        "duration": 0.333,
        "velocity": 0.53,
        "hand": "left"
      },
      {
        "midi": 63,
        "time": 29.333,
        "duration": 0.667,
        "velocity": 0.54,
        "hand": "right"
      },
      {
        "midi": 67,
        "time": 29.333,
        "duration": 0.667,
        "velocity": 0.54,
        "hand": "right"
      },
      {
        "midi": 51,
        "time": 29.667,
        "duration": 0.333,
        "velocity": 0.57,
        "hand": "left"
      },
      {
        "midi": 58,
        "time": 29.667,
        "duration": 0.333,
        "velocity": 0.57,
        "hand": "left"
      },
      {
        "midi": 51,
        "time": 30,
        "duration": 0.333,
        "velocity": 0.63,
        "hand": "left"
      },
      {
        "midi": 65,
        "time": 30,
        "duration": 0.667,
        "velocity": 0.62,
        "hand": "right"
      },
      {
        "midi": 68,
        "time": 30,
        "duration": 0.667,
        "velocity": 0.62,
        "hand": "right"
      },
      {
        "midi": 51,
        "time": 30.333,
        "duration": 0.333,
        "velocity": 0.57,
        "hand": "left"
      },
      {
        "midi": 58,
        "time": 30.333,
        "duration": 0.333,
        "velocity": 0.57,
        "hand": "left"
      },
      {
        "midi": 51,
        "time": 30.667,
        "duration": 1.333,
        "velocity": 0.7,
        "hand": "left"
      },
      {
        "midi": 67,
        "time": 30.667,
        "duration": 1.333,
        "velocity": 0.63,
        "hand": "right"
      },
      {
        "midi": 70,
        "time": 30.667,
        "duration": 1.333,
        "velocity": 0.63,
        "hand": "right"
      },
      {
        "midi": 51,
        "time": 32,
        "duration": 0.333,
        "velocity": 0.59,
        "hand": "left"
      },
      {
        "midi": 67,
        "time": 32,
        "duration": 1,
        "velocity": 0.7,
        "hand": "right"
      },
      {
        "midi": 75,
        "time": 32,
        "duration": 1,
        "velocity": 0.7,
        "hand": "right"
      },
      {
        "midi": 51,
        "time": 32.333,
        "duration": 0.333,
        "velocity": 0.58,
        "hand": "left"
      },
      {
        "midi": 58,
        "time": 32.333,
        "duration": 0.333,
        "velocity": 0.58,
        "hand": "left"
      },
      {
        "midi": 51,
        "time": 32.667,
        "duration": 0.333,
        "velocity": 0.6,
        "hand": "left"
      },
      {
        "midi": 58,
        "time": 32.667,
        "duration": 0.333,
        "velocity": 0.6,
        "hand": "left"
      },
      {
        "midi": 51,
        "time": 33,
        "duration": 0.333,
        "velocity": 0.67,
        "hand": "left"
      },
      {
        "midi": 67,
        "time": 33,
        "duration": 0.333,
        "velocity": 0.63,
        "hand": "right"
      },
      {
        "midi": 75,
        "time": 33,
        "duration": 0.333,
        "velocity": 0.63,
        "hand": "right"
      },
      {
        "midi": 56,
        "time": 33.333,
        "duration": 0.333,
        "velocity": 0.63,
        "hand": "left"
      },
      {
        "midi": 70,
        "time": 33.333,
        "duration": 0.333,
        "velocity": 0.59,
        "hand": "right"
      },
      {
        "midi": 74,
        "time": 33.333,
        "duration": 0.333,
        "velocity": 0.59,
        "hand": "right"
      },
      {
        "midi": 56,
        "time": 33.667,
        "duration": 0.333,
        "velocity": 0.6,
        "hand": "left"
      },
      {
        "midi": 68,
        "time": 33.667,
        "duration": 0.333,
        "velocity": 0.56,
        "hand": "right"
      },
      {
        "midi": 72,
        "time": 33.667,
        "duration": 0.333,
        "velocity": 0.56,
        "hand": "right"
      },
      {
        "midi": 58,
        "time": 34.667,
        "duration": 0.333,
        "velocity": 0.56,
        "hand": "left"
      },
      {
        "midi": 68,
        "time": 34.667,
        "duration": 0.333,
        "velocity": 0.5,
        "hand": "right"
      },
      {
        "midi": 74,
        "time": 34.667,
        "duration": 0.333,
        "velocity": 0.5,
        "hand": "right"
      },
      {
        "midi": 58,
        "time": 35,
        "duration": 0.333,
        "velocity": 0.6,
        "hand": "left"
      },
      {
        "midi": 68,
        "time": 35,
        "duration": 0.333,
        "velocity": 0.59,
        "hand": "right"
      },
      {
        "midi": 74,
        "time": 35,
        "duration": 0.333,
        "velocity": 0.59,
        "hand": "right"
      },
      {
        "midi": 58,
        "time": 35.333,
        "duration": 0.333,
        "velocity": 0.57,
        "hand": "left"
      },
      {
        "midi": 68,
        "time": 35.333,
        "duration": 0.333,
        "velocity": 0.54,
        "hand": "right"
      },
      {
        "midi": 72,
        "time": 35.333,
        "duration": 0.333,
        "velocity": 0.54,
        "hand": "right"
      },
      {
        "midi": 58,
        "time": 35.833,
        "duration": 0.5,
        "velocity": 0.58,
        "hand": "left"
      },
      {
        "midi": 68,
        "time": 35.833,
        "duration": 0.5,
        "velocity": 0.61,
        "hand": "right"
      },
      {
        "midi": 72,
        "time": 35.833,
        "duration": 0.5,
        "velocity": 0.61,
        "hand": "right"
      },
      {
        "midi": 58,
        "time": 36.167,
        "duration": 2.833,
        "velocity": 0.59,
        "hand": "left"
      },
      {
        "midi": 68,
        "time": 36.167,
        "duration": 2.833,
        "velocity": 0.57,
        "hand": "right"
      },
      {
        "midi": 70,
        "time": 36.167,
        "duration": 2.833,
        "velocity": 0.57,
        "hand": "right"
      },
      {
        "midi": 51,
        "time": 39,
        "duration": 0.5,
        "velocity": 0.61,
        "hand": "left"
      },
      {
        "midi": 67,
        "time": 39,
        "duration": 0.5,
        "velocity": 0.69,
        "hand": "right"
      },
      {
        "midi": 75,
        "time": 39,
        "duration": 0.5,
        "velocity": 0.69,
        "hand": "right"
      },
      {
        "midi": 51,
        "time": 39.5,
        "duration": 0.5,
        "velocity": 0.59,
        "hand": "left"
      },
      {
        "midi": 67,
        "time": 39.5,
        "duration": 0.5,
        "velocity": 0.62,
        "hand": "right"
      },
      {
        "midi": 75,
        "time": 39.5,
        "duration": 0.5,
        "velocity": 0.62,
        "hand": "right"
      },
      {
        "midi": 51,
        "time": 39.833,
        "duration": 0.5,
        "velocity": 0.61,
        "hand": "left"
      },
      {
        "midi": 67,
        "time": 39.833,
        "duration": 0.5,
        "velocity": 0.57,
        "hand": "right"
      },
      {
        "midi": 74,
        "time": 39.833,
        "duration": 0.5,
        "velocity": 0.57,
        "hand": "right"
      },
      {
        "midi": 51,
        "time": 40.333,
        "duration": 0.5,
        "velocity": 0.59,
        "hand": "left"
      },
      {
        "midi": 67,
        "time": 40.333,
        "duration": 0.5,
        "velocity": 0.65,
        "hand": "right"
      },
      {
        "midi": 75,
        "time": 40.333,
        "duration": 0.5,
        "velocity": 0.65,
        "hand": "right"
      },
      {
        "midi": 56,
        "time": 40.833,
        "duration": 0.5,
        "velocity": 0.61,
        "hand": "left"
      },
      {
        "midi": 70,
        "time": 40.833,
        "duration": 0.5,
        "velocity": 0.58,
        "hand": "right"
      },
      {
        "midi": 74,
        "time": 40.833,
        "duration": 0.5,
        "velocity": 0.58,
        "hand": "right"
      },
      {
        "midi": 56,
        "time": 41.167,
        "duration": 0.5,
        "velocity": 0.61,
        "hand": "left"
      },
      {
        "midi": 68,
        "time": 41.167,
        "duration": 0.5,
        "velocity": 0.54,
        "hand": "right"
      },
      {
        "midi": 72,
        "time": 41.167,
        "duration": 0.5,
        "velocity": 0.54,
        "hand": "right"
      },
      {
        "midi": 56,
        "time": 41.667,
        "duration": 0.5,
        "velocity": 0.52,
        "hand": "left"
      },
      {
        "midi": 65,
        "time": 41.667,
        "duration": 0.5,
        "velocity": 0.55,
        "hand": "right"
      },
      {
        "midi": 70,
        "time": 41.667,
        "duration": 0.5,
        "velocity": 0.55,
        "hand": "right"
      },
      {
        "midi": 56,
        "time": 42.167,
        "duration": 0.5,
        "velocity": 0.6,
        "hand": "left"
      },
      {
        "midi": 65,
        "time": 42.167,
        "duration": 0.5,
        "velocity": 0.54,
        "hand": "right"
      },
      {
        "midi": 68,
        "time": 42.167,
        "duration": 0.5,
        "velocity": 0.54,
        "hand": "right"
      },
      {
        "midi": 58,
        "time": 42.667,
        "duration": 0.833,
        "velocity": 0.57,
        "hand": "left"
      },
      {
        "midi": 63,
        "time": 42.667,
        "duration": 0.833,
        "velocity": 0.6,
        "hand": "right"
      },
      {
        "midi": 67,
        "time": 42.667,
        "duration": 0.833,
        "velocity": 0.6,
        "hand": "right"
      },
      {
        "midi": 46,
        "time": 43.5,
        "duration": 0.833,
        "velocity": 0.6,
        "hand": "left"
      },
      {
        "midi": 62,
        "time": 43.5,
        "duration": 0.833,
        "velocity": 0.54,
        "hand": "right"
      },
      {
        "midi": 65,
        "time": 43.5,
        "duration": 0.833,
        "velocity": 0.54,
        "hand": "right"
      },
      {
        "midi": 51,
        "time": 44.333,
        "duration": 1.833,
        "velocity": 0.61,
        "hand": "left"
      },
      {
        "midi": 55,
        "time": 44.333,
        "duration": 1.833,
        "velocity": 0.61,
        "hand": "left"
      },
      {
        "midi": 63,
        "time": 44.333,
        "duration": 1.833,
        "velocity": 0.57,
        "hand": "right"
      }
    ],
    "hard": [
      {
        "midi": 51,
        "time": 0,
        "duration": 0.333,
        "velocity": 0.5,
        "hand": "left"
      },
      {
        "midi": 58,
        "time": 0,
        "duration": 0.333,
        "velocity": 0.5,
        "hand": "left"
      },
      {
        "midi": 63,
        "time": 0,
        "duration": 0.333,
        "velocity": 0.54,
        "hand": "right"
      },
      {
        "midi": 67,
        "time": 0,
        "duration": 0.333,
        "velocity": 0.54,
        "hand": "right"
      },
      {
        "midi": 51,
        "time": 0.333,
        "duration": 0.333,
        "velocity": 0.6,
        "hand": "left"
      },
      {
        "midi": 58,
        "time": 0.333,
        "duration": 0.333,
        "velocity": 0.6,
        "hand": "left"
      },
      {
        "midi": 63,
        "time": 0.333,
        "duration": 0.333,
        "velocity": 0.61,
        "hand": "right"
      },
      {
        "midi": 67,
        "time": 0.333,
        "duration": 0.333,
        "velocity": 0.61,
        "hand": "right"
      },
      {
        "midi": 51,
        "time": 0.667,
        "duration": 0.333,
        "velocity": 0.57,
        "hand": "left"
      },
      {
        "midi": 58,
        "time": 0.667,
        "duration": 0.333,
        "velocity": 0.57,
        "hand": "left"
      },
      {
        "midi": 63,
        "time": 0.667,
        "duration": 0.333,
        "velocity": 0.59,
        "hand": "right"
      },
      {
        "midi": 67,
        "time": 0.667,
        "duration": 0.333,
        "velocity": 0.59,
        "hand": "right"
      },
      {
        "midi": 51,
        "time": 1,
        "duration": 0.333,
        "velocity": 0.61,
        "hand": "left"
      },
      {
        "midi": 58,
        "time": 1,
        "duration": 0.333,
        "velocity": 0.61,
        "hand": "left"
      },
      {
        "midi": 65,
        "time": 1,
        "duration": 0.333,
        "velocity": 0.63,
        "hand": "right"
      },
      {
        "midi": 68,
        "time": 1,
        "duration": 0.333,
        "velocity": 0.63,
        "hand": "right"
      },
      {
        "midi": 51,
        "time": 1.333,
        "duration": 0.333,
        "velocity": 0.67,
        "hand": "left"
      },
      {
        "midi": 63,
        "time": 1.333,
        "duration": 0.333,
        "velocity": 0.67,
        "hand": "right"
      },
      {
        "midi": 67,
        "time": 1.333,
        "duration": 0.333,
        "velocity": 0.62,
        "hand": "right"
      },
      {
        "midi": 70,
        "time": 1.333,
        "duration": 0.333,
        "velocity": 0.62,
        "hand": "right"
      },
      {
        "midi": 51,
        "time": 1.667,
        "duration": 0.333,
        "velocity": 0.57,
        "hand": "left"
      },
      {
        "midi": 58,
        "time": 1.667,
        "duration": 0.333,
        "velocity": 0.57,
        "hand": "left"
      },
      {
        "midi": 67,
        "time": 1.667,
        "duration": 0.333,
        "velocity": 0.61,
        "hand": "right"
      },
      {
        "midi": 70,
        "time": 1.667,
        "duration": 0.333,
        "velocity": 0.61,
        "hand": "right"
      },
      {
        "midi": 67,
        "time": 2,
        "duration": 0.333,
        "velocity": 0.58,
        "hand": "right"
      },
      {
        "midi": 70,
        "time": 2,
        "duration": 0.333,
        "velocity": 0.58,
        "hand": "right"
      },
      {
        "midi": 63,
        "time": 2.333,
        "duration": 0.333,
        "velocity": 0.52,
        "hand": "right"
      },
      {
        "midi": 67,
        "time": 2.333,
        "duration": 0.333,
        "velocity": 0.52,
        "hand": "right"
      },
      {
        "midi": 46,
        "time": 2.667,
        "duration": 0.333,
        "velocity": 0.56,
        "hand": "left"
      },
      {
        "midi": 58,
        "time": 2.667,
        "duration": 0.333,
        "velocity": 0.56,
        "hand": "left"
      },
      {
        "midi": 65,
        "time": 2.667,
        "duration": 0.667,
        "velocity": 0.63,
        "hand": "right"
      },
      {
        "midi": 68,
        "time": 2.667,
        "duration": 0.667,
        "velocity": 0.63,
        "hand": "right"
      },
      {
        "midi": 46,
        "time": 3,
        "duration": 0.333,
        "velocity": 0.64,
        "hand": "left"
      },
      {
        "midi": 58,
        "time": 3,
        "duration": 0.333,
        "velocity": 0.64,
        "hand": "left"
      },
      {
        "midi": 46,
        "time": 3.333,
        "duration": 0.333,
        "velocity": 0.61,
        "hand": "left"
      },
      {
        "midi": 58,
        "time": 3.333,
        "duration": 0.333,
        "velocity": 0.61,
        "hand": "left"
      },
      {
        "midi": 64,
        "time": 3.333,
        "duration": 0.667,
        "velocity": 0.56,
        "hand": "right"
      },
      {
        "midi": 67,
        "time": 3.333,
        "duration": 0.667,
        "velocity": 0.56,
        "hand": "right"
      },
      {
        "midi": 46,
        "time": 3.667,
        "duration": 0.333,
        "velocity": 0.57,
        "hand": "left"
      },
      {
        "midi": 58,
        "time": 3.667,
        "duration": 0.333,
        "velocity": 0.57,
        "hand": "left"
      },
      {
        "midi": 46,
        "time": 4,
        "duration": 1.333,
        "velocity": 0.61,
        "hand": "left"
      },
      {
        "midi": 58,
        "time": 4,
        "duration": 1.333,
        "velocity": 0.61,
        "hand": "left"
      },
      {
        "midi": 65,
        "time": 4,
        "duration": 1.333,
        "velocity": 0.62,
        "hand": "right"
      },
      {
        "midi": 68,
        "time": 4,
        "duration": 1.333,
        "velocity": 0.62,
        "hand": "right"
      },
      {
        "midi": 46,
        "time": 5.333,
        "duration": 0.333,
        "velocity": 0.57,
        "hand": "left"
      },
      {
        "midi": 58,
        "time": 5.333,
        "duration": 0.333,
        "velocity": 0.57,
        "hand": "left"
      },
      {
        "midi": 62,
        "time": 5.333,
        "duration": 0.333,
        "velocity": 0.5,
        "hand": "right"
      },
      {
        "midi": 65,
        "time": 5.333,
        "duration": 0.333,
        "velocity": 0.5,
        "hand": "right"
      },
      {
        "midi": 46,
        "time": 5.667,
        "duration": 0.333,
        "velocity": 0.62,
        "hand": "left"
      },
      {
        "midi": 58,
        "time": 5.667,
        "duration": 0.333,
        "velocity": 0.62,
        "hand": "left"
      },
      {
        "midi": 63,
        "time": 5.667,
        "duration": 0.333,
        "velocity": 0.59,
        "hand": "right"
      },
      {
        "midi": 67,
        "time": 5.667,
        "duration": 0.333,
        "velocity": 0.59,
        "hand": "right"
      },
      {
        "midi": 46,
        "time": 6,
        "duration": 0.333,
        "velocity": 0.63,
        "hand": "left"
      },
      {
        "midi": 58,
        "time": 6,
        "duration": 0.333,
        "velocity": 0.63,
        "hand": "left"
      },
      {
        "midi": 65,
        "time": 6,
        "duration": 0.333,
        "velocity": 0.64,
        "hand": "right"
      },
      {
        "midi": 68,
        "time": 6,
        "duration": 0.333,
        "velocity": 0.64,
        "hand": "right"
      },
      {
        "midi": 46,
        "time": 6.333,
        "duration": 0.333,
        "velocity": 0.6,
        "hand": "left"
      },
      {
        "midi": 58,
        "time": 6.333,
        "duration": 0.333,
        "velocity": 0.6,
        "hand": "left"
      },
      {
        "midi": 67,
        "time": 6.333,
        "duration": 0.333,
        "velocity": 0.64,
        "hand": "right"
      },
      {
        "midi": 70,
        "time": 6.333,
        "duration": 0.333,
        "velocity": 0.64,
        "hand": "right"
      },
      {
        "midi": 46,
        "time": 6.667,
        "duration": 0.333,
        "velocity": 0.55,
        "hand": "left"
      },
      {
        "midi": 58,
        "time": 6.667,
        "duration": 0.333,
        "velocity": 0.55,
        "hand": "left"
      },
      {
        "midi": 70,
        "time": 6.667,
        "duration": 0.333,
        "velocity": 0.7,
        "hand": "right"
      },
      {
        "midi": 74,
        "time": 6.667,
        "duration": 0.333,
        "velocity": 0.7,
        "hand": "right"
      },
      {
        "midi": 46,
        "time": 7,
        "duration": 0.333,
        "velocity": 0.6,
        "hand": "left"
      },
      {
        "midi": 58,
        "time": 7,
        "duration": 0.333,
        "velocity": 0.6,
        "hand": "left"
      },
      {
        "midi": 68,
        "time": 7,
        "duration": 0.333,
        "velocity": 0.54,
        "hand": "right"
      },
      {
        "midi": 72,
        "time": 7,
        "duration": 0.333,
        "velocity": 0.54,
        "hand": "right"
      },
      {
        "midi": 67,
        "time": 7.333,
        "duration": 0.333,
        "velocity": 0.53,
        "hand": "right"
      },
      {
        "midi": 70,
        "time": 7.333,
        "duration": 0.333,
        "velocity": 0.53,
        "hand": "right"
      },
      {
        "midi": 65,
        "time": 7.667,
        "duration": 0.333,
        "velocity": 0.55,
        "hand": "right"
      },
      {
        "midi": 68,
        "time": 7.667,
        "duration": 0.333,
        "velocity": 0.55,
        "hand": "right"
      },
      {
        "midi": 51,
        "time": 8,
        "duration": 0.333,
        "velocity": 0.54,
        "hand": "left"
      },
      {
        "midi": 58,
        "time": 8,
        "duration": 0.333,
        "velocity": 0.54,
        "hand": "left"
      },
      {
        "midi": 63,
        "time": 8,
        "duration": 0.667,
        "velocity": 0.55,
        "hand": "right"
      },
      {
        "midi": 67,
        "time": 8,
        "duration": 0.667,
        "velocity": 0.55,
        "hand": "right"
      },
      {
        "midi": 51,
        "time": 8.333,
        "duration": 0.333,
        "velocity": 0.54,
        "hand": "left"
      },
      {
        "midi": 58,
        "time": 8.333,
        "duration": 0.333,
        "velocity": 0.54,
        "hand": "left"
      },
      {
        "midi": 51,
        "time": 8.667,
        "duration": 0.333,
        "velocity": 0.69,
        "hand": "left"
      },
      {
        "midi": 63,
        "time": 8.667,
        "duration": 0.333,
        "velocity": 0.69,
        "hand": "right"
      },
      {
        "midi": 65,
        "time": 8.667,
        "duration": 0.667,
        "velocity": 0.63,
        "hand": "right"
      },
      {
        "midi": 68,
        "time": 8.667,
        "duration": 0.667,
        "velocity": 0.63,
        "hand": "right"
      },
      {
        "midi": 51,
        "time": 9,
        "duration": 0.333,
        "velocity": 0.61,
        "hand": "left"
      },
      {
        "midi": 63,
        "time": 9,
        "duration": 0.333,
        "velocity": 0.61,
        "hand": "right"
      },
      {
        "midi": 51,
        "time": 9.333,
        "duration": 1.333,
        "velocity": 0.62,
        "hand": "left"
      },
      {
        "midi": 63,
        "time": 9.333,
        "duration": 1.333,
        "velocity": 0.62,
        "hand": "right"
      },
      {
        "midi": 67,
        "time": 9.333,
        "duration": 1.333,
        "velocity": 0.63,
        "hand": "right"
      },
      {
        "midi": 70,
        "time": 9.333,
        "duration": 1.333,
        "velocity": 0.63,
        "hand": "right"
      },
      {
        "midi": 51,
        "time": 10.667,
        "duration": 0.333,
        "velocity": 0.53,
        "hand": "left"
      },
      {
        "midi": 58,
        "time": 10.667,
        "duration": 0.333,
        "velocity": 0.53,
        "hand": "left"
      },
      {
        "midi": 63,
        "time": 10.667,
        "duration": 0.333,
        "velocity": 0.56,
        "hand": "right"
      },
      {
        "midi": 67,
        "time": 10.667,
        "duration": 0.333,
        "velocity": 0.56,
        "hand": "right"
      },
      {
        "midi": 51,
        "time": 11,
        "duration": 0.333,
        "velocity": 0.57,
        "hand": "left"
      },
      {
        "midi": 58,
        "time": 11,
        "duration": 0.333,
        "velocity": 0.57,
        "hand": "left"
      },
      {
        "midi": 63,
        "time": 11,
        "duration": 0.333,
        "velocity": 0.58,
        "hand": "right"
      },
      {
        "midi": 67,
        "time": 11,
        "duration": 0.333,
        "velocity": 0.58,
        "hand": "right"
      },
      {
        "midi": 51,
        "time": 11.333,
        "duration": 0.333,
        "velocity": 0.58,
        "hand": "left"
      },
      {
        "midi": 58,
        "time": 11.333,
        "duration": 0.333,
        "velocity": 0.58,
        "hand": "left"
      },
      {
        "midi": 63,
        "time": 11.333,
        "duration": 0.333,
        "velocity": 0.57,
        "hand": "right"
      },
      {
        "midi": 67,
        "time": 11.333,
        "duration": 0.333,
        "velocity": 0.57,
        "hand": "right"
      },
      {
        "midi": 51,
        "time": 11.667,
        "duration": 0.333,
        "velocity": 0.58,
        "hand": "left"
      },
      {
        "midi": 58,
        "time": 11.667,
        "duration": 0.333,
        "velocity": 0.58,
        "hand": "left"
      },
      {
        "midi": 65,
        "time": 11.667,
        "duration": 0.333,
        "velocity": 0.63,
        "hand": "right"
      },
      {
        "midi": 68,
        "time": 11.667,
        "duration": 0.333,
        "velocity": 0.63,
        "hand": "right"
      },
      {
        "midi": 51,
        "time": 12,
        "duration": 0.333,
        "velocity": 0.72,
        "hand": "left"
      },
      {
        "midi": 63,
        "time": 12,
        "duration": 0.333,
        "velocity": 0.72,
        "hand": "right"
      },
      {
        "midi": 67,
        "time": 12,
        "duration": 0.333,
        "velocity": 0.61,
        "hand": "right"
      },
      {
        "midi": 70,
        "time": 12,
        "duration": 0.333,
        "velocity": 0.61,
        "hand": "right"
      },
      {
        "midi": 51,
        "time": 12.333,
        "duration": 0.333,
        "velocity": 0.56,
        "hand": "left"
      },
      {
        "midi": 58,
        "time": 12.333,
        "duration": 0.333,
        "velocity": 0.56,
        "hand": "left"
      },
      {
        "midi": 67,
        "time": 12.333,
        "duration": 0.333,
        "velocity": 0.6,
        "hand": "right"
      },
      {
        "midi": 70,
        "time": 12.333,
        "duration": 0.333,
        "velocity": 0.6,
        "hand": "right"
      },
      {
        "midi": 67,
        "time": 12.667,
        "duration": 0.333,
        "velocity": 0.6,
        "hand": "right"
      },
      {
        "midi": 70,
        "time": 12.667,
        "duration": 0.333,
        "velocity": 0.6,
        "hand": "right"
      },
      {
        "midi": 63,
        "time": 13,
        "duration": 0.333,
        "velocity": 0.5,
        "hand": "right"
      },
      {
        "midi": 67,
        "time": 13,
        "duration": 0.333,
        "velocity": 0.5,
        "hand": "right"
      },
      {
        "midi": 46,
        "time": 13.333,
        "duration": 0.333,
        "velocity": 0.53,
        "hand": "left"
      },
      {
        "midi": 58,
        "time": 13.333,
        "duration": 0.333,
        "velocity": 0.53,
        "hand": "left"
      },
      {
        "midi": 65,
        "time": 13.333,
        "duration": 0.667,
        "velocity": 0.63,
        "hand": "right"
      },
      {
        "midi": 68,
        "time": 13.333,
        "duration": 0.667,
        "velocity": 0.63,
        "hand": "right"
      },
      {
        "midi": 46,
        "time": 13.667,
        "duration": 0.333,
        "velocity": 0.59,
        "hand": "left"
      },
      {
        "midi": 58,
        "time": 13.667,
        "duration": 0.333,
        "velocity": 0.59,
        "hand": "left"
      },
      {
        "midi": 46,
        "time": 14,
        "duration": 0.333,
        "velocity": 0.58,
        "hand": "left"
      },
      {
        "midi": 58,
        "time": 14,
        "duration": 0.333,
        "velocity": 0.58,
        "hand": "left"
      },
      {
        "midi": 64,
        "time": 14,
        "duration": 0.667,
        "velocity": 0.56,
        "hand": "right"
      },
      {
        "midi": 67,
        "time": 14,
        "duration": 0.667,
        "velocity": 0.56,
        "hand": "right"
      },
      {
        "midi": 46,
        "time": 14.333,
        "duration": 0.333,
        "velocity": 0.63,
        "hand": "left"
      },
      {
        "midi": 58,
        "time": 14.333,
        "duration": 0.333,
        "velocity": 0.63,
        "hand": "left"
      },
      {
        "midi": 46,
        "time": 14.667,
        "duration": 1.333,
        "velocity": 0.6,
        "hand": "left"
      },
      {
        "midi": 58,
        "time": 14.667,
        "duration": 1.333,
        "velocity": 0.6,
        "hand": "left"
      },
      {
        "midi": 65,
        "time": 14.667,
        "duration": 1.333,
        "velocity": 0.57,
        "hand": "right"
      },
      {
        "midi": 68,
        "time": 14.667,
        "duration": 1.333,
        "velocity": 0.57,
        "hand": "right"
      },
      {
        "midi": 46,
        "time": 16,
        "duration": 0.333,
        "velocity": 0.57,
        "hand": "left"
      },
      {
        "midi": 58,
        "time": 16,
        "duration": 0.333,
        "velocity": 0.57,
        "hand": "left"
      },
      {
        "midi": 62,
        "time": 16,
        "duration": 0.333,
        "velocity": 0.56,
        "hand": "right"
      },
      {
        "midi": 65,
        "time": 16,
        "duration": 0.333,
        "velocity": 0.56,
        "hand": "right"
      },
      {
        "midi": 46,
        "time": 16.333,
        "duration": 0.333,
        "velocity": 0.62,
        "hand": "left"
      },
      {
        "midi": 58,
        "time": 16.333,
        "duration": 0.333,
        "velocity": 0.62,
        "hand": "left"
      },
      {
        "midi": 63,
        "time": 16.333,
        "duration": 0.333,
        "velocity": 0.63,
        "hand": "right"
      },
      {
        "midi": 67,
        "time": 16.333,
        "duration": 0.333,
        "velocity": 0.63,
        "hand": "right"
      },
      {
        "midi": 46,
        "time": 16.667,
        "duration": 0.333,
        "velocity": 0.58,
        "hand": "left"
      },
      {
        "midi": 58,
        "time": 16.667,
        "duration": 0.333,
        "velocity": 0.58,
        "hand": "left"
      },
      {
        "midi": 65,
        "time": 16.667,
        "duration": 0.333,
        "velocity": 0.64,
        "hand": "right"
      },
      {
        "midi": 68,
        "time": 16.667,
        "duration": 0.333,
        "velocity": 0.64,
        "hand": "right"
      },
      {
        "midi": 46,
        "time": 17,
        "duration": 0.333,
        "velocity": 0.61,
        "hand": "left"
      },
      {
        "midi": 58,
        "time": 17,
        "duration": 0.333,
        "velocity": 0.61,
        "hand": "left"
      },
      {
        "midi": 67,
        "time": 17,
        "duration": 0.333,
        "velocity": 0.62,
        "hand": "right"
      },
      {
        "midi": 70,
        "time": 17,
        "duration": 0.333,
        "velocity": 0.62,
        "hand": "right"
      },
      {
        "midi": 46,
        "time": 17.333,
        "duration": 0.333,
        "velocity": 0.59,
        "hand": "left"
      },
      {
        "midi": 58,
        "time": 17.333,
        "duration": 0.333,
        "velocity": 0.59,
        "hand": "left"
      },
      {
        "midi": 70,
        "time": 17.333,
        "duration": 0.333,
        "velocity": 0.65,
        "hand": "right"
      },
      {
        "midi": 74,
        "time": 17.333,
        "duration": 0.333,
        "velocity": 0.65,
        "hand": "right"
      },
      {
        "midi": 46,
        "time": 17.667,
        "duration": 0.333,
        "velocity": 0.61,
        "hand": "left"
      },
      {
        "midi": 58,
        "time": 17.667,
        "duration": 0.333,
        "velocity": 0.61,
        "hand": "left"
      },
      {
        "midi": 68,
        "time": 17.667,
        "duration": 0.333,
        "velocity": 0.56,
        "hand": "right"
      },
      {
        "midi": 72,
        "time": 17.667,
        "duration": 0.333,
        "velocity": 0.56,
        "hand": "right"
      },
      {
        "midi": 67,
        "time": 18,
        "duration": 0.333,
        "velocity": 0.58,
        "hand": "right"
      },
      {
        "midi": 70,
        "time": 18,
        "duration": 0.333,
        "velocity": 0.58,
        "hand": "right"
      },
      {
        "midi": 65,
        "time": 18.333,
        "duration": 0.333,
        "velocity": 0.54,
        "hand": "right"
      },
      {
        "midi": 68,
        "time": 18.333,
        "duration": 0.333,
        "velocity": 0.54,
        "hand": "right"
      },
      {
        "midi": 46,
        "time": 18.667,
        "duration": 0.333,
        "velocity": 0.55,
        "hand": "left"
      },
      {
        "midi": 58,
        "time": 18.667,
        "duration": 0.333,
        "velocity": 0.55,
        "hand": "left"
      },
      {
        "midi": 63,
        "time": 18.667,
        "duration": 0.667,
        "velocity": 0.56,
        "hand": "right"
      },
      {
        "midi": 67,
        "time": 18.667,
        "duration": 0.667,
        "velocity": 0.56,
        "hand": "right"
      },
      {
        "midi": 46,
        "time": 19,
        "duration": 0.333,
        "velocity": 0.59,
        "hand": "left"
      },
      {
        "midi": 58,
        "time": 19,
        "duration": 0.333,
        "velocity": 0.59,
        "hand": "left"
      },
      {
        "midi": 46,
        "time": 19.333,
        "duration": 0.333,
        "velocity": 0.59,
        "hand": "left"
      },
      {
        "midi": 56,
        "time": 19.333,
        "duration": 0.333,
        "velocity": 0.59,
        "hand": "left"
      },
      {
        "midi": 62,
        "time": 19.333,
        "duration": 0.667,
        "velocity": 0.56,
        "hand": "right"
      },
      {
        "midi": 65,
        "time": 19.333,
        "duration": 0.667,
        "velocity": 0.56,
        "hand": "right"
      },
      {
        "midi": 46,
        "time": 19.667,
        "duration": 0.333,
        "velocity": 0.57,
        "hand": "left"
      },
      {
        "midi": 56,
        "time": 19.667,
        "duration": 0.333,
        "velocity": 0.57,
        "hand": "left"
      },
      {
        "midi": 51,
        "time": 20,
        "duration": 1.333,
        "velocity": 0.58,
        "hand": "left"
      },
      {
        "midi": 55,
        "time": 20,
        "duration": 1.333,
        "velocity": 0.58,
        "hand": "left"
      },
      {
        "midi": 63,
        "time": 20,
        "duration": 1.333,
        "velocity": 0.59,
        "hand": "right"
      },
      {
        "midi": 51,
        "time": 21.333,
        "duration": 0.333,
        "velocity": 0.72,
        "hand": "left"
      },
      {
        "midi": 63,
        "time": 21.333,
        "duration": 0.333,
        "velocity": 0.72,
        "hand": "right"
      },
      {
        "midi": 67,
        "time": 21.333,
        "duration": 1,
        "velocity": 0.71,
        "hand": "right"
      },
      {
        "midi": 70,
        "time": 21.333,
        "duration": 1,
        "velocity": 0.71,
        "hand": "right"
      },
      {
        "midi": 51,
        "time": 21.667,
        "duration": 0.333,
        "velocity": 0.61,
        "hand": "left"
      },
      {
        "midi": 63,
        "time": 21.667,
        "duration": 0.333,
        "velocity": 0.61,
        "hand": "right"
      },
      {
        "midi": 51,
        "time": 22,
        "duration": 0.333,
        "velocity": 0.6,
        "hand": "left"
      },
      {
        "midi": 63,
        "time": 22,
        "duration": 0.333,
        "velocity": 0.6,
        "hand": "right"
      },
      {
        "midi": 51,
        "time": 22.333,
        "duration": 0.333,
        "velocity": 0.57,
        "hand": "left"
      },
      {
        "midi": 63,
        "time": 22.333,
        "duration": 0.333,
        "velocity": 0.57,
        "hand": "right"
      },
      {
        "midi": 67,
        "time": 22.333,
        "duration": 0.333,
        "velocity": 0.62,
        "hand": "right"
      },
      {
        "midi": 70,
        "time": 22.333,
        "duration": 0.333,
        "velocity": 0.62,
        "hand": "right"
      },
      {
        "midi": 51,
        "time": 22.667,
        "duration": 0.333,
        "velocity": 0.56,
        "hand": "left"
      },
      {
        "midi": 58,
        "time": 22.667,
        "duration": 0.333,
        "velocity": 0.56,
        "hand": "left"
      },
      {
        "midi": 67,
        "time": 22.667,
        "duration": 0.333,
        "velocity": 0.69,
        "hand": "right"
      },
      {
        "midi": 75,
        "time": 22.667,
        "duration": 0.333,
        "velocity": 0.69,
        "hand": "right"
      },
      {
        "midi": 51,
        "time": 23,
        "duration": 0.333,
        "velocity": 0.57,
        "hand": "left"
      },
      {
        "midi": 58,
        "time": 23,
        "duration": 0.333,
        "velocity": 0.57,
        "hand": "left"
      },
      {
        "midi": 67,
        "time": 23,
        "duration": 0.333,
        "velocity": 0.55,
        "hand": "right"
      },
      {
        "midi": 70,
        "time": 23,
        "duration": 0.333,
        "velocity": 0.55,
        "hand": "right"
      },
      {
        "midi": 67,
        "time": 23.333,
        "duration": 0.333,
        "velocity": 0.62,
        "hand": "right"
      },
      {
        "midi": 70,
        "time": 23.333,
        "duration": 0.333,
        "velocity": 0.62,
        "hand": "right"
      },
      {
        "midi": 63,
        "time": 23.667,
        "duration": 0.333,
        "velocity": 0.52,
        "hand": "right"
      },
      {
        "midi": 67,
        "time": 23.667,
        "duration": 0.333,
        "velocity": 0.52,
        "hand": "right"
      },
      {
        "midi": 46,
        "time": 24,
        "duration": 0.333,
        "velocity": 0.51,
        "hand": "left"
      },
      {
        "midi": 58,
        "time": 24,
        "duration": 0.333,
        "velocity": 0.51,
        "hand": "left"
      },
      {
        "midi": 65,
        "time": 24,
        "duration": 0.333,
        "velocity": 0.62,
        "hand": "right"
      },
      {
        "midi": 68,
        "time": 24,
        "duration": 0.667,
        "velocity": 0.62,
        "hand": "right"
      },
      {
        "midi": 46,
        "time": 24.333,
        "duration": 0.333,
        "velocity": 0.6,
        "hand": "left"
      },
      {
        "midi": 58,
        "time": 24.333,
        "duration": 0.333,
        "velocity": 0.6,
        "hand": "left"
      },
      {
        "midi": 63,
        "time": 24.333,
        "duration": 0.333,
        "velocity": 0.55,
        "hand": "right"
      },
      {
        "midi": 46,
        "time": 24.667,
        "duration": 0.333,
        "velocity": 0.56,
        "hand": "left"
      },
      {
        "midi": 58,
        "time": 24.667,
        "duration": 0.333,
        "velocity": 0.56,
        "hand": "left"
      },
      {
        "midi": 62,
        "time": 24.667,
        "duration": 0.333,
        "velocity": 0.56,
        "hand": "right"
      },
      {
        "midi": 68,
        "time": 24.667,
        "duration": 0.667,
        "velocity": 0.58,
        "hand": "right"
      },
      {
        "midi": 46,
        "time": 25,
        "duration": 0.333,
        "velocity": 0.61,
        "hand": "left"
      },
      {
        "midi": 58,
        "time": 25,
        "duration": 0.333,
        "velocity": 0.61,
        "hand": "left"
      },
      {
        "midi": 60,
        "time": 25,
        "duration": 0.333,
        "velocity": 0.6,
        "hand": "right"
      },
      {
        "midi": 46,
        "time": 25.333,
        "duration": 1.333,
        "velocity": 0.59,
        "hand": "left"
      },
      {
        "midi": 58,
        "time": 25.333,
        "duration": 1.333,
        "velocity": 0.58,
        "hand": "left"
      },
      {
        "midi": 68,
        "time": 25.333,
        "duration": 1.333,
        "velocity": 0.58,
        "hand": "right"
      },
      {
        "midi": 46,
        "time": 26.667,
        "duration": 0.333,
        "velocity": 0.57,
        "hand": "left"
      },
      {
        "midi": 58,
        "time": 26.667,
        "duration": 0.333,
        "velocity": 0.57,
        "hand": "left"
      },
      {
        "midi": 65,
        "time": 26.667,
        "duration": 1,
        "velocity": 0.61,
        "hand": "right"
      },
      {
        "midi": 68,
        "time": 26.667,
        "duration": 1,
        "velocity": 0.61,
        "hand": "right"
      },
      {
        "midi": 46,
        "time": 27,
        "duration": 0.333,
        "velocity": 0.61,
        "hand": "left"
      },
      {
        "midi": 58,
        "time": 27,
        "duration": 0.333,
        "velocity": 0.61,
        "hand": "left"
      },
      {
        "midi": 46,
        "time": 27.333,
        "duration": 0.333,
        "velocity": 0.57,
        "hand": "left"
      },
      {
        "midi": 58,
        "time": 27.333,
        "duration": 0.333,
        "velocity": 0.57,
        "hand": "left"
      },
      {
        "midi": 46,
        "time": 27.667,
        "duration": 0.333,
        "velocity": 0.58,
        "hand": "left"
      },
      {
        "midi": 58,
        "time": 27.667,
        "duration": 0.333,
        "velocity": 0.58,
        "hand": "left"
      },
      {
        "midi": 65,
        "time": 27.667,
        "duration": 0.333,
        "velocity": 0.62,
        "hand": "right"
      },
      {
        "midi": 68,
        "time": 27.667,
        "duration": 0.333,
        "velocity": 0.62,
        "hand": "right"
      },
      {
        "midi": 46,
        "time": 28,
        "duration": 0.333,
        "velocity": 0.58,
        "hand": "left"
      },
      {
        "midi": 58,
        "time": 28,
        "duration": 0.333,
        "velocity": 0.58,
        "hand": "left"
      },
      {
        "midi": 70,
        "time": 28,
        "duration": 0.333,
        "velocity": 0.65,
        "hand": "right"
      },
      {
        "midi": 74,
        "time": 28,
        "duration": 0.333,
        "velocity": 0.65,
        "hand": "right"
      },
      {
        "midi": 46,
        "time": 28.333,
        "duration": 0.333,
        "velocity": 0.63,
        "hand": "left"
      },
      {
        "midi": 58,
        "time": 28.333,
        "duration": 0.333,
        "velocity": 0.63,
        "hand": "left"
      },
      {
        "midi": 68,
        "time": 28.333,
        "duration": 0.333,
        "velocity": 0.56,
        "hand": "right"
      },
      {
        "midi": 72,
        "time": 28.333,
        "duration": 0.333,
        "velocity": 0.56,
        "hand": "right"
      },
      {
        "midi": 67,
        "time": 28.667,
        "duration": 0.333,
        "velocity": 0.56,
        "hand": "right"
      },
      {
        "midi": 70,
        "time": 28.667,
        "duration": 0.333,
        "velocity": 0.56,
        "hand": "right"
      },
      {
        "midi": 65,
        "time": 29,
        "duration": 0.333,
        "velocity": 0.54,
        "hand": "right"
      },
      {
        "midi": 68,
        "time": 29,
        "duration": 0.333,
        "velocity": 0.54,
        "hand": "right"
      },
      {
        "midi": 51,
        "time": 29.333,
        "duration": 0.333,
        "velocity": 0.53,
        "hand": "left"
      },
      {
        "midi": 58,
        "time": 29.333,
        "duration": 0.333,
        "velocity": 0.53,
        "hand": "left"
      },
      {
        "midi": 63,
        "time": 29.333,
        "duration": 0.667,
        "velocity": 0.54,
        "hand": "right"
      },
      {
        "midi": 67,
        "time": 29.333,
        "duration": 0.667,
        "velocity": 0.54,
        "hand": "right"
      },
      {
        "midi": 51,
        "time": 29.667,
        "duration": 0.333,
        "velocity": 0.57,
        "hand": "left"
      },
      {
        "midi": 58,
        "time": 29.667,
        "duration": 0.333,
        "velocity": 0.57,
        "hand": "left"
      },
      {
        "midi": 51,
        "time": 30,
        "duration": 0.333,
        "velocity": 0.63,
        "hand": "left"
      },
      {
        "midi": 58,
        "time": 30,
        "duration": 0.333,
        "velocity": 0.63,
        "hand": "left"
      },
      {
        "midi": 65,
        "time": 30,
        "duration": 0.667,
        "velocity": 0.62,
        "hand": "right"
      },
      {
        "midi": 68,
        "time": 30,
        "duration": 0.667,
        "velocity": 0.62,
        "hand": "right"
      },
      {
        "midi": 51,
        "time": 30.333,
        "duration": 0.333,
        "velocity": 0.57,
        "hand": "left"
      },
      {
        "midi": 58,
        "time": 30.333,
        "duration": 0.333,
        "velocity": 0.57,
        "hand": "left"
      },
      {
        "midi": 51,
        "time": 30.667,
        "duration": 1.333,
        "velocity": 0.7,
        "hand": "left"
      },
      {
        "midi": 63,
        "time": 30.667,
        "duration": 1.333,
        "velocity": 0.7,
        "hand": "right"
      },
      {
        "midi": 67,
        "time": 30.667,
        "duration": 1.333,
        "velocity": 0.63,
        "hand": "right"
      },
      {
        "midi": 70,
        "time": 30.667,
        "duration": 1.333,
        "velocity": 0.63,
        "hand": "right"
      },
      {
        "midi": 51,
        "time": 32,
        "duration": 0.333,
        "velocity": 0.59,
        "hand": "left"
      },
      {
        "midi": 58,
        "time": 32,
        "duration": 0.333,
        "velocity": 0.59,
        "hand": "left"
      },
      {
        "midi": 67,
        "time": 32,
        "duration": 1,
        "velocity": 0.7,
        "hand": "right"
      },
      {
        "midi": 75,
        "time": 32,
        "duration": 1,
        "velocity": 0.7,
        "hand": "right"
      },
      {
        "midi": 51,
        "time": 32.333,
        "duration": 0.333,
        "velocity": 0.58,
        "hand": "left"
      },
      {
        "midi": 58,
        "time": 32.333,
        "duration": 0.333,
        "velocity": 0.58,
        "hand": "left"
      },
      {
        "midi": 51,
        "time": 32.667,
        "duration": 0.333,
        "velocity": 0.6,
        "hand": "left"
      },
      {
        "midi": 58,
        "time": 32.667,
        "duration": 0.333,
        "velocity": 0.6,
        "hand": "left"
      },
      {
        "midi": 51,
        "time": 33,
        "duration": 0.333,
        "velocity": 0.67,
        "hand": "left"
      },
      {
        "midi": 63,
        "time": 33,
        "duration": 0.333,
        "velocity": 0.67,
        "hand": "right"
      },
      {
        "midi": 67,
        "time": 33,
        "duration": 0.333,
        "velocity": 0.63,
        "hand": "right"
      },
      {
        "midi": 75,
        "time": 33,
        "duration": 0.333,
        "velocity": 0.63,
        "hand": "right"
      },
      {
        "midi": 56,
        "time": 33.333,
        "duration": 0.333,
        "velocity": 0.63,
        "hand": "left"
      },
      {
        "midi": 63,
        "time": 33.333,
        "duration": 0.333,
        "velocity": 0.63,
        "hand": "right"
      },
      {
        "midi": 70,
        "time": 33.333,
        "duration": 0.333,
        "velocity": 0.59,
        "hand": "right"
      },
      {
        "midi": 74,
        "time": 33.333,
        "duration": 0.333,
        "velocity": 0.59,
        "hand": "right"
      },
      {
        "midi": 56,
        "time": 33.667,
        "duration": 0.333,
        "velocity": 0.6,
        "hand": "left"
      },
      {
        "midi": 63,
        "time": 33.667,
        "duration": 0.333,
        "velocity": 0.6,
        "hand": "right"
      },
      {
        "midi": 68,
        "time": 33.667,
        "duration": 0.333,
        "velocity": 0.56,
        "hand": "right"
      },
      {
        "midi": 72,
        "time": 33.667,
        "duration": 0.333,
        "velocity": 0.56,
        "hand": "right"
      },
      {
        "midi": 58,
        "time": 34.667,
        "duration": 0.333,
        "velocity": 0.56,
        "hand": "left"
      },
      {
        "midi": 65,
        "time": 34.667,
        "duration": 0.333,
        "velocity": 0.56,
        "hand": "right"
      },
      {
        "midi": 68,
        "time": 34.667,
        "duration": 0.333,
        "velocity": 0.5,
        "hand": "right"
      },
      {
        "midi": 74,
        "time": 34.667,
        "duration": 0.333,
        "velocity": 0.5,
        "hand": "right"
      },
      {
        "midi": 58,
        "time": 35,
        "duration": 0.333,
        "velocity": 0.6,
        "hand": "left"
      },
      {
        "midi": 65,
        "time": 35,
        "duration": 0.333,
        "velocity": 0.6,
        "hand": "right"
      },
      {
        "midi": 68,
        "time": 35,
        "duration": 0.333,
        "velocity": 0.59,
        "hand": "right"
      },
      {
        "midi": 74,
        "time": 35,
        "duration": 0.333,
        "velocity": 0.59,
        "hand": "right"
      },
      {
        "midi": 58,
        "time": 35.333,
        "duration": 0.333,
        "velocity": 0.57,
        "hand": "left"
      },
      {
        "midi": 63,
        "time": 35.333,
        "duration": 0.333,
        "velocity": 0.57,
        "hand": "right"
      },
      {
        "midi": 68,
        "time": 35.333,
        "duration": 0.333,
        "velocity": 0.54,
        "hand": "right"
      },
      {
        "midi": 72,
        "time": 35.333,
        "duration": 0.333,
        "velocity": 0.54,
        "hand": "right"
      },
      {
        "midi": 58,
        "time": 35.833,
        "duration": 0.5,
        "velocity": 0.58,
        "hand": "left"
      },
      {
        "midi": 63,
        "time": 35.833,
        "duration": 0.5,
        "velocity": 0.58,
        "hand": "right"
      },
      {
        "midi": 68,
        "time": 35.833,
        "duration": 0.5,
        "velocity": 0.61,
        "hand": "right"
      },
      {
        "midi": 72,
        "time": 35.833,
        "duration": 0.5,
        "velocity": 0.61,
        "hand": "right"
      },
      {
        "midi": 58,
        "time": 36.167,
        "duration": 2.833,
        "velocity": 0.59,
        "hand": "left"
      },
      {
        "midi": 62,
        "time": 36.167,
        "duration": 2.833,
        "velocity": 0.59,
        "hand": "right"
      },
      {
        "midi": 68,
        "time": 36.167,
        "duration": 2.833,
        "velocity": 0.57,
        "hand": "right"
      },
      {
        "midi": 70,
        "time": 36.167,
        "duration": 2.833,
        "velocity": 0.57,
        "hand": "right"
      },
      {
        "midi": 51,
        "time": 39,
        "duration": 0.5,
        "velocity": 0.61,
        "hand": "left"
      },
      {
        "midi": 63,
        "time": 39,
        "duration": 0.5,
        "velocity": 0.61,
        "hand": "right"
      },
      {
        "midi": 67,
        "time": 39,
        "duration": 0.5,
        "velocity": 0.69,
        "hand": "right"
      },
      {
        "midi": 75,
        "time": 39,
        "duration": 0.5,
        "velocity": 0.69,
        "hand": "right"
      },
      {
        "midi": 51,
        "time": 39.5,
        "duration": 0.5,
        "velocity": 0.59,
        "hand": "left"
      },
      {
        "midi": 63,
        "time": 39.5,
        "duration": 0.5,
        "velocity": 0.59,
        "hand": "right"
      },
      {
        "midi": 67,
        "time": 39.5,
        "duration": 0.5,
        "velocity": 0.62,
        "hand": "right"
      },
      {
        "midi": 75,
        "time": 39.5,
        "duration": 0.5,
        "velocity": 0.62,
        "hand": "right"
      },
      {
        "midi": 51,
        "time": 39.833,
        "duration": 0.5,
        "velocity": 0.61,
        "hand": "left"
      },
      {
        "midi": 63,
        "time": 39.833,
        "duration": 0.5,
        "velocity": 0.61,
        "hand": "right"
      },
      {
        "midi": 67,
        "time": 39.833,
        "duration": 0.5,
        "velocity": 0.57,
        "hand": "right"
      },
      {
        "midi": 74,
        "time": 39.833,
        "duration": 0.5,
        "velocity": 0.57,
        "hand": "right"
      },
      {
        "midi": 51,
        "time": 40.333,
        "duration": 0.5,
        "velocity": 0.59,
        "hand": "left"
      },
      {
        "midi": 63,
        "time": 40.333,
        "duration": 0.5,
        "velocity": 0.59,
        "hand": "right"
      },
      {
        "midi": 67,
        "time": 40.333,
        "duration": 0.5,
        "velocity": 0.65,
        "hand": "right"
      },
      {
        "midi": 75,
        "time": 40.333,
        "duration": 0.5,
        "velocity": 0.65,
        "hand": "right"
      },
      {
        "midi": 56,
        "time": 40.833,
        "duration": 0.5,
        "velocity": 0.61,
        "hand": "left"
      },
      {
        "midi": 63,
        "time": 40.833,
        "duration": 0.5,
        "velocity": 0.61,
        "hand": "right"
      },
      {
        "midi": 70,
        "time": 40.833,
        "duration": 0.5,
        "velocity": 0.58,
        "hand": "right"
      },
      {
        "midi": 74,
        "time": 40.833,
        "duration": 0.5,
        "velocity": 0.58,
        "hand": "right"
      },
      {
        "midi": 56,
        "time": 41.167,
        "duration": 0.5,
        "velocity": 0.61,
        "hand": "left"
      },
      {
        "midi": 63,
        "time": 41.167,
        "duration": 0.5,
        "velocity": 0.61,
        "hand": "right"
      },
      {
        "midi": 68,
        "time": 41.167,
        "duration": 0.5,
        "velocity": 0.54,
        "hand": "right"
      },
      {
        "midi": 72,
        "time": 41.167,
        "duration": 0.5,
        "velocity": 0.54,
        "hand": "right"
      },
      {
        "midi": 56,
        "time": 41.667,
        "duration": 0.5,
        "velocity": 0.52,
        "hand": "left"
      },
      {
        "midi": 60,
        "time": 41.667,
        "duration": 0.5,
        "velocity": 0.52,
        "hand": "right"
      },
      {
        "midi": 65,
        "time": 41.667,
        "duration": 0.5,
        "velocity": 0.55,
        "hand": "right"
      },
      {
        "midi": 70,
        "time": 41.667,
        "duration": 0.5,
        "velocity": 0.55,
        "hand": "right"
      },
      {
        "midi": 56,
        "time": 42.167,
        "duration": 0.5,
        "velocity": 0.6,
        "hand": "left"
      },
      {
        "midi": 60,
        "time": 42.167,
        "duration": 0.5,
        "velocity": 0.6,
        "hand": "right"
      },
      {
        "midi": 65,
        "time": 42.167,
        "duration": 0.5,
        "velocity": 0.54,
        "hand": "right"
      },
      {
        "midi": 68,
        "time": 42.167,
        "duration": 0.5,
        "velocity": 0.54,
        "hand": "right"
      },
      {
        "midi": 58,
        "time": 42.667,
        "duration": 0.833,
        "velocity": 0.57,
        "hand": "left"
      },
      {
        "midi": 63,
        "time": 42.667,
        "duration": 0.833,
        "velocity": 0.6,
        "hand": "right"
      },
      {
        "midi": 67,
        "time": 42.667,
        "duration": 0.833,
        "velocity": 0.6,
        "hand": "right"
      },
      {
        "midi": 46,
        "time": 43.5,
        "duration": 0.833,
        "velocity": 0.6,
        "hand": "left"
      },
      {
        "midi": 56,
        "time": 43.5,
        "duration": 0.833,
        "velocity": 0.6,
        "hand": "left"
      },
      {
        "midi": 62,
        "time": 43.5,
        "duration": 0.833,
        "velocity": 0.54,
        "hand": "right"
      },
      {
        "midi": 65,
        "time": 43.5,
        "duration": 0.833,
        "velocity": 0.54,
        "hand": "right"
      },
      {
        "midi": 51,
        "time": 44.333,
        "duration": 1.833,
        "velocity": 0.61,
        "hand": "left"
      },
      {
        "midi": 55,
        "time": 44.333,
        "duration": 1.833,
        "velocity": 0.61,
        "hand": "left"
      },
      {
        "midi": 63,
        "time": 44.333,
        "duration": 1.833,
        "velocity": 0.57,
        "hand": "right"
      }
    ]
  },
  "notes1Hand": [
    {
      "midi": 67,
      "time": 0,
      "duration": 0.333,
      "velocity": 0.54,
      "hand": "right"
    },
    {
      "midi": 67,
      "time": 0.333,
      "duration": 0.333,
      "velocity": 0.61,
      "hand": "right"
    },
    {
      "midi": 67,
      "time": 0.667,
      "duration": 0.333,
      "velocity": 0.59,
      "hand": "right"
    },
    {
      "midi": 68,
      "time": 1,
      "duration": 0.333,
      "velocity": 0.63,
      "hand": "right"
    },
    {
      "midi": 70,
      "time": 1.333,
      "duration": 0.333,
      "velocity": 0.62,
      "hand": "right"
    },
    {
      "midi": 70,
      "time": 1.667,
      "duration": 0.333,
      "velocity": 0.61,
      "hand": "right"
    },
    {
      "midi": 70,
      "time": 2,
      "duration": 0.333,
      "velocity": 0.58,
      "hand": "right"
    },
    {
      "midi": 67,
      "time": 2.333,
      "duration": 0.333,
      "velocity": 0.52,
      "hand": "right"
    },
    {
      "midi": 68,
      "time": 2.667,
      "duration": 0.667,
      "velocity": 0.63,
      "hand": "right"
    },
    {
      "midi": 58,
      "time": 3,
      "duration": 0.333,
      "velocity": 0.64,
      "hand": "right"
    },
    {
      "midi": 67,
      "time": 3.333,
      "duration": 0.667,
      "velocity": 0.56,
      "hand": "right"
    },
    {
      "midi": 58,
      "time": 3.667,
      "duration": 0.333,
      "velocity": 0.57,
      "hand": "right"
    },
    {
      "midi": 68,
      "time": 4,
      "duration": 1.333,
      "velocity": 0.62,
      "hand": "right"
    },
    {
      "midi": 65,
      "time": 5.333,
      "duration": 0.333,
      "velocity": 0.5,
      "hand": "right"
    },
    {
      "midi": 67,
      "time": 5.667,
      "duration": 0.333,
      "velocity": 0.59,
      "hand": "right"
    },
    {
      "midi": 68,
      "time": 6,
      "duration": 0.333,
      "velocity": 0.64,
      "hand": "right"
    },
    {
      "midi": 70,
      "time": 6.333,
      "duration": 0.333,
      "velocity": 0.64,
      "hand": "right"
    },
    {
      "midi": 74,
      "time": 6.667,
      "duration": 0.333,
      "velocity": 0.7,
      "hand": "right"
    },
    {
      "midi": 72,
      "time": 7,
      "duration": 0.333,
      "velocity": 0.54,
      "hand": "right"
    },
    {
      "midi": 70,
      "time": 7.333,
      "duration": 0.333,
      "velocity": 0.53,
      "hand": "right"
    },
    {
      "midi": 68,
      "time": 7.667,
      "duration": 0.333,
      "velocity": 0.55,
      "hand": "right"
    },
    {
      "midi": 67,
      "time": 8,
      "duration": 0.667,
      "velocity": 0.55,
      "hand": "right"
    },
    {
      "midi": 58,
      "time": 8.333,
      "duration": 0.333,
      "velocity": 0.54,
      "hand": "right"
    },
    {
      "midi": 68,
      "time": 8.667,
      "duration": 0.667,
      "velocity": 0.63,
      "hand": "right"
    },
    {
      "midi": 63,
      "time": 9,
      "duration": 0.333,
      "velocity": 0.61,
      "hand": "right"
    },
    {
      "midi": 70,
      "time": 9.333,
      "duration": 1.333,
      "velocity": 0.63,
      "hand": "right"
    },
    {
      "midi": 67,
      "time": 10.667,
      "duration": 0.333,
      "velocity": 0.56,
      "hand": "right"
    },
    {
      "midi": 67,
      "time": 11,
      "duration": 0.333,
      "velocity": 0.58,
      "hand": "right"
    },
    {
      "midi": 67,
      "time": 11.333,
      "duration": 0.333,
      "velocity": 0.57,
      "hand": "right"
    },
    {
      "midi": 68,
      "time": 11.667,
      "duration": 0.333,
      "velocity": 0.63,
      "hand": "right"
    },
    {
      "midi": 70,
      "time": 12,
      "duration": 0.333,
      "velocity": 0.61,
      "hand": "right"
    },
    {
      "midi": 70,
      "time": 12.333,
      "duration": 0.333,
      "velocity": 0.6,
      "hand": "right"
    },
    {
      "midi": 70,
      "time": 12.667,
      "duration": 0.333,
      "velocity": 0.6,
      "hand": "right"
    },
    {
      "midi": 67,
      "time": 13,
      "duration": 0.333,
      "velocity": 0.5,
      "hand": "right"
    },
    {
      "midi": 68,
      "time": 13.333,
      "duration": 0.667,
      "velocity": 0.63,
      "hand": "right"
    },
    {
      "midi": 58,
      "time": 13.667,
      "duration": 0.333,
      "velocity": 0.59,
      "hand": "right"
    },
    {
      "midi": 67,
      "time": 14,
      "duration": 0.667,
      "velocity": 0.56,
      "hand": "right"
    },
    {
      "midi": 58,
      "time": 14.333,
      "duration": 0.333,
      "velocity": 0.63,
      "hand": "right"
    },
    {
      "midi": 68,
      "time": 14.667,
      "duration": 1.333,
      "velocity": 0.57,
      "hand": "right"
    },
    {
      "midi": 65,
      "time": 16,
      "duration": 0.333,
      "velocity": 0.56,
      "hand": "right"
    },
    {
      "midi": 67,
      "time": 16.333,
      "duration": 0.333,
      "velocity": 0.63,
      "hand": "right"
    },
    {
      "midi": 68,
      "time": 16.667,
      "duration": 0.333,
      "velocity": 0.64,
      "hand": "right"
    },
    {
      "midi": 70,
      "time": 17,
      "duration": 0.333,
      "velocity": 0.62,
      "hand": "right"
    },
    {
      "midi": 74,
      "time": 17.333,
      "duration": 0.333,
      "velocity": 0.65,
      "hand": "right"
    },
    {
      "midi": 72,
      "time": 17.667,
      "duration": 0.333,
      "velocity": 0.56,
      "hand": "right"
    },
    {
      "midi": 70,
      "time": 18,
      "duration": 0.333,
      "velocity": 0.58,
      "hand": "right"
    },
    {
      "midi": 68,
      "time": 18.333,
      "duration": 0.333,
      "velocity": 0.54,
      "hand": "right"
    },
    {
      "midi": 67,
      "time": 18.667,
      "duration": 0.667,
      "velocity": 0.56,
      "hand": "right"
    },
    {
      "midi": 58,
      "time": 19,
      "duration": 0.333,
      "velocity": 0.59,
      "hand": "right"
    },
    {
      "midi": 65,
      "time": 19.333,
      "duration": 0.667,
      "velocity": 0.56,
      "hand": "right"
    },
    {
      "midi": 56,
      "time": 19.667,
      "duration": 0.333,
      "velocity": 0.57,
      "hand": "right"
    },
    {
      "midi": 63,
      "time": 20,
      "duration": 1.333,
      "velocity": 0.59,
      "hand": "right"
    },
    {
      "midi": 70,
      "time": 21.333,
      "duration": 1,
      "velocity": 0.71,
      "hand": "right"
    },
    {
      "midi": 63,
      "time": 21.667,
      "duration": 0.333,
      "velocity": 0.61,
      "hand": "right"
    },
    {
      "midi": 63,
      "time": 22,
      "duration": 0.333,
      "velocity": 0.6,
      "hand": "right"
    },
    {
      "midi": 70,
      "time": 22.333,
      "duration": 0.333,
      "velocity": 0.62,
      "hand": "right"
    },
    {
      "midi": 75,
      "time": 22.667,
      "duration": 0.333,
      "velocity": 0.69,
      "hand": "right"
    },
    {
      "midi": 70,
      "time": 23,
      "duration": 0.333,
      "velocity": 0.55,
      "hand": "right"
    },
    {
      "midi": 70,
      "time": 23.333,
      "duration": 0.333,
      "velocity": 0.62,
      "hand": "right"
    },
    {
      "midi": 67,
      "time": 23.667,
      "duration": 0.333,
      "velocity": 0.52,
      "hand": "right"
    },
    {
      "midi": 68,
      "time": 24,
      "duration": 0.667,
      "velocity": 0.62,
      "hand": "right"
    },
    {
      "midi": 63,
      "time": 24.333,
      "duration": 0.333,
      "velocity": 0.55,
      "hand": "right"
    },
    {
      "midi": 68,
      "time": 24.667,
      "duration": 0.667,
      "velocity": 0.58,
      "hand": "right"
    },
    {
      "midi": 60,
      "time": 25,
      "duration": 0.333,
      "velocity": 0.6,
      "hand": "right"
    },
    {
      "midi": 68,
      "time": 25.333,
      "duration": 1.333,
      "velocity": 0.58,
      "hand": "right"
    },
    {
      "midi": 68,
      "time": 26.667,
      "duration": 1,
      "velocity": 0.61,
      "hand": "right"
    },
    {
      "midi": 58,
      "time": 27,
      "duration": 0.333,
      "velocity": 0.61,
      "hand": "right"
    },
    {
      "midi": 58,
      "time": 27.333,
      "duration": 0.333,
      "velocity": 0.57,
      "hand": "right"
    },
    {
      "midi": 68,
      "time": 27.667,
      "duration": 0.333,
      "velocity": 0.62,
      "hand": "right"
    },
    {
      "midi": 74,
      "time": 28,
      "duration": 0.333,
      "velocity": 0.65,
      "hand": "right"
    },
    {
      "midi": 72,
      "time": 28.333,
      "duration": 0.333,
      "velocity": 0.56,
      "hand": "right"
    },
    {
      "midi": 70,
      "time": 28.667,
      "duration": 0.333,
      "velocity": 0.56,
      "hand": "right"
    },
    {
      "midi": 68,
      "time": 29,
      "duration": 0.333,
      "velocity": 0.54,
      "hand": "right"
    },
    {
      "midi": 67,
      "time": 29.333,
      "duration": 0.667,
      "velocity": 0.54,
      "hand": "right"
    },
    {
      "midi": 58,
      "time": 29.667,
      "duration": 0.333,
      "velocity": 0.57,
      "hand": "right"
    },
    {
      "midi": 68,
      "time": 30,
      "duration": 0.667,
      "velocity": 0.62,
      "hand": "right"
    },
    {
      "midi": 58,
      "time": 30.333,
      "duration": 0.333,
      "velocity": 0.57,
      "hand": "right"
    },
    {
      "midi": 70,
      "time": 30.667,
      "duration": 1.333,
      "velocity": 0.63,
      "hand": "right"
    },
    {
      "midi": 75,
      "time": 32,
      "duration": 1,
      "velocity": 0.7,
      "hand": "right"
    },
    {
      "midi": 58,
      "time": 32.333,
      "duration": 0.333,
      "velocity": 0.58,
      "hand": "right"
    },
    {
      "midi": 58,
      "time": 32.667,
      "duration": 0.333,
      "velocity": 0.6,
      "hand": "right"
    },
    {
      "midi": 75,
      "time": 33,
      "duration": 0.333,
      "velocity": 0.63,
      "hand": "right"
    },
    {
      "midi": 74,
      "time": 33.333,
      "duration": 0.333,
      "velocity": 0.59,
      "hand": "right"
    },
    {
      "midi": 72,
      "time": 33.667,
      "duration": 0.333,
      "velocity": 0.56,
      "hand": "right"
    },
    {
      "midi": 74,
      "time": 34.667,
      "duration": 0.333,
      "velocity": 0.5,
      "hand": "right"
    },
    {
      "midi": 74,
      "time": 35,
      "duration": 0.333,
      "velocity": 0.59,
      "hand": "right"
    },
    {
      "midi": 72,
      "time": 35.333,
      "duration": 0.333,
      "velocity": 0.54,
      "hand": "right"
    },
    {
      "midi": 72,
      "time": 35.833,
      "duration": 0.5,
      "velocity": 0.61,
      "hand": "right"
    },
    {
      "midi": 70,
      "time": 36.167,
      "duration": 2.833,
      "velocity": 0.57,
      "hand": "right"
    },
    {
      "midi": 75,
      "time": 39,
      "duration": 0.5,
      "velocity": 0.69,
      "hand": "right"
    },
    {
      "midi": 75,
      "time": 39.5,
      "duration": 0.5,
      "velocity": 0.62,
      "hand": "right"
    },
    {
      "midi": 74,
      "time": 39.833,
      "duration": 0.5,
      "velocity": 0.57,
      "hand": "right"
    },
    {
      "midi": 75,
      "time": 40.333,
      "duration": 0.5,
      "velocity": 0.65,
      "hand": "right"
    },
    {
      "midi": 74,
      "time": 40.833,
      "duration": 0.5,
      "velocity": 0.58,
      "hand": "right"
    },
    {
      "midi": 72,
      "time": 41.167,
      "duration": 0.5,
      "velocity": 0.54,
      "hand": "right"
    },
    {
      "midi": 70,
      "time": 41.667,
      "duration": 0.5,
      "velocity": 0.55,
      "hand": "right"
    },
    {
      "midi": 68,
      "time": 42.167,
      "duration": 0.5,
      "velocity": 0.54,
      "hand": "right"
    },
    {
      "midi": 67,
      "time": 42.667,
      "duration": 0.833,
      "velocity": 0.6,
      "hand": "right"
    },
    {
      "midi": 65,
      "time": 43.5,
      "duration": 0.833,
      "velocity": 0.54,
      "hand": "right"
    },
    {
      "midi": 63,
      "time": 44.333,
      "duration": 1.833,
      "velocity": 0.57,
      "hand": "right"
    }
  ],
  "notes2Hands": [
    {
      "midi": 51,
      "time": 0,
      "duration": 0.333,
      "velocity": 0.5,
      "hand": "left"
    },
    {
      "midi": 58,
      "time": 0,
      "duration": 0.333,
      "velocity": 0.5,
      "hand": "left"
    },
    {
      "midi": 63,
      "time": 0,
      "duration": 0.333,
      "velocity": 0.54,
      "hand": "right"
    },
    {
      "midi": 67,
      "time": 0,
      "duration": 0.333,
      "velocity": 0.54,
      "hand": "right"
    },
    {
      "midi": 51,
      "time": 0.333,
      "duration": 0.333,
      "velocity": 0.6,
      "hand": "left"
    },
    {
      "midi": 58,
      "time": 0.333,
      "duration": 0.333,
      "velocity": 0.6,
      "hand": "left"
    },
    {
      "midi": 63,
      "time": 0.333,
      "duration": 0.333,
      "velocity": 0.61,
      "hand": "right"
    },
    {
      "midi": 67,
      "time": 0.333,
      "duration": 0.333,
      "velocity": 0.61,
      "hand": "right"
    },
    {
      "midi": 51,
      "time": 0.667,
      "duration": 0.333,
      "velocity": 0.57,
      "hand": "left"
    },
    {
      "midi": 58,
      "time": 0.667,
      "duration": 0.333,
      "velocity": 0.57,
      "hand": "left"
    },
    {
      "midi": 63,
      "time": 0.667,
      "duration": 0.333,
      "velocity": 0.59,
      "hand": "right"
    },
    {
      "midi": 67,
      "time": 0.667,
      "duration": 0.333,
      "velocity": 0.59,
      "hand": "right"
    },
    {
      "midi": 51,
      "time": 1,
      "duration": 0.333,
      "velocity": 0.61,
      "hand": "left"
    },
    {
      "midi": 58,
      "time": 1,
      "duration": 0.333,
      "velocity": 0.61,
      "hand": "left"
    },
    {
      "midi": 65,
      "time": 1,
      "duration": 0.333,
      "velocity": 0.63,
      "hand": "right"
    },
    {
      "midi": 68,
      "time": 1,
      "duration": 0.333,
      "velocity": 0.63,
      "hand": "right"
    },
    {
      "midi": 51,
      "time": 1.333,
      "duration": 0.333,
      "velocity": 0.67,
      "hand": "left"
    },
    {
      "midi": 63,
      "time": 1.333,
      "duration": 0.333,
      "velocity": 0.67,
      "hand": "right"
    },
    {
      "midi": 67,
      "time": 1.333,
      "duration": 0.333,
      "velocity": 0.62,
      "hand": "right"
    },
    {
      "midi": 70,
      "time": 1.333,
      "duration": 0.333,
      "velocity": 0.62,
      "hand": "right"
    },
    {
      "midi": 51,
      "time": 1.667,
      "duration": 0.333,
      "velocity": 0.57,
      "hand": "left"
    },
    {
      "midi": 58,
      "time": 1.667,
      "duration": 0.333,
      "velocity": 0.57,
      "hand": "left"
    },
    {
      "midi": 67,
      "time": 1.667,
      "duration": 0.333,
      "velocity": 0.61,
      "hand": "right"
    },
    {
      "midi": 70,
      "time": 1.667,
      "duration": 0.333,
      "velocity": 0.61,
      "hand": "right"
    },
    {
      "midi": 67,
      "time": 2,
      "duration": 0.333,
      "velocity": 0.58,
      "hand": "right"
    },
    {
      "midi": 70,
      "time": 2,
      "duration": 0.333,
      "velocity": 0.58,
      "hand": "right"
    },
    {
      "midi": 63,
      "time": 2.333,
      "duration": 0.333,
      "velocity": 0.52,
      "hand": "right"
    },
    {
      "midi": 67,
      "time": 2.333,
      "duration": 0.333,
      "velocity": 0.52,
      "hand": "right"
    },
    {
      "midi": 46,
      "time": 2.667,
      "duration": 0.333,
      "velocity": 0.56,
      "hand": "left"
    },
    {
      "midi": 58,
      "time": 2.667,
      "duration": 0.333,
      "velocity": 0.56,
      "hand": "left"
    },
    {
      "midi": 65,
      "time": 2.667,
      "duration": 0.667,
      "velocity": 0.63,
      "hand": "right"
    },
    {
      "midi": 68,
      "time": 2.667,
      "duration": 0.667,
      "velocity": 0.63,
      "hand": "right"
    },
    {
      "midi": 46,
      "time": 3,
      "duration": 0.333,
      "velocity": 0.64,
      "hand": "left"
    },
    {
      "midi": 58,
      "time": 3,
      "duration": 0.333,
      "velocity": 0.64,
      "hand": "left"
    },
    {
      "midi": 46,
      "time": 3.333,
      "duration": 0.333,
      "velocity": 0.61,
      "hand": "left"
    },
    {
      "midi": 58,
      "time": 3.333,
      "duration": 0.333,
      "velocity": 0.61,
      "hand": "left"
    },
    {
      "midi": 64,
      "time": 3.333,
      "duration": 0.667,
      "velocity": 0.56,
      "hand": "right"
    },
    {
      "midi": 67,
      "time": 3.333,
      "duration": 0.667,
      "velocity": 0.56,
      "hand": "right"
    },
    {
      "midi": 46,
      "time": 3.667,
      "duration": 0.333,
      "velocity": 0.57,
      "hand": "left"
    },
    {
      "midi": 58,
      "time": 3.667,
      "duration": 0.333,
      "velocity": 0.57,
      "hand": "left"
    },
    {
      "midi": 46,
      "time": 4,
      "duration": 1.333,
      "velocity": 0.61,
      "hand": "left"
    },
    {
      "midi": 58,
      "time": 4,
      "duration": 1.333,
      "velocity": 0.61,
      "hand": "left"
    },
    {
      "midi": 65,
      "time": 4,
      "duration": 1.333,
      "velocity": 0.62,
      "hand": "right"
    },
    {
      "midi": 68,
      "time": 4,
      "duration": 1.333,
      "velocity": 0.62,
      "hand": "right"
    },
    {
      "midi": 46,
      "time": 5.333,
      "duration": 0.333,
      "velocity": 0.57,
      "hand": "left"
    },
    {
      "midi": 58,
      "time": 5.333,
      "duration": 0.333,
      "velocity": 0.57,
      "hand": "left"
    },
    {
      "midi": 62,
      "time": 5.333,
      "duration": 0.333,
      "velocity": 0.5,
      "hand": "right"
    },
    {
      "midi": 65,
      "time": 5.333,
      "duration": 0.333,
      "velocity": 0.5,
      "hand": "right"
    },
    {
      "midi": 46,
      "time": 5.667,
      "duration": 0.333,
      "velocity": 0.62,
      "hand": "left"
    },
    {
      "midi": 58,
      "time": 5.667,
      "duration": 0.333,
      "velocity": 0.62,
      "hand": "left"
    },
    {
      "midi": 63,
      "time": 5.667,
      "duration": 0.333,
      "velocity": 0.59,
      "hand": "right"
    },
    {
      "midi": 67,
      "time": 5.667,
      "duration": 0.333,
      "velocity": 0.59,
      "hand": "right"
    },
    {
      "midi": 46,
      "time": 6,
      "duration": 0.333,
      "velocity": 0.63,
      "hand": "left"
    },
    {
      "midi": 58,
      "time": 6,
      "duration": 0.333,
      "velocity": 0.63,
      "hand": "left"
    },
    {
      "midi": 65,
      "time": 6,
      "duration": 0.333,
      "velocity": 0.64,
      "hand": "right"
    },
    {
      "midi": 68,
      "time": 6,
      "duration": 0.333,
      "velocity": 0.64,
      "hand": "right"
    },
    {
      "midi": 46,
      "time": 6.333,
      "duration": 0.333,
      "velocity": 0.6,
      "hand": "left"
    },
    {
      "midi": 58,
      "time": 6.333,
      "duration": 0.333,
      "velocity": 0.6,
      "hand": "left"
    },
    {
      "midi": 67,
      "time": 6.333,
      "duration": 0.333,
      "velocity": 0.64,
      "hand": "right"
    },
    {
      "midi": 70,
      "time": 6.333,
      "duration": 0.333,
      "velocity": 0.64,
      "hand": "right"
    },
    {
      "midi": 46,
      "time": 6.667,
      "duration": 0.333,
      "velocity": 0.55,
      "hand": "left"
    },
    {
      "midi": 58,
      "time": 6.667,
      "duration": 0.333,
      "velocity": 0.55,
      "hand": "left"
    },
    {
      "midi": 70,
      "time": 6.667,
      "duration": 0.333,
      "velocity": 0.7,
      "hand": "right"
    },
    {
      "midi": 74,
      "time": 6.667,
      "duration": 0.333,
      "velocity": 0.7,
      "hand": "right"
    },
    {
      "midi": 46,
      "time": 7,
      "duration": 0.333,
      "velocity": 0.6,
      "hand": "left"
    },
    {
      "midi": 58,
      "time": 7,
      "duration": 0.333,
      "velocity": 0.6,
      "hand": "left"
    },
    {
      "midi": 68,
      "time": 7,
      "duration": 0.333,
      "velocity": 0.54,
      "hand": "right"
    },
    {
      "midi": 72,
      "time": 7,
      "duration": 0.333,
      "velocity": 0.54,
      "hand": "right"
    },
    {
      "midi": 67,
      "time": 7.333,
      "duration": 0.333,
      "velocity": 0.53,
      "hand": "right"
    },
    {
      "midi": 70,
      "time": 7.333,
      "duration": 0.333,
      "velocity": 0.53,
      "hand": "right"
    },
    {
      "midi": 65,
      "time": 7.667,
      "duration": 0.333,
      "velocity": 0.55,
      "hand": "right"
    },
    {
      "midi": 68,
      "time": 7.667,
      "duration": 0.333,
      "velocity": 0.55,
      "hand": "right"
    },
    {
      "midi": 51,
      "time": 8,
      "duration": 0.333,
      "velocity": 0.54,
      "hand": "left"
    },
    {
      "midi": 58,
      "time": 8,
      "duration": 0.333,
      "velocity": 0.54,
      "hand": "left"
    },
    {
      "midi": 63,
      "time": 8,
      "duration": 0.667,
      "velocity": 0.55,
      "hand": "right"
    },
    {
      "midi": 67,
      "time": 8,
      "duration": 0.667,
      "velocity": 0.55,
      "hand": "right"
    },
    {
      "midi": 51,
      "time": 8.333,
      "duration": 0.333,
      "velocity": 0.54,
      "hand": "left"
    },
    {
      "midi": 58,
      "time": 8.333,
      "duration": 0.333,
      "velocity": 0.54,
      "hand": "left"
    },
    {
      "midi": 51,
      "time": 8.667,
      "duration": 0.333,
      "velocity": 0.69,
      "hand": "left"
    },
    {
      "midi": 63,
      "time": 8.667,
      "duration": 0.333,
      "velocity": 0.69,
      "hand": "right"
    },
    {
      "midi": 65,
      "time": 8.667,
      "duration": 0.667,
      "velocity": 0.63,
      "hand": "right"
    },
    {
      "midi": 68,
      "time": 8.667,
      "duration": 0.667,
      "velocity": 0.63,
      "hand": "right"
    },
    {
      "midi": 51,
      "time": 9,
      "duration": 0.333,
      "velocity": 0.61,
      "hand": "left"
    },
    {
      "midi": 63,
      "time": 9,
      "duration": 0.333,
      "velocity": 0.61,
      "hand": "right"
    },
    {
      "midi": 51,
      "time": 9.333,
      "duration": 1.333,
      "velocity": 0.62,
      "hand": "left"
    },
    {
      "midi": 63,
      "time": 9.333,
      "duration": 1.333,
      "velocity": 0.62,
      "hand": "right"
    },
    {
      "midi": 67,
      "time": 9.333,
      "duration": 1.333,
      "velocity": 0.63,
      "hand": "right"
    },
    {
      "midi": 70,
      "time": 9.333,
      "duration": 1.333,
      "velocity": 0.63,
      "hand": "right"
    },
    {
      "midi": 51,
      "time": 10.667,
      "duration": 0.333,
      "velocity": 0.53,
      "hand": "left"
    },
    {
      "midi": 58,
      "time": 10.667,
      "duration": 0.333,
      "velocity": 0.53,
      "hand": "left"
    },
    {
      "midi": 63,
      "time": 10.667,
      "duration": 0.333,
      "velocity": 0.56,
      "hand": "right"
    },
    {
      "midi": 67,
      "time": 10.667,
      "duration": 0.333,
      "velocity": 0.56,
      "hand": "right"
    },
    {
      "midi": 51,
      "time": 11,
      "duration": 0.333,
      "velocity": 0.57,
      "hand": "left"
    },
    {
      "midi": 58,
      "time": 11,
      "duration": 0.333,
      "velocity": 0.57,
      "hand": "left"
    },
    {
      "midi": 63,
      "time": 11,
      "duration": 0.333,
      "velocity": 0.58,
      "hand": "right"
    },
    {
      "midi": 67,
      "time": 11,
      "duration": 0.333,
      "velocity": 0.58,
      "hand": "right"
    },
    {
      "midi": 51,
      "time": 11.333,
      "duration": 0.333,
      "velocity": 0.58,
      "hand": "left"
    },
    {
      "midi": 58,
      "time": 11.333,
      "duration": 0.333,
      "velocity": 0.58,
      "hand": "left"
    },
    {
      "midi": 63,
      "time": 11.333,
      "duration": 0.333,
      "velocity": 0.57,
      "hand": "right"
    },
    {
      "midi": 67,
      "time": 11.333,
      "duration": 0.333,
      "velocity": 0.57,
      "hand": "right"
    },
    {
      "midi": 51,
      "time": 11.667,
      "duration": 0.333,
      "velocity": 0.58,
      "hand": "left"
    },
    {
      "midi": 58,
      "time": 11.667,
      "duration": 0.333,
      "velocity": 0.58,
      "hand": "left"
    },
    {
      "midi": 65,
      "time": 11.667,
      "duration": 0.333,
      "velocity": 0.63,
      "hand": "right"
    },
    {
      "midi": 68,
      "time": 11.667,
      "duration": 0.333,
      "velocity": 0.63,
      "hand": "right"
    },
    {
      "midi": 51,
      "time": 12,
      "duration": 0.333,
      "velocity": 0.72,
      "hand": "left"
    },
    {
      "midi": 63,
      "time": 12,
      "duration": 0.333,
      "velocity": 0.72,
      "hand": "right"
    },
    {
      "midi": 67,
      "time": 12,
      "duration": 0.333,
      "velocity": 0.61,
      "hand": "right"
    },
    {
      "midi": 70,
      "time": 12,
      "duration": 0.333,
      "velocity": 0.61,
      "hand": "right"
    },
    {
      "midi": 51,
      "time": 12.333,
      "duration": 0.333,
      "velocity": 0.56,
      "hand": "left"
    },
    {
      "midi": 58,
      "time": 12.333,
      "duration": 0.333,
      "velocity": 0.56,
      "hand": "left"
    },
    {
      "midi": 67,
      "time": 12.333,
      "duration": 0.333,
      "velocity": 0.6,
      "hand": "right"
    },
    {
      "midi": 70,
      "time": 12.333,
      "duration": 0.333,
      "velocity": 0.6,
      "hand": "right"
    },
    {
      "midi": 67,
      "time": 12.667,
      "duration": 0.333,
      "velocity": 0.6,
      "hand": "right"
    },
    {
      "midi": 70,
      "time": 12.667,
      "duration": 0.333,
      "velocity": 0.6,
      "hand": "right"
    },
    {
      "midi": 63,
      "time": 13,
      "duration": 0.333,
      "velocity": 0.5,
      "hand": "right"
    },
    {
      "midi": 67,
      "time": 13,
      "duration": 0.333,
      "velocity": 0.5,
      "hand": "right"
    },
    {
      "midi": 46,
      "time": 13.333,
      "duration": 0.333,
      "velocity": 0.53,
      "hand": "left"
    },
    {
      "midi": 58,
      "time": 13.333,
      "duration": 0.333,
      "velocity": 0.53,
      "hand": "left"
    },
    {
      "midi": 65,
      "time": 13.333,
      "duration": 0.667,
      "velocity": 0.63,
      "hand": "right"
    },
    {
      "midi": 68,
      "time": 13.333,
      "duration": 0.667,
      "velocity": 0.63,
      "hand": "right"
    },
    {
      "midi": 46,
      "time": 13.667,
      "duration": 0.333,
      "velocity": 0.59,
      "hand": "left"
    },
    {
      "midi": 58,
      "time": 13.667,
      "duration": 0.333,
      "velocity": 0.59,
      "hand": "left"
    },
    {
      "midi": 46,
      "time": 14,
      "duration": 0.333,
      "velocity": 0.58,
      "hand": "left"
    },
    {
      "midi": 58,
      "time": 14,
      "duration": 0.333,
      "velocity": 0.58,
      "hand": "left"
    },
    {
      "midi": 64,
      "time": 14,
      "duration": 0.667,
      "velocity": 0.56,
      "hand": "right"
    },
    {
      "midi": 67,
      "time": 14,
      "duration": 0.667,
      "velocity": 0.56,
      "hand": "right"
    },
    {
      "midi": 46,
      "time": 14.333,
      "duration": 0.333,
      "velocity": 0.63,
      "hand": "left"
    },
    {
      "midi": 58,
      "time": 14.333,
      "duration": 0.333,
      "velocity": 0.63,
      "hand": "left"
    },
    {
      "midi": 46,
      "time": 14.667,
      "duration": 1.333,
      "velocity": 0.6,
      "hand": "left"
    },
    {
      "midi": 58,
      "time": 14.667,
      "duration": 1.333,
      "velocity": 0.6,
      "hand": "left"
    },
    {
      "midi": 65,
      "time": 14.667,
      "duration": 1.333,
      "velocity": 0.57,
      "hand": "right"
    },
    {
      "midi": 68,
      "time": 14.667,
      "duration": 1.333,
      "velocity": 0.57,
      "hand": "right"
    },
    {
      "midi": 46,
      "time": 16,
      "duration": 0.333,
      "velocity": 0.57,
      "hand": "left"
    },
    {
      "midi": 58,
      "time": 16,
      "duration": 0.333,
      "velocity": 0.57,
      "hand": "left"
    },
    {
      "midi": 62,
      "time": 16,
      "duration": 0.333,
      "velocity": 0.56,
      "hand": "right"
    },
    {
      "midi": 65,
      "time": 16,
      "duration": 0.333,
      "velocity": 0.56,
      "hand": "right"
    },
    {
      "midi": 46,
      "time": 16.333,
      "duration": 0.333,
      "velocity": 0.62,
      "hand": "left"
    },
    {
      "midi": 58,
      "time": 16.333,
      "duration": 0.333,
      "velocity": 0.62,
      "hand": "left"
    },
    {
      "midi": 63,
      "time": 16.333,
      "duration": 0.333,
      "velocity": 0.63,
      "hand": "right"
    },
    {
      "midi": 67,
      "time": 16.333,
      "duration": 0.333,
      "velocity": 0.63,
      "hand": "right"
    },
    {
      "midi": 46,
      "time": 16.667,
      "duration": 0.333,
      "velocity": 0.58,
      "hand": "left"
    },
    {
      "midi": 58,
      "time": 16.667,
      "duration": 0.333,
      "velocity": 0.58,
      "hand": "left"
    },
    {
      "midi": 65,
      "time": 16.667,
      "duration": 0.333,
      "velocity": 0.64,
      "hand": "right"
    },
    {
      "midi": 68,
      "time": 16.667,
      "duration": 0.333,
      "velocity": 0.64,
      "hand": "right"
    },
    {
      "midi": 46,
      "time": 17,
      "duration": 0.333,
      "velocity": 0.61,
      "hand": "left"
    },
    {
      "midi": 58,
      "time": 17,
      "duration": 0.333,
      "velocity": 0.61,
      "hand": "left"
    },
    {
      "midi": 67,
      "time": 17,
      "duration": 0.333,
      "velocity": 0.62,
      "hand": "right"
    },
    {
      "midi": 70,
      "time": 17,
      "duration": 0.333,
      "velocity": 0.62,
      "hand": "right"
    },
    {
      "midi": 46,
      "time": 17.333,
      "duration": 0.333,
      "velocity": 0.59,
      "hand": "left"
    },
    {
      "midi": 58,
      "time": 17.333,
      "duration": 0.333,
      "velocity": 0.59,
      "hand": "left"
    },
    {
      "midi": 70,
      "time": 17.333,
      "duration": 0.333,
      "velocity": 0.65,
      "hand": "right"
    },
    {
      "midi": 74,
      "time": 17.333,
      "duration": 0.333,
      "velocity": 0.65,
      "hand": "right"
    },
    {
      "midi": 46,
      "time": 17.667,
      "duration": 0.333,
      "velocity": 0.61,
      "hand": "left"
    },
    {
      "midi": 58,
      "time": 17.667,
      "duration": 0.333,
      "velocity": 0.61,
      "hand": "left"
    },
    {
      "midi": 68,
      "time": 17.667,
      "duration": 0.333,
      "velocity": 0.56,
      "hand": "right"
    },
    {
      "midi": 72,
      "time": 17.667,
      "duration": 0.333,
      "velocity": 0.56,
      "hand": "right"
    },
    {
      "midi": 67,
      "time": 18,
      "duration": 0.333,
      "velocity": 0.58,
      "hand": "right"
    },
    {
      "midi": 70,
      "time": 18,
      "duration": 0.333,
      "velocity": 0.58,
      "hand": "right"
    },
    {
      "midi": 65,
      "time": 18.333,
      "duration": 0.333,
      "velocity": 0.54,
      "hand": "right"
    },
    {
      "midi": 68,
      "time": 18.333,
      "duration": 0.333,
      "velocity": 0.54,
      "hand": "right"
    },
    {
      "midi": 46,
      "time": 18.667,
      "duration": 0.333,
      "velocity": 0.55,
      "hand": "left"
    },
    {
      "midi": 58,
      "time": 18.667,
      "duration": 0.333,
      "velocity": 0.55,
      "hand": "left"
    },
    {
      "midi": 63,
      "time": 18.667,
      "duration": 0.667,
      "velocity": 0.56,
      "hand": "right"
    },
    {
      "midi": 67,
      "time": 18.667,
      "duration": 0.667,
      "velocity": 0.56,
      "hand": "right"
    },
    {
      "midi": 46,
      "time": 19,
      "duration": 0.333,
      "velocity": 0.59,
      "hand": "left"
    },
    {
      "midi": 58,
      "time": 19,
      "duration": 0.333,
      "velocity": 0.59,
      "hand": "left"
    },
    {
      "midi": 46,
      "time": 19.333,
      "duration": 0.333,
      "velocity": 0.59,
      "hand": "left"
    },
    {
      "midi": 56,
      "time": 19.333,
      "duration": 0.333,
      "velocity": 0.59,
      "hand": "left"
    },
    {
      "midi": 62,
      "time": 19.333,
      "duration": 0.667,
      "velocity": 0.56,
      "hand": "right"
    },
    {
      "midi": 65,
      "time": 19.333,
      "duration": 0.667,
      "velocity": 0.56,
      "hand": "right"
    },
    {
      "midi": 46,
      "time": 19.667,
      "duration": 0.333,
      "velocity": 0.57,
      "hand": "left"
    },
    {
      "midi": 56,
      "time": 19.667,
      "duration": 0.333,
      "velocity": 0.57,
      "hand": "left"
    },
    {
      "midi": 51,
      "time": 20,
      "duration": 1.333,
      "velocity": 0.58,
      "hand": "left"
    },
    {
      "midi": 55,
      "time": 20,
      "duration": 1.333,
      "velocity": 0.58,
      "hand": "left"
    },
    {
      "midi": 63,
      "time": 20,
      "duration": 1.333,
      "velocity": 0.59,
      "hand": "right"
    },
    {
      "midi": 51,
      "time": 21.333,
      "duration": 0.333,
      "velocity": 0.72,
      "hand": "left"
    },
    {
      "midi": 63,
      "time": 21.333,
      "duration": 0.333,
      "velocity": 0.72,
      "hand": "right"
    },
    {
      "midi": 67,
      "time": 21.333,
      "duration": 1,
      "velocity": 0.71,
      "hand": "right"
    },
    {
      "midi": 70,
      "time": 21.333,
      "duration": 1,
      "velocity": 0.71,
      "hand": "right"
    },
    {
      "midi": 51,
      "time": 21.667,
      "duration": 0.333,
      "velocity": 0.61,
      "hand": "left"
    },
    {
      "midi": 63,
      "time": 21.667,
      "duration": 0.333,
      "velocity": 0.61,
      "hand": "right"
    },
    {
      "midi": 51,
      "time": 22,
      "duration": 0.333,
      "velocity": 0.6,
      "hand": "left"
    },
    {
      "midi": 63,
      "time": 22,
      "duration": 0.333,
      "velocity": 0.6,
      "hand": "right"
    },
    {
      "midi": 51,
      "time": 22.333,
      "duration": 0.333,
      "velocity": 0.57,
      "hand": "left"
    },
    {
      "midi": 63,
      "time": 22.333,
      "duration": 0.333,
      "velocity": 0.57,
      "hand": "right"
    },
    {
      "midi": 67,
      "time": 22.333,
      "duration": 0.333,
      "velocity": 0.62,
      "hand": "right"
    },
    {
      "midi": 70,
      "time": 22.333,
      "duration": 0.333,
      "velocity": 0.62,
      "hand": "right"
    },
    {
      "midi": 51,
      "time": 22.667,
      "duration": 0.333,
      "velocity": 0.56,
      "hand": "left"
    },
    {
      "midi": 58,
      "time": 22.667,
      "duration": 0.333,
      "velocity": 0.56,
      "hand": "left"
    },
    {
      "midi": 67,
      "time": 22.667,
      "duration": 0.333,
      "velocity": 0.69,
      "hand": "right"
    },
    {
      "midi": 75,
      "time": 22.667,
      "duration": 0.333,
      "velocity": 0.69,
      "hand": "right"
    },
    {
      "midi": 51,
      "time": 23,
      "duration": 0.333,
      "velocity": 0.57,
      "hand": "left"
    },
    {
      "midi": 58,
      "time": 23,
      "duration": 0.333,
      "velocity": 0.57,
      "hand": "left"
    },
    {
      "midi": 67,
      "time": 23,
      "duration": 0.333,
      "velocity": 0.55,
      "hand": "right"
    },
    {
      "midi": 70,
      "time": 23,
      "duration": 0.333,
      "velocity": 0.55,
      "hand": "right"
    },
    {
      "midi": 67,
      "time": 23.333,
      "duration": 0.333,
      "velocity": 0.62,
      "hand": "right"
    },
    {
      "midi": 70,
      "time": 23.333,
      "duration": 0.333,
      "velocity": 0.62,
      "hand": "right"
    },
    {
      "midi": 63,
      "time": 23.667,
      "duration": 0.333,
      "velocity": 0.52,
      "hand": "right"
    },
    {
      "midi": 67,
      "time": 23.667,
      "duration": 0.333,
      "velocity": 0.52,
      "hand": "right"
    },
    {
      "midi": 46,
      "time": 24,
      "duration": 0.333,
      "velocity": 0.51,
      "hand": "left"
    },
    {
      "midi": 58,
      "time": 24,
      "duration": 0.333,
      "velocity": 0.51,
      "hand": "left"
    },
    {
      "midi": 65,
      "time": 24,
      "duration": 0.333,
      "velocity": 0.62,
      "hand": "right"
    },
    {
      "midi": 68,
      "time": 24,
      "duration": 0.667,
      "velocity": 0.62,
      "hand": "right"
    },
    {
      "midi": 46,
      "time": 24.333,
      "duration": 0.333,
      "velocity": 0.6,
      "hand": "left"
    },
    {
      "midi": 58,
      "time": 24.333,
      "duration": 0.333,
      "velocity": 0.6,
      "hand": "left"
    },
    {
      "midi": 63,
      "time": 24.333,
      "duration": 0.333,
      "velocity": 0.55,
      "hand": "right"
    },
    {
      "midi": 46,
      "time": 24.667,
      "duration": 0.333,
      "velocity": 0.56,
      "hand": "left"
    },
    {
      "midi": 58,
      "time": 24.667,
      "duration": 0.333,
      "velocity": 0.56,
      "hand": "left"
    },
    {
      "midi": 62,
      "time": 24.667,
      "duration": 0.333,
      "velocity": 0.56,
      "hand": "right"
    },
    {
      "midi": 68,
      "time": 24.667,
      "duration": 0.667,
      "velocity": 0.58,
      "hand": "right"
    },
    {
      "midi": 46,
      "time": 25,
      "duration": 0.333,
      "velocity": 0.61,
      "hand": "left"
    },
    {
      "midi": 58,
      "time": 25,
      "duration": 0.333,
      "velocity": 0.61,
      "hand": "left"
    },
    {
      "midi": 60,
      "time": 25,
      "duration": 0.333,
      "velocity": 0.6,
      "hand": "right"
    },
    {
      "midi": 46,
      "time": 25.333,
      "duration": 1.333,
      "velocity": 0.59,
      "hand": "left"
    },
    {
      "midi": 58,
      "time": 25.333,
      "duration": 1.333,
      "velocity": 0.58,
      "hand": "left"
    },
    {
      "midi": 68,
      "time": 25.333,
      "duration": 1.333,
      "velocity": 0.58,
      "hand": "right"
    },
    {
      "midi": 46,
      "time": 26.667,
      "duration": 0.333,
      "velocity": 0.57,
      "hand": "left"
    },
    {
      "midi": 58,
      "time": 26.667,
      "duration": 0.333,
      "velocity": 0.57,
      "hand": "left"
    },
    {
      "midi": 65,
      "time": 26.667,
      "duration": 1,
      "velocity": 0.61,
      "hand": "right"
    },
    {
      "midi": 68,
      "time": 26.667,
      "duration": 1,
      "velocity": 0.61,
      "hand": "right"
    },
    {
      "midi": 46,
      "time": 27,
      "duration": 0.333,
      "velocity": 0.61,
      "hand": "left"
    },
    {
      "midi": 58,
      "time": 27,
      "duration": 0.333,
      "velocity": 0.61,
      "hand": "left"
    },
    {
      "midi": 46,
      "time": 27.333,
      "duration": 0.333,
      "velocity": 0.57,
      "hand": "left"
    },
    {
      "midi": 58,
      "time": 27.333,
      "duration": 0.333,
      "velocity": 0.57,
      "hand": "left"
    },
    {
      "midi": 46,
      "time": 27.667,
      "duration": 0.333,
      "velocity": 0.58,
      "hand": "left"
    },
    {
      "midi": 58,
      "time": 27.667,
      "duration": 0.333,
      "velocity": 0.58,
      "hand": "left"
    },
    {
      "midi": 65,
      "time": 27.667,
      "duration": 0.333,
      "velocity": 0.62,
      "hand": "right"
    },
    {
      "midi": 68,
      "time": 27.667,
      "duration": 0.333,
      "velocity": 0.62,
      "hand": "right"
    },
    {
      "midi": 46,
      "time": 28,
      "duration": 0.333,
      "velocity": 0.58,
      "hand": "left"
    },
    {
      "midi": 58,
      "time": 28,
      "duration": 0.333,
      "velocity": 0.58,
      "hand": "left"
    },
    {
      "midi": 70,
      "time": 28,
      "duration": 0.333,
      "velocity": 0.65,
      "hand": "right"
    },
    {
      "midi": 74,
      "time": 28,
      "duration": 0.333,
      "velocity": 0.65,
      "hand": "right"
    },
    {
      "midi": 46,
      "time": 28.333,
      "duration": 0.333,
      "velocity": 0.63,
      "hand": "left"
    },
    {
      "midi": 58,
      "time": 28.333,
      "duration": 0.333,
      "velocity": 0.63,
      "hand": "left"
    },
    {
      "midi": 68,
      "time": 28.333,
      "duration": 0.333,
      "velocity": 0.56,
      "hand": "right"
    },
    {
      "midi": 72,
      "time": 28.333,
      "duration": 0.333,
      "velocity": 0.56,
      "hand": "right"
    },
    {
      "midi": 67,
      "time": 28.667,
      "duration": 0.333,
      "velocity": 0.56,
      "hand": "right"
    },
    {
      "midi": 70,
      "time": 28.667,
      "duration": 0.333,
      "velocity": 0.56,
      "hand": "right"
    },
    {
      "midi": 65,
      "time": 29,
      "duration": 0.333,
      "velocity": 0.54,
      "hand": "right"
    },
    {
      "midi": 68,
      "time": 29,
      "duration": 0.333,
      "velocity": 0.54,
      "hand": "right"
    },
    {
      "midi": 51,
      "time": 29.333,
      "duration": 0.333,
      "velocity": 0.53,
      "hand": "left"
    },
    {
      "midi": 58,
      "time": 29.333,
      "duration": 0.333,
      "velocity": 0.53,
      "hand": "left"
    },
    {
      "midi": 63,
      "time": 29.333,
      "duration": 0.667,
      "velocity": 0.54,
      "hand": "right"
    },
    {
      "midi": 67,
      "time": 29.333,
      "duration": 0.667,
      "velocity": 0.54,
      "hand": "right"
    },
    {
      "midi": 51,
      "time": 29.667,
      "duration": 0.333,
      "velocity": 0.57,
      "hand": "left"
    },
    {
      "midi": 58,
      "time": 29.667,
      "duration": 0.333,
      "velocity": 0.57,
      "hand": "left"
    },
    {
      "midi": 51,
      "time": 30,
      "duration": 0.333,
      "velocity": 0.63,
      "hand": "left"
    },
    {
      "midi": 58,
      "time": 30,
      "duration": 0.333,
      "velocity": 0.63,
      "hand": "left"
    },
    {
      "midi": 65,
      "time": 30,
      "duration": 0.667,
      "velocity": 0.62,
      "hand": "right"
    },
    {
      "midi": 68,
      "time": 30,
      "duration": 0.667,
      "velocity": 0.62,
      "hand": "right"
    },
    {
      "midi": 51,
      "time": 30.333,
      "duration": 0.333,
      "velocity": 0.57,
      "hand": "left"
    },
    {
      "midi": 58,
      "time": 30.333,
      "duration": 0.333,
      "velocity": 0.57,
      "hand": "left"
    },
    {
      "midi": 51,
      "time": 30.667,
      "duration": 1.333,
      "velocity": 0.7,
      "hand": "left"
    },
    {
      "midi": 63,
      "time": 30.667,
      "duration": 1.333,
      "velocity": 0.7,
      "hand": "right"
    },
    {
      "midi": 67,
      "time": 30.667,
      "duration": 1.333,
      "velocity": 0.63,
      "hand": "right"
    },
    {
      "midi": 70,
      "time": 30.667,
      "duration": 1.333,
      "velocity": 0.63,
      "hand": "right"
    },
    {
      "midi": 51,
      "time": 32,
      "duration": 0.333,
      "velocity": 0.59,
      "hand": "left"
    },
    {
      "midi": 58,
      "time": 32,
      "duration": 0.333,
      "velocity": 0.59,
      "hand": "left"
    },
    {
      "midi": 67,
      "time": 32,
      "duration": 1,
      "velocity": 0.7,
      "hand": "right"
    },
    {
      "midi": 75,
      "time": 32,
      "duration": 1,
      "velocity": 0.7,
      "hand": "right"
    },
    {
      "midi": 51,
      "time": 32.333,
      "duration": 0.333,
      "velocity": 0.58,
      "hand": "left"
    },
    {
      "midi": 58,
      "time": 32.333,
      "duration": 0.333,
      "velocity": 0.58,
      "hand": "left"
    },
    {
      "midi": 51,
      "time": 32.667,
      "duration": 0.333,
      "velocity": 0.6,
      "hand": "left"
    },
    {
      "midi": 58,
      "time": 32.667,
      "duration": 0.333,
      "velocity": 0.6,
      "hand": "left"
    },
    {
      "midi": 51,
      "time": 33,
      "duration": 0.333,
      "velocity": 0.67,
      "hand": "left"
    },
    {
      "midi": 63,
      "time": 33,
      "duration": 0.333,
      "velocity": 0.67,
      "hand": "right"
    },
    {
      "midi": 67,
      "time": 33,
      "duration": 0.333,
      "velocity": 0.63,
      "hand": "right"
    },
    {
      "midi": 75,
      "time": 33,
      "duration": 0.333,
      "velocity": 0.63,
      "hand": "right"
    },
    {
      "midi": 56,
      "time": 33.333,
      "duration": 0.333,
      "velocity": 0.63,
      "hand": "left"
    },
    {
      "midi": 63,
      "time": 33.333,
      "duration": 0.333,
      "velocity": 0.63,
      "hand": "right"
    },
    {
      "midi": 70,
      "time": 33.333,
      "duration": 0.333,
      "velocity": 0.59,
      "hand": "right"
    },
    {
      "midi": 74,
      "time": 33.333,
      "duration": 0.333,
      "velocity": 0.59,
      "hand": "right"
    },
    {
      "midi": 56,
      "time": 33.667,
      "duration": 0.333,
      "velocity": 0.6,
      "hand": "left"
    },
    {
      "midi": 63,
      "time": 33.667,
      "duration": 0.333,
      "velocity": 0.6,
      "hand": "right"
    },
    {
      "midi": 68,
      "time": 33.667,
      "duration": 0.333,
      "velocity": 0.56,
      "hand": "right"
    },
    {
      "midi": 72,
      "time": 33.667,
      "duration": 0.333,
      "velocity": 0.56,
      "hand": "right"
    },
    {
      "midi": 58,
      "time": 34.667,
      "duration": 0.333,
      "velocity": 0.56,
      "hand": "left"
    },
    {
      "midi": 65,
      "time": 34.667,
      "duration": 0.333,
      "velocity": 0.56,
      "hand": "right"
    },
    {
      "midi": 68,
      "time": 34.667,
      "duration": 0.333,
      "velocity": 0.5,
      "hand": "right"
    },
    {
      "midi": 74,
      "time": 34.667,
      "duration": 0.333,
      "velocity": 0.5,
      "hand": "right"
    },
    {
      "midi": 58,
      "time": 35,
      "duration": 0.333,
      "velocity": 0.6,
      "hand": "left"
    },
    {
      "midi": 65,
      "time": 35,
      "duration": 0.333,
      "velocity": 0.6,
      "hand": "right"
    },
    {
      "midi": 68,
      "time": 35,
      "duration": 0.333,
      "velocity": 0.59,
      "hand": "right"
    },
    {
      "midi": 74,
      "time": 35,
      "duration": 0.333,
      "velocity": 0.59,
      "hand": "right"
    },
    {
      "midi": 58,
      "time": 35.333,
      "duration": 0.333,
      "velocity": 0.57,
      "hand": "left"
    },
    {
      "midi": 63,
      "time": 35.333,
      "duration": 0.333,
      "velocity": 0.57,
      "hand": "right"
    },
    {
      "midi": 68,
      "time": 35.333,
      "duration": 0.333,
      "velocity": 0.54,
      "hand": "right"
    },
    {
      "midi": 72,
      "time": 35.333,
      "duration": 0.333,
      "velocity": 0.54,
      "hand": "right"
    },
    {
      "midi": 58,
      "time": 35.833,
      "duration": 0.5,
      "velocity": 0.58,
      "hand": "left"
    },
    {
      "midi": 63,
      "time": 35.833,
      "duration": 0.5,
      "velocity": 0.58,
      "hand": "right"
    },
    {
      "midi": 68,
      "time": 35.833,
      "duration": 0.5,
      "velocity": 0.61,
      "hand": "right"
    },
    {
      "midi": 72,
      "time": 35.833,
      "duration": 0.5,
      "velocity": 0.61,
      "hand": "right"
    },
    {
      "midi": 58,
      "time": 36.167,
      "duration": 2.833,
      "velocity": 0.59,
      "hand": "left"
    },
    {
      "midi": 62,
      "time": 36.167,
      "duration": 2.833,
      "velocity": 0.59,
      "hand": "right"
    },
    {
      "midi": 68,
      "time": 36.167,
      "duration": 2.833,
      "velocity": 0.57,
      "hand": "right"
    },
    {
      "midi": 70,
      "time": 36.167,
      "duration": 2.833,
      "velocity": 0.57,
      "hand": "right"
    },
    {
      "midi": 51,
      "time": 39,
      "duration": 0.5,
      "velocity": 0.61,
      "hand": "left"
    },
    {
      "midi": 63,
      "time": 39,
      "duration": 0.5,
      "velocity": 0.61,
      "hand": "right"
    },
    {
      "midi": 67,
      "time": 39,
      "duration": 0.5,
      "velocity": 0.69,
      "hand": "right"
    },
    {
      "midi": 75,
      "time": 39,
      "duration": 0.5,
      "velocity": 0.69,
      "hand": "right"
    },
    {
      "midi": 51,
      "time": 39.5,
      "duration": 0.5,
      "velocity": 0.59,
      "hand": "left"
    },
    {
      "midi": 63,
      "time": 39.5,
      "duration": 0.5,
      "velocity": 0.59,
      "hand": "right"
    },
    {
      "midi": 67,
      "time": 39.5,
      "duration": 0.5,
      "velocity": 0.62,
      "hand": "right"
    },
    {
      "midi": 75,
      "time": 39.5,
      "duration": 0.5,
      "velocity": 0.62,
      "hand": "right"
    },
    {
      "midi": 51,
      "time": 39.833,
      "duration": 0.5,
      "velocity": 0.61,
      "hand": "left"
    },
    {
      "midi": 63,
      "time": 39.833,
      "duration": 0.5,
      "velocity": 0.61,
      "hand": "right"
    },
    {
      "midi": 67,
      "time": 39.833,
      "duration": 0.5,
      "velocity": 0.57,
      "hand": "right"
    },
    {
      "midi": 74,
      "time": 39.833,
      "duration": 0.5,
      "velocity": 0.57,
      "hand": "right"
    },
    {
      "midi": 51,
      "time": 40.333,
      "duration": 0.5,
      "velocity": 0.59,
      "hand": "left"
    },
    {
      "midi": 63,
      "time": 40.333,
      "duration": 0.5,
      "velocity": 0.59,
      "hand": "right"
    },
    {
      "midi": 67,
      "time": 40.333,
      "duration": 0.5,
      "velocity": 0.65,
      "hand": "right"
    },
    {
      "midi": 75,
      "time": 40.333,
      "duration": 0.5,
      "velocity": 0.65,
      "hand": "right"
    },
    {
      "midi": 56,
      "time": 40.833,
      "duration": 0.5,
      "velocity": 0.61,
      "hand": "left"
    },
    {
      "midi": 63,
      "time": 40.833,
      "duration": 0.5,
      "velocity": 0.61,
      "hand": "right"
    },
    {
      "midi": 70,
      "time": 40.833,
      "duration": 0.5,
      "velocity": 0.58,
      "hand": "right"
    },
    {
      "midi": 74,
      "time": 40.833,
      "duration": 0.5,
      "velocity": 0.58,
      "hand": "right"
    },
    {
      "midi": 56,
      "time": 41.167,
      "duration": 0.5,
      "velocity": 0.61,
      "hand": "left"
    },
    {
      "midi": 63,
      "time": 41.167,
      "duration": 0.5,
      "velocity": 0.61,
      "hand": "right"
    },
    {
      "midi": 68,
      "time": 41.167,
      "duration": 0.5,
      "velocity": 0.54,
      "hand": "right"
    },
    {
      "midi": 72,
      "time": 41.167,
      "duration": 0.5,
      "velocity": 0.54,
      "hand": "right"
    },
    {
      "midi": 56,
      "time": 41.667,
      "duration": 0.5,
      "velocity": 0.52,
      "hand": "left"
    },
    {
      "midi": 60,
      "time": 41.667,
      "duration": 0.5,
      "velocity": 0.52,
      "hand": "right"
    },
    {
      "midi": 65,
      "time": 41.667,
      "duration": 0.5,
      "velocity": 0.55,
      "hand": "right"
    },
    {
      "midi": 70,
      "time": 41.667,
      "duration": 0.5,
      "velocity": 0.55,
      "hand": "right"
    },
    {
      "midi": 56,
      "time": 42.167,
      "duration": 0.5,
      "velocity": 0.6,
      "hand": "left"
    },
    {
      "midi": 60,
      "time": 42.167,
      "duration": 0.5,
      "velocity": 0.6,
      "hand": "right"
    },
    {
      "midi": 65,
      "time": 42.167,
      "duration": 0.5,
      "velocity": 0.54,
      "hand": "right"
    },
    {
      "midi": 68,
      "time": 42.167,
      "duration": 0.5,
      "velocity": 0.54,
      "hand": "right"
    },
    {
      "midi": 58,
      "time": 42.667,
      "duration": 0.833,
      "velocity": 0.57,
      "hand": "left"
    },
    {
      "midi": 63,
      "time": 42.667,
      "duration": 0.833,
      "velocity": 0.6,
      "hand": "right"
    },
    {
      "midi": 67,
      "time": 42.667,
      "duration": 0.833,
      "velocity": 0.6,
      "hand": "right"
    },
    {
      "midi": 46,
      "time": 43.5,
      "duration": 0.833,
      "velocity": 0.6,
      "hand": "left"
    },
    {
      "midi": 56,
      "time": 43.5,
      "duration": 0.833,
      "velocity": 0.6,
      "hand": "left"
    },
    {
      "midi": 62,
      "time": 43.5,
      "duration": 0.833,
      "velocity": 0.54,
      "hand": "right"
    },
    {
      "midi": 65,
      "time": 43.5,
      "duration": 0.833,
      "velocity": 0.54,
      "hand": "right"
    },
    {
      "midi": 51,
      "time": 44.333,
      "duration": 1.833,
      "velocity": 0.61,
      "hand": "left"
    },
    {
      "midi": 55,
      "time": 44.333,
      "duration": 1.833,
      "velocity": 0.61,
      "hand": "left"
    },
    {
      "midi": 63,
      "time": 44.333,
      "duration": 1.833,
      "velocity": 0.57,
      "hand": "right"
    }
  ]
}
