{
  "id": "coroai",
  "title": "Coroai",
  "artist": "Matthew Bridges",
  "difficulty": "Médio",
  "bpm": 100,
  "duration": 38,
  "category": "Religiosos",
  "isPremium": false,
  "coverUrl": "/images/covers/placeholder.png",
  "notes": [
    {
      "midi": 52,
      "time": 0,
      "duration": 0.6,
      "velocity": 0.56,
      "hand": "left"
    },
    {
      "midi": 56,
      "time": 0,
      "duration": 0.6,
      "velocity": 0.56,
      "hand": "left"
    },
    {
      "midi": 59,
      "time": 0,
      "duration": 0.6,
      "velocity": 0.54,
      "hand": "left"
    },
    {
      "midi": 64,
      "time": 0,
      "duration": 0.6,
      "velocity": 0.54,
      "hand": "right"
    },
    {
      "midi": 52,
      "time": 0.6,
      "duration": 0.3,
      "velocity": 0.54,
      "hand": "left"
    },
    {
      "midi": 56,
      "time": 0.6,
      "duration": 0.3,
      "velocity": 0.54,
      "hand": "left"
    },
    {
      "midi": 59,
      "time": 0.6,
      "duration": 0.3,
      "velocity": 0.61,
      "hand": "left"
    },
    {
      "midi": 64,
      "time": 0.6,
      "duration": 0.3,
      "velocity": 0.61,
      "hand": "right"
    },
    {
      "midi": 52,
      "time": 0.9,
      "duration": 0.3,
      "velocity": 0.61,
      "hand": "left"
    },
    {
      "midi": 56,
      "time": 0.9,
      "duration": 0.3,
      "velocity": 0.61,
      "hand": "left"
    },
    {
      "midi": 59,
      "time": 0.9,
      "duration": 0.3,
      "velocity": 0.62,
      "hand": "left"
    },
    {
      "midi": 64,
      "time": 0.9,
      "duration": 0.3,
      "velocity": 0.62,
      "hand": "right"
    },
    {
      "midi": 49,
      "time": 1.2,
      "duration": 0.6,
      "velocity": 0.58,
      "hand": "left"
    },
    {
      "midi": 56,
      "time": 1.2,
      "duration": 0.6,
      "velocity": 0.58,
      "hand": "left"
    },
    {
      "midi": 64,
      "time": 1.2,
      "duration": 0.6,
      "velocity": 0.66,
      "hand": "right"
    },
    {
      "midi": 68,
      "time": 1.2,
      "duration": 0.6,
      "velocity": 0.66,
      "hand": "right"
    },
    {
      "midi": 49,
      "time": 1.8,
      "duration": 0.6,
      "velocity": 0.63,
      "hand": "left"
    },
    {
      "midi": 56,
      "time": 1.8,
      "duration": 0.6,
      "velocity": 0.63,
      "hand": "left"
    },
    {
      "midi": 64,
      "time": 1.8,
      "duration": 0.6,
      "velocity": 0.61,
      "hand": "right"
    },
    {
      "midi": 68,
      "time": 1.8,
      "duration": 0.6,
      "velocity": 0.61,
      "hand": "right"
    },
    {
      "midi": 45,
      "time": 2.4,
      "duration": 1.8,
      "velocity": 0.63,
      "hand": "left"
    },
    {
      "midi": 57,
      "time": 2.4,
      "duration": 1.8,
      "velocity": 0.63,
      "hand": "left"
    },
    {
      "midi": 64,
      "time": 2.4,
      "duration": 1.8,
      "velocity": 0.71,
      "hand": "right"
    },
    {
      "midi": 73,
      "time": 2.4,
      "duration": 1.8,
      "velocity": 0.71,
      "hand": "right"
    },
    {
      "midi": 57,
      "time": 4.2,
      "duration": 0.6,
      "velocity": 0.58,
      "hand": "left"
    },
    {
      "midi": 64,
      "time": 4.2,
      "duration": 0.6,
      "velocity": 0.61,
      "hand": "right"
    },
    {
      "midi": 73,
      "time": 4.2,
      "duration": 0.6,
      "velocity": 0.61,
      "hand": "right"
    },
    {
      "midi": 56,
      "time": 4.8,
      "duration": 0.6,
      "velocity": 0.62,
      "hand": "left"
    },
    {
      "midi": 59,
      "time": 4.8,
      "duration": 0.6,
      "velocity": 0.62,
      "hand": "left"
    },
    {
      "midi": 64,
      "time": 4.8,
      "duration": 0.6,
      "velocity": 0.57,
      "hand": "right"
    },
    {
      "midi": 71,
      "time": 4.8,
      "duration": 0.6,
      "velocity": 0.57,
      "hand": "right"
    },
    {
      "midi": 57,
      "time": 5.4,
      "duration": 0.6,
      "velocity": 0.6,
      "hand": "left"
    },
    {
      "midi": 61,
      "time": 5.4,
      "duration": 0.6,
      "velocity": 0.6,
      "hand": "right"
    },
    {
      "midi": 64,
      "time": 5.4,
      "duration": 0.6,
      "velocity": 0.48,
      "hand": "right"
    },
    {
      "midi": 54,
      "time": 6,
      "duration": 0.6,
      "velocity": 0.53,
      "hand": "left"
    },
    {
      "midi": 57,
      "time": 6,
      "duration": 0.6,
      "velocity": 0.53,
      "hand": "left"
    },
    {
      "midi": 63,
      "time": 6,
      "duration": 0.6,
      "velocity": 0.69,
      "hand": "right"
    },
    {
      "midi": 69,
      "time": 6,
      "duration": 0.6,
      "velocity": 0.69,
      "hand": "right"
    },
    {
      "midi": 52,
      "time": 6.6,
      "duration": 0.6,
      "velocity": 0.61,
      "hand": "left"
    },
    {
      "midi": 59,
      "time": 6.6,
      "duration": 0.6,
      "velocity": 0.61,
      "hand": "left"
    },
    {
      "midi": 64,
      "time": 6.6,
      "duration": 0.6,
      "velocity": 0.57,
      "hand": "right"
    },
    {
      "midi": 68,
      "time": 6.6,
      "duration": 0.6,
      "velocity": 0.57,
      "hand": "right"
    },
    {
      "midi": 47,
      "time": 7.2,
      "duration": 1.8,
      "velocity": 0.61,
      "hand": "left"
    },
    {
      "midi": 59,
      "time": 7.2,
      "duration": 1.8,
      "velocity": 0.61,
      "hand": "left"
    },
    {
      "midi": 63,
      "time": 7.2,
      "duration": 1.8,
      "velocity": 0.56,
      "hand": "right"
    },
    {
      "midi": 66,
      "time": 7.2,
      "duration": 1.8,
      "velocity": 0.56,
      "hand": "right"
    },
    {
      "midi": 47,
      "time": 9,
      "duration": 0.6,
      "velocity": 0.6,
      "hand": "left"
    },
    {
      "midi": 59,
      "time": 9,
      "duration": 0.6,
      "velocity": 0.6,
      "hand": "left"
    },
    {
      "midi": 63,
      "time": 9,
      "duration": 0.6,
      "velocity": 0.61,
      "hand": "right"
    },
    {
      "midi": 66,
      "time": 9,
      "duration": 0.6,
      "velocity": 0.61,
      "hand": "right"
    },
    {
      "midi": 52,
      "time": 9.6,
      "duration": 0.6,
      "velocity": 0.61,
      "hand": "left"
    },
    {
      "midi": 59,
      "time": 9.6,
      "duration": 0.6,
      "velocity": 0.61,
      "hand": "left"
    },
    {
      "midi": 64,
      "time": 9.6,
      "duration": 0.6,
      "velocity": 0.61,
      "hand": "right"
    },
    {
      "midi": 68,
      "time": 9.6,
      "duration": 0.6,
      "velocity": 0.61,
      "hand": "right"
    },
    {
      "midi": 51,
      "time": 10.2,
      "duration": 0.6,
      "velocity": 0.61,
      "hand": "left"
    },
    {
      "midi": 59,
      "time": 10.2,
      "duration": 0.6,
      "velocity": 0.61,
      "hand": "left"
    },
    {
      "midi": 66,
      "time": 10.2,
      "duration": 0.6,
      "velocity": 0.62,
      "hand": "right"
    },
    {
      "midi": 71,
      "time": 10.2,
      "duration": 0.6,
      "velocity": 0.62,
      "hand": "right"
    },
    {
      "midi": 49,
      "time": 10.8,
      "duration": 0.6,
      "velocity": 0.6,
      "hand": "left"
    },
    {
      "midi": 56,
      "time": 10.8,
      "duration": 0.6,
      "velocity": 0.6,
      "hand": "left"
    },
    {
      "midi": 64,
      "time": 10.8,
      "duration": 0.6,
      "velocity": 0.63,
      "hand": "right"
    },
    {
      "midi": 73,
      "time": 10.8,
      "duration": 0.6,
      "velocity": 0.63,
      "hand": "right"
    },
    {
      "midi": 52,
      "time": 11.4,
      "duration": 0.6,
      "velocity": 0.6,
      "hand": "left"
    },
    {
      "midi": 56,
      "time": 11.4,
      "duration": 0.6,
      "velocity": 0.6,
      "hand": "left"
    },
    {
      "midi": 64,
      "time": 11.4,
      "duration": 0.6,
      "velocity": 0.58,
      "hand": "right"
    },
    {
      "midi": 71,
      "time": 11.4,
      "duration": 0.6,
      "velocity": 0.58,
      "hand": "right"
    },
    {
      "midi": 54,
      "time": 12,
      "duration": 0.6,
      "velocity": 0.65,
      "hand": "left"
    },
    {
      "midi": 58,
      "time": 12,
      "duration": 0.6,
      "velocity": 0.65,
      "hand": "left"
    },
    {
      "midi": 61,
      "time": 12,
      "duration": 0.6,
      "velocity": 0.51,
      "hand": "right"
    },
    {
      "midi": 70,
      "time": 12,
      "duration": 0.6,
      "velocity": 0.51,
      "hand": "right"
    },
    {
      "midi": 52,
      "time": 12.6,
      "duration": 0.6,
      "velocity": 0.59,
      "hand": "left"
    },
    {
      "midi": 58,
      "time": 12.6,
      "duration": 0.6,
      "velocity": 0.59,
      "hand": "left"
    },
    {
      "midi": 61,
      "time": 12.6,
      "duration": 0.6,
      "velocity": 0.55,
      "hand": "right"
    },
    {
      "midi": 68,
      "time": 12.6,
      "duration": 0.3,
      "velocity": 0.54,
      "hand": "right"
    },
    {
      "midi": 66,
      "time": 12.9,
      "duration": 0.3,
      "velocity": 0.56,
      "hand": "right"
    },
    {
      "midi": 51,
      "time": 13.2,
      "duration": 0.6,
      "velocity": 0.59,
      "hand": "left"
    },
    {
      "midi": 59,
      "time": 13.2,
      "duration": 0.6,
      "velocity": 0.59,
      "hand": "left"
    },
    {
      "midi": 66,
      "time": 13.2,
      "duration": 0.6,
      "velocity": 0.7,
      "hand": "right"
    },
    {
      "midi": 71,
      "time": 13.2,
      "duration": 0.6,
      "velocity": 0.7,
      "hand": "right"
    },
    {
      "midi": 49,
      "time": 13.8,
      "duration": 0.6,
      "velocity": 0.6,
      "hand": "left"
    },
    {
      "midi": 58,
      "time": 13.8,
      "duration": 0.6,
      "velocity": 0.6,
      "hand": "left"
    },
    {
      "midi": 64,
      "time": 13.8,
      "duration": 0.6,
      "velocity": 0.7,
      "hand": "right"
    },
    {
      "midi": 76,
      "time": 13.8,
      "duration": 0.6,
      "velocity": 0.7,
      "hand": "right"
    },
    {
      "midi": 47,
      "time": 14.4,
      "duration": 0.6,
      "velocity": 0.61,
      "hand": "left"
    },
    {
      "midi": 59,
      "time": 14.4,
      "duration": 0.6,
      "velocity": 0.61,
      "hand": "left"
    },
    {
      "midi": 66,
      "time": 14.4,
      "duration": 0.6,
      "velocity": 0.6,
      "hand": "right"
    },
    {
      "midi": 75,
      "time": 14.4,
      "duration": 0.6,
      "velocity": 0.6,
      "hand": "right"
    },
    {
      "midi": 52,
      "time": 15,
      "duration": 0.6,
      "velocity": 0.61,
      "hand": "left"
    },
    {
      "midi": 59,
      "time": 15,
      "duration": 0.6,
      "velocity": 0.61,
      "hand": "left"
    },
    {
      "midi": 68,
      "time": 15,
      "duration": 0.6,
      "velocity": 0.69,
      "hand": "right"
    },
    {
      "midi": 76,
      "time": 15,
      "duration": 0.6,
      "velocity": 0.69,
      "hand": "right"
    },
    {
      "midi": 54,
      "time": 15.6,
      "duration": 0.6,
      "velocity": 0.6,
      "hand": "left"
    },
    {
      "midi": 59,
      "time": 15.6,
      "duration": 0.6,
      "velocity": 0.6,
      "hand": "left"
    },
    {
      "midi": 61,
      "time": 15.6,
      "duration": 0.6,
      "velocity": 0.5,
      "hand": "right"
    },
    {
      "midi": 73,
      "time": 15.6,
      "duration": 0.6,
      "velocity": 0.5,
      "hand": "right"
    },
    {
      "midi": 54,
      "time": 16.2,
      "duration": 0.6,
      "velocity": 0.6,
      "hand": "left"
    },
    {
      "midi": 58,
      "time": 16.2,
      "duration": 0.6,
      "velocity": 0.6,
      "hand": "left"
    },
    {
      "midi": 66,
      "time": 16.2,
      "duration": 0.6,
      "velocity": 0.6,
      "hand": "right"
    },
    {
      "midi": 73,
      "time": 16.2,
      "duration": 0.6,
      "velocity": 0.6,
      "hand": "right"
    },
    {
      "midi": 47,
      "time": 16.8,
      "duration": 1.8,
      "velocity": 0.61,
      "hand": "left"
    },
    {
      "midi": 59,
      "time": 16.8,
      "duration": 1.8,
      "velocity": 0.61,
      "hand": "left"
    },
    {
      "midi": 63,
      "time": 16.8,
      "duration": 1.8,
      "velocity": 0.56,
      "hand": "right"
    },
    {
      "midi": 71,
      "time": 16.8,
      "duration": 1.8,
      "velocity": 0.56,
      "hand": "right"
    },
    {
      "midi": 57,
      "time": 18.6,
      "duration": 0.6,
      "velocity": 0.61,
      "hand": "left"
    },
    {
      "midi": 59,
      "time": 18.6,
      "duration": 0.6,
      "velocity": 0.61,
      "hand": "left"
    },
    {
      "midi": 63,
      "time": 18.6,
      "duration": 0.6,
      "velocity": 0.6,
      "hand": "right"
    },
    {
      "midi": 71,
      "time": 18.6,
      "duration": 0.6,
      "velocity": 0.6,
      "hand": "right"
    },
    {
      "midi": 56,
      "time": 19.2,
      "duration": 0.6,
      "velocity": 0.57,
      "hand": "left"
    },
    {
      "midi": 59,
      "time": 19.2,
      "duration": 0.6,
      "velocity": 0.57,
      "hand": "left"
    },
    {
      "midi": 64,
      "time": 19.2,
      "duration": 0.6,
      "velocity": 0.61,
      "hand": "right"
    },
    {
      "midi": 71,
      "time": 19.2,
      "duration": 0.6,
      "velocity": 0.61,
      "hand": "right"
    },
    {
      "midi": 52,
      "time": 19.8,
      "duration": 0.6,
      "velocity": 0.61,
      "hand": "left"
    },
    {
      "midi": 59,
      "time": 19.8,
      "duration": 0.6,
      "velocity": 0.61,
      "hand": "left"
    },
    {
      "midi": 64,
      "time": 19.8,
      "duration": 0.6,
      "velocity": 0.54,
      "hand": "right"
    },
    {
      "midi": 68,
      "time": 19.8,
      "duration": 0.6,
      "velocity": 0.54,
      "hand": "right"
    },
    {
      "midi": 54,
      "time": 20.4,
      "duration": 0.6,
      "velocity": 0.59,
      "hand": "left"
    },
    {
      "midi": 57,
      "time": 20.4,
      "duration": 0.6,
      "velocity": 0.59,
      "hand": "left"
    },
    {
      "midi": 63,
      "time": 20.4,
      "duration": 0.6,
      "velocity": 0.54,
      "hand": "right"
    },
    {
      "midi": 66,
      "time": 20.4,
      "duration": 0.6,
      "velocity": 0.54,
      "hand": "right"
    },
    {
      "midi": 56,
      "time": 21,
      "duration": 0.6,
      "velocity": 0.61,
      "hand": "left"
    },
    {
      "midi": 59,
      "time": 21,
      "duration": 0.6,
      "velocity": 0.61,
      "hand": "left"
    },
    {
      "midi": 64,
      "time": 21,
      "duration": 0.6,
      "velocity": 0.57,
      "hand": "right"
    },
    {
      "midi": 57,
      "time": 21.6,
      "duration": 1.8,
      "velocity": 0.63,
      "hand": "left"
    },
    {
      "midi": 61,
      "time": 21.6,
      "duration": 1.8,
      "velocity": 0.63,
      "hand": "right"
    },
    {
      "midi": 64,
      "time": 21.6,
      "duration": 1.8,
      "velocity": 0.73,
      "hand": "right"
    },
    {
      "midi": 73,
      "time": 21.6,
      "duration": 1.8,
      "velocity": 0.73,
      "hand": "right"
    },
    {
      "midi": 56,
      "time": 23.4,
      "duration": 0.6,
      "velocity": 0.61,
      "hand": "left"
    },
    {
      "midi": 59,
      "time": 23.4,
      "duration": 0.6,
      "velocity": 0.61,
      "hand": "left"
    },
    {
      "midi": 65,
      "time": 23.4,
      "duration": 0.6,
      "velocity": 0.62,
      "hand": "right"
    },
    {
      "midi": 73,
      "time": 23.4,
      "duration": 0.6,
      "velocity": 0.62,
      "hand": "right"
    },
    {
      "midi": 54,
      "time": 24,
      "duration": 0.6,
      "velocity": 0.6,
      "hand": "left"
    },
    {
      "midi": 58,
      "time": 24,
      "duration": 0.6,
      "velocity": 0.6,
      "hand": "left"
    },
    {
      "midi": 66,
      "time": 24,
      "duration": 0.6,
      "velocity": 0.61,
      "hand": "right"
    },
    {
      "midi": 73,
      "time": 24,
      "duration": 0.6,
      "velocity": 0.61,
      "hand": "right"
    },
    {
      "midi": 54,
      "time": 24.6,
      "duration": 0.6,
      "velocity": 0.64,
      "hand": "left"
    },
    {
      "midi": 61,
      "time": 24.6,
      "duration": 0.6,
      "velocity": 0.64,
      "hand": "right"
    },
    {
      "midi": 66,
      "time": 24.6,
      "duration": 0.6,
      "velocity": 0.52,
      "hand": "right"
    },
    {
      "midi": 70,
      "time": 24.6,
      "duration": 0.6,
      "velocity": 0.52,
      "hand": "right"
    },
    {
      "midi": 56,
      "time": 25.2,
      "duration": 0.6,
      "velocity": 0.58,
      "hand": "left"
    },
    {
      "midi": 59,
      "time": 25.2,
      "duration": 0.6,
      "velocity": 0.58,
      "hand": "left"
    },
    {
      "midi": 64,
      "time": 25.2,
      "duration": 0.6,
      "velocity": 0.55,
      "hand": "right"
    },
    {
      "midi": 68,
      "time": 25.2,
      "duration": 0.6,
      "velocity": 0.55,
      "hand": "right"
    },
    {
      "midi": 58,
      "time": 25.8,
      "duration": 0.6,
      "velocity": 0.61,
      "hand": "left"
    },
    {
      "midi": 61,
      "time": 25.8,
      "duration": 0.6,
      "velocity": 0.61,
      "hand": "right"
    },
    {
      "midi": 66,
      "time": 25.8,
      "duration": 0.6,
      "velocity": 0.54,
      "hand": "right"
    },
    {
      "midi": 59,
      "time": 26.4,
      "duration": 1.8,
      "velocity": 0.59,
      "hand": "left"
    },
    {
      "midi": 66,
      "time": 26.4,
      "duration": 1.8,
      "velocity": 0.72,
      "hand": "right"
    },
    {
      "midi": 75,
      "time": 26.4,
      "duration": 1.8,
      "velocity": 0.72,
      "hand": "right"
    },
    {
      "midi": 57,
      "time": 28.2,
      "duration": 0.6,
      "velocity": 0.61,
      "hand": "left"
    },
    {
      "midi": 59,
      "time": 28.2,
      "duration": 0.6,
      "velocity": 0.61,
      "hand": "left"
    },
    {
      "midi": 66,
      "time": 28.2,
      "duration": 0.6,
      "velocity": 0.57,
      "hand": "right"
    },
    {
      "midi": 75,
      "time": 28.2,
      "duration": 0.6,
      "velocity": 0.57,
      "hand": "right"
    },
    {
      "midi": 56,
      "time": 28.8,
      "duration": 0.9,
      "velocity": 0.59,
      "hand": "left"
    },
    {
      "midi": 59,
      "time": 28.8,
      "duration": 0.9,
      "velocity": 0.59,
      "hand": "left"
    },
    {
      "midi": 64,
      "time": 28.8,
      "duration": 0.9,
      "velocity": 0.62,
      "hand": "right"
    },
    {
      "midi": 76,
      "time": 28.8,
      "duration": 0.9,
      "velocity": 0.62,
      "hand": "right"
    },
    {
      "midi": 56,
      "time": 29.7,
      "duration": 0.3,
      "velocity": 0.59,
      "hand": "left"
    },
    {
      "midi": 59,
      "time": 29.7,
      "duration": 0.3,
      "velocity": 0.59,
      "hand": "left"
    },
    {
      "midi": 64,
      "time": 29.7,
      "duration": 0.3,
      "velocity": 0.56,
      "hand": "right"
    },
    {
      "midi": 75,
      "time": 29.7,
      "duration": 0.3,
      "velocity": 0.56,
      "hand": "right"
    },
    {
      "midi": 57,
      "time": 30,
      "duration": 0.6,
      "velocity": 0.62,
      "hand": "left"
    },
    {
      "midi": 64,
      "time": 30,
      "duration": 0.6,
      "velocity": 0.57,
      "hand": "right"
    },
    {
      "midi": 73,
      "time": 30,
      "duration": 0.6,
      "velocity": 0.57,
      "hand": "right"
    },
    {
      "midi": 56,
      "time": 30.6,
      "duration": 0.6,
      "velocity": 0.6,
      "hand": "left"
    },
    {
      "midi": 59,
      "time": 30.6,
      "duration": 0.6,
      "velocity": 0.6,
      "hand": "left"
    },
    {
      "midi": 64,
      "time": 30.6,
      "duration": 0.6,
      "velocity": 0.54,
      "hand": "right"
    },
    {
      "midi": 71,
      "time": 30.6,
      "duration": 0.6,
      "velocity": 0.54,
      "hand": "right"
    },
    {
      "midi": 54,
      "time": 31.2,
      "duration": 0.6,
      "velocity": 0.63,
      "hand": "left"
    },
    {
      "midi": 61,
      "time": 31.2,
      "duration": 0.6,
      "velocity": 0.63,
      "hand": "right"
    },
    {
      "midi": 64,
      "time": 31.2,
      "duration": 0.6,
      "velocity": 0.54,
      "hand": "right"
    },
    {
      "midi": 69,
      "time": 31.2,
      "duration": 0.6,
      "velocity": 0.54,
      "hand": "right"
    },
    {
      "midi": 59,
      "time": 31.8,
      "duration": 0.6,
      "velocity": 0.57,
      "hand": "left"
    },
    {
      "midi": 63,
      "time": 31.8,
      "duration": 0.6,
      "velocity": 0.55,
      "hand": "right"
    },
    {
      "midi": 66,
      "time": 31.8,
      "duration": 0.6,
      "velocity": 0.55,
      "hand": "right"
    },
    {
      "midi": 52,
      "time": 32.4,
      "duration": 0.6,
      "velocity": 0.62,
      "hand": "left"
    },
    {
      "midi": 59,
      "time": 32.4,
      "duration": 0.6,
      "velocity": 0.62,
      "hand": "left"
    },
    {
      "midi": 64,
      "time": 32.4,
      "duration": 0.6,
      "velocity": 0.61,
      "hand": "right"
    },
    {
      "midi": 68,
      "time": 32.4,
      "duration": 0.6,
      "velocity": 0.61,
      "hand": "right"
    },
    {
      "midi": 44,
      "time": 33,
      "duration": 0.6,
      "velocity": 0.63,
      "hand": "left"
    },
    {
      "midi": 59,
      "time": 33,
      "duration": 0.6,
      "velocity": 0.63,
      "hand": "left"
    },
    {
      "midi": 64,
      "time": 33,
      "duration": 0.6,
      "velocity": 0.67,
      "hand": "right"
    },
    {
      "midi": 71,
      "time": 33,
      "duration": 0.6,
      "velocity": 0.67,
      "hand": "right"
    },
    {
      "midi": 45,
      "time": 33.6,
      "duration": 0.6,
      "velocity": 0.62,
      "hand": "left"
    },
    {
      "midi": 61,
      "time": 33.6,
      "duration": 0.6,
      "velocity": 0.62,
      "hand": "right"
    },
    {
      "midi": 64,
      "time": 33.6,
      "duration": 0.6,
      "velocity": 0.58,
      "hand": "right"
    },
    {
      "midi": 69,
      "time": 33.6,
      "duration": 0.6,
      "velocity": 0.58,
      "hand": "right"
    },
    {
      "midi": 52,
      "time": 34.2,
      "duration": 0.6,
      "velocity": 0.58,
      "hand": "left"
    },
    {
      "midi": 59,
      "time": 34.2,
      "duration": 0.6,
      "velocity": 0.58,
      "hand": "left"
    },
    {
      "midi": 64,
      "time": 34.2,
      "duration": 0.6,
      "velocity": 0.54,
      "hand": "right"
    },
    {
      "midi": 68,
      "time": 34.2,
      "duration": 0.6,
      "velocity": 0.54,
      "hand": "right"
    },
    {
      "midi": 47,
      "time": 34.8,
      "duration": 0.6,
      "velocity": 0.5,
      "hand": "left"
    },
    {
      "midi": 59,
      "time": 34.8,
      "duration": 0.9,
      "velocity": 0.61,
      "hand": "left"
    },
    {
      "midi": 64,
      "time": 34.8,
      "duration": 0.6,
      "velocity": 0.56,
      "hand": "right"
    },
    {
      "midi": 66,
      "time": 34.8,
      "duration": 0.6,
      "velocity": 0.56,
      "hand": "right"
    },
    {
      "midi": 47,
      "time": 35.4,
      "duration": 0.6,
      "velocity": 0.54,
      "hand": "left"
    },
    {
      "midi": 63,
      "time": 35.4,
      "duration": 0.6,
      "velocity": 0.6,
      "hand": "right"
    },
    {
      "midi": 66,
      "time": 35.4,
      "duration": 0.6,
      "velocity": 0.6,
      "hand": "right"
    },
    {
      "midi": 57,
      "time": 35.7,
      "duration": 0.3,
      "velocity": 0.54,
      "hand": "left"
    },
    {
      "midi": 52,
      "time": 36,
      "duration": 2.4,
      "velocity": 0.57,
      "hand": "left"
    },
    {
      "midi": 56,
      "time": 36,
      "duration": 2.4,
      "velocity": 0.57,
      "hand": "left"
    },
    {
      "midi": 64,
      "time": 36,
      "duration": 2.4,
      "velocity": 0.56,
      "hand": "right"
    }
  ],
  "arrangements": {
    "easy": [
      {
        "midi": 64,
        "time": 0,
        "duration": 0.6,
        "velocity": 0.54,
        "hand": "right"
      },
      {
        "midi": 64,
        "time": 0.6,
        "duration": 0.3,
        "velocity": 0.61,
        "hand": "right"
      },
      {
        "midi": 64,
        "time": 0.9,
        "duration": 0.3,
        "velocity": 0.62,
        "hand": "right"
      },
      {
        "midi": 68,
        "time": 1.2,
        "duration": 0.6,
        "velocity": 0.66,
        "hand": "right"
      },
      {
        "midi": 68,
        "time": 1.8,
        "duration": 0.6,
        "velocity": 0.61,
        "hand": "right"
      },
      {
        "midi": 73,
        "time": 2.4,
        "duration": 1.8,
        "velocity": 0.71,
        "hand": "right"
      },
      {
        "midi": 73,
        "time": 4.2,
        "duration": 0.6,
        "velocity": 0.61,
        "hand": "right"
      },
      {
        "midi": 71,
        "time": 4.8,
        "duration": 0.6,
        "velocity": 0.57,
        "hand": "right"
      },
      {
        "midi": 64,
        "time": 5.4,
        "duration": 0.6,
        "velocity": 0.48,
        "hand": "right"
      },
      {
        "midi": 69,
        "time": 6,
        "duration": 0.6,
        "velocity": 0.69,
        "hand": "right"
      },
      {
        "midi": 68,
        "time": 6.6,
        "duration": 0.6,
        "velocity": 0.57,
        "hand": "right"
      },
      {
        "midi": 66,
        "time": 7.2,
        "duration": 1.8,
        "velocity": 0.56,
        "hand": "right"
      },
      {
        "midi": 66,
        "time": 9,
        "duration": 0.6,
        "velocity": 0.61,
        "hand": "right"
      },
      {
        "midi": 68,
        "time": 9.6,
        "duration": 0.6,
        "velocity": 0.61,
        "hand": "right"
      },
      {
        "midi": 71,
        "time": 10.2,
        "duration": 0.6,
        "velocity": 0.62,
        "hand": "right"
      },
      {
        "midi": 73,
        "time": 10.8,
        "duration": 0.6,
        "velocity": 0.63,
        "hand": "right"
      },
      {
        "midi": 71,
        "time": 11.4,
        "duration": 0.6,
        "velocity": 0.58,
        "hand": "right"
      },
      {
        "midi": 70,
        "time": 12,
        "duration": 0.6,
        "velocity": 0.51,
        "hand": "right"
      },
      {
        "midi": 68,
        "time": 12.6,
        "duration": 0.3,
        "velocity": 0.54,
        "hand": "right"
      },
      {
        "midi": 66,
        "time": 12.9,
        "duration": 0.3,
        "velocity": 0.56,
        "hand": "right"
      },
      {
        "midi": 71,
        "time": 13.2,
        "duration": 0.6,
        "velocity": 0.7,
        "hand": "right"
      },
      {
        "midi": 76,
        "time": 13.8,
        "duration": 0.6,
        "velocity": 0.7,
        "hand": "right"
      },
      {
        "midi": 75,
        "time": 14.4,
        "duration": 0.6,
        "velocity": 0.6,
        "hand": "right"
      },
      {
        "midi": 76,
        "time": 15,
        "duration": 0.6,
        "velocity": 0.69,
        "hand": "right"
      },
      {
        "midi": 73,
        "time": 15.6,
        "duration": 0.6,
        "velocity": 0.5,
        "hand": "right"
      },
      {
        "midi": 73,
        "time": 16.2,
        "duration": 0.6,
        "velocity": 0.6,
        "hand": "right"
      },
      {
        "midi": 71,
        "time": 16.8,
        "duration": 1.8,
        "velocity": 0.56,
        "hand": "right"
      },
      {
        "midi": 71,
        "time": 18.6,
        "duration": 0.6,
        "velocity": 0.6,
        "hand": "right"
      },
      {
        "midi": 71,
        "time": 19.2,
        "duration": 0.6,
        "velocity": 0.61,
        "hand": "right"
      },
      {
        "midi": 68,
        "time": 19.8,
        "duration": 0.6,
        "velocity": 0.54,
        "hand": "right"
      },
      {
        "midi": 66,
        "time": 20.4,
        "duration": 0.6,
        "velocity": 0.54,
        "hand": "right"
      },
      {
        "midi": 64,
        "time": 21,
        "duration": 0.6,
        "velocity": 0.57,
        "hand": "right"
      },
      {
        "midi": 73,
        "time": 21.6,
        "duration": 1.8,
        "velocity": 0.73,
        "hand": "right"
      },
      {
        "midi": 73,
        "time": 23.4,
        "duration": 0.6,
        "velocity": 0.62,
        "hand": "right"
      },
      {
        "midi": 73,
        "time": 24,
        "duration": 0.6,
        "velocity": 0.61,
        "hand": "right"
      },
      {
        "midi": 70,
        "time": 24.6,
        "duration": 0.6,
        "velocity": 0.52,
        "hand": "right"
      },
      {
        "midi": 68,
        "time": 25.2,
        "duration": 0.6,
        "velocity": 0.55,
        "hand": "right"
      },
      {
        "midi": 66,
        "time": 25.8,
        "duration": 0.6,
        "velocity": 0.54,
        "hand": "right"
      },
      {
        "midi": 75,
        "time": 26.4,
        "duration": 1.8,
        "velocity": 0.72,
        "hand": "right"
      },
      {
        "midi": 75,
        "time": 28.2,
        "duration": 0.6,
        "velocity": 0.57,
        "hand": "right"
      },
      {
        "midi": 76,
        "time": 28.8,
        "duration": 0.9,
        "velocity": 0.62,
        "hand": "right"
      },
      {
        "midi": 75,
        "time": 29.7,
        "duration": 0.3,
        "velocity": 0.56,
        "hand": "right"
      },
      {
        "midi": 73,
        "time": 30,
        "duration": 0.6,
        "velocity": 0.57,
        "hand": "right"
      },
      {
        "midi": 71,
        "time": 30.6,
        "duration": 0.6,
        "velocity": 0.54,
        "hand": "right"
      },
      {
        "midi": 69,
        "time": 31.2,
        "duration": 0.6,
        "velocity": 0.54,
        "hand": "right"
      },
      {
        "midi": 66,
        "time": 31.8,
        "duration": 0.6,
        "velocity": 0.55,
        "hand": "right"
      },
      {
        "midi": 68,
        "time": 32.4,
        "duration": 0.6,
        "velocity": 0.61,
        "hand": "right"
      },
      {
        "midi": 71,
        "time": 33,
        "duration": 0.6,
        "velocity": 0.67,
        "hand": "right"
      },
      {
        "midi": 69,
        "time": 33.6,
        "duration": 0.6,
        "velocity": 0.58,
        "hand": "right"
      },
      {
        "midi": 68,
        "time": 34.2,
        "duration": 0.6,
        "velocity": 0.54,
        "hand": "right"
      },
      {
        "midi": 66,
        "time": 34.8,
        "duration": 0.6,
        "velocity": 0.56,
        "hand": "right"
      },
      {
        "midi": 66,
        "time": 35.4,
        "duration": 0.6,
        "velocity": 0.6,
        "hand": "right"
      },
      {
        "midi": 57,
        "time": 35.7,
        "duration": 0.3,
        "velocity": 0.54,
        "hand": "right"
      },
      {
        "midi": 64,
        "time": 36,
        "duration": 2.4,
        "velocity": 0.56,
        "hand": "right"
      }
    ],
    "medium": [
      {
        "midi": 52,
        "time": 0,
        "duration": 0.6,
        "velocity": 0.56,
        "hand": "left"
      },
      {
        "midi": 59,
        "time": 0,
        "duration": 0.6,
        "velocity": 0.54,
        "hand": "left"
      },
      {
        "midi": 64,
        "time": 0,
        "duration": 0.6,
        "velocity": 0.54,
        "hand": "right"
      },
      {
        "midi": 52,
        "time": 0.6,
        "duration": 0.3,
        "velocity": 0.54,
        "hand": "left"
      },
      {
        "midi": 59,
        "time": 0.6,
        "duration": 0.3,
        "velocity": 0.61,
        "hand": "left"
      },
      {
        "midi": 64,
        "time": 0.6,
        "duration": 0.3,
        "velocity": 0.61,
        "hand": "right"
      },
      {
        "midi": 52,
        "time": 0.9,
        "duration": 0.3,
        "velocity": 0.61,
        "hand": "left"
      },
      {
        "midi": 59,
        "time": 0.9,
        "duration": 0.3,
        "velocity": 0.62,
        "hand": "left"
      },
      {
        "midi": 64,
        "time": 0.9,
        "duration": 0.3,
        "velocity": 0.62,
        "hand": "right"
      },
      {
        "midi": 49,
        "time": 1.2,
        "duration": 0.6,
        "velocity": 0.58,
        "hand": "left"
      },
      {
        "midi": 64,
        "time": 1.2,
        "duration": 0.6,
        "velocity": 0.66,
        "hand": "right"
      },
      {
        "midi": 68,
        "time": 1.2,
        "duration": 0.6,
        "velocity": 0.66,
        "hand": "right"
      },
      {
        "midi": 49,
        "time": 1.8,
        "duration": 0.6,
        "velocity": 0.63,
        "hand": "left"
      },
      {
        "midi": 64,
        "time": 1.8,
        "duration": 0.6,
        "velocity": 0.61,
        "hand": "right"
      },
      {
        "midi": 68,
        "time": 1.8,
        "duration": 0.6,
        "velocity": 0.61,
        "hand": "right"
      },
      {
        "midi": 45,
        "time": 2.4,
        "duration": 1.8,
        "velocity": 0.63,
        "hand": "left"
      },
      {
        "midi": 64,
        "time": 2.4,
        "duration": 1.8,
        "velocity": 0.71,
        "hand": "right"
      },
      {
        "midi": 73,
        "time": 2.4,
        "duration": 1.8,
        "velocity": 0.71,
        "hand": "right"
      },
      {
        "midi": 57,
        "time": 4.2,
        "duration": 0.6,
        "velocity": 0.58,
        "hand": "left"
      },
      {
        "midi": 64,
        "time": 4.2,
        "duration": 0.6,
        "velocity": 0.61,
        "hand": "right"
      },
      {
        "midi": 73,
        "time": 4.2,
        "duration": 0.6,
        "velocity": 0.61,
        "hand": "right"
      },
      {
        "midi": 56,
        "time": 4.8,
        "duration": 0.6,
        "velocity": 0.62,
        "hand": "left"
      },
      {
        "midi": 64,
        "time": 4.8,
        "duration": 0.6,
        "velocity": 0.57,
        "hand": "right"
      },
      {
        "midi": 71,
        "time": 4.8,
        "duration": 0.6,
        "velocity": 0.57,
        "hand": "right"
      },
      {
        "midi": 57,
        "time": 5.4,
        "duration": 0.6,
        "velocity": 0.6,
        "hand": "left"
      },
      {
        "midi": 61,
        "time": 5.4,
        "duration": 0.6,
        "velocity": 0.6,
        "hand": "right"
      },
      {
        "midi": 64,
        "time": 5.4,
        "duration": 0.6,
        "velocity": 0.48,
        "hand": "right"
      },
      {
        "midi": 54,
        "time": 6,
        "duration": 0.6,
        "velocity": 0.53,
        "hand": "left"
      },
      {
        "midi": 63,
        "time": 6,
        "duration": 0.6,
        "velocity": 0.69,
        "hand": "right"
      },
      {
        "midi": 69,
        "time": 6,
        "duration": 0.6,
        "velocity": 0.69,
        "hand": "right"
      },
      {
        "midi": 52,
        "time": 6.6,
        "duration": 0.6,
        "velocity": 0.61,
        "hand": "left"
      },
      {
        "midi": 64,
        "time": 6.6,
        "duration": 0.6,
        "velocity": 0.57,
        "hand": "right"
      },
      {
        "midi": 68,
        "time": 6.6,
        "duration": 0.6,
        "velocity": 0.57,
        "hand": "right"
      },
      {
        "midi": 47,
        "time": 7.2,
        "duration": 1.8,
        "velocity": 0.61,
        "hand": "left"
      },
      {
        "midi": 63,
        "time": 7.2,
        "duration": 1.8,
        "velocity": 0.56,
        "hand": "right"
      },
      {
        "midi": 66,
        "time": 7.2,
        "duration": 1.8,
        "velocity": 0.56,
        "hand": "right"
      },
      {
        "midi": 47,
        "time": 9,
        "duration": 0.6,
        "velocity": 0.6,
        "hand": "left"
      },
      {
        "midi": 63,
        "time": 9,
        "duration": 0.6,
        "velocity": 0.61,
        "hand": "right"
      },
      {
        "midi": 66,
        "time": 9,
        "duration": 0.6,
        "velocity": 0.61,
        "hand": "right"
      },
      {
        "midi": 52,
        "time": 9.6,
        "duration": 0.6,
        "velocity": 0.61,
        "hand": "left"
      },
      {
        "midi": 64,
        "time": 9.6,
        "duration": 0.6,
        "velocity": 0.61,
        "hand": "right"
      },
      {
        "midi": 68,
        "time": 9.6,
        "duration": 0.6,
        "velocity": 0.61,
        "hand": "right"
      },
      {
        "midi": 51,
        "time": 10.2,
        "duration": 0.6,
        "velocity": 0.61,
        "hand": "left"
      },
      {
        "midi": 66,
        "time": 10.2,
        "duration": 0.6,
        "velocity": 0.62,
        "hand": "right"
      },
      {
        "midi": 71,
        "time": 10.2,
        "duration": 0.6,
        "velocity": 0.62,
        "hand": "right"
      },
      {
        "midi": 49,
        "time": 10.8,
        "duration": 0.6,
        "velocity": 0.6,
        "hand": "left"
      },
      {
        "midi": 64,
        "time": 10.8,
        "duration": 0.6,
        "velocity": 0.63,
        "hand": "right"
      },
      {
        "midi": 73,
        "time": 10.8,
        "duration": 0.6,
        "velocity": 0.63,
        "hand": "right"
      },
      {
        "midi": 52,
        "time": 11.4,
        "duration": 0.6,
        "velocity": 0.6,
        "hand": "left"
      },
      {
        "midi": 64,
        "time": 11.4,
        "duration": 0.6,
        "velocity": 0.58,
        "hand": "right"
      },
      {
        "midi": 71,
        "time": 11.4,
        "duration": 0.6,
        "velocity": 0.58,
        "hand": "right"
      },
      {
        "midi": 54,
        "time": 12,
        "duration": 0.6,
        "velocity": 0.65,
        "hand": "left"
      },
      {
        "midi": 61,
        "time": 12,
        "duration": 0.6,
        "velocity": 0.51,
        "hand": "right"
      },
      {
        "midi": 70,
        "time": 12,
        "duration": 0.6,
        "velocity": 0.51,
        "hand": "right"
      },
      {
        "midi": 52,
        "time": 12.6,
        "duration": 0.6,
        "velocity": 0.59,
        "hand": "left"
      },
      {
        "midi": 61,
        "time": 12.6,
        "duration": 0.6,
        "velocity": 0.55,
        "hand": "right"
      },
      {
        "midi": 68,
        "time": 12.6,
        "duration": 0.3,
        "velocity": 0.54,
        "hand": "right"
      },
      {
        "midi": 66,
        "time": 12.9,
        "duration": 0.3,
        "velocity": 0.56,
        "hand": "right"
      },
      {
        "midi": 51,
        "time": 13.2,
        "duration": 0.6,
        "velocity": 0.59,
        "hand": "left"
      },
      {
        "midi": 66,
        "time": 13.2,
        "duration": 0.6,
        "velocity": 0.7,
        "hand": "right"
      },
      {
        "midi": 71,
        "time": 13.2,
        "duration": 0.6,
        "velocity": 0.7,
        "hand": "right"
      },
      {
        "midi": 49,
        "time": 13.8,
        "duration": 0.6,
        "velocity": 0.6,
        "hand": "left"
      },
      {
        "midi": 64,
        "time": 13.8,
        "duration": 0.6,
        "velocity": 0.7,
        "hand": "right"
      },
      {
        "midi": 76,
        "time": 13.8,
        "duration": 0.6,
        "velocity": 0.7,
        "hand": "right"
      },
      {
        "midi": 47,
        "time": 14.4,
        "duration": 0.6,
        "velocity": 0.61,
        "hand": "left"
      },
      {
        "midi": 66,
        "time": 14.4,
        "duration": 0.6,
        "velocity": 0.6,
        "hand": "right"
      },
      {
        "midi": 75,
        "time": 14.4,
        "duration": 0.6,
        "velocity": 0.6,
        "hand": "right"
      },
      {
        "midi": 52,
        "time": 15,
        "duration": 0.6,
        "velocity": 0.61,
        "hand": "left"
      },
      {
        "midi": 68,
        "time": 15,
        "duration": 0.6,
        "velocity": 0.69,
        "hand": "right"
      },
      {
        "midi": 76,
        "time": 15,
        "duration": 0.6,
        "velocity": 0.69,
        "hand": "right"
      },
      {
        "midi": 54,
        "time": 15.6,
        "duration": 0.6,
        "velocity": 0.6,
        "hand": "left"
      },
      {
        "midi": 61,
        "time": 15.6,
        "duration": 0.6,
        "velocity": 0.5,
        "hand": "right"
      },
      {
        "midi": 73,
        "time": 15.6,
        "duration": 0.6,
        "velocity": 0.5,
        "hand": "right"
      },
      {
        "midi": 54,
        "time": 16.2,
        "duration": 0.6,
        "velocity": 0.6,
        "hand": "left"
      },
      {
        "midi": 66,
        "time": 16.2,
        "duration": 0.6,
        "velocity": 0.6,
        "hand": "right"
      },
      {
        "midi": 73,
        "time": 16.2,
        "duration": 0.6,
        "velocity": 0.6,
        "hand": "right"
      },
      {
        "midi": 47,
        "time": 16.8,
        "duration": 1.8,
        "velocity": 0.61,
        "hand": "left"
      },
      {
        "midi": 63,
        "time": 16.8,
        "duration": 1.8,
        "velocity": 0.56,
        "hand": "right"
      },
      {
        "midi": 71,
        "time": 16.8,
        "duration": 1.8,
        "velocity": 0.56,
        "hand": "right"
      },
      {
        "midi": 57,
        "time": 18.6,
        "duration": 0.6,
        "velocity": 0.61,
        "hand": "left"
      },
      {
        "midi": 63,
        "time": 18.6,
        "duration": 0.6,
        "velocity": 0.6,
        "hand": "right"
      },
      {
        "midi": 71,
        "time": 18.6,
        "duration": 0.6,
        "velocity": 0.6,
        "hand": "right"
      },
      {
        "midi": 56,
        "time": 19.2,
        "duration": 0.6,
        "velocity": 0.57,
        "hand": "left"
      },
      {
        "midi": 64,
        "time": 19.2,
        "duration": 0.6,
        "velocity": 0.61,
        "hand": "right"
      },
      {
        "midi": 71,
        "time": 19.2,
        "duration": 0.6,
        "velocity": 0.61,
        "hand": "right"
      },
      {
        "midi": 52,
        "time": 19.8,
        "duration": 0.6,
        "velocity": 0.61,
        "hand": "left"
      },
      {
        "midi": 64,
        "time": 19.8,
        "duration": 0.6,
        "velocity": 0.54,
        "hand": "right"
      },
      {
        "midi": 68,
        "time": 19.8,
        "duration": 0.6,
        "velocity": 0.54,
        "hand": "right"
      },
      {
        "midi": 54,
        "time": 20.4,
        "duration": 0.6,
        "velocity": 0.59,
        "hand": "left"
      },
      {
        "midi": 63,
        "time": 20.4,
        "duration": 0.6,
        "velocity": 0.54,
        "hand": "right"
      },
      {
        "midi": 66,
        "time": 20.4,
        "duration": 0.6,
        "velocity": 0.54,
        "hand": "right"
      },
      {
        "midi": 56,
        "time": 21,
        "duration": 0.6,
        "velocity": 0.61,
        "hand": "left"
      },
      {
        "midi": 59,
        "time": 21,
        "duration": 0.6,
        "velocity": 0.61,
        "hand": "left"
      },
      {
        "midi": 64,
        "time": 21,
        "duration": 0.6,
        "velocity": 0.57,
        "hand": "right"
      },
      {
        "midi": 57,
        "time": 21.6,
        "duration": 1.8,
        "velocity": 0.63,
        "hand": "left"
      },
      {
        "midi": 64,
        "time": 21.6,
        "duration": 1.8,
        "velocity": 0.73,
        "hand": "right"
      },
      {
        "midi": 73,
        "time": 21.6,
        "duration": 1.8,
        "velocity": 0.73,
        "hand": "right"
      },
      {
        "midi": 56,
        "time": 23.4,
        "duration": 0.6,
        "velocity": 0.61,
        "hand": "left"
      },
      {
        "midi": 65,
        "time": 23.4,
        "duration": 0.6,
        "velocity": 0.62,
        "hand": "right"
      },
      {
        "midi": 73,
        "time": 23.4,
        "duration": 0.6,
        "velocity": 0.62,
        "hand": "right"
      },
      {
        "midi": 54,
        "time": 24,
        "duration": 0.6,
        "velocity": 0.6,
        "hand": "left"
      },
      {
        "midi": 66,
        "time": 24,
        "duration": 0.6,
        "velocity": 0.61,
        "hand": "right"
      },
      {
        "midi": 73,
        "time": 24,
        "duration": 0.6,
        "velocity": 0.61,
        "hand": "right"
      },
      {
        "midi": 54,
        "time": 24.6,
        "duration": 0.6,
        "velocity": 0.64,
        "hand": "left"
      },
      {
        "midi": 66,
        "time": 24.6,
        "duration": 0.6,
        "velocity": 0.52,
        "hand": "right"
      },
      {
        "midi": 70,
        "time": 24.6,
        "duration": 0.6,
        "velocity": 0.52,
        "hand": "right"
      },
      {
        "midi": 56,
        "time": 25.2,
        "duration": 0.6,
        "velocity": 0.58,
        "hand": "left"
      },
      {
        "midi": 64,
        "time": 25.2,
        "duration": 0.6,
        "velocity": 0.55,
        "hand": "right"
      },
      {
        "midi": 68,
        "time": 25.2,
        "duration": 0.6,
        "velocity": 0.55,
        "hand": "right"
      },
      {
        "midi": 58,
        "time": 25.8,
        "duration": 0.6,
        "velocity": 0.61,
        "hand": "left"
      },
      {
        "midi": 61,
        "time": 25.8,
        "duration": 0.6,
        "velocity": 0.61,
        "hand": "right"
      },
      {
        "midi": 66,
        "time": 25.8,
        "duration": 0.6,
        "velocity": 0.54,
        "hand": "right"
      },
      {
        "midi": 59,
        "time": 26.4,
        "duration": 1.8,
        "velocity": 0.59,
        "hand": "left"
      },
      {
        "midi": 66,
        "time": 26.4,
        "duration": 1.8,
        "velocity": 0.72,
        "hand": "right"
      },
      {
        "midi": 75,
        "time": 26.4,
        "duration": 1.8,
        "velocity": 0.72,
        "hand": "right"
      },
      {
        "midi": 57,
        "time": 28.2,
        "duration": 0.6,
        "velocity": 0.61,
        "hand": "left"
      },
      {
        "midi": 66,
        "time": 28.2,
        "duration": 0.6,
        "velocity": 0.57,
        "hand": "right"
      },
      {
        "midi": 75,
        "time": 28.2,
        "duration": 0.6,
        "velocity": 0.57,
        "hand": "right"
      },
      {
        "midi": 56,
        "time": 28.8,
        "duration": 0.9,
        "velocity": 0.59,
        "hand": "left"
      },
      {
        "midi": 64,
        "time": 28.8,
        "duration": 0.9,
        "velocity": 0.62,
        "hand": "right"
      },
      {
        "midi": 76,
        "time": 28.8,
        "duration": 0.9,
        "velocity": 0.62,
        "hand": "right"
      },
      {
        "midi": 56,
        "time": 29.7,
        "duration": 0.3,
        "velocity": 0.59,
        "hand": "left"
      },
      {
        "midi": 64,
        "time": 29.7,
        "duration": 0.3,
        "velocity": 0.56,
        "hand": "right"
      },
      {
        "midi": 75,
        "time": 29.7,
        "duration": 0.3,
        "velocity": 0.56,
        "hand": "right"
      },
      {
        "midi": 57,
        "time": 30,
        "duration": 0.6,
        "velocity": 0.62,
        "hand": "left"
      },
      {
        "midi": 64,
        "time": 30,
        "duration": 0.6,
        "velocity": 0.57,
        "hand": "right"
      },
      {
        "midi": 73,
        "time": 30,
        "duration": 0.6,
        "velocity": 0.57,
        "hand": "right"
      },
      {
        "midi": 56,
        "time": 30.6,
        "duration": 0.6,
        "velocity": 0.6,
        "hand": "left"
      },
      {
        "midi": 64,
        "time": 30.6,
        "duration": 0.6,
        "velocity": 0.54,
        "hand": "right"
      },
      {
        "midi": 71,
        "time": 30.6,
        "duration": 0.6,
        "velocity": 0.54,
        "hand": "right"
      },
      {
        "midi": 54,
        "time": 31.2,
        "duration": 0.6,
        "velocity": 0.63,
        "hand": "left"
      },
      {
        "midi": 64,
        "time": 31.2,
        "duration": 0.6,
        "velocity": 0.54,
        "hand": "right"
      },
      {
        "midi": 69,
        "time": 31.2,
        "duration": 0.6,
        "velocity": 0.54,
        "hand": "right"
      },
      {
        "midi": 59,
        "time": 31.8,
        "duration": 0.6,
        "velocity": 0.57,
        "hand": "left"
      },
      {
        "midi": 63,
        "time": 31.8,
        "duration": 0.6,
        "velocity": 0.55,
        "hand": "right"
      },
      {
        "midi": 66,
        "time": 31.8,
        "duration": 0.6,
        "velocity": 0.55,
        "hand": "right"
      },
      {
        "midi": 52,
        "time": 32.4,
        "duration": 0.6,
        "velocity": 0.62,
        "hand": "left"
      },
      {
        "midi": 64,
        "time": 32.4,
        "duration": 0.6,
        "velocity": 0.61,
        "hand": "right"
      },
      {
        "midi": 68,
        "time": 32.4,
        "duration": 0.6,
        "velocity": 0.61,
        "hand": "right"
      },
      {
        "midi": 44,
        "time": 33,
        "duration": 0.6,
        "velocity": 0.63,
        "hand": "left"
      },
      {
        "midi": 64,
        "time": 33,
        "duration": 0.6,
        "velocity": 0.67,
        "hand": "right"
      },
      {
        "midi": 71,
        "time": 33,
        "duration": 0.6,
        "velocity": 0.67,
        "hand": "right"
      },
      {
        "midi": 45,
        "time": 33.6,
        "duration": 0.6,
        "velocity": 0.62,
        "hand": "left"
      },
      {
        "midi": 64,
        "time": 33.6,
        "duration": 0.6,
        "velocity": 0.58,
        "hand": "right"
      },
      {
        "midi": 69,
        "time": 33.6,
        "duration": 0.6,
        "velocity": 0.58,
        "hand": "right"
      },
      {
        "midi": 52,
        "time": 34.2,
        "duration": 0.6,
        "velocity": 0.58,
        "hand": "left"
      },
      {
        "midi": 64,
        "time": 34.2,
        "duration": 0.6,
        "velocity": 0.54,
        "hand": "right"
      },
      {
        "midi": 68,
        "time": 34.2,
        "duration": 0.6,
        "velocity": 0.54,
        "hand": "right"
      },
      {
        "midi": 47,
        "time": 34.8,
        "duration": 0.6,
        "velocity": 0.5,
        "hand": "left"
      },
      {
        "midi": 64,
        "time": 34.8,
        "duration": 0.6,
        "velocity": 0.56,
        "hand": "right"
      },
      {
        "midi": 66,
        "time": 34.8,
        "duration": 0.6,
        "velocity": 0.56,
        "hand": "right"
      },
      {
        "midi": 47,
        "time": 35.4,
        "duration": 0.6,
        "velocity": 0.54,
        "hand": "left"
      },
      {
        "midi": 63,
        "time": 35.4,
        "duration": 0.6,
        "velocity": 0.6,
        "hand": "right"
      },
      {
        "midi": 66,
        "time": 35.4,
        "duration": 0.6,
        "velocity": 0.6,
        "hand": "right"
      },
      {
        "midi": 57,
        "time": 35.7,
        "duration": 0.3,
        "velocity": 0.54,
        "hand": "left"
      },
      {
        "midi": 52,
        "time": 36,
        "duration": 2.4,
        "velocity": 0.57,
        "hand": "left"
      },
      {
        "midi": 56,
        "time": 36,
        "duration": 2.4,
        "velocity": 0.57,
        "hand": "left"
      },
      {
        "midi": 64,
        "time": 36,
        "duration": 2.4,
        "velocity": 0.56,
        "hand": "right"
      }
    ],
    "hard": [
      {
        "midi": 52,
        "time": 0,
        "duration": 0.6,
        "velocity": 0.56,
        "hand": "left"
      },
      {
        "midi": 56,
        "time": 0,
        "duration": 0.6,
        "velocity": 0.56,
        "hand": "left"
      },
      {
        "midi": 59,
        "time": 0,
        "duration": 0.6,
        "velocity": 0.54,
        "hand": "left"
      },
      {
        "midi": 64,
        "time": 0,
        "duration": 0.6,
        "velocity": 0.54,
        "hand": "right"
      },
      {
        "midi": 52,
        "time": 0.6,
        "duration": 0.3,
        "velocity": 0.54,
        "hand": "left"
      },
      {
        "midi": 56,
        "time": 0.6,
        "duration": 0.3,
        "velocity": 0.54,
        "hand": "left"
      },
      {
        "midi": 59,
        "time": 0.6,
        "duration": 0.3,
        "velocity": 0.61,
        "hand": "left"
      },
      {
        "midi": 64,
        "time": 0.6,
        "duration": 0.3,
        "velocity": 0.61,
        "hand": "right"
      },
      {
        "midi": 52,
        "time": 0.9,
        "duration": 0.3,
        "velocity": 0.61,
        "hand": "left"
      },
      {
        "midi": 56,
        "time": 0.9,
        "duration": 0.3,
        "velocity": 0.61,
        "hand": "left"
      },
      {
        "midi": 59,
        "time": 0.9,
        "duration": 0.3,
        "velocity": 0.62,
        "hand": "left"
      },
      {
        "midi": 64,
        "time": 0.9,
        "duration": 0.3,
        "velocity": 0.62,
        "hand": "right"
      },
      {
        "midi": 49,
        "time": 1.2,
        "duration": 0.6,
        "velocity": 0.58,
        "hand": "left"
      },
      {
        "midi": 56,
        "time": 1.2,
        "duration": 0.6,
        "velocity": 0.58,
        "hand": "left"
      },
      {
        "midi": 64,
        "time": 1.2,
        "duration": 0.6,
        "velocity": 0.66,
        "hand": "right"
      },
      {
        "midi": 68,
        "time": 1.2,
        "duration": 0.6,
        "velocity": 0.66,
        "hand": "right"
      },
      {
        "midi": 49,
        "time": 1.8,
        "duration": 0.6,
        "velocity": 0.63,
        "hand": "left"
      },
      {
        "midi": 56,
        "time": 1.8,
        "duration": 0.6,
        "velocity": 0.63,
        "hand": "left"
      },
      {
        "midi": 64,
        "time": 1.8,
        "duration": 0.6,
        "velocity": 0.61,
        "hand": "right"
      },
      {
        "midi": 68,
        "time": 1.8,
        "duration": 0.6,
        "velocity": 0.61,
        "hand": "right"
      },
      {
        "midi": 45,
        "time": 2.4,
        "duration": 1.8,
        "velocity": 0.63,
        "hand": "left"
      },
      {
        "midi": 57,
        "time": 2.4,
        "duration": 1.8,
        "velocity": 0.63,
        "hand": "left"
      },
      {
        "midi": 64,
        "time": 2.4,
        "duration": 1.8,
        "velocity": 0.71,
        "hand": "right"
      },
      {
        "midi": 73,
        "time": 2.4,
        "duration": 1.8,
        "velocity": 0.71,
        "hand": "right"
      },
      {
        "midi": 57,
        "time": 4.2,
        "duration": 0.6,
        "velocity": 0.58,
        "hand": "left"
      },
      {
        "midi": 64,
        "time": 4.2,
        "duration": 0.6,
        "velocity": 0.61,
        "hand": "right"
      },
      {
        "midi": 73,
        "time": 4.2,
        "duration": 0.6,
        "velocity": 0.61,
        "hand": "right"
      },
      {
        "midi": 56,
        "time": 4.8,
        "duration": 0.6,
        "velocity": 0.62,
        "hand": "left"
      },
      {
        "midi": 59,
        "time": 4.8,
        "duration": 0.6,
        "velocity": 0.62,
        "hand": "left"
      },
      {
        "midi": 64,
        "time": 4.8,
        "duration": 0.6,
        "velocity": 0.57,
        "hand": "right"
      },
      {
        "midi": 71,
        "time": 4.8,
        "duration": 0.6,
        "velocity": 0.57,
        "hand": "right"
      },
      {
        "midi": 57,
        "time": 5.4,
        "duration": 0.6,
        "velocity": 0.6,
        "hand": "left"
      },
      {
        "midi": 61,
        "time": 5.4,
        "duration": 0.6,
        "velocity": 0.6,
        "hand": "right"
      },
      {
        "midi": 64,
        "time": 5.4,
        "duration": 0.6,
        "velocity": 0.48,
        "hand": "right"
      },
      {
        "midi": 54,
        "time": 6,
        "duration": 0.6,
        "velocity": 0.53,
        "hand": "left"
      },
      {
        "midi": 57,
        "time": 6,
        "duration": 0.6,
        "velocity": 0.53,
        "hand": "left"
      },
      {
        "midi": 63,
        "time": 6,
        "duration": 0.6,
        "velocity": 0.69,
        "hand": "right"
      },
      {
        "midi": 69,
        "time": 6,
        "duration": 0.6,
        "velocity": 0.69,
        "hand": "right"
      },
      {
        "midi": 52,
        "time": 6.6,
        "duration": 0.6,
        "velocity": 0.61,
        "hand": "left"
      },
      {
        "midi": 59,
        "time": 6.6,
        "duration": 0.6,
        "velocity": 0.61,
        "hand": "left"
      },
      {
        "midi": 64,
        "time": 6.6,
        "duration": 0.6,
        "velocity": 0.57,
        "hand": "right"
      },
      {
        "midi": 68,
        "time": 6.6,
        "duration": 0.6,
        "velocity": 0.57,
        "hand": "right"
      },
      {
        "midi": 47,
        "time": 7.2,
        "duration": 1.8,
        "velocity": 0.61,
        "hand": "left"
      },
      {
        "midi": 59,
        "time": 7.2,
        "duration": 1.8,
        "velocity": 0.61,
        "hand": "left"
      },
      {
        "midi": 63,
        "time": 7.2,
        "duration": 1.8,
        "velocity": 0.56,
        "hand": "right"
      },
      {
        "midi": 66,
        "time": 7.2,
        "duration": 1.8,
        "velocity": 0.56,
        "hand": "right"
      },
      {
        "midi": 47,
        "time": 9,
        "duration": 0.6,
        "velocity": 0.6,
        "hand": "left"
      },
      {
        "midi": 59,
        "time": 9,
        "duration": 0.6,
        "velocity": 0.6,
        "hand": "left"
      },
      {
        "midi": 63,
        "time": 9,
        "duration": 0.6,
        "velocity": 0.61,
        "hand": "right"
      },
      {
        "midi": 66,
        "time": 9,
        "duration": 0.6,
        "velocity": 0.61,
        "hand": "right"
      },
      {
        "midi": 52,
        "time": 9.6,
        "duration": 0.6,
        "velocity": 0.61,
        "hand": "left"
      },
      {
        "midi": 59,
        "time": 9.6,
        "duration": 0.6,
        "velocity": 0.61,
        "hand": "left"
      },
      {
        "midi": 64,
        "time": 9.6,
        "duration": 0.6,
        "velocity": 0.61,
        "hand": "right"
      },
      {
        "midi": 68,
        "time": 9.6,
        "duration": 0.6,
        "velocity": 0.61,
        "hand": "right"
      },
      {
        "midi": 51,
        "time": 10.2,
        "duration": 0.6,
        "velocity": 0.61,
        "hand": "left"
      },
      {
        "midi": 59,
        "time": 10.2,
        "duration": 0.6,
        "velocity": 0.61,
        "hand": "left"
      },
      {
        "midi": 66,
        "time": 10.2,
        "duration": 0.6,
        "velocity": 0.62,
        "hand": "right"
      },
      {
        "midi": 71,
        "time": 10.2,
        "duration": 0.6,
        "velocity": 0.62,
        "hand": "right"
      },
      {
        "midi": 49,
        "time": 10.8,
        "duration": 0.6,
        "velocity": 0.6,
        "hand": "left"
      },
      {
        "midi": 56,
        "time": 10.8,
        "duration": 0.6,
        "velocity": 0.6,
        "hand": "left"
      },
      {
        "midi": 64,
        "time": 10.8,
        "duration": 0.6,
        "velocity": 0.63,
        "hand": "right"
      },
      {
        "midi": 73,
        "time": 10.8,
        "duration": 0.6,
        "velocity": 0.63,
        "hand": "right"
      },
      {
        "midi": 52,
        "time": 11.4,
        "duration": 0.6,
        "velocity": 0.6,
        "hand": "left"
      },
      {
        "midi": 56,
        "time": 11.4,
        "duration": 0.6,
        "velocity": 0.6,
        "hand": "left"
      },
      {
        "midi": 64,
        "time": 11.4,
        "duration": 0.6,
        "velocity": 0.58,
        "hand": "right"
      },
      {
        "midi": 71,
        "time": 11.4,
        "duration": 0.6,
        "velocity": 0.58,
        "hand": "right"
      },
      {
        "midi": 54,
        "time": 12,
        "duration": 0.6,
        "velocity": 0.65,
        "hand": "left"
      },
      {
        "midi": 58,
        "time": 12,
        "duration": 0.6,
        "velocity": 0.65,
        "hand": "left"
      },
      {
        "midi": 61,
        "time": 12,
        "duration": 0.6,
        "velocity": 0.51,
        "hand": "right"
      },
      {
        "midi": 70,
        "time": 12,
        "duration": 0.6,
        "velocity": 0.51,
        "hand": "right"
      },
      {
        "midi": 52,
        "time": 12.6,
        "duration": 0.6,
        "velocity": 0.59,
        "hand": "left"
      },
      {
        "midi": 58,
        "time": 12.6,
        "duration": 0.6,
        "velocity": 0.59,
        "hand": "left"
      },
      {
        "midi": 61,
        "time": 12.6,
        "duration": 0.6,
        "velocity": 0.55,
        "hand": "right"
      },
      {
        "midi": 68,
        "time": 12.6,
        "duration": 0.3,
        "velocity": 0.54,
        "hand": "right"
      },
      {
        "midi": 66,
        "time": 12.9,
        "duration": 0.3,
        "velocity": 0.56,
        "hand": "right"
      },
      {
        "midi": 51,
        "time": 13.2,
        "duration": 0.6,
        "velocity": 0.59,
        "hand": "left"
      },
      {
        "midi": 59,
        "time": 13.2,
        "duration": 0.6,
        "velocity": 0.59,
        "hand": "left"
      },
      {
        "midi": 66,
        "time": 13.2,
        "duration": 0.6,
        "velocity": 0.7,
        "hand": "right"
      },
      {
        "midi": 71,
        "time": 13.2,
        "duration": 0.6,
        "velocity": 0.7,
        "hand": "right"
      },
      {
        "midi": 49,
        "time": 13.8,
        "duration": 0.6,
        "velocity": 0.6,
        "hand": "left"
      },
      {
        "midi": 58,
        "time": 13.8,
        "duration": 0.6,
        "velocity": 0.6,
        "hand": "left"
      },
      {
        "midi": 64,
        "time": 13.8,
        "duration": 0.6,
        "velocity": 0.7,
        "hand": "right"
      },
      {
        "midi": 76,
        "time": 13.8,
        "duration": 0.6,
        "velocity": 0.7,
        "hand": "right"
      },
      {
        "midi": 47,
        "time": 14.4,
        "duration": 0.6,
        "velocity": 0.61,
        "hand": "left"
      },
      {
        "midi": 59,
        "time": 14.4,
        "duration": 0.6,
        "velocity": 0.61,
        "hand": "left"
      },
      {
        "midi": 66,
        "time": 14.4,
        "duration": 0.6,
        "velocity": 0.6,
        "hand": "right"
      },
      {
        "midi": 75,
        "time": 14.4,
        "duration": 0.6,
        "velocity": 0.6,
        "hand": "right"
      },
      {
        "midi": 52,
        "time": 15,
        "duration": 0.6,
        "velocity": 0.61,
        "hand": "left"
      },
      {
        "midi": 59,
        "time": 15,
        "duration": 0.6,
        "velocity": 0.61,
        "hand": "left"
      },
      {
        "midi": 68,
        "time": 15,
        "duration": 0.6,
        "velocity": 0.69,
        "hand": "right"
      },
      {
        "midi": 76,
        "time": 15,
        "duration": 0.6,
        "velocity": 0.69,
        "hand": "right"
      },
      {
        "midi": 54,
        "time": 15.6,
        "duration": 0.6,
        "velocity": 0.6,
        "hand": "left"
      },
      {
        "midi": 59,
        "time": 15.6,
        "duration": 0.6,
        "velocity": 0.6,
        "hand": "left"
      },
      {
        "midi": 61,
        "time": 15.6,
        "duration": 0.6,
        "velocity": 0.5,
        "hand": "right"
      },
      {
        "midi": 73,
        "time": 15.6,
        "duration": 0.6,
        "velocity": 0.5,
        "hand": "right"
      },
      {
        "midi": 54,
        "time": 16.2,
        "duration": 0.6,
        "velocity": 0.6,
        "hand": "left"
      },
      {
        "midi": 58,
        "time": 16.2,
        "duration": 0.6,
        "velocity": 0.6,
        "hand": "left"
      },
      {
        "midi": 66,
        "time": 16.2,
        "duration": 0.6,
        "velocity": 0.6,
        "hand": "right"
      },
      {
        "midi": 73,
        "time": 16.2,
        "duration": 0.6,
        "velocity": 0.6,
        "hand": "right"
      },
      {
        "midi": 47,
        "time": 16.8,
        "duration": 1.8,
        "velocity": 0.61,
        "hand": "left"
      },
      {
        "midi": 59,
        "time": 16.8,
        "duration": 1.8,
        "velocity": 0.61,
        "hand": "left"
      },
      {
        "midi": 63,
        "time": 16.8,
        "duration": 1.8,
        "velocity": 0.56,
        "hand": "right"
      },
      {
        "midi": 71,
        "time": 16.8,
        "duration": 1.8,
        "velocity": 0.56,
        "hand": "right"
      },
      {
        "midi": 57,
        "time": 18.6,
        "duration": 0.6,
        "velocity": 0.61,
        "hand": "left"
      },
      {
        "midi": 59,
        "time": 18.6,
        "duration": 0.6,
        "velocity": 0.61,
        "hand": "left"
      },
      {
        "midi": 63,
        "time": 18.6,
        "duration": 0.6,
        "velocity": 0.6,
        "hand": "right"
      },
      {
        "midi": 71,
        "time": 18.6,
        "duration": 0.6,
        "velocity": 0.6,
        "hand": "right"
      },
      {
        "midi": 56,
        "time": 19.2,
        "duration": 0.6,
        "velocity": 0.57,
        "hand": "left"
      },
      {
        "midi": 59,
        "time": 19.2,
        "duration": 0.6,
        "velocity": 0.57,
        "hand": "left"
      },
      {
        "midi": 64,
        "time": 19.2,
        "duration": 0.6,
        "velocity": 0.61,
        "hand": "right"
      },
      {
        "midi": 71,
        "time": 19.2,
        "duration": 0.6,
        "velocity": 0.61,
        "hand": "right"
      },
      {
        "midi": 52,
        "time": 19.8,
        "duration": 0.6,
        "velocity": 0.61,
        "hand": "left"
      },
      {
        "midi": 59,
        "time": 19.8,
        "duration": 0.6,
        "velocity": 0.61,
        "hand": "left"
      },
      {
        "midi": 64,
        "time": 19.8,
        "duration": 0.6,
        "velocity": 0.54,
        "hand": "right"
      },
      {
        "midi": 68,
        "time": 19.8,
        "duration": 0.6,
        "velocity": 0.54,
        "hand": "right"
      },
      {
        "midi": 54,
        "time": 20.4,
        "duration": 0.6,
        "velocity": 0.59,
        "hand": "left"
      },
      {
        "midi": 57,
        "time": 20.4,
        "duration": 0.6,
        "velocity": 0.59,
        "hand": "left"
      },
      {
        "midi": 63,
        "time": 20.4,
        "duration": 0.6,
        "velocity": 0.54,
        "hand": "right"
      },
      {
        "midi": 66,
        "time": 20.4,
        "duration": 0.6,
        "velocity": 0.54,
        "hand": "right"
      },
      {
        "midi": 56,
        "time": 21,
        "duration": 0.6,
        "velocity": 0.61,
        "hand": "left"
      },
      {
        "midi": 59,
        "time": 21,
        "duration": 0.6,
        "velocity": 0.61,
        "hand": "left"
      },
      {
        "midi": 64,
        "time": 21,
        "duration": 0.6,
        "velocity": 0.57,
        "hand": "right"
      },
      {
        "midi": 57,
        "time": 21.6,
        "duration": 1.8,
        "velocity": 0.63,
        "hand": "left"
      },
      {
        "midi": 61,
        "time": 21.6,
        "duration": 1.8,
        "velocity": 0.63,
        "hand": "right"
      },
      {
        "midi": 64,
        "time": 21.6,
        "duration": 1.8,
        "velocity": 0.73,
        "hand": "right"
      },
      {
        "midi": 73,
        "time": 21.6,
        "duration": 1.8,
        "velocity": 0.73,
        "hand": "right"
      },
      {
        "midi": 56,
        "time": 23.4,
        "duration": 0.6,
        "velocity": 0.61,
        "hand": "left"
      },
      {
        "midi": 59,
        "time": 23.4,
        "duration": 0.6,
        "velocity": 0.61,
        "hand": "left"
      },
      {
        "midi": 65,
        "time": 23.4,
        "duration": 0.6,
        "velocity": 0.62,
        "hand": "right"
      },
      {
        "midi": 73,
        "time": 23.4,
        "duration": 0.6,
        "velocity": 0.62,
        "hand": "right"
      },
      {
        "midi": 54,
        "time": 24,
        "duration": 0.6,
        "velocity": 0.6,
        "hand": "left"
      },
      {
        "midi": 58,
        "time": 24,
        "duration": 0.6,
        "velocity": 0.6,
        "hand": "left"
      },
      {
        "midi": 66,
        "time": 24,
        "duration": 0.6,
        "velocity": 0.61,
        "hand": "right"
      },
      {
        "midi": 73,
        "time": 24,
        "duration": 0.6,
        "velocity": 0.61,
        "hand": "right"
      },
      {
        "midi": 54,
        "time": 24.6,
        "duration": 0.6,
        "velocity": 0.64,
        "hand": "left"
      },
      {
        "midi": 61,
        "time": 24.6,
        "duration": 0.6,
        "velocity": 0.64,
        "hand": "right"
      },
      {
        "midi": 66,
        "time": 24.6,
        "duration": 0.6,
        "velocity": 0.52,
        "hand": "right"
      },
      {
        "midi": 70,
        "time": 24.6,
        "duration": 0.6,
        "velocity": 0.52,
        "hand": "right"
      },
      {
        "midi": 56,
        "time": 25.2,
        "duration": 0.6,
        "velocity": 0.58,
        "hand": "left"
      },
      {
        "midi": 59,
        "time": 25.2,
        "duration": 0.6,
        "velocity": 0.58,
        "hand": "left"
      },
      {
        "midi": 64,
        "time": 25.2,
        "duration": 0.6,
        "velocity": 0.55,
        "hand": "right"
      },
      {
        "midi": 68,
        "time": 25.2,
        "duration": 0.6,
        "velocity": 0.55,
        "hand": "right"
      },
      {
        "midi": 58,
        "time": 25.8,
        "duration": 0.6,
        "velocity": 0.61,
        "hand": "left"
      },
      {
        "midi": 61,
        "time": 25.8,
        "duration": 0.6,
        "velocity": 0.61,
        "hand": "right"
      },
      {
        "midi": 66,
        "time": 25.8,
        "duration": 0.6,
        "velocity": 0.54,
        "hand": "right"
      },
      {
        "midi": 59,
        "time": 26.4,
        "duration": 1.8,
        "velocity": 0.59,
        "hand": "left"
      },
      {
        "midi": 66,
        "time": 26.4,
        "duration": 1.8,
        "velocity": 0.72,
        "hand": "right"
      },
      {
        "midi": 75,
        "time": 26.4,
        "duration": 1.8,
        "velocity": 0.72,
        "hand": "right"
      },
      {
        "midi": 57,
        "time": 28.2,
        "duration": 0.6,
        "velocity": 0.61,
        "hand": "left"
      },
      {
        "midi": 59,
        "time": 28.2,
        "duration": 0.6,
        "velocity": 0.61,
        "hand": "left"
      },
      {
        "midi": 66,
        "time": 28.2,
        "duration": 0.6,
        "velocity": 0.57,
        "hand": "right"
      },
      {
        "midi": 75,
        "time": 28.2,
        "duration": 0.6,
        "velocity": 0.57,
        "hand": "right"
      },
      {
        "midi": 56,
        "time": 28.8,
        "duration": 0.9,
        "velocity": 0.59,
        "hand": "left"
      },
      {
        "midi": 59,
        "time": 28.8,
        "duration": 0.9,
        "velocity": 0.59,
        "hand": "left"
      },
      {
        "midi": 64,
        "time": 28.8,
        "duration": 0.9,
        "velocity": 0.62,
        "hand": "right"
      },
      {
        "midi": 76,
        "time": 28.8,
        "duration": 0.9,
        "velocity": 0.62,
        "hand": "right"
      },
      {
        "midi": 56,
        "time": 29.7,
        "duration": 0.3,
        "velocity": 0.59,
        "hand": "left"
      },
      {
        "midi": 59,
        "time": 29.7,
        "duration": 0.3,
        "velocity": 0.59,
        "hand": "left"
      },
      {
        "midi": 64,
        "time": 29.7,
        "duration": 0.3,
        "velocity": 0.56,
        "hand": "right"
      },
      {
        "midi": 75,
        "time": 29.7,
        "duration": 0.3,
        "velocity": 0.56,
        "hand": "right"
      },
      {
        "midi": 57,
        "time": 30,
        "duration": 0.6,
        "velocity": 0.62,
        "hand": "left"
      },
      {
        "midi": 64,
        "time": 30,
        "duration": 0.6,
        "velocity": 0.57,
        "hand": "right"
      },
      {
        "midi": 73,
        "time": 30,
        "duration": 0.6,
        "velocity": 0.57,
        "hand": "right"
      },
      {
        "midi": 56,
        "time": 30.6,
        "duration": 0.6,
        "velocity": 0.6,
        "hand": "left"
      },
      {
        "midi": 59,
        "time": 30.6,
        "duration": 0.6,
        "velocity": 0.6,
        "hand": "left"
      },
      {
        "midi": 64,
        "time": 30.6,
        "duration": 0.6,
        "velocity": 0.54,
        "hand": "right"
      },
      {
        "midi": 71,
        "time": 30.6,
        "duration": 0.6,
        "velocity": 0.54,
        "hand": "right"
      },
      {
        "midi": 54,
        "time": 31.2,
        "duration": 0.6,
        "velocity": 0.63,
        "hand": "left"
      },
      {
        "midi": 61,
        "time": 31.2,
        "duration": 0.6,
        "velocity": 0.63,
        "hand": "right"
      },
      {
        "midi": 64,
        "time": 31.2,
        "duration": 0.6,
        "velocity": 0.54,
        "hand": "right"
      },
      {
        "midi": 69,
        "time": 31.2,
        "duration": 0.6,
        "velocity": 0.54,
        "hand": "right"
      },
      {
        "midi": 59,
        "time": 31.8,
        "duration": 0.6,
        "velocity": 0.57,
        "hand": "left"
      },
      {
        "midi": 63,
        "time": 31.8,
        "duration": 0.6,
        "velocity": 0.55,
        "hand": "right"
      },
      {
        "midi": 66,
        "time": 31.8,
        "duration": 0.6,
        "velocity": 0.55,
        "hand": "right"
      },
      {
        "midi": 52,
        "time": 32.4,
        "duration": 0.6,
        "velocity": 0.62,
        "hand": "left"
      },
      {
        "midi": 59,
        "time": 32.4,
        "duration": 0.6,
        "velocity": 0.62,
        "hand": "left"
      },
      {
        "midi": 64,
        "time": 32.4,
        "duration": 0.6,
        "velocity": 0.61,
        "hand": "right"
      },
      {
        "midi": 68,
        "time": 32.4,
        "duration": 0.6,
        "velocity": 0.61,
        "hand": "right"
      },
      {
        "midi": 44,
        "time": 33,
        "duration": 0.6,
        "velocity": 0.63,
        "hand": "left"
      },
      {
        "midi": 59,
        "time": 33,
        "duration": 0.6,
        "velocity": 0.63,
        "hand": "left"
      },
      {
        "midi": 64,
        "time": 33,
        "duration": 0.6,
        "velocity": 0.67,
        "hand": "right"
      },
      {
        "midi": 71,
        "time": 33,
        "duration": 0.6,
        "velocity": 0.67,
        "hand": "right"
      },
      {
        "midi": 45,
        "time": 33.6,
        "duration": 0.6,
        "velocity": 0.62,
        "hand": "left"
      },
      {
        "midi": 61,
        "time": 33.6,
        "duration": 0.6,
        "velocity": 0.62,
        "hand": "right"
      },
      {
        "midi": 64,
        "time": 33.6,
        "duration": 0.6,
        "velocity": 0.58,
        "hand": "right"
      },
      {
        "midi": 69,
        "time": 33.6,
        "duration": 0.6,
        "velocity": 0.58,
        "hand": "right"
      },
      {
        "midi": 52,
        "time": 34.2,
        "duration": 0.6,
        "velocity": 0.58,
        "hand": "left"
      },
      {
        "midi": 59,
        "time": 34.2,
        "duration": 0.6,
        "velocity": 0.58,
        "hand": "left"
      },
      {
        "midi": 64,
        "time": 34.2,
        "duration": 0.6,
        "velocity": 0.54,
        "hand": "right"
      },
      {
        "midi": 68,
        "time": 34.2,
        "duration": 0.6,
        "velocity": 0.54,
        "hand": "right"
      },
      {
        "midi": 47,
        "time": 34.8,
        "duration": 0.6,
        "velocity": 0.5,
        "hand": "left"
      },
      {
        "midi": 59,
        "time": 34.8,
        "duration": 0.9,
        "velocity": 0.61,
        "hand": "left"
      },
      {
        "midi": 64,
        "time": 34.8,
        "duration": 0.6,
        "velocity": 0.56,
        "hand": "right"
      },
      {
        "midi": 66,
        "time": 34.8,
        "duration": 0.6,
        "velocity": 0.56,
        "hand": "right"
      },
      {
        "midi": 47,
        "time": 35.4,
        "duration": 0.6,
        "velocity": 0.54,
        "hand": "left"
      },
      {
        "midi": 63,
        "time": 35.4,
        "duration": 0.6,
        "velocity": 0.6,
        "hand": "right"
      },
      {
        "midi": 66,
        "time": 35.4,
        "duration": 0.6,
        "velocity": 0.6,
        "hand": "right"
      },
      {
        "midi": 57,
        "time": 35.7,
        "duration": 0.3,
        "velocity": 0.54,
        "hand": "left"
      },
      {
        "midi": 52,
        "time": 36,
        "duration": 2.4,
        "velocity": 0.57,
        "hand": "left"
      },
      {
        "midi": 56,
        "time": 36,
        "duration": 2.4,
        "velocity": 0.57,
        "hand": "left"
      },
      {
        "midi": 64,
        "time": 36,
        "duration": 2.4,
        "velocity": 0.56,
        "hand": "right"
      }
    ]
  },
  "notes1Hand": [
    {
      "midi": 64,
      "time": 0,
      "duration": 0.6,
      "velocity": 0.54,
      "hand": "right"
    },
    {
      "midi": 64,
      "time": 0.6,
      "duration": 0.3,
      "velocity": 0.61,
      "hand": "right"
    },
    {
      "midi": 64,
      "time": 0.9,
      "duration": 0.3,
      "velocity": 0.62,
      "hand": "right"
    },
    {
      "midi": 68,
      "time": 1.2,
      "duration": 0.6,
      "velocity": 0.66,
      "hand": "right"
    },
    {
      "midi": 68,
      "time": 1.8,
      "duration": 0.6,
      "velocity": 0.61,
      "hand": "right"
    },
    {
      "midi": 73,
      "time": 2.4,
      "duration": 1.8,
      "velocity": 0.71,
      "hand": "right"
    },
    {
      "midi": 73,
      "time": 4.2,
      "duration": 0.6,
      "velocity": 0.61,
      "hand": "right"
    },
    {
      "midi": 71,
      "time": 4.8,
      "duration": 0.6,
      "velocity": 0.57,
      "hand": "right"
    },
    {
      "midi": 64,
      "time": 5.4,
      "duration": 0.6,
      "velocity": 0.48,
      "hand": "right"
    },
    {
      "midi": 69,
      "time": 6,
      "duration": 0.6,
      "velocity": 0.69,
      "hand": "right"
    },
    {
      "midi": 68,
      "time": 6.6,
      "duration": 0.6,
      "velocity": 0.57,
      "hand": "right"
    },
    {
      "midi": 66,
      "time": 7.2,
      "duration": 1.8,
      "velocity": 0.56,
      "hand": "right"
    },
    {
      "midi": 66,
      "time": 9,
      "duration": 0.6,
      "velocity": 0.61,
      "hand": "right"
    },
    {
      "midi": 68,
      "time": 9.6,
      "duration": 0.6,
      "velocity": 0.61,
      "hand": "right"
    },
    {
      "midi": 71,
      "time": 10.2,
      "duration": 0.6,
      "velocity": 0.62,
      "hand": "right"
    },
    {
      "midi": 73,
      "time": 10.8,
      "duration": 0.6,
      "velocity": 0.63,
      "hand": "right"
    },
    {
      "midi": 71,
      "time": 11.4,
      "duration": 0.6,
      "velocity": 0.58,
      "hand": "right"
    },
    {
      "midi": 70,
      "time": 12,
      "duration": 0.6,
      "velocity": 0.51,
      "hand": "right"
    },
    {
      "midi": 68,
      "time": 12.6,
      "duration": 0.3,
      "velocity": 0.54,
      "hand": "right"
    },
    {
      "midi": 66,
      "time": 12.9,
      "duration": 0.3,
      "velocity": 0.56,
      "hand": "right"
    },
    {
      "midi": 71,
      "time": 13.2,
      "duration": 0.6,
      "velocity": 0.7,
      "hand": "right"
    },
    {
      "midi": 76,
      "time": 13.8,
      "duration": 0.6,
      "velocity": 0.7,
      "hand": "right"
    },
    {
      "midi": 75,
      "time": 14.4,
      "duration": 0.6,
      "velocity": 0.6,
      "hand": "right"
    },
    {
      "midi": 76,
      "time": 15,
      "duration": 0.6,
      "velocity": 0.69,
      "hand": "right"
    },
    {
      "midi": 73,
      "time": 15.6,
      "duration": 0.6,
      "velocity": 0.5,
      "hand": "right"
    },
    {
      "midi": 73,
      "time": 16.2,
      "duration": 0.6,
      "velocity": 0.6,
      "hand": "right"
    },
    {
      "midi": 71,
      "time": 16.8,
      "duration": 1.8,
      "velocity": 0.56,
      "hand": "right"
    },
    {
      "midi": 71,
      "time": 18.6,
      "duration": 0.6,
      "velocity": 0.6,
      "hand": "right"
    },
    {
      "midi": 71,
      "time": 19.2,
      "duration": 0.6,
      "velocity": 0.61,
      "hand": "right"
    },
    {
      "midi": 68,
      "time": 19.8,
      "duration": 0.6,
      "velocity": 0.54,
      "hand": "right"
    },
    {
      "midi": 66,
      "time": 20.4,
      "duration": 0.6,
      "velocity": 0.54,
      "hand": "right"
    },
    {
      "midi": 64,
      "time": 21,
      "duration": 0.6,
      "velocity": 0.57,
      "hand": "right"
    },
    {
      "midi": 73,
      "time": 21.6,
      "duration": 1.8,
      "velocity": 0.73,
      "hand": "right"
    },
    {
      "midi": 73,
      "time": 23.4,
      "duration": 0.6,
      "velocity": 0.62,
      "hand": "right"
    },
    {
      "midi": 73,
      "time": 24,
      "duration": 0.6,
      "velocity": 0.61,
      "hand": "right"
    },
    {
      "midi": 70,
      "time": 24.6,
      "duration": 0.6,
      "velocity": 0.52,
      "hand": "right"
    },
    {
      "midi": 68,
      "time": 25.2,
      "duration": 0.6,
      "velocity": 0.55,
      "hand": "right"
    },
    {
      "midi": 66,
      "time": 25.8,
      "duration": 0.6,
      "velocity": 0.54,
      "hand": "right"
    },
    {
      "midi": 75,
      "time": 26.4,
      "duration": 1.8,
      "velocity": 0.72,
      "hand": "right"
    },
    {
      "midi": 75,
      "time": 28.2,
      "duration": 0.6,
      "velocity": 0.57,
      "hand": "right"
    },
    {
      "midi": 76,
      "time": 28.8,
      "duration": 0.9,
      "velocity": 0.62,
      "hand": "right"
    },
    {
      "midi": 75,
      "time": 29.7,
      "duration": 0.3,
      "velocity": 0.56,
      "hand": "right"
    },
    {
      "midi": 73,
      "time": 30,
      "duration": 0.6,
      "velocity": 0.57,
      "hand": "right"
    },
    {
      "midi": 71,
      "time": 30.6,
      "duration": 0.6,
      "velocity": 0.54,
      "hand": "right"
    },
    {
      "midi": 69,
      "time": 31.2,
      "duration": 0.6,
      "velocity": 0.54,
      "hand": "right"
    },
    {
      "midi": 66,
      "time": 31.8,
      "duration": 0.6,
      "velocity": 0.55,
      "hand": "right"
    },
    {
      "midi": 68,
      "time": 32.4,
      "duration": 0.6,
      "velocity": 0.61,
      "hand": "right"
    },
    {
      "midi": 71,
      "time": 33,
      "duration": 0.6,
      "velocity": 0.67,
      "hand": "right"
    },
    {
      "midi": 69,
      "time": 33.6,
      "duration": 0.6,
      "velocity": 0.58,
      "hand": "right"
    },
    {
      "midi": 68,
      "time": 34.2,
      "duration": 0.6,
      "velocity": 0.54,
      "hand": "right"
    },
    {
      "midi": 66,
      "time": 34.8,
      "duration": 0.6,
      "velocity": 0.56,
      "hand": "right"
    },
    {
      "midi": 66,
      "time": 35.4,
      "duration": 0.6,
      "velocity": 0.6,
      "hand": "right"
    },
    {
      "midi": 57,
      "time": 35.7,
      "duration": 0.3,
      "velocity": 0.54,
      "hand": "right"
    },
    {
      "midi": 64,
      "time": 36,
      "duration": 2.4,
      "velocity": 0.56,
      "hand": "right"
    }
  ],
  "notes2Hands": [
    {
      "midi": 52,
      "time": 0,
      "duration": 0.6,
      "velocity": 0.56,
      "hand": "left"
    },
    {
      "midi": 56,
      "time": 0,
      "duration": 0.6,
      "velocity": 0.56,
      "hand": "left"
    },
    {
      "midi": 59,
      "time": 0,
      "duration": 0.6,
      "velocity": 0.54,
      "hand": "left"
    },
    {
      "midi": 64,
      "time": 0,
      "duration": 0.6,
      "velocity": 0.54,
      "hand": "right"
    },
    {
      "midi": 52,
      "time": 0.6,
      "duration": 0.3,
      "velocity": 0.54,
      "hand": "left"
    },
    {
      "midi": 56,
      "time": 0.6,
      "duration": 0.3,
      "velocity": 0.54,
      "hand": "left"
    },
    {
      "midi": 59,
      "time": 0.6,
      "duration": 0.3,
      "velocity": 0.61,
      "hand": "left"
    },
    {
      "midi": 64,
      "time": 0.6,
      "duration": 0.3,
      "velocity": 0.61,
      "hand": "right"
    },
    {
      "midi": 52,
      "time": 0.9,
      "duration": 0.3,
      "velocity": 0.61,
      "hand": "left"
    },
    {
      "midi": 56,
      "time": 0.9,
      "duration": 0.3,
      "velocity": 0.61,
      "hand": "left"
    },
    {
      "midi": 59,
      "time": 0.9,
      "duration": 0.3,
      "velocity": 0.62,
      "hand": "left"
    },
    {
      "midi": 64,
      "time": 0.9,
      "duration": 0.3,
      "velocity": 0.62,
      "hand": "right"
    },
    {
      "midi": 49,
      "time": 1.2,
      "duration": 0.6,
      "velocity": 0.58,
      "hand": "left"
    },
    {
      "midi": 56,
      "time": 1.2,
      "duration": 0.6,
      "velocity": 0.58,
      "hand": "left"
    },
    {
      "midi": 64,
      "time": 1.2,
      "duration": 0.6,
      "velocity": 0.66,
      "hand": "right"
    },
    {
      "midi": 68,
      "time": 1.2,
      "duration": 0.6,
      "velocity": 0.66,
      "hand": "right"
    },
    {
      "midi": 49,
      "time": 1.8,
      "duration": 0.6,
      "velocity": 0.63,
      "hand": "left"
    },
    {
      "midi": 56,
      "time": 1.8,
      "duration": 0.6,
      "velocity": 0.63,
      "hand": "left"
    },
    {
      "midi": 64,
      "time": 1.8,
      "duration": 0.6,
      "velocity": 0.61,
      "hand": "right"
    },
    {
      "midi": 68,
      "time": 1.8,
      "duration": 0.6,
      "velocity": 0.61,
      "hand": "right"
    },
    {
      "midi": 45,
      "time": 2.4,
      "duration": 1.8,
      "velocity": 0.63,
      "hand": "left"
    },
    {
      "midi": 57,
      "time": 2.4,
      "duration": 1.8,
      "velocity": 0.63,
      "hand": "left"
    },
    {
      "midi": 64,
      "time": 2.4,
      "duration": 1.8,
      "velocity": 0.71,
      "hand": "right"
    },
    {
      "midi": 73,
      "time": 2.4,
      "duration": 1.8,
      "velocity": 0.71,
      "hand": "right"
    },
    {
      "midi": 57,
      "time": 4.2,
      "duration": 0.6,
      "velocity": 0.58,
      "hand": "left"
    },
    {
      "midi": 64,
      "time": 4.2,
      "duration": 0.6,
      "velocity": 0.61,
      "hand": "right"
    },
    {
      "midi": 73,
      "time": 4.2,
      "duration": 0.6,
      "velocity": 0.61,
      "hand": "right"
    },
    {
      "midi": 56,
      "time": 4.8,
      "duration": 0.6,
      "velocity": 0.62,
      "hand": "left"
    },
    {
      "midi": 59,
      "time": 4.8,
      "duration": 0.6,
      "velocity": 0.62,
      "hand": "left"
    },
    {
      "midi": 64,
      "time": 4.8,
      "duration": 0.6,
      "velocity": 0.57,
      "hand": "right"
    },
    {
      "midi": 71,
      "time": 4.8,
      "duration": 0.6,
      "velocity": 0.57,
      "hand": "right"
    },
    {
      "midi": 57,
      "time": 5.4,
      "duration": 0.6,
      "velocity": 0.6,
      "hand": "left"
    },
    {
      "midi": 61,
      "time": 5.4,
      "duration": 0.6,
      "velocity": 0.6,
      "hand": "right"
    },
    {
      "midi": 64,
      "time": 5.4,
      "duration": 0.6,
      "velocity": 0.48,
      "hand": "right"
    },
    {
      "midi": 54,
      "time": 6,
      "duration": 0.6,
      "velocity": 0.53,
      "hand": "left"
    },
    {
      "midi": 57,
      "time": 6,
      "duration": 0.6,
      "velocity": 0.53,
      "hand": "left"
    },
    {
      "midi": 63,
      "time": 6,
      "duration": 0.6,
      "velocity": 0.69,
      "hand": "right"
    },
    {
      "midi": 69,
      "time": 6,
      "duration": 0.6,
      "velocity": 0.69,
      "hand": "right"
    },
    {
      "midi": 52,
      "time": 6.6,
      "duration": 0.6,
      "velocity": 0.61,
      "hand": "left"
    },
    {
      "midi": 59,
      "time": 6.6,
      "duration": 0.6,
      "velocity": 0.61,
      "hand": "left"
    },
    {
      "midi": 64,
      "time": 6.6,
      "duration": 0.6,
      "velocity": 0.57,
      "hand": "right"
    },
    {
      "midi": 68,
      "time": 6.6,
      "duration": 0.6,
      "velocity": 0.57,
      "hand": "right"
    },
    {
      "midi": 47,
      "time": 7.2,
      "duration": 1.8,
      "velocity": 0.61,
      "hand": "left"
    },
    {
      "midi": 59,
      "time": 7.2,
      "duration": 1.8,
      "velocity": 0.61,
      "hand": "left"
    },
    {
      "midi": 63,
      "time": 7.2,
      "duration": 1.8,
      "velocity": 0.56,
      "hand": "right"
    },
    {
      "midi": 66,
      "time": 7.2,
      "duration": 1.8,
      "velocity": 0.56,
      "hand": "right"
    },
    {
      "midi": 47,
      "time": 9,
      "duration": 0.6,
      "velocity": 0.6,
      "hand": "left"
    },
    {
      "midi": 59,
      "time": 9,
      "duration": 0.6,
      "velocity": 0.6,
      "hand": "left"
    },
    {
      "midi": 63,
      "time": 9,
      "duration": 0.6,
      "velocity": 0.61,
      "hand": "right"
    },
    {
      "midi": 66,
      "time": 9,
      "duration": 0.6,
      "velocity": 0.61,
      "hand": "right"
    },
    {
      "midi": 52,
      "time": 9.6,
      "duration": 0.6,
      "velocity": 0.61,
      "hand": "left"
    },
    {
      "midi": 59,
      "time": 9.6,
      "duration": 0.6,
      "velocity": 0.61,
      "hand": "left"
    },
    {
      "midi": 64,
      "time": 9.6,
      "duration": 0.6,
      "velocity": 0.61,
      "hand": "right"
    },
    {
      "midi": 68,
      "time": 9.6,
      "duration": 0.6,
      "velocity": 0.61,
      "hand": "right"
    },
    {
      "midi": 51,
      "time": 10.2,
      "duration": 0.6,
      "velocity": 0.61,
      "hand": "left"
    },
    {
      "midi": 59,
      "time": 10.2,
      "duration": 0.6,
      "velocity": 0.61,
      "hand": "left"
    },
    {
      "midi": 66,
      "time": 10.2,
      "duration": 0.6,
      "velocity": 0.62,
      "hand": "right"
    },
    {
      "midi": 71,
      "time": 10.2,
      "duration": 0.6,
      "velocity": 0.62,
      "hand": "right"
    },
    {
      "midi": 49,
      "time": 10.8,
      "duration": 0.6,
      "velocity": 0.6,
      "hand": "left"
    },
    {
      "midi": 56,
      "time": 10.8,
      "duration": 0.6,
      "velocity": 0.6,
      "hand": "left"
    },
    {
      "midi": 64,
      "time": 10.8,
      "duration": 0.6,
      "velocity": 0.63,
      "hand": "right"
    },
    {
      "midi": 73,
      "time": 10.8,
      "duration": 0.6,
      "velocity": 0.63,
      "hand": "right"
    },
    {
      "midi": 52,
      "time": 11.4,
      "duration": 0.6,
      "velocity": 0.6,
      "hand": "left"
    },
    {
      "midi": 56,
      "time": 11.4,
      "duration": 0.6,
      "velocity": 0.6,
      "hand": "left"
    },
    {
      "midi": 64,
      "time": 11.4,
      "duration": 0.6,
      "velocity": 0.58,
      "hand": "right"
    },
    {
      "midi": 71,
      "time": 11.4,
      "duration": 0.6,
      "velocity": 0.58,
      "hand": "right"
    },
    {
      "midi": 54,
      "time": 12,
      "duration": 0.6,
      "velocity": 0.65,
      "hand": "left"
    },
    {
      "midi": 58,
      "time": 12,
      "duration": 0.6,
      "velocity": 0.65,
      "hand": "left"
    },
    {
      "midi": 61,
      "time": 12,
      "duration": 0.6,
      "velocity": 0.51,
      "hand": "right"
    },
    {
      "midi": 70,
      "time": 12,
      "duration": 0.6,
      "velocity": 0.51,
      "hand": "right"
    },
    {
      "midi": 52,
      "time": 12.6,
      "duration": 0.6,
      "velocity": 0.59,
      "hand": "left"
    },
    {
      "midi": 58,
      "time": 12.6,
      "duration": 0.6,
      "velocity": 0.59,
      "hand": "left"
    },
    {
      "midi": 61,
      "time": 12.6,
      "duration": 0.6,
      "velocity": 0.55,
      "hand": "right"
    },
    {
      "midi": 68,
      "time": 12.6,
      "duration": 0.3,
      "velocity": 0.54,
      "hand": "right"
    },
    {
      "midi": 66,
      "time": 12.9,
      "duration": 0.3,
      "velocity": 0.56,
      "hand": "right"
    },
    {
      "midi": 51,
      "time": 13.2,
      "duration": 0.6,
      "velocity": 0.59,
      "hand": "left"
    },
    {
      "midi": 59,
      "time": 13.2,
      "duration": 0.6,
      "velocity": 0.59,
      "hand": "left"
    },
    {
      "midi": 66,
      "time": 13.2,
      "duration": 0.6,
      "velocity": 0.7,
      "hand": "right"
    },
    {
      "midi": 71,
      "time": 13.2,
      "duration": 0.6,
      "velocity": 0.7,
      "hand": "right"
    },
    {
      "midi": 49,
      "time": 13.8,
      "duration": 0.6,
      "velocity": 0.6,
      "hand": "left"
    },
    {
      "midi": 58,
      "time": 13.8,
      "duration": 0.6,
      "velocity": 0.6,
      "hand": "left"
    },
    {
      "midi": 64,
      "time": 13.8,
      "duration": 0.6,
      "velocity": 0.7,
      "hand": "right"
    },
    {
      "midi": 76,
      "time": 13.8,
      "duration": 0.6,
      "velocity": 0.7,
      "hand": "right"
    },
    {
      "midi": 47,
      "time": 14.4,
      "duration": 0.6,
      "velocity": 0.61,
      "hand": "left"
    },
    {
      "midi": 59,
      "time": 14.4,
      "duration": 0.6,
      "velocity": 0.61,
      "hand": "left"
    },
    {
      "midi": 66,
      "time": 14.4,
      "duration": 0.6,
      "velocity": 0.6,
      "hand": "right"
    },
    {
      "midi": 75,
      "time": 14.4,
      "duration": 0.6,
      "velocity": 0.6,
      "hand": "right"
    },
    {
      "midi": 52,
      "time": 15,
      "duration": 0.6,
      "velocity": 0.61,
      "hand": "left"
    },
    {
      "midi": 59,
      "time": 15,
      "duration": 0.6,
      "velocity": 0.61,
      "hand": "left"
    },
    {
      "midi": 68,
      "time": 15,
      "duration": 0.6,
      "velocity": 0.69,
      "hand": "right"
    },
    {
      "midi": 76,
      "time": 15,
      "duration": 0.6,
      "velocity": 0.69,
      "hand": "right"
    },
    {
      "midi": 54,
      "time": 15.6,
      "duration": 0.6,
      "velocity": 0.6,
      "hand": "left"
    },
    {
      "midi": 59,
      "time": 15.6,
      "duration": 0.6,
      "velocity": 0.6,
      "hand": "left"
    },
    {
      "midi": 61,
      "time": 15.6,
      "duration": 0.6,
      "velocity": 0.5,
      "hand": "right"
    },
    {
      "midi": 73,
      "time": 15.6,
      "duration": 0.6,
      "velocity": 0.5,
      "hand": "right"
    },
    {
      "midi": 54,
      "time": 16.2,
      "duration": 0.6,
      "velocity": 0.6,
      "hand": "left"
    },
    {
      "midi": 58,
      "time": 16.2,
      "duration": 0.6,
      "velocity": 0.6,
      "hand": "left"
    },
    {
      "midi": 66,
      "time": 16.2,
      "duration": 0.6,
      "velocity": 0.6,
      "hand": "right"
    },
    {
      "midi": 73,
      "time": 16.2,
      "duration": 0.6,
      "velocity": 0.6,
      "hand": "right"
    },
    {
      "midi": 47,
      "time": 16.8,
      "duration": 1.8,
      "velocity": 0.61,
      "hand": "left"
    },
    {
      "midi": 59,
      "time": 16.8,
      "duration": 1.8,
      "velocity": 0.61,
      "hand": "left"
    },
    {
      "midi": 63,
      "time": 16.8,
      "duration": 1.8,
      "velocity": 0.56,
      "hand": "right"
    },
    {
      "midi": 71,
      "time": 16.8,
      "duration": 1.8,
      "velocity": 0.56,
      "hand": "right"
    },
    {
      "midi": 57,
      "time": 18.6,
      "duration": 0.6,
      "velocity": 0.61,
      "hand": "left"
    },
    {
      "midi": 59,
      "time": 18.6,
      "duration": 0.6,
      "velocity": 0.61,
      "hand": "left"
    },
    {
      "midi": 63,
      "time": 18.6,
      "duration": 0.6,
      "velocity": 0.6,
      "hand": "right"
    },
    {
      "midi": 71,
      "time": 18.6,
      "duration": 0.6,
      "velocity": 0.6,
      "hand": "right"
    },
    {
      "midi": 56,
      "time": 19.2,
      "duration": 0.6,
      "velocity": 0.57,
      "hand": "left"
    },
    {
      "midi": 59,
      "time": 19.2,
      "duration": 0.6,
      "velocity": 0.57,
      "hand": "left"
    },
    {
      "midi": 64,
      "time": 19.2,
      "duration": 0.6,
      "velocity": 0.61,
      "hand": "right"
    },
    {
      "midi": 71,
      "time": 19.2,
      "duration": 0.6,
      "velocity": 0.61,
      "hand": "right"
    },
    {
      "midi": 52,
      "time": 19.8,
      "duration": 0.6,
      "velocity": 0.61,
      "hand": "left"
    },
    {
      "midi": 59,
      "time": 19.8,
      "duration": 0.6,
      "velocity": 0.61,
      "hand": "left"
    },
    {
      "midi": 64,
      "time": 19.8,
      "duration": 0.6,
      "velocity": 0.54,
      "hand": "right"
    },
    {
      "midi": 68,
      "time": 19.8,
      "duration": 0.6,
      "velocity": 0.54,
      "hand": "right"
    },
    {
      "midi": 54,
      "time": 20.4,
      "duration": 0.6,
      "velocity": 0.59,
      "hand": "left"
    },
    {
      "midi": 57,
      "time": 20.4,
      "duration": 0.6,
      "velocity": 0.59,
      "hand": "left"
    },
    {
      "midi": 63,
      "time": 20.4,
      "duration": 0.6,
      "velocity": 0.54,
      "hand": "right"
    },
    {
      "midi": 66,
      "time": 20.4,
      "duration": 0.6,
      "velocity": 0.54,
      "hand": "right"
    },
    {
      "midi": 56,
      "time": 21,
      "duration": 0.6,
      "velocity": 0.61,
      "hand": "left"
    },
    {
      "midi": 59,
      "time": 21,
      "duration": 0.6,
      "velocity": 0.61,
      "hand": "left"
    },
    {
      "midi": 64,
      "time": 21,
      "duration": 0.6,
      "velocity": 0.57,
      "hand": "right"
    },
    {
      "midi": 57,
      "time": 21.6,
      "duration": 1.8,
      "velocity": 0.63,
      "hand": "left"
    },
    {
      "midi": 61,
      "time": 21.6,
      "duration": 1.8,
      "velocity": 0.63,
      "hand": "right"
    },
    {
      "midi": 64,
      "time": 21.6,
      "duration": 1.8,
      "velocity": 0.73,
      "hand": "right"
    },
    {
      "midi": 73,
      "time": 21.6,
      "duration": 1.8,
      "velocity": 0.73,
      "hand": "right"
    },
    {
      "midi": 56,
      "time": 23.4,
      "duration": 0.6,
      "velocity": 0.61,
      "hand": "left"
    },
    {
      "midi": 59,
      "time": 23.4,
      "duration": 0.6,
      "velocity": 0.61,
      "hand": "left"
    },
    {
      "midi": 65,
      "time": 23.4,
      "duration": 0.6,
      "velocity": 0.62,
      "hand": "right"
    },
    {
      "midi": 73,
      "time": 23.4,
      "duration": 0.6,
      "velocity": 0.62,
      "hand": "right"
    },
    {
      "midi": 54,
      "time": 24,
      "duration": 0.6,
      "velocity": 0.6,
      "hand": "left"
    },
    {
      "midi": 58,
      "time": 24,
      "duration": 0.6,
      "velocity": 0.6,
      "hand": "left"
    },
    {
      "midi": 66,
      "time": 24,
      "duration": 0.6,
      "velocity": 0.61,
      "hand": "right"
    },
    {
      "midi": 73,
      "time": 24,
      "duration": 0.6,
      "velocity": 0.61,
      "hand": "right"
    },
    {
      "midi": 54,
      "time": 24.6,
      "duration": 0.6,
      "velocity": 0.64,
      "hand": "left"
    },
    {
      "midi": 61,
      "time": 24.6,
      "duration": 0.6,
      "velocity": 0.64,
      "hand": "right"
    },
    {
      "midi": 66,
      "time": 24.6,
      "duration": 0.6,
      "velocity": 0.52,
      "hand": "right"
    },
    {
      "midi": 70,
      "time": 24.6,
      "duration": 0.6,
      "velocity": 0.52,
      "hand": "right"
    },
    {
      "midi": 56,
      "time": 25.2,
      "duration": 0.6,
      "velocity": 0.58,
      "hand": "left"
    },
    {
      "midi": 59,
      "time": 25.2,
      "duration": 0.6,
      "velocity": 0.58,
      "hand": "left"
    },
    {
      "midi": 64,
      "time": 25.2,
      "duration": 0.6,
      "velocity": 0.55,
      "hand": "right"
    },
    {
      "midi": 68,
      "time": 25.2,
      "duration": 0.6,
      "velocity": 0.55,
      "hand": "right"
    },
    {
      "midi": 58,
      "time": 25.8,
      "duration": 0.6,
      "velocity": 0.61,
      "hand": "left"
    },
    {
      "midi": 61,
      "time": 25.8,
      "duration": 0.6,
      "velocity": 0.61,
      "hand": "right"
    },
    {
      "midi": 66,
      "time": 25.8,
      "duration": 0.6,
      "velocity": 0.54,
      "hand": "right"
    },
    {
      "midi": 59,
      "time": 26.4,
      "duration": 1.8,
      "velocity": 0.59,
      "hand": "left"
    },
    {
      "midi": 66,
      "time": 26.4,
      "duration": 1.8,
      "velocity": 0.72,
      "hand": "right"
    },
    {
      "midi": 75,
      "time": 26.4,
      "duration": 1.8,
      "velocity": 0.72,
      "hand": "right"
    },
    {
      "midi": 57,
      "time": 28.2,
      "duration": 0.6,
      "velocity": 0.61,
      "hand": "left"
    },
    {
      "midi": 59,
      "time": 28.2,
      "duration": 0.6,
      "velocity": 0.61,
      "hand": "left"
    },
    {
      "midi": 66,
      "time": 28.2,
      "duration": 0.6,
      "velocity": 0.57,
      "hand": "right"
    },
    {
      "midi": 75,
      "time": 28.2,
      "duration": 0.6,
      "velocity": 0.57,
      "hand": "right"
    },
    {
      "midi": 56,
      "time": 28.8,
      "duration": 0.9,
      "velocity": 0.59,
      "hand": "left"
    },
    {
      "midi": 59,
      "time": 28.8,
      "duration": 0.9,
      "velocity": 0.59,
      "hand": "left"
    },
    {
      "midi": 64,
      "time": 28.8,
      "duration": 0.9,
      "velocity": 0.62,
      "hand": "right"
    },
    {
      "midi": 76,
      "time": 28.8,
      "duration": 0.9,
      "velocity": 0.62,
      "hand": "right"
    },
    {
      "midi": 56,
      "time": 29.7,
      "duration": 0.3,
      "velocity": 0.59,
      "hand": "left"
    },
    {
      "midi": 59,
      "time": 29.7,
      "duration": 0.3,
      "velocity": 0.59,
      "hand": "left"
    },
    {
      "midi": 64,
      "time": 29.7,
      "duration": 0.3,
      "velocity": 0.56,
      "hand": "right"
    },
    {
      "midi": 75,
      "time": 29.7,
      "duration": 0.3,
      "velocity": 0.56,
      "hand": "right"
    },
    {
      "midi": 57,
      "time": 30,
      "duration": 0.6,
      "velocity": 0.62,
      "hand": "left"
    },
    {
      "midi": 64,
      "time": 30,
      "duration": 0.6,
      "velocity": 0.57,
      "hand": "right"
    },
    {
      "midi": 73,
      "time": 30,
      "duration": 0.6,
      "velocity": 0.57,
      "hand": "right"
    },
    {
      "midi": 56,
      "time": 30.6,
      "duration": 0.6,
      "velocity": 0.6,
      "hand": "left"
    },
    {
      "midi": 59,
      "time": 30.6,
      "duration": 0.6,
      "velocity": 0.6,
      "hand": "left"
    },
    {
      "midi": 64,
      "time": 30.6,
      "duration": 0.6,
      "velocity": 0.54,
      "hand": "right"
    },
    {
      "midi": 71,
      "time": 30.6,
      "duration": 0.6,
      "velocity": 0.54,
      "hand": "right"
    },
    {
      "midi": 54,
      "time": 31.2,
      "duration": 0.6,
      "velocity": 0.63,
      "hand": "left"
    },
    {
      "midi": 61,
      "time": 31.2,
      "duration": 0.6,
      "velocity": 0.63,
      "hand": "right"
    },
    {
      "midi": 64,
      "time": 31.2,
      "duration": 0.6,
      "velocity": 0.54,
      "hand": "right"
    },
    {
      "midi": 69,
      "time": 31.2,
      "duration": 0.6,
      "velocity": 0.54,
      "hand": "right"
    },
    {
      "midi": 59,
      "time": 31.8,
      "duration": 0.6,
      "velocity": 0.57,
      "hand": "left"
    },
    {
      "midi": 63,
      "time": 31.8,
      "duration": 0.6,
      "velocity": 0.55,
      "hand": "right"
    },
    {
      "midi": 66,
      "time": 31.8,
      "duration": 0.6,
      "velocity": 0.55,
      "hand": "right"
    },
    {
      "midi": 52,
      "time": 32.4,
      "duration": 0.6,
      "velocity": 0.62,
      "hand": "left"
    },
    {
      "midi": 59,
      "time": 32.4,
      "duration": 0.6,
      "velocity": 0.62,
      "hand": "left"
    },
    {
      "midi": 64,
      "time": 32.4,
      "duration": 0.6,
      "velocity": 0.61,
      "hand": "right"
    },
    {
      "midi": 68,
      "time": 32.4,
      "duration": 0.6,
      "velocity": 0.61,
      "hand": "right"
    },
    {
      "midi": 44,
      "time": 33,
      "duration": 0.6,
      "velocity": 0.63,
      "hand": "left"
    },
    {
      "midi": 59,
      "time": 33,
      "duration": 0.6,
      "velocity": 0.63,
      "hand": "left"
    },
    {
      "midi": 64,
      "time": 33,
      "duration": 0.6,
      "velocity": 0.67,
      "hand": "right"
    },
    {
      "midi": 71,
      "time": 33,
      "duration": 0.6,
      "velocity": 0.67,
      "hand": "right"
    },
    {
      "midi": 45,
      "time": 33.6,
      "duration": 0.6,
      "velocity": 0.62,
      "hand": "left"
    },
    {
      "midi": 61,
      "time": 33.6,
      "duration": 0.6,
      "velocity": 0.62,
      "hand": "right"
    },
    {
      "midi": 64,
      "time": 33.6,
      "duration": 0.6,
      "velocity": 0.58,
      "hand": "right"
    },
    {
      "midi": 69,
      "time": 33.6,
      "duration": 0.6,
      "velocity": 0.58,
      "hand": "right"
    },
    {
      "midi": 52,
      "time": 34.2,
      "duration": 0.6,
      "velocity": 0.58,
      "hand": "left"
    },
    {
      "midi": 59,
      "time": 34.2,
      "duration": 0.6,
      "velocity": 0.58,
      "hand": "left"
    },
    {
      "midi": 64,
      "time": 34.2,
      "duration": 0.6,
      "velocity": 0.54,
      "hand": "right"
    },
    {
      "midi": 68,
      "time": 34.2,
      "duration": 0.6,
      "velocity": 0.54,
      "hand": "right"
    },
    {
      "midi": 47,
      "time": 34.8,
      "duration": 0.6,
      "velocity": 0.5,
      "hand": "left"
    },
    {
      "midi": 59,
      "time": 34.8,
      "duration": 0.9,
      "velocity": 0.61,
      "hand": "left"
    },
    {
      "midi": 64,
      "time": 34.8,
      "duration": 0.6,
      "velocity": 0.56,
      "hand": "right"
    },
    {
      "midi": 66,
      "time": 34.8,
      "duration": 0.6,
      "velocity": 0.56,
      "hand": "right"
    },
    {
      "midi": 47,
      "time": 35.4,
      "duration": 0.6,
      "velocity": 0.54,
      "hand": "left"
    },
    {
      "midi": 63,
      "time": 35.4,
      "duration": 0.6,
      "velocity": 0.6,
      "hand": "right"
    },
    {
      "midi": 66,
      "time": 35.4,
      "duration": 0.6,
      "velocity": 0.6,
      "hand": "right"
    },
    {
      "midi": 57,
      "time": 35.7,
      "duration": 0.3,
      "velocity": 0.54,
      "hand": "left"
    },
    {
      "midi": 52,
      "time": 36,
      "duration": 2.4,
      "velocity": 0.57,
      "hand": "left"
    },
    {
      "midi": 56,
      "time": 36,
      "duration": 2.4,
      "velocity": 0.57,
      "hand": "left"
    },
    {
      "midi": 64,
      "time": 36,
      "duration": 2.4,
      "velocity": 0.56,
      "hand": "right"
    }
  ]
}
