{
  "id": "das-wohltemperierte-clavier-ii-praeludium-iijsbach",
  "title": "O Cravo Bem Temperado II: Prelúdio II",
  "artist": "Johann Sebastian Bach",
  "difficulty": "Difícil",
  "bpm": 120,
  "duration": 56,
  "category": "Clássicos",
  "isPremium": true,
  "coverUrl": "/images/covers/placeholder.png",
  "notes": [
    {
      "midi": 48,
      "time": 0,
      "duration": 0.25,
      "velocity": 0.71,
      "hand": "left"
    },
    {
      "midi": 67,
      "time": 0.125,
      "duration": 0.125,
      "velocity": 0.71,
      "hand": "right"
    },
    {
      "midi": 60,
      "time": 0.25,
      "duration": 0.25,
      "velocity": 0.71,
      "hand": "right"
    },
    {
      "midi": 65,
      "time": 0.25,
      "duration": 0.125,
      "velocity": 0.71,
      "hand": "right"
    },
    {
      "midi": 67,
      "time": 0.375,
      "duration": 0.125,
      "velocity": 0.71,
      "hand": "right"
    },
    {
      "midi": 53,
      "time": 0.5,
      "duration": 0.25,
      "velocity": 0.71,
      "hand": "left"
    },
    {
      "midi": 68,
      "time": 0.5,
      "duration": 0.125,
      "velocity": 0.71,
      "hand": "right"
    },
    {
      "midi": 65,
      "time": 0.625,
      "duration": 0.125,
      "velocity": 0.71,
      "hand": "right"
    },
    {
      "midi": 60,
      "time": 0.75,
      "duration": 0.25,
      "velocity": 0.71,
      "hand": "right"
    },
    {
      "midi": 63,
      "time": 0.75,
      "duration": 0.125,
      "velocity": 0.71,
      "hand": "right"
    },
    {
      "midi": 65,
      "time": 0.875,
      "duration": 0.125,
      "velocity": 0.71,
      "hand": "right"
    },
    {
      "midi": 51,
      "time": 1,
      "duration": 0.25,
      "velocity": 0.71,
      "hand": "left"
    },
    {
      "midi": 67,
      "time": 1,
      "duration": 0.125,
      "velocity": 0.71,
      "hand": "right"
    },
    {
      "midi": 63,
      "time": 1.125,
      "duration": 0.125,
      "velocity": 0.71,
      "hand": "right"
    },
    {
      "midi": 60,
      "time": 1.25,
      "duration": 0.25,
      "velocity": 0.71,
      "hand": "right"
    },
    {
      "midi": 62,
      "time": 1.25,
      "duration": 0.125,
      "velocity": 0.71,
      "hand": "right"
    },
    {
      "midi": 63,
      "time": 1.375,
      "duration": 0.125,
      "velocity": 0.71,
      "hand": "right"
    },
    {
      "midi": 50,
      "time": 1.5,
      "duration": 0.25,
      "velocity": 0.71,
      "hand": "left"
    },
    {
      "midi": 65,
      "time": 1.5,
      "duration": 0.125,
      "velocity": 0.71,
      "hand": "right"
    },
    {
      "midi": 62,
      "time": 1.625,
      "duration": 0.125,
      "velocity": 0.71,
      "hand": "right"
    },
    {
      "midi": 59,
      "time": 1.75,
      "duration": 0.25,
      "velocity": 0.71,
      "hand": "left"
    },
    {
      "midi": 60,
      "time": 1.75,
      "duration": 0.125,
      "velocity": 0.71,
      "hand": "right"
    },
    {
      "midi": 62,
      "time": 1.875,
      "duration": 0.125,
      "velocity": 0.71,
      "hand": "right"
    },
    {
      "midi": 48,
      "time": 2,
      "duration": 0.125,
      "velocity": 0.71,
      "hand": "left"
    },
    {
      "midi": 63,
      "time": 2,
      "duration": 0.25,
      "velocity": 0.71,
      "hand": "right"
    },
    {
      "midi": 55,
      "time": 2.125,
      "duration": 0.125,
      "velocity": 0.71,
      "hand": "left"
    },
    {
      "midi": 53,
      "time": 2.25,
      "duration": 0.125,
      "velocity": 0.71,
      "hand": "left"
    },
    {
      "midi": 72,
      "time": 2.25,
      "duration": 0.25,
      "velocity": 0.71,
      "hand": "right"
    },
    {
      "midi": 55,
      "time": 2.375,
      "duration": 0.125,
      "velocity": 0.71,
      "hand": "left"
    },
    {
      "midi": 56,
      "time": 2.5,
      "duration": 0.125,
      "velocity": 0.71,
      "hand": "left"
    },
    {
      "midi": 65,
      "time": 2.5,
      "duration": 0.25,
      "velocity": 0.71,
      "hand": "right"
    },
    {
      "midi": 53,
      "time": 2.625,
      "duration": 0.125,
      "velocity": 0.71,
      "hand": "left"
    },
    {
      "midi": 51,
      "time": 2.75,
      "duration": 0.125,
      "velocity": 0.71,
      "hand": "left"
    },
    {
      "midi": 72,
      "time": 2.75,
      "duration": 0.25,
      "velocity": 0.71,
      "hand": "right"
    },
    {
      "midi": 53,
      "time": 2.875,
      "duration": 0.125,
      "velocity": 0.71,
      "hand": "left"
    },
    {
      "midi": 55,
      "time": 3,
      "duration": 0.125,
      "velocity": 0.71,
      "hand": "left"
    },
    {
      "midi": 63,
      "time": 3,
      "duration": 0.25,
      "velocity": 0.71,
      "hand": "right"
    },
    {
      "midi": 51,
      "time": 3.125,
      "duration": 0.125,
      "velocity": 0.71,
      "hand": "left"
    },
    {
      "midi": 50,
      "time": 3.25,
      "duration": 0.125,
      "velocity": 0.71,
      "hand": "left"
    },
    {
      "midi": 72,
      "time": 3.25,
      "duration": 0.25,
      "velocity": 0.71,
      "hand": "right"
    },
    {
      "midi": 51,
      "time": 3.375,
      "duration": 0.125,
      "velocity": 0.71,
      "hand": "left"
    },
    {
      "midi": 53,
      "time": 3.5,
      "duration": 0.125,
      "velocity": 0.71,
      "hand": "left"
    },
    {
      "midi": 62,
      "time": 3.5,
      "duration": 0.25,
      "velocity": 0.71,
      "hand": "right"
    },
    {
      "midi": 50,
      "time": 3.625,
      "duration": 0.125,
      "velocity": 0.71,
      "hand": "left"
    },
    {
      "midi": 48,
      "time": 3.75,
      "duration": 0.125,
      "velocity": 0.71,
      "hand": "left"
    },
    {
      "midi": 71,
      "time": 3.75,
      "duration": 0.25,
      "velocity": 0.71,
      "hand": "right"
    },
    {
      "midi": 50,
      "time": 3.875,
      "duration": 0.125,
      "velocity": 0.71,
      "hand": "left"
    },
    {
      "midi": 51,
      "time": 4,
      "duration": 0.25,
      "velocity": 0.71,
      "hand": "left"
    },
    {
      "midi": 60,
      "time": 4,
      "duration": 0.125,
      "velocity": 0.71,
      "hand": "right"
    },
    {
      "midi": 63,
      "time": 4.125,
      "duration": 0.125,
      "velocity": 0.71,
      "hand": "right"
    },
    {
      "midi": 48,
      "time": 4.25,
      "duration": 0.25,
      "velocity": 0.71,
      "hand": "left"
    },
    {
      "midi": 67,
      "time": 4.25,
      "duration": 0.125,
      "velocity": 0.71,
      "hand": "right"
    },
    {
      "midi": 72,
      "time": 4.375,
      "duration": 0.125,
      "velocity": 0.71,
      "hand": "right"
    },
    {
      "midi": 53,
      "time": 4.5,
      "duration": 0.25,
      "velocity": 0.71,
      "hand": "left"
    },
    {
      "midi": 62,
      "time": 4.5,
      "duration": 0.125,
      "velocity": 0.71,
      "hand": "right"
    },
    {
      "midi": 72,
      "time": 4.625,
      "duration": 0.125,
      "velocity": 0.71,
      "hand": "right"
    },
    {
      "midi": 50,
      "time": 4.75,
      "duration": 0.25,
      "velocity": 0.71,
      "hand": "left"
    },
    {
      "midi": 71,
      "time": 4.75,
      "duration": 0.125,
      "velocity": 0.71,
      "hand": "right"
    },
    {
      "midi": 69,
      "time": 4.875,
      "duration": 0.125,
      "velocity": 0.71,
      "hand": "right"
    },
    {
      "midi": 55,
      "time": 5,
      "duration": 0.25,
      "velocity": 0.71,
      "hand": "left"
    },
    {
      "midi": 62,
      "time": 5,
      "duration": 0.125,
      "velocity": 0.71,
      "hand": "right"
    },
    {
      "midi": 67,
      "time": 5.125,
      "duration": 0.125,
      "velocity": 0.71,
      "hand": "right"
    },
    {
      "midi": 53,
      "time": 5.25,
      "duration": 0.25,
      "velocity": 0.71,
      "hand": "left"
    },
    {
      "midi": 71,
      "time": 5.25,
      "duration": 0.125,
      "velocity": 0.71,
      "hand": "right"
    },
    {
      "midi": 74,
      "time": 5.375,
      "duration": 0.125,
      "velocity": 0.71,
      "hand": "right"
    },
    {
      "midi": 55,
      "time": 5.5,
      "duration": 0.25,
      "velocity": 0.71,
      "hand": "left"
    },
    {
      "midi": 63,
      "time": 5.5,
      "duration": 0.125,
      "velocity": 0.71,
      "hand": "right"
    },
    {
      "midi": 74,
      "time": 5.625,
      "duration": 0.125,
      "velocity": 0.71,
      "hand": "right"
    },
    {
      "midi": 51,
      "time": 5.75,
      "duration": 0.25,
      "velocity": 0.71,
      "hand": "left"
    },
    {
      "midi": 72,
      "time": 5.75,
      "duration": 0.125,
      "velocity": 0.71,
      "hand": "right"
    },
    {
      "midi": 71,
      "time": 5.875,
      "duration": 0.125,
      "velocity": 0.71,
      "hand": "right"
    },
    {
      "midi": 56,
      "time": 6,
      "duration": 0.25,
      "velocity": 0.71,
      "hand": "left"
    },
    {
      "midi": 63,
      "time": 6,
      "duration": 0.125,
      "velocity": 0.71,
      "hand": "right"
    },
    {
      "midi": 68,
      "time": 6.125,
      "duration": 0.125,
      "velocity": 0.71,
      "hand": "right"
    },
    {
      "midi": 55,
      "time": 6.25,
      "duration": 0.25,
      "velocity": 0.71,
      "hand": "left"
    },
    {
      "midi": 72,
      "time": 6.25,
      "duration": 0.125,
      "velocity": 0.71,
      "hand": "right"
    },
    {
      "midi": 75,
      "time": 6.375,
      "duration": 0.125,
      "velocity": 0.71,
      "hand": "right"
    },
    {
      "midi": 57,
      "time": 6.5,
      "duration": 0.25,
      "velocity": 0.71,
      "hand": "left"
    },
    {
      "midi": 65,
      "time": 6.5,
      "duration": 0.125,
      "velocity": 0.71,
      "hand": "right"
    },
    {
      "midi": 75,
      "time": 6.625,
      "duration": 0.125,
      "velocity": 0.71,
      "hand": "right"
    },
    {
      "midi": 53,
      "time": 6.75,
      "duration": 0.25,
      "velocity": 0.71,
      "hand": "left"
    },
    {
      "midi": 74,
      "time": 6.75,
      "duration": 0.125,
      "velocity": 0.71,
      "hand": "right"
    },
    {
      "midi": 72,
      "time": 6.875,
      "duration": 0.125,
      "velocity": 0.71,
      "hand": "right"
    },
    {
      "midi": 58,
      "time": 7,
      "duration": 0.25,
      "velocity": 0.71,
      "hand": "left"
    },
    {
      "midi": 65,
      "time": 7,
      "duration": 0.125,
      "velocity": 0.71,
      "hand": "right"
    },
    {
      "midi": 70,
      "time": 7.125,
      "duration": 0.125,
      "velocity": 0.71,
      "hand": "right"
    },
    {
      "midi": 57,
      "time": 7.25,
      "duration": 0.25,
      "velocity": 0.71,
      "hand": "left"
    },
    {
      "midi": 74,
      "time": 7.25,
      "duration": 0.125,
      "velocity": 0.71,
      "hand": "right"
    },
    {
      "midi": 77,
      "time": 7.375,
      "duration": 0.125,
      "velocity": 0.71,
      "hand": "right"
    },
    {
      "midi": 59,
      "time": 7.5,
      "duration": 0.25,
      "velocity": 0.71,
      "hand": "left"
    },
    {
      "midi": 67,
      "time": 7.5,
      "duration": 0.125,
      "velocity": 0.71,
      "hand": "right"
    },
    {
      "midi": 77,
      "time": 7.625,
      "duration": 0.125,
      "velocity": 0.71,
      "hand": "right"
    },
    {
      "midi": 55,
      "time": 7.75,
      "duration": 0.25,
      "velocity": 0.71,
      "hand": "left"
    },
    {
      "midi": 75,
      "time": 7.75,
      "duration": 0.125,
      "velocity": 0.71,
      "hand": "right"
    },
    {
      "midi": 74,
      "time": 7.875,
      "duration": 0.125,
      "velocity": 0.71,
      "hand": "right"
    },
    {
      "midi": 60,
      "time": 8,
      "duration": 0.125,
      "velocity": 0.71,
      "hand": "right"
    },
    {
      "midi": 75,
      "time": 8,
      "duration": 0.125,
      "velocity": 0.71,
      "hand": "right"
    },
    {
      "midi": 68,
      "time": 8.125,
      "duration": 0.125,
      "velocity": 0.71,
      "hand": "right"
    },
    {
      "midi": 72,
      "time": 8.125,
      "duration": 0.125,
      "velocity": 0.71,
      "hand": "right"
    },
    {
      "midi": 67,
      "time": 8.25,
      "duration": 0.125,
      "velocity": 0.71,
      "hand": "right"
    },
    {
      "midi": 70,
      "time": 8.25,
      "duration": 0.125,
      "velocity": 0.71,
      "hand": "right"
    },
    {
      "midi": 68,
      "time": 8.375,
      "duration": 0.125,
      "velocity": 0.71,
      "hand": "right"
    },
    {
      "midi": 72,
      "time": 8.375,
      "duration": 0.125,
      "velocity": 0.71,
      "hand": "right"
    },
    {
      "midi": 58,
      "time": 8.5,
      "duration": 0.125,
      "velocity": 0.71,
      "hand": "left"
    },
    {
      "midi": 74,
      "time": 8.5,
      "duration": 0.125,
      "velocity": 0.71,
      "hand": "right"
    },
    {
      "midi": 67,
      "time": 8.625,
      "duration": 0.125,
      "velocity": 0.71,
      "hand": "right"
    },
    {
      "midi": 70,
      "time": 8.625,
      "duration": 0.125,
      "velocity": 0.71,
      "hand": "right"
    },
    {
      "midi": 65,
      "time": 8.75,
      "duration": 0.125,
      "velocity": 0.71,
      "hand": "right"
    },
    {
      "midi": 68,
      "time": 8.75,
      "duration": 0.125,
      "velocity": 0.71,
      "hand": "right"
    },
    {
      "midi": 67,
      "time": 8.875,
      "duration": 0.125,
      "velocity": 0.71,
      "hand": "right"
    },
    {
      "midi": 70,
      "time": 8.875,
      "duration": 0.125,
      "velocity": 0.71,
      "hand": "right"
    },
    {
      "midi": 56,
      "time": 9,
      "duration": 0.25,
      "velocity": 0.71,
      "hand": "left"
    },
    {
      "midi": 72,
      "time": 9,
      "duration": 0.125,
      "velocity": 0.71,
      "hand": "right"
    },
    {
      "midi": 70,
      "time": 9.125,
      "duration": 0.125,
      "velocity": 0.71,
      "hand": "right"
    },
    {
      "midi": 68,
      "time": 9.25,
      "duration": 0.125,
      "velocity": 0.71,
      "hand": "right"
    },
    {
      "midi": 67,
      "time": 9.375,
      "duration": 0.125,
      "velocity": 0.71,
      "hand": "right"
    },
    {
      "midi": 65,
      "time": 9.5,
      "duration": 0.125,
      "velocity": 0.71,
      "hand": "right"
    },
    {
      "midi": 63,
      "time": 9.625,
      "duration": 0.125,
      "velocity": 0.71,
      "hand": "right"
    },
    {
      "midi": 62,
      "time": 9.75,
      "duration": 0.125,
      "velocity": 0.71,
      "hand": "right"
    },
    {
      "midi": 60,
      "time": 9.875,
      "duration": 0.125,
      "velocity": 0.71,
      "hand": "right"
    },
    {
      "midi": 58,
      "time": 10,
      "duration": 0.125,
      "velocity": 0.71,
      "hand": "left"
    },
    {
      "midi": 74,
      "time": 10,
      "duration": 0.125,
      "velocity": 0.71,
      "hand": "right"
    },
    {
      "midi": 67,
      "time": 10.125,
      "duration": 0.125,
      "velocity": 0.71,
      "hand": "right"
    },
    {
      "midi": 70,
      "time": 10.125,
      "duration": 0.125,
      "velocity": 0.71,
      "hand": "right"
    },
    {
      "midi": 65,
      "time": 10.25,
      "duration": 0.125,
      "velocity": 0.71,
      "hand": "right"
    },
    {
      "midi": 68,
      "time": 10.25,
      "duration": 0.125,
      "velocity": 0.71,
      "hand": "right"
    },
    {
      "midi": 67,
      "time": 10.375,
      "duration": 0.125,
      "velocity": 0.71,
      "hand": "right"
    },
    {
      "midi": 70,
      "time": 10.375,
      "duration": 0.125,
      "velocity": 0.71,
      "hand": "right"
    },
    {
      "midi": 56,
      "time": 10.5,
      "duration": 0.125,
      "velocity": 0.71,
      "hand": "left"
    },
    {
      "midi": 72,
      "time": 10.5,
      "duration": 0.125,
      "velocity": 0.71,
      "hand": "right"
    },
    {
      "midi": 65,
      "time": 10.625,
      "duration": 0.125,
      "velocity": 0.71,
      "hand": "right"
    },
    {
      "midi": 68,
      "time": 10.625,
      "duration": 0.125,
      "velocity": 0.71,
      "hand": "right"
    },
    {
      "midi": 63,
      "time": 10.75,
      "duration": 0.125,
      "velocity": 0.71,
      "hand": "right"
    },
    {
      "midi": 67,
      "time": 10.75,
      "duration": 0.125,
      "velocity": 0.71,
      "hand": "right"
    },
    {
      "midi": 65,
      "time": 10.875,
      "duration": 0.125,
      "velocity": 0.71,
      "hand": "right"
    },
    {
      "midi": 68,
      "time": 10.875,
      "duration": 0.125,
      "velocity": 0.71,
      "hand": "right"
    },
    {
      "midi": 55,
      "time": 11,
      "duration": 0.25,
      "velocity": 0.71,
      "hand": "left"
    },
    {
      "midi": 70,
      "time": 11,
      "duration": 0.125,
      "velocity": 0.71,
      "hand": "right"
    },
    {
      "midi": 68,
      "time": 11.125,
      "duration": 0.125,
      "velocity": 0.71,
      "hand": "right"
    },
    {
      "midi": 67,
      "time": 11.25,
      "duration": 0.125,
      "velocity": 0.71,
      "hand": "right"
    },
    {
      "midi": 65,
      "time": 11.375,
      "duration": 0.125,
      "velocity": 0.71,
      "hand": "right"
    },
    {
      "midi": 63,
      "time": 11.5,
      "duration": 0.125,
      "velocity": 0.71,
      "hand": "right"
    },
    {
      "midi": 61,
      "time": 11.625,
      "duration": 0.125,
      "velocity": 0.71,
      "hand": "right"
    },
    {
      "midi": 60,
      "time": 11.75,
      "duration": 0.125,
      "velocity": 0.71,
      "hand": "right"
    },
    {
      "midi": 58,
      "time": 11.875,
      "duration": 0.125,
      "velocity": 0.71,
      "hand": "left"
    },
    {
      "midi": 56,
      "time": 12,
      "duration": 0.125,
      "velocity": 0.71,
      "hand": "left"
    },
    {
      "midi": 72,
      "time": 12,
      "duration": 0.125,
      "velocity": 0.71,
      "hand": "right"
    },
    {
      "midi": 65,
      "time": 12.125,
      "duration": 0.125,
      "velocity": 0.71,
      "hand": "right"
    },
    {
      "midi": 68,
      "time": 12.125,
      "duration": 0.125,
      "velocity": 0.71,
      "hand": "right"
    },
    {
      "midi": 63,
      "time": 12.25,
      "duration": 0.125,
      "velocity": 0.71,
      "hand": "right"
    },
    {
      "midi": 67,
      "time": 12.25,
      "duration": 0.125,
      "velocity": 0.71,
      "hand": "right"
    },
    {
      "midi": 65,
      "time": 12.375,
      "duration": 0.125,
      "velocity": 0.71,
      "hand": "right"
    },
    {
      "midi": 68,
      "time": 12.375,
      "duration": 0.125,
      "velocity": 0.71,
      "hand": "right"
    },
    {
      "midi": 55,
      "time": 12.5,
      "duration": 0.125,
      "velocity": 0.71,
      "hand": "left"
    },
    {
      "midi": 70,
      "time": 12.5,
      "duration": 0.125,
      "velocity": 0.71,
      "hand": "right"
    },
    {
      "midi": 63,
      "time": 12.625,
      "duration": 0.125,
      "velocity": 0.71,
      "hand": "right"
    },
    {
      "midi": 67,
      "time": 12.625,
      "duration": 0.125,
      "velocity": 0.71,
      "hand": "right"
    },
    {
      "midi": 62,
      "time": 12.75,
      "duration": 0.125,
      "velocity": 0.71,
      "hand": "right"
    },
    {
      "midi": 65,
      "time": 12.75,
      "duration": 0.125,
      "velocity": 0.71,
      "hand": "right"
    },
    {
      "midi": 63,
      "time": 12.875,
      "duration": 0.125,
      "velocity": 0.71,
      "hand": "right"
    },
    {
      "midi": 67,
      "time": 12.875,
      "duration": 0.125,
      "velocity": 0.71,
      "hand": "right"
    },
    {
      "midi": 53,
      "time": 13,
      "duration": 0.125,
      "velocity": 0.71,
      "hand": "left"
    },
    {
      "midi": 68,
      "time": 13,
      "duration": 0.125,
      "velocity": 0.71,
      "hand": "right"
    },
    {
      "midi": 62,
      "time": 13.125,
      "duration": 0.125,
      "velocity": 0.71,
      "hand": "right"
    },
    {
      "midi": 65,
      "time": 13.125,
      "duration": 0.125,
      "velocity": 0.71,
      "hand": "right"
    },
    {
      "midi": 60,
      "time": 13.25,
      "duration": 0.125,
      "velocity": 0.71,
      "hand": "right"
    },
    {
      "midi": 63,
      "time": 13.25,
      "duration": 0.125,
      "velocity": 0.71,
      "hand": "right"
    },
    {
      "midi": 62,
      "time": 13.375,
      "duration": 0.125,
      "velocity": 0.71,
      "hand": "right"
    },
    {
      "midi": 65,
      "time": 13.375,
      "duration": 0.125,
      "velocity": 0.71,
      "hand": "right"
    },
    {
      "midi": 51,
      "time": 13.5,
      "duration": 0.125,
      "velocity": 0.71,
      "hand": "left"
    },
    {
      "midi": 68,
      "time": 13.5,
      "duration": 0.25,
      "velocity": 0.71,
      "hand": "right"
    },
    {
      "midi": 60,
      "time": 13.625,
      "duration": 0.125,
      "velocity": 0.71,
      "hand": "right"
    },
    {
      "midi": 58,
      "time": 13.75,
      "duration": 0.125,
      "velocity": 0.71,
      "hand": "left"
    },
    {
      "midi": 68,
      "time": 13.75,
      "duration": 0.25,
      "velocity": 0.71,
      "hand": "right"
    },
    {
      "midi": 60,
      "time": 13.875,
      "duration": 0.125,
      "velocity": 0.71,
      "hand": "right"
    },
    {
      "midi": 62,
      "time": 14,
      "duration": 0.125,
      "velocity": 0.71,
      "hand": "right"
    },
    {
      "midi": 68,
      "time": 14,
      "duration": 0.125,
      "velocity": 0.71,
      "hand": "right"
    },
    {
      "midi": 58,
      "time": 14.125,
      "duration": 0.125,
      "velocity": 0.71,
      "hand": "left"
    },
    {
      "midi": 67,
      "time": 14.125,
      "duration": 0.125,
      "velocity": 0.71,
      "hand": "right"
    },
    {
      "midi": 56,
      "time": 14.25,
      "duration": 0.125,
      "velocity": 0.71,
      "hand": "left"
    },
    {
      "midi": 65,
      "time": 14.25,
      "duration": 0.125,
      "velocity": 0.71,
      "hand": "right"
    },
    {
      "midi": 58,
      "time": 14.375,
      "duration": 0.125,
      "velocity": 0.71,
      "hand": "left"
    },
    {
      "midi": 67,
      "time": 14.375,
      "duration": 0.125,
      "velocity": 0.71,
      "hand": "right"
    },
    {
      "midi": 60,
      "time": 14.5,
      "duration": 0.125,
      "velocity": 0.71,
      "hand": "right"
    },
    {
      "midi": 68,
      "time": 14.5,
      "duration": 0.25,
      "velocity": 0.71,
      "hand": "right"
    },
    {
      "midi": 56,
      "time": 14.625,
      "duration": 0.125,
      "velocity": 0.71,
      "hand": "left"
    },
    {
      "midi": 55,
      "time": 14.75,
      "duration": 0.125,
      "velocity": 0.71,
      "hand": "left"
    },
    {
      "midi": 68,
      "time": 14.75,
      "duration": 0.25,
      "velocity": 0.71,
      "hand": "right"
    },
    {
      "midi": 56,
      "time": 14.875,
      "duration": 0.125,
      "velocity": 0.71,
      "hand": "left"
    },
    {
      "midi": 46,
      "time": 15,
      "duration": 0.25,
      "velocity": 0.71,
      "hand": "left"
    },
    {
      "midi": 68,
      "time": 15,
      "duration": 0.125,
      "velocity": 0.71,
      "hand": "right"
    },
    {
      "midi": 74,
      "time": 15.125,
      "duration": 0.125,
      "velocity": 0.71,
      "hand": "right"
    },
    {
      "midi": 58,
      "time": 15.25,
      "duration": 0.25,
      "velocity": 0.71,
      "hand": "left"
    },
    {
      "midi": 77,
      "time": 15.25,
      "duration": 0.125,
      "velocity": 0.71,
      "hand": "right"
    },
    {
      "midi": 75,
      "time": 15.375,
      "duration": 0.125,
      "velocity": 0.71,
      "hand": "right"
    },
    {
      "midi": 74,
      "time": 15.5,
      "duration": 0.125,
      "velocity": 0.71,
      "hand": "right"
    },
    {
      "midi": 72,
      "time": 15.625,
      "duration": 0.125,
      "velocity": 0.71,
      "hand": "right"
    },
    {
      "midi": 50,
      "time": 15.75,
      "duration": 0.25,
      "velocity": 0.71,
      "hand": "left"
    },
    {
      "midi": 70,
      "time": 15.75,
      "duration": 0.125,
      "velocity": 0.71,
      "hand": "right"
    },
    {
      "midi": 68,
      "time": 15.875,
      "duration": 0.125,
      "velocity": 0.71,
      "hand": "right"
    },
    {
      "midi": 51,
      "time": 16,
      "duration": 0.25,
      "velocity": 0.71,
      "hand": "left"
    },
    {
      "midi": 67,
      "time": 16,
      "duration": 0.125,
      "velocity": 0.71,
      "hand": "right"
    },
    {
      "midi": 70,
      "time": 16.125,
      "duration": 0.125,
      "velocity": 0.71,
      "hand": "right"
    },
    {
      "midi": 48,
      "time": 16.25,
      "duration": 0.25,
      "velocity": 0.71,
      "hand": "left"
    },
    {
      "midi": 75,
      "time": 16.25,
      "duration": 0.125,
      "velocity": 0.71,
      "hand": "right"
    },
    {
      "midi": 79,
      "time": 16.375,
      "duration": 0.125,
      "velocity": 0.71,
      "hand": "right"
    },
    {
      "midi": 44,
      "time": 16.5,
      "duration": 0.25,
      "velocity": 0.71,
      "hand": "left"
    },
    {
      "midi": 77,
      "time": 16.5,
      "duration": 0.125,
      "velocity": 0.71,
      "hand": "right"
    },
    {
      "midi": 75,
      "time": 16.625,
      "duration": 0.125,
      "velocity": 0.71,
      "hand": "right"
    },
    {
      "midi": 46,
      "time": 16.75,
      "duration": 0.25,
      "velocity": 0.71,
      "hand": "left"
    },
    {
      "midi": 77,
      "time": 16.75,
      "duration": 0.125,
      "velocity": 0.71,
      "hand": "right"
    },
    {
      "midi": 74,
      "time": 16.875,
      "duration": 0.125,
      "velocity": 0.71,
      "hand": "right"
    },
    {
      "midi": 39,
      "time": 17,
      "duration": 0.25,
      "velocity": 0.71,
      "hand": "left"
    },
    {
      "midi": 75,
      "time": 17,
      "duration": 0.125,
      "velocity": 0.71,
      "hand": "right"
    },
    {
      "midi": 70,
      "time": 17.125,
      "duration": 0.125,
      "velocity": 0.71,
      "hand": "right"
    },
    {
      "midi": 51,
      "time": 17.25,
      "duration": 0.25,
      "velocity": 0.71,
      "hand": "left"
    },
    {
      "midi": 68,
      "time": 17.25,
      "duration": 0.125,
      "velocity": 0.71,
      "hand": "right"
    },
    {
      "midi": 70,
      "time": 17.375,
      "duration": 0.125,
      "velocity": 0.71,
      "hand": "right"
    },
    {
      "midi": 56,
      "time": 17.5,
      "duration": 0.25,
      "velocity": 0.71,
      "hand": "left"
    },
    {
      "midi": 72,
      "time": 17.5,
      "duration": 0.125,
      "velocity": 0.71,
      "hand": "right"
    },
    {
      "midi": 68,
      "time": 17.625,
      "duration": 0.125,
      "velocity": 0.71,
      "hand": "right"
    },
    {
      "midi": 51,
      "time": 17.75,
      "duration": 0.25,
      "velocity": 0.71,
      "hand": "left"
    },
    {
      "midi": 67,
      "time": 17.75,
      "duration": 0.125,
      "velocity": 0.71,
      "hand": "right"
    },
    {
      "midi": 68,
      "time": 17.875,
      "duration": 0.125,
      "velocity": 0.71,
      "hand": "right"
    },
    {
      "midi": 43,
      "time": 18,
      "duration": 0.25,
      "velocity": 0.71,
      "hand": "left"
    },
    {
      "midi": 70,
      "time": 18,
      "duration": 0.125,
      "velocity": 0.71,
      "hand": "right"
    },
    {
      "midi": 67,
      "time": 18.125,
      "duration": 0.125,
      "velocity": 0.71,
      "hand": "right"
    },
    {
      "midi": 51,
      "time": 18.25,
      "duration": 0.25,
      "velocity": 0.71,
      "hand": "left"
    },
    {
      "midi": 65,
      "time": 18.25,
      "duration": 0.125,
      "velocity": 0.71,
      "hand": "right"
    },
    {
      "midi": 67,
      "time": 18.375,
      "duration": 0.125,
      "velocity": 0.71,
      "hand": "right"
    },
    {
      "midi": 41,
      "time": 18.5,
      "duration": 0.25,
      "velocity": 0.71,
      "hand": "left"
    },
    {
      "midi": 68,
      "time": 18.5,
      "duration": 0.125,
      "velocity": 0.71,
      "hand": "right"
    },
    {
      "midi": 65,
      "time": 18.625,
      "duration": 0.125,
      "velocity": 0.71,
      "hand": "right"
    },
    {
      "midi": 50,
      "time": 18.75,
      "duration": 0.25,
      "velocity": 0.71,
      "hand": "left"
    },
    {
      "midi": 63,
      "time": 18.75,
      "duration": 0.125,
      "velocity": 0.71,
      "hand": "right"
    },
    {
      "midi": 65,
      "time": 18.875,
      "duration": 0.125,
      "velocity": 0.71,
      "hand": "right"
    },
    {
      "midi": 51,
      "time": 19,
      "duration": 0.125,
      "velocity": 0.71,
      "hand": "left"
    },
    {
      "midi": 67,
      "time": 19,
      "duration": 0.125,
      "velocity": 0.71,
      "hand": "right"
    },
    {
      "midi": 55,
      "time": 19.125,
      "duration": 0.125,
      "velocity": 0.71,
      "hand": "left"
    },
    {
      "midi": 63,
      "time": 19.125,
      "duration": 0.125,
      "velocity": 0.71,
      "hand": "right"
    },
    {
      "midi": 53,
      "time": 19.25,
      "duration": 0.125,
      "velocity": 0.71,
      "hand": "left"
    },
    {
      "midi": 62,
      "time": 19.25,
      "duration": 0.125,
      "velocity": 0.71,
      "hand": "right"
    },
    {
      "midi": 55,
      "time": 19.375,
      "duration": 0.125,
      "velocity": 0.71,
      "hand": "left"
    },
    {
      "midi": 63,
      "time": 19.375,
      "duration": 0.125,
      "velocity": 0.71,
      "hand": "right"
    },
    {
      "midi": 56,
      "time": 19.5,
      "duration": 0.125,
      "velocity": 0.71,
      "hand": "left"
    },
    {
      "midi": 60,
      "time": 19.5,
      "duration": 0.25,
      "velocity": 0.71,
      "hand": "right"
    },
    {
      "midi": 53,
      "time": 19.625,
      "duration": 0.125,
      "velocity": 0.71,
      "hand": "left"
    },
    {
      "midi": 51,
      "time": 19.75,
      "duration": 0.125,
      "velocity": 0.71,
      "hand": "left"
    },
    {
      "midi": 68,
      "time": 19.75,
      "duration": 0.25,
      "velocity": 0.71,
      "hand": "right"
    },
    {
      "midi": 53,
      "time": 19.875,
      "duration": 0.125,
      "velocity": 0.71,
      "hand": "left"
    },
    {
      "midi": 55,
      "time": 20,
      "duration": 0.125,
      "velocity": 0.71,
      "hand": "left"
    },
    {
      "midi": 58,
      "time": 20,
      "duration": 0.25,
      "velocity": 0.71,
      "hand": "left"
    },
    {
      "midi": 51,
      "time": 20.125,
      "duration": 0.125,
      "velocity": 0.71,
      "hand": "left"
    },
    {
      "midi": 50,
      "time": 20.25,
      "duration": 0.125,
      "velocity": 0.71,
      "hand": "left"
    },
    {
      "midi": 67,
      "time": 20.25,
      "duration": 0.25,
      "velocity": 0.71,
      "hand": "right"
    },
    {
      "midi": 51,
      "time": 20.375,
      "duration": 0.125,
      "velocity": 0.71,
      "hand": "left"
    },
    {
      "midi": 53,
      "time": 20.5,
      "duration": 0.125,
      "velocity": 0.71,
      "hand": "left"
    },
    {
      "midi": 56,
      "time": 20.5,
      "duration": 0.25,
      "velocity": 0.71,
      "hand": "left"
    },
    {
      "midi": 50,
      "time": 20.625,
      "duration": 0.125,
      "velocity": 0.71,
      "hand": "left"
    },
    {
      "midi": 48,
      "time": 20.75,
      "duration": 0.125,
      "velocity": 0.71,
      "hand": "left"
    },
    {
      "midi": 65,
      "time": 20.75,
      "duration": 0.25,
      "velocity": 0.71,
      "hand": "right"
    },
    {
      "midi": 50,
      "time": 20.875,
      "duration": 0.125,
      "velocity": 0.71,
      "hand": "left"
    },
    {
      "midi": 51,
      "time": 21,
      "duration": 0.25,
      "velocity": 0.71,
      "hand": "left"
    },
    {
      "midi": 55,
      "time": 21,
      "duration": 0.125,
      "velocity": 0.71,
      "hand": "left"
    },
    {
      "midi": 58,
      "time": 21.125,
      "duration": 0.125,
      "velocity": 0.71,
      "hand": "left"
    },
    {
      "midi": 55,
      "time": 21.25,
      "duration": 0.25,
      "velocity": 0.71,
      "hand": "left"
    },
    {
      "midi": 63,
      "time": 21.25,
      "duration": 0.125,
      "velocity": 0.71,
      "hand": "right"
    },
    {
      "midi": 67,
      "time": 21.375,
      "duration": 0.25,
      "velocity": 0.71,
      "hand": "right"
    },
    {
      "midi": 56,
      "time": 21.5,
      "duration": 0.25,
      "velocity": 0.71,
      "hand": "left"
    },
    {
      "midi": 65,
      "time": 21.625,
      "duration": 0.125,
      "velocity": 0.71,
      "hand": "right"
    },
    {
      "midi": 58,
      "time": 21.75,
      "duration": 0.25,
      "velocity": 0.71,
      "hand": "left"
    },
    {
      "midi": 63,
      "time": 21.75,
      "duration": 0.125,
      "velocity": 0.71,
      "hand": "right"
    },
    {
      "midi": 62,
      "time": 21.875,
      "duration": 0.125,
      "velocity": 0.71,
      "hand": "right"
    },
    {
      "midi": 60,
      "time": 22,
      "duration": 0.25,
      "velocity": 0.71,
      "hand": "right"
    },
    {
      "midi": 63,
      "time": 22,
      "duration": 0.5,
      "velocity": 0.71,
      "hand": "right"
    },
    {
      "midi": 67,
      "time": 22.125,
      "duration": 0.125,
      "velocity": 0.71,
      "hand": "right"
    },
    {
      "midi": 56,
      "time": 22.25,
      "duration": 0.25,
      "velocity": 0.71,
      "hand": "left"
    },
    {
      "midi": 72,
      "time": 22.25,
      "duration": 0.25,
      "velocity": 0.71,
      "hand": "right"
    },
    {
      "midi": 65,
      "time": 22.375,
      "duration": 0.125,
      "velocity": 0.71,
      "hand": "right"
    },
    {
      "midi": 58,
      "time": 22.5,
      "duration": 0.25,
      "velocity": 0.71,
      "hand": "left"
    },
    {
      "midi": 63,
      "time": 22.5,
      "duration": 0.125,
      "velocity": 0.71,
      "hand": "right"
    },
    {
      "midi": 67,
      "time": 22.5,
      "duration": 0.25,
      "velocity": 0.71,
      "hand": "right"
    },
    {
      "midi": 70,
      "time": 22.5,
      "duration": 0.25,
      "velocity": 0.71,
      "hand": "right"
    },
    {
      "midi": 63,
      "time": 22.625,
      "duration": 0.25,
      "velocity": 0.71,
      "hand": "right"
    },
    {
      "midi": 46,
      "time": 22.75,
      "duration": 0.25,
      "velocity": 0.71,
      "hand": "left"
    },
    {
      "midi": 65,
      "time": 22.75,
      "duration": 0.25,
      "velocity": 0.71,
      "hand": "right"
    },
    {
      "midi": 68,
      "time": 22.75,
      "duration": 0.25,
      "velocity": 0.71,
      "hand": "right"
    },
    {
      "midi": 62,
      "time": 22.875,
      "duration": 0.125,
      "velocity": 0.71,
      "hand": "right"
    },
    {
      "midi": 58,
      "time": 23,
      "duration": 1,
      "velocity": 0.71,
      "hand": "left"
    },
    {
      "midi": 63,
      "time": 23,
      "duration": 1,
      "velocity": 0.71,
      "hand": "right"
    },
    {
      "midi": 67,
      "time": 23,
      "duration": 1,
      "velocity": 0.71,
      "hand": "right"
    },
    {
      "midi": 51,
      "time": 23.125,
      "duration": 0.125,
      "velocity": 0.71,
      "hand": "left"
    },
    {
      "midi": 46,
      "time": 23.25,
      "duration": 0.125,
      "velocity": 0.71,
      "hand": "left"
    },
    {
      "midi": 43,
      "time": 23.375,
      "duration": 0.125,
      "velocity": 0.71,
      "hand": "left"
    },
    {
      "midi": 39,
      "time": 23.5,
      "duration": 0.5,
      "velocity": 0.71,
      "hand": "left"
    },
    {
      "midi": 51,
      "time": 24,
      "duration": 0.25,
      "velocity": 0.71,
      "hand": "left"
    },
    {
      "midi": 70,
      "time": 24.125,
      "duration": 0.125,
      "velocity": 0.71,
      "hand": "right"
    },
    {
      "midi": 53,
      "time": 24.25,
      "duration": 0.25,
      "velocity": 0.71,
      "hand": "left"
    },
    {
      "midi": 69,
      "time": 24.25,
      "duration": 0.125,
      "velocity": 0.71,
      "hand": "right"
    },
    {
      "midi": 70,
      "time": 24.375,
      "duration": 0.125,
      "velocity": 0.71,
      "hand": "right"
    },
    {
      "midi": 55,
      "time": 24.5,
      "duration": 0.25,
      "velocity": 0.71,
      "hand": "left"
    },
    {
      "midi": 75,
      "time": 24.5,
      "duration": 0.125,
      "velocity": 0.71,
      "hand": "right"
    },
    {
      "midi": 70,
      "time": 24.625,
      "duration": 0.125,
      "velocity": 0.71,
      "hand": "right"
    },
    {
      "midi": 51,
      "time": 24.75,
      "duration": 0.25,
      "velocity": 0.71,
      "hand": "left"
    },
    {
      "midi": 69,
      "time": 24.75,
      "duration": 0.125,
      "velocity": 0.71,
      "hand": "right"
    },
    {
      "midi": 70,
      "time": 24.875,
      "duration": 0.125,
      "velocity": 0.71,
      "hand": "right"
    },
    {
      "midi": 50,
      "time": 25,
      "duration": 0.25,
      "velocity": 0.71,
      "hand": "left"
    },
    {
      "midi": 77,
      "time": 25,
      "duration": 0.125,
      "velocity": 0.71,
      "hand": "right"
    },
    {
      "midi": 70,
      "time": 25.125,
      "duration": 0.125,
      "velocity": 0.71,
      "hand": "right"
    },
    {
      "midi": 48,
      "time": 25.25,
      "duration": 0.25,
      "velocity": 0.71,
      "hand": "left"
    },
    {
      "midi": 69,
      "time": 25.25,
      "duration": 0.125,
      "velocity": 0.71,
      "hand": "right"
    },
    {
      "midi": 70,
      "time": 25.375,
      "duration": 0.125,
      "velocity": 0.71,
      "hand": "right"
    },
    {
      "midi": 50,
      "time": 25.5,
      "duration": 0.25,
      "velocity": 0.71,
      "hand": "left"
    },
    {
      "midi": 80,
      "time": 25.5,
      "duration": 0.125,
      "velocity": 0.71,
      "hand": "right"
    },
    {
      "midi": 70,
      "time": 25.625,
      "duration": 0.125,
      "velocity": 0.71,
      "hand": "right"
    },
    {
      "midi": 46,
      "time": 25.75,
      "duration": 0.25,
      "velocity": 0.71,
      "hand": "left"
    },
    {
      "midi": 69,
      "time": 25.75,
      "duration": 0.125,
      "velocity": 0.71,
      "hand": "right"
    },
    {
      "midi": 70,
      "time": 25.875,
      "duration": 0.125,
      "velocity": 0.71,
      "hand": "right"
    },
    {
      "midi": 51,
      "time": 26,
      "duration": 0.125,
      "velocity": 0.71,
      "hand": "left"
    },
    {
      "midi": 79,
      "time": 26,
      "duration": 0.25,
      "velocity": 0.71,
      "hand": "right"
    },
    {
      "midi": 55,
      "time": 26.125,
      "duration": 0.125,
      "velocity": 0.71,
      "hand": "left"
    },
    {
      "midi": 56,
      "time": 26.25,
      "duration": 0.125,
      "velocity": 0.71,
      "hand": "left"
    },
    {
      "midi": 75,
      "time": 26.25,
      "duration": 0.25,
      "velocity": 0.71,
      "hand": "right"
    },
    {
      "midi": 55,
      "time": 26.375,
      "duration": 0.125,
      "velocity": 0.71,
      "hand": "left"
    },
    {
      "midi": 44,
      "time": 26.5,
      "duration": 0.125,
      "velocity": 0.71,
      "hand": "left"
    },
    {
      "midi": 72,
      "time": 26.5,
      "duration": 0.125,
      "velocity": 0.71,
      "hand": "right"
    },
    {
      "midi": 55,
      "time": 26.625,
      "duration": 0.125,
      "velocity": 0.71,
      "hand": "left"
    },
    {
      "midi": 71,
      "time": 26.625,
      "duration": 0.125,
      "velocity": 0.71,
      "hand": "right"
    },
    {
      "midi": 56,
      "time": 26.75,
      "duration": 0.125,
      "velocity": 0.71,
      "hand": "left"
    },
    {
      "midi": 72,
      "time": 26.75,
      "duration": 0.25,
      "velocity": 0.71,
      "hand": "right"
    },
    {
      "midi": 55,
      "time": 26.875,
      "duration": 0.125,
      "velocity": 0.71,
      "hand": "left"
    },
    {
      "midi": 50,
      "time": 27,
      "duration": 0.125,
      "velocity": 0.71,
      "hand": "left"
    },
    {
      "midi": 77,
      "time": 27,
      "duration": 0.25,
      "velocity": 0.71,
      "hand": "right"
    },
    {
      "midi": 53,
      "time": 27.125,
      "duration": 0.125,
      "velocity": 0.71,
      "hand": "left"
    },
    {
      "midi": 55,
      "time": 27.25,
      "duration": 0.125,
      "velocity": 0.71,
      "hand": "left"
    },
    {
      "midi": 74,
      "time": 27.25,
      "duration": 0.25,
      "velocity": 0.71,
      "hand": "right"
    },
    {
      "midi": 53,
      "time": 27.375,
      "duration": 0.125,
      "velocity": 0.71,
      "hand": "left"
    },
    {
      "midi": 43,
      "time": 27.5,
      "duration": 0.125,
      "velocity": 0.71,
      "hand": "left"
    },
    {
      "midi": 71,
      "time": 27.5,
      "duration": 0.125,
      "velocity": 0.71,
      "hand": "right"
    },
    {
      "midi": 53,
      "time": 27.625,
      "duration": 0.125,
      "velocity": 0.71,
      "hand": "left"
    },
    {
      "midi": 69,
      "time": 27.625,
      "duration": 0.125,
      "velocity": 0.71,
      "hand": "right"
    },
    {
      "midi": 55,
      "time": 27.75,
      "duration": 0.125,
      "velocity": 0.71,
      "hand": "left"
    },
    {
      "midi": 71,
      "time": 27.75,
      "duration": 0.25,
      "velocity": 0.71,
      "hand": "right"
    },
    {
      "midi": 53,
      "time": 27.875,
      "duration": 0.125,
      "velocity": 0.71,
      "hand": "left"
    },
    {
      "midi": 48,
      "time": 28,
      "duration": 0.25,
      "velocity": 0.71,
      "hand": "left"
    },
    {
      "midi": 75,
      "time": 28,
      "duration": 0.125,
      "velocity": 0.71,
      "hand": "right"
    },
    {
      "midi": 63,
      "time": 28.125,
      "duration": 0.125,
      "velocity": 0.71,
      "hand": "right"
    },
    {
      "midi": 60,
      "time": 28.25,
      "duration": 0.25,
      "velocity": 0.71,
      "hand": "right"
    },
    {
      "midi": 62,
      "time": 28.25,
      "duration": 0.125,
      "velocity": 0.71,
      "hand": "right"
    },
    {
      "midi": 63,
      "time": 28.375,
      "duration": 0.125,
      "velocity": 0.71,
      "hand": "right"
    },
    {
      "midi": 58,
      "time": 28.5,
      "duration": 0.25,
      "velocity": 0.71,
      "hand": "left"
    },
    {
      "midi": 67,
      "time": 28.5,
      "duration": 0.125,
      "velocity": 0.71,
      "hand": "right"
    },
    {
      "midi": 63,
      "time": 28.625,
      "duration": 0.125,
      "velocity": 0.71,
      "hand": "right"
    },
    {
      "midi": 56,
      "time": 28.75,
      "duration": 0.25,
      "velocity": 0.71,
      "hand": "left"
    },
    {
      "midi": 62,
      "time": 28.75,
      "duration": 0.125,
      "velocity": 0.71,
      "hand": "right"
    },
    {
      "midi": 63,
      "time": 28.875,
      "duration": 0.125,
      "velocity": 0.71,
      "hand": "right"
    },
    {
      "midi": 55,
      "time": 29,
      "duration": 0.25,
      "velocity": 0.71,
      "hand": "left"
    },
    {
      "midi": 70,
      "time": 29,
      "duration": 0.125,
      "velocity": 0.71,
      "hand": "right"
    },
    {
      "midi": 63,
      "time": 29.125,
      "duration": 0.125,
      "velocity": 0.71,
      "hand": "right"
    },
    {
      "midi": 53,
      "time": 29.25,
      "duration": 0.25,
      "velocity": 0.71,
      "hand": "left"
    },
    {
      "midi": 62,
      "time": 29.25,
      "duration": 0.125,
      "velocity": 0.71,
      "hand": "right"
    },
    {
      "midi": 63,
      "time": 29.375,
      "duration": 0.125,
      "velocity": 0.71,
      "hand": "right"
    },
    {
      "midi": 55,
      "time": 29.5,
      "duration": 0.25,
      "velocity": 0.71,
      "hand": "left"
    },
    {
      "midi": 73,
      "time": 29.5,
      "duration": 0.125,
      "velocity": 0.71,
      "hand": "right"
    },
    {
      "midi": 63,
      "time": 29.625,
      "duration": 0.125,
      "velocity": 0.71,
      "hand": "right"
    },
    {
      "midi": 51,
      "time": 29.75,
      "duration": 0.25,
      "velocity": 0.71,
      "hand": "left"
    },
    {
      "midi": 62,
      "time": 29.75,
      "duration": 0.125,
      "velocity": 0.71,
      "hand": "right"
    },
    {
      "midi": 63,
      "time": 29.875,
      "duration": 0.125,
      "velocity": 0.71,
      "hand": "right"
    },
    {
      "midi": 56,
      "time": 30,
      "duration": 0.125,
      "velocity": 0.71,
      "hand": "left"
    },
    {
      "midi": 72,
      "time": 30,
      "duration": 0.25,
      "velocity": 0.71,
      "hand": "right"
    },
    {
      "midi": 60,
      "time": 30.125,
      "duration": 0.125,
      "velocity": 0.71,
      "hand": "right"
    },
    {
      "midi": 61,
      "time": 30.25,
      "duration": 0.125,
      "velocity": 0.71,
      "hand": "right"
    },
    {
      "midi": 68,
      "time": 30.25,
      "duration": 0.25,
      "velocity": 0.71,
      "hand": "right"
    },
    {
      "midi": 60,
      "time": 30.375,
      "duration": 0.125,
      "velocity": 0.71,
      "hand": "right"
    },
    {
      "midi": 49,
      "time": 30.5,
      "duration": 0.125,
      "velocity": 0.71,
      "hand": "left"
    },
    {
      "midi": 65,
      "time": 30.5,
      "duration": 0.125,
      "velocity": 0.71,
      "hand": "right"
    },
    {
      "midi": 60,
      "time": 30.625,
      "duration": 0.125,
      "velocity": 0.71,
      "hand": "right"
    },
    {
      "midi": 64,
      "time": 30.625,
      "duration": 0.125,
      "velocity": 0.71,
      "hand": "right"
    },
    {
      "midi": 61,
      "time": 30.75,
      "duration": 0.125,
      "velocity": 0.71,
      "hand": "right"
    },
    {
      "midi": 65,
      "time": 30.75,
      "duration": 0.25,
      "velocity": 0.71,
      "hand": "right"
    },
    {
      "midi": 60,
      "time": 30.875,
      "duration": 0.125,
      "velocity": 0.71,
      "hand": "right"
    },
    {
      "midi": 55,
      "time": 31,
      "duration": 0.125,
      "velocity": 0.71,
      "hand": "left"
    },
    {
      "midi": 70,
      "time": 31,
      "duration": 0.25,
      "velocity": 0.71,
      "hand": "right"
    },
    {
      "midi": 58,
      "time": 31.125,
      "duration": 0.125,
      "velocity": 0.71,
      "hand": "left"
    },
    {
      "midi": 60,
      "time": 31.25,
      "duration": 0.125,
      "velocity": 0.71,
      "hand": "right"
    },
    {
      "midi": 67,
      "time": 31.25,
      "duration": 0.25,
      "velocity": 0.71,
      "hand": "right"
    },
    {
      "midi": 58,
      "time": 31.375,
      "duration": 0.125,
      "velocity": 0.71,
      "hand": "left"
    },
    {
      "midi": 48,
      "time": 31.5,
      "duration": 0.125,
      "velocity": 0.71,
      "hand": "left"
    },
    {
      "midi": 64,
      "time": 31.5,
      "duration": 0.125,
      "velocity": 0.71,
      "hand": "right"
    },
    {
      "midi": 58,
      "time": 31.625,
      "duration": 0.125,
      "velocity": 0.71,
      "hand": "left"
    },
    {
      "midi": 62,
      "time": 31.625,
      "duration": 0.125,
      "velocity": 0.71,
      "hand": "right"
    },
    {
      "midi": 60,
      "time": 31.75,
      "duration": 0.125,
      "velocity": 0.71,
      "hand": "right"
    },
    {
      "midi": 64,
      "time": 31.75,
      "duration": 0.25,
      "velocity": 0.71,
      "hand": "right"
    },
    {
      "midi": 58,
      "time": 31.875,
      "duration": 0.125,
      "velocity": 0.71,
      "hand": "left"
    },
    {
      "midi": 53,
      "time": 32,
      "duration": 0.25,
      "velocity": 0.71,
      "hand": "left"
    },
    {
      "midi": 68,
      "time": 32,
      "duration": 0.125,
      "velocity": 0.71,
      "hand": "right"
    },
    {
      "midi": 72,
      "time": 32.125,
      "duration": 0.125,
      "velocity": 0.71,
      "hand": "right"
    },
    {
      "midi": 56,
      "time": 32.25,
      "duration": 0.25,
      "velocity": 0.71,
      "hand": "left"
    },
    {
      "midi": 71,
      "time": 32.25,
      "duration": 0.125,
      "velocity": 0.71,
      "hand": "right"
    },
    {
      "midi": 72,
      "time": 32.375,
      "duration": 0.125,
      "velocity": 0.71,
      "hand": "right"
    },
    {
      "midi": 53,
      "time": 32.5,
      "duration": 0.25,
      "velocity": 0.71,
      "hand": "left"
    },
    {
      "midi": 73,
      "time": 32.5,
      "duration": 0.125,
      "velocity": 0.71,
      "hand": "right"
    },
    {
      "midi": 72,
      "time": 32.625,
      "duration": 0.125,
      "velocity": 0.71,
      "hand": "right"
    },
    {
      "midi": 49,
      "time": 32.75,
      "duration": 0.25,
      "velocity": 0.71,
      "hand": "left"
    },
    {
      "midi": 71,
      "time": 32.75,
      "duration": 0.125,
      "velocity": 0.71,
      "hand": "right"
    },
    {
      "midi": 72,
      "time": 32.875,
      "duration": 0.125,
      "velocity": 0.71,
      "hand": "right"
    },
    {
      "midi": 52,
      "time": 33,
      "duration": 0.25,
      "velocity": 0.71,
      "hand": "left"
    },
    {
      "midi": 67,
      "time": 33,
      "duration": 0.125,
      "velocity": 0.71,
      "hand": "right"
    },
    {
      "midi": 72,
      "time": 33.125,
      "duration": 0.125,
      "velocity": 0.71,
      "hand": "right"
    },
    {
      "midi": 55,
      "time": 33.25,
      "duration": 0.25,
      "velocity": 0.71,
      "hand": "left"
    },
    {
      "midi": 71,
      "time": 33.25,
      "duration": 0.125,
      "velocity": 0.71,
      "hand": "right"
    },
    {
      "midi": 72,
      "time": 33.375,
      "duration": 0.125,
      "velocity": 0.71,
      "hand": "right"
    },
    {
      "midi": 51,
      "time": 33.5,
      "duration": 0.25,
      "velocity": 0.71,
      "hand": "left"
    },
    {
      "midi": 73,
      "time": 33.5,
      "duration": 0.125,
      "velocity": 0.71,
      "hand": "right"
    },
    {
      "midi": 72,
      "time": 33.625,
      "duration": 0.125,
      "velocity": 0.71,
      "hand": "right"
    },
    {
      "midi": 48,
      "time": 33.75,
      "duration": 0.25,
      "velocity": 0.71,
      "hand": "left"
    },
    {
      "midi": 71,
      "time": 33.75,
      "duration": 0.125,
      "velocity": 0.71,
      "hand": "right"
    },
    {
      "midi": 72,
      "time": 33.875,
      "duration": 0.125,
      "velocity": 0.71,
      "hand": "right"
    },
    {
      "midi": 50,
      "time": 34,
      "duration": 0.25,
      "velocity": 0.71,
      "hand": "left"
    },
    {
      "midi": 65,
      "time": 34,
      "duration": 0.125,
      "velocity": 0.71,
      "hand": "right"
    },
    {
      "midi": 72,
      "time": 34.125,
      "duration": 0.125,
      "velocity": 0.71,
      "hand": "right"
    },
    {
      "midi": 53,
      "time": 34.25,
      "duration": 0.25,
      "velocity": 0.71,
      "hand": "left"
    },
    {
      "midi": 74,
      "time": 34.25,
      "duration": 0.125,
      "velocity": 0.71,
      "hand": "right"
    },
    {
      "midi": 76,
      "time": 34.375,
      "duration": 0.125,
      "velocity": 0.71,
      "hand": "right"
    },
    {
      "midi": 49,
      "time": 34.5,
      "duration": 0.25,
      "velocity": 0.71,
      "hand": "left"
    },
    {
      "midi": 77,
      "time": 34.5,
      "duration": 0.125,
      "velocity": 0.71,
      "hand": "right"
    },
    {
      "midi": 70,
      "time": 34.625,
      "duration": 0.125,
      "velocity": 0.71,
      "hand": "right"
    },
    {
      "midi": 58,
      "time": 34.75,
      "duration": 0.25,
      "velocity": 0.71,
      "hand": "left"
    },
    {
      "midi": 69,
      "time": 34.75,
      "duration": 0.125,
      "velocity": 0.71,
      "hand": "right"
    },
    {
      "midi": 70,
      "time": 34.875,
      "duration": 0.125,
      "velocity": 0.71,
      "hand": "right"
    },
    {
      "midi": 48,
      "time": 35,
      "duration": 0.25,
      "velocity": 0.71,
      "hand": "left"
    },
    {
      "midi": 79,
      "time": 35,
      "duration": 0.125,
      "velocity": 0.71,
      "hand": "right"
    },
    {
      "midi": 77,
      "time": 35.125,
      "duration": 0.125,
      "velocity": 0.71,
      "hand": "right"
    },
    {
      "midi": 50,
      "time": 35.25,
      "duration": 0.25,
      "velocity": 0.71,
      "hand": "left"
    },
    {
      "midi": 76,
      "time": 35.25,
      "duration": 0.125,
      "velocity": 0.71,
      "hand": "right"
    },
    {
      "midi": 74,
      "time": 35.375,
      "duration": 0.125,
      "velocity": 0.71,
      "hand": "right"
    },
    {
      "midi": 52,
      "time": 35.5,
      "duration": 0.25,
      "velocity": 0.71,
      "hand": "left"
    },
    {
      "midi": 72,
      "time": 35.5,
      "duration": 0.125,
      "velocity": 0.71,
      "hand": "right"
    },
    {
      "midi": 70,
      "time": 35.625,
      "duration": 0.125,
      "velocity": 0.71,
      "hand": "right"
    },
    {
      "midi": 48,
      "time": 35.75,
      "duration": 0.25,
      "velocity": 0.71,
      "hand": "left"
    },
    {
      "midi": 68,
      "time": 35.75,
      "duration": 0.125,
      "velocity": 0.71,
      "hand": "right"
    },
    {
      "midi": 67,
      "time": 35.875,
      "duration": 0.125,
      "velocity": 0.71,
      "hand": "right"
    },
    {
      "midi": 53,
      "time": 36,
      "duration": 0.125,
      "velocity": 0.71,
      "hand": "left"
    },
    {
      "midi": 68,
      "time": 36,
      "duration": 0.125,
      "velocity": 0.71,
      "hand": "right"
    },
    {
      "midi": 56,
      "time": 36.125,
      "duration": 0.125,
      "velocity": 0.71,
      "hand": "left"
    },
    {
      "midi": 65,
      "time": 36.125,
      "duration": 0.125,
      "velocity": 0.71,
      "hand": "right"
    },
    {
      "midi": 55,
      "time": 36.25,
      "duration": 0.125,
      "velocity": 0.71,
      "hand": "left"
    },
    {
      "midi": 64,
      "time": 36.25,
      "duration": 0.125,
      "velocity": 0.71,
      "hand": "right"
    },
    {
      "midi": 56,
      "time": 36.375,
      "duration": 0.125,
      "velocity": 0.71,
      "hand": "left"
    },
    {
      "midi": 65,
      "time": 36.375,
      "duration": 0.125,
      "velocity": 0.71,
      "hand": "right"
    },
    {
      "midi": 51,
      "time": 36.5,
      "duration": 0.125,
      "velocity": 0.71,
      "hand": "left"
    },
    {
      "midi": 72,
      "time": 36.5,
      "duration": 0.125,
      "velocity": 0.71,
      "hand": "right"
    },
    {
      "midi": 60,
      "time": 36.625,
      "duration": 0.125,
      "velocity": 0.71,
      "hand": "right"
    },
    {
      "midi": 68,
      "time": 36.625,
      "duration": 0.125,
      "velocity": 0.71,
      "hand": "right"
    },
    {
      "midi": 58,
      "time": 36.75,
      "duration": 0.125,
      "velocity": 0.71,
      "hand": "left"
    },
    {
      "midi": 67,
      "time": 36.75,
      "duration": 0.125,
      "velocity": 0.71,
      "hand": "right"
    },
    {
      "midi": 60,
      "time": 36.875,
      "duration": 0.125,
      "velocity": 0.71,
      "hand": "right"
    },
    {
      "midi": 68,
      "time": 36.875,
      "duration": 0.125,
      "velocity": 0.71,
      "hand": "right"
    },
    {
      "midi": 49,
      "time": 37,
      "duration": 0.25,
      "velocity": 0.71,
      "hand": "left"
    },
    {
      "midi": 77,
      "time": 37,
      "duration": 0.125,
      "velocity": 0.71,
      "hand": "right"
    },
    {
      "midi": 75,
      "time": 37.125,
      "duration": 0.125,
      "velocity": 0.71,
      "hand": "right"
    },
    {
      "midi": 53,
      "time": 37.25,
      "duration": 0.25,
      "velocity": 0.71,
      "hand": "left"
    },
    {
      "midi": 73,
      "time": 37.25,
      "duration": 0.125,
      "velocity": 0.71,
      "hand": "right"
    },
    {
      "midi": 72,
      "time": 37.375,
      "duration": 0.125,
      "velocity": 0.71,
      "hand": "right"
    },
    {
      "midi": 58,
      "time": 37.5,
      "duration": 0.25,
      "velocity": 0.71,
      "hand": "left"
    },
    {
      "midi": 70,
      "time": 37.5,
      "duration": 0.125,
      "velocity": 0.71,
      "hand": "right"
    },
    {
      "midi": 68,
      "time": 37.625,
      "duration": 0.125,
      "velocity": 0.71,
      "hand": "right"
    },
    {
      "midi": 61,
      "time": 37.75,
      "duration": 0.25,
      "velocity": 0.71,
      "hand": "right"
    },
    {
      "midi": 67,
      "time": 37.75,
      "duration": 0.125,
      "velocity": 0.71,
      "hand": "right"
    },
    {
      "midi": 65,
      "time": 37.875,
      "duration": 0.125,
      "velocity": 0.71,
      "hand": "right"
    },
    {
      "midi": 51,
      "time": 38,
      "duration": 0.125,
      "velocity": 0.71,
      "hand": "left"
    },
    {
      "midi": 67,
      "time": 38,
      "duration": 0.125,
      "velocity": 0.71,
      "hand": "right"
    },
    {
      "midi": 55,
      "time": 38.125,
      "duration": 0.125,
      "velocity": 0.71,
      "hand": "left"
    },
    {
      "midi": 63,
      "time": 38.125,
      "duration": 0.125,
      "velocity": 0.71,
      "hand": "right"
    },
    {
      "midi": 53,
      "time": 38.25,
      "duration": 0.125,
      "velocity": 0.71,
      "hand": "left"
    },
    {
      "midi": 62,
      "time": 38.25,
      "duration": 0.125,
      "velocity": 0.71,
      "hand": "right"
    },
    {
      "midi": 55,
      "time": 38.375,
      "duration": 0.125,
      "velocity": 0.71,
      "hand": "left"
    },
    {
      "midi": 63,
      "time": 38.375,
      "duration": 0.125,
      "velocity": 0.71,
      "hand": "right"
    },
    {
      "midi": 49,
      "time": 38.5,
      "duration": 0.125,
      "velocity": 0.71,
      "hand": "left"
    },
    {
      "midi": 70,
      "time": 38.5,
      "duration": 0.125,
      "velocity": 0.71,
      "hand": "right"
    },
    {
      "midi": 58,
      "time": 38.625,
      "duration": 0.125,
      "velocity": 0.71,
      "hand": "left"
    },
    {
      "midi": 67,
      "time": 38.625,
      "duration": 0.125,
      "velocity": 0.71,
      "hand": "right"
    },
    {
      "midi": 56,
      "time": 38.75,
      "duration": 0.125,
      "velocity": 0.71,
      "hand": "left"
    },
    {
      "midi": 65,
      "time": 38.75,
      "duration": 0.125,
      "velocity": 0.71,
      "hand": "right"
    },
    {
      "midi": 58,
      "time": 38.875,
      "duration": 0.125,
      "velocity": 0.71,
      "hand": "left"
    },
    {
      "midi": 67,
      "time": 38.875,
      "duration": 0.125,
      "velocity": 0.71,
      "hand": "right"
    },
    {
      "midi": 48,
      "time": 39,
      "duration": 0.25,
      "velocity": 0.71,
      "hand": "left"
    },
    {
      "midi": 75,
      "time": 39,
      "duration": 0.125,
      "velocity": 0.71,
      "hand": "right"
    },
    {
      "midi": 73,
      "time": 39.125,
      "duration": 0.125,
      "velocity": 0.71,
      "hand": "right"
    },
    {
      "midi": 51,
      "time": 39.25,
      "duration": 0.25,
      "velocity": 0.71,
      "hand": "left"
    },
    {
      "midi": 72,
      "time": 39.25,
      "duration": 0.125,
      "velocity": 0.71,
      "hand": "right"
    },
    {
      "midi": 70,
      "time": 39.375,
      "duration": 0.125,
      "velocity": 0.71,
      "hand": "right"
    },
    {
      "midi": 56,
      "time": 39.5,
      "duration": 0.25,
      "velocity": 0.71,
      "hand": "left"
    },
    {
      "midi": 68,
      "time": 39.5,
      "duration": 0.125,
      "velocity": 0.71,
      "hand": "right"
    },
    {
      "midi": 67,
      "time": 39.625,
      "duration": 0.125,
      "velocity": 0.71,
      "hand": "right"
    },
    {
      "midi": 60,
      "time": 39.75,
      "duration": 0.25,
      "velocity": 0.71,
      "hand": "right"
    },
    {
      "midi": 65,
      "time": 39.75,
      "duration": 0.125,
      "velocity": 0.71,
      "hand": "right"
    },
    {
      "midi": 64,
      "time": 39.875,
      "duration": 0.125,
      "velocity": 0.71,
      "hand": "right"
    },
    {
      "midi": 49,
      "time": 40,
      "duration": 0.125,
      "velocity": 0.71,
      "hand": "left"
    },
    {
      "midi": 65,
      "time": 40,
      "duration": 0.25,
      "velocity": 0.71,
      "hand": "right"
    },
    {
      "midi": 53,
      "time": 40.125,
      "duration": 0.125,
      "velocity": 0.71,
      "hand": "left"
    },
    {
      "midi": 51,
      "time": 40.25,
      "duration": 0.125,
      "velocity": 0.71,
      "hand": "left"
    },
    {
      "midi": 69,
      "time": 40.25,
      "duration": 0.25,
      "velocity": 0.71,
      "hand": "right"
    },
    {
      "midi": 53,
      "time": 40.375,
      "duration": 0.125,
      "velocity": 0.71,
      "hand": "left"
    },
    {
      "midi": 54,
      "time": 40.5,
      "duration": 0.125,
      "velocity": 0.71,
      "hand": "left"
    },
    {
      "midi": 70,
      "time": 40.5,
      "duration": 0.25,
      "velocity": 0.71,
      "hand": "right"
    },
    {
      "midi": 53,
      "time": 40.625,
      "duration": 0.125,
      "velocity": 0.71,
      "hand": "left"
    },
    {
      "midi": 51,
      "time": 40.75,
      "duration": 0.125,
      "velocity": 0.71,
      "hand": "left"
    },
    {
      "midi": 72,
      "time": 40.75,
      "duration": 0.25,
      "velocity": 0.71,
      "hand": "right"
    },
    {
      "midi": 53,
      "time": 40.875,
      "duration": 0.125,
      "velocity": 0.71,
      "hand": "left"
    },
    {
      "midi": 46,
      "time": 41,
      "duration": 0.125,
      "velocity": 0.71,
      "hand": "left"
    },
    {
      "midi": 73,
      "time": 41,
      "duration": 0.25,
      "velocity": 0.71,
      "hand": "right"
    },
    {
      "midi": 53,
      "time": 41.125,
      "duration": 0.125,
      "velocity": 0.71,
      "hand": "left"
    },
    {
      "midi": 55,
      "time": 41.25,
      "duration": 0.125,
      "velocity": 0.71,
      "hand": "left"
    },
    {
      "midi": 76,
      "time": 41.25,
      "duration": 0.25,
      "velocity": 0.71,
      "hand": "right"
    },
    {
      "midi": 56,
      "time": 41.375,
      "duration": 0.125,
      "velocity": 0.71,
      "hand": "left"
    },
    {
      "midi": 55,
      "time": 41.5,
      "duration": 0.125,
      "velocity": 0.71,
      "hand": "left"
    },
    {
      "midi": 77,
      "time": 41.5,
      "duration": 0.25,
      "velocity": 0.71,
      "hand": "right"
    },
    {
      "midi": 53,
      "time": 41.625,
      "duration": 0.125,
      "velocity": 0.71,
      "hand": "left"
    },
    {
      "midi": 52,
      "time": 41.75,
      "duration": 0.125,
      "velocity": 0.71,
      "hand": "left"
    },
    {
      "midi": 79,
      "time": 41.75,
      "duration": 0.25,
      "velocity": 0.71,
      "hand": "right"
    },
    {
      "midi": 53,
      "time": 41.875,
      "duration": 0.125,
      "velocity": 0.71,
      "hand": "left"
    },
    {
      "midi": 44,
      "time": 42,
      "duration": 0.25,
      "velocity": 0.71,
      "hand": "left"
    },
    {
      "midi": 72,
      "time": 42,
      "duration": 0.125,
      "velocity": 0.71,
      "hand": "right"
    },
    {
      "midi": 76,
      "time": 42.125,
      "duration": 0.125,
      "velocity": 0.71,
      "hand": "right"
    },
    {
      "midi": 41,
      "time": 42.25,
      "duration": 0.25,
      "velocity": 0.71,
      "hand": "left"
    },
    {
      "midi": 77,
      "time": 42.25,
      "duration": 0.125,
      "velocity": 0.71,
      "hand": "right"
    },
    {
      "midi": 80,
      "time": 42.375,
      "duration": 0.125,
      "velocity": 0.71,
      "hand": "right"
    },
    {
      "midi": 48,
      "time": 42.5,
      "duration": 0.25,
      "velocity": 0.71,
      "hand": "left"
    },
    {
      "midi": 70,
      "time": 42.5,
      "duration": 0.125,
      "velocity": 0.71,
      "hand": "right"
    },
    {
      "midi": 79,
      "time": 42.625,
      "duration": 0.125,
      "velocity": 0.71,
      "hand": "right"
    },
    {
      "midi": 36,
      "time": 42.75,
      "duration": 0.25,
      "velocity": 0.71,
      "hand": "left"
    },
    {
      "midi": 77,
      "time": 42.75,
      "duration": 0.125,
      "velocity": 0.71,
      "hand": "right"
    },
    {
      "midi": 76,
      "time": 42.875,
      "duration": 0.125,
      "velocity": 0.71,
      "hand": "right"
    },
    {
      "midi": 41,
      "time": 43,
      "duration": 0.25,
      "velocity": 0.71,
      "hand": "left"
    },
    {
      "midi": 68,
      "time": 43,
      "duration": 0.125,
      "velocity": 0.71,
      "hand": "right"
    },
    {
      "midi": 72,
      "time": 43.125,
      "duration": 0.125,
      "velocity": 0.71,
      "hand": "right"
    },
    {
      "midi": 44,
      "time": 43.25,
      "duration": 0.25,
      "velocity": 0.71,
      "hand": "left"
    },
    {
      "midi": 76,
      "time": 43.25,
      "duration": 0.125,
      "velocity": 0.71,
      "hand": "right"
    },
    {
      "midi": 77,
      "time": 43.375,
      "duration": 0.125,
      "velocity": 0.71,
      "hand": "right"
    },
    {
      "midi": 46,
      "time": 43.5,
      "duration": 0.25,
      "velocity": 0.71,
      "hand": "left"
    },
    {
      "midi": 67,
      "time": 43.5,
      "duration": 0.125,
      "velocity": 0.71,
      "hand": "right"
    },
    {
      "midi": 73,
      "time": 43.625,
      "duration": 0.125,
      "velocity": 0.71,
      "hand": "right"
    },
    {
      "midi": 48,
      "time": 43.75,
      "duration": 0.25,
      "velocity": 0.71,
      "hand": "left"
    },
    {
      "midi": 72,
      "time": 43.75,
      "duration": 0.125,
      "velocity": 0.71,
      "hand": "right"
    },
    {
      "midi": 70,
      "time": 43.875,
      "duration": 0.125,
      "velocity": 0.71,
      "hand": "right"
    },
    {
      "midi": 53,
      "time": 44,
      "duration": 0.25,
      "velocity": 0.71,
      "hand": "left"
    },
    {
      "midi": 68,
      "time": 44,
      "duration": 0.125,
      "velocity": 0.71,
      "hand": "right"
    },
    {
      "midi": 67,
      "time": 44.125,
      "duration": 0.125,
      "velocity": 0.71,
      "hand": "right"
    },
    {
      "midi": 55,
      "time": 44.25,
      "duration": 0.25,
      "velocity": 0.71,
      "hand": "left"
    },
    {
      "midi": 65,
      "time": 44.25,
      "duration": 0.125,
      "velocity": 0.71,
      "hand": "right"
    },
    {
      "midi": 64,
      "time": 44.375,
      "duration": 0.125,
      "velocity": 0.71,
      "hand": "right"
    },
    {
      "midi": 56,
      "time": 44.5,
      "duration": 0.25,
      "velocity": 0.71,
      "hand": "left"
    },
    {
      "midi": 65,
      "time": 44.5,
      "duration": 0.125,
      "velocity": 0.71,
      "hand": "right"
    },
    {
      "midi": 68,
      "time": 44.625,
      "duration": 0.125,
      "velocity": 0.71,
      "hand": "right"
    },
    {
      "midi": 53,
      "time": 44.75,
      "duration": 0.25,
      "velocity": 0.71,
      "hand": "left"
    },
    {
      "midi": 60,
      "time": 44.75,
      "duration": 0.125,
      "velocity": 0.71,
      "hand": "right"
    },
    {
      "midi": 63,
      "time": 44.875,
      "duration": 0.125,
      "velocity": 0.71,
      "hand": "right"
    },
    {
      "midi": 58,
      "time": 45,
      "duration": 0.25,
      "velocity": 0.71,
      "hand": "left"
    },
    {
      "midi": 62,
      "time": 45,
      "duration": 0.125,
      "velocity": 0.71,
      "hand": "right"
    },
    {
      "midi": 68,
      "time": 45.125,
      "duration": 0.125,
      "velocity": 0.71,
      "hand": "right"
    },
    {
      "midi": 46,
      "time": 45.25,
      "duration": 0.25,
      "velocity": 0.71,
      "hand": "left"
    },
    {
      "midi": 65,
      "time": 45.25,
      "duration": 0.125,
      "velocity": 0.71,
      "hand": "right"
    },
    {
      "midi": 62,
      "time": 45.375,
      "duration": 0.125,
      "velocity": 0.71,
      "hand": "right"
    },
    {
      "midi": 58,
      "time": 45.5,
      "duration": 0.125,
      "velocity": 0.71,
      "hand": "left"
    },
    {
      "midi": 56,
      "time": 45.625,
      "duration": 0.125,
      "velocity": 0.71,
      "hand": "left"
    },
    {
      "midi": 55,
      "time": 45.75,
      "duration": 0.125,
      "velocity": 0.71,
      "hand": "left"
    },
    {
      "midi": 53,
      "time": 45.875,
      "duration": 0.125,
      "velocity": 0.71,
      "hand": "left"
    },
    {
      "midi": 51,
      "time": 46,
      "duration": 0.25,
      "velocity": 0.71,
      "hand": "left"
    },
    {
      "midi": 67,
      "time": 46,
      "duration": 0.125,
      "velocity": 0.71,
      "hand": "right"
    },
    {
      "midi": 65,
      "time": 46.125,
      "duration": 0.125,
      "velocity": 0.71,
      "hand": "right"
    },
    {
      "midi": 53,
      "time": 46.25,
      "duration": 0.25,
      "velocity": 0.71,
      "hand": "left"
    },
    {
      "midi": 63,
      "time": 46.25,
      "duration": 0.125,
      "velocity": 0.71,
      "hand": "right"
    },
    {
      "midi": 62,
      "time": 46.375,
      "duration": 0.125,
      "velocity": 0.71,
      "hand": "right"
    },
    {
      "midi": 55,
      "time": 46.5,
      "duration": 0.25,
      "velocity": 0.71,
      "hand": "left"
    },
    {
      "midi": 63,
      "time": 46.5,
      "duration": 0.125,
      "velocity": 0.71,
      "hand": "right"
    },
    {
      "midi": 67,
      "time": 46.625,
      "duration": 0.125,
      "velocity": 0.71,
      "hand": "right"
    },
    {
      "midi": 51,
      "time": 46.75,
      "duration": 0.25,
      "velocity": 0.71,
      "hand": "left"
    },
    {
      "midi": 59,
      "time": 46.75,
      "duration": 0.125,
      "velocity": 0.71,
      "hand": "left"
    },
    {
      "midi": 62,
      "time": 46.875,
      "duration": 0.125,
      "velocity": 0.71,
      "hand": "right"
    },
    {
      "midi": 56,
      "time": 47,
      "duration": 0.25,
      "velocity": 0.71,
      "hand": "left"
    },
    {
      "midi": 60,
      "time": 47,
      "duration": 0.125,
      "velocity": 0.71,
      "hand": "right"
    },
    {
      "midi": 67,
      "time": 47.125,
      "duration": 0.125,
      "velocity": 0.71,
      "hand": "right"
    },
    {
      "midi": 44,
      "time": 47.25,
      "duration": 0.25,
      "velocity": 0.71,
      "hand": "left"
    },
    {
      "midi": 63,
      "time": 47.25,
      "duration": 0.125,
      "velocity": 0.71,
      "hand": "right"
    },
    {
      "midi": 60,
      "time": 47.375,
      "duration": 0.125,
      "velocity": 0.71,
      "hand": "right"
    },
    {
      "midi": 56,
      "time": 47.5,
      "duration": 0.125,
      "velocity": 0.71,
      "hand": "left"
    },
    {
      "midi": 55,
      "time": 47.625,
      "duration": 0.125,
      "velocity": 0.71,
      "hand": "left"
    },
    {
      "midi": 53,
      "time": 47.75,
      "duration": 0.125,
      "velocity": 0.71,
      "hand": "left"
    },
    {
      "midi": 51,
      "time": 47.875,
      "duration": 0.125,
      "velocity": 0.71,
      "hand": "left"
    },
    {
      "midi": 50,
      "time": 48,
      "duration": 0.25,
      "velocity": 0.71,
      "hand": "left"
    },
    {
      "midi": 65,
      "time": 48,
      "duration": 0.125,
      "velocity": 0.71,
      "hand": "right"
    },
    {
      "midi": 63,
      "time": 48.125,
      "duration": 0.125,
      "velocity": 0.71,
      "hand": "right"
    },
    {
      "midi": 51,
      "time": 48.25,
      "duration": 0.25,
      "velocity": 0.71,
      "hand": "left"
    },
    {
      "midi": 62,
      "time": 48.25,
      "duration": 0.125,
      "velocity": 0.71,
      "hand": "right"
    },
    {
      "midi": 60,
      "time": 48.375,
      "duration": 0.125,
      "velocity": 0.71,
      "hand": "right"
    },
    {
      "midi": 53,
      "time": 48.5,
      "duration": 0.25,
      "velocity": 0.71,
      "hand": "left"
    },
    {
      "midi": 62,
      "time": 48.5,
      "duration": 0.125,
      "velocity": 0.71,
      "hand": "right"
    },
    {
      "midi": 65,
      "time": 48.625,
      "duration": 0.125,
      "velocity": 0.71,
      "hand": "right"
    },
    {
      "midi": 50,
      "time": 48.75,
      "duration": 0.25,
      "velocity": 0.71,
      "hand": "left"
    },
    {
      "midi": 68,
      "time": 48.75,
      "duration": 0.125,
      "velocity": 0.71,
      "hand": "right"
    },
    {
      "midi": 60,
      "time": 48.875,
      "duration": 0.125,
      "velocity": 0.71,
      "hand": "right"
    },
    {
      "midi": 55,
      "time": 49,
      "duration": 0.25,
      "velocity": 0.71,
      "hand": "left"
    },
    {
      "midi": 59,
      "time": 49,
      "duration": 0.125,
      "velocity": 0.71,
      "hand": "left"
    },
    {
      "midi": 65,
      "time": 49.125,
      "duration": 0.125,
      "velocity": 0.71,
      "hand": "right"
    },
    {
      "midi": 43,
      "time": 49.25,
      "duration": 0.25,
      "velocity": 0.71,
      "hand": "left"
    },
    {
      "midi": 62,
      "time": 49.25,
      "duration": 0.125,
      "velocity": 0.71,
      "hand": "right"
    },
    {
      "midi": 59,
      "time": 49.375,
      "duration": 0.125,
      "velocity": 0.71,
      "hand": "left"
    },
    {
      "midi": 55,
      "time": 49.5,
      "duration": 0.125,
      "velocity": 0.71,
      "hand": "left"
    },
    {
      "midi": 53,
      "time": 49.625,
      "duration": 0.125,
      "velocity": 0.71,
      "hand": "left"
    },
    {
      "midi": 59,
      "time": 49.625,
      "duration": 0.125,
      "velocity": 0.71,
      "hand": "left"
    },
    {
      "midi": 51,
      "time": 49.75,
      "duration": 0.125,
      "velocity": 0.71,
      "hand": "left"
    },
    {
      "midi": 60,
      "time": 49.75,
      "duration": 0.125,
      "velocity": 0.71,
      "hand": "right"
    },
    {
      "midi": 50,
      "time": 49.875,
      "duration": 0.125,
      "velocity": 0.71,
      "hand": "left"
    },
    {
      "midi": 62,
      "time": 49.875,
      "duration": 0.125,
      "velocity": 0.71,
      "hand": "right"
    },
    {
      "midi": 48,
      "time": 50,
      "duration": 0.125,
      "velocity": 0.71,
      "hand": "left"
    },
    {
      "midi": 63,
      "time": 50,
      "duration": 0.625,
      "velocity": 0.71,
      "hand": "right"
    },
    {
      "midi": 50,
      "time": 50.125,
      "duration": 0.125,
      "velocity": 0.71,
      "hand": "left"
    },
    {
      "midi": 51,
      "time": 50.25,
      "duration": 0.125,
      "velocity": 0.71,
      "hand": "left"
    },
    {
      "midi": 67,
      "time": 50.25,
      "duration": 0.25,
      "velocity": 0.71,
      "hand": "right"
    },
    {
      "midi": 48,
      "time": 50.375,
      "duration": 0.125,
      "velocity": 0.71,
      "hand": "left"
    },
    {
      "midi": 44,
      "time": 50.5,
      "duration": 0.125,
      "velocity": 0.71,
      "hand": "left"
    },
    {
      "midi": 72,
      "time": 50.5,
      "duration": 1.125,
      "velocity": 0.71,
      "hand": "right"
    },
    {
      "midi": 55,
      "time": 50.625,
      "duration": 0.125,
      "velocity": 0.71,
      "hand": "left"
    },
    {
      "midi": 70,
      "time": 50.625,
      "duration": 0.125,
      "velocity": 0.71,
      "hand": "right"
    },
    {
      "midi": 53,
      "time": 50.75,
      "duration": 0.125,
      "velocity": 0.71,
      "hand": "left"
    },
    {
      "midi": 68,
      "time": 50.75,
      "duration": 0.125,
      "velocity": 0.71,
      "hand": "right"
    },
    {
      "midi": 51,
      "time": 50.875,
      "duration": 0.125,
      "velocity": 0.71,
      "hand": "left"
    },
    {
      "midi": 67,
      "time": 50.875,
      "duration": 0.125,
      "velocity": 0.71,
      "hand": "right"
    },
    {
      "midi": 50,
      "time": 51,
      "duration": 0.125,
      "velocity": 0.71,
      "hand": "left"
    },
    {
      "midi": 65,
      "time": 51,
      "duration": 0.125,
      "velocity": 0.71,
      "hand": "right"
    },
    {
      "midi": 51,
      "time": 51.125,
      "duration": 0.125,
      "velocity": 0.71,
      "hand": "left"
    },
    {
      "midi": 67,
      "time": 51.125,
      "duration": 0.125,
      "velocity": 0.71,
      "hand": "right"
    },
    {
      "midi": 53,
      "time": 51.25,
      "duration": 0.125,
      "velocity": 0.71,
      "hand": "left"
    },
    {
      "midi": 68,
      "time": 51.25,
      "duration": 0.125,
      "velocity": 0.71,
      "hand": "right"
    },
    {
      "midi": 50,
      "time": 51.375,
      "duration": 0.125,
      "velocity": 0.71,
      "hand": "left"
    },
    {
      "midi": 65,
      "time": 51.375,
      "duration": 0.125,
      "velocity": 0.71,
      "hand": "right"
    },
    {
      "midi": 46,
      "time": 51.5,
      "duration": 0.125,
      "velocity": 0.71,
      "hand": "left"
    },
    {
      "midi": 62,
      "time": 51.5,
      "duration": 0.25,
      "velocity": 0.71,
      "hand": "right"
    },
    {
      "midi": 56,
      "time": 51.625,
      "duration": 0.125,
      "velocity": 0.71,
      "hand": "left"
    },
    {
      "midi": 72,
      "time": 51.625,
      "duration": 0.125,
      "velocity": 0.71,
      "hand": "right"
    },
    {
      "midi": 55,
      "time": 51.75,
      "duration": 0.125,
      "velocity": 0.71,
      "hand": "left"
    },
    {
      "midi": 70,
      "time": 51.75,
      "duration": 0.125,
      "velocity": 0.71,
      "hand": "right"
    },
    {
      "midi": 53,
      "time": 51.875,
      "duration": 0.125,
      "velocity": 0.71,
      "hand": "left"
    },
    {
      "midi": 68,
      "time": 51.875,
      "duration": 0.125,
      "velocity": 0.71,
      "hand": "right"
    },
    {
      "midi": 51,
      "time": 52,
      "duration": 0.25,
      "velocity": 0.71,
      "hand": "left"
    },
    {
      "midi": 67,
      "time": 52,
      "duration": 0.125,
      "velocity": 0.71,
      "hand": "right"
    },
    {
      "midi": 68,
      "time": 52.125,
      "duration": 0.125,
      "velocity": 0.71,
      "hand": "right"
    },
    {
      "midi": 50,
      "time": 52.25,
      "duration": 0.25,
      "velocity": 0.71,
      "hand": "left"
    },
    {
      "midi": 70,
      "time": 52.25,
      "duration": 0.125,
      "velocity": 0.71,
      "hand": "right"
    },
    {
      "midi": 67,
      "time": 52.375,
      "duration": 0.125,
      "velocity": 0.71,
      "hand": "right"
    },
    {
      "midi": 51,
      "time": 52.5,
      "duration": 0.25,
      "velocity": 0.71,
      "hand": "left"
    },
    {
      "midi": 60,
      "time": 52.5,
      "duration": 0.125,
      "velocity": 0.71,
      "hand": "right"
    },
    {
      "midi": 73,
      "time": 52.625,
      "duration": 0.125,
      "velocity": 0.71,
      "hand": "right"
    },
    {
      "midi": 52,
      "time": 52.75,
      "duration": 0.25,
      "velocity": 0.71,
      "hand": "left"
    },
    {
      "midi": 72,
      "time": 52.75,
      "duration": 0.125,
      "velocity": 0.71,
      "hand": "right"
    },
    {
      "midi": 70,
      "time": 52.875,
      "duration": 0.125,
      "velocity": 0.71,
      "hand": "right"
    },
    {
      "midi": 53,
      "time": 53,
      "duration": 0.25,
      "velocity": 0.71,
      "hand": "left"
    },
    {
      "midi": 68,
      "time": 53,
      "duration": 0.125,
      "velocity": 0.71,
      "hand": "right"
    },
    {
      "midi": 70,
      "time": 53.125,
      "duration": 0.125,
      "velocity": 0.71,
      "hand": "right"
    },
    {
      "midi": 52,
      "time": 53.25,
      "duration": 0.25,
      "velocity": 0.71,
      "hand": "left"
    },
    {
      "midi": 72,
      "time": 53.25,
      "duration": 0.125,
      "velocity": 0.71,
      "hand": "right"
    },
    {
      "midi": 68,
      "time": 53.375,
      "duration": 0.125,
      "velocity": 0.71,
      "hand": "right"
    },
    {
      "midi": 53,
      "time": 53.5,
      "duration": 0.25,
      "velocity": 0.71,
      "hand": "left"
    },
    {
      "midi": 62,
      "time": 53.5,
      "duration": 0.125,
      "velocity": 0.71,
      "hand": "right"
    },
    {
      "midi": 75,
      "time": 53.625,
      "duration": 0.125,
      "velocity": 0.71,
      "hand": "right"
    },
    {
      "midi": 54,
      "time": 53.75,
      "duration": 0.25,
      "velocity": 0.71,
      "hand": "left"
    },
    {
      "midi": 74,
      "time": 53.75,
      "duration": 0.125,
      "velocity": 0.71,
      "hand": "right"
    },
    {
      "midi": 72,
      "time": 53.875,
      "duration": 0.125,
      "velocity": 0.71,
      "hand": "right"
    },
    {
      "midi": 55,
      "time": 54,
      "duration": 0.125,
      "velocity": 0.71,
      "hand": "left"
    },
    {
      "midi": 71,
      "time": 54,
      "duration": 0.125,
      "velocity": 0.71,
      "hand": "right"
    },
    {
      "midi": 53,
      "time": 54.125,
      "duration": 0.125,
      "velocity": 0.71,
      "hand": "left"
    },
    {
      "midi": 67,
      "time": 54.125,
      "duration": 0.125,
      "velocity": 0.71,
      "hand": "right"
    },
    {
      "midi": 51,
      "time": 54.25,
      "duration": 0.125,
      "velocity": 0.71,
      "hand": "left"
    },
    {
      "midi": 72,
      "time": 54.25,
      "duration": 0.5,
      "velocity": 0.71,
      "hand": "right"
    },
    {
      "midi": 53,
      "time": 54.375,
      "duration": 0.125,
      "velocity": 0.71,
      "hand": "left"
    },
    {
      "midi": 74,
      "time": 54.375,
      "duration": 0.125,
      "velocity": 0.71,
      "hand": "right"
    },
    {
      "midi": 55,
      "time": 54.5,
      "duration": 0.25,
      "velocity": 0.71,
      "hand": "left"
    },
    {
      "midi": 75,
      "time": 54.5,
      "duration": 0.25,
      "velocity": 0.71,
      "hand": "right"
    },
    {
      "midi": 67,
      "time": 54.625,
      "duration": 0.25,
      "velocity": 0.71,
      "hand": "right"
    },
    {
      "midi": 43,
      "time": 54.75,
      "duration": 0.25,
      "velocity": 0.71,
      "hand": "left"
    },
    {
      "midi": 71,
      "time": 54.75,
      "duration": 0.25,
      "velocity": 0.71,
      "hand": "right"
    },
    {
      "midi": 74,
      "time": 54.75,
      "duration": 0.25,
      "velocity": 0.71,
      "hand": "right"
    },
    {
      "midi": 65,
      "time": 54.875,
      "duration": 0.125,
      "velocity": 0.71,
      "hand": "right"
    },
    {
      "midi": 36,
      "time": 55,
      "duration": 0.125,
      "velocity": 0.71,
      "hand": "left"
    },
    {
      "midi": 63,
      "time": 55,
      "duration": 1,
      "velocity": 0.71,
      "hand": "right"
    },
    {
      "midi": 67,
      "time": 55,
      "duration": 1,
      "velocity": 0.71,
      "hand": "right"
    },
    {
      "midi": 72,
      "time": 55,
      "duration": 1,
      "velocity": 0.71,
      "hand": "right"
    },
    {
      "midi": 48,
      "time": 55.125,
      "duration": 0.125,
      "velocity": 0.71,
      "hand": "left"
    },
    {
      "midi": 51,
      "time": 55.25,
      "duration": 0.125,
      "velocity": 0.71,
      "hand": "left"
    },
    {
      "midi": 55,
      "time": 55.375,
      "duration": 0.125,
      "velocity": 0.71,
      "hand": "left"
    },
    {
      "midi": 60,
      "time": 55.5,
      "duration": 0.5,
      "velocity": 0.71,
      "hand": "right"
    }
  ],
  "arrangements": {
    "easy": [
      {
        "midi": 67,
        "time": 0.125,
        "duration": 0.25,
        "velocity": 0.71,
        "hand": "right"
      },
      {
        "midi": 65,
        "time": 0.625,
        "duration": 0.25,
        "velocity": 0.71,
        "hand": "right"
      },
      {
        "midi": 63,
        "time": 1.125,
        "duration": 0.25,
        "velocity": 0.71,
        "hand": "right"
      },
      {
        "midi": 62,
        "time": 1.625,
        "duration": 0.25,
        "velocity": 0.71,
        "hand": "right"
      },
      {
        "midi": 72,
        "time": 2.25,
        "duration": 0.25,
        "velocity": 0.71,
        "hand": "right"
      },
      {
        "midi": 65,
        "time": 2.5,
        "duration": 0.25,
        "velocity": 0.71,
        "hand": "right"
      },
      {
        "midi": 72,
        "time": 2.75,
        "duration": 0.25,
        "velocity": 0.71,
        "hand": "right"
      },
      {
        "midi": 63,
        "time": 3,
        "duration": 0.25,
        "velocity": 0.71,
        "hand": "right"
      },
      {
        "midi": 72,
        "time": 3.25,
        "duration": 0.25,
        "velocity": 0.71,
        "hand": "right"
      },
      {
        "midi": 62,
        "time": 3.5,
        "duration": 0.25,
        "velocity": 0.71,
        "hand": "right"
      },
      {
        "midi": 71,
        "time": 3.75,
        "duration": 0.25,
        "velocity": 0.71,
        "hand": "right"
      },
      {
        "midi": 60,
        "time": 4,
        "duration": 0.25,
        "velocity": 0.71,
        "hand": "right"
      },
      {
        "midi": 67,
        "time": 4.25,
        "duration": 0.25,
        "velocity": 0.71,
        "hand": "right"
      },
      {
        "midi": 62,
        "time": 4.5,
        "duration": 0.25,
        "velocity": 0.71,
        "hand": "right"
      },
      {
        "midi": 71,
        "time": 4.75,
        "duration": 0.25,
        "velocity": 0.71,
        "hand": "right"
      },
      {
        "midi": 62,
        "time": 5,
        "duration": 0.25,
        "velocity": 0.71,
        "hand": "right"
      },
      {
        "midi": 71,
        "time": 5.25,
        "duration": 0.25,
        "velocity": 0.71,
        "hand": "right"
      },
      {
        "midi": 63,
        "time": 5.5,
        "duration": 0.25,
        "velocity": 0.71,
        "hand": "right"
      },
      {
        "midi": 72,
        "time": 5.75,
        "duration": 0.25,
        "velocity": 0.71,
        "hand": "right"
      },
      {
        "midi": 63,
        "time": 6,
        "duration": 0.25,
        "velocity": 0.71,
        "hand": "right"
      },
      {
        "midi": 72,
        "time": 6.25,
        "duration": 0.25,
        "velocity": 0.71,
        "hand": "right"
      },
      {
        "midi": 65,
        "time": 6.5,
        "duration": 0.25,
        "velocity": 0.71,
        "hand": "right"
      },
      {
        "midi": 74,
        "time": 6.75,
        "duration": 0.25,
        "velocity": 0.71,
        "hand": "right"
      },
      {
        "midi": 65,
        "time": 7,
        "duration": 0.25,
        "velocity": 0.71,
        "hand": "right"
      },
      {
        "midi": 74,
        "time": 7.25,
        "duration": 0.25,
        "velocity": 0.71,
        "hand": "right"
      },
      {
        "midi": 67,
        "time": 7.5,
        "duration": 0.25,
        "velocity": 0.71,
        "hand": "right"
      },
      {
        "midi": 75,
        "time": 7.75,
        "duration": 0.25,
        "velocity": 0.71,
        "hand": "right"
      },
      {
        "midi": 70,
        "time": 8.25,
        "duration": 0.25,
        "velocity": 0.71,
        "hand": "right"
      },
      {
        "midi": 74,
        "time": 8.5,
        "duration": 0.25,
        "velocity": 0.71,
        "hand": "right"
      },
      {
        "midi": 68,
        "time": 8.75,
        "duration": 0.25,
        "velocity": 0.71,
        "hand": "right"
      },
      {
        "midi": 72,
        "time": 9,
        "duration": 0.25,
        "velocity": 0.71,
        "hand": "right"
      },
      {
        "midi": 68,
        "time": 9.25,
        "duration": 0.25,
        "velocity": 0.71,
        "hand": "right"
      },
      {
        "midi": 65,
        "time": 9.5,
        "duration": 0.25,
        "velocity": 0.71,
        "hand": "right"
      },
      {
        "midi": 62,
        "time": 9.75,
        "duration": 0.25,
        "velocity": 0.71,
        "hand": "right"
      },
      {
        "midi": 74,
        "time": 10,
        "duration": 0.25,
        "velocity": 0.71,
        "hand": "right"
      },
      {
        "midi": 68,
        "time": 10.25,
        "duration": 0.25,
        "velocity": 0.71,
        "hand": "right"
      },
      {
        "midi": 72,
        "time": 10.5,
        "duration": 0.25,
        "velocity": 0.71,
        "hand": "right"
      },
      {
        "midi": 67,
        "time": 10.75,
        "duration": 0.25,
        "velocity": 0.71,
        "hand": "right"
      },
      {
        "midi": 70,
        "time": 11,
        "duration": 0.25,
        "velocity": 0.71,
        "hand": "right"
      },
      {
        "midi": 67,
        "time": 11.25,
        "duration": 0.25,
        "velocity": 0.71,
        "hand": "right"
      },
      {
        "midi": 63,
        "time": 11.5,
        "duration": 0.25,
        "velocity": 0.71,
        "hand": "right"
      },
      {
        "midi": 60,
        "time": 11.75,
        "duration": 0.25,
        "velocity": 0.71,
        "hand": "right"
      },
      {
        "midi": 72,
        "time": 12,
        "duration": 0.25,
        "velocity": 0.71,
        "hand": "right"
      },
      {
        "midi": 67,
        "time": 12.25,
        "duration": 0.25,
        "velocity": 0.71,
        "hand": "right"
      },
      {
        "midi": 70,
        "time": 12.5,
        "duration": 0.25,
        "velocity": 0.71,
        "hand": "right"
      },
      {
        "midi": 65,
        "time": 12.75,
        "duration": 0.25,
        "velocity": 0.71,
        "hand": "right"
      },
      {
        "midi": 68,
        "time": 13,
        "duration": 0.25,
        "velocity": 0.71,
        "hand": "right"
      },
      {
        "midi": 63,
        "time": 13.25,
        "duration": 0.25,
        "velocity": 0.71,
        "hand": "right"
      },
      {
        "midi": 68,
        "time": 13.5,
        "duration": 0.25,
        "velocity": 0.71,
        "hand": "right"
      },
      {
        "midi": 68,
        "time": 14,
        "duration": 0.25,
        "velocity": 0.71,
        "hand": "right"
      },
      {
        "midi": 65,
        "time": 14.25,
        "duration": 0.25,
        "velocity": 0.71,
        "hand": "right"
      },
      {
        "midi": 68,
        "time": 14.5,
        "duration": 0.25,
        "velocity": 0.71,
        "hand": "right"
      },
      {
        "midi": 68,
        "time": 15,
        "duration": 0.25,
        "velocity": 0.71,
        "hand": "right"
      },
      {
        "midi": 77,
        "time": 15.25,
        "duration": 0.25,
        "velocity": 0.71,
        "hand": "right"
      },
      {
        "midi": 74,
        "time": 15.5,
        "duration": 0.25,
        "velocity": 0.71,
        "hand": "right"
      },
      {
        "midi": 70,
        "time": 15.75,
        "duration": 0.25,
        "velocity": 0.71,
        "hand": "right"
      },
      {
        "midi": 67,
        "time": 16,
        "duration": 0.25,
        "velocity": 0.71,
        "hand": "right"
      },
      {
        "midi": 75,
        "time": 16.25,
        "duration": 0.25,
        "velocity": 0.71,
        "hand": "right"
      },
      {
        "midi": 77,
        "time": 16.5,
        "duration": 0.25,
        "velocity": 0.71,
        "hand": "right"
      },
      {
        "midi": 75,
        "time": 17,
        "duration": 0.25,
        "velocity": 0.71,
        "hand": "right"
      },
      {
        "midi": 68,
        "time": 17.25,
        "duration": 0.25,
        "velocity": 0.71,
        "hand": "right"
      },
      {
        "midi": 72,
        "time": 17.5,
        "duration": 0.25,
        "velocity": 0.71,
        "hand": "right"
      },
      {
        "midi": 67,
        "time": 17.75,
        "duration": 0.25,
        "velocity": 0.71,
        "hand": "right"
      },
      {
        "midi": 70,
        "time": 18,
        "duration": 0.25,
        "velocity": 0.71,
        "hand": "right"
      },
      {
        "midi": 65,
        "time": 18.25,
        "duration": 0.25,
        "velocity": 0.71,
        "hand": "right"
      },
      {
        "midi": 68,
        "time": 18.5,
        "duration": 0.25,
        "velocity": 0.71,
        "hand": "right"
      },
      {
        "midi": 63,
        "time": 18.75,
        "duration": 0.25,
        "velocity": 0.71,
        "hand": "right"
      },
      {
        "midi": 67,
        "time": 19,
        "duration": 0.25,
        "velocity": 0.71,
        "hand": "right"
      },
      {
        "midi": 62,
        "time": 19.25,
        "duration": 0.25,
        "velocity": 0.71,
        "hand": "right"
      },
      {
        "midi": 60,
        "time": 19.5,
        "duration": 0.25,
        "velocity": 0.71,
        "hand": "right"
      },
      {
        "midi": 68,
        "time": 19.75,
        "duration": 0.25,
        "velocity": 0.71,
        "hand": "right"
      },
      {
        "midi": 67,
        "time": 20.25,
        "duration": 0.25,
        "velocity": 0.71,
        "hand": "right"
      },
      {
        "midi": 65,
        "time": 20.75,
        "duration": 0.25,
        "velocity": 0.71,
        "hand": "right"
      },
      {
        "midi": 63,
        "time": 21.25,
        "duration": 0.25,
        "velocity": 0.71,
        "hand": "right"
      },
      {
        "midi": 65,
        "time": 21.625,
        "duration": 0.25,
        "velocity": 0.71,
        "hand": "right"
      },
      {
        "midi": 62,
        "time": 21.875,
        "duration": 0.25,
        "velocity": 0.71,
        "hand": "right"
      },
      {
        "midi": 67,
        "time": 22.125,
        "duration": 0.25,
        "velocity": 0.71,
        "hand": "right"
      },
      {
        "midi": 65,
        "time": 22.375,
        "duration": 0.25,
        "velocity": 0.71,
        "hand": "right"
      },
      {
        "midi": 63,
        "time": 22.625,
        "duration": 0.25,
        "velocity": 0.71,
        "hand": "right"
      },
      {
        "midi": 62,
        "time": 22.875,
        "duration": 0.25,
        "velocity": 0.71,
        "hand": "right"
      },
      {
        "midi": 70,
        "time": 24.125,
        "duration": 0.25,
        "velocity": 0.71,
        "hand": "right"
      },
      {
        "midi": 70,
        "time": 24.625,
        "duration": 0.25,
        "velocity": 0.71,
        "hand": "right"
      },
      {
        "midi": 70,
        "time": 25.125,
        "duration": 0.25,
        "velocity": 0.71,
        "hand": "right"
      },
      {
        "midi": 70,
        "time": 25.625,
        "duration": 0.25,
        "velocity": 0.71,
        "hand": "right"
      },
      {
        "midi": 75,
        "time": 26.25,
        "duration": 0.25,
        "velocity": 0.71,
        "hand": "right"
      },
      {
        "midi": 72,
        "time": 26.5,
        "duration": 0.25,
        "velocity": 0.71,
        "hand": "right"
      },
      {
        "midi": 77,
        "time": 27,
        "duration": 0.25,
        "velocity": 0.71,
        "hand": "right"
      },
      {
        "midi": 74,
        "time": 27.25,
        "duration": 0.25,
        "velocity": 0.71,
        "hand": "right"
      },
      {
        "midi": 71,
        "time": 27.5,
        "duration": 0.25,
        "velocity": 0.71,
        "hand": "right"
      },
      {
        "midi": 75,
        "time": 28,
        "duration": 0.25,
        "velocity": 0.71,
        "hand": "right"
      },
      {
        "midi": 62,
        "time": 28.25,
        "duration": 0.25,
        "velocity": 0.71,
        "hand": "right"
      },
      {
        "midi": 67,
        "time": 28.5,
        "duration": 0.25,
        "velocity": 0.71,
        "hand": "right"
      },
      {
        "midi": 62,
        "time": 28.75,
        "duration": 0.25,
        "velocity": 0.71,
        "hand": "right"
      },
      {
        "midi": 70,
        "time": 29,
        "duration": 0.25,
        "velocity": 0.71,
        "hand": "right"
      },
      {
        "midi": 62,
        "time": 29.25,
        "duration": 0.25,
        "velocity": 0.71,
        "hand": "right"
      },
      {
        "midi": 73,
        "time": 29.5,
        "duration": 0.25,
        "velocity": 0.71,
        "hand": "right"
      },
      {
        "midi": 62,
        "time": 29.75,
        "duration": 0.25,
        "velocity": 0.71,
        "hand": "right"
      },
      {
        "midi": 72,
        "time": 30,
        "duration": 0.25,
        "velocity": 0.71,
        "hand": "right"
      },
      {
        "midi": 68,
        "time": 30.25,
        "duration": 0.25,
        "velocity": 0.71,
        "hand": "right"
      },
      {
        "midi": 65,
        "time": 30.5,
        "duration": 0.25,
        "velocity": 0.71,
        "hand": "right"
      },
      {
        "midi": 70,
        "time": 31,
        "duration": 0.25,
        "velocity": 0.71,
        "hand": "right"
      },
      {
        "midi": 67,
        "time": 31.25,
        "duration": 0.25,
        "velocity": 0.71,
        "hand": "right"
      },
      {
        "midi": 64,
        "time": 31.5,
        "duration": 0.25,
        "velocity": 0.71,
        "hand": "right"
      },
      {
        "midi": 68,
        "time": 32,
        "duration": 0.25,
        "velocity": 0.71,
        "hand": "right"
      },
      {
        "midi": 71,
        "time": 32.25,
        "duration": 0.25,
        "velocity": 0.71,
        "hand": "right"
      },
      {
        "midi": 73,
        "time": 32.5,
        "duration": 0.25,
        "velocity": 0.71,
        "hand": "right"
      },
      {
        "midi": 71,
        "time": 32.75,
        "duration": 0.25,
        "velocity": 0.71,
        "hand": "right"
      },
      {
        "midi": 67,
        "time": 33,
        "duration": 0.25,
        "velocity": 0.71,
        "hand": "right"
      },
      {
        "midi": 71,
        "time": 33.25,
        "duration": 0.25,
        "velocity": 0.71,
        "hand": "right"
      },
      {
        "midi": 73,
        "time": 33.5,
        "duration": 0.25,
        "velocity": 0.71,
        "hand": "right"
      },
      {
        "midi": 71,
        "time": 33.75,
        "duration": 0.25,
        "velocity": 0.71,
        "hand": "right"
      },
      {
        "midi": 65,
        "time": 34,
        "duration": 0.25,
        "velocity": 0.71,
        "hand": "right"
      },
      {
        "midi": 74,
        "time": 34.25,
        "duration": 0.25,
        "velocity": 0.71,
        "hand": "right"
      },
      {
        "midi": 77,
        "time": 34.5,
        "duration": 0.25,
        "velocity": 0.71,
        "hand": "right"
      },
      {
        "midi": 69,
        "time": 34.75,
        "duration": 0.25,
        "velocity": 0.71,
        "hand": "right"
      },
      {
        "midi": 79,
        "time": 35,
        "duration": 0.25,
        "velocity": 0.71,
        "hand": "right"
      },
      {
        "midi": 76,
        "time": 35.25,
        "duration": 0.25,
        "velocity": 0.71,
        "hand": "right"
      },
      {
        "midi": 72,
        "time": 35.5,
        "duration": 0.25,
        "velocity": 0.71,
        "hand": "right"
      },
      {
        "midi": 68,
        "time": 35.75,
        "duration": 0.25,
        "velocity": 0.71,
        "hand": "right"
      },
      {
        "midi": 64,
        "time": 36.25,
        "duration": 0.25,
        "velocity": 0.71,
        "hand": "right"
      },
      {
        "midi": 72,
        "time": 36.5,
        "duration": 0.25,
        "velocity": 0.71,
        "hand": "right"
      },
      {
        "midi": 67,
        "time": 36.75,
        "duration": 0.25,
        "velocity": 0.71,
        "hand": "right"
      },
      {
        "midi": 77,
        "time": 37,
        "duration": 0.25,
        "velocity": 0.71,
        "hand": "right"
      },
      {
        "midi": 73,
        "time": 37.25,
        "duration": 0.25,
        "velocity": 0.71,
        "hand": "right"
      },
      {
        "midi": 70,
        "time": 37.5,
        "duration": 0.25,
        "velocity": 0.71,
        "hand": "right"
      },
      {
        "midi": 67,
        "time": 37.75,
        "duration": 0.25,
        "velocity": 0.71,
        "hand": "right"
      },
      {
        "midi": 62,
        "time": 38.25,
        "duration": 0.25,
        "velocity": 0.71,
        "hand": "right"
      },
      {
        "midi": 70,
        "time": 38.5,
        "duration": 0.25,
        "velocity": 0.71,
        "hand": "right"
      },
      {
        "midi": 65,
        "time": 38.75,
        "duration": 0.25,
        "velocity": 0.71,
        "hand": "right"
      },
      {
        "midi": 75,
        "time": 39,
        "duration": 0.25,
        "velocity": 0.71,
        "hand": "right"
      },
      {
        "midi": 72,
        "time": 39.25,
        "duration": 0.25,
        "velocity": 0.71,
        "hand": "right"
      },
      {
        "midi": 68,
        "time": 39.5,
        "duration": 0.25,
        "velocity": 0.71,
        "hand": "right"
      },
      {
        "midi": 65,
        "time": 39.75,
        "duration": 0.25,
        "velocity": 0.71,
        "hand": "right"
      },
      {
        "midi": 69,
        "time": 40.25,
        "duration": 0.25,
        "velocity": 0.71,
        "hand": "right"
      },
      {
        "midi": 70,
        "time": 40.5,
        "duration": 0.25,
        "velocity": 0.71,
        "hand": "right"
      },
      {
        "midi": 72,
        "time": 40.75,
        "duration": 0.25,
        "velocity": 0.71,
        "hand": "right"
      },
      {
        "midi": 73,
        "time": 41,
        "duration": 0.25,
        "velocity": 0.71,
        "hand": "right"
      },
      {
        "midi": 76,
        "time": 41.25,
        "duration": 0.25,
        "velocity": 0.71,
        "hand": "right"
      },
      {
        "midi": 77,
        "time": 41.5,
        "duration": 0.25,
        "velocity": 0.71,
        "hand": "right"
      },
      {
        "midi": 79,
        "time": 41.75,
        "duration": 0.25,
        "velocity": 0.71,
        "hand": "right"
      },
      {
        "midi": 72,
        "time": 42,
        "duration": 0.25,
        "velocity": 0.71,
        "hand": "right"
      },
      {
        "midi": 77,
        "time": 42.25,
        "duration": 0.25,
        "velocity": 0.71,
        "hand": "right"
      },
      {
        "midi": 70,
        "time": 42.5,
        "duration": 0.25,
        "velocity": 0.71,
        "hand": "right"
      },
      {
        "midi": 77,
        "time": 42.75,
        "duration": 0.25,
        "velocity": 0.71,
        "hand": "right"
      },
      {
        "midi": 68,
        "time": 43,
        "duration": 0.25,
        "velocity": 0.71,
        "hand": "right"
      },
      {
        "midi": 76,
        "time": 43.25,
        "duration": 0.25,
        "velocity": 0.71,
        "hand": "right"
      },
      {
        "midi": 67,
        "time": 43.5,
        "duration": 0.25,
        "velocity": 0.71,
        "hand": "right"
      },
      {
        "midi": 72,
        "time": 43.75,
        "duration": 0.25,
        "velocity": 0.71,
        "hand": "right"
      },
      {
        "midi": 68,
        "time": 44,
        "duration": 0.25,
        "velocity": 0.71,
        "hand": "right"
      },
      {
        "midi": 65,
        "time": 44.25,
        "duration": 0.25,
        "velocity": 0.71,
        "hand": "right"
      },
      {
        "midi": 60,
        "time": 44.75,
        "duration": 0.25,
        "velocity": 0.71,
        "hand": "right"
      },
      {
        "midi": 62,
        "time": 45,
        "duration": 0.25,
        "velocity": 0.71,
        "hand": "right"
      },
      {
        "midi": 65,
        "time": 45.25,
        "duration": 0.25,
        "velocity": 0.71,
        "hand": "right"
      },
      {
        "midi": 67,
        "time": 46,
        "duration": 0.25,
        "velocity": 0.71,
        "hand": "right"
      },
      {
        "midi": 63,
        "time": 46.25,
        "duration": 0.25,
        "velocity": 0.71,
        "hand": "right"
      },
      {
        "midi": 62,
        "time": 46.875,
        "duration": 0.25,
        "velocity": 0.71,
        "hand": "right"
      },
      {
        "midi": 67,
        "time": 47.125,
        "duration": 0.25,
        "velocity": 0.71,
        "hand": "right"
      },
      {
        "midi": 60,
        "time": 47.375,
        "duration": 0.25,
        "velocity": 0.71,
        "hand": "right"
      },
      {
        "midi": 65,
        "time": 48,
        "duration": 0.25,
        "velocity": 0.71,
        "hand": "right"
      },
      {
        "midi": 62,
        "time": 48.25,
        "duration": 0.25,
        "velocity": 0.71,
        "hand": "right"
      },
      {
        "midi": 68,
        "time": 48.75,
        "duration": 0.25,
        "velocity": 0.71,
        "hand": "right"
      },
      {
        "midi": 65,
        "time": 49.125,
        "duration": 0.25,
        "velocity": 0.71,
        "hand": "right"
      },
      {
        "midi": 60,
        "time": 49.75,
        "duration": 0.25,
        "velocity": 0.71,
        "hand": "right"
      },
      {
        "midi": 63,
        "time": 50,
        "duration": 0.625,
        "velocity": 0.71,
        "hand": "right"
      },
      {
        "midi": 67,
        "time": 50.25,
        "duration": 0.25,
        "velocity": 0.71,
        "hand": "right"
      },
      {
        "midi": 72,
        "time": 50.5,
        "duration": 1.125,
        "velocity": 0.71,
        "hand": "right"
      },
      {
        "midi": 68,
        "time": 50.75,
        "duration": 0.25,
        "velocity": 0.71,
        "hand": "right"
      },
      {
        "midi": 65,
        "time": 51,
        "duration": 0.25,
        "velocity": 0.71,
        "hand": "right"
      },
      {
        "midi": 68,
        "time": 51.25,
        "duration": 0.25,
        "velocity": 0.71,
        "hand": "right"
      },
      {
        "midi": 62,
        "time": 51.5,
        "duration": 0.25,
        "velocity": 0.71,
        "hand": "right"
      },
      {
        "midi": 70,
        "time": 51.75,
        "duration": 0.25,
        "velocity": 0.71,
        "hand": "right"
      },
      {
        "midi": 67,
        "time": 52,
        "duration": 0.25,
        "velocity": 0.71,
        "hand": "right"
      },
      {
        "midi": 70,
        "time": 52.25,
        "duration": 0.25,
        "velocity": 0.71,
        "hand": "right"
      },
      {
        "midi": 60,
        "time": 52.5,
        "duration": 0.25,
        "velocity": 0.71,
        "hand": "right"
      },
      {
        "midi": 72,
        "time": 52.75,
        "duration": 0.25,
        "velocity": 0.71,
        "hand": "right"
      },
      {
        "midi": 68,
        "time": 53,
        "duration": 0.25,
        "velocity": 0.71,
        "hand": "right"
      },
      {
        "midi": 72,
        "time": 53.25,
        "duration": 0.25,
        "velocity": 0.71,
        "hand": "right"
      },
      {
        "midi": 62,
        "time": 53.5,
        "duration": 0.25,
        "velocity": 0.71,
        "hand": "right"
      },
      {
        "midi": 74,
        "time": 53.75,
        "duration": 0.25,
        "velocity": 0.71,
        "hand": "right"
      },
      {
        "midi": 71,
        "time": 54,
        "duration": 0.25,
        "velocity": 0.71,
        "hand": "right"
      },
      {
        "midi": 72,
        "time": 54.25,
        "duration": 0.5,
        "velocity": 0.71,
        "hand": "right"
      },
      {
        "midi": 75,
        "time": 54.5,
        "duration": 0.25,
        "velocity": 0.71,
        "hand": "right"
      },
      {
        "midi": 74,
        "time": 54.75,
        "duration": 0.25,
        "velocity": 0.71,
        "hand": "right"
      },
      {
        "midi": 72,
        "time": 55,
        "duration": 1,
        "velocity": 0.71,
        "hand": "right"
      },
      {
        "midi": 60,
        "time": 55.5,
        "duration": 0.5,
        "velocity": 0.71,
        "hand": "right"
      }
    ],
    "medium": [
      {
        "midi": 48,
        "time": 0,
        "duration": 0.25,
        "velocity": 0.71,
        "hand": "left"
      },
      {
        "midi": 67,
        "time": 0.125,
        "duration": 0.125,
        "velocity": 0.71,
        "hand": "right"
      },
      {
        "midi": 60,
        "time": 0.25,
        "duration": 0.25,
        "velocity": 0.71,
        "hand": "right"
      },
      {
        "midi": 65,
        "time": 0.25,
        "duration": 0.125,
        "velocity": 0.71,
        "hand": "right"
      },
      {
        "midi": 67,
        "time": 0.375,
        "duration": 0.125,
        "velocity": 0.71,
        "hand": "right"
      },
      {
        "midi": 53,
        "time": 0.5,
        "duration": 0.25,
        "velocity": 0.71,
        "hand": "left"
      },
      {
        "midi": 68,
        "time": 0.5,
        "duration": 0.125,
        "velocity": 0.71,
        "hand": "right"
      },
      {
        "midi": 65,
        "time": 0.625,
        "duration": 0.125,
        "velocity": 0.71,
        "hand": "right"
      },
      {
        "midi": 60,
        "time": 0.75,
        "duration": 0.25,
        "velocity": 0.71,
        "hand": "right"
      },
      {
        "midi": 63,
        "time": 0.75,
        "duration": 0.125,
        "velocity": 0.71,
        "hand": "right"
      },
      {
        "midi": 65,
        "time": 0.875,
        "duration": 0.125,
        "velocity": 0.71,
        "hand": "right"
      },
      {
        "midi": 51,
        "time": 1,
        "duration": 0.25,
        "velocity": 0.71,
        "hand": "left"
      },
      {
        "midi": 67,
        "time": 1,
        "duration": 0.125,
        "velocity": 0.71,
        "hand": "right"
      },
      {
        "midi": 63,
        "time": 1.125,
        "duration": 0.125,
        "velocity": 0.71,
        "hand": "right"
      },
      {
        "midi": 60,
        "time": 1.25,
        "duration": 0.25,
        "velocity": 0.71,
        "hand": "right"
      },
      {
        "midi": 62,
        "time": 1.25,
        "duration": 0.125,
        "velocity": 0.71,
        "hand": "right"
      },
      {
        "midi": 63,
        "time": 1.375,
        "duration": 0.125,
        "velocity": 0.71,
        "hand": "right"
      },
      {
        "midi": 50,
        "time": 1.5,
        "duration": 0.25,
        "velocity": 0.71,
        "hand": "left"
      },
      {
        "midi": 65,
        "time": 1.5,
        "duration": 0.125,
        "velocity": 0.71,
        "hand": "right"
      },
      {
        "midi": 62,
        "time": 1.625,
        "duration": 0.125,
        "velocity": 0.71,
        "hand": "right"
      },
      {
        "midi": 59,
        "time": 1.75,
        "duration": 0.25,
        "velocity": 0.71,
        "hand": "left"
      },
      {
        "midi": 60,
        "time": 1.75,
        "duration": 0.125,
        "velocity": 0.71,
        "hand": "right"
      },
      {
        "midi": 62,
        "time": 1.875,
        "duration": 0.125,
        "velocity": 0.71,
        "hand": "right"
      },
      {
        "midi": 48,
        "time": 2,
        "duration": 0.125,
        "velocity": 0.71,
        "hand": "left"
      },
      {
        "midi": 63,
        "time": 2,
        "duration": 0.25,
        "velocity": 0.71,
        "hand": "right"
      },
      {
        "midi": 55,
        "time": 2.125,
        "duration": 0.125,
        "velocity": 0.71,
        "hand": "left"
      },
      {
        "midi": 53,
        "time": 2.25,
        "duration": 0.125,
        "velocity": 0.71,
        "hand": "left"
      },
      {
        "midi": 72,
        "time": 2.25,
        "duration": 0.25,
        "velocity": 0.71,
        "hand": "right"
      },
      {
        "midi": 55,
        "time": 2.375,
        "duration": 0.125,
        "velocity": 0.71,
        "hand": "left"
      },
      {
        "midi": 56,
        "time": 2.5,
        "duration": 0.125,
        "velocity": 0.71,
        "hand": "left"
      },
      {
        "midi": 65,
        "time": 2.5,
        "duration": 0.25,
        "velocity": 0.71,
        "hand": "right"
      },
      {
        "midi": 53,
        "time": 2.625,
        "duration": 0.125,
        "velocity": 0.71,
        "hand": "left"
      },
      {
        "midi": 51,
        "time": 2.75,
        "duration": 0.125,
        "velocity": 0.71,
        "hand": "left"
      },
      {
        "midi": 72,
        "time": 2.75,
        "duration": 0.25,
        "velocity": 0.71,
        "hand": "right"
      },
      {
        "midi": 53,
        "time": 2.875,
        "duration": 0.125,
        "velocity": 0.71,
        "hand": "left"
      },
      {
        "midi": 55,
        "time": 3,
        "duration": 0.125,
        "velocity": 0.71,
        "hand": "left"
      },
      {
        "midi": 63,
        "time": 3,
        "duration": 0.25,
        "velocity": 0.71,
        "hand": "right"
      },
      {
        "midi": 51,
        "time": 3.125,
        "duration": 0.125,
        "velocity": 0.71,
        "hand": "left"
      },
      {
        "midi": 50,
        "time": 3.25,
        "duration": 0.125,
        "velocity": 0.71,
        "hand": "left"
      },
      {
        "midi": 72,
        "time": 3.25,
        "duration": 0.25,
        "velocity": 0.71,
        "hand": "right"
      },
      {
        "midi": 51,
        "time": 3.375,
        "duration": 0.125,
        "velocity": 0.71,
        "hand": "left"
      },
      {
        "midi": 53,
        "time": 3.5,
        "duration": 0.125,
        "velocity": 0.71,
        "hand": "left"
      },
      {
        "midi": 62,
        "time": 3.5,
        "duration": 0.25,
        "velocity": 0.71,
        "hand": "right"
      },
      {
        "midi": 50,
        "time": 3.625,
        "duration": 0.125,
        "velocity": 0.71,
        "hand": "left"
      },
      {
        "midi": 48,
        "time": 3.75,
        "duration": 0.125,
        "velocity": 0.71,
        "hand": "left"
      },
      {
        "midi": 71,
        "time": 3.75,
        "duration": 0.25,
        "velocity": 0.71,
        "hand": "right"
      },
      {
        "midi": 50,
        "time": 3.875,
        "duration": 0.125,
        "velocity": 0.71,
        "hand": "left"
      },
      {
        "midi": 51,
        "time": 4,
        "duration": 0.25,
        "velocity": 0.71,
        "hand": "left"
      },
      {
        "midi": 60,
        "time": 4,
        "duration": 0.125,
        "velocity": 0.71,
        "hand": "right"
      },
      {
        "midi": 63,
        "time": 4.125,
        "duration": 0.125,
        "velocity": 0.71,
        "hand": "right"
      },
      {
        "midi": 48,
        "time": 4.25,
        "duration": 0.25,
        "velocity": 0.71,
        "hand": "left"
      },
      {
        "midi": 67,
        "time": 4.25,
        "duration": 0.125,
        "velocity": 0.71,
        "hand": "right"
      },
      {
        "midi": 72,
        "time": 4.375,
        "duration": 0.125,
        "velocity": 0.71,
        "hand": "right"
      },
      {
        "midi": 53,
        "time": 4.5,
        "duration": 0.25,
        "velocity": 0.71,
        "hand": "left"
      },
      {
        "midi": 62,
        "time": 4.5,
        "duration": 0.125,
        "velocity": 0.71,
        "hand": "right"
      },
      {
        "midi": 72,
        "time": 4.625,
        "duration": 0.125,
        "velocity": 0.71,
        "hand": "right"
      },
      {
        "midi": 50,
        "time": 4.75,
        "duration": 0.25,
        "velocity": 0.71,
        "hand": "left"
      },
      {
        "midi": 71,
        "time": 4.75,
        "duration": 0.125,
        "velocity": 0.71,
        "hand": "right"
      },
      {
        "midi": 69,
        "time": 4.875,
        "duration": 0.125,
        "velocity": 0.71,
        "hand": "right"
      },
      {
        "midi": 55,
        "time": 5,
        "duration": 0.25,
        "velocity": 0.71,
        "hand": "left"
      },
      {
        "midi": 62,
        "time": 5,
        "duration": 0.125,
        "velocity": 0.71,
        "hand": "right"
      },
      {
        "midi": 67,
        "time": 5.125,
        "duration": 0.125,
        "velocity": 0.71,
        "hand": "right"
      },
      {
        "midi": 53,
        "time": 5.25,
        "duration": 0.25,
        "velocity": 0.71,
        "hand": "left"
      },
      {
        "midi": 71,
        "time": 5.25,
        "duration": 0.125,
        "velocity": 0.71,
        "hand": "right"
      },
      {
        "midi": 74,
        "time": 5.375,
        "duration": 0.125,
        "velocity": 0.71,
        "hand": "right"
      },
      {
        "midi": 55,
        "time": 5.5,
        "duration": 0.25,
        "velocity": 0.71,
        "hand": "left"
      },
      {
        "midi": 63,
        "time": 5.5,
        "duration": 0.125,
        "velocity": 0.71,
        "hand": "right"
      },
      {
        "midi": 74,
        "time": 5.625,
        "duration": 0.125,
        "velocity": 0.71,
        "hand": "right"
      },
      {
        "midi": 51,
        "time": 5.75,
        "duration": 0.25,
        "velocity": 0.71,
        "hand": "left"
      },
      {
        "midi": 72,
        "time": 5.75,
        "duration": 0.125,
        "velocity": 0.71,
        "hand": "right"
      },
      {
        "midi": 71,
        "time": 5.875,
        "duration": 0.125,
        "velocity": 0.71,
        "hand": "right"
      },
      {
        "midi": 56,
        "time": 6,
        "duration": 0.25,
        "velocity": 0.71,
        "hand": "left"
      },
      {
        "midi": 63,
        "time": 6,
        "duration": 0.125,
        "velocity": 0.71,
        "hand": "right"
      },
      {
        "midi": 68,
        "time": 6.125,
        "duration": 0.125,
        "velocity": 0.71,
        "hand": "right"
      },
      {
        "midi": 55,
        "time": 6.25,
        "duration": 0.25,
        "velocity": 0.71,
        "hand": "left"
      },
      {
        "midi": 72,
        "time": 6.25,
        "duration": 0.125,
        "velocity": 0.71,
        "hand": "right"
      },
      {
        "midi": 75,
        "time": 6.375,
        "duration": 0.125,
        "velocity": 0.71,
        "hand": "right"
      },
      {
        "midi": 57,
        "time": 6.5,
        "duration": 0.25,
        "velocity": 0.71,
        "hand": "left"
      },
      {
        "midi": 65,
        "time": 6.5,
        "duration": 0.125,
        "velocity": 0.71,
        "hand": "right"
      },
      {
        "midi": 75,
        "time": 6.625,
        "duration": 0.125,
        "velocity": 0.71,
        "hand": "right"
      },
      {
        "midi": 53,
        "time": 6.75,
        "duration": 0.25,
        "velocity": 0.71,
        "hand": "left"
      },
      {
        "midi": 74,
        "time": 6.75,
        "duration": 0.125,
        "velocity": 0.71,
        "hand": "right"
      },
      {
        "midi": 72,
        "time": 6.875,
        "duration": 0.125,
        "velocity": 0.71,
        "hand": "right"
      },
      {
        "midi": 58,
        "time": 7,
        "duration": 0.25,
        "velocity": 0.71,
        "hand": "left"
      },
      {
        "midi": 65,
        "time": 7,
        "duration": 0.125,
        "velocity": 0.71,
        "hand": "right"
      },
      {
        "midi": 70,
        "time": 7.125,
        "duration": 0.125,
        "velocity": 0.71,
        "hand": "right"
      },
      {
        "midi": 57,
        "time": 7.25,
        "duration": 0.25,
        "velocity": 0.71,
        "hand": "left"
      },
      {
        "midi": 74,
        "time": 7.25,
        "duration": 0.125,
        "velocity": 0.71,
        "hand": "right"
      },
      {
        "midi": 77,
        "time": 7.375,
        "duration": 0.125,
        "velocity": 0.71,
        "hand": "right"
      },
      {
        "midi": 59,
        "time": 7.5,
        "duration": 0.25,
        "velocity": 0.71,
        "hand": "left"
      },
      {
        "midi": 67,
        "time": 7.5,
        "duration": 0.125,
        "velocity": 0.71,
        "hand": "right"
      },
      {
        "midi": 77,
        "time": 7.625,
        "duration": 0.125,
        "velocity": 0.71,
        "hand": "right"
      },
      {
        "midi": 55,
        "time": 7.75,
        "duration": 0.25,
        "velocity": 0.71,
        "hand": "left"
      },
      {
        "midi": 75,
        "time": 7.75,
        "duration": 0.125,
        "velocity": 0.71,
        "hand": "right"
      },
      {
        "midi": 74,
        "time": 7.875,
        "duration": 0.125,
        "velocity": 0.71,
        "hand": "right"
      },
      {
        "midi": 60,
        "time": 8,
        "duration": 0.125,
        "velocity": 0.71,
        "hand": "right"
      },
      {
        "midi": 75,
        "time": 8,
        "duration": 0.125,
        "velocity": 0.71,
        "hand": "right"
      },
      {
        "midi": 68,
        "time": 8.125,
        "duration": 0.125,
        "velocity": 0.71,
        "hand": "right"
      },
      {
        "midi": 72,
        "time": 8.125,
        "duration": 0.125,
        "velocity": 0.71,
        "hand": "right"
      },
      {
        "midi": 67,
        "time": 8.25,
        "duration": 0.125,
        "velocity": 0.71,
        "hand": "right"
      },
      {
        "midi": 70,
        "time": 8.25,
        "duration": 0.125,
        "velocity": 0.71,
        "hand": "right"
      },
      {
        "midi": 68,
        "time": 8.375,
        "duration": 0.125,
        "velocity": 0.71,
        "hand": "right"
      },
      {
        "midi": 72,
        "time": 8.375,
        "duration": 0.125,
        "velocity": 0.71,
        "hand": "right"
      },
      {
        "midi": 58,
        "time": 8.5,
        "duration": 0.125,
        "velocity": 0.71,
        "hand": "left"
      },
      {
        "midi": 74,
        "time": 8.5,
        "duration": 0.125,
        "velocity": 0.71,
        "hand": "right"
      },
      {
        "midi": 67,
        "time": 8.625,
        "duration": 0.125,
        "velocity": 0.71,
        "hand": "right"
      },
      {
        "midi": 70,
        "time": 8.625,
        "duration": 0.125,
        "velocity": 0.71,
        "hand": "right"
      },
      {
        "midi": 65,
        "time": 8.75,
        "duration": 0.125,
        "velocity": 0.71,
        "hand": "right"
      },
      {
        "midi": 68,
        "time": 8.75,
        "duration": 0.125,
        "velocity": 0.71,
        "hand": "right"
      },
      {
        "midi": 67,
        "time": 8.875,
        "duration": 0.125,
        "velocity": 0.71,
        "hand": "right"
      },
      {
        "midi": 70,
        "time": 8.875,
        "duration": 0.125,
        "velocity": 0.71,
        "hand": "right"
      },
      {
        "midi": 56,
        "time": 9,
        "duration": 0.25,
        "velocity": 0.71,
        "hand": "left"
      },
      {
        "midi": 72,
        "time": 9,
        "duration": 0.125,
        "velocity": 0.71,
        "hand": "right"
      },
      {
        "midi": 70,
        "time": 9.125,
        "duration": 0.125,
        "velocity": 0.71,
        "hand": "right"
      },
      {
        "midi": 68,
        "time": 9.25,
        "duration": 0.125,
        "velocity": 0.71,
        "hand": "right"
      },
      {
        "midi": 67,
        "time": 9.375,
        "duration": 0.125,
        "velocity": 0.71,
        "hand": "right"
      },
      {
        "midi": 65,
        "time": 9.5,
        "duration": 0.125,
        "velocity": 0.71,
        "hand": "right"
      },
      {
        "midi": 63,
        "time": 9.625,
        "duration": 0.125,
        "velocity": 0.71,
        "hand": "right"
      },
      {
        "midi": 62,
        "time": 9.75,
        "duration": 0.125,
        "velocity": 0.71,
        "hand": "right"
      },
      {
        "midi": 60,
        "time": 9.875,
        "duration": 0.125,
        "velocity": 0.71,
        "hand": "right"
      },
      {
        "midi": 58,
        "time": 10,
        "duration": 0.125,
        "velocity": 0.71,
        "hand": "left"
      },
      {
        "midi": 74,
        "time": 10,
        "duration": 0.125,
        "velocity": 0.71,
        "hand": "right"
      },
      {
        "midi": 67,
        "time": 10.125,
        "duration": 0.125,
        "velocity": 0.71,
        "hand": "right"
      },
      {
        "midi": 70,
        "time": 10.125,
        "duration": 0.125,
        "velocity": 0.71,
        "hand": "right"
      },
      {
        "midi": 65,
        "time": 10.25,
        "duration": 0.125,
        "velocity": 0.71,
        "hand": "right"
      },
      {
        "midi": 68,
        "time": 10.25,
        "duration": 0.125,
        "velocity": 0.71,
        "hand": "right"
      },
      {
        "midi": 67,
        "time": 10.375,
        "duration": 0.125,
        "velocity": 0.71,
        "hand": "right"
      },
      {
        "midi": 70,
        "time": 10.375,
        "duration": 0.125,
        "velocity": 0.71,
        "hand": "right"
      },
      {
        "midi": 56,
        "time": 10.5,
        "duration": 0.125,
        "velocity": 0.71,
        "hand": "left"
      },
      {
        "midi": 72,
        "time": 10.5,
        "duration": 0.125,
        "velocity": 0.71,
        "hand": "right"
      },
      {
        "midi": 65,
        "time": 10.625,
        "duration": 0.125,
        "velocity": 0.71,
        "hand": "right"
      },
      {
        "midi": 68,
        "time": 10.625,
        "duration": 0.125,
        "velocity": 0.71,
        "hand": "right"
      },
      {
        "midi": 63,
        "time": 10.75,
        "duration": 0.125,
        "velocity": 0.71,
        "hand": "right"
      },
      {
        "midi": 67,
        "time": 10.75,
        "duration": 0.125,
        "velocity": 0.71,
        "hand": "right"
      },
      {
        "midi": 65,
        "time": 10.875,
        "duration": 0.125,
        "velocity": 0.71,
        "hand": "right"
      },
      {
        "midi": 68,
        "time": 10.875,
        "duration": 0.125,
        "velocity": 0.71,
        "hand": "right"
      },
      {
        "midi": 55,
        "time": 11,
        "duration": 0.25,
        "velocity": 0.71,
        "hand": "left"
      },
      {
        "midi": 70,
        "time": 11,
        "duration": 0.125,
        "velocity": 0.71,
        "hand": "right"
      },
      {
        "midi": 68,
        "time": 11.125,
        "duration": 0.125,
        "velocity": 0.71,
        "hand": "right"
      },
      {
        "midi": 67,
        "time": 11.25,
        "duration": 0.125,
        "velocity": 0.71,
        "hand": "right"
      },
      {
        "midi": 65,
        "time": 11.375,
        "duration": 0.125,
        "velocity": 0.71,
        "hand": "right"
      },
      {
        "midi": 63,
        "time": 11.5,
        "duration": 0.125,
        "velocity": 0.71,
        "hand": "right"
      },
      {
        "midi": 61,
        "time": 11.625,
        "duration": 0.125,
        "velocity": 0.71,
        "hand": "right"
      },
      {
        "midi": 60,
        "time": 11.75,
        "duration": 0.125,
        "velocity": 0.71,
        "hand": "right"
      },
      {
        "midi": 58,
        "time": 11.875,
        "duration": 0.125,
        "velocity": 0.71,
        "hand": "left"
      },
      {
        "midi": 56,
        "time": 12,
        "duration": 0.125,
        "velocity": 0.71,
        "hand": "left"
      },
      {
        "midi": 72,
        "time": 12,
        "duration": 0.125,
        "velocity": 0.71,
        "hand": "right"
      },
      {
        "midi": 65,
        "time": 12.125,
        "duration": 0.125,
        "velocity": 0.71,
        "hand": "right"
      },
      {
        "midi": 68,
        "time": 12.125,
        "duration": 0.125,
        "velocity": 0.71,
        "hand": "right"
      },
      {
        "midi": 63,
        "time": 12.25,
        "duration": 0.125,
        "velocity": 0.71,
        "hand": "right"
      },
      {
        "midi": 67,
        "time": 12.25,
        "duration": 0.125,
        "velocity": 0.71,
        "hand": "right"
      },
      {
        "midi": 65,
        "time": 12.375,
        "duration": 0.125,
        "velocity": 0.71,
        "hand": "right"
      },
      {
        "midi": 68,
        "time": 12.375,
        "duration": 0.125,
        "velocity": 0.71,
        "hand": "right"
      },
      {
        "midi": 55,
        "time": 12.5,
        "duration": 0.125,
        "velocity": 0.71,
        "hand": "left"
      },
      {
        "midi": 70,
        "time": 12.5,
        "duration": 0.125,
        "velocity": 0.71,
        "hand": "right"
      },
      {
        "midi": 63,
        "time": 12.625,
        "duration": 0.125,
        "velocity": 0.71,
        "hand": "right"
      },
      {
        "midi": 67,
        "time": 12.625,
        "duration": 0.125,
        "velocity": 0.71,
        "hand": "right"
      },
      {
        "midi": 62,
        "time": 12.75,
        "duration": 0.125,
        "velocity": 0.71,
        "hand": "right"
      },
      {
        "midi": 65,
        "time": 12.75,
        "duration": 0.125,
        "velocity": 0.71,
        "hand": "right"
      },
      {
        "midi": 63,
        "time": 12.875,
        "duration": 0.125,
        "velocity": 0.71,
        "hand": "right"
      },
      {
        "midi": 67,
        "time": 12.875,
        "duration": 0.125,
        "velocity": 0.71,
        "hand": "right"
      },
      {
        "midi": 53,
        "time": 13,
        "duration": 0.125,
        "velocity": 0.71,
        "hand": "left"
      },
      {
        "midi": 68,
        "time": 13,
        "duration": 0.125,
        "velocity": 0.71,
        "hand": "right"
      },
      {
        "midi": 62,
        "time": 13.125,
        "duration": 0.125,
        "velocity": 0.71,
        "hand": "right"
      },
      {
        "midi": 65,
        "time": 13.125,
        "duration": 0.125,
        "velocity": 0.71,
        "hand": "right"
      },
      {
        "midi": 60,
        "time": 13.25,
        "duration": 0.125,
        "velocity": 0.71,
        "hand": "right"
      },
      {
        "midi": 63,
        "time": 13.25,
        "duration": 0.125,
        "velocity": 0.71,
        "hand": "right"
      },
      {
        "midi": 62,
        "time": 13.375,
        "duration": 0.125,
        "velocity": 0.71,
        "hand": "right"
      },
      {
        "midi": 65,
        "time": 13.375,
        "duration": 0.125,
        "velocity": 0.71,
        "hand": "right"
      },
      {
        "midi": 51,
        "time": 13.5,
        "duration": 0.125,
        "velocity": 0.71,
        "hand": "left"
      },
      {
        "midi": 68,
        "time": 13.5,
        "duration": 0.25,
        "velocity": 0.71,
        "hand": "right"
      },
      {
        "midi": 60,
        "time": 13.625,
        "duration": 0.125,
        "velocity": 0.71,
        "hand": "right"
      },
      {
        "midi": 58,
        "time": 13.75,
        "duration": 0.125,
        "velocity": 0.71,
        "hand": "left"
      },
      {
        "midi": 68,
        "time": 13.75,
        "duration": 0.25,
        "velocity": 0.71,
        "hand": "right"
      },
      {
        "midi": 60,
        "time": 13.875,
        "duration": 0.125,
        "velocity": 0.71,
        "hand": "right"
      },
      {
        "midi": 62,
        "time": 14,
        "duration": 0.125,
        "velocity": 0.71,
        "hand": "right"
      },
      {
        "midi": 68,
        "time": 14,
        "duration": 0.125,
        "velocity": 0.71,
        "hand": "right"
      },
      {
        "midi": 58,
        "time": 14.125,
        "duration": 0.125,
        "velocity": 0.71,
        "hand": "left"
      },
      {
        "midi": 67,
        "time": 14.125,
        "duration": 0.125,
        "velocity": 0.71,
        "hand": "right"
      },
      {
        "midi": 56,
        "time": 14.25,
        "duration": 0.125,
        "velocity": 0.71,
        "hand": "left"
      },
      {
        "midi": 65,
        "time": 14.25,
        "duration": 0.125,
        "velocity": 0.71,
        "hand": "right"
      },
      {
        "midi": 58,
        "time": 14.375,
        "duration": 0.125,
        "velocity": 0.71,
        "hand": "left"
      },
      {
        "midi": 67,
        "time": 14.375,
        "duration": 0.125,
        "velocity": 0.71,
        "hand": "right"
      },
      {
        "midi": 60,
        "time": 14.5,
        "duration": 0.125,
        "velocity": 0.71,
        "hand": "right"
      },
      {
        "midi": 68,
        "time": 14.5,
        "duration": 0.25,
        "velocity": 0.71,
        "hand": "right"
      },
      {
        "midi": 56,
        "time": 14.625,
        "duration": 0.125,
        "velocity": 0.71,
        "hand": "left"
      },
      {
        "midi": 55,
        "time": 14.75,
        "duration": 0.125,
        "velocity": 0.71,
        "hand": "left"
      },
      {
        "midi": 68,
        "time": 14.75,
        "duration": 0.25,
        "velocity": 0.71,
        "hand": "right"
      },
      {
        "midi": 56,
        "time": 14.875,
        "duration": 0.125,
        "velocity": 0.71,
        "hand": "left"
      },
      {
        "midi": 46,
        "time": 15,
        "duration": 0.25,
        "velocity": 0.71,
        "hand": "left"
      },
      {
        "midi": 68,
        "time": 15,
        "duration": 0.125,
        "velocity": 0.71,
        "hand": "right"
      },
      {
        "midi": 74,
        "time": 15.125,
        "duration": 0.125,
        "velocity": 0.71,
        "hand": "right"
      },
      {
        "midi": 58,
        "time": 15.25,
        "duration": 0.25,
        "velocity": 0.71,
        "hand": "left"
      },
      {
        "midi": 77,
        "time": 15.25,
        "duration": 0.125,
        "velocity": 0.71,
        "hand": "right"
      },
      {
        "midi": 75,
        "time": 15.375,
        "duration": 0.125,
        "velocity": 0.71,
        "hand": "right"
      },
      {
        "midi": 74,
        "time": 15.5,
        "duration": 0.125,
        "velocity": 0.71,
        "hand": "right"
      },
      {
        "midi": 72,
        "time": 15.625,
        "duration": 0.125,
        "velocity": 0.71,
        "hand": "right"
      },
      {
        "midi": 50,
        "time": 15.75,
        "duration": 0.25,
        "velocity": 0.71,
        "hand": "left"
      },
      {
        "midi": 70,
        "time": 15.75,
        "duration": 0.125,
        "velocity": 0.71,
        "hand": "right"
      },
      {
        "midi": 68,
        "time": 15.875,
        "duration": 0.125,
        "velocity": 0.71,
        "hand": "right"
      },
      {
        "midi": 51,
        "time": 16,
        "duration": 0.25,
        "velocity": 0.71,
        "hand": "left"
      },
      {
        "midi": 67,
        "time": 16,
        "duration": 0.125,
        "velocity": 0.71,
        "hand": "right"
      },
      {
        "midi": 70,
        "time": 16.125,
        "duration": 0.125,
        "velocity": 0.71,
        "hand": "right"
      },
      {
        "midi": 48,
        "time": 16.25,
        "duration": 0.25,
        "velocity": 0.71,
        "hand": "left"
      },
      {
        "midi": 75,
        "time": 16.25,
        "duration": 0.125,
        "velocity": 0.71,
        "hand": "right"
      },
      {
        "midi": 79,
        "time": 16.375,
        "duration": 0.125,
        "velocity": 0.71,
        "hand": "right"
      },
      {
        "midi": 44,
        "time": 16.5,
        "duration": 0.25,
        "velocity": 0.71,
        "hand": "left"
      },
      {
        "midi": 77,
        "time": 16.5,
        "duration": 0.125,
        "velocity": 0.71,
        "hand": "right"
      },
      {
        "midi": 75,
        "time": 16.625,
        "duration": 0.125,
        "velocity": 0.71,
        "hand": "right"
      },
      {
        "midi": 46,
        "time": 16.75,
        "duration": 0.25,
        "velocity": 0.71,
        "hand": "left"
      },
      {
        "midi": 77,
        "time": 16.75,
        "duration": 0.125,
        "velocity": 0.71,
        "hand": "right"
      },
      {
        "midi": 74,
        "time": 16.875,
        "duration": 0.125,
        "velocity": 0.71,
        "hand": "right"
      },
      {
        "midi": 39,
        "time": 17,
        "duration": 0.25,
        "velocity": 0.71,
        "hand": "left"
      },
      {
        "midi": 75,
        "time": 17,
        "duration": 0.125,
        "velocity": 0.71,
        "hand": "right"
      },
      {
        "midi": 70,
        "time": 17.125,
        "duration": 0.125,
        "velocity": 0.71,
        "hand": "right"
      },
      {
        "midi": 51,
        "time": 17.25,
        "duration": 0.25,
        "velocity": 0.71,
        "hand": "left"
      },
      {
        "midi": 68,
        "time": 17.25,
        "duration": 0.125,
        "velocity": 0.71,
        "hand": "right"
      },
      {
        "midi": 70,
        "time": 17.375,
        "duration": 0.125,
        "velocity": 0.71,
        "hand": "right"
      },
      {
        "midi": 56,
        "time": 17.5,
        "duration": 0.25,
        "velocity": 0.71,
        "hand": "left"
      },
      {
        "midi": 72,
        "time": 17.5,
        "duration": 0.125,
        "velocity": 0.71,
        "hand": "right"
      },
      {
        "midi": 68,
        "time": 17.625,
        "duration": 0.125,
        "velocity": 0.71,
        "hand": "right"
      },
      {
        "midi": 51,
        "time": 17.75,
        "duration": 0.25,
        "velocity": 0.71,
        "hand": "left"
      },
      {
        "midi": 67,
        "time": 17.75,
        "duration": 0.125,
        "velocity": 0.71,
        "hand": "right"
      },
      {
        "midi": 68,
        "time": 17.875,
        "duration": 0.125,
        "velocity": 0.71,
        "hand": "right"
      },
      {
        "midi": 43,
        "time": 18,
        "duration": 0.25,
        "velocity": 0.71,
        "hand": "left"
      },
      {
        "midi": 70,
        "time": 18,
        "duration": 0.125,
        "velocity": 0.71,
        "hand": "right"
      },
      {
        "midi": 67,
        "time": 18.125,
        "duration": 0.125,
        "velocity": 0.71,
        "hand": "right"
      },
      {
        "midi": 51,
        "time": 18.25,
        "duration": 0.25,
        "velocity": 0.71,
        "hand": "left"
      },
      {
        "midi": 65,
        "time": 18.25,
        "duration": 0.125,
        "velocity": 0.71,
        "hand": "right"
      },
      {
        "midi": 67,
        "time": 18.375,
        "duration": 0.125,
        "velocity": 0.71,
        "hand": "right"
      },
      {
        "midi": 41,
        "time": 18.5,
        "duration": 0.25,
        "velocity": 0.71,
        "hand": "left"
      },
      {
        "midi": 68,
        "time": 18.5,
        "duration": 0.125,
        "velocity": 0.71,
        "hand": "right"
      },
      {
        "midi": 65,
        "time": 18.625,
        "duration": 0.125,
        "velocity": 0.71,
        "hand": "right"
      },
      {
        "midi": 50,
        "time": 18.75,
        "duration": 0.25,
        "velocity": 0.71,
        "hand": "left"
      },
      {
        "midi": 63,
        "time": 18.75,
        "duration": 0.125,
        "velocity": 0.71,
        "hand": "right"
      },
      {
        "midi": 65,
        "time": 18.875,
        "duration": 0.125,
        "velocity": 0.71,
        "hand": "right"
      },
      {
        "midi": 51,
        "time": 19,
        "duration": 0.125,
        "velocity": 0.71,
        "hand": "left"
      },
      {
        "midi": 67,
        "time": 19,
        "duration": 0.125,
        "velocity": 0.71,
        "hand": "right"
      },
      {
        "midi": 55,
        "time": 19.125,
        "duration": 0.125,
        "velocity": 0.71,
        "hand": "left"
      },
      {
        "midi": 63,
        "time": 19.125,
        "duration": 0.125,
        "velocity": 0.71,
        "hand": "right"
      },
      {
        "midi": 53,
        "time": 19.25,
        "duration": 0.125,
        "velocity": 0.71,
        "hand": "left"
      },
      {
        "midi": 62,
        "time": 19.25,
        "duration": 0.125,
        "velocity": 0.71,
        "hand": "right"
      },
      {
        "midi": 55,
        "time": 19.375,
        "duration": 0.125,
        "velocity": 0.71,
        "hand": "left"
      },
      {
        "midi": 63,
        "time": 19.375,
        "duration": 0.125,
        "velocity": 0.71,
        "hand": "right"
      },
      {
        "midi": 56,
        "time": 19.5,
        "duration": 0.125,
        "velocity": 0.71,
        "hand": "left"
      },
      {
        "midi": 60,
        "time": 19.5,
        "duration": 0.25,
        "velocity": 0.71,
        "hand": "right"
      },
      {
        "midi": 53,
        "time": 19.625,
        "duration": 0.125,
        "velocity": 0.71,
        "hand": "left"
      },
      {
        "midi": 51,
        "time": 19.75,
        "duration": 0.125,
        "velocity": 0.71,
        "hand": "left"
      },
      {
        "midi": 68,
        "time": 19.75,
        "duration": 0.25,
        "velocity": 0.71,
        "hand": "right"
      },
      {
        "midi": 53,
        "time": 19.875,
        "duration": 0.125,
        "velocity": 0.71,
        "hand": "left"
      },
      {
        "midi": 55,
        "time": 20,
        "duration": 0.125,
        "velocity": 0.71,
        "hand": "left"
      },
      {
        "midi": 58,
        "time": 20,
        "duration": 0.25,
        "velocity": 0.71,
        "hand": "left"
      },
      {
        "midi": 51,
        "time": 20.125,
        "duration": 0.125,
        "velocity": 0.71,
        "hand": "left"
      },
      {
        "midi": 50,
        "time": 20.25,
        "duration": 0.125,
        "velocity": 0.71,
        "hand": "left"
      },
      {
        "midi": 67,
        "time": 20.25,
        "duration": 0.25,
        "velocity": 0.71,
        "hand": "right"
      },
      {
        "midi": 51,
        "time": 20.375,
        "duration": 0.125,
        "velocity": 0.71,
        "hand": "left"
      },
      {
        "midi": 53,
        "time": 20.5,
        "duration": 0.125,
        "velocity": 0.71,
        "hand": "left"
      },
      {
        "midi": 56,
        "time": 20.5,
        "duration": 0.25,
        "velocity": 0.71,
        "hand": "left"
      },
      {
        "midi": 50,
        "time": 20.625,
        "duration": 0.125,
        "velocity": 0.71,
        "hand": "left"
      },
      {
        "midi": 48,
        "time": 20.75,
        "duration": 0.125,
        "velocity": 0.71,
        "hand": "left"
      },
      {
        "midi": 65,
        "time": 20.75,
        "duration": 0.25,
        "velocity": 0.71,
        "hand": "right"
      },
      {
        "midi": 50,
        "time": 20.875,
        "duration": 0.125,
        "velocity": 0.71,
        "hand": "left"
      },
      {
        "midi": 51,
        "time": 21,
        "duration": 0.25,
        "velocity": 0.71,
        "hand": "left"
      },
      {
        "midi": 55,
        "time": 21,
        "duration": 0.125,
        "velocity": 0.71,
        "hand": "left"
      },
      {
        "midi": 58,
        "time": 21.125,
        "duration": 0.125,
        "velocity": 0.71,
        "hand": "left"
      },
      {
        "midi": 55,
        "time": 21.25,
        "duration": 0.25,
        "velocity": 0.71,
        "hand": "left"
      },
      {
        "midi": 63,
        "time": 21.25,
        "duration": 0.125,
        "velocity": 0.71,
        "hand": "right"
      },
      {
        "midi": 67,
        "time": 21.375,
        "duration": 0.25,
        "velocity": 0.71,
        "hand": "right"
      },
      {
        "midi": 56,
        "time": 21.5,
        "duration": 0.25,
        "velocity": 0.71,
        "hand": "left"
      },
      {
        "midi": 65,
        "time": 21.625,
        "duration": 0.125,
        "velocity": 0.71,
        "hand": "right"
      },
      {
        "midi": 58,
        "time": 21.75,
        "duration": 0.25,
        "velocity": 0.71,
        "hand": "left"
      },
      {
        "midi": 63,
        "time": 21.75,
        "duration": 0.125,
        "velocity": 0.71,
        "hand": "right"
      },
      {
        "midi": 62,
        "time": 21.875,
        "duration": 0.125,
        "velocity": 0.71,
        "hand": "right"
      },
      {
        "midi": 60,
        "time": 22,
        "duration": 0.25,
        "velocity": 0.71,
        "hand": "right"
      },
      {
        "midi": 63,
        "time": 22,
        "duration": 0.5,
        "velocity": 0.71,
        "hand": "right"
      },
      {
        "midi": 67,
        "time": 22.125,
        "duration": 0.125,
        "velocity": 0.71,
        "hand": "right"
      },
      {
        "midi": 56,
        "time": 22.25,
        "duration": 0.25,
        "velocity": 0.71,
        "hand": "left"
      },
      {
        "midi": 72,
        "time": 22.25,
        "duration": 0.25,
        "velocity": 0.71,
        "hand": "right"
      },
      {
        "midi": 65,
        "time": 22.375,
        "duration": 0.125,
        "velocity": 0.71,
        "hand": "right"
      },
      {
        "midi": 58,
        "time": 22.5,
        "duration": 0.25,
        "velocity": 0.71,
        "hand": "left"
      },
      {
        "midi": 67,
        "time": 22.5,
        "duration": 0.25,
        "velocity": 0.71,
        "hand": "right"
      },
      {
        "midi": 70,
        "time": 22.5,
        "duration": 0.25,
        "velocity": 0.71,
        "hand": "right"
      },
      {
        "midi": 63,
        "time": 22.625,
        "duration": 0.25,
        "velocity": 0.71,
        "hand": "right"
      },
      {
        "midi": 46,
        "time": 22.75,
        "duration": 0.25,
        "velocity": 0.71,
        "hand": "left"
      },
      {
        "midi": 65,
        "time": 22.75,
        "duration": 0.25,
        "velocity": 0.71,
        "hand": "right"
      },
      {
        "midi": 68,
        "time": 22.75,
        "duration": 0.25,
        "velocity": 0.71,
        "hand": "right"
      },
      {
        "midi": 62,
        "time": 22.875,
        "duration": 0.125,
        "velocity": 0.71,
        "hand": "right"
      },
      {
        "midi": 58,
        "time": 23,
        "duration": 1,
        "velocity": 0.71,
        "hand": "left"
      },
      {
        "midi": 63,
        "time": 23,
        "duration": 1,
        "velocity": 0.71,
        "hand": "right"
      },
      {
        "midi": 67,
        "time": 23,
        "duration": 1,
        "velocity": 0.71,
        "hand": "right"
      },
      {
        "midi": 51,
        "time": 23.125,
        "duration": 0.125,
        "velocity": 0.71,
        "hand": "left"
      },
      {
        "midi": 46,
        "time": 23.25,
        "duration": 0.125,
        "velocity": 0.71,
        "hand": "left"
      },
      {
        "midi": 43,
        "time": 23.375,
        "duration": 0.125,
        "velocity": 0.71,
        "hand": "left"
      },
      {
        "midi": 39,
        "time": 23.5,
        "duration": 0.5,
        "velocity": 0.71,
        "hand": "left"
      },
      {
        "midi": 51,
        "time": 24,
        "duration": 0.25,
        "velocity": 0.71,
        "hand": "left"
      },
      {
        "midi": 70,
        "time": 24.125,
        "duration": 0.125,
        "velocity": 0.71,
        "hand": "right"
      },
      {
        "midi": 53,
        "time": 24.25,
        "duration": 0.25,
        "velocity": 0.71,
        "hand": "left"
      },
      {
        "midi": 69,
        "time": 24.25,
        "duration": 0.125,
        "velocity": 0.71,
        "hand": "right"
      },
      {
        "midi": 70,
        "time": 24.375,
        "duration": 0.125,
        "velocity": 0.71,
        "hand": "right"
      },
      {
        "midi": 55,
        "time": 24.5,
        "duration": 0.25,
        "velocity": 0.71,
        "hand": "left"
      },
      {
        "midi": 75,
        "time": 24.5,
        "duration": 0.125,
        "velocity": 0.71,
        "hand": "right"
      },
      {
        "midi": 70,
        "time": 24.625,
        "duration": 0.125,
        "velocity": 0.71,
        "hand": "right"
      },
      {
        "midi": 51,
        "time": 24.75,
        "duration": 0.25,
        "velocity": 0.71,
        "hand": "left"
      },
      {
        "midi": 69,
        "time": 24.75,
        "duration": 0.125,
        "velocity": 0.71,
        "hand": "right"
      },
      {
        "midi": 70,
        "time": 24.875,
        "duration": 0.125,
        "velocity": 0.71,
        "hand": "right"
      },
      {
        "midi": 50,
        "time": 25,
        "duration": 0.25,
        "velocity": 0.71,
        "hand": "left"
      },
      {
        "midi": 77,
        "time": 25,
        "duration": 0.125,
        "velocity": 0.71,
        "hand": "right"
      },
      {
        "midi": 70,
        "time": 25.125,
        "duration": 0.125,
        "velocity": 0.71,
        "hand": "right"
      },
      {
        "midi": 48,
        "time": 25.25,
        "duration": 0.25,
        "velocity": 0.71,
        "hand": "left"
      },
      {
        "midi": 69,
        "time": 25.25,
        "duration": 0.125,
        "velocity": 0.71,
        "hand": "right"
      },
      {
        "midi": 70,
        "time": 25.375,
        "duration": 0.125,
        "velocity": 0.71,
        "hand": "right"
      },
      {
        "midi": 50,
        "time": 25.5,
        "duration": 0.25,
        "velocity": 0.71,
        "hand": "left"
      },
      {
        "midi": 80,
        "time": 25.5,
        "duration": 0.125,
        "velocity": 0.71,
        "hand": "right"
      },
      {
        "midi": 70,
        "time": 25.625,
        "duration": 0.125,
        "velocity": 0.71,
        "hand": "right"
      },
      {
        "midi": 46,
        "time": 25.75,
        "duration": 0.25,
        "velocity": 0.71,
        "hand": "left"
      },
      {
        "midi": 69,
        "time": 25.75,
        "duration": 0.125,
        "velocity": 0.71,
        "hand": "right"
      },
      {
        "midi": 70,
        "time": 25.875,
        "duration": 0.125,
        "velocity": 0.71,
        "hand": "right"
      },
      {
        "midi": 51,
        "time": 26,
        "duration": 0.125,
        "velocity": 0.71,
        "hand": "left"
      },
      {
        "midi": 79,
        "time": 26,
        "duration": 0.25,
        "velocity": 0.71,
        "hand": "right"
      },
      {
        "midi": 55,
        "time": 26.125,
        "duration": 0.125,
        "velocity": 0.71,
        "hand": "left"
      },
      {
        "midi": 56,
        "time": 26.25,
        "duration": 0.125,
        "velocity": 0.71,
        "hand": "left"
      },
      {
        "midi": 75,
        "time": 26.25,
        "duration": 0.25,
        "velocity": 0.71,
        "hand": "right"
      },
      {
        "midi": 55,
        "time": 26.375,
        "duration": 0.125,
        "velocity": 0.71,
        "hand": "left"
      },
      {
        "midi": 44,
        "time": 26.5,
        "duration": 0.125,
        "velocity": 0.71,
        "hand": "left"
      },
      {
        "midi": 72,
        "time": 26.5,
        "duration": 0.125,
        "velocity": 0.71,
        "hand": "right"
      },
      {
        "midi": 55,
        "time": 26.625,
        "duration": 0.125,
        "velocity": 0.71,
        "hand": "left"
      },
      {
        "midi": 71,
        "time": 26.625,
        "duration": 0.125,
        "velocity": 0.71,
        "hand": "right"
      },
      {
        "midi": 56,
        "time": 26.75,
        "duration": 0.125,
        "velocity": 0.71,
        "hand": "left"
      },
      {
        "midi": 72,
        "time": 26.75,
        "duration": 0.25,
        "velocity": 0.71,
        "hand": "right"
      },
      {
        "midi": 55,
        "time": 26.875,
        "duration": 0.125,
        "velocity": 0.71,
        "hand": "left"
      },
      {
        "midi": 50,
        "time": 27,
        "duration": 0.125,
        "velocity": 0.71,
        "hand": "left"
      },
      {
        "midi": 77,
        "time": 27,
        "duration": 0.25,
        "velocity": 0.71,
        "hand": "right"
      },
      {
        "midi": 53,
        "time": 27.125,
        "duration": 0.125,
        "velocity": 0.71,
        "hand": "left"
      },
      {
        "midi": 55,
        "time": 27.25,
        "duration": 0.125,
        "velocity": 0.71,
        "hand": "left"
      },
      {
        "midi": 74,
        "time": 27.25,
        "duration": 0.25,
        "velocity": 0.71,
        "hand": "right"
      },
      {
        "midi": 53,
        "time": 27.375,
        "duration": 0.125,
        "velocity": 0.71,
        "hand": "left"
      },
      {
        "midi": 43,
        "time": 27.5,
        "duration": 0.125,
        "velocity": 0.71,
        "hand": "left"
      },
      {
        "midi": 71,
        "time": 27.5,
        "duration": 0.125,
        "velocity": 0.71,
        "hand": "right"
      },
      {
        "midi": 53,
        "time": 27.625,
        "duration": 0.125,
        "velocity": 0.71,
        "hand": "left"
      },
      {
        "midi": 69,
        "time": 27.625,
        "duration": 0.125,
        "velocity": 0.71,
        "hand": "right"
      },
      {
        "midi": 55,
        "time": 27.75,
        "duration": 0.125,
        "velocity": 0.71,
        "hand": "left"
      },
      {
        "midi": 71,
        "time": 27.75,
        "duration": 0.25,
        "velocity": 0.71,
        "hand": "right"
      },
      {
        "midi": 53,
        "time": 27.875,
        "duration": 0.125,
        "velocity": 0.71,
        "hand": "left"
      },
      {
        "midi": 48,
        "time": 28,
        "duration": 0.25,
        "velocity": 0.71,
        "hand": "left"
      },
      {
        "midi": 75,
        "time": 28,
        "duration": 0.125,
        "velocity": 0.71,
        "hand": "right"
      },
      {
        "midi": 63,
        "time": 28.125,
        "duration": 0.125,
        "velocity": 0.71,
        "hand": "right"
      },
      {
        "midi": 60,
        "time": 28.25,
        "duration": 0.25,
        "velocity": 0.71,
        "hand": "right"
      },
      {
        "midi": 62,
        "time": 28.25,
        "duration": 0.125,
        "velocity": 0.71,
        "hand": "right"
      },
      {
        "midi": 63,
        "time": 28.375,
        "duration": 0.125,
        "velocity": 0.71,
        "hand": "right"
      },
      {
        "midi": 58,
        "time": 28.5,
        "duration": 0.25,
        "velocity": 0.71,
        "hand": "left"
      },
      {
        "midi": 67,
        "time": 28.5,
        "duration": 0.125,
        "velocity": 0.71,
        "hand": "right"
      },
      {
        "midi": 63,
        "time": 28.625,
        "duration": 0.125,
        "velocity": 0.71,
        "hand": "right"
      },
      {
        "midi": 56,
        "time": 28.75,
        "duration": 0.25,
        "velocity": 0.71,
        "hand": "left"
      },
      {
        "midi": 62,
        "time": 28.75,
        "duration": 0.125,
        "velocity": 0.71,
        "hand": "right"
      },
      {
        "midi": 63,
        "time": 28.875,
        "duration": 0.125,
        "velocity": 0.71,
        "hand": "right"
      },
      {
        "midi": 55,
        "time": 29,
        "duration": 0.25,
        "velocity": 0.71,
        "hand": "left"
      },
      {
        "midi": 70,
        "time": 29,
        "duration": 0.125,
        "velocity": 0.71,
        "hand": "right"
      },
      {
        "midi": 63,
        "time": 29.125,
        "duration": 0.125,
        "velocity": 0.71,
        "hand": "right"
      },
      {
        "midi": 53,
        "time": 29.25,
        "duration": 0.25,
        "velocity": 0.71,
        "hand": "left"
      },
      {
        "midi": 62,
        "time": 29.25,
        "duration": 0.125,
        "velocity": 0.71,
        "hand": "right"
      },
      {
        "midi": 63,
        "time": 29.375,
        "duration": 0.125,
        "velocity": 0.71,
        "hand": "right"
      },
      {
        "midi": 55,
        "time": 29.5,
        "duration": 0.25,
        "velocity": 0.71,
        "hand": "left"
      },
      {
        "midi": 73,
        "time": 29.5,
        "duration": 0.125,
        "velocity": 0.71,
        "hand": "right"
      },
      {
        "midi": 63,
        "time": 29.625,
        "duration": 0.125,
        "velocity": 0.71,
        "hand": "right"
      },
      {
        "midi": 51,
        "time": 29.75,
        "duration": 0.25,
        "velocity": 0.71,
        "hand": "left"
      },
      {
        "midi": 62,
        "time": 29.75,
        "duration": 0.125,
        "velocity": 0.71,
        "hand": "right"
      },
      {
        "midi": 63,
        "time": 29.875,
        "duration": 0.125,
        "velocity": 0.71,
        "hand": "right"
      },
      {
        "midi": 56,
        "time": 30,
        "duration": 0.125,
        "velocity": 0.71,
        "hand": "left"
      },
      {
        "midi": 72,
        "time": 30,
        "duration": 0.25,
        "velocity": 0.71,
        "hand": "right"
      },
      {
        "midi": 60,
        "time": 30.125,
        "duration": 0.125,
        "velocity": 0.71,
        "hand": "right"
      },
      {
        "midi": 61,
        "time": 30.25,
        "duration": 0.125,
        "velocity": 0.71,
        "hand": "right"
      },
      {
        "midi": 68,
        "time": 30.25,
        "duration": 0.25,
        "velocity": 0.71,
        "hand": "right"
      },
      {
        "midi": 60,
        "time": 30.375,
        "duration": 0.125,
        "velocity": 0.71,
        "hand": "right"
      },
      {
        "midi": 49,
        "time": 30.5,
        "duration": 0.125,
        "velocity": 0.71,
        "hand": "left"
      },
      {
        "midi": 65,
        "time": 30.5,
        "duration": 0.125,
        "velocity": 0.71,
        "hand": "right"
      },
      {
        "midi": 60,
        "time": 30.625,
        "duration": 0.125,
        "velocity": 0.71,
        "hand": "right"
      },
      {
        "midi": 64,
        "time": 30.625,
        "duration": 0.125,
        "velocity": 0.71,
        "hand": "right"
      },
      {
        "midi": 61,
        "time": 30.75,
        "duration": 0.125,
        "velocity": 0.71,
        "hand": "right"
      },
      {
        "midi": 65,
        "time": 30.75,
        "duration": 0.25,
        "velocity": 0.71,
        "hand": "right"
      },
      {
        "midi": 60,
        "time": 30.875,
        "duration": 0.125,
        "velocity": 0.71,
        "hand": "right"
      },
      {
        "midi": 55,
        "time": 31,
        "duration": 0.125,
        "velocity": 0.71,
        "hand": "left"
      },
      {
        "midi": 70,
        "time": 31,
        "duration": 0.25,
        "velocity": 0.71,
        "hand": "right"
      },
      {
        "midi": 58,
        "time": 31.125,
        "duration": 0.125,
        "velocity": 0.71,
        "hand": "left"
      },
      {
        "midi": 60,
        "time": 31.25,
        "duration": 0.125,
        "velocity": 0.71,
        "hand": "right"
      },
      {
        "midi": 67,
        "time": 31.25,
        "duration": 0.25,
        "velocity": 0.71,
        "hand": "right"
      },
      {
        "midi": 58,
        "time": 31.375,
        "duration": 0.125,
        "velocity": 0.71,
        "hand": "left"
      },
      {
        "midi": 48,
        "time": 31.5,
        "duration": 0.125,
        "velocity": 0.71,
        "hand": "left"
      },
      {
        "midi": 64,
        "time": 31.5,
        "duration": 0.125,
        "velocity": 0.71,
        "hand": "right"
      },
      {
        "midi": 58,
        "time": 31.625,
        "duration": 0.125,
        "velocity": 0.71,
        "hand": "left"
      },
      {
        "midi": 62,
        "time": 31.625,
        "duration": 0.125,
        "velocity": 0.71,
        "hand": "right"
      },
      {
        "midi": 60,
        "time": 31.75,
        "duration": 0.125,
        "velocity": 0.71,
        "hand": "right"
      },
      {
        "midi": 64,
        "time": 31.75,
        "duration": 0.25,
        "velocity": 0.71,
        "hand": "right"
      },
      {
        "midi": 58,
        "time": 31.875,
        "duration": 0.125,
        "velocity": 0.71,
        "hand": "left"
      },
      {
        "midi": 53,
        "time": 32,
        "duration": 0.25,
        "velocity": 0.71,
        "hand": "left"
      },
      {
        "midi": 68,
        "time": 32,
        "duration": 0.125,
        "velocity": 0.71,
        "hand": "right"
      },
      {
        "midi": 72,
        "time": 32.125,
        "duration": 0.125,
        "velocity": 0.71,
        "hand": "right"
      },
      {
        "midi": 56,
        "time": 32.25,
        "duration": 0.25,
        "velocity": 0.71,
        "hand": "left"
      },
      {
        "midi": 71,
        "time": 32.25,
        "duration": 0.125,
        "velocity": 0.71,
        "hand": "right"
      },
      {
        "midi": 72,
        "time": 32.375,
        "duration": 0.125,
        "velocity": 0.71,
        "hand": "right"
      },
      {
        "midi": 53,
        "time": 32.5,
        "duration": 0.25,
        "velocity": 0.71,
        "hand": "left"
      },
      {
        "midi": 73,
        "time": 32.5,
        "duration": 0.125,
        "velocity": 0.71,
        "hand": "right"
      },
      {
        "midi": 72,
        "time": 32.625,
        "duration": 0.125,
        "velocity": 0.71,
        "hand": "right"
      },
      {
        "midi": 49,
        "time": 32.75,
        "duration": 0.25,
        "velocity": 0.71,
        "hand": "left"
      },
      {
        "midi": 71,
        "time": 32.75,
        "duration": 0.125,
        "velocity": 0.71,
        "hand": "right"
      },
      {
        "midi": 72,
        "time": 32.875,
        "duration": 0.125,
        "velocity": 0.71,
        "hand": "right"
      },
      {
        "midi": 52,
        "time": 33,
        "duration": 0.25,
        "velocity": 0.71,
        "hand": "left"
      },
      {
        "midi": 67,
        "time": 33,
        "duration": 0.125,
        "velocity": 0.71,
        "hand": "right"
      },
      {
        "midi": 72,
        "time": 33.125,
        "duration": 0.125,
        "velocity": 0.71,
        "hand": "right"
      },
      {
        "midi": 55,
        "time": 33.25,
        "duration": 0.25,
        "velocity": 0.71,
        "hand": "left"
      },
      {
        "midi": 71,
        "time": 33.25,
        "duration": 0.125,
        "velocity": 0.71,
        "hand": "right"
      },
      {
        "midi": 72,
        "time": 33.375,
        "duration": 0.125,
        "velocity": 0.71,
        "hand": "right"
      },
      {
        "midi": 51,
        "time": 33.5,
        "duration": 0.25,
        "velocity": 0.71,
        "hand": "left"
      },
      {
        "midi": 73,
        "time": 33.5,
        "duration": 0.125,
        "velocity": 0.71,
        "hand": "right"
      },
      {
        "midi": 72,
        "time": 33.625,
        "duration": 0.125,
        "velocity": 0.71,
        "hand": "right"
      },
      {
        "midi": 48,
        "time": 33.75,
        "duration": 0.25,
        "velocity": 0.71,
        "hand": "left"
      },
      {
        "midi": 71,
        "time": 33.75,
        "duration": 0.125,
        "velocity": 0.71,
        "hand": "right"
      },
      {
        "midi": 72,
        "time": 33.875,
        "duration": 0.125,
        "velocity": 0.71,
        "hand": "right"
      },
      {
        "midi": 50,
        "time": 34,
        "duration": 0.25,
        "velocity": 0.71,
        "hand": "left"
      },
      {
        "midi": 65,
        "time": 34,
        "duration": 0.125,
        "velocity": 0.71,
        "hand": "right"
      },
      {
        "midi": 72,
        "time": 34.125,
        "duration": 0.125,
        "velocity": 0.71,
        "hand": "right"
      },
      {
        "midi": 53,
        "time": 34.25,
        "duration": 0.25,
        "velocity": 0.71,
        "hand": "left"
      },
      {
        "midi": 74,
        "time": 34.25,
        "duration": 0.125,
        "velocity": 0.71,
        "hand": "right"
      },
      {
        "midi": 76,
        "time": 34.375,
        "duration": 0.125,
        "velocity": 0.71,
        "hand": "right"
      },
      {
        "midi": 49,
        "time": 34.5,
        "duration": 0.25,
        "velocity": 0.71,
        "hand": "left"
      },
      {
        "midi": 77,
        "time": 34.5,
        "duration": 0.125,
        "velocity": 0.71,
        "hand": "right"
      },
      {
        "midi": 70,
        "time": 34.625,
        "duration": 0.125,
        "velocity": 0.71,
        "hand": "right"
      },
      {
        "midi": 58,
        "time": 34.75,
        "duration": 0.25,
        "velocity": 0.71,
        "hand": "left"
      },
      {
        "midi": 69,
        "time": 34.75,
        "duration": 0.125,
        "velocity": 0.71,
        "hand": "right"
      },
      {
        "midi": 70,
        "time": 34.875,
        "duration": 0.125,
        "velocity": 0.71,
        "hand": "right"
      },
      {
        "midi": 48,
        "time": 35,
        "duration": 0.25,
        "velocity": 0.71,
        "hand": "left"
      },
      {
        "midi": 79,
        "time": 35,
        "duration": 0.125,
        "velocity": 0.71,
        "hand": "right"
      },
      {
        "midi": 77,
        "time": 35.125,
        "duration": 0.125,
        "velocity": 0.71,
        "hand": "right"
      },
      {
        "midi": 50,
        "time": 35.25,
        "duration": 0.25,
        "velocity": 0.71,
        "hand": "left"
      },
      {
        "midi": 76,
        "time": 35.25,
        "duration": 0.125,
        "velocity": 0.71,
        "hand": "right"
      },
      {
        "midi": 74,
        "time": 35.375,
        "duration": 0.125,
        "velocity": 0.71,
        "hand": "right"
      },
      {
        "midi": 52,
        "time": 35.5,
        "duration": 0.25,
        "velocity": 0.71,
        "hand": "left"
      },
      {
        "midi": 72,
        "time": 35.5,
        "duration": 0.125,
        "velocity": 0.71,
        "hand": "right"
      },
      {
        "midi": 70,
        "time": 35.625,
        "duration": 0.125,
        "velocity": 0.71,
        "hand": "right"
      },
      {
        "midi": 48,
        "time": 35.75,
        "duration": 0.25,
        "velocity": 0.71,
        "hand": "left"
      },
      {
        "midi": 68,
        "time": 35.75,
        "duration": 0.125,
        "velocity": 0.71,
        "hand": "right"
      },
      {
        "midi": 67,
        "time": 35.875,
        "duration": 0.125,
        "velocity": 0.71,
        "hand": "right"
      },
      {
        "midi": 53,
        "time": 36,
        "duration": 0.125,
        "velocity": 0.71,
        "hand": "left"
      },
      {
        "midi": 68,
        "time": 36,
        "duration": 0.125,
        "velocity": 0.71,
        "hand": "right"
      },
      {
        "midi": 56,
        "time": 36.125,
        "duration": 0.125,
        "velocity": 0.71,
        "hand": "left"
      },
      {
        "midi": 65,
        "time": 36.125,
        "duration": 0.125,
        "velocity": 0.71,
        "hand": "right"
      },
      {
        "midi": 55,
        "time": 36.25,
        "duration": 0.125,
        "velocity": 0.71,
        "hand": "left"
      },
      {
        "midi": 64,
        "time": 36.25,
        "duration": 0.125,
        "velocity": 0.71,
        "hand": "right"
      },
      {
        "midi": 56,
        "time": 36.375,
        "duration": 0.125,
        "velocity": 0.71,
        "hand": "left"
      },
      {
        "midi": 65,
        "time": 36.375,
        "duration": 0.125,
        "velocity": 0.71,
        "hand": "right"
      },
      {
        "midi": 51,
        "time": 36.5,
        "duration": 0.125,
        "velocity": 0.71,
        "hand": "left"
      },
      {
        "midi": 72,
        "time": 36.5,
        "duration": 0.125,
        "velocity": 0.71,
        "hand": "right"
      },
      {
        "midi": 60,
        "time": 36.625,
        "duration": 0.125,
        "velocity": 0.71,
        "hand": "right"
      },
      {
        "midi": 68,
        "time": 36.625,
        "duration": 0.125,
        "velocity": 0.71,
        "hand": "right"
      },
      {
        "midi": 58,
        "time": 36.75,
        "duration": 0.125,
        "velocity": 0.71,
        "hand": "left"
      },
      {
        "midi": 67,
        "time": 36.75,
        "duration": 0.125,
        "velocity": 0.71,
        "hand": "right"
      },
      {
        "midi": 60,
        "time": 36.875,
        "duration": 0.125,
        "velocity": 0.71,
        "hand": "right"
      },
      {
        "midi": 68,
        "time": 36.875,
        "duration": 0.125,
        "velocity": 0.71,
        "hand": "right"
      },
      {
        "midi": 49,
        "time": 37,
        "duration": 0.25,
        "velocity": 0.71,
        "hand": "left"
      },
      {
        "midi": 77,
        "time": 37,
        "duration": 0.125,
        "velocity": 0.71,
        "hand": "right"
      },
      {
        "midi": 75,
        "time": 37.125,
        "duration": 0.125,
        "velocity": 0.71,
        "hand": "right"
      },
      {
        "midi": 53,
        "time": 37.25,
        "duration": 0.25,
        "velocity": 0.71,
        "hand": "left"
      },
      {
        "midi": 73,
        "time": 37.25,
        "duration": 0.125,
        "velocity": 0.71,
        "hand": "right"
      },
      {
        "midi": 72,
        "time": 37.375,
        "duration": 0.125,
        "velocity": 0.71,
        "hand": "right"
      },
      {
        "midi": 58,
        "time": 37.5,
        "duration": 0.25,
        "velocity": 0.71,
        "hand": "left"
      },
      {
        "midi": 70,
        "time": 37.5,
        "duration": 0.125,
        "velocity": 0.71,
        "hand": "right"
      },
      {
        "midi": 68,
        "time": 37.625,
        "duration": 0.125,
        "velocity": 0.71,
        "hand": "right"
      },
      {
        "midi": 61,
        "time": 37.75,
        "duration": 0.25,
        "velocity": 0.71,
        "hand": "right"
      },
      {
        "midi": 67,
        "time": 37.75,
        "duration": 0.125,
        "velocity": 0.71,
        "hand": "right"
      },
      {
        "midi": 65,
        "time": 37.875,
        "duration": 0.125,
        "velocity": 0.71,
        "hand": "right"
      },
      {
        "midi": 51,
        "time": 38,
        "duration": 0.125,
        "velocity": 0.71,
        "hand": "left"
      },
      {
        "midi": 67,
        "time": 38,
        "duration": 0.125,
        "velocity": 0.71,
        "hand": "right"
      },
      {
        "midi": 55,
        "time": 38.125,
        "duration": 0.125,
        "velocity": 0.71,
        "hand": "left"
      },
      {
        "midi": 63,
        "time": 38.125,
        "duration": 0.125,
        "velocity": 0.71,
        "hand": "right"
      },
      {
        "midi": 53,
        "time": 38.25,
        "duration": 0.125,
        "velocity": 0.71,
        "hand": "left"
      },
      {
        "midi": 62,
        "time": 38.25,
        "duration": 0.125,
        "velocity": 0.71,
        "hand": "right"
      },
      {
        "midi": 55,
        "time": 38.375,
        "duration": 0.125,
        "velocity": 0.71,
        "hand": "left"
      },
      {
        "midi": 63,
        "time": 38.375,
        "duration": 0.125,
        "velocity": 0.71,
        "hand": "right"
      },
      {
        "midi": 49,
        "time": 38.5,
        "duration": 0.125,
        "velocity": 0.71,
        "hand": "left"
      },
      {
        "midi": 70,
        "time": 38.5,
        "duration": 0.125,
        "velocity": 0.71,
        "hand": "right"
      },
      {
        "midi": 58,
        "time": 38.625,
        "duration": 0.125,
        "velocity": 0.71,
        "hand": "left"
      },
      {
        "midi": 67,
        "time": 38.625,
        "duration": 0.125,
        "velocity": 0.71,
        "hand": "right"
      },
      {
        "midi": 56,
        "time": 38.75,
        "duration": 0.125,
        "velocity": 0.71,
        "hand": "left"
      },
      {
        "midi": 65,
        "time": 38.75,
        "duration": 0.125,
        "velocity": 0.71,
        "hand": "right"
      },
      {
        "midi": 58,
        "time": 38.875,
        "duration": 0.125,
        "velocity": 0.71,
        "hand": "left"
      },
      {
        "midi": 67,
        "time": 38.875,
        "duration": 0.125,
        "velocity": 0.71,
        "hand": "right"
      },
      {
        "midi": 48,
        "time": 39,
        "duration": 0.25,
        "velocity": 0.71,
        "hand": "left"
      },
      {
        "midi": 75,
        "time": 39,
        "duration": 0.125,
        "velocity": 0.71,
        "hand": "right"
      },
      {
        "midi": 73,
        "time": 39.125,
        "duration": 0.125,
        "velocity": 0.71,
        "hand": "right"
      },
      {
        "midi": 51,
        "time": 39.25,
        "duration": 0.25,
        "velocity": 0.71,
        "hand": "left"
      },
      {
        "midi": 72,
        "time": 39.25,
        "duration": 0.125,
        "velocity": 0.71,
        "hand": "right"
      },
      {
        "midi": 70,
        "time": 39.375,
        "duration": 0.125,
        "velocity": 0.71,
        "hand": "right"
      },
      {
        "midi": 56,
        "time": 39.5,
        "duration": 0.25,
        "velocity": 0.71,
        "hand": "left"
      },
      {
        "midi": 68,
        "time": 39.5,
        "duration": 0.125,
        "velocity": 0.71,
        "hand": "right"
      },
      {
        "midi": 67,
        "time": 39.625,
        "duration": 0.125,
        "velocity": 0.71,
        "hand": "right"
      },
      {
        "midi": 60,
        "time": 39.75,
        "duration": 0.25,
        "velocity": 0.71,
        "hand": "right"
      },
      {
        "midi": 65,
        "time": 39.75,
        "duration": 0.125,
        "velocity": 0.71,
        "hand": "right"
      },
      {
        "midi": 64,
        "time": 39.875,
        "duration": 0.125,
        "velocity": 0.71,
        "hand": "right"
      },
      {
        "midi": 49,
        "time": 40,
        "duration": 0.125,
        "velocity": 0.71,
        "hand": "left"
      },
      {
        "midi": 65,
        "time": 40,
        "duration": 0.25,
        "velocity": 0.71,
        "hand": "right"
      },
      {
        "midi": 53,
        "time": 40.125,
        "duration": 0.125,
        "velocity": 0.71,
        "hand": "left"
      },
      {
        "midi": 51,
        "time": 40.25,
        "duration": 0.125,
        "velocity": 0.71,
        "hand": "left"
      },
      {
        "midi": 69,
        "time": 40.25,
        "duration": 0.25,
        "velocity": 0.71,
        "hand": "right"
      },
      {
        "midi": 53,
        "time": 40.375,
        "duration": 0.125,
        "velocity": 0.71,
        "hand": "left"
      },
      {
        "midi": 54,
        "time": 40.5,
        "duration": 0.125,
        "velocity": 0.71,
        "hand": "left"
      },
      {
        "midi": 70,
        "time": 40.5,
        "duration": 0.25,
        "velocity": 0.71,
        "hand": "right"
      },
      {
        "midi": 53,
        "time": 40.625,
        "duration": 0.125,
        "velocity": 0.71,
        "hand": "left"
      },
      {
        "midi": 51,
        "time": 40.75,
        "duration": 0.125,
        "velocity": 0.71,
        "hand": "left"
      },
      {
        "midi": 72,
        "time": 40.75,
        "duration": 0.25,
        "velocity": 0.71,
        "hand": "right"
      },
      {
        "midi": 53,
        "time": 40.875,
        "duration": 0.125,
        "velocity": 0.71,
        "hand": "left"
      },
      {
        "midi": 46,
        "time": 41,
        "duration": 0.125,
        "velocity": 0.71,
        "hand": "left"
      },
      {
        "midi": 73,
        "time": 41,
        "duration": 0.25,
        "velocity": 0.71,
        "hand": "right"
      },
      {
        "midi": 53,
        "time": 41.125,
        "duration": 0.125,
        "velocity": 0.71,
        "hand": "left"
      },
      {
        "midi": 55,
        "time": 41.25,
        "duration": 0.125,
        "velocity": 0.71,
        "hand": "left"
      },
      {
        "midi": 76,
        "time": 41.25,
        "duration": 0.25,
        "velocity": 0.71,
        "hand": "right"
      },
      {
        "midi": 56,
        "time": 41.375,
        "duration": 0.125,
        "velocity": 0.71,
        "hand": "left"
      },
      {
        "midi": 55,
        "time": 41.5,
        "duration": 0.125,
        "velocity": 0.71,
        "hand": "left"
      },
      {
        "midi": 77,
        "time": 41.5,
        "duration": 0.25,
        "velocity": 0.71,
        "hand": "right"
      },
      {
        "midi": 53,
        "time": 41.625,
        "duration": 0.125,
        "velocity": 0.71,
        "hand": "left"
      },
      {
        "midi": 52,
        "time": 41.75,
        "duration": 0.125,
        "velocity": 0.71,
        "hand": "left"
      },
      {
        "midi": 79,
        "time": 41.75,
        "duration": 0.25,
        "velocity": 0.71,
        "hand": "right"
      },
      {
        "midi": 53,
        "time": 41.875,
        "duration": 0.125,
        "velocity": 0.71,
        "hand": "left"
      },
      {
        "midi": 44,
        "time": 42,
        "duration": 0.25,
        "velocity": 0.71,
        "hand": "left"
      },
      {
        "midi": 72,
        "time": 42,
        "duration": 0.125,
        "velocity": 0.71,
        "hand": "right"
      },
      {
        "midi": 76,
        "time": 42.125,
        "duration": 0.125,
        "velocity": 0.71,
        "hand": "right"
      },
      {
        "midi": 41,
        "time": 42.25,
        "duration": 0.25,
        "velocity": 0.71,
        "hand": "left"
      },
      {
        "midi": 77,
        "time": 42.25,
        "duration": 0.125,
        "velocity": 0.71,
        "hand": "right"
      },
      {
        "midi": 80,
        "time": 42.375,
        "duration": 0.125,
        "velocity": 0.71,
        "hand": "right"
      },
      {
        "midi": 48,
        "time": 42.5,
        "duration": 0.25,
        "velocity": 0.71,
        "hand": "left"
      },
      {
        "midi": 70,
        "time": 42.5,
        "duration": 0.125,
        "velocity": 0.71,
        "hand": "right"
      },
      {
        "midi": 79,
        "time": 42.625,
        "duration": 0.125,
        "velocity": 0.71,
        "hand": "right"
      },
      {
        "midi": 36,
        "time": 42.75,
        "duration": 0.25,
        "velocity": 0.71,
        "hand": "left"
      },
      {
        "midi": 77,
        "time": 42.75,
        "duration": 0.125,
        "velocity": 0.71,
        "hand": "right"
      },
      {
        "midi": 76,
        "time": 42.875,
        "duration": 0.125,
        "velocity": 0.71,
        "hand": "right"
      },
      {
        "midi": 41,
        "time": 43,
        "duration": 0.25,
        "velocity": 0.71,
        "hand": "left"
      },
      {
        "midi": 68,
        "time": 43,
        "duration": 0.125,
        "velocity": 0.71,
        "hand": "right"
      },
      {
        "midi": 72,
        "time": 43.125,
        "duration": 0.125,
        "velocity": 0.71,
        "hand": "right"
      },
      {
        "midi": 44,
        "time": 43.25,
        "duration": 0.25,
        "velocity": 0.71,
        "hand": "left"
      },
      {
        "midi": 76,
        "time": 43.25,
        "duration": 0.125,
        "velocity": 0.71,
        "hand": "right"
      },
      {
        "midi": 77,
        "time": 43.375,
        "duration": 0.125,
        "velocity": 0.71,
        "hand": "right"
      },
      {
        "midi": 46,
        "time": 43.5,
        "duration": 0.25,
        "velocity": 0.71,
        "hand": "left"
      },
      {
        "midi": 67,
        "time": 43.5,
        "duration": 0.125,
        "velocity": 0.71,
        "hand": "right"
      },
      {
        "midi": 73,
        "time": 43.625,
        "duration": 0.125,
        "velocity": 0.71,
        "hand": "right"
      },
      {
        "midi": 48,
        "time": 43.75,
        "duration": 0.25,
        "velocity": 0.71,
        "hand": "left"
      },
      {
        "midi": 72,
        "time": 43.75,
        "duration": 0.125,
        "velocity": 0.71,
        "hand": "right"
      },
      {
        "midi": 70,
        "time": 43.875,
        "duration": 0.125,
        "velocity": 0.71,
        "hand": "right"
      },
      {
        "midi": 53,
        "time": 44,
        "duration": 0.25,
        "velocity": 0.71,
        "hand": "left"
      },
      {
        "midi": 68,
        "time": 44,
        "duration": 0.125,
        "velocity": 0.71,
        "hand": "right"
      },
      {
        "midi": 67,
        "time": 44.125,
        "duration": 0.125,
        "velocity": 0.71,
        "hand": "right"
      },
      {
        "midi": 55,
        "time": 44.25,
        "duration": 0.25,
        "velocity": 0.71,
        "hand": "left"
      },
      {
        "midi": 65,
        "time": 44.25,
        "duration": 0.125,
        "velocity": 0.71,
        "hand": "right"
      },
      {
        "midi": 64,
        "time": 44.375,
        "duration": 0.125,
        "velocity": 0.71,
        "hand": "right"
      },
      {
        "midi": 56,
        "time": 44.5,
        "duration": 0.25,
        "velocity": 0.71,
        "hand": "left"
      },
      {
        "midi": 65,
        "time": 44.5,
        "duration": 0.125,
        "velocity": 0.71,
        "hand": "right"
      },
      {
        "midi": 68,
        "time": 44.625,
        "duration": 0.125,
        "velocity": 0.71,
        "hand": "right"
      },
      {
        "midi": 53,
        "time": 44.75,
        "duration": 0.25,
        "velocity": 0.71,
        "hand": "left"
      },
      {
        "midi": 60,
        "time": 44.75,
        "duration": 0.125,
        "velocity": 0.71,
        "hand": "right"
      },
      {
        "midi": 63,
        "time": 44.875,
        "duration": 0.125,
        "velocity": 0.71,
        "hand": "right"
      },
      {
        "midi": 58,
        "time": 45,
        "duration": 0.25,
        "velocity": 0.71,
        "hand": "left"
      },
      {
        "midi": 62,
        "time": 45,
        "duration": 0.125,
        "velocity": 0.71,
        "hand": "right"
      },
      {
        "midi": 68,
        "time": 45.125,
        "duration": 0.125,
        "velocity": 0.71,
        "hand": "right"
      },
      {
        "midi": 46,
        "time": 45.25,
        "duration": 0.25,
        "velocity": 0.71,
        "hand": "left"
      },
      {
        "midi": 65,
        "time": 45.25,
        "duration": 0.125,
        "velocity": 0.71,
        "hand": "right"
      },
      {
        "midi": 62,
        "time": 45.375,
        "duration": 0.125,
        "velocity": 0.71,
        "hand": "right"
      },
      {
        "midi": 58,
        "time": 45.5,
        "duration": 0.125,
        "velocity": 0.71,
        "hand": "left"
      },
      {
        "midi": 56,
        "time": 45.625,
        "duration": 0.125,
        "velocity": 0.71,
        "hand": "left"
      },
      {
        "midi": 55,
        "time": 45.75,
        "duration": 0.125,
        "velocity": 0.71,
        "hand": "left"
      },
      {
        "midi": 53,
        "time": 45.875,
        "duration": 0.125,
        "velocity": 0.71,
        "hand": "left"
      },
      {
        "midi": 51,
        "time": 46,
        "duration": 0.25,
        "velocity": 0.71,
        "hand": "left"
      },
      {
        "midi": 67,
        "time": 46,
        "duration": 0.125,
        "velocity": 0.71,
        "hand": "right"
      },
      {
        "midi": 65,
        "time": 46.125,
        "duration": 0.125,
        "velocity": 0.71,
        "hand": "right"
      },
      {
        "midi": 53,
        "time": 46.25,
        "duration": 0.25,
        "velocity": 0.71,
        "hand": "left"
      },
      {
        "midi": 63,
        "time": 46.25,
        "duration": 0.125,
        "velocity": 0.71,
        "hand": "right"
      },
      {
        "midi": 62,
        "time": 46.375,
        "duration": 0.125,
        "velocity": 0.71,
        "hand": "right"
      },
      {
        "midi": 55,
        "time": 46.5,
        "duration": 0.25,
        "velocity": 0.71,
        "hand": "left"
      },
      {
        "midi": 63,
        "time": 46.5,
        "duration": 0.125,
        "velocity": 0.71,
        "hand": "right"
      },
      {
        "midi": 67,
        "time": 46.625,
        "duration": 0.125,
        "velocity": 0.71,
        "hand": "right"
      },
      {
        "midi": 51,
        "time": 46.75,
        "duration": 0.25,
        "velocity": 0.71,
        "hand": "left"
      },
      {
        "midi": 59,
        "time": 46.75,
        "duration": 0.125,
        "velocity": 0.71,
        "hand": "left"
      },
      {
        "midi": 62,
        "time": 46.875,
        "duration": 0.125,
        "velocity": 0.71,
        "hand": "right"
      },
      {
        "midi": 56,
        "time": 47,
        "duration": 0.25,
        "velocity": 0.71,
        "hand": "left"
      },
      {
        "midi": 60,
        "time": 47,
        "duration": 0.125,
        "velocity": 0.71,
        "hand": "right"
      },
      {
        "midi": 67,
        "time": 47.125,
        "duration": 0.125,
        "velocity": 0.71,
        "hand": "right"
      },
      {
        "midi": 44,
        "time": 47.25,
        "duration": 0.25,
        "velocity": 0.71,
        "hand": "left"
      },
      {
        "midi": 63,
        "time": 47.25,
        "duration": 0.125,
        "velocity": 0.71,
        "hand": "right"
      },
      {
        "midi": 60,
        "time": 47.375,
        "duration": 0.125,
        "velocity": 0.71,
        "hand": "right"
      },
      {
        "midi": 56,
        "time": 47.5,
        "duration": 0.125,
        "velocity": 0.71,
        "hand": "left"
      },
      {
        "midi": 55,
        "time": 47.625,
        "duration": 0.125,
        "velocity": 0.71,
        "hand": "left"
      },
      {
        "midi": 53,
        "time": 47.75,
        "duration": 0.125,
        "velocity": 0.71,
        "hand": "left"
      },
      {
        "midi": 51,
        "time": 47.875,
        "duration": 0.125,
        "velocity": 0.71,
        "hand": "left"
      },
      {
        "midi": 50,
        "time": 48,
        "duration": 0.25,
        "velocity": 0.71,
        "hand": "left"
      },
      {
        "midi": 65,
        "time": 48,
        "duration": 0.125,
        "velocity": 0.71,
        "hand": "right"
      },
      {
        "midi": 63,
        "time": 48.125,
        "duration": 0.125,
        "velocity": 0.71,
        "hand": "right"
      },
      {
        "midi": 51,
        "time": 48.25,
        "duration": 0.25,
        "velocity": 0.71,
        "hand": "left"
      },
      {
        "midi": 62,
        "time": 48.25,
        "duration": 0.125,
        "velocity": 0.71,
        "hand": "right"
      },
      {
        "midi": 60,
        "time": 48.375,
        "duration": 0.125,
        "velocity": 0.71,
        "hand": "right"
      },
      {
        "midi": 53,
        "time": 48.5,
        "duration": 0.25,
        "velocity": 0.71,
        "hand": "left"
      },
      {
        "midi": 62,
        "time": 48.5,
        "duration": 0.125,
        "velocity": 0.71,
        "hand": "right"
      },
      {
        "midi": 65,
        "time": 48.625,
        "duration": 0.125,
        "velocity": 0.71,
        "hand": "right"
      },
      {
        "midi": 50,
        "time": 48.75,
        "duration": 0.25,
        "velocity": 0.71,
        "hand": "left"
      },
      {
        "midi": 68,
        "time": 48.75,
        "duration": 0.125,
        "velocity": 0.71,
        "hand": "right"
      },
      {
        "midi": 60,
        "time": 48.875,
        "duration": 0.125,
        "velocity": 0.71,
        "hand": "right"
      },
      {
        "midi": 55,
        "time": 49,
        "duration": 0.25,
        "velocity": 0.71,
        "hand": "left"
      },
      {
        "midi": 59,
        "time": 49,
        "duration": 0.125,
        "velocity": 0.71,
        "hand": "left"
      },
      {
        "midi": 65,
        "time": 49.125,
        "duration": 0.125,
        "velocity": 0.71,
        "hand": "right"
      },
      {
        "midi": 43,
        "time": 49.25,
        "duration": 0.25,
        "velocity": 0.71,
        "hand": "left"
      },
      {
        "midi": 62,
        "time": 49.25,
        "duration": 0.125,
        "velocity": 0.71,
        "hand": "right"
      },
      {
        "midi": 59,
        "time": 49.375,
        "duration": 0.125,
        "velocity": 0.71,
        "hand": "left"
      },
      {
        "midi": 55,
        "time": 49.5,
        "duration": 0.125,
        "velocity": 0.71,
        "hand": "left"
      },
      {
        "midi": 53,
        "time": 49.625,
        "duration": 0.125,
        "velocity": 0.71,
        "hand": "left"
      },
      {
        "midi": 59,
        "time": 49.625,
        "duration": 0.125,
        "velocity": 0.71,
        "hand": "left"
      },
      {
        "midi": 51,
        "time": 49.75,
        "duration": 0.125,
        "velocity": 0.71,
        "hand": "left"
      },
      {
        "midi": 60,
        "time": 49.75,
        "duration": 0.125,
        "velocity": 0.71,
        "hand": "right"
      },
      {
        "midi": 50,
        "time": 49.875,
        "duration": 0.125,
        "velocity": 0.71,
        "hand": "left"
      },
      {
        "midi": 62,
        "time": 49.875,
        "duration": 0.125,
        "velocity": 0.71,
        "hand": "right"
      },
      {
        "midi": 48,
        "time": 50,
        "duration": 0.125,
        "velocity": 0.71,
        "hand": "left"
      },
      {
        "midi": 63,
        "time": 50,
        "duration": 0.625,
        "velocity": 0.71,
        "hand": "right"
      },
      {
        "midi": 50,
        "time": 50.125,
        "duration": 0.125,
        "velocity": 0.71,
        "hand": "left"
      },
      {
        "midi": 51,
        "time": 50.25,
        "duration": 0.125,
        "velocity": 0.71,
        "hand": "left"
      },
      {
        "midi": 67,
        "time": 50.25,
        "duration": 0.25,
        "velocity": 0.71,
        "hand": "right"
      },
      {
        "midi": 48,
        "time": 50.375,
        "duration": 0.125,
        "velocity": 0.71,
        "hand": "left"
      },
      {
        "midi": 44,
        "time": 50.5,
        "duration": 0.125,
        "velocity": 0.71,
        "hand": "left"
      },
      {
        "midi": 72,
        "time": 50.5,
        "duration": 1.125,
        "velocity": 0.71,
        "hand": "right"
      },
      {
        "midi": 55,
        "time": 50.625,
        "duration": 0.125,
        "velocity": 0.71,
        "hand": "left"
      },
      {
        "midi": 70,
        "time": 50.625,
        "duration": 0.125,
        "velocity": 0.71,
        "hand": "right"
      },
      {
        "midi": 53,
        "time": 50.75,
        "duration": 0.125,
        "velocity": 0.71,
        "hand": "left"
      },
      {
        "midi": 68,
        "time": 50.75,
        "duration": 0.125,
        "velocity": 0.71,
        "hand": "right"
      },
      {
        "midi": 51,
        "time": 50.875,
        "duration": 0.125,
        "velocity": 0.71,
        "hand": "left"
      },
      {
        "midi": 67,
        "time": 50.875,
        "duration": 0.125,
        "velocity": 0.71,
        "hand": "right"
      },
      {
        "midi": 50,
        "time": 51,
        "duration": 0.125,
        "velocity": 0.71,
        "hand": "left"
      },
      {
        "midi": 65,
        "time": 51,
        "duration": 0.125,
        "velocity": 0.71,
        "hand": "right"
      },
      {
        "midi": 51,
        "time": 51.125,
        "duration": 0.125,
        "velocity": 0.71,
        "hand": "left"
      },
      {
        "midi": 67,
        "time": 51.125,
        "duration": 0.125,
        "velocity": 0.71,
        "hand": "right"
      },
      {
        "midi": 53,
        "time": 51.25,
        "duration": 0.125,
        "velocity": 0.71,
        "hand": "left"
      },
      {
        "midi": 68,
        "time": 51.25,
        "duration": 0.125,
        "velocity": 0.71,
        "hand": "right"
      },
      {
        "midi": 50,
        "time": 51.375,
        "duration": 0.125,
        "velocity": 0.71,
        "hand": "left"
      },
      {
        "midi": 65,
        "time": 51.375,
        "duration": 0.125,
        "velocity": 0.71,
        "hand": "right"
      },
      {
        "midi": 46,
        "time": 51.5,
        "duration": 0.125,
        "velocity": 0.71,
        "hand": "left"
      },
      {
        "midi": 62,
        "time": 51.5,
        "duration": 0.25,
        "velocity": 0.71,
        "hand": "right"
      },
      {
        "midi": 56,
        "time": 51.625,
        "duration": 0.125,
        "velocity": 0.71,
        "hand": "left"
      },
      {
        "midi": 72,
        "time": 51.625,
        "duration": 0.125,
        "velocity": 0.71,
        "hand": "right"
      },
      {
        "midi": 55,
        "time": 51.75,
        "duration": 0.125,
        "velocity": 0.71,
        "hand": "left"
      },
      {
        "midi": 70,
        "time": 51.75,
        "duration": 0.125,
        "velocity": 0.71,
        "hand": "right"
      },
      {
        "midi": 53,
        "time": 51.875,
        "duration": 0.125,
        "velocity": 0.71,
        "hand": "left"
      },
      {
        "midi": 68,
        "time": 51.875,
        "duration": 0.125,
        "velocity": 0.71,
        "hand": "right"
      },
      {
        "midi": 51,
        "time": 52,
        "duration": 0.25,
        "velocity": 0.71,
        "hand": "left"
      },
      {
        "midi": 67,
        "time": 52,
        "duration": 0.125,
        "velocity": 0.71,
        "hand": "right"
      },
      {
        "midi": 68,
        "time": 52.125,
        "duration": 0.125,
        "velocity": 0.71,
        "hand": "right"
      },
      {
        "midi": 50,
        "time": 52.25,
        "duration": 0.25,
        "velocity": 0.71,
        "hand": "left"
      },
      {
        "midi": 70,
        "time": 52.25,
        "duration": 0.125,
        "velocity": 0.71,
        "hand": "right"
      },
      {
        "midi": 67,
        "time": 52.375,
        "duration": 0.125,
        "velocity": 0.71,
        "hand": "right"
      },
      {
        "midi": 51,
        "time": 52.5,
        "duration": 0.25,
        "velocity": 0.71,
        "hand": "left"
      },
      {
        "midi": 60,
        "time": 52.5,
        "duration": 0.125,
        "velocity": 0.71,
        "hand": "right"
      },
      {
        "midi": 73,
        "time": 52.625,
        "duration": 0.125,
        "velocity": 0.71,
        "hand": "right"
      },
      {
        "midi": 52,
        "time": 52.75,
        "duration": 0.25,
        "velocity": 0.71,
        "hand": "left"
      },
      {
        "midi": 72,
        "time": 52.75,
        "duration": 0.125,
        "velocity": 0.71,
        "hand": "right"
      },
      {
        "midi": 70,
        "time": 52.875,
        "duration": 0.125,
        "velocity": 0.71,
        "hand": "right"
      },
      {
        "midi": 53,
        "time": 53,
        "duration": 0.25,
        "velocity": 0.71,
        "hand": "left"
      },
      {
        "midi": 68,
        "time": 53,
        "duration": 0.125,
        "velocity": 0.71,
        "hand": "right"
      },
      {
        "midi": 70,
        "time": 53.125,
        "duration": 0.125,
        "velocity": 0.71,
        "hand": "right"
      },
      {
        "midi": 52,
        "time": 53.25,
        "duration": 0.25,
        "velocity": 0.71,
        "hand": "left"
      },
      {
        "midi": 72,
        "time": 53.25,
        "duration": 0.125,
        "velocity": 0.71,
        "hand": "right"
      },
      {
        "midi": 68,
        "time": 53.375,
        "duration": 0.125,
        "velocity": 0.71,
        "hand": "right"
      },
      {
        "midi": 53,
        "time": 53.5,
        "duration": 0.25,
        "velocity": 0.71,
        "hand": "left"
      },
      {
        "midi": 62,
        "time": 53.5,
        "duration": 0.125,
        "velocity": 0.71,
        "hand": "right"
      },
      {
        "midi": 75,
        "time": 53.625,
        "duration": 0.125,
        "velocity": 0.71,
        "hand": "right"
      },
      {
        "midi": 54,
        "time": 53.75,
        "duration": 0.25,
        "velocity": 0.71,
        "hand": "left"
      },
      {
        "midi": 74,
        "time": 53.75,
        "duration": 0.125,
        "velocity": 0.71,
        "hand": "right"
      },
      {
        "midi": 72,
        "time": 53.875,
        "duration": 0.125,
        "velocity": 0.71,
        "hand": "right"
      },
      {
        "midi": 55,
        "time": 54,
        "duration": 0.125,
        "velocity": 0.71,
        "hand": "left"
      },
      {
        "midi": 71,
        "time": 54,
        "duration": 0.125,
        "velocity": 0.71,
        "hand": "right"
      },
      {
        "midi": 53,
        "time": 54.125,
        "duration": 0.125,
        "velocity": 0.71,
        "hand": "left"
      },
      {
        "midi": 67,
        "time": 54.125,
        "duration": 0.125,
        "velocity": 0.71,
        "hand": "right"
      },
      {
        "midi": 51,
        "time": 54.25,
        "duration": 0.125,
        "velocity": 0.71,
        "hand": "left"
      },
      {
        "midi": 72,
        "time": 54.25,
        "duration": 0.5,
        "velocity": 0.71,
        "hand": "right"
      },
      {
        "midi": 53,
        "time": 54.375,
        "duration": 0.125,
        "velocity": 0.71,
        "hand": "left"
      },
      {
        "midi": 74,
        "time": 54.375,
        "duration": 0.125,
        "velocity": 0.71,
        "hand": "right"
      },
      {
        "midi": 55,
        "time": 54.5,
        "duration": 0.25,
        "velocity": 0.71,
        "hand": "left"
      },
      {
        "midi": 75,
        "time": 54.5,
        "duration": 0.25,
        "velocity": 0.71,
        "hand": "right"
      },
      {
        "midi": 67,
        "time": 54.625,
        "duration": 0.25,
        "velocity": 0.71,
        "hand": "right"
      },
      {
        "midi": 43,
        "time": 54.75,
        "duration": 0.25,
        "velocity": 0.71,
        "hand": "left"
      },
      {
        "midi": 71,
        "time": 54.75,
        "duration": 0.25,
        "velocity": 0.71,
        "hand": "right"
      },
      {
        "midi": 74,
        "time": 54.75,
        "duration": 0.25,
        "velocity": 0.71,
        "hand": "right"
      },
      {
        "midi": 65,
        "time": 54.875,
        "duration": 0.125,
        "velocity": 0.71,
        "hand": "right"
      },
      {
        "midi": 36,
        "time": 55,
        "duration": 0.125,
        "velocity": 0.71,
        "hand": "left"
      },
      {
        "midi": 67,
        "time": 55,
        "duration": 1,
        "velocity": 0.71,
        "hand": "right"
      },
      {
        "midi": 72,
        "time": 55,
        "duration": 1,
        "velocity": 0.71,
        "hand": "right"
      },
      {
        "midi": 48,
        "time": 55.125,
        "duration": 0.125,
        "velocity": 0.71,
        "hand": "left"
      },
      {
        "midi": 51,
        "time": 55.25,
        "duration": 0.125,
        "velocity": 0.71,
        "hand": "left"
      },
      {
        "midi": 55,
        "time": 55.375,
        "duration": 0.125,
        "velocity": 0.71,
        "hand": "left"
      },
      {
        "midi": 60,
        "time": 55.5,
        "duration": 0.5,
        "velocity": 0.71,
        "hand": "right"
      }
    ],
    "hard": [
      {
        "midi": 48,
        "time": 0,
        "duration": 0.25,
        "velocity": 0.71,
        "hand": "left"
      },
      {
        "midi": 67,
        "time": 0.125,
        "duration": 0.125,
        "velocity": 0.71,
        "hand": "right"
      },
      {
        "midi": 60,
        "time": 0.25,
        "duration": 0.25,
        "velocity": 0.71,
        "hand": "right"
      },
      {
        "midi": 65,
        "time": 0.25,
        "duration": 0.125,
        "velocity": 0.71,
        "hand": "right"
      },
      {
        "midi": 67,
        "time": 0.375,
        "duration": 0.125,
        "velocity": 0.71,
        "hand": "right"
      },
      {
        "midi": 53,
        "time": 0.5,
        "duration": 0.25,
        "velocity": 0.71,
        "hand": "left"
      },
      {
        "midi": 68,
        "time": 0.5,
        "duration": 0.125,
        "velocity": 0.71,
        "hand": "right"
      },
      {
        "midi": 65,
        "time": 0.625,
        "duration": 0.125,
        "velocity": 0.71,
        "hand": "right"
      },
      {
        "midi": 60,
        "time": 0.75,
        "duration": 0.25,
        "velocity": 0.71,
        "hand": "right"
      },
      {
        "midi": 63,
        "time": 0.75,
        "duration": 0.125,
        "velocity": 0.71,
        "hand": "right"
      },
      {
        "midi": 65,
        "time": 0.875,
        "duration": 0.125,
        "velocity": 0.71,
        "hand": "right"
      },
      {
        "midi": 51,
        "time": 1,
        "duration": 0.25,
        "velocity": 0.71,
        "hand": "left"
      },
      {
        "midi": 67,
        "time": 1,
        "duration": 0.125,
        "velocity": 0.71,
        "hand": "right"
      },
      {
        "midi": 63,
        "time": 1.125,
        "duration": 0.125,
        "velocity": 0.71,
        "hand": "right"
      },
      {
        "midi": 60,
        "time": 1.25,
        "duration": 0.25,
        "velocity": 0.71,
        "hand": "right"
      },
      {
        "midi": 62,
        "time": 1.25,
        "duration": 0.125,
        "velocity": 0.71,
        "hand": "right"
      },
      {
        "midi": 63,
        "time": 1.375,
        "duration": 0.125,
        "velocity": 0.71,
        "hand": "right"
      },
      {
        "midi": 50,
        "time": 1.5,
        "duration": 0.25,
        "velocity": 0.71,
        "hand": "left"
      },
      {
        "midi": 65,
        "time": 1.5,
        "duration": 0.125,
        "velocity": 0.71,
        "hand": "right"
      },
      {
        "midi": 62,
        "time": 1.625,
        "duration": 0.125,
        "velocity": 0.71,
        "hand": "right"
      },
      {
        "midi": 59,
        "time": 1.75,
        "duration": 0.25,
        "velocity": 0.71,
        "hand": "left"
      },
      {
        "midi": 60,
        "time": 1.75,
        "duration": 0.125,
        "velocity": 0.71,
        "hand": "right"
      },
      {
        "midi": 62,
        "time": 1.875,
        "duration": 0.125,
        "velocity": 0.71,
        "hand": "right"
      },
      {
        "midi": 48,
        "time": 2,
        "duration": 0.125,
        "velocity": 0.71,
        "hand": "left"
      },
      {
        "midi": 63,
        "time": 2,
        "duration": 0.25,
        "velocity": 0.71,
        "hand": "right"
      },
      {
        "midi": 55,
        "time": 2.125,
        "duration": 0.125,
        "velocity": 0.71,
        "hand": "left"
      },
      {
        "midi": 53,
        "time": 2.25,
        "duration": 0.125,
        "velocity": 0.71,
        "hand": "left"
      },
      {
        "midi": 72,
        "time": 2.25,
        "duration": 0.25,
        "velocity": 0.71,
        "hand": "right"
      },
      {
        "midi": 55,
        "time": 2.375,
        "duration": 0.125,
        "velocity": 0.71,
        "hand": "left"
      },
      {
        "midi": 56,
        "time": 2.5,
        "duration": 0.125,
        "velocity": 0.71,
        "hand": "left"
      },
      {
        "midi": 65,
        "time": 2.5,
        "duration": 0.25,
        "velocity": 0.71,
        "hand": "right"
      },
      {
        "midi": 53,
        "time": 2.625,
        "duration": 0.125,
        "velocity": 0.71,
        "hand": "left"
      },
      {
        "midi": 51,
        "time": 2.75,
        "duration": 0.125,
        "velocity": 0.71,
        "hand": "left"
      },
      {
        "midi": 72,
        "time": 2.75,
        "duration": 0.25,
        "velocity": 0.71,
        "hand": "right"
      },
      {
        "midi": 53,
        "time": 2.875,
        "duration": 0.125,
        "velocity": 0.71,
        "hand": "left"
      },
      {
        "midi": 55,
        "time": 3,
        "duration": 0.125,
        "velocity": 0.71,
        "hand": "left"
      },
      {
        "midi": 63,
        "time": 3,
        "duration": 0.25,
        "velocity": 0.71,
        "hand": "right"
      },
      {
        "midi": 51,
        "time": 3.125,
        "duration": 0.125,
        "velocity": 0.71,
        "hand": "left"
      },
      {
        "midi": 50,
        "time": 3.25,
        "duration": 0.125,
        "velocity": 0.71,
        "hand": "left"
      },
      {
        "midi": 72,
        "time": 3.25,
        "duration": 0.25,
        "velocity": 0.71,
        "hand": "right"
      },
      {
        "midi": 51,
        "time": 3.375,
        "duration": 0.125,
        "velocity": 0.71,
        "hand": "left"
      },
      {
        "midi": 53,
        "time": 3.5,
        "duration": 0.125,
        "velocity": 0.71,
        "hand": "left"
      },
      {
        "midi": 62,
        "time": 3.5,
        "duration": 0.25,
        "velocity": 0.71,
        "hand": "right"
      },
      {
        "midi": 50,
        "time": 3.625,
        "duration": 0.125,
        "velocity": 0.71,
        "hand": "left"
      },
      {
        "midi": 48,
        "time": 3.75,
        "duration": 0.125,
        "velocity": 0.71,
        "hand": "left"
      },
      {
        "midi": 71,
        "time": 3.75,
        "duration": 0.25,
        "velocity": 0.71,
        "hand": "right"
      },
      {
        "midi": 50,
        "time": 3.875,
        "duration": 0.125,
        "velocity": 0.71,
        "hand": "left"
      },
      {
        "midi": 51,
        "time": 4,
        "duration": 0.25,
        "velocity": 0.71,
        "hand": "left"
      },
      {
        "midi": 60,
        "time": 4,
        "duration": 0.125,
        "velocity": 0.71,
        "hand": "right"
      },
      {
        "midi": 63,
        "time": 4.125,
        "duration": 0.125,
        "velocity": 0.71,
        "hand": "right"
      },
      {
        "midi": 48,
        "time": 4.25,
        "duration": 0.25,
        "velocity": 0.71,
        "hand": "left"
      },
      {
        "midi": 67,
        "time": 4.25,
        "duration": 0.125,
        "velocity": 0.71,
        "hand": "right"
      },
      {
        "midi": 72,
        "time": 4.375,
        "duration": 0.125,
        "velocity": 0.71,
        "hand": "right"
      },
      {
        "midi": 53,
        "time": 4.5,
        "duration": 0.25,
        "velocity": 0.71,
        "hand": "left"
      },
      {
        "midi": 62,
        "time": 4.5,
        "duration": 0.125,
        "velocity": 0.71,
        "hand": "right"
      },
      {
        "midi": 72,
        "time": 4.625,
        "duration": 0.125,
        "velocity": 0.71,
        "hand": "right"
      },
      {
        "midi": 50,
        "time": 4.75,
        "duration": 0.25,
        "velocity": 0.71,
        "hand": "left"
      },
      {
        "midi": 71,
        "time": 4.75,
        "duration": 0.125,
        "velocity": 0.71,
        "hand": "right"
      },
      {
        "midi": 69,
        "time": 4.875,
        "duration": 0.125,
        "velocity": 0.71,
        "hand": "right"
      },
      {
        "midi": 55,
        "time": 5,
        "duration": 0.25,
        "velocity": 0.71,
        "hand": "left"
      },
      {
        "midi": 62,
        "time": 5,
        "duration": 0.125,
        "velocity": 0.71,
        "hand": "right"
      },
      {
        "midi": 67,
        "time": 5.125,
        "duration": 0.125,
        "velocity": 0.71,
        "hand": "right"
      },
      {
        "midi": 53,
        "time": 5.25,
        "duration": 0.25,
        "velocity": 0.71,
        "hand": "left"
      },
      {
        "midi": 71,
        "time": 5.25,
        "duration": 0.125,
        "velocity": 0.71,
        "hand": "right"
      },
      {
        "midi": 74,
        "time": 5.375,
        "duration": 0.125,
        "velocity": 0.71,
        "hand": "right"
      },
      {
        "midi": 55,
        "time": 5.5,
        "duration": 0.25,
        "velocity": 0.71,
        "hand": "left"
      },
      {
        "midi": 63,
        "time": 5.5,
        "duration": 0.125,
        "velocity": 0.71,
        "hand": "right"
      },
      {
        "midi": 74,
        "time": 5.625,
        "duration": 0.125,
        "velocity": 0.71,
        "hand": "right"
      },
      {
        "midi": 51,
        "time": 5.75,
        "duration": 0.25,
        "velocity": 0.71,
        "hand": "left"
      },
      {
        "midi": 72,
        "time": 5.75,
        "duration": 0.125,
        "velocity": 0.71,
        "hand": "right"
      },
      {
        "midi": 71,
        "time": 5.875,
        "duration": 0.125,
        "velocity": 0.71,
        "hand": "right"
      },
      {
        "midi": 56,
        "time": 6,
        "duration": 0.25,
        "velocity": 0.71,
        "hand": "left"
      },
      {
        "midi": 63,
        "time": 6,
        "duration": 0.125,
        "velocity": 0.71,
        "hand": "right"
      },
      {
        "midi": 68,
        "time": 6.125,
        "duration": 0.125,
        "velocity": 0.71,
        "hand": "right"
      },
      {
        "midi": 55,
        "time": 6.25,
        "duration": 0.25,
        "velocity": 0.71,
        "hand": "left"
      },
      {
        "midi": 72,
        "time": 6.25,
        "duration": 0.125,
        "velocity": 0.71,
        "hand": "right"
      },
      {
        "midi": 75,
        "time": 6.375,
        "duration": 0.125,
        "velocity": 0.71,
        "hand": "right"
      },
      {
        "midi": 57,
        "time": 6.5,
        "duration": 0.25,
        "velocity": 0.71,
        "hand": "left"
      },
      {
        "midi": 65,
        "time": 6.5,
        "duration": 0.125,
        "velocity": 0.71,
        "hand": "right"
      },
      {
        "midi": 75,
        "time": 6.625,
        "duration": 0.125,
        "velocity": 0.71,
        "hand": "right"
      },
      {
        "midi": 53,
        "time": 6.75,
        "duration": 0.25,
        "velocity": 0.71,
        "hand": "left"
      },
      {
        "midi": 74,
        "time": 6.75,
        "duration": 0.125,
        "velocity": 0.71,
        "hand": "right"
      },
      {
        "midi": 72,
        "time": 6.875,
        "duration": 0.125,
        "velocity": 0.71,
        "hand": "right"
      },
      {
        "midi": 58,
        "time": 7,
        "duration": 0.25,
        "velocity": 0.71,
        "hand": "left"
      },
      {
        "midi": 65,
        "time": 7,
        "duration": 0.125,
        "velocity": 0.71,
        "hand": "right"
      },
      {
        "midi": 70,
        "time": 7.125,
        "duration": 0.125,
        "velocity": 0.71,
        "hand": "right"
      },
      {
        "midi": 57,
        "time": 7.25,
        "duration": 0.25,
        "velocity": 0.71,
        "hand": "left"
      },
      {
        "midi": 74,
        "time": 7.25,
        "duration": 0.125,
        "velocity": 0.71,
        "hand": "right"
      },
      {
        "midi": 77,
        "time": 7.375,
        "duration": 0.125,
        "velocity": 0.71,
        "hand": "right"
      },
      {
        "midi": 59,
        "time": 7.5,
        "duration": 0.25,
        "velocity": 0.71,
        "hand": "left"
      },
      {
        "midi": 67,
        "time": 7.5,
        "duration": 0.125,
        "velocity": 0.71,
        "hand": "right"
      },
      {
        "midi": 77,
        "time": 7.625,
        "duration": 0.125,
        "velocity": 0.71,
        "hand": "right"
      },
      {
        "midi": 55,
        "time": 7.75,
        "duration": 0.25,
        "velocity": 0.71,
        "hand": "left"
      },
      {
        "midi": 75,
        "time": 7.75,
        "duration": 0.125,
        "velocity": 0.71,
        "hand": "right"
      },
      {
        "midi": 74,
        "time": 7.875,
        "duration": 0.125,
        "velocity": 0.71,
        "hand": "right"
      },
      {
        "midi": 60,
        "time": 8,
        "duration": 0.125,
        "velocity": 0.71,
        "hand": "right"
      },
      {
        "midi": 75,
        "time": 8,
        "duration": 0.125,
        "velocity": 0.71,
        "hand": "right"
      },
      {
        "midi": 68,
        "time": 8.125,
        "duration": 0.125,
        "velocity": 0.71,
        "hand": "right"
      },
      {
        "midi": 72,
        "time": 8.125,
        "duration": 0.125,
        "velocity": 0.71,
        "hand": "right"
      },
      {
        "midi": 67,
        "time": 8.25,
        "duration": 0.125,
        "velocity": 0.71,
        "hand": "right"
      },
      {
        "midi": 70,
        "time": 8.25,
        "duration": 0.125,
        "velocity": 0.71,
        "hand": "right"
      },
      {
        "midi": 68,
        "time": 8.375,
        "duration": 0.125,
        "velocity": 0.71,
        "hand": "right"
      },
      {
        "midi": 72,
        "time": 8.375,
        "duration": 0.125,
        "velocity": 0.71,
        "hand": "right"
      },
      {
        "midi": 58,
        "time": 8.5,
        "duration": 0.125,
        "velocity": 0.71,
        "hand": "left"
      },
      {
        "midi": 74,
        "time": 8.5,
        "duration": 0.125,
        "velocity": 0.71,
        "hand": "right"
      },
      {
        "midi": 67,
        "time": 8.625,
        "duration": 0.125,
        "velocity": 0.71,
        "hand": "right"
      },
      {
        "midi": 70,
        "time": 8.625,
        "duration": 0.125,
        "velocity": 0.71,
        "hand": "right"
      },
      {
        "midi": 65,
        "time": 8.75,
        "duration": 0.125,
        "velocity": 0.71,
        "hand": "right"
      },
      {
        "midi": 68,
        "time": 8.75,
        "duration": 0.125,
        "velocity": 0.71,
        "hand": "right"
      },
      {
        "midi": 67,
        "time": 8.875,
        "duration": 0.125,
        "velocity": 0.71,
        "hand": "right"
      },
      {
        "midi": 70,
        "time": 8.875,
        "duration": 0.125,
        "velocity": 0.71,
        "hand": "right"
      },
      {
        "midi": 56,
        "time": 9,
        "duration": 0.25,
        "velocity": 0.71,
        "hand": "left"
      },
      {
        "midi": 72,
        "time": 9,
        "duration": 0.125,
        "velocity": 0.71,
        "hand": "right"
      },
      {
        "midi": 70,
        "time": 9.125,
        "duration": 0.125,
        "velocity": 0.71,
        "hand": "right"
      },
      {
        "midi": 68,
        "time": 9.25,
        "duration": 0.125,
        "velocity": 0.71,
        "hand": "right"
      },
      {
        "midi": 67,
        "time": 9.375,
        "duration": 0.125,
        "velocity": 0.71,
        "hand": "right"
      },
      {
        "midi": 65,
        "time": 9.5,
        "duration": 0.125,
        "velocity": 0.71,
        "hand": "right"
      },
      {
        "midi": 63,
        "time": 9.625,
        "duration": 0.125,
        "velocity": 0.71,
        "hand": "right"
      },
      {
        "midi": 62,
        "time": 9.75,
        "duration": 0.125,
        "velocity": 0.71,
        "hand": "right"
      },
      {
        "midi": 60,
        "time": 9.875,
        "duration": 0.125,
        "velocity": 0.71,
        "hand": "right"
      },
      {
        "midi": 58,
        "time": 10,
        "duration": 0.125,
        "velocity": 0.71,
        "hand": "left"
      },
      {
        "midi": 74,
        "time": 10,
        "duration": 0.125,
        "velocity": 0.71,
        "hand": "right"
      },
      {
        "midi": 67,
        "time": 10.125,
        "duration": 0.125,
        "velocity": 0.71,
        "hand": "right"
      },
      {
        "midi": 70,
        "time": 10.125,
        "duration": 0.125,
        "velocity": 0.71,
        "hand": "right"
      },
      {
        "midi": 65,
        "time": 10.25,
        "duration": 0.125,
        "velocity": 0.71,
        "hand": "right"
      },
      {
        "midi": 68,
        "time": 10.25,
        "duration": 0.125,
        "velocity": 0.71,
        "hand": "right"
      },
      {
        "midi": 67,
        "time": 10.375,
        "duration": 0.125,
        "velocity": 0.71,
        "hand": "right"
      },
      {
        "midi": 70,
        "time": 10.375,
        "duration": 0.125,
        "velocity": 0.71,
        "hand": "right"
      },
      {
        "midi": 56,
        "time": 10.5,
        "duration": 0.125,
        "velocity": 0.71,
        "hand": "left"
      },
      {
        "midi": 72,
        "time": 10.5,
        "duration": 0.125,
        "velocity": 0.71,
        "hand": "right"
      },
      {
        "midi": 65,
        "time": 10.625,
        "duration": 0.125,
        "velocity": 0.71,
        "hand": "right"
      },
      {
        "midi": 68,
        "time": 10.625,
        "duration": 0.125,
        "velocity": 0.71,
        "hand": "right"
      },
      {
        "midi": 63,
        "time": 10.75,
        "duration": 0.125,
        "velocity": 0.71,
        "hand": "right"
      },
      {
        "midi": 67,
        "time": 10.75,
        "duration": 0.125,
        "velocity": 0.71,
        "hand": "right"
      },
      {
        "midi": 65,
        "time": 10.875,
        "duration": 0.125,
        "velocity": 0.71,
        "hand": "right"
      },
      {
        "midi": 68,
        "time": 10.875,
        "duration": 0.125,
        "velocity": 0.71,
        "hand": "right"
      },
      {
        "midi": 55,
        "time": 11,
        "duration": 0.25,
        "velocity": 0.71,
        "hand": "left"
      },
      {
        "midi": 70,
        "time": 11,
        "duration": 0.125,
        "velocity": 0.71,
        "hand": "right"
      },
      {
        "midi": 68,
        "time": 11.125,
        "duration": 0.125,
        "velocity": 0.71,
        "hand": "right"
      },
      {
        "midi": 67,
        "time": 11.25,
        "duration": 0.125,
        "velocity": 0.71,
        "hand": "right"
      },
      {
        "midi": 65,
        "time": 11.375,
        "duration": 0.125,
        "velocity": 0.71,
        "hand": "right"
      },
      {
        "midi": 63,
        "time": 11.5,
        "duration": 0.125,
        "velocity": 0.71,
        "hand": "right"
      },
      {
        "midi": 61,
        "time": 11.625,
        "duration": 0.125,
        "velocity": 0.71,
        "hand": "right"
      },
      {
        "midi": 60,
        "time": 11.75,
        "duration": 0.125,
        "velocity": 0.71,
        "hand": "right"
      },
      {
        "midi": 58,
        "time": 11.875,
        "duration": 0.125,
        "velocity": 0.71,
        "hand": "left"
      },
      {
        "midi": 56,
        "time": 12,
        "duration": 0.125,
        "velocity": 0.71,
        "hand": "left"
      },
      {
        "midi": 72,
        "time": 12,
        "duration": 0.125,
        "velocity": 0.71,
        "hand": "right"
      },
      {
        "midi": 65,
        "time": 12.125,
        "duration": 0.125,
        "velocity": 0.71,
        "hand": "right"
      },
      {
        "midi": 68,
        "time": 12.125,
        "duration": 0.125,
        "velocity": 0.71,
        "hand": "right"
      },
      {
        "midi": 63,
        "time": 12.25,
        "duration": 0.125,
        "velocity": 0.71,
        "hand": "right"
      },
      {
        "midi": 67,
        "time": 12.25,
        "duration": 0.125,
        "velocity": 0.71,
        "hand": "right"
      },
      {
        "midi": 65,
        "time": 12.375,
        "duration": 0.125,
        "velocity": 0.71,
        "hand": "right"
      },
      {
        "midi": 68,
        "time": 12.375,
        "duration": 0.125,
        "velocity": 0.71,
        "hand": "right"
      },
      {
        "midi": 55,
        "time": 12.5,
        "duration": 0.125,
        "velocity": 0.71,
        "hand": "left"
      },
      {
        "midi": 70,
        "time": 12.5,
        "duration": 0.125,
        "velocity": 0.71,
        "hand": "right"
      },
      {
        "midi": 63,
        "time": 12.625,
        "duration": 0.125,
        "velocity": 0.71,
        "hand": "right"
      },
      {
        "midi": 67,
        "time": 12.625,
        "duration": 0.125,
        "velocity": 0.71,
        "hand": "right"
      },
      {
        "midi": 62,
        "time": 12.75,
        "duration": 0.125,
        "velocity": 0.71,
        "hand": "right"
      },
      {
        "midi": 65,
        "time": 12.75,
        "duration": 0.125,
        "velocity": 0.71,
        "hand": "right"
      },
      {
        "midi": 63,
        "time": 12.875,
        "duration": 0.125,
        "velocity": 0.71,
        "hand": "right"
      },
      {
        "midi": 67,
        "time": 12.875,
        "duration": 0.125,
        "velocity": 0.71,
        "hand": "right"
      },
      {
        "midi": 53,
        "time": 13,
        "duration": 0.125,
        "velocity": 0.71,
        "hand": "left"
      },
      {
        "midi": 68,
        "time": 13,
        "duration": 0.125,
        "velocity": 0.71,
        "hand": "right"
      },
      {
        "midi": 62,
        "time": 13.125,
        "duration": 0.125,
        "velocity": 0.71,
        "hand": "right"
      },
      {
        "midi": 65,
        "time": 13.125,
        "duration": 0.125,
        "velocity": 0.71,
        "hand": "right"
      },
      {
        "midi": 60,
        "time": 13.25,
        "duration": 0.125,
        "velocity": 0.71,
        "hand": "right"
      },
      {
        "midi": 63,
        "time": 13.25,
        "duration": 0.125,
        "velocity": 0.71,
        "hand": "right"
      },
      {
        "midi": 62,
        "time": 13.375,
        "duration": 0.125,
        "velocity": 0.71,
        "hand": "right"
      },
      {
        "midi": 65,
        "time": 13.375,
        "duration": 0.125,
        "velocity": 0.71,
        "hand": "right"
      },
      {
        "midi": 51,
        "time": 13.5,
        "duration": 0.125,
        "velocity": 0.71,
        "hand": "left"
      },
      {
        "midi": 68,
        "time": 13.5,
        "duration": 0.25,
        "velocity": 0.71,
        "hand": "right"
      },
      {
        "midi": 60,
        "time": 13.625,
        "duration": 0.125,
        "velocity": 0.71,
        "hand": "right"
      },
      {
        "midi": 58,
        "time": 13.75,
        "duration": 0.125,
        "velocity": 0.71,
        "hand": "left"
      },
      {
        "midi": 68,
        "time": 13.75,
        "duration": 0.25,
        "velocity": 0.71,
        "hand": "right"
      },
      {
        "midi": 60,
        "time": 13.875,
        "duration": 0.125,
        "velocity": 0.71,
        "hand": "right"
      },
      {
        "midi": 62,
        "time": 14,
        "duration": 0.125,
        "velocity": 0.71,
        "hand": "right"
      },
      {
        "midi": 68,
        "time": 14,
        "duration": 0.125,
        "velocity": 0.71,
        "hand": "right"
      },
      {
        "midi": 58,
        "time": 14.125,
        "duration": 0.125,
        "velocity": 0.71,
        "hand": "left"
      },
      {
        "midi": 67,
        "time": 14.125,
        "duration": 0.125,
        "velocity": 0.71,
        "hand": "right"
      },
      {
        "midi": 56,
        "time": 14.25,
        "duration": 0.125,
        "velocity": 0.71,
        "hand": "left"
      },
      {
        "midi": 65,
        "time": 14.25,
        "duration": 0.125,
        "velocity": 0.71,
        "hand": "right"
      },
      {
        "midi": 58,
        "time": 14.375,
        "duration": 0.125,
        "velocity": 0.71,
        "hand": "left"
      },
      {
        "midi": 67,
        "time": 14.375,
        "duration": 0.125,
        "velocity": 0.71,
        "hand": "right"
      },
      {
        "midi": 60,
        "time": 14.5,
        "duration": 0.125,
        "velocity": 0.71,
        "hand": "right"
      },
      {
        "midi": 68,
        "time": 14.5,
        "duration": 0.25,
        "velocity": 0.71,
        "hand": "right"
      },
      {
        "midi": 56,
        "time": 14.625,
        "duration": 0.125,
        "velocity": 0.71,
        "hand": "left"
      },
      {
        "midi": 55,
        "time": 14.75,
        "duration": 0.125,
        "velocity": 0.71,
        "hand": "left"
      },
      {
        "midi": 68,
        "time": 14.75,
        "duration": 0.25,
        "velocity": 0.71,
        "hand": "right"
      },
      {
        "midi": 56,
        "time": 14.875,
        "duration": 0.125,
        "velocity": 0.71,
        "hand": "left"
      },
      {
        "midi": 46,
        "time": 15,
        "duration": 0.25,
        "velocity": 0.71,
        "hand": "left"
      },
      {
        "midi": 68,
        "time": 15,
        "duration": 0.125,
        "velocity": 0.71,
        "hand": "right"
      },
      {
        "midi": 74,
        "time": 15.125,
        "duration": 0.125,
        "velocity": 0.71,
        "hand": "right"
      },
      {
        "midi": 58,
        "time": 15.25,
        "duration": 0.25,
        "velocity": 0.71,
        "hand": "left"
      },
      {
        "midi": 77,
        "time": 15.25,
        "duration": 0.125,
        "velocity": 0.71,
        "hand": "right"
      },
      {
        "midi": 75,
        "time": 15.375,
        "duration": 0.125,
        "velocity": 0.71,
        "hand": "right"
      },
      {
        "midi": 74,
        "time": 15.5,
        "duration": 0.125,
        "velocity": 0.71,
        "hand": "right"
      },
      {
        "midi": 72,
        "time": 15.625,
        "duration": 0.125,
        "velocity": 0.71,
        "hand": "right"
      },
      {
        "midi": 50,
        "time": 15.75,
        "duration": 0.25,
        "velocity": 0.71,
        "hand": "left"
      },
      {
        "midi": 70,
        "time": 15.75,
        "duration": 0.125,
        "velocity": 0.71,
        "hand": "right"
      },
      {
        "midi": 68,
        "time": 15.875,
        "duration": 0.125,
        "velocity": 0.71,
        "hand": "right"
      },
      {
        "midi": 51,
        "time": 16,
        "duration": 0.25,
        "velocity": 0.71,
        "hand": "left"
      },
      {
        "midi": 67,
        "time": 16,
        "duration": 0.125,
        "velocity": 0.71,
        "hand": "right"
      },
      {
        "midi": 70,
        "time": 16.125,
        "duration": 0.125,
        "velocity": 0.71,
        "hand": "right"
      },
      {
        "midi": 48,
        "time": 16.25,
        "duration": 0.25,
        "velocity": 0.71,
        "hand": "left"
      },
      {
        "midi": 75,
        "time": 16.25,
        "duration": 0.125,
        "velocity": 0.71,
        "hand": "right"
      },
      {
        "midi": 79,
        "time": 16.375,
        "duration": 0.125,
        "velocity": 0.71,
        "hand": "right"
      },
      {
        "midi": 44,
        "time": 16.5,
        "duration": 0.25,
        "velocity": 0.71,
        "hand": "left"
      },
      {
        "midi": 77,
        "time": 16.5,
        "duration": 0.125,
        "velocity": 0.71,
        "hand": "right"
      },
      {
        "midi": 75,
        "time": 16.625,
        "duration": 0.125,
        "velocity": 0.71,
        "hand": "right"
      },
      {
        "midi": 46,
        "time": 16.75,
        "duration": 0.25,
        "velocity": 0.71,
        "hand": "left"
      },
      {
        "midi": 77,
        "time": 16.75,
        "duration": 0.125,
        "velocity": 0.71,
        "hand": "right"
      },
      {
        "midi": 74,
        "time": 16.875,
        "duration": 0.125,
        "velocity": 0.71,
        "hand": "right"
      },
      {
        "midi": 39,
        "time": 17,
        "duration": 0.25,
        "velocity": 0.71,
        "hand": "left"
      },
      {
        "midi": 75,
        "time": 17,
        "duration": 0.125,
        "velocity": 0.71,
        "hand": "right"
      },
      {
        "midi": 70,
        "time": 17.125,
        "duration": 0.125,
        "velocity": 0.71,
        "hand": "right"
      },
      {
        "midi": 51,
        "time": 17.25,
        "duration": 0.25,
        "velocity": 0.71,
        "hand": "left"
      },
      {
        "midi": 68,
        "time": 17.25,
        "duration": 0.125,
        "velocity": 0.71,
        "hand": "right"
      },
      {
        "midi": 70,
        "time": 17.375,
        "duration": 0.125,
        "velocity": 0.71,
        "hand": "right"
      },
      {
        "midi": 56,
        "time": 17.5,
        "duration": 0.25,
        "velocity": 0.71,
        "hand": "left"
      },
      {
        "midi": 72,
        "time": 17.5,
        "duration": 0.125,
        "velocity": 0.71,
        "hand": "right"
      },
      {
        "midi": 68,
        "time": 17.625,
        "duration": 0.125,
        "velocity": 0.71,
        "hand": "right"
      },
      {
        "midi": 51,
        "time": 17.75,
        "duration": 0.25,
        "velocity": 0.71,
        "hand": "left"
      },
      {
        "midi": 67,
        "time": 17.75,
        "duration": 0.125,
        "velocity": 0.71,
        "hand": "right"
      },
      {
        "midi": 68,
        "time": 17.875,
        "duration": 0.125,
        "velocity": 0.71,
        "hand": "right"
      },
      {
        "midi": 43,
        "time": 18,
        "duration": 0.25,
        "velocity": 0.71,
        "hand": "left"
      },
      {
        "midi": 70,
        "time": 18,
        "duration": 0.125,
        "velocity": 0.71,
        "hand": "right"
      },
      {
        "midi": 67,
        "time": 18.125,
        "duration": 0.125,
        "velocity": 0.71,
        "hand": "right"
      },
      {
        "midi": 51,
        "time": 18.25,
        "duration": 0.25,
        "velocity": 0.71,
        "hand": "left"
      },
      {
        "midi": 65,
        "time": 18.25,
        "duration": 0.125,
        "velocity": 0.71,
        "hand": "right"
      },
      {
        "midi": 67,
        "time": 18.375,
        "duration": 0.125,
        "velocity": 0.71,
        "hand": "right"
      },
      {
        "midi": 41,
        "time": 18.5,
        "duration": 0.25,
        "velocity": 0.71,
        "hand": "left"
      },
      {
        "midi": 68,
        "time": 18.5,
        "duration": 0.125,
        "velocity": 0.71,
        "hand": "right"
      },
      {
        "midi": 65,
        "time": 18.625,
        "duration": 0.125,
        "velocity": 0.71,
        "hand": "right"
      },
      {
        "midi": 50,
        "time": 18.75,
        "duration": 0.25,
        "velocity": 0.71,
        "hand": "left"
      },
      {
        "midi": 63,
        "time": 18.75,
        "duration": 0.125,
        "velocity": 0.71,
        "hand": "right"
      },
      {
        "midi": 65,
        "time": 18.875,
        "duration": 0.125,
        "velocity": 0.71,
        "hand": "right"
      },
      {
        "midi": 51,
        "time": 19,
        "duration": 0.125,
        "velocity": 0.71,
        "hand": "left"
      },
      {
        "midi": 67,
        "time": 19,
        "duration": 0.125,
        "velocity": 0.71,
        "hand": "right"
      },
      {
        "midi": 55,
        "time": 19.125,
        "duration": 0.125,
        "velocity": 0.71,
        "hand": "left"
      },
      {
        "midi": 63,
        "time": 19.125,
        "duration": 0.125,
        "velocity": 0.71,
        "hand": "right"
      },
      {
        "midi": 53,
        "time": 19.25,
        "duration": 0.125,
        "velocity": 0.71,
        "hand": "left"
      },
      {
        "midi": 62,
        "time": 19.25,
        "duration": 0.125,
        "velocity": 0.71,
        "hand": "right"
      },
      {
        "midi": 55,
        "time": 19.375,
        "duration": 0.125,
        "velocity": 0.71,
        "hand": "left"
      },
      {
        "midi": 63,
        "time": 19.375,
        "duration": 0.125,
        "velocity": 0.71,
        "hand": "right"
      },
      {
        "midi": 56,
        "time": 19.5,
        "duration": 0.125,
        "velocity": 0.71,
        "hand": "left"
      },
      {
        "midi": 60,
        "time": 19.5,
        "duration": 0.25,
        "velocity": 0.71,
        "hand": "right"
      },
      {
        "midi": 53,
        "time": 19.625,
        "duration": 0.125,
        "velocity": 0.71,
        "hand": "left"
      },
      {
        "midi": 51,
        "time": 19.75,
        "duration": 0.125,
        "velocity": 0.71,
        "hand": "left"
      },
      {
        "midi": 68,
        "time": 19.75,
        "duration": 0.25,
        "velocity": 0.71,
        "hand": "right"
      },
      {
        "midi": 53,
        "time": 19.875,
        "duration": 0.125,
        "velocity": 0.71,
        "hand": "left"
      },
      {
        "midi": 55,
        "time": 20,
        "duration": 0.125,
        "velocity": 0.71,
        "hand": "left"
      },
      {
        "midi": 58,
        "time": 20,
        "duration": 0.25,
        "velocity": 0.71,
        "hand": "left"
      },
      {
        "midi": 51,
        "time": 20.125,
        "duration": 0.125,
        "velocity": 0.71,
        "hand": "left"
      },
      {
        "midi": 50,
        "time": 20.25,
        "duration": 0.125,
        "velocity": 0.71,
        "hand": "left"
      },
      {
        "midi": 67,
        "time": 20.25,
        "duration": 0.25,
        "velocity": 0.71,
        "hand": "right"
      },
      {
        "midi": 51,
        "time": 20.375,
        "duration": 0.125,
        "velocity": 0.71,
        "hand": "left"
      },
      {
        "midi": 53,
        "time": 20.5,
        "duration": 0.125,
        "velocity": 0.71,
        "hand": "left"
      },
      {
        "midi": 56,
        "time": 20.5,
        "duration": 0.25,
        "velocity": 0.71,
        "hand": "left"
      },
      {
        "midi": 50,
        "time": 20.625,
        "duration": 0.125,
        "velocity": 0.71,
        "hand": "left"
      },
      {
        "midi": 48,
        "time": 20.75,
        "duration": 0.125,
        "velocity": 0.71,
        "hand": "left"
      },
      {
        "midi": 65,
        "time": 20.75,
        "duration": 0.25,
        "velocity": 0.71,
        "hand": "right"
      },
      {
        "midi": 50,
        "time": 20.875,
        "duration": 0.125,
        "velocity": 0.71,
        "hand": "left"
      },
      {
        "midi": 51,
        "time": 21,
        "duration": 0.25,
        "velocity": 0.71,
        "hand": "left"
      },
      {
        "midi": 55,
        "time": 21,
        "duration": 0.125,
        "velocity": 0.71,
        "hand": "left"
      },
      {
        "midi": 58,
        "time": 21.125,
        "duration": 0.125,
        "velocity": 0.71,
        "hand": "left"
      },
      {
        "midi": 55,
        "time": 21.25,
        "duration": 0.25,
        "velocity": 0.71,
        "hand": "left"
      },
      {
        "midi": 63,
        "time": 21.25,
        "duration": 0.125,
        "velocity": 0.71,
        "hand": "right"
      },
      {
        "midi": 67,
        "time": 21.375,
        "duration": 0.25,
        "velocity": 0.71,
        "hand": "right"
      },
      {
        "midi": 56,
        "time": 21.5,
        "duration": 0.25,
        "velocity": 0.71,
        "hand": "left"
      },
      {
        "midi": 65,
        "time": 21.625,
        "duration": 0.125,
        "velocity": 0.71,
        "hand": "right"
      },
      {
        "midi": 58,
        "time": 21.75,
        "duration": 0.25,
        "velocity": 0.71,
        "hand": "left"
      },
      {
        "midi": 63,
        "time": 21.75,
        "duration": 0.125,
        "velocity": 0.71,
        "hand": "right"
      },
      {
        "midi": 62,
        "time": 21.875,
        "duration": 0.125,
        "velocity": 0.71,
        "hand": "right"
      },
      {
        "midi": 60,
        "time": 22,
        "duration": 0.25,
        "velocity": 0.71,
        "hand": "right"
      },
      {
        "midi": 63,
        "time": 22,
        "duration": 0.5,
        "velocity": 0.71,
        "hand": "right"
      },
      {
        "midi": 67,
        "time": 22.125,
        "duration": 0.125,
        "velocity": 0.71,
        "hand": "right"
      },
      {
        "midi": 56,
        "time": 22.25,
        "duration": 0.25,
        "velocity": 0.71,
        "hand": "left"
      },
      {
        "midi": 72,
        "time": 22.25,
        "duration": 0.25,
        "velocity": 0.71,
        "hand": "right"
      },
      {
        "midi": 65,
        "time": 22.375,
        "duration": 0.125,
        "velocity": 0.71,
        "hand": "right"
      },
      {
        "midi": 58,
        "time": 22.5,
        "duration": 0.25,
        "velocity": 0.71,
        "hand": "left"
      },
      {
        "midi": 63,
        "time": 22.5,
        "duration": 0.125,
        "velocity": 0.71,
        "hand": "right"
      },
      {
        "midi": 67,
        "time": 22.5,
        "duration": 0.25,
        "velocity": 0.71,
        "hand": "right"
      },
      {
        "midi": 70,
        "time": 22.5,
        "duration": 0.25,
        "velocity": 0.71,
        "hand": "right"
      },
      {
        "midi": 63,
        "time": 22.625,
        "duration": 0.25,
        "velocity": 0.71,
        "hand": "right"
      },
      {
        "midi": 46,
        "time": 22.75,
        "duration": 0.25,
        "velocity": 0.71,
        "hand": "left"
      },
      {
        "midi": 65,
        "time": 22.75,
        "duration": 0.25,
        "velocity": 0.71,
        "hand": "right"
      },
      {
        "midi": 68,
        "time": 22.75,
        "duration": 0.25,
        "velocity": 0.71,
        "hand": "right"
      },
      {
        "midi": 62,
        "time": 22.875,
        "duration": 0.125,
        "velocity": 0.71,
        "hand": "right"
      },
      {
        "midi": 58,
        "time": 23,
        "duration": 1,
        "velocity": 0.71,
        "hand": "left"
      },
      {
        "midi": 63,
        "time": 23,
        "duration": 1,
        "velocity": 0.71,
        "hand": "right"
      },
      {
        "midi": 67,
        "time": 23,
        "duration": 1,
        "velocity": 0.71,
        "hand": "right"
      },
      {
        "midi": 51,
        "time": 23.125,
        "duration": 0.125,
        "velocity": 0.71,
        "hand": "left"
      },
      {
        "midi": 46,
        "time": 23.25,
        "duration": 0.125,
        "velocity": 0.71,
        "hand": "left"
      },
      {
        "midi": 43,
        "time": 23.375,
        "duration": 0.125,
        "velocity": 0.71,
        "hand": "left"
      },
      {
        "midi": 39,
        "time": 23.5,
        "duration": 0.5,
        "velocity": 0.71,
        "hand": "left"
      },
      {
        "midi": 51,
        "time": 24,
        "duration": 0.25,
        "velocity": 0.71,
        "hand": "left"
      },
      {
        "midi": 70,
        "time": 24.125,
        "duration": 0.125,
        "velocity": 0.71,
        "hand": "right"
      },
      {
        "midi": 53,
        "time": 24.25,
        "duration": 0.25,
        "velocity": 0.71,
        "hand": "left"
      },
      {
        "midi": 69,
        "time": 24.25,
        "duration": 0.125,
        "velocity": 0.71,
        "hand": "right"
      },
      {
        "midi": 70,
        "time": 24.375,
        "duration": 0.125,
        "velocity": 0.71,
        "hand": "right"
      },
      {
        "midi": 55,
        "time": 24.5,
        "duration": 0.25,
        "velocity": 0.71,
        "hand": "left"
      },
      {
        "midi": 75,
        "time": 24.5,
        "duration": 0.125,
        "velocity": 0.71,
        "hand": "right"
      },
      {
        "midi": 70,
        "time": 24.625,
        "duration": 0.125,
        "velocity": 0.71,
        "hand": "right"
      },
      {
        "midi": 51,
        "time": 24.75,
        "duration": 0.25,
        "velocity": 0.71,
        "hand": "left"
      },
      {
        "midi": 69,
        "time": 24.75,
        "duration": 0.125,
        "velocity": 0.71,
        "hand": "right"
      },
      {
        "midi": 70,
        "time": 24.875,
        "duration": 0.125,
        "velocity": 0.71,
        "hand": "right"
      },
      {
        "midi": 50,
        "time": 25,
        "duration": 0.25,
        "velocity": 0.71,
        "hand": "left"
      },
      {
        "midi": 77,
        "time": 25,
        "duration": 0.125,
        "velocity": 0.71,
        "hand": "right"
      },
      {
        "midi": 70,
        "time": 25.125,
        "duration": 0.125,
        "velocity": 0.71,
        "hand": "right"
      },
      {
        "midi": 48,
        "time": 25.25,
        "duration": 0.25,
        "velocity": 0.71,
        "hand": "left"
      },
      {
        "midi": 69,
        "time": 25.25,
        "duration": 0.125,
        "velocity": 0.71,
        "hand": "right"
      },
      {
        "midi": 70,
        "time": 25.375,
        "duration": 0.125,
        "velocity": 0.71,
        "hand": "right"
      },
      {
        "midi": 50,
        "time": 25.5,
        "duration": 0.25,
        "velocity": 0.71,
        "hand": "left"
      },
      {
        "midi": 80,
        "time": 25.5,
        "duration": 0.125,
        "velocity": 0.71,
        "hand": "right"
      },
      {
        "midi": 70,
        "time": 25.625,
        "duration": 0.125,
        "velocity": 0.71,
        "hand": "right"
      },
      {
        "midi": 46,
        "time": 25.75,
        "duration": 0.25,
        "velocity": 0.71,
        "hand": "left"
      },
      {
        "midi": 69,
        "time": 25.75,
        "duration": 0.125,
        "velocity": 0.71,
        "hand": "right"
      },
      {
        "midi": 70,
        "time": 25.875,
        "duration": 0.125,
        "velocity": 0.71,
        "hand": "right"
      },
      {
        "midi": 51,
        "time": 26,
        "duration": 0.125,
        "velocity": 0.71,
        "hand": "left"
      },
      {
        "midi": 79,
        "time": 26,
        "duration": 0.25,
        "velocity": 0.71,
        "hand": "right"
      },
      {
        "midi": 55,
        "time": 26.125,
        "duration": 0.125,
        "velocity": 0.71,
        "hand": "left"
      },
      {
        "midi": 56,
        "time": 26.25,
        "duration": 0.125,
        "velocity": 0.71,
        "hand": "left"
      },
      {
        "midi": 75,
        "time": 26.25,
        "duration": 0.25,
        "velocity": 0.71,
        "hand": "right"
      },
      {
        "midi": 55,
        "time": 26.375,
        "duration": 0.125,
        "velocity": 0.71,
        "hand": "left"
      },
      {
        "midi": 44,
        "time": 26.5,
        "duration": 0.125,
        "velocity": 0.71,
        "hand": "left"
      },
      {
        "midi": 72,
        "time": 26.5,
        "duration": 0.125,
        "velocity": 0.71,
        "hand": "right"
      },
      {
        "midi": 55,
        "time": 26.625,
        "duration": 0.125,
        "velocity": 0.71,
        "hand": "left"
      },
      {
        "midi": 71,
        "time": 26.625,
        "duration": 0.125,
        "velocity": 0.71,
        "hand": "right"
      },
      {
        "midi": 56,
        "time": 26.75,
        "duration": 0.125,
        "velocity": 0.71,
        "hand": "left"
      },
      {
        "midi": 72,
        "time": 26.75,
        "duration": 0.25,
        "velocity": 0.71,
        "hand": "right"
      },
      {
        "midi": 55,
        "time": 26.875,
        "duration": 0.125,
        "velocity": 0.71,
        "hand": "left"
      },
      {
        "midi": 50,
        "time": 27,
        "duration": 0.125,
        "velocity": 0.71,
        "hand": "left"
      },
      {
        "midi": 77,
        "time": 27,
        "duration": 0.25,
        "velocity": 0.71,
        "hand": "right"
      },
      {
        "midi": 53,
        "time": 27.125,
        "duration": 0.125,
        "velocity": 0.71,
        "hand": "left"
      },
      {
        "midi": 55,
        "time": 27.25,
        "duration": 0.125,
        "velocity": 0.71,
        "hand": "left"
      },
      {
        "midi": 74,
        "time": 27.25,
        "duration": 0.25,
        "velocity": 0.71,
        "hand": "right"
      },
      {
        "midi": 53,
        "time": 27.375,
        "duration": 0.125,
        "velocity": 0.71,
        "hand": "left"
      },
      {
        "midi": 43,
        "time": 27.5,
        "duration": 0.125,
        "velocity": 0.71,
        "hand": "left"
      },
      {
        "midi": 71,
        "time": 27.5,
        "duration": 0.125,
        "velocity": 0.71,
        "hand": "right"
      },
      {
        "midi": 53,
        "time": 27.625,
        "duration": 0.125,
        "velocity": 0.71,
        "hand": "left"
      },
      {
        "midi": 69,
        "time": 27.625,
        "duration": 0.125,
        "velocity": 0.71,
        "hand": "right"
      },
      {
        "midi": 55,
        "time": 27.75,
        "duration": 0.125,
        "velocity": 0.71,
        "hand": "left"
      },
      {
        "midi": 71,
        "time": 27.75,
        "duration": 0.25,
        "velocity": 0.71,
        "hand": "right"
      },
      {
        "midi": 53,
        "time": 27.875,
        "duration": 0.125,
        "velocity": 0.71,
        "hand": "left"
      },
      {
        "midi": 48,
        "time": 28,
        "duration": 0.25,
        "velocity": 0.71,
        "hand": "left"
      },
      {
        "midi": 75,
        "time": 28,
        "duration": 0.125,
        "velocity": 0.71,
        "hand": "right"
      },
      {
        "midi": 63,
        "time": 28.125,
        "duration": 0.125,
        "velocity": 0.71,
        "hand": "right"
      },
      {
        "midi": 60,
        "time": 28.25,
        "duration": 0.25,
        "velocity": 0.71,
        "hand": "right"
      },
      {
        "midi": 62,
        "time": 28.25,
        "duration": 0.125,
        "velocity": 0.71,
        "hand": "right"
      },
      {
        "midi": 63,
        "time": 28.375,
        "duration": 0.125,
        "velocity": 0.71,
        "hand": "right"
      },
      {
        "midi": 58,
        "time": 28.5,
        "duration": 0.25,
        "velocity": 0.71,
        "hand": "left"
      },
      {
        "midi": 67,
        "time": 28.5,
        "duration": 0.125,
        "velocity": 0.71,
        "hand": "right"
      },
      {
        "midi": 63,
        "time": 28.625,
        "duration": 0.125,
        "velocity": 0.71,
        "hand": "right"
      },
      {
        "midi": 56,
        "time": 28.75,
        "duration": 0.25,
        "velocity": 0.71,
        "hand": "left"
      },
      {
        "midi": 62,
        "time": 28.75,
        "duration": 0.125,
        "velocity": 0.71,
        "hand": "right"
      },
      {
        "midi": 63,
        "time": 28.875,
        "duration": 0.125,
        "velocity": 0.71,
        "hand": "right"
      },
      {
        "midi": 55,
        "time": 29,
        "duration": 0.25,
        "velocity": 0.71,
        "hand": "left"
      },
      {
        "midi": 70,
        "time": 29,
        "duration": 0.125,
        "velocity": 0.71,
        "hand": "right"
      },
      {
        "midi": 63,
        "time": 29.125,
        "duration": 0.125,
        "velocity": 0.71,
        "hand": "right"
      },
      {
        "midi": 53,
        "time": 29.25,
        "duration": 0.25,
        "velocity": 0.71,
        "hand": "left"
      },
      {
        "midi": 62,
        "time": 29.25,
        "duration": 0.125,
        "velocity": 0.71,
        "hand": "right"
      },
      {
        "midi": 63,
        "time": 29.375,
        "duration": 0.125,
        "velocity": 0.71,
        "hand": "right"
      },
      {
        "midi": 55,
        "time": 29.5,
        "duration": 0.25,
        "velocity": 0.71,
        "hand": "left"
      },
      {
        "midi": 73,
        "time": 29.5,
        "duration": 0.125,
        "velocity": 0.71,
        "hand": "right"
      },
      {
        "midi": 63,
        "time": 29.625,
        "duration": 0.125,
        "velocity": 0.71,
        "hand": "right"
      },
      {
        "midi": 51,
        "time": 29.75,
        "duration": 0.25,
        "velocity": 0.71,
        "hand": "left"
      },
      {
        "midi": 62,
        "time": 29.75,
        "duration": 0.125,
        "velocity": 0.71,
        "hand": "right"
      },
      {
        "midi": 63,
        "time": 29.875,
        "duration": 0.125,
        "velocity": 0.71,
        "hand": "right"
      },
      {
        "midi": 56,
        "time": 30,
        "duration": 0.125,
        "velocity": 0.71,
        "hand": "left"
      },
      {
        "midi": 72,
        "time": 30,
        "duration": 0.25,
        "velocity": 0.71,
        "hand": "right"
      },
      {
        "midi": 60,
        "time": 30.125,
        "duration": 0.125,
        "velocity": 0.71,
        "hand": "right"
      },
      {
        "midi": 61,
        "time": 30.25,
        "duration": 0.125,
        "velocity": 0.71,
        "hand": "right"
      },
      {
        "midi": 68,
        "time": 30.25,
        "duration": 0.25,
        "velocity": 0.71,
        "hand": "right"
      },
      {
        "midi": 60,
        "time": 30.375,
        "duration": 0.125,
        "velocity": 0.71,
        "hand": "right"
      },
      {
        "midi": 49,
        "time": 30.5,
        "duration": 0.125,
        "velocity": 0.71,
        "hand": "left"
      },
      {
        "midi": 65,
        "time": 30.5,
        "duration": 0.125,
        "velocity": 0.71,
        "hand": "right"
      },
      {
        "midi": 60,
        "time": 30.625,
        "duration": 0.125,
        "velocity": 0.71,
        "hand": "right"
      },
      {
        "midi": 64,
        "time": 30.625,
        "duration": 0.125,
        "velocity": 0.71,
        "hand": "right"
      },
      {
        "midi": 61,
        "time": 30.75,
        "duration": 0.125,
        "velocity": 0.71,
        "hand": "right"
      },
      {
        "midi": 65,
        "time": 30.75,
        "duration": 0.25,
        "velocity": 0.71,
        "hand": "right"
      },
      {
        "midi": 60,
        "time": 30.875,
        "duration": 0.125,
        "velocity": 0.71,
        "hand": "right"
      },
      {
        "midi": 55,
        "time": 31,
        "duration": 0.125,
        "velocity": 0.71,
        "hand": "left"
      },
      {
        "midi": 70,
        "time": 31,
        "duration": 0.25,
        "velocity": 0.71,
        "hand": "right"
      },
      {
        "midi": 58,
        "time": 31.125,
        "duration": 0.125,
        "velocity": 0.71,
        "hand": "left"
      },
      {
        "midi": 60,
        "time": 31.25,
        "duration": 0.125,
        "velocity": 0.71,
        "hand": "right"
      },
      {
        "midi": 67,
        "time": 31.25,
        "duration": 0.25,
        "velocity": 0.71,
        "hand": "right"
      },
      {
        "midi": 58,
        "time": 31.375,
        "duration": 0.125,
        "velocity": 0.71,
        "hand": "left"
      },
      {
        "midi": 48,
        "time": 31.5,
        "duration": 0.125,
        "velocity": 0.71,
        "hand": "left"
      },
      {
        "midi": 64,
        "time": 31.5,
        "duration": 0.125,
        "velocity": 0.71,
        "hand": "right"
      },
      {
        "midi": 58,
        "time": 31.625,
        "duration": 0.125,
        "velocity": 0.71,
        "hand": "left"
      },
      {
        "midi": 62,
        "time": 31.625,
        "duration": 0.125,
        "velocity": 0.71,
        "hand": "right"
      },
      {
        "midi": 60,
        "time": 31.75,
        "duration": 0.125,
        "velocity": 0.71,
        "hand": "right"
      },
      {
        "midi": 64,
        "time": 31.75,
        "duration": 0.25,
        "velocity": 0.71,
        "hand": "right"
      },
      {
        "midi": 58,
        "time": 31.875,
        "duration": 0.125,
        "velocity": 0.71,
        "hand": "left"
      },
      {
        "midi": 53,
        "time": 32,
        "duration": 0.25,
        "velocity": 0.71,
        "hand": "left"
      },
      {
        "midi": 68,
        "time": 32,
        "duration": 0.125,
        "velocity": 0.71,
        "hand": "right"
      },
      {
        "midi": 72,
        "time": 32.125,
        "duration": 0.125,
        "velocity": 0.71,
        "hand": "right"
      },
      {
        "midi": 56,
        "time": 32.25,
        "duration": 0.25,
        "velocity": 0.71,
        "hand": "left"
      },
      {
        "midi": 71,
        "time": 32.25,
        "duration": 0.125,
        "velocity": 0.71,
        "hand": "right"
      },
      {
        "midi": 72,
        "time": 32.375,
        "duration": 0.125,
        "velocity": 0.71,
        "hand": "right"
      },
      {
        "midi": 53,
        "time": 32.5,
        "duration": 0.25,
        "velocity": 0.71,
        "hand": "left"
      },
      {
        "midi": 73,
        "time": 32.5,
        "duration": 0.125,
        "velocity": 0.71,
        "hand": "right"
      },
      {
        "midi": 72,
        "time": 32.625,
        "duration": 0.125,
        "velocity": 0.71,
        "hand": "right"
      },
      {
        "midi": 49,
        "time": 32.75,
        "duration": 0.25,
        "velocity": 0.71,
        "hand": "left"
      },
      {
        "midi": 71,
        "time": 32.75,
        "duration": 0.125,
        "velocity": 0.71,
        "hand": "right"
      },
      {
        "midi": 72,
        "time": 32.875,
        "duration": 0.125,
        "velocity": 0.71,
        "hand": "right"
      },
      {
        "midi": 52,
        "time": 33,
        "duration": 0.25,
        "velocity": 0.71,
        "hand": "left"
      },
      {
        "midi": 67,
        "time": 33,
        "duration": 0.125,
        "velocity": 0.71,
        "hand": "right"
      },
      {
        "midi": 72,
        "time": 33.125,
        "duration": 0.125,
        "velocity": 0.71,
        "hand": "right"
      },
      {
        "midi": 55,
        "time": 33.25,
        "duration": 0.25,
        "velocity": 0.71,
        "hand": "left"
      },
      {
        "midi": 71,
        "time": 33.25,
        "duration": 0.125,
        "velocity": 0.71,
        "hand": "right"
      },
      {
        "midi": 72,
        "time": 33.375,
        "duration": 0.125,
        "velocity": 0.71,
        "hand": "right"
      },
      {
        "midi": 51,
        "time": 33.5,
        "duration": 0.25,
        "velocity": 0.71,
        "hand": "left"
      },
      {
        "midi": 73,
        "time": 33.5,
        "duration": 0.125,
        "velocity": 0.71,
        "hand": "right"
      },
      {
        "midi": 72,
        "time": 33.625,
        "duration": 0.125,
        "velocity": 0.71,
        "hand": "right"
      },
      {
        "midi": 48,
        "time": 33.75,
        "duration": 0.25,
        "velocity": 0.71,
        "hand": "left"
      },
      {
        "midi": 71,
        "time": 33.75,
        "duration": 0.125,
        "velocity": 0.71,
        "hand": "right"
      },
      {
        "midi": 72,
        "time": 33.875,
        "duration": 0.125,
        "velocity": 0.71,
        "hand": "right"
      },
      {
        "midi": 50,
        "time": 34,
        "duration": 0.25,
        "velocity": 0.71,
        "hand": "left"
      },
      {
        "midi": 65,
        "time": 34,
        "duration": 0.125,
        "velocity": 0.71,
        "hand": "right"
      },
      {
        "midi": 72,
        "time": 34.125,
        "duration": 0.125,
        "velocity": 0.71,
        "hand": "right"
      },
      {
        "midi": 53,
        "time": 34.25,
        "duration": 0.25,
        "velocity": 0.71,
        "hand": "left"
      },
      {
        "midi": 74,
        "time": 34.25,
        "duration": 0.125,
        "velocity": 0.71,
        "hand": "right"
      },
      {
        "midi": 76,
        "time": 34.375,
        "duration": 0.125,
        "velocity": 0.71,
        "hand": "right"
      },
      {
        "midi": 49,
        "time": 34.5,
        "duration": 0.25,
        "velocity": 0.71,
        "hand": "left"
      },
      {
        "midi": 77,
        "time": 34.5,
        "duration": 0.125,
        "velocity": 0.71,
        "hand": "right"
      },
      {
        "midi": 70,
        "time": 34.625,
        "duration": 0.125,
        "velocity": 0.71,
        "hand": "right"
      },
      {
        "midi": 58,
        "time": 34.75,
        "duration": 0.25,
        "velocity": 0.71,
        "hand": "left"
      },
      {
        "midi": 69,
        "time": 34.75,
        "duration": 0.125,
        "velocity": 0.71,
        "hand": "right"
      },
      {
        "midi": 70,
        "time": 34.875,
        "duration": 0.125,
        "velocity": 0.71,
        "hand": "right"
      },
      {
        "midi": 48,
        "time": 35,
        "duration": 0.25,
        "velocity": 0.71,
        "hand": "left"
      },
      {
        "midi": 79,
        "time": 35,
        "duration": 0.125,
        "velocity": 0.71,
        "hand": "right"
      },
      {
        "midi": 77,
        "time": 35.125,
        "duration": 0.125,
        "velocity": 0.71,
        "hand": "right"
      },
      {
        "midi": 50,
        "time": 35.25,
        "duration": 0.25,
        "velocity": 0.71,
        "hand": "left"
      },
      {
        "midi": 76,
        "time": 35.25,
        "duration": 0.125,
        "velocity": 0.71,
        "hand": "right"
      },
      {
        "midi": 74,
        "time": 35.375,
        "duration": 0.125,
        "velocity": 0.71,
        "hand": "right"
      },
      {
        "midi": 52,
        "time": 35.5,
        "duration": 0.25,
        "velocity": 0.71,
        "hand": "left"
      },
      {
        "midi": 72,
        "time": 35.5,
        "duration": 0.125,
        "velocity": 0.71,
        "hand": "right"
      },
      {
        "midi": 70,
        "time": 35.625,
        "duration": 0.125,
        "velocity": 0.71,
        "hand": "right"
      },
      {
        "midi": 48,
        "time": 35.75,
        "duration": 0.25,
        "velocity": 0.71,
        "hand": "left"
      },
      {
        "midi": 68,
        "time": 35.75,
        "duration": 0.125,
        "velocity": 0.71,
        "hand": "right"
      },
      {
        "midi": 67,
        "time": 35.875,
        "duration": 0.125,
        "velocity": 0.71,
        "hand": "right"
      },
      {
        "midi": 53,
        "time": 36,
        "duration": 0.125,
        "velocity": 0.71,
        "hand": "left"
      },
      {
        "midi": 68,
        "time": 36,
        "duration": 0.125,
        "velocity": 0.71,
        "hand": "right"
      },
      {
        "midi": 56,
        "time": 36.125,
        "duration": 0.125,
        "velocity": 0.71,
        "hand": "left"
      },
      {
        "midi": 65,
        "time": 36.125,
        "duration": 0.125,
        "velocity": 0.71,
        "hand": "right"
      },
      {
        "midi": 55,
        "time": 36.25,
        "duration": 0.125,
        "velocity": 0.71,
        "hand": "left"
      },
      {
        "midi": 64,
        "time": 36.25,
        "duration": 0.125,
        "velocity": 0.71,
        "hand": "right"
      },
      {
        "midi": 56,
        "time": 36.375,
        "duration": 0.125,
        "velocity": 0.71,
        "hand": "left"
      },
      {
        "midi": 65,
        "time": 36.375,
        "duration": 0.125,
        "velocity": 0.71,
        "hand": "right"
      },
      {
        "midi": 51,
        "time": 36.5,
        "duration": 0.125,
        "velocity": 0.71,
        "hand": "left"
      },
      {
        "midi": 72,
        "time": 36.5,
        "duration": 0.125,
        "velocity": 0.71,
        "hand": "right"
      },
      {
        "midi": 60,
        "time": 36.625,
        "duration": 0.125,
        "velocity": 0.71,
        "hand": "right"
      },
      {
        "midi": 68,
        "time": 36.625,
        "duration": 0.125,
        "velocity": 0.71,
        "hand": "right"
      },
      {
        "midi": 58,
        "time": 36.75,
        "duration": 0.125,
        "velocity": 0.71,
        "hand": "left"
      },
      {
        "midi": 67,
        "time": 36.75,
        "duration": 0.125,
        "velocity": 0.71,
        "hand": "right"
      },
      {
        "midi": 60,
        "time": 36.875,
        "duration": 0.125,
        "velocity": 0.71,
        "hand": "right"
      },
      {
        "midi": 68,
        "time": 36.875,
        "duration": 0.125,
        "velocity": 0.71,
        "hand": "right"
      },
      {
        "midi": 49,
        "time": 37,
        "duration": 0.25,
        "velocity": 0.71,
        "hand": "left"
      },
      {
        "midi": 77,
        "time": 37,
        "duration": 0.125,
        "velocity": 0.71,
        "hand": "right"
      },
      {
        "midi": 75,
        "time": 37.125,
        "duration": 0.125,
        "velocity": 0.71,
        "hand": "right"
      },
      {
        "midi": 53,
        "time": 37.25,
        "duration": 0.25,
        "velocity": 0.71,
        "hand": "left"
      },
      {
        "midi": 73,
        "time": 37.25,
        "duration": 0.125,
        "velocity": 0.71,
        "hand": "right"
      },
      {
        "midi": 72,
        "time": 37.375,
        "duration": 0.125,
        "velocity": 0.71,
        "hand": "right"
      },
      {
        "midi": 58,
        "time": 37.5,
        "duration": 0.25,
        "velocity": 0.71,
        "hand": "left"
      },
      {
        "midi": 70,
        "time": 37.5,
        "duration": 0.125,
        "velocity": 0.71,
        "hand": "right"
      },
      {
        "midi": 68,
        "time": 37.625,
        "duration": 0.125,
        "velocity": 0.71,
        "hand": "right"
      },
      {
        "midi": 61,
        "time": 37.75,
        "duration": 0.25,
        "velocity": 0.71,
        "hand": "right"
      },
      {
        "midi": 67,
        "time": 37.75,
        "duration": 0.125,
        "velocity": 0.71,
        "hand": "right"
      },
      {
        "midi": 65,
        "time": 37.875,
        "duration": 0.125,
        "velocity": 0.71,
        "hand": "right"
      },
      {
        "midi": 51,
        "time": 38,
        "duration": 0.125,
        "velocity": 0.71,
        "hand": "left"
      },
      {
        "midi": 67,
        "time": 38,
        "duration": 0.125,
        "velocity": 0.71,
        "hand": "right"
      },
      {
        "midi": 55,
        "time": 38.125,
        "duration": 0.125,
        "velocity": 0.71,
        "hand": "left"
      },
      {
        "midi": 63,
        "time": 38.125,
        "duration": 0.125,
        "velocity": 0.71,
        "hand": "right"
      },
      {
        "midi": 53,
        "time": 38.25,
        "duration": 0.125,
        "velocity": 0.71,
        "hand": "left"
      },
      {
        "midi": 62,
        "time": 38.25,
        "duration": 0.125,
        "velocity": 0.71,
        "hand": "right"
      },
      {
        "midi": 55,
        "time": 38.375,
        "duration": 0.125,
        "velocity": 0.71,
        "hand": "left"
      },
      {
        "midi": 63,
        "time": 38.375,
        "duration": 0.125,
        "velocity": 0.71,
        "hand": "right"
      },
      {
        "midi": 49,
        "time": 38.5,
        "duration": 0.125,
        "velocity": 0.71,
        "hand": "left"
      },
      {
        "midi": 70,
        "time": 38.5,
        "duration": 0.125,
        "velocity": 0.71,
        "hand": "right"
      },
      {
        "midi": 58,
        "time": 38.625,
        "duration": 0.125,
        "velocity": 0.71,
        "hand": "left"
      },
      {
        "midi": 67,
        "time": 38.625,
        "duration": 0.125,
        "velocity": 0.71,
        "hand": "right"
      },
      {
        "midi": 56,
        "time": 38.75,
        "duration": 0.125,
        "velocity": 0.71,
        "hand": "left"
      },
      {
        "midi": 65,
        "time": 38.75,
        "duration": 0.125,
        "velocity": 0.71,
        "hand": "right"
      },
      {
        "midi": 58,
        "time": 38.875,
        "duration": 0.125,
        "velocity": 0.71,
        "hand": "left"
      },
      {
        "midi": 67,
        "time": 38.875,
        "duration": 0.125,
        "velocity": 0.71,
        "hand": "right"
      },
      {
        "midi": 48,
        "time": 39,
        "duration": 0.25,
        "velocity": 0.71,
        "hand": "left"
      },
      {
        "midi": 75,
        "time": 39,
        "duration": 0.125,
        "velocity": 0.71,
        "hand": "right"
      },
      {
        "midi": 73,
        "time": 39.125,
        "duration": 0.125,
        "velocity": 0.71,
        "hand": "right"
      },
      {
        "midi": 51,
        "time": 39.25,
        "duration": 0.25,
        "velocity": 0.71,
        "hand": "left"
      },
      {
        "midi": 72,
        "time": 39.25,
        "duration": 0.125,
        "velocity": 0.71,
        "hand": "right"
      },
      {
        "midi": 70,
        "time": 39.375,
        "duration": 0.125,
        "velocity": 0.71,
        "hand": "right"
      },
      {
        "midi": 56,
        "time": 39.5,
        "duration": 0.25,
        "velocity": 0.71,
        "hand": "left"
      },
      {
        "midi": 68,
        "time": 39.5,
        "duration": 0.125,
        "velocity": 0.71,
        "hand": "right"
      },
      {
        "midi": 67,
        "time": 39.625,
        "duration": 0.125,
        "velocity": 0.71,
        "hand": "right"
      },
      {
        "midi": 60,
        "time": 39.75,
        "duration": 0.25,
        "velocity": 0.71,
        "hand": "right"
      },
      {
        "midi": 65,
        "time": 39.75,
        "duration": 0.125,
        "velocity": 0.71,
        "hand": "right"
      },
      {
        "midi": 64,
        "time": 39.875,
        "duration": 0.125,
        "velocity": 0.71,
        "hand": "right"
      },
      {
        "midi": 49,
        "time": 40,
        "duration": 0.125,
        "velocity": 0.71,
        "hand": "left"
      },
      {
        "midi": 65,
        "time": 40,
        "duration": 0.25,
        "velocity": 0.71,
        "hand": "right"
      },
      {
        "midi": 53,
        "time": 40.125,
        "duration": 0.125,
        "velocity": 0.71,
        "hand": "left"
      },
      {
        "midi": 51,
        "time": 40.25,
        "duration": 0.125,
        "velocity": 0.71,
        "hand": "left"
      },
      {
        "midi": 69,
        "time": 40.25,
        "duration": 0.25,
        "velocity": 0.71,
        "hand": "right"
      },
      {
        "midi": 53,
        "time": 40.375,
        "duration": 0.125,
        "velocity": 0.71,
        "hand": "left"
      },
      {
        "midi": 54,
        "time": 40.5,
        "duration": 0.125,
        "velocity": 0.71,
        "hand": "left"
      },
      {
        "midi": 70,
        "time": 40.5,
        "duration": 0.25,
        "velocity": 0.71,
        "hand": "right"
      },
      {
        "midi": 53,
        "time": 40.625,
        "duration": 0.125,
        "velocity": 0.71,
        "hand": "left"
      },
      {
        "midi": 51,
        "time": 40.75,
        "duration": 0.125,
        "velocity": 0.71,
        "hand": "left"
      },
      {
        "midi": 72,
        "time": 40.75,
        "duration": 0.25,
        "velocity": 0.71,
        "hand": "right"
      },
      {
        "midi": 53,
        "time": 40.875,
        "duration": 0.125,
        "velocity": 0.71,
        "hand": "left"
      },
      {
        "midi": 46,
        "time": 41,
        "duration": 0.125,
        "velocity": 0.71,
        "hand": "left"
      },
      {
        "midi": 73,
        "time": 41,
        "duration": 0.25,
        "velocity": 0.71,
        "hand": "right"
      },
      {
        "midi": 53,
        "time": 41.125,
        "duration": 0.125,
        "velocity": 0.71,
        "hand": "left"
      },
      {
        "midi": 55,
        "time": 41.25,
        "duration": 0.125,
        "velocity": 0.71,
        "hand": "left"
      },
      {
        "midi": 76,
        "time": 41.25,
        "duration": 0.25,
        "velocity": 0.71,
        "hand": "right"
      },
      {
        "midi": 56,
        "time": 41.375,
        "duration": 0.125,
        "velocity": 0.71,
        "hand": "left"
      },
      {
        "midi": 55,
        "time": 41.5,
        "duration": 0.125,
        "velocity": 0.71,
        "hand": "left"
      },
      {
        "midi": 77,
        "time": 41.5,
        "duration": 0.25,
        "velocity": 0.71,
        "hand": "right"
      },
      {
        "midi": 53,
        "time": 41.625,
        "duration": 0.125,
        "velocity": 0.71,
        "hand": "left"
      },
      {
        "midi": 52,
        "time": 41.75,
        "duration": 0.125,
        "velocity": 0.71,
        "hand": "left"
      },
      {
        "midi": 79,
        "time": 41.75,
        "duration": 0.25,
        "velocity": 0.71,
        "hand": "right"
      },
      {
        "midi": 53,
        "time": 41.875,
        "duration": 0.125,
        "velocity": 0.71,
        "hand": "left"
      },
      {
        "midi": 44,
        "time": 42,
        "duration": 0.25,
        "velocity": 0.71,
        "hand": "left"
      },
      {
        "midi": 72,
        "time": 42,
        "duration": 0.125,
        "velocity": 0.71,
        "hand": "right"
      },
      {
        "midi": 76,
        "time": 42.125,
        "duration": 0.125,
        "velocity": 0.71,
        "hand": "right"
      },
      {
        "midi": 41,
        "time": 42.25,
        "duration": 0.25,
        "velocity": 0.71,
        "hand": "left"
      },
      {
        "midi": 77,
        "time": 42.25,
        "duration": 0.125,
        "velocity": 0.71,
        "hand": "right"
      },
      {
        "midi": 80,
        "time": 42.375,
        "duration": 0.125,
        "velocity": 0.71,
        "hand": "right"
      },
      {
        "midi": 48,
        "time": 42.5,
        "duration": 0.25,
        "velocity": 0.71,
        "hand": "left"
      },
      {
        "midi": 70,
        "time": 42.5,
        "duration": 0.125,
        "velocity": 0.71,
        "hand": "right"
      },
      {
        "midi": 79,
        "time": 42.625,
        "duration": 0.125,
        "velocity": 0.71,
        "hand": "right"
      },
      {
        "midi": 36,
        "time": 42.75,
        "duration": 0.25,
        "velocity": 0.71,
        "hand": "left"
      },
      {
        "midi": 77,
        "time": 42.75,
        "duration": 0.125,
        "velocity": 0.71,
        "hand": "right"
      },
      {
        "midi": 76,
        "time": 42.875,
        "duration": 0.125,
        "velocity": 0.71,
        "hand": "right"
      },
      {
        "midi": 41,
        "time": 43,
        "duration": 0.25,
        "velocity": 0.71,
        "hand": "left"
      },
      {
        "midi": 68,
        "time": 43,
        "duration": 0.125,
        "velocity": 0.71,
        "hand": "right"
      },
      {
        "midi": 72,
        "time": 43.125,
        "duration": 0.125,
        "velocity": 0.71,
        "hand": "right"
      },
      {
        "midi": 44,
        "time": 43.25,
        "duration": 0.25,
        "velocity": 0.71,
        "hand": "left"
      },
      {
        "midi": 76,
        "time": 43.25,
        "duration": 0.125,
        "velocity": 0.71,
        "hand": "right"
      },
      {
        "midi": 77,
        "time": 43.375,
        "duration": 0.125,
        "velocity": 0.71,
        "hand": "right"
      },
      {
        "midi": 46,
        "time": 43.5,
        "duration": 0.25,
        "velocity": 0.71,
        "hand": "left"
      },
      {
        "midi": 67,
        "time": 43.5,
        "duration": 0.125,
        "velocity": 0.71,
        "hand": "right"
      },
      {
        "midi": 73,
        "time": 43.625,
        "duration": 0.125,
        "velocity": 0.71,
        "hand": "right"
      },
      {
        "midi": 48,
        "time": 43.75,
        "duration": 0.25,
        "velocity": 0.71,
        "hand": "left"
      },
      {
        "midi": 72,
        "time": 43.75,
        "duration": 0.125,
        "velocity": 0.71,
        "hand": "right"
      },
      {
        "midi": 70,
        "time": 43.875,
        "duration": 0.125,
        "velocity": 0.71,
        "hand": "right"
      },
      {
        "midi": 53,
        "time": 44,
        "duration": 0.25,
        "velocity": 0.71,
        "hand": "left"
      },
      {
        "midi": 68,
        "time": 44,
        "duration": 0.125,
        "velocity": 0.71,
        "hand": "right"
      },
      {
        "midi": 67,
        "time": 44.125,
        "duration": 0.125,
        "velocity": 0.71,
        "hand": "right"
      },
      {
        "midi": 55,
        "time": 44.25,
        "duration": 0.25,
        "velocity": 0.71,
        "hand": "left"
      },
      {
        "midi": 65,
        "time": 44.25,
        "duration": 0.125,
        "velocity": 0.71,
        "hand": "right"
      },
      {
        "midi": 64,
        "time": 44.375,
        "duration": 0.125,
        "velocity": 0.71,
        "hand": "right"
      },
      {
        "midi": 56,
        "time": 44.5,
        "duration": 0.25,
        "velocity": 0.71,
        "hand": "left"
      },
      {
        "midi": 65,
        "time": 44.5,
        "duration": 0.125,
        "velocity": 0.71,
        "hand": "right"
      },
      {
        "midi": 68,
        "time": 44.625,
        "duration": 0.125,
        "velocity": 0.71,
        "hand": "right"
      },
      {
        "midi": 53,
        "time": 44.75,
        "duration": 0.25,
        "velocity": 0.71,
        "hand": "left"
      },
      {
        "midi": 60,
        "time": 44.75,
        "duration": 0.125,
        "velocity": 0.71,
        "hand": "right"
      },
      {
        "midi": 63,
        "time": 44.875,
        "duration": 0.125,
        "velocity": 0.71,
        "hand": "right"
      },
      {
        "midi": 58,
        "time": 45,
        "duration": 0.25,
        "velocity": 0.71,
        "hand": "left"
      },
      {
        "midi": 62,
        "time": 45,
        "duration": 0.125,
        "velocity": 0.71,
        "hand": "right"
      },
      {
        "midi": 68,
        "time": 45.125,
        "duration": 0.125,
        "velocity": 0.71,
        "hand": "right"
      },
      {
        "midi": 46,
        "time": 45.25,
        "duration": 0.25,
        "velocity": 0.71,
        "hand": "left"
      },
      {
        "midi": 65,
        "time": 45.25,
        "duration": 0.125,
        "velocity": 0.71,
        "hand": "right"
      },
      {
        "midi": 62,
        "time": 45.375,
        "duration": 0.125,
        "velocity": 0.71,
        "hand": "right"
      },
      {
        "midi": 58,
        "time": 45.5,
        "duration": 0.125,
        "velocity": 0.71,
        "hand": "left"
      },
      {
        "midi": 56,
        "time": 45.625,
        "duration": 0.125,
        "velocity": 0.71,
        "hand": "left"
      },
      {
        "midi": 55,
        "time": 45.75,
        "duration": 0.125,
        "velocity": 0.71,
        "hand": "left"
      },
      {
        "midi": 53,
        "time": 45.875,
        "duration": 0.125,
        "velocity": 0.71,
        "hand": "left"
      },
      {
        "midi": 51,
        "time": 46,
        "duration": 0.25,
        "velocity": 0.71,
        "hand": "left"
      },
      {
        "midi": 67,
        "time": 46,
        "duration": 0.125,
        "velocity": 0.71,
        "hand": "right"
      },
      {
        "midi": 65,
        "time": 46.125,
        "duration": 0.125,
        "velocity": 0.71,
        "hand": "right"
      },
      {
        "midi": 53,
        "time": 46.25,
        "duration": 0.25,
        "velocity": 0.71,
        "hand": "left"
      },
      {
        "midi": 63,
        "time": 46.25,
        "duration": 0.125,
        "velocity": 0.71,
        "hand": "right"
      },
      {
        "midi": 62,
        "time": 46.375,
        "duration": 0.125,
        "velocity": 0.71,
        "hand": "right"
      },
      {
        "midi": 55,
        "time": 46.5,
        "duration": 0.25,
        "velocity": 0.71,
        "hand": "left"
      },
      {
        "midi": 63,
        "time": 46.5,
        "duration": 0.125,
        "velocity": 0.71,
        "hand": "right"
      },
      {
        "midi": 67,
        "time": 46.625,
        "duration": 0.125,
        "velocity": 0.71,
        "hand": "right"
      },
      {
        "midi": 51,
        "time": 46.75,
        "duration": 0.25,
        "velocity": 0.71,
        "hand": "left"
      },
      {
        "midi": 59,
        "time": 46.75,
        "duration": 0.125,
        "velocity": 0.71,
        "hand": "left"
      },
      {
        "midi": 62,
        "time": 46.875,
        "duration": 0.125,
        "velocity": 0.71,
        "hand": "right"
      },
      {
        "midi": 56,
        "time": 47,
        "duration": 0.25,
        "velocity": 0.71,
        "hand": "left"
      },
      {
        "midi": 60,
        "time": 47,
        "duration": 0.125,
        "velocity": 0.71,
        "hand": "right"
      },
      {
        "midi": 67,
        "time": 47.125,
        "duration": 0.125,
        "velocity": 0.71,
        "hand": "right"
      },
      {
        "midi": 44,
        "time": 47.25,
        "duration": 0.25,
        "velocity": 0.71,
        "hand": "left"
      },
      {
        "midi": 63,
        "time": 47.25,
        "duration": 0.125,
        "velocity": 0.71,
        "hand": "right"
      },
      {
        "midi": 60,
        "time": 47.375,
        "duration": 0.125,
        "velocity": 0.71,
        "hand": "right"
      },
      {
        "midi": 56,
        "time": 47.5,
        "duration": 0.125,
        "velocity": 0.71,
        "hand": "left"
      },
      {
        "midi": 55,
        "time": 47.625,
        "duration": 0.125,
        "velocity": 0.71,
        "hand": "left"
      },
      {
        "midi": 53,
        "time": 47.75,
        "duration": 0.125,
        "velocity": 0.71,
        "hand": "left"
      },
      {
        "midi": 51,
        "time": 47.875,
        "duration": 0.125,
        "velocity": 0.71,
        "hand": "left"
      },
      {
        "midi": 50,
        "time": 48,
        "duration": 0.25,
        "velocity": 0.71,
        "hand": "left"
      },
      {
        "midi": 65,
        "time": 48,
        "duration": 0.125,
        "velocity": 0.71,
        "hand": "right"
      },
      {
        "midi": 63,
        "time": 48.125,
        "duration": 0.125,
        "velocity": 0.71,
        "hand": "right"
      },
      {
        "midi": 51,
        "time": 48.25,
        "duration": 0.25,
        "velocity": 0.71,
        "hand": "left"
      },
      {
        "midi": 62,
        "time": 48.25,
        "duration": 0.125,
        "velocity": 0.71,
        "hand": "right"
      },
      {
        "midi": 60,
        "time": 48.375,
        "duration": 0.125,
        "velocity": 0.71,
        "hand": "right"
      },
      {
        "midi": 53,
        "time": 48.5,
        "duration": 0.25,
        "velocity": 0.71,
        "hand": "left"
      },
      {
        "midi": 62,
        "time": 48.5,
        "duration": 0.125,
        "velocity": 0.71,
        "hand": "right"
      },
      {
        "midi": 65,
        "time": 48.625,
        "duration": 0.125,
        "velocity": 0.71,
        "hand": "right"
      },
      {
        "midi": 50,
        "time": 48.75,
        "duration": 0.25,
        "velocity": 0.71,
        "hand": "left"
      },
      {
        "midi": 68,
        "time": 48.75,
        "duration": 0.125,
        "velocity": 0.71,
        "hand": "right"
      },
      {
        "midi": 60,
        "time": 48.875,
        "duration": 0.125,
        "velocity": 0.71,
        "hand": "right"
      },
      {
        "midi": 55,
        "time": 49,
        "duration": 0.25,
        "velocity": 0.71,
        "hand": "left"
      },
      {
        "midi": 59,
        "time": 49,
        "duration": 0.125,
        "velocity": 0.71,
        "hand": "left"
      },
      {
        "midi": 65,
        "time": 49.125,
        "duration": 0.125,
        "velocity": 0.71,
        "hand": "right"
      },
      {
        "midi": 43,
        "time": 49.25,
        "duration": 0.25,
        "velocity": 0.71,
        "hand": "left"
      },
      {
        "midi": 62,
        "time": 49.25,
        "duration": 0.125,
        "velocity": 0.71,
        "hand": "right"
      },
      {
        "midi": 59,
        "time": 49.375,
        "duration": 0.125,
        "velocity": 0.71,
        "hand": "left"
      },
      {
        "midi": 55,
        "time": 49.5,
        "duration": 0.125,
        "velocity": 0.71,
        "hand": "left"
      },
      {
        "midi": 53,
        "time": 49.625,
        "duration": 0.125,
        "velocity": 0.71,
        "hand": "left"
      },
      {
        "midi": 59,
        "time": 49.625,
        "duration": 0.125,
        "velocity": 0.71,
        "hand": "left"
      },
      {
        "midi": 51,
        "time": 49.75,
        "duration": 0.125,
        "velocity": 0.71,
        "hand": "left"
      },
      {
        "midi": 60,
        "time": 49.75,
        "duration": 0.125,
        "velocity": 0.71,
        "hand": "right"
      },
      {
        "midi": 50,
        "time": 49.875,
        "duration": 0.125,
        "velocity": 0.71,
        "hand": "left"
      },
      {
        "midi": 62,
        "time": 49.875,
        "duration": 0.125,
        "velocity": 0.71,
        "hand": "right"
      },
      {
        "midi": 48,
        "time": 50,
        "duration": 0.125,
        "velocity": 0.71,
        "hand": "left"
      },
      {
        "midi": 63,
        "time": 50,
        "duration": 0.625,
        "velocity": 0.71,
        "hand": "right"
      },
      {
        "midi": 50,
        "time": 50.125,
        "duration": 0.125,
        "velocity": 0.71,
        "hand": "left"
      },
      {
        "midi": 51,
        "time": 50.25,
        "duration": 0.125,
        "velocity": 0.71,
        "hand": "left"
      },
      {
        "midi": 67,
        "time": 50.25,
        "duration": 0.25,
        "velocity": 0.71,
        "hand": "right"
      },
      {
        "midi": 48,
        "time": 50.375,
        "duration": 0.125,
        "velocity": 0.71,
        "hand": "left"
      },
      {
        "midi": 44,
        "time": 50.5,
        "duration": 0.125,
        "velocity": 0.71,
        "hand": "left"
      },
      {
        "midi": 72,
        "time": 50.5,
        "duration": 1.125,
        "velocity": 0.71,
        "hand": "right"
      },
      {
        "midi": 55,
        "time": 50.625,
        "duration": 0.125,
        "velocity": 0.71,
        "hand": "left"
      },
      {
        "midi": 70,
        "time": 50.625,
        "duration": 0.125,
        "velocity": 0.71,
        "hand": "right"
      },
      {
        "midi": 53,
        "time": 50.75,
        "duration": 0.125,
        "velocity": 0.71,
        "hand": "left"
      },
      {
        "midi": 68,
        "time": 50.75,
        "duration": 0.125,
        "velocity": 0.71,
        "hand": "right"
      },
      {
        "midi": 51,
        "time": 50.875,
        "duration": 0.125,
        "velocity": 0.71,
        "hand": "left"
      },
      {
        "midi": 67,
        "time": 50.875,
        "duration": 0.125,
        "velocity": 0.71,
        "hand": "right"
      },
      {
        "midi": 50,
        "time": 51,
        "duration": 0.125,
        "velocity": 0.71,
        "hand": "left"
      },
      {
        "midi": 65,
        "time": 51,
        "duration": 0.125,
        "velocity": 0.71,
        "hand": "right"
      },
      {
        "midi": 51,
        "time": 51.125,
        "duration": 0.125,
        "velocity": 0.71,
        "hand": "left"
      },
      {
        "midi": 67,
        "time": 51.125,
        "duration": 0.125,
        "velocity": 0.71,
        "hand": "right"
      },
      {
        "midi": 53,
        "time": 51.25,
        "duration": 0.125,
        "velocity": 0.71,
        "hand": "left"
      },
      {
        "midi": 68,
        "time": 51.25,
        "duration": 0.125,
        "velocity": 0.71,
        "hand": "right"
      },
      {
        "midi": 50,
        "time": 51.375,
        "duration": 0.125,
        "velocity": 0.71,
        "hand": "left"
      },
      {
        "midi": 65,
        "time": 51.375,
        "duration": 0.125,
        "velocity": 0.71,
        "hand": "right"
      },
      {
        "midi": 46,
        "time": 51.5,
        "duration": 0.125,
        "velocity": 0.71,
        "hand": "left"
      },
      {
        "midi": 62,
        "time": 51.5,
        "duration": 0.25,
        "velocity": 0.71,
        "hand": "right"
      },
      {
        "midi": 56,
        "time": 51.625,
        "duration": 0.125,
        "velocity": 0.71,
        "hand": "left"
      },
      {
        "midi": 72,
        "time": 51.625,
        "duration": 0.125,
        "velocity": 0.71,
        "hand": "right"
      },
      {
        "midi": 55,
        "time": 51.75,
        "duration": 0.125,
        "velocity": 0.71,
        "hand": "left"
      },
      {
        "midi": 70,
        "time": 51.75,
        "duration": 0.125,
        "velocity": 0.71,
        "hand": "right"
      },
      {
        "midi": 53,
        "time": 51.875,
        "duration": 0.125,
        "velocity": 0.71,
        "hand": "left"
      },
      {
        "midi": 68,
        "time": 51.875,
        "duration": 0.125,
        "velocity": 0.71,
        "hand": "right"
      },
      {
        "midi": 51,
        "time": 52,
        "duration": 0.25,
        "velocity": 0.71,
        "hand": "left"
      },
      {
        "midi": 67,
        "time": 52,
        "duration": 0.125,
        "velocity": 0.71,
        "hand": "right"
      },
      {
        "midi": 68,
        "time": 52.125,
        "duration": 0.125,
        "velocity": 0.71,
        "hand": "right"
      },
      {
        "midi": 50,
        "time": 52.25,
        "duration": 0.25,
        "velocity": 0.71,
        "hand": "left"
      },
      {
        "midi": 70,
        "time": 52.25,
        "duration": 0.125,
        "velocity": 0.71,
        "hand": "right"
      },
      {
        "midi": 67,
        "time": 52.375,
        "duration": 0.125,
        "velocity": 0.71,
        "hand": "right"
      },
      {
        "midi": 51,
        "time": 52.5,
        "duration": 0.25,
        "velocity": 0.71,
        "hand": "left"
      },
      {
        "midi": 60,
        "time": 52.5,
        "duration": 0.125,
        "velocity": 0.71,
        "hand": "right"
      },
      {
        "midi": 73,
        "time": 52.625,
        "duration": 0.125,
        "velocity": 0.71,
        "hand": "right"
      },
      {
        "midi": 52,
        "time": 52.75,
        "duration": 0.25,
        "velocity": 0.71,
        "hand": "left"
      },
      {
        "midi": 72,
        "time": 52.75,
        "duration": 0.125,
        "velocity": 0.71,
        "hand": "right"
      },
      {
        "midi": 70,
        "time": 52.875,
        "duration": 0.125,
        "velocity": 0.71,
        "hand": "right"
      },
      {
        "midi": 53,
        "time": 53,
        "duration": 0.25,
        "velocity": 0.71,
        "hand": "left"
      },
      {
        "midi": 68,
        "time": 53,
        "duration": 0.125,
        "velocity": 0.71,
        "hand": "right"
      },
      {
        "midi": 70,
        "time": 53.125,
        "duration": 0.125,
        "velocity": 0.71,
        "hand": "right"
      },
      {
        "midi": 52,
        "time": 53.25,
        "duration": 0.25,
        "velocity": 0.71,
        "hand": "left"
      },
      {
        "midi": 72,
        "time": 53.25,
        "duration": 0.125,
        "velocity": 0.71,
        "hand": "right"
      },
      {
        "midi": 68,
        "time": 53.375,
        "duration": 0.125,
        "velocity": 0.71,
        "hand": "right"
      },
      {
        "midi": 53,
        "time": 53.5,
        "duration": 0.25,
        "velocity": 0.71,
        "hand": "left"
      },
      {
        "midi": 62,
        "time": 53.5,
        "duration": 0.125,
        "velocity": 0.71,
        "hand": "right"
      },
      {
        "midi": 75,
        "time": 53.625,
        "duration": 0.125,
        "velocity": 0.71,
        "hand": "right"
      },
      {
        "midi": 54,
        "time": 53.75,
        "duration": 0.25,
        "velocity": 0.71,
        "hand": "left"
      },
      {
        "midi": 74,
        "time": 53.75,
        "duration": 0.125,
        "velocity": 0.71,
        "hand": "right"
      },
      {
        "midi": 72,
        "time": 53.875,
        "duration": 0.125,
        "velocity": 0.71,
        "hand": "right"
      },
      {
        "midi": 55,
        "time": 54,
        "duration": 0.125,
        "velocity": 0.71,
        "hand": "left"
      },
      {
        "midi": 71,
        "time": 54,
        "duration": 0.125,
        "velocity": 0.71,
        "hand": "right"
      },
      {
        "midi": 53,
        "time": 54.125,
        "duration": 0.125,
        "velocity": 0.71,
        "hand": "left"
      },
      {
        "midi": 67,
        "time": 54.125,
        "duration": 0.125,
        "velocity": 0.71,
        "hand": "right"
      },
      {
        "midi": 51,
        "time": 54.25,
        "duration": 0.125,
        "velocity": 0.71,
        "hand": "left"
      },
      {
        "midi": 72,
        "time": 54.25,
        "duration": 0.5,
        "velocity": 0.71,
        "hand": "right"
      },
      {
        "midi": 53,
        "time": 54.375,
        "duration": 0.125,
        "velocity": 0.71,
        "hand": "left"
      },
      {
        "midi": 74,
        "time": 54.375,
        "duration": 0.125,
        "velocity": 0.71,
        "hand": "right"
      },
      {
        "midi": 55,
        "time": 54.5,
        "duration": 0.25,
        "velocity": 0.71,
        "hand": "left"
      },
      {
        "midi": 75,
        "time": 54.5,
        "duration": 0.25,
        "velocity": 0.71,
        "hand": "right"
      },
      {
        "midi": 67,
        "time": 54.625,
        "duration": 0.25,
        "velocity": 0.71,
        "hand": "right"
      },
      {
        "midi": 43,
        "time": 54.75,
        "duration": 0.25,
        "velocity": 0.71,
        "hand": "left"
      },
      {
        "midi": 71,
        "time": 54.75,
        "duration": 0.25,
        "velocity": 0.71,
        "hand": "right"
      },
      {
        "midi": 74,
        "time": 54.75,
        "duration": 0.25,
        "velocity": 0.71,
        "hand": "right"
      },
      {
        "midi": 65,
        "time": 54.875,
        "duration": 0.125,
        "velocity": 0.71,
        "hand": "right"
      },
      {
        "midi": 36,
        "time": 55,
        "duration": 0.125,
        "velocity": 0.71,
        "hand": "left"
      },
      {
        "midi": 63,
        "time": 55,
        "duration": 1,
        "velocity": 0.71,
        "hand": "right"
      },
      {
        "midi": 67,
        "time": 55,
        "duration": 1,
        "velocity": 0.71,
        "hand": "right"
      },
      {
        "midi": 72,
        "time": 55,
        "duration": 1,
        "velocity": 0.71,
        "hand": "right"
      },
      {
        "midi": 48,
        "time": 55.125,
        "duration": 0.125,
        "velocity": 0.71,
        "hand": "left"
      },
      {
        "midi": 51,
        "time": 55.25,
        "duration": 0.125,
        "velocity": 0.71,
        "hand": "left"
      },
      {
        "midi": 55,
        "time": 55.375,
        "duration": 0.125,
        "velocity": 0.71,
        "hand": "left"
      },
      {
        "midi": 60,
        "time": 55.5,
        "duration": 0.5,
        "velocity": 0.71,
        "hand": "right"
      }
    ]
  },
  "notes1Hand": [
    {
      "midi": 67,
      "time": 0.125,
      "duration": 0.25,
      "velocity": 0.71,
      "hand": "right"
    },
    {
      "midi": 65,
      "time": 0.625,
      "duration": 0.25,
      "velocity": 0.71,
      "hand": "right"
    },
    {
      "midi": 63,
      "time": 1.125,
      "duration": 0.25,
      "velocity": 0.71,
      "hand": "right"
    },
    {
      "midi": 62,
      "time": 1.625,
      "duration": 0.25,
      "velocity": 0.71,
      "hand": "right"
    },
    {
      "midi": 72,
      "time": 2.25,
      "duration": 0.25,
      "velocity": 0.71,
      "hand": "right"
    },
    {
      "midi": 65,
      "time": 2.5,
      "duration": 0.25,
      "velocity": 0.71,
      "hand": "right"
    },
    {
      "midi": 72,
      "time": 2.75,
      "duration": 0.25,
      "velocity": 0.71,
      "hand": "right"
    },
    {
      "midi": 63,
      "time": 3,
      "duration": 0.25,
      "velocity": 0.71,
      "hand": "right"
    },
    {
      "midi": 72,
      "time": 3.25,
      "duration": 0.25,
      "velocity": 0.71,
      "hand": "right"
    },
    {
      "midi": 62,
      "time": 3.5,
      "duration": 0.25,
      "velocity": 0.71,
      "hand": "right"
    },
    {
      "midi": 71,
      "time": 3.75,
      "duration": 0.25,
      "velocity": 0.71,
      "hand": "right"
    },
    {
      "midi": 60,
      "time": 4,
      "duration": 0.25,
      "velocity": 0.71,
      "hand": "right"
    },
    {
      "midi": 67,
      "time": 4.25,
      "duration": 0.25,
      "velocity": 0.71,
      "hand": "right"
    },
    {
      "midi": 62,
      "time": 4.5,
      "duration": 0.25,
      "velocity": 0.71,
      "hand": "right"
    },
    {
      "midi": 71,
      "time": 4.75,
      "duration": 0.25,
      "velocity": 0.71,
      "hand": "right"
    },
    {
      "midi": 62,
      "time": 5,
      "duration": 0.25,
      "velocity": 0.71,
      "hand": "right"
    },
    {
      "midi": 71,
      "time": 5.25,
      "duration": 0.25,
      "velocity": 0.71,
      "hand": "right"
    },
    {
      "midi": 63,
      "time": 5.5,
      "duration": 0.25,
      "velocity": 0.71,
      "hand": "right"
    },
    {
      "midi": 72,
      "time": 5.75,
      "duration": 0.25,
      "velocity": 0.71,
      "hand": "right"
    },
    {
      "midi": 63,
      "time": 6,
      "duration": 0.25,
      "velocity": 0.71,
      "hand": "right"
    },
    {
      "midi": 72,
      "time": 6.25,
      "duration": 0.25,
      "velocity": 0.71,
      "hand": "right"
    },
    {
      "midi": 65,
      "time": 6.5,
      "duration": 0.25,
      "velocity": 0.71,
      "hand": "right"
    },
    {
      "midi": 74,
      "time": 6.75,
      "duration": 0.25,
      "velocity": 0.71,
      "hand": "right"
    },
    {
      "midi": 65,
      "time": 7,
      "duration": 0.25,
      "velocity": 0.71,
      "hand": "right"
    },
    {
      "midi": 74,
      "time": 7.25,
      "duration": 0.25,
      "velocity": 0.71,
      "hand": "right"
    },
    {
      "midi": 67,
      "time": 7.5,
      "duration": 0.25,
      "velocity": 0.71,
      "hand": "right"
    },
    {
      "midi": 75,
      "time": 7.75,
      "duration": 0.25,
      "velocity": 0.71,
      "hand": "right"
    },
    {
      "midi": 70,
      "time": 8.25,
      "duration": 0.25,
      "velocity": 0.71,
      "hand": "right"
    },
    {
      "midi": 74,
      "time": 8.5,
      "duration": 0.25,
      "velocity": 0.71,
      "hand": "right"
    },
    {
      "midi": 68,
      "time": 8.75,
      "duration": 0.25,
      "velocity": 0.71,
      "hand": "right"
    },
    {
      "midi": 72,
      "time": 9,
      "duration": 0.25,
      "velocity": 0.71,
      "hand": "right"
    },
    {
      "midi": 68,
      "time": 9.25,
      "duration": 0.25,
      "velocity": 0.71,
      "hand": "right"
    },
    {
      "midi": 65,
      "time": 9.5,
      "duration": 0.25,
      "velocity": 0.71,
      "hand": "right"
    },
    {
      "midi": 62,
      "time": 9.75,
      "duration": 0.25,
      "velocity": 0.71,
      "hand": "right"
    },
    {
      "midi": 74,
      "time": 10,
      "duration": 0.25,
      "velocity": 0.71,
      "hand": "right"
    },
    {
      "midi": 68,
      "time": 10.25,
      "duration": 0.25,
      "velocity": 0.71,
      "hand": "right"
    },
    {
      "midi": 72,
      "time": 10.5,
      "duration": 0.25,
      "velocity": 0.71,
      "hand": "right"
    },
    {
      "midi": 67,
      "time": 10.75,
      "duration": 0.25,
      "velocity": 0.71,
      "hand": "right"
    },
    {
      "midi": 70,
      "time": 11,
      "duration": 0.25,
      "velocity": 0.71,
      "hand": "right"
    },
    {
      "midi": 67,
      "time": 11.25,
      "duration": 0.25,
      "velocity": 0.71,
      "hand": "right"
    },
    {
      "midi": 63,
      "time": 11.5,
      "duration": 0.25,
      "velocity": 0.71,
      "hand": "right"
    },
    {
      "midi": 60,
      "time": 11.75,
      "duration": 0.25,
      "velocity": 0.71,
      "hand": "right"
    },
    {
      "midi": 72,
      "time": 12,
      "duration": 0.25,
      "velocity": 0.71,
      "hand": "right"
    },
    {
      "midi": 67,
      "time": 12.25,
      "duration": 0.25,
      "velocity": 0.71,
      "hand": "right"
    },
    {
      "midi": 70,
      "time": 12.5,
      "duration": 0.25,
      "velocity": 0.71,
      "hand": "right"
    },
    {
      "midi": 65,
      "time": 12.75,
      "duration": 0.25,
      "velocity": 0.71,
      "hand": "right"
    },
    {
      "midi": 68,
      "time": 13,
      "duration": 0.25,
      "velocity": 0.71,
      "hand": "right"
    },
    {
      "midi": 63,
      "time": 13.25,
      "duration": 0.25,
      "velocity": 0.71,
      "hand": "right"
    },
    {
      "midi": 68,
      "time": 13.5,
      "duration": 0.25,
      "velocity": 0.71,
      "hand": "right"
    },
    {
      "midi": 68,
      "time": 14,
      "duration": 0.25,
      "velocity": 0.71,
      "hand": "right"
    },
    {
      "midi": 65,
      "time": 14.25,
      "duration": 0.25,
      "velocity": 0.71,
      "hand": "right"
    },
    {
      "midi": 68,
      "time": 14.5,
      "duration": 0.25,
      "velocity": 0.71,
      "hand": "right"
    },
    {
      "midi": 68,
      "time": 15,
      "duration": 0.25,
      "velocity": 0.71,
      "hand": "right"
    },
    {
      "midi": 77,
      "time": 15.25,
      "duration": 0.25,
      "velocity": 0.71,
      "hand": "right"
    },
    {
      "midi": 74,
      "time": 15.5,
      "duration": 0.25,
      "velocity": 0.71,
      "hand": "right"
    },
    {
      "midi": 70,
      "time": 15.75,
      "duration": 0.25,
      "velocity": 0.71,
      "hand": "right"
    },
    {
      "midi": 67,
      "time": 16,
      "duration": 0.25,
      "velocity": 0.71,
      "hand": "right"
    },
    {
      "midi": 75,
      "time": 16.25,
      "duration": 0.25,
      "velocity": 0.71,
      "hand": "right"
    },
    {
      "midi": 77,
      "time": 16.5,
      "duration": 0.25,
      "velocity": 0.71,
      "hand": "right"
    },
    {
      "midi": 75,
      "time": 17,
      "duration": 0.25,
      "velocity": 0.71,
      "hand": "right"
    },
    {
      "midi": 68,
      "time": 17.25,
      "duration": 0.25,
      "velocity": 0.71,
      "hand": "right"
    },
    {
      "midi": 72,
      "time": 17.5,
      "duration": 0.25,
      "velocity": 0.71,
      "hand": "right"
    },
    {
      "midi": 67,
      "time": 17.75,
      "duration": 0.25,
      "velocity": 0.71,
      "hand": "right"
    },
    {
      "midi": 70,
      "time": 18,
      "duration": 0.25,
      "velocity": 0.71,
      "hand": "right"
    },
    {
      "midi": 65,
      "time": 18.25,
      "duration": 0.25,
      "velocity": 0.71,
      "hand": "right"
    },
    {
      "midi": 68,
      "time": 18.5,
      "duration": 0.25,
      "velocity": 0.71,
      "hand": "right"
    },
    {
      "midi": 63,
      "time": 18.75,
      "duration": 0.25,
      "velocity": 0.71,
      "hand": "right"
    },
    {
      "midi": 67,
      "time": 19,
      "duration": 0.25,
      "velocity": 0.71,
      "hand": "right"
    },
    {
      "midi": 62,
      "time": 19.25,
      "duration": 0.25,
      "velocity": 0.71,
      "hand": "right"
    },
    {
      "midi": 60,
      "time": 19.5,
      "duration": 0.25,
      "velocity": 0.71,
      "hand": "right"
    },
    {
      "midi": 68,
      "time": 19.75,
      "duration": 0.25,
      "velocity": 0.71,
      "hand": "right"
    },
    {
      "midi": 67,
      "time": 20.25,
      "duration": 0.25,
      "velocity": 0.71,
      "hand": "right"
    },
    {
      "midi": 65,
      "time": 20.75,
      "duration": 0.25,
      "velocity": 0.71,
      "hand": "right"
    },
    {
      "midi": 63,
      "time": 21.25,
      "duration": 0.25,
      "velocity": 0.71,
      "hand": "right"
    },
    {
      "midi": 65,
      "time": 21.625,
      "duration": 0.25,
      "velocity": 0.71,
      "hand": "right"
    },
    {
      "midi": 62,
      "time": 21.875,
      "duration": 0.25,
      "velocity": 0.71,
      "hand": "right"
    },
    {
      "midi": 67,
      "time": 22.125,
      "duration": 0.25,
      "velocity": 0.71,
      "hand": "right"
    },
    {
      "midi": 65,
      "time": 22.375,
      "duration": 0.25,
      "velocity": 0.71,
      "hand": "right"
    },
    {
      "midi": 63,
      "time": 22.625,
      "duration": 0.25,
      "velocity": 0.71,
      "hand": "right"
    },
    {
      "midi": 62,
      "time": 22.875,
      "duration": 0.25,
      "velocity": 0.71,
      "hand": "right"
    },
    {
      "midi": 70,
      "time": 24.125,
      "duration": 0.25,
      "velocity": 0.71,
      "hand": "right"
    },
    {
      "midi": 70,
      "time": 24.625,
      "duration": 0.25,
      "velocity": 0.71,
      "hand": "right"
    },
    {
      "midi": 70,
      "time": 25.125,
      "duration": 0.25,
      "velocity": 0.71,
      "hand": "right"
    },
    {
      "midi": 70,
      "time": 25.625,
      "duration": 0.25,
      "velocity": 0.71,
      "hand": "right"
    },
    {
      "midi": 75,
      "time": 26.25,
      "duration": 0.25,
      "velocity": 0.71,
      "hand": "right"
    },
    {
      "midi": 72,
      "time": 26.5,
      "duration": 0.25,
      "velocity": 0.71,
      "hand": "right"
    },
    {
      "midi": 77,
      "time": 27,
      "duration": 0.25,
      "velocity": 0.71,
      "hand": "right"
    },
    {
      "midi": 74,
      "time": 27.25,
      "duration": 0.25,
      "velocity": 0.71,
      "hand": "right"
    },
    {
      "midi": 71,
      "time": 27.5,
      "duration": 0.25,
      "velocity": 0.71,
      "hand": "right"
    },
    {
      "midi": 75,
      "time": 28,
      "duration": 0.25,
      "velocity": 0.71,
      "hand": "right"
    },
    {
      "midi": 62,
      "time": 28.25,
      "duration": 0.25,
      "velocity": 0.71,
      "hand": "right"
    },
    {
      "midi": 67,
      "time": 28.5,
      "duration": 0.25,
      "velocity": 0.71,
      "hand": "right"
    },
    {
      "midi": 62,
      "time": 28.75,
      "duration": 0.25,
      "velocity": 0.71,
      "hand": "right"
    },
    {
      "midi": 70,
      "time": 29,
      "duration": 0.25,
      "velocity": 0.71,
      "hand": "right"
    },
    {
      "midi": 62,
      "time": 29.25,
      "duration": 0.25,
      "velocity": 0.71,
      "hand": "right"
    },
    {
      "midi": 73,
      "time": 29.5,
      "duration": 0.25,
      "velocity": 0.71,
      "hand": "right"
    },
    {
      "midi": 62,
      "time": 29.75,
      "duration": 0.25,
      "velocity": 0.71,
      "hand": "right"
    },
    {
      "midi": 72,
      "time": 30,
      "duration": 0.25,
      "velocity": 0.71,
      "hand": "right"
    },
    {
      "midi": 68,
      "time": 30.25,
      "duration": 0.25,
      "velocity": 0.71,
      "hand": "right"
    },
    {
      "midi": 65,
      "time": 30.5,
      "duration": 0.25,
      "velocity": 0.71,
      "hand": "right"
    },
    {
      "midi": 70,
      "time": 31,
      "duration": 0.25,
      "velocity": 0.71,
      "hand": "right"
    },
    {
      "midi": 67,
      "time": 31.25,
      "duration": 0.25,
      "velocity": 0.71,
      "hand": "right"
    },
    {
      "midi": 64,
      "time": 31.5,
      "duration": 0.25,
      "velocity": 0.71,
      "hand": "right"
    },
    {
      "midi": 68,
      "time": 32,
      "duration": 0.25,
      "velocity": 0.71,
      "hand": "right"
    },
    {
      "midi": 71,
      "time": 32.25,
      "duration": 0.25,
      "velocity": 0.71,
      "hand": "right"
    },
    {
      "midi": 73,
      "time": 32.5,
      "duration": 0.25,
      "velocity": 0.71,
      "hand": "right"
    },
    {
      "midi": 71,
      "time": 32.75,
      "duration": 0.25,
      "velocity": 0.71,
      "hand": "right"
    },
    {
      "midi": 67,
      "time": 33,
      "duration": 0.25,
      "velocity": 0.71,
      "hand": "right"
    },
    {
      "midi": 71,
      "time": 33.25,
      "duration": 0.25,
      "velocity": 0.71,
      "hand": "right"
    },
    {
      "midi": 73,
      "time": 33.5,
      "duration": 0.25,
      "velocity": 0.71,
      "hand": "right"
    },
    {
      "midi": 71,
      "time": 33.75,
      "duration": 0.25,
      "velocity": 0.71,
      "hand": "right"
    },
    {
      "midi": 65,
      "time": 34,
      "duration": 0.25,
      "velocity": 0.71,
      "hand": "right"
    },
    {
      "midi": 74,
      "time": 34.25,
      "duration": 0.25,
      "velocity": 0.71,
      "hand": "right"
    },
    {
      "midi": 77,
      "time": 34.5,
      "duration": 0.25,
      "velocity": 0.71,
      "hand": "right"
    },
    {
      "midi": 69,
      "time": 34.75,
      "duration": 0.25,
      "velocity": 0.71,
      "hand": "right"
    },
    {
      "midi": 79,
      "time": 35,
      "duration": 0.25,
      "velocity": 0.71,
      "hand": "right"
    },
    {
      "midi": 76,
      "time": 35.25,
      "duration": 0.25,
      "velocity": 0.71,
      "hand": "right"
    },
    {
      "midi": 72,
      "time": 35.5,
      "duration": 0.25,
      "velocity": 0.71,
      "hand": "right"
    },
    {
      "midi": 68,
      "time": 35.75,
      "duration": 0.25,
      "velocity": 0.71,
      "hand": "right"
    },
    {
      "midi": 64,
      "time": 36.25,
      "duration": 0.25,
      "velocity": 0.71,
      "hand": "right"
    },
    {
      "midi": 72,
      "time": 36.5,
      "duration": 0.25,
      "velocity": 0.71,
      "hand": "right"
    },
    {
      "midi": 67,
      "time": 36.75,
      "duration": 0.25,
      "velocity": 0.71,
      "hand": "right"
    },
    {
      "midi": 77,
      "time": 37,
      "duration": 0.25,
      "velocity": 0.71,
      "hand": "right"
    },
    {
      "midi": 73,
      "time": 37.25,
      "duration": 0.25,
      "velocity": 0.71,
      "hand": "right"
    },
    {
      "midi": 70,
      "time": 37.5,
      "duration": 0.25,
      "velocity": 0.71,
      "hand": "right"
    },
    {
      "midi": 67,
      "time": 37.75,
      "duration": 0.25,
      "velocity": 0.71,
      "hand": "right"
    },
    {
      "midi": 62,
      "time": 38.25,
      "duration": 0.25,
      "velocity": 0.71,
      "hand": "right"
    },
    {
      "midi": 70,
      "time": 38.5,
      "duration": 0.25,
      "velocity": 0.71,
      "hand": "right"
    },
    {
      "midi": 65,
      "time": 38.75,
      "duration": 0.25,
      "velocity": 0.71,
      "hand": "right"
    },
    {
      "midi": 75,
      "time": 39,
      "duration": 0.25,
      "velocity": 0.71,
      "hand": "right"
    },
    {
      "midi": 72,
      "time": 39.25,
      "duration": 0.25,
      "velocity": 0.71,
      "hand": "right"
    },
    {
      "midi": 68,
      "time": 39.5,
      "duration": 0.25,
      "velocity": 0.71,
      "hand": "right"
    },
    {
      "midi": 65,
      "time": 39.75,
      "duration": 0.25,
      "velocity": 0.71,
      "hand": "right"
    },
    {
      "midi": 69,
      "time": 40.25,
      "duration": 0.25,
      "velocity": 0.71,
      "hand": "right"
    },
    {
      "midi": 70,
      "time": 40.5,
      "duration": 0.25,
      "velocity": 0.71,
      "hand": "right"
    },
    {
      "midi": 72,
      "time": 40.75,
      "duration": 0.25,
      "velocity": 0.71,
      "hand": "right"
    },
    {
      "midi": 73,
      "time": 41,
      "duration": 0.25,
      "velocity": 0.71,
      "hand": "right"
    },
    {
      "midi": 76,
      "time": 41.25,
      "duration": 0.25,
      "velocity": 0.71,
      "hand": "right"
    },
    {
      "midi": 77,
      "time": 41.5,
      "duration": 0.25,
      "velocity": 0.71,
      "hand": "right"
    },
    {
      "midi": 79,
      "time": 41.75,
      "duration": 0.25,
      "velocity": 0.71,
      "hand": "right"
    },
    {
      "midi": 72,
      "time": 42,
      "duration": 0.25,
      "velocity": 0.71,
      "hand": "right"
    },
    {
      "midi": 77,
      "time": 42.25,
      "duration": 0.25,
      "velocity": 0.71,
      "hand": "right"
    },
    {
      "midi": 70,
      "time": 42.5,
      "duration": 0.25,
      "velocity": 0.71,
      "hand": "right"
    },
    {
      "midi": 77,
      "time": 42.75,
      "duration": 0.25,
      "velocity": 0.71,
      "hand": "right"
    },
    {
      "midi": 68,
      "time": 43,
      "duration": 0.25,
      "velocity": 0.71,
      "hand": "right"
    },
    {
      "midi": 76,
      "time": 43.25,
      "duration": 0.25,
      "velocity": 0.71,
      "hand": "right"
    },
    {
      "midi": 67,
      "time": 43.5,
      "duration": 0.25,
      "velocity": 0.71,
      "hand": "right"
    },
    {
      "midi": 72,
      "time": 43.75,
      "duration": 0.25,
      "velocity": 0.71,
      "hand": "right"
    },
    {
      "midi": 68,
      "time": 44,
      "duration": 0.25,
      "velocity": 0.71,
      "hand": "right"
    },
    {
      "midi": 65,
      "time": 44.25,
      "duration": 0.25,
      "velocity": 0.71,
      "hand": "right"
    },
    {
      "midi": 60,
      "time": 44.75,
      "duration": 0.25,
      "velocity": 0.71,
      "hand": "right"
    },
    {
      "midi": 62,
      "time": 45,
      "duration": 0.25,
      "velocity": 0.71,
      "hand": "right"
    },
    {
      "midi": 65,
      "time": 45.25,
      "duration": 0.25,
      "velocity": 0.71,
      "hand": "right"
    },
    {
      "midi": 67,
      "time": 46,
      "duration": 0.25,
      "velocity": 0.71,
      "hand": "right"
    },
    {
      "midi": 63,
      "time": 46.25,
      "duration": 0.25,
      "velocity": 0.71,
      "hand": "right"
    },
    {
      "midi": 62,
      "time": 46.875,
      "duration": 0.25,
      "velocity": 0.71,
      "hand": "right"
    },
    {
      "midi": 67,
      "time": 47.125,
      "duration": 0.25,
      "velocity": 0.71,
      "hand": "right"
    },
    {
      "midi": 60,
      "time": 47.375,
      "duration": 0.25,
      "velocity": 0.71,
      "hand": "right"
    },
    {
      "midi": 65,
      "time": 48,
      "duration": 0.25,
      "velocity": 0.71,
      "hand": "right"
    },
    {
      "midi": 62,
      "time": 48.25,
      "duration": 0.25,
      "velocity": 0.71,
      "hand": "right"
    },
    {
      "midi": 68,
      "time": 48.75,
      "duration": 0.25,
      "velocity": 0.71,
      "hand": "right"
    },
    {
      "midi": 65,
      "time": 49.125,
      "duration": 0.25,
      "velocity": 0.71,
      "hand": "right"
    },
    {
      "midi": 60,
      "time": 49.75,
      "duration": 0.25,
      "velocity": 0.71,
      "hand": "right"
    },
    {
      "midi": 63,
      "time": 50,
      "duration": 0.625,
      "velocity": 0.71,
      "hand": "right"
    },
    {
      "midi": 67,
      "time": 50.25,
      "duration": 0.25,
      "velocity": 0.71,
      "hand": "right"
    },
    {
      "midi": 72,
      "time": 50.5,
      "duration": 1.125,
      "velocity": 0.71,
      "hand": "right"
    },
    {
      "midi": 68,
      "time": 50.75,
      "duration": 0.25,
      "velocity": 0.71,
      "hand": "right"
    },
    {
      "midi": 65,
      "time": 51,
      "duration": 0.25,
      "velocity": 0.71,
      "hand": "right"
    },
    {
      "midi": 68,
      "time": 51.25,
      "duration": 0.25,
      "velocity": 0.71,
      "hand": "right"
    },
    {
      "midi": 62,
      "time": 51.5,
      "duration": 0.25,
      "velocity": 0.71,
      "hand": "right"
    },
    {
      "midi": 70,
      "time": 51.75,
      "duration": 0.25,
      "velocity": 0.71,
      "hand": "right"
    },
    {
      "midi": 67,
      "time": 52,
      "duration": 0.25,
      "velocity": 0.71,
      "hand": "right"
    },
    {
      "midi": 70,
      "time": 52.25,
      "duration": 0.25,
      "velocity": 0.71,
      "hand": "right"
    },
    {
      "midi": 60,
      "time": 52.5,
      "duration": 0.25,
      "velocity": 0.71,
      "hand": "right"
    },
    {
      "midi": 72,
      "time": 52.75,
      "duration": 0.25,
      "velocity": 0.71,
      "hand": "right"
    },
    {
      "midi": 68,
      "time": 53,
      "duration": 0.25,
      "velocity": 0.71,
      "hand": "right"
    },
    {
      "midi": 72,
      "time": 53.25,
      "duration": 0.25,
      "velocity": 0.71,
      "hand": "right"
    },
    {
      "midi": 62,
      "time": 53.5,
      "duration": 0.25,
      "velocity": 0.71,
      "hand": "right"
    },
    {
      "midi": 74,
      "time": 53.75,
      "duration": 0.25,
      "velocity": 0.71,
      "hand": "right"
    },
    {
      "midi": 71,
      "time": 54,
      "duration": 0.25,
      "velocity": 0.71,
      "hand": "right"
    },
    {
      "midi": 72,
      "time": 54.25,
      "duration": 0.5,
      "velocity": 0.71,
      "hand": "right"
    },
    {
      "midi": 75,
      "time": 54.5,
      "duration": 0.25,
      "velocity": 0.71,
      "hand": "right"
    },
    {
      "midi": 74,
      "time": 54.75,
      "duration": 0.25,
      "velocity": 0.71,
      "hand": "right"
    },
    {
      "midi": 72,
      "time": 55,
      "duration": 1,
      "velocity": 0.71,
      "hand": "right"
    },
    {
      "midi": 60,
      "time": 55.5,
      "duration": 0.5,
      "velocity": 0.71,
      "hand": "right"
    }
  ],
  "notes2Hands": [
    {
      "midi": 48,
      "time": 0,
      "duration": 0.25,
      "velocity": 0.71,
      "hand": "left"
    },
    {
      "midi": 67,
      "time": 0.125,
      "duration": 0.125,
      "velocity": 0.71,
      "hand": "right"
    },
    {
      "midi": 60,
      "time": 0.25,
      "duration": 0.25,
      "velocity": 0.71,
      "hand": "right"
    },
    {
      "midi": 65,
      "time": 0.25,
      "duration": 0.125,
      "velocity": 0.71,
      "hand": "right"
    },
    {
      "midi": 67,
      "time": 0.375,
      "duration": 0.125,
      "velocity": 0.71,
      "hand": "right"
    },
    {
      "midi": 53,
      "time": 0.5,
      "duration": 0.25,
      "velocity": 0.71,
      "hand": "left"
    },
    {
      "midi": 68,
      "time": 0.5,
      "duration": 0.125,
      "velocity": 0.71,
      "hand": "right"
    },
    {
      "midi": 65,
      "time": 0.625,
      "duration": 0.125,
      "velocity": 0.71,
      "hand": "right"
    },
    {
      "midi": 60,
      "time": 0.75,
      "duration": 0.25,
      "velocity": 0.71,
      "hand": "right"
    },
    {
      "midi": 63,
      "time": 0.75,
      "duration": 0.125,
      "velocity": 0.71,
      "hand": "right"
    },
    {
      "midi": 65,
      "time": 0.875,
      "duration": 0.125,
      "velocity": 0.71,
      "hand": "right"
    },
    {
      "midi": 51,
      "time": 1,
      "duration": 0.25,
      "velocity": 0.71,
      "hand": "left"
    },
    {
      "midi": 67,
      "time": 1,
      "duration": 0.125,
      "velocity": 0.71,
      "hand": "right"
    },
    {
      "midi": 63,
      "time": 1.125,
      "duration": 0.125,
      "velocity": 0.71,
      "hand": "right"
    },
    {
      "midi": 60,
      "time": 1.25,
      "duration": 0.25,
      "velocity": 0.71,
      "hand": "right"
    },
    {
      "midi": 62,
      "time": 1.25,
      "duration": 0.125,
      "velocity": 0.71,
      "hand": "right"
    },
    {
      "midi": 63,
      "time": 1.375,
      "duration": 0.125,
      "velocity": 0.71,
      "hand": "right"
    },
    {
      "midi": 50,
      "time": 1.5,
      "duration": 0.25,
      "velocity": 0.71,
      "hand": "left"
    },
    {
      "midi": 65,
      "time": 1.5,
      "duration": 0.125,
      "velocity": 0.71,
      "hand": "right"
    },
    {
      "midi": 62,
      "time": 1.625,
      "duration": 0.125,
      "velocity": 0.71,
      "hand": "right"
    },
    {
      "midi": 59,
      "time": 1.75,
      "duration": 0.25,
      "velocity": 0.71,
      "hand": "left"
    },
    {
      "midi": 60,
      "time": 1.75,
      "duration": 0.125,
      "velocity": 0.71,
      "hand": "right"
    },
    {
      "midi": 62,
      "time": 1.875,
      "duration": 0.125,
      "velocity": 0.71,
      "hand": "right"
    },
    {
      "midi": 48,
      "time": 2,
      "duration": 0.125,
      "velocity": 0.71,
      "hand": "left"
    },
    {
      "midi": 63,
      "time": 2,
      "duration": 0.25,
      "velocity": 0.71,
      "hand": "right"
    },
    {
      "midi": 55,
      "time": 2.125,
      "duration": 0.125,
      "velocity": 0.71,
      "hand": "left"
    },
    {
      "midi": 53,
      "time": 2.25,
      "duration": 0.125,
      "velocity": 0.71,
      "hand": "left"
    },
    {
      "midi": 72,
      "time": 2.25,
      "duration": 0.25,
      "velocity": 0.71,
      "hand": "right"
    },
    {
      "midi": 55,
      "time": 2.375,
      "duration": 0.125,
      "velocity": 0.71,
      "hand": "left"
    },
    {
      "midi": 56,
      "time": 2.5,
      "duration": 0.125,
      "velocity": 0.71,
      "hand": "left"
    },
    {
      "midi": 65,
      "time": 2.5,
      "duration": 0.25,
      "velocity": 0.71,
      "hand": "right"
    },
    {
      "midi": 53,
      "time": 2.625,
      "duration": 0.125,
      "velocity": 0.71,
      "hand": "left"
    },
    {
      "midi": 51,
      "time": 2.75,
      "duration": 0.125,
      "velocity": 0.71,
      "hand": "left"
    },
    {
      "midi": 72,
      "time": 2.75,
      "duration": 0.25,
      "velocity": 0.71,
      "hand": "right"
    },
    {
      "midi": 53,
      "time": 2.875,
      "duration": 0.125,
      "velocity": 0.71,
      "hand": "left"
    },
    {
      "midi": 55,
      "time": 3,
      "duration": 0.125,
      "velocity": 0.71,
      "hand": "left"
    },
    {
      "midi": 63,
      "time": 3,
      "duration": 0.25,
      "velocity": 0.71,
      "hand": "right"
    },
    {
      "midi": 51,
      "time": 3.125,
      "duration": 0.125,
      "velocity": 0.71,
      "hand": "left"
    },
    {
      "midi": 50,
      "time": 3.25,
      "duration": 0.125,
      "velocity": 0.71,
      "hand": "left"
    },
    {
      "midi": 72,
      "time": 3.25,
      "duration": 0.25,
      "velocity": 0.71,
      "hand": "right"
    },
    {
      "midi": 51,
      "time": 3.375,
      "duration": 0.125,
      "velocity": 0.71,
      "hand": "left"
    },
    {
      "midi": 53,
      "time": 3.5,
      "duration": 0.125,
      "velocity": 0.71,
      "hand": "left"
    },
    {
      "midi": 62,
      "time": 3.5,
      "duration": 0.25,
      "velocity": 0.71,
      "hand": "right"
    },
    {
      "midi": 50,
      "time": 3.625,
      "duration": 0.125,
      "velocity": 0.71,
      "hand": "left"
    },
    {
      "midi": 48,
      "time": 3.75,
      "duration": 0.125,
      "velocity": 0.71,
      "hand": "left"
    },
    {
      "midi": 71,
      "time": 3.75,
      "duration": 0.25,
      "velocity": 0.71,
      "hand": "right"
    },
    {
      "midi": 50,
      "time": 3.875,
      "duration": 0.125,
      "velocity": 0.71,
      "hand": "left"
    },
    {
      "midi": 51,
      "time": 4,
      "duration": 0.25,
      "velocity": 0.71,
      "hand": "left"
    },
    {
      "midi": 60,
      "time": 4,
      "duration": 0.125,
      "velocity": 0.71,
      "hand": "right"
    },
    {
      "midi": 63,
      "time": 4.125,
      "duration": 0.125,
      "velocity": 0.71,
      "hand": "right"
    },
    {
      "midi": 48,
      "time": 4.25,
      "duration": 0.25,
      "velocity": 0.71,
      "hand": "left"
    },
    {
      "midi": 67,
      "time": 4.25,
      "duration": 0.125,
      "velocity": 0.71,
      "hand": "right"
    },
    {
      "midi": 72,
      "time": 4.375,
      "duration": 0.125,
      "velocity": 0.71,
      "hand": "right"
    },
    {
      "midi": 53,
      "time": 4.5,
      "duration": 0.25,
      "velocity": 0.71,
      "hand": "left"
    },
    {
      "midi": 62,
      "time": 4.5,
      "duration": 0.125,
      "velocity": 0.71,
      "hand": "right"
    },
    {
      "midi": 72,
      "time": 4.625,
      "duration": 0.125,
      "velocity": 0.71,
      "hand": "right"
    },
    {
      "midi": 50,
      "time": 4.75,
      "duration": 0.25,
      "velocity": 0.71,
      "hand": "left"
    },
    {
      "midi": 71,
      "time": 4.75,
      "duration": 0.125,
      "velocity": 0.71,
      "hand": "right"
    },
    {
      "midi": 69,
      "time": 4.875,
      "duration": 0.125,
      "velocity": 0.71,
      "hand": "right"
    },
    {
      "midi": 55,
      "time": 5,
      "duration": 0.25,
      "velocity": 0.71,
      "hand": "left"
    },
    {
      "midi": 62,
      "time": 5,
      "duration": 0.125,
      "velocity": 0.71,
      "hand": "right"
    },
    {
      "midi": 67,
      "time": 5.125,
      "duration": 0.125,
      "velocity": 0.71,
      "hand": "right"
    },
    {
      "midi": 53,
      "time": 5.25,
      "duration": 0.25,
      "velocity": 0.71,
      "hand": "left"
    },
    {
      "midi": 71,
      "time": 5.25,
      "duration": 0.125,
      "velocity": 0.71,
      "hand": "right"
    },
    {
      "midi": 74,
      "time": 5.375,
      "duration": 0.125,
      "velocity": 0.71,
      "hand": "right"
    },
    {
      "midi": 55,
      "time": 5.5,
      "duration": 0.25,
      "velocity": 0.71,
      "hand": "left"
    },
    {
      "midi": 63,
      "time": 5.5,
      "duration": 0.125,
      "velocity": 0.71,
      "hand": "right"
    },
    {
      "midi": 74,
      "time": 5.625,
      "duration": 0.125,
      "velocity": 0.71,
      "hand": "right"
    },
    {
      "midi": 51,
      "time": 5.75,
      "duration": 0.25,
      "velocity": 0.71,
      "hand": "left"
    },
    {
      "midi": 72,
      "time": 5.75,
      "duration": 0.125,
      "velocity": 0.71,
      "hand": "right"
    },
    {
      "midi": 71,
      "time": 5.875,
      "duration": 0.125,
      "velocity": 0.71,
      "hand": "right"
    },
    {
      "midi": 56,
      "time": 6,
      "duration": 0.25,
      "velocity": 0.71,
      "hand": "left"
    },
    {
      "midi": 63,
      "time": 6,
      "duration": 0.125,
      "velocity": 0.71,
      "hand": "right"
    },
    {
      "midi": 68,
      "time": 6.125,
      "duration": 0.125,
      "velocity": 0.71,
      "hand": "right"
    },
    {
      "midi": 55,
      "time": 6.25,
      "duration": 0.25,
      "velocity": 0.71,
      "hand": "left"
    },
    {
      "midi": 72,
      "time": 6.25,
      "duration": 0.125,
      "velocity": 0.71,
      "hand": "right"
    },
    {
      "midi": 75,
      "time": 6.375,
      "duration": 0.125,
      "velocity": 0.71,
      "hand": "right"
    },
    {
      "midi": 57,
      "time": 6.5,
      "duration": 0.25,
      "velocity": 0.71,
      "hand": "left"
    },
    {
      "midi": 65,
      "time": 6.5,
      "duration": 0.125,
      "velocity": 0.71,
      "hand": "right"
    },
    {
      "midi": 75,
      "time": 6.625,
      "duration": 0.125,
      "velocity": 0.71,
      "hand": "right"
    },
    {
      "midi": 53,
      "time": 6.75,
      "duration": 0.25,
      "velocity": 0.71,
      "hand": "left"
    },
    {
      "midi": 74,
      "time": 6.75,
      "duration": 0.125,
      "velocity": 0.71,
      "hand": "right"
    },
    {
      "midi": 72,
      "time": 6.875,
      "duration": 0.125,
      "velocity": 0.71,
      "hand": "right"
    },
    {
      "midi": 58,
      "time": 7,
      "duration": 0.25,
      "velocity": 0.71,
      "hand": "left"
    },
    {
      "midi": 65,
      "time": 7,
      "duration": 0.125,
      "velocity": 0.71,
      "hand": "right"
    },
    {
      "midi": 70,
      "time": 7.125,
      "duration": 0.125,
      "velocity": 0.71,
      "hand": "right"
    },
    {
      "midi": 57,
      "time": 7.25,
      "duration": 0.25,
      "velocity": 0.71,
      "hand": "left"
    },
    {
      "midi": 74,
      "time": 7.25,
      "duration": 0.125,
      "velocity": 0.71,
      "hand": "right"
    },
    {
      "midi": 77,
      "time": 7.375,
      "duration": 0.125,
      "velocity": 0.71,
      "hand": "right"
    },
    {
      "midi": 59,
      "time": 7.5,
      "duration": 0.25,
      "velocity": 0.71,
      "hand": "left"
    },
    {
      "midi": 67,
      "time": 7.5,
      "duration": 0.125,
      "velocity": 0.71,
      "hand": "right"
    },
    {
      "midi": 77,
      "time": 7.625,
      "duration": 0.125,
      "velocity": 0.71,
      "hand": "right"
    },
    {
      "midi": 55,
      "time": 7.75,
      "duration": 0.25,
      "velocity": 0.71,
      "hand": "left"
    },
    {
      "midi": 75,
      "time": 7.75,
      "duration": 0.125,
      "velocity": 0.71,
      "hand": "right"
    },
    {
      "midi": 74,
      "time": 7.875,
      "duration": 0.125,
      "velocity": 0.71,
      "hand": "right"
    },
    {
      "midi": 60,
      "time": 8,
      "duration": 0.125,
      "velocity": 0.71,
      "hand": "right"
    },
    {
      "midi": 75,
      "time": 8,
      "duration": 0.125,
      "velocity": 0.71,
      "hand": "right"
    },
    {
      "midi": 68,
      "time": 8.125,
      "duration": 0.125,
      "velocity": 0.71,
      "hand": "right"
    },
    {
      "midi": 72,
      "time": 8.125,
      "duration": 0.125,
      "velocity": 0.71,
      "hand": "right"
    },
    {
      "midi": 67,
      "time": 8.25,
      "duration": 0.125,
      "velocity": 0.71,
      "hand": "right"
    },
    {
      "midi": 70,
      "time": 8.25,
      "duration": 0.125,
      "velocity": 0.71,
      "hand": "right"
    },
    {
      "midi": 68,
      "time": 8.375,
      "duration": 0.125,
      "velocity": 0.71,
      "hand": "right"
    },
    {
      "midi": 72,
      "time": 8.375,
      "duration": 0.125,
      "velocity": 0.71,
      "hand": "right"
    },
    {
      "midi": 58,
      "time": 8.5,
      "duration": 0.125,
      "velocity": 0.71,
      "hand": "left"
    },
    {
      "midi": 74,
      "time": 8.5,
      "duration": 0.125,
      "velocity": 0.71,
      "hand": "right"
    },
    {
      "midi": 67,
      "time": 8.625,
      "duration": 0.125,
      "velocity": 0.71,
      "hand": "right"
    },
    {
      "midi": 70,
      "time": 8.625,
      "duration": 0.125,
      "velocity": 0.71,
      "hand": "right"
    },
    {
      "midi": 65,
      "time": 8.75,
      "duration": 0.125,
      "velocity": 0.71,
      "hand": "right"
    },
    {
      "midi": 68,
      "time": 8.75,
      "duration": 0.125,
      "velocity": 0.71,
      "hand": "right"
    },
    {
      "midi": 67,
      "time": 8.875,
      "duration": 0.125,
      "velocity": 0.71,
      "hand": "right"
    },
    {
      "midi": 70,
      "time": 8.875,
      "duration": 0.125,
      "velocity": 0.71,
      "hand": "right"
    },
    {
      "midi": 56,
      "time": 9,
      "duration": 0.25,
      "velocity": 0.71,
      "hand": "left"
    },
    {
      "midi": 72,
      "time": 9,
      "duration": 0.125,
      "velocity": 0.71,
      "hand": "right"
    },
    {
      "midi": 70,
      "time": 9.125,
      "duration": 0.125,
      "velocity": 0.71,
      "hand": "right"
    },
    {
      "midi": 68,
      "time": 9.25,
      "duration": 0.125,
      "velocity": 0.71,
      "hand": "right"
    },
    {
      "midi": 67,
      "time": 9.375,
      "duration": 0.125,
      "velocity": 0.71,
      "hand": "right"
    },
    {
      "midi": 65,
      "time": 9.5,
      "duration": 0.125,
      "velocity": 0.71,
      "hand": "right"
    },
    {
      "midi": 63,
      "time": 9.625,
      "duration": 0.125,
      "velocity": 0.71,
      "hand": "right"
    },
    {
      "midi": 62,
      "time": 9.75,
      "duration": 0.125,
      "velocity": 0.71,
      "hand": "right"
    },
    {
      "midi": 60,
      "time": 9.875,
      "duration": 0.125,
      "velocity": 0.71,
      "hand": "right"
    },
    {
      "midi": 58,
      "time": 10,
      "duration": 0.125,
      "velocity": 0.71,
      "hand": "left"
    },
    {
      "midi": 74,
      "time": 10,
      "duration": 0.125,
      "velocity": 0.71,
      "hand": "right"
    },
    {
      "midi": 67,
      "time": 10.125,
      "duration": 0.125,
      "velocity": 0.71,
      "hand": "right"
    },
    {
      "midi": 70,
      "time": 10.125,
      "duration": 0.125,
      "velocity": 0.71,
      "hand": "right"
    },
    {
      "midi": 65,
      "time": 10.25,
      "duration": 0.125,
      "velocity": 0.71,
      "hand": "right"
    },
    {
      "midi": 68,
      "time": 10.25,
      "duration": 0.125,
      "velocity": 0.71,
      "hand": "right"
    },
    {
      "midi": 67,
      "time": 10.375,
      "duration": 0.125,
      "velocity": 0.71,
      "hand": "right"
    },
    {
      "midi": 70,
      "time": 10.375,
      "duration": 0.125,
      "velocity": 0.71,
      "hand": "right"
    },
    {
      "midi": 56,
      "time": 10.5,
      "duration": 0.125,
      "velocity": 0.71,
      "hand": "left"
    },
    {
      "midi": 72,
      "time": 10.5,
      "duration": 0.125,
      "velocity": 0.71,
      "hand": "right"
    },
    {
      "midi": 65,
      "time": 10.625,
      "duration": 0.125,
      "velocity": 0.71,
      "hand": "right"
    },
    {
      "midi": 68,
      "time": 10.625,
      "duration": 0.125,
      "velocity": 0.71,
      "hand": "right"
    },
    {
      "midi": 63,
      "time": 10.75,
      "duration": 0.125,
      "velocity": 0.71,
      "hand": "right"
    },
    {
      "midi": 67,
      "time": 10.75,
      "duration": 0.125,
      "velocity": 0.71,
      "hand": "right"
    },
    {
      "midi": 65,
      "time": 10.875,
      "duration": 0.125,
      "velocity": 0.71,
      "hand": "right"
    },
    {
      "midi": 68,
      "time": 10.875,
      "duration": 0.125,
      "velocity": 0.71,
      "hand": "right"
    },
    {
      "midi": 55,
      "time": 11,
      "duration": 0.25,
      "velocity": 0.71,
      "hand": "left"
    },
    {
      "midi": 70,
      "time": 11,
      "duration": 0.125,
      "velocity": 0.71,
      "hand": "right"
    },
    {
      "midi": 68,
      "time": 11.125,
      "duration": 0.125,
      "velocity": 0.71,
      "hand": "right"
    },
    {
      "midi": 67,
      "time": 11.25,
      "duration": 0.125,
      "velocity": 0.71,
      "hand": "right"
    },
    {
      "midi": 65,
      "time": 11.375,
      "duration": 0.125,
      "velocity": 0.71,
      "hand": "right"
    },
    {
      "midi": 63,
      "time": 11.5,
      "duration": 0.125,
      "velocity": 0.71,
      "hand": "right"
    },
    {
      "midi": 61,
      "time": 11.625,
      "duration": 0.125,
      "velocity": 0.71,
      "hand": "right"
    },
    {
      "midi": 60,
      "time": 11.75,
      "duration": 0.125,
      "velocity": 0.71,
      "hand": "right"
    },
    {
      "midi": 58,
      "time": 11.875,
      "duration": 0.125,
      "velocity": 0.71,
      "hand": "left"
    },
    {
      "midi": 56,
      "time": 12,
      "duration": 0.125,
      "velocity": 0.71,
      "hand": "left"
    },
    {
      "midi": 72,
      "time": 12,
      "duration": 0.125,
      "velocity": 0.71,
      "hand": "right"
    },
    {
      "midi": 65,
      "time": 12.125,
      "duration": 0.125,
      "velocity": 0.71,
      "hand": "right"
    },
    {
      "midi": 68,
      "time": 12.125,
      "duration": 0.125,
      "velocity": 0.71,
      "hand": "right"
    },
    {
      "midi": 63,
      "time": 12.25,
      "duration": 0.125,
      "velocity": 0.71,
      "hand": "right"
    },
    {
      "midi": 67,
      "time": 12.25,
      "duration": 0.125,
      "velocity": 0.71,
      "hand": "right"
    },
    {
      "midi": 65,
      "time": 12.375,
      "duration": 0.125,
      "velocity": 0.71,
      "hand": "right"
    },
    {
      "midi": 68,
      "time": 12.375,
      "duration": 0.125,
      "velocity": 0.71,
      "hand": "right"
    },
    {
      "midi": 55,
      "time": 12.5,
      "duration": 0.125,
      "velocity": 0.71,
      "hand": "left"
    },
    {
      "midi": 70,
      "time": 12.5,
      "duration": 0.125,
      "velocity": 0.71,
      "hand": "right"
    },
    {
      "midi": 63,
      "time": 12.625,
      "duration": 0.125,
      "velocity": 0.71,
      "hand": "right"
    },
    {
      "midi": 67,
      "time": 12.625,
      "duration": 0.125,
      "velocity": 0.71,
      "hand": "right"
    },
    {
      "midi": 62,
      "time": 12.75,
      "duration": 0.125,
      "velocity": 0.71,
      "hand": "right"
    },
    {
      "midi": 65,
      "time": 12.75,
      "duration": 0.125,
      "velocity": 0.71,
      "hand": "right"
    },
    {
      "midi": 63,
      "time": 12.875,
      "duration": 0.125,
      "velocity": 0.71,
      "hand": "right"
    },
    {
      "midi": 67,
      "time": 12.875,
      "duration": 0.125,
      "velocity": 0.71,
      "hand": "right"
    },
    {
      "midi": 53,
      "time": 13,
      "duration": 0.125,
      "velocity": 0.71,
      "hand": "left"
    },
    {
      "midi": 68,
      "time": 13,
      "duration": 0.125,
      "velocity": 0.71,
      "hand": "right"
    },
    {
      "midi": 62,
      "time": 13.125,
      "duration": 0.125,
      "velocity": 0.71,
      "hand": "right"
    },
    {
      "midi": 65,
      "time": 13.125,
      "duration": 0.125,
      "velocity": 0.71,
      "hand": "right"
    },
    {
      "midi": 60,
      "time": 13.25,
      "duration": 0.125,
      "velocity": 0.71,
      "hand": "right"
    },
    {
      "midi": 63,
      "time": 13.25,
      "duration": 0.125,
      "velocity": 0.71,
      "hand": "right"
    },
    {
      "midi": 62,
      "time": 13.375,
      "duration": 0.125,
      "velocity": 0.71,
      "hand": "right"
    },
    {
      "midi": 65,
      "time": 13.375,
      "duration": 0.125,
      "velocity": 0.71,
      "hand": "right"
    },
    {
      "midi": 51,
      "time": 13.5,
      "duration": 0.125,
      "velocity": 0.71,
      "hand": "left"
    },
    {
      "midi": 68,
      "time": 13.5,
      "duration": 0.25,
      "velocity": 0.71,
      "hand": "right"
    },
    {
      "midi": 60,
      "time": 13.625,
      "duration": 0.125,
      "velocity": 0.71,
      "hand": "right"
    },
    {
      "midi": 58,
      "time": 13.75,
      "duration": 0.125,
      "velocity": 0.71,
      "hand": "left"
    },
    {
      "midi": 68,
      "time": 13.75,
      "duration": 0.25,
      "velocity": 0.71,
      "hand": "right"
    },
    {
      "midi": 60,
      "time": 13.875,
      "duration": 0.125,
      "velocity": 0.71,
      "hand": "right"
    },
    {
      "midi": 62,
      "time": 14,
      "duration": 0.125,
      "velocity": 0.71,
      "hand": "right"
    },
    {
      "midi": 68,
      "time": 14,
      "duration": 0.125,
      "velocity": 0.71,
      "hand": "right"
    },
    {
      "midi": 58,
      "time": 14.125,
      "duration": 0.125,
      "velocity": 0.71,
      "hand": "left"
    },
    {
      "midi": 67,
      "time": 14.125,
      "duration": 0.125,
      "velocity": 0.71,
      "hand": "right"
    },
    {
      "midi": 56,
      "time": 14.25,
      "duration": 0.125,
      "velocity": 0.71,
      "hand": "left"
    },
    {
      "midi": 65,
      "time": 14.25,
      "duration": 0.125,
      "velocity": 0.71,
      "hand": "right"
    },
    {
      "midi": 58,
      "time": 14.375,
      "duration": 0.125,
      "velocity": 0.71,
      "hand": "left"
    },
    {
      "midi": 67,
      "time": 14.375,
      "duration": 0.125,
      "velocity": 0.71,
      "hand": "right"
    },
    {
      "midi": 60,
      "time": 14.5,
      "duration": 0.125,
      "velocity": 0.71,
      "hand": "right"
    },
    {
      "midi": 68,
      "time": 14.5,
      "duration": 0.25,
      "velocity": 0.71,
      "hand": "right"
    },
    {
      "midi": 56,
      "time": 14.625,
      "duration": 0.125,
      "velocity": 0.71,
      "hand": "left"
    },
    {
      "midi": 55,
      "time": 14.75,
      "duration": 0.125,
      "velocity": 0.71,
      "hand": "left"
    },
    {
      "midi": 68,
      "time": 14.75,
      "duration": 0.25,
      "velocity": 0.71,
      "hand": "right"
    },
    {
      "midi": 56,
      "time": 14.875,
      "duration": 0.125,
      "velocity": 0.71,
      "hand": "left"
    },
    {
      "midi": 46,
      "time": 15,
      "duration": 0.25,
      "velocity": 0.71,
      "hand": "left"
    },
    {
      "midi": 68,
      "time": 15,
      "duration": 0.125,
      "velocity": 0.71,
      "hand": "right"
    },
    {
      "midi": 74,
      "time": 15.125,
      "duration": 0.125,
      "velocity": 0.71,
      "hand": "right"
    },
    {
      "midi": 58,
      "time": 15.25,
      "duration": 0.25,
      "velocity": 0.71,
      "hand": "left"
    },
    {
      "midi": 77,
      "time": 15.25,
      "duration": 0.125,
      "velocity": 0.71,
      "hand": "right"
    },
    {
      "midi": 75,
      "time": 15.375,
      "duration": 0.125,
      "velocity": 0.71,
      "hand": "right"
    },
    {
      "midi": 74,
      "time": 15.5,
      "duration": 0.125,
      "velocity": 0.71,
      "hand": "right"
    },
    {
      "midi": 72,
      "time": 15.625,
      "duration": 0.125,
      "velocity": 0.71,
      "hand": "right"
    },
    {
      "midi": 50,
      "time": 15.75,
      "duration": 0.25,
      "velocity": 0.71,
      "hand": "left"
    },
    {
      "midi": 70,
      "time": 15.75,
      "duration": 0.125,
      "velocity": 0.71,
      "hand": "right"
    },
    {
      "midi": 68,
      "time": 15.875,
      "duration": 0.125,
      "velocity": 0.71,
      "hand": "right"
    },
    {
      "midi": 51,
      "time": 16,
      "duration": 0.25,
      "velocity": 0.71,
      "hand": "left"
    },
    {
      "midi": 67,
      "time": 16,
      "duration": 0.125,
      "velocity": 0.71,
      "hand": "right"
    },
    {
      "midi": 70,
      "time": 16.125,
      "duration": 0.125,
      "velocity": 0.71,
      "hand": "right"
    },
    {
      "midi": 48,
      "time": 16.25,
      "duration": 0.25,
      "velocity": 0.71,
      "hand": "left"
    },
    {
      "midi": 75,
      "time": 16.25,
      "duration": 0.125,
      "velocity": 0.71,
      "hand": "right"
    },
    {
      "midi": 79,
      "time": 16.375,
      "duration": 0.125,
      "velocity": 0.71,
      "hand": "right"
    },
    {
      "midi": 44,
      "time": 16.5,
      "duration": 0.25,
      "velocity": 0.71,
      "hand": "left"
    },
    {
      "midi": 77,
      "time": 16.5,
      "duration": 0.125,
      "velocity": 0.71,
      "hand": "right"
    },
    {
      "midi": 75,
      "time": 16.625,
      "duration": 0.125,
      "velocity": 0.71,
      "hand": "right"
    },
    {
      "midi": 46,
      "time": 16.75,
      "duration": 0.25,
      "velocity": 0.71,
      "hand": "left"
    },
    {
      "midi": 77,
      "time": 16.75,
      "duration": 0.125,
      "velocity": 0.71,
      "hand": "right"
    },
    {
      "midi": 74,
      "time": 16.875,
      "duration": 0.125,
      "velocity": 0.71,
      "hand": "right"
    },
    {
      "midi": 39,
      "time": 17,
      "duration": 0.25,
      "velocity": 0.71,
      "hand": "left"
    },
    {
      "midi": 75,
      "time": 17,
      "duration": 0.125,
      "velocity": 0.71,
      "hand": "right"
    },
    {
      "midi": 70,
      "time": 17.125,
      "duration": 0.125,
      "velocity": 0.71,
      "hand": "right"
    },
    {
      "midi": 51,
      "time": 17.25,
      "duration": 0.25,
      "velocity": 0.71,
      "hand": "left"
    },
    {
      "midi": 68,
      "time": 17.25,
      "duration": 0.125,
      "velocity": 0.71,
      "hand": "right"
    },
    {
      "midi": 70,
      "time": 17.375,
      "duration": 0.125,
      "velocity": 0.71,
      "hand": "right"
    },
    {
      "midi": 56,
      "time": 17.5,
      "duration": 0.25,
      "velocity": 0.71,
      "hand": "left"
    },
    {
      "midi": 72,
      "time": 17.5,
      "duration": 0.125,
      "velocity": 0.71,
      "hand": "right"
    },
    {
      "midi": 68,
      "time": 17.625,
      "duration": 0.125,
      "velocity": 0.71,
      "hand": "right"
    },
    {
      "midi": 51,
      "time": 17.75,
      "duration": 0.25,
      "velocity": 0.71,
      "hand": "left"
    },
    {
      "midi": 67,
      "time": 17.75,
      "duration": 0.125,
      "velocity": 0.71,
      "hand": "right"
    },
    {
      "midi": 68,
      "time": 17.875,
      "duration": 0.125,
      "velocity": 0.71,
      "hand": "right"
    },
    {
      "midi": 43,
      "time": 18,
      "duration": 0.25,
      "velocity": 0.71,
      "hand": "left"
    },
    {
      "midi": 70,
      "time": 18,
      "duration": 0.125,
      "velocity": 0.71,
      "hand": "right"
    },
    {
      "midi": 67,
      "time": 18.125,
      "duration": 0.125,
      "velocity": 0.71,
      "hand": "right"
    },
    {
      "midi": 51,
      "time": 18.25,
      "duration": 0.25,
      "velocity": 0.71,
      "hand": "left"
    },
    {
      "midi": 65,
      "time": 18.25,
      "duration": 0.125,
      "velocity": 0.71,
      "hand": "right"
    },
    {
      "midi": 67,
      "time": 18.375,
      "duration": 0.125,
      "velocity": 0.71,
      "hand": "right"
    },
    {
      "midi": 41,
      "time": 18.5,
      "duration": 0.25,
      "velocity": 0.71,
      "hand": "left"
    },
    {
      "midi": 68,
      "time": 18.5,
      "duration": 0.125,
      "velocity": 0.71,
      "hand": "right"
    },
    {
      "midi": 65,
      "time": 18.625,
      "duration": 0.125,
      "velocity": 0.71,
      "hand": "right"
    },
    {
      "midi": 50,
      "time": 18.75,
      "duration": 0.25,
      "velocity": 0.71,
      "hand": "left"
    },
    {
      "midi": 63,
      "time": 18.75,
      "duration": 0.125,
      "velocity": 0.71,
      "hand": "right"
    },
    {
      "midi": 65,
      "time": 18.875,
      "duration": 0.125,
      "velocity": 0.71,
      "hand": "right"
    },
    {
      "midi": 51,
      "time": 19,
      "duration": 0.125,
      "velocity": 0.71,
      "hand": "left"
    },
    {
      "midi": 67,
      "time": 19,
      "duration": 0.125,
      "velocity": 0.71,
      "hand": "right"
    },
    {
      "midi": 55,
      "time": 19.125,
      "duration": 0.125,
      "velocity": 0.71,
      "hand": "left"
    },
    {
      "midi": 63,
      "time": 19.125,
      "duration": 0.125,
      "velocity": 0.71,
      "hand": "right"
    },
    {
      "midi": 53,
      "time": 19.25,
      "duration": 0.125,
      "velocity": 0.71,
      "hand": "left"
    },
    {
      "midi": 62,
      "time": 19.25,
      "duration": 0.125,
      "velocity": 0.71,
      "hand": "right"
    },
    {
      "midi": 55,
      "time": 19.375,
      "duration": 0.125,
      "velocity": 0.71,
      "hand": "left"
    },
    {
      "midi": 63,
      "time": 19.375,
      "duration": 0.125,
      "velocity": 0.71,
      "hand": "right"
    },
    {
      "midi": 56,
      "time": 19.5,
      "duration": 0.125,
      "velocity": 0.71,
      "hand": "left"
    },
    {
      "midi": 60,
      "time": 19.5,
      "duration": 0.25,
      "velocity": 0.71,
      "hand": "right"
    },
    {
      "midi": 53,
      "time": 19.625,
      "duration": 0.125,
      "velocity": 0.71,
      "hand": "left"
    },
    {
      "midi": 51,
      "time": 19.75,
      "duration": 0.125,
      "velocity": 0.71,
      "hand": "left"
    },
    {
      "midi": 68,
      "time": 19.75,
      "duration": 0.25,
      "velocity": 0.71,
      "hand": "right"
    },
    {
      "midi": 53,
      "time": 19.875,
      "duration": 0.125,
      "velocity": 0.71,
      "hand": "left"
    },
    {
      "midi": 55,
      "time": 20,
      "duration": 0.125,
      "velocity": 0.71,
      "hand": "left"
    },
    {
      "midi": 58,
      "time": 20,
      "duration": 0.25,
      "velocity": 0.71,
      "hand": "left"
    },
    {
      "midi": 51,
      "time": 20.125,
      "duration": 0.125,
      "velocity": 0.71,
      "hand": "left"
    },
    {
      "midi": 50,
      "time": 20.25,
      "duration": 0.125,
      "velocity": 0.71,
      "hand": "left"
    },
    {
      "midi": 67,
      "time": 20.25,
      "duration": 0.25,
      "velocity": 0.71,
      "hand": "right"
    },
    {
      "midi": 51,
      "time": 20.375,
      "duration": 0.125,
      "velocity": 0.71,
      "hand": "left"
    },
    {
      "midi": 53,
      "time": 20.5,
      "duration": 0.125,
      "velocity": 0.71,
      "hand": "left"
    },
    {
      "midi": 56,
      "time": 20.5,
      "duration": 0.25,
      "velocity": 0.71,
      "hand": "left"
    },
    {
      "midi": 50,
      "time": 20.625,
      "duration": 0.125,
      "velocity": 0.71,
      "hand": "left"
    },
    {
      "midi": 48,
      "time": 20.75,
      "duration": 0.125,
      "velocity": 0.71,
      "hand": "left"
    },
    {
      "midi": 65,
      "time": 20.75,
      "duration": 0.25,
      "velocity": 0.71,
      "hand": "right"
    },
    {
      "midi": 50,
      "time": 20.875,
      "duration": 0.125,
      "velocity": 0.71,
      "hand": "left"
    },
    {
      "midi": 51,
      "time": 21,
      "duration": 0.25,
      "velocity": 0.71,
      "hand": "left"
    },
    {
      "midi": 55,
      "time": 21,
      "duration": 0.125,
      "velocity": 0.71,
      "hand": "left"
    },
    {
      "midi": 58,
      "time": 21.125,
      "duration": 0.125,
      "velocity": 0.71,
      "hand": "left"
    },
    {
      "midi": 55,
      "time": 21.25,
      "duration": 0.25,
      "velocity": 0.71,
      "hand": "left"
    },
    {
      "midi": 63,
      "time": 21.25,
      "duration": 0.125,
      "velocity": 0.71,
      "hand": "right"
    },
    {
      "midi": 67,
      "time": 21.375,
      "duration": 0.25,
      "velocity": 0.71,
      "hand": "right"
    },
    {
      "midi": 56,
      "time": 21.5,
      "duration": 0.25,
      "velocity": 0.71,
      "hand": "left"
    },
    {
      "midi": 65,
      "time": 21.625,
      "duration": 0.125,
      "velocity": 0.71,
      "hand": "right"
    },
    {
      "midi": 58,
      "time": 21.75,
      "duration": 0.25,
      "velocity": 0.71,
      "hand": "left"
    },
    {
      "midi": 63,
      "time": 21.75,
      "duration": 0.125,
      "velocity": 0.71,
      "hand": "right"
    },
    {
      "midi": 62,
      "time": 21.875,
      "duration": 0.125,
      "velocity": 0.71,
      "hand": "right"
    },
    {
      "midi": 60,
      "time": 22,
      "duration": 0.25,
      "velocity": 0.71,
      "hand": "right"
    },
    {
      "midi": 63,
      "time": 22,
      "duration": 0.5,
      "velocity": 0.71,
      "hand": "right"
    },
    {
      "midi": 67,
      "time": 22.125,
      "duration": 0.125,
      "velocity": 0.71,
      "hand": "right"
    },
    {
      "midi": 56,
      "time": 22.25,
      "duration": 0.25,
      "velocity": 0.71,
      "hand": "left"
    },
    {
      "midi": 72,
      "time": 22.25,
      "duration": 0.25,
      "velocity": 0.71,
      "hand": "right"
    },
    {
      "midi": 65,
      "time": 22.375,
      "duration": 0.125,
      "velocity": 0.71,
      "hand": "right"
    },
    {
      "midi": 58,
      "time": 22.5,
      "duration": 0.25,
      "velocity": 0.71,
      "hand": "left"
    },
    {
      "midi": 63,
      "time": 22.5,
      "duration": 0.125,
      "velocity": 0.71,
      "hand": "right"
    },
    {
      "midi": 67,
      "time": 22.5,
      "duration": 0.25,
      "velocity": 0.71,
      "hand": "right"
    },
    {
      "midi": 70,
      "time": 22.5,
      "duration": 0.25,
      "velocity": 0.71,
      "hand": "right"
    },
    {
      "midi": 63,
      "time": 22.625,
      "duration": 0.25,
      "velocity": 0.71,
      "hand": "right"
    },
    {
      "midi": 46,
      "time": 22.75,
      "duration": 0.25,
      "velocity": 0.71,
      "hand": "left"
    },
    {
      "midi": 65,
      "time": 22.75,
      "duration": 0.25,
      "velocity": 0.71,
      "hand": "right"
    },
    {
      "midi": 68,
      "time": 22.75,
      "duration": 0.25,
      "velocity": 0.71,
      "hand": "right"
    },
    {
      "midi": 62,
      "time": 22.875,
      "duration": 0.125,
      "velocity": 0.71,
      "hand": "right"
    },
    {
      "midi": 58,
      "time": 23,
      "duration": 1,
      "velocity": 0.71,
      "hand": "left"
    },
    {
      "midi": 63,
      "time": 23,
      "duration": 1,
      "velocity": 0.71,
      "hand": "right"
    },
    {
      "midi": 67,
      "time": 23,
      "duration": 1,
      "velocity": 0.71,
      "hand": "right"
    },
    {
      "midi": 51,
      "time": 23.125,
      "duration": 0.125,
      "velocity": 0.71,
      "hand": "left"
    },
    {
      "midi": 46,
      "time": 23.25,
      "duration": 0.125,
      "velocity": 0.71,
      "hand": "left"
    },
    {
      "midi": 43,
      "time": 23.375,
      "duration": 0.125,
      "velocity": 0.71,
      "hand": "left"
    },
    {
      "midi": 39,
      "time": 23.5,
      "duration": 0.5,
      "velocity": 0.71,
      "hand": "left"
    },
    {
      "midi": 51,
      "time": 24,
      "duration": 0.25,
      "velocity": 0.71,
      "hand": "left"
    },
    {
      "midi": 70,
      "time": 24.125,
      "duration": 0.125,
      "velocity": 0.71,
      "hand": "right"
    },
    {
      "midi": 53,
      "time": 24.25,
      "duration": 0.25,
      "velocity": 0.71,
      "hand": "left"
    },
    {
      "midi": 69,
      "time": 24.25,
      "duration": 0.125,
      "velocity": 0.71,
      "hand": "right"
    },
    {
      "midi": 70,
      "time": 24.375,
      "duration": 0.125,
      "velocity": 0.71,
      "hand": "right"
    },
    {
      "midi": 55,
      "time": 24.5,
      "duration": 0.25,
      "velocity": 0.71,
      "hand": "left"
    },
    {
      "midi": 75,
      "time": 24.5,
      "duration": 0.125,
      "velocity": 0.71,
      "hand": "right"
    },
    {
      "midi": 70,
      "time": 24.625,
      "duration": 0.125,
      "velocity": 0.71,
      "hand": "right"
    },
    {
      "midi": 51,
      "time": 24.75,
      "duration": 0.25,
      "velocity": 0.71,
      "hand": "left"
    },
    {
      "midi": 69,
      "time": 24.75,
      "duration": 0.125,
      "velocity": 0.71,
      "hand": "right"
    },
    {
      "midi": 70,
      "time": 24.875,
      "duration": 0.125,
      "velocity": 0.71,
      "hand": "right"
    },
    {
      "midi": 50,
      "time": 25,
      "duration": 0.25,
      "velocity": 0.71,
      "hand": "left"
    },
    {
      "midi": 77,
      "time": 25,
      "duration": 0.125,
      "velocity": 0.71,
      "hand": "right"
    },
    {
      "midi": 70,
      "time": 25.125,
      "duration": 0.125,
      "velocity": 0.71,
      "hand": "right"
    },
    {
      "midi": 48,
      "time": 25.25,
      "duration": 0.25,
      "velocity": 0.71,
      "hand": "left"
    },
    {
      "midi": 69,
      "time": 25.25,
      "duration": 0.125,
      "velocity": 0.71,
      "hand": "right"
    },
    {
      "midi": 70,
      "time": 25.375,
      "duration": 0.125,
      "velocity": 0.71,
      "hand": "right"
    },
    {
      "midi": 50,
      "time": 25.5,
      "duration": 0.25,
      "velocity": 0.71,
      "hand": "left"
    },
    {
      "midi": 80,
      "time": 25.5,
      "duration": 0.125,
      "velocity": 0.71,
      "hand": "right"
    },
    {
      "midi": 70,
      "time": 25.625,
      "duration": 0.125,
      "velocity": 0.71,
      "hand": "right"
    },
    {
      "midi": 46,
      "time": 25.75,
      "duration": 0.25,
      "velocity": 0.71,
      "hand": "left"
    },
    {
      "midi": 69,
      "time": 25.75,
      "duration": 0.125,
      "velocity": 0.71,
      "hand": "right"
    },
    {
      "midi": 70,
      "time": 25.875,
      "duration": 0.125,
      "velocity": 0.71,
      "hand": "right"
    },
    {
      "midi": 51,
      "time": 26,
      "duration": 0.125,
      "velocity": 0.71,
      "hand": "left"
    },
    {
      "midi": 79,
      "time": 26,
      "duration": 0.25,
      "velocity": 0.71,
      "hand": "right"
    },
    {
      "midi": 55,
      "time": 26.125,
      "duration": 0.125,
      "velocity": 0.71,
      "hand": "left"
    },
    {
      "midi": 56,
      "time": 26.25,
      "duration": 0.125,
      "velocity": 0.71,
      "hand": "left"
    },
    {
      "midi": 75,
      "time": 26.25,
      "duration": 0.25,
      "velocity": 0.71,
      "hand": "right"
    },
    {
      "midi": 55,
      "time": 26.375,
      "duration": 0.125,
      "velocity": 0.71,
      "hand": "left"
    },
    {
      "midi": 44,
      "time": 26.5,
      "duration": 0.125,
      "velocity": 0.71,
      "hand": "left"
    },
    {
      "midi": 72,
      "time": 26.5,
      "duration": 0.125,
      "velocity": 0.71,
      "hand": "right"
    },
    {
      "midi": 55,
      "time": 26.625,
      "duration": 0.125,
      "velocity": 0.71,
      "hand": "left"
    },
    {
      "midi": 71,
      "time": 26.625,
      "duration": 0.125,
      "velocity": 0.71,
      "hand": "right"
    },
    {
      "midi": 56,
      "time": 26.75,
      "duration": 0.125,
      "velocity": 0.71,
      "hand": "left"
    },
    {
      "midi": 72,
      "time": 26.75,
      "duration": 0.25,
      "velocity": 0.71,
      "hand": "right"
    },
    {
      "midi": 55,
      "time": 26.875,
      "duration": 0.125,
      "velocity": 0.71,
      "hand": "left"
    },
    {
      "midi": 50,
      "time": 27,
      "duration": 0.125,
      "velocity": 0.71,
      "hand": "left"
    },
    {
      "midi": 77,
      "time": 27,
      "duration": 0.25,
      "velocity": 0.71,
      "hand": "right"
    },
    {
      "midi": 53,
      "time": 27.125,
      "duration": 0.125,
      "velocity": 0.71,
      "hand": "left"
    },
    {
      "midi": 55,
      "time": 27.25,
      "duration": 0.125,
      "velocity": 0.71,
      "hand": "left"
    },
    {
      "midi": 74,
      "time": 27.25,
      "duration": 0.25,
      "velocity": 0.71,
      "hand": "right"
    },
    {
      "midi": 53,
      "time": 27.375,
      "duration": 0.125,
      "velocity": 0.71,
      "hand": "left"
    },
    {
      "midi": 43,
      "time": 27.5,
      "duration": 0.125,
      "velocity": 0.71,
      "hand": "left"
    },
    {
      "midi": 71,
      "time": 27.5,
      "duration": 0.125,
      "velocity": 0.71,
      "hand": "right"
    },
    {
      "midi": 53,
      "time": 27.625,
      "duration": 0.125,
      "velocity": 0.71,
      "hand": "left"
    },
    {
      "midi": 69,
      "time": 27.625,
      "duration": 0.125,
      "velocity": 0.71,
      "hand": "right"
    },
    {
      "midi": 55,
      "time": 27.75,
      "duration": 0.125,
      "velocity": 0.71,
      "hand": "left"
    },
    {
      "midi": 71,
      "time": 27.75,
      "duration": 0.25,
      "velocity": 0.71,
      "hand": "right"
    },
    {
      "midi": 53,
      "time": 27.875,
      "duration": 0.125,
      "velocity": 0.71,
      "hand": "left"
    },
    {
      "midi": 48,
      "time": 28,
      "duration": 0.25,
      "velocity": 0.71,
      "hand": "left"
    },
    {
      "midi": 75,
      "time": 28,
      "duration": 0.125,
      "velocity": 0.71,
      "hand": "right"
    },
    {
      "midi": 63,
      "time": 28.125,
      "duration": 0.125,
      "velocity": 0.71,
      "hand": "right"
    },
    {
      "midi": 60,
      "time": 28.25,
      "duration": 0.25,
      "velocity": 0.71,
      "hand": "right"
    },
    {
      "midi": 62,
      "time": 28.25,
      "duration": 0.125,
      "velocity": 0.71,
      "hand": "right"
    },
    {
      "midi": 63,
      "time": 28.375,
      "duration": 0.125,
      "velocity": 0.71,
      "hand": "right"
    },
    {
      "midi": 58,
      "time": 28.5,
      "duration": 0.25,
      "velocity": 0.71,
      "hand": "left"
    },
    {
      "midi": 67,
      "time": 28.5,
      "duration": 0.125,
      "velocity": 0.71,
      "hand": "right"
    },
    {
      "midi": 63,
      "time": 28.625,
      "duration": 0.125,
      "velocity": 0.71,
      "hand": "right"
    },
    {
      "midi": 56,
      "time": 28.75,
      "duration": 0.25,
      "velocity": 0.71,
      "hand": "left"
    },
    {
      "midi": 62,
      "time": 28.75,
      "duration": 0.125,
      "velocity": 0.71,
      "hand": "right"
    },
    {
      "midi": 63,
      "time": 28.875,
      "duration": 0.125,
      "velocity": 0.71,
      "hand": "right"
    },
    {
      "midi": 55,
      "time": 29,
      "duration": 0.25,
      "velocity": 0.71,
      "hand": "left"
    },
    {
      "midi": 70,
      "time": 29,
      "duration": 0.125,
      "velocity": 0.71,
      "hand": "right"
    },
    {
      "midi": 63,
      "time": 29.125,
      "duration": 0.125,
      "velocity": 0.71,
      "hand": "right"
    },
    {
      "midi": 53,
      "time": 29.25,
      "duration": 0.25,
      "velocity": 0.71,
      "hand": "left"
    },
    {
      "midi": 62,
      "time": 29.25,
      "duration": 0.125,
      "velocity": 0.71,
      "hand": "right"
    },
    {
      "midi": 63,
      "time": 29.375,
      "duration": 0.125,
      "velocity": 0.71,
      "hand": "right"
    },
    {
      "midi": 55,
      "time": 29.5,
      "duration": 0.25,
      "velocity": 0.71,
      "hand": "left"
    },
    {
      "midi": 73,
      "time": 29.5,
      "duration": 0.125,
      "velocity": 0.71,
      "hand": "right"
    },
    {
      "midi": 63,
      "time": 29.625,
      "duration": 0.125,
      "velocity": 0.71,
      "hand": "right"
    },
    {
      "midi": 51,
      "time": 29.75,
      "duration": 0.25,
      "velocity": 0.71,
      "hand": "left"
    },
    {
      "midi": 62,
      "time": 29.75,
      "duration": 0.125,
      "velocity": 0.71,
      "hand": "right"
    },
    {
      "midi": 63,
      "time": 29.875,
      "duration": 0.125,
      "velocity": 0.71,
      "hand": "right"
    },
    {
      "midi": 56,
      "time": 30,
      "duration": 0.125,
      "velocity": 0.71,
      "hand": "left"
    },
    {
      "midi": 72,
      "time": 30,
      "duration": 0.25,
      "velocity": 0.71,
      "hand": "right"
    },
    {
      "midi": 60,
      "time": 30.125,
      "duration": 0.125,
      "velocity": 0.71,
      "hand": "right"
    },
    {
      "midi": 61,
      "time": 30.25,
      "duration": 0.125,
      "velocity": 0.71,
      "hand": "right"
    },
    {
      "midi": 68,
      "time": 30.25,
      "duration": 0.25,
      "velocity": 0.71,
      "hand": "right"
    },
    {
      "midi": 60,
      "time": 30.375,
      "duration": 0.125,
      "velocity": 0.71,
      "hand": "right"
    },
    {
      "midi": 49,
      "time": 30.5,
      "duration": 0.125,
      "velocity": 0.71,
      "hand": "left"
    },
    {
      "midi": 65,
      "time": 30.5,
      "duration": 0.125,
      "velocity": 0.71,
      "hand": "right"
    },
    {
      "midi": 60,
      "time": 30.625,
      "duration": 0.125,
      "velocity": 0.71,
      "hand": "right"
    },
    {
      "midi": 64,
      "time": 30.625,
      "duration": 0.125,
      "velocity": 0.71,
      "hand": "right"
    },
    {
      "midi": 61,
      "time": 30.75,
      "duration": 0.125,
      "velocity": 0.71,
      "hand": "right"
    },
    {
      "midi": 65,
      "time": 30.75,
      "duration": 0.25,
      "velocity": 0.71,
      "hand": "right"
    },
    {
      "midi": 60,
      "time": 30.875,
      "duration": 0.125,
      "velocity": 0.71,
      "hand": "right"
    },
    {
      "midi": 55,
      "time": 31,
      "duration": 0.125,
      "velocity": 0.71,
      "hand": "left"
    },
    {
      "midi": 70,
      "time": 31,
      "duration": 0.25,
      "velocity": 0.71,
      "hand": "right"
    },
    {
      "midi": 58,
      "time": 31.125,
      "duration": 0.125,
      "velocity": 0.71,
      "hand": "left"
    },
    {
      "midi": 60,
      "time": 31.25,
      "duration": 0.125,
      "velocity": 0.71,
      "hand": "right"
    },
    {
      "midi": 67,
      "time": 31.25,
      "duration": 0.25,
      "velocity": 0.71,
      "hand": "right"
    },
    {
      "midi": 58,
      "time": 31.375,
      "duration": 0.125,
      "velocity": 0.71,
      "hand": "left"
    },
    {
      "midi": 48,
      "time": 31.5,
      "duration": 0.125,
      "velocity": 0.71,
      "hand": "left"
    },
    {
      "midi": 64,
      "time": 31.5,
      "duration": 0.125,
      "velocity": 0.71,
      "hand": "right"
    },
    {
      "midi": 58,
      "time": 31.625,
      "duration": 0.125,
      "velocity": 0.71,
      "hand": "left"
    },
    {
      "midi": 62,
      "time": 31.625,
      "duration": 0.125,
      "velocity": 0.71,
      "hand": "right"
    },
    {
      "midi": 60,
      "time": 31.75,
      "duration": 0.125,
      "velocity": 0.71,
      "hand": "right"
    },
    {
      "midi": 64,
      "time": 31.75,
      "duration": 0.25,
      "velocity": 0.71,
      "hand": "right"
    },
    {
      "midi": 58,
      "time": 31.875,
      "duration": 0.125,
      "velocity": 0.71,
      "hand": "left"
    },
    {
      "midi": 53,
      "time": 32,
      "duration": 0.25,
      "velocity": 0.71,
      "hand": "left"
    },
    {
      "midi": 68,
      "time": 32,
      "duration": 0.125,
      "velocity": 0.71,
      "hand": "right"
    },
    {
      "midi": 72,
      "time": 32.125,
      "duration": 0.125,
      "velocity": 0.71,
      "hand": "right"
    },
    {
      "midi": 56,
      "time": 32.25,
      "duration": 0.25,
      "velocity": 0.71,
      "hand": "left"
    },
    {
      "midi": 71,
      "time": 32.25,
      "duration": 0.125,
      "velocity": 0.71,
      "hand": "right"
    },
    {
      "midi": 72,
      "time": 32.375,
      "duration": 0.125,
      "velocity": 0.71,
      "hand": "right"
    },
    {
      "midi": 53,
      "time": 32.5,
      "duration": 0.25,
      "velocity": 0.71,
      "hand": "left"
    },
    {
      "midi": 73,
      "time": 32.5,
      "duration": 0.125,
      "velocity": 0.71,
      "hand": "right"
    },
    {
      "midi": 72,
      "time": 32.625,
      "duration": 0.125,
      "velocity": 0.71,
      "hand": "right"
    },
    {
      "midi": 49,
      "time": 32.75,
      "duration": 0.25,
      "velocity": 0.71,
      "hand": "left"
    },
    {
      "midi": 71,
      "time": 32.75,
      "duration": 0.125,
      "velocity": 0.71,
      "hand": "right"
    },
    {
      "midi": 72,
      "time": 32.875,
      "duration": 0.125,
      "velocity": 0.71,
      "hand": "right"
    },
    {
      "midi": 52,
      "time": 33,
      "duration": 0.25,
      "velocity": 0.71,
      "hand": "left"
    },
    {
      "midi": 67,
      "time": 33,
      "duration": 0.125,
      "velocity": 0.71,
      "hand": "right"
    },
    {
      "midi": 72,
      "time": 33.125,
      "duration": 0.125,
      "velocity": 0.71,
      "hand": "right"
    },
    {
      "midi": 55,
      "time": 33.25,
      "duration": 0.25,
      "velocity": 0.71,
      "hand": "left"
    },
    {
      "midi": 71,
      "time": 33.25,
      "duration": 0.125,
      "velocity": 0.71,
      "hand": "right"
    },
    {
      "midi": 72,
      "time": 33.375,
      "duration": 0.125,
      "velocity": 0.71,
      "hand": "right"
    },
    {
      "midi": 51,
      "time": 33.5,
      "duration": 0.25,
      "velocity": 0.71,
      "hand": "left"
    },
    {
      "midi": 73,
      "time": 33.5,
      "duration": 0.125,
      "velocity": 0.71,
      "hand": "right"
    },
    {
      "midi": 72,
      "time": 33.625,
      "duration": 0.125,
      "velocity": 0.71,
      "hand": "right"
    },
    {
      "midi": 48,
      "time": 33.75,
      "duration": 0.25,
      "velocity": 0.71,
      "hand": "left"
    },
    {
      "midi": 71,
      "time": 33.75,
      "duration": 0.125,
      "velocity": 0.71,
      "hand": "right"
    },
    {
      "midi": 72,
      "time": 33.875,
      "duration": 0.125,
      "velocity": 0.71,
      "hand": "right"
    },
    {
      "midi": 50,
      "time": 34,
      "duration": 0.25,
      "velocity": 0.71,
      "hand": "left"
    },
    {
      "midi": 65,
      "time": 34,
      "duration": 0.125,
      "velocity": 0.71,
      "hand": "right"
    },
    {
      "midi": 72,
      "time": 34.125,
      "duration": 0.125,
      "velocity": 0.71,
      "hand": "right"
    },
    {
      "midi": 53,
      "time": 34.25,
      "duration": 0.25,
      "velocity": 0.71,
      "hand": "left"
    },
    {
      "midi": 74,
      "time": 34.25,
      "duration": 0.125,
      "velocity": 0.71,
      "hand": "right"
    },
    {
      "midi": 76,
      "time": 34.375,
      "duration": 0.125,
      "velocity": 0.71,
      "hand": "right"
    },
    {
      "midi": 49,
      "time": 34.5,
      "duration": 0.25,
      "velocity": 0.71,
      "hand": "left"
    },
    {
      "midi": 77,
      "time": 34.5,
      "duration": 0.125,
      "velocity": 0.71,
      "hand": "right"
    },
    {
      "midi": 70,
      "time": 34.625,
      "duration": 0.125,
      "velocity": 0.71,
      "hand": "right"
    },
    {
      "midi": 58,
      "time": 34.75,
      "duration": 0.25,
      "velocity": 0.71,
      "hand": "left"
    },
    {
      "midi": 69,
      "time": 34.75,
      "duration": 0.125,
      "velocity": 0.71,
      "hand": "right"
    },
    {
      "midi": 70,
      "time": 34.875,
      "duration": 0.125,
      "velocity": 0.71,
      "hand": "right"
    },
    {
      "midi": 48,
      "time": 35,
      "duration": 0.25,
      "velocity": 0.71,
      "hand": "left"
    },
    {
      "midi": 79,
      "time": 35,
      "duration": 0.125,
      "velocity": 0.71,
      "hand": "right"
    },
    {
      "midi": 77,
      "time": 35.125,
      "duration": 0.125,
      "velocity": 0.71,
      "hand": "right"
    },
    {
      "midi": 50,
      "time": 35.25,
      "duration": 0.25,
      "velocity": 0.71,
      "hand": "left"
    },
    {
      "midi": 76,
      "time": 35.25,
      "duration": 0.125,
      "velocity": 0.71,
      "hand": "right"
    },
    {
      "midi": 74,
      "time": 35.375,
      "duration": 0.125,
      "velocity": 0.71,
      "hand": "right"
    },
    {
      "midi": 52,
      "time": 35.5,
      "duration": 0.25,
      "velocity": 0.71,
      "hand": "left"
    },
    {
      "midi": 72,
      "time": 35.5,
      "duration": 0.125,
      "velocity": 0.71,
      "hand": "right"
    },
    {
      "midi": 70,
      "time": 35.625,
      "duration": 0.125,
      "velocity": 0.71,
      "hand": "right"
    },
    {
      "midi": 48,
      "time": 35.75,
      "duration": 0.25,
      "velocity": 0.71,
      "hand": "left"
    },
    {
      "midi": 68,
      "time": 35.75,
      "duration": 0.125,
      "velocity": 0.71,
      "hand": "right"
    },
    {
      "midi": 67,
      "time": 35.875,
      "duration": 0.125,
      "velocity": 0.71,
      "hand": "right"
    },
    {
      "midi": 53,
      "time": 36,
      "duration": 0.125,
      "velocity": 0.71,
      "hand": "left"
    },
    {
      "midi": 68,
      "time": 36,
      "duration": 0.125,
      "velocity": 0.71,
      "hand": "right"
    },
    {
      "midi": 56,
      "time": 36.125,
      "duration": 0.125,
      "velocity": 0.71,
      "hand": "left"
    },
    {
      "midi": 65,
      "time": 36.125,
      "duration": 0.125,
      "velocity": 0.71,
      "hand": "right"
    },
    {
      "midi": 55,
      "time": 36.25,
      "duration": 0.125,
      "velocity": 0.71,
      "hand": "left"
    },
    {
      "midi": 64,
      "time": 36.25,
      "duration": 0.125,
      "velocity": 0.71,
      "hand": "right"
    },
    {
      "midi": 56,
      "time": 36.375,
      "duration": 0.125,
      "velocity": 0.71,
      "hand": "left"
    },
    {
      "midi": 65,
      "time": 36.375,
      "duration": 0.125,
      "velocity": 0.71,
      "hand": "right"
    },
    {
      "midi": 51,
      "time": 36.5,
      "duration": 0.125,
      "velocity": 0.71,
      "hand": "left"
    },
    {
      "midi": 72,
      "time": 36.5,
      "duration": 0.125,
      "velocity": 0.71,
      "hand": "right"
    },
    {
      "midi": 60,
      "time": 36.625,
      "duration": 0.125,
      "velocity": 0.71,
      "hand": "right"
    },
    {
      "midi": 68,
      "time": 36.625,
      "duration": 0.125,
      "velocity": 0.71,
      "hand": "right"
    },
    {
      "midi": 58,
      "time": 36.75,
      "duration": 0.125,
      "velocity": 0.71,
      "hand": "left"
    },
    {
      "midi": 67,
      "time": 36.75,
      "duration": 0.125,
      "velocity": 0.71,
      "hand": "right"
    },
    {
      "midi": 60,
      "time": 36.875,
      "duration": 0.125,
      "velocity": 0.71,
      "hand": "right"
    },
    {
      "midi": 68,
      "time": 36.875,
      "duration": 0.125,
      "velocity": 0.71,
      "hand": "right"
    },
    {
      "midi": 49,
      "time": 37,
      "duration": 0.25,
      "velocity": 0.71,
      "hand": "left"
    },
    {
      "midi": 77,
      "time": 37,
      "duration": 0.125,
      "velocity": 0.71,
      "hand": "right"
    },
    {
      "midi": 75,
      "time": 37.125,
      "duration": 0.125,
      "velocity": 0.71,
      "hand": "right"
    },
    {
      "midi": 53,
      "time": 37.25,
      "duration": 0.25,
      "velocity": 0.71,
      "hand": "left"
    },
    {
      "midi": 73,
      "time": 37.25,
      "duration": 0.125,
      "velocity": 0.71,
      "hand": "right"
    },
    {
      "midi": 72,
      "time": 37.375,
      "duration": 0.125,
      "velocity": 0.71,
      "hand": "right"
    },
    {
      "midi": 58,
      "time": 37.5,
      "duration": 0.25,
      "velocity": 0.71,
      "hand": "left"
    },
    {
      "midi": 70,
      "time": 37.5,
      "duration": 0.125,
      "velocity": 0.71,
      "hand": "right"
    },
    {
      "midi": 68,
      "time": 37.625,
      "duration": 0.125,
      "velocity": 0.71,
      "hand": "right"
    },
    {
      "midi": 61,
      "time": 37.75,
      "duration": 0.25,
      "velocity": 0.71,
      "hand": "right"
    },
    {
      "midi": 67,
      "time": 37.75,
      "duration": 0.125,
      "velocity": 0.71,
      "hand": "right"
    },
    {
      "midi": 65,
      "time": 37.875,
      "duration": 0.125,
      "velocity": 0.71,
      "hand": "right"
    },
    {
      "midi": 51,
      "time": 38,
      "duration": 0.125,
      "velocity": 0.71,
      "hand": "left"
    },
    {
      "midi": 67,
      "time": 38,
      "duration": 0.125,
      "velocity": 0.71,
      "hand": "right"
    },
    {
      "midi": 55,
      "time": 38.125,
      "duration": 0.125,
      "velocity": 0.71,
      "hand": "left"
    },
    {
      "midi": 63,
      "time": 38.125,
      "duration": 0.125,
      "velocity": 0.71,
      "hand": "right"
    },
    {
      "midi": 53,
      "time": 38.25,
      "duration": 0.125,
      "velocity": 0.71,
      "hand": "left"
    },
    {
      "midi": 62,
      "time": 38.25,
      "duration": 0.125,
      "velocity": 0.71,
      "hand": "right"
    },
    {
      "midi": 55,
      "time": 38.375,
      "duration": 0.125,
      "velocity": 0.71,
      "hand": "left"
    },
    {
      "midi": 63,
      "time": 38.375,
      "duration": 0.125,
      "velocity": 0.71,
      "hand": "right"
    },
    {
      "midi": 49,
      "time": 38.5,
      "duration": 0.125,
      "velocity": 0.71,
      "hand": "left"
    },
    {
      "midi": 70,
      "time": 38.5,
      "duration": 0.125,
      "velocity": 0.71,
      "hand": "right"
    },
    {
      "midi": 58,
      "time": 38.625,
      "duration": 0.125,
      "velocity": 0.71,
      "hand": "left"
    },
    {
      "midi": 67,
      "time": 38.625,
      "duration": 0.125,
      "velocity": 0.71,
      "hand": "right"
    },
    {
      "midi": 56,
      "time": 38.75,
      "duration": 0.125,
      "velocity": 0.71,
      "hand": "left"
    },
    {
      "midi": 65,
      "time": 38.75,
      "duration": 0.125,
      "velocity": 0.71,
      "hand": "right"
    },
    {
      "midi": 58,
      "time": 38.875,
      "duration": 0.125,
      "velocity": 0.71,
      "hand": "left"
    },
    {
      "midi": 67,
      "time": 38.875,
      "duration": 0.125,
      "velocity": 0.71,
      "hand": "right"
    },
    {
      "midi": 48,
      "time": 39,
      "duration": 0.25,
      "velocity": 0.71,
      "hand": "left"
    },
    {
      "midi": 75,
      "time": 39,
      "duration": 0.125,
      "velocity": 0.71,
      "hand": "right"
    },
    {
      "midi": 73,
      "time": 39.125,
      "duration": 0.125,
      "velocity": 0.71,
      "hand": "right"
    },
    {
      "midi": 51,
      "time": 39.25,
      "duration": 0.25,
      "velocity": 0.71,
      "hand": "left"
    },
    {
      "midi": 72,
      "time": 39.25,
      "duration": 0.125,
      "velocity": 0.71,
      "hand": "right"
    },
    {
      "midi": 70,
      "time": 39.375,
      "duration": 0.125,
      "velocity": 0.71,
      "hand": "right"
    },
    {
      "midi": 56,
      "time": 39.5,
      "duration": 0.25,
      "velocity": 0.71,
      "hand": "left"
    },
    {
      "midi": 68,
      "time": 39.5,
      "duration": 0.125,
      "velocity": 0.71,
      "hand": "right"
    },
    {
      "midi": 67,
      "time": 39.625,
      "duration": 0.125,
      "velocity": 0.71,
      "hand": "right"
    },
    {
      "midi": 60,
      "time": 39.75,
      "duration": 0.25,
      "velocity": 0.71,
      "hand": "right"
    },
    {
      "midi": 65,
      "time": 39.75,
      "duration": 0.125,
      "velocity": 0.71,
      "hand": "right"
    },
    {
      "midi": 64,
      "time": 39.875,
      "duration": 0.125,
      "velocity": 0.71,
      "hand": "right"
    },
    {
      "midi": 49,
      "time": 40,
      "duration": 0.125,
      "velocity": 0.71,
      "hand": "left"
    },
    {
      "midi": 65,
      "time": 40,
      "duration": 0.25,
      "velocity": 0.71,
      "hand": "right"
    },
    {
      "midi": 53,
      "time": 40.125,
      "duration": 0.125,
      "velocity": 0.71,
      "hand": "left"
    },
    {
      "midi": 51,
      "time": 40.25,
      "duration": 0.125,
      "velocity": 0.71,
      "hand": "left"
    },
    {
      "midi": 69,
      "time": 40.25,
      "duration": 0.25,
      "velocity": 0.71,
      "hand": "right"
    },
    {
      "midi": 53,
      "time": 40.375,
      "duration": 0.125,
      "velocity": 0.71,
      "hand": "left"
    },
    {
      "midi": 54,
      "time": 40.5,
      "duration": 0.125,
      "velocity": 0.71,
      "hand": "left"
    },
    {
      "midi": 70,
      "time": 40.5,
      "duration": 0.25,
      "velocity": 0.71,
      "hand": "right"
    },
    {
      "midi": 53,
      "time": 40.625,
      "duration": 0.125,
      "velocity": 0.71,
      "hand": "left"
    },
    {
      "midi": 51,
      "time": 40.75,
      "duration": 0.125,
      "velocity": 0.71,
      "hand": "left"
    },
    {
      "midi": 72,
      "time": 40.75,
      "duration": 0.25,
      "velocity": 0.71,
      "hand": "right"
    },
    {
      "midi": 53,
      "time": 40.875,
      "duration": 0.125,
      "velocity": 0.71,
      "hand": "left"
    },
    {
      "midi": 46,
      "time": 41,
      "duration": 0.125,
      "velocity": 0.71,
      "hand": "left"
    },
    {
      "midi": 73,
      "time": 41,
      "duration": 0.25,
      "velocity": 0.71,
      "hand": "right"
    },
    {
      "midi": 53,
      "time": 41.125,
      "duration": 0.125,
      "velocity": 0.71,
      "hand": "left"
    },
    {
      "midi": 55,
      "time": 41.25,
      "duration": 0.125,
      "velocity": 0.71,
      "hand": "left"
    },
    {
      "midi": 76,
      "time": 41.25,
      "duration": 0.25,
      "velocity": 0.71,
      "hand": "right"
    },
    {
      "midi": 56,
      "time": 41.375,
      "duration": 0.125,
      "velocity": 0.71,
      "hand": "left"
    },
    {
      "midi": 55,
      "time": 41.5,
      "duration": 0.125,
      "velocity": 0.71,
      "hand": "left"
    },
    {
      "midi": 77,
      "time": 41.5,
      "duration": 0.25,
      "velocity": 0.71,
      "hand": "right"
    },
    {
      "midi": 53,
      "time": 41.625,
      "duration": 0.125,
      "velocity": 0.71,
      "hand": "left"
    },
    {
      "midi": 52,
      "time": 41.75,
      "duration": 0.125,
      "velocity": 0.71,
      "hand": "left"
    },
    {
      "midi": 79,
      "time": 41.75,
      "duration": 0.25,
      "velocity": 0.71,
      "hand": "right"
    },
    {
      "midi": 53,
      "time": 41.875,
      "duration": 0.125,
      "velocity": 0.71,
      "hand": "left"
    },
    {
      "midi": 44,
      "time": 42,
      "duration": 0.25,
      "velocity": 0.71,
      "hand": "left"
    },
    {
      "midi": 72,
      "time": 42,
      "duration": 0.125,
      "velocity": 0.71,
      "hand": "right"
    },
    {
      "midi": 76,
      "time": 42.125,
      "duration": 0.125,
      "velocity": 0.71,
      "hand": "right"
    },
    {
      "midi": 41,
      "time": 42.25,
      "duration": 0.25,
      "velocity": 0.71,
      "hand": "left"
    },
    {
      "midi": 77,
      "time": 42.25,
      "duration": 0.125,
      "velocity": 0.71,
      "hand": "right"
    },
    {
      "midi": 80,
      "time": 42.375,
      "duration": 0.125,
      "velocity": 0.71,
      "hand": "right"
    },
    {
      "midi": 48,
      "time": 42.5,
      "duration": 0.25,
      "velocity": 0.71,
      "hand": "left"
    },
    {
      "midi": 70,
      "time": 42.5,
      "duration": 0.125,
      "velocity": 0.71,
      "hand": "right"
    },
    {
      "midi": 79,
      "time": 42.625,
      "duration": 0.125,
      "velocity": 0.71,
      "hand": "right"
    },
    {
      "midi": 36,
      "time": 42.75,
      "duration": 0.25,
      "velocity": 0.71,
      "hand": "left"
    },
    {
      "midi": 77,
      "time": 42.75,
      "duration": 0.125,
      "velocity": 0.71,
      "hand": "right"
    },
    {
      "midi": 76,
      "time": 42.875,
      "duration": 0.125,
      "velocity": 0.71,
      "hand": "right"
    },
    {
      "midi": 41,
      "time": 43,
      "duration": 0.25,
      "velocity": 0.71,
      "hand": "left"
    },
    {
      "midi": 68,
      "time": 43,
      "duration": 0.125,
      "velocity": 0.71,
      "hand": "right"
    },
    {
      "midi": 72,
      "time": 43.125,
      "duration": 0.125,
      "velocity": 0.71,
      "hand": "right"
    },
    {
      "midi": 44,
      "time": 43.25,
      "duration": 0.25,
      "velocity": 0.71,
      "hand": "left"
    },
    {
      "midi": 76,
      "time": 43.25,
      "duration": 0.125,
      "velocity": 0.71,
      "hand": "right"
    },
    {
      "midi": 77,
      "time": 43.375,
      "duration": 0.125,
      "velocity": 0.71,
      "hand": "right"
    },
    {
      "midi": 46,
      "time": 43.5,
      "duration": 0.25,
      "velocity": 0.71,
      "hand": "left"
    },
    {
      "midi": 67,
      "time": 43.5,
      "duration": 0.125,
      "velocity": 0.71,
      "hand": "right"
    },
    {
      "midi": 73,
      "time": 43.625,
      "duration": 0.125,
      "velocity": 0.71,
      "hand": "right"
    },
    {
      "midi": 48,
      "time": 43.75,
      "duration": 0.25,
      "velocity": 0.71,
      "hand": "left"
    },
    {
      "midi": 72,
      "time": 43.75,
      "duration": 0.125,
      "velocity": 0.71,
      "hand": "right"
    },
    {
      "midi": 70,
      "time": 43.875,
      "duration": 0.125,
      "velocity": 0.71,
      "hand": "right"
    },
    {
      "midi": 53,
      "time": 44,
      "duration": 0.25,
      "velocity": 0.71,
      "hand": "left"
    },
    {
      "midi": 68,
      "time": 44,
      "duration": 0.125,
      "velocity": 0.71,
      "hand": "right"
    },
    {
      "midi": 67,
      "time": 44.125,
      "duration": 0.125,
      "velocity": 0.71,
      "hand": "right"
    },
    {
      "midi": 55,
      "time": 44.25,
      "duration": 0.25,
      "velocity": 0.71,
      "hand": "left"
    },
    {
      "midi": 65,
      "time": 44.25,
      "duration": 0.125,
      "velocity": 0.71,
      "hand": "right"
    },
    {
      "midi": 64,
      "time": 44.375,
      "duration": 0.125,
      "velocity": 0.71,
      "hand": "right"
    },
    {
      "midi": 56,
      "time": 44.5,
      "duration": 0.25,
      "velocity": 0.71,
      "hand": "left"
    },
    {
      "midi": 65,
      "time": 44.5,
      "duration": 0.125,
      "velocity": 0.71,
      "hand": "right"
    },
    {
      "midi": 68,
      "time": 44.625,
      "duration": 0.125,
      "velocity": 0.71,
      "hand": "right"
    },
    {
      "midi": 53,
      "time": 44.75,
      "duration": 0.25,
      "velocity": 0.71,
      "hand": "left"
    },
    {
      "midi": 60,
      "time": 44.75,
      "duration": 0.125,
      "velocity": 0.71,
      "hand": "right"
    },
    {
      "midi": 63,
      "time": 44.875,
      "duration": 0.125,
      "velocity": 0.71,
      "hand": "right"
    },
    {
      "midi": 58,
      "time": 45,
      "duration": 0.25,
      "velocity": 0.71,
      "hand": "left"
    },
    {
      "midi": 62,
      "time": 45,
      "duration": 0.125,
      "velocity": 0.71,
      "hand": "right"
    },
    {
      "midi": 68,
      "time": 45.125,
      "duration": 0.125,
      "velocity": 0.71,
      "hand": "right"
    },
    {
      "midi": 46,
      "time": 45.25,
      "duration": 0.25,
      "velocity": 0.71,
      "hand": "left"
    },
    {
      "midi": 65,
      "time": 45.25,
      "duration": 0.125,
      "velocity": 0.71,
      "hand": "right"
    },
    {
      "midi": 62,
      "time": 45.375,
      "duration": 0.125,
      "velocity": 0.71,
      "hand": "right"
    },
    {
      "midi": 58,
      "time": 45.5,
      "duration": 0.125,
      "velocity": 0.71,
      "hand": "left"
    },
    {
      "midi": 56,
      "time": 45.625,
      "duration": 0.125,
      "velocity": 0.71,
      "hand": "left"
    },
    {
      "midi": 55,
      "time": 45.75,
      "duration": 0.125,
      "velocity": 0.71,
      "hand": "left"
    },
    {
      "midi": 53,
      "time": 45.875,
      "duration": 0.125,
      "velocity": 0.71,
      "hand": "left"
    },
    {
      "midi": 51,
      "time": 46,
      "duration": 0.25,
      "velocity": 0.71,
      "hand": "left"
    },
    {
      "midi": 67,
      "time": 46,
      "duration": 0.125,
      "velocity": 0.71,
      "hand": "right"
    },
    {
      "midi": 65,
      "time": 46.125,
      "duration": 0.125,
      "velocity": 0.71,
      "hand": "right"
    },
    {
      "midi": 53,
      "time": 46.25,
      "duration": 0.25,
      "velocity": 0.71,
      "hand": "left"
    },
    {
      "midi": 63,
      "time": 46.25,
      "duration": 0.125,
      "velocity": 0.71,
      "hand": "right"
    },
    {
      "midi": 62,
      "time": 46.375,
      "duration": 0.125,
      "velocity": 0.71,
      "hand": "right"
    },
    {
      "midi": 55,
      "time": 46.5,
      "duration": 0.25,
      "velocity": 0.71,
      "hand": "left"
    },
    {
      "midi": 63,
      "time": 46.5,
      "duration": 0.125,
      "velocity": 0.71,
      "hand": "right"
    },
    {
      "midi": 67,
      "time": 46.625,
      "duration": 0.125,
      "velocity": 0.71,
      "hand": "right"
    },
    {
      "midi": 51,
      "time": 46.75,
      "duration": 0.25,
      "velocity": 0.71,
      "hand": "left"
    },
    {
      "midi": 59,
      "time": 46.75,
      "duration": 0.125,
      "velocity": 0.71,
      "hand": "left"
    },
    {
      "midi": 62,
      "time": 46.875,
      "duration": 0.125,
      "velocity": 0.71,
      "hand": "right"
    },
    {
      "midi": 56,
      "time": 47,
      "duration": 0.25,
      "velocity": 0.71,
      "hand": "left"
    },
    {
      "midi": 60,
      "time": 47,
      "duration": 0.125,
      "velocity": 0.71,
      "hand": "right"
    },
    {
      "midi": 67,
      "time": 47.125,
      "duration": 0.125,
      "velocity": 0.71,
      "hand": "right"
    },
    {
      "midi": 44,
      "time": 47.25,
      "duration": 0.25,
      "velocity": 0.71,
      "hand": "left"
    },
    {
      "midi": 63,
      "time": 47.25,
      "duration": 0.125,
      "velocity": 0.71,
      "hand": "right"
    },
    {
      "midi": 60,
      "time": 47.375,
      "duration": 0.125,
      "velocity": 0.71,
      "hand": "right"
    },
    {
      "midi": 56,
      "time": 47.5,
      "duration": 0.125,
      "velocity": 0.71,
      "hand": "left"
    },
    {
      "midi": 55,
      "time": 47.625,
      "duration": 0.125,
      "velocity": 0.71,
      "hand": "left"
    },
    {
      "midi": 53,
      "time": 47.75,
      "duration": 0.125,
      "velocity": 0.71,
      "hand": "left"
    },
    {
      "midi": 51,
      "time": 47.875,
      "duration": 0.125,
      "velocity": 0.71,
      "hand": "left"
    },
    {
      "midi": 50,
      "time": 48,
      "duration": 0.25,
      "velocity": 0.71,
      "hand": "left"
    },
    {
      "midi": 65,
      "time": 48,
      "duration": 0.125,
      "velocity": 0.71,
      "hand": "right"
    },
    {
      "midi": 63,
      "time": 48.125,
      "duration": 0.125,
      "velocity": 0.71,
      "hand": "right"
    },
    {
      "midi": 51,
      "time": 48.25,
      "duration": 0.25,
      "velocity": 0.71,
      "hand": "left"
    },
    {
      "midi": 62,
      "time": 48.25,
      "duration": 0.125,
      "velocity": 0.71,
      "hand": "right"
    },
    {
      "midi": 60,
      "time": 48.375,
      "duration": 0.125,
      "velocity": 0.71,
      "hand": "right"
    },
    {
      "midi": 53,
      "time": 48.5,
      "duration": 0.25,
      "velocity": 0.71,
      "hand": "left"
    },
    {
      "midi": 62,
      "time": 48.5,
      "duration": 0.125,
      "velocity": 0.71,
      "hand": "right"
    },
    {
      "midi": 65,
      "time": 48.625,
      "duration": 0.125,
      "velocity": 0.71,
      "hand": "right"
    },
    {
      "midi": 50,
      "time": 48.75,
      "duration": 0.25,
      "velocity": 0.71,
      "hand": "left"
    },
    {
      "midi": 68,
      "time": 48.75,
      "duration": 0.125,
      "velocity": 0.71,
      "hand": "right"
    },
    {
      "midi": 60,
      "time": 48.875,
      "duration": 0.125,
      "velocity": 0.71,
      "hand": "right"
    },
    {
      "midi": 55,
      "time": 49,
      "duration": 0.25,
      "velocity": 0.71,
      "hand": "left"
    },
    {
      "midi": 59,
      "time": 49,
      "duration": 0.125,
      "velocity": 0.71,
      "hand": "left"
    },
    {
      "midi": 65,
      "time": 49.125,
      "duration": 0.125,
      "velocity": 0.71,
      "hand": "right"
    },
    {
      "midi": 43,
      "time": 49.25,
      "duration": 0.25,
      "velocity": 0.71,
      "hand": "left"
    },
    {
      "midi": 62,
      "time": 49.25,
      "duration": 0.125,
      "velocity": 0.71,
      "hand": "right"
    },
    {
      "midi": 59,
      "time": 49.375,
      "duration": 0.125,
      "velocity": 0.71,
      "hand": "left"
    },
    {
      "midi": 55,
      "time": 49.5,
      "duration": 0.125,
      "velocity": 0.71,
      "hand": "left"
    },
    {
      "midi": 53,
      "time": 49.625,
      "duration": 0.125,
      "velocity": 0.71,
      "hand": "left"
    },
    {
      "midi": 59,
      "time": 49.625,
      "duration": 0.125,
      "velocity": 0.71,
      "hand": "left"
    },
    {
      "midi": 51,
      "time": 49.75,
      "duration": 0.125,
      "velocity": 0.71,
      "hand": "left"
    },
    {
      "midi": 60,
      "time": 49.75,
      "duration": 0.125,
      "velocity": 0.71,
      "hand": "right"
    },
    {
      "midi": 50,
      "time": 49.875,
      "duration": 0.125,
      "velocity": 0.71,
      "hand": "left"
    },
    {
      "midi": 62,
      "time": 49.875,
      "duration": 0.125,
      "velocity": 0.71,
      "hand": "right"
    },
    {
      "midi": 48,
      "time": 50,
      "duration": 0.125,
      "velocity": 0.71,
      "hand": "left"
    },
    {
      "midi": 63,
      "time": 50,
      "duration": 0.625,
      "velocity": 0.71,
      "hand": "right"
    },
    {
      "midi": 50,
      "time": 50.125,
      "duration": 0.125,
      "velocity": 0.71,
      "hand": "left"
    },
    {
      "midi": 51,
      "time": 50.25,
      "duration": 0.125,
      "velocity": 0.71,
      "hand": "left"
    },
    {
      "midi": 67,
      "time": 50.25,
      "duration": 0.25,
      "velocity": 0.71,
      "hand": "right"
    },
    {
      "midi": 48,
      "time": 50.375,
      "duration": 0.125,
      "velocity": 0.71,
      "hand": "left"
    },
    {
      "midi": 44,
      "time": 50.5,
      "duration": 0.125,
      "velocity": 0.71,
      "hand": "left"
    },
    {
      "midi": 72,
      "time": 50.5,
      "duration": 1.125,
      "velocity": 0.71,
      "hand": "right"
    },
    {
      "midi": 55,
      "time": 50.625,
      "duration": 0.125,
      "velocity": 0.71,
      "hand": "left"
    },
    {
      "midi": 70,
      "time": 50.625,
      "duration": 0.125,
      "velocity": 0.71,
      "hand": "right"
    },
    {
      "midi": 53,
      "time": 50.75,
      "duration": 0.125,
      "velocity": 0.71,
      "hand": "left"
    },
    {
      "midi": 68,
      "time": 50.75,
      "duration": 0.125,
      "velocity": 0.71,
      "hand": "right"
    },
    {
      "midi": 51,
      "time": 50.875,
      "duration": 0.125,
      "velocity": 0.71,
      "hand": "left"
    },
    {
      "midi": 67,
      "time": 50.875,
      "duration": 0.125,
      "velocity": 0.71,
      "hand": "right"
    },
    {
      "midi": 50,
      "time": 51,
      "duration": 0.125,
      "velocity": 0.71,
      "hand": "left"
    },
    {
      "midi": 65,
      "time": 51,
      "duration": 0.125,
      "velocity": 0.71,
      "hand": "right"
    },
    {
      "midi": 51,
      "time": 51.125,
      "duration": 0.125,
      "velocity": 0.71,
      "hand": "left"
    },
    {
      "midi": 67,
      "time": 51.125,
      "duration": 0.125,
      "velocity": 0.71,
      "hand": "right"
    },
    {
      "midi": 53,
      "time": 51.25,
      "duration": 0.125,
      "velocity": 0.71,
      "hand": "left"
    },
    {
      "midi": 68,
      "time": 51.25,
      "duration": 0.125,
      "velocity": 0.71,
      "hand": "right"
    },
    {
      "midi": 50,
      "time": 51.375,
      "duration": 0.125,
      "velocity": 0.71,
      "hand": "left"
    },
    {
      "midi": 65,
      "time": 51.375,
      "duration": 0.125,
      "velocity": 0.71,
      "hand": "right"
    },
    {
      "midi": 46,
      "time": 51.5,
      "duration": 0.125,
      "velocity": 0.71,
      "hand": "left"
    },
    {
      "midi": 62,
      "time": 51.5,
      "duration": 0.25,
      "velocity": 0.71,
      "hand": "right"
    },
    {
      "midi": 56,
      "time": 51.625,
      "duration": 0.125,
      "velocity": 0.71,
      "hand": "left"
    },
    {
      "midi": 72,
      "time": 51.625,
      "duration": 0.125,
      "velocity": 0.71,
      "hand": "right"
    },
    {
      "midi": 55,
      "time": 51.75,
      "duration": 0.125,
      "velocity": 0.71,
      "hand": "left"
    },
    {
      "midi": 70,
      "time": 51.75,
      "duration": 0.125,
      "velocity": 0.71,
      "hand": "right"
    },
    {
      "midi": 53,
      "time": 51.875,
      "duration": 0.125,
      "velocity": 0.71,
      "hand": "left"
    },
    {
      "midi": 68,
      "time": 51.875,
      "duration": 0.125,
      "velocity": 0.71,
      "hand": "right"
    },
    {
      "midi": 51,
      "time": 52,
      "duration": 0.25,
      "velocity": 0.71,
      "hand": "left"
    },
    {
      "midi": 67,
      "time": 52,
      "duration": 0.125,
      "velocity": 0.71,
      "hand": "right"
    },
    {
      "midi": 68,
      "time": 52.125,
      "duration": 0.125,
      "velocity": 0.71,
      "hand": "right"
    },
    {
      "midi": 50,
      "time": 52.25,
      "duration": 0.25,
      "velocity": 0.71,
      "hand": "left"
    },
    {
      "midi": 70,
      "time": 52.25,
      "duration": 0.125,
      "velocity": 0.71,
      "hand": "right"
    },
    {
      "midi": 67,
      "time": 52.375,
      "duration": 0.125,
      "velocity": 0.71,
      "hand": "right"
    },
    {
      "midi": 51,
      "time": 52.5,
      "duration": 0.25,
      "velocity": 0.71,
      "hand": "left"
    },
    {
      "midi": 60,
      "time": 52.5,
      "duration": 0.125,
      "velocity": 0.71,
      "hand": "right"
    },
    {
      "midi": 73,
      "time": 52.625,
      "duration": 0.125,
      "velocity": 0.71,
      "hand": "right"
    },
    {
      "midi": 52,
      "time": 52.75,
      "duration": 0.25,
      "velocity": 0.71,
      "hand": "left"
    },
    {
      "midi": 72,
      "time": 52.75,
      "duration": 0.125,
      "velocity": 0.71,
      "hand": "right"
    },
    {
      "midi": 70,
      "time": 52.875,
      "duration": 0.125,
      "velocity": 0.71,
      "hand": "right"
    },
    {
      "midi": 53,
      "time": 53,
      "duration": 0.25,
      "velocity": 0.71,
      "hand": "left"
    },
    {
      "midi": 68,
      "time": 53,
      "duration": 0.125,
      "velocity": 0.71,
      "hand": "right"
    },
    {
      "midi": 70,
      "time": 53.125,
      "duration": 0.125,
      "velocity": 0.71,
      "hand": "right"
    },
    {
      "midi": 52,
      "time": 53.25,
      "duration": 0.25,
      "velocity": 0.71,
      "hand": "left"
    },
    {
      "midi": 72,
      "time": 53.25,
      "duration": 0.125,
      "velocity": 0.71,
      "hand": "right"
    },
    {
      "midi": 68,
      "time": 53.375,
      "duration": 0.125,
      "velocity": 0.71,
      "hand": "right"
    },
    {
      "midi": 53,
      "time": 53.5,
      "duration": 0.25,
      "velocity": 0.71,
      "hand": "left"
    },
    {
      "midi": 62,
      "time": 53.5,
      "duration": 0.125,
      "velocity": 0.71,
      "hand": "right"
    },
    {
      "midi": 75,
      "time": 53.625,
      "duration": 0.125,
      "velocity": 0.71,
      "hand": "right"
    },
    {
      "midi": 54,
      "time": 53.75,
      "duration": 0.25,
      "velocity": 0.71,
      "hand": "left"
    },
    {
      "midi": 74,
      "time": 53.75,
      "duration": 0.125,
      "velocity": 0.71,
      "hand": "right"
    },
    {
      "midi": 72,
      "time": 53.875,
      "duration": 0.125,
      "velocity": 0.71,
      "hand": "right"
    },
    {
      "midi": 55,
      "time": 54,
      "duration": 0.125,
      "velocity": 0.71,
      "hand": "left"
    },
    {
      "midi": 71,
      "time": 54,
      "duration": 0.125,
      "velocity": 0.71,
      "hand": "right"
    },
    {
      "midi": 53,
      "time": 54.125,
      "duration": 0.125,
      "velocity": 0.71,
      "hand": "left"
    },
    {
      "midi": 67,
      "time": 54.125,
      "duration": 0.125,
      "velocity": 0.71,
      "hand": "right"
    },
    {
      "midi": 51,
      "time": 54.25,
      "duration": 0.125,
      "velocity": 0.71,
      "hand": "left"
    },
    {
      "midi": 72,
      "time": 54.25,
      "duration": 0.5,
      "velocity": 0.71,
      "hand": "right"
    },
    {
      "midi": 53,
      "time": 54.375,
      "duration": 0.125,
      "velocity": 0.71,
      "hand": "left"
    },
    {
      "midi": 74,
      "time": 54.375,
      "duration": 0.125,
      "velocity": 0.71,
      "hand": "right"
    },
    {
      "midi": 55,
      "time": 54.5,
      "duration": 0.25,
      "velocity": 0.71,
      "hand": "left"
    },
    {
      "midi": 75,
      "time": 54.5,
      "duration": 0.25,
      "velocity": 0.71,
      "hand": "right"
    },
    {
      "midi": 67,
      "time": 54.625,
      "duration": 0.25,
      "velocity": 0.71,
      "hand": "right"
    },
    {
      "midi": 43,
      "time": 54.75,
      "duration": 0.25,
      "velocity": 0.71,
      "hand": "left"
    },
    {
      "midi": 71,
      "time": 54.75,
      "duration": 0.25,
      "velocity": 0.71,
      "hand": "right"
    },
    {
      "midi": 74,
      "time": 54.75,
      "duration": 0.25,
      "velocity": 0.71,
      "hand": "right"
    },
    {
      "midi": 65,
      "time": 54.875,
      "duration": 0.125,
      "velocity": 0.71,
      "hand": "right"
    },
    {
      "midi": 36,
      "time": 55,
      "duration": 0.125,
      "velocity": 0.71,
      "hand": "left"
    },
    {
      "midi": 63,
      "time": 55,
      "duration": 1,
      "velocity": 0.71,
      "hand": "right"
    },
    {
      "midi": 67,
      "time": 55,
      "duration": 1,
      "velocity": 0.71,
      "hand": "right"
    },
    {
      "midi": 72,
      "time": 55,
      "duration": 1,
      "velocity": 0.71,
      "hand": "right"
    },
    {
      "midi": 48,
      "time": 55.125,
      "duration": 0.125,
      "velocity": 0.71,
      "hand": "left"
    },
    {
      "midi": 51,
      "time": 55.25,
      "duration": 0.125,
      "velocity": 0.71,
      "hand": "left"
    },
    {
      "midi": 55,
      "time": 55.375,
      "duration": 0.125,
      "velocity": 0.71,
      "hand": "left"
    },
    {
      "midi": 60,
      "time": 55.5,
      "duration": 0.5,
      "velocity": 0.71,
      "hand": "right"
    }
  ]
}
