{
  "id": "doumkatchaikosvky",
  "title": "Dumka",
  "artist": "Piotr Ilitch Tchaikovsky",
  "difficulty": "Difícil",
  "bpm": 60,
  "duration": 573,
  "category": "Clássicos",
  "isPremium": true,
  "coverUrl": "/images/covers/placeholder.png",
  "notes": [
    {
      "midi": 48,
      "time": 0,
      "duration": 1,
      "velocity": 0.54,
      "hand": "left"
    },
    {
      "midi": 55,
      "time": 0,
      "duration": 1,
      "velocity": 0.54,
      "hand": "left"
    },
    {
      "midi": 60,
      "time": 0,
      "duration": 1,
      "velocity": 0.54,
      "hand": "right"
    },
    {
      "midi": 63,
      "time": 0,
      "duration": 1,
      "velocity": 0.71,
      "hand": "right"
    },
    {
      "midi": 67,
      "time": 0,
      "duration": 1,
      "velocity": 0.71,
      "hand": "right"
    },
    {
      "midi": 72,
      "time": 0,
      "duration": 2,
      "velocity": 0.71,
      "hand": "right"
    },
    {
      "midi": 75,
      "time": 2,
      "duration": 1,
      "velocity": 0.71,
      "hand": "right"
    },
    {
      "midi": 72,
      "time": 3,
      "duration": 1,
      "velocity": 0.71,
      "hand": "right"
    },
    {
      "midi": 48,
      "time": 4,
      "duration": 4,
      "velocity": 0.54,
      "hand": "left"
    },
    {
      "midi": 56,
      "time": 4,
      "duration": 4,
      "velocity": 0.54,
      "hand": "left"
    },
    {
      "midi": 60,
      "time": 4,
      "duration": 1.5,
      "velocity": 0.71,
      "hand": "right"
    },
    {
      "midi": 65,
      "time": 4,
      "duration": 4,
      "velocity": 0.71,
      "hand": "right"
    },
    {
      "midi": 72,
      "time": 4,
      "duration": 4,
      "velocity": 0.71,
      "hand": "right"
    },
    {
      "midi": 77,
      "time": 4,
      "duration": 4,
      "velocity": 0.71,
      "hand": "right"
    },
    {
      "midi": 62,
      "time": 5.5,
      "duration": 0.5,
      "velocity": 0.82,
      "hand": "right"
    },
    {
      "midi": 60,
      "time": 6,
      "duration": 1,
      "velocity": 0.86,
      "hand": "right"
    },
    {
      "midi": 62,
      "time": 7,
      "duration": 1,
      "velocity": 0.93,
      "hand": "right"
    },
    {
      "midi": 48,
      "time": 8,
      "duration": 1,
      "velocity": 0.54,
      "hand": "left"
    },
    {
      "midi": 55,
      "time": 8,
      "duration": 1,
      "velocity": 0.54,
      "hand": "left"
    },
    {
      "midi": 63,
      "time": 8,
      "duration": 1,
      "velocity": 0.93,
      "hand": "right"
    },
    {
      "midi": 67,
      "time": 8,
      "duration": 1,
      "velocity": 0.71,
      "hand": "right"
    },
    {
      "midi": 72,
      "time": 8,
      "duration": 1,
      "velocity": 0.71,
      "hand": "right"
    },
    {
      "midi": 79,
      "time": 8,
      "duration": 1.5,
      "velocity": 0.71,
      "hand": "right"
    },
    {
      "midi": 77,
      "time": 9.5,
      "duration": 0.25,
      "velocity": 0.71,
      "hand": "right"
    },
    {
      "midi": 74,
      "time": 9.75,
      "duration": 0.25,
      "velocity": 0.71,
      "hand": "right"
    },
    {
      "midi": 75,
      "time": 9.75,
      "duration": 0.25,
      "velocity": 0.71,
      "hand": "right"
    },
    {
      "midi": 51,
      "time": 10,
      "duration": 1,
      "velocity": 0.54,
      "hand": "left"
    },
    {
      "midi": 60,
      "time": 10,
      "duration": 1,
      "velocity": 0.54,
      "hand": "right"
    },
    {
      "midi": 63,
      "time": 10,
      "duration": 1,
      "velocity": 0.54,
      "hand": "right"
    },
    {
      "midi": 72,
      "time": 10,
      "duration": 1,
      "velocity": 0.71,
      "hand": "right"
    },
    {
      "midi": 72,
      "time": 11,
      "duration": 1,
      "velocity": 0.71,
      "hand": "right"
    },
    {
      "midi": 55,
      "time": 12,
      "duration": 1,
      "velocity": 0.46,
      "hand": "left"
    },
    {
      "midi": 62,
      "time": 12,
      "duration": 1,
      "velocity": 0.46,
      "hand": "right"
    },
    {
      "midi": 67,
      "time": 12,
      "duration": 1,
      "velocity": 0.71,
      "hand": "right"
    },
    {
      "midi": 70,
      "time": 12,
      "duration": 1,
      "velocity": 0.71,
      "hand": "right"
    },
    {
      "midi": 67,
      "time": 13,
      "duration": 3,
      "velocity": 0.71,
      "hand": "right"
    },
    {
      "midi": 55,
      "time": 14.5,
      "duration": 0.5,
      "velocity": 0.36,
      "hand": "left"
    },
    {
      "midi": 57,
      "time": 15,
      "duration": 0.5,
      "velocity": 0.34,
      "hand": "left"
    },
    {
      "midi": 58,
      "time": 15.5,
      "duration": 0.5,
      "velocity": 0.32,
      "hand": "left"
    },
    {
      "midi": 51,
      "time": 16,
      "duration": 1,
      "velocity": 0.32,
      "hand": "left"
    },
    {
      "midi": 55,
      "time": 16,
      "duration": 1,
      "velocity": 0.32,
      "hand": "left"
    },
    {
      "midi": 60,
      "time": 16,
      "duration": 1,
      "velocity": 0.71,
      "hand": "right"
    },
    {
      "midi": 67,
      "time": 16,
      "duration": 1,
      "velocity": 0.71,
      "hand": "right"
    },
    {
      "midi": 72,
      "time": 16,
      "duration": 1,
      "velocity": 0.71,
      "hand": "right"
    },
    {
      "midi": 72,
      "time": 17,
      "duration": 1,
      "velocity": 0.71,
      "hand": "right"
    },
    {
      "midi": 48,
      "time": 18,
      "duration": 1,
      "velocity": 0.32,
      "hand": "left"
    },
    {
      "midi": 55,
      "time": 18,
      "duration": 1,
      "velocity": 0.32,
      "hand": "left"
    },
    {
      "midi": 60,
      "time": 18,
      "duration": 1,
      "velocity": 0.32,
      "hand": "right"
    },
    {
      "midi": 63,
      "time": 18,
      "duration": 1,
      "velocity": 0.71,
      "hand": "right"
    },
    {
      "midi": 67,
      "time": 18,
      "duration": 1,
      "velocity": 0.71,
      "hand": "right"
    },
    {
      "midi": 72,
      "time": 18,
      "duration": 1,
      "velocity": 0.71,
      "hand": "right"
    },
    {
      "midi": 75,
      "time": 18,
      "duration": 1.5,
      "velocity": 0.71,
      "hand": "right"
    },
    {
      "midi": 74,
      "time": 19.5,
      "duration": 0.25,
      "velocity": 0.71,
      "hand": "right"
    },
    {
      "midi": 72,
      "time": 19.75,
      "duration": 0.25,
      "velocity": 0.71,
      "hand": "right"
    },
    {
      "midi": 50,
      "time": 20,
      "duration": 1.5,
      "velocity": 0.32,
      "hand": "left"
    },
    {
      "midi": 53,
      "time": 20,
      "duration": 4,
      "velocity": 0.93,
      "hand": "left"
    },
    {
      "midi": 58,
      "time": 20,
      "duration": 4,
      "velocity": 0.93,
      "hand": "left"
    },
    {
      "midi": 65,
      "time": 20,
      "duration": 4,
      "velocity": 0.71,
      "hand": "right"
    },
    {
      "midi": 70,
      "time": 20,
      "duration": 4,
      "velocity": 0.71,
      "hand": "right"
    },
    {
      "midi": 51,
      "time": 21.5,
      "duration": 0.5,
      "velocity": 0.32,
      "hand": "left"
    },
    {
      "midi": 50,
      "time": 22,
      "duration": 0.75,
      "velocity": 0.32,
      "hand": "left"
    },
    {
      "midi": 51,
      "time": 22.75,
      "duration": 0.25,
      "velocity": 0.32,
      "hand": "left"
    },
    {
      "midi": 48,
      "time": 23,
      "duration": 0.5,
      "velocity": 0.32,
      "hand": "left"
    },
    {
      "midi": 50,
      "time": 23,
      "duration": 0.25,
      "velocity": 0.32,
      "hand": "left"
    },
    {
      "midi": 50,
      "time": 23.5,
      "duration": 0.5,
      "velocity": 0.32,
      "hand": "left"
    },
    {
      "midi": 51,
      "time": 24,
      "duration": 3,
      "velocity": 0.32,
      "hand": "left"
    },
    {
      "midi": 55,
      "time": 24,
      "duration": 3,
      "velocity": 0.93,
      "hand": "left"
    },
    {
      "midi": 60,
      "time": 24,
      "duration": 3,
      "velocity": 0.71,
      "hand": "right"
    },
    {
      "midi": 67,
      "time": 24,
      "duration": 2,
      "velocity": 0.71,
      "hand": "right"
    },
    {
      "midi": 72,
      "time": 24.5,
      "duration": 0.5,
      "velocity": 0.71,
      "hand": "right"
    },
    {
      "midi": 71,
      "time": 25,
      "duration": 0.5,
      "velocity": 0.71,
      "hand": "right"
    },
    {
      "midi": 72,
      "time": 25.5,
      "duration": 0.5,
      "velocity": 0.71,
      "hand": "right"
    },
    {
      "midi": 67,
      "time": 26,
      "duration": 1,
      "velocity": 0.71,
      "hand": "right"
    },
    {
      "midi": 56,
      "time": 27,
      "duration": 1,
      "velocity": 0.32,
      "hand": "left"
    },
    {
      "midi": 60,
      "time": 27,
      "duration": 1,
      "velocity": 0.93,
      "hand": "right"
    },
    {
      "midi": 65,
      "time": 27,
      "duration": 0.75,
      "velocity": 0.71,
      "hand": "right"
    },
    {
      "midi": 63,
      "time": 27.75,
      "duration": 0.25,
      "velocity": 0.71,
      "hand": "right"
    },
    {
      "midi": 55,
      "time": 28,
      "duration": 4,
      "velocity": 0.32,
      "hand": "left"
    },
    {
      "midi": 59,
      "time": 28,
      "duration": 2,
      "velocity": 0.93,
      "hand": "left"
    },
    {
      "midi": 62,
      "time": 28,
      "duration": 2,
      "velocity": 0.71,
      "hand": "right"
    },
    {
      "midi": 65,
      "time": 28,
      "duration": 0.25,
      "velocity": 0.71,
      "hand": "right"
    },
    {
      "midi": 67,
      "time": 28,
      "duration": 4,
      "velocity": 0.71,
      "hand": "right"
    },
    {
      "midi": 60,
      "time": 30,
      "duration": 1,
      "velocity": 0.93,
      "hand": "right"
    },
    {
      "midi": 63,
      "time": 30,
      "duration": 1,
      "velocity": 0.86,
      "hand": "right"
    },
    {
      "midi": 62,
      "time": 31,
      "duration": 1,
      "velocity": 0.93,
      "hand": "right"
    },
    {
      "midi": 65,
      "time": 31,
      "duration": 1,
      "velocity": 0.93,
      "hand": "right"
    },
    {
      "midi": 51,
      "time": 32,
      "duration": 2,
      "velocity": 0.32,
      "hand": "left"
    },
    {
      "midi": 55,
      "time": 32,
      "duration": 2,
      "velocity": 0.32,
      "hand": "left"
    },
    {
      "midi": 60,
      "time": 32,
      "duration": 2,
      "velocity": 0.93,
      "hand": "right"
    },
    {
      "midi": 67,
      "time": 32,
      "duration": 1,
      "velocity": 0.71,
      "hand": "right"
    },
    {
      "midi": 72,
      "time": 32,
      "duration": 2,
      "velocity": 0.93,
      "hand": "right"
    },
    {
      "midi": 79,
      "time": 32,
      "duration": 1,
      "velocity": 0.71,
      "hand": "right"
    },
    {
      "midi": 67,
      "time": 33,
      "duration": 1,
      "velocity": 0.71,
      "hand": "right"
    },
    {
      "midi": 79,
      "time": 33,
      "duration": 1,
      "velocity": 0.71,
      "hand": "right"
    },
    {
      "midi": 50,
      "time": 34,
      "duration": 1,
      "velocity": 0.32,
      "hand": "left"
    },
    {
      "midi": 56,
      "time": 34,
      "duration": 1,
      "velocity": 0.32,
      "hand": "left"
    },
    {
      "midi": 60,
      "time": 34,
      "duration": 1,
      "velocity": 0.32,
      "hand": "right"
    },
    {
      "midi": 67,
      "time": 34,
      "duration": 1.5,
      "velocity": 0.93,
      "hand": "right"
    },
    {
      "midi": 68,
      "time": 34,
      "duration": 2,
      "velocity": 0.93,
      "hand": "right"
    },
    {
      "midi": 72,
      "time": 34,
      "duration": 2,
      "velocity": 0.93,
      "hand": "right"
    },
    {
      "midi": 79,
      "time": 34,
      "duration": 1.5,
      "velocity": 0.71,
      "hand": "right"
    },
    {
      "midi": 65,
      "time": 35.5,
      "duration": 0.25,
      "velocity": 0.93,
      "hand": "right"
    },
    {
      "midi": 77,
      "time": 35.5,
      "duration": 0.25,
      "velocity": 0.71,
      "hand": "right"
    },
    {
      "midi": 63,
      "time": 35.75,
      "duration": 0.25,
      "velocity": 0.93,
      "hand": "right"
    },
    {
      "midi": 75,
      "time": 35.75,
      "duration": 0.25,
      "velocity": 0.71,
      "hand": "right"
    },
    {
      "midi": 62,
      "time": 36,
      "duration": 4,
      "velocity": 0.93,
      "hand": "right"
    },
    {
      "midi": 74,
      "time": 36,
      "duration": 4,
      "velocity": 0.71,
      "hand": "right"
    },
    {
      "midi": 56,
      "time": 37,
      "duration": 2,
      "velocity": 0.32,
      "hand": "left"
    },
    {
      "midi": 60,
      "time": 37,
      "duration": 2,
      "velocity": 0.32,
      "hand": "right"
    },
    {
      "midi": 65,
      "time": 37,
      "duration": 2,
      "velocity": 0.93,
      "hand": "right"
    },
    {
      "midi": 72,
      "time": 37,
      "duration": 2,
      "velocity": 0.93,
      "hand": "right"
    },
    {
      "midi": 55,
      "time": 39,
      "duration": 1,
      "velocity": 0.32,
      "hand": "left"
    },
    {
      "midi": 59,
      "time": 39,
      "duration": 1,
      "velocity": 0.32,
      "hand": "left"
    },
    {
      "midi": 67,
      "time": 39,
      "duration": 1,
      "velocity": 0.93,
      "hand": "right"
    },
    {
      "midi": 71,
      "time": 39,
      "duration": 1,
      "velocity": 0.93,
      "hand": "right"
    },
    {
      "midi": 51,
      "time": 40,
      "duration": 2,
      "velocity": 0.32,
      "hand": "left"
    },
    {
      "midi": 55,
      "time": 40,
      "duration": 2,
      "velocity": 0.32,
      "hand": "left"
    },
    {
      "midi": 60,
      "time": 40,
      "duration": 2,
      "velocity": 0.93,
      "hand": "right"
    },
    {
      "midi": 67,
      "time": 40,
      "duration": 1,
      "velocity": 0.71,
      "hand": "right"
    },
    {
      "midi": 72,
      "time": 40,
      "duration": 2,
      "velocity": 0.93,
      "hand": "right"
    },
    {
      "midi": 79,
      "time": 40,
      "duration": 1,
      "velocity": 0.71,
      "hand": "right"
    },
    {
      "midi": 67,
      "time": 41,
      "duration": 1,
      "velocity": 0.71,
      "hand": "right"
    },
    {
      "midi": 79,
      "time": 41,
      "duration": 1,
      "velocity": 0.71,
      "hand": "right"
    },
    {
      "midi": 50,
      "time": 42,
      "duration": 1,
      "velocity": 0.32,
      "hand": "left"
    },
    {
      "midi": 56,
      "time": 42,
      "duration": 1,
      "velocity": 0.32,
      "hand": "left"
    },
    {
      "midi": 60,
      "time": 42,
      "duration": 1,
      "velocity": 0.32,
      "hand": "right"
    },
    {
      "midi": 67,
      "time": 42,
      "duration": 1.5,
      "velocity": 0.93,
      "hand": "right"
    },
    {
      "midi": 68,
      "time": 42,
      "duration": 2,
      "velocity": 0.93,
      "hand": "right"
    },
    {
      "midi": 72,
      "time": 42,
      "duration": 2,
      "velocity": 0.93,
      "hand": "right"
    },
    {
      "midi": 79,
      "time": 42,
      "duration": 1.5,
      "velocity": 0.71,
      "hand": "right"
    },
    {
      "midi": 65,
      "time": 43.5,
      "duration": 0.25,
      "velocity": 0.93,
      "hand": "right"
    },
    {
      "midi": 77,
      "time": 43.5,
      "duration": 0.25,
      "velocity": 0.71,
      "hand": "right"
    },
    {
      "midi": 63,
      "time": 43.75,
      "duration": 0.25,
      "velocity": 0.93,
      "hand": "right"
    },
    {
      "midi": 75,
      "time": 43.75,
      "duration": 0.25,
      "velocity": 0.71,
      "hand": "right"
    },
    {
      "midi": 62,
      "time": 44,
      "duration": 4,
      "velocity": 0.93,
      "hand": "right"
    },
    {
      "midi": 74,
      "time": 44,
      "duration": 4,
      "velocity": 0.71,
      "hand": "right"
    },
    {
      "midi": 56,
      "time": 45,
      "duration": 2,
      "velocity": 0.32,
      "hand": "left"
    },
    {
      "midi": 60,
      "time": 45,
      "duration": 2,
      "velocity": 0.32,
      "hand": "right"
    },
    {
      "midi": 65,
      "time": 45,
      "duration": 2,
      "velocity": 0.93,
      "hand": "right"
    },
    {
      "midi": 72,
      "time": 45,
      "duration": 2,
      "velocity": 0.93,
      "hand": "right"
    },
    {
      "midi": 55,
      "time": 47,
      "duration": 1,
      "velocity": 0.32,
      "hand": "left"
    },
    {
      "midi": 59,
      "time": 47,
      "duration": 1,
      "velocity": 0.32,
      "hand": "left"
    },
    {
      "midi": 67,
      "time": 47,
      "duration": 1,
      "velocity": 0.93,
      "hand": "right"
    },
    {
      "midi": 71,
      "time": 47,
      "duration": 1,
      "velocity": 0.93,
      "hand": "right"
    },
    {
      "midi": 48,
      "time": 48,
      "duration": 1,
      "velocity": 0.32,
      "hand": "left"
    },
    {
      "midi": 55,
      "time": 48,
      "duration": 1,
      "velocity": 0.32,
      "hand": "left"
    },
    {
      "midi": 60,
      "time": 48,
      "duration": 1,
      "velocity": 0.93,
      "hand": "right"
    },
    {
      "midi": 63,
      "time": 48,
      "duration": 1,
      "velocity": 0.93,
      "hand": "right"
    },
    {
      "midi": 67,
      "time": 48,
      "duration": 1,
      "velocity": 0.93,
      "hand": "right"
    },
    {
      "midi": 72,
      "time": 48,
      "duration": 1,
      "velocity": 0.71,
      "hand": "right"
    },
    {
      "midi": 60,
      "time": 49,
      "duration": 0.5,
      "velocity": 0.93,
      "hand": "right"
    },
    {
      "midi": 72,
      "time": 49,
      "duration": 0.5,
      "velocity": 0.71,
      "hand": "right"
    },
    {
      "midi": 62,
      "time": 49.5,
      "duration": 0.5,
      "velocity": 0.93,
      "hand": "right"
    },
    {
      "midi": 74,
      "time": 49.5,
      "duration": 0.5,
      "velocity": 0.71,
      "hand": "right"
    },
    {
      "midi": 65,
      "time": 50,
      "duration": 0.5,
      "velocity": 0.93,
      "hand": "right"
    },
    {
      "midi": 77,
      "time": 50,
      "duration": 0.5,
      "velocity": 0.71,
      "hand": "right"
    },
    {
      "midi": 63,
      "time": 50.5,
      "duration": 0.5,
      "velocity": 0.93,
      "hand": "right"
    },
    {
      "midi": 75,
      "time": 50.5,
      "duration": 0.5,
      "velocity": 0.71,
      "hand": "right"
    },
    {
      "midi": 62,
      "time": 51,
      "duration": 0.5,
      "velocity": 0.93,
      "hand": "right"
    },
    {
      "midi": 74,
      "time": 51,
      "duration": 0.5,
      "velocity": 0.71,
      "hand": "right"
    },
    {
      "midi": 60,
      "time": 51.5,
      "duration": 0.5,
      "velocity": 0.93,
      "hand": "right"
    },
    {
      "midi": 72,
      "time": 51.5,
      "duration": 0.5,
      "velocity": 0.71,
      "hand": "right"
    },
    {
      "midi": 63,
      "time": 52,
      "duration": 3,
      "velocity": 0.93,
      "hand": "right"
    },
    {
      "midi": 75,
      "time": 52,
      "duration": 3,
      "velocity": 0.71,
      "hand": "right"
    },
    {
      "midi": 43,
      "time": 54,
      "duration": 1,
      "velocity": 0.32,
      "hand": "left"
    },
    {
      "midi": 51,
      "time": 54,
      "duration": 1,
      "velocity": 0.32,
      "hand": "left"
    },
    {
      "midi": 58,
      "time": 54,
      "duration": 1,
      "velocity": 0.32,
      "hand": "left"
    },
    {
      "midi": 63,
      "time": 54,
      "duration": 1,
      "velocity": 0.93,
      "hand": "right"
    },
    {
      "midi": 70,
      "time": 54,
      "duration": 1,
      "velocity": 0.93,
      "hand": "right"
    },
    {
      "midi": 63,
      "time": 55,
      "duration": 1,
      "velocity": 0.93,
      "hand": "right"
    },
    {
      "midi": 75,
      "time": 55,
      "duration": 1,
      "velocity": 0.71,
      "hand": "right"
    },
    {
      "midi": 46,
      "time": 56,
      "duration": 0.5,
      "velocity": 0.32,
      "hand": "left"
    },
    {
      "midi": 53,
      "time": 56,
      "duration": 0.5,
      "velocity": 0.32,
      "hand": "left"
    },
    {
      "midi": 58,
      "time": 56,
      "duration": 0.5,
      "velocity": 0.32,
      "hand": "left"
    },
    {
      "midi": 62,
      "time": 56,
      "duration": 0.5,
      "velocity": 0.93,
      "hand": "right"
    },
    {
      "midi": 65,
      "time": 56,
      "duration": 0.5,
      "velocity": 0.93,
      "hand": "right"
    },
    {
      "midi": 70,
      "time": 56,
      "duration": 0.5,
      "velocity": 0.93,
      "hand": "right"
    },
    {
      "midi": 74,
      "time": 56,
      "duration": 1,
      "velocity": 0.71,
      "hand": "right"
    },
    {
      "midi": 48,
      "time": 57,
      "duration": 0.5,
      "velocity": 0.32,
      "hand": "left"
    },
    {
      "midi": 51,
      "time": 57,
      "duration": 0.5,
      "velocity": 0.32,
      "hand": "left"
    },
    {
      "midi": 55,
      "time": 57,
      "duration": 0.5,
      "velocity": 0.32,
      "hand": "left"
    },
    {
      "midi": 60,
      "time": 57,
      "duration": 0.5,
      "velocity": 0.32,
      "hand": "right"
    },
    {
      "midi": 63,
      "time": 57,
      "duration": 0.5,
      "velocity": 0.93,
      "hand": "right"
    },
    {
      "midi": 67,
      "time": 57,
      "duration": 0.5,
      "velocity": 0.93,
      "hand": "right"
    },
    {
      "midi": 72,
      "time": 57,
      "duration": 1,
      "velocity": 0.71,
      "hand": "right"
    },
    {
      "midi": 55,
      "time": 58,
      "duration": 0.5,
      "velocity": 0.32,
      "hand": "left"
    },
    {
      "midi": 59,
      "time": 58,
      "duration": 0.5,
      "velocity": 0.32,
      "hand": "left"
    },
    {
      "midi": 62,
      "time": 58,
      "duration": 0.5,
      "velocity": 0.93,
      "hand": "right"
    },
    {
      "midi": 67,
      "time": 58,
      "duration": 1,
      "velocity": 0.71,
      "hand": "right"
    },
    {
      "midi": 48,
      "time": 59,
      "duration": 0.5,
      "velocity": 0.32,
      "hand": "left"
    },
    {
      "midi": 55,
      "time": 59,
      "duration": 0.5,
      "velocity": 0.32,
      "hand": "left"
    },
    {
      "midi": 60,
      "time": 59,
      "duration": 0.5,
      "velocity": 0.32,
      "hand": "right"
    },
    {
      "midi": 63,
      "time": 59,
      "duration": 0.5,
      "velocity": 0.93,
      "hand": "right"
    },
    {
      "midi": 67,
      "time": 59,
      "duration": 0.5,
      "velocity": 0.93,
      "hand": "right"
    },
    {
      "midi": 72,
      "time": 59,
      "duration": 0.75,
      "velocity": 0.71,
      "hand": "right"
    },
    {
      "midi": 74,
      "time": 59.75,
      "duration": 0.25,
      "velocity": 0.71,
      "hand": "right"
    },
    {
      "midi": 55,
      "time": 60,
      "duration": 3,
      "velocity": 0.32,
      "hand": "left"
    },
    {
      "midi": 59,
      "time": 60,
      "duration": 3,
      "velocity": 0.32,
      "hand": "left"
    },
    {
      "midi": 62,
      "time": 60,
      "duration": 3,
      "velocity": 0.93,
      "hand": "right"
    },
    {
      "midi": 67,
      "time": 60,
      "duration": 3,
      "velocity": 0.71,
      "hand": "right"
    },
    {
      "midi": 72,
      "time": 60,
      "duration": 0.25,
      "velocity": 0.71,
      "hand": "right"
    },
    {
      "midi": 53,
      "time": 63,
      "duration": 2,
      "velocity": 0.32,
      "hand": "left"
    },
    {
      "midi": 60,
      "time": 63,
      "duration": 2,
      "velocity": 0.32,
      "hand": "right"
    },
    {
      "midi": 65,
      "time": 63,
      "duration": 2,
      "velocity": 0.93,
      "hand": "right"
    },
    {
      "midi": 68,
      "time": 63,
      "duration": 2.5,
      "velocity": 0.71,
      "hand": "right"
    },
    {
      "midi": 71,
      "time": 65.5,
      "duration": 0.5,
      "velocity": 0.71,
      "hand": "right"
    },
    {
      "midi": 72,
      "time": 66,
      "duration": 0.5,
      "velocity": 0.71,
      "hand": "right"
    },
    {
      "midi": 74,
      "time": 66.5,
      "duration": 0.5,
      "velocity": 0.71,
      "hand": "right"
    },
    {
      "midi": 75,
      "time": 67,
      "duration": 0.5,
      "velocity": 0.71,
      "hand": "right"
    },
    {
      "midi": 76,
      "time": 67.5,
      "duration": 0.5,
      "velocity": 0.71,
      "hand": "right"
    },
    {
      "midi": 77,
      "time": 68,
      "duration": 0.5,
      "velocity": 0.71,
      "hand": "right"
    },
    {
      "midi": 79,
      "time": 68.5,
      "duration": 0.5,
      "velocity": 0.71,
      "hand": "right"
    },
    {
      "midi": 82,
      "time": 69,
      "duration": 1.5,
      "velocity": 0.71,
      "hand": "right"
    },
    {
      "midi": 65,
      "time": 70,
      "duration": 12.5,
      "velocity": 0.93,
      "hand": "right"
    },
    {
      "midi": 68,
      "time": 70,
      "duration": 12.5,
      "velocity": 0.93,
      "hand": "right"
    },
    {
      "midi": 74,
      "time": 70,
      "duration": 12.5,
      "velocity": 0.93,
      "hand": "right"
    },
    {
      "midi": 80,
      "time": 70.5,
      "duration": 0.5,
      "velocity": 0.61,
      "hand": "right"
    },
    {
      "midi": 79,
      "time": 71,
      "duration": 0.5,
      "velocity": 0.61,
      "hand": "right"
    },
    {
      "midi": 77,
      "time": 71.5,
      "duration": 0.5,
      "velocity": 0.61,
      "hand": "right"
    },
    {
      "midi": 82,
      "time": 72,
      "duration": 0.5,
      "velocity": 0.61,
      "hand": "right"
    },
    {
      "midi": 80,
      "time": 72.5,
      "duration": 0.5,
      "velocity": 0.57,
      "hand": "right"
    },
    {
      "midi": 79,
      "time": 73,
      "duration": 0.5,
      "velocity": 0.54,
      "hand": "right"
    },
    {
      "midi": 77,
      "time": 73.5,
      "duration": 0.5,
      "velocity": 0.51,
      "hand": "right"
    },
    {
      "midi": 82,
      "time": 74,
      "duration": 0.5,
      "velocity": 0.48,
      "hand": "right"
    },
    {
      "midi": 80,
      "time": 74.5,
      "duration": 0.5,
      "velocity": 0.45,
      "hand": "right"
    },
    {
      "midi": 79,
      "time": 75,
      "duration": 0.5,
      "velocity": 0.41,
      "hand": "right"
    },
    {
      "midi": 77,
      "time": 75.5,
      "duration": 1,
      "velocity": 0.38,
      "hand": "right"
    },
    {
      "midi": 84,
      "time": 76.5,
      "duration": 0.5,
      "velocity": 0.54,
      "hand": "right"
    },
    {
      "midi": 83,
      "time": 77,
      "duration": 0.5,
      "velocity": 0.54,
      "hand": "right"
    },
    {
      "midi": 84,
      "time": 77.5,
      "duration": 0.5,
      "velocity": 0.54,
      "hand": "right"
    },
    {
      "midi": 82,
      "time": 78,
      "duration": 0.5,
      "velocity": 0.54,
      "hand": "right"
    },
    {
      "midi": 80,
      "time": 78.5,
      "duration": 0.5,
      "velocity": 0.54,
      "hand": "right"
    },
    {
      "midi": 79,
      "time": 79,
      "duration": 0.5,
      "velocity": 0.54,
      "hand": "right"
    },
    {
      "midi": 77,
      "time": 79.5,
      "duration": 1,
      "velocity": 0.54,
      "hand": "right"
    },
    {
      "midi": 84,
      "time": 80.5,
      "duration": 0.5,
      "velocity": 0.54,
      "hand": "right"
    },
    {
      "midi": 83,
      "time": 81,
      "duration": 0.5,
      "velocity": 0.54,
      "hand": "right"
    },
    {
      "midi": 84,
      "time": 81.5,
      "duration": 0.5,
      "velocity": 0.54,
      "hand": "right"
    },
    {
      "midi": 82,
      "time": 82,
      "duration": 0.5,
      "velocity": 0.54,
      "hand": "right"
    },
    {
      "midi": 80,
      "time": 82.5,
      "duration": 0.5,
      "velocity": 0.54,
      "hand": "right"
    },
    {
      "midi": 79,
      "time": 83,
      "duration": 0.5,
      "velocity": 0.54,
      "hand": "right"
    },
    {
      "midi": 77,
      "time": 83.5,
      "duration": 0.75,
      "velocity": 0.54,
      "hand": "right"
    },
    {
      "midi": 84,
      "time": 84.25,
      "duration": 0.25,
      "velocity": 0.53,
      "hand": "right"
    },
    {
      "midi": 83,
      "time": 84.5,
      "duration": 0.25,
      "velocity": 0.52,
      "hand": "right"
    },
    {
      "midi": 84,
      "time": 84.75,
      "duration": 0.25,
      "velocity": 0.5,
      "hand": "right"
    },
    {
      "midi": 82,
      "time": 85,
      "duration": 0.25,
      "velocity": 0.49,
      "hand": "right"
    },
    {
      "midi": 80,
      "time": 85.25,
      "duration": 0.25,
      "velocity": 0.47,
      "hand": "right"
    },
    {
      "midi": 79,
      "time": 85.5,
      "duration": 0.25,
      "velocity": 0.46,
      "hand": "right"
    },
    {
      "midi": 77,
      "time": 85.75,
      "duration": 0.5,
      "velocity": 0.44,
      "hand": "right"
    },
    {
      "midi": 84,
      "time": 86.25,
      "duration": 0.25,
      "velocity": 0.41,
      "hand": "right"
    },
    {
      "midi": 83,
      "time": 86.5,
      "duration": 0.25,
      "velocity": 0.39,
      "hand": "right"
    },
    {
      "midi": 84,
      "time": 86.75,
      "duration": 0.25,
      "velocity": 0.38,
      "hand": "right"
    },
    {
      "midi": 82,
      "time": 87,
      "duration": 0.25,
      "velocity": 0.36,
      "hand": "right"
    },
    {
      "midi": 80,
      "time": 87.25,
      "duration": 0.25,
      "velocity": 0.35,
      "hand": "right"
    },
    {
      "midi": 79,
      "time": 87.5,
      "duration": 0.25,
      "velocity": 0.34,
      "hand": "right"
    },
    {
      "midi": 77,
      "time": 87.75,
      "duration": 0.5,
      "velocity": 0.32,
      "hand": "right"
    },
    {
      "midi": 84,
      "time": 88.25,
      "duration": 0.25,
      "velocity": 0.49,
      "hand": "right"
    },
    {
      "midi": 83,
      "time": 88.5,
      "duration": 0.25,
      "velocity": 0.49,
      "hand": "right"
    },
    {
      "midi": 84,
      "time": 88.75,
      "duration": 0.25,
      "velocity": 0.49,
      "hand": "right"
    },
    {
      "midi": 82,
      "time": 89,
      "duration": 0.25,
      "velocity": 0.49,
      "hand": "right"
    },
    {
      "midi": 80,
      "time": 89.25,
      "duration": 0.25,
      "velocity": 0.49,
      "hand": "right"
    },
    {
      "midi": 79,
      "time": 89.5,
      "duration": 0.25,
      "velocity": 0.49,
      "hand": "right"
    },
    {
      "midi": 77,
      "time": 89.75,
      "duration": 0.25,
      "velocity": 0.49,
      "hand": "right"
    },
    {
      "midi": 75,
      "time": 90,
      "duration": 0.25,
      "velocity": 0.49,
      "hand": "right"
    },
    {
      "midi": 84,
      "time": 90.25,
      "duration": 0.25,
      "velocity": 0.49,
      "hand": "right"
    },
    {
      "midi": 83,
      "time": 90.5,
      "duration": 0.25,
      "velocity": 0.49,
      "hand": "right"
    },
    {
      "midi": 84,
      "time": 90.75,
      "duration": 0.25,
      "velocity": 0.49,
      "hand": "right"
    },
    {
      "midi": 80,
      "time": 91,
      "duration": 0.25,
      "velocity": 0.49,
      "hand": "right"
    },
    {
      "midi": 79,
      "time": 91.25,
      "duration": 0.25,
      "velocity": 0.49,
      "hand": "right"
    },
    {
      "midi": 77,
      "time": 91.5,
      "duration": 0.25,
      "velocity": 0.49,
      "hand": "right"
    },
    {
      "midi": 75,
      "time": 91.75,
      "duration": 0.25,
      "velocity": 0.49,
      "hand": "right"
    },
    {
      "midi": 74,
      "time": 92,
      "duration": 0.25,
      "velocity": 0.49,
      "hand": "right"
    },
    {
      "midi": 84,
      "time": 92.25,
      "duration": 0.25,
      "velocity": 0.49,
      "hand": "right"
    },
    {
      "midi": 83,
      "time": 92.5,
      "duration": 0.25,
      "velocity": 0.49,
      "hand": "right"
    },
    {
      "midi": 84,
      "time": 92.75,
      "duration": 0.25,
      "velocity": 0.49,
      "hand": "right"
    },
    {
      "midi": 79,
      "time": 93,
      "duration": 0.25,
      "velocity": 0.49,
      "hand": "right"
    },
    {
      "midi": 77,
      "time": 93.25,
      "duration": 0.25,
      "velocity": 0.49,
      "hand": "right"
    },
    {
      "midi": 75,
      "time": 93.5,
      "duration": 0.25,
      "velocity": 0.49,
      "hand": "right"
    },
    {
      "midi": 74,
      "time": 93.75,
      "duration": 0.25,
      "velocity": 0.49,
      "hand": "right"
    },
    {
      "midi": 48,
      "time": 94,
      "duration": 1,
      "velocity": 0.32,
      "hand": "left"
    },
    {
      "midi": 51,
      "time": 94,
      "duration": 1,
      "velocity": 0.32,
      "hand": "left"
    },
    {
      "midi": 55,
      "time": 94,
      "duration": 1,
      "velocity": 0.32,
      "hand": "left"
    },
    {
      "midi": 60,
      "time": 94,
      "duration": 2,
      "velocity": 0.93,
      "hand": "right"
    },
    {
      "midi": 72,
      "time": 94,
      "duration": 0.25,
      "velocity": 0.49,
      "hand": "right"
    },
    {
      "midi": 84,
      "time": 94.25,
      "duration": 0.25,
      "velocity": 0.49,
      "hand": "right"
    },
    {
      "midi": 83,
      "time": 94.5,
      "duration": 0.25,
      "velocity": 0.49,
      "hand": "right"
    },
    {
      "midi": 84,
      "time": 94.75,
      "duration": 0.25,
      "velocity": 0.49,
      "hand": "right"
    },
    {
      "midi": 79,
      "time": 95,
      "duration": 0.25,
      "velocity": 0.49,
      "hand": "right"
    },
    {
      "midi": 77,
      "time": 95.25,
      "duration": 0.25,
      "velocity": 0.49,
      "hand": "right"
    },
    {
      "midi": 75,
      "time": 95.5,
      "duration": 0.25,
      "velocity": 0.49,
      "hand": "right"
    },
    {
      "midi": 74,
      "time": 95.75,
      "duration": 0.25,
      "velocity": 0.49,
      "hand": "right"
    },
    {
      "midi": 63,
      "time": 96,
      "duration": 1,
      "velocity": 0.93,
      "hand": "right"
    },
    {
      "midi": 72,
      "time": 96,
      "duration": 0.25,
      "velocity": 0.49,
      "hand": "right"
    },
    {
      "midi": 84,
      "time": 96.25,
      "duration": 0.25,
      "velocity": 0.49,
      "hand": "right"
    },
    {
      "midi": 83,
      "time": 96.5,
      "duration": 0.25,
      "velocity": 0.49,
      "hand": "right"
    },
    {
      "midi": 84,
      "time": 96.75,
      "duration": 0.25,
      "velocity": 0.49,
      "hand": "right"
    },
    {
      "midi": 51,
      "time": 97,
      "duration": 1,
      "velocity": 0.32,
      "hand": "left"
    },
    {
      "midi": 55,
      "time": 97,
      "duration": 1,
      "velocity": 0.32,
      "hand": "left"
    },
    {
      "midi": 60,
      "time": 97,
      "duration": 1,
      "velocity": 0.93,
      "hand": "right"
    },
    {
      "midi": 79,
      "time": 97,
      "duration": 0.25,
      "velocity": 0.49,
      "hand": "right"
    },
    {
      "midi": 77,
      "time": 97.25,
      "duration": 0.25,
      "velocity": 0.49,
      "hand": "right"
    },
    {
      "midi": 75,
      "time": 97.5,
      "duration": 0.25,
      "velocity": 0.49,
      "hand": "right"
    },
    {
      "midi": 74,
      "time": 97.75,
      "duration": 0.25,
      "velocity": 0.49,
      "hand": "right"
    },
    {
      "midi": 56,
      "time": 98,
      "duration": 4,
      "velocity": 0.32,
      "hand": "left"
    },
    {
      "midi": 60,
      "time": 98,
      "duration": 4,
      "velocity": 0.32,
      "hand": "right"
    },
    {
      "midi": 65,
      "time": 98,
      "duration": 4,
      "velocity": 0.93,
      "hand": "right"
    },
    {
      "midi": 72,
      "time": 98,
      "duration": 0.25,
      "velocity": 0.49,
      "hand": "right"
    },
    {
      "midi": 84,
      "time": 98.25,
      "duration": 0.25,
      "velocity": 0.5,
      "hand": "right"
    },
    {
      "midi": 83,
      "time": 98.5,
      "duration": 0.25,
      "velocity": 0.52,
      "hand": "right"
    },
    {
      "midi": 84,
      "time": 98.75,
      "duration": 0.25,
      "velocity": 0.53,
      "hand": "right"
    },
    {
      "midi": 77,
      "time": 99,
      "duration": 0.25,
      "velocity": 0.54,
      "hand": "right"
    },
    {
      "midi": 75,
      "time": 99.25,
      "duration": 0.25,
      "velocity": 0.56,
      "hand": "right"
    },
    {
      "midi": 74,
      "time": 99.5,
      "duration": 0.25,
      "velocity": 0.57,
      "hand": "right"
    },
    {
      "midi": 75,
      "time": 99.75,
      "duration": 0.25,
      "velocity": 0.59,
      "hand": "right"
    },
    {
      "midi": 72,
      "time": 100,
      "duration": 0.25,
      "velocity": 0.61,
      "hand": "right"
    },
    {
      "midi": 84,
      "time": 100.25,
      "duration": 0.25,
      "velocity": 0.62,
      "hand": "right"
    },
    {
      "midi": 83,
      "time": 100.5,
      "duration": 0.25,
      "velocity": 0.64,
      "hand": "right"
    },
    {
      "midi": 84,
      "time": 100.75,
      "duration": 0.25,
      "velocity": 0.65,
      "hand": "right"
    },
    {
      "midi": 77,
      "time": 101,
      "duration": 0.25,
      "velocity": 0.67,
      "hand": "right"
    },
    {
      "midi": 75,
      "time": 101.25,
      "duration": 0.25,
      "velocity": 0.68,
      "hand": "right"
    },
    {
      "midi": 74,
      "time": 101.5,
      "duration": 0.25,
      "velocity": 0.69,
      "hand": "right"
    },
    {
      "midi": 75,
      "time": 101.75,
      "duration": 0.25,
      "velocity": 0.71,
      "hand": "right"
    },
    {
      "midi": 51,
      "time": 102,
      "duration": 1,
      "velocity": 0.32,
      "hand": "left"
    },
    {
      "midi": 60,
      "time": 102,
      "duration": 1,
      "velocity": 0.32,
      "hand": "right"
    },
    {
      "midi": 67,
      "time": 102,
      "duration": 1.75,
      "velocity": 0.93,
      "hand": "right"
    },
    {
      "midi": 72,
      "time": 102,
      "duration": 0.25,
      "velocity": 0.71,
      "hand": "right"
    },
    {
      "midi": 84,
      "time": 102.25,
      "duration": 0.25,
      "velocity": 0.71,
      "hand": "right"
    },
    {
      "midi": 83,
      "time": 102.5,
      "duration": 0.25,
      "velocity": 0.71,
      "hand": "right"
    },
    {
      "midi": 84,
      "time": 102.75,
      "duration": 0.25,
      "velocity": 0.71,
      "hand": "right"
    },
    {
      "midi": 79,
      "time": 103,
      "duration": 0.25,
      "velocity": 0.71,
      "hand": "right"
    },
    {
      "midi": 77,
      "time": 103.25,
      "duration": 0.25,
      "velocity": 0.71,
      "hand": "right"
    },
    {
      "midi": 75,
      "time": 103.5,
      "duration": 0.25,
      "velocity": 0.71,
      "hand": "right"
    },
    {
      "midi": 63,
      "time": 103.75,
      "duration": 0.25,
      "velocity": 0.93,
      "hand": "right"
    },
    {
      "midi": 65,
      "time": 103.75,
      "duration": 0.25,
      "velocity": 0.93,
      "hand": "right"
    },
    {
      "midi": 74,
      "time": 103.75,
      "duration": 0.25,
      "velocity": 0.71,
      "hand": "right"
    },
    {
      "midi": 60,
      "time": 104,
      "duration": 1,
      "velocity": 0.93,
      "hand": "right"
    },
    {
      "midi": 62,
      "time": 104,
      "duration": 0.25,
      "velocity": 0.93,
      "hand": "right"
    },
    {
      "midi": 75,
      "time": 104,
      "duration": 0.25,
      "velocity": 0.71,
      "hand": "right"
    },
    {
      "midi": 87,
      "time": 104.25,
      "duration": 0.25,
      "velocity": 0.71,
      "hand": "right"
    },
    {
      "midi": 86,
      "time": 104.5,
      "duration": 0.25,
      "velocity": 0.71,
      "hand": "right"
    },
    {
      "midi": 87,
      "time": 104.75,
      "duration": 0.25,
      "velocity": 0.71,
      "hand": "right"
    },
    {
      "midi": 48,
      "time": 105,
      "duration": 1,
      "velocity": 0.32,
      "hand": "left"
    },
    {
      "midi": 51,
      "time": 105,
      "duration": 1,
      "velocity": 0.32,
      "hand": "left"
    },
    {
      "midi": 55,
      "time": 105,
      "duration": 1,
      "velocity": 0.32,
      "hand": "left"
    },
    {
      "midi": 60,
      "time": 105,
      "duration": 1,
      "velocity": 0.93,
      "hand": "right"
    },
    {
      "midi": 86,
      "time": 105,
      "duration": 0.25,
      "velocity": 0.71,
      "hand": "right"
    },
    {
      "midi": 84,
      "time": 105.25,
      "duration": 0.25,
      "velocity": 0.71,
      "hand": "right"
    },
    {
      "midi": 82,
      "time": 105.5,
      "duration": 0.25,
      "velocity": 0.71,
      "hand": "right"
    },
    {
      "midi": 81,
      "time": 105.75,
      "duration": 0.25,
      "velocity": 0.71,
      "hand": "right"
    },
    {
      "midi": 43,
      "time": 106,
      "duration": 3.5,
      "velocity": 0.32,
      "hand": "left"
    },
    {
      "midi": 50,
      "time": 106,
      "duration": 1,
      "velocity": 0.93,
      "hand": "left"
    },
    {
      "midi": 58,
      "time": 106,
      "duration": 1,
      "velocity": 0.93,
      "hand": "left"
    },
    {
      "midi": 79,
      "time": 106,
      "duration": 0.25,
      "velocity": 0.71,
      "hand": "right"
    },
    {
      "midi": 91,
      "time": 106.25,
      "duration": 0.25,
      "velocity": 0.71,
      "hand": "right"
    },
    {
      "midi": 90,
      "time": 106.5,
      "duration": 0.25,
      "velocity": 0.71,
      "hand": "right"
    },
    {
      "midi": 91,
      "time": 106.75,
      "duration": 0.25,
      "velocity": 0.71,
      "hand": "right"
    },
    {
      "midi": 46,
      "time": 107,
      "duration": 2.5,
      "velocity": 0.93,
      "hand": "left"
    },
    {
      "midi": 55,
      "time": 107,
      "duration": 2.5,
      "velocity": 0.93,
      "hand": "left"
    },
    {
      "midi": 86,
      "time": 107,
      "duration": 0.25,
      "velocity": 0.71,
      "hand": "right"
    },
    {
      "midi": 84,
      "time": 107.25,
      "duration": 0.25,
      "velocity": 0.71,
      "hand": "right"
    },
    {
      "midi": 82,
      "time": 107.5,
      "duration": 0.25,
      "velocity": 0.71,
      "hand": "right"
    },
    {
      "midi": 81,
      "time": 107.75,
      "duration": 0.25,
      "velocity": 0.71,
      "hand": "right"
    },
    {
      "midi": 79,
      "time": 108,
      "duration": 0.25,
      "velocity": 0.71,
      "hand": "right"
    },
    {
      "midi": 91,
      "time": 108.25,
      "duration": 0.25,
      "velocity": 0.71,
      "hand": "right"
    },
    {
      "midi": 90,
      "time": 108.5,
      "duration": 0.25,
      "velocity": 0.71,
      "hand": "right"
    },
    {
      "midi": 91,
      "time": 108.75,
      "duration": 0.25,
      "velocity": 0.71,
      "hand": "right"
    },
    {
      "midi": 86,
      "time": 109,
      "duration": 0.25,
      "velocity": 0.71,
      "hand": "right"
    },
    {
      "midi": 84,
      "time": 109.25,
      "duration": 0.25,
      "velocity": 0.71,
      "hand": "right"
    },
    {
      "midi": 82,
      "time": 109.5,
      "duration": 0.25,
      "velocity": 0.71,
      "hand": "right"
    },
    {
      "midi": 81,
      "time": 109.75,
      "duration": 0.25,
      "velocity": 0.71,
      "hand": "right"
    },
    {
      "midi": 51,
      "time": 110,
      "duration": 1,
      "velocity": 0.32,
      "hand": "left"
    },
    {
      "midi": 55,
      "time": 110,
      "duration": 1,
      "velocity": 0.32,
      "hand": "left"
    },
    {
      "midi": 60,
      "time": 110,
      "duration": 1,
      "velocity": 0.93,
      "hand": "right"
    },
    {
      "midi": 79,
      "time": 110,
      "duration": 0.25,
      "velocity": 0.71,
      "hand": "right"
    },
    {
      "midi": 91,
      "time": 110.25,
      "duration": 0.25,
      "velocity": 0.71,
      "hand": "right"
    },
    {
      "midi": 90,
      "time": 110.5,
      "duration": 0.25,
      "velocity": 0.71,
      "hand": "right"
    },
    {
      "midi": 91,
      "time": 110.75,
      "duration": 0.25,
      "velocity": 0.71,
      "hand": "right"
    },
    {
      "midi": 60,
      "time": 111,
      "duration": 1,
      "velocity": 0.93,
      "hand": "right"
    },
    {
      "midi": 87,
      "time": 111,
      "duration": 0.25,
      "velocity": 0.71,
      "hand": "right"
    },
    {
      "midi": 86,
      "time": 111.25,
      "duration": 0.25,
      "velocity": 0.71,
      "hand": "right"
    },
    {
      "midi": 84,
      "time": 111.5,
      "duration": 0.25,
      "velocity": 0.71,
      "hand": "right"
    },
    {
      "midi": 82,
      "time": 111.75,
      "duration": 0.25,
      "velocity": 0.71,
      "hand": "right"
    },
    {
      "midi": 48,
      "time": 112,
      "duration": 1,
      "velocity": 0.32,
      "hand": "left"
    },
    {
      "midi": 55,
      "time": 112,
      "duration": 1,
      "velocity": 0.32,
      "hand": "left"
    },
    {
      "midi": 63,
      "time": 112,
      "duration": 1.5,
      "velocity": 0.93,
      "hand": "right"
    },
    {
      "midi": 81,
      "time": 112,
      "duration": 0.25,
      "velocity": 0.71,
      "hand": "right"
    },
    {
      "midi": 91,
      "time": 112.25,
      "duration": 0.25,
      "velocity": 0.71,
      "hand": "right"
    },
    {
      "midi": 90,
      "time": 112.5,
      "duration": 0.25,
      "velocity": 0.71,
      "hand": "right"
    },
    {
      "midi": 91,
      "time": 112.75,
      "duration": 0.25,
      "velocity": 0.71,
      "hand": "right"
    },
    {
      "midi": 86,
      "time": 113,
      "duration": 0.25,
      "velocity": 0.71,
      "hand": "right"
    },
    {
      "midi": 84,
      "time": 113.25,
      "duration": 0.25,
      "velocity": 0.71,
      "hand": "right"
    },
    {
      "midi": 62,
      "time": 113.5,
      "duration": 0.25,
      "velocity": 0.93,
      "hand": "right"
    },
    {
      "midi": 82,
      "time": 113.5,
      "duration": 0.25,
      "velocity": 0.71,
      "hand": "right"
    },
    {
      "midi": 60,
      "time": 113.75,
      "duration": 0.25,
      "velocity": 0.93,
      "hand": "right"
    },
    {
      "midi": 81,
      "time": 113.75,
      "duration": 0.25,
      "velocity": 0.71,
      "hand": "right"
    },
    {
      "midi": 55,
      "time": 114,
      "duration": 4,
      "velocity": 0.32,
      "hand": "left"
    },
    {
      "midi": 58,
      "time": 114,
      "duration": 4,
      "velocity": 0.93,
      "hand": "left"
    },
    {
      "midi": 79,
      "time": 114,
      "duration": 0.25,
      "velocity": 0.71,
      "hand": "right"
    },
    {
      "midi": 86,
      "time": 114.25,
      "duration": 0.25,
      "velocity": 0.71,
      "hand": "right"
    },
    {
      "midi": 85,
      "time": 114.5,
      "duration": 0.25,
      "velocity": 0.71,
      "hand": "right"
    },
    {
      "midi": 86,
      "time": 114.75,
      "duration": 0.25,
      "velocity": 0.71,
      "hand": "right"
    },
    {
      "midi": 82,
      "time": 115,
      "duration": 0.25,
      "velocity": 0.71,
      "hand": "right"
    },
    {
      "midi": 79,
      "time": 115.25,
      "duration": 0.25,
      "velocity": 0.71,
      "hand": "right"
    },
    {
      "midi": 77,
      "time": 115.5,
      "duration": 0.25,
      "velocity": 0.71,
      "hand": "right"
    },
    {
      "midi": 75,
      "time": 115.75,
      "duration": 0.25,
      "velocity": 0.71,
      "hand": "right"
    },
    {
      "midi": 74,
      "time": 116,
      "duration": 0.25,
      "velocity": 0.71,
      "hand": "right"
    },
    {
      "midi": 82,
      "time": 116.25,
      "duration": 0.25,
      "velocity": 0.71,
      "hand": "right"
    },
    {
      "midi": 81,
      "time": 116.5,
      "duration": 0.25,
      "velocity": 0.71,
      "hand": "right"
    },
    {
      "midi": 82,
      "time": 116.75,
      "duration": 0.25,
      "velocity": 0.71,
      "hand": "right"
    },
    {
      "midi": 79,
      "time": 117,
      "duration": 0.25,
      "velocity": 0.71,
      "hand": "right"
    },
    {
      "midi": 77,
      "time": 117.25,
      "duration": 0.25,
      "velocity": 0.71,
      "hand": "right"
    },
    {
      "midi": 75,
      "time": 117.5,
      "duration": 0.25,
      "velocity": 0.71,
      "hand": "right"
    },
    {
      "midi": 74,
      "time": 117.75,
      "duration": 0.25,
      "velocity": 0.71,
      "hand": "right"
    },
    {
      "midi": 51,
      "time": 118,
      "duration": 2,
      "velocity": 0.32,
      "hand": "left"
    },
    {
      "midi": 55,
      "time": 118,
      "duration": 2,
      "velocity": 0.93,
      "hand": "left"
    },
    {
      "midi": 72,
      "time": 118,
      "duration": 0.25,
      "velocity": 0.71,
      "hand": "right"
    },
    {
      "midi": 79,
      "time": 118.25,
      "duration": 0.25,
      "velocity": 0.71,
      "hand": "right"
    },
    {
      "midi": 60,
      "time": 118.5,
      "duration": 0.5,
      "velocity": 0.93,
      "hand": "right"
    },
    {
      "midi": 78,
      "time": 118.5,
      "duration": 0.25,
      "velocity": 0.71,
      "hand": "right"
    },
    {
      "midi": 79,
      "time": 118.75,
      "duration": 0.25,
      "velocity": 0.71,
      "hand": "right"
    },
    {
      "midi": 59,
      "time": 119,
      "duration": 0.5,
      "velocity": 0.93,
      "hand": "left"
    },
    {
      "midi": 75,
      "time": 119,
      "duration": 0.25,
      "velocity": 0.71,
      "hand": "right"
    },
    {
      "midi": 74,
      "time": 119.25,
      "duration": 0.25,
      "velocity": 0.71,
      "hand": "right"
    },
    {
      "midi": 60,
      "time": 119.5,
      "duration": 0.5,
      "velocity": 0.93,
      "hand": "right"
    },
    {
      "midi": 72,
      "time": 119.5,
      "duration": 0.25,
      "velocity": 0.71,
      "hand": "right"
    },
    {
      "midi": 70,
      "time": 119.75,
      "duration": 0.25,
      "velocity": 0.71,
      "hand": "right"
    },
    {
      "midi": 48,
      "time": 120,
      "duration": 2,
      "velocity": 0.32,
      "hand": "left"
    },
    {
      "midi": 51,
      "time": 120,
      "duration": 2,
      "velocity": 0.32,
      "hand": "left"
    },
    {
      "midi": 55,
      "time": 120,
      "duration": 1,
      "velocity": 0.93,
      "hand": "left"
    },
    {
      "midi": 69,
      "time": 120,
      "duration": 0.25,
      "velocity": 0.71,
      "hand": "right"
    },
    {
      "midi": 75,
      "time": 120.25,
      "duration": 0.25,
      "velocity": 0.71,
      "hand": "right"
    },
    {
      "midi": 74,
      "time": 120.5,
      "duration": 0.25,
      "velocity": 0.71,
      "hand": "right"
    },
    {
      "midi": 75,
      "time": 120.75,
      "duration": 0.25,
      "velocity": 0.71,
      "hand": "right"
    },
    {
      "midi": 57,
      "time": 121,
      "duration": 0.5,
      "velocity": 0.93,
      "hand": "left"
    },
    {
      "midi": 74,
      "time": 121,
      "duration": 0.25,
      "velocity": 0.71,
      "hand": "right"
    },
    {
      "midi": 72,
      "time": 121.25,
      "duration": 0.25,
      "velocity": 0.71,
      "hand": "right"
    },
    {
      "midi": 55,
      "time": 121.5,
      "duration": 0.25,
      "velocity": 0.93,
      "hand": "left"
    },
    {
      "midi": 70,
      "time": 121.5,
      "duration": 0.25,
      "velocity": 0.71,
      "hand": "right"
    },
    {
      "midi": 57,
      "time": 121.75,
      "duration": 0.25,
      "velocity": 0.93,
      "hand": "left"
    },
    {
      "midi": 69,
      "time": 121.75,
      "duration": 0.25,
      "velocity": 0.71,
      "hand": "right"
    },
    {
      "midi": 43,
      "time": 122,
      "duration": 3.5,
      "velocity": 0.32,
      "hand": "left"
    },
    {
      "midi": 50,
      "time": 122,
      "duration": 3.5,
      "velocity": 0.32,
      "hand": "left"
    },
    {
      "midi": 58,
      "time": 122,
      "duration": 3.5,
      "velocity": 0.93,
      "hand": "left"
    },
    {
      "midi": 67,
      "time": 122,
      "duration": 0.25,
      "velocity": 0.71,
      "hand": "right"
    },
    {
      "midi": 74,
      "time": 122.25,
      "duration": 0.25,
      "velocity": 0.71,
      "hand": "right"
    },
    {
      "midi": 73,
      "time": 122.5,
      "duration": 0.25,
      "velocity": 0.71,
      "hand": "right"
    },
    {
      "midi": 74,
      "time": 122.75,
      "duration": 0.25,
      "velocity": 0.71,
      "hand": "right"
    },
    {
      "midi": 70,
      "time": 123,
      "duration": 0.25,
      "velocity": 0.71,
      "hand": "right"
    },
    {
      "midi": 67,
      "time": 123.25,
      "duration": 0.25,
      "velocity": 0.71,
      "hand": "right"
    },
    {
      "midi": 65,
      "time": 123.5,
      "duration": 0.25,
      "velocity": 0.71,
      "hand": "right"
    },
    {
      "midi": 63,
      "time": 123.75,
      "duration": 0.25,
      "velocity": 0.71,
      "hand": "right"
    },
    {
      "midi": 62,
      "time": 124,
      "duration": 0.25,
      "velocity": 0.71,
      "hand": "right"
    },
    {
      "midi": 67,
      "time": 124.25,
      "duration": 0.25,
      "velocity": 0.71,
      "hand": "right"
    },
    {
      "midi": 66,
      "time": 124.5,
      "duration": 0.25,
      "velocity": 0.71,
      "hand": "right"
    },
    {
      "midi": 67,
      "time": 124.75,
      "duration": 0.25,
      "velocity": 0.71,
      "hand": "right"
    },
    {
      "midi": 62,
      "time": 125,
      "duration": 0.25,
      "velocity": 0.71,
      "hand": "right"
    },
    {
      "midi": 60,
      "time": 125.25,
      "duration": 0.25,
      "velocity": 0.71,
      "hand": "right"
    },
    {
      "midi": 58,
      "time": 125.5,
      "duration": 0.25,
      "velocity": 0.71,
      "hand": "left"
    },
    {
      "midi": 57,
      "time": 125.75,
      "duration": 0.25,
      "velocity": 0.71,
      "hand": "left"
    },
    {
      "midi": 55,
      "time": 126,
      "duration": 0.25,
      "velocity": 0.71,
      "hand": "left"
    },
    {
      "midi": 62,
      "time": 126.25,
      "duration": 0.25,
      "velocity": 0.71,
      "hand": "right"
    },
    {
      "midi": 61,
      "time": 126.5,
      "duration": 0.25,
      "velocity": 0.71,
      "hand": "right"
    },
    {
      "midi": 62,
      "time": 126.75,
      "duration": 0.25,
      "velocity": 0.71,
      "hand": "right"
    },
    {
      "midi": 58,
      "time": 127,
      "duration": 0.25,
      "velocity": 0.71,
      "hand": "left"
    },
    {
      "midi": 55,
      "time": 127.25,
      "duration": 0.25,
      "velocity": 0.71,
      "hand": "left"
    },
    {
      "midi": 53,
      "time": 127.5,
      "duration": 0.25,
      "velocity": 0.71,
      "hand": "left"
    },
    {
      "midi": 51,
      "time": 127.75,
      "duration": 0.25,
      "velocity": 0.71,
      "hand": "left"
    },
    {
      "midi": 50,
      "time": 128,
      "duration": 0.25,
      "velocity": 0.71,
      "hand": "left"
    },
    {
      "midi": 55,
      "time": 128.25,
      "duration": 0.25,
      "velocity": 0.71,
      "hand": "left"
    },
    {
      "midi": 50,
      "time": 128.5,
      "duration": 0.25,
      "velocity": 0.71,
      "hand": "left"
    },
    {
      "midi": 48,
      "time": 128.75,
      "duration": 0.25,
      "velocity": 0.71,
      "hand": "left"
    },
    {
      "midi": 46,
      "time": 129,
      "duration": 0.25,
      "velocity": 0.71,
      "hand": "left"
    },
    {
      "midi": 45,
      "time": 129.25,
      "duration": 0.25,
      "velocity": 0.71,
      "hand": "left"
    },
    {
      "midi": 43,
      "time": 129.5,
      "duration": 0.25,
      "velocity": 0.93,
      "hand": "left"
    },
    {
      "midi": 41,
      "time": 129.75,
      "duration": 0.25,
      "velocity": 0.93,
      "hand": "left"
    },
    {
      "midi": 39,
      "time": 130,
      "duration": 0.5,
      "velocity": 0.93,
      "hand": "left"
    },
    {
      "midi": 55,
      "time": 130,
      "duration": 1,
      "velocity": 0.71,
      "hand": "left"
    },
    {
      "midi": 67,
      "time": 130,
      "duration": 0.75,
      "velocity": 0.71,
      "hand": "right"
    },
    {
      "midi": 59,
      "time": 130.25,
      "duration": 0.25,
      "velocity": 0.93,
      "hand": "left"
    },
    {
      "midi": 60,
      "time": 130.5,
      "duration": 0.25,
      "velocity": 0.93,
      "hand": "right"
    },
    {
      "midi": 67,
      "time": 130.75,
      "duration": 0.25,
      "velocity": 0.93,
      "hand": "right"
    },
    {
      "midi": 55,
      "time": 131,
      "duration": 1,
      "velocity": 0.93,
      "hand": "left"
    },
    {
      "midi": 67,
      "time": 131,
      "duration": 1,
      "velocity": 0.93,
      "hand": "right"
    },
    {
      "midi": 71,
      "time": 131.25,
      "duration": 0.25,
      "velocity": 0.93,
      "hand": "right"
    },
    {
      "midi": 72,
      "time": 131.5,
      "duration": 0.25,
      "velocity": 0.93,
      "hand": "right"
    },
    {
      "midi": 75,
      "time": 131.75,
      "duration": 0.25,
      "velocity": 0.93,
      "hand": "right"
    },
    {
      "midi": 79,
      "time": 131.75,
      "duration": 0.25,
      "velocity": 0.93,
      "hand": "right"
    },
    {
      "midi": 55,
      "time": 132,
      "duration": 1.5,
      "velocity": 0.93,
      "hand": "left"
    },
    {
      "midi": 67,
      "time": 132,
      "duration": 1,
      "velocity": 0.71,
      "hand": "right"
    },
    {
      "midi": 59,
      "time": 132.25,
      "duration": 0.25,
      "velocity": 0.93,
      "hand": "left"
    },
    {
      "midi": 44,
      "time": 132.5,
      "duration": 1,
      "velocity": 0.32,
      "hand": "left"
    },
    {
      "midi": 48,
      "time": 132.5,
      "duration": 1,
      "velocity": 0.32,
      "hand": "left"
    },
    {
      "midi": 60,
      "time": 132.5,
      "duration": 0.25,
      "velocity": 0.93,
      "hand": "right"
    },
    {
      "midi": 63,
      "time": 132.75,
      "duration": 0.25,
      "velocity": 0.93,
      "hand": "right"
    },
    {
      "midi": 67,
      "time": 133,
      "duration": 0.5,
      "velocity": 0.93,
      "hand": "right"
    },
    {
      "midi": 72,
      "time": 133.25,
      "duration": 0.25,
      "velocity": 0.93,
      "hand": "right"
    },
    {
      "midi": 79,
      "time": 133.25,
      "duration": 0.25,
      "velocity": 0.93,
      "hand": "right"
    },
    {
      "midi": 53,
      "time": 133.5,
      "duration": 0.25,
      "velocity": 0.93,
      "hand": "left"
    },
    {
      "midi": 65,
      "time": 133.5,
      "duration": 0.25,
      "velocity": 0.71,
      "hand": "right"
    },
    {
      "midi": 51,
      "time": 133.75,
      "duration": 0.25,
      "velocity": 0.93,
      "hand": "left"
    },
    {
      "midi": 63,
      "time": 133.75,
      "duration": 0.25,
      "velocity": 0.71,
      "hand": "right"
    },
    {
      "midi": 50,
      "time": 134,
      "duration": 2,
      "velocity": 0.93,
      "hand": "left"
    },
    {
      "midi": 53,
      "time": 134,
      "duration": 2,
      "velocity": 0.93,
      "hand": "left"
    },
    {
      "midi": 62,
      "time": 134,
      "duration": 2,
      "velocity": 0.93,
      "hand": "right"
    },
    {
      "midi": 56,
      "time": 134.25,
      "duration": 0.25,
      "velocity": 0.71,
      "hand": "left"
    },
    {
      "midi": 60,
      "time": 134.5,
      "duration": 0.25,
      "velocity": 0.71,
      "hand": "right"
    },
    {
      "midi": 65,
      "time": 134.75,
      "duration": 0.25,
      "velocity": 0.71,
      "hand": "right"
    },
    {
      "midi": 68,
      "time": 134.75,
      "duration": 0.25,
      "velocity": 0.71,
      "hand": "right"
    },
    {
      "midi": 65,
      "time": 135,
      "duration": 0.25,
      "velocity": 0.71,
      "hand": "right"
    },
    {
      "midi": 68,
      "time": 135,
      "duration": 0.25,
      "velocity": 0.71,
      "hand": "right"
    },
    {
      "midi": 60,
      "time": 135.25,
      "duration": 0.25,
      "velocity": 0.71,
      "hand": "right"
    },
    {
      "midi": 56,
      "time": 135.5,
      "duration": 0.25,
      "velocity": 0.71,
      "hand": "left"
    },
    {
      "midi": 60,
      "time": 135.75,
      "duration": 0.25,
      "velocity": 0.71,
      "hand": "right"
    },
    {
      "midi": 32,
      "time": 136,
      "duration": 1,
      "velocity": 0.93,
      "hand": "left"
    },
    {
      "midi": 44,
      "time": 136,
      "duration": 1,
      "velocity": 0.93,
      "hand": "left"
    },
    {
      "midi": 50,
      "time": 136.25,
      "duration": 0.25,
      "velocity": 0.71,
      "hand": "left"
    },
    {
      "midi": 53,
      "time": 136.5,
      "duration": 0.25,
      "velocity": 0.71,
      "hand": "left"
    },
    {
      "midi": 60,
      "time": 136.75,
      "duration": 0.25,
      "velocity": 0.71,
      "hand": "right"
    },
    {
      "midi": 62,
      "time": 136.75,
      "duration": 0.25,
      "velocity": 0.71,
      "hand": "right"
    },
    {
      "midi": 31,
      "time": 137,
      "duration": 1,
      "velocity": 0.93,
      "hand": "left"
    },
    {
      "midi": 43,
      "time": 137,
      "duration": 1,
      "velocity": 0.93,
      "hand": "left"
    },
    {
      "midi": 50,
      "time": 137.25,
      "duration": 0.25,
      "velocity": 0.71,
      "hand": "left"
    },
    {
      "midi": 53,
      "time": 137.5,
      "duration": 0.25,
      "velocity": 0.71,
      "hand": "left"
    },
    {
      "midi": 59,
      "time": 137.75,
      "duration": 0.25,
      "velocity": 0.71,
      "hand": "left"
    },
    {
      "midi": 62,
      "time": 137.75,
      "duration": 0.25,
      "velocity": 0.71,
      "hand": "right"
    },
    {
      "midi": 39,
      "time": 138,
      "duration": 0.5,
      "velocity": 0.93,
      "hand": "left"
    },
    {
      "midi": 51,
      "time": 138,
      "duration": 0.5,
      "velocity": 0.93,
      "hand": "left"
    },
    {
      "midi": 55,
      "time": 138,
      "duration": 1,
      "velocity": 0.71,
      "hand": "left"
    },
    {
      "midi": 67,
      "time": 138,
      "duration": 0.75,
      "velocity": 0.71,
      "hand": "right"
    },
    {
      "midi": 59,
      "time": 138.25,
      "duration": 0.25,
      "velocity": 0.93,
      "hand": "left"
    },
    {
      "midi": 60,
      "time": 138.5,
      "duration": 0.25,
      "velocity": 0.93,
      "hand": "right"
    },
    {
      "midi": 67,
      "time": 138.75,
      "duration": 0.25,
      "velocity": 0.93,
      "hand": "right"
    },
    {
      "midi": 55,
      "time": 139,
      "duration": 1,
      "velocity": 0.93,
      "hand": "left"
    },
    {
      "midi": 67,
      "time": 139,
      "duration": 1,
      "velocity": 0.93,
      "hand": "right"
    },
    {
      "midi": 71,
      "time": 139.25,
      "duration": 0.25,
      "velocity": 0.93,
      "hand": "right"
    },
    {
      "midi": 72,
      "time": 139.5,
      "duration": 0.25,
      "velocity": 0.93,
      "hand": "right"
    },
    {
      "midi": 75,
      "time": 139.75,
      "duration": 0.25,
      "velocity": 0.93,
      "hand": "right"
    },
    {
      "midi": 79,
      "time": 139.75,
      "duration": 0.25,
      "velocity": 0.93,
      "hand": "right"
    },
    {
      "midi": 55,
      "time": 140,
      "duration": 1.5,
      "velocity": 0.93,
      "hand": "left"
    },
    {
      "midi": 67,
      "time": 140,
      "duration": 1,
      "velocity": 0.71,
      "hand": "right"
    },
    {
      "midi": 59,
      "time": 140.25,
      "duration": 0.25,
      "velocity": 0.93,
      "hand": "left"
    },
    {
      "midi": 44,
      "time": 140.5,
      "duration": 1,
      "velocity": 0.32,
      "hand": "left"
    },
    {
      "midi": 48,
      "time": 140.5,
      "duration": 1,
      "velocity": 0.32,
      "hand": "left"
    },
    {
      "midi": 60,
      "time": 140.5,
      "duration": 0.25,
      "velocity": 0.93,
      "hand": "right"
    },
    {
      "midi": 63,
      "time": 140.75,
      "duration": 0.25,
      "velocity": 0.93,
      "hand": "right"
    },
    {
      "midi": 67,
      "time": 141,
      "duration": 0.5,
      "velocity": 0.93,
      "hand": "right"
    },
    {
      "midi": 72,
      "time": 141.25,
      "duration": 0.25,
      "velocity": 0.93,
      "hand": "right"
    },
    {
      "midi": 79,
      "time": 141.25,
      "duration": 0.25,
      "velocity": 0.93,
      "hand": "right"
    },
    {
      "midi": 53,
      "time": 141.5,
      "duration": 0.25,
      "velocity": 0.93,
      "hand": "left"
    },
    {
      "midi": 65,
      "time": 141.5,
      "duration": 0.25,
      "velocity": 0.71,
      "hand": "right"
    },
    {
      "midi": 51,
      "time": 141.75,
      "duration": 0.25,
      "velocity": 0.93,
      "hand": "left"
    },
    {
      "midi": 63,
      "time": 141.75,
      "duration": 0.25,
      "velocity": 0.71,
      "hand": "right"
    },
    {
      "midi": 50,
      "time": 142,
      "duration": 2,
      "velocity": 0.93,
      "hand": "left"
    },
    {
      "midi": 53,
      "time": 142,
      "duration": 2,
      "velocity": 0.93,
      "hand": "left"
    },
    {
      "midi": 62,
      "time": 142,
      "duration": 2,
      "velocity": 0.93,
      "hand": "right"
    },
    {
      "midi": 56,
      "time": 142.25,
      "duration": 0.25,
      "velocity": 0.71,
      "hand": "left"
    },
    {
      "midi": 60,
      "time": 142.5,
      "duration": 0.25,
      "velocity": 0.71,
      "hand": "right"
    },
    {
      "midi": 65,
      "time": 142.75,
      "duration": 0.25,
      "velocity": 0.71,
      "hand": "right"
    },
    {
      "midi": 68,
      "time": 142.75,
      "duration": 0.25,
      "velocity": 0.71,
      "hand": "right"
    },
    {
      "midi": 65,
      "time": 143,
      "duration": 0.25,
      "velocity": 0.71,
      "hand": "right"
    },
    {
      "midi": 68,
      "time": 143,
      "duration": 0.25,
      "velocity": 0.71,
      "hand": "right"
    },
    {
      "midi": 60,
      "time": 143.25,
      "duration": 0.25,
      "velocity": 0.71,
      "hand": "right"
    },
    {
      "midi": 56,
      "time": 143.5,
      "duration": 0.25,
      "velocity": 0.71,
      "hand": "left"
    },
    {
      "midi": 60,
      "time": 143.75,
      "duration": 0.25,
      "velocity": 0.71,
      "hand": "right"
    },
    {
      "midi": 32,
      "time": 144,
      "duration": 1,
      "velocity": 0.93,
      "hand": "left"
    },
    {
      "midi": 44,
      "time": 144,
      "duration": 1,
      "velocity": 0.93,
      "hand": "left"
    },
    {
      "midi": 50,
      "time": 144.25,
      "duration": 0.25,
      "velocity": 0.71,
      "hand": "left"
    },
    {
      "midi": 53,
      "time": 144.5,
      "duration": 0.25,
      "velocity": 0.71,
      "hand": "left"
    },
    {
      "midi": 60,
      "time": 144.75,
      "duration": 0.25,
      "velocity": 0.71,
      "hand": "right"
    },
    {
      "midi": 62,
      "time": 144.75,
      "duration": 0.25,
      "velocity": 0.71,
      "hand": "right"
    },
    {
      "midi": 31,
      "time": 145,
      "duration": 1,
      "velocity": 0.93,
      "hand": "left"
    },
    {
      "midi": 43,
      "time": 145,
      "duration": 1,
      "velocity": 0.93,
      "hand": "left"
    },
    {
      "midi": 50,
      "time": 145.25,
      "duration": 0.25,
      "velocity": 0.71,
      "hand": "left"
    },
    {
      "midi": 53,
      "time": 145.5,
      "duration": 0.25,
      "velocity": 0.71,
      "hand": "left"
    },
    {
      "midi": 59,
      "time": 145.75,
      "duration": 0.25,
      "velocity": 0.71,
      "hand": "left"
    },
    {
      "midi": 62,
      "time": 145.75,
      "duration": 0.25,
      "velocity": 0.71,
      "hand": "right"
    },
    {
      "midi": 48,
      "time": 146,
      "duration": 1,
      "velocity": 0.93,
      "hand": "left"
    },
    {
      "midi": 60,
      "time": 146,
      "duration": 1,
      "velocity": 0.71,
      "hand": "right"
    },
    {
      "midi": 51,
      "time": 146.25,
      "duration": 0.25,
      "velocity": 0.93,
      "hand": "left"
    },
    {
      "midi": 36,
      "time": 146.5,
      "duration": 0.5,
      "velocity": 0.32,
      "hand": "left"
    },
    {
      "midi": 39,
      "time": 146.5,
      "duration": 0.5,
      "velocity": 0.32,
      "hand": "left"
    },
    {
      "midi": 43,
      "time": 146.5,
      "duration": 0.5,
      "velocity": 0.32,
      "hand": "left"
    },
    {
      "midi": 55,
      "time": 146.5,
      "duration": 0.25,
      "velocity": 0.93,
      "hand": "left"
    },
    {
      "midi": 51,
      "time": 146.75,
      "duration": 0.25,
      "velocity": 0.93,
      "hand": "left"
    },
    {
      "midi": 48,
      "time": 147,
      "duration": 0.5,
      "velocity": 0.93,
      "hand": "left"
    },
    {
      "midi": 60,
      "time": 147,
      "duration": 0.5,
      "velocity": 0.93,
      "hand": "right"
    },
    {
      "midi": 63,
      "time": 147.25,
      "duration": 0.25,
      "velocity": 0.71,
      "hand": "right"
    },
    {
      "midi": 50,
      "time": 147.5,
      "duration": 0.5,
      "velocity": 0.93,
      "hand": "left"
    },
    {
      "midi": 62,
      "time": 147.5,
      "duration": 0.5,
      "velocity": 0.93,
      "hand": "right"
    },
    {
      "midi": 67,
      "time": 147.5,
      "duration": 0.25,
      "velocity": 0.71,
      "hand": "right"
    },
    {
      "midi": 72,
      "time": 147.5,
      "duration": 0.25,
      "velocity": 0.71,
      "hand": "right"
    },
    {
      "midi": 63,
      "time": 147.75,
      "duration": 0.25,
      "velocity": 0.71,
      "hand": "right"
    },
    {
      "midi": 53,
      "time": 148,
      "duration": 0.5,
      "velocity": 0.93,
      "hand": "left"
    },
    {
      "midi": 65,
      "time": 148,
      "duration": 0.5,
      "velocity": 0.93,
      "hand": "right"
    },
    {
      "midi": 67,
      "time": 148.25,
      "duration": 0.25,
      "velocity": 0.71,
      "hand": "right"
    },
    {
      "midi": 51,
      "time": 148.5,
      "duration": 0.5,
      "velocity": 0.93,
      "hand": "left"
    },
    {
      "midi": 63,
      "time": 148.5,
      "duration": 0.5,
      "velocity": 0.93,
      "hand": "right"
    },
    {
      "midi": 72,
      "time": 148.5,
      "duration": 0.25,
      "velocity": 0.71,
      "hand": "right"
    },
    {
      "midi": 75,
      "time": 148.5,
      "duration": 0.25,
      "velocity": 0.71,
      "hand": "right"
    },
    {
      "midi": 67,
      "time": 148.75,
      "duration": 0.25,
      "velocity": 0.71,
      "hand": "right"
    },
    {
      "midi": 50,
      "time": 149,
      "duration": 0.5,
      "velocity": 0.93,
      "hand": "left"
    },
    {
      "midi": 62,
      "time": 149,
      "duration": 0.5,
      "velocity": 0.93,
      "hand": "right"
    },
    {
      "midi": 72,
      "time": 149.25,
      "duration": 0.25,
      "velocity": 0.71,
      "hand": "right"
    },
    {
      "midi": 48,
      "time": 149.5,
      "duration": 0.5,
      "velocity": 0.93,
      "hand": "left"
    },
    {
      "midi": 60,
      "time": 149.5,
      "duration": 0.5,
      "velocity": 0.93,
      "hand": "right"
    },
    {
      "midi": 75,
      "time": 149.5,
      "duration": 0.25,
      "velocity": 0.71,
      "hand": "right"
    },
    {
      "midi": 79,
      "time": 149.5,
      "duration": 0.25,
      "velocity": 0.71,
      "hand": "right"
    },
    {
      "midi": 72,
      "time": 149.75,
      "duration": 0.25,
      "velocity": 0.71,
      "hand": "right"
    },
    {
      "midi": 51,
      "time": 150,
      "duration": 1,
      "velocity": 0.75,
      "hand": "left"
    },
    {
      "midi": 63,
      "time": 150,
      "duration": 3,
      "velocity": 0.75,
      "hand": "right"
    },
    {
      "midi": 75,
      "time": 150.25,
      "duration": 0.25,
      "velocity": 0.71,
      "hand": "right"
    },
    {
      "midi": 79,
      "time": 150.5,
      "duration": 0.25,
      "velocity": 0.71,
      "hand": "right"
    },
    {
      "midi": 82,
      "time": 150.5,
      "duration": 0.25,
      "velocity": 0.71,
      "hand": "right"
    },
    {
      "midi": 75,
      "time": 150.75,
      "duration": 0.25,
      "velocity": 0.71,
      "hand": "right"
    },
    {
      "midi": 43,
      "time": 151,
      "duration": 2,
      "velocity": 0.32,
      "hand": "left"
    },
    {
      "midi": 46,
      "time": 151,
      "duration": 2,
      "velocity": 0.32,
      "hand": "left"
    },
    {
      "midi": 51,
      "time": 151,
      "duration": 2,
      "velocity": 0.32,
      "hand": "left"
    },
    {
      "midi": 55,
      "time": 151,
      "duration": 2,
      "velocity": 0.32,
      "hand": "left"
    },
    {
      "midi": 82,
      "time": 151,
      "duration": 0.25,
      "velocity": 0.71,
      "hand": "right"
    },
    {
      "midi": 87,
      "time": 151,
      "duration": 0.25,
      "velocity": 0.71,
      "hand": "right"
    },
    {
      "midi": 75,
      "time": 151.25,
      "duration": 0.25,
      "velocity": 0.71,
      "hand": "right"
    },
    {
      "midi": 79,
      "time": 151.5,
      "duration": 0.25,
      "velocity": 0.71,
      "hand": "right"
    },
    {
      "midi": 82,
      "time": 151.5,
      "duration": 0.25,
      "velocity": 0.71,
      "hand": "right"
    },
    {
      "midi": 75,
      "time": 151.75,
      "duration": 0.25,
      "velocity": 0.71,
      "hand": "right"
    },
    {
      "midi": 75,
      "time": 152,
      "duration": 0.25,
      "velocity": 0.71,
      "hand": "right"
    },
    {
      "midi": 79,
      "time": 152,
      "duration": 0.25,
      "velocity": 0.71,
      "hand": "right"
    },
    {
      "midi": 70,
      "time": 152.25,
      "duration": 0.25,
      "velocity": 0.71,
      "hand": "right"
    },
    {
      "midi": 70,
      "time": 152.5,
      "duration": 0.25,
      "velocity": 0.71,
      "hand": "right"
    },
    {
      "midi": 75,
      "time": 152.5,
      "duration": 0.25,
      "velocity": 0.71,
      "hand": "right"
    },
    {
      "midi": 67,
      "time": 152.75,
      "duration": 0.25,
      "velocity": 0.71,
      "hand": "right"
    },
    {
      "midi": 51,
      "time": 153,
      "duration": 1,
      "velocity": 0.75,
      "hand": "left"
    },
    {
      "midi": 55,
      "time": 153,
      "duration": 1,
      "velocity": 0.75,
      "hand": "left"
    },
    {
      "midi": 63,
      "time": 153,
      "duration": 1,
      "velocity": 0.75,
      "hand": "right"
    },
    {
      "midi": 58,
      "time": 153.25,
      "duration": 0.25,
      "velocity": 0.71,
      "hand": "left"
    },
    {
      "midi": 67,
      "time": 153.5,
      "duration": 0.25,
      "velocity": 0.71,
      "hand": "right"
    },
    {
      "midi": 70,
      "time": 153.5,
      "duration": 0.25,
      "velocity": 0.71,
      "hand": "right"
    },
    {
      "midi": 58,
      "time": 153.75,
      "duration": 0.25,
      "velocity": 0.71,
      "hand": "left"
    },
    {
      "midi": 50,
      "time": 154,
      "duration": 1,
      "velocity": 0.75,
      "hand": "left"
    },
    {
      "midi": 53,
      "time": 154,
      "duration": 1,
      "velocity": 0.75,
      "hand": "left"
    },
    {
      "midi": 62,
      "time": 154,
      "duration": 1,
      "velocity": 0.75,
      "hand": "right"
    },
    {
      "midi": 58,
      "time": 154.25,
      "duration": 0.25,
      "velocity": 0.71,
      "hand": "left"
    },
    {
      "midi": 65,
      "time": 154.5,
      "duration": 0.25,
      "velocity": 0.71,
      "hand": "right"
    },
    {
      "midi": 70,
      "time": 154.5,
      "duration": 0.25,
      "velocity": 0.71,
      "hand": "right"
    },
    {
      "midi": 58,
      "time": 154.75,
      "duration": 0.25,
      "velocity": 0.71,
      "hand": "left"
    },
    {
      "midi": 48,
      "time": 155,
      "duration": 1,
      "velocity": 0.7,
      "hand": "left"
    },
    {
      "midi": 51,
      "time": 155,
      "duration": 1,
      "velocity": 0.7,
      "hand": "left"
    },
    {
      "midi": 55,
      "time": 155,
      "duration": 1,
      "velocity": 0.7,
      "hand": "left"
    },
    {
      "midi": 60,
      "time": 155,
      "duration": 1,
      "velocity": 0.7,
      "hand": "right"
    },
    {
      "midi": 63,
      "time": 155.25,
      "duration": 0.25,
      "velocity": 0.71,
      "hand": "right"
    },
    {
      "midi": 67,
      "time": 155.5,
      "duration": 0.25,
      "velocity": 0.71,
      "hand": "right"
    },
    {
      "midi": 72,
      "time": 155.5,
      "duration": 0.25,
      "velocity": 0.71,
      "hand": "right"
    },
    {
      "midi": 75,
      "time": 155.5,
      "duration": 0.25,
      "velocity": 0.71,
      "hand": "right"
    },
    {
      "midi": 63,
      "time": 155.75,
      "duration": 0.25,
      "velocity": 0.71,
      "hand": "right"
    },
    {
      "midi": 43,
      "time": 156,
      "duration": 1,
      "velocity": 0.65,
      "hand": "left"
    },
    {
      "midi": 46,
      "time": 156,
      "duration": 1,
      "velocity": 0.65,
      "hand": "left"
    },
    {
      "midi": 50,
      "time": 156,
      "duration": 1,
      "velocity": 0.65,
      "hand": "left"
    },
    {
      "midi": 55,
      "time": 156,
      "duration": 1,
      "velocity": 0.65,
      "hand": "left"
    },
    {
      "midi": 67,
      "time": 156.25,
      "duration": 0.25,
      "velocity": 0.71,
      "hand": "right"
    },
    {
      "midi": 70,
      "time": 156.5,
      "duration": 0.25,
      "velocity": 0.71,
      "hand": "right"
    },
    {
      "midi": 74,
      "time": 156.5,
      "duration": 0.25,
      "velocity": 0.71,
      "hand": "right"
    },
    {
      "midi": 79,
      "time": 156.5,
      "duration": 0.25,
      "velocity": 0.71,
      "hand": "right"
    },
    {
      "midi": 67,
      "time": 156.75,
      "duration": 0.25,
      "velocity": 0.71,
      "hand": "right"
    },
    {
      "midi": 39,
      "time": 157,
      "duration": 0.5,
      "velocity": 0.61,
      "hand": "left"
    },
    {
      "midi": 60,
      "time": 157,
      "duration": 0.75,
      "velocity": 0.71,
      "hand": "right"
    },
    {
      "midi": 48,
      "time": 157.25,
      "duration": 0.25,
      "velocity": 0.93,
      "hand": "left"
    },
    {
      "midi": 51,
      "time": 157.5,
      "duration": 0.5,
      "velocity": 0.61,
      "hand": "left"
    },
    {
      "midi": 55,
      "time": 157.5,
      "duration": 0.5,
      "velocity": 0.93,
      "hand": "left"
    },
    {
      "midi": 62,
      "time": 157.75,
      "duration": 0.25,
      "velocity": 0.71,
      "hand": "right"
    },
    {
      "midi": 34,
      "time": 158,
      "duration": 0.5,
      "velocity": 0.61,
      "hand": "left"
    },
    {
      "midi": 55,
      "time": 158,
      "duration": 0.75,
      "velocity": 0.71,
      "hand": "left"
    },
    {
      "midi": 60,
      "time": 158,
      "duration": 0.25,
      "velocity": 0.71,
      "hand": "right"
    },
    {
      "midi": 50,
      "time": 158.25,
      "duration": 0.5,
      "velocity": 0.93,
      "hand": "left"
    },
    {
      "midi": 46,
      "time": 158.5,
      "duration": 0.5,
      "velocity": 0.61,
      "hand": "left"
    },
    {
      "midi": 50,
      "time": 158.75,
      "duration": 0.25,
      "velocity": 0.93,
      "hand": "left"
    },
    {
      "midi": 55,
      "time": 158.75,
      "duration": 0.25,
      "velocity": 0.71,
      "hand": "left"
    },
    {
      "midi": 50,
      "time": 159,
      "duration": 0.25,
      "velocity": 0.61,
      "hand": "left"
    },
    {
      "midi": 55,
      "time": 159.25,
      "duration": 0.25,
      "velocity": 0.71,
      "hand": "left"
    },
    {
      "midi": 58,
      "time": 159.25,
      "duration": 0.25,
      "velocity": 0.71,
      "hand": "left"
    },
    {
      "midi": 55,
      "time": 159.5,
      "duration": 0.25,
      "velocity": 0.61,
      "hand": "left"
    },
    {
      "midi": 58,
      "time": 159.75,
      "duration": 0.25,
      "velocity": 0.71,
      "hand": "left"
    },
    {
      "midi": 62,
      "time": 159.75,
      "duration": 0.25,
      "velocity": 0.71,
      "hand": "right"
    },
    {
      "midi": 58,
      "time": 160,
      "duration": 0.25,
      "velocity": 0.61,
      "hand": "left"
    },
    {
      "midi": 62,
      "time": 160.25,
      "duration": 0.25,
      "velocity": 0.71,
      "hand": "right"
    },
    {
      "midi": 67,
      "time": 160.25,
      "duration": 0.25,
      "velocity": 0.71,
      "hand": "right"
    },
    {
      "midi": 62,
      "time": 160.5,
      "duration": 0.25,
      "velocity": 0.61,
      "hand": "right"
    },
    {
      "midi": 67,
      "time": 160.75,
      "duration": 0.25,
      "velocity": 0.71,
      "hand": "right"
    },
    {
      "midi": 70,
      "time": 160.75,
      "duration": 0.25,
      "velocity": 0.71,
      "hand": "right"
    },
    {
      "midi": 51,
      "time": 161,
      "duration": 0.5,
      "velocity": 0.61,
      "hand": "left"
    },
    {
      "midi": 72,
      "time": 161,
      "duration": 0.75,
      "velocity": 0.71,
      "hand": "right"
    },
    {
      "midi": 60,
      "time": 161.25,
      "duration": 0.25,
      "velocity": 0.54,
      "hand": "right"
    },
    {
      "midi": 63,
      "time": 161.5,
      "duration": 0.5,
      "velocity": 0.61,
      "hand": "right"
    },
    {
      "midi": 67,
      "time": 161.5,
      "duration": 0.5,
      "velocity": 0.54,
      "hand": "right"
    },
    {
      "midi": 74,
      "time": 161.75,
      "duration": 0.25,
      "velocity": 0.71,
      "hand": "right"
    },
    {
      "midi": 46,
      "time": 162,
      "duration": 0.5,
      "velocity": 0.61,
      "hand": "left"
    },
    {
      "midi": 67,
      "time": 162,
      "duration": 0.75,
      "velocity": 0.71,
      "hand": "right"
    },
    {
      "midi": 72,
      "time": 162,
      "duration": 0.25,
      "velocity": 0.71,
      "hand": "right"
    },
    {
      "midi": 62,
      "time": 162.25,
      "duration": 0.5,
      "velocity": 0.54,
      "hand": "right"
    },
    {
      "midi": 58,
      "time": 162.5,
      "duration": 0.5,
      "velocity": 0.61,
      "hand": "left"
    },
    {
      "midi": 62,
      "time": 162.75,
      "duration": 0.25,
      "velocity": 0.54,
      "hand": "right"
    },
    {
      "midi": 67,
      "time": 162.75,
      "duration": 0.25,
      "velocity": 0.71,
      "hand": "right"
    },
    {
      "midi": 62,
      "time": 163,
      "duration": 0.25,
      "velocity": 0.61,
      "hand": "right"
    },
    {
      "midi": 67,
      "time": 163.25,
      "duration": 0.25,
      "velocity": 0.71,
      "hand": "right"
    },
    {
      "midi": 70,
      "time": 163.25,
      "duration": 0.25,
      "velocity": 0.71,
      "hand": "right"
    },
    {
      "midi": 67,
      "time": 163.5,
      "duration": 0.25,
      "velocity": 0.61,
      "hand": "right"
    },
    {
      "midi": 70,
      "time": 163.75,
      "duration": 0.25,
      "velocity": 0.71,
      "hand": "right"
    },
    {
      "midi": 74,
      "time": 163.75,
      "duration": 0.25,
      "velocity": 0.71,
      "hand": "right"
    },
    {
      "midi": 70,
      "time": 164,
      "duration": 0.25,
      "velocity": 0.61,
      "hand": "right"
    },
    {
      "midi": 74,
      "time": 164.25,
      "duration": 0.25,
      "velocity": 0.71,
      "hand": "right"
    },
    {
      "midi": 79,
      "time": 164.25,
      "duration": 0.25,
      "velocity": 0.71,
      "hand": "right"
    },
    {
      "midi": 74,
      "time": 164.5,
      "duration": 0.25,
      "velocity": 0.61,
      "hand": "right"
    },
    {
      "midi": 79,
      "time": 164.75,
      "duration": 0.25,
      "velocity": 0.71,
      "hand": "right"
    },
    {
      "midi": 82,
      "time": 164.75,
      "duration": 0.25,
      "velocity": 0.71,
      "hand": "right"
    },
    {
      "midi": 63,
      "time": 165,
      "duration": 0.5,
      "velocity": 0.61,
      "hand": "right"
    },
    {
      "midi": 84,
      "time": 165,
      "duration": 0.75,
      "velocity": 0.71,
      "hand": "right"
    },
    {
      "midi": 72,
      "time": 165.25,
      "duration": 0.25,
      "velocity": 0.49,
      "hand": "right"
    },
    {
      "midi": 75,
      "time": 165.5,
      "duration": 0.5,
      "velocity": 0.61,
      "hand": "right"
    },
    {
      "midi": 79,
      "time": 165.5,
      "duration": 0.5,
      "velocity": 0.49,
      "hand": "right"
    },
    {
      "midi": 86,
      "time": 165.75,
      "duration": 0.25,
      "velocity": 0.71,
      "hand": "right"
    },
    {
      "midi": 58,
      "time": 166,
      "duration": 0.5,
      "velocity": 0.61,
      "hand": "left"
    },
    {
      "midi": 79,
      "time": 166,
      "duration": 0.75,
      "velocity": 0.71,
      "hand": "right"
    },
    {
      "midi": 84,
      "time": 166,
      "duration": 0.25,
      "velocity": 0.71,
      "hand": "right"
    },
    {
      "midi": 74,
      "time": 166.25,
      "duration": 0.5,
      "velocity": 0.49,
      "hand": "right"
    },
    {
      "midi": 70,
      "time": 166.5,
      "duration": 0.5,
      "velocity": 0.61,
      "hand": "right"
    },
    {
      "midi": 74,
      "time": 166.75,
      "duration": 0.25,
      "velocity": 0.49,
      "hand": "right"
    },
    {
      "midi": 79,
      "time": 166.75,
      "duration": 0.25,
      "velocity": 0.71,
      "hand": "right"
    },
    {
      "midi": 74,
      "time": 167,
      "duration": 0.25,
      "velocity": 0.61,
      "hand": "right"
    },
    {
      "midi": 79,
      "time": 167.25,
      "duration": 0.25,
      "velocity": 0.71,
      "hand": "right"
    },
    {
      "midi": 82,
      "time": 167.25,
      "duration": 0.25,
      "velocity": 0.71,
      "hand": "right"
    },
    {
      "midi": 79,
      "time": 167.5,
      "duration": 0.25,
      "velocity": 0.61,
      "hand": "right"
    },
    {
      "midi": 82,
      "time": 167.75,
      "duration": 0.25,
      "velocity": 0.71,
      "hand": "right"
    },
    {
      "midi": 86,
      "time": 167.75,
      "duration": 0.25,
      "velocity": 0.71,
      "hand": "right"
    },
    {
      "midi": 82,
      "time": 168,
      "duration": 0.25,
      "velocity": 0.61,
      "hand": "right"
    },
    {
      "midi": 86,
      "time": 168.25,
      "duration": 0.25,
      "velocity": 0.71,
      "hand": "right"
    },
    {
      "midi": 91,
      "time": 168.25,
      "duration": 0.25,
      "velocity": 0.71,
      "hand": "right"
    },
    {
      "midi": 86,
      "time": 168.5,
      "duration": 0.25,
      "velocity": 0.61,
      "hand": "right"
    },
    {
      "midi": 91,
      "time": 168.75,
      "duration": 0.25,
      "velocity": 0.71,
      "hand": "right"
    },
    {
      "midi": 94,
      "time": 168.75,
      "duration": 0.25,
      "velocity": 0.71,
      "hand": "right"
    },
    {
      "midi": 91,
      "time": 169,
      "duration": 0.25,
      "velocity": 0.61,
      "hand": "right"
    },
    {
      "midi": 94,
      "time": 169.25,
      "duration": 0.25,
      "velocity": 0.71,
      "hand": "right"
    },
    {
      "midi": 98,
      "time": 169.25,
      "duration": 0.25,
      "velocity": 0.71,
      "hand": "right"
    },
    {
      "midi": 94,
      "time": 169.5,
      "duration": 0.25,
      "velocity": 0.61,
      "hand": "right"
    },
    {
      "midi": 98,
      "time": 169.75,
      "duration": 0.25,
      "velocity": 0.71,
      "hand": "right"
    },
    {
      "midi": 103,
      "time": 169.75,
      "duration": 0.25,
      "velocity": 0.71,
      "hand": "right"
    },
    {
      "midi": 91,
      "time": 170,
      "duration": 0.25,
      "velocity": 0.61,
      "hand": "right"
    },
    {
      "midi": 94,
      "time": 170.25,
      "duration": 0.25,
      "velocity": 0.71,
      "hand": "right"
    },
    {
      "midi": 98,
      "time": 170.25,
      "duration": 0.25,
      "velocity": 0.71,
      "hand": "right"
    },
    {
      "midi": 94,
      "time": 170.5,
      "duration": 0.25,
      "velocity": 0.61,
      "hand": "right"
    },
    {
      "midi": 98,
      "time": 170.75,
      "duration": 0.25,
      "velocity": 0.71,
      "hand": "right"
    },
    {
      "midi": 103,
      "time": 170.75,
      "duration": 0.25,
      "velocity": 0.71,
      "hand": "right"
    },
    {
      "midi": 91,
      "time": 171,
      "duration": 0.25,
      "velocity": 0.61,
      "hand": "right"
    },
    {
      "midi": 94,
      "time": 171.25,
      "duration": 0.25,
      "velocity": 0.71,
      "hand": "right"
    },
    {
      "midi": 98,
      "time": 171.25,
      "duration": 0.25,
      "velocity": 0.71,
      "hand": "right"
    },
    {
      "midi": 94,
      "time": 171.5,
      "duration": 0.25,
      "velocity": 0.61,
      "hand": "right"
    },
    {
      "midi": 98,
      "time": 171.75,
      "duration": 0.25,
      "velocity": 0.71,
      "hand": "right"
    },
    {
      "midi": 103,
      "time": 171.75,
      "duration": 0.25,
      "velocity": 0.71,
      "hand": "right"
    },
    {
      "midi": 91,
      "time": 172,
      "duration": 0.25,
      "velocity": 0.61,
      "hand": "right"
    },
    {
      "midi": 94,
      "time": 172.25,
      "duration": 0.25,
      "velocity": 0.71,
      "hand": "right"
    },
    {
      "midi": 98,
      "time": 172.25,
      "duration": 0.25,
      "velocity": 0.71,
      "hand": "right"
    },
    {
      "midi": 94,
      "time": 172.5,
      "duration": 0.25,
      "velocity": 0.61,
      "hand": "right"
    },
    {
      "midi": 98,
      "time": 172.75,
      "duration": 0.25,
      "velocity": 0.71,
      "hand": "right"
    },
    {
      "midi": 103,
      "time": 172.75,
      "duration": 0.25,
      "velocity": 0.71,
      "hand": "right"
    },
    {
      "midi": 91,
      "time": 173,
      "duration": 0.25,
      "velocity": 0.61,
      "hand": "right"
    },
    {
      "midi": 94,
      "time": 173.25,
      "duration": 0.25,
      "velocity": 0.71,
      "hand": "right"
    },
    {
      "midi": 98,
      "time": 173.25,
      "duration": 0.25,
      "velocity": 0.71,
      "hand": "right"
    },
    {
      "midi": 94,
      "time": 173.5,
      "duration": 0.25,
      "velocity": 0.61,
      "hand": "right"
    },
    {
      "midi": 98,
      "time": 173.75,
      "duration": 0.25,
      "velocity": 0.71,
      "hand": "right"
    },
    {
      "midi": 103,
      "time": 173.75,
      "duration": 0.25,
      "velocity": 0.71,
      "hand": "right"
    },
    {
      "midi": 91,
      "time": 174,
      "duration": 0.5,
      "velocity": 0.61,
      "hand": "right"
    },
    {
      "midi": 94,
      "time": 174.25,
      "duration": 0.25,
      "velocity": 0.61,
      "hand": "right"
    },
    {
      "midi": 98,
      "time": 174.25,
      "duration": 0.25,
      "velocity": 0.61,
      "hand": "right"
    },
    {
      "midi": 87,
      "time": 174.5,
      "duration": 0.25,
      "velocity": 0.61,
      "hand": "right"
    },
    {
      "midi": 96,
      "time": 174.5,
      "duration": 0.25,
      "velocity": 0.61,
      "hand": "right"
    },
    {
      "midi": 103,
      "time": 174.5,
      "duration": 0.25,
      "velocity": 0.61,
      "hand": "right"
    },
    {
      "midi": 91,
      "time": 174.75,
      "duration": 0.25,
      "velocity": 0.61,
      "hand": "right"
    },
    {
      "midi": 94,
      "time": 174.75,
      "duration": 0.25,
      "velocity": 0.61,
      "hand": "right"
    },
    {
      "midi": 98,
      "time": 174.75,
      "duration": 0.25,
      "velocity": 0.61,
      "hand": "right"
    },
    {
      "midi": 87,
      "time": 175,
      "duration": 0.25,
      "velocity": 0.61,
      "hand": "right"
    },
    {
      "midi": 96,
      "time": 175,
      "duration": 0.25,
      "velocity": 0.61,
      "hand": "right"
    },
    {
      "midi": 103,
      "time": 175,
      "duration": 0.25,
      "velocity": 0.61,
      "hand": "right"
    },
    {
      "midi": 91,
      "time": 175.25,
      "duration": 0.25,
      "velocity": 0.61,
      "hand": "right"
    },
    {
      "midi": 94,
      "time": 175.25,
      "duration": 0.25,
      "velocity": 0.61,
      "hand": "right"
    },
    {
      "midi": 98,
      "time": 175.25,
      "duration": 0.25,
      "velocity": 0.61,
      "hand": "right"
    },
    {
      "midi": 87,
      "time": 175.5,
      "duration": 0.25,
      "velocity": 0.61,
      "hand": "right"
    },
    {
      "midi": 96,
      "time": 175.5,
      "duration": 0.25,
      "velocity": 0.61,
      "hand": "right"
    },
    {
      "midi": 103,
      "time": 175.5,
      "duration": 0.25,
      "velocity": 0.61,
      "hand": "right"
    },
    {
      "midi": 91,
      "time": 175.75,
      "duration": 0.25,
      "velocity": 0.61,
      "hand": "right"
    },
    {
      "midi": 94,
      "time": 175.75,
      "duration": 0.25,
      "velocity": 0.61,
      "hand": "right"
    },
    {
      "midi": 98,
      "time": 175.75,
      "duration": 0.25,
      "velocity": 0.61,
      "hand": "right"
    },
    {
      "midi": 87,
      "time": 176,
      "duration": 0.25,
      "velocity": 0.61,
      "hand": "right"
    },
    {
      "midi": 96,
      "time": 176,
      "duration": 0.25,
      "velocity": 0.61,
      "hand": "right"
    },
    {
      "midi": 103,
      "time": 176,
      "duration": 0.25,
      "velocity": 0.61,
      "hand": "right"
    },
    {
      "midi": 91,
      "time": 176.25,
      "duration": 0.25,
      "velocity": 0.61,
      "hand": "right"
    },
    {
      "midi": 94,
      "time": 176.25,
      "duration": 0.25,
      "velocity": 0.61,
      "hand": "right"
    },
    {
      "midi": 98,
      "time": 176.25,
      "duration": 0.25,
      "velocity": 0.61,
      "hand": "right"
    },
    {
      "midi": 87,
      "time": 176.5,
      "duration": 0.25,
      "velocity": 0.61,
      "hand": "right"
    },
    {
      "midi": 96,
      "time": 176.5,
      "duration": 0.25,
      "velocity": 0.61,
      "hand": "right"
    },
    {
      "midi": 103,
      "time": 176.5,
      "duration": 0.25,
      "velocity": 0.61,
      "hand": "right"
    },
    {
      "midi": 91,
      "time": 176.75,
      "duration": 0.25,
      "velocity": 0.61,
      "hand": "right"
    },
    {
      "midi": 94,
      "time": 176.75,
      "duration": 0.25,
      "velocity": 0.61,
      "hand": "right"
    },
    {
      "midi": 98,
      "time": 176.75,
      "duration": 0.25,
      "velocity": 0.61,
      "hand": "right"
    },
    {
      "midi": 87,
      "time": 177,
      "duration": 0.25,
      "velocity": 0.61,
      "hand": "right"
    },
    {
      "midi": 96,
      "time": 177,
      "duration": 0.25,
      "velocity": 0.61,
      "hand": "right"
    },
    {
      "midi": 103,
      "time": 177,
      "duration": 0.25,
      "velocity": 0.61,
      "hand": "right"
    },
    {
      "midi": 91,
      "time": 177.25,
      "duration": 0.25,
      "velocity": 0.61,
      "hand": "right"
    },
    {
      "midi": 94,
      "time": 177.25,
      "duration": 0.25,
      "velocity": 0.61,
      "hand": "right"
    },
    {
      "midi": 98,
      "time": 177.25,
      "duration": 0.25,
      "velocity": 0.61,
      "hand": "right"
    },
    {
      "midi": 87,
      "time": 177.5,
      "duration": 0.25,
      "velocity": 0.61,
      "hand": "right"
    },
    {
      "midi": 96,
      "time": 177.5,
      "duration": 0.25,
      "velocity": 0.61,
      "hand": "right"
    },
    {
      "midi": 103,
      "time": 177.5,
      "duration": 0.25,
      "velocity": 0.61,
      "hand": "right"
    },
    {
      "midi": 91,
      "time": 177.75,
      "duration": 0.25,
      "velocity": 0.61,
      "hand": "right"
    },
    {
      "midi": 94,
      "time": 177.75,
      "duration": 0.25,
      "velocity": 0.61,
      "hand": "right"
    },
    {
      "midi": 98,
      "time": 177.75,
      "duration": 0.25,
      "velocity": 0.61,
      "hand": "right"
    },
    {
      "midi": 87,
      "time": 178,
      "duration": 0.25,
      "velocity": 0.61,
      "hand": "right"
    },
    {
      "midi": 96,
      "time": 178,
      "duration": 0.25,
      "velocity": 0.61,
      "hand": "right"
    },
    {
      "midi": 103,
      "time": 178,
      "duration": 0.25,
      "velocity": 0.61,
      "hand": "right"
    },
    {
      "midi": 87,
      "time": 178.25,
      "duration": 0.25,
      "velocity": 0.61,
      "hand": "right"
    },
    {
      "midi": 91,
      "time": 178.25,
      "duration": 0.25,
      "velocity": 0.61,
      "hand": "right"
    },
    {
      "midi": 94,
      "time": 178.25,
      "duration": 0.25,
      "velocity": 0.61,
      "hand": "right"
    },
    {
      "midi": 96,
      "time": 178.25,
      "duration": 0.25,
      "velocity": 0.61,
      "hand": "right"
    },
    {
      "midi": 98,
      "time": 178.25,
      "duration": 0.25,
      "velocity": 0.61,
      "hand": "right"
    },
    {
      "midi": 103,
      "time": 178.25,
      "duration": 0.25,
      "velocity": 0.61,
      "hand": "right"
    },
    {
      "midi": 91,
      "time": 178.5,
      "duration": 0.25,
      "velocity": 0.61,
      "hand": "right"
    },
    {
      "midi": 94,
      "time": 178.5,
      "duration": 0.25,
      "velocity": 0.61,
      "hand": "right"
    },
    {
      "midi": 98,
      "time": 178.5,
      "duration": 0.25,
      "velocity": 0.61,
      "hand": "right"
    },
    {
      "midi": 87,
      "time": 178.75,
      "duration": 0.25,
      "velocity": 0.61,
      "hand": "right"
    },
    {
      "midi": 91,
      "time": 178.75,
      "duration": 0.25,
      "velocity": 0.61,
      "hand": "right"
    },
    {
      "midi": 94,
      "time": 178.75,
      "duration": 0.25,
      "velocity": 0.61,
      "hand": "right"
    },
    {
      "midi": 96,
      "time": 178.75,
      "duration": 0.25,
      "velocity": 0.61,
      "hand": "right"
    },
    {
      "midi": 98,
      "time": 178.75,
      "duration": 0.25,
      "velocity": 0.61,
      "hand": "right"
    },
    {
      "midi": 103,
      "time": 178.75,
      "duration": 0.25,
      "velocity": 0.61,
      "hand": "right"
    },
    {
      "midi": 87,
      "time": 179,
      "duration": 0.25,
      "velocity": 0.61,
      "hand": "right"
    },
    {
      "midi": 96,
      "time": 179,
      "duration": 0.25,
      "velocity": 0.61,
      "hand": "right"
    },
    {
      "midi": 103,
      "time": 179,
      "duration": 0.25,
      "velocity": 0.61,
      "hand": "right"
    },
    {
      "midi": 87,
      "time": 179.25,
      "duration": 0.25,
      "velocity": 0.61,
      "hand": "right"
    },
    {
      "midi": 91,
      "time": 179.25,
      "duration": 0.25,
      "velocity": 0.61,
      "hand": "right"
    },
    {
      "midi": 94,
      "time": 179.25,
      "duration": 0.25,
      "velocity": 0.61,
      "hand": "right"
    },
    {
      "midi": 96,
      "time": 179.25,
      "duration": 0.25,
      "velocity": 0.61,
      "hand": "right"
    },
    {
      "midi": 98,
      "time": 179.25,
      "duration": 0.25,
      "velocity": 0.61,
      "hand": "right"
    },
    {
      "midi": 103,
      "time": 179.25,
      "duration": 0.25,
      "velocity": 0.61,
      "hand": "right"
    },
    {
      "midi": 91,
      "time": 179.5,
      "duration": 0.25,
      "velocity": 0.61,
      "hand": "right"
    },
    {
      "midi": 94,
      "time": 179.5,
      "duration": 0.25,
      "velocity": 0.61,
      "hand": "right"
    },
    {
      "midi": 98,
      "time": 179.5,
      "duration": 0.25,
      "velocity": 0.61,
      "hand": "right"
    },
    {
      "midi": 87,
      "time": 179.75,
      "duration": 0.25,
      "velocity": 0.61,
      "hand": "right"
    },
    {
      "midi": 91,
      "time": 179.75,
      "duration": 0.25,
      "velocity": 0.61,
      "hand": "right"
    },
    {
      "midi": 94,
      "time": 179.75,
      "duration": 0.25,
      "velocity": 0.61,
      "hand": "right"
    },
    {
      "midi": 96,
      "time": 179.75,
      "duration": 0.25,
      "velocity": 0.61,
      "hand": "right"
    },
    {
      "midi": 98,
      "time": 179.75,
      "duration": 0.25,
      "velocity": 0.61,
      "hand": "right"
    },
    {
      "midi": 103,
      "time": 179.75,
      "duration": 0.25,
      "velocity": 0.61,
      "hand": "right"
    },
    {
      "midi": 87,
      "time": 180,
      "duration": 0.25,
      "velocity": 0.61,
      "hand": "right"
    },
    {
      "midi": 96,
      "time": 180,
      "duration": 0.25,
      "velocity": 0.61,
      "hand": "right"
    },
    {
      "midi": 103,
      "time": 180,
      "duration": 0.25,
      "velocity": 0.61,
      "hand": "right"
    },
    {
      "midi": 91,
      "time": 180.25,
      "duration": 0.25,
      "velocity": 0.61,
      "hand": "right"
    },
    {
      "midi": 94,
      "time": 180.25,
      "duration": 0.25,
      "velocity": 0.61,
      "hand": "right"
    },
    {
      "midi": 98,
      "time": 180.25,
      "duration": 0.25,
      "velocity": 0.61,
      "hand": "right"
    },
    {
      "midi": 87,
      "time": 180.5,
      "duration": 0.25,
      "velocity": 0.61,
      "hand": "right"
    },
    {
      "midi": 91,
      "time": 180.5,
      "duration": 1,
      "velocity": 0.61,
      "hand": "right"
    },
    {
      "midi": 94,
      "time": 180.5,
      "duration": 1,
      "velocity": 0.61,
      "hand": "right"
    },
    {
      "midi": 96,
      "time": 180.5,
      "duration": 0.25,
      "velocity": 0.61,
      "hand": "right"
    },
    {
      "midi": 98,
      "time": 180.5,
      "duration": 1,
      "velocity": 0.61,
      "hand": "right"
    },
    {
      "midi": 103,
      "time": 180.5,
      "duration": 0.25,
      "velocity": 0.61,
      "hand": "right"
    },
    {
      "midi": 51,
      "time": 182,
      "duration": 1.5,
      "velocity": 0.68,
      "hand": "left"
    },
    {
      "midi": 58,
      "time": 182,
      "duration": 1.5,
      "velocity": 0.68,
      "hand": "left"
    },
    {
      "midi": 63,
      "time": 182,
      "duration": 1.5,
      "velocity": 0.68,
      "hand": "right"
    },
    {
      "midi": 67,
      "time": 182,
      "duration": 1.5,
      "velocity": 0.71,
      "hand": "right"
    },
    {
      "midi": 70,
      "time": 182,
      "duration": 1.5,
      "velocity": 0.71,
      "hand": "right"
    },
    {
      "midi": 75,
      "time": 182,
      "duration": 1.5,
      "velocity": 0.71,
      "hand": "right"
    },
    {
      "midi": 79,
      "time": 182,
      "duration": 1.5,
      "velocity": 0.71,
      "hand": "right"
    },
    {
      "midi": 77,
      "time": 183.5,
      "duration": 0.125,
      "velocity": 0.71,
      "hand": "right"
    },
    {
      "midi": 77,
      "time": 183.5,
      "duration": 0.25,
      "velocity": 0.71,
      "hand": "right"
    },
    {
      "midi": 79,
      "time": 183.5,
      "duration": 0.125,
      "velocity": 0.71,
      "hand": "right"
    },
    {
      "midi": 75,
      "time": 183.75,
      "duration": 0.25,
      "velocity": 0.71,
      "hand": "right"
    },
    {
      "midi": 74,
      "time": 184,
      "duration": 0.25,
      "velocity": 0.71,
      "hand": "right"
    },
    {
      "midi": 75,
      "time": 184.25,
      "duration": 0.25,
      "velocity": 0.71,
      "hand": "right"
    },
    {
      "midi": 72,
      "time": 184.5,
      "duration": 0.25,
      "velocity": 0.71,
      "hand": "right"
    },
    {
      "midi": 74,
      "time": 184.75,
      "duration": 0.25,
      "velocity": 0.71,
      "hand": "right"
    },
    {
      "midi": 70,
      "time": 185,
      "duration": 0.5,
      "velocity": 0.71,
      "hand": "right"
    },
    {
      "midi": 56,
      "time": 185.5,
      "duration": 0.5,
      "velocity": 0.68,
      "hand": "left"
    },
    {
      "midi": 63,
      "time": 185.5,
      "duration": 0.5,
      "velocity": 0.68,
      "hand": "right"
    },
    {
      "midi": 65,
      "time": 185.5,
      "duration": 0.5,
      "velocity": 0.71,
      "hand": "right"
    },
    {
      "midi": 72,
      "time": 185.5,
      "duration": 0.5,
      "velocity": 0.71,
      "hand": "right"
    },
    {
      "midi": 51,
      "time": 186,
      "duration": 1.5,
      "velocity": 0.68,
      "hand": "left"
    },
    {
      "midi": 58,
      "time": 186,
      "duration": 1.5,
      "velocity": 0.68,
      "hand": "left"
    },
    {
      "midi": 63,
      "time": 186,
      "duration": 1.5,
      "velocity": 0.68,
      "hand": "right"
    },
    {
      "midi": 67,
      "time": 186,
      "duration": 1.5,
      "velocity": 0.71,
      "hand": "right"
    },
    {
      "midi": 70,
      "time": 186,
      "duration": 1.5,
      "velocity": 0.71,
      "hand": "right"
    },
    {
      "midi": 75,
      "time": 186,
      "duration": 1.5,
      "velocity": 0.71,
      "hand": "right"
    },
    {
      "midi": 79,
      "time": 186,
      "duration": 1.5,
      "velocity": 0.71,
      "hand": "right"
    },
    {
      "midi": 77,
      "time": 187.5,
      "duration": 0.125,
      "velocity": 0.71,
      "hand": "right"
    },
    {
      "midi": 77,
      "time": 187.5,
      "duration": 0.25,
      "velocity": 0.71,
      "hand": "right"
    },
    {
      "midi": 79,
      "time": 187.5,
      "duration": 0.125,
      "velocity": 0.71,
      "hand": "right"
    },
    {
      "midi": 75,
      "time": 187.75,
      "duration": 0.25,
      "velocity": 0.71,
      "hand": "right"
    },
    {
      "midi": 74,
      "time": 188,
      "duration": 0.25,
      "velocity": 0.71,
      "hand": "right"
    },
    {
      "midi": 75,
      "time": 188.25,
      "duration": 0.25,
      "velocity": 0.71,
      "hand": "right"
    },
    {
      "midi": 72,
      "time": 188.5,
      "duration": 0.25,
      "velocity": 0.71,
      "hand": "right"
    },
    {
      "midi": 74,
      "time": 188.75,
      "duration": 0.25,
      "velocity": 0.71,
      "hand": "right"
    },
    {
      "midi": 70,
      "time": 189,
      "duration": 0.5,
      "velocity": 0.71,
      "hand": "right"
    },
    {
      "midi": 56,
      "time": 189.5,
      "duration": 0.5,
      "velocity": 0.68,
      "hand": "left"
    },
    {
      "midi": 63,
      "time": 189.5,
      "duration": 0.5,
      "velocity": 0.68,
      "hand": "right"
    },
    {
      "midi": 65,
      "time": 189.5,
      "duration": 0.5,
      "velocity": 0.71,
      "hand": "right"
    },
    {
      "midi": 72,
      "time": 189.5,
      "duration": 0.5,
      "velocity": 0.71,
      "hand": "right"
    },
    {
      "midi": 51,
      "time": 190,
      "duration": 0.5,
      "velocity": 0.68,
      "hand": "left"
    },
    {
      "midi": 58,
      "time": 190,
      "duration": 0.5,
      "velocity": 0.68,
      "hand": "left"
    },
    {
      "midi": 63,
      "time": 190,
      "duration": 0.5,
      "velocity": 0.68,
      "hand": "right"
    },
    {
      "midi": 67,
      "time": 190,
      "duration": 0.5,
      "velocity": 0.68,
      "hand": "right"
    },
    {
      "midi": 70,
      "time": 190,
      "duration": 0.5,
      "velocity": 0.68,
      "hand": "right"
    },
    {
      "midi": 79,
      "time": 190,
      "duration": 0.5,
      "velocity": 0.68,
      "hand": "right"
    },
    {
      "midi": 51,
      "time": 190.5,
      "duration": 0.5,
      "velocity": 0.68,
      "hand": "left"
    },
    {
      "midi": 58,
      "time": 190.5,
      "duration": 0.5,
      "velocity": 0.68,
      "hand": "left"
    },
    {
      "midi": 63,
      "time": 190.5,
      "duration": 0.5,
      "velocity": 0.68,
      "hand": "right"
    },
    {
      "midi": 67,
      "time": 190.5,
      "duration": 0.5,
      "velocity": 0.68,
      "hand": "right"
    },
    {
      "midi": 70,
      "time": 190.5,
      "duration": 0.5,
      "velocity": 0.68,
      "hand": "right"
    },
    {
      "midi": 79,
      "time": 190.5,
      "duration": 0.5,
      "velocity": 0.68,
      "hand": "right"
    },
    {
      "midi": 53,
      "time": 191,
      "duration": 0.5,
      "velocity": 0.68,
      "hand": "left"
    },
    {
      "midi": 58,
      "time": 191,
      "duration": 0.5,
      "velocity": 0.68,
      "hand": "left"
    },
    {
      "midi": 65,
      "time": 191,
      "duration": 0.5,
      "velocity": 0.68,
      "hand": "right"
    },
    {
      "midi": 68,
      "time": 191,
      "duration": 0.5,
      "velocity": 0.68,
      "hand": "right"
    },
    {
      "midi": 70,
      "time": 191,
      "duration": 0.5,
      "velocity": 0.68,
      "hand": "right"
    },
    {
      "midi": 80,
      "time": 191,
      "duration": 0.5,
      "velocity": 0.68,
      "hand": "right"
    },
    {
      "midi": 51,
      "time": 191.5,
      "duration": 0.5,
      "velocity": 0.68,
      "hand": "left"
    },
    {
      "midi": 58,
      "time": 191.5,
      "duration": 0.5,
      "velocity": 0.68,
      "hand": "left"
    },
    {
      "midi": 63,
      "time": 191.5,
      "duration": 0.5,
      "velocity": 0.68,
      "hand": "right"
    },
    {
      "midi": 67,
      "time": 191.5,
      "duration": 0.5,
      "velocity": 0.68,
      "hand": "right"
    },
    {
      "midi": 70,
      "time": 191.5,
      "duration": 0.5,
      "velocity": 0.68,
      "hand": "right"
    },
    {
      "midi": 79,
      "time": 191.5,
      "duration": 0.5,
      "velocity": 0.68,
      "hand": "right"
    },
    {
      "midi": 50,
      "time": 192,
      "duration": 0.5,
      "velocity": 0.68,
      "hand": "left"
    },
    {
      "midi": 58,
      "time": 192,
      "duration": 0.5,
      "velocity": 0.68,
      "hand": "left"
    },
    {
      "midi": 62,
      "time": 192,
      "duration": 0.5,
      "velocity": 0.68,
      "hand": "right"
    },
    {
      "midi": 65,
      "time": 192,
      "duration": 0.5,
      "velocity": 0.68,
      "hand": "right"
    },
    {
      "midi": 70,
      "time": 192,
      "duration": 0.5,
      "velocity": 0.68,
      "hand": "right"
    },
    {
      "midi": 77,
      "time": 192,
      "duration": 0.5,
      "velocity": 0.68,
      "hand": "right"
    },
    {
      "midi": 51,
      "time": 192.5,
      "duration": 0.5,
      "velocity": 0.68,
      "hand": "left"
    },
    {
      "midi": 58,
      "time": 192.5,
      "duration": 0.5,
      "velocity": 0.68,
      "hand": "left"
    },
    {
      "midi": 63,
      "time": 192.5,
      "duration": 0.5,
      "velocity": 0.68,
      "hand": "right"
    },
    {
      "midi": 67,
      "time": 192.5,
      "duration": 0.5,
      "velocity": 0.68,
      "hand": "right"
    },
    {
      "midi": 70,
      "time": 192.5,
      "duration": 0.5,
      "velocity": 0.68,
      "hand": "right"
    },
    {
      "midi": 79,
      "time": 192.5,
      "duration": 0.5,
      "velocity": 0.68,
      "hand": "right"
    },
    {
      "midi": 48,
      "time": 193,
      "duration": 0.5,
      "velocity": 0.68,
      "hand": "left"
    },
    {
      "midi": 58,
      "time": 193,
      "duration": 0.5,
      "velocity": 0.68,
      "hand": "left"
    },
    {
      "midi": 60,
      "time": 193,
      "duration": 0.5,
      "velocity": 0.68,
      "hand": "right"
    },
    {
      "midi": 63,
      "time": 193,
      "duration": 0.5,
      "velocity": 0.68,
      "hand": "right"
    },
    {
      "midi": 70,
      "time": 193,
      "duration": 0.5,
      "velocity": 0.68,
      "hand": "right"
    },
    {
      "midi": 75,
      "time": 193,
      "duration": 0.5,
      "velocity": 0.68,
      "hand": "right"
    },
    {
      "midi": 50,
      "time": 193.5,
      "duration": 0.5,
      "velocity": 0.68,
      "hand": "left"
    },
    {
      "midi": 58,
      "time": 193.5,
      "duration": 0.5,
      "velocity": 0.68,
      "hand": "left"
    },
    {
      "midi": 62,
      "time": 193.5,
      "duration": 0.5,
      "velocity": 0.68,
      "hand": "right"
    },
    {
      "midi": 65,
      "time": 193.5,
      "duration": 0.5,
      "velocity": 0.68,
      "hand": "right"
    },
    {
      "midi": 70,
      "time": 193.5,
      "duration": 0.5,
      "velocity": 0.68,
      "hand": "right"
    },
    {
      "midi": 77,
      "time": 193.5,
      "duration": 0.5,
      "velocity": 0.68,
      "hand": "right"
    },
    {
      "midi": 51,
      "time": 194,
      "duration": 0.5,
      "velocity": 0.68,
      "hand": "left"
    },
    {
      "midi": 58,
      "time": 194,
      "duration": 0.5,
      "velocity": 0.68,
      "hand": "left"
    },
    {
      "midi": 63,
      "time": 194,
      "duration": 0.5,
      "velocity": 0.68,
      "hand": "right"
    },
    {
      "midi": 67,
      "time": 194,
      "duration": 0.5,
      "velocity": 0.75,
      "hand": "right"
    },
    {
      "midi": 70,
      "time": 194,
      "duration": 0.5,
      "velocity": 0.75,
      "hand": "right"
    },
    {
      "midi": 79,
      "time": 194,
      "duration": 0.5,
      "velocity": 0.75,
      "hand": "right"
    },
    {
      "midi": 55,
      "time": 194.5,
      "duration": 1,
      "velocity": 0.68,
      "hand": "left"
    },
    {
      "midi": 63,
      "time": 194.5,
      "duration": 1,
      "velocity": 0.68,
      "hand": "right"
    },
    {
      "midi": 67,
      "time": 194.5,
      "duration": 1,
      "velocity": 0.68,
      "hand": "right"
    },
    {
      "midi": 70,
      "time": 194.5,
      "duration": 1,
      "velocity": 0.75,
      "hand": "right"
    },
    {
      "midi": 75,
      "time": 194.5,
      "duration": 1,
      "velocity": 0.75,
      "hand": "right"
    },
    {
      "midi": 82,
      "time": 194.5,
      "duration": 1,
      "velocity": 0.75,
      "hand": "right"
    },
    {
      "midi": 56,
      "time": 195.5,
      "duration": 1,
      "velocity": 0.68,
      "hand": "left"
    },
    {
      "midi": 63,
      "time": 195.5,
      "duration": 1,
      "velocity": 0.68,
      "hand": "right"
    },
    {
      "midi": 68,
      "time": 195.5,
      "duration": 1,
      "velocity": 0.68,
      "hand": "right"
    },
    {
      "midi": 72,
      "time": 195.5,
      "duration": 1,
      "velocity": 0.75,
      "hand": "right"
    },
    {
      "midi": 75,
      "time": 195.5,
      "duration": 1,
      "velocity": 0.75,
      "hand": "right"
    },
    {
      "midi": 84,
      "time": 195.5,
      "duration": 1,
      "velocity": 0.75,
      "hand": "right"
    },
    {
      "midi": 55,
      "time": 196.5,
      "duration": 0.5,
      "velocity": 0.68,
      "hand": "left"
    },
    {
      "midi": 63,
      "time": 196.5,
      "duration": 0.5,
      "velocity": 0.68,
      "hand": "right"
    },
    {
      "midi": 67,
      "time": 196.5,
      "duration": 0.5,
      "velocity": 0.68,
      "hand": "right"
    },
    {
      "midi": 70,
      "time": 196.5,
      "duration": 0.5,
      "velocity": 0.75,
      "hand": "right"
    },
    {
      "midi": 75,
      "time": 196.5,
      "duration": 0.5,
      "velocity": 0.75,
      "hand": "right"
    },
    {
      "midi": 82,
      "time": 196.5,
      "duration": 0.5,
      "velocity": 0.75,
      "hand": "right"
    },
    {
      "midi": 50,
      "time": 197,
      "duration": 0.5,
      "velocity": 0.68,
      "hand": "left"
    },
    {
      "midi": 58,
      "time": 197,
      "duration": 0.5,
      "velocity": 0.68,
      "hand": "left"
    },
    {
      "midi": 62,
      "time": 197,
      "duration": 0.5,
      "velocity": 0.68,
      "hand": "right"
    },
    {
      "midi": 65,
      "time": 197,
      "duration": 0.5,
      "velocity": 0.75,
      "hand": "right"
    },
    {
      "midi": 70,
      "time": 197,
      "duration": 0.5,
      "velocity": 0.75,
      "hand": "right"
    },
    {
      "midi": 77,
      "time": 197,
      "duration": 0.5,
      "velocity": 0.75,
      "hand": "right"
    },
    {
      "midi": 69,
      "time": 197.5,
      "duration": 0.25,
      "velocity": 0.75,
      "hand": "right"
    },
    {
      "midi": 70,
      "time": 197.75,
      "duration": 0.25,
      "velocity": 0.75,
      "hand": "right"
    },
    {
      "midi": 74,
      "time": 197.75,
      "duration": 0.25,
      "velocity": 0.75,
      "hand": "right"
    },
    {
      "midi": 39,
      "time": 198,
      "duration": 0.5,
      "velocity": 0.71,
      "hand": "left"
    },
    {
      "midi": 46,
      "time": 198,
      "duration": 0.5,
      "velocity": 0.71,
      "hand": "left"
    },
    {
      "midi": 63,
      "time": 198,
      "duration": 0.5,
      "velocity": 0.71,
      "hand": "right"
    },
    {
      "midi": 67,
      "time": 198,
      "duration": 0.5,
      "velocity": 0.71,
      "hand": "right"
    },
    {
      "midi": 70,
      "time": 198,
      "duration": 0.5,
      "velocity": 0.71,
      "hand": "right"
    },
    {
      "midi": 75,
      "time": 198,
      "duration": 0.5,
      "velocity": 0.71,
      "hand": "right"
    },
    {
      "midi": 77,
      "time": 198,
      "duration": 0.25,
      "velocity": 0.75,
      "hand": "right"
    },
    {
      "midi": 79,
      "time": 198,
      "duration": 1.5,
      "velocity": 0.75,
      "hand": "right"
    },
    {
      "midi": 45,
      "time": 198.25,
      "duration": 0.25,
      "velocity": 0.61,
      "hand": "left"
    },
    {
      "midi": 46,
      "time": 198.5,
      "duration": 0.25,
      "velocity": 0.61,
      "hand": "left"
    },
    {
      "midi": 51,
      "time": 198.75,
      "duration": 0.25,
      "velocity": 0.61,
      "hand": "left"
    },
    {
      "midi": 55,
      "time": 199,
      "duration": 0.25,
      "velocity": 0.75,
      "hand": "left"
    },
    {
      "midi": 58,
      "time": 199.25,
      "duration": 0.25,
      "velocity": 0.75,
      "hand": "left"
    },
    {
      "midi": 63,
      "time": 199.5,
      "duration": 0.25,
      "velocity": 0.75,
      "hand": "right"
    },
    {
      "midi": 77,
      "time": 199.5,
      "duration": 0.125,
      "velocity": 0.52,
      "hand": "right"
    },
    {
      "midi": 77,
      "time": 199.5,
      "duration": 0.25,
      "velocity": 0.61,
      "hand": "right"
    },
    {
      "midi": 79,
      "time": 199.5,
      "duration": 0.125,
      "velocity": 0.52,
      "hand": "right"
    },
    {
      "midi": 67,
      "time": 199.75,
      "duration": 0.25,
      "velocity": 0.75,
      "hand": "right"
    },
    {
      "midi": 75,
      "time": 199.75,
      "duration": 0.25,
      "velocity": 0.61,
      "hand": "right"
    },
    {
      "midi": 70,
      "time": 200,
      "duration": 0.5,
      "velocity": 0.75,
      "hand": "right"
    },
    {
      "midi": 74,
      "time": 200,
      "duration": 0.25,
      "velocity": 0.61,
      "hand": "right"
    },
    {
      "midi": 75,
      "time": 200.25,
      "duration": 0.25,
      "velocity": 0.61,
      "hand": "right"
    },
    {
      "midi": 63,
      "time": 200.5,
      "duration": 0.5,
      "velocity": 0.75,
      "hand": "right"
    },
    {
      "midi": 66,
      "time": 200.5,
      "duration": 0.5,
      "velocity": 0.71,
      "hand": "right"
    },
    {
      "midi": 69,
      "time": 200.5,
      "duration": 0.5,
      "velocity": 0.71,
      "hand": "right"
    },
    {
      "midi": 72,
      "time": 200.5,
      "duration": 0.25,
      "velocity": 0.61,
      "hand": "right"
    },
    {
      "midi": 74,
      "time": 200.75,
      "duration": 0.25,
      "velocity": 0.61,
      "hand": "right"
    },
    {
      "midi": 67,
      "time": 201,
      "duration": 0.5,
      "velocity": 0.71,
      "hand": "right"
    },
    {
      "midi": 70,
      "time": 201,
      "duration": 0.5,
      "velocity": 0.61,
      "hand": "right"
    },
    {
      "midi": 44,
      "time": 201.5,
      "duration": 0.5,
      "velocity": 0.75,
      "hand": "left"
    },
    {
      "midi": 51,
      "time": 201.5,
      "duration": 0.5,
      "velocity": 0.75,
      "hand": "left"
    },
    {
      "midi": 56,
      "time": 201.5,
      "duration": 0.5,
      "velocity": 0.75,
      "hand": "left"
    },
    {
      "midi": 60,
      "time": 201.5,
      "duration": 0.5,
      "velocity": 0.75,
      "hand": "right"
    },
    {
      "midi": 65,
      "time": 201.5,
      "duration": 0.5,
      "velocity": 0.75,
      "hand": "right"
    },
    {
      "midi": 72,
      "time": 201.5,
      "duration": 0.5,
      "velocity": 0.61,
      "hand": "right"
    },
    {
      "midi": 39,
      "time": 202,
      "duration": 0.5,
      "velocity": 0.71,
      "hand": "left"
    },
    {
      "midi": 46,
      "time": 202,
      "duration": 0.5,
      "velocity": 0.71,
      "hand": "left"
    },
    {
      "midi": 63,
      "time": 202,
      "duration": 0.5,
      "velocity": 0.71,
      "hand": "right"
    },
    {
      "midi": 67,
      "time": 202,
      "duration": 0.5,
      "velocity": 0.75,
      "hand": "right"
    },
    {
      "midi": 70,
      "time": 202,
      "duration": 0.5,
      "velocity": 0.75,
      "hand": "right"
    },
    {
      "midi": 75,
      "time": 202,
      "duration": 0.5,
      "velocity": 0.75,
      "hand": "right"
    },
    {
      "midi": 79,
      "time": 202,
      "duration": 1.5,
      "velocity": 0.75,
      "hand": "right"
    },
    {
      "midi": 45,
      "time": 202.25,
      "duration": 0.25,
      "velocity": 0.61,
      "hand": "left"
    },
    {
      "midi": 46,
      "time": 202.5,
      "duration": 0.25,
      "velocity": 0.61,
      "hand": "left"
    },
    {
      "midi": 51,
      "time": 202.75,
      "duration": 0.25,
      "velocity": 0.61,
      "hand": "left"
    },
    {
      "midi": 55,
      "time": 203,
      "duration": 0.25,
      "velocity": 0.75,
      "hand": "left"
    },
    {
      "midi": 58,
      "time": 203.25,
      "duration": 0.25,
      "velocity": 0.75,
      "hand": "left"
    },
    {
      "midi": 63,
      "time": 203.5,
      "duration": 0.25,
      "velocity": 0.75,
      "hand": "right"
    },
    {
      "midi": 77,
      "time": 203.5,
      "duration": 0.125,
      "velocity": 0.38,
      "hand": "right"
    },
    {
      "midi": 77,
      "time": 203.5,
      "duration": 0.25,
      "velocity": 0.61,
      "hand": "right"
    },
    {
      "midi": 79,
      "time": 203.5,
      "duration": 0.125,
      "velocity": 0.38,
      "hand": "right"
    },
    {
      "midi": 67,
      "time": 203.75,
      "duration": 0.25,
      "velocity": 0.75,
      "hand": "right"
    },
    {
      "midi": 75,
      "time": 203.75,
      "duration": 0.25,
      "velocity": 0.61,
      "hand": "right"
    },
    {
      "midi": 70,
      "time": 204,
      "duration": 0.5,
      "velocity": 0.75,
      "hand": "right"
    },
    {
      "midi": 74,
      "time": 204,
      "duration": 0.25,
      "velocity": 0.61,
      "hand": "right"
    },
    {
      "midi": 75,
      "time": 204.25,
      "duration": 0.25,
      "velocity": 0.61,
      "hand": "right"
    },
    {
      "midi": 63,
      "time": 204.5,
      "duration": 0.5,
      "velocity": 0.75,
      "hand": "right"
    },
    {
      "midi": 66,
      "time": 204.5,
      "duration": 0.5,
      "velocity": 0.75,
      "hand": "right"
    },
    {
      "midi": 69,
      "time": 204.5,
      "duration": 0.5,
      "velocity": 0.75,
      "hand": "right"
    },
    {
      "midi": 72,
      "time": 204.5,
      "duration": 0.25,
      "velocity": 0.61,
      "hand": "right"
    },
    {
      "midi": 74,
      "time": 204.75,
      "duration": 0.25,
      "velocity": 0.61,
      "hand": "right"
    },
    {
      "midi": 67,
      "time": 205,
      "duration": 0.5,
      "velocity": 0.75,
      "hand": "right"
    },
    {
      "midi": 70,
      "time": 205,
      "duration": 0.5,
      "velocity": 0.61,
      "hand": "right"
    },
    {
      "midi": 44,
      "time": 205.5,
      "duration": 0.5,
      "velocity": 0.75,
      "hand": "left"
    },
    {
      "midi": 51,
      "time": 205.5,
      "duration": 0.5,
      "velocity": 0.75,
      "hand": "left"
    },
    {
      "midi": 56,
      "time": 205.5,
      "duration": 0.5,
      "velocity": 0.75,
      "hand": "left"
    },
    {
      "midi": 60,
      "time": 205.5,
      "duration": 0.5,
      "velocity": 0.75,
      "hand": "right"
    },
    {
      "midi": 65,
      "time": 205.5,
      "duration": 0.5,
      "velocity": 0.75,
      "hand": "right"
    },
    {
      "midi": 72,
      "time": 205.5,
      "duration": 0.5,
      "velocity": 0.61,
      "hand": "right"
    },
    {
      "midi": 39,
      "time": 206,
      "duration": 0.5,
      "velocity": 0.75,
      "hand": "left"
    },
    {
      "midi": 46,
      "time": 206,
      "duration": 0.5,
      "velocity": 0.75,
      "hand": "left"
    },
    {
      "midi": 51,
      "time": 206,
      "duration": 0.5,
      "velocity": 0.75,
      "hand": "left"
    },
    {
      "midi": 67,
      "time": 206,
      "duration": 0.5,
      "velocity": 0.61,
      "hand": "right"
    },
    {
      "midi": 70,
      "time": 206,
      "duration": 0.5,
      "velocity": 0.61,
      "hand": "right"
    },
    {
      "midi": 75,
      "time": 206,
      "duration": 0.5,
      "velocity": 0.61,
      "hand": "right"
    },
    {
      "midi": 79,
      "time": 206,
      "duration": 0.5,
      "velocity": 0.61,
      "hand": "right"
    },
    {
      "midi": 51,
      "time": 206.5,
      "duration": 0.5,
      "velocity": 0.75,
      "hand": "left"
    },
    {
      "midi": 58,
      "time": 206.5,
      "duration": 0.5,
      "velocity": 0.75,
      "hand": "left"
    },
    {
      "midi": 63,
      "time": 206.5,
      "duration": 0.5,
      "velocity": 0.75,
      "hand": "right"
    },
    {
      "midi": 67,
      "time": 206.5,
      "duration": 0.5,
      "velocity": 0.61,
      "hand": "right"
    },
    {
      "midi": 70,
      "time": 206.5,
      "duration": 0.5,
      "velocity": 0.61,
      "hand": "right"
    },
    {
      "midi": 79,
      "time": 206.5,
      "duration": 0.5,
      "velocity": 0.61,
      "hand": "right"
    },
    {
      "midi": 53,
      "time": 207,
      "duration": 0.5,
      "velocity": 0.75,
      "hand": "left"
    },
    {
      "midi": 58,
      "time": 207,
      "duration": 0.5,
      "velocity": 0.75,
      "hand": "left"
    },
    {
      "midi": 65,
      "time": 207,
      "duration": 0.5,
      "velocity": 0.75,
      "hand": "right"
    },
    {
      "midi": 68,
      "time": 207,
      "duration": 0.5,
      "velocity": 0.61,
      "hand": "right"
    },
    {
      "midi": 70,
      "time": 207,
      "duration": 0.5,
      "velocity": 0.61,
      "hand": "right"
    },
    {
      "midi": 80,
      "time": 207,
      "duration": 0.5,
      "velocity": 0.61,
      "hand": "right"
    },
    {
      "midi": 51,
      "time": 207.5,
      "duration": 0.5,
      "velocity": 0.75,
      "hand": "left"
    },
    {
      "midi": 58,
      "time": 207.5,
      "duration": 0.5,
      "velocity": 0.75,
      "hand": "left"
    },
    {
      "midi": 63,
      "time": 207.5,
      "duration": 0.5,
      "velocity": 0.75,
      "hand": "right"
    },
    {
      "midi": 67,
      "time": 207.5,
      "duration": 0.5,
      "velocity": 0.61,
      "hand": "right"
    },
    {
      "midi": 70,
      "time": 207.5,
      "duration": 0.5,
      "velocity": 0.61,
      "hand": "right"
    },
    {
      "midi": 79,
      "time": 207.5,
      "duration": 0.5,
      "velocity": 0.61,
      "hand": "right"
    },
    {
      "midi": 50,
      "time": 208,
      "duration": 0.5,
      "velocity": 0.75,
      "hand": "left"
    },
    {
      "midi": 58,
      "time": 208,
      "duration": 0.5,
      "velocity": 0.75,
      "hand": "left"
    },
    {
      "midi": 62,
      "time": 208,
      "duration": 0.5,
      "velocity": 0.75,
      "hand": "right"
    },
    {
      "midi": 65,
      "time": 208,
      "duration": 0.5,
      "velocity": 0.61,
      "hand": "right"
    },
    {
      "midi": 70,
      "time": 208,
      "duration": 0.5,
      "velocity": 0.61,
      "hand": "right"
    },
    {
      "midi": 77,
      "time": 208,
      "duration": 0.5,
      "velocity": 0.61,
      "hand": "right"
    },
    {
      "midi": 51,
      "time": 208.5,
      "duration": 0.5,
      "velocity": 0.75,
      "hand": "left"
    },
    {
      "midi": 58,
      "time": 208.5,
      "duration": 0.5,
      "velocity": 0.75,
      "hand": "left"
    },
    {
      "midi": 63,
      "time": 208.5,
      "duration": 0.5,
      "velocity": 0.75,
      "hand": "right"
    },
    {
      "midi": 67,
      "time": 208.5,
      "duration": 0.5,
      "velocity": 0.61,
      "hand": "right"
    },
    {
      "midi": 70,
      "time": 208.5,
      "duration": 0.5,
      "velocity": 0.61,
      "hand": "right"
    },
    {
      "midi": 79,
      "time": 208.5,
      "duration": 0.5,
      "velocity": 0.61,
      "hand": "right"
    },
    {
      "midi": 48,
      "time": 209,
      "duration": 0.5,
      "velocity": 0.75,
      "hand": "left"
    },
    {
      "midi": 55,
      "time": 209,
      "duration": 0.5,
      "velocity": 0.75,
      "hand": "left"
    },
    {
      "midi": 60,
      "time": 209,
      "duration": 0.5,
      "velocity": 0.75,
      "hand": "right"
    },
    {
      "midi": 63,
      "time": 209,
      "duration": 0.5,
      "velocity": 0.61,
      "hand": "right"
    },
    {
      "midi": 67,
      "time": 209,
      "duration": 0.5,
      "velocity": 0.61,
      "hand": "right"
    },
    {
      "midi": 75,
      "time": 209,
      "duration": 0.5,
      "velocity": 0.61,
      "hand": "right"
    },
    {
      "midi": 50,
      "time": 209.5,
      "duration": 0.5,
      "velocity": 0.75,
      "hand": "left"
    },
    {
      "midi": 55,
      "time": 209.5,
      "duration": 0.5,
      "velocity": 0.75,
      "hand": "left"
    },
    {
      "midi": 62,
      "time": 209.5,
      "duration": 0.5,
      "velocity": 0.75,
      "hand": "right"
    },
    {
      "midi": 65,
      "time": 209.5,
      "duration": 0.5,
      "velocity": 0.61,
      "hand": "right"
    },
    {
      "midi": 67,
      "time": 209.5,
      "duration": 0.5,
      "velocity": 0.61,
      "hand": "right"
    },
    {
      "midi": 77,
      "time": 209.5,
      "duration": 0.5,
      "velocity": 0.61,
      "hand": "right"
    },
    {
      "midi": 46,
      "time": 210,
      "duration": 0.5,
      "velocity": 0.75,
      "hand": "left"
    },
    {
      "midi": 55,
      "time": 210,
      "duration": 0.5,
      "velocity": 0.75,
      "hand": "left"
    },
    {
      "midi": 58,
      "time": 210,
      "duration": 0.5,
      "velocity": 0.75,
      "hand": "left"
    },
    {
      "midi": 62,
      "time": 210,
      "duration": 0.5,
      "velocity": 0.61,
      "hand": "right"
    },
    {
      "midi": 67,
      "time": 210,
      "duration": 0.5,
      "velocity": 0.61,
      "hand": "right"
    },
    {
      "midi": 74,
      "time": 210,
      "duration": 0.5,
      "velocity": 0.61,
      "hand": "right"
    },
    {
      "midi": 46,
      "time": 210.5,
      "duration": 0.5,
      "velocity": 0.76,
      "hand": "left"
    },
    {
      "midi": 55,
      "time": 210.5,
      "duration": 0.5,
      "velocity": 0.76,
      "hand": "left"
    },
    {
      "midi": 58,
      "time": 210.5,
      "duration": 0.5,
      "velocity": 0.76,
      "hand": "left"
    },
    {
      "midi": 62,
      "time": 210.5,
      "duration": 0.5,
      "velocity": 0.61,
      "hand": "right"
    },
    {
      "midi": 67,
      "time": 210.5,
      "duration": 0.5,
      "velocity": 0.61,
      "hand": "right"
    },
    {
      "midi": 74,
      "time": 210.5,
      "duration": 0.5,
      "velocity": 0.61,
      "hand": "right"
    },
    {
      "midi": 48,
      "time": 211,
      "duration": 0.5,
      "velocity": 0.77,
      "hand": "left"
    },
    {
      "midi": 55,
      "time": 211,
      "duration": 0.5,
      "velocity": 0.77,
      "hand": "left"
    },
    {
      "midi": 60,
      "time": 211,
      "duration": 0.5,
      "velocity": 0.77,
      "hand": "right"
    },
    {
      "midi": 63,
      "time": 211,
      "duration": 0.5,
      "velocity": 0.61,
      "hand": "right"
    },
    {
      "midi": 67,
      "time": 211,
      "duration": 0.5,
      "velocity": 0.61,
      "hand": "right"
    },
    {
      "midi": 75,
      "time": 211,
      "duration": 0.5,
      "velocity": 0.61,
      "hand": "right"
    },
    {
      "midi": 46,
      "time": 211.5,
      "duration": 0.5,
      "velocity": 0.79,
      "hand": "left"
    },
    {
      "midi": 55,
      "time": 211.5,
      "duration": 0.5,
      "velocity": 0.79,
      "hand": "left"
    },
    {
      "midi": 58,
      "time": 211.5,
      "duration": 0.5,
      "velocity": 0.79,
      "hand": "left"
    },
    {
      "midi": 62,
      "time": 211.5,
      "duration": 0.5,
      "velocity": 0.61,
      "hand": "right"
    },
    {
      "midi": 67,
      "time": 211.5,
      "duration": 0.5,
      "velocity": 0.61,
      "hand": "right"
    },
    {
      "midi": 74,
      "time": 211.5,
      "duration": 0.5,
      "velocity": 0.61,
      "hand": "right"
    },
    {
      "midi": 45,
      "time": 212,
      "duration": 0.5,
      "velocity": 0.8,
      "hand": "left"
    },
    {
      "midi": 55,
      "time": 212,
      "duration": 0.5,
      "velocity": 0.8,
      "hand": "left"
    },
    {
      "midi": 57,
      "time": 212,
      "duration": 0.5,
      "velocity": 0.8,
      "hand": "left"
    },
    {
      "midi": 60,
      "time": 212,
      "duration": 0.5,
      "velocity": 0.61,
      "hand": "right"
    },
    {
      "midi": 67,
      "time": 212,
      "duration": 0.5,
      "velocity": 0.61,
      "hand": "right"
    },
    {
      "midi": 72,
      "time": 212,
      "duration": 0.5,
      "velocity": 0.61,
      "hand": "right"
    },
    {
      "midi": 46,
      "time": 212.5,
      "duration": 0.5,
      "velocity": 0.82,
      "hand": "left"
    },
    {
      "midi": 55,
      "time": 212.5,
      "duration": 0.5,
      "velocity": 0.82,
      "hand": "left"
    },
    {
      "midi": 58,
      "time": 212.5,
      "duration": 0.5,
      "velocity": 0.82,
      "hand": "left"
    },
    {
      "midi": 62,
      "time": 212.5,
      "duration": 0.5,
      "velocity": 0.61,
      "hand": "right"
    },
    {
      "midi": 67,
      "time": 212.5,
      "duration": 0.5,
      "velocity": 0.61,
      "hand": "right"
    },
    {
      "midi": 74,
      "time": 212.5,
      "duration": 0.5,
      "velocity": 0.61,
      "hand": "right"
    },
    {
      "midi": 43,
      "time": 213,
      "duration": 0.5,
      "velocity": 0.83,
      "hand": "left"
    },
    {
      "midi": 50,
      "time": 213,
      "duration": 0.5,
      "velocity": 0.83,
      "hand": "left"
    },
    {
      "midi": 55,
      "time": 213,
      "duration": 0.5,
      "velocity": 0.83,
      "hand": "left"
    },
    {
      "midi": 58,
      "time": 213,
      "duration": 0.5,
      "velocity": 0.61,
      "hand": "left"
    },
    {
      "midi": 67,
      "time": 213,
      "duration": 0.5,
      "velocity": 0.61,
      "hand": "right"
    },
    {
      "midi": 70,
      "time": 213,
      "duration": 0.5,
      "velocity": 0.61,
      "hand": "right"
    },
    {
      "midi": 45,
      "time": 213.5,
      "duration": 0.5,
      "velocity": 0.84,
      "hand": "left"
    },
    {
      "midi": 50,
      "time": 213.5,
      "duration": 0.5,
      "velocity": 0.84,
      "hand": "left"
    },
    {
      "midi": 57,
      "time": 213.5,
      "duration": 0.5,
      "velocity": 0.84,
      "hand": "left"
    },
    {
      "midi": 60,
      "time": 213.5,
      "duration": 0.5,
      "velocity": 0.61,
      "hand": "right"
    },
    {
      "midi": 67,
      "time": 213.5,
      "duration": 0.5,
      "velocity": 0.61,
      "hand": "right"
    },
    {
      "midi": 72,
      "time": 213.5,
      "duration": 0.5,
      "velocity": 0.61,
      "hand": "right"
    },
    {
      "midi": 46,
      "time": 214,
      "duration": 0.5,
      "velocity": 0.86,
      "hand": "left"
    },
    {
      "midi": 50,
      "time": 214,
      "duration": 0.5,
      "velocity": 0.86,
      "hand": "left"
    },
    {
      "midi": 58,
      "time": 214,
      "duration": 0.5,
      "velocity": 0.86,
      "hand": "left"
    },
    {
      "midi": 62,
      "time": 214,
      "duration": 0.5,
      "velocity": 0.61,
      "hand": "right"
    },
    {
      "midi": 67,
      "time": 214,
      "duration": 0.5,
      "velocity": 0.61,
      "hand": "right"
    },
    {
      "midi": 74,
      "time": 214,
      "duration": 0.5,
      "velocity": 0.61,
      "hand": "right"
    },
    {
      "midi": 43,
      "time": 214.5,
      "duration": 1,
      "velocity": 0.87,
      "hand": "left"
    },
    {
      "midi": 50,
      "time": 214.5,
      "duration": 1,
      "velocity": 0.87,
      "hand": "left"
    },
    {
      "midi": 55,
      "time": 214.5,
      "duration": 1,
      "velocity": 0.87,
      "hand": "left"
    },
    {
      "midi": 58,
      "time": 214.5,
      "duration": 1,
      "velocity": 0.61,
      "hand": "left"
    },
    {
      "midi": 67,
      "time": 214.5,
      "duration": 1,
      "velocity": 0.61,
      "hand": "right"
    },
    {
      "midi": 70,
      "time": 214.5,
      "duration": 1,
      "velocity": 0.61,
      "hand": "right"
    },
    {
      "midi": 45,
      "time": 215.5,
      "duration": 0.5,
      "velocity": 0.9,
      "hand": "left"
    },
    {
      "midi": 50,
      "time": 215.5,
      "duration": 0.5,
      "velocity": 0.9,
      "hand": "left"
    },
    {
      "midi": 57,
      "time": 215.5,
      "duration": 0.5,
      "velocity": 0.9,
      "hand": "left"
    },
    {
      "midi": 60,
      "time": 215.5,
      "duration": 0.5,
      "velocity": 0.61,
      "hand": "right"
    },
    {
      "midi": 67,
      "time": 215.5,
      "duration": 0.5,
      "velocity": 0.61,
      "hand": "right"
    },
    {
      "midi": 72,
      "time": 215.5,
      "duration": 0.5,
      "velocity": 0.61,
      "hand": "right"
    },
    {
      "midi": 46,
      "time": 216,
      "duration": 0.5,
      "velocity": 0.91,
      "hand": "left"
    },
    {
      "midi": 50,
      "time": 216,
      "duration": 0.5,
      "velocity": 0.91,
      "hand": "left"
    },
    {
      "midi": 58,
      "time": 216,
      "duration": 0.5,
      "velocity": 0.91,
      "hand": "left"
    },
    {
      "midi": 62,
      "time": 216,
      "duration": 0.5,
      "velocity": 0.61,
      "hand": "right"
    },
    {
      "midi": 67,
      "time": 216,
      "duration": 0.5,
      "velocity": 0.61,
      "hand": "right"
    },
    {
      "midi": 74,
      "time": 216,
      "duration": 0.5,
      "velocity": 0.61,
      "hand": "right"
    },
    {
      "midi": 43,
      "time": 216.5,
      "duration": 1,
      "velocity": 0.93,
      "hand": "left"
    },
    {
      "midi": 50,
      "time": 216.5,
      "duration": 1,
      "velocity": 0.93,
      "hand": "left"
    },
    {
      "midi": 55,
      "time": 216.5,
      "duration": 1,
      "velocity": 0.93,
      "hand": "left"
    },
    {
      "midi": 58,
      "time": 216.5,
      "duration": 1,
      "velocity": 0.61,
      "hand": "left"
    },
    {
      "midi": 67,
      "time": 216.5,
      "duration": 1,
      "velocity": 0.61,
      "hand": "right"
    },
    {
      "midi": 70,
      "time": 216.5,
      "duration": 1,
      "velocity": 0.61,
      "hand": "right"
    },
    {
      "midi": 45,
      "time": 217.5,
      "duration": 0.5,
      "velocity": 0.96,
      "hand": "left"
    },
    {
      "midi": 50,
      "time": 217.5,
      "duration": 0.5,
      "velocity": 0.96,
      "hand": "left"
    },
    {
      "midi": 57,
      "time": 217.5,
      "duration": 0.5,
      "velocity": 0.96,
      "hand": "left"
    },
    {
      "midi": 60,
      "time": 217.5,
      "duration": 0.5,
      "velocity": 0.61,
      "hand": "right"
    },
    {
      "midi": 67,
      "time": 217.5,
      "duration": 0.5,
      "velocity": 0.61,
      "hand": "right"
    },
    {
      "midi": 72,
      "time": 217.5,
      "duration": 0.5,
      "velocity": 0.61,
      "hand": "right"
    },
    {
      "midi": 46,
      "time": 218,
      "duration": 0.5,
      "velocity": 0.97,
      "hand": "left"
    },
    {
      "midi": 50,
      "time": 218,
      "duration": 0.5,
      "velocity": 0.97,
      "hand": "left"
    },
    {
      "midi": 58,
      "time": 218,
      "duration": 0.5,
      "velocity": 0.97,
      "hand": "left"
    },
    {
      "midi": 62,
      "time": 218,
      "duration": 0.5,
      "velocity": 0.61,
      "hand": "right"
    },
    {
      "midi": 67,
      "time": 218,
      "duration": 0.5,
      "velocity": 0.61,
      "hand": "right"
    },
    {
      "midi": 74,
      "time": 218,
      "duration": 0.5,
      "velocity": 0.61,
      "hand": "right"
    },
    {
      "midi": 43,
      "time": 218.5,
      "duration": 0.5,
      "velocity": 0.97,
      "hand": "left"
    },
    {
      "midi": 50,
      "time": 218.5,
      "duration": 0.5,
      "velocity": 0.97,
      "hand": "left"
    },
    {
      "midi": 55,
      "time": 218.5,
      "duration": 0.5,
      "velocity": 0.97,
      "hand": "left"
    },
    {
      "midi": 58,
      "time": 218.5,
      "duration": 0.5,
      "velocity": 0.61,
      "hand": "left"
    },
    {
      "midi": 67,
      "time": 218.5,
      "duration": 0.5,
      "velocity": 0.61,
      "hand": "right"
    },
    {
      "midi": 70,
      "time": 218.5,
      "duration": 0.5,
      "velocity": 0.61,
      "hand": "right"
    },
    {
      "midi": 46,
      "time": 219,
      "duration": 0.5,
      "velocity": 0.97,
      "hand": "left"
    },
    {
      "midi": 55,
      "time": 219,
      "duration": 0.5,
      "velocity": 0.97,
      "hand": "left"
    },
    {
      "midi": 58,
      "time": 219,
      "duration": 0.5,
      "velocity": 0.97,
      "hand": "left"
    },
    {
      "midi": 62,
      "time": 219,
      "duration": 0.5,
      "velocity": 0.61,
      "hand": "right"
    },
    {
      "midi": 67,
      "time": 219,
      "duration": 0.5,
      "velocity": 0.61,
      "hand": "right"
    },
    {
      "midi": 74,
      "time": 219,
      "duration": 0.5,
      "velocity": 0.61,
      "hand": "right"
    },
    {
      "midi": 48,
      "time": 219.5,
      "duration": 0.5,
      "velocity": 0.97,
      "hand": "left"
    },
    {
      "midi": 55,
      "time": 219.5,
      "duration": 0.5,
      "velocity": 0.97,
      "hand": "left"
    },
    {
      "midi": 60,
      "time": 219.5,
      "duration": 0.5,
      "velocity": 0.97,
      "hand": "right"
    },
    {
      "midi": 63,
      "time": 219.5,
      "duration": 0.5,
      "velocity": 0.61,
      "hand": "right"
    },
    {
      "midi": 75,
      "time": 219.5,
      "duration": 0.5,
      "velocity": 0.61,
      "hand": "right"
    },
    {
      "midi": 43,
      "time": 220,
      "duration": 0.5,
      "velocity": 0.8,
      "hand": "left"
    },
    {
      "midi": 46,
      "time": 220,
      "duration": 0.5,
      "velocity": 0.8,
      "hand": "left"
    },
    {
      "midi": 55,
      "time": 220,
      "duration": 0.5,
      "velocity": 0.61,
      "hand": "left"
    },
    {
      "midi": 50,
      "time": 220.5,
      "duration": 0.125,
      "velocity": 0.8,
      "hand": "left"
    },
    {
      "midi": 55,
      "time": 220.5,
      "duration": 0.125,
      "velocity": 0.8,
      "hand": "left"
    },
    {
      "midi": 58,
      "time": 220.5,
      "duration": 0.125,
      "velocity": 0.61,
      "hand": "left"
    },
    {
      "midi": 62,
      "time": 220.5,
      "duration": 0.125,
      "velocity": 0.61,
      "hand": "right"
    },
    {
      "midi": 58,
      "time": 220.75,
      "duration": 0.125,
      "velocity": 0.8,
      "hand": "left"
    },
    {
      "midi": 62,
      "time": 220.75,
      "duration": 0.125,
      "velocity": 0.8,
      "hand": "right"
    },
    {
      "midi": 67,
      "time": 220.75,
      "duration": 0.125,
      "velocity": 0.61,
      "hand": "right"
    },
    {
      "midi": 70,
      "time": 220.75,
      "duration": 0.125,
      "velocity": 0.61,
      "hand": "right"
    },
    {
      "midi": 67,
      "time": 221,
      "duration": 0.125,
      "velocity": 0.8,
      "hand": "right"
    },
    {
      "midi": 70,
      "time": 221,
      "duration": 0.5,
      "velocity": 0.8,
      "hand": "right"
    },
    {
      "midi": 74,
      "time": 221,
      "duration": 0.125,
      "velocity": 0.61,
      "hand": "right"
    },
    {
      "midi": 79,
      "time": 221,
      "duration": 0.5,
      "velocity": 0.61,
      "hand": "right"
    },
    {
      "midi": 39,
      "time": 222,
      "duration": 1.5,
      "velocity": 0.68,
      "hand": "left"
    },
    {
      "midi": 46,
      "time": 222,
      "duration": 1.5,
      "velocity": 0.68,
      "hand": "left"
    },
    {
      "midi": 51,
      "time": 222,
      "duration": 1.5,
      "velocity": 0.68,
      "hand": "left"
    },
    {
      "midi": 55,
      "time": 222,
      "duration": 1.5,
      "velocity": 0.75,
      "hand": "left"
    },
    {
      "midi": 58,
      "time": 222,
      "duration": 1.5,
      "velocity": 0.75,
      "hand": "left"
    },
    {
      "midi": 63,
      "time": 222,
      "duration": 1.5,
      "velocity": 0.75,
      "hand": "right"
    },
    {
      "midi": 67,
      "time": 222,
      "duration": 1.5,
      "velocity": 0.61,
      "hand": "right"
    },
    {
      "midi": 65,
      "time": 223.5,
      "duration": 0.125,
      "velocity": 0.61,
      "hand": "right"
    },
    {
      "midi": 65,
      "time": 223.5,
      "duration": 0.25,
      "velocity": 0.61,
      "hand": "right"
    },
    {
      "midi": 67,
      "time": 223.5,
      "duration": 0.125,
      "velocity": 0.61,
      "hand": "right"
    },
    {
      "midi": 63,
      "time": 223.75,
      "duration": 0.25,
      "velocity": 0.61,
      "hand": "right"
    },
    {
      "midi": 62,
      "time": 224,
      "duration": 0.25,
      "velocity": 0.61,
      "hand": "right"
    },
    {
      "midi": 63,
      "time": 224.25,
      "duration": 0.25,
      "velocity": 0.61,
      "hand": "right"
    },
    {
      "midi": 60,
      "time": 224.5,
      "duration": 0.25,
      "velocity": 0.61,
      "hand": "right"
    },
    {
      "midi": 62,
      "time": 224.75,
      "duration": 0.25,
      "velocity": 0.61,
      "hand": "right"
    },
    {
      "midi": 58,
      "time": 225,
      "duration": 0.5,
      "velocity": 0.61,
      "hand": "left"
    },
    {
      "midi": 44,
      "time": 225.5,
      "duration": 0.5,
      "velocity": 0.68,
      "hand": "left"
    },
    {
      "midi": 51,
      "time": 225.5,
      "duration": 0.5,
      "velocity": 0.68,
      "hand": "left"
    },
    {
      "midi": 53,
      "time": 225.5,
      "duration": 0.5,
      "velocity": 0.75,
      "hand": "left"
    },
    {
      "midi": 60,
      "time": 225.5,
      "duration": 0.5,
      "velocity": 0.61,
      "hand": "right"
    },
    {
      "midi": 39,
      "time": 226,
      "duration": 1.5,
      "velocity": 0.68,
      "hand": "left"
    },
    {
      "midi": 46,
      "time": 226,
      "duration": 1.5,
      "velocity": 0.68,
      "hand": "left"
    },
    {
      "midi": 51,
      "time": 226,
      "duration": 1.5,
      "velocity": 0.68,
      "hand": "left"
    },
    {
      "midi": 55,
      "time": 226,
      "duration": 1.5,
      "velocity": 0.75,
      "hand": "left"
    },
    {
      "midi": 58,
      "time": 226,
      "duration": 1.5,
      "velocity": 0.75,
      "hand": "left"
    },
    {
      "midi": 63,
      "time": 226,
      "duration": 1.5,
      "velocity": 0.75,
      "hand": "right"
    },
    {
      "midi": 67,
      "time": 226,
      "duration": 1.5,
      "velocity": 0.61,
      "hand": "right"
    },
    {
      "midi": 65,
      "time": 227.5,
      "duration": 0.125,
      "velocity": 0.61,
      "hand": "right"
    },
    {
      "midi": 65,
      "time": 227.5,
      "duration": 0.25,
      "velocity": 0.61,
      "hand": "right"
    },
    {
      "midi": 67,
      "time": 227.5,
      "duration": 0.125,
      "velocity": 0.61,
      "hand": "right"
    },
    {
      "midi": 63,
      "time": 227.75,
      "duration": 0.25,
      "velocity": 0.61,
      "hand": "right"
    },
    {
      "midi": 62,
      "time": 228,
      "duration": 0.25,
      "velocity": 0.61,
      "hand": "right"
    },
    {
      "midi": 63,
      "time": 228.25,
      "duration": 0.25,
      "velocity": 0.61,
      "hand": "right"
    },
    {
      "midi": 60,
      "time": 228.5,
      "duration": 0.25,
      "velocity": 0.61,
      "hand": "right"
    },
    {
      "midi": 62,
      "time": 228.75,
      "duration": 0.25,
      "velocity": 0.61,
      "hand": "right"
    },
    {
      "midi": 58,
      "time": 229,
      "duration": 0.5,
      "velocity": 0.61,
      "hand": "left"
    },
    {
      "midi": 44,
      "time": 229.5,
      "duration": 0.5,
      "velocity": 0.68,
      "hand": "left"
    },
    {
      "midi": 51,
      "time": 229.5,
      "duration": 0.5,
      "velocity": 0.68,
      "hand": "left"
    },
    {
      "midi": 53,
      "time": 229.5,
      "duration": 0.5,
      "velocity": 0.75,
      "hand": "left"
    },
    {
      "midi": 60,
      "time": 229.5,
      "duration": 0.5,
      "velocity": 0.61,
      "hand": "right"
    },
    {
      "midi": 39,
      "time": 230,
      "duration": 1.5,
      "velocity": 0.68,
      "hand": "left"
    },
    {
      "midi": 46,
      "time": 230,
      "duration": 1.5,
      "velocity": 0.68,
      "hand": "left"
    },
    {
      "midi": 51,
      "time": 230,
      "duration": 1.5,
      "velocity": 0.68,
      "hand": "left"
    },
    {
      "midi": 55,
      "time": 230,
      "duration": 1.5,
      "velocity": 0.61,
      "hand": "left"
    },
    {
      "midi": 58,
      "time": 230,
      "duration": 1.5,
      "velocity": 0.61,
      "hand": "left"
    },
    {
      "midi": 63,
      "time": 230,
      "duration": 1.5,
      "velocity": 0.61,
      "hand": "right"
    },
    {
      "midi": 67,
      "time": 230,
      "duration": 1.5,
      "velocity": 0.61,
      "hand": "right"
    },
    {
      "midi": 44,
      "time": 231.5,
      "duration": 0.5,
      "velocity": 0.68,
      "hand": "left"
    },
    {
      "midi": 51,
      "time": 231.5,
      "duration": 0.5,
      "velocity": 0.68,
      "hand": "left"
    },
    {
      "midi": 53,
      "time": 231.5,
      "duration": 0.5,
      "velocity": 0.61,
      "hand": "left"
    },
    {
      "midi": 60,
      "time": 231.5,
      "duration": 0.5,
      "velocity": 0.61,
      "hand": "right"
    },
    {
      "midi": 39,
      "time": 232,
      "duration": 1.5,
      "velocity": 0.68,
      "hand": "left"
    },
    {
      "midi": 46,
      "time": 232,
      "duration": 1.5,
      "velocity": 0.68,
      "hand": "left"
    },
    {
      "midi": 51,
      "time": 232,
      "duration": 1.5,
      "velocity": 0.68,
      "hand": "left"
    },
    {
      "midi": 55,
      "time": 232,
      "duration": 1.5,
      "velocity": 0.61,
      "hand": "left"
    },
    {
      "midi": 58,
      "time": 232,
      "duration": 1.5,
      "velocity": 0.61,
      "hand": "left"
    },
    {
      "midi": 63,
      "time": 232,
      "duration": 1.5,
      "velocity": 0.61,
      "hand": "right"
    },
    {
      "midi": 67,
      "time": 232,
      "duration": 1.5,
      "velocity": 0.61,
      "hand": "right"
    },
    {
      "midi": 44,
      "time": 233.5,
      "duration": 0.5,
      "velocity": 0.68,
      "hand": "left"
    },
    {
      "midi": 51,
      "time": 233.5,
      "duration": 0.5,
      "velocity": 0.68,
      "hand": "left"
    },
    {
      "midi": 53,
      "time": 233.5,
      "duration": 0.5,
      "velocity": 0.61,
      "hand": "left"
    },
    {
      "midi": 60,
      "time": 233.5,
      "duration": 0.5,
      "velocity": 0.61,
      "hand": "right"
    },
    {
      "midi": 39,
      "time": 234,
      "duration": 0.5,
      "velocity": 0.68,
      "hand": "left"
    },
    {
      "midi": 46,
      "time": 234,
      "duration": 0.5,
      "velocity": 0.68,
      "hand": "left"
    },
    {
      "midi": 51,
      "time": 234,
      "duration": 0.5,
      "velocity": 0.68,
      "hand": "left"
    },
    {
      "midi": 55,
      "time": 234,
      "duration": 0.5,
      "velocity": 0.54,
      "hand": "left"
    },
    {
      "midi": 58,
      "time": 234,
      "duration": 0.5,
      "velocity": 0.54,
      "hand": "left"
    },
    {
      "midi": 63,
      "time": 234,
      "duration": 0.5,
      "velocity": 0.54,
      "hand": "right"
    },
    {
      "midi": 67,
      "time": 234,
      "duration": 0.5,
      "velocity": 0.54,
      "hand": "right"
    },
    {
      "midi": 44,
      "time": 234.5,
      "duration": 0.5,
      "velocity": 0.68,
      "hand": "left"
    },
    {
      "midi": 51,
      "time": 234.5,
      "duration": 0.5,
      "velocity": 0.68,
      "hand": "left"
    },
    {
      "midi": 53,
      "time": 234.5,
      "duration": 0.5,
      "velocity": 0.54,
      "hand": "left"
    },
    {
      "midi": 60,
      "time": 234.5,
      "duration": 0.5,
      "velocity": 0.54,
      "hand": "right"
    },
    {
      "midi": 39,
      "time": 235,
      "duration": 0.5,
      "velocity": 0.68,
      "hand": "left"
    },
    {
      "midi": 46,
      "time": 235,
      "duration": 0.5,
      "velocity": 0.68,
      "hand": "left"
    },
    {
      "midi": 51,
      "time": 235,
      "duration": 0.5,
      "velocity": 0.68,
      "hand": "left"
    },
    {
      "midi": 55,
      "time": 235,
      "duration": 0.5,
      "velocity": 0.54,
      "hand": "left"
    },
    {
      "midi": 58,
      "time": 235,
      "duration": 0.5,
      "velocity": 0.54,
      "hand": "left"
    },
    {
      "midi": 63,
      "time": 235,
      "duration": 0.5,
      "velocity": 0.54,
      "hand": "right"
    },
    {
      "midi": 67,
      "time": 235,
      "duration": 0.5,
      "velocity": 0.54,
      "hand": "right"
    },
    {
      "midi": 44,
      "time": 235.5,
      "duration": 0.5,
      "velocity": 0.68,
      "hand": "left"
    },
    {
      "midi": 51,
      "time": 235.5,
      "duration": 0.5,
      "velocity": 0.68,
      "hand": "left"
    },
    {
      "midi": 53,
      "time": 235.5,
      "duration": 0.5,
      "velocity": 0.54,
      "hand": "left"
    },
    {
      "midi": 60,
      "time": 235.5,
      "duration": 0.5,
      "velocity": 0.54,
      "hand": "right"
    },
    {
      "midi": 39,
      "time": 236,
      "duration": 0.5,
      "velocity": 0.68,
      "hand": "left"
    },
    {
      "midi": 46,
      "time": 236,
      "duration": 0.5,
      "velocity": 0.68,
      "hand": "left"
    },
    {
      "midi": 51,
      "time": 236,
      "duration": 0.5,
      "velocity": 0.68,
      "hand": "left"
    },
    {
      "midi": 55,
      "time": 236,
      "duration": 0.5,
      "velocity": 0.54,
      "hand": "left"
    },
    {
      "midi": 58,
      "time": 236,
      "duration": 0.5,
      "velocity": 0.54,
      "hand": "left"
    },
    {
      "midi": 63,
      "time": 236,
      "duration": 0.5,
      "velocity": 0.54,
      "hand": "right"
    },
    {
      "midi": 67,
      "time": 236,
      "duration": 0.5,
      "velocity": 0.54,
      "hand": "right"
    },
    {
      "midi": 44,
      "time": 236.5,
      "duration": 0.5,
      "velocity": 0.68,
      "hand": "left"
    },
    {
      "midi": 51,
      "time": 236.5,
      "duration": 0.5,
      "velocity": 0.68,
      "hand": "left"
    },
    {
      "midi": 53,
      "time": 236.5,
      "duration": 0.5,
      "velocity": 0.54,
      "hand": "left"
    },
    {
      "midi": 60,
      "time": 236.5,
      "duration": 0.5,
      "velocity": 0.54,
      "hand": "right"
    },
    {
      "midi": 39,
      "time": 237,
      "duration": 0.5,
      "velocity": 0.68,
      "hand": "left"
    },
    {
      "midi": 46,
      "time": 237,
      "duration": 0.5,
      "velocity": 0.68,
      "hand": "left"
    },
    {
      "midi": 51,
      "time": 237,
      "duration": 0.5,
      "velocity": 0.68,
      "hand": "left"
    },
    {
      "midi": 55,
      "time": 237,
      "duration": 0.5,
      "velocity": 0.54,
      "hand": "left"
    },
    {
      "midi": 58,
      "time": 237,
      "duration": 0.5,
      "velocity": 0.54,
      "hand": "left"
    },
    {
      "midi": 63,
      "time": 237,
      "duration": 0.5,
      "velocity": 0.54,
      "hand": "right"
    },
    {
      "midi": 67,
      "time": 237,
      "duration": 0.5,
      "velocity": 0.54,
      "hand": "right"
    },
    {
      "midi": 44,
      "time": 237.5,
      "duration": 0.5,
      "velocity": 0.68,
      "hand": "left"
    },
    {
      "midi": 51,
      "time": 237.5,
      "duration": 0.5,
      "velocity": 0.68,
      "hand": "left"
    },
    {
      "midi": 53,
      "time": 237.5,
      "duration": 0.5,
      "velocity": 0.54,
      "hand": "left"
    },
    {
      "midi": 60,
      "time": 237.5,
      "duration": 0.5,
      "velocity": 0.54,
      "hand": "right"
    },
    {
      "midi": 39,
      "time": 238,
      "duration": 0.25,
      "velocity": 0.68,
      "hand": "left"
    },
    {
      "midi": 46,
      "time": 238,
      "duration": 0.25,
      "velocity": 0.68,
      "hand": "left"
    },
    {
      "midi": 51,
      "time": 238,
      "duration": 0.25,
      "velocity": 0.68,
      "hand": "left"
    },
    {
      "midi": 55,
      "time": 238,
      "duration": 0.25,
      "velocity": 0.75,
      "hand": "left"
    },
    {
      "midi": 58,
      "time": 238,
      "duration": 0.25,
      "velocity": 0.75,
      "hand": "left"
    },
    {
      "midi": 63,
      "time": 238,
      "duration": 0.25,
      "velocity": 0.75,
      "hand": "right"
    },
    {
      "midi": 67,
      "time": 238,
      "duration": 0.25,
      "velocity": 0.54,
      "hand": "right"
    },
    {
      "midi": 65,
      "time": 238.25,
      "duration": 0.25,
      "velocity": 0.54,
      "hand": "right"
    },
    {
      "midi": 58,
      "time": 238.5,
      "duration": 0.25,
      "velocity": 0.54,
      "hand": "left"
    },
    {
      "midi": 62,
      "time": 238.5,
      "duration": 0.25,
      "velocity": 0.54,
      "hand": "right"
    },
    {
      "midi": 63,
      "time": 238.5,
      "duration": 0.25,
      "velocity": 0.54,
      "hand": "right"
    },
    {
      "midi": 55,
      "time": 238.75,
      "duration": 0.25,
      "velocity": 0.54,
      "hand": "left"
    },
    {
      "midi": 63,
      "time": 238.75,
      "duration": 0.25,
      "velocity": 0.54,
      "hand": "right"
    },
    {
      "midi": 54,
      "time": 239,
      "duration": 0.25,
      "velocity": 0.54,
      "hand": "left"
    },
    {
      "midi": 58,
      "time": 239,
      "duration": 0.5,
      "velocity": 0.54,
      "hand": "left"
    },
    {
      "midi": 55,
      "time": 239.25,
      "duration": 0.25,
      "velocity": 0.54,
      "hand": "left"
    },
    {
      "midi": 53,
      "time": 239.5,
      "duration": 0.5,
      "velocity": 0.54,
      "hand": "left"
    },
    {
      "midi": 56,
      "time": 239.5,
      "duration": 0.5,
      "velocity": 0.54,
      "hand": "left"
    },
    {
      "midi": 60,
      "time": 239.5,
      "duration": 0.5,
      "velocity": 0.54,
      "hand": "right"
    },
    {
      "midi": 39,
      "time": 240,
      "duration": 0.25,
      "velocity": 0.54,
      "hand": "left"
    },
    {
      "midi": 46,
      "time": 240,
      "duration": 0.25,
      "velocity": 0.54,
      "hand": "left"
    },
    {
      "midi": 51,
      "time": 240,
      "duration": 0.25,
      "velocity": 0.54,
      "hand": "left"
    },
    {
      "midi": 55,
      "time": 240,
      "duration": 0.25,
      "velocity": 0.75,
      "hand": "left"
    },
    {
      "midi": 58,
      "time": 240,
      "duration": 0.25,
      "velocity": 0.75,
      "hand": "left"
    },
    {
      "midi": 67,
      "time": 240,
      "duration": 0.25,
      "velocity": 0.54,
      "hand": "right"
    },
    {
      "midi": 65,
      "time": 240.25,
      "duration": 0.25,
      "velocity": 0.54,
      "hand": "right"
    },
    {
      "midi": 58,
      "time": 240.5,
      "duration": 0.25,
      "velocity": 0.54,
      "hand": "left"
    },
    {
      "midi": 62,
      "time": 240.5,
      "duration": 0.25,
      "velocity": 0.54,
      "hand": "right"
    },
    {
      "midi": 63,
      "time": 240.5,
      "duration": 0.25,
      "velocity": 0.54,
      "hand": "right"
    },
    {
      "midi": 55,
      "time": 240.75,
      "duration": 0.25,
      "velocity": 0.54,
      "hand": "left"
    },
    {
      "midi": 63,
      "time": 240.75,
      "duration": 0.25,
      "velocity": 0.54,
      "hand": "right"
    },
    {
      "midi": 54,
      "time": 241,
      "duration": 0.25,
      "velocity": 0.54,
      "hand": "left"
    },
    {
      "midi": 58,
      "time": 241,
      "duration": 0.5,
      "velocity": 0.54,
      "hand": "left"
    },
    {
      "midi": 55,
      "time": 241.25,
      "duration": 0.25,
      "velocity": 0.54,
      "hand": "left"
    },
    {
      "midi": 53,
      "time": 241.5,
      "duration": 0.5,
      "velocity": 0.54,
      "hand": "left"
    },
    {
      "midi": 56,
      "time": 241.5,
      "duration": 0.5,
      "velocity": 0.54,
      "hand": "left"
    },
    {
      "midi": 60,
      "time": 241.5,
      "duration": 0.5,
      "velocity": 0.54,
      "hand": "right"
    },
    {
      "midi": 39,
      "time": 242,
      "duration": 0.25,
      "velocity": 0.71,
      "hand": "left"
    },
    {
      "midi": 46,
      "time": 242,
      "duration": 0.25,
      "velocity": 0.71,
      "hand": "left"
    },
    {
      "midi": 51,
      "time": 242,
      "duration": 0.25,
      "velocity": 0.71,
      "hand": "left"
    },
    {
      "midi": 55,
      "time": 242,
      "duration": 0.25,
      "velocity": 0.54,
      "hand": "left"
    },
    {
      "midi": 58,
      "time": 242,
      "duration": 0.25,
      "velocity": 0.54,
      "hand": "left"
    },
    {
      "midi": 63,
      "time": 242,
      "duration": 0.25,
      "velocity": 0.54,
      "hand": "right"
    },
    {
      "midi": 67,
      "time": 242,
      "duration": 0.25,
      "velocity": 0.54,
      "hand": "right"
    },
    {
      "midi": 58,
      "time": 242.25,
      "duration": 0.5,
      "velocity": 0.71,
      "hand": "left"
    },
    {
      "midi": 67,
      "time": 242.25,
      "duration": 0.5,
      "velocity": 0.54,
      "hand": "right"
    },
    {
      "midi": 51,
      "time": 242.5,
      "duration": 0.25,
      "velocity": 0.71,
      "hand": "left"
    },
    {
      "midi": 59,
      "time": 242.75,
      "duration": 0.5,
      "velocity": 0.54,
      "hand": "left"
    },
    {
      "midi": 65,
      "time": 242.75,
      "duration": 0.5,
      "velocity": 0.54,
      "hand": "right"
    },
    {
      "midi": 67,
      "time": 242.75,
      "duration": 0.5,
      "velocity": 0.54,
      "hand": "right"
    },
    {
      "midi": 50,
      "time": 243,
      "duration": 0.25,
      "velocity": 0.71,
      "hand": "left"
    },
    {
      "midi": 60,
      "time": 243.25,
      "duration": 0.5,
      "velocity": 0.54,
      "hand": "right"
    },
    {
      "midi": 63,
      "time": 243.25,
      "duration": 0.5,
      "velocity": 0.57,
      "hand": "right"
    },
    {
      "midi": 67,
      "time": 243.25,
      "duration": 0.5,
      "velocity": 0.57,
      "hand": "right"
    },
    {
      "midi": 48,
      "time": 243.5,
      "duration": 0.25,
      "velocity": 0.71,
      "hand": "left"
    },
    {
      "midi": 58,
      "time": 243.75,
      "duration": 0.5,
      "velocity": 0.54,
      "hand": "left"
    },
    {
      "midi": 62,
      "time": 243.75,
      "duration": 0.5,
      "velocity": 0.61,
      "hand": "right"
    },
    {
      "midi": 67,
      "time": 243.75,
      "duration": 0.5,
      "velocity": 0.61,
      "hand": "right"
    },
    {
      "midi": 46,
      "time": 244,
      "duration": 0.25,
      "velocity": 0.71,
      "hand": "left"
    },
    {
      "midi": 50,
      "time": 244,
      "duration": 0.25,
      "velocity": 0.71,
      "hand": "left"
    },
    {
      "midi": 56,
      "time": 244.25,
      "duration": 0.5,
      "velocity": 0.71,
      "hand": "left"
    },
    {
      "midi": 60,
      "time": 244.25,
      "duration": 0.5,
      "velocity": 0.65,
      "hand": "right"
    },
    {
      "midi": 67,
      "time": 244.25,
      "duration": 0.5,
      "velocity": 0.65,
      "hand": "right"
    },
    {
      "midi": 44,
      "time": 244.5,
      "duration": 0.25,
      "velocity": 0.71,
      "hand": "left"
    },
    {
      "midi": 50,
      "time": 244.5,
      "duration": 0.25,
      "velocity": 0.71,
      "hand": "left"
    },
    {
      "midi": 55,
      "time": 244.75,
      "duration": 0.75,
      "velocity": 0.54,
      "hand": "left"
    },
    {
      "midi": 58,
      "time": 244.75,
      "duration": 0.5,
      "velocity": 0.69,
      "hand": "left"
    },
    {
      "midi": 62,
      "time": 244.75,
      "duration": 0.5,
      "velocity": 0.69,
      "hand": "right"
    },
    {
      "midi": 67,
      "time": 244.75,
      "duration": 0.5,
      "velocity": 0.69,
      "hand": "right"
    },
    {
      "midi": 43,
      "time": 245,
      "duration": 0.5,
      "velocity": 0.71,
      "hand": "left"
    },
    {
      "midi": 50,
      "time": 245,
      "duration": 0.5,
      "velocity": 0.71,
      "hand": "left"
    },
    {
      "midi": 67,
      "time": 245.25,
      "duration": 0.75,
      "velocity": 0.72,
      "hand": "right"
    },
    {
      "midi": 55,
      "time": 245.5,
      "duration": 0.5,
      "velocity": 0.71,
      "hand": "left"
    },
    {
      "midi": 58,
      "time": 245.5,
      "duration": 0.5,
      "velocity": 0.71,
      "hand": "left"
    },
    {
      "midi": 62,
      "time": 245.5,
      "duration": 0.5,
      "velocity": 0.54,
      "hand": "right"
    },
    {
      "midi": 70,
      "time": 245.5,
      "duration": 0.5,
      "velocity": 0.75,
      "hand": "right"
    },
    {
      "midi": 74,
      "time": 245.5,
      "duration": 0.5,
      "velocity": 0.75,
      "hand": "right"
    },
    {
      "midi": 79,
      "time": 245.5,
      "duration": 0.5,
      "velocity": 0.75,
      "hand": "right"
    },
    {
      "midi": 39,
      "time": 246,
      "duration": 0.25,
      "velocity": 0.54,
      "hand": "left"
    },
    {
      "midi": 46,
      "time": 246,
      "duration": 0.25,
      "velocity": 0.54,
      "hand": "left"
    },
    {
      "midi": 51,
      "time": 246,
      "duration": 0.25,
      "velocity": 0.54,
      "hand": "left"
    },
    {
      "midi": 55,
      "time": 246,
      "duration": 0.25,
      "velocity": 0.75,
      "hand": "left"
    },
    {
      "midi": 58,
      "time": 246,
      "duration": 0.25,
      "velocity": 0.75,
      "hand": "left"
    },
    {
      "midi": 63,
      "time": 246,
      "duration": 0.25,
      "velocity": 0.75,
      "hand": "right"
    },
    {
      "midi": 67,
      "time": 246,
      "duration": 0.25,
      "velocity": 0.75,
      "hand": "right"
    },
    {
      "midi": 65,
      "time": 246.25,
      "duration": 0.25,
      "velocity": 0.75,
      "hand": "right"
    },
    {
      "midi": 58,
      "time": 246.5,
      "duration": 0.25,
      "velocity": 0.54,
      "hand": "left"
    },
    {
      "midi": 62,
      "time": 246.5,
      "duration": 0.25,
      "velocity": 0.75,
      "hand": "right"
    },
    {
      "midi": 63,
      "time": 246.5,
      "duration": 0.25,
      "velocity": 0.75,
      "hand": "right"
    },
    {
      "midi": 55,
      "time": 246.75,
      "duration": 0.25,
      "velocity": 0.54,
      "hand": "left"
    },
    {
      "midi": 63,
      "time": 246.75,
      "duration": 0.25,
      "velocity": 0.75,
      "hand": "right"
    },
    {
      "midi": 54,
      "time": 247,
      "duration": 0.25,
      "velocity": 0.54,
      "hand": "left"
    },
    {
      "midi": 58,
      "time": 247,
      "duration": 0.5,
      "velocity": 0.75,
      "hand": "left"
    },
    {
      "midi": 55,
      "time": 247.25,
      "duration": 0.25,
      "velocity": 0.54,
      "hand": "left"
    },
    {
      "midi": 53,
      "time": 247.5,
      "duration": 0.5,
      "velocity": 0.75,
      "hand": "left"
    },
    {
      "midi": 56,
      "time": 247.5,
      "duration": 0.5,
      "velocity": 0.54,
      "hand": "left"
    },
    {
      "midi": 60,
      "time": 247.5,
      "duration": 0.5,
      "velocity": 0.75,
      "hand": "right"
    },
    {
      "midi": 39,
      "time": 248,
      "duration": 0.25,
      "velocity": 0.54,
      "hand": "left"
    },
    {
      "midi": 46,
      "time": 248,
      "duration": 0.25,
      "velocity": 0.54,
      "hand": "left"
    },
    {
      "midi": 51,
      "time": 248,
      "duration": 0.25,
      "velocity": 0.54,
      "hand": "left"
    },
    {
      "midi": 55,
      "time": 248,
      "duration": 0.25,
      "velocity": 0.75,
      "hand": "left"
    },
    {
      "midi": 58,
      "time": 248,
      "duration": 0.25,
      "velocity": 0.75,
      "hand": "left"
    },
    {
      "midi": 67,
      "time": 248,
      "duration": 0.25,
      "velocity": 0.75,
      "hand": "right"
    },
    {
      "midi": 65,
      "time": 248.25,
      "duration": 0.25,
      "velocity": 0.75,
      "hand": "right"
    },
    {
      "midi": 58,
      "time": 248.5,
      "duration": 0.25,
      "velocity": 0.54,
      "hand": "left"
    },
    {
      "midi": 62,
      "time": 248.5,
      "duration": 0.25,
      "velocity": 0.75,
      "hand": "right"
    },
    {
      "midi": 63,
      "time": 248.5,
      "duration": 0.25,
      "velocity": 0.75,
      "hand": "right"
    },
    {
      "midi": 55,
      "time": 248.75,
      "duration": 0.25,
      "velocity": 0.54,
      "hand": "left"
    },
    {
      "midi": 63,
      "time": 248.75,
      "duration": 0.25,
      "velocity": 0.75,
      "hand": "right"
    },
    {
      "midi": 54,
      "time": 249,
      "duration": 0.25,
      "velocity": 0.54,
      "hand": "left"
    },
    {
      "midi": 58,
      "time": 249,
      "duration": 0.5,
      "velocity": 0.75,
      "hand": "left"
    },
    {
      "midi": 55,
      "time": 249.25,
      "duration": 0.25,
      "velocity": 0.54,
      "hand": "left"
    },
    {
      "midi": 53,
      "time": 249.5,
      "duration": 0.5,
      "velocity": 0.75,
      "hand": "left"
    },
    {
      "midi": 56,
      "time": 249.5,
      "duration": 0.5,
      "velocity": 0.54,
      "hand": "left"
    },
    {
      "midi": 60,
      "time": 249.5,
      "duration": 0.5,
      "velocity": 0.75,
      "hand": "right"
    },
    {
      "midi": 39,
      "time": 250,
      "duration": 0.25,
      "velocity": 0.71,
      "hand": "left"
    },
    {
      "midi": 46,
      "time": 250,
      "duration": 0.25,
      "velocity": 0.71,
      "hand": "left"
    },
    {
      "midi": 51,
      "time": 250,
      "duration": 0.25,
      "velocity": 0.71,
      "hand": "left"
    },
    {
      "midi": 55,
      "time": 250,
      "duration": 0.25,
      "velocity": 0.75,
      "hand": "left"
    },
    {
      "midi": 58,
      "time": 250,
      "duration": 0.25,
      "velocity": 0.75,
      "hand": "left"
    },
    {
      "midi": 63,
      "time": 250,
      "duration": 0.25,
      "velocity": 0.75,
      "hand": "right"
    },
    {
      "midi": 67,
      "time": 250,
      "duration": 0.25,
      "velocity": 0.75,
      "hand": "right"
    },
    {
      "midi": 58,
      "time": 250.25,
      "duration": 0.5,
      "velocity": 0.71,
      "hand": "left"
    },
    {
      "midi": 67,
      "time": 250.25,
      "duration": 0.5,
      "velocity": 0.75,
      "hand": "right"
    },
    {
      "midi": 51,
      "time": 250.5,
      "duration": 0.25,
      "velocity": 0.71,
      "hand": "left"
    },
    {
      "midi": 59,
      "time": 250.75,
      "duration": 0.5,
      "velocity": 0.54,
      "hand": "left"
    },
    {
      "midi": 65,
      "time": 250.75,
      "duration": 0.5,
      "velocity": 0.75,
      "hand": "right"
    },
    {
      "midi": 67,
      "time": 250.75,
      "duration": 0.5,
      "velocity": 0.75,
      "hand": "right"
    },
    {
      "midi": 50,
      "time": 251,
      "duration": 0.25,
      "velocity": 0.71,
      "hand": "left"
    },
    {
      "midi": 60,
      "time": 251.25,
      "duration": 0.5,
      "velocity": 0.54,
      "hand": "right"
    },
    {
      "midi": 63,
      "time": 251.25,
      "duration": 0.5,
      "velocity": 0.75,
      "hand": "right"
    },
    {
      "midi": 67,
      "time": 251.25,
      "duration": 0.5,
      "velocity": 0.75,
      "hand": "right"
    },
    {
      "midi": 48,
      "time": 251.5,
      "duration": 0.25,
      "velocity": 0.71,
      "hand": "left"
    },
    {
      "midi": 58,
      "time": 251.75,
      "duration": 0.5,
      "velocity": 0.54,
      "hand": "left"
    },
    {
      "midi": 62,
      "time": 251.75,
      "duration": 0.5,
      "velocity": 0.75,
      "hand": "right"
    },
    {
      "midi": 67,
      "time": 251.75,
      "duration": 0.5,
      "velocity": 0.75,
      "hand": "right"
    },
    {
      "midi": 46,
      "time": 252,
      "duration": 0.25,
      "velocity": 0.71,
      "hand": "left"
    },
    {
      "midi": 50,
      "time": 252,
      "duration": 0.25,
      "velocity": 0.71,
      "hand": "left"
    },
    {
      "midi": 56,
      "time": 252.25,
      "duration": 0.5,
      "velocity": 0.71,
      "hand": "left"
    },
    {
      "midi": 60,
      "time": 252.25,
      "duration": 0.5,
      "velocity": 0.75,
      "hand": "right"
    },
    {
      "midi": 67,
      "time": 252.25,
      "duration": 0.5,
      "velocity": 0.75,
      "hand": "right"
    },
    {
      "midi": 44,
      "time": 252.5,
      "duration": 0.25,
      "velocity": 0.71,
      "hand": "left"
    },
    {
      "midi": 50,
      "time": 252.5,
      "duration": 0.25,
      "velocity": 0.71,
      "hand": "left"
    },
    {
      "midi": 55,
      "time": 252.75,
      "duration": 0.75,
      "velocity": 0.54,
      "hand": "left"
    },
    {
      "midi": 58,
      "time": 252.75,
      "duration": 0.5,
      "velocity": 0.75,
      "hand": "left"
    },
    {
      "midi": 62,
      "time": 252.75,
      "duration": 0.5,
      "velocity": 0.75,
      "hand": "right"
    },
    {
      "midi": 67,
      "time": 252.75,
      "duration": 0.5,
      "velocity": 0.75,
      "hand": "right"
    },
    {
      "midi": 43,
      "time": 253,
      "duration": 0.5,
      "velocity": 0.71,
      "hand": "left"
    },
    {
      "midi": 50,
      "time": 253,
      "duration": 0.5,
      "velocity": 0.71,
      "hand": "left"
    },
    {
      "midi": 67,
      "time": 253.25,
      "duration": 0.25,
      "velocity": 0.75,
      "hand": "right"
    },
    {
      "midi": 55,
      "time": 253.5,
      "duration": 0.5,
      "velocity": 0.71,
      "hand": "left"
    },
    {
      "midi": 58,
      "time": 253.5,
      "duration": 0.5,
      "velocity": 0.71,
      "hand": "left"
    },
    {
      "midi": 62,
      "time": 253.5,
      "duration": 0.5,
      "velocity": 0.54,
      "hand": "right"
    },
    {
      "midi": 70,
      "time": 253.5,
      "duration": 0.25,
      "velocity": 0.75,
      "hand": "right"
    },
    {
      "midi": 74,
      "time": 253.5,
      "duration": 0.25,
      "velocity": 0.75,
      "hand": "right"
    },
    {
      "midi": 79,
      "time": 253.5,
      "duration": 0.25,
      "velocity": 0.75,
      "hand": "right"
    },
    {
      "midi": 70,
      "time": 253.75,
      "duration": 0.25,
      "velocity": 0.75,
      "hand": "right"
    },
    {
      "midi": 82,
      "time": 253.75,
      "duration": 0.25,
      "velocity": 0.75,
      "hand": "right"
    },
    {
      "midi": 72,
      "time": 254,
      "duration": 0.5,
      "velocity": 0.61,
      "hand": "right"
    },
    {
      "midi": 84,
      "time": 254,
      "duration": 0.5,
      "velocity": 0.61,
      "hand": "right"
    },
    {
      "midi": 44,
      "time": 254.25,
      "duration": 0.25,
      "velocity": 0.54,
      "hand": "left"
    },
    {
      "midi": 46,
      "time": 254.25,
      "duration": 0.25,
      "velocity": 0.54,
      "hand": "left"
    },
    {
      "midi": 50,
      "time": 254.25,
      "duration": 0.25,
      "velocity": 0.54,
      "hand": "left"
    },
    {
      "midi": 56,
      "time": 254.5,
      "duration": 0.25,
      "velocity": 0.54,
      "hand": "left"
    },
    {
      "midi": 72,
      "time": 254.5,
      "duration": 0.5,
      "velocity": 0.61,
      "hand": "right"
    },
    {
      "midi": 84,
      "time": 254.5,
      "duration": 0.5,
      "velocity": 0.61,
      "hand": "right"
    },
    {
      "midi": 56,
      "time": 254.75,
      "duration": 0.25,
      "velocity": 0.54,
      "hand": "left"
    },
    {
      "midi": 58,
      "time": 254.75,
      "duration": 0.25,
      "velocity": 0.54,
      "hand": "left"
    },
    {
      "midi": 62,
      "time": 254.75,
      "duration": 0.25,
      "velocity": 0.54,
      "hand": "right"
    },
    {
      "midi": 68,
      "time": 255,
      "duration": 0.25,
      "velocity": 0.54,
      "hand": "right"
    },
    {
      "midi": 72,
      "time": 255,
      "duration": 0.25,
      "velocity": 0.61,
      "hand": "right"
    },
    {
      "midi": 84,
      "time": 255,
      "duration": 0.25,
      "velocity": 0.61,
      "hand": "right"
    },
    {
      "midi": 56,
      "time": 255.25,
      "duration": 0.25,
      "velocity": 0.54,
      "hand": "left"
    },
    {
      "midi": 58,
      "time": 255.25,
      "duration": 0.25,
      "velocity": 0.54,
      "hand": "left"
    },
    {
      "midi": 62,
      "time": 255.25,
      "duration": 0.25,
      "velocity": 0.54,
      "hand": "right"
    },
    {
      "midi": 82,
      "time": 255.25,
      "duration": 0.25,
      "velocity": 0.61,
      "hand": "right"
    },
    {
      "midi": 79,
      "time": 255.5,
      "duration": 0.25,
      "velocity": 0.61,
      "hand": "right"
    },
    {
      "midi": 80,
      "time": 255.5,
      "duration": 0.25,
      "velocity": 0.61,
      "hand": "right"
    },
    {
      "midi": 77,
      "time": 255.75,
      "duration": 0.25,
      "velocity": 0.61,
      "hand": "right"
    },
    {
      "midi": 70,
      "time": 256,
      "duration": 0.5,
      "velocity": 0.61,
      "hand": "right"
    },
    {
      "midi": 82,
      "time": 256,
      "duration": 0.5,
      "velocity": 0.61,
      "hand": "right"
    },
    {
      "midi": 43,
      "time": 256.25,
      "duration": 0.25,
      "velocity": 0.54,
      "hand": "left"
    },
    {
      "midi": 46,
      "time": 256.25,
      "duration": 0.25,
      "velocity": 0.54,
      "hand": "left"
    },
    {
      "midi": 51,
      "time": 256.25,
      "duration": 0.25,
      "velocity": 0.54,
      "hand": "left"
    },
    {
      "midi": 55,
      "time": 256.5,
      "duration": 0.25,
      "velocity": 0.54,
      "hand": "left"
    },
    {
      "midi": 70,
      "time": 256.5,
      "duration": 0.5,
      "velocity": 0.61,
      "hand": "right"
    },
    {
      "midi": 82,
      "time": 256.5,
      "duration": 0.5,
      "velocity": 0.61,
      "hand": "right"
    },
    {
      "midi": 55,
      "time": 256.75,
      "duration": 0.25,
      "velocity": 0.54,
      "hand": "left"
    },
    {
      "midi": 58,
      "time": 256.75,
      "duration": 0.25,
      "velocity": 0.54,
      "hand": "left"
    },
    {
      "midi": 63,
      "time": 256.75,
      "duration": 0.25,
      "velocity": 0.54,
      "hand": "right"
    },
    {
      "midi": 67,
      "time": 257,
      "duration": 0.25,
      "velocity": 0.54,
      "hand": "right"
    },
    {
      "midi": 70,
      "time": 257,
      "duration": 0.5,
      "velocity": 0.61,
      "hand": "right"
    },
    {
      "midi": 82,
      "time": 257,
      "duration": 0.5,
      "velocity": 0.61,
      "hand": "right"
    },
    {
      "midi": 55,
      "time": 257.25,
      "duration": 0.25,
      "velocity": 0.54,
      "hand": "left"
    },
    {
      "midi": 58,
      "time": 257.25,
      "duration": 0.25,
      "velocity": 0.54,
      "hand": "left"
    },
    {
      "midi": 63,
      "time": 257.25,
      "duration": 0.25,
      "velocity": 0.54,
      "hand": "right"
    },
    {
      "midi": 75,
      "time": 257.5,
      "duration": 0.25,
      "velocity": 0.61,
      "hand": "right"
    },
    {
      "midi": 87,
      "time": 257.5,
      "duration": 0.25,
      "velocity": 0.61,
      "hand": "right"
    },
    {
      "midi": 74,
      "time": 257.75,
      "duration": 0.25,
      "velocity": 0.61,
      "hand": "right"
    },
    {
      "midi": 86,
      "time": 257.75,
      "duration": 0.25,
      "velocity": 0.61,
      "hand": "right"
    },
    {
      "midi": 72,
      "time": 258,
      "duration": 0.5,
      "velocity": 0.61,
      "hand": "right"
    },
    {
      "midi": 84,
      "time": 258,
      "duration": 0.5,
      "velocity": 0.61,
      "hand": "right"
    },
    {
      "midi": 44,
      "time": 258.25,
      "duration": 0.25,
      "velocity": 0.54,
      "hand": "left"
    },
    {
      "midi": 46,
      "time": 258.25,
      "duration": 0.25,
      "velocity": 0.54,
      "hand": "left"
    },
    {
      "midi": 50,
      "time": 258.25,
      "duration": 0.25,
      "velocity": 0.54,
      "hand": "left"
    },
    {
      "midi": 56,
      "time": 258.5,
      "duration": 0.25,
      "velocity": 0.54,
      "hand": "left"
    },
    {
      "midi": 72,
      "time": 258.5,
      "duration": 0.5,
      "velocity": 0.61,
      "hand": "right"
    },
    {
      "midi": 84,
      "time": 258.5,
      "duration": 0.5,
      "velocity": 0.61,
      "hand": "right"
    },
    {
      "midi": 56,
      "time": 258.75,
      "duration": 0.25,
      "velocity": 0.54,
      "hand": "left"
    },
    {
      "midi": 58,
      "time": 258.75,
      "duration": 0.25,
      "velocity": 0.54,
      "hand": "left"
    },
    {
      "midi": 62,
      "time": 258.75,
      "duration": 0.25,
      "velocity": 0.54,
      "hand": "right"
    },
    {
      "midi": 68,
      "time": 259,
      "duration": 0.25,
      "velocity": 0.54,
      "hand": "right"
    },
    {
      "midi": 72,
      "time": 259,
      "duration": 0.25,
      "velocity": 0.61,
      "hand": "right"
    },
    {
      "midi": 84,
      "time": 259,
      "duration": 0.25,
      "velocity": 0.61,
      "hand": "right"
    },
    {
      "midi": 56,
      "time": 259.25,
      "duration": 0.25,
      "velocity": 0.54,
      "hand": "left"
    },
    {
      "midi": 58,
      "time": 259.25,
      "duration": 0.25,
      "velocity": 0.54,
      "hand": "left"
    },
    {
      "midi": 62,
      "time": 259.25,
      "duration": 0.25,
      "velocity": 0.54,
      "hand": "right"
    },
    {
      "midi": 82,
      "time": 259.25,
      "duration": 0.25,
      "velocity": 0.61,
      "hand": "right"
    },
    {
      "midi": 79,
      "time": 259.5,
      "duration": 0.25,
      "velocity": 0.61,
      "hand": "right"
    },
    {
      "midi": 80,
      "time": 259.5,
      "duration": 0.25,
      "velocity": 0.61,
      "hand": "right"
    },
    {
      "midi": 77,
      "time": 259.75,
      "duration": 0.25,
      "velocity": 0.61,
      "hand": "right"
    },
    {
      "midi": 70,
      "time": 260,
      "duration": 0.5,
      "velocity": 0.61,
      "hand": "right"
    },
    {
      "midi": 82,
      "time": 260,
      "duration": 0.5,
      "velocity": 0.61,
      "hand": "right"
    },
    {
      "midi": 43,
      "time": 260.25,
      "duration": 0.25,
      "velocity": 0.54,
      "hand": "left"
    },
    {
      "midi": 46,
      "time": 260.25,
      "duration": 0.25,
      "velocity": 0.54,
      "hand": "left"
    },
    {
      "midi": 51,
      "time": 260.25,
      "duration": 0.25,
      "velocity": 0.54,
      "hand": "left"
    },
    {
      "midi": 55,
      "time": 260.5,
      "duration": 0.25,
      "velocity": 0.54,
      "hand": "left"
    },
    {
      "midi": 70,
      "time": 260.5,
      "duration": 0.5,
      "velocity": 0.61,
      "hand": "right"
    },
    {
      "midi": 82,
      "time": 260.5,
      "duration": 0.5,
      "velocity": 0.61,
      "hand": "right"
    },
    {
      "midi": 55,
      "time": 260.75,
      "duration": 0.25,
      "velocity": 0.54,
      "hand": "left"
    },
    {
      "midi": 58,
      "time": 260.75,
      "duration": 0.25,
      "velocity": 0.54,
      "hand": "left"
    },
    {
      "midi": 63,
      "time": 260.75,
      "duration": 0.25,
      "velocity": 0.54,
      "hand": "right"
    },
    {
      "midi": 67,
      "time": 261,
      "duration": 0.25,
      "velocity": 0.54,
      "hand": "right"
    },
    {
      "midi": 70,
      "time": 261,
      "duration": 0.5,
      "velocity": 0.61,
      "hand": "right"
    },
    {
      "midi": 82,
      "time": 261,
      "duration": 0.5,
      "velocity": 0.61,
      "hand": "right"
    },
    {
      "midi": 55,
      "time": 261.25,
      "duration": 0.25,
      "velocity": 0.54,
      "hand": "left"
    },
    {
      "midi": 58,
      "time": 261.25,
      "duration": 0.25,
      "velocity": 0.54,
      "hand": "left"
    },
    {
      "midi": 63,
      "time": 261.25,
      "duration": 0.25,
      "velocity": 0.54,
      "hand": "right"
    },
    {
      "midi": 63,
      "time": 261.5,
      "duration": 0.25,
      "velocity": 0.68,
      "hand": "right"
    },
    {
      "midi": 67,
      "time": 261.5,
      "duration": 0.25,
      "velocity": 0.68,
      "hand": "right"
    },
    {
      "midi": 67,
      "time": 261.75,
      "duration": 0.25,
      "velocity": 0.68,
      "hand": "right"
    },
    {
      "midi": 70,
      "time": 261.75,
      "duration": 0.25,
      "velocity": 0.68,
      "hand": "right"
    },
    {
      "midi": 44,
      "time": 262,
      "duration": 1.25,
      "velocity": 0.71,
      "hand": "left"
    },
    {
      "midi": 68,
      "time": 262,
      "duration": 0.25,
      "velocity": 0.75,
      "hand": "right"
    },
    {
      "midi": 72,
      "time": 262,
      "duration": 0.5,
      "velocity": 0.68,
      "hand": "right"
    },
    {
      "midi": 50,
      "time": 262.25,
      "duration": 0.5,
      "velocity": 0.54,
      "hand": "left"
    },
    {
      "midi": 60,
      "time": 262.25,
      "duration": 0.25,
      "velocity": 0.75,
      "hand": "right"
    },
    {
      "midi": 65,
      "time": 262.25,
      "duration": 0.25,
      "velocity": 0.75,
      "hand": "right"
    },
    {
      "midi": 68,
      "time": 262.5,
      "duration": 0.25,
      "velocity": 0.75,
      "hand": "right"
    },
    {
      "midi": 72,
      "time": 262.5,
      "duration": 0.5,
      "velocity": 0.68,
      "hand": "right"
    },
    {
      "midi": 52,
      "time": 262.75,
      "duration": 0.25,
      "velocity": 0.54,
      "hand": "left"
    },
    {
      "midi": 60,
      "time": 262.75,
      "duration": 0.25,
      "velocity": 0.75,
      "hand": "right"
    },
    {
      "midi": 67,
      "time": 262.75,
      "duration": 0.25,
      "velocity": 0.75,
      "hand": "right"
    },
    {
      "midi": 53,
      "time": 263,
      "duration": 0.25,
      "velocity": 0.54,
      "hand": "left"
    },
    {
      "midi": 68,
      "time": 263,
      "duration": 0.25,
      "velocity": 0.75,
      "hand": "right"
    },
    {
      "midi": 72,
      "time": 263,
      "duration": 0.25,
      "velocity": 0.68,
      "hand": "right"
    },
    {
      "midi": 70,
      "time": 263.25,
      "duration": 0.25,
      "velocity": 0.68,
      "hand": "right"
    },
    {
      "midi": 67,
      "time": 263.5,
      "duration": 0.25,
      "velocity": 0.68,
      "hand": "right"
    },
    {
      "midi": 68,
      "time": 263.5,
      "duration": 0.25,
      "velocity": 0.68,
      "hand": "right"
    },
    {
      "midi": 65,
      "time": 263.75,
      "duration": 0.25,
      "velocity": 0.68,
      "hand": "right"
    },
    {
      "midi": 43,
      "time": 264,
      "duration": 1.25,
      "velocity": 0.71,
      "hand": "left"
    },
    {
      "midi": 67,
      "time": 264,
      "duration": 0.25,
      "velocity": 0.75,
      "hand": "right"
    },
    {
      "midi": 70,
      "time": 264,
      "duration": 0.5,
      "velocity": 0.68,
      "hand": "right"
    },
    {
      "midi": 48,
      "time": 264.25,
      "duration": 0.5,
      "velocity": 0.54,
      "hand": "left"
    },
    {
      "midi": 58,
      "time": 264.25,
      "duration": 0.25,
      "velocity": 0.75,
      "hand": "left"
    },
    {
      "midi": 63,
      "time": 264.25,
      "duration": 0.25,
      "velocity": 0.75,
      "hand": "right"
    },
    {
      "midi": 67,
      "time": 264.5,
      "duration": 0.25,
      "velocity": 0.75,
      "hand": "right"
    },
    {
      "midi": 70,
      "time": 264.5,
      "duration": 0.5,
      "velocity": 0.68,
      "hand": "right"
    },
    {
      "midi": 50,
      "time": 264.75,
      "duration": 0.25,
      "velocity": 0.54,
      "hand": "left"
    },
    {
      "midi": 58,
      "time": 264.75,
      "duration": 0.25,
      "velocity": 0.75,
      "hand": "left"
    },
    {
      "midi": 65,
      "time": 264.75,
      "duration": 0.25,
      "velocity": 0.75,
      "hand": "right"
    },
    {
      "midi": 51,
      "time": 265,
      "duration": 0.25,
      "velocity": 0.54,
      "hand": "left"
    },
    {
      "midi": 67,
      "time": 265,
      "duration": 0.25,
      "velocity": 0.75,
      "hand": "right"
    },
    {
      "midi": 70,
      "time": 265,
      "duration": 0.25,
      "velocity": 0.68,
      "hand": "right"
    },
    {
      "midi": 66,
      "time": 265.25,
      "duration": 0.25,
      "velocity": 0.75,
      "hand": "right"
    },
    {
      "midi": 67,
      "time": 265.25,
      "duration": 0.25,
      "velocity": 0.75,
      "hand": "right"
    },
    {
      "midi": 70,
      "time": 265.5,
      "duration": 0.25,
      "velocity": 0.75,
      "hand": "right"
    },
    {
      "midi": 75,
      "time": 265.5,
      "duration": 0.25,
      "velocity": 0.75,
      "hand": "right"
    },
    {
      "midi": 74,
      "time": 265.75,
      "duration": 0.25,
      "velocity": 0.75,
      "hand": "right"
    },
    {
      "midi": 44,
      "time": 266,
      "duration": 1.25,
      "velocity": 0.71,
      "hand": "left"
    },
    {
      "midi": 68,
      "time": 266,
      "duration": 0.25,
      "velocity": 0.75,
      "hand": "right"
    },
    {
      "midi": 72,
      "time": 266,
      "duration": 0.5,
      "velocity": 0.68,
      "hand": "right"
    },
    {
      "midi": 50,
      "time": 266.25,
      "duration": 0.5,
      "velocity": 0.54,
      "hand": "left"
    },
    {
      "midi": 60,
      "time": 266.25,
      "duration": 0.25,
      "velocity": 0.75,
      "hand": "right"
    },
    {
      "midi": 65,
      "time": 266.25,
      "duration": 0.25,
      "velocity": 0.75,
      "hand": "right"
    },
    {
      "midi": 68,
      "time": 266.5,
      "duration": 0.25,
      "velocity": 0.75,
      "hand": "right"
    },
    {
      "midi": 72,
      "time": 266.5,
      "duration": 0.5,
      "velocity": 0.68,
      "hand": "right"
    },
    {
      "midi": 52,
      "time": 266.75,
      "duration": 0.25,
      "velocity": 0.54,
      "hand": "left"
    },
    {
      "midi": 60,
      "time": 266.75,
      "duration": 0.25,
      "velocity": 0.75,
      "hand": "right"
    },
    {
      "midi": 67,
      "time": 266.75,
      "duration": 0.25,
      "velocity": 0.75,
      "hand": "right"
    },
    {
      "midi": 53,
      "time": 267,
      "duration": 0.25,
      "velocity": 0.54,
      "hand": "left"
    },
    {
      "midi": 68,
      "time": 267,
      "duration": 0.25,
      "velocity": 0.75,
      "hand": "right"
    },
    {
      "midi": 72,
      "time": 267,
      "duration": 0.25,
      "velocity": 0.68,
      "hand": "right"
    },
    {
      "midi": 70,
      "time": 267.25,
      "duration": 0.25,
      "velocity": 0.68,
      "hand": "right"
    },
    {
      "midi": 67,
      "time": 267.5,
      "duration": 0.25,
      "velocity": 0.68,
      "hand": "right"
    },
    {
      "midi": 68,
      "time": 267.5,
      "duration": 0.25,
      "velocity": 0.68,
      "hand": "right"
    },
    {
      "midi": 65,
      "time": 267.75,
      "duration": 0.25,
      "velocity": 0.68,
      "hand": "right"
    },
    {
      "midi": 43,
      "time": 268,
      "duration": 1.25,
      "velocity": 0.71,
      "hand": "left"
    },
    {
      "midi": 67,
      "time": 268,
      "duration": 0.25,
      "velocity": 0.75,
      "hand": "right"
    },
    {
      "midi": 70,
      "time": 268,
      "duration": 0.5,
      "velocity": 0.68,
      "hand": "right"
    },
    {
      "midi": 48,
      "time": 268.25,
      "duration": 0.5,
      "velocity": 0.54,
      "hand": "left"
    },
    {
      "midi": 58,
      "time": 268.25,
      "duration": 0.25,
      "velocity": 0.75,
      "hand": "left"
    },
    {
      "midi": 63,
      "time": 268.25,
      "duration": 0.25,
      "velocity": 0.75,
      "hand": "right"
    },
    {
      "midi": 67,
      "time": 268.5,
      "duration": 0.25,
      "velocity": 0.75,
      "hand": "right"
    },
    {
      "midi": 70,
      "time": 268.5,
      "duration": 0.5,
      "velocity": 0.68,
      "hand": "right"
    },
    {
      "midi": 50,
      "time": 268.75,
      "duration": 0.25,
      "velocity": 0.54,
      "hand": "left"
    },
    {
      "midi": 58,
      "time": 268.75,
      "duration": 0.25,
      "velocity": 0.75,
      "hand": "left"
    },
    {
      "midi": 65,
      "time": 268.75,
      "duration": 0.25,
      "velocity": 0.75,
      "hand": "right"
    },
    {
      "midi": 51,
      "time": 269,
      "duration": 0.25,
      "velocity": 0.54,
      "hand": "left"
    },
    {
      "midi": 67,
      "time": 269,
      "duration": 0.25,
      "velocity": 0.75,
      "hand": "right"
    },
    {
      "midi": 70,
      "time": 269,
      "duration": 0.25,
      "velocity": 0.68,
      "hand": "right"
    },
    {
      "midi": 63,
      "time": 269.25,
      "duration": 0.25,
      "velocity": 0.75,
      "hand": "right"
    },
    {
      "midi": 65,
      "time": 269.25,
      "duration": 0.25,
      "velocity": 0.75,
      "hand": "right"
    },
    {
      "midi": 55,
      "time": 269.5,
      "duration": 0.25,
      "velocity": 0.54,
      "hand": "left"
    },
    {
      "midi": 62,
      "time": 269.5,
      "duration": 0.25,
      "velocity": 0.75,
      "hand": "right"
    },
    {
      "midi": 63,
      "time": 269.5,
      "duration": 0.5,
      "velocity": 0.75,
      "hand": "right"
    },
    {
      "midi": 58,
      "time": 269.75,
      "duration": 0.25,
      "velocity": 0.54,
      "hand": "left"
    },
    {
      "midi": 60,
      "time": 270,
      "duration": 0.5,
      "velocity": 0.54,
      "hand": "right"
    },
    {
      "midi": 44,
      "time": 270.25,
      "duration": 0.25,
      "velocity": 0.71,
      "hand": "left"
    },
    {
      "midi": 51,
      "time": 270.25,
      "duration": 0.25,
      "velocity": 0.71,
      "hand": "left"
    },
    {
      "midi": 65,
      "time": 270.25,
      "duration": 0.25,
      "velocity": 0.68,
      "hand": "right"
    },
    {
      "midi": 71,
      "time": 270.25,
      "duration": 0.125,
      "velocity": 0.68,
      "hand": "right"
    },
    {
      "midi": 72,
      "time": 270.25,
      "duration": 0.25,
      "velocity": 0.68,
      "hand": "right"
    },
    {
      "midi": 60,
      "time": 270.5,
      "duration": 0.5,
      "velocity": 0.54,
      "hand": "right"
    },
    {
      "midi": 44,
      "time": 270.75,
      "duration": 0.25,
      "velocity": 0.71,
      "hand": "left"
    },
    {
      "midi": 51,
      "time": 270.75,
      "duration": 0.25,
      "velocity": 0.71,
      "hand": "left"
    },
    {
      "midi": 77,
      "time": 270.75,
      "duration": 0.25,
      "velocity": 0.68,
      "hand": "right"
    },
    {
      "midi": 83,
      "time": 270.75,
      "duration": 0.125,
      "velocity": 0.68,
      "hand": "right"
    },
    {
      "midi": 84,
      "time": 270.75,
      "duration": 0.25,
      "velocity": 0.68,
      "hand": "right"
    },
    {
      "midi": 60,
      "time": 271,
      "duration": 0.5,
      "velocity": 0.54,
      "hand": "right"
    },
    {
      "midi": 44,
      "time": 271.25,
      "duration": 0.25,
      "velocity": 0.71,
      "hand": "left"
    },
    {
      "midi": 51,
      "time": 271.25,
      "duration": 0.25,
      "velocity": 0.71,
      "hand": "left"
    },
    {
      "midi": 89,
      "time": 271.25,
      "duration": 0.25,
      "velocity": 0.68,
      "hand": "right"
    },
    {
      "midi": 95,
      "time": 271.25,
      "duration": 0.125,
      "velocity": 0.68,
      "hand": "right"
    },
    {
      "midi": 96,
      "time": 271.25,
      "duration": 0.25,
      "velocity": 0.68,
      "hand": "right"
    },
    {
      "midi": 58,
      "time": 271.5,
      "duration": 0.25,
      "velocity": 0.54,
      "hand": "left"
    },
    {
      "midi": 55,
      "time": 271.75,
      "duration": 0.25,
      "velocity": 0.54,
      "hand": "left"
    },
    {
      "midi": 56,
      "time": 271.75,
      "duration": 0.25,
      "velocity": 0.54,
      "hand": "left"
    },
    {
      "midi": 53,
      "time": 272,
      "duration": 0.25,
      "velocity": 0.54,
      "hand": "left"
    },
    {
      "midi": 58,
      "time": 272,
      "duration": 0.5,
      "velocity": 0.54,
      "hand": "left"
    },
    {
      "midi": 43,
      "time": 272.25,
      "duration": 0.25,
      "velocity": 0.71,
      "hand": "left"
    },
    {
      "midi": 51,
      "time": 272.25,
      "duration": 0.25,
      "velocity": 0.71,
      "hand": "left"
    },
    {
      "midi": 70,
      "time": 272.25,
      "duration": 0.25,
      "velocity": 0.68,
      "hand": "right"
    },
    {
      "midi": 74,
      "time": 272.25,
      "duration": 0.125,
      "velocity": 0.68,
      "hand": "right"
    },
    {
      "midi": 75,
      "time": 272.25,
      "duration": 0.25,
      "velocity": 0.68,
      "hand": "right"
    },
    {
      "midi": 58,
      "time": 272.5,
      "duration": 0.5,
      "velocity": 0.54,
      "hand": "left"
    },
    {
      "midi": 43,
      "time": 272.75,
      "duration": 0.25,
      "velocity": 0.71,
      "hand": "left"
    },
    {
      "midi": 51,
      "time": 272.75,
      "duration": 0.25,
      "velocity": 0.71,
      "hand": "left"
    },
    {
      "midi": 82,
      "time": 272.75,
      "duration": 0.25,
      "velocity": 0.68,
      "hand": "right"
    },
    {
      "midi": 86,
      "time": 272.75,
      "duration": 0.125,
      "velocity": 0.68,
      "hand": "right"
    },
    {
      "midi": 87,
      "time": 272.75,
      "duration": 0.25,
      "velocity": 0.68,
      "hand": "right"
    },
    {
      "midi": 58,
      "time": 273,
      "duration": 0.5,
      "velocity": 0.54,
      "hand": "left"
    },
    {
      "midi": 43,
      "time": 273.25,
      "duration": 0.25,
      "velocity": 0.71,
      "hand": "left"
    },
    {
      "midi": 51,
      "time": 273.25,
      "duration": 0.25,
      "velocity": 0.71,
      "hand": "left"
    },
    {
      "midi": 94,
      "time": 273.25,
      "duration": 0.25,
      "velocity": 0.68,
      "hand": "right"
    },
    {
      "midi": 98,
      "time": 273.25,
      "duration": 0.125,
      "velocity": 0.68,
      "hand": "right"
    },
    {
      "midi": 99,
      "time": 273.25,
      "duration": 0.25,
      "velocity": 0.68,
      "hand": "right"
    },
    {
      "midi": 63,
      "time": 273.5,
      "duration": 0.25,
      "velocity": 0.54,
      "hand": "right"
    },
    {
      "midi": 62,
      "time": 273.75,
      "duration": 0.25,
      "velocity": 0.54,
      "hand": "right"
    },
    {
      "midi": 60,
      "time": 274,
      "duration": 0.5,
      "velocity": 0.54,
      "hand": "right"
    },
    {
      "midi": 44,
      "time": 274.25,
      "duration": 0.25,
      "velocity": 0.71,
      "hand": "left"
    },
    {
      "midi": 51,
      "time": 274.25,
      "duration": 0.25,
      "velocity": 0.71,
      "hand": "left"
    },
    {
      "midi": 65,
      "time": 274.25,
      "duration": 0.25,
      "velocity": 0.68,
      "hand": "right"
    },
    {
      "midi": 71,
      "time": 274.25,
      "duration": 0.125,
      "velocity": 0.68,
      "hand": "right"
    },
    {
      "midi": 72,
      "time": 274.25,
      "duration": 0.25,
      "velocity": 0.68,
      "hand": "right"
    },
    {
      "midi": 60,
      "time": 274.5,
      "duration": 0.5,
      "velocity": 0.54,
      "hand": "right"
    },
    {
      "midi": 44,
      "time": 274.75,
      "duration": 0.25,
      "velocity": 0.71,
      "hand": "left"
    },
    {
      "midi": 51,
      "time": 274.75,
      "duration": 0.25,
      "velocity": 0.71,
      "hand": "left"
    },
    {
      "midi": 77,
      "time": 274.75,
      "duration": 0.25,
      "velocity": 0.68,
      "hand": "right"
    },
    {
      "midi": 83,
      "time": 274.75,
      "duration": 0.125,
      "velocity": 0.68,
      "hand": "right"
    },
    {
      "midi": 84,
      "time": 274.75,
      "duration": 0.25,
      "velocity": 0.68,
      "hand": "right"
    },
    {
      "midi": 60,
      "time": 275,
      "duration": 0.5,
      "velocity": 0.54,
      "hand": "right"
    },
    {
      "midi": 44,
      "time": 275.25,
      "duration": 0.25,
      "velocity": 0.71,
      "hand": "left"
    },
    {
      "midi": 51,
      "time": 275.25,
      "duration": 0.25,
      "velocity": 0.71,
      "hand": "left"
    },
    {
      "midi": 89,
      "time": 275.25,
      "duration": 0.25,
      "velocity": 0.68,
      "hand": "right"
    },
    {
      "midi": 95,
      "time": 275.25,
      "duration": 0.125,
      "velocity": 0.68,
      "hand": "right"
    },
    {
      "midi": 96,
      "time": 275.25,
      "duration": 0.25,
      "velocity": 0.68,
      "hand": "right"
    },
    {
      "midi": 58,
      "time": 275.5,
      "duration": 0.25,
      "velocity": 0.54,
      "hand": "left"
    },
    {
      "midi": 55,
      "time": 275.75,
      "duration": 0.25,
      "velocity": 0.54,
      "hand": "left"
    },
    {
      "midi": 56,
      "time": 275.75,
      "duration": 0.25,
      "velocity": 0.54,
      "hand": "left"
    },
    {
      "midi": 53,
      "time": 276,
      "duration": 0.25,
      "velocity": 0.54,
      "hand": "left"
    },
    {
      "midi": 58,
      "time": 276,
      "duration": 0.5,
      "velocity": 0.54,
      "hand": "left"
    },
    {
      "midi": 43,
      "time": 276.25,
      "duration": 0.25,
      "velocity": 0.71,
      "hand": "left"
    },
    {
      "midi": 51,
      "time": 276.25,
      "duration": 0.25,
      "velocity": 0.71,
      "hand": "left"
    },
    {
      "midi": 70,
      "time": 276.25,
      "duration": 0.25,
      "velocity": 0.68,
      "hand": "right"
    },
    {
      "midi": 74,
      "time": 276.25,
      "duration": 0.125,
      "velocity": 0.68,
      "hand": "right"
    },
    {
      "midi": 75,
      "time": 276.25,
      "duration": 0.25,
      "velocity": 0.68,
      "hand": "right"
    },
    {
      "midi": 58,
      "time": 276.5,
      "duration": 0.5,
      "velocity": 0.54,
      "hand": "left"
    },
    {
      "midi": 43,
      "time": 276.75,
      "duration": 0.25,
      "velocity": 0.71,
      "hand": "left"
    },
    {
      "midi": 51,
      "time": 276.75,
      "duration": 0.25,
      "velocity": 0.71,
      "hand": "left"
    },
    {
      "midi": 82,
      "time": 276.75,
      "duration": 0.25,
      "velocity": 0.68,
      "hand": "right"
    },
    {
      "midi": 86,
      "time": 276.75,
      "duration": 0.125,
      "velocity": 0.68,
      "hand": "right"
    },
    {
      "midi": 87,
      "time": 276.75,
      "duration": 0.25,
      "velocity": 0.68,
      "hand": "right"
    },
    {
      "midi": 58,
      "time": 277,
      "duration": 0.5,
      "velocity": 0.54,
      "hand": "left"
    },
    {
      "midi": 43,
      "time": 277.25,
      "duration": 0.25,
      "velocity": 0.71,
      "hand": "left"
    },
    {
      "midi": 51,
      "time": 277.25,
      "duration": 0.25,
      "velocity": 0.71,
      "hand": "left"
    },
    {
      "midi": 94,
      "time": 277.25,
      "duration": 0.25,
      "velocity": 0.68,
      "hand": "right"
    },
    {
      "midi": 98,
      "time": 277.25,
      "duration": 0.125,
      "velocity": 0.68,
      "hand": "right"
    },
    {
      "midi": 99,
      "time": 277.25,
      "duration": 0.25,
      "velocity": 0.68,
      "hand": "right"
    },
    {
      "midi": 63,
      "time": 277.5,
      "duration": 0.25,
      "velocity": 0.54,
      "hand": "right"
    },
    {
      "midi": 86,
      "time": 277.5,
      "duration": 0.25,
      "velocity": 0.68,
      "hand": "right"
    },
    {
      "midi": 62,
      "time": 277.75,
      "duration": 0.25,
      "velocity": 0.54,
      "hand": "right"
    },
    {
      "midi": 87,
      "time": 277.75,
      "duration": 0.25,
      "velocity": 0.68,
      "hand": "right"
    },
    {
      "midi": 91,
      "time": 277.75,
      "duration": 0.25,
      "velocity": 0.68,
      "hand": "right"
    },
    {
      "midi": 44,
      "time": 278,
      "duration": 0.25,
      "velocity": 0.54,
      "hand": "left"
    },
    {
      "midi": 50,
      "time": 278,
      "duration": 0.25,
      "velocity": 0.54,
      "hand": "left"
    },
    {
      "midi": 94,
      "time": 278,
      "duration": 0.25,
      "velocity": 0.68,
      "hand": "right"
    },
    {
      "midi": 96,
      "time": 278,
      "duration": 0.25,
      "velocity": 0.68,
      "hand": "right"
    },
    {
      "midi": 51,
      "time": 278.25,
      "duration": 0.25,
      "velocity": 0.54,
      "hand": "left"
    },
    {
      "midi": 91,
      "time": 278.25,
      "duration": 0.25,
      "velocity": 0.68,
      "hand": "right"
    },
    {
      "midi": 92,
      "time": 278.25,
      "duration": 0.25,
      "velocity": 0.68,
      "hand": "right"
    },
    {
      "midi": 52,
      "time": 278.5,
      "duration": 0.25,
      "velocity": 0.54,
      "hand": "left"
    },
    {
      "midi": 84,
      "time": 278.5,
      "duration": 0.25,
      "velocity": 0.68,
      "hand": "right"
    },
    {
      "midi": 89,
      "time": 278.5,
      "duration": 0.25,
      "velocity": 0.68,
      "hand": "right"
    },
    {
      "midi": 53,
      "time": 278.75,
      "duration": 0.25,
      "velocity": 0.54,
      "hand": "left"
    },
    {
      "midi": 79,
      "time": 278.75,
      "duration": 0.25,
      "velocity": 0.68,
      "hand": "right"
    },
    {
      "midi": 80,
      "time": 278.75,
      "duration": 0.25,
      "velocity": 0.68,
      "hand": "right"
    },
    {
      "midi": 55,
      "time": 279,
      "duration": 0.25,
      "velocity": 0.54,
      "hand": "left"
    },
    {
      "midi": 72,
      "time": 279,
      "duration": 0.25,
      "velocity": 0.68,
      "hand": "right"
    },
    {
      "midi": 77,
      "time": 279,
      "duration": 0.25,
      "velocity": 0.68,
      "hand": "right"
    },
    {
      "midi": 56,
      "time": 279.25,
      "duration": 0.25,
      "velocity": 0.54,
      "hand": "left"
    },
    {
      "midi": 67,
      "time": 279.25,
      "duration": 0.25,
      "velocity": 0.68,
      "hand": "right"
    },
    {
      "midi": 68,
      "time": 279.25,
      "duration": 0.25,
      "velocity": 0.68,
      "hand": "right"
    },
    {
      "midi": 60,
      "time": 279.5,
      "duration": 0.25,
      "velocity": 0.54,
      "hand": "right"
    },
    {
      "midi": 65,
      "time": 279.5,
      "duration": 0.25,
      "velocity": 0.68,
      "hand": "right"
    },
    {
      "midi": 88,
      "time": 279.75,
      "duration": 0.25,
      "velocity": 0.68,
      "hand": "right"
    },
    {
      "midi": 89,
      "time": 279.75,
      "duration": 0.25,
      "velocity": 0.68,
      "hand": "right"
    },
    {
      "midi": 43,
      "time": 280,
      "duration": 0.25,
      "velocity": 0.54,
      "hand": "left"
    },
    {
      "midi": 50,
      "time": 280,
      "duration": 0.25,
      "velocity": 0.54,
      "hand": "left"
    },
    {
      "midi": 91,
      "time": 280,
      "duration": 0.25,
      "velocity": 0.68,
      "hand": "right"
    },
    {
      "midi": 94,
      "time": 280,
      "duration": 0.25,
      "velocity": 0.68,
      "hand": "right"
    },
    {
      "midi": 51,
      "time": 280.25,
      "duration": 0.25,
      "velocity": 0.54,
      "hand": "left"
    },
    {
      "midi": 89,
      "time": 280.25,
      "duration": 0.25,
      "velocity": 0.68,
      "hand": "right"
    },
    {
      "midi": 91,
      "time": 280.25,
      "duration": 0.25,
      "velocity": 0.68,
      "hand": "right"
    },
    {
      "midi": 54,
      "time": 280.5,
      "duration": 0.25,
      "velocity": 0.54,
      "hand": "left"
    },
    {
      "midi": 82,
      "time": 280.5,
      "duration": 0.25,
      "velocity": 0.68,
      "hand": "right"
    },
    {
      "midi": 87,
      "time": 280.5,
      "duration": 0.25,
      "velocity": 0.68,
      "hand": "right"
    },
    {
      "midi": 55,
      "time": 280.75,
      "duration": 0.25,
      "velocity": 0.54,
      "hand": "left"
    },
    {
      "midi": 77,
      "time": 280.75,
      "duration": 0.25,
      "velocity": 0.68,
      "hand": "right"
    },
    {
      "midi": 79,
      "time": 280.75,
      "duration": 0.25,
      "velocity": 0.68,
      "hand": "right"
    },
    {
      "midi": 57,
      "time": 281,
      "duration": 0.25,
      "velocity": 0.54,
      "hand": "left"
    },
    {
      "midi": 70,
      "time": 281,
      "duration": 0.25,
      "velocity": 0.68,
      "hand": "right"
    },
    {
      "midi": 75,
      "time": 281,
      "duration": 0.25,
      "velocity": 0.68,
      "hand": "right"
    },
    {
      "midi": 58,
      "time": 281.25,
      "duration": 0.25,
      "velocity": 0.54,
      "hand": "left"
    },
    {
      "midi": 65,
      "time": 281.25,
      "duration": 0.25,
      "velocity": 0.68,
      "hand": "right"
    },
    {
      "midi": 67,
      "time": 281.25,
      "duration": 0.25,
      "velocity": 0.68,
      "hand": "right"
    },
    {
      "midi": 63,
      "time": 281.5,
      "duration": 0.25,
      "velocity": 0.68,
      "hand": "right"
    },
    {
      "midi": 91,
      "time": 281.75,
      "duration": 0.25,
      "velocity": 0.68,
      "hand": "right"
    },
    {
      "midi": 92,
      "time": 281.75,
      "duration": 0.25,
      "velocity": 0.68,
      "hand": "right"
    },
    {
      "midi": 44,
      "time": 282,
      "duration": 0.25,
      "velocity": 0.54,
      "hand": "left"
    },
    {
      "midi": 50,
      "time": 282,
      "duration": 0.25,
      "velocity": 0.54,
      "hand": "left"
    },
    {
      "midi": 94,
      "time": 282,
      "duration": 0.25,
      "velocity": 0.68,
      "hand": "right"
    },
    {
      "midi": 96,
      "time": 282,
      "duration": 0.25,
      "velocity": 0.68,
      "hand": "right"
    },
    {
      "midi": 51,
      "time": 282.25,
      "duration": 0.25,
      "velocity": 0.54,
      "hand": "left"
    },
    {
      "midi": 91,
      "time": 282.25,
      "duration": 0.25,
      "velocity": 0.68,
      "hand": "right"
    },
    {
      "midi": 92,
      "time": 282.25,
      "duration": 0.25,
      "velocity": 0.68,
      "hand": "right"
    },
    {
      "midi": 52,
      "time": 282.5,
      "duration": 0.25,
      "velocity": 0.54,
      "hand": "left"
    },
    {
      "midi": 84,
      "time": 282.5,
      "duration": 0.25,
      "velocity": 0.68,
      "hand": "right"
    },
    {
      "midi": 89,
      "time": 282.5,
      "duration": 0.25,
      "velocity": 0.68,
      "hand": "right"
    },
    {
      "midi": 53,
      "time": 282.75,
      "duration": 0.25,
      "velocity": 0.54,
      "hand": "left"
    },
    {
      "midi": 79,
      "time": 282.75,
      "duration": 0.25,
      "velocity": 0.68,
      "hand": "right"
    },
    {
      "midi": 80,
      "time": 282.75,
      "duration": 0.25,
      "velocity": 0.68,
      "hand": "right"
    },
    {
      "midi": 55,
      "time": 283,
      "duration": 0.25,
      "velocity": 0.54,
      "hand": "left"
    },
    {
      "midi": 72,
      "time": 283,
      "duration": 0.25,
      "velocity": 0.68,
      "hand": "right"
    },
    {
      "midi": 77,
      "time": 283,
      "duration": 0.25,
      "velocity": 0.68,
      "hand": "right"
    },
    {
      "midi": 56,
      "time": 283.25,
      "duration": 0.25,
      "velocity": 0.54,
      "hand": "left"
    },
    {
      "midi": 67,
      "time": 283.25,
      "duration": 0.25,
      "velocity": 0.68,
      "hand": "right"
    },
    {
      "midi": 68,
      "time": 283.25,
      "duration": 0.25,
      "velocity": 0.68,
      "hand": "right"
    },
    {
      "midi": 60,
      "time": 283.5,
      "duration": 0.25,
      "velocity": 0.54,
      "hand": "right"
    },
    {
      "midi": 65,
      "time": 283.5,
      "duration": 0.25,
      "velocity": 0.68,
      "hand": "right"
    },
    {
      "midi": 88,
      "time": 283.75,
      "duration": 0.25,
      "velocity": 0.68,
      "hand": "right"
    },
    {
      "midi": 89,
      "time": 283.75,
      "duration": 0.25,
      "velocity": 0.68,
      "hand": "right"
    },
    {
      "midi": 43,
      "time": 284,
      "duration": 0.25,
      "velocity": 0.54,
      "hand": "left"
    },
    {
      "midi": 50,
      "time": 284,
      "duration": 0.25,
      "velocity": 0.54,
      "hand": "left"
    },
    {
      "midi": 91,
      "time": 284,
      "duration": 0.25,
      "velocity": 0.68,
      "hand": "right"
    },
    {
      "midi": 94,
      "time": 284,
      "duration": 0.25,
      "velocity": 0.68,
      "hand": "right"
    },
    {
      "midi": 51,
      "time": 284.25,
      "duration": 0.25,
      "velocity": 0.54,
      "hand": "left"
    },
    {
      "midi": 89,
      "time": 284.25,
      "duration": 0.25,
      "velocity": 0.68,
      "hand": "right"
    },
    {
      "midi": 91,
      "time": 284.25,
      "duration": 0.25,
      "velocity": 0.68,
      "hand": "right"
    },
    {
      "midi": 54,
      "time": 284.5,
      "duration": 0.25,
      "velocity": 0.54,
      "hand": "left"
    },
    {
      "midi": 82,
      "time": 284.5,
      "duration": 0.25,
      "velocity": 0.68,
      "hand": "right"
    },
    {
      "midi": 87,
      "time": 284.5,
      "duration": 0.25,
      "velocity": 0.68,
      "hand": "right"
    },
    {
      "midi": 55,
      "time": 284.75,
      "duration": 0.25,
      "velocity": 0.54,
      "hand": "left"
    },
    {
      "midi": 77,
      "time": 284.75,
      "duration": 0.25,
      "velocity": 0.68,
      "hand": "right"
    },
    {
      "midi": 79,
      "time": 284.75,
      "duration": 0.25,
      "velocity": 0.68,
      "hand": "right"
    },
    {
      "midi": 57,
      "time": 285,
      "duration": 0.25,
      "velocity": 0.54,
      "hand": "left"
    },
    {
      "midi": 70,
      "time": 285,
      "duration": 0.25,
      "velocity": 0.68,
      "hand": "right"
    },
    {
      "midi": 75,
      "time": 285,
      "duration": 0.25,
      "velocity": 0.68,
      "hand": "right"
    },
    {
      "midi": 58,
      "time": 285.25,
      "duration": 0.25,
      "velocity": 0.54,
      "hand": "left"
    },
    {
      "midi": 65,
      "time": 285.25,
      "duration": 0.25,
      "velocity": 0.68,
      "hand": "right"
    },
    {
      "midi": 67,
      "time": 285.25,
      "duration": 0.25,
      "velocity": 0.68,
      "hand": "right"
    },
    {
      "midi": 63,
      "time": 285.5,
      "duration": 0.25,
      "velocity": 0.68,
      "hand": "right"
    },
    {
      "midi": 58,
      "time": 285.75,
      "duration": 0.25,
      "velocity": 0.54,
      "hand": "left"
    },
    {
      "midi": 67,
      "time": 285.75,
      "duration": 0.25,
      "velocity": 0.54,
      "hand": "right"
    },
    {
      "midi": 44,
      "time": 286,
      "duration": 0.25,
      "velocity": 0.71,
      "hand": "left"
    },
    {
      "midi": 51,
      "time": 286,
      "duration": 0.25,
      "velocity": 0.54,
      "hand": "left"
    },
    {
      "midi": 66,
      "time": 286,
      "duration": 0.25,
      "velocity": 0.54,
      "hand": "right"
    },
    {
      "midi": 52,
      "time": 286.25,
      "duration": 0.25,
      "velocity": 0.55,
      "hand": "left"
    },
    {
      "midi": 60,
      "time": 286.25,
      "duration": 0.25,
      "velocity": 0.54,
      "hand": "right"
    },
    {
      "midi": 67,
      "time": 286.25,
      "duration": 0.25,
      "velocity": 0.54,
      "hand": "right"
    },
    {
      "midi": 72,
      "time": 286.25,
      "duration": 0.25,
      "velocity": 0.54,
      "hand": "right"
    },
    {
      "midi": 44,
      "time": 286.5,
      "duration": 0.25,
      "velocity": 0.71,
      "hand": "left"
    },
    {
      "midi": 51,
      "time": 286.5,
      "duration": 0.25,
      "velocity": 0.56,
      "hand": "left"
    },
    {
      "midi": 66,
      "time": 286.5,
      "duration": 0.25,
      "velocity": 0.54,
      "hand": "right"
    },
    {
      "midi": 52,
      "time": 286.75,
      "duration": 0.25,
      "velocity": 0.57,
      "hand": "left"
    },
    {
      "midi": 60,
      "time": 286.75,
      "duration": 0.25,
      "velocity": 0.54,
      "hand": "right"
    },
    {
      "midi": 67,
      "time": 286.75,
      "duration": 0.25,
      "velocity": 0.54,
      "hand": "right"
    },
    {
      "midi": 72,
      "time": 286.75,
      "duration": 0.25,
      "velocity": 0.54,
      "hand": "right"
    },
    {
      "midi": 44,
      "time": 287,
      "duration": 0.25,
      "velocity": 0.71,
      "hand": "left"
    },
    {
      "midi": 51,
      "time": 287,
      "duration": 0.25,
      "velocity": 0.57,
      "hand": "left"
    },
    {
      "midi": 66,
      "time": 287,
      "duration": 0.25,
      "velocity": 0.54,
      "hand": "right"
    },
    {
      "midi": 52,
      "time": 287.25,
      "duration": 0.25,
      "velocity": 0.58,
      "hand": "left"
    },
    {
      "midi": 60,
      "time": 287.25,
      "duration": 0.25,
      "velocity": 0.54,
      "hand": "right"
    },
    {
      "midi": 67,
      "time": 287.25,
      "duration": 0.25,
      "velocity": 0.54,
      "hand": "right"
    },
    {
      "midi": 72,
      "time": 287.25,
      "duration": 0.25,
      "velocity": 0.54,
      "hand": "right"
    },
    {
      "midi": 44,
      "time": 287.5,
      "duration": 0.25,
      "velocity": 0.71,
      "hand": "left"
    },
    {
      "midi": 49,
      "time": 287.5,
      "duration": 0.25,
      "velocity": 0.59,
      "hand": "left"
    },
    {
      "midi": 64,
      "time": 287.5,
      "duration": 0.25,
      "velocity": 0.54,
      "hand": "right"
    },
    {
      "midi": 50,
      "time": 287.75,
      "duration": 0.25,
      "velocity": 0.6,
      "hand": "left"
    },
    {
      "midi": 58,
      "time": 287.75,
      "duration": 0.25,
      "velocity": 0.54,
      "hand": "left"
    },
    {
      "midi": 65,
      "time": 287.75,
      "duration": 0.25,
      "velocity": 0.54,
      "hand": "right"
    },
    {
      "midi": 70,
      "time": 287.75,
      "duration": 0.25,
      "velocity": 0.54,
      "hand": "right"
    },
    {
      "midi": 43,
      "time": 288,
      "duration": 0.25,
      "velocity": 0.71,
      "hand": "left"
    },
    {
      "midi": 50,
      "time": 288,
      "duration": 0.25,
      "velocity": 0.61,
      "hand": "left"
    },
    {
      "midi": 65,
      "time": 288,
      "duration": 0.25,
      "velocity": 0.54,
      "hand": "right"
    },
    {
      "midi": 51,
      "time": 288.25,
      "duration": 0.25,
      "velocity": 0.61,
      "hand": "left"
    },
    {
      "midi": 58,
      "time": 288.25,
      "duration": 0.25,
      "velocity": 0.54,
      "hand": "left"
    },
    {
      "midi": 67,
      "time": 288.25,
      "duration": 0.25,
      "velocity": 0.54,
      "hand": "right"
    },
    {
      "midi": 70,
      "time": 288.25,
      "duration": 0.25,
      "velocity": 0.54,
      "hand": "right"
    },
    {
      "midi": 43,
      "time": 288.5,
      "duration": 0.25,
      "velocity": 0.71,
      "hand": "left"
    },
    {
      "midi": 50,
      "time": 288.5,
      "duration": 0.25,
      "velocity": 0.62,
      "hand": "left"
    },
    {
      "midi": 65,
      "time": 288.5,
      "duration": 0.25,
      "velocity": 0.54,
      "hand": "right"
    },
    {
      "midi": 51,
      "time": 288.75,
      "duration": 0.25,
      "velocity": 0.63,
      "hand": "left"
    },
    {
      "midi": 58,
      "time": 288.75,
      "duration": 0.25,
      "velocity": 0.54,
      "hand": "left"
    },
    {
      "midi": 67,
      "time": 288.75,
      "duration": 0.25,
      "velocity": 0.54,
      "hand": "right"
    },
    {
      "midi": 70,
      "time": 288.75,
      "duration": 0.25,
      "velocity": 0.54,
      "hand": "right"
    },
    {
      "midi": 43,
      "time": 289,
      "duration": 0.25,
      "velocity": 0.71,
      "hand": "left"
    },
    {
      "midi": 50,
      "time": 289,
      "duration": 0.25,
      "velocity": 0.64,
      "hand": "left"
    },
    {
      "midi": 65,
      "time": 289,
      "duration": 0.25,
      "velocity": 0.54,
      "hand": "right"
    },
    {
      "midi": 51,
      "time": 289.25,
      "duration": 0.25,
      "velocity": 0.65,
      "hand": "left"
    },
    {
      "midi": 58,
      "time": 289.25,
      "duration": 0.25,
      "velocity": 0.54,
      "hand": "left"
    },
    {
      "midi": 67,
      "time": 289.25,
      "duration": 0.25,
      "velocity": 0.54,
      "hand": "right"
    },
    {
      "midi": 70,
      "time": 289.25,
      "duration": 0.25,
      "velocity": 0.54,
      "hand": "right"
    },
    {
      "midi": 43,
      "time": 289.5,
      "duration": 0.25,
      "velocity": 0.71,
      "hand": "left"
    },
    {
      "midi": 47,
      "time": 289.5,
      "duration": 0.25,
      "velocity": 0.65,
      "hand": "left"
    },
    {
      "midi": 62,
      "time": 289.5,
      "duration": 0.25,
      "velocity": 0.54,
      "hand": "right"
    },
    {
      "midi": 48,
      "time": 289.75,
      "duration": 0.25,
      "velocity": 0.66,
      "hand": "left"
    },
    {
      "midi": 55,
      "time": 289.75,
      "duration": 0.25,
      "velocity": 0.54,
      "hand": "left"
    },
    {
      "midi": 63,
      "time": 289.75,
      "duration": 0.25,
      "velocity": 0.54,
      "hand": "right"
    },
    {
      "midi": 67,
      "time": 289.75,
      "duration": 0.25,
      "velocity": 0.54,
      "hand": "right"
    },
    {
      "midi": 44,
      "time": 290,
      "duration": 0.25,
      "velocity": 0.71,
      "hand": "left"
    },
    {
      "midi": 51,
      "time": 290,
      "duration": 0.25,
      "velocity": 0.67,
      "hand": "left"
    },
    {
      "midi": 66,
      "time": 290,
      "duration": 0.25,
      "velocity": 0.54,
      "hand": "right"
    },
    {
      "midi": 52,
      "time": 290.25,
      "duration": 0.25,
      "velocity": 0.68,
      "hand": "left"
    },
    {
      "midi": 60,
      "time": 290.25,
      "duration": 0.25,
      "velocity": 0.54,
      "hand": "right"
    },
    {
      "midi": 67,
      "time": 290.25,
      "duration": 0.25,
      "velocity": 0.54,
      "hand": "right"
    },
    {
      "midi": 72,
      "time": 290.25,
      "duration": 0.25,
      "velocity": 0.54,
      "hand": "right"
    },
    {
      "midi": 44,
      "time": 290.5,
      "duration": 0.25,
      "velocity": 0.71,
      "hand": "left"
    },
    {
      "midi": 51,
      "time": 290.5,
      "duration": 0.25,
      "velocity": 0.69,
      "hand": "left"
    },
    {
      "midi": 66,
      "time": 290.5,
      "duration": 0.25,
      "velocity": 0.54,
      "hand": "right"
    },
    {
      "midi": 52,
      "time": 290.75,
      "duration": 0.25,
      "velocity": 0.69,
      "hand": "left"
    },
    {
      "midi": 60,
      "time": 290.75,
      "duration": 0.25,
      "velocity": 0.54,
      "hand": "right"
    },
    {
      "midi": 67,
      "time": 290.75,
      "duration": 0.25,
      "velocity": 0.54,
      "hand": "right"
    },
    {
      "midi": 72,
      "time": 290.75,
      "duration": 0.25,
      "velocity": 0.54,
      "hand": "right"
    },
    {
      "midi": 44,
      "time": 291,
      "duration": 0.25,
      "velocity": 0.71,
      "hand": "left"
    },
    {
      "midi": 51,
      "time": 291,
      "duration": 0.25,
      "velocity": 0.7,
      "hand": "left"
    },
    {
      "midi": 66,
      "time": 291,
      "duration": 0.25,
      "velocity": 0.54,
      "hand": "right"
    },
    {
      "midi": 52,
      "time": 291.25,
      "duration": 0.25,
      "velocity": 0.71,
      "hand": "left"
    },
    {
      "midi": 60,
      "time": 291.25,
      "duration": 0.25,
      "velocity": 0.54,
      "hand": "right"
    },
    {
      "midi": 67,
      "time": 291.25,
      "duration": 0.25,
      "velocity": 0.54,
      "hand": "right"
    },
    {
      "midi": 72,
      "time": 291.25,
      "duration": 0.25,
      "velocity": 0.54,
      "hand": "right"
    },
    {
      "midi": 44,
      "time": 291.5,
      "duration": 0.25,
      "velocity": 0.71,
      "hand": "left"
    },
    {
      "midi": 49,
      "time": 291.5,
      "duration": 0.25,
      "velocity": 0.72,
      "hand": "left"
    },
    {
      "midi": 64,
      "time": 291.5,
      "duration": 0.25,
      "velocity": 0.54,
      "hand": "right"
    },
    {
      "midi": 50,
      "time": 291.75,
      "duration": 0.25,
      "velocity": 0.72,
      "hand": "left"
    },
    {
      "midi": 58,
      "time": 291.75,
      "duration": 0.25,
      "velocity": 0.54,
      "hand": "left"
    },
    {
      "midi": 65,
      "time": 291.75,
      "duration": 0.25,
      "velocity": 0.54,
      "hand": "right"
    },
    {
      "midi": 70,
      "time": 291.75,
      "duration": 0.25,
      "velocity": 0.54,
      "hand": "right"
    },
    {
      "midi": 43,
      "time": 292,
      "duration": 0.25,
      "velocity": 0.71,
      "hand": "left"
    },
    {
      "midi": 50,
      "time": 292,
      "duration": 0.25,
      "velocity": 0.73,
      "hand": "left"
    },
    {
      "midi": 65,
      "time": 292,
      "duration": 0.25,
      "velocity": 0.54,
      "hand": "right"
    },
    {
      "midi": 51,
      "time": 292.25,
      "duration": 0.25,
      "velocity": 0.74,
      "hand": "left"
    },
    {
      "midi": 58,
      "time": 292.25,
      "duration": 0.25,
      "velocity": 0.54,
      "hand": "left"
    },
    {
      "midi": 67,
      "time": 292.25,
      "duration": 0.25,
      "velocity": 0.54,
      "hand": "right"
    },
    {
      "midi": 70,
      "time": 292.25,
      "duration": 0.25,
      "velocity": 0.54,
      "hand": "right"
    },
    {
      "midi": 43,
      "time": 292.5,
      "duration": 0.25,
      "velocity": 0.71,
      "hand": "left"
    },
    {
      "midi": 50,
      "time": 292.5,
      "duration": 0.25,
      "velocity": 0.75,
      "hand": "left"
    },
    {
      "midi": 65,
      "time": 292.5,
      "duration": 0.25,
      "velocity": 0.54,
      "hand": "right"
    },
    {
      "midi": 51,
      "time": 292.75,
      "duration": 0.25,
      "velocity": 0.76,
      "hand": "left"
    },
    {
      "midi": 58,
      "time": 292.75,
      "duration": 0.25,
      "velocity": 0.54,
      "hand": "left"
    },
    {
      "midi": 67,
      "time": 292.75,
      "duration": 0.25,
      "velocity": 0.54,
      "hand": "right"
    },
    {
      "midi": 70,
      "time": 292.75,
      "duration": 0.25,
      "velocity": 0.54,
      "hand": "right"
    },
    {
      "midi": 43,
      "time": 293,
      "duration": 0.25,
      "velocity": 0.71,
      "hand": "left"
    },
    {
      "midi": 50,
      "time": 293,
      "duration": 0.25,
      "velocity": 0.76,
      "hand": "left"
    },
    {
      "midi": 65,
      "time": 293,
      "duration": 0.25,
      "velocity": 0.54,
      "hand": "right"
    },
    {
      "midi": 51,
      "time": 293.25,
      "duration": 0.25,
      "velocity": 0.77,
      "hand": "left"
    },
    {
      "midi": 58,
      "time": 293.25,
      "duration": 0.25,
      "velocity": 0.54,
      "hand": "left"
    },
    {
      "midi": 67,
      "time": 293.25,
      "duration": 0.25,
      "velocity": 0.54,
      "hand": "right"
    },
    {
      "midi": 70,
      "time": 293.25,
      "duration": 0.25,
      "velocity": 0.54,
      "hand": "right"
    },
    {
      "midi": 43,
      "time": 293.5,
      "duration": 0.25,
      "velocity": 0.71,
      "hand": "left"
    },
    {
      "midi": 47,
      "time": 293.5,
      "duration": 0.25,
      "velocity": 0.78,
      "hand": "left"
    },
    {
      "midi": 62,
      "time": 293.5,
      "duration": 0.25,
      "velocity": 0.54,
      "hand": "right"
    },
    {
      "midi": 48,
      "time": 293.75,
      "duration": 0.25,
      "velocity": 0.79,
      "hand": "left"
    },
    {
      "midi": 55,
      "time": 293.75,
      "duration": 0.25,
      "velocity": 0.54,
      "hand": "left"
    },
    {
      "midi": 63,
      "time": 293.75,
      "duration": 0.25,
      "velocity": 0.54,
      "hand": "right"
    },
    {
      "midi": 67,
      "time": 293.75,
      "duration": 0.25,
      "velocity": 0.54,
      "hand": "right"
    },
    {
      "midi": 32,
      "time": 294,
      "duration": 0.5,
      "velocity": 0.8,
      "hand": "left"
    },
    {
      "midi": 38,
      "time": 294,
      "duration": 0.5,
      "velocity": 0.8,
      "hand": "left"
    },
    {
      "midi": 44,
      "time": 294,
      "duration": 0.5,
      "velocity": 0.8,
      "hand": "left"
    },
    {
      "midi": 60,
      "time": 294.25,
      "duration": 0.5,
      "velocity": 0.54,
      "hand": "right"
    },
    {
      "midi": 72,
      "time": 294.25,
      "duration": 0.5,
      "velocity": 0.54,
      "hand": "right"
    },
    {
      "midi": 44,
      "time": 294.5,
      "duration": 0.5,
      "velocity": 0.8,
      "hand": "left"
    },
    {
      "midi": 50,
      "time": 294.5,
      "duration": 0.5,
      "velocity": 0.8,
      "hand": "left"
    },
    {
      "midi": 56,
      "time": 294.5,
      "duration": 0.5,
      "velocity": 0.8,
      "hand": "left"
    },
    {
      "midi": 72,
      "time": 294.75,
      "duration": 0.75,
      "velocity": 0.54,
      "hand": "right"
    },
    {
      "midi": 84,
      "time": 294.75,
      "duration": 0.75,
      "velocity": 0.54,
      "hand": "right"
    },
    {
      "midi": 56,
      "time": 295,
      "duration": 1,
      "velocity": 0.8,
      "hand": "left"
    },
    {
      "midi": 62,
      "time": 295,
      "duration": 1,
      "velocity": 0.8,
      "hand": "right"
    },
    {
      "midi": 68,
      "time": 295,
      "duration": 1,
      "velocity": 0.8,
      "hand": "right"
    },
    {
      "midi": 67,
      "time": 295.5,
      "duration": 0.25,
      "velocity": 0.54,
      "hand": "right"
    },
    {
      "midi": 68,
      "time": 295.5,
      "duration": 0.25,
      "velocity": 0.54,
      "hand": "right"
    },
    {
      "midi": 79,
      "time": 295.5,
      "duration": 0.25,
      "velocity": 0.54,
      "hand": "right"
    },
    {
      "midi": 80,
      "time": 295.5,
      "duration": 0.25,
      "velocity": 0.54,
      "hand": "right"
    },
    {
      "midi": 65,
      "time": 295.75,
      "duration": 0.25,
      "velocity": 0.54,
      "hand": "right"
    },
    {
      "midi": 77,
      "time": 295.75,
      "duration": 0.25,
      "velocity": 0.54,
      "hand": "right"
    },
    {
      "midi": 31,
      "time": 296,
      "duration": 0.5,
      "velocity": 0.8,
      "hand": "left"
    },
    {
      "midi": 39,
      "time": 296,
      "duration": 0.5,
      "velocity": 0.8,
      "hand": "left"
    },
    {
      "midi": 43,
      "time": 296,
      "duration": 0.5,
      "velocity": 0.8,
      "hand": "left"
    },
    {
      "midi": 58,
      "time": 296.25,
      "duration": 0.5,
      "velocity": 0.54,
      "hand": "left"
    },
    {
      "midi": 70,
      "time": 296.25,
      "duration": 0.5,
      "velocity": 0.54,
      "hand": "right"
    },
    {
      "midi": 43,
      "time": 296.5,
      "duration": 0.5,
      "velocity": 0.8,
      "hand": "left"
    },
    {
      "midi": 51,
      "time": 296.5,
      "duration": 0.5,
      "velocity": 0.8,
      "hand": "left"
    },
    {
      "midi": 55,
      "time": 296.5,
      "duration": 0.5,
      "velocity": 0.8,
      "hand": "left"
    },
    {
      "midi": 70,
      "time": 296.75,
      "duration": 0.75,
      "velocity": 0.54,
      "hand": "right"
    },
    {
      "midi": 82,
      "time": 296.75,
      "duration": 0.75,
      "velocity": 0.54,
      "hand": "right"
    },
    {
      "midi": 55,
      "time": 297,
      "duration": 1,
      "velocity": 0.8,
      "hand": "left"
    },
    {
      "midi": 63,
      "time": 297,
      "duration": 1,
      "velocity": 0.8,
      "hand": "right"
    },
    {
      "midi": 67,
      "time": 297,
      "duration": 1,
      "velocity": 0.8,
      "hand": "right"
    },
    {
      "midi": 65,
      "time": 297.5,
      "duration": 0.25,
      "velocity": 0.54,
      "hand": "right"
    },
    {
      "midi": 67,
      "time": 297.5,
      "duration": 0.25,
      "velocity": 0.54,
      "hand": "right"
    },
    {
      "midi": 77,
      "time": 297.5,
      "duration": 0.25,
      "velocity": 0.54,
      "hand": "right"
    },
    {
      "midi": 79,
      "time": 297.5,
      "duration": 0.25,
      "velocity": 0.54,
      "hand": "right"
    },
    {
      "midi": 63,
      "time": 297.75,
      "duration": 0.25,
      "velocity": 0.54,
      "hand": "right"
    },
    {
      "midi": 75,
      "time": 297.75,
      "duration": 0.25,
      "velocity": 0.54,
      "hand": "right"
    },
    {
      "midi": 32,
      "time": 298,
      "duration": 0.5,
      "velocity": 0.8,
      "hand": "left"
    },
    {
      "midi": 38,
      "time": 298,
      "duration": 0.5,
      "velocity": 0.8,
      "hand": "left"
    },
    {
      "midi": 44,
      "time": 298,
      "duration": 0.5,
      "velocity": 0.8,
      "hand": "left"
    },
    {
      "midi": 60,
      "time": 298.25,
      "duration": 0.5,
      "velocity": 0.54,
      "hand": "right"
    },
    {
      "midi": 72,
      "time": 298.25,
      "duration": 0.5,
      "velocity": 0.54,
      "hand": "right"
    },
    {
      "midi": 44,
      "time": 298.5,
      "duration": 0.5,
      "velocity": 0.8,
      "hand": "left"
    },
    {
      "midi": 50,
      "time": 298.5,
      "duration": 0.5,
      "velocity": 0.8,
      "hand": "left"
    },
    {
      "midi": 56,
      "time": 298.5,
      "duration": 0.5,
      "velocity": 0.8,
      "hand": "left"
    },
    {
      "midi": 72,
      "time": 298.75,
      "duration": 0.75,
      "velocity": 0.54,
      "hand": "right"
    },
    {
      "midi": 84,
      "time": 298.75,
      "duration": 0.75,
      "velocity": 0.54,
      "hand": "right"
    },
    {
      "midi": 56,
      "time": 299,
      "duration": 1,
      "velocity": 0.8,
      "hand": "left"
    },
    {
      "midi": 62,
      "time": 299,
      "duration": 1,
      "velocity": 0.8,
      "hand": "right"
    },
    {
      "midi": 68,
      "time": 299,
      "duration": 1,
      "velocity": 0.8,
      "hand": "right"
    },
    {
      "midi": 67,
      "time": 299.5,
      "duration": 0.25,
      "velocity": 0.54,
      "hand": "right"
    },
    {
      "midi": 68,
      "time": 299.5,
      "duration": 0.25,
      "velocity": 0.54,
      "hand": "right"
    },
    {
      "midi": 79,
      "time": 299.5,
      "duration": 0.25,
      "velocity": 0.54,
      "hand": "right"
    },
    {
      "midi": 80,
      "time": 299.5,
      "duration": 0.25,
      "velocity": 0.54,
      "hand": "right"
    },
    {
      "midi": 65,
      "time": 299.75,
      "duration": 0.25,
      "velocity": 0.54,
      "hand": "right"
    },
    {
      "midi": 77,
      "time": 299.75,
      "duration": 0.25,
      "velocity": 0.54,
      "hand": "right"
    },
    {
      "midi": 31,
      "time": 300,
      "duration": 0.5,
      "velocity": 0.8,
      "hand": "left"
    },
    {
      "midi": 39,
      "time": 300,
      "duration": 0.5,
      "velocity": 0.8,
      "hand": "left"
    },
    {
      "midi": 43,
      "time": 300,
      "duration": 0.5,
      "velocity": 0.8,
      "hand": "left"
    },
    {
      "midi": 58,
      "time": 300.25,
      "duration": 0.5,
      "velocity": 0.54,
      "hand": "left"
    },
    {
      "midi": 70,
      "time": 300.25,
      "duration": 0.5,
      "velocity": 0.54,
      "hand": "right"
    },
    {
      "midi": 43,
      "time": 300.5,
      "duration": 0.5,
      "velocity": 0.8,
      "hand": "left"
    },
    {
      "midi": 51,
      "time": 300.5,
      "duration": 0.5,
      "velocity": 0.8,
      "hand": "left"
    },
    {
      "midi": 55,
      "time": 300.5,
      "duration": 0.5,
      "velocity": 0.8,
      "hand": "left"
    },
    {
      "midi": 70,
      "time": 300.75,
      "duration": 0.75,
      "velocity": 0.54,
      "hand": "right"
    },
    {
      "midi": 82,
      "time": 300.75,
      "duration": 0.75,
      "velocity": 0.54,
      "hand": "right"
    },
    {
      "midi": 55,
      "time": 301,
      "duration": 0.5,
      "velocity": 0.8,
      "hand": "left"
    },
    {
      "midi": 63,
      "time": 301,
      "duration": 0.5,
      "velocity": 0.8,
      "hand": "right"
    },
    {
      "midi": 67,
      "time": 301,
      "duration": 0.5,
      "velocity": 0.8,
      "hand": "right"
    },
    {
      "midi": 51,
      "time": 301.5,
      "duration": 0.25,
      "velocity": 0.8,
      "hand": "left"
    },
    {
      "midi": 55,
      "time": 301.5,
      "duration": 0.25,
      "velocity": 0.8,
      "hand": "left"
    },
    {
      "midi": 65,
      "time": 301.5,
      "duration": 0.25,
      "velocity": 0.54,
      "hand": "right"
    },
    {
      "midi": 67,
      "time": 301.5,
      "duration": 0.25,
      "velocity": 0.54,
      "hand": "right"
    },
    {
      "midi": 77,
      "time": 301.5,
      "duration": 0.25,
      "velocity": 0.54,
      "hand": "right"
    },
    {
      "midi": 79,
      "time": 301.5,
      "duration": 0.25,
      "velocity": 0.54,
      "hand": "right"
    },
    {
      "midi": 55,
      "time": 301.75,
      "duration": 0.25,
      "velocity": 0.8,
      "hand": "left"
    },
    {
      "midi": 58,
      "time": 301.75,
      "duration": 0.25,
      "velocity": 0.8,
      "hand": "left"
    },
    {
      "midi": 63,
      "time": 301.75,
      "duration": 0.25,
      "velocity": 0.54,
      "hand": "right"
    },
    {
      "midi": 75,
      "time": 301.75,
      "duration": 0.25,
      "velocity": 0.54,
      "hand": "right"
    },
    {
      "midi": 56,
      "time": 302,
      "duration": 0.5,
      "velocity": 0.84,
      "hand": "left"
    },
    {
      "midi": 60,
      "time": 302,
      "duration": 0.5,
      "velocity": 0.84,
      "hand": "right"
    },
    {
      "midi": 62,
      "time": 302.25,
      "duration": 0.25,
      "velocity": 0.54,
      "hand": "right"
    },
    {
      "midi": 44,
      "time": 302.5,
      "duration": 1,
      "velocity": 1,
      "hand": "left"
    },
    {
      "midi": 48,
      "time": 302.5,
      "duration": 1,
      "velocity": 1,
      "hand": "left"
    },
    {
      "midi": 53,
      "time": 302.5,
      "duration": 1,
      "velocity": 1,
      "hand": "left"
    },
    {
      "midi": 64,
      "time": 302.5,
      "duration": 0.25,
      "velocity": 0.54,
      "hand": "right"
    },
    {
      "midi": 65,
      "time": 302.5,
      "duration": 0.125,
      "velocity": 0.54,
      "hand": "right"
    },
    {
      "midi": 67,
      "time": 302.5,
      "duration": 0.125,
      "velocity": 0.54,
      "hand": "right"
    },
    {
      "midi": 68,
      "time": 302.75,
      "duration": 0.125,
      "velocity": 0.54,
      "hand": "right"
    },
    {
      "midi": 70,
      "time": 302.75,
      "duration": 0.125,
      "velocity": 0.54,
      "hand": "right"
    },
    {
      "midi": 72,
      "time": 303,
      "duration": 0.125,
      "velocity": 0.54,
      "hand": "right"
    },
    {
      "midi": 74,
      "time": 303,
      "duration": 0.125,
      "velocity": 0.54,
      "hand": "right"
    },
    {
      "midi": 76,
      "time": 303,
      "duration": 0.125,
      "velocity": 0.54,
      "hand": "right"
    },
    {
      "midi": 77,
      "time": 303.25,
      "duration": 0.125,
      "velocity": 0.54,
      "hand": "right"
    },
    {
      "midi": 79,
      "time": 303.25,
      "duration": 0.125,
      "velocity": 0.54,
      "hand": "right"
    },
    {
      "midi": 80,
      "time": 303.25,
      "duration": 0.125,
      "velocity": 0.54,
      "hand": "right"
    },
    {
      "midi": 50,
      "time": 303.5,
      "duration": 0.25,
      "velocity": 1,
      "hand": "left"
    },
    {
      "midi": 53,
      "time": 303.5,
      "duration": 0.25,
      "velocity": 1,
      "hand": "left"
    },
    {
      "midi": 82,
      "time": 303.5,
      "duration": 0.125,
      "velocity": 0.54,
      "hand": "right"
    },
    {
      "midi": 84,
      "time": 303.5,
      "duration": 0.5,
      "velocity": 0.54,
      "hand": "right"
    },
    {
      "midi": 53,
      "time": 303.75,
      "duration": 0.25,
      "velocity": 1,
      "hand": "left"
    },
    {
      "midi": 56,
      "time": 303.75,
      "duration": 0.25,
      "velocity": 1,
      "hand": "left"
    },
    {
      "midi": 55,
      "time": 304,
      "duration": 0.5,
      "velocity": 1,
      "hand": "left"
    },
    {
      "midi": 58,
      "time": 304,
      "duration": 0.5,
      "velocity": 1,
      "hand": "left"
    },
    {
      "midi": 60,
      "time": 304.25,
      "duration": 0.25,
      "velocity": 0.54,
      "hand": "right"
    },
    {
      "midi": 43,
      "time": 304.5,
      "duration": 1,
      "velocity": 1,
      "hand": "left"
    },
    {
      "midi": 46,
      "time": 304.5,
      "duration": 1,
      "velocity": 1,
      "hand": "left"
    },
    {
      "midi": 51,
      "time": 304.5,
      "duration": 1,
      "velocity": 1,
      "hand": "left"
    },
    {
      "midi": 62,
      "time": 304.5,
      "duration": 0.25,
      "velocity": 0.54,
      "hand": "right"
    },
    {
      "midi": 63,
      "time": 304.5,
      "duration": 0.125,
      "velocity": 0.54,
      "hand": "right"
    },
    {
      "midi": 65,
      "time": 304.5,
      "duration": 0.125,
      "velocity": 0.54,
      "hand": "right"
    },
    {
      "midi": 67,
      "time": 304.75,
      "duration": 0.125,
      "velocity": 0.54,
      "hand": "right"
    },
    {
      "midi": 68,
      "time": 304.75,
      "duration": 0.125,
      "velocity": 0.54,
      "hand": "right"
    },
    {
      "midi": 70,
      "time": 305,
      "duration": 0.125,
      "velocity": 0.54,
      "hand": "right"
    },
    {
      "midi": 72,
      "time": 305,
      "duration": 0.125,
      "velocity": 0.54,
      "hand": "right"
    },
    {
      "midi": 74,
      "time": 305,
      "duration": 0.125,
      "velocity": 0.54,
      "hand": "right"
    },
    {
      "midi": 75,
      "time": 305.25,
      "duration": 0.125,
      "velocity": 0.54,
      "hand": "right"
    },
    {
      "midi": 77,
      "time": 305.25,
      "duration": 0.125,
      "velocity": 0.54,
      "hand": "right"
    },
    {
      "midi": 79,
      "time": 305.25,
      "duration": 0.125,
      "velocity": 0.54,
      "hand": "right"
    },
    {
      "midi": 51,
      "time": 305.5,
      "duration": 0.25,
      "velocity": 1,
      "hand": "left"
    },
    {
      "midi": 55,
      "time": 305.5,
      "duration": 0.25,
      "velocity": 1,
      "hand": "left"
    },
    {
      "midi": 80,
      "time": 305.5,
      "duration": 0.125,
      "velocity": 0.54,
      "hand": "right"
    },
    {
      "midi": 82,
      "time": 305.5,
      "duration": 0.5,
      "velocity": 0.54,
      "hand": "right"
    },
    {
      "midi": 55,
      "time": 305.75,
      "duration": 0.25,
      "velocity": 1,
      "hand": "left"
    },
    {
      "midi": 58,
      "time": 305.75,
      "duration": 0.25,
      "velocity": 1,
      "hand": "left"
    },
    {
      "midi": 56,
      "time": 306,
      "duration": 0.5,
      "velocity": 1,
      "hand": "left"
    },
    {
      "midi": 60,
      "time": 306,
      "duration": 0.5,
      "velocity": 1,
      "hand": "right"
    },
    {
      "midi": 62,
      "time": 306.25,
      "duration": 0.25,
      "velocity": 0.54,
      "hand": "right"
    },
    {
      "midi": 44,
      "time": 306.5,
      "duration": 1,
      "velocity": 1,
      "hand": "left"
    },
    {
      "midi": 48,
      "time": 306.5,
      "duration": 1,
      "velocity": 1,
      "hand": "left"
    },
    {
      "midi": 53,
      "time": 306.5,
      "duration": 1,
      "velocity": 1,
      "hand": "left"
    },
    {
      "midi": 64,
      "time": 306.5,
      "duration": 0.25,
      "velocity": 0.54,
      "hand": "right"
    },
    {
      "midi": 65,
      "time": 306.5,
      "duration": 0.125,
      "velocity": 0.54,
      "hand": "right"
    },
    {
      "midi": 67,
      "time": 306.5,
      "duration": 0.125,
      "velocity": 0.54,
      "hand": "right"
    },
    {
      "midi": 68,
      "time": 306.75,
      "duration": 0.125,
      "velocity": 0.54,
      "hand": "right"
    },
    {
      "midi": 70,
      "time": 306.75,
      "duration": 0.125,
      "velocity": 0.54,
      "hand": "right"
    },
    {
      "midi": 72,
      "time": 307,
      "duration": 0.125,
      "velocity": 0.54,
      "hand": "right"
    },
    {
      "midi": 74,
      "time": 307,
      "duration": 0.125,
      "velocity": 0.54,
      "hand": "right"
    },
    {
      "midi": 76,
      "time": 307,
      "duration": 0.125,
      "velocity": 0.54,
      "hand": "right"
    },
    {
      "midi": 77,
      "time": 307.25,
      "duration": 0.125,
      "velocity": 0.54,
      "hand": "right"
    },
    {
      "midi": 79,
      "time": 307.25,
      "duration": 0.125,
      "velocity": 0.54,
      "hand": "right"
    },
    {
      "midi": 80,
      "time": 307.25,
      "duration": 0.125,
      "velocity": 0.54,
      "hand": "right"
    },
    {
      "midi": 50,
      "time": 307.5,
      "duration": 0.25,
      "velocity": 1,
      "hand": "left"
    },
    {
      "midi": 53,
      "time": 307.5,
      "duration": 0.25,
      "velocity": 1,
      "hand": "left"
    },
    {
      "midi": 82,
      "time": 307.5,
      "duration": 0.125,
      "velocity": 0.54,
      "hand": "right"
    },
    {
      "midi": 84,
      "time": 307.5,
      "duration": 0.5,
      "velocity": 0.54,
      "hand": "right"
    },
    {
      "midi": 53,
      "time": 307.75,
      "duration": 0.25,
      "velocity": 1,
      "hand": "left"
    },
    {
      "midi": 56,
      "time": 307.75,
      "duration": 0.25,
      "velocity": 1,
      "hand": "left"
    },
    {
      "midi": 55,
      "time": 308,
      "duration": 0.5,
      "velocity": 1,
      "hand": "left"
    },
    {
      "midi": 58,
      "time": 308,
      "duration": 0.5,
      "velocity": 1,
      "hand": "left"
    },
    {
      "midi": 60,
      "time": 308.25,
      "duration": 0.25,
      "velocity": 0.54,
      "hand": "right"
    },
    {
      "midi": 43,
      "time": 308.5,
      "duration": 1,
      "velocity": 1,
      "hand": "left"
    },
    {
      "midi": 46,
      "time": 308.5,
      "duration": 1,
      "velocity": 1,
      "hand": "left"
    },
    {
      "midi": 51,
      "time": 308.5,
      "duration": 1,
      "velocity": 1,
      "hand": "left"
    },
    {
      "midi": 62,
      "time": 308.5,
      "duration": 0.25,
      "velocity": 0.54,
      "hand": "right"
    },
    {
      "midi": 63,
      "time": 308.5,
      "duration": 0.125,
      "velocity": 0.54,
      "hand": "right"
    },
    {
      "midi": 65,
      "time": 308.5,
      "duration": 0.125,
      "velocity": 0.54,
      "hand": "right"
    },
    {
      "midi": 67,
      "time": 308.75,
      "duration": 0.125,
      "velocity": 0.54,
      "hand": "right"
    },
    {
      "midi": 68,
      "time": 308.75,
      "duration": 0.125,
      "velocity": 0.54,
      "hand": "right"
    },
    {
      "midi": 70,
      "time": 309,
      "duration": 0.125,
      "velocity": 0.54,
      "hand": "right"
    },
    {
      "midi": 72,
      "time": 309,
      "duration": 0.125,
      "velocity": 0.54,
      "hand": "right"
    },
    {
      "midi": 74,
      "time": 309,
      "duration": 0.125,
      "velocity": 0.54,
      "hand": "right"
    },
    {
      "midi": 75,
      "time": 309.25,
      "duration": 0.125,
      "velocity": 0.54,
      "hand": "right"
    },
    {
      "midi": 77,
      "time": 309.25,
      "duration": 0.125,
      "velocity": 0.54,
      "hand": "right"
    },
    {
      "midi": 79,
      "time": 309.25,
      "duration": 0.125,
      "velocity": 0.54,
      "hand": "right"
    },
    {
      "midi": 67,
      "time": 309.5,
      "duration": 0.25,
      "velocity": 1,
      "hand": "right"
    },
    {
      "midi": 70,
      "time": 309.5,
      "duration": 0.25,
      "velocity": 1,
      "hand": "right"
    },
    {
      "midi": 75,
      "time": 309.5,
      "duration": 0.25,
      "velocity": 1,
      "hand": "right"
    },
    {
      "midi": 80,
      "time": 309.5,
      "duration": 0.125,
      "velocity": 0.54,
      "hand": "right"
    },
    {
      "midi": 82,
      "time": 309.5,
      "duration": 0.25,
      "velocity": 0.54,
      "hand": "right"
    },
    {
      "midi": 67,
      "time": 309.75,
      "duration": 0.25,
      "velocity": 1,
      "hand": "right"
    },
    {
      "midi": 70,
      "time": 309.75,
      "duration": 0.25,
      "velocity": 1,
      "hand": "right"
    },
    {
      "midi": 75,
      "time": 309.75,
      "duration": 0.25,
      "velocity": 1,
      "hand": "right"
    },
    {
      "midi": 82,
      "time": 309.75,
      "duration": 0.25,
      "velocity": 0.54,
      "hand": "right"
    },
    {
      "midi": 84,
      "time": 309.75,
      "duration": 0.25,
      "velocity": 0.54,
      "hand": "right"
    },
    {
      "midi": 67,
      "time": 310,
      "duration": 0.25,
      "velocity": 0.71,
      "hand": "right"
    },
    {
      "midi": 70,
      "time": 310,
      "duration": 0.25,
      "velocity": 0.71,
      "hand": "right"
    },
    {
      "midi": 74,
      "time": 310,
      "duration": 0.25,
      "velocity": 0.71,
      "hand": "right"
    },
    {
      "midi": 79,
      "time": 310,
      "duration": 0.25,
      "velocity": 0.71,
      "hand": "right"
    },
    {
      "midi": 82,
      "time": 310,
      "duration": 0.25,
      "velocity": 0.71,
      "hand": "right"
    },
    {
      "midi": 86,
      "time": 310,
      "duration": 0.5,
      "velocity": 0.71,
      "hand": "right"
    },
    {
      "midi": 67,
      "time": 310.25,
      "duration": 0.25,
      "velocity": 0.71,
      "hand": "right"
    },
    {
      "midi": 70,
      "time": 310.25,
      "duration": 0.25,
      "velocity": 0.71,
      "hand": "right"
    },
    {
      "midi": 74,
      "time": 310.25,
      "duration": 0.25,
      "velocity": 0.71,
      "hand": "right"
    },
    {
      "midi": 79,
      "time": 310.25,
      "duration": 0.25,
      "velocity": 0.71,
      "hand": "right"
    },
    {
      "midi": 82,
      "time": 310.25,
      "duration": 0.25,
      "velocity": 0.71,
      "hand": "right"
    },
    {
      "midi": 67,
      "time": 310.5,
      "duration": 0.25,
      "velocity": 0.71,
      "hand": "right"
    },
    {
      "midi": 70,
      "time": 310.5,
      "duration": 0.25,
      "velocity": 0.71,
      "hand": "right"
    },
    {
      "midi": 74,
      "time": 310.5,
      "duration": 0.25,
      "velocity": 0.71,
      "hand": "right"
    },
    {
      "midi": 79,
      "time": 310.5,
      "duration": 0.25,
      "velocity": 0.71,
      "hand": "right"
    },
    {
      "midi": 82,
      "time": 310.5,
      "duration": 0.25,
      "velocity": 0.71,
      "hand": "right"
    },
    {
      "midi": 86,
      "time": 310.5,
      "duration": 1,
      "velocity": 0.71,
      "hand": "right"
    },
    {
      "midi": 67,
      "time": 310.75,
      "duration": 0.25,
      "velocity": 0.71,
      "hand": "right"
    },
    {
      "midi": 70,
      "time": 310.75,
      "duration": 0.25,
      "velocity": 0.71,
      "hand": "right"
    },
    {
      "midi": 74,
      "time": 310.75,
      "duration": 0.25,
      "velocity": 0.71,
      "hand": "right"
    },
    {
      "midi": 79,
      "time": 310.75,
      "duration": 0.25,
      "velocity": 0.71,
      "hand": "right"
    },
    {
      "midi": 82,
      "time": 310.75,
      "duration": 0.25,
      "velocity": 0.71,
      "hand": "right"
    },
    {
      "midi": 67,
      "time": 311,
      "duration": 0.25,
      "velocity": 0.71,
      "hand": "right"
    },
    {
      "midi": 70,
      "time": 311,
      "duration": 0.25,
      "velocity": 0.71,
      "hand": "right"
    },
    {
      "midi": 74,
      "time": 311,
      "duration": 0.25,
      "velocity": 0.71,
      "hand": "right"
    },
    {
      "midi": 79,
      "time": 311,
      "duration": 0.25,
      "velocity": 0.71,
      "hand": "right"
    },
    {
      "midi": 82,
      "time": 311,
      "duration": 0.25,
      "velocity": 0.71,
      "hand": "right"
    },
    {
      "midi": 67,
      "time": 311.25,
      "duration": 0.25,
      "velocity": 0.71,
      "hand": "right"
    },
    {
      "midi": 70,
      "time": 311.25,
      "duration": 0.25,
      "velocity": 0.71,
      "hand": "right"
    },
    {
      "midi": 74,
      "time": 311.25,
      "duration": 0.25,
      "velocity": 0.71,
      "hand": "right"
    },
    {
      "midi": 79,
      "time": 311.25,
      "duration": 0.25,
      "velocity": 0.71,
      "hand": "right"
    },
    {
      "midi": 82,
      "time": 311.25,
      "duration": 0.25,
      "velocity": 0.71,
      "hand": "right"
    },
    {
      "midi": 63,
      "time": 311.5,
      "duration": 0.25,
      "velocity": 0.71,
      "hand": "right"
    },
    {
      "midi": 67,
      "time": 311.5,
      "duration": 0.25,
      "velocity": 0.71,
      "hand": "right"
    },
    {
      "midi": 72,
      "time": 311.5,
      "duration": 0.25,
      "velocity": 0.71,
      "hand": "right"
    },
    {
      "midi": 79,
      "time": 311.5,
      "duration": 0.25,
      "velocity": 0.71,
      "hand": "right"
    },
    {
      "midi": 84,
      "time": 311.5,
      "duration": 0.25,
      "velocity": 0.71,
      "hand": "right"
    },
    {
      "midi": 63,
      "time": 311.75,
      "duration": 0.25,
      "velocity": 0.71,
      "hand": "right"
    },
    {
      "midi": 67,
      "time": 311.75,
      "duration": 0.25,
      "velocity": 0.71,
      "hand": "right"
    },
    {
      "midi": 72,
      "time": 311.75,
      "duration": 0.25,
      "velocity": 0.71,
      "hand": "right"
    },
    {
      "midi": 79,
      "time": 311.75,
      "duration": 0.25,
      "velocity": 0.71,
      "hand": "right"
    },
    {
      "midi": 84,
      "time": 311.75,
      "duration": 0.25,
      "velocity": 0.71,
      "hand": "right"
    },
    {
      "midi": 86,
      "time": 311.75,
      "duration": 0.25,
      "velocity": 0.71,
      "hand": "right"
    },
    {
      "midi": 67,
      "time": 312,
      "duration": 0.25,
      "velocity": 0.71,
      "hand": "right"
    },
    {
      "midi": 70,
      "time": 312,
      "duration": 0.25,
      "velocity": 0.71,
      "hand": "right"
    },
    {
      "midi": 74,
      "time": 312,
      "duration": 0.25,
      "velocity": 0.71,
      "hand": "right"
    },
    {
      "midi": 79,
      "time": 312,
      "duration": 0.25,
      "velocity": 0.71,
      "hand": "right"
    },
    {
      "midi": 82,
      "time": 312,
      "duration": 0.25,
      "velocity": 0.71,
      "hand": "right"
    },
    {
      "midi": 86,
      "time": 312,
      "duration": 0.5,
      "velocity": 0.71,
      "hand": "right"
    },
    {
      "midi": 91,
      "time": 312,
      "duration": 0.25,
      "velocity": 0.71,
      "hand": "right"
    },
    {
      "midi": 67,
      "time": 312.25,
      "duration": 0.25,
      "velocity": 0.71,
      "hand": "right"
    },
    {
      "midi": 70,
      "time": 312.25,
      "duration": 0.25,
      "velocity": 0.71,
      "hand": "right"
    },
    {
      "midi": 74,
      "time": 312.25,
      "duration": 0.25,
      "velocity": 0.71,
      "hand": "right"
    },
    {
      "midi": 79,
      "time": 312.25,
      "duration": 0.25,
      "velocity": 0.71,
      "hand": "right"
    },
    {
      "midi": 82,
      "time": 312.25,
      "duration": 0.25,
      "velocity": 0.71,
      "hand": "right"
    },
    {
      "midi": 67,
      "time": 312.5,
      "duration": 0.25,
      "velocity": 0.71,
      "hand": "right"
    },
    {
      "midi": 70,
      "time": 312.5,
      "duration": 0.25,
      "velocity": 0.71,
      "hand": "right"
    },
    {
      "midi": 74,
      "time": 312.5,
      "duration": 0.25,
      "velocity": 0.71,
      "hand": "right"
    },
    {
      "midi": 79,
      "time": 312.5,
      "duration": 0.25,
      "velocity": 0.71,
      "hand": "right"
    },
    {
      "midi": 82,
      "time": 312.5,
      "duration": 0.25,
      "velocity": 0.71,
      "hand": "right"
    },
    {
      "midi": 86,
      "time": 312.5,
      "duration": 1,
      "velocity": 0.71,
      "hand": "right"
    },
    {
      "midi": 67,
      "time": 312.75,
      "duration": 0.25,
      "velocity": 0.71,
      "hand": "right"
    },
    {
      "midi": 70,
      "time": 312.75,
      "duration": 0.25,
      "velocity": 0.71,
      "hand": "right"
    },
    {
      "midi": 74,
      "time": 312.75,
      "duration": 0.25,
      "velocity": 0.71,
      "hand": "right"
    },
    {
      "midi": 79,
      "time": 312.75,
      "duration": 0.25,
      "velocity": 0.71,
      "hand": "right"
    },
    {
      "midi": 82,
      "time": 312.75,
      "duration": 0.25,
      "velocity": 0.71,
      "hand": "right"
    },
    {
      "midi": 67,
      "time": 313,
      "duration": 0.25,
      "velocity": 0.71,
      "hand": "right"
    },
    {
      "midi": 70,
      "time": 313,
      "duration": 0.25,
      "velocity": 0.71,
      "hand": "right"
    },
    {
      "midi": 74,
      "time": 313,
      "duration": 0.25,
      "velocity": 0.71,
      "hand": "right"
    },
    {
      "midi": 79,
      "time": 313,
      "duration": 0.25,
      "velocity": 0.71,
      "hand": "right"
    },
    {
      "midi": 82,
      "time": 313,
      "duration": 0.25,
      "velocity": 0.71,
      "hand": "right"
    },
    {
      "midi": 67,
      "time": 313.25,
      "duration": 0.25,
      "velocity": 0.71,
      "hand": "right"
    },
    {
      "midi": 70,
      "time": 313.25,
      "duration": 0.25,
      "velocity": 0.71,
      "hand": "right"
    },
    {
      "midi": 74,
      "time": 313.25,
      "duration": 0.25,
      "velocity": 0.71,
      "hand": "right"
    },
    {
      "midi": 79,
      "time": 313.25,
      "duration": 0.25,
      "velocity": 0.71,
      "hand": "right"
    },
    {
      "midi": 82,
      "time": 313.25,
      "duration": 0.25,
      "velocity": 0.71,
      "hand": "right"
    },
    {
      "midi": 63,
      "time": 313.5,
      "duration": 0.25,
      "velocity": 0.71,
      "hand": "right"
    },
    {
      "midi": 67,
      "time": 313.5,
      "duration": 0.25,
      "velocity": 0.71,
      "hand": "right"
    },
    {
      "midi": 72,
      "time": 313.5,
      "duration": 0.25,
      "velocity": 0.71,
      "hand": "right"
    },
    {
      "midi": 79,
      "time": 313.5,
      "duration": 0.25,
      "velocity": 0.71,
      "hand": "right"
    },
    {
      "midi": 84,
      "time": 313.5,
      "duration": 0.25,
      "velocity": 0.71,
      "hand": "right"
    },
    {
      "midi": 63,
      "time": 313.75,
      "duration": 0.25,
      "velocity": 0.71,
      "hand": "right"
    },
    {
      "midi": 67,
      "time": 313.75,
      "duration": 0.25,
      "velocity": 0.71,
      "hand": "right"
    },
    {
      "midi": 72,
      "time": 313.75,
      "duration": 0.25,
      "velocity": 0.71,
      "hand": "right"
    },
    {
      "midi": 79,
      "time": 313.75,
      "duration": 0.25,
      "velocity": 0.71,
      "hand": "right"
    },
    {
      "midi": 84,
      "time": 313.75,
      "duration": 0.25,
      "velocity": 0.71,
      "hand": "right"
    },
    {
      "midi": 86,
      "time": 313.75,
      "duration": 0.25,
      "velocity": 0.71,
      "hand": "right"
    },
    {
      "midi": 67,
      "time": 314,
      "duration": 0.25,
      "velocity": 0.71,
      "hand": "right"
    },
    {
      "midi": 70,
      "time": 314,
      "duration": 0.25,
      "velocity": 0.71,
      "hand": "right"
    },
    {
      "midi": 74,
      "time": 314,
      "duration": 0.25,
      "velocity": 0.71,
      "hand": "right"
    },
    {
      "midi": 79,
      "time": 314,
      "duration": 0.5,
      "velocity": 0.71,
      "hand": "right"
    },
    {
      "midi": 86,
      "time": 314,
      "duration": 0.25,
      "velocity": 0.71,
      "hand": "right"
    },
    {
      "midi": 67,
      "time": 314.25,
      "duration": 0.25,
      "velocity": 0.71,
      "hand": "right"
    },
    {
      "midi": 70,
      "time": 314.25,
      "duration": 0.25,
      "velocity": 0.71,
      "hand": "right"
    },
    {
      "midi": 74,
      "time": 314.25,
      "duration": 0.25,
      "velocity": 0.71,
      "hand": "right"
    },
    {
      "midi": 67,
      "time": 314.5,
      "duration": 0.25,
      "velocity": 0.71,
      "hand": "right"
    },
    {
      "midi": 72,
      "time": 314.5,
      "duration": 0.25,
      "velocity": 0.71,
      "hand": "right"
    },
    {
      "midi": 75,
      "time": 314.5,
      "duration": 0.25,
      "velocity": 0.71,
      "hand": "right"
    },
    {
      "midi": 81,
      "time": 314.5,
      "duration": 0.5,
      "velocity": 0.71,
      "hand": "right"
    },
    {
      "midi": 82,
      "time": 314.5,
      "duration": 0.25,
      "velocity": 0.71,
      "hand": "right"
    },
    {
      "midi": 67,
      "time": 314.75,
      "duration": 0.25,
      "velocity": 0.71,
      "hand": "right"
    },
    {
      "midi": 72,
      "time": 314.75,
      "duration": 0.25,
      "velocity": 0.71,
      "hand": "right"
    },
    {
      "midi": 75,
      "time": 314.75,
      "duration": 0.25,
      "velocity": 0.71,
      "hand": "right"
    },
    {
      "midi": 67,
      "time": 315,
      "duration": 0.25,
      "velocity": 0.71,
      "hand": "right"
    },
    {
      "midi": 70,
      "time": 315,
      "duration": 0.25,
      "velocity": 0.71,
      "hand": "right"
    },
    {
      "midi": 74,
      "time": 315,
      "duration": 0.25,
      "velocity": 0.71,
      "hand": "right"
    },
    {
      "midi": 79,
      "time": 315,
      "duration": 0.5,
      "velocity": 0.71,
      "hand": "right"
    },
    {
      "midi": 82,
      "time": 315,
      "duration": 0.25,
      "velocity": 0.71,
      "hand": "right"
    },
    {
      "midi": 67,
      "time": 315.25,
      "duration": 0.25,
      "velocity": 0.71,
      "hand": "right"
    },
    {
      "midi": 70,
      "time": 315.25,
      "duration": 0.25,
      "velocity": 0.71,
      "hand": "right"
    },
    {
      "midi": 74,
      "time": 315.25,
      "duration": 0.25,
      "velocity": 0.71,
      "hand": "right"
    },
    {
      "midi": 63,
      "time": 315.5,
      "duration": 0.25,
      "velocity": 0.71,
      "hand": "right"
    },
    {
      "midi": 67,
      "time": 315.5,
      "duration": 0.25,
      "velocity": 0.71,
      "hand": "right"
    },
    {
      "midi": 72,
      "time": 315.5,
      "duration": 0.25,
      "velocity": 0.71,
      "hand": "right"
    },
    {
      "midi": 79,
      "time": 315.5,
      "duration": 0.25,
      "velocity": 0.71,
      "hand": "right"
    },
    {
      "midi": 82,
      "time": 315.5,
      "duration": 0.25,
      "velocity": 0.71,
      "hand": "right"
    },
    {
      "midi": 84,
      "time": 315.5,
      "duration": 0.5,
      "velocity": 0.71,
      "hand": "right"
    },
    {
      "midi": 63,
      "time": 315.75,
      "duration": 0.25,
      "velocity": 0.71,
      "hand": "right"
    },
    {
      "midi": 67,
      "time": 315.75,
      "duration": 0.25,
      "velocity": 0.71,
      "hand": "right"
    },
    {
      "midi": 72,
      "time": 315.75,
      "duration": 0.25,
      "velocity": 0.71,
      "hand": "right"
    },
    {
      "midi": 79,
      "time": 315.75,
      "duration": 0.25,
      "velocity": 0.71,
      "hand": "right"
    },
    {
      "midi": 67,
      "time": 316,
      "duration": 0.25,
      "velocity": 0.71,
      "hand": "right"
    },
    {
      "midi": 70,
      "time": 316,
      "duration": 0.25,
      "velocity": 0.71,
      "hand": "right"
    },
    {
      "midi": 74,
      "time": 316,
      "duration": 0.25,
      "velocity": 0.71,
      "hand": "right"
    },
    {
      "midi": 79,
      "time": 316,
      "duration": 0.5,
      "velocity": 0.71,
      "hand": "right"
    },
    {
      "midi": 82,
      "time": 316,
      "duration": 0.25,
      "velocity": 0.71,
      "hand": "right"
    },
    {
      "midi": 67,
      "time": 316.25,
      "duration": 0.25,
      "velocity": 0.71,
      "hand": "right"
    },
    {
      "midi": 70,
      "time": 316.25,
      "duration": 0.25,
      "velocity": 0.71,
      "hand": "right"
    },
    {
      "midi": 74,
      "time": 316.25,
      "duration": 0.25,
      "velocity": 0.71,
      "hand": "right"
    },
    {
      "midi": 67,
      "time": 316.5,
      "duration": 0.25,
      "velocity": 0.71,
      "hand": "right"
    },
    {
      "midi": 70,
      "time": 316.5,
      "duration": 0.25,
      "velocity": 0.71,
      "hand": "right"
    },
    {
      "midi": 74,
      "time": 316.5,
      "duration": 0.25,
      "velocity": 0.71,
      "hand": "right"
    },
    {
      "midi": 79,
      "time": 316.5,
      "duration": 1,
      "velocity": 0.71,
      "hand": "right"
    },
    {
      "midi": 67,
      "time": 316.75,
      "duration": 0.25,
      "velocity": 0.71,
      "hand": "right"
    },
    {
      "midi": 70,
      "time": 316.75,
      "duration": 0.25,
      "velocity": 0.71,
      "hand": "right"
    },
    {
      "midi": 74,
      "time": 316.75,
      "duration": 0.25,
      "velocity": 0.71,
      "hand": "right"
    },
    {
      "midi": 67,
      "time": 317,
      "duration": 0.25,
      "velocity": 0.71,
      "hand": "right"
    },
    {
      "midi": 70,
      "time": 317,
      "duration": 0.25,
      "velocity": 0.71,
      "hand": "right"
    },
    {
      "midi": 74,
      "time": 317,
      "duration": 0.25,
      "velocity": 0.71,
      "hand": "right"
    },
    {
      "midi": 91,
      "time": 317,
      "duration": 0.5,
      "velocity": 0.71,
      "hand": "right"
    },
    {
      "midi": 98,
      "time": 317,
      "duration": 0.5,
      "velocity": 0.71,
      "hand": "right"
    },
    {
      "midi": 67,
      "time": 317.25,
      "duration": 0.25,
      "velocity": 0.71,
      "hand": "right"
    },
    {
      "midi": 70,
      "time": 317.25,
      "duration": 0.25,
      "velocity": 0.71,
      "hand": "right"
    },
    {
      "midi": 74,
      "time": 317.25,
      "duration": 0.25,
      "velocity": 0.71,
      "hand": "right"
    },
    {
      "midi": 67,
      "time": 317.5,
      "duration": 0.25,
      "velocity": 0.71,
      "hand": "right"
    },
    {
      "midi": 70,
      "time": 317.5,
      "duration": 0.25,
      "velocity": 0.71,
      "hand": "right"
    },
    {
      "midi": 75,
      "time": 317.5,
      "duration": 0.25,
      "velocity": 0.71,
      "hand": "right"
    },
    {
      "midi": 82,
      "time": 317.5,
      "duration": 0.25,
      "velocity": 0.71,
      "hand": "right"
    },
    {
      "midi": 67,
      "time": 317.75,
      "duration": 0.25,
      "velocity": 0.71,
      "hand": "right"
    },
    {
      "midi": 70,
      "time": 317.75,
      "duration": 0.25,
      "velocity": 0.71,
      "hand": "right"
    },
    {
      "midi": 75,
      "time": 317.75,
      "duration": 0.25,
      "velocity": 0.71,
      "hand": "right"
    },
    {
      "midi": 82,
      "time": 317.75,
      "duration": 0.25,
      "velocity": 0.71,
      "hand": "right"
    },
    {
      "midi": 84,
      "time": 317.75,
      "duration": 0.25,
      "velocity": 0.71,
      "hand": "right"
    },
    {
      "midi": 67,
      "time": 318,
      "duration": 0.25,
      "velocity": 0.71,
      "hand": "right"
    },
    {
      "midi": 70,
      "time": 318,
      "duration": 0.25,
      "velocity": 0.71,
      "hand": "right"
    },
    {
      "midi": 74,
      "time": 318,
      "duration": 0.25,
      "velocity": 0.71,
      "hand": "right"
    },
    {
      "midi": 79,
      "time": 318,
      "duration": 0.25,
      "velocity": 0.71,
      "hand": "right"
    },
    {
      "midi": 82,
      "time": 318,
      "duration": 0.25,
      "velocity": 0.71,
      "hand": "right"
    },
    {
      "midi": 86,
      "time": 318,
      "duration": 0.5,
      "velocity": 0.71,
      "hand": "right"
    },
    {
      "midi": 67,
      "time": 318.25,
      "duration": 0.25,
      "velocity": 0.71,
      "hand": "right"
    },
    {
      "midi": 70,
      "time": 318.25,
      "duration": 0.25,
      "velocity": 0.71,
      "hand": "right"
    },
    {
      "midi": 74,
      "time": 318.25,
      "duration": 0.25,
      "velocity": 0.71,
      "hand": "right"
    },
    {
      "midi": 79,
      "time": 318.25,
      "duration": 0.25,
      "velocity": 0.71,
      "hand": "right"
    },
    {
      "midi": 82,
      "time": 318.25,
      "duration": 0.25,
      "velocity": 0.71,
      "hand": "right"
    },
    {
      "midi": 67,
      "time": 318.5,
      "duration": 0.25,
      "velocity": 0.71,
      "hand": "right"
    },
    {
      "midi": 70,
      "time": 318.5,
      "duration": 0.25,
      "velocity": 0.71,
      "hand": "right"
    },
    {
      "midi": 74,
      "time": 318.5,
      "duration": 0.25,
      "velocity": 0.71,
      "hand": "right"
    },
    {
      "midi": 79,
      "time": 318.5,
      "duration": 0.25,
      "velocity": 0.71,
      "hand": "right"
    },
    {
      "midi": 82,
      "time": 318.5,
      "duration": 0.25,
      "velocity": 0.71,
      "hand": "right"
    },
    {
      "midi": 86,
      "time": 318.5,
      "duration": 1,
      "velocity": 0.71,
      "hand": "right"
    },
    {
      "midi": 67,
      "time": 318.75,
      "duration": 0.25,
      "velocity": 0.71,
      "hand": "right"
    },
    {
      "midi": 70,
      "time": 318.75,
      "duration": 0.25,
      "velocity": 0.71,
      "hand": "right"
    },
    {
      "midi": 74,
      "time": 318.75,
      "duration": 0.25,
      "velocity": 0.71,
      "hand": "right"
    },
    {
      "midi": 79,
      "time": 318.75,
      "duration": 0.25,
      "velocity": 0.71,
      "hand": "right"
    },
    {
      "midi": 82,
      "time": 318.75,
      "duration": 0.25,
      "velocity": 0.71,
      "hand": "right"
    },
    {
      "midi": 67,
      "time": 319,
      "duration": 0.25,
      "velocity": 0.71,
      "hand": "right"
    },
    {
      "midi": 70,
      "time": 319,
      "duration": 0.25,
      "velocity": 0.71,
      "hand": "right"
    },
    {
      "midi": 74,
      "time": 319,
      "duration": 0.25,
      "velocity": 0.71,
      "hand": "right"
    },
    {
      "midi": 79,
      "time": 319,
      "duration": 0.25,
      "velocity": 0.71,
      "hand": "right"
    },
    {
      "midi": 82,
      "time": 319,
      "duration": 0.25,
      "velocity": 0.71,
      "hand": "right"
    },
    {
      "midi": 67,
      "time": 319.25,
      "duration": 0.25,
      "velocity": 0.71,
      "hand": "right"
    },
    {
      "midi": 70,
      "time": 319.25,
      "duration": 0.25,
      "velocity": 0.71,
      "hand": "right"
    },
    {
      "midi": 74,
      "time": 319.25,
      "duration": 0.25,
      "velocity": 0.71,
      "hand": "right"
    },
    {
      "midi": 79,
      "time": 319.25,
      "duration": 0.25,
      "velocity": 0.71,
      "hand": "right"
    },
    {
      "midi": 82,
      "time": 319.25,
      "duration": 0.25,
      "velocity": 0.71,
      "hand": "right"
    },
    {
      "midi": 63,
      "time": 319.5,
      "duration": 0.25,
      "velocity": 0.71,
      "hand": "right"
    },
    {
      "midi": 67,
      "time": 319.5,
      "duration": 0.25,
      "velocity": 0.71,
      "hand": "right"
    },
    {
      "midi": 72,
      "time": 319.5,
      "duration": 0.25,
      "velocity": 0.71,
      "hand": "right"
    },
    {
      "midi": 79,
      "time": 319.5,
      "duration": 0.25,
      "velocity": 0.71,
      "hand": "right"
    },
    {
      "midi": 84,
      "time": 319.5,
      "duration": 0.25,
      "velocity": 0.71,
      "hand": "right"
    },
    {
      "midi": 63,
      "time": 319.75,
      "duration": 0.25,
      "velocity": 0.71,
      "hand": "right"
    },
    {
      "midi": 67,
      "time": 319.75,
      "duration": 0.25,
      "velocity": 0.71,
      "hand": "right"
    },
    {
      "midi": 72,
      "time": 319.75,
      "duration": 0.25,
      "velocity": 0.71,
      "hand": "right"
    },
    {
      "midi": 79,
      "time": 319.75,
      "duration": 0.25,
      "velocity": 0.71,
      "hand": "right"
    },
    {
      "midi": 84,
      "time": 319.75,
      "duration": 0.25,
      "velocity": 0.71,
      "hand": "right"
    },
    {
      "midi": 86,
      "time": 319.75,
      "duration": 0.25,
      "velocity": 0.71,
      "hand": "right"
    },
    {
      "midi": 67,
      "time": 320,
      "duration": 0.25,
      "velocity": 0.71,
      "hand": "right"
    },
    {
      "midi": 70,
      "time": 320,
      "duration": 0.25,
      "velocity": 0.71,
      "hand": "right"
    },
    {
      "midi": 74,
      "time": 320,
      "duration": 0.25,
      "velocity": 0.71,
      "hand": "right"
    },
    {
      "midi": 79,
      "time": 320,
      "duration": 0.25,
      "velocity": 0.71,
      "hand": "right"
    },
    {
      "midi": 82,
      "time": 320,
      "duration": 0.25,
      "velocity": 0.71,
      "hand": "right"
    },
    {
      "midi": 86,
      "time": 320,
      "duration": 0.5,
      "velocity": 0.71,
      "hand": "right"
    },
    {
      "midi": 91,
      "time": 320,
      "duration": 0.25,
      "velocity": 0.71,
      "hand": "right"
    },
    {
      "midi": 67,
      "time": 320.25,
      "duration": 0.25,
      "velocity": 0.71,
      "hand": "right"
    },
    {
      "midi": 70,
      "time": 320.25,
      "duration": 0.25,
      "velocity": 0.71,
      "hand": "right"
    },
    {
      "midi": 74,
      "time": 320.25,
      "duration": 0.25,
      "velocity": 0.71,
      "hand": "right"
    },
    {
      "midi": 79,
      "time": 320.25,
      "duration": 0.25,
      "velocity": 0.71,
      "hand": "right"
    },
    {
      "midi": 82,
      "time": 320.25,
      "duration": 0.25,
      "velocity": 0.71,
      "hand": "right"
    },
    {
      "midi": 67,
      "time": 320.5,
      "duration": 0.25,
      "velocity": 0.71,
      "hand": "right"
    },
    {
      "midi": 70,
      "time": 320.5,
      "duration": 0.25,
      "velocity": 0.71,
      "hand": "right"
    },
    {
      "midi": 74,
      "time": 320.5,
      "duration": 0.25,
      "velocity": 0.71,
      "hand": "right"
    },
    {
      "midi": 79,
      "time": 320.5,
      "duration": 0.25,
      "velocity": 0.71,
      "hand": "right"
    },
    {
      "midi": 82,
      "time": 320.5,
      "duration": 0.25,
      "velocity": 0.71,
      "hand": "right"
    },
    {
      "midi": 86,
      "time": 320.5,
      "duration": 1,
      "velocity": 0.71,
      "hand": "right"
    },
    {
      "midi": 67,
      "time": 320.75,
      "duration": 0.25,
      "velocity": 0.71,
      "hand": "right"
    },
    {
      "midi": 70,
      "time": 320.75,
      "duration": 0.25,
      "velocity": 0.71,
      "hand": "right"
    },
    {
      "midi": 74,
      "time": 320.75,
      "duration": 0.25,
      "velocity": 0.71,
      "hand": "right"
    },
    {
      "midi": 79,
      "time": 320.75,
      "duration": 0.25,
      "velocity": 0.71,
      "hand": "right"
    },
    {
      "midi": 82,
      "time": 320.75,
      "duration": 0.25,
      "velocity": 0.71,
      "hand": "right"
    },
    {
      "midi": 67,
      "time": 321,
      "duration": 0.25,
      "velocity": 0.71,
      "hand": "right"
    },
    {
      "midi": 70,
      "time": 321,
      "duration": 0.25,
      "velocity": 0.71,
      "hand": "right"
    },
    {
      "midi": 74,
      "time": 321,
      "duration": 0.25,
      "velocity": 0.71,
      "hand": "right"
    },
    {
      "midi": 79,
      "time": 321,
      "duration": 0.25,
      "velocity": 0.71,
      "hand": "right"
    },
    {
      "midi": 82,
      "time": 321,
      "duration": 0.25,
      "velocity": 0.71,
      "hand": "right"
    },
    {
      "midi": 67,
      "time": 321.25,
      "duration": 0.25,
      "velocity": 0.71,
      "hand": "right"
    },
    {
      "midi": 70,
      "time": 321.25,
      "duration": 0.25,
      "velocity": 0.71,
      "hand": "right"
    },
    {
      "midi": 74,
      "time": 321.25,
      "duration": 0.25,
      "velocity": 0.71,
      "hand": "right"
    },
    {
      "midi": 79,
      "time": 321.25,
      "duration": 0.25,
      "velocity": 0.71,
      "hand": "right"
    },
    {
      "midi": 82,
      "time": 321.25,
      "duration": 0.25,
      "velocity": 0.71,
      "hand": "right"
    },
    {
      "midi": 63,
      "time": 321.5,
      "duration": 0.25,
      "velocity": 0.71,
      "hand": "right"
    },
    {
      "midi": 67,
      "time": 321.5,
      "duration": 0.25,
      "velocity": 0.71,
      "hand": "right"
    },
    {
      "midi": 72,
      "time": 321.5,
      "duration": 0.25,
      "velocity": 0.71,
      "hand": "right"
    },
    {
      "midi": 79,
      "time": 321.5,
      "duration": 0.25,
      "velocity": 0.71,
      "hand": "right"
    },
    {
      "midi": 84,
      "time": 321.5,
      "duration": 0.25,
      "velocity": 0.71,
      "hand": "right"
    },
    {
      "midi": 63,
      "time": 321.75,
      "duration": 0.25,
      "velocity": 0.71,
      "hand": "right"
    },
    {
      "midi": 67,
      "time": 321.75,
      "duration": 0.25,
      "velocity": 0.71,
      "hand": "right"
    },
    {
      "midi": 72,
      "time": 321.75,
      "duration": 0.25,
      "velocity": 0.71,
      "hand": "right"
    },
    {
      "midi": 79,
      "time": 321.75,
      "duration": 0.25,
      "velocity": 0.71,
      "hand": "right"
    },
    {
      "midi": 84,
      "time": 321.75,
      "duration": 0.25,
      "velocity": 0.71,
      "hand": "right"
    },
    {
      "midi": 86,
      "time": 321.75,
      "duration": 0.25,
      "velocity": 0.71,
      "hand": "right"
    },
    {
      "midi": 67,
      "time": 322,
      "duration": 0.25,
      "velocity": 0.71,
      "hand": "right"
    },
    {
      "midi": 70,
      "time": 322,
      "duration": 0.25,
      "velocity": 0.71,
      "hand": "right"
    },
    {
      "midi": 74,
      "time": 322,
      "duration": 0.25,
      "velocity": 0.71,
      "hand": "right"
    },
    {
      "midi": 79,
      "time": 322,
      "duration": 0.5,
      "velocity": 0.71,
      "hand": "right"
    },
    {
      "midi": 86,
      "time": 322,
      "duration": 0.25,
      "velocity": 0.71,
      "hand": "right"
    },
    {
      "midi": 67,
      "time": 322.25,
      "duration": 0.25,
      "velocity": 0.71,
      "hand": "right"
    },
    {
      "midi": 70,
      "time": 322.25,
      "duration": 0.25,
      "velocity": 0.71,
      "hand": "right"
    },
    {
      "midi": 74,
      "time": 322.25,
      "duration": 0.25,
      "velocity": 0.71,
      "hand": "right"
    },
    {
      "midi": 67,
      "time": 322.5,
      "duration": 0.25,
      "velocity": 0.71,
      "hand": "right"
    },
    {
      "midi": 72,
      "time": 322.5,
      "duration": 0.25,
      "velocity": 0.71,
      "hand": "right"
    },
    {
      "midi": 75,
      "time": 322.5,
      "duration": 0.25,
      "velocity": 0.71,
      "hand": "right"
    },
    {
      "midi": 81,
      "time": 322.5,
      "duration": 0.5,
      "velocity": 0.71,
      "hand": "right"
    },
    {
      "midi": 82,
      "time": 322.5,
      "duration": 0.25,
      "velocity": 0.71,
      "hand": "right"
    },
    {
      "midi": 67,
      "time": 322.75,
      "duration": 0.25,
      "velocity": 0.71,
      "hand": "right"
    },
    {
      "midi": 72,
      "time": 322.75,
      "duration": 0.25,
      "velocity": 0.71,
      "hand": "right"
    },
    {
      "midi": 75,
      "time": 322.75,
      "duration": 0.25,
      "velocity": 0.71,
      "hand": "right"
    },
    {
      "midi": 67,
      "time": 323,
      "duration": 0.25,
      "velocity": 0.71,
      "hand": "right"
    },
    {
      "midi": 70,
      "time": 323,
      "duration": 0.25,
      "velocity": 0.71,
      "hand": "right"
    },
    {
      "midi": 74,
      "time": 323,
      "duration": 0.25,
      "velocity": 0.71,
      "hand": "right"
    },
    {
      "midi": 79,
      "time": 323,
      "duration": 0.5,
      "velocity": 0.71,
      "hand": "right"
    },
    {
      "midi": 82,
      "time": 323,
      "duration": 0.25,
      "velocity": 0.71,
      "hand": "right"
    },
    {
      "midi": 67,
      "time": 323.25,
      "duration": 0.25,
      "velocity": 0.71,
      "hand": "right"
    },
    {
      "midi": 70,
      "time": 323.25,
      "duration": 0.25,
      "velocity": 0.71,
      "hand": "right"
    },
    {
      "midi": 74,
      "time": 323.25,
      "duration": 0.25,
      "velocity": 0.71,
      "hand": "right"
    },
    {
      "midi": 63,
      "time": 323.5,
      "duration": 0.25,
      "velocity": 0.71,
      "hand": "right"
    },
    {
      "midi": 67,
      "time": 323.5,
      "duration": 0.25,
      "velocity": 0.71,
      "hand": "right"
    },
    {
      "midi": 72,
      "time": 323.5,
      "duration": 0.25,
      "velocity": 0.71,
      "hand": "right"
    },
    {
      "midi": 79,
      "time": 323.5,
      "duration": 0.25,
      "velocity": 0.71,
      "hand": "right"
    },
    {
      "midi": 82,
      "time": 323.5,
      "duration": 0.25,
      "velocity": 0.71,
      "hand": "right"
    },
    {
      "midi": 84,
      "time": 323.5,
      "duration": 0.5,
      "velocity": 0.71,
      "hand": "right"
    },
    {
      "midi": 63,
      "time": 323.75,
      "duration": 0.25,
      "velocity": 0.71,
      "hand": "right"
    },
    {
      "midi": 67,
      "time": 323.75,
      "duration": 0.25,
      "velocity": 0.71,
      "hand": "right"
    },
    {
      "midi": 72,
      "time": 323.75,
      "duration": 0.25,
      "velocity": 0.71,
      "hand": "right"
    },
    {
      "midi": 79,
      "time": 323.75,
      "duration": 0.25,
      "velocity": 0.71,
      "hand": "right"
    },
    {
      "midi": 67,
      "time": 324,
      "duration": 0.25,
      "velocity": 0.71,
      "hand": "right"
    },
    {
      "midi": 70,
      "time": 324,
      "duration": 0.25,
      "velocity": 0.71,
      "hand": "right"
    },
    {
      "midi": 74,
      "time": 324,
      "duration": 0.25,
      "velocity": 0.71,
      "hand": "right"
    },
    {
      "midi": 79,
      "time": 324,
      "duration": 0.5,
      "velocity": 0.71,
      "hand": "right"
    },
    {
      "midi": 82,
      "time": 324,
      "duration": 0.25,
      "velocity": 0.71,
      "hand": "right"
    },
    {
      "midi": 67,
      "time": 324.25,
      "duration": 0.25,
      "velocity": 0.71,
      "hand": "right"
    },
    {
      "midi": 70,
      "time": 324.25,
      "duration": 0.25,
      "velocity": 0.71,
      "hand": "right"
    },
    {
      "midi": 74,
      "time": 324.25,
      "duration": 0.25,
      "velocity": 0.71,
      "hand": "right"
    },
    {
      "midi": 67,
      "time": 324.5,
      "duration": 0.25,
      "velocity": 0.71,
      "hand": "right"
    },
    {
      "midi": 70,
      "time": 324.5,
      "duration": 0.25,
      "velocity": 0.71,
      "hand": "right"
    },
    {
      "midi": 74,
      "time": 324.5,
      "duration": 0.25,
      "velocity": 0.71,
      "hand": "right"
    },
    {
      "midi": 79,
      "time": 324.5,
      "duration": 1,
      "velocity": 0.71,
      "hand": "right"
    },
    {
      "midi": 67,
      "time": 324.75,
      "duration": 0.25,
      "velocity": 0.71,
      "hand": "right"
    },
    {
      "midi": 70,
      "time": 324.75,
      "duration": 0.25,
      "velocity": 0.71,
      "hand": "right"
    },
    {
      "midi": 74,
      "time": 324.75,
      "duration": 0.25,
      "velocity": 0.71,
      "hand": "right"
    },
    {
      "midi": 67,
      "time": 325,
      "duration": 0.25,
      "velocity": 0.71,
      "hand": "right"
    },
    {
      "midi": 70,
      "time": 325,
      "duration": 0.25,
      "velocity": 0.71,
      "hand": "right"
    },
    {
      "midi": 74,
      "time": 325,
      "duration": 0.25,
      "velocity": 0.71,
      "hand": "right"
    },
    {
      "midi": 91,
      "time": 325,
      "duration": 0.5,
      "velocity": 0.71,
      "hand": "right"
    },
    {
      "midi": 98,
      "time": 325,
      "duration": 0.5,
      "velocity": 0.71,
      "hand": "right"
    },
    {
      "midi": 67,
      "time": 325.25,
      "duration": 0.25,
      "velocity": 0.71,
      "hand": "right"
    },
    {
      "midi": 70,
      "time": 325.25,
      "duration": 0.25,
      "velocity": 0.71,
      "hand": "right"
    },
    {
      "midi": 74,
      "time": 325.25,
      "duration": 0.25,
      "velocity": 0.71,
      "hand": "right"
    },
    {
      "midi": 67,
      "time": 325.5,
      "duration": 0.25,
      "velocity": 0.71,
      "hand": "right"
    },
    {
      "midi": 70,
      "time": 325.5,
      "duration": 0.25,
      "velocity": 0.71,
      "hand": "right"
    },
    {
      "midi": 75,
      "time": 325.5,
      "duration": 0.25,
      "velocity": 0.71,
      "hand": "right"
    },
    {
      "midi": 82,
      "time": 325.5,
      "duration": 0.25,
      "velocity": 0.71,
      "hand": "right"
    },
    {
      "midi": 67,
      "time": 325.75,
      "duration": 0.25,
      "velocity": 0.71,
      "hand": "right"
    },
    {
      "midi": 70,
      "time": 325.75,
      "duration": 0.25,
      "velocity": 0.71,
      "hand": "right"
    },
    {
      "midi": 75,
      "time": 325.75,
      "duration": 0.25,
      "velocity": 0.71,
      "hand": "right"
    },
    {
      "midi": 84,
      "time": 325.75,
      "duration": 0.25,
      "velocity": 0.71,
      "hand": "right"
    },
    {
      "midi": 66,
      "time": 326,
      "duration": 0.25,
      "velocity": 0.71,
      "hand": "right"
    },
    {
      "midi": 70,
      "time": 326,
      "duration": 0.25,
      "velocity": 0.71,
      "hand": "right"
    },
    {
      "midi": 74,
      "time": 326,
      "duration": 0.25,
      "velocity": 0.71,
      "hand": "right"
    },
    {
      "midi": 76,
      "time": 326,
      "duration": 0.25,
      "velocity": 0.71,
      "hand": "right"
    },
    {
      "midi": 82,
      "time": 326,
      "duration": 0.25,
      "velocity": 0.71,
      "hand": "right"
    },
    {
      "midi": 86,
      "time": 326,
      "duration": 0.5,
      "velocity": 0.71,
      "hand": "right"
    },
    {
      "midi": 66,
      "time": 326.25,
      "duration": 0.25,
      "velocity": 0.71,
      "hand": "right"
    },
    {
      "midi": 70,
      "time": 326.25,
      "duration": 0.25,
      "velocity": 0.71,
      "hand": "right"
    },
    {
      "midi": 74,
      "time": 326.25,
      "duration": 0.25,
      "velocity": 0.71,
      "hand": "right"
    },
    {
      "midi": 76,
      "time": 326.25,
      "duration": 0.25,
      "velocity": 0.71,
      "hand": "right"
    },
    {
      "midi": 82,
      "time": 326.25,
      "duration": 0.25,
      "velocity": 0.71,
      "hand": "right"
    },
    {
      "midi": 66,
      "time": 326.5,
      "duration": 0.25,
      "velocity": 0.71,
      "hand": "right"
    },
    {
      "midi": 70,
      "time": 326.5,
      "duration": 0.25,
      "velocity": 0.71,
      "hand": "right"
    },
    {
      "midi": 74,
      "time": 326.5,
      "duration": 0.25,
      "velocity": 0.71,
      "hand": "right"
    },
    {
      "midi": 76,
      "time": 326.5,
      "duration": 0.25,
      "velocity": 0.71,
      "hand": "right"
    },
    {
      "midi": 82,
      "time": 326.5,
      "duration": 0.25,
      "velocity": 0.71,
      "hand": "right"
    },
    {
      "midi": 86,
      "time": 326.5,
      "duration": 1,
      "velocity": 0.71,
      "hand": "right"
    },
    {
      "midi": 66,
      "time": 326.75,
      "duration": 0.25,
      "velocity": 0.71,
      "hand": "right"
    },
    {
      "midi": 70,
      "time": 326.75,
      "duration": 0.25,
      "velocity": 0.71,
      "hand": "right"
    },
    {
      "midi": 74,
      "time": 326.75,
      "duration": 0.25,
      "velocity": 0.71,
      "hand": "right"
    },
    {
      "midi": 76,
      "time": 326.75,
      "duration": 0.25,
      "velocity": 0.71,
      "hand": "right"
    },
    {
      "midi": 82,
      "time": 326.75,
      "duration": 0.25,
      "velocity": 0.71,
      "hand": "right"
    },
    {
      "midi": 65,
      "time": 327,
      "duration": 0.25,
      "velocity": 0.71,
      "hand": "right"
    },
    {
      "midi": 70,
      "time": 327,
      "duration": 0.25,
      "velocity": 0.71,
      "hand": "right"
    },
    {
      "midi": 74,
      "time": 327,
      "duration": 0.25,
      "velocity": 0.71,
      "hand": "right"
    },
    {
      "midi": 77,
      "time": 327,
      "duration": 0.25,
      "velocity": 0.71,
      "hand": "right"
    },
    {
      "midi": 82,
      "time": 327,
      "duration": 0.25,
      "velocity": 0.71,
      "hand": "right"
    },
    {
      "midi": 65,
      "time": 327.25,
      "duration": 0.25,
      "velocity": 0.71,
      "hand": "right"
    },
    {
      "midi": 70,
      "time": 327.25,
      "duration": 0.25,
      "velocity": 0.71,
      "hand": "right"
    },
    {
      "midi": 74,
      "time": 327.25,
      "duration": 0.25,
      "velocity": 0.71,
      "hand": "right"
    },
    {
      "midi": 77,
      "time": 327.25,
      "duration": 0.25,
      "velocity": 0.71,
      "hand": "right"
    },
    {
      "midi": 82,
      "time": 327.25,
      "duration": 0.25,
      "velocity": 0.71,
      "hand": "right"
    },
    {
      "midi": 64,
      "time": 327.5,
      "duration": 0.25,
      "velocity": 0.71,
      "hand": "right"
    },
    {
      "midi": 67,
      "time": 327.5,
      "duration": 0.25,
      "velocity": 0.71,
      "hand": "right"
    },
    {
      "midi": 72,
      "time": 327.5,
      "duration": 0.25,
      "velocity": 0.71,
      "hand": "right"
    },
    {
      "midi": 79,
      "time": 327.5,
      "duration": 0.25,
      "velocity": 0.71,
      "hand": "right"
    },
    {
      "midi": 64,
      "time": 327.75,
      "duration": 0.25,
      "velocity": 0.71,
      "hand": "right"
    },
    {
      "midi": 67,
      "time": 327.75,
      "duration": 0.25,
      "velocity": 0.71,
      "hand": "right"
    },
    {
      "midi": 72,
      "time": 327.75,
      "duration": 0.25,
      "velocity": 0.71,
      "hand": "right"
    },
    {
      "midi": 79,
      "time": 327.75,
      "duration": 0.25,
      "velocity": 0.71,
      "hand": "right"
    },
    {
      "midi": 81,
      "time": 327.75,
      "duration": 0.25,
      "velocity": 0.71,
      "hand": "right"
    },
    {
      "midi": 63,
      "time": 328,
      "duration": 0.25,
      "velocity": 0.71,
      "hand": "right"
    },
    {
      "midi": 67,
      "time": 328,
      "duration": 0.25,
      "velocity": 0.71,
      "hand": "right"
    },
    {
      "midi": 70,
      "time": 328,
      "duration": 0.25,
      "velocity": 0.71,
      "hand": "right"
    },
    {
      "midi": 73,
      "time": 328,
      "duration": 0.25,
      "velocity": 0.71,
      "hand": "right"
    },
    {
      "midi": 79,
      "time": 328,
      "duration": 0.25,
      "velocity": 0.71,
      "hand": "right"
    },
    {
      "midi": 81,
      "time": 328,
      "duration": 0.25,
      "velocity": 0.71,
      "hand": "right"
    },
    {
      "midi": 82,
      "time": 328,
      "duration": 0.5,
      "velocity": 0.71,
      "hand": "right"
    },
    {
      "midi": 63,
      "time": 328.25,
      "duration": 0.25,
      "velocity": 0.71,
      "hand": "right"
    },
    {
      "midi": 67,
      "time": 328.25,
      "duration": 0.25,
      "velocity": 0.71,
      "hand": "right"
    },
    {
      "midi": 70,
      "time": 328.25,
      "duration": 0.25,
      "velocity": 0.71,
      "hand": "right"
    },
    {
      "midi": 73,
      "time": 328.25,
      "duration": 0.25,
      "velocity": 0.71,
      "hand": "right"
    },
    {
      "midi": 79,
      "time": 328.25,
      "duration": 0.25,
      "velocity": 0.71,
      "hand": "right"
    },
    {
      "midi": 63,
      "time": 328.5,
      "duration": 0.25,
      "velocity": 0.71,
      "hand": "right"
    },
    {
      "midi": 67,
      "time": 328.5,
      "duration": 0.25,
      "velocity": 0.71,
      "hand": "right"
    },
    {
      "midi": 70,
      "time": 328.5,
      "duration": 0.25,
      "velocity": 0.71,
      "hand": "right"
    },
    {
      "midi": 73,
      "time": 328.5,
      "duration": 0.25,
      "velocity": 0.71,
      "hand": "right"
    },
    {
      "midi": 79,
      "time": 328.5,
      "duration": 0.25,
      "velocity": 0.71,
      "hand": "right"
    },
    {
      "midi": 82,
      "time": 328.5,
      "duration": 1,
      "velocity": 0.71,
      "hand": "right"
    },
    {
      "midi": 63,
      "time": 328.75,
      "duration": 0.25,
      "velocity": 0.71,
      "hand": "right"
    },
    {
      "midi": 67,
      "time": 328.75,
      "duration": 0.25,
      "velocity": 0.71,
      "hand": "right"
    },
    {
      "midi": 70,
      "time": 328.75,
      "duration": 0.25,
      "velocity": 0.71,
      "hand": "right"
    },
    {
      "midi": 73,
      "time": 328.75,
      "duration": 0.25,
      "velocity": 0.71,
      "hand": "right"
    },
    {
      "midi": 79,
      "time": 328.75,
      "duration": 0.25,
      "velocity": 0.71,
      "hand": "right"
    },
    {
      "midi": 62,
      "time": 329,
      "duration": 0.25,
      "velocity": 0.71,
      "hand": "right"
    },
    {
      "midi": 67,
      "time": 329,
      "duration": 0.25,
      "velocity": 0.71,
      "hand": "right"
    },
    {
      "midi": 70,
      "time": 329,
      "duration": 0.25,
      "velocity": 0.71,
      "hand": "right"
    },
    {
      "midi": 74,
      "time": 329,
      "duration": 0.25,
      "velocity": 0.71,
      "hand": "right"
    },
    {
      "midi": 79,
      "time": 329,
      "duration": 0.25,
      "velocity": 0.71,
      "hand": "right"
    },
    {
      "midi": 62,
      "time": 329.25,
      "duration": 0.25,
      "velocity": 0.71,
      "hand": "right"
    },
    {
      "midi": 67,
      "time": 329.25,
      "duration": 0.25,
      "velocity": 0.71,
      "hand": "right"
    },
    {
      "midi": 70,
      "time": 329.25,
      "duration": 0.25,
      "velocity": 0.71,
      "hand": "right"
    },
    {
      "midi": 74,
      "time": 329.25,
      "duration": 0.25,
      "velocity": 0.71,
      "hand": "right"
    },
    {
      "midi": 79,
      "time": 329.25,
      "duration": 0.25,
      "velocity": 0.71,
      "hand": "right"
    },
    {
      "midi": 61,
      "time": 329.5,
      "duration": 0.25,
      "velocity": 0.71,
      "hand": "right"
    },
    {
      "midi": 64,
      "time": 329.5,
      "duration": 0.25,
      "velocity": 0.71,
      "hand": "right"
    },
    {
      "midi": 69,
      "time": 329.5,
      "duration": 0.25,
      "velocity": 0.71,
      "hand": "right"
    },
    {
      "midi": 76,
      "time": 329.5,
      "duration": 0.25,
      "velocity": 0.71,
      "hand": "right"
    },
    {
      "midi": 61,
      "time": 329.75,
      "duration": 0.25,
      "velocity": 0.71,
      "hand": "right"
    },
    {
      "midi": 64,
      "time": 329.75,
      "duration": 0.25,
      "velocity": 0.71,
      "hand": "right"
    },
    {
      "midi": 69,
      "time": 329.75,
      "duration": 0.25,
      "velocity": 0.71,
      "hand": "right"
    },
    {
      "midi": 76,
      "time": 329.75,
      "duration": 0.25,
      "velocity": 0.71,
      "hand": "right"
    },
    {
      "midi": 78,
      "time": 329.75,
      "duration": 0.25,
      "velocity": 0.71,
      "hand": "right"
    },
    {
      "midi": 60,
      "time": 330,
      "duration": 0.25,
      "velocity": 0.71,
      "hand": "right"
    },
    {
      "midi": 64,
      "time": 330,
      "duration": 0.25,
      "velocity": 0.71,
      "hand": "right"
    },
    {
      "midi": 67,
      "time": 330,
      "duration": 0.25,
      "velocity": 0.71,
      "hand": "right"
    },
    {
      "midi": 70,
      "time": 330,
      "duration": 0.25,
      "velocity": 0.71,
      "hand": "right"
    },
    {
      "midi": 76,
      "time": 330,
      "duration": 0.25,
      "velocity": 0.71,
      "hand": "right"
    },
    {
      "midi": 78,
      "time": 330,
      "duration": 0.25,
      "velocity": 0.71,
      "hand": "right"
    },
    {
      "midi": 79,
      "time": 330,
      "duration": 0.5,
      "velocity": 0.71,
      "hand": "right"
    },
    {
      "midi": 60,
      "time": 330.25,
      "duration": 0.25,
      "velocity": 0.71,
      "hand": "right"
    },
    {
      "midi": 64,
      "time": 330.25,
      "duration": 0.25,
      "velocity": 0.71,
      "hand": "right"
    },
    {
      "midi": 67,
      "time": 330.25,
      "duration": 0.25,
      "velocity": 0.71,
      "hand": "right"
    },
    {
      "midi": 70,
      "time": 330.25,
      "duration": 0.25,
      "velocity": 0.71,
      "hand": "right"
    },
    {
      "midi": 76,
      "time": 330.25,
      "duration": 0.25,
      "velocity": 0.71,
      "hand": "right"
    },
    {
      "midi": 59,
      "time": 330.5,
      "duration": 0.25,
      "velocity": 0.71,
      "hand": "left"
    },
    {
      "midi": 64,
      "time": 330.5,
      "duration": 0.25,
      "velocity": 0.71,
      "hand": "right"
    },
    {
      "midi": 67,
      "time": 330.5,
      "duration": 0.25,
      "velocity": 0.71,
      "hand": "right"
    },
    {
      "midi": 71,
      "time": 330.5,
      "duration": 0.25,
      "velocity": 0.71,
      "hand": "right"
    },
    {
      "midi": 73,
      "time": 330.5,
      "duration": 0.25,
      "velocity": 0.71,
      "hand": "right"
    },
    {
      "midi": 59,
      "time": 330.75,
      "duration": 0.25,
      "velocity": 0.71,
      "hand": "left"
    },
    {
      "midi": 64,
      "time": 330.75,
      "duration": 0.25,
      "velocity": 0.71,
      "hand": "right"
    },
    {
      "midi": 67,
      "time": 330.75,
      "duration": 0.25,
      "velocity": 0.71,
      "hand": "right"
    },
    {
      "midi": 71,
      "time": 330.75,
      "duration": 0.25,
      "velocity": 0.71,
      "hand": "right"
    },
    {
      "midi": 73,
      "time": 330.75,
      "duration": 0.25,
      "velocity": 0.71,
      "hand": "right"
    },
    {
      "midi": 75,
      "time": 330.75,
      "duration": 0.25,
      "velocity": 0.71,
      "hand": "right"
    },
    {
      "midi": 58,
      "time": 331,
      "duration": 0.25,
      "velocity": 0.71,
      "hand": "left"
    },
    {
      "midi": 60,
      "time": 331,
      "duration": 0.25,
      "velocity": 0.71,
      "hand": "right"
    },
    {
      "midi": 64,
      "time": 331,
      "duration": 0.25,
      "velocity": 0.71,
      "hand": "right"
    },
    {
      "midi": 67,
      "time": 331,
      "duration": 0.25,
      "velocity": 0.71,
      "hand": "right"
    },
    {
      "midi": 72,
      "time": 331,
      "duration": 0.25,
      "velocity": 0.71,
      "hand": "right"
    },
    {
      "midi": 75,
      "time": 331,
      "duration": 0.25,
      "velocity": 0.71,
      "hand": "right"
    },
    {
      "midi": 76,
      "time": 331,
      "duration": 0.5,
      "velocity": 0.71,
      "hand": "right"
    },
    {
      "midi": 58,
      "time": 331.25,
      "duration": 0.25,
      "velocity": 0.71,
      "hand": "left"
    },
    {
      "midi": 60,
      "time": 331.25,
      "duration": 0.25,
      "velocity": 0.71,
      "hand": "right"
    },
    {
      "midi": 64,
      "time": 331.25,
      "duration": 0.25,
      "velocity": 0.71,
      "hand": "right"
    },
    {
      "midi": 67,
      "time": 331.25,
      "duration": 0.25,
      "velocity": 0.71,
      "hand": "right"
    },
    {
      "midi": 72,
      "time": 331.25,
      "duration": 0.25,
      "velocity": 0.71,
      "hand": "right"
    },
    {
      "midi": 57,
      "time": 331.5,
      "duration": 0.25,
      "velocity": 0.71,
      "hand": "left"
    },
    {
      "midi": 60,
      "time": 331.5,
      "duration": 0.25,
      "velocity": 0.71,
      "hand": "right"
    },
    {
      "midi": 64,
      "time": 331.5,
      "duration": 0.25,
      "velocity": 0.71,
      "hand": "right"
    },
    {
      "midi": 67,
      "time": 331.5,
      "duration": 0.25,
      "velocity": 0.71,
      "hand": "right"
    },
    {
      "midi": 57,
      "time": 331.75,
      "duration": 0.25,
      "velocity": 0.71,
      "hand": "left"
    },
    {
      "midi": 60,
      "time": 331.75,
      "duration": 0.25,
      "velocity": 0.71,
      "hand": "right"
    },
    {
      "midi": 64,
      "time": 331.75,
      "duration": 0.25,
      "velocity": 0.71,
      "hand": "right"
    },
    {
      "midi": 67,
      "time": 331.75,
      "duration": 0.25,
      "velocity": 0.71,
      "hand": "right"
    },
    {
      "midi": 69,
      "time": 331.75,
      "duration": 0.25,
      "velocity": 0.71,
      "hand": "right"
    },
    {
      "midi": 55,
      "time": 332,
      "duration": 0.5,
      "velocity": 0.71,
      "hand": "left"
    },
    {
      "midi": 58,
      "time": 332,
      "duration": 0.5,
      "velocity": 0.71,
      "hand": "left"
    },
    {
      "midi": 63,
      "time": 332,
      "duration": 0.25,
      "velocity": 0.71,
      "hand": "right"
    },
    {
      "midi": 67,
      "time": 332,
      "duration": 0.25,
      "velocity": 0.71,
      "hand": "right"
    },
    {
      "midi": 69,
      "time": 332,
      "duration": 0.25,
      "velocity": 0.71,
      "hand": "right"
    },
    {
      "midi": 70,
      "time": 332,
      "duration": 1.5,
      "velocity": 0.71,
      "hand": "right"
    },
    {
      "midi": 63,
      "time": 332.25,
      "duration": 0.25,
      "velocity": 0.71,
      "hand": "right"
    },
    {
      "midi": 67,
      "time": 332.25,
      "duration": 0.25,
      "velocity": 0.71,
      "hand": "right"
    },
    {
      "midi": 31,
      "time": 332.5,
      "duration": 0.125,
      "velocity": 0.54,
      "hand": "left"
    },
    {
      "midi": 34,
      "time": 332.5,
      "duration": 0.125,
      "velocity": 0.54,
      "hand": "left"
    },
    {
      "midi": 63,
      "time": 332.5,
      "duration": 0.25,
      "velocity": 0.71,
      "hand": "right"
    },
    {
      "midi": 67,
      "time": 332.5,
      "duration": 0.25,
      "velocity": 0.71,
      "hand": "right"
    },
    {
      "midi": 39,
      "time": 332.75,
      "duration": 0.125,
      "velocity": 0.54,
      "hand": "left"
    },
    {
      "midi": 43,
      "time": 332.75,
      "duration": 0.125,
      "velocity": 0.54,
      "hand": "left"
    },
    {
      "midi": 46,
      "time": 332.75,
      "duration": 0.125,
      "velocity": 0.54,
      "hand": "left"
    },
    {
      "midi": 51,
      "time": 332.75,
      "duration": 0.125,
      "velocity": 0.54,
      "hand": "left"
    },
    {
      "midi": 63,
      "time": 332.75,
      "duration": 0.25,
      "velocity": 0.71,
      "hand": "right"
    },
    {
      "midi": 67,
      "time": 332.75,
      "duration": 0.25,
      "velocity": 0.71,
      "hand": "right"
    },
    {
      "midi": 55,
      "time": 333,
      "duration": 0.125,
      "velocity": 0.54,
      "hand": "left"
    },
    {
      "midi": 58,
      "time": 333,
      "duration": 0.5,
      "velocity": 0.54,
      "hand": "left"
    },
    {
      "midi": 63,
      "time": 333,
      "duration": 0.25,
      "velocity": 0.71,
      "hand": "right"
    },
    {
      "midi": 67,
      "time": 333,
      "duration": 0.25,
      "velocity": 0.71,
      "hand": "right"
    },
    {
      "midi": 63,
      "time": 333.25,
      "duration": 0.25,
      "velocity": 0.71,
      "hand": "right"
    },
    {
      "midi": 67,
      "time": 333.25,
      "duration": 0.25,
      "velocity": 0.71,
      "hand": "right"
    },
    {
      "midi": 55,
      "time": 333.5,
      "duration": 0.25,
      "velocity": 0.54,
      "hand": "left"
    },
    {
      "midi": 58,
      "time": 333.5,
      "duration": 0.25,
      "velocity": 0.54,
      "hand": "left"
    },
    {
      "midi": 63,
      "time": 333.5,
      "duration": 0.25,
      "velocity": 0.71,
      "hand": "right"
    },
    {
      "midi": 70,
      "time": 333.5,
      "duration": 0.25,
      "velocity": 0.71,
      "hand": "right"
    },
    {
      "midi": 55,
      "time": 333.75,
      "duration": 0.25,
      "velocity": 0.54,
      "hand": "left"
    },
    {
      "midi": 58,
      "time": 333.75,
      "duration": 0.25,
      "velocity": 0.54,
      "hand": "left"
    },
    {
      "midi": 63,
      "time": 333.75,
      "duration": 0.25,
      "velocity": 0.71,
      "hand": "right"
    },
    {
      "midi": 70,
      "time": 333.75,
      "duration": 0.25,
      "velocity": 0.71,
      "hand": "right"
    },
    {
      "midi": 72,
      "time": 333.75,
      "duration": 0.25,
      "velocity": 0.71,
      "hand": "right"
    },
    {
      "midi": 54,
      "time": 334,
      "duration": 0.25,
      "velocity": 0.54,
      "hand": "left"
    },
    {
      "midi": 58,
      "time": 334,
      "duration": 0.25,
      "velocity": 0.54,
      "hand": "left"
    },
    {
      "midi": 62,
      "time": 334,
      "duration": 0.25,
      "velocity": 0.71,
      "hand": "right"
    },
    {
      "midi": 64,
      "time": 334,
      "duration": 0.25,
      "velocity": 0.54,
      "hand": "right"
    },
    {
      "midi": 70,
      "time": 334,
      "duration": 0.25,
      "velocity": 0.71,
      "hand": "right"
    },
    {
      "midi": 74,
      "time": 334,
      "duration": 0.5,
      "velocity": 0.71,
      "hand": "right"
    },
    {
      "midi": 54,
      "time": 334.25,
      "duration": 0.25,
      "velocity": 0.54,
      "hand": "left"
    },
    {
      "midi": 58,
      "time": 334.25,
      "duration": 0.25,
      "velocity": 0.54,
      "hand": "left"
    },
    {
      "midi": 62,
      "time": 334.25,
      "duration": 0.25,
      "velocity": 0.71,
      "hand": "right"
    },
    {
      "midi": 64,
      "time": 334.25,
      "duration": 0.25,
      "velocity": 0.54,
      "hand": "right"
    },
    {
      "midi": 70,
      "time": 334.25,
      "duration": 0.25,
      "velocity": 0.71,
      "hand": "right"
    },
    {
      "midi": 54,
      "time": 334.5,
      "duration": 0.25,
      "velocity": 0.54,
      "hand": "left"
    },
    {
      "midi": 58,
      "time": 334.5,
      "duration": 0.25,
      "velocity": 0.54,
      "hand": "left"
    },
    {
      "midi": 62,
      "time": 334.5,
      "duration": 0.25,
      "velocity": 0.71,
      "hand": "right"
    },
    {
      "midi": 64,
      "time": 334.5,
      "duration": 0.25,
      "velocity": 0.54,
      "hand": "right"
    },
    {
      "midi": 70,
      "time": 334.5,
      "duration": 0.25,
      "velocity": 0.71,
      "hand": "right"
    },
    {
      "midi": 74,
      "time": 334.5,
      "duration": 1,
      "velocity": 0.71,
      "hand": "right"
    },
    {
      "midi": 54,
      "time": 334.75,
      "duration": 0.25,
      "velocity": 0.54,
      "hand": "left"
    },
    {
      "midi": 58,
      "time": 334.75,
      "duration": 0.25,
      "velocity": 0.54,
      "hand": "left"
    },
    {
      "midi": 62,
      "time": 334.75,
      "duration": 0.25,
      "velocity": 0.71,
      "hand": "right"
    },
    {
      "midi": 64,
      "time": 334.75,
      "duration": 0.25,
      "velocity": 0.54,
      "hand": "right"
    },
    {
      "midi": 70,
      "time": 334.75,
      "duration": 0.25,
      "velocity": 0.71,
      "hand": "right"
    },
    {
      "midi": 53,
      "time": 335,
      "duration": 0.25,
      "velocity": 0.54,
      "hand": "left"
    },
    {
      "midi": 58,
      "time": 335,
      "duration": 0.25,
      "velocity": 0.54,
      "hand": "left"
    },
    {
      "midi": 62,
      "time": 335,
      "duration": 0.25,
      "velocity": 0.71,
      "hand": "right"
    },
    {
      "midi": 65,
      "time": 335,
      "duration": 0.25,
      "velocity": 0.54,
      "hand": "right"
    },
    {
      "midi": 70,
      "time": 335,
      "duration": 0.25,
      "velocity": 0.71,
      "hand": "right"
    },
    {
      "midi": 53,
      "time": 335.25,
      "duration": 0.25,
      "velocity": 0.54,
      "hand": "left"
    },
    {
      "midi": 58,
      "time": 335.25,
      "duration": 0.25,
      "velocity": 0.54,
      "hand": "left"
    },
    {
      "midi": 62,
      "time": 335.25,
      "duration": 0.25,
      "velocity": 0.71,
      "hand": "right"
    },
    {
      "midi": 65,
      "time": 335.25,
      "duration": 0.25,
      "velocity": 0.54,
      "hand": "right"
    },
    {
      "midi": 70,
      "time": 335.25,
      "duration": 0.25,
      "velocity": 0.71,
      "hand": "right"
    },
    {
      "midi": 52,
      "time": 335.5,
      "duration": 0.25,
      "velocity": 0.54,
      "hand": "left"
    },
    {
      "midi": 55,
      "time": 335.5,
      "duration": 0.25,
      "velocity": 0.54,
      "hand": "left"
    },
    {
      "midi": 60,
      "time": 335.5,
      "duration": 0.25,
      "velocity": 0.71,
      "hand": "right"
    },
    {
      "midi": 67,
      "time": 335.5,
      "duration": 0.25,
      "velocity": 0.71,
      "hand": "right"
    },
    {
      "midi": 52,
      "time": 335.75,
      "duration": 0.25,
      "velocity": 0.54,
      "hand": "left"
    },
    {
      "midi": 55,
      "time": 335.75,
      "duration": 0.25,
      "velocity": 0.54,
      "hand": "left"
    },
    {
      "midi": 60,
      "time": 335.75,
      "duration": 0.25,
      "velocity": 0.71,
      "hand": "right"
    },
    {
      "midi": 67,
      "time": 335.75,
      "duration": 0.25,
      "velocity": 0.71,
      "hand": "right"
    },
    {
      "midi": 69,
      "time": 335.75,
      "duration": 0.25,
      "velocity": 0.71,
      "hand": "right"
    },
    {
      "midi": 51,
      "time": 336,
      "duration": 0.25,
      "velocity": 0.54,
      "hand": "left"
    },
    {
      "midi": 55,
      "time": 336,
      "duration": 0.25,
      "velocity": 0.54,
      "hand": "left"
    },
    {
      "midi": 58,
      "time": 336,
      "duration": 0.25,
      "velocity": 0.71,
      "hand": "left"
    },
    {
      "midi": 61,
      "time": 336,
      "duration": 0.25,
      "velocity": 0.54,
      "hand": "right"
    },
    {
      "midi": 67,
      "time": 336,
      "duration": 0.25,
      "velocity": 0.71,
      "hand": "right"
    },
    {
      "midi": 69,
      "time": 336,
      "duration": 0.25,
      "velocity": 0.71,
      "hand": "right"
    },
    {
      "midi": 70,
      "time": 336,
      "duration": 0.5,
      "velocity": 0.71,
      "hand": "right"
    },
    {
      "midi": 51,
      "time": 336.25,
      "duration": 0.25,
      "velocity": 0.54,
      "hand": "left"
    },
    {
      "midi": 55,
      "time": 336.25,
      "duration": 0.25,
      "velocity": 0.54,
      "hand": "left"
    },
    {
      "midi": 58,
      "time": 336.25,
      "duration": 0.25,
      "velocity": 0.71,
      "hand": "left"
    },
    {
      "midi": 61,
      "time": 336.25,
      "duration": 0.25,
      "velocity": 0.54,
      "hand": "right"
    },
    {
      "midi": 67,
      "time": 336.25,
      "duration": 0.25,
      "velocity": 0.71,
      "hand": "right"
    },
    {
      "midi": 51,
      "time": 336.5,
      "duration": 0.25,
      "velocity": 0.54,
      "hand": "left"
    },
    {
      "midi": 55,
      "time": 336.5,
      "duration": 0.25,
      "velocity": 0.54,
      "hand": "left"
    },
    {
      "midi": 58,
      "time": 336.5,
      "duration": 0.25,
      "velocity": 0.71,
      "hand": "left"
    },
    {
      "midi": 61,
      "time": 336.5,
      "duration": 0.25,
      "velocity": 0.54,
      "hand": "right"
    },
    {
      "midi": 67,
      "time": 336.5,
      "duration": 0.25,
      "velocity": 0.71,
      "hand": "right"
    },
    {
      "midi": 70,
      "time": 336.5,
      "duration": 1,
      "velocity": 0.71,
      "hand": "right"
    },
    {
      "midi": 51,
      "time": 336.75,
      "duration": 0.25,
      "velocity": 0.54,
      "hand": "left"
    },
    {
      "midi": 55,
      "time": 336.75,
      "duration": 0.25,
      "velocity": 0.54,
      "hand": "left"
    },
    {
      "midi": 58,
      "time": 336.75,
      "duration": 0.25,
      "velocity": 0.71,
      "hand": "left"
    },
    {
      "midi": 61,
      "time": 336.75,
      "duration": 0.25,
      "velocity": 0.54,
      "hand": "right"
    },
    {
      "midi": 67,
      "time": 336.75,
      "duration": 0.25,
      "velocity": 0.71,
      "hand": "right"
    },
    {
      "midi": 50,
      "time": 337,
      "duration": 0.25,
      "velocity": 0.54,
      "hand": "left"
    },
    {
      "midi": 55,
      "time": 337,
      "duration": 0.25,
      "velocity": 0.54,
      "hand": "left"
    },
    {
      "midi": 58,
      "time": 337,
      "duration": 0.25,
      "velocity": 0.71,
      "hand": "left"
    },
    {
      "midi": 62,
      "time": 337,
      "duration": 0.25,
      "velocity": 0.54,
      "hand": "right"
    },
    {
      "midi": 67,
      "time": 337,
      "duration": 0.25,
      "velocity": 0.71,
      "hand": "right"
    },
    {
      "midi": 50,
      "time": 337.25,
      "duration": 0.25,
      "velocity": 0.54,
      "hand": "left"
    },
    {
      "midi": 55,
      "time": 337.25,
      "duration": 0.25,
      "velocity": 0.54,
      "hand": "left"
    },
    {
      "midi": 58,
      "time": 337.25,
      "duration": 0.25,
      "velocity": 0.71,
      "hand": "left"
    },
    {
      "midi": 62,
      "time": 337.25,
      "duration": 0.25,
      "velocity": 0.54,
      "hand": "right"
    },
    {
      "midi": 67,
      "time": 337.25,
      "duration": 0.25,
      "velocity": 0.71,
      "hand": "right"
    },
    {
      "midi": 49,
      "time": 337.5,
      "duration": 0.25,
      "velocity": 0.54,
      "hand": "left"
    },
    {
      "midi": 52,
      "time": 337.5,
      "duration": 0.25,
      "velocity": 0.54,
      "hand": "left"
    },
    {
      "midi": 57,
      "time": 337.5,
      "duration": 0.25,
      "velocity": 0.71,
      "hand": "left"
    },
    {
      "midi": 64,
      "time": 337.5,
      "duration": 0.25,
      "velocity": 0.71,
      "hand": "right"
    },
    {
      "midi": 49,
      "time": 337.75,
      "duration": 0.25,
      "velocity": 0.54,
      "hand": "left"
    },
    {
      "midi": 52,
      "time": 337.75,
      "duration": 0.25,
      "velocity": 0.54,
      "hand": "left"
    },
    {
      "midi": 57,
      "time": 337.75,
      "duration": 0.25,
      "velocity": 0.71,
      "hand": "left"
    },
    {
      "midi": 64,
      "time": 337.75,
      "duration": 0.25,
      "velocity": 0.71,
      "hand": "right"
    },
    {
      "midi": 66,
      "time": 337.75,
      "duration": 0.25,
      "velocity": 0.71,
      "hand": "right"
    },
    {
      "midi": 48,
      "time": 338,
      "duration": 0.25,
      "velocity": 0.54,
      "hand": "left"
    },
    {
      "midi": 52,
      "time": 338,
      "duration": 0.25,
      "velocity": 0.54,
      "hand": "left"
    },
    {
      "midi": 55,
      "time": 338,
      "duration": 0.25,
      "velocity": 0.71,
      "hand": "left"
    },
    {
      "midi": 58,
      "time": 338,
      "duration": 0.25,
      "velocity": 0.54,
      "hand": "left"
    },
    {
      "midi": 64,
      "time": 338,
      "duration": 0.25,
      "velocity": 0.71,
      "hand": "right"
    },
    {
      "midi": 66,
      "time": 338,
      "duration": 0.25,
      "velocity": 0.71,
      "hand": "right"
    },
    {
      "midi": 67,
      "time": 338,
      "duration": 0.5,
      "velocity": 0.71,
      "hand": "right"
    },
    {
      "midi": 48,
      "time": 338.25,
      "duration": 0.25,
      "velocity": 0.54,
      "hand": "left"
    },
    {
      "midi": 52,
      "time": 338.25,
      "duration": 0.25,
      "velocity": 0.54,
      "hand": "left"
    },
    {
      "midi": 55,
      "time": 338.25,
      "duration": 0.25,
      "velocity": 0.71,
      "hand": "left"
    },
    {
      "midi": 58,
      "time": 338.25,
      "duration": 0.25,
      "velocity": 0.54,
      "hand": "left"
    },
    {
      "midi": 64,
      "time": 338.25,
      "duration": 0.25,
      "velocity": 0.71,
      "hand": "right"
    },
    {
      "midi": 47,
      "time": 338.5,
      "duration": 0.25,
      "velocity": 0.54,
      "hand": "left"
    },
    {
      "midi": 52,
      "time": 338.5,
      "duration": 0.25,
      "velocity": 0.54,
      "hand": "left"
    },
    {
      "midi": 55,
      "time": 338.5,
      "duration": 0.25,
      "velocity": 0.71,
      "hand": "left"
    },
    {
      "midi": 59,
      "time": 338.5,
      "duration": 0.25,
      "velocity": 0.54,
      "hand": "left"
    },
    {
      "midi": 61,
      "time": 338.5,
      "duration": 0.25,
      "velocity": 0.71,
      "hand": "right"
    },
    {
      "midi": 47,
      "time": 338.75,
      "duration": 0.25,
      "velocity": 0.54,
      "hand": "left"
    },
    {
      "midi": 52,
      "time": 338.75,
      "duration": 0.25,
      "velocity": 0.54,
      "hand": "left"
    },
    {
      "midi": 55,
      "time": 338.75,
      "duration": 0.25,
      "velocity": 0.71,
      "hand": "left"
    },
    {
      "midi": 59,
      "time": 338.75,
      "duration": 0.25,
      "velocity": 0.54,
      "hand": "left"
    },
    {
      "midi": 61,
      "time": 338.75,
      "duration": 0.25,
      "velocity": 0.71,
      "hand": "right"
    },
    {
      "midi": 63,
      "time": 338.75,
      "duration": 0.25,
      "velocity": 0.71,
      "hand": "right"
    },
    {
      "midi": 46,
      "time": 339,
      "duration": 0.25,
      "velocity": 0.54,
      "hand": "left"
    },
    {
      "midi": 48,
      "time": 339,
      "duration": 0.25,
      "velocity": 0.54,
      "hand": "left"
    },
    {
      "midi": 52,
      "time": 339,
      "duration": 0.25,
      "velocity": 0.54,
      "hand": "left"
    },
    {
      "midi": 55,
      "time": 339,
      "duration": 0.25,
      "velocity": 0.71,
      "hand": "left"
    },
    {
      "midi": 60,
      "time": 339,
      "duration": 0.25,
      "velocity": 0.71,
      "hand": "right"
    },
    {
      "midi": 63,
      "time": 339,
      "duration": 0.25,
      "velocity": 0.71,
      "hand": "right"
    },
    {
      "midi": 64,
      "time": 339,
      "duration": 0.5,
      "velocity": 0.71,
      "hand": "right"
    },
    {
      "midi": 46,
      "time": 339.25,
      "duration": 0.25,
      "velocity": 0.54,
      "hand": "left"
    },
    {
      "midi": 48,
      "time": 339.25,
      "duration": 0.25,
      "velocity": 0.54,
      "hand": "left"
    },
    {
      "midi": 52,
      "time": 339.25,
      "duration": 0.25,
      "velocity": 0.54,
      "hand": "left"
    },
    {
      "midi": 55,
      "time": 339.25,
      "duration": 0.25,
      "velocity": 0.71,
      "hand": "left"
    },
    {
      "midi": 60,
      "time": 339.25,
      "duration": 0.25,
      "velocity": 0.71,
      "hand": "right"
    },
    {
      "midi": 45,
      "time": 339.5,
      "duration": 0.25,
      "velocity": 0.54,
      "hand": "left"
    },
    {
      "midi": 48,
      "time": 339.5,
      "duration": 0.25,
      "velocity": 0.54,
      "hand": "left"
    },
    {
      "midi": 52,
      "time": 339.5,
      "duration": 0.25,
      "velocity": 0.71,
      "hand": "left"
    },
    {
      "midi": 55,
      "time": 339.5,
      "duration": 0.25,
      "velocity": 0.71,
      "hand": "left"
    },
    {
      "midi": 45,
      "time": 339.75,
      "duration": 0.25,
      "velocity": 0.54,
      "hand": "left"
    },
    {
      "midi": 48,
      "time": 339.75,
      "duration": 0.25,
      "velocity": 0.54,
      "hand": "left"
    },
    {
      "midi": 52,
      "time": 339.75,
      "duration": 0.25,
      "velocity": 0.71,
      "hand": "left"
    },
    {
      "midi": 55,
      "time": 339.75,
      "duration": 0.25,
      "velocity": 0.71,
      "hand": "left"
    },
    {
      "midi": 57,
      "time": 339.75,
      "duration": 0.25,
      "velocity": 0.71,
      "hand": "left"
    },
    {
      "midi": 43,
      "time": 340,
      "duration": 0.5,
      "velocity": 0.54,
      "hand": "left"
    },
    {
      "midi": 46,
      "time": 340,
      "duration": 0.5,
      "velocity": 0.54,
      "hand": "left"
    },
    {
      "midi": 51,
      "time": 340,
      "duration": 0.25,
      "velocity": 0.71,
      "hand": "left"
    },
    {
      "midi": 55,
      "time": 340,
      "duration": 0.25,
      "velocity": 0.71,
      "hand": "left"
    },
    {
      "midi": 57,
      "time": 340,
      "duration": 0.25,
      "velocity": 0.71,
      "hand": "left"
    },
    {
      "midi": 58,
      "time": 340,
      "duration": 1.75,
      "velocity": 0.71,
      "hand": "left"
    },
    {
      "midi": 51,
      "time": 340.25,
      "duration": 0.25,
      "velocity": 0.71,
      "hand": "left"
    },
    {
      "midi": 55,
      "time": 340.25,
      "duration": 0.25,
      "velocity": 0.71,
      "hand": "left"
    },
    {
      "midi": 22,
      "time": 340.5,
      "duration": 0.125,
      "velocity": 0.54,
      "hand": "left"
    },
    {
      "midi": 27,
      "time": 340.5,
      "duration": 0.125,
      "velocity": 0.54,
      "hand": "left"
    },
    {
      "midi": 51,
      "time": 340.5,
      "duration": 0.25,
      "velocity": 0.71,
      "hand": "left"
    },
    {
      "midi": 55,
      "time": 340.5,
      "duration": 0.25,
      "velocity": 0.71,
      "hand": "left"
    },
    {
      "midi": 31,
      "time": 340.75,
      "duration": 0.125,
      "velocity": 0.54,
      "hand": "left"
    },
    {
      "midi": 34,
      "time": 340.75,
      "duration": 0.125,
      "velocity": 0.54,
      "hand": "left"
    },
    {
      "midi": 39,
      "time": 340.75,
      "duration": 0.125,
      "velocity": 0.54,
      "hand": "left"
    },
    {
      "midi": 51,
      "time": 340.75,
      "duration": 0.25,
      "velocity": 0.71,
      "hand": "left"
    },
    {
      "midi": 55,
      "time": 340.75,
      "duration": 0.25,
      "velocity": 0.71,
      "hand": "left"
    },
    {
      "midi": 43,
      "time": 341,
      "duration": 0.125,
      "velocity": 0.54,
      "hand": "left"
    },
    {
      "midi": 46,
      "time": 341,
      "duration": 0.25,
      "velocity": 0.54,
      "hand": "left"
    },
    {
      "midi": 51,
      "time": 341,
      "duration": 0.25,
      "velocity": 0.71,
      "hand": "left"
    },
    {
      "midi": 55,
      "time": 341,
      "duration": 0.25,
      "velocity": 0.71,
      "hand": "left"
    },
    {
      "midi": 51,
      "time": 341.25,
      "duration": 0.25,
      "velocity": 0.71,
      "hand": "left"
    },
    {
      "midi": 55,
      "time": 341.25,
      "duration": 0.25,
      "velocity": 0.71,
      "hand": "left"
    },
    {
      "midi": 51,
      "time": 341.5,
      "duration": 0.25,
      "velocity": 0.71,
      "hand": "left"
    },
    {
      "midi": 55,
      "time": 341.5,
      "duration": 0.25,
      "velocity": 0.71,
      "hand": "left"
    },
    {
      "midi": 63,
      "time": 341.5,
      "duration": 0.25,
      "velocity": 0.54,
      "hand": "right"
    },
    {
      "midi": 67,
      "time": 341.5,
      "duration": 0.25,
      "velocity": 0.54,
      "hand": "right"
    },
    {
      "midi": 70,
      "time": 341.5,
      "duration": 0.25,
      "velocity": 0.54,
      "hand": "right"
    },
    {
      "midi": 51,
      "time": 341.75,
      "duration": 0.25,
      "velocity": 0.71,
      "hand": "left"
    },
    {
      "midi": 55,
      "time": 341.75,
      "duration": 0.25,
      "velocity": 0.71,
      "hand": "left"
    },
    {
      "midi": 60,
      "time": 341.75,
      "duration": 0.25,
      "velocity": 0.71,
      "hand": "right"
    },
    {
      "midi": 51,
      "time": 342,
      "duration": 0.25,
      "velocity": 0.71,
      "hand": "left"
    },
    {
      "midi": 55,
      "time": 342,
      "duration": 0.25,
      "velocity": 0.71,
      "hand": "left"
    },
    {
      "midi": 58,
      "time": 342,
      "duration": 1.75,
      "velocity": 0.71,
      "hand": "left"
    },
    {
      "midi": 51,
      "time": 342.25,
      "duration": 0.25,
      "velocity": 0.71,
      "hand": "left"
    },
    {
      "midi": 55,
      "time": 342.25,
      "duration": 0.25,
      "velocity": 0.71,
      "hand": "left"
    },
    {
      "midi": 22,
      "time": 342.5,
      "duration": 0.125,
      "velocity": 0.54,
      "hand": "left"
    },
    {
      "midi": 27,
      "time": 342.5,
      "duration": 0.125,
      "velocity": 0.54,
      "hand": "left"
    },
    {
      "midi": 51,
      "time": 342.5,
      "duration": 0.25,
      "velocity": 0.71,
      "hand": "left"
    },
    {
      "midi": 55,
      "time": 342.5,
      "duration": 0.25,
      "velocity": 0.71,
      "hand": "left"
    },
    {
      "midi": 31,
      "time": 342.75,
      "duration": 0.125,
      "velocity": 0.54,
      "hand": "left"
    },
    {
      "midi": 34,
      "time": 342.75,
      "duration": 0.125,
      "velocity": 0.54,
      "hand": "left"
    },
    {
      "midi": 39,
      "time": 342.75,
      "duration": 0.125,
      "velocity": 0.54,
      "hand": "left"
    },
    {
      "midi": 51,
      "time": 342.75,
      "duration": 0.25,
      "velocity": 0.71,
      "hand": "left"
    },
    {
      "midi": 55,
      "time": 342.75,
      "duration": 0.25,
      "velocity": 0.71,
      "hand": "left"
    },
    {
      "midi": 43,
      "time": 343,
      "duration": 0.125,
      "velocity": 0.54,
      "hand": "left"
    },
    {
      "midi": 46,
      "time": 343,
      "duration": 0.25,
      "velocity": 0.54,
      "hand": "left"
    },
    {
      "midi": 51,
      "time": 343,
      "duration": 0.25,
      "velocity": 0.71,
      "hand": "left"
    },
    {
      "midi": 55,
      "time": 343,
      "duration": 0.25,
      "velocity": 0.71,
      "hand": "left"
    },
    {
      "midi": 51,
      "time": 343.25,
      "duration": 0.25,
      "velocity": 0.71,
      "hand": "left"
    },
    {
      "midi": 55,
      "time": 343.25,
      "duration": 0.25,
      "velocity": 0.71,
      "hand": "left"
    },
    {
      "midi": 51,
      "time": 343.5,
      "duration": 0.25,
      "velocity": 0.71,
      "hand": "left"
    },
    {
      "midi": 55,
      "time": 343.5,
      "duration": 0.25,
      "velocity": 0.71,
      "hand": "left"
    },
    {
      "midi": 63,
      "time": 343.5,
      "duration": 0.25,
      "velocity": 0.54,
      "hand": "right"
    },
    {
      "midi": 67,
      "time": 343.5,
      "duration": 0.25,
      "velocity": 0.54,
      "hand": "right"
    },
    {
      "midi": 70,
      "time": 343.5,
      "duration": 0.25,
      "velocity": 0.54,
      "hand": "right"
    },
    {
      "midi": 51,
      "time": 343.75,
      "duration": 0.25,
      "velocity": 0.71,
      "hand": "left"
    },
    {
      "midi": 55,
      "time": 343.75,
      "duration": 0.25,
      "velocity": 0.71,
      "hand": "left"
    },
    {
      "midi": 60,
      "time": 343.75,
      "duration": 0.25,
      "velocity": 0.71,
      "hand": "right"
    },
    {
      "midi": 51,
      "time": 344,
      "duration": 0.25,
      "velocity": 0.71,
      "hand": "left"
    },
    {
      "midi": 55,
      "time": 344,
      "duration": 0.25,
      "velocity": 0.71,
      "hand": "left"
    },
    {
      "midi": 58,
      "time": 344,
      "duration": 0.75,
      "velocity": 0.71,
      "hand": "left"
    },
    {
      "midi": 51,
      "time": 344.25,
      "duration": 0.25,
      "velocity": 0.71,
      "hand": "left"
    },
    {
      "midi": 55,
      "time": 344.25,
      "duration": 0.25,
      "velocity": 0.71,
      "hand": "left"
    },
    {
      "midi": 51,
      "time": 344.5,
      "duration": 0.25,
      "velocity": 0.71,
      "hand": "left"
    },
    {
      "midi": 55,
      "time": 344.5,
      "duration": 0.25,
      "velocity": 0.71,
      "hand": "left"
    },
    {
      "midi": 63,
      "time": 344.5,
      "duration": 0.25,
      "velocity": 0.54,
      "hand": "right"
    },
    {
      "midi": 67,
      "time": 344.5,
      "duration": 0.25,
      "velocity": 0.54,
      "hand": "right"
    },
    {
      "midi": 70,
      "time": 344.5,
      "duration": 0.25,
      "velocity": 0.54,
      "hand": "right"
    },
    {
      "midi": 51,
      "time": 344.75,
      "duration": 0.25,
      "velocity": 0.71,
      "hand": "left"
    },
    {
      "midi": 55,
      "time": 344.75,
      "duration": 0.25,
      "velocity": 0.71,
      "hand": "left"
    },
    {
      "midi": 60,
      "time": 344.75,
      "duration": 0.25,
      "velocity": 0.71,
      "hand": "right"
    },
    {
      "midi": 51,
      "time": 345,
      "duration": 0.25,
      "velocity": 0.71,
      "hand": "left"
    },
    {
      "midi": 55,
      "time": 345,
      "duration": 0.25,
      "velocity": 0.71,
      "hand": "left"
    },
    {
      "midi": 58,
      "time": 345,
      "duration": 0.75,
      "velocity": 0.71,
      "hand": "left"
    },
    {
      "midi": 51,
      "time": 345.25,
      "duration": 0.25,
      "velocity": 0.71,
      "hand": "left"
    },
    {
      "midi": 55,
      "time": 345.25,
      "duration": 0.25,
      "velocity": 0.71,
      "hand": "left"
    },
    {
      "midi": 51,
      "time": 345.5,
      "duration": 0.25,
      "velocity": 0.71,
      "hand": "left"
    },
    {
      "midi": 55,
      "time": 345.5,
      "duration": 0.25,
      "velocity": 0.71,
      "hand": "left"
    },
    {
      "midi": 63,
      "time": 345.5,
      "duration": 0.25,
      "velocity": 0.54,
      "hand": "right"
    },
    {
      "midi": 67,
      "time": 345.5,
      "duration": 0.25,
      "velocity": 0.54,
      "hand": "right"
    },
    {
      "midi": 70,
      "time": 345.5,
      "duration": 0.25,
      "velocity": 0.54,
      "hand": "right"
    },
    {
      "midi": 51,
      "time": 345.75,
      "duration": 0.25,
      "velocity": 0.71,
      "hand": "left"
    },
    {
      "midi": 55,
      "time": 345.75,
      "duration": 0.25,
      "velocity": 0.71,
      "hand": "left"
    },
    {
      "midi": 60,
      "time": 345.75,
      "duration": 0.25,
      "velocity": 0.71,
      "hand": "right"
    },
    {
      "midi": 51,
      "time": 346,
      "duration": 0.25,
      "velocity": 0.71,
      "hand": "left"
    },
    {
      "midi": 55,
      "time": 346,
      "duration": 0.25,
      "velocity": 0.71,
      "hand": "left"
    },
    {
      "midi": 58,
      "time": 346,
      "duration": 7.5,
      "velocity": 0.71,
      "hand": "left"
    },
    {
      "midi": 51,
      "time": 346.25,
      "duration": 0.25,
      "velocity": 0.71,
      "hand": "left"
    },
    {
      "midi": 55,
      "time": 346.25,
      "duration": 0.25,
      "velocity": 0.71,
      "hand": "left"
    },
    {
      "midi": 51,
      "time": 346.5,
      "duration": 0.25,
      "velocity": 0.71,
      "hand": "left"
    },
    {
      "midi": 55,
      "time": 346.5,
      "duration": 0.25,
      "velocity": 0.71,
      "hand": "left"
    },
    {
      "midi": 63,
      "time": 346.5,
      "duration": 1,
      "velocity": 0.54,
      "hand": "right"
    },
    {
      "midi": 67,
      "time": 346.5,
      "duration": 1,
      "velocity": 0.54,
      "hand": "right"
    },
    {
      "midi": 70,
      "time": 346.5,
      "duration": 1,
      "velocity": 0.54,
      "hand": "right"
    },
    {
      "midi": 51,
      "time": 346.75,
      "duration": 0.25,
      "velocity": 0.71,
      "hand": "left"
    },
    {
      "midi": 55,
      "time": 346.75,
      "duration": 0.25,
      "velocity": 0.71,
      "hand": "left"
    },
    {
      "midi": 51,
      "time": 347,
      "duration": 0.25,
      "velocity": 0.71,
      "hand": "left"
    },
    {
      "midi": 55,
      "time": 347,
      "duration": 0.25,
      "velocity": 0.71,
      "hand": "left"
    },
    {
      "midi": 51,
      "time": 347.25,
      "duration": 0.25,
      "velocity": 0.71,
      "hand": "left"
    },
    {
      "midi": 55,
      "time": 347.25,
      "duration": 0.25,
      "velocity": 0.71,
      "hand": "left"
    },
    {
      "midi": 22,
      "time": 347.5,
      "duration": 0.125,
      "velocity": 0.54,
      "hand": "left"
    },
    {
      "midi": 27,
      "time": 347.5,
      "duration": 0.125,
      "velocity": 0.54,
      "hand": "left"
    },
    {
      "midi": 51,
      "time": 347.5,
      "duration": 0.25,
      "velocity": 0.71,
      "hand": "left"
    },
    {
      "midi": 55,
      "time": 347.5,
      "duration": 0.25,
      "velocity": 0.71,
      "hand": "left"
    },
    {
      "midi": 31,
      "time": 347.75,
      "duration": 0.125,
      "velocity": 0.54,
      "hand": "left"
    },
    {
      "midi": 34,
      "time": 347.75,
      "duration": 0.125,
      "velocity": 0.54,
      "hand": "left"
    },
    {
      "midi": 39,
      "time": 347.75,
      "duration": 0.125,
      "velocity": 0.54,
      "hand": "left"
    },
    {
      "midi": 51,
      "time": 347.75,
      "duration": 0.25,
      "velocity": 0.71,
      "hand": "left"
    },
    {
      "midi": 55,
      "time": 347.75,
      "duration": 0.25,
      "velocity": 0.71,
      "hand": "left"
    },
    {
      "midi": 43,
      "time": 348,
      "duration": 0.125,
      "velocity": 0.54,
      "hand": "left"
    },
    {
      "midi": 46,
      "time": 348,
      "duration": 0.75,
      "velocity": 0.54,
      "hand": "left"
    },
    {
      "midi": 51,
      "time": 348,
      "duration": 0.25,
      "velocity": 0.71,
      "hand": "left"
    },
    {
      "midi": 55,
      "time": 348,
      "duration": 0.25,
      "velocity": 0.71,
      "hand": "left"
    },
    {
      "midi": 51,
      "time": 348.25,
      "duration": 0.25,
      "velocity": 0.71,
      "hand": "left"
    },
    {
      "midi": 55,
      "time": 348.25,
      "duration": 0.25,
      "velocity": 0.71,
      "hand": "left"
    },
    {
      "midi": 51,
      "time": 348.5,
      "duration": 0.25,
      "velocity": 0.71,
      "hand": "left"
    },
    {
      "midi": 55,
      "time": 348.5,
      "duration": 0.25,
      "velocity": 0.71,
      "hand": "left"
    },
    {
      "midi": 48,
      "time": 348.75,
      "duration": 0.25,
      "velocity": 0.54,
      "hand": "left"
    },
    {
      "midi": 51,
      "time": 348.75,
      "duration": 0.25,
      "velocity": 0.71,
      "hand": "left"
    },
    {
      "midi": 55,
      "time": 348.75,
      "duration": 0.25,
      "velocity": 0.71,
      "hand": "left"
    },
    {
      "midi": 46,
      "time": 349,
      "duration": 4.5,
      "velocity": 0.54,
      "hand": "left"
    },
    {
      "midi": 51,
      "time": 349,
      "duration": 0.25,
      "velocity": 0.71,
      "hand": "left"
    },
    {
      "midi": 55,
      "time": 349,
      "duration": 0.25,
      "velocity": 0.71,
      "hand": "left"
    },
    {
      "midi": 51,
      "time": 349.25,
      "duration": 0.25,
      "velocity": 0.71,
      "hand": "left"
    },
    {
      "midi": 55,
      "time": 349.25,
      "duration": 0.25,
      "velocity": 0.71,
      "hand": "left"
    },
    {
      "midi": 51,
      "time": 349.5,
      "duration": 0.25,
      "velocity": 0.71,
      "hand": "left"
    },
    {
      "midi": 55,
      "time": 349.5,
      "duration": 0.25,
      "velocity": 0.71,
      "hand": "left"
    },
    {
      "midi": 51,
      "time": 349.75,
      "duration": 0.25,
      "velocity": 0.71,
      "hand": "left"
    },
    {
      "midi": 55,
      "time": 349.75,
      "duration": 0.25,
      "velocity": 0.71,
      "hand": "left"
    },
    {
      "midi": 51,
      "time": 350,
      "duration": 0.25,
      "velocity": 0.71,
      "hand": "left"
    },
    {
      "midi": 55,
      "time": 350,
      "duration": 0.25,
      "velocity": 0.71,
      "hand": "left"
    },
    {
      "midi": 51,
      "time": 350.25,
      "duration": 3.25,
      "velocity": 0.71,
      "hand": "left"
    },
    {
      "midi": 55,
      "time": 350.25,
      "duration": 3.25,
      "velocity": 0.71,
      "hand": "left"
    },
    {
      "midi": 33,
      "time": 353.75,
      "duration": 0.25,
      "velocity": 0.71,
      "hand": "left"
    },
    {
      "midi": 34,
      "time": 353.75,
      "duration": 0.25,
      "velocity": 0.71,
      "hand": "left"
    },
    {
      "midi": 38,
      "time": 354,
      "duration": 0.25,
      "velocity": 0.71,
      "hand": "left"
    },
    {
      "midi": 39,
      "time": 354.25,
      "duration": 0.25,
      "velocity": 0.71,
      "hand": "left"
    },
    {
      "midi": 42,
      "time": 354.25,
      "duration": 0.25,
      "velocity": 0.71,
      "hand": "left"
    },
    {
      "midi": 43,
      "time": 354.5,
      "duration": 0.25,
      "velocity": 0.71,
      "hand": "left"
    },
    {
      "midi": 45,
      "time": 354.75,
      "duration": 0.25,
      "velocity": 0.71,
      "hand": "left"
    },
    {
      "midi": 46,
      "time": 354.75,
      "duration": 0.25,
      "velocity": 0.71,
      "hand": "left"
    },
    {
      "midi": 50,
      "time": 355,
      "duration": 0.25,
      "velocity": 0.71,
      "hand": "left"
    },
    {
      "midi": 51,
      "time": 355.25,
      "duration": 0.25,
      "velocity": 0.71,
      "hand": "left"
    },
    {
      "midi": 54,
      "time": 355.25,
      "duration": 0.25,
      "velocity": 0.71,
      "hand": "left"
    },
    {
      "midi": 55,
      "time": 355.5,
      "duration": 0.25,
      "velocity": 0.71,
      "hand": "left"
    },
    {
      "midi": 57,
      "time": 355.75,
      "duration": 0.25,
      "velocity": 0.71,
      "hand": "left"
    },
    {
      "midi": 58,
      "time": 355.75,
      "duration": 0.25,
      "velocity": 0.71,
      "hand": "left"
    },
    {
      "midi": 55,
      "time": 356,
      "duration": 0.125,
      "velocity": 0.71,
      "hand": "left"
    },
    {
      "midi": 57,
      "time": 356,
      "duration": 0.125,
      "velocity": 0.71,
      "hand": "left"
    },
    {
      "midi": 58,
      "time": 356.25,
      "duration": 0.125,
      "velocity": 0.71,
      "hand": "left"
    },
    {
      "midi": 62,
      "time": 356.25,
      "duration": 0.125,
      "velocity": 0.71,
      "hand": "right"
    },
    {
      "midi": 63,
      "time": 356.25,
      "duration": 0.125,
      "velocity": 0.71,
      "hand": "right"
    },
    {
      "midi": 66,
      "time": 356.5,
      "duration": 0.125,
      "velocity": 0.71,
      "hand": "right"
    },
    {
      "midi": 67,
      "time": 356.5,
      "duration": 0.125,
      "velocity": 0.71,
      "hand": "right"
    },
    {
      "midi": 69,
      "time": 356.5,
      "duration": 0.125,
      "velocity": 0.71,
      "hand": "right"
    },
    {
      "midi": 70,
      "time": 356.75,
      "duration": 0.125,
      "velocity": 0.71,
      "hand": "right"
    },
    {
      "midi": 74,
      "time": 356.75,
      "duration": 0.125,
      "velocity": 0.72,
      "hand": "right"
    },
    {
      "midi": 75,
      "time": 356.75,
      "duration": 0.125,
      "velocity": 0.72,
      "hand": "right"
    },
    {
      "midi": 78,
      "time": 357,
      "duration": 0.125,
      "velocity": 0.72,
      "hand": "right"
    },
    {
      "midi": 79,
      "time": 357,
      "duration": 0.125,
      "velocity": 0.72,
      "hand": "right"
    },
    {
      "midi": 81,
      "time": 357,
      "duration": 0.125,
      "velocity": 0.72,
      "hand": "right"
    },
    {
      "midi": 82,
      "time": 357.25,
      "duration": 0.125,
      "velocity": 0.72,
      "hand": "right"
    },
    {
      "midi": 86,
      "time": 357.25,
      "duration": 0.125,
      "velocity": 0.72,
      "hand": "right"
    },
    {
      "midi": 87,
      "time": 357.25,
      "duration": 0.125,
      "velocity": 0.72,
      "hand": "right"
    },
    {
      "midi": 90,
      "time": 357.5,
      "duration": 0.125,
      "velocity": 0.73,
      "hand": "right"
    },
    {
      "midi": 91,
      "time": 357.5,
      "duration": 0.125,
      "velocity": 0.73,
      "hand": "right"
    },
    {
      "midi": 93,
      "time": 357.5,
      "duration": 0.125,
      "velocity": 0.73,
      "hand": "right"
    },
    {
      "midi": 94,
      "time": 357.75,
      "duration": 0.125,
      "velocity": 0.74,
      "hand": "right"
    },
    {
      "midi": 98,
      "time": 357.75,
      "duration": 0.125,
      "velocity": 0.74,
      "hand": "right"
    },
    {
      "midi": 99,
      "time": 357.75,
      "duration": 0.125,
      "velocity": 0.74,
      "hand": "right"
    },
    {
      "midi": 95,
      "time": 358,
      "duration": 0.125,
      "velocity": 0.75,
      "hand": "right"
    },
    {
      "midi": 102,
      "time": 358,
      "duration": 0.125,
      "velocity": 0.74,
      "hand": "right"
    },
    {
      "midi": 103,
      "time": 358,
      "duration": 0.125,
      "velocity": 0.75,
      "hand": "right"
    },
    {
      "midi": 96,
      "time": 358.25,
      "duration": 0.125,
      "velocity": 0.75,
      "hand": "right"
    },
    {
      "midi": 98,
      "time": 358.25,
      "duration": 0.125,
      "velocity": 0.75,
      "hand": "right"
    },
    {
      "midi": 101,
      "time": 358.25,
      "duration": 0.125,
      "velocity": 0.75,
      "hand": "right"
    },
    {
      "midi": 95,
      "time": 358.5,
      "duration": 0.125,
      "velocity": 0.75,
      "hand": "right"
    },
    {
      "midi": 99,
      "time": 358.5,
      "duration": 0.125,
      "velocity": 0.75,
      "hand": "right"
    },
    {
      "midi": 103,
      "time": 358.5,
      "duration": 0.125,
      "velocity": 0.75,
      "hand": "right"
    },
    {
      "midi": 96,
      "time": 358.75,
      "duration": 0.125,
      "velocity": 0.75,
      "hand": "right"
    },
    {
      "midi": 98,
      "time": 358.75,
      "duration": 0.125,
      "velocity": 0.75,
      "hand": "right"
    },
    {
      "midi": 101,
      "time": 358.75,
      "duration": 0.125,
      "velocity": 0.75,
      "hand": "right"
    },
    {
      "midi": 95,
      "time": 359,
      "duration": 0.125,
      "velocity": 0.75,
      "hand": "right"
    },
    {
      "midi": 99,
      "time": 359,
      "duration": 0.125,
      "velocity": 0.75,
      "hand": "right"
    },
    {
      "midi": 103,
      "time": 359,
      "duration": 0.125,
      "velocity": 0.75,
      "hand": "right"
    },
    {
      "midi": 96,
      "time": 359.25,
      "duration": 0.125,
      "velocity": 0.75,
      "hand": "right"
    },
    {
      "midi": 98,
      "time": 359.25,
      "duration": 0.125,
      "velocity": 0.75,
      "hand": "right"
    },
    {
      "midi": 101,
      "time": 359.25,
      "duration": 0.125,
      "velocity": 0.75,
      "hand": "right"
    },
    {
      "midi": 95,
      "time": 359.5,
      "duration": 0.125,
      "velocity": 0.75,
      "hand": "right"
    },
    {
      "midi": 99,
      "time": 359.5,
      "duration": 0.125,
      "velocity": 0.75,
      "hand": "right"
    },
    {
      "midi": 103,
      "time": 359.5,
      "duration": 0.125,
      "velocity": 0.75,
      "hand": "right"
    },
    {
      "midi": 96,
      "time": 359.75,
      "duration": 0.125,
      "velocity": 0.75,
      "hand": "right"
    },
    {
      "midi": 98,
      "time": 359.75,
      "duration": 0.125,
      "velocity": 0.75,
      "hand": "right"
    },
    {
      "midi": 101,
      "time": 359.75,
      "duration": 0.125,
      "velocity": 0.75,
      "hand": "right"
    },
    {
      "midi": 99,
      "time": 360,
      "duration": 0.125,
      "velocity": 0.75,
      "hand": "right"
    },
    {
      "midi": 103,
      "time": 360,
      "duration": 1.75,
      "velocity": 0.75,
      "hand": "right"
    },
    {
      "midi": 98,
      "time": 361.75,
      "duration": 0.25,
      "velocity": 0.49,
      "hand": "right"
    },
    {
      "midi": 101,
      "time": 361.75,
      "duration": 0.25,
      "velocity": 0.49,
      "hand": "right"
    },
    {
      "midi": 93,
      "time": 362,
      "duration": 0.125,
      "velocity": 0.49,
      "hand": "right"
    },
    {
      "midi": 96,
      "time": 362,
      "duration": 0.125,
      "velocity": 0.49,
      "hand": "right"
    },
    {
      "midi": 99,
      "time": 362,
      "duration": 0.25,
      "velocity": 0.49,
      "hand": "right"
    },
    {
      "midi": 90,
      "time": 362.25,
      "duration": 0.125,
      "velocity": 0.49,
      "hand": "right"
    },
    {
      "midi": 92,
      "time": 362.25,
      "duration": 0.125,
      "velocity": 0.49,
      "hand": "right"
    },
    {
      "midi": 94,
      "time": 362.25,
      "duration": 0.125,
      "velocity": 0.49,
      "hand": "right"
    },
    {
      "midi": 86,
      "time": 362.5,
      "duration": 0.125,
      "velocity": 0.49,
      "hand": "right"
    },
    {
      "midi": 89,
      "time": 362.5,
      "duration": 0.125,
      "velocity": 0.49,
      "hand": "right"
    },
    {
      "midi": 91,
      "time": 362.5,
      "duration": 0.125,
      "velocity": 0.49,
      "hand": "right"
    },
    {
      "midi": 81,
      "time": 362.75,
      "duration": 0.125,
      "velocity": 0.49,
      "hand": "right"
    },
    {
      "midi": 84,
      "time": 362.75,
      "duration": 0.125,
      "velocity": 0.49,
      "hand": "right"
    },
    {
      "midi": 87,
      "time": 362.75,
      "duration": 0.125,
      "velocity": 0.49,
      "hand": "right"
    },
    {
      "midi": 78,
      "time": 363,
      "duration": 0.125,
      "velocity": 0.49,
      "hand": "right"
    },
    {
      "midi": 80,
      "time": 363,
      "duration": 0.125,
      "velocity": 0.49,
      "hand": "right"
    },
    {
      "midi": 82,
      "time": 363,
      "duration": 0.125,
      "velocity": 0.49,
      "hand": "right"
    },
    {
      "midi": 74,
      "time": 363.25,
      "duration": 0.125,
      "velocity": 0.49,
      "hand": "right"
    },
    {
      "midi": 77,
      "time": 363.25,
      "duration": 0.125,
      "velocity": 0.49,
      "hand": "right"
    },
    {
      "midi": 79,
      "time": 363.25,
      "duration": 0.125,
      "velocity": 0.49,
      "hand": "right"
    },
    {
      "midi": 69,
      "time": 363.5,
      "duration": 0.125,
      "velocity": 0.49,
      "hand": "right"
    },
    {
      "midi": 72,
      "time": 363.5,
      "duration": 0.125,
      "velocity": 0.49,
      "hand": "right"
    },
    {
      "midi": 75,
      "time": 363.5,
      "duration": 0.125,
      "velocity": 0.49,
      "hand": "right"
    },
    {
      "midi": 66,
      "time": 363.75,
      "duration": 0.125,
      "velocity": 0.49,
      "hand": "right"
    },
    {
      "midi": 68,
      "time": 363.75,
      "duration": 0.125,
      "velocity": 0.49,
      "hand": "right"
    },
    {
      "midi": 70,
      "time": 363.75,
      "duration": 0.125,
      "velocity": 0.49,
      "hand": "right"
    },
    {
      "midi": 62,
      "time": 364,
      "duration": 0.125,
      "velocity": 0.49,
      "hand": "right"
    },
    {
      "midi": 65,
      "time": 364,
      "duration": 0.125,
      "velocity": 0.49,
      "hand": "right"
    },
    {
      "midi": 67,
      "time": 364,
      "duration": 0.125,
      "velocity": 0.49,
      "hand": "right"
    },
    {
      "midi": 57,
      "time": 364.25,
      "duration": 0.125,
      "velocity": 0.49,
      "hand": "left"
    },
    {
      "midi": 60,
      "time": 364.25,
      "duration": 0.125,
      "velocity": 0.49,
      "hand": "right"
    },
    {
      "midi": 63,
      "time": 364.25,
      "duration": 0.125,
      "velocity": 0.49,
      "hand": "right"
    },
    {
      "midi": 58,
      "time": 364.5,
      "duration": 0.125,
      "velocity": 0.49,
      "hand": "left"
    },
    {
      "midi": 62,
      "time": 364.5,
      "duration": 0.125,
      "velocity": 0.49,
      "hand": "right"
    },
    {
      "midi": 65,
      "time": 364.5,
      "duration": 0.125,
      "velocity": 0.49,
      "hand": "right"
    },
    {
      "midi": 57,
      "time": 364.75,
      "duration": 0.125,
      "velocity": 0.49,
      "hand": "left"
    },
    {
      "midi": 60,
      "time": 364.75,
      "duration": 0.125,
      "velocity": 0.49,
      "hand": "right"
    },
    {
      "midi": 63,
      "time": 364.75,
      "duration": 0.125,
      "velocity": 0.49,
      "hand": "right"
    },
    {
      "midi": 58,
      "time": 365,
      "duration": 0.125,
      "velocity": 0.49,
      "hand": "left"
    },
    {
      "midi": 62,
      "time": 365,
      "duration": 0.125,
      "velocity": 0.49,
      "hand": "right"
    },
    {
      "midi": 65,
      "time": 365,
      "duration": 0.125,
      "velocity": 0.49,
      "hand": "right"
    },
    {
      "midi": 57,
      "time": 365.25,
      "duration": 0.125,
      "velocity": 0.49,
      "hand": "left"
    },
    {
      "midi": 60,
      "time": 365.25,
      "duration": 0.125,
      "velocity": 0.49,
      "hand": "right"
    },
    {
      "midi": 63,
      "time": 365.25,
      "duration": 0.125,
      "velocity": 0.49,
      "hand": "right"
    },
    {
      "midi": 58,
      "time": 365.5,
      "duration": 0.125,
      "velocity": 0.49,
      "hand": "left"
    },
    {
      "midi": 62,
      "time": 365.5,
      "duration": 0.125,
      "velocity": 0.49,
      "hand": "right"
    },
    {
      "midi": 65,
      "time": 365.5,
      "duration": 0.125,
      "velocity": 0.49,
      "hand": "right"
    },
    {
      "midi": 57,
      "time": 365.75,
      "duration": 0.125,
      "velocity": 0.49,
      "hand": "left"
    },
    {
      "midi": 60,
      "time": 365.75,
      "duration": 0.125,
      "velocity": 0.49,
      "hand": "right"
    },
    {
      "midi": 63,
      "time": 365.75,
      "duration": 0.125,
      "velocity": 0.49,
      "hand": "right"
    },
    {
      "midi": 58,
      "time": 366,
      "duration": 0.125,
      "velocity": 0.49,
      "hand": "left"
    },
    {
      "midi": 62,
      "time": 366,
      "duration": 0.25,
      "velocity": 0.49,
      "hand": "right"
    },
    {
      "midi": 63,
      "time": 366.25,
      "duration": 0.125,
      "velocity": 0.55,
      "hand": "right"
    },
    {
      "midi": 66,
      "time": 366.25,
      "duration": 0.125,
      "velocity": 0.57,
      "hand": "right"
    },
    {
      "midi": 67,
      "time": 366.5,
      "duration": 0.125,
      "velocity": 0.59,
      "hand": "right"
    },
    {
      "midi": 69,
      "time": 366.5,
      "duration": 0.125,
      "velocity": 0.61,
      "hand": "right"
    },
    {
      "midi": 70,
      "time": 366.5,
      "duration": 0.125,
      "velocity": 0.64,
      "hand": "right"
    },
    {
      "midi": 74,
      "time": 366.75,
      "duration": 0.125,
      "velocity": 0.66,
      "hand": "right"
    },
    {
      "midi": 75,
      "time": 366.75,
      "duration": 0.125,
      "velocity": 0.68,
      "hand": "right"
    },
    {
      "midi": 78,
      "time": 366.75,
      "duration": 0.125,
      "velocity": 0.7,
      "hand": "right"
    },
    {
      "midi": 79,
      "time": 367,
      "duration": 0.125,
      "velocity": 0.72,
      "hand": "right"
    },
    {
      "midi": 82,
      "time": 367,
      "duration": 1,
      "velocity": 0.75,
      "hand": "right"
    },
    {
      "midi": 79,
      "time": 368,
      "duration": 0.125,
      "velocity": 0.75,
      "hand": "right"
    },
    {
      "midi": 72,
      "time": 368.25,
      "duration": 0.125,
      "velocity": 0.75,
      "hand": "right"
    },
    {
      "midi": 75,
      "time": 368.25,
      "duration": 0.125,
      "velocity": 0.75,
      "hand": "right"
    },
    {
      "midi": 67,
      "time": 368.5,
      "duration": 0.125,
      "velocity": 0.75,
      "hand": "right"
    },
    {
      "midi": 70,
      "time": 368.5,
      "duration": 0.125,
      "velocity": 0.75,
      "hand": "right"
    },
    {
      "midi": 60,
      "time": 368.75,
      "duration": 0.125,
      "velocity": 0.75,
      "hand": "right"
    },
    {
      "midi": 63,
      "time": 368.75,
      "duration": 0.125,
      "velocity": 0.75,
      "hand": "right"
    },
    {
      "midi": 51,
      "time": 369,
      "duration": 0.125,
      "velocity": 0.75,
      "hand": "left"
    },
    {
      "midi": 55,
      "time": 369,
      "duration": 0.125,
      "velocity": 0.75,
      "hand": "left"
    },
    {
      "midi": 58,
      "time": 369,
      "duration": 0.125,
      "velocity": 0.75,
      "hand": "left"
    },
    {
      "midi": 46,
      "time": 369.25,
      "duration": 0.125,
      "velocity": 0.75,
      "hand": "left"
    },
    {
      "midi": 48,
      "time": 369.25,
      "duration": 0.125,
      "velocity": 0.75,
      "hand": "left"
    },
    {
      "midi": 39,
      "time": 369.5,
      "duration": 0.125,
      "velocity": 0.75,
      "hand": "left"
    },
    {
      "midi": 43,
      "time": 369.5,
      "duration": 0.125,
      "velocity": 0.75,
      "hand": "left"
    },
    {
      "midi": 34,
      "time": 369.75,
      "duration": 0.125,
      "velocity": 0.75,
      "hand": "left"
    },
    {
      "midi": 36,
      "time": 369.75,
      "duration": 0.125,
      "velocity": 0.75,
      "hand": "left"
    },
    {
      "midi": 27,
      "time": 370,
      "duration": 2,
      "velocity": 0.54,
      "hand": "left"
    },
    {
      "midi": 31,
      "time": 370,
      "duration": 0.125,
      "velocity": 0.75,
      "hand": "left"
    },
    {
      "midi": 31,
      "time": 372,
      "duration": 0.25,
      "velocity": 0.54,
      "hand": "left"
    },
    {
      "midi": 39,
      "time": 372,
      "duration": 0.25,
      "velocity": 0.71,
      "hand": "left"
    },
    {
      "midi": 34,
      "time": 372.25,
      "duration": 0.25,
      "velocity": 0.54,
      "hand": "left"
    },
    {
      "midi": 43,
      "time": 372.25,
      "duration": 0.25,
      "velocity": 0.71,
      "hand": "left"
    },
    {
      "midi": 39,
      "time": 372.75,
      "duration": 0.25,
      "velocity": 0.54,
      "hand": "left"
    },
    {
      "midi": 46,
      "time": 372.75,
      "duration": 0.25,
      "velocity": 0.71,
      "hand": "left"
    },
    {
      "midi": 43,
      "time": 373,
      "duration": 0.25,
      "velocity": 0.54,
      "hand": "left"
    },
    {
      "midi": 51,
      "time": 373,
      "duration": 0.25,
      "velocity": 0.71,
      "hand": "left"
    },
    {
      "midi": 46,
      "time": 373.25,
      "duration": 0.25,
      "velocity": 0.54,
      "hand": "left"
    },
    {
      "midi": 51,
      "time": 373.25,
      "duration": 0.25,
      "velocity": 0.54,
      "hand": "left"
    },
    {
      "midi": 55,
      "time": 373.25,
      "duration": 0.25,
      "velocity": 0.71,
      "hand": "left"
    },
    {
      "midi": 58,
      "time": 373.25,
      "duration": 0.25,
      "velocity": 0.71,
      "hand": "left"
    },
    {
      "midi": 55,
      "time": 373.5,
      "duration": 0.25,
      "velocity": 0.54,
      "hand": "left"
    },
    {
      "midi": 58,
      "time": 373.5,
      "duration": 0.25,
      "velocity": 0.71,
      "hand": "left"
    },
    {
      "midi": 63,
      "time": 373.5,
      "duration": 0.25,
      "velocity": 0.71,
      "hand": "right"
    },
    {
      "midi": 67,
      "time": 373.5,
      "duration": 0.25,
      "velocity": 0.75,
      "hand": "right"
    },
    {
      "midi": 63,
      "time": 373.75,
      "duration": 0.25,
      "velocity": 0.71,
      "hand": "right"
    },
    {
      "midi": 70,
      "time": 373.75,
      "duration": 0.25,
      "velocity": 0.75,
      "hand": "right"
    },
    {
      "midi": 67,
      "time": 374,
      "duration": 0.25,
      "velocity": 0.71,
      "hand": "right"
    },
    {
      "midi": 70,
      "time": 374,
      "duration": 0.25,
      "velocity": 0.71,
      "hand": "right"
    },
    {
      "midi": 75,
      "time": 374,
      "duration": 0.25,
      "velocity": 0.75,
      "hand": "right"
    },
    {
      "midi": 79,
      "time": 374,
      "duration": 0.25,
      "velocity": 0.75,
      "hand": "right"
    },
    {
      "midi": 75,
      "time": 374.25,
      "duration": 0.25,
      "velocity": 0.71,
      "hand": "right"
    },
    {
      "midi": 82,
      "time": 374.25,
      "duration": 0.25,
      "velocity": 0.75,
      "hand": "right"
    },
    {
      "midi": 79,
      "time": 374.5,
      "duration": 0.25,
      "velocity": 0.71,
      "hand": "right"
    },
    {
      "midi": 82,
      "time": 374.5,
      "duration": 0.25,
      "velocity": 0.71,
      "hand": "right"
    },
    {
      "midi": 87,
      "time": 374.5,
      "duration": 0.25,
      "velocity": 0.75,
      "hand": "right"
    },
    {
      "midi": 91,
      "time": 374.5,
      "duration": 0.25,
      "velocity": 0.75,
      "hand": "right"
    },
    {
      "midi": 87,
      "time": 374.75,
      "duration": 0.25,
      "velocity": 0.71,
      "hand": "right"
    },
    {
      "midi": 91,
      "time": 374.75,
      "duration": 0.25,
      "velocity": 0.71,
      "hand": "right"
    },
    {
      "midi": 94,
      "time": 374.75,
      "duration": 0.25,
      "velocity": 0.75,
      "hand": "right"
    },
    {
      "midi": 99,
      "time": 374.75,
      "duration": 0.25,
      "velocity": 0.75,
      "hand": "right"
    },
    {
      "midi": 94,
      "time": 375,
      "duration": 0.5,
      "velocity": 0.71,
      "hand": "right"
    },
    {
      "midi": 103,
      "time": 375,
      "duration": 0.5,
      "velocity": 0.75,
      "hand": "right"
    },
    {
      "midi": 31,
      "time": 376,
      "duration": 0.25,
      "velocity": 0.54,
      "hand": "left"
    },
    {
      "midi": 43,
      "time": 376,
      "duration": 0.25,
      "velocity": 0.75,
      "hand": "left"
    },
    {
      "midi": 55,
      "time": 376,
      "duration": 0.25,
      "velocity": 0.75,
      "hand": "left"
    },
    {
      "midi": 34,
      "time": 376.25,
      "duration": 0.25,
      "velocity": 0.54,
      "hand": "left"
    },
    {
      "midi": 46,
      "time": 376.25,
      "duration": 0.25,
      "velocity": 0.75,
      "hand": "left"
    },
    {
      "midi": 58,
      "time": 376.25,
      "duration": 0.25,
      "velocity": 0.75,
      "hand": "left"
    },
    {
      "midi": 36,
      "time": 376.5,
      "duration": 0.25,
      "velocity": 0.71,
      "hand": "left"
    },
    {
      "midi": 48,
      "time": 376.5,
      "duration": 0.25,
      "velocity": 0.71,
      "hand": "left"
    },
    {
      "midi": 60,
      "time": 376.5,
      "duration": 0.25,
      "velocity": 0.71,
      "hand": "right"
    },
    {
      "midi": 32,
      "time": 376.75,
      "duration": 0.25,
      "velocity": 0.71,
      "hand": "left"
    },
    {
      "midi": 44,
      "time": 376.75,
      "duration": 0.25,
      "velocity": 0.71,
      "hand": "left"
    },
    {
      "midi": 56,
      "time": 376.75,
      "duration": 0.25,
      "velocity": 0.71,
      "hand": "left"
    },
    {
      "midi": 34,
      "time": 377,
      "duration": 0.25,
      "velocity": 0.71,
      "hand": "left"
    },
    {
      "midi": 46,
      "time": 377,
      "duration": 0.25,
      "velocity": 0.71,
      "hand": "left"
    },
    {
      "midi": 58,
      "time": 377,
      "duration": 0.25,
      "velocity": 0.71,
      "hand": "left"
    },
    {
      "midi": 38,
      "time": 377.25,
      "duration": 0.25,
      "velocity": 0.71,
      "hand": "left"
    },
    {
      "midi": 50,
      "time": 377.25,
      "duration": 0.25,
      "velocity": 0.71,
      "hand": "left"
    },
    {
      "midi": 62,
      "time": 377.25,
      "duration": 0.25,
      "velocity": 0.71,
      "hand": "right"
    },
    {
      "midi": 39,
      "time": 377.5,
      "duration": 0.25,
      "velocity": 0.71,
      "hand": "left"
    },
    {
      "midi": 51,
      "time": 377.5,
      "duration": 0.25,
      "velocity": 0.71,
      "hand": "left"
    },
    {
      "midi": 63,
      "time": 377.5,
      "duration": 0.25,
      "velocity": 0.71,
      "hand": "right"
    },
    {
      "midi": 36,
      "time": 377.75,
      "duration": 0.25,
      "velocity": 0.71,
      "hand": "left"
    },
    {
      "midi": 48,
      "time": 377.75,
      "duration": 0.25,
      "velocity": 0.71,
      "hand": "left"
    },
    {
      "midi": 60,
      "time": 377.75,
      "duration": 0.25,
      "velocity": 0.71,
      "hand": "right"
    },
    {
      "midi": 40,
      "time": 378,
      "duration": 0.25,
      "velocity": 0.71,
      "hand": "left"
    },
    {
      "midi": 52,
      "time": 378,
      "duration": 0.25,
      "velocity": 0.71,
      "hand": "left"
    },
    {
      "midi": 64,
      "time": 378,
      "duration": 0.25,
      "velocity": 0.71,
      "hand": "right"
    },
    {
      "midi": 37,
      "time": 378.25,
      "duration": 0.25,
      "velocity": 0.71,
      "hand": "left"
    },
    {
      "midi": 49,
      "time": 378.25,
      "duration": 0.25,
      "velocity": 0.71,
      "hand": "left"
    },
    {
      "midi": 61,
      "time": 378.25,
      "duration": 0.25,
      "velocity": 0.71,
      "hand": "right"
    },
    {
      "midi": 41,
      "time": 378.5,
      "duration": 0.25,
      "velocity": 0.71,
      "hand": "left"
    },
    {
      "midi": 53,
      "time": 378.5,
      "duration": 0.25,
      "velocity": 0.71,
      "hand": "left"
    },
    {
      "midi": 65,
      "time": 378.5,
      "duration": 0.25,
      "velocity": 0.71,
      "hand": "right"
    },
    {
      "midi": 38,
      "time": 378.75,
      "duration": 0.25,
      "velocity": 0.71,
      "hand": "left"
    },
    {
      "midi": 50,
      "time": 378.75,
      "duration": 0.25,
      "velocity": 0.71,
      "hand": "left"
    },
    {
      "midi": 62,
      "time": 378.75,
      "duration": 0.25,
      "velocity": 0.71,
      "hand": "right"
    },
    {
      "midi": 43,
      "time": 379,
      "duration": 0.25,
      "velocity": 0.71,
      "hand": "left"
    },
    {
      "midi": 55,
      "time": 379,
      "duration": 0.25,
      "velocity": 0.71,
      "hand": "left"
    },
    {
      "midi": 67,
      "time": 379,
      "duration": 0.25,
      "velocity": 0.71,
      "hand": "right"
    },
    {
      "midi": 39,
      "time": 379.25,
      "duration": 0.25,
      "velocity": 0.71,
      "hand": "left"
    },
    {
      "midi": 52,
      "time": 379.25,
      "duration": 0.25,
      "velocity": 0.71,
      "hand": "left"
    },
    {
      "midi": 64,
      "time": 379.25,
      "duration": 0.25,
      "velocity": 0.71,
      "hand": "right"
    },
    {
      "midi": 44,
      "time": 379.5,
      "duration": 0.25,
      "velocity": 0.71,
      "hand": "left"
    },
    {
      "midi": 56,
      "time": 379.5,
      "duration": 0.25,
      "velocity": 0.71,
      "hand": "left"
    },
    {
      "midi": 68,
      "time": 379.5,
      "duration": 0.25,
      "velocity": 0.71,
      "hand": "right"
    },
    {
      "midi": 41,
      "time": 379.75,
      "duration": 0.25,
      "velocity": 0.71,
      "hand": "left"
    },
    {
      "midi": 53,
      "time": 379.75,
      "duration": 0.25,
      "velocity": 0.71,
      "hand": "left"
    },
    {
      "midi": 65,
      "time": 379.75,
      "duration": 0.25,
      "velocity": 0.71,
      "hand": "right"
    },
    {
      "midi": 43,
      "time": 380,
      "duration": 0.25,
      "velocity": 0.71,
      "hand": "left"
    },
    {
      "midi": 55,
      "time": 380,
      "duration": 0.25,
      "velocity": 0.71,
      "hand": "left"
    },
    {
      "midi": 67,
      "time": 380,
      "duration": 0.25,
      "velocity": 0.71,
      "hand": "right"
    },
    {
      "midi": 46,
      "time": 380.25,
      "duration": 0.25,
      "velocity": 0.71,
      "hand": "left"
    },
    {
      "midi": 58,
      "time": 380.25,
      "duration": 0.25,
      "velocity": 0.71,
      "hand": "left"
    },
    {
      "midi": 70,
      "time": 380.25,
      "duration": 0.25,
      "velocity": 0.71,
      "hand": "right"
    },
    {
      "midi": 48,
      "time": 380.5,
      "duration": 0.25,
      "velocity": 0.71,
      "hand": "left"
    },
    {
      "midi": 60,
      "time": 380.5,
      "duration": 0.25,
      "velocity": 0.71,
      "hand": "right"
    },
    {
      "midi": 72,
      "time": 380.5,
      "duration": 0.25,
      "velocity": 0.71,
      "hand": "right"
    },
    {
      "midi": 44,
      "time": 380.75,
      "duration": 0.25,
      "velocity": 0.71,
      "hand": "left"
    },
    {
      "midi": 56,
      "time": 380.75,
      "duration": 0.25,
      "velocity": 0.71,
      "hand": "left"
    },
    {
      "midi": 68,
      "time": 380.75,
      "duration": 0.25,
      "velocity": 0.71,
      "hand": "right"
    },
    {
      "midi": 46,
      "time": 381,
      "duration": 0.25,
      "velocity": 0.71,
      "hand": "left"
    },
    {
      "midi": 58,
      "time": 381,
      "duration": 0.25,
      "velocity": 0.71,
      "hand": "left"
    },
    {
      "midi": 70,
      "time": 381,
      "duration": 0.25,
      "velocity": 0.71,
      "hand": "right"
    },
    {
      "midi": 50,
      "time": 381.25,
      "duration": 0.25,
      "velocity": 0.71,
      "hand": "left"
    },
    {
      "midi": 62,
      "time": 381.25,
      "duration": 0.25,
      "velocity": 0.71,
      "hand": "right"
    },
    {
      "midi": 74,
      "time": 381.25,
      "duration": 0.25,
      "velocity": 0.71,
      "hand": "right"
    },
    {
      "midi": 51,
      "time": 381.5,
      "duration": 0.25,
      "velocity": 0.71,
      "hand": "left"
    },
    {
      "midi": 63,
      "time": 381.5,
      "duration": 0.25,
      "velocity": 0.71,
      "hand": "right"
    },
    {
      "midi": 75,
      "time": 381.5,
      "duration": 0.25,
      "velocity": 0.71,
      "hand": "right"
    },
    {
      "midi": 48,
      "time": 381.75,
      "duration": 0.25,
      "velocity": 0.71,
      "hand": "left"
    },
    {
      "midi": 60,
      "time": 381.75,
      "duration": 0.25,
      "velocity": 0.71,
      "hand": "right"
    },
    {
      "midi": 72,
      "time": 381.75,
      "duration": 0.25,
      "velocity": 0.71,
      "hand": "right"
    },
    {
      "midi": 52,
      "time": 382,
      "duration": 0.25,
      "velocity": 0.71,
      "hand": "left"
    },
    {
      "midi": 64,
      "time": 382,
      "duration": 0.25,
      "velocity": 0.71,
      "hand": "right"
    },
    {
      "midi": 76,
      "time": 382,
      "duration": 0.25,
      "velocity": 0.71,
      "hand": "right"
    },
    {
      "midi": 49,
      "time": 382.25,
      "duration": 0.25,
      "velocity": 0.71,
      "hand": "left"
    },
    {
      "midi": 61,
      "time": 382.25,
      "duration": 0.25,
      "velocity": 0.71,
      "hand": "right"
    },
    {
      "midi": 73,
      "time": 382.25,
      "duration": 0.25,
      "velocity": 0.71,
      "hand": "right"
    },
    {
      "midi": 53,
      "time": 382.5,
      "duration": 0.25,
      "velocity": 0.71,
      "hand": "left"
    },
    {
      "midi": 65,
      "time": 382.5,
      "duration": 0.25,
      "velocity": 0.71,
      "hand": "right"
    },
    {
      "midi": 77,
      "time": 382.5,
      "duration": 0.25,
      "velocity": 0.71,
      "hand": "right"
    },
    {
      "midi": 50,
      "time": 382.75,
      "duration": 0.25,
      "velocity": 0.71,
      "hand": "left"
    },
    {
      "midi": 62,
      "time": 382.75,
      "duration": 0.25,
      "velocity": 0.71,
      "hand": "right"
    },
    {
      "midi": 74,
      "time": 382.75,
      "duration": 0.25,
      "velocity": 0.71,
      "hand": "right"
    },
    {
      "midi": 55,
      "time": 383,
      "duration": 0.25,
      "velocity": 0.71,
      "hand": "left"
    },
    {
      "midi": 67,
      "time": 383,
      "duration": 0.25,
      "velocity": 0.71,
      "hand": "right"
    },
    {
      "midi": 79,
      "time": 383,
      "duration": 0.25,
      "velocity": 0.71,
      "hand": "right"
    },
    {
      "midi": 51,
      "time": 383.25,
      "duration": 0.25,
      "velocity": 0.71,
      "hand": "left"
    },
    {
      "midi": 64,
      "time": 383.25,
      "duration": 0.25,
      "velocity": 0.71,
      "hand": "right"
    },
    {
      "midi": 76,
      "time": 383.25,
      "duration": 0.25,
      "velocity": 0.71,
      "hand": "right"
    },
    {
      "midi": 56,
      "time": 383.5,
      "duration": 0.25,
      "velocity": 0.71,
      "hand": "left"
    },
    {
      "midi": 68,
      "time": 383.5,
      "duration": 0.25,
      "velocity": 0.71,
      "hand": "right"
    },
    {
      "midi": 80,
      "time": 383.5,
      "duration": 0.25,
      "velocity": 0.71,
      "hand": "right"
    },
    {
      "midi": 53,
      "time": 383.75,
      "duration": 0.25,
      "velocity": 0.71,
      "hand": "left"
    },
    {
      "midi": 65,
      "time": 383.75,
      "duration": 0.25,
      "velocity": 0.71,
      "hand": "right"
    },
    {
      "midi": 77,
      "time": 383.75,
      "duration": 0.25,
      "velocity": 0.71,
      "hand": "right"
    },
    {
      "midi": 58,
      "time": 384,
      "duration": 0.25,
      "velocity": 0.71,
      "hand": "left"
    },
    {
      "midi": 70,
      "time": 384,
      "duration": 0.25,
      "velocity": 0.71,
      "hand": "right"
    },
    {
      "midi": 82,
      "time": 384,
      "duration": 0.25,
      "velocity": 0.71,
      "hand": "right"
    },
    {
      "midi": 55,
      "time": 384.25,
      "duration": 0.25,
      "velocity": 0.71,
      "hand": "left"
    },
    {
      "midi": 67,
      "time": 384.25,
      "duration": 0.25,
      "velocity": 0.71,
      "hand": "right"
    },
    {
      "midi": 79,
      "time": 384.25,
      "duration": 0.25,
      "velocity": 0.71,
      "hand": "right"
    },
    {
      "midi": 60,
      "time": 384.5,
      "duration": 0.25,
      "velocity": 0.71,
      "hand": "right"
    },
    {
      "midi": 72,
      "time": 384.5,
      "duration": 0.25,
      "velocity": 0.71,
      "hand": "right"
    },
    {
      "midi": 84,
      "time": 384.5,
      "duration": 0.25,
      "velocity": 0.71,
      "hand": "right"
    },
    {
      "midi": 56,
      "time": 384.75,
      "duration": 0.25,
      "velocity": 0.71,
      "hand": "left"
    },
    {
      "midi": 68,
      "time": 384.75,
      "duration": 0.25,
      "velocity": 0.71,
      "hand": "right"
    },
    {
      "midi": 80,
      "time": 384.75,
      "duration": 0.25,
      "velocity": 0.71,
      "hand": "right"
    },
    {
      "midi": 58,
      "time": 385,
      "duration": 0.25,
      "velocity": 0.71,
      "hand": "left"
    },
    {
      "midi": 70,
      "time": 385,
      "duration": 0.25,
      "velocity": 0.71,
      "hand": "right"
    },
    {
      "midi": 82,
      "time": 385,
      "duration": 0.25,
      "velocity": 0.71,
      "hand": "right"
    },
    {
      "midi": 62,
      "time": 385.25,
      "duration": 0.25,
      "velocity": 0.71,
      "hand": "right"
    },
    {
      "midi": 74,
      "time": 385.25,
      "duration": 0.25,
      "velocity": 0.71,
      "hand": "right"
    },
    {
      "midi": 86,
      "time": 385.25,
      "duration": 0.25,
      "velocity": 0.71,
      "hand": "right"
    },
    {
      "midi": 63,
      "time": 385.5,
      "duration": 0.25,
      "velocity": 0.71,
      "hand": "right"
    },
    {
      "midi": 75,
      "time": 385.5,
      "duration": 0.25,
      "velocity": 0.71,
      "hand": "right"
    },
    {
      "midi": 87,
      "time": 385.5,
      "duration": 0.25,
      "velocity": 0.71,
      "hand": "right"
    },
    {
      "midi": 60,
      "time": 385.75,
      "duration": 0.25,
      "velocity": 0.71,
      "hand": "right"
    },
    {
      "midi": 72,
      "time": 385.75,
      "duration": 0.25,
      "velocity": 0.71,
      "hand": "right"
    },
    {
      "midi": 84,
      "time": 385.75,
      "duration": 0.25,
      "velocity": 0.71,
      "hand": "right"
    },
    {
      "midi": 62,
      "time": 386,
      "duration": 0.25,
      "velocity": 0.71,
      "hand": "right"
    },
    {
      "midi": 74,
      "time": 386,
      "duration": 0.25,
      "velocity": 0.71,
      "hand": "right"
    },
    {
      "midi": 86,
      "time": 386,
      "duration": 0.25,
      "velocity": 0.71,
      "hand": "right"
    },
    {
      "midi": 65,
      "time": 386.25,
      "duration": 0.25,
      "velocity": 0.71,
      "hand": "right"
    },
    {
      "midi": 77,
      "time": 386.25,
      "duration": 0.25,
      "velocity": 0.71,
      "hand": "right"
    },
    {
      "midi": 89,
      "time": 386.25,
      "duration": 0.25,
      "velocity": 0.71,
      "hand": "right"
    },
    {
      "midi": 67,
      "time": 386.5,
      "duration": 0.25,
      "velocity": 0.71,
      "hand": "right"
    },
    {
      "midi": 79,
      "time": 386.5,
      "duration": 0.25,
      "velocity": 0.71,
      "hand": "right"
    },
    {
      "midi": 91,
      "time": 386.5,
      "duration": 0.25,
      "velocity": 0.71,
      "hand": "right"
    },
    {
      "midi": 63,
      "time": 386.75,
      "duration": 0.25,
      "velocity": 0.71,
      "hand": "right"
    },
    {
      "midi": 75,
      "time": 386.75,
      "duration": 0.25,
      "velocity": 0.71,
      "hand": "right"
    },
    {
      "midi": 87,
      "time": 386.75,
      "duration": 0.25,
      "velocity": 0.71,
      "hand": "right"
    },
    {
      "midi": 65,
      "time": 387,
      "duration": 0.25,
      "velocity": 0.71,
      "hand": "right"
    },
    {
      "midi": 77,
      "time": 387,
      "duration": 0.25,
      "velocity": 0.71,
      "hand": "right"
    },
    {
      "midi": 89,
      "time": 387,
      "duration": 0.25,
      "velocity": 0.71,
      "hand": "right"
    },
    {
      "midi": 68,
      "time": 387.25,
      "duration": 0.25,
      "velocity": 0.71,
      "hand": "right"
    },
    {
      "midi": 80,
      "time": 387.25,
      "duration": 0.25,
      "velocity": 0.71,
      "hand": "right"
    },
    {
      "midi": 92,
      "time": 387.25,
      "duration": 0.25,
      "velocity": 0.71,
      "hand": "right"
    },
    {
      "midi": 70,
      "time": 387.5,
      "duration": 0.25,
      "velocity": 0.71,
      "hand": "right"
    },
    {
      "midi": 82,
      "time": 387.5,
      "duration": 0.25,
      "velocity": 0.71,
      "hand": "right"
    },
    {
      "midi": 94,
      "time": 387.5,
      "duration": 0.25,
      "velocity": 0.71,
      "hand": "right"
    },
    {
      "midi": 66,
      "time": 387.75,
      "duration": 0.25,
      "velocity": 0.71,
      "hand": "right"
    },
    {
      "midi": 78,
      "time": 387.75,
      "duration": 0.25,
      "velocity": 0.71,
      "hand": "right"
    },
    {
      "midi": 90,
      "time": 387.75,
      "duration": 0.25,
      "velocity": 0.71,
      "hand": "right"
    },
    {
      "midi": 67,
      "time": 388,
      "duration": 0.25,
      "velocity": 0.71,
      "hand": "right"
    },
    {
      "midi": 79,
      "time": 388,
      "duration": 0.25,
      "velocity": 0.71,
      "hand": "right"
    },
    {
      "midi": 91,
      "time": 388,
      "duration": 0.25,
      "velocity": 0.71,
      "hand": "right"
    },
    {
      "midi": 70,
      "time": 388.25,
      "duration": 0.25,
      "velocity": 0.71,
      "hand": "right"
    },
    {
      "midi": 82,
      "time": 388.25,
      "duration": 0.25,
      "velocity": 0.71,
      "hand": "right"
    },
    {
      "midi": 94,
      "time": 388.25,
      "duration": 0.25,
      "velocity": 0.71,
      "hand": "right"
    },
    {
      "midi": 72,
      "time": 388.5,
      "duration": 0.5,
      "velocity": 0.71,
      "hand": "right"
    },
    {
      "midi": 84,
      "time": 388.5,
      "duration": 0.5,
      "velocity": 0.84,
      "hand": "right"
    },
    {
      "midi": 96,
      "time": 388.5,
      "duration": 0.5,
      "velocity": 0.84,
      "hand": "right"
    },
    {
      "midi": 44,
      "time": 389,
      "duration": 1,
      "velocity": 0.71,
      "hand": "left"
    },
    {
      "midi": 50,
      "time": 389,
      "duration": 1,
      "velocity": 0.71,
      "hand": "left"
    },
    {
      "midi": 53,
      "time": 389,
      "duration": 1,
      "velocity": 0.71,
      "hand": "left"
    },
    {
      "midi": 56,
      "time": 389,
      "duration": 1,
      "velocity": 0.71,
      "hand": "left"
    },
    {
      "midi": 60,
      "time": 389,
      "duration": 1,
      "velocity": 0.84,
      "hand": "right"
    },
    {
      "midi": 65,
      "time": 389,
      "duration": 1,
      "velocity": 0.84,
      "hand": "right"
    },
    {
      "midi": 72,
      "time": 389,
      "duration": 1,
      "velocity": 0.84,
      "hand": "right"
    },
    {
      "midi": 65,
      "time": 390,
      "duration": 0.25,
      "velocity": 0.71,
      "hand": "right"
    },
    {
      "midi": 77,
      "time": 390,
      "duration": 0.25,
      "velocity": 0.84,
      "hand": "right"
    },
    {
      "midi": 89,
      "time": 390,
      "duration": 0.25,
      "velocity": 0.84,
      "hand": "right"
    },
    {
      "midi": 68,
      "time": 390.25,
      "duration": 0.25,
      "velocity": 0.71,
      "hand": "right"
    },
    {
      "midi": 80,
      "time": 390.25,
      "duration": 0.25,
      "velocity": 0.84,
      "hand": "right"
    },
    {
      "midi": 92,
      "time": 390.25,
      "duration": 0.25,
      "velocity": 0.84,
      "hand": "right"
    },
    {
      "midi": 70,
      "time": 390.5,
      "duration": 0.5,
      "velocity": 0.71,
      "hand": "right"
    },
    {
      "midi": 82,
      "time": 390.5,
      "duration": 0.5,
      "velocity": 0.84,
      "hand": "right"
    },
    {
      "midi": 94,
      "time": 390.5,
      "duration": 0.5,
      "velocity": 0.84,
      "hand": "right"
    },
    {
      "midi": 43,
      "time": 391,
      "duration": 1,
      "velocity": 0.71,
      "hand": "left"
    },
    {
      "midi": 46,
      "time": 391,
      "duration": 1,
      "velocity": 0.71,
      "hand": "left"
    },
    {
      "midi": 51,
      "time": 391,
      "duration": 1,
      "velocity": 0.71,
      "hand": "left"
    },
    {
      "midi": 55,
      "time": 391,
      "duration": 1,
      "velocity": 0.71,
      "hand": "left"
    },
    {
      "midi": 58,
      "time": 391,
      "duration": 1,
      "velocity": 0.84,
      "hand": "left"
    },
    {
      "midi": 63,
      "time": 391,
      "duration": 1,
      "velocity": 0.84,
      "hand": "right"
    },
    {
      "midi": 67,
      "time": 391,
      "duration": 1,
      "velocity": 0.84,
      "hand": "right"
    },
    {
      "midi": 70,
      "time": 391,
      "duration": 1,
      "velocity": 0.84,
      "hand": "right"
    },
    {
      "midi": 67,
      "time": 392,
      "duration": 0.25,
      "velocity": 0.71,
      "hand": "right"
    },
    {
      "midi": 79,
      "time": 392,
      "duration": 0.25,
      "velocity": 0.84,
      "hand": "right"
    },
    {
      "midi": 91,
      "time": 392,
      "duration": 0.25,
      "velocity": 0.84,
      "hand": "right"
    },
    {
      "midi": 70,
      "time": 392.25,
      "duration": 0.25,
      "velocity": 0.71,
      "hand": "right"
    },
    {
      "midi": 82,
      "time": 392.25,
      "duration": 0.25,
      "velocity": 0.84,
      "hand": "right"
    },
    {
      "midi": 94,
      "time": 392.25,
      "duration": 0.25,
      "velocity": 0.84,
      "hand": "right"
    },
    {
      "midi": 72,
      "time": 392.5,
      "duration": 0.5,
      "velocity": 0.71,
      "hand": "right"
    },
    {
      "midi": 84,
      "time": 392.5,
      "duration": 0.5,
      "velocity": 0.84,
      "hand": "right"
    },
    {
      "midi": 96,
      "time": 392.5,
      "duration": 0.5,
      "velocity": 0.84,
      "hand": "right"
    },
    {
      "midi": 44,
      "time": 393,
      "duration": 1,
      "velocity": 0.71,
      "hand": "left"
    },
    {
      "midi": 50,
      "time": 393,
      "duration": 1,
      "velocity": 0.71,
      "hand": "left"
    },
    {
      "midi": 53,
      "time": 393,
      "duration": 1,
      "velocity": 0.71,
      "hand": "left"
    },
    {
      "midi": 56,
      "time": 393,
      "duration": 1,
      "velocity": 0.71,
      "hand": "left"
    },
    {
      "midi": 60,
      "time": 393,
      "duration": 1,
      "velocity": 0.84,
      "hand": "right"
    },
    {
      "midi": 65,
      "time": 393,
      "duration": 1,
      "velocity": 0.84,
      "hand": "right"
    },
    {
      "midi": 72,
      "time": 393,
      "duration": 1,
      "velocity": 0.84,
      "hand": "right"
    },
    {
      "midi": 65,
      "time": 394,
      "duration": 0.25,
      "velocity": 0.71,
      "hand": "right"
    },
    {
      "midi": 77,
      "time": 394,
      "duration": 0.25,
      "velocity": 0.84,
      "hand": "right"
    },
    {
      "midi": 89,
      "time": 394,
      "duration": 0.25,
      "velocity": 0.84,
      "hand": "right"
    },
    {
      "midi": 68,
      "time": 394.25,
      "duration": 0.25,
      "velocity": 0.71,
      "hand": "right"
    },
    {
      "midi": 80,
      "time": 394.25,
      "duration": 0.25,
      "velocity": 0.84,
      "hand": "right"
    },
    {
      "midi": 92,
      "time": 394.25,
      "duration": 0.25,
      "velocity": 0.84,
      "hand": "right"
    },
    {
      "midi": 70,
      "time": 394.5,
      "duration": 0.5,
      "velocity": 0.71,
      "hand": "right"
    },
    {
      "midi": 82,
      "time": 394.5,
      "duration": 0.5,
      "velocity": 0.84,
      "hand": "right"
    },
    {
      "midi": 94,
      "time": 394.5,
      "duration": 0.5,
      "velocity": 0.84,
      "hand": "right"
    },
    {
      "midi": 43,
      "time": 395,
      "duration": 1,
      "velocity": 0.71,
      "hand": "left"
    },
    {
      "midi": 46,
      "time": 395,
      "duration": 1,
      "velocity": 0.71,
      "hand": "left"
    },
    {
      "midi": 51,
      "time": 395,
      "duration": 1,
      "velocity": 0.71,
      "hand": "left"
    },
    {
      "midi": 55,
      "time": 395,
      "duration": 1,
      "velocity": 0.71,
      "hand": "left"
    },
    {
      "midi": 58,
      "time": 395,
      "duration": 1,
      "velocity": 0.84,
      "hand": "left"
    },
    {
      "midi": 63,
      "time": 395,
      "duration": 1,
      "velocity": 0.84,
      "hand": "right"
    },
    {
      "midi": 67,
      "time": 395,
      "duration": 1,
      "velocity": 0.84,
      "hand": "right"
    },
    {
      "midi": 70,
      "time": 395,
      "duration": 1,
      "velocity": 0.84,
      "hand": "right"
    },
    {
      "midi": 79,
      "time": 396,
      "duration": 0.25,
      "velocity": 0.84,
      "hand": "right"
    },
    {
      "midi": 82,
      "time": 396.25,
      "duration": 0.25,
      "velocity": 0.84,
      "hand": "right"
    },
    {
      "midi": 44,
      "time": 396.5,
      "duration": 0.5,
      "velocity": 0.71,
      "hand": "left"
    },
    {
      "midi": 84,
      "time": 396.5,
      "duration": 0.25,
      "velocity": 0.84,
      "hand": "right"
    },
    {
      "midi": 72,
      "time": 396.75,
      "duration": 0.25,
      "velocity": 0.84,
      "hand": "right"
    },
    {
      "midi": 79,
      "time": 396.75,
      "duration": 0.25,
      "velocity": 0.84,
      "hand": "right"
    },
    {
      "midi": 56,
      "time": 397,
      "duration": 0.5,
      "velocity": 0.71,
      "hand": "left"
    },
    {
      "midi": 60,
      "time": 397,
      "duration": 0.5,
      "velocity": 0.71,
      "hand": "right"
    },
    {
      "midi": 64,
      "time": 397,
      "duration": 0.5,
      "velocity": 0.71,
      "hand": "right"
    },
    {
      "midi": 84,
      "time": 397,
      "duration": 0.25,
      "velocity": 0.84,
      "hand": "right"
    },
    {
      "midi": 72,
      "time": 397.25,
      "duration": 0.25,
      "velocity": 0.84,
      "hand": "right"
    },
    {
      "midi": 79,
      "time": 397.25,
      "duration": 0.25,
      "velocity": 0.84,
      "hand": "right"
    },
    {
      "midi": 68,
      "time": 397.5,
      "duration": 0.5,
      "velocity": 0.71,
      "hand": "right"
    },
    {
      "midi": 72,
      "time": 397.5,
      "duration": 0.25,
      "velocity": 1,
      "hand": "right"
    },
    {
      "midi": 77,
      "time": 397.5,
      "duration": 0.25,
      "velocity": 1,
      "hand": "right"
    },
    {
      "midi": 65,
      "time": 397.75,
      "duration": 0.25,
      "velocity": 1,
      "hand": "right"
    },
    {
      "midi": 77,
      "time": 398,
      "duration": 0.25,
      "velocity": 1,
      "hand": "right"
    },
    {
      "midi": 80,
      "time": 398.25,
      "duration": 0.25,
      "velocity": 1,
      "hand": "right"
    },
    {
      "midi": 43,
      "time": 398.5,
      "duration": 0.5,
      "velocity": 0.71,
      "hand": "left"
    },
    {
      "midi": 82,
      "time": 398.5,
      "duration": 0.25,
      "velocity": 1,
      "hand": "right"
    },
    {
      "midi": 70,
      "time": 398.75,
      "duration": 0.25,
      "velocity": 1,
      "hand": "right"
    },
    {
      "midi": 77,
      "time": 398.75,
      "duration": 0.25,
      "velocity": 1,
      "hand": "right"
    },
    {
      "midi": 55,
      "time": 399,
      "duration": 0.5,
      "velocity": 0.71,
      "hand": "left"
    },
    {
      "midi": 58,
      "time": 399,
      "duration": 0.5,
      "velocity": 0.71,
      "hand": "left"
    },
    {
      "midi": 62,
      "time": 399,
      "duration": 0.5,
      "velocity": 0.71,
      "hand": "right"
    },
    {
      "midi": 82,
      "time": 399,
      "duration": 0.25,
      "velocity": 1,
      "hand": "right"
    },
    {
      "midi": 70,
      "time": 399.25,
      "duration": 0.25,
      "velocity": 1,
      "hand": "right"
    },
    {
      "midi": 77,
      "time": 399.25,
      "duration": 0.25,
      "velocity": 1,
      "hand": "right"
    },
    {
      "midi": 67,
      "time": 399.5,
      "duration": 0.5,
      "velocity": 0.71,
      "hand": "right"
    },
    {
      "midi": 70,
      "time": 399.5,
      "duration": 0.25,
      "velocity": 1,
      "hand": "right"
    },
    {
      "midi": 75,
      "time": 399.5,
      "duration": 0.25,
      "velocity": 1,
      "hand": "right"
    },
    {
      "midi": 63,
      "time": 399.75,
      "duration": 0.25,
      "velocity": 1,
      "hand": "right"
    },
    {
      "midi": 79,
      "time": 400,
      "duration": 0.25,
      "velocity": 1,
      "hand": "right"
    },
    {
      "midi": 82,
      "time": 400.25,
      "duration": 0.25,
      "velocity": 1,
      "hand": "right"
    },
    {
      "midi": 44,
      "time": 400.5,
      "duration": 0.5,
      "velocity": 0.71,
      "hand": "left"
    },
    {
      "midi": 84,
      "time": 400.5,
      "duration": 0.25,
      "velocity": 1,
      "hand": "right"
    },
    {
      "midi": 72,
      "time": 400.75,
      "duration": 0.25,
      "velocity": 1,
      "hand": "right"
    },
    {
      "midi": 79,
      "time": 400.75,
      "duration": 0.25,
      "velocity": 1,
      "hand": "right"
    },
    {
      "midi": 56,
      "time": 401,
      "duration": 0.5,
      "velocity": 0.71,
      "hand": "left"
    },
    {
      "midi": 60,
      "time": 401,
      "duration": 0.5,
      "velocity": 0.71,
      "hand": "right"
    },
    {
      "midi": 64,
      "time": 401,
      "duration": 0.5,
      "velocity": 0.71,
      "hand": "right"
    },
    {
      "midi": 84,
      "time": 401,
      "duration": 0.25,
      "velocity": 1,
      "hand": "right"
    },
    {
      "midi": 72,
      "time": 401.25,
      "duration": 0.25,
      "velocity": 1,
      "hand": "right"
    },
    {
      "midi": 79,
      "time": 401.25,
      "duration": 0.25,
      "velocity": 1,
      "hand": "right"
    },
    {
      "midi": 68,
      "time": 401.5,
      "duration": 0.5,
      "velocity": 0.71,
      "hand": "right"
    },
    {
      "midi": 72,
      "time": 401.5,
      "duration": 0.25,
      "velocity": 1,
      "hand": "right"
    },
    {
      "midi": 77,
      "time": 401.5,
      "duration": 0.25,
      "velocity": 1,
      "hand": "right"
    },
    {
      "midi": 65,
      "time": 401.75,
      "duration": 0.25,
      "velocity": 1,
      "hand": "right"
    },
    {
      "midi": 77,
      "time": 402,
      "duration": 0.25,
      "velocity": 1,
      "hand": "right"
    },
    {
      "midi": 80,
      "time": 402.25,
      "duration": 0.25,
      "velocity": 1,
      "hand": "right"
    },
    {
      "midi": 43,
      "time": 402.5,
      "duration": 0.5,
      "velocity": 0.71,
      "hand": "left"
    },
    {
      "midi": 82,
      "time": 402.5,
      "duration": 0.25,
      "velocity": 1,
      "hand": "right"
    },
    {
      "midi": 70,
      "time": 402.75,
      "duration": 0.25,
      "velocity": 1,
      "hand": "right"
    },
    {
      "midi": 77,
      "time": 402.75,
      "duration": 0.25,
      "velocity": 1,
      "hand": "right"
    },
    {
      "midi": 55,
      "time": 403,
      "duration": 0.5,
      "velocity": 0.71,
      "hand": "left"
    },
    {
      "midi": 58,
      "time": 403,
      "duration": 0.5,
      "velocity": 0.71,
      "hand": "left"
    },
    {
      "midi": 62,
      "time": 403,
      "duration": 0.5,
      "velocity": 0.71,
      "hand": "right"
    },
    {
      "midi": 82,
      "time": 403,
      "duration": 0.25,
      "velocity": 1,
      "hand": "right"
    },
    {
      "midi": 70,
      "time": 403.25,
      "duration": 0.25,
      "velocity": 1,
      "hand": "right"
    },
    {
      "midi": 77,
      "time": 403.25,
      "duration": 0.25,
      "velocity": 1,
      "hand": "right"
    },
    {
      "midi": 67,
      "time": 403.5,
      "duration": 0.5,
      "velocity": 0.71,
      "hand": "right"
    },
    {
      "midi": 70,
      "time": 403.5,
      "duration": 0.25,
      "velocity": 1,
      "hand": "right"
    },
    {
      "midi": 75,
      "time": 403.5,
      "duration": 0.25,
      "velocity": 1,
      "hand": "right"
    },
    {
      "midi": 63,
      "time": 403.75,
      "duration": 0.25,
      "velocity": 1,
      "hand": "right"
    },
    {
      "midi": 31,
      "time": 404,
      "duration": 0.25,
      "velocity": 0.71,
      "hand": "left"
    },
    {
      "midi": 43,
      "time": 404,
      "duration": 0.25,
      "velocity": 0.71,
      "hand": "left"
    },
    {
      "midi": 34,
      "time": 404.25,
      "duration": 0.25,
      "velocity": 0.71,
      "hand": "left"
    },
    {
      "midi": 46,
      "time": 404.25,
      "duration": 0.25,
      "velocity": 0.71,
      "hand": "left"
    },
    {
      "midi": 36,
      "time": 404.5,
      "duration": 0.5,
      "velocity": 0.71,
      "hand": "left"
    },
    {
      "midi": 48,
      "time": 404.5,
      "duration": 0.5,
      "velocity": 0.71,
      "hand": "left"
    },
    {
      "midi": 63,
      "time": 404.5,
      "duration": 0.5,
      "velocity": 0.75,
      "hand": "right"
    },
    {
      "midi": 68,
      "time": 404.5,
      "duration": 0.5,
      "velocity": 0.75,
      "hand": "right"
    },
    {
      "midi": 36,
      "time": 405,
      "duration": 0.5,
      "velocity": 0.71,
      "hand": "left"
    },
    {
      "midi": 48,
      "time": 405,
      "duration": 0.5,
      "velocity": 0.71,
      "hand": "left"
    },
    {
      "midi": 63,
      "time": 405,
      "duration": 0.5,
      "velocity": 0.75,
      "hand": "right"
    },
    {
      "midi": 68,
      "time": 405,
      "duration": 0.5,
      "velocity": 0.75,
      "hand": "right"
    },
    {
      "midi": 75,
      "time": 405,
      "duration": 0.5,
      "velocity": 0.75,
      "hand": "right"
    },
    {
      "midi": 36,
      "time": 405.5,
      "duration": 0.5,
      "velocity": 0.71,
      "hand": "left"
    },
    {
      "midi": 48,
      "time": 405.5,
      "duration": 0.5,
      "velocity": 0.71,
      "hand": "left"
    },
    {
      "midi": 63,
      "time": 405.5,
      "duration": 0.5,
      "velocity": 0.71,
      "hand": "right"
    },
    {
      "midi": 68,
      "time": 405.5,
      "duration": 0.5,
      "velocity": 0.75,
      "hand": "right"
    },
    {
      "midi": 31,
      "time": 406,
      "duration": 0.25,
      "velocity": 0.71,
      "hand": "left"
    },
    {
      "midi": 43,
      "time": 406,
      "duration": 0.25,
      "velocity": 0.71,
      "hand": "left"
    },
    {
      "midi": 63,
      "time": 406,
      "duration": 0.25,
      "velocity": 0.71,
      "hand": "right"
    },
    {
      "midi": 65,
      "time": 406,
      "duration": 0.25,
      "velocity": 0.71,
      "hand": "right"
    },
    {
      "midi": 70,
      "time": 406,
      "duration": 0.25,
      "velocity": 0.75,
      "hand": "right"
    },
    {
      "midi": 32,
      "time": 406.25,
      "duration": 0.25,
      "velocity": 0.71,
      "hand": "left"
    },
    {
      "midi": 44,
      "time": 406.25,
      "duration": 0.25,
      "velocity": 0.71,
      "hand": "left"
    },
    {
      "midi": 63,
      "time": 406.25,
      "duration": 0.25,
      "velocity": 0.71,
      "hand": "right"
    },
    {
      "midi": 68,
      "time": 406.25,
      "duration": 0.25,
      "velocity": 0.75,
      "hand": "right"
    },
    {
      "midi": 72,
      "time": 406.25,
      "duration": 0.25,
      "velocity": 0.75,
      "hand": "right"
    },
    {
      "midi": 34,
      "time": 406.5,
      "duration": 0.5,
      "velocity": 0.71,
      "hand": "left"
    },
    {
      "midi": 46,
      "time": 406.5,
      "duration": 0.5,
      "velocity": 0.71,
      "hand": "left"
    },
    {
      "midi": 63,
      "time": 406.5,
      "duration": 0.5,
      "velocity": 0.75,
      "hand": "right"
    },
    {
      "midi": 67,
      "time": 406.5,
      "duration": 0.5,
      "velocity": 0.75,
      "hand": "right"
    },
    {
      "midi": 34,
      "time": 407,
      "duration": 0.5,
      "velocity": 0.71,
      "hand": "left"
    },
    {
      "midi": 46,
      "time": 407,
      "duration": 0.5,
      "velocity": 0.71,
      "hand": "left"
    },
    {
      "midi": 67,
      "time": 407,
      "duration": 0.5,
      "velocity": 0.75,
      "hand": "right"
    },
    {
      "midi": 75,
      "time": 407,
      "duration": 0.5,
      "velocity": 0.75,
      "hand": "right"
    },
    {
      "midi": 34,
      "time": 407.5,
      "duration": 0.5,
      "velocity": 0.71,
      "hand": "left"
    },
    {
      "midi": 46,
      "time": 407.5,
      "duration": 0.5,
      "velocity": 0.71,
      "hand": "left"
    },
    {
      "midi": 63,
      "time": 407.5,
      "duration": 0.5,
      "velocity": 0.71,
      "hand": "right"
    },
    {
      "midi": 67,
      "time": 407.5,
      "duration": 0.5,
      "velocity": 0.75,
      "hand": "right"
    },
    {
      "midi": 39,
      "time": 408,
      "duration": 0.25,
      "velocity": 0.71,
      "hand": "left"
    },
    {
      "midi": 51,
      "time": 408,
      "duration": 0.25,
      "velocity": 0.71,
      "hand": "left"
    },
    {
      "midi": 60,
      "time": 408,
      "duration": 0.25,
      "velocity": 0.71,
      "hand": "right"
    },
    {
      "midi": 62,
      "time": 408,
      "duration": 0.25,
      "velocity": 0.71,
      "hand": "right"
    },
    {
      "midi": 67,
      "time": 408,
      "duration": 0.25,
      "velocity": 0.75,
      "hand": "right"
    },
    {
      "midi": 38,
      "time": 408.25,
      "duration": 0.25,
      "velocity": 0.71,
      "hand": "left"
    },
    {
      "midi": 50,
      "time": 408.25,
      "duration": 0.25,
      "velocity": 0.71,
      "hand": "left"
    },
    {
      "midi": 58,
      "time": 408.25,
      "duration": 0.25,
      "velocity": 0.71,
      "hand": "left"
    },
    {
      "midi": 67,
      "time": 408.25,
      "duration": 0.25,
      "velocity": 0.75,
      "hand": "right"
    },
    {
      "midi": 36,
      "time": 408.5,
      "duration": 0.5,
      "velocity": 0.71,
      "hand": "left"
    },
    {
      "midi": 48,
      "time": 408.5,
      "duration": 0.5,
      "velocity": 0.71,
      "hand": "left"
    },
    {
      "midi": 63,
      "time": 408.5,
      "duration": 0.5,
      "velocity": 0.75,
      "hand": "right"
    },
    {
      "midi": 68,
      "time": 408.5,
      "duration": 0.5,
      "velocity": 0.75,
      "hand": "right"
    },
    {
      "midi": 36,
      "time": 409,
      "duration": 0.5,
      "velocity": 0.71,
      "hand": "left"
    },
    {
      "midi": 48,
      "time": 409,
      "duration": 0.5,
      "velocity": 0.71,
      "hand": "left"
    },
    {
      "midi": 63,
      "time": 409,
      "duration": 0.5,
      "velocity": 0.75,
      "hand": "right"
    },
    {
      "midi": 68,
      "time": 409,
      "duration": 0.5,
      "velocity": 0.75,
      "hand": "right"
    },
    {
      "midi": 75,
      "time": 409,
      "duration": 0.5,
      "velocity": 0.75,
      "hand": "right"
    },
    {
      "midi": 36,
      "time": 409.5,
      "duration": 0.5,
      "velocity": 0.71,
      "hand": "left"
    },
    {
      "midi": 48,
      "time": 409.5,
      "duration": 0.5,
      "velocity": 0.71,
      "hand": "left"
    },
    {
      "midi": 63,
      "time": 409.5,
      "duration": 0.5,
      "velocity": 0.71,
      "hand": "right"
    },
    {
      "midi": 68,
      "time": 409.5,
      "duration": 0.5,
      "velocity": 0.75,
      "hand": "right"
    },
    {
      "midi": 31,
      "time": 410,
      "duration": 0.25,
      "velocity": 0.71,
      "hand": "left"
    },
    {
      "midi": 43,
      "time": 410,
      "duration": 0.25,
      "velocity": 0.71,
      "hand": "left"
    },
    {
      "midi": 63,
      "time": 410,
      "duration": 0.25,
      "velocity": 0.71,
      "hand": "right"
    },
    {
      "midi": 65,
      "time": 410,
      "duration": 0.25,
      "velocity": 0.71,
      "hand": "right"
    },
    {
      "midi": 70,
      "time": 410,
      "duration": 0.25,
      "velocity": 0.75,
      "hand": "right"
    },
    {
      "midi": 32,
      "time": 410.25,
      "duration": 0.25,
      "velocity": 0.71,
      "hand": "left"
    },
    {
      "midi": 44,
      "time": 410.25,
      "duration": 0.25,
      "velocity": 0.71,
      "hand": "left"
    },
    {
      "midi": 63,
      "time": 410.25,
      "duration": 0.25,
      "velocity": 0.71,
      "hand": "right"
    },
    {
      "midi": 68,
      "time": 410.25,
      "duration": 0.25,
      "velocity": 0.75,
      "hand": "right"
    },
    {
      "midi": 72,
      "time": 410.25,
      "duration": 0.25,
      "velocity": 0.75,
      "hand": "right"
    },
    {
      "midi": 34,
      "time": 410.5,
      "duration": 0.5,
      "velocity": 0.71,
      "hand": "left"
    },
    {
      "midi": 46,
      "time": 410.5,
      "duration": 0.5,
      "velocity": 0.71,
      "hand": "left"
    },
    {
      "midi": 63,
      "time": 410.5,
      "duration": 0.5,
      "velocity": 0.75,
      "hand": "right"
    },
    {
      "midi": 67,
      "time": 410.5,
      "duration": 0.5,
      "velocity": 0.75,
      "hand": "right"
    },
    {
      "midi": 34,
      "time": 411,
      "duration": 0.5,
      "velocity": 0.71,
      "hand": "left"
    },
    {
      "midi": 46,
      "time": 411,
      "duration": 0.5,
      "velocity": 0.71,
      "hand": "left"
    },
    {
      "midi": 67,
      "time": 411,
      "duration": 0.5,
      "velocity": 0.75,
      "hand": "right"
    },
    {
      "midi": 75,
      "time": 411,
      "duration": 0.5,
      "velocity": 0.75,
      "hand": "right"
    },
    {
      "midi": 34,
      "time": 411.5,
      "duration": 0.5,
      "velocity": 0.71,
      "hand": "left"
    },
    {
      "midi": 46,
      "time": 411.5,
      "duration": 0.5,
      "velocity": 0.71,
      "hand": "left"
    },
    {
      "midi": 63,
      "time": 411.5,
      "duration": 0.5,
      "velocity": 0.71,
      "hand": "right"
    },
    {
      "midi": 67,
      "time": 411.5,
      "duration": 0.5,
      "velocity": 0.75,
      "hand": "right"
    },
    {
      "midi": 39,
      "time": 412,
      "duration": 0.25,
      "velocity": 0.71,
      "hand": "left"
    },
    {
      "midi": 51,
      "time": 412,
      "duration": 0.25,
      "velocity": 0.71,
      "hand": "left"
    },
    {
      "midi": 60,
      "time": 412,
      "duration": 0.25,
      "velocity": 0.71,
      "hand": "right"
    },
    {
      "midi": 62,
      "time": 412,
      "duration": 0.25,
      "velocity": 0.71,
      "hand": "right"
    },
    {
      "midi": 67,
      "time": 412,
      "duration": 0.25,
      "velocity": 0.75,
      "hand": "right"
    },
    {
      "midi": 39,
      "time": 412.25,
      "duration": 0.25,
      "velocity": 0.71,
      "hand": "left"
    },
    {
      "midi": 51,
      "time": 412.25,
      "duration": 0.25,
      "velocity": 0.71,
      "hand": "left"
    },
    {
      "midi": 58,
      "time": 412.25,
      "duration": 0.25,
      "velocity": 0.71,
      "hand": "left"
    },
    {
      "midi": 67,
      "time": 412.25,
      "duration": 0.25,
      "velocity": 0.75,
      "hand": "right"
    },
    {
      "midi": 38,
      "time": 412.5,
      "duration": 0.125,
      "velocity": 0.71,
      "hand": "left"
    },
    {
      "midi": 50,
      "time": 412.5,
      "duration": 2,
      "velocity": 0.71,
      "hand": "left"
    },
    {
      "midi": 58,
      "time": 412.5,
      "duration": 0.25,
      "velocity": 0.8,
      "hand": "left"
    },
    {
      "midi": 62,
      "time": 412.75,
      "duration": 0.25,
      "velocity": 0.8,
      "hand": "right"
    },
    {
      "midi": 70,
      "time": 412.75,
      "duration": 0.25,
      "velocity": 0.8,
      "hand": "right"
    },
    {
      "midi": 51,
      "time": 413,
      "duration": 0.5,
      "velocity": 0.71,
      "hand": "left"
    },
    {
      "midi": 60,
      "time": 413,
      "duration": 0.25,
      "velocity": 0.8,
      "hand": "right"
    },
    {
      "midi": 67,
      "time": 413,
      "duration": 0.25,
      "velocity": 0.8,
      "hand": "right"
    },
    {
      "midi": 67,
      "time": 413.25,
      "duration": 0.25,
      "velocity": 0.8,
      "hand": "right"
    },
    {
      "midi": 72,
      "time": 413.25,
      "duration": 0.25,
      "velocity": 0.8,
      "hand": "right"
    },
    {
      "midi": 52,
      "time": 413.5,
      "duration": 0.5,
      "velocity": 0.71,
      "hand": "left"
    },
    {
      "midi": 61,
      "time": 413.5,
      "duration": 0.25,
      "velocity": 0.8,
      "hand": "right"
    },
    {
      "midi": 70,
      "time": 413.5,
      "duration": 0.25,
      "velocity": 0.8,
      "hand": "right"
    },
    {
      "midi": 67,
      "time": 413.75,
      "duration": 0.25,
      "velocity": 0.8,
      "hand": "right"
    },
    {
      "midi": 73,
      "time": 413.75,
      "duration": 0.25,
      "velocity": 0.8,
      "hand": "right"
    },
    {
      "midi": 54,
      "time": 414,
      "duration": 0.25,
      "velocity": 0.71,
      "hand": "left"
    },
    {
      "midi": 55,
      "time": 414,
      "duration": 0.25,
      "velocity": 0.71,
      "hand": "left"
    },
    {
      "midi": 64,
      "time": 414,
      "duration": 0.25,
      "velocity": 0.8,
      "hand": "right"
    },
    {
      "midi": 69,
      "time": 414,
      "duration": 0.25,
      "velocity": 0.8,
      "hand": "right"
    },
    {
      "midi": 74,
      "time": 414,
      "duration": 0.25,
      "velocity": 0.8,
      "hand": "right"
    },
    {
      "midi": 57,
      "time": 414.25,
      "duration": 0.25,
      "velocity": 0.71,
      "hand": "left"
    },
    {
      "midi": 66,
      "time": 414.25,
      "duration": 0.25,
      "velocity": 0.8,
      "hand": "right"
    },
    {
      "midi": 70,
      "time": 414.25,
      "duration": 0.25,
      "velocity": 0.8,
      "hand": "right"
    },
    {
      "midi": 76,
      "time": 414.25,
      "duration": 0.25,
      "velocity": 0.8,
      "hand": "right"
    },
    {
      "midi": 50,
      "time": 414.5,
      "duration": 1,
      "velocity": 0.71,
      "hand": "left"
    },
    {
      "midi": 55,
      "time": 414.5,
      "duration": 1,
      "velocity": 0.71,
      "hand": "left"
    },
    {
      "midi": 58,
      "time": 414.5,
      "duration": 0.5,
      "velocity": 0.71,
      "hand": "left"
    },
    {
      "midi": 67,
      "time": 414.5,
      "duration": 0.25,
      "velocity": 0.8,
      "hand": "right"
    },
    {
      "midi": 72,
      "time": 414.5,
      "duration": 0.25,
      "velocity": 0.8,
      "hand": "right"
    },
    {
      "midi": 78,
      "time": 414.5,
      "duration": 0.25,
      "velocity": 0.8,
      "hand": "right"
    },
    {
      "midi": 70,
      "time": 414.75,
      "duration": 0.25,
      "velocity": 0.8,
      "hand": "right"
    },
    {
      "midi": 79,
      "time": 414.75,
      "duration": 0.25,
      "velocity": 0.8,
      "hand": "right"
    },
    {
      "midi": 60,
      "time": 415,
      "duration": 0.5,
      "velocity": 0.71,
      "hand": "right"
    },
    {
      "midi": 69,
      "time": 415,
      "duration": 0.25,
      "velocity": 0.8,
      "hand": "right"
    },
    {
      "midi": 74,
      "time": 415,
      "duration": 0.25,
      "velocity": 0.8,
      "hand": "right"
    },
    {
      "midi": 75,
      "time": 415.25,
      "duration": 0.25,
      "velocity": 0.8,
      "hand": "right"
    },
    {
      "midi": 81,
      "time": 415.25,
      "duration": 0.25,
      "velocity": 0.8,
      "hand": "right"
    },
    {
      "midi": 62,
      "time": 415.5,
      "duration": 0.5,
      "velocity": 0.71,
      "hand": "right"
    },
    {
      "midi": 70,
      "time": 415.5,
      "duration": 0.25,
      "velocity": 0.8,
      "hand": "right"
    },
    {
      "midi": 79,
      "time": 415.5,
      "duration": 0.25,
      "velocity": 0.8,
      "hand": "right"
    },
    {
      "midi": 74,
      "time": 415.75,
      "duration": 0.25,
      "velocity": 0.8,
      "hand": "right"
    },
    {
      "midi": 82,
      "time": 415.75,
      "duration": 0.25,
      "velocity": 0.8,
      "hand": "right"
    },
    {
      "midi": 64,
      "time": 416,
      "duration": 0.25,
      "velocity": 0.71,
      "hand": "right"
    },
    {
      "midi": 66,
      "time": 416,
      "duration": 0.25,
      "velocity": 0.71,
      "hand": "right"
    },
    {
      "midi": 74,
      "time": 416,
      "duration": 0.25,
      "velocity": 0.8,
      "hand": "right"
    },
    {
      "midi": 79,
      "time": 416,
      "duration": 0.25,
      "velocity": 0.8,
      "hand": "right"
    },
    {
      "midi": 67,
      "time": 416.25,
      "duration": 0.25,
      "velocity": 0.71,
      "hand": "right"
    },
    {
      "midi": 75,
      "time": 416.25,
      "duration": 0.25,
      "velocity": 0.8,
      "hand": "right"
    },
    {
      "midi": 82,
      "time": 416.25,
      "duration": 0.25,
      "velocity": 0.8,
      "hand": "right"
    },
    {
      "midi": 86,
      "time": 416.25,
      "duration": 0.25,
      "velocity": 0.8,
      "hand": "right"
    },
    {
      "midi": 38,
      "time": 416.5,
      "duration": 0.125,
      "velocity": 0.71,
      "hand": "left"
    },
    {
      "midi": 50,
      "time": 416.5,
      "duration": 2,
      "velocity": 0.71,
      "hand": "left"
    },
    {
      "midi": 82,
      "time": 416.5,
      "duration": 0.25,
      "velocity": 0.8,
      "hand": "right"
    },
    {
      "midi": 87,
      "time": 416.5,
      "duration": 0.25,
      "velocity": 0.8,
      "hand": "right"
    },
    {
      "midi": 58,
      "time": 416.75,
      "duration": 0.25,
      "velocity": 0.8,
      "hand": "left"
    },
    {
      "midi": 70,
      "time": 416.75,
      "duration": 0.25,
      "velocity": 0.8,
      "hand": "right"
    },
    {
      "midi": 51,
      "time": 417,
      "duration": 0.5,
      "velocity": 0.71,
      "hand": "left"
    },
    {
      "midi": 60,
      "time": 417,
      "duration": 0.25,
      "velocity": 0.8,
      "hand": "right"
    },
    {
      "midi": 67,
      "time": 417,
      "duration": 0.25,
      "velocity": 0.8,
      "hand": "right"
    },
    {
      "midi": 67,
      "time": 417.25,
      "duration": 0.25,
      "velocity": 0.8,
      "hand": "right"
    },
    {
      "midi": 72,
      "time": 417.25,
      "duration": 0.25,
      "velocity": 0.8,
      "hand": "right"
    },
    {
      "midi": 52,
      "time": 417.5,
      "duration": 0.5,
      "velocity": 0.71,
      "hand": "left"
    },
    {
      "midi": 61,
      "time": 417.5,
      "duration": 0.25,
      "velocity": 0.8,
      "hand": "right"
    },
    {
      "midi": 70,
      "time": 417.5,
      "duration": 0.25,
      "velocity": 0.8,
      "hand": "right"
    },
    {
      "midi": 67,
      "time": 417.75,
      "duration": 0.25,
      "velocity": 0.8,
      "hand": "right"
    },
    {
      "midi": 73,
      "time": 417.75,
      "duration": 0.25,
      "velocity": 0.8,
      "hand": "right"
    },
    {
      "midi": 54,
      "time": 418,
      "duration": 0.25,
      "velocity": 0.71,
      "hand": "left"
    },
    {
      "midi": 55,
      "time": 418,
      "duration": 0.25,
      "velocity": 0.71,
      "hand": "left"
    },
    {
      "midi": 64,
      "time": 418,
      "duration": 0.25,
      "velocity": 0.8,
      "hand": "right"
    },
    {
      "midi": 69,
      "time": 418,
      "duration": 0.25,
      "velocity": 0.8,
      "hand": "right"
    },
    {
      "midi": 74,
      "time": 418,
      "duration": 0.25,
      "velocity": 0.8,
      "hand": "right"
    },
    {
      "midi": 57,
      "time": 418.25,
      "duration": 0.25,
      "velocity": 0.71,
      "hand": "left"
    },
    {
      "midi": 66,
      "time": 418.25,
      "duration": 0.25,
      "velocity": 0.8,
      "hand": "right"
    },
    {
      "midi": 70,
      "time": 418.25,
      "duration": 0.25,
      "velocity": 0.8,
      "hand": "right"
    },
    {
      "midi": 76,
      "time": 418.25,
      "duration": 0.25,
      "velocity": 0.8,
      "hand": "right"
    },
    {
      "midi": 50,
      "time": 418.5,
      "duration": 1,
      "velocity": 0.71,
      "hand": "left"
    },
    {
      "midi": 55,
      "time": 418.5,
      "duration": 1,
      "velocity": 0.71,
      "hand": "left"
    },
    {
      "midi": 58,
      "time": 418.5,
      "duration": 0.5,
      "velocity": 0.71,
      "hand": "left"
    },
    {
      "midi": 67,
      "time": 418.5,
      "duration": 0.25,
      "velocity": 0.8,
      "hand": "right"
    },
    {
      "midi": 72,
      "time": 418.5,
      "duration": 0.25,
      "velocity": 0.8,
      "hand": "right"
    },
    {
      "midi": 78,
      "time": 418.5,
      "duration": 0.25,
      "velocity": 0.8,
      "hand": "right"
    },
    {
      "midi": 70,
      "time": 418.75,
      "duration": 0.25,
      "velocity": 0.8,
      "hand": "right"
    },
    {
      "midi": 79,
      "time": 418.75,
      "duration": 0.25,
      "velocity": 0.8,
      "hand": "right"
    },
    {
      "midi": 60,
      "time": 419,
      "duration": 0.5,
      "velocity": 0.71,
      "hand": "right"
    },
    {
      "midi": 69,
      "time": 419,
      "duration": 0.25,
      "velocity": 0.8,
      "hand": "right"
    },
    {
      "midi": 74,
      "time": 419,
      "duration": 0.25,
      "velocity": 0.8,
      "hand": "right"
    },
    {
      "midi": 75,
      "time": 419.25,
      "duration": 0.25,
      "velocity": 0.8,
      "hand": "right"
    },
    {
      "midi": 81,
      "time": 419.25,
      "duration": 0.25,
      "velocity": 0.8,
      "hand": "right"
    },
    {
      "midi": 62,
      "time": 419.5,
      "duration": 0.5,
      "velocity": 0.71,
      "hand": "right"
    },
    {
      "midi": 70,
      "time": 419.5,
      "duration": 0.25,
      "velocity": 0.8,
      "hand": "right"
    },
    {
      "midi": 79,
      "time": 419.5,
      "duration": 0.25,
      "velocity": 0.8,
      "hand": "right"
    },
    {
      "midi": 74,
      "time": 419.75,
      "duration": 0.25,
      "velocity": 0.8,
      "hand": "right"
    },
    {
      "midi": 82,
      "time": 419.75,
      "duration": 0.25,
      "velocity": 0.8,
      "hand": "right"
    },
    {
      "midi": 64,
      "time": 420,
      "duration": 0.25,
      "velocity": 0.71,
      "hand": "right"
    },
    {
      "midi": 66,
      "time": 420,
      "duration": 0.25,
      "velocity": 0.71,
      "hand": "right"
    },
    {
      "midi": 74,
      "time": 420,
      "duration": 0.25,
      "velocity": 0.8,
      "hand": "right"
    },
    {
      "midi": 79,
      "time": 420,
      "duration": 0.25,
      "velocity": 0.8,
      "hand": "right"
    },
    {
      "midi": 67,
      "time": 420.25,
      "duration": 0.25,
      "velocity": 0.71,
      "hand": "right"
    },
    {
      "midi": 75,
      "time": 420.25,
      "duration": 0.25,
      "velocity": 0.8,
      "hand": "right"
    },
    {
      "midi": 82,
      "time": 420.25,
      "duration": 0.25,
      "velocity": 0.8,
      "hand": "right"
    },
    {
      "midi": 86,
      "time": 420.25,
      "duration": 0.25,
      "velocity": 0.8,
      "hand": "right"
    },
    {
      "midi": 53,
      "time": 420.5,
      "duration": 0.5,
      "velocity": 0.84,
      "hand": "left"
    },
    {
      "midi": 55,
      "time": 420.5,
      "duration": 1,
      "velocity": 0.71,
      "hand": "left"
    },
    {
      "midi": 65,
      "time": 420.5,
      "duration": 0.5,
      "velocity": 0.84,
      "hand": "right"
    },
    {
      "midi": 82,
      "time": 420.5,
      "duration": 0.25,
      "velocity": 0.8,
      "hand": "right"
    },
    {
      "midi": 87,
      "time": 420.5,
      "duration": 0.25,
      "velocity": 0.8,
      "hand": "right"
    },
    {
      "midi": 71,
      "time": 420.75,
      "duration": 0.25,
      "velocity": 0.8,
      "hand": "right"
    },
    {
      "midi": 79,
      "time": 420.75,
      "duration": 0.25,
      "velocity": 0.8,
      "hand": "right"
    },
    {
      "midi": 51,
      "time": 421,
      "duration": 0.5,
      "velocity": 0.84,
      "hand": "left"
    },
    {
      "midi": 63,
      "time": 421,
      "duration": 0.5,
      "velocity": 0.84,
      "hand": "right"
    },
    {
      "midi": 69,
      "time": 421,
      "duration": 0.5,
      "velocity": 0.8,
      "hand": "right"
    },
    {
      "midi": 74,
      "time": 421,
      "duration": 0.25,
      "velocity": 0.8,
      "hand": "right"
    },
    {
      "midi": 72,
      "time": 421.25,
      "duration": 0.25,
      "velocity": 0.8,
      "hand": "right"
    },
    {
      "midi": 81,
      "time": 421.25,
      "duration": 0.25,
      "velocity": 0.8,
      "hand": "right"
    },
    {
      "midi": 50,
      "time": 421.5,
      "duration": 0.5,
      "velocity": 0.84,
      "hand": "left"
    },
    {
      "midi": 55,
      "time": 421.5,
      "duration": 0.5,
      "velocity": 0.84,
      "hand": "left"
    },
    {
      "midi": 62,
      "time": 421.5,
      "duration": 0.5,
      "velocity": 0.84,
      "hand": "right"
    },
    {
      "midi": 71,
      "time": 421.5,
      "duration": 0.5,
      "velocity": 0.8,
      "hand": "right"
    },
    {
      "midi": 75,
      "time": 421.5,
      "duration": 0.25,
      "velocity": 0.8,
      "hand": "right"
    },
    {
      "midi": 77,
      "time": 421.75,
      "duration": 0.25,
      "velocity": 0.8,
      "hand": "right"
    },
    {
      "midi": 83,
      "time": 421.75,
      "duration": 0.25,
      "velocity": 0.8,
      "hand": "right"
    },
    {
      "midi": 48,
      "time": 422,
      "duration": 0.25,
      "velocity": 0.84,
      "hand": "left"
    },
    {
      "midi": 49,
      "time": 422,
      "duration": 0.25,
      "velocity": 0.84,
      "hand": "left"
    },
    {
      "midi": 60,
      "time": 422,
      "duration": 0.25,
      "velocity": 0.84,
      "hand": "right"
    },
    {
      "midi": 61,
      "time": 422,
      "duration": 0.25,
      "velocity": 0.84,
      "hand": "right"
    },
    {
      "midi": 72,
      "time": 422,
      "duration": 0.25,
      "velocity": 0.8,
      "hand": "right"
    },
    {
      "midi": 79,
      "time": 422,
      "duration": 0.25,
      "velocity": 0.8,
      "hand": "right"
    },
    {
      "midi": 47,
      "time": 422.25,
      "duration": 0.25,
      "velocity": 0.84,
      "hand": "left"
    },
    {
      "midi": 59,
      "time": 422.25,
      "duration": 0.25,
      "velocity": 0.84,
      "hand": "left"
    },
    {
      "midi": 74,
      "time": 422.25,
      "duration": 0.25,
      "velocity": 0.8,
      "hand": "right"
    },
    {
      "midi": 75,
      "time": 422.25,
      "duration": 0.25,
      "velocity": 0.8,
      "hand": "right"
    },
    {
      "midi": 79,
      "time": 422.25,
      "duration": 0.25,
      "velocity": 0.8,
      "hand": "right"
    },
    {
      "midi": 84,
      "time": 422.25,
      "duration": 0.25,
      "velocity": 0.8,
      "hand": "right"
    },
    {
      "midi": 45,
      "time": 422.5,
      "duration": 0.5,
      "velocity": 0.84,
      "hand": "left"
    },
    {
      "midi": 48,
      "time": 422.5,
      "duration": 1,
      "velocity": 0.71,
      "hand": "left"
    },
    {
      "midi": 57,
      "time": 422.5,
      "duration": 0.5,
      "velocity": 0.84,
      "hand": "left"
    },
    {
      "midi": 75,
      "time": 422.5,
      "duration": 0.5,
      "velocity": 0.8,
      "hand": "right"
    },
    {
      "midi": 79,
      "time": 422.5,
      "duration": 0.25,
      "velocity": 0.8,
      "hand": "right"
    },
    {
      "midi": 86,
      "time": 422.5,
      "duration": 0.25,
      "velocity": 0.8,
      "hand": "right"
    },
    {
      "midi": 79,
      "time": 422.75,
      "duration": 0.25,
      "velocity": 0.8,
      "hand": "right"
    },
    {
      "midi": 87,
      "time": 422.75,
      "duration": 0.25,
      "velocity": 0.8,
      "hand": "right"
    },
    {
      "midi": 44,
      "time": 423,
      "duration": 0.5,
      "velocity": 0.84,
      "hand": "left"
    },
    {
      "midi": 56,
      "time": 423,
      "duration": 0.5,
      "velocity": 0.84,
      "hand": "left"
    },
    {
      "midi": 77,
      "time": 423,
      "duration": 0.5,
      "velocity": 0.71,
      "hand": "right"
    },
    {
      "midi": 84,
      "time": 423,
      "duration": 0.25,
      "velocity": 0.8,
      "hand": "right"
    },
    {
      "midi": 80,
      "time": 423.25,
      "duration": 0.25,
      "velocity": 0.8,
      "hand": "right"
    },
    {
      "midi": 89,
      "time": 423.25,
      "duration": 0.25,
      "velocity": 0.8,
      "hand": "right"
    },
    {
      "midi": 43,
      "time": 423.5,
      "duration": 0.5,
      "velocity": 0.84,
      "hand": "left"
    },
    {
      "midi": 48,
      "time": 423.5,
      "duration": 0.5,
      "velocity": 0.84,
      "hand": "left"
    },
    {
      "midi": 55,
      "time": 423.5,
      "duration": 0.5,
      "velocity": 0.84,
      "hand": "left"
    },
    {
      "midi": 79,
      "time": 423.5,
      "duration": 0.5,
      "velocity": 0.8,
      "hand": "right"
    },
    {
      "midi": 84,
      "time": 423.5,
      "duration": 0.25,
      "velocity": 0.8,
      "hand": "right"
    },
    {
      "midi": 84,
      "time": 423.75,
      "duration": 0.25,
      "velocity": 0.8,
      "hand": "right"
    },
    {
      "midi": 91,
      "time": 423.75,
      "duration": 0.25,
      "velocity": 0.8,
      "hand": "right"
    },
    {
      "midi": 41,
      "time": 424,
      "duration": 0.25,
      "velocity": 0.84,
      "hand": "left"
    },
    {
      "midi": 42,
      "time": 424,
      "duration": 0.25,
      "velocity": 0.84,
      "hand": "left"
    },
    {
      "midi": 53,
      "time": 424,
      "duration": 0.25,
      "velocity": 0.84,
      "hand": "left"
    },
    {
      "midi": 54,
      "time": 424,
      "duration": 0.25,
      "velocity": 0.84,
      "hand": "left"
    },
    {
      "midi": 80,
      "time": 424,
      "duration": 0.25,
      "velocity": 0.8,
      "hand": "right"
    },
    {
      "midi": 87,
      "time": 424,
      "duration": 0.25,
      "velocity": 0.8,
      "hand": "right"
    },
    {
      "midi": 39,
      "time": 424.25,
      "duration": 0.25,
      "velocity": 0.84,
      "hand": "left"
    },
    {
      "midi": 51,
      "time": 424.25,
      "duration": 0.25,
      "velocity": 0.84,
      "hand": "left"
    },
    {
      "midi": 79,
      "time": 424.25,
      "duration": 0.25,
      "velocity": 0.8,
      "hand": "right"
    },
    {
      "midi": 84,
      "time": 424.25,
      "duration": 0.25,
      "velocity": 0.8,
      "hand": "right"
    },
    {
      "midi": 92,
      "time": 424.25,
      "duration": 0.25,
      "velocity": 0.8,
      "hand": "right"
    },
    {
      "midi": 53,
      "time": 424.5,
      "duration": 0.5,
      "velocity": 0.84,
      "hand": "left"
    },
    {
      "midi": 55,
      "time": 424.5,
      "duration": 1,
      "velocity": 0.71,
      "hand": "left"
    },
    {
      "midi": 65,
      "time": 424.5,
      "duration": 0.5,
      "velocity": 0.84,
      "hand": "right"
    },
    {
      "midi": 84,
      "time": 424.5,
      "duration": 0.25,
      "velocity": 0.8,
      "hand": "right"
    },
    {
      "midi": 91,
      "time": 424.5,
      "duration": 0.25,
      "velocity": 0.8,
      "hand": "right"
    },
    {
      "midi": 71,
      "time": 424.75,
      "duration": 0.25,
      "velocity": 0.8,
      "hand": "right"
    },
    {
      "midi": 79,
      "time": 424.75,
      "duration": 0.25,
      "velocity": 0.8,
      "hand": "right"
    },
    {
      "midi": 51,
      "time": 425,
      "duration": 0.5,
      "velocity": 0.84,
      "hand": "left"
    },
    {
      "midi": 63,
      "time": 425,
      "duration": 0.5,
      "velocity": 0.84,
      "hand": "right"
    },
    {
      "midi": 69,
      "time": 425,
      "duration": 0.5,
      "velocity": 0.8,
      "hand": "right"
    },
    {
      "midi": 74,
      "time": 425,
      "duration": 0.25,
      "velocity": 0.8,
      "hand": "right"
    },
    {
      "midi": 72,
      "time": 425.25,
      "duration": 0.25,
      "velocity": 0.8,
      "hand": "right"
    },
    {
      "midi": 81,
      "time": 425.25,
      "duration": 0.25,
      "velocity": 0.8,
      "hand": "right"
    },
    {
      "midi": 50,
      "time": 425.5,
      "duration": 0.5,
      "velocity": 0.84,
      "hand": "left"
    },
    {
      "midi": 55,
      "time": 425.5,
      "duration": 0.5,
      "velocity": 0.84,
      "hand": "left"
    },
    {
      "midi": 62,
      "time": 425.5,
      "duration": 0.5,
      "velocity": 0.84,
      "hand": "right"
    },
    {
      "midi": 71,
      "time": 425.5,
      "duration": 0.5,
      "velocity": 0.8,
      "hand": "right"
    },
    {
      "midi": 75,
      "time": 425.5,
      "duration": 0.25,
      "velocity": 0.8,
      "hand": "right"
    },
    {
      "midi": 77,
      "time": 425.75,
      "duration": 0.25,
      "velocity": 0.8,
      "hand": "right"
    },
    {
      "midi": 83,
      "time": 425.75,
      "duration": 0.25,
      "velocity": 0.8,
      "hand": "right"
    },
    {
      "midi": 48,
      "time": 426,
      "duration": 0.25,
      "velocity": 0.84,
      "hand": "left"
    },
    {
      "midi": 49,
      "time": 426,
      "duration": 0.25,
      "velocity": 0.84,
      "hand": "left"
    },
    {
      "midi": 60,
      "time": 426,
      "duration": 0.25,
      "velocity": 0.84,
      "hand": "right"
    },
    {
      "midi": 61,
      "time": 426,
      "duration": 0.25,
      "velocity": 0.84,
      "hand": "right"
    },
    {
      "midi": 72,
      "time": 426,
      "duration": 0.25,
      "velocity": 0.8,
      "hand": "right"
    },
    {
      "midi": 79,
      "time": 426,
      "duration": 0.25,
      "velocity": 0.8,
      "hand": "right"
    },
    {
      "midi": 47,
      "time": 426.25,
      "duration": 0.25,
      "velocity": 0.84,
      "hand": "left"
    },
    {
      "midi": 59,
      "time": 426.25,
      "duration": 0.25,
      "velocity": 0.84,
      "hand": "left"
    },
    {
      "midi": 74,
      "time": 426.25,
      "duration": 0.25,
      "velocity": 0.8,
      "hand": "right"
    },
    {
      "midi": 75,
      "time": 426.25,
      "duration": 0.25,
      "velocity": 0.8,
      "hand": "right"
    },
    {
      "midi": 79,
      "time": 426.25,
      "duration": 0.25,
      "velocity": 0.8,
      "hand": "right"
    },
    {
      "midi": 84,
      "time": 426.25,
      "duration": 0.25,
      "velocity": 0.8,
      "hand": "right"
    },
    {
      "midi": 45,
      "time": 426.5,
      "duration": 0.5,
      "velocity": 0.84,
      "hand": "left"
    },
    {
      "midi": 48,
      "time": 426.5,
      "duration": 1,
      "velocity": 0.71,
      "hand": "left"
    },
    {
      "midi": 57,
      "time": 426.5,
      "duration": 0.5,
      "velocity": 0.84,
      "hand": "left"
    },
    {
      "midi": 75,
      "time": 426.5,
      "duration": 0.5,
      "velocity": 0.8,
      "hand": "right"
    },
    {
      "midi": 79,
      "time": 426.5,
      "duration": 0.25,
      "velocity": 0.8,
      "hand": "right"
    },
    {
      "midi": 86,
      "time": 426.5,
      "duration": 0.25,
      "velocity": 0.8,
      "hand": "right"
    },
    {
      "midi": 79,
      "time": 426.75,
      "duration": 0.25,
      "velocity": 0.8,
      "hand": "right"
    },
    {
      "midi": 87,
      "time": 426.75,
      "duration": 0.25,
      "velocity": 0.8,
      "hand": "right"
    },
    {
      "midi": 44,
      "time": 427,
      "duration": 0.5,
      "velocity": 0.84,
      "hand": "left"
    },
    {
      "midi": 56,
      "time": 427,
      "duration": 0.5,
      "velocity": 0.84,
      "hand": "left"
    },
    {
      "midi": 77,
      "time": 427,
      "duration": 0.5,
      "velocity": 0.71,
      "hand": "right"
    },
    {
      "midi": 84,
      "time": 427,
      "duration": 0.25,
      "velocity": 0.8,
      "hand": "right"
    },
    {
      "midi": 80,
      "time": 427.25,
      "duration": 0.25,
      "velocity": 0.8,
      "hand": "right"
    },
    {
      "midi": 89,
      "time": 427.25,
      "duration": 0.25,
      "velocity": 0.8,
      "hand": "right"
    },
    {
      "midi": 43,
      "time": 427.5,
      "duration": 0.5,
      "velocity": 0.84,
      "hand": "left"
    },
    {
      "midi": 48,
      "time": 427.5,
      "duration": 0.5,
      "velocity": 0.84,
      "hand": "left"
    },
    {
      "midi": 55,
      "time": 427.5,
      "duration": 0.5,
      "velocity": 0.84,
      "hand": "left"
    },
    {
      "midi": 79,
      "time": 427.5,
      "duration": 0.5,
      "velocity": 0.8,
      "hand": "right"
    },
    {
      "midi": 84,
      "time": 427.5,
      "duration": 0.25,
      "velocity": 0.8,
      "hand": "right"
    },
    {
      "midi": 84,
      "time": 427.75,
      "duration": 0.25,
      "velocity": 0.8,
      "hand": "right"
    },
    {
      "midi": 91,
      "time": 427.75,
      "duration": 0.25,
      "velocity": 0.8,
      "hand": "right"
    },
    {
      "midi": 41,
      "time": 428,
      "duration": 0.25,
      "velocity": 0.84,
      "hand": "left"
    },
    {
      "midi": 42,
      "time": 428,
      "duration": 0.25,
      "velocity": 0.84,
      "hand": "left"
    },
    {
      "midi": 53,
      "time": 428,
      "duration": 0.25,
      "velocity": 0.84,
      "hand": "left"
    },
    {
      "midi": 54,
      "time": 428,
      "duration": 0.25,
      "velocity": 0.84,
      "hand": "left"
    },
    {
      "midi": 80,
      "time": 428,
      "duration": 0.25,
      "velocity": 0.8,
      "hand": "right"
    },
    {
      "midi": 87,
      "time": 428,
      "duration": 0.25,
      "velocity": 0.8,
      "hand": "right"
    },
    {
      "midi": 39,
      "time": 428.25,
      "duration": 0.25,
      "velocity": 0.84,
      "hand": "left"
    },
    {
      "midi": 51,
      "time": 428.25,
      "duration": 0.25,
      "velocity": 0.84,
      "hand": "left"
    },
    {
      "midi": 79,
      "time": 428.25,
      "duration": 0.25,
      "velocity": 0.8,
      "hand": "right"
    },
    {
      "midi": 84,
      "time": 428.25,
      "duration": 0.25,
      "velocity": 0.8,
      "hand": "right"
    },
    {
      "midi": 92,
      "time": 428.25,
      "duration": 0.25,
      "velocity": 0.8,
      "hand": "right"
    },
    {
      "midi": 80,
      "time": 428.5,
      "duration": 0.5,
      "velocity": 0.8,
      "hand": "right"
    },
    {
      "midi": 84,
      "time": 428.5,
      "duration": 0.25,
      "velocity": 0.8,
      "hand": "right"
    },
    {
      "midi": 84,
      "time": 428.5,
      "duration": 0.5,
      "velocity": 0.8,
      "hand": "right"
    },
    {
      "midi": 87,
      "time": 428.5,
      "duration": 0.5,
      "velocity": 0.8,
      "hand": "right"
    },
    {
      "midi": 91,
      "time": 428.5,
      "duration": 0.25,
      "velocity": 0.8,
      "hand": "right"
    },
    {
      "midi": 92,
      "time": 428.5,
      "duration": 0.5,
      "velocity": 0.8,
      "hand": "right"
    },
    {
      "midi": 39,
      "time": 428.75,
      "duration": 0.25,
      "velocity": 0.71,
      "hand": "left"
    },
    {
      "midi": 48,
      "time": 428.75,
      "duration": 0.25,
      "velocity": 0.71,
      "hand": "left"
    },
    {
      "midi": 44,
      "time": 429,
      "duration": 0.25,
      "velocity": 0.71,
      "hand": "left"
    },
    {
      "midi": 51,
      "time": 429,
      "duration": 0.25,
      "velocity": 0.71,
      "hand": "left"
    },
    {
      "midi": 79,
      "time": 429,
      "duration": 0.5,
      "velocity": 0.8,
      "hand": "right"
    },
    {
      "midi": 84,
      "time": 429,
      "duration": 0.5,
      "velocity": 0.8,
      "hand": "right"
    },
    {
      "midi": 87,
      "time": 429,
      "duration": 0.5,
      "velocity": 0.8,
      "hand": "right"
    },
    {
      "midi": 91,
      "time": 429,
      "duration": 0.5,
      "velocity": 0.8,
      "hand": "right"
    },
    {
      "midi": 44,
      "time": 429.25,
      "duration": 0.25,
      "velocity": 0.71,
      "hand": "left"
    },
    {
      "midi": 48,
      "time": 429.25,
      "duration": 0.25,
      "velocity": 0.71,
      "hand": "left"
    },
    {
      "midi": 39,
      "time": 429.5,
      "duration": 0.25,
      "velocity": 0.71,
      "hand": "left"
    },
    {
      "midi": 77,
      "time": 429.5,
      "duration": 0.5,
      "velocity": 0.8,
      "hand": "right"
    },
    {
      "midi": 80,
      "time": 429.5,
      "duration": 0.5,
      "velocity": 0.8,
      "hand": "right"
    },
    {
      "midi": 84,
      "time": 429.5,
      "duration": 0.5,
      "velocity": 0.8,
      "hand": "right"
    },
    {
      "midi": 89,
      "time": 429.5,
      "duration": 0.5,
      "velocity": 0.8,
      "hand": "right"
    },
    {
      "midi": 44,
      "time": 429.75,
      "duration": 0.25,
      "velocity": 0.71,
      "hand": "left"
    },
    {
      "midi": 51,
      "time": 429.75,
      "duration": 0.25,
      "velocity": 0.71,
      "hand": "left"
    },
    {
      "midi": 48,
      "time": 430,
      "duration": 0.25,
      "velocity": 0.71,
      "hand": "left"
    },
    {
      "midi": 56,
      "time": 430,
      "duration": 0.25,
      "velocity": 0.71,
      "hand": "left"
    },
    {
      "midi": 73,
      "time": 430,
      "duration": 0.25,
      "velocity": 0.8,
      "hand": "right"
    },
    {
      "midi": 75,
      "time": 430,
      "duration": 0.25,
      "velocity": 0.8,
      "hand": "right"
    },
    {
      "midi": 85,
      "time": 430,
      "duration": 0.25,
      "velocity": 0.8,
      "hand": "right"
    },
    {
      "midi": 87,
      "time": 430,
      "duration": 0.25,
      "velocity": 0.8,
      "hand": "right"
    },
    {
      "midi": 48,
      "time": 430.25,
      "duration": 0.25,
      "velocity": 0.71,
      "hand": "left"
    },
    {
      "midi": 51,
      "time": 430.25,
      "duration": 0.25,
      "velocity": 0.71,
      "hand": "left"
    },
    {
      "midi": 72,
      "time": 430.25,
      "duration": 0.25,
      "velocity": 0.8,
      "hand": "right"
    },
    {
      "midi": 84,
      "time": 430.25,
      "duration": 0.25,
      "velocity": 0.8,
      "hand": "right"
    },
    {
      "midi": 44,
      "time": 430.5,
      "duration": 0.25,
      "velocity": 0.71,
      "hand": "left"
    },
    {
      "midi": 77,
      "time": 430.5,
      "duration": 0.5,
      "velocity": 0.8,
      "hand": "right"
    },
    {
      "midi": 80,
      "time": 430.5,
      "duration": 0.5,
      "velocity": 0.8,
      "hand": "right"
    },
    {
      "midi": 84,
      "time": 430.5,
      "duration": 0.5,
      "velocity": 0.8,
      "hand": "right"
    },
    {
      "midi": 89,
      "time": 430.5,
      "duration": 0.5,
      "velocity": 0.8,
      "hand": "right"
    },
    {
      "midi": 48,
      "time": 430.75,
      "duration": 0.25,
      "velocity": 0.71,
      "hand": "left"
    },
    {
      "midi": 56,
      "time": 430.75,
      "duration": 0.25,
      "velocity": 0.71,
      "hand": "left"
    },
    {
      "midi": 51,
      "time": 431,
      "duration": 0.25,
      "velocity": 0.71,
      "hand": "left"
    },
    {
      "midi": 60,
      "time": 431,
      "duration": 0.25,
      "velocity": 0.71,
      "hand": "right"
    },
    {
      "midi": 75,
      "time": 431,
      "duration": 0.5,
      "velocity": 0.8,
      "hand": "right"
    },
    {
      "midi": 80,
      "time": 431,
      "duration": 0.5,
      "velocity": 0.8,
      "hand": "right"
    },
    {
      "midi": 84,
      "time": 431,
      "duration": 0.5,
      "velocity": 0.8,
      "hand": "right"
    },
    {
      "midi": 87,
      "time": 431,
      "duration": 0.5,
      "velocity": 0.8,
      "hand": "right"
    },
    {
      "midi": 51,
      "time": 431.25,
      "duration": 0.25,
      "velocity": 0.71,
      "hand": "left"
    },
    {
      "midi": 56,
      "time": 431.25,
      "duration": 0.25,
      "velocity": 0.71,
      "hand": "left"
    },
    {
      "midi": 48,
      "time": 431.5,
      "duration": 0.25,
      "velocity": 0.71,
      "hand": "left"
    },
    {
      "midi": 73,
      "time": 431.5,
      "duration": 0.5,
      "velocity": 0.8,
      "hand": "right"
    },
    {
      "midi": 75,
      "time": 431.5,
      "duration": 0.5,
      "velocity": 0.8,
      "hand": "right"
    },
    {
      "midi": 80,
      "time": 431.5,
      "duration": 0.5,
      "velocity": 0.8,
      "hand": "right"
    },
    {
      "midi": 85,
      "time": 431.5,
      "duration": 0.5,
      "velocity": 0.8,
      "hand": "right"
    },
    {
      "midi": 51,
      "time": 431.75,
      "duration": 0.25,
      "velocity": 0.71,
      "hand": "left"
    },
    {
      "midi": 60,
      "time": 431.75,
      "duration": 0.25,
      "velocity": 0.71,
      "hand": "right"
    },
    {
      "midi": 56,
      "time": 432,
      "duration": 0.25,
      "velocity": 0.71,
      "hand": "left"
    },
    {
      "midi": 63,
      "time": 432,
      "duration": 0.25,
      "velocity": 0.71,
      "hand": "right"
    },
    {
      "midi": 70,
      "time": 432,
      "duration": 0.25,
      "velocity": 0.8,
      "hand": "right"
    },
    {
      "midi": 72,
      "time": 432,
      "duration": 0.25,
      "velocity": 0.8,
      "hand": "right"
    },
    {
      "midi": 82,
      "time": 432,
      "duration": 0.25,
      "velocity": 0.8,
      "hand": "right"
    },
    {
      "midi": 84,
      "time": 432,
      "duration": 0.25,
      "velocity": 0.8,
      "hand": "right"
    },
    {
      "midi": 56,
      "time": 432.25,
      "duration": 0.25,
      "velocity": 0.71,
      "hand": "left"
    },
    {
      "midi": 60,
      "time": 432.25,
      "duration": 0.25,
      "velocity": 0.71,
      "hand": "right"
    },
    {
      "midi": 68,
      "time": 432.25,
      "duration": 0.25,
      "velocity": 0.8,
      "hand": "right"
    },
    {
      "midi": 80,
      "time": 432.25,
      "duration": 0.25,
      "velocity": 0.8,
      "hand": "right"
    },
    {
      "midi": 51,
      "time": 432.5,
      "duration": 0.25,
      "velocity": 0.71,
      "hand": "left"
    },
    {
      "midi": 73,
      "time": 432.5,
      "duration": 0.25,
      "velocity": 0.8,
      "hand": "right"
    },
    {
      "midi": 75,
      "time": 432.5,
      "duration": 0.25,
      "velocity": 0.8,
      "hand": "right"
    },
    {
      "midi": 85,
      "time": 432.5,
      "duration": 0.25,
      "velocity": 0.8,
      "hand": "right"
    },
    {
      "midi": 56,
      "time": 432.75,
      "duration": 0.25,
      "velocity": 0.71,
      "hand": "left"
    },
    {
      "midi": 63,
      "time": 432.75,
      "duration": 0.25,
      "velocity": 0.71,
      "hand": "right"
    },
    {
      "midi": 68,
      "time": 432.75,
      "duration": 0.25,
      "velocity": 0.71,
      "hand": "right"
    },
    {
      "midi": 72,
      "time": 432.75,
      "duration": 0.25,
      "velocity": 0.8,
      "hand": "right"
    },
    {
      "midi": 84,
      "time": 432.75,
      "duration": 0.25,
      "velocity": 0.8,
      "hand": "right"
    },
    {
      "midi": 56,
      "time": 433,
      "duration": 0.25,
      "velocity": 0.71,
      "hand": "left"
    },
    {
      "midi": 63,
      "time": 433,
      "duration": 0.25,
      "velocity": 0.71,
      "hand": "right"
    },
    {
      "midi": 70,
      "time": 433,
      "duration": 0.25,
      "velocity": 0.8,
      "hand": "right"
    },
    {
      "midi": 75,
      "time": 433,
      "duration": 0.25,
      "velocity": 0.8,
      "hand": "right"
    },
    {
      "midi": 82,
      "time": 433,
      "duration": 0.25,
      "velocity": 0.8,
      "hand": "right"
    },
    {
      "midi": 51,
      "time": 433.25,
      "duration": 0.25,
      "velocity": 0.71,
      "hand": "left"
    },
    {
      "midi": 60,
      "time": 433.25,
      "duration": 0.25,
      "velocity": 0.71,
      "hand": "right"
    },
    {
      "midi": 63,
      "time": 433.25,
      "duration": 0.25,
      "velocity": 0.71,
      "hand": "right"
    },
    {
      "midi": 68,
      "time": 433.25,
      "duration": 0.25,
      "velocity": 0.8,
      "hand": "right"
    },
    {
      "midi": 80,
      "time": 433.25,
      "duration": 0.25,
      "velocity": 0.8,
      "hand": "right"
    },
    {
      "midi": 51,
      "time": 433.5,
      "duration": 0.25,
      "velocity": 0.71,
      "hand": "left"
    },
    {
      "midi": 60,
      "time": 433.5,
      "duration": 0.25,
      "velocity": 0.71,
      "hand": "right"
    },
    {
      "midi": 65,
      "time": 433.5,
      "duration": 0.25,
      "velocity": 0.8,
      "hand": "right"
    },
    {
      "midi": 68,
      "time": 433.5,
      "duration": 0.25,
      "velocity": 0.8,
      "hand": "right"
    },
    {
      "midi": 77,
      "time": 433.5,
      "duration": 0.25,
      "velocity": 0.8,
      "hand": "right"
    },
    {
      "midi": 48,
      "time": 433.75,
      "duration": 0.25,
      "velocity": 0.71,
      "hand": "left"
    },
    {
      "midi": 56,
      "time": 433.75,
      "duration": 0.25,
      "velocity": 0.71,
      "hand": "left"
    },
    {
      "midi": 60,
      "time": 433.75,
      "duration": 0.25,
      "velocity": 0.71,
      "hand": "right"
    },
    {
      "midi": 63,
      "time": 433.75,
      "duration": 0.25,
      "velocity": 0.8,
      "hand": "right"
    },
    {
      "midi": 75,
      "time": 433.75,
      "duration": 0.25,
      "velocity": 0.8,
      "hand": "right"
    },
    {
      "midi": 48,
      "time": 434,
      "duration": 0.25,
      "velocity": 0.71,
      "hand": "left"
    },
    {
      "midi": 56,
      "time": 434,
      "duration": 0.25,
      "velocity": 0.71,
      "hand": "left"
    },
    {
      "midi": 61,
      "time": 434,
      "duration": 0.25,
      "velocity": 0.8,
      "hand": "right"
    },
    {
      "midi": 63,
      "time": 434,
      "duration": 0.25,
      "velocity": 0.8,
      "hand": "right"
    },
    {
      "midi": 73,
      "time": 434,
      "duration": 0.25,
      "velocity": 0.8,
      "hand": "right"
    },
    {
      "midi": 44,
      "time": 434.25,
      "duration": 0.25,
      "velocity": 0.71,
      "hand": "left"
    },
    {
      "midi": 51,
      "time": 434.25,
      "duration": 0.25,
      "velocity": 0.71,
      "hand": "left"
    },
    {
      "midi": 56,
      "time": 434.25,
      "duration": 0.25,
      "velocity": 0.71,
      "hand": "left"
    },
    {
      "midi": 60,
      "time": 434.25,
      "duration": 0.25,
      "velocity": 0.8,
      "hand": "right"
    },
    {
      "midi": 72,
      "time": 434.25,
      "duration": 0.25,
      "velocity": 0.8,
      "hand": "right"
    },
    {
      "midi": 44,
      "time": 434.5,
      "duration": 0.25,
      "velocity": 0.71,
      "hand": "left"
    },
    {
      "midi": 51,
      "time": 434.5,
      "duration": 0.25,
      "velocity": 0.71,
      "hand": "left"
    },
    {
      "midi": 58,
      "time": 434.5,
      "duration": 0.25,
      "velocity": 0.8,
      "hand": "left"
    },
    {
      "midi": 63,
      "time": 434.5,
      "duration": 0.25,
      "velocity": 0.8,
      "hand": "right"
    },
    {
      "midi": 70,
      "time": 434.5,
      "duration": 0.25,
      "velocity": 0.8,
      "hand": "right"
    },
    {
      "midi": 39,
      "time": 434.75,
      "duration": 0.25,
      "velocity": 0.71,
      "hand": "left"
    },
    {
      "midi": 48,
      "time": 434.75,
      "duration": 0.25,
      "velocity": 0.71,
      "hand": "left"
    },
    {
      "midi": 51,
      "time": 434.75,
      "duration": 0.25,
      "velocity": 0.71,
      "hand": "left"
    },
    {
      "midi": 56,
      "time": 434.75,
      "duration": 0.25,
      "velocity": 0.8,
      "hand": "left"
    },
    {
      "midi": 68,
      "time": 434.75,
      "duration": 0.25,
      "velocity": 0.8,
      "hand": "right"
    },
    {
      "midi": 39,
      "time": 435,
      "duration": 0.25,
      "velocity": 0.71,
      "hand": "left"
    },
    {
      "midi": 48,
      "time": 435,
      "duration": 0.25,
      "velocity": 0.71,
      "hand": "left"
    },
    {
      "midi": 53,
      "time": 435,
      "duration": 0.25,
      "velocity": 0.8,
      "hand": "left"
    },
    {
      "midi": 56,
      "time": 435,
      "duration": 0.25,
      "velocity": 0.8,
      "hand": "left"
    },
    {
      "midi": 65,
      "time": 435,
      "duration": 0.25,
      "velocity": 0.8,
      "hand": "right"
    },
    {
      "midi": 36,
      "time": 435.25,
      "duration": 0.25,
      "velocity": 0.71,
      "hand": "left"
    },
    {
      "midi": 44,
      "time": 435.25,
      "duration": 0.25,
      "velocity": 0.71,
      "hand": "left"
    },
    {
      "midi": 48,
      "time": 435.25,
      "duration": 0.25,
      "velocity": 0.71,
      "hand": "left"
    },
    {
      "midi": 51,
      "time": 435.25,
      "duration": 0.25,
      "velocity": 0.8,
      "hand": "left"
    },
    {
      "midi": 63,
      "time": 435.25,
      "duration": 0.25,
      "velocity": 0.8,
      "hand": "right"
    },
    {
      "midi": 36,
      "time": 435.5,
      "duration": 0.25,
      "velocity": 0.71,
      "hand": "left"
    },
    {
      "midi": 44,
      "time": 435.5,
      "duration": 0.25,
      "velocity": 0.71,
      "hand": "left"
    },
    {
      "midi": 49,
      "time": 435.5,
      "duration": 0.25,
      "velocity": 0.8,
      "hand": "left"
    },
    {
      "midi": 51,
      "time": 435.5,
      "duration": 0.25,
      "velocity": 0.8,
      "hand": "left"
    },
    {
      "midi": 61,
      "time": 435.5,
      "duration": 0.25,
      "velocity": 0.8,
      "hand": "right"
    },
    {
      "midi": 32,
      "time": 435.75,
      "duration": 0.25,
      "velocity": 0.71,
      "hand": "left"
    },
    {
      "midi": 39,
      "time": 435.75,
      "duration": 0.25,
      "velocity": 0.71,
      "hand": "left"
    },
    {
      "midi": 44,
      "time": 435.75,
      "duration": 0.25,
      "velocity": 0.71,
      "hand": "left"
    },
    {
      "midi": 48,
      "time": 435.75,
      "duration": 0.25,
      "velocity": 0.8,
      "hand": "left"
    },
    {
      "midi": 60,
      "time": 435.75,
      "duration": 0.25,
      "velocity": 0.8,
      "hand": "right"
    },
    {
      "midi": 32,
      "time": 436,
      "duration": 0.25,
      "velocity": 0.71,
      "hand": "left"
    },
    {
      "midi": 39,
      "time": 436,
      "duration": 0.25,
      "velocity": 0.71,
      "hand": "left"
    },
    {
      "midi": 44,
      "time": 436,
      "duration": 1,
      "velocity": 0.71,
      "hand": "left"
    },
    {
      "midi": 52,
      "time": 436,
      "duration": 1,
      "velocity": 0.71,
      "hand": "left"
    },
    {
      "midi": 56,
      "time": 436,
      "duration": 1,
      "velocity": 0.71,
      "hand": "left"
    },
    {
      "midi": 59,
      "time": 436,
      "duration": 1,
      "velocity": 0.84,
      "hand": "left"
    },
    {
      "midi": 64,
      "time": 436,
      "duration": 1,
      "velocity": 0.84,
      "hand": "right"
    },
    {
      "midi": 71,
      "time": 436,
      "duration": 1,
      "velocity": 0.84,
      "hand": "right"
    },
    {
      "midi": 32,
      "time": 437,
      "duration": 0.5,
      "velocity": 0.71,
      "hand": "left"
    },
    {
      "midi": 40,
      "time": 437,
      "duration": 0.5,
      "velocity": 0.71,
      "hand": "left"
    },
    {
      "midi": 44,
      "time": 437,
      "duration": 0.5,
      "velocity": 0.71,
      "hand": "left"
    },
    {
      "midi": 47,
      "time": 437,
      "duration": 0.5,
      "velocity": 0.84,
      "hand": "left"
    },
    {
      "midi": 52,
      "time": 437,
      "duration": 0.5,
      "velocity": 0.84,
      "hand": "left"
    },
    {
      "midi": 59,
      "time": 437,
      "duration": 0.5,
      "velocity": 0.84,
      "hand": "left"
    },
    {
      "midi": 44,
      "time": 437.5,
      "duration": 0.5,
      "velocity": 0.71,
      "hand": "left"
    },
    {
      "midi": 52,
      "time": 437.5,
      "duration": 0.5,
      "velocity": 0.71,
      "hand": "left"
    },
    {
      "midi": 56,
      "time": 437.5,
      "duration": 0.5,
      "velocity": 0.71,
      "hand": "left"
    },
    {
      "midi": 59,
      "time": 437.5,
      "duration": 0.5,
      "velocity": 0.84,
      "hand": "left"
    },
    {
      "midi": 64,
      "time": 437.5,
      "duration": 0.5,
      "velocity": 0.84,
      "hand": "right"
    },
    {
      "midi": 71,
      "time": 437.5,
      "duration": 0.5,
      "velocity": 0.84,
      "hand": "right"
    },
    {
      "midi": 56,
      "time": 438,
      "duration": 0.5,
      "velocity": 0.71,
      "hand": "left"
    },
    {
      "midi": 64,
      "time": 438,
      "duration": 0.5,
      "velocity": 0.71,
      "hand": "right"
    },
    {
      "midi": 68,
      "time": 438,
      "duration": 0.5,
      "velocity": 0.71,
      "hand": "right"
    },
    {
      "midi": 71,
      "time": 438,
      "duration": 0.5,
      "velocity": 0.84,
      "hand": "right"
    },
    {
      "midi": 76,
      "time": 438,
      "duration": 0.5,
      "velocity": 0.84,
      "hand": "right"
    },
    {
      "midi": 83,
      "time": 438,
      "duration": 0.5,
      "velocity": 0.84,
      "hand": "right"
    },
    {
      "midi": 68,
      "time": 438.5,
      "duration": 0.5,
      "velocity": 0.71,
      "hand": "right"
    },
    {
      "midi": 76,
      "time": 438.5,
      "duration": 0.5,
      "velocity": 0.71,
      "hand": "right"
    },
    {
      "midi": 80,
      "time": 438.5,
      "duration": 0.5,
      "velocity": 0.71,
      "hand": "right"
    },
    {
      "midi": 83,
      "time": 438.5,
      "duration": 0.5,
      "velocity": 0.84,
      "hand": "right"
    },
    {
      "midi": 88,
      "time": 438.5,
      "duration": 0.5,
      "velocity": 0.84,
      "hand": "right"
    },
    {
      "midi": 95,
      "time": 438.5,
      "duration": 0.5,
      "velocity": 0.84,
      "hand": "right"
    },
    {
      "midi": 56,
      "time": 439,
      "duration": 0.5,
      "velocity": 0.71,
      "hand": "left"
    },
    {
      "midi": 64,
      "time": 439,
      "duration": 0.5,
      "velocity": 0.71,
      "hand": "right"
    },
    {
      "midi": 68,
      "time": 439,
      "duration": 0.5,
      "velocity": 0.71,
      "hand": "right"
    },
    {
      "midi": 71,
      "time": 439,
      "duration": 0.5,
      "velocity": 0.84,
      "hand": "right"
    },
    {
      "midi": 76,
      "time": 439,
      "duration": 0.5,
      "velocity": 0.84,
      "hand": "right"
    },
    {
      "midi": 83,
      "time": 439,
      "duration": 0.5,
      "velocity": 0.84,
      "hand": "right"
    },
    {
      "midi": 44,
      "time": 439.5,
      "duration": 0.5,
      "velocity": 0.71,
      "hand": "left"
    },
    {
      "midi": 52,
      "time": 439.5,
      "duration": 0.5,
      "velocity": 0.71,
      "hand": "left"
    },
    {
      "midi": 56,
      "time": 439.5,
      "duration": 0.5,
      "velocity": 0.71,
      "hand": "left"
    },
    {
      "midi": 59,
      "time": 439.5,
      "duration": 0.5,
      "velocity": 0.84,
      "hand": "left"
    },
    {
      "midi": 64,
      "time": 439.5,
      "duration": 0.5,
      "velocity": 0.84,
      "hand": "right"
    },
    {
      "midi": 71,
      "time": 439.5,
      "duration": 0.5,
      "velocity": 0.84,
      "hand": "right"
    },
    {
      "midi": 56,
      "time": 440,
      "duration": 0.25,
      "velocity": 0.68,
      "hand": "left"
    },
    {
      "midi": 68,
      "time": 440,
      "duration": 0.25,
      "velocity": 0.68,
      "hand": "right"
    },
    {
      "midi": 59,
      "time": 440.25,
      "duration": 0.25,
      "velocity": 0.68,
      "hand": "left"
    },
    {
      "midi": 71,
      "time": 440.25,
      "duration": 0.25,
      "velocity": 0.68,
      "hand": "right"
    },
    {
      "midi": 45,
      "time": 440.5,
      "duration": 0.5,
      "velocity": 0.71,
      "hand": "left"
    },
    {
      "midi": 54,
      "time": 440.5,
      "duration": 0.5,
      "velocity": 0.71,
      "hand": "left"
    },
    {
      "midi": 57,
      "time": 440.5,
      "duration": 0.5,
      "velocity": 0.71,
      "hand": "left"
    },
    {
      "midi": 61,
      "time": 440.5,
      "duration": 0.5,
      "velocity": 0.68,
      "hand": "right"
    },
    {
      "midi": 63,
      "time": 440.5,
      "duration": 0.5,
      "velocity": 0.68,
      "hand": "right"
    },
    {
      "midi": 73,
      "time": 440.5,
      "duration": 0.5,
      "velocity": 0.68,
      "hand": "right"
    },
    {
      "midi": 45,
      "time": 441,
      "duration": 0.5,
      "velocity": 0.71,
      "hand": "left"
    },
    {
      "midi": 52,
      "time": 441,
      "duration": 0.5,
      "velocity": 0.71,
      "hand": "left"
    },
    {
      "midi": 57,
      "time": 441,
      "duration": 0.5,
      "velocity": 0.71,
      "hand": "left"
    },
    {
      "midi": 61,
      "time": 441,
      "duration": 0.5,
      "velocity": 0.68,
      "hand": "right"
    },
    {
      "midi": 64,
      "time": 441,
      "duration": 0.5,
      "velocity": 0.68,
      "hand": "right"
    },
    {
      "midi": 73,
      "time": 441,
      "duration": 0.5,
      "velocity": 0.68,
      "hand": "right"
    },
    {
      "midi": 45,
      "time": 441.5,
      "duration": 0.5,
      "velocity": 0.71,
      "hand": "left"
    },
    {
      "midi": 51,
      "time": 441.5,
      "duration": 0.5,
      "velocity": 0.71,
      "hand": "left"
    },
    {
      "midi": 57,
      "time": 441.5,
      "duration": 0.5,
      "velocity": 0.71,
      "hand": "left"
    },
    {
      "midi": 61,
      "time": 441.5,
      "duration": 0.5,
      "velocity": 0.68,
      "hand": "right"
    },
    {
      "midi": 66,
      "time": 441.5,
      "duration": 0.5,
      "velocity": 0.68,
      "hand": "right"
    },
    {
      "midi": 73,
      "time": 441.5,
      "duration": 0.5,
      "velocity": 0.68,
      "hand": "right"
    },
    {
      "midi": 54,
      "time": 442,
      "duration": 0.25,
      "velocity": 0.68,
      "hand": "left"
    },
    {
      "midi": 66,
      "time": 442,
      "duration": 0.25,
      "velocity": 0.68,
      "hand": "right"
    },
    {
      "midi": 57,
      "time": 442.25,
      "duration": 0.25,
      "velocity": 0.68,
      "hand": "left"
    },
    {
      "midi": 69,
      "time": 442.25,
      "duration": 0.25,
      "velocity": 0.68,
      "hand": "right"
    },
    {
      "midi": 44,
      "time": 442.5,
      "duration": 0.5,
      "velocity": 0.71,
      "hand": "left"
    },
    {
      "midi": 52,
      "time": 442.5,
      "duration": 0.5,
      "velocity": 0.71,
      "hand": "left"
    },
    {
      "midi": 56,
      "time": 442.5,
      "duration": 0.5,
      "velocity": 0.71,
      "hand": "left"
    },
    {
      "midi": 59,
      "time": 442.5,
      "duration": 0.5,
      "velocity": 0.68,
      "hand": "left"
    },
    {
      "midi": 61,
      "time": 442.5,
      "duration": 0.5,
      "velocity": 0.68,
      "hand": "right"
    },
    {
      "midi": 71,
      "time": 442.5,
      "duration": 0.5,
      "velocity": 0.68,
      "hand": "right"
    },
    {
      "midi": 44,
      "time": 443,
      "duration": 0.5,
      "velocity": 0.71,
      "hand": "left"
    },
    {
      "midi": 51,
      "time": 443,
      "duration": 0.5,
      "velocity": 0.71,
      "hand": "left"
    },
    {
      "midi": 56,
      "time": 443,
      "duration": 0.5,
      "velocity": 0.71,
      "hand": "left"
    },
    {
      "midi": 59,
      "time": 443,
      "duration": 0.5,
      "velocity": 0.68,
      "hand": "left"
    },
    {
      "midi": 63,
      "time": 443,
      "duration": 0.5,
      "velocity": 0.68,
      "hand": "right"
    },
    {
      "midi": 71,
      "time": 443,
      "duration": 0.5,
      "velocity": 0.68,
      "hand": "right"
    },
    {
      "midi": 44,
      "time": 443.5,
      "duration": 0.5,
      "velocity": 0.71,
      "hand": "left"
    },
    {
      "midi": 49,
      "time": 443.5,
      "duration": 0.5,
      "velocity": 0.84,
      "hand": "left"
    },
    {
      "midi": 56,
      "time": 443.5,
      "duration": 0.5,
      "velocity": 0.71,
      "hand": "left"
    },
    {
      "midi": 59,
      "time": 443.5,
      "duration": 0.5,
      "velocity": 0.68,
      "hand": "left"
    },
    {
      "midi": 64,
      "time": 443.5,
      "duration": 0.5,
      "velocity": 0.71,
      "hand": "right"
    },
    {
      "midi": 71,
      "time": 443.5,
      "duration": 0.5,
      "velocity": 0.68,
      "hand": "right"
    },
    {
      "midi": 51,
      "time": 444,
      "duration": 0.25,
      "velocity": 0.84,
      "hand": "left"
    },
    {
      "midi": 52,
      "time": 444,
      "duration": 0.25,
      "velocity": 0.84,
      "hand": "left"
    },
    {
      "midi": 56,
      "time": 444,
      "duration": 0.25,
      "velocity": 0.68,
      "hand": "left"
    },
    {
      "midi": 66,
      "time": 444,
      "duration": 0.25,
      "velocity": 0.71,
      "hand": "right"
    },
    {
      "midi": 68,
      "time": 444,
      "duration": 0.25,
      "velocity": 0.68,
      "hand": "right"
    },
    {
      "midi": 59,
      "time": 444.25,
      "duration": 0.25,
      "velocity": 0.68,
      "hand": "left"
    },
    {
      "midi": 71,
      "time": 444.25,
      "duration": 0.25,
      "velocity": 0.68,
      "hand": "right"
    },
    {
      "midi": 45,
      "time": 444.5,
      "duration": 0.5,
      "velocity": 0.71,
      "hand": "left"
    },
    {
      "midi": 54,
      "time": 444.5,
      "duration": 0.5,
      "velocity": 0.71,
      "hand": "left"
    },
    {
      "midi": 57,
      "time": 444.5,
      "duration": 0.5,
      "velocity": 0.71,
      "hand": "left"
    },
    {
      "midi": 61,
      "time": 444.5,
      "duration": 0.5,
      "velocity": 0.68,
      "hand": "right"
    },
    {
      "midi": 63,
      "time": 444.5,
      "duration": 0.5,
      "velocity": 0.68,
      "hand": "right"
    },
    {
      "midi": 73,
      "time": 444.5,
      "duration": 0.5,
      "velocity": 0.68,
      "hand": "right"
    },
    {
      "midi": 45,
      "time": 445,
      "duration": 0.5,
      "velocity": 0.71,
      "hand": "left"
    },
    {
      "midi": 52,
      "time": 445,
      "duration": 0.5,
      "velocity": 0.71,
      "hand": "left"
    },
    {
      "midi": 57,
      "time": 445,
      "duration": 0.5,
      "velocity": 0.71,
      "hand": "left"
    },
    {
      "midi": 61,
      "time": 445,
      "duration": 0.5,
      "velocity": 0.68,
      "hand": "right"
    },
    {
      "midi": 64,
      "time": 445,
      "duration": 0.5,
      "velocity": 0.68,
      "hand": "right"
    },
    {
      "midi": 73,
      "time": 445,
      "duration": 0.5,
      "velocity": 0.68,
      "hand": "right"
    },
    {
      "midi": 45,
      "time": 445.5,
      "duration": 0.5,
      "velocity": 0.71,
      "hand": "left"
    },
    {
      "midi": 51,
      "time": 445.5,
      "duration": 0.5,
      "velocity": 0.71,
      "hand": "left"
    },
    {
      "midi": 57,
      "time": 445.5,
      "duration": 0.5,
      "velocity": 0.71,
      "hand": "left"
    },
    {
      "midi": 61,
      "time": 445.5,
      "duration": 0.5,
      "velocity": 0.68,
      "hand": "right"
    },
    {
      "midi": 66,
      "time": 445.5,
      "duration": 0.5,
      "velocity": 0.68,
      "hand": "right"
    },
    {
      "midi": 73,
      "time": 445.5,
      "duration": 0.5,
      "velocity": 0.68,
      "hand": "right"
    },
    {
      "midi": 54,
      "time": 446,
      "duration": 0.25,
      "velocity": 0.68,
      "hand": "left"
    },
    {
      "midi": 66,
      "time": 446,
      "duration": 0.25,
      "velocity": 0.68,
      "hand": "right"
    },
    {
      "midi": 57,
      "time": 446.25,
      "duration": 0.25,
      "velocity": 0.68,
      "hand": "left"
    },
    {
      "midi": 69,
      "time": 446.25,
      "duration": 0.25,
      "velocity": 0.68,
      "hand": "right"
    },
    {
      "midi": 44,
      "time": 446.5,
      "duration": 0.5,
      "velocity": 0.71,
      "hand": "left"
    },
    {
      "midi": 52,
      "time": 446.5,
      "duration": 0.5,
      "velocity": 0.71,
      "hand": "left"
    },
    {
      "midi": 56,
      "time": 446.5,
      "duration": 0.5,
      "velocity": 0.71,
      "hand": "left"
    },
    {
      "midi": 59,
      "time": 446.5,
      "duration": 0.5,
      "velocity": 0.68,
      "hand": "left"
    },
    {
      "midi": 61,
      "time": 446.5,
      "duration": 0.5,
      "velocity": 0.68,
      "hand": "right"
    },
    {
      "midi": 71,
      "time": 446.5,
      "duration": 0.5,
      "velocity": 0.68,
      "hand": "right"
    },
    {
      "midi": 44,
      "time": 447,
      "duration": 0.5,
      "velocity": 0.71,
      "hand": "left"
    },
    {
      "midi": 51,
      "time": 447,
      "duration": 0.5,
      "velocity": 0.71,
      "hand": "left"
    },
    {
      "midi": 56,
      "time": 447,
      "duration": 0.5,
      "velocity": 0.71,
      "hand": "left"
    },
    {
      "midi": 59,
      "time": 447,
      "duration": 0.5,
      "velocity": 0.68,
      "hand": "left"
    },
    {
      "midi": 63,
      "time": 447,
      "duration": 0.5,
      "velocity": 0.68,
      "hand": "right"
    },
    {
      "midi": 71,
      "time": 447,
      "duration": 0.5,
      "velocity": 0.68,
      "hand": "right"
    },
    {
      "midi": 44,
      "time": 447.5,
      "duration": 0.5,
      "velocity": 0.71,
      "hand": "left"
    },
    {
      "midi": 49,
      "time": 447.5,
      "duration": 0.5,
      "velocity": 0.71,
      "hand": "left"
    },
    {
      "midi": 56,
      "time": 447.5,
      "duration": 0.5,
      "velocity": 0.71,
      "hand": "left"
    },
    {
      "midi": 59,
      "time": 447.5,
      "duration": 0.5,
      "velocity": 0.68,
      "hand": "left"
    },
    {
      "midi": 64,
      "time": 447.5,
      "duration": 0.5,
      "velocity": 0.68,
      "hand": "right"
    },
    {
      "midi": 71,
      "time": 447.5,
      "duration": 0.5,
      "velocity": 0.68,
      "hand": "right"
    },
    {
      "midi": 52,
      "time": 448,
      "duration": 0.25,
      "velocity": 0.68,
      "hand": "left"
    },
    {
      "midi": 64,
      "time": 448,
      "duration": 0.25,
      "velocity": 0.68,
      "hand": "right"
    },
    {
      "midi": 56,
      "time": 448.25,
      "duration": 0.25,
      "velocity": 0.68,
      "hand": "left"
    },
    {
      "midi": 68,
      "time": 448.25,
      "duration": 0.25,
      "velocity": 0.68,
      "hand": "right"
    },
    {
      "midi": 42,
      "time": 448.5,
      "duration": 0.5,
      "velocity": 0.71,
      "hand": "left"
    },
    {
      "midi": 51,
      "time": 448.5,
      "duration": 0.5,
      "velocity": 0.71,
      "hand": "left"
    },
    {
      "midi": 54,
      "time": 448.5,
      "duration": 0.5,
      "velocity": 0.71,
      "hand": "left"
    },
    {
      "midi": 57,
      "time": 448.5,
      "duration": 0.5,
      "velocity": 0.68,
      "hand": "left"
    },
    {
      "midi": 60,
      "time": 448.5,
      "duration": 0.5,
      "velocity": 0.68,
      "hand": "right"
    },
    {
      "midi": 69,
      "time": 448.5,
      "duration": 0.5,
      "velocity": 0.68,
      "hand": "right"
    },
    {
      "midi": 42,
      "time": 449,
      "duration": 0.5,
      "velocity": 0.71,
      "hand": "left"
    },
    {
      "midi": 49,
      "time": 449,
      "duration": 0.5,
      "velocity": 0.71,
      "hand": "left"
    },
    {
      "midi": 54,
      "time": 449,
      "duration": 0.5,
      "velocity": 0.71,
      "hand": "left"
    },
    {
      "midi": 57,
      "time": 449,
      "duration": 0.5,
      "velocity": 0.68,
      "hand": "left"
    },
    {
      "midi": 61,
      "time": 449,
      "duration": 0.5,
      "velocity": 0.68,
      "hand": "right"
    },
    {
      "midi": 69,
      "time": 449,
      "duration": 0.5,
      "velocity": 0.68,
      "hand": "right"
    },
    {
      "midi": 42,
      "time": 449.5,
      "duration": 0.5,
      "velocity": 0.71,
      "hand": "left"
    },
    {
      "midi": 48,
      "time": 449.5,
      "duration": 0.5,
      "velocity": 0.71,
      "hand": "left"
    },
    {
      "midi": 54,
      "time": 449.5,
      "duration": 0.5,
      "velocity": 0.71,
      "hand": "left"
    },
    {
      "midi": 57,
      "time": 449.5,
      "duration": 0.5,
      "velocity": 0.68,
      "hand": "left"
    },
    {
      "midi": 63,
      "time": 449.5,
      "duration": 0.5,
      "velocity": 0.68,
      "hand": "right"
    },
    {
      "midi": 69,
      "time": 449.5,
      "duration": 0.5,
      "velocity": 0.68,
      "hand": "right"
    },
    {
      "midi": 51,
      "time": 450,
      "duration": 0.25,
      "velocity": 0.68,
      "hand": "left"
    },
    {
      "midi": 63,
      "time": 450,
      "duration": 0.25,
      "velocity": 0.68,
      "hand": "right"
    },
    {
      "midi": 54,
      "time": 450.25,
      "duration": 0.25,
      "velocity": 0.68,
      "hand": "left"
    },
    {
      "midi": 66,
      "time": 450.25,
      "duration": 0.25,
      "velocity": 0.68,
      "hand": "right"
    },
    {
      "midi": 40,
      "time": 450.5,
      "duration": 0.5,
      "velocity": 0.71,
      "hand": "left"
    },
    {
      "midi": 49,
      "time": 450.5,
      "duration": 0.5,
      "velocity": 0.71,
      "hand": "left"
    },
    {
      "midi": 52,
      "time": 450.5,
      "duration": 0.5,
      "velocity": 0.71,
      "hand": "left"
    },
    {
      "midi": 56,
      "time": 450.5,
      "duration": 0.5,
      "velocity": 0.68,
      "hand": "left"
    },
    {
      "midi": 58,
      "time": 450.5,
      "duration": 0.5,
      "velocity": 0.68,
      "hand": "left"
    },
    {
      "midi": 68,
      "time": 450.5,
      "duration": 0.5,
      "velocity": 0.68,
      "hand": "right"
    },
    {
      "midi": 40,
      "time": 451,
      "duration": 0.5,
      "velocity": 0.71,
      "hand": "left"
    },
    {
      "midi": 48,
      "time": 451,
      "duration": 0.5,
      "velocity": 0.71,
      "hand": "left"
    },
    {
      "midi": 52,
      "time": 451,
      "duration": 0.5,
      "velocity": 0.71,
      "hand": "left"
    },
    {
      "midi": 56,
      "time": 451,
      "duration": 0.5,
      "velocity": 0.68,
      "hand": "left"
    },
    {
      "midi": 60,
      "time": 451,
      "duration": 0.5,
      "velocity": 0.68,
      "hand": "right"
    },
    {
      "midi": 68,
      "time": 451,
      "duration": 0.5,
      "velocity": 0.68,
      "hand": "right"
    },
    {
      "midi": 40,
      "time": 451.5,
      "duration": 0.5,
      "velocity": 0.71,
      "hand": "left"
    },
    {
      "midi": 46,
      "time": 451.5,
      "duration": 0.5,
      "velocity": 0.71,
      "hand": "left"
    },
    {
      "midi": 52,
      "time": 451.5,
      "duration": 0.5,
      "velocity": 0.71,
      "hand": "left"
    },
    {
      "midi": 56,
      "time": 451.5,
      "duration": 0.5,
      "velocity": 0.68,
      "hand": "left"
    },
    {
      "midi": 61,
      "time": 451.5,
      "duration": 0.5,
      "velocity": 0.68,
      "hand": "right"
    },
    {
      "midi": 68,
      "time": 451.5,
      "duration": 0.5,
      "velocity": 0.68,
      "hand": "right"
    },
    {
      "midi": 49,
      "time": 452,
      "duration": 0.25,
      "velocity": 0.68,
      "hand": "left"
    },
    {
      "midi": 61,
      "time": 452,
      "duration": 0.25,
      "velocity": 0.68,
      "hand": "right"
    },
    {
      "midi": 52,
      "time": 452.25,
      "duration": 0.25,
      "velocity": 0.68,
      "hand": "left"
    },
    {
      "midi": 64,
      "time": 452.25,
      "duration": 0.25,
      "velocity": 0.68,
      "hand": "right"
    },
    {
      "midi": 39,
      "time": 452.5,
      "duration": 0.5,
      "velocity": 0.71,
      "hand": "left"
    },
    {
      "midi": 44,
      "time": 452.5,
      "duration": 0.5,
      "velocity": 0.71,
      "hand": "left"
    },
    {
      "midi": 51,
      "time": 452.5,
      "duration": 0.5,
      "velocity": 0.71,
      "hand": "left"
    },
    {
      "midi": 54,
      "time": 452.5,
      "duration": 0.5,
      "velocity": 0.68,
      "hand": "left"
    },
    {
      "midi": 56,
      "time": 452.5,
      "duration": 0.5,
      "velocity": 0.68,
      "hand": "left"
    },
    {
      "midi": 66,
      "time": 452.5,
      "duration": 0.5,
      "velocity": 0.68,
      "hand": "right"
    },
    {
      "midi": 48,
      "time": 453,
      "duration": 0.25,
      "velocity": 0.68,
      "hand": "left"
    },
    {
      "midi": 60,
      "time": 453,
      "duration": 0.25,
      "velocity": 0.68,
      "hand": "right"
    },
    {
      "midi": 51,
      "time": 453.25,
      "duration": 0.25,
      "velocity": 0.68,
      "hand": "left"
    },
    {
      "midi": 63,
      "time": 453.25,
      "duration": 0.25,
      "velocity": 0.68,
      "hand": "right"
    },
    {
      "midi": 37,
      "time": 453.5,
      "duration": 0.5,
      "velocity": 0.71,
      "hand": "left"
    },
    {
      "midi": 44,
      "time": 453.5,
      "duration": 0.5,
      "velocity": 0.71,
      "hand": "left"
    },
    {
      "midi": 49,
      "time": 453.5,
      "duration": 0.5,
      "velocity": 0.71,
      "hand": "left"
    },
    {
      "midi": 52,
      "time": 453.5,
      "duration": 0.5,
      "velocity": 0.68,
      "hand": "left"
    },
    {
      "midi": 56,
      "time": 453.5,
      "duration": 0.5,
      "velocity": 0.68,
      "hand": "left"
    },
    {
      "midi": 64,
      "time": 453.5,
      "duration": 0.5,
      "velocity": 0.68,
      "hand": "right"
    },
    {
      "midi": 46,
      "time": 454,
      "duration": 0.25,
      "velocity": 0.68,
      "hand": "left"
    },
    {
      "midi": 58,
      "time": 454,
      "duration": 0.25,
      "velocity": 0.68,
      "hand": "left"
    },
    {
      "midi": 49,
      "time": 454.25,
      "duration": 0.25,
      "velocity": 0.68,
      "hand": "left"
    },
    {
      "midi": 61,
      "time": 454.25,
      "duration": 0.25,
      "velocity": 0.68,
      "hand": "right"
    },
    {
      "midi": 32,
      "time": 454.5,
      "duration": 0.125,
      "velocity": 0.84,
      "hand": "left"
    },
    {
      "midi": 44,
      "time": 454.5,
      "duration": 1.5,
      "velocity": 0.84,
      "hand": "left"
    },
    {
      "midi": 49,
      "time": 454.5,
      "duration": 0.5,
      "velocity": 0.71,
      "hand": "left"
    },
    {
      "midi": 51,
      "time": 454.5,
      "duration": 1.5,
      "velocity": 0.75,
      "hand": "left"
    },
    {
      "midi": 56,
      "time": 454.5,
      "duration": 1.5,
      "velocity": 0.75,
      "hand": "left"
    },
    {
      "midi": 63,
      "time": 454.5,
      "duration": 1.5,
      "velocity": 0.75,
      "hand": "right"
    },
    {
      "midi": 48,
      "time": 455,
      "duration": 1,
      "velocity": 0.71,
      "hand": "left"
    },
    {
      "midi": 42,
      "time": 456,
      "duration": 0.5,
      "velocity": 0.84,
      "hand": "left"
    },
    {
      "midi": 49,
      "time": 456,
      "duration": 0.5,
      "velocity": 0.71,
      "hand": "left"
    },
    {
      "midi": 54,
      "time": 456,
      "duration": 0.5,
      "velocity": 0.75,
      "hand": "left"
    },
    {
      "midi": 57,
      "time": 456,
      "duration": 0.5,
      "velocity": 0.75,
      "hand": "left"
    },
    {
      "midi": 66,
      "time": 456,
      "duration": 0.5,
      "velocity": 0.75,
      "hand": "right"
    },
    {
      "midi": 44,
      "time": 456.5,
      "duration": 0.5,
      "velocity": 0.84,
      "hand": "left"
    },
    {
      "midi": 48,
      "time": 456.5,
      "duration": 0.5,
      "velocity": 0.71,
      "hand": "left"
    },
    {
      "midi": 51,
      "time": 456.5,
      "duration": 0.5,
      "velocity": 0.75,
      "hand": "left"
    },
    {
      "midi": 56,
      "time": 456.5,
      "duration": 0.5,
      "velocity": 0.75,
      "hand": "left"
    },
    {
      "midi": 63,
      "time": 456.5,
      "duration": 0.5,
      "velocity": 0.75,
      "hand": "right"
    },
    {
      "midi": 42,
      "time": 457,
      "duration": 0.5,
      "velocity": 0.84,
      "hand": "left"
    },
    {
      "midi": 49,
      "time": 457,
      "duration": 0.5,
      "velocity": 0.71,
      "hand": "left"
    },
    {
      "midi": 54,
      "time": 457,
      "duration": 0.5,
      "velocity": 0.75,
      "hand": "left"
    },
    {
      "midi": 57,
      "time": 457,
      "duration": 0.5,
      "velocity": 0.75,
      "hand": "left"
    },
    {
      "midi": 66,
      "time": 457,
      "duration": 0.5,
      "velocity": 0.75,
      "hand": "right"
    },
    {
      "midi": 44,
      "time": 457.5,
      "duration": 0.5,
      "velocity": 0.84,
      "hand": "left"
    },
    {
      "midi": 48,
      "time": 457.5,
      "duration": 0.5,
      "velocity": 0.71,
      "hand": "left"
    },
    {
      "midi": 51,
      "time": 457.5,
      "duration": 0.5,
      "velocity": 0.75,
      "hand": "left"
    },
    {
      "midi": 56,
      "time": 457.5,
      "duration": 0.5,
      "velocity": 0.75,
      "hand": "left"
    },
    {
      "midi": 63,
      "time": 457.5,
      "duration": 0.5,
      "velocity": 0.75,
      "hand": "right"
    },
    {
      "midi": 42,
      "time": 458,
      "duration": 0.5,
      "velocity": 0.84,
      "hand": "left"
    },
    {
      "midi": 49,
      "time": 458,
      "duration": 0.5,
      "velocity": 0.71,
      "hand": "left"
    },
    {
      "midi": 54,
      "time": 458,
      "duration": 0.5,
      "velocity": 0.75,
      "hand": "left"
    },
    {
      "midi": 57,
      "time": 458,
      "duration": 0.5,
      "velocity": 0.75,
      "hand": "left"
    },
    {
      "midi": 66,
      "time": 458,
      "duration": 0.5,
      "velocity": 0.75,
      "hand": "right"
    },
    {
      "midi": 32,
      "time": 458.5,
      "duration": 0.125,
      "velocity": 0.84,
      "hand": "left"
    },
    {
      "midi": 44,
      "time": 458.5,
      "duration": 1.5,
      "velocity": 0.84,
      "hand": "left"
    },
    {
      "midi": 49,
      "time": 458.5,
      "duration": 0.5,
      "velocity": 0.71,
      "hand": "left"
    },
    {
      "midi": 51,
      "time": 458.5,
      "duration": 1.5,
      "velocity": 0.75,
      "hand": "left"
    },
    {
      "midi": 56,
      "time": 458.5,
      "duration": 1.5,
      "velocity": 0.75,
      "hand": "left"
    },
    {
      "midi": 63,
      "time": 458.5,
      "duration": 1.5,
      "velocity": 0.75,
      "hand": "right"
    },
    {
      "midi": 48,
      "time": 459,
      "duration": 1,
      "velocity": 0.71,
      "hand": "left"
    },
    {
      "midi": 42,
      "time": 460,
      "duration": 0.5,
      "velocity": 0.84,
      "hand": "left"
    },
    {
      "midi": 49,
      "time": 460,
      "duration": 0.5,
      "velocity": 0.71,
      "hand": "left"
    },
    {
      "midi": 54,
      "time": 460,
      "duration": 0.5,
      "velocity": 0.75,
      "hand": "left"
    },
    {
      "midi": 57,
      "time": 460,
      "duration": 0.5,
      "velocity": 0.75,
      "hand": "left"
    },
    {
      "midi": 66,
      "time": 460,
      "duration": 0.5,
      "velocity": 0.75,
      "hand": "right"
    },
    {
      "midi": 44,
      "time": 460.5,
      "duration": 0.5,
      "velocity": 0.84,
      "hand": "left"
    },
    {
      "midi": 48,
      "time": 460.5,
      "duration": 0.5,
      "velocity": 0.71,
      "hand": "left"
    },
    {
      "midi": 51,
      "time": 460.5,
      "duration": 0.5,
      "velocity": 0.75,
      "hand": "left"
    },
    {
      "midi": 56,
      "time": 460.5,
      "duration": 0.5,
      "velocity": 0.75,
      "hand": "left"
    },
    {
      "midi": 63,
      "time": 460.5,
      "duration": 0.5,
      "velocity": 0.75,
      "hand": "right"
    },
    {
      "midi": 42,
      "time": 461,
      "duration": 0.5,
      "velocity": 0.84,
      "hand": "left"
    },
    {
      "midi": 49,
      "time": 461,
      "duration": 0.5,
      "velocity": 0.71,
      "hand": "left"
    },
    {
      "midi": 54,
      "time": 461,
      "duration": 0.5,
      "velocity": 0.75,
      "hand": "left"
    },
    {
      "midi": 57,
      "time": 461,
      "duration": 0.5,
      "velocity": 0.75,
      "hand": "left"
    },
    {
      "midi": 66,
      "time": 461,
      "duration": 0.5,
      "velocity": 0.75,
      "hand": "right"
    },
    {
      "midi": 44,
      "time": 461.5,
      "duration": 0.5,
      "velocity": 0.84,
      "hand": "left"
    },
    {
      "midi": 48,
      "time": 461.5,
      "duration": 0.5,
      "velocity": 0.71,
      "hand": "left"
    },
    {
      "midi": 51,
      "time": 461.5,
      "duration": 0.5,
      "velocity": 0.75,
      "hand": "left"
    },
    {
      "midi": 56,
      "time": 461.5,
      "duration": 0.5,
      "velocity": 0.75,
      "hand": "left"
    },
    {
      "midi": 63,
      "time": 461.5,
      "duration": 0.5,
      "velocity": 0.75,
      "hand": "right"
    },
    {
      "midi": 42,
      "time": 462,
      "duration": 0.5,
      "velocity": 0.84,
      "hand": "left"
    },
    {
      "midi": 49,
      "time": 462,
      "duration": 0.5,
      "velocity": 0.71,
      "hand": "left"
    },
    {
      "midi": 54,
      "time": 462,
      "duration": 0.5,
      "velocity": 0.75,
      "hand": "left"
    },
    {
      "midi": 57,
      "time": 462,
      "duration": 0.5,
      "velocity": 0.75,
      "hand": "left"
    },
    {
      "midi": 66,
      "time": 462,
      "duration": 0.5,
      "velocity": 0.75,
      "hand": "right"
    },
    {
      "midi": 44,
      "time": 462.5,
      "duration": 8.5,
      "velocity": 0.84,
      "hand": "left"
    },
    {
      "midi": 49,
      "time": 462.5,
      "duration": 1,
      "velocity": 0.71,
      "hand": "left"
    },
    {
      "midi": 51,
      "time": 462.5,
      "duration": 14,
      "velocity": 0.75,
      "hand": "left"
    },
    {
      "midi": 56,
      "time": 462.5,
      "duration": 14,
      "velocity": 0.75,
      "hand": "left"
    },
    {
      "midi": 63,
      "time": 462.5,
      "duration": 14,
      "velocity": 0.75,
      "hand": "right"
    },
    {
      "midi": 48,
      "time": 463.5,
      "duration": 2,
      "velocity": 0.71,
      "hand": "left"
    },
    {
      "midi": 47,
      "time": 465.5,
      "duration": 1,
      "velocity": 0.71,
      "hand": "left"
    },
    {
      "midi": 48,
      "time": 466.5,
      "duration": 4.5,
      "velocity": 0.71,
      "hand": "left"
    },
    {
      "midi": 36,
      "time": 476.5,
      "duration": 0.5,
      "velocity": 0.71,
      "hand": "left"
    },
    {
      "midi": 43,
      "time": 476.5,
      "duration": 0.5,
      "velocity": 0.71,
      "hand": "left"
    },
    {
      "midi": 48,
      "time": 476.5,
      "duration": 0.5,
      "velocity": 0.71,
      "hand": "left"
    },
    {
      "midi": 51,
      "time": 476.5,
      "duration": 0.5,
      "velocity": 0.49,
      "hand": "left"
    },
    {
      "midi": 55,
      "time": 476.5,
      "duration": 0.5,
      "velocity": 0.49,
      "hand": "left"
    },
    {
      "midi": 60,
      "time": 476.5,
      "duration": 2,
      "velocity": 0.71,
      "hand": "right"
    },
    {
      "midi": 63,
      "time": 478.5,
      "duration": 1,
      "velocity": 0.71,
      "hand": "right"
    },
    {
      "midi": 60,
      "time": 479.5,
      "duration": 1,
      "velocity": 0.71,
      "hand": "right"
    },
    {
      "midi": 44,
      "time": 480.5,
      "duration": 0.5,
      "velocity": 0.71,
      "hand": "left"
    },
    {
      "midi": 48,
      "time": 480.5,
      "duration": 0.5,
      "velocity": 0.71,
      "hand": "left"
    },
    {
      "midi": 53,
      "time": 480.5,
      "duration": 0.5,
      "velocity": 0.49,
      "hand": "left"
    },
    {
      "midi": 60,
      "time": 480.5,
      "duration": 0.5,
      "velocity": 0.49,
      "hand": "right"
    },
    {
      "midi": 65,
      "time": 480.5,
      "duration": 4,
      "velocity": 0.71,
      "hand": "right"
    },
    {
      "midi": 39,
      "time": 484.5,
      "duration": 0.5,
      "velocity": 0.71,
      "hand": "left"
    },
    {
      "midi": 43,
      "time": 484.5,
      "duration": 0.5,
      "velocity": 0.71,
      "hand": "left"
    },
    {
      "midi": 48,
      "time": 484.5,
      "duration": 0.5,
      "velocity": 0.71,
      "hand": "left"
    },
    {
      "midi": 51,
      "time": 484.5,
      "duration": 0.5,
      "velocity": 0.71,
      "hand": "left"
    },
    {
      "midi": 55,
      "time": 484.5,
      "duration": 0.5,
      "velocity": 0.49,
      "hand": "left"
    },
    {
      "midi": 60,
      "time": 484.5,
      "duration": 0.5,
      "velocity": 0.49,
      "hand": "right"
    },
    {
      "midi": 67,
      "time": 484.5,
      "duration": 1.5,
      "velocity": 0.71,
      "hand": "right"
    },
    {
      "midi": 65,
      "time": 486,
      "duration": 0.25,
      "velocity": 0.71,
      "hand": "right"
    },
    {
      "midi": 62,
      "time": 486.25,
      "duration": 0.25,
      "velocity": 0.71,
      "hand": "right"
    },
    {
      "midi": 63,
      "time": 486.25,
      "duration": 0.25,
      "velocity": 0.71,
      "hand": "right"
    },
    {
      "midi": 60,
      "time": 486.5,
      "duration": 1,
      "velocity": 0.71,
      "hand": "right"
    },
    {
      "midi": 60,
      "time": 487.5,
      "duration": 1,
      "velocity": 0.71,
      "hand": "right"
    },
    {
      "midi": 43,
      "time": 488.5,
      "duration": 1,
      "velocity": 0.71,
      "hand": "left"
    },
    {
      "midi": 50,
      "time": 488.5,
      "duration": 1,
      "velocity": 0.71,
      "hand": "left"
    },
    {
      "midi": 55,
      "time": 488.5,
      "duration": 1,
      "velocity": 0.49,
      "hand": "left"
    },
    {
      "midi": 58,
      "time": 488.5,
      "duration": 1,
      "velocity": 0.71,
      "hand": "left"
    },
    {
      "midi": 55,
      "time": 489.5,
      "duration": 3,
      "velocity": 0.71,
      "hand": "left"
    },
    {
      "midi": 39,
      "time": 492.5,
      "duration": 0.5,
      "velocity": 0.71,
      "hand": "left"
    },
    {
      "midi": 48,
      "time": 492.5,
      "duration": 0.5,
      "velocity": 0.71,
      "hand": "left"
    },
    {
      "midi": 55,
      "time": 492.5,
      "duration": 0.5,
      "velocity": 0.49,
      "hand": "left"
    },
    {
      "midi": 60,
      "time": 492.5,
      "duration": 1,
      "velocity": 0.71,
      "hand": "right"
    },
    {
      "midi": 60,
      "time": 493.5,
      "duration": 1,
      "velocity": 0.71,
      "hand": "right"
    },
    {
      "midi": 36,
      "time": 494.5,
      "duration": 0.5,
      "velocity": 0.71,
      "hand": "left"
    },
    {
      "midi": 43,
      "time": 494.5,
      "duration": 0.5,
      "velocity": 0.71,
      "hand": "left"
    },
    {
      "midi": 48,
      "time": 494.5,
      "duration": 0.5,
      "velocity": 0.71,
      "hand": "left"
    },
    {
      "midi": 51,
      "time": 494.5,
      "duration": 0.5,
      "velocity": 0.49,
      "hand": "left"
    },
    {
      "midi": 55,
      "time": 494.5,
      "duration": 0.5,
      "velocity": 0.49,
      "hand": "left"
    },
    {
      "midi": 60,
      "time": 494.5,
      "duration": 0.5,
      "velocity": 0.49,
      "hand": "right"
    },
    {
      "midi": 63,
      "time": 494.5,
      "duration": 1.5,
      "velocity": 0.71,
      "hand": "right"
    },
    {
      "midi": 62,
      "time": 496,
      "duration": 0.25,
      "velocity": 0.71,
      "hand": "right"
    },
    {
      "midi": 60,
      "time": 496.25,
      "duration": 0.25,
      "velocity": 0.71,
      "hand": "right"
    },
    {
      "midi": 38,
      "time": 496.5,
      "duration": 1.5,
      "velocity": 0.71,
      "hand": "left"
    },
    {
      "midi": 46,
      "time": 496.5,
      "duration": 4,
      "velocity": 0.71,
      "hand": "left"
    },
    {
      "midi": 53,
      "time": 496.5,
      "duration": 4,
      "velocity": 0.49,
      "hand": "left"
    },
    {
      "midi": 58,
      "time": 496.5,
      "duration": 4,
      "velocity": 0.71,
      "hand": "left"
    },
    {
      "midi": 39,
      "time": 498,
      "duration": 0.5,
      "velocity": 0.71,
      "hand": "left"
    },
    {
      "midi": 38,
      "time": 498.5,
      "duration": 0.75,
      "velocity": 0.71,
      "hand": "left"
    },
    {
      "midi": 39,
      "time": 499.25,
      "duration": 0.25,
      "velocity": 0.71,
      "hand": "left"
    },
    {
      "midi": 36,
      "time": 499.5,
      "duration": 0.5,
      "velocity": 0.71,
      "hand": "left"
    },
    {
      "midi": 38,
      "time": 499.5,
      "duration": 0.25,
      "velocity": 0.71,
      "hand": "left"
    },
    {
      "midi": 38,
      "time": 500,
      "duration": 0.5,
      "velocity": 0.71,
      "hand": "left"
    },
    {
      "midi": 39,
      "time": 500.5,
      "duration": 3,
      "velocity": 0.71,
      "hand": "left"
    },
    {
      "midi": 48,
      "time": 500.5,
      "duration": 3,
      "velocity": 0.71,
      "hand": "left"
    },
    {
      "midi": 55,
      "time": 500.5,
      "duration": 2,
      "velocity": 0.71,
      "hand": "left"
    },
    {
      "midi": 60,
      "time": 501,
      "duration": 0.5,
      "velocity": 0.71,
      "hand": "right"
    },
    {
      "midi": 59,
      "time": 501.5,
      "duration": 0.5,
      "velocity": 0.71,
      "hand": "left"
    },
    {
      "midi": 60,
      "time": 502,
      "duration": 0.5,
      "velocity": 0.71,
      "hand": "right"
    },
    {
      "midi": 55,
      "time": 502.5,
      "duration": 1,
      "velocity": 0.71,
      "hand": "left"
    },
    {
      "midi": 44,
      "time": 503.5,
      "duration": 1,
      "velocity": 0.71,
      "hand": "left"
    },
    {
      "midi": 48,
      "time": 503.5,
      "duration": 1,
      "velocity": 0.71,
      "hand": "left"
    },
    {
      "midi": 53,
      "time": 503.5,
      "duration": 0.75,
      "velocity": 0.71,
      "hand": "left"
    },
    {
      "midi": 51,
      "time": 504.25,
      "duration": 0.25,
      "velocity": 0.71,
      "hand": "left"
    },
    {
      "midi": 43,
      "time": 504.5,
      "duration": 4,
      "velocity": 0.71,
      "hand": "left"
    },
    {
      "midi": 47,
      "time": 504.5,
      "duration": 2,
      "velocity": 0.71,
      "hand": "left"
    },
    {
      "midi": 50,
      "time": 504.5,
      "duration": 2,
      "velocity": 0.49,
      "hand": "left"
    },
    {
      "midi": 53,
      "time": 504.5,
      "duration": 0.25,
      "velocity": 0.71,
      "hand": "left"
    },
    {
      "midi": 55,
      "time": 504.5,
      "duration": 4,
      "velocity": 0.71,
      "hand": "left"
    },
    {
      "midi": 45,
      "time": 506.5,
      "duration": 1,
      "velocity": 0.71,
      "hand": "left"
    },
    {
      "midi": 48,
      "time": 506.5,
      "duration": 1,
      "velocity": 0.49,
      "hand": "left"
    },
    {
      "midi": 47,
      "time": 507.5,
      "duration": 1,
      "velocity": 0.71,
      "hand": "left"
    },
    {
      "midi": 50,
      "time": 507.5,
      "duration": 1,
      "velocity": 0.49,
      "hand": "left"
    },
    {
      "midi": 39,
      "time": 508.5,
      "duration": 0.5,
      "velocity": 0.71,
      "hand": "left"
    },
    {
      "midi": 48,
      "time": 508.5,
      "duration": 0.5,
      "velocity": 0.71,
      "hand": "left"
    },
    {
      "midi": 51,
      "time": 508.5,
      "duration": 0.5,
      "velocity": 0.71,
      "hand": "left"
    },
    {
      "midi": 55,
      "time": 508.5,
      "duration": 0.5,
      "velocity": 0.49,
      "hand": "left"
    },
    {
      "midi": 60,
      "time": 508.5,
      "duration": 0.5,
      "velocity": 0.49,
      "hand": "right"
    },
    {
      "midi": 67,
      "time": 508.5,
      "duration": 1,
      "velocity": 0.71,
      "hand": "right"
    },
    {
      "midi": 67,
      "time": 509.5,
      "duration": 1,
      "velocity": 0.71,
      "hand": "right"
    },
    {
      "midi": 38,
      "time": 510.5,
      "duration": 0.5,
      "velocity": 0.71,
      "hand": "left"
    },
    {
      "midi": 50,
      "time": 510.5,
      "duration": 0.5,
      "velocity": 0.71,
      "hand": "left"
    },
    {
      "midi": 56,
      "time": 510.5,
      "duration": 0.5,
      "velocity": 0.49,
      "hand": "left"
    },
    {
      "midi": 60,
      "time": 510.5,
      "duration": 0.5,
      "velocity": 0.49,
      "hand": "right"
    },
    {
      "midi": 67,
      "time": 510.5,
      "duration": 1.5,
      "velocity": 0.71,
      "hand": "right"
    },
    {
      "midi": 65,
      "time": 512,
      "duration": 0.25,
      "velocity": 0.71,
      "hand": "right"
    },
    {
      "midi": 63,
      "time": 512.25,
      "duration": 0.25,
      "velocity": 0.71,
      "hand": "right"
    },
    {
      "midi": 62,
      "time": 512.5,
      "duration": 4,
      "velocity": 0.71,
      "hand": "right"
    },
    {
      "midi": 44,
      "time": 513.5,
      "duration": 2,
      "velocity": 0.71,
      "hand": "left"
    },
    {
      "midi": 50,
      "time": 513.5,
      "duration": 3,
      "velocity": 0.71,
      "hand": "left"
    },
    {
      "midi": 53,
      "time": 513.5,
      "duration": 2,
      "velocity": 0.49,
      "hand": "left"
    },
    {
      "midi": 60,
      "time": 513.5,
      "duration": 2,
      "velocity": 0.49,
      "hand": "right"
    },
    {
      "midi": 43,
      "time": 515.5,
      "duration": 1,
      "velocity": 0.71,
      "hand": "left"
    },
    {
      "midi": 55,
      "time": 515.5,
      "duration": 1,
      "velocity": 0.49,
      "hand": "left"
    },
    {
      "midi": 59,
      "time": 515.5,
      "duration": 1,
      "velocity": 0.49,
      "hand": "left"
    },
    {
      "midi": 39,
      "time": 516.5,
      "duration": 0.5,
      "velocity": 0.71,
      "hand": "left"
    },
    {
      "midi": 48,
      "time": 516.5,
      "duration": 0.5,
      "velocity": 0.71,
      "hand": "left"
    },
    {
      "midi": 51,
      "time": 516.5,
      "duration": 0.5,
      "velocity": 0.71,
      "hand": "left"
    },
    {
      "midi": 55,
      "time": 516.5,
      "duration": 0.5,
      "velocity": 0.49,
      "hand": "left"
    },
    {
      "midi": 60,
      "time": 516.5,
      "duration": 0.5,
      "velocity": 0.49,
      "hand": "right"
    },
    {
      "midi": 67,
      "time": 516.5,
      "duration": 1,
      "velocity": 0.71,
      "hand": "right"
    },
    {
      "midi": 67,
      "time": 517.5,
      "duration": 1,
      "velocity": 0.71,
      "hand": "right"
    },
    {
      "midi": 38,
      "time": 518.5,
      "duration": 0.5,
      "velocity": 0.71,
      "hand": "left"
    },
    {
      "midi": 50,
      "time": 518.5,
      "duration": 0.5,
      "velocity": 0.71,
      "hand": "left"
    },
    {
      "midi": 56,
      "time": 518.5,
      "duration": 0.5,
      "velocity": 0.49,
      "hand": "left"
    },
    {
      "midi": 60,
      "time": 518.5,
      "duration": 0.5,
      "velocity": 0.49,
      "hand": "right"
    },
    {
      "midi": 67,
      "time": 518.5,
      "duration": 1.5,
      "velocity": 0.71,
      "hand": "right"
    },
    {
      "midi": 65,
      "time": 520,
      "duration": 0.25,
      "velocity": 0.71,
      "hand": "right"
    },
    {
      "midi": 63,
      "time": 520.25,
      "duration": 0.25,
      "velocity": 0.71,
      "hand": "right"
    },
    {
      "midi": 62,
      "time": 520.5,
      "duration": 4,
      "velocity": 0.71,
      "hand": "right"
    },
    {
      "midi": 44,
      "time": 521.5,
      "duration": 2,
      "velocity": 0.71,
      "hand": "left"
    },
    {
      "midi": 50,
      "time": 521.5,
      "duration": 3,
      "velocity": 0.71,
      "hand": "left"
    },
    {
      "midi": 53,
      "time": 521.5,
      "duration": 2,
      "velocity": 0.49,
      "hand": "left"
    },
    {
      "midi": 60,
      "time": 521.5,
      "duration": 2,
      "velocity": 0.49,
      "hand": "right"
    },
    {
      "midi": 43,
      "time": 523.5,
      "duration": 1,
      "velocity": 0.71,
      "hand": "left"
    },
    {
      "midi": 55,
      "time": 523.5,
      "duration": 1,
      "velocity": 0.49,
      "hand": "left"
    },
    {
      "midi": 59,
      "time": 523.5,
      "duration": 1,
      "velocity": 0.49,
      "hand": "left"
    },
    {
      "midi": 60,
      "time": 524.5,
      "duration": 1,
      "velocity": 0.71,
      "hand": "right"
    },
    {
      "midi": 39,
      "time": 525.5,
      "duration": 0.5,
      "velocity": 0.71,
      "hand": "left"
    },
    {
      "midi": 48,
      "time": 525.5,
      "duration": 0.5,
      "velocity": 0.71,
      "hand": "left"
    },
    {
      "midi": 55,
      "time": 525.5,
      "duration": 0.5,
      "velocity": 0.49,
      "hand": "left"
    },
    {
      "midi": 60,
      "time": 525.5,
      "duration": 0.5,
      "velocity": 0.71,
      "hand": "right"
    },
    {
      "midi": 62,
      "time": 526,
      "duration": 0.5,
      "velocity": 0.71,
      "hand": "right"
    },
    {
      "midi": 65,
      "time": 526.5,
      "duration": 0.5,
      "velocity": 0.71,
      "hand": "right"
    },
    {
      "midi": 63,
      "time": 527,
      "duration": 0.5,
      "velocity": 0.71,
      "hand": "right"
    },
    {
      "midi": 36,
      "time": 527.5,
      "duration": 0.5,
      "velocity": 0.71,
      "hand": "left"
    },
    {
      "midi": 43,
      "time": 527.5,
      "duration": 0.5,
      "velocity": 0.71,
      "hand": "left"
    },
    {
      "midi": 48,
      "time": 527.5,
      "duration": 0.5,
      "velocity": 0.71,
      "hand": "left"
    },
    {
      "midi": 51,
      "time": 527.5,
      "duration": 0.5,
      "velocity": 0.49,
      "hand": "left"
    },
    {
      "midi": 55,
      "time": 527.5,
      "duration": 0.5,
      "velocity": 0.49,
      "hand": "left"
    },
    {
      "midi": 62,
      "time": 527.5,
      "duration": 0.5,
      "velocity": 0.71,
      "hand": "right"
    },
    {
      "midi": 60,
      "time": 528,
      "duration": 0.5,
      "velocity": 0.71,
      "hand": "right"
    },
    {
      "midi": 63,
      "time": 528.5,
      "duration": 3,
      "velocity": 0.71,
      "hand": "right"
    },
    {
      "midi": 43,
      "time": 529.5,
      "duration": 2,
      "velocity": 0.71,
      "hand": "left"
    },
    {
      "midi": 46,
      "time": 529.5,
      "duration": 2,
      "velocity": 0.71,
      "hand": "left"
    },
    {
      "midi": 51,
      "time": 529.5,
      "duration": 2,
      "velocity": 0.54,
      "hand": "left"
    },
    {
      "midi": 58,
      "time": 529.5,
      "duration": 2,
      "velocity": 0.54,
      "hand": "left"
    },
    {
      "midi": 31,
      "time": 531.5,
      "duration": 0.5,
      "velocity": 0.71,
      "hand": "left"
    },
    {
      "midi": 43,
      "time": 531.5,
      "duration": 0.5,
      "velocity": 0.71,
      "hand": "left"
    },
    {
      "midi": 51,
      "time": 531.5,
      "duration": 0.5,
      "velocity": 0.54,
      "hand": "left"
    },
    {
      "midi": 58,
      "time": 531.5,
      "duration": 0.5,
      "velocity": 0.54,
      "hand": "left"
    },
    {
      "midi": 63,
      "time": 531.5,
      "duration": 1,
      "velocity": 0.71,
      "hand": "right"
    },
    {
      "midi": 34,
      "time": 532.5,
      "duration": 0.5,
      "velocity": 0.71,
      "hand": "left"
    },
    {
      "midi": 46,
      "time": 532.5,
      "duration": 0.5,
      "velocity": 0.71,
      "hand": "left"
    },
    {
      "midi": 53,
      "time": 532.5,
      "duration": 0.5,
      "velocity": 0.54,
      "hand": "left"
    },
    {
      "midi": 58,
      "time": 532.5,
      "duration": 0.5,
      "velocity": 0.54,
      "hand": "left"
    },
    {
      "midi": 62,
      "time": 532.5,
      "duration": 1,
      "velocity": 0.71,
      "hand": "right"
    },
    {
      "midi": 36,
      "time": 533.5,
      "duration": 0.5,
      "velocity": 0.71,
      "hand": "left"
    },
    {
      "midi": 48,
      "time": 533.5,
      "duration": 0.5,
      "velocity": 0.71,
      "hand": "left"
    },
    {
      "midi": 51,
      "time": 533.5,
      "duration": 0.5,
      "velocity": 0.54,
      "hand": "left"
    },
    {
      "midi": 55,
      "time": 533.5,
      "duration": 0.5,
      "velocity": 0.54,
      "hand": "left"
    },
    {
      "midi": 60,
      "time": 533.5,
      "duration": 1,
      "velocity": 0.71,
      "hand": "right"
    },
    {
      "midi": 43,
      "time": 534.5,
      "duration": 0.5,
      "velocity": 0.71,
      "hand": "left"
    },
    {
      "midi": 47,
      "time": 534.5,
      "duration": 0.5,
      "velocity": 0.71,
      "hand": "left"
    },
    {
      "midi": 50,
      "time": 534.5,
      "duration": 0.5,
      "velocity": 0.54,
      "hand": "left"
    },
    {
      "midi": 55,
      "time": 534.5,
      "duration": 1,
      "velocity": 0.71,
      "hand": "left"
    },
    {
      "midi": 36,
      "time": 535.5,
      "duration": 0.5,
      "velocity": 0.71,
      "hand": "left"
    },
    {
      "midi": 43,
      "time": 535.5,
      "duration": 0.5,
      "velocity": 0.71,
      "hand": "left"
    },
    {
      "midi": 48,
      "time": 535.5,
      "duration": 0.5,
      "velocity": 0.71,
      "hand": "left"
    },
    {
      "midi": 51,
      "time": 535.5,
      "duration": 0.5,
      "velocity": 0.54,
      "hand": "left"
    },
    {
      "midi": 55,
      "time": 535.5,
      "duration": 0.5,
      "velocity": 0.54,
      "hand": "left"
    },
    {
      "midi": 60,
      "time": 535.5,
      "duration": 0.75,
      "velocity": 0.71,
      "hand": "right"
    },
    {
      "midi": 62,
      "time": 536.25,
      "duration": 0.25,
      "velocity": 0.71,
      "hand": "right"
    },
    {
      "midi": 43,
      "time": 536.5,
      "duration": 3,
      "velocity": 0.71,
      "hand": "left"
    },
    {
      "midi": 47,
      "time": 536.5,
      "duration": 3,
      "velocity": 0.71,
      "hand": "left"
    },
    {
      "midi": 50,
      "time": 536.5,
      "duration": 3,
      "velocity": 0.54,
      "hand": "left"
    },
    {
      "midi": 55,
      "time": 536.5,
      "duration": 3,
      "velocity": 0.71,
      "hand": "left"
    },
    {
      "midi": 60,
      "time": 536.5,
      "duration": 0.25,
      "velocity": 0.71,
      "hand": "right"
    },
    {
      "midi": 43,
      "time": 539.5,
      "duration": 0.5,
      "velocity": 0.71,
      "hand": "left"
    },
    {
      "midi": 46,
      "time": 539.5,
      "duration": 0.5,
      "velocity": 0.71,
      "hand": "left"
    },
    {
      "midi": 51,
      "time": 539.5,
      "duration": 0.5,
      "velocity": 0.49,
      "hand": "left"
    },
    {
      "midi": 58,
      "time": 539.5,
      "duration": 0.5,
      "velocity": 0.49,
      "hand": "left"
    },
    {
      "midi": 63,
      "time": 539.5,
      "duration": 1,
      "velocity": 0.71,
      "hand": "right"
    },
    {
      "midi": 34,
      "time": 540.5,
      "duration": 0.5,
      "velocity": 0.71,
      "hand": "left"
    },
    {
      "midi": 46,
      "time": 540.5,
      "duration": 0.5,
      "velocity": 0.71,
      "hand": "left"
    },
    {
      "midi": 53,
      "time": 540.5,
      "duration": 0.5,
      "velocity": 0.49,
      "hand": "left"
    },
    {
      "midi": 58,
      "time": 540.5,
      "duration": 0.5,
      "velocity": 0.49,
      "hand": "left"
    },
    {
      "midi": 62,
      "time": 540.5,
      "duration": 1,
      "velocity": 0.71,
      "hand": "right"
    },
    {
      "midi": 36,
      "time": 541.5,
      "duration": 0.5,
      "velocity": 0.71,
      "hand": "left"
    },
    {
      "midi": 48,
      "time": 541.5,
      "duration": 0.5,
      "velocity": 0.71,
      "hand": "left"
    },
    {
      "midi": 51,
      "time": 541.5,
      "duration": 0.5,
      "velocity": 0.49,
      "hand": "left"
    },
    {
      "midi": 55,
      "time": 541.5,
      "duration": 0.5,
      "velocity": 0.49,
      "hand": "left"
    },
    {
      "midi": 60,
      "time": 541.5,
      "duration": 1,
      "velocity": 0.71,
      "hand": "right"
    },
    {
      "midi": 43,
      "time": 542.5,
      "duration": 0.5,
      "velocity": 0.71,
      "hand": "left"
    },
    {
      "midi": 47,
      "time": 542.5,
      "duration": 0.5,
      "velocity": 0.71,
      "hand": "left"
    },
    {
      "midi": 50,
      "time": 542.5,
      "duration": 0.5,
      "velocity": 0.49,
      "hand": "left"
    },
    {
      "midi": 55,
      "time": 542.5,
      "duration": 1,
      "velocity": 0.71,
      "hand": "left"
    },
    {
      "midi": 36,
      "time": 543.5,
      "duration": 0.5,
      "velocity": 0.71,
      "hand": "left"
    },
    {
      "midi": 43,
      "time": 543.5,
      "duration": 0.5,
      "velocity": 0.71,
      "hand": "left"
    },
    {
      "midi": 48,
      "time": 543.5,
      "duration": 0.5,
      "velocity": 0.71,
      "hand": "left"
    },
    {
      "midi": 51,
      "time": 543.5,
      "duration": 0.5,
      "velocity": 0.49,
      "hand": "left"
    },
    {
      "midi": 55,
      "time": 543.5,
      "duration": 0.5,
      "velocity": 0.49,
      "hand": "left"
    },
    {
      "midi": 60,
      "time": 543.5,
      "duration": 0.75,
      "velocity": 0.71,
      "hand": "right"
    },
    {
      "midi": 62,
      "time": 544.25,
      "duration": 0.25,
      "velocity": 0.71,
      "hand": "right"
    },
    {
      "midi": 43,
      "time": 544.5,
      "duration": 3,
      "velocity": 0.71,
      "hand": "left"
    },
    {
      "midi": 47,
      "time": 544.5,
      "duration": 3,
      "velocity": 0.71,
      "hand": "left"
    },
    {
      "midi": 50,
      "time": 544.5,
      "duration": 3,
      "velocity": 0.49,
      "hand": "left"
    },
    {
      "midi": 55,
      "time": 544.5,
      "duration": 3,
      "velocity": 0.49,
      "hand": "left"
    },
    {
      "midi": 60,
      "time": 544.5,
      "duration": 0.25,
      "velocity": 0.71,
      "hand": "right"
    },
    {
      "midi": 36,
      "time": 547.5,
      "duration": 1,
      "velocity": 0.71,
      "hand": "left"
    },
    {
      "midi": 43,
      "time": 547.5,
      "duration": 1,
      "velocity": 0.71,
      "hand": "left"
    },
    {
      "midi": 48,
      "time": 547.5,
      "duration": 1,
      "velocity": 0.71,
      "hand": "left"
    },
    {
      "midi": 51,
      "time": 547.5,
      "duration": 1,
      "velocity": 0.49,
      "hand": "left"
    },
    {
      "midi": 55,
      "time": 547.5,
      "duration": 1,
      "velocity": 0.49,
      "hand": "left"
    },
    {
      "midi": 60,
      "time": 547.5,
      "duration": 1,
      "velocity": 0.49,
      "hand": "right"
    },
    {
      "midi": 43,
      "time": 548.5,
      "duration": 3,
      "velocity": 0.71,
      "hand": "left"
    },
    {
      "midi": 47,
      "time": 548.5,
      "duration": 3,
      "velocity": 0.71,
      "hand": "left"
    },
    {
      "midi": 50,
      "time": 548.5,
      "duration": 3,
      "velocity": 0.49,
      "hand": "left"
    },
    {
      "midi": 55,
      "time": 548.5,
      "duration": 3,
      "velocity": 0.49,
      "hand": "left"
    },
    {
      "midi": 36,
      "time": 551.5,
      "duration": 1,
      "velocity": 0.71,
      "hand": "left"
    },
    {
      "midi": 43,
      "time": 551.5,
      "duration": 1,
      "velocity": 0.71,
      "hand": "left"
    },
    {
      "midi": 48,
      "time": 551.5,
      "duration": 1,
      "velocity": 0.71,
      "hand": "left"
    },
    {
      "midi": 51,
      "time": 551.5,
      "duration": 1,
      "velocity": 0.49,
      "hand": "left"
    },
    {
      "midi": 55,
      "time": 551.5,
      "duration": 1,
      "velocity": 0.49,
      "hand": "left"
    },
    {
      "midi": 60,
      "time": 551.5,
      "duration": 1,
      "velocity": 0.49,
      "hand": "right"
    },
    {
      "midi": 43,
      "time": 552.5,
      "duration": 1,
      "velocity": 0.71,
      "hand": "left"
    },
    {
      "midi": 47,
      "time": 552.5,
      "duration": 1,
      "velocity": 0.71,
      "hand": "left"
    },
    {
      "midi": 50,
      "time": 552.5,
      "duration": 1,
      "velocity": 0.49,
      "hand": "left"
    },
    {
      "midi": 55,
      "time": 552.5,
      "duration": 1,
      "velocity": 0.49,
      "hand": "left"
    },
    {
      "midi": 36,
      "time": 553.5,
      "duration": 1,
      "velocity": 0.71,
      "hand": "left"
    },
    {
      "midi": 43,
      "time": 553.5,
      "duration": 1,
      "velocity": 0.71,
      "hand": "left"
    },
    {
      "midi": 48,
      "time": 553.5,
      "duration": 1,
      "velocity": 0.71,
      "hand": "left"
    },
    {
      "midi": 51,
      "time": 553.5,
      "duration": 1,
      "velocity": 0.49,
      "hand": "left"
    },
    {
      "midi": 55,
      "time": 553.5,
      "duration": 1,
      "velocity": 0.49,
      "hand": "left"
    },
    {
      "midi": 60,
      "time": 553.5,
      "duration": 1,
      "velocity": 0.49,
      "hand": "right"
    },
    {
      "midi": 43,
      "time": 554.5,
      "duration": 1,
      "velocity": 0.71,
      "hand": "left"
    },
    {
      "midi": 47,
      "time": 554.5,
      "duration": 1,
      "velocity": 0.71,
      "hand": "left"
    },
    {
      "midi": 50,
      "time": 554.5,
      "duration": 1,
      "velocity": 0.49,
      "hand": "left"
    },
    {
      "midi": 55,
      "time": 554.5,
      "duration": 1,
      "velocity": 0.49,
      "hand": "left"
    },
    {
      "midi": 36,
      "time": 555.5,
      "duration": 1,
      "velocity": 0.71,
      "hand": "left"
    },
    {
      "midi": 43,
      "time": 555.5,
      "duration": 1,
      "velocity": 0.71,
      "hand": "left"
    },
    {
      "midi": 48,
      "time": 555.5,
      "duration": 1,
      "velocity": 0.71,
      "hand": "left"
    },
    {
      "midi": 51,
      "time": 555.5,
      "duration": 1,
      "velocity": 0.49,
      "hand": "left"
    },
    {
      "midi": 55,
      "time": 555.5,
      "duration": 1,
      "velocity": 0.49,
      "hand": "left"
    },
    {
      "midi": 60,
      "time": 555.5,
      "duration": 1,
      "velocity": 0.49,
      "hand": "right"
    },
    {
      "midi": 43,
      "time": 556.5,
      "duration": 4,
      "velocity": 0.71,
      "hand": "left"
    },
    {
      "midi": 47,
      "time": 556.5,
      "duration": 4,
      "velocity": 0.71,
      "hand": "left"
    },
    {
      "midi": 50,
      "time": 556.5,
      "duration": 4,
      "velocity": 0.49,
      "hand": "left"
    },
    {
      "midi": 55,
      "time": 556.5,
      "duration": 4,
      "velocity": 0.49,
      "hand": "left"
    },
    {
      "midi": 36,
      "time": 560.5,
      "duration": 8,
      "velocity": 0.71,
      "hand": "left"
    },
    {
      "midi": 43,
      "time": 560.5,
      "duration": 8,
      "velocity": 0.71,
      "hand": "left"
    },
    {
      "midi": 48,
      "time": 560.5,
      "duration": 8,
      "velocity": 0.71,
      "hand": "left"
    },
    {
      "midi": 51,
      "time": 560.5,
      "duration": 8,
      "velocity": 0.49,
      "hand": "left"
    },
    {
      "midi": 55,
      "time": 560.5,
      "duration": 8,
      "velocity": 0.49,
      "hand": "left"
    },
    {
      "midi": 48,
      "time": 568.5,
      "duration": 0.5,
      "velocity": 0.71,
      "hand": "left"
    },
    {
      "midi": 51,
      "time": 568.5,
      "duration": 0.5,
      "velocity": 0.71,
      "hand": "left"
    },
    {
      "midi": 55,
      "time": 568.5,
      "duration": 0.5,
      "velocity": 0.71,
      "hand": "left"
    },
    {
      "midi": 60,
      "time": 568.5,
      "duration": 0.5,
      "velocity": 0.71,
      "hand": "right"
    },
    {
      "midi": 72,
      "time": 568.5,
      "duration": 0.5,
      "velocity": 0.8,
      "hand": "right"
    },
    {
      "midi": 75,
      "time": 568.5,
      "duration": 0.5,
      "velocity": 0.8,
      "hand": "right"
    },
    {
      "midi": 79,
      "time": 568.5,
      "duration": 0.5,
      "velocity": 0.8,
      "hand": "right"
    },
    {
      "midi": 84,
      "time": 568.5,
      "duration": 0.5,
      "velocity": 0.8,
      "hand": "right"
    },
    {
      "midi": 36,
      "time": 569,
      "duration": 0.5,
      "velocity": 0.71,
      "hand": "left"
    },
    {
      "midi": 48,
      "time": 569,
      "duration": 0.5,
      "velocity": 0.71,
      "hand": "left"
    },
    {
      "midi": 60,
      "time": 569,
      "duration": 0.5,
      "velocity": 0.8,
      "hand": "right"
    },
    {
      "midi": 36,
      "time": 572.5,
      "duration": 0.5,
      "velocity": 0.71,
      "hand": "left"
    },
    {
      "midi": 43,
      "time": 572.5,
      "duration": 0.5,
      "velocity": 0.71,
      "hand": "left"
    },
    {
      "midi": 48,
      "time": 572.5,
      "duration": 0.5,
      "velocity": 0.71,
      "hand": "left"
    },
    {
      "midi": 51,
      "time": 572.5,
      "duration": 0.5,
      "velocity": 0.8,
      "hand": "left"
    },
    {
      "midi": 55,
      "time": 572.5,
      "duration": 0.5,
      "velocity": 0.8,
      "hand": "left"
    },
    {
      "midi": 60,
      "time": 572.5,
      "duration": 0.5,
      "velocity": 0.8,
      "hand": "right"
    }
  ],
  "arrangements": {
    "easy": [
      {
        "midi": 72,
        "time": 0,
        "duration": 2,
        "velocity": 0.71,
        "hand": "right"
      },
      {
        "midi": 75,
        "time": 2,
        "duration": 1,
        "velocity": 0.71,
        "hand": "right"
      },
      {
        "midi": 72,
        "time": 3,
        "duration": 1,
        "velocity": 0.71,
        "hand": "right"
      },
      {
        "midi": 77,
        "time": 4,
        "duration": 4,
        "velocity": 0.71,
        "hand": "right"
      },
      {
        "midi": 62,
        "time": 5.5,
        "duration": 0.5,
        "velocity": 0.82,
        "hand": "right"
      },
      {
        "midi": 60,
        "time": 6,
        "duration": 1,
        "velocity": 0.86,
        "hand": "right"
      },
      {
        "midi": 62,
        "time": 7,
        "duration": 1,
        "velocity": 0.93,
        "hand": "right"
      },
      {
        "midi": 79,
        "time": 8,
        "duration": 1.5,
        "velocity": 0.71,
        "hand": "right"
      },
      {
        "midi": 77,
        "time": 9.5,
        "duration": 0.5,
        "velocity": 0.71,
        "hand": "right"
      },
      {
        "midi": 72,
        "time": 10,
        "duration": 1,
        "velocity": 0.71,
        "hand": "right"
      },
      {
        "midi": 72,
        "time": 11,
        "duration": 1,
        "velocity": 0.71,
        "hand": "right"
      },
      {
        "midi": 70,
        "time": 12,
        "duration": 1,
        "velocity": 0.71,
        "hand": "right"
      },
      {
        "midi": 67,
        "time": 13,
        "duration": 3,
        "velocity": 0.71,
        "hand": "right"
      },
      {
        "midi": 72,
        "time": 16,
        "duration": 1,
        "velocity": 0.71,
        "hand": "right"
      },
      {
        "midi": 72,
        "time": 17,
        "duration": 1,
        "velocity": 0.71,
        "hand": "right"
      },
      {
        "midi": 75,
        "time": 18,
        "duration": 1.5,
        "velocity": 0.71,
        "hand": "right"
      },
      {
        "midi": 74,
        "time": 19.5,
        "duration": 0.5,
        "velocity": 0.71,
        "hand": "right"
      },
      {
        "midi": 70,
        "time": 20,
        "duration": 4,
        "velocity": 0.71,
        "hand": "right"
      },
      {
        "midi": 67,
        "time": 24,
        "duration": 2,
        "velocity": 0.71,
        "hand": "right"
      },
      {
        "midi": 72,
        "time": 24.5,
        "duration": 0.5,
        "velocity": 0.71,
        "hand": "right"
      },
      {
        "midi": 71,
        "time": 25,
        "duration": 0.5,
        "velocity": 0.71,
        "hand": "right"
      },
      {
        "midi": 72,
        "time": 25.5,
        "duration": 0.5,
        "velocity": 0.71,
        "hand": "right"
      },
      {
        "midi": 67,
        "time": 26,
        "duration": 1,
        "velocity": 0.71,
        "hand": "right"
      },
      {
        "midi": 65,
        "time": 27,
        "duration": 0.75,
        "velocity": 0.71,
        "hand": "right"
      },
      {
        "midi": 63,
        "time": 27.75,
        "duration": 0.5,
        "velocity": 0.71,
        "hand": "right"
      },
      {
        "midi": 63,
        "time": 30,
        "duration": 1,
        "velocity": 0.86,
        "hand": "right"
      },
      {
        "midi": 65,
        "time": 31,
        "duration": 1,
        "velocity": 0.93,
        "hand": "right"
      },
      {
        "midi": 79,
        "time": 32,
        "duration": 1,
        "velocity": 0.71,
        "hand": "right"
      },
      {
        "midi": 79,
        "time": 33,
        "duration": 1,
        "velocity": 0.71,
        "hand": "right"
      },
      {
        "midi": 79,
        "time": 34,
        "duration": 1.5,
        "velocity": 0.71,
        "hand": "right"
      },
      {
        "midi": 77,
        "time": 35.5,
        "duration": 0.5,
        "velocity": 0.71,
        "hand": "right"
      },
      {
        "midi": 74,
        "time": 36,
        "duration": 4,
        "velocity": 0.71,
        "hand": "right"
      },
      {
        "midi": 72,
        "time": 37,
        "duration": 2,
        "velocity": 0.93,
        "hand": "right"
      },
      {
        "midi": 71,
        "time": 39,
        "duration": 1,
        "velocity": 0.93,
        "hand": "right"
      },
      {
        "midi": 79,
        "time": 40,
        "duration": 1,
        "velocity": 0.71,
        "hand": "right"
      },
      {
        "midi": 79,
        "time": 41,
        "duration": 1,
        "velocity": 0.71,
        "hand": "right"
      },
      {
        "midi": 79,
        "time": 42,
        "duration": 1.5,
        "velocity": 0.71,
        "hand": "right"
      },
      {
        "midi": 77,
        "time": 43.5,
        "duration": 0.5,
        "velocity": 0.71,
        "hand": "right"
      },
      {
        "midi": 74,
        "time": 44,
        "duration": 4,
        "velocity": 0.71,
        "hand": "right"
      },
      {
        "midi": 72,
        "time": 45,
        "duration": 2,
        "velocity": 0.93,
        "hand": "right"
      },
      {
        "midi": 71,
        "time": 47,
        "duration": 1,
        "velocity": 0.93,
        "hand": "right"
      },
      {
        "midi": 72,
        "time": 48,
        "duration": 1,
        "velocity": 0.71,
        "hand": "right"
      },
      {
        "midi": 72,
        "time": 49,
        "duration": 0.5,
        "velocity": 0.71,
        "hand": "right"
      },
      {
        "midi": 74,
        "time": 49.5,
        "duration": 0.5,
        "velocity": 0.71,
        "hand": "right"
      },
      {
        "midi": 77,
        "time": 50,
        "duration": 0.5,
        "velocity": 0.71,
        "hand": "right"
      },
      {
        "midi": 75,
        "time": 50.5,
        "duration": 0.5,
        "velocity": 0.71,
        "hand": "right"
      },
      {
        "midi": 74,
        "time": 51,
        "duration": 0.5,
        "velocity": 0.71,
        "hand": "right"
      },
      {
        "midi": 72,
        "time": 51.5,
        "duration": 0.5,
        "velocity": 0.71,
        "hand": "right"
      },
      {
        "midi": 75,
        "time": 52,
        "duration": 3,
        "velocity": 0.71,
        "hand": "right"
      },
      {
        "midi": 70,
        "time": 54,
        "duration": 1,
        "velocity": 0.93,
        "hand": "right"
      },
      {
        "midi": 75,
        "time": 55,
        "duration": 1,
        "velocity": 0.71,
        "hand": "right"
      },
      {
        "midi": 74,
        "time": 56,
        "duration": 1,
        "velocity": 0.71,
        "hand": "right"
      },
      {
        "midi": 72,
        "time": 57,
        "duration": 1,
        "velocity": 0.71,
        "hand": "right"
      },
      {
        "midi": 67,
        "time": 58,
        "duration": 1,
        "velocity": 0.71,
        "hand": "right"
      },
      {
        "midi": 72,
        "time": 59,
        "duration": 0.75,
        "velocity": 0.71,
        "hand": "right"
      },
      {
        "midi": 74,
        "time": 59.75,
        "duration": 0.5,
        "velocity": 0.71,
        "hand": "right"
      },
      {
        "midi": 68,
        "time": 63,
        "duration": 2.5,
        "velocity": 0.71,
        "hand": "right"
      },
      {
        "midi": 71,
        "time": 65.5,
        "duration": 0.5,
        "velocity": 0.71,
        "hand": "right"
      },
      {
        "midi": 72,
        "time": 66,
        "duration": 0.5,
        "velocity": 0.71,
        "hand": "right"
      },
      {
        "midi": 74,
        "time": 66.5,
        "duration": 0.5,
        "velocity": 0.71,
        "hand": "right"
      },
      {
        "midi": 75,
        "time": 67,
        "duration": 0.5,
        "velocity": 0.71,
        "hand": "right"
      },
      {
        "midi": 76,
        "time": 67.5,
        "duration": 0.5,
        "velocity": 0.71,
        "hand": "right"
      },
      {
        "midi": 77,
        "time": 68,
        "duration": 0.5,
        "velocity": 0.71,
        "hand": "right"
      },
      {
        "midi": 79,
        "time": 68.5,
        "duration": 0.5,
        "velocity": 0.71,
        "hand": "right"
      },
      {
        "midi": 82,
        "time": 69,
        "duration": 1.5,
        "velocity": 0.71,
        "hand": "right"
      },
      {
        "midi": 74,
        "time": 70,
        "duration": 12.5,
        "velocity": 0.93,
        "hand": "right"
      },
      {
        "midi": 80,
        "time": 70.5,
        "duration": 0.5,
        "velocity": 0.61,
        "hand": "right"
      },
      {
        "midi": 79,
        "time": 71,
        "duration": 0.5,
        "velocity": 0.61,
        "hand": "right"
      },
      {
        "midi": 77,
        "time": 71.5,
        "duration": 0.5,
        "velocity": 0.61,
        "hand": "right"
      },
      {
        "midi": 82,
        "time": 72,
        "duration": 0.5,
        "velocity": 0.61,
        "hand": "right"
      },
      {
        "midi": 80,
        "time": 72.5,
        "duration": 0.5,
        "velocity": 0.57,
        "hand": "right"
      },
      {
        "midi": 79,
        "time": 73,
        "duration": 0.5,
        "velocity": 0.54,
        "hand": "right"
      },
      {
        "midi": 77,
        "time": 73.5,
        "duration": 0.5,
        "velocity": 0.51,
        "hand": "right"
      },
      {
        "midi": 82,
        "time": 74,
        "duration": 0.5,
        "velocity": 0.48,
        "hand": "right"
      },
      {
        "midi": 80,
        "time": 74.5,
        "duration": 0.5,
        "velocity": 0.45,
        "hand": "right"
      },
      {
        "midi": 79,
        "time": 75,
        "duration": 0.5,
        "velocity": 0.41,
        "hand": "right"
      },
      {
        "midi": 77,
        "time": 75.5,
        "duration": 1,
        "velocity": 0.38,
        "hand": "right"
      },
      {
        "midi": 84,
        "time": 76.5,
        "duration": 0.5,
        "velocity": 0.54,
        "hand": "right"
      },
      {
        "midi": 83,
        "time": 77,
        "duration": 0.5,
        "velocity": 0.54,
        "hand": "right"
      },
      {
        "midi": 84,
        "time": 77.5,
        "duration": 0.5,
        "velocity": 0.54,
        "hand": "right"
      },
      {
        "midi": 82,
        "time": 78,
        "duration": 0.5,
        "velocity": 0.54,
        "hand": "right"
      },
      {
        "midi": 80,
        "time": 78.5,
        "duration": 0.5,
        "velocity": 0.54,
        "hand": "right"
      },
      {
        "midi": 79,
        "time": 79,
        "duration": 0.5,
        "velocity": 0.54,
        "hand": "right"
      },
      {
        "midi": 77,
        "time": 79.5,
        "duration": 1,
        "velocity": 0.54,
        "hand": "right"
      },
      {
        "midi": 84,
        "time": 80.5,
        "duration": 0.5,
        "velocity": 0.54,
        "hand": "right"
      },
      {
        "midi": 83,
        "time": 81,
        "duration": 0.5,
        "velocity": 0.54,
        "hand": "right"
      },
      {
        "midi": 84,
        "time": 81.5,
        "duration": 0.5,
        "velocity": 0.54,
        "hand": "right"
      },
      {
        "midi": 82,
        "time": 82,
        "duration": 0.5,
        "velocity": 0.54,
        "hand": "right"
      },
      {
        "midi": 80,
        "time": 82.5,
        "duration": 0.5,
        "velocity": 0.54,
        "hand": "right"
      },
      {
        "midi": 79,
        "time": 83,
        "duration": 0.5,
        "velocity": 0.54,
        "hand": "right"
      },
      {
        "midi": 77,
        "time": 83.5,
        "duration": 0.75,
        "velocity": 0.54,
        "hand": "right"
      },
      {
        "midi": 84,
        "time": 84.25,
        "duration": 0.5,
        "velocity": 0.53,
        "hand": "right"
      },
      {
        "midi": 80,
        "time": 85.25,
        "duration": 0.5,
        "velocity": 0.47,
        "hand": "right"
      },
      {
        "midi": 77,
        "time": 85.75,
        "duration": 0.5,
        "velocity": 0.44,
        "hand": "right"
      },
      {
        "midi": 84,
        "time": 86.25,
        "duration": 0.5,
        "velocity": 0.41,
        "hand": "right"
      },
      {
        "midi": 80,
        "time": 87.25,
        "duration": 0.5,
        "velocity": 0.35,
        "hand": "right"
      },
      {
        "midi": 77,
        "time": 87.75,
        "duration": 0.5,
        "velocity": 0.32,
        "hand": "right"
      },
      {
        "midi": 84,
        "time": 88.25,
        "duration": 0.5,
        "velocity": 0.49,
        "hand": "right"
      },
      {
        "midi": 80,
        "time": 89.25,
        "duration": 0.5,
        "velocity": 0.49,
        "hand": "right"
      },
      {
        "midi": 77,
        "time": 89.75,
        "duration": 0.5,
        "velocity": 0.49,
        "hand": "right"
      },
      {
        "midi": 84,
        "time": 90.25,
        "duration": 0.5,
        "velocity": 0.49,
        "hand": "right"
      },
      {
        "midi": 79,
        "time": 91.25,
        "duration": 0.5,
        "velocity": 0.49,
        "hand": "right"
      },
      {
        "midi": 75,
        "time": 91.75,
        "duration": 0.5,
        "velocity": 0.49,
        "hand": "right"
      },
      {
        "midi": 84,
        "time": 92.25,
        "duration": 0.5,
        "velocity": 0.49,
        "hand": "right"
      },
      {
        "midi": 77,
        "time": 93.25,
        "duration": 0.5,
        "velocity": 0.49,
        "hand": "right"
      },
      {
        "midi": 74,
        "time": 93.75,
        "duration": 0.5,
        "velocity": 0.49,
        "hand": "right"
      },
      {
        "midi": 84,
        "time": 94.25,
        "duration": 0.5,
        "velocity": 0.49,
        "hand": "right"
      },
      {
        "midi": 77,
        "time": 95.25,
        "duration": 0.5,
        "velocity": 0.49,
        "hand": "right"
      },
      {
        "midi": 74,
        "time": 95.75,
        "duration": 0.5,
        "velocity": 0.49,
        "hand": "right"
      },
      {
        "midi": 84,
        "time": 96.25,
        "duration": 0.5,
        "velocity": 0.49,
        "hand": "right"
      },
      {
        "midi": 77,
        "time": 97.25,
        "duration": 0.5,
        "velocity": 0.49,
        "hand": "right"
      },
      {
        "midi": 74,
        "time": 97.75,
        "duration": 0.5,
        "velocity": 0.49,
        "hand": "right"
      },
      {
        "midi": 84,
        "time": 98.25,
        "duration": 0.5,
        "velocity": 0.5,
        "hand": "right"
      },
      {
        "midi": 75,
        "time": 99.25,
        "duration": 0.5,
        "velocity": 0.56,
        "hand": "right"
      },
      {
        "midi": 84,
        "time": 100.25,
        "duration": 0.5,
        "velocity": 0.62,
        "hand": "right"
      },
      {
        "midi": 75,
        "time": 101.25,
        "duration": 0.5,
        "velocity": 0.68,
        "hand": "right"
      },
      {
        "midi": 84,
        "time": 102.25,
        "duration": 0.5,
        "velocity": 0.71,
        "hand": "right"
      },
      {
        "midi": 77,
        "time": 103.25,
        "duration": 0.5,
        "velocity": 0.71,
        "hand": "right"
      },
      {
        "midi": 74,
        "time": 103.75,
        "duration": 0.5,
        "velocity": 0.71,
        "hand": "right"
      },
      {
        "midi": 87,
        "time": 104.25,
        "duration": 0.5,
        "velocity": 0.71,
        "hand": "right"
      },
      {
        "midi": 84,
        "time": 105.25,
        "duration": 0.5,
        "velocity": 0.71,
        "hand": "right"
      },
      {
        "midi": 81,
        "time": 105.75,
        "duration": 0.5,
        "velocity": 0.71,
        "hand": "right"
      },
      {
        "midi": 91,
        "time": 106.25,
        "duration": 0.5,
        "velocity": 0.71,
        "hand": "right"
      },
      {
        "midi": 84,
        "time": 107.25,
        "duration": 0.5,
        "velocity": 0.71,
        "hand": "right"
      },
      {
        "midi": 81,
        "time": 107.75,
        "duration": 0.5,
        "velocity": 0.71,
        "hand": "right"
      },
      {
        "midi": 91,
        "time": 108.25,
        "duration": 0.5,
        "velocity": 0.71,
        "hand": "right"
      },
      {
        "midi": 84,
        "time": 109.25,
        "duration": 0.5,
        "velocity": 0.71,
        "hand": "right"
      },
      {
        "midi": 81,
        "time": 109.75,
        "duration": 0.5,
        "velocity": 0.71,
        "hand": "right"
      },
      {
        "midi": 91,
        "time": 110.25,
        "duration": 0.5,
        "velocity": 0.71,
        "hand": "right"
      },
      {
        "midi": 86,
        "time": 111.25,
        "duration": 0.5,
        "velocity": 0.71,
        "hand": "right"
      },
      {
        "midi": 82,
        "time": 111.75,
        "duration": 0.5,
        "velocity": 0.71,
        "hand": "right"
      },
      {
        "midi": 91,
        "time": 112.25,
        "duration": 0.5,
        "velocity": 0.71,
        "hand": "right"
      },
      {
        "midi": 84,
        "time": 113.25,
        "duration": 0.5,
        "velocity": 0.71,
        "hand": "right"
      },
      {
        "midi": 81,
        "time": 113.75,
        "duration": 0.5,
        "velocity": 0.71,
        "hand": "right"
      },
      {
        "midi": 86,
        "time": 114.25,
        "duration": 0.5,
        "velocity": 0.71,
        "hand": "right"
      },
      {
        "midi": 79,
        "time": 115.25,
        "duration": 0.5,
        "velocity": 0.71,
        "hand": "right"
      },
      {
        "midi": 75,
        "time": 115.75,
        "duration": 0.5,
        "velocity": 0.71,
        "hand": "right"
      },
      {
        "midi": 82,
        "time": 116.25,
        "duration": 0.5,
        "velocity": 0.71,
        "hand": "right"
      },
      {
        "midi": 77,
        "time": 117.25,
        "duration": 0.5,
        "velocity": 0.71,
        "hand": "right"
      },
      {
        "midi": 74,
        "time": 117.75,
        "duration": 0.5,
        "velocity": 0.71,
        "hand": "right"
      },
      {
        "midi": 79,
        "time": 118.25,
        "duration": 0.5,
        "velocity": 0.71,
        "hand": "right"
      },
      {
        "midi": 74,
        "time": 119.25,
        "duration": 0.5,
        "velocity": 0.71,
        "hand": "right"
      },
      {
        "midi": 70,
        "time": 119.75,
        "duration": 0.5,
        "velocity": 0.71,
        "hand": "right"
      },
      {
        "midi": 75,
        "time": 120.25,
        "duration": 0.5,
        "velocity": 0.71,
        "hand": "right"
      },
      {
        "midi": 72,
        "time": 121.25,
        "duration": 0.5,
        "velocity": 0.71,
        "hand": "right"
      },
      {
        "midi": 69,
        "time": 121.75,
        "duration": 0.5,
        "velocity": 0.71,
        "hand": "right"
      },
      {
        "midi": 74,
        "time": 122.25,
        "duration": 0.5,
        "velocity": 0.71,
        "hand": "right"
      },
      {
        "midi": 67,
        "time": 123.25,
        "duration": 0.5,
        "velocity": 0.71,
        "hand": "right"
      },
      {
        "midi": 63,
        "time": 123.75,
        "duration": 0.5,
        "velocity": 0.71,
        "hand": "right"
      },
      {
        "midi": 67,
        "time": 124.25,
        "duration": 0.5,
        "velocity": 0.71,
        "hand": "right"
      },
      {
        "midi": 60,
        "time": 125.25,
        "duration": 0.5,
        "velocity": 0.71,
        "hand": "right"
      },
      {
        "midi": 62,
        "time": 126.25,
        "duration": 0.5,
        "velocity": 0.71,
        "hand": "right"
      },
      {
        "midi": 67,
        "time": 130,
        "duration": 0.75,
        "velocity": 0.71,
        "hand": "right"
      },
      {
        "midi": 60,
        "time": 130.5,
        "duration": 0.5,
        "velocity": 0.93,
        "hand": "right"
      },
      {
        "midi": 67,
        "time": 131,
        "duration": 1,
        "velocity": 0.93,
        "hand": "right"
      },
      {
        "midi": 72,
        "time": 131.5,
        "duration": 0.5,
        "velocity": 0.93,
        "hand": "right"
      },
      {
        "midi": 67,
        "time": 132,
        "duration": 1,
        "velocity": 0.71,
        "hand": "right"
      },
      {
        "midi": 60,
        "time": 132.5,
        "duration": 0.5,
        "velocity": 0.93,
        "hand": "right"
      },
      {
        "midi": 67,
        "time": 133,
        "duration": 0.5,
        "velocity": 0.93,
        "hand": "right"
      },
      {
        "midi": 65,
        "time": 133.5,
        "duration": 0.5,
        "velocity": 0.71,
        "hand": "right"
      },
      {
        "midi": 62,
        "time": 134,
        "duration": 2,
        "velocity": 0.93,
        "hand": "right"
      },
      {
        "midi": 60,
        "time": 134.5,
        "duration": 0.5,
        "velocity": 0.71,
        "hand": "right"
      },
      {
        "midi": 68,
        "time": 135,
        "duration": 0.5,
        "velocity": 0.71,
        "hand": "right"
      },
      {
        "midi": 60,
        "time": 135.75,
        "duration": 0.5,
        "velocity": 0.71,
        "hand": "right"
      },
      {
        "midi": 62,
        "time": 136.75,
        "duration": 0.5,
        "velocity": 0.71,
        "hand": "right"
      },
      {
        "midi": 62,
        "time": 137.75,
        "duration": 0.5,
        "velocity": 0.71,
        "hand": "right"
      },
      {
        "midi": 60,
        "time": 138.5,
        "duration": 0.5,
        "velocity": 0.93,
        "hand": "right"
      },
      {
        "midi": 67,
        "time": 139,
        "duration": 1,
        "velocity": 0.93,
        "hand": "right"
      },
      {
        "midi": 72,
        "time": 139.5,
        "duration": 0.5,
        "velocity": 0.93,
        "hand": "right"
      },
      {
        "midi": 67,
        "time": 140,
        "duration": 1,
        "velocity": 0.71,
        "hand": "right"
      },
      {
        "midi": 60,
        "time": 140.5,
        "duration": 0.5,
        "velocity": 0.93,
        "hand": "right"
      },
      {
        "midi": 67,
        "time": 141,
        "duration": 0.5,
        "velocity": 0.93,
        "hand": "right"
      },
      {
        "midi": 65,
        "time": 141.5,
        "duration": 0.5,
        "velocity": 0.71,
        "hand": "right"
      },
      {
        "midi": 62,
        "time": 142,
        "duration": 2,
        "velocity": 0.93,
        "hand": "right"
      },
      {
        "midi": 60,
        "time": 142.5,
        "duration": 0.5,
        "velocity": 0.71,
        "hand": "right"
      },
      {
        "midi": 68,
        "time": 143,
        "duration": 0.5,
        "velocity": 0.71,
        "hand": "right"
      },
      {
        "midi": 60,
        "time": 143.75,
        "duration": 0.5,
        "velocity": 0.71,
        "hand": "right"
      },
      {
        "midi": 62,
        "time": 144.75,
        "duration": 0.5,
        "velocity": 0.71,
        "hand": "right"
      },
      {
        "midi": 62,
        "time": 145.75,
        "duration": 0.5,
        "velocity": 0.71,
        "hand": "right"
      },
      {
        "midi": 60,
        "time": 147,
        "duration": 0.5,
        "velocity": 0.93,
        "hand": "right"
      },
      {
        "midi": 72,
        "time": 147.5,
        "duration": 0.5,
        "velocity": 0.71,
        "hand": "right"
      },
      {
        "midi": 65,
        "time": 148,
        "duration": 0.5,
        "velocity": 0.93,
        "hand": "right"
      },
      {
        "midi": 75,
        "time": 148.5,
        "duration": 0.5,
        "velocity": 0.71,
        "hand": "right"
      },
      {
        "midi": 62,
        "time": 149,
        "duration": 0.5,
        "velocity": 0.93,
        "hand": "right"
      },
      {
        "midi": 79,
        "time": 149.5,
        "duration": 0.5,
        "velocity": 0.71,
        "hand": "right"
      },
      {
        "midi": 63,
        "time": 150,
        "duration": 3,
        "velocity": 0.75,
        "hand": "right"
      },
      {
        "midi": 82,
        "time": 150.5,
        "duration": 0.5,
        "velocity": 0.71,
        "hand": "right"
      },
      {
        "midi": 87,
        "time": 151,
        "duration": 0.5,
        "velocity": 0.71,
        "hand": "right"
      },
      {
        "midi": 82,
        "time": 151.5,
        "duration": 0.5,
        "velocity": 0.71,
        "hand": "right"
      },
      {
        "midi": 79,
        "time": 152,
        "duration": 0.5,
        "velocity": 0.71,
        "hand": "right"
      },
      {
        "midi": 75,
        "time": 152.5,
        "duration": 0.5,
        "velocity": 0.71,
        "hand": "right"
      },
      {
        "midi": 63,
        "time": 153,
        "duration": 1,
        "velocity": 0.75,
        "hand": "right"
      },
      {
        "midi": 70,
        "time": 153.5,
        "duration": 0.5,
        "velocity": 0.71,
        "hand": "right"
      },
      {
        "midi": 62,
        "time": 154,
        "duration": 1,
        "velocity": 0.75,
        "hand": "right"
      },
      {
        "midi": 70,
        "time": 154.5,
        "duration": 0.5,
        "velocity": 0.71,
        "hand": "right"
      },
      {
        "midi": 60,
        "time": 155,
        "duration": 1,
        "velocity": 0.7,
        "hand": "right"
      },
      {
        "midi": 75,
        "time": 155.5,
        "duration": 0.5,
        "velocity": 0.71,
        "hand": "right"
      },
      {
        "midi": 67,
        "time": 156.25,
        "duration": 0.5,
        "velocity": 0.71,
        "hand": "right"
      },
      {
        "midi": 62,
        "time": 157.75,
        "duration": 0.5,
        "velocity": 0.71,
        "hand": "right"
      },
      {
        "midi": 62,
        "time": 159.75,
        "duration": 0.5,
        "velocity": 0.71,
        "hand": "right"
      },
      {
        "midi": 67,
        "time": 160.25,
        "duration": 0.5,
        "velocity": 0.71,
        "hand": "right"
      },
      {
        "midi": 70,
        "time": 160.75,
        "duration": 0.5,
        "velocity": 0.71,
        "hand": "right"
      },
      {
        "midi": 60,
        "time": 161.25,
        "duration": 0.5,
        "velocity": 0.54,
        "hand": "right"
      },
      {
        "midi": 74,
        "time": 161.75,
        "duration": 0.5,
        "velocity": 0.71,
        "hand": "right"
      },
      {
        "midi": 62,
        "time": 162.25,
        "duration": 0.5,
        "velocity": 0.54,
        "hand": "right"
      },
      {
        "midi": 67,
        "time": 162.75,
        "duration": 0.5,
        "velocity": 0.71,
        "hand": "right"
      },
      {
        "midi": 70,
        "time": 163.25,
        "duration": 0.5,
        "velocity": 0.71,
        "hand": "right"
      },
      {
        "midi": 74,
        "time": 163.75,
        "duration": 0.5,
        "velocity": 0.71,
        "hand": "right"
      },
      {
        "midi": 79,
        "time": 164.25,
        "duration": 0.5,
        "velocity": 0.71,
        "hand": "right"
      },
      {
        "midi": 82,
        "time": 164.75,
        "duration": 0.5,
        "velocity": 0.71,
        "hand": "right"
      },
      {
        "midi": 72,
        "time": 165.25,
        "duration": 0.5,
        "velocity": 0.49,
        "hand": "right"
      },
      {
        "midi": 86,
        "time": 165.75,
        "duration": 0.5,
        "velocity": 0.71,
        "hand": "right"
      },
      {
        "midi": 74,
        "time": 166.25,
        "duration": 0.5,
        "velocity": 0.49,
        "hand": "right"
      },
      {
        "midi": 79,
        "time": 166.75,
        "duration": 0.5,
        "velocity": 0.71,
        "hand": "right"
      },
      {
        "midi": 82,
        "time": 167.25,
        "duration": 0.5,
        "velocity": 0.71,
        "hand": "right"
      },
      {
        "midi": 86,
        "time": 167.75,
        "duration": 0.5,
        "velocity": 0.71,
        "hand": "right"
      },
      {
        "midi": 91,
        "time": 168.25,
        "duration": 0.5,
        "velocity": 0.71,
        "hand": "right"
      },
      {
        "midi": 94,
        "time": 168.75,
        "duration": 0.5,
        "velocity": 0.71,
        "hand": "right"
      },
      {
        "midi": 98,
        "time": 169.25,
        "duration": 0.5,
        "velocity": 0.71,
        "hand": "right"
      },
      {
        "midi": 103,
        "time": 169.75,
        "duration": 0.5,
        "velocity": 0.71,
        "hand": "right"
      },
      {
        "midi": 98,
        "time": 170.25,
        "duration": 0.5,
        "velocity": 0.71,
        "hand": "right"
      },
      {
        "midi": 103,
        "time": 170.75,
        "duration": 0.5,
        "velocity": 0.71,
        "hand": "right"
      },
      {
        "midi": 98,
        "time": 171.25,
        "duration": 0.5,
        "velocity": 0.71,
        "hand": "right"
      },
      {
        "midi": 103,
        "time": 171.75,
        "duration": 0.5,
        "velocity": 0.71,
        "hand": "right"
      },
      {
        "midi": 98,
        "time": 172.25,
        "duration": 0.5,
        "velocity": 0.71,
        "hand": "right"
      },
      {
        "midi": 103,
        "time": 172.75,
        "duration": 0.5,
        "velocity": 0.71,
        "hand": "right"
      },
      {
        "midi": 98,
        "time": 173.25,
        "duration": 0.5,
        "velocity": 0.71,
        "hand": "right"
      },
      {
        "midi": 103,
        "time": 173.75,
        "duration": 0.5,
        "velocity": 0.71,
        "hand": "right"
      },
      {
        "midi": 98,
        "time": 174.25,
        "duration": 0.5,
        "velocity": 0.61,
        "hand": "right"
      },
      {
        "midi": 98,
        "time": 175.25,
        "duration": 0.5,
        "velocity": 0.61,
        "hand": "right"
      },
      {
        "midi": 98,
        "time": 176.25,
        "duration": 0.5,
        "velocity": 0.61,
        "hand": "right"
      },
      {
        "midi": 98,
        "time": 177.25,
        "duration": 0.5,
        "velocity": 0.61,
        "hand": "right"
      },
      {
        "midi": 103,
        "time": 178.25,
        "duration": 0.5,
        "velocity": 0.61,
        "hand": "right"
      },
      {
        "midi": 103,
        "time": 179.25,
        "duration": 0.5,
        "velocity": 0.61,
        "hand": "right"
      },
      {
        "midi": 98,
        "time": 180.25,
        "duration": 0.5,
        "velocity": 0.61,
        "hand": "right"
      },
      {
        "midi": 79,
        "time": 182,
        "duration": 1.5,
        "velocity": 0.71,
        "hand": "right"
      },
      {
        "midi": 77,
        "time": 183.5,
        "duration": 0.5,
        "velocity": 0.71,
        "hand": "right"
      },
      {
        "midi": 74,
        "time": 184,
        "duration": 0.5,
        "velocity": 0.71,
        "hand": "right"
      },
      {
        "midi": 72,
        "time": 184.5,
        "duration": 0.5,
        "velocity": 0.71,
        "hand": "right"
      },
      {
        "midi": 70,
        "time": 185,
        "duration": 0.5,
        "velocity": 0.71,
        "hand": "right"
      },
      {
        "midi": 72,
        "time": 185.5,
        "duration": 0.5,
        "velocity": 0.71,
        "hand": "right"
      },
      {
        "midi": 79,
        "time": 186,
        "duration": 1.5,
        "velocity": 0.71,
        "hand": "right"
      },
      {
        "midi": 77,
        "time": 187.5,
        "duration": 0.5,
        "velocity": 0.71,
        "hand": "right"
      },
      {
        "midi": 74,
        "time": 188,
        "duration": 0.5,
        "velocity": 0.71,
        "hand": "right"
      },
      {
        "midi": 72,
        "time": 188.5,
        "duration": 0.5,
        "velocity": 0.71,
        "hand": "right"
      },
      {
        "midi": 70,
        "time": 189,
        "duration": 0.5,
        "velocity": 0.71,
        "hand": "right"
      },
      {
        "midi": 72,
        "time": 189.5,
        "duration": 0.5,
        "velocity": 0.71,
        "hand": "right"
      },
      {
        "midi": 79,
        "time": 190,
        "duration": 0.5,
        "velocity": 0.68,
        "hand": "right"
      },
      {
        "midi": 80,
        "time": 191,
        "duration": 0.5,
        "velocity": 0.68,
        "hand": "right"
      },
      {
        "midi": 79,
        "time": 191.5,
        "duration": 0.5,
        "velocity": 0.68,
        "hand": "right"
      },
      {
        "midi": 77,
        "time": 192,
        "duration": 0.5,
        "velocity": 0.68,
        "hand": "right"
      },
      {
        "midi": 79,
        "time": 192.5,
        "duration": 0.5,
        "velocity": 0.68,
        "hand": "right"
      },
      {
        "midi": 75,
        "time": 193,
        "duration": 0.5,
        "velocity": 0.68,
        "hand": "right"
      },
      {
        "midi": 77,
        "time": 193.5,
        "duration": 0.5,
        "velocity": 0.68,
        "hand": "right"
      },
      {
        "midi": 79,
        "time": 194,
        "duration": 0.5,
        "velocity": 0.75,
        "hand": "right"
      },
      {
        "midi": 82,
        "time": 194.5,
        "duration": 1,
        "velocity": 0.75,
        "hand": "right"
      },
      {
        "midi": 84,
        "time": 195.5,
        "duration": 1,
        "velocity": 0.75,
        "hand": "right"
      },
      {
        "midi": 82,
        "time": 196.5,
        "duration": 0.5,
        "velocity": 0.75,
        "hand": "right"
      },
      {
        "midi": 77,
        "time": 197,
        "duration": 0.5,
        "velocity": 0.75,
        "hand": "right"
      },
      {
        "midi": 69,
        "time": 197.5,
        "duration": 0.5,
        "velocity": 0.75,
        "hand": "right"
      },
      {
        "midi": 79,
        "time": 198,
        "duration": 1.5,
        "velocity": 0.75,
        "hand": "right"
      },
      {
        "midi": 77,
        "time": 199.5,
        "duration": 0.5,
        "velocity": 0.61,
        "hand": "right"
      },
      {
        "midi": 74,
        "time": 200,
        "duration": 0.5,
        "velocity": 0.61,
        "hand": "right"
      },
      {
        "midi": 72,
        "time": 200.5,
        "duration": 0.5,
        "velocity": 0.61,
        "hand": "right"
      },
      {
        "midi": 70,
        "time": 201,
        "duration": 0.5,
        "velocity": 0.61,
        "hand": "right"
      },
      {
        "midi": 72,
        "time": 201.5,
        "duration": 0.5,
        "velocity": 0.61,
        "hand": "right"
      },
      {
        "midi": 79,
        "time": 202,
        "duration": 1.5,
        "velocity": 0.75,
        "hand": "right"
      },
      {
        "midi": 77,
        "time": 203.5,
        "duration": 0.5,
        "velocity": 0.61,
        "hand": "right"
      },
      {
        "midi": 74,
        "time": 204,
        "duration": 0.5,
        "velocity": 0.61,
        "hand": "right"
      },
      {
        "midi": 72,
        "time": 204.5,
        "duration": 0.5,
        "velocity": 0.61,
        "hand": "right"
      },
      {
        "midi": 70,
        "time": 205,
        "duration": 0.5,
        "velocity": 0.61,
        "hand": "right"
      },
      {
        "midi": 72,
        "time": 205.5,
        "duration": 0.5,
        "velocity": 0.61,
        "hand": "right"
      },
      {
        "midi": 79,
        "time": 206,
        "duration": 0.5,
        "velocity": 0.61,
        "hand": "right"
      },
      {
        "midi": 80,
        "time": 207,
        "duration": 0.5,
        "velocity": 0.61,
        "hand": "right"
      },
      {
        "midi": 79,
        "time": 207.5,
        "duration": 0.5,
        "velocity": 0.61,
        "hand": "right"
      },
      {
        "midi": 77,
        "time": 208,
        "duration": 0.5,
        "velocity": 0.61,
        "hand": "right"
      },
      {
        "midi": 79,
        "time": 208.5,
        "duration": 0.5,
        "velocity": 0.61,
        "hand": "right"
      },
      {
        "midi": 75,
        "time": 209,
        "duration": 0.5,
        "velocity": 0.61,
        "hand": "right"
      },
      {
        "midi": 77,
        "time": 209.5,
        "duration": 0.5,
        "velocity": 0.61,
        "hand": "right"
      },
      {
        "midi": 74,
        "time": 210,
        "duration": 0.5,
        "velocity": 0.61,
        "hand": "right"
      },
      {
        "midi": 75,
        "time": 211,
        "duration": 0.5,
        "velocity": 0.61,
        "hand": "right"
      },
      {
        "midi": 74,
        "time": 211.5,
        "duration": 0.5,
        "velocity": 0.61,
        "hand": "right"
      },
      {
        "midi": 72,
        "time": 212,
        "duration": 0.5,
        "velocity": 0.61,
        "hand": "right"
      },
      {
        "midi": 74,
        "time": 212.5,
        "duration": 0.5,
        "velocity": 0.61,
        "hand": "right"
      },
      {
        "midi": 70,
        "time": 213,
        "duration": 0.5,
        "velocity": 0.61,
        "hand": "right"
      },
      {
        "midi": 72,
        "time": 213.5,
        "duration": 0.5,
        "velocity": 0.61,
        "hand": "right"
      },
      {
        "midi": 74,
        "time": 214,
        "duration": 0.5,
        "velocity": 0.61,
        "hand": "right"
      },
      {
        "midi": 70,
        "time": 214.5,
        "duration": 1,
        "velocity": 0.61,
        "hand": "right"
      },
      {
        "midi": 72,
        "time": 215.5,
        "duration": 0.5,
        "velocity": 0.61,
        "hand": "right"
      },
      {
        "midi": 74,
        "time": 216,
        "duration": 0.5,
        "velocity": 0.61,
        "hand": "right"
      },
      {
        "midi": 70,
        "time": 216.5,
        "duration": 1,
        "velocity": 0.61,
        "hand": "right"
      },
      {
        "midi": 72,
        "time": 217.5,
        "duration": 0.5,
        "velocity": 0.61,
        "hand": "right"
      },
      {
        "midi": 74,
        "time": 218,
        "duration": 0.5,
        "velocity": 0.61,
        "hand": "right"
      },
      {
        "midi": 70,
        "time": 218.5,
        "duration": 0.5,
        "velocity": 0.61,
        "hand": "right"
      },
      {
        "midi": 74,
        "time": 219,
        "duration": 0.5,
        "velocity": 0.61,
        "hand": "right"
      },
      {
        "midi": 75,
        "time": 219.5,
        "duration": 0.5,
        "velocity": 0.61,
        "hand": "right"
      },
      {
        "midi": 79,
        "time": 221,
        "duration": 0.5,
        "velocity": 0.61,
        "hand": "right"
      },
      {
        "midi": 67,
        "time": 222,
        "duration": 1.5,
        "velocity": 0.61,
        "hand": "right"
      },
      {
        "midi": 65,
        "time": 223.5,
        "duration": 0.5,
        "velocity": 0.61,
        "hand": "right"
      },
      {
        "midi": 62,
        "time": 224,
        "duration": 0.5,
        "velocity": 0.61,
        "hand": "right"
      },
      {
        "midi": 60,
        "time": 224.5,
        "duration": 0.5,
        "velocity": 0.61,
        "hand": "right"
      },
      {
        "midi": 60,
        "time": 225.5,
        "duration": 0.5,
        "velocity": 0.61,
        "hand": "right"
      },
      {
        "midi": 67,
        "time": 226,
        "duration": 1.5,
        "velocity": 0.61,
        "hand": "right"
      },
      {
        "midi": 65,
        "time": 227.5,
        "duration": 0.5,
        "velocity": 0.61,
        "hand": "right"
      },
      {
        "midi": 62,
        "time": 228,
        "duration": 0.5,
        "velocity": 0.61,
        "hand": "right"
      },
      {
        "midi": 60,
        "time": 228.5,
        "duration": 0.5,
        "velocity": 0.61,
        "hand": "right"
      },
      {
        "midi": 60,
        "time": 229.5,
        "duration": 0.5,
        "velocity": 0.61,
        "hand": "right"
      },
      {
        "midi": 67,
        "time": 230,
        "duration": 1.5,
        "velocity": 0.61,
        "hand": "right"
      },
      {
        "midi": 60,
        "time": 231.5,
        "duration": 0.5,
        "velocity": 0.61,
        "hand": "right"
      },
      {
        "midi": 67,
        "time": 232,
        "duration": 1.5,
        "velocity": 0.61,
        "hand": "right"
      },
      {
        "midi": 60,
        "time": 233.5,
        "duration": 0.5,
        "velocity": 0.61,
        "hand": "right"
      },
      {
        "midi": 67,
        "time": 234,
        "duration": 0.5,
        "velocity": 0.54,
        "hand": "right"
      },
      {
        "midi": 60,
        "time": 234.5,
        "duration": 0.5,
        "velocity": 0.54,
        "hand": "right"
      },
      {
        "midi": 67,
        "time": 235,
        "duration": 0.5,
        "velocity": 0.54,
        "hand": "right"
      },
      {
        "midi": 60,
        "time": 235.5,
        "duration": 0.5,
        "velocity": 0.54,
        "hand": "right"
      },
      {
        "midi": 67,
        "time": 236,
        "duration": 0.5,
        "velocity": 0.54,
        "hand": "right"
      },
      {
        "midi": 60,
        "time": 236.5,
        "duration": 0.5,
        "velocity": 0.54,
        "hand": "right"
      },
      {
        "midi": 67,
        "time": 237,
        "duration": 0.5,
        "velocity": 0.54,
        "hand": "right"
      },
      {
        "midi": 60,
        "time": 237.5,
        "duration": 0.5,
        "velocity": 0.54,
        "hand": "right"
      },
      {
        "midi": 67,
        "time": 238,
        "duration": 0.5,
        "velocity": 0.54,
        "hand": "right"
      },
      {
        "midi": 63,
        "time": 238.5,
        "duration": 0.5,
        "velocity": 0.54,
        "hand": "right"
      },
      {
        "midi": 60,
        "time": 239.5,
        "duration": 0.5,
        "velocity": 0.54,
        "hand": "right"
      },
      {
        "midi": 67,
        "time": 240,
        "duration": 0.5,
        "velocity": 0.54,
        "hand": "right"
      },
      {
        "midi": 63,
        "time": 240.5,
        "duration": 0.5,
        "velocity": 0.54,
        "hand": "right"
      },
      {
        "midi": 60,
        "time": 241.5,
        "duration": 0.5,
        "velocity": 0.54,
        "hand": "right"
      },
      {
        "midi": 67,
        "time": 242,
        "duration": 0.5,
        "velocity": 0.54,
        "hand": "right"
      },
      {
        "midi": 67,
        "time": 242.75,
        "duration": 0.5,
        "velocity": 0.54,
        "hand": "right"
      },
      {
        "midi": 67,
        "time": 243.75,
        "duration": 0.5,
        "velocity": 0.61,
        "hand": "right"
      },
      {
        "midi": 67,
        "time": 244.75,
        "duration": 0.5,
        "velocity": 0.69,
        "hand": "right"
      },
      {
        "midi": 67,
        "time": 246,
        "duration": 0.5,
        "velocity": 0.75,
        "hand": "right"
      },
      {
        "midi": 63,
        "time": 246.5,
        "duration": 0.5,
        "velocity": 0.75,
        "hand": "right"
      },
      {
        "midi": 60,
        "time": 247.5,
        "duration": 0.5,
        "velocity": 0.75,
        "hand": "right"
      },
      {
        "midi": 67,
        "time": 248,
        "duration": 0.5,
        "velocity": 0.75,
        "hand": "right"
      },
      {
        "midi": 63,
        "time": 248.5,
        "duration": 0.5,
        "velocity": 0.75,
        "hand": "right"
      },
      {
        "midi": 60,
        "time": 249.5,
        "duration": 0.5,
        "velocity": 0.75,
        "hand": "right"
      },
      {
        "midi": 67,
        "time": 250,
        "duration": 0.5,
        "velocity": 0.75,
        "hand": "right"
      },
      {
        "midi": 67,
        "time": 250.75,
        "duration": 0.5,
        "velocity": 0.75,
        "hand": "right"
      },
      {
        "midi": 67,
        "time": 251.75,
        "duration": 0.5,
        "velocity": 0.75,
        "hand": "right"
      },
      {
        "midi": 67,
        "time": 252.75,
        "duration": 0.5,
        "velocity": 0.75,
        "hand": "right"
      },
      {
        "midi": 82,
        "time": 253.75,
        "duration": 0.5,
        "velocity": 0.75,
        "hand": "right"
      },
      {
        "midi": 84,
        "time": 254.5,
        "duration": 0.5,
        "velocity": 0.61,
        "hand": "right"
      },
      {
        "midi": 80,
        "time": 255.5,
        "duration": 0.5,
        "velocity": 0.61,
        "hand": "right"
      },
      {
        "midi": 82,
        "time": 256,
        "duration": 0.5,
        "velocity": 0.61,
        "hand": "right"
      },
      {
        "midi": 82,
        "time": 257,
        "duration": 0.5,
        "velocity": 0.61,
        "hand": "right"
      },
      {
        "midi": 87,
        "time": 257.5,
        "duration": 0.5,
        "velocity": 0.61,
        "hand": "right"
      },
      {
        "midi": 84,
        "time": 258,
        "duration": 0.5,
        "velocity": 0.61,
        "hand": "right"
      },
      {
        "midi": 84,
        "time": 259,
        "duration": 0.5,
        "velocity": 0.61,
        "hand": "right"
      },
      {
        "midi": 80,
        "time": 259.5,
        "duration": 0.5,
        "velocity": 0.61,
        "hand": "right"
      },
      {
        "midi": 82,
        "time": 260,
        "duration": 0.5,
        "velocity": 0.61,
        "hand": "right"
      },
      {
        "midi": 82,
        "time": 261,
        "duration": 0.5,
        "velocity": 0.61,
        "hand": "right"
      },
      {
        "midi": 67,
        "time": 261.5,
        "duration": 0.5,
        "velocity": 0.68,
        "hand": "right"
      },
      {
        "midi": 72,
        "time": 262,
        "duration": 0.5,
        "velocity": 0.68,
        "hand": "right"
      },
      {
        "midi": 72,
        "time": 263,
        "duration": 0.5,
        "velocity": 0.68,
        "hand": "right"
      },
      {
        "midi": 68,
        "time": 263.5,
        "duration": 0.5,
        "velocity": 0.68,
        "hand": "right"
      },
      {
        "midi": 70,
        "time": 264,
        "duration": 0.5,
        "velocity": 0.68,
        "hand": "right"
      },
      {
        "midi": 70,
        "time": 265,
        "duration": 0.5,
        "velocity": 0.68,
        "hand": "right"
      },
      {
        "midi": 75,
        "time": 265.5,
        "duration": 0.5,
        "velocity": 0.75,
        "hand": "right"
      },
      {
        "midi": 72,
        "time": 266,
        "duration": 0.5,
        "velocity": 0.68,
        "hand": "right"
      },
      {
        "midi": 72,
        "time": 267,
        "duration": 0.5,
        "velocity": 0.68,
        "hand": "right"
      },
      {
        "midi": 68,
        "time": 267.5,
        "duration": 0.5,
        "velocity": 0.68,
        "hand": "right"
      },
      {
        "midi": 70,
        "time": 268,
        "duration": 0.5,
        "velocity": 0.68,
        "hand": "right"
      },
      {
        "midi": 70,
        "time": 269,
        "duration": 0.5,
        "velocity": 0.68,
        "hand": "right"
      },
      {
        "midi": 63,
        "time": 269.5,
        "duration": 0.5,
        "velocity": 0.75,
        "hand": "right"
      },
      {
        "midi": 60,
        "time": 270,
        "duration": 0.5,
        "velocity": 0.54,
        "hand": "right"
      },
      {
        "midi": 60,
        "time": 271,
        "duration": 0.5,
        "velocity": 0.54,
        "hand": "right"
      },
      {
        "midi": 75,
        "time": 272.25,
        "duration": 0.5,
        "velocity": 0.68,
        "hand": "right"
      },
      {
        "midi": 87,
        "time": 272.75,
        "duration": 0.5,
        "velocity": 0.68,
        "hand": "right"
      },
      {
        "midi": 99,
        "time": 273.25,
        "duration": 0.5,
        "velocity": 0.68,
        "hand": "right"
      },
      {
        "midi": 62,
        "time": 273.75,
        "duration": 0.5,
        "velocity": 0.54,
        "hand": "right"
      },
      {
        "midi": 72,
        "time": 274.25,
        "duration": 0.5,
        "velocity": 0.68,
        "hand": "right"
      },
      {
        "midi": 84,
        "time": 274.75,
        "duration": 0.5,
        "velocity": 0.68,
        "hand": "right"
      },
      {
        "midi": 96,
        "time": 275.25,
        "duration": 0.5,
        "velocity": 0.68,
        "hand": "right"
      },
      {
        "midi": 75,
        "time": 276.25,
        "duration": 0.5,
        "velocity": 0.68,
        "hand": "right"
      },
      {
        "midi": 87,
        "time": 276.75,
        "duration": 0.5,
        "velocity": 0.68,
        "hand": "right"
      },
      {
        "midi": 99,
        "time": 277.25,
        "duration": 0.5,
        "velocity": 0.68,
        "hand": "right"
      },
      {
        "midi": 91,
        "time": 277.75,
        "duration": 0.5,
        "velocity": 0.68,
        "hand": "right"
      },
      {
        "midi": 92,
        "time": 278.25,
        "duration": 0.5,
        "velocity": 0.68,
        "hand": "right"
      },
      {
        "midi": 80,
        "time": 278.75,
        "duration": 0.5,
        "velocity": 0.68,
        "hand": "right"
      },
      {
        "midi": 68,
        "time": 279.25,
        "duration": 0.5,
        "velocity": 0.68,
        "hand": "right"
      },
      {
        "midi": 89,
        "time": 279.75,
        "duration": 0.5,
        "velocity": 0.68,
        "hand": "right"
      },
      {
        "midi": 91,
        "time": 280.25,
        "duration": 0.5,
        "velocity": 0.68,
        "hand": "right"
      },
      {
        "midi": 79,
        "time": 280.75,
        "duration": 0.5,
        "velocity": 0.68,
        "hand": "right"
      },
      {
        "midi": 67,
        "time": 281.25,
        "duration": 0.5,
        "velocity": 0.68,
        "hand": "right"
      },
      {
        "midi": 92,
        "time": 281.75,
        "duration": 0.5,
        "velocity": 0.68,
        "hand": "right"
      },
      {
        "midi": 80,
        "time": 282.75,
        "duration": 0.5,
        "velocity": 0.68,
        "hand": "right"
      },
      {
        "midi": 68,
        "time": 283.25,
        "duration": 0.5,
        "velocity": 0.68,
        "hand": "right"
      },
      {
        "midi": 89,
        "time": 283.75,
        "duration": 0.5,
        "velocity": 0.68,
        "hand": "right"
      },
      {
        "midi": 91,
        "time": 284.25,
        "duration": 0.5,
        "velocity": 0.68,
        "hand": "right"
      },
      {
        "midi": 79,
        "time": 284.75,
        "duration": 0.5,
        "velocity": 0.68,
        "hand": "right"
      },
      {
        "midi": 67,
        "time": 285.25,
        "duration": 0.5,
        "velocity": 0.68,
        "hand": "right"
      },
      {
        "midi": 72,
        "time": 286.25,
        "duration": 0.5,
        "velocity": 0.54,
        "hand": "right"
      },
      {
        "midi": 72,
        "time": 287.25,
        "duration": 0.5,
        "velocity": 0.54,
        "hand": "right"
      },
      {
        "midi": 70,
        "time": 287.75,
        "duration": 0.5,
        "velocity": 0.54,
        "hand": "right"
      },
      {
        "midi": 70,
        "time": 288.75,
        "duration": 0.5,
        "velocity": 0.54,
        "hand": "right"
      },
      {
        "midi": 67,
        "time": 289.75,
        "duration": 0.5,
        "velocity": 0.54,
        "hand": "right"
      },
      {
        "midi": 72,
        "time": 290.25,
        "duration": 0.5,
        "velocity": 0.54,
        "hand": "right"
      },
      {
        "midi": 72,
        "time": 291.25,
        "duration": 0.5,
        "velocity": 0.54,
        "hand": "right"
      },
      {
        "midi": 70,
        "time": 291.75,
        "duration": 0.5,
        "velocity": 0.54,
        "hand": "right"
      },
      {
        "midi": 70,
        "time": 292.75,
        "duration": 0.5,
        "velocity": 0.54,
        "hand": "right"
      },
      {
        "midi": 67,
        "time": 293.75,
        "duration": 0.5,
        "velocity": 0.54,
        "hand": "right"
      },
      {
        "midi": 72,
        "time": 294.25,
        "duration": 0.5,
        "velocity": 0.54,
        "hand": "right"
      },
      {
        "midi": 84,
        "time": 294.75,
        "duration": 0.75,
        "velocity": 0.54,
        "hand": "right"
      },
      {
        "midi": 80,
        "time": 295.5,
        "duration": 0.5,
        "velocity": 0.54,
        "hand": "right"
      },
      {
        "midi": 70,
        "time": 296.25,
        "duration": 0.5,
        "velocity": 0.54,
        "hand": "right"
      },
      {
        "midi": 82,
        "time": 296.75,
        "duration": 0.75,
        "velocity": 0.54,
        "hand": "right"
      },
      {
        "midi": 79,
        "time": 297.5,
        "duration": 0.5,
        "velocity": 0.54,
        "hand": "right"
      },
      {
        "midi": 72,
        "time": 298.25,
        "duration": 0.5,
        "velocity": 0.54,
        "hand": "right"
      },
      {
        "midi": 84,
        "time": 298.75,
        "duration": 0.75,
        "velocity": 0.54,
        "hand": "right"
      },
      {
        "midi": 80,
        "time": 299.5,
        "duration": 0.5,
        "velocity": 0.54,
        "hand": "right"
      },
      {
        "midi": 70,
        "time": 300.25,
        "duration": 0.5,
        "velocity": 0.54,
        "hand": "right"
      },
      {
        "midi": 82,
        "time": 300.75,
        "duration": 0.75,
        "velocity": 0.54,
        "hand": "right"
      },
      {
        "midi": 79,
        "time": 301.5,
        "duration": 0.5,
        "velocity": 0.54,
        "hand": "right"
      },
      {
        "midi": 60,
        "time": 302,
        "duration": 0.5,
        "velocity": 0.84,
        "hand": "right"
      },
      {
        "midi": 64,
        "time": 302.5,
        "duration": 0.5,
        "velocity": 0.54,
        "hand": "right"
      },
      {
        "midi": 84,
        "time": 303.5,
        "duration": 0.5,
        "velocity": 0.54,
        "hand": "right"
      },
      {
        "midi": 60,
        "time": 304.25,
        "duration": 0.5,
        "velocity": 0.54,
        "hand": "right"
      },
      {
        "midi": 82,
        "time": 305.5,
        "duration": 0.5,
        "velocity": 0.54,
        "hand": "right"
      },
      {
        "midi": 60,
        "time": 306,
        "duration": 0.5,
        "velocity": 1,
        "hand": "right"
      },
      {
        "midi": 64,
        "time": 306.5,
        "duration": 0.5,
        "velocity": 0.54,
        "hand": "right"
      },
      {
        "midi": 84,
        "time": 307.5,
        "duration": 0.5,
        "velocity": 0.54,
        "hand": "right"
      },
      {
        "midi": 60,
        "time": 308.25,
        "duration": 0.5,
        "velocity": 0.54,
        "hand": "right"
      },
      {
        "midi": 82,
        "time": 309.5,
        "duration": 0.5,
        "velocity": 0.54,
        "hand": "right"
      },
      {
        "midi": 86,
        "time": 310,
        "duration": 0.5,
        "velocity": 0.71,
        "hand": "right"
      },
      {
        "midi": 82,
        "time": 311,
        "duration": 0.5,
        "velocity": 0.71,
        "hand": "right"
      },
      {
        "midi": 84,
        "time": 311.5,
        "duration": 0.5,
        "velocity": 0.71,
        "hand": "right"
      },
      {
        "midi": 91,
        "time": 312,
        "duration": 0.5,
        "velocity": 0.71,
        "hand": "right"
      },
      {
        "midi": 86,
        "time": 312.5,
        "duration": 1,
        "velocity": 0.71,
        "hand": "right"
      },
      {
        "midi": 82,
        "time": 313,
        "duration": 0.5,
        "velocity": 0.71,
        "hand": "right"
      },
      {
        "midi": 84,
        "time": 313.5,
        "duration": 0.5,
        "velocity": 0.71,
        "hand": "right"
      },
      {
        "midi": 86,
        "time": 314,
        "duration": 0.5,
        "velocity": 0.71,
        "hand": "right"
      },
      {
        "midi": 82,
        "time": 314.5,
        "duration": 0.5,
        "velocity": 0.71,
        "hand": "right"
      },
      {
        "midi": 84,
        "time": 315.5,
        "duration": 0.5,
        "velocity": 0.71,
        "hand": "right"
      },
      {
        "midi": 82,
        "time": 316,
        "duration": 0.5,
        "velocity": 0.71,
        "hand": "right"
      },
      {
        "midi": 79,
        "time": 316.5,
        "duration": 1,
        "velocity": 0.71,
        "hand": "right"
      },
      {
        "midi": 98,
        "time": 317,
        "duration": 0.5,
        "velocity": 0.71,
        "hand": "right"
      },
      {
        "midi": 82,
        "time": 317.5,
        "duration": 0.5,
        "velocity": 0.71,
        "hand": "right"
      },
      {
        "midi": 86,
        "time": 318,
        "duration": 0.5,
        "velocity": 0.71,
        "hand": "right"
      },
      {
        "midi": 82,
        "time": 319,
        "duration": 0.5,
        "velocity": 0.71,
        "hand": "right"
      },
      {
        "midi": 84,
        "time": 319.5,
        "duration": 0.5,
        "velocity": 0.71,
        "hand": "right"
      },
      {
        "midi": 91,
        "time": 320,
        "duration": 0.5,
        "velocity": 0.71,
        "hand": "right"
      },
      {
        "midi": 86,
        "time": 320.5,
        "duration": 1,
        "velocity": 0.71,
        "hand": "right"
      },
      {
        "midi": 82,
        "time": 321,
        "duration": 0.5,
        "velocity": 0.71,
        "hand": "right"
      },
      {
        "midi": 84,
        "time": 321.5,
        "duration": 0.5,
        "velocity": 0.71,
        "hand": "right"
      },
      {
        "midi": 86,
        "time": 322,
        "duration": 0.5,
        "velocity": 0.71,
        "hand": "right"
      },
      {
        "midi": 82,
        "time": 322.5,
        "duration": 0.5,
        "velocity": 0.71,
        "hand": "right"
      },
      {
        "midi": 84,
        "time": 323.5,
        "duration": 0.5,
        "velocity": 0.71,
        "hand": "right"
      },
      {
        "midi": 82,
        "time": 324,
        "duration": 0.5,
        "velocity": 0.71,
        "hand": "right"
      },
      {
        "midi": 79,
        "time": 324.5,
        "duration": 1,
        "velocity": 0.71,
        "hand": "right"
      },
      {
        "midi": 98,
        "time": 325,
        "duration": 0.5,
        "velocity": 0.71,
        "hand": "right"
      },
      {
        "midi": 82,
        "time": 325.5,
        "duration": 0.5,
        "velocity": 0.71,
        "hand": "right"
      },
      {
        "midi": 86,
        "time": 326,
        "duration": 0.5,
        "velocity": 0.71,
        "hand": "right"
      },
      {
        "midi": 82,
        "time": 327,
        "duration": 0.5,
        "velocity": 0.71,
        "hand": "right"
      },
      {
        "midi": 79,
        "time": 327.5,
        "duration": 0.5,
        "velocity": 0.71,
        "hand": "right"
      },
      {
        "midi": 82,
        "time": 328,
        "duration": 0.5,
        "velocity": 0.71,
        "hand": "right"
      },
      {
        "midi": 79,
        "time": 329,
        "duration": 0.5,
        "velocity": 0.71,
        "hand": "right"
      },
      {
        "midi": 76,
        "time": 329.5,
        "duration": 0.5,
        "velocity": 0.71,
        "hand": "right"
      },
      {
        "midi": 79,
        "time": 330,
        "duration": 0.5,
        "velocity": 0.71,
        "hand": "right"
      },
      {
        "midi": 73,
        "time": 330.5,
        "duration": 0.5,
        "velocity": 0.71,
        "hand": "right"
      },
      {
        "midi": 76,
        "time": 331,
        "duration": 0.5,
        "velocity": 0.71,
        "hand": "right"
      },
      {
        "midi": 67,
        "time": 331.5,
        "duration": 0.5,
        "velocity": 0.71,
        "hand": "right"
      },
      {
        "midi": 70,
        "time": 332,
        "duration": 1.5,
        "velocity": 0.71,
        "hand": "right"
      },
      {
        "midi": 67,
        "time": 332.5,
        "duration": 0.5,
        "velocity": 0.71,
        "hand": "right"
      },
      {
        "midi": 70,
        "time": 333.5,
        "duration": 0.5,
        "velocity": 0.71,
        "hand": "right"
      },
      {
        "midi": 74,
        "time": 334,
        "duration": 0.5,
        "velocity": 0.71,
        "hand": "right"
      },
      {
        "midi": 70,
        "time": 335,
        "duration": 0.5,
        "velocity": 0.71,
        "hand": "right"
      },
      {
        "midi": 67,
        "time": 335.5,
        "duration": 0.5,
        "velocity": 0.71,
        "hand": "right"
      },
      {
        "midi": 70,
        "time": 336,
        "duration": 0.5,
        "velocity": 0.71,
        "hand": "right"
      },
      {
        "midi": 67,
        "time": 337,
        "duration": 0.5,
        "velocity": 0.71,
        "hand": "right"
      },
      {
        "midi": 64,
        "time": 337.5,
        "duration": 0.5,
        "velocity": 0.71,
        "hand": "right"
      },
      {
        "midi": 67,
        "time": 338,
        "duration": 0.5,
        "velocity": 0.71,
        "hand": "right"
      },
      {
        "midi": 61,
        "time": 338.5,
        "duration": 0.5,
        "velocity": 0.71,
        "hand": "right"
      },
      {
        "midi": 64,
        "time": 339,
        "duration": 0.5,
        "velocity": 0.71,
        "hand": "right"
      },
      {
        "midi": 70,
        "time": 341.5,
        "duration": 0.5,
        "velocity": 0.54,
        "hand": "right"
      },
      {
        "midi": 70,
        "time": 343.5,
        "duration": 0.5,
        "velocity": 0.54,
        "hand": "right"
      },
      {
        "midi": 70,
        "time": 344.5,
        "duration": 0.5,
        "velocity": 0.54,
        "hand": "right"
      },
      {
        "midi": 70,
        "time": 345.5,
        "duration": 0.5,
        "velocity": 0.54,
        "hand": "right"
      },
      {
        "midi": 70,
        "time": 346.5,
        "duration": 1,
        "velocity": 0.54,
        "hand": "right"
      },
      {
        "midi": 103,
        "time": 360,
        "duration": 1.75,
        "velocity": 0.75,
        "hand": "right"
      },
      {
        "midi": 101,
        "time": 361.75,
        "duration": 0.5,
        "velocity": 0.49,
        "hand": "right"
      },
      {
        "midi": 62,
        "time": 366,
        "duration": 0.5,
        "velocity": 0.49,
        "hand": "right"
      },
      {
        "midi": 82,
        "time": 367,
        "duration": 1,
        "velocity": 0.75,
        "hand": "right"
      },
      {
        "midi": 67,
        "time": 373.5,
        "duration": 0.5,
        "velocity": 0.75,
        "hand": "right"
      },
      {
        "midi": 79,
        "time": 374,
        "duration": 0.5,
        "velocity": 0.75,
        "hand": "right"
      },
      {
        "midi": 91,
        "time": 374.5,
        "duration": 0.5,
        "velocity": 0.75,
        "hand": "right"
      },
      {
        "midi": 103,
        "time": 375,
        "duration": 0.5,
        "velocity": 0.75,
        "hand": "right"
      },
      {
        "midi": 60,
        "time": 376.5,
        "duration": 0.5,
        "velocity": 0.71,
        "hand": "right"
      },
      {
        "midi": 62,
        "time": 377.25,
        "duration": 0.5,
        "velocity": 0.71,
        "hand": "right"
      },
      {
        "midi": 60,
        "time": 377.75,
        "duration": 0.5,
        "velocity": 0.71,
        "hand": "right"
      },
      {
        "midi": 61,
        "time": 378.25,
        "duration": 0.5,
        "velocity": 0.71,
        "hand": "right"
      },
      {
        "midi": 62,
        "time": 378.75,
        "duration": 0.5,
        "velocity": 0.71,
        "hand": "right"
      },
      {
        "midi": 64,
        "time": 379.25,
        "duration": 0.5,
        "velocity": 0.71,
        "hand": "right"
      },
      {
        "midi": 65,
        "time": 379.75,
        "duration": 0.5,
        "velocity": 0.71,
        "hand": "right"
      },
      {
        "midi": 70,
        "time": 380.25,
        "duration": 0.5,
        "velocity": 0.71,
        "hand": "right"
      },
      {
        "midi": 68,
        "time": 380.75,
        "duration": 0.5,
        "velocity": 0.71,
        "hand": "right"
      },
      {
        "midi": 74,
        "time": 381.25,
        "duration": 0.5,
        "velocity": 0.71,
        "hand": "right"
      },
      {
        "midi": 72,
        "time": 381.75,
        "duration": 0.5,
        "velocity": 0.71,
        "hand": "right"
      },
      {
        "midi": 73,
        "time": 382.25,
        "duration": 0.5,
        "velocity": 0.71,
        "hand": "right"
      },
      {
        "midi": 74,
        "time": 382.75,
        "duration": 0.5,
        "velocity": 0.71,
        "hand": "right"
      },
      {
        "midi": 76,
        "time": 383.25,
        "duration": 0.5,
        "velocity": 0.71,
        "hand": "right"
      },
      {
        "midi": 77,
        "time": 383.75,
        "duration": 0.5,
        "velocity": 0.71,
        "hand": "right"
      },
      {
        "midi": 79,
        "time": 384.25,
        "duration": 0.5,
        "velocity": 0.71,
        "hand": "right"
      },
      {
        "midi": 80,
        "time": 384.75,
        "duration": 0.5,
        "velocity": 0.71,
        "hand": "right"
      },
      {
        "midi": 86,
        "time": 385.25,
        "duration": 0.5,
        "velocity": 0.71,
        "hand": "right"
      },
      {
        "midi": 84,
        "time": 385.75,
        "duration": 0.5,
        "velocity": 0.71,
        "hand": "right"
      },
      {
        "midi": 89,
        "time": 386.25,
        "duration": 0.5,
        "velocity": 0.71,
        "hand": "right"
      },
      {
        "midi": 87,
        "time": 386.75,
        "duration": 0.5,
        "velocity": 0.71,
        "hand": "right"
      },
      {
        "midi": 92,
        "time": 387.25,
        "duration": 0.5,
        "velocity": 0.71,
        "hand": "right"
      },
      {
        "midi": 90,
        "time": 387.75,
        "duration": 0.5,
        "velocity": 0.71,
        "hand": "right"
      },
      {
        "midi": 94,
        "time": 388.25,
        "duration": 0.5,
        "velocity": 0.71,
        "hand": "right"
      },
      {
        "midi": 72,
        "time": 389,
        "duration": 1,
        "velocity": 0.84,
        "hand": "right"
      },
      {
        "midi": 89,
        "time": 390,
        "duration": 0.5,
        "velocity": 0.84,
        "hand": "right"
      },
      {
        "midi": 94,
        "time": 390.5,
        "duration": 0.5,
        "velocity": 0.84,
        "hand": "right"
      },
      {
        "midi": 70,
        "time": 391,
        "duration": 1,
        "velocity": 0.84,
        "hand": "right"
      },
      {
        "midi": 91,
        "time": 392,
        "duration": 0.5,
        "velocity": 0.84,
        "hand": "right"
      },
      {
        "midi": 96,
        "time": 392.5,
        "duration": 0.5,
        "velocity": 0.84,
        "hand": "right"
      },
      {
        "midi": 72,
        "time": 393,
        "duration": 1,
        "velocity": 0.84,
        "hand": "right"
      },
      {
        "midi": 89,
        "time": 394,
        "duration": 0.5,
        "velocity": 0.84,
        "hand": "right"
      },
      {
        "midi": 94,
        "time": 394.5,
        "duration": 0.5,
        "velocity": 0.84,
        "hand": "right"
      },
      {
        "midi": 70,
        "time": 395,
        "duration": 1,
        "velocity": 0.84,
        "hand": "right"
      },
      {
        "midi": 79,
        "time": 396,
        "duration": 0.5,
        "velocity": 0.84,
        "hand": "right"
      },
      {
        "midi": 84,
        "time": 396.5,
        "duration": 0.5,
        "velocity": 0.84,
        "hand": "right"
      },
      {
        "midi": 77,
        "time": 397.5,
        "duration": 0.5,
        "velocity": 1,
        "hand": "right"
      },
      {
        "midi": 82,
        "time": 398.5,
        "duration": 0.5,
        "velocity": 1,
        "hand": "right"
      },
      {
        "midi": 75,
        "time": 399.5,
        "duration": 0.5,
        "velocity": 1,
        "hand": "right"
      },
      {
        "midi": 79,
        "time": 400,
        "duration": 0.5,
        "velocity": 1,
        "hand": "right"
      },
      {
        "midi": 84,
        "time": 400.5,
        "duration": 0.5,
        "velocity": 1,
        "hand": "right"
      },
      {
        "midi": 77,
        "time": 401.5,
        "duration": 0.5,
        "velocity": 1,
        "hand": "right"
      },
      {
        "midi": 82,
        "time": 402.5,
        "duration": 0.5,
        "velocity": 1,
        "hand": "right"
      },
      {
        "midi": 75,
        "time": 403.5,
        "duration": 0.5,
        "velocity": 1,
        "hand": "right"
      },
      {
        "midi": 68,
        "time": 404.5,
        "duration": 0.5,
        "velocity": 0.75,
        "hand": "right"
      },
      {
        "midi": 75,
        "time": 405,
        "duration": 0.5,
        "velocity": 0.75,
        "hand": "right"
      },
      {
        "midi": 68,
        "time": 405.5,
        "duration": 0.5,
        "velocity": 0.75,
        "hand": "right"
      },
      {
        "midi": 70,
        "time": 406,
        "duration": 0.5,
        "velocity": 0.75,
        "hand": "right"
      },
      {
        "midi": 67,
        "time": 406.5,
        "duration": 0.5,
        "velocity": 0.75,
        "hand": "right"
      },
      {
        "midi": 75,
        "time": 407,
        "duration": 0.5,
        "velocity": 0.75,
        "hand": "right"
      },
      {
        "midi": 67,
        "time": 407.5,
        "duration": 0.5,
        "velocity": 0.75,
        "hand": "right"
      },
      {
        "midi": 68,
        "time": 408.5,
        "duration": 0.5,
        "velocity": 0.75,
        "hand": "right"
      },
      {
        "midi": 75,
        "time": 409,
        "duration": 0.5,
        "velocity": 0.75,
        "hand": "right"
      },
      {
        "midi": 68,
        "time": 409.5,
        "duration": 0.5,
        "velocity": 0.75,
        "hand": "right"
      },
      {
        "midi": 70,
        "time": 410,
        "duration": 0.5,
        "velocity": 0.75,
        "hand": "right"
      },
      {
        "midi": 67,
        "time": 410.5,
        "duration": 0.5,
        "velocity": 0.75,
        "hand": "right"
      },
      {
        "midi": 75,
        "time": 411,
        "duration": 0.5,
        "velocity": 0.75,
        "hand": "right"
      },
      {
        "midi": 67,
        "time": 411.5,
        "duration": 0.5,
        "velocity": 0.75,
        "hand": "right"
      },
      {
        "midi": 70,
        "time": 412.75,
        "duration": 0.5,
        "velocity": 0.8,
        "hand": "right"
      },
      {
        "midi": 72,
        "time": 413.25,
        "duration": 0.5,
        "velocity": 0.8,
        "hand": "right"
      },
      {
        "midi": 73,
        "time": 413.75,
        "duration": 0.5,
        "velocity": 0.8,
        "hand": "right"
      },
      {
        "midi": 76,
        "time": 414.25,
        "duration": 0.5,
        "velocity": 0.8,
        "hand": "right"
      },
      {
        "midi": 79,
        "time": 414.75,
        "duration": 0.5,
        "velocity": 0.8,
        "hand": "right"
      },
      {
        "midi": 81,
        "time": 415.25,
        "duration": 0.5,
        "velocity": 0.8,
        "hand": "right"
      },
      {
        "midi": 82,
        "time": 415.75,
        "duration": 0.5,
        "velocity": 0.8,
        "hand": "right"
      },
      {
        "midi": 86,
        "time": 416.25,
        "duration": 0.5,
        "velocity": 0.8,
        "hand": "right"
      },
      {
        "midi": 70,
        "time": 416.75,
        "duration": 0.5,
        "velocity": 0.8,
        "hand": "right"
      },
      {
        "midi": 72,
        "time": 417.25,
        "duration": 0.5,
        "velocity": 0.8,
        "hand": "right"
      },
      {
        "midi": 73,
        "time": 417.75,
        "duration": 0.5,
        "velocity": 0.8,
        "hand": "right"
      },
      {
        "midi": 76,
        "time": 418.25,
        "duration": 0.5,
        "velocity": 0.8,
        "hand": "right"
      },
      {
        "midi": 79,
        "time": 418.75,
        "duration": 0.5,
        "velocity": 0.8,
        "hand": "right"
      },
      {
        "midi": 81,
        "time": 419.25,
        "duration": 0.5,
        "velocity": 0.8,
        "hand": "right"
      },
      {
        "midi": 82,
        "time": 419.75,
        "duration": 0.5,
        "velocity": 0.8,
        "hand": "right"
      },
      {
        "midi": 86,
        "time": 420.25,
        "duration": 0.5,
        "velocity": 0.8,
        "hand": "right"
      },
      {
        "midi": 79,
        "time": 420.75,
        "duration": 0.5,
        "velocity": 0.8,
        "hand": "right"
      },
      {
        "midi": 81,
        "time": 421.25,
        "duration": 0.5,
        "velocity": 0.8,
        "hand": "right"
      },
      {
        "midi": 83,
        "time": 421.75,
        "duration": 0.5,
        "velocity": 0.8,
        "hand": "right"
      },
      {
        "midi": 84,
        "time": 422.25,
        "duration": 0.5,
        "velocity": 0.8,
        "hand": "right"
      },
      {
        "midi": 87,
        "time": 422.75,
        "duration": 0.5,
        "velocity": 0.8,
        "hand": "right"
      },
      {
        "midi": 89,
        "time": 423.25,
        "duration": 0.5,
        "velocity": 0.8,
        "hand": "right"
      },
      {
        "midi": 91,
        "time": 423.75,
        "duration": 0.5,
        "velocity": 0.8,
        "hand": "right"
      },
      {
        "midi": 92,
        "time": 424.25,
        "duration": 0.5,
        "velocity": 0.8,
        "hand": "right"
      },
      {
        "midi": 79,
        "time": 424.75,
        "duration": 0.5,
        "velocity": 0.8,
        "hand": "right"
      },
      {
        "midi": 81,
        "time": 425.25,
        "duration": 0.5,
        "velocity": 0.8,
        "hand": "right"
      },
      {
        "midi": 83,
        "time": 425.75,
        "duration": 0.5,
        "velocity": 0.8,
        "hand": "right"
      },
      {
        "midi": 84,
        "time": 426.25,
        "duration": 0.5,
        "velocity": 0.8,
        "hand": "right"
      },
      {
        "midi": 87,
        "time": 426.75,
        "duration": 0.5,
        "velocity": 0.8,
        "hand": "right"
      },
      {
        "midi": 89,
        "time": 427.25,
        "duration": 0.5,
        "velocity": 0.8,
        "hand": "right"
      },
      {
        "midi": 91,
        "time": 427.75,
        "duration": 0.5,
        "velocity": 0.8,
        "hand": "right"
      },
      {
        "midi": 92,
        "time": 428.25,
        "duration": 0.5,
        "velocity": 0.8,
        "hand": "right"
      },
      {
        "midi": 91,
        "time": 429,
        "duration": 0.5,
        "velocity": 0.8,
        "hand": "right"
      },
      {
        "midi": 89,
        "time": 429.5,
        "duration": 0.5,
        "velocity": 0.8,
        "hand": "right"
      },
      {
        "midi": 87,
        "time": 430,
        "duration": 0.5,
        "velocity": 0.8,
        "hand": "right"
      },
      {
        "midi": 89,
        "time": 430.5,
        "duration": 0.5,
        "velocity": 0.8,
        "hand": "right"
      },
      {
        "midi": 87,
        "time": 431,
        "duration": 0.5,
        "velocity": 0.8,
        "hand": "right"
      },
      {
        "midi": 85,
        "time": 431.5,
        "duration": 0.5,
        "velocity": 0.8,
        "hand": "right"
      },
      {
        "midi": 84,
        "time": 432,
        "duration": 0.5,
        "velocity": 0.8,
        "hand": "right"
      },
      {
        "midi": 85,
        "time": 432.5,
        "duration": 0.5,
        "velocity": 0.8,
        "hand": "right"
      },
      {
        "midi": 82,
        "time": 433,
        "duration": 0.5,
        "velocity": 0.8,
        "hand": "right"
      },
      {
        "midi": 77,
        "time": 433.5,
        "duration": 0.5,
        "velocity": 0.8,
        "hand": "right"
      },
      {
        "midi": 73,
        "time": 434,
        "duration": 0.5,
        "velocity": 0.8,
        "hand": "right"
      },
      {
        "midi": 70,
        "time": 434.5,
        "duration": 0.5,
        "velocity": 0.8,
        "hand": "right"
      },
      {
        "midi": 65,
        "time": 435,
        "duration": 0.5,
        "velocity": 0.8,
        "hand": "right"
      },
      {
        "midi": 61,
        "time": 435.5,
        "duration": 0.5,
        "velocity": 0.8,
        "hand": "right"
      },
      {
        "midi": 71,
        "time": 436,
        "duration": 1,
        "velocity": 0.84,
        "hand": "right"
      },
      {
        "midi": 71,
        "time": 437.5,
        "duration": 0.5,
        "velocity": 0.84,
        "hand": "right"
      },
      {
        "midi": 83,
        "time": 438,
        "duration": 0.5,
        "velocity": 0.84,
        "hand": "right"
      },
      {
        "midi": 95,
        "time": 438.5,
        "duration": 0.5,
        "velocity": 0.84,
        "hand": "right"
      },
      {
        "midi": 83,
        "time": 439,
        "duration": 0.5,
        "velocity": 0.84,
        "hand": "right"
      },
      {
        "midi": 71,
        "time": 439.5,
        "duration": 0.5,
        "velocity": 0.84,
        "hand": "right"
      },
      {
        "midi": 68,
        "time": 440,
        "duration": 0.5,
        "velocity": 0.68,
        "hand": "right"
      },
      {
        "midi": 73,
        "time": 440.5,
        "duration": 0.5,
        "velocity": 0.68,
        "hand": "right"
      },
      {
        "midi": 73,
        "time": 441.5,
        "duration": 0.5,
        "velocity": 0.68,
        "hand": "right"
      },
      {
        "midi": 66,
        "time": 442,
        "duration": 0.5,
        "velocity": 0.68,
        "hand": "right"
      },
      {
        "midi": 71,
        "time": 442.5,
        "duration": 0.5,
        "velocity": 0.68,
        "hand": "right"
      },
      {
        "midi": 71,
        "time": 443.5,
        "duration": 0.5,
        "velocity": 0.68,
        "hand": "right"
      },
      {
        "midi": 68,
        "time": 444,
        "duration": 0.5,
        "velocity": 0.68,
        "hand": "right"
      },
      {
        "midi": 73,
        "time": 444.5,
        "duration": 0.5,
        "velocity": 0.68,
        "hand": "right"
      },
      {
        "midi": 73,
        "time": 445.5,
        "duration": 0.5,
        "velocity": 0.68,
        "hand": "right"
      },
      {
        "midi": 66,
        "time": 446,
        "duration": 0.5,
        "velocity": 0.68,
        "hand": "right"
      },
      {
        "midi": 71,
        "time": 446.5,
        "duration": 0.5,
        "velocity": 0.68,
        "hand": "right"
      },
      {
        "midi": 71,
        "time": 447.5,
        "duration": 0.5,
        "velocity": 0.68,
        "hand": "right"
      },
      {
        "midi": 64,
        "time": 448,
        "duration": 0.5,
        "velocity": 0.68,
        "hand": "right"
      },
      {
        "midi": 69,
        "time": 448.5,
        "duration": 0.5,
        "velocity": 0.68,
        "hand": "right"
      },
      {
        "midi": 69,
        "time": 449.5,
        "duration": 0.5,
        "velocity": 0.68,
        "hand": "right"
      },
      {
        "midi": 63,
        "time": 450,
        "duration": 0.5,
        "velocity": 0.68,
        "hand": "right"
      },
      {
        "midi": 68,
        "time": 450.5,
        "duration": 0.5,
        "velocity": 0.68,
        "hand": "right"
      },
      {
        "midi": 68,
        "time": 451.5,
        "duration": 0.5,
        "velocity": 0.68,
        "hand": "right"
      },
      {
        "midi": 61,
        "time": 452,
        "duration": 0.5,
        "velocity": 0.68,
        "hand": "right"
      },
      {
        "midi": 66,
        "time": 452.5,
        "duration": 0.5,
        "velocity": 0.68,
        "hand": "right"
      },
      {
        "midi": 60,
        "time": 453,
        "duration": 0.5,
        "velocity": 0.68,
        "hand": "right"
      },
      {
        "midi": 64,
        "time": 453.5,
        "duration": 0.5,
        "velocity": 0.68,
        "hand": "right"
      },
      {
        "midi": 61,
        "time": 454.25,
        "duration": 0.5,
        "velocity": 0.68,
        "hand": "right"
      },
      {
        "midi": 66,
        "time": 456,
        "duration": 0.5,
        "velocity": 0.75,
        "hand": "right"
      },
      {
        "midi": 63,
        "time": 456.5,
        "duration": 0.5,
        "velocity": 0.75,
        "hand": "right"
      },
      {
        "midi": 66,
        "time": 457,
        "duration": 0.5,
        "velocity": 0.75,
        "hand": "right"
      },
      {
        "midi": 63,
        "time": 457.5,
        "duration": 0.5,
        "velocity": 0.75,
        "hand": "right"
      },
      {
        "midi": 66,
        "time": 458,
        "duration": 0.5,
        "velocity": 0.75,
        "hand": "right"
      },
      {
        "midi": 63,
        "time": 458.5,
        "duration": 1.5,
        "velocity": 0.75,
        "hand": "right"
      },
      {
        "midi": 66,
        "time": 460,
        "duration": 0.5,
        "velocity": 0.75,
        "hand": "right"
      },
      {
        "midi": 63,
        "time": 460.5,
        "duration": 0.5,
        "velocity": 0.75,
        "hand": "right"
      },
      {
        "midi": 66,
        "time": 461,
        "duration": 0.5,
        "velocity": 0.75,
        "hand": "right"
      },
      {
        "midi": 63,
        "time": 461.5,
        "duration": 0.5,
        "velocity": 0.75,
        "hand": "right"
      },
      {
        "midi": 66,
        "time": 462,
        "duration": 0.5,
        "velocity": 0.75,
        "hand": "right"
      },
      {
        "midi": 63,
        "time": 462.5,
        "duration": 14,
        "velocity": 0.75,
        "hand": "right"
      },
      {
        "midi": 60,
        "time": 476.5,
        "duration": 2,
        "velocity": 0.71,
        "hand": "right"
      },
      {
        "midi": 63,
        "time": 478.5,
        "duration": 1,
        "velocity": 0.71,
        "hand": "right"
      },
      {
        "midi": 60,
        "time": 479.5,
        "duration": 1,
        "velocity": 0.71,
        "hand": "right"
      },
      {
        "midi": 65,
        "time": 480.5,
        "duration": 4,
        "velocity": 0.71,
        "hand": "right"
      },
      {
        "midi": 67,
        "time": 484.5,
        "duration": 1.5,
        "velocity": 0.71,
        "hand": "right"
      },
      {
        "midi": 65,
        "time": 486,
        "duration": 0.5,
        "velocity": 0.71,
        "hand": "right"
      },
      {
        "midi": 60,
        "time": 486.5,
        "duration": 1,
        "velocity": 0.71,
        "hand": "right"
      },
      {
        "midi": 60,
        "time": 487.5,
        "duration": 1,
        "velocity": 0.71,
        "hand": "right"
      },
      {
        "midi": 60,
        "time": 492.5,
        "duration": 1,
        "velocity": 0.71,
        "hand": "right"
      },
      {
        "midi": 60,
        "time": 493.5,
        "duration": 1,
        "velocity": 0.71,
        "hand": "right"
      },
      {
        "midi": 63,
        "time": 494.5,
        "duration": 1.5,
        "velocity": 0.71,
        "hand": "right"
      },
      {
        "midi": 62,
        "time": 496,
        "duration": 0.5,
        "velocity": 0.71,
        "hand": "right"
      },
      {
        "midi": 60,
        "time": 501,
        "duration": 0.5,
        "velocity": 0.71,
        "hand": "right"
      },
      {
        "midi": 60,
        "time": 502,
        "duration": 0.5,
        "velocity": 0.71,
        "hand": "right"
      },
      {
        "midi": 67,
        "time": 508.5,
        "duration": 1,
        "velocity": 0.71,
        "hand": "right"
      },
      {
        "midi": 67,
        "time": 509.5,
        "duration": 1,
        "velocity": 0.71,
        "hand": "right"
      },
      {
        "midi": 67,
        "time": 510.5,
        "duration": 1.5,
        "velocity": 0.71,
        "hand": "right"
      },
      {
        "midi": 65,
        "time": 512,
        "duration": 0.5,
        "velocity": 0.71,
        "hand": "right"
      },
      {
        "midi": 62,
        "time": 512.5,
        "duration": 4,
        "velocity": 0.71,
        "hand": "right"
      },
      {
        "midi": 60,
        "time": 513.5,
        "duration": 2,
        "velocity": 0.49,
        "hand": "right"
      },
      {
        "midi": 67,
        "time": 516.5,
        "duration": 1,
        "velocity": 0.71,
        "hand": "right"
      },
      {
        "midi": 67,
        "time": 517.5,
        "duration": 1,
        "velocity": 0.71,
        "hand": "right"
      },
      {
        "midi": 67,
        "time": 518.5,
        "duration": 1.5,
        "velocity": 0.71,
        "hand": "right"
      },
      {
        "midi": 65,
        "time": 520,
        "duration": 0.5,
        "velocity": 0.71,
        "hand": "right"
      },
      {
        "midi": 62,
        "time": 520.5,
        "duration": 4,
        "velocity": 0.71,
        "hand": "right"
      },
      {
        "midi": 60,
        "time": 521.5,
        "duration": 2,
        "velocity": 0.49,
        "hand": "right"
      },
      {
        "midi": 60,
        "time": 524.5,
        "duration": 1,
        "velocity": 0.71,
        "hand": "right"
      },
      {
        "midi": 60,
        "time": 525.5,
        "duration": 0.5,
        "velocity": 0.71,
        "hand": "right"
      },
      {
        "midi": 62,
        "time": 526,
        "duration": 0.5,
        "velocity": 0.71,
        "hand": "right"
      },
      {
        "midi": 65,
        "time": 526.5,
        "duration": 0.5,
        "velocity": 0.71,
        "hand": "right"
      },
      {
        "midi": 63,
        "time": 527,
        "duration": 0.5,
        "velocity": 0.71,
        "hand": "right"
      },
      {
        "midi": 62,
        "time": 527.5,
        "duration": 0.5,
        "velocity": 0.71,
        "hand": "right"
      },
      {
        "midi": 60,
        "time": 528,
        "duration": 0.5,
        "velocity": 0.71,
        "hand": "right"
      },
      {
        "midi": 63,
        "time": 528.5,
        "duration": 3,
        "velocity": 0.71,
        "hand": "right"
      },
      {
        "midi": 63,
        "time": 531.5,
        "duration": 1,
        "velocity": 0.71,
        "hand": "right"
      },
      {
        "midi": 62,
        "time": 532.5,
        "duration": 1,
        "velocity": 0.71,
        "hand": "right"
      },
      {
        "midi": 60,
        "time": 533.5,
        "duration": 1,
        "velocity": 0.71,
        "hand": "right"
      },
      {
        "midi": 60,
        "time": 535.5,
        "duration": 0.75,
        "velocity": 0.71,
        "hand": "right"
      },
      {
        "midi": 62,
        "time": 536.25,
        "duration": 0.5,
        "velocity": 0.71,
        "hand": "right"
      },
      {
        "midi": 63,
        "time": 539.5,
        "duration": 1,
        "velocity": 0.71,
        "hand": "right"
      },
      {
        "midi": 62,
        "time": 540.5,
        "duration": 1,
        "velocity": 0.71,
        "hand": "right"
      },
      {
        "midi": 60,
        "time": 541.5,
        "duration": 1,
        "velocity": 0.71,
        "hand": "right"
      },
      {
        "midi": 60,
        "time": 543.5,
        "duration": 0.75,
        "velocity": 0.71,
        "hand": "right"
      },
      {
        "midi": 62,
        "time": 544.25,
        "duration": 0.5,
        "velocity": 0.71,
        "hand": "right"
      },
      {
        "midi": 60,
        "time": 547.5,
        "duration": 1,
        "velocity": 0.49,
        "hand": "right"
      },
      {
        "midi": 60,
        "time": 551.5,
        "duration": 1,
        "velocity": 0.49,
        "hand": "right"
      },
      {
        "midi": 60,
        "time": 553.5,
        "duration": 1,
        "velocity": 0.49,
        "hand": "right"
      },
      {
        "midi": 60,
        "time": 555.5,
        "duration": 1,
        "velocity": 0.49,
        "hand": "right"
      },
      {
        "midi": 84,
        "time": 568.5,
        "duration": 0.5,
        "velocity": 0.8,
        "hand": "right"
      },
      {
        "midi": 60,
        "time": 569,
        "duration": 0.5,
        "velocity": 0.8,
        "hand": "right"
      },
      {
        "midi": 60,
        "time": 572.5,
        "duration": 0.5,
        "velocity": 0.8,
        "hand": "right"
      }
    ],
    "medium": [
      {
        "midi": 48,
        "time": 0,
        "duration": 1,
        "velocity": 0.54,
        "hand": "left"
      },
      {
        "midi": 63,
        "time": 0,
        "duration": 1,
        "velocity": 0.71,
        "hand": "right"
      },
      {
        "midi": 72,
        "time": 0,
        "duration": 2,
        "velocity": 0.71,
        "hand": "right"
      },
      {
        "midi": 75,
        "time": 2,
        "duration": 1,
        "velocity": 0.71,
        "hand": "right"
      },
      {
        "midi": 72,
        "time": 3,
        "duration": 1,
        "velocity": 0.71,
        "hand": "right"
      },
      {
        "midi": 48,
        "time": 4,
        "duration": 4,
        "velocity": 0.54,
        "hand": "left"
      },
      {
        "midi": 65,
        "time": 4,
        "duration": 4,
        "velocity": 0.71,
        "hand": "right"
      },
      {
        "midi": 77,
        "time": 4,
        "duration": 4,
        "velocity": 0.71,
        "hand": "right"
      },
      {
        "midi": 62,
        "time": 5.5,
        "duration": 0.5,
        "velocity": 0.82,
        "hand": "right"
      },
      {
        "midi": 60,
        "time": 6,
        "duration": 1,
        "velocity": 0.86,
        "hand": "right"
      },
      {
        "midi": 62,
        "time": 7,
        "duration": 1,
        "velocity": 0.93,
        "hand": "right"
      },
      {
        "midi": 48,
        "time": 8,
        "duration": 1,
        "velocity": 0.54,
        "hand": "left"
      },
      {
        "midi": 67,
        "time": 8,
        "duration": 1,
        "velocity": 0.71,
        "hand": "right"
      },
      {
        "midi": 79,
        "time": 8,
        "duration": 1.5,
        "velocity": 0.71,
        "hand": "right"
      },
      {
        "midi": 77,
        "time": 9.5,
        "duration": 0.25,
        "velocity": 0.71,
        "hand": "right"
      },
      {
        "midi": 74,
        "time": 9.75,
        "duration": 0.25,
        "velocity": 0.71,
        "hand": "right"
      },
      {
        "midi": 75,
        "time": 9.75,
        "duration": 0.25,
        "velocity": 0.71,
        "hand": "right"
      },
      {
        "midi": 51,
        "time": 10,
        "duration": 1,
        "velocity": 0.54,
        "hand": "left"
      },
      {
        "midi": 63,
        "time": 10,
        "duration": 1,
        "velocity": 0.54,
        "hand": "right"
      },
      {
        "midi": 72,
        "time": 10,
        "duration": 1,
        "velocity": 0.71,
        "hand": "right"
      },
      {
        "midi": 72,
        "time": 11,
        "duration": 1,
        "velocity": 0.71,
        "hand": "right"
      },
      {
        "midi": 55,
        "time": 12,
        "duration": 1,
        "velocity": 0.46,
        "hand": "left"
      },
      {
        "midi": 67,
        "time": 12,
        "duration": 1,
        "velocity": 0.71,
        "hand": "right"
      },
      {
        "midi": 70,
        "time": 12,
        "duration": 1,
        "velocity": 0.71,
        "hand": "right"
      },
      {
        "midi": 67,
        "time": 13,
        "duration": 3,
        "velocity": 0.71,
        "hand": "right"
      },
      {
        "midi": 55,
        "time": 14.5,
        "duration": 0.5,
        "velocity": 0.36,
        "hand": "left"
      },
      {
        "midi": 57,
        "time": 15,
        "duration": 0.5,
        "velocity": 0.34,
        "hand": "left"
      },
      {
        "midi": 58,
        "time": 15.5,
        "duration": 0.5,
        "velocity": 0.32,
        "hand": "left"
      },
      {
        "midi": 51,
        "time": 16,
        "duration": 1,
        "velocity": 0.32,
        "hand": "left"
      },
      {
        "midi": 60,
        "time": 16,
        "duration": 1,
        "velocity": 0.71,
        "hand": "right"
      },
      {
        "midi": 72,
        "time": 16,
        "duration": 1,
        "velocity": 0.71,
        "hand": "right"
      },
      {
        "midi": 72,
        "time": 17,
        "duration": 1,
        "velocity": 0.71,
        "hand": "right"
      },
      {
        "midi": 48,
        "time": 18,
        "duration": 1,
        "velocity": 0.32,
        "hand": "left"
      },
      {
        "midi": 63,
        "time": 18,
        "duration": 1,
        "velocity": 0.71,
        "hand": "right"
      },
      {
        "midi": 75,
        "time": 18,
        "duration": 1.5,
        "velocity": 0.71,
        "hand": "right"
      },
      {
        "midi": 74,
        "time": 19.5,
        "duration": 0.25,
        "velocity": 0.71,
        "hand": "right"
      },
      {
        "midi": 72,
        "time": 19.75,
        "duration": 0.25,
        "velocity": 0.71,
        "hand": "right"
      },
      {
        "midi": 50,
        "time": 20,
        "duration": 1.5,
        "velocity": 0.32,
        "hand": "left"
      },
      {
        "midi": 58,
        "time": 20,
        "duration": 4,
        "velocity": 0.93,
        "hand": "left"
      },
      {
        "midi": 70,
        "time": 20,
        "duration": 4,
        "velocity": 0.71,
        "hand": "right"
      },
      {
        "midi": 51,
        "time": 21.5,
        "duration": 0.5,
        "velocity": 0.32,
        "hand": "left"
      },
      {
        "midi": 50,
        "time": 22,
        "duration": 0.75,
        "velocity": 0.32,
        "hand": "left"
      },
      {
        "midi": 51,
        "time": 22.75,
        "duration": 0.25,
        "velocity": 0.32,
        "hand": "left"
      },
      {
        "midi": 48,
        "time": 23,
        "duration": 0.5,
        "velocity": 0.32,
        "hand": "left"
      },
      {
        "midi": 50,
        "time": 23,
        "duration": 0.25,
        "velocity": 0.32,
        "hand": "left"
      },
      {
        "midi": 50,
        "time": 23.5,
        "duration": 0.5,
        "velocity": 0.32,
        "hand": "left"
      },
      {
        "midi": 51,
        "time": 24,
        "duration": 3,
        "velocity": 0.32,
        "hand": "left"
      },
      {
        "midi": 60,
        "time": 24,
        "duration": 3,
        "velocity": 0.71,
        "hand": "right"
      },
      {
        "midi": 67,
        "time": 24,
        "duration": 2,
        "velocity": 0.71,
        "hand": "right"
      },
      {
        "midi": 72,
        "time": 24.5,
        "duration": 0.5,
        "velocity": 0.71,
        "hand": "right"
      },
      {
        "midi": 71,
        "time": 25,
        "duration": 0.5,
        "velocity": 0.71,
        "hand": "right"
      },
      {
        "midi": 72,
        "time": 25.5,
        "duration": 0.5,
        "velocity": 0.71,
        "hand": "right"
      },
      {
        "midi": 67,
        "time": 26,
        "duration": 1,
        "velocity": 0.71,
        "hand": "right"
      },
      {
        "midi": 56,
        "time": 27,
        "duration": 1,
        "velocity": 0.32,
        "hand": "left"
      },
      {
        "midi": 60,
        "time": 27,
        "duration": 1,
        "velocity": 0.93,
        "hand": "right"
      },
      {
        "midi": 65,
        "time": 27,
        "duration": 0.75,
        "velocity": 0.71,
        "hand": "right"
      },
      {
        "midi": 63,
        "time": 27.75,
        "duration": 0.25,
        "velocity": 0.71,
        "hand": "right"
      },
      {
        "midi": 55,
        "time": 28,
        "duration": 4,
        "velocity": 0.32,
        "hand": "left"
      },
      {
        "midi": 62,
        "time": 28,
        "duration": 2,
        "velocity": 0.71,
        "hand": "right"
      },
      {
        "midi": 67,
        "time": 28,
        "duration": 4,
        "velocity": 0.71,
        "hand": "right"
      },
      {
        "midi": 60,
        "time": 30,
        "duration": 1,
        "velocity": 0.93,
        "hand": "right"
      },
      {
        "midi": 63,
        "time": 30,
        "duration": 1,
        "velocity": 0.86,
        "hand": "right"
      },
      {
        "midi": 62,
        "time": 31,
        "duration": 1,
        "velocity": 0.93,
        "hand": "right"
      },
      {
        "midi": 65,
        "time": 31,
        "duration": 1,
        "velocity": 0.93,
        "hand": "right"
      },
      {
        "midi": 51,
        "time": 32,
        "duration": 2,
        "velocity": 0.32,
        "hand": "left"
      },
      {
        "midi": 67,
        "time": 32,
        "duration": 1,
        "velocity": 0.71,
        "hand": "right"
      },
      {
        "midi": 79,
        "time": 32,
        "duration": 1,
        "velocity": 0.71,
        "hand": "right"
      },
      {
        "midi": 67,
        "time": 33,
        "duration": 1,
        "velocity": 0.71,
        "hand": "right"
      },
      {
        "midi": 79,
        "time": 33,
        "duration": 1,
        "velocity": 0.71,
        "hand": "right"
      },
      {
        "midi": 50,
        "time": 34,
        "duration": 1,
        "velocity": 0.32,
        "hand": "left"
      },
      {
        "midi": 67,
        "time": 34,
        "duration": 1.5,
        "velocity": 0.93,
        "hand": "right"
      },
      {
        "midi": 79,
        "time": 34,
        "duration": 1.5,
        "velocity": 0.71,
        "hand": "right"
      },
      {
        "midi": 65,
        "time": 35.5,
        "duration": 0.25,
        "velocity": 0.93,
        "hand": "right"
      },
      {
        "midi": 77,
        "time": 35.5,
        "duration": 0.25,
        "velocity": 0.71,
        "hand": "right"
      },
      {
        "midi": 63,
        "time": 35.75,
        "duration": 0.25,
        "velocity": 0.93,
        "hand": "right"
      },
      {
        "midi": 75,
        "time": 35.75,
        "duration": 0.25,
        "velocity": 0.71,
        "hand": "right"
      },
      {
        "midi": 62,
        "time": 36,
        "duration": 4,
        "velocity": 0.93,
        "hand": "right"
      },
      {
        "midi": 74,
        "time": 36,
        "duration": 4,
        "velocity": 0.71,
        "hand": "right"
      },
      {
        "midi": 56,
        "time": 37,
        "duration": 2,
        "velocity": 0.32,
        "hand": "left"
      },
      {
        "midi": 65,
        "time": 37,
        "duration": 2,
        "velocity": 0.93,
        "hand": "right"
      },
      {
        "midi": 72,
        "time": 37,
        "duration": 2,
        "velocity": 0.93,
        "hand": "right"
      },
      {
        "midi": 55,
        "time": 39,
        "duration": 1,
        "velocity": 0.32,
        "hand": "left"
      },
      {
        "midi": 67,
        "time": 39,
        "duration": 1,
        "velocity": 0.93,
        "hand": "right"
      },
      {
        "midi": 71,
        "time": 39,
        "duration": 1,
        "velocity": 0.93,
        "hand": "right"
      },
      {
        "midi": 51,
        "time": 40,
        "duration": 2,
        "velocity": 0.32,
        "hand": "left"
      },
      {
        "midi": 67,
        "time": 40,
        "duration": 1,
        "velocity": 0.71,
        "hand": "right"
      },
      {
        "midi": 79,
        "time": 40,
        "duration": 1,
        "velocity": 0.71,
        "hand": "right"
      },
      {
        "midi": 67,
        "time": 41,
        "duration": 1,
        "velocity": 0.71,
        "hand": "right"
      },
      {
        "midi": 79,
        "time": 41,
        "duration": 1,
        "velocity": 0.71,
        "hand": "right"
      },
      {
        "midi": 50,
        "time": 42,
        "duration": 1,
        "velocity": 0.32,
        "hand": "left"
      },
      {
        "midi": 67,
        "time": 42,
        "duration": 1.5,
        "velocity": 0.93,
        "hand": "right"
      },
      {
        "midi": 79,
        "time": 42,
        "duration": 1.5,
        "velocity": 0.71,
        "hand": "right"
      },
      {
        "midi": 65,
        "time": 43.5,
        "duration": 0.25,
        "velocity": 0.93,
        "hand": "right"
      },
      {
        "midi": 77,
        "time": 43.5,
        "duration": 0.25,
        "velocity": 0.71,
        "hand": "right"
      },
      {
        "midi": 63,
        "time": 43.75,
        "duration": 0.25,
        "velocity": 0.93,
        "hand": "right"
      },
      {
        "midi": 75,
        "time": 43.75,
        "duration": 0.25,
        "velocity": 0.71,
        "hand": "right"
      },
      {
        "midi": 62,
        "time": 44,
        "duration": 4,
        "velocity": 0.93,
        "hand": "right"
      },
      {
        "midi": 74,
        "time": 44,
        "duration": 4,
        "velocity": 0.71,
        "hand": "right"
      },
      {
        "midi": 56,
        "time": 45,
        "duration": 2,
        "velocity": 0.32,
        "hand": "left"
      },
      {
        "midi": 65,
        "time": 45,
        "duration": 2,
        "velocity": 0.93,
        "hand": "right"
      },
      {
        "midi": 72,
        "time": 45,
        "duration": 2,
        "velocity": 0.93,
        "hand": "right"
      },
      {
        "midi": 55,
        "time": 47,
        "duration": 1,
        "velocity": 0.32,
        "hand": "left"
      },
      {
        "midi": 67,
        "time": 47,
        "duration": 1,
        "velocity": 0.93,
        "hand": "right"
      },
      {
        "midi": 71,
        "time": 47,
        "duration": 1,
        "velocity": 0.93,
        "hand": "right"
      },
      {
        "midi": 48,
        "time": 48,
        "duration": 1,
        "velocity": 0.32,
        "hand": "left"
      },
      {
        "midi": 63,
        "time": 48,
        "duration": 1,
        "velocity": 0.93,
        "hand": "right"
      },
      {
        "midi": 72,
        "time": 48,
        "duration": 1,
        "velocity": 0.71,
        "hand": "right"
      },
      {
        "midi": 60,
        "time": 49,
        "duration": 0.5,
        "velocity": 0.93,
        "hand": "right"
      },
      {
        "midi": 72,
        "time": 49,
        "duration": 0.5,
        "velocity": 0.71,
        "hand": "right"
      },
      {
        "midi": 62,
        "time": 49.5,
        "duration": 0.5,
        "velocity": 0.93,
        "hand": "right"
      },
      {
        "midi": 74,
        "time": 49.5,
        "duration": 0.5,
        "velocity": 0.71,
        "hand": "right"
      },
      {
        "midi": 65,
        "time": 50,
        "duration": 0.5,
        "velocity": 0.93,
        "hand": "right"
      },
      {
        "midi": 77,
        "time": 50,
        "duration": 0.5,
        "velocity": 0.71,
        "hand": "right"
      },
      {
        "midi": 63,
        "time": 50.5,
        "duration": 0.5,
        "velocity": 0.93,
        "hand": "right"
      },
      {
        "midi": 75,
        "time": 50.5,
        "duration": 0.5,
        "velocity": 0.71,
        "hand": "right"
      },
      {
        "midi": 62,
        "time": 51,
        "duration": 0.5,
        "velocity": 0.93,
        "hand": "right"
      },
      {
        "midi": 74,
        "time": 51,
        "duration": 0.5,
        "velocity": 0.71,
        "hand": "right"
      },
      {
        "midi": 60,
        "time": 51.5,
        "duration": 0.5,
        "velocity": 0.93,
        "hand": "right"
      },
      {
        "midi": 72,
        "time": 51.5,
        "duration": 0.5,
        "velocity": 0.71,
        "hand": "right"
      },
      {
        "midi": 63,
        "time": 52,
        "duration": 3,
        "velocity": 0.93,
        "hand": "right"
      },
      {
        "midi": 75,
        "time": 52,
        "duration": 3,
        "velocity": 0.71,
        "hand": "right"
      },
      {
        "midi": 43,
        "time": 54,
        "duration": 1,
        "velocity": 0.32,
        "hand": "left"
      },
      {
        "midi": 58,
        "time": 54,
        "duration": 1,
        "velocity": 0.32,
        "hand": "left"
      },
      {
        "midi": 70,
        "time": 54,
        "duration": 1,
        "velocity": 0.93,
        "hand": "right"
      },
      {
        "midi": 63,
        "time": 55,
        "duration": 1,
        "velocity": 0.93,
        "hand": "right"
      },
      {
        "midi": 75,
        "time": 55,
        "duration": 1,
        "velocity": 0.71,
        "hand": "right"
      },
      {
        "midi": 46,
        "time": 56,
        "duration": 0.5,
        "velocity": 0.32,
        "hand": "left"
      },
      {
        "midi": 62,
        "time": 56,
        "duration": 0.5,
        "velocity": 0.93,
        "hand": "right"
      },
      {
        "midi": 74,
        "time": 56,
        "duration": 1,
        "velocity": 0.71,
        "hand": "right"
      },
      {
        "midi": 48,
        "time": 57,
        "duration": 0.5,
        "velocity": 0.32,
        "hand": "left"
      },
      {
        "midi": 60,
        "time": 57,
        "duration": 0.5,
        "velocity": 0.32,
        "hand": "right"
      },
      {
        "midi": 72,
        "time": 57,
        "duration": 1,
        "velocity": 0.71,
        "hand": "right"
      },
      {
        "midi": 55,
        "time": 58,
        "duration": 0.5,
        "velocity": 0.32,
        "hand": "left"
      },
      {
        "midi": 62,
        "time": 58,
        "duration": 0.5,
        "velocity": 0.93,
        "hand": "right"
      },
      {
        "midi": 67,
        "time": 58,
        "duration": 1,
        "velocity": 0.71,
        "hand": "right"
      },
      {
        "midi": 48,
        "time": 59,
        "duration": 0.5,
        "velocity": 0.32,
        "hand": "left"
      },
      {
        "midi": 63,
        "time": 59,
        "duration": 0.5,
        "velocity": 0.93,
        "hand": "right"
      },
      {
        "midi": 72,
        "time": 59,
        "duration": 0.75,
        "velocity": 0.71,
        "hand": "right"
      },
      {
        "midi": 74,
        "time": 59.75,
        "duration": 0.25,
        "velocity": 0.71,
        "hand": "right"
      },
      {
        "midi": 55,
        "time": 60,
        "duration": 3,
        "velocity": 0.32,
        "hand": "left"
      },
      {
        "midi": 62,
        "time": 60,
        "duration": 3,
        "velocity": 0.93,
        "hand": "right"
      },
      {
        "midi": 72,
        "time": 60,
        "duration": 0.25,
        "velocity": 0.71,
        "hand": "right"
      },
      {
        "midi": 53,
        "time": 63,
        "duration": 2,
        "velocity": 0.32,
        "hand": "left"
      },
      {
        "midi": 65,
        "time": 63,
        "duration": 2,
        "velocity": 0.93,
        "hand": "right"
      },
      {
        "midi": 68,
        "time": 63,
        "duration": 2.5,
        "velocity": 0.71,
        "hand": "right"
      },
      {
        "midi": 71,
        "time": 65.5,
        "duration": 0.5,
        "velocity": 0.71,
        "hand": "right"
      },
      {
        "midi": 72,
        "time": 66,
        "duration": 0.5,
        "velocity": 0.71,
        "hand": "right"
      },
      {
        "midi": 74,
        "time": 66.5,
        "duration": 0.5,
        "velocity": 0.71,
        "hand": "right"
      },
      {
        "midi": 75,
        "time": 67,
        "duration": 0.5,
        "velocity": 0.71,
        "hand": "right"
      },
      {
        "midi": 76,
        "time": 67.5,
        "duration": 0.5,
        "velocity": 0.71,
        "hand": "right"
      },
      {
        "midi": 77,
        "time": 68,
        "duration": 0.5,
        "velocity": 0.71,
        "hand": "right"
      },
      {
        "midi": 79,
        "time": 68.5,
        "duration": 0.5,
        "velocity": 0.71,
        "hand": "right"
      },
      {
        "midi": 82,
        "time": 69,
        "duration": 1.5,
        "velocity": 0.71,
        "hand": "right"
      },
      {
        "midi": 65,
        "time": 70,
        "duration": 12.5,
        "velocity": 0.93,
        "hand": "right"
      },
      {
        "midi": 68,
        "time": 70,
        "duration": 12.5,
        "velocity": 0.93,
        "hand": "right"
      },
      {
        "midi": 74,
        "time": 70,
        "duration": 12.5,
        "velocity": 0.93,
        "hand": "right"
      },
      {
        "midi": 80,
        "time": 70.5,
        "duration": 0.5,
        "velocity": 0.61,
        "hand": "right"
      },
      {
        "midi": 79,
        "time": 71,
        "duration": 0.5,
        "velocity": 0.61,
        "hand": "right"
      },
      {
        "midi": 77,
        "time": 71.5,
        "duration": 0.5,
        "velocity": 0.61,
        "hand": "right"
      },
      {
        "midi": 82,
        "time": 72,
        "duration": 0.5,
        "velocity": 0.61,
        "hand": "right"
      },
      {
        "midi": 80,
        "time": 72.5,
        "duration": 0.5,
        "velocity": 0.57,
        "hand": "right"
      },
      {
        "midi": 79,
        "time": 73,
        "duration": 0.5,
        "velocity": 0.54,
        "hand": "right"
      },
      {
        "midi": 77,
        "time": 73.5,
        "duration": 0.5,
        "velocity": 0.51,
        "hand": "right"
      },
      {
        "midi": 82,
        "time": 74,
        "duration": 0.5,
        "velocity": 0.48,
        "hand": "right"
      },
      {
        "midi": 80,
        "time": 74.5,
        "duration": 0.5,
        "velocity": 0.45,
        "hand": "right"
      },
      {
        "midi": 79,
        "time": 75,
        "duration": 0.5,
        "velocity": 0.41,
        "hand": "right"
      },
      {
        "midi": 77,
        "time": 75.5,
        "duration": 1,
        "velocity": 0.38,
        "hand": "right"
      },
      {
        "midi": 84,
        "time": 76.5,
        "duration": 0.5,
        "velocity": 0.54,
        "hand": "right"
      },
      {
        "midi": 83,
        "time": 77,
        "duration": 0.5,
        "velocity": 0.54,
        "hand": "right"
      },
      {
        "midi": 84,
        "time": 77.5,
        "duration": 0.5,
        "velocity": 0.54,
        "hand": "right"
      },
      {
        "midi": 82,
        "time": 78,
        "duration": 0.5,
        "velocity": 0.54,
        "hand": "right"
      },
      {
        "midi": 80,
        "time": 78.5,
        "duration": 0.5,
        "velocity": 0.54,
        "hand": "right"
      },
      {
        "midi": 79,
        "time": 79,
        "duration": 0.5,
        "velocity": 0.54,
        "hand": "right"
      },
      {
        "midi": 77,
        "time": 79.5,
        "duration": 1,
        "velocity": 0.54,
        "hand": "right"
      },
      {
        "midi": 84,
        "time": 80.5,
        "duration": 0.5,
        "velocity": 0.54,
        "hand": "right"
      },
      {
        "midi": 83,
        "time": 81,
        "duration": 0.5,
        "velocity": 0.54,
        "hand": "right"
      },
      {
        "midi": 84,
        "time": 81.5,
        "duration": 0.5,
        "velocity": 0.54,
        "hand": "right"
      },
      {
        "midi": 82,
        "time": 82,
        "duration": 0.5,
        "velocity": 0.54,
        "hand": "right"
      },
      {
        "midi": 80,
        "time": 82.5,
        "duration": 0.5,
        "velocity": 0.54,
        "hand": "right"
      },
      {
        "midi": 79,
        "time": 83,
        "duration": 0.5,
        "velocity": 0.54,
        "hand": "right"
      },
      {
        "midi": 77,
        "time": 83.5,
        "duration": 0.75,
        "velocity": 0.54,
        "hand": "right"
      },
      {
        "midi": 84,
        "time": 84.25,
        "duration": 0.25,
        "velocity": 0.53,
        "hand": "right"
      },
      {
        "midi": 83,
        "time": 84.5,
        "duration": 0.25,
        "velocity": 0.52,
        "hand": "right"
      },
      {
        "midi": 84,
        "time": 84.75,
        "duration": 0.25,
        "velocity": 0.5,
        "hand": "right"
      },
      {
        "midi": 82,
        "time": 85,
        "duration": 0.25,
        "velocity": 0.49,
        "hand": "right"
      },
      {
        "midi": 80,
        "time": 85.25,
        "duration": 0.25,
        "velocity": 0.47,
        "hand": "right"
      },
      {
        "midi": 79,
        "time": 85.5,
        "duration": 0.25,
        "velocity": 0.46,
        "hand": "right"
      },
      {
        "midi": 77,
        "time": 85.75,
        "duration": 0.5,
        "velocity": 0.44,
        "hand": "right"
      },
      {
        "midi": 84,
        "time": 86.25,
        "duration": 0.25,
        "velocity": 0.41,
        "hand": "right"
      },
      {
        "midi": 83,
        "time": 86.5,
        "duration": 0.25,
        "velocity": 0.39,
        "hand": "right"
      },
      {
        "midi": 84,
        "time": 86.75,
        "duration": 0.25,
        "velocity": 0.38,
        "hand": "right"
      },
      {
        "midi": 82,
        "time": 87,
        "duration": 0.25,
        "velocity": 0.36,
        "hand": "right"
      },
      {
        "midi": 80,
        "time": 87.25,
        "duration": 0.25,
        "velocity": 0.35,
        "hand": "right"
      },
      {
        "midi": 79,
        "time": 87.5,
        "duration": 0.25,
        "velocity": 0.34,
        "hand": "right"
      },
      {
        "midi": 77,
        "time": 87.75,
        "duration": 0.5,
        "velocity": 0.32,
        "hand": "right"
      },
      {
        "midi": 84,
        "time": 88.25,
        "duration": 0.25,
        "velocity": 0.49,
        "hand": "right"
      },
      {
        "midi": 83,
        "time": 88.5,
        "duration": 0.25,
        "velocity": 0.49,
        "hand": "right"
      },
      {
        "midi": 84,
        "time": 88.75,
        "duration": 0.25,
        "velocity": 0.49,
        "hand": "right"
      },
      {
        "midi": 82,
        "time": 89,
        "duration": 0.25,
        "velocity": 0.49,
        "hand": "right"
      },
      {
        "midi": 80,
        "time": 89.25,
        "duration": 0.25,
        "velocity": 0.49,
        "hand": "right"
      },
      {
        "midi": 79,
        "time": 89.5,
        "duration": 0.25,
        "velocity": 0.49,
        "hand": "right"
      },
      {
        "midi": 77,
        "time": 89.75,
        "duration": 0.25,
        "velocity": 0.49,
        "hand": "right"
      },
      {
        "midi": 75,
        "time": 90,
        "duration": 0.25,
        "velocity": 0.49,
        "hand": "right"
      },
      {
        "midi": 84,
        "time": 90.25,
        "duration": 0.25,
        "velocity": 0.49,
        "hand": "right"
      },
      {
        "midi": 83,
        "time": 90.5,
        "duration": 0.25,
        "velocity": 0.49,
        "hand": "right"
      },
      {
        "midi": 84,
        "time": 90.75,
        "duration": 0.25,
        "velocity": 0.49,
        "hand": "right"
      },
      {
        "midi": 80,
        "time": 91,
        "duration": 0.25,
        "velocity": 0.49,
        "hand": "right"
      },
      {
        "midi": 79,
        "time": 91.25,
        "duration": 0.25,
        "velocity": 0.49,
        "hand": "right"
      },
      {
        "midi": 77,
        "time": 91.5,
        "duration": 0.25,
        "velocity": 0.49,
        "hand": "right"
      },
      {
        "midi": 75,
        "time": 91.75,
        "duration": 0.25,
        "velocity": 0.49,
        "hand": "right"
      },
      {
        "midi": 74,
        "time": 92,
        "duration": 0.25,
        "velocity": 0.49,
        "hand": "right"
      },
      {
        "midi": 84,
        "time": 92.25,
        "duration": 0.25,
        "velocity": 0.49,
        "hand": "right"
      },
      {
        "midi": 83,
        "time": 92.5,
        "duration": 0.25,
        "velocity": 0.49,
        "hand": "right"
      },
      {
        "midi": 84,
        "time": 92.75,
        "duration": 0.25,
        "velocity": 0.49,
        "hand": "right"
      },
      {
        "midi": 79,
        "time": 93,
        "duration": 0.25,
        "velocity": 0.49,
        "hand": "right"
      },
      {
        "midi": 77,
        "time": 93.25,
        "duration": 0.25,
        "velocity": 0.49,
        "hand": "right"
      },
      {
        "midi": 75,
        "time": 93.5,
        "duration": 0.25,
        "velocity": 0.49,
        "hand": "right"
      },
      {
        "midi": 74,
        "time": 93.75,
        "duration": 0.25,
        "velocity": 0.49,
        "hand": "right"
      },
      {
        "midi": 48,
        "time": 94,
        "duration": 1,
        "velocity": 0.32,
        "hand": "left"
      },
      {
        "midi": 55,
        "time": 94,
        "duration": 1,
        "velocity": 0.32,
        "hand": "left"
      },
      {
        "midi": 72,
        "time": 94,
        "duration": 0.25,
        "velocity": 0.49,
        "hand": "right"
      },
      {
        "midi": 84,
        "time": 94.25,
        "duration": 0.25,
        "velocity": 0.49,
        "hand": "right"
      },
      {
        "midi": 83,
        "time": 94.5,
        "duration": 0.25,
        "velocity": 0.49,
        "hand": "right"
      },
      {
        "midi": 84,
        "time": 94.75,
        "duration": 0.25,
        "velocity": 0.49,
        "hand": "right"
      },
      {
        "midi": 79,
        "time": 95,
        "duration": 0.25,
        "velocity": 0.49,
        "hand": "right"
      },
      {
        "midi": 77,
        "time": 95.25,
        "duration": 0.25,
        "velocity": 0.49,
        "hand": "right"
      },
      {
        "midi": 75,
        "time": 95.5,
        "duration": 0.25,
        "velocity": 0.49,
        "hand": "right"
      },
      {
        "midi": 74,
        "time": 95.75,
        "duration": 0.25,
        "velocity": 0.49,
        "hand": "right"
      },
      {
        "midi": 63,
        "time": 96,
        "duration": 1,
        "velocity": 0.93,
        "hand": "right"
      },
      {
        "midi": 72,
        "time": 96,
        "duration": 0.25,
        "velocity": 0.49,
        "hand": "right"
      },
      {
        "midi": 84,
        "time": 96.25,
        "duration": 0.25,
        "velocity": 0.49,
        "hand": "right"
      },
      {
        "midi": 83,
        "time": 96.5,
        "duration": 0.25,
        "velocity": 0.49,
        "hand": "right"
      },
      {
        "midi": 84,
        "time": 96.75,
        "duration": 0.25,
        "velocity": 0.49,
        "hand": "right"
      },
      {
        "midi": 51,
        "time": 97,
        "duration": 1,
        "velocity": 0.32,
        "hand": "left"
      },
      {
        "midi": 60,
        "time": 97,
        "duration": 1,
        "velocity": 0.93,
        "hand": "right"
      },
      {
        "midi": 79,
        "time": 97,
        "duration": 0.25,
        "velocity": 0.49,
        "hand": "right"
      },
      {
        "midi": 77,
        "time": 97.25,
        "duration": 0.25,
        "velocity": 0.49,
        "hand": "right"
      },
      {
        "midi": 75,
        "time": 97.5,
        "duration": 0.25,
        "velocity": 0.49,
        "hand": "right"
      },
      {
        "midi": 74,
        "time": 97.75,
        "duration": 0.25,
        "velocity": 0.49,
        "hand": "right"
      },
      {
        "midi": 56,
        "time": 98,
        "duration": 4,
        "velocity": 0.32,
        "hand": "left"
      },
      {
        "midi": 65,
        "time": 98,
        "duration": 4,
        "velocity": 0.93,
        "hand": "right"
      },
      {
        "midi": 72,
        "time": 98,
        "duration": 0.25,
        "velocity": 0.49,
        "hand": "right"
      },
      {
        "midi": 84,
        "time": 98.25,
        "duration": 0.25,
        "velocity": 0.5,
        "hand": "right"
      },
      {
        "midi": 83,
        "time": 98.5,
        "duration": 0.25,
        "velocity": 0.52,
        "hand": "right"
      },
      {
        "midi": 84,
        "time": 98.75,
        "duration": 0.25,
        "velocity": 0.53,
        "hand": "right"
      },
      {
        "midi": 77,
        "time": 99,
        "duration": 0.25,
        "velocity": 0.54,
        "hand": "right"
      },
      {
        "midi": 75,
        "time": 99.25,
        "duration": 0.25,
        "velocity": 0.56,
        "hand": "right"
      },
      {
        "midi": 74,
        "time": 99.5,
        "duration": 0.25,
        "velocity": 0.57,
        "hand": "right"
      },
      {
        "midi": 75,
        "time": 99.75,
        "duration": 0.25,
        "velocity": 0.59,
        "hand": "right"
      },
      {
        "midi": 72,
        "time": 100,
        "duration": 0.25,
        "velocity": 0.61,
        "hand": "right"
      },
      {
        "midi": 84,
        "time": 100.25,
        "duration": 0.25,
        "velocity": 0.62,
        "hand": "right"
      },
      {
        "midi": 83,
        "time": 100.5,
        "duration": 0.25,
        "velocity": 0.64,
        "hand": "right"
      },
      {
        "midi": 84,
        "time": 100.75,
        "duration": 0.25,
        "velocity": 0.65,
        "hand": "right"
      },
      {
        "midi": 77,
        "time": 101,
        "duration": 0.25,
        "velocity": 0.67,
        "hand": "right"
      },
      {
        "midi": 75,
        "time": 101.25,
        "duration": 0.25,
        "velocity": 0.68,
        "hand": "right"
      },
      {
        "midi": 74,
        "time": 101.5,
        "duration": 0.25,
        "velocity": 0.69,
        "hand": "right"
      },
      {
        "midi": 75,
        "time": 101.75,
        "duration": 0.25,
        "velocity": 0.71,
        "hand": "right"
      },
      {
        "midi": 51,
        "time": 102,
        "duration": 1,
        "velocity": 0.32,
        "hand": "left"
      },
      {
        "midi": 67,
        "time": 102,
        "duration": 1.75,
        "velocity": 0.93,
        "hand": "right"
      },
      {
        "midi": 72,
        "time": 102,
        "duration": 0.25,
        "velocity": 0.71,
        "hand": "right"
      },
      {
        "midi": 84,
        "time": 102.25,
        "duration": 0.25,
        "velocity": 0.71,
        "hand": "right"
      },
      {
        "midi": 83,
        "time": 102.5,
        "duration": 0.25,
        "velocity": 0.71,
        "hand": "right"
      },
      {
        "midi": 84,
        "time": 102.75,
        "duration": 0.25,
        "velocity": 0.71,
        "hand": "right"
      },
      {
        "midi": 79,
        "time": 103,
        "duration": 0.25,
        "velocity": 0.71,
        "hand": "right"
      },
      {
        "midi": 77,
        "time": 103.25,
        "duration": 0.25,
        "velocity": 0.71,
        "hand": "right"
      },
      {
        "midi": 75,
        "time": 103.5,
        "duration": 0.25,
        "velocity": 0.71,
        "hand": "right"
      },
      {
        "midi": 63,
        "time": 103.75,
        "duration": 0.25,
        "velocity": 0.93,
        "hand": "right"
      },
      {
        "midi": 65,
        "time": 103.75,
        "duration": 0.25,
        "velocity": 0.93,
        "hand": "right"
      },
      {
        "midi": 74,
        "time": 103.75,
        "duration": 0.25,
        "velocity": 0.71,
        "hand": "right"
      },
      {
        "midi": 60,
        "time": 104,
        "duration": 1,
        "velocity": 0.93,
        "hand": "right"
      },
      {
        "midi": 62,
        "time": 104,
        "duration": 0.25,
        "velocity": 0.93,
        "hand": "right"
      },
      {
        "midi": 75,
        "time": 104,
        "duration": 0.25,
        "velocity": 0.71,
        "hand": "right"
      },
      {
        "midi": 87,
        "time": 104.25,
        "duration": 0.25,
        "velocity": 0.71,
        "hand": "right"
      },
      {
        "midi": 86,
        "time": 104.5,
        "duration": 0.25,
        "velocity": 0.71,
        "hand": "right"
      },
      {
        "midi": 87,
        "time": 104.75,
        "duration": 0.25,
        "velocity": 0.71,
        "hand": "right"
      },
      {
        "midi": 48,
        "time": 105,
        "duration": 1,
        "velocity": 0.32,
        "hand": "left"
      },
      {
        "midi": 55,
        "time": 105,
        "duration": 1,
        "velocity": 0.32,
        "hand": "left"
      },
      {
        "midi": 86,
        "time": 105,
        "duration": 0.25,
        "velocity": 0.71,
        "hand": "right"
      },
      {
        "midi": 84,
        "time": 105.25,
        "duration": 0.25,
        "velocity": 0.71,
        "hand": "right"
      },
      {
        "midi": 82,
        "time": 105.5,
        "duration": 0.25,
        "velocity": 0.71,
        "hand": "right"
      },
      {
        "midi": 81,
        "time": 105.75,
        "duration": 0.25,
        "velocity": 0.71,
        "hand": "right"
      },
      {
        "midi": 43,
        "time": 106,
        "duration": 3.5,
        "velocity": 0.32,
        "hand": "left"
      },
      {
        "midi": 58,
        "time": 106,
        "duration": 1,
        "velocity": 0.93,
        "hand": "left"
      },
      {
        "midi": 79,
        "time": 106,
        "duration": 0.25,
        "velocity": 0.71,
        "hand": "right"
      },
      {
        "midi": 91,
        "time": 106.25,
        "duration": 0.25,
        "velocity": 0.71,
        "hand": "right"
      },
      {
        "midi": 90,
        "time": 106.5,
        "duration": 0.25,
        "velocity": 0.71,
        "hand": "right"
      },
      {
        "midi": 91,
        "time": 106.75,
        "duration": 0.25,
        "velocity": 0.71,
        "hand": "right"
      },
      {
        "midi": 46,
        "time": 107,
        "duration": 2.5,
        "velocity": 0.93,
        "hand": "left"
      },
      {
        "midi": 55,
        "time": 107,
        "duration": 2.5,
        "velocity": 0.93,
        "hand": "left"
      },
      {
        "midi": 86,
        "time": 107,
        "duration": 0.25,
        "velocity": 0.71,
        "hand": "right"
      },
      {
        "midi": 84,
        "time": 107.25,
        "duration": 0.25,
        "velocity": 0.71,
        "hand": "right"
      },
      {
        "midi": 82,
        "time": 107.5,
        "duration": 0.25,
        "velocity": 0.71,
        "hand": "right"
      },
      {
        "midi": 81,
        "time": 107.75,
        "duration": 0.25,
        "velocity": 0.71,
        "hand": "right"
      },
      {
        "midi": 79,
        "time": 108,
        "duration": 0.25,
        "velocity": 0.71,
        "hand": "right"
      },
      {
        "midi": 91,
        "time": 108.25,
        "duration": 0.25,
        "velocity": 0.71,
        "hand": "right"
      },
      {
        "midi": 90,
        "time": 108.5,
        "duration": 0.25,
        "velocity": 0.71,
        "hand": "right"
      },
      {
        "midi": 91,
        "time": 108.75,
        "duration": 0.25,
        "velocity": 0.71,
        "hand": "right"
      },
      {
        "midi": 86,
        "time": 109,
        "duration": 0.25,
        "velocity": 0.71,
        "hand": "right"
      },
      {
        "midi": 84,
        "time": 109.25,
        "duration": 0.25,
        "velocity": 0.71,
        "hand": "right"
      },
      {
        "midi": 82,
        "time": 109.5,
        "duration": 0.25,
        "velocity": 0.71,
        "hand": "right"
      },
      {
        "midi": 81,
        "time": 109.75,
        "duration": 0.25,
        "velocity": 0.71,
        "hand": "right"
      },
      {
        "midi": 51,
        "time": 110,
        "duration": 1,
        "velocity": 0.32,
        "hand": "left"
      },
      {
        "midi": 60,
        "time": 110,
        "duration": 1,
        "velocity": 0.93,
        "hand": "right"
      },
      {
        "midi": 79,
        "time": 110,
        "duration": 0.25,
        "velocity": 0.71,
        "hand": "right"
      },
      {
        "midi": 91,
        "time": 110.25,
        "duration": 0.25,
        "velocity": 0.71,
        "hand": "right"
      },
      {
        "midi": 90,
        "time": 110.5,
        "duration": 0.25,
        "velocity": 0.71,
        "hand": "right"
      },
      {
        "midi": 91,
        "time": 110.75,
        "duration": 0.25,
        "velocity": 0.71,
        "hand": "right"
      },
      {
        "midi": 60,
        "time": 111,
        "duration": 1,
        "velocity": 0.93,
        "hand": "right"
      },
      {
        "midi": 87,
        "time": 111,
        "duration": 0.25,
        "velocity": 0.71,
        "hand": "right"
      },
      {
        "midi": 86,
        "time": 111.25,
        "duration": 0.25,
        "velocity": 0.71,
        "hand": "right"
      },
      {
        "midi": 84,
        "time": 111.5,
        "duration": 0.25,
        "velocity": 0.71,
        "hand": "right"
      },
      {
        "midi": 82,
        "time": 111.75,
        "duration": 0.25,
        "velocity": 0.71,
        "hand": "right"
      },
      {
        "midi": 48,
        "time": 112,
        "duration": 1,
        "velocity": 0.32,
        "hand": "left"
      },
      {
        "midi": 63,
        "time": 112,
        "duration": 1.5,
        "velocity": 0.93,
        "hand": "right"
      },
      {
        "midi": 81,
        "time": 112,
        "duration": 0.25,
        "velocity": 0.71,
        "hand": "right"
      },
      {
        "midi": 91,
        "time": 112.25,
        "duration": 0.25,
        "velocity": 0.71,
        "hand": "right"
      },
      {
        "midi": 90,
        "time": 112.5,
        "duration": 0.25,
        "velocity": 0.71,
        "hand": "right"
      },
      {
        "midi": 91,
        "time": 112.75,
        "duration": 0.25,
        "velocity": 0.71,
        "hand": "right"
      },
      {
        "midi": 86,
        "time": 113,
        "duration": 0.25,
        "velocity": 0.71,
        "hand": "right"
      },
      {
        "midi": 84,
        "time": 113.25,
        "duration": 0.25,
        "velocity": 0.71,
        "hand": "right"
      },
      {
        "midi": 62,
        "time": 113.5,
        "duration": 0.25,
        "velocity": 0.93,
        "hand": "right"
      },
      {
        "midi": 82,
        "time": 113.5,
        "duration": 0.25,
        "velocity": 0.71,
        "hand": "right"
      },
      {
        "midi": 60,
        "time": 113.75,
        "duration": 0.25,
        "velocity": 0.93,
        "hand": "right"
      },
      {
        "midi": 81,
        "time": 113.75,
        "duration": 0.25,
        "velocity": 0.71,
        "hand": "right"
      },
      {
        "midi": 55,
        "time": 114,
        "duration": 4,
        "velocity": 0.32,
        "hand": "left"
      },
      {
        "midi": 58,
        "time": 114,
        "duration": 4,
        "velocity": 0.93,
        "hand": "left"
      },
      {
        "midi": 79,
        "time": 114,
        "duration": 0.25,
        "velocity": 0.71,
        "hand": "right"
      },
      {
        "midi": 86,
        "time": 114.25,
        "duration": 0.25,
        "velocity": 0.71,
        "hand": "right"
      },
      {
        "midi": 85,
        "time": 114.5,
        "duration": 0.25,
        "velocity": 0.71,
        "hand": "right"
      },
      {
        "midi": 86,
        "time": 114.75,
        "duration": 0.25,
        "velocity": 0.71,
        "hand": "right"
      },
      {
        "midi": 82,
        "time": 115,
        "duration": 0.25,
        "velocity": 0.71,
        "hand": "right"
      },
      {
        "midi": 79,
        "time": 115.25,
        "duration": 0.25,
        "velocity": 0.71,
        "hand": "right"
      },
      {
        "midi": 77,
        "time": 115.5,
        "duration": 0.25,
        "velocity": 0.71,
        "hand": "right"
      },
      {
        "midi": 75,
        "time": 115.75,
        "duration": 0.25,
        "velocity": 0.71,
        "hand": "right"
      },
      {
        "midi": 74,
        "time": 116,
        "duration": 0.25,
        "velocity": 0.71,
        "hand": "right"
      },
      {
        "midi": 82,
        "time": 116.25,
        "duration": 0.25,
        "velocity": 0.71,
        "hand": "right"
      },
      {
        "midi": 81,
        "time": 116.5,
        "duration": 0.25,
        "velocity": 0.71,
        "hand": "right"
      },
      {
        "midi": 82,
        "time": 116.75,
        "duration": 0.25,
        "velocity": 0.71,
        "hand": "right"
      },
      {
        "midi": 79,
        "time": 117,
        "duration": 0.25,
        "velocity": 0.71,
        "hand": "right"
      },
      {
        "midi": 77,
        "time": 117.25,
        "duration": 0.25,
        "velocity": 0.71,
        "hand": "right"
      },
      {
        "midi": 75,
        "time": 117.5,
        "duration": 0.25,
        "velocity": 0.71,
        "hand": "right"
      },
      {
        "midi": 74,
        "time": 117.75,
        "duration": 0.25,
        "velocity": 0.71,
        "hand": "right"
      },
      {
        "midi": 51,
        "time": 118,
        "duration": 2,
        "velocity": 0.32,
        "hand": "left"
      },
      {
        "midi": 55,
        "time": 118,
        "duration": 2,
        "velocity": 0.93,
        "hand": "left"
      },
      {
        "midi": 72,
        "time": 118,
        "duration": 0.25,
        "velocity": 0.71,
        "hand": "right"
      },
      {
        "midi": 79,
        "time": 118.25,
        "duration": 0.25,
        "velocity": 0.71,
        "hand": "right"
      },
      {
        "midi": 60,
        "time": 118.5,
        "duration": 0.5,
        "velocity": 0.93,
        "hand": "right"
      },
      {
        "midi": 78,
        "time": 118.5,
        "duration": 0.25,
        "velocity": 0.71,
        "hand": "right"
      },
      {
        "midi": 79,
        "time": 118.75,
        "duration": 0.25,
        "velocity": 0.71,
        "hand": "right"
      },
      {
        "midi": 59,
        "time": 119,
        "duration": 0.5,
        "velocity": 0.93,
        "hand": "left"
      },
      {
        "midi": 75,
        "time": 119,
        "duration": 0.25,
        "velocity": 0.71,
        "hand": "right"
      },
      {
        "midi": 74,
        "time": 119.25,
        "duration": 0.25,
        "velocity": 0.71,
        "hand": "right"
      },
      {
        "midi": 60,
        "time": 119.5,
        "duration": 0.5,
        "velocity": 0.93,
        "hand": "right"
      },
      {
        "midi": 72,
        "time": 119.5,
        "duration": 0.25,
        "velocity": 0.71,
        "hand": "right"
      },
      {
        "midi": 70,
        "time": 119.75,
        "duration": 0.25,
        "velocity": 0.71,
        "hand": "right"
      },
      {
        "midi": 48,
        "time": 120,
        "duration": 2,
        "velocity": 0.32,
        "hand": "left"
      },
      {
        "midi": 55,
        "time": 120,
        "duration": 1,
        "velocity": 0.93,
        "hand": "left"
      },
      {
        "midi": 69,
        "time": 120,
        "duration": 0.25,
        "velocity": 0.71,
        "hand": "right"
      },
      {
        "midi": 75,
        "time": 120.25,
        "duration": 0.25,
        "velocity": 0.71,
        "hand": "right"
      },
      {
        "midi": 74,
        "time": 120.5,
        "duration": 0.25,
        "velocity": 0.71,
        "hand": "right"
      },
      {
        "midi": 75,
        "time": 120.75,
        "duration": 0.25,
        "velocity": 0.71,
        "hand": "right"
      },
      {
        "midi": 57,
        "time": 121,
        "duration": 0.5,
        "velocity": 0.93,
        "hand": "left"
      },
      {
        "midi": 74,
        "time": 121,
        "duration": 0.25,
        "velocity": 0.71,
        "hand": "right"
      },
      {
        "midi": 72,
        "time": 121.25,
        "duration": 0.25,
        "velocity": 0.71,
        "hand": "right"
      },
      {
        "midi": 55,
        "time": 121.5,
        "duration": 0.25,
        "velocity": 0.93,
        "hand": "left"
      },
      {
        "midi": 70,
        "time": 121.5,
        "duration": 0.25,
        "velocity": 0.71,
        "hand": "right"
      },
      {
        "midi": 57,
        "time": 121.75,
        "duration": 0.25,
        "velocity": 0.93,
        "hand": "left"
      },
      {
        "midi": 69,
        "time": 121.75,
        "duration": 0.25,
        "velocity": 0.71,
        "hand": "right"
      },
      {
        "midi": 43,
        "time": 122,
        "duration": 3.5,
        "velocity": 0.32,
        "hand": "left"
      },
      {
        "midi": 58,
        "time": 122,
        "duration": 3.5,
        "velocity": 0.93,
        "hand": "left"
      },
      {
        "midi": 67,
        "time": 122,
        "duration": 0.25,
        "velocity": 0.71,
        "hand": "right"
      },
      {
        "midi": 74,
        "time": 122.25,
        "duration": 0.25,
        "velocity": 0.71,
        "hand": "right"
      },
      {
        "midi": 73,
        "time": 122.5,
        "duration": 0.25,
        "velocity": 0.71,
        "hand": "right"
      },
      {
        "midi": 74,
        "time": 122.75,
        "duration": 0.25,
        "velocity": 0.71,
        "hand": "right"
      },
      {
        "midi": 70,
        "time": 123,
        "duration": 0.25,
        "velocity": 0.71,
        "hand": "right"
      },
      {
        "midi": 67,
        "time": 123.25,
        "duration": 0.25,
        "velocity": 0.71,
        "hand": "right"
      },
      {
        "midi": 65,
        "time": 123.5,
        "duration": 0.25,
        "velocity": 0.71,
        "hand": "right"
      },
      {
        "midi": 63,
        "time": 123.75,
        "duration": 0.25,
        "velocity": 0.71,
        "hand": "right"
      },
      {
        "midi": 62,
        "time": 124,
        "duration": 0.25,
        "velocity": 0.71,
        "hand": "right"
      },
      {
        "midi": 67,
        "time": 124.25,
        "duration": 0.25,
        "velocity": 0.71,
        "hand": "right"
      },
      {
        "midi": 66,
        "time": 124.5,
        "duration": 0.25,
        "velocity": 0.71,
        "hand": "right"
      },
      {
        "midi": 67,
        "time": 124.75,
        "duration": 0.25,
        "velocity": 0.71,
        "hand": "right"
      },
      {
        "midi": 62,
        "time": 125,
        "duration": 0.25,
        "velocity": 0.71,
        "hand": "right"
      },
      {
        "midi": 60,
        "time": 125.25,
        "duration": 0.25,
        "velocity": 0.71,
        "hand": "right"
      },
      {
        "midi": 58,
        "time": 125.5,
        "duration": 0.25,
        "velocity": 0.71,
        "hand": "left"
      },
      {
        "midi": 57,
        "time": 125.75,
        "duration": 0.25,
        "velocity": 0.71,
        "hand": "left"
      },
      {
        "midi": 55,
        "time": 126,
        "duration": 0.25,
        "velocity": 0.71,
        "hand": "left"
      },
      {
        "midi": 62,
        "time": 126.25,
        "duration": 0.25,
        "velocity": 0.71,
        "hand": "right"
      },
      {
        "midi": 61,
        "time": 126.5,
        "duration": 0.25,
        "velocity": 0.71,
        "hand": "right"
      },
      {
        "midi": 62,
        "time": 126.75,
        "duration": 0.25,
        "velocity": 0.71,
        "hand": "right"
      },
      {
        "midi": 58,
        "time": 127,
        "duration": 0.25,
        "velocity": 0.71,
        "hand": "left"
      },
      {
        "midi": 55,
        "time": 127.25,
        "duration": 0.25,
        "velocity": 0.71,
        "hand": "left"
      },
      {
        "midi": 53,
        "time": 127.5,
        "duration": 0.25,
        "velocity": 0.71,
        "hand": "left"
      },
      {
        "midi": 51,
        "time": 127.75,
        "duration": 0.25,
        "velocity": 0.71,
        "hand": "left"
      },
      {
        "midi": 50,
        "time": 128,
        "duration": 0.25,
        "velocity": 0.71,
        "hand": "left"
      },
      {
        "midi": 55,
        "time": 128.25,
        "duration": 0.25,
        "velocity": 0.71,
        "hand": "left"
      },
      {
        "midi": 50,
        "time": 128.5,
        "duration": 0.25,
        "velocity": 0.71,
        "hand": "left"
      },
      {
        "midi": 48,
        "time": 128.75,
        "duration": 0.25,
        "velocity": 0.71,
        "hand": "left"
      },
      {
        "midi": 46,
        "time": 129,
        "duration": 0.25,
        "velocity": 0.71,
        "hand": "left"
      },
      {
        "midi": 45,
        "time": 129.25,
        "duration": 0.25,
        "velocity": 0.71,
        "hand": "left"
      },
      {
        "midi": 43,
        "time": 129.5,
        "duration": 0.25,
        "velocity": 0.93,
        "hand": "left"
      },
      {
        "midi": 41,
        "time": 129.75,
        "duration": 0.25,
        "velocity": 0.93,
        "hand": "left"
      },
      {
        "midi": 39,
        "time": 130,
        "duration": 0.5,
        "velocity": 0.93,
        "hand": "left"
      },
      {
        "midi": 55,
        "time": 130,
        "duration": 1,
        "velocity": 0.71,
        "hand": "left"
      },
      {
        "midi": 67,
        "time": 130,
        "duration": 0.75,
        "velocity": 0.71,
        "hand": "right"
      },
      {
        "midi": 59,
        "time": 130.25,
        "duration": 0.25,
        "velocity": 0.93,
        "hand": "left"
      },
      {
        "midi": 60,
        "time": 130.5,
        "duration": 0.25,
        "velocity": 0.93,
        "hand": "right"
      },
      {
        "midi": 67,
        "time": 130.75,
        "duration": 0.25,
        "velocity": 0.93,
        "hand": "right"
      },
      {
        "midi": 55,
        "time": 131,
        "duration": 1,
        "velocity": 0.93,
        "hand": "left"
      },
      {
        "midi": 67,
        "time": 131,
        "duration": 1,
        "velocity": 0.93,
        "hand": "right"
      },
      {
        "midi": 71,
        "time": 131.25,
        "duration": 0.25,
        "velocity": 0.93,
        "hand": "right"
      },
      {
        "midi": 72,
        "time": 131.5,
        "duration": 0.25,
        "velocity": 0.93,
        "hand": "right"
      },
      {
        "midi": 75,
        "time": 131.75,
        "duration": 0.25,
        "velocity": 0.93,
        "hand": "right"
      },
      {
        "midi": 79,
        "time": 131.75,
        "duration": 0.25,
        "velocity": 0.93,
        "hand": "right"
      },
      {
        "midi": 55,
        "time": 132,
        "duration": 1.5,
        "velocity": 0.93,
        "hand": "left"
      },
      {
        "midi": 67,
        "time": 132,
        "duration": 1,
        "velocity": 0.71,
        "hand": "right"
      },
      {
        "midi": 59,
        "time": 132.25,
        "duration": 0.25,
        "velocity": 0.93,
        "hand": "left"
      },
      {
        "midi": 44,
        "time": 132.5,
        "duration": 1,
        "velocity": 0.32,
        "hand": "left"
      },
      {
        "midi": 48,
        "time": 132.5,
        "duration": 1,
        "velocity": 0.32,
        "hand": "left"
      },
      {
        "midi": 60,
        "time": 132.5,
        "duration": 0.25,
        "velocity": 0.93,
        "hand": "right"
      },
      {
        "midi": 63,
        "time": 132.75,
        "duration": 0.25,
        "velocity": 0.93,
        "hand": "right"
      },
      {
        "midi": 67,
        "time": 133,
        "duration": 0.5,
        "velocity": 0.93,
        "hand": "right"
      },
      {
        "midi": 72,
        "time": 133.25,
        "duration": 0.25,
        "velocity": 0.93,
        "hand": "right"
      },
      {
        "midi": 79,
        "time": 133.25,
        "duration": 0.25,
        "velocity": 0.93,
        "hand": "right"
      },
      {
        "midi": 53,
        "time": 133.5,
        "duration": 0.25,
        "velocity": 0.93,
        "hand": "left"
      },
      {
        "midi": 65,
        "time": 133.5,
        "duration": 0.25,
        "velocity": 0.71,
        "hand": "right"
      },
      {
        "midi": 51,
        "time": 133.75,
        "duration": 0.25,
        "velocity": 0.93,
        "hand": "left"
      },
      {
        "midi": 63,
        "time": 133.75,
        "duration": 0.25,
        "velocity": 0.71,
        "hand": "right"
      },
      {
        "midi": 50,
        "time": 134,
        "duration": 2,
        "velocity": 0.93,
        "hand": "left"
      },
      {
        "midi": 53,
        "time": 134,
        "duration": 2,
        "velocity": 0.93,
        "hand": "left"
      },
      {
        "midi": 62,
        "time": 134,
        "duration": 2,
        "velocity": 0.93,
        "hand": "right"
      },
      {
        "midi": 56,
        "time": 134.25,
        "duration": 0.25,
        "velocity": 0.71,
        "hand": "left"
      },
      {
        "midi": 60,
        "time": 134.5,
        "duration": 0.25,
        "velocity": 0.71,
        "hand": "right"
      },
      {
        "midi": 65,
        "time": 134.75,
        "duration": 0.25,
        "velocity": 0.71,
        "hand": "right"
      },
      {
        "midi": 68,
        "time": 134.75,
        "duration": 0.25,
        "velocity": 0.71,
        "hand": "right"
      },
      {
        "midi": 65,
        "time": 135,
        "duration": 0.25,
        "velocity": 0.71,
        "hand": "right"
      },
      {
        "midi": 68,
        "time": 135,
        "duration": 0.25,
        "velocity": 0.71,
        "hand": "right"
      },
      {
        "midi": 60,
        "time": 135.25,
        "duration": 0.25,
        "velocity": 0.71,
        "hand": "right"
      },
      {
        "midi": 56,
        "time": 135.5,
        "duration": 0.25,
        "velocity": 0.71,
        "hand": "left"
      },
      {
        "midi": 60,
        "time": 135.75,
        "duration": 0.25,
        "velocity": 0.71,
        "hand": "right"
      },
      {
        "midi": 32,
        "time": 136,
        "duration": 1,
        "velocity": 0.93,
        "hand": "left"
      },
      {
        "midi": 44,
        "time": 136,
        "duration": 1,
        "velocity": 0.93,
        "hand": "left"
      },
      {
        "midi": 50,
        "time": 136.25,
        "duration": 0.25,
        "velocity": 0.71,
        "hand": "left"
      },
      {
        "midi": 53,
        "time": 136.5,
        "duration": 0.25,
        "velocity": 0.71,
        "hand": "left"
      },
      {
        "midi": 60,
        "time": 136.75,
        "duration": 0.25,
        "velocity": 0.71,
        "hand": "right"
      },
      {
        "midi": 62,
        "time": 136.75,
        "duration": 0.25,
        "velocity": 0.71,
        "hand": "right"
      },
      {
        "midi": 31,
        "time": 137,
        "duration": 1,
        "velocity": 0.93,
        "hand": "left"
      },
      {
        "midi": 43,
        "time": 137,
        "duration": 1,
        "velocity": 0.93,
        "hand": "left"
      },
      {
        "midi": 50,
        "time": 137.25,
        "duration": 0.25,
        "velocity": 0.71,
        "hand": "left"
      },
      {
        "midi": 53,
        "time": 137.5,
        "duration": 0.25,
        "velocity": 0.71,
        "hand": "left"
      },
      {
        "midi": 59,
        "time": 137.75,
        "duration": 0.25,
        "velocity": 0.71,
        "hand": "left"
      },
      {
        "midi": 62,
        "time": 137.75,
        "duration": 0.25,
        "velocity": 0.71,
        "hand": "right"
      },
      {
        "midi": 39,
        "time": 138,
        "duration": 0.5,
        "velocity": 0.93,
        "hand": "left"
      },
      {
        "midi": 55,
        "time": 138,
        "duration": 1,
        "velocity": 0.71,
        "hand": "left"
      },
      {
        "midi": 67,
        "time": 138,
        "duration": 0.75,
        "velocity": 0.71,
        "hand": "right"
      },
      {
        "midi": 59,
        "time": 138.25,
        "duration": 0.25,
        "velocity": 0.93,
        "hand": "left"
      },
      {
        "midi": 60,
        "time": 138.5,
        "duration": 0.25,
        "velocity": 0.93,
        "hand": "right"
      },
      {
        "midi": 67,
        "time": 138.75,
        "duration": 0.25,
        "velocity": 0.93,
        "hand": "right"
      },
      {
        "midi": 55,
        "time": 139,
        "duration": 1,
        "velocity": 0.93,
        "hand": "left"
      },
      {
        "midi": 67,
        "time": 139,
        "duration": 1,
        "velocity": 0.93,
        "hand": "right"
      },
      {
        "midi": 71,
        "time": 139.25,
        "duration": 0.25,
        "velocity": 0.93,
        "hand": "right"
      },
      {
        "midi": 72,
        "time": 139.5,
        "duration": 0.25,
        "velocity": 0.93,
        "hand": "right"
      },
      {
        "midi": 75,
        "time": 139.75,
        "duration": 0.25,
        "velocity": 0.93,
        "hand": "right"
      },
      {
        "midi": 79,
        "time": 139.75,
        "duration": 0.25,
        "velocity": 0.93,
        "hand": "right"
      },
      {
        "midi": 55,
        "time": 140,
        "duration": 1.5,
        "velocity": 0.93,
        "hand": "left"
      },
      {
        "midi": 67,
        "time": 140,
        "duration": 1,
        "velocity": 0.71,
        "hand": "right"
      },
      {
        "midi": 59,
        "time": 140.25,
        "duration": 0.25,
        "velocity": 0.93,
        "hand": "left"
      },
      {
        "midi": 44,
        "time": 140.5,
        "duration": 1,
        "velocity": 0.32,
        "hand": "left"
      },
      {
        "midi": 48,
        "time": 140.5,
        "duration": 1,
        "velocity": 0.32,
        "hand": "left"
      },
      {
        "midi": 60,
        "time": 140.5,
        "duration": 0.25,
        "velocity": 0.93,
        "hand": "right"
      },
      {
        "midi": 63,
        "time": 140.75,
        "duration": 0.25,
        "velocity": 0.93,
        "hand": "right"
      },
      {
        "midi": 67,
        "time": 141,
        "duration": 0.5,
        "velocity": 0.93,
        "hand": "right"
      },
      {
        "midi": 72,
        "time": 141.25,
        "duration": 0.25,
        "velocity": 0.93,
        "hand": "right"
      },
      {
        "midi": 79,
        "time": 141.25,
        "duration": 0.25,
        "velocity": 0.93,
        "hand": "right"
      },
      {
        "midi": 53,
        "time": 141.5,
        "duration": 0.25,
        "velocity": 0.93,
        "hand": "left"
      },
      {
        "midi": 65,
        "time": 141.5,
        "duration": 0.25,
        "velocity": 0.71,
        "hand": "right"
      },
      {
        "midi": 51,
        "time": 141.75,
        "duration": 0.25,
        "velocity": 0.93,
        "hand": "left"
      },
      {
        "midi": 63,
        "time": 141.75,
        "duration": 0.25,
        "velocity": 0.71,
        "hand": "right"
      },
      {
        "midi": 50,
        "time": 142,
        "duration": 2,
        "velocity": 0.93,
        "hand": "left"
      },
      {
        "midi": 53,
        "time": 142,
        "duration": 2,
        "velocity": 0.93,
        "hand": "left"
      },
      {
        "midi": 62,
        "time": 142,
        "duration": 2,
        "velocity": 0.93,
        "hand": "right"
      },
      {
        "midi": 56,
        "time": 142.25,
        "duration": 0.25,
        "velocity": 0.71,
        "hand": "left"
      },
      {
        "midi": 60,
        "time": 142.5,
        "duration": 0.25,
        "velocity": 0.71,
        "hand": "right"
      },
      {
        "midi": 65,
        "time": 142.75,
        "duration": 0.25,
        "velocity": 0.71,
        "hand": "right"
      },
      {
        "midi": 68,
        "time": 142.75,
        "duration": 0.25,
        "velocity": 0.71,
        "hand": "right"
      },
      {
        "midi": 65,
        "time": 143,
        "duration": 0.25,
        "velocity": 0.71,
        "hand": "right"
      },
      {
        "midi": 68,
        "time": 143,
        "duration": 0.25,
        "velocity": 0.71,
        "hand": "right"
      },
      {
        "midi": 60,
        "time": 143.25,
        "duration": 0.25,
        "velocity": 0.71,
        "hand": "right"
      },
      {
        "midi": 56,
        "time": 143.5,
        "duration": 0.25,
        "velocity": 0.71,
        "hand": "left"
      },
      {
        "midi": 60,
        "time": 143.75,
        "duration": 0.25,
        "velocity": 0.71,
        "hand": "right"
      },
      {
        "midi": 32,
        "time": 144,
        "duration": 1,
        "velocity": 0.93,
        "hand": "left"
      },
      {
        "midi": 44,
        "time": 144,
        "duration": 1,
        "velocity": 0.93,
        "hand": "left"
      },
      {
        "midi": 50,
        "time": 144.25,
        "duration": 0.25,
        "velocity": 0.71,
        "hand": "left"
      },
      {
        "midi": 53,
        "time": 144.5,
        "duration": 0.25,
        "velocity": 0.71,
        "hand": "left"
      },
      {
        "midi": 60,
        "time": 144.75,
        "duration": 0.25,
        "velocity": 0.71,
        "hand": "right"
      },
      {
        "midi": 62,
        "time": 144.75,
        "duration": 0.25,
        "velocity": 0.71,
        "hand": "right"
      },
      {
        "midi": 31,
        "time": 145,
        "duration": 1,
        "velocity": 0.93,
        "hand": "left"
      },
      {
        "midi": 43,
        "time": 145,
        "duration": 1,
        "velocity": 0.93,
        "hand": "left"
      },
      {
        "midi": 50,
        "time": 145.25,
        "duration": 0.25,
        "velocity": 0.71,
        "hand": "left"
      },
      {
        "midi": 53,
        "time": 145.5,
        "duration": 0.25,
        "velocity": 0.71,
        "hand": "left"
      },
      {
        "midi": 59,
        "time": 145.75,
        "duration": 0.25,
        "velocity": 0.71,
        "hand": "left"
      },
      {
        "midi": 62,
        "time": 145.75,
        "duration": 0.25,
        "velocity": 0.71,
        "hand": "right"
      },
      {
        "midi": 48,
        "time": 146,
        "duration": 1,
        "velocity": 0.93,
        "hand": "left"
      },
      {
        "midi": 60,
        "time": 146,
        "duration": 1,
        "velocity": 0.71,
        "hand": "right"
      },
      {
        "midi": 51,
        "time": 146.25,
        "duration": 0.25,
        "velocity": 0.93,
        "hand": "left"
      },
      {
        "midi": 36,
        "time": 146.5,
        "duration": 0.5,
        "velocity": 0.32,
        "hand": "left"
      },
      {
        "midi": 43,
        "time": 146.5,
        "duration": 0.5,
        "velocity": 0.32,
        "hand": "left"
      },
      {
        "midi": 55,
        "time": 146.5,
        "duration": 0.25,
        "velocity": 0.93,
        "hand": "left"
      },
      {
        "midi": 51,
        "time": 146.75,
        "duration": 0.25,
        "velocity": 0.93,
        "hand": "left"
      },
      {
        "midi": 48,
        "time": 147,
        "duration": 0.5,
        "velocity": 0.93,
        "hand": "left"
      },
      {
        "midi": 60,
        "time": 147,
        "duration": 0.5,
        "velocity": 0.93,
        "hand": "right"
      },
      {
        "midi": 63,
        "time": 147.25,
        "duration": 0.25,
        "velocity": 0.71,
        "hand": "right"
      },
      {
        "midi": 50,
        "time": 147.5,
        "duration": 0.5,
        "velocity": 0.93,
        "hand": "left"
      },
      {
        "midi": 67,
        "time": 147.5,
        "duration": 0.25,
        "velocity": 0.71,
        "hand": "right"
      },
      {
        "midi": 72,
        "time": 147.5,
        "duration": 0.25,
        "velocity": 0.71,
        "hand": "right"
      },
      {
        "midi": 63,
        "time": 147.75,
        "duration": 0.25,
        "velocity": 0.71,
        "hand": "right"
      },
      {
        "midi": 53,
        "time": 148,
        "duration": 0.5,
        "velocity": 0.93,
        "hand": "left"
      },
      {
        "midi": 65,
        "time": 148,
        "duration": 0.5,
        "velocity": 0.93,
        "hand": "right"
      },
      {
        "midi": 67,
        "time": 148.25,
        "duration": 0.25,
        "velocity": 0.71,
        "hand": "right"
      },
      {
        "midi": 51,
        "time": 148.5,
        "duration": 0.5,
        "velocity": 0.93,
        "hand": "left"
      },
      {
        "midi": 72,
        "time": 148.5,
        "duration": 0.25,
        "velocity": 0.71,
        "hand": "right"
      },
      {
        "midi": 75,
        "time": 148.5,
        "duration": 0.25,
        "velocity": 0.71,
        "hand": "right"
      },
      {
        "midi": 67,
        "time": 148.75,
        "duration": 0.25,
        "velocity": 0.71,
        "hand": "right"
      },
      {
        "midi": 50,
        "time": 149,
        "duration": 0.5,
        "velocity": 0.93,
        "hand": "left"
      },
      {
        "midi": 62,
        "time": 149,
        "duration": 0.5,
        "velocity": 0.93,
        "hand": "right"
      },
      {
        "midi": 72,
        "time": 149.25,
        "duration": 0.25,
        "velocity": 0.71,
        "hand": "right"
      },
      {
        "midi": 48,
        "time": 149.5,
        "duration": 0.5,
        "velocity": 0.93,
        "hand": "left"
      },
      {
        "midi": 75,
        "time": 149.5,
        "duration": 0.25,
        "velocity": 0.71,
        "hand": "right"
      },
      {
        "midi": 79,
        "time": 149.5,
        "duration": 0.25,
        "velocity": 0.71,
        "hand": "right"
      },
      {
        "midi": 72,
        "time": 149.75,
        "duration": 0.25,
        "velocity": 0.71,
        "hand": "right"
      },
      {
        "midi": 51,
        "time": 150,
        "duration": 1,
        "velocity": 0.75,
        "hand": "left"
      },
      {
        "midi": 63,
        "time": 150,
        "duration": 3,
        "velocity": 0.75,
        "hand": "right"
      },
      {
        "midi": 75,
        "time": 150.25,
        "duration": 0.25,
        "velocity": 0.71,
        "hand": "right"
      },
      {
        "midi": 79,
        "time": 150.5,
        "duration": 0.25,
        "velocity": 0.71,
        "hand": "right"
      },
      {
        "midi": 82,
        "time": 150.5,
        "duration": 0.25,
        "velocity": 0.71,
        "hand": "right"
      },
      {
        "midi": 75,
        "time": 150.75,
        "duration": 0.25,
        "velocity": 0.71,
        "hand": "right"
      },
      {
        "midi": 43,
        "time": 151,
        "duration": 2,
        "velocity": 0.32,
        "hand": "left"
      },
      {
        "midi": 55,
        "time": 151,
        "duration": 2,
        "velocity": 0.32,
        "hand": "left"
      },
      {
        "midi": 87,
        "time": 151,
        "duration": 0.25,
        "velocity": 0.71,
        "hand": "right"
      },
      {
        "midi": 75,
        "time": 151.25,
        "duration": 0.25,
        "velocity": 0.71,
        "hand": "right"
      },
      {
        "midi": 79,
        "time": 151.5,
        "duration": 0.25,
        "velocity": 0.71,
        "hand": "right"
      },
      {
        "midi": 82,
        "time": 151.5,
        "duration": 0.25,
        "velocity": 0.71,
        "hand": "right"
      },
      {
        "midi": 75,
        "time": 151.75,
        "duration": 0.25,
        "velocity": 0.71,
        "hand": "right"
      },
      {
        "midi": 75,
        "time": 152,
        "duration": 0.25,
        "velocity": 0.71,
        "hand": "right"
      },
      {
        "midi": 79,
        "time": 152,
        "duration": 0.25,
        "velocity": 0.71,
        "hand": "right"
      },
      {
        "midi": 70,
        "time": 152.25,
        "duration": 0.25,
        "velocity": 0.71,
        "hand": "right"
      },
      {
        "midi": 70,
        "time": 152.5,
        "duration": 0.25,
        "velocity": 0.71,
        "hand": "right"
      },
      {
        "midi": 75,
        "time": 152.5,
        "duration": 0.25,
        "velocity": 0.71,
        "hand": "right"
      },
      {
        "midi": 67,
        "time": 152.75,
        "duration": 0.25,
        "velocity": 0.71,
        "hand": "right"
      },
      {
        "midi": 51,
        "time": 153,
        "duration": 1,
        "velocity": 0.75,
        "hand": "left"
      },
      {
        "midi": 55,
        "time": 153,
        "duration": 1,
        "velocity": 0.75,
        "hand": "left"
      },
      {
        "midi": 63,
        "time": 153,
        "duration": 1,
        "velocity": 0.75,
        "hand": "right"
      },
      {
        "midi": 58,
        "time": 153.25,
        "duration": 0.25,
        "velocity": 0.71,
        "hand": "left"
      },
      {
        "midi": 67,
        "time": 153.5,
        "duration": 0.25,
        "velocity": 0.71,
        "hand": "right"
      },
      {
        "midi": 70,
        "time": 153.5,
        "duration": 0.25,
        "velocity": 0.71,
        "hand": "right"
      },
      {
        "midi": 58,
        "time": 153.75,
        "duration": 0.25,
        "velocity": 0.71,
        "hand": "left"
      },
      {
        "midi": 50,
        "time": 154,
        "duration": 1,
        "velocity": 0.75,
        "hand": "left"
      },
      {
        "midi": 53,
        "time": 154,
        "duration": 1,
        "velocity": 0.75,
        "hand": "left"
      },
      {
        "midi": 62,
        "time": 154,
        "duration": 1,
        "velocity": 0.75,
        "hand": "right"
      },
      {
        "midi": 58,
        "time": 154.25,
        "duration": 0.25,
        "velocity": 0.71,
        "hand": "left"
      },
      {
        "midi": 65,
        "time": 154.5,
        "duration": 0.25,
        "velocity": 0.71,
        "hand": "right"
      },
      {
        "midi": 70,
        "time": 154.5,
        "duration": 0.25,
        "velocity": 0.71,
        "hand": "right"
      },
      {
        "midi": 58,
        "time": 154.75,
        "duration": 0.25,
        "velocity": 0.71,
        "hand": "left"
      },
      {
        "midi": 48,
        "time": 155,
        "duration": 1,
        "velocity": 0.7,
        "hand": "left"
      },
      {
        "midi": 55,
        "time": 155,
        "duration": 1,
        "velocity": 0.7,
        "hand": "left"
      },
      {
        "midi": 60,
        "time": 155,
        "duration": 1,
        "velocity": 0.7,
        "hand": "right"
      },
      {
        "midi": 63,
        "time": 155.25,
        "duration": 0.25,
        "velocity": 0.71,
        "hand": "right"
      },
      {
        "midi": 67,
        "time": 155.5,
        "duration": 0.25,
        "velocity": 0.71,
        "hand": "right"
      },
      {
        "midi": 72,
        "time": 155.5,
        "duration": 0.25,
        "velocity": 0.71,
        "hand": "right"
      },
      {
        "midi": 75,
        "time": 155.5,
        "duration": 0.25,
        "velocity": 0.71,
        "hand": "right"
      },
      {
        "midi": 63,
        "time": 155.75,
        "duration": 0.25,
        "velocity": 0.71,
        "hand": "right"
      },
      {
        "midi": 43,
        "time": 156,
        "duration": 1,
        "velocity": 0.65,
        "hand": "left"
      },
      {
        "midi": 50,
        "time": 156,
        "duration": 1,
        "velocity": 0.65,
        "hand": "left"
      },
      {
        "midi": 55,
        "time": 156,
        "duration": 1,
        "velocity": 0.65,
        "hand": "left"
      },
      {
        "midi": 67,
        "time": 156.25,
        "duration": 0.25,
        "velocity": 0.71,
        "hand": "right"
      },
      {
        "midi": 70,
        "time": 156.5,
        "duration": 0.25,
        "velocity": 0.71,
        "hand": "right"
      },
      {
        "midi": 74,
        "time": 156.5,
        "duration": 0.25,
        "velocity": 0.71,
        "hand": "right"
      },
      {
        "midi": 79,
        "time": 156.5,
        "duration": 0.25,
        "velocity": 0.71,
        "hand": "right"
      },
      {
        "midi": 67,
        "time": 156.75,
        "duration": 0.25,
        "velocity": 0.71,
        "hand": "right"
      },
      {
        "midi": 39,
        "time": 157,
        "duration": 0.5,
        "velocity": 0.61,
        "hand": "left"
      },
      {
        "midi": 60,
        "time": 157,
        "duration": 0.75,
        "velocity": 0.71,
        "hand": "right"
      },
      {
        "midi": 48,
        "time": 157.25,
        "duration": 0.25,
        "velocity": 0.93,
        "hand": "left"
      },
      {
        "midi": 51,
        "time": 157.5,
        "duration": 0.5,
        "velocity": 0.61,
        "hand": "left"
      },
      {
        "midi": 55,
        "time": 157.5,
        "duration": 0.5,
        "velocity": 0.93,
        "hand": "left"
      },
      {
        "midi": 62,
        "time": 157.75,
        "duration": 0.25,
        "velocity": 0.71,
        "hand": "right"
      },
      {
        "midi": 34,
        "time": 158,
        "duration": 0.5,
        "velocity": 0.61,
        "hand": "left"
      },
      {
        "midi": 55,
        "time": 158,
        "duration": 0.75,
        "velocity": 0.71,
        "hand": "left"
      },
      {
        "midi": 60,
        "time": 158,
        "duration": 0.25,
        "velocity": 0.71,
        "hand": "right"
      },
      {
        "midi": 50,
        "time": 158.25,
        "duration": 0.5,
        "velocity": 0.93,
        "hand": "left"
      },
      {
        "midi": 46,
        "time": 158.5,
        "duration": 0.5,
        "velocity": 0.61,
        "hand": "left"
      },
      {
        "midi": 50,
        "time": 158.75,
        "duration": 0.25,
        "velocity": 0.93,
        "hand": "left"
      },
      {
        "midi": 55,
        "time": 158.75,
        "duration": 0.25,
        "velocity": 0.71,
        "hand": "left"
      },
      {
        "midi": 50,
        "time": 159,
        "duration": 0.25,
        "velocity": 0.61,
        "hand": "left"
      },
      {
        "midi": 55,
        "time": 159.25,
        "duration": 0.25,
        "velocity": 0.71,
        "hand": "left"
      },
      {
        "midi": 58,
        "time": 159.25,
        "duration": 0.25,
        "velocity": 0.71,
        "hand": "left"
      },
      {
        "midi": 55,
        "time": 159.5,
        "duration": 0.25,
        "velocity": 0.61,
        "hand": "left"
      },
      {
        "midi": 58,
        "time": 159.75,
        "duration": 0.25,
        "velocity": 0.71,
        "hand": "left"
      },
      {
        "midi": 62,
        "time": 159.75,
        "duration": 0.25,
        "velocity": 0.71,
        "hand": "right"
      },
      {
        "midi": 58,
        "time": 160,
        "duration": 0.25,
        "velocity": 0.61,
        "hand": "left"
      },
      {
        "midi": 62,
        "time": 160.25,
        "duration": 0.25,
        "velocity": 0.71,
        "hand": "right"
      },
      {
        "midi": 67,
        "time": 160.25,
        "duration": 0.25,
        "velocity": 0.71,
        "hand": "right"
      },
      {
        "midi": 62,
        "time": 160.5,
        "duration": 0.25,
        "velocity": 0.61,
        "hand": "right"
      },
      {
        "midi": 67,
        "time": 160.75,
        "duration": 0.25,
        "velocity": 0.71,
        "hand": "right"
      },
      {
        "midi": 70,
        "time": 160.75,
        "duration": 0.25,
        "velocity": 0.71,
        "hand": "right"
      },
      {
        "midi": 51,
        "time": 161,
        "duration": 0.5,
        "velocity": 0.61,
        "hand": "left"
      },
      {
        "midi": 72,
        "time": 161,
        "duration": 0.75,
        "velocity": 0.71,
        "hand": "right"
      },
      {
        "midi": 60,
        "time": 161.25,
        "duration": 0.25,
        "velocity": 0.54,
        "hand": "right"
      },
      {
        "midi": 63,
        "time": 161.5,
        "duration": 0.5,
        "velocity": 0.61,
        "hand": "right"
      },
      {
        "midi": 67,
        "time": 161.5,
        "duration": 0.5,
        "velocity": 0.54,
        "hand": "right"
      },
      {
        "midi": 74,
        "time": 161.75,
        "duration": 0.25,
        "velocity": 0.71,
        "hand": "right"
      },
      {
        "midi": 46,
        "time": 162,
        "duration": 0.5,
        "velocity": 0.61,
        "hand": "left"
      },
      {
        "midi": 67,
        "time": 162,
        "duration": 0.75,
        "velocity": 0.71,
        "hand": "right"
      },
      {
        "midi": 72,
        "time": 162,
        "duration": 0.25,
        "velocity": 0.71,
        "hand": "right"
      },
      {
        "midi": 62,
        "time": 162.25,
        "duration": 0.5,
        "velocity": 0.54,
        "hand": "right"
      },
      {
        "midi": 58,
        "time": 162.5,
        "duration": 0.5,
        "velocity": 0.61,
        "hand": "left"
      },
      {
        "midi": 62,
        "time": 162.75,
        "duration": 0.25,
        "velocity": 0.54,
        "hand": "right"
      },
      {
        "midi": 67,
        "time": 162.75,
        "duration": 0.25,
        "velocity": 0.71,
        "hand": "right"
      },
      {
        "midi": 62,
        "time": 163,
        "duration": 0.25,
        "velocity": 0.61,
        "hand": "right"
      },
      {
        "midi": 67,
        "time": 163.25,
        "duration": 0.25,
        "velocity": 0.71,
        "hand": "right"
      },
      {
        "midi": 70,
        "time": 163.25,
        "duration": 0.25,
        "velocity": 0.71,
        "hand": "right"
      },
      {
        "midi": 67,
        "time": 163.5,
        "duration": 0.25,
        "velocity": 0.61,
        "hand": "right"
      },
      {
        "midi": 70,
        "time": 163.75,
        "duration": 0.25,
        "velocity": 0.71,
        "hand": "right"
      },
      {
        "midi": 74,
        "time": 163.75,
        "duration": 0.25,
        "velocity": 0.71,
        "hand": "right"
      },
      {
        "midi": 70,
        "time": 164,
        "duration": 0.25,
        "velocity": 0.61,
        "hand": "right"
      },
      {
        "midi": 74,
        "time": 164.25,
        "duration": 0.25,
        "velocity": 0.71,
        "hand": "right"
      },
      {
        "midi": 79,
        "time": 164.25,
        "duration": 0.25,
        "velocity": 0.71,
        "hand": "right"
      },
      {
        "midi": 74,
        "time": 164.5,
        "duration": 0.25,
        "velocity": 0.61,
        "hand": "right"
      },
      {
        "midi": 79,
        "time": 164.75,
        "duration": 0.25,
        "velocity": 0.71,
        "hand": "right"
      },
      {
        "midi": 82,
        "time": 164.75,
        "duration": 0.25,
        "velocity": 0.71,
        "hand": "right"
      },
      {
        "midi": 63,
        "time": 165,
        "duration": 0.5,
        "velocity": 0.61,
        "hand": "right"
      },
      {
        "midi": 84,
        "time": 165,
        "duration": 0.75,
        "velocity": 0.71,
        "hand": "right"
      },
      {
        "midi": 72,
        "time": 165.25,
        "duration": 0.25,
        "velocity": 0.49,
        "hand": "right"
      },
      {
        "midi": 75,
        "time": 165.5,
        "duration": 0.5,
        "velocity": 0.61,
        "hand": "right"
      },
      {
        "midi": 79,
        "time": 165.5,
        "duration": 0.5,
        "velocity": 0.49,
        "hand": "right"
      },
      {
        "midi": 86,
        "time": 165.75,
        "duration": 0.25,
        "velocity": 0.71,
        "hand": "right"
      },
      {
        "midi": 58,
        "time": 166,
        "duration": 0.5,
        "velocity": 0.61,
        "hand": "left"
      },
      {
        "midi": 79,
        "time": 166,
        "duration": 0.75,
        "velocity": 0.71,
        "hand": "right"
      },
      {
        "midi": 84,
        "time": 166,
        "duration": 0.25,
        "velocity": 0.71,
        "hand": "right"
      },
      {
        "midi": 74,
        "time": 166.25,
        "duration": 0.5,
        "velocity": 0.49,
        "hand": "right"
      },
      {
        "midi": 70,
        "time": 166.5,
        "duration": 0.5,
        "velocity": 0.61,
        "hand": "right"
      },
      {
        "midi": 74,
        "time": 166.75,
        "duration": 0.25,
        "velocity": 0.49,
        "hand": "right"
      },
      {
        "midi": 79,
        "time": 166.75,
        "duration": 0.25,
        "velocity": 0.71,
        "hand": "right"
      },
      {
        "midi": 74,
        "time": 167,
        "duration": 0.25,
        "velocity": 0.61,
        "hand": "right"
      },
      {
        "midi": 79,
        "time": 167.25,
        "duration": 0.25,
        "velocity": 0.71,
        "hand": "right"
      },
      {
        "midi": 82,
        "time": 167.25,
        "duration": 0.25,
        "velocity": 0.71,
        "hand": "right"
      },
      {
        "midi": 79,
        "time": 167.5,
        "duration": 0.25,
        "velocity": 0.61,
        "hand": "right"
      },
      {
        "midi": 82,
        "time": 167.75,
        "duration": 0.25,
        "velocity": 0.71,
        "hand": "right"
      },
      {
        "midi": 86,
        "time": 167.75,
        "duration": 0.25,
        "velocity": 0.71,
        "hand": "right"
      },
      {
        "midi": 82,
        "time": 168,
        "duration": 0.25,
        "velocity": 0.61,
        "hand": "right"
      },
      {
        "midi": 86,
        "time": 168.25,
        "duration": 0.25,
        "velocity": 0.71,
        "hand": "right"
      },
      {
        "midi": 91,
        "time": 168.25,
        "duration": 0.25,
        "velocity": 0.71,
        "hand": "right"
      },
      {
        "midi": 86,
        "time": 168.5,
        "duration": 0.25,
        "velocity": 0.61,
        "hand": "right"
      },
      {
        "midi": 91,
        "time": 168.75,
        "duration": 0.25,
        "velocity": 0.71,
        "hand": "right"
      },
      {
        "midi": 94,
        "time": 168.75,
        "duration": 0.25,
        "velocity": 0.71,
        "hand": "right"
      },
      {
        "midi": 91,
        "time": 169,
        "duration": 0.25,
        "velocity": 0.61,
        "hand": "right"
      },
      {
        "midi": 94,
        "time": 169.25,
        "duration": 0.25,
        "velocity": 0.71,
        "hand": "right"
      },
      {
        "midi": 98,
        "time": 169.25,
        "duration": 0.25,
        "velocity": 0.71,
        "hand": "right"
      },
      {
        "midi": 94,
        "time": 169.5,
        "duration": 0.25,
        "velocity": 0.61,
        "hand": "right"
      },
      {
        "midi": 98,
        "time": 169.75,
        "duration": 0.25,
        "velocity": 0.71,
        "hand": "right"
      },
      {
        "midi": 103,
        "time": 169.75,
        "duration": 0.25,
        "velocity": 0.71,
        "hand": "right"
      },
      {
        "midi": 91,
        "time": 170,
        "duration": 0.25,
        "velocity": 0.61,
        "hand": "right"
      },
      {
        "midi": 94,
        "time": 170.25,
        "duration": 0.25,
        "velocity": 0.71,
        "hand": "right"
      },
      {
        "midi": 98,
        "time": 170.25,
        "duration": 0.25,
        "velocity": 0.71,
        "hand": "right"
      },
      {
        "midi": 94,
        "time": 170.5,
        "duration": 0.25,
        "velocity": 0.61,
        "hand": "right"
      },
      {
        "midi": 98,
        "time": 170.75,
        "duration": 0.25,
        "velocity": 0.71,
        "hand": "right"
      },
      {
        "midi": 103,
        "time": 170.75,
        "duration": 0.25,
        "velocity": 0.71,
        "hand": "right"
      },
      {
        "midi": 91,
        "time": 171,
        "duration": 0.25,
        "velocity": 0.61,
        "hand": "right"
      },
      {
        "midi": 94,
        "time": 171.25,
        "duration": 0.25,
        "velocity": 0.71,
        "hand": "right"
      },
      {
        "midi": 98,
        "time": 171.25,
        "duration": 0.25,
        "velocity": 0.71,
        "hand": "right"
      },
      {
        "midi": 94,
        "time": 171.5,
        "duration": 0.25,
        "velocity": 0.61,
        "hand": "right"
      },
      {
        "midi": 98,
        "time": 171.75,
        "duration": 0.25,
        "velocity": 0.71,
        "hand": "right"
      },
      {
        "midi": 103,
        "time": 171.75,
        "duration": 0.25,
        "velocity": 0.71,
        "hand": "right"
      },
      {
        "midi": 91,
        "time": 172,
        "duration": 0.25,
        "velocity": 0.61,
        "hand": "right"
      },
      {
        "midi": 94,
        "time": 172.25,
        "duration": 0.25,
        "velocity": 0.71,
        "hand": "right"
      },
      {
        "midi": 98,
        "time": 172.25,
        "duration": 0.25,
        "velocity": 0.71,
        "hand": "right"
      },
      {
        "midi": 94,
        "time": 172.5,
        "duration": 0.25,
        "velocity": 0.61,
        "hand": "right"
      },
      {
        "midi": 98,
        "time": 172.75,
        "duration": 0.25,
        "velocity": 0.71,
        "hand": "right"
      },
      {
        "midi": 103,
        "time": 172.75,
        "duration": 0.25,
        "velocity": 0.71,
        "hand": "right"
      },
      {
        "midi": 91,
        "time": 173,
        "duration": 0.25,
        "velocity": 0.61,
        "hand": "right"
      },
      {
        "midi": 94,
        "time": 173.25,
        "duration": 0.25,
        "velocity": 0.71,
        "hand": "right"
      },
      {
        "midi": 98,
        "time": 173.25,
        "duration": 0.25,
        "velocity": 0.71,
        "hand": "right"
      },
      {
        "midi": 94,
        "time": 173.5,
        "duration": 0.25,
        "velocity": 0.61,
        "hand": "right"
      },
      {
        "midi": 98,
        "time": 173.75,
        "duration": 0.25,
        "velocity": 0.71,
        "hand": "right"
      },
      {
        "midi": 103,
        "time": 173.75,
        "duration": 0.25,
        "velocity": 0.71,
        "hand": "right"
      },
      {
        "midi": 91,
        "time": 174,
        "duration": 0.5,
        "velocity": 0.61,
        "hand": "right"
      },
      {
        "midi": 94,
        "time": 174.25,
        "duration": 0.25,
        "velocity": 0.61,
        "hand": "right"
      },
      {
        "midi": 98,
        "time": 174.25,
        "duration": 0.25,
        "velocity": 0.61,
        "hand": "right"
      },
      {
        "midi": 87,
        "time": 174.5,
        "duration": 0.25,
        "velocity": 0.61,
        "hand": "right"
      },
      {
        "midi": 96,
        "time": 174.5,
        "duration": 0.25,
        "velocity": 0.61,
        "hand": "right"
      },
      {
        "midi": 103,
        "time": 174.5,
        "duration": 0.25,
        "velocity": 0.61,
        "hand": "right"
      },
      {
        "midi": 91,
        "time": 174.75,
        "duration": 0.25,
        "velocity": 0.61,
        "hand": "right"
      },
      {
        "midi": 94,
        "time": 174.75,
        "duration": 0.25,
        "velocity": 0.61,
        "hand": "right"
      },
      {
        "midi": 98,
        "time": 174.75,
        "duration": 0.25,
        "velocity": 0.61,
        "hand": "right"
      },
      {
        "midi": 87,
        "time": 175,
        "duration": 0.25,
        "velocity": 0.61,
        "hand": "right"
      },
      {
        "midi": 96,
        "time": 175,
        "duration": 0.25,
        "velocity": 0.61,
        "hand": "right"
      },
      {
        "midi": 103,
        "time": 175,
        "duration": 0.25,
        "velocity": 0.61,
        "hand": "right"
      },
      {
        "midi": 91,
        "time": 175.25,
        "duration": 0.25,
        "velocity": 0.61,
        "hand": "right"
      },
      {
        "midi": 94,
        "time": 175.25,
        "duration": 0.25,
        "velocity": 0.61,
        "hand": "right"
      },
      {
        "midi": 98,
        "time": 175.25,
        "duration": 0.25,
        "velocity": 0.61,
        "hand": "right"
      },
      {
        "midi": 87,
        "time": 175.5,
        "duration": 0.25,
        "velocity": 0.61,
        "hand": "right"
      },
      {
        "midi": 96,
        "time": 175.5,
        "duration": 0.25,
        "velocity": 0.61,
        "hand": "right"
      },
      {
        "midi": 103,
        "time": 175.5,
        "duration": 0.25,
        "velocity": 0.61,
        "hand": "right"
      },
      {
        "midi": 91,
        "time": 175.75,
        "duration": 0.25,
        "velocity": 0.61,
        "hand": "right"
      },
      {
        "midi": 94,
        "time": 175.75,
        "duration": 0.25,
        "velocity": 0.61,
        "hand": "right"
      },
      {
        "midi": 98,
        "time": 175.75,
        "duration": 0.25,
        "velocity": 0.61,
        "hand": "right"
      },
      {
        "midi": 87,
        "time": 176,
        "duration": 0.25,
        "velocity": 0.61,
        "hand": "right"
      },
      {
        "midi": 96,
        "time": 176,
        "duration": 0.25,
        "velocity": 0.61,
        "hand": "right"
      },
      {
        "midi": 103,
        "time": 176,
        "duration": 0.25,
        "velocity": 0.61,
        "hand": "right"
      },
      {
        "midi": 91,
        "time": 176.25,
        "duration": 0.25,
        "velocity": 0.61,
        "hand": "right"
      },
      {
        "midi": 94,
        "time": 176.25,
        "duration": 0.25,
        "velocity": 0.61,
        "hand": "right"
      },
      {
        "midi": 98,
        "time": 176.25,
        "duration": 0.25,
        "velocity": 0.61,
        "hand": "right"
      },
      {
        "midi": 87,
        "time": 176.5,
        "duration": 0.25,
        "velocity": 0.61,
        "hand": "right"
      },
      {
        "midi": 96,
        "time": 176.5,
        "duration": 0.25,
        "velocity": 0.61,
        "hand": "right"
      },
      {
        "midi": 103,
        "time": 176.5,
        "duration": 0.25,
        "velocity": 0.61,
        "hand": "right"
      },
      {
        "midi": 91,
        "time": 176.75,
        "duration": 0.25,
        "velocity": 0.61,
        "hand": "right"
      },
      {
        "midi": 94,
        "time": 176.75,
        "duration": 0.25,
        "velocity": 0.61,
        "hand": "right"
      },
      {
        "midi": 98,
        "time": 176.75,
        "duration": 0.25,
        "velocity": 0.61,
        "hand": "right"
      },
      {
        "midi": 87,
        "time": 177,
        "duration": 0.25,
        "velocity": 0.61,
        "hand": "right"
      },
      {
        "midi": 96,
        "time": 177,
        "duration": 0.25,
        "velocity": 0.61,
        "hand": "right"
      },
      {
        "midi": 103,
        "time": 177,
        "duration": 0.25,
        "velocity": 0.61,
        "hand": "right"
      },
      {
        "midi": 91,
        "time": 177.25,
        "duration": 0.25,
        "velocity": 0.61,
        "hand": "right"
      },
      {
        "midi": 94,
        "time": 177.25,
        "duration": 0.25,
        "velocity": 0.61,
        "hand": "right"
      },
      {
        "midi": 98,
        "time": 177.25,
        "duration": 0.25,
        "velocity": 0.61,
        "hand": "right"
      },
      {
        "midi": 87,
        "time": 177.5,
        "duration": 0.25,
        "velocity": 0.61,
        "hand": "right"
      },
      {
        "midi": 96,
        "time": 177.5,
        "duration": 0.25,
        "velocity": 0.61,
        "hand": "right"
      },
      {
        "midi": 103,
        "time": 177.5,
        "duration": 0.25,
        "velocity": 0.61,
        "hand": "right"
      },
      {
        "midi": 91,
        "time": 177.75,
        "duration": 0.25,
        "velocity": 0.61,
        "hand": "right"
      },
      {
        "midi": 94,
        "time": 177.75,
        "duration": 0.25,
        "velocity": 0.61,
        "hand": "right"
      },
      {
        "midi": 98,
        "time": 177.75,
        "duration": 0.25,
        "velocity": 0.61,
        "hand": "right"
      },
      {
        "midi": 87,
        "time": 178,
        "duration": 0.25,
        "velocity": 0.61,
        "hand": "right"
      },
      {
        "midi": 96,
        "time": 178,
        "duration": 0.25,
        "velocity": 0.61,
        "hand": "right"
      },
      {
        "midi": 103,
        "time": 178,
        "duration": 0.25,
        "velocity": 0.61,
        "hand": "right"
      },
      {
        "midi": 87,
        "time": 178.25,
        "duration": 0.25,
        "velocity": 0.61,
        "hand": "right"
      },
      {
        "midi": 96,
        "time": 178.25,
        "duration": 0.25,
        "velocity": 0.61,
        "hand": "right"
      },
      {
        "midi": 103,
        "time": 178.25,
        "duration": 0.25,
        "velocity": 0.61,
        "hand": "right"
      },
      {
        "midi": 91,
        "time": 178.5,
        "duration": 0.25,
        "velocity": 0.61,
        "hand": "right"
      },
      {
        "midi": 94,
        "time": 178.5,
        "duration": 0.25,
        "velocity": 0.61,
        "hand": "right"
      },
      {
        "midi": 98,
        "time": 178.5,
        "duration": 0.25,
        "velocity": 0.61,
        "hand": "right"
      },
      {
        "midi": 87,
        "time": 178.75,
        "duration": 0.25,
        "velocity": 0.61,
        "hand": "right"
      },
      {
        "midi": 96,
        "time": 178.75,
        "duration": 0.25,
        "velocity": 0.61,
        "hand": "right"
      },
      {
        "midi": 103,
        "time": 178.75,
        "duration": 0.25,
        "velocity": 0.61,
        "hand": "right"
      },
      {
        "midi": 87,
        "time": 179,
        "duration": 0.25,
        "velocity": 0.61,
        "hand": "right"
      },
      {
        "midi": 96,
        "time": 179,
        "duration": 0.25,
        "velocity": 0.61,
        "hand": "right"
      },
      {
        "midi": 103,
        "time": 179,
        "duration": 0.25,
        "velocity": 0.61,
        "hand": "right"
      },
      {
        "midi": 87,
        "time": 179.25,
        "duration": 0.25,
        "velocity": 0.61,
        "hand": "right"
      },
      {
        "midi": 96,
        "time": 179.25,
        "duration": 0.25,
        "velocity": 0.61,
        "hand": "right"
      },
      {
        "midi": 103,
        "time": 179.25,
        "duration": 0.25,
        "velocity": 0.61,
        "hand": "right"
      },
      {
        "midi": 91,
        "time": 179.5,
        "duration": 0.25,
        "velocity": 0.61,
        "hand": "right"
      },
      {
        "midi": 94,
        "time": 179.5,
        "duration": 0.25,
        "velocity": 0.61,
        "hand": "right"
      },
      {
        "midi": 98,
        "time": 179.5,
        "duration": 0.25,
        "velocity": 0.61,
        "hand": "right"
      },
      {
        "midi": 87,
        "time": 179.75,
        "duration": 0.25,
        "velocity": 0.61,
        "hand": "right"
      },
      {
        "midi": 96,
        "time": 179.75,
        "duration": 0.25,
        "velocity": 0.61,
        "hand": "right"
      },
      {
        "midi": 103,
        "time": 179.75,
        "duration": 0.25,
        "velocity": 0.61,
        "hand": "right"
      },
      {
        "midi": 87,
        "time": 180,
        "duration": 0.25,
        "velocity": 0.61,
        "hand": "right"
      },
      {
        "midi": 96,
        "time": 180,
        "duration": 0.25,
        "velocity": 0.61,
        "hand": "right"
      },
      {
        "midi": 103,
        "time": 180,
        "duration": 0.25,
        "velocity": 0.61,
        "hand": "right"
      },
      {
        "midi": 91,
        "time": 180.25,
        "duration": 0.25,
        "velocity": 0.61,
        "hand": "right"
      },
      {
        "midi": 94,
        "time": 180.25,
        "duration": 0.25,
        "velocity": 0.61,
        "hand": "right"
      },
      {
        "midi": 98,
        "time": 180.25,
        "duration": 0.25,
        "velocity": 0.61,
        "hand": "right"
      },
      {
        "midi": 87,
        "time": 180.5,
        "duration": 0.25,
        "velocity": 0.61,
        "hand": "right"
      },
      {
        "midi": 96,
        "time": 180.5,
        "duration": 0.25,
        "velocity": 0.61,
        "hand": "right"
      },
      {
        "midi": 103,
        "time": 180.5,
        "duration": 0.25,
        "velocity": 0.61,
        "hand": "right"
      },
      {
        "midi": 51,
        "time": 182,
        "duration": 1.5,
        "velocity": 0.68,
        "hand": "left"
      },
      {
        "midi": 67,
        "time": 182,
        "duration": 1.5,
        "velocity": 0.71,
        "hand": "right"
      },
      {
        "midi": 79,
        "time": 182,
        "duration": 1.5,
        "velocity": 0.71,
        "hand": "right"
      },
      {
        "midi": 77,
        "time": 183.5,
        "duration": 0.25,
        "velocity": 0.71,
        "hand": "right"
      },
      {
        "midi": 79,
        "time": 183.5,
        "duration": 0.25,
        "velocity": 0.71,
        "hand": "right"
      },
      {
        "midi": 75,
        "time": 183.75,
        "duration": 0.25,
        "velocity": 0.71,
        "hand": "right"
      },
      {
        "midi": 74,
        "time": 184,
        "duration": 0.25,
        "velocity": 0.71,
        "hand": "right"
      },
      {
        "midi": 75,
        "time": 184.25,
        "duration": 0.25,
        "velocity": 0.71,
        "hand": "right"
      },
      {
        "midi": 72,
        "time": 184.5,
        "duration": 0.25,
        "velocity": 0.71,
        "hand": "right"
      },
      {
        "midi": 74,
        "time": 184.75,
        "duration": 0.25,
        "velocity": 0.71,
        "hand": "right"
      },
      {
        "midi": 70,
        "time": 185,
        "duration": 0.5,
        "velocity": 0.71,
        "hand": "right"
      },
      {
        "midi": 56,
        "time": 185.5,
        "duration": 0.5,
        "velocity": 0.68,
        "hand": "left"
      },
      {
        "midi": 65,
        "time": 185.5,
        "duration": 0.5,
        "velocity": 0.71,
        "hand": "right"
      },
      {
        "midi": 72,
        "time": 185.5,
        "duration": 0.5,
        "velocity": 0.71,
        "hand": "right"
      },
      {
        "midi": 51,
        "time": 186,
        "duration": 1.5,
        "velocity": 0.68,
        "hand": "left"
      },
      {
        "midi": 67,
        "time": 186,
        "duration": 1.5,
        "velocity": 0.71,
        "hand": "right"
      },
      {
        "midi": 79,
        "time": 186,
        "duration": 1.5,
        "velocity": 0.71,
        "hand": "right"
      },
      {
        "midi": 77,
        "time": 187.5,
        "duration": 0.25,
        "velocity": 0.71,
        "hand": "right"
      },
      {
        "midi": 79,
        "time": 187.5,
        "duration": 0.25,
        "velocity": 0.71,
        "hand": "right"
      },
      {
        "midi": 75,
        "time": 187.75,
        "duration": 0.25,
        "velocity": 0.71,
        "hand": "right"
      },
      {
        "midi": 74,
        "time": 188,
        "duration": 0.25,
        "velocity": 0.71,
        "hand": "right"
      },
      {
        "midi": 75,
        "time": 188.25,
        "duration": 0.25,
        "velocity": 0.71,
        "hand": "right"
      },
      {
        "midi": 72,
        "time": 188.5,
        "duration": 0.25,
        "velocity": 0.71,
        "hand": "right"
      },
      {
        "midi": 74,
        "time": 188.75,
        "duration": 0.25,
        "velocity": 0.71,
        "hand": "right"
      },
      {
        "midi": 70,
        "time": 189,
        "duration": 0.5,
        "velocity": 0.71,
        "hand": "right"
      },
      {
        "midi": 56,
        "time": 189.5,
        "duration": 0.5,
        "velocity": 0.68,
        "hand": "left"
      },
      {
        "midi": 65,
        "time": 189.5,
        "duration": 0.5,
        "velocity": 0.71,
        "hand": "right"
      },
      {
        "midi": 72,
        "time": 189.5,
        "duration": 0.5,
        "velocity": 0.71,
        "hand": "right"
      },
      {
        "midi": 51,
        "time": 190,
        "duration": 0.5,
        "velocity": 0.68,
        "hand": "left"
      },
      {
        "midi": 67,
        "time": 190,
        "duration": 0.5,
        "velocity": 0.68,
        "hand": "right"
      },
      {
        "midi": 79,
        "time": 190,
        "duration": 0.5,
        "velocity": 0.68,
        "hand": "right"
      },
      {
        "midi": 51,
        "time": 190.5,
        "duration": 0.5,
        "velocity": 0.68,
        "hand": "left"
      },
      {
        "midi": 67,
        "time": 190.5,
        "duration": 0.5,
        "velocity": 0.68,
        "hand": "right"
      },
      {
        "midi": 79,
        "time": 190.5,
        "duration": 0.5,
        "velocity": 0.68,
        "hand": "right"
      },
      {
        "midi": 53,
        "time": 191,
        "duration": 0.5,
        "velocity": 0.68,
        "hand": "left"
      },
      {
        "midi": 68,
        "time": 191,
        "duration": 0.5,
        "velocity": 0.68,
        "hand": "right"
      },
      {
        "midi": 80,
        "time": 191,
        "duration": 0.5,
        "velocity": 0.68,
        "hand": "right"
      },
      {
        "midi": 51,
        "time": 191.5,
        "duration": 0.5,
        "velocity": 0.68,
        "hand": "left"
      },
      {
        "midi": 67,
        "time": 191.5,
        "duration": 0.5,
        "velocity": 0.68,
        "hand": "right"
      },
      {
        "midi": 79,
        "time": 191.5,
        "duration": 0.5,
        "velocity": 0.68,
        "hand": "right"
      },
      {
        "midi": 50,
        "time": 192,
        "duration": 0.5,
        "velocity": 0.68,
        "hand": "left"
      },
      {
        "midi": 65,
        "time": 192,
        "duration": 0.5,
        "velocity": 0.68,
        "hand": "right"
      },
      {
        "midi": 77,
        "time": 192,
        "duration": 0.5,
        "velocity": 0.68,
        "hand": "right"
      },
      {
        "midi": 51,
        "time": 192.5,
        "duration": 0.5,
        "velocity": 0.68,
        "hand": "left"
      },
      {
        "midi": 67,
        "time": 192.5,
        "duration": 0.5,
        "velocity": 0.68,
        "hand": "right"
      },
      {
        "midi": 79,
        "time": 192.5,
        "duration": 0.5,
        "velocity": 0.68,
        "hand": "right"
      },
      {
        "midi": 48,
        "time": 193,
        "duration": 0.5,
        "velocity": 0.68,
        "hand": "left"
      },
      {
        "midi": 63,
        "time": 193,
        "duration": 0.5,
        "velocity": 0.68,
        "hand": "right"
      },
      {
        "midi": 75,
        "time": 193,
        "duration": 0.5,
        "velocity": 0.68,
        "hand": "right"
      },
      {
        "midi": 50,
        "time": 193.5,
        "duration": 0.5,
        "velocity": 0.68,
        "hand": "left"
      },
      {
        "midi": 65,
        "time": 193.5,
        "duration": 0.5,
        "velocity": 0.68,
        "hand": "right"
      },
      {
        "midi": 77,
        "time": 193.5,
        "duration": 0.5,
        "velocity": 0.68,
        "hand": "right"
      },
      {
        "midi": 51,
        "time": 194,
        "duration": 0.5,
        "velocity": 0.68,
        "hand": "left"
      },
      {
        "midi": 67,
        "time": 194,
        "duration": 0.5,
        "velocity": 0.75,
        "hand": "right"
      },
      {
        "midi": 79,
        "time": 194,
        "duration": 0.5,
        "velocity": 0.75,
        "hand": "right"
      },
      {
        "midi": 55,
        "time": 194.5,
        "duration": 1,
        "velocity": 0.68,
        "hand": "left"
      },
      {
        "midi": 70,
        "time": 194.5,
        "duration": 1,
        "velocity": 0.75,
        "hand": "right"
      },
      {
        "midi": 82,
        "time": 194.5,
        "duration": 1,
        "velocity": 0.75,
        "hand": "right"
      },
      {
        "midi": 56,
        "time": 195.5,
        "duration": 1,
        "velocity": 0.68,
        "hand": "left"
      },
      {
        "midi": 72,
        "time": 195.5,
        "duration": 1,
        "velocity": 0.75,
        "hand": "right"
      },
      {
        "midi": 84,
        "time": 195.5,
        "duration": 1,
        "velocity": 0.75,
        "hand": "right"
      },
      {
        "midi": 55,
        "time": 196.5,
        "duration": 0.5,
        "velocity": 0.68,
        "hand": "left"
      },
      {
        "midi": 70,
        "time": 196.5,
        "duration": 0.5,
        "velocity": 0.75,
        "hand": "right"
      },
      {
        "midi": 82,
        "time": 196.5,
        "duration": 0.5,
        "velocity": 0.75,
        "hand": "right"
      },
      {
        "midi": 50,
        "time": 197,
        "duration": 0.5,
        "velocity": 0.68,
        "hand": "left"
      },
      {
        "midi": 65,
        "time": 197,
        "duration": 0.5,
        "velocity": 0.75,
        "hand": "right"
      },
      {
        "midi": 77,
        "time": 197,
        "duration": 0.5,
        "velocity": 0.75,
        "hand": "right"
      },
      {
        "midi": 69,
        "time": 197.5,
        "duration": 0.25,
        "velocity": 0.75,
        "hand": "right"
      },
      {
        "midi": 70,
        "time": 197.75,
        "duration": 0.25,
        "velocity": 0.75,
        "hand": "right"
      },
      {
        "midi": 74,
        "time": 197.75,
        "duration": 0.25,
        "velocity": 0.75,
        "hand": "right"
      },
      {
        "midi": 39,
        "time": 198,
        "duration": 0.5,
        "velocity": 0.71,
        "hand": "left"
      },
      {
        "midi": 70,
        "time": 198,
        "duration": 0.5,
        "velocity": 0.71,
        "hand": "right"
      },
      {
        "midi": 79,
        "time": 198,
        "duration": 1.5,
        "velocity": 0.75,
        "hand": "right"
      },
      {
        "midi": 45,
        "time": 198.25,
        "duration": 0.25,
        "velocity": 0.61,
        "hand": "left"
      },
      {
        "midi": 46,
        "time": 198.5,
        "duration": 0.25,
        "velocity": 0.61,
        "hand": "left"
      },
      {
        "midi": 51,
        "time": 198.75,
        "duration": 0.25,
        "velocity": 0.61,
        "hand": "left"
      },
      {
        "midi": 55,
        "time": 199,
        "duration": 0.25,
        "velocity": 0.75,
        "hand": "left"
      },
      {
        "midi": 58,
        "time": 199.25,
        "duration": 0.25,
        "velocity": 0.75,
        "hand": "left"
      },
      {
        "midi": 63,
        "time": 199.5,
        "duration": 0.25,
        "velocity": 0.75,
        "hand": "right"
      },
      {
        "midi": 77,
        "time": 199.5,
        "duration": 0.25,
        "velocity": 0.61,
        "hand": "right"
      },
      {
        "midi": 79,
        "time": 199.5,
        "duration": 0.25,
        "velocity": 0.52,
        "hand": "right"
      },
      {
        "midi": 67,
        "time": 199.75,
        "duration": 0.25,
        "velocity": 0.75,
        "hand": "right"
      },
      {
        "midi": 75,
        "time": 199.75,
        "duration": 0.25,
        "velocity": 0.61,
        "hand": "right"
      },
      {
        "midi": 70,
        "time": 200,
        "duration": 0.5,
        "velocity": 0.75,
        "hand": "right"
      },
      {
        "midi": 74,
        "time": 200,
        "duration": 0.25,
        "velocity": 0.61,
        "hand": "right"
      },
      {
        "midi": 75,
        "time": 200.25,
        "duration": 0.25,
        "velocity": 0.61,
        "hand": "right"
      },
      {
        "midi": 63,
        "time": 200.5,
        "duration": 0.5,
        "velocity": 0.75,
        "hand": "right"
      },
      {
        "midi": 69,
        "time": 200.5,
        "duration": 0.5,
        "velocity": 0.71,
        "hand": "right"
      },
      {
        "midi": 72,
        "time": 200.5,
        "duration": 0.25,
        "velocity": 0.61,
        "hand": "right"
      },
      {
        "midi": 74,
        "time": 200.75,
        "duration": 0.25,
        "velocity": 0.61,
        "hand": "right"
      },
      {
        "midi": 67,
        "time": 201,
        "duration": 0.5,
        "velocity": 0.71,
        "hand": "right"
      },
      {
        "midi": 70,
        "time": 201,
        "duration": 0.5,
        "velocity": 0.61,
        "hand": "right"
      },
      {
        "midi": 44,
        "time": 201.5,
        "duration": 0.5,
        "velocity": 0.75,
        "hand": "left"
      },
      {
        "midi": 60,
        "time": 201.5,
        "duration": 0.5,
        "velocity": 0.75,
        "hand": "right"
      },
      {
        "midi": 72,
        "time": 201.5,
        "duration": 0.5,
        "velocity": 0.61,
        "hand": "right"
      },
      {
        "midi": 39,
        "time": 202,
        "duration": 0.5,
        "velocity": 0.71,
        "hand": "left"
      },
      {
        "midi": 67,
        "time": 202,
        "duration": 0.5,
        "velocity": 0.75,
        "hand": "right"
      },
      {
        "midi": 79,
        "time": 202,
        "duration": 1.5,
        "velocity": 0.75,
        "hand": "right"
      },
      {
        "midi": 45,
        "time": 202.25,
        "duration": 0.25,
        "velocity": 0.61,
        "hand": "left"
      },
      {
        "midi": 46,
        "time": 202.5,
        "duration": 0.25,
        "velocity": 0.61,
        "hand": "left"
      },
      {
        "midi": 51,
        "time": 202.75,
        "duration": 0.25,
        "velocity": 0.61,
        "hand": "left"
      },
      {
        "midi": 55,
        "time": 203,
        "duration": 0.25,
        "velocity": 0.75,
        "hand": "left"
      },
      {
        "midi": 58,
        "time": 203.25,
        "duration": 0.25,
        "velocity": 0.75,
        "hand": "left"
      },
      {
        "midi": 63,
        "time": 203.5,
        "duration": 0.25,
        "velocity": 0.75,
        "hand": "right"
      },
      {
        "midi": 77,
        "time": 203.5,
        "duration": 0.25,
        "velocity": 0.61,
        "hand": "right"
      },
      {
        "midi": 79,
        "time": 203.5,
        "duration": 0.25,
        "velocity": 0.38,
        "hand": "right"
      },
      {
        "midi": 67,
        "time": 203.75,
        "duration": 0.25,
        "velocity": 0.75,
        "hand": "right"
      },
      {
        "midi": 75,
        "time": 203.75,
        "duration": 0.25,
        "velocity": 0.61,
        "hand": "right"
      },
      {
        "midi": 70,
        "time": 204,
        "duration": 0.5,
        "velocity": 0.75,
        "hand": "right"
      },
      {
        "midi": 74,
        "time": 204,
        "duration": 0.25,
        "velocity": 0.61,
        "hand": "right"
      },
      {
        "midi": 75,
        "time": 204.25,
        "duration": 0.25,
        "velocity": 0.61,
        "hand": "right"
      },
      {
        "midi": 63,
        "time": 204.5,
        "duration": 0.5,
        "velocity": 0.75,
        "hand": "right"
      },
      {
        "midi": 69,
        "time": 204.5,
        "duration": 0.5,
        "velocity": 0.75,
        "hand": "right"
      },
      {
        "midi": 72,
        "time": 204.5,
        "duration": 0.25,
        "velocity": 0.61,
        "hand": "right"
      },
      {
        "midi": 74,
        "time": 204.75,
        "duration": 0.25,
        "velocity": 0.61,
        "hand": "right"
      },
      {
        "midi": 67,
        "time": 205,
        "duration": 0.5,
        "velocity": 0.75,
        "hand": "right"
      },
      {
        "midi": 70,
        "time": 205,
        "duration": 0.5,
        "velocity": 0.61,
        "hand": "right"
      },
      {
        "midi": 44,
        "time": 205.5,
        "duration": 0.5,
        "velocity": 0.75,
        "hand": "left"
      },
      {
        "midi": 60,
        "time": 205.5,
        "duration": 0.5,
        "velocity": 0.75,
        "hand": "right"
      },
      {
        "midi": 72,
        "time": 205.5,
        "duration": 0.5,
        "velocity": 0.61,
        "hand": "right"
      },
      {
        "midi": 39,
        "time": 206,
        "duration": 0.5,
        "velocity": 0.75,
        "hand": "left"
      },
      {
        "midi": 67,
        "time": 206,
        "duration": 0.5,
        "velocity": 0.61,
        "hand": "right"
      },
      {
        "midi": 79,
        "time": 206,
        "duration": 0.5,
        "velocity": 0.61,
        "hand": "right"
      },
      {
        "midi": 51,
        "time": 206.5,
        "duration": 0.5,
        "velocity": 0.75,
        "hand": "left"
      },
      {
        "midi": 67,
        "time": 206.5,
        "duration": 0.5,
        "velocity": 0.61,
        "hand": "right"
      },
      {
        "midi": 79,
        "time": 206.5,
        "duration": 0.5,
        "velocity": 0.61,
        "hand": "right"
      },
      {
        "midi": 53,
        "time": 207,
        "duration": 0.5,
        "velocity": 0.75,
        "hand": "left"
      },
      {
        "midi": 68,
        "time": 207,
        "duration": 0.5,
        "velocity": 0.61,
        "hand": "right"
      },
      {
        "midi": 80,
        "time": 207,
        "duration": 0.5,
        "velocity": 0.61,
        "hand": "right"
      },
      {
        "midi": 51,
        "time": 207.5,
        "duration": 0.5,
        "velocity": 0.75,
        "hand": "left"
      },
      {
        "midi": 67,
        "time": 207.5,
        "duration": 0.5,
        "velocity": 0.61,
        "hand": "right"
      },
      {
        "midi": 79,
        "time": 207.5,
        "duration": 0.5,
        "velocity": 0.61,
        "hand": "right"
      },
      {
        "midi": 50,
        "time": 208,
        "duration": 0.5,
        "velocity": 0.75,
        "hand": "left"
      },
      {
        "midi": 65,
        "time": 208,
        "duration": 0.5,
        "velocity": 0.61,
        "hand": "right"
      },
      {
        "midi": 77,
        "time": 208,
        "duration": 0.5,
        "velocity": 0.61,
        "hand": "right"
      },
      {
        "midi": 51,
        "time": 208.5,
        "duration": 0.5,
        "velocity": 0.75,
        "hand": "left"
      },
      {
        "midi": 67,
        "time": 208.5,
        "duration": 0.5,
        "velocity": 0.61,
        "hand": "right"
      },
      {
        "midi": 79,
        "time": 208.5,
        "duration": 0.5,
        "velocity": 0.61,
        "hand": "right"
      },
      {
        "midi": 48,
        "time": 209,
        "duration": 0.5,
        "velocity": 0.75,
        "hand": "left"
      },
      {
        "midi": 63,
        "time": 209,
        "duration": 0.5,
        "velocity": 0.61,
        "hand": "right"
      },
      {
        "midi": 75,
        "time": 209,
        "duration": 0.5,
        "velocity": 0.61,
        "hand": "right"
      },
      {
        "midi": 50,
        "time": 209.5,
        "duration": 0.5,
        "velocity": 0.75,
        "hand": "left"
      },
      {
        "midi": 65,
        "time": 209.5,
        "duration": 0.5,
        "velocity": 0.61,
        "hand": "right"
      },
      {
        "midi": 77,
        "time": 209.5,
        "duration": 0.5,
        "velocity": 0.61,
        "hand": "right"
      },
      {
        "midi": 46,
        "time": 210,
        "duration": 0.5,
        "velocity": 0.75,
        "hand": "left"
      },
      {
        "midi": 62,
        "time": 210,
        "duration": 0.5,
        "velocity": 0.61,
        "hand": "right"
      },
      {
        "midi": 74,
        "time": 210,
        "duration": 0.5,
        "velocity": 0.61,
        "hand": "right"
      },
      {
        "midi": 46,
        "time": 210.5,
        "duration": 0.5,
        "velocity": 0.76,
        "hand": "left"
      },
      {
        "midi": 62,
        "time": 210.5,
        "duration": 0.5,
        "velocity": 0.61,
        "hand": "right"
      },
      {
        "midi": 74,
        "time": 210.5,
        "duration": 0.5,
        "velocity": 0.61,
        "hand": "right"
      },
      {
        "midi": 48,
        "time": 211,
        "duration": 0.5,
        "velocity": 0.77,
        "hand": "left"
      },
      {
        "midi": 63,
        "time": 211,
        "duration": 0.5,
        "velocity": 0.61,
        "hand": "right"
      },
      {
        "midi": 75,
        "time": 211,
        "duration": 0.5,
        "velocity": 0.61,
        "hand": "right"
      },
      {
        "midi": 46,
        "time": 211.5,
        "duration": 0.5,
        "velocity": 0.79,
        "hand": "left"
      },
      {
        "midi": 62,
        "time": 211.5,
        "duration": 0.5,
        "velocity": 0.61,
        "hand": "right"
      },
      {
        "midi": 74,
        "time": 211.5,
        "duration": 0.5,
        "velocity": 0.61,
        "hand": "right"
      },
      {
        "midi": 45,
        "time": 212,
        "duration": 0.5,
        "velocity": 0.8,
        "hand": "left"
      },
      {
        "midi": 60,
        "time": 212,
        "duration": 0.5,
        "velocity": 0.61,
        "hand": "right"
      },
      {
        "midi": 72,
        "time": 212,
        "duration": 0.5,
        "velocity": 0.61,
        "hand": "right"
      },
      {
        "midi": 46,
        "time": 212.5,
        "duration": 0.5,
        "velocity": 0.82,
        "hand": "left"
      },
      {
        "midi": 62,
        "time": 212.5,
        "duration": 0.5,
        "velocity": 0.61,
        "hand": "right"
      },
      {
        "midi": 74,
        "time": 212.5,
        "duration": 0.5,
        "velocity": 0.61,
        "hand": "right"
      },
      {
        "midi": 43,
        "time": 213,
        "duration": 0.5,
        "velocity": 0.83,
        "hand": "left"
      },
      {
        "midi": 58,
        "time": 213,
        "duration": 0.5,
        "velocity": 0.61,
        "hand": "left"
      },
      {
        "midi": 70,
        "time": 213,
        "duration": 0.5,
        "velocity": 0.61,
        "hand": "right"
      },
      {
        "midi": 45,
        "time": 213.5,
        "duration": 0.5,
        "velocity": 0.84,
        "hand": "left"
      },
      {
        "midi": 60,
        "time": 213.5,
        "duration": 0.5,
        "velocity": 0.61,
        "hand": "right"
      },
      {
        "midi": 72,
        "time": 213.5,
        "duration": 0.5,
        "velocity": 0.61,
        "hand": "right"
      },
      {
        "midi": 46,
        "time": 214,
        "duration": 0.5,
        "velocity": 0.86,
        "hand": "left"
      },
      {
        "midi": 62,
        "time": 214,
        "duration": 0.5,
        "velocity": 0.61,
        "hand": "right"
      },
      {
        "midi": 74,
        "time": 214,
        "duration": 0.5,
        "velocity": 0.61,
        "hand": "right"
      },
      {
        "midi": 43,
        "time": 214.5,
        "duration": 1,
        "velocity": 0.87,
        "hand": "left"
      },
      {
        "midi": 58,
        "time": 214.5,
        "duration": 1,
        "velocity": 0.61,
        "hand": "left"
      },
      {
        "midi": 70,
        "time": 214.5,
        "duration": 1,
        "velocity": 0.61,
        "hand": "right"
      },
      {
        "midi": 45,
        "time": 215.5,
        "duration": 0.5,
        "velocity": 0.9,
        "hand": "left"
      },
      {
        "midi": 60,
        "time": 215.5,
        "duration": 0.5,
        "velocity": 0.61,
        "hand": "right"
      },
      {
        "midi": 72,
        "time": 215.5,
        "duration": 0.5,
        "velocity": 0.61,
        "hand": "right"
      },
      {
        "midi": 46,
        "time": 216,
        "duration": 0.5,
        "velocity": 0.91,
        "hand": "left"
      },
      {
        "midi": 62,
        "time": 216,
        "duration": 0.5,
        "velocity": 0.61,
        "hand": "right"
      },
      {
        "midi": 74,
        "time": 216,
        "duration": 0.5,
        "velocity": 0.61,
        "hand": "right"
      },
      {
        "midi": 43,
        "time": 216.5,
        "duration": 1,
        "velocity": 0.93,
        "hand": "left"
      },
      {
        "midi": 58,
        "time": 216.5,
        "duration": 1,
        "velocity": 0.61,
        "hand": "left"
      },
      {
        "midi": 70,
        "time": 216.5,
        "duration": 1,
        "velocity": 0.61,
        "hand": "right"
      },
      {
        "midi": 45,
        "time": 217.5,
        "duration": 0.5,
        "velocity": 0.96,
        "hand": "left"
      },
      {
        "midi": 60,
        "time": 217.5,
        "duration": 0.5,
        "velocity": 0.61,
        "hand": "right"
      },
      {
        "midi": 72,
        "time": 217.5,
        "duration": 0.5,
        "velocity": 0.61,
        "hand": "right"
      },
      {
        "midi": 46,
        "time": 218,
        "duration": 0.5,
        "velocity": 0.97,
        "hand": "left"
      },
      {
        "midi": 62,
        "time": 218,
        "duration": 0.5,
        "velocity": 0.61,
        "hand": "right"
      },
      {
        "midi": 74,
        "time": 218,
        "duration": 0.5,
        "velocity": 0.61,
        "hand": "right"
      },
      {
        "midi": 43,
        "time": 218.5,
        "duration": 0.5,
        "velocity": 0.97,
        "hand": "left"
      },
      {
        "midi": 58,
        "time": 218.5,
        "duration": 0.5,
        "velocity": 0.61,
        "hand": "left"
      },
      {
        "midi": 70,
        "time": 218.5,
        "duration": 0.5,
        "velocity": 0.61,
        "hand": "right"
      },
      {
        "midi": 46,
        "time": 219,
        "duration": 0.5,
        "velocity": 0.97,
        "hand": "left"
      },
      {
        "midi": 62,
        "time": 219,
        "duration": 0.5,
        "velocity": 0.61,
        "hand": "right"
      },
      {
        "midi": 74,
        "time": 219,
        "duration": 0.5,
        "velocity": 0.61,
        "hand": "right"
      },
      {
        "midi": 48,
        "time": 219.5,
        "duration": 0.5,
        "velocity": 0.97,
        "hand": "left"
      },
      {
        "midi": 60,
        "time": 219.5,
        "duration": 0.5,
        "velocity": 0.97,
        "hand": "right"
      },
      {
        "midi": 75,
        "time": 219.5,
        "duration": 0.5,
        "velocity": 0.61,
        "hand": "right"
      },
      {
        "midi": 43,
        "time": 220,
        "duration": 0.5,
        "velocity": 0.8,
        "hand": "left"
      },
      {
        "midi": 46,
        "time": 220,
        "duration": 0.5,
        "velocity": 0.8,
        "hand": "left"
      },
      {
        "midi": 55,
        "time": 220,
        "duration": 0.5,
        "velocity": 0.61,
        "hand": "left"
      },
      {
        "midi": 50,
        "time": 220.5,
        "duration": 0.25,
        "velocity": 0.8,
        "hand": "left"
      },
      {
        "midi": 58,
        "time": 220.5,
        "duration": 0.25,
        "velocity": 0.61,
        "hand": "left"
      },
      {
        "midi": 62,
        "time": 220.5,
        "duration": 0.25,
        "velocity": 0.61,
        "hand": "right"
      },
      {
        "midi": 58,
        "time": 220.75,
        "duration": 0.25,
        "velocity": 0.8,
        "hand": "left"
      },
      {
        "midi": 67,
        "time": 220.75,
        "duration": 0.25,
        "velocity": 0.61,
        "hand": "right"
      },
      {
        "midi": 70,
        "time": 220.75,
        "duration": 0.25,
        "velocity": 0.61,
        "hand": "right"
      },
      {
        "midi": 67,
        "time": 221,
        "duration": 0.25,
        "velocity": 0.8,
        "hand": "right"
      },
      {
        "midi": 74,
        "time": 221,
        "duration": 0.25,
        "velocity": 0.61,
        "hand": "right"
      },
      {
        "midi": 79,
        "time": 221,
        "duration": 0.5,
        "velocity": 0.61,
        "hand": "right"
      },
      {
        "midi": 39,
        "time": 222,
        "duration": 1.5,
        "velocity": 0.68,
        "hand": "left"
      },
      {
        "midi": 55,
        "time": 222,
        "duration": 1.5,
        "velocity": 0.75,
        "hand": "left"
      },
      {
        "midi": 67,
        "time": 222,
        "duration": 1.5,
        "velocity": 0.61,
        "hand": "right"
      },
      {
        "midi": 65,
        "time": 223.5,
        "duration": 0.25,
        "velocity": 0.61,
        "hand": "right"
      },
      {
        "midi": 67,
        "time": 223.5,
        "duration": 0.25,
        "velocity": 0.61,
        "hand": "right"
      },
      {
        "midi": 63,
        "time": 223.75,
        "duration": 0.25,
        "velocity": 0.61,
        "hand": "right"
      },
      {
        "midi": 62,
        "time": 224,
        "duration": 0.25,
        "velocity": 0.61,
        "hand": "right"
      },
      {
        "midi": 63,
        "time": 224.25,
        "duration": 0.25,
        "velocity": 0.61,
        "hand": "right"
      },
      {
        "midi": 60,
        "time": 224.5,
        "duration": 0.25,
        "velocity": 0.61,
        "hand": "right"
      },
      {
        "midi": 62,
        "time": 224.75,
        "duration": 0.25,
        "velocity": 0.61,
        "hand": "right"
      },
      {
        "midi": 58,
        "time": 225,
        "duration": 0.5,
        "velocity": 0.61,
        "hand": "left"
      },
      {
        "midi": 44,
        "time": 225.5,
        "duration": 0.5,
        "velocity": 0.68,
        "hand": "left"
      },
      {
        "midi": 53,
        "time": 225.5,
        "duration": 0.5,
        "velocity": 0.75,
        "hand": "left"
      },
      {
        "midi": 60,
        "time": 225.5,
        "duration": 0.5,
        "velocity": 0.61,
        "hand": "right"
      },
      {
        "midi": 39,
        "time": 226,
        "duration": 1.5,
        "velocity": 0.68,
        "hand": "left"
      },
      {
        "midi": 55,
        "time": 226,
        "duration": 1.5,
        "velocity": 0.75,
        "hand": "left"
      },
      {
        "midi": 67,
        "time": 226,
        "duration": 1.5,
        "velocity": 0.61,
        "hand": "right"
      },
      {
        "midi": 65,
        "time": 227.5,
        "duration": 0.25,
        "velocity": 0.61,
        "hand": "right"
      },
      {
        "midi": 67,
        "time": 227.5,
        "duration": 0.25,
        "velocity": 0.61,
        "hand": "right"
      },
      {
        "midi": 63,
        "time": 227.75,
        "duration": 0.25,
        "velocity": 0.61,
        "hand": "right"
      },
      {
        "midi": 62,
        "time": 228,
        "duration": 0.25,
        "velocity": 0.61,
        "hand": "right"
      },
      {
        "midi": 63,
        "time": 228.25,
        "duration": 0.25,
        "velocity": 0.61,
        "hand": "right"
      },
      {
        "midi": 60,
        "time": 228.5,
        "duration": 0.25,
        "velocity": 0.61,
        "hand": "right"
      },
      {
        "midi": 62,
        "time": 228.75,
        "duration": 0.25,
        "velocity": 0.61,
        "hand": "right"
      },
      {
        "midi": 58,
        "time": 229,
        "duration": 0.5,
        "velocity": 0.61,
        "hand": "left"
      },
      {
        "midi": 44,
        "time": 229.5,
        "duration": 0.5,
        "velocity": 0.68,
        "hand": "left"
      },
      {
        "midi": 53,
        "time": 229.5,
        "duration": 0.5,
        "velocity": 0.75,
        "hand": "left"
      },
      {
        "midi": 60,
        "time": 229.5,
        "duration": 0.5,
        "velocity": 0.61,
        "hand": "right"
      },
      {
        "midi": 39,
        "time": 230,
        "duration": 1.5,
        "velocity": 0.68,
        "hand": "left"
      },
      {
        "midi": 55,
        "time": 230,
        "duration": 1.5,
        "velocity": 0.61,
        "hand": "left"
      },
      {
        "midi": 67,
        "time": 230,
        "duration": 1.5,
        "velocity": 0.61,
        "hand": "right"
      },
      {
        "midi": 44,
        "time": 231.5,
        "duration": 0.5,
        "velocity": 0.68,
        "hand": "left"
      },
      {
        "midi": 53,
        "time": 231.5,
        "duration": 0.5,
        "velocity": 0.61,
        "hand": "left"
      },
      {
        "midi": 60,
        "time": 231.5,
        "duration": 0.5,
        "velocity": 0.61,
        "hand": "right"
      },
      {
        "midi": 39,
        "time": 232,
        "duration": 1.5,
        "velocity": 0.68,
        "hand": "left"
      },
      {
        "midi": 55,
        "time": 232,
        "duration": 1.5,
        "velocity": 0.61,
        "hand": "left"
      },
      {
        "midi": 67,
        "time": 232,
        "duration": 1.5,
        "velocity": 0.61,
        "hand": "right"
      },
      {
        "midi": 44,
        "time": 233.5,
        "duration": 0.5,
        "velocity": 0.68,
        "hand": "left"
      },
      {
        "midi": 53,
        "time": 233.5,
        "duration": 0.5,
        "velocity": 0.61,
        "hand": "left"
      },
      {
        "midi": 60,
        "time": 233.5,
        "duration": 0.5,
        "velocity": 0.61,
        "hand": "right"
      },
      {
        "midi": 39,
        "time": 234,
        "duration": 0.5,
        "velocity": 0.68,
        "hand": "left"
      },
      {
        "midi": 55,
        "time": 234,
        "duration": 0.5,
        "velocity": 0.54,
        "hand": "left"
      },
      {
        "midi": 67,
        "time": 234,
        "duration": 0.5,
        "velocity": 0.54,
        "hand": "right"
      },
      {
        "midi": 44,
        "time": 234.5,
        "duration": 0.5,
        "velocity": 0.68,
        "hand": "left"
      },
      {
        "midi": 53,
        "time": 234.5,
        "duration": 0.5,
        "velocity": 0.54,
        "hand": "left"
      },
      {
        "midi": 60,
        "time": 234.5,
        "duration": 0.5,
        "velocity": 0.54,
        "hand": "right"
      },
      {
        "midi": 39,
        "time": 235,
        "duration": 0.5,
        "velocity": 0.68,
        "hand": "left"
      },
      {
        "midi": 55,
        "time": 235,
        "duration": 0.5,
        "velocity": 0.54,
        "hand": "left"
      },
      {
        "midi": 67,
        "time": 235,
        "duration": 0.5,
        "velocity": 0.54,
        "hand": "right"
      },
      {
        "midi": 44,
        "time": 235.5,
        "duration": 0.5,
        "velocity": 0.68,
        "hand": "left"
      },
      {
        "midi": 53,
        "time": 235.5,
        "duration": 0.5,
        "velocity": 0.54,
        "hand": "left"
      },
      {
        "midi": 60,
        "time": 235.5,
        "duration": 0.5,
        "velocity": 0.54,
        "hand": "right"
      },
      {
        "midi": 39,
        "time": 236,
        "duration": 0.5,
        "velocity": 0.68,
        "hand": "left"
      },
      {
        "midi": 55,
        "time": 236,
        "duration": 0.5,
        "velocity": 0.54,
        "hand": "left"
      },
      {
        "midi": 67,
        "time": 236,
        "duration": 0.5,
        "velocity": 0.54,
        "hand": "right"
      },
      {
        "midi": 44,
        "time": 236.5,
        "duration": 0.5,
        "velocity": 0.68,
        "hand": "left"
      },
      {
        "midi": 53,
        "time": 236.5,
        "duration": 0.5,
        "velocity": 0.54,
        "hand": "left"
      },
      {
        "midi": 60,
        "time": 236.5,
        "duration": 0.5,
        "velocity": 0.54,
        "hand": "right"
      },
      {
        "midi": 39,
        "time": 237,
        "duration": 0.5,
        "velocity": 0.68,
        "hand": "left"
      },
      {
        "midi": 55,
        "time": 237,
        "duration": 0.5,
        "velocity": 0.54,
        "hand": "left"
      },
      {
        "midi": 67,
        "time": 237,
        "duration": 0.5,
        "velocity": 0.54,
        "hand": "right"
      },
      {
        "midi": 44,
        "time": 237.5,
        "duration": 0.5,
        "velocity": 0.68,
        "hand": "left"
      },
      {
        "midi": 53,
        "time": 237.5,
        "duration": 0.5,
        "velocity": 0.54,
        "hand": "left"
      },
      {
        "midi": 60,
        "time": 237.5,
        "duration": 0.5,
        "velocity": 0.54,
        "hand": "right"
      },
      {
        "midi": 39,
        "time": 238,
        "duration": 0.25,
        "velocity": 0.68,
        "hand": "left"
      },
      {
        "midi": 55,
        "time": 238,
        "duration": 0.25,
        "velocity": 0.75,
        "hand": "left"
      },
      {
        "midi": 67,
        "time": 238,
        "duration": 0.25,
        "velocity": 0.54,
        "hand": "right"
      },
      {
        "midi": 65,
        "time": 238.25,
        "duration": 0.25,
        "velocity": 0.54,
        "hand": "right"
      },
      {
        "midi": 58,
        "time": 238.5,
        "duration": 0.25,
        "velocity": 0.54,
        "hand": "left"
      },
      {
        "midi": 62,
        "time": 238.5,
        "duration": 0.25,
        "velocity": 0.54,
        "hand": "right"
      },
      {
        "midi": 63,
        "time": 238.5,
        "duration": 0.25,
        "velocity": 0.54,
        "hand": "right"
      },
      {
        "midi": 55,
        "time": 238.75,
        "duration": 0.25,
        "velocity": 0.54,
        "hand": "left"
      },
      {
        "midi": 63,
        "time": 238.75,
        "duration": 0.25,
        "velocity": 0.54,
        "hand": "right"
      },
      {
        "midi": 54,
        "time": 239,
        "duration": 0.25,
        "velocity": 0.54,
        "hand": "left"
      },
      {
        "midi": 58,
        "time": 239,
        "duration": 0.5,
        "velocity": 0.54,
        "hand": "left"
      },
      {
        "midi": 55,
        "time": 239.25,
        "duration": 0.25,
        "velocity": 0.54,
        "hand": "left"
      },
      {
        "midi": 53,
        "time": 239.5,
        "duration": 0.5,
        "velocity": 0.54,
        "hand": "left"
      },
      {
        "midi": 56,
        "time": 239.5,
        "duration": 0.5,
        "velocity": 0.54,
        "hand": "left"
      },
      {
        "midi": 60,
        "time": 239.5,
        "duration": 0.5,
        "velocity": 0.54,
        "hand": "right"
      },
      {
        "midi": 39,
        "time": 240,
        "duration": 0.25,
        "velocity": 0.54,
        "hand": "left"
      },
      {
        "midi": 55,
        "time": 240,
        "duration": 0.25,
        "velocity": 0.75,
        "hand": "left"
      },
      {
        "midi": 67,
        "time": 240,
        "duration": 0.25,
        "velocity": 0.54,
        "hand": "right"
      },
      {
        "midi": 65,
        "time": 240.25,
        "duration": 0.25,
        "velocity": 0.54,
        "hand": "right"
      },
      {
        "midi": 58,
        "time": 240.5,
        "duration": 0.25,
        "velocity": 0.54,
        "hand": "left"
      },
      {
        "midi": 62,
        "time": 240.5,
        "duration": 0.25,
        "velocity": 0.54,
        "hand": "right"
      },
      {
        "midi": 63,
        "time": 240.5,
        "duration": 0.25,
        "velocity": 0.54,
        "hand": "right"
      },
      {
        "midi": 55,
        "time": 240.75,
        "duration": 0.25,
        "velocity": 0.54,
        "hand": "left"
      },
      {
        "midi": 63,
        "time": 240.75,
        "duration": 0.25,
        "velocity": 0.54,
        "hand": "right"
      },
      {
        "midi": 54,
        "time": 241,
        "duration": 0.25,
        "velocity": 0.54,
        "hand": "left"
      },
      {
        "midi": 58,
        "time": 241,
        "duration": 0.5,
        "velocity": 0.54,
        "hand": "left"
      },
      {
        "midi": 55,
        "time": 241.25,
        "duration": 0.25,
        "velocity": 0.54,
        "hand": "left"
      },
      {
        "midi": 53,
        "time": 241.5,
        "duration": 0.5,
        "velocity": 0.54,
        "hand": "left"
      },
      {
        "midi": 56,
        "time": 241.5,
        "duration": 0.5,
        "velocity": 0.54,
        "hand": "left"
      },
      {
        "midi": 60,
        "time": 241.5,
        "duration": 0.5,
        "velocity": 0.54,
        "hand": "right"
      },
      {
        "midi": 39,
        "time": 242,
        "duration": 0.25,
        "velocity": 0.71,
        "hand": "left"
      },
      {
        "midi": 55,
        "time": 242,
        "duration": 0.25,
        "velocity": 0.54,
        "hand": "left"
      },
      {
        "midi": 67,
        "time": 242,
        "duration": 0.25,
        "velocity": 0.54,
        "hand": "right"
      },
      {
        "midi": 58,
        "time": 242.25,
        "duration": 0.5,
        "velocity": 0.71,
        "hand": "left"
      },
      {
        "midi": 67,
        "time": 242.25,
        "duration": 0.5,
        "velocity": 0.54,
        "hand": "right"
      },
      {
        "midi": 51,
        "time": 242.5,
        "duration": 0.25,
        "velocity": 0.71,
        "hand": "left"
      },
      {
        "midi": 59,
        "time": 242.75,
        "duration": 0.5,
        "velocity": 0.54,
        "hand": "left"
      },
      {
        "midi": 65,
        "time": 242.75,
        "duration": 0.5,
        "velocity": 0.54,
        "hand": "right"
      },
      {
        "midi": 67,
        "time": 242.75,
        "duration": 0.5,
        "velocity": 0.54,
        "hand": "right"
      },
      {
        "midi": 50,
        "time": 243,
        "duration": 0.25,
        "velocity": 0.71,
        "hand": "left"
      },
      {
        "midi": 60,
        "time": 243.25,
        "duration": 0.5,
        "velocity": 0.54,
        "hand": "right"
      },
      {
        "midi": 63,
        "time": 243.25,
        "duration": 0.5,
        "velocity": 0.57,
        "hand": "right"
      },
      {
        "midi": 67,
        "time": 243.25,
        "duration": 0.5,
        "velocity": 0.57,
        "hand": "right"
      },
      {
        "midi": 48,
        "time": 243.5,
        "duration": 0.25,
        "velocity": 0.71,
        "hand": "left"
      },
      {
        "midi": 58,
        "time": 243.75,
        "duration": 0.5,
        "velocity": 0.54,
        "hand": "left"
      },
      {
        "midi": 62,
        "time": 243.75,
        "duration": 0.5,
        "velocity": 0.61,
        "hand": "right"
      },
      {
        "midi": 67,
        "time": 243.75,
        "duration": 0.5,
        "velocity": 0.61,
        "hand": "right"
      },
      {
        "midi": 46,
        "time": 244,
        "duration": 0.25,
        "velocity": 0.71,
        "hand": "left"
      },
      {
        "midi": 50,
        "time": 244,
        "duration": 0.25,
        "velocity": 0.71,
        "hand": "left"
      },
      {
        "midi": 56,
        "time": 244.25,
        "duration": 0.5,
        "velocity": 0.71,
        "hand": "left"
      },
      {
        "midi": 60,
        "time": 244.25,
        "duration": 0.5,
        "velocity": 0.65,
        "hand": "right"
      },
      {
        "midi": 67,
        "time": 244.25,
        "duration": 0.5,
        "velocity": 0.65,
        "hand": "right"
      },
      {
        "midi": 44,
        "time": 244.5,
        "duration": 0.25,
        "velocity": 0.71,
        "hand": "left"
      },
      {
        "midi": 50,
        "time": 244.5,
        "duration": 0.25,
        "velocity": 0.71,
        "hand": "left"
      },
      {
        "midi": 55,
        "time": 244.75,
        "duration": 0.75,
        "velocity": 0.54,
        "hand": "left"
      },
      {
        "midi": 62,
        "time": 244.75,
        "duration": 0.5,
        "velocity": 0.69,
        "hand": "right"
      },
      {
        "midi": 67,
        "time": 244.75,
        "duration": 0.5,
        "velocity": 0.69,
        "hand": "right"
      },
      {
        "midi": 43,
        "time": 245,
        "duration": 0.5,
        "velocity": 0.71,
        "hand": "left"
      },
      {
        "midi": 50,
        "time": 245,
        "duration": 0.5,
        "velocity": 0.71,
        "hand": "left"
      },
      {
        "midi": 67,
        "time": 245.25,
        "duration": 0.75,
        "velocity": 0.72,
        "hand": "right"
      },
      {
        "midi": 55,
        "time": 245.5,
        "duration": 0.5,
        "velocity": 0.71,
        "hand": "left"
      },
      {
        "midi": 70,
        "time": 245.5,
        "duration": 0.5,
        "velocity": 0.75,
        "hand": "right"
      },
      {
        "midi": 79,
        "time": 245.5,
        "duration": 0.5,
        "velocity": 0.75,
        "hand": "right"
      },
      {
        "midi": 39,
        "time": 246,
        "duration": 0.25,
        "velocity": 0.54,
        "hand": "left"
      },
      {
        "midi": 55,
        "time": 246,
        "duration": 0.25,
        "velocity": 0.75,
        "hand": "left"
      },
      {
        "midi": 67,
        "time": 246,
        "duration": 0.25,
        "velocity": 0.75,
        "hand": "right"
      },
      {
        "midi": 65,
        "time": 246.25,
        "duration": 0.25,
        "velocity": 0.75,
        "hand": "right"
      },
      {
        "midi": 58,
        "time": 246.5,
        "duration": 0.25,
        "velocity": 0.54,
        "hand": "left"
      },
      {
        "midi": 62,
        "time": 246.5,
        "duration": 0.25,
        "velocity": 0.75,
        "hand": "right"
      },
      {
        "midi": 63,
        "time": 246.5,
        "duration": 0.25,
        "velocity": 0.75,
        "hand": "right"
      },
      {
        "midi": 55,
        "time": 246.75,
        "duration": 0.25,
        "velocity": 0.54,
        "hand": "left"
      },
      {
        "midi": 63,
        "time": 246.75,
        "duration": 0.25,
        "velocity": 0.75,
        "hand": "right"
      },
      {
        "midi": 54,
        "time": 247,
        "duration": 0.25,
        "velocity": 0.54,
        "hand": "left"
      },
      {
        "midi": 58,
        "time": 247,
        "duration": 0.5,
        "velocity": 0.75,
        "hand": "left"
      },
      {
        "midi": 55,
        "time": 247.25,
        "duration": 0.25,
        "velocity": 0.54,
        "hand": "left"
      },
      {
        "midi": 53,
        "time": 247.5,
        "duration": 0.5,
        "velocity": 0.75,
        "hand": "left"
      },
      {
        "midi": 56,
        "time": 247.5,
        "duration": 0.5,
        "velocity": 0.54,
        "hand": "left"
      },
      {
        "midi": 60,
        "time": 247.5,
        "duration": 0.5,
        "velocity": 0.75,
        "hand": "right"
      },
      {
        "midi": 39,
        "time": 248,
        "duration": 0.25,
        "velocity": 0.54,
        "hand": "left"
      },
      {
        "midi": 55,
        "time": 248,
        "duration": 0.25,
        "velocity": 0.75,
        "hand": "left"
      },
      {
        "midi": 67,
        "time": 248,
        "duration": 0.25,
        "velocity": 0.75,
        "hand": "right"
      },
      {
        "midi": 65,
        "time": 248.25,
        "duration": 0.25,
        "velocity": 0.75,
        "hand": "right"
      },
      {
        "midi": 58,
        "time": 248.5,
        "duration": 0.25,
        "velocity": 0.54,
        "hand": "left"
      },
      {
        "midi": 62,
        "time": 248.5,
        "duration": 0.25,
        "velocity": 0.75,
        "hand": "right"
      },
      {
        "midi": 63,
        "time": 248.5,
        "duration": 0.25,
        "velocity": 0.75,
        "hand": "right"
      },
      {
        "midi": 55,
        "time": 248.75,
        "duration": 0.25,
        "velocity": 0.54,
        "hand": "left"
      },
      {
        "midi": 63,
        "time": 248.75,
        "duration": 0.25,
        "velocity": 0.75,
        "hand": "right"
      },
      {
        "midi": 54,
        "time": 249,
        "duration": 0.25,
        "velocity": 0.54,
        "hand": "left"
      },
      {
        "midi": 58,
        "time": 249,
        "duration": 0.5,
        "velocity": 0.75,
        "hand": "left"
      },
      {
        "midi": 55,
        "time": 249.25,
        "duration": 0.25,
        "velocity": 0.54,
        "hand": "left"
      },
      {
        "midi": 53,
        "time": 249.5,
        "duration": 0.5,
        "velocity": 0.75,
        "hand": "left"
      },
      {
        "midi": 56,
        "time": 249.5,
        "duration": 0.5,
        "velocity": 0.54,
        "hand": "left"
      },
      {
        "midi": 60,
        "time": 249.5,
        "duration": 0.5,
        "velocity": 0.75,
        "hand": "right"
      },
      {
        "midi": 39,
        "time": 250,
        "duration": 0.25,
        "velocity": 0.71,
        "hand": "left"
      },
      {
        "midi": 55,
        "time": 250,
        "duration": 0.25,
        "velocity": 0.75,
        "hand": "left"
      },
      {
        "midi": 67,
        "time": 250,
        "duration": 0.25,
        "velocity": 0.75,
        "hand": "right"
      },
      {
        "midi": 58,
        "time": 250.25,
        "duration": 0.5,
        "velocity": 0.71,
        "hand": "left"
      },
      {
        "midi": 67,
        "time": 250.25,
        "duration": 0.5,
        "velocity": 0.75,
        "hand": "right"
      },
      {
        "midi": 51,
        "time": 250.5,
        "duration": 0.25,
        "velocity": 0.71,
        "hand": "left"
      },
      {
        "midi": 59,
        "time": 250.75,
        "duration": 0.5,
        "velocity": 0.54,
        "hand": "left"
      },
      {
        "midi": 65,
        "time": 250.75,
        "duration": 0.5,
        "velocity": 0.75,
        "hand": "right"
      },
      {
        "midi": 67,
        "time": 250.75,
        "duration": 0.5,
        "velocity": 0.75,
        "hand": "right"
      },
      {
        "midi": 50,
        "time": 251,
        "duration": 0.25,
        "velocity": 0.71,
        "hand": "left"
      },
      {
        "midi": 60,
        "time": 251.25,
        "duration": 0.5,
        "velocity": 0.54,
        "hand": "right"
      },
      {
        "midi": 63,
        "time": 251.25,
        "duration": 0.5,
        "velocity": 0.75,
        "hand": "right"
      },
      {
        "midi": 67,
        "time": 251.25,
        "duration": 0.5,
        "velocity": 0.75,
        "hand": "right"
      },
      {
        "midi": 48,
        "time": 251.5,
        "duration": 0.25,
        "velocity": 0.71,
        "hand": "left"
      },
      {
        "midi": 58,
        "time": 251.75,
        "duration": 0.5,
        "velocity": 0.54,
        "hand": "left"
      },
      {
        "midi": 62,
        "time": 251.75,
        "duration": 0.5,
        "velocity": 0.75,
        "hand": "right"
      },
      {
        "midi": 67,
        "time": 251.75,
        "duration": 0.5,
        "velocity": 0.75,
        "hand": "right"
      },
      {
        "midi": 46,
        "time": 252,
        "duration": 0.25,
        "velocity": 0.71,
        "hand": "left"
      },
      {
        "midi": 50,
        "time": 252,
        "duration": 0.25,
        "velocity": 0.71,
        "hand": "left"
      },
      {
        "midi": 56,
        "time": 252.25,
        "duration": 0.5,
        "velocity": 0.71,
        "hand": "left"
      },
      {
        "midi": 60,
        "time": 252.25,
        "duration": 0.5,
        "velocity": 0.75,
        "hand": "right"
      },
      {
        "midi": 67,
        "time": 252.25,
        "duration": 0.5,
        "velocity": 0.75,
        "hand": "right"
      },
      {
        "midi": 44,
        "time": 252.5,
        "duration": 0.25,
        "velocity": 0.71,
        "hand": "left"
      },
      {
        "midi": 50,
        "time": 252.5,
        "duration": 0.25,
        "velocity": 0.71,
        "hand": "left"
      },
      {
        "midi": 55,
        "time": 252.75,
        "duration": 0.75,
        "velocity": 0.54,
        "hand": "left"
      },
      {
        "midi": 62,
        "time": 252.75,
        "duration": 0.5,
        "velocity": 0.75,
        "hand": "right"
      },
      {
        "midi": 67,
        "time": 252.75,
        "duration": 0.5,
        "velocity": 0.75,
        "hand": "right"
      },
      {
        "midi": 43,
        "time": 253,
        "duration": 0.5,
        "velocity": 0.71,
        "hand": "left"
      },
      {
        "midi": 50,
        "time": 253,
        "duration": 0.5,
        "velocity": 0.71,
        "hand": "left"
      },
      {
        "midi": 67,
        "time": 253.25,
        "duration": 0.25,
        "velocity": 0.75,
        "hand": "right"
      },
      {
        "midi": 55,
        "time": 253.5,
        "duration": 0.5,
        "velocity": 0.71,
        "hand": "left"
      },
      {
        "midi": 70,
        "time": 253.5,
        "duration": 0.25,
        "velocity": 0.75,
        "hand": "right"
      },
      {
        "midi": 79,
        "time": 253.5,
        "duration": 0.25,
        "velocity": 0.75,
        "hand": "right"
      },
      {
        "midi": 70,
        "time": 253.75,
        "duration": 0.25,
        "velocity": 0.75,
        "hand": "right"
      },
      {
        "midi": 82,
        "time": 253.75,
        "duration": 0.25,
        "velocity": 0.75,
        "hand": "right"
      },
      {
        "midi": 72,
        "time": 254,
        "duration": 0.5,
        "velocity": 0.61,
        "hand": "right"
      },
      {
        "midi": 84,
        "time": 254,
        "duration": 0.5,
        "velocity": 0.61,
        "hand": "right"
      },
      {
        "midi": 44,
        "time": 254.25,
        "duration": 0.25,
        "velocity": 0.54,
        "hand": "left"
      },
      {
        "midi": 46,
        "time": 254.25,
        "duration": 0.25,
        "velocity": 0.54,
        "hand": "left"
      },
      {
        "midi": 50,
        "time": 254.25,
        "duration": 0.25,
        "velocity": 0.54,
        "hand": "left"
      },
      {
        "midi": 56,
        "time": 254.5,
        "duration": 0.25,
        "velocity": 0.54,
        "hand": "left"
      },
      {
        "midi": 72,
        "time": 254.5,
        "duration": 0.5,
        "velocity": 0.61,
        "hand": "right"
      },
      {
        "midi": 84,
        "time": 254.5,
        "duration": 0.5,
        "velocity": 0.61,
        "hand": "right"
      },
      {
        "midi": 56,
        "time": 254.75,
        "duration": 0.25,
        "velocity": 0.54,
        "hand": "left"
      },
      {
        "midi": 58,
        "time": 254.75,
        "duration": 0.25,
        "velocity": 0.54,
        "hand": "left"
      },
      {
        "midi": 62,
        "time": 254.75,
        "duration": 0.25,
        "velocity": 0.54,
        "hand": "right"
      },
      {
        "midi": 68,
        "time": 255,
        "duration": 0.25,
        "velocity": 0.54,
        "hand": "right"
      },
      {
        "midi": 72,
        "time": 255,
        "duration": 0.25,
        "velocity": 0.61,
        "hand": "right"
      },
      {
        "midi": 84,
        "time": 255,
        "duration": 0.25,
        "velocity": 0.61,
        "hand": "right"
      },
      {
        "midi": 56,
        "time": 255.25,
        "duration": 0.25,
        "velocity": 0.54,
        "hand": "left"
      },
      {
        "midi": 62,
        "time": 255.25,
        "duration": 0.25,
        "velocity": 0.54,
        "hand": "right"
      },
      {
        "midi": 82,
        "time": 255.25,
        "duration": 0.25,
        "velocity": 0.61,
        "hand": "right"
      },
      {
        "midi": 79,
        "time": 255.5,
        "duration": 0.25,
        "velocity": 0.61,
        "hand": "right"
      },
      {
        "midi": 80,
        "time": 255.5,
        "duration": 0.25,
        "velocity": 0.61,
        "hand": "right"
      },
      {
        "midi": 77,
        "time": 255.75,
        "duration": 0.25,
        "velocity": 0.61,
        "hand": "right"
      },
      {
        "midi": 70,
        "time": 256,
        "duration": 0.5,
        "velocity": 0.61,
        "hand": "right"
      },
      {
        "midi": 82,
        "time": 256,
        "duration": 0.5,
        "velocity": 0.61,
        "hand": "right"
      },
      {
        "midi": 43,
        "time": 256.25,
        "duration": 0.25,
        "velocity": 0.54,
        "hand": "left"
      },
      {
        "midi": 46,
        "time": 256.25,
        "duration": 0.25,
        "velocity": 0.54,
        "hand": "left"
      },
      {
        "midi": 51,
        "time": 256.25,
        "duration": 0.25,
        "velocity": 0.54,
        "hand": "left"
      },
      {
        "midi": 55,
        "time": 256.5,
        "duration": 0.25,
        "velocity": 0.54,
        "hand": "left"
      },
      {
        "midi": 70,
        "time": 256.5,
        "duration": 0.5,
        "velocity": 0.61,
        "hand": "right"
      },
      {
        "midi": 82,
        "time": 256.5,
        "duration": 0.5,
        "velocity": 0.61,
        "hand": "right"
      },
      {
        "midi": 55,
        "time": 256.75,
        "duration": 0.25,
        "velocity": 0.54,
        "hand": "left"
      },
      {
        "midi": 58,
        "time": 256.75,
        "duration": 0.25,
        "velocity": 0.54,
        "hand": "left"
      },
      {
        "midi": 63,
        "time": 256.75,
        "duration": 0.25,
        "velocity": 0.54,
        "hand": "right"
      },
      {
        "midi": 67,
        "time": 257,
        "duration": 0.25,
        "velocity": 0.54,
        "hand": "right"
      },
      {
        "midi": 70,
        "time": 257,
        "duration": 0.5,
        "velocity": 0.61,
        "hand": "right"
      },
      {
        "midi": 82,
        "time": 257,
        "duration": 0.5,
        "velocity": 0.61,
        "hand": "right"
      },
      {
        "midi": 55,
        "time": 257.25,
        "duration": 0.25,
        "velocity": 0.54,
        "hand": "left"
      },
      {
        "midi": 58,
        "time": 257.25,
        "duration": 0.25,
        "velocity": 0.54,
        "hand": "left"
      },
      {
        "midi": 63,
        "time": 257.25,
        "duration": 0.25,
        "velocity": 0.54,
        "hand": "right"
      },
      {
        "midi": 75,
        "time": 257.5,
        "duration": 0.25,
        "velocity": 0.61,
        "hand": "right"
      },
      {
        "midi": 87,
        "time": 257.5,
        "duration": 0.25,
        "velocity": 0.61,
        "hand": "right"
      },
      {
        "midi": 74,
        "time": 257.75,
        "duration": 0.25,
        "velocity": 0.61,
        "hand": "right"
      },
      {
        "midi": 86,
        "time": 257.75,
        "duration": 0.25,
        "velocity": 0.61,
        "hand": "right"
      },
      {
        "midi": 72,
        "time": 258,
        "duration": 0.5,
        "velocity": 0.61,
        "hand": "right"
      },
      {
        "midi": 84,
        "time": 258,
        "duration": 0.5,
        "velocity": 0.61,
        "hand": "right"
      },
      {
        "midi": 44,
        "time": 258.25,
        "duration": 0.25,
        "velocity": 0.54,
        "hand": "left"
      },
      {
        "midi": 46,
        "time": 258.25,
        "duration": 0.25,
        "velocity": 0.54,
        "hand": "left"
      },
      {
        "midi": 50,
        "time": 258.25,
        "duration": 0.25,
        "velocity": 0.54,
        "hand": "left"
      },
      {
        "midi": 56,
        "time": 258.5,
        "duration": 0.25,
        "velocity": 0.54,
        "hand": "left"
      },
      {
        "midi": 72,
        "time": 258.5,
        "duration": 0.5,
        "velocity": 0.61,
        "hand": "right"
      },
      {
        "midi": 84,
        "time": 258.5,
        "duration": 0.5,
        "velocity": 0.61,
        "hand": "right"
      },
      {
        "midi": 56,
        "time": 258.75,
        "duration": 0.25,
        "velocity": 0.54,
        "hand": "left"
      },
      {
        "midi": 58,
        "time": 258.75,
        "duration": 0.25,
        "velocity": 0.54,
        "hand": "left"
      },
      {
        "midi": 62,
        "time": 258.75,
        "duration": 0.25,
        "velocity": 0.54,
        "hand": "right"
      },
      {
        "midi": 68,
        "time": 259,
        "duration": 0.25,
        "velocity": 0.54,
        "hand": "right"
      },
      {
        "midi": 72,
        "time": 259,
        "duration": 0.25,
        "velocity": 0.61,
        "hand": "right"
      },
      {
        "midi": 84,
        "time": 259,
        "duration": 0.25,
        "velocity": 0.61,
        "hand": "right"
      },
      {
        "midi": 56,
        "time": 259.25,
        "duration": 0.25,
        "velocity": 0.54,
        "hand": "left"
      },
      {
        "midi": 62,
        "time": 259.25,
        "duration": 0.25,
        "velocity": 0.54,
        "hand": "right"
      },
      {
        "midi": 82,
        "time": 259.25,
        "duration": 0.25,
        "velocity": 0.61,
        "hand": "right"
      },
      {
        "midi": 79,
        "time": 259.5,
        "duration": 0.25,
        "velocity": 0.61,
        "hand": "right"
      },
      {
        "midi": 80,
        "time": 259.5,
        "duration": 0.25,
        "velocity": 0.61,
        "hand": "right"
      },
      {
        "midi": 77,
        "time": 259.75,
        "duration": 0.25,
        "velocity": 0.61,
        "hand": "right"
      },
      {
        "midi": 70,
        "time": 260,
        "duration": 0.5,
        "velocity": 0.61,
        "hand": "right"
      },
      {
        "midi": 82,
        "time": 260,
        "duration": 0.5,
        "velocity": 0.61,
        "hand": "right"
      },
      {
        "midi": 43,
        "time": 260.25,
        "duration": 0.25,
        "velocity": 0.54,
        "hand": "left"
      },
      {
        "midi": 46,
        "time": 260.25,
        "duration": 0.25,
        "velocity": 0.54,
        "hand": "left"
      },
      {
        "midi": 51,
        "time": 260.25,
        "duration": 0.25,
        "velocity": 0.54,
        "hand": "left"
      },
      {
        "midi": 55,
        "time": 260.5,
        "duration": 0.25,
        "velocity": 0.54,
        "hand": "left"
      },
      {
        "midi": 70,
        "time": 260.5,
        "duration": 0.5,
        "velocity": 0.61,
        "hand": "right"
      },
      {
        "midi": 82,
        "time": 260.5,
        "duration": 0.5,
        "velocity": 0.61,
        "hand": "right"
      },
      {
        "midi": 55,
        "time": 260.75,
        "duration": 0.25,
        "velocity": 0.54,
        "hand": "left"
      },
      {
        "midi": 58,
        "time": 260.75,
        "duration": 0.25,
        "velocity": 0.54,
        "hand": "left"
      },
      {
        "midi": 63,
        "time": 260.75,
        "duration": 0.25,
        "velocity": 0.54,
        "hand": "right"
      },
      {
        "midi": 67,
        "time": 261,
        "duration": 0.25,
        "velocity": 0.54,
        "hand": "right"
      },
      {
        "midi": 70,
        "time": 261,
        "duration": 0.5,
        "velocity": 0.61,
        "hand": "right"
      },
      {
        "midi": 82,
        "time": 261,
        "duration": 0.5,
        "velocity": 0.61,
        "hand": "right"
      },
      {
        "midi": 55,
        "time": 261.25,
        "duration": 0.25,
        "velocity": 0.54,
        "hand": "left"
      },
      {
        "midi": 58,
        "time": 261.25,
        "duration": 0.25,
        "velocity": 0.54,
        "hand": "left"
      },
      {
        "midi": 63,
        "time": 261.25,
        "duration": 0.25,
        "velocity": 0.54,
        "hand": "right"
      },
      {
        "midi": 63,
        "time": 261.5,
        "duration": 0.25,
        "velocity": 0.68,
        "hand": "right"
      },
      {
        "midi": 67,
        "time": 261.5,
        "duration": 0.25,
        "velocity": 0.68,
        "hand": "right"
      },
      {
        "midi": 67,
        "time": 261.75,
        "duration": 0.25,
        "velocity": 0.68,
        "hand": "right"
      },
      {
        "midi": 70,
        "time": 261.75,
        "duration": 0.25,
        "velocity": 0.68,
        "hand": "right"
      },
      {
        "midi": 44,
        "time": 262,
        "duration": 1.25,
        "velocity": 0.71,
        "hand": "left"
      },
      {
        "midi": 68,
        "time": 262,
        "duration": 0.25,
        "velocity": 0.75,
        "hand": "right"
      },
      {
        "midi": 72,
        "time": 262,
        "duration": 0.5,
        "velocity": 0.68,
        "hand": "right"
      },
      {
        "midi": 50,
        "time": 262.25,
        "duration": 0.5,
        "velocity": 0.54,
        "hand": "left"
      },
      {
        "midi": 60,
        "time": 262.25,
        "duration": 0.25,
        "velocity": 0.75,
        "hand": "right"
      },
      {
        "midi": 65,
        "time": 262.25,
        "duration": 0.25,
        "velocity": 0.75,
        "hand": "right"
      },
      {
        "midi": 68,
        "time": 262.5,
        "duration": 0.25,
        "velocity": 0.75,
        "hand": "right"
      },
      {
        "midi": 72,
        "time": 262.5,
        "duration": 0.5,
        "velocity": 0.68,
        "hand": "right"
      },
      {
        "midi": 52,
        "time": 262.75,
        "duration": 0.25,
        "velocity": 0.54,
        "hand": "left"
      },
      {
        "midi": 60,
        "time": 262.75,
        "duration": 0.25,
        "velocity": 0.75,
        "hand": "right"
      },
      {
        "midi": 67,
        "time": 262.75,
        "duration": 0.25,
        "velocity": 0.75,
        "hand": "right"
      },
      {
        "midi": 53,
        "time": 263,
        "duration": 0.25,
        "velocity": 0.54,
        "hand": "left"
      },
      {
        "midi": 68,
        "time": 263,
        "duration": 0.25,
        "velocity": 0.75,
        "hand": "right"
      },
      {
        "midi": 72,
        "time": 263,
        "duration": 0.25,
        "velocity": 0.68,
        "hand": "right"
      },
      {
        "midi": 70,
        "time": 263.25,
        "duration": 0.25,
        "velocity": 0.68,
        "hand": "right"
      },
      {
        "midi": 67,
        "time": 263.5,
        "duration": 0.25,
        "velocity": 0.68,
        "hand": "right"
      },
      {
        "midi": 68,
        "time": 263.5,
        "duration": 0.25,
        "velocity": 0.68,
        "hand": "right"
      },
      {
        "midi": 65,
        "time": 263.75,
        "duration": 0.25,
        "velocity": 0.68,
        "hand": "right"
      },
      {
        "midi": 43,
        "time": 264,
        "duration": 1.25,
        "velocity": 0.71,
        "hand": "left"
      },
      {
        "midi": 67,
        "time": 264,
        "duration": 0.25,
        "velocity": 0.75,
        "hand": "right"
      },
      {
        "midi": 70,
        "time": 264,
        "duration": 0.5,
        "velocity": 0.68,
        "hand": "right"
      },
      {
        "midi": 48,
        "time": 264.25,
        "duration": 0.5,
        "velocity": 0.54,
        "hand": "left"
      },
      {
        "midi": 58,
        "time": 264.25,
        "duration": 0.25,
        "velocity": 0.75,
        "hand": "left"
      },
      {
        "midi": 63,
        "time": 264.25,
        "duration": 0.25,
        "velocity": 0.75,
        "hand": "right"
      },
      {
        "midi": 67,
        "time": 264.5,
        "duration": 0.25,
        "velocity": 0.75,
        "hand": "right"
      },
      {
        "midi": 70,
        "time": 264.5,
        "duration": 0.5,
        "velocity": 0.68,
        "hand": "right"
      },
      {
        "midi": 50,
        "time": 264.75,
        "duration": 0.25,
        "velocity": 0.54,
        "hand": "left"
      },
      {
        "midi": 58,
        "time": 264.75,
        "duration": 0.25,
        "velocity": 0.75,
        "hand": "left"
      },
      {
        "midi": 65,
        "time": 264.75,
        "duration": 0.25,
        "velocity": 0.75,
        "hand": "right"
      },
      {
        "midi": 51,
        "time": 265,
        "duration": 0.25,
        "velocity": 0.54,
        "hand": "left"
      },
      {
        "midi": 67,
        "time": 265,
        "duration": 0.25,
        "velocity": 0.75,
        "hand": "right"
      },
      {
        "midi": 70,
        "time": 265,
        "duration": 0.25,
        "velocity": 0.68,
        "hand": "right"
      },
      {
        "midi": 66,
        "time": 265.25,
        "duration": 0.25,
        "velocity": 0.75,
        "hand": "right"
      },
      {
        "midi": 67,
        "time": 265.25,
        "duration": 0.25,
        "velocity": 0.75,
        "hand": "right"
      },
      {
        "midi": 70,
        "time": 265.5,
        "duration": 0.25,
        "velocity": 0.75,
        "hand": "right"
      },
      {
        "midi": 75,
        "time": 265.5,
        "duration": 0.25,
        "velocity": 0.75,
        "hand": "right"
      },
      {
        "midi": 74,
        "time": 265.75,
        "duration": 0.25,
        "velocity": 0.75,
        "hand": "right"
      },
      {
        "midi": 44,
        "time": 266,
        "duration": 1.25,
        "velocity": 0.71,
        "hand": "left"
      },
      {
        "midi": 68,
        "time": 266,
        "duration": 0.25,
        "velocity": 0.75,
        "hand": "right"
      },
      {
        "midi": 72,
        "time": 266,
        "duration": 0.5,
        "velocity": 0.68,
        "hand": "right"
      },
      {
        "midi": 50,
        "time": 266.25,
        "duration": 0.5,
        "velocity": 0.54,
        "hand": "left"
      },
      {
        "midi": 60,
        "time": 266.25,
        "duration": 0.25,
        "velocity": 0.75,
        "hand": "right"
      },
      {
        "midi": 65,
        "time": 266.25,
        "duration": 0.25,
        "velocity": 0.75,
        "hand": "right"
      },
      {
        "midi": 68,
        "time": 266.5,
        "duration": 0.25,
        "velocity": 0.75,
        "hand": "right"
      },
      {
        "midi": 72,
        "time": 266.5,
        "duration": 0.5,
        "velocity": 0.68,
        "hand": "right"
      },
      {
        "midi": 52,
        "time": 266.75,
        "duration": 0.25,
        "velocity": 0.54,
        "hand": "left"
      },
      {
        "midi": 60,
        "time": 266.75,
        "duration": 0.25,
        "velocity": 0.75,
        "hand": "right"
      },
      {
        "midi": 67,
        "time": 266.75,
        "duration": 0.25,
        "velocity": 0.75,
        "hand": "right"
      },
      {
        "midi": 53,
        "time": 267,
        "duration": 0.25,
        "velocity": 0.54,
        "hand": "left"
      },
      {
        "midi": 68,
        "time": 267,
        "duration": 0.25,
        "velocity": 0.75,
        "hand": "right"
      },
      {
        "midi": 72,
        "time": 267,
        "duration": 0.25,
        "velocity": 0.68,
        "hand": "right"
      },
      {
        "midi": 70,
        "time": 267.25,
        "duration": 0.25,
        "velocity": 0.68,
        "hand": "right"
      },
      {
        "midi": 67,
        "time": 267.5,
        "duration": 0.25,
        "velocity": 0.68,
        "hand": "right"
      },
      {
        "midi": 68,
        "time": 267.5,
        "duration": 0.25,
        "velocity": 0.68,
        "hand": "right"
      },
      {
        "midi": 65,
        "time": 267.75,
        "duration": 0.25,
        "velocity": 0.68,
        "hand": "right"
      },
      {
        "midi": 43,
        "time": 268,
        "duration": 1.25,
        "velocity": 0.71,
        "hand": "left"
      },
      {
        "midi": 67,
        "time": 268,
        "duration": 0.25,
        "velocity": 0.75,
        "hand": "right"
      },
      {
        "midi": 70,
        "time": 268,
        "duration": 0.5,
        "velocity": 0.68,
        "hand": "right"
      },
      {
        "midi": 48,
        "time": 268.25,
        "duration": 0.5,
        "velocity": 0.54,
        "hand": "left"
      },
      {
        "midi": 58,
        "time": 268.25,
        "duration": 0.25,
        "velocity": 0.75,
        "hand": "left"
      },
      {
        "midi": 63,
        "time": 268.25,
        "duration": 0.25,
        "velocity": 0.75,
        "hand": "right"
      },
      {
        "midi": 67,
        "time": 268.5,
        "duration": 0.25,
        "velocity": 0.75,
        "hand": "right"
      },
      {
        "midi": 70,
        "time": 268.5,
        "duration": 0.5,
        "velocity": 0.68,
        "hand": "right"
      },
      {
        "midi": 50,
        "time": 268.75,
        "duration": 0.25,
        "velocity": 0.54,
        "hand": "left"
      },
      {
        "midi": 58,
        "time": 268.75,
        "duration": 0.25,
        "velocity": 0.75,
        "hand": "left"
      },
      {
        "midi": 65,
        "time": 268.75,
        "duration": 0.25,
        "velocity": 0.75,
        "hand": "right"
      },
      {
        "midi": 51,
        "time": 269,
        "duration": 0.25,
        "velocity": 0.54,
        "hand": "left"
      },
      {
        "midi": 67,
        "time": 269,
        "duration": 0.25,
        "velocity": 0.75,
        "hand": "right"
      },
      {
        "midi": 70,
        "time": 269,
        "duration": 0.25,
        "velocity": 0.68,
        "hand": "right"
      },
      {
        "midi": 63,
        "time": 269.25,
        "duration": 0.25,
        "velocity": 0.75,
        "hand": "right"
      },
      {
        "midi": 65,
        "time": 269.25,
        "duration": 0.25,
        "velocity": 0.75,
        "hand": "right"
      },
      {
        "midi": 55,
        "time": 269.5,
        "duration": 0.25,
        "velocity": 0.54,
        "hand": "left"
      },
      {
        "midi": 62,
        "time": 269.5,
        "duration": 0.25,
        "velocity": 0.75,
        "hand": "right"
      },
      {
        "midi": 63,
        "time": 269.5,
        "duration": 0.5,
        "velocity": 0.75,
        "hand": "right"
      },
      {
        "midi": 58,
        "time": 269.75,
        "duration": 0.25,
        "velocity": 0.54,
        "hand": "left"
      },
      {
        "midi": 60,
        "time": 270,
        "duration": 0.5,
        "velocity": 0.54,
        "hand": "right"
      },
      {
        "midi": 44,
        "time": 270.25,
        "duration": 0.25,
        "velocity": 0.71,
        "hand": "left"
      },
      {
        "midi": 65,
        "time": 270.25,
        "duration": 0.25,
        "velocity": 0.68,
        "hand": "right"
      },
      {
        "midi": 72,
        "time": 270.25,
        "duration": 0.25,
        "velocity": 0.68,
        "hand": "right"
      },
      {
        "midi": 60,
        "time": 270.5,
        "duration": 0.5,
        "velocity": 0.54,
        "hand": "right"
      },
      {
        "midi": 44,
        "time": 270.75,
        "duration": 0.25,
        "velocity": 0.71,
        "hand": "left"
      },
      {
        "midi": 77,
        "time": 270.75,
        "duration": 0.25,
        "velocity": 0.68,
        "hand": "right"
      },
      {
        "midi": 84,
        "time": 270.75,
        "duration": 0.25,
        "velocity": 0.68,
        "hand": "right"
      },
      {
        "midi": 60,
        "time": 271,
        "duration": 0.5,
        "velocity": 0.54,
        "hand": "right"
      },
      {
        "midi": 44,
        "time": 271.25,
        "duration": 0.25,
        "velocity": 0.71,
        "hand": "left"
      },
      {
        "midi": 89,
        "time": 271.25,
        "duration": 0.25,
        "velocity": 0.68,
        "hand": "right"
      },
      {
        "midi": 96,
        "time": 271.25,
        "duration": 0.25,
        "velocity": 0.68,
        "hand": "right"
      },
      {
        "midi": 58,
        "time": 271.5,
        "duration": 0.25,
        "velocity": 0.54,
        "hand": "left"
      },
      {
        "midi": 55,
        "time": 271.75,
        "duration": 0.25,
        "velocity": 0.54,
        "hand": "left"
      },
      {
        "midi": 56,
        "time": 271.75,
        "duration": 0.25,
        "velocity": 0.54,
        "hand": "left"
      },
      {
        "midi": 53,
        "time": 272,
        "duration": 0.25,
        "velocity": 0.54,
        "hand": "left"
      },
      {
        "midi": 58,
        "time": 272,
        "duration": 0.5,
        "velocity": 0.54,
        "hand": "left"
      },
      {
        "midi": 43,
        "time": 272.25,
        "duration": 0.25,
        "velocity": 0.71,
        "hand": "left"
      },
      {
        "midi": 70,
        "time": 272.25,
        "duration": 0.25,
        "velocity": 0.68,
        "hand": "right"
      },
      {
        "midi": 75,
        "time": 272.25,
        "duration": 0.25,
        "velocity": 0.68,
        "hand": "right"
      },
      {
        "midi": 58,
        "time": 272.5,
        "duration": 0.5,
        "velocity": 0.54,
        "hand": "left"
      },
      {
        "midi": 43,
        "time": 272.75,
        "duration": 0.25,
        "velocity": 0.71,
        "hand": "left"
      },
      {
        "midi": 82,
        "time": 272.75,
        "duration": 0.25,
        "velocity": 0.68,
        "hand": "right"
      },
      {
        "midi": 87,
        "time": 272.75,
        "duration": 0.25,
        "velocity": 0.68,
        "hand": "right"
      },
      {
        "midi": 58,
        "time": 273,
        "duration": 0.5,
        "velocity": 0.54,
        "hand": "left"
      },
      {
        "midi": 43,
        "time": 273.25,
        "duration": 0.25,
        "velocity": 0.71,
        "hand": "left"
      },
      {
        "midi": 94,
        "time": 273.25,
        "duration": 0.25,
        "velocity": 0.68,
        "hand": "right"
      },
      {
        "midi": 99,
        "time": 273.25,
        "duration": 0.25,
        "velocity": 0.68,
        "hand": "right"
      },
      {
        "midi": 63,
        "time": 273.5,
        "duration": 0.25,
        "velocity": 0.54,
        "hand": "right"
      },
      {
        "midi": 62,
        "time": 273.75,
        "duration": 0.25,
        "velocity": 0.54,
        "hand": "right"
      },
      {
        "midi": 60,
        "time": 274,
        "duration": 0.5,
        "velocity": 0.54,
        "hand": "right"
      },
      {
        "midi": 44,
        "time": 274.25,
        "duration": 0.25,
        "velocity": 0.71,
        "hand": "left"
      },
      {
        "midi": 65,
        "time": 274.25,
        "duration": 0.25,
        "velocity": 0.68,
        "hand": "right"
      },
      {
        "midi": 72,
        "time": 274.25,
        "duration": 0.25,
        "velocity": 0.68,
        "hand": "right"
      },
      {
        "midi": 60,
        "time": 274.5,
        "duration": 0.5,
        "velocity": 0.54,
        "hand": "right"
      },
      {
        "midi": 44,
        "time": 274.75,
        "duration": 0.25,
        "velocity": 0.71,
        "hand": "left"
      },
      {
        "midi": 77,
        "time": 274.75,
        "duration": 0.25,
        "velocity": 0.68,
        "hand": "right"
      },
      {
        "midi": 84,
        "time": 274.75,
        "duration": 0.25,
        "velocity": 0.68,
        "hand": "right"
      },
      {
        "midi": 60,
        "time": 275,
        "duration": 0.5,
        "velocity": 0.54,
        "hand": "right"
      },
      {
        "midi": 44,
        "time": 275.25,
        "duration": 0.25,
        "velocity": 0.71,
        "hand": "left"
      },
      {
        "midi": 89,
        "time": 275.25,
        "duration": 0.25,
        "velocity": 0.68,
        "hand": "right"
      },
      {
        "midi": 96,
        "time": 275.25,
        "duration": 0.25,
        "velocity": 0.68,
        "hand": "right"
      },
      {
        "midi": 58,
        "time": 275.5,
        "duration": 0.25,
        "velocity": 0.54,
        "hand": "left"
      },
      {
        "midi": 55,
        "time": 275.75,
        "duration": 0.25,
        "velocity": 0.54,
        "hand": "left"
      },
      {
        "midi": 56,
        "time": 275.75,
        "duration": 0.25,
        "velocity": 0.54,
        "hand": "left"
      },
      {
        "midi": 53,
        "time": 276,
        "duration": 0.25,
        "velocity": 0.54,
        "hand": "left"
      },
      {
        "midi": 58,
        "time": 276,
        "duration": 0.5,
        "velocity": 0.54,
        "hand": "left"
      },
      {
        "midi": 43,
        "time": 276.25,
        "duration": 0.25,
        "velocity": 0.71,
        "hand": "left"
      },
      {
        "midi": 70,
        "time": 276.25,
        "duration": 0.25,
        "velocity": 0.68,
        "hand": "right"
      },
      {
        "midi": 75,
        "time": 276.25,
        "duration": 0.25,
        "velocity": 0.68,
        "hand": "right"
      },
      {
        "midi": 58,
        "time": 276.5,
        "duration": 0.5,
        "velocity": 0.54,
        "hand": "left"
      },
      {
        "midi": 43,
        "time": 276.75,
        "duration": 0.25,
        "velocity": 0.71,
        "hand": "left"
      },
      {
        "midi": 82,
        "time": 276.75,
        "duration": 0.25,
        "velocity": 0.68,
        "hand": "right"
      },
      {
        "midi": 87,
        "time": 276.75,
        "duration": 0.25,
        "velocity": 0.68,
        "hand": "right"
      },
      {
        "midi": 58,
        "time": 277,
        "duration": 0.5,
        "velocity": 0.54,
        "hand": "left"
      },
      {
        "midi": 43,
        "time": 277.25,
        "duration": 0.25,
        "velocity": 0.71,
        "hand": "left"
      },
      {
        "midi": 94,
        "time": 277.25,
        "duration": 0.25,
        "velocity": 0.68,
        "hand": "right"
      },
      {
        "midi": 99,
        "time": 277.25,
        "duration": 0.25,
        "velocity": 0.68,
        "hand": "right"
      },
      {
        "midi": 63,
        "time": 277.5,
        "duration": 0.25,
        "velocity": 0.54,
        "hand": "right"
      },
      {
        "midi": 86,
        "time": 277.5,
        "duration": 0.25,
        "velocity": 0.68,
        "hand": "right"
      },
      {
        "midi": 62,
        "time": 277.75,
        "duration": 0.25,
        "velocity": 0.54,
        "hand": "right"
      },
      {
        "midi": 87,
        "time": 277.75,
        "duration": 0.25,
        "velocity": 0.68,
        "hand": "right"
      },
      {
        "midi": 91,
        "time": 277.75,
        "duration": 0.25,
        "velocity": 0.68,
        "hand": "right"
      },
      {
        "midi": 44,
        "time": 278,
        "duration": 0.25,
        "velocity": 0.54,
        "hand": "left"
      },
      {
        "midi": 94,
        "time": 278,
        "duration": 0.25,
        "velocity": 0.68,
        "hand": "right"
      },
      {
        "midi": 96,
        "time": 278,
        "duration": 0.25,
        "velocity": 0.68,
        "hand": "right"
      },
      {
        "midi": 51,
        "time": 278.25,
        "duration": 0.25,
        "velocity": 0.54,
        "hand": "left"
      },
      {
        "midi": 91,
        "time": 278.25,
        "duration": 0.25,
        "velocity": 0.68,
        "hand": "right"
      },
      {
        "midi": 92,
        "time": 278.25,
        "duration": 0.25,
        "velocity": 0.68,
        "hand": "right"
      },
      {
        "midi": 52,
        "time": 278.5,
        "duration": 0.25,
        "velocity": 0.54,
        "hand": "left"
      },
      {
        "midi": 84,
        "time": 278.5,
        "duration": 0.25,
        "velocity": 0.68,
        "hand": "right"
      },
      {
        "midi": 89,
        "time": 278.5,
        "duration": 0.25,
        "velocity": 0.68,
        "hand": "right"
      },
      {
        "midi": 53,
        "time": 278.75,
        "duration": 0.25,
        "velocity": 0.54,
        "hand": "left"
      },
      {
        "midi": 79,
        "time": 278.75,
        "duration": 0.25,
        "velocity": 0.68,
        "hand": "right"
      },
      {
        "midi": 80,
        "time": 278.75,
        "duration": 0.25,
        "velocity": 0.68,
        "hand": "right"
      },
      {
        "midi": 55,
        "time": 279,
        "duration": 0.25,
        "velocity": 0.54,
        "hand": "left"
      },
      {
        "midi": 72,
        "time": 279,
        "duration": 0.25,
        "velocity": 0.68,
        "hand": "right"
      },
      {
        "midi": 77,
        "time": 279,
        "duration": 0.25,
        "velocity": 0.68,
        "hand": "right"
      },
      {
        "midi": 56,
        "time": 279.25,
        "duration": 0.25,
        "velocity": 0.54,
        "hand": "left"
      },
      {
        "midi": 67,
        "time": 279.25,
        "duration": 0.25,
        "velocity": 0.68,
        "hand": "right"
      },
      {
        "midi": 68,
        "time": 279.25,
        "duration": 0.25,
        "velocity": 0.68,
        "hand": "right"
      },
      {
        "midi": 60,
        "time": 279.5,
        "duration": 0.25,
        "velocity": 0.54,
        "hand": "right"
      },
      {
        "midi": 65,
        "time": 279.5,
        "duration": 0.25,
        "velocity": 0.68,
        "hand": "right"
      },
      {
        "midi": 88,
        "time": 279.75,
        "duration": 0.25,
        "velocity": 0.68,
        "hand": "right"
      },
      {
        "midi": 89,
        "time": 279.75,
        "duration": 0.25,
        "velocity": 0.68,
        "hand": "right"
      },
      {
        "midi": 43,
        "time": 280,
        "duration": 0.25,
        "velocity": 0.54,
        "hand": "left"
      },
      {
        "midi": 91,
        "time": 280,
        "duration": 0.25,
        "velocity": 0.68,
        "hand": "right"
      },
      {
        "midi": 94,
        "time": 280,
        "duration": 0.25,
        "velocity": 0.68,
        "hand": "right"
      },
      {
        "midi": 51,
        "time": 280.25,
        "duration": 0.25,
        "velocity": 0.54,
        "hand": "left"
      },
      {
        "midi": 89,
        "time": 280.25,
        "duration": 0.25,
        "velocity": 0.68,
        "hand": "right"
      },
      {
        "midi": 91,
        "time": 280.25,
        "duration": 0.25,
        "velocity": 0.68,
        "hand": "right"
      },
      {
        "midi": 54,
        "time": 280.5,
        "duration": 0.25,
        "velocity": 0.54,
        "hand": "left"
      },
      {
        "midi": 82,
        "time": 280.5,
        "duration": 0.25,
        "velocity": 0.68,
        "hand": "right"
      },
      {
        "midi": 87,
        "time": 280.5,
        "duration": 0.25,
        "velocity": 0.68,
        "hand": "right"
      },
      {
        "midi": 55,
        "time": 280.75,
        "duration": 0.25,
        "velocity": 0.54,
        "hand": "left"
      },
      {
        "midi": 77,
        "time": 280.75,
        "duration": 0.25,
        "velocity": 0.68,
        "hand": "right"
      },
      {
        "midi": 79,
        "time": 280.75,
        "duration": 0.25,
        "velocity": 0.68,
        "hand": "right"
      },
      {
        "midi": 57,
        "time": 281,
        "duration": 0.25,
        "velocity": 0.54,
        "hand": "left"
      },
      {
        "midi": 70,
        "time": 281,
        "duration": 0.25,
        "velocity": 0.68,
        "hand": "right"
      },
      {
        "midi": 75,
        "time": 281,
        "duration": 0.25,
        "velocity": 0.68,
        "hand": "right"
      },
      {
        "midi": 58,
        "time": 281.25,
        "duration": 0.25,
        "velocity": 0.54,
        "hand": "left"
      },
      {
        "midi": 65,
        "time": 281.25,
        "duration": 0.25,
        "velocity": 0.68,
        "hand": "right"
      },
      {
        "midi": 67,
        "time": 281.25,
        "duration": 0.25,
        "velocity": 0.68,
        "hand": "right"
      },
      {
        "midi": 63,
        "time": 281.5,
        "duration": 0.25,
        "velocity": 0.68,
        "hand": "right"
      },
      {
        "midi": 91,
        "time": 281.75,
        "duration": 0.25,
        "velocity": 0.68,
        "hand": "right"
      },
      {
        "midi": 92,
        "time": 281.75,
        "duration": 0.25,
        "velocity": 0.68,
        "hand": "right"
      },
      {
        "midi": 44,
        "time": 282,
        "duration": 0.25,
        "velocity": 0.54,
        "hand": "left"
      },
      {
        "midi": 94,
        "time": 282,
        "duration": 0.25,
        "velocity": 0.68,
        "hand": "right"
      },
      {
        "midi": 96,
        "time": 282,
        "duration": 0.25,
        "velocity": 0.68,
        "hand": "right"
      },
      {
        "midi": 51,
        "time": 282.25,
        "duration": 0.25,
        "velocity": 0.54,
        "hand": "left"
      },
      {
        "midi": 91,
        "time": 282.25,
        "duration": 0.25,
        "velocity": 0.68,
        "hand": "right"
      },
      {
        "midi": 92,
        "time": 282.25,
        "duration": 0.25,
        "velocity": 0.68,
        "hand": "right"
      },
      {
        "midi": 52,
        "time": 282.5,
        "duration": 0.25,
        "velocity": 0.54,
        "hand": "left"
      },
      {
        "midi": 84,
        "time": 282.5,
        "duration": 0.25,
        "velocity": 0.68,
        "hand": "right"
      },
      {
        "midi": 89,
        "time": 282.5,
        "duration": 0.25,
        "velocity": 0.68,
        "hand": "right"
      },
      {
        "midi": 53,
        "time": 282.75,
        "duration": 0.25,
        "velocity": 0.54,
        "hand": "left"
      },
      {
        "midi": 79,
        "time": 282.75,
        "duration": 0.25,
        "velocity": 0.68,
        "hand": "right"
      },
      {
        "midi": 80,
        "time": 282.75,
        "duration": 0.25,
        "velocity": 0.68,
        "hand": "right"
      },
      {
        "midi": 55,
        "time": 283,
        "duration": 0.25,
        "velocity": 0.54,
        "hand": "left"
      },
      {
        "midi": 72,
        "time": 283,
        "duration": 0.25,
        "velocity": 0.68,
        "hand": "right"
      },
      {
        "midi": 77,
        "time": 283,
        "duration": 0.25,
        "velocity": 0.68,
        "hand": "right"
      },
      {
        "midi": 56,
        "time": 283.25,
        "duration": 0.25,
        "velocity": 0.54,
        "hand": "left"
      },
      {
        "midi": 67,
        "time": 283.25,
        "duration": 0.25,
        "velocity": 0.68,
        "hand": "right"
      },
      {
        "midi": 68,
        "time": 283.25,
        "duration": 0.25,
        "velocity": 0.68,
        "hand": "right"
      },
      {
        "midi": 60,
        "time": 283.5,
        "duration": 0.25,
        "velocity": 0.54,
        "hand": "right"
      },
      {
        "midi": 65,
        "time": 283.5,
        "duration": 0.25,
        "velocity": 0.68,
        "hand": "right"
      },
      {
        "midi": 88,
        "time": 283.75,
        "duration": 0.25,
        "velocity": 0.68,
        "hand": "right"
      },
      {
        "midi": 89,
        "time": 283.75,
        "duration": 0.25,
        "velocity": 0.68,
        "hand": "right"
      },
      {
        "midi": 43,
        "time": 284,
        "duration": 0.25,
        "velocity": 0.54,
        "hand": "left"
      },
      {
        "midi": 91,
        "time": 284,
        "duration": 0.25,
        "velocity": 0.68,
        "hand": "right"
      },
      {
        "midi": 94,
        "time": 284,
        "duration": 0.25,
        "velocity": 0.68,
        "hand": "right"
      },
      {
        "midi": 51,
        "time": 284.25,
        "duration": 0.25,
        "velocity": 0.54,
        "hand": "left"
      },
      {
        "midi": 89,
        "time": 284.25,
        "duration": 0.25,
        "velocity": 0.68,
        "hand": "right"
      },
      {
        "midi": 91,
        "time": 284.25,
        "duration": 0.25,
        "velocity": 0.68,
        "hand": "right"
      },
      {
        "midi": 54,
        "time": 284.5,
        "duration": 0.25,
        "velocity": 0.54,
        "hand": "left"
      },
      {
        "midi": 82,
        "time": 284.5,
        "duration": 0.25,
        "velocity": 0.68,
        "hand": "right"
      },
      {
        "midi": 87,
        "time": 284.5,
        "duration": 0.25,
        "velocity": 0.68,
        "hand": "right"
      },
      {
        "midi": 55,
        "time": 284.75,
        "duration": 0.25,
        "velocity": 0.54,
        "hand": "left"
      },
      {
        "midi": 77,
        "time": 284.75,
        "duration": 0.25,
        "velocity": 0.68,
        "hand": "right"
      },
      {
        "midi": 79,
        "time": 284.75,
        "duration": 0.25,
        "velocity": 0.68,
        "hand": "right"
      },
      {
        "midi": 57,
        "time": 285,
        "duration": 0.25,
        "velocity": 0.54,
        "hand": "left"
      },
      {
        "midi": 70,
        "time": 285,
        "duration": 0.25,
        "velocity": 0.68,
        "hand": "right"
      },
      {
        "midi": 75,
        "time": 285,
        "duration": 0.25,
        "velocity": 0.68,
        "hand": "right"
      },
      {
        "midi": 58,
        "time": 285.25,
        "duration": 0.25,
        "velocity": 0.54,
        "hand": "left"
      },
      {
        "midi": 65,
        "time": 285.25,
        "duration": 0.25,
        "velocity": 0.68,
        "hand": "right"
      },
      {
        "midi": 67,
        "time": 285.25,
        "duration": 0.25,
        "velocity": 0.68,
        "hand": "right"
      },
      {
        "midi": 63,
        "time": 285.5,
        "duration": 0.25,
        "velocity": 0.68,
        "hand": "right"
      },
      {
        "midi": 58,
        "time": 285.75,
        "duration": 0.25,
        "velocity": 0.54,
        "hand": "left"
      },
      {
        "midi": 67,
        "time": 285.75,
        "duration": 0.25,
        "velocity": 0.54,
        "hand": "right"
      },
      {
        "midi": 44,
        "time": 286,
        "duration": 0.25,
        "velocity": 0.71,
        "hand": "left"
      },
      {
        "midi": 51,
        "time": 286,
        "duration": 0.25,
        "velocity": 0.54,
        "hand": "left"
      },
      {
        "midi": 66,
        "time": 286,
        "duration": 0.25,
        "velocity": 0.54,
        "hand": "right"
      },
      {
        "midi": 52,
        "time": 286.25,
        "duration": 0.25,
        "velocity": 0.55,
        "hand": "left"
      },
      {
        "midi": 67,
        "time": 286.25,
        "duration": 0.25,
        "velocity": 0.54,
        "hand": "right"
      },
      {
        "midi": 72,
        "time": 286.25,
        "duration": 0.25,
        "velocity": 0.54,
        "hand": "right"
      },
      {
        "midi": 44,
        "time": 286.5,
        "duration": 0.25,
        "velocity": 0.71,
        "hand": "left"
      },
      {
        "midi": 51,
        "time": 286.5,
        "duration": 0.25,
        "velocity": 0.56,
        "hand": "left"
      },
      {
        "midi": 66,
        "time": 286.5,
        "duration": 0.25,
        "velocity": 0.54,
        "hand": "right"
      },
      {
        "midi": 52,
        "time": 286.75,
        "duration": 0.25,
        "velocity": 0.57,
        "hand": "left"
      },
      {
        "midi": 67,
        "time": 286.75,
        "duration": 0.25,
        "velocity": 0.54,
        "hand": "right"
      },
      {
        "midi": 72,
        "time": 286.75,
        "duration": 0.25,
        "velocity": 0.54,
        "hand": "right"
      },
      {
        "midi": 44,
        "time": 287,
        "duration": 0.25,
        "velocity": 0.71,
        "hand": "left"
      },
      {
        "midi": 51,
        "time": 287,
        "duration": 0.25,
        "velocity": 0.57,
        "hand": "left"
      },
      {
        "midi": 66,
        "time": 287,
        "duration": 0.25,
        "velocity": 0.54,
        "hand": "right"
      },
      {
        "midi": 52,
        "time": 287.25,
        "duration": 0.25,
        "velocity": 0.58,
        "hand": "left"
      },
      {
        "midi": 67,
        "time": 287.25,
        "duration": 0.25,
        "velocity": 0.54,
        "hand": "right"
      },
      {
        "midi": 72,
        "time": 287.25,
        "duration": 0.25,
        "velocity": 0.54,
        "hand": "right"
      },
      {
        "midi": 44,
        "time": 287.5,
        "duration": 0.25,
        "velocity": 0.71,
        "hand": "left"
      },
      {
        "midi": 49,
        "time": 287.5,
        "duration": 0.25,
        "velocity": 0.59,
        "hand": "left"
      },
      {
        "midi": 64,
        "time": 287.5,
        "duration": 0.25,
        "velocity": 0.54,
        "hand": "right"
      },
      {
        "midi": 50,
        "time": 287.75,
        "duration": 0.25,
        "velocity": 0.6,
        "hand": "left"
      },
      {
        "midi": 65,
        "time": 287.75,
        "duration": 0.25,
        "velocity": 0.54,
        "hand": "right"
      },
      {
        "midi": 70,
        "time": 287.75,
        "duration": 0.25,
        "velocity": 0.54,
        "hand": "right"
      },
      {
        "midi": 43,
        "time": 288,
        "duration": 0.25,
        "velocity": 0.71,
        "hand": "left"
      },
      {
        "midi": 50,
        "time": 288,
        "duration": 0.25,
        "velocity": 0.61,
        "hand": "left"
      },
      {
        "midi": 65,
        "time": 288,
        "duration": 0.25,
        "velocity": 0.54,
        "hand": "right"
      },
      {
        "midi": 51,
        "time": 288.25,
        "duration": 0.25,
        "velocity": 0.61,
        "hand": "left"
      },
      {
        "midi": 67,
        "time": 288.25,
        "duration": 0.25,
        "velocity": 0.54,
        "hand": "right"
      },
      {
        "midi": 70,
        "time": 288.25,
        "duration": 0.25,
        "velocity": 0.54,
        "hand": "right"
      },
      {
        "midi": 43,
        "time": 288.5,
        "duration": 0.25,
        "velocity": 0.71,
        "hand": "left"
      },
      {
        "midi": 50,
        "time": 288.5,
        "duration": 0.25,
        "velocity": 0.62,
        "hand": "left"
      },
      {
        "midi": 65,
        "time": 288.5,
        "duration": 0.25,
        "velocity": 0.54,
        "hand": "right"
      },
      {
        "midi": 51,
        "time": 288.75,
        "duration": 0.25,
        "velocity": 0.63,
        "hand": "left"
      },
      {
        "midi": 67,
        "time": 288.75,
        "duration": 0.25,
        "velocity": 0.54,
        "hand": "right"
      },
      {
        "midi": 70,
        "time": 288.75,
        "duration": 0.25,
        "velocity": 0.54,
        "hand": "right"
      },
      {
        "midi": 43,
        "time": 289,
        "duration": 0.25,
        "velocity": 0.71,
        "hand": "left"
      },
      {
        "midi": 50,
        "time": 289,
        "duration": 0.25,
        "velocity": 0.64,
        "hand": "left"
      },
      {
        "midi": 65,
        "time": 289,
        "duration": 0.25,
        "velocity": 0.54,
        "hand": "right"
      },
      {
        "midi": 51,
        "time": 289.25,
        "duration": 0.25,
        "velocity": 0.65,
        "hand": "left"
      },
      {
        "midi": 67,
        "time": 289.25,
        "duration": 0.25,
        "velocity": 0.54,
        "hand": "right"
      },
      {
        "midi": 70,
        "time": 289.25,
        "duration": 0.25,
        "velocity": 0.54,
        "hand": "right"
      },
      {
        "midi": 43,
        "time": 289.5,
        "duration": 0.25,
        "velocity": 0.71,
        "hand": "left"
      },
      {
        "midi": 47,
        "time": 289.5,
        "duration": 0.25,
        "velocity": 0.65,
        "hand": "left"
      },
      {
        "midi": 62,
        "time": 289.5,
        "duration": 0.25,
        "velocity": 0.54,
        "hand": "right"
      },
      {
        "midi": 48,
        "time": 289.75,
        "duration": 0.25,
        "velocity": 0.66,
        "hand": "left"
      },
      {
        "midi": 63,
        "time": 289.75,
        "duration": 0.25,
        "velocity": 0.54,
        "hand": "right"
      },
      {
        "midi": 67,
        "time": 289.75,
        "duration": 0.25,
        "velocity": 0.54,
        "hand": "right"
      },
      {
        "midi": 44,
        "time": 290,
        "duration": 0.25,
        "velocity": 0.71,
        "hand": "left"
      },
      {
        "midi": 51,
        "time": 290,
        "duration": 0.25,
        "velocity": 0.67,
        "hand": "left"
      },
      {
        "midi": 66,
        "time": 290,
        "duration": 0.25,
        "velocity": 0.54,
        "hand": "right"
      },
      {
        "midi": 52,
        "time": 290.25,
        "duration": 0.25,
        "velocity": 0.68,
        "hand": "left"
      },
      {
        "midi": 67,
        "time": 290.25,
        "duration": 0.25,
        "velocity": 0.54,
        "hand": "right"
      },
      {
        "midi": 72,
        "time": 290.25,
        "duration": 0.25,
        "velocity": 0.54,
        "hand": "right"
      },
      {
        "midi": 44,
        "time": 290.5,
        "duration": 0.25,
        "velocity": 0.71,
        "hand": "left"
      },
      {
        "midi": 51,
        "time": 290.5,
        "duration": 0.25,
        "velocity": 0.69,
        "hand": "left"
      },
      {
        "midi": 66,
        "time": 290.5,
        "duration": 0.25,
        "velocity": 0.54,
        "hand": "right"
      },
      {
        "midi": 52,
        "time": 290.75,
        "duration": 0.25,
        "velocity": 0.69,
        "hand": "left"
      },
      {
        "midi": 67,
        "time": 290.75,
        "duration": 0.25,
        "velocity": 0.54,
        "hand": "right"
      },
      {
        "midi": 72,
        "time": 290.75,
        "duration": 0.25,
        "velocity": 0.54,
        "hand": "right"
      },
      {
        "midi": 44,
        "time": 291,
        "duration": 0.25,
        "velocity": 0.71,
        "hand": "left"
      },
      {
        "midi": 51,
        "time": 291,
        "duration": 0.25,
        "velocity": 0.7,
        "hand": "left"
      },
      {
        "midi": 66,
        "time": 291,
        "duration": 0.25,
        "velocity": 0.54,
        "hand": "right"
      },
      {
        "midi": 52,
        "time": 291.25,
        "duration": 0.25,
        "velocity": 0.71,
        "hand": "left"
      },
      {
        "midi": 67,
        "time": 291.25,
        "duration": 0.25,
        "velocity": 0.54,
        "hand": "right"
      },
      {
        "midi": 72,
        "time": 291.25,
        "duration": 0.25,
        "velocity": 0.54,
        "hand": "right"
      },
      {
        "midi": 44,
        "time": 291.5,
        "duration": 0.25,
        "velocity": 0.71,
        "hand": "left"
      },
      {
        "midi": 49,
        "time": 291.5,
        "duration": 0.25,
        "velocity": 0.72,
        "hand": "left"
      },
      {
        "midi": 64,
        "time": 291.5,
        "duration": 0.25,
        "velocity": 0.54,
        "hand": "right"
      },
      {
        "midi": 50,
        "time": 291.75,
        "duration": 0.25,
        "velocity": 0.72,
        "hand": "left"
      },
      {
        "midi": 65,
        "time": 291.75,
        "duration": 0.25,
        "velocity": 0.54,
        "hand": "right"
      },
      {
        "midi": 70,
        "time": 291.75,
        "duration": 0.25,
        "velocity": 0.54,
        "hand": "right"
      },
      {
        "midi": 43,
        "time": 292,
        "duration": 0.25,
        "velocity": 0.71,
        "hand": "left"
      },
      {
        "midi": 50,
        "time": 292,
        "duration": 0.25,
        "velocity": 0.73,
        "hand": "left"
      },
      {
        "midi": 65,
        "time": 292,
        "duration": 0.25,
        "velocity": 0.54,
        "hand": "right"
      },
      {
        "midi": 51,
        "time": 292.25,
        "duration": 0.25,
        "velocity": 0.74,
        "hand": "left"
      },
      {
        "midi": 67,
        "time": 292.25,
        "duration": 0.25,
        "velocity": 0.54,
        "hand": "right"
      },
      {
        "midi": 70,
        "time": 292.25,
        "duration": 0.25,
        "velocity": 0.54,
        "hand": "right"
      },
      {
        "midi": 43,
        "time": 292.5,
        "duration": 0.25,
        "velocity": 0.71,
        "hand": "left"
      },
      {
        "midi": 50,
        "time": 292.5,
        "duration": 0.25,
        "velocity": 0.75,
        "hand": "left"
      },
      {
        "midi": 65,
        "time": 292.5,
        "duration": 0.25,
        "velocity": 0.54,
        "hand": "right"
      },
      {
        "midi": 51,
        "time": 292.75,
        "duration": 0.25,
        "velocity": 0.76,
        "hand": "left"
      },
      {
        "midi": 67,
        "time": 292.75,
        "duration": 0.25,
        "velocity": 0.54,
        "hand": "right"
      },
      {
        "midi": 70,
        "time": 292.75,
        "duration": 0.25,
        "velocity": 0.54,
        "hand": "right"
      },
      {
        "midi": 43,
        "time": 293,
        "duration": 0.25,
        "velocity": 0.71,
        "hand": "left"
      },
      {
        "midi": 50,
        "time": 293,
        "duration": 0.25,
        "velocity": 0.76,
        "hand": "left"
      },
      {
        "midi": 65,
        "time": 293,
        "duration": 0.25,
        "velocity": 0.54,
        "hand": "right"
      },
      {
        "midi": 51,
        "time": 293.25,
        "duration": 0.25,
        "velocity": 0.77,
        "hand": "left"
      },
      {
        "midi": 67,
        "time": 293.25,
        "duration": 0.25,
        "velocity": 0.54,
        "hand": "right"
      },
      {
        "midi": 70,
        "time": 293.25,
        "duration": 0.25,
        "velocity": 0.54,
        "hand": "right"
      },
      {
        "midi": 43,
        "time": 293.5,
        "duration": 0.25,
        "velocity": 0.71,
        "hand": "left"
      },
      {
        "midi": 47,
        "time": 293.5,
        "duration": 0.25,
        "velocity": 0.78,
        "hand": "left"
      },
      {
        "midi": 62,
        "time": 293.5,
        "duration": 0.25,
        "velocity": 0.54,
        "hand": "right"
      },
      {
        "midi": 48,
        "time": 293.75,
        "duration": 0.25,
        "velocity": 0.79,
        "hand": "left"
      },
      {
        "midi": 63,
        "time": 293.75,
        "duration": 0.25,
        "velocity": 0.54,
        "hand": "right"
      },
      {
        "midi": 67,
        "time": 293.75,
        "duration": 0.25,
        "velocity": 0.54,
        "hand": "right"
      },
      {
        "midi": 32,
        "time": 294,
        "duration": 0.5,
        "velocity": 0.8,
        "hand": "left"
      },
      {
        "midi": 38,
        "time": 294,
        "duration": 0.5,
        "velocity": 0.8,
        "hand": "left"
      },
      {
        "midi": 44,
        "time": 294,
        "duration": 0.5,
        "velocity": 0.8,
        "hand": "left"
      },
      {
        "midi": 60,
        "time": 294.25,
        "duration": 0.5,
        "velocity": 0.54,
        "hand": "right"
      },
      {
        "midi": 72,
        "time": 294.25,
        "duration": 0.5,
        "velocity": 0.54,
        "hand": "right"
      },
      {
        "midi": 44,
        "time": 294.5,
        "duration": 0.5,
        "velocity": 0.8,
        "hand": "left"
      },
      {
        "midi": 50,
        "time": 294.5,
        "duration": 0.5,
        "velocity": 0.8,
        "hand": "left"
      },
      {
        "midi": 56,
        "time": 294.5,
        "duration": 0.5,
        "velocity": 0.8,
        "hand": "left"
      },
      {
        "midi": 72,
        "time": 294.75,
        "duration": 0.75,
        "velocity": 0.54,
        "hand": "right"
      },
      {
        "midi": 84,
        "time": 294.75,
        "duration": 0.75,
        "velocity": 0.54,
        "hand": "right"
      },
      {
        "midi": 56,
        "time": 295,
        "duration": 1,
        "velocity": 0.8,
        "hand": "left"
      },
      {
        "midi": 62,
        "time": 295,
        "duration": 1,
        "velocity": 0.8,
        "hand": "right"
      },
      {
        "midi": 68,
        "time": 295,
        "duration": 1,
        "velocity": 0.8,
        "hand": "right"
      },
      {
        "midi": 67,
        "time": 295.5,
        "duration": 0.25,
        "velocity": 0.54,
        "hand": "right"
      },
      {
        "midi": 79,
        "time": 295.5,
        "duration": 0.25,
        "velocity": 0.54,
        "hand": "right"
      },
      {
        "midi": 80,
        "time": 295.5,
        "duration": 0.25,
        "velocity": 0.54,
        "hand": "right"
      },
      {
        "midi": 65,
        "time": 295.75,
        "duration": 0.25,
        "velocity": 0.54,
        "hand": "right"
      },
      {
        "midi": 77,
        "time": 295.75,
        "duration": 0.25,
        "velocity": 0.54,
        "hand": "right"
      },
      {
        "midi": 31,
        "time": 296,
        "duration": 0.5,
        "velocity": 0.8,
        "hand": "left"
      },
      {
        "midi": 39,
        "time": 296,
        "duration": 0.5,
        "velocity": 0.8,
        "hand": "left"
      },
      {
        "midi": 43,
        "time": 296,
        "duration": 0.5,
        "velocity": 0.8,
        "hand": "left"
      },
      {
        "midi": 58,
        "time": 296.25,
        "duration": 0.5,
        "velocity": 0.54,
        "hand": "left"
      },
      {
        "midi": 70,
        "time": 296.25,
        "duration": 0.5,
        "velocity": 0.54,
        "hand": "right"
      },
      {
        "midi": 43,
        "time": 296.5,
        "duration": 0.5,
        "velocity": 0.8,
        "hand": "left"
      },
      {
        "midi": 51,
        "time": 296.5,
        "duration": 0.5,
        "velocity": 0.8,
        "hand": "left"
      },
      {
        "midi": 55,
        "time": 296.5,
        "duration": 0.5,
        "velocity": 0.8,
        "hand": "left"
      },
      {
        "midi": 70,
        "time": 296.75,
        "duration": 0.75,
        "velocity": 0.54,
        "hand": "right"
      },
      {
        "midi": 82,
        "time": 296.75,
        "duration": 0.75,
        "velocity": 0.54,
        "hand": "right"
      },
      {
        "midi": 55,
        "time": 297,
        "duration": 1,
        "velocity": 0.8,
        "hand": "left"
      },
      {
        "midi": 63,
        "time": 297,
        "duration": 1,
        "velocity": 0.8,
        "hand": "right"
      },
      {
        "midi": 67,
        "time": 297,
        "duration": 1,
        "velocity": 0.8,
        "hand": "right"
      },
      {
        "midi": 65,
        "time": 297.5,
        "duration": 0.25,
        "velocity": 0.54,
        "hand": "right"
      },
      {
        "midi": 77,
        "time": 297.5,
        "duration": 0.25,
        "velocity": 0.54,
        "hand": "right"
      },
      {
        "midi": 79,
        "time": 297.5,
        "duration": 0.25,
        "velocity": 0.54,
        "hand": "right"
      },
      {
        "midi": 63,
        "time": 297.75,
        "duration": 0.25,
        "velocity": 0.54,
        "hand": "right"
      },
      {
        "midi": 75,
        "time": 297.75,
        "duration": 0.25,
        "velocity": 0.54,
        "hand": "right"
      },
      {
        "midi": 32,
        "time": 298,
        "duration": 0.5,
        "velocity": 0.8,
        "hand": "left"
      },
      {
        "midi": 38,
        "time": 298,
        "duration": 0.5,
        "velocity": 0.8,
        "hand": "left"
      },
      {
        "midi": 44,
        "time": 298,
        "duration": 0.5,
        "velocity": 0.8,
        "hand": "left"
      },
      {
        "midi": 60,
        "time": 298.25,
        "duration": 0.5,
        "velocity": 0.54,
        "hand": "right"
      },
      {
        "midi": 72,
        "time": 298.25,
        "duration": 0.5,
        "velocity": 0.54,
        "hand": "right"
      },
      {
        "midi": 44,
        "time": 298.5,
        "duration": 0.5,
        "velocity": 0.8,
        "hand": "left"
      },
      {
        "midi": 50,
        "time": 298.5,
        "duration": 0.5,
        "velocity": 0.8,
        "hand": "left"
      },
      {
        "midi": 56,
        "time": 298.5,
        "duration": 0.5,
        "velocity": 0.8,
        "hand": "left"
      },
      {
        "midi": 72,
        "time": 298.75,
        "duration": 0.75,
        "velocity": 0.54,
        "hand": "right"
      },
      {
        "midi": 84,
        "time": 298.75,
        "duration": 0.75,
        "velocity": 0.54,
        "hand": "right"
      },
      {
        "midi": 56,
        "time": 299,
        "duration": 1,
        "velocity": 0.8,
        "hand": "left"
      },
      {
        "midi": 62,
        "time": 299,
        "duration": 1,
        "velocity": 0.8,
        "hand": "right"
      },
      {
        "midi": 68,
        "time": 299,
        "duration": 1,
        "velocity": 0.8,
        "hand": "right"
      },
      {
        "midi": 67,
        "time": 299.5,
        "duration": 0.25,
        "velocity": 0.54,
        "hand": "right"
      },
      {
        "midi": 79,
        "time": 299.5,
        "duration": 0.25,
        "velocity": 0.54,
        "hand": "right"
      },
      {
        "midi": 80,
        "time": 299.5,
        "duration": 0.25,
        "velocity": 0.54,
        "hand": "right"
      },
      {
        "midi": 65,
        "time": 299.75,
        "duration": 0.25,
        "velocity": 0.54,
        "hand": "right"
      },
      {
        "midi": 77,
        "time": 299.75,
        "duration": 0.25,
        "velocity": 0.54,
        "hand": "right"
      },
      {
        "midi": 31,
        "time": 300,
        "duration": 0.5,
        "velocity": 0.8,
        "hand": "left"
      },
      {
        "midi": 39,
        "time": 300,
        "duration": 0.5,
        "velocity": 0.8,
        "hand": "left"
      },
      {
        "midi": 43,
        "time": 300,
        "duration": 0.5,
        "velocity": 0.8,
        "hand": "left"
      },
      {
        "midi": 58,
        "time": 300.25,
        "duration": 0.5,
        "velocity": 0.54,
        "hand": "left"
      },
      {
        "midi": 70,
        "time": 300.25,
        "duration": 0.5,
        "velocity": 0.54,
        "hand": "right"
      },
      {
        "midi": 43,
        "time": 300.5,
        "duration": 0.5,
        "velocity": 0.8,
        "hand": "left"
      },
      {
        "midi": 51,
        "time": 300.5,
        "duration": 0.5,
        "velocity": 0.8,
        "hand": "left"
      },
      {
        "midi": 55,
        "time": 300.5,
        "duration": 0.5,
        "velocity": 0.8,
        "hand": "left"
      },
      {
        "midi": 70,
        "time": 300.75,
        "duration": 0.75,
        "velocity": 0.54,
        "hand": "right"
      },
      {
        "midi": 82,
        "time": 300.75,
        "duration": 0.75,
        "velocity": 0.54,
        "hand": "right"
      },
      {
        "midi": 55,
        "time": 301,
        "duration": 0.5,
        "velocity": 0.8,
        "hand": "left"
      },
      {
        "midi": 63,
        "time": 301,
        "duration": 0.5,
        "velocity": 0.8,
        "hand": "right"
      },
      {
        "midi": 67,
        "time": 301,
        "duration": 0.5,
        "velocity": 0.8,
        "hand": "right"
      },
      {
        "midi": 51,
        "time": 301.5,
        "duration": 0.25,
        "velocity": 0.8,
        "hand": "left"
      },
      {
        "midi": 67,
        "time": 301.5,
        "duration": 0.25,
        "velocity": 0.54,
        "hand": "right"
      },
      {
        "midi": 79,
        "time": 301.5,
        "duration": 0.25,
        "velocity": 0.54,
        "hand": "right"
      },
      {
        "midi": 55,
        "time": 301.75,
        "duration": 0.25,
        "velocity": 0.8,
        "hand": "left"
      },
      {
        "midi": 63,
        "time": 301.75,
        "duration": 0.25,
        "velocity": 0.54,
        "hand": "right"
      },
      {
        "midi": 75,
        "time": 301.75,
        "duration": 0.25,
        "velocity": 0.54,
        "hand": "right"
      },
      {
        "midi": 56,
        "time": 302,
        "duration": 0.5,
        "velocity": 0.84,
        "hand": "left"
      },
      {
        "midi": 60,
        "time": 302,
        "duration": 0.5,
        "velocity": 0.84,
        "hand": "right"
      },
      {
        "midi": 62,
        "time": 302.25,
        "duration": 0.25,
        "velocity": 0.54,
        "hand": "right"
      },
      {
        "midi": 44,
        "time": 302.5,
        "duration": 1,
        "velocity": 1,
        "hand": "left"
      },
      {
        "midi": 64,
        "time": 302.5,
        "duration": 0.25,
        "velocity": 0.54,
        "hand": "right"
      },
      {
        "midi": 67,
        "time": 302.5,
        "duration": 0.25,
        "velocity": 0.54,
        "hand": "right"
      },
      {
        "midi": 68,
        "time": 302.75,
        "duration": 0.25,
        "velocity": 0.54,
        "hand": "right"
      },
      {
        "midi": 70,
        "time": 302.75,
        "duration": 0.25,
        "velocity": 0.54,
        "hand": "right"
      },
      {
        "midi": 72,
        "time": 303,
        "duration": 0.25,
        "velocity": 0.54,
        "hand": "right"
      },
      {
        "midi": 74,
        "time": 303,
        "duration": 0.25,
        "velocity": 0.54,
        "hand": "right"
      },
      {
        "midi": 76,
        "time": 303,
        "duration": 0.25,
        "velocity": 0.54,
        "hand": "right"
      },
      {
        "midi": 77,
        "time": 303.25,
        "duration": 0.25,
        "velocity": 0.54,
        "hand": "right"
      },
      {
        "midi": 79,
        "time": 303.25,
        "duration": 0.25,
        "velocity": 0.54,
        "hand": "right"
      },
      {
        "midi": 80,
        "time": 303.25,
        "duration": 0.25,
        "velocity": 0.54,
        "hand": "right"
      },
      {
        "midi": 50,
        "time": 303.5,
        "duration": 0.25,
        "velocity": 1,
        "hand": "left"
      },
      {
        "midi": 82,
        "time": 303.5,
        "duration": 0.25,
        "velocity": 0.54,
        "hand": "right"
      },
      {
        "midi": 84,
        "time": 303.5,
        "duration": 0.5,
        "velocity": 0.54,
        "hand": "right"
      },
      {
        "midi": 53,
        "time": 303.75,
        "duration": 0.25,
        "velocity": 1,
        "hand": "left"
      },
      {
        "midi": 56,
        "time": 303.75,
        "duration": 0.25,
        "velocity": 1,
        "hand": "left"
      },
      {
        "midi": 55,
        "time": 304,
        "duration": 0.5,
        "velocity": 1,
        "hand": "left"
      },
      {
        "midi": 58,
        "time": 304,
        "duration": 0.5,
        "velocity": 1,
        "hand": "left"
      },
      {
        "midi": 60,
        "time": 304.25,
        "duration": 0.25,
        "velocity": 0.54,
        "hand": "right"
      },
      {
        "midi": 43,
        "time": 304.5,
        "duration": 1,
        "velocity": 1,
        "hand": "left"
      },
      {
        "midi": 62,
        "time": 304.5,
        "duration": 0.25,
        "velocity": 0.54,
        "hand": "right"
      },
      {
        "midi": 65,
        "time": 304.5,
        "duration": 0.25,
        "velocity": 0.54,
        "hand": "right"
      },
      {
        "midi": 67,
        "time": 304.75,
        "duration": 0.25,
        "velocity": 0.54,
        "hand": "right"
      },
      {
        "midi": 68,
        "time": 304.75,
        "duration": 0.25,
        "velocity": 0.54,
        "hand": "right"
      },
      {
        "midi": 70,
        "time": 305,
        "duration": 0.25,
        "velocity": 0.54,
        "hand": "right"
      },
      {
        "midi": 72,
        "time": 305,
        "duration": 0.25,
        "velocity": 0.54,
        "hand": "right"
      },
      {
        "midi": 74,
        "time": 305,
        "duration": 0.25,
        "velocity": 0.54,
        "hand": "right"
      },
      {
        "midi": 75,
        "time": 305.25,
        "duration": 0.25,
        "velocity": 0.54,
        "hand": "right"
      },
      {
        "midi": 77,
        "time": 305.25,
        "duration": 0.25,
        "velocity": 0.54,
        "hand": "right"
      },
      {
        "midi": 79,
        "time": 305.25,
        "duration": 0.25,
        "velocity": 0.54,
        "hand": "right"
      },
      {
        "midi": 51,
        "time": 305.5,
        "duration": 0.25,
        "velocity": 1,
        "hand": "left"
      },
      {
        "midi": 80,
        "time": 305.5,
        "duration": 0.25,
        "velocity": 0.54,
        "hand": "right"
      },
      {
        "midi": 82,
        "time": 305.5,
        "duration": 0.5,
        "velocity": 0.54,
        "hand": "right"
      },
      {
        "midi": 55,
        "time": 305.75,
        "duration": 0.25,
        "velocity": 1,
        "hand": "left"
      },
      {
        "midi": 58,
        "time": 305.75,
        "duration": 0.25,
        "velocity": 1,
        "hand": "left"
      },
      {
        "midi": 56,
        "time": 306,
        "duration": 0.5,
        "velocity": 1,
        "hand": "left"
      },
      {
        "midi": 60,
        "time": 306,
        "duration": 0.5,
        "velocity": 1,
        "hand": "right"
      },
      {
        "midi": 62,
        "time": 306.25,
        "duration": 0.25,
        "velocity": 0.54,
        "hand": "right"
      },
      {
        "midi": 44,
        "time": 306.5,
        "duration": 1,
        "velocity": 1,
        "hand": "left"
      },
      {
        "midi": 64,
        "time": 306.5,
        "duration": 0.25,
        "velocity": 0.54,
        "hand": "right"
      },
      {
        "midi": 67,
        "time": 306.5,
        "duration": 0.25,
        "velocity": 0.54,
        "hand": "right"
      },
      {
        "midi": 68,
        "time": 306.75,
        "duration": 0.25,
        "velocity": 0.54,
        "hand": "right"
      },
      {
        "midi": 70,
        "time": 306.75,
        "duration": 0.25,
        "velocity": 0.54,
        "hand": "right"
      },
      {
        "midi": 72,
        "time": 307,
        "duration": 0.25,
        "velocity": 0.54,
        "hand": "right"
      },
      {
        "midi": 74,
        "time": 307,
        "duration": 0.25,
        "velocity": 0.54,
        "hand": "right"
      },
      {
        "midi": 76,
        "time": 307,
        "duration": 0.25,
        "velocity": 0.54,
        "hand": "right"
      },
      {
        "midi": 77,
        "time": 307.25,
        "duration": 0.25,
        "velocity": 0.54,
        "hand": "right"
      },
      {
        "midi": 79,
        "time": 307.25,
        "duration": 0.25,
        "velocity": 0.54,
        "hand": "right"
      },
      {
        "midi": 80,
        "time": 307.25,
        "duration": 0.25,
        "velocity": 0.54,
        "hand": "right"
      },
      {
        "midi": 50,
        "time": 307.5,
        "duration": 0.25,
        "velocity": 1,
        "hand": "left"
      },
      {
        "midi": 82,
        "time": 307.5,
        "duration": 0.25,
        "velocity": 0.54,
        "hand": "right"
      },
      {
        "midi": 84,
        "time": 307.5,
        "duration": 0.5,
        "velocity": 0.54,
        "hand": "right"
      },
      {
        "midi": 53,
        "time": 307.75,
        "duration": 0.25,
        "velocity": 1,
        "hand": "left"
      },
      {
        "midi": 56,
        "time": 307.75,
        "duration": 0.25,
        "velocity": 1,
        "hand": "left"
      },
      {
        "midi": 55,
        "time": 308,
        "duration": 0.5,
        "velocity": 1,
        "hand": "left"
      },
      {
        "midi": 58,
        "time": 308,
        "duration": 0.5,
        "velocity": 1,
        "hand": "left"
      },
      {
        "midi": 60,
        "time": 308.25,
        "duration": 0.25,
        "velocity": 0.54,
        "hand": "right"
      },
      {
        "midi": 43,
        "time": 308.5,
        "duration": 1,
        "velocity": 1,
        "hand": "left"
      },
      {
        "midi": 62,
        "time": 308.5,
        "duration": 0.25,
        "velocity": 0.54,
        "hand": "right"
      },
      {
        "midi": 65,
        "time": 308.5,
        "duration": 0.25,
        "velocity": 0.54,
        "hand": "right"
      },
      {
        "midi": 67,
        "time": 308.75,
        "duration": 0.25,
        "velocity": 0.54,
        "hand": "right"
      },
      {
        "midi": 68,
        "time": 308.75,
        "duration": 0.25,
        "velocity": 0.54,
        "hand": "right"
      },
      {
        "midi": 70,
        "time": 309,
        "duration": 0.25,
        "velocity": 0.54,
        "hand": "right"
      },
      {
        "midi": 72,
        "time": 309,
        "duration": 0.25,
        "velocity": 0.54,
        "hand": "right"
      },
      {
        "midi": 74,
        "time": 309,
        "duration": 0.25,
        "velocity": 0.54,
        "hand": "right"
      },
      {
        "midi": 75,
        "time": 309.25,
        "duration": 0.25,
        "velocity": 0.54,
        "hand": "right"
      },
      {
        "midi": 77,
        "time": 309.25,
        "duration": 0.25,
        "velocity": 0.54,
        "hand": "right"
      },
      {
        "midi": 79,
        "time": 309.25,
        "duration": 0.25,
        "velocity": 0.54,
        "hand": "right"
      },
      {
        "midi": 67,
        "time": 309.5,
        "duration": 0.25,
        "velocity": 1,
        "hand": "right"
      },
      {
        "midi": 75,
        "time": 309.5,
        "duration": 0.25,
        "velocity": 1,
        "hand": "right"
      },
      {
        "midi": 82,
        "time": 309.5,
        "duration": 0.25,
        "velocity": 0.54,
        "hand": "right"
      },
      {
        "midi": 67,
        "time": 309.75,
        "duration": 0.25,
        "velocity": 1,
        "hand": "right"
      },
      {
        "midi": 75,
        "time": 309.75,
        "duration": 0.25,
        "velocity": 1,
        "hand": "right"
      },
      {
        "midi": 84,
        "time": 309.75,
        "duration": 0.25,
        "velocity": 0.54,
        "hand": "right"
      },
      {
        "midi": 67,
        "time": 310,
        "duration": 0.25,
        "velocity": 0.71,
        "hand": "right"
      },
      {
        "midi": 79,
        "time": 310,
        "duration": 0.25,
        "velocity": 0.71,
        "hand": "right"
      },
      {
        "midi": 86,
        "time": 310,
        "duration": 0.5,
        "velocity": 0.71,
        "hand": "right"
      },
      {
        "midi": 67,
        "time": 310.25,
        "duration": 0.25,
        "velocity": 0.71,
        "hand": "right"
      },
      {
        "midi": 74,
        "time": 310.25,
        "duration": 0.25,
        "velocity": 0.71,
        "hand": "right"
      },
      {
        "midi": 82,
        "time": 310.25,
        "duration": 0.25,
        "velocity": 0.71,
        "hand": "right"
      },
      {
        "midi": 67,
        "time": 310.5,
        "duration": 0.25,
        "velocity": 0.71,
        "hand": "right"
      },
      {
        "midi": 79,
        "time": 310.5,
        "duration": 0.25,
        "velocity": 0.71,
        "hand": "right"
      },
      {
        "midi": 86,
        "time": 310.5,
        "duration": 1,
        "velocity": 0.71,
        "hand": "right"
      },
      {
        "midi": 67,
        "time": 310.75,
        "duration": 0.25,
        "velocity": 0.71,
        "hand": "right"
      },
      {
        "midi": 74,
        "time": 310.75,
        "duration": 0.25,
        "velocity": 0.71,
        "hand": "right"
      },
      {
        "midi": 82,
        "time": 310.75,
        "duration": 0.25,
        "velocity": 0.71,
        "hand": "right"
      },
      {
        "midi": 67,
        "time": 311,
        "duration": 0.25,
        "velocity": 0.71,
        "hand": "right"
      },
      {
        "midi": 74,
        "time": 311,
        "duration": 0.25,
        "velocity": 0.71,
        "hand": "right"
      },
      {
        "midi": 82,
        "time": 311,
        "duration": 0.25,
        "velocity": 0.71,
        "hand": "right"
      },
      {
        "midi": 67,
        "time": 311.25,
        "duration": 0.25,
        "velocity": 0.71,
        "hand": "right"
      },
      {
        "midi": 74,
        "time": 311.25,
        "duration": 0.25,
        "velocity": 0.71,
        "hand": "right"
      },
      {
        "midi": 82,
        "time": 311.25,
        "duration": 0.25,
        "velocity": 0.71,
        "hand": "right"
      },
      {
        "midi": 63,
        "time": 311.5,
        "duration": 0.25,
        "velocity": 0.71,
        "hand": "right"
      },
      {
        "midi": 72,
        "time": 311.5,
        "duration": 0.25,
        "velocity": 0.71,
        "hand": "right"
      },
      {
        "midi": 84,
        "time": 311.5,
        "duration": 0.25,
        "velocity": 0.71,
        "hand": "right"
      },
      {
        "midi": 63,
        "time": 311.75,
        "duration": 0.25,
        "velocity": 0.71,
        "hand": "right"
      },
      {
        "midi": 79,
        "time": 311.75,
        "duration": 0.25,
        "velocity": 0.71,
        "hand": "right"
      },
      {
        "midi": 86,
        "time": 311.75,
        "duration": 0.25,
        "velocity": 0.71,
        "hand": "right"
      },
      {
        "midi": 67,
        "time": 312,
        "duration": 0.25,
        "velocity": 0.71,
        "hand": "right"
      },
      {
        "midi": 79,
        "time": 312,
        "duration": 0.25,
        "velocity": 0.71,
        "hand": "right"
      },
      {
        "midi": 91,
        "time": 312,
        "duration": 0.25,
        "velocity": 0.71,
        "hand": "right"
      },
      {
        "midi": 67,
        "time": 312.25,
        "duration": 0.25,
        "velocity": 0.71,
        "hand": "right"
      },
      {
        "midi": 74,
        "time": 312.25,
        "duration": 0.25,
        "velocity": 0.71,
        "hand": "right"
      },
      {
        "midi": 82,
        "time": 312.25,
        "duration": 0.25,
        "velocity": 0.71,
        "hand": "right"
      },
      {
        "midi": 67,
        "time": 312.5,
        "duration": 0.25,
        "velocity": 0.71,
        "hand": "right"
      },
      {
        "midi": 79,
        "time": 312.5,
        "duration": 0.25,
        "velocity": 0.71,
        "hand": "right"
      },
      {
        "midi": 86,
        "time": 312.5,
        "duration": 1,
        "velocity": 0.71,
        "hand": "right"
      },
      {
        "midi": 67,
        "time": 312.75,
        "duration": 0.25,
        "velocity": 0.71,
        "hand": "right"
      },
      {
        "midi": 74,
        "time": 312.75,
        "duration": 0.25,
        "velocity": 0.71,
        "hand": "right"
      },
      {
        "midi": 82,
        "time": 312.75,
        "duration": 0.25,
        "velocity": 0.71,
        "hand": "right"
      },
      {
        "midi": 67,
        "time": 313,
        "duration": 0.25,
        "velocity": 0.71,
        "hand": "right"
      },
      {
        "midi": 74,
        "time": 313,
        "duration": 0.25,
        "velocity": 0.71,
        "hand": "right"
      },
      {
        "midi": 82,
        "time": 313,
        "duration": 0.25,
        "velocity": 0.71,
        "hand": "right"
      },
      {
        "midi": 67,
        "time": 313.25,
        "duration": 0.25,
        "velocity": 0.71,
        "hand": "right"
      },
      {
        "midi": 74,
        "time": 313.25,
        "duration": 0.25,
        "velocity": 0.71,
        "hand": "right"
      },
      {
        "midi": 82,
        "time": 313.25,
        "duration": 0.25,
        "velocity": 0.71,
        "hand": "right"
      },
      {
        "midi": 63,
        "time": 313.5,
        "duration": 0.25,
        "velocity": 0.71,
        "hand": "right"
      },
      {
        "midi": 72,
        "time": 313.5,
        "duration": 0.25,
        "velocity": 0.71,
        "hand": "right"
      },
      {
        "midi": 84,
        "time": 313.5,
        "duration": 0.25,
        "velocity": 0.71,
        "hand": "right"
      },
      {
        "midi": 63,
        "time": 313.75,
        "duration": 0.25,
        "velocity": 0.71,
        "hand": "right"
      },
      {
        "midi": 79,
        "time": 313.75,
        "duration": 0.25,
        "velocity": 0.71,
        "hand": "right"
      },
      {
        "midi": 86,
        "time": 313.75,
        "duration": 0.25,
        "velocity": 0.71,
        "hand": "right"
      },
      {
        "midi": 67,
        "time": 314,
        "duration": 0.25,
        "velocity": 0.71,
        "hand": "right"
      },
      {
        "midi": 74,
        "time": 314,
        "duration": 0.25,
        "velocity": 0.71,
        "hand": "right"
      },
      {
        "midi": 86,
        "time": 314,
        "duration": 0.25,
        "velocity": 0.71,
        "hand": "right"
      },
      {
        "midi": 67,
        "time": 314.25,
        "duration": 0.25,
        "velocity": 0.71,
        "hand": "right"
      },
      {
        "midi": 70,
        "time": 314.25,
        "duration": 0.25,
        "velocity": 0.71,
        "hand": "right"
      },
      {
        "midi": 74,
        "time": 314.25,
        "duration": 0.25,
        "velocity": 0.71,
        "hand": "right"
      },
      {
        "midi": 67,
        "time": 314.5,
        "duration": 0.25,
        "velocity": 0.71,
        "hand": "right"
      },
      {
        "midi": 75,
        "time": 314.5,
        "duration": 0.25,
        "velocity": 0.71,
        "hand": "right"
      },
      {
        "midi": 82,
        "time": 314.5,
        "duration": 0.25,
        "velocity": 0.71,
        "hand": "right"
      },
      {
        "midi": 67,
        "time": 314.75,
        "duration": 0.25,
        "velocity": 0.71,
        "hand": "right"
      },
      {
        "midi": 72,
        "time": 314.75,
        "duration": 0.25,
        "velocity": 0.71,
        "hand": "right"
      },
      {
        "midi": 75,
        "time": 314.75,
        "duration": 0.25,
        "velocity": 0.71,
        "hand": "right"
      },
      {
        "midi": 67,
        "time": 315,
        "duration": 0.25,
        "velocity": 0.71,
        "hand": "right"
      },
      {
        "midi": 74,
        "time": 315,
        "duration": 0.25,
        "velocity": 0.71,
        "hand": "right"
      },
      {
        "midi": 82,
        "time": 315,
        "duration": 0.25,
        "velocity": 0.71,
        "hand": "right"
      },
      {
        "midi": 67,
        "time": 315.25,
        "duration": 0.25,
        "velocity": 0.71,
        "hand": "right"
      },
      {
        "midi": 70,
        "time": 315.25,
        "duration": 0.25,
        "velocity": 0.71,
        "hand": "right"
      },
      {
        "midi": 74,
        "time": 315.25,
        "duration": 0.25,
        "velocity": 0.71,
        "hand": "right"
      },
      {
        "midi": 63,
        "time": 315.5,
        "duration": 0.25,
        "velocity": 0.71,
        "hand": "right"
      },
      {
        "midi": 79,
        "time": 315.5,
        "duration": 0.25,
        "velocity": 0.71,
        "hand": "right"
      },
      {
        "midi": 84,
        "time": 315.5,
        "duration": 0.5,
        "velocity": 0.71,
        "hand": "right"
      },
      {
        "midi": 63,
        "time": 315.75,
        "duration": 0.25,
        "velocity": 0.71,
        "hand": "right"
      },
      {
        "midi": 72,
        "time": 315.75,
        "duration": 0.25,
        "velocity": 0.71,
        "hand": "right"
      },
      {
        "midi": 79,
        "time": 315.75,
        "duration": 0.25,
        "velocity": 0.71,
        "hand": "right"
      },
      {
        "midi": 67,
        "time": 316,
        "duration": 0.25,
        "velocity": 0.71,
        "hand": "right"
      },
      {
        "midi": 74,
        "time": 316,
        "duration": 0.25,
        "velocity": 0.71,
        "hand": "right"
      },
      {
        "midi": 82,
        "time": 316,
        "duration": 0.25,
        "velocity": 0.71,
        "hand": "right"
      },
      {
        "midi": 67,
        "time": 316.25,
        "duration": 0.25,
        "velocity": 0.71,
        "hand": "right"
      },
      {
        "midi": 70,
        "time": 316.25,
        "duration": 0.25,
        "velocity": 0.71,
        "hand": "right"
      },
      {
        "midi": 74,
        "time": 316.25,
        "duration": 0.25,
        "velocity": 0.71,
        "hand": "right"
      },
      {
        "midi": 67,
        "time": 316.5,
        "duration": 0.25,
        "velocity": 0.71,
        "hand": "right"
      },
      {
        "midi": 74,
        "time": 316.5,
        "duration": 0.25,
        "velocity": 0.71,
        "hand": "right"
      },
      {
        "midi": 79,
        "time": 316.5,
        "duration": 1,
        "velocity": 0.71,
        "hand": "right"
      },
      {
        "midi": 67,
        "time": 316.75,
        "duration": 0.25,
        "velocity": 0.71,
        "hand": "right"
      },
      {
        "midi": 70,
        "time": 316.75,
        "duration": 0.25,
        "velocity": 0.71,
        "hand": "right"
      },
      {
        "midi": 74,
        "time": 316.75,
        "duration": 0.25,
        "velocity": 0.71,
        "hand": "right"
      },
      {
        "midi": 67,
        "time": 317,
        "duration": 0.25,
        "velocity": 0.71,
        "hand": "right"
      },
      {
        "midi": 74,
        "time": 317,
        "duration": 0.25,
        "velocity": 0.71,
        "hand": "right"
      },
      {
        "midi": 98,
        "time": 317,
        "duration": 0.5,
        "velocity": 0.71,
        "hand": "right"
      },
      {
        "midi": 67,
        "time": 317.25,
        "duration": 0.25,
        "velocity": 0.71,
        "hand": "right"
      },
      {
        "midi": 70,
        "time": 317.25,
        "duration": 0.25,
        "velocity": 0.71,
        "hand": "right"
      },
      {
        "midi": 74,
        "time": 317.25,
        "duration": 0.25,
        "velocity": 0.71,
        "hand": "right"
      },
      {
        "midi": 67,
        "time": 317.5,
        "duration": 0.25,
        "velocity": 0.71,
        "hand": "right"
      },
      {
        "midi": 75,
        "time": 317.5,
        "duration": 0.25,
        "velocity": 0.71,
        "hand": "right"
      },
      {
        "midi": 82,
        "time": 317.5,
        "duration": 0.25,
        "velocity": 0.71,
        "hand": "right"
      },
      {
        "midi": 67,
        "time": 317.75,
        "duration": 0.25,
        "velocity": 0.71,
        "hand": "right"
      },
      {
        "midi": 75,
        "time": 317.75,
        "duration": 0.25,
        "velocity": 0.71,
        "hand": "right"
      },
      {
        "midi": 84,
        "time": 317.75,
        "duration": 0.25,
        "velocity": 0.71,
        "hand": "right"
      },
      {
        "midi": 67,
        "time": 318,
        "duration": 0.25,
        "velocity": 0.71,
        "hand": "right"
      },
      {
        "midi": 79,
        "time": 318,
        "duration": 0.25,
        "velocity": 0.71,
        "hand": "right"
      },
      {
        "midi": 86,
        "time": 318,
        "duration": 0.5,
        "velocity": 0.71,
        "hand": "right"
      },
      {
        "midi": 67,
        "time": 318.25,
        "duration": 0.25,
        "velocity": 0.71,
        "hand": "right"
      },
      {
        "midi": 74,
        "time": 318.25,
        "duration": 0.25,
        "velocity": 0.71,
        "hand": "right"
      },
      {
        "midi": 82,
        "time": 318.25,
        "duration": 0.25,
        "velocity": 0.71,
        "hand": "right"
      },
      {
        "midi": 67,
        "time": 318.5,
        "duration": 0.25,
        "velocity": 0.71,
        "hand": "right"
      },
      {
        "midi": 79,
        "time": 318.5,
        "duration": 0.25,
        "velocity": 0.71,
        "hand": "right"
      },
      {
        "midi": 86,
        "time": 318.5,
        "duration": 1,
        "velocity": 0.71,
        "hand": "right"
      },
      {
        "midi": 67,
        "time": 318.75,
        "duration": 0.25,
        "velocity": 0.71,
        "hand": "right"
      },
      {
        "midi": 74,
        "time": 318.75,
        "duration": 0.25,
        "velocity": 0.71,
        "hand": "right"
      },
      {
        "midi": 82,
        "time": 318.75,
        "duration": 0.25,
        "velocity": 0.71,
        "hand": "right"
      },
      {
        "midi": 67,
        "time": 319,
        "duration": 0.25,
        "velocity": 0.71,
        "hand": "right"
      },
      {
        "midi": 74,
        "time": 319,
        "duration": 0.25,
        "velocity": 0.71,
        "hand": "right"
      },
      {
        "midi": 82,
        "time": 319,
        "duration": 0.25,
        "velocity": 0.71,
        "hand": "right"
      },
      {
        "midi": 67,
        "time": 319.25,
        "duration": 0.25,
        "velocity": 0.71,
        "hand": "right"
      },
      {
        "midi": 74,
        "time": 319.25,
        "duration": 0.25,
        "velocity": 0.71,
        "hand": "right"
      },
      {
        "midi": 82,
        "time": 319.25,
        "duration": 0.25,
        "velocity": 0.71,
        "hand": "right"
      },
      {
        "midi": 63,
        "time": 319.5,
        "duration": 0.25,
        "velocity": 0.71,
        "hand": "right"
      },
      {
        "midi": 72,
        "time": 319.5,
        "duration": 0.25,
        "velocity": 0.71,
        "hand": "right"
      },
      {
        "midi": 84,
        "time": 319.5,
        "duration": 0.25,
        "velocity": 0.71,
        "hand": "right"
      },
      {
        "midi": 63,
        "time": 319.75,
        "duration": 0.25,
        "velocity": 0.71,
        "hand": "right"
      },
      {
        "midi": 79,
        "time": 319.75,
        "duration": 0.25,
        "velocity": 0.71,
        "hand": "right"
      },
      {
        "midi": 86,
        "time": 319.75,
        "duration": 0.25,
        "velocity": 0.71,
        "hand": "right"
      },
      {
        "midi": 67,
        "time": 320,
        "duration": 0.25,
        "velocity": 0.71,
        "hand": "right"
      },
      {
        "midi": 79,
        "time": 320,
        "duration": 0.25,
        "velocity": 0.71,
        "hand": "right"
      },
      {
        "midi": 91,
        "time": 320,
        "duration": 0.25,
        "velocity": 0.71,
        "hand": "right"
      },
      {
        "midi": 67,
        "time": 320.25,
        "duration": 0.25,
        "velocity": 0.71,
        "hand": "right"
      },
      {
        "midi": 74,
        "time": 320.25,
        "duration": 0.25,
        "velocity": 0.71,
        "hand": "right"
      },
      {
        "midi": 82,
        "time": 320.25,
        "duration": 0.25,
        "velocity": 0.71,
        "hand": "right"
      },
      {
        "midi": 67,
        "time": 320.5,
        "duration": 0.25,
        "velocity": 0.71,
        "hand": "right"
      },
      {
        "midi": 79,
        "time": 320.5,
        "duration": 0.25,
        "velocity": 0.71,
        "hand": "right"
      },
      {
        "midi": 86,
        "time": 320.5,
        "duration": 1,
        "velocity": 0.71,
        "hand": "right"
      },
      {
        "midi": 67,
        "time": 320.75,
        "duration": 0.25,
        "velocity": 0.71,
        "hand": "right"
      },
      {
        "midi": 74,
        "time": 320.75,
        "duration": 0.25,
        "velocity": 0.71,
        "hand": "right"
      },
      {
        "midi": 82,
        "time": 320.75,
        "duration": 0.25,
        "velocity": 0.71,
        "hand": "right"
      },
      {
        "midi": 67,
        "time": 321,
        "duration": 0.25,
        "velocity": 0.71,
        "hand": "right"
      },
      {
        "midi": 74,
        "time": 321,
        "duration": 0.25,
        "velocity": 0.71,
        "hand": "right"
      },
      {
        "midi": 82,
        "time": 321,
        "duration": 0.25,
        "velocity": 0.71,
        "hand": "right"
      },
      {
        "midi": 67,
        "time": 321.25,
        "duration": 0.25,
        "velocity": 0.71,
        "hand": "right"
      },
      {
        "midi": 74,
        "time": 321.25,
        "duration": 0.25,
        "velocity": 0.71,
        "hand": "right"
      },
      {
        "midi": 82,
        "time": 321.25,
        "duration": 0.25,
        "velocity": 0.71,
        "hand": "right"
      },
      {
        "midi": 63,
        "time": 321.5,
        "duration": 0.25,
        "velocity": 0.71,
        "hand": "right"
      },
      {
        "midi": 72,
        "time": 321.5,
        "duration": 0.25,
        "velocity": 0.71,
        "hand": "right"
      },
      {
        "midi": 84,
        "time": 321.5,
        "duration": 0.25,
        "velocity": 0.71,
        "hand": "right"
      },
      {
        "midi": 63,
        "time": 321.75,
        "duration": 0.25,
        "velocity": 0.71,
        "hand": "right"
      },
      {
        "midi": 79,
        "time": 321.75,
        "duration": 0.25,
        "velocity": 0.71,
        "hand": "right"
      },
      {
        "midi": 86,
        "time": 321.75,
        "duration": 0.25,
        "velocity": 0.71,
        "hand": "right"
      },
      {
        "midi": 67,
        "time": 322,
        "duration": 0.25,
        "velocity": 0.71,
        "hand": "right"
      },
      {
        "midi": 74,
        "time": 322,
        "duration": 0.25,
        "velocity": 0.71,
        "hand": "right"
      },
      {
        "midi": 86,
        "time": 322,
        "duration": 0.25,
        "velocity": 0.71,
        "hand": "right"
      },
      {
        "midi": 67,
        "time": 322.25,
        "duration": 0.25,
        "velocity": 0.71,
        "hand": "right"
      },
      {
        "midi": 70,
        "time": 322.25,
        "duration": 0.25,
        "velocity": 0.71,
        "hand": "right"
      },
      {
        "midi": 74,
        "time": 322.25,
        "duration": 0.25,
        "velocity": 0.71,
        "hand": "right"
      },
      {
        "midi": 67,
        "time": 322.5,
        "duration": 0.25,
        "velocity": 0.71,
        "hand": "right"
      },
      {
        "midi": 75,
        "time": 322.5,
        "duration": 0.25,
        "velocity": 0.71,
        "hand": "right"
      },
      {
        "midi": 82,
        "time": 322.5,
        "duration": 0.25,
        "velocity": 0.71,
        "hand": "right"
      },
      {
        "midi": 67,
        "time": 322.75,
        "duration": 0.25,
        "velocity": 0.71,
        "hand": "right"
      },
      {
        "midi": 72,
        "time": 322.75,
        "duration": 0.25,
        "velocity": 0.71,
        "hand": "right"
      },
      {
        "midi": 75,
        "time": 322.75,
        "duration": 0.25,
        "velocity": 0.71,
        "hand": "right"
      },
      {
        "midi": 67,
        "time": 323,
        "duration": 0.25,
        "velocity": 0.71,
        "hand": "right"
      },
      {
        "midi": 74,
        "time": 323,
        "duration": 0.25,
        "velocity": 0.71,
        "hand": "right"
      },
      {
        "midi": 82,
        "time": 323,
        "duration": 0.25,
        "velocity": 0.71,
        "hand": "right"
      },
      {
        "midi": 67,
        "time": 323.25,
        "duration": 0.25,
        "velocity": 0.71,
        "hand": "right"
      },
      {
        "midi": 70,
        "time": 323.25,
        "duration": 0.25,
        "velocity": 0.71,
        "hand": "right"
      },
      {
        "midi": 74,
        "time": 323.25,
        "duration": 0.25,
        "velocity": 0.71,
        "hand": "right"
      },
      {
        "midi": 63,
        "time": 323.5,
        "duration": 0.25,
        "velocity": 0.71,
        "hand": "right"
      },
      {
        "midi": 79,
        "time": 323.5,
        "duration": 0.25,
        "velocity": 0.71,
        "hand": "right"
      },
      {
        "midi": 84,
        "time": 323.5,
        "duration": 0.5,
        "velocity": 0.71,
        "hand": "right"
      },
      {
        "midi": 63,
        "time": 323.75,
        "duration": 0.25,
        "velocity": 0.71,
        "hand": "right"
      },
      {
        "midi": 72,
        "time": 323.75,
        "duration": 0.25,
        "velocity": 0.71,
        "hand": "right"
      },
      {
        "midi": 79,
        "time": 323.75,
        "duration": 0.25,
        "velocity": 0.71,
        "hand": "right"
      },
      {
        "midi": 67,
        "time": 324,
        "duration": 0.25,
        "velocity": 0.71,
        "hand": "right"
      },
      {
        "midi": 74,
        "time": 324,
        "duration": 0.25,
        "velocity": 0.71,
        "hand": "right"
      },
      {
        "midi": 82,
        "time": 324,
        "duration": 0.25,
        "velocity": 0.71,
        "hand": "right"
      },
      {
        "midi": 67,
        "time": 324.25,
        "duration": 0.25,
        "velocity": 0.71,
        "hand": "right"
      },
      {
        "midi": 70,
        "time": 324.25,
        "duration": 0.25,
        "velocity": 0.71,
        "hand": "right"
      },
      {
        "midi": 74,
        "time": 324.25,
        "duration": 0.25,
        "velocity": 0.71,
        "hand": "right"
      },
      {
        "midi": 67,
        "time": 324.5,
        "duration": 0.25,
        "velocity": 0.71,
        "hand": "right"
      },
      {
        "midi": 74,
        "time": 324.5,
        "duration": 0.25,
        "velocity": 0.71,
        "hand": "right"
      },
      {
        "midi": 79,
        "time": 324.5,
        "duration": 1,
        "velocity": 0.71,
        "hand": "right"
      },
      {
        "midi": 67,
        "time": 324.75,
        "duration": 0.25,
        "velocity": 0.71,
        "hand": "right"
      },
      {
        "midi": 70,
        "time": 324.75,
        "duration": 0.25,
        "velocity": 0.71,
        "hand": "right"
      },
      {
        "midi": 74,
        "time": 324.75,
        "duration": 0.25,
        "velocity": 0.71,
        "hand": "right"
      },
      {
        "midi": 67,
        "time": 325,
        "duration": 0.25,
        "velocity": 0.71,
        "hand": "right"
      },
      {
        "midi": 74,
        "time": 325,
        "duration": 0.25,
        "velocity": 0.71,
        "hand": "right"
      },
      {
        "midi": 98,
        "time": 325,
        "duration": 0.5,
        "velocity": 0.71,
        "hand": "right"
      },
      {
        "midi": 67,
        "time": 325.25,
        "duration": 0.25,
        "velocity": 0.71,
        "hand": "right"
      },
      {
        "midi": 70,
        "time": 325.25,
        "duration": 0.25,
        "velocity": 0.71,
        "hand": "right"
      },
      {
        "midi": 74,
        "time": 325.25,
        "duration": 0.25,
        "velocity": 0.71,
        "hand": "right"
      },
      {
        "midi": 67,
        "time": 325.5,
        "duration": 0.25,
        "velocity": 0.71,
        "hand": "right"
      },
      {
        "midi": 75,
        "time": 325.5,
        "duration": 0.25,
        "velocity": 0.71,
        "hand": "right"
      },
      {
        "midi": 82,
        "time": 325.5,
        "duration": 0.25,
        "velocity": 0.71,
        "hand": "right"
      },
      {
        "midi": 67,
        "time": 325.75,
        "duration": 0.25,
        "velocity": 0.71,
        "hand": "right"
      },
      {
        "midi": 75,
        "time": 325.75,
        "duration": 0.25,
        "velocity": 0.71,
        "hand": "right"
      },
      {
        "midi": 84,
        "time": 325.75,
        "duration": 0.25,
        "velocity": 0.71,
        "hand": "right"
      },
      {
        "midi": 66,
        "time": 326,
        "duration": 0.25,
        "velocity": 0.71,
        "hand": "right"
      },
      {
        "midi": 76,
        "time": 326,
        "duration": 0.25,
        "velocity": 0.71,
        "hand": "right"
      },
      {
        "midi": 86,
        "time": 326,
        "duration": 0.5,
        "velocity": 0.71,
        "hand": "right"
      },
      {
        "midi": 66,
        "time": 326.25,
        "duration": 0.25,
        "velocity": 0.71,
        "hand": "right"
      },
      {
        "midi": 74,
        "time": 326.25,
        "duration": 0.25,
        "velocity": 0.71,
        "hand": "right"
      },
      {
        "midi": 82,
        "time": 326.25,
        "duration": 0.25,
        "velocity": 0.71,
        "hand": "right"
      },
      {
        "midi": 66,
        "time": 326.5,
        "duration": 0.25,
        "velocity": 0.71,
        "hand": "right"
      },
      {
        "midi": 76,
        "time": 326.5,
        "duration": 0.25,
        "velocity": 0.71,
        "hand": "right"
      },
      {
        "midi": 86,
        "time": 326.5,
        "duration": 1,
        "velocity": 0.71,
        "hand": "right"
      },
      {
        "midi": 66,
        "time": 326.75,
        "duration": 0.25,
        "velocity": 0.71,
        "hand": "right"
      },
      {
        "midi": 74,
        "time": 326.75,
        "duration": 0.25,
        "velocity": 0.71,
        "hand": "right"
      },
      {
        "midi": 82,
        "time": 326.75,
        "duration": 0.25,
        "velocity": 0.71,
        "hand": "right"
      },
      {
        "midi": 65,
        "time": 327,
        "duration": 0.25,
        "velocity": 0.71,
        "hand": "right"
      },
      {
        "midi": 74,
        "time": 327,
        "duration": 0.25,
        "velocity": 0.71,
        "hand": "right"
      },
      {
        "midi": 82,
        "time": 327,
        "duration": 0.25,
        "velocity": 0.71,
        "hand": "right"
      },
      {
        "midi": 65,
        "time": 327.25,
        "duration": 0.25,
        "velocity": 0.71,
        "hand": "right"
      },
      {
        "midi": 74,
        "time": 327.25,
        "duration": 0.25,
        "velocity": 0.71,
        "hand": "right"
      },
      {
        "midi": 82,
        "time": 327.25,
        "duration": 0.25,
        "velocity": 0.71,
        "hand": "right"
      },
      {
        "midi": 64,
        "time": 327.5,
        "duration": 0.25,
        "velocity": 0.71,
        "hand": "right"
      },
      {
        "midi": 72,
        "time": 327.5,
        "duration": 0.25,
        "velocity": 0.71,
        "hand": "right"
      },
      {
        "midi": 79,
        "time": 327.5,
        "duration": 0.25,
        "velocity": 0.71,
        "hand": "right"
      },
      {
        "midi": 64,
        "time": 327.75,
        "duration": 0.25,
        "velocity": 0.71,
        "hand": "right"
      },
      {
        "midi": 72,
        "time": 327.75,
        "duration": 0.25,
        "velocity": 0.71,
        "hand": "right"
      },
      {
        "midi": 81,
        "time": 327.75,
        "duration": 0.25,
        "velocity": 0.71,
        "hand": "right"
      },
      {
        "midi": 63,
        "time": 328,
        "duration": 0.25,
        "velocity": 0.71,
        "hand": "right"
      },
      {
        "midi": 73,
        "time": 328,
        "duration": 0.25,
        "velocity": 0.71,
        "hand": "right"
      },
      {
        "midi": 82,
        "time": 328,
        "duration": 0.5,
        "velocity": 0.71,
        "hand": "right"
      },
      {
        "midi": 63,
        "time": 328.25,
        "duration": 0.25,
        "velocity": 0.71,
        "hand": "right"
      },
      {
        "midi": 70,
        "time": 328.25,
        "duration": 0.25,
        "velocity": 0.71,
        "hand": "right"
      },
      {
        "midi": 79,
        "time": 328.25,
        "duration": 0.25,
        "velocity": 0.71,
        "hand": "right"
      },
      {
        "midi": 63,
        "time": 328.5,
        "duration": 0.25,
        "velocity": 0.71,
        "hand": "right"
      },
      {
        "midi": 73,
        "time": 328.5,
        "duration": 0.25,
        "velocity": 0.71,
        "hand": "right"
      },
      {
        "midi": 82,
        "time": 328.5,
        "duration": 1,
        "velocity": 0.71,
        "hand": "right"
      },
      {
        "midi": 63,
        "time": 328.75,
        "duration": 0.25,
        "velocity": 0.71,
        "hand": "right"
      },
      {
        "midi": 70,
        "time": 328.75,
        "duration": 0.25,
        "velocity": 0.71,
        "hand": "right"
      },
      {
        "midi": 79,
        "time": 328.75,
        "duration": 0.25,
        "velocity": 0.71,
        "hand": "right"
      },
      {
        "midi": 62,
        "time": 329,
        "duration": 0.25,
        "velocity": 0.71,
        "hand": "right"
      },
      {
        "midi": 70,
        "time": 329,
        "duration": 0.25,
        "velocity": 0.71,
        "hand": "right"
      },
      {
        "midi": 79,
        "time": 329,
        "duration": 0.25,
        "velocity": 0.71,
        "hand": "right"
      },
      {
        "midi": 62,
        "time": 329.25,
        "duration": 0.25,
        "velocity": 0.71,
        "hand": "right"
      },
      {
        "midi": 70,
        "time": 329.25,
        "duration": 0.25,
        "velocity": 0.71,
        "hand": "right"
      },
      {
        "midi": 79,
        "time": 329.25,
        "duration": 0.25,
        "velocity": 0.71,
        "hand": "right"
      },
      {
        "midi": 61,
        "time": 329.5,
        "duration": 0.25,
        "velocity": 0.71,
        "hand": "right"
      },
      {
        "midi": 69,
        "time": 329.5,
        "duration": 0.25,
        "velocity": 0.71,
        "hand": "right"
      },
      {
        "midi": 76,
        "time": 329.5,
        "duration": 0.25,
        "velocity": 0.71,
        "hand": "right"
      },
      {
        "midi": 61,
        "time": 329.75,
        "duration": 0.25,
        "velocity": 0.71,
        "hand": "right"
      },
      {
        "midi": 69,
        "time": 329.75,
        "duration": 0.25,
        "velocity": 0.71,
        "hand": "right"
      },
      {
        "midi": 78,
        "time": 329.75,
        "duration": 0.25,
        "velocity": 0.71,
        "hand": "right"
      },
      {
        "midi": 60,
        "time": 330,
        "duration": 0.25,
        "velocity": 0.71,
        "hand": "right"
      },
      {
        "midi": 70,
        "time": 330,
        "duration": 0.25,
        "velocity": 0.71,
        "hand": "right"
      },
      {
        "midi": 79,
        "time": 330,
        "duration": 0.5,
        "velocity": 0.71,
        "hand": "right"
      },
      {
        "midi": 60,
        "time": 330.25,
        "duration": 0.25,
        "velocity": 0.71,
        "hand": "right"
      },
      {
        "midi": 67,
        "time": 330.25,
        "duration": 0.25,
        "velocity": 0.71,
        "hand": "right"
      },
      {
        "midi": 76,
        "time": 330.25,
        "duration": 0.25,
        "velocity": 0.71,
        "hand": "right"
      },
      {
        "midi": 59,
        "time": 330.5,
        "duration": 0.25,
        "velocity": 0.71,
        "hand": "left"
      },
      {
        "midi": 67,
        "time": 330.5,
        "duration": 0.25,
        "velocity": 0.71,
        "hand": "right"
      },
      {
        "midi": 73,
        "time": 330.5,
        "duration": 0.25,
        "velocity": 0.71,
        "hand": "right"
      },
      {
        "midi": 59,
        "time": 330.75,
        "duration": 0.25,
        "velocity": 0.71,
        "hand": "left"
      },
      {
        "midi": 71,
        "time": 330.75,
        "duration": 0.25,
        "velocity": 0.71,
        "hand": "right"
      },
      {
        "midi": 75,
        "time": 330.75,
        "duration": 0.25,
        "velocity": 0.71,
        "hand": "right"
      },
      {
        "midi": 58,
        "time": 331,
        "duration": 0.25,
        "velocity": 0.71,
        "hand": "left"
      },
      {
        "midi": 67,
        "time": 331,
        "duration": 0.25,
        "velocity": 0.71,
        "hand": "right"
      },
      {
        "midi": 76,
        "time": 331,
        "duration": 0.5,
        "velocity": 0.71,
        "hand": "right"
      },
      {
        "midi": 58,
        "time": 331.25,
        "duration": 0.25,
        "velocity": 0.71,
        "hand": "left"
      },
      {
        "midi": 64,
        "time": 331.25,
        "duration": 0.25,
        "velocity": 0.71,
        "hand": "right"
      },
      {
        "midi": 72,
        "time": 331.25,
        "duration": 0.25,
        "velocity": 0.71,
        "hand": "right"
      },
      {
        "midi": 57,
        "time": 331.5,
        "duration": 0.25,
        "velocity": 0.71,
        "hand": "left"
      },
      {
        "midi": 64,
        "time": 331.5,
        "duration": 0.25,
        "velocity": 0.71,
        "hand": "right"
      },
      {
        "midi": 67,
        "time": 331.5,
        "duration": 0.25,
        "velocity": 0.71,
        "hand": "right"
      },
      {
        "midi": 57,
        "time": 331.75,
        "duration": 0.25,
        "velocity": 0.71,
        "hand": "left"
      },
      {
        "midi": 64,
        "time": 331.75,
        "duration": 0.25,
        "velocity": 0.71,
        "hand": "right"
      },
      {
        "midi": 69,
        "time": 331.75,
        "duration": 0.25,
        "velocity": 0.71,
        "hand": "right"
      },
      {
        "midi": 55,
        "time": 332,
        "duration": 0.5,
        "velocity": 0.71,
        "hand": "left"
      },
      {
        "midi": 67,
        "time": 332,
        "duration": 0.25,
        "velocity": 0.71,
        "hand": "right"
      },
      {
        "midi": 70,
        "time": 332,
        "duration": 1.5,
        "velocity": 0.71,
        "hand": "right"
      },
      {
        "midi": 63,
        "time": 332.25,
        "duration": 0.25,
        "velocity": 0.71,
        "hand": "right"
      },
      {
        "midi": 67,
        "time": 332.25,
        "duration": 0.25,
        "velocity": 0.71,
        "hand": "right"
      },
      {
        "midi": 31,
        "time": 332.5,
        "duration": 0.25,
        "velocity": 0.54,
        "hand": "left"
      },
      {
        "midi": 63,
        "time": 332.5,
        "duration": 0.25,
        "velocity": 0.71,
        "hand": "right"
      },
      {
        "midi": 67,
        "time": 332.5,
        "duration": 0.25,
        "velocity": 0.71,
        "hand": "right"
      },
      {
        "midi": 39,
        "time": 332.75,
        "duration": 0.25,
        "velocity": 0.54,
        "hand": "left"
      },
      {
        "midi": 51,
        "time": 332.75,
        "duration": 0.25,
        "velocity": 0.54,
        "hand": "left"
      },
      {
        "midi": 67,
        "time": 332.75,
        "duration": 0.25,
        "velocity": 0.71,
        "hand": "right"
      },
      {
        "midi": 55,
        "time": 333,
        "duration": 0.25,
        "velocity": 0.54,
        "hand": "left"
      },
      {
        "midi": 63,
        "time": 333,
        "duration": 0.25,
        "velocity": 0.71,
        "hand": "right"
      },
      {
        "midi": 67,
        "time": 333,
        "duration": 0.25,
        "velocity": 0.71,
        "hand": "right"
      },
      {
        "midi": 63,
        "time": 333.25,
        "duration": 0.25,
        "velocity": 0.71,
        "hand": "right"
      },
      {
        "midi": 67,
        "time": 333.25,
        "duration": 0.25,
        "velocity": 0.71,
        "hand": "right"
      },
      {
        "midi": 55,
        "time": 333.5,
        "duration": 0.25,
        "velocity": 0.54,
        "hand": "left"
      },
      {
        "midi": 63,
        "time": 333.5,
        "duration": 0.25,
        "velocity": 0.71,
        "hand": "right"
      },
      {
        "midi": 70,
        "time": 333.5,
        "duration": 0.25,
        "velocity": 0.71,
        "hand": "right"
      },
      {
        "midi": 55,
        "time": 333.75,
        "duration": 0.25,
        "velocity": 0.54,
        "hand": "left"
      },
      {
        "midi": 63,
        "time": 333.75,
        "duration": 0.25,
        "velocity": 0.71,
        "hand": "right"
      },
      {
        "midi": 72,
        "time": 333.75,
        "duration": 0.25,
        "velocity": 0.71,
        "hand": "right"
      },
      {
        "midi": 54,
        "time": 334,
        "duration": 0.25,
        "velocity": 0.54,
        "hand": "left"
      },
      {
        "midi": 64,
        "time": 334,
        "duration": 0.25,
        "velocity": 0.54,
        "hand": "right"
      },
      {
        "midi": 74,
        "time": 334,
        "duration": 0.5,
        "velocity": 0.71,
        "hand": "right"
      },
      {
        "midi": 54,
        "time": 334.25,
        "duration": 0.25,
        "velocity": 0.54,
        "hand": "left"
      },
      {
        "midi": 62,
        "time": 334.25,
        "duration": 0.25,
        "velocity": 0.71,
        "hand": "right"
      },
      {
        "midi": 70,
        "time": 334.25,
        "duration": 0.25,
        "velocity": 0.71,
        "hand": "right"
      },
      {
        "midi": 54,
        "time": 334.5,
        "duration": 0.25,
        "velocity": 0.54,
        "hand": "left"
      },
      {
        "midi": 64,
        "time": 334.5,
        "duration": 0.25,
        "velocity": 0.54,
        "hand": "right"
      },
      {
        "midi": 74,
        "time": 334.5,
        "duration": 1,
        "velocity": 0.71,
        "hand": "right"
      },
      {
        "midi": 54,
        "time": 334.75,
        "duration": 0.25,
        "velocity": 0.54,
        "hand": "left"
      },
      {
        "midi": 62,
        "time": 334.75,
        "duration": 0.25,
        "velocity": 0.71,
        "hand": "right"
      },
      {
        "midi": 70,
        "time": 334.75,
        "duration": 0.25,
        "velocity": 0.71,
        "hand": "right"
      },
      {
        "midi": 53,
        "time": 335,
        "duration": 0.25,
        "velocity": 0.54,
        "hand": "left"
      },
      {
        "midi": 62,
        "time": 335,
        "duration": 0.25,
        "velocity": 0.71,
        "hand": "right"
      },
      {
        "midi": 70,
        "time": 335,
        "duration": 0.25,
        "velocity": 0.71,
        "hand": "right"
      },
      {
        "midi": 53,
        "time": 335.25,
        "duration": 0.25,
        "velocity": 0.54,
        "hand": "left"
      },
      {
        "midi": 62,
        "time": 335.25,
        "duration": 0.25,
        "velocity": 0.71,
        "hand": "right"
      },
      {
        "midi": 70,
        "time": 335.25,
        "duration": 0.25,
        "velocity": 0.71,
        "hand": "right"
      },
      {
        "midi": 52,
        "time": 335.5,
        "duration": 0.25,
        "velocity": 0.54,
        "hand": "left"
      },
      {
        "midi": 60,
        "time": 335.5,
        "duration": 0.25,
        "velocity": 0.71,
        "hand": "right"
      },
      {
        "midi": 67,
        "time": 335.5,
        "duration": 0.25,
        "velocity": 0.71,
        "hand": "right"
      },
      {
        "midi": 52,
        "time": 335.75,
        "duration": 0.25,
        "velocity": 0.54,
        "hand": "left"
      },
      {
        "midi": 60,
        "time": 335.75,
        "duration": 0.25,
        "velocity": 0.71,
        "hand": "right"
      },
      {
        "midi": 69,
        "time": 335.75,
        "duration": 0.25,
        "velocity": 0.71,
        "hand": "right"
      },
      {
        "midi": 51,
        "time": 336,
        "duration": 0.25,
        "velocity": 0.54,
        "hand": "left"
      },
      {
        "midi": 61,
        "time": 336,
        "duration": 0.25,
        "velocity": 0.54,
        "hand": "right"
      },
      {
        "midi": 70,
        "time": 336,
        "duration": 0.5,
        "velocity": 0.71,
        "hand": "right"
      },
      {
        "midi": 51,
        "time": 336.25,
        "duration": 0.25,
        "velocity": 0.54,
        "hand": "left"
      },
      {
        "midi": 58,
        "time": 336.25,
        "duration": 0.25,
        "velocity": 0.71,
        "hand": "left"
      },
      {
        "midi": 67,
        "time": 336.25,
        "duration": 0.25,
        "velocity": 0.71,
        "hand": "right"
      },
      {
        "midi": 51,
        "time": 336.5,
        "duration": 0.25,
        "velocity": 0.54,
        "hand": "left"
      },
      {
        "midi": 61,
        "time": 336.5,
        "duration": 0.25,
        "velocity": 0.54,
        "hand": "right"
      },
      {
        "midi": 70,
        "time": 336.5,
        "duration": 1,
        "velocity": 0.71,
        "hand": "right"
      },
      {
        "midi": 51,
        "time": 336.75,
        "duration": 0.25,
        "velocity": 0.54,
        "hand": "left"
      },
      {
        "midi": 58,
        "time": 336.75,
        "duration": 0.25,
        "velocity": 0.71,
        "hand": "left"
      },
      {
        "midi": 67,
        "time": 336.75,
        "duration": 0.25,
        "velocity": 0.71,
        "hand": "right"
      },
      {
        "midi": 50,
        "time": 337,
        "duration": 0.25,
        "velocity": 0.54,
        "hand": "left"
      },
      {
        "midi": 58,
        "time": 337,
        "duration": 0.25,
        "velocity": 0.71,
        "hand": "left"
      },
      {
        "midi": 67,
        "time": 337,
        "duration": 0.25,
        "velocity": 0.71,
        "hand": "right"
      },
      {
        "midi": 50,
        "time": 337.25,
        "duration": 0.25,
        "velocity": 0.54,
        "hand": "left"
      },
      {
        "midi": 58,
        "time": 337.25,
        "duration": 0.25,
        "velocity": 0.71,
        "hand": "left"
      },
      {
        "midi": 67,
        "time": 337.25,
        "duration": 0.25,
        "velocity": 0.71,
        "hand": "right"
      },
      {
        "midi": 49,
        "time": 337.5,
        "duration": 0.25,
        "velocity": 0.54,
        "hand": "left"
      },
      {
        "midi": 57,
        "time": 337.5,
        "duration": 0.25,
        "velocity": 0.71,
        "hand": "left"
      },
      {
        "midi": 64,
        "time": 337.5,
        "duration": 0.25,
        "velocity": 0.71,
        "hand": "right"
      },
      {
        "midi": 49,
        "time": 337.75,
        "duration": 0.25,
        "velocity": 0.54,
        "hand": "left"
      },
      {
        "midi": 57,
        "time": 337.75,
        "duration": 0.25,
        "velocity": 0.71,
        "hand": "left"
      },
      {
        "midi": 66,
        "time": 337.75,
        "duration": 0.25,
        "velocity": 0.71,
        "hand": "right"
      },
      {
        "midi": 48,
        "time": 338,
        "duration": 0.25,
        "velocity": 0.54,
        "hand": "left"
      },
      {
        "midi": 58,
        "time": 338,
        "duration": 0.25,
        "velocity": 0.54,
        "hand": "left"
      },
      {
        "midi": 67,
        "time": 338,
        "duration": 0.5,
        "velocity": 0.71,
        "hand": "right"
      },
      {
        "midi": 48,
        "time": 338.25,
        "duration": 0.25,
        "velocity": 0.54,
        "hand": "left"
      },
      {
        "midi": 55,
        "time": 338.25,
        "duration": 0.25,
        "velocity": 0.71,
        "hand": "left"
      },
      {
        "midi": 64,
        "time": 338.25,
        "duration": 0.25,
        "velocity": 0.71,
        "hand": "right"
      },
      {
        "midi": 47,
        "time": 338.5,
        "duration": 0.25,
        "velocity": 0.54,
        "hand": "left"
      },
      {
        "midi": 55,
        "time": 338.5,
        "duration": 0.25,
        "velocity": 0.71,
        "hand": "left"
      },
      {
        "midi": 61,
        "time": 338.5,
        "duration": 0.25,
        "velocity": 0.71,
        "hand": "right"
      },
      {
        "midi": 47,
        "time": 338.75,
        "duration": 0.25,
        "velocity": 0.54,
        "hand": "left"
      },
      {
        "midi": 59,
        "time": 338.75,
        "duration": 0.25,
        "velocity": 0.54,
        "hand": "left"
      },
      {
        "midi": 63,
        "time": 338.75,
        "duration": 0.25,
        "velocity": 0.71,
        "hand": "right"
      },
      {
        "midi": 46,
        "time": 339,
        "duration": 0.25,
        "velocity": 0.54,
        "hand": "left"
      },
      {
        "midi": 55,
        "time": 339,
        "duration": 0.25,
        "velocity": 0.71,
        "hand": "left"
      },
      {
        "midi": 64,
        "time": 339,
        "duration": 0.5,
        "velocity": 0.71,
        "hand": "right"
      },
      {
        "midi": 46,
        "time": 339.25,
        "duration": 0.25,
        "velocity": 0.54,
        "hand": "left"
      },
      {
        "midi": 52,
        "time": 339.25,
        "duration": 0.25,
        "velocity": 0.54,
        "hand": "left"
      },
      {
        "midi": 60,
        "time": 339.25,
        "duration": 0.25,
        "velocity": 0.71,
        "hand": "right"
      },
      {
        "midi": 45,
        "time": 339.5,
        "duration": 0.25,
        "velocity": 0.54,
        "hand": "left"
      },
      {
        "midi": 52,
        "time": 339.5,
        "duration": 0.25,
        "velocity": 0.71,
        "hand": "left"
      },
      {
        "midi": 55,
        "time": 339.5,
        "duration": 0.25,
        "velocity": 0.71,
        "hand": "left"
      },
      {
        "midi": 45,
        "time": 339.75,
        "duration": 0.25,
        "velocity": 0.54,
        "hand": "left"
      },
      {
        "midi": 52,
        "time": 339.75,
        "duration": 0.25,
        "velocity": 0.71,
        "hand": "left"
      },
      {
        "midi": 57,
        "time": 339.75,
        "duration": 0.25,
        "velocity": 0.71,
        "hand": "left"
      },
      {
        "midi": 43,
        "time": 340,
        "duration": 0.5,
        "velocity": 0.54,
        "hand": "left"
      },
      {
        "midi": 55,
        "time": 340,
        "duration": 0.25,
        "velocity": 0.71,
        "hand": "left"
      },
      {
        "midi": 58,
        "time": 340,
        "duration": 1.75,
        "velocity": 0.71,
        "hand": "left"
      },
      {
        "midi": 51,
        "time": 340.25,
        "duration": 0.25,
        "velocity": 0.71,
        "hand": "left"
      },
      {
        "midi": 55,
        "time": 340.25,
        "duration": 0.25,
        "velocity": 0.71,
        "hand": "left"
      },
      {
        "midi": 22,
        "time": 340.5,
        "duration": 0.25,
        "velocity": 0.54,
        "hand": "left"
      },
      {
        "midi": 51,
        "time": 340.5,
        "duration": 0.25,
        "velocity": 0.71,
        "hand": "left"
      },
      {
        "midi": 55,
        "time": 340.5,
        "duration": 0.25,
        "velocity": 0.71,
        "hand": "left"
      },
      {
        "midi": 31,
        "time": 340.75,
        "duration": 0.25,
        "velocity": 0.54,
        "hand": "left"
      },
      {
        "midi": 39,
        "time": 340.75,
        "duration": 0.25,
        "velocity": 0.54,
        "hand": "left"
      },
      {
        "midi": 55,
        "time": 340.75,
        "duration": 0.25,
        "velocity": 0.71,
        "hand": "left"
      },
      {
        "midi": 43,
        "time": 341,
        "duration": 0.25,
        "velocity": 0.54,
        "hand": "left"
      },
      {
        "midi": 51,
        "time": 341,
        "duration": 0.25,
        "velocity": 0.71,
        "hand": "left"
      },
      {
        "midi": 55,
        "time": 341,
        "duration": 0.25,
        "velocity": 0.71,
        "hand": "left"
      },
      {
        "midi": 51,
        "time": 341.25,
        "duration": 0.25,
        "velocity": 0.71,
        "hand": "left"
      },
      {
        "midi": 55,
        "time": 341.25,
        "duration": 0.25,
        "velocity": 0.71,
        "hand": "left"
      },
      {
        "midi": 51,
        "time": 341.5,
        "duration": 0.25,
        "velocity": 0.71,
        "hand": "left"
      },
      {
        "midi": 63,
        "time": 341.5,
        "duration": 0.25,
        "velocity": 0.54,
        "hand": "right"
      },
      {
        "midi": 70,
        "time": 341.5,
        "duration": 0.25,
        "velocity": 0.54,
        "hand": "right"
      },
      {
        "midi": 51,
        "time": 341.75,
        "duration": 0.25,
        "velocity": 0.71,
        "hand": "left"
      },
      {
        "midi": 55,
        "time": 341.75,
        "duration": 0.25,
        "velocity": 0.71,
        "hand": "left"
      },
      {
        "midi": 60,
        "time": 341.75,
        "duration": 0.25,
        "velocity": 0.71,
        "hand": "right"
      },
      {
        "midi": 51,
        "time": 342,
        "duration": 0.25,
        "velocity": 0.71,
        "hand": "left"
      },
      {
        "midi": 55,
        "time": 342,
        "duration": 0.25,
        "velocity": 0.71,
        "hand": "left"
      },
      {
        "midi": 58,
        "time": 342,
        "duration": 1.75,
        "velocity": 0.71,
        "hand": "left"
      },
      {
        "midi": 51,
        "time": 342.25,
        "duration": 0.25,
        "velocity": 0.71,
        "hand": "left"
      },
      {
        "midi": 55,
        "time": 342.25,
        "duration": 0.25,
        "velocity": 0.71,
        "hand": "left"
      },
      {
        "midi": 22,
        "time": 342.5,
        "duration": 0.25,
        "velocity": 0.54,
        "hand": "left"
      },
      {
        "midi": 51,
        "time": 342.5,
        "duration": 0.25,
        "velocity": 0.71,
        "hand": "left"
      },
      {
        "midi": 55,
        "time": 342.5,
        "duration": 0.25,
        "velocity": 0.71,
        "hand": "left"
      },
      {
        "midi": 31,
        "time": 342.75,
        "duration": 0.25,
        "velocity": 0.54,
        "hand": "left"
      },
      {
        "midi": 39,
        "time": 342.75,
        "duration": 0.25,
        "velocity": 0.54,
        "hand": "left"
      },
      {
        "midi": 55,
        "time": 342.75,
        "duration": 0.25,
        "velocity": 0.71,
        "hand": "left"
      },
      {
        "midi": 43,
        "time": 343,
        "duration": 0.25,
        "velocity": 0.54,
        "hand": "left"
      },
      {
        "midi": 51,
        "time": 343,
        "duration": 0.25,
        "velocity": 0.71,
        "hand": "left"
      },
      {
        "midi": 55,
        "time": 343,
        "duration": 0.25,
        "velocity": 0.71,
        "hand": "left"
      },
      {
        "midi": 51,
        "time": 343.25,
        "duration": 0.25,
        "velocity": 0.71,
        "hand": "left"
      },
      {
        "midi": 55,
        "time": 343.25,
        "duration": 0.25,
        "velocity": 0.71,
        "hand": "left"
      },
      {
        "midi": 51,
        "time": 343.5,
        "duration": 0.25,
        "velocity": 0.71,
        "hand": "left"
      },
      {
        "midi": 63,
        "time": 343.5,
        "duration": 0.25,
        "velocity": 0.54,
        "hand": "right"
      },
      {
        "midi": 70,
        "time": 343.5,
        "duration": 0.25,
        "velocity": 0.54,
        "hand": "right"
      },
      {
        "midi": 51,
        "time": 343.75,
        "duration": 0.25,
        "velocity": 0.71,
        "hand": "left"
      },
      {
        "midi": 55,
        "time": 343.75,
        "duration": 0.25,
        "velocity": 0.71,
        "hand": "left"
      },
      {
        "midi": 60,
        "time": 343.75,
        "duration": 0.25,
        "velocity": 0.71,
        "hand": "right"
      },
      {
        "midi": 51,
        "time": 344,
        "duration": 0.25,
        "velocity": 0.71,
        "hand": "left"
      },
      {
        "midi": 55,
        "time": 344,
        "duration": 0.25,
        "velocity": 0.71,
        "hand": "left"
      },
      {
        "midi": 58,
        "time": 344,
        "duration": 0.75,
        "velocity": 0.71,
        "hand": "left"
      },
      {
        "midi": 51,
        "time": 344.25,
        "duration": 0.25,
        "velocity": 0.71,
        "hand": "left"
      },
      {
        "midi": 55,
        "time": 344.25,
        "duration": 0.25,
        "velocity": 0.71,
        "hand": "left"
      },
      {
        "midi": 51,
        "time": 344.5,
        "duration": 0.25,
        "velocity": 0.71,
        "hand": "left"
      },
      {
        "midi": 63,
        "time": 344.5,
        "duration": 0.25,
        "velocity": 0.54,
        "hand": "right"
      },
      {
        "midi": 70,
        "time": 344.5,
        "duration": 0.25,
        "velocity": 0.54,
        "hand": "right"
      },
      {
        "midi": 51,
        "time": 344.75,
        "duration": 0.25,
        "velocity": 0.71,
        "hand": "left"
      },
      {
        "midi": 55,
        "time": 344.75,
        "duration": 0.25,
        "velocity": 0.71,
        "hand": "left"
      },
      {
        "midi": 60,
        "time": 344.75,
        "duration": 0.25,
        "velocity": 0.71,
        "hand": "right"
      },
      {
        "midi": 51,
        "time": 345,
        "duration": 0.25,
        "velocity": 0.71,
        "hand": "left"
      },
      {
        "midi": 55,
        "time": 345,
        "duration": 0.25,
        "velocity": 0.71,
        "hand": "left"
      },
      {
        "midi": 58,
        "time": 345,
        "duration": 0.75,
        "velocity": 0.71,
        "hand": "left"
      },
      {
        "midi": 51,
        "time": 345.25,
        "duration": 0.25,
        "velocity": 0.71,
        "hand": "left"
      },
      {
        "midi": 55,
        "time": 345.25,
        "duration": 0.25,
        "velocity": 0.71,
        "hand": "left"
      },
      {
        "midi": 51,
        "time": 345.5,
        "duration": 0.25,
        "velocity": 0.71,
        "hand": "left"
      },
      {
        "midi": 63,
        "time": 345.5,
        "duration": 0.25,
        "velocity": 0.54,
        "hand": "right"
      },
      {
        "midi": 70,
        "time": 345.5,
        "duration": 0.25,
        "velocity": 0.54,
        "hand": "right"
      },
      {
        "midi": 51,
        "time": 345.75,
        "duration": 0.25,
        "velocity": 0.71,
        "hand": "left"
      },
      {
        "midi": 55,
        "time": 345.75,
        "duration": 0.25,
        "velocity": 0.71,
        "hand": "left"
      },
      {
        "midi": 60,
        "time": 345.75,
        "duration": 0.25,
        "velocity": 0.71,
        "hand": "right"
      },
      {
        "midi": 51,
        "time": 346,
        "duration": 0.25,
        "velocity": 0.71,
        "hand": "left"
      },
      {
        "midi": 55,
        "time": 346,
        "duration": 0.25,
        "velocity": 0.71,
        "hand": "left"
      },
      {
        "midi": 58,
        "time": 346,
        "duration": 7.5,
        "velocity": 0.71,
        "hand": "left"
      },
      {
        "midi": 51,
        "time": 346.25,
        "duration": 0.25,
        "velocity": 0.71,
        "hand": "left"
      },
      {
        "midi": 55,
        "time": 346.25,
        "duration": 0.25,
        "velocity": 0.71,
        "hand": "left"
      },
      {
        "midi": 51,
        "time": 346.5,
        "duration": 0.25,
        "velocity": 0.71,
        "hand": "left"
      },
      {
        "midi": 63,
        "time": 346.5,
        "duration": 1,
        "velocity": 0.54,
        "hand": "right"
      },
      {
        "midi": 70,
        "time": 346.5,
        "duration": 1,
        "velocity": 0.54,
        "hand": "right"
      },
      {
        "midi": 51,
        "time": 346.75,
        "duration": 0.25,
        "velocity": 0.71,
        "hand": "left"
      },
      {
        "midi": 55,
        "time": 346.75,
        "duration": 0.25,
        "velocity": 0.71,
        "hand": "left"
      },
      {
        "midi": 51,
        "time": 347,
        "duration": 0.25,
        "velocity": 0.71,
        "hand": "left"
      },
      {
        "midi": 55,
        "time": 347,
        "duration": 0.25,
        "velocity": 0.71,
        "hand": "left"
      },
      {
        "midi": 51,
        "time": 347.25,
        "duration": 0.25,
        "velocity": 0.71,
        "hand": "left"
      },
      {
        "midi": 55,
        "time": 347.25,
        "duration": 0.25,
        "velocity": 0.71,
        "hand": "left"
      },
      {
        "midi": 22,
        "time": 347.5,
        "duration": 0.25,
        "velocity": 0.54,
        "hand": "left"
      },
      {
        "midi": 51,
        "time": 347.5,
        "duration": 0.25,
        "velocity": 0.71,
        "hand": "left"
      },
      {
        "midi": 55,
        "time": 347.5,
        "duration": 0.25,
        "velocity": 0.71,
        "hand": "left"
      },
      {
        "midi": 31,
        "time": 347.75,
        "duration": 0.25,
        "velocity": 0.54,
        "hand": "left"
      },
      {
        "midi": 39,
        "time": 347.75,
        "duration": 0.25,
        "velocity": 0.54,
        "hand": "left"
      },
      {
        "midi": 55,
        "time": 347.75,
        "duration": 0.25,
        "velocity": 0.71,
        "hand": "left"
      },
      {
        "midi": 43,
        "time": 348,
        "duration": 0.25,
        "velocity": 0.54,
        "hand": "left"
      },
      {
        "midi": 51,
        "time": 348,
        "duration": 0.25,
        "velocity": 0.71,
        "hand": "left"
      },
      {
        "midi": 55,
        "time": 348,
        "duration": 0.25,
        "velocity": 0.71,
        "hand": "left"
      },
      {
        "midi": 51,
        "time": 348.25,
        "duration": 0.25,
        "velocity": 0.71,
        "hand": "left"
      },
      {
        "midi": 55,
        "time": 348.25,
        "duration": 0.25,
        "velocity": 0.71,
        "hand": "left"
      },
      {
        "midi": 51,
        "time": 348.5,
        "duration": 0.25,
        "velocity": 0.71,
        "hand": "left"
      },
      {
        "midi": 55,
        "time": 348.5,
        "duration": 0.25,
        "velocity": 0.71,
        "hand": "left"
      },
      {
        "midi": 48,
        "time": 348.75,
        "duration": 0.25,
        "velocity": 0.54,
        "hand": "left"
      },
      {
        "midi": 51,
        "time": 348.75,
        "duration": 0.25,
        "velocity": 0.71,
        "hand": "left"
      },
      {
        "midi": 55,
        "time": 348.75,
        "duration": 0.25,
        "velocity": 0.71,
        "hand": "left"
      },
      {
        "midi": 46,
        "time": 349,
        "duration": 4.5,
        "velocity": 0.54,
        "hand": "left"
      },
      {
        "midi": 51,
        "time": 349,
        "duration": 0.25,
        "velocity": 0.71,
        "hand": "left"
      },
      {
        "midi": 55,
        "time": 349,
        "duration": 0.25,
        "velocity": 0.71,
        "hand": "left"
      },
      {
        "midi": 51,
        "time": 349.25,
        "duration": 0.25,
        "velocity": 0.71,
        "hand": "left"
      },
      {
        "midi": 55,
        "time": 349.25,
        "duration": 0.25,
        "velocity": 0.71,
        "hand": "left"
      },
      {
        "midi": 51,
        "time": 349.5,
        "duration": 0.25,
        "velocity": 0.71,
        "hand": "left"
      },
      {
        "midi": 55,
        "time": 349.5,
        "duration": 0.25,
        "velocity": 0.71,
        "hand": "left"
      },
      {
        "midi": 51,
        "time": 349.75,
        "duration": 0.25,
        "velocity": 0.71,
        "hand": "left"
      },
      {
        "midi": 55,
        "time": 349.75,
        "duration": 0.25,
        "velocity": 0.71,
        "hand": "left"
      },
      {
        "midi": 51,
        "time": 350,
        "duration": 0.25,
        "velocity": 0.71,
        "hand": "left"
      },
      {
        "midi": 55,
        "time": 350,
        "duration": 0.25,
        "velocity": 0.71,
        "hand": "left"
      },
      {
        "midi": 51,
        "time": 350.25,
        "duration": 3.25,
        "velocity": 0.71,
        "hand": "left"
      },
      {
        "midi": 55,
        "time": 350.25,
        "duration": 3.25,
        "velocity": 0.71,
        "hand": "left"
      },
      {
        "midi": 33,
        "time": 353.75,
        "duration": 0.25,
        "velocity": 0.71,
        "hand": "left"
      },
      {
        "midi": 34,
        "time": 353.75,
        "duration": 0.25,
        "velocity": 0.71,
        "hand": "left"
      },
      {
        "midi": 38,
        "time": 354,
        "duration": 0.25,
        "velocity": 0.71,
        "hand": "left"
      },
      {
        "midi": 39,
        "time": 354.25,
        "duration": 0.25,
        "velocity": 0.71,
        "hand": "left"
      },
      {
        "midi": 42,
        "time": 354.25,
        "duration": 0.25,
        "velocity": 0.71,
        "hand": "left"
      },
      {
        "midi": 43,
        "time": 354.5,
        "duration": 0.25,
        "velocity": 0.71,
        "hand": "left"
      },
      {
        "midi": 45,
        "time": 354.75,
        "duration": 0.25,
        "velocity": 0.71,
        "hand": "left"
      },
      {
        "midi": 46,
        "time": 354.75,
        "duration": 0.25,
        "velocity": 0.71,
        "hand": "left"
      },
      {
        "midi": 50,
        "time": 355,
        "duration": 0.25,
        "velocity": 0.71,
        "hand": "left"
      },
      {
        "midi": 51,
        "time": 355.25,
        "duration": 0.25,
        "velocity": 0.71,
        "hand": "left"
      },
      {
        "midi": 54,
        "time": 355.25,
        "duration": 0.25,
        "velocity": 0.71,
        "hand": "left"
      },
      {
        "midi": 55,
        "time": 355.5,
        "duration": 0.25,
        "velocity": 0.71,
        "hand": "left"
      },
      {
        "midi": 57,
        "time": 355.75,
        "duration": 0.25,
        "velocity": 0.71,
        "hand": "left"
      },
      {
        "midi": 58,
        "time": 355.75,
        "duration": 0.25,
        "velocity": 0.71,
        "hand": "left"
      },
      {
        "midi": 55,
        "time": 356,
        "duration": 0.25,
        "velocity": 0.71,
        "hand": "left"
      },
      {
        "midi": 57,
        "time": 356,
        "duration": 0.25,
        "velocity": 0.71,
        "hand": "left"
      },
      {
        "midi": 58,
        "time": 356.25,
        "duration": 0.25,
        "velocity": 0.71,
        "hand": "left"
      },
      {
        "midi": 62,
        "time": 356.25,
        "duration": 0.25,
        "velocity": 0.71,
        "hand": "right"
      },
      {
        "midi": 63,
        "time": 356.25,
        "duration": 0.25,
        "velocity": 0.71,
        "hand": "right"
      },
      {
        "midi": 66,
        "time": 356.5,
        "duration": 0.25,
        "velocity": 0.71,
        "hand": "right"
      },
      {
        "midi": 67,
        "time": 356.5,
        "duration": 0.25,
        "velocity": 0.71,
        "hand": "right"
      },
      {
        "midi": 69,
        "time": 356.5,
        "duration": 0.25,
        "velocity": 0.71,
        "hand": "right"
      },
      {
        "midi": 70,
        "time": 356.75,
        "duration": 0.25,
        "velocity": 0.71,
        "hand": "right"
      },
      {
        "midi": 74,
        "time": 356.75,
        "duration": 0.25,
        "velocity": 0.72,
        "hand": "right"
      },
      {
        "midi": 75,
        "time": 356.75,
        "duration": 0.25,
        "velocity": 0.72,
        "hand": "right"
      },
      {
        "midi": 78,
        "time": 357,
        "duration": 0.25,
        "velocity": 0.72,
        "hand": "right"
      },
      {
        "midi": 79,
        "time": 357,
        "duration": 0.25,
        "velocity": 0.72,
        "hand": "right"
      },
      {
        "midi": 81,
        "time": 357,
        "duration": 0.25,
        "velocity": 0.72,
        "hand": "right"
      },
      {
        "midi": 82,
        "time": 357.25,
        "duration": 0.25,
        "velocity": 0.72,
        "hand": "right"
      },
      {
        "midi": 86,
        "time": 357.25,
        "duration": 0.25,
        "velocity": 0.72,
        "hand": "right"
      },
      {
        "midi": 87,
        "time": 357.25,
        "duration": 0.25,
        "velocity": 0.72,
        "hand": "right"
      },
      {
        "midi": 90,
        "time": 357.5,
        "duration": 0.25,
        "velocity": 0.73,
        "hand": "right"
      },
      {
        "midi": 91,
        "time": 357.5,
        "duration": 0.25,
        "velocity": 0.73,
        "hand": "right"
      },
      {
        "midi": 93,
        "time": 357.5,
        "duration": 0.25,
        "velocity": 0.73,
        "hand": "right"
      },
      {
        "midi": 94,
        "time": 357.75,
        "duration": 0.25,
        "velocity": 0.74,
        "hand": "right"
      },
      {
        "midi": 98,
        "time": 357.75,
        "duration": 0.25,
        "velocity": 0.74,
        "hand": "right"
      },
      {
        "midi": 99,
        "time": 357.75,
        "duration": 0.25,
        "velocity": 0.74,
        "hand": "right"
      },
      {
        "midi": 95,
        "time": 358,
        "duration": 0.25,
        "velocity": 0.75,
        "hand": "right"
      },
      {
        "midi": 102,
        "time": 358,
        "duration": 0.25,
        "velocity": 0.74,
        "hand": "right"
      },
      {
        "midi": 103,
        "time": 358,
        "duration": 0.25,
        "velocity": 0.75,
        "hand": "right"
      },
      {
        "midi": 96,
        "time": 358.25,
        "duration": 0.25,
        "velocity": 0.75,
        "hand": "right"
      },
      {
        "midi": 98,
        "time": 358.25,
        "duration": 0.25,
        "velocity": 0.75,
        "hand": "right"
      },
      {
        "midi": 101,
        "time": 358.25,
        "duration": 0.25,
        "velocity": 0.75,
        "hand": "right"
      },
      {
        "midi": 95,
        "time": 358.5,
        "duration": 0.25,
        "velocity": 0.75,
        "hand": "right"
      },
      {
        "midi": 99,
        "time": 358.5,
        "duration": 0.25,
        "velocity": 0.75,
        "hand": "right"
      },
      {
        "midi": 103,
        "time": 358.5,
        "duration": 0.25,
        "velocity": 0.75,
        "hand": "right"
      },
      {
        "midi": 96,
        "time": 358.75,
        "duration": 0.25,
        "velocity": 0.75,
        "hand": "right"
      },
      {
        "midi": 98,
        "time": 358.75,
        "duration": 0.25,
        "velocity": 0.75,
        "hand": "right"
      },
      {
        "midi": 101,
        "time": 358.75,
        "duration": 0.25,
        "velocity": 0.75,
        "hand": "right"
      },
      {
        "midi": 95,
        "time": 359,
        "duration": 0.25,
        "velocity": 0.75,
        "hand": "right"
      },
      {
        "midi": 99,
        "time": 359,
        "duration": 0.25,
        "velocity": 0.75,
        "hand": "right"
      },
      {
        "midi": 103,
        "time": 359,
        "duration": 0.25,
        "velocity": 0.75,
        "hand": "right"
      },
      {
        "midi": 96,
        "time": 359.25,
        "duration": 0.25,
        "velocity": 0.75,
        "hand": "right"
      },
      {
        "midi": 98,
        "time": 359.25,
        "duration": 0.25,
        "velocity": 0.75,
        "hand": "right"
      },
      {
        "midi": 101,
        "time": 359.25,
        "duration": 0.25,
        "velocity": 0.75,
        "hand": "right"
      },
      {
        "midi": 95,
        "time": 359.5,
        "duration": 0.25,
        "velocity": 0.75,
        "hand": "right"
      },
      {
        "midi": 99,
        "time": 359.5,
        "duration": 0.25,
        "velocity": 0.75,
        "hand": "right"
      },
      {
        "midi": 103,
        "time": 359.5,
        "duration": 0.25,
        "velocity": 0.75,
        "hand": "right"
      },
      {
        "midi": 96,
        "time": 359.75,
        "duration": 0.25,
        "velocity": 0.75,
        "hand": "right"
      },
      {
        "midi": 98,
        "time": 359.75,
        "duration": 0.25,
        "velocity": 0.75,
        "hand": "right"
      },
      {
        "midi": 101,
        "time": 359.75,
        "duration": 0.25,
        "velocity": 0.75,
        "hand": "right"
      },
      {
        "midi": 99,
        "time": 360,
        "duration": 0.25,
        "velocity": 0.75,
        "hand": "right"
      },
      {
        "midi": 103,
        "time": 360,
        "duration": 1.75,
        "velocity": 0.75,
        "hand": "right"
      },
      {
        "midi": 98,
        "time": 361.75,
        "duration": 0.25,
        "velocity": 0.49,
        "hand": "right"
      },
      {
        "midi": 101,
        "time": 361.75,
        "duration": 0.25,
        "velocity": 0.49,
        "hand": "right"
      },
      {
        "midi": 93,
        "time": 362,
        "duration": 0.25,
        "velocity": 0.49,
        "hand": "right"
      },
      {
        "midi": 96,
        "time": 362,
        "duration": 0.25,
        "velocity": 0.49,
        "hand": "right"
      },
      {
        "midi": 99,
        "time": 362,
        "duration": 0.25,
        "velocity": 0.49,
        "hand": "right"
      },
      {
        "midi": 90,
        "time": 362.25,
        "duration": 0.25,
        "velocity": 0.49,
        "hand": "right"
      },
      {
        "midi": 92,
        "time": 362.25,
        "duration": 0.25,
        "velocity": 0.49,
        "hand": "right"
      },
      {
        "midi": 94,
        "time": 362.25,
        "duration": 0.25,
        "velocity": 0.49,
        "hand": "right"
      },
      {
        "midi": 86,
        "time": 362.5,
        "duration": 0.25,
        "velocity": 0.49,
        "hand": "right"
      },
      {
        "midi": 89,
        "time": 362.5,
        "duration": 0.25,
        "velocity": 0.49,
        "hand": "right"
      },
      {
        "midi": 91,
        "time": 362.5,
        "duration": 0.25,
        "velocity": 0.49,
        "hand": "right"
      },
      {
        "midi": 81,
        "time": 362.75,
        "duration": 0.25,
        "velocity": 0.49,
        "hand": "right"
      },
      {
        "midi": 84,
        "time": 362.75,
        "duration": 0.25,
        "velocity": 0.49,
        "hand": "right"
      },
      {
        "midi": 87,
        "time": 362.75,
        "duration": 0.25,
        "velocity": 0.49,
        "hand": "right"
      },
      {
        "midi": 78,
        "time": 363,
        "duration": 0.25,
        "velocity": 0.49,
        "hand": "right"
      },
      {
        "midi": 80,
        "time": 363,
        "duration": 0.25,
        "velocity": 0.49,
        "hand": "right"
      },
      {
        "midi": 82,
        "time": 363,
        "duration": 0.25,
        "velocity": 0.49,
        "hand": "right"
      },
      {
        "midi": 74,
        "time": 363.25,
        "duration": 0.25,
        "velocity": 0.49,
        "hand": "right"
      },
      {
        "midi": 77,
        "time": 363.25,
        "duration": 0.25,
        "velocity": 0.49,
        "hand": "right"
      },
      {
        "midi": 79,
        "time": 363.25,
        "duration": 0.25,
        "velocity": 0.49,
        "hand": "right"
      },
      {
        "midi": 69,
        "time": 363.5,
        "duration": 0.25,
        "velocity": 0.49,
        "hand": "right"
      },
      {
        "midi": 72,
        "time": 363.5,
        "duration": 0.25,
        "velocity": 0.49,
        "hand": "right"
      },
      {
        "midi": 75,
        "time": 363.5,
        "duration": 0.25,
        "velocity": 0.49,
        "hand": "right"
      },
      {
        "midi": 66,
        "time": 363.75,
        "duration": 0.25,
        "velocity": 0.49,
        "hand": "right"
      },
      {
        "midi": 68,
        "time": 363.75,
        "duration": 0.25,
        "velocity": 0.49,
        "hand": "right"
      },
      {
        "midi": 70,
        "time": 363.75,
        "duration": 0.25,
        "velocity": 0.49,
        "hand": "right"
      },
      {
        "midi": 62,
        "time": 364,
        "duration": 0.25,
        "velocity": 0.49,
        "hand": "right"
      },
      {
        "midi": 65,
        "time": 364,
        "duration": 0.25,
        "velocity": 0.49,
        "hand": "right"
      },
      {
        "midi": 67,
        "time": 364,
        "duration": 0.25,
        "velocity": 0.49,
        "hand": "right"
      },
      {
        "midi": 57,
        "time": 364.25,
        "duration": 0.25,
        "velocity": 0.49,
        "hand": "left"
      },
      {
        "midi": 60,
        "time": 364.25,
        "duration": 0.25,
        "velocity": 0.49,
        "hand": "right"
      },
      {
        "midi": 63,
        "time": 364.25,
        "duration": 0.25,
        "velocity": 0.49,
        "hand": "right"
      },
      {
        "midi": 58,
        "time": 364.5,
        "duration": 0.25,
        "velocity": 0.49,
        "hand": "left"
      },
      {
        "midi": 62,
        "time": 364.5,
        "duration": 0.25,
        "velocity": 0.49,
        "hand": "right"
      },
      {
        "midi": 65,
        "time": 364.5,
        "duration": 0.25,
        "velocity": 0.49,
        "hand": "right"
      },
      {
        "midi": 57,
        "time": 364.75,
        "duration": 0.25,
        "velocity": 0.49,
        "hand": "left"
      },
      {
        "midi": 60,
        "time": 364.75,
        "duration": 0.25,
        "velocity": 0.49,
        "hand": "right"
      },
      {
        "midi": 63,
        "time": 364.75,
        "duration": 0.25,
        "velocity": 0.49,
        "hand": "right"
      },
      {
        "midi": 58,
        "time": 365,
        "duration": 0.25,
        "velocity": 0.49,
        "hand": "left"
      },
      {
        "midi": 62,
        "time": 365,
        "duration": 0.25,
        "velocity": 0.49,
        "hand": "right"
      },
      {
        "midi": 65,
        "time": 365,
        "duration": 0.25,
        "velocity": 0.49,
        "hand": "right"
      },
      {
        "midi": 57,
        "time": 365.25,
        "duration": 0.25,
        "velocity": 0.49,
        "hand": "left"
      },
      {
        "midi": 60,
        "time": 365.25,
        "duration": 0.25,
        "velocity": 0.49,
        "hand": "right"
      },
      {
        "midi": 63,
        "time": 365.25,
        "duration": 0.25,
        "velocity": 0.49,
        "hand": "right"
      },
      {
        "midi": 58,
        "time": 365.5,
        "duration": 0.25,
        "velocity": 0.49,
        "hand": "left"
      },
      {
        "midi": 62,
        "time": 365.5,
        "duration": 0.25,
        "velocity": 0.49,
        "hand": "right"
      },
      {
        "midi": 65,
        "time": 365.5,
        "duration": 0.25,
        "velocity": 0.49,
        "hand": "right"
      },
      {
        "midi": 57,
        "time": 365.75,
        "duration": 0.25,
        "velocity": 0.49,
        "hand": "left"
      },
      {
        "midi": 60,
        "time": 365.75,
        "duration": 0.25,
        "velocity": 0.49,
        "hand": "right"
      },
      {
        "midi": 63,
        "time": 365.75,
        "duration": 0.25,
        "velocity": 0.49,
        "hand": "right"
      },
      {
        "midi": 58,
        "time": 366,
        "duration": 0.25,
        "velocity": 0.49,
        "hand": "left"
      },
      {
        "midi": 62,
        "time": 366,
        "duration": 0.25,
        "velocity": 0.49,
        "hand": "right"
      },
      {
        "midi": 63,
        "time": 366.25,
        "duration": 0.25,
        "velocity": 0.55,
        "hand": "right"
      },
      {
        "midi": 66,
        "time": 366.25,
        "duration": 0.25,
        "velocity": 0.57,
        "hand": "right"
      },
      {
        "midi": 67,
        "time": 366.5,
        "duration": 0.25,
        "velocity": 0.59,
        "hand": "right"
      },
      {
        "midi": 69,
        "time": 366.5,
        "duration": 0.25,
        "velocity": 0.61,
        "hand": "right"
      },
      {
        "midi": 70,
        "time": 366.5,
        "duration": 0.25,
        "velocity": 0.64,
        "hand": "right"
      },
      {
        "midi": 74,
        "time": 366.75,
        "duration": 0.25,
        "velocity": 0.66,
        "hand": "right"
      },
      {
        "midi": 75,
        "time": 366.75,
        "duration": 0.25,
        "velocity": 0.68,
        "hand": "right"
      },
      {
        "midi": 78,
        "time": 366.75,
        "duration": 0.25,
        "velocity": 0.7,
        "hand": "right"
      },
      {
        "midi": 79,
        "time": 367,
        "duration": 0.25,
        "velocity": 0.72,
        "hand": "right"
      },
      {
        "midi": 82,
        "time": 367,
        "duration": 1,
        "velocity": 0.75,
        "hand": "right"
      },
      {
        "midi": 79,
        "time": 368,
        "duration": 0.25,
        "velocity": 0.75,
        "hand": "right"
      },
      {
        "midi": 72,
        "time": 368.25,
        "duration": 0.25,
        "velocity": 0.75,
        "hand": "right"
      },
      {
        "midi": 75,
        "time": 368.25,
        "duration": 0.25,
        "velocity": 0.75,
        "hand": "right"
      },
      {
        "midi": 67,
        "time": 368.5,
        "duration": 0.25,
        "velocity": 0.75,
        "hand": "right"
      },
      {
        "midi": 70,
        "time": 368.5,
        "duration": 0.25,
        "velocity": 0.75,
        "hand": "right"
      },
      {
        "midi": 60,
        "time": 368.75,
        "duration": 0.25,
        "velocity": 0.75,
        "hand": "right"
      },
      {
        "midi": 63,
        "time": 368.75,
        "duration": 0.25,
        "velocity": 0.75,
        "hand": "right"
      },
      {
        "midi": 51,
        "time": 369,
        "duration": 0.25,
        "velocity": 0.75,
        "hand": "left"
      },
      {
        "midi": 55,
        "time": 369,
        "duration": 0.25,
        "velocity": 0.75,
        "hand": "left"
      },
      {
        "midi": 58,
        "time": 369,
        "duration": 0.25,
        "velocity": 0.75,
        "hand": "left"
      },
      {
        "midi": 46,
        "time": 369.25,
        "duration": 0.25,
        "velocity": 0.75,
        "hand": "left"
      },
      {
        "midi": 48,
        "time": 369.25,
        "duration": 0.25,
        "velocity": 0.75,
        "hand": "left"
      },
      {
        "midi": 39,
        "time": 369.5,
        "duration": 0.25,
        "velocity": 0.75,
        "hand": "left"
      },
      {
        "midi": 43,
        "time": 369.5,
        "duration": 0.25,
        "velocity": 0.75,
        "hand": "left"
      },
      {
        "midi": 34,
        "time": 369.75,
        "duration": 0.25,
        "velocity": 0.75,
        "hand": "left"
      },
      {
        "midi": 36,
        "time": 369.75,
        "duration": 0.25,
        "velocity": 0.75,
        "hand": "left"
      },
      {
        "midi": 27,
        "time": 370,
        "duration": 2,
        "velocity": 0.54,
        "hand": "left"
      },
      {
        "midi": 31,
        "time": 370,
        "duration": 0.25,
        "velocity": 0.75,
        "hand": "left"
      },
      {
        "midi": 31,
        "time": 372,
        "duration": 0.25,
        "velocity": 0.54,
        "hand": "left"
      },
      {
        "midi": 39,
        "time": 372,
        "duration": 0.25,
        "velocity": 0.71,
        "hand": "left"
      },
      {
        "midi": 34,
        "time": 372.25,
        "duration": 0.25,
        "velocity": 0.54,
        "hand": "left"
      },
      {
        "midi": 43,
        "time": 372.25,
        "duration": 0.25,
        "velocity": 0.71,
        "hand": "left"
      },
      {
        "midi": 39,
        "time": 372.75,
        "duration": 0.25,
        "velocity": 0.54,
        "hand": "left"
      },
      {
        "midi": 46,
        "time": 372.75,
        "duration": 0.25,
        "velocity": 0.71,
        "hand": "left"
      },
      {
        "midi": 43,
        "time": 373,
        "duration": 0.25,
        "velocity": 0.54,
        "hand": "left"
      },
      {
        "midi": 51,
        "time": 373,
        "duration": 0.25,
        "velocity": 0.71,
        "hand": "left"
      },
      {
        "midi": 46,
        "time": 373.25,
        "duration": 0.25,
        "velocity": 0.54,
        "hand": "left"
      },
      {
        "midi": 55,
        "time": 373.25,
        "duration": 0.25,
        "velocity": 0.71,
        "hand": "left"
      },
      {
        "midi": 58,
        "time": 373.25,
        "duration": 0.25,
        "velocity": 0.71,
        "hand": "left"
      },
      {
        "midi": 55,
        "time": 373.5,
        "duration": 0.25,
        "velocity": 0.54,
        "hand": "left"
      },
      {
        "midi": 63,
        "time": 373.5,
        "duration": 0.25,
        "velocity": 0.71,
        "hand": "right"
      },
      {
        "midi": 67,
        "time": 373.5,
        "duration": 0.25,
        "velocity": 0.75,
        "hand": "right"
      },
      {
        "midi": 63,
        "time": 373.75,
        "duration": 0.25,
        "velocity": 0.71,
        "hand": "right"
      },
      {
        "midi": 70,
        "time": 373.75,
        "duration": 0.25,
        "velocity": 0.75,
        "hand": "right"
      },
      {
        "midi": 67,
        "time": 374,
        "duration": 0.25,
        "velocity": 0.71,
        "hand": "right"
      },
      {
        "midi": 75,
        "time": 374,
        "duration": 0.25,
        "velocity": 0.75,
        "hand": "right"
      },
      {
        "midi": 79,
        "time": 374,
        "duration": 0.25,
        "velocity": 0.75,
        "hand": "right"
      },
      {
        "midi": 75,
        "time": 374.25,
        "duration": 0.25,
        "velocity": 0.71,
        "hand": "right"
      },
      {
        "midi": 82,
        "time": 374.25,
        "duration": 0.25,
        "velocity": 0.75,
        "hand": "right"
      },
      {
        "midi": 79,
        "time": 374.5,
        "duration": 0.25,
        "velocity": 0.71,
        "hand": "right"
      },
      {
        "midi": 87,
        "time": 374.5,
        "duration": 0.25,
        "velocity": 0.75,
        "hand": "right"
      },
      {
        "midi": 91,
        "time": 374.5,
        "duration": 0.25,
        "velocity": 0.75,
        "hand": "right"
      },
      {
        "midi": 87,
        "time": 374.75,
        "duration": 0.25,
        "velocity": 0.71,
        "hand": "right"
      },
      {
        "midi": 94,
        "time": 374.75,
        "duration": 0.25,
        "velocity": 0.75,
        "hand": "right"
      },
      {
        "midi": 99,
        "time": 374.75,
        "duration": 0.25,
        "velocity": 0.75,
        "hand": "right"
      },
      {
        "midi": 94,
        "time": 375,
        "duration": 0.5,
        "velocity": 0.71,
        "hand": "right"
      },
      {
        "midi": 103,
        "time": 375,
        "duration": 0.5,
        "velocity": 0.75,
        "hand": "right"
      },
      {
        "midi": 31,
        "time": 376,
        "duration": 0.25,
        "velocity": 0.54,
        "hand": "left"
      },
      {
        "midi": 43,
        "time": 376,
        "duration": 0.25,
        "velocity": 0.75,
        "hand": "left"
      },
      {
        "midi": 55,
        "time": 376,
        "duration": 0.25,
        "velocity": 0.75,
        "hand": "left"
      },
      {
        "midi": 34,
        "time": 376.25,
        "duration": 0.25,
        "velocity": 0.54,
        "hand": "left"
      },
      {
        "midi": 46,
        "time": 376.25,
        "duration": 0.25,
        "velocity": 0.75,
        "hand": "left"
      },
      {
        "midi": 58,
        "time": 376.25,
        "duration": 0.25,
        "velocity": 0.75,
        "hand": "left"
      },
      {
        "midi": 36,
        "time": 376.5,
        "duration": 0.25,
        "velocity": 0.71,
        "hand": "left"
      },
      {
        "midi": 48,
        "time": 376.5,
        "duration": 0.25,
        "velocity": 0.71,
        "hand": "left"
      },
      {
        "midi": 60,
        "time": 376.5,
        "duration": 0.25,
        "velocity": 0.71,
        "hand": "right"
      },
      {
        "midi": 32,
        "time": 376.75,
        "duration": 0.25,
        "velocity": 0.71,
        "hand": "left"
      },
      {
        "midi": 44,
        "time": 376.75,
        "duration": 0.25,
        "velocity": 0.71,
        "hand": "left"
      },
      {
        "midi": 56,
        "time": 376.75,
        "duration": 0.25,
        "velocity": 0.71,
        "hand": "left"
      },
      {
        "midi": 34,
        "time": 377,
        "duration": 0.25,
        "velocity": 0.71,
        "hand": "left"
      },
      {
        "midi": 46,
        "time": 377,
        "duration": 0.25,
        "velocity": 0.71,
        "hand": "left"
      },
      {
        "midi": 58,
        "time": 377,
        "duration": 0.25,
        "velocity": 0.71,
        "hand": "left"
      },
      {
        "midi": 38,
        "time": 377.25,
        "duration": 0.25,
        "velocity": 0.71,
        "hand": "left"
      },
      {
        "midi": 50,
        "time": 377.25,
        "duration": 0.25,
        "velocity": 0.71,
        "hand": "left"
      },
      {
        "midi": 62,
        "time": 377.25,
        "duration": 0.25,
        "velocity": 0.71,
        "hand": "right"
      },
      {
        "midi": 39,
        "time": 377.5,
        "duration": 0.25,
        "velocity": 0.71,
        "hand": "left"
      },
      {
        "midi": 51,
        "time": 377.5,
        "duration": 0.25,
        "velocity": 0.71,
        "hand": "left"
      },
      {
        "midi": 63,
        "time": 377.5,
        "duration": 0.25,
        "velocity": 0.71,
        "hand": "right"
      },
      {
        "midi": 36,
        "time": 377.75,
        "duration": 0.25,
        "velocity": 0.71,
        "hand": "left"
      },
      {
        "midi": 48,
        "time": 377.75,
        "duration": 0.25,
        "velocity": 0.71,
        "hand": "left"
      },
      {
        "midi": 60,
        "time": 377.75,
        "duration": 0.25,
        "velocity": 0.71,
        "hand": "right"
      },
      {
        "midi": 40,
        "time": 378,
        "duration": 0.25,
        "velocity": 0.71,
        "hand": "left"
      },
      {
        "midi": 52,
        "time": 378,
        "duration": 0.25,
        "velocity": 0.71,
        "hand": "left"
      },
      {
        "midi": 64,
        "time": 378,
        "duration": 0.25,
        "velocity": 0.71,
        "hand": "right"
      },
      {
        "midi": 37,
        "time": 378.25,
        "duration": 0.25,
        "velocity": 0.71,
        "hand": "left"
      },
      {
        "midi": 49,
        "time": 378.25,
        "duration": 0.25,
        "velocity": 0.71,
        "hand": "left"
      },
      {
        "midi": 61,
        "time": 378.25,
        "duration": 0.25,
        "velocity": 0.71,
        "hand": "right"
      },
      {
        "midi": 41,
        "time": 378.5,
        "duration": 0.25,
        "velocity": 0.71,
        "hand": "left"
      },
      {
        "midi": 53,
        "time": 378.5,
        "duration": 0.25,
        "velocity": 0.71,
        "hand": "left"
      },
      {
        "midi": 65,
        "time": 378.5,
        "duration": 0.25,
        "velocity": 0.71,
        "hand": "right"
      },
      {
        "midi": 38,
        "time": 378.75,
        "duration": 0.25,
        "velocity": 0.71,
        "hand": "left"
      },
      {
        "midi": 50,
        "time": 378.75,
        "duration": 0.25,
        "velocity": 0.71,
        "hand": "left"
      },
      {
        "midi": 62,
        "time": 378.75,
        "duration": 0.25,
        "velocity": 0.71,
        "hand": "right"
      },
      {
        "midi": 43,
        "time": 379,
        "duration": 0.25,
        "velocity": 0.71,
        "hand": "left"
      },
      {
        "midi": 55,
        "time": 379,
        "duration": 0.25,
        "velocity": 0.71,
        "hand": "left"
      },
      {
        "midi": 67,
        "time": 379,
        "duration": 0.25,
        "velocity": 0.71,
        "hand": "right"
      },
      {
        "midi": 39,
        "time": 379.25,
        "duration": 0.25,
        "velocity": 0.71,
        "hand": "left"
      },
      {
        "midi": 52,
        "time": 379.25,
        "duration": 0.25,
        "velocity": 0.71,
        "hand": "left"
      },
      {
        "midi": 64,
        "time": 379.25,
        "duration": 0.25,
        "velocity": 0.71,
        "hand": "right"
      },
      {
        "midi": 44,
        "time": 379.5,
        "duration": 0.25,
        "velocity": 0.71,
        "hand": "left"
      },
      {
        "midi": 56,
        "time": 379.5,
        "duration": 0.25,
        "velocity": 0.71,
        "hand": "left"
      },
      {
        "midi": 68,
        "time": 379.5,
        "duration": 0.25,
        "velocity": 0.71,
        "hand": "right"
      },
      {
        "midi": 41,
        "time": 379.75,
        "duration": 0.25,
        "velocity": 0.71,
        "hand": "left"
      },
      {
        "midi": 53,
        "time": 379.75,
        "duration": 0.25,
        "velocity": 0.71,
        "hand": "left"
      },
      {
        "midi": 65,
        "time": 379.75,
        "duration": 0.25,
        "velocity": 0.71,
        "hand": "right"
      },
      {
        "midi": 43,
        "time": 380,
        "duration": 0.25,
        "velocity": 0.71,
        "hand": "left"
      },
      {
        "midi": 55,
        "time": 380,
        "duration": 0.25,
        "velocity": 0.71,
        "hand": "left"
      },
      {
        "midi": 67,
        "time": 380,
        "duration": 0.25,
        "velocity": 0.71,
        "hand": "right"
      },
      {
        "midi": 46,
        "time": 380.25,
        "duration": 0.25,
        "velocity": 0.71,
        "hand": "left"
      },
      {
        "midi": 58,
        "time": 380.25,
        "duration": 0.25,
        "velocity": 0.71,
        "hand": "left"
      },
      {
        "midi": 70,
        "time": 380.25,
        "duration": 0.25,
        "velocity": 0.71,
        "hand": "right"
      },
      {
        "midi": 48,
        "time": 380.5,
        "duration": 0.25,
        "velocity": 0.71,
        "hand": "left"
      },
      {
        "midi": 60,
        "time": 380.5,
        "duration": 0.25,
        "velocity": 0.71,
        "hand": "right"
      },
      {
        "midi": 72,
        "time": 380.5,
        "duration": 0.25,
        "velocity": 0.71,
        "hand": "right"
      },
      {
        "midi": 44,
        "time": 380.75,
        "duration": 0.25,
        "velocity": 0.71,
        "hand": "left"
      },
      {
        "midi": 56,
        "time": 380.75,
        "duration": 0.25,
        "velocity": 0.71,
        "hand": "left"
      },
      {
        "midi": 68,
        "time": 380.75,
        "duration": 0.25,
        "velocity": 0.71,
        "hand": "right"
      },
      {
        "midi": 46,
        "time": 381,
        "duration": 0.25,
        "velocity": 0.71,
        "hand": "left"
      },
      {
        "midi": 58,
        "time": 381,
        "duration": 0.25,
        "velocity": 0.71,
        "hand": "left"
      },
      {
        "midi": 70,
        "time": 381,
        "duration": 0.25,
        "velocity": 0.71,
        "hand": "right"
      },
      {
        "midi": 50,
        "time": 381.25,
        "duration": 0.25,
        "velocity": 0.71,
        "hand": "left"
      },
      {
        "midi": 62,
        "time": 381.25,
        "duration": 0.25,
        "velocity": 0.71,
        "hand": "right"
      },
      {
        "midi": 74,
        "time": 381.25,
        "duration": 0.25,
        "velocity": 0.71,
        "hand": "right"
      },
      {
        "midi": 51,
        "time": 381.5,
        "duration": 0.25,
        "velocity": 0.71,
        "hand": "left"
      },
      {
        "midi": 63,
        "time": 381.5,
        "duration": 0.25,
        "velocity": 0.71,
        "hand": "right"
      },
      {
        "midi": 75,
        "time": 381.5,
        "duration": 0.25,
        "velocity": 0.71,
        "hand": "right"
      },
      {
        "midi": 48,
        "time": 381.75,
        "duration": 0.25,
        "velocity": 0.71,
        "hand": "left"
      },
      {
        "midi": 60,
        "time": 381.75,
        "duration": 0.25,
        "velocity": 0.71,
        "hand": "right"
      },
      {
        "midi": 72,
        "time": 381.75,
        "duration": 0.25,
        "velocity": 0.71,
        "hand": "right"
      },
      {
        "midi": 52,
        "time": 382,
        "duration": 0.25,
        "velocity": 0.71,
        "hand": "left"
      },
      {
        "midi": 64,
        "time": 382,
        "duration": 0.25,
        "velocity": 0.71,
        "hand": "right"
      },
      {
        "midi": 76,
        "time": 382,
        "duration": 0.25,
        "velocity": 0.71,
        "hand": "right"
      },
      {
        "midi": 49,
        "time": 382.25,
        "duration": 0.25,
        "velocity": 0.71,
        "hand": "left"
      },
      {
        "midi": 61,
        "time": 382.25,
        "duration": 0.25,
        "velocity": 0.71,
        "hand": "right"
      },
      {
        "midi": 73,
        "time": 382.25,
        "duration": 0.25,
        "velocity": 0.71,
        "hand": "right"
      },
      {
        "midi": 53,
        "time": 382.5,
        "duration": 0.25,
        "velocity": 0.71,
        "hand": "left"
      },
      {
        "midi": 65,
        "time": 382.5,
        "duration": 0.25,
        "velocity": 0.71,
        "hand": "right"
      },
      {
        "midi": 77,
        "time": 382.5,
        "duration": 0.25,
        "velocity": 0.71,
        "hand": "right"
      },
      {
        "midi": 50,
        "time": 382.75,
        "duration": 0.25,
        "velocity": 0.71,
        "hand": "left"
      },
      {
        "midi": 62,
        "time": 382.75,
        "duration": 0.25,
        "velocity": 0.71,
        "hand": "right"
      },
      {
        "midi": 74,
        "time": 382.75,
        "duration": 0.25,
        "velocity": 0.71,
        "hand": "right"
      },
      {
        "midi": 55,
        "time": 383,
        "duration": 0.25,
        "velocity": 0.71,
        "hand": "left"
      },
      {
        "midi": 67,
        "time": 383,
        "duration": 0.25,
        "velocity": 0.71,
        "hand": "right"
      },
      {
        "midi": 79,
        "time": 383,
        "duration": 0.25,
        "velocity": 0.71,
        "hand": "right"
      },
      {
        "midi": 51,
        "time": 383.25,
        "duration": 0.25,
        "velocity": 0.71,
        "hand": "left"
      },
      {
        "midi": 64,
        "time": 383.25,
        "duration": 0.25,
        "velocity": 0.71,
        "hand": "right"
      },
      {
        "midi": 76,
        "time": 383.25,
        "duration": 0.25,
        "velocity": 0.71,
        "hand": "right"
      },
      {
        "midi": 56,
        "time": 383.5,
        "duration": 0.25,
        "velocity": 0.71,
        "hand": "left"
      },
      {
        "midi": 68,
        "time": 383.5,
        "duration": 0.25,
        "velocity": 0.71,
        "hand": "right"
      },
      {
        "midi": 80,
        "time": 383.5,
        "duration": 0.25,
        "velocity": 0.71,
        "hand": "right"
      },
      {
        "midi": 53,
        "time": 383.75,
        "duration": 0.25,
        "velocity": 0.71,
        "hand": "left"
      },
      {
        "midi": 65,
        "time": 383.75,
        "duration": 0.25,
        "velocity": 0.71,
        "hand": "right"
      },
      {
        "midi": 77,
        "time": 383.75,
        "duration": 0.25,
        "velocity": 0.71,
        "hand": "right"
      },
      {
        "midi": 58,
        "time": 384,
        "duration": 0.25,
        "velocity": 0.71,
        "hand": "left"
      },
      {
        "midi": 70,
        "time": 384,
        "duration": 0.25,
        "velocity": 0.71,
        "hand": "right"
      },
      {
        "midi": 82,
        "time": 384,
        "duration": 0.25,
        "velocity": 0.71,
        "hand": "right"
      },
      {
        "midi": 55,
        "time": 384.25,
        "duration": 0.25,
        "velocity": 0.71,
        "hand": "left"
      },
      {
        "midi": 67,
        "time": 384.25,
        "duration": 0.25,
        "velocity": 0.71,
        "hand": "right"
      },
      {
        "midi": 79,
        "time": 384.25,
        "duration": 0.25,
        "velocity": 0.71,
        "hand": "right"
      },
      {
        "midi": 60,
        "time": 384.5,
        "duration": 0.25,
        "velocity": 0.71,
        "hand": "right"
      },
      {
        "midi": 72,
        "time": 384.5,
        "duration": 0.25,
        "velocity": 0.71,
        "hand": "right"
      },
      {
        "midi": 84,
        "time": 384.5,
        "duration": 0.25,
        "velocity": 0.71,
        "hand": "right"
      },
      {
        "midi": 56,
        "time": 384.75,
        "duration": 0.25,
        "velocity": 0.71,
        "hand": "left"
      },
      {
        "midi": 68,
        "time": 384.75,
        "duration": 0.25,
        "velocity": 0.71,
        "hand": "right"
      },
      {
        "midi": 80,
        "time": 384.75,
        "duration": 0.25,
        "velocity": 0.71,
        "hand": "right"
      },
      {
        "midi": 58,
        "time": 385,
        "duration": 0.25,
        "velocity": 0.71,
        "hand": "left"
      },
      {
        "midi": 70,
        "time": 385,
        "duration": 0.25,
        "velocity": 0.71,
        "hand": "right"
      },
      {
        "midi": 82,
        "time": 385,
        "duration": 0.25,
        "velocity": 0.71,
        "hand": "right"
      },
      {
        "midi": 62,
        "time": 385.25,
        "duration": 0.25,
        "velocity": 0.71,
        "hand": "right"
      },
      {
        "midi": 74,
        "time": 385.25,
        "duration": 0.25,
        "velocity": 0.71,
        "hand": "right"
      },
      {
        "midi": 86,
        "time": 385.25,
        "duration": 0.25,
        "velocity": 0.71,
        "hand": "right"
      },
      {
        "midi": 63,
        "time": 385.5,
        "duration": 0.25,
        "velocity": 0.71,
        "hand": "right"
      },
      {
        "midi": 75,
        "time": 385.5,
        "duration": 0.25,
        "velocity": 0.71,
        "hand": "right"
      },
      {
        "midi": 87,
        "time": 385.5,
        "duration": 0.25,
        "velocity": 0.71,
        "hand": "right"
      },
      {
        "midi": 60,
        "time": 385.75,
        "duration": 0.25,
        "velocity": 0.71,
        "hand": "right"
      },
      {
        "midi": 72,
        "time": 385.75,
        "duration": 0.25,
        "velocity": 0.71,
        "hand": "right"
      },
      {
        "midi": 84,
        "time": 385.75,
        "duration": 0.25,
        "velocity": 0.71,
        "hand": "right"
      },
      {
        "midi": 62,
        "time": 386,
        "duration": 0.25,
        "velocity": 0.71,
        "hand": "right"
      },
      {
        "midi": 74,
        "time": 386,
        "duration": 0.25,
        "velocity": 0.71,
        "hand": "right"
      },
      {
        "midi": 86,
        "time": 386,
        "duration": 0.25,
        "velocity": 0.71,
        "hand": "right"
      },
      {
        "midi": 65,
        "time": 386.25,
        "duration": 0.25,
        "velocity": 0.71,
        "hand": "right"
      },
      {
        "midi": 77,
        "time": 386.25,
        "duration": 0.25,
        "velocity": 0.71,
        "hand": "right"
      },
      {
        "midi": 89,
        "time": 386.25,
        "duration": 0.25,
        "velocity": 0.71,
        "hand": "right"
      },
      {
        "midi": 67,
        "time": 386.5,
        "duration": 0.25,
        "velocity": 0.71,
        "hand": "right"
      },
      {
        "midi": 79,
        "time": 386.5,
        "duration": 0.25,
        "velocity": 0.71,
        "hand": "right"
      },
      {
        "midi": 91,
        "time": 386.5,
        "duration": 0.25,
        "velocity": 0.71,
        "hand": "right"
      },
      {
        "midi": 63,
        "time": 386.75,
        "duration": 0.25,
        "velocity": 0.71,
        "hand": "right"
      },
      {
        "midi": 75,
        "time": 386.75,
        "duration": 0.25,
        "velocity": 0.71,
        "hand": "right"
      },
      {
        "midi": 87,
        "time": 386.75,
        "duration": 0.25,
        "velocity": 0.71,
        "hand": "right"
      },
      {
        "midi": 65,
        "time": 387,
        "duration": 0.25,
        "velocity": 0.71,
        "hand": "right"
      },
      {
        "midi": 77,
        "time": 387,
        "duration": 0.25,
        "velocity": 0.71,
        "hand": "right"
      },
      {
        "midi": 89,
        "time": 387,
        "duration": 0.25,
        "velocity": 0.71,
        "hand": "right"
      },
      {
        "midi": 68,
        "time": 387.25,
        "duration": 0.25,
        "velocity": 0.71,
        "hand": "right"
      },
      {
        "midi": 80,
        "time": 387.25,
        "duration": 0.25,
        "velocity": 0.71,
        "hand": "right"
      },
      {
        "midi": 92,
        "time": 387.25,
        "duration": 0.25,
        "velocity": 0.71,
        "hand": "right"
      },
      {
        "midi": 70,
        "time": 387.5,
        "duration": 0.25,
        "velocity": 0.71,
        "hand": "right"
      },
      {
        "midi": 82,
        "time": 387.5,
        "duration": 0.25,
        "velocity": 0.71,
        "hand": "right"
      },
      {
        "midi": 94,
        "time": 387.5,
        "duration": 0.25,
        "velocity": 0.71,
        "hand": "right"
      },
      {
        "midi": 66,
        "time": 387.75,
        "duration": 0.25,
        "velocity": 0.71,
        "hand": "right"
      },
      {
        "midi": 78,
        "time": 387.75,
        "duration": 0.25,
        "velocity": 0.71,
        "hand": "right"
      },
      {
        "midi": 90,
        "time": 387.75,
        "duration": 0.25,
        "velocity": 0.71,
        "hand": "right"
      },
      {
        "midi": 67,
        "time": 388,
        "duration": 0.25,
        "velocity": 0.71,
        "hand": "right"
      },
      {
        "midi": 79,
        "time": 388,
        "duration": 0.25,
        "velocity": 0.71,
        "hand": "right"
      },
      {
        "midi": 91,
        "time": 388,
        "duration": 0.25,
        "velocity": 0.71,
        "hand": "right"
      },
      {
        "midi": 70,
        "time": 388.25,
        "duration": 0.25,
        "velocity": 0.71,
        "hand": "right"
      },
      {
        "midi": 82,
        "time": 388.25,
        "duration": 0.25,
        "velocity": 0.71,
        "hand": "right"
      },
      {
        "midi": 94,
        "time": 388.25,
        "duration": 0.25,
        "velocity": 0.71,
        "hand": "right"
      },
      {
        "midi": 72,
        "time": 388.5,
        "duration": 0.5,
        "velocity": 0.71,
        "hand": "right"
      },
      {
        "midi": 84,
        "time": 388.5,
        "duration": 0.5,
        "velocity": 0.84,
        "hand": "right"
      },
      {
        "midi": 96,
        "time": 388.5,
        "duration": 0.5,
        "velocity": 0.84,
        "hand": "right"
      },
      {
        "midi": 44,
        "time": 389,
        "duration": 1,
        "velocity": 0.71,
        "hand": "left"
      },
      {
        "midi": 56,
        "time": 389,
        "duration": 1,
        "velocity": 0.71,
        "hand": "left"
      },
      {
        "midi": 72,
        "time": 389,
        "duration": 1,
        "velocity": 0.84,
        "hand": "right"
      },
      {
        "midi": 65,
        "time": 390,
        "duration": 0.25,
        "velocity": 0.71,
        "hand": "right"
      },
      {
        "midi": 77,
        "time": 390,
        "duration": 0.25,
        "velocity": 0.84,
        "hand": "right"
      },
      {
        "midi": 89,
        "time": 390,
        "duration": 0.25,
        "velocity": 0.84,
        "hand": "right"
      },
      {
        "midi": 68,
        "time": 390.25,
        "duration": 0.25,
        "velocity": 0.71,
        "hand": "right"
      },
      {
        "midi": 80,
        "time": 390.25,
        "duration": 0.25,
        "velocity": 0.84,
        "hand": "right"
      },
      {
        "midi": 92,
        "time": 390.25,
        "duration": 0.25,
        "velocity": 0.84,
        "hand": "right"
      },
      {
        "midi": 70,
        "time": 390.5,
        "duration": 0.5,
        "velocity": 0.71,
        "hand": "right"
      },
      {
        "midi": 82,
        "time": 390.5,
        "duration": 0.5,
        "velocity": 0.84,
        "hand": "right"
      },
      {
        "midi": 94,
        "time": 390.5,
        "duration": 0.5,
        "velocity": 0.84,
        "hand": "right"
      },
      {
        "midi": 43,
        "time": 391,
        "duration": 1,
        "velocity": 0.71,
        "hand": "left"
      },
      {
        "midi": 58,
        "time": 391,
        "duration": 1,
        "velocity": 0.84,
        "hand": "left"
      },
      {
        "midi": 70,
        "time": 391,
        "duration": 1,
        "velocity": 0.84,
        "hand": "right"
      },
      {
        "midi": 67,
        "time": 392,
        "duration": 0.25,
        "velocity": 0.71,
        "hand": "right"
      },
      {
        "midi": 79,
        "time": 392,
        "duration": 0.25,
        "velocity": 0.84,
        "hand": "right"
      },
      {
        "midi": 91,
        "time": 392,
        "duration": 0.25,
        "velocity": 0.84,
        "hand": "right"
      },
      {
        "midi": 70,
        "time": 392.25,
        "duration": 0.25,
        "velocity": 0.71,
        "hand": "right"
      },
      {
        "midi": 82,
        "time": 392.25,
        "duration": 0.25,
        "velocity": 0.84,
        "hand": "right"
      },
      {
        "midi": 94,
        "time": 392.25,
        "duration": 0.25,
        "velocity": 0.84,
        "hand": "right"
      },
      {
        "midi": 72,
        "time": 392.5,
        "duration": 0.5,
        "velocity": 0.71,
        "hand": "right"
      },
      {
        "midi": 84,
        "time": 392.5,
        "duration": 0.5,
        "velocity": 0.84,
        "hand": "right"
      },
      {
        "midi": 96,
        "time": 392.5,
        "duration": 0.5,
        "velocity": 0.84,
        "hand": "right"
      },
      {
        "midi": 44,
        "time": 393,
        "duration": 1,
        "velocity": 0.71,
        "hand": "left"
      },
      {
        "midi": 56,
        "time": 393,
        "duration": 1,
        "velocity": 0.71,
        "hand": "left"
      },
      {
        "midi": 72,
        "time": 393,
        "duration": 1,
        "velocity": 0.84,
        "hand": "right"
      },
      {
        "midi": 65,
        "time": 394,
        "duration": 0.25,
        "velocity": 0.71,
        "hand": "right"
      },
      {
        "midi": 77,
        "time": 394,
        "duration": 0.25,
        "velocity": 0.84,
        "hand": "right"
      },
      {
        "midi": 89,
        "time": 394,
        "duration": 0.25,
        "velocity": 0.84,
        "hand": "right"
      },
      {
        "midi": 68,
        "time": 394.25,
        "duration": 0.25,
        "velocity": 0.71,
        "hand": "right"
      },
      {
        "midi": 80,
        "time": 394.25,
        "duration": 0.25,
        "velocity": 0.84,
        "hand": "right"
      },
      {
        "midi": 92,
        "time": 394.25,
        "duration": 0.25,
        "velocity": 0.84,
        "hand": "right"
      },
      {
        "midi": 70,
        "time": 394.5,
        "duration": 0.5,
        "velocity": 0.71,
        "hand": "right"
      },
      {
        "midi": 82,
        "time": 394.5,
        "duration": 0.5,
        "velocity": 0.84,
        "hand": "right"
      },
      {
        "midi": 94,
        "time": 394.5,
        "duration": 0.5,
        "velocity": 0.84,
        "hand": "right"
      },
      {
        "midi": 43,
        "time": 395,
        "duration": 1,
        "velocity": 0.71,
        "hand": "left"
      },
      {
        "midi": 58,
        "time": 395,
        "duration": 1,
        "velocity": 0.84,
        "hand": "left"
      },
      {
        "midi": 70,
        "time": 395,
        "duration": 1,
        "velocity": 0.84,
        "hand": "right"
      },
      {
        "midi": 79,
        "time": 396,
        "duration": 0.25,
        "velocity": 0.84,
        "hand": "right"
      },
      {
        "midi": 82,
        "time": 396.25,
        "duration": 0.25,
        "velocity": 0.84,
        "hand": "right"
      },
      {
        "midi": 44,
        "time": 396.5,
        "duration": 0.5,
        "velocity": 0.71,
        "hand": "left"
      },
      {
        "midi": 84,
        "time": 396.5,
        "duration": 0.25,
        "velocity": 0.84,
        "hand": "right"
      },
      {
        "midi": 72,
        "time": 396.75,
        "duration": 0.25,
        "velocity": 0.84,
        "hand": "right"
      },
      {
        "midi": 79,
        "time": 396.75,
        "duration": 0.25,
        "velocity": 0.84,
        "hand": "right"
      },
      {
        "midi": 56,
        "time": 397,
        "duration": 0.5,
        "velocity": 0.71,
        "hand": "left"
      },
      {
        "midi": 64,
        "time": 397,
        "duration": 0.5,
        "velocity": 0.71,
        "hand": "right"
      },
      {
        "midi": 84,
        "time": 397,
        "duration": 0.25,
        "velocity": 0.84,
        "hand": "right"
      },
      {
        "midi": 72,
        "time": 397.25,
        "duration": 0.25,
        "velocity": 0.84,
        "hand": "right"
      },
      {
        "midi": 79,
        "time": 397.25,
        "duration": 0.25,
        "velocity": 0.84,
        "hand": "right"
      },
      {
        "midi": 68,
        "time": 397.5,
        "duration": 0.5,
        "velocity": 0.71,
        "hand": "right"
      },
      {
        "midi": 72,
        "time": 397.5,
        "duration": 0.25,
        "velocity": 1,
        "hand": "right"
      },
      {
        "midi": 77,
        "time": 397.5,
        "duration": 0.25,
        "velocity": 1,
        "hand": "right"
      },
      {
        "midi": 65,
        "time": 397.75,
        "duration": 0.25,
        "velocity": 1,
        "hand": "right"
      },
      {
        "midi": 77,
        "time": 398,
        "duration": 0.25,
        "velocity": 1,
        "hand": "right"
      },
      {
        "midi": 80,
        "time": 398.25,
        "duration": 0.25,
        "velocity": 1,
        "hand": "right"
      },
      {
        "midi": 43,
        "time": 398.5,
        "duration": 0.5,
        "velocity": 0.71,
        "hand": "left"
      },
      {
        "midi": 82,
        "time": 398.5,
        "duration": 0.25,
        "velocity": 1,
        "hand": "right"
      },
      {
        "midi": 70,
        "time": 398.75,
        "duration": 0.25,
        "velocity": 1,
        "hand": "right"
      },
      {
        "midi": 77,
        "time": 398.75,
        "duration": 0.25,
        "velocity": 1,
        "hand": "right"
      },
      {
        "midi": 55,
        "time": 399,
        "duration": 0.5,
        "velocity": 0.71,
        "hand": "left"
      },
      {
        "midi": 62,
        "time": 399,
        "duration": 0.5,
        "velocity": 0.71,
        "hand": "right"
      },
      {
        "midi": 82,
        "time": 399,
        "duration": 0.25,
        "velocity": 1,
        "hand": "right"
      },
      {
        "midi": 70,
        "time": 399.25,
        "duration": 0.25,
        "velocity": 1,
        "hand": "right"
      },
      {
        "midi": 77,
        "time": 399.25,
        "duration": 0.25,
        "velocity": 1,
        "hand": "right"
      },
      {
        "midi": 67,
        "time": 399.5,
        "duration": 0.5,
        "velocity": 0.71,
        "hand": "right"
      },
      {
        "midi": 70,
        "time": 399.5,
        "duration": 0.25,
        "velocity": 1,
        "hand": "right"
      },
      {
        "midi": 75,
        "time": 399.5,
        "duration": 0.25,
        "velocity": 1,
        "hand": "right"
      },
      {
        "midi": 63,
        "time": 399.75,
        "duration": 0.25,
        "velocity": 1,
        "hand": "right"
      },
      {
        "midi": 79,
        "time": 400,
        "duration": 0.25,
        "velocity": 1,
        "hand": "right"
      },
      {
        "midi": 82,
        "time": 400.25,
        "duration": 0.25,
        "velocity": 1,
        "hand": "right"
      },
      {
        "midi": 44,
        "time": 400.5,
        "duration": 0.5,
        "velocity": 0.71,
        "hand": "left"
      },
      {
        "midi": 84,
        "time": 400.5,
        "duration": 0.25,
        "velocity": 1,
        "hand": "right"
      },
      {
        "midi": 72,
        "time": 400.75,
        "duration": 0.25,
        "velocity": 1,
        "hand": "right"
      },
      {
        "midi": 79,
        "time": 400.75,
        "duration": 0.25,
        "velocity": 1,
        "hand": "right"
      },
      {
        "midi": 56,
        "time": 401,
        "duration": 0.5,
        "velocity": 0.71,
        "hand": "left"
      },
      {
        "midi": 64,
        "time": 401,
        "duration": 0.5,
        "velocity": 0.71,
        "hand": "right"
      },
      {
        "midi": 84,
        "time": 401,
        "duration": 0.25,
        "velocity": 1,
        "hand": "right"
      },
      {
        "midi": 72,
        "time": 401.25,
        "duration": 0.25,
        "velocity": 1,
        "hand": "right"
      },
      {
        "midi": 79,
        "time": 401.25,
        "duration": 0.25,
        "velocity": 1,
        "hand": "right"
      },
      {
        "midi": 68,
        "time": 401.5,
        "duration": 0.5,
        "velocity": 0.71,
        "hand": "right"
      },
      {
        "midi": 72,
        "time": 401.5,
        "duration": 0.25,
        "velocity": 1,
        "hand": "right"
      },
      {
        "midi": 77,
        "time": 401.5,
        "duration": 0.25,
        "velocity": 1,
        "hand": "right"
      },
      {
        "midi": 65,
        "time": 401.75,
        "duration": 0.25,
        "velocity": 1,
        "hand": "right"
      },
      {
        "midi": 77,
        "time": 402,
        "duration": 0.25,
        "velocity": 1,
        "hand": "right"
      },
      {
        "midi": 80,
        "time": 402.25,
        "duration": 0.25,
        "velocity": 1,
        "hand": "right"
      },
      {
        "midi": 43,
        "time": 402.5,
        "duration": 0.5,
        "velocity": 0.71,
        "hand": "left"
      },
      {
        "midi": 82,
        "time": 402.5,
        "duration": 0.25,
        "velocity": 1,
        "hand": "right"
      },
      {
        "midi": 70,
        "time": 402.75,
        "duration": 0.25,
        "velocity": 1,
        "hand": "right"
      },
      {
        "midi": 77,
        "time": 402.75,
        "duration": 0.25,
        "velocity": 1,
        "hand": "right"
      },
      {
        "midi": 55,
        "time": 403,
        "duration": 0.5,
        "velocity": 0.71,
        "hand": "left"
      },
      {
        "midi": 62,
        "time": 403,
        "duration": 0.5,
        "velocity": 0.71,
        "hand": "right"
      },
      {
        "midi": 82,
        "time": 403,
        "duration": 0.25,
        "velocity": 1,
        "hand": "right"
      },
      {
        "midi": 70,
        "time": 403.25,
        "duration": 0.25,
        "velocity": 1,
        "hand": "right"
      },
      {
        "midi": 77,
        "time": 403.25,
        "duration": 0.25,
        "velocity": 1,
        "hand": "right"
      },
      {
        "midi": 67,
        "time": 403.5,
        "duration": 0.5,
        "velocity": 0.71,
        "hand": "right"
      },
      {
        "midi": 70,
        "time": 403.5,
        "duration": 0.25,
        "velocity": 1,
        "hand": "right"
      },
      {
        "midi": 75,
        "time": 403.5,
        "duration": 0.25,
        "velocity": 1,
        "hand": "right"
      },
      {
        "midi": 63,
        "time": 403.75,
        "duration": 0.25,
        "velocity": 1,
        "hand": "right"
      },
      {
        "midi": 31,
        "time": 404,
        "duration": 0.25,
        "velocity": 0.71,
        "hand": "left"
      },
      {
        "midi": 43,
        "time": 404,
        "duration": 0.25,
        "velocity": 0.71,
        "hand": "left"
      },
      {
        "midi": 34,
        "time": 404.25,
        "duration": 0.25,
        "velocity": 0.71,
        "hand": "left"
      },
      {
        "midi": 46,
        "time": 404.25,
        "duration": 0.25,
        "velocity": 0.71,
        "hand": "left"
      },
      {
        "midi": 36,
        "time": 404.5,
        "duration": 0.5,
        "velocity": 0.71,
        "hand": "left"
      },
      {
        "midi": 63,
        "time": 404.5,
        "duration": 0.5,
        "velocity": 0.75,
        "hand": "right"
      },
      {
        "midi": 68,
        "time": 404.5,
        "duration": 0.5,
        "velocity": 0.75,
        "hand": "right"
      },
      {
        "midi": 36,
        "time": 405,
        "duration": 0.5,
        "velocity": 0.71,
        "hand": "left"
      },
      {
        "midi": 63,
        "time": 405,
        "duration": 0.5,
        "velocity": 0.75,
        "hand": "right"
      },
      {
        "midi": 75,
        "time": 405,
        "duration": 0.5,
        "velocity": 0.75,
        "hand": "right"
      },
      {
        "midi": 36,
        "time": 405.5,
        "duration": 0.5,
        "velocity": 0.71,
        "hand": "left"
      },
      {
        "midi": 63,
        "time": 405.5,
        "duration": 0.5,
        "velocity": 0.71,
        "hand": "right"
      },
      {
        "midi": 68,
        "time": 405.5,
        "duration": 0.5,
        "velocity": 0.75,
        "hand": "right"
      },
      {
        "midi": 31,
        "time": 406,
        "duration": 0.25,
        "velocity": 0.71,
        "hand": "left"
      },
      {
        "midi": 63,
        "time": 406,
        "duration": 0.25,
        "velocity": 0.71,
        "hand": "right"
      },
      {
        "midi": 70,
        "time": 406,
        "duration": 0.25,
        "velocity": 0.75,
        "hand": "right"
      },
      {
        "midi": 32,
        "time": 406.25,
        "duration": 0.25,
        "velocity": 0.71,
        "hand": "left"
      },
      {
        "midi": 63,
        "time": 406.25,
        "duration": 0.25,
        "velocity": 0.71,
        "hand": "right"
      },
      {
        "midi": 72,
        "time": 406.25,
        "duration": 0.25,
        "velocity": 0.75,
        "hand": "right"
      },
      {
        "midi": 34,
        "time": 406.5,
        "duration": 0.5,
        "velocity": 0.71,
        "hand": "left"
      },
      {
        "midi": 63,
        "time": 406.5,
        "duration": 0.5,
        "velocity": 0.75,
        "hand": "right"
      },
      {
        "midi": 67,
        "time": 406.5,
        "duration": 0.5,
        "velocity": 0.75,
        "hand": "right"
      },
      {
        "midi": 34,
        "time": 407,
        "duration": 0.5,
        "velocity": 0.71,
        "hand": "left"
      },
      {
        "midi": 67,
        "time": 407,
        "duration": 0.5,
        "velocity": 0.75,
        "hand": "right"
      },
      {
        "midi": 75,
        "time": 407,
        "duration": 0.5,
        "velocity": 0.75,
        "hand": "right"
      },
      {
        "midi": 34,
        "time": 407.5,
        "duration": 0.5,
        "velocity": 0.71,
        "hand": "left"
      },
      {
        "midi": 63,
        "time": 407.5,
        "duration": 0.5,
        "velocity": 0.71,
        "hand": "right"
      },
      {
        "midi": 67,
        "time": 407.5,
        "duration": 0.5,
        "velocity": 0.75,
        "hand": "right"
      },
      {
        "midi": 39,
        "time": 408,
        "duration": 0.25,
        "velocity": 0.71,
        "hand": "left"
      },
      {
        "midi": 60,
        "time": 408,
        "duration": 0.25,
        "velocity": 0.71,
        "hand": "right"
      },
      {
        "midi": 67,
        "time": 408,
        "duration": 0.25,
        "velocity": 0.75,
        "hand": "right"
      },
      {
        "midi": 38,
        "time": 408.25,
        "duration": 0.25,
        "velocity": 0.71,
        "hand": "left"
      },
      {
        "midi": 58,
        "time": 408.25,
        "duration": 0.25,
        "velocity": 0.71,
        "hand": "left"
      },
      {
        "midi": 67,
        "time": 408.25,
        "duration": 0.25,
        "velocity": 0.75,
        "hand": "right"
      },
      {
        "midi": 36,
        "time": 408.5,
        "duration": 0.5,
        "velocity": 0.71,
        "hand": "left"
      },
      {
        "midi": 63,
        "time": 408.5,
        "duration": 0.5,
        "velocity": 0.75,
        "hand": "right"
      },
      {
        "midi": 68,
        "time": 408.5,
        "duration": 0.5,
        "velocity": 0.75,
        "hand": "right"
      },
      {
        "midi": 36,
        "time": 409,
        "duration": 0.5,
        "velocity": 0.71,
        "hand": "left"
      },
      {
        "midi": 63,
        "time": 409,
        "duration": 0.5,
        "velocity": 0.75,
        "hand": "right"
      },
      {
        "midi": 75,
        "time": 409,
        "duration": 0.5,
        "velocity": 0.75,
        "hand": "right"
      },
      {
        "midi": 36,
        "time": 409.5,
        "duration": 0.5,
        "velocity": 0.71,
        "hand": "left"
      },
      {
        "midi": 63,
        "time": 409.5,
        "duration": 0.5,
        "velocity": 0.71,
        "hand": "right"
      },
      {
        "midi": 68,
        "time": 409.5,
        "duration": 0.5,
        "velocity": 0.75,
        "hand": "right"
      },
      {
        "midi": 31,
        "time": 410,
        "duration": 0.25,
        "velocity": 0.71,
        "hand": "left"
      },
      {
        "midi": 63,
        "time": 410,
        "duration": 0.25,
        "velocity": 0.71,
        "hand": "right"
      },
      {
        "midi": 70,
        "time": 410,
        "duration": 0.25,
        "velocity": 0.75,
        "hand": "right"
      },
      {
        "midi": 32,
        "time": 410.25,
        "duration": 0.25,
        "velocity": 0.71,
        "hand": "left"
      },
      {
        "midi": 63,
        "time": 410.25,
        "duration": 0.25,
        "velocity": 0.71,
        "hand": "right"
      },
      {
        "midi": 72,
        "time": 410.25,
        "duration": 0.25,
        "velocity": 0.75,
        "hand": "right"
      },
      {
        "midi": 34,
        "time": 410.5,
        "duration": 0.5,
        "velocity": 0.71,
        "hand": "left"
      },
      {
        "midi": 63,
        "time": 410.5,
        "duration": 0.5,
        "velocity": 0.75,
        "hand": "right"
      },
      {
        "midi": 67,
        "time": 410.5,
        "duration": 0.5,
        "velocity": 0.75,
        "hand": "right"
      },
      {
        "midi": 34,
        "time": 411,
        "duration": 0.5,
        "velocity": 0.71,
        "hand": "left"
      },
      {
        "midi": 67,
        "time": 411,
        "duration": 0.5,
        "velocity": 0.75,
        "hand": "right"
      },
      {
        "midi": 75,
        "time": 411,
        "duration": 0.5,
        "velocity": 0.75,
        "hand": "right"
      },
      {
        "midi": 34,
        "time": 411.5,
        "duration": 0.5,
        "velocity": 0.71,
        "hand": "left"
      },
      {
        "midi": 63,
        "time": 411.5,
        "duration": 0.5,
        "velocity": 0.71,
        "hand": "right"
      },
      {
        "midi": 67,
        "time": 411.5,
        "duration": 0.5,
        "velocity": 0.75,
        "hand": "right"
      },
      {
        "midi": 39,
        "time": 412,
        "duration": 0.25,
        "velocity": 0.71,
        "hand": "left"
      },
      {
        "midi": 60,
        "time": 412,
        "duration": 0.25,
        "velocity": 0.71,
        "hand": "right"
      },
      {
        "midi": 67,
        "time": 412,
        "duration": 0.25,
        "velocity": 0.75,
        "hand": "right"
      },
      {
        "midi": 39,
        "time": 412.25,
        "duration": 0.25,
        "velocity": 0.71,
        "hand": "left"
      },
      {
        "midi": 58,
        "time": 412.25,
        "duration": 0.25,
        "velocity": 0.71,
        "hand": "left"
      },
      {
        "midi": 67,
        "time": 412.25,
        "duration": 0.25,
        "velocity": 0.75,
        "hand": "right"
      },
      {
        "midi": 38,
        "time": 412.5,
        "duration": 0.25,
        "velocity": 0.71,
        "hand": "left"
      },
      {
        "midi": 50,
        "time": 412.5,
        "duration": 2,
        "velocity": 0.71,
        "hand": "left"
      },
      {
        "midi": 58,
        "time": 412.5,
        "duration": 0.25,
        "velocity": 0.8,
        "hand": "left"
      },
      {
        "midi": 62,
        "time": 412.75,
        "duration": 0.25,
        "velocity": 0.8,
        "hand": "right"
      },
      {
        "midi": 70,
        "time": 412.75,
        "duration": 0.25,
        "velocity": 0.8,
        "hand": "right"
      },
      {
        "midi": 51,
        "time": 413,
        "duration": 0.5,
        "velocity": 0.71,
        "hand": "left"
      },
      {
        "midi": 60,
        "time": 413,
        "duration": 0.25,
        "velocity": 0.8,
        "hand": "right"
      },
      {
        "midi": 67,
        "time": 413,
        "duration": 0.25,
        "velocity": 0.8,
        "hand": "right"
      },
      {
        "midi": 67,
        "time": 413.25,
        "duration": 0.25,
        "velocity": 0.8,
        "hand": "right"
      },
      {
        "midi": 72,
        "time": 413.25,
        "duration": 0.25,
        "velocity": 0.8,
        "hand": "right"
      },
      {
        "midi": 52,
        "time": 413.5,
        "duration": 0.5,
        "velocity": 0.71,
        "hand": "left"
      },
      {
        "midi": 61,
        "time": 413.5,
        "duration": 0.25,
        "velocity": 0.8,
        "hand": "right"
      },
      {
        "midi": 70,
        "time": 413.5,
        "duration": 0.25,
        "velocity": 0.8,
        "hand": "right"
      },
      {
        "midi": 67,
        "time": 413.75,
        "duration": 0.25,
        "velocity": 0.8,
        "hand": "right"
      },
      {
        "midi": 73,
        "time": 413.75,
        "duration": 0.25,
        "velocity": 0.8,
        "hand": "right"
      },
      {
        "midi": 54,
        "time": 414,
        "duration": 0.25,
        "velocity": 0.71,
        "hand": "left"
      },
      {
        "midi": 64,
        "time": 414,
        "duration": 0.25,
        "velocity": 0.8,
        "hand": "right"
      },
      {
        "midi": 74,
        "time": 414,
        "duration": 0.25,
        "velocity": 0.8,
        "hand": "right"
      },
      {
        "midi": 57,
        "time": 414.25,
        "duration": 0.25,
        "velocity": 0.71,
        "hand": "left"
      },
      {
        "midi": 70,
        "time": 414.25,
        "duration": 0.25,
        "velocity": 0.8,
        "hand": "right"
      },
      {
        "midi": 76,
        "time": 414.25,
        "duration": 0.25,
        "velocity": 0.8,
        "hand": "right"
      },
      {
        "midi": 50,
        "time": 414.5,
        "duration": 1,
        "velocity": 0.71,
        "hand": "left"
      },
      {
        "midi": 67,
        "time": 414.5,
        "duration": 0.25,
        "velocity": 0.8,
        "hand": "right"
      },
      {
        "midi": 78,
        "time": 414.5,
        "duration": 0.25,
        "velocity": 0.8,
        "hand": "right"
      },
      {
        "midi": 70,
        "time": 414.75,
        "duration": 0.25,
        "velocity": 0.8,
        "hand": "right"
      },
      {
        "midi": 79,
        "time": 414.75,
        "duration": 0.25,
        "velocity": 0.8,
        "hand": "right"
      },
      {
        "midi": 60,
        "time": 415,
        "duration": 0.5,
        "velocity": 0.71,
        "hand": "right"
      },
      {
        "midi": 69,
        "time": 415,
        "duration": 0.25,
        "velocity": 0.8,
        "hand": "right"
      },
      {
        "midi": 74,
        "time": 415,
        "duration": 0.25,
        "velocity": 0.8,
        "hand": "right"
      },
      {
        "midi": 75,
        "time": 415.25,
        "duration": 0.25,
        "velocity": 0.8,
        "hand": "right"
      },
      {
        "midi": 81,
        "time": 415.25,
        "duration": 0.25,
        "velocity": 0.8,
        "hand": "right"
      },
      {
        "midi": 62,
        "time": 415.5,
        "duration": 0.5,
        "velocity": 0.71,
        "hand": "right"
      },
      {
        "midi": 70,
        "time": 415.5,
        "duration": 0.25,
        "velocity": 0.8,
        "hand": "right"
      },
      {
        "midi": 79,
        "time": 415.5,
        "duration": 0.25,
        "velocity": 0.8,
        "hand": "right"
      },
      {
        "midi": 74,
        "time": 415.75,
        "duration": 0.25,
        "velocity": 0.8,
        "hand": "right"
      },
      {
        "midi": 82,
        "time": 415.75,
        "duration": 0.25,
        "velocity": 0.8,
        "hand": "right"
      },
      {
        "midi": 64,
        "time": 416,
        "duration": 0.25,
        "velocity": 0.71,
        "hand": "right"
      },
      {
        "midi": 74,
        "time": 416,
        "duration": 0.25,
        "velocity": 0.8,
        "hand": "right"
      },
      {
        "midi": 79,
        "time": 416,
        "duration": 0.25,
        "velocity": 0.8,
        "hand": "right"
      },
      {
        "midi": 67,
        "time": 416.25,
        "duration": 0.25,
        "velocity": 0.71,
        "hand": "right"
      },
      {
        "midi": 82,
        "time": 416.25,
        "duration": 0.25,
        "velocity": 0.8,
        "hand": "right"
      },
      {
        "midi": 86,
        "time": 416.25,
        "duration": 0.25,
        "velocity": 0.8,
        "hand": "right"
      },
      {
        "midi": 38,
        "time": 416.5,
        "duration": 0.25,
        "velocity": 0.71,
        "hand": "left"
      },
      {
        "midi": 82,
        "time": 416.5,
        "duration": 0.25,
        "velocity": 0.8,
        "hand": "right"
      },
      {
        "midi": 87,
        "time": 416.5,
        "duration": 0.25,
        "velocity": 0.8,
        "hand": "right"
      },
      {
        "midi": 58,
        "time": 416.75,
        "duration": 0.25,
        "velocity": 0.8,
        "hand": "left"
      },
      {
        "midi": 70,
        "time": 416.75,
        "duration": 0.25,
        "velocity": 0.8,
        "hand": "right"
      },
      {
        "midi": 51,
        "time": 417,
        "duration": 0.5,
        "velocity": 0.71,
        "hand": "left"
      },
      {
        "midi": 60,
        "time": 417,
        "duration": 0.25,
        "velocity": 0.8,
        "hand": "right"
      },
      {
        "midi": 67,
        "time": 417,
        "duration": 0.25,
        "velocity": 0.8,
        "hand": "right"
      },
      {
        "midi": 67,
        "time": 417.25,
        "duration": 0.25,
        "velocity": 0.8,
        "hand": "right"
      },
      {
        "midi": 72,
        "time": 417.25,
        "duration": 0.25,
        "velocity": 0.8,
        "hand": "right"
      },
      {
        "midi": 52,
        "time": 417.5,
        "duration": 0.5,
        "velocity": 0.71,
        "hand": "left"
      },
      {
        "midi": 61,
        "time": 417.5,
        "duration": 0.25,
        "velocity": 0.8,
        "hand": "right"
      },
      {
        "midi": 70,
        "time": 417.5,
        "duration": 0.25,
        "velocity": 0.8,
        "hand": "right"
      },
      {
        "midi": 67,
        "time": 417.75,
        "duration": 0.25,
        "velocity": 0.8,
        "hand": "right"
      },
      {
        "midi": 73,
        "time": 417.75,
        "duration": 0.25,
        "velocity": 0.8,
        "hand": "right"
      },
      {
        "midi": 54,
        "time": 418,
        "duration": 0.25,
        "velocity": 0.71,
        "hand": "left"
      },
      {
        "midi": 64,
        "time": 418,
        "duration": 0.25,
        "velocity": 0.8,
        "hand": "right"
      },
      {
        "midi": 74,
        "time": 418,
        "duration": 0.25,
        "velocity": 0.8,
        "hand": "right"
      },
      {
        "midi": 57,
        "time": 418.25,
        "duration": 0.25,
        "velocity": 0.71,
        "hand": "left"
      },
      {
        "midi": 70,
        "time": 418.25,
        "duration": 0.25,
        "velocity": 0.8,
        "hand": "right"
      },
      {
        "midi": 76,
        "time": 418.25,
        "duration": 0.25,
        "velocity": 0.8,
        "hand": "right"
      },
      {
        "midi": 50,
        "time": 418.5,
        "duration": 1,
        "velocity": 0.71,
        "hand": "left"
      },
      {
        "midi": 67,
        "time": 418.5,
        "duration": 0.25,
        "velocity": 0.8,
        "hand": "right"
      },
      {
        "midi": 78,
        "time": 418.5,
        "duration": 0.25,
        "velocity": 0.8,
        "hand": "right"
      },
      {
        "midi": 70,
        "time": 418.75,
        "duration": 0.25,
        "velocity": 0.8,
        "hand": "right"
      },
      {
        "midi": 79,
        "time": 418.75,
        "duration": 0.25,
        "velocity": 0.8,
        "hand": "right"
      },
      {
        "midi": 60,
        "time": 419,
        "duration": 0.5,
        "velocity": 0.71,
        "hand": "right"
      },
      {
        "midi": 69,
        "time": 419,
        "duration": 0.25,
        "velocity": 0.8,
        "hand": "right"
      },
      {
        "midi": 74,
        "time": 419,
        "duration": 0.25,
        "velocity": 0.8,
        "hand": "right"
      },
      {
        "midi": 75,
        "time": 419.25,
        "duration": 0.25,
        "velocity": 0.8,
        "hand": "right"
      },
      {
        "midi": 81,
        "time": 419.25,
        "duration": 0.25,
        "velocity": 0.8,
        "hand": "right"
      },
      {
        "midi": 62,
        "time": 419.5,
        "duration": 0.5,
        "velocity": 0.71,
        "hand": "right"
      },
      {
        "midi": 70,
        "time": 419.5,
        "duration": 0.25,
        "velocity": 0.8,
        "hand": "right"
      },
      {
        "midi": 79,
        "time": 419.5,
        "duration": 0.25,
        "velocity": 0.8,
        "hand": "right"
      },
      {
        "midi": 74,
        "time": 419.75,
        "duration": 0.25,
        "velocity": 0.8,
        "hand": "right"
      },
      {
        "midi": 82,
        "time": 419.75,
        "duration": 0.25,
        "velocity": 0.8,
        "hand": "right"
      },
      {
        "midi": 64,
        "time": 420,
        "duration": 0.25,
        "velocity": 0.71,
        "hand": "right"
      },
      {
        "midi": 74,
        "time": 420,
        "duration": 0.25,
        "velocity": 0.8,
        "hand": "right"
      },
      {
        "midi": 79,
        "time": 420,
        "duration": 0.25,
        "velocity": 0.8,
        "hand": "right"
      },
      {
        "midi": 67,
        "time": 420.25,
        "duration": 0.25,
        "velocity": 0.71,
        "hand": "right"
      },
      {
        "midi": 82,
        "time": 420.25,
        "duration": 0.25,
        "velocity": 0.8,
        "hand": "right"
      },
      {
        "midi": 86,
        "time": 420.25,
        "duration": 0.25,
        "velocity": 0.8,
        "hand": "right"
      },
      {
        "midi": 53,
        "time": 420.5,
        "duration": 0.5,
        "velocity": 0.84,
        "hand": "left"
      },
      {
        "midi": 65,
        "time": 420.5,
        "duration": 0.5,
        "velocity": 0.84,
        "hand": "right"
      },
      {
        "midi": 87,
        "time": 420.5,
        "duration": 0.25,
        "velocity": 0.8,
        "hand": "right"
      },
      {
        "midi": 71,
        "time": 420.75,
        "duration": 0.25,
        "velocity": 0.8,
        "hand": "right"
      },
      {
        "midi": 79,
        "time": 420.75,
        "duration": 0.25,
        "velocity": 0.8,
        "hand": "right"
      },
      {
        "midi": 51,
        "time": 421,
        "duration": 0.5,
        "velocity": 0.84,
        "hand": "left"
      },
      {
        "midi": 69,
        "time": 421,
        "duration": 0.5,
        "velocity": 0.8,
        "hand": "right"
      },
      {
        "midi": 74,
        "time": 421,
        "duration": 0.25,
        "velocity": 0.8,
        "hand": "right"
      },
      {
        "midi": 72,
        "time": 421.25,
        "duration": 0.25,
        "velocity": 0.8,
        "hand": "right"
      },
      {
        "midi": 81,
        "time": 421.25,
        "duration": 0.25,
        "velocity": 0.8,
        "hand": "right"
      },
      {
        "midi": 50,
        "time": 421.5,
        "duration": 0.5,
        "velocity": 0.84,
        "hand": "left"
      },
      {
        "midi": 62,
        "time": 421.5,
        "duration": 0.5,
        "velocity": 0.84,
        "hand": "right"
      },
      {
        "midi": 75,
        "time": 421.5,
        "duration": 0.25,
        "velocity": 0.8,
        "hand": "right"
      },
      {
        "midi": 77,
        "time": 421.75,
        "duration": 0.25,
        "velocity": 0.8,
        "hand": "right"
      },
      {
        "midi": 83,
        "time": 421.75,
        "duration": 0.25,
        "velocity": 0.8,
        "hand": "right"
      },
      {
        "midi": 48,
        "time": 422,
        "duration": 0.25,
        "velocity": 0.84,
        "hand": "left"
      },
      {
        "midi": 61,
        "time": 422,
        "duration": 0.25,
        "velocity": 0.84,
        "hand": "right"
      },
      {
        "midi": 79,
        "time": 422,
        "duration": 0.25,
        "velocity": 0.8,
        "hand": "right"
      },
      {
        "midi": 47,
        "time": 422.25,
        "duration": 0.25,
        "velocity": 0.84,
        "hand": "left"
      },
      {
        "midi": 75,
        "time": 422.25,
        "duration": 0.25,
        "velocity": 0.8,
        "hand": "right"
      },
      {
        "midi": 84,
        "time": 422.25,
        "duration": 0.25,
        "velocity": 0.8,
        "hand": "right"
      },
      {
        "midi": 45,
        "time": 422.5,
        "duration": 0.5,
        "velocity": 0.84,
        "hand": "left"
      },
      {
        "midi": 75,
        "time": 422.5,
        "duration": 0.5,
        "velocity": 0.8,
        "hand": "right"
      },
      {
        "midi": 86,
        "time": 422.5,
        "duration": 0.25,
        "velocity": 0.8,
        "hand": "right"
      },
      {
        "midi": 79,
        "time": 422.75,
        "duration": 0.25,
        "velocity": 0.8,
        "hand": "right"
      },
      {
        "midi": 87,
        "time": 422.75,
        "duration": 0.25,
        "velocity": 0.8,
        "hand": "right"
      },
      {
        "midi": 44,
        "time": 423,
        "duration": 0.5,
        "velocity": 0.84,
        "hand": "left"
      },
      {
        "midi": 77,
        "time": 423,
        "duration": 0.5,
        "velocity": 0.71,
        "hand": "right"
      },
      {
        "midi": 84,
        "time": 423,
        "duration": 0.25,
        "velocity": 0.8,
        "hand": "right"
      },
      {
        "midi": 80,
        "time": 423.25,
        "duration": 0.25,
        "velocity": 0.8,
        "hand": "right"
      },
      {
        "midi": 89,
        "time": 423.25,
        "duration": 0.25,
        "velocity": 0.8,
        "hand": "right"
      },
      {
        "midi": 43,
        "time": 423.5,
        "duration": 0.5,
        "velocity": 0.84,
        "hand": "left"
      },
      {
        "midi": 55,
        "time": 423.5,
        "duration": 0.5,
        "velocity": 0.84,
        "hand": "left"
      },
      {
        "midi": 84,
        "time": 423.5,
        "duration": 0.25,
        "velocity": 0.8,
        "hand": "right"
      },
      {
        "midi": 84,
        "time": 423.75,
        "duration": 0.25,
        "velocity": 0.8,
        "hand": "right"
      },
      {
        "midi": 91,
        "time": 423.75,
        "duration": 0.25,
        "velocity": 0.8,
        "hand": "right"
      },
      {
        "midi": 41,
        "time": 424,
        "duration": 0.25,
        "velocity": 0.84,
        "hand": "left"
      },
      {
        "midi": 54,
        "time": 424,
        "duration": 0.25,
        "velocity": 0.84,
        "hand": "left"
      },
      {
        "midi": 87,
        "time": 424,
        "duration": 0.25,
        "velocity": 0.8,
        "hand": "right"
      },
      {
        "midi": 39,
        "time": 424.25,
        "duration": 0.25,
        "velocity": 0.84,
        "hand": "left"
      },
      {
        "midi": 79,
        "time": 424.25,
        "duration": 0.25,
        "velocity": 0.8,
        "hand": "right"
      },
      {
        "midi": 92,
        "time": 424.25,
        "duration": 0.25,
        "velocity": 0.8,
        "hand": "right"
      },
      {
        "midi": 53,
        "time": 424.5,
        "duration": 0.5,
        "velocity": 0.84,
        "hand": "left"
      },
      {
        "midi": 65,
        "time": 424.5,
        "duration": 0.5,
        "velocity": 0.84,
        "hand": "right"
      },
      {
        "midi": 91,
        "time": 424.5,
        "duration": 0.25,
        "velocity": 0.8,
        "hand": "right"
      },
      {
        "midi": 71,
        "time": 424.75,
        "duration": 0.25,
        "velocity": 0.8,
        "hand": "right"
      },
      {
        "midi": 79,
        "time": 424.75,
        "duration": 0.25,
        "velocity": 0.8,
        "hand": "right"
      },
      {
        "midi": 51,
        "time": 425,
        "duration": 0.5,
        "velocity": 0.84,
        "hand": "left"
      },
      {
        "midi": 69,
        "time": 425,
        "duration": 0.5,
        "velocity": 0.8,
        "hand": "right"
      },
      {
        "midi": 74,
        "time": 425,
        "duration": 0.25,
        "velocity": 0.8,
        "hand": "right"
      },
      {
        "midi": 72,
        "time": 425.25,
        "duration": 0.25,
        "velocity": 0.8,
        "hand": "right"
      },
      {
        "midi": 81,
        "time": 425.25,
        "duration": 0.25,
        "velocity": 0.8,
        "hand": "right"
      },
      {
        "midi": 50,
        "time": 425.5,
        "duration": 0.5,
        "velocity": 0.84,
        "hand": "left"
      },
      {
        "midi": 62,
        "time": 425.5,
        "duration": 0.5,
        "velocity": 0.84,
        "hand": "right"
      },
      {
        "midi": 75,
        "time": 425.5,
        "duration": 0.25,
        "velocity": 0.8,
        "hand": "right"
      },
      {
        "midi": 77,
        "time": 425.75,
        "duration": 0.25,
        "velocity": 0.8,
        "hand": "right"
      },
      {
        "midi": 83,
        "time": 425.75,
        "duration": 0.25,
        "velocity": 0.8,
        "hand": "right"
      },
      {
        "midi": 48,
        "time": 426,
        "duration": 0.25,
        "velocity": 0.84,
        "hand": "left"
      },
      {
        "midi": 61,
        "time": 426,
        "duration": 0.25,
        "velocity": 0.84,
        "hand": "right"
      },
      {
        "midi": 79,
        "time": 426,
        "duration": 0.25,
        "velocity": 0.8,
        "hand": "right"
      },
      {
        "midi": 47,
        "time": 426.25,
        "duration": 0.25,
        "velocity": 0.84,
        "hand": "left"
      },
      {
        "midi": 75,
        "time": 426.25,
        "duration": 0.25,
        "velocity": 0.8,
        "hand": "right"
      },
      {
        "midi": 84,
        "time": 426.25,
        "duration": 0.25,
        "velocity": 0.8,
        "hand": "right"
      },
      {
        "midi": 45,
        "time": 426.5,
        "duration": 0.5,
        "velocity": 0.84,
        "hand": "left"
      },
      {
        "midi": 75,
        "time": 426.5,
        "duration": 0.5,
        "velocity": 0.8,
        "hand": "right"
      },
      {
        "midi": 86,
        "time": 426.5,
        "duration": 0.25,
        "velocity": 0.8,
        "hand": "right"
      },
      {
        "midi": 79,
        "time": 426.75,
        "duration": 0.25,
        "velocity": 0.8,
        "hand": "right"
      },
      {
        "midi": 87,
        "time": 426.75,
        "duration": 0.25,
        "velocity": 0.8,
        "hand": "right"
      },
      {
        "midi": 44,
        "time": 427,
        "duration": 0.5,
        "velocity": 0.84,
        "hand": "left"
      },
      {
        "midi": 77,
        "time": 427,
        "duration": 0.5,
        "velocity": 0.71,
        "hand": "right"
      },
      {
        "midi": 84,
        "time": 427,
        "duration": 0.25,
        "velocity": 0.8,
        "hand": "right"
      },
      {
        "midi": 80,
        "time": 427.25,
        "duration": 0.25,
        "velocity": 0.8,
        "hand": "right"
      },
      {
        "midi": 89,
        "time": 427.25,
        "duration": 0.25,
        "velocity": 0.8,
        "hand": "right"
      },
      {
        "midi": 43,
        "time": 427.5,
        "duration": 0.5,
        "velocity": 0.84,
        "hand": "left"
      },
      {
        "midi": 55,
        "time": 427.5,
        "duration": 0.5,
        "velocity": 0.84,
        "hand": "left"
      },
      {
        "midi": 84,
        "time": 427.5,
        "duration": 0.25,
        "velocity": 0.8,
        "hand": "right"
      },
      {
        "midi": 84,
        "time": 427.75,
        "duration": 0.25,
        "velocity": 0.8,
        "hand": "right"
      },
      {
        "midi": 91,
        "time": 427.75,
        "duration": 0.25,
        "velocity": 0.8,
        "hand": "right"
      },
      {
        "midi": 41,
        "time": 428,
        "duration": 0.25,
        "velocity": 0.84,
        "hand": "left"
      },
      {
        "midi": 54,
        "time": 428,
        "duration": 0.25,
        "velocity": 0.84,
        "hand": "left"
      },
      {
        "midi": 87,
        "time": 428,
        "duration": 0.25,
        "velocity": 0.8,
        "hand": "right"
      },
      {
        "midi": 39,
        "time": 428.25,
        "duration": 0.25,
        "velocity": 0.84,
        "hand": "left"
      },
      {
        "midi": 79,
        "time": 428.25,
        "duration": 0.25,
        "velocity": 0.8,
        "hand": "right"
      },
      {
        "midi": 92,
        "time": 428.25,
        "duration": 0.25,
        "velocity": 0.8,
        "hand": "right"
      },
      {
        "midi": 80,
        "time": 428.5,
        "duration": 0.5,
        "velocity": 0.8,
        "hand": "right"
      },
      {
        "midi": 87,
        "time": 428.5,
        "duration": 0.5,
        "velocity": 0.8,
        "hand": "right"
      },
      {
        "midi": 92,
        "time": 428.5,
        "duration": 0.5,
        "velocity": 0.8,
        "hand": "right"
      },
      {
        "midi": 39,
        "time": 428.75,
        "duration": 0.25,
        "velocity": 0.71,
        "hand": "left"
      },
      {
        "midi": 48,
        "time": 428.75,
        "duration": 0.25,
        "velocity": 0.71,
        "hand": "left"
      },
      {
        "midi": 44,
        "time": 429,
        "duration": 0.25,
        "velocity": 0.71,
        "hand": "left"
      },
      {
        "midi": 84,
        "time": 429,
        "duration": 0.5,
        "velocity": 0.8,
        "hand": "right"
      },
      {
        "midi": 91,
        "time": 429,
        "duration": 0.5,
        "velocity": 0.8,
        "hand": "right"
      },
      {
        "midi": 44,
        "time": 429.25,
        "duration": 0.25,
        "velocity": 0.71,
        "hand": "left"
      },
      {
        "midi": 48,
        "time": 429.25,
        "duration": 0.25,
        "velocity": 0.71,
        "hand": "left"
      },
      {
        "midi": 39,
        "time": 429.5,
        "duration": 0.25,
        "velocity": 0.71,
        "hand": "left"
      },
      {
        "midi": 80,
        "time": 429.5,
        "duration": 0.5,
        "velocity": 0.8,
        "hand": "right"
      },
      {
        "midi": 89,
        "time": 429.5,
        "duration": 0.5,
        "velocity": 0.8,
        "hand": "right"
      },
      {
        "midi": 44,
        "time": 429.75,
        "duration": 0.25,
        "velocity": 0.71,
        "hand": "left"
      },
      {
        "midi": 51,
        "time": 429.75,
        "duration": 0.25,
        "velocity": 0.71,
        "hand": "left"
      },
      {
        "midi": 48,
        "time": 430,
        "duration": 0.25,
        "velocity": 0.71,
        "hand": "left"
      },
      {
        "midi": 75,
        "time": 430,
        "duration": 0.25,
        "velocity": 0.8,
        "hand": "right"
      },
      {
        "midi": 87,
        "time": 430,
        "duration": 0.25,
        "velocity": 0.8,
        "hand": "right"
      },
      {
        "midi": 48,
        "time": 430.25,
        "duration": 0.25,
        "velocity": 0.71,
        "hand": "left"
      },
      {
        "midi": 72,
        "time": 430.25,
        "duration": 0.25,
        "velocity": 0.8,
        "hand": "right"
      },
      {
        "midi": 84,
        "time": 430.25,
        "duration": 0.25,
        "velocity": 0.8,
        "hand": "right"
      },
      {
        "midi": 44,
        "time": 430.5,
        "duration": 0.25,
        "velocity": 0.71,
        "hand": "left"
      },
      {
        "midi": 80,
        "time": 430.5,
        "duration": 0.5,
        "velocity": 0.8,
        "hand": "right"
      },
      {
        "midi": 89,
        "time": 430.5,
        "duration": 0.5,
        "velocity": 0.8,
        "hand": "right"
      },
      {
        "midi": 48,
        "time": 430.75,
        "duration": 0.25,
        "velocity": 0.71,
        "hand": "left"
      },
      {
        "midi": 56,
        "time": 430.75,
        "duration": 0.25,
        "velocity": 0.71,
        "hand": "left"
      },
      {
        "midi": 51,
        "time": 431,
        "duration": 0.25,
        "velocity": 0.71,
        "hand": "left"
      },
      {
        "midi": 80,
        "time": 431,
        "duration": 0.5,
        "velocity": 0.8,
        "hand": "right"
      },
      {
        "midi": 87,
        "time": 431,
        "duration": 0.5,
        "velocity": 0.8,
        "hand": "right"
      },
      {
        "midi": 51,
        "time": 431.25,
        "duration": 0.25,
        "velocity": 0.71,
        "hand": "left"
      },
      {
        "midi": 56,
        "time": 431.25,
        "duration": 0.25,
        "velocity": 0.71,
        "hand": "left"
      },
      {
        "midi": 48,
        "time": 431.5,
        "duration": 0.25,
        "velocity": 0.71,
        "hand": "left"
      },
      {
        "midi": 75,
        "time": 431.5,
        "duration": 0.5,
        "velocity": 0.8,
        "hand": "right"
      },
      {
        "midi": 85,
        "time": 431.5,
        "duration": 0.5,
        "velocity": 0.8,
        "hand": "right"
      },
      {
        "midi": 51,
        "time": 431.75,
        "duration": 0.25,
        "velocity": 0.71,
        "hand": "left"
      },
      {
        "midi": 60,
        "time": 431.75,
        "duration": 0.25,
        "velocity": 0.71,
        "hand": "right"
      },
      {
        "midi": 56,
        "time": 432,
        "duration": 0.25,
        "velocity": 0.71,
        "hand": "left"
      },
      {
        "midi": 72,
        "time": 432,
        "duration": 0.25,
        "velocity": 0.8,
        "hand": "right"
      },
      {
        "midi": 84,
        "time": 432,
        "duration": 0.25,
        "velocity": 0.8,
        "hand": "right"
      },
      {
        "midi": 56,
        "time": 432.25,
        "duration": 0.25,
        "velocity": 0.71,
        "hand": "left"
      },
      {
        "midi": 68,
        "time": 432.25,
        "duration": 0.25,
        "velocity": 0.8,
        "hand": "right"
      },
      {
        "midi": 80,
        "time": 432.25,
        "duration": 0.25,
        "velocity": 0.8,
        "hand": "right"
      },
      {
        "midi": 51,
        "time": 432.5,
        "duration": 0.25,
        "velocity": 0.71,
        "hand": "left"
      },
      {
        "midi": 75,
        "time": 432.5,
        "duration": 0.25,
        "velocity": 0.8,
        "hand": "right"
      },
      {
        "midi": 85,
        "time": 432.5,
        "duration": 0.25,
        "velocity": 0.8,
        "hand": "right"
      },
      {
        "midi": 56,
        "time": 432.75,
        "duration": 0.25,
        "velocity": 0.71,
        "hand": "left"
      },
      {
        "midi": 68,
        "time": 432.75,
        "duration": 0.25,
        "velocity": 0.71,
        "hand": "right"
      },
      {
        "midi": 84,
        "time": 432.75,
        "duration": 0.25,
        "velocity": 0.8,
        "hand": "right"
      },
      {
        "midi": 56,
        "time": 433,
        "duration": 0.25,
        "velocity": 0.71,
        "hand": "left"
      },
      {
        "midi": 70,
        "time": 433,
        "duration": 0.25,
        "velocity": 0.8,
        "hand": "right"
      },
      {
        "midi": 82,
        "time": 433,
        "duration": 0.25,
        "velocity": 0.8,
        "hand": "right"
      },
      {
        "midi": 51,
        "time": 433.25,
        "duration": 0.25,
        "velocity": 0.71,
        "hand": "left"
      },
      {
        "midi": 63,
        "time": 433.25,
        "duration": 0.25,
        "velocity": 0.71,
        "hand": "right"
      },
      {
        "midi": 80,
        "time": 433.25,
        "duration": 0.25,
        "velocity": 0.8,
        "hand": "right"
      },
      {
        "midi": 51,
        "time": 433.5,
        "duration": 0.25,
        "velocity": 0.71,
        "hand": "left"
      },
      {
        "midi": 65,
        "time": 433.5,
        "duration": 0.25,
        "velocity": 0.8,
        "hand": "right"
      },
      {
        "midi": 77,
        "time": 433.5,
        "duration": 0.25,
        "velocity": 0.8,
        "hand": "right"
      },
      {
        "midi": 48,
        "time": 433.75,
        "duration": 0.25,
        "velocity": 0.71,
        "hand": "left"
      },
      {
        "midi": 60,
        "time": 433.75,
        "duration": 0.25,
        "velocity": 0.71,
        "hand": "right"
      },
      {
        "midi": 75,
        "time": 433.75,
        "duration": 0.25,
        "velocity": 0.8,
        "hand": "right"
      },
      {
        "midi": 48,
        "time": 434,
        "duration": 0.25,
        "velocity": 0.71,
        "hand": "left"
      },
      {
        "midi": 61,
        "time": 434,
        "duration": 0.25,
        "velocity": 0.8,
        "hand": "right"
      },
      {
        "midi": 73,
        "time": 434,
        "duration": 0.25,
        "velocity": 0.8,
        "hand": "right"
      },
      {
        "midi": 44,
        "time": 434.25,
        "duration": 0.25,
        "velocity": 0.71,
        "hand": "left"
      },
      {
        "midi": 56,
        "time": 434.25,
        "duration": 0.25,
        "velocity": 0.71,
        "hand": "left"
      },
      {
        "midi": 72,
        "time": 434.25,
        "duration": 0.25,
        "velocity": 0.8,
        "hand": "right"
      },
      {
        "midi": 44,
        "time": 434.5,
        "duration": 0.25,
        "velocity": 0.71,
        "hand": "left"
      },
      {
        "midi": 58,
        "time": 434.5,
        "duration": 0.25,
        "velocity": 0.8,
        "hand": "left"
      },
      {
        "midi": 70,
        "time": 434.5,
        "duration": 0.25,
        "velocity": 0.8,
        "hand": "right"
      },
      {
        "midi": 39,
        "time": 434.75,
        "duration": 0.25,
        "velocity": 0.71,
        "hand": "left"
      },
      {
        "midi": 51,
        "time": 434.75,
        "duration": 0.25,
        "velocity": 0.71,
        "hand": "left"
      },
      {
        "midi": 68,
        "time": 434.75,
        "duration": 0.25,
        "velocity": 0.8,
        "hand": "right"
      },
      {
        "midi": 39,
        "time": 435,
        "duration": 0.25,
        "velocity": 0.71,
        "hand": "left"
      },
      {
        "midi": 53,
        "time": 435,
        "duration": 0.25,
        "velocity": 0.8,
        "hand": "left"
      },
      {
        "midi": 65,
        "time": 435,
        "duration": 0.25,
        "velocity": 0.8,
        "hand": "right"
      },
      {
        "midi": 36,
        "time": 435.25,
        "duration": 0.25,
        "velocity": 0.71,
        "hand": "left"
      },
      {
        "midi": 48,
        "time": 435.25,
        "duration": 0.25,
        "velocity": 0.71,
        "hand": "left"
      },
      {
        "midi": 63,
        "time": 435.25,
        "duration": 0.25,
        "velocity": 0.8,
        "hand": "right"
      },
      {
        "midi": 36,
        "time": 435.5,
        "duration": 0.25,
        "velocity": 0.71,
        "hand": "left"
      },
      {
        "midi": 49,
        "time": 435.5,
        "duration": 0.25,
        "velocity": 0.8,
        "hand": "left"
      },
      {
        "midi": 61,
        "time": 435.5,
        "duration": 0.25,
        "velocity": 0.8,
        "hand": "right"
      },
      {
        "midi": 32,
        "time": 435.75,
        "duration": 0.25,
        "velocity": 0.71,
        "hand": "left"
      },
      {
        "midi": 44,
        "time": 435.75,
        "duration": 0.25,
        "velocity": 0.71,
        "hand": "left"
      },
      {
        "midi": 60,
        "time": 435.75,
        "duration": 0.25,
        "velocity": 0.8,
        "hand": "right"
      },
      {
        "midi": 32,
        "time": 436,
        "duration": 0.25,
        "velocity": 0.71,
        "hand": "left"
      },
      {
        "midi": 56,
        "time": 436,
        "duration": 1,
        "velocity": 0.71,
        "hand": "left"
      },
      {
        "midi": 71,
        "time": 436,
        "duration": 1,
        "velocity": 0.84,
        "hand": "right"
      },
      {
        "midi": 32,
        "time": 437,
        "duration": 0.5,
        "velocity": 0.71,
        "hand": "left"
      },
      {
        "midi": 47,
        "time": 437,
        "duration": 0.5,
        "velocity": 0.84,
        "hand": "left"
      },
      {
        "midi": 59,
        "time": 437,
        "duration": 0.5,
        "velocity": 0.84,
        "hand": "left"
      },
      {
        "midi": 44,
        "time": 437.5,
        "duration": 0.5,
        "velocity": 0.71,
        "hand": "left"
      },
      {
        "midi": 59,
        "time": 437.5,
        "duration": 0.5,
        "velocity": 0.84,
        "hand": "left"
      },
      {
        "midi": 71,
        "time": 437.5,
        "duration": 0.5,
        "velocity": 0.84,
        "hand": "right"
      },
      {
        "midi": 56,
        "time": 438,
        "duration": 0.5,
        "velocity": 0.71,
        "hand": "left"
      },
      {
        "midi": 71,
        "time": 438,
        "duration": 0.5,
        "velocity": 0.84,
        "hand": "right"
      },
      {
        "midi": 83,
        "time": 438,
        "duration": 0.5,
        "velocity": 0.84,
        "hand": "right"
      },
      {
        "midi": 68,
        "time": 438.5,
        "duration": 0.5,
        "velocity": 0.71,
        "hand": "right"
      },
      {
        "midi": 83,
        "time": 438.5,
        "duration": 0.5,
        "velocity": 0.84,
        "hand": "right"
      },
      {
        "midi": 95,
        "time": 438.5,
        "duration": 0.5,
        "velocity": 0.84,
        "hand": "right"
      },
      {
        "midi": 56,
        "time": 439,
        "duration": 0.5,
        "velocity": 0.71,
        "hand": "left"
      },
      {
        "midi": 71,
        "time": 439,
        "duration": 0.5,
        "velocity": 0.84,
        "hand": "right"
      },
      {
        "midi": 83,
        "time": 439,
        "duration": 0.5,
        "velocity": 0.84,
        "hand": "right"
      },
      {
        "midi": 44,
        "time": 439.5,
        "duration": 0.5,
        "velocity": 0.71,
        "hand": "left"
      },
      {
        "midi": 59,
        "time": 439.5,
        "duration": 0.5,
        "velocity": 0.84,
        "hand": "left"
      },
      {
        "midi": 71,
        "time": 439.5,
        "duration": 0.5,
        "velocity": 0.84,
        "hand": "right"
      },
      {
        "midi": 56,
        "time": 440,
        "duration": 0.25,
        "velocity": 0.68,
        "hand": "left"
      },
      {
        "midi": 68,
        "time": 440,
        "duration": 0.25,
        "velocity": 0.68,
        "hand": "right"
      },
      {
        "midi": 59,
        "time": 440.25,
        "duration": 0.25,
        "velocity": 0.68,
        "hand": "left"
      },
      {
        "midi": 71,
        "time": 440.25,
        "duration": 0.25,
        "velocity": 0.68,
        "hand": "right"
      },
      {
        "midi": 45,
        "time": 440.5,
        "duration": 0.5,
        "velocity": 0.71,
        "hand": "left"
      },
      {
        "midi": 61,
        "time": 440.5,
        "duration": 0.5,
        "velocity": 0.68,
        "hand": "right"
      },
      {
        "midi": 73,
        "time": 440.5,
        "duration": 0.5,
        "velocity": 0.68,
        "hand": "right"
      },
      {
        "midi": 45,
        "time": 441,
        "duration": 0.5,
        "velocity": 0.71,
        "hand": "left"
      },
      {
        "midi": 61,
        "time": 441,
        "duration": 0.5,
        "velocity": 0.68,
        "hand": "right"
      },
      {
        "midi": 73,
        "time": 441,
        "duration": 0.5,
        "velocity": 0.68,
        "hand": "right"
      },
      {
        "midi": 45,
        "time": 441.5,
        "duration": 0.5,
        "velocity": 0.71,
        "hand": "left"
      },
      {
        "midi": 61,
        "time": 441.5,
        "duration": 0.5,
        "velocity": 0.68,
        "hand": "right"
      },
      {
        "midi": 73,
        "time": 441.5,
        "duration": 0.5,
        "velocity": 0.68,
        "hand": "right"
      },
      {
        "midi": 54,
        "time": 442,
        "duration": 0.25,
        "velocity": 0.68,
        "hand": "left"
      },
      {
        "midi": 66,
        "time": 442,
        "duration": 0.25,
        "velocity": 0.68,
        "hand": "right"
      },
      {
        "midi": 57,
        "time": 442.25,
        "duration": 0.25,
        "velocity": 0.68,
        "hand": "left"
      },
      {
        "midi": 69,
        "time": 442.25,
        "duration": 0.25,
        "velocity": 0.68,
        "hand": "right"
      },
      {
        "midi": 44,
        "time": 442.5,
        "duration": 0.5,
        "velocity": 0.71,
        "hand": "left"
      },
      {
        "midi": 59,
        "time": 442.5,
        "duration": 0.5,
        "velocity": 0.68,
        "hand": "left"
      },
      {
        "midi": 71,
        "time": 442.5,
        "duration": 0.5,
        "velocity": 0.68,
        "hand": "right"
      },
      {
        "midi": 44,
        "time": 443,
        "duration": 0.5,
        "velocity": 0.71,
        "hand": "left"
      },
      {
        "midi": 59,
        "time": 443,
        "duration": 0.5,
        "velocity": 0.68,
        "hand": "left"
      },
      {
        "midi": 71,
        "time": 443,
        "duration": 0.5,
        "velocity": 0.68,
        "hand": "right"
      },
      {
        "midi": 44,
        "time": 443.5,
        "duration": 0.5,
        "velocity": 0.71,
        "hand": "left"
      },
      {
        "midi": 59,
        "time": 443.5,
        "duration": 0.5,
        "velocity": 0.68,
        "hand": "left"
      },
      {
        "midi": 71,
        "time": 443.5,
        "duration": 0.5,
        "velocity": 0.68,
        "hand": "right"
      },
      {
        "midi": 51,
        "time": 444,
        "duration": 0.25,
        "velocity": 0.84,
        "hand": "left"
      },
      {
        "midi": 56,
        "time": 444,
        "duration": 0.25,
        "velocity": 0.68,
        "hand": "left"
      },
      {
        "midi": 68,
        "time": 444,
        "duration": 0.25,
        "velocity": 0.68,
        "hand": "right"
      },
      {
        "midi": 59,
        "time": 444.25,
        "duration": 0.25,
        "velocity": 0.68,
        "hand": "left"
      },
      {
        "midi": 71,
        "time": 444.25,
        "duration": 0.25,
        "velocity": 0.68,
        "hand": "right"
      },
      {
        "midi": 45,
        "time": 444.5,
        "duration": 0.5,
        "velocity": 0.71,
        "hand": "left"
      },
      {
        "midi": 61,
        "time": 444.5,
        "duration": 0.5,
        "velocity": 0.68,
        "hand": "right"
      },
      {
        "midi": 73,
        "time": 444.5,
        "duration": 0.5,
        "velocity": 0.68,
        "hand": "right"
      },
      {
        "midi": 45,
        "time": 445,
        "duration": 0.5,
        "velocity": 0.71,
        "hand": "left"
      },
      {
        "midi": 61,
        "time": 445,
        "duration": 0.5,
        "velocity": 0.68,
        "hand": "right"
      },
      {
        "midi": 73,
        "time": 445,
        "duration": 0.5,
        "velocity": 0.68,
        "hand": "right"
      },
      {
        "midi": 45,
        "time": 445.5,
        "duration": 0.5,
        "velocity": 0.71,
        "hand": "left"
      },
      {
        "midi": 61,
        "time": 445.5,
        "duration": 0.5,
        "velocity": 0.68,
        "hand": "right"
      },
      {
        "midi": 73,
        "time": 445.5,
        "duration": 0.5,
        "velocity": 0.68,
        "hand": "right"
      },
      {
        "midi": 54,
        "time": 446,
        "duration": 0.25,
        "velocity": 0.68,
        "hand": "left"
      },
      {
        "midi": 66,
        "time": 446,
        "duration": 0.25,
        "velocity": 0.68,
        "hand": "right"
      },
      {
        "midi": 57,
        "time": 446.25,
        "duration": 0.25,
        "velocity": 0.68,
        "hand": "left"
      },
      {
        "midi": 69,
        "time": 446.25,
        "duration": 0.25,
        "velocity": 0.68,
        "hand": "right"
      },
      {
        "midi": 44,
        "time": 446.5,
        "duration": 0.5,
        "velocity": 0.71,
        "hand": "left"
      },
      {
        "midi": 59,
        "time": 446.5,
        "duration": 0.5,
        "velocity": 0.68,
        "hand": "left"
      },
      {
        "midi": 71,
        "time": 446.5,
        "duration": 0.5,
        "velocity": 0.68,
        "hand": "right"
      },
      {
        "midi": 44,
        "time": 447,
        "duration": 0.5,
        "velocity": 0.71,
        "hand": "left"
      },
      {
        "midi": 59,
        "time": 447,
        "duration": 0.5,
        "velocity": 0.68,
        "hand": "left"
      },
      {
        "midi": 71,
        "time": 447,
        "duration": 0.5,
        "velocity": 0.68,
        "hand": "right"
      },
      {
        "midi": 44,
        "time": 447.5,
        "duration": 0.5,
        "velocity": 0.71,
        "hand": "left"
      },
      {
        "midi": 59,
        "time": 447.5,
        "duration": 0.5,
        "velocity": 0.68,
        "hand": "left"
      },
      {
        "midi": 71,
        "time": 447.5,
        "duration": 0.5,
        "velocity": 0.68,
        "hand": "right"
      },
      {
        "midi": 52,
        "time": 448,
        "duration": 0.25,
        "velocity": 0.68,
        "hand": "left"
      },
      {
        "midi": 64,
        "time": 448,
        "duration": 0.25,
        "velocity": 0.68,
        "hand": "right"
      },
      {
        "midi": 56,
        "time": 448.25,
        "duration": 0.25,
        "velocity": 0.68,
        "hand": "left"
      },
      {
        "midi": 68,
        "time": 448.25,
        "duration": 0.25,
        "velocity": 0.68,
        "hand": "right"
      },
      {
        "midi": 42,
        "time": 448.5,
        "duration": 0.5,
        "velocity": 0.71,
        "hand": "left"
      },
      {
        "midi": 57,
        "time": 448.5,
        "duration": 0.5,
        "velocity": 0.68,
        "hand": "left"
      },
      {
        "midi": 69,
        "time": 448.5,
        "duration": 0.5,
        "velocity": 0.68,
        "hand": "right"
      },
      {
        "midi": 42,
        "time": 449,
        "duration": 0.5,
        "velocity": 0.71,
        "hand": "left"
      },
      {
        "midi": 57,
        "time": 449,
        "duration": 0.5,
        "velocity": 0.68,
        "hand": "left"
      },
      {
        "midi": 69,
        "time": 449,
        "duration": 0.5,
        "velocity": 0.68,
        "hand": "right"
      },
      {
        "midi": 42,
        "time": 449.5,
        "duration": 0.5,
        "velocity": 0.71,
        "hand": "left"
      },
      {
        "midi": 57,
        "time": 449.5,
        "duration": 0.5,
        "velocity": 0.68,
        "hand": "left"
      },
      {
        "midi": 69,
        "time": 449.5,
        "duration": 0.5,
        "velocity": 0.68,
        "hand": "right"
      },
      {
        "midi": 51,
        "time": 450,
        "duration": 0.25,
        "velocity": 0.68,
        "hand": "left"
      },
      {
        "midi": 63,
        "time": 450,
        "duration": 0.25,
        "velocity": 0.68,
        "hand": "right"
      },
      {
        "midi": 54,
        "time": 450.25,
        "duration": 0.25,
        "velocity": 0.68,
        "hand": "left"
      },
      {
        "midi": 66,
        "time": 450.25,
        "duration": 0.25,
        "velocity": 0.68,
        "hand": "right"
      },
      {
        "midi": 40,
        "time": 450.5,
        "duration": 0.5,
        "velocity": 0.71,
        "hand": "left"
      },
      {
        "midi": 56,
        "time": 450.5,
        "duration": 0.5,
        "velocity": 0.68,
        "hand": "left"
      },
      {
        "midi": 68,
        "time": 450.5,
        "duration": 0.5,
        "velocity": 0.68,
        "hand": "right"
      },
      {
        "midi": 40,
        "time": 451,
        "duration": 0.5,
        "velocity": 0.71,
        "hand": "left"
      },
      {
        "midi": 56,
        "time": 451,
        "duration": 0.5,
        "velocity": 0.68,
        "hand": "left"
      },
      {
        "midi": 68,
        "time": 451,
        "duration": 0.5,
        "velocity": 0.68,
        "hand": "right"
      },
      {
        "midi": 40,
        "time": 451.5,
        "duration": 0.5,
        "velocity": 0.71,
        "hand": "left"
      },
      {
        "midi": 56,
        "time": 451.5,
        "duration": 0.5,
        "velocity": 0.68,
        "hand": "left"
      },
      {
        "midi": 68,
        "time": 451.5,
        "duration": 0.5,
        "velocity": 0.68,
        "hand": "right"
      },
      {
        "midi": 49,
        "time": 452,
        "duration": 0.25,
        "velocity": 0.68,
        "hand": "left"
      },
      {
        "midi": 61,
        "time": 452,
        "duration": 0.25,
        "velocity": 0.68,
        "hand": "right"
      },
      {
        "midi": 52,
        "time": 452.25,
        "duration": 0.25,
        "velocity": 0.68,
        "hand": "left"
      },
      {
        "midi": 64,
        "time": 452.25,
        "duration": 0.25,
        "velocity": 0.68,
        "hand": "right"
      },
      {
        "midi": 39,
        "time": 452.5,
        "duration": 0.5,
        "velocity": 0.71,
        "hand": "left"
      },
      {
        "midi": 54,
        "time": 452.5,
        "duration": 0.5,
        "velocity": 0.68,
        "hand": "left"
      },
      {
        "midi": 66,
        "time": 452.5,
        "duration": 0.5,
        "velocity": 0.68,
        "hand": "right"
      },
      {
        "midi": 48,
        "time": 453,
        "duration": 0.25,
        "velocity": 0.68,
        "hand": "left"
      },
      {
        "midi": 60,
        "time": 453,
        "duration": 0.25,
        "velocity": 0.68,
        "hand": "right"
      },
      {
        "midi": 51,
        "time": 453.25,
        "duration": 0.25,
        "velocity": 0.68,
        "hand": "left"
      },
      {
        "midi": 63,
        "time": 453.25,
        "duration": 0.25,
        "velocity": 0.68,
        "hand": "right"
      },
      {
        "midi": 37,
        "time": 453.5,
        "duration": 0.5,
        "velocity": 0.71,
        "hand": "left"
      },
      {
        "midi": 52,
        "time": 453.5,
        "duration": 0.5,
        "velocity": 0.68,
        "hand": "left"
      },
      {
        "midi": 64,
        "time": 453.5,
        "duration": 0.5,
        "velocity": 0.68,
        "hand": "right"
      },
      {
        "midi": 46,
        "time": 454,
        "duration": 0.25,
        "velocity": 0.68,
        "hand": "left"
      },
      {
        "midi": 58,
        "time": 454,
        "duration": 0.25,
        "velocity": 0.68,
        "hand": "left"
      },
      {
        "midi": 49,
        "time": 454.25,
        "duration": 0.25,
        "velocity": 0.68,
        "hand": "left"
      },
      {
        "midi": 61,
        "time": 454.25,
        "duration": 0.25,
        "velocity": 0.68,
        "hand": "right"
      },
      {
        "midi": 32,
        "time": 454.5,
        "duration": 0.25,
        "velocity": 0.84,
        "hand": "left"
      },
      {
        "midi": 51,
        "time": 454.5,
        "duration": 1.5,
        "velocity": 0.75,
        "hand": "left"
      },
      {
        "midi": 63,
        "time": 454.5,
        "duration": 1.5,
        "velocity": 0.75,
        "hand": "right"
      },
      {
        "midi": 48,
        "time": 455,
        "duration": 1,
        "velocity": 0.71,
        "hand": "left"
      },
      {
        "midi": 42,
        "time": 456,
        "duration": 0.5,
        "velocity": 0.84,
        "hand": "left"
      },
      {
        "midi": 54,
        "time": 456,
        "duration": 0.5,
        "velocity": 0.75,
        "hand": "left"
      },
      {
        "midi": 66,
        "time": 456,
        "duration": 0.5,
        "velocity": 0.75,
        "hand": "right"
      },
      {
        "midi": 44,
        "time": 456.5,
        "duration": 0.5,
        "velocity": 0.84,
        "hand": "left"
      },
      {
        "midi": 51,
        "time": 456.5,
        "duration": 0.5,
        "velocity": 0.75,
        "hand": "left"
      },
      {
        "midi": 63,
        "time": 456.5,
        "duration": 0.5,
        "velocity": 0.75,
        "hand": "right"
      },
      {
        "midi": 42,
        "time": 457,
        "duration": 0.5,
        "velocity": 0.84,
        "hand": "left"
      },
      {
        "midi": 54,
        "time": 457,
        "duration": 0.5,
        "velocity": 0.75,
        "hand": "left"
      },
      {
        "midi": 66,
        "time": 457,
        "duration": 0.5,
        "velocity": 0.75,
        "hand": "right"
      },
      {
        "midi": 44,
        "time": 457.5,
        "duration": 0.5,
        "velocity": 0.84,
        "hand": "left"
      },
      {
        "midi": 51,
        "time": 457.5,
        "duration": 0.5,
        "velocity": 0.75,
        "hand": "left"
      },
      {
        "midi": 63,
        "time": 457.5,
        "duration": 0.5,
        "velocity": 0.75,
        "hand": "right"
      },
      {
        "midi": 42,
        "time": 458,
        "duration": 0.5,
        "velocity": 0.84,
        "hand": "left"
      },
      {
        "midi": 54,
        "time": 458,
        "duration": 0.5,
        "velocity": 0.75,
        "hand": "left"
      },
      {
        "midi": 66,
        "time": 458,
        "duration": 0.5,
        "velocity": 0.75,
        "hand": "right"
      },
      {
        "midi": 32,
        "time": 458.5,
        "duration": 0.25,
        "velocity": 0.84,
        "hand": "left"
      },
      {
        "midi": 51,
        "time": 458.5,
        "duration": 1.5,
        "velocity": 0.75,
        "hand": "left"
      },
      {
        "midi": 63,
        "time": 458.5,
        "duration": 1.5,
        "velocity": 0.75,
        "hand": "right"
      },
      {
        "midi": 48,
        "time": 459,
        "duration": 1,
        "velocity": 0.71,
        "hand": "left"
      },
      {
        "midi": 42,
        "time": 460,
        "duration": 0.5,
        "velocity": 0.84,
        "hand": "left"
      },
      {
        "midi": 54,
        "time": 460,
        "duration": 0.5,
        "velocity": 0.75,
        "hand": "left"
      },
      {
        "midi": 66,
        "time": 460,
        "duration": 0.5,
        "velocity": 0.75,
        "hand": "right"
      },
      {
        "midi": 44,
        "time": 460.5,
        "duration": 0.5,
        "velocity": 0.84,
        "hand": "left"
      },
      {
        "midi": 51,
        "time": 460.5,
        "duration": 0.5,
        "velocity": 0.75,
        "hand": "left"
      },
      {
        "midi": 63,
        "time": 460.5,
        "duration": 0.5,
        "velocity": 0.75,
        "hand": "right"
      },
      {
        "midi": 42,
        "time": 461,
        "duration": 0.5,
        "velocity": 0.84,
        "hand": "left"
      },
      {
        "midi": 54,
        "time": 461,
        "duration": 0.5,
        "velocity": 0.75,
        "hand": "left"
      },
      {
        "midi": 66,
        "time": 461,
        "duration": 0.5,
        "velocity": 0.75,
        "hand": "right"
      },
      {
        "midi": 44,
        "time": 461.5,
        "duration": 0.5,
        "velocity": 0.84,
        "hand": "left"
      },
      {
        "midi": 51,
        "time": 461.5,
        "duration": 0.5,
        "velocity": 0.75,
        "hand": "left"
      },
      {
        "midi": 63,
        "time": 461.5,
        "duration": 0.5,
        "velocity": 0.75,
        "hand": "right"
      },
      {
        "midi": 42,
        "time": 462,
        "duration": 0.5,
        "velocity": 0.84,
        "hand": "left"
      },
      {
        "midi": 54,
        "time": 462,
        "duration": 0.5,
        "velocity": 0.75,
        "hand": "left"
      },
      {
        "midi": 66,
        "time": 462,
        "duration": 0.5,
        "velocity": 0.75,
        "hand": "right"
      },
      {
        "midi": 44,
        "time": 462.5,
        "duration": 8.5,
        "velocity": 0.84,
        "hand": "left"
      },
      {
        "midi": 51,
        "time": 462.5,
        "duration": 14,
        "velocity": 0.75,
        "hand": "left"
      },
      {
        "midi": 63,
        "time": 462.5,
        "duration": 14,
        "velocity": 0.75,
        "hand": "right"
      },
      {
        "midi": 48,
        "time": 463.5,
        "duration": 2,
        "velocity": 0.71,
        "hand": "left"
      },
      {
        "midi": 47,
        "time": 465.5,
        "duration": 1,
        "velocity": 0.71,
        "hand": "left"
      },
      {
        "midi": 48,
        "time": 466.5,
        "duration": 4.5,
        "velocity": 0.71,
        "hand": "left"
      },
      {
        "midi": 36,
        "time": 476.5,
        "duration": 0.5,
        "velocity": 0.71,
        "hand": "left"
      },
      {
        "midi": 51,
        "time": 476.5,
        "duration": 0.5,
        "velocity": 0.49,
        "hand": "left"
      },
      {
        "midi": 60,
        "time": 476.5,
        "duration": 2,
        "velocity": 0.71,
        "hand": "right"
      },
      {
        "midi": 63,
        "time": 478.5,
        "duration": 1,
        "velocity": 0.71,
        "hand": "right"
      },
      {
        "midi": 60,
        "time": 479.5,
        "duration": 1,
        "velocity": 0.71,
        "hand": "right"
      },
      {
        "midi": 44,
        "time": 480.5,
        "duration": 0.5,
        "velocity": 0.71,
        "hand": "left"
      },
      {
        "midi": 53,
        "time": 480.5,
        "duration": 0.5,
        "velocity": 0.49,
        "hand": "left"
      },
      {
        "midi": 65,
        "time": 480.5,
        "duration": 4,
        "velocity": 0.71,
        "hand": "right"
      },
      {
        "midi": 39,
        "time": 484.5,
        "duration": 0.5,
        "velocity": 0.71,
        "hand": "left"
      },
      {
        "midi": 51,
        "time": 484.5,
        "duration": 0.5,
        "velocity": 0.71,
        "hand": "left"
      },
      {
        "midi": 67,
        "time": 484.5,
        "duration": 1.5,
        "velocity": 0.71,
        "hand": "right"
      },
      {
        "midi": 65,
        "time": 486,
        "duration": 0.25,
        "velocity": 0.71,
        "hand": "right"
      },
      {
        "midi": 62,
        "time": 486.25,
        "duration": 0.25,
        "velocity": 0.71,
        "hand": "right"
      },
      {
        "midi": 63,
        "time": 486.25,
        "duration": 0.25,
        "velocity": 0.71,
        "hand": "right"
      },
      {
        "midi": 60,
        "time": 486.5,
        "duration": 1,
        "velocity": 0.71,
        "hand": "right"
      },
      {
        "midi": 60,
        "time": 487.5,
        "duration": 1,
        "velocity": 0.71,
        "hand": "right"
      },
      {
        "midi": 43,
        "time": 488.5,
        "duration": 1,
        "velocity": 0.71,
        "hand": "left"
      },
      {
        "midi": 55,
        "time": 488.5,
        "duration": 1,
        "velocity": 0.49,
        "hand": "left"
      },
      {
        "midi": 58,
        "time": 488.5,
        "duration": 1,
        "velocity": 0.71,
        "hand": "left"
      },
      {
        "midi": 55,
        "time": 489.5,
        "duration": 3,
        "velocity": 0.71,
        "hand": "left"
      },
      {
        "midi": 39,
        "time": 492.5,
        "duration": 0.5,
        "velocity": 0.71,
        "hand": "left"
      },
      {
        "midi": 55,
        "time": 492.5,
        "duration": 0.5,
        "velocity": 0.49,
        "hand": "left"
      },
      {
        "midi": 60,
        "time": 492.5,
        "duration": 1,
        "velocity": 0.71,
        "hand": "right"
      },
      {
        "midi": 60,
        "time": 493.5,
        "duration": 1,
        "velocity": 0.71,
        "hand": "right"
      },
      {
        "midi": 36,
        "time": 494.5,
        "duration": 0.5,
        "velocity": 0.71,
        "hand": "left"
      },
      {
        "midi": 51,
        "time": 494.5,
        "duration": 0.5,
        "velocity": 0.49,
        "hand": "left"
      },
      {
        "midi": 63,
        "time": 494.5,
        "duration": 1.5,
        "velocity": 0.71,
        "hand": "right"
      },
      {
        "midi": 62,
        "time": 496,
        "duration": 0.25,
        "velocity": 0.71,
        "hand": "right"
      },
      {
        "midi": 60,
        "time": 496.25,
        "duration": 0.25,
        "velocity": 0.71,
        "hand": "right"
      },
      {
        "midi": 38,
        "time": 496.5,
        "duration": 1.5,
        "velocity": 0.71,
        "hand": "left"
      },
      {
        "midi": 53,
        "time": 496.5,
        "duration": 4,
        "velocity": 0.49,
        "hand": "left"
      },
      {
        "midi": 58,
        "time": 496.5,
        "duration": 4,
        "velocity": 0.71,
        "hand": "left"
      },
      {
        "midi": 39,
        "time": 498,
        "duration": 0.5,
        "velocity": 0.71,
        "hand": "left"
      },
      {
        "midi": 38,
        "time": 498.5,
        "duration": 0.75,
        "velocity": 0.71,
        "hand": "left"
      },
      {
        "midi": 39,
        "time": 499.25,
        "duration": 0.25,
        "velocity": 0.71,
        "hand": "left"
      },
      {
        "midi": 36,
        "time": 499.5,
        "duration": 0.5,
        "velocity": 0.71,
        "hand": "left"
      },
      {
        "midi": 38,
        "time": 499.5,
        "duration": 0.25,
        "velocity": 0.71,
        "hand": "left"
      },
      {
        "midi": 38,
        "time": 500,
        "duration": 0.5,
        "velocity": 0.71,
        "hand": "left"
      },
      {
        "midi": 39,
        "time": 500.5,
        "duration": 3,
        "velocity": 0.71,
        "hand": "left"
      },
      {
        "midi": 48,
        "time": 500.5,
        "duration": 3,
        "velocity": 0.71,
        "hand": "left"
      },
      {
        "midi": 55,
        "time": 500.5,
        "duration": 2,
        "velocity": 0.71,
        "hand": "left"
      },
      {
        "midi": 60,
        "time": 501,
        "duration": 0.5,
        "velocity": 0.71,
        "hand": "right"
      },
      {
        "midi": 59,
        "time": 501.5,
        "duration": 0.5,
        "velocity": 0.71,
        "hand": "left"
      },
      {
        "midi": 60,
        "time": 502,
        "duration": 0.5,
        "velocity": 0.71,
        "hand": "right"
      },
      {
        "midi": 55,
        "time": 502.5,
        "duration": 1,
        "velocity": 0.71,
        "hand": "left"
      },
      {
        "midi": 44,
        "time": 503.5,
        "duration": 1,
        "velocity": 0.71,
        "hand": "left"
      },
      {
        "midi": 48,
        "time": 503.5,
        "duration": 1,
        "velocity": 0.71,
        "hand": "left"
      },
      {
        "midi": 53,
        "time": 503.5,
        "duration": 0.75,
        "velocity": 0.71,
        "hand": "left"
      },
      {
        "midi": 51,
        "time": 504.25,
        "duration": 0.25,
        "velocity": 0.71,
        "hand": "left"
      },
      {
        "midi": 43,
        "time": 504.5,
        "duration": 4,
        "velocity": 0.71,
        "hand": "left"
      },
      {
        "midi": 50,
        "time": 504.5,
        "duration": 2,
        "velocity": 0.49,
        "hand": "left"
      },
      {
        "midi": 55,
        "time": 504.5,
        "duration": 4,
        "velocity": 0.71,
        "hand": "left"
      },
      {
        "midi": 45,
        "time": 506.5,
        "duration": 1,
        "velocity": 0.71,
        "hand": "left"
      },
      {
        "midi": 48,
        "time": 506.5,
        "duration": 1,
        "velocity": 0.49,
        "hand": "left"
      },
      {
        "midi": 47,
        "time": 507.5,
        "duration": 1,
        "velocity": 0.71,
        "hand": "left"
      },
      {
        "midi": 50,
        "time": 507.5,
        "duration": 1,
        "velocity": 0.49,
        "hand": "left"
      },
      {
        "midi": 39,
        "time": 508.5,
        "duration": 0.5,
        "velocity": 0.71,
        "hand": "left"
      },
      {
        "midi": 55,
        "time": 508.5,
        "duration": 0.5,
        "velocity": 0.49,
        "hand": "left"
      },
      {
        "midi": 67,
        "time": 508.5,
        "duration": 1,
        "velocity": 0.71,
        "hand": "right"
      },
      {
        "midi": 67,
        "time": 509.5,
        "duration": 1,
        "velocity": 0.71,
        "hand": "right"
      },
      {
        "midi": 38,
        "time": 510.5,
        "duration": 0.5,
        "velocity": 0.71,
        "hand": "left"
      },
      {
        "midi": 56,
        "time": 510.5,
        "duration": 0.5,
        "velocity": 0.49,
        "hand": "left"
      },
      {
        "midi": 67,
        "time": 510.5,
        "duration": 1.5,
        "velocity": 0.71,
        "hand": "right"
      },
      {
        "midi": 65,
        "time": 512,
        "duration": 0.25,
        "velocity": 0.71,
        "hand": "right"
      },
      {
        "midi": 63,
        "time": 512.25,
        "duration": 0.25,
        "velocity": 0.71,
        "hand": "right"
      },
      {
        "midi": 62,
        "time": 512.5,
        "duration": 4,
        "velocity": 0.71,
        "hand": "right"
      },
      {
        "midi": 44,
        "time": 513.5,
        "duration": 2,
        "velocity": 0.71,
        "hand": "left"
      },
      {
        "midi": 53,
        "time": 513.5,
        "duration": 2,
        "velocity": 0.49,
        "hand": "left"
      },
      {
        "midi": 60,
        "time": 513.5,
        "duration": 2,
        "velocity": 0.49,
        "hand": "right"
      },
      {
        "midi": 43,
        "time": 515.5,
        "duration": 1,
        "velocity": 0.71,
        "hand": "left"
      },
      {
        "midi": 55,
        "time": 515.5,
        "duration": 1,
        "velocity": 0.49,
        "hand": "left"
      },
      {
        "midi": 59,
        "time": 515.5,
        "duration": 1,
        "velocity": 0.49,
        "hand": "left"
      },
      {
        "midi": 39,
        "time": 516.5,
        "duration": 0.5,
        "velocity": 0.71,
        "hand": "left"
      },
      {
        "midi": 55,
        "time": 516.5,
        "duration": 0.5,
        "velocity": 0.49,
        "hand": "left"
      },
      {
        "midi": 67,
        "time": 516.5,
        "duration": 1,
        "velocity": 0.71,
        "hand": "right"
      },
      {
        "midi": 67,
        "time": 517.5,
        "duration": 1,
        "velocity": 0.71,
        "hand": "right"
      },
      {
        "midi": 38,
        "time": 518.5,
        "duration": 0.5,
        "velocity": 0.71,
        "hand": "left"
      },
      {
        "midi": 56,
        "time": 518.5,
        "duration": 0.5,
        "velocity": 0.49,
        "hand": "left"
      },
      {
        "midi": 67,
        "time": 518.5,
        "duration": 1.5,
        "velocity": 0.71,
        "hand": "right"
      },
      {
        "midi": 65,
        "time": 520,
        "duration": 0.25,
        "velocity": 0.71,
        "hand": "right"
      },
      {
        "midi": 63,
        "time": 520.25,
        "duration": 0.25,
        "velocity": 0.71,
        "hand": "right"
      },
      {
        "midi": 62,
        "time": 520.5,
        "duration": 4,
        "velocity": 0.71,
        "hand": "right"
      },
      {
        "midi": 44,
        "time": 521.5,
        "duration": 2,
        "velocity": 0.71,
        "hand": "left"
      },
      {
        "midi": 53,
        "time": 521.5,
        "duration": 2,
        "velocity": 0.49,
        "hand": "left"
      },
      {
        "midi": 60,
        "time": 521.5,
        "duration": 2,
        "velocity": 0.49,
        "hand": "right"
      },
      {
        "midi": 43,
        "time": 523.5,
        "duration": 1,
        "velocity": 0.71,
        "hand": "left"
      },
      {
        "midi": 55,
        "time": 523.5,
        "duration": 1,
        "velocity": 0.49,
        "hand": "left"
      },
      {
        "midi": 59,
        "time": 523.5,
        "duration": 1,
        "velocity": 0.49,
        "hand": "left"
      },
      {
        "midi": 60,
        "time": 524.5,
        "duration": 1,
        "velocity": 0.71,
        "hand": "right"
      },
      {
        "midi": 39,
        "time": 525.5,
        "duration": 0.5,
        "velocity": 0.71,
        "hand": "left"
      },
      {
        "midi": 55,
        "time": 525.5,
        "duration": 0.5,
        "velocity": 0.49,
        "hand": "left"
      },
      {
        "midi": 60,
        "time": 525.5,
        "duration": 0.5,
        "velocity": 0.71,
        "hand": "right"
      },
      {
        "midi": 62,
        "time": 526,
        "duration": 0.5,
        "velocity": 0.71,
        "hand": "right"
      },
      {
        "midi": 65,
        "time": 526.5,
        "duration": 0.5,
        "velocity": 0.71,
        "hand": "right"
      },
      {
        "midi": 63,
        "time": 527,
        "duration": 0.5,
        "velocity": 0.71,
        "hand": "right"
      },
      {
        "midi": 36,
        "time": 527.5,
        "duration": 0.5,
        "velocity": 0.71,
        "hand": "left"
      },
      {
        "midi": 51,
        "time": 527.5,
        "duration": 0.5,
        "velocity": 0.49,
        "hand": "left"
      },
      {
        "midi": 62,
        "time": 527.5,
        "duration": 0.5,
        "velocity": 0.71,
        "hand": "right"
      },
      {
        "midi": 60,
        "time": 528,
        "duration": 0.5,
        "velocity": 0.71,
        "hand": "right"
      },
      {
        "midi": 63,
        "time": 528.5,
        "duration": 3,
        "velocity": 0.71,
        "hand": "right"
      },
      {
        "midi": 43,
        "time": 529.5,
        "duration": 2,
        "velocity": 0.71,
        "hand": "left"
      },
      {
        "midi": 51,
        "time": 529.5,
        "duration": 2,
        "velocity": 0.54,
        "hand": "left"
      },
      {
        "midi": 58,
        "time": 529.5,
        "duration": 2,
        "velocity": 0.54,
        "hand": "left"
      },
      {
        "midi": 31,
        "time": 531.5,
        "duration": 0.5,
        "velocity": 0.71,
        "hand": "left"
      },
      {
        "midi": 51,
        "time": 531.5,
        "duration": 0.5,
        "velocity": 0.54,
        "hand": "left"
      },
      {
        "midi": 63,
        "time": 531.5,
        "duration": 1,
        "velocity": 0.71,
        "hand": "right"
      },
      {
        "midi": 34,
        "time": 532.5,
        "duration": 0.5,
        "velocity": 0.71,
        "hand": "left"
      },
      {
        "midi": 53,
        "time": 532.5,
        "duration": 0.5,
        "velocity": 0.54,
        "hand": "left"
      },
      {
        "midi": 62,
        "time": 532.5,
        "duration": 1,
        "velocity": 0.71,
        "hand": "right"
      },
      {
        "midi": 36,
        "time": 533.5,
        "duration": 0.5,
        "velocity": 0.71,
        "hand": "left"
      },
      {
        "midi": 51,
        "time": 533.5,
        "duration": 0.5,
        "velocity": 0.54,
        "hand": "left"
      },
      {
        "midi": 60,
        "time": 533.5,
        "duration": 1,
        "velocity": 0.71,
        "hand": "right"
      },
      {
        "midi": 43,
        "time": 534.5,
        "duration": 0.5,
        "velocity": 0.71,
        "hand": "left"
      },
      {
        "midi": 50,
        "time": 534.5,
        "duration": 0.5,
        "velocity": 0.54,
        "hand": "left"
      },
      {
        "midi": 55,
        "time": 534.5,
        "duration": 1,
        "velocity": 0.71,
        "hand": "left"
      },
      {
        "midi": 36,
        "time": 535.5,
        "duration": 0.5,
        "velocity": 0.71,
        "hand": "left"
      },
      {
        "midi": 51,
        "time": 535.5,
        "duration": 0.5,
        "velocity": 0.54,
        "hand": "left"
      },
      {
        "midi": 60,
        "time": 535.5,
        "duration": 0.75,
        "velocity": 0.71,
        "hand": "right"
      },
      {
        "midi": 62,
        "time": 536.25,
        "duration": 0.25,
        "velocity": 0.71,
        "hand": "right"
      },
      {
        "midi": 43,
        "time": 536.5,
        "duration": 3,
        "velocity": 0.71,
        "hand": "left"
      },
      {
        "midi": 50,
        "time": 536.5,
        "duration": 3,
        "velocity": 0.54,
        "hand": "left"
      },
      {
        "midi": 60,
        "time": 536.5,
        "duration": 0.25,
        "velocity": 0.71,
        "hand": "right"
      },
      {
        "midi": 43,
        "time": 539.5,
        "duration": 0.5,
        "velocity": 0.71,
        "hand": "left"
      },
      {
        "midi": 51,
        "time": 539.5,
        "duration": 0.5,
        "velocity": 0.49,
        "hand": "left"
      },
      {
        "midi": 63,
        "time": 539.5,
        "duration": 1,
        "velocity": 0.71,
        "hand": "right"
      },
      {
        "midi": 34,
        "time": 540.5,
        "duration": 0.5,
        "velocity": 0.71,
        "hand": "left"
      },
      {
        "midi": 53,
        "time": 540.5,
        "duration": 0.5,
        "velocity": 0.49,
        "hand": "left"
      },
      {
        "midi": 62,
        "time": 540.5,
        "duration": 1,
        "velocity": 0.71,
        "hand": "right"
      },
      {
        "midi": 36,
        "time": 541.5,
        "duration": 0.5,
        "velocity": 0.71,
        "hand": "left"
      },
      {
        "midi": 51,
        "time": 541.5,
        "duration": 0.5,
        "velocity": 0.49,
        "hand": "left"
      },
      {
        "midi": 60,
        "time": 541.5,
        "duration": 1,
        "velocity": 0.71,
        "hand": "right"
      },
      {
        "midi": 43,
        "time": 542.5,
        "duration": 0.5,
        "velocity": 0.71,
        "hand": "left"
      },
      {
        "midi": 50,
        "time": 542.5,
        "duration": 0.5,
        "velocity": 0.49,
        "hand": "left"
      },
      {
        "midi": 55,
        "time": 542.5,
        "duration": 1,
        "velocity": 0.71,
        "hand": "left"
      },
      {
        "midi": 36,
        "time": 543.5,
        "duration": 0.5,
        "velocity": 0.71,
        "hand": "left"
      },
      {
        "midi": 51,
        "time": 543.5,
        "duration": 0.5,
        "velocity": 0.49,
        "hand": "left"
      },
      {
        "midi": 60,
        "time": 543.5,
        "duration": 0.75,
        "velocity": 0.71,
        "hand": "right"
      },
      {
        "midi": 62,
        "time": 544.25,
        "duration": 0.25,
        "velocity": 0.71,
        "hand": "right"
      },
      {
        "midi": 43,
        "time": 544.5,
        "duration": 3,
        "velocity": 0.71,
        "hand": "left"
      },
      {
        "midi": 50,
        "time": 544.5,
        "duration": 3,
        "velocity": 0.49,
        "hand": "left"
      },
      {
        "midi": 60,
        "time": 544.5,
        "duration": 0.25,
        "velocity": 0.71,
        "hand": "right"
      },
      {
        "midi": 36,
        "time": 547.5,
        "duration": 1,
        "velocity": 0.71,
        "hand": "left"
      },
      {
        "midi": 51,
        "time": 547.5,
        "duration": 1,
        "velocity": 0.49,
        "hand": "left"
      },
      {
        "midi": 60,
        "time": 547.5,
        "duration": 1,
        "velocity": 0.49,
        "hand": "right"
      },
      {
        "midi": 43,
        "time": 548.5,
        "duration": 3,
        "velocity": 0.71,
        "hand": "left"
      },
      {
        "midi": 50,
        "time": 548.5,
        "duration": 3,
        "velocity": 0.49,
        "hand": "left"
      },
      {
        "midi": 55,
        "time": 548.5,
        "duration": 3,
        "velocity": 0.49,
        "hand": "left"
      },
      {
        "midi": 36,
        "time": 551.5,
        "duration": 1,
        "velocity": 0.71,
        "hand": "left"
      },
      {
        "midi": 51,
        "time": 551.5,
        "duration": 1,
        "velocity": 0.49,
        "hand": "left"
      },
      {
        "midi": 60,
        "time": 551.5,
        "duration": 1,
        "velocity": 0.49,
        "hand": "right"
      },
      {
        "midi": 43,
        "time": 552.5,
        "duration": 1,
        "velocity": 0.71,
        "hand": "left"
      },
      {
        "midi": 50,
        "time": 552.5,
        "duration": 1,
        "velocity": 0.49,
        "hand": "left"
      },
      {
        "midi": 55,
        "time": 552.5,
        "duration": 1,
        "velocity": 0.49,
        "hand": "left"
      },
      {
        "midi": 36,
        "time": 553.5,
        "duration": 1,
        "velocity": 0.71,
        "hand": "left"
      },
      {
        "midi": 51,
        "time": 553.5,
        "duration": 1,
        "velocity": 0.49,
        "hand": "left"
      },
      {
        "midi": 60,
        "time": 553.5,
        "duration": 1,
        "velocity": 0.49,
        "hand": "right"
      },
      {
        "midi": 43,
        "time": 554.5,
        "duration": 1,
        "velocity": 0.71,
        "hand": "left"
      },
      {
        "midi": 50,
        "time": 554.5,
        "duration": 1,
        "velocity": 0.49,
        "hand": "left"
      },
      {
        "midi": 55,
        "time": 554.5,
        "duration": 1,
        "velocity": 0.49,
        "hand": "left"
      },
      {
        "midi": 36,
        "time": 555.5,
        "duration": 1,
        "velocity": 0.71,
        "hand": "left"
      },
      {
        "midi": 51,
        "time": 555.5,
        "duration": 1,
        "velocity": 0.49,
        "hand": "left"
      },
      {
        "midi": 60,
        "time": 555.5,
        "duration": 1,
        "velocity": 0.49,
        "hand": "right"
      },
      {
        "midi": 43,
        "time": 556.5,
        "duration": 4,
        "velocity": 0.71,
        "hand": "left"
      },
      {
        "midi": 50,
        "time": 556.5,
        "duration": 4,
        "velocity": 0.49,
        "hand": "left"
      },
      {
        "midi": 55,
        "time": 556.5,
        "duration": 4,
        "velocity": 0.49,
        "hand": "left"
      },
      {
        "midi": 36,
        "time": 560.5,
        "duration": 8,
        "velocity": 0.71,
        "hand": "left"
      },
      {
        "midi": 48,
        "time": 560.5,
        "duration": 8,
        "velocity": 0.71,
        "hand": "left"
      },
      {
        "midi": 55,
        "time": 560.5,
        "duration": 8,
        "velocity": 0.49,
        "hand": "left"
      },
      {
        "midi": 48,
        "time": 568.5,
        "duration": 0.5,
        "velocity": 0.71,
        "hand": "left"
      },
      {
        "midi": 72,
        "time": 568.5,
        "duration": 0.5,
        "velocity": 0.8,
        "hand": "right"
      },
      {
        "midi": 84,
        "time": 568.5,
        "duration": 0.5,
        "velocity": 0.8,
        "hand": "right"
      },
      {
        "midi": 36,
        "time": 569,
        "duration": 0.5,
        "velocity": 0.71,
        "hand": "left"
      },
      {
        "midi": 48,
        "time": 569,
        "duration": 0.5,
        "velocity": 0.71,
        "hand": "left"
      },
      {
        "midi": 60,
        "time": 569,
        "duration": 0.5,
        "velocity": 0.8,
        "hand": "right"
      },
      {
        "midi": 36,
        "time": 572.5,
        "duration": 0.5,
        "velocity": 0.71,
        "hand": "left"
      },
      {
        "midi": 51,
        "time": 572.5,
        "duration": 0.5,
        "velocity": 0.8,
        "hand": "left"
      },
      {
        "midi": 60,
        "time": 572.5,
        "duration": 0.5,
        "velocity": 0.8,
        "hand": "right"
      }
    ],
    "hard": [
      {
        "midi": 48,
        "time": 0,
        "duration": 1,
        "velocity": 0.54,
        "hand": "left"
      },
      {
        "midi": 55,
        "time": 0,
        "duration": 1,
        "velocity": 0.54,
        "hand": "left"
      },
      {
        "midi": 60,
        "time": 0,
        "duration": 1,
        "velocity": 0.54,
        "hand": "right"
      },
      {
        "midi": 63,
        "time": 0,
        "duration": 1,
        "velocity": 0.71,
        "hand": "right"
      },
      {
        "midi": 67,
        "time": 0,
        "duration": 1,
        "velocity": 0.71,
        "hand": "right"
      },
      {
        "midi": 72,
        "time": 0,
        "duration": 2,
        "velocity": 0.71,
        "hand": "right"
      },
      {
        "midi": 75,
        "time": 2,
        "duration": 1,
        "velocity": 0.71,
        "hand": "right"
      },
      {
        "midi": 72,
        "time": 3,
        "duration": 1,
        "velocity": 0.71,
        "hand": "right"
      },
      {
        "midi": 48,
        "time": 4,
        "duration": 4,
        "velocity": 0.54,
        "hand": "left"
      },
      {
        "midi": 56,
        "time": 4,
        "duration": 4,
        "velocity": 0.54,
        "hand": "left"
      },
      {
        "midi": 60,
        "time": 4,
        "duration": 1.5,
        "velocity": 0.71,
        "hand": "right"
      },
      {
        "midi": 65,
        "time": 4,
        "duration": 4,
        "velocity": 0.71,
        "hand": "right"
      },
      {
        "midi": 72,
        "time": 4,
        "duration": 4,
        "velocity": 0.71,
        "hand": "right"
      },
      {
        "midi": 77,
        "time": 4,
        "duration": 4,
        "velocity": 0.71,
        "hand": "right"
      },
      {
        "midi": 62,
        "time": 5.5,
        "duration": 0.5,
        "velocity": 0.82,
        "hand": "right"
      },
      {
        "midi": 60,
        "time": 6,
        "duration": 1,
        "velocity": 0.86,
        "hand": "right"
      },
      {
        "midi": 62,
        "time": 7,
        "duration": 1,
        "velocity": 0.93,
        "hand": "right"
      },
      {
        "midi": 48,
        "time": 8,
        "duration": 1,
        "velocity": 0.54,
        "hand": "left"
      },
      {
        "midi": 55,
        "time": 8,
        "duration": 1,
        "velocity": 0.54,
        "hand": "left"
      },
      {
        "midi": 63,
        "time": 8,
        "duration": 1,
        "velocity": 0.93,
        "hand": "right"
      },
      {
        "midi": 67,
        "time": 8,
        "duration": 1,
        "velocity": 0.71,
        "hand": "right"
      },
      {
        "midi": 72,
        "time": 8,
        "duration": 1,
        "velocity": 0.71,
        "hand": "right"
      },
      {
        "midi": 79,
        "time": 8,
        "duration": 1.5,
        "velocity": 0.71,
        "hand": "right"
      },
      {
        "midi": 77,
        "time": 9.5,
        "duration": 0.25,
        "velocity": 0.71,
        "hand": "right"
      },
      {
        "midi": 74,
        "time": 9.75,
        "duration": 0.25,
        "velocity": 0.71,
        "hand": "right"
      },
      {
        "midi": 75,
        "time": 9.75,
        "duration": 0.25,
        "velocity": 0.71,
        "hand": "right"
      },
      {
        "midi": 51,
        "time": 10,
        "duration": 1,
        "velocity": 0.54,
        "hand": "left"
      },
      {
        "midi": 60,
        "time": 10,
        "duration": 1,
        "velocity": 0.54,
        "hand": "right"
      },
      {
        "midi": 63,
        "time": 10,
        "duration": 1,
        "velocity": 0.54,
        "hand": "right"
      },
      {
        "midi": 72,
        "time": 10,
        "duration": 1,
        "velocity": 0.71,
        "hand": "right"
      },
      {
        "midi": 72,
        "time": 11,
        "duration": 1,
        "velocity": 0.71,
        "hand": "right"
      },
      {
        "midi": 55,
        "time": 12,
        "duration": 1,
        "velocity": 0.46,
        "hand": "left"
      },
      {
        "midi": 62,
        "time": 12,
        "duration": 1,
        "velocity": 0.46,
        "hand": "right"
      },
      {
        "midi": 67,
        "time": 12,
        "duration": 1,
        "velocity": 0.71,
        "hand": "right"
      },
      {
        "midi": 70,
        "time": 12,
        "duration": 1,
        "velocity": 0.71,
        "hand": "right"
      },
      {
        "midi": 67,
        "time": 13,
        "duration": 3,
        "velocity": 0.71,
        "hand": "right"
      },
      {
        "midi": 55,
        "time": 14.5,
        "duration": 0.5,
        "velocity": 0.36,
        "hand": "left"
      },
      {
        "midi": 57,
        "time": 15,
        "duration": 0.5,
        "velocity": 0.34,
        "hand": "left"
      },
      {
        "midi": 58,
        "time": 15.5,
        "duration": 0.5,
        "velocity": 0.32,
        "hand": "left"
      },
      {
        "midi": 51,
        "time": 16,
        "duration": 1,
        "velocity": 0.32,
        "hand": "left"
      },
      {
        "midi": 55,
        "time": 16,
        "duration": 1,
        "velocity": 0.32,
        "hand": "left"
      },
      {
        "midi": 60,
        "time": 16,
        "duration": 1,
        "velocity": 0.71,
        "hand": "right"
      },
      {
        "midi": 67,
        "time": 16,
        "duration": 1,
        "velocity": 0.71,
        "hand": "right"
      },
      {
        "midi": 72,
        "time": 16,
        "duration": 1,
        "velocity": 0.71,
        "hand": "right"
      },
      {
        "midi": 72,
        "time": 17,
        "duration": 1,
        "velocity": 0.71,
        "hand": "right"
      },
      {
        "midi": 48,
        "time": 18,
        "duration": 1,
        "velocity": 0.32,
        "hand": "left"
      },
      {
        "midi": 55,
        "time": 18,
        "duration": 1,
        "velocity": 0.32,
        "hand": "left"
      },
      {
        "midi": 60,
        "time": 18,
        "duration": 1,
        "velocity": 0.32,
        "hand": "right"
      },
      {
        "midi": 63,
        "time": 18,
        "duration": 1,
        "velocity": 0.71,
        "hand": "right"
      },
      {
        "midi": 67,
        "time": 18,
        "duration": 1,
        "velocity": 0.71,
        "hand": "right"
      },
      {
        "midi": 72,
        "time": 18,
        "duration": 1,
        "velocity": 0.71,
        "hand": "right"
      },
      {
        "midi": 75,
        "time": 18,
        "duration": 1.5,
        "velocity": 0.71,
        "hand": "right"
      },
      {
        "midi": 74,
        "time": 19.5,
        "duration": 0.25,
        "velocity": 0.71,
        "hand": "right"
      },
      {
        "midi": 72,
        "time": 19.75,
        "duration": 0.25,
        "velocity": 0.71,
        "hand": "right"
      },
      {
        "midi": 50,
        "time": 20,
        "duration": 1.5,
        "velocity": 0.32,
        "hand": "left"
      },
      {
        "midi": 53,
        "time": 20,
        "duration": 4,
        "velocity": 0.93,
        "hand": "left"
      },
      {
        "midi": 58,
        "time": 20,
        "duration": 4,
        "velocity": 0.93,
        "hand": "left"
      },
      {
        "midi": 65,
        "time": 20,
        "duration": 4,
        "velocity": 0.71,
        "hand": "right"
      },
      {
        "midi": 70,
        "time": 20,
        "duration": 4,
        "velocity": 0.71,
        "hand": "right"
      },
      {
        "midi": 51,
        "time": 21.5,
        "duration": 0.5,
        "velocity": 0.32,
        "hand": "left"
      },
      {
        "midi": 50,
        "time": 22,
        "duration": 0.75,
        "velocity": 0.32,
        "hand": "left"
      },
      {
        "midi": 51,
        "time": 22.75,
        "duration": 0.25,
        "velocity": 0.32,
        "hand": "left"
      },
      {
        "midi": 48,
        "time": 23,
        "duration": 0.5,
        "velocity": 0.32,
        "hand": "left"
      },
      {
        "midi": 50,
        "time": 23,
        "duration": 0.25,
        "velocity": 0.32,
        "hand": "left"
      },
      {
        "midi": 50,
        "time": 23.5,
        "duration": 0.5,
        "velocity": 0.32,
        "hand": "left"
      },
      {
        "midi": 51,
        "time": 24,
        "duration": 3,
        "velocity": 0.32,
        "hand": "left"
      },
      {
        "midi": 55,
        "time": 24,
        "duration": 3,
        "velocity": 0.93,
        "hand": "left"
      },
      {
        "midi": 60,
        "time": 24,
        "duration": 3,
        "velocity": 0.71,
        "hand": "right"
      },
      {
        "midi": 67,
        "time": 24,
        "duration": 2,
        "velocity": 0.71,
        "hand": "right"
      },
      {
        "midi": 72,
        "time": 24.5,
        "duration": 0.5,
        "velocity": 0.71,
        "hand": "right"
      },
      {
        "midi": 71,
        "time": 25,
        "duration": 0.5,
        "velocity": 0.71,
        "hand": "right"
      },
      {
        "midi": 72,
        "time": 25.5,
        "duration": 0.5,
        "velocity": 0.71,
        "hand": "right"
      },
      {
        "midi": 67,
        "time": 26,
        "duration": 1,
        "velocity": 0.71,
        "hand": "right"
      },
      {
        "midi": 56,
        "time": 27,
        "duration": 1,
        "velocity": 0.32,
        "hand": "left"
      },
      {
        "midi": 60,
        "time": 27,
        "duration": 1,
        "velocity": 0.93,
        "hand": "right"
      },
      {
        "midi": 65,
        "time": 27,
        "duration": 0.75,
        "velocity": 0.71,
        "hand": "right"
      },
      {
        "midi": 63,
        "time": 27.75,
        "duration": 0.25,
        "velocity": 0.71,
        "hand": "right"
      },
      {
        "midi": 55,
        "time": 28,
        "duration": 4,
        "velocity": 0.32,
        "hand": "left"
      },
      {
        "midi": 59,
        "time": 28,
        "duration": 2,
        "velocity": 0.93,
        "hand": "left"
      },
      {
        "midi": 62,
        "time": 28,
        "duration": 2,
        "velocity": 0.71,
        "hand": "right"
      },
      {
        "midi": 65,
        "time": 28,
        "duration": 0.25,
        "velocity": 0.71,
        "hand": "right"
      },
      {
        "midi": 67,
        "time": 28,
        "duration": 4,
        "velocity": 0.71,
        "hand": "right"
      },
      {
        "midi": 60,
        "time": 30,
        "duration": 1,
        "velocity": 0.93,
        "hand": "right"
      },
      {
        "midi": 63,
        "time": 30,
        "duration": 1,
        "velocity": 0.86,
        "hand": "right"
      },
      {
        "midi": 62,
        "time": 31,
        "duration": 1,
        "velocity": 0.93,
        "hand": "right"
      },
      {
        "midi": 65,
        "time": 31,
        "duration": 1,
        "velocity": 0.93,
        "hand": "right"
      },
      {
        "midi": 51,
        "time": 32,
        "duration": 2,
        "velocity": 0.32,
        "hand": "left"
      },
      {
        "midi": 55,
        "time": 32,
        "duration": 2,
        "velocity": 0.32,
        "hand": "left"
      },
      {
        "midi": 60,
        "time": 32,
        "duration": 2,
        "velocity": 0.93,
        "hand": "right"
      },
      {
        "midi": 67,
        "time": 32,
        "duration": 1,
        "velocity": 0.71,
        "hand": "right"
      },
      {
        "midi": 72,
        "time": 32,
        "duration": 2,
        "velocity": 0.93,
        "hand": "right"
      },
      {
        "midi": 79,
        "time": 32,
        "duration": 1,
        "velocity": 0.71,
        "hand": "right"
      },
      {
        "midi": 67,
        "time": 33,
        "duration": 1,
        "velocity": 0.71,
        "hand": "right"
      },
      {
        "midi": 79,
        "time": 33,
        "duration": 1,
        "velocity": 0.71,
        "hand": "right"
      },
      {
        "midi": 50,
        "time": 34,
        "duration": 1,
        "velocity": 0.32,
        "hand": "left"
      },
      {
        "midi": 56,
        "time": 34,
        "duration": 1,
        "velocity": 0.32,
        "hand": "left"
      },
      {
        "midi": 60,
        "time": 34,
        "duration": 1,
        "velocity": 0.32,
        "hand": "right"
      },
      {
        "midi": 67,
        "time": 34,
        "duration": 1.5,
        "velocity": 0.93,
        "hand": "right"
      },
      {
        "midi": 68,
        "time": 34,
        "duration": 2,
        "velocity": 0.93,
        "hand": "right"
      },
      {
        "midi": 72,
        "time": 34,
        "duration": 2,
        "velocity": 0.93,
        "hand": "right"
      },
      {
        "midi": 79,
        "time": 34,
        "duration": 1.5,
        "velocity": 0.71,
        "hand": "right"
      },
      {
        "midi": 65,
        "time": 35.5,
        "duration": 0.25,
        "velocity": 0.93,
        "hand": "right"
      },
      {
        "midi": 77,
        "time": 35.5,
        "duration": 0.25,
        "velocity": 0.71,
        "hand": "right"
      },
      {
        "midi": 63,
        "time": 35.75,
        "duration": 0.25,
        "velocity": 0.93,
        "hand": "right"
      },
      {
        "midi": 75,
        "time": 35.75,
        "duration": 0.25,
        "velocity": 0.71,
        "hand": "right"
      },
      {
        "midi": 62,
        "time": 36,
        "duration": 4,
        "velocity": 0.93,
        "hand": "right"
      },
      {
        "midi": 74,
        "time": 36,
        "duration": 4,
        "velocity": 0.71,
        "hand": "right"
      },
      {
        "midi": 56,
        "time": 37,
        "duration": 2,
        "velocity": 0.32,
        "hand": "left"
      },
      {
        "midi": 60,
        "time": 37,
        "duration": 2,
        "velocity": 0.32,
        "hand": "right"
      },
      {
        "midi": 65,
        "time": 37,
        "duration": 2,
        "velocity": 0.93,
        "hand": "right"
      },
      {
        "midi": 72,
        "time": 37,
        "duration": 2,
        "velocity": 0.93,
        "hand": "right"
      },
      {
        "midi": 55,
        "time": 39,
        "duration": 1,
        "velocity": 0.32,
        "hand": "left"
      },
      {
        "midi": 59,
        "time": 39,
        "duration": 1,
        "velocity": 0.32,
        "hand": "left"
      },
      {
        "midi": 67,
        "time": 39,
        "duration": 1,
        "velocity": 0.93,
        "hand": "right"
      },
      {
        "midi": 71,
        "time": 39,
        "duration": 1,
        "velocity": 0.93,
        "hand": "right"
      },
      {
        "midi": 51,
        "time": 40,
        "duration": 2,
        "velocity": 0.32,
        "hand": "left"
      },
      {
        "midi": 55,
        "time": 40,
        "duration": 2,
        "velocity": 0.32,
        "hand": "left"
      },
      {
        "midi": 60,
        "time": 40,
        "duration": 2,
        "velocity": 0.93,
        "hand": "right"
      },
      {
        "midi": 67,
        "time": 40,
        "duration": 1,
        "velocity": 0.71,
        "hand": "right"
      },
      {
        "midi": 72,
        "time": 40,
        "duration": 2,
        "velocity": 0.93,
        "hand": "right"
      },
      {
        "midi": 79,
        "time": 40,
        "duration": 1,
        "velocity": 0.71,
        "hand": "right"
      },
      {
        "midi": 67,
        "time": 41,
        "duration": 1,
        "velocity": 0.71,
        "hand": "right"
      },
      {
        "midi": 79,
        "time": 41,
        "duration": 1,
        "velocity": 0.71,
        "hand": "right"
      },
      {
        "midi": 50,
        "time": 42,
        "duration": 1,
        "velocity": 0.32,
        "hand": "left"
      },
      {
        "midi": 56,
        "time": 42,
        "duration": 1,
        "velocity": 0.32,
        "hand": "left"
      },
      {
        "midi": 60,
        "time": 42,
        "duration": 1,
        "velocity": 0.32,
        "hand": "right"
      },
      {
        "midi": 67,
        "time": 42,
        "duration": 1.5,
        "velocity": 0.93,
        "hand": "right"
      },
      {
        "midi": 68,
        "time": 42,
        "duration": 2,
        "velocity": 0.93,
        "hand": "right"
      },
      {
        "midi": 72,
        "time": 42,
        "duration": 2,
        "velocity": 0.93,
        "hand": "right"
      },
      {
        "midi": 79,
        "time": 42,
        "duration": 1.5,
        "velocity": 0.71,
        "hand": "right"
      },
      {
        "midi": 65,
        "time": 43.5,
        "duration": 0.25,
        "velocity": 0.93,
        "hand": "right"
      },
      {
        "midi": 77,
        "time": 43.5,
        "duration": 0.25,
        "velocity": 0.71,
        "hand": "right"
      },
      {
        "midi": 63,
        "time": 43.75,
        "duration": 0.25,
        "velocity": 0.93,
        "hand": "right"
      },
      {
        "midi": 75,
        "time": 43.75,
        "duration": 0.25,
        "velocity": 0.71,
        "hand": "right"
      },
      {
        "midi": 62,
        "time": 44,
        "duration": 4,
        "velocity": 0.93,
        "hand": "right"
      },
      {
        "midi": 74,
        "time": 44,
        "duration": 4,
        "velocity": 0.71,
        "hand": "right"
      },
      {
        "midi": 56,
        "time": 45,
        "duration": 2,
        "velocity": 0.32,
        "hand": "left"
      },
      {
        "midi": 60,
        "time": 45,
        "duration": 2,
        "velocity": 0.32,
        "hand": "right"
      },
      {
        "midi": 65,
        "time": 45,
        "duration": 2,
        "velocity": 0.93,
        "hand": "right"
      },
      {
        "midi": 72,
        "time": 45,
        "duration": 2,
        "velocity": 0.93,
        "hand": "right"
      },
      {
        "midi": 55,
        "time": 47,
        "duration": 1,
        "velocity": 0.32,
        "hand": "left"
      },
      {
        "midi": 59,
        "time": 47,
        "duration": 1,
        "velocity": 0.32,
        "hand": "left"
      },
      {
        "midi": 67,
        "time": 47,
        "duration": 1,
        "velocity": 0.93,
        "hand": "right"
      },
      {
        "midi": 71,
        "time": 47,
        "duration": 1,
        "velocity": 0.93,
        "hand": "right"
      },
      {
        "midi": 48,
        "time": 48,
        "duration": 1,
        "velocity": 0.32,
        "hand": "left"
      },
      {
        "midi": 55,
        "time": 48,
        "duration": 1,
        "velocity": 0.32,
        "hand": "left"
      },
      {
        "midi": 60,
        "time": 48,
        "duration": 1,
        "velocity": 0.93,
        "hand": "right"
      },
      {
        "midi": 63,
        "time": 48,
        "duration": 1,
        "velocity": 0.93,
        "hand": "right"
      },
      {
        "midi": 67,
        "time": 48,
        "duration": 1,
        "velocity": 0.93,
        "hand": "right"
      },
      {
        "midi": 72,
        "time": 48,
        "duration": 1,
        "velocity": 0.71,
        "hand": "right"
      },
      {
        "midi": 60,
        "time": 49,
        "duration": 0.5,
        "velocity": 0.93,
        "hand": "right"
      },
      {
        "midi": 72,
        "time": 49,
        "duration": 0.5,
        "velocity": 0.71,
        "hand": "right"
      },
      {
        "midi": 62,
        "time": 49.5,
        "duration": 0.5,
        "velocity": 0.93,
        "hand": "right"
      },
      {
        "midi": 74,
        "time": 49.5,
        "duration": 0.5,
        "velocity": 0.71,
        "hand": "right"
      },
      {
        "midi": 65,
        "time": 50,
        "duration": 0.5,
        "velocity": 0.93,
        "hand": "right"
      },
      {
        "midi": 77,
        "time": 50,
        "duration": 0.5,
        "velocity": 0.71,
        "hand": "right"
      },
      {
        "midi": 63,
        "time": 50.5,
        "duration": 0.5,
        "velocity": 0.93,
        "hand": "right"
      },
      {
        "midi": 75,
        "time": 50.5,
        "duration": 0.5,
        "velocity": 0.71,
        "hand": "right"
      },
      {
        "midi": 62,
        "time": 51,
        "duration": 0.5,
        "velocity": 0.93,
        "hand": "right"
      },
      {
        "midi": 74,
        "time": 51,
        "duration": 0.5,
        "velocity": 0.71,
        "hand": "right"
      },
      {
        "midi": 60,
        "time": 51.5,
        "duration": 0.5,
        "velocity": 0.93,
        "hand": "right"
      },
      {
        "midi": 72,
        "time": 51.5,
        "duration": 0.5,
        "velocity": 0.71,
        "hand": "right"
      },
      {
        "midi": 63,
        "time": 52,
        "duration": 3,
        "velocity": 0.93,
        "hand": "right"
      },
      {
        "midi": 75,
        "time": 52,
        "duration": 3,
        "velocity": 0.71,
        "hand": "right"
      },
      {
        "midi": 43,
        "time": 54,
        "duration": 1,
        "velocity": 0.32,
        "hand": "left"
      },
      {
        "midi": 51,
        "time": 54,
        "duration": 1,
        "velocity": 0.32,
        "hand": "left"
      },
      {
        "midi": 58,
        "time": 54,
        "duration": 1,
        "velocity": 0.32,
        "hand": "left"
      },
      {
        "midi": 63,
        "time": 54,
        "duration": 1,
        "velocity": 0.93,
        "hand": "right"
      },
      {
        "midi": 70,
        "time": 54,
        "duration": 1,
        "velocity": 0.93,
        "hand": "right"
      },
      {
        "midi": 63,
        "time": 55,
        "duration": 1,
        "velocity": 0.93,
        "hand": "right"
      },
      {
        "midi": 75,
        "time": 55,
        "duration": 1,
        "velocity": 0.71,
        "hand": "right"
      },
      {
        "midi": 46,
        "time": 56,
        "duration": 0.5,
        "velocity": 0.32,
        "hand": "left"
      },
      {
        "midi": 53,
        "time": 56,
        "duration": 0.5,
        "velocity": 0.32,
        "hand": "left"
      },
      {
        "midi": 58,
        "time": 56,
        "duration": 0.5,
        "velocity": 0.32,
        "hand": "left"
      },
      {
        "midi": 62,
        "time": 56,
        "duration": 0.5,
        "velocity": 0.93,
        "hand": "right"
      },
      {
        "midi": 65,
        "time": 56,
        "duration": 0.5,
        "velocity": 0.93,
        "hand": "right"
      },
      {
        "midi": 70,
        "time": 56,
        "duration": 0.5,
        "velocity": 0.93,
        "hand": "right"
      },
      {
        "midi": 74,
        "time": 56,
        "duration": 1,
        "velocity": 0.71,
        "hand": "right"
      },
      {
        "midi": 48,
        "time": 57,
        "duration": 0.5,
        "velocity": 0.32,
        "hand": "left"
      },
      {
        "midi": 51,
        "time": 57,
        "duration": 0.5,
        "velocity": 0.32,
        "hand": "left"
      },
      {
        "midi": 55,
        "time": 57,
        "duration": 0.5,
        "velocity": 0.32,
        "hand": "left"
      },
      {
        "midi": 60,
        "time": 57,
        "duration": 0.5,
        "velocity": 0.32,
        "hand": "right"
      },
      {
        "midi": 63,
        "time": 57,
        "duration": 0.5,
        "velocity": 0.93,
        "hand": "right"
      },
      {
        "midi": 67,
        "time": 57,
        "duration": 0.5,
        "velocity": 0.93,
        "hand": "right"
      },
      {
        "midi": 72,
        "time": 57,
        "duration": 1,
        "velocity": 0.71,
        "hand": "right"
      },
      {
        "midi": 55,
        "time": 58,
        "duration": 0.5,
        "velocity": 0.32,
        "hand": "left"
      },
      {
        "midi": 59,
        "time": 58,
        "duration": 0.5,
        "velocity": 0.32,
        "hand": "left"
      },
      {
        "midi": 62,
        "time": 58,
        "duration": 0.5,
        "velocity": 0.93,
        "hand": "right"
      },
      {
        "midi": 67,
        "time": 58,
        "duration": 1,
        "velocity": 0.71,
        "hand": "right"
      },
      {
        "midi": 48,
        "time": 59,
        "duration": 0.5,
        "velocity": 0.32,
        "hand": "left"
      },
      {
        "midi": 55,
        "time": 59,
        "duration": 0.5,
        "velocity": 0.32,
        "hand": "left"
      },
      {
        "midi": 60,
        "time": 59,
        "duration": 0.5,
        "velocity": 0.32,
        "hand": "right"
      },
      {
        "midi": 63,
        "time": 59,
        "duration": 0.5,
        "velocity": 0.93,
        "hand": "right"
      },
      {
        "midi": 67,
        "time": 59,
        "duration": 0.5,
        "velocity": 0.93,
        "hand": "right"
      },
      {
        "midi": 72,
        "time": 59,
        "duration": 0.75,
        "velocity": 0.71,
        "hand": "right"
      },
      {
        "midi": 74,
        "time": 59.75,
        "duration": 0.25,
        "velocity": 0.71,
        "hand": "right"
      },
      {
        "midi": 55,
        "time": 60,
        "duration": 3,
        "velocity": 0.32,
        "hand": "left"
      },
      {
        "midi": 59,
        "time": 60,
        "duration": 3,
        "velocity": 0.32,
        "hand": "left"
      },
      {
        "midi": 62,
        "time": 60,
        "duration": 3,
        "velocity": 0.93,
        "hand": "right"
      },
      {
        "midi": 67,
        "time": 60,
        "duration": 3,
        "velocity": 0.71,
        "hand": "right"
      },
      {
        "midi": 72,
        "time": 60,
        "duration": 0.25,
        "velocity": 0.71,
        "hand": "right"
      },
      {
        "midi": 53,
        "time": 63,
        "duration": 2,
        "velocity": 0.32,
        "hand": "left"
      },
      {
        "midi": 60,
        "time": 63,
        "duration": 2,
        "velocity": 0.32,
        "hand": "right"
      },
      {
        "midi": 65,
        "time": 63,
        "duration": 2,
        "velocity": 0.93,
        "hand": "right"
      },
      {
        "midi": 68,
        "time": 63,
        "duration": 2.5,
        "velocity": 0.71,
        "hand": "right"
      },
      {
        "midi": 71,
        "time": 65.5,
        "duration": 0.5,
        "velocity": 0.71,
        "hand": "right"
      },
      {
        "midi": 72,
        "time": 66,
        "duration": 0.5,
        "velocity": 0.71,
        "hand": "right"
      },
      {
        "midi": 74,
        "time": 66.5,
        "duration": 0.5,
        "velocity": 0.71,
        "hand": "right"
      },
      {
        "midi": 75,
        "time": 67,
        "duration": 0.5,
        "velocity": 0.71,
        "hand": "right"
      },
      {
        "midi": 76,
        "time": 67.5,
        "duration": 0.5,
        "velocity": 0.71,
        "hand": "right"
      },
      {
        "midi": 77,
        "time": 68,
        "duration": 0.5,
        "velocity": 0.71,
        "hand": "right"
      },
      {
        "midi": 79,
        "time": 68.5,
        "duration": 0.5,
        "velocity": 0.71,
        "hand": "right"
      },
      {
        "midi": 82,
        "time": 69,
        "duration": 1.5,
        "velocity": 0.71,
        "hand": "right"
      },
      {
        "midi": 65,
        "time": 70,
        "duration": 12.5,
        "velocity": 0.93,
        "hand": "right"
      },
      {
        "midi": 68,
        "time": 70,
        "duration": 12.5,
        "velocity": 0.93,
        "hand": "right"
      },
      {
        "midi": 74,
        "time": 70,
        "duration": 12.5,
        "velocity": 0.93,
        "hand": "right"
      },
      {
        "midi": 80,
        "time": 70.5,
        "duration": 0.5,
        "velocity": 0.61,
        "hand": "right"
      },
      {
        "midi": 79,
        "time": 71,
        "duration": 0.5,
        "velocity": 0.61,
        "hand": "right"
      },
      {
        "midi": 77,
        "time": 71.5,
        "duration": 0.5,
        "velocity": 0.61,
        "hand": "right"
      },
      {
        "midi": 82,
        "time": 72,
        "duration": 0.5,
        "velocity": 0.61,
        "hand": "right"
      },
      {
        "midi": 80,
        "time": 72.5,
        "duration": 0.5,
        "velocity": 0.57,
        "hand": "right"
      },
      {
        "midi": 79,
        "time": 73,
        "duration": 0.5,
        "velocity": 0.54,
        "hand": "right"
      },
      {
        "midi": 77,
        "time": 73.5,
        "duration": 0.5,
        "velocity": 0.51,
        "hand": "right"
      },
      {
        "midi": 82,
        "time": 74,
        "duration": 0.5,
        "velocity": 0.48,
        "hand": "right"
      },
      {
        "midi": 80,
        "time": 74.5,
        "duration": 0.5,
        "velocity": 0.45,
        "hand": "right"
      },
      {
        "midi": 79,
        "time": 75,
        "duration": 0.5,
        "velocity": 0.41,
        "hand": "right"
      },
      {
        "midi": 77,
        "time": 75.5,
        "duration": 1,
        "velocity": 0.38,
        "hand": "right"
      },
      {
        "midi": 84,
        "time": 76.5,
        "duration": 0.5,
        "velocity": 0.54,
        "hand": "right"
      },
      {
        "midi": 83,
        "time": 77,
        "duration": 0.5,
        "velocity": 0.54,
        "hand": "right"
      },
      {
        "midi": 84,
        "time": 77.5,
        "duration": 0.5,
        "velocity": 0.54,
        "hand": "right"
      },
      {
        "midi": 82,
        "time": 78,
        "duration": 0.5,
        "velocity": 0.54,
        "hand": "right"
      },
      {
        "midi": 80,
        "time": 78.5,
        "duration": 0.5,
        "velocity": 0.54,
        "hand": "right"
      },
      {
        "midi": 79,
        "time": 79,
        "duration": 0.5,
        "velocity": 0.54,
        "hand": "right"
      },
      {
        "midi": 77,
        "time": 79.5,
        "duration": 1,
        "velocity": 0.54,
        "hand": "right"
      },
      {
        "midi": 84,
        "time": 80.5,
        "duration": 0.5,
        "velocity": 0.54,
        "hand": "right"
      },
      {
        "midi": 83,
        "time": 81,
        "duration": 0.5,
        "velocity": 0.54,
        "hand": "right"
      },
      {
        "midi": 84,
        "time": 81.5,
        "duration": 0.5,
        "velocity": 0.54,
        "hand": "right"
      },
      {
        "midi": 82,
        "time": 82,
        "duration": 0.5,
        "velocity": 0.54,
        "hand": "right"
      },
      {
        "midi": 80,
        "time": 82.5,
        "duration": 0.5,
        "velocity": 0.54,
        "hand": "right"
      },
      {
        "midi": 79,
        "time": 83,
        "duration": 0.5,
        "velocity": 0.54,
        "hand": "right"
      },
      {
        "midi": 77,
        "time": 83.5,
        "duration": 0.75,
        "velocity": 0.54,
        "hand": "right"
      },
      {
        "midi": 84,
        "time": 84.25,
        "duration": 0.25,
        "velocity": 0.53,
        "hand": "right"
      },
      {
        "midi": 83,
        "time": 84.5,
        "duration": 0.25,
        "velocity": 0.52,
        "hand": "right"
      },
      {
        "midi": 84,
        "time": 84.75,
        "duration": 0.25,
        "velocity": 0.5,
        "hand": "right"
      },
      {
        "midi": 82,
        "time": 85,
        "duration": 0.25,
        "velocity": 0.49,
        "hand": "right"
      },
      {
        "midi": 80,
        "time": 85.25,
        "duration": 0.25,
        "velocity": 0.47,
        "hand": "right"
      },
      {
        "midi": 79,
        "time": 85.5,
        "duration": 0.25,
        "velocity": 0.46,
        "hand": "right"
      },
      {
        "midi": 77,
        "time": 85.75,
        "duration": 0.5,
        "velocity": 0.44,
        "hand": "right"
      },
      {
        "midi": 84,
        "time": 86.25,
        "duration": 0.25,
        "velocity": 0.41,
        "hand": "right"
      },
      {
        "midi": 83,
        "time": 86.5,
        "duration": 0.25,
        "velocity": 0.39,
        "hand": "right"
      },
      {
        "midi": 84,
        "time": 86.75,
        "duration": 0.25,
        "velocity": 0.38,
        "hand": "right"
      },
      {
        "midi": 82,
        "time": 87,
        "duration": 0.25,
        "velocity": 0.36,
        "hand": "right"
      },
      {
        "midi": 80,
        "time": 87.25,
        "duration": 0.25,
        "velocity": 0.35,
        "hand": "right"
      },
      {
        "midi": 79,
        "time": 87.5,
        "duration": 0.25,
        "velocity": 0.34,
        "hand": "right"
      },
      {
        "midi": 77,
        "time": 87.75,
        "duration": 0.5,
        "velocity": 0.32,
        "hand": "right"
      },
      {
        "midi": 84,
        "time": 88.25,
        "duration": 0.25,
        "velocity": 0.49,
        "hand": "right"
      },
      {
        "midi": 83,
        "time": 88.5,
        "duration": 0.25,
        "velocity": 0.49,
        "hand": "right"
      },
      {
        "midi": 84,
        "time": 88.75,
        "duration": 0.25,
        "velocity": 0.49,
        "hand": "right"
      },
      {
        "midi": 82,
        "time": 89,
        "duration": 0.25,
        "velocity": 0.49,
        "hand": "right"
      },
      {
        "midi": 80,
        "time": 89.25,
        "duration": 0.25,
        "velocity": 0.49,
        "hand": "right"
      },
      {
        "midi": 79,
        "time": 89.5,
        "duration": 0.25,
        "velocity": 0.49,
        "hand": "right"
      },
      {
        "midi": 77,
        "time": 89.75,
        "duration": 0.25,
        "velocity": 0.49,
        "hand": "right"
      },
      {
        "midi": 75,
        "time": 90,
        "duration": 0.25,
        "velocity": 0.49,
        "hand": "right"
      },
      {
        "midi": 84,
        "time": 90.25,
        "duration": 0.25,
        "velocity": 0.49,
        "hand": "right"
      },
      {
        "midi": 83,
        "time": 90.5,
        "duration": 0.25,
        "velocity": 0.49,
        "hand": "right"
      },
      {
        "midi": 84,
        "time": 90.75,
        "duration": 0.25,
        "velocity": 0.49,
        "hand": "right"
      },
      {
        "midi": 80,
        "time": 91,
        "duration": 0.25,
        "velocity": 0.49,
        "hand": "right"
      },
      {
        "midi": 79,
        "time": 91.25,
        "duration": 0.25,
        "velocity": 0.49,
        "hand": "right"
      },
      {
        "midi": 77,
        "time": 91.5,
        "duration": 0.25,
        "velocity": 0.49,
        "hand": "right"
      },
      {
        "midi": 75,
        "time": 91.75,
        "duration": 0.25,
        "velocity": 0.49,
        "hand": "right"
      },
      {
        "midi": 74,
        "time": 92,
        "duration": 0.25,
        "velocity": 0.49,
        "hand": "right"
      },
      {
        "midi": 84,
        "time": 92.25,
        "duration": 0.25,
        "velocity": 0.49,
        "hand": "right"
      },
      {
        "midi": 83,
        "time": 92.5,
        "duration": 0.25,
        "velocity": 0.49,
        "hand": "right"
      },
      {
        "midi": 84,
        "time": 92.75,
        "duration": 0.25,
        "velocity": 0.49,
        "hand": "right"
      },
      {
        "midi": 79,
        "time": 93,
        "duration": 0.25,
        "velocity": 0.49,
        "hand": "right"
      },
      {
        "midi": 77,
        "time": 93.25,
        "duration": 0.25,
        "velocity": 0.49,
        "hand": "right"
      },
      {
        "midi": 75,
        "time": 93.5,
        "duration": 0.25,
        "velocity": 0.49,
        "hand": "right"
      },
      {
        "midi": 74,
        "time": 93.75,
        "duration": 0.25,
        "velocity": 0.49,
        "hand": "right"
      },
      {
        "midi": 48,
        "time": 94,
        "duration": 1,
        "velocity": 0.32,
        "hand": "left"
      },
      {
        "midi": 51,
        "time": 94,
        "duration": 1,
        "velocity": 0.32,
        "hand": "left"
      },
      {
        "midi": 55,
        "time": 94,
        "duration": 1,
        "velocity": 0.32,
        "hand": "left"
      },
      {
        "midi": 60,
        "time": 94,
        "duration": 2,
        "velocity": 0.93,
        "hand": "right"
      },
      {
        "midi": 72,
        "time": 94,
        "duration": 0.25,
        "velocity": 0.49,
        "hand": "right"
      },
      {
        "midi": 84,
        "time": 94.25,
        "duration": 0.25,
        "velocity": 0.49,
        "hand": "right"
      },
      {
        "midi": 83,
        "time": 94.5,
        "duration": 0.25,
        "velocity": 0.49,
        "hand": "right"
      },
      {
        "midi": 84,
        "time": 94.75,
        "duration": 0.25,
        "velocity": 0.49,
        "hand": "right"
      },
      {
        "midi": 79,
        "time": 95,
        "duration": 0.25,
        "velocity": 0.49,
        "hand": "right"
      },
      {
        "midi": 77,
        "time": 95.25,
        "duration": 0.25,
        "velocity": 0.49,
        "hand": "right"
      },
      {
        "midi": 75,
        "time": 95.5,
        "duration": 0.25,
        "velocity": 0.49,
        "hand": "right"
      },
      {
        "midi": 74,
        "time": 95.75,
        "duration": 0.25,
        "velocity": 0.49,
        "hand": "right"
      },
      {
        "midi": 63,
        "time": 96,
        "duration": 1,
        "velocity": 0.93,
        "hand": "right"
      },
      {
        "midi": 72,
        "time": 96,
        "duration": 0.25,
        "velocity": 0.49,
        "hand": "right"
      },
      {
        "midi": 84,
        "time": 96.25,
        "duration": 0.25,
        "velocity": 0.49,
        "hand": "right"
      },
      {
        "midi": 83,
        "time": 96.5,
        "duration": 0.25,
        "velocity": 0.49,
        "hand": "right"
      },
      {
        "midi": 84,
        "time": 96.75,
        "duration": 0.25,
        "velocity": 0.49,
        "hand": "right"
      },
      {
        "midi": 51,
        "time": 97,
        "duration": 1,
        "velocity": 0.32,
        "hand": "left"
      },
      {
        "midi": 55,
        "time": 97,
        "duration": 1,
        "velocity": 0.32,
        "hand": "left"
      },
      {
        "midi": 60,
        "time": 97,
        "duration": 1,
        "velocity": 0.93,
        "hand": "right"
      },
      {
        "midi": 79,
        "time": 97,
        "duration": 0.25,
        "velocity": 0.49,
        "hand": "right"
      },
      {
        "midi": 77,
        "time": 97.25,
        "duration": 0.25,
        "velocity": 0.49,
        "hand": "right"
      },
      {
        "midi": 75,
        "time": 97.5,
        "duration": 0.25,
        "velocity": 0.49,
        "hand": "right"
      },
      {
        "midi": 74,
        "time": 97.75,
        "duration": 0.25,
        "velocity": 0.49,
        "hand": "right"
      },
      {
        "midi": 56,
        "time": 98,
        "duration": 4,
        "velocity": 0.32,
        "hand": "left"
      },
      {
        "midi": 60,
        "time": 98,
        "duration": 4,
        "velocity": 0.32,
        "hand": "right"
      },
      {
        "midi": 65,
        "time": 98,
        "duration": 4,
        "velocity": 0.93,
        "hand": "right"
      },
      {
        "midi": 72,
        "time": 98,
        "duration": 0.25,
        "velocity": 0.49,
        "hand": "right"
      },
      {
        "midi": 84,
        "time": 98.25,
        "duration": 0.25,
        "velocity": 0.5,
        "hand": "right"
      },
      {
        "midi": 83,
        "time": 98.5,
        "duration": 0.25,
        "velocity": 0.52,
        "hand": "right"
      },
      {
        "midi": 84,
        "time": 98.75,
        "duration": 0.25,
        "velocity": 0.53,
        "hand": "right"
      },
      {
        "midi": 77,
        "time": 99,
        "duration": 0.25,
        "velocity": 0.54,
        "hand": "right"
      },
      {
        "midi": 75,
        "time": 99.25,
        "duration": 0.25,
        "velocity": 0.56,
        "hand": "right"
      },
      {
        "midi": 74,
        "time": 99.5,
        "duration": 0.25,
        "velocity": 0.57,
        "hand": "right"
      },
      {
        "midi": 75,
        "time": 99.75,
        "duration": 0.25,
        "velocity": 0.59,
        "hand": "right"
      },
      {
        "midi": 72,
        "time": 100,
        "duration": 0.25,
        "velocity": 0.61,
        "hand": "right"
      },
      {
        "midi": 84,
        "time": 100.25,
        "duration": 0.25,
        "velocity": 0.62,
        "hand": "right"
      },
      {
        "midi": 83,
        "time": 100.5,
        "duration": 0.25,
        "velocity": 0.64,
        "hand": "right"
      },
      {
        "midi": 84,
        "time": 100.75,
        "duration": 0.25,
        "velocity": 0.65,
        "hand": "right"
      },
      {
        "midi": 77,
        "time": 101,
        "duration": 0.25,
        "velocity": 0.67,
        "hand": "right"
      },
      {
        "midi": 75,
        "time": 101.25,
        "duration": 0.25,
        "velocity": 0.68,
        "hand": "right"
      },
      {
        "midi": 74,
        "time": 101.5,
        "duration": 0.25,
        "velocity": 0.69,
        "hand": "right"
      },
      {
        "midi": 75,
        "time": 101.75,
        "duration": 0.25,
        "velocity": 0.71,
        "hand": "right"
      },
      {
        "midi": 51,
        "time": 102,
        "duration": 1,
        "velocity": 0.32,
        "hand": "left"
      },
      {
        "midi": 60,
        "time": 102,
        "duration": 1,
        "velocity": 0.32,
        "hand": "right"
      },
      {
        "midi": 67,
        "time": 102,
        "duration": 1.75,
        "velocity": 0.93,
        "hand": "right"
      },
      {
        "midi": 72,
        "time": 102,
        "duration": 0.25,
        "velocity": 0.71,
        "hand": "right"
      },
      {
        "midi": 84,
        "time": 102.25,
        "duration": 0.25,
        "velocity": 0.71,
        "hand": "right"
      },
      {
        "midi": 83,
        "time": 102.5,
        "duration": 0.25,
        "velocity": 0.71,
        "hand": "right"
      },
      {
        "midi": 84,
        "time": 102.75,
        "duration": 0.25,
        "velocity": 0.71,
        "hand": "right"
      },
      {
        "midi": 79,
        "time": 103,
        "duration": 0.25,
        "velocity": 0.71,
        "hand": "right"
      },
      {
        "midi": 77,
        "time": 103.25,
        "duration": 0.25,
        "velocity": 0.71,
        "hand": "right"
      },
      {
        "midi": 75,
        "time": 103.5,
        "duration": 0.25,
        "velocity": 0.71,
        "hand": "right"
      },
      {
        "midi": 63,
        "time": 103.75,
        "duration": 0.25,
        "velocity": 0.93,
        "hand": "right"
      },
      {
        "midi": 65,
        "time": 103.75,
        "duration": 0.25,
        "velocity": 0.93,
        "hand": "right"
      },
      {
        "midi": 74,
        "time": 103.75,
        "duration": 0.25,
        "velocity": 0.71,
        "hand": "right"
      },
      {
        "midi": 60,
        "time": 104,
        "duration": 1,
        "velocity": 0.93,
        "hand": "right"
      },
      {
        "midi": 62,
        "time": 104,
        "duration": 0.25,
        "velocity": 0.93,
        "hand": "right"
      },
      {
        "midi": 75,
        "time": 104,
        "duration": 0.25,
        "velocity": 0.71,
        "hand": "right"
      },
      {
        "midi": 87,
        "time": 104.25,
        "duration": 0.25,
        "velocity": 0.71,
        "hand": "right"
      },
      {
        "midi": 86,
        "time": 104.5,
        "duration": 0.25,
        "velocity": 0.71,
        "hand": "right"
      },
      {
        "midi": 87,
        "time": 104.75,
        "duration": 0.25,
        "velocity": 0.71,
        "hand": "right"
      },
      {
        "midi": 48,
        "time": 105,
        "duration": 1,
        "velocity": 0.32,
        "hand": "left"
      },
      {
        "midi": 51,
        "time": 105,
        "duration": 1,
        "velocity": 0.32,
        "hand": "left"
      },
      {
        "midi": 55,
        "time": 105,
        "duration": 1,
        "velocity": 0.32,
        "hand": "left"
      },
      {
        "midi": 60,
        "time": 105,
        "duration": 1,
        "velocity": 0.93,
        "hand": "right"
      },
      {
        "midi": 86,
        "time": 105,
        "duration": 0.25,
        "velocity": 0.71,
        "hand": "right"
      },
      {
        "midi": 84,
        "time": 105.25,
        "duration": 0.25,
        "velocity": 0.71,
        "hand": "right"
      },
      {
        "midi": 82,
        "time": 105.5,
        "duration": 0.25,
        "velocity": 0.71,
        "hand": "right"
      },
      {
        "midi": 81,
        "time": 105.75,
        "duration": 0.25,
        "velocity": 0.71,
        "hand": "right"
      },
      {
        "midi": 43,
        "time": 106,
        "duration": 3.5,
        "velocity": 0.32,
        "hand": "left"
      },
      {
        "midi": 50,
        "time": 106,
        "duration": 1,
        "velocity": 0.93,
        "hand": "left"
      },
      {
        "midi": 58,
        "time": 106,
        "duration": 1,
        "velocity": 0.93,
        "hand": "left"
      },
      {
        "midi": 79,
        "time": 106,
        "duration": 0.25,
        "velocity": 0.71,
        "hand": "right"
      },
      {
        "midi": 91,
        "time": 106.25,
        "duration": 0.25,
        "velocity": 0.71,
        "hand": "right"
      },
      {
        "midi": 90,
        "time": 106.5,
        "duration": 0.25,
        "velocity": 0.71,
        "hand": "right"
      },
      {
        "midi": 91,
        "time": 106.75,
        "duration": 0.25,
        "velocity": 0.71,
        "hand": "right"
      },
      {
        "midi": 46,
        "time": 107,
        "duration": 2.5,
        "velocity": 0.93,
        "hand": "left"
      },
      {
        "midi": 55,
        "time": 107,
        "duration": 2.5,
        "velocity": 0.93,
        "hand": "left"
      },
      {
        "midi": 86,
        "time": 107,
        "duration": 0.25,
        "velocity": 0.71,
        "hand": "right"
      },
      {
        "midi": 84,
        "time": 107.25,
        "duration": 0.25,
        "velocity": 0.71,
        "hand": "right"
      },
      {
        "midi": 82,
        "time": 107.5,
        "duration": 0.25,
        "velocity": 0.71,
        "hand": "right"
      },
      {
        "midi": 81,
        "time": 107.75,
        "duration": 0.25,
        "velocity": 0.71,
        "hand": "right"
      },
      {
        "midi": 79,
        "time": 108,
        "duration": 0.25,
        "velocity": 0.71,
        "hand": "right"
      },
      {
        "midi": 91,
        "time": 108.25,
        "duration": 0.25,
        "velocity": 0.71,
        "hand": "right"
      },
      {
        "midi": 90,
        "time": 108.5,
        "duration": 0.25,
        "velocity": 0.71,
        "hand": "right"
      },
      {
        "midi": 91,
        "time": 108.75,
        "duration": 0.25,
        "velocity": 0.71,
        "hand": "right"
      },
      {
        "midi": 86,
        "time": 109,
        "duration": 0.25,
        "velocity": 0.71,
        "hand": "right"
      },
      {
        "midi": 84,
        "time": 109.25,
        "duration": 0.25,
        "velocity": 0.71,
        "hand": "right"
      },
      {
        "midi": 82,
        "time": 109.5,
        "duration": 0.25,
        "velocity": 0.71,
        "hand": "right"
      },
      {
        "midi": 81,
        "time": 109.75,
        "duration": 0.25,
        "velocity": 0.71,
        "hand": "right"
      },
      {
        "midi": 51,
        "time": 110,
        "duration": 1,
        "velocity": 0.32,
        "hand": "left"
      },
      {
        "midi": 55,
        "time": 110,
        "duration": 1,
        "velocity": 0.32,
        "hand": "left"
      },
      {
        "midi": 60,
        "time": 110,
        "duration": 1,
        "velocity": 0.93,
        "hand": "right"
      },
      {
        "midi": 79,
        "time": 110,
        "duration": 0.25,
        "velocity": 0.71,
        "hand": "right"
      },
      {
        "midi": 91,
        "time": 110.25,
        "duration": 0.25,
        "velocity": 0.71,
        "hand": "right"
      },
      {
        "midi": 90,
        "time": 110.5,
        "duration": 0.25,
        "velocity": 0.71,
        "hand": "right"
      },
      {
        "midi": 91,
        "time": 110.75,
        "duration": 0.25,
        "velocity": 0.71,
        "hand": "right"
      },
      {
        "midi": 60,
        "time": 111,
        "duration": 1,
        "velocity": 0.93,
        "hand": "right"
      },
      {
        "midi": 87,
        "time": 111,
        "duration": 0.25,
        "velocity": 0.71,
        "hand": "right"
      },
      {
        "midi": 86,
        "time": 111.25,
        "duration": 0.25,
        "velocity": 0.71,
        "hand": "right"
      },
      {
        "midi": 84,
        "time": 111.5,
        "duration": 0.25,
        "velocity": 0.71,
        "hand": "right"
      },
      {
        "midi": 82,
        "time": 111.75,
        "duration": 0.25,
        "velocity": 0.71,
        "hand": "right"
      },
      {
        "midi": 48,
        "time": 112,
        "duration": 1,
        "velocity": 0.32,
        "hand": "left"
      },
      {
        "midi": 55,
        "time": 112,
        "duration": 1,
        "velocity": 0.32,
        "hand": "left"
      },
      {
        "midi": 63,
        "time": 112,
        "duration": 1.5,
        "velocity": 0.93,
        "hand": "right"
      },
      {
        "midi": 81,
        "time": 112,
        "duration": 0.25,
        "velocity": 0.71,
        "hand": "right"
      },
      {
        "midi": 91,
        "time": 112.25,
        "duration": 0.25,
        "velocity": 0.71,
        "hand": "right"
      },
      {
        "midi": 90,
        "time": 112.5,
        "duration": 0.25,
        "velocity": 0.71,
        "hand": "right"
      },
      {
        "midi": 91,
        "time": 112.75,
        "duration": 0.25,
        "velocity": 0.71,
        "hand": "right"
      },
      {
        "midi": 86,
        "time": 113,
        "duration": 0.25,
        "velocity": 0.71,
        "hand": "right"
      },
      {
        "midi": 84,
        "time": 113.25,
        "duration": 0.25,
        "velocity": 0.71,
        "hand": "right"
      },
      {
        "midi": 62,
        "time": 113.5,
        "duration": 0.25,
        "velocity": 0.93,
        "hand": "right"
      },
      {
        "midi": 82,
        "time": 113.5,
        "duration": 0.25,
        "velocity": 0.71,
        "hand": "right"
      },
      {
        "midi": 60,
        "time": 113.75,
        "duration": 0.25,
        "velocity": 0.93,
        "hand": "right"
      },
      {
        "midi": 81,
        "time": 113.75,
        "duration": 0.25,
        "velocity": 0.71,
        "hand": "right"
      },
      {
        "midi": 55,
        "time": 114,
        "duration": 4,
        "velocity": 0.32,
        "hand": "left"
      },
      {
        "midi": 58,
        "time": 114,
        "duration": 4,
        "velocity": 0.93,
        "hand": "left"
      },
      {
        "midi": 79,
        "time": 114,
        "duration": 0.25,
        "velocity": 0.71,
        "hand": "right"
      },
      {
        "midi": 86,
        "time": 114.25,
        "duration": 0.25,
        "velocity": 0.71,
        "hand": "right"
      },
      {
        "midi": 85,
        "time": 114.5,
        "duration": 0.25,
        "velocity": 0.71,
        "hand": "right"
      },
      {
        "midi": 86,
        "time": 114.75,
        "duration": 0.25,
        "velocity": 0.71,
        "hand": "right"
      },
      {
        "midi": 82,
        "time": 115,
        "duration": 0.25,
        "velocity": 0.71,
        "hand": "right"
      },
      {
        "midi": 79,
        "time": 115.25,
        "duration": 0.25,
        "velocity": 0.71,
        "hand": "right"
      },
      {
        "midi": 77,
        "time": 115.5,
        "duration": 0.25,
        "velocity": 0.71,
        "hand": "right"
      },
      {
        "midi": 75,
        "time": 115.75,
        "duration": 0.25,
        "velocity": 0.71,
        "hand": "right"
      },
      {
        "midi": 74,
        "time": 116,
        "duration": 0.25,
        "velocity": 0.71,
        "hand": "right"
      },
      {
        "midi": 82,
        "time": 116.25,
        "duration": 0.25,
        "velocity": 0.71,
        "hand": "right"
      },
      {
        "midi": 81,
        "time": 116.5,
        "duration": 0.25,
        "velocity": 0.71,
        "hand": "right"
      },
      {
        "midi": 82,
        "time": 116.75,
        "duration": 0.25,
        "velocity": 0.71,
        "hand": "right"
      },
      {
        "midi": 79,
        "time": 117,
        "duration": 0.25,
        "velocity": 0.71,
        "hand": "right"
      },
      {
        "midi": 77,
        "time": 117.25,
        "duration": 0.25,
        "velocity": 0.71,
        "hand": "right"
      },
      {
        "midi": 75,
        "time": 117.5,
        "duration": 0.25,
        "velocity": 0.71,
        "hand": "right"
      },
      {
        "midi": 74,
        "time": 117.75,
        "duration": 0.25,
        "velocity": 0.71,
        "hand": "right"
      },
      {
        "midi": 51,
        "time": 118,
        "duration": 2,
        "velocity": 0.32,
        "hand": "left"
      },
      {
        "midi": 55,
        "time": 118,
        "duration": 2,
        "velocity": 0.93,
        "hand": "left"
      },
      {
        "midi": 72,
        "time": 118,
        "duration": 0.25,
        "velocity": 0.71,
        "hand": "right"
      },
      {
        "midi": 79,
        "time": 118.25,
        "duration": 0.25,
        "velocity": 0.71,
        "hand": "right"
      },
      {
        "midi": 60,
        "time": 118.5,
        "duration": 0.5,
        "velocity": 0.93,
        "hand": "right"
      },
      {
        "midi": 78,
        "time": 118.5,
        "duration": 0.25,
        "velocity": 0.71,
        "hand": "right"
      },
      {
        "midi": 79,
        "time": 118.75,
        "duration": 0.25,
        "velocity": 0.71,
        "hand": "right"
      },
      {
        "midi": 59,
        "time": 119,
        "duration": 0.5,
        "velocity": 0.93,
        "hand": "left"
      },
      {
        "midi": 75,
        "time": 119,
        "duration": 0.25,
        "velocity": 0.71,
        "hand": "right"
      },
      {
        "midi": 74,
        "time": 119.25,
        "duration": 0.25,
        "velocity": 0.71,
        "hand": "right"
      },
      {
        "midi": 60,
        "time": 119.5,
        "duration": 0.5,
        "velocity": 0.93,
        "hand": "right"
      },
      {
        "midi": 72,
        "time": 119.5,
        "duration": 0.25,
        "velocity": 0.71,
        "hand": "right"
      },
      {
        "midi": 70,
        "time": 119.75,
        "duration": 0.25,
        "velocity": 0.71,
        "hand": "right"
      },
      {
        "midi": 48,
        "time": 120,
        "duration": 2,
        "velocity": 0.32,
        "hand": "left"
      },
      {
        "midi": 51,
        "time": 120,
        "duration": 2,
        "velocity": 0.32,
        "hand": "left"
      },
      {
        "midi": 55,
        "time": 120,
        "duration": 1,
        "velocity": 0.93,
        "hand": "left"
      },
      {
        "midi": 69,
        "time": 120,
        "duration": 0.25,
        "velocity": 0.71,
        "hand": "right"
      },
      {
        "midi": 75,
        "time": 120.25,
        "duration": 0.25,
        "velocity": 0.71,
        "hand": "right"
      },
      {
        "midi": 74,
        "time": 120.5,
        "duration": 0.25,
        "velocity": 0.71,
        "hand": "right"
      },
      {
        "midi": 75,
        "time": 120.75,
        "duration": 0.25,
        "velocity": 0.71,
        "hand": "right"
      },
      {
        "midi": 57,
        "time": 121,
        "duration": 0.5,
        "velocity": 0.93,
        "hand": "left"
      },
      {
        "midi": 74,
        "time": 121,
        "duration": 0.25,
        "velocity": 0.71,
        "hand": "right"
      },
      {
        "midi": 72,
        "time": 121.25,
        "duration": 0.25,
        "velocity": 0.71,
        "hand": "right"
      },
      {
        "midi": 55,
        "time": 121.5,
        "duration": 0.25,
        "velocity": 0.93,
        "hand": "left"
      },
      {
        "midi": 70,
        "time": 121.5,
        "duration": 0.25,
        "velocity": 0.71,
        "hand": "right"
      },
      {
        "midi": 57,
        "time": 121.75,
        "duration": 0.25,
        "velocity": 0.93,
        "hand": "left"
      },
      {
        "midi": 69,
        "time": 121.75,
        "duration": 0.25,
        "velocity": 0.71,
        "hand": "right"
      },
      {
        "midi": 43,
        "time": 122,
        "duration": 3.5,
        "velocity": 0.32,
        "hand": "left"
      },
      {
        "midi": 50,
        "time": 122,
        "duration": 3.5,
        "velocity": 0.32,
        "hand": "left"
      },
      {
        "midi": 58,
        "time": 122,
        "duration": 3.5,
        "velocity": 0.93,
        "hand": "left"
      },
      {
        "midi": 67,
        "time": 122,
        "duration": 0.25,
        "velocity": 0.71,
        "hand": "right"
      },
      {
        "midi": 74,
        "time": 122.25,
        "duration": 0.25,
        "velocity": 0.71,
        "hand": "right"
      },
      {
        "midi": 73,
        "time": 122.5,
        "duration": 0.25,
        "velocity": 0.71,
        "hand": "right"
      },
      {
        "midi": 74,
        "time": 122.75,
        "duration": 0.25,
        "velocity": 0.71,
        "hand": "right"
      },
      {
        "midi": 70,
        "time": 123,
        "duration": 0.25,
        "velocity": 0.71,
        "hand": "right"
      },
      {
        "midi": 67,
        "time": 123.25,
        "duration": 0.25,
        "velocity": 0.71,
        "hand": "right"
      },
      {
        "midi": 65,
        "time": 123.5,
        "duration": 0.25,
        "velocity": 0.71,
        "hand": "right"
      },
      {
        "midi": 63,
        "time": 123.75,
        "duration": 0.25,
        "velocity": 0.71,
        "hand": "right"
      },
      {
        "midi": 62,
        "time": 124,
        "duration": 0.25,
        "velocity": 0.71,
        "hand": "right"
      },
      {
        "midi": 67,
        "time": 124.25,
        "duration": 0.25,
        "velocity": 0.71,
        "hand": "right"
      },
      {
        "midi": 66,
        "time": 124.5,
        "duration": 0.25,
        "velocity": 0.71,
        "hand": "right"
      },
      {
        "midi": 67,
        "time": 124.75,
        "duration": 0.25,
        "velocity": 0.71,
        "hand": "right"
      },
      {
        "midi": 62,
        "time": 125,
        "duration": 0.25,
        "velocity": 0.71,
        "hand": "right"
      },
      {
        "midi": 60,
        "time": 125.25,
        "duration": 0.25,
        "velocity": 0.71,
        "hand": "right"
      },
      {
        "midi": 58,
        "time": 125.5,
        "duration": 0.25,
        "velocity": 0.71,
        "hand": "left"
      },
      {
        "midi": 57,
        "time": 125.75,
        "duration": 0.25,
        "velocity": 0.71,
        "hand": "left"
      },
      {
        "midi": 55,
        "time": 126,
        "duration": 0.25,
        "velocity": 0.71,
        "hand": "left"
      },
      {
        "midi": 62,
        "time": 126.25,
        "duration": 0.25,
        "velocity": 0.71,
        "hand": "right"
      },
      {
        "midi": 61,
        "time": 126.5,
        "duration": 0.25,
        "velocity": 0.71,
        "hand": "right"
      },
      {
        "midi": 62,
        "time": 126.75,
        "duration": 0.25,
        "velocity": 0.71,
        "hand": "right"
      },
      {
        "midi": 58,
        "time": 127,
        "duration": 0.25,
        "velocity": 0.71,
        "hand": "left"
      },
      {
        "midi": 55,
        "time": 127.25,
        "duration": 0.25,
        "velocity": 0.71,
        "hand": "left"
      },
      {
        "midi": 53,
        "time": 127.5,
        "duration": 0.25,
        "velocity": 0.71,
        "hand": "left"
      },
      {
        "midi": 51,
        "time": 127.75,
        "duration": 0.25,
        "velocity": 0.71,
        "hand": "left"
      },
      {
        "midi": 50,
        "time": 128,
        "duration": 0.25,
        "velocity": 0.71,
        "hand": "left"
      },
      {
        "midi": 55,
        "time": 128.25,
        "duration": 0.25,
        "velocity": 0.71,
        "hand": "left"
      },
      {
        "midi": 50,
        "time": 128.5,
        "duration": 0.25,
        "velocity": 0.71,
        "hand": "left"
      },
      {
        "midi": 48,
        "time": 128.75,
        "duration": 0.25,
        "velocity": 0.71,
        "hand": "left"
      },
      {
        "midi": 46,
        "time": 129,
        "duration": 0.25,
        "velocity": 0.71,
        "hand": "left"
      },
      {
        "midi": 45,
        "time": 129.25,
        "duration": 0.25,
        "velocity": 0.71,
        "hand": "left"
      },
      {
        "midi": 43,
        "time": 129.5,
        "duration": 0.25,
        "velocity": 0.93,
        "hand": "left"
      },
      {
        "midi": 41,
        "time": 129.75,
        "duration": 0.25,
        "velocity": 0.93,
        "hand": "left"
      },
      {
        "midi": 39,
        "time": 130,
        "duration": 0.5,
        "velocity": 0.93,
        "hand": "left"
      },
      {
        "midi": 55,
        "time": 130,
        "duration": 1,
        "velocity": 0.71,
        "hand": "left"
      },
      {
        "midi": 67,
        "time": 130,
        "duration": 0.75,
        "velocity": 0.71,
        "hand": "right"
      },
      {
        "midi": 59,
        "time": 130.25,
        "duration": 0.25,
        "velocity": 0.93,
        "hand": "left"
      },
      {
        "midi": 60,
        "time": 130.5,
        "duration": 0.25,
        "velocity": 0.93,
        "hand": "right"
      },
      {
        "midi": 67,
        "time": 130.75,
        "duration": 0.25,
        "velocity": 0.93,
        "hand": "right"
      },
      {
        "midi": 55,
        "time": 131,
        "duration": 1,
        "velocity": 0.93,
        "hand": "left"
      },
      {
        "midi": 67,
        "time": 131,
        "duration": 1,
        "velocity": 0.93,
        "hand": "right"
      },
      {
        "midi": 71,
        "time": 131.25,
        "duration": 0.25,
        "velocity": 0.93,
        "hand": "right"
      },
      {
        "midi": 72,
        "time": 131.5,
        "duration": 0.25,
        "velocity": 0.93,
        "hand": "right"
      },
      {
        "midi": 75,
        "time": 131.75,
        "duration": 0.25,
        "velocity": 0.93,
        "hand": "right"
      },
      {
        "midi": 79,
        "time": 131.75,
        "duration": 0.25,
        "velocity": 0.93,
        "hand": "right"
      },
      {
        "midi": 55,
        "time": 132,
        "duration": 1.5,
        "velocity": 0.93,
        "hand": "left"
      },
      {
        "midi": 67,
        "time": 132,
        "duration": 1,
        "velocity": 0.71,
        "hand": "right"
      },
      {
        "midi": 59,
        "time": 132.25,
        "duration": 0.25,
        "velocity": 0.93,
        "hand": "left"
      },
      {
        "midi": 44,
        "time": 132.5,
        "duration": 1,
        "velocity": 0.32,
        "hand": "left"
      },
      {
        "midi": 48,
        "time": 132.5,
        "duration": 1,
        "velocity": 0.32,
        "hand": "left"
      },
      {
        "midi": 60,
        "time": 132.5,
        "duration": 0.25,
        "velocity": 0.93,
        "hand": "right"
      },
      {
        "midi": 63,
        "time": 132.75,
        "duration": 0.25,
        "velocity": 0.93,
        "hand": "right"
      },
      {
        "midi": 67,
        "time": 133,
        "duration": 0.5,
        "velocity": 0.93,
        "hand": "right"
      },
      {
        "midi": 72,
        "time": 133.25,
        "duration": 0.25,
        "velocity": 0.93,
        "hand": "right"
      },
      {
        "midi": 79,
        "time": 133.25,
        "duration": 0.25,
        "velocity": 0.93,
        "hand": "right"
      },
      {
        "midi": 53,
        "time": 133.5,
        "duration": 0.25,
        "velocity": 0.93,
        "hand": "left"
      },
      {
        "midi": 65,
        "time": 133.5,
        "duration": 0.25,
        "velocity": 0.71,
        "hand": "right"
      },
      {
        "midi": 51,
        "time": 133.75,
        "duration": 0.25,
        "velocity": 0.93,
        "hand": "left"
      },
      {
        "midi": 63,
        "time": 133.75,
        "duration": 0.25,
        "velocity": 0.71,
        "hand": "right"
      },
      {
        "midi": 50,
        "time": 134,
        "duration": 2,
        "velocity": 0.93,
        "hand": "left"
      },
      {
        "midi": 53,
        "time": 134,
        "duration": 2,
        "velocity": 0.93,
        "hand": "left"
      },
      {
        "midi": 62,
        "time": 134,
        "duration": 2,
        "velocity": 0.93,
        "hand": "right"
      },
      {
        "midi": 56,
        "time": 134.25,
        "duration": 0.25,
        "velocity": 0.71,
        "hand": "left"
      },
      {
        "midi": 60,
        "time": 134.5,
        "duration": 0.25,
        "velocity": 0.71,
        "hand": "right"
      },
      {
        "midi": 65,
        "time": 134.75,
        "duration": 0.25,
        "velocity": 0.71,
        "hand": "right"
      },
      {
        "midi": 68,
        "time": 134.75,
        "duration": 0.25,
        "velocity": 0.71,
        "hand": "right"
      },
      {
        "midi": 65,
        "time": 135,
        "duration": 0.25,
        "velocity": 0.71,
        "hand": "right"
      },
      {
        "midi": 68,
        "time": 135,
        "duration": 0.25,
        "velocity": 0.71,
        "hand": "right"
      },
      {
        "midi": 60,
        "time": 135.25,
        "duration": 0.25,
        "velocity": 0.71,
        "hand": "right"
      },
      {
        "midi": 56,
        "time": 135.5,
        "duration": 0.25,
        "velocity": 0.71,
        "hand": "left"
      },
      {
        "midi": 60,
        "time": 135.75,
        "duration": 0.25,
        "velocity": 0.71,
        "hand": "right"
      },
      {
        "midi": 32,
        "time": 136,
        "duration": 1,
        "velocity": 0.93,
        "hand": "left"
      },
      {
        "midi": 44,
        "time": 136,
        "duration": 1,
        "velocity": 0.93,
        "hand": "left"
      },
      {
        "midi": 50,
        "time": 136.25,
        "duration": 0.25,
        "velocity": 0.71,
        "hand": "left"
      },
      {
        "midi": 53,
        "time": 136.5,
        "duration": 0.25,
        "velocity": 0.71,
        "hand": "left"
      },
      {
        "midi": 60,
        "time": 136.75,
        "duration": 0.25,
        "velocity": 0.71,
        "hand": "right"
      },
      {
        "midi": 62,
        "time": 136.75,
        "duration": 0.25,
        "velocity": 0.71,
        "hand": "right"
      },
      {
        "midi": 31,
        "time": 137,
        "duration": 1,
        "velocity": 0.93,
        "hand": "left"
      },
      {
        "midi": 43,
        "time": 137,
        "duration": 1,
        "velocity": 0.93,
        "hand": "left"
      },
      {
        "midi": 50,
        "time": 137.25,
        "duration": 0.25,
        "velocity": 0.71,
        "hand": "left"
      },
      {
        "midi": 53,
        "time": 137.5,
        "duration": 0.25,
        "velocity": 0.71,
        "hand": "left"
      },
      {
        "midi": 59,
        "time": 137.75,
        "duration": 0.25,
        "velocity": 0.71,
        "hand": "left"
      },
      {
        "midi": 62,
        "time": 137.75,
        "duration": 0.25,
        "velocity": 0.71,
        "hand": "right"
      },
      {
        "midi": 39,
        "time": 138,
        "duration": 0.5,
        "velocity": 0.93,
        "hand": "left"
      },
      {
        "midi": 51,
        "time": 138,
        "duration": 0.5,
        "velocity": 0.93,
        "hand": "left"
      },
      {
        "midi": 55,
        "time": 138,
        "duration": 1,
        "velocity": 0.71,
        "hand": "left"
      },
      {
        "midi": 67,
        "time": 138,
        "duration": 0.75,
        "velocity": 0.71,
        "hand": "right"
      },
      {
        "midi": 59,
        "time": 138.25,
        "duration": 0.25,
        "velocity": 0.93,
        "hand": "left"
      },
      {
        "midi": 60,
        "time": 138.5,
        "duration": 0.25,
        "velocity": 0.93,
        "hand": "right"
      },
      {
        "midi": 67,
        "time": 138.75,
        "duration": 0.25,
        "velocity": 0.93,
        "hand": "right"
      },
      {
        "midi": 55,
        "time": 139,
        "duration": 1,
        "velocity": 0.93,
        "hand": "left"
      },
      {
        "midi": 67,
        "time": 139,
        "duration": 1,
        "velocity": 0.93,
        "hand": "right"
      },
      {
        "midi": 71,
        "time": 139.25,
        "duration": 0.25,
        "velocity": 0.93,
        "hand": "right"
      },
      {
        "midi": 72,
        "time": 139.5,
        "duration": 0.25,
        "velocity": 0.93,
        "hand": "right"
      },
      {
        "midi": 75,
        "time": 139.75,
        "duration": 0.25,
        "velocity": 0.93,
        "hand": "right"
      },
      {
        "midi": 79,
        "time": 139.75,
        "duration": 0.25,
        "velocity": 0.93,
        "hand": "right"
      },
      {
        "midi": 55,
        "time": 140,
        "duration": 1.5,
        "velocity": 0.93,
        "hand": "left"
      },
      {
        "midi": 67,
        "time": 140,
        "duration": 1,
        "velocity": 0.71,
        "hand": "right"
      },
      {
        "midi": 59,
        "time": 140.25,
        "duration": 0.25,
        "velocity": 0.93,
        "hand": "left"
      },
      {
        "midi": 44,
        "time": 140.5,
        "duration": 1,
        "velocity": 0.32,
        "hand": "left"
      },
      {
        "midi": 48,
        "time": 140.5,
        "duration": 1,
        "velocity": 0.32,
        "hand": "left"
      },
      {
        "midi": 60,
        "time": 140.5,
        "duration": 0.25,
        "velocity": 0.93,
        "hand": "right"
      },
      {
        "midi": 63,
        "time": 140.75,
        "duration": 0.25,
        "velocity": 0.93,
        "hand": "right"
      },
      {
        "midi": 67,
        "time": 141,
        "duration": 0.5,
        "velocity": 0.93,
        "hand": "right"
      },
      {
        "midi": 72,
        "time": 141.25,
        "duration": 0.25,
        "velocity": 0.93,
        "hand": "right"
      },
      {
        "midi": 79,
        "time": 141.25,
        "duration": 0.25,
        "velocity": 0.93,
        "hand": "right"
      },
      {
        "midi": 53,
        "time": 141.5,
        "duration": 0.25,
        "velocity": 0.93,
        "hand": "left"
      },
      {
        "midi": 65,
        "time": 141.5,
        "duration": 0.25,
        "velocity": 0.71,
        "hand": "right"
      },
      {
        "midi": 51,
        "time": 141.75,
        "duration": 0.25,
        "velocity": 0.93,
        "hand": "left"
      },
      {
        "midi": 63,
        "time": 141.75,
        "duration": 0.25,
        "velocity": 0.71,
        "hand": "right"
      },
      {
        "midi": 50,
        "time": 142,
        "duration": 2,
        "velocity": 0.93,
        "hand": "left"
      },
      {
        "midi": 53,
        "time": 142,
        "duration": 2,
        "velocity": 0.93,
        "hand": "left"
      },
      {
        "midi": 62,
        "time": 142,
        "duration": 2,
        "velocity": 0.93,
        "hand": "right"
      },
      {
        "midi": 56,
        "time": 142.25,
        "duration": 0.25,
        "velocity": 0.71,
        "hand": "left"
      },
      {
        "midi": 60,
        "time": 142.5,
        "duration": 0.25,
        "velocity": 0.71,
        "hand": "right"
      },
      {
        "midi": 65,
        "time": 142.75,
        "duration": 0.25,
        "velocity": 0.71,
        "hand": "right"
      },
      {
        "midi": 68,
        "time": 142.75,
        "duration": 0.25,
        "velocity": 0.71,
        "hand": "right"
      },
      {
        "midi": 65,
        "time": 143,
        "duration": 0.25,
        "velocity": 0.71,
        "hand": "right"
      },
      {
        "midi": 68,
        "time": 143,
        "duration": 0.25,
        "velocity": 0.71,
        "hand": "right"
      },
      {
        "midi": 60,
        "time": 143.25,
        "duration": 0.25,
        "velocity": 0.71,
        "hand": "right"
      },
      {
        "midi": 56,
        "time": 143.5,
        "duration": 0.25,
        "velocity": 0.71,
        "hand": "left"
      },
      {
        "midi": 60,
        "time": 143.75,
        "duration": 0.25,
        "velocity": 0.71,
        "hand": "right"
      },
      {
        "midi": 32,
        "time": 144,
        "duration": 1,
        "velocity": 0.93,
        "hand": "left"
      },
      {
        "midi": 44,
        "time": 144,
        "duration": 1,
        "velocity": 0.93,
        "hand": "left"
      },
      {
        "midi": 50,
        "time": 144.25,
        "duration": 0.25,
        "velocity": 0.71,
        "hand": "left"
      },
      {
        "midi": 53,
        "time": 144.5,
        "duration": 0.25,
        "velocity": 0.71,
        "hand": "left"
      },
      {
        "midi": 60,
        "time": 144.75,
        "duration": 0.25,
        "velocity": 0.71,
        "hand": "right"
      },
      {
        "midi": 62,
        "time": 144.75,
        "duration": 0.25,
        "velocity": 0.71,
        "hand": "right"
      },
      {
        "midi": 31,
        "time": 145,
        "duration": 1,
        "velocity": 0.93,
        "hand": "left"
      },
      {
        "midi": 43,
        "time": 145,
        "duration": 1,
        "velocity": 0.93,
        "hand": "left"
      },
      {
        "midi": 50,
        "time": 145.25,
        "duration": 0.25,
        "velocity": 0.71,
        "hand": "left"
      },
      {
        "midi": 53,
        "time": 145.5,
        "duration": 0.25,
        "velocity": 0.71,
        "hand": "left"
      },
      {
        "midi": 59,
        "time": 145.75,
        "duration": 0.25,
        "velocity": 0.71,
        "hand": "left"
      },
      {
        "midi": 62,
        "time": 145.75,
        "duration": 0.25,
        "velocity": 0.71,
        "hand": "right"
      },
      {
        "midi": 48,
        "time": 146,
        "duration": 1,
        "velocity": 0.93,
        "hand": "left"
      },
      {
        "midi": 60,
        "time": 146,
        "duration": 1,
        "velocity": 0.71,
        "hand": "right"
      },
      {
        "midi": 51,
        "time": 146.25,
        "duration": 0.25,
        "velocity": 0.93,
        "hand": "left"
      },
      {
        "midi": 36,
        "time": 146.5,
        "duration": 0.5,
        "velocity": 0.32,
        "hand": "left"
      },
      {
        "midi": 39,
        "time": 146.5,
        "duration": 0.5,
        "velocity": 0.32,
        "hand": "left"
      },
      {
        "midi": 43,
        "time": 146.5,
        "duration": 0.5,
        "velocity": 0.32,
        "hand": "left"
      },
      {
        "midi": 55,
        "time": 146.5,
        "duration": 0.25,
        "velocity": 0.93,
        "hand": "left"
      },
      {
        "midi": 51,
        "time": 146.75,
        "duration": 0.25,
        "velocity": 0.93,
        "hand": "left"
      },
      {
        "midi": 48,
        "time": 147,
        "duration": 0.5,
        "velocity": 0.93,
        "hand": "left"
      },
      {
        "midi": 60,
        "time": 147,
        "duration": 0.5,
        "velocity": 0.93,
        "hand": "right"
      },
      {
        "midi": 63,
        "time": 147.25,
        "duration": 0.25,
        "velocity": 0.71,
        "hand": "right"
      },
      {
        "midi": 50,
        "time": 147.5,
        "duration": 0.5,
        "velocity": 0.93,
        "hand": "left"
      },
      {
        "midi": 62,
        "time": 147.5,
        "duration": 0.5,
        "velocity": 0.93,
        "hand": "right"
      },
      {
        "midi": 67,
        "time": 147.5,
        "duration": 0.25,
        "velocity": 0.71,
        "hand": "right"
      },
      {
        "midi": 72,
        "time": 147.5,
        "duration": 0.25,
        "velocity": 0.71,
        "hand": "right"
      },
      {
        "midi": 63,
        "time": 147.75,
        "duration": 0.25,
        "velocity": 0.71,
        "hand": "right"
      },
      {
        "midi": 53,
        "time": 148,
        "duration": 0.5,
        "velocity": 0.93,
        "hand": "left"
      },
      {
        "midi": 65,
        "time": 148,
        "duration": 0.5,
        "velocity": 0.93,
        "hand": "right"
      },
      {
        "midi": 67,
        "time": 148.25,
        "duration": 0.25,
        "velocity": 0.71,
        "hand": "right"
      },
      {
        "midi": 51,
        "time": 148.5,
        "duration": 0.5,
        "velocity": 0.93,
        "hand": "left"
      },
      {
        "midi": 63,
        "time": 148.5,
        "duration": 0.5,
        "velocity": 0.93,
        "hand": "right"
      },
      {
        "midi": 72,
        "time": 148.5,
        "duration": 0.25,
        "velocity": 0.71,
        "hand": "right"
      },
      {
        "midi": 75,
        "time": 148.5,
        "duration": 0.25,
        "velocity": 0.71,
        "hand": "right"
      },
      {
        "midi": 67,
        "time": 148.75,
        "duration": 0.25,
        "velocity": 0.71,
        "hand": "right"
      },
      {
        "midi": 50,
        "time": 149,
        "duration": 0.5,
        "velocity": 0.93,
        "hand": "left"
      },
      {
        "midi": 62,
        "time": 149,
        "duration": 0.5,
        "velocity": 0.93,
        "hand": "right"
      },
      {
        "midi": 72,
        "time": 149.25,
        "duration": 0.25,
        "velocity": 0.71,
        "hand": "right"
      },
      {
        "midi": 48,
        "time": 149.5,
        "duration": 0.5,
        "velocity": 0.93,
        "hand": "left"
      },
      {
        "midi": 60,
        "time": 149.5,
        "duration": 0.5,
        "velocity": 0.93,
        "hand": "right"
      },
      {
        "midi": 75,
        "time": 149.5,
        "duration": 0.25,
        "velocity": 0.71,
        "hand": "right"
      },
      {
        "midi": 79,
        "time": 149.5,
        "duration": 0.25,
        "velocity": 0.71,
        "hand": "right"
      },
      {
        "midi": 72,
        "time": 149.75,
        "duration": 0.25,
        "velocity": 0.71,
        "hand": "right"
      },
      {
        "midi": 51,
        "time": 150,
        "duration": 1,
        "velocity": 0.75,
        "hand": "left"
      },
      {
        "midi": 63,
        "time": 150,
        "duration": 3,
        "velocity": 0.75,
        "hand": "right"
      },
      {
        "midi": 75,
        "time": 150.25,
        "duration": 0.25,
        "velocity": 0.71,
        "hand": "right"
      },
      {
        "midi": 79,
        "time": 150.5,
        "duration": 0.25,
        "velocity": 0.71,
        "hand": "right"
      },
      {
        "midi": 82,
        "time": 150.5,
        "duration": 0.25,
        "velocity": 0.71,
        "hand": "right"
      },
      {
        "midi": 75,
        "time": 150.75,
        "duration": 0.25,
        "velocity": 0.71,
        "hand": "right"
      },
      {
        "midi": 43,
        "time": 151,
        "duration": 2,
        "velocity": 0.32,
        "hand": "left"
      },
      {
        "midi": 46,
        "time": 151,
        "duration": 2,
        "velocity": 0.32,
        "hand": "left"
      },
      {
        "midi": 51,
        "time": 151,
        "duration": 2,
        "velocity": 0.32,
        "hand": "left"
      },
      {
        "midi": 55,
        "time": 151,
        "duration": 2,
        "velocity": 0.32,
        "hand": "left"
      },
      {
        "midi": 82,
        "time": 151,
        "duration": 0.25,
        "velocity": 0.71,
        "hand": "right"
      },
      {
        "midi": 87,
        "time": 151,
        "duration": 0.25,
        "velocity": 0.71,
        "hand": "right"
      },
      {
        "midi": 75,
        "time": 151.25,
        "duration": 0.25,
        "velocity": 0.71,
        "hand": "right"
      },
      {
        "midi": 79,
        "time": 151.5,
        "duration": 0.25,
        "velocity": 0.71,
        "hand": "right"
      },
      {
        "midi": 82,
        "time": 151.5,
        "duration": 0.25,
        "velocity": 0.71,
        "hand": "right"
      },
      {
        "midi": 75,
        "time": 151.75,
        "duration": 0.25,
        "velocity": 0.71,
        "hand": "right"
      },
      {
        "midi": 75,
        "time": 152,
        "duration": 0.25,
        "velocity": 0.71,
        "hand": "right"
      },
      {
        "midi": 79,
        "time": 152,
        "duration": 0.25,
        "velocity": 0.71,
        "hand": "right"
      },
      {
        "midi": 70,
        "time": 152.25,
        "duration": 0.25,
        "velocity": 0.71,
        "hand": "right"
      },
      {
        "midi": 70,
        "time": 152.5,
        "duration": 0.25,
        "velocity": 0.71,
        "hand": "right"
      },
      {
        "midi": 75,
        "time": 152.5,
        "duration": 0.25,
        "velocity": 0.71,
        "hand": "right"
      },
      {
        "midi": 67,
        "time": 152.75,
        "duration": 0.25,
        "velocity": 0.71,
        "hand": "right"
      },
      {
        "midi": 51,
        "time": 153,
        "duration": 1,
        "velocity": 0.75,
        "hand": "left"
      },
      {
        "midi": 55,
        "time": 153,
        "duration": 1,
        "velocity": 0.75,
        "hand": "left"
      },
      {
        "midi": 63,
        "time": 153,
        "duration": 1,
        "velocity": 0.75,
        "hand": "right"
      },
      {
        "midi": 58,
        "time": 153.25,
        "duration": 0.25,
        "velocity": 0.71,
        "hand": "left"
      },
      {
        "midi": 67,
        "time": 153.5,
        "duration": 0.25,
        "velocity": 0.71,
        "hand": "right"
      },
      {
        "midi": 70,
        "time": 153.5,
        "duration": 0.25,
        "velocity": 0.71,
        "hand": "right"
      },
      {
        "midi": 58,
        "time": 153.75,
        "duration": 0.25,
        "velocity": 0.71,
        "hand": "left"
      },
      {
        "midi": 50,
        "time": 154,
        "duration": 1,
        "velocity": 0.75,
        "hand": "left"
      },
      {
        "midi": 53,
        "time": 154,
        "duration": 1,
        "velocity": 0.75,
        "hand": "left"
      },
      {
        "midi": 62,
        "time": 154,
        "duration": 1,
        "velocity": 0.75,
        "hand": "right"
      },
      {
        "midi": 58,
        "time": 154.25,
        "duration": 0.25,
        "velocity": 0.71,
        "hand": "left"
      },
      {
        "midi": 65,
        "time": 154.5,
        "duration": 0.25,
        "velocity": 0.71,
        "hand": "right"
      },
      {
        "midi": 70,
        "time": 154.5,
        "duration": 0.25,
        "velocity": 0.71,
        "hand": "right"
      },
      {
        "midi": 58,
        "time": 154.75,
        "duration": 0.25,
        "velocity": 0.71,
        "hand": "left"
      },
      {
        "midi": 48,
        "time": 155,
        "duration": 1,
        "velocity": 0.7,
        "hand": "left"
      },
      {
        "midi": 51,
        "time": 155,
        "duration": 1,
        "velocity": 0.7,
        "hand": "left"
      },
      {
        "midi": 55,
        "time": 155,
        "duration": 1,
        "velocity": 0.7,
        "hand": "left"
      },
      {
        "midi": 60,
        "time": 155,
        "duration": 1,
        "velocity": 0.7,
        "hand": "right"
      },
      {
        "midi": 63,
        "time": 155.25,
        "duration": 0.25,
        "velocity": 0.71,
        "hand": "right"
      },
      {
        "midi": 67,
        "time": 155.5,
        "duration": 0.25,
        "velocity": 0.71,
        "hand": "right"
      },
      {
        "midi": 72,
        "time": 155.5,
        "duration": 0.25,
        "velocity": 0.71,
        "hand": "right"
      },
      {
        "midi": 75,
        "time": 155.5,
        "duration": 0.25,
        "velocity": 0.71,
        "hand": "right"
      },
      {
        "midi": 63,
        "time": 155.75,
        "duration": 0.25,
        "velocity": 0.71,
        "hand": "right"
      },
      {
        "midi": 43,
        "time": 156,
        "duration": 1,
        "velocity": 0.65,
        "hand": "left"
      },
      {
        "midi": 46,
        "time": 156,
        "duration": 1,
        "velocity": 0.65,
        "hand": "left"
      },
      {
        "midi": 50,
        "time": 156,
        "duration": 1,
        "velocity": 0.65,
        "hand": "left"
      },
      {
        "midi": 55,
        "time": 156,
        "duration": 1,
        "velocity": 0.65,
        "hand": "left"
      },
      {
        "midi": 67,
        "time": 156.25,
        "duration": 0.25,
        "velocity": 0.71,
        "hand": "right"
      },
      {
        "midi": 70,
        "time": 156.5,
        "duration": 0.25,
        "velocity": 0.71,
        "hand": "right"
      },
      {
        "midi": 74,
        "time": 156.5,
        "duration": 0.25,
        "velocity": 0.71,
        "hand": "right"
      },
      {
        "midi": 79,
        "time": 156.5,
        "duration": 0.25,
        "velocity": 0.71,
        "hand": "right"
      },
      {
        "midi": 67,
        "time": 156.75,
        "duration": 0.25,
        "velocity": 0.71,
        "hand": "right"
      },
      {
        "midi": 39,
        "time": 157,
        "duration": 0.5,
        "velocity": 0.61,
        "hand": "left"
      },
      {
        "midi": 60,
        "time": 157,
        "duration": 0.75,
        "velocity": 0.71,
        "hand": "right"
      },
      {
        "midi": 48,
        "time": 157.25,
        "duration": 0.25,
        "velocity": 0.93,
        "hand": "left"
      },
      {
        "midi": 51,
        "time": 157.5,
        "duration": 0.5,
        "velocity": 0.61,
        "hand": "left"
      },
      {
        "midi": 55,
        "time": 157.5,
        "duration": 0.5,
        "velocity": 0.93,
        "hand": "left"
      },
      {
        "midi": 62,
        "time": 157.75,
        "duration": 0.25,
        "velocity": 0.71,
        "hand": "right"
      },
      {
        "midi": 34,
        "time": 158,
        "duration": 0.5,
        "velocity": 0.61,
        "hand": "left"
      },
      {
        "midi": 55,
        "time": 158,
        "duration": 0.75,
        "velocity": 0.71,
        "hand": "left"
      },
      {
        "midi": 60,
        "time": 158,
        "duration": 0.25,
        "velocity": 0.71,
        "hand": "right"
      },
      {
        "midi": 50,
        "time": 158.25,
        "duration": 0.5,
        "velocity": 0.93,
        "hand": "left"
      },
      {
        "midi": 46,
        "time": 158.5,
        "duration": 0.5,
        "velocity": 0.61,
        "hand": "left"
      },
      {
        "midi": 50,
        "time": 158.75,
        "duration": 0.25,
        "velocity": 0.93,
        "hand": "left"
      },
      {
        "midi": 55,
        "time": 158.75,
        "duration": 0.25,
        "velocity": 0.71,
        "hand": "left"
      },
      {
        "midi": 50,
        "time": 159,
        "duration": 0.25,
        "velocity": 0.61,
        "hand": "left"
      },
      {
        "midi": 55,
        "time": 159.25,
        "duration": 0.25,
        "velocity": 0.71,
        "hand": "left"
      },
      {
        "midi": 58,
        "time": 159.25,
        "duration": 0.25,
        "velocity": 0.71,
        "hand": "left"
      },
      {
        "midi": 55,
        "time": 159.5,
        "duration": 0.25,
        "velocity": 0.61,
        "hand": "left"
      },
      {
        "midi": 58,
        "time": 159.75,
        "duration": 0.25,
        "velocity": 0.71,
        "hand": "left"
      },
      {
        "midi": 62,
        "time": 159.75,
        "duration": 0.25,
        "velocity": 0.71,
        "hand": "right"
      },
      {
        "midi": 58,
        "time": 160,
        "duration": 0.25,
        "velocity": 0.61,
        "hand": "left"
      },
      {
        "midi": 62,
        "time": 160.25,
        "duration": 0.25,
        "velocity": 0.71,
        "hand": "right"
      },
      {
        "midi": 67,
        "time": 160.25,
        "duration": 0.25,
        "velocity": 0.71,
        "hand": "right"
      },
      {
        "midi": 62,
        "time": 160.5,
        "duration": 0.25,
        "velocity": 0.61,
        "hand": "right"
      },
      {
        "midi": 67,
        "time": 160.75,
        "duration": 0.25,
        "velocity": 0.71,
        "hand": "right"
      },
      {
        "midi": 70,
        "time": 160.75,
        "duration": 0.25,
        "velocity": 0.71,
        "hand": "right"
      },
      {
        "midi": 51,
        "time": 161,
        "duration": 0.5,
        "velocity": 0.61,
        "hand": "left"
      },
      {
        "midi": 72,
        "time": 161,
        "duration": 0.75,
        "velocity": 0.71,
        "hand": "right"
      },
      {
        "midi": 60,
        "time": 161.25,
        "duration": 0.25,
        "velocity": 0.54,
        "hand": "right"
      },
      {
        "midi": 63,
        "time": 161.5,
        "duration": 0.5,
        "velocity": 0.61,
        "hand": "right"
      },
      {
        "midi": 67,
        "time": 161.5,
        "duration": 0.5,
        "velocity": 0.54,
        "hand": "right"
      },
      {
        "midi": 74,
        "time": 161.75,
        "duration": 0.25,
        "velocity": 0.71,
        "hand": "right"
      },
      {
        "midi": 46,
        "time": 162,
        "duration": 0.5,
        "velocity": 0.61,
        "hand": "left"
      },
      {
        "midi": 67,
        "time": 162,
        "duration": 0.75,
        "velocity": 0.71,
        "hand": "right"
      },
      {
        "midi": 72,
        "time": 162,
        "duration": 0.25,
        "velocity": 0.71,
        "hand": "right"
      },
      {
        "midi": 62,
        "time": 162.25,
        "duration": 0.5,
        "velocity": 0.54,
        "hand": "right"
      },
      {
        "midi": 58,
        "time": 162.5,
        "duration": 0.5,
        "velocity": 0.61,
        "hand": "left"
      },
      {
        "midi": 62,
        "time": 162.75,
        "duration": 0.25,
        "velocity": 0.54,
        "hand": "right"
      },
      {
        "midi": 67,
        "time": 162.75,
        "duration": 0.25,
        "velocity": 0.71,
        "hand": "right"
      },
      {
        "midi": 62,
        "time": 163,
        "duration": 0.25,
        "velocity": 0.61,
        "hand": "right"
      },
      {
        "midi": 67,
        "time": 163.25,
        "duration": 0.25,
        "velocity": 0.71,
        "hand": "right"
      },
      {
        "midi": 70,
        "time": 163.25,
        "duration": 0.25,
        "velocity": 0.71,
        "hand": "right"
      },
      {
        "midi": 67,
        "time": 163.5,
        "duration": 0.25,
        "velocity": 0.61,
        "hand": "right"
      },
      {
        "midi": 70,
        "time": 163.75,
        "duration": 0.25,
        "velocity": 0.71,
        "hand": "right"
      },
      {
        "midi": 74,
        "time": 163.75,
        "duration": 0.25,
        "velocity": 0.71,
        "hand": "right"
      },
      {
        "midi": 70,
        "time": 164,
        "duration": 0.25,
        "velocity": 0.61,
        "hand": "right"
      },
      {
        "midi": 74,
        "time": 164.25,
        "duration": 0.25,
        "velocity": 0.71,
        "hand": "right"
      },
      {
        "midi": 79,
        "time": 164.25,
        "duration": 0.25,
        "velocity": 0.71,
        "hand": "right"
      },
      {
        "midi": 74,
        "time": 164.5,
        "duration": 0.25,
        "velocity": 0.61,
        "hand": "right"
      },
      {
        "midi": 79,
        "time": 164.75,
        "duration": 0.25,
        "velocity": 0.71,
        "hand": "right"
      },
      {
        "midi": 82,
        "time": 164.75,
        "duration": 0.25,
        "velocity": 0.71,
        "hand": "right"
      },
      {
        "midi": 63,
        "time": 165,
        "duration": 0.5,
        "velocity": 0.61,
        "hand": "right"
      },
      {
        "midi": 84,
        "time": 165,
        "duration": 0.75,
        "velocity": 0.71,
        "hand": "right"
      },
      {
        "midi": 72,
        "time": 165.25,
        "duration": 0.25,
        "velocity": 0.49,
        "hand": "right"
      },
      {
        "midi": 75,
        "time": 165.5,
        "duration": 0.5,
        "velocity": 0.61,
        "hand": "right"
      },
      {
        "midi": 79,
        "time": 165.5,
        "duration": 0.5,
        "velocity": 0.49,
        "hand": "right"
      },
      {
        "midi": 86,
        "time": 165.75,
        "duration": 0.25,
        "velocity": 0.71,
        "hand": "right"
      },
      {
        "midi": 58,
        "time": 166,
        "duration": 0.5,
        "velocity": 0.61,
        "hand": "left"
      },
      {
        "midi": 79,
        "time": 166,
        "duration": 0.75,
        "velocity": 0.71,
        "hand": "right"
      },
      {
        "midi": 84,
        "time": 166,
        "duration": 0.25,
        "velocity": 0.71,
        "hand": "right"
      },
      {
        "midi": 74,
        "time": 166.25,
        "duration": 0.5,
        "velocity": 0.49,
        "hand": "right"
      },
      {
        "midi": 70,
        "time": 166.5,
        "duration": 0.5,
        "velocity": 0.61,
        "hand": "right"
      },
      {
        "midi": 74,
        "time": 166.75,
        "duration": 0.25,
        "velocity": 0.49,
        "hand": "right"
      },
      {
        "midi": 79,
        "time": 166.75,
        "duration": 0.25,
        "velocity": 0.71,
        "hand": "right"
      },
      {
        "midi": 74,
        "time": 167,
        "duration": 0.25,
        "velocity": 0.61,
        "hand": "right"
      },
      {
        "midi": 79,
        "time": 167.25,
        "duration": 0.25,
        "velocity": 0.71,
        "hand": "right"
      },
      {
        "midi": 82,
        "time": 167.25,
        "duration": 0.25,
        "velocity": 0.71,
        "hand": "right"
      },
      {
        "midi": 79,
        "time": 167.5,
        "duration": 0.25,
        "velocity": 0.61,
        "hand": "right"
      },
      {
        "midi": 82,
        "time": 167.75,
        "duration": 0.25,
        "velocity": 0.71,
        "hand": "right"
      },
      {
        "midi": 86,
        "time": 167.75,
        "duration": 0.25,
        "velocity": 0.71,
        "hand": "right"
      },
      {
        "midi": 82,
        "time": 168,
        "duration": 0.25,
        "velocity": 0.61,
        "hand": "right"
      },
      {
        "midi": 86,
        "time": 168.25,
        "duration": 0.25,
        "velocity": 0.71,
        "hand": "right"
      },
      {
        "midi": 91,
        "time": 168.25,
        "duration": 0.25,
        "velocity": 0.71,
        "hand": "right"
      },
      {
        "midi": 86,
        "time": 168.5,
        "duration": 0.25,
        "velocity": 0.61,
        "hand": "right"
      },
      {
        "midi": 91,
        "time": 168.75,
        "duration": 0.25,
        "velocity": 0.71,
        "hand": "right"
      },
      {
        "midi": 94,
        "time": 168.75,
        "duration": 0.25,
        "velocity": 0.71,
        "hand": "right"
      },
      {
        "midi": 91,
        "time": 169,
        "duration": 0.25,
        "velocity": 0.61,
        "hand": "right"
      },
      {
        "midi": 94,
        "time": 169.25,
        "duration": 0.25,
        "velocity": 0.71,
        "hand": "right"
      },
      {
        "midi": 98,
        "time": 169.25,
        "duration": 0.25,
        "velocity": 0.71,
        "hand": "right"
      },
      {
        "midi": 94,
        "time": 169.5,
        "duration": 0.25,
        "velocity": 0.61,
        "hand": "right"
      },
      {
        "midi": 98,
        "time": 169.75,
        "duration": 0.25,
        "velocity": 0.71,
        "hand": "right"
      },
      {
        "midi": 103,
        "time": 169.75,
        "duration": 0.25,
        "velocity": 0.71,
        "hand": "right"
      },
      {
        "midi": 91,
        "time": 170,
        "duration": 0.25,
        "velocity": 0.61,
        "hand": "right"
      },
      {
        "midi": 94,
        "time": 170.25,
        "duration": 0.25,
        "velocity": 0.71,
        "hand": "right"
      },
      {
        "midi": 98,
        "time": 170.25,
        "duration": 0.25,
        "velocity": 0.71,
        "hand": "right"
      },
      {
        "midi": 94,
        "time": 170.5,
        "duration": 0.25,
        "velocity": 0.61,
        "hand": "right"
      },
      {
        "midi": 98,
        "time": 170.75,
        "duration": 0.25,
        "velocity": 0.71,
        "hand": "right"
      },
      {
        "midi": 103,
        "time": 170.75,
        "duration": 0.25,
        "velocity": 0.71,
        "hand": "right"
      },
      {
        "midi": 91,
        "time": 171,
        "duration": 0.25,
        "velocity": 0.61,
        "hand": "right"
      },
      {
        "midi": 94,
        "time": 171.25,
        "duration": 0.25,
        "velocity": 0.71,
        "hand": "right"
      },
      {
        "midi": 98,
        "time": 171.25,
        "duration": 0.25,
        "velocity": 0.71,
        "hand": "right"
      },
      {
        "midi": 94,
        "time": 171.5,
        "duration": 0.25,
        "velocity": 0.61,
        "hand": "right"
      },
      {
        "midi": 98,
        "time": 171.75,
        "duration": 0.25,
        "velocity": 0.71,
        "hand": "right"
      },
      {
        "midi": 103,
        "time": 171.75,
        "duration": 0.25,
        "velocity": 0.71,
        "hand": "right"
      },
      {
        "midi": 91,
        "time": 172,
        "duration": 0.25,
        "velocity": 0.61,
        "hand": "right"
      },
      {
        "midi": 94,
        "time": 172.25,
        "duration": 0.25,
        "velocity": 0.71,
        "hand": "right"
      },
      {
        "midi": 98,
        "time": 172.25,
        "duration": 0.25,
        "velocity": 0.71,
        "hand": "right"
      },
      {
        "midi": 94,
        "time": 172.5,
        "duration": 0.25,
        "velocity": 0.61,
        "hand": "right"
      },
      {
        "midi": 98,
        "time": 172.75,
        "duration": 0.25,
        "velocity": 0.71,
        "hand": "right"
      },
      {
        "midi": 103,
        "time": 172.75,
        "duration": 0.25,
        "velocity": 0.71,
        "hand": "right"
      },
      {
        "midi": 91,
        "time": 173,
        "duration": 0.25,
        "velocity": 0.61,
        "hand": "right"
      },
      {
        "midi": 94,
        "time": 173.25,
        "duration": 0.25,
        "velocity": 0.71,
        "hand": "right"
      },
      {
        "midi": 98,
        "time": 173.25,
        "duration": 0.25,
        "velocity": 0.71,
        "hand": "right"
      },
      {
        "midi": 94,
        "time": 173.5,
        "duration": 0.25,
        "velocity": 0.61,
        "hand": "right"
      },
      {
        "midi": 98,
        "time": 173.75,
        "duration": 0.25,
        "velocity": 0.71,
        "hand": "right"
      },
      {
        "midi": 103,
        "time": 173.75,
        "duration": 0.25,
        "velocity": 0.71,
        "hand": "right"
      },
      {
        "midi": 91,
        "time": 174,
        "duration": 0.5,
        "velocity": 0.61,
        "hand": "right"
      },
      {
        "midi": 94,
        "time": 174.25,
        "duration": 0.25,
        "velocity": 0.61,
        "hand": "right"
      },
      {
        "midi": 98,
        "time": 174.25,
        "duration": 0.25,
        "velocity": 0.61,
        "hand": "right"
      },
      {
        "midi": 87,
        "time": 174.5,
        "duration": 0.25,
        "velocity": 0.61,
        "hand": "right"
      },
      {
        "midi": 96,
        "time": 174.5,
        "duration": 0.25,
        "velocity": 0.61,
        "hand": "right"
      },
      {
        "midi": 103,
        "time": 174.5,
        "duration": 0.25,
        "velocity": 0.61,
        "hand": "right"
      },
      {
        "midi": 91,
        "time": 174.75,
        "duration": 0.25,
        "velocity": 0.61,
        "hand": "right"
      },
      {
        "midi": 94,
        "time": 174.75,
        "duration": 0.25,
        "velocity": 0.61,
        "hand": "right"
      },
      {
        "midi": 98,
        "time": 174.75,
        "duration": 0.25,
        "velocity": 0.61,
        "hand": "right"
      },
      {
        "midi": 87,
        "time": 175,
        "duration": 0.25,
        "velocity": 0.61,
        "hand": "right"
      },
      {
        "midi": 96,
        "time": 175,
        "duration": 0.25,
        "velocity": 0.61,
        "hand": "right"
      },
      {
        "midi": 103,
        "time": 175,
        "duration": 0.25,
        "velocity": 0.61,
        "hand": "right"
      },
      {
        "midi": 91,
        "time": 175.25,
        "duration": 0.25,
        "velocity": 0.61,
        "hand": "right"
      },
      {
        "midi": 94,
        "time": 175.25,
        "duration": 0.25,
        "velocity": 0.61,
        "hand": "right"
      },
      {
        "midi": 98,
        "time": 175.25,
        "duration": 0.25,
        "velocity": 0.61,
        "hand": "right"
      },
      {
        "midi": 87,
        "time": 175.5,
        "duration": 0.25,
        "velocity": 0.61,
        "hand": "right"
      },
      {
        "midi": 96,
        "time": 175.5,
        "duration": 0.25,
        "velocity": 0.61,
        "hand": "right"
      },
      {
        "midi": 103,
        "time": 175.5,
        "duration": 0.25,
        "velocity": 0.61,
        "hand": "right"
      },
      {
        "midi": 91,
        "time": 175.75,
        "duration": 0.25,
        "velocity": 0.61,
        "hand": "right"
      },
      {
        "midi": 94,
        "time": 175.75,
        "duration": 0.25,
        "velocity": 0.61,
        "hand": "right"
      },
      {
        "midi": 98,
        "time": 175.75,
        "duration": 0.25,
        "velocity": 0.61,
        "hand": "right"
      },
      {
        "midi": 87,
        "time": 176,
        "duration": 0.25,
        "velocity": 0.61,
        "hand": "right"
      },
      {
        "midi": 96,
        "time": 176,
        "duration": 0.25,
        "velocity": 0.61,
        "hand": "right"
      },
      {
        "midi": 103,
        "time": 176,
        "duration": 0.25,
        "velocity": 0.61,
        "hand": "right"
      },
      {
        "midi": 91,
        "time": 176.25,
        "duration": 0.25,
        "velocity": 0.61,
        "hand": "right"
      },
      {
        "midi": 94,
        "time": 176.25,
        "duration": 0.25,
        "velocity": 0.61,
        "hand": "right"
      },
      {
        "midi": 98,
        "time": 176.25,
        "duration": 0.25,
        "velocity": 0.61,
        "hand": "right"
      },
      {
        "midi": 87,
        "time": 176.5,
        "duration": 0.25,
        "velocity": 0.61,
        "hand": "right"
      },
      {
        "midi": 96,
        "time": 176.5,
        "duration": 0.25,
        "velocity": 0.61,
        "hand": "right"
      },
      {
        "midi": 103,
        "time": 176.5,
        "duration": 0.25,
        "velocity": 0.61,
        "hand": "right"
      },
      {
        "midi": 91,
        "time": 176.75,
        "duration": 0.25,
        "velocity": 0.61,
        "hand": "right"
      },
      {
        "midi": 94,
        "time": 176.75,
        "duration": 0.25,
        "velocity": 0.61,
        "hand": "right"
      },
      {
        "midi": 98,
        "time": 176.75,
        "duration": 0.25,
        "velocity": 0.61,
        "hand": "right"
      },
      {
        "midi": 87,
        "time": 177,
        "duration": 0.25,
        "velocity": 0.61,
        "hand": "right"
      },
      {
        "midi": 96,
        "time": 177,
        "duration": 0.25,
        "velocity": 0.61,
        "hand": "right"
      },
      {
        "midi": 103,
        "time": 177,
        "duration": 0.25,
        "velocity": 0.61,
        "hand": "right"
      },
      {
        "midi": 91,
        "time": 177.25,
        "duration": 0.25,
        "velocity": 0.61,
        "hand": "right"
      },
      {
        "midi": 94,
        "time": 177.25,
        "duration": 0.25,
        "velocity": 0.61,
        "hand": "right"
      },
      {
        "midi": 98,
        "time": 177.25,
        "duration": 0.25,
        "velocity": 0.61,
        "hand": "right"
      },
      {
        "midi": 87,
        "time": 177.5,
        "duration": 0.25,
        "velocity": 0.61,
        "hand": "right"
      },
      {
        "midi": 96,
        "time": 177.5,
        "duration": 0.25,
        "velocity": 0.61,
        "hand": "right"
      },
      {
        "midi": 103,
        "time": 177.5,
        "duration": 0.25,
        "velocity": 0.61,
        "hand": "right"
      },
      {
        "midi": 91,
        "time": 177.75,
        "duration": 0.25,
        "velocity": 0.61,
        "hand": "right"
      },
      {
        "midi": 94,
        "time": 177.75,
        "duration": 0.25,
        "velocity": 0.61,
        "hand": "right"
      },
      {
        "midi": 98,
        "time": 177.75,
        "duration": 0.25,
        "velocity": 0.61,
        "hand": "right"
      },
      {
        "midi": 87,
        "time": 178,
        "duration": 0.25,
        "velocity": 0.61,
        "hand": "right"
      },
      {
        "midi": 96,
        "time": 178,
        "duration": 0.25,
        "velocity": 0.61,
        "hand": "right"
      },
      {
        "midi": 103,
        "time": 178,
        "duration": 0.25,
        "velocity": 0.61,
        "hand": "right"
      },
      {
        "midi": 87,
        "time": 178.25,
        "duration": 0.25,
        "velocity": 0.61,
        "hand": "right"
      },
      {
        "midi": 91,
        "time": 178.25,
        "duration": 0.25,
        "velocity": 0.61,
        "hand": "right"
      },
      {
        "midi": 94,
        "time": 178.25,
        "duration": 0.25,
        "velocity": 0.61,
        "hand": "right"
      },
      {
        "midi": 96,
        "time": 178.25,
        "duration": 0.25,
        "velocity": 0.61,
        "hand": "right"
      },
      {
        "midi": 98,
        "time": 178.25,
        "duration": 0.25,
        "velocity": 0.61,
        "hand": "right"
      },
      {
        "midi": 103,
        "time": 178.25,
        "duration": 0.25,
        "velocity": 0.61,
        "hand": "right"
      },
      {
        "midi": 91,
        "time": 178.5,
        "duration": 0.25,
        "velocity": 0.61,
        "hand": "right"
      },
      {
        "midi": 94,
        "time": 178.5,
        "duration": 0.25,
        "velocity": 0.61,
        "hand": "right"
      },
      {
        "midi": 98,
        "time": 178.5,
        "duration": 0.25,
        "velocity": 0.61,
        "hand": "right"
      },
      {
        "midi": 87,
        "time": 178.75,
        "duration": 0.25,
        "velocity": 0.61,
        "hand": "right"
      },
      {
        "midi": 91,
        "time": 178.75,
        "duration": 0.25,
        "velocity": 0.61,
        "hand": "right"
      },
      {
        "midi": 94,
        "time": 178.75,
        "duration": 0.25,
        "velocity": 0.61,
        "hand": "right"
      },
      {
        "midi": 96,
        "time": 178.75,
        "duration": 0.25,
        "velocity": 0.61,
        "hand": "right"
      },
      {
        "midi": 98,
        "time": 178.75,
        "duration": 0.25,
        "velocity": 0.61,
        "hand": "right"
      },
      {
        "midi": 103,
        "time": 178.75,
        "duration": 0.25,
        "velocity": 0.61,
        "hand": "right"
      },
      {
        "midi": 87,
        "time": 179,
        "duration": 0.25,
        "velocity": 0.61,
        "hand": "right"
      },
      {
        "midi": 96,
        "time": 179,
        "duration": 0.25,
        "velocity": 0.61,
        "hand": "right"
      },
      {
        "midi": 103,
        "time": 179,
        "duration": 0.25,
        "velocity": 0.61,
        "hand": "right"
      },
      {
        "midi": 87,
        "time": 179.25,
        "duration": 0.25,
        "velocity": 0.61,
        "hand": "right"
      },
      {
        "midi": 91,
        "time": 179.25,
        "duration": 0.25,
        "velocity": 0.61,
        "hand": "right"
      },
      {
        "midi": 94,
        "time": 179.25,
        "duration": 0.25,
        "velocity": 0.61,
        "hand": "right"
      },
      {
        "midi": 96,
        "time": 179.25,
        "duration": 0.25,
        "velocity": 0.61,
        "hand": "right"
      },
      {
        "midi": 98,
        "time": 179.25,
        "duration": 0.25,
        "velocity": 0.61,
        "hand": "right"
      },
      {
        "midi": 103,
        "time": 179.25,
        "duration": 0.25,
        "velocity": 0.61,
        "hand": "right"
      },
      {
        "midi": 91,
        "time": 179.5,
        "duration": 0.25,
        "velocity": 0.61,
        "hand": "right"
      },
      {
        "midi": 94,
        "time": 179.5,
        "duration": 0.25,
        "velocity": 0.61,
        "hand": "right"
      },
      {
        "midi": 98,
        "time": 179.5,
        "duration": 0.25,
        "velocity": 0.61,
        "hand": "right"
      },
      {
        "midi": 87,
        "time": 179.75,
        "duration": 0.25,
        "velocity": 0.61,
        "hand": "right"
      },
      {
        "midi": 91,
        "time": 179.75,
        "duration": 0.25,
        "velocity": 0.61,
        "hand": "right"
      },
      {
        "midi": 94,
        "time": 179.75,
        "duration": 0.25,
        "velocity": 0.61,
        "hand": "right"
      },
      {
        "midi": 96,
        "time": 179.75,
        "duration": 0.25,
        "velocity": 0.61,
        "hand": "right"
      },
      {
        "midi": 98,
        "time": 179.75,
        "duration": 0.25,
        "velocity": 0.61,
        "hand": "right"
      },
      {
        "midi": 103,
        "time": 179.75,
        "duration": 0.25,
        "velocity": 0.61,
        "hand": "right"
      },
      {
        "midi": 87,
        "time": 180,
        "duration": 0.25,
        "velocity": 0.61,
        "hand": "right"
      },
      {
        "midi": 96,
        "time": 180,
        "duration": 0.25,
        "velocity": 0.61,
        "hand": "right"
      },
      {
        "midi": 103,
        "time": 180,
        "duration": 0.25,
        "velocity": 0.61,
        "hand": "right"
      },
      {
        "midi": 91,
        "time": 180.25,
        "duration": 0.25,
        "velocity": 0.61,
        "hand": "right"
      },
      {
        "midi": 94,
        "time": 180.25,
        "duration": 0.25,
        "velocity": 0.61,
        "hand": "right"
      },
      {
        "midi": 98,
        "time": 180.25,
        "duration": 0.25,
        "velocity": 0.61,
        "hand": "right"
      },
      {
        "midi": 87,
        "time": 180.5,
        "duration": 0.25,
        "velocity": 0.61,
        "hand": "right"
      },
      {
        "midi": 91,
        "time": 180.5,
        "duration": 1,
        "velocity": 0.61,
        "hand": "right"
      },
      {
        "midi": 94,
        "time": 180.5,
        "duration": 1,
        "velocity": 0.61,
        "hand": "right"
      },
      {
        "midi": 96,
        "time": 180.5,
        "duration": 0.25,
        "velocity": 0.61,
        "hand": "right"
      },
      {
        "midi": 98,
        "time": 180.5,
        "duration": 1,
        "velocity": 0.61,
        "hand": "right"
      },
      {
        "midi": 103,
        "time": 180.5,
        "duration": 0.25,
        "velocity": 0.61,
        "hand": "right"
      },
      {
        "midi": 51,
        "time": 182,
        "duration": 1.5,
        "velocity": 0.68,
        "hand": "left"
      },
      {
        "midi": 58,
        "time": 182,
        "duration": 1.5,
        "velocity": 0.68,
        "hand": "left"
      },
      {
        "midi": 63,
        "time": 182,
        "duration": 1.5,
        "velocity": 0.68,
        "hand": "right"
      },
      {
        "midi": 67,
        "time": 182,
        "duration": 1.5,
        "velocity": 0.71,
        "hand": "right"
      },
      {
        "midi": 70,
        "time": 182,
        "duration": 1.5,
        "velocity": 0.71,
        "hand": "right"
      },
      {
        "midi": 75,
        "time": 182,
        "duration": 1.5,
        "velocity": 0.71,
        "hand": "right"
      },
      {
        "midi": 79,
        "time": 182,
        "duration": 1.5,
        "velocity": 0.71,
        "hand": "right"
      },
      {
        "midi": 77,
        "time": 183.5,
        "duration": 0.125,
        "velocity": 0.71,
        "hand": "right"
      },
      {
        "midi": 77,
        "time": 183.5,
        "duration": 0.25,
        "velocity": 0.71,
        "hand": "right"
      },
      {
        "midi": 79,
        "time": 183.5,
        "duration": 0.125,
        "velocity": 0.71,
        "hand": "right"
      },
      {
        "midi": 75,
        "time": 183.75,
        "duration": 0.25,
        "velocity": 0.71,
        "hand": "right"
      },
      {
        "midi": 74,
        "time": 184,
        "duration": 0.25,
        "velocity": 0.71,
        "hand": "right"
      },
      {
        "midi": 75,
        "time": 184.25,
        "duration": 0.25,
        "velocity": 0.71,
        "hand": "right"
      },
      {
        "midi": 72,
        "time": 184.5,
        "duration": 0.25,
        "velocity": 0.71,
        "hand": "right"
      },
      {
        "midi": 74,
        "time": 184.75,
        "duration": 0.25,
        "velocity": 0.71,
        "hand": "right"
      },
      {
        "midi": 70,
        "time": 185,
        "duration": 0.5,
        "velocity": 0.71,
        "hand": "right"
      },
      {
        "midi": 56,
        "time": 185.5,
        "duration": 0.5,
        "velocity": 0.68,
        "hand": "left"
      },
      {
        "midi": 63,
        "time": 185.5,
        "duration": 0.5,
        "velocity": 0.68,
        "hand": "right"
      },
      {
        "midi": 65,
        "time": 185.5,
        "duration": 0.5,
        "velocity": 0.71,
        "hand": "right"
      },
      {
        "midi": 72,
        "time": 185.5,
        "duration": 0.5,
        "velocity": 0.71,
        "hand": "right"
      },
      {
        "midi": 51,
        "time": 186,
        "duration": 1.5,
        "velocity": 0.68,
        "hand": "left"
      },
      {
        "midi": 58,
        "time": 186,
        "duration": 1.5,
        "velocity": 0.68,
        "hand": "left"
      },
      {
        "midi": 63,
        "time": 186,
        "duration": 1.5,
        "velocity": 0.68,
        "hand": "right"
      },
      {
        "midi": 67,
        "time": 186,
        "duration": 1.5,
        "velocity": 0.71,
        "hand": "right"
      },
      {
        "midi": 70,
        "time": 186,
        "duration": 1.5,
        "velocity": 0.71,
        "hand": "right"
      },
      {
        "midi": 75,
        "time": 186,
        "duration": 1.5,
        "velocity": 0.71,
        "hand": "right"
      },
      {
        "midi": 79,
        "time": 186,
        "duration": 1.5,
        "velocity": 0.71,
        "hand": "right"
      },
      {
        "midi": 77,
        "time": 187.5,
        "duration": 0.125,
        "velocity": 0.71,
        "hand": "right"
      },
      {
        "midi": 77,
        "time": 187.5,
        "duration": 0.25,
        "velocity": 0.71,
        "hand": "right"
      },
      {
        "midi": 79,
        "time": 187.5,
        "duration": 0.125,
        "velocity": 0.71,
        "hand": "right"
      },
      {
        "midi": 75,
        "time": 187.75,
        "duration": 0.25,
        "velocity": 0.71,
        "hand": "right"
      },
      {
        "midi": 74,
        "time": 188,
        "duration": 0.25,
        "velocity": 0.71,
        "hand": "right"
      },
      {
        "midi": 75,
        "time": 188.25,
        "duration": 0.25,
        "velocity": 0.71,
        "hand": "right"
      },
      {
        "midi": 72,
        "time": 188.5,
        "duration": 0.25,
        "velocity": 0.71,
        "hand": "right"
      },
      {
        "midi": 74,
        "time": 188.75,
        "duration": 0.25,
        "velocity": 0.71,
        "hand": "right"
      },
      {
        "midi": 70,
        "time": 189,
        "duration": 0.5,
        "velocity": 0.71,
        "hand": "right"
      },
      {
        "midi": 56,
        "time": 189.5,
        "duration": 0.5,
        "velocity": 0.68,
        "hand": "left"
      },
      {
        "midi": 63,
        "time": 189.5,
        "duration": 0.5,
        "velocity": 0.68,
        "hand": "right"
      },
      {
        "midi": 65,
        "time": 189.5,
        "duration": 0.5,
        "velocity": 0.71,
        "hand": "right"
      },
      {
        "midi": 72,
        "time": 189.5,
        "duration": 0.5,
        "velocity": 0.71,
        "hand": "right"
      },
      {
        "midi": 51,
        "time": 190,
        "duration": 0.5,
        "velocity": 0.68,
        "hand": "left"
      },
      {
        "midi": 58,
        "time": 190,
        "duration": 0.5,
        "velocity": 0.68,
        "hand": "left"
      },
      {
        "midi": 63,
        "time": 190,
        "duration": 0.5,
        "velocity": 0.68,
        "hand": "right"
      },
      {
        "midi": 67,
        "time": 190,
        "duration": 0.5,
        "velocity": 0.68,
        "hand": "right"
      },
      {
        "midi": 70,
        "time": 190,
        "duration": 0.5,
        "velocity": 0.68,
        "hand": "right"
      },
      {
        "midi": 79,
        "time": 190,
        "duration": 0.5,
        "velocity": 0.68,
        "hand": "right"
      },
      {
        "midi": 51,
        "time": 190.5,
        "duration": 0.5,
        "velocity": 0.68,
        "hand": "left"
      },
      {
        "midi": 58,
        "time": 190.5,
        "duration": 0.5,
        "velocity": 0.68,
        "hand": "left"
      },
      {
        "midi": 63,
        "time": 190.5,
        "duration": 0.5,
        "velocity": 0.68,
        "hand": "right"
      },
      {
        "midi": 67,
        "time": 190.5,
        "duration": 0.5,
        "velocity": 0.68,
        "hand": "right"
      },
      {
        "midi": 70,
        "time": 190.5,
        "duration": 0.5,
        "velocity": 0.68,
        "hand": "right"
      },
      {
        "midi": 79,
        "time": 190.5,
        "duration": 0.5,
        "velocity": 0.68,
        "hand": "right"
      },
      {
        "midi": 53,
        "time": 191,
        "duration": 0.5,
        "velocity": 0.68,
        "hand": "left"
      },
      {
        "midi": 58,
        "time": 191,
        "duration": 0.5,
        "velocity": 0.68,
        "hand": "left"
      },
      {
        "midi": 65,
        "time": 191,
        "duration": 0.5,
        "velocity": 0.68,
        "hand": "right"
      },
      {
        "midi": 68,
        "time": 191,
        "duration": 0.5,
        "velocity": 0.68,
        "hand": "right"
      },
      {
        "midi": 70,
        "time": 191,
        "duration": 0.5,
        "velocity": 0.68,
        "hand": "right"
      },
      {
        "midi": 80,
        "time": 191,
        "duration": 0.5,
        "velocity": 0.68,
        "hand": "right"
      },
      {
        "midi": 51,
        "time": 191.5,
        "duration": 0.5,
        "velocity": 0.68,
        "hand": "left"
      },
      {
        "midi": 58,
        "time": 191.5,
        "duration": 0.5,
        "velocity": 0.68,
        "hand": "left"
      },
      {
        "midi": 63,
        "time": 191.5,
        "duration": 0.5,
        "velocity": 0.68,
        "hand": "right"
      },
      {
        "midi": 67,
        "time": 191.5,
        "duration": 0.5,
        "velocity": 0.68,
        "hand": "right"
      },
      {
        "midi": 70,
        "time": 191.5,
        "duration": 0.5,
        "velocity": 0.68,
        "hand": "right"
      },
      {
        "midi": 79,
        "time": 191.5,
        "duration": 0.5,
        "velocity": 0.68,
        "hand": "right"
      },
      {
        "midi": 50,
        "time": 192,
        "duration": 0.5,
        "velocity": 0.68,
        "hand": "left"
      },
      {
        "midi": 58,
        "time": 192,
        "duration": 0.5,
        "velocity": 0.68,
        "hand": "left"
      },
      {
        "midi": 62,
        "time": 192,
        "duration": 0.5,
        "velocity": 0.68,
        "hand": "right"
      },
      {
        "midi": 65,
        "time": 192,
        "duration": 0.5,
        "velocity": 0.68,
        "hand": "right"
      },
      {
        "midi": 70,
        "time": 192,
        "duration": 0.5,
        "velocity": 0.68,
        "hand": "right"
      },
      {
        "midi": 77,
        "time": 192,
        "duration": 0.5,
        "velocity": 0.68,
        "hand": "right"
      },
      {
        "midi": 51,
        "time": 192.5,
        "duration": 0.5,
        "velocity": 0.68,
        "hand": "left"
      },
      {
        "midi": 58,
        "time": 192.5,
        "duration": 0.5,
        "velocity": 0.68,
        "hand": "left"
      },
      {
        "midi": 63,
        "time": 192.5,
        "duration": 0.5,
        "velocity": 0.68,
        "hand": "right"
      },
      {
        "midi": 67,
        "time": 192.5,
        "duration": 0.5,
        "velocity": 0.68,
        "hand": "right"
      },
      {
        "midi": 70,
        "time": 192.5,
        "duration": 0.5,
        "velocity": 0.68,
        "hand": "right"
      },
      {
        "midi": 79,
        "time": 192.5,
        "duration": 0.5,
        "velocity": 0.68,
        "hand": "right"
      },
      {
        "midi": 48,
        "time": 193,
        "duration": 0.5,
        "velocity": 0.68,
        "hand": "left"
      },
      {
        "midi": 58,
        "time": 193,
        "duration": 0.5,
        "velocity": 0.68,
        "hand": "left"
      },
      {
        "midi": 60,
        "time": 193,
        "duration": 0.5,
        "velocity": 0.68,
        "hand": "right"
      },
      {
        "midi": 63,
        "time": 193,
        "duration": 0.5,
        "velocity": 0.68,
        "hand": "right"
      },
      {
        "midi": 70,
        "time": 193,
        "duration": 0.5,
        "velocity": 0.68,
        "hand": "right"
      },
      {
        "midi": 75,
        "time": 193,
        "duration": 0.5,
        "velocity": 0.68,
        "hand": "right"
      },
      {
        "midi": 50,
        "time": 193.5,
        "duration": 0.5,
        "velocity": 0.68,
        "hand": "left"
      },
      {
        "midi": 58,
        "time": 193.5,
        "duration": 0.5,
        "velocity": 0.68,
        "hand": "left"
      },
      {
        "midi": 62,
        "time": 193.5,
        "duration": 0.5,
        "velocity": 0.68,
        "hand": "right"
      },
      {
        "midi": 65,
        "time": 193.5,
        "duration": 0.5,
        "velocity": 0.68,
        "hand": "right"
      },
      {
        "midi": 70,
        "time": 193.5,
        "duration": 0.5,
        "velocity": 0.68,
        "hand": "right"
      },
      {
        "midi": 77,
        "time": 193.5,
        "duration": 0.5,
        "velocity": 0.68,
        "hand": "right"
      },
      {
        "midi": 51,
        "time": 194,
        "duration": 0.5,
        "velocity": 0.68,
        "hand": "left"
      },
      {
        "midi": 58,
        "time": 194,
        "duration": 0.5,
        "velocity": 0.68,
        "hand": "left"
      },
      {
        "midi": 63,
        "time": 194,
        "duration": 0.5,
        "velocity": 0.68,
        "hand": "right"
      },
      {
        "midi": 67,
        "time": 194,
        "duration": 0.5,
        "velocity": 0.75,
        "hand": "right"
      },
      {
        "midi": 70,
        "time": 194,
        "duration": 0.5,
        "velocity": 0.75,
        "hand": "right"
      },
      {
        "midi": 79,
        "time": 194,
        "duration": 0.5,
        "velocity": 0.75,
        "hand": "right"
      },
      {
        "midi": 55,
        "time": 194.5,
        "duration": 1,
        "velocity": 0.68,
        "hand": "left"
      },
      {
        "midi": 63,
        "time": 194.5,
        "duration": 1,
        "velocity": 0.68,
        "hand": "right"
      },
      {
        "midi": 67,
        "time": 194.5,
        "duration": 1,
        "velocity": 0.68,
        "hand": "right"
      },
      {
        "midi": 70,
        "time": 194.5,
        "duration": 1,
        "velocity": 0.75,
        "hand": "right"
      },
      {
        "midi": 75,
        "time": 194.5,
        "duration": 1,
        "velocity": 0.75,
        "hand": "right"
      },
      {
        "midi": 82,
        "time": 194.5,
        "duration": 1,
        "velocity": 0.75,
        "hand": "right"
      },
      {
        "midi": 56,
        "time": 195.5,
        "duration": 1,
        "velocity": 0.68,
        "hand": "left"
      },
      {
        "midi": 63,
        "time": 195.5,
        "duration": 1,
        "velocity": 0.68,
        "hand": "right"
      },
      {
        "midi": 68,
        "time": 195.5,
        "duration": 1,
        "velocity": 0.68,
        "hand": "right"
      },
      {
        "midi": 72,
        "time": 195.5,
        "duration": 1,
        "velocity": 0.75,
        "hand": "right"
      },
      {
        "midi": 75,
        "time": 195.5,
        "duration": 1,
        "velocity": 0.75,
        "hand": "right"
      },
      {
        "midi": 84,
        "time": 195.5,
        "duration": 1,
        "velocity": 0.75,
        "hand": "right"
      },
      {
        "midi": 55,
        "time": 196.5,
        "duration": 0.5,
        "velocity": 0.68,
        "hand": "left"
      },
      {
        "midi": 63,
        "time": 196.5,
        "duration": 0.5,
        "velocity": 0.68,
        "hand": "right"
      },
      {
        "midi": 67,
        "time": 196.5,
        "duration": 0.5,
        "velocity": 0.68,
        "hand": "right"
      },
      {
        "midi": 70,
        "time": 196.5,
        "duration": 0.5,
        "velocity": 0.75,
        "hand": "right"
      },
      {
        "midi": 75,
        "time": 196.5,
        "duration": 0.5,
        "velocity": 0.75,
        "hand": "right"
      },
      {
        "midi": 82,
        "time": 196.5,
        "duration": 0.5,
        "velocity": 0.75,
        "hand": "right"
      },
      {
        "midi": 50,
        "time": 197,
        "duration": 0.5,
        "velocity": 0.68,
        "hand": "left"
      },
      {
        "midi": 58,
        "time": 197,
        "duration": 0.5,
        "velocity": 0.68,
        "hand": "left"
      },
      {
        "midi": 62,
        "time": 197,
        "duration": 0.5,
        "velocity": 0.68,
        "hand": "right"
      },
      {
        "midi": 65,
        "time": 197,
        "duration": 0.5,
        "velocity": 0.75,
        "hand": "right"
      },
      {
        "midi": 70,
        "time": 197,
        "duration": 0.5,
        "velocity": 0.75,
        "hand": "right"
      },
      {
        "midi": 77,
        "time": 197,
        "duration": 0.5,
        "velocity": 0.75,
        "hand": "right"
      },
      {
        "midi": 69,
        "time": 197.5,
        "duration": 0.25,
        "velocity": 0.75,
        "hand": "right"
      },
      {
        "midi": 70,
        "time": 197.75,
        "duration": 0.25,
        "velocity": 0.75,
        "hand": "right"
      },
      {
        "midi": 74,
        "time": 197.75,
        "duration": 0.25,
        "velocity": 0.75,
        "hand": "right"
      },
      {
        "midi": 39,
        "time": 198,
        "duration": 0.5,
        "velocity": 0.71,
        "hand": "left"
      },
      {
        "midi": 46,
        "time": 198,
        "duration": 0.5,
        "velocity": 0.71,
        "hand": "left"
      },
      {
        "midi": 63,
        "time": 198,
        "duration": 0.5,
        "velocity": 0.71,
        "hand": "right"
      },
      {
        "midi": 67,
        "time": 198,
        "duration": 0.5,
        "velocity": 0.71,
        "hand": "right"
      },
      {
        "midi": 70,
        "time": 198,
        "duration": 0.5,
        "velocity": 0.71,
        "hand": "right"
      },
      {
        "midi": 75,
        "time": 198,
        "duration": 0.5,
        "velocity": 0.71,
        "hand": "right"
      },
      {
        "midi": 77,
        "time": 198,
        "duration": 0.25,
        "velocity": 0.75,
        "hand": "right"
      },
      {
        "midi": 79,
        "time": 198,
        "duration": 1.5,
        "velocity": 0.75,
        "hand": "right"
      },
      {
        "midi": 45,
        "time": 198.25,
        "duration": 0.25,
        "velocity": 0.61,
        "hand": "left"
      },
      {
        "midi": 46,
        "time": 198.5,
        "duration": 0.25,
        "velocity": 0.61,
        "hand": "left"
      },
      {
        "midi": 51,
        "time": 198.75,
        "duration": 0.25,
        "velocity": 0.61,
        "hand": "left"
      },
      {
        "midi": 55,
        "time": 199,
        "duration": 0.25,
        "velocity": 0.75,
        "hand": "left"
      },
      {
        "midi": 58,
        "time": 199.25,
        "duration": 0.25,
        "velocity": 0.75,
        "hand": "left"
      },
      {
        "midi": 63,
        "time": 199.5,
        "duration": 0.25,
        "velocity": 0.75,
        "hand": "right"
      },
      {
        "midi": 77,
        "time": 199.5,
        "duration": 0.125,
        "velocity": 0.52,
        "hand": "right"
      },
      {
        "midi": 77,
        "time": 199.5,
        "duration": 0.25,
        "velocity": 0.61,
        "hand": "right"
      },
      {
        "midi": 79,
        "time": 199.5,
        "duration": 0.125,
        "velocity": 0.52,
        "hand": "right"
      },
      {
        "midi": 67,
        "time": 199.75,
        "duration": 0.25,
        "velocity": 0.75,
        "hand": "right"
      },
      {
        "midi": 75,
        "time": 199.75,
        "duration": 0.25,
        "velocity": 0.61,
        "hand": "right"
      },
      {
        "midi": 70,
        "time": 200,
        "duration": 0.5,
        "velocity": 0.75,
        "hand": "right"
      },
      {
        "midi": 74,
        "time": 200,
        "duration": 0.25,
        "velocity": 0.61,
        "hand": "right"
      },
      {
        "midi": 75,
        "time": 200.25,
        "duration": 0.25,
        "velocity": 0.61,
        "hand": "right"
      },
      {
        "midi": 63,
        "time": 200.5,
        "duration": 0.5,
        "velocity": 0.75,
        "hand": "right"
      },
      {
        "midi": 66,
        "time": 200.5,
        "duration": 0.5,
        "velocity": 0.71,
        "hand": "right"
      },
      {
        "midi": 69,
        "time": 200.5,
        "duration": 0.5,
        "velocity": 0.71,
        "hand": "right"
      },
      {
        "midi": 72,
        "time": 200.5,
        "duration": 0.25,
        "velocity": 0.61,
        "hand": "right"
      },
      {
        "midi": 74,
        "time": 200.75,
        "duration": 0.25,
        "velocity": 0.61,
        "hand": "right"
      },
      {
        "midi": 67,
        "time": 201,
        "duration": 0.5,
        "velocity": 0.71,
        "hand": "right"
      },
      {
        "midi": 70,
        "time": 201,
        "duration": 0.5,
        "velocity": 0.61,
        "hand": "right"
      },
      {
        "midi": 44,
        "time": 201.5,
        "duration": 0.5,
        "velocity": 0.75,
        "hand": "left"
      },
      {
        "midi": 51,
        "time": 201.5,
        "duration": 0.5,
        "velocity": 0.75,
        "hand": "left"
      },
      {
        "midi": 56,
        "time": 201.5,
        "duration": 0.5,
        "velocity": 0.75,
        "hand": "left"
      },
      {
        "midi": 60,
        "time": 201.5,
        "duration": 0.5,
        "velocity": 0.75,
        "hand": "right"
      },
      {
        "midi": 65,
        "time": 201.5,
        "duration": 0.5,
        "velocity": 0.75,
        "hand": "right"
      },
      {
        "midi": 72,
        "time": 201.5,
        "duration": 0.5,
        "velocity": 0.61,
        "hand": "right"
      },
      {
        "midi": 39,
        "time": 202,
        "duration": 0.5,
        "velocity": 0.71,
        "hand": "left"
      },
      {
        "midi": 46,
        "time": 202,
        "duration": 0.5,
        "velocity": 0.71,
        "hand": "left"
      },
      {
        "midi": 63,
        "time": 202,
        "duration": 0.5,
        "velocity": 0.71,
        "hand": "right"
      },
      {
        "midi": 67,
        "time": 202,
        "duration": 0.5,
        "velocity": 0.75,
        "hand": "right"
      },
      {
        "midi": 70,
        "time": 202,
        "duration": 0.5,
        "velocity": 0.75,
        "hand": "right"
      },
      {
        "midi": 75,
        "time": 202,
        "duration": 0.5,
        "velocity": 0.75,
        "hand": "right"
      },
      {
        "midi": 79,
        "time": 202,
        "duration": 1.5,
        "velocity": 0.75,
        "hand": "right"
      },
      {
        "midi": 45,
        "time": 202.25,
        "duration": 0.25,
        "velocity": 0.61,
        "hand": "left"
      },
      {
        "midi": 46,
        "time": 202.5,
        "duration": 0.25,
        "velocity": 0.61,
        "hand": "left"
      },
      {
        "midi": 51,
        "time": 202.75,
        "duration": 0.25,
        "velocity": 0.61,
        "hand": "left"
      },
      {
        "midi": 55,
        "time": 203,
        "duration": 0.25,
        "velocity": 0.75,
        "hand": "left"
      },
      {
        "midi": 58,
        "time": 203.25,
        "duration": 0.25,
        "velocity": 0.75,
        "hand": "left"
      },
      {
        "midi": 63,
        "time": 203.5,
        "duration": 0.25,
        "velocity": 0.75,
        "hand": "right"
      },
      {
        "midi": 77,
        "time": 203.5,
        "duration": 0.125,
        "velocity": 0.38,
        "hand": "right"
      },
      {
        "midi": 77,
        "time": 203.5,
        "duration": 0.25,
        "velocity": 0.61,
        "hand": "right"
      },
      {
        "midi": 79,
        "time": 203.5,
        "duration": 0.125,
        "velocity": 0.38,
        "hand": "right"
      },
      {
        "midi": 67,
        "time": 203.75,
        "duration": 0.25,
        "velocity": 0.75,
        "hand": "right"
      },
      {
        "midi": 75,
        "time": 203.75,
        "duration": 0.25,
        "velocity": 0.61,
        "hand": "right"
      },
      {
        "midi": 70,
        "time": 204,
        "duration": 0.5,
        "velocity": 0.75,
        "hand": "right"
      },
      {
        "midi": 74,
        "time": 204,
        "duration": 0.25,
        "velocity": 0.61,
        "hand": "right"
      },
      {
        "midi": 75,
        "time": 204.25,
        "duration": 0.25,
        "velocity": 0.61,
        "hand": "right"
      },
      {
        "midi": 63,
        "time": 204.5,
        "duration": 0.5,
        "velocity": 0.75,
        "hand": "right"
      },
      {
        "midi": 66,
        "time": 204.5,
        "duration": 0.5,
        "velocity": 0.75,
        "hand": "right"
      },
      {
        "midi": 69,
        "time": 204.5,
        "duration": 0.5,
        "velocity": 0.75,
        "hand": "right"
      },
      {
        "midi": 72,
        "time": 204.5,
        "duration": 0.25,
        "velocity": 0.61,
        "hand": "right"
      },
      {
        "midi": 74,
        "time": 204.75,
        "duration": 0.25,
        "velocity": 0.61,
        "hand": "right"
      },
      {
        "midi": 67,
        "time": 205,
        "duration": 0.5,
        "velocity": 0.75,
        "hand": "right"
      },
      {
        "midi": 70,
        "time": 205,
        "duration": 0.5,
        "velocity": 0.61,
        "hand": "right"
      },
      {
        "midi": 44,
        "time": 205.5,
        "duration": 0.5,
        "velocity": 0.75,
        "hand": "left"
      },
      {
        "midi": 51,
        "time": 205.5,
        "duration": 0.5,
        "velocity": 0.75,
        "hand": "left"
      },
      {
        "midi": 56,
        "time": 205.5,
        "duration": 0.5,
        "velocity": 0.75,
        "hand": "left"
      },
      {
        "midi": 60,
        "time": 205.5,
        "duration": 0.5,
        "velocity": 0.75,
        "hand": "right"
      },
      {
        "midi": 65,
        "time": 205.5,
        "duration": 0.5,
        "velocity": 0.75,
        "hand": "right"
      },
      {
        "midi": 72,
        "time": 205.5,
        "duration": 0.5,
        "velocity": 0.61,
        "hand": "right"
      },
      {
        "midi": 39,
        "time": 206,
        "duration": 0.5,
        "velocity": 0.75,
        "hand": "left"
      },
      {
        "midi": 46,
        "time": 206,
        "duration": 0.5,
        "velocity": 0.75,
        "hand": "left"
      },
      {
        "midi": 51,
        "time": 206,
        "duration": 0.5,
        "velocity": 0.75,
        "hand": "left"
      },
      {
        "midi": 67,
        "time": 206,
        "duration": 0.5,
        "velocity": 0.61,
        "hand": "right"
      },
      {
        "midi": 70,
        "time": 206,
        "duration": 0.5,
        "velocity": 0.61,
        "hand": "right"
      },
      {
        "midi": 75,
        "time": 206,
        "duration": 0.5,
        "velocity": 0.61,
        "hand": "right"
      },
      {
        "midi": 79,
        "time": 206,
        "duration": 0.5,
        "velocity": 0.61,
        "hand": "right"
      },
      {
        "midi": 51,
        "time": 206.5,
        "duration": 0.5,
        "velocity": 0.75,
        "hand": "left"
      },
      {
        "midi": 58,
        "time": 206.5,
        "duration": 0.5,
        "velocity": 0.75,
        "hand": "left"
      },
      {
        "midi": 63,
        "time": 206.5,
        "duration": 0.5,
        "velocity": 0.75,
        "hand": "right"
      },
      {
        "midi": 67,
        "time": 206.5,
        "duration": 0.5,
        "velocity": 0.61,
        "hand": "right"
      },
      {
        "midi": 70,
        "time": 206.5,
        "duration": 0.5,
        "velocity": 0.61,
        "hand": "right"
      },
      {
        "midi": 79,
        "time": 206.5,
        "duration": 0.5,
        "velocity": 0.61,
        "hand": "right"
      },
      {
        "midi": 53,
        "time": 207,
        "duration": 0.5,
        "velocity": 0.75,
        "hand": "left"
      },
      {
        "midi": 58,
        "time": 207,
        "duration": 0.5,
        "velocity": 0.75,
        "hand": "left"
      },
      {
        "midi": 65,
        "time": 207,
        "duration": 0.5,
        "velocity": 0.75,
        "hand": "right"
      },
      {
        "midi": 68,
        "time": 207,
        "duration": 0.5,
        "velocity": 0.61,
        "hand": "right"
      },
      {
        "midi": 70,
        "time": 207,
        "duration": 0.5,
        "velocity": 0.61,
        "hand": "right"
      },
      {
        "midi": 80,
        "time": 207,
        "duration": 0.5,
        "velocity": 0.61,
        "hand": "right"
      },
      {
        "midi": 51,
        "time": 207.5,
        "duration": 0.5,
        "velocity": 0.75,
        "hand": "left"
      },
      {
        "midi": 58,
        "time": 207.5,
        "duration": 0.5,
        "velocity": 0.75,
        "hand": "left"
      },
      {
        "midi": 63,
        "time": 207.5,
        "duration": 0.5,
        "velocity": 0.75,
        "hand": "right"
      },
      {
        "midi": 67,
        "time": 207.5,
        "duration": 0.5,
        "velocity": 0.61,
        "hand": "right"
      },
      {
        "midi": 70,
        "time": 207.5,
        "duration": 0.5,
        "velocity": 0.61,
        "hand": "right"
      },
      {
        "midi": 79,
        "time": 207.5,
        "duration": 0.5,
        "velocity": 0.61,
        "hand": "right"
      },
      {
        "midi": 50,
        "time": 208,
        "duration": 0.5,
        "velocity": 0.75,
        "hand": "left"
      },
      {
        "midi": 58,
        "time": 208,
        "duration": 0.5,
        "velocity": 0.75,
        "hand": "left"
      },
      {
        "midi": 62,
        "time": 208,
        "duration": 0.5,
        "velocity": 0.75,
        "hand": "right"
      },
      {
        "midi": 65,
        "time": 208,
        "duration": 0.5,
        "velocity": 0.61,
        "hand": "right"
      },
      {
        "midi": 70,
        "time": 208,
        "duration": 0.5,
        "velocity": 0.61,
        "hand": "right"
      },
      {
        "midi": 77,
        "time": 208,
        "duration": 0.5,
        "velocity": 0.61,
        "hand": "right"
      },
      {
        "midi": 51,
        "time": 208.5,
        "duration": 0.5,
        "velocity": 0.75,
        "hand": "left"
      },
      {
        "midi": 58,
        "time": 208.5,
        "duration": 0.5,
        "velocity": 0.75,
        "hand": "left"
      },
      {
        "midi": 63,
        "time": 208.5,
        "duration": 0.5,
        "velocity": 0.75,
        "hand": "right"
      },
      {
        "midi": 67,
        "time": 208.5,
        "duration": 0.5,
        "velocity": 0.61,
        "hand": "right"
      },
      {
        "midi": 70,
        "time": 208.5,
        "duration": 0.5,
        "velocity": 0.61,
        "hand": "right"
      },
      {
        "midi": 79,
        "time": 208.5,
        "duration": 0.5,
        "velocity": 0.61,
        "hand": "right"
      },
      {
        "midi": 48,
        "time": 209,
        "duration": 0.5,
        "velocity": 0.75,
        "hand": "left"
      },
      {
        "midi": 55,
        "time": 209,
        "duration": 0.5,
        "velocity": 0.75,
        "hand": "left"
      },
      {
        "midi": 60,
        "time": 209,
        "duration": 0.5,
        "velocity": 0.75,
        "hand": "right"
      },
      {
        "midi": 63,
        "time": 209,
        "duration": 0.5,
        "velocity": 0.61,
        "hand": "right"
      },
      {
        "midi": 67,
        "time": 209,
        "duration": 0.5,
        "velocity": 0.61,
        "hand": "right"
      },
      {
        "midi": 75,
        "time": 209,
        "duration": 0.5,
        "velocity": 0.61,
        "hand": "right"
      },
      {
        "midi": 50,
        "time": 209.5,
        "duration": 0.5,
        "velocity": 0.75,
        "hand": "left"
      },
      {
        "midi": 55,
        "time": 209.5,
        "duration": 0.5,
        "velocity": 0.75,
        "hand": "left"
      },
      {
        "midi": 62,
        "time": 209.5,
        "duration": 0.5,
        "velocity": 0.75,
        "hand": "right"
      },
      {
        "midi": 65,
        "time": 209.5,
        "duration": 0.5,
        "velocity": 0.61,
        "hand": "right"
      },
      {
        "midi": 67,
        "time": 209.5,
        "duration": 0.5,
        "velocity": 0.61,
        "hand": "right"
      },
      {
        "midi": 77,
        "time": 209.5,
        "duration": 0.5,
        "velocity": 0.61,
        "hand": "right"
      },
      {
        "midi": 46,
        "time": 210,
        "duration": 0.5,
        "velocity": 0.75,
        "hand": "left"
      },
      {
        "midi": 55,
        "time": 210,
        "duration": 0.5,
        "velocity": 0.75,
        "hand": "left"
      },
      {
        "midi": 58,
        "time": 210,
        "duration": 0.5,
        "velocity": 0.75,
        "hand": "left"
      },
      {
        "midi": 62,
        "time": 210,
        "duration": 0.5,
        "velocity": 0.61,
        "hand": "right"
      },
      {
        "midi": 67,
        "time": 210,
        "duration": 0.5,
        "velocity": 0.61,
        "hand": "right"
      },
      {
        "midi": 74,
        "time": 210,
        "duration": 0.5,
        "velocity": 0.61,
        "hand": "right"
      },
      {
        "midi": 46,
        "time": 210.5,
        "duration": 0.5,
        "velocity": 0.76,
        "hand": "left"
      },
      {
        "midi": 55,
        "time": 210.5,
        "duration": 0.5,
        "velocity": 0.76,
        "hand": "left"
      },
      {
        "midi": 58,
        "time": 210.5,
        "duration": 0.5,
        "velocity": 0.76,
        "hand": "left"
      },
      {
        "midi": 62,
        "time": 210.5,
        "duration": 0.5,
        "velocity": 0.61,
        "hand": "right"
      },
      {
        "midi": 67,
        "time": 210.5,
        "duration": 0.5,
        "velocity": 0.61,
        "hand": "right"
      },
      {
        "midi": 74,
        "time": 210.5,
        "duration": 0.5,
        "velocity": 0.61,
        "hand": "right"
      },
      {
        "midi": 48,
        "time": 211,
        "duration": 0.5,
        "velocity": 0.77,
        "hand": "left"
      },
      {
        "midi": 55,
        "time": 211,
        "duration": 0.5,
        "velocity": 0.77,
        "hand": "left"
      },
      {
        "midi": 60,
        "time": 211,
        "duration": 0.5,
        "velocity": 0.77,
        "hand": "right"
      },
      {
        "midi": 63,
        "time": 211,
        "duration": 0.5,
        "velocity": 0.61,
        "hand": "right"
      },
      {
        "midi": 67,
        "time": 211,
        "duration": 0.5,
        "velocity": 0.61,
        "hand": "right"
      },
      {
        "midi": 75,
        "time": 211,
        "duration": 0.5,
        "velocity": 0.61,
        "hand": "right"
      },
      {
        "midi": 46,
        "time": 211.5,
        "duration": 0.5,
        "velocity": 0.79,
        "hand": "left"
      },
      {
        "midi": 55,
        "time": 211.5,
        "duration": 0.5,
        "velocity": 0.79,
        "hand": "left"
      },
      {
        "midi": 58,
        "time": 211.5,
        "duration": 0.5,
        "velocity": 0.79,
        "hand": "left"
      },
      {
        "midi": 62,
        "time": 211.5,
        "duration": 0.5,
        "velocity": 0.61,
        "hand": "right"
      },
      {
        "midi": 67,
        "time": 211.5,
        "duration": 0.5,
        "velocity": 0.61,
        "hand": "right"
      },
      {
        "midi": 74,
        "time": 211.5,
        "duration": 0.5,
        "velocity": 0.61,
        "hand": "right"
      },
      {
        "midi": 45,
        "time": 212,
        "duration": 0.5,
        "velocity": 0.8,
        "hand": "left"
      },
      {
        "midi": 55,
        "time": 212,
        "duration": 0.5,
        "velocity": 0.8,
        "hand": "left"
      },
      {
        "midi": 57,
        "time": 212,
        "duration": 0.5,
        "velocity": 0.8,
        "hand": "left"
      },
      {
        "midi": 60,
        "time": 212,
        "duration": 0.5,
        "velocity": 0.61,
        "hand": "right"
      },
      {
        "midi": 67,
        "time": 212,
        "duration": 0.5,
        "velocity": 0.61,
        "hand": "right"
      },
      {
        "midi": 72,
        "time": 212,
        "duration": 0.5,
        "velocity": 0.61,
        "hand": "right"
      },
      {
        "midi": 46,
        "time": 212.5,
        "duration": 0.5,
        "velocity": 0.82,
        "hand": "left"
      },
      {
        "midi": 55,
        "time": 212.5,
        "duration": 0.5,
        "velocity": 0.82,
        "hand": "left"
      },
      {
        "midi": 58,
        "time": 212.5,
        "duration": 0.5,
        "velocity": 0.82,
        "hand": "left"
      },
      {
        "midi": 62,
        "time": 212.5,
        "duration": 0.5,
        "velocity": 0.61,
        "hand": "right"
      },
      {
        "midi": 67,
        "time": 212.5,
        "duration": 0.5,
        "velocity": 0.61,
        "hand": "right"
      },
      {
        "midi": 74,
        "time": 212.5,
        "duration": 0.5,
        "velocity": 0.61,
        "hand": "right"
      },
      {
        "midi": 43,
        "time": 213,
        "duration": 0.5,
        "velocity": 0.83,
        "hand": "left"
      },
      {
        "midi": 50,
        "time": 213,
        "duration": 0.5,
        "velocity": 0.83,
        "hand": "left"
      },
      {
        "midi": 55,
        "time": 213,
        "duration": 0.5,
        "velocity": 0.83,
        "hand": "left"
      },
      {
        "midi": 58,
        "time": 213,
        "duration": 0.5,
        "velocity": 0.61,
        "hand": "left"
      },
      {
        "midi": 67,
        "time": 213,
        "duration": 0.5,
        "velocity": 0.61,
        "hand": "right"
      },
      {
        "midi": 70,
        "time": 213,
        "duration": 0.5,
        "velocity": 0.61,
        "hand": "right"
      },
      {
        "midi": 45,
        "time": 213.5,
        "duration": 0.5,
        "velocity": 0.84,
        "hand": "left"
      },
      {
        "midi": 50,
        "time": 213.5,
        "duration": 0.5,
        "velocity": 0.84,
        "hand": "left"
      },
      {
        "midi": 57,
        "time": 213.5,
        "duration": 0.5,
        "velocity": 0.84,
        "hand": "left"
      },
      {
        "midi": 60,
        "time": 213.5,
        "duration": 0.5,
        "velocity": 0.61,
        "hand": "right"
      },
      {
        "midi": 67,
        "time": 213.5,
        "duration": 0.5,
        "velocity": 0.61,
        "hand": "right"
      },
      {
        "midi": 72,
        "time": 213.5,
        "duration": 0.5,
        "velocity": 0.61,
        "hand": "right"
      },
      {
        "midi": 46,
        "time": 214,
        "duration": 0.5,
        "velocity": 0.86,
        "hand": "left"
      },
      {
        "midi": 50,
        "time": 214,
        "duration": 0.5,
        "velocity": 0.86,
        "hand": "left"
      },
      {
        "midi": 58,
        "time": 214,
        "duration": 0.5,
        "velocity": 0.86,
        "hand": "left"
      },
      {
        "midi": 62,
        "time": 214,
        "duration": 0.5,
        "velocity": 0.61,
        "hand": "right"
      },
      {
        "midi": 67,
        "time": 214,
        "duration": 0.5,
        "velocity": 0.61,
        "hand": "right"
      },
      {
        "midi": 74,
        "time": 214,
        "duration": 0.5,
        "velocity": 0.61,
        "hand": "right"
      },
      {
        "midi": 43,
        "time": 214.5,
        "duration": 1,
        "velocity": 0.87,
        "hand": "left"
      },
      {
        "midi": 50,
        "time": 214.5,
        "duration": 1,
        "velocity": 0.87,
        "hand": "left"
      },
      {
        "midi": 55,
        "time": 214.5,
        "duration": 1,
        "velocity": 0.87,
        "hand": "left"
      },
      {
        "midi": 58,
        "time": 214.5,
        "duration": 1,
        "velocity": 0.61,
        "hand": "left"
      },
      {
        "midi": 67,
        "time": 214.5,
        "duration": 1,
        "velocity": 0.61,
        "hand": "right"
      },
      {
        "midi": 70,
        "time": 214.5,
        "duration": 1,
        "velocity": 0.61,
        "hand": "right"
      },
      {
        "midi": 45,
        "time": 215.5,
        "duration": 0.5,
        "velocity": 0.9,
        "hand": "left"
      },
      {
        "midi": 50,
        "time": 215.5,
        "duration": 0.5,
        "velocity": 0.9,
        "hand": "left"
      },
      {
        "midi": 57,
        "time": 215.5,
        "duration": 0.5,
        "velocity": 0.9,
        "hand": "left"
      },
      {
        "midi": 60,
        "time": 215.5,
        "duration": 0.5,
        "velocity": 0.61,
        "hand": "right"
      },
      {
        "midi": 67,
        "time": 215.5,
        "duration": 0.5,
        "velocity": 0.61,
        "hand": "right"
      },
      {
        "midi": 72,
        "time": 215.5,
        "duration": 0.5,
        "velocity": 0.61,
        "hand": "right"
      },
      {
        "midi": 46,
        "time": 216,
        "duration": 0.5,
        "velocity": 0.91,
        "hand": "left"
      },
      {
        "midi": 50,
        "time": 216,
        "duration": 0.5,
        "velocity": 0.91,
        "hand": "left"
      },
      {
        "midi": 58,
        "time": 216,
        "duration": 0.5,
        "velocity": 0.91,
        "hand": "left"
      },
      {
        "midi": 62,
        "time": 216,
        "duration": 0.5,
        "velocity": 0.61,
        "hand": "right"
      },
      {
        "midi": 67,
        "time": 216,
        "duration": 0.5,
        "velocity": 0.61,
        "hand": "right"
      },
      {
        "midi": 74,
        "time": 216,
        "duration": 0.5,
        "velocity": 0.61,
        "hand": "right"
      },
      {
        "midi": 43,
        "time": 216.5,
        "duration": 1,
        "velocity": 0.93,
        "hand": "left"
      },
      {
        "midi": 50,
        "time": 216.5,
        "duration": 1,
        "velocity": 0.93,
        "hand": "left"
      },
      {
        "midi": 55,
        "time": 216.5,
        "duration": 1,
        "velocity": 0.93,
        "hand": "left"
      },
      {
        "midi": 58,
        "time": 216.5,
        "duration": 1,
        "velocity": 0.61,
        "hand": "left"
      },
      {
        "midi": 67,
        "time": 216.5,
        "duration": 1,
        "velocity": 0.61,
        "hand": "right"
      },
      {
        "midi": 70,
        "time": 216.5,
        "duration": 1,
        "velocity": 0.61,
        "hand": "right"
      },
      {
        "midi": 45,
        "time": 217.5,
        "duration": 0.5,
        "velocity": 0.96,
        "hand": "left"
      },
      {
        "midi": 50,
        "time": 217.5,
        "duration": 0.5,
        "velocity": 0.96,
        "hand": "left"
      },
      {
        "midi": 57,
        "time": 217.5,
        "duration": 0.5,
        "velocity": 0.96,
        "hand": "left"
      },
      {
        "midi": 60,
        "time": 217.5,
        "duration": 0.5,
        "velocity": 0.61,
        "hand": "right"
      },
      {
        "midi": 67,
        "time": 217.5,
        "duration": 0.5,
        "velocity": 0.61,
        "hand": "right"
      },
      {
        "midi": 72,
        "time": 217.5,
        "duration": 0.5,
        "velocity": 0.61,
        "hand": "right"
      },
      {
        "midi": 46,
        "time": 218,
        "duration": 0.5,
        "velocity": 0.97,
        "hand": "left"
      },
      {
        "midi": 50,
        "time": 218,
        "duration": 0.5,
        "velocity": 0.97,
        "hand": "left"
      },
      {
        "midi": 58,
        "time": 218,
        "duration": 0.5,
        "velocity": 0.97,
        "hand": "left"
      },
      {
        "midi": 62,
        "time": 218,
        "duration": 0.5,
        "velocity": 0.61,
        "hand": "right"
      },
      {
        "midi": 67,
        "time": 218,
        "duration": 0.5,
        "velocity": 0.61,
        "hand": "right"
      },
      {
        "midi": 74,
        "time": 218,
        "duration": 0.5,
        "velocity": 0.61,
        "hand": "right"
      },
      {
        "midi": 43,
        "time": 218.5,
        "duration": 0.5,
        "velocity": 0.97,
        "hand": "left"
      },
      {
        "midi": 50,
        "time": 218.5,
        "duration": 0.5,
        "velocity": 0.97,
        "hand": "left"
      },
      {
        "midi": 55,
        "time": 218.5,
        "duration": 0.5,
        "velocity": 0.97,
        "hand": "left"
      },
      {
        "midi": 58,
        "time": 218.5,
        "duration": 0.5,
        "velocity": 0.61,
        "hand": "left"
      },
      {
        "midi": 67,
        "time": 218.5,
        "duration": 0.5,
        "velocity": 0.61,
        "hand": "right"
      },
      {
        "midi": 70,
        "time": 218.5,
        "duration": 0.5,
        "velocity": 0.61,
        "hand": "right"
      },
      {
        "midi": 46,
        "time": 219,
        "duration": 0.5,
        "velocity": 0.97,
        "hand": "left"
      },
      {
        "midi": 55,
        "time": 219,
        "duration": 0.5,
        "velocity": 0.97,
        "hand": "left"
      },
      {
        "midi": 58,
        "time": 219,
        "duration": 0.5,
        "velocity": 0.97,
        "hand": "left"
      },
      {
        "midi": 62,
        "time": 219,
        "duration": 0.5,
        "velocity": 0.61,
        "hand": "right"
      },
      {
        "midi": 67,
        "time": 219,
        "duration": 0.5,
        "velocity": 0.61,
        "hand": "right"
      },
      {
        "midi": 74,
        "time": 219,
        "duration": 0.5,
        "velocity": 0.61,
        "hand": "right"
      },
      {
        "midi": 48,
        "time": 219.5,
        "duration": 0.5,
        "velocity": 0.97,
        "hand": "left"
      },
      {
        "midi": 55,
        "time": 219.5,
        "duration": 0.5,
        "velocity": 0.97,
        "hand": "left"
      },
      {
        "midi": 60,
        "time": 219.5,
        "duration": 0.5,
        "velocity": 0.97,
        "hand": "right"
      },
      {
        "midi": 63,
        "time": 219.5,
        "duration": 0.5,
        "velocity": 0.61,
        "hand": "right"
      },
      {
        "midi": 75,
        "time": 219.5,
        "duration": 0.5,
        "velocity": 0.61,
        "hand": "right"
      },
      {
        "midi": 43,
        "time": 220,
        "duration": 0.5,
        "velocity": 0.8,
        "hand": "left"
      },
      {
        "midi": 46,
        "time": 220,
        "duration": 0.5,
        "velocity": 0.8,
        "hand": "left"
      },
      {
        "midi": 55,
        "time": 220,
        "duration": 0.5,
        "velocity": 0.61,
        "hand": "left"
      },
      {
        "midi": 50,
        "time": 220.5,
        "duration": 0.125,
        "velocity": 0.8,
        "hand": "left"
      },
      {
        "midi": 55,
        "time": 220.5,
        "duration": 0.125,
        "velocity": 0.8,
        "hand": "left"
      },
      {
        "midi": 58,
        "time": 220.5,
        "duration": 0.125,
        "velocity": 0.61,
        "hand": "left"
      },
      {
        "midi": 62,
        "time": 220.5,
        "duration": 0.125,
        "velocity": 0.61,
        "hand": "right"
      },
      {
        "midi": 58,
        "time": 220.75,
        "duration": 0.125,
        "velocity": 0.8,
        "hand": "left"
      },
      {
        "midi": 62,
        "time": 220.75,
        "duration": 0.125,
        "velocity": 0.8,
        "hand": "right"
      },
      {
        "midi": 67,
        "time": 220.75,
        "duration": 0.125,
        "velocity": 0.61,
        "hand": "right"
      },
      {
        "midi": 70,
        "time": 220.75,
        "duration": 0.125,
        "velocity": 0.61,
        "hand": "right"
      },
      {
        "midi": 67,
        "time": 221,
        "duration": 0.125,
        "velocity": 0.8,
        "hand": "right"
      },
      {
        "midi": 70,
        "time": 221,
        "duration": 0.5,
        "velocity": 0.8,
        "hand": "right"
      },
      {
        "midi": 74,
        "time": 221,
        "duration": 0.125,
        "velocity": 0.61,
        "hand": "right"
      },
      {
        "midi": 79,
        "time": 221,
        "duration": 0.5,
        "velocity": 0.61,
        "hand": "right"
      },
      {
        "midi": 39,
        "time": 222,
        "duration": 1.5,
        "velocity": 0.68,
        "hand": "left"
      },
      {
        "midi": 46,
        "time": 222,
        "duration": 1.5,
        "velocity": 0.68,
        "hand": "left"
      },
      {
        "midi": 51,
        "time": 222,
        "duration": 1.5,
        "velocity": 0.68,
        "hand": "left"
      },
      {
        "midi": 55,
        "time": 222,
        "duration": 1.5,
        "velocity": 0.75,
        "hand": "left"
      },
      {
        "midi": 58,
        "time": 222,
        "duration": 1.5,
        "velocity": 0.75,
        "hand": "left"
      },
      {
        "midi": 63,
        "time": 222,
        "duration": 1.5,
        "velocity": 0.75,
        "hand": "right"
      },
      {
        "midi": 67,
        "time": 222,
        "duration": 1.5,
        "velocity": 0.61,
        "hand": "right"
      },
      {
        "midi": 65,
        "time": 223.5,
        "duration": 0.125,
        "velocity": 0.61,
        "hand": "right"
      },
      {
        "midi": 65,
        "time": 223.5,
        "duration": 0.25,
        "velocity": 0.61,
        "hand": "right"
      },
      {
        "midi": 67,
        "time": 223.5,
        "duration": 0.125,
        "velocity": 0.61,
        "hand": "right"
      },
      {
        "midi": 63,
        "time": 223.75,
        "duration": 0.25,
        "velocity": 0.61,
        "hand": "right"
      },
      {
        "midi": 62,
        "time": 224,
        "duration": 0.25,
        "velocity": 0.61,
        "hand": "right"
      },
      {
        "midi": 63,
        "time": 224.25,
        "duration": 0.25,
        "velocity": 0.61,
        "hand": "right"
      },
      {
        "midi": 60,
        "time": 224.5,
        "duration": 0.25,
        "velocity": 0.61,
        "hand": "right"
      },
      {
        "midi": 62,
        "time": 224.75,
        "duration": 0.25,
        "velocity": 0.61,
        "hand": "right"
      },
      {
        "midi": 58,
        "time": 225,
        "duration": 0.5,
        "velocity": 0.61,
        "hand": "left"
      },
      {
        "midi": 44,
        "time": 225.5,
        "duration": 0.5,
        "velocity": 0.68,
        "hand": "left"
      },
      {
        "midi": 51,
        "time": 225.5,
        "duration": 0.5,
        "velocity": 0.68,
        "hand": "left"
      },
      {
        "midi": 53,
        "time": 225.5,
        "duration": 0.5,
        "velocity": 0.75,
        "hand": "left"
      },
      {
        "midi": 60,
        "time": 225.5,
        "duration": 0.5,
        "velocity": 0.61,
        "hand": "right"
      },
      {
        "midi": 39,
        "time": 226,
        "duration": 1.5,
        "velocity": 0.68,
        "hand": "left"
      },
      {
        "midi": 46,
        "time": 226,
        "duration": 1.5,
        "velocity": 0.68,
        "hand": "left"
      },
      {
        "midi": 51,
        "time": 226,
        "duration": 1.5,
        "velocity": 0.68,
        "hand": "left"
      },
      {
        "midi": 55,
        "time": 226,
        "duration": 1.5,
        "velocity": 0.75,
        "hand": "left"
      },
      {
        "midi": 58,
        "time": 226,
        "duration": 1.5,
        "velocity": 0.75,
        "hand": "left"
      },
      {
        "midi": 63,
        "time": 226,
        "duration": 1.5,
        "velocity": 0.75,
        "hand": "right"
      },
      {
        "midi": 67,
        "time": 226,
        "duration": 1.5,
        "velocity": 0.61,
        "hand": "right"
      },
      {
        "midi": 65,
        "time": 227.5,
        "duration": 0.125,
        "velocity": 0.61,
        "hand": "right"
      },
      {
        "midi": 65,
        "time": 227.5,
        "duration": 0.25,
        "velocity": 0.61,
        "hand": "right"
      },
      {
        "midi": 67,
        "time": 227.5,
        "duration": 0.125,
        "velocity": 0.61,
        "hand": "right"
      },
      {
        "midi": 63,
        "time": 227.75,
        "duration": 0.25,
        "velocity": 0.61,
        "hand": "right"
      },
      {
        "midi": 62,
        "time": 228,
        "duration": 0.25,
        "velocity": 0.61,
        "hand": "right"
      },
      {
        "midi": 63,
        "time": 228.25,
        "duration": 0.25,
        "velocity": 0.61,
        "hand": "right"
      },
      {
        "midi": 60,
        "time": 228.5,
        "duration": 0.25,
        "velocity": 0.61,
        "hand": "right"
      },
      {
        "midi": 62,
        "time": 228.75,
        "duration": 0.25,
        "velocity": 0.61,
        "hand": "right"
      },
      {
        "midi": 58,
        "time": 229,
        "duration": 0.5,
        "velocity": 0.61,
        "hand": "left"
      },
      {
        "midi": 44,
        "time": 229.5,
        "duration": 0.5,
        "velocity": 0.68,
        "hand": "left"
      },
      {
        "midi": 51,
        "time": 229.5,
        "duration": 0.5,
        "velocity": 0.68,
        "hand": "left"
      },
      {
        "midi": 53,
        "time": 229.5,
        "duration": 0.5,
        "velocity": 0.75,
        "hand": "left"
      },
      {
        "midi": 60,
        "time": 229.5,
        "duration": 0.5,
        "velocity": 0.61,
        "hand": "right"
      },
      {
        "midi": 39,
        "time": 230,
        "duration": 1.5,
        "velocity": 0.68,
        "hand": "left"
      },
      {
        "midi": 46,
        "time": 230,
        "duration": 1.5,
        "velocity": 0.68,
        "hand": "left"
      },
      {
        "midi": 51,
        "time": 230,
        "duration": 1.5,
        "velocity": 0.68,
        "hand": "left"
      },
      {
        "midi": 55,
        "time": 230,
        "duration": 1.5,
        "velocity": 0.61,
        "hand": "left"
      },
      {
        "midi": 58,
        "time": 230,
        "duration": 1.5,
        "velocity": 0.61,
        "hand": "left"
      },
      {
        "midi": 63,
        "time": 230,
        "duration": 1.5,
        "velocity": 0.61,
        "hand": "right"
      },
      {
        "midi": 67,
        "time": 230,
        "duration": 1.5,
        "velocity": 0.61,
        "hand": "right"
      },
      {
        "midi": 44,
        "time": 231.5,
        "duration": 0.5,
        "velocity": 0.68,
        "hand": "left"
      },
      {
        "midi": 51,
        "time": 231.5,
        "duration": 0.5,
        "velocity": 0.68,
        "hand": "left"
      },
      {
        "midi": 53,
        "time": 231.5,
        "duration": 0.5,
        "velocity": 0.61,
        "hand": "left"
      },
      {
        "midi": 60,
        "time": 231.5,
        "duration": 0.5,
        "velocity": 0.61,
        "hand": "right"
      },
      {
        "midi": 39,
        "time": 232,
        "duration": 1.5,
        "velocity": 0.68,
        "hand": "left"
      },
      {
        "midi": 46,
        "time": 232,
        "duration": 1.5,
        "velocity": 0.68,
        "hand": "left"
      },
      {
        "midi": 51,
        "time": 232,
        "duration": 1.5,
        "velocity": 0.68,
        "hand": "left"
      },
      {
        "midi": 55,
        "time": 232,
        "duration": 1.5,
        "velocity": 0.61,
        "hand": "left"
      },
      {
        "midi": 58,
        "time": 232,
        "duration": 1.5,
        "velocity": 0.61,
        "hand": "left"
      },
      {
        "midi": 63,
        "time": 232,
        "duration": 1.5,
        "velocity": 0.61,
        "hand": "right"
      },
      {
        "midi": 67,
        "time": 232,
        "duration": 1.5,
        "velocity": 0.61,
        "hand": "right"
      },
      {
        "midi": 44,
        "time": 233.5,
        "duration": 0.5,
        "velocity": 0.68,
        "hand": "left"
      },
      {
        "midi": 51,
        "time": 233.5,
        "duration": 0.5,
        "velocity": 0.68,
        "hand": "left"
      },
      {
        "midi": 53,
        "time": 233.5,
        "duration": 0.5,
        "velocity": 0.61,
        "hand": "left"
      },
      {
        "midi": 60,
        "time": 233.5,
        "duration": 0.5,
        "velocity": 0.61,
        "hand": "right"
      },
      {
        "midi": 39,
        "time": 234,
        "duration": 0.5,
        "velocity": 0.68,
        "hand": "left"
      },
      {
        "midi": 46,
        "time": 234,
        "duration": 0.5,
        "velocity": 0.68,
        "hand": "left"
      },
      {
        "midi": 51,
        "time": 234,
        "duration": 0.5,
        "velocity": 0.68,
        "hand": "left"
      },
      {
        "midi": 55,
        "time": 234,
        "duration": 0.5,
        "velocity": 0.54,
        "hand": "left"
      },
      {
        "midi": 58,
        "time": 234,
        "duration": 0.5,
        "velocity": 0.54,
        "hand": "left"
      },
      {
        "midi": 63,
        "time": 234,
        "duration": 0.5,
        "velocity": 0.54,
        "hand": "right"
      },
      {
        "midi": 67,
        "time": 234,
        "duration": 0.5,
        "velocity": 0.54,
        "hand": "right"
      },
      {
        "midi": 44,
        "time": 234.5,
        "duration": 0.5,
        "velocity": 0.68,
        "hand": "left"
      },
      {
        "midi": 51,
        "time": 234.5,
        "duration": 0.5,
        "velocity": 0.68,
        "hand": "left"
      },
      {
        "midi": 53,
        "time": 234.5,
        "duration": 0.5,
        "velocity": 0.54,
        "hand": "left"
      },
      {
        "midi": 60,
        "time": 234.5,
        "duration": 0.5,
        "velocity": 0.54,
        "hand": "right"
      },
      {
        "midi": 39,
        "time": 235,
        "duration": 0.5,
        "velocity": 0.68,
        "hand": "left"
      },
      {
        "midi": 46,
        "time": 235,
        "duration": 0.5,
        "velocity": 0.68,
        "hand": "left"
      },
      {
        "midi": 51,
        "time": 235,
        "duration": 0.5,
        "velocity": 0.68,
        "hand": "left"
      },
      {
        "midi": 55,
        "time": 235,
        "duration": 0.5,
        "velocity": 0.54,
        "hand": "left"
      },
      {
        "midi": 58,
        "time": 235,
        "duration": 0.5,
        "velocity": 0.54,
        "hand": "left"
      },
      {
        "midi": 63,
        "time": 235,
        "duration": 0.5,
        "velocity": 0.54,
        "hand": "right"
      },
      {
        "midi": 67,
        "time": 235,
        "duration": 0.5,
        "velocity": 0.54,
        "hand": "right"
      },
      {
        "midi": 44,
        "time": 235.5,
        "duration": 0.5,
        "velocity": 0.68,
        "hand": "left"
      },
      {
        "midi": 51,
        "time": 235.5,
        "duration": 0.5,
        "velocity": 0.68,
        "hand": "left"
      },
      {
        "midi": 53,
        "time": 235.5,
        "duration": 0.5,
        "velocity": 0.54,
        "hand": "left"
      },
      {
        "midi": 60,
        "time": 235.5,
        "duration": 0.5,
        "velocity": 0.54,
        "hand": "right"
      },
      {
        "midi": 39,
        "time": 236,
        "duration": 0.5,
        "velocity": 0.68,
        "hand": "left"
      },
      {
        "midi": 46,
        "time": 236,
        "duration": 0.5,
        "velocity": 0.68,
        "hand": "left"
      },
      {
        "midi": 51,
        "time": 236,
        "duration": 0.5,
        "velocity": 0.68,
        "hand": "left"
      },
      {
        "midi": 55,
        "time": 236,
        "duration": 0.5,
        "velocity": 0.54,
        "hand": "left"
      },
      {
        "midi": 58,
        "time": 236,
        "duration": 0.5,
        "velocity": 0.54,
        "hand": "left"
      },
      {
        "midi": 63,
        "time": 236,
        "duration": 0.5,
        "velocity": 0.54,
        "hand": "right"
      },
      {
        "midi": 67,
        "time": 236,
        "duration": 0.5,
        "velocity": 0.54,
        "hand": "right"
      },
      {
        "midi": 44,
        "time": 236.5,
        "duration": 0.5,
        "velocity": 0.68,
        "hand": "left"
      },
      {
        "midi": 51,
        "time": 236.5,
        "duration": 0.5,
        "velocity": 0.68,
        "hand": "left"
      },
      {
        "midi": 53,
        "time": 236.5,
        "duration": 0.5,
        "velocity": 0.54,
        "hand": "left"
      },
      {
        "midi": 60,
        "time": 236.5,
        "duration": 0.5,
        "velocity": 0.54,
        "hand": "right"
      },
      {
        "midi": 39,
        "time": 237,
        "duration": 0.5,
        "velocity": 0.68,
        "hand": "left"
      },
      {
        "midi": 46,
        "time": 237,
        "duration": 0.5,
        "velocity": 0.68,
        "hand": "left"
      },
      {
        "midi": 51,
        "time": 237,
        "duration": 0.5,
        "velocity": 0.68,
        "hand": "left"
      },
      {
        "midi": 55,
        "time": 237,
        "duration": 0.5,
        "velocity": 0.54,
        "hand": "left"
      },
      {
        "midi": 58,
        "time": 237,
        "duration": 0.5,
        "velocity": 0.54,
        "hand": "left"
      },
      {
        "midi": 63,
        "time": 237,
        "duration": 0.5,
        "velocity": 0.54,
        "hand": "right"
      },
      {
        "midi": 67,
        "time": 237,
        "duration": 0.5,
        "velocity": 0.54,
        "hand": "right"
      },
      {
        "midi": 44,
        "time": 237.5,
        "duration": 0.5,
        "velocity": 0.68,
        "hand": "left"
      },
      {
        "midi": 51,
        "time": 237.5,
        "duration": 0.5,
        "velocity": 0.68,
        "hand": "left"
      },
      {
        "midi": 53,
        "time": 237.5,
        "duration": 0.5,
        "velocity": 0.54,
        "hand": "left"
      },
      {
        "midi": 60,
        "time": 237.5,
        "duration": 0.5,
        "velocity": 0.54,
        "hand": "right"
      },
      {
        "midi": 39,
        "time": 238,
        "duration": 0.25,
        "velocity": 0.68,
        "hand": "left"
      },
      {
        "midi": 46,
        "time": 238,
        "duration": 0.25,
        "velocity": 0.68,
        "hand": "left"
      },
      {
        "midi": 51,
        "time": 238,
        "duration": 0.25,
        "velocity": 0.68,
        "hand": "left"
      },
      {
        "midi": 55,
        "time": 238,
        "duration": 0.25,
        "velocity": 0.75,
        "hand": "left"
      },
      {
        "midi": 58,
        "time": 238,
        "duration": 0.25,
        "velocity": 0.75,
        "hand": "left"
      },
      {
        "midi": 63,
        "time": 238,
        "duration": 0.25,
        "velocity": 0.75,
        "hand": "right"
      },
      {
        "midi": 67,
        "time": 238,
        "duration": 0.25,
        "velocity": 0.54,
        "hand": "right"
      },
      {
        "midi": 65,
        "time": 238.25,
        "duration": 0.25,
        "velocity": 0.54,
        "hand": "right"
      },
      {
        "midi": 58,
        "time": 238.5,
        "duration": 0.25,
        "velocity": 0.54,
        "hand": "left"
      },
      {
        "midi": 62,
        "time": 238.5,
        "duration": 0.25,
        "velocity": 0.54,
        "hand": "right"
      },
      {
        "midi": 63,
        "time": 238.5,
        "duration": 0.25,
        "velocity": 0.54,
        "hand": "right"
      },
      {
        "midi": 55,
        "time": 238.75,
        "duration": 0.25,
        "velocity": 0.54,
        "hand": "left"
      },
      {
        "midi": 63,
        "time": 238.75,
        "duration": 0.25,
        "velocity": 0.54,
        "hand": "right"
      },
      {
        "midi": 54,
        "time": 239,
        "duration": 0.25,
        "velocity": 0.54,
        "hand": "left"
      },
      {
        "midi": 58,
        "time": 239,
        "duration": 0.5,
        "velocity": 0.54,
        "hand": "left"
      },
      {
        "midi": 55,
        "time": 239.25,
        "duration": 0.25,
        "velocity": 0.54,
        "hand": "left"
      },
      {
        "midi": 53,
        "time": 239.5,
        "duration": 0.5,
        "velocity": 0.54,
        "hand": "left"
      },
      {
        "midi": 56,
        "time": 239.5,
        "duration": 0.5,
        "velocity": 0.54,
        "hand": "left"
      },
      {
        "midi": 60,
        "time": 239.5,
        "duration": 0.5,
        "velocity": 0.54,
        "hand": "right"
      },
      {
        "midi": 39,
        "time": 240,
        "duration": 0.25,
        "velocity": 0.54,
        "hand": "left"
      },
      {
        "midi": 46,
        "time": 240,
        "duration": 0.25,
        "velocity": 0.54,
        "hand": "left"
      },
      {
        "midi": 51,
        "time": 240,
        "duration": 0.25,
        "velocity": 0.54,
        "hand": "left"
      },
      {
        "midi": 55,
        "time": 240,
        "duration": 0.25,
        "velocity": 0.75,
        "hand": "left"
      },
      {
        "midi": 58,
        "time": 240,
        "duration": 0.25,
        "velocity": 0.75,
        "hand": "left"
      },
      {
        "midi": 67,
        "time": 240,
        "duration": 0.25,
        "velocity": 0.54,
        "hand": "right"
      },
      {
        "midi": 65,
        "time": 240.25,
        "duration": 0.25,
        "velocity": 0.54,
        "hand": "right"
      },
      {
        "midi": 58,
        "time": 240.5,
        "duration": 0.25,
        "velocity": 0.54,
        "hand": "left"
      },
      {
        "midi": 62,
        "time": 240.5,
        "duration": 0.25,
        "velocity": 0.54,
        "hand": "right"
      },
      {
        "midi": 63,
        "time": 240.5,
        "duration": 0.25,
        "velocity": 0.54,
        "hand": "right"
      },
      {
        "midi": 55,
        "time": 240.75,
        "duration": 0.25,
        "velocity": 0.54,
        "hand": "left"
      },
      {
        "midi": 63,
        "time": 240.75,
        "duration": 0.25,
        "velocity": 0.54,
        "hand": "right"
      },
      {
        "midi": 54,
        "time": 241,
        "duration": 0.25,
        "velocity": 0.54,
        "hand": "left"
      },
      {
        "midi": 58,
        "time": 241,
        "duration": 0.5,
        "velocity": 0.54,
        "hand": "left"
      },
      {
        "midi": 55,
        "time": 241.25,
        "duration": 0.25,
        "velocity": 0.54,
        "hand": "left"
      },
      {
        "midi": 53,
        "time": 241.5,
        "duration": 0.5,
        "velocity": 0.54,
        "hand": "left"
      },
      {
        "midi": 56,
        "time": 241.5,
        "duration": 0.5,
        "velocity": 0.54,
        "hand": "left"
      },
      {
        "midi": 60,
        "time": 241.5,
        "duration": 0.5,
        "velocity": 0.54,
        "hand": "right"
      },
      {
        "midi": 39,
        "time": 242,
        "duration": 0.25,
        "velocity": 0.71,
        "hand": "left"
      },
      {
        "midi": 46,
        "time": 242,
        "duration": 0.25,
        "velocity": 0.71,
        "hand": "left"
      },
      {
        "midi": 51,
        "time": 242,
        "duration": 0.25,
        "velocity": 0.71,
        "hand": "left"
      },
      {
        "midi": 55,
        "time": 242,
        "duration": 0.25,
        "velocity": 0.54,
        "hand": "left"
      },
      {
        "midi": 58,
        "time": 242,
        "duration": 0.25,
        "velocity": 0.54,
        "hand": "left"
      },
      {
        "midi": 63,
        "time": 242,
        "duration": 0.25,
        "velocity": 0.54,
        "hand": "right"
      },
      {
        "midi": 67,
        "time": 242,
        "duration": 0.25,
        "velocity": 0.54,
        "hand": "right"
      },
      {
        "midi": 58,
        "time": 242.25,
        "duration": 0.5,
        "velocity": 0.71,
        "hand": "left"
      },
      {
        "midi": 67,
        "time": 242.25,
        "duration": 0.5,
        "velocity": 0.54,
        "hand": "right"
      },
      {
        "midi": 51,
        "time": 242.5,
        "duration": 0.25,
        "velocity": 0.71,
        "hand": "left"
      },
      {
        "midi": 59,
        "time": 242.75,
        "duration": 0.5,
        "velocity": 0.54,
        "hand": "left"
      },
      {
        "midi": 65,
        "time": 242.75,
        "duration": 0.5,
        "velocity": 0.54,
        "hand": "right"
      },
      {
        "midi": 67,
        "time": 242.75,
        "duration": 0.5,
        "velocity": 0.54,
        "hand": "right"
      },
      {
        "midi": 50,
        "time": 243,
        "duration": 0.25,
        "velocity": 0.71,
        "hand": "left"
      },
      {
        "midi": 60,
        "time": 243.25,
        "duration": 0.5,
        "velocity": 0.54,
        "hand": "right"
      },
      {
        "midi": 63,
        "time": 243.25,
        "duration": 0.5,
        "velocity": 0.57,
        "hand": "right"
      },
      {
        "midi": 67,
        "time": 243.25,
        "duration": 0.5,
        "velocity": 0.57,
        "hand": "right"
      },
      {
        "midi": 48,
        "time": 243.5,
        "duration": 0.25,
        "velocity": 0.71,
        "hand": "left"
      },
      {
        "midi": 58,
        "time": 243.75,
        "duration": 0.5,
        "velocity": 0.54,
        "hand": "left"
      },
      {
        "midi": 62,
        "time": 243.75,
        "duration": 0.5,
        "velocity": 0.61,
        "hand": "right"
      },
      {
        "midi": 67,
        "time": 243.75,
        "duration": 0.5,
        "velocity": 0.61,
        "hand": "right"
      },
      {
        "midi": 46,
        "time": 244,
        "duration": 0.25,
        "velocity": 0.71,
        "hand": "left"
      },
      {
        "midi": 50,
        "time": 244,
        "duration": 0.25,
        "velocity": 0.71,
        "hand": "left"
      },
      {
        "midi": 56,
        "time": 244.25,
        "duration": 0.5,
        "velocity": 0.71,
        "hand": "left"
      },
      {
        "midi": 60,
        "time": 244.25,
        "duration": 0.5,
        "velocity": 0.65,
        "hand": "right"
      },
      {
        "midi": 67,
        "time": 244.25,
        "duration": 0.5,
        "velocity": 0.65,
        "hand": "right"
      },
      {
        "midi": 44,
        "time": 244.5,
        "duration": 0.25,
        "velocity": 0.71,
        "hand": "left"
      },
      {
        "midi": 50,
        "time": 244.5,
        "duration": 0.25,
        "velocity": 0.71,
        "hand": "left"
      },
      {
        "midi": 55,
        "time": 244.75,
        "duration": 0.75,
        "velocity": 0.54,
        "hand": "left"
      },
      {
        "midi": 58,
        "time": 244.75,
        "duration": 0.5,
        "velocity": 0.69,
        "hand": "left"
      },
      {
        "midi": 62,
        "time": 244.75,
        "duration": 0.5,
        "velocity": 0.69,
        "hand": "right"
      },
      {
        "midi": 67,
        "time": 244.75,
        "duration": 0.5,
        "velocity": 0.69,
        "hand": "right"
      },
      {
        "midi": 43,
        "time": 245,
        "duration": 0.5,
        "velocity": 0.71,
        "hand": "left"
      },
      {
        "midi": 50,
        "time": 245,
        "duration": 0.5,
        "velocity": 0.71,
        "hand": "left"
      },
      {
        "midi": 67,
        "time": 245.25,
        "duration": 0.75,
        "velocity": 0.72,
        "hand": "right"
      },
      {
        "midi": 55,
        "time": 245.5,
        "duration": 0.5,
        "velocity": 0.71,
        "hand": "left"
      },
      {
        "midi": 58,
        "time": 245.5,
        "duration": 0.5,
        "velocity": 0.71,
        "hand": "left"
      },
      {
        "midi": 62,
        "time": 245.5,
        "duration": 0.5,
        "velocity": 0.54,
        "hand": "right"
      },
      {
        "midi": 70,
        "time": 245.5,
        "duration": 0.5,
        "velocity": 0.75,
        "hand": "right"
      },
      {
        "midi": 74,
        "time": 245.5,
        "duration": 0.5,
        "velocity": 0.75,
        "hand": "right"
      },
      {
        "midi": 79,
        "time": 245.5,
        "duration": 0.5,
        "velocity": 0.75,
        "hand": "right"
      },
      {
        "midi": 39,
        "time": 246,
        "duration": 0.25,
        "velocity": 0.54,
        "hand": "left"
      },
      {
        "midi": 46,
        "time": 246,
        "duration": 0.25,
        "velocity": 0.54,
        "hand": "left"
      },
      {
        "midi": 51,
        "time": 246,
        "duration": 0.25,
        "velocity": 0.54,
        "hand": "left"
      },
      {
        "midi": 55,
        "time": 246,
        "duration": 0.25,
        "velocity": 0.75,
        "hand": "left"
      },
      {
        "midi": 58,
        "time": 246,
        "duration": 0.25,
        "velocity": 0.75,
        "hand": "left"
      },
      {
        "midi": 63,
        "time": 246,
        "duration": 0.25,
        "velocity": 0.75,
        "hand": "right"
      },
      {
        "midi": 67,
        "time": 246,
        "duration": 0.25,
        "velocity": 0.75,
        "hand": "right"
      },
      {
        "midi": 65,
        "time": 246.25,
        "duration": 0.25,
        "velocity": 0.75,
        "hand": "right"
      },
      {
        "midi": 58,
        "time": 246.5,
        "duration": 0.25,
        "velocity": 0.54,
        "hand": "left"
      },
      {
        "midi": 62,
        "time": 246.5,
        "duration": 0.25,
        "velocity": 0.75,
        "hand": "right"
      },
      {
        "midi": 63,
        "time": 246.5,
        "duration": 0.25,
        "velocity": 0.75,
        "hand": "right"
      },
      {
        "midi": 55,
        "time": 246.75,
        "duration": 0.25,
        "velocity": 0.54,
        "hand": "left"
      },
      {
        "midi": 63,
        "time": 246.75,
        "duration": 0.25,
        "velocity": 0.75,
        "hand": "right"
      },
      {
        "midi": 54,
        "time": 247,
        "duration": 0.25,
        "velocity": 0.54,
        "hand": "left"
      },
      {
        "midi": 58,
        "time": 247,
        "duration": 0.5,
        "velocity": 0.75,
        "hand": "left"
      },
      {
        "midi": 55,
        "time": 247.25,
        "duration": 0.25,
        "velocity": 0.54,
        "hand": "left"
      },
      {
        "midi": 53,
        "time": 247.5,
        "duration": 0.5,
        "velocity": 0.75,
        "hand": "left"
      },
      {
        "midi": 56,
        "time": 247.5,
        "duration": 0.5,
        "velocity": 0.54,
        "hand": "left"
      },
      {
        "midi": 60,
        "time": 247.5,
        "duration": 0.5,
        "velocity": 0.75,
        "hand": "right"
      },
      {
        "midi": 39,
        "time": 248,
        "duration": 0.25,
        "velocity": 0.54,
        "hand": "left"
      },
      {
        "midi": 46,
        "time": 248,
        "duration": 0.25,
        "velocity": 0.54,
        "hand": "left"
      },
      {
        "midi": 51,
        "time": 248,
        "duration": 0.25,
        "velocity": 0.54,
        "hand": "left"
      },
      {
        "midi": 55,
        "time": 248,
        "duration": 0.25,
        "velocity": 0.75,
        "hand": "left"
      },
      {
        "midi": 58,
        "time": 248,
        "duration": 0.25,
        "velocity": 0.75,
        "hand": "left"
      },
      {
        "midi": 67,
        "time": 248,
        "duration": 0.25,
        "velocity": 0.75,
        "hand": "right"
      },
      {
        "midi": 65,
        "time": 248.25,
        "duration": 0.25,
        "velocity": 0.75,
        "hand": "right"
      },
      {
        "midi": 58,
        "time": 248.5,
        "duration": 0.25,
        "velocity": 0.54,
        "hand": "left"
      },
      {
        "midi": 62,
        "time": 248.5,
        "duration": 0.25,
        "velocity": 0.75,
        "hand": "right"
      },
      {
        "midi": 63,
        "time": 248.5,
        "duration": 0.25,
        "velocity": 0.75,
        "hand": "right"
      },
      {
        "midi": 55,
        "time": 248.75,
        "duration": 0.25,
        "velocity": 0.54,
        "hand": "left"
      },
      {
        "midi": 63,
        "time": 248.75,
        "duration": 0.25,
        "velocity": 0.75,
        "hand": "right"
      },
      {
        "midi": 54,
        "time": 249,
        "duration": 0.25,
        "velocity": 0.54,
        "hand": "left"
      },
      {
        "midi": 58,
        "time": 249,
        "duration": 0.5,
        "velocity": 0.75,
        "hand": "left"
      },
      {
        "midi": 55,
        "time": 249.25,
        "duration": 0.25,
        "velocity": 0.54,
        "hand": "left"
      },
      {
        "midi": 53,
        "time": 249.5,
        "duration": 0.5,
        "velocity": 0.75,
        "hand": "left"
      },
      {
        "midi": 56,
        "time": 249.5,
        "duration": 0.5,
        "velocity": 0.54,
        "hand": "left"
      },
      {
        "midi": 60,
        "time": 249.5,
        "duration": 0.5,
        "velocity": 0.75,
        "hand": "right"
      },
      {
        "midi": 39,
        "time": 250,
        "duration": 0.25,
        "velocity": 0.71,
        "hand": "left"
      },
      {
        "midi": 46,
        "time": 250,
        "duration": 0.25,
        "velocity": 0.71,
        "hand": "left"
      },
      {
        "midi": 51,
        "time": 250,
        "duration": 0.25,
        "velocity": 0.71,
        "hand": "left"
      },
      {
        "midi": 55,
        "time": 250,
        "duration": 0.25,
        "velocity": 0.75,
        "hand": "left"
      },
      {
        "midi": 58,
        "time": 250,
        "duration": 0.25,
        "velocity": 0.75,
        "hand": "left"
      },
      {
        "midi": 63,
        "time": 250,
        "duration": 0.25,
        "velocity": 0.75,
        "hand": "right"
      },
      {
        "midi": 67,
        "time": 250,
        "duration": 0.25,
        "velocity": 0.75,
        "hand": "right"
      },
      {
        "midi": 58,
        "time": 250.25,
        "duration": 0.5,
        "velocity": 0.71,
        "hand": "left"
      },
      {
        "midi": 67,
        "time": 250.25,
        "duration": 0.5,
        "velocity": 0.75,
        "hand": "right"
      },
      {
        "midi": 51,
        "time": 250.5,
        "duration": 0.25,
        "velocity": 0.71,
        "hand": "left"
      },
      {
        "midi": 59,
        "time": 250.75,
        "duration": 0.5,
        "velocity": 0.54,
        "hand": "left"
      },
      {
        "midi": 65,
        "time": 250.75,
        "duration": 0.5,
        "velocity": 0.75,
        "hand": "right"
      },
      {
        "midi": 67,
        "time": 250.75,
        "duration": 0.5,
        "velocity": 0.75,
        "hand": "right"
      },
      {
        "midi": 50,
        "time": 251,
        "duration": 0.25,
        "velocity": 0.71,
        "hand": "left"
      },
      {
        "midi": 60,
        "time": 251.25,
        "duration": 0.5,
        "velocity": 0.54,
        "hand": "right"
      },
      {
        "midi": 63,
        "time": 251.25,
        "duration": 0.5,
        "velocity": 0.75,
        "hand": "right"
      },
      {
        "midi": 67,
        "time": 251.25,
        "duration": 0.5,
        "velocity": 0.75,
        "hand": "right"
      },
      {
        "midi": 48,
        "time": 251.5,
        "duration": 0.25,
        "velocity": 0.71,
        "hand": "left"
      },
      {
        "midi": 58,
        "time": 251.75,
        "duration": 0.5,
        "velocity": 0.54,
        "hand": "left"
      },
      {
        "midi": 62,
        "time": 251.75,
        "duration": 0.5,
        "velocity": 0.75,
        "hand": "right"
      },
      {
        "midi": 67,
        "time": 251.75,
        "duration": 0.5,
        "velocity": 0.75,
        "hand": "right"
      },
      {
        "midi": 46,
        "time": 252,
        "duration": 0.25,
        "velocity": 0.71,
        "hand": "left"
      },
      {
        "midi": 50,
        "time": 252,
        "duration": 0.25,
        "velocity": 0.71,
        "hand": "left"
      },
      {
        "midi": 56,
        "time": 252.25,
        "duration": 0.5,
        "velocity": 0.71,
        "hand": "left"
      },
      {
        "midi": 60,
        "time": 252.25,
        "duration": 0.5,
        "velocity": 0.75,
        "hand": "right"
      },
      {
        "midi": 67,
        "time": 252.25,
        "duration": 0.5,
        "velocity": 0.75,
        "hand": "right"
      },
      {
        "midi": 44,
        "time": 252.5,
        "duration": 0.25,
        "velocity": 0.71,
        "hand": "left"
      },
      {
        "midi": 50,
        "time": 252.5,
        "duration": 0.25,
        "velocity": 0.71,
        "hand": "left"
      },
      {
        "midi": 55,
        "time": 252.75,
        "duration": 0.75,
        "velocity": 0.54,
        "hand": "left"
      },
      {
        "midi": 58,
        "time": 252.75,
        "duration": 0.5,
        "velocity": 0.75,
        "hand": "left"
      },
      {
        "midi": 62,
        "time": 252.75,
        "duration": 0.5,
        "velocity": 0.75,
        "hand": "right"
      },
      {
        "midi": 67,
        "time": 252.75,
        "duration": 0.5,
        "velocity": 0.75,
        "hand": "right"
      },
      {
        "midi": 43,
        "time": 253,
        "duration": 0.5,
        "velocity": 0.71,
        "hand": "left"
      },
      {
        "midi": 50,
        "time": 253,
        "duration": 0.5,
        "velocity": 0.71,
        "hand": "left"
      },
      {
        "midi": 67,
        "time": 253.25,
        "duration": 0.25,
        "velocity": 0.75,
        "hand": "right"
      },
      {
        "midi": 55,
        "time": 253.5,
        "duration": 0.5,
        "velocity": 0.71,
        "hand": "left"
      },
      {
        "midi": 58,
        "time": 253.5,
        "duration": 0.5,
        "velocity": 0.71,
        "hand": "left"
      },
      {
        "midi": 62,
        "time": 253.5,
        "duration": 0.5,
        "velocity": 0.54,
        "hand": "right"
      },
      {
        "midi": 70,
        "time": 253.5,
        "duration": 0.25,
        "velocity": 0.75,
        "hand": "right"
      },
      {
        "midi": 74,
        "time": 253.5,
        "duration": 0.25,
        "velocity": 0.75,
        "hand": "right"
      },
      {
        "midi": 79,
        "time": 253.5,
        "duration": 0.25,
        "velocity": 0.75,
        "hand": "right"
      },
      {
        "midi": 70,
        "time": 253.75,
        "duration": 0.25,
        "velocity": 0.75,
        "hand": "right"
      },
      {
        "midi": 82,
        "time": 253.75,
        "duration": 0.25,
        "velocity": 0.75,
        "hand": "right"
      },
      {
        "midi": 72,
        "time": 254,
        "duration": 0.5,
        "velocity": 0.61,
        "hand": "right"
      },
      {
        "midi": 84,
        "time": 254,
        "duration": 0.5,
        "velocity": 0.61,
        "hand": "right"
      },
      {
        "midi": 44,
        "time": 254.25,
        "duration": 0.25,
        "velocity": 0.54,
        "hand": "left"
      },
      {
        "midi": 46,
        "time": 254.25,
        "duration": 0.25,
        "velocity": 0.54,
        "hand": "left"
      },
      {
        "midi": 50,
        "time": 254.25,
        "duration": 0.25,
        "velocity": 0.54,
        "hand": "left"
      },
      {
        "midi": 56,
        "time": 254.5,
        "duration": 0.25,
        "velocity": 0.54,
        "hand": "left"
      },
      {
        "midi": 72,
        "time": 254.5,
        "duration": 0.5,
        "velocity": 0.61,
        "hand": "right"
      },
      {
        "midi": 84,
        "time": 254.5,
        "duration": 0.5,
        "velocity": 0.61,
        "hand": "right"
      },
      {
        "midi": 56,
        "time": 254.75,
        "duration": 0.25,
        "velocity": 0.54,
        "hand": "left"
      },
      {
        "midi": 58,
        "time": 254.75,
        "duration": 0.25,
        "velocity": 0.54,
        "hand": "left"
      },
      {
        "midi": 62,
        "time": 254.75,
        "duration": 0.25,
        "velocity": 0.54,
        "hand": "right"
      },
      {
        "midi": 68,
        "time": 255,
        "duration": 0.25,
        "velocity": 0.54,
        "hand": "right"
      },
      {
        "midi": 72,
        "time": 255,
        "duration": 0.25,
        "velocity": 0.61,
        "hand": "right"
      },
      {
        "midi": 84,
        "time": 255,
        "duration": 0.25,
        "velocity": 0.61,
        "hand": "right"
      },
      {
        "midi": 56,
        "time": 255.25,
        "duration": 0.25,
        "velocity": 0.54,
        "hand": "left"
      },
      {
        "midi": 58,
        "time": 255.25,
        "duration": 0.25,
        "velocity": 0.54,
        "hand": "left"
      },
      {
        "midi": 62,
        "time": 255.25,
        "duration": 0.25,
        "velocity": 0.54,
        "hand": "right"
      },
      {
        "midi": 82,
        "time": 255.25,
        "duration": 0.25,
        "velocity": 0.61,
        "hand": "right"
      },
      {
        "midi": 79,
        "time": 255.5,
        "duration": 0.25,
        "velocity": 0.61,
        "hand": "right"
      },
      {
        "midi": 80,
        "time": 255.5,
        "duration": 0.25,
        "velocity": 0.61,
        "hand": "right"
      },
      {
        "midi": 77,
        "time": 255.75,
        "duration": 0.25,
        "velocity": 0.61,
        "hand": "right"
      },
      {
        "midi": 70,
        "time": 256,
        "duration": 0.5,
        "velocity": 0.61,
        "hand": "right"
      },
      {
        "midi": 82,
        "time": 256,
        "duration": 0.5,
        "velocity": 0.61,
        "hand": "right"
      },
      {
        "midi": 43,
        "time": 256.25,
        "duration": 0.25,
        "velocity": 0.54,
        "hand": "left"
      },
      {
        "midi": 46,
        "time": 256.25,
        "duration": 0.25,
        "velocity": 0.54,
        "hand": "left"
      },
      {
        "midi": 51,
        "time": 256.25,
        "duration": 0.25,
        "velocity": 0.54,
        "hand": "left"
      },
      {
        "midi": 55,
        "time": 256.5,
        "duration": 0.25,
        "velocity": 0.54,
        "hand": "left"
      },
      {
        "midi": 70,
        "time": 256.5,
        "duration": 0.5,
        "velocity": 0.61,
        "hand": "right"
      },
      {
        "midi": 82,
        "time": 256.5,
        "duration": 0.5,
        "velocity": 0.61,
        "hand": "right"
      },
      {
        "midi": 55,
        "time": 256.75,
        "duration": 0.25,
        "velocity": 0.54,
        "hand": "left"
      },
      {
        "midi": 58,
        "time": 256.75,
        "duration": 0.25,
        "velocity": 0.54,
        "hand": "left"
      },
      {
        "midi": 63,
        "time": 256.75,
        "duration": 0.25,
        "velocity": 0.54,
        "hand": "right"
      },
      {
        "midi": 67,
        "time": 257,
        "duration": 0.25,
        "velocity": 0.54,
        "hand": "right"
      },
      {
        "midi": 70,
        "time": 257,
        "duration": 0.5,
        "velocity": 0.61,
        "hand": "right"
      },
      {
        "midi": 82,
        "time": 257,
        "duration": 0.5,
        "velocity": 0.61,
        "hand": "right"
      },
      {
        "midi": 55,
        "time": 257.25,
        "duration": 0.25,
        "velocity": 0.54,
        "hand": "left"
      },
      {
        "midi": 58,
        "time": 257.25,
        "duration": 0.25,
        "velocity": 0.54,
        "hand": "left"
      },
      {
        "midi": 63,
        "time": 257.25,
        "duration": 0.25,
        "velocity": 0.54,
        "hand": "right"
      },
      {
        "midi": 75,
        "time": 257.5,
        "duration": 0.25,
        "velocity": 0.61,
        "hand": "right"
      },
      {
        "midi": 87,
        "time": 257.5,
        "duration": 0.25,
        "velocity": 0.61,
        "hand": "right"
      },
      {
        "midi": 74,
        "time": 257.75,
        "duration": 0.25,
        "velocity": 0.61,
        "hand": "right"
      },
      {
        "midi": 86,
        "time": 257.75,
        "duration": 0.25,
        "velocity": 0.61,
        "hand": "right"
      },
      {
        "midi": 72,
        "time": 258,
        "duration": 0.5,
        "velocity": 0.61,
        "hand": "right"
      },
      {
        "midi": 84,
        "time": 258,
        "duration": 0.5,
        "velocity": 0.61,
        "hand": "right"
      },
      {
        "midi": 44,
        "time": 258.25,
        "duration": 0.25,
        "velocity": 0.54,
        "hand": "left"
      },
      {
        "midi": 46,
        "time": 258.25,
        "duration": 0.25,
        "velocity": 0.54,
        "hand": "left"
      },
      {
        "midi": 50,
        "time": 258.25,
        "duration": 0.25,
        "velocity": 0.54,
        "hand": "left"
      },
      {
        "midi": 56,
        "time": 258.5,
        "duration": 0.25,
        "velocity": 0.54,
        "hand": "left"
      },
      {
        "midi": 72,
        "time": 258.5,
        "duration": 0.5,
        "velocity": 0.61,
        "hand": "right"
      },
      {
        "midi": 84,
        "time": 258.5,
        "duration": 0.5,
        "velocity": 0.61,
        "hand": "right"
      },
      {
        "midi": 56,
        "time": 258.75,
        "duration": 0.25,
        "velocity": 0.54,
        "hand": "left"
      },
      {
        "midi": 58,
        "time": 258.75,
        "duration": 0.25,
        "velocity": 0.54,
        "hand": "left"
      },
      {
        "midi": 62,
        "time": 258.75,
        "duration": 0.25,
        "velocity": 0.54,
        "hand": "right"
      },
      {
        "midi": 68,
        "time": 259,
        "duration": 0.25,
        "velocity": 0.54,
        "hand": "right"
      },
      {
        "midi": 72,
        "time": 259,
        "duration": 0.25,
        "velocity": 0.61,
        "hand": "right"
      },
      {
        "midi": 84,
        "time": 259,
        "duration": 0.25,
        "velocity": 0.61,
        "hand": "right"
      },
      {
        "midi": 56,
        "time": 259.25,
        "duration": 0.25,
        "velocity": 0.54,
        "hand": "left"
      },
      {
        "midi": 58,
        "time": 259.25,
        "duration": 0.25,
        "velocity": 0.54,
        "hand": "left"
      },
      {
        "midi": 62,
        "time": 259.25,
        "duration": 0.25,
        "velocity": 0.54,
        "hand": "right"
      },
      {
        "midi": 82,
        "time": 259.25,
        "duration": 0.25,
        "velocity": 0.61,
        "hand": "right"
      },
      {
        "midi": 79,
        "time": 259.5,
        "duration": 0.25,
        "velocity": 0.61,
        "hand": "right"
      },
      {
        "midi": 80,
        "time": 259.5,
        "duration": 0.25,
        "velocity": 0.61,
        "hand": "right"
      },
      {
        "midi": 77,
        "time": 259.75,
        "duration": 0.25,
        "velocity": 0.61,
        "hand": "right"
      },
      {
        "midi": 70,
        "time": 260,
        "duration": 0.5,
        "velocity": 0.61,
        "hand": "right"
      },
      {
        "midi": 82,
        "time": 260,
        "duration": 0.5,
        "velocity": 0.61,
        "hand": "right"
      },
      {
        "midi": 43,
        "time": 260.25,
        "duration": 0.25,
        "velocity": 0.54,
        "hand": "left"
      },
      {
        "midi": 46,
        "time": 260.25,
        "duration": 0.25,
        "velocity": 0.54,
        "hand": "left"
      },
      {
        "midi": 51,
        "time": 260.25,
        "duration": 0.25,
        "velocity": 0.54,
        "hand": "left"
      },
      {
        "midi": 55,
        "time": 260.5,
        "duration": 0.25,
        "velocity": 0.54,
        "hand": "left"
      },
      {
        "midi": 70,
        "time": 260.5,
        "duration": 0.5,
        "velocity": 0.61,
        "hand": "right"
      },
      {
        "midi": 82,
        "time": 260.5,
        "duration": 0.5,
        "velocity": 0.61,
        "hand": "right"
      },
      {
        "midi": 55,
        "time": 260.75,
        "duration": 0.25,
        "velocity": 0.54,
        "hand": "left"
      },
      {
        "midi": 58,
        "time": 260.75,
        "duration": 0.25,
        "velocity": 0.54,
        "hand": "left"
      },
      {
        "midi": 63,
        "time": 260.75,
        "duration": 0.25,
        "velocity": 0.54,
        "hand": "right"
      },
      {
        "midi": 67,
        "time": 261,
        "duration": 0.25,
        "velocity": 0.54,
        "hand": "right"
      },
      {
        "midi": 70,
        "time": 261,
        "duration": 0.5,
        "velocity": 0.61,
        "hand": "right"
      },
      {
        "midi": 82,
        "time": 261,
        "duration": 0.5,
        "velocity": 0.61,
        "hand": "right"
      },
      {
        "midi": 55,
        "time": 261.25,
        "duration": 0.25,
        "velocity": 0.54,
        "hand": "left"
      },
      {
        "midi": 58,
        "time": 261.25,
        "duration": 0.25,
        "velocity": 0.54,
        "hand": "left"
      },
      {
        "midi": 63,
        "time": 261.25,
        "duration": 0.25,
        "velocity": 0.54,
        "hand": "right"
      },
      {
        "midi": 63,
        "time": 261.5,
        "duration": 0.25,
        "velocity": 0.68,
        "hand": "right"
      },
      {
        "midi": 67,
        "time": 261.5,
        "duration": 0.25,
        "velocity": 0.68,
        "hand": "right"
      },
      {
        "midi": 67,
        "time": 261.75,
        "duration": 0.25,
        "velocity": 0.68,
        "hand": "right"
      },
      {
        "midi": 70,
        "time": 261.75,
        "duration": 0.25,
        "velocity": 0.68,
        "hand": "right"
      },
      {
        "midi": 44,
        "time": 262,
        "duration": 1.25,
        "velocity": 0.71,
        "hand": "left"
      },
      {
        "midi": 68,
        "time": 262,
        "duration": 0.25,
        "velocity": 0.75,
        "hand": "right"
      },
      {
        "midi": 72,
        "time": 262,
        "duration": 0.5,
        "velocity": 0.68,
        "hand": "right"
      },
      {
        "midi": 50,
        "time": 262.25,
        "duration": 0.5,
        "velocity": 0.54,
        "hand": "left"
      },
      {
        "midi": 60,
        "time": 262.25,
        "duration": 0.25,
        "velocity": 0.75,
        "hand": "right"
      },
      {
        "midi": 65,
        "time": 262.25,
        "duration": 0.25,
        "velocity": 0.75,
        "hand": "right"
      },
      {
        "midi": 68,
        "time": 262.5,
        "duration": 0.25,
        "velocity": 0.75,
        "hand": "right"
      },
      {
        "midi": 72,
        "time": 262.5,
        "duration": 0.5,
        "velocity": 0.68,
        "hand": "right"
      },
      {
        "midi": 52,
        "time": 262.75,
        "duration": 0.25,
        "velocity": 0.54,
        "hand": "left"
      },
      {
        "midi": 60,
        "time": 262.75,
        "duration": 0.25,
        "velocity": 0.75,
        "hand": "right"
      },
      {
        "midi": 67,
        "time": 262.75,
        "duration": 0.25,
        "velocity": 0.75,
        "hand": "right"
      },
      {
        "midi": 53,
        "time": 263,
        "duration": 0.25,
        "velocity": 0.54,
        "hand": "left"
      },
      {
        "midi": 68,
        "time": 263,
        "duration": 0.25,
        "velocity": 0.75,
        "hand": "right"
      },
      {
        "midi": 72,
        "time": 263,
        "duration": 0.25,
        "velocity": 0.68,
        "hand": "right"
      },
      {
        "midi": 70,
        "time": 263.25,
        "duration": 0.25,
        "velocity": 0.68,
        "hand": "right"
      },
      {
        "midi": 67,
        "time": 263.5,
        "duration": 0.25,
        "velocity": 0.68,
        "hand": "right"
      },
      {
        "midi": 68,
        "time": 263.5,
        "duration": 0.25,
        "velocity": 0.68,
        "hand": "right"
      },
      {
        "midi": 65,
        "time": 263.75,
        "duration": 0.25,
        "velocity": 0.68,
        "hand": "right"
      },
      {
        "midi": 43,
        "time": 264,
        "duration": 1.25,
        "velocity": 0.71,
        "hand": "left"
      },
      {
        "midi": 67,
        "time": 264,
        "duration": 0.25,
        "velocity": 0.75,
        "hand": "right"
      },
      {
        "midi": 70,
        "time": 264,
        "duration": 0.5,
        "velocity": 0.68,
        "hand": "right"
      },
      {
        "midi": 48,
        "time": 264.25,
        "duration": 0.5,
        "velocity": 0.54,
        "hand": "left"
      },
      {
        "midi": 58,
        "time": 264.25,
        "duration": 0.25,
        "velocity": 0.75,
        "hand": "left"
      },
      {
        "midi": 63,
        "time": 264.25,
        "duration": 0.25,
        "velocity": 0.75,
        "hand": "right"
      },
      {
        "midi": 67,
        "time": 264.5,
        "duration": 0.25,
        "velocity": 0.75,
        "hand": "right"
      },
      {
        "midi": 70,
        "time": 264.5,
        "duration": 0.5,
        "velocity": 0.68,
        "hand": "right"
      },
      {
        "midi": 50,
        "time": 264.75,
        "duration": 0.25,
        "velocity": 0.54,
        "hand": "left"
      },
      {
        "midi": 58,
        "time": 264.75,
        "duration": 0.25,
        "velocity": 0.75,
        "hand": "left"
      },
      {
        "midi": 65,
        "time": 264.75,
        "duration": 0.25,
        "velocity": 0.75,
        "hand": "right"
      },
      {
        "midi": 51,
        "time": 265,
        "duration": 0.25,
        "velocity": 0.54,
        "hand": "left"
      },
      {
        "midi": 67,
        "time": 265,
        "duration": 0.25,
        "velocity": 0.75,
        "hand": "right"
      },
      {
        "midi": 70,
        "time": 265,
        "duration": 0.25,
        "velocity": 0.68,
        "hand": "right"
      },
      {
        "midi": 66,
        "time": 265.25,
        "duration": 0.25,
        "velocity": 0.75,
        "hand": "right"
      },
      {
        "midi": 67,
        "time": 265.25,
        "duration": 0.25,
        "velocity": 0.75,
        "hand": "right"
      },
      {
        "midi": 70,
        "time": 265.5,
        "duration": 0.25,
        "velocity": 0.75,
        "hand": "right"
      },
      {
        "midi": 75,
        "time": 265.5,
        "duration": 0.25,
        "velocity": 0.75,
        "hand": "right"
      },
      {
        "midi": 74,
        "time": 265.75,
        "duration": 0.25,
        "velocity": 0.75,
        "hand": "right"
      },
      {
        "midi": 44,
        "time": 266,
        "duration": 1.25,
        "velocity": 0.71,
        "hand": "left"
      },
      {
        "midi": 68,
        "time": 266,
        "duration": 0.25,
        "velocity": 0.75,
        "hand": "right"
      },
      {
        "midi": 72,
        "time": 266,
        "duration": 0.5,
        "velocity": 0.68,
        "hand": "right"
      },
      {
        "midi": 50,
        "time": 266.25,
        "duration": 0.5,
        "velocity": 0.54,
        "hand": "left"
      },
      {
        "midi": 60,
        "time": 266.25,
        "duration": 0.25,
        "velocity": 0.75,
        "hand": "right"
      },
      {
        "midi": 65,
        "time": 266.25,
        "duration": 0.25,
        "velocity": 0.75,
        "hand": "right"
      },
      {
        "midi": 68,
        "time": 266.5,
        "duration": 0.25,
        "velocity": 0.75,
        "hand": "right"
      },
      {
        "midi": 72,
        "time": 266.5,
        "duration": 0.5,
        "velocity": 0.68,
        "hand": "right"
      },
      {
        "midi": 52,
        "time": 266.75,
        "duration": 0.25,
        "velocity": 0.54,
        "hand": "left"
      },
      {
        "midi": 60,
        "time": 266.75,
        "duration": 0.25,
        "velocity": 0.75,
        "hand": "right"
      },
      {
        "midi": 67,
        "time": 266.75,
        "duration": 0.25,
        "velocity": 0.75,
        "hand": "right"
      },
      {
        "midi": 53,
        "time": 267,
        "duration": 0.25,
        "velocity": 0.54,
        "hand": "left"
      },
      {
        "midi": 68,
        "time": 267,
        "duration": 0.25,
        "velocity": 0.75,
        "hand": "right"
      },
      {
        "midi": 72,
        "time": 267,
        "duration": 0.25,
        "velocity": 0.68,
        "hand": "right"
      },
      {
        "midi": 70,
        "time": 267.25,
        "duration": 0.25,
        "velocity": 0.68,
        "hand": "right"
      },
      {
        "midi": 67,
        "time": 267.5,
        "duration": 0.25,
        "velocity": 0.68,
        "hand": "right"
      },
      {
        "midi": 68,
        "time": 267.5,
        "duration": 0.25,
        "velocity": 0.68,
        "hand": "right"
      },
      {
        "midi": 65,
        "time": 267.75,
        "duration": 0.25,
        "velocity": 0.68,
        "hand": "right"
      },
      {
        "midi": 43,
        "time": 268,
        "duration": 1.25,
        "velocity": 0.71,
        "hand": "left"
      },
      {
        "midi": 67,
        "time": 268,
        "duration": 0.25,
        "velocity": 0.75,
        "hand": "right"
      },
      {
        "midi": 70,
        "time": 268,
        "duration": 0.5,
        "velocity": 0.68,
        "hand": "right"
      },
      {
        "midi": 48,
        "time": 268.25,
        "duration": 0.5,
        "velocity": 0.54,
        "hand": "left"
      },
      {
        "midi": 58,
        "time": 268.25,
        "duration": 0.25,
        "velocity": 0.75,
        "hand": "left"
      },
      {
        "midi": 63,
        "time": 268.25,
        "duration": 0.25,
        "velocity": 0.75,
        "hand": "right"
      },
      {
        "midi": 67,
        "time": 268.5,
        "duration": 0.25,
        "velocity": 0.75,
        "hand": "right"
      },
      {
        "midi": 70,
        "time": 268.5,
        "duration": 0.5,
        "velocity": 0.68,
        "hand": "right"
      },
      {
        "midi": 50,
        "time": 268.75,
        "duration": 0.25,
        "velocity": 0.54,
        "hand": "left"
      },
      {
        "midi": 58,
        "time": 268.75,
        "duration": 0.25,
        "velocity": 0.75,
        "hand": "left"
      },
      {
        "midi": 65,
        "time": 268.75,
        "duration": 0.25,
        "velocity": 0.75,
        "hand": "right"
      },
      {
        "midi": 51,
        "time": 269,
        "duration": 0.25,
        "velocity": 0.54,
        "hand": "left"
      },
      {
        "midi": 67,
        "time": 269,
        "duration": 0.25,
        "velocity": 0.75,
        "hand": "right"
      },
      {
        "midi": 70,
        "time": 269,
        "duration": 0.25,
        "velocity": 0.68,
        "hand": "right"
      },
      {
        "midi": 63,
        "time": 269.25,
        "duration": 0.25,
        "velocity": 0.75,
        "hand": "right"
      },
      {
        "midi": 65,
        "time": 269.25,
        "duration": 0.25,
        "velocity": 0.75,
        "hand": "right"
      },
      {
        "midi": 55,
        "time": 269.5,
        "duration": 0.25,
        "velocity": 0.54,
        "hand": "left"
      },
      {
        "midi": 62,
        "time": 269.5,
        "duration": 0.25,
        "velocity": 0.75,
        "hand": "right"
      },
      {
        "midi": 63,
        "time": 269.5,
        "duration": 0.5,
        "velocity": 0.75,
        "hand": "right"
      },
      {
        "midi": 58,
        "time": 269.75,
        "duration": 0.25,
        "velocity": 0.54,
        "hand": "left"
      },
      {
        "midi": 60,
        "time": 270,
        "duration": 0.5,
        "velocity": 0.54,
        "hand": "right"
      },
      {
        "midi": 44,
        "time": 270.25,
        "duration": 0.25,
        "velocity": 0.71,
        "hand": "left"
      },
      {
        "midi": 51,
        "time": 270.25,
        "duration": 0.25,
        "velocity": 0.71,
        "hand": "left"
      },
      {
        "midi": 65,
        "time": 270.25,
        "duration": 0.25,
        "velocity": 0.68,
        "hand": "right"
      },
      {
        "midi": 71,
        "time": 270.25,
        "duration": 0.125,
        "velocity": 0.68,
        "hand": "right"
      },
      {
        "midi": 72,
        "time": 270.25,
        "duration": 0.25,
        "velocity": 0.68,
        "hand": "right"
      },
      {
        "midi": 60,
        "time": 270.5,
        "duration": 0.5,
        "velocity": 0.54,
        "hand": "right"
      },
      {
        "midi": 44,
        "time": 270.75,
        "duration": 0.25,
        "velocity": 0.71,
        "hand": "left"
      },
      {
        "midi": 51,
        "time": 270.75,
        "duration": 0.25,
        "velocity": 0.71,
        "hand": "left"
      },
      {
        "midi": 77,
        "time": 270.75,
        "duration": 0.25,
        "velocity": 0.68,
        "hand": "right"
      },
      {
        "midi": 83,
        "time": 270.75,
        "duration": 0.125,
        "velocity": 0.68,
        "hand": "right"
      },
      {
        "midi": 84,
        "time": 270.75,
        "duration": 0.25,
        "velocity": 0.68,
        "hand": "right"
      },
      {
        "midi": 60,
        "time": 271,
        "duration": 0.5,
        "velocity": 0.54,
        "hand": "right"
      },
      {
        "midi": 44,
        "time": 271.25,
        "duration": 0.25,
        "velocity": 0.71,
        "hand": "left"
      },
      {
        "midi": 51,
        "time": 271.25,
        "duration": 0.25,
        "velocity": 0.71,
        "hand": "left"
      },
      {
        "midi": 89,
        "time": 271.25,
        "duration": 0.25,
        "velocity": 0.68,
        "hand": "right"
      },
      {
        "midi": 95,
        "time": 271.25,
        "duration": 0.125,
        "velocity": 0.68,
        "hand": "right"
      },
      {
        "midi": 96,
        "time": 271.25,
        "duration": 0.25,
        "velocity": 0.68,
        "hand": "right"
      },
      {
        "midi": 58,
        "time": 271.5,
        "duration": 0.25,
        "velocity": 0.54,
        "hand": "left"
      },
      {
        "midi": 55,
        "time": 271.75,
        "duration": 0.25,
        "velocity": 0.54,
        "hand": "left"
      },
      {
        "midi": 56,
        "time": 271.75,
        "duration": 0.25,
        "velocity": 0.54,
        "hand": "left"
      },
      {
        "midi": 53,
        "time": 272,
        "duration": 0.25,
        "velocity": 0.54,
        "hand": "left"
      },
      {
        "midi": 58,
        "time": 272,
        "duration": 0.5,
        "velocity": 0.54,
        "hand": "left"
      },
      {
        "midi": 43,
        "time": 272.25,
        "duration": 0.25,
        "velocity": 0.71,
        "hand": "left"
      },
      {
        "midi": 51,
        "time": 272.25,
        "duration": 0.25,
        "velocity": 0.71,
        "hand": "left"
      },
      {
        "midi": 70,
        "time": 272.25,
        "duration": 0.25,
        "velocity": 0.68,
        "hand": "right"
      },
      {
        "midi": 74,
        "time": 272.25,
        "duration": 0.125,
        "velocity": 0.68,
        "hand": "right"
      },
      {
        "midi": 75,
        "time": 272.25,
        "duration": 0.25,
        "velocity": 0.68,
        "hand": "right"
      },
      {
        "midi": 58,
        "time": 272.5,
        "duration": 0.5,
        "velocity": 0.54,
        "hand": "left"
      },
      {
        "midi": 43,
        "time": 272.75,
        "duration": 0.25,
        "velocity": 0.71,
        "hand": "left"
      },
      {
        "midi": 51,
        "time": 272.75,
        "duration": 0.25,
        "velocity": 0.71,
        "hand": "left"
      },
      {
        "midi": 82,
        "time": 272.75,
        "duration": 0.25,
        "velocity": 0.68,
        "hand": "right"
      },
      {
        "midi": 86,
        "time": 272.75,
        "duration": 0.125,
        "velocity": 0.68,
        "hand": "right"
      },
      {
        "midi": 87,
        "time": 272.75,
        "duration": 0.25,
        "velocity": 0.68,
        "hand": "right"
      },
      {
        "midi": 58,
        "time": 273,
        "duration": 0.5,
        "velocity": 0.54,
        "hand": "left"
      },
      {
        "midi": 43,
        "time": 273.25,
        "duration": 0.25,
        "velocity": 0.71,
        "hand": "left"
      },
      {
        "midi": 51,
        "time": 273.25,
        "duration": 0.25,
        "velocity": 0.71,
        "hand": "left"
      },
      {
        "midi": 94,
        "time": 273.25,
        "duration": 0.25,
        "velocity": 0.68,
        "hand": "right"
      },
      {
        "midi": 98,
        "time": 273.25,
        "duration": 0.125,
        "velocity": 0.68,
        "hand": "right"
      },
      {
        "midi": 99,
        "time": 273.25,
        "duration": 0.25,
        "velocity": 0.68,
        "hand": "right"
      },
      {
        "midi": 63,
        "time": 273.5,
        "duration": 0.25,
        "velocity": 0.54,
        "hand": "right"
      },
      {
        "midi": 62,
        "time": 273.75,
        "duration": 0.25,
        "velocity": 0.54,
        "hand": "right"
      },
      {
        "midi": 60,
        "time": 274,
        "duration": 0.5,
        "velocity": 0.54,
        "hand": "right"
      },
      {
        "midi": 44,
        "time": 274.25,
        "duration": 0.25,
        "velocity": 0.71,
        "hand": "left"
      },
      {
        "midi": 51,
        "time": 274.25,
        "duration": 0.25,
        "velocity": 0.71,
        "hand": "left"
      },
      {
        "midi": 65,
        "time": 274.25,
        "duration": 0.25,
        "velocity": 0.68,
        "hand": "right"
      },
      {
        "midi": 71,
        "time": 274.25,
        "duration": 0.125,
        "velocity": 0.68,
        "hand": "right"
      },
      {
        "midi": 72,
        "time": 274.25,
        "duration": 0.25,
        "velocity": 0.68,
        "hand": "right"
      },
      {
        "midi": 60,
        "time": 274.5,
        "duration": 0.5,
        "velocity": 0.54,
        "hand": "right"
      },
      {
        "midi": 44,
        "time": 274.75,
        "duration": 0.25,
        "velocity": 0.71,
        "hand": "left"
      },
      {
        "midi": 51,
        "time": 274.75,
        "duration": 0.25,
        "velocity": 0.71,
        "hand": "left"
      },
      {
        "midi": 77,
        "time": 274.75,
        "duration": 0.25,
        "velocity": 0.68,
        "hand": "right"
      },
      {
        "midi": 83,
        "time": 274.75,
        "duration": 0.125,
        "velocity": 0.68,
        "hand": "right"
      },
      {
        "midi": 84,
        "time": 274.75,
        "duration": 0.25,
        "velocity": 0.68,
        "hand": "right"
      },
      {
        "midi": 60,
        "time": 275,
        "duration": 0.5,
        "velocity": 0.54,
        "hand": "right"
      },
      {
        "midi": 44,
        "time": 275.25,
        "duration": 0.25,
        "velocity": 0.71,
        "hand": "left"
      },
      {
        "midi": 51,
        "time": 275.25,
        "duration": 0.25,
        "velocity": 0.71,
        "hand": "left"
      },
      {
        "midi": 89,
        "time": 275.25,
        "duration": 0.25,
        "velocity": 0.68,
        "hand": "right"
      },
      {
        "midi": 95,
        "time": 275.25,
        "duration": 0.125,
        "velocity": 0.68,
        "hand": "right"
      },
      {
        "midi": 96,
        "time": 275.25,
        "duration": 0.25,
        "velocity": 0.68,
        "hand": "right"
      },
      {
        "midi": 58,
        "time": 275.5,
        "duration": 0.25,
        "velocity": 0.54,
        "hand": "left"
      },
      {
        "midi": 55,
        "time": 275.75,
        "duration": 0.25,
        "velocity": 0.54,
        "hand": "left"
      },
      {
        "midi": 56,
        "time": 275.75,
        "duration": 0.25,
        "velocity": 0.54,
        "hand": "left"
      },
      {
        "midi": 53,
        "time": 276,
        "duration": 0.25,
        "velocity": 0.54,
        "hand": "left"
      },
      {
        "midi": 58,
        "time": 276,
        "duration": 0.5,
        "velocity": 0.54,
        "hand": "left"
      },
      {
        "midi": 43,
        "time": 276.25,
        "duration": 0.25,
        "velocity": 0.71,
        "hand": "left"
      },
      {
        "midi": 51,
        "time": 276.25,
        "duration": 0.25,
        "velocity": 0.71,
        "hand": "left"
      },
      {
        "midi": 70,
        "time": 276.25,
        "duration": 0.25,
        "velocity": 0.68,
        "hand": "right"
      },
      {
        "midi": 74,
        "time": 276.25,
        "duration": 0.125,
        "velocity": 0.68,
        "hand": "right"
      },
      {
        "midi": 75,
        "time": 276.25,
        "duration": 0.25,
        "velocity": 0.68,
        "hand": "right"
      },
      {
        "midi": 58,
        "time": 276.5,
        "duration": 0.5,
        "velocity": 0.54,
        "hand": "left"
      },
      {
        "midi": 43,
        "time": 276.75,
        "duration": 0.25,
        "velocity": 0.71,
        "hand": "left"
      },
      {
        "midi": 51,
        "time": 276.75,
        "duration": 0.25,
        "velocity": 0.71,
        "hand": "left"
      },
      {
        "midi": 82,
        "time": 276.75,
        "duration": 0.25,
        "velocity": 0.68,
        "hand": "right"
      },
      {
        "midi": 86,
        "time": 276.75,
        "duration": 0.125,
        "velocity": 0.68,
        "hand": "right"
      },
      {
        "midi": 87,
        "time": 276.75,
        "duration": 0.25,
        "velocity": 0.68,
        "hand": "right"
      },
      {
        "midi": 58,
        "time": 277,
        "duration": 0.5,
        "velocity": 0.54,
        "hand": "left"
      },
      {
        "midi": 43,
        "time": 277.25,
        "duration": 0.25,
        "velocity": 0.71,
        "hand": "left"
      },
      {
        "midi": 51,
        "time": 277.25,
        "duration": 0.25,
        "velocity": 0.71,
        "hand": "left"
      },
      {
        "midi": 94,
        "time": 277.25,
        "duration": 0.25,
        "velocity": 0.68,
        "hand": "right"
      },
      {
        "midi": 98,
        "time": 277.25,
        "duration": 0.125,
        "velocity": 0.68,
        "hand": "right"
      },
      {
        "midi": 99,
        "time": 277.25,
        "duration": 0.25,
        "velocity": 0.68,
        "hand": "right"
      },
      {
        "midi": 63,
        "time": 277.5,
        "duration": 0.25,
        "velocity": 0.54,
        "hand": "right"
      },
      {
        "midi": 86,
        "time": 277.5,
        "duration": 0.25,
        "velocity": 0.68,
        "hand": "right"
      },
      {
        "midi": 62,
        "time": 277.75,
        "duration": 0.25,
        "velocity": 0.54,
        "hand": "right"
      },
      {
        "midi": 87,
        "time": 277.75,
        "duration": 0.25,
        "velocity": 0.68,
        "hand": "right"
      },
      {
        "midi": 91,
        "time": 277.75,
        "duration": 0.25,
        "velocity": 0.68,
        "hand": "right"
      },
      {
        "midi": 44,
        "time": 278,
        "duration": 0.25,
        "velocity": 0.54,
        "hand": "left"
      },
      {
        "midi": 50,
        "time": 278,
        "duration": 0.25,
        "velocity": 0.54,
        "hand": "left"
      },
      {
        "midi": 94,
        "time": 278,
        "duration": 0.25,
        "velocity": 0.68,
        "hand": "right"
      },
      {
        "midi": 96,
        "time": 278,
        "duration": 0.25,
        "velocity": 0.68,
        "hand": "right"
      },
      {
        "midi": 51,
        "time": 278.25,
        "duration": 0.25,
        "velocity": 0.54,
        "hand": "left"
      },
      {
        "midi": 91,
        "time": 278.25,
        "duration": 0.25,
        "velocity": 0.68,
        "hand": "right"
      },
      {
        "midi": 92,
        "time": 278.25,
        "duration": 0.25,
        "velocity": 0.68,
        "hand": "right"
      },
      {
        "midi": 52,
        "time": 278.5,
        "duration": 0.25,
        "velocity": 0.54,
        "hand": "left"
      },
      {
        "midi": 84,
        "time": 278.5,
        "duration": 0.25,
        "velocity": 0.68,
        "hand": "right"
      },
      {
        "midi": 89,
        "time": 278.5,
        "duration": 0.25,
        "velocity": 0.68,
        "hand": "right"
      },
      {
        "midi": 53,
        "time": 278.75,
        "duration": 0.25,
        "velocity": 0.54,
        "hand": "left"
      },
      {
        "midi": 79,
        "time": 278.75,
        "duration": 0.25,
        "velocity": 0.68,
        "hand": "right"
      },
      {
        "midi": 80,
        "time": 278.75,
        "duration": 0.25,
        "velocity": 0.68,
        "hand": "right"
      },
      {
        "midi": 55,
        "time": 279,
        "duration": 0.25,
        "velocity": 0.54,
        "hand": "left"
      },
      {
        "midi": 72,
        "time": 279,
        "duration": 0.25,
        "velocity": 0.68,
        "hand": "right"
      },
      {
        "midi": 77,
        "time": 279,
        "duration": 0.25,
        "velocity": 0.68,
        "hand": "right"
      },
      {
        "midi": 56,
        "time": 279.25,
        "duration": 0.25,
        "velocity": 0.54,
        "hand": "left"
      },
      {
        "midi": 67,
        "time": 279.25,
        "duration": 0.25,
        "velocity": 0.68,
        "hand": "right"
      },
      {
        "midi": 68,
        "time": 279.25,
        "duration": 0.25,
        "velocity": 0.68,
        "hand": "right"
      },
      {
        "midi": 60,
        "time": 279.5,
        "duration": 0.25,
        "velocity": 0.54,
        "hand": "right"
      },
      {
        "midi": 65,
        "time": 279.5,
        "duration": 0.25,
        "velocity": 0.68,
        "hand": "right"
      },
      {
        "midi": 88,
        "time": 279.75,
        "duration": 0.25,
        "velocity": 0.68,
        "hand": "right"
      },
      {
        "midi": 89,
        "time": 279.75,
        "duration": 0.25,
        "velocity": 0.68,
        "hand": "right"
      },
      {
        "midi": 43,
        "time": 280,
        "duration": 0.25,
        "velocity": 0.54,
        "hand": "left"
      },
      {
        "midi": 50,
        "time": 280,
        "duration": 0.25,
        "velocity": 0.54,
        "hand": "left"
      },
      {
        "midi": 91,
        "time": 280,
        "duration": 0.25,
        "velocity": 0.68,
        "hand": "right"
      },
      {
        "midi": 94,
        "time": 280,
        "duration": 0.25,
        "velocity": 0.68,
        "hand": "right"
      },
      {
        "midi": 51,
        "time": 280.25,
        "duration": 0.25,
        "velocity": 0.54,
        "hand": "left"
      },
      {
        "midi": 89,
        "time": 280.25,
        "duration": 0.25,
        "velocity": 0.68,
        "hand": "right"
      },
      {
        "midi": 91,
        "time": 280.25,
        "duration": 0.25,
        "velocity": 0.68,
        "hand": "right"
      },
      {
        "midi": 54,
        "time": 280.5,
        "duration": 0.25,
        "velocity": 0.54,
        "hand": "left"
      },
      {
        "midi": 82,
        "time": 280.5,
        "duration": 0.25,
        "velocity": 0.68,
        "hand": "right"
      },
      {
        "midi": 87,
        "time": 280.5,
        "duration": 0.25,
        "velocity": 0.68,
        "hand": "right"
      },
      {
        "midi": 55,
        "time": 280.75,
        "duration": 0.25,
        "velocity": 0.54,
        "hand": "left"
      },
      {
        "midi": 77,
        "time": 280.75,
        "duration": 0.25,
        "velocity": 0.68,
        "hand": "right"
      },
      {
        "midi": 79,
        "time": 280.75,
        "duration": 0.25,
        "velocity": 0.68,
        "hand": "right"
      },
      {
        "midi": 57,
        "time": 281,
        "duration": 0.25,
        "velocity": 0.54,
        "hand": "left"
      },
      {
        "midi": 70,
        "time": 281,
        "duration": 0.25,
        "velocity": 0.68,
        "hand": "right"
      },
      {
        "midi": 75,
        "time": 281,
        "duration": 0.25,
        "velocity": 0.68,
        "hand": "right"
      },
      {
        "midi": 58,
        "time": 281.25,
        "duration": 0.25,
        "velocity": 0.54,
        "hand": "left"
      },
      {
        "midi": 65,
        "time": 281.25,
        "duration": 0.25,
        "velocity": 0.68,
        "hand": "right"
      },
      {
        "midi": 67,
        "time": 281.25,
        "duration": 0.25,
        "velocity": 0.68,
        "hand": "right"
      },
      {
        "midi": 63,
        "time": 281.5,
        "duration": 0.25,
        "velocity": 0.68,
        "hand": "right"
      },
      {
        "midi": 91,
        "time": 281.75,
        "duration": 0.25,
        "velocity": 0.68,
        "hand": "right"
      },
      {
        "midi": 92,
        "time": 281.75,
        "duration": 0.25,
        "velocity": 0.68,
        "hand": "right"
      },
      {
        "midi": 44,
        "time": 282,
        "duration": 0.25,
        "velocity": 0.54,
        "hand": "left"
      },
      {
        "midi": 50,
        "time": 282,
        "duration": 0.25,
        "velocity": 0.54,
        "hand": "left"
      },
      {
        "midi": 94,
        "time": 282,
        "duration": 0.25,
        "velocity": 0.68,
        "hand": "right"
      },
      {
        "midi": 96,
        "time": 282,
        "duration": 0.25,
        "velocity": 0.68,
        "hand": "right"
      },
      {
        "midi": 51,
        "time": 282.25,
        "duration": 0.25,
        "velocity": 0.54,
        "hand": "left"
      },
      {
        "midi": 91,
        "time": 282.25,
        "duration": 0.25,
        "velocity": 0.68,
        "hand": "right"
      },
      {
        "midi": 92,
        "time": 282.25,
        "duration": 0.25,
        "velocity": 0.68,
        "hand": "right"
      },
      {
        "midi": 52,
        "time": 282.5,
        "duration": 0.25,
        "velocity": 0.54,
        "hand": "left"
      },
      {
        "midi": 84,
        "time": 282.5,
        "duration": 0.25,
        "velocity": 0.68,
        "hand": "right"
      },
      {
        "midi": 89,
        "time": 282.5,
        "duration": 0.25,
        "velocity": 0.68,
        "hand": "right"
      },
      {
        "midi": 53,
        "time": 282.75,
        "duration": 0.25,
        "velocity": 0.54,
        "hand": "left"
      },
      {
        "midi": 79,
        "time": 282.75,
        "duration": 0.25,
        "velocity": 0.68,
        "hand": "right"
      },
      {
        "midi": 80,
        "time": 282.75,
        "duration": 0.25,
        "velocity": 0.68,
        "hand": "right"
      },
      {
        "midi": 55,
        "time": 283,
        "duration": 0.25,
        "velocity": 0.54,
        "hand": "left"
      },
      {
        "midi": 72,
        "time": 283,
        "duration": 0.25,
        "velocity": 0.68,
        "hand": "right"
      },
      {
        "midi": 77,
        "time": 283,
        "duration": 0.25,
        "velocity": 0.68,
        "hand": "right"
      },
      {
        "midi": 56,
        "time": 283.25,
        "duration": 0.25,
        "velocity": 0.54,
        "hand": "left"
      },
      {
        "midi": 67,
        "time": 283.25,
        "duration": 0.25,
        "velocity": 0.68,
        "hand": "right"
      },
      {
        "midi": 68,
        "time": 283.25,
        "duration": 0.25,
        "velocity": 0.68,
        "hand": "right"
      },
      {
        "midi": 60,
        "time": 283.5,
        "duration": 0.25,
        "velocity": 0.54,
        "hand": "right"
      },
      {
        "midi": 65,
        "time": 283.5,
        "duration": 0.25,
        "velocity": 0.68,
        "hand": "right"
      },
      {
        "midi": 88,
        "time": 283.75,
        "duration": 0.25,
        "velocity": 0.68,
        "hand": "right"
      },
      {
        "midi": 89,
        "time": 283.75,
        "duration": 0.25,
        "velocity": 0.68,
        "hand": "right"
      },
      {
        "midi": 43,
        "time": 284,
        "duration": 0.25,
        "velocity": 0.54,
        "hand": "left"
      },
      {
        "midi": 50,
        "time": 284,
        "duration": 0.25,
        "velocity": 0.54,
        "hand": "left"
      },
      {
        "midi": 91,
        "time": 284,
        "duration": 0.25,
        "velocity": 0.68,
        "hand": "right"
      },
      {
        "midi": 94,
        "time": 284,
        "duration": 0.25,
        "velocity": 0.68,
        "hand": "right"
      },
      {
        "midi": 51,
        "time": 284.25,
        "duration": 0.25,
        "velocity": 0.54,
        "hand": "left"
      },
      {
        "midi": 89,
        "time": 284.25,
        "duration": 0.25,
        "velocity": 0.68,
        "hand": "right"
      },
      {
        "midi": 91,
        "time": 284.25,
        "duration": 0.25,
        "velocity": 0.68,
        "hand": "right"
      },
      {
        "midi": 54,
        "time": 284.5,
        "duration": 0.25,
        "velocity": 0.54,
        "hand": "left"
      },
      {
        "midi": 82,
        "time": 284.5,
        "duration": 0.25,
        "velocity": 0.68,
        "hand": "right"
      },
      {
        "midi": 87,
        "time": 284.5,
        "duration": 0.25,
        "velocity": 0.68,
        "hand": "right"
      },
      {
        "midi": 55,
        "time": 284.75,
        "duration": 0.25,
        "velocity": 0.54,
        "hand": "left"
      },
      {
        "midi": 77,
        "time": 284.75,
        "duration": 0.25,
        "velocity": 0.68,
        "hand": "right"
      },
      {
        "midi": 79,
        "time": 284.75,
        "duration": 0.25,
        "velocity": 0.68,
        "hand": "right"
      },
      {
        "midi": 57,
        "time": 285,
        "duration": 0.25,
        "velocity": 0.54,
        "hand": "left"
      },
      {
        "midi": 70,
        "time": 285,
        "duration": 0.25,
        "velocity": 0.68,
        "hand": "right"
      },
      {
        "midi": 75,
        "time": 285,
        "duration": 0.25,
        "velocity": 0.68,
        "hand": "right"
      },
      {
        "midi": 58,
        "time": 285.25,
        "duration": 0.25,
        "velocity": 0.54,
        "hand": "left"
      },
      {
        "midi": 65,
        "time": 285.25,
        "duration": 0.25,
        "velocity": 0.68,
        "hand": "right"
      },
      {
        "midi": 67,
        "time": 285.25,
        "duration": 0.25,
        "velocity": 0.68,
        "hand": "right"
      },
      {
        "midi": 63,
        "time": 285.5,
        "duration": 0.25,
        "velocity": 0.68,
        "hand": "right"
      },
      {
        "midi": 58,
        "time": 285.75,
        "duration": 0.25,
        "velocity": 0.54,
        "hand": "left"
      },
      {
        "midi": 67,
        "time": 285.75,
        "duration": 0.25,
        "velocity": 0.54,
        "hand": "right"
      },
      {
        "midi": 44,
        "time": 286,
        "duration": 0.25,
        "velocity": 0.71,
        "hand": "left"
      },
      {
        "midi": 51,
        "time": 286,
        "duration": 0.25,
        "velocity": 0.54,
        "hand": "left"
      },
      {
        "midi": 66,
        "time": 286,
        "duration": 0.25,
        "velocity": 0.54,
        "hand": "right"
      },
      {
        "midi": 52,
        "time": 286.25,
        "duration": 0.25,
        "velocity": 0.55,
        "hand": "left"
      },
      {
        "midi": 60,
        "time": 286.25,
        "duration": 0.25,
        "velocity": 0.54,
        "hand": "right"
      },
      {
        "midi": 67,
        "time": 286.25,
        "duration": 0.25,
        "velocity": 0.54,
        "hand": "right"
      },
      {
        "midi": 72,
        "time": 286.25,
        "duration": 0.25,
        "velocity": 0.54,
        "hand": "right"
      },
      {
        "midi": 44,
        "time": 286.5,
        "duration": 0.25,
        "velocity": 0.71,
        "hand": "left"
      },
      {
        "midi": 51,
        "time": 286.5,
        "duration": 0.25,
        "velocity": 0.56,
        "hand": "left"
      },
      {
        "midi": 66,
        "time": 286.5,
        "duration": 0.25,
        "velocity": 0.54,
        "hand": "right"
      },
      {
        "midi": 52,
        "time": 286.75,
        "duration": 0.25,
        "velocity": 0.57,
        "hand": "left"
      },
      {
        "midi": 60,
        "time": 286.75,
        "duration": 0.25,
        "velocity": 0.54,
        "hand": "right"
      },
      {
        "midi": 67,
        "time": 286.75,
        "duration": 0.25,
        "velocity": 0.54,
        "hand": "right"
      },
      {
        "midi": 72,
        "time": 286.75,
        "duration": 0.25,
        "velocity": 0.54,
        "hand": "right"
      },
      {
        "midi": 44,
        "time": 287,
        "duration": 0.25,
        "velocity": 0.71,
        "hand": "left"
      },
      {
        "midi": 51,
        "time": 287,
        "duration": 0.25,
        "velocity": 0.57,
        "hand": "left"
      },
      {
        "midi": 66,
        "time": 287,
        "duration": 0.25,
        "velocity": 0.54,
        "hand": "right"
      },
      {
        "midi": 52,
        "time": 287.25,
        "duration": 0.25,
        "velocity": 0.58,
        "hand": "left"
      },
      {
        "midi": 60,
        "time": 287.25,
        "duration": 0.25,
        "velocity": 0.54,
        "hand": "right"
      },
      {
        "midi": 67,
        "time": 287.25,
        "duration": 0.25,
        "velocity": 0.54,
        "hand": "right"
      },
      {
        "midi": 72,
        "time": 287.25,
        "duration": 0.25,
        "velocity": 0.54,
        "hand": "right"
      },
      {
        "midi": 44,
        "time": 287.5,
        "duration": 0.25,
        "velocity": 0.71,
        "hand": "left"
      },
      {
        "midi": 49,
        "time": 287.5,
        "duration": 0.25,
        "velocity": 0.59,
        "hand": "left"
      },
      {
        "midi": 64,
        "time": 287.5,
        "duration": 0.25,
        "velocity": 0.54,
        "hand": "right"
      },
      {
        "midi": 50,
        "time": 287.75,
        "duration": 0.25,
        "velocity": 0.6,
        "hand": "left"
      },
      {
        "midi": 58,
        "time": 287.75,
        "duration": 0.25,
        "velocity": 0.54,
        "hand": "left"
      },
      {
        "midi": 65,
        "time": 287.75,
        "duration": 0.25,
        "velocity": 0.54,
        "hand": "right"
      },
      {
        "midi": 70,
        "time": 287.75,
        "duration": 0.25,
        "velocity": 0.54,
        "hand": "right"
      },
      {
        "midi": 43,
        "time": 288,
        "duration": 0.25,
        "velocity": 0.71,
        "hand": "left"
      },
      {
        "midi": 50,
        "time": 288,
        "duration": 0.25,
        "velocity": 0.61,
        "hand": "left"
      },
      {
        "midi": 65,
        "time": 288,
        "duration": 0.25,
        "velocity": 0.54,
        "hand": "right"
      },
      {
        "midi": 51,
        "time": 288.25,
        "duration": 0.25,
        "velocity": 0.61,
        "hand": "left"
      },
      {
        "midi": 58,
        "time": 288.25,
        "duration": 0.25,
        "velocity": 0.54,
        "hand": "left"
      },
      {
        "midi": 67,
        "time": 288.25,
        "duration": 0.25,
        "velocity": 0.54,
        "hand": "right"
      },
      {
        "midi": 70,
        "time": 288.25,
        "duration": 0.25,
        "velocity": 0.54,
        "hand": "right"
      },
      {
        "midi": 43,
        "time": 288.5,
        "duration": 0.25,
        "velocity": 0.71,
        "hand": "left"
      },
      {
        "midi": 50,
        "time": 288.5,
        "duration": 0.25,
        "velocity": 0.62,
        "hand": "left"
      },
      {
        "midi": 65,
        "time": 288.5,
        "duration": 0.25,
        "velocity": 0.54,
        "hand": "right"
      },
      {
        "midi": 51,
        "time": 288.75,
        "duration": 0.25,
        "velocity": 0.63,
        "hand": "left"
      },
      {
        "midi": 58,
        "time": 288.75,
        "duration": 0.25,
        "velocity": 0.54,
        "hand": "left"
      },
      {
        "midi": 67,
        "time": 288.75,
        "duration": 0.25,
        "velocity": 0.54,
        "hand": "right"
      },
      {
        "midi": 70,
        "time": 288.75,
        "duration": 0.25,
        "velocity": 0.54,
        "hand": "right"
      },
      {
        "midi": 43,
        "time": 289,
        "duration": 0.25,
        "velocity": 0.71,
        "hand": "left"
      },
      {
        "midi": 50,
        "time": 289,
        "duration": 0.25,
        "velocity": 0.64,
        "hand": "left"
      },
      {
        "midi": 65,
        "time": 289,
        "duration": 0.25,
        "velocity": 0.54,
        "hand": "right"
      },
      {
        "midi": 51,
        "time": 289.25,
        "duration": 0.25,
        "velocity": 0.65,
        "hand": "left"
      },
      {
        "midi": 58,
        "time": 289.25,
        "duration": 0.25,
        "velocity": 0.54,
        "hand": "left"
      },
      {
        "midi": 67,
        "time": 289.25,
        "duration": 0.25,
        "velocity": 0.54,
        "hand": "right"
      },
      {
        "midi": 70,
        "time": 289.25,
        "duration": 0.25,
        "velocity": 0.54,
        "hand": "right"
      },
      {
        "midi": 43,
        "time": 289.5,
        "duration": 0.25,
        "velocity": 0.71,
        "hand": "left"
      },
      {
        "midi": 47,
        "time": 289.5,
        "duration": 0.25,
        "velocity": 0.65,
        "hand": "left"
      },
      {
        "midi": 62,
        "time": 289.5,
        "duration": 0.25,
        "velocity": 0.54,
        "hand": "right"
      },
      {
        "midi": 48,
        "time": 289.75,
        "duration": 0.25,
        "velocity": 0.66,
        "hand": "left"
      },
      {
        "midi": 55,
        "time": 289.75,
        "duration": 0.25,
        "velocity": 0.54,
        "hand": "left"
      },
      {
        "midi": 63,
        "time": 289.75,
        "duration": 0.25,
        "velocity": 0.54,
        "hand": "right"
      },
      {
        "midi": 67,
        "time": 289.75,
        "duration": 0.25,
        "velocity": 0.54,
        "hand": "right"
      },
      {
        "midi": 44,
        "time": 290,
        "duration": 0.25,
        "velocity": 0.71,
        "hand": "left"
      },
      {
        "midi": 51,
        "time": 290,
        "duration": 0.25,
        "velocity": 0.67,
        "hand": "left"
      },
      {
        "midi": 66,
        "time": 290,
        "duration": 0.25,
        "velocity": 0.54,
        "hand": "right"
      },
      {
        "midi": 52,
        "time": 290.25,
        "duration": 0.25,
        "velocity": 0.68,
        "hand": "left"
      },
      {
        "midi": 60,
        "time": 290.25,
        "duration": 0.25,
        "velocity": 0.54,
        "hand": "right"
      },
      {
        "midi": 67,
        "time": 290.25,
        "duration": 0.25,
        "velocity": 0.54,
        "hand": "right"
      },
      {
        "midi": 72,
        "time": 290.25,
        "duration": 0.25,
        "velocity": 0.54,
        "hand": "right"
      },
      {
        "midi": 44,
        "time": 290.5,
        "duration": 0.25,
        "velocity": 0.71,
        "hand": "left"
      },
      {
        "midi": 51,
        "time": 290.5,
        "duration": 0.25,
        "velocity": 0.69,
        "hand": "left"
      },
      {
        "midi": 66,
        "time": 290.5,
        "duration": 0.25,
        "velocity": 0.54,
        "hand": "right"
      },
      {
        "midi": 52,
        "time": 290.75,
        "duration": 0.25,
        "velocity": 0.69,
        "hand": "left"
      },
      {
        "midi": 60,
        "time": 290.75,
        "duration": 0.25,
        "velocity": 0.54,
        "hand": "right"
      },
      {
        "midi": 67,
        "time": 290.75,
        "duration": 0.25,
        "velocity": 0.54,
        "hand": "right"
      },
      {
        "midi": 72,
        "time": 290.75,
        "duration": 0.25,
        "velocity": 0.54,
        "hand": "right"
      },
      {
        "midi": 44,
        "time": 291,
        "duration": 0.25,
        "velocity": 0.71,
        "hand": "left"
      },
      {
        "midi": 51,
        "time": 291,
        "duration": 0.25,
        "velocity": 0.7,
        "hand": "left"
      },
      {
        "midi": 66,
        "time": 291,
        "duration": 0.25,
        "velocity": 0.54,
        "hand": "right"
      },
      {
        "midi": 52,
        "time": 291.25,
        "duration": 0.25,
        "velocity": 0.71,
        "hand": "left"
      },
      {
        "midi": 60,
        "time": 291.25,
        "duration": 0.25,
        "velocity": 0.54,
        "hand": "right"
      },
      {
        "midi": 67,
        "time": 291.25,
        "duration": 0.25,
        "velocity": 0.54,
        "hand": "right"
      },
      {
        "midi": 72,
        "time": 291.25,
        "duration": 0.25,
        "velocity": 0.54,
        "hand": "right"
      },
      {
        "midi": 44,
        "time": 291.5,
        "duration": 0.25,
        "velocity": 0.71,
        "hand": "left"
      },
      {
        "midi": 49,
        "time": 291.5,
        "duration": 0.25,
        "velocity": 0.72,
        "hand": "left"
      },
      {
        "midi": 64,
        "time": 291.5,
        "duration": 0.25,
        "velocity": 0.54,
        "hand": "right"
      },
      {
        "midi": 50,
        "time": 291.75,
        "duration": 0.25,
        "velocity": 0.72,
        "hand": "left"
      },
      {
        "midi": 58,
        "time": 291.75,
        "duration": 0.25,
        "velocity": 0.54,
        "hand": "left"
      },
      {
        "midi": 65,
        "time": 291.75,
        "duration": 0.25,
        "velocity": 0.54,
        "hand": "right"
      },
      {
        "midi": 70,
        "time": 291.75,
        "duration": 0.25,
        "velocity": 0.54,
        "hand": "right"
      },
      {
        "midi": 43,
        "time": 292,
        "duration": 0.25,
        "velocity": 0.71,
        "hand": "left"
      },
      {
        "midi": 50,
        "time": 292,
        "duration": 0.25,
        "velocity": 0.73,
        "hand": "left"
      },
      {
        "midi": 65,
        "time": 292,
        "duration": 0.25,
        "velocity": 0.54,
        "hand": "right"
      },
      {
        "midi": 51,
        "time": 292.25,
        "duration": 0.25,
        "velocity": 0.74,
        "hand": "left"
      },
      {
        "midi": 58,
        "time": 292.25,
        "duration": 0.25,
        "velocity": 0.54,
        "hand": "left"
      },
      {
        "midi": 67,
        "time": 292.25,
        "duration": 0.25,
        "velocity": 0.54,
        "hand": "right"
      },
      {
        "midi": 70,
        "time": 292.25,
        "duration": 0.25,
        "velocity": 0.54,
        "hand": "right"
      },
      {
        "midi": 43,
        "time": 292.5,
        "duration": 0.25,
        "velocity": 0.71,
        "hand": "left"
      },
      {
        "midi": 50,
        "time": 292.5,
        "duration": 0.25,
        "velocity": 0.75,
        "hand": "left"
      },
      {
        "midi": 65,
        "time": 292.5,
        "duration": 0.25,
        "velocity": 0.54,
        "hand": "right"
      },
      {
        "midi": 51,
        "time": 292.75,
        "duration": 0.25,
        "velocity": 0.76,
        "hand": "left"
      },
      {
        "midi": 58,
        "time": 292.75,
        "duration": 0.25,
        "velocity": 0.54,
        "hand": "left"
      },
      {
        "midi": 67,
        "time": 292.75,
        "duration": 0.25,
        "velocity": 0.54,
        "hand": "right"
      },
      {
        "midi": 70,
        "time": 292.75,
        "duration": 0.25,
        "velocity": 0.54,
        "hand": "right"
      },
      {
        "midi": 43,
        "time": 293,
        "duration": 0.25,
        "velocity": 0.71,
        "hand": "left"
      },
      {
        "midi": 50,
        "time": 293,
        "duration": 0.25,
        "velocity": 0.76,
        "hand": "left"
      },
      {
        "midi": 65,
        "time": 293,
        "duration": 0.25,
        "velocity": 0.54,
        "hand": "right"
      },
      {
        "midi": 51,
        "time": 293.25,
        "duration": 0.25,
        "velocity": 0.77,
        "hand": "left"
      },
      {
        "midi": 58,
        "time": 293.25,
        "duration": 0.25,
        "velocity": 0.54,
        "hand": "left"
      },
      {
        "midi": 67,
        "time": 293.25,
        "duration": 0.25,
        "velocity": 0.54,
        "hand": "right"
      },
      {
        "midi": 70,
        "time": 293.25,
        "duration": 0.25,
        "velocity": 0.54,
        "hand": "right"
      },
      {
        "midi": 43,
        "time": 293.5,
        "duration": 0.25,
        "velocity": 0.71,
        "hand": "left"
      },
      {
        "midi": 47,
        "time": 293.5,
        "duration": 0.25,
        "velocity": 0.78,
        "hand": "left"
      },
      {
        "midi": 62,
        "time": 293.5,
        "duration": 0.25,
        "velocity": 0.54,
        "hand": "right"
      },
      {
        "midi": 48,
        "time": 293.75,
        "duration": 0.25,
        "velocity": 0.79,
        "hand": "left"
      },
      {
        "midi": 55,
        "time": 293.75,
        "duration": 0.25,
        "velocity": 0.54,
        "hand": "left"
      },
      {
        "midi": 63,
        "time": 293.75,
        "duration": 0.25,
        "velocity": 0.54,
        "hand": "right"
      },
      {
        "midi": 67,
        "time": 293.75,
        "duration": 0.25,
        "velocity": 0.54,
        "hand": "right"
      },
      {
        "midi": 32,
        "time": 294,
        "duration": 0.5,
        "velocity": 0.8,
        "hand": "left"
      },
      {
        "midi": 38,
        "time": 294,
        "duration": 0.5,
        "velocity": 0.8,
        "hand": "left"
      },
      {
        "midi": 44,
        "time": 294,
        "duration": 0.5,
        "velocity": 0.8,
        "hand": "left"
      },
      {
        "midi": 60,
        "time": 294.25,
        "duration": 0.5,
        "velocity": 0.54,
        "hand": "right"
      },
      {
        "midi": 72,
        "time": 294.25,
        "duration": 0.5,
        "velocity": 0.54,
        "hand": "right"
      },
      {
        "midi": 44,
        "time": 294.5,
        "duration": 0.5,
        "velocity": 0.8,
        "hand": "left"
      },
      {
        "midi": 50,
        "time": 294.5,
        "duration": 0.5,
        "velocity": 0.8,
        "hand": "left"
      },
      {
        "midi": 56,
        "time": 294.5,
        "duration": 0.5,
        "velocity": 0.8,
        "hand": "left"
      },
      {
        "midi": 72,
        "time": 294.75,
        "duration": 0.75,
        "velocity": 0.54,
        "hand": "right"
      },
      {
        "midi": 84,
        "time": 294.75,
        "duration": 0.75,
        "velocity": 0.54,
        "hand": "right"
      },
      {
        "midi": 56,
        "time": 295,
        "duration": 1,
        "velocity": 0.8,
        "hand": "left"
      },
      {
        "midi": 62,
        "time": 295,
        "duration": 1,
        "velocity": 0.8,
        "hand": "right"
      },
      {
        "midi": 68,
        "time": 295,
        "duration": 1,
        "velocity": 0.8,
        "hand": "right"
      },
      {
        "midi": 67,
        "time": 295.5,
        "duration": 0.25,
        "velocity": 0.54,
        "hand": "right"
      },
      {
        "midi": 68,
        "time": 295.5,
        "duration": 0.25,
        "velocity": 0.54,
        "hand": "right"
      },
      {
        "midi": 79,
        "time": 295.5,
        "duration": 0.25,
        "velocity": 0.54,
        "hand": "right"
      },
      {
        "midi": 80,
        "time": 295.5,
        "duration": 0.25,
        "velocity": 0.54,
        "hand": "right"
      },
      {
        "midi": 65,
        "time": 295.75,
        "duration": 0.25,
        "velocity": 0.54,
        "hand": "right"
      },
      {
        "midi": 77,
        "time": 295.75,
        "duration": 0.25,
        "velocity": 0.54,
        "hand": "right"
      },
      {
        "midi": 31,
        "time": 296,
        "duration": 0.5,
        "velocity": 0.8,
        "hand": "left"
      },
      {
        "midi": 39,
        "time": 296,
        "duration": 0.5,
        "velocity": 0.8,
        "hand": "left"
      },
      {
        "midi": 43,
        "time": 296,
        "duration": 0.5,
        "velocity": 0.8,
        "hand": "left"
      },
      {
        "midi": 58,
        "time": 296.25,
        "duration": 0.5,
        "velocity": 0.54,
        "hand": "left"
      },
      {
        "midi": 70,
        "time": 296.25,
        "duration": 0.5,
        "velocity": 0.54,
        "hand": "right"
      },
      {
        "midi": 43,
        "time": 296.5,
        "duration": 0.5,
        "velocity": 0.8,
        "hand": "left"
      },
      {
        "midi": 51,
        "time": 296.5,
        "duration": 0.5,
        "velocity": 0.8,
        "hand": "left"
      },
      {
        "midi": 55,
        "time": 296.5,
        "duration": 0.5,
        "velocity": 0.8,
        "hand": "left"
      },
      {
        "midi": 70,
        "time": 296.75,
        "duration": 0.75,
        "velocity": 0.54,
        "hand": "right"
      },
      {
        "midi": 82,
        "time": 296.75,
        "duration": 0.75,
        "velocity": 0.54,
        "hand": "right"
      },
      {
        "midi": 55,
        "time": 297,
        "duration": 1,
        "velocity": 0.8,
        "hand": "left"
      },
      {
        "midi": 63,
        "time": 297,
        "duration": 1,
        "velocity": 0.8,
        "hand": "right"
      },
      {
        "midi": 67,
        "time": 297,
        "duration": 1,
        "velocity": 0.8,
        "hand": "right"
      },
      {
        "midi": 65,
        "time": 297.5,
        "duration": 0.25,
        "velocity": 0.54,
        "hand": "right"
      },
      {
        "midi": 67,
        "time": 297.5,
        "duration": 0.25,
        "velocity": 0.54,
        "hand": "right"
      },
      {
        "midi": 77,
        "time": 297.5,
        "duration": 0.25,
        "velocity": 0.54,
        "hand": "right"
      },
      {
        "midi": 79,
        "time": 297.5,
        "duration": 0.25,
        "velocity": 0.54,
        "hand": "right"
      },
      {
        "midi": 63,
        "time": 297.75,
        "duration": 0.25,
        "velocity": 0.54,
        "hand": "right"
      },
      {
        "midi": 75,
        "time": 297.75,
        "duration": 0.25,
        "velocity": 0.54,
        "hand": "right"
      },
      {
        "midi": 32,
        "time": 298,
        "duration": 0.5,
        "velocity": 0.8,
        "hand": "left"
      },
      {
        "midi": 38,
        "time": 298,
        "duration": 0.5,
        "velocity": 0.8,
        "hand": "left"
      },
      {
        "midi": 44,
        "time": 298,
        "duration": 0.5,
        "velocity": 0.8,
        "hand": "left"
      },
      {
        "midi": 60,
        "time": 298.25,
        "duration": 0.5,
        "velocity": 0.54,
        "hand": "right"
      },
      {
        "midi": 72,
        "time": 298.25,
        "duration": 0.5,
        "velocity": 0.54,
        "hand": "right"
      },
      {
        "midi": 44,
        "time": 298.5,
        "duration": 0.5,
        "velocity": 0.8,
        "hand": "left"
      },
      {
        "midi": 50,
        "time": 298.5,
        "duration": 0.5,
        "velocity": 0.8,
        "hand": "left"
      },
      {
        "midi": 56,
        "time": 298.5,
        "duration": 0.5,
        "velocity": 0.8,
        "hand": "left"
      },
      {
        "midi": 72,
        "time": 298.75,
        "duration": 0.75,
        "velocity": 0.54,
        "hand": "right"
      },
      {
        "midi": 84,
        "time": 298.75,
        "duration": 0.75,
        "velocity": 0.54,
        "hand": "right"
      },
      {
        "midi": 56,
        "time": 299,
        "duration": 1,
        "velocity": 0.8,
        "hand": "left"
      },
      {
        "midi": 62,
        "time": 299,
        "duration": 1,
        "velocity": 0.8,
        "hand": "right"
      },
      {
        "midi": 68,
        "time": 299,
        "duration": 1,
        "velocity": 0.8,
        "hand": "right"
      },
      {
        "midi": 67,
        "time": 299.5,
        "duration": 0.25,
        "velocity": 0.54,
        "hand": "right"
      },
      {
        "midi": 68,
        "time": 299.5,
        "duration": 0.25,
        "velocity": 0.54,
        "hand": "right"
      },
      {
        "midi": 79,
        "time": 299.5,
        "duration": 0.25,
        "velocity": 0.54,
        "hand": "right"
      },
      {
        "midi": 80,
        "time": 299.5,
        "duration": 0.25,
        "velocity": 0.54,
        "hand": "right"
      },
      {
        "midi": 65,
        "time": 299.75,
        "duration": 0.25,
        "velocity": 0.54,
        "hand": "right"
      },
      {
        "midi": 77,
        "time": 299.75,
        "duration": 0.25,
        "velocity": 0.54,
        "hand": "right"
      },
      {
        "midi": 31,
        "time": 300,
        "duration": 0.5,
        "velocity": 0.8,
        "hand": "left"
      },
      {
        "midi": 39,
        "time": 300,
        "duration": 0.5,
        "velocity": 0.8,
        "hand": "left"
      },
      {
        "midi": 43,
        "time": 300,
        "duration": 0.5,
        "velocity": 0.8,
        "hand": "left"
      },
      {
        "midi": 58,
        "time": 300.25,
        "duration": 0.5,
        "velocity": 0.54,
        "hand": "left"
      },
      {
        "midi": 70,
        "time": 300.25,
        "duration": 0.5,
        "velocity": 0.54,
        "hand": "right"
      },
      {
        "midi": 43,
        "time": 300.5,
        "duration": 0.5,
        "velocity": 0.8,
        "hand": "left"
      },
      {
        "midi": 51,
        "time": 300.5,
        "duration": 0.5,
        "velocity": 0.8,
        "hand": "left"
      },
      {
        "midi": 55,
        "time": 300.5,
        "duration": 0.5,
        "velocity": 0.8,
        "hand": "left"
      },
      {
        "midi": 70,
        "time": 300.75,
        "duration": 0.75,
        "velocity": 0.54,
        "hand": "right"
      },
      {
        "midi": 82,
        "time": 300.75,
        "duration": 0.75,
        "velocity": 0.54,
        "hand": "right"
      },
      {
        "midi": 55,
        "time": 301,
        "duration": 0.5,
        "velocity": 0.8,
        "hand": "left"
      },
      {
        "midi": 63,
        "time": 301,
        "duration": 0.5,
        "velocity": 0.8,
        "hand": "right"
      },
      {
        "midi": 67,
        "time": 301,
        "duration": 0.5,
        "velocity": 0.8,
        "hand": "right"
      },
      {
        "midi": 51,
        "time": 301.5,
        "duration": 0.25,
        "velocity": 0.8,
        "hand": "left"
      },
      {
        "midi": 55,
        "time": 301.5,
        "duration": 0.25,
        "velocity": 0.8,
        "hand": "left"
      },
      {
        "midi": 65,
        "time": 301.5,
        "duration": 0.25,
        "velocity": 0.54,
        "hand": "right"
      },
      {
        "midi": 67,
        "time": 301.5,
        "duration": 0.25,
        "velocity": 0.54,
        "hand": "right"
      },
      {
        "midi": 77,
        "time": 301.5,
        "duration": 0.25,
        "velocity": 0.54,
        "hand": "right"
      },
      {
        "midi": 79,
        "time": 301.5,
        "duration": 0.25,
        "velocity": 0.54,
        "hand": "right"
      },
      {
        "midi": 55,
        "time": 301.75,
        "duration": 0.25,
        "velocity": 0.8,
        "hand": "left"
      },
      {
        "midi": 58,
        "time": 301.75,
        "duration": 0.25,
        "velocity": 0.8,
        "hand": "left"
      },
      {
        "midi": 63,
        "time": 301.75,
        "duration": 0.25,
        "velocity": 0.54,
        "hand": "right"
      },
      {
        "midi": 75,
        "time": 301.75,
        "duration": 0.25,
        "velocity": 0.54,
        "hand": "right"
      },
      {
        "midi": 56,
        "time": 302,
        "duration": 0.5,
        "velocity": 0.84,
        "hand": "left"
      },
      {
        "midi": 60,
        "time": 302,
        "duration": 0.5,
        "velocity": 0.84,
        "hand": "right"
      },
      {
        "midi": 62,
        "time": 302.25,
        "duration": 0.25,
        "velocity": 0.54,
        "hand": "right"
      },
      {
        "midi": 44,
        "time": 302.5,
        "duration": 1,
        "velocity": 1,
        "hand": "left"
      },
      {
        "midi": 48,
        "time": 302.5,
        "duration": 1,
        "velocity": 1,
        "hand": "left"
      },
      {
        "midi": 53,
        "time": 302.5,
        "duration": 1,
        "velocity": 1,
        "hand": "left"
      },
      {
        "midi": 64,
        "time": 302.5,
        "duration": 0.25,
        "velocity": 0.54,
        "hand": "right"
      },
      {
        "midi": 65,
        "time": 302.5,
        "duration": 0.125,
        "velocity": 0.54,
        "hand": "right"
      },
      {
        "midi": 67,
        "time": 302.5,
        "duration": 0.125,
        "velocity": 0.54,
        "hand": "right"
      },
      {
        "midi": 68,
        "time": 302.75,
        "duration": 0.125,
        "velocity": 0.54,
        "hand": "right"
      },
      {
        "midi": 70,
        "time": 302.75,
        "duration": 0.125,
        "velocity": 0.54,
        "hand": "right"
      },
      {
        "midi": 72,
        "time": 303,
        "duration": 0.125,
        "velocity": 0.54,
        "hand": "right"
      },
      {
        "midi": 74,
        "time": 303,
        "duration": 0.125,
        "velocity": 0.54,
        "hand": "right"
      },
      {
        "midi": 76,
        "time": 303,
        "duration": 0.125,
        "velocity": 0.54,
        "hand": "right"
      },
      {
        "midi": 77,
        "time": 303.25,
        "duration": 0.125,
        "velocity": 0.54,
        "hand": "right"
      },
      {
        "midi": 79,
        "time": 303.25,
        "duration": 0.125,
        "velocity": 0.54,
        "hand": "right"
      },
      {
        "midi": 80,
        "time": 303.25,
        "duration": 0.125,
        "velocity": 0.54,
        "hand": "right"
      },
      {
        "midi": 50,
        "time": 303.5,
        "duration": 0.25,
        "velocity": 1,
        "hand": "left"
      },
      {
        "midi": 53,
        "time": 303.5,
        "duration": 0.25,
        "velocity": 1,
        "hand": "left"
      },
      {
        "midi": 82,
        "time": 303.5,
        "duration": 0.125,
        "velocity": 0.54,
        "hand": "right"
      },
      {
        "midi": 84,
        "time": 303.5,
        "duration": 0.5,
        "velocity": 0.54,
        "hand": "right"
      },
      {
        "midi": 53,
        "time": 303.75,
        "duration": 0.25,
        "velocity": 1,
        "hand": "left"
      },
      {
        "midi": 56,
        "time": 303.75,
        "duration": 0.25,
        "velocity": 1,
        "hand": "left"
      },
      {
        "midi": 55,
        "time": 304,
        "duration": 0.5,
        "velocity": 1,
        "hand": "left"
      },
      {
        "midi": 58,
        "time": 304,
        "duration": 0.5,
        "velocity": 1,
        "hand": "left"
      },
      {
        "midi": 60,
        "time": 304.25,
        "duration": 0.25,
        "velocity": 0.54,
        "hand": "right"
      },
      {
        "midi": 43,
        "time": 304.5,
        "duration": 1,
        "velocity": 1,
        "hand": "left"
      },
      {
        "midi": 46,
        "time": 304.5,
        "duration": 1,
        "velocity": 1,
        "hand": "left"
      },
      {
        "midi": 51,
        "time": 304.5,
        "duration": 1,
        "velocity": 1,
        "hand": "left"
      },
      {
        "midi": 62,
        "time": 304.5,
        "duration": 0.25,
        "velocity": 0.54,
        "hand": "right"
      },
      {
        "midi": 63,
        "time": 304.5,
        "duration": 0.125,
        "velocity": 0.54,
        "hand": "right"
      },
      {
        "midi": 65,
        "time": 304.5,
        "duration": 0.125,
        "velocity": 0.54,
        "hand": "right"
      },
      {
        "midi": 67,
        "time": 304.75,
        "duration": 0.125,
        "velocity": 0.54,
        "hand": "right"
      },
      {
        "midi": 68,
        "time": 304.75,
        "duration": 0.125,
        "velocity": 0.54,
        "hand": "right"
      },
      {
        "midi": 70,
        "time": 305,
        "duration": 0.125,
        "velocity": 0.54,
        "hand": "right"
      },
      {
        "midi": 72,
        "time": 305,
        "duration": 0.125,
        "velocity": 0.54,
        "hand": "right"
      },
      {
        "midi": 74,
        "time": 305,
        "duration": 0.125,
        "velocity": 0.54,
        "hand": "right"
      },
      {
        "midi": 75,
        "time": 305.25,
        "duration": 0.125,
        "velocity": 0.54,
        "hand": "right"
      },
      {
        "midi": 77,
        "time": 305.25,
        "duration": 0.125,
        "velocity": 0.54,
        "hand": "right"
      },
      {
        "midi": 79,
        "time": 305.25,
        "duration": 0.125,
        "velocity": 0.54,
        "hand": "right"
      },
      {
        "midi": 51,
        "time": 305.5,
        "duration": 0.25,
        "velocity": 1,
        "hand": "left"
      },
      {
        "midi": 55,
        "time": 305.5,
        "duration": 0.25,
        "velocity": 1,
        "hand": "left"
      },
      {
        "midi": 80,
        "time": 305.5,
        "duration": 0.125,
        "velocity": 0.54,
        "hand": "right"
      },
      {
        "midi": 82,
        "time": 305.5,
        "duration": 0.5,
        "velocity": 0.54,
        "hand": "right"
      },
      {
        "midi": 55,
        "time": 305.75,
        "duration": 0.25,
        "velocity": 1,
        "hand": "left"
      },
      {
        "midi": 58,
        "time": 305.75,
        "duration": 0.25,
        "velocity": 1,
        "hand": "left"
      },
      {
        "midi": 56,
        "time": 306,
        "duration": 0.5,
        "velocity": 1,
        "hand": "left"
      },
      {
        "midi": 60,
        "time": 306,
        "duration": 0.5,
        "velocity": 1,
        "hand": "right"
      },
      {
        "midi": 62,
        "time": 306.25,
        "duration": 0.25,
        "velocity": 0.54,
        "hand": "right"
      },
      {
        "midi": 44,
        "time": 306.5,
        "duration": 1,
        "velocity": 1,
        "hand": "left"
      },
      {
        "midi": 48,
        "time": 306.5,
        "duration": 1,
        "velocity": 1,
        "hand": "left"
      },
      {
        "midi": 53,
        "time": 306.5,
        "duration": 1,
        "velocity": 1,
        "hand": "left"
      },
      {
        "midi": 64,
        "time": 306.5,
        "duration": 0.25,
        "velocity": 0.54,
        "hand": "right"
      },
      {
        "midi": 65,
        "time": 306.5,
        "duration": 0.125,
        "velocity": 0.54,
        "hand": "right"
      },
      {
        "midi": 67,
        "time": 306.5,
        "duration": 0.125,
        "velocity": 0.54,
        "hand": "right"
      },
      {
        "midi": 68,
        "time": 306.75,
        "duration": 0.125,
        "velocity": 0.54,
        "hand": "right"
      },
      {
        "midi": 70,
        "time": 306.75,
        "duration": 0.125,
        "velocity": 0.54,
        "hand": "right"
      },
      {
        "midi": 72,
        "time": 307,
        "duration": 0.125,
        "velocity": 0.54,
        "hand": "right"
      },
      {
        "midi": 74,
        "time": 307,
        "duration": 0.125,
        "velocity": 0.54,
        "hand": "right"
      },
      {
        "midi": 76,
        "time": 307,
        "duration": 0.125,
        "velocity": 0.54,
        "hand": "right"
      },
      {
        "midi": 77,
        "time": 307.25,
        "duration": 0.125,
        "velocity": 0.54,
        "hand": "right"
      },
      {
        "midi": 79,
        "time": 307.25,
        "duration": 0.125,
        "velocity": 0.54,
        "hand": "right"
      },
      {
        "midi": 80,
        "time": 307.25,
        "duration": 0.125,
        "velocity": 0.54,
        "hand": "right"
      },
      {
        "midi": 50,
        "time": 307.5,
        "duration": 0.25,
        "velocity": 1,
        "hand": "left"
      },
      {
        "midi": 53,
        "time": 307.5,
        "duration": 0.25,
        "velocity": 1,
        "hand": "left"
      },
      {
        "midi": 82,
        "time": 307.5,
        "duration": 0.125,
        "velocity": 0.54,
        "hand": "right"
      },
      {
        "midi": 84,
        "time": 307.5,
        "duration": 0.5,
        "velocity": 0.54,
        "hand": "right"
      },
      {
        "midi": 53,
        "time": 307.75,
        "duration": 0.25,
        "velocity": 1,
        "hand": "left"
      },
      {
        "midi": 56,
        "time": 307.75,
        "duration": 0.25,
        "velocity": 1,
        "hand": "left"
      },
      {
        "midi": 55,
        "time": 308,
        "duration": 0.5,
        "velocity": 1,
        "hand": "left"
      },
      {
        "midi": 58,
        "time": 308,
        "duration": 0.5,
        "velocity": 1,
        "hand": "left"
      },
      {
        "midi": 60,
        "time": 308.25,
        "duration": 0.25,
        "velocity": 0.54,
        "hand": "right"
      },
      {
        "midi": 43,
        "time": 308.5,
        "duration": 1,
        "velocity": 1,
        "hand": "left"
      },
      {
        "midi": 46,
        "time": 308.5,
        "duration": 1,
        "velocity": 1,
        "hand": "left"
      },
      {
        "midi": 51,
        "time": 308.5,
        "duration": 1,
        "velocity": 1,
        "hand": "left"
      },
      {
        "midi": 62,
        "time": 308.5,
        "duration": 0.25,
        "velocity": 0.54,
        "hand": "right"
      },
      {
        "midi": 63,
        "time": 308.5,
        "duration": 0.125,
        "velocity": 0.54,
        "hand": "right"
      },
      {
        "midi": 65,
        "time": 308.5,
        "duration": 0.125,
        "velocity": 0.54,
        "hand": "right"
      },
      {
        "midi": 67,
        "time": 308.75,
        "duration": 0.125,
        "velocity": 0.54,
        "hand": "right"
      },
      {
        "midi": 68,
        "time": 308.75,
        "duration": 0.125,
        "velocity": 0.54,
        "hand": "right"
      },
      {
        "midi": 70,
        "time": 309,
        "duration": 0.125,
        "velocity": 0.54,
        "hand": "right"
      },
      {
        "midi": 72,
        "time": 309,
        "duration": 0.125,
        "velocity": 0.54,
        "hand": "right"
      },
      {
        "midi": 74,
        "time": 309,
        "duration": 0.125,
        "velocity": 0.54,
        "hand": "right"
      },
      {
        "midi": 75,
        "time": 309.25,
        "duration": 0.125,
        "velocity": 0.54,
        "hand": "right"
      },
      {
        "midi": 77,
        "time": 309.25,
        "duration": 0.125,
        "velocity": 0.54,
        "hand": "right"
      },
      {
        "midi": 79,
        "time": 309.25,
        "duration": 0.125,
        "velocity": 0.54,
        "hand": "right"
      },
      {
        "midi": 67,
        "time": 309.5,
        "duration": 0.25,
        "velocity": 1,
        "hand": "right"
      },
      {
        "midi": 70,
        "time": 309.5,
        "duration": 0.25,
        "velocity": 1,
        "hand": "right"
      },
      {
        "midi": 75,
        "time": 309.5,
        "duration": 0.25,
        "velocity": 1,
        "hand": "right"
      },
      {
        "midi": 80,
        "time": 309.5,
        "duration": 0.125,
        "velocity": 0.54,
        "hand": "right"
      },
      {
        "midi": 82,
        "time": 309.5,
        "duration": 0.25,
        "velocity": 0.54,
        "hand": "right"
      },
      {
        "midi": 67,
        "time": 309.75,
        "duration": 0.25,
        "velocity": 1,
        "hand": "right"
      },
      {
        "midi": 70,
        "time": 309.75,
        "duration": 0.25,
        "velocity": 1,
        "hand": "right"
      },
      {
        "midi": 75,
        "time": 309.75,
        "duration": 0.25,
        "velocity": 1,
        "hand": "right"
      },
      {
        "midi": 82,
        "time": 309.75,
        "duration": 0.25,
        "velocity": 0.54,
        "hand": "right"
      },
      {
        "midi": 84,
        "time": 309.75,
        "duration": 0.25,
        "velocity": 0.54,
        "hand": "right"
      },
      {
        "midi": 67,
        "time": 310,
        "duration": 0.25,
        "velocity": 0.71,
        "hand": "right"
      },
      {
        "midi": 70,
        "time": 310,
        "duration": 0.25,
        "velocity": 0.71,
        "hand": "right"
      },
      {
        "midi": 74,
        "time": 310,
        "duration": 0.25,
        "velocity": 0.71,
        "hand": "right"
      },
      {
        "midi": 79,
        "time": 310,
        "duration": 0.25,
        "velocity": 0.71,
        "hand": "right"
      },
      {
        "midi": 82,
        "time": 310,
        "duration": 0.25,
        "velocity": 0.71,
        "hand": "right"
      },
      {
        "midi": 86,
        "time": 310,
        "duration": 0.5,
        "velocity": 0.71,
        "hand": "right"
      },
      {
        "midi": 67,
        "time": 310.25,
        "duration": 0.25,
        "velocity": 0.71,
        "hand": "right"
      },
      {
        "midi": 70,
        "time": 310.25,
        "duration": 0.25,
        "velocity": 0.71,
        "hand": "right"
      },
      {
        "midi": 74,
        "time": 310.25,
        "duration": 0.25,
        "velocity": 0.71,
        "hand": "right"
      },
      {
        "midi": 79,
        "time": 310.25,
        "duration": 0.25,
        "velocity": 0.71,
        "hand": "right"
      },
      {
        "midi": 82,
        "time": 310.25,
        "duration": 0.25,
        "velocity": 0.71,
        "hand": "right"
      },
      {
        "midi": 67,
        "time": 310.5,
        "duration": 0.25,
        "velocity": 0.71,
        "hand": "right"
      },
      {
        "midi": 70,
        "time": 310.5,
        "duration": 0.25,
        "velocity": 0.71,
        "hand": "right"
      },
      {
        "midi": 74,
        "time": 310.5,
        "duration": 0.25,
        "velocity": 0.71,
        "hand": "right"
      },
      {
        "midi": 79,
        "time": 310.5,
        "duration": 0.25,
        "velocity": 0.71,
        "hand": "right"
      },
      {
        "midi": 82,
        "time": 310.5,
        "duration": 0.25,
        "velocity": 0.71,
        "hand": "right"
      },
      {
        "midi": 86,
        "time": 310.5,
        "duration": 1,
        "velocity": 0.71,
        "hand": "right"
      },
      {
        "midi": 67,
        "time": 310.75,
        "duration": 0.25,
        "velocity": 0.71,
        "hand": "right"
      },
      {
        "midi": 70,
        "time": 310.75,
        "duration": 0.25,
        "velocity": 0.71,
        "hand": "right"
      },
      {
        "midi": 74,
        "time": 310.75,
        "duration": 0.25,
        "velocity": 0.71,
        "hand": "right"
      },
      {
        "midi": 79,
        "time": 310.75,
        "duration": 0.25,
        "velocity": 0.71,
        "hand": "right"
      },
      {
        "midi": 82,
        "time": 310.75,
        "duration": 0.25,
        "velocity": 0.71,
        "hand": "right"
      },
      {
        "midi": 67,
        "time": 311,
        "duration": 0.25,
        "velocity": 0.71,
        "hand": "right"
      },
      {
        "midi": 70,
        "time": 311,
        "duration": 0.25,
        "velocity": 0.71,
        "hand": "right"
      },
      {
        "midi": 74,
        "time": 311,
        "duration": 0.25,
        "velocity": 0.71,
        "hand": "right"
      },
      {
        "midi": 79,
        "time": 311,
        "duration": 0.25,
        "velocity": 0.71,
        "hand": "right"
      },
      {
        "midi": 82,
        "time": 311,
        "duration": 0.25,
        "velocity": 0.71,
        "hand": "right"
      },
      {
        "midi": 67,
        "time": 311.25,
        "duration": 0.25,
        "velocity": 0.71,
        "hand": "right"
      },
      {
        "midi": 70,
        "time": 311.25,
        "duration": 0.25,
        "velocity": 0.71,
        "hand": "right"
      },
      {
        "midi": 74,
        "time": 311.25,
        "duration": 0.25,
        "velocity": 0.71,
        "hand": "right"
      },
      {
        "midi": 79,
        "time": 311.25,
        "duration": 0.25,
        "velocity": 0.71,
        "hand": "right"
      },
      {
        "midi": 82,
        "time": 311.25,
        "duration": 0.25,
        "velocity": 0.71,
        "hand": "right"
      },
      {
        "midi": 63,
        "time": 311.5,
        "duration": 0.25,
        "velocity": 0.71,
        "hand": "right"
      },
      {
        "midi": 67,
        "time": 311.5,
        "duration": 0.25,
        "velocity": 0.71,
        "hand": "right"
      },
      {
        "midi": 72,
        "time": 311.5,
        "duration": 0.25,
        "velocity": 0.71,
        "hand": "right"
      },
      {
        "midi": 79,
        "time": 311.5,
        "duration": 0.25,
        "velocity": 0.71,
        "hand": "right"
      },
      {
        "midi": 84,
        "time": 311.5,
        "duration": 0.25,
        "velocity": 0.71,
        "hand": "right"
      },
      {
        "midi": 63,
        "time": 311.75,
        "duration": 0.25,
        "velocity": 0.71,
        "hand": "right"
      },
      {
        "midi": 67,
        "time": 311.75,
        "duration": 0.25,
        "velocity": 0.71,
        "hand": "right"
      },
      {
        "midi": 72,
        "time": 311.75,
        "duration": 0.25,
        "velocity": 0.71,
        "hand": "right"
      },
      {
        "midi": 79,
        "time": 311.75,
        "duration": 0.25,
        "velocity": 0.71,
        "hand": "right"
      },
      {
        "midi": 84,
        "time": 311.75,
        "duration": 0.25,
        "velocity": 0.71,
        "hand": "right"
      },
      {
        "midi": 86,
        "time": 311.75,
        "duration": 0.25,
        "velocity": 0.71,
        "hand": "right"
      },
      {
        "midi": 67,
        "time": 312,
        "duration": 0.25,
        "velocity": 0.71,
        "hand": "right"
      },
      {
        "midi": 70,
        "time": 312,
        "duration": 0.25,
        "velocity": 0.71,
        "hand": "right"
      },
      {
        "midi": 74,
        "time": 312,
        "duration": 0.25,
        "velocity": 0.71,
        "hand": "right"
      },
      {
        "midi": 79,
        "time": 312,
        "duration": 0.25,
        "velocity": 0.71,
        "hand": "right"
      },
      {
        "midi": 82,
        "time": 312,
        "duration": 0.25,
        "velocity": 0.71,
        "hand": "right"
      },
      {
        "midi": 86,
        "time": 312,
        "duration": 0.5,
        "velocity": 0.71,
        "hand": "right"
      },
      {
        "midi": 91,
        "time": 312,
        "duration": 0.25,
        "velocity": 0.71,
        "hand": "right"
      },
      {
        "midi": 67,
        "time": 312.25,
        "duration": 0.25,
        "velocity": 0.71,
        "hand": "right"
      },
      {
        "midi": 70,
        "time": 312.25,
        "duration": 0.25,
        "velocity": 0.71,
        "hand": "right"
      },
      {
        "midi": 74,
        "time": 312.25,
        "duration": 0.25,
        "velocity": 0.71,
        "hand": "right"
      },
      {
        "midi": 79,
        "time": 312.25,
        "duration": 0.25,
        "velocity": 0.71,
        "hand": "right"
      },
      {
        "midi": 82,
        "time": 312.25,
        "duration": 0.25,
        "velocity": 0.71,
        "hand": "right"
      },
      {
        "midi": 67,
        "time": 312.5,
        "duration": 0.25,
        "velocity": 0.71,
        "hand": "right"
      },
      {
        "midi": 70,
        "time": 312.5,
        "duration": 0.25,
        "velocity": 0.71,
        "hand": "right"
      },
      {
        "midi": 74,
        "time": 312.5,
        "duration": 0.25,
        "velocity": 0.71,
        "hand": "right"
      },
      {
        "midi": 79,
        "time": 312.5,
        "duration": 0.25,
        "velocity": 0.71,
        "hand": "right"
      },
      {
        "midi": 82,
        "time": 312.5,
        "duration": 0.25,
        "velocity": 0.71,
        "hand": "right"
      },
      {
        "midi": 86,
        "time": 312.5,
        "duration": 1,
        "velocity": 0.71,
        "hand": "right"
      },
      {
        "midi": 67,
        "time": 312.75,
        "duration": 0.25,
        "velocity": 0.71,
        "hand": "right"
      },
      {
        "midi": 70,
        "time": 312.75,
        "duration": 0.25,
        "velocity": 0.71,
        "hand": "right"
      },
      {
        "midi": 74,
        "time": 312.75,
        "duration": 0.25,
        "velocity": 0.71,
        "hand": "right"
      },
      {
        "midi": 79,
        "time": 312.75,
        "duration": 0.25,
        "velocity": 0.71,
        "hand": "right"
      },
      {
        "midi": 82,
        "time": 312.75,
        "duration": 0.25,
        "velocity": 0.71,
        "hand": "right"
      },
      {
        "midi": 67,
        "time": 313,
        "duration": 0.25,
        "velocity": 0.71,
        "hand": "right"
      },
      {
        "midi": 70,
        "time": 313,
        "duration": 0.25,
        "velocity": 0.71,
        "hand": "right"
      },
      {
        "midi": 74,
        "time": 313,
        "duration": 0.25,
        "velocity": 0.71,
        "hand": "right"
      },
      {
        "midi": 79,
        "time": 313,
        "duration": 0.25,
        "velocity": 0.71,
        "hand": "right"
      },
      {
        "midi": 82,
        "time": 313,
        "duration": 0.25,
        "velocity": 0.71,
        "hand": "right"
      },
      {
        "midi": 67,
        "time": 313.25,
        "duration": 0.25,
        "velocity": 0.71,
        "hand": "right"
      },
      {
        "midi": 70,
        "time": 313.25,
        "duration": 0.25,
        "velocity": 0.71,
        "hand": "right"
      },
      {
        "midi": 74,
        "time": 313.25,
        "duration": 0.25,
        "velocity": 0.71,
        "hand": "right"
      },
      {
        "midi": 79,
        "time": 313.25,
        "duration": 0.25,
        "velocity": 0.71,
        "hand": "right"
      },
      {
        "midi": 82,
        "time": 313.25,
        "duration": 0.25,
        "velocity": 0.71,
        "hand": "right"
      },
      {
        "midi": 63,
        "time": 313.5,
        "duration": 0.25,
        "velocity": 0.71,
        "hand": "right"
      },
      {
        "midi": 67,
        "time": 313.5,
        "duration": 0.25,
        "velocity": 0.71,
        "hand": "right"
      },
      {
        "midi": 72,
        "time": 313.5,
        "duration": 0.25,
        "velocity": 0.71,
        "hand": "right"
      },
      {
        "midi": 79,
        "time": 313.5,
        "duration": 0.25,
        "velocity": 0.71,
        "hand": "right"
      },
      {
        "midi": 84,
        "time": 313.5,
        "duration": 0.25,
        "velocity": 0.71,
        "hand": "right"
      },
      {
        "midi": 63,
        "time": 313.75,
        "duration": 0.25,
        "velocity": 0.71,
        "hand": "right"
      },
      {
        "midi": 67,
        "time": 313.75,
        "duration": 0.25,
        "velocity": 0.71,
        "hand": "right"
      },
      {
        "midi": 72,
        "time": 313.75,
        "duration": 0.25,
        "velocity": 0.71,
        "hand": "right"
      },
      {
        "midi": 79,
        "time": 313.75,
        "duration": 0.25,
        "velocity": 0.71,
        "hand": "right"
      },
      {
        "midi": 84,
        "time": 313.75,
        "duration": 0.25,
        "velocity": 0.71,
        "hand": "right"
      },
      {
        "midi": 86,
        "time": 313.75,
        "duration": 0.25,
        "velocity": 0.71,
        "hand": "right"
      },
      {
        "midi": 67,
        "time": 314,
        "duration": 0.25,
        "velocity": 0.71,
        "hand": "right"
      },
      {
        "midi": 70,
        "time": 314,
        "duration": 0.25,
        "velocity": 0.71,
        "hand": "right"
      },
      {
        "midi": 74,
        "time": 314,
        "duration": 0.25,
        "velocity": 0.71,
        "hand": "right"
      },
      {
        "midi": 79,
        "time": 314,
        "duration": 0.5,
        "velocity": 0.71,
        "hand": "right"
      },
      {
        "midi": 86,
        "time": 314,
        "duration": 0.25,
        "velocity": 0.71,
        "hand": "right"
      },
      {
        "midi": 67,
        "time": 314.25,
        "duration": 0.25,
        "velocity": 0.71,
        "hand": "right"
      },
      {
        "midi": 70,
        "time": 314.25,
        "duration": 0.25,
        "velocity": 0.71,
        "hand": "right"
      },
      {
        "midi": 74,
        "time": 314.25,
        "duration": 0.25,
        "velocity": 0.71,
        "hand": "right"
      },
      {
        "midi": 67,
        "time": 314.5,
        "duration": 0.25,
        "velocity": 0.71,
        "hand": "right"
      },
      {
        "midi": 72,
        "time": 314.5,
        "duration": 0.25,
        "velocity": 0.71,
        "hand": "right"
      },
      {
        "midi": 75,
        "time": 314.5,
        "duration": 0.25,
        "velocity": 0.71,
        "hand": "right"
      },
      {
        "midi": 81,
        "time": 314.5,
        "duration": 0.5,
        "velocity": 0.71,
        "hand": "right"
      },
      {
        "midi": 82,
        "time": 314.5,
        "duration": 0.25,
        "velocity": 0.71,
        "hand": "right"
      },
      {
        "midi": 67,
        "time": 314.75,
        "duration": 0.25,
        "velocity": 0.71,
        "hand": "right"
      },
      {
        "midi": 72,
        "time": 314.75,
        "duration": 0.25,
        "velocity": 0.71,
        "hand": "right"
      },
      {
        "midi": 75,
        "time": 314.75,
        "duration": 0.25,
        "velocity": 0.71,
        "hand": "right"
      },
      {
        "midi": 67,
        "time": 315,
        "duration": 0.25,
        "velocity": 0.71,
        "hand": "right"
      },
      {
        "midi": 70,
        "time": 315,
        "duration": 0.25,
        "velocity": 0.71,
        "hand": "right"
      },
      {
        "midi": 74,
        "time": 315,
        "duration": 0.25,
        "velocity": 0.71,
        "hand": "right"
      },
      {
        "midi": 79,
        "time": 315,
        "duration": 0.5,
        "velocity": 0.71,
        "hand": "right"
      },
      {
        "midi": 82,
        "time": 315,
        "duration": 0.25,
        "velocity": 0.71,
        "hand": "right"
      },
      {
        "midi": 67,
        "time": 315.25,
        "duration": 0.25,
        "velocity": 0.71,
        "hand": "right"
      },
      {
        "midi": 70,
        "time": 315.25,
        "duration": 0.25,
        "velocity": 0.71,
        "hand": "right"
      },
      {
        "midi": 74,
        "time": 315.25,
        "duration": 0.25,
        "velocity": 0.71,
        "hand": "right"
      },
      {
        "midi": 63,
        "time": 315.5,
        "duration": 0.25,
        "velocity": 0.71,
        "hand": "right"
      },
      {
        "midi": 67,
        "time": 315.5,
        "duration": 0.25,
        "velocity": 0.71,
        "hand": "right"
      },
      {
        "midi": 72,
        "time": 315.5,
        "duration": 0.25,
        "velocity": 0.71,
        "hand": "right"
      },
      {
        "midi": 79,
        "time": 315.5,
        "duration": 0.25,
        "velocity": 0.71,
        "hand": "right"
      },
      {
        "midi": 82,
        "time": 315.5,
        "duration": 0.25,
        "velocity": 0.71,
        "hand": "right"
      },
      {
        "midi": 84,
        "time": 315.5,
        "duration": 0.5,
        "velocity": 0.71,
        "hand": "right"
      },
      {
        "midi": 63,
        "time": 315.75,
        "duration": 0.25,
        "velocity": 0.71,
        "hand": "right"
      },
      {
        "midi": 67,
        "time": 315.75,
        "duration": 0.25,
        "velocity": 0.71,
        "hand": "right"
      },
      {
        "midi": 72,
        "time": 315.75,
        "duration": 0.25,
        "velocity": 0.71,
        "hand": "right"
      },
      {
        "midi": 79,
        "time": 315.75,
        "duration": 0.25,
        "velocity": 0.71,
        "hand": "right"
      },
      {
        "midi": 67,
        "time": 316,
        "duration": 0.25,
        "velocity": 0.71,
        "hand": "right"
      },
      {
        "midi": 70,
        "time": 316,
        "duration": 0.25,
        "velocity": 0.71,
        "hand": "right"
      },
      {
        "midi": 74,
        "time": 316,
        "duration": 0.25,
        "velocity": 0.71,
        "hand": "right"
      },
      {
        "midi": 79,
        "time": 316,
        "duration": 0.5,
        "velocity": 0.71,
        "hand": "right"
      },
      {
        "midi": 82,
        "time": 316,
        "duration": 0.25,
        "velocity": 0.71,
        "hand": "right"
      },
      {
        "midi": 67,
        "time": 316.25,
        "duration": 0.25,
        "velocity": 0.71,
        "hand": "right"
      },
      {
        "midi": 70,
        "time": 316.25,
        "duration": 0.25,
        "velocity": 0.71,
        "hand": "right"
      },
      {
        "midi": 74,
        "time": 316.25,
        "duration": 0.25,
        "velocity": 0.71,
        "hand": "right"
      },
      {
        "midi": 67,
        "time": 316.5,
        "duration": 0.25,
        "velocity": 0.71,
        "hand": "right"
      },
      {
        "midi": 70,
        "time": 316.5,
        "duration": 0.25,
        "velocity": 0.71,
        "hand": "right"
      },
      {
        "midi": 74,
        "time": 316.5,
        "duration": 0.25,
        "velocity": 0.71,
        "hand": "right"
      },
      {
        "midi": 79,
        "time": 316.5,
        "duration": 1,
        "velocity": 0.71,
        "hand": "right"
      },
      {
        "midi": 67,
        "time": 316.75,
        "duration": 0.25,
        "velocity": 0.71,
        "hand": "right"
      },
      {
        "midi": 70,
        "time": 316.75,
        "duration": 0.25,
        "velocity": 0.71,
        "hand": "right"
      },
      {
        "midi": 74,
        "time": 316.75,
        "duration": 0.25,
        "velocity": 0.71,
        "hand": "right"
      },
      {
        "midi": 67,
        "time": 317,
        "duration": 0.25,
        "velocity": 0.71,
        "hand": "right"
      },
      {
        "midi": 70,
        "time": 317,
        "duration": 0.25,
        "velocity": 0.71,
        "hand": "right"
      },
      {
        "midi": 74,
        "time": 317,
        "duration": 0.25,
        "velocity": 0.71,
        "hand": "right"
      },
      {
        "midi": 91,
        "time": 317,
        "duration": 0.5,
        "velocity": 0.71,
        "hand": "right"
      },
      {
        "midi": 98,
        "time": 317,
        "duration": 0.5,
        "velocity": 0.71,
        "hand": "right"
      },
      {
        "midi": 67,
        "time": 317.25,
        "duration": 0.25,
        "velocity": 0.71,
        "hand": "right"
      },
      {
        "midi": 70,
        "time": 317.25,
        "duration": 0.25,
        "velocity": 0.71,
        "hand": "right"
      },
      {
        "midi": 74,
        "time": 317.25,
        "duration": 0.25,
        "velocity": 0.71,
        "hand": "right"
      },
      {
        "midi": 67,
        "time": 317.5,
        "duration": 0.25,
        "velocity": 0.71,
        "hand": "right"
      },
      {
        "midi": 70,
        "time": 317.5,
        "duration": 0.25,
        "velocity": 0.71,
        "hand": "right"
      },
      {
        "midi": 75,
        "time": 317.5,
        "duration": 0.25,
        "velocity": 0.71,
        "hand": "right"
      },
      {
        "midi": 82,
        "time": 317.5,
        "duration": 0.25,
        "velocity": 0.71,
        "hand": "right"
      },
      {
        "midi": 67,
        "time": 317.75,
        "duration": 0.25,
        "velocity": 0.71,
        "hand": "right"
      },
      {
        "midi": 70,
        "time": 317.75,
        "duration": 0.25,
        "velocity": 0.71,
        "hand": "right"
      },
      {
        "midi": 75,
        "time": 317.75,
        "duration": 0.25,
        "velocity": 0.71,
        "hand": "right"
      },
      {
        "midi": 82,
        "time": 317.75,
        "duration": 0.25,
        "velocity": 0.71,
        "hand": "right"
      },
      {
        "midi": 84,
        "time": 317.75,
        "duration": 0.25,
        "velocity": 0.71,
        "hand": "right"
      },
      {
        "midi": 67,
        "time": 318,
        "duration": 0.25,
        "velocity": 0.71,
        "hand": "right"
      },
      {
        "midi": 70,
        "time": 318,
        "duration": 0.25,
        "velocity": 0.71,
        "hand": "right"
      },
      {
        "midi": 74,
        "time": 318,
        "duration": 0.25,
        "velocity": 0.71,
        "hand": "right"
      },
      {
        "midi": 79,
        "time": 318,
        "duration": 0.25,
        "velocity": 0.71,
        "hand": "right"
      },
      {
        "midi": 82,
        "time": 318,
        "duration": 0.25,
        "velocity": 0.71,
        "hand": "right"
      },
      {
        "midi": 86,
        "time": 318,
        "duration": 0.5,
        "velocity": 0.71,
        "hand": "right"
      },
      {
        "midi": 67,
        "time": 318.25,
        "duration": 0.25,
        "velocity": 0.71,
        "hand": "right"
      },
      {
        "midi": 70,
        "time": 318.25,
        "duration": 0.25,
        "velocity": 0.71,
        "hand": "right"
      },
      {
        "midi": 74,
        "time": 318.25,
        "duration": 0.25,
        "velocity": 0.71,
        "hand": "right"
      },
      {
        "midi": 79,
        "time": 318.25,
        "duration": 0.25,
        "velocity": 0.71,
        "hand": "right"
      },
      {
        "midi": 82,
        "time": 318.25,
        "duration": 0.25,
        "velocity": 0.71,
        "hand": "right"
      },
      {
        "midi": 67,
        "time": 318.5,
        "duration": 0.25,
        "velocity": 0.71,
        "hand": "right"
      },
      {
        "midi": 70,
        "time": 318.5,
        "duration": 0.25,
        "velocity": 0.71,
        "hand": "right"
      },
      {
        "midi": 74,
        "time": 318.5,
        "duration": 0.25,
        "velocity": 0.71,
        "hand": "right"
      },
      {
        "midi": 79,
        "time": 318.5,
        "duration": 0.25,
        "velocity": 0.71,
        "hand": "right"
      },
      {
        "midi": 82,
        "time": 318.5,
        "duration": 0.25,
        "velocity": 0.71,
        "hand": "right"
      },
      {
        "midi": 86,
        "time": 318.5,
        "duration": 1,
        "velocity": 0.71,
        "hand": "right"
      },
      {
        "midi": 67,
        "time": 318.75,
        "duration": 0.25,
        "velocity": 0.71,
        "hand": "right"
      },
      {
        "midi": 70,
        "time": 318.75,
        "duration": 0.25,
        "velocity": 0.71,
        "hand": "right"
      },
      {
        "midi": 74,
        "time": 318.75,
        "duration": 0.25,
        "velocity": 0.71,
        "hand": "right"
      },
      {
        "midi": 79,
        "time": 318.75,
        "duration": 0.25,
        "velocity": 0.71,
        "hand": "right"
      },
      {
        "midi": 82,
        "time": 318.75,
        "duration": 0.25,
        "velocity": 0.71,
        "hand": "right"
      },
      {
        "midi": 67,
        "time": 319,
        "duration": 0.25,
        "velocity": 0.71,
        "hand": "right"
      },
      {
        "midi": 70,
        "time": 319,
        "duration": 0.25,
        "velocity": 0.71,
        "hand": "right"
      },
      {
        "midi": 74,
        "time": 319,
        "duration": 0.25,
        "velocity": 0.71,
        "hand": "right"
      },
      {
        "midi": 79,
        "time": 319,
        "duration": 0.25,
        "velocity": 0.71,
        "hand": "right"
      },
      {
        "midi": 82,
        "time": 319,
        "duration": 0.25,
        "velocity": 0.71,
        "hand": "right"
      },
      {
        "midi": 67,
        "time": 319.25,
        "duration": 0.25,
        "velocity": 0.71,
        "hand": "right"
      },
      {
        "midi": 70,
        "time": 319.25,
        "duration": 0.25,
        "velocity": 0.71,
        "hand": "right"
      },
      {
        "midi": 74,
        "time": 319.25,
        "duration": 0.25,
        "velocity": 0.71,
        "hand": "right"
      },
      {
        "midi": 79,
        "time": 319.25,
        "duration": 0.25,
        "velocity": 0.71,
        "hand": "right"
      },
      {
        "midi": 82,
        "time": 319.25,
        "duration": 0.25,
        "velocity": 0.71,
        "hand": "right"
      },
      {
        "midi": 63,
        "time": 319.5,
        "duration": 0.25,
        "velocity": 0.71,
        "hand": "right"
      },
      {
        "midi": 67,
        "time": 319.5,
        "duration": 0.25,
        "velocity": 0.71,
        "hand": "right"
      },
      {
        "midi": 72,
        "time": 319.5,
        "duration": 0.25,
        "velocity": 0.71,
        "hand": "right"
      },
      {
        "midi": 79,
        "time": 319.5,
        "duration": 0.25,
        "velocity": 0.71,
        "hand": "right"
      },
      {
        "midi": 84,
        "time": 319.5,
        "duration": 0.25,
        "velocity": 0.71,
        "hand": "right"
      },
      {
        "midi": 63,
        "time": 319.75,
        "duration": 0.25,
        "velocity": 0.71,
        "hand": "right"
      },
      {
        "midi": 67,
        "time": 319.75,
        "duration": 0.25,
        "velocity": 0.71,
        "hand": "right"
      },
      {
        "midi": 72,
        "time": 319.75,
        "duration": 0.25,
        "velocity": 0.71,
        "hand": "right"
      },
      {
        "midi": 79,
        "time": 319.75,
        "duration": 0.25,
        "velocity": 0.71,
        "hand": "right"
      },
      {
        "midi": 84,
        "time": 319.75,
        "duration": 0.25,
        "velocity": 0.71,
        "hand": "right"
      },
      {
        "midi": 86,
        "time": 319.75,
        "duration": 0.25,
        "velocity": 0.71,
        "hand": "right"
      },
      {
        "midi": 67,
        "time": 320,
        "duration": 0.25,
        "velocity": 0.71,
        "hand": "right"
      },
      {
        "midi": 70,
        "time": 320,
        "duration": 0.25,
        "velocity": 0.71,
        "hand": "right"
      },
      {
        "midi": 74,
        "time": 320,
        "duration": 0.25,
        "velocity": 0.71,
        "hand": "right"
      },
      {
        "midi": 79,
        "time": 320,
        "duration": 0.25,
        "velocity": 0.71,
        "hand": "right"
      },
      {
        "midi": 82,
        "time": 320,
        "duration": 0.25,
        "velocity": 0.71,
        "hand": "right"
      },
      {
        "midi": 86,
        "time": 320,
        "duration": 0.5,
        "velocity": 0.71,
        "hand": "right"
      },
      {
        "midi": 91,
        "time": 320,
        "duration": 0.25,
        "velocity": 0.71,
        "hand": "right"
      },
      {
        "midi": 67,
        "time": 320.25,
        "duration": 0.25,
        "velocity": 0.71,
        "hand": "right"
      },
      {
        "midi": 70,
        "time": 320.25,
        "duration": 0.25,
        "velocity": 0.71,
        "hand": "right"
      },
      {
        "midi": 74,
        "time": 320.25,
        "duration": 0.25,
        "velocity": 0.71,
        "hand": "right"
      },
      {
        "midi": 79,
        "time": 320.25,
        "duration": 0.25,
        "velocity": 0.71,
        "hand": "right"
      },
      {
        "midi": 82,
        "time": 320.25,
        "duration": 0.25,
        "velocity": 0.71,
        "hand": "right"
      },
      {
        "midi": 67,
        "time": 320.5,
        "duration": 0.25,
        "velocity": 0.71,
        "hand": "right"
      },
      {
        "midi": 70,
        "time": 320.5,
        "duration": 0.25,
        "velocity": 0.71,
        "hand": "right"
      },
      {
        "midi": 74,
        "time": 320.5,
        "duration": 0.25,
        "velocity": 0.71,
        "hand": "right"
      },
      {
        "midi": 79,
        "time": 320.5,
        "duration": 0.25,
        "velocity": 0.71,
        "hand": "right"
      },
      {
        "midi": 82,
        "time": 320.5,
        "duration": 0.25,
        "velocity": 0.71,
        "hand": "right"
      },
      {
        "midi": 86,
        "time": 320.5,
        "duration": 1,
        "velocity": 0.71,
        "hand": "right"
      },
      {
        "midi": 67,
        "time": 320.75,
        "duration": 0.25,
        "velocity": 0.71,
        "hand": "right"
      },
      {
        "midi": 70,
        "time": 320.75,
        "duration": 0.25,
        "velocity": 0.71,
        "hand": "right"
      },
      {
        "midi": 74,
        "time": 320.75,
        "duration": 0.25,
        "velocity": 0.71,
        "hand": "right"
      },
      {
        "midi": 79,
        "time": 320.75,
        "duration": 0.25,
        "velocity": 0.71,
        "hand": "right"
      },
      {
        "midi": 82,
        "time": 320.75,
        "duration": 0.25,
        "velocity": 0.71,
        "hand": "right"
      },
      {
        "midi": 67,
        "time": 321,
        "duration": 0.25,
        "velocity": 0.71,
        "hand": "right"
      },
      {
        "midi": 70,
        "time": 321,
        "duration": 0.25,
        "velocity": 0.71,
        "hand": "right"
      },
      {
        "midi": 74,
        "time": 321,
        "duration": 0.25,
        "velocity": 0.71,
        "hand": "right"
      },
      {
        "midi": 79,
        "time": 321,
        "duration": 0.25,
        "velocity": 0.71,
        "hand": "right"
      },
      {
        "midi": 82,
        "time": 321,
        "duration": 0.25,
        "velocity": 0.71,
        "hand": "right"
      },
      {
        "midi": 67,
        "time": 321.25,
        "duration": 0.25,
        "velocity": 0.71,
        "hand": "right"
      },
      {
        "midi": 70,
        "time": 321.25,
        "duration": 0.25,
        "velocity": 0.71,
        "hand": "right"
      },
      {
        "midi": 74,
        "time": 321.25,
        "duration": 0.25,
        "velocity": 0.71,
        "hand": "right"
      },
      {
        "midi": 79,
        "time": 321.25,
        "duration": 0.25,
        "velocity": 0.71,
        "hand": "right"
      },
      {
        "midi": 82,
        "time": 321.25,
        "duration": 0.25,
        "velocity": 0.71,
        "hand": "right"
      },
      {
        "midi": 63,
        "time": 321.5,
        "duration": 0.25,
        "velocity": 0.71,
        "hand": "right"
      },
      {
        "midi": 67,
        "time": 321.5,
        "duration": 0.25,
        "velocity": 0.71,
        "hand": "right"
      },
      {
        "midi": 72,
        "time": 321.5,
        "duration": 0.25,
        "velocity": 0.71,
        "hand": "right"
      },
      {
        "midi": 79,
        "time": 321.5,
        "duration": 0.25,
        "velocity": 0.71,
        "hand": "right"
      },
      {
        "midi": 84,
        "time": 321.5,
        "duration": 0.25,
        "velocity": 0.71,
        "hand": "right"
      },
      {
        "midi": 63,
        "time": 321.75,
        "duration": 0.25,
        "velocity": 0.71,
        "hand": "right"
      },
      {
        "midi": 67,
        "time": 321.75,
        "duration": 0.25,
        "velocity": 0.71,
        "hand": "right"
      },
      {
        "midi": 72,
        "time": 321.75,
        "duration": 0.25,
        "velocity": 0.71,
        "hand": "right"
      },
      {
        "midi": 79,
        "time": 321.75,
        "duration": 0.25,
        "velocity": 0.71,
        "hand": "right"
      },
      {
        "midi": 84,
        "time": 321.75,
        "duration": 0.25,
        "velocity": 0.71,
        "hand": "right"
      },
      {
        "midi": 86,
        "time": 321.75,
        "duration": 0.25,
        "velocity": 0.71,
        "hand": "right"
      },
      {
        "midi": 67,
        "time": 322,
        "duration": 0.25,
        "velocity": 0.71,
        "hand": "right"
      },
      {
        "midi": 70,
        "time": 322,
        "duration": 0.25,
        "velocity": 0.71,
        "hand": "right"
      },
      {
        "midi": 74,
        "time": 322,
        "duration": 0.25,
        "velocity": 0.71,
        "hand": "right"
      },
      {
        "midi": 79,
        "time": 322,
        "duration": 0.5,
        "velocity": 0.71,
        "hand": "right"
      },
      {
        "midi": 86,
        "time": 322,
        "duration": 0.25,
        "velocity": 0.71,
        "hand": "right"
      },
      {
        "midi": 67,
        "time": 322.25,
        "duration": 0.25,
        "velocity": 0.71,
        "hand": "right"
      },
      {
        "midi": 70,
        "time": 322.25,
        "duration": 0.25,
        "velocity": 0.71,
        "hand": "right"
      },
      {
        "midi": 74,
        "time": 322.25,
        "duration": 0.25,
        "velocity": 0.71,
        "hand": "right"
      },
      {
        "midi": 67,
        "time": 322.5,
        "duration": 0.25,
        "velocity": 0.71,
        "hand": "right"
      },
      {
        "midi": 72,
        "time": 322.5,
        "duration": 0.25,
        "velocity": 0.71,
        "hand": "right"
      },
      {
        "midi": 75,
        "time": 322.5,
        "duration": 0.25,
        "velocity": 0.71,
        "hand": "right"
      },
      {
        "midi": 81,
        "time": 322.5,
        "duration": 0.5,
        "velocity": 0.71,
        "hand": "right"
      },
      {
        "midi": 82,
        "time": 322.5,
        "duration": 0.25,
        "velocity": 0.71,
        "hand": "right"
      },
      {
        "midi": 67,
        "time": 322.75,
        "duration": 0.25,
        "velocity": 0.71,
        "hand": "right"
      },
      {
        "midi": 72,
        "time": 322.75,
        "duration": 0.25,
        "velocity": 0.71,
        "hand": "right"
      },
      {
        "midi": 75,
        "time": 322.75,
        "duration": 0.25,
        "velocity": 0.71,
        "hand": "right"
      },
      {
        "midi": 67,
        "time": 323,
        "duration": 0.25,
        "velocity": 0.71,
        "hand": "right"
      },
      {
        "midi": 70,
        "time": 323,
        "duration": 0.25,
        "velocity": 0.71,
        "hand": "right"
      },
      {
        "midi": 74,
        "time": 323,
        "duration": 0.25,
        "velocity": 0.71,
        "hand": "right"
      },
      {
        "midi": 79,
        "time": 323,
        "duration": 0.5,
        "velocity": 0.71,
        "hand": "right"
      },
      {
        "midi": 82,
        "time": 323,
        "duration": 0.25,
        "velocity": 0.71,
        "hand": "right"
      },
      {
        "midi": 67,
        "time": 323.25,
        "duration": 0.25,
        "velocity": 0.71,
        "hand": "right"
      },
      {
        "midi": 70,
        "time": 323.25,
        "duration": 0.25,
        "velocity": 0.71,
        "hand": "right"
      },
      {
        "midi": 74,
        "time": 323.25,
        "duration": 0.25,
        "velocity": 0.71,
        "hand": "right"
      },
      {
        "midi": 63,
        "time": 323.5,
        "duration": 0.25,
        "velocity": 0.71,
        "hand": "right"
      },
      {
        "midi": 67,
        "time": 323.5,
        "duration": 0.25,
        "velocity": 0.71,
        "hand": "right"
      },
      {
        "midi": 72,
        "time": 323.5,
        "duration": 0.25,
        "velocity": 0.71,
        "hand": "right"
      },
      {
        "midi": 79,
        "time": 323.5,
        "duration": 0.25,
        "velocity": 0.71,
        "hand": "right"
      },
      {
        "midi": 82,
        "time": 323.5,
        "duration": 0.25,
        "velocity": 0.71,
        "hand": "right"
      },
      {
        "midi": 84,
        "time": 323.5,
        "duration": 0.5,
        "velocity": 0.71,
        "hand": "right"
      },
      {
        "midi": 63,
        "time": 323.75,
        "duration": 0.25,
        "velocity": 0.71,
        "hand": "right"
      },
      {
        "midi": 67,
        "time": 323.75,
        "duration": 0.25,
        "velocity": 0.71,
        "hand": "right"
      },
      {
        "midi": 72,
        "time": 323.75,
        "duration": 0.25,
        "velocity": 0.71,
        "hand": "right"
      },
      {
        "midi": 79,
        "time": 323.75,
        "duration": 0.25,
        "velocity": 0.71,
        "hand": "right"
      },
      {
        "midi": 67,
        "time": 324,
        "duration": 0.25,
        "velocity": 0.71,
        "hand": "right"
      },
      {
        "midi": 70,
        "time": 324,
        "duration": 0.25,
        "velocity": 0.71,
        "hand": "right"
      },
      {
        "midi": 74,
        "time": 324,
        "duration": 0.25,
        "velocity": 0.71,
        "hand": "right"
      },
      {
        "midi": 79,
        "time": 324,
        "duration": 0.5,
        "velocity": 0.71,
        "hand": "right"
      },
      {
        "midi": 82,
        "time": 324,
        "duration": 0.25,
        "velocity": 0.71,
        "hand": "right"
      },
      {
        "midi": 67,
        "time": 324.25,
        "duration": 0.25,
        "velocity": 0.71,
        "hand": "right"
      },
      {
        "midi": 70,
        "time": 324.25,
        "duration": 0.25,
        "velocity": 0.71,
        "hand": "right"
      },
      {
        "midi": 74,
        "time": 324.25,
        "duration": 0.25,
        "velocity": 0.71,
        "hand": "right"
      },
      {
        "midi": 67,
        "time": 324.5,
        "duration": 0.25,
        "velocity": 0.71,
        "hand": "right"
      },
      {
        "midi": 70,
        "time": 324.5,
        "duration": 0.25,
        "velocity": 0.71,
        "hand": "right"
      },
      {
        "midi": 74,
        "time": 324.5,
        "duration": 0.25,
        "velocity": 0.71,
        "hand": "right"
      },
      {
        "midi": 79,
        "time": 324.5,
        "duration": 1,
        "velocity": 0.71,
        "hand": "right"
      },
      {
        "midi": 67,
        "time": 324.75,
        "duration": 0.25,
        "velocity": 0.71,
        "hand": "right"
      },
      {
        "midi": 70,
        "time": 324.75,
        "duration": 0.25,
        "velocity": 0.71,
        "hand": "right"
      },
      {
        "midi": 74,
        "time": 324.75,
        "duration": 0.25,
        "velocity": 0.71,
        "hand": "right"
      },
      {
        "midi": 67,
        "time": 325,
        "duration": 0.25,
        "velocity": 0.71,
        "hand": "right"
      },
      {
        "midi": 70,
        "time": 325,
        "duration": 0.25,
        "velocity": 0.71,
        "hand": "right"
      },
      {
        "midi": 74,
        "time": 325,
        "duration": 0.25,
        "velocity": 0.71,
        "hand": "right"
      },
      {
        "midi": 91,
        "time": 325,
        "duration": 0.5,
        "velocity": 0.71,
        "hand": "right"
      },
      {
        "midi": 98,
        "time": 325,
        "duration": 0.5,
        "velocity": 0.71,
        "hand": "right"
      },
      {
        "midi": 67,
        "time": 325.25,
        "duration": 0.25,
        "velocity": 0.71,
        "hand": "right"
      },
      {
        "midi": 70,
        "time": 325.25,
        "duration": 0.25,
        "velocity": 0.71,
        "hand": "right"
      },
      {
        "midi": 74,
        "time": 325.25,
        "duration": 0.25,
        "velocity": 0.71,
        "hand": "right"
      },
      {
        "midi": 67,
        "time": 325.5,
        "duration": 0.25,
        "velocity": 0.71,
        "hand": "right"
      },
      {
        "midi": 70,
        "time": 325.5,
        "duration": 0.25,
        "velocity": 0.71,
        "hand": "right"
      },
      {
        "midi": 75,
        "time": 325.5,
        "duration": 0.25,
        "velocity": 0.71,
        "hand": "right"
      },
      {
        "midi": 82,
        "time": 325.5,
        "duration": 0.25,
        "velocity": 0.71,
        "hand": "right"
      },
      {
        "midi": 67,
        "time": 325.75,
        "duration": 0.25,
        "velocity": 0.71,
        "hand": "right"
      },
      {
        "midi": 70,
        "time": 325.75,
        "duration": 0.25,
        "velocity": 0.71,
        "hand": "right"
      },
      {
        "midi": 75,
        "time": 325.75,
        "duration": 0.25,
        "velocity": 0.71,
        "hand": "right"
      },
      {
        "midi": 84,
        "time": 325.75,
        "duration": 0.25,
        "velocity": 0.71,
        "hand": "right"
      },
      {
        "midi": 66,
        "time": 326,
        "duration": 0.25,
        "velocity": 0.71,
        "hand": "right"
      },
      {
        "midi": 70,
        "time": 326,
        "duration": 0.25,
        "velocity": 0.71,
        "hand": "right"
      },
      {
        "midi": 74,
        "time": 326,
        "duration": 0.25,
        "velocity": 0.71,
        "hand": "right"
      },
      {
        "midi": 76,
        "time": 326,
        "duration": 0.25,
        "velocity": 0.71,
        "hand": "right"
      },
      {
        "midi": 82,
        "time": 326,
        "duration": 0.25,
        "velocity": 0.71,
        "hand": "right"
      },
      {
        "midi": 86,
        "time": 326,
        "duration": 0.5,
        "velocity": 0.71,
        "hand": "right"
      },
      {
        "midi": 66,
        "time": 326.25,
        "duration": 0.25,
        "velocity": 0.71,
        "hand": "right"
      },
      {
        "midi": 70,
        "time": 326.25,
        "duration": 0.25,
        "velocity": 0.71,
        "hand": "right"
      },
      {
        "midi": 74,
        "time": 326.25,
        "duration": 0.25,
        "velocity": 0.71,
        "hand": "right"
      },
      {
        "midi": 76,
        "time": 326.25,
        "duration": 0.25,
        "velocity": 0.71,
        "hand": "right"
      },
      {
        "midi": 82,
        "time": 326.25,
        "duration": 0.25,
        "velocity": 0.71,
        "hand": "right"
      },
      {
        "midi": 66,
        "time": 326.5,
        "duration": 0.25,
        "velocity": 0.71,
        "hand": "right"
      },
      {
        "midi": 70,
        "time": 326.5,
        "duration": 0.25,
        "velocity": 0.71,
        "hand": "right"
      },
      {
        "midi": 74,
        "time": 326.5,
        "duration": 0.25,
        "velocity": 0.71,
        "hand": "right"
      },
      {
        "midi": 76,
        "time": 326.5,
        "duration": 0.25,
        "velocity": 0.71,
        "hand": "right"
      },
      {
        "midi": 82,
        "time": 326.5,
        "duration": 0.25,
        "velocity": 0.71,
        "hand": "right"
      },
      {
        "midi": 86,
        "time": 326.5,
        "duration": 1,
        "velocity": 0.71,
        "hand": "right"
      },
      {
        "midi": 66,
        "time": 326.75,
        "duration": 0.25,
        "velocity": 0.71,
        "hand": "right"
      },
      {
        "midi": 70,
        "time": 326.75,
        "duration": 0.25,
        "velocity": 0.71,
        "hand": "right"
      },
      {
        "midi": 74,
        "time": 326.75,
        "duration": 0.25,
        "velocity": 0.71,
        "hand": "right"
      },
      {
        "midi": 76,
        "time": 326.75,
        "duration": 0.25,
        "velocity": 0.71,
        "hand": "right"
      },
      {
        "midi": 82,
        "time": 326.75,
        "duration": 0.25,
        "velocity": 0.71,
        "hand": "right"
      },
      {
        "midi": 65,
        "time": 327,
        "duration": 0.25,
        "velocity": 0.71,
        "hand": "right"
      },
      {
        "midi": 70,
        "time": 327,
        "duration": 0.25,
        "velocity": 0.71,
        "hand": "right"
      },
      {
        "midi": 74,
        "time": 327,
        "duration": 0.25,
        "velocity": 0.71,
        "hand": "right"
      },
      {
        "midi": 77,
        "time": 327,
        "duration": 0.25,
        "velocity": 0.71,
        "hand": "right"
      },
      {
        "midi": 82,
        "time": 327,
        "duration": 0.25,
        "velocity": 0.71,
        "hand": "right"
      },
      {
        "midi": 65,
        "time": 327.25,
        "duration": 0.25,
        "velocity": 0.71,
        "hand": "right"
      },
      {
        "midi": 70,
        "time": 327.25,
        "duration": 0.25,
        "velocity": 0.71,
        "hand": "right"
      },
      {
        "midi": 74,
        "time": 327.25,
        "duration": 0.25,
        "velocity": 0.71,
        "hand": "right"
      },
      {
        "midi": 77,
        "time": 327.25,
        "duration": 0.25,
        "velocity": 0.71,
        "hand": "right"
      },
      {
        "midi": 82,
        "time": 327.25,
        "duration": 0.25,
        "velocity": 0.71,
        "hand": "right"
      },
      {
        "midi": 64,
        "time": 327.5,
        "duration": 0.25,
        "velocity": 0.71,
        "hand": "right"
      },
      {
        "midi": 67,
        "time": 327.5,
        "duration": 0.25,
        "velocity": 0.71,
        "hand": "right"
      },
      {
        "midi": 72,
        "time": 327.5,
        "duration": 0.25,
        "velocity": 0.71,
        "hand": "right"
      },
      {
        "midi": 79,
        "time": 327.5,
        "duration": 0.25,
        "velocity": 0.71,
        "hand": "right"
      },
      {
        "midi": 64,
        "time": 327.75,
        "duration": 0.25,
        "velocity": 0.71,
        "hand": "right"
      },
      {
        "midi": 67,
        "time": 327.75,
        "duration": 0.25,
        "velocity": 0.71,
        "hand": "right"
      },
      {
        "midi": 72,
        "time": 327.75,
        "duration": 0.25,
        "velocity": 0.71,
        "hand": "right"
      },
      {
        "midi": 79,
        "time": 327.75,
        "duration": 0.25,
        "velocity": 0.71,
        "hand": "right"
      },
      {
        "midi": 81,
        "time": 327.75,
        "duration": 0.25,
        "velocity": 0.71,
        "hand": "right"
      },
      {
        "midi": 63,
        "time": 328,
        "duration": 0.25,
        "velocity": 0.71,
        "hand": "right"
      },
      {
        "midi": 67,
        "time": 328,
        "duration": 0.25,
        "velocity": 0.71,
        "hand": "right"
      },
      {
        "midi": 70,
        "time": 328,
        "duration": 0.25,
        "velocity": 0.71,
        "hand": "right"
      },
      {
        "midi": 73,
        "time": 328,
        "duration": 0.25,
        "velocity": 0.71,
        "hand": "right"
      },
      {
        "midi": 79,
        "time": 328,
        "duration": 0.25,
        "velocity": 0.71,
        "hand": "right"
      },
      {
        "midi": 81,
        "time": 328,
        "duration": 0.25,
        "velocity": 0.71,
        "hand": "right"
      },
      {
        "midi": 82,
        "time": 328,
        "duration": 0.5,
        "velocity": 0.71,
        "hand": "right"
      },
      {
        "midi": 63,
        "time": 328.25,
        "duration": 0.25,
        "velocity": 0.71,
        "hand": "right"
      },
      {
        "midi": 67,
        "time": 328.25,
        "duration": 0.25,
        "velocity": 0.71,
        "hand": "right"
      },
      {
        "midi": 70,
        "time": 328.25,
        "duration": 0.25,
        "velocity": 0.71,
        "hand": "right"
      },
      {
        "midi": 73,
        "time": 328.25,
        "duration": 0.25,
        "velocity": 0.71,
        "hand": "right"
      },
      {
        "midi": 79,
        "time": 328.25,
        "duration": 0.25,
        "velocity": 0.71,
        "hand": "right"
      },
      {
        "midi": 63,
        "time": 328.5,
        "duration": 0.25,
        "velocity": 0.71,
        "hand": "right"
      },
      {
        "midi": 67,
        "time": 328.5,
        "duration": 0.25,
        "velocity": 0.71,
        "hand": "right"
      },
      {
        "midi": 70,
        "time": 328.5,
        "duration": 0.25,
        "velocity": 0.71,
        "hand": "right"
      },
      {
        "midi": 73,
        "time": 328.5,
        "duration": 0.25,
        "velocity": 0.71,
        "hand": "right"
      },
      {
        "midi": 79,
        "time": 328.5,
        "duration": 0.25,
        "velocity": 0.71,
        "hand": "right"
      },
      {
        "midi": 82,
        "time": 328.5,
        "duration": 1,
        "velocity": 0.71,
        "hand": "right"
      },
      {
        "midi": 63,
        "time": 328.75,
        "duration": 0.25,
        "velocity": 0.71,
        "hand": "right"
      },
      {
        "midi": 67,
        "time": 328.75,
        "duration": 0.25,
        "velocity": 0.71,
        "hand": "right"
      },
      {
        "midi": 70,
        "time": 328.75,
        "duration": 0.25,
        "velocity": 0.71,
        "hand": "right"
      },
      {
        "midi": 73,
        "time": 328.75,
        "duration": 0.25,
        "velocity": 0.71,
        "hand": "right"
      },
      {
        "midi": 79,
        "time": 328.75,
        "duration": 0.25,
        "velocity": 0.71,
        "hand": "right"
      },
      {
        "midi": 62,
        "time": 329,
        "duration": 0.25,
        "velocity": 0.71,
        "hand": "right"
      },
      {
        "midi": 67,
        "time": 329,
        "duration": 0.25,
        "velocity": 0.71,
        "hand": "right"
      },
      {
        "midi": 70,
        "time": 329,
        "duration": 0.25,
        "velocity": 0.71,
        "hand": "right"
      },
      {
        "midi": 74,
        "time": 329,
        "duration": 0.25,
        "velocity": 0.71,
        "hand": "right"
      },
      {
        "midi": 79,
        "time": 329,
        "duration": 0.25,
        "velocity": 0.71,
        "hand": "right"
      },
      {
        "midi": 62,
        "time": 329.25,
        "duration": 0.25,
        "velocity": 0.71,
        "hand": "right"
      },
      {
        "midi": 67,
        "time": 329.25,
        "duration": 0.25,
        "velocity": 0.71,
        "hand": "right"
      },
      {
        "midi": 70,
        "time": 329.25,
        "duration": 0.25,
        "velocity": 0.71,
        "hand": "right"
      },
      {
        "midi": 74,
        "time": 329.25,
        "duration": 0.25,
        "velocity": 0.71,
        "hand": "right"
      },
      {
        "midi": 79,
        "time": 329.25,
        "duration": 0.25,
        "velocity": 0.71,
        "hand": "right"
      },
      {
        "midi": 61,
        "time": 329.5,
        "duration": 0.25,
        "velocity": 0.71,
        "hand": "right"
      },
      {
        "midi": 64,
        "time": 329.5,
        "duration": 0.25,
        "velocity": 0.71,
        "hand": "right"
      },
      {
        "midi": 69,
        "time": 329.5,
        "duration": 0.25,
        "velocity": 0.71,
        "hand": "right"
      },
      {
        "midi": 76,
        "time": 329.5,
        "duration": 0.25,
        "velocity": 0.71,
        "hand": "right"
      },
      {
        "midi": 61,
        "time": 329.75,
        "duration": 0.25,
        "velocity": 0.71,
        "hand": "right"
      },
      {
        "midi": 64,
        "time": 329.75,
        "duration": 0.25,
        "velocity": 0.71,
        "hand": "right"
      },
      {
        "midi": 69,
        "time": 329.75,
        "duration": 0.25,
        "velocity": 0.71,
        "hand": "right"
      },
      {
        "midi": 76,
        "time": 329.75,
        "duration": 0.25,
        "velocity": 0.71,
        "hand": "right"
      },
      {
        "midi": 78,
        "time": 329.75,
        "duration": 0.25,
        "velocity": 0.71,
        "hand": "right"
      },
      {
        "midi": 60,
        "time": 330,
        "duration": 0.25,
        "velocity": 0.71,
        "hand": "right"
      },
      {
        "midi": 64,
        "time": 330,
        "duration": 0.25,
        "velocity": 0.71,
        "hand": "right"
      },
      {
        "midi": 67,
        "time": 330,
        "duration": 0.25,
        "velocity": 0.71,
        "hand": "right"
      },
      {
        "midi": 70,
        "time": 330,
        "duration": 0.25,
        "velocity": 0.71,
        "hand": "right"
      },
      {
        "midi": 76,
        "time": 330,
        "duration": 0.25,
        "velocity": 0.71,
        "hand": "right"
      },
      {
        "midi": 78,
        "time": 330,
        "duration": 0.25,
        "velocity": 0.71,
        "hand": "right"
      },
      {
        "midi": 79,
        "time": 330,
        "duration": 0.5,
        "velocity": 0.71,
        "hand": "right"
      },
      {
        "midi": 60,
        "time": 330.25,
        "duration": 0.25,
        "velocity": 0.71,
        "hand": "right"
      },
      {
        "midi": 64,
        "time": 330.25,
        "duration": 0.25,
        "velocity": 0.71,
        "hand": "right"
      },
      {
        "midi": 67,
        "time": 330.25,
        "duration": 0.25,
        "velocity": 0.71,
        "hand": "right"
      },
      {
        "midi": 70,
        "time": 330.25,
        "duration": 0.25,
        "velocity": 0.71,
        "hand": "right"
      },
      {
        "midi": 76,
        "time": 330.25,
        "duration": 0.25,
        "velocity": 0.71,
        "hand": "right"
      },
      {
        "midi": 59,
        "time": 330.5,
        "duration": 0.25,
        "velocity": 0.71,
        "hand": "left"
      },
      {
        "midi": 64,
        "time": 330.5,
        "duration": 0.25,
        "velocity": 0.71,
        "hand": "right"
      },
      {
        "midi": 67,
        "time": 330.5,
        "duration": 0.25,
        "velocity": 0.71,
        "hand": "right"
      },
      {
        "midi": 71,
        "time": 330.5,
        "duration": 0.25,
        "velocity": 0.71,
        "hand": "right"
      },
      {
        "midi": 73,
        "time": 330.5,
        "duration": 0.25,
        "velocity": 0.71,
        "hand": "right"
      },
      {
        "midi": 59,
        "time": 330.75,
        "duration": 0.25,
        "velocity": 0.71,
        "hand": "left"
      },
      {
        "midi": 64,
        "time": 330.75,
        "duration": 0.25,
        "velocity": 0.71,
        "hand": "right"
      },
      {
        "midi": 67,
        "time": 330.75,
        "duration": 0.25,
        "velocity": 0.71,
        "hand": "right"
      },
      {
        "midi": 71,
        "time": 330.75,
        "duration": 0.25,
        "velocity": 0.71,
        "hand": "right"
      },
      {
        "midi": 73,
        "time": 330.75,
        "duration": 0.25,
        "velocity": 0.71,
        "hand": "right"
      },
      {
        "midi": 75,
        "time": 330.75,
        "duration": 0.25,
        "velocity": 0.71,
        "hand": "right"
      },
      {
        "midi": 58,
        "time": 331,
        "duration": 0.25,
        "velocity": 0.71,
        "hand": "left"
      },
      {
        "midi": 60,
        "time": 331,
        "duration": 0.25,
        "velocity": 0.71,
        "hand": "right"
      },
      {
        "midi": 64,
        "time": 331,
        "duration": 0.25,
        "velocity": 0.71,
        "hand": "right"
      },
      {
        "midi": 67,
        "time": 331,
        "duration": 0.25,
        "velocity": 0.71,
        "hand": "right"
      },
      {
        "midi": 72,
        "time": 331,
        "duration": 0.25,
        "velocity": 0.71,
        "hand": "right"
      },
      {
        "midi": 75,
        "time": 331,
        "duration": 0.25,
        "velocity": 0.71,
        "hand": "right"
      },
      {
        "midi": 76,
        "time": 331,
        "duration": 0.5,
        "velocity": 0.71,
        "hand": "right"
      },
      {
        "midi": 58,
        "time": 331.25,
        "duration": 0.25,
        "velocity": 0.71,
        "hand": "left"
      },
      {
        "midi": 60,
        "time": 331.25,
        "duration": 0.25,
        "velocity": 0.71,
        "hand": "right"
      },
      {
        "midi": 64,
        "time": 331.25,
        "duration": 0.25,
        "velocity": 0.71,
        "hand": "right"
      },
      {
        "midi": 67,
        "time": 331.25,
        "duration": 0.25,
        "velocity": 0.71,
        "hand": "right"
      },
      {
        "midi": 72,
        "time": 331.25,
        "duration": 0.25,
        "velocity": 0.71,
        "hand": "right"
      },
      {
        "midi": 57,
        "time": 331.5,
        "duration": 0.25,
        "velocity": 0.71,
        "hand": "left"
      },
      {
        "midi": 60,
        "time": 331.5,
        "duration": 0.25,
        "velocity": 0.71,
        "hand": "right"
      },
      {
        "midi": 64,
        "time": 331.5,
        "duration": 0.25,
        "velocity": 0.71,
        "hand": "right"
      },
      {
        "midi": 67,
        "time": 331.5,
        "duration": 0.25,
        "velocity": 0.71,
        "hand": "right"
      },
      {
        "midi": 57,
        "time": 331.75,
        "duration": 0.25,
        "velocity": 0.71,
        "hand": "left"
      },
      {
        "midi": 60,
        "time": 331.75,
        "duration": 0.25,
        "velocity": 0.71,
        "hand": "right"
      },
      {
        "midi": 64,
        "time": 331.75,
        "duration": 0.25,
        "velocity": 0.71,
        "hand": "right"
      },
      {
        "midi": 67,
        "time": 331.75,
        "duration": 0.25,
        "velocity": 0.71,
        "hand": "right"
      },
      {
        "midi": 69,
        "time": 331.75,
        "duration": 0.25,
        "velocity": 0.71,
        "hand": "right"
      },
      {
        "midi": 55,
        "time": 332,
        "duration": 0.5,
        "velocity": 0.71,
        "hand": "left"
      },
      {
        "midi": 58,
        "time": 332,
        "duration": 0.5,
        "velocity": 0.71,
        "hand": "left"
      },
      {
        "midi": 63,
        "time": 332,
        "duration": 0.25,
        "velocity": 0.71,
        "hand": "right"
      },
      {
        "midi": 67,
        "time": 332,
        "duration": 0.25,
        "velocity": 0.71,
        "hand": "right"
      },
      {
        "midi": 69,
        "time": 332,
        "duration": 0.25,
        "velocity": 0.71,
        "hand": "right"
      },
      {
        "midi": 70,
        "time": 332,
        "duration": 1.5,
        "velocity": 0.71,
        "hand": "right"
      },
      {
        "midi": 63,
        "time": 332.25,
        "duration": 0.25,
        "velocity": 0.71,
        "hand": "right"
      },
      {
        "midi": 67,
        "time": 332.25,
        "duration": 0.25,
        "velocity": 0.71,
        "hand": "right"
      },
      {
        "midi": 31,
        "time": 332.5,
        "duration": 0.125,
        "velocity": 0.54,
        "hand": "left"
      },
      {
        "midi": 34,
        "time": 332.5,
        "duration": 0.125,
        "velocity": 0.54,
        "hand": "left"
      },
      {
        "midi": 63,
        "time": 332.5,
        "duration": 0.25,
        "velocity": 0.71,
        "hand": "right"
      },
      {
        "midi": 67,
        "time": 332.5,
        "duration": 0.25,
        "velocity": 0.71,
        "hand": "right"
      },
      {
        "midi": 39,
        "time": 332.75,
        "duration": 0.125,
        "velocity": 0.54,
        "hand": "left"
      },
      {
        "midi": 43,
        "time": 332.75,
        "duration": 0.125,
        "velocity": 0.54,
        "hand": "left"
      },
      {
        "midi": 46,
        "time": 332.75,
        "duration": 0.125,
        "velocity": 0.54,
        "hand": "left"
      },
      {
        "midi": 51,
        "time": 332.75,
        "duration": 0.125,
        "velocity": 0.54,
        "hand": "left"
      },
      {
        "midi": 63,
        "time": 332.75,
        "duration": 0.25,
        "velocity": 0.71,
        "hand": "right"
      },
      {
        "midi": 67,
        "time": 332.75,
        "duration": 0.25,
        "velocity": 0.71,
        "hand": "right"
      },
      {
        "midi": 55,
        "time": 333,
        "duration": 0.125,
        "velocity": 0.54,
        "hand": "left"
      },
      {
        "midi": 58,
        "time": 333,
        "duration": 0.5,
        "velocity": 0.54,
        "hand": "left"
      },
      {
        "midi": 63,
        "time": 333,
        "duration": 0.25,
        "velocity": 0.71,
        "hand": "right"
      },
      {
        "midi": 67,
        "time": 333,
        "duration": 0.25,
        "velocity": 0.71,
        "hand": "right"
      },
      {
        "midi": 63,
        "time": 333.25,
        "duration": 0.25,
        "velocity": 0.71,
        "hand": "right"
      },
      {
        "midi": 67,
        "time": 333.25,
        "duration": 0.25,
        "velocity": 0.71,
        "hand": "right"
      },
      {
        "midi": 55,
        "time": 333.5,
        "duration": 0.25,
        "velocity": 0.54,
        "hand": "left"
      },
      {
        "midi": 58,
        "time": 333.5,
        "duration": 0.25,
        "velocity": 0.54,
        "hand": "left"
      },
      {
        "midi": 63,
        "time": 333.5,
        "duration": 0.25,
        "velocity": 0.71,
        "hand": "right"
      },
      {
        "midi": 70,
        "time": 333.5,
        "duration": 0.25,
        "velocity": 0.71,
        "hand": "right"
      },
      {
        "midi": 55,
        "time": 333.75,
        "duration": 0.25,
        "velocity": 0.54,
        "hand": "left"
      },
      {
        "midi": 58,
        "time": 333.75,
        "duration": 0.25,
        "velocity": 0.54,
        "hand": "left"
      },
      {
        "midi": 63,
        "time": 333.75,
        "duration": 0.25,
        "velocity": 0.71,
        "hand": "right"
      },
      {
        "midi": 70,
        "time": 333.75,
        "duration": 0.25,
        "velocity": 0.71,
        "hand": "right"
      },
      {
        "midi": 72,
        "time": 333.75,
        "duration": 0.25,
        "velocity": 0.71,
        "hand": "right"
      },
      {
        "midi": 54,
        "time": 334,
        "duration": 0.25,
        "velocity": 0.54,
        "hand": "left"
      },
      {
        "midi": 58,
        "time": 334,
        "duration": 0.25,
        "velocity": 0.54,
        "hand": "left"
      },
      {
        "midi": 62,
        "time": 334,
        "duration": 0.25,
        "velocity": 0.71,
        "hand": "right"
      },
      {
        "midi": 64,
        "time": 334,
        "duration": 0.25,
        "velocity": 0.54,
        "hand": "right"
      },
      {
        "midi": 70,
        "time": 334,
        "duration": 0.25,
        "velocity": 0.71,
        "hand": "right"
      },
      {
        "midi": 74,
        "time": 334,
        "duration": 0.5,
        "velocity": 0.71,
        "hand": "right"
      },
      {
        "midi": 54,
        "time": 334.25,
        "duration": 0.25,
        "velocity": 0.54,
        "hand": "left"
      },
      {
        "midi": 58,
        "time": 334.25,
        "duration": 0.25,
        "velocity": 0.54,
        "hand": "left"
      },
      {
        "midi": 62,
        "time": 334.25,
        "duration": 0.25,
        "velocity": 0.71,
        "hand": "right"
      },
      {
        "midi": 64,
        "time": 334.25,
        "duration": 0.25,
        "velocity": 0.54,
        "hand": "right"
      },
      {
        "midi": 70,
        "time": 334.25,
        "duration": 0.25,
        "velocity": 0.71,
        "hand": "right"
      },
      {
        "midi": 54,
        "time": 334.5,
        "duration": 0.25,
        "velocity": 0.54,
        "hand": "left"
      },
      {
        "midi": 58,
        "time": 334.5,
        "duration": 0.25,
        "velocity": 0.54,
        "hand": "left"
      },
      {
        "midi": 62,
        "time": 334.5,
        "duration": 0.25,
        "velocity": 0.71,
        "hand": "right"
      },
      {
        "midi": 64,
        "time": 334.5,
        "duration": 0.25,
        "velocity": 0.54,
        "hand": "right"
      },
      {
        "midi": 70,
        "time": 334.5,
        "duration": 0.25,
        "velocity": 0.71,
        "hand": "right"
      },
      {
        "midi": 74,
        "time": 334.5,
        "duration": 1,
        "velocity": 0.71,
        "hand": "right"
      },
      {
        "midi": 54,
        "time": 334.75,
        "duration": 0.25,
        "velocity": 0.54,
        "hand": "left"
      },
      {
        "midi": 58,
        "time": 334.75,
        "duration": 0.25,
        "velocity": 0.54,
        "hand": "left"
      },
      {
        "midi": 62,
        "time": 334.75,
        "duration": 0.25,
        "velocity": 0.71,
        "hand": "right"
      },
      {
        "midi": 64,
        "time": 334.75,
        "duration": 0.25,
        "velocity": 0.54,
        "hand": "right"
      },
      {
        "midi": 70,
        "time": 334.75,
        "duration": 0.25,
        "velocity": 0.71,
        "hand": "right"
      },
      {
        "midi": 53,
        "time": 335,
        "duration": 0.25,
        "velocity": 0.54,
        "hand": "left"
      },
      {
        "midi": 58,
        "time": 335,
        "duration": 0.25,
        "velocity": 0.54,
        "hand": "left"
      },
      {
        "midi": 62,
        "time": 335,
        "duration": 0.25,
        "velocity": 0.71,
        "hand": "right"
      },
      {
        "midi": 65,
        "time": 335,
        "duration": 0.25,
        "velocity": 0.54,
        "hand": "right"
      },
      {
        "midi": 70,
        "time": 335,
        "duration": 0.25,
        "velocity": 0.71,
        "hand": "right"
      },
      {
        "midi": 53,
        "time": 335.25,
        "duration": 0.25,
        "velocity": 0.54,
        "hand": "left"
      },
      {
        "midi": 58,
        "time": 335.25,
        "duration": 0.25,
        "velocity": 0.54,
        "hand": "left"
      },
      {
        "midi": 62,
        "time": 335.25,
        "duration": 0.25,
        "velocity": 0.71,
        "hand": "right"
      },
      {
        "midi": 65,
        "time": 335.25,
        "duration": 0.25,
        "velocity": 0.54,
        "hand": "right"
      },
      {
        "midi": 70,
        "time": 335.25,
        "duration": 0.25,
        "velocity": 0.71,
        "hand": "right"
      },
      {
        "midi": 52,
        "time": 335.5,
        "duration": 0.25,
        "velocity": 0.54,
        "hand": "left"
      },
      {
        "midi": 55,
        "time": 335.5,
        "duration": 0.25,
        "velocity": 0.54,
        "hand": "left"
      },
      {
        "midi": 60,
        "time": 335.5,
        "duration": 0.25,
        "velocity": 0.71,
        "hand": "right"
      },
      {
        "midi": 67,
        "time": 335.5,
        "duration": 0.25,
        "velocity": 0.71,
        "hand": "right"
      },
      {
        "midi": 52,
        "time": 335.75,
        "duration": 0.25,
        "velocity": 0.54,
        "hand": "left"
      },
      {
        "midi": 55,
        "time": 335.75,
        "duration": 0.25,
        "velocity": 0.54,
        "hand": "left"
      },
      {
        "midi": 60,
        "time": 335.75,
        "duration": 0.25,
        "velocity": 0.71,
        "hand": "right"
      },
      {
        "midi": 67,
        "time": 335.75,
        "duration": 0.25,
        "velocity": 0.71,
        "hand": "right"
      },
      {
        "midi": 69,
        "time": 335.75,
        "duration": 0.25,
        "velocity": 0.71,
        "hand": "right"
      },
      {
        "midi": 51,
        "time": 336,
        "duration": 0.25,
        "velocity": 0.54,
        "hand": "left"
      },
      {
        "midi": 55,
        "time": 336,
        "duration": 0.25,
        "velocity": 0.54,
        "hand": "left"
      },
      {
        "midi": 58,
        "time": 336,
        "duration": 0.25,
        "velocity": 0.71,
        "hand": "left"
      },
      {
        "midi": 61,
        "time": 336,
        "duration": 0.25,
        "velocity": 0.54,
        "hand": "right"
      },
      {
        "midi": 67,
        "time": 336,
        "duration": 0.25,
        "velocity": 0.71,
        "hand": "right"
      },
      {
        "midi": 69,
        "time": 336,
        "duration": 0.25,
        "velocity": 0.71,
        "hand": "right"
      },
      {
        "midi": 70,
        "time": 336,
        "duration": 0.5,
        "velocity": 0.71,
        "hand": "right"
      },
      {
        "midi": 51,
        "time": 336.25,
        "duration": 0.25,
        "velocity": 0.54,
        "hand": "left"
      },
      {
        "midi": 55,
        "time": 336.25,
        "duration": 0.25,
        "velocity": 0.54,
        "hand": "left"
      },
      {
        "midi": 58,
        "time": 336.25,
        "duration": 0.25,
        "velocity": 0.71,
        "hand": "left"
      },
      {
        "midi": 61,
        "time": 336.25,
        "duration": 0.25,
        "velocity": 0.54,
        "hand": "right"
      },
      {
        "midi": 67,
        "time": 336.25,
        "duration": 0.25,
        "velocity": 0.71,
        "hand": "right"
      },
      {
        "midi": 51,
        "time": 336.5,
        "duration": 0.25,
        "velocity": 0.54,
        "hand": "left"
      },
      {
        "midi": 55,
        "time": 336.5,
        "duration": 0.25,
        "velocity": 0.54,
        "hand": "left"
      },
      {
        "midi": 58,
        "time": 336.5,
        "duration": 0.25,
        "velocity": 0.71,
        "hand": "left"
      },
      {
        "midi": 61,
        "time": 336.5,
        "duration": 0.25,
        "velocity": 0.54,
        "hand": "right"
      },
      {
        "midi": 67,
        "time": 336.5,
        "duration": 0.25,
        "velocity": 0.71,
        "hand": "right"
      },
      {
        "midi": 70,
        "time": 336.5,
        "duration": 1,
        "velocity": 0.71,
        "hand": "right"
      },
      {
        "midi": 51,
        "time": 336.75,
        "duration": 0.25,
        "velocity": 0.54,
        "hand": "left"
      },
      {
        "midi": 55,
        "time": 336.75,
        "duration": 0.25,
        "velocity": 0.54,
        "hand": "left"
      },
      {
        "midi": 58,
        "time": 336.75,
        "duration": 0.25,
        "velocity": 0.71,
        "hand": "left"
      },
      {
        "midi": 61,
        "time": 336.75,
        "duration": 0.25,
        "velocity": 0.54,
        "hand": "right"
      },
      {
        "midi": 67,
        "time": 336.75,
        "duration": 0.25,
        "velocity": 0.71,
        "hand": "right"
      },
      {
        "midi": 50,
        "time": 337,
        "duration": 0.25,
        "velocity": 0.54,
        "hand": "left"
      },
      {
        "midi": 55,
        "time": 337,
        "duration": 0.25,
        "velocity": 0.54,
        "hand": "left"
      },
      {
        "midi": 58,
        "time": 337,
        "duration": 0.25,
        "velocity": 0.71,
        "hand": "left"
      },
      {
        "midi": 62,
        "time": 337,
        "duration": 0.25,
        "velocity": 0.54,
        "hand": "right"
      },
      {
        "midi": 67,
        "time": 337,
        "duration": 0.25,
        "velocity": 0.71,
        "hand": "right"
      },
      {
        "midi": 50,
        "time": 337.25,
        "duration": 0.25,
        "velocity": 0.54,
        "hand": "left"
      },
      {
        "midi": 55,
        "time": 337.25,
        "duration": 0.25,
        "velocity": 0.54,
        "hand": "left"
      },
      {
        "midi": 58,
        "time": 337.25,
        "duration": 0.25,
        "velocity": 0.71,
        "hand": "left"
      },
      {
        "midi": 62,
        "time": 337.25,
        "duration": 0.25,
        "velocity": 0.54,
        "hand": "right"
      },
      {
        "midi": 67,
        "time": 337.25,
        "duration": 0.25,
        "velocity": 0.71,
        "hand": "right"
      },
      {
        "midi": 49,
        "time": 337.5,
        "duration": 0.25,
        "velocity": 0.54,
        "hand": "left"
      },
      {
        "midi": 52,
        "time": 337.5,
        "duration": 0.25,
        "velocity": 0.54,
        "hand": "left"
      },
      {
        "midi": 57,
        "time": 337.5,
        "duration": 0.25,
        "velocity": 0.71,
        "hand": "left"
      },
      {
        "midi": 64,
        "time": 337.5,
        "duration": 0.25,
        "velocity": 0.71,
        "hand": "right"
      },
      {
        "midi": 49,
        "time": 337.75,
        "duration": 0.25,
        "velocity": 0.54,
        "hand": "left"
      },
      {
        "midi": 52,
        "time": 337.75,
        "duration": 0.25,
        "velocity": 0.54,
        "hand": "left"
      },
      {
        "midi": 57,
        "time": 337.75,
        "duration": 0.25,
        "velocity": 0.71,
        "hand": "left"
      },
      {
        "midi": 64,
        "time": 337.75,
        "duration": 0.25,
        "velocity": 0.71,
        "hand": "right"
      },
      {
        "midi": 66,
        "time": 337.75,
        "duration": 0.25,
        "velocity": 0.71,
        "hand": "right"
      },
      {
        "midi": 48,
        "time": 338,
        "duration": 0.25,
        "velocity": 0.54,
        "hand": "left"
      },
      {
        "midi": 52,
        "time": 338,
        "duration": 0.25,
        "velocity": 0.54,
        "hand": "left"
      },
      {
        "midi": 55,
        "time": 338,
        "duration": 0.25,
        "velocity": 0.71,
        "hand": "left"
      },
      {
        "midi": 58,
        "time": 338,
        "duration": 0.25,
        "velocity": 0.54,
        "hand": "left"
      },
      {
        "midi": 64,
        "time": 338,
        "duration": 0.25,
        "velocity": 0.71,
        "hand": "right"
      },
      {
        "midi": 66,
        "time": 338,
        "duration": 0.25,
        "velocity": 0.71,
        "hand": "right"
      },
      {
        "midi": 67,
        "time": 338,
        "duration": 0.5,
        "velocity": 0.71,
        "hand": "right"
      },
      {
        "midi": 48,
        "time": 338.25,
        "duration": 0.25,
        "velocity": 0.54,
        "hand": "left"
      },
      {
        "midi": 52,
        "time": 338.25,
        "duration": 0.25,
        "velocity": 0.54,
        "hand": "left"
      },
      {
        "midi": 55,
        "time": 338.25,
        "duration": 0.25,
        "velocity": 0.71,
        "hand": "left"
      },
      {
        "midi": 58,
        "time": 338.25,
        "duration": 0.25,
        "velocity": 0.54,
        "hand": "left"
      },
      {
        "midi": 64,
        "time": 338.25,
        "duration": 0.25,
        "velocity": 0.71,
        "hand": "right"
      },
      {
        "midi": 47,
        "time": 338.5,
        "duration": 0.25,
        "velocity": 0.54,
        "hand": "left"
      },
      {
        "midi": 52,
        "time": 338.5,
        "duration": 0.25,
        "velocity": 0.54,
        "hand": "left"
      },
      {
        "midi": 55,
        "time": 338.5,
        "duration": 0.25,
        "velocity": 0.71,
        "hand": "left"
      },
      {
        "midi": 59,
        "time": 338.5,
        "duration": 0.25,
        "velocity": 0.54,
        "hand": "left"
      },
      {
        "midi": 61,
        "time": 338.5,
        "duration": 0.25,
        "velocity": 0.71,
        "hand": "right"
      },
      {
        "midi": 47,
        "time": 338.75,
        "duration": 0.25,
        "velocity": 0.54,
        "hand": "left"
      },
      {
        "midi": 52,
        "time": 338.75,
        "duration": 0.25,
        "velocity": 0.54,
        "hand": "left"
      },
      {
        "midi": 55,
        "time": 338.75,
        "duration": 0.25,
        "velocity": 0.71,
        "hand": "left"
      },
      {
        "midi": 59,
        "time": 338.75,
        "duration": 0.25,
        "velocity": 0.54,
        "hand": "left"
      },
      {
        "midi": 61,
        "time": 338.75,
        "duration": 0.25,
        "velocity": 0.71,
        "hand": "right"
      },
      {
        "midi": 63,
        "time": 338.75,
        "duration": 0.25,
        "velocity": 0.71,
        "hand": "right"
      },
      {
        "midi": 46,
        "time": 339,
        "duration": 0.25,
        "velocity": 0.54,
        "hand": "left"
      },
      {
        "midi": 48,
        "time": 339,
        "duration": 0.25,
        "velocity": 0.54,
        "hand": "left"
      },
      {
        "midi": 52,
        "time": 339,
        "duration": 0.25,
        "velocity": 0.54,
        "hand": "left"
      },
      {
        "midi": 55,
        "time": 339,
        "duration": 0.25,
        "velocity": 0.71,
        "hand": "left"
      },
      {
        "midi": 60,
        "time": 339,
        "duration": 0.25,
        "velocity": 0.71,
        "hand": "right"
      },
      {
        "midi": 63,
        "time": 339,
        "duration": 0.25,
        "velocity": 0.71,
        "hand": "right"
      },
      {
        "midi": 64,
        "time": 339,
        "duration": 0.5,
        "velocity": 0.71,
        "hand": "right"
      },
      {
        "midi": 46,
        "time": 339.25,
        "duration": 0.25,
        "velocity": 0.54,
        "hand": "left"
      },
      {
        "midi": 48,
        "time": 339.25,
        "duration": 0.25,
        "velocity": 0.54,
        "hand": "left"
      },
      {
        "midi": 52,
        "time": 339.25,
        "duration": 0.25,
        "velocity": 0.54,
        "hand": "left"
      },
      {
        "midi": 55,
        "time": 339.25,
        "duration": 0.25,
        "velocity": 0.71,
        "hand": "left"
      },
      {
        "midi": 60,
        "time": 339.25,
        "duration": 0.25,
        "velocity": 0.71,
        "hand": "right"
      },
      {
        "midi": 45,
        "time": 339.5,
        "duration": 0.25,
        "velocity": 0.54,
        "hand": "left"
      },
      {
        "midi": 48,
        "time": 339.5,
        "duration": 0.25,
        "velocity": 0.54,
        "hand": "left"
      },
      {
        "midi": 52,
        "time": 339.5,
        "duration": 0.25,
        "velocity": 0.71,
        "hand": "left"
      },
      {
        "midi": 55,
        "time": 339.5,
        "duration": 0.25,
        "velocity": 0.71,
        "hand": "left"
      },
      {
        "midi": 45,
        "time": 339.75,
        "duration": 0.25,
        "velocity": 0.54,
        "hand": "left"
      },
      {
        "midi": 48,
        "time": 339.75,
        "duration": 0.25,
        "velocity": 0.54,
        "hand": "left"
      },
      {
        "midi": 52,
        "time": 339.75,
        "duration": 0.25,
        "velocity": 0.71,
        "hand": "left"
      },
      {
        "midi": 55,
        "time": 339.75,
        "duration": 0.25,
        "velocity": 0.71,
        "hand": "left"
      },
      {
        "midi": 57,
        "time": 339.75,
        "duration": 0.25,
        "velocity": 0.71,
        "hand": "left"
      },
      {
        "midi": 43,
        "time": 340,
        "duration": 0.5,
        "velocity": 0.54,
        "hand": "left"
      },
      {
        "midi": 46,
        "time": 340,
        "duration": 0.5,
        "velocity": 0.54,
        "hand": "left"
      },
      {
        "midi": 51,
        "time": 340,
        "duration": 0.25,
        "velocity": 0.71,
        "hand": "left"
      },
      {
        "midi": 55,
        "time": 340,
        "duration": 0.25,
        "velocity": 0.71,
        "hand": "left"
      },
      {
        "midi": 57,
        "time": 340,
        "duration": 0.25,
        "velocity": 0.71,
        "hand": "left"
      },
      {
        "midi": 58,
        "time": 340,
        "duration": 1.75,
        "velocity": 0.71,
        "hand": "left"
      },
      {
        "midi": 51,
        "time": 340.25,
        "duration": 0.25,
        "velocity": 0.71,
        "hand": "left"
      },
      {
        "midi": 55,
        "time": 340.25,
        "duration": 0.25,
        "velocity": 0.71,
        "hand": "left"
      },
      {
        "midi": 22,
        "time": 340.5,
        "duration": 0.125,
        "velocity": 0.54,
        "hand": "left"
      },
      {
        "midi": 27,
        "time": 340.5,
        "duration": 0.125,
        "velocity": 0.54,
        "hand": "left"
      },
      {
        "midi": 51,
        "time": 340.5,
        "duration": 0.25,
        "velocity": 0.71,
        "hand": "left"
      },
      {
        "midi": 55,
        "time": 340.5,
        "duration": 0.25,
        "velocity": 0.71,
        "hand": "left"
      },
      {
        "midi": 31,
        "time": 340.75,
        "duration": 0.125,
        "velocity": 0.54,
        "hand": "left"
      },
      {
        "midi": 34,
        "time": 340.75,
        "duration": 0.125,
        "velocity": 0.54,
        "hand": "left"
      },
      {
        "midi": 39,
        "time": 340.75,
        "duration": 0.125,
        "velocity": 0.54,
        "hand": "left"
      },
      {
        "midi": 51,
        "time": 340.75,
        "duration": 0.25,
        "velocity": 0.71,
        "hand": "left"
      },
      {
        "midi": 55,
        "time": 340.75,
        "duration": 0.25,
        "velocity": 0.71,
        "hand": "left"
      },
      {
        "midi": 43,
        "time": 341,
        "duration": 0.125,
        "velocity": 0.54,
        "hand": "left"
      },
      {
        "midi": 46,
        "time": 341,
        "duration": 0.25,
        "velocity": 0.54,
        "hand": "left"
      },
      {
        "midi": 51,
        "time": 341,
        "duration": 0.25,
        "velocity": 0.71,
        "hand": "left"
      },
      {
        "midi": 55,
        "time": 341,
        "duration": 0.25,
        "velocity": 0.71,
        "hand": "left"
      },
      {
        "midi": 51,
        "time": 341.25,
        "duration": 0.25,
        "velocity": 0.71,
        "hand": "left"
      },
      {
        "midi": 55,
        "time": 341.25,
        "duration": 0.25,
        "velocity": 0.71,
        "hand": "left"
      },
      {
        "midi": 51,
        "time": 341.5,
        "duration": 0.25,
        "velocity": 0.71,
        "hand": "left"
      },
      {
        "midi": 55,
        "time": 341.5,
        "duration": 0.25,
        "velocity": 0.71,
        "hand": "left"
      },
      {
        "midi": 63,
        "time": 341.5,
        "duration": 0.25,
        "velocity": 0.54,
        "hand": "right"
      },
      {
        "midi": 67,
        "time": 341.5,
        "duration": 0.25,
        "velocity": 0.54,
        "hand": "right"
      },
      {
        "midi": 70,
        "time": 341.5,
        "duration": 0.25,
        "velocity": 0.54,
        "hand": "right"
      },
      {
        "midi": 51,
        "time": 341.75,
        "duration": 0.25,
        "velocity": 0.71,
        "hand": "left"
      },
      {
        "midi": 55,
        "time": 341.75,
        "duration": 0.25,
        "velocity": 0.71,
        "hand": "left"
      },
      {
        "midi": 60,
        "time": 341.75,
        "duration": 0.25,
        "velocity": 0.71,
        "hand": "right"
      },
      {
        "midi": 51,
        "time": 342,
        "duration": 0.25,
        "velocity": 0.71,
        "hand": "left"
      },
      {
        "midi": 55,
        "time": 342,
        "duration": 0.25,
        "velocity": 0.71,
        "hand": "left"
      },
      {
        "midi": 58,
        "time": 342,
        "duration": 1.75,
        "velocity": 0.71,
        "hand": "left"
      },
      {
        "midi": 51,
        "time": 342.25,
        "duration": 0.25,
        "velocity": 0.71,
        "hand": "left"
      },
      {
        "midi": 55,
        "time": 342.25,
        "duration": 0.25,
        "velocity": 0.71,
        "hand": "left"
      },
      {
        "midi": 22,
        "time": 342.5,
        "duration": 0.125,
        "velocity": 0.54,
        "hand": "left"
      },
      {
        "midi": 27,
        "time": 342.5,
        "duration": 0.125,
        "velocity": 0.54,
        "hand": "left"
      },
      {
        "midi": 51,
        "time": 342.5,
        "duration": 0.25,
        "velocity": 0.71,
        "hand": "left"
      },
      {
        "midi": 55,
        "time": 342.5,
        "duration": 0.25,
        "velocity": 0.71,
        "hand": "left"
      },
      {
        "midi": 31,
        "time": 342.75,
        "duration": 0.125,
        "velocity": 0.54,
        "hand": "left"
      },
      {
        "midi": 34,
        "time": 342.75,
        "duration": 0.125,
        "velocity": 0.54,
        "hand": "left"
      },
      {
        "midi": 39,
        "time": 342.75,
        "duration": 0.125,
        "velocity": 0.54,
        "hand": "left"
      },
      {
        "midi": 51,
        "time": 342.75,
        "duration": 0.25,
        "velocity": 0.71,
        "hand": "left"
      },
      {
        "midi": 55,
        "time": 342.75,
        "duration": 0.25,
        "velocity": 0.71,
        "hand": "left"
      },
      {
        "midi": 43,
        "time": 343,
        "duration": 0.125,
        "velocity": 0.54,
        "hand": "left"
      },
      {
        "midi": 46,
        "time": 343,
        "duration": 0.25,
        "velocity": 0.54,
        "hand": "left"
      },
      {
        "midi": 51,
        "time": 343,
        "duration": 0.25,
        "velocity": 0.71,
        "hand": "left"
      },
      {
        "midi": 55,
        "time": 343,
        "duration": 0.25,
        "velocity": 0.71,
        "hand": "left"
      },
      {
        "midi": 51,
        "time": 343.25,
        "duration": 0.25,
        "velocity": 0.71,
        "hand": "left"
      },
      {
        "midi": 55,
        "time": 343.25,
        "duration": 0.25,
        "velocity": 0.71,
        "hand": "left"
      },
      {
        "midi": 51,
        "time": 343.5,
        "duration": 0.25,
        "velocity": 0.71,
        "hand": "left"
      },
      {
        "midi": 55,
        "time": 343.5,
        "duration": 0.25,
        "velocity": 0.71,
        "hand": "left"
      },
      {
        "midi": 63,
        "time": 343.5,
        "duration": 0.25,
        "velocity": 0.54,
        "hand": "right"
      },
      {
        "midi": 67,
        "time": 343.5,
        "duration": 0.25,
        "velocity": 0.54,
        "hand": "right"
      },
      {
        "midi": 70,
        "time": 343.5,
        "duration": 0.25,
        "velocity": 0.54,
        "hand": "right"
      },
      {
        "midi": 51,
        "time": 343.75,
        "duration": 0.25,
        "velocity": 0.71,
        "hand": "left"
      },
      {
        "midi": 55,
        "time": 343.75,
        "duration": 0.25,
        "velocity": 0.71,
        "hand": "left"
      },
      {
        "midi": 60,
        "time": 343.75,
        "duration": 0.25,
        "velocity": 0.71,
        "hand": "right"
      },
      {
        "midi": 51,
        "time": 344,
        "duration": 0.25,
        "velocity": 0.71,
        "hand": "left"
      },
      {
        "midi": 55,
        "time": 344,
        "duration": 0.25,
        "velocity": 0.71,
        "hand": "left"
      },
      {
        "midi": 58,
        "time": 344,
        "duration": 0.75,
        "velocity": 0.71,
        "hand": "left"
      },
      {
        "midi": 51,
        "time": 344.25,
        "duration": 0.25,
        "velocity": 0.71,
        "hand": "left"
      },
      {
        "midi": 55,
        "time": 344.25,
        "duration": 0.25,
        "velocity": 0.71,
        "hand": "left"
      },
      {
        "midi": 51,
        "time": 344.5,
        "duration": 0.25,
        "velocity": 0.71,
        "hand": "left"
      },
      {
        "midi": 55,
        "time": 344.5,
        "duration": 0.25,
        "velocity": 0.71,
        "hand": "left"
      },
      {
        "midi": 63,
        "time": 344.5,
        "duration": 0.25,
        "velocity": 0.54,
        "hand": "right"
      },
      {
        "midi": 67,
        "time": 344.5,
        "duration": 0.25,
        "velocity": 0.54,
        "hand": "right"
      },
      {
        "midi": 70,
        "time": 344.5,
        "duration": 0.25,
        "velocity": 0.54,
        "hand": "right"
      },
      {
        "midi": 51,
        "time": 344.75,
        "duration": 0.25,
        "velocity": 0.71,
        "hand": "left"
      },
      {
        "midi": 55,
        "time": 344.75,
        "duration": 0.25,
        "velocity": 0.71,
        "hand": "left"
      },
      {
        "midi": 60,
        "time": 344.75,
        "duration": 0.25,
        "velocity": 0.71,
        "hand": "right"
      },
      {
        "midi": 51,
        "time": 345,
        "duration": 0.25,
        "velocity": 0.71,
        "hand": "left"
      },
      {
        "midi": 55,
        "time": 345,
        "duration": 0.25,
        "velocity": 0.71,
        "hand": "left"
      },
      {
        "midi": 58,
        "time": 345,
        "duration": 0.75,
        "velocity": 0.71,
        "hand": "left"
      },
      {
        "midi": 51,
        "time": 345.25,
        "duration": 0.25,
        "velocity": 0.71,
        "hand": "left"
      },
      {
        "midi": 55,
        "time": 345.25,
        "duration": 0.25,
        "velocity": 0.71,
        "hand": "left"
      },
      {
        "midi": 51,
        "time": 345.5,
        "duration": 0.25,
        "velocity": 0.71,
        "hand": "left"
      },
      {
        "midi": 55,
        "time": 345.5,
        "duration": 0.25,
        "velocity": 0.71,
        "hand": "left"
      },
      {
        "midi": 63,
        "time": 345.5,
        "duration": 0.25,
        "velocity": 0.54,
        "hand": "right"
      },
      {
        "midi": 67,
        "time": 345.5,
        "duration": 0.25,
        "velocity": 0.54,
        "hand": "right"
      },
      {
        "midi": 70,
        "time": 345.5,
        "duration": 0.25,
        "velocity": 0.54,
        "hand": "right"
      },
      {
        "midi": 51,
        "time": 345.75,
        "duration": 0.25,
        "velocity": 0.71,
        "hand": "left"
      },
      {
        "midi": 55,
        "time": 345.75,
        "duration": 0.25,
        "velocity": 0.71,
        "hand": "left"
      },
      {
        "midi": 60,
        "time": 345.75,
        "duration": 0.25,
        "velocity": 0.71,
        "hand": "right"
      },
      {
        "midi": 51,
        "time": 346,
        "duration": 0.25,
        "velocity": 0.71,
        "hand": "left"
      },
      {
        "midi": 55,
        "time": 346,
        "duration": 0.25,
        "velocity": 0.71,
        "hand": "left"
      },
      {
        "midi": 58,
        "time": 346,
        "duration": 7.5,
        "velocity": 0.71,
        "hand": "left"
      },
      {
        "midi": 51,
        "time": 346.25,
        "duration": 0.25,
        "velocity": 0.71,
        "hand": "left"
      },
      {
        "midi": 55,
        "time": 346.25,
        "duration": 0.25,
        "velocity": 0.71,
        "hand": "left"
      },
      {
        "midi": 51,
        "time": 346.5,
        "duration": 0.25,
        "velocity": 0.71,
        "hand": "left"
      },
      {
        "midi": 55,
        "time": 346.5,
        "duration": 0.25,
        "velocity": 0.71,
        "hand": "left"
      },
      {
        "midi": 63,
        "time": 346.5,
        "duration": 1,
        "velocity": 0.54,
        "hand": "right"
      },
      {
        "midi": 67,
        "time": 346.5,
        "duration": 1,
        "velocity": 0.54,
        "hand": "right"
      },
      {
        "midi": 70,
        "time": 346.5,
        "duration": 1,
        "velocity": 0.54,
        "hand": "right"
      },
      {
        "midi": 51,
        "time": 346.75,
        "duration": 0.25,
        "velocity": 0.71,
        "hand": "left"
      },
      {
        "midi": 55,
        "time": 346.75,
        "duration": 0.25,
        "velocity": 0.71,
        "hand": "left"
      },
      {
        "midi": 51,
        "time": 347,
        "duration": 0.25,
        "velocity": 0.71,
        "hand": "left"
      },
      {
        "midi": 55,
        "time": 347,
        "duration": 0.25,
        "velocity": 0.71,
        "hand": "left"
      },
      {
        "midi": 51,
        "time": 347.25,
        "duration": 0.25,
        "velocity": 0.71,
        "hand": "left"
      },
      {
        "midi": 55,
        "time": 347.25,
        "duration": 0.25,
        "velocity": 0.71,
        "hand": "left"
      },
      {
        "midi": 22,
        "time": 347.5,
        "duration": 0.125,
        "velocity": 0.54,
        "hand": "left"
      },
      {
        "midi": 27,
        "time": 347.5,
        "duration": 0.125,
        "velocity": 0.54,
        "hand": "left"
      },
      {
        "midi": 51,
        "time": 347.5,
        "duration": 0.25,
        "velocity": 0.71,
        "hand": "left"
      },
      {
        "midi": 55,
        "time": 347.5,
        "duration": 0.25,
        "velocity": 0.71,
        "hand": "left"
      },
      {
        "midi": 31,
        "time": 347.75,
        "duration": 0.125,
        "velocity": 0.54,
        "hand": "left"
      },
      {
        "midi": 34,
        "time": 347.75,
        "duration": 0.125,
        "velocity": 0.54,
        "hand": "left"
      },
      {
        "midi": 39,
        "time": 347.75,
        "duration": 0.125,
        "velocity": 0.54,
        "hand": "left"
      },
      {
        "midi": 51,
        "time": 347.75,
        "duration": 0.25,
        "velocity": 0.71,
        "hand": "left"
      },
      {
        "midi": 55,
        "time": 347.75,
        "duration": 0.25,
        "velocity": 0.71,
        "hand": "left"
      },
      {
        "midi": 43,
        "time": 348,
        "duration": 0.125,
        "velocity": 0.54,
        "hand": "left"
      },
      {
        "midi": 46,
        "time": 348,
        "duration": 0.75,
        "velocity": 0.54,
        "hand": "left"
      },
      {
        "midi": 51,
        "time": 348,
        "duration": 0.25,
        "velocity": 0.71,
        "hand": "left"
      },
      {
        "midi": 55,
        "time": 348,
        "duration": 0.25,
        "velocity": 0.71,
        "hand": "left"
      },
      {
        "midi": 51,
        "time": 348.25,
        "duration": 0.25,
        "velocity": 0.71,
        "hand": "left"
      },
      {
        "midi": 55,
        "time": 348.25,
        "duration": 0.25,
        "velocity": 0.71,
        "hand": "left"
      },
      {
        "midi": 51,
        "time": 348.5,
        "duration": 0.25,
        "velocity": 0.71,
        "hand": "left"
      },
      {
        "midi": 55,
        "time": 348.5,
        "duration": 0.25,
        "velocity": 0.71,
        "hand": "left"
      },
      {
        "midi": 48,
        "time": 348.75,
        "duration": 0.25,
        "velocity": 0.54,
        "hand": "left"
      },
      {
        "midi": 51,
        "time": 348.75,
        "duration": 0.25,
        "velocity": 0.71,
        "hand": "left"
      },
      {
        "midi": 55,
        "time": 348.75,
        "duration": 0.25,
        "velocity": 0.71,
        "hand": "left"
      },
      {
        "midi": 46,
        "time": 349,
        "duration": 4.5,
        "velocity": 0.54,
        "hand": "left"
      },
      {
        "midi": 51,
        "time": 349,
        "duration": 0.25,
        "velocity": 0.71,
        "hand": "left"
      },
      {
        "midi": 55,
        "time": 349,
        "duration": 0.25,
        "velocity": 0.71,
        "hand": "left"
      },
      {
        "midi": 51,
        "time": 349.25,
        "duration": 0.25,
        "velocity": 0.71,
        "hand": "left"
      },
      {
        "midi": 55,
        "time": 349.25,
        "duration": 0.25,
        "velocity": 0.71,
        "hand": "left"
      },
      {
        "midi": 51,
        "time": 349.5,
        "duration": 0.25,
        "velocity": 0.71,
        "hand": "left"
      },
      {
        "midi": 55,
        "time": 349.5,
        "duration": 0.25,
        "velocity": 0.71,
        "hand": "left"
      },
      {
        "midi": 51,
        "time": 349.75,
        "duration": 0.25,
        "velocity": 0.71,
        "hand": "left"
      },
      {
        "midi": 55,
        "time": 349.75,
        "duration": 0.25,
        "velocity": 0.71,
        "hand": "left"
      },
      {
        "midi": 51,
        "time": 350,
        "duration": 0.25,
        "velocity": 0.71,
        "hand": "left"
      },
      {
        "midi": 55,
        "time": 350,
        "duration": 0.25,
        "velocity": 0.71,
        "hand": "left"
      },
      {
        "midi": 51,
        "time": 350.25,
        "duration": 3.25,
        "velocity": 0.71,
        "hand": "left"
      },
      {
        "midi": 55,
        "time": 350.25,
        "duration": 3.25,
        "velocity": 0.71,
        "hand": "left"
      },
      {
        "midi": 33,
        "time": 353.75,
        "duration": 0.25,
        "velocity": 0.71,
        "hand": "left"
      },
      {
        "midi": 34,
        "time": 353.75,
        "duration": 0.25,
        "velocity": 0.71,
        "hand": "left"
      },
      {
        "midi": 38,
        "time": 354,
        "duration": 0.25,
        "velocity": 0.71,
        "hand": "left"
      },
      {
        "midi": 39,
        "time": 354.25,
        "duration": 0.25,
        "velocity": 0.71,
        "hand": "left"
      },
      {
        "midi": 42,
        "time": 354.25,
        "duration": 0.25,
        "velocity": 0.71,
        "hand": "left"
      },
      {
        "midi": 43,
        "time": 354.5,
        "duration": 0.25,
        "velocity": 0.71,
        "hand": "left"
      },
      {
        "midi": 45,
        "time": 354.75,
        "duration": 0.25,
        "velocity": 0.71,
        "hand": "left"
      },
      {
        "midi": 46,
        "time": 354.75,
        "duration": 0.25,
        "velocity": 0.71,
        "hand": "left"
      },
      {
        "midi": 50,
        "time": 355,
        "duration": 0.25,
        "velocity": 0.71,
        "hand": "left"
      },
      {
        "midi": 51,
        "time": 355.25,
        "duration": 0.25,
        "velocity": 0.71,
        "hand": "left"
      },
      {
        "midi": 54,
        "time": 355.25,
        "duration": 0.25,
        "velocity": 0.71,
        "hand": "left"
      },
      {
        "midi": 55,
        "time": 355.5,
        "duration": 0.25,
        "velocity": 0.71,
        "hand": "left"
      },
      {
        "midi": 57,
        "time": 355.75,
        "duration": 0.25,
        "velocity": 0.71,
        "hand": "left"
      },
      {
        "midi": 58,
        "time": 355.75,
        "duration": 0.25,
        "velocity": 0.71,
        "hand": "left"
      },
      {
        "midi": 55,
        "time": 356,
        "duration": 0.125,
        "velocity": 0.71,
        "hand": "left"
      },
      {
        "midi": 57,
        "time": 356,
        "duration": 0.125,
        "velocity": 0.71,
        "hand": "left"
      },
      {
        "midi": 58,
        "time": 356.25,
        "duration": 0.125,
        "velocity": 0.71,
        "hand": "left"
      },
      {
        "midi": 62,
        "time": 356.25,
        "duration": 0.125,
        "velocity": 0.71,
        "hand": "right"
      },
      {
        "midi": 63,
        "time": 356.25,
        "duration": 0.125,
        "velocity": 0.71,
        "hand": "right"
      },
      {
        "midi": 66,
        "time": 356.5,
        "duration": 0.125,
        "velocity": 0.71,
        "hand": "right"
      },
      {
        "midi": 67,
        "time": 356.5,
        "duration": 0.125,
        "velocity": 0.71,
        "hand": "right"
      },
      {
        "midi": 69,
        "time": 356.5,
        "duration": 0.125,
        "velocity": 0.71,
        "hand": "right"
      },
      {
        "midi": 70,
        "time": 356.75,
        "duration": 0.125,
        "velocity": 0.71,
        "hand": "right"
      },
      {
        "midi": 74,
        "time": 356.75,
        "duration": 0.125,
        "velocity": 0.72,
        "hand": "right"
      },
      {
        "midi": 75,
        "time": 356.75,
        "duration": 0.125,
        "velocity": 0.72,
        "hand": "right"
      },
      {
        "midi": 78,
        "time": 357,
        "duration": 0.125,
        "velocity": 0.72,
        "hand": "right"
      },
      {
        "midi": 79,
        "time": 357,
        "duration": 0.125,
        "velocity": 0.72,
        "hand": "right"
      },
      {
        "midi": 81,
        "time": 357,
        "duration": 0.125,
        "velocity": 0.72,
        "hand": "right"
      },
      {
        "midi": 82,
        "time": 357.25,
        "duration": 0.125,
        "velocity": 0.72,
        "hand": "right"
      },
      {
        "midi": 86,
        "time": 357.25,
        "duration": 0.125,
        "velocity": 0.72,
        "hand": "right"
      },
      {
        "midi": 87,
        "time": 357.25,
        "duration": 0.125,
        "velocity": 0.72,
        "hand": "right"
      },
      {
        "midi": 90,
        "time": 357.5,
        "duration": 0.125,
        "velocity": 0.73,
        "hand": "right"
      },
      {
        "midi": 91,
        "time": 357.5,
        "duration": 0.125,
        "velocity": 0.73,
        "hand": "right"
      },
      {
        "midi": 93,
        "time": 357.5,
        "duration": 0.125,
        "velocity": 0.73,
        "hand": "right"
      },
      {
        "midi": 94,
        "time": 357.75,
        "duration": 0.125,
        "velocity": 0.74,
        "hand": "right"
      },
      {
        "midi": 98,
        "time": 357.75,
        "duration": 0.125,
        "velocity": 0.74,
        "hand": "right"
      },
      {
        "midi": 99,
        "time": 357.75,
        "duration": 0.125,
        "velocity": 0.74,
        "hand": "right"
      },
      {
        "midi": 95,
        "time": 358,
        "duration": 0.125,
        "velocity": 0.75,
        "hand": "right"
      },
      {
        "midi": 102,
        "time": 358,
        "duration": 0.125,
        "velocity": 0.74,
        "hand": "right"
      },
      {
        "midi": 103,
        "time": 358,
        "duration": 0.125,
        "velocity": 0.75,
        "hand": "right"
      },
      {
        "midi": 96,
        "time": 358.25,
        "duration": 0.125,
        "velocity": 0.75,
        "hand": "right"
      },
      {
        "midi": 98,
        "time": 358.25,
        "duration": 0.125,
        "velocity": 0.75,
        "hand": "right"
      },
      {
        "midi": 101,
        "time": 358.25,
        "duration": 0.125,
        "velocity": 0.75,
        "hand": "right"
      },
      {
        "midi": 95,
        "time": 358.5,
        "duration": 0.125,
        "velocity": 0.75,
        "hand": "right"
      },
      {
        "midi": 99,
        "time": 358.5,
        "duration": 0.125,
        "velocity": 0.75,
        "hand": "right"
      },
      {
        "midi": 103,
        "time": 358.5,
        "duration": 0.125,
        "velocity": 0.75,
        "hand": "right"
      },
      {
        "midi": 96,
        "time": 358.75,
        "duration": 0.125,
        "velocity": 0.75,
        "hand": "right"
      },
      {
        "midi": 98,
        "time": 358.75,
        "duration": 0.125,
        "velocity": 0.75,
        "hand": "right"
      },
      {
        "midi": 101,
        "time": 358.75,
        "duration": 0.125,
        "velocity": 0.75,
        "hand": "right"
      },
      {
        "midi": 95,
        "time": 359,
        "duration": 0.125,
        "velocity": 0.75,
        "hand": "right"
      },
      {
        "midi": 99,
        "time": 359,
        "duration": 0.125,
        "velocity": 0.75,
        "hand": "right"
      },
      {
        "midi": 103,
        "time": 359,
        "duration": 0.125,
        "velocity": 0.75,
        "hand": "right"
      },
      {
        "midi": 96,
        "time": 359.25,
        "duration": 0.125,
        "velocity": 0.75,
        "hand": "right"
      },
      {
        "midi": 98,
        "time": 359.25,
        "duration": 0.125,
        "velocity": 0.75,
        "hand": "right"
      },
      {
        "midi": 101,
        "time": 359.25,
        "duration": 0.125,
        "velocity": 0.75,
        "hand": "right"
      },
      {
        "midi": 95,
        "time": 359.5,
        "duration": 0.125,
        "velocity": 0.75,
        "hand": "right"
      },
      {
        "midi": 99,
        "time": 359.5,
        "duration": 0.125,
        "velocity": 0.75,
        "hand": "right"
      },
      {
        "midi": 103,
        "time": 359.5,
        "duration": 0.125,
        "velocity": 0.75,
        "hand": "right"
      },
      {
        "midi": 96,
        "time": 359.75,
        "duration": 0.125,
        "velocity": 0.75,
        "hand": "right"
      },
      {
        "midi": 98,
        "time": 359.75,
        "duration": 0.125,
        "velocity": 0.75,
        "hand": "right"
      },
      {
        "midi": 101,
        "time": 359.75,
        "duration": 0.125,
        "velocity": 0.75,
        "hand": "right"
      },
      {
        "midi": 99,
        "time": 360,
        "duration": 0.125,
        "velocity": 0.75,
        "hand": "right"
      },
      {
        "midi": 103,
        "time": 360,
        "duration": 1.75,
        "velocity": 0.75,
        "hand": "right"
      },
      {
        "midi": 98,
        "time": 361.75,
        "duration": 0.25,
        "velocity": 0.49,
        "hand": "right"
      },
      {
        "midi": 101,
        "time": 361.75,
        "duration": 0.25,
        "velocity": 0.49,
        "hand": "right"
      },
      {
        "midi": 93,
        "time": 362,
        "duration": 0.125,
        "velocity": 0.49,
        "hand": "right"
      },
      {
        "midi": 96,
        "time": 362,
        "duration": 0.125,
        "velocity": 0.49,
        "hand": "right"
      },
      {
        "midi": 99,
        "time": 362,
        "duration": 0.25,
        "velocity": 0.49,
        "hand": "right"
      },
      {
        "midi": 90,
        "time": 362.25,
        "duration": 0.125,
        "velocity": 0.49,
        "hand": "right"
      },
      {
        "midi": 92,
        "time": 362.25,
        "duration": 0.125,
        "velocity": 0.49,
        "hand": "right"
      },
      {
        "midi": 94,
        "time": 362.25,
        "duration": 0.125,
        "velocity": 0.49,
        "hand": "right"
      },
      {
        "midi": 86,
        "time": 362.5,
        "duration": 0.125,
        "velocity": 0.49,
        "hand": "right"
      },
      {
        "midi": 89,
        "time": 362.5,
        "duration": 0.125,
        "velocity": 0.49,
        "hand": "right"
      },
      {
        "midi": 91,
        "time": 362.5,
        "duration": 0.125,
        "velocity": 0.49,
        "hand": "right"
      },
      {
        "midi": 81,
        "time": 362.75,
        "duration": 0.125,
        "velocity": 0.49,
        "hand": "right"
      },
      {
        "midi": 84,
        "time": 362.75,
        "duration": 0.125,
        "velocity": 0.49,
        "hand": "right"
      },
      {
        "midi": 87,
        "time": 362.75,
        "duration": 0.125,
        "velocity": 0.49,
        "hand": "right"
      },
      {
        "midi": 78,
        "time": 363,
        "duration": 0.125,
        "velocity": 0.49,
        "hand": "right"
      },
      {
        "midi": 80,
        "time": 363,
        "duration": 0.125,
        "velocity": 0.49,
        "hand": "right"
      },
      {
        "midi": 82,
        "time": 363,
        "duration": 0.125,
        "velocity": 0.49,
        "hand": "right"
      },
      {
        "midi": 74,
        "time": 363.25,
        "duration": 0.125,
        "velocity": 0.49,
        "hand": "right"
      },
      {
        "midi": 77,
        "time": 363.25,
        "duration": 0.125,
        "velocity": 0.49,
        "hand": "right"
      },
      {
        "midi": 79,
        "time": 363.25,
        "duration": 0.125,
        "velocity": 0.49,
        "hand": "right"
      },
      {
        "midi": 69,
        "time": 363.5,
        "duration": 0.125,
        "velocity": 0.49,
        "hand": "right"
      },
      {
        "midi": 72,
        "time": 363.5,
        "duration": 0.125,
        "velocity": 0.49,
        "hand": "right"
      },
      {
        "midi": 75,
        "time": 363.5,
        "duration": 0.125,
        "velocity": 0.49,
        "hand": "right"
      },
      {
        "midi": 66,
        "time": 363.75,
        "duration": 0.125,
        "velocity": 0.49,
        "hand": "right"
      },
      {
        "midi": 68,
        "time": 363.75,
        "duration": 0.125,
        "velocity": 0.49,
        "hand": "right"
      },
      {
        "midi": 70,
        "time": 363.75,
        "duration": 0.125,
        "velocity": 0.49,
        "hand": "right"
      },
      {
        "midi": 62,
        "time": 364,
        "duration": 0.125,
        "velocity": 0.49,
        "hand": "right"
      },
      {
        "midi": 65,
        "time": 364,
        "duration": 0.125,
        "velocity": 0.49,
        "hand": "right"
      },
      {
        "midi": 67,
        "time": 364,
        "duration": 0.125,
        "velocity": 0.49,
        "hand": "right"
      },
      {
        "midi": 57,
        "time": 364.25,
        "duration": 0.125,
        "velocity": 0.49,
        "hand": "left"
      },
      {
        "midi": 60,
        "time": 364.25,
        "duration": 0.125,
        "velocity": 0.49,
        "hand": "right"
      },
      {
        "midi": 63,
        "time": 364.25,
        "duration": 0.125,
        "velocity": 0.49,
        "hand": "right"
      },
      {
        "midi": 58,
        "time": 364.5,
        "duration": 0.125,
        "velocity": 0.49,
        "hand": "left"
      },
      {
        "midi": 62,
        "time": 364.5,
        "duration": 0.125,
        "velocity": 0.49,
        "hand": "right"
      },
      {
        "midi": 65,
        "time": 364.5,
        "duration": 0.125,
        "velocity": 0.49,
        "hand": "right"
      },
      {
        "midi": 57,
        "time": 364.75,
        "duration": 0.125,
        "velocity": 0.49,
        "hand": "left"
      },
      {
        "midi": 60,
        "time": 364.75,
        "duration": 0.125,
        "velocity": 0.49,
        "hand": "right"
      },
      {
        "midi": 63,
        "time": 364.75,
        "duration": 0.125,
        "velocity": 0.49,
        "hand": "right"
      },
      {
        "midi": 58,
        "time": 365,
        "duration": 0.125,
        "velocity": 0.49,
        "hand": "left"
      },
      {
        "midi": 62,
        "time": 365,
        "duration": 0.125,
        "velocity": 0.49,
        "hand": "right"
      },
      {
        "midi": 65,
        "time": 365,
        "duration": 0.125,
        "velocity": 0.49,
        "hand": "right"
      },
      {
        "midi": 57,
        "time": 365.25,
        "duration": 0.125,
        "velocity": 0.49,
        "hand": "left"
      },
      {
        "midi": 60,
        "time": 365.25,
        "duration": 0.125,
        "velocity": 0.49,
        "hand": "right"
      },
      {
        "midi": 63,
        "time": 365.25,
        "duration": 0.125,
        "velocity": 0.49,
        "hand": "right"
      },
      {
        "midi": 58,
        "time": 365.5,
        "duration": 0.125,
        "velocity": 0.49,
        "hand": "left"
      },
      {
        "midi": 62,
        "time": 365.5,
        "duration": 0.125,
        "velocity": 0.49,
        "hand": "right"
      },
      {
        "midi": 65,
        "time": 365.5,
        "duration": 0.125,
        "velocity": 0.49,
        "hand": "right"
      },
      {
        "midi": 57,
        "time": 365.75,
        "duration": 0.125,
        "velocity": 0.49,
        "hand": "left"
      },
      {
        "midi": 60,
        "time": 365.75,
        "duration": 0.125,
        "velocity": 0.49,
        "hand": "right"
      },
      {
        "midi": 63,
        "time": 365.75,
        "duration": 0.125,
        "velocity": 0.49,
        "hand": "right"
      },
      {
        "midi": 58,
        "time": 366,
        "duration": 0.125,
        "velocity": 0.49,
        "hand": "left"
      },
      {
        "midi": 62,
        "time": 366,
        "duration": 0.25,
        "velocity": 0.49,
        "hand": "right"
      },
      {
        "midi": 63,
        "time": 366.25,
        "duration": 0.125,
        "velocity": 0.55,
        "hand": "right"
      },
      {
        "midi": 66,
        "time": 366.25,
        "duration": 0.125,
        "velocity": 0.57,
        "hand": "right"
      },
      {
        "midi": 67,
        "time": 366.5,
        "duration": 0.125,
        "velocity": 0.59,
        "hand": "right"
      },
      {
        "midi": 69,
        "time": 366.5,
        "duration": 0.125,
        "velocity": 0.61,
        "hand": "right"
      },
      {
        "midi": 70,
        "time": 366.5,
        "duration": 0.125,
        "velocity": 0.64,
        "hand": "right"
      },
      {
        "midi": 74,
        "time": 366.75,
        "duration": 0.125,
        "velocity": 0.66,
        "hand": "right"
      },
      {
        "midi": 75,
        "time": 366.75,
        "duration": 0.125,
        "velocity": 0.68,
        "hand": "right"
      },
      {
        "midi": 78,
        "time": 366.75,
        "duration": 0.125,
        "velocity": 0.7,
        "hand": "right"
      },
      {
        "midi": 79,
        "time": 367,
        "duration": 0.125,
        "velocity": 0.72,
        "hand": "right"
      },
      {
        "midi": 82,
        "time": 367,
        "duration": 1,
        "velocity": 0.75,
        "hand": "right"
      },
      {
        "midi": 79,
        "time": 368,
        "duration": 0.125,
        "velocity": 0.75,
        "hand": "right"
      },
      {
        "midi": 72,
        "time": 368.25,
        "duration": 0.125,
        "velocity": 0.75,
        "hand": "right"
      },
      {
        "midi": 75,
        "time": 368.25,
        "duration": 0.125,
        "velocity": 0.75,
        "hand": "right"
      },
      {
        "midi": 67,
        "time": 368.5,
        "duration": 0.125,
        "velocity": 0.75,
        "hand": "right"
      },
      {
        "midi": 70,
        "time": 368.5,
        "duration": 0.125,
        "velocity": 0.75,
        "hand": "right"
      },
      {
        "midi": 60,
        "time": 368.75,
        "duration": 0.125,
        "velocity": 0.75,
        "hand": "right"
      },
      {
        "midi": 63,
        "time": 368.75,
        "duration": 0.125,
        "velocity": 0.75,
        "hand": "right"
      },
      {
        "midi": 51,
        "time": 369,
        "duration": 0.125,
        "velocity": 0.75,
        "hand": "left"
      },
      {
        "midi": 55,
        "time": 369,
        "duration": 0.125,
        "velocity": 0.75,
        "hand": "left"
      },
      {
        "midi": 58,
        "time": 369,
        "duration": 0.125,
        "velocity": 0.75,
        "hand": "left"
      },
      {
        "midi": 46,
        "time": 369.25,
        "duration": 0.125,
        "velocity": 0.75,
        "hand": "left"
      },
      {
        "midi": 48,
        "time": 369.25,
        "duration": 0.125,
        "velocity": 0.75,
        "hand": "left"
      },
      {
        "midi": 39,
        "time": 369.5,
        "duration": 0.125,
        "velocity": 0.75,
        "hand": "left"
      },
      {
        "midi": 43,
        "time": 369.5,
        "duration": 0.125,
        "velocity": 0.75,
        "hand": "left"
      },
      {
        "midi": 34,
        "time": 369.75,
        "duration": 0.125,
        "velocity": 0.75,
        "hand": "left"
      },
      {
        "midi": 36,
        "time": 369.75,
        "duration": 0.125,
        "velocity": 0.75,
        "hand": "left"
      },
      {
        "midi": 27,
        "time": 370,
        "duration": 2,
        "velocity": 0.54,
        "hand": "left"
      },
      {
        "midi": 31,
        "time": 370,
        "duration": 0.125,
        "velocity": 0.75,
        "hand": "left"
      },
      {
        "midi": 31,
        "time": 372,
        "duration": 0.25,
        "velocity": 0.54,
        "hand": "left"
      },
      {
        "midi": 39,
        "time": 372,
        "duration": 0.25,
        "velocity": 0.71,
        "hand": "left"
      },
      {
        "midi": 34,
        "time": 372.25,
        "duration": 0.25,
        "velocity": 0.54,
        "hand": "left"
      },
      {
        "midi": 43,
        "time": 372.25,
        "duration": 0.25,
        "velocity": 0.71,
        "hand": "left"
      },
      {
        "midi": 39,
        "time": 372.75,
        "duration": 0.25,
        "velocity": 0.54,
        "hand": "left"
      },
      {
        "midi": 46,
        "time": 372.75,
        "duration": 0.25,
        "velocity": 0.71,
        "hand": "left"
      },
      {
        "midi": 43,
        "time": 373,
        "duration": 0.25,
        "velocity": 0.54,
        "hand": "left"
      },
      {
        "midi": 51,
        "time": 373,
        "duration": 0.25,
        "velocity": 0.71,
        "hand": "left"
      },
      {
        "midi": 46,
        "time": 373.25,
        "duration": 0.25,
        "velocity": 0.54,
        "hand": "left"
      },
      {
        "midi": 51,
        "time": 373.25,
        "duration": 0.25,
        "velocity": 0.54,
        "hand": "left"
      },
      {
        "midi": 55,
        "time": 373.25,
        "duration": 0.25,
        "velocity": 0.71,
        "hand": "left"
      },
      {
        "midi": 58,
        "time": 373.25,
        "duration": 0.25,
        "velocity": 0.71,
        "hand": "left"
      },
      {
        "midi": 55,
        "time": 373.5,
        "duration": 0.25,
        "velocity": 0.54,
        "hand": "left"
      },
      {
        "midi": 58,
        "time": 373.5,
        "duration": 0.25,
        "velocity": 0.71,
        "hand": "left"
      },
      {
        "midi": 63,
        "time": 373.5,
        "duration": 0.25,
        "velocity": 0.71,
        "hand": "right"
      },
      {
        "midi": 67,
        "time": 373.5,
        "duration": 0.25,
        "velocity": 0.75,
        "hand": "right"
      },
      {
        "midi": 63,
        "time": 373.75,
        "duration": 0.25,
        "velocity": 0.71,
        "hand": "right"
      },
      {
        "midi": 70,
        "time": 373.75,
        "duration": 0.25,
        "velocity": 0.75,
        "hand": "right"
      },
      {
        "midi": 67,
        "time": 374,
        "duration": 0.25,
        "velocity": 0.71,
        "hand": "right"
      },
      {
        "midi": 70,
        "time": 374,
        "duration": 0.25,
        "velocity": 0.71,
        "hand": "right"
      },
      {
        "midi": 75,
        "time": 374,
        "duration": 0.25,
        "velocity": 0.75,
        "hand": "right"
      },
      {
        "midi": 79,
        "time": 374,
        "duration": 0.25,
        "velocity": 0.75,
        "hand": "right"
      },
      {
        "midi": 75,
        "time": 374.25,
        "duration": 0.25,
        "velocity": 0.71,
        "hand": "right"
      },
      {
        "midi": 82,
        "time": 374.25,
        "duration": 0.25,
        "velocity": 0.75,
        "hand": "right"
      },
      {
        "midi": 79,
        "time": 374.5,
        "duration": 0.25,
        "velocity": 0.71,
        "hand": "right"
      },
      {
        "midi": 82,
        "time": 374.5,
        "duration": 0.25,
        "velocity": 0.71,
        "hand": "right"
      },
      {
        "midi": 87,
        "time": 374.5,
        "duration": 0.25,
        "velocity": 0.75,
        "hand": "right"
      },
      {
        "midi": 91,
        "time": 374.5,
        "duration": 0.25,
        "velocity": 0.75,
        "hand": "right"
      },
      {
        "midi": 87,
        "time": 374.75,
        "duration": 0.25,
        "velocity": 0.71,
        "hand": "right"
      },
      {
        "midi": 91,
        "time": 374.75,
        "duration": 0.25,
        "velocity": 0.71,
        "hand": "right"
      },
      {
        "midi": 94,
        "time": 374.75,
        "duration": 0.25,
        "velocity": 0.75,
        "hand": "right"
      },
      {
        "midi": 99,
        "time": 374.75,
        "duration": 0.25,
        "velocity": 0.75,
        "hand": "right"
      },
      {
        "midi": 94,
        "time": 375,
        "duration": 0.5,
        "velocity": 0.71,
        "hand": "right"
      },
      {
        "midi": 103,
        "time": 375,
        "duration": 0.5,
        "velocity": 0.75,
        "hand": "right"
      },
      {
        "midi": 31,
        "time": 376,
        "duration": 0.25,
        "velocity": 0.54,
        "hand": "left"
      },
      {
        "midi": 43,
        "time": 376,
        "duration": 0.25,
        "velocity": 0.75,
        "hand": "left"
      },
      {
        "midi": 55,
        "time": 376,
        "duration": 0.25,
        "velocity": 0.75,
        "hand": "left"
      },
      {
        "midi": 34,
        "time": 376.25,
        "duration": 0.25,
        "velocity": 0.54,
        "hand": "left"
      },
      {
        "midi": 46,
        "time": 376.25,
        "duration": 0.25,
        "velocity": 0.75,
        "hand": "left"
      },
      {
        "midi": 58,
        "time": 376.25,
        "duration": 0.25,
        "velocity": 0.75,
        "hand": "left"
      },
      {
        "midi": 36,
        "time": 376.5,
        "duration": 0.25,
        "velocity": 0.71,
        "hand": "left"
      },
      {
        "midi": 48,
        "time": 376.5,
        "duration": 0.25,
        "velocity": 0.71,
        "hand": "left"
      },
      {
        "midi": 60,
        "time": 376.5,
        "duration": 0.25,
        "velocity": 0.71,
        "hand": "right"
      },
      {
        "midi": 32,
        "time": 376.75,
        "duration": 0.25,
        "velocity": 0.71,
        "hand": "left"
      },
      {
        "midi": 44,
        "time": 376.75,
        "duration": 0.25,
        "velocity": 0.71,
        "hand": "left"
      },
      {
        "midi": 56,
        "time": 376.75,
        "duration": 0.25,
        "velocity": 0.71,
        "hand": "left"
      },
      {
        "midi": 34,
        "time": 377,
        "duration": 0.25,
        "velocity": 0.71,
        "hand": "left"
      },
      {
        "midi": 46,
        "time": 377,
        "duration": 0.25,
        "velocity": 0.71,
        "hand": "left"
      },
      {
        "midi": 58,
        "time": 377,
        "duration": 0.25,
        "velocity": 0.71,
        "hand": "left"
      },
      {
        "midi": 38,
        "time": 377.25,
        "duration": 0.25,
        "velocity": 0.71,
        "hand": "left"
      },
      {
        "midi": 50,
        "time": 377.25,
        "duration": 0.25,
        "velocity": 0.71,
        "hand": "left"
      },
      {
        "midi": 62,
        "time": 377.25,
        "duration": 0.25,
        "velocity": 0.71,
        "hand": "right"
      },
      {
        "midi": 39,
        "time": 377.5,
        "duration": 0.25,
        "velocity": 0.71,
        "hand": "left"
      },
      {
        "midi": 51,
        "time": 377.5,
        "duration": 0.25,
        "velocity": 0.71,
        "hand": "left"
      },
      {
        "midi": 63,
        "time": 377.5,
        "duration": 0.25,
        "velocity": 0.71,
        "hand": "right"
      },
      {
        "midi": 36,
        "time": 377.75,
        "duration": 0.25,
        "velocity": 0.71,
        "hand": "left"
      },
      {
        "midi": 48,
        "time": 377.75,
        "duration": 0.25,
        "velocity": 0.71,
        "hand": "left"
      },
      {
        "midi": 60,
        "time": 377.75,
        "duration": 0.25,
        "velocity": 0.71,
        "hand": "right"
      },
      {
        "midi": 40,
        "time": 378,
        "duration": 0.25,
        "velocity": 0.71,
        "hand": "left"
      },
      {
        "midi": 52,
        "time": 378,
        "duration": 0.25,
        "velocity": 0.71,
        "hand": "left"
      },
      {
        "midi": 64,
        "time": 378,
        "duration": 0.25,
        "velocity": 0.71,
        "hand": "right"
      },
      {
        "midi": 37,
        "time": 378.25,
        "duration": 0.25,
        "velocity": 0.71,
        "hand": "left"
      },
      {
        "midi": 49,
        "time": 378.25,
        "duration": 0.25,
        "velocity": 0.71,
        "hand": "left"
      },
      {
        "midi": 61,
        "time": 378.25,
        "duration": 0.25,
        "velocity": 0.71,
        "hand": "right"
      },
      {
        "midi": 41,
        "time": 378.5,
        "duration": 0.25,
        "velocity": 0.71,
        "hand": "left"
      },
      {
        "midi": 53,
        "time": 378.5,
        "duration": 0.25,
        "velocity": 0.71,
        "hand": "left"
      },
      {
        "midi": 65,
        "time": 378.5,
        "duration": 0.25,
        "velocity": 0.71,
        "hand": "right"
      },
      {
        "midi": 38,
        "time": 378.75,
        "duration": 0.25,
        "velocity": 0.71,
        "hand": "left"
      },
      {
        "midi": 50,
        "time": 378.75,
        "duration": 0.25,
        "velocity": 0.71,
        "hand": "left"
      },
      {
        "midi": 62,
        "time": 378.75,
        "duration": 0.25,
        "velocity": 0.71,
        "hand": "right"
      },
      {
        "midi": 43,
        "time": 379,
        "duration": 0.25,
        "velocity": 0.71,
        "hand": "left"
      },
      {
        "midi": 55,
        "time": 379,
        "duration": 0.25,
        "velocity": 0.71,
        "hand": "left"
      },
      {
        "midi": 67,
        "time": 379,
        "duration": 0.25,
        "velocity": 0.71,
        "hand": "right"
      },
      {
        "midi": 39,
        "time": 379.25,
        "duration": 0.25,
        "velocity": 0.71,
        "hand": "left"
      },
      {
        "midi": 52,
        "time": 379.25,
        "duration": 0.25,
        "velocity": 0.71,
        "hand": "left"
      },
      {
        "midi": 64,
        "time": 379.25,
        "duration": 0.25,
        "velocity": 0.71,
        "hand": "right"
      },
      {
        "midi": 44,
        "time": 379.5,
        "duration": 0.25,
        "velocity": 0.71,
        "hand": "left"
      },
      {
        "midi": 56,
        "time": 379.5,
        "duration": 0.25,
        "velocity": 0.71,
        "hand": "left"
      },
      {
        "midi": 68,
        "time": 379.5,
        "duration": 0.25,
        "velocity": 0.71,
        "hand": "right"
      },
      {
        "midi": 41,
        "time": 379.75,
        "duration": 0.25,
        "velocity": 0.71,
        "hand": "left"
      },
      {
        "midi": 53,
        "time": 379.75,
        "duration": 0.25,
        "velocity": 0.71,
        "hand": "left"
      },
      {
        "midi": 65,
        "time": 379.75,
        "duration": 0.25,
        "velocity": 0.71,
        "hand": "right"
      },
      {
        "midi": 43,
        "time": 380,
        "duration": 0.25,
        "velocity": 0.71,
        "hand": "left"
      },
      {
        "midi": 55,
        "time": 380,
        "duration": 0.25,
        "velocity": 0.71,
        "hand": "left"
      },
      {
        "midi": 67,
        "time": 380,
        "duration": 0.25,
        "velocity": 0.71,
        "hand": "right"
      },
      {
        "midi": 46,
        "time": 380.25,
        "duration": 0.25,
        "velocity": 0.71,
        "hand": "left"
      },
      {
        "midi": 58,
        "time": 380.25,
        "duration": 0.25,
        "velocity": 0.71,
        "hand": "left"
      },
      {
        "midi": 70,
        "time": 380.25,
        "duration": 0.25,
        "velocity": 0.71,
        "hand": "right"
      },
      {
        "midi": 48,
        "time": 380.5,
        "duration": 0.25,
        "velocity": 0.71,
        "hand": "left"
      },
      {
        "midi": 60,
        "time": 380.5,
        "duration": 0.25,
        "velocity": 0.71,
        "hand": "right"
      },
      {
        "midi": 72,
        "time": 380.5,
        "duration": 0.25,
        "velocity": 0.71,
        "hand": "right"
      },
      {
        "midi": 44,
        "time": 380.75,
        "duration": 0.25,
        "velocity": 0.71,
        "hand": "left"
      },
      {
        "midi": 56,
        "time": 380.75,
        "duration": 0.25,
        "velocity": 0.71,
        "hand": "left"
      },
      {
        "midi": 68,
        "time": 380.75,
        "duration": 0.25,
        "velocity": 0.71,
        "hand": "right"
      },
      {
        "midi": 46,
        "time": 381,
        "duration": 0.25,
        "velocity": 0.71,
        "hand": "left"
      },
      {
        "midi": 58,
        "time": 381,
        "duration": 0.25,
        "velocity": 0.71,
        "hand": "left"
      },
      {
        "midi": 70,
        "time": 381,
        "duration": 0.25,
        "velocity": 0.71,
        "hand": "right"
      },
      {
        "midi": 50,
        "time": 381.25,
        "duration": 0.25,
        "velocity": 0.71,
        "hand": "left"
      },
      {
        "midi": 62,
        "time": 381.25,
        "duration": 0.25,
        "velocity": 0.71,
        "hand": "right"
      },
      {
        "midi": 74,
        "time": 381.25,
        "duration": 0.25,
        "velocity": 0.71,
        "hand": "right"
      },
      {
        "midi": 51,
        "time": 381.5,
        "duration": 0.25,
        "velocity": 0.71,
        "hand": "left"
      },
      {
        "midi": 63,
        "time": 381.5,
        "duration": 0.25,
        "velocity": 0.71,
        "hand": "right"
      },
      {
        "midi": 75,
        "time": 381.5,
        "duration": 0.25,
        "velocity": 0.71,
        "hand": "right"
      },
      {
        "midi": 48,
        "time": 381.75,
        "duration": 0.25,
        "velocity": 0.71,
        "hand": "left"
      },
      {
        "midi": 60,
        "time": 381.75,
        "duration": 0.25,
        "velocity": 0.71,
        "hand": "right"
      },
      {
        "midi": 72,
        "time": 381.75,
        "duration": 0.25,
        "velocity": 0.71,
        "hand": "right"
      },
      {
        "midi": 52,
        "time": 382,
        "duration": 0.25,
        "velocity": 0.71,
        "hand": "left"
      },
      {
        "midi": 64,
        "time": 382,
        "duration": 0.25,
        "velocity": 0.71,
        "hand": "right"
      },
      {
        "midi": 76,
        "time": 382,
        "duration": 0.25,
        "velocity": 0.71,
        "hand": "right"
      },
      {
        "midi": 49,
        "time": 382.25,
        "duration": 0.25,
        "velocity": 0.71,
        "hand": "left"
      },
      {
        "midi": 61,
        "time": 382.25,
        "duration": 0.25,
        "velocity": 0.71,
        "hand": "right"
      },
      {
        "midi": 73,
        "time": 382.25,
        "duration": 0.25,
        "velocity": 0.71,
        "hand": "right"
      },
      {
        "midi": 53,
        "time": 382.5,
        "duration": 0.25,
        "velocity": 0.71,
        "hand": "left"
      },
      {
        "midi": 65,
        "time": 382.5,
        "duration": 0.25,
        "velocity": 0.71,
        "hand": "right"
      },
      {
        "midi": 77,
        "time": 382.5,
        "duration": 0.25,
        "velocity": 0.71,
        "hand": "right"
      },
      {
        "midi": 50,
        "time": 382.75,
        "duration": 0.25,
        "velocity": 0.71,
        "hand": "left"
      },
      {
        "midi": 62,
        "time": 382.75,
        "duration": 0.25,
        "velocity": 0.71,
        "hand": "right"
      },
      {
        "midi": 74,
        "time": 382.75,
        "duration": 0.25,
        "velocity": 0.71,
        "hand": "right"
      },
      {
        "midi": 55,
        "time": 383,
        "duration": 0.25,
        "velocity": 0.71,
        "hand": "left"
      },
      {
        "midi": 67,
        "time": 383,
        "duration": 0.25,
        "velocity": 0.71,
        "hand": "right"
      },
      {
        "midi": 79,
        "time": 383,
        "duration": 0.25,
        "velocity": 0.71,
        "hand": "right"
      },
      {
        "midi": 51,
        "time": 383.25,
        "duration": 0.25,
        "velocity": 0.71,
        "hand": "left"
      },
      {
        "midi": 64,
        "time": 383.25,
        "duration": 0.25,
        "velocity": 0.71,
        "hand": "right"
      },
      {
        "midi": 76,
        "time": 383.25,
        "duration": 0.25,
        "velocity": 0.71,
        "hand": "right"
      },
      {
        "midi": 56,
        "time": 383.5,
        "duration": 0.25,
        "velocity": 0.71,
        "hand": "left"
      },
      {
        "midi": 68,
        "time": 383.5,
        "duration": 0.25,
        "velocity": 0.71,
        "hand": "right"
      },
      {
        "midi": 80,
        "time": 383.5,
        "duration": 0.25,
        "velocity": 0.71,
        "hand": "right"
      },
      {
        "midi": 53,
        "time": 383.75,
        "duration": 0.25,
        "velocity": 0.71,
        "hand": "left"
      },
      {
        "midi": 65,
        "time": 383.75,
        "duration": 0.25,
        "velocity": 0.71,
        "hand": "right"
      },
      {
        "midi": 77,
        "time": 383.75,
        "duration": 0.25,
        "velocity": 0.71,
        "hand": "right"
      },
      {
        "midi": 58,
        "time": 384,
        "duration": 0.25,
        "velocity": 0.71,
        "hand": "left"
      },
      {
        "midi": 70,
        "time": 384,
        "duration": 0.25,
        "velocity": 0.71,
        "hand": "right"
      },
      {
        "midi": 82,
        "time": 384,
        "duration": 0.25,
        "velocity": 0.71,
        "hand": "right"
      },
      {
        "midi": 55,
        "time": 384.25,
        "duration": 0.25,
        "velocity": 0.71,
        "hand": "left"
      },
      {
        "midi": 67,
        "time": 384.25,
        "duration": 0.25,
        "velocity": 0.71,
        "hand": "right"
      },
      {
        "midi": 79,
        "time": 384.25,
        "duration": 0.25,
        "velocity": 0.71,
        "hand": "right"
      },
      {
        "midi": 60,
        "time": 384.5,
        "duration": 0.25,
        "velocity": 0.71,
        "hand": "right"
      },
      {
        "midi": 72,
        "time": 384.5,
        "duration": 0.25,
        "velocity": 0.71,
        "hand": "right"
      },
      {
        "midi": 84,
        "time": 384.5,
        "duration": 0.25,
        "velocity": 0.71,
        "hand": "right"
      },
      {
        "midi": 56,
        "time": 384.75,
        "duration": 0.25,
        "velocity": 0.71,
        "hand": "left"
      },
      {
        "midi": 68,
        "time": 384.75,
        "duration": 0.25,
        "velocity": 0.71,
        "hand": "right"
      },
      {
        "midi": 80,
        "time": 384.75,
        "duration": 0.25,
        "velocity": 0.71,
        "hand": "right"
      },
      {
        "midi": 58,
        "time": 385,
        "duration": 0.25,
        "velocity": 0.71,
        "hand": "left"
      },
      {
        "midi": 70,
        "time": 385,
        "duration": 0.25,
        "velocity": 0.71,
        "hand": "right"
      },
      {
        "midi": 82,
        "time": 385,
        "duration": 0.25,
        "velocity": 0.71,
        "hand": "right"
      },
      {
        "midi": 62,
        "time": 385.25,
        "duration": 0.25,
        "velocity": 0.71,
        "hand": "right"
      },
      {
        "midi": 74,
        "time": 385.25,
        "duration": 0.25,
        "velocity": 0.71,
        "hand": "right"
      },
      {
        "midi": 86,
        "time": 385.25,
        "duration": 0.25,
        "velocity": 0.71,
        "hand": "right"
      },
      {
        "midi": 63,
        "time": 385.5,
        "duration": 0.25,
        "velocity": 0.71,
        "hand": "right"
      },
      {
        "midi": 75,
        "time": 385.5,
        "duration": 0.25,
        "velocity": 0.71,
        "hand": "right"
      },
      {
        "midi": 87,
        "time": 385.5,
        "duration": 0.25,
        "velocity": 0.71,
        "hand": "right"
      },
      {
        "midi": 60,
        "time": 385.75,
        "duration": 0.25,
        "velocity": 0.71,
        "hand": "right"
      },
      {
        "midi": 72,
        "time": 385.75,
        "duration": 0.25,
        "velocity": 0.71,
        "hand": "right"
      },
      {
        "midi": 84,
        "time": 385.75,
        "duration": 0.25,
        "velocity": 0.71,
        "hand": "right"
      },
      {
        "midi": 62,
        "time": 386,
        "duration": 0.25,
        "velocity": 0.71,
        "hand": "right"
      },
      {
        "midi": 74,
        "time": 386,
        "duration": 0.25,
        "velocity": 0.71,
        "hand": "right"
      },
      {
        "midi": 86,
        "time": 386,
        "duration": 0.25,
        "velocity": 0.71,
        "hand": "right"
      },
      {
        "midi": 65,
        "time": 386.25,
        "duration": 0.25,
        "velocity": 0.71,
        "hand": "right"
      },
      {
        "midi": 77,
        "time": 386.25,
        "duration": 0.25,
        "velocity": 0.71,
        "hand": "right"
      },
      {
        "midi": 89,
        "time": 386.25,
        "duration": 0.25,
        "velocity": 0.71,
        "hand": "right"
      },
      {
        "midi": 67,
        "time": 386.5,
        "duration": 0.25,
        "velocity": 0.71,
        "hand": "right"
      },
      {
        "midi": 79,
        "time": 386.5,
        "duration": 0.25,
        "velocity": 0.71,
        "hand": "right"
      },
      {
        "midi": 91,
        "time": 386.5,
        "duration": 0.25,
        "velocity": 0.71,
        "hand": "right"
      },
      {
        "midi": 63,
        "time": 386.75,
        "duration": 0.25,
        "velocity": 0.71,
        "hand": "right"
      },
      {
        "midi": 75,
        "time": 386.75,
        "duration": 0.25,
        "velocity": 0.71,
        "hand": "right"
      },
      {
        "midi": 87,
        "time": 386.75,
        "duration": 0.25,
        "velocity": 0.71,
        "hand": "right"
      },
      {
        "midi": 65,
        "time": 387,
        "duration": 0.25,
        "velocity": 0.71,
        "hand": "right"
      },
      {
        "midi": 77,
        "time": 387,
        "duration": 0.25,
        "velocity": 0.71,
        "hand": "right"
      },
      {
        "midi": 89,
        "time": 387,
        "duration": 0.25,
        "velocity": 0.71,
        "hand": "right"
      },
      {
        "midi": 68,
        "time": 387.25,
        "duration": 0.25,
        "velocity": 0.71,
        "hand": "right"
      },
      {
        "midi": 80,
        "time": 387.25,
        "duration": 0.25,
        "velocity": 0.71,
        "hand": "right"
      },
      {
        "midi": 92,
        "time": 387.25,
        "duration": 0.25,
        "velocity": 0.71,
        "hand": "right"
      },
      {
        "midi": 70,
        "time": 387.5,
        "duration": 0.25,
        "velocity": 0.71,
        "hand": "right"
      },
      {
        "midi": 82,
        "time": 387.5,
        "duration": 0.25,
        "velocity": 0.71,
        "hand": "right"
      },
      {
        "midi": 94,
        "time": 387.5,
        "duration": 0.25,
        "velocity": 0.71,
        "hand": "right"
      },
      {
        "midi": 66,
        "time": 387.75,
        "duration": 0.25,
        "velocity": 0.71,
        "hand": "right"
      },
      {
        "midi": 78,
        "time": 387.75,
        "duration": 0.25,
        "velocity": 0.71,
        "hand": "right"
      },
      {
        "midi": 90,
        "time": 387.75,
        "duration": 0.25,
        "velocity": 0.71,
        "hand": "right"
      },
      {
        "midi": 67,
        "time": 388,
        "duration": 0.25,
        "velocity": 0.71,
        "hand": "right"
      },
      {
        "midi": 79,
        "time": 388,
        "duration": 0.25,
        "velocity": 0.71,
        "hand": "right"
      },
      {
        "midi": 91,
        "time": 388,
        "duration": 0.25,
        "velocity": 0.71,
        "hand": "right"
      },
      {
        "midi": 70,
        "time": 388.25,
        "duration": 0.25,
        "velocity": 0.71,
        "hand": "right"
      },
      {
        "midi": 82,
        "time": 388.25,
        "duration": 0.25,
        "velocity": 0.71,
        "hand": "right"
      },
      {
        "midi": 94,
        "time": 388.25,
        "duration": 0.25,
        "velocity": 0.71,
        "hand": "right"
      },
      {
        "midi": 72,
        "time": 388.5,
        "duration": 0.5,
        "velocity": 0.71,
        "hand": "right"
      },
      {
        "midi": 84,
        "time": 388.5,
        "duration": 0.5,
        "velocity": 0.84,
        "hand": "right"
      },
      {
        "midi": 96,
        "time": 388.5,
        "duration": 0.5,
        "velocity": 0.84,
        "hand": "right"
      },
      {
        "midi": 44,
        "time": 389,
        "duration": 1,
        "velocity": 0.71,
        "hand": "left"
      },
      {
        "midi": 50,
        "time": 389,
        "duration": 1,
        "velocity": 0.71,
        "hand": "left"
      },
      {
        "midi": 53,
        "time": 389,
        "duration": 1,
        "velocity": 0.71,
        "hand": "left"
      },
      {
        "midi": 56,
        "time": 389,
        "duration": 1,
        "velocity": 0.71,
        "hand": "left"
      },
      {
        "midi": 60,
        "time": 389,
        "duration": 1,
        "velocity": 0.84,
        "hand": "right"
      },
      {
        "midi": 65,
        "time": 389,
        "duration": 1,
        "velocity": 0.84,
        "hand": "right"
      },
      {
        "midi": 72,
        "time": 389,
        "duration": 1,
        "velocity": 0.84,
        "hand": "right"
      },
      {
        "midi": 65,
        "time": 390,
        "duration": 0.25,
        "velocity": 0.71,
        "hand": "right"
      },
      {
        "midi": 77,
        "time": 390,
        "duration": 0.25,
        "velocity": 0.84,
        "hand": "right"
      },
      {
        "midi": 89,
        "time": 390,
        "duration": 0.25,
        "velocity": 0.84,
        "hand": "right"
      },
      {
        "midi": 68,
        "time": 390.25,
        "duration": 0.25,
        "velocity": 0.71,
        "hand": "right"
      },
      {
        "midi": 80,
        "time": 390.25,
        "duration": 0.25,
        "velocity": 0.84,
        "hand": "right"
      },
      {
        "midi": 92,
        "time": 390.25,
        "duration": 0.25,
        "velocity": 0.84,
        "hand": "right"
      },
      {
        "midi": 70,
        "time": 390.5,
        "duration": 0.5,
        "velocity": 0.71,
        "hand": "right"
      },
      {
        "midi": 82,
        "time": 390.5,
        "duration": 0.5,
        "velocity": 0.84,
        "hand": "right"
      },
      {
        "midi": 94,
        "time": 390.5,
        "duration": 0.5,
        "velocity": 0.84,
        "hand": "right"
      },
      {
        "midi": 43,
        "time": 391,
        "duration": 1,
        "velocity": 0.71,
        "hand": "left"
      },
      {
        "midi": 46,
        "time": 391,
        "duration": 1,
        "velocity": 0.71,
        "hand": "left"
      },
      {
        "midi": 51,
        "time": 391,
        "duration": 1,
        "velocity": 0.71,
        "hand": "left"
      },
      {
        "midi": 55,
        "time": 391,
        "duration": 1,
        "velocity": 0.71,
        "hand": "left"
      },
      {
        "midi": 58,
        "time": 391,
        "duration": 1,
        "velocity": 0.84,
        "hand": "left"
      },
      {
        "midi": 63,
        "time": 391,
        "duration": 1,
        "velocity": 0.84,
        "hand": "right"
      },
      {
        "midi": 67,
        "time": 391,
        "duration": 1,
        "velocity": 0.84,
        "hand": "right"
      },
      {
        "midi": 70,
        "time": 391,
        "duration": 1,
        "velocity": 0.84,
        "hand": "right"
      },
      {
        "midi": 67,
        "time": 392,
        "duration": 0.25,
        "velocity": 0.71,
        "hand": "right"
      },
      {
        "midi": 79,
        "time": 392,
        "duration": 0.25,
        "velocity": 0.84,
        "hand": "right"
      },
      {
        "midi": 91,
        "time": 392,
        "duration": 0.25,
        "velocity": 0.84,
        "hand": "right"
      },
      {
        "midi": 70,
        "time": 392.25,
        "duration": 0.25,
        "velocity": 0.71,
        "hand": "right"
      },
      {
        "midi": 82,
        "time": 392.25,
        "duration": 0.25,
        "velocity": 0.84,
        "hand": "right"
      },
      {
        "midi": 94,
        "time": 392.25,
        "duration": 0.25,
        "velocity": 0.84,
        "hand": "right"
      },
      {
        "midi": 72,
        "time": 392.5,
        "duration": 0.5,
        "velocity": 0.71,
        "hand": "right"
      },
      {
        "midi": 84,
        "time": 392.5,
        "duration": 0.5,
        "velocity": 0.84,
        "hand": "right"
      },
      {
        "midi": 96,
        "time": 392.5,
        "duration": 0.5,
        "velocity": 0.84,
        "hand": "right"
      },
      {
        "midi": 44,
        "time": 393,
        "duration": 1,
        "velocity": 0.71,
        "hand": "left"
      },
      {
        "midi": 50,
        "time": 393,
        "duration": 1,
        "velocity": 0.71,
        "hand": "left"
      },
      {
        "midi": 53,
        "time": 393,
        "duration": 1,
        "velocity": 0.71,
        "hand": "left"
      },
      {
        "midi": 56,
        "time": 393,
        "duration": 1,
        "velocity": 0.71,
        "hand": "left"
      },
      {
        "midi": 60,
        "time": 393,
        "duration": 1,
        "velocity": 0.84,
        "hand": "right"
      },
      {
        "midi": 65,
        "time": 393,
        "duration": 1,
        "velocity": 0.84,
        "hand": "right"
      },
      {
        "midi": 72,
        "time": 393,
        "duration": 1,
        "velocity": 0.84,
        "hand": "right"
      },
      {
        "midi": 65,
        "time": 394,
        "duration": 0.25,
        "velocity": 0.71,
        "hand": "right"
      },
      {
        "midi": 77,
        "time": 394,
        "duration": 0.25,
        "velocity": 0.84,
        "hand": "right"
      },
      {
        "midi": 89,
        "time": 394,
        "duration": 0.25,
        "velocity": 0.84,
        "hand": "right"
      },
      {
        "midi": 68,
        "time": 394.25,
        "duration": 0.25,
        "velocity": 0.71,
        "hand": "right"
      },
      {
        "midi": 80,
        "time": 394.25,
        "duration": 0.25,
        "velocity": 0.84,
        "hand": "right"
      },
      {
        "midi": 92,
        "time": 394.25,
        "duration": 0.25,
        "velocity": 0.84,
        "hand": "right"
      },
      {
        "midi": 70,
        "time": 394.5,
        "duration": 0.5,
        "velocity": 0.71,
        "hand": "right"
      },
      {
        "midi": 82,
        "time": 394.5,
        "duration": 0.5,
        "velocity": 0.84,
        "hand": "right"
      },
      {
        "midi": 94,
        "time": 394.5,
        "duration": 0.5,
        "velocity": 0.84,
        "hand": "right"
      },
      {
        "midi": 43,
        "time": 395,
        "duration": 1,
        "velocity": 0.71,
        "hand": "left"
      },
      {
        "midi": 46,
        "time": 395,
        "duration": 1,
        "velocity": 0.71,
        "hand": "left"
      },
      {
        "midi": 51,
        "time": 395,
        "duration": 1,
        "velocity": 0.71,
        "hand": "left"
      },
      {
        "midi": 55,
        "time": 395,
        "duration": 1,
        "velocity": 0.71,
        "hand": "left"
      },
      {
        "midi": 58,
        "time": 395,
        "duration": 1,
        "velocity": 0.84,
        "hand": "left"
      },
      {
        "midi": 63,
        "time": 395,
        "duration": 1,
        "velocity": 0.84,
        "hand": "right"
      },
      {
        "midi": 67,
        "time": 395,
        "duration": 1,
        "velocity": 0.84,
        "hand": "right"
      },
      {
        "midi": 70,
        "time": 395,
        "duration": 1,
        "velocity": 0.84,
        "hand": "right"
      },
      {
        "midi": 79,
        "time": 396,
        "duration": 0.25,
        "velocity": 0.84,
        "hand": "right"
      },
      {
        "midi": 82,
        "time": 396.25,
        "duration": 0.25,
        "velocity": 0.84,
        "hand": "right"
      },
      {
        "midi": 44,
        "time": 396.5,
        "duration": 0.5,
        "velocity": 0.71,
        "hand": "left"
      },
      {
        "midi": 84,
        "time": 396.5,
        "duration": 0.25,
        "velocity": 0.84,
        "hand": "right"
      },
      {
        "midi": 72,
        "time": 396.75,
        "duration": 0.25,
        "velocity": 0.84,
        "hand": "right"
      },
      {
        "midi": 79,
        "time": 396.75,
        "duration": 0.25,
        "velocity": 0.84,
        "hand": "right"
      },
      {
        "midi": 56,
        "time": 397,
        "duration": 0.5,
        "velocity": 0.71,
        "hand": "left"
      },
      {
        "midi": 60,
        "time": 397,
        "duration": 0.5,
        "velocity": 0.71,
        "hand": "right"
      },
      {
        "midi": 64,
        "time": 397,
        "duration": 0.5,
        "velocity": 0.71,
        "hand": "right"
      },
      {
        "midi": 84,
        "time": 397,
        "duration": 0.25,
        "velocity": 0.84,
        "hand": "right"
      },
      {
        "midi": 72,
        "time": 397.25,
        "duration": 0.25,
        "velocity": 0.84,
        "hand": "right"
      },
      {
        "midi": 79,
        "time": 397.25,
        "duration": 0.25,
        "velocity": 0.84,
        "hand": "right"
      },
      {
        "midi": 68,
        "time": 397.5,
        "duration": 0.5,
        "velocity": 0.71,
        "hand": "right"
      },
      {
        "midi": 72,
        "time": 397.5,
        "duration": 0.25,
        "velocity": 1,
        "hand": "right"
      },
      {
        "midi": 77,
        "time": 397.5,
        "duration": 0.25,
        "velocity": 1,
        "hand": "right"
      },
      {
        "midi": 65,
        "time": 397.75,
        "duration": 0.25,
        "velocity": 1,
        "hand": "right"
      },
      {
        "midi": 77,
        "time": 398,
        "duration": 0.25,
        "velocity": 1,
        "hand": "right"
      },
      {
        "midi": 80,
        "time": 398.25,
        "duration": 0.25,
        "velocity": 1,
        "hand": "right"
      },
      {
        "midi": 43,
        "time": 398.5,
        "duration": 0.5,
        "velocity": 0.71,
        "hand": "left"
      },
      {
        "midi": 82,
        "time": 398.5,
        "duration": 0.25,
        "velocity": 1,
        "hand": "right"
      },
      {
        "midi": 70,
        "time": 398.75,
        "duration": 0.25,
        "velocity": 1,
        "hand": "right"
      },
      {
        "midi": 77,
        "time": 398.75,
        "duration": 0.25,
        "velocity": 1,
        "hand": "right"
      },
      {
        "midi": 55,
        "time": 399,
        "duration": 0.5,
        "velocity": 0.71,
        "hand": "left"
      },
      {
        "midi": 58,
        "time": 399,
        "duration": 0.5,
        "velocity": 0.71,
        "hand": "left"
      },
      {
        "midi": 62,
        "time": 399,
        "duration": 0.5,
        "velocity": 0.71,
        "hand": "right"
      },
      {
        "midi": 82,
        "time": 399,
        "duration": 0.25,
        "velocity": 1,
        "hand": "right"
      },
      {
        "midi": 70,
        "time": 399.25,
        "duration": 0.25,
        "velocity": 1,
        "hand": "right"
      },
      {
        "midi": 77,
        "time": 399.25,
        "duration": 0.25,
        "velocity": 1,
        "hand": "right"
      },
      {
        "midi": 67,
        "time": 399.5,
        "duration": 0.5,
        "velocity": 0.71,
        "hand": "right"
      },
      {
        "midi": 70,
        "time": 399.5,
        "duration": 0.25,
        "velocity": 1,
        "hand": "right"
      },
      {
        "midi": 75,
        "time": 399.5,
        "duration": 0.25,
        "velocity": 1,
        "hand": "right"
      },
      {
        "midi": 63,
        "time": 399.75,
        "duration": 0.25,
        "velocity": 1,
        "hand": "right"
      },
      {
        "midi": 79,
        "time": 400,
        "duration": 0.25,
        "velocity": 1,
        "hand": "right"
      },
      {
        "midi": 82,
        "time": 400.25,
        "duration": 0.25,
        "velocity": 1,
        "hand": "right"
      },
      {
        "midi": 44,
        "time": 400.5,
        "duration": 0.5,
        "velocity": 0.71,
        "hand": "left"
      },
      {
        "midi": 84,
        "time": 400.5,
        "duration": 0.25,
        "velocity": 1,
        "hand": "right"
      },
      {
        "midi": 72,
        "time": 400.75,
        "duration": 0.25,
        "velocity": 1,
        "hand": "right"
      },
      {
        "midi": 79,
        "time": 400.75,
        "duration": 0.25,
        "velocity": 1,
        "hand": "right"
      },
      {
        "midi": 56,
        "time": 401,
        "duration": 0.5,
        "velocity": 0.71,
        "hand": "left"
      },
      {
        "midi": 60,
        "time": 401,
        "duration": 0.5,
        "velocity": 0.71,
        "hand": "right"
      },
      {
        "midi": 64,
        "time": 401,
        "duration": 0.5,
        "velocity": 0.71,
        "hand": "right"
      },
      {
        "midi": 84,
        "time": 401,
        "duration": 0.25,
        "velocity": 1,
        "hand": "right"
      },
      {
        "midi": 72,
        "time": 401.25,
        "duration": 0.25,
        "velocity": 1,
        "hand": "right"
      },
      {
        "midi": 79,
        "time": 401.25,
        "duration": 0.25,
        "velocity": 1,
        "hand": "right"
      },
      {
        "midi": 68,
        "time": 401.5,
        "duration": 0.5,
        "velocity": 0.71,
        "hand": "right"
      },
      {
        "midi": 72,
        "time": 401.5,
        "duration": 0.25,
        "velocity": 1,
        "hand": "right"
      },
      {
        "midi": 77,
        "time": 401.5,
        "duration": 0.25,
        "velocity": 1,
        "hand": "right"
      },
      {
        "midi": 65,
        "time": 401.75,
        "duration": 0.25,
        "velocity": 1,
        "hand": "right"
      },
      {
        "midi": 77,
        "time": 402,
        "duration": 0.25,
        "velocity": 1,
        "hand": "right"
      },
      {
        "midi": 80,
        "time": 402.25,
        "duration": 0.25,
        "velocity": 1,
        "hand": "right"
      },
      {
        "midi": 43,
        "time": 402.5,
        "duration": 0.5,
        "velocity": 0.71,
        "hand": "left"
      },
      {
        "midi": 82,
        "time": 402.5,
        "duration": 0.25,
        "velocity": 1,
        "hand": "right"
      },
      {
        "midi": 70,
        "time": 402.75,
        "duration": 0.25,
        "velocity": 1,
        "hand": "right"
      },
      {
        "midi": 77,
        "time": 402.75,
        "duration": 0.25,
        "velocity": 1,
        "hand": "right"
      },
      {
        "midi": 55,
        "time": 403,
        "duration": 0.5,
        "velocity": 0.71,
        "hand": "left"
      },
      {
        "midi": 58,
        "time": 403,
        "duration": 0.5,
        "velocity": 0.71,
        "hand": "left"
      },
      {
        "midi": 62,
        "time": 403,
        "duration": 0.5,
        "velocity": 0.71,
        "hand": "right"
      },
      {
        "midi": 82,
        "time": 403,
        "duration": 0.25,
        "velocity": 1,
        "hand": "right"
      },
      {
        "midi": 70,
        "time": 403.25,
        "duration": 0.25,
        "velocity": 1,
        "hand": "right"
      },
      {
        "midi": 77,
        "time": 403.25,
        "duration": 0.25,
        "velocity": 1,
        "hand": "right"
      },
      {
        "midi": 67,
        "time": 403.5,
        "duration": 0.5,
        "velocity": 0.71,
        "hand": "right"
      },
      {
        "midi": 70,
        "time": 403.5,
        "duration": 0.25,
        "velocity": 1,
        "hand": "right"
      },
      {
        "midi": 75,
        "time": 403.5,
        "duration": 0.25,
        "velocity": 1,
        "hand": "right"
      },
      {
        "midi": 63,
        "time": 403.75,
        "duration": 0.25,
        "velocity": 1,
        "hand": "right"
      },
      {
        "midi": 31,
        "time": 404,
        "duration": 0.25,
        "velocity": 0.71,
        "hand": "left"
      },
      {
        "midi": 43,
        "time": 404,
        "duration": 0.25,
        "velocity": 0.71,
        "hand": "left"
      },
      {
        "midi": 34,
        "time": 404.25,
        "duration": 0.25,
        "velocity": 0.71,
        "hand": "left"
      },
      {
        "midi": 46,
        "time": 404.25,
        "duration": 0.25,
        "velocity": 0.71,
        "hand": "left"
      },
      {
        "midi": 36,
        "time": 404.5,
        "duration": 0.5,
        "velocity": 0.71,
        "hand": "left"
      },
      {
        "midi": 48,
        "time": 404.5,
        "duration": 0.5,
        "velocity": 0.71,
        "hand": "left"
      },
      {
        "midi": 63,
        "time": 404.5,
        "duration": 0.5,
        "velocity": 0.75,
        "hand": "right"
      },
      {
        "midi": 68,
        "time": 404.5,
        "duration": 0.5,
        "velocity": 0.75,
        "hand": "right"
      },
      {
        "midi": 36,
        "time": 405,
        "duration": 0.5,
        "velocity": 0.71,
        "hand": "left"
      },
      {
        "midi": 48,
        "time": 405,
        "duration": 0.5,
        "velocity": 0.71,
        "hand": "left"
      },
      {
        "midi": 63,
        "time": 405,
        "duration": 0.5,
        "velocity": 0.75,
        "hand": "right"
      },
      {
        "midi": 68,
        "time": 405,
        "duration": 0.5,
        "velocity": 0.75,
        "hand": "right"
      },
      {
        "midi": 75,
        "time": 405,
        "duration": 0.5,
        "velocity": 0.75,
        "hand": "right"
      },
      {
        "midi": 36,
        "time": 405.5,
        "duration": 0.5,
        "velocity": 0.71,
        "hand": "left"
      },
      {
        "midi": 48,
        "time": 405.5,
        "duration": 0.5,
        "velocity": 0.71,
        "hand": "left"
      },
      {
        "midi": 63,
        "time": 405.5,
        "duration": 0.5,
        "velocity": 0.71,
        "hand": "right"
      },
      {
        "midi": 68,
        "time": 405.5,
        "duration": 0.5,
        "velocity": 0.75,
        "hand": "right"
      },
      {
        "midi": 31,
        "time": 406,
        "duration": 0.25,
        "velocity": 0.71,
        "hand": "left"
      },
      {
        "midi": 43,
        "time": 406,
        "duration": 0.25,
        "velocity": 0.71,
        "hand": "left"
      },
      {
        "midi": 63,
        "time": 406,
        "duration": 0.25,
        "velocity": 0.71,
        "hand": "right"
      },
      {
        "midi": 65,
        "time": 406,
        "duration": 0.25,
        "velocity": 0.71,
        "hand": "right"
      },
      {
        "midi": 70,
        "time": 406,
        "duration": 0.25,
        "velocity": 0.75,
        "hand": "right"
      },
      {
        "midi": 32,
        "time": 406.25,
        "duration": 0.25,
        "velocity": 0.71,
        "hand": "left"
      },
      {
        "midi": 44,
        "time": 406.25,
        "duration": 0.25,
        "velocity": 0.71,
        "hand": "left"
      },
      {
        "midi": 63,
        "time": 406.25,
        "duration": 0.25,
        "velocity": 0.71,
        "hand": "right"
      },
      {
        "midi": 68,
        "time": 406.25,
        "duration": 0.25,
        "velocity": 0.75,
        "hand": "right"
      },
      {
        "midi": 72,
        "time": 406.25,
        "duration": 0.25,
        "velocity": 0.75,
        "hand": "right"
      },
      {
        "midi": 34,
        "time": 406.5,
        "duration": 0.5,
        "velocity": 0.71,
        "hand": "left"
      },
      {
        "midi": 46,
        "time": 406.5,
        "duration": 0.5,
        "velocity": 0.71,
        "hand": "left"
      },
      {
        "midi": 63,
        "time": 406.5,
        "duration": 0.5,
        "velocity": 0.75,
        "hand": "right"
      },
      {
        "midi": 67,
        "time": 406.5,
        "duration": 0.5,
        "velocity": 0.75,
        "hand": "right"
      },
      {
        "midi": 34,
        "time": 407,
        "duration": 0.5,
        "velocity": 0.71,
        "hand": "left"
      },
      {
        "midi": 46,
        "time": 407,
        "duration": 0.5,
        "velocity": 0.71,
        "hand": "left"
      },
      {
        "midi": 67,
        "time": 407,
        "duration": 0.5,
        "velocity": 0.75,
        "hand": "right"
      },
      {
        "midi": 75,
        "time": 407,
        "duration": 0.5,
        "velocity": 0.75,
        "hand": "right"
      },
      {
        "midi": 34,
        "time": 407.5,
        "duration": 0.5,
        "velocity": 0.71,
        "hand": "left"
      },
      {
        "midi": 46,
        "time": 407.5,
        "duration": 0.5,
        "velocity": 0.71,
        "hand": "left"
      },
      {
        "midi": 63,
        "time": 407.5,
        "duration": 0.5,
        "velocity": 0.71,
        "hand": "right"
      },
      {
        "midi": 67,
        "time": 407.5,
        "duration": 0.5,
        "velocity": 0.75,
        "hand": "right"
      },
      {
        "midi": 39,
        "time": 408,
        "duration": 0.25,
        "velocity": 0.71,
        "hand": "left"
      },
      {
        "midi": 51,
        "time": 408,
        "duration": 0.25,
        "velocity": 0.71,
        "hand": "left"
      },
      {
        "midi": 60,
        "time": 408,
        "duration": 0.25,
        "velocity": 0.71,
        "hand": "right"
      },
      {
        "midi": 62,
        "time": 408,
        "duration": 0.25,
        "velocity": 0.71,
        "hand": "right"
      },
      {
        "midi": 67,
        "time": 408,
        "duration": 0.25,
        "velocity": 0.75,
        "hand": "right"
      },
      {
        "midi": 38,
        "time": 408.25,
        "duration": 0.25,
        "velocity": 0.71,
        "hand": "left"
      },
      {
        "midi": 50,
        "time": 408.25,
        "duration": 0.25,
        "velocity": 0.71,
        "hand": "left"
      },
      {
        "midi": 58,
        "time": 408.25,
        "duration": 0.25,
        "velocity": 0.71,
        "hand": "left"
      },
      {
        "midi": 67,
        "time": 408.25,
        "duration": 0.25,
        "velocity": 0.75,
        "hand": "right"
      },
      {
        "midi": 36,
        "time": 408.5,
        "duration": 0.5,
        "velocity": 0.71,
        "hand": "left"
      },
      {
        "midi": 48,
        "time": 408.5,
        "duration": 0.5,
        "velocity": 0.71,
        "hand": "left"
      },
      {
        "midi": 63,
        "time": 408.5,
        "duration": 0.5,
        "velocity": 0.75,
        "hand": "right"
      },
      {
        "midi": 68,
        "time": 408.5,
        "duration": 0.5,
        "velocity": 0.75,
        "hand": "right"
      },
      {
        "midi": 36,
        "time": 409,
        "duration": 0.5,
        "velocity": 0.71,
        "hand": "left"
      },
      {
        "midi": 48,
        "time": 409,
        "duration": 0.5,
        "velocity": 0.71,
        "hand": "left"
      },
      {
        "midi": 63,
        "time": 409,
        "duration": 0.5,
        "velocity": 0.75,
        "hand": "right"
      },
      {
        "midi": 68,
        "time": 409,
        "duration": 0.5,
        "velocity": 0.75,
        "hand": "right"
      },
      {
        "midi": 75,
        "time": 409,
        "duration": 0.5,
        "velocity": 0.75,
        "hand": "right"
      },
      {
        "midi": 36,
        "time": 409.5,
        "duration": 0.5,
        "velocity": 0.71,
        "hand": "left"
      },
      {
        "midi": 48,
        "time": 409.5,
        "duration": 0.5,
        "velocity": 0.71,
        "hand": "left"
      },
      {
        "midi": 63,
        "time": 409.5,
        "duration": 0.5,
        "velocity": 0.71,
        "hand": "right"
      },
      {
        "midi": 68,
        "time": 409.5,
        "duration": 0.5,
        "velocity": 0.75,
        "hand": "right"
      },
      {
        "midi": 31,
        "time": 410,
        "duration": 0.25,
        "velocity": 0.71,
        "hand": "left"
      },
      {
        "midi": 43,
        "time": 410,
        "duration": 0.25,
        "velocity": 0.71,
        "hand": "left"
      },
      {
        "midi": 63,
        "time": 410,
        "duration": 0.25,
        "velocity": 0.71,
        "hand": "right"
      },
      {
        "midi": 65,
        "time": 410,
        "duration": 0.25,
        "velocity": 0.71,
        "hand": "right"
      },
      {
        "midi": 70,
        "time": 410,
        "duration": 0.25,
        "velocity": 0.75,
        "hand": "right"
      },
      {
        "midi": 32,
        "time": 410.25,
        "duration": 0.25,
        "velocity": 0.71,
        "hand": "left"
      },
      {
        "midi": 44,
        "time": 410.25,
        "duration": 0.25,
        "velocity": 0.71,
        "hand": "left"
      },
      {
        "midi": 63,
        "time": 410.25,
        "duration": 0.25,
        "velocity": 0.71,
        "hand": "right"
      },
      {
        "midi": 68,
        "time": 410.25,
        "duration": 0.25,
        "velocity": 0.75,
        "hand": "right"
      },
      {
        "midi": 72,
        "time": 410.25,
        "duration": 0.25,
        "velocity": 0.75,
        "hand": "right"
      },
      {
        "midi": 34,
        "time": 410.5,
        "duration": 0.5,
        "velocity": 0.71,
        "hand": "left"
      },
      {
        "midi": 46,
        "time": 410.5,
        "duration": 0.5,
        "velocity": 0.71,
        "hand": "left"
      },
      {
        "midi": 63,
        "time": 410.5,
        "duration": 0.5,
        "velocity": 0.75,
        "hand": "right"
      },
      {
        "midi": 67,
        "time": 410.5,
        "duration": 0.5,
        "velocity": 0.75,
        "hand": "right"
      },
      {
        "midi": 34,
        "time": 411,
        "duration": 0.5,
        "velocity": 0.71,
        "hand": "left"
      },
      {
        "midi": 46,
        "time": 411,
        "duration": 0.5,
        "velocity": 0.71,
        "hand": "left"
      },
      {
        "midi": 67,
        "time": 411,
        "duration": 0.5,
        "velocity": 0.75,
        "hand": "right"
      },
      {
        "midi": 75,
        "time": 411,
        "duration": 0.5,
        "velocity": 0.75,
        "hand": "right"
      },
      {
        "midi": 34,
        "time": 411.5,
        "duration": 0.5,
        "velocity": 0.71,
        "hand": "left"
      },
      {
        "midi": 46,
        "time": 411.5,
        "duration": 0.5,
        "velocity": 0.71,
        "hand": "left"
      },
      {
        "midi": 63,
        "time": 411.5,
        "duration": 0.5,
        "velocity": 0.71,
        "hand": "right"
      },
      {
        "midi": 67,
        "time": 411.5,
        "duration": 0.5,
        "velocity": 0.75,
        "hand": "right"
      },
      {
        "midi": 39,
        "time": 412,
        "duration": 0.25,
        "velocity": 0.71,
        "hand": "left"
      },
      {
        "midi": 51,
        "time": 412,
        "duration": 0.25,
        "velocity": 0.71,
        "hand": "left"
      },
      {
        "midi": 60,
        "time": 412,
        "duration": 0.25,
        "velocity": 0.71,
        "hand": "right"
      },
      {
        "midi": 62,
        "time": 412,
        "duration": 0.25,
        "velocity": 0.71,
        "hand": "right"
      },
      {
        "midi": 67,
        "time": 412,
        "duration": 0.25,
        "velocity": 0.75,
        "hand": "right"
      },
      {
        "midi": 39,
        "time": 412.25,
        "duration": 0.25,
        "velocity": 0.71,
        "hand": "left"
      },
      {
        "midi": 51,
        "time": 412.25,
        "duration": 0.25,
        "velocity": 0.71,
        "hand": "left"
      },
      {
        "midi": 58,
        "time": 412.25,
        "duration": 0.25,
        "velocity": 0.71,
        "hand": "left"
      },
      {
        "midi": 67,
        "time": 412.25,
        "duration": 0.25,
        "velocity": 0.75,
        "hand": "right"
      },
      {
        "midi": 38,
        "time": 412.5,
        "duration": 0.125,
        "velocity": 0.71,
        "hand": "left"
      },
      {
        "midi": 50,
        "time": 412.5,
        "duration": 2,
        "velocity": 0.71,
        "hand": "left"
      },
      {
        "midi": 58,
        "time": 412.5,
        "duration": 0.25,
        "velocity": 0.8,
        "hand": "left"
      },
      {
        "midi": 62,
        "time": 412.75,
        "duration": 0.25,
        "velocity": 0.8,
        "hand": "right"
      },
      {
        "midi": 70,
        "time": 412.75,
        "duration": 0.25,
        "velocity": 0.8,
        "hand": "right"
      },
      {
        "midi": 51,
        "time": 413,
        "duration": 0.5,
        "velocity": 0.71,
        "hand": "left"
      },
      {
        "midi": 60,
        "time": 413,
        "duration": 0.25,
        "velocity": 0.8,
        "hand": "right"
      },
      {
        "midi": 67,
        "time": 413,
        "duration": 0.25,
        "velocity": 0.8,
        "hand": "right"
      },
      {
        "midi": 67,
        "time": 413.25,
        "duration": 0.25,
        "velocity": 0.8,
        "hand": "right"
      },
      {
        "midi": 72,
        "time": 413.25,
        "duration": 0.25,
        "velocity": 0.8,
        "hand": "right"
      },
      {
        "midi": 52,
        "time": 413.5,
        "duration": 0.5,
        "velocity": 0.71,
        "hand": "left"
      },
      {
        "midi": 61,
        "time": 413.5,
        "duration": 0.25,
        "velocity": 0.8,
        "hand": "right"
      },
      {
        "midi": 70,
        "time": 413.5,
        "duration": 0.25,
        "velocity": 0.8,
        "hand": "right"
      },
      {
        "midi": 67,
        "time": 413.75,
        "duration": 0.25,
        "velocity": 0.8,
        "hand": "right"
      },
      {
        "midi": 73,
        "time": 413.75,
        "duration": 0.25,
        "velocity": 0.8,
        "hand": "right"
      },
      {
        "midi": 54,
        "time": 414,
        "duration": 0.25,
        "velocity": 0.71,
        "hand": "left"
      },
      {
        "midi": 55,
        "time": 414,
        "duration": 0.25,
        "velocity": 0.71,
        "hand": "left"
      },
      {
        "midi": 64,
        "time": 414,
        "duration": 0.25,
        "velocity": 0.8,
        "hand": "right"
      },
      {
        "midi": 69,
        "time": 414,
        "duration": 0.25,
        "velocity": 0.8,
        "hand": "right"
      },
      {
        "midi": 74,
        "time": 414,
        "duration": 0.25,
        "velocity": 0.8,
        "hand": "right"
      },
      {
        "midi": 57,
        "time": 414.25,
        "duration": 0.25,
        "velocity": 0.71,
        "hand": "left"
      },
      {
        "midi": 66,
        "time": 414.25,
        "duration": 0.25,
        "velocity": 0.8,
        "hand": "right"
      },
      {
        "midi": 70,
        "time": 414.25,
        "duration": 0.25,
        "velocity": 0.8,
        "hand": "right"
      },
      {
        "midi": 76,
        "time": 414.25,
        "duration": 0.25,
        "velocity": 0.8,
        "hand": "right"
      },
      {
        "midi": 50,
        "time": 414.5,
        "duration": 1,
        "velocity": 0.71,
        "hand": "left"
      },
      {
        "midi": 55,
        "time": 414.5,
        "duration": 1,
        "velocity": 0.71,
        "hand": "left"
      },
      {
        "midi": 58,
        "time": 414.5,
        "duration": 0.5,
        "velocity": 0.71,
        "hand": "left"
      },
      {
        "midi": 67,
        "time": 414.5,
        "duration": 0.25,
        "velocity": 0.8,
        "hand": "right"
      },
      {
        "midi": 72,
        "time": 414.5,
        "duration": 0.25,
        "velocity": 0.8,
        "hand": "right"
      },
      {
        "midi": 78,
        "time": 414.5,
        "duration": 0.25,
        "velocity": 0.8,
        "hand": "right"
      },
      {
        "midi": 70,
        "time": 414.75,
        "duration": 0.25,
        "velocity": 0.8,
        "hand": "right"
      },
      {
        "midi": 79,
        "time": 414.75,
        "duration": 0.25,
        "velocity": 0.8,
        "hand": "right"
      },
      {
        "midi": 60,
        "time": 415,
        "duration": 0.5,
        "velocity": 0.71,
        "hand": "right"
      },
      {
        "midi": 69,
        "time": 415,
        "duration": 0.25,
        "velocity": 0.8,
        "hand": "right"
      },
      {
        "midi": 74,
        "time": 415,
        "duration": 0.25,
        "velocity": 0.8,
        "hand": "right"
      },
      {
        "midi": 75,
        "time": 415.25,
        "duration": 0.25,
        "velocity": 0.8,
        "hand": "right"
      },
      {
        "midi": 81,
        "time": 415.25,
        "duration": 0.25,
        "velocity": 0.8,
        "hand": "right"
      },
      {
        "midi": 62,
        "time": 415.5,
        "duration": 0.5,
        "velocity": 0.71,
        "hand": "right"
      },
      {
        "midi": 70,
        "time": 415.5,
        "duration": 0.25,
        "velocity": 0.8,
        "hand": "right"
      },
      {
        "midi": 79,
        "time": 415.5,
        "duration": 0.25,
        "velocity": 0.8,
        "hand": "right"
      },
      {
        "midi": 74,
        "time": 415.75,
        "duration": 0.25,
        "velocity": 0.8,
        "hand": "right"
      },
      {
        "midi": 82,
        "time": 415.75,
        "duration": 0.25,
        "velocity": 0.8,
        "hand": "right"
      },
      {
        "midi": 64,
        "time": 416,
        "duration": 0.25,
        "velocity": 0.71,
        "hand": "right"
      },
      {
        "midi": 66,
        "time": 416,
        "duration": 0.25,
        "velocity": 0.71,
        "hand": "right"
      },
      {
        "midi": 74,
        "time": 416,
        "duration": 0.25,
        "velocity": 0.8,
        "hand": "right"
      },
      {
        "midi": 79,
        "time": 416,
        "duration": 0.25,
        "velocity": 0.8,
        "hand": "right"
      },
      {
        "midi": 67,
        "time": 416.25,
        "duration": 0.25,
        "velocity": 0.71,
        "hand": "right"
      },
      {
        "midi": 75,
        "time": 416.25,
        "duration": 0.25,
        "velocity": 0.8,
        "hand": "right"
      },
      {
        "midi": 82,
        "time": 416.25,
        "duration": 0.25,
        "velocity": 0.8,
        "hand": "right"
      },
      {
        "midi": 86,
        "time": 416.25,
        "duration": 0.25,
        "velocity": 0.8,
        "hand": "right"
      },
      {
        "midi": 38,
        "time": 416.5,
        "duration": 0.125,
        "velocity": 0.71,
        "hand": "left"
      },
      {
        "midi": 50,
        "time": 416.5,
        "duration": 2,
        "velocity": 0.71,
        "hand": "left"
      },
      {
        "midi": 82,
        "time": 416.5,
        "duration": 0.25,
        "velocity": 0.8,
        "hand": "right"
      },
      {
        "midi": 87,
        "time": 416.5,
        "duration": 0.25,
        "velocity": 0.8,
        "hand": "right"
      },
      {
        "midi": 58,
        "time": 416.75,
        "duration": 0.25,
        "velocity": 0.8,
        "hand": "left"
      },
      {
        "midi": 70,
        "time": 416.75,
        "duration": 0.25,
        "velocity": 0.8,
        "hand": "right"
      },
      {
        "midi": 51,
        "time": 417,
        "duration": 0.5,
        "velocity": 0.71,
        "hand": "left"
      },
      {
        "midi": 60,
        "time": 417,
        "duration": 0.25,
        "velocity": 0.8,
        "hand": "right"
      },
      {
        "midi": 67,
        "time": 417,
        "duration": 0.25,
        "velocity": 0.8,
        "hand": "right"
      },
      {
        "midi": 67,
        "time": 417.25,
        "duration": 0.25,
        "velocity": 0.8,
        "hand": "right"
      },
      {
        "midi": 72,
        "time": 417.25,
        "duration": 0.25,
        "velocity": 0.8,
        "hand": "right"
      },
      {
        "midi": 52,
        "time": 417.5,
        "duration": 0.5,
        "velocity": 0.71,
        "hand": "left"
      },
      {
        "midi": 61,
        "time": 417.5,
        "duration": 0.25,
        "velocity": 0.8,
        "hand": "right"
      },
      {
        "midi": 70,
        "time": 417.5,
        "duration": 0.25,
        "velocity": 0.8,
        "hand": "right"
      },
      {
        "midi": 67,
        "time": 417.75,
        "duration": 0.25,
        "velocity": 0.8,
        "hand": "right"
      },
      {
        "midi": 73,
        "time": 417.75,
        "duration": 0.25,
        "velocity": 0.8,
        "hand": "right"
      },
      {
        "midi": 54,
        "time": 418,
        "duration": 0.25,
        "velocity": 0.71,
        "hand": "left"
      },
      {
        "midi": 55,
        "time": 418,
        "duration": 0.25,
        "velocity": 0.71,
        "hand": "left"
      },
      {
        "midi": 64,
        "time": 418,
        "duration": 0.25,
        "velocity": 0.8,
        "hand": "right"
      },
      {
        "midi": 69,
        "time": 418,
        "duration": 0.25,
        "velocity": 0.8,
        "hand": "right"
      },
      {
        "midi": 74,
        "time": 418,
        "duration": 0.25,
        "velocity": 0.8,
        "hand": "right"
      },
      {
        "midi": 57,
        "time": 418.25,
        "duration": 0.25,
        "velocity": 0.71,
        "hand": "left"
      },
      {
        "midi": 66,
        "time": 418.25,
        "duration": 0.25,
        "velocity": 0.8,
        "hand": "right"
      },
      {
        "midi": 70,
        "time": 418.25,
        "duration": 0.25,
        "velocity": 0.8,
        "hand": "right"
      },
      {
        "midi": 76,
        "time": 418.25,
        "duration": 0.25,
        "velocity": 0.8,
        "hand": "right"
      },
      {
        "midi": 50,
        "time": 418.5,
        "duration": 1,
        "velocity": 0.71,
        "hand": "left"
      },
      {
        "midi": 55,
        "time": 418.5,
        "duration": 1,
        "velocity": 0.71,
        "hand": "left"
      },
      {
        "midi": 58,
        "time": 418.5,
        "duration": 0.5,
        "velocity": 0.71,
        "hand": "left"
      },
      {
        "midi": 67,
        "time": 418.5,
        "duration": 0.25,
        "velocity": 0.8,
        "hand": "right"
      },
      {
        "midi": 72,
        "time": 418.5,
        "duration": 0.25,
        "velocity": 0.8,
        "hand": "right"
      },
      {
        "midi": 78,
        "time": 418.5,
        "duration": 0.25,
        "velocity": 0.8,
        "hand": "right"
      },
      {
        "midi": 70,
        "time": 418.75,
        "duration": 0.25,
        "velocity": 0.8,
        "hand": "right"
      },
      {
        "midi": 79,
        "time": 418.75,
        "duration": 0.25,
        "velocity": 0.8,
        "hand": "right"
      },
      {
        "midi": 60,
        "time": 419,
        "duration": 0.5,
        "velocity": 0.71,
        "hand": "right"
      },
      {
        "midi": 69,
        "time": 419,
        "duration": 0.25,
        "velocity": 0.8,
        "hand": "right"
      },
      {
        "midi": 74,
        "time": 419,
        "duration": 0.25,
        "velocity": 0.8,
        "hand": "right"
      },
      {
        "midi": 75,
        "time": 419.25,
        "duration": 0.25,
        "velocity": 0.8,
        "hand": "right"
      },
      {
        "midi": 81,
        "time": 419.25,
        "duration": 0.25,
        "velocity": 0.8,
        "hand": "right"
      },
      {
        "midi": 62,
        "time": 419.5,
        "duration": 0.5,
        "velocity": 0.71,
        "hand": "right"
      },
      {
        "midi": 70,
        "time": 419.5,
        "duration": 0.25,
        "velocity": 0.8,
        "hand": "right"
      },
      {
        "midi": 79,
        "time": 419.5,
        "duration": 0.25,
        "velocity": 0.8,
        "hand": "right"
      },
      {
        "midi": 74,
        "time": 419.75,
        "duration": 0.25,
        "velocity": 0.8,
        "hand": "right"
      },
      {
        "midi": 82,
        "time": 419.75,
        "duration": 0.25,
        "velocity": 0.8,
        "hand": "right"
      },
      {
        "midi": 64,
        "time": 420,
        "duration": 0.25,
        "velocity": 0.71,
        "hand": "right"
      },
      {
        "midi": 66,
        "time": 420,
        "duration": 0.25,
        "velocity": 0.71,
        "hand": "right"
      },
      {
        "midi": 74,
        "time": 420,
        "duration": 0.25,
        "velocity": 0.8,
        "hand": "right"
      },
      {
        "midi": 79,
        "time": 420,
        "duration": 0.25,
        "velocity": 0.8,
        "hand": "right"
      },
      {
        "midi": 67,
        "time": 420.25,
        "duration": 0.25,
        "velocity": 0.71,
        "hand": "right"
      },
      {
        "midi": 75,
        "time": 420.25,
        "duration": 0.25,
        "velocity": 0.8,
        "hand": "right"
      },
      {
        "midi": 82,
        "time": 420.25,
        "duration": 0.25,
        "velocity": 0.8,
        "hand": "right"
      },
      {
        "midi": 86,
        "time": 420.25,
        "duration": 0.25,
        "velocity": 0.8,
        "hand": "right"
      },
      {
        "midi": 53,
        "time": 420.5,
        "duration": 0.5,
        "velocity": 0.84,
        "hand": "left"
      },
      {
        "midi": 55,
        "time": 420.5,
        "duration": 1,
        "velocity": 0.71,
        "hand": "left"
      },
      {
        "midi": 65,
        "time": 420.5,
        "duration": 0.5,
        "velocity": 0.84,
        "hand": "right"
      },
      {
        "midi": 82,
        "time": 420.5,
        "duration": 0.25,
        "velocity": 0.8,
        "hand": "right"
      },
      {
        "midi": 87,
        "time": 420.5,
        "duration": 0.25,
        "velocity": 0.8,
        "hand": "right"
      },
      {
        "midi": 71,
        "time": 420.75,
        "duration": 0.25,
        "velocity": 0.8,
        "hand": "right"
      },
      {
        "midi": 79,
        "time": 420.75,
        "duration": 0.25,
        "velocity": 0.8,
        "hand": "right"
      },
      {
        "midi": 51,
        "time": 421,
        "duration": 0.5,
        "velocity": 0.84,
        "hand": "left"
      },
      {
        "midi": 63,
        "time": 421,
        "duration": 0.5,
        "velocity": 0.84,
        "hand": "right"
      },
      {
        "midi": 69,
        "time": 421,
        "duration": 0.5,
        "velocity": 0.8,
        "hand": "right"
      },
      {
        "midi": 74,
        "time": 421,
        "duration": 0.25,
        "velocity": 0.8,
        "hand": "right"
      },
      {
        "midi": 72,
        "time": 421.25,
        "duration": 0.25,
        "velocity": 0.8,
        "hand": "right"
      },
      {
        "midi": 81,
        "time": 421.25,
        "duration": 0.25,
        "velocity": 0.8,
        "hand": "right"
      },
      {
        "midi": 50,
        "time": 421.5,
        "duration": 0.5,
        "velocity": 0.84,
        "hand": "left"
      },
      {
        "midi": 55,
        "time": 421.5,
        "duration": 0.5,
        "velocity": 0.84,
        "hand": "left"
      },
      {
        "midi": 62,
        "time": 421.5,
        "duration": 0.5,
        "velocity": 0.84,
        "hand": "right"
      },
      {
        "midi": 71,
        "time": 421.5,
        "duration": 0.5,
        "velocity": 0.8,
        "hand": "right"
      },
      {
        "midi": 75,
        "time": 421.5,
        "duration": 0.25,
        "velocity": 0.8,
        "hand": "right"
      },
      {
        "midi": 77,
        "time": 421.75,
        "duration": 0.25,
        "velocity": 0.8,
        "hand": "right"
      },
      {
        "midi": 83,
        "time": 421.75,
        "duration": 0.25,
        "velocity": 0.8,
        "hand": "right"
      },
      {
        "midi": 48,
        "time": 422,
        "duration": 0.25,
        "velocity": 0.84,
        "hand": "left"
      },
      {
        "midi": 49,
        "time": 422,
        "duration": 0.25,
        "velocity": 0.84,
        "hand": "left"
      },
      {
        "midi": 60,
        "time": 422,
        "duration": 0.25,
        "velocity": 0.84,
        "hand": "right"
      },
      {
        "midi": 61,
        "time": 422,
        "duration": 0.25,
        "velocity": 0.84,
        "hand": "right"
      },
      {
        "midi": 72,
        "time": 422,
        "duration": 0.25,
        "velocity": 0.8,
        "hand": "right"
      },
      {
        "midi": 79,
        "time": 422,
        "duration": 0.25,
        "velocity": 0.8,
        "hand": "right"
      },
      {
        "midi": 47,
        "time": 422.25,
        "duration": 0.25,
        "velocity": 0.84,
        "hand": "left"
      },
      {
        "midi": 59,
        "time": 422.25,
        "duration": 0.25,
        "velocity": 0.84,
        "hand": "left"
      },
      {
        "midi": 74,
        "time": 422.25,
        "duration": 0.25,
        "velocity": 0.8,
        "hand": "right"
      },
      {
        "midi": 75,
        "time": 422.25,
        "duration": 0.25,
        "velocity": 0.8,
        "hand": "right"
      },
      {
        "midi": 79,
        "time": 422.25,
        "duration": 0.25,
        "velocity": 0.8,
        "hand": "right"
      },
      {
        "midi": 84,
        "time": 422.25,
        "duration": 0.25,
        "velocity": 0.8,
        "hand": "right"
      },
      {
        "midi": 45,
        "time": 422.5,
        "duration": 0.5,
        "velocity": 0.84,
        "hand": "left"
      },
      {
        "midi": 48,
        "time": 422.5,
        "duration": 1,
        "velocity": 0.71,
        "hand": "left"
      },
      {
        "midi": 57,
        "time": 422.5,
        "duration": 0.5,
        "velocity": 0.84,
        "hand": "left"
      },
      {
        "midi": 75,
        "time": 422.5,
        "duration": 0.5,
        "velocity": 0.8,
        "hand": "right"
      },
      {
        "midi": 79,
        "time": 422.5,
        "duration": 0.25,
        "velocity": 0.8,
        "hand": "right"
      },
      {
        "midi": 86,
        "time": 422.5,
        "duration": 0.25,
        "velocity": 0.8,
        "hand": "right"
      },
      {
        "midi": 79,
        "time": 422.75,
        "duration": 0.25,
        "velocity": 0.8,
        "hand": "right"
      },
      {
        "midi": 87,
        "time": 422.75,
        "duration": 0.25,
        "velocity": 0.8,
        "hand": "right"
      },
      {
        "midi": 44,
        "time": 423,
        "duration": 0.5,
        "velocity": 0.84,
        "hand": "left"
      },
      {
        "midi": 56,
        "time": 423,
        "duration": 0.5,
        "velocity": 0.84,
        "hand": "left"
      },
      {
        "midi": 77,
        "time": 423,
        "duration": 0.5,
        "velocity": 0.71,
        "hand": "right"
      },
      {
        "midi": 84,
        "time": 423,
        "duration": 0.25,
        "velocity": 0.8,
        "hand": "right"
      },
      {
        "midi": 80,
        "time": 423.25,
        "duration": 0.25,
        "velocity": 0.8,
        "hand": "right"
      },
      {
        "midi": 89,
        "time": 423.25,
        "duration": 0.25,
        "velocity": 0.8,
        "hand": "right"
      },
      {
        "midi": 43,
        "time": 423.5,
        "duration": 0.5,
        "velocity": 0.84,
        "hand": "left"
      },
      {
        "midi": 48,
        "time": 423.5,
        "duration": 0.5,
        "velocity": 0.84,
        "hand": "left"
      },
      {
        "midi": 55,
        "time": 423.5,
        "duration": 0.5,
        "velocity": 0.84,
        "hand": "left"
      },
      {
        "midi": 79,
        "time": 423.5,
        "duration": 0.5,
        "velocity": 0.8,
        "hand": "right"
      },
      {
        "midi": 84,
        "time": 423.5,
        "duration": 0.25,
        "velocity": 0.8,
        "hand": "right"
      },
      {
        "midi": 84,
        "time": 423.75,
        "duration": 0.25,
        "velocity": 0.8,
        "hand": "right"
      },
      {
        "midi": 91,
        "time": 423.75,
        "duration": 0.25,
        "velocity": 0.8,
        "hand": "right"
      },
      {
        "midi": 41,
        "time": 424,
        "duration": 0.25,
        "velocity": 0.84,
        "hand": "left"
      },
      {
        "midi": 42,
        "time": 424,
        "duration": 0.25,
        "velocity": 0.84,
        "hand": "left"
      },
      {
        "midi": 53,
        "time": 424,
        "duration": 0.25,
        "velocity": 0.84,
        "hand": "left"
      },
      {
        "midi": 54,
        "time": 424,
        "duration": 0.25,
        "velocity": 0.84,
        "hand": "left"
      },
      {
        "midi": 80,
        "time": 424,
        "duration": 0.25,
        "velocity": 0.8,
        "hand": "right"
      },
      {
        "midi": 87,
        "time": 424,
        "duration": 0.25,
        "velocity": 0.8,
        "hand": "right"
      },
      {
        "midi": 39,
        "time": 424.25,
        "duration": 0.25,
        "velocity": 0.84,
        "hand": "left"
      },
      {
        "midi": 51,
        "time": 424.25,
        "duration": 0.25,
        "velocity": 0.84,
        "hand": "left"
      },
      {
        "midi": 79,
        "time": 424.25,
        "duration": 0.25,
        "velocity": 0.8,
        "hand": "right"
      },
      {
        "midi": 84,
        "time": 424.25,
        "duration": 0.25,
        "velocity": 0.8,
        "hand": "right"
      },
      {
        "midi": 92,
        "time": 424.25,
        "duration": 0.25,
        "velocity": 0.8,
        "hand": "right"
      },
      {
        "midi": 53,
        "time": 424.5,
        "duration": 0.5,
        "velocity": 0.84,
        "hand": "left"
      },
      {
        "midi": 55,
        "time": 424.5,
        "duration": 1,
        "velocity": 0.71,
        "hand": "left"
      },
      {
        "midi": 65,
        "time": 424.5,
        "duration": 0.5,
        "velocity": 0.84,
        "hand": "right"
      },
      {
        "midi": 84,
        "time": 424.5,
        "duration": 0.25,
        "velocity": 0.8,
        "hand": "right"
      },
      {
        "midi": 91,
        "time": 424.5,
        "duration": 0.25,
        "velocity": 0.8,
        "hand": "right"
      },
      {
        "midi": 71,
        "time": 424.75,
        "duration": 0.25,
        "velocity": 0.8,
        "hand": "right"
      },
      {
        "midi": 79,
        "time": 424.75,
        "duration": 0.25,
        "velocity": 0.8,
        "hand": "right"
      },
      {
        "midi": 51,
        "time": 425,
        "duration": 0.5,
        "velocity": 0.84,
        "hand": "left"
      },
      {
        "midi": 63,
        "time": 425,
        "duration": 0.5,
        "velocity": 0.84,
        "hand": "right"
      },
      {
        "midi": 69,
        "time": 425,
        "duration": 0.5,
        "velocity": 0.8,
        "hand": "right"
      },
      {
        "midi": 74,
        "time": 425,
        "duration": 0.25,
        "velocity": 0.8,
        "hand": "right"
      },
      {
        "midi": 72,
        "time": 425.25,
        "duration": 0.25,
        "velocity": 0.8,
        "hand": "right"
      },
      {
        "midi": 81,
        "time": 425.25,
        "duration": 0.25,
        "velocity": 0.8,
        "hand": "right"
      },
      {
        "midi": 50,
        "time": 425.5,
        "duration": 0.5,
        "velocity": 0.84,
        "hand": "left"
      },
      {
        "midi": 55,
        "time": 425.5,
        "duration": 0.5,
        "velocity": 0.84,
        "hand": "left"
      },
      {
        "midi": 62,
        "time": 425.5,
        "duration": 0.5,
        "velocity": 0.84,
        "hand": "right"
      },
      {
        "midi": 71,
        "time": 425.5,
        "duration": 0.5,
        "velocity": 0.8,
        "hand": "right"
      },
      {
        "midi": 75,
        "time": 425.5,
        "duration": 0.25,
        "velocity": 0.8,
        "hand": "right"
      },
      {
        "midi": 77,
        "time": 425.75,
        "duration": 0.25,
        "velocity": 0.8,
        "hand": "right"
      },
      {
        "midi": 83,
        "time": 425.75,
        "duration": 0.25,
        "velocity": 0.8,
        "hand": "right"
      },
      {
        "midi": 48,
        "time": 426,
        "duration": 0.25,
        "velocity": 0.84,
        "hand": "left"
      },
      {
        "midi": 49,
        "time": 426,
        "duration": 0.25,
        "velocity": 0.84,
        "hand": "left"
      },
      {
        "midi": 60,
        "time": 426,
        "duration": 0.25,
        "velocity": 0.84,
        "hand": "right"
      },
      {
        "midi": 61,
        "time": 426,
        "duration": 0.25,
        "velocity": 0.84,
        "hand": "right"
      },
      {
        "midi": 72,
        "time": 426,
        "duration": 0.25,
        "velocity": 0.8,
        "hand": "right"
      },
      {
        "midi": 79,
        "time": 426,
        "duration": 0.25,
        "velocity": 0.8,
        "hand": "right"
      },
      {
        "midi": 47,
        "time": 426.25,
        "duration": 0.25,
        "velocity": 0.84,
        "hand": "left"
      },
      {
        "midi": 59,
        "time": 426.25,
        "duration": 0.25,
        "velocity": 0.84,
        "hand": "left"
      },
      {
        "midi": 74,
        "time": 426.25,
        "duration": 0.25,
        "velocity": 0.8,
        "hand": "right"
      },
      {
        "midi": 75,
        "time": 426.25,
        "duration": 0.25,
        "velocity": 0.8,
        "hand": "right"
      },
      {
        "midi": 79,
        "time": 426.25,
        "duration": 0.25,
        "velocity": 0.8,
        "hand": "right"
      },
      {
        "midi": 84,
        "time": 426.25,
        "duration": 0.25,
        "velocity": 0.8,
        "hand": "right"
      },
      {
        "midi": 45,
        "time": 426.5,
        "duration": 0.5,
        "velocity": 0.84,
        "hand": "left"
      },
      {
        "midi": 48,
        "time": 426.5,
        "duration": 1,
        "velocity": 0.71,
        "hand": "left"
      },
      {
        "midi": 57,
        "time": 426.5,
        "duration": 0.5,
        "velocity": 0.84,
        "hand": "left"
      },
      {
        "midi": 75,
        "time": 426.5,
        "duration": 0.5,
        "velocity": 0.8,
        "hand": "right"
      },
      {
        "midi": 79,
        "time": 426.5,
        "duration": 0.25,
        "velocity": 0.8,
        "hand": "right"
      },
      {
        "midi": 86,
        "time": 426.5,
        "duration": 0.25,
        "velocity": 0.8,
        "hand": "right"
      },
      {
        "midi": 79,
        "time": 426.75,
        "duration": 0.25,
        "velocity": 0.8,
        "hand": "right"
      },
      {
        "midi": 87,
        "time": 426.75,
        "duration": 0.25,
        "velocity": 0.8,
        "hand": "right"
      },
      {
        "midi": 44,
        "time": 427,
        "duration": 0.5,
        "velocity": 0.84,
        "hand": "left"
      },
      {
        "midi": 56,
        "time": 427,
        "duration": 0.5,
        "velocity": 0.84,
        "hand": "left"
      },
      {
        "midi": 77,
        "time": 427,
        "duration": 0.5,
        "velocity": 0.71,
        "hand": "right"
      },
      {
        "midi": 84,
        "time": 427,
        "duration": 0.25,
        "velocity": 0.8,
        "hand": "right"
      },
      {
        "midi": 80,
        "time": 427.25,
        "duration": 0.25,
        "velocity": 0.8,
        "hand": "right"
      },
      {
        "midi": 89,
        "time": 427.25,
        "duration": 0.25,
        "velocity": 0.8,
        "hand": "right"
      },
      {
        "midi": 43,
        "time": 427.5,
        "duration": 0.5,
        "velocity": 0.84,
        "hand": "left"
      },
      {
        "midi": 48,
        "time": 427.5,
        "duration": 0.5,
        "velocity": 0.84,
        "hand": "left"
      },
      {
        "midi": 55,
        "time": 427.5,
        "duration": 0.5,
        "velocity": 0.84,
        "hand": "left"
      },
      {
        "midi": 79,
        "time": 427.5,
        "duration": 0.5,
        "velocity": 0.8,
        "hand": "right"
      },
      {
        "midi": 84,
        "time": 427.5,
        "duration": 0.25,
        "velocity": 0.8,
        "hand": "right"
      },
      {
        "midi": 84,
        "time": 427.75,
        "duration": 0.25,
        "velocity": 0.8,
        "hand": "right"
      },
      {
        "midi": 91,
        "time": 427.75,
        "duration": 0.25,
        "velocity": 0.8,
        "hand": "right"
      },
      {
        "midi": 41,
        "time": 428,
        "duration": 0.25,
        "velocity": 0.84,
        "hand": "left"
      },
      {
        "midi": 42,
        "time": 428,
        "duration": 0.25,
        "velocity": 0.84,
        "hand": "left"
      },
      {
        "midi": 53,
        "time": 428,
        "duration": 0.25,
        "velocity": 0.84,
        "hand": "left"
      },
      {
        "midi": 54,
        "time": 428,
        "duration": 0.25,
        "velocity": 0.84,
        "hand": "left"
      },
      {
        "midi": 80,
        "time": 428,
        "duration": 0.25,
        "velocity": 0.8,
        "hand": "right"
      },
      {
        "midi": 87,
        "time": 428,
        "duration": 0.25,
        "velocity": 0.8,
        "hand": "right"
      },
      {
        "midi": 39,
        "time": 428.25,
        "duration": 0.25,
        "velocity": 0.84,
        "hand": "left"
      },
      {
        "midi": 51,
        "time": 428.25,
        "duration": 0.25,
        "velocity": 0.84,
        "hand": "left"
      },
      {
        "midi": 79,
        "time": 428.25,
        "duration": 0.25,
        "velocity": 0.8,
        "hand": "right"
      },
      {
        "midi": 84,
        "time": 428.25,
        "duration": 0.25,
        "velocity": 0.8,
        "hand": "right"
      },
      {
        "midi": 92,
        "time": 428.25,
        "duration": 0.25,
        "velocity": 0.8,
        "hand": "right"
      },
      {
        "midi": 80,
        "time": 428.5,
        "duration": 0.5,
        "velocity": 0.8,
        "hand": "right"
      },
      {
        "midi": 84,
        "time": 428.5,
        "duration": 0.25,
        "velocity": 0.8,
        "hand": "right"
      },
      {
        "midi": 84,
        "time": 428.5,
        "duration": 0.5,
        "velocity": 0.8,
        "hand": "right"
      },
      {
        "midi": 87,
        "time": 428.5,
        "duration": 0.5,
        "velocity": 0.8,
        "hand": "right"
      },
      {
        "midi": 91,
        "time": 428.5,
        "duration": 0.25,
        "velocity": 0.8,
        "hand": "right"
      },
      {
        "midi": 92,
        "time": 428.5,
        "duration": 0.5,
        "velocity": 0.8,
        "hand": "right"
      },
      {
        "midi": 39,
        "time": 428.75,
        "duration": 0.25,
        "velocity": 0.71,
        "hand": "left"
      },
      {
        "midi": 48,
        "time": 428.75,
        "duration": 0.25,
        "velocity": 0.71,
        "hand": "left"
      },
      {
        "midi": 44,
        "time": 429,
        "duration": 0.25,
        "velocity": 0.71,
        "hand": "left"
      },
      {
        "midi": 51,
        "time": 429,
        "duration": 0.25,
        "velocity": 0.71,
        "hand": "left"
      },
      {
        "midi": 79,
        "time": 429,
        "duration": 0.5,
        "velocity": 0.8,
        "hand": "right"
      },
      {
        "midi": 84,
        "time": 429,
        "duration": 0.5,
        "velocity": 0.8,
        "hand": "right"
      },
      {
        "midi": 87,
        "time": 429,
        "duration": 0.5,
        "velocity": 0.8,
        "hand": "right"
      },
      {
        "midi": 91,
        "time": 429,
        "duration": 0.5,
        "velocity": 0.8,
        "hand": "right"
      },
      {
        "midi": 44,
        "time": 429.25,
        "duration": 0.25,
        "velocity": 0.71,
        "hand": "left"
      },
      {
        "midi": 48,
        "time": 429.25,
        "duration": 0.25,
        "velocity": 0.71,
        "hand": "left"
      },
      {
        "midi": 39,
        "time": 429.5,
        "duration": 0.25,
        "velocity": 0.71,
        "hand": "left"
      },
      {
        "midi": 77,
        "time": 429.5,
        "duration": 0.5,
        "velocity": 0.8,
        "hand": "right"
      },
      {
        "midi": 80,
        "time": 429.5,
        "duration": 0.5,
        "velocity": 0.8,
        "hand": "right"
      },
      {
        "midi": 84,
        "time": 429.5,
        "duration": 0.5,
        "velocity": 0.8,
        "hand": "right"
      },
      {
        "midi": 89,
        "time": 429.5,
        "duration": 0.5,
        "velocity": 0.8,
        "hand": "right"
      },
      {
        "midi": 44,
        "time": 429.75,
        "duration": 0.25,
        "velocity": 0.71,
        "hand": "left"
      },
      {
        "midi": 51,
        "time": 429.75,
        "duration": 0.25,
        "velocity": 0.71,
        "hand": "left"
      },
      {
        "midi": 48,
        "time": 430,
        "duration": 0.25,
        "velocity": 0.71,
        "hand": "left"
      },
      {
        "midi": 56,
        "time": 430,
        "duration": 0.25,
        "velocity": 0.71,
        "hand": "left"
      },
      {
        "midi": 73,
        "time": 430,
        "duration": 0.25,
        "velocity": 0.8,
        "hand": "right"
      },
      {
        "midi": 75,
        "time": 430,
        "duration": 0.25,
        "velocity": 0.8,
        "hand": "right"
      },
      {
        "midi": 85,
        "time": 430,
        "duration": 0.25,
        "velocity": 0.8,
        "hand": "right"
      },
      {
        "midi": 87,
        "time": 430,
        "duration": 0.25,
        "velocity": 0.8,
        "hand": "right"
      },
      {
        "midi": 48,
        "time": 430.25,
        "duration": 0.25,
        "velocity": 0.71,
        "hand": "left"
      },
      {
        "midi": 51,
        "time": 430.25,
        "duration": 0.25,
        "velocity": 0.71,
        "hand": "left"
      },
      {
        "midi": 72,
        "time": 430.25,
        "duration": 0.25,
        "velocity": 0.8,
        "hand": "right"
      },
      {
        "midi": 84,
        "time": 430.25,
        "duration": 0.25,
        "velocity": 0.8,
        "hand": "right"
      },
      {
        "midi": 44,
        "time": 430.5,
        "duration": 0.25,
        "velocity": 0.71,
        "hand": "left"
      },
      {
        "midi": 77,
        "time": 430.5,
        "duration": 0.5,
        "velocity": 0.8,
        "hand": "right"
      },
      {
        "midi": 80,
        "time": 430.5,
        "duration": 0.5,
        "velocity": 0.8,
        "hand": "right"
      },
      {
        "midi": 84,
        "time": 430.5,
        "duration": 0.5,
        "velocity": 0.8,
        "hand": "right"
      },
      {
        "midi": 89,
        "time": 430.5,
        "duration": 0.5,
        "velocity": 0.8,
        "hand": "right"
      },
      {
        "midi": 48,
        "time": 430.75,
        "duration": 0.25,
        "velocity": 0.71,
        "hand": "left"
      },
      {
        "midi": 56,
        "time": 430.75,
        "duration": 0.25,
        "velocity": 0.71,
        "hand": "left"
      },
      {
        "midi": 51,
        "time": 431,
        "duration": 0.25,
        "velocity": 0.71,
        "hand": "left"
      },
      {
        "midi": 60,
        "time": 431,
        "duration": 0.25,
        "velocity": 0.71,
        "hand": "right"
      },
      {
        "midi": 75,
        "time": 431,
        "duration": 0.5,
        "velocity": 0.8,
        "hand": "right"
      },
      {
        "midi": 80,
        "time": 431,
        "duration": 0.5,
        "velocity": 0.8,
        "hand": "right"
      },
      {
        "midi": 84,
        "time": 431,
        "duration": 0.5,
        "velocity": 0.8,
        "hand": "right"
      },
      {
        "midi": 87,
        "time": 431,
        "duration": 0.5,
        "velocity": 0.8,
        "hand": "right"
      },
      {
        "midi": 51,
        "time": 431.25,
        "duration": 0.25,
        "velocity": 0.71,
        "hand": "left"
      },
      {
        "midi": 56,
        "time": 431.25,
        "duration": 0.25,
        "velocity": 0.71,
        "hand": "left"
      },
      {
        "midi": 48,
        "time": 431.5,
        "duration": 0.25,
        "velocity": 0.71,
        "hand": "left"
      },
      {
        "midi": 73,
        "time": 431.5,
        "duration": 0.5,
        "velocity": 0.8,
        "hand": "right"
      },
      {
        "midi": 75,
        "time": 431.5,
        "duration": 0.5,
        "velocity": 0.8,
        "hand": "right"
      },
      {
        "midi": 80,
        "time": 431.5,
        "duration": 0.5,
        "velocity": 0.8,
        "hand": "right"
      },
      {
        "midi": 85,
        "time": 431.5,
        "duration": 0.5,
        "velocity": 0.8,
        "hand": "right"
      },
      {
        "midi": 51,
        "time": 431.75,
        "duration": 0.25,
        "velocity": 0.71,
        "hand": "left"
      },
      {
        "midi": 60,
        "time": 431.75,
        "duration": 0.25,
        "velocity": 0.71,
        "hand": "right"
      },
      {
        "midi": 56,
        "time": 432,
        "duration": 0.25,
        "velocity": 0.71,
        "hand": "left"
      },
      {
        "midi": 63,
        "time": 432,
        "duration": 0.25,
        "velocity": 0.71,
        "hand": "right"
      },
      {
        "midi": 70,
        "time": 432,
        "duration": 0.25,
        "velocity": 0.8,
        "hand": "right"
      },
      {
        "midi": 72,
        "time": 432,
        "duration": 0.25,
        "velocity": 0.8,
        "hand": "right"
      },
      {
        "midi": 82,
        "time": 432,
        "duration": 0.25,
        "velocity": 0.8,
        "hand": "right"
      },
      {
        "midi": 84,
        "time": 432,
        "duration": 0.25,
        "velocity": 0.8,
        "hand": "right"
      },
      {
        "midi": 56,
        "time": 432.25,
        "duration": 0.25,
        "velocity": 0.71,
        "hand": "left"
      },
      {
        "midi": 60,
        "time": 432.25,
        "duration": 0.25,
        "velocity": 0.71,
        "hand": "right"
      },
      {
        "midi": 68,
        "time": 432.25,
        "duration": 0.25,
        "velocity": 0.8,
        "hand": "right"
      },
      {
        "midi": 80,
        "time": 432.25,
        "duration": 0.25,
        "velocity": 0.8,
        "hand": "right"
      },
      {
        "midi": 51,
        "time": 432.5,
        "duration": 0.25,
        "velocity": 0.71,
        "hand": "left"
      },
      {
        "midi": 73,
        "time": 432.5,
        "duration": 0.25,
        "velocity": 0.8,
        "hand": "right"
      },
      {
        "midi": 75,
        "time": 432.5,
        "duration": 0.25,
        "velocity": 0.8,
        "hand": "right"
      },
      {
        "midi": 85,
        "time": 432.5,
        "duration": 0.25,
        "velocity": 0.8,
        "hand": "right"
      },
      {
        "midi": 56,
        "time": 432.75,
        "duration": 0.25,
        "velocity": 0.71,
        "hand": "left"
      },
      {
        "midi": 63,
        "time": 432.75,
        "duration": 0.25,
        "velocity": 0.71,
        "hand": "right"
      },
      {
        "midi": 68,
        "time": 432.75,
        "duration": 0.25,
        "velocity": 0.71,
        "hand": "right"
      },
      {
        "midi": 72,
        "time": 432.75,
        "duration": 0.25,
        "velocity": 0.8,
        "hand": "right"
      },
      {
        "midi": 84,
        "time": 432.75,
        "duration": 0.25,
        "velocity": 0.8,
        "hand": "right"
      },
      {
        "midi": 56,
        "time": 433,
        "duration": 0.25,
        "velocity": 0.71,
        "hand": "left"
      },
      {
        "midi": 63,
        "time": 433,
        "duration": 0.25,
        "velocity": 0.71,
        "hand": "right"
      },
      {
        "midi": 70,
        "time": 433,
        "duration": 0.25,
        "velocity": 0.8,
        "hand": "right"
      },
      {
        "midi": 75,
        "time": 433,
        "duration": 0.25,
        "velocity": 0.8,
        "hand": "right"
      },
      {
        "midi": 82,
        "time": 433,
        "duration": 0.25,
        "velocity": 0.8,
        "hand": "right"
      },
      {
        "midi": 51,
        "time": 433.25,
        "duration": 0.25,
        "velocity": 0.71,
        "hand": "left"
      },
      {
        "midi": 60,
        "time": 433.25,
        "duration": 0.25,
        "velocity": 0.71,
        "hand": "right"
      },
      {
        "midi": 63,
        "time": 433.25,
        "duration": 0.25,
        "velocity": 0.71,
        "hand": "right"
      },
      {
        "midi": 68,
        "time": 433.25,
        "duration": 0.25,
        "velocity": 0.8,
        "hand": "right"
      },
      {
        "midi": 80,
        "time": 433.25,
        "duration": 0.25,
        "velocity": 0.8,
        "hand": "right"
      },
      {
        "midi": 51,
        "time": 433.5,
        "duration": 0.25,
        "velocity": 0.71,
        "hand": "left"
      },
      {
        "midi": 60,
        "time": 433.5,
        "duration": 0.25,
        "velocity": 0.71,
        "hand": "right"
      },
      {
        "midi": 65,
        "time": 433.5,
        "duration": 0.25,
        "velocity": 0.8,
        "hand": "right"
      },
      {
        "midi": 68,
        "time": 433.5,
        "duration": 0.25,
        "velocity": 0.8,
        "hand": "right"
      },
      {
        "midi": 77,
        "time": 433.5,
        "duration": 0.25,
        "velocity": 0.8,
        "hand": "right"
      },
      {
        "midi": 48,
        "time": 433.75,
        "duration": 0.25,
        "velocity": 0.71,
        "hand": "left"
      },
      {
        "midi": 56,
        "time": 433.75,
        "duration": 0.25,
        "velocity": 0.71,
        "hand": "left"
      },
      {
        "midi": 60,
        "time": 433.75,
        "duration": 0.25,
        "velocity": 0.71,
        "hand": "right"
      },
      {
        "midi": 63,
        "time": 433.75,
        "duration": 0.25,
        "velocity": 0.8,
        "hand": "right"
      },
      {
        "midi": 75,
        "time": 433.75,
        "duration": 0.25,
        "velocity": 0.8,
        "hand": "right"
      },
      {
        "midi": 48,
        "time": 434,
        "duration": 0.25,
        "velocity": 0.71,
        "hand": "left"
      },
      {
        "midi": 56,
        "time": 434,
        "duration": 0.25,
        "velocity": 0.71,
        "hand": "left"
      },
      {
        "midi": 61,
        "time": 434,
        "duration": 0.25,
        "velocity": 0.8,
        "hand": "right"
      },
      {
        "midi": 63,
        "time": 434,
        "duration": 0.25,
        "velocity": 0.8,
        "hand": "right"
      },
      {
        "midi": 73,
        "time": 434,
        "duration": 0.25,
        "velocity": 0.8,
        "hand": "right"
      },
      {
        "midi": 44,
        "time": 434.25,
        "duration": 0.25,
        "velocity": 0.71,
        "hand": "left"
      },
      {
        "midi": 51,
        "time": 434.25,
        "duration": 0.25,
        "velocity": 0.71,
        "hand": "left"
      },
      {
        "midi": 56,
        "time": 434.25,
        "duration": 0.25,
        "velocity": 0.71,
        "hand": "left"
      },
      {
        "midi": 60,
        "time": 434.25,
        "duration": 0.25,
        "velocity": 0.8,
        "hand": "right"
      },
      {
        "midi": 72,
        "time": 434.25,
        "duration": 0.25,
        "velocity": 0.8,
        "hand": "right"
      },
      {
        "midi": 44,
        "time": 434.5,
        "duration": 0.25,
        "velocity": 0.71,
        "hand": "left"
      },
      {
        "midi": 51,
        "time": 434.5,
        "duration": 0.25,
        "velocity": 0.71,
        "hand": "left"
      },
      {
        "midi": 58,
        "time": 434.5,
        "duration": 0.25,
        "velocity": 0.8,
        "hand": "left"
      },
      {
        "midi": 63,
        "time": 434.5,
        "duration": 0.25,
        "velocity": 0.8,
        "hand": "right"
      },
      {
        "midi": 70,
        "time": 434.5,
        "duration": 0.25,
        "velocity": 0.8,
        "hand": "right"
      },
      {
        "midi": 39,
        "time": 434.75,
        "duration": 0.25,
        "velocity": 0.71,
        "hand": "left"
      },
      {
        "midi": 48,
        "time": 434.75,
        "duration": 0.25,
        "velocity": 0.71,
        "hand": "left"
      },
      {
        "midi": 51,
        "time": 434.75,
        "duration": 0.25,
        "velocity": 0.71,
        "hand": "left"
      },
      {
        "midi": 56,
        "time": 434.75,
        "duration": 0.25,
        "velocity": 0.8,
        "hand": "left"
      },
      {
        "midi": 68,
        "time": 434.75,
        "duration": 0.25,
        "velocity": 0.8,
        "hand": "right"
      },
      {
        "midi": 39,
        "time": 435,
        "duration": 0.25,
        "velocity": 0.71,
        "hand": "left"
      },
      {
        "midi": 48,
        "time": 435,
        "duration": 0.25,
        "velocity": 0.71,
        "hand": "left"
      },
      {
        "midi": 53,
        "time": 435,
        "duration": 0.25,
        "velocity": 0.8,
        "hand": "left"
      },
      {
        "midi": 56,
        "time": 435,
        "duration": 0.25,
        "velocity": 0.8,
        "hand": "left"
      },
      {
        "midi": 65,
        "time": 435,
        "duration": 0.25,
        "velocity": 0.8,
        "hand": "right"
      },
      {
        "midi": 36,
        "time": 435.25,
        "duration": 0.25,
        "velocity": 0.71,
        "hand": "left"
      },
      {
        "midi": 44,
        "time": 435.25,
        "duration": 0.25,
        "velocity": 0.71,
        "hand": "left"
      },
      {
        "midi": 48,
        "time": 435.25,
        "duration": 0.25,
        "velocity": 0.71,
        "hand": "left"
      },
      {
        "midi": 51,
        "time": 435.25,
        "duration": 0.25,
        "velocity": 0.8,
        "hand": "left"
      },
      {
        "midi": 63,
        "time": 435.25,
        "duration": 0.25,
        "velocity": 0.8,
        "hand": "right"
      },
      {
        "midi": 36,
        "time": 435.5,
        "duration": 0.25,
        "velocity": 0.71,
        "hand": "left"
      },
      {
        "midi": 44,
        "time": 435.5,
        "duration": 0.25,
        "velocity": 0.71,
        "hand": "left"
      },
      {
        "midi": 49,
        "time": 435.5,
        "duration": 0.25,
        "velocity": 0.8,
        "hand": "left"
      },
      {
        "midi": 51,
        "time": 435.5,
        "duration": 0.25,
        "velocity": 0.8,
        "hand": "left"
      },
      {
        "midi": 61,
        "time": 435.5,
        "duration": 0.25,
        "velocity": 0.8,
        "hand": "right"
      },
      {
        "midi": 32,
        "time": 435.75,
        "duration": 0.25,
        "velocity": 0.71,
        "hand": "left"
      },
      {
        "midi": 39,
        "time": 435.75,
        "duration": 0.25,
        "velocity": 0.71,
        "hand": "left"
      },
      {
        "midi": 44,
        "time": 435.75,
        "duration": 0.25,
        "velocity": 0.71,
        "hand": "left"
      },
      {
        "midi": 48,
        "time": 435.75,
        "duration": 0.25,
        "velocity": 0.8,
        "hand": "left"
      },
      {
        "midi": 60,
        "time": 435.75,
        "duration": 0.25,
        "velocity": 0.8,
        "hand": "right"
      },
      {
        "midi": 32,
        "time": 436,
        "duration": 0.25,
        "velocity": 0.71,
        "hand": "left"
      },
      {
        "midi": 39,
        "time": 436,
        "duration": 0.25,
        "velocity": 0.71,
        "hand": "left"
      },
      {
        "midi": 44,
        "time": 436,
        "duration": 1,
        "velocity": 0.71,
        "hand": "left"
      },
      {
        "midi": 52,
        "time": 436,
        "duration": 1,
        "velocity": 0.71,
        "hand": "left"
      },
      {
        "midi": 56,
        "time": 436,
        "duration": 1,
        "velocity": 0.71,
        "hand": "left"
      },
      {
        "midi": 59,
        "time": 436,
        "duration": 1,
        "velocity": 0.84,
        "hand": "left"
      },
      {
        "midi": 64,
        "time": 436,
        "duration": 1,
        "velocity": 0.84,
        "hand": "right"
      },
      {
        "midi": 71,
        "time": 436,
        "duration": 1,
        "velocity": 0.84,
        "hand": "right"
      },
      {
        "midi": 32,
        "time": 437,
        "duration": 0.5,
        "velocity": 0.71,
        "hand": "left"
      },
      {
        "midi": 40,
        "time": 437,
        "duration": 0.5,
        "velocity": 0.71,
        "hand": "left"
      },
      {
        "midi": 44,
        "time": 437,
        "duration": 0.5,
        "velocity": 0.71,
        "hand": "left"
      },
      {
        "midi": 47,
        "time": 437,
        "duration": 0.5,
        "velocity": 0.84,
        "hand": "left"
      },
      {
        "midi": 52,
        "time": 437,
        "duration": 0.5,
        "velocity": 0.84,
        "hand": "left"
      },
      {
        "midi": 59,
        "time": 437,
        "duration": 0.5,
        "velocity": 0.84,
        "hand": "left"
      },
      {
        "midi": 44,
        "time": 437.5,
        "duration": 0.5,
        "velocity": 0.71,
        "hand": "left"
      },
      {
        "midi": 52,
        "time": 437.5,
        "duration": 0.5,
        "velocity": 0.71,
        "hand": "left"
      },
      {
        "midi": 56,
        "time": 437.5,
        "duration": 0.5,
        "velocity": 0.71,
        "hand": "left"
      },
      {
        "midi": 59,
        "time": 437.5,
        "duration": 0.5,
        "velocity": 0.84,
        "hand": "left"
      },
      {
        "midi": 64,
        "time": 437.5,
        "duration": 0.5,
        "velocity": 0.84,
        "hand": "right"
      },
      {
        "midi": 71,
        "time": 437.5,
        "duration": 0.5,
        "velocity": 0.84,
        "hand": "right"
      },
      {
        "midi": 56,
        "time": 438,
        "duration": 0.5,
        "velocity": 0.71,
        "hand": "left"
      },
      {
        "midi": 64,
        "time": 438,
        "duration": 0.5,
        "velocity": 0.71,
        "hand": "right"
      },
      {
        "midi": 68,
        "time": 438,
        "duration": 0.5,
        "velocity": 0.71,
        "hand": "right"
      },
      {
        "midi": 71,
        "time": 438,
        "duration": 0.5,
        "velocity": 0.84,
        "hand": "right"
      },
      {
        "midi": 76,
        "time": 438,
        "duration": 0.5,
        "velocity": 0.84,
        "hand": "right"
      },
      {
        "midi": 83,
        "time": 438,
        "duration": 0.5,
        "velocity": 0.84,
        "hand": "right"
      },
      {
        "midi": 68,
        "time": 438.5,
        "duration": 0.5,
        "velocity": 0.71,
        "hand": "right"
      },
      {
        "midi": 76,
        "time": 438.5,
        "duration": 0.5,
        "velocity": 0.71,
        "hand": "right"
      },
      {
        "midi": 80,
        "time": 438.5,
        "duration": 0.5,
        "velocity": 0.71,
        "hand": "right"
      },
      {
        "midi": 83,
        "time": 438.5,
        "duration": 0.5,
        "velocity": 0.84,
        "hand": "right"
      },
      {
        "midi": 88,
        "time": 438.5,
        "duration": 0.5,
        "velocity": 0.84,
        "hand": "right"
      },
      {
        "midi": 95,
        "time": 438.5,
        "duration": 0.5,
        "velocity": 0.84,
        "hand": "right"
      },
      {
        "midi": 56,
        "time": 439,
        "duration": 0.5,
        "velocity": 0.71,
        "hand": "left"
      },
      {
        "midi": 64,
        "time": 439,
        "duration": 0.5,
        "velocity": 0.71,
        "hand": "right"
      },
      {
        "midi": 68,
        "time": 439,
        "duration": 0.5,
        "velocity": 0.71,
        "hand": "right"
      },
      {
        "midi": 71,
        "time": 439,
        "duration": 0.5,
        "velocity": 0.84,
        "hand": "right"
      },
      {
        "midi": 76,
        "time": 439,
        "duration": 0.5,
        "velocity": 0.84,
        "hand": "right"
      },
      {
        "midi": 83,
        "time": 439,
        "duration": 0.5,
        "velocity": 0.84,
        "hand": "right"
      },
      {
        "midi": 44,
        "time": 439.5,
        "duration": 0.5,
        "velocity": 0.71,
        "hand": "left"
      },
      {
        "midi": 52,
        "time": 439.5,
        "duration": 0.5,
        "velocity": 0.71,
        "hand": "left"
      },
      {
        "midi": 56,
        "time": 439.5,
        "duration": 0.5,
        "velocity": 0.71,
        "hand": "left"
      },
      {
        "midi": 59,
        "time": 439.5,
        "duration": 0.5,
        "velocity": 0.84,
        "hand": "left"
      },
      {
        "midi": 64,
        "time": 439.5,
        "duration": 0.5,
        "velocity": 0.84,
        "hand": "right"
      },
      {
        "midi": 71,
        "time": 439.5,
        "duration": 0.5,
        "velocity": 0.84,
        "hand": "right"
      },
      {
        "midi": 56,
        "time": 440,
        "duration": 0.25,
        "velocity": 0.68,
        "hand": "left"
      },
      {
        "midi": 68,
        "time": 440,
        "duration": 0.25,
        "velocity": 0.68,
        "hand": "right"
      },
      {
        "midi": 59,
        "time": 440.25,
        "duration": 0.25,
        "velocity": 0.68,
        "hand": "left"
      },
      {
        "midi": 71,
        "time": 440.25,
        "duration": 0.25,
        "velocity": 0.68,
        "hand": "right"
      },
      {
        "midi": 45,
        "time": 440.5,
        "duration": 0.5,
        "velocity": 0.71,
        "hand": "left"
      },
      {
        "midi": 54,
        "time": 440.5,
        "duration": 0.5,
        "velocity": 0.71,
        "hand": "left"
      },
      {
        "midi": 57,
        "time": 440.5,
        "duration": 0.5,
        "velocity": 0.71,
        "hand": "left"
      },
      {
        "midi": 61,
        "time": 440.5,
        "duration": 0.5,
        "velocity": 0.68,
        "hand": "right"
      },
      {
        "midi": 63,
        "time": 440.5,
        "duration": 0.5,
        "velocity": 0.68,
        "hand": "right"
      },
      {
        "midi": 73,
        "time": 440.5,
        "duration": 0.5,
        "velocity": 0.68,
        "hand": "right"
      },
      {
        "midi": 45,
        "time": 441,
        "duration": 0.5,
        "velocity": 0.71,
        "hand": "left"
      },
      {
        "midi": 52,
        "time": 441,
        "duration": 0.5,
        "velocity": 0.71,
        "hand": "left"
      },
      {
        "midi": 57,
        "time": 441,
        "duration": 0.5,
        "velocity": 0.71,
        "hand": "left"
      },
      {
        "midi": 61,
        "time": 441,
        "duration": 0.5,
        "velocity": 0.68,
        "hand": "right"
      },
      {
        "midi": 64,
        "time": 441,
        "duration": 0.5,
        "velocity": 0.68,
        "hand": "right"
      },
      {
        "midi": 73,
        "time": 441,
        "duration": 0.5,
        "velocity": 0.68,
        "hand": "right"
      },
      {
        "midi": 45,
        "time": 441.5,
        "duration": 0.5,
        "velocity": 0.71,
        "hand": "left"
      },
      {
        "midi": 51,
        "time": 441.5,
        "duration": 0.5,
        "velocity": 0.71,
        "hand": "left"
      },
      {
        "midi": 57,
        "time": 441.5,
        "duration": 0.5,
        "velocity": 0.71,
        "hand": "left"
      },
      {
        "midi": 61,
        "time": 441.5,
        "duration": 0.5,
        "velocity": 0.68,
        "hand": "right"
      },
      {
        "midi": 66,
        "time": 441.5,
        "duration": 0.5,
        "velocity": 0.68,
        "hand": "right"
      },
      {
        "midi": 73,
        "time": 441.5,
        "duration": 0.5,
        "velocity": 0.68,
        "hand": "right"
      },
      {
        "midi": 54,
        "time": 442,
        "duration": 0.25,
        "velocity": 0.68,
        "hand": "left"
      },
      {
        "midi": 66,
        "time": 442,
        "duration": 0.25,
        "velocity": 0.68,
        "hand": "right"
      },
      {
        "midi": 57,
        "time": 442.25,
        "duration": 0.25,
        "velocity": 0.68,
        "hand": "left"
      },
      {
        "midi": 69,
        "time": 442.25,
        "duration": 0.25,
        "velocity": 0.68,
        "hand": "right"
      },
      {
        "midi": 44,
        "time": 442.5,
        "duration": 0.5,
        "velocity": 0.71,
        "hand": "left"
      },
      {
        "midi": 52,
        "time": 442.5,
        "duration": 0.5,
        "velocity": 0.71,
        "hand": "left"
      },
      {
        "midi": 56,
        "time": 442.5,
        "duration": 0.5,
        "velocity": 0.71,
        "hand": "left"
      },
      {
        "midi": 59,
        "time": 442.5,
        "duration": 0.5,
        "velocity": 0.68,
        "hand": "left"
      },
      {
        "midi": 61,
        "time": 442.5,
        "duration": 0.5,
        "velocity": 0.68,
        "hand": "right"
      },
      {
        "midi": 71,
        "time": 442.5,
        "duration": 0.5,
        "velocity": 0.68,
        "hand": "right"
      },
      {
        "midi": 44,
        "time": 443,
        "duration": 0.5,
        "velocity": 0.71,
        "hand": "left"
      },
      {
        "midi": 51,
        "time": 443,
        "duration": 0.5,
        "velocity": 0.71,
        "hand": "left"
      },
      {
        "midi": 56,
        "time": 443,
        "duration": 0.5,
        "velocity": 0.71,
        "hand": "left"
      },
      {
        "midi": 59,
        "time": 443,
        "duration": 0.5,
        "velocity": 0.68,
        "hand": "left"
      },
      {
        "midi": 63,
        "time": 443,
        "duration": 0.5,
        "velocity": 0.68,
        "hand": "right"
      },
      {
        "midi": 71,
        "time": 443,
        "duration": 0.5,
        "velocity": 0.68,
        "hand": "right"
      },
      {
        "midi": 44,
        "time": 443.5,
        "duration": 0.5,
        "velocity": 0.71,
        "hand": "left"
      },
      {
        "midi": 49,
        "time": 443.5,
        "duration": 0.5,
        "velocity": 0.84,
        "hand": "left"
      },
      {
        "midi": 56,
        "time": 443.5,
        "duration": 0.5,
        "velocity": 0.71,
        "hand": "left"
      },
      {
        "midi": 59,
        "time": 443.5,
        "duration": 0.5,
        "velocity": 0.68,
        "hand": "left"
      },
      {
        "midi": 64,
        "time": 443.5,
        "duration": 0.5,
        "velocity": 0.71,
        "hand": "right"
      },
      {
        "midi": 71,
        "time": 443.5,
        "duration": 0.5,
        "velocity": 0.68,
        "hand": "right"
      },
      {
        "midi": 51,
        "time": 444,
        "duration": 0.25,
        "velocity": 0.84,
        "hand": "left"
      },
      {
        "midi": 52,
        "time": 444,
        "duration": 0.25,
        "velocity": 0.84,
        "hand": "left"
      },
      {
        "midi": 56,
        "time": 444,
        "duration": 0.25,
        "velocity": 0.68,
        "hand": "left"
      },
      {
        "midi": 66,
        "time": 444,
        "duration": 0.25,
        "velocity": 0.71,
        "hand": "right"
      },
      {
        "midi": 68,
        "time": 444,
        "duration": 0.25,
        "velocity": 0.68,
        "hand": "right"
      },
      {
        "midi": 59,
        "time": 444.25,
        "duration": 0.25,
        "velocity": 0.68,
        "hand": "left"
      },
      {
        "midi": 71,
        "time": 444.25,
        "duration": 0.25,
        "velocity": 0.68,
        "hand": "right"
      },
      {
        "midi": 45,
        "time": 444.5,
        "duration": 0.5,
        "velocity": 0.71,
        "hand": "left"
      },
      {
        "midi": 54,
        "time": 444.5,
        "duration": 0.5,
        "velocity": 0.71,
        "hand": "left"
      },
      {
        "midi": 57,
        "time": 444.5,
        "duration": 0.5,
        "velocity": 0.71,
        "hand": "left"
      },
      {
        "midi": 61,
        "time": 444.5,
        "duration": 0.5,
        "velocity": 0.68,
        "hand": "right"
      },
      {
        "midi": 63,
        "time": 444.5,
        "duration": 0.5,
        "velocity": 0.68,
        "hand": "right"
      },
      {
        "midi": 73,
        "time": 444.5,
        "duration": 0.5,
        "velocity": 0.68,
        "hand": "right"
      },
      {
        "midi": 45,
        "time": 445,
        "duration": 0.5,
        "velocity": 0.71,
        "hand": "left"
      },
      {
        "midi": 52,
        "time": 445,
        "duration": 0.5,
        "velocity": 0.71,
        "hand": "left"
      },
      {
        "midi": 57,
        "time": 445,
        "duration": 0.5,
        "velocity": 0.71,
        "hand": "left"
      },
      {
        "midi": 61,
        "time": 445,
        "duration": 0.5,
        "velocity": 0.68,
        "hand": "right"
      },
      {
        "midi": 64,
        "time": 445,
        "duration": 0.5,
        "velocity": 0.68,
        "hand": "right"
      },
      {
        "midi": 73,
        "time": 445,
        "duration": 0.5,
        "velocity": 0.68,
        "hand": "right"
      },
      {
        "midi": 45,
        "time": 445.5,
        "duration": 0.5,
        "velocity": 0.71,
        "hand": "left"
      },
      {
        "midi": 51,
        "time": 445.5,
        "duration": 0.5,
        "velocity": 0.71,
        "hand": "left"
      },
      {
        "midi": 57,
        "time": 445.5,
        "duration": 0.5,
        "velocity": 0.71,
        "hand": "left"
      },
      {
        "midi": 61,
        "time": 445.5,
        "duration": 0.5,
        "velocity": 0.68,
        "hand": "right"
      },
      {
        "midi": 66,
        "time": 445.5,
        "duration": 0.5,
        "velocity": 0.68,
        "hand": "right"
      },
      {
        "midi": 73,
        "time": 445.5,
        "duration": 0.5,
        "velocity": 0.68,
        "hand": "right"
      },
      {
        "midi": 54,
        "time": 446,
        "duration": 0.25,
        "velocity": 0.68,
        "hand": "left"
      },
      {
        "midi": 66,
        "time": 446,
        "duration": 0.25,
        "velocity": 0.68,
        "hand": "right"
      },
      {
        "midi": 57,
        "time": 446.25,
        "duration": 0.25,
        "velocity": 0.68,
        "hand": "left"
      },
      {
        "midi": 69,
        "time": 446.25,
        "duration": 0.25,
        "velocity": 0.68,
        "hand": "right"
      },
      {
        "midi": 44,
        "time": 446.5,
        "duration": 0.5,
        "velocity": 0.71,
        "hand": "left"
      },
      {
        "midi": 52,
        "time": 446.5,
        "duration": 0.5,
        "velocity": 0.71,
        "hand": "left"
      },
      {
        "midi": 56,
        "time": 446.5,
        "duration": 0.5,
        "velocity": 0.71,
        "hand": "left"
      },
      {
        "midi": 59,
        "time": 446.5,
        "duration": 0.5,
        "velocity": 0.68,
        "hand": "left"
      },
      {
        "midi": 61,
        "time": 446.5,
        "duration": 0.5,
        "velocity": 0.68,
        "hand": "right"
      },
      {
        "midi": 71,
        "time": 446.5,
        "duration": 0.5,
        "velocity": 0.68,
        "hand": "right"
      },
      {
        "midi": 44,
        "time": 447,
        "duration": 0.5,
        "velocity": 0.71,
        "hand": "left"
      },
      {
        "midi": 51,
        "time": 447,
        "duration": 0.5,
        "velocity": 0.71,
        "hand": "left"
      },
      {
        "midi": 56,
        "time": 447,
        "duration": 0.5,
        "velocity": 0.71,
        "hand": "left"
      },
      {
        "midi": 59,
        "time": 447,
        "duration": 0.5,
        "velocity": 0.68,
        "hand": "left"
      },
      {
        "midi": 63,
        "time": 447,
        "duration": 0.5,
        "velocity": 0.68,
        "hand": "right"
      },
      {
        "midi": 71,
        "time": 447,
        "duration": 0.5,
        "velocity": 0.68,
        "hand": "right"
      },
      {
        "midi": 44,
        "time": 447.5,
        "duration": 0.5,
        "velocity": 0.71,
        "hand": "left"
      },
      {
        "midi": 49,
        "time": 447.5,
        "duration": 0.5,
        "velocity": 0.71,
        "hand": "left"
      },
      {
        "midi": 56,
        "time": 447.5,
        "duration": 0.5,
        "velocity": 0.71,
        "hand": "left"
      },
      {
        "midi": 59,
        "time": 447.5,
        "duration": 0.5,
        "velocity": 0.68,
        "hand": "left"
      },
      {
        "midi": 64,
        "time": 447.5,
        "duration": 0.5,
        "velocity": 0.68,
        "hand": "right"
      },
      {
        "midi": 71,
        "time": 447.5,
        "duration": 0.5,
        "velocity": 0.68,
        "hand": "right"
      },
      {
        "midi": 52,
        "time": 448,
        "duration": 0.25,
        "velocity": 0.68,
        "hand": "left"
      },
      {
        "midi": 64,
        "time": 448,
        "duration": 0.25,
        "velocity": 0.68,
        "hand": "right"
      },
      {
        "midi": 56,
        "time": 448.25,
        "duration": 0.25,
        "velocity": 0.68,
        "hand": "left"
      },
      {
        "midi": 68,
        "time": 448.25,
        "duration": 0.25,
        "velocity": 0.68,
        "hand": "right"
      },
      {
        "midi": 42,
        "time": 448.5,
        "duration": 0.5,
        "velocity": 0.71,
        "hand": "left"
      },
      {
        "midi": 51,
        "time": 448.5,
        "duration": 0.5,
        "velocity": 0.71,
        "hand": "left"
      },
      {
        "midi": 54,
        "time": 448.5,
        "duration": 0.5,
        "velocity": 0.71,
        "hand": "left"
      },
      {
        "midi": 57,
        "time": 448.5,
        "duration": 0.5,
        "velocity": 0.68,
        "hand": "left"
      },
      {
        "midi": 60,
        "time": 448.5,
        "duration": 0.5,
        "velocity": 0.68,
        "hand": "right"
      },
      {
        "midi": 69,
        "time": 448.5,
        "duration": 0.5,
        "velocity": 0.68,
        "hand": "right"
      },
      {
        "midi": 42,
        "time": 449,
        "duration": 0.5,
        "velocity": 0.71,
        "hand": "left"
      },
      {
        "midi": 49,
        "time": 449,
        "duration": 0.5,
        "velocity": 0.71,
        "hand": "left"
      },
      {
        "midi": 54,
        "time": 449,
        "duration": 0.5,
        "velocity": 0.71,
        "hand": "left"
      },
      {
        "midi": 57,
        "time": 449,
        "duration": 0.5,
        "velocity": 0.68,
        "hand": "left"
      },
      {
        "midi": 61,
        "time": 449,
        "duration": 0.5,
        "velocity": 0.68,
        "hand": "right"
      },
      {
        "midi": 69,
        "time": 449,
        "duration": 0.5,
        "velocity": 0.68,
        "hand": "right"
      },
      {
        "midi": 42,
        "time": 449.5,
        "duration": 0.5,
        "velocity": 0.71,
        "hand": "left"
      },
      {
        "midi": 48,
        "time": 449.5,
        "duration": 0.5,
        "velocity": 0.71,
        "hand": "left"
      },
      {
        "midi": 54,
        "time": 449.5,
        "duration": 0.5,
        "velocity": 0.71,
        "hand": "left"
      },
      {
        "midi": 57,
        "time": 449.5,
        "duration": 0.5,
        "velocity": 0.68,
        "hand": "left"
      },
      {
        "midi": 63,
        "time": 449.5,
        "duration": 0.5,
        "velocity": 0.68,
        "hand": "right"
      },
      {
        "midi": 69,
        "time": 449.5,
        "duration": 0.5,
        "velocity": 0.68,
        "hand": "right"
      },
      {
        "midi": 51,
        "time": 450,
        "duration": 0.25,
        "velocity": 0.68,
        "hand": "left"
      },
      {
        "midi": 63,
        "time": 450,
        "duration": 0.25,
        "velocity": 0.68,
        "hand": "right"
      },
      {
        "midi": 54,
        "time": 450.25,
        "duration": 0.25,
        "velocity": 0.68,
        "hand": "left"
      },
      {
        "midi": 66,
        "time": 450.25,
        "duration": 0.25,
        "velocity": 0.68,
        "hand": "right"
      },
      {
        "midi": 40,
        "time": 450.5,
        "duration": 0.5,
        "velocity": 0.71,
        "hand": "left"
      },
      {
        "midi": 49,
        "time": 450.5,
        "duration": 0.5,
        "velocity": 0.71,
        "hand": "left"
      },
      {
        "midi": 52,
        "time": 450.5,
        "duration": 0.5,
        "velocity": 0.71,
        "hand": "left"
      },
      {
        "midi": 56,
        "time": 450.5,
        "duration": 0.5,
        "velocity": 0.68,
        "hand": "left"
      },
      {
        "midi": 58,
        "time": 450.5,
        "duration": 0.5,
        "velocity": 0.68,
        "hand": "left"
      },
      {
        "midi": 68,
        "time": 450.5,
        "duration": 0.5,
        "velocity": 0.68,
        "hand": "right"
      },
      {
        "midi": 40,
        "time": 451,
        "duration": 0.5,
        "velocity": 0.71,
        "hand": "left"
      },
      {
        "midi": 48,
        "time": 451,
        "duration": 0.5,
        "velocity": 0.71,
        "hand": "left"
      },
      {
        "midi": 52,
        "time": 451,
        "duration": 0.5,
        "velocity": 0.71,
        "hand": "left"
      },
      {
        "midi": 56,
        "time": 451,
        "duration": 0.5,
        "velocity": 0.68,
        "hand": "left"
      },
      {
        "midi": 60,
        "time": 451,
        "duration": 0.5,
        "velocity": 0.68,
        "hand": "right"
      },
      {
        "midi": 68,
        "time": 451,
        "duration": 0.5,
        "velocity": 0.68,
        "hand": "right"
      },
      {
        "midi": 40,
        "time": 451.5,
        "duration": 0.5,
        "velocity": 0.71,
        "hand": "left"
      },
      {
        "midi": 46,
        "time": 451.5,
        "duration": 0.5,
        "velocity": 0.71,
        "hand": "left"
      },
      {
        "midi": 52,
        "time": 451.5,
        "duration": 0.5,
        "velocity": 0.71,
        "hand": "left"
      },
      {
        "midi": 56,
        "time": 451.5,
        "duration": 0.5,
        "velocity": 0.68,
        "hand": "left"
      },
      {
        "midi": 61,
        "time": 451.5,
        "duration": 0.5,
        "velocity": 0.68,
        "hand": "right"
      },
      {
        "midi": 68,
        "time": 451.5,
        "duration": 0.5,
        "velocity": 0.68,
        "hand": "right"
      },
      {
        "midi": 49,
        "time": 452,
        "duration": 0.25,
        "velocity": 0.68,
        "hand": "left"
      },
      {
        "midi": 61,
        "time": 452,
        "duration": 0.25,
        "velocity": 0.68,
        "hand": "right"
      },
      {
        "midi": 52,
        "time": 452.25,
        "duration": 0.25,
        "velocity": 0.68,
        "hand": "left"
      },
      {
        "midi": 64,
        "time": 452.25,
        "duration": 0.25,
        "velocity": 0.68,
        "hand": "right"
      },
      {
        "midi": 39,
        "time": 452.5,
        "duration": 0.5,
        "velocity": 0.71,
        "hand": "left"
      },
      {
        "midi": 44,
        "time": 452.5,
        "duration": 0.5,
        "velocity": 0.71,
        "hand": "left"
      },
      {
        "midi": 51,
        "time": 452.5,
        "duration": 0.5,
        "velocity": 0.71,
        "hand": "left"
      },
      {
        "midi": 54,
        "time": 452.5,
        "duration": 0.5,
        "velocity": 0.68,
        "hand": "left"
      },
      {
        "midi": 56,
        "time": 452.5,
        "duration": 0.5,
        "velocity": 0.68,
        "hand": "left"
      },
      {
        "midi": 66,
        "time": 452.5,
        "duration": 0.5,
        "velocity": 0.68,
        "hand": "right"
      },
      {
        "midi": 48,
        "time": 453,
        "duration": 0.25,
        "velocity": 0.68,
        "hand": "left"
      },
      {
        "midi": 60,
        "time": 453,
        "duration": 0.25,
        "velocity": 0.68,
        "hand": "right"
      },
      {
        "midi": 51,
        "time": 453.25,
        "duration": 0.25,
        "velocity": 0.68,
        "hand": "left"
      },
      {
        "midi": 63,
        "time": 453.25,
        "duration": 0.25,
        "velocity": 0.68,
        "hand": "right"
      },
      {
        "midi": 37,
        "time": 453.5,
        "duration": 0.5,
        "velocity": 0.71,
        "hand": "left"
      },
      {
        "midi": 44,
        "time": 453.5,
        "duration": 0.5,
        "velocity": 0.71,
        "hand": "left"
      },
      {
        "midi": 49,
        "time": 453.5,
        "duration": 0.5,
        "velocity": 0.71,
        "hand": "left"
      },
      {
        "midi": 52,
        "time": 453.5,
        "duration": 0.5,
        "velocity": 0.68,
        "hand": "left"
      },
      {
        "midi": 56,
        "time": 453.5,
        "duration": 0.5,
        "velocity": 0.68,
        "hand": "left"
      },
      {
        "midi": 64,
        "time": 453.5,
        "duration": 0.5,
        "velocity": 0.68,
        "hand": "right"
      },
      {
        "midi": 46,
        "time": 454,
        "duration": 0.25,
        "velocity": 0.68,
        "hand": "left"
      },
      {
        "midi": 58,
        "time": 454,
        "duration": 0.25,
        "velocity": 0.68,
        "hand": "left"
      },
      {
        "midi": 49,
        "time": 454.25,
        "duration": 0.25,
        "velocity": 0.68,
        "hand": "left"
      },
      {
        "midi": 61,
        "time": 454.25,
        "duration": 0.25,
        "velocity": 0.68,
        "hand": "right"
      },
      {
        "midi": 32,
        "time": 454.5,
        "duration": 0.125,
        "velocity": 0.84,
        "hand": "left"
      },
      {
        "midi": 44,
        "time": 454.5,
        "duration": 1.5,
        "velocity": 0.84,
        "hand": "left"
      },
      {
        "midi": 49,
        "time": 454.5,
        "duration": 0.5,
        "velocity": 0.71,
        "hand": "left"
      },
      {
        "midi": 51,
        "time": 454.5,
        "duration": 1.5,
        "velocity": 0.75,
        "hand": "left"
      },
      {
        "midi": 56,
        "time": 454.5,
        "duration": 1.5,
        "velocity": 0.75,
        "hand": "left"
      },
      {
        "midi": 63,
        "time": 454.5,
        "duration": 1.5,
        "velocity": 0.75,
        "hand": "right"
      },
      {
        "midi": 48,
        "time": 455,
        "duration": 1,
        "velocity": 0.71,
        "hand": "left"
      },
      {
        "midi": 42,
        "time": 456,
        "duration": 0.5,
        "velocity": 0.84,
        "hand": "left"
      },
      {
        "midi": 49,
        "time": 456,
        "duration": 0.5,
        "velocity": 0.71,
        "hand": "left"
      },
      {
        "midi": 54,
        "time": 456,
        "duration": 0.5,
        "velocity": 0.75,
        "hand": "left"
      },
      {
        "midi": 57,
        "time": 456,
        "duration": 0.5,
        "velocity": 0.75,
        "hand": "left"
      },
      {
        "midi": 66,
        "time": 456,
        "duration": 0.5,
        "velocity": 0.75,
        "hand": "right"
      },
      {
        "midi": 44,
        "time": 456.5,
        "duration": 0.5,
        "velocity": 0.84,
        "hand": "left"
      },
      {
        "midi": 48,
        "time": 456.5,
        "duration": 0.5,
        "velocity": 0.71,
        "hand": "left"
      },
      {
        "midi": 51,
        "time": 456.5,
        "duration": 0.5,
        "velocity": 0.75,
        "hand": "left"
      },
      {
        "midi": 56,
        "time": 456.5,
        "duration": 0.5,
        "velocity": 0.75,
        "hand": "left"
      },
      {
        "midi": 63,
        "time": 456.5,
        "duration": 0.5,
        "velocity": 0.75,
        "hand": "right"
      },
      {
        "midi": 42,
        "time": 457,
        "duration": 0.5,
        "velocity": 0.84,
        "hand": "left"
      },
      {
        "midi": 49,
        "time": 457,
        "duration": 0.5,
        "velocity": 0.71,
        "hand": "left"
      },
      {
        "midi": 54,
        "time": 457,
        "duration": 0.5,
        "velocity": 0.75,
        "hand": "left"
      },
      {
        "midi": 57,
        "time": 457,
        "duration": 0.5,
        "velocity": 0.75,
        "hand": "left"
      },
      {
        "midi": 66,
        "time": 457,
        "duration": 0.5,
        "velocity": 0.75,
        "hand": "right"
      },
      {
        "midi": 44,
        "time": 457.5,
        "duration": 0.5,
        "velocity": 0.84,
        "hand": "left"
      },
      {
        "midi": 48,
        "time": 457.5,
        "duration": 0.5,
        "velocity": 0.71,
        "hand": "left"
      },
      {
        "midi": 51,
        "time": 457.5,
        "duration": 0.5,
        "velocity": 0.75,
        "hand": "left"
      },
      {
        "midi": 56,
        "time": 457.5,
        "duration": 0.5,
        "velocity": 0.75,
        "hand": "left"
      },
      {
        "midi": 63,
        "time": 457.5,
        "duration": 0.5,
        "velocity": 0.75,
        "hand": "right"
      },
      {
        "midi": 42,
        "time": 458,
        "duration": 0.5,
        "velocity": 0.84,
        "hand": "left"
      },
      {
        "midi": 49,
        "time": 458,
        "duration": 0.5,
        "velocity": 0.71,
        "hand": "left"
      },
      {
        "midi": 54,
        "time": 458,
        "duration": 0.5,
        "velocity": 0.75,
        "hand": "left"
      },
      {
        "midi": 57,
        "time": 458,
        "duration": 0.5,
        "velocity": 0.75,
        "hand": "left"
      },
      {
        "midi": 66,
        "time": 458,
        "duration": 0.5,
        "velocity": 0.75,
        "hand": "right"
      },
      {
        "midi": 32,
        "time": 458.5,
        "duration": 0.125,
        "velocity": 0.84,
        "hand": "left"
      },
      {
        "midi": 44,
        "time": 458.5,
        "duration": 1.5,
        "velocity": 0.84,
        "hand": "left"
      },
      {
        "midi": 49,
        "time": 458.5,
        "duration": 0.5,
        "velocity": 0.71,
        "hand": "left"
      },
      {
        "midi": 51,
        "time": 458.5,
        "duration": 1.5,
        "velocity": 0.75,
        "hand": "left"
      },
      {
        "midi": 56,
        "time": 458.5,
        "duration": 1.5,
        "velocity": 0.75,
        "hand": "left"
      },
      {
        "midi": 63,
        "time": 458.5,
        "duration": 1.5,
        "velocity": 0.75,
        "hand": "right"
      },
      {
        "midi": 48,
        "time": 459,
        "duration": 1,
        "velocity": 0.71,
        "hand": "left"
      },
      {
        "midi": 42,
        "time": 460,
        "duration": 0.5,
        "velocity": 0.84,
        "hand": "left"
      },
      {
        "midi": 49,
        "time": 460,
        "duration": 0.5,
        "velocity": 0.71,
        "hand": "left"
      },
      {
        "midi": 54,
        "time": 460,
        "duration": 0.5,
        "velocity": 0.75,
        "hand": "left"
      },
      {
        "midi": 57,
        "time": 460,
        "duration": 0.5,
        "velocity": 0.75,
        "hand": "left"
      },
      {
        "midi": 66,
        "time": 460,
        "duration": 0.5,
        "velocity": 0.75,
        "hand": "right"
      },
      {
        "midi": 44,
        "time": 460.5,
        "duration": 0.5,
        "velocity": 0.84,
        "hand": "left"
      },
      {
        "midi": 48,
        "time": 460.5,
        "duration": 0.5,
        "velocity": 0.71,
        "hand": "left"
      },
      {
        "midi": 51,
        "time": 460.5,
        "duration": 0.5,
        "velocity": 0.75,
        "hand": "left"
      },
      {
        "midi": 56,
        "time": 460.5,
        "duration": 0.5,
        "velocity": 0.75,
        "hand": "left"
      },
      {
        "midi": 63,
        "time": 460.5,
        "duration": 0.5,
        "velocity": 0.75,
        "hand": "right"
      },
      {
        "midi": 42,
        "time": 461,
        "duration": 0.5,
        "velocity": 0.84,
        "hand": "left"
      },
      {
        "midi": 49,
        "time": 461,
        "duration": 0.5,
        "velocity": 0.71,
        "hand": "left"
      },
      {
        "midi": 54,
        "time": 461,
        "duration": 0.5,
        "velocity": 0.75,
        "hand": "left"
      },
      {
        "midi": 57,
        "time": 461,
        "duration": 0.5,
        "velocity": 0.75,
        "hand": "left"
      },
      {
        "midi": 66,
        "time": 461,
        "duration": 0.5,
        "velocity": 0.75,
        "hand": "right"
      },
      {
        "midi": 44,
        "time": 461.5,
        "duration": 0.5,
        "velocity": 0.84,
        "hand": "left"
      },
      {
        "midi": 48,
        "time": 461.5,
        "duration": 0.5,
        "velocity": 0.71,
        "hand": "left"
      },
      {
        "midi": 51,
        "time": 461.5,
        "duration": 0.5,
        "velocity": 0.75,
        "hand": "left"
      },
      {
        "midi": 56,
        "time": 461.5,
        "duration": 0.5,
        "velocity": 0.75,
        "hand": "left"
      },
      {
        "midi": 63,
        "time": 461.5,
        "duration": 0.5,
        "velocity": 0.75,
        "hand": "right"
      },
      {
        "midi": 42,
        "time": 462,
        "duration": 0.5,
        "velocity": 0.84,
        "hand": "left"
      },
      {
        "midi": 49,
        "time": 462,
        "duration": 0.5,
        "velocity": 0.71,
        "hand": "left"
      },
      {
        "midi": 54,
        "time": 462,
        "duration": 0.5,
        "velocity": 0.75,
        "hand": "left"
      },
      {
        "midi": 57,
        "time": 462,
        "duration": 0.5,
        "velocity": 0.75,
        "hand": "left"
      },
      {
        "midi": 66,
        "time": 462,
        "duration": 0.5,
        "velocity": 0.75,
        "hand": "right"
      },
      {
        "midi": 44,
        "time": 462.5,
        "duration": 8.5,
        "velocity": 0.84,
        "hand": "left"
      },
      {
        "midi": 49,
        "time": 462.5,
        "duration": 1,
        "velocity": 0.71,
        "hand": "left"
      },
      {
        "midi": 51,
        "time": 462.5,
        "duration": 14,
        "velocity": 0.75,
        "hand": "left"
      },
      {
        "midi": 56,
        "time": 462.5,
        "duration": 14,
        "velocity": 0.75,
        "hand": "left"
      },
      {
        "midi": 63,
        "time": 462.5,
        "duration": 14,
        "velocity": 0.75,
        "hand": "right"
      },
      {
        "midi": 48,
        "time": 463.5,
        "duration": 2,
        "velocity": 0.71,
        "hand": "left"
      },
      {
        "midi": 47,
        "time": 465.5,
        "duration": 1,
        "velocity": 0.71,
        "hand": "left"
      },
      {
        "midi": 48,
        "time": 466.5,
        "duration": 4.5,
        "velocity": 0.71,
        "hand": "left"
      },
      {
        "midi": 36,
        "time": 476.5,
        "duration": 0.5,
        "velocity": 0.71,
        "hand": "left"
      },
      {
        "midi": 43,
        "time": 476.5,
        "duration": 0.5,
        "velocity": 0.71,
        "hand": "left"
      },
      {
        "midi": 48,
        "time": 476.5,
        "duration": 0.5,
        "velocity": 0.71,
        "hand": "left"
      },
      {
        "midi": 51,
        "time": 476.5,
        "duration": 0.5,
        "velocity": 0.49,
        "hand": "left"
      },
      {
        "midi": 55,
        "time": 476.5,
        "duration": 0.5,
        "velocity": 0.49,
        "hand": "left"
      },
      {
        "midi": 60,
        "time": 476.5,
        "duration": 2,
        "velocity": 0.71,
        "hand": "right"
      },
      {
        "midi": 63,
        "time": 478.5,
        "duration": 1,
        "velocity": 0.71,
        "hand": "right"
      },
      {
        "midi": 60,
        "time": 479.5,
        "duration": 1,
        "velocity": 0.71,
        "hand": "right"
      },
      {
        "midi": 44,
        "time": 480.5,
        "duration": 0.5,
        "velocity": 0.71,
        "hand": "left"
      },
      {
        "midi": 48,
        "time": 480.5,
        "duration": 0.5,
        "velocity": 0.71,
        "hand": "left"
      },
      {
        "midi": 53,
        "time": 480.5,
        "duration": 0.5,
        "velocity": 0.49,
        "hand": "left"
      },
      {
        "midi": 60,
        "time": 480.5,
        "duration": 0.5,
        "velocity": 0.49,
        "hand": "right"
      },
      {
        "midi": 65,
        "time": 480.5,
        "duration": 4,
        "velocity": 0.71,
        "hand": "right"
      },
      {
        "midi": 39,
        "time": 484.5,
        "duration": 0.5,
        "velocity": 0.71,
        "hand": "left"
      },
      {
        "midi": 43,
        "time": 484.5,
        "duration": 0.5,
        "velocity": 0.71,
        "hand": "left"
      },
      {
        "midi": 48,
        "time": 484.5,
        "duration": 0.5,
        "velocity": 0.71,
        "hand": "left"
      },
      {
        "midi": 51,
        "time": 484.5,
        "duration": 0.5,
        "velocity": 0.71,
        "hand": "left"
      },
      {
        "midi": 55,
        "time": 484.5,
        "duration": 0.5,
        "velocity": 0.49,
        "hand": "left"
      },
      {
        "midi": 60,
        "time": 484.5,
        "duration": 0.5,
        "velocity": 0.49,
        "hand": "right"
      },
      {
        "midi": 67,
        "time": 484.5,
        "duration": 1.5,
        "velocity": 0.71,
        "hand": "right"
      },
      {
        "midi": 65,
        "time": 486,
        "duration": 0.25,
        "velocity": 0.71,
        "hand": "right"
      },
      {
        "midi": 62,
        "time": 486.25,
        "duration": 0.25,
        "velocity": 0.71,
        "hand": "right"
      },
      {
        "midi": 63,
        "time": 486.25,
        "duration": 0.25,
        "velocity": 0.71,
        "hand": "right"
      },
      {
        "midi": 60,
        "time": 486.5,
        "duration": 1,
        "velocity": 0.71,
        "hand": "right"
      },
      {
        "midi": 60,
        "time": 487.5,
        "duration": 1,
        "velocity": 0.71,
        "hand": "right"
      },
      {
        "midi": 43,
        "time": 488.5,
        "duration": 1,
        "velocity": 0.71,
        "hand": "left"
      },
      {
        "midi": 50,
        "time": 488.5,
        "duration": 1,
        "velocity": 0.71,
        "hand": "left"
      },
      {
        "midi": 55,
        "time": 488.5,
        "duration": 1,
        "velocity": 0.49,
        "hand": "left"
      },
      {
        "midi": 58,
        "time": 488.5,
        "duration": 1,
        "velocity": 0.71,
        "hand": "left"
      },
      {
        "midi": 55,
        "time": 489.5,
        "duration": 3,
        "velocity": 0.71,
        "hand": "left"
      },
      {
        "midi": 39,
        "time": 492.5,
        "duration": 0.5,
        "velocity": 0.71,
        "hand": "left"
      },
      {
        "midi": 48,
        "time": 492.5,
        "duration": 0.5,
        "velocity": 0.71,
        "hand": "left"
      },
      {
        "midi": 55,
        "time": 492.5,
        "duration": 0.5,
        "velocity": 0.49,
        "hand": "left"
      },
      {
        "midi": 60,
        "time": 492.5,
        "duration": 1,
        "velocity": 0.71,
        "hand": "right"
      },
      {
        "midi": 60,
        "time": 493.5,
        "duration": 1,
        "velocity": 0.71,
        "hand": "right"
      },
      {
        "midi": 36,
        "time": 494.5,
        "duration": 0.5,
        "velocity": 0.71,
        "hand": "left"
      },
      {
        "midi": 43,
        "time": 494.5,
        "duration": 0.5,
        "velocity": 0.71,
        "hand": "left"
      },
      {
        "midi": 48,
        "time": 494.5,
        "duration": 0.5,
        "velocity": 0.71,
        "hand": "left"
      },
      {
        "midi": 51,
        "time": 494.5,
        "duration": 0.5,
        "velocity": 0.49,
        "hand": "left"
      },
      {
        "midi": 55,
        "time": 494.5,
        "duration": 0.5,
        "velocity": 0.49,
        "hand": "left"
      },
      {
        "midi": 60,
        "time": 494.5,
        "duration": 0.5,
        "velocity": 0.49,
        "hand": "right"
      },
      {
        "midi": 63,
        "time": 494.5,
        "duration": 1.5,
        "velocity": 0.71,
        "hand": "right"
      },
      {
        "midi": 62,
        "time": 496,
        "duration": 0.25,
        "velocity": 0.71,
        "hand": "right"
      },
      {
        "midi": 60,
        "time": 496.25,
        "duration": 0.25,
        "velocity": 0.71,
        "hand": "right"
      },
      {
        "midi": 38,
        "time": 496.5,
        "duration": 1.5,
        "velocity": 0.71,
        "hand": "left"
      },
      {
        "midi": 46,
        "time": 496.5,
        "duration": 4,
        "velocity": 0.71,
        "hand": "left"
      },
      {
        "midi": 53,
        "time": 496.5,
        "duration": 4,
        "velocity": 0.49,
        "hand": "left"
      },
      {
        "midi": 58,
        "time": 496.5,
        "duration": 4,
        "velocity": 0.71,
        "hand": "left"
      },
      {
        "midi": 39,
        "time": 498,
        "duration": 0.5,
        "velocity": 0.71,
        "hand": "left"
      },
      {
        "midi": 38,
        "time": 498.5,
        "duration": 0.75,
        "velocity": 0.71,
        "hand": "left"
      },
      {
        "midi": 39,
        "time": 499.25,
        "duration": 0.25,
        "velocity": 0.71,
        "hand": "left"
      },
      {
        "midi": 36,
        "time": 499.5,
        "duration": 0.5,
        "velocity": 0.71,
        "hand": "left"
      },
      {
        "midi": 38,
        "time": 499.5,
        "duration": 0.25,
        "velocity": 0.71,
        "hand": "left"
      },
      {
        "midi": 38,
        "time": 500,
        "duration": 0.5,
        "velocity": 0.71,
        "hand": "left"
      },
      {
        "midi": 39,
        "time": 500.5,
        "duration": 3,
        "velocity": 0.71,
        "hand": "left"
      },
      {
        "midi": 48,
        "time": 500.5,
        "duration": 3,
        "velocity": 0.71,
        "hand": "left"
      },
      {
        "midi": 55,
        "time": 500.5,
        "duration": 2,
        "velocity": 0.71,
        "hand": "left"
      },
      {
        "midi": 60,
        "time": 501,
        "duration": 0.5,
        "velocity": 0.71,
        "hand": "right"
      },
      {
        "midi": 59,
        "time": 501.5,
        "duration": 0.5,
        "velocity": 0.71,
        "hand": "left"
      },
      {
        "midi": 60,
        "time": 502,
        "duration": 0.5,
        "velocity": 0.71,
        "hand": "right"
      },
      {
        "midi": 55,
        "time": 502.5,
        "duration": 1,
        "velocity": 0.71,
        "hand": "left"
      },
      {
        "midi": 44,
        "time": 503.5,
        "duration": 1,
        "velocity": 0.71,
        "hand": "left"
      },
      {
        "midi": 48,
        "time": 503.5,
        "duration": 1,
        "velocity": 0.71,
        "hand": "left"
      },
      {
        "midi": 53,
        "time": 503.5,
        "duration": 0.75,
        "velocity": 0.71,
        "hand": "left"
      },
      {
        "midi": 51,
        "time": 504.25,
        "duration": 0.25,
        "velocity": 0.71,
        "hand": "left"
      },
      {
        "midi": 43,
        "time": 504.5,
        "duration": 4,
        "velocity": 0.71,
        "hand": "left"
      },
      {
        "midi": 47,
        "time": 504.5,
        "duration": 2,
        "velocity": 0.71,
        "hand": "left"
      },
      {
        "midi": 50,
        "time": 504.5,
        "duration": 2,
        "velocity": 0.49,
        "hand": "left"
      },
      {
        "midi": 53,
        "time": 504.5,
        "duration": 0.25,
        "velocity": 0.71,
        "hand": "left"
      },
      {
        "midi": 55,
        "time": 504.5,
        "duration": 4,
        "velocity": 0.71,
        "hand": "left"
      },
      {
        "midi": 45,
        "time": 506.5,
        "duration": 1,
        "velocity": 0.71,
        "hand": "left"
      },
      {
        "midi": 48,
        "time": 506.5,
        "duration": 1,
        "velocity": 0.49,
        "hand": "left"
      },
      {
        "midi": 47,
        "time": 507.5,
        "duration": 1,
        "velocity": 0.71,
        "hand": "left"
      },
      {
        "midi": 50,
        "time": 507.5,
        "duration": 1,
        "velocity": 0.49,
        "hand": "left"
      },
      {
        "midi": 39,
        "time": 508.5,
        "duration": 0.5,
        "velocity": 0.71,
        "hand": "left"
      },
      {
        "midi": 48,
        "time": 508.5,
        "duration": 0.5,
        "velocity": 0.71,
        "hand": "left"
      },
      {
        "midi": 51,
        "time": 508.5,
        "duration": 0.5,
        "velocity": 0.71,
        "hand": "left"
      },
      {
        "midi": 55,
        "time": 508.5,
        "duration": 0.5,
        "velocity": 0.49,
        "hand": "left"
      },
      {
        "midi": 60,
        "time": 508.5,
        "duration": 0.5,
        "velocity": 0.49,
        "hand": "right"
      },
      {
        "midi": 67,
        "time": 508.5,
        "duration": 1,
        "velocity": 0.71,
        "hand": "right"
      },
      {
        "midi": 67,
        "time": 509.5,
        "duration": 1,
        "velocity": 0.71,
        "hand": "right"
      },
      {
        "midi": 38,
        "time": 510.5,
        "duration": 0.5,
        "velocity": 0.71,
        "hand": "left"
      },
      {
        "midi": 50,
        "time": 510.5,
        "duration": 0.5,
        "velocity": 0.71,
        "hand": "left"
      },
      {
        "midi": 56,
        "time": 510.5,
        "duration": 0.5,
        "velocity": 0.49,
        "hand": "left"
      },
      {
        "midi": 60,
        "time": 510.5,
        "duration": 0.5,
        "velocity": 0.49,
        "hand": "right"
      },
      {
        "midi": 67,
        "time": 510.5,
        "duration": 1.5,
        "velocity": 0.71,
        "hand": "right"
      },
      {
        "midi": 65,
        "time": 512,
        "duration": 0.25,
        "velocity": 0.71,
        "hand": "right"
      },
      {
        "midi": 63,
        "time": 512.25,
        "duration": 0.25,
        "velocity": 0.71,
        "hand": "right"
      },
      {
        "midi": 62,
        "time": 512.5,
        "duration": 4,
        "velocity": 0.71,
        "hand": "right"
      },
      {
        "midi": 44,
        "time": 513.5,
        "duration": 2,
        "velocity": 0.71,
        "hand": "left"
      },
      {
        "midi": 50,
        "time": 513.5,
        "duration": 3,
        "velocity": 0.71,
        "hand": "left"
      },
      {
        "midi": 53,
        "time": 513.5,
        "duration": 2,
        "velocity": 0.49,
        "hand": "left"
      },
      {
        "midi": 60,
        "time": 513.5,
        "duration": 2,
        "velocity": 0.49,
        "hand": "right"
      },
      {
        "midi": 43,
        "time": 515.5,
        "duration": 1,
        "velocity": 0.71,
        "hand": "left"
      },
      {
        "midi": 55,
        "time": 515.5,
        "duration": 1,
        "velocity": 0.49,
        "hand": "left"
      },
      {
        "midi": 59,
        "time": 515.5,
        "duration": 1,
        "velocity": 0.49,
        "hand": "left"
      },
      {
        "midi": 39,
        "time": 516.5,
        "duration": 0.5,
        "velocity": 0.71,
        "hand": "left"
      },
      {
        "midi": 48,
        "time": 516.5,
        "duration": 0.5,
        "velocity": 0.71,
        "hand": "left"
      },
      {
        "midi": 51,
        "time": 516.5,
        "duration": 0.5,
        "velocity": 0.71,
        "hand": "left"
      },
      {
        "midi": 55,
        "time": 516.5,
        "duration": 0.5,
        "velocity": 0.49,
        "hand": "left"
      },
      {
        "midi": 60,
        "time": 516.5,
        "duration": 0.5,
        "velocity": 0.49,
        "hand": "right"
      },
      {
        "midi": 67,
        "time": 516.5,
        "duration": 1,
        "velocity": 0.71,
        "hand": "right"
      },
      {
        "midi": 67,
        "time": 517.5,
        "duration": 1,
        "velocity": 0.71,
        "hand": "right"
      },
      {
        "midi": 38,
        "time": 518.5,
        "duration": 0.5,
        "velocity": 0.71,
        "hand": "left"
      },
      {
        "midi": 50,
        "time": 518.5,
        "duration": 0.5,
        "velocity": 0.71,
        "hand": "left"
      },
      {
        "midi": 56,
        "time": 518.5,
        "duration": 0.5,
        "velocity": 0.49,
        "hand": "left"
      },
      {
        "midi": 60,
        "time": 518.5,
        "duration": 0.5,
        "velocity": 0.49,
        "hand": "right"
      },
      {
        "midi": 67,
        "time": 518.5,
        "duration": 1.5,
        "velocity": 0.71,
        "hand": "right"
      },
      {
        "midi": 65,
        "time": 520,
        "duration": 0.25,
        "velocity": 0.71,
        "hand": "right"
      },
      {
        "midi": 63,
        "time": 520.25,
        "duration": 0.25,
        "velocity": 0.71,
        "hand": "right"
      },
      {
        "midi": 62,
        "time": 520.5,
        "duration": 4,
        "velocity": 0.71,
        "hand": "right"
      },
      {
        "midi": 44,
        "time": 521.5,
        "duration": 2,
        "velocity": 0.71,
        "hand": "left"
      },
      {
        "midi": 50,
        "time": 521.5,
        "duration": 3,
        "velocity": 0.71,
        "hand": "left"
      },
      {
        "midi": 53,
        "time": 521.5,
        "duration": 2,
        "velocity": 0.49,
        "hand": "left"
      },
      {
        "midi": 60,
        "time": 521.5,
        "duration": 2,
        "velocity": 0.49,
        "hand": "right"
      },
      {
        "midi": 43,
        "time": 523.5,
        "duration": 1,
        "velocity": 0.71,
        "hand": "left"
      },
      {
        "midi": 55,
        "time": 523.5,
        "duration": 1,
        "velocity": 0.49,
        "hand": "left"
      },
      {
        "midi": 59,
        "time": 523.5,
        "duration": 1,
        "velocity": 0.49,
        "hand": "left"
      },
      {
        "midi": 60,
        "time": 524.5,
        "duration": 1,
        "velocity": 0.71,
        "hand": "right"
      },
      {
        "midi": 39,
        "time": 525.5,
        "duration": 0.5,
        "velocity": 0.71,
        "hand": "left"
      },
      {
        "midi": 48,
        "time": 525.5,
        "duration": 0.5,
        "velocity": 0.71,
        "hand": "left"
      },
      {
        "midi": 55,
        "time": 525.5,
        "duration": 0.5,
        "velocity": 0.49,
        "hand": "left"
      },
      {
        "midi": 60,
        "time": 525.5,
        "duration": 0.5,
        "velocity": 0.71,
        "hand": "right"
      },
      {
        "midi": 62,
        "time": 526,
        "duration": 0.5,
        "velocity": 0.71,
        "hand": "right"
      },
      {
        "midi": 65,
        "time": 526.5,
        "duration": 0.5,
        "velocity": 0.71,
        "hand": "right"
      },
      {
        "midi": 63,
        "time": 527,
        "duration": 0.5,
        "velocity": 0.71,
        "hand": "right"
      },
      {
        "midi": 36,
        "time": 527.5,
        "duration": 0.5,
        "velocity": 0.71,
        "hand": "left"
      },
      {
        "midi": 43,
        "time": 527.5,
        "duration": 0.5,
        "velocity": 0.71,
        "hand": "left"
      },
      {
        "midi": 48,
        "time": 527.5,
        "duration": 0.5,
        "velocity": 0.71,
        "hand": "left"
      },
      {
        "midi": 51,
        "time": 527.5,
        "duration": 0.5,
        "velocity": 0.49,
        "hand": "left"
      },
      {
        "midi": 55,
        "time": 527.5,
        "duration": 0.5,
        "velocity": 0.49,
        "hand": "left"
      },
      {
        "midi": 62,
        "time": 527.5,
        "duration": 0.5,
        "velocity": 0.71,
        "hand": "right"
      },
      {
        "midi": 60,
        "time": 528,
        "duration": 0.5,
        "velocity": 0.71,
        "hand": "right"
      },
      {
        "midi": 63,
        "time": 528.5,
        "duration": 3,
        "velocity": 0.71,
        "hand": "right"
      },
      {
        "midi": 43,
        "time": 529.5,
        "duration": 2,
        "velocity": 0.71,
        "hand": "left"
      },
      {
        "midi": 46,
        "time": 529.5,
        "duration": 2,
        "velocity": 0.71,
        "hand": "left"
      },
      {
        "midi": 51,
        "time": 529.5,
        "duration": 2,
        "velocity": 0.54,
        "hand": "left"
      },
      {
        "midi": 58,
        "time": 529.5,
        "duration": 2,
        "velocity": 0.54,
        "hand": "left"
      },
      {
        "midi": 31,
        "time": 531.5,
        "duration": 0.5,
        "velocity": 0.71,
        "hand": "left"
      },
      {
        "midi": 43,
        "time": 531.5,
        "duration": 0.5,
        "velocity": 0.71,
        "hand": "left"
      },
      {
        "midi": 51,
        "time": 531.5,
        "duration": 0.5,
        "velocity": 0.54,
        "hand": "left"
      },
      {
        "midi": 58,
        "time": 531.5,
        "duration": 0.5,
        "velocity": 0.54,
        "hand": "left"
      },
      {
        "midi": 63,
        "time": 531.5,
        "duration": 1,
        "velocity": 0.71,
        "hand": "right"
      },
      {
        "midi": 34,
        "time": 532.5,
        "duration": 0.5,
        "velocity": 0.71,
        "hand": "left"
      },
      {
        "midi": 46,
        "time": 532.5,
        "duration": 0.5,
        "velocity": 0.71,
        "hand": "left"
      },
      {
        "midi": 53,
        "time": 532.5,
        "duration": 0.5,
        "velocity": 0.54,
        "hand": "left"
      },
      {
        "midi": 58,
        "time": 532.5,
        "duration": 0.5,
        "velocity": 0.54,
        "hand": "left"
      },
      {
        "midi": 62,
        "time": 532.5,
        "duration": 1,
        "velocity": 0.71,
        "hand": "right"
      },
      {
        "midi": 36,
        "time": 533.5,
        "duration": 0.5,
        "velocity": 0.71,
        "hand": "left"
      },
      {
        "midi": 48,
        "time": 533.5,
        "duration": 0.5,
        "velocity": 0.71,
        "hand": "left"
      },
      {
        "midi": 51,
        "time": 533.5,
        "duration": 0.5,
        "velocity": 0.54,
        "hand": "left"
      },
      {
        "midi": 55,
        "time": 533.5,
        "duration": 0.5,
        "velocity": 0.54,
        "hand": "left"
      },
      {
        "midi": 60,
        "time": 533.5,
        "duration": 1,
        "velocity": 0.71,
        "hand": "right"
      },
      {
        "midi": 43,
        "time": 534.5,
        "duration": 0.5,
        "velocity": 0.71,
        "hand": "left"
      },
      {
        "midi": 47,
        "time": 534.5,
        "duration": 0.5,
        "velocity": 0.71,
        "hand": "left"
      },
      {
        "midi": 50,
        "time": 534.5,
        "duration": 0.5,
        "velocity": 0.54,
        "hand": "left"
      },
      {
        "midi": 55,
        "time": 534.5,
        "duration": 1,
        "velocity": 0.71,
        "hand": "left"
      },
      {
        "midi": 36,
        "time": 535.5,
        "duration": 0.5,
        "velocity": 0.71,
        "hand": "left"
      },
      {
        "midi": 43,
        "time": 535.5,
        "duration": 0.5,
        "velocity": 0.71,
        "hand": "left"
      },
      {
        "midi": 48,
        "time": 535.5,
        "duration": 0.5,
        "velocity": 0.71,
        "hand": "left"
      },
      {
        "midi": 51,
        "time": 535.5,
        "duration": 0.5,
        "velocity": 0.54,
        "hand": "left"
      },
      {
        "midi": 55,
        "time": 535.5,
        "duration": 0.5,
        "velocity": 0.54,
        "hand": "left"
      },
      {
        "midi": 60,
        "time": 535.5,
        "duration": 0.75,
        "velocity": 0.71,
        "hand": "right"
      },
      {
        "midi": 62,
        "time": 536.25,
        "duration": 0.25,
        "velocity": 0.71,
        "hand": "right"
      },
      {
        "midi": 43,
        "time": 536.5,
        "duration": 3,
        "velocity": 0.71,
        "hand": "left"
      },
      {
        "midi": 47,
        "time": 536.5,
        "duration": 3,
        "velocity": 0.71,
        "hand": "left"
      },
      {
        "midi": 50,
        "time": 536.5,
        "duration": 3,
        "velocity": 0.54,
        "hand": "left"
      },
      {
        "midi": 55,
        "time": 536.5,
        "duration": 3,
        "velocity": 0.71,
        "hand": "left"
      },
      {
        "midi": 60,
        "time": 536.5,
        "duration": 0.25,
        "velocity": 0.71,
        "hand": "right"
      },
      {
        "midi": 43,
        "time": 539.5,
        "duration": 0.5,
        "velocity": 0.71,
        "hand": "left"
      },
      {
        "midi": 46,
        "time": 539.5,
        "duration": 0.5,
        "velocity": 0.71,
        "hand": "left"
      },
      {
        "midi": 51,
        "time": 539.5,
        "duration": 0.5,
        "velocity": 0.49,
        "hand": "left"
      },
      {
        "midi": 58,
        "time": 539.5,
        "duration": 0.5,
        "velocity": 0.49,
        "hand": "left"
      },
      {
        "midi": 63,
        "time": 539.5,
        "duration": 1,
        "velocity": 0.71,
        "hand": "right"
      },
      {
        "midi": 34,
        "time": 540.5,
        "duration": 0.5,
        "velocity": 0.71,
        "hand": "left"
      },
      {
        "midi": 46,
        "time": 540.5,
        "duration": 0.5,
        "velocity": 0.71,
        "hand": "left"
      },
      {
        "midi": 53,
        "time": 540.5,
        "duration": 0.5,
        "velocity": 0.49,
        "hand": "left"
      },
      {
        "midi": 58,
        "time": 540.5,
        "duration": 0.5,
        "velocity": 0.49,
        "hand": "left"
      },
      {
        "midi": 62,
        "time": 540.5,
        "duration": 1,
        "velocity": 0.71,
        "hand": "right"
      },
      {
        "midi": 36,
        "time": 541.5,
        "duration": 0.5,
        "velocity": 0.71,
        "hand": "left"
      },
      {
        "midi": 48,
        "time": 541.5,
        "duration": 0.5,
        "velocity": 0.71,
        "hand": "left"
      },
      {
        "midi": 51,
        "time": 541.5,
        "duration": 0.5,
        "velocity": 0.49,
        "hand": "left"
      },
      {
        "midi": 55,
        "time": 541.5,
        "duration": 0.5,
        "velocity": 0.49,
        "hand": "left"
      },
      {
        "midi": 60,
        "time": 541.5,
        "duration": 1,
        "velocity": 0.71,
        "hand": "right"
      },
      {
        "midi": 43,
        "time": 542.5,
        "duration": 0.5,
        "velocity": 0.71,
        "hand": "left"
      },
      {
        "midi": 47,
        "time": 542.5,
        "duration": 0.5,
        "velocity": 0.71,
        "hand": "left"
      },
      {
        "midi": 50,
        "time": 542.5,
        "duration": 0.5,
        "velocity": 0.49,
        "hand": "left"
      },
      {
        "midi": 55,
        "time": 542.5,
        "duration": 1,
        "velocity": 0.71,
        "hand": "left"
      },
      {
        "midi": 36,
        "time": 543.5,
        "duration": 0.5,
        "velocity": 0.71,
        "hand": "left"
      },
      {
        "midi": 43,
        "time": 543.5,
        "duration": 0.5,
        "velocity": 0.71,
        "hand": "left"
      },
      {
        "midi": 48,
        "time": 543.5,
        "duration": 0.5,
        "velocity": 0.71,
        "hand": "left"
      },
      {
        "midi": 51,
        "time": 543.5,
        "duration": 0.5,
        "velocity": 0.49,
        "hand": "left"
      },
      {
        "midi": 55,
        "time": 543.5,
        "duration": 0.5,
        "velocity": 0.49,
        "hand": "left"
      },
      {
        "midi": 60,
        "time": 543.5,
        "duration": 0.75,
        "velocity": 0.71,
        "hand": "right"
      },
      {
        "midi": 62,
        "time": 544.25,
        "duration": 0.25,
        "velocity": 0.71,
        "hand": "right"
      },
      {
        "midi": 43,
        "time": 544.5,
        "duration": 3,
        "velocity": 0.71,
        "hand": "left"
      },
      {
        "midi": 47,
        "time": 544.5,
        "duration": 3,
        "velocity": 0.71,
        "hand": "left"
      },
      {
        "midi": 50,
        "time": 544.5,
        "duration": 3,
        "velocity": 0.49,
        "hand": "left"
      },
      {
        "midi": 55,
        "time": 544.5,
        "duration": 3,
        "velocity": 0.49,
        "hand": "left"
      },
      {
        "midi": 60,
        "time": 544.5,
        "duration": 0.25,
        "velocity": 0.71,
        "hand": "right"
      },
      {
        "midi": 36,
        "time": 547.5,
        "duration": 1,
        "velocity": 0.71,
        "hand": "left"
      },
      {
        "midi": 43,
        "time": 547.5,
        "duration": 1,
        "velocity": 0.71,
        "hand": "left"
      },
      {
        "midi": 48,
        "time": 547.5,
        "duration": 1,
        "velocity": 0.71,
        "hand": "left"
      },
      {
        "midi": 51,
        "time": 547.5,
        "duration": 1,
        "velocity": 0.49,
        "hand": "left"
      },
      {
        "midi": 55,
        "time": 547.5,
        "duration": 1,
        "velocity": 0.49,
        "hand": "left"
      },
      {
        "midi": 60,
        "time": 547.5,
        "duration": 1,
        "velocity": 0.49,
        "hand": "right"
      },
      {
        "midi": 43,
        "time": 548.5,
        "duration": 3,
        "velocity": 0.71,
        "hand": "left"
      },
      {
        "midi": 47,
        "time": 548.5,
        "duration": 3,
        "velocity": 0.71,
        "hand": "left"
      },
      {
        "midi": 50,
        "time": 548.5,
        "duration": 3,
        "velocity": 0.49,
        "hand": "left"
      },
      {
        "midi": 55,
        "time": 548.5,
        "duration": 3,
        "velocity": 0.49,
        "hand": "left"
      },
      {
        "midi": 36,
        "time": 551.5,
        "duration": 1,
        "velocity": 0.71,
        "hand": "left"
      },
      {
        "midi": 43,
        "time": 551.5,
        "duration": 1,
        "velocity": 0.71,
        "hand": "left"
      },
      {
        "midi": 48,
        "time": 551.5,
        "duration": 1,
        "velocity": 0.71,
        "hand": "left"
      },
      {
        "midi": 51,
        "time": 551.5,
        "duration": 1,
        "velocity": 0.49,
        "hand": "left"
      },
      {
        "midi": 55,
        "time": 551.5,
        "duration": 1,
        "velocity": 0.49,
        "hand": "left"
      },
      {
        "midi": 60,
        "time": 551.5,
        "duration": 1,
        "velocity": 0.49,
        "hand": "right"
      },
      {
        "midi": 43,
        "time": 552.5,
        "duration": 1,
        "velocity": 0.71,
        "hand": "left"
      },
      {
        "midi": 47,
        "time": 552.5,
        "duration": 1,
        "velocity": 0.71,
        "hand": "left"
      },
      {
        "midi": 50,
        "time": 552.5,
        "duration": 1,
        "velocity": 0.49,
        "hand": "left"
      },
      {
        "midi": 55,
        "time": 552.5,
        "duration": 1,
        "velocity": 0.49,
        "hand": "left"
      },
      {
        "midi": 36,
        "time": 553.5,
        "duration": 1,
        "velocity": 0.71,
        "hand": "left"
      },
      {
        "midi": 43,
        "time": 553.5,
        "duration": 1,
        "velocity": 0.71,
        "hand": "left"
      },
      {
        "midi": 48,
        "time": 553.5,
        "duration": 1,
        "velocity": 0.71,
        "hand": "left"
      },
      {
        "midi": 51,
        "time": 553.5,
        "duration": 1,
        "velocity": 0.49,
        "hand": "left"
      },
      {
        "midi": 55,
        "time": 553.5,
        "duration": 1,
        "velocity": 0.49,
        "hand": "left"
      },
      {
        "midi": 60,
        "time": 553.5,
        "duration": 1,
        "velocity": 0.49,
        "hand": "right"
      },
      {
        "midi": 43,
        "time": 554.5,
        "duration": 1,
        "velocity": 0.71,
        "hand": "left"
      },
      {
        "midi": 47,
        "time": 554.5,
        "duration": 1,
        "velocity": 0.71,
        "hand": "left"
      },
      {
        "midi": 50,
        "time": 554.5,
        "duration": 1,
        "velocity": 0.49,
        "hand": "left"
      },
      {
        "midi": 55,
        "time": 554.5,
        "duration": 1,
        "velocity": 0.49,
        "hand": "left"
      },
      {
        "midi": 36,
        "time": 555.5,
        "duration": 1,
        "velocity": 0.71,
        "hand": "left"
      },
      {
        "midi": 43,
        "time": 555.5,
        "duration": 1,
        "velocity": 0.71,
        "hand": "left"
      },
      {
        "midi": 48,
        "time": 555.5,
        "duration": 1,
        "velocity": 0.71,
        "hand": "left"
      },
      {
        "midi": 51,
        "time": 555.5,
        "duration": 1,
        "velocity": 0.49,
        "hand": "left"
      },
      {
        "midi": 55,
        "time": 555.5,
        "duration": 1,
        "velocity": 0.49,
        "hand": "left"
      },
      {
        "midi": 60,
        "time": 555.5,
        "duration": 1,
        "velocity": 0.49,
        "hand": "right"
      },
      {
        "midi": 43,
        "time": 556.5,
        "duration": 4,
        "velocity": 0.71,
        "hand": "left"
      },
      {
        "midi": 47,
        "time": 556.5,
        "duration": 4,
        "velocity": 0.71,
        "hand": "left"
      },
      {
        "midi": 50,
        "time": 556.5,
        "duration": 4,
        "velocity": 0.49,
        "hand": "left"
      },
      {
        "midi": 55,
        "time": 556.5,
        "duration": 4,
        "velocity": 0.49,
        "hand": "left"
      },
      {
        "midi": 36,
        "time": 560.5,
        "duration": 8,
        "velocity": 0.71,
        "hand": "left"
      },
      {
        "midi": 43,
        "time": 560.5,
        "duration": 8,
        "velocity": 0.71,
        "hand": "left"
      },
      {
        "midi": 48,
        "time": 560.5,
        "duration": 8,
        "velocity": 0.71,
        "hand": "left"
      },
      {
        "midi": 51,
        "time": 560.5,
        "duration": 8,
        "velocity": 0.49,
        "hand": "left"
      },
      {
        "midi": 55,
        "time": 560.5,
        "duration": 8,
        "velocity": 0.49,
        "hand": "left"
      },
      {
        "midi": 48,
        "time": 568.5,
        "duration": 0.5,
        "velocity": 0.71,
        "hand": "left"
      },
      {
        "midi": 51,
        "time": 568.5,
        "duration": 0.5,
        "velocity": 0.71,
        "hand": "left"
      },
      {
        "midi": 55,
        "time": 568.5,
        "duration": 0.5,
        "velocity": 0.71,
        "hand": "left"
      },
      {
        "midi": 60,
        "time": 568.5,
        "duration": 0.5,
        "velocity": 0.71,
        "hand": "right"
      },
      {
        "midi": 72,
        "time": 568.5,
        "duration": 0.5,
        "velocity": 0.8,
        "hand": "right"
      },
      {
        "midi": 75,
        "time": 568.5,
        "duration": 0.5,
        "velocity": 0.8,
        "hand": "right"
      },
      {
        "midi": 79,
        "time": 568.5,
        "duration": 0.5,
        "velocity": 0.8,
        "hand": "right"
      },
      {
        "midi": 84,
        "time": 568.5,
        "duration": 0.5,
        "velocity": 0.8,
        "hand": "right"
      },
      {
        "midi": 36,
        "time": 569,
        "duration": 0.5,
        "velocity": 0.71,
        "hand": "left"
      },
      {
        "midi": 48,
        "time": 569,
        "duration": 0.5,
        "velocity": 0.71,
        "hand": "left"
      },
      {
        "midi": 60,
        "time": 569,
        "duration": 0.5,
        "velocity": 0.8,
        "hand": "right"
      },
      {
        "midi": 36,
        "time": 572.5,
        "duration": 0.5,
        "velocity": 0.71,
        "hand": "left"
      },
      {
        "midi": 43,
        "time": 572.5,
        "duration": 0.5,
        "velocity": 0.71,
        "hand": "left"
      },
      {
        "midi": 48,
        "time": 572.5,
        "duration": 0.5,
        "velocity": 0.71,
        "hand": "left"
      },
      {
        "midi": 51,
        "time": 572.5,
        "duration": 0.5,
        "velocity": 0.8,
        "hand": "left"
      },
      {
        "midi": 55,
        "time": 572.5,
        "duration": 0.5,
        "velocity": 0.8,
        "hand": "left"
      },
      {
        "midi": 60,
        "time": 572.5,
        "duration": 0.5,
        "velocity": 0.8,
        "hand": "right"
      }
    ]
  },
  "notes1Hand": [
    {
      "midi": 72,
      "time": 0,
      "duration": 2,
      "velocity": 0.71,
      "hand": "right"
    },
    {
      "midi": 75,
      "time": 2,
      "duration": 1,
      "velocity": 0.71,
      "hand": "right"
    },
    {
      "midi": 72,
      "time": 3,
      "duration": 1,
      "velocity": 0.71,
      "hand": "right"
    },
    {
      "midi": 77,
      "time": 4,
      "duration": 4,
      "velocity": 0.71,
      "hand": "right"
    },
    {
      "midi": 62,
      "time": 5.5,
      "duration": 0.5,
      "velocity": 0.82,
      "hand": "right"
    },
    {
      "midi": 60,
      "time": 6,
      "duration": 1,
      "velocity": 0.86,
      "hand": "right"
    },
    {
      "midi": 62,
      "time": 7,
      "duration": 1,
      "velocity": 0.93,
      "hand": "right"
    },
    {
      "midi": 79,
      "time": 8,
      "duration": 1.5,
      "velocity": 0.71,
      "hand": "right"
    },
    {
      "midi": 77,
      "time": 9.5,
      "duration": 0.5,
      "velocity": 0.71,
      "hand": "right"
    },
    {
      "midi": 72,
      "time": 10,
      "duration": 1,
      "velocity": 0.71,
      "hand": "right"
    },
    {
      "midi": 72,
      "time": 11,
      "duration": 1,
      "velocity": 0.71,
      "hand": "right"
    },
    {
      "midi": 70,
      "time": 12,
      "duration": 1,
      "velocity": 0.71,
      "hand": "right"
    },
    {
      "midi": 67,
      "time": 13,
      "duration": 3,
      "velocity": 0.71,
      "hand": "right"
    },
    {
      "midi": 72,
      "time": 16,
      "duration": 1,
      "velocity": 0.71,
      "hand": "right"
    },
    {
      "midi": 72,
      "time": 17,
      "duration": 1,
      "velocity": 0.71,
      "hand": "right"
    },
    {
      "midi": 75,
      "time": 18,
      "duration": 1.5,
      "velocity": 0.71,
      "hand": "right"
    },
    {
      "midi": 74,
      "time": 19.5,
      "duration": 0.5,
      "velocity": 0.71,
      "hand": "right"
    },
    {
      "midi": 70,
      "time": 20,
      "duration": 4,
      "velocity": 0.71,
      "hand": "right"
    },
    {
      "midi": 67,
      "time": 24,
      "duration": 2,
      "velocity": 0.71,
      "hand": "right"
    },
    {
      "midi": 72,
      "time": 24.5,
      "duration": 0.5,
      "velocity": 0.71,
      "hand": "right"
    },
    {
      "midi": 71,
      "time": 25,
      "duration": 0.5,
      "velocity": 0.71,
      "hand": "right"
    },
    {
      "midi": 72,
      "time": 25.5,
      "duration": 0.5,
      "velocity": 0.71,
      "hand": "right"
    },
    {
      "midi": 67,
      "time": 26,
      "duration": 1,
      "velocity": 0.71,
      "hand": "right"
    },
    {
      "midi": 65,
      "time": 27,
      "duration": 0.75,
      "velocity": 0.71,
      "hand": "right"
    },
    {
      "midi": 63,
      "time": 27.75,
      "duration": 0.5,
      "velocity": 0.71,
      "hand": "right"
    },
    {
      "midi": 63,
      "time": 30,
      "duration": 1,
      "velocity": 0.86,
      "hand": "right"
    },
    {
      "midi": 65,
      "time": 31,
      "duration": 1,
      "velocity": 0.93,
      "hand": "right"
    },
    {
      "midi": 79,
      "time": 32,
      "duration": 1,
      "velocity": 0.71,
      "hand": "right"
    },
    {
      "midi": 79,
      "time": 33,
      "duration": 1,
      "velocity": 0.71,
      "hand": "right"
    },
    {
      "midi": 79,
      "time": 34,
      "duration": 1.5,
      "velocity": 0.71,
      "hand": "right"
    },
    {
      "midi": 77,
      "time": 35.5,
      "duration": 0.5,
      "velocity": 0.71,
      "hand": "right"
    },
    {
      "midi": 74,
      "time": 36,
      "duration": 4,
      "velocity": 0.71,
      "hand": "right"
    },
    {
      "midi": 72,
      "time": 37,
      "duration": 2,
      "velocity": 0.93,
      "hand": "right"
    },
    {
      "midi": 71,
      "time": 39,
      "duration": 1,
      "velocity": 0.93,
      "hand": "right"
    },
    {
      "midi": 79,
      "time": 40,
      "duration": 1,
      "velocity": 0.71,
      "hand": "right"
    },
    {
      "midi": 79,
      "time": 41,
      "duration": 1,
      "velocity": 0.71,
      "hand": "right"
    },
    {
      "midi": 79,
      "time": 42,
      "duration": 1.5,
      "velocity": 0.71,
      "hand": "right"
    },
    {
      "midi": 77,
      "time": 43.5,
      "duration": 0.5,
      "velocity": 0.71,
      "hand": "right"
    },
    {
      "midi": 74,
      "time": 44,
      "duration": 4,
      "velocity": 0.71,
      "hand": "right"
    },
    {
      "midi": 72,
      "time": 45,
      "duration": 2,
      "velocity": 0.93,
      "hand": "right"
    },
    {
      "midi": 71,
      "time": 47,
      "duration": 1,
      "velocity": 0.93,
      "hand": "right"
    },
    {
      "midi": 72,
      "time": 48,
      "duration": 1,
      "velocity": 0.71,
      "hand": "right"
    },
    {
      "midi": 72,
      "time": 49,
      "duration": 0.5,
      "velocity": 0.71,
      "hand": "right"
    },
    {
      "midi": 74,
      "time": 49.5,
      "duration": 0.5,
      "velocity": 0.71,
      "hand": "right"
    },
    {
      "midi": 77,
      "time": 50,
      "duration": 0.5,
      "velocity": 0.71,
      "hand": "right"
    },
    {
      "midi": 75,
      "time": 50.5,
      "duration": 0.5,
      "velocity": 0.71,
      "hand": "right"
    },
    {
      "midi": 74,
      "time": 51,
      "duration": 0.5,
      "velocity": 0.71,
      "hand": "right"
    },
    {
      "midi": 72,
      "time": 51.5,
      "duration": 0.5,
      "velocity": 0.71,
      "hand": "right"
    },
    {
      "midi": 75,
      "time": 52,
      "duration": 3,
      "velocity": 0.71,
      "hand": "right"
    },
    {
      "midi": 70,
      "time": 54,
      "duration": 1,
      "velocity": 0.93,
      "hand": "right"
    },
    {
      "midi": 75,
      "time": 55,
      "duration": 1,
      "velocity": 0.71,
      "hand": "right"
    },
    {
      "midi": 74,
      "time": 56,
      "duration": 1,
      "velocity": 0.71,
      "hand": "right"
    },
    {
      "midi": 72,
      "time": 57,
      "duration": 1,
      "velocity": 0.71,
      "hand": "right"
    },
    {
      "midi": 67,
      "time": 58,
      "duration": 1,
      "velocity": 0.71,
      "hand": "right"
    },
    {
      "midi": 72,
      "time": 59,
      "duration": 0.75,
      "velocity": 0.71,
      "hand": "right"
    },
    {
      "midi": 74,
      "time": 59.75,
      "duration": 0.5,
      "velocity": 0.71,
      "hand": "right"
    },
    {
      "midi": 68,
      "time": 63,
      "duration": 2.5,
      "velocity": 0.71,
      "hand": "right"
    },
    {
      "midi": 71,
      "time": 65.5,
      "duration": 0.5,
      "velocity": 0.71,
      "hand": "right"
    },
    {
      "midi": 72,
      "time": 66,
      "duration": 0.5,
      "velocity": 0.71,
      "hand": "right"
    },
    {
      "midi": 74,
      "time": 66.5,
      "duration": 0.5,
      "velocity": 0.71,
      "hand": "right"
    },
    {
      "midi": 75,
      "time": 67,
      "duration": 0.5,
      "velocity": 0.71,
      "hand": "right"
    },
    {
      "midi": 76,
      "time": 67.5,
      "duration": 0.5,
      "velocity": 0.71,
      "hand": "right"
    },
    {
      "midi": 77,
      "time": 68,
      "duration": 0.5,
      "velocity": 0.71,
      "hand": "right"
    },
    {
      "midi": 79,
      "time": 68.5,
      "duration": 0.5,
      "velocity": 0.71,
      "hand": "right"
    },
    {
      "midi": 82,
      "time": 69,
      "duration": 1.5,
      "velocity": 0.71,
      "hand": "right"
    },
    {
      "midi": 74,
      "time": 70,
      "duration": 12.5,
      "velocity": 0.93,
      "hand": "right"
    },
    {
      "midi": 80,
      "time": 70.5,
      "duration": 0.5,
      "velocity": 0.61,
      "hand": "right"
    },
    {
      "midi": 79,
      "time": 71,
      "duration": 0.5,
      "velocity": 0.61,
      "hand": "right"
    },
    {
      "midi": 77,
      "time": 71.5,
      "duration": 0.5,
      "velocity": 0.61,
      "hand": "right"
    },
    {
      "midi": 82,
      "time": 72,
      "duration": 0.5,
      "velocity": 0.61,
      "hand": "right"
    },
    {
      "midi": 80,
      "time": 72.5,
      "duration": 0.5,
      "velocity": 0.57,
      "hand": "right"
    },
    {
      "midi": 79,
      "time": 73,
      "duration": 0.5,
      "velocity": 0.54,
      "hand": "right"
    },
    {
      "midi": 77,
      "time": 73.5,
      "duration": 0.5,
      "velocity": 0.51,
      "hand": "right"
    },
    {
      "midi": 82,
      "time": 74,
      "duration": 0.5,
      "velocity": 0.48,
      "hand": "right"
    },
    {
      "midi": 80,
      "time": 74.5,
      "duration": 0.5,
      "velocity": 0.45,
      "hand": "right"
    },
    {
      "midi": 79,
      "time": 75,
      "duration": 0.5,
      "velocity": 0.41,
      "hand": "right"
    },
    {
      "midi": 77,
      "time": 75.5,
      "duration": 1,
      "velocity": 0.38,
      "hand": "right"
    },
    {
      "midi": 84,
      "time": 76.5,
      "duration": 0.5,
      "velocity": 0.54,
      "hand": "right"
    },
    {
      "midi": 83,
      "time": 77,
      "duration": 0.5,
      "velocity": 0.54,
      "hand": "right"
    },
    {
      "midi": 84,
      "time": 77.5,
      "duration": 0.5,
      "velocity": 0.54,
      "hand": "right"
    },
    {
      "midi": 82,
      "time": 78,
      "duration": 0.5,
      "velocity": 0.54,
      "hand": "right"
    },
    {
      "midi": 80,
      "time": 78.5,
      "duration": 0.5,
      "velocity": 0.54,
      "hand": "right"
    },
    {
      "midi": 79,
      "time": 79,
      "duration": 0.5,
      "velocity": 0.54,
      "hand": "right"
    },
    {
      "midi": 77,
      "time": 79.5,
      "duration": 1,
      "velocity": 0.54,
      "hand": "right"
    },
    {
      "midi": 84,
      "time": 80.5,
      "duration": 0.5,
      "velocity": 0.54,
      "hand": "right"
    },
    {
      "midi": 83,
      "time": 81,
      "duration": 0.5,
      "velocity": 0.54,
      "hand": "right"
    },
    {
      "midi": 84,
      "time": 81.5,
      "duration": 0.5,
      "velocity": 0.54,
      "hand": "right"
    },
    {
      "midi": 82,
      "time": 82,
      "duration": 0.5,
      "velocity": 0.54,
      "hand": "right"
    },
    {
      "midi": 80,
      "time": 82.5,
      "duration": 0.5,
      "velocity": 0.54,
      "hand": "right"
    },
    {
      "midi": 79,
      "time": 83,
      "duration": 0.5,
      "velocity": 0.54,
      "hand": "right"
    },
    {
      "midi": 77,
      "time": 83.5,
      "duration": 0.75,
      "velocity": 0.54,
      "hand": "right"
    },
    {
      "midi": 84,
      "time": 84.25,
      "duration": 0.5,
      "velocity": 0.53,
      "hand": "right"
    },
    {
      "midi": 80,
      "time": 85.25,
      "duration": 0.5,
      "velocity": 0.47,
      "hand": "right"
    },
    {
      "midi": 77,
      "time": 85.75,
      "duration": 0.5,
      "velocity": 0.44,
      "hand": "right"
    },
    {
      "midi": 84,
      "time": 86.25,
      "duration": 0.5,
      "velocity": 0.41,
      "hand": "right"
    },
    {
      "midi": 80,
      "time": 87.25,
      "duration": 0.5,
      "velocity": 0.35,
      "hand": "right"
    },
    {
      "midi": 77,
      "time": 87.75,
      "duration": 0.5,
      "velocity": 0.32,
      "hand": "right"
    },
    {
      "midi": 84,
      "time": 88.25,
      "duration": 0.5,
      "velocity": 0.49,
      "hand": "right"
    },
    {
      "midi": 80,
      "time": 89.25,
      "duration": 0.5,
      "velocity": 0.49,
      "hand": "right"
    },
    {
      "midi": 77,
      "time": 89.75,
      "duration": 0.5,
      "velocity": 0.49,
      "hand": "right"
    },
    {
      "midi": 84,
      "time": 90.25,
      "duration": 0.5,
      "velocity": 0.49,
      "hand": "right"
    },
    {
      "midi": 79,
      "time": 91.25,
      "duration": 0.5,
      "velocity": 0.49,
      "hand": "right"
    },
    {
      "midi": 75,
      "time": 91.75,
      "duration": 0.5,
      "velocity": 0.49,
      "hand": "right"
    },
    {
      "midi": 84,
      "time": 92.25,
      "duration": 0.5,
      "velocity": 0.49,
      "hand": "right"
    },
    {
      "midi": 77,
      "time": 93.25,
      "duration": 0.5,
      "velocity": 0.49,
      "hand": "right"
    },
    {
      "midi": 74,
      "time": 93.75,
      "duration": 0.5,
      "velocity": 0.49,
      "hand": "right"
    },
    {
      "midi": 84,
      "time": 94.25,
      "duration": 0.5,
      "velocity": 0.49,
      "hand": "right"
    },
    {
      "midi": 77,
      "time": 95.25,
      "duration": 0.5,
      "velocity": 0.49,
      "hand": "right"
    },
    {
      "midi": 74,
      "time": 95.75,
      "duration": 0.5,
      "velocity": 0.49,
      "hand": "right"
    },
    {
      "midi": 84,
      "time": 96.25,
      "duration": 0.5,
      "velocity": 0.49,
      "hand": "right"
    },
    {
      "midi": 77,
      "time": 97.25,
      "duration": 0.5,
      "velocity": 0.49,
      "hand": "right"
    },
    {
      "midi": 74,
      "time": 97.75,
      "duration": 0.5,
      "velocity": 0.49,
      "hand": "right"
    },
    {
      "midi": 84,
      "time": 98.25,
      "duration": 0.5,
      "velocity": 0.5,
      "hand": "right"
    },
    {
      "midi": 75,
      "time": 99.25,
      "duration": 0.5,
      "velocity": 0.56,
      "hand": "right"
    },
    {
      "midi": 84,
      "time": 100.25,
      "duration": 0.5,
      "velocity": 0.62,
      "hand": "right"
    },
    {
      "midi": 75,
      "time": 101.25,
      "duration": 0.5,
      "velocity": 0.68,
      "hand": "right"
    },
    {
      "midi": 84,
      "time": 102.25,
      "duration": 0.5,
      "velocity": 0.71,
      "hand": "right"
    },
    {
      "midi": 77,
      "time": 103.25,
      "duration": 0.5,
      "velocity": 0.71,
      "hand": "right"
    },
    {
      "midi": 74,
      "time": 103.75,
      "duration": 0.5,
      "velocity": 0.71,
      "hand": "right"
    },
    {
      "midi": 87,
      "time": 104.25,
      "duration": 0.5,
      "velocity": 0.71,
      "hand": "right"
    },
    {
      "midi": 84,
      "time": 105.25,
      "duration": 0.5,
      "velocity": 0.71,
      "hand": "right"
    },
    {
      "midi": 81,
      "time": 105.75,
      "duration": 0.5,
      "velocity": 0.71,
      "hand": "right"
    },
    {
      "midi": 91,
      "time": 106.25,
      "duration": 0.5,
      "velocity": 0.71,
      "hand": "right"
    },
    {
      "midi": 84,
      "time": 107.25,
      "duration": 0.5,
      "velocity": 0.71,
      "hand": "right"
    },
    {
      "midi": 81,
      "time": 107.75,
      "duration": 0.5,
      "velocity": 0.71,
      "hand": "right"
    },
    {
      "midi": 91,
      "time": 108.25,
      "duration": 0.5,
      "velocity": 0.71,
      "hand": "right"
    },
    {
      "midi": 84,
      "time": 109.25,
      "duration": 0.5,
      "velocity": 0.71,
      "hand": "right"
    },
    {
      "midi": 81,
      "time": 109.75,
      "duration": 0.5,
      "velocity": 0.71,
      "hand": "right"
    },
    {
      "midi": 91,
      "time": 110.25,
      "duration": 0.5,
      "velocity": 0.71,
      "hand": "right"
    },
    {
      "midi": 86,
      "time": 111.25,
      "duration": 0.5,
      "velocity": 0.71,
      "hand": "right"
    },
    {
      "midi": 82,
      "time": 111.75,
      "duration": 0.5,
      "velocity": 0.71,
      "hand": "right"
    },
    {
      "midi": 91,
      "time": 112.25,
      "duration": 0.5,
      "velocity": 0.71,
      "hand": "right"
    },
    {
      "midi": 84,
      "time": 113.25,
      "duration": 0.5,
      "velocity": 0.71,
      "hand": "right"
    },
    {
      "midi": 81,
      "time": 113.75,
      "duration": 0.5,
      "velocity": 0.71,
      "hand": "right"
    },
    {
      "midi": 86,
      "time": 114.25,
      "duration": 0.5,
      "velocity": 0.71,
      "hand": "right"
    },
    {
      "midi": 79,
      "time": 115.25,
      "duration": 0.5,
      "velocity": 0.71,
      "hand": "right"
    },
    {
      "midi": 75,
      "time": 115.75,
      "duration": 0.5,
      "velocity": 0.71,
      "hand": "right"
    },
    {
      "midi": 82,
      "time": 116.25,
      "duration": 0.5,
      "velocity": 0.71,
      "hand": "right"
    },
    {
      "midi": 77,
      "time": 117.25,
      "duration": 0.5,
      "velocity": 0.71,
      "hand": "right"
    },
    {
      "midi": 74,
      "time": 117.75,
      "duration": 0.5,
      "velocity": 0.71,
      "hand": "right"
    },
    {
      "midi": 79,
      "time": 118.25,
      "duration": 0.5,
      "velocity": 0.71,
      "hand": "right"
    },
    {
      "midi": 74,
      "time": 119.25,
      "duration": 0.5,
      "velocity": 0.71,
      "hand": "right"
    },
    {
      "midi": 70,
      "time": 119.75,
      "duration": 0.5,
      "velocity": 0.71,
      "hand": "right"
    },
    {
      "midi": 75,
      "time": 120.25,
      "duration": 0.5,
      "velocity": 0.71,
      "hand": "right"
    },
    {
      "midi": 72,
      "time": 121.25,
      "duration": 0.5,
      "velocity": 0.71,
      "hand": "right"
    },
    {
      "midi": 69,
      "time": 121.75,
      "duration": 0.5,
      "velocity": 0.71,
      "hand": "right"
    },
    {
      "midi": 74,
      "time": 122.25,
      "duration": 0.5,
      "velocity": 0.71,
      "hand": "right"
    },
    {
      "midi": 67,
      "time": 123.25,
      "duration": 0.5,
      "velocity": 0.71,
      "hand": "right"
    },
    {
      "midi": 63,
      "time": 123.75,
      "duration": 0.5,
      "velocity": 0.71,
      "hand": "right"
    },
    {
      "midi": 67,
      "time": 124.25,
      "duration": 0.5,
      "velocity": 0.71,
      "hand": "right"
    },
    {
      "midi": 60,
      "time": 125.25,
      "duration": 0.5,
      "velocity": 0.71,
      "hand": "right"
    },
    {
      "midi": 62,
      "time": 126.25,
      "duration": 0.5,
      "velocity": 0.71,
      "hand": "right"
    },
    {
      "midi": 67,
      "time": 130,
      "duration": 0.75,
      "velocity": 0.71,
      "hand": "right"
    },
    {
      "midi": 60,
      "time": 130.5,
      "duration": 0.5,
      "velocity": 0.93,
      "hand": "right"
    },
    {
      "midi": 67,
      "time": 131,
      "duration": 1,
      "velocity": 0.93,
      "hand": "right"
    },
    {
      "midi": 72,
      "time": 131.5,
      "duration": 0.5,
      "velocity": 0.93,
      "hand": "right"
    },
    {
      "midi": 67,
      "time": 132,
      "duration": 1,
      "velocity": 0.71,
      "hand": "right"
    },
    {
      "midi": 60,
      "time": 132.5,
      "duration": 0.5,
      "velocity": 0.93,
      "hand": "right"
    },
    {
      "midi": 67,
      "time": 133,
      "duration": 0.5,
      "velocity": 0.93,
      "hand": "right"
    },
    {
      "midi": 65,
      "time": 133.5,
      "duration": 0.5,
      "velocity": 0.71,
      "hand": "right"
    },
    {
      "midi": 62,
      "time": 134,
      "duration": 2,
      "velocity": 0.93,
      "hand": "right"
    },
    {
      "midi": 60,
      "time": 134.5,
      "duration": 0.5,
      "velocity": 0.71,
      "hand": "right"
    },
    {
      "midi": 68,
      "time": 135,
      "duration": 0.5,
      "velocity": 0.71,
      "hand": "right"
    },
    {
      "midi": 60,
      "time": 135.75,
      "duration": 0.5,
      "velocity": 0.71,
      "hand": "right"
    },
    {
      "midi": 62,
      "time": 136.75,
      "duration": 0.5,
      "velocity": 0.71,
      "hand": "right"
    },
    {
      "midi": 62,
      "time": 137.75,
      "duration": 0.5,
      "velocity": 0.71,
      "hand": "right"
    },
    {
      "midi": 60,
      "time": 138.5,
      "duration": 0.5,
      "velocity": 0.93,
      "hand": "right"
    },
    {
      "midi": 67,
      "time": 139,
      "duration": 1,
      "velocity": 0.93,
      "hand": "right"
    },
    {
      "midi": 72,
      "time": 139.5,
      "duration": 0.5,
      "velocity": 0.93,
      "hand": "right"
    },
    {
      "midi": 67,
      "time": 140,
      "duration": 1,
      "velocity": 0.71,
      "hand": "right"
    },
    {
      "midi": 60,
      "time": 140.5,
      "duration": 0.5,
      "velocity": 0.93,
      "hand": "right"
    },
    {
      "midi": 67,
      "time": 141,
      "duration": 0.5,
      "velocity": 0.93,
      "hand": "right"
    },
    {
      "midi": 65,
      "time": 141.5,
      "duration": 0.5,
      "velocity": 0.71,
      "hand": "right"
    },
    {
      "midi": 62,
      "time": 142,
      "duration": 2,
      "velocity": 0.93,
      "hand": "right"
    },
    {
      "midi": 60,
      "time": 142.5,
      "duration": 0.5,
      "velocity": 0.71,
      "hand": "right"
    },
    {
      "midi": 68,
      "time": 143,
      "duration": 0.5,
      "velocity": 0.71,
      "hand": "right"
    },
    {
      "midi": 60,
      "time": 143.75,
      "duration": 0.5,
      "velocity": 0.71,
      "hand": "right"
    },
    {
      "midi": 62,
      "time": 144.75,
      "duration": 0.5,
      "velocity": 0.71,
      "hand": "right"
    },
    {
      "midi": 62,
      "time": 145.75,
      "duration": 0.5,
      "velocity": 0.71,
      "hand": "right"
    },
    {
      "midi": 60,
      "time": 147,
      "duration": 0.5,
      "velocity": 0.93,
      "hand": "right"
    },
    {
      "midi": 72,
      "time": 147.5,
      "duration": 0.5,
      "velocity": 0.71,
      "hand": "right"
    },
    {
      "midi": 65,
      "time": 148,
      "duration": 0.5,
      "velocity": 0.93,
      "hand": "right"
    },
    {
      "midi": 75,
      "time": 148.5,
      "duration": 0.5,
      "velocity": 0.71,
      "hand": "right"
    },
    {
      "midi": 62,
      "time": 149,
      "duration": 0.5,
      "velocity": 0.93,
      "hand": "right"
    },
    {
      "midi": 79,
      "time": 149.5,
      "duration": 0.5,
      "velocity": 0.71,
      "hand": "right"
    },
    {
      "midi": 63,
      "time": 150,
      "duration": 3,
      "velocity": 0.75,
      "hand": "right"
    },
    {
      "midi": 82,
      "time": 150.5,
      "duration": 0.5,
      "velocity": 0.71,
      "hand": "right"
    },
    {
      "midi": 87,
      "time": 151,
      "duration": 0.5,
      "velocity": 0.71,
      "hand": "right"
    },
    {
      "midi": 82,
      "time": 151.5,
      "duration": 0.5,
      "velocity": 0.71,
      "hand": "right"
    },
    {
      "midi": 79,
      "time": 152,
      "duration": 0.5,
      "velocity": 0.71,
      "hand": "right"
    },
    {
      "midi": 75,
      "time": 152.5,
      "duration": 0.5,
      "velocity": 0.71,
      "hand": "right"
    },
    {
      "midi": 63,
      "time": 153,
      "duration": 1,
      "velocity": 0.75,
      "hand": "right"
    },
    {
      "midi": 70,
      "time": 153.5,
      "duration": 0.5,
      "velocity": 0.71,
      "hand": "right"
    },
    {
      "midi": 62,
      "time": 154,
      "duration": 1,
      "velocity": 0.75,
      "hand": "right"
    },
    {
      "midi": 70,
      "time": 154.5,
      "duration": 0.5,
      "velocity": 0.71,
      "hand": "right"
    },
    {
      "midi": 60,
      "time": 155,
      "duration": 1,
      "velocity": 0.7,
      "hand": "right"
    },
    {
      "midi": 75,
      "time": 155.5,
      "duration": 0.5,
      "velocity": 0.71,
      "hand": "right"
    },
    {
      "midi": 67,
      "time": 156.25,
      "duration": 0.5,
      "velocity": 0.71,
      "hand": "right"
    },
    {
      "midi": 62,
      "time": 157.75,
      "duration": 0.5,
      "velocity": 0.71,
      "hand": "right"
    },
    {
      "midi": 62,
      "time": 159.75,
      "duration": 0.5,
      "velocity": 0.71,
      "hand": "right"
    },
    {
      "midi": 67,
      "time": 160.25,
      "duration": 0.5,
      "velocity": 0.71,
      "hand": "right"
    },
    {
      "midi": 70,
      "time": 160.75,
      "duration": 0.5,
      "velocity": 0.71,
      "hand": "right"
    },
    {
      "midi": 60,
      "time": 161.25,
      "duration": 0.5,
      "velocity": 0.54,
      "hand": "right"
    },
    {
      "midi": 74,
      "time": 161.75,
      "duration": 0.5,
      "velocity": 0.71,
      "hand": "right"
    },
    {
      "midi": 62,
      "time": 162.25,
      "duration": 0.5,
      "velocity": 0.54,
      "hand": "right"
    },
    {
      "midi": 67,
      "time": 162.75,
      "duration": 0.5,
      "velocity": 0.71,
      "hand": "right"
    },
    {
      "midi": 70,
      "time": 163.25,
      "duration": 0.5,
      "velocity": 0.71,
      "hand": "right"
    },
    {
      "midi": 74,
      "time": 163.75,
      "duration": 0.5,
      "velocity": 0.71,
      "hand": "right"
    },
    {
      "midi": 79,
      "time": 164.25,
      "duration": 0.5,
      "velocity": 0.71,
      "hand": "right"
    },
    {
      "midi": 82,
      "time": 164.75,
      "duration": 0.5,
      "velocity": 0.71,
      "hand": "right"
    },
    {
      "midi": 72,
      "time": 165.25,
      "duration": 0.5,
      "velocity": 0.49,
      "hand": "right"
    },
    {
      "midi": 86,
      "time": 165.75,
      "duration": 0.5,
      "velocity": 0.71,
      "hand": "right"
    },
    {
      "midi": 74,
      "time": 166.25,
      "duration": 0.5,
      "velocity": 0.49,
      "hand": "right"
    },
    {
      "midi": 79,
      "time": 166.75,
      "duration": 0.5,
      "velocity": 0.71,
      "hand": "right"
    },
    {
      "midi": 82,
      "time": 167.25,
      "duration": 0.5,
      "velocity": 0.71,
      "hand": "right"
    },
    {
      "midi": 86,
      "time": 167.75,
      "duration": 0.5,
      "velocity": 0.71,
      "hand": "right"
    },
    {
      "midi": 91,
      "time": 168.25,
      "duration": 0.5,
      "velocity": 0.71,
      "hand": "right"
    },
    {
      "midi": 94,
      "time": 168.75,
      "duration": 0.5,
      "velocity": 0.71,
      "hand": "right"
    },
    {
      "midi": 98,
      "time": 169.25,
      "duration": 0.5,
      "velocity": 0.71,
      "hand": "right"
    },
    {
      "midi": 103,
      "time": 169.75,
      "duration": 0.5,
      "velocity": 0.71,
      "hand": "right"
    },
    {
      "midi": 98,
      "time": 170.25,
      "duration": 0.5,
      "velocity": 0.71,
      "hand": "right"
    },
    {
      "midi": 103,
      "time": 170.75,
      "duration": 0.5,
      "velocity": 0.71,
      "hand": "right"
    },
    {
      "midi": 98,
      "time": 171.25,
      "duration": 0.5,
      "velocity": 0.71,
      "hand": "right"
    },
    {
      "midi": 103,
      "time": 171.75,
      "duration": 0.5,
      "velocity": 0.71,
      "hand": "right"
    },
    {
      "midi": 98,
      "time": 172.25,
      "duration": 0.5,
      "velocity": 0.71,
      "hand": "right"
    },
    {
      "midi": 103,
      "time": 172.75,
      "duration": 0.5,
      "velocity": 0.71,
      "hand": "right"
    },
    {
      "midi": 98,
      "time": 173.25,
      "duration": 0.5,
      "velocity": 0.71,
      "hand": "right"
    },
    {
      "midi": 103,
      "time": 173.75,
      "duration": 0.5,
      "velocity": 0.71,
      "hand": "right"
    },
    {
      "midi": 98,
      "time": 174.25,
      "duration": 0.5,
      "velocity": 0.61,
      "hand": "right"
    },
    {
      "midi": 98,
      "time": 175.25,
      "duration": 0.5,
      "velocity": 0.61,
      "hand": "right"
    },
    {
      "midi": 98,
      "time": 176.25,
      "duration": 0.5,
      "velocity": 0.61,
      "hand": "right"
    },
    {
      "midi": 98,
      "time": 177.25,
      "duration": 0.5,
      "velocity": 0.61,
      "hand": "right"
    },
    {
      "midi": 103,
      "time": 178.25,
      "duration": 0.5,
      "velocity": 0.61,
      "hand": "right"
    },
    {
      "midi": 103,
      "time": 179.25,
      "duration": 0.5,
      "velocity": 0.61,
      "hand": "right"
    },
    {
      "midi": 98,
      "time": 180.25,
      "duration": 0.5,
      "velocity": 0.61,
      "hand": "right"
    },
    {
      "midi": 79,
      "time": 182,
      "duration": 1.5,
      "velocity": 0.71,
      "hand": "right"
    },
    {
      "midi": 77,
      "time": 183.5,
      "duration": 0.5,
      "velocity": 0.71,
      "hand": "right"
    },
    {
      "midi": 74,
      "time": 184,
      "duration": 0.5,
      "velocity": 0.71,
      "hand": "right"
    },
    {
      "midi": 72,
      "time": 184.5,
      "duration": 0.5,
      "velocity": 0.71,
      "hand": "right"
    },
    {
      "midi": 70,
      "time": 185,
      "duration": 0.5,
      "velocity": 0.71,
      "hand": "right"
    },
    {
      "midi": 72,
      "time": 185.5,
      "duration": 0.5,
      "velocity": 0.71,
      "hand": "right"
    },
    {
      "midi": 79,
      "time": 186,
      "duration": 1.5,
      "velocity": 0.71,
      "hand": "right"
    },
    {
      "midi": 77,
      "time": 187.5,
      "duration": 0.5,
      "velocity": 0.71,
      "hand": "right"
    },
    {
      "midi": 74,
      "time": 188,
      "duration": 0.5,
      "velocity": 0.71,
      "hand": "right"
    },
    {
      "midi": 72,
      "time": 188.5,
      "duration": 0.5,
      "velocity": 0.71,
      "hand": "right"
    },
    {
      "midi": 70,
      "time": 189,
      "duration": 0.5,
      "velocity": 0.71,
      "hand": "right"
    },
    {
      "midi": 72,
      "time": 189.5,
      "duration": 0.5,
      "velocity": 0.71,
      "hand": "right"
    },
    {
      "midi": 79,
      "time": 190,
      "duration": 0.5,
      "velocity": 0.68,
      "hand": "right"
    },
    {
      "midi": 80,
      "time": 191,
      "duration": 0.5,
      "velocity": 0.68,
      "hand": "right"
    },
    {
      "midi": 79,
      "time": 191.5,
      "duration": 0.5,
      "velocity": 0.68,
      "hand": "right"
    },
    {
      "midi": 77,
      "time": 192,
      "duration": 0.5,
      "velocity": 0.68,
      "hand": "right"
    },
    {
      "midi": 79,
      "time": 192.5,
      "duration": 0.5,
      "velocity": 0.68,
      "hand": "right"
    },
    {
      "midi": 75,
      "time": 193,
      "duration": 0.5,
      "velocity": 0.68,
      "hand": "right"
    },
    {
      "midi": 77,
      "time": 193.5,
      "duration": 0.5,
      "velocity": 0.68,
      "hand": "right"
    },
    {
      "midi": 79,
      "time": 194,
      "duration": 0.5,
      "velocity": 0.75,
      "hand": "right"
    },
    {
      "midi": 82,
      "time": 194.5,
      "duration": 1,
      "velocity": 0.75,
      "hand": "right"
    },
    {
      "midi": 84,
      "time": 195.5,
      "duration": 1,
      "velocity": 0.75,
      "hand": "right"
    },
    {
      "midi": 82,
      "time": 196.5,
      "duration": 0.5,
      "velocity": 0.75,
      "hand": "right"
    },
    {
      "midi": 77,
      "time": 197,
      "duration": 0.5,
      "velocity": 0.75,
      "hand": "right"
    },
    {
      "midi": 69,
      "time": 197.5,
      "duration": 0.5,
      "velocity": 0.75,
      "hand": "right"
    },
    {
      "midi": 79,
      "time": 198,
      "duration": 1.5,
      "velocity": 0.75,
      "hand": "right"
    },
    {
      "midi": 77,
      "time": 199.5,
      "duration": 0.5,
      "velocity": 0.61,
      "hand": "right"
    },
    {
      "midi": 74,
      "time": 200,
      "duration": 0.5,
      "velocity": 0.61,
      "hand": "right"
    },
    {
      "midi": 72,
      "time": 200.5,
      "duration": 0.5,
      "velocity": 0.61,
      "hand": "right"
    },
    {
      "midi": 70,
      "time": 201,
      "duration": 0.5,
      "velocity": 0.61,
      "hand": "right"
    },
    {
      "midi": 72,
      "time": 201.5,
      "duration": 0.5,
      "velocity": 0.61,
      "hand": "right"
    },
    {
      "midi": 79,
      "time": 202,
      "duration": 1.5,
      "velocity": 0.75,
      "hand": "right"
    },
    {
      "midi": 77,
      "time": 203.5,
      "duration": 0.5,
      "velocity": 0.61,
      "hand": "right"
    },
    {
      "midi": 74,
      "time": 204,
      "duration": 0.5,
      "velocity": 0.61,
      "hand": "right"
    },
    {
      "midi": 72,
      "time": 204.5,
      "duration": 0.5,
      "velocity": 0.61,
      "hand": "right"
    },
    {
      "midi": 70,
      "time": 205,
      "duration": 0.5,
      "velocity": 0.61,
      "hand": "right"
    },
    {
      "midi": 72,
      "time": 205.5,
      "duration": 0.5,
      "velocity": 0.61,
      "hand": "right"
    },
    {
      "midi": 79,
      "time": 206,
      "duration": 0.5,
      "velocity": 0.61,
      "hand": "right"
    },
    {
      "midi": 80,
      "time": 207,
      "duration": 0.5,
      "velocity": 0.61,
      "hand": "right"
    },
    {
      "midi": 79,
      "time": 207.5,
      "duration": 0.5,
      "velocity": 0.61,
      "hand": "right"
    },
    {
      "midi": 77,
      "time": 208,
      "duration": 0.5,
      "velocity": 0.61,
      "hand": "right"
    },
    {
      "midi": 79,
      "time": 208.5,
      "duration": 0.5,
      "velocity": 0.61,
      "hand": "right"
    },
    {
      "midi": 75,
      "time": 209,
      "duration": 0.5,
      "velocity": 0.61,
      "hand": "right"
    },
    {
      "midi": 77,
      "time": 209.5,
      "duration": 0.5,
      "velocity": 0.61,
      "hand": "right"
    },
    {
      "midi": 74,
      "time": 210,
      "duration": 0.5,
      "velocity": 0.61,
      "hand": "right"
    },
    {
      "midi": 75,
      "time": 211,
      "duration": 0.5,
      "velocity": 0.61,
      "hand": "right"
    },
    {
      "midi": 74,
      "time": 211.5,
      "duration": 0.5,
      "velocity": 0.61,
      "hand": "right"
    },
    {
      "midi": 72,
      "time": 212,
      "duration": 0.5,
      "velocity": 0.61,
      "hand": "right"
    },
    {
      "midi": 74,
      "time": 212.5,
      "duration": 0.5,
      "velocity": 0.61,
      "hand": "right"
    },
    {
      "midi": 70,
      "time": 213,
      "duration": 0.5,
      "velocity": 0.61,
      "hand": "right"
    },
    {
      "midi": 72,
      "time": 213.5,
      "duration": 0.5,
      "velocity": 0.61,
      "hand": "right"
    },
    {
      "midi": 74,
      "time": 214,
      "duration": 0.5,
      "velocity": 0.61,
      "hand": "right"
    },
    {
      "midi": 70,
      "time": 214.5,
      "duration": 1,
      "velocity": 0.61,
      "hand": "right"
    },
    {
      "midi": 72,
      "time": 215.5,
      "duration": 0.5,
      "velocity": 0.61,
      "hand": "right"
    },
    {
      "midi": 74,
      "time": 216,
      "duration": 0.5,
      "velocity": 0.61,
      "hand": "right"
    },
    {
      "midi": 70,
      "time": 216.5,
      "duration": 1,
      "velocity": 0.61,
      "hand": "right"
    },
    {
      "midi": 72,
      "time": 217.5,
      "duration": 0.5,
      "velocity": 0.61,
      "hand": "right"
    },
    {
      "midi": 74,
      "time": 218,
      "duration": 0.5,
      "velocity": 0.61,
      "hand": "right"
    },
    {
      "midi": 70,
      "time": 218.5,
      "duration": 0.5,
      "velocity": 0.61,
      "hand": "right"
    },
    {
      "midi": 74,
      "time": 219,
      "duration": 0.5,
      "velocity": 0.61,
      "hand": "right"
    },
    {
      "midi": 75,
      "time": 219.5,
      "duration": 0.5,
      "velocity": 0.61,
      "hand": "right"
    },
    {
      "midi": 79,
      "time": 221,
      "duration": 0.5,
      "velocity": 0.61,
      "hand": "right"
    },
    {
      "midi": 67,
      "time": 222,
      "duration": 1.5,
      "velocity": 0.61,
      "hand": "right"
    },
    {
      "midi": 65,
      "time": 223.5,
      "duration": 0.5,
      "velocity": 0.61,
      "hand": "right"
    },
    {
      "midi": 62,
      "time": 224,
      "duration": 0.5,
      "velocity": 0.61,
      "hand": "right"
    },
    {
      "midi": 60,
      "time": 224.5,
      "duration": 0.5,
      "velocity": 0.61,
      "hand": "right"
    },
    {
      "midi": 60,
      "time": 225.5,
      "duration": 0.5,
      "velocity": 0.61,
      "hand": "right"
    },
    {
      "midi": 67,
      "time": 226,
      "duration": 1.5,
      "velocity": 0.61,
      "hand": "right"
    },
    {
      "midi": 65,
      "time": 227.5,
      "duration": 0.5,
      "velocity": 0.61,
      "hand": "right"
    },
    {
      "midi": 62,
      "time": 228,
      "duration": 0.5,
      "velocity": 0.61,
      "hand": "right"
    },
    {
      "midi": 60,
      "time": 228.5,
      "duration": 0.5,
      "velocity": 0.61,
      "hand": "right"
    },
    {
      "midi": 60,
      "time": 229.5,
      "duration": 0.5,
      "velocity": 0.61,
      "hand": "right"
    },
    {
      "midi": 67,
      "time": 230,
      "duration": 1.5,
      "velocity": 0.61,
      "hand": "right"
    },
    {
      "midi": 60,
      "time": 231.5,
      "duration": 0.5,
      "velocity": 0.61,
      "hand": "right"
    },
    {
      "midi": 67,
      "time": 232,
      "duration": 1.5,
      "velocity": 0.61,
      "hand": "right"
    },
    {
      "midi": 60,
      "time": 233.5,
      "duration": 0.5,
      "velocity": 0.61,
      "hand": "right"
    },
    {
      "midi": 67,
      "time": 234,
      "duration": 0.5,
      "velocity": 0.54,
      "hand": "right"
    },
    {
      "midi": 60,
      "time": 234.5,
      "duration": 0.5,
      "velocity": 0.54,
      "hand": "right"
    },
    {
      "midi": 67,
      "time": 235,
      "duration": 0.5,
      "velocity": 0.54,
      "hand": "right"
    },
    {
      "midi": 60,
      "time": 235.5,
      "duration": 0.5,
      "velocity": 0.54,
      "hand": "right"
    },
    {
      "midi": 67,
      "time": 236,
      "duration": 0.5,
      "velocity": 0.54,
      "hand": "right"
    },
    {
      "midi": 60,
      "time": 236.5,
      "duration": 0.5,
      "velocity": 0.54,
      "hand": "right"
    },
    {
      "midi": 67,
      "time": 237,
      "duration": 0.5,
      "velocity": 0.54,
      "hand": "right"
    },
    {
      "midi": 60,
      "time": 237.5,
      "duration": 0.5,
      "velocity": 0.54,
      "hand": "right"
    },
    {
      "midi": 67,
      "time": 238,
      "duration": 0.5,
      "velocity": 0.54,
      "hand": "right"
    },
    {
      "midi": 63,
      "time": 238.5,
      "duration": 0.5,
      "velocity": 0.54,
      "hand": "right"
    },
    {
      "midi": 60,
      "time": 239.5,
      "duration": 0.5,
      "velocity": 0.54,
      "hand": "right"
    },
    {
      "midi": 67,
      "time": 240,
      "duration": 0.5,
      "velocity": 0.54,
      "hand": "right"
    },
    {
      "midi": 63,
      "time": 240.5,
      "duration": 0.5,
      "velocity": 0.54,
      "hand": "right"
    },
    {
      "midi": 60,
      "time": 241.5,
      "duration": 0.5,
      "velocity": 0.54,
      "hand": "right"
    },
    {
      "midi": 67,
      "time": 242,
      "duration": 0.5,
      "velocity": 0.54,
      "hand": "right"
    },
    {
      "midi": 67,
      "time": 242.75,
      "duration": 0.5,
      "velocity": 0.54,
      "hand": "right"
    },
    {
      "midi": 67,
      "time": 243.75,
      "duration": 0.5,
      "velocity": 0.61,
      "hand": "right"
    },
    {
      "midi": 67,
      "time": 244.75,
      "duration": 0.5,
      "velocity": 0.69,
      "hand": "right"
    },
    {
      "midi": 67,
      "time": 246,
      "duration": 0.5,
      "velocity": 0.75,
      "hand": "right"
    },
    {
      "midi": 63,
      "time": 246.5,
      "duration": 0.5,
      "velocity": 0.75,
      "hand": "right"
    },
    {
      "midi": 60,
      "time": 247.5,
      "duration": 0.5,
      "velocity": 0.75,
      "hand": "right"
    },
    {
      "midi": 67,
      "time": 248,
      "duration": 0.5,
      "velocity": 0.75,
      "hand": "right"
    },
    {
      "midi": 63,
      "time": 248.5,
      "duration": 0.5,
      "velocity": 0.75,
      "hand": "right"
    },
    {
      "midi": 60,
      "time": 249.5,
      "duration": 0.5,
      "velocity": 0.75,
      "hand": "right"
    },
    {
      "midi": 67,
      "time": 250,
      "duration": 0.5,
      "velocity": 0.75,
      "hand": "right"
    },
    {
      "midi": 67,
      "time": 250.75,
      "duration": 0.5,
      "velocity": 0.75,
      "hand": "right"
    },
    {
      "midi": 67,
      "time": 251.75,
      "duration": 0.5,
      "velocity": 0.75,
      "hand": "right"
    },
    {
      "midi": 67,
      "time": 252.75,
      "duration": 0.5,
      "velocity": 0.75,
      "hand": "right"
    },
    {
      "midi": 82,
      "time": 253.75,
      "duration": 0.5,
      "velocity": 0.75,
      "hand": "right"
    },
    {
      "midi": 84,
      "time": 254.5,
      "duration": 0.5,
      "velocity": 0.61,
      "hand": "right"
    },
    {
      "midi": 80,
      "time": 255.5,
      "duration": 0.5,
      "velocity": 0.61,
      "hand": "right"
    },
    {
      "midi": 82,
      "time": 256,
      "duration": 0.5,
      "velocity": 0.61,
      "hand": "right"
    },
    {
      "midi": 82,
      "time": 257,
      "duration": 0.5,
      "velocity": 0.61,
      "hand": "right"
    },
    {
      "midi": 87,
      "time": 257.5,
      "duration": 0.5,
      "velocity": 0.61,
      "hand": "right"
    },
    {
      "midi": 84,
      "time": 258,
      "duration": 0.5,
      "velocity": 0.61,
      "hand": "right"
    },
    {
      "midi": 84,
      "time": 259,
      "duration": 0.5,
      "velocity": 0.61,
      "hand": "right"
    },
    {
      "midi": 80,
      "time": 259.5,
      "duration": 0.5,
      "velocity": 0.61,
      "hand": "right"
    },
    {
      "midi": 82,
      "time": 260,
      "duration": 0.5,
      "velocity": 0.61,
      "hand": "right"
    },
    {
      "midi": 82,
      "time": 261,
      "duration": 0.5,
      "velocity": 0.61,
      "hand": "right"
    },
    {
      "midi": 67,
      "time": 261.5,
      "duration": 0.5,
      "velocity": 0.68,
      "hand": "right"
    },
    {
      "midi": 72,
      "time": 262,
      "duration": 0.5,
      "velocity": 0.68,
      "hand": "right"
    },
    {
      "midi": 72,
      "time": 263,
      "duration": 0.5,
      "velocity": 0.68,
      "hand": "right"
    },
    {
      "midi": 68,
      "time": 263.5,
      "duration": 0.5,
      "velocity": 0.68,
      "hand": "right"
    },
    {
      "midi": 70,
      "time": 264,
      "duration": 0.5,
      "velocity": 0.68,
      "hand": "right"
    },
    {
      "midi": 70,
      "time": 265,
      "duration": 0.5,
      "velocity": 0.68,
      "hand": "right"
    },
    {
      "midi": 75,
      "time": 265.5,
      "duration": 0.5,
      "velocity": 0.75,
      "hand": "right"
    },
    {
      "midi": 72,
      "time": 266,
      "duration": 0.5,
      "velocity": 0.68,
      "hand": "right"
    },
    {
      "midi": 72,
      "time": 267,
      "duration": 0.5,
      "velocity": 0.68,
      "hand": "right"
    },
    {
      "midi": 68,
      "time": 267.5,
      "duration": 0.5,
      "velocity": 0.68,
      "hand": "right"
    },
    {
      "midi": 70,
      "time": 268,
      "duration": 0.5,
      "velocity": 0.68,
      "hand": "right"
    },
    {
      "midi": 70,
      "time": 269,
      "duration": 0.5,
      "velocity": 0.68,
      "hand": "right"
    },
    {
      "midi": 63,
      "time": 269.5,
      "duration": 0.5,
      "velocity": 0.75,
      "hand": "right"
    },
    {
      "midi": 60,
      "time": 270,
      "duration": 0.5,
      "velocity": 0.54,
      "hand": "right"
    },
    {
      "midi": 60,
      "time": 271,
      "duration": 0.5,
      "velocity": 0.54,
      "hand": "right"
    },
    {
      "midi": 75,
      "time": 272.25,
      "duration": 0.5,
      "velocity": 0.68,
      "hand": "right"
    },
    {
      "midi": 87,
      "time": 272.75,
      "duration": 0.5,
      "velocity": 0.68,
      "hand": "right"
    },
    {
      "midi": 99,
      "time": 273.25,
      "duration": 0.5,
      "velocity": 0.68,
      "hand": "right"
    },
    {
      "midi": 62,
      "time": 273.75,
      "duration": 0.5,
      "velocity": 0.54,
      "hand": "right"
    },
    {
      "midi": 72,
      "time": 274.25,
      "duration": 0.5,
      "velocity": 0.68,
      "hand": "right"
    },
    {
      "midi": 84,
      "time": 274.75,
      "duration": 0.5,
      "velocity": 0.68,
      "hand": "right"
    },
    {
      "midi": 96,
      "time": 275.25,
      "duration": 0.5,
      "velocity": 0.68,
      "hand": "right"
    },
    {
      "midi": 75,
      "time": 276.25,
      "duration": 0.5,
      "velocity": 0.68,
      "hand": "right"
    },
    {
      "midi": 87,
      "time": 276.75,
      "duration": 0.5,
      "velocity": 0.68,
      "hand": "right"
    },
    {
      "midi": 99,
      "time": 277.25,
      "duration": 0.5,
      "velocity": 0.68,
      "hand": "right"
    },
    {
      "midi": 91,
      "time": 277.75,
      "duration": 0.5,
      "velocity": 0.68,
      "hand": "right"
    },
    {
      "midi": 92,
      "time": 278.25,
      "duration": 0.5,
      "velocity": 0.68,
      "hand": "right"
    },
    {
      "midi": 80,
      "time": 278.75,
      "duration": 0.5,
      "velocity": 0.68,
      "hand": "right"
    },
    {
      "midi": 68,
      "time": 279.25,
      "duration": 0.5,
      "velocity": 0.68,
      "hand": "right"
    },
    {
      "midi": 89,
      "time": 279.75,
      "duration": 0.5,
      "velocity": 0.68,
      "hand": "right"
    },
    {
      "midi": 91,
      "time": 280.25,
      "duration": 0.5,
      "velocity": 0.68,
      "hand": "right"
    },
    {
      "midi": 79,
      "time": 280.75,
      "duration": 0.5,
      "velocity": 0.68,
      "hand": "right"
    },
    {
      "midi": 67,
      "time": 281.25,
      "duration": 0.5,
      "velocity": 0.68,
      "hand": "right"
    },
    {
      "midi": 92,
      "time": 281.75,
      "duration": 0.5,
      "velocity": 0.68,
      "hand": "right"
    },
    {
      "midi": 80,
      "time": 282.75,
      "duration": 0.5,
      "velocity": 0.68,
      "hand": "right"
    },
    {
      "midi": 68,
      "time": 283.25,
      "duration": 0.5,
      "velocity": 0.68,
      "hand": "right"
    },
    {
      "midi": 89,
      "time": 283.75,
      "duration": 0.5,
      "velocity": 0.68,
      "hand": "right"
    },
    {
      "midi": 91,
      "time": 284.25,
      "duration": 0.5,
      "velocity": 0.68,
      "hand": "right"
    },
    {
      "midi": 79,
      "time": 284.75,
      "duration": 0.5,
      "velocity": 0.68,
      "hand": "right"
    },
    {
      "midi": 67,
      "time": 285.25,
      "duration": 0.5,
      "velocity": 0.68,
      "hand": "right"
    },
    {
      "midi": 72,
      "time": 286.25,
      "duration": 0.5,
      "velocity": 0.54,
      "hand": "right"
    },
    {
      "midi": 72,
      "time": 287.25,
      "duration": 0.5,
      "velocity": 0.54,
      "hand": "right"
    },
    {
      "midi": 70,
      "time": 287.75,
      "duration": 0.5,
      "velocity": 0.54,
      "hand": "right"
    },
    {
      "midi": 70,
      "time": 288.75,
      "duration": 0.5,
      "velocity": 0.54,
      "hand": "right"
    },
    {
      "midi": 67,
      "time": 289.75,
      "duration": 0.5,
      "velocity": 0.54,
      "hand": "right"
    },
    {
      "midi": 72,
      "time": 290.25,
      "duration": 0.5,
      "velocity": 0.54,
      "hand": "right"
    },
    {
      "midi": 72,
      "time": 291.25,
      "duration": 0.5,
      "velocity": 0.54,
      "hand": "right"
    },
    {
      "midi": 70,
      "time": 291.75,
      "duration": 0.5,
      "velocity": 0.54,
      "hand": "right"
    },
    {
      "midi": 70,
      "time": 292.75,
      "duration": 0.5,
      "velocity": 0.54,
      "hand": "right"
    },
    {
      "midi": 67,
      "time": 293.75,
      "duration": 0.5,
      "velocity": 0.54,
      "hand": "right"
    },
    {
      "midi": 72,
      "time": 294.25,
      "duration": 0.5,
      "velocity": 0.54,
      "hand": "right"
    },
    {
      "midi": 84,
      "time": 294.75,
      "duration": 0.75,
      "velocity": 0.54,
      "hand": "right"
    },
    {
      "midi": 80,
      "time": 295.5,
      "duration": 0.5,
      "velocity": 0.54,
      "hand": "right"
    },
    {
      "midi": 70,
      "time": 296.25,
      "duration": 0.5,
      "velocity": 0.54,
      "hand": "right"
    },
    {
      "midi": 82,
      "time": 296.75,
      "duration": 0.75,
      "velocity": 0.54,
      "hand": "right"
    },
    {
      "midi": 79,
      "time": 297.5,
      "duration": 0.5,
      "velocity": 0.54,
      "hand": "right"
    },
    {
      "midi": 72,
      "time": 298.25,
      "duration": 0.5,
      "velocity": 0.54,
      "hand": "right"
    },
    {
      "midi": 84,
      "time": 298.75,
      "duration": 0.75,
      "velocity": 0.54,
      "hand": "right"
    },
    {
      "midi": 80,
      "time": 299.5,
      "duration": 0.5,
      "velocity": 0.54,
      "hand": "right"
    },
    {
      "midi": 70,
      "time": 300.25,
      "duration": 0.5,
      "velocity": 0.54,
      "hand": "right"
    },
    {
      "midi": 82,
      "time": 300.75,
      "duration": 0.75,
      "velocity": 0.54,
      "hand": "right"
    },
    {
      "midi": 79,
      "time": 301.5,
      "duration": 0.5,
      "velocity": 0.54,
      "hand": "right"
    },
    {
      "midi": 60,
      "time": 302,
      "duration": 0.5,
      "velocity": 0.84,
      "hand": "right"
    },
    {
      "midi": 64,
      "time": 302.5,
      "duration": 0.5,
      "velocity": 0.54,
      "hand": "right"
    },
    {
      "midi": 84,
      "time": 303.5,
      "duration": 0.5,
      "velocity": 0.54,
      "hand": "right"
    },
    {
      "midi": 60,
      "time": 304.25,
      "duration": 0.5,
      "velocity": 0.54,
      "hand": "right"
    },
    {
      "midi": 82,
      "time": 305.5,
      "duration": 0.5,
      "velocity": 0.54,
      "hand": "right"
    },
    {
      "midi": 60,
      "time": 306,
      "duration": 0.5,
      "velocity": 1,
      "hand": "right"
    },
    {
      "midi": 64,
      "time": 306.5,
      "duration": 0.5,
      "velocity": 0.54,
      "hand": "right"
    },
    {
      "midi": 84,
      "time": 307.5,
      "duration": 0.5,
      "velocity": 0.54,
      "hand": "right"
    },
    {
      "midi": 60,
      "time": 308.25,
      "duration": 0.5,
      "velocity": 0.54,
      "hand": "right"
    },
    {
      "midi": 82,
      "time": 309.5,
      "duration": 0.5,
      "velocity": 0.54,
      "hand": "right"
    },
    {
      "midi": 86,
      "time": 310,
      "duration": 0.5,
      "velocity": 0.71,
      "hand": "right"
    },
    {
      "midi": 82,
      "time": 311,
      "duration": 0.5,
      "velocity": 0.71,
      "hand": "right"
    },
    {
      "midi": 84,
      "time": 311.5,
      "duration": 0.5,
      "velocity": 0.71,
      "hand": "right"
    },
    {
      "midi": 91,
      "time": 312,
      "duration": 0.5,
      "velocity": 0.71,
      "hand": "right"
    },
    {
      "midi": 86,
      "time": 312.5,
      "duration": 1,
      "velocity": 0.71,
      "hand": "right"
    },
    {
      "midi": 82,
      "time": 313,
      "duration": 0.5,
      "velocity": 0.71,
      "hand": "right"
    },
    {
      "midi": 84,
      "time": 313.5,
      "duration": 0.5,
      "velocity": 0.71,
      "hand": "right"
    },
    {
      "midi": 86,
      "time": 314,
      "duration": 0.5,
      "velocity": 0.71,
      "hand": "right"
    },
    {
      "midi": 82,
      "time": 314.5,
      "duration": 0.5,
      "velocity": 0.71,
      "hand": "right"
    },
    {
      "midi": 84,
      "time": 315.5,
      "duration": 0.5,
      "velocity": 0.71,
      "hand": "right"
    },
    {
      "midi": 82,
      "time": 316,
      "duration": 0.5,
      "velocity": 0.71,
      "hand": "right"
    },
    {
      "midi": 79,
      "time": 316.5,
      "duration": 1,
      "velocity": 0.71,
      "hand": "right"
    },
    {
      "midi": 98,
      "time": 317,
      "duration": 0.5,
      "velocity": 0.71,
      "hand": "right"
    },
    {
      "midi": 82,
      "time": 317.5,
      "duration": 0.5,
      "velocity": 0.71,
      "hand": "right"
    },
    {
      "midi": 86,
      "time": 318,
      "duration": 0.5,
      "velocity": 0.71,
      "hand": "right"
    },
    {
      "midi": 82,
      "time": 319,
      "duration": 0.5,
      "velocity": 0.71,
      "hand": "right"
    },
    {
      "midi": 84,
      "time": 319.5,
      "duration": 0.5,
      "velocity": 0.71,
      "hand": "right"
    },
    {
      "midi": 91,
      "time": 320,
      "duration": 0.5,
      "velocity": 0.71,
      "hand": "right"
    },
    {
      "midi": 86,
      "time": 320.5,
      "duration": 1,
      "velocity": 0.71,
      "hand": "right"
    },
    {
      "midi": 82,
      "time": 321,
      "duration": 0.5,
      "velocity": 0.71,
      "hand": "right"
    },
    {
      "midi": 84,
      "time": 321.5,
      "duration": 0.5,
      "velocity": 0.71,
      "hand": "right"
    },
    {
      "midi": 86,
      "time": 322,
      "duration": 0.5,
      "velocity": 0.71,
      "hand": "right"
    },
    {
      "midi": 82,
      "time": 322.5,
      "duration": 0.5,
      "velocity": 0.71,
      "hand": "right"
    },
    {
      "midi": 84,
      "time": 323.5,
      "duration": 0.5,
      "velocity": 0.71,
      "hand": "right"
    },
    {
      "midi": 82,
      "time": 324,
      "duration": 0.5,
      "velocity": 0.71,
      "hand": "right"
    },
    {
      "midi": 79,
      "time": 324.5,
      "duration": 1,
      "velocity": 0.71,
      "hand": "right"
    },
    {
      "midi": 98,
      "time": 325,
      "duration": 0.5,
      "velocity": 0.71,
      "hand": "right"
    },
    {
      "midi": 82,
      "time": 325.5,
      "duration": 0.5,
      "velocity": 0.71,
      "hand": "right"
    },
    {
      "midi": 86,
      "time": 326,
      "duration": 0.5,
      "velocity": 0.71,
      "hand": "right"
    },
    {
      "midi": 82,
      "time": 327,
      "duration": 0.5,
      "velocity": 0.71,
      "hand": "right"
    },
    {
      "midi": 79,
      "time": 327.5,
      "duration": 0.5,
      "velocity": 0.71,
      "hand": "right"
    },
    {
      "midi": 82,
      "time": 328,
      "duration": 0.5,
      "velocity": 0.71,
      "hand": "right"
    },
    {
      "midi": 79,
      "time": 329,
      "duration": 0.5,
      "velocity": 0.71,
      "hand": "right"
    },
    {
      "midi": 76,
      "time": 329.5,
      "duration": 0.5,
      "velocity": 0.71,
      "hand": "right"
    },
    {
      "midi": 79,
      "time": 330,
      "duration": 0.5,
      "velocity": 0.71,
      "hand": "right"
    },
    {
      "midi": 73,
      "time": 330.5,
      "duration": 0.5,
      "velocity": 0.71,
      "hand": "right"
    },
    {
      "midi": 76,
      "time": 331,
      "duration": 0.5,
      "velocity": 0.71,
      "hand": "right"
    },
    {
      "midi": 67,
      "time": 331.5,
      "duration": 0.5,
      "velocity": 0.71,
      "hand": "right"
    },
    {
      "midi": 70,
      "time": 332,
      "duration": 1.5,
      "velocity": 0.71,
      "hand": "right"
    },
    {
      "midi": 67,
      "time": 332.5,
      "duration": 0.5,
      "velocity": 0.71,
      "hand": "right"
    },
    {
      "midi": 70,
      "time": 333.5,
      "duration": 0.5,
      "velocity": 0.71,
      "hand": "right"
    },
    {
      "midi": 74,
      "time": 334,
      "duration": 0.5,
      "velocity": 0.71,
      "hand": "right"
    },
    {
      "midi": 70,
      "time": 335,
      "duration": 0.5,
      "velocity": 0.71,
      "hand": "right"
    },
    {
      "midi": 67,
      "time": 335.5,
      "duration": 0.5,
      "velocity": 0.71,
      "hand": "right"
    },
    {
      "midi": 70,
      "time": 336,
      "duration": 0.5,
      "velocity": 0.71,
      "hand": "right"
    },
    {
      "midi": 67,
      "time": 337,
      "duration": 0.5,
      "velocity": 0.71,
      "hand": "right"
    },
    {
      "midi": 64,
      "time": 337.5,
      "duration": 0.5,
      "velocity": 0.71,
      "hand": "right"
    },
    {
      "midi": 67,
      "time": 338,
      "duration": 0.5,
      "velocity": 0.71,
      "hand": "right"
    },
    {
      "midi": 61,
      "time": 338.5,
      "duration": 0.5,
      "velocity": 0.71,
      "hand": "right"
    },
    {
      "midi": 64,
      "time": 339,
      "duration": 0.5,
      "velocity": 0.71,
      "hand": "right"
    },
    {
      "midi": 70,
      "time": 341.5,
      "duration": 0.5,
      "velocity": 0.54,
      "hand": "right"
    },
    {
      "midi": 70,
      "time": 343.5,
      "duration": 0.5,
      "velocity": 0.54,
      "hand": "right"
    },
    {
      "midi": 70,
      "time": 344.5,
      "duration": 0.5,
      "velocity": 0.54,
      "hand": "right"
    },
    {
      "midi": 70,
      "time": 345.5,
      "duration": 0.5,
      "velocity": 0.54,
      "hand": "right"
    },
    {
      "midi": 70,
      "time": 346.5,
      "duration": 1,
      "velocity": 0.54,
      "hand": "right"
    },
    {
      "midi": 103,
      "time": 360,
      "duration": 1.75,
      "velocity": 0.75,
      "hand": "right"
    },
    {
      "midi": 101,
      "time": 361.75,
      "duration": 0.5,
      "velocity": 0.49,
      "hand": "right"
    },
    {
      "midi": 62,
      "time": 366,
      "duration": 0.5,
      "velocity": 0.49,
      "hand": "right"
    },
    {
      "midi": 82,
      "time": 367,
      "duration": 1,
      "velocity": 0.75,
      "hand": "right"
    },
    {
      "midi": 67,
      "time": 373.5,
      "duration": 0.5,
      "velocity": 0.75,
      "hand": "right"
    },
    {
      "midi": 79,
      "time": 374,
      "duration": 0.5,
      "velocity": 0.75,
      "hand": "right"
    },
    {
      "midi": 91,
      "time": 374.5,
      "duration": 0.5,
      "velocity": 0.75,
      "hand": "right"
    },
    {
      "midi": 103,
      "time": 375,
      "duration": 0.5,
      "velocity": 0.75,
      "hand": "right"
    },
    {
      "midi": 60,
      "time": 376.5,
      "duration": 0.5,
      "velocity": 0.71,
      "hand": "right"
    },
    {
      "midi": 62,
      "time": 377.25,
      "duration": 0.5,
      "velocity": 0.71,
      "hand": "right"
    },
    {
      "midi": 60,
      "time": 377.75,
      "duration": 0.5,
      "velocity": 0.71,
      "hand": "right"
    },
    {
      "midi": 61,
      "time": 378.25,
      "duration": 0.5,
      "velocity": 0.71,
      "hand": "right"
    },
    {
      "midi": 62,
      "time": 378.75,
      "duration": 0.5,
      "velocity": 0.71,
      "hand": "right"
    },
    {
      "midi": 64,
      "time": 379.25,
      "duration": 0.5,
      "velocity": 0.71,
      "hand": "right"
    },
    {
      "midi": 65,
      "time": 379.75,
      "duration": 0.5,
      "velocity": 0.71,
      "hand": "right"
    },
    {
      "midi": 70,
      "time": 380.25,
      "duration": 0.5,
      "velocity": 0.71,
      "hand": "right"
    },
    {
      "midi": 68,
      "time": 380.75,
      "duration": 0.5,
      "velocity": 0.71,
      "hand": "right"
    },
    {
      "midi": 74,
      "time": 381.25,
      "duration": 0.5,
      "velocity": 0.71,
      "hand": "right"
    },
    {
      "midi": 72,
      "time": 381.75,
      "duration": 0.5,
      "velocity": 0.71,
      "hand": "right"
    },
    {
      "midi": 73,
      "time": 382.25,
      "duration": 0.5,
      "velocity": 0.71,
      "hand": "right"
    },
    {
      "midi": 74,
      "time": 382.75,
      "duration": 0.5,
      "velocity": 0.71,
      "hand": "right"
    },
    {
      "midi": 76,
      "time": 383.25,
      "duration": 0.5,
      "velocity": 0.71,
      "hand": "right"
    },
    {
      "midi": 77,
      "time": 383.75,
      "duration": 0.5,
      "velocity": 0.71,
      "hand": "right"
    },
    {
      "midi": 79,
      "time": 384.25,
      "duration": 0.5,
      "velocity": 0.71,
      "hand": "right"
    },
    {
      "midi": 80,
      "time": 384.75,
      "duration": 0.5,
      "velocity": 0.71,
      "hand": "right"
    },
    {
      "midi": 86,
      "time": 385.25,
      "duration": 0.5,
      "velocity": 0.71,
      "hand": "right"
    },
    {
      "midi": 84,
      "time": 385.75,
      "duration": 0.5,
      "velocity": 0.71,
      "hand": "right"
    },
    {
      "midi": 89,
      "time": 386.25,
      "duration": 0.5,
      "velocity": 0.71,
      "hand": "right"
    },
    {
      "midi": 87,
      "time": 386.75,
      "duration": 0.5,
      "velocity": 0.71,
      "hand": "right"
    },
    {
      "midi": 92,
      "time": 387.25,
      "duration": 0.5,
      "velocity": 0.71,
      "hand": "right"
    },
    {
      "midi": 90,
      "time": 387.75,
      "duration": 0.5,
      "velocity": 0.71,
      "hand": "right"
    },
    {
      "midi": 94,
      "time": 388.25,
      "duration": 0.5,
      "velocity": 0.71,
      "hand": "right"
    },
    {
      "midi": 72,
      "time": 389,
      "duration": 1,
      "velocity": 0.84,
      "hand": "right"
    },
    {
      "midi": 89,
      "time": 390,
      "duration": 0.5,
      "velocity": 0.84,
      "hand": "right"
    },
    {
      "midi": 94,
      "time": 390.5,
      "duration": 0.5,
      "velocity": 0.84,
      "hand": "right"
    },
    {
      "midi": 70,
      "time": 391,
      "duration": 1,
      "velocity": 0.84,
      "hand": "right"
    },
    {
      "midi": 91,
      "time": 392,
      "duration": 0.5,
      "velocity": 0.84,
      "hand": "right"
    },
    {
      "midi": 96,
      "time": 392.5,
      "duration": 0.5,
      "velocity": 0.84,
      "hand": "right"
    },
    {
      "midi": 72,
      "time": 393,
      "duration": 1,
      "velocity": 0.84,
      "hand": "right"
    },
    {
      "midi": 89,
      "time": 394,
      "duration": 0.5,
      "velocity": 0.84,
      "hand": "right"
    },
    {
      "midi": 94,
      "time": 394.5,
      "duration": 0.5,
      "velocity": 0.84,
      "hand": "right"
    },
    {
      "midi": 70,
      "time": 395,
      "duration": 1,
      "velocity": 0.84,
      "hand": "right"
    },
    {
      "midi": 79,
      "time": 396,
      "duration": 0.5,
      "velocity": 0.84,
      "hand": "right"
    },
    {
      "midi": 84,
      "time": 396.5,
      "duration": 0.5,
      "velocity": 0.84,
      "hand": "right"
    },
    {
      "midi": 77,
      "time": 397.5,
      "duration": 0.5,
      "velocity": 1,
      "hand": "right"
    },
    {
      "midi": 82,
      "time": 398.5,
      "duration": 0.5,
      "velocity": 1,
      "hand": "right"
    },
    {
      "midi": 75,
      "time": 399.5,
      "duration": 0.5,
      "velocity": 1,
      "hand": "right"
    },
    {
      "midi": 79,
      "time": 400,
      "duration": 0.5,
      "velocity": 1,
      "hand": "right"
    },
    {
      "midi": 84,
      "time": 400.5,
      "duration": 0.5,
      "velocity": 1,
      "hand": "right"
    },
    {
      "midi": 77,
      "time": 401.5,
      "duration": 0.5,
      "velocity": 1,
      "hand": "right"
    },
    {
      "midi": 82,
      "time": 402.5,
      "duration": 0.5,
      "velocity": 1,
      "hand": "right"
    },
    {
      "midi": 75,
      "time": 403.5,
      "duration": 0.5,
      "velocity": 1,
      "hand": "right"
    },
    {
      "midi": 68,
      "time": 404.5,
      "duration": 0.5,
      "velocity": 0.75,
      "hand": "right"
    },
    {
      "midi": 75,
      "time": 405,
      "duration": 0.5,
      "velocity": 0.75,
      "hand": "right"
    },
    {
      "midi": 68,
      "time": 405.5,
      "duration": 0.5,
      "velocity": 0.75,
      "hand": "right"
    },
    {
      "midi": 70,
      "time": 406,
      "duration": 0.5,
      "velocity": 0.75,
      "hand": "right"
    },
    {
      "midi": 67,
      "time": 406.5,
      "duration": 0.5,
      "velocity": 0.75,
      "hand": "right"
    },
    {
      "midi": 75,
      "time": 407,
      "duration": 0.5,
      "velocity": 0.75,
      "hand": "right"
    },
    {
      "midi": 67,
      "time": 407.5,
      "duration": 0.5,
      "velocity": 0.75,
      "hand": "right"
    },
    {
      "midi": 68,
      "time": 408.5,
      "duration": 0.5,
      "velocity": 0.75,
      "hand": "right"
    },
    {
      "midi": 75,
      "time": 409,
      "duration": 0.5,
      "velocity": 0.75,
      "hand": "right"
    },
    {
      "midi": 68,
      "time": 409.5,
      "duration": 0.5,
      "velocity": 0.75,
      "hand": "right"
    },
    {
      "midi": 70,
      "time": 410,
      "duration": 0.5,
      "velocity": 0.75,
      "hand": "right"
    },
    {
      "midi": 67,
      "time": 410.5,
      "duration": 0.5,
      "velocity": 0.75,
      "hand": "right"
    },
    {
      "midi": 75,
      "time": 411,
      "duration": 0.5,
      "velocity": 0.75,
      "hand": "right"
    },
    {
      "midi": 67,
      "time": 411.5,
      "duration": 0.5,
      "velocity": 0.75,
      "hand": "right"
    },
    {
      "midi": 70,
      "time": 412.75,
      "duration": 0.5,
      "velocity": 0.8,
      "hand": "right"
    },
    {
      "midi": 72,
      "time": 413.25,
      "duration": 0.5,
      "velocity": 0.8,
      "hand": "right"
    },
    {
      "midi": 73,
      "time": 413.75,
      "duration": 0.5,
      "velocity": 0.8,
      "hand": "right"
    },
    {
      "midi": 76,
      "time": 414.25,
      "duration": 0.5,
      "velocity": 0.8,
      "hand": "right"
    },
    {
      "midi": 79,
      "time": 414.75,
      "duration": 0.5,
      "velocity": 0.8,
      "hand": "right"
    },
    {
      "midi": 81,
      "time": 415.25,
      "duration": 0.5,
      "velocity": 0.8,
      "hand": "right"
    },
    {
      "midi": 82,
      "time": 415.75,
      "duration": 0.5,
      "velocity": 0.8,
      "hand": "right"
    },
    {
      "midi": 86,
      "time": 416.25,
      "duration": 0.5,
      "velocity": 0.8,
      "hand": "right"
    },
    {
      "midi": 70,
      "time": 416.75,
      "duration": 0.5,
      "velocity": 0.8,
      "hand": "right"
    },
    {
      "midi": 72,
      "time": 417.25,
      "duration": 0.5,
      "velocity": 0.8,
      "hand": "right"
    },
    {
      "midi": 73,
      "time": 417.75,
      "duration": 0.5,
      "velocity": 0.8,
      "hand": "right"
    },
    {
      "midi": 76,
      "time": 418.25,
      "duration": 0.5,
      "velocity": 0.8,
      "hand": "right"
    },
    {
      "midi": 79,
      "time": 418.75,
      "duration": 0.5,
      "velocity": 0.8,
      "hand": "right"
    },
    {
      "midi": 81,
      "time": 419.25,
      "duration": 0.5,
      "velocity": 0.8,
      "hand": "right"
    },
    {
      "midi": 82,
      "time": 419.75,
      "duration": 0.5,
      "velocity": 0.8,
      "hand": "right"
    },
    {
      "midi": 86,
      "time": 420.25,
      "duration": 0.5,
      "velocity": 0.8,
      "hand": "right"
    },
    {
      "midi": 79,
      "time": 420.75,
      "duration": 0.5,
      "velocity": 0.8,
      "hand": "right"
    },
    {
      "midi": 81,
      "time": 421.25,
      "duration": 0.5,
      "velocity": 0.8,
      "hand": "right"
    },
    {
      "midi": 83,
      "time": 421.75,
      "duration": 0.5,
      "velocity": 0.8,
      "hand": "right"
    },
    {
      "midi": 84,
      "time": 422.25,
      "duration": 0.5,
      "velocity": 0.8,
      "hand": "right"
    },
    {
      "midi": 87,
      "time": 422.75,
      "duration": 0.5,
      "velocity": 0.8,
      "hand": "right"
    },
    {
      "midi": 89,
      "time": 423.25,
      "duration": 0.5,
      "velocity": 0.8,
      "hand": "right"
    },
    {
      "midi": 91,
      "time": 423.75,
      "duration": 0.5,
      "velocity": 0.8,
      "hand": "right"
    },
    {
      "midi": 92,
      "time": 424.25,
      "duration": 0.5,
      "velocity": 0.8,
      "hand": "right"
    },
    {
      "midi": 79,
      "time": 424.75,
      "duration": 0.5,
      "velocity": 0.8,
      "hand": "right"
    },
    {
      "midi": 81,
      "time": 425.25,
      "duration": 0.5,
      "velocity": 0.8,
      "hand": "right"
    },
    {
      "midi": 83,
      "time": 425.75,
      "duration": 0.5,
      "velocity": 0.8,
      "hand": "right"
    },
    {
      "midi": 84,
      "time": 426.25,
      "duration": 0.5,
      "velocity": 0.8,
      "hand": "right"
    },
    {
      "midi": 87,
      "time": 426.75,
      "duration": 0.5,
      "velocity": 0.8,
      "hand": "right"
    },
    {
      "midi": 89,
      "time": 427.25,
      "duration": 0.5,
      "velocity": 0.8,
      "hand": "right"
    },
    {
      "midi": 91,
      "time": 427.75,
      "duration": 0.5,
      "velocity": 0.8,
      "hand": "right"
    },
    {
      "midi": 92,
      "time": 428.25,
      "duration": 0.5,
      "velocity": 0.8,
      "hand": "right"
    },
    {
      "midi": 91,
      "time": 429,
      "duration": 0.5,
      "velocity": 0.8,
      "hand": "right"
    },
    {
      "midi": 89,
      "time": 429.5,
      "duration": 0.5,
      "velocity": 0.8,
      "hand": "right"
    },
    {
      "midi": 87,
      "time": 430,
      "duration": 0.5,
      "velocity": 0.8,
      "hand": "right"
    },
    {
      "midi": 89,
      "time": 430.5,
      "duration": 0.5,
      "velocity": 0.8,
      "hand": "right"
    },
    {
      "midi": 87,
      "time": 431,
      "duration": 0.5,
      "velocity": 0.8,
      "hand": "right"
    },
    {
      "midi": 85,
      "time": 431.5,
      "duration": 0.5,
      "velocity": 0.8,
      "hand": "right"
    },
    {
      "midi": 84,
      "time": 432,
      "duration": 0.5,
      "velocity": 0.8,
      "hand": "right"
    },
    {
      "midi": 85,
      "time": 432.5,
      "duration": 0.5,
      "velocity": 0.8,
      "hand": "right"
    },
    {
      "midi": 82,
      "time": 433,
      "duration": 0.5,
      "velocity": 0.8,
      "hand": "right"
    },
    {
      "midi": 77,
      "time": 433.5,
      "duration": 0.5,
      "velocity": 0.8,
      "hand": "right"
    },
    {
      "midi": 73,
      "time": 434,
      "duration": 0.5,
      "velocity": 0.8,
      "hand": "right"
    },
    {
      "midi": 70,
      "time": 434.5,
      "duration": 0.5,
      "velocity": 0.8,
      "hand": "right"
    },
    {
      "midi": 65,
      "time": 435,
      "duration": 0.5,
      "velocity": 0.8,
      "hand": "right"
    },
    {
      "midi": 61,
      "time": 435.5,
      "duration": 0.5,
      "velocity": 0.8,
      "hand": "right"
    },
    {
      "midi": 71,
      "time": 436,
      "duration": 1,
      "velocity": 0.84,
      "hand": "right"
    },
    {
      "midi": 71,
      "time": 437.5,
      "duration": 0.5,
      "velocity": 0.84,
      "hand": "right"
    },
    {
      "midi": 83,
      "time": 438,
      "duration": 0.5,
      "velocity": 0.84,
      "hand": "right"
    },
    {
      "midi": 95,
      "time": 438.5,
      "duration": 0.5,
      "velocity": 0.84,
      "hand": "right"
    },
    {
      "midi": 83,
      "time": 439,
      "duration": 0.5,
      "velocity": 0.84,
      "hand": "right"
    },
    {
      "midi": 71,
      "time": 439.5,
      "duration": 0.5,
      "velocity": 0.84,
      "hand": "right"
    },
    {
      "midi": 68,
      "time": 440,
      "duration": 0.5,
      "velocity": 0.68,
      "hand": "right"
    },
    {
      "midi": 73,
      "time": 440.5,
      "duration": 0.5,
      "velocity": 0.68,
      "hand": "right"
    },
    {
      "midi": 73,
      "time": 441.5,
      "duration": 0.5,
      "velocity": 0.68,
      "hand": "right"
    },
    {
      "midi": 66,
      "time": 442,
      "duration": 0.5,
      "velocity": 0.68,
      "hand": "right"
    },
    {
      "midi": 71,
      "time": 442.5,
      "duration": 0.5,
      "velocity": 0.68,
      "hand": "right"
    },
    {
      "midi": 71,
      "time": 443.5,
      "duration": 0.5,
      "velocity": 0.68,
      "hand": "right"
    },
    {
      "midi": 68,
      "time": 444,
      "duration": 0.5,
      "velocity": 0.68,
      "hand": "right"
    },
    {
      "midi": 73,
      "time": 444.5,
      "duration": 0.5,
      "velocity": 0.68,
      "hand": "right"
    },
    {
      "midi": 73,
      "time": 445.5,
      "duration": 0.5,
      "velocity": 0.68,
      "hand": "right"
    },
    {
      "midi": 66,
      "time": 446,
      "duration": 0.5,
      "velocity": 0.68,
      "hand": "right"
    },
    {
      "midi": 71,
      "time": 446.5,
      "duration": 0.5,
      "velocity": 0.68,
      "hand": "right"
    },
    {
      "midi": 71,
      "time": 447.5,
      "duration": 0.5,
      "velocity": 0.68,
      "hand": "right"
    },
    {
      "midi": 64,
      "time": 448,
      "duration": 0.5,
      "velocity": 0.68,
      "hand": "right"
    },
    {
      "midi": 69,
      "time": 448.5,
      "duration": 0.5,
      "velocity": 0.68,
      "hand": "right"
    },
    {
      "midi": 69,
      "time": 449.5,
      "duration": 0.5,
      "velocity": 0.68,
      "hand": "right"
    },
    {
      "midi": 63,
      "time": 450,
      "duration": 0.5,
      "velocity": 0.68,
      "hand": "right"
    },
    {
      "midi": 68,
      "time": 450.5,
      "duration": 0.5,
      "velocity": 0.68,
      "hand": "right"
    },
    {
      "midi": 68,
      "time": 451.5,
      "duration": 0.5,
      "velocity": 0.68,
      "hand": "right"
    },
    {
      "midi": 61,
      "time": 452,
      "duration": 0.5,
      "velocity": 0.68,
      "hand": "right"
    },
    {
      "midi": 66,
      "time": 452.5,
      "duration": 0.5,
      "velocity": 0.68,
      "hand": "right"
    },
    {
      "midi": 60,
      "time": 453,
      "duration": 0.5,
      "velocity": 0.68,
      "hand": "right"
    },
    {
      "midi": 64,
      "time": 453.5,
      "duration": 0.5,
      "velocity": 0.68,
      "hand": "right"
    },
    {
      "midi": 61,
      "time": 454.25,
      "duration": 0.5,
      "velocity": 0.68,
      "hand": "right"
    },
    {
      "midi": 66,
      "time": 456,
      "duration": 0.5,
      "velocity": 0.75,
      "hand": "right"
    },
    {
      "midi": 63,
      "time": 456.5,
      "duration": 0.5,
      "velocity": 0.75,
      "hand": "right"
    },
    {
      "midi": 66,
      "time": 457,
      "duration": 0.5,
      "velocity": 0.75,
      "hand": "right"
    },
    {
      "midi": 63,
      "time": 457.5,
      "duration": 0.5,
      "velocity": 0.75,
      "hand": "right"
    },
    {
      "midi": 66,
      "time": 458,
      "duration": 0.5,
      "velocity": 0.75,
      "hand": "right"
    },
    {
      "midi": 63,
      "time": 458.5,
      "duration": 1.5,
      "velocity": 0.75,
      "hand": "right"
    },
    {
      "midi": 66,
      "time": 460,
      "duration": 0.5,
      "velocity": 0.75,
      "hand": "right"
    },
    {
      "midi": 63,
      "time": 460.5,
      "duration": 0.5,
      "velocity": 0.75,
      "hand": "right"
    },
    {
      "midi": 66,
      "time": 461,
      "duration": 0.5,
      "velocity": 0.75,
      "hand": "right"
    },
    {
      "midi": 63,
      "time": 461.5,
      "duration": 0.5,
      "velocity": 0.75,
      "hand": "right"
    },
    {
      "midi": 66,
      "time": 462,
      "duration": 0.5,
      "velocity": 0.75,
      "hand": "right"
    },
    {
      "midi": 63,
      "time": 462.5,
      "duration": 14,
      "velocity": 0.75,
      "hand": "right"
    },
    {
      "midi": 60,
      "time": 476.5,
      "duration": 2,
      "velocity": 0.71,
      "hand": "right"
    },
    {
      "midi": 63,
      "time": 478.5,
      "duration": 1,
      "velocity": 0.71,
      "hand": "right"
    },
    {
      "midi": 60,
      "time": 479.5,
      "duration": 1,
      "velocity": 0.71,
      "hand": "right"
    },
    {
      "midi": 65,
      "time": 480.5,
      "duration": 4,
      "velocity": 0.71,
      "hand": "right"
    },
    {
      "midi": 67,
      "time": 484.5,
      "duration": 1.5,
      "velocity": 0.71,
      "hand": "right"
    },
    {
      "midi": 65,
      "time": 486,
      "duration": 0.5,
      "velocity": 0.71,
      "hand": "right"
    },
    {
      "midi": 60,
      "time": 486.5,
      "duration": 1,
      "velocity": 0.71,
      "hand": "right"
    },
    {
      "midi": 60,
      "time": 487.5,
      "duration": 1,
      "velocity": 0.71,
      "hand": "right"
    },
    {
      "midi": 60,
      "time": 492.5,
      "duration": 1,
      "velocity": 0.71,
      "hand": "right"
    },
    {
      "midi": 60,
      "time": 493.5,
      "duration": 1,
      "velocity": 0.71,
      "hand": "right"
    },
    {
      "midi": 63,
      "time": 494.5,
      "duration": 1.5,
      "velocity": 0.71,
      "hand": "right"
    },
    {
      "midi": 62,
      "time": 496,
      "duration": 0.5,
      "velocity": 0.71,
      "hand": "right"
    },
    {
      "midi": 60,
      "time": 501,
      "duration": 0.5,
      "velocity": 0.71,
      "hand": "right"
    },
    {
      "midi": 60,
      "time": 502,
      "duration": 0.5,
      "velocity": 0.71,
      "hand": "right"
    },
    {
      "midi": 67,
      "time": 508.5,
      "duration": 1,
      "velocity": 0.71,
      "hand": "right"
    },
    {
      "midi": 67,
      "time": 509.5,
      "duration": 1,
      "velocity": 0.71,
      "hand": "right"
    },
    {
      "midi": 67,
      "time": 510.5,
      "duration": 1.5,
      "velocity": 0.71,
      "hand": "right"
    },
    {
      "midi": 65,
      "time": 512,
      "duration": 0.5,
      "velocity": 0.71,
      "hand": "right"
    },
    {
      "midi": 62,
      "time": 512.5,
      "duration": 4,
      "velocity": 0.71,
      "hand": "right"
    },
    {
      "midi": 60,
      "time": 513.5,
      "duration": 2,
      "velocity": 0.49,
      "hand": "right"
    },
    {
      "midi": 67,
      "time": 516.5,
      "duration": 1,
      "velocity": 0.71,
      "hand": "right"
    },
    {
      "midi": 67,
      "time": 517.5,
      "duration": 1,
      "velocity": 0.71,
      "hand": "right"
    },
    {
      "midi": 67,
      "time": 518.5,
      "duration": 1.5,
      "velocity": 0.71,
      "hand": "right"
    },
    {
      "midi": 65,
      "time": 520,
      "duration": 0.5,
      "velocity": 0.71,
      "hand": "right"
    },
    {
      "midi": 62,
      "time": 520.5,
      "duration": 4,
      "velocity": 0.71,
      "hand": "right"
    },
    {
      "midi": 60,
      "time": 521.5,
      "duration": 2,
      "velocity": 0.49,
      "hand": "right"
    },
    {
      "midi": 60,
      "time": 524.5,
      "duration": 1,
      "velocity": 0.71,
      "hand": "right"
    },
    {
      "midi": 60,
      "time": 525.5,
      "duration": 0.5,
      "velocity": 0.71,
      "hand": "right"
    },
    {
      "midi": 62,
      "time": 526,
      "duration": 0.5,
      "velocity": 0.71,
      "hand": "right"
    },
    {
      "midi": 65,
      "time": 526.5,
      "duration": 0.5,
      "velocity": 0.71,
      "hand": "right"
    },
    {
      "midi": 63,
      "time": 527,
      "duration": 0.5,
      "velocity": 0.71,
      "hand": "right"
    },
    {
      "midi": 62,
      "time": 527.5,
      "duration": 0.5,
      "velocity": 0.71,
      "hand": "right"
    },
    {
      "midi": 60,
      "time": 528,
      "duration": 0.5,
      "velocity": 0.71,
      "hand": "right"
    },
    {
      "midi": 63,
      "time": 528.5,
      "duration": 3,
      "velocity": 0.71,
      "hand": "right"
    },
    {
      "midi": 63,
      "time": 531.5,
      "duration": 1,
      "velocity": 0.71,
      "hand": "right"
    },
    {
      "midi": 62,
      "time": 532.5,
      "duration": 1,
      "velocity": 0.71,
      "hand": "right"
    },
    {
      "midi": 60,
      "time": 533.5,
      "duration": 1,
      "velocity": 0.71,
      "hand": "right"
    },
    {
      "midi": 60,
      "time": 535.5,
      "duration": 0.75,
      "velocity": 0.71,
      "hand": "right"
    },
    {
      "midi": 62,
      "time": 536.25,
      "duration": 0.5,
      "velocity": 0.71,
      "hand": "right"
    },
    {
      "midi": 63,
      "time": 539.5,
      "duration": 1,
      "velocity": 0.71,
      "hand": "right"
    },
    {
      "midi": 62,
      "time": 540.5,
      "duration": 1,
      "velocity": 0.71,
      "hand": "right"
    },
    {
      "midi": 60,
      "time": 541.5,
      "duration": 1,
      "velocity": 0.71,
      "hand": "right"
    },
    {
      "midi": 60,
      "time": 543.5,
      "duration": 0.75,
      "velocity": 0.71,
      "hand": "right"
    },
    {
      "midi": 62,
      "time": 544.25,
      "duration": 0.5,
      "velocity": 0.71,
      "hand": "right"
    },
    {
      "midi": 60,
      "time": 547.5,
      "duration": 1,
      "velocity": 0.49,
      "hand": "right"
    },
    {
      "midi": 60,
      "time": 551.5,
      "duration": 1,
      "velocity": 0.49,
      "hand": "right"
    },
    {
      "midi": 60,
      "time": 553.5,
      "duration": 1,
      "velocity": 0.49,
      "hand": "right"
    },
    {
      "midi": 60,
      "time": 555.5,
      "duration": 1,
      "velocity": 0.49,
      "hand": "right"
    },
    {
      "midi": 84,
      "time": 568.5,
      "duration": 0.5,
      "velocity": 0.8,
      "hand": "right"
    },
    {
      "midi": 60,
      "time": 569,
      "duration": 0.5,
      "velocity": 0.8,
      "hand": "right"
    },
    {
      "midi": 60,
      "time": 572.5,
      "duration": 0.5,
      "velocity": 0.8,
      "hand": "right"
    }
  ],
  "notes2Hands": [
    {
      "midi": 48,
      "time": 0,
      "duration": 1,
      "velocity": 0.54,
      "hand": "left"
    },
    {
      "midi": 55,
      "time": 0,
      "duration": 1,
      "velocity": 0.54,
      "hand": "left"
    },
    {
      "midi": 60,
      "time": 0,
      "duration": 1,
      "velocity": 0.54,
      "hand": "right"
    },
    {
      "midi": 63,
      "time": 0,
      "duration": 1,
      "velocity": 0.71,
      "hand": "right"
    },
    {
      "midi": 67,
      "time": 0,
      "duration": 1,
      "velocity": 0.71,
      "hand": "right"
    },
    {
      "midi": 72,
      "time": 0,
      "duration": 2,
      "velocity": 0.71,
      "hand": "right"
    },
    {
      "midi": 75,
      "time": 2,
      "duration": 1,
      "velocity": 0.71,
      "hand": "right"
    },
    {
      "midi": 72,
      "time": 3,
      "duration": 1,
      "velocity": 0.71,
      "hand": "right"
    },
    {
      "midi": 48,
      "time": 4,
      "duration": 4,
      "velocity": 0.54,
      "hand": "left"
    },
    {
      "midi": 56,
      "time": 4,
      "duration": 4,
      "velocity": 0.54,
      "hand": "left"
    },
    {
      "midi": 60,
      "time": 4,
      "duration": 1.5,
      "velocity": 0.71,
      "hand": "right"
    },
    {
      "midi": 65,
      "time": 4,
      "duration": 4,
      "velocity": 0.71,
      "hand": "right"
    },
    {
      "midi": 72,
      "time": 4,
      "duration": 4,
      "velocity": 0.71,
      "hand": "right"
    },
    {
      "midi": 77,
      "time": 4,
      "duration": 4,
      "velocity": 0.71,
      "hand": "right"
    },
    {
      "midi": 62,
      "time": 5.5,
      "duration": 0.5,
      "velocity": 0.82,
      "hand": "right"
    },
    {
      "midi": 60,
      "time": 6,
      "duration": 1,
      "velocity": 0.86,
      "hand": "right"
    },
    {
      "midi": 62,
      "time": 7,
      "duration": 1,
      "velocity": 0.93,
      "hand": "right"
    },
    {
      "midi": 48,
      "time": 8,
      "duration": 1,
      "velocity": 0.54,
      "hand": "left"
    },
    {
      "midi": 55,
      "time": 8,
      "duration": 1,
      "velocity": 0.54,
      "hand": "left"
    },
    {
      "midi": 63,
      "time": 8,
      "duration": 1,
      "velocity": 0.93,
      "hand": "right"
    },
    {
      "midi": 67,
      "time": 8,
      "duration": 1,
      "velocity": 0.71,
      "hand": "right"
    },
    {
      "midi": 72,
      "time": 8,
      "duration": 1,
      "velocity": 0.71,
      "hand": "right"
    },
    {
      "midi": 79,
      "time": 8,
      "duration": 1.5,
      "velocity": 0.71,
      "hand": "right"
    },
    {
      "midi": 77,
      "time": 9.5,
      "duration": 0.25,
      "velocity": 0.71,
      "hand": "right"
    },
    {
      "midi": 74,
      "time": 9.75,
      "duration": 0.25,
      "velocity": 0.71,
      "hand": "right"
    },
    {
      "midi": 75,
      "time": 9.75,
      "duration": 0.25,
      "velocity": 0.71,
      "hand": "right"
    },
    {
      "midi": 51,
      "time": 10,
      "duration": 1,
      "velocity": 0.54,
      "hand": "left"
    },
    {
      "midi": 60,
      "time": 10,
      "duration": 1,
      "velocity": 0.54,
      "hand": "right"
    },
    {
      "midi": 63,
      "time": 10,
      "duration": 1,
      "velocity": 0.54,
      "hand": "right"
    },
    {
      "midi": 72,
      "time": 10,
      "duration": 1,
      "velocity": 0.71,
      "hand": "right"
    },
    {
      "midi": 72,
      "time": 11,
      "duration": 1,
      "velocity": 0.71,
      "hand": "right"
    },
    {
      "midi": 55,
      "time": 12,
      "duration": 1,
      "velocity": 0.46,
      "hand": "left"
    },
    {
      "midi": 62,
      "time": 12,
      "duration": 1,
      "velocity": 0.46,
      "hand": "right"
    },
    {
      "midi": 67,
      "time": 12,
      "duration": 1,
      "velocity": 0.71,
      "hand": "right"
    },
    {
      "midi": 70,
      "time": 12,
      "duration": 1,
      "velocity": 0.71,
      "hand": "right"
    },
    {
      "midi": 67,
      "time": 13,
      "duration": 3,
      "velocity": 0.71,
      "hand": "right"
    },
    {
      "midi": 55,
      "time": 14.5,
      "duration": 0.5,
      "velocity": 0.36,
      "hand": "left"
    },
    {
      "midi": 57,
      "time": 15,
      "duration": 0.5,
      "velocity": 0.34,
      "hand": "left"
    },
    {
      "midi": 58,
      "time": 15.5,
      "duration": 0.5,
      "velocity": 0.32,
      "hand": "left"
    },
    {
      "midi": 51,
      "time": 16,
      "duration": 1,
      "velocity": 0.32,
      "hand": "left"
    },
    {
      "midi": 55,
      "time": 16,
      "duration": 1,
      "velocity": 0.32,
      "hand": "left"
    },
    {
      "midi": 60,
      "time": 16,
      "duration": 1,
      "velocity": 0.71,
      "hand": "right"
    },
    {
      "midi": 67,
      "time": 16,
      "duration": 1,
      "velocity": 0.71,
      "hand": "right"
    },
    {
      "midi": 72,
      "time": 16,
      "duration": 1,
      "velocity": 0.71,
      "hand": "right"
    },
    {
      "midi": 72,
      "time": 17,
      "duration": 1,
      "velocity": 0.71,
      "hand": "right"
    },
    {
      "midi": 48,
      "time": 18,
      "duration": 1,
      "velocity": 0.32,
      "hand": "left"
    },
    {
      "midi": 55,
      "time": 18,
      "duration": 1,
      "velocity": 0.32,
      "hand": "left"
    },
    {
      "midi": 60,
      "time": 18,
      "duration": 1,
      "velocity": 0.32,
      "hand": "right"
    },
    {
      "midi": 63,
      "time": 18,
      "duration": 1,
      "velocity": 0.71,
      "hand": "right"
    },
    {
      "midi": 67,
      "time": 18,
      "duration": 1,
      "velocity": 0.71,
      "hand": "right"
    },
    {
      "midi": 72,
      "time": 18,
      "duration": 1,
      "velocity": 0.71,
      "hand": "right"
    },
    {
      "midi": 75,
      "time": 18,
      "duration": 1.5,
      "velocity": 0.71,
      "hand": "right"
    },
    {
      "midi": 74,
      "time": 19.5,
      "duration": 0.25,
      "velocity": 0.71,
      "hand": "right"
    },
    {
      "midi": 72,
      "time": 19.75,
      "duration": 0.25,
      "velocity": 0.71,
      "hand": "right"
    },
    {
      "midi": 50,
      "time": 20,
      "duration": 1.5,
      "velocity": 0.32,
      "hand": "left"
    },
    {
      "midi": 53,
      "time": 20,
      "duration": 4,
      "velocity": 0.93,
      "hand": "left"
    },
    {
      "midi": 58,
      "time": 20,
      "duration": 4,
      "velocity": 0.93,
      "hand": "left"
    },
    {
      "midi": 65,
      "time": 20,
      "duration": 4,
      "velocity": 0.71,
      "hand": "right"
    },
    {
      "midi": 70,
      "time": 20,
      "duration": 4,
      "velocity": 0.71,
      "hand": "right"
    },
    {
      "midi": 51,
      "time": 21.5,
      "duration": 0.5,
      "velocity": 0.32,
      "hand": "left"
    },
    {
      "midi": 50,
      "time": 22,
      "duration": 0.75,
      "velocity": 0.32,
      "hand": "left"
    },
    {
      "midi": 51,
      "time": 22.75,
      "duration": 0.25,
      "velocity": 0.32,
      "hand": "left"
    },
    {
      "midi": 48,
      "time": 23,
      "duration": 0.5,
      "velocity": 0.32,
      "hand": "left"
    },
    {
      "midi": 50,
      "time": 23,
      "duration": 0.25,
      "velocity": 0.32,
      "hand": "left"
    },
    {
      "midi": 50,
      "time": 23.5,
      "duration": 0.5,
      "velocity": 0.32,
      "hand": "left"
    },
    {
      "midi": 51,
      "time": 24,
      "duration": 3,
      "velocity": 0.32,
      "hand": "left"
    },
    {
      "midi": 55,
      "time": 24,
      "duration": 3,
      "velocity": 0.93,
      "hand": "left"
    },
    {
      "midi": 60,
      "time": 24,
      "duration": 3,
      "velocity": 0.71,
      "hand": "right"
    },
    {
      "midi": 67,
      "time": 24,
      "duration": 2,
      "velocity": 0.71,
      "hand": "right"
    },
    {
      "midi": 72,
      "time": 24.5,
      "duration": 0.5,
      "velocity": 0.71,
      "hand": "right"
    },
    {
      "midi": 71,
      "time": 25,
      "duration": 0.5,
      "velocity": 0.71,
      "hand": "right"
    },
    {
      "midi": 72,
      "time": 25.5,
      "duration": 0.5,
      "velocity": 0.71,
      "hand": "right"
    },
    {
      "midi": 67,
      "time": 26,
      "duration": 1,
      "velocity": 0.71,
      "hand": "right"
    },
    {
      "midi": 56,
      "time": 27,
      "duration": 1,
      "velocity": 0.32,
      "hand": "left"
    },
    {
      "midi": 60,
      "time": 27,
      "duration": 1,
      "velocity": 0.93,
      "hand": "right"
    },
    {
      "midi": 65,
      "time": 27,
      "duration": 0.75,
      "velocity": 0.71,
      "hand": "right"
    },
    {
      "midi": 63,
      "time": 27.75,
      "duration": 0.25,
      "velocity": 0.71,
      "hand": "right"
    },
    {
      "midi": 55,
      "time": 28,
      "duration": 4,
      "velocity": 0.32,
      "hand": "left"
    },
    {
      "midi": 59,
      "time": 28,
      "duration": 2,
      "velocity": 0.93,
      "hand": "left"
    },
    {
      "midi": 62,
      "time": 28,
      "duration": 2,
      "velocity": 0.71,
      "hand": "right"
    },
    {
      "midi": 65,
      "time": 28,
      "duration": 0.25,
      "velocity": 0.71,
      "hand": "right"
    },
    {
      "midi": 67,
      "time": 28,
      "duration": 4,
      "velocity": 0.71,
      "hand": "right"
    },
    {
      "midi": 60,
      "time": 30,
      "duration": 1,
      "velocity": 0.93,
      "hand": "right"
    },
    {
      "midi": 63,
      "time": 30,
      "duration": 1,
      "velocity": 0.86,
      "hand": "right"
    },
    {
      "midi": 62,
      "time": 31,
      "duration": 1,
      "velocity": 0.93,
      "hand": "right"
    },
    {
      "midi": 65,
      "time": 31,
      "duration": 1,
      "velocity": 0.93,
      "hand": "right"
    },
    {
      "midi": 51,
      "time": 32,
      "duration": 2,
      "velocity": 0.32,
      "hand": "left"
    },
    {
      "midi": 55,
      "time": 32,
      "duration": 2,
      "velocity": 0.32,
      "hand": "left"
    },
    {
      "midi": 60,
      "time": 32,
      "duration": 2,
      "velocity": 0.93,
      "hand": "right"
    },
    {
      "midi": 67,
      "time": 32,
      "duration": 1,
      "velocity": 0.71,
      "hand": "right"
    },
    {
      "midi": 72,
      "time": 32,
      "duration": 2,
      "velocity": 0.93,
      "hand": "right"
    },
    {
      "midi": 79,
      "time": 32,
      "duration": 1,
      "velocity": 0.71,
      "hand": "right"
    },
    {
      "midi": 67,
      "time": 33,
      "duration": 1,
      "velocity": 0.71,
      "hand": "right"
    },
    {
      "midi": 79,
      "time": 33,
      "duration": 1,
      "velocity": 0.71,
      "hand": "right"
    },
    {
      "midi": 50,
      "time": 34,
      "duration": 1,
      "velocity": 0.32,
      "hand": "left"
    },
    {
      "midi": 56,
      "time": 34,
      "duration": 1,
      "velocity": 0.32,
      "hand": "left"
    },
    {
      "midi": 60,
      "time": 34,
      "duration": 1,
      "velocity": 0.32,
      "hand": "right"
    },
    {
      "midi": 67,
      "time": 34,
      "duration": 1.5,
      "velocity": 0.93,
      "hand": "right"
    },
    {
      "midi": 68,
      "time": 34,
      "duration": 2,
      "velocity": 0.93,
      "hand": "right"
    },
    {
      "midi": 72,
      "time": 34,
      "duration": 2,
      "velocity": 0.93,
      "hand": "right"
    },
    {
      "midi": 79,
      "time": 34,
      "duration": 1.5,
      "velocity": 0.71,
      "hand": "right"
    },
    {
      "midi": 65,
      "time": 35.5,
      "duration": 0.25,
      "velocity": 0.93,
      "hand": "right"
    },
    {
      "midi": 77,
      "time": 35.5,
      "duration": 0.25,
      "velocity": 0.71,
      "hand": "right"
    },
    {
      "midi": 63,
      "time": 35.75,
      "duration": 0.25,
      "velocity": 0.93,
      "hand": "right"
    },
    {
      "midi": 75,
      "time": 35.75,
      "duration": 0.25,
      "velocity": 0.71,
      "hand": "right"
    },
    {
      "midi": 62,
      "time": 36,
      "duration": 4,
      "velocity": 0.93,
      "hand": "right"
    },
    {
      "midi": 74,
      "time": 36,
      "duration": 4,
      "velocity": 0.71,
      "hand": "right"
    },
    {
      "midi": 56,
      "time": 37,
      "duration": 2,
      "velocity": 0.32,
      "hand": "left"
    },
    {
      "midi": 60,
      "time": 37,
      "duration": 2,
      "velocity": 0.32,
      "hand": "right"
    },
    {
      "midi": 65,
      "time": 37,
      "duration": 2,
      "velocity": 0.93,
      "hand": "right"
    },
    {
      "midi": 72,
      "time": 37,
      "duration": 2,
      "velocity": 0.93,
      "hand": "right"
    },
    {
      "midi": 55,
      "time": 39,
      "duration": 1,
      "velocity": 0.32,
      "hand": "left"
    },
    {
      "midi": 59,
      "time": 39,
      "duration": 1,
      "velocity": 0.32,
      "hand": "left"
    },
    {
      "midi": 67,
      "time": 39,
      "duration": 1,
      "velocity": 0.93,
      "hand": "right"
    },
    {
      "midi": 71,
      "time": 39,
      "duration": 1,
      "velocity": 0.93,
      "hand": "right"
    },
    {
      "midi": 51,
      "time": 40,
      "duration": 2,
      "velocity": 0.32,
      "hand": "left"
    },
    {
      "midi": 55,
      "time": 40,
      "duration": 2,
      "velocity": 0.32,
      "hand": "left"
    },
    {
      "midi": 60,
      "time": 40,
      "duration": 2,
      "velocity": 0.93,
      "hand": "right"
    },
    {
      "midi": 67,
      "time": 40,
      "duration": 1,
      "velocity": 0.71,
      "hand": "right"
    },
    {
      "midi": 72,
      "time": 40,
      "duration": 2,
      "velocity": 0.93,
      "hand": "right"
    },
    {
      "midi": 79,
      "time": 40,
      "duration": 1,
      "velocity": 0.71,
      "hand": "right"
    },
    {
      "midi": 67,
      "time": 41,
      "duration": 1,
      "velocity": 0.71,
      "hand": "right"
    },
    {
      "midi": 79,
      "time": 41,
      "duration": 1,
      "velocity": 0.71,
      "hand": "right"
    },
    {
      "midi": 50,
      "time": 42,
      "duration": 1,
      "velocity": 0.32,
      "hand": "left"
    },
    {
      "midi": 56,
      "time": 42,
      "duration": 1,
      "velocity": 0.32,
      "hand": "left"
    },
    {
      "midi": 60,
      "time": 42,
      "duration": 1,
      "velocity": 0.32,
      "hand": "right"
    },
    {
      "midi": 67,
      "time": 42,
      "duration": 1.5,
      "velocity": 0.93,
      "hand": "right"
    },
    {
      "midi": 68,
      "time": 42,
      "duration": 2,
      "velocity": 0.93,
      "hand": "right"
    },
    {
      "midi": 72,
      "time": 42,
      "duration": 2,
      "velocity": 0.93,
      "hand": "right"
    },
    {
      "midi": 79,
      "time": 42,
      "duration": 1.5,
      "velocity": 0.71,
      "hand": "right"
    },
    {
      "midi": 65,
      "time": 43.5,
      "duration": 0.25,
      "velocity": 0.93,
      "hand": "right"
    },
    {
      "midi": 77,
      "time": 43.5,
      "duration": 0.25,
      "velocity": 0.71,
      "hand": "right"
    },
    {
      "midi": 63,
      "time": 43.75,
      "duration": 0.25,
      "velocity": 0.93,
      "hand": "right"
    },
    {
      "midi": 75,
      "time": 43.75,
      "duration": 0.25,
      "velocity": 0.71,
      "hand": "right"
    },
    {
      "midi": 62,
      "time": 44,
      "duration": 4,
      "velocity": 0.93,
      "hand": "right"
    },
    {
      "midi": 74,
      "time": 44,
      "duration": 4,
      "velocity": 0.71,
      "hand": "right"
    },
    {
      "midi": 56,
      "time": 45,
      "duration": 2,
      "velocity": 0.32,
      "hand": "left"
    },
    {
      "midi": 60,
      "time": 45,
      "duration": 2,
      "velocity": 0.32,
      "hand": "right"
    },
    {
      "midi": 65,
      "time": 45,
      "duration": 2,
      "velocity": 0.93,
      "hand": "right"
    },
    {
      "midi": 72,
      "time": 45,
      "duration": 2,
      "velocity": 0.93,
      "hand": "right"
    },
    {
      "midi": 55,
      "time": 47,
      "duration": 1,
      "velocity": 0.32,
      "hand": "left"
    },
    {
      "midi": 59,
      "time": 47,
      "duration": 1,
      "velocity": 0.32,
      "hand": "left"
    },
    {
      "midi": 67,
      "time": 47,
      "duration": 1,
      "velocity": 0.93,
      "hand": "right"
    },
    {
      "midi": 71,
      "time": 47,
      "duration": 1,
      "velocity": 0.93,
      "hand": "right"
    },
    {
      "midi": 48,
      "time": 48,
      "duration": 1,
      "velocity": 0.32,
      "hand": "left"
    },
    {
      "midi": 55,
      "time": 48,
      "duration": 1,
      "velocity": 0.32,
      "hand": "left"
    },
    {
      "midi": 60,
      "time": 48,
      "duration": 1,
      "velocity": 0.93,
      "hand": "right"
    },
    {
      "midi": 63,
      "time": 48,
      "duration": 1,
      "velocity": 0.93,
      "hand": "right"
    },
    {
      "midi": 67,
      "time": 48,
      "duration": 1,
      "velocity": 0.93,
      "hand": "right"
    },
    {
      "midi": 72,
      "time": 48,
      "duration": 1,
      "velocity": 0.71,
      "hand": "right"
    },
    {
      "midi": 60,
      "time": 49,
      "duration": 0.5,
      "velocity": 0.93,
      "hand": "right"
    },
    {
      "midi": 72,
      "time": 49,
      "duration": 0.5,
      "velocity": 0.71,
      "hand": "right"
    },
    {
      "midi": 62,
      "time": 49.5,
      "duration": 0.5,
      "velocity": 0.93,
      "hand": "right"
    },
    {
      "midi": 74,
      "time": 49.5,
      "duration": 0.5,
      "velocity": 0.71,
      "hand": "right"
    },
    {
      "midi": 65,
      "time": 50,
      "duration": 0.5,
      "velocity": 0.93,
      "hand": "right"
    },
    {
      "midi": 77,
      "time": 50,
      "duration": 0.5,
      "velocity": 0.71,
      "hand": "right"
    },
    {
      "midi": 63,
      "time": 50.5,
      "duration": 0.5,
      "velocity": 0.93,
      "hand": "right"
    },
    {
      "midi": 75,
      "time": 50.5,
      "duration": 0.5,
      "velocity": 0.71,
      "hand": "right"
    },
    {
      "midi": 62,
      "time": 51,
      "duration": 0.5,
      "velocity": 0.93,
      "hand": "right"
    },
    {
      "midi": 74,
      "time": 51,
      "duration": 0.5,
      "velocity": 0.71,
      "hand": "right"
    },
    {
      "midi": 60,
      "time": 51.5,
      "duration": 0.5,
      "velocity": 0.93,
      "hand": "right"
    },
    {
      "midi": 72,
      "time": 51.5,
      "duration": 0.5,
      "velocity": 0.71,
      "hand": "right"
    },
    {
      "midi": 63,
      "time": 52,
      "duration": 3,
      "velocity": 0.93,
      "hand": "right"
    },
    {
      "midi": 75,
      "time": 52,
      "duration": 3,
      "velocity": 0.71,
      "hand": "right"
    },
    {
      "midi": 43,
      "time": 54,
      "duration": 1,
      "velocity": 0.32,
      "hand": "left"
    },
    {
      "midi": 51,
      "time": 54,
      "duration": 1,
      "velocity": 0.32,
      "hand": "left"
    },
    {
      "midi": 58,
      "time": 54,
      "duration": 1,
      "velocity": 0.32,
      "hand": "left"
    },
    {
      "midi": 63,
      "time": 54,
      "duration": 1,
      "velocity": 0.93,
      "hand": "right"
    },
    {
      "midi": 70,
      "time": 54,
      "duration": 1,
      "velocity": 0.93,
      "hand": "right"
    },
    {
      "midi": 63,
      "time": 55,
      "duration": 1,
      "velocity": 0.93,
      "hand": "right"
    },
    {
      "midi": 75,
      "time": 55,
      "duration": 1,
      "velocity": 0.71,
      "hand": "right"
    },
    {
      "midi": 46,
      "time": 56,
      "duration": 0.5,
      "velocity": 0.32,
      "hand": "left"
    },
    {
      "midi": 53,
      "time": 56,
      "duration": 0.5,
      "velocity": 0.32,
      "hand": "left"
    },
    {
      "midi": 58,
      "time": 56,
      "duration": 0.5,
      "velocity": 0.32,
      "hand": "left"
    },
    {
      "midi": 62,
      "time": 56,
      "duration": 0.5,
      "velocity": 0.93,
      "hand": "right"
    },
    {
      "midi": 65,
      "time": 56,
      "duration": 0.5,
      "velocity": 0.93,
      "hand": "right"
    },
    {
      "midi": 70,
      "time": 56,
      "duration": 0.5,
      "velocity": 0.93,
      "hand": "right"
    },
    {
      "midi": 74,
      "time": 56,
      "duration": 1,
      "velocity": 0.71,
      "hand": "right"
    },
    {
      "midi": 48,
      "time": 57,
      "duration": 0.5,
      "velocity": 0.32,
      "hand": "left"
    },
    {
      "midi": 51,
      "time": 57,
      "duration": 0.5,
      "velocity": 0.32,
      "hand": "left"
    },
    {
      "midi": 55,
      "time": 57,
      "duration": 0.5,
      "velocity": 0.32,
      "hand": "left"
    },
    {
      "midi": 60,
      "time": 57,
      "duration": 0.5,
      "velocity": 0.32,
      "hand": "right"
    },
    {
      "midi": 63,
      "time": 57,
      "duration": 0.5,
      "velocity": 0.93,
      "hand": "right"
    },
    {
      "midi": 67,
      "time": 57,
      "duration": 0.5,
      "velocity": 0.93,
      "hand": "right"
    },
    {
      "midi": 72,
      "time": 57,
      "duration": 1,
      "velocity": 0.71,
      "hand": "right"
    },
    {
      "midi": 55,
      "time": 58,
      "duration": 0.5,
      "velocity": 0.32,
      "hand": "left"
    },
    {
      "midi": 59,
      "time": 58,
      "duration": 0.5,
      "velocity": 0.32,
      "hand": "left"
    },
    {
      "midi": 62,
      "time": 58,
      "duration": 0.5,
      "velocity": 0.93,
      "hand": "right"
    },
    {
      "midi": 67,
      "time": 58,
      "duration": 1,
      "velocity": 0.71,
      "hand": "right"
    },
    {
      "midi": 48,
      "time": 59,
      "duration": 0.5,
      "velocity": 0.32,
      "hand": "left"
    },
    {
      "midi": 55,
      "time": 59,
      "duration": 0.5,
      "velocity": 0.32,
      "hand": "left"
    },
    {
      "midi": 60,
      "time": 59,
      "duration": 0.5,
      "velocity": 0.32,
      "hand": "right"
    },
    {
      "midi": 63,
      "time": 59,
      "duration": 0.5,
      "velocity": 0.93,
      "hand": "right"
    },
    {
      "midi": 67,
      "time": 59,
      "duration": 0.5,
      "velocity": 0.93,
      "hand": "right"
    },
    {
      "midi": 72,
      "time": 59,
      "duration": 0.75,
      "velocity": 0.71,
      "hand": "right"
    },
    {
      "midi": 74,
      "time": 59.75,
      "duration": 0.25,
      "velocity": 0.71,
      "hand": "right"
    },
    {
      "midi": 55,
      "time": 60,
      "duration": 3,
      "velocity": 0.32,
      "hand": "left"
    },
    {
      "midi": 59,
      "time": 60,
      "duration": 3,
      "velocity": 0.32,
      "hand": "left"
    },
    {
      "midi": 62,
      "time": 60,
      "duration": 3,
      "velocity": 0.93,
      "hand": "right"
    },
    {
      "midi": 67,
      "time": 60,
      "duration": 3,
      "velocity": 0.71,
      "hand": "right"
    },
    {
      "midi": 72,
      "time": 60,
      "duration": 0.25,
      "velocity": 0.71,
      "hand": "right"
    },
    {
      "midi": 53,
      "time": 63,
      "duration": 2,
      "velocity": 0.32,
      "hand": "left"
    },
    {
      "midi": 60,
      "time": 63,
      "duration": 2,
      "velocity": 0.32,
      "hand": "right"
    },
    {
      "midi": 65,
      "time": 63,
      "duration": 2,
      "velocity": 0.93,
      "hand": "right"
    },
    {
      "midi": 68,
      "time": 63,
      "duration": 2.5,
      "velocity": 0.71,
      "hand": "right"
    },
    {
      "midi": 71,
      "time": 65.5,
      "duration": 0.5,
      "velocity": 0.71,
      "hand": "right"
    },
    {
      "midi": 72,
      "time": 66,
      "duration": 0.5,
      "velocity": 0.71,
      "hand": "right"
    },
    {
      "midi": 74,
      "time": 66.5,
      "duration": 0.5,
      "velocity": 0.71,
      "hand": "right"
    },
    {
      "midi": 75,
      "time": 67,
      "duration": 0.5,
      "velocity": 0.71,
      "hand": "right"
    },
    {
      "midi": 76,
      "time": 67.5,
      "duration": 0.5,
      "velocity": 0.71,
      "hand": "right"
    },
    {
      "midi": 77,
      "time": 68,
      "duration": 0.5,
      "velocity": 0.71,
      "hand": "right"
    },
    {
      "midi": 79,
      "time": 68.5,
      "duration": 0.5,
      "velocity": 0.71,
      "hand": "right"
    },
    {
      "midi": 82,
      "time": 69,
      "duration": 1.5,
      "velocity": 0.71,
      "hand": "right"
    },
    {
      "midi": 65,
      "time": 70,
      "duration": 12.5,
      "velocity": 0.93,
      "hand": "right"
    },
    {
      "midi": 68,
      "time": 70,
      "duration": 12.5,
      "velocity": 0.93,
      "hand": "right"
    },
    {
      "midi": 74,
      "time": 70,
      "duration": 12.5,
      "velocity": 0.93,
      "hand": "right"
    },
    {
      "midi": 80,
      "time": 70.5,
      "duration": 0.5,
      "velocity": 0.61,
      "hand": "right"
    },
    {
      "midi": 79,
      "time": 71,
      "duration": 0.5,
      "velocity": 0.61,
      "hand": "right"
    },
    {
      "midi": 77,
      "time": 71.5,
      "duration": 0.5,
      "velocity": 0.61,
      "hand": "right"
    },
    {
      "midi": 82,
      "time": 72,
      "duration": 0.5,
      "velocity": 0.61,
      "hand": "right"
    },
    {
      "midi": 80,
      "time": 72.5,
      "duration": 0.5,
      "velocity": 0.57,
      "hand": "right"
    },
    {
      "midi": 79,
      "time": 73,
      "duration": 0.5,
      "velocity": 0.54,
      "hand": "right"
    },
    {
      "midi": 77,
      "time": 73.5,
      "duration": 0.5,
      "velocity": 0.51,
      "hand": "right"
    },
    {
      "midi": 82,
      "time": 74,
      "duration": 0.5,
      "velocity": 0.48,
      "hand": "right"
    },
    {
      "midi": 80,
      "time": 74.5,
      "duration": 0.5,
      "velocity": 0.45,
      "hand": "right"
    },
    {
      "midi": 79,
      "time": 75,
      "duration": 0.5,
      "velocity": 0.41,
      "hand": "right"
    },
    {
      "midi": 77,
      "time": 75.5,
      "duration": 1,
      "velocity": 0.38,
      "hand": "right"
    },
    {
      "midi": 84,
      "time": 76.5,
      "duration": 0.5,
      "velocity": 0.54,
      "hand": "right"
    },
    {
      "midi": 83,
      "time": 77,
      "duration": 0.5,
      "velocity": 0.54,
      "hand": "right"
    },
    {
      "midi": 84,
      "time": 77.5,
      "duration": 0.5,
      "velocity": 0.54,
      "hand": "right"
    },
    {
      "midi": 82,
      "time": 78,
      "duration": 0.5,
      "velocity": 0.54,
      "hand": "right"
    },
    {
      "midi": 80,
      "time": 78.5,
      "duration": 0.5,
      "velocity": 0.54,
      "hand": "right"
    },
    {
      "midi": 79,
      "time": 79,
      "duration": 0.5,
      "velocity": 0.54,
      "hand": "right"
    },
    {
      "midi": 77,
      "time": 79.5,
      "duration": 1,
      "velocity": 0.54,
      "hand": "right"
    },
    {
      "midi": 84,
      "time": 80.5,
      "duration": 0.5,
      "velocity": 0.54,
      "hand": "right"
    },
    {
      "midi": 83,
      "time": 81,
      "duration": 0.5,
      "velocity": 0.54,
      "hand": "right"
    },
    {
      "midi": 84,
      "time": 81.5,
      "duration": 0.5,
      "velocity": 0.54,
      "hand": "right"
    },
    {
      "midi": 82,
      "time": 82,
      "duration": 0.5,
      "velocity": 0.54,
      "hand": "right"
    },
    {
      "midi": 80,
      "time": 82.5,
      "duration": 0.5,
      "velocity": 0.54,
      "hand": "right"
    },
    {
      "midi": 79,
      "time": 83,
      "duration": 0.5,
      "velocity": 0.54,
      "hand": "right"
    },
    {
      "midi": 77,
      "time": 83.5,
      "duration": 0.75,
      "velocity": 0.54,
      "hand": "right"
    },
    {
      "midi": 84,
      "time": 84.25,
      "duration": 0.25,
      "velocity": 0.53,
      "hand": "right"
    },
    {
      "midi": 83,
      "time": 84.5,
      "duration": 0.25,
      "velocity": 0.52,
      "hand": "right"
    },
    {
      "midi": 84,
      "time": 84.75,
      "duration": 0.25,
      "velocity": 0.5,
      "hand": "right"
    },
    {
      "midi": 82,
      "time": 85,
      "duration": 0.25,
      "velocity": 0.49,
      "hand": "right"
    },
    {
      "midi": 80,
      "time": 85.25,
      "duration": 0.25,
      "velocity": 0.47,
      "hand": "right"
    },
    {
      "midi": 79,
      "time": 85.5,
      "duration": 0.25,
      "velocity": 0.46,
      "hand": "right"
    },
    {
      "midi": 77,
      "time": 85.75,
      "duration": 0.5,
      "velocity": 0.44,
      "hand": "right"
    },
    {
      "midi": 84,
      "time": 86.25,
      "duration": 0.25,
      "velocity": 0.41,
      "hand": "right"
    },
    {
      "midi": 83,
      "time": 86.5,
      "duration": 0.25,
      "velocity": 0.39,
      "hand": "right"
    },
    {
      "midi": 84,
      "time": 86.75,
      "duration": 0.25,
      "velocity": 0.38,
      "hand": "right"
    },
    {
      "midi": 82,
      "time": 87,
      "duration": 0.25,
      "velocity": 0.36,
      "hand": "right"
    },
    {
      "midi": 80,
      "time": 87.25,
      "duration": 0.25,
      "velocity": 0.35,
      "hand": "right"
    },
    {
      "midi": 79,
      "time": 87.5,
      "duration": 0.25,
      "velocity": 0.34,
      "hand": "right"
    },
    {
      "midi": 77,
      "time": 87.75,
      "duration": 0.5,
      "velocity": 0.32,
      "hand": "right"
    },
    {
      "midi": 84,
      "time": 88.25,
      "duration": 0.25,
      "velocity": 0.49,
      "hand": "right"
    },
    {
      "midi": 83,
      "time": 88.5,
      "duration": 0.25,
      "velocity": 0.49,
      "hand": "right"
    },
    {
      "midi": 84,
      "time": 88.75,
      "duration": 0.25,
      "velocity": 0.49,
      "hand": "right"
    },
    {
      "midi": 82,
      "time": 89,
      "duration": 0.25,
      "velocity": 0.49,
      "hand": "right"
    },
    {
      "midi": 80,
      "time": 89.25,
      "duration": 0.25,
      "velocity": 0.49,
      "hand": "right"
    },
    {
      "midi": 79,
      "time": 89.5,
      "duration": 0.25,
      "velocity": 0.49,
      "hand": "right"
    },
    {
      "midi": 77,
      "time": 89.75,
      "duration": 0.25,
      "velocity": 0.49,
      "hand": "right"
    },
    {
      "midi": 75,
      "time": 90,
      "duration": 0.25,
      "velocity": 0.49,
      "hand": "right"
    },
    {
      "midi": 84,
      "time": 90.25,
      "duration": 0.25,
      "velocity": 0.49,
      "hand": "right"
    },
    {
      "midi": 83,
      "time": 90.5,
      "duration": 0.25,
      "velocity": 0.49,
      "hand": "right"
    },
    {
      "midi": 84,
      "time": 90.75,
      "duration": 0.25,
      "velocity": 0.49,
      "hand": "right"
    },
    {
      "midi": 80,
      "time": 91,
      "duration": 0.25,
      "velocity": 0.49,
      "hand": "right"
    },
    {
      "midi": 79,
      "time": 91.25,
      "duration": 0.25,
      "velocity": 0.49,
      "hand": "right"
    },
    {
      "midi": 77,
      "time": 91.5,
      "duration": 0.25,
      "velocity": 0.49,
      "hand": "right"
    },
    {
      "midi": 75,
      "time": 91.75,
      "duration": 0.25,
      "velocity": 0.49,
      "hand": "right"
    },
    {
      "midi": 74,
      "time": 92,
      "duration": 0.25,
      "velocity": 0.49,
      "hand": "right"
    },
    {
      "midi": 84,
      "time": 92.25,
      "duration": 0.25,
      "velocity": 0.49,
      "hand": "right"
    },
    {
      "midi": 83,
      "time": 92.5,
      "duration": 0.25,
      "velocity": 0.49,
      "hand": "right"
    },
    {
      "midi": 84,
      "time": 92.75,
      "duration": 0.25,
      "velocity": 0.49,
      "hand": "right"
    },
    {
      "midi": 79,
      "time": 93,
      "duration": 0.25,
      "velocity": 0.49,
      "hand": "right"
    },
    {
      "midi": 77,
      "time": 93.25,
      "duration": 0.25,
      "velocity": 0.49,
      "hand": "right"
    },
    {
      "midi": 75,
      "time": 93.5,
      "duration": 0.25,
      "velocity": 0.49,
      "hand": "right"
    },
    {
      "midi": 74,
      "time": 93.75,
      "duration": 0.25,
      "velocity": 0.49,
      "hand": "right"
    },
    {
      "midi": 48,
      "time": 94,
      "duration": 1,
      "velocity": 0.32,
      "hand": "left"
    },
    {
      "midi": 51,
      "time": 94,
      "duration": 1,
      "velocity": 0.32,
      "hand": "left"
    },
    {
      "midi": 55,
      "time": 94,
      "duration": 1,
      "velocity": 0.32,
      "hand": "left"
    },
    {
      "midi": 60,
      "time": 94,
      "duration": 2,
      "velocity": 0.93,
      "hand": "right"
    },
    {
      "midi": 72,
      "time": 94,
      "duration": 0.25,
      "velocity": 0.49,
      "hand": "right"
    },
    {
      "midi": 84,
      "time": 94.25,
      "duration": 0.25,
      "velocity": 0.49,
      "hand": "right"
    },
    {
      "midi": 83,
      "time": 94.5,
      "duration": 0.25,
      "velocity": 0.49,
      "hand": "right"
    },
    {
      "midi": 84,
      "time": 94.75,
      "duration": 0.25,
      "velocity": 0.49,
      "hand": "right"
    },
    {
      "midi": 79,
      "time": 95,
      "duration": 0.25,
      "velocity": 0.49,
      "hand": "right"
    },
    {
      "midi": 77,
      "time": 95.25,
      "duration": 0.25,
      "velocity": 0.49,
      "hand": "right"
    },
    {
      "midi": 75,
      "time": 95.5,
      "duration": 0.25,
      "velocity": 0.49,
      "hand": "right"
    },
    {
      "midi": 74,
      "time": 95.75,
      "duration": 0.25,
      "velocity": 0.49,
      "hand": "right"
    },
    {
      "midi": 63,
      "time": 96,
      "duration": 1,
      "velocity": 0.93,
      "hand": "right"
    },
    {
      "midi": 72,
      "time": 96,
      "duration": 0.25,
      "velocity": 0.49,
      "hand": "right"
    },
    {
      "midi": 84,
      "time": 96.25,
      "duration": 0.25,
      "velocity": 0.49,
      "hand": "right"
    },
    {
      "midi": 83,
      "time": 96.5,
      "duration": 0.25,
      "velocity": 0.49,
      "hand": "right"
    },
    {
      "midi": 84,
      "time": 96.75,
      "duration": 0.25,
      "velocity": 0.49,
      "hand": "right"
    },
    {
      "midi": 51,
      "time": 97,
      "duration": 1,
      "velocity": 0.32,
      "hand": "left"
    },
    {
      "midi": 55,
      "time": 97,
      "duration": 1,
      "velocity": 0.32,
      "hand": "left"
    },
    {
      "midi": 60,
      "time": 97,
      "duration": 1,
      "velocity": 0.93,
      "hand": "right"
    },
    {
      "midi": 79,
      "time": 97,
      "duration": 0.25,
      "velocity": 0.49,
      "hand": "right"
    },
    {
      "midi": 77,
      "time": 97.25,
      "duration": 0.25,
      "velocity": 0.49,
      "hand": "right"
    },
    {
      "midi": 75,
      "time": 97.5,
      "duration": 0.25,
      "velocity": 0.49,
      "hand": "right"
    },
    {
      "midi": 74,
      "time": 97.75,
      "duration": 0.25,
      "velocity": 0.49,
      "hand": "right"
    },
    {
      "midi": 56,
      "time": 98,
      "duration": 4,
      "velocity": 0.32,
      "hand": "left"
    },
    {
      "midi": 60,
      "time": 98,
      "duration": 4,
      "velocity": 0.32,
      "hand": "right"
    },
    {
      "midi": 65,
      "time": 98,
      "duration": 4,
      "velocity": 0.93,
      "hand": "right"
    },
    {
      "midi": 72,
      "time": 98,
      "duration": 0.25,
      "velocity": 0.49,
      "hand": "right"
    },
    {
      "midi": 84,
      "time": 98.25,
      "duration": 0.25,
      "velocity": 0.5,
      "hand": "right"
    },
    {
      "midi": 83,
      "time": 98.5,
      "duration": 0.25,
      "velocity": 0.52,
      "hand": "right"
    },
    {
      "midi": 84,
      "time": 98.75,
      "duration": 0.25,
      "velocity": 0.53,
      "hand": "right"
    },
    {
      "midi": 77,
      "time": 99,
      "duration": 0.25,
      "velocity": 0.54,
      "hand": "right"
    },
    {
      "midi": 75,
      "time": 99.25,
      "duration": 0.25,
      "velocity": 0.56,
      "hand": "right"
    },
    {
      "midi": 74,
      "time": 99.5,
      "duration": 0.25,
      "velocity": 0.57,
      "hand": "right"
    },
    {
      "midi": 75,
      "time": 99.75,
      "duration": 0.25,
      "velocity": 0.59,
      "hand": "right"
    },
    {
      "midi": 72,
      "time": 100,
      "duration": 0.25,
      "velocity": 0.61,
      "hand": "right"
    },
    {
      "midi": 84,
      "time": 100.25,
      "duration": 0.25,
      "velocity": 0.62,
      "hand": "right"
    },
    {
      "midi": 83,
      "time": 100.5,
      "duration": 0.25,
      "velocity": 0.64,
      "hand": "right"
    },
    {
      "midi": 84,
      "time": 100.75,
      "duration": 0.25,
      "velocity": 0.65,
      "hand": "right"
    },
    {
      "midi": 77,
      "time": 101,
      "duration": 0.25,
      "velocity": 0.67,
      "hand": "right"
    },
    {
      "midi": 75,
      "time": 101.25,
      "duration": 0.25,
      "velocity": 0.68,
      "hand": "right"
    },
    {
      "midi": 74,
      "time": 101.5,
      "duration": 0.25,
      "velocity": 0.69,
      "hand": "right"
    },
    {
      "midi": 75,
      "time": 101.75,
      "duration": 0.25,
      "velocity": 0.71,
      "hand": "right"
    },
    {
      "midi": 51,
      "time": 102,
      "duration": 1,
      "velocity": 0.32,
      "hand": "left"
    },
    {
      "midi": 60,
      "time": 102,
      "duration": 1,
      "velocity": 0.32,
      "hand": "right"
    },
    {
      "midi": 67,
      "time": 102,
      "duration": 1.75,
      "velocity": 0.93,
      "hand": "right"
    },
    {
      "midi": 72,
      "time": 102,
      "duration": 0.25,
      "velocity": 0.71,
      "hand": "right"
    },
    {
      "midi": 84,
      "time": 102.25,
      "duration": 0.25,
      "velocity": 0.71,
      "hand": "right"
    },
    {
      "midi": 83,
      "time": 102.5,
      "duration": 0.25,
      "velocity": 0.71,
      "hand": "right"
    },
    {
      "midi": 84,
      "time": 102.75,
      "duration": 0.25,
      "velocity": 0.71,
      "hand": "right"
    },
    {
      "midi": 79,
      "time": 103,
      "duration": 0.25,
      "velocity": 0.71,
      "hand": "right"
    },
    {
      "midi": 77,
      "time": 103.25,
      "duration": 0.25,
      "velocity": 0.71,
      "hand": "right"
    },
    {
      "midi": 75,
      "time": 103.5,
      "duration": 0.25,
      "velocity": 0.71,
      "hand": "right"
    },
    {
      "midi": 63,
      "time": 103.75,
      "duration": 0.25,
      "velocity": 0.93,
      "hand": "right"
    },
    {
      "midi": 65,
      "time": 103.75,
      "duration": 0.25,
      "velocity": 0.93,
      "hand": "right"
    },
    {
      "midi": 74,
      "time": 103.75,
      "duration": 0.25,
      "velocity": 0.71,
      "hand": "right"
    },
    {
      "midi": 60,
      "time": 104,
      "duration": 1,
      "velocity": 0.93,
      "hand": "right"
    },
    {
      "midi": 62,
      "time": 104,
      "duration": 0.25,
      "velocity": 0.93,
      "hand": "right"
    },
    {
      "midi": 75,
      "time": 104,
      "duration": 0.25,
      "velocity": 0.71,
      "hand": "right"
    },
    {
      "midi": 87,
      "time": 104.25,
      "duration": 0.25,
      "velocity": 0.71,
      "hand": "right"
    },
    {
      "midi": 86,
      "time": 104.5,
      "duration": 0.25,
      "velocity": 0.71,
      "hand": "right"
    },
    {
      "midi": 87,
      "time": 104.75,
      "duration": 0.25,
      "velocity": 0.71,
      "hand": "right"
    },
    {
      "midi": 48,
      "time": 105,
      "duration": 1,
      "velocity": 0.32,
      "hand": "left"
    },
    {
      "midi": 51,
      "time": 105,
      "duration": 1,
      "velocity": 0.32,
      "hand": "left"
    },
    {
      "midi": 55,
      "time": 105,
      "duration": 1,
      "velocity": 0.32,
      "hand": "left"
    },
    {
      "midi": 60,
      "time": 105,
      "duration": 1,
      "velocity": 0.93,
      "hand": "right"
    },
    {
      "midi": 86,
      "time": 105,
      "duration": 0.25,
      "velocity": 0.71,
      "hand": "right"
    },
    {
      "midi": 84,
      "time": 105.25,
      "duration": 0.25,
      "velocity": 0.71,
      "hand": "right"
    },
    {
      "midi": 82,
      "time": 105.5,
      "duration": 0.25,
      "velocity": 0.71,
      "hand": "right"
    },
    {
      "midi": 81,
      "time": 105.75,
      "duration": 0.25,
      "velocity": 0.71,
      "hand": "right"
    },
    {
      "midi": 43,
      "time": 106,
      "duration": 3.5,
      "velocity": 0.32,
      "hand": "left"
    },
    {
      "midi": 50,
      "time": 106,
      "duration": 1,
      "velocity": 0.93,
      "hand": "left"
    },
    {
      "midi": 58,
      "time": 106,
      "duration": 1,
      "velocity": 0.93,
      "hand": "left"
    },
    {
      "midi": 79,
      "time": 106,
      "duration": 0.25,
      "velocity": 0.71,
      "hand": "right"
    },
    {
      "midi": 91,
      "time": 106.25,
      "duration": 0.25,
      "velocity": 0.71,
      "hand": "right"
    },
    {
      "midi": 90,
      "time": 106.5,
      "duration": 0.25,
      "velocity": 0.71,
      "hand": "right"
    },
    {
      "midi": 91,
      "time": 106.75,
      "duration": 0.25,
      "velocity": 0.71,
      "hand": "right"
    },
    {
      "midi": 46,
      "time": 107,
      "duration": 2.5,
      "velocity": 0.93,
      "hand": "left"
    },
    {
      "midi": 55,
      "time": 107,
      "duration": 2.5,
      "velocity": 0.93,
      "hand": "left"
    },
    {
      "midi": 86,
      "time": 107,
      "duration": 0.25,
      "velocity": 0.71,
      "hand": "right"
    },
    {
      "midi": 84,
      "time": 107.25,
      "duration": 0.25,
      "velocity": 0.71,
      "hand": "right"
    },
    {
      "midi": 82,
      "time": 107.5,
      "duration": 0.25,
      "velocity": 0.71,
      "hand": "right"
    },
    {
      "midi": 81,
      "time": 107.75,
      "duration": 0.25,
      "velocity": 0.71,
      "hand": "right"
    },
    {
      "midi": 79,
      "time": 108,
      "duration": 0.25,
      "velocity": 0.71,
      "hand": "right"
    },
    {
      "midi": 91,
      "time": 108.25,
      "duration": 0.25,
      "velocity": 0.71,
      "hand": "right"
    },
    {
      "midi": 90,
      "time": 108.5,
      "duration": 0.25,
      "velocity": 0.71,
      "hand": "right"
    },
    {
      "midi": 91,
      "time": 108.75,
      "duration": 0.25,
      "velocity": 0.71,
      "hand": "right"
    },
    {
      "midi": 86,
      "time": 109,
      "duration": 0.25,
      "velocity": 0.71,
      "hand": "right"
    },
    {
      "midi": 84,
      "time": 109.25,
      "duration": 0.25,
      "velocity": 0.71,
      "hand": "right"
    },
    {
      "midi": 82,
      "time": 109.5,
      "duration": 0.25,
      "velocity": 0.71,
      "hand": "right"
    },
    {
      "midi": 81,
      "time": 109.75,
      "duration": 0.25,
      "velocity": 0.71,
      "hand": "right"
    },
    {
      "midi": 51,
      "time": 110,
      "duration": 1,
      "velocity": 0.32,
      "hand": "left"
    },
    {
      "midi": 55,
      "time": 110,
      "duration": 1,
      "velocity": 0.32,
      "hand": "left"
    },
    {
      "midi": 60,
      "time": 110,
      "duration": 1,
      "velocity": 0.93,
      "hand": "right"
    },
    {
      "midi": 79,
      "time": 110,
      "duration": 0.25,
      "velocity": 0.71,
      "hand": "right"
    },
    {
      "midi": 91,
      "time": 110.25,
      "duration": 0.25,
      "velocity": 0.71,
      "hand": "right"
    },
    {
      "midi": 90,
      "time": 110.5,
      "duration": 0.25,
      "velocity": 0.71,
      "hand": "right"
    },
    {
      "midi": 91,
      "time": 110.75,
      "duration": 0.25,
      "velocity": 0.71,
      "hand": "right"
    },
    {
      "midi": 60,
      "time": 111,
      "duration": 1,
      "velocity": 0.93,
      "hand": "right"
    },
    {
      "midi": 87,
      "time": 111,
      "duration": 0.25,
      "velocity": 0.71,
      "hand": "right"
    },
    {
      "midi": 86,
      "time": 111.25,
      "duration": 0.25,
      "velocity": 0.71,
      "hand": "right"
    },
    {
      "midi": 84,
      "time": 111.5,
      "duration": 0.25,
      "velocity": 0.71,
      "hand": "right"
    },
    {
      "midi": 82,
      "time": 111.75,
      "duration": 0.25,
      "velocity": 0.71,
      "hand": "right"
    },
    {
      "midi": 48,
      "time": 112,
      "duration": 1,
      "velocity": 0.32,
      "hand": "left"
    },
    {
      "midi": 55,
      "time": 112,
      "duration": 1,
      "velocity": 0.32,
      "hand": "left"
    },
    {
      "midi": 63,
      "time": 112,
      "duration": 1.5,
      "velocity": 0.93,
      "hand": "right"
    },
    {
      "midi": 81,
      "time": 112,
      "duration": 0.25,
      "velocity": 0.71,
      "hand": "right"
    },
    {
      "midi": 91,
      "time": 112.25,
      "duration": 0.25,
      "velocity": 0.71,
      "hand": "right"
    },
    {
      "midi": 90,
      "time": 112.5,
      "duration": 0.25,
      "velocity": 0.71,
      "hand": "right"
    },
    {
      "midi": 91,
      "time": 112.75,
      "duration": 0.25,
      "velocity": 0.71,
      "hand": "right"
    },
    {
      "midi": 86,
      "time": 113,
      "duration": 0.25,
      "velocity": 0.71,
      "hand": "right"
    },
    {
      "midi": 84,
      "time": 113.25,
      "duration": 0.25,
      "velocity": 0.71,
      "hand": "right"
    },
    {
      "midi": 62,
      "time": 113.5,
      "duration": 0.25,
      "velocity": 0.93,
      "hand": "right"
    },
    {
      "midi": 82,
      "time": 113.5,
      "duration": 0.25,
      "velocity": 0.71,
      "hand": "right"
    },
    {
      "midi": 60,
      "time": 113.75,
      "duration": 0.25,
      "velocity": 0.93,
      "hand": "right"
    },
    {
      "midi": 81,
      "time": 113.75,
      "duration": 0.25,
      "velocity": 0.71,
      "hand": "right"
    },
    {
      "midi": 55,
      "time": 114,
      "duration": 4,
      "velocity": 0.32,
      "hand": "left"
    },
    {
      "midi": 58,
      "time": 114,
      "duration": 4,
      "velocity": 0.93,
      "hand": "left"
    },
    {
      "midi": 79,
      "time": 114,
      "duration": 0.25,
      "velocity": 0.71,
      "hand": "right"
    },
    {
      "midi": 86,
      "time": 114.25,
      "duration": 0.25,
      "velocity": 0.71,
      "hand": "right"
    },
    {
      "midi": 85,
      "time": 114.5,
      "duration": 0.25,
      "velocity": 0.71,
      "hand": "right"
    },
    {
      "midi": 86,
      "time": 114.75,
      "duration": 0.25,
      "velocity": 0.71,
      "hand": "right"
    },
    {
      "midi": 82,
      "time": 115,
      "duration": 0.25,
      "velocity": 0.71,
      "hand": "right"
    },
    {
      "midi": 79,
      "time": 115.25,
      "duration": 0.25,
      "velocity": 0.71,
      "hand": "right"
    },
    {
      "midi": 77,
      "time": 115.5,
      "duration": 0.25,
      "velocity": 0.71,
      "hand": "right"
    },
    {
      "midi": 75,
      "time": 115.75,
      "duration": 0.25,
      "velocity": 0.71,
      "hand": "right"
    },
    {
      "midi": 74,
      "time": 116,
      "duration": 0.25,
      "velocity": 0.71,
      "hand": "right"
    },
    {
      "midi": 82,
      "time": 116.25,
      "duration": 0.25,
      "velocity": 0.71,
      "hand": "right"
    },
    {
      "midi": 81,
      "time": 116.5,
      "duration": 0.25,
      "velocity": 0.71,
      "hand": "right"
    },
    {
      "midi": 82,
      "time": 116.75,
      "duration": 0.25,
      "velocity": 0.71,
      "hand": "right"
    },
    {
      "midi": 79,
      "time": 117,
      "duration": 0.25,
      "velocity": 0.71,
      "hand": "right"
    },
    {
      "midi": 77,
      "time": 117.25,
      "duration": 0.25,
      "velocity": 0.71,
      "hand": "right"
    },
    {
      "midi": 75,
      "time": 117.5,
      "duration": 0.25,
      "velocity": 0.71,
      "hand": "right"
    },
    {
      "midi": 74,
      "time": 117.75,
      "duration": 0.25,
      "velocity": 0.71,
      "hand": "right"
    },
    {
      "midi": 51,
      "time": 118,
      "duration": 2,
      "velocity": 0.32,
      "hand": "left"
    },
    {
      "midi": 55,
      "time": 118,
      "duration": 2,
      "velocity": 0.93,
      "hand": "left"
    },
    {
      "midi": 72,
      "time": 118,
      "duration": 0.25,
      "velocity": 0.71,
      "hand": "right"
    },
    {
      "midi": 79,
      "time": 118.25,
      "duration": 0.25,
      "velocity": 0.71,
      "hand": "right"
    },
    {
      "midi": 60,
      "time": 118.5,
      "duration": 0.5,
      "velocity": 0.93,
      "hand": "right"
    },
    {
      "midi": 78,
      "time": 118.5,
      "duration": 0.25,
      "velocity": 0.71,
      "hand": "right"
    },
    {
      "midi": 79,
      "time": 118.75,
      "duration": 0.25,
      "velocity": 0.71,
      "hand": "right"
    },
    {
      "midi": 59,
      "time": 119,
      "duration": 0.5,
      "velocity": 0.93,
      "hand": "left"
    },
    {
      "midi": 75,
      "time": 119,
      "duration": 0.25,
      "velocity": 0.71,
      "hand": "right"
    },
    {
      "midi": 74,
      "time": 119.25,
      "duration": 0.25,
      "velocity": 0.71,
      "hand": "right"
    },
    {
      "midi": 60,
      "time": 119.5,
      "duration": 0.5,
      "velocity": 0.93,
      "hand": "right"
    },
    {
      "midi": 72,
      "time": 119.5,
      "duration": 0.25,
      "velocity": 0.71,
      "hand": "right"
    },
    {
      "midi": 70,
      "time": 119.75,
      "duration": 0.25,
      "velocity": 0.71,
      "hand": "right"
    },
    {
      "midi": 48,
      "time": 120,
      "duration": 2,
      "velocity": 0.32,
      "hand": "left"
    },
    {
      "midi": 51,
      "time": 120,
      "duration": 2,
      "velocity": 0.32,
      "hand": "left"
    },
    {
      "midi": 55,
      "time": 120,
      "duration": 1,
      "velocity": 0.93,
      "hand": "left"
    },
    {
      "midi": 69,
      "time": 120,
      "duration": 0.25,
      "velocity": 0.71,
      "hand": "right"
    },
    {
      "midi": 75,
      "time": 120.25,
      "duration": 0.25,
      "velocity": 0.71,
      "hand": "right"
    },
    {
      "midi": 74,
      "time": 120.5,
      "duration": 0.25,
      "velocity": 0.71,
      "hand": "right"
    },
    {
      "midi": 75,
      "time": 120.75,
      "duration": 0.25,
      "velocity": 0.71,
      "hand": "right"
    },
    {
      "midi": 57,
      "time": 121,
      "duration": 0.5,
      "velocity": 0.93,
      "hand": "left"
    },
    {
      "midi": 74,
      "time": 121,
      "duration": 0.25,
      "velocity": 0.71,
      "hand": "right"
    },
    {
      "midi": 72,
      "time": 121.25,
      "duration": 0.25,
      "velocity": 0.71,
      "hand": "right"
    },
    {
      "midi": 55,
      "time": 121.5,
      "duration": 0.25,
      "velocity": 0.93,
      "hand": "left"
    },
    {
      "midi": 70,
      "time": 121.5,
      "duration": 0.25,
      "velocity": 0.71,
      "hand": "right"
    },
    {
      "midi": 57,
      "time": 121.75,
      "duration": 0.25,
      "velocity": 0.93,
      "hand": "left"
    },
    {
      "midi": 69,
      "time": 121.75,
      "duration": 0.25,
      "velocity": 0.71,
      "hand": "right"
    },
    {
      "midi": 43,
      "time": 122,
      "duration": 3.5,
      "velocity": 0.32,
      "hand": "left"
    },
    {
      "midi": 50,
      "time": 122,
      "duration": 3.5,
      "velocity": 0.32,
      "hand": "left"
    },
    {
      "midi": 58,
      "time": 122,
      "duration": 3.5,
      "velocity": 0.93,
      "hand": "left"
    },
    {
      "midi": 67,
      "time": 122,
      "duration": 0.25,
      "velocity": 0.71,
      "hand": "right"
    },
    {
      "midi": 74,
      "time": 122.25,
      "duration": 0.25,
      "velocity": 0.71,
      "hand": "right"
    },
    {
      "midi": 73,
      "time": 122.5,
      "duration": 0.25,
      "velocity": 0.71,
      "hand": "right"
    },
    {
      "midi": 74,
      "time": 122.75,
      "duration": 0.25,
      "velocity": 0.71,
      "hand": "right"
    },
    {
      "midi": 70,
      "time": 123,
      "duration": 0.25,
      "velocity": 0.71,
      "hand": "right"
    },
    {
      "midi": 67,
      "time": 123.25,
      "duration": 0.25,
      "velocity": 0.71,
      "hand": "right"
    },
    {
      "midi": 65,
      "time": 123.5,
      "duration": 0.25,
      "velocity": 0.71,
      "hand": "right"
    },
    {
      "midi": 63,
      "time": 123.75,
      "duration": 0.25,
      "velocity": 0.71,
      "hand": "right"
    },
    {
      "midi": 62,
      "time": 124,
      "duration": 0.25,
      "velocity": 0.71,
      "hand": "right"
    },
    {
      "midi": 67,
      "time": 124.25,
      "duration": 0.25,
      "velocity": 0.71,
      "hand": "right"
    },
    {
      "midi": 66,
      "time": 124.5,
      "duration": 0.25,
      "velocity": 0.71,
      "hand": "right"
    },
    {
      "midi": 67,
      "time": 124.75,
      "duration": 0.25,
      "velocity": 0.71,
      "hand": "right"
    },
    {
      "midi": 62,
      "time": 125,
      "duration": 0.25,
      "velocity": 0.71,
      "hand": "right"
    },
    {
      "midi": 60,
      "time": 125.25,
      "duration": 0.25,
      "velocity": 0.71,
      "hand": "right"
    },
    {
      "midi": 58,
      "time": 125.5,
      "duration": 0.25,
      "velocity": 0.71,
      "hand": "left"
    },
    {
      "midi": 57,
      "time": 125.75,
      "duration": 0.25,
      "velocity": 0.71,
      "hand": "left"
    },
    {
      "midi": 55,
      "time": 126,
      "duration": 0.25,
      "velocity": 0.71,
      "hand": "left"
    },
    {
      "midi": 62,
      "time": 126.25,
      "duration": 0.25,
      "velocity": 0.71,
      "hand": "right"
    },
    {
      "midi": 61,
      "time": 126.5,
      "duration": 0.25,
      "velocity": 0.71,
      "hand": "right"
    },
    {
      "midi": 62,
      "time": 126.75,
      "duration": 0.25,
      "velocity": 0.71,
      "hand": "right"
    },
    {
      "midi": 58,
      "time": 127,
      "duration": 0.25,
      "velocity": 0.71,
      "hand": "left"
    },
    {
      "midi": 55,
      "time": 127.25,
      "duration": 0.25,
      "velocity": 0.71,
      "hand": "left"
    },
    {
      "midi": 53,
      "time": 127.5,
      "duration": 0.25,
      "velocity": 0.71,
      "hand": "left"
    },
    {
      "midi": 51,
      "time": 127.75,
      "duration": 0.25,
      "velocity": 0.71,
      "hand": "left"
    },
    {
      "midi": 50,
      "time": 128,
      "duration": 0.25,
      "velocity": 0.71,
      "hand": "left"
    },
    {
      "midi": 55,
      "time": 128.25,
      "duration": 0.25,
      "velocity": 0.71,
      "hand": "left"
    },
    {
      "midi": 50,
      "time": 128.5,
      "duration": 0.25,
      "velocity": 0.71,
      "hand": "left"
    },
    {
      "midi": 48,
      "time": 128.75,
      "duration": 0.25,
      "velocity": 0.71,
      "hand": "left"
    },
    {
      "midi": 46,
      "time": 129,
      "duration": 0.25,
      "velocity": 0.71,
      "hand": "left"
    },
    {
      "midi": 45,
      "time": 129.25,
      "duration": 0.25,
      "velocity": 0.71,
      "hand": "left"
    },
    {
      "midi": 43,
      "time": 129.5,
      "duration": 0.25,
      "velocity": 0.93,
      "hand": "left"
    },
    {
      "midi": 41,
      "time": 129.75,
      "duration": 0.25,
      "velocity": 0.93,
      "hand": "left"
    },
    {
      "midi": 39,
      "time": 130,
      "duration": 0.5,
      "velocity": 0.93,
      "hand": "left"
    },
    {
      "midi": 55,
      "time": 130,
      "duration": 1,
      "velocity": 0.71,
      "hand": "left"
    },
    {
      "midi": 67,
      "time": 130,
      "duration": 0.75,
      "velocity": 0.71,
      "hand": "right"
    },
    {
      "midi": 59,
      "time": 130.25,
      "duration": 0.25,
      "velocity": 0.93,
      "hand": "left"
    },
    {
      "midi": 60,
      "time": 130.5,
      "duration": 0.25,
      "velocity": 0.93,
      "hand": "right"
    },
    {
      "midi": 67,
      "time": 130.75,
      "duration": 0.25,
      "velocity": 0.93,
      "hand": "right"
    },
    {
      "midi": 55,
      "time": 131,
      "duration": 1,
      "velocity": 0.93,
      "hand": "left"
    },
    {
      "midi": 67,
      "time": 131,
      "duration": 1,
      "velocity": 0.93,
      "hand": "right"
    },
    {
      "midi": 71,
      "time": 131.25,
      "duration": 0.25,
      "velocity": 0.93,
      "hand": "right"
    },
    {
      "midi": 72,
      "time": 131.5,
      "duration": 0.25,
      "velocity": 0.93,
      "hand": "right"
    },
    {
      "midi": 75,
      "time": 131.75,
      "duration": 0.25,
      "velocity": 0.93,
      "hand": "right"
    },
    {
      "midi": 79,
      "time": 131.75,
      "duration": 0.25,
      "velocity": 0.93,
      "hand": "right"
    },
    {
      "midi": 55,
      "time": 132,
      "duration": 1.5,
      "velocity": 0.93,
      "hand": "left"
    },
    {
      "midi": 67,
      "time": 132,
      "duration": 1,
      "velocity": 0.71,
      "hand": "right"
    },
    {
      "midi": 59,
      "time": 132.25,
      "duration": 0.25,
      "velocity": 0.93,
      "hand": "left"
    },
    {
      "midi": 44,
      "time": 132.5,
      "duration": 1,
      "velocity": 0.32,
      "hand": "left"
    },
    {
      "midi": 48,
      "time": 132.5,
      "duration": 1,
      "velocity": 0.32,
      "hand": "left"
    },
    {
      "midi": 60,
      "time": 132.5,
      "duration": 0.25,
      "velocity": 0.93,
      "hand": "right"
    },
    {
      "midi": 63,
      "time": 132.75,
      "duration": 0.25,
      "velocity": 0.93,
      "hand": "right"
    },
    {
      "midi": 67,
      "time": 133,
      "duration": 0.5,
      "velocity": 0.93,
      "hand": "right"
    },
    {
      "midi": 72,
      "time": 133.25,
      "duration": 0.25,
      "velocity": 0.93,
      "hand": "right"
    },
    {
      "midi": 79,
      "time": 133.25,
      "duration": 0.25,
      "velocity": 0.93,
      "hand": "right"
    },
    {
      "midi": 53,
      "time": 133.5,
      "duration": 0.25,
      "velocity": 0.93,
      "hand": "left"
    },
    {
      "midi": 65,
      "time": 133.5,
      "duration": 0.25,
      "velocity": 0.71,
      "hand": "right"
    },
    {
      "midi": 51,
      "time": 133.75,
      "duration": 0.25,
      "velocity": 0.93,
      "hand": "left"
    },
    {
      "midi": 63,
      "time": 133.75,
      "duration": 0.25,
      "velocity": 0.71,
      "hand": "right"
    },
    {
      "midi": 50,
      "time": 134,
      "duration": 2,
      "velocity": 0.93,
      "hand": "left"
    },
    {
      "midi": 53,
      "time": 134,
      "duration": 2,
      "velocity": 0.93,
      "hand": "left"
    },
    {
      "midi": 62,
      "time": 134,
      "duration": 2,
      "velocity": 0.93,
      "hand": "right"
    },
    {
      "midi": 56,
      "time": 134.25,
      "duration": 0.25,
      "velocity": 0.71,
      "hand": "left"
    },
    {
      "midi": 60,
      "time": 134.5,
      "duration": 0.25,
      "velocity": 0.71,
      "hand": "right"
    },
    {
      "midi": 65,
      "time": 134.75,
      "duration": 0.25,
      "velocity": 0.71,
      "hand": "right"
    },
    {
      "midi": 68,
      "time": 134.75,
      "duration": 0.25,
      "velocity": 0.71,
      "hand": "right"
    },
    {
      "midi": 65,
      "time": 135,
      "duration": 0.25,
      "velocity": 0.71,
      "hand": "right"
    },
    {
      "midi": 68,
      "time": 135,
      "duration": 0.25,
      "velocity": 0.71,
      "hand": "right"
    },
    {
      "midi": 60,
      "time": 135.25,
      "duration": 0.25,
      "velocity": 0.71,
      "hand": "right"
    },
    {
      "midi": 56,
      "time": 135.5,
      "duration": 0.25,
      "velocity": 0.71,
      "hand": "left"
    },
    {
      "midi": 60,
      "time": 135.75,
      "duration": 0.25,
      "velocity": 0.71,
      "hand": "right"
    },
    {
      "midi": 32,
      "time": 136,
      "duration": 1,
      "velocity": 0.93,
      "hand": "left"
    },
    {
      "midi": 44,
      "time": 136,
      "duration": 1,
      "velocity": 0.93,
      "hand": "left"
    },
    {
      "midi": 50,
      "time": 136.25,
      "duration": 0.25,
      "velocity": 0.71,
      "hand": "left"
    },
    {
      "midi": 53,
      "time": 136.5,
      "duration": 0.25,
      "velocity": 0.71,
      "hand": "left"
    },
    {
      "midi": 60,
      "time": 136.75,
      "duration": 0.25,
      "velocity": 0.71,
      "hand": "right"
    },
    {
      "midi": 62,
      "time": 136.75,
      "duration": 0.25,
      "velocity": 0.71,
      "hand": "right"
    },
    {
      "midi": 31,
      "time": 137,
      "duration": 1,
      "velocity": 0.93,
      "hand": "left"
    },
    {
      "midi": 43,
      "time": 137,
      "duration": 1,
      "velocity": 0.93,
      "hand": "left"
    },
    {
      "midi": 50,
      "time": 137.25,
      "duration": 0.25,
      "velocity": 0.71,
      "hand": "left"
    },
    {
      "midi": 53,
      "time": 137.5,
      "duration": 0.25,
      "velocity": 0.71,
      "hand": "left"
    },
    {
      "midi": 59,
      "time": 137.75,
      "duration": 0.25,
      "velocity": 0.71,
      "hand": "left"
    },
    {
      "midi": 62,
      "time": 137.75,
      "duration": 0.25,
      "velocity": 0.71,
      "hand": "right"
    },
    {
      "midi": 39,
      "time": 138,
      "duration": 0.5,
      "velocity": 0.93,
      "hand": "left"
    },
    {
      "midi": 51,
      "time": 138,
      "duration": 0.5,
      "velocity": 0.93,
      "hand": "left"
    },
    {
      "midi": 55,
      "time": 138,
      "duration": 1,
      "velocity": 0.71,
      "hand": "left"
    },
    {
      "midi": 67,
      "time": 138,
      "duration": 0.75,
      "velocity": 0.71,
      "hand": "right"
    },
    {
      "midi": 59,
      "time": 138.25,
      "duration": 0.25,
      "velocity": 0.93,
      "hand": "left"
    },
    {
      "midi": 60,
      "time": 138.5,
      "duration": 0.25,
      "velocity": 0.93,
      "hand": "right"
    },
    {
      "midi": 67,
      "time": 138.75,
      "duration": 0.25,
      "velocity": 0.93,
      "hand": "right"
    },
    {
      "midi": 55,
      "time": 139,
      "duration": 1,
      "velocity": 0.93,
      "hand": "left"
    },
    {
      "midi": 67,
      "time": 139,
      "duration": 1,
      "velocity": 0.93,
      "hand": "right"
    },
    {
      "midi": 71,
      "time": 139.25,
      "duration": 0.25,
      "velocity": 0.93,
      "hand": "right"
    },
    {
      "midi": 72,
      "time": 139.5,
      "duration": 0.25,
      "velocity": 0.93,
      "hand": "right"
    },
    {
      "midi": 75,
      "time": 139.75,
      "duration": 0.25,
      "velocity": 0.93,
      "hand": "right"
    },
    {
      "midi": 79,
      "time": 139.75,
      "duration": 0.25,
      "velocity": 0.93,
      "hand": "right"
    },
    {
      "midi": 55,
      "time": 140,
      "duration": 1.5,
      "velocity": 0.93,
      "hand": "left"
    },
    {
      "midi": 67,
      "time": 140,
      "duration": 1,
      "velocity": 0.71,
      "hand": "right"
    },
    {
      "midi": 59,
      "time": 140.25,
      "duration": 0.25,
      "velocity": 0.93,
      "hand": "left"
    },
    {
      "midi": 44,
      "time": 140.5,
      "duration": 1,
      "velocity": 0.32,
      "hand": "left"
    },
    {
      "midi": 48,
      "time": 140.5,
      "duration": 1,
      "velocity": 0.32,
      "hand": "left"
    },
    {
      "midi": 60,
      "time": 140.5,
      "duration": 0.25,
      "velocity": 0.93,
      "hand": "right"
    },
    {
      "midi": 63,
      "time": 140.75,
      "duration": 0.25,
      "velocity": 0.93,
      "hand": "right"
    },
    {
      "midi": 67,
      "time": 141,
      "duration": 0.5,
      "velocity": 0.93,
      "hand": "right"
    },
    {
      "midi": 72,
      "time": 141.25,
      "duration": 0.25,
      "velocity": 0.93,
      "hand": "right"
    },
    {
      "midi": 79,
      "time": 141.25,
      "duration": 0.25,
      "velocity": 0.93,
      "hand": "right"
    },
    {
      "midi": 53,
      "time": 141.5,
      "duration": 0.25,
      "velocity": 0.93,
      "hand": "left"
    },
    {
      "midi": 65,
      "time": 141.5,
      "duration": 0.25,
      "velocity": 0.71,
      "hand": "right"
    },
    {
      "midi": 51,
      "time": 141.75,
      "duration": 0.25,
      "velocity": 0.93,
      "hand": "left"
    },
    {
      "midi": 63,
      "time": 141.75,
      "duration": 0.25,
      "velocity": 0.71,
      "hand": "right"
    },
    {
      "midi": 50,
      "time": 142,
      "duration": 2,
      "velocity": 0.93,
      "hand": "left"
    },
    {
      "midi": 53,
      "time": 142,
      "duration": 2,
      "velocity": 0.93,
      "hand": "left"
    },
    {
      "midi": 62,
      "time": 142,
      "duration": 2,
      "velocity": 0.93,
      "hand": "right"
    },
    {
      "midi": 56,
      "time": 142.25,
      "duration": 0.25,
      "velocity": 0.71,
      "hand": "left"
    },
    {
      "midi": 60,
      "time": 142.5,
      "duration": 0.25,
      "velocity": 0.71,
      "hand": "right"
    },
    {
      "midi": 65,
      "time": 142.75,
      "duration": 0.25,
      "velocity": 0.71,
      "hand": "right"
    },
    {
      "midi": 68,
      "time": 142.75,
      "duration": 0.25,
      "velocity": 0.71,
      "hand": "right"
    },
    {
      "midi": 65,
      "time": 143,
      "duration": 0.25,
      "velocity": 0.71,
      "hand": "right"
    },
    {
      "midi": 68,
      "time": 143,
      "duration": 0.25,
      "velocity": 0.71,
      "hand": "right"
    },
    {
      "midi": 60,
      "time": 143.25,
      "duration": 0.25,
      "velocity": 0.71,
      "hand": "right"
    },
    {
      "midi": 56,
      "time": 143.5,
      "duration": 0.25,
      "velocity": 0.71,
      "hand": "left"
    },
    {
      "midi": 60,
      "time": 143.75,
      "duration": 0.25,
      "velocity": 0.71,
      "hand": "right"
    },
    {
      "midi": 32,
      "time": 144,
      "duration": 1,
      "velocity": 0.93,
      "hand": "left"
    },
    {
      "midi": 44,
      "time": 144,
      "duration": 1,
      "velocity": 0.93,
      "hand": "left"
    },
    {
      "midi": 50,
      "time": 144.25,
      "duration": 0.25,
      "velocity": 0.71,
      "hand": "left"
    },
    {
      "midi": 53,
      "time": 144.5,
      "duration": 0.25,
      "velocity": 0.71,
      "hand": "left"
    },
    {
      "midi": 60,
      "time": 144.75,
      "duration": 0.25,
      "velocity": 0.71,
      "hand": "right"
    },
    {
      "midi": 62,
      "time": 144.75,
      "duration": 0.25,
      "velocity": 0.71,
      "hand": "right"
    },
    {
      "midi": 31,
      "time": 145,
      "duration": 1,
      "velocity": 0.93,
      "hand": "left"
    },
    {
      "midi": 43,
      "time": 145,
      "duration": 1,
      "velocity": 0.93,
      "hand": "left"
    },
    {
      "midi": 50,
      "time": 145.25,
      "duration": 0.25,
      "velocity": 0.71,
      "hand": "left"
    },
    {
      "midi": 53,
      "time": 145.5,
      "duration": 0.25,
      "velocity": 0.71,
      "hand": "left"
    },
    {
      "midi": 59,
      "time": 145.75,
      "duration": 0.25,
      "velocity": 0.71,
      "hand": "left"
    },
    {
      "midi": 62,
      "time": 145.75,
      "duration": 0.25,
      "velocity": 0.71,
      "hand": "right"
    },
    {
      "midi": 48,
      "time": 146,
      "duration": 1,
      "velocity": 0.93,
      "hand": "left"
    },
    {
      "midi": 60,
      "time": 146,
      "duration": 1,
      "velocity": 0.71,
      "hand": "right"
    },
    {
      "midi": 51,
      "time": 146.25,
      "duration": 0.25,
      "velocity": 0.93,
      "hand": "left"
    },
    {
      "midi": 36,
      "time": 146.5,
      "duration": 0.5,
      "velocity": 0.32,
      "hand": "left"
    },
    {
      "midi": 39,
      "time": 146.5,
      "duration": 0.5,
      "velocity": 0.32,
      "hand": "left"
    },
    {
      "midi": 43,
      "time": 146.5,
      "duration": 0.5,
      "velocity": 0.32,
      "hand": "left"
    },
    {
      "midi": 55,
      "time": 146.5,
      "duration": 0.25,
      "velocity": 0.93,
      "hand": "left"
    },
    {
      "midi": 51,
      "time": 146.75,
      "duration": 0.25,
      "velocity": 0.93,
      "hand": "left"
    },
    {
      "midi": 48,
      "time": 147,
      "duration": 0.5,
      "velocity": 0.93,
      "hand": "left"
    },
    {
      "midi": 60,
      "time": 147,
      "duration": 0.5,
      "velocity": 0.93,
      "hand": "right"
    },
    {
      "midi": 63,
      "time": 147.25,
      "duration": 0.25,
      "velocity": 0.71,
      "hand": "right"
    },
    {
      "midi": 50,
      "time": 147.5,
      "duration": 0.5,
      "velocity": 0.93,
      "hand": "left"
    },
    {
      "midi": 62,
      "time": 147.5,
      "duration": 0.5,
      "velocity": 0.93,
      "hand": "right"
    },
    {
      "midi": 67,
      "time": 147.5,
      "duration": 0.25,
      "velocity": 0.71,
      "hand": "right"
    },
    {
      "midi": 72,
      "time": 147.5,
      "duration": 0.25,
      "velocity": 0.71,
      "hand": "right"
    },
    {
      "midi": 63,
      "time": 147.75,
      "duration": 0.25,
      "velocity": 0.71,
      "hand": "right"
    },
    {
      "midi": 53,
      "time": 148,
      "duration": 0.5,
      "velocity": 0.93,
      "hand": "left"
    },
    {
      "midi": 65,
      "time": 148,
      "duration": 0.5,
      "velocity": 0.93,
      "hand": "right"
    },
    {
      "midi": 67,
      "time": 148.25,
      "duration": 0.25,
      "velocity": 0.71,
      "hand": "right"
    },
    {
      "midi": 51,
      "time": 148.5,
      "duration": 0.5,
      "velocity": 0.93,
      "hand": "left"
    },
    {
      "midi": 63,
      "time": 148.5,
      "duration": 0.5,
      "velocity": 0.93,
      "hand": "right"
    },
    {
      "midi": 72,
      "time": 148.5,
      "duration": 0.25,
      "velocity": 0.71,
      "hand": "right"
    },
    {
      "midi": 75,
      "time": 148.5,
      "duration": 0.25,
      "velocity": 0.71,
      "hand": "right"
    },
    {
      "midi": 67,
      "time": 148.75,
      "duration": 0.25,
      "velocity": 0.71,
      "hand": "right"
    },
    {
      "midi": 50,
      "time": 149,
      "duration": 0.5,
      "velocity": 0.93,
      "hand": "left"
    },
    {
      "midi": 62,
      "time": 149,
      "duration": 0.5,
      "velocity": 0.93,
      "hand": "right"
    },
    {
      "midi": 72,
      "time": 149.25,
      "duration": 0.25,
      "velocity": 0.71,
      "hand": "right"
    },
    {
      "midi": 48,
      "time": 149.5,
      "duration": 0.5,
      "velocity": 0.93,
      "hand": "left"
    },
    {
      "midi": 60,
      "time": 149.5,
      "duration": 0.5,
      "velocity": 0.93,
      "hand": "right"
    },
    {
      "midi": 75,
      "time": 149.5,
      "duration": 0.25,
      "velocity": 0.71,
      "hand": "right"
    },
    {
      "midi": 79,
      "time": 149.5,
      "duration": 0.25,
      "velocity": 0.71,
      "hand": "right"
    },
    {
      "midi": 72,
      "time": 149.75,
      "duration": 0.25,
      "velocity": 0.71,
      "hand": "right"
    },
    {
      "midi": 51,
      "time": 150,
      "duration": 1,
      "velocity": 0.75,
      "hand": "left"
    },
    {
      "midi": 63,
      "time": 150,
      "duration": 3,
      "velocity": 0.75,
      "hand": "right"
    },
    {
      "midi": 75,
      "time": 150.25,
      "duration": 0.25,
      "velocity": 0.71,
      "hand": "right"
    },
    {
      "midi": 79,
      "time": 150.5,
      "duration": 0.25,
      "velocity": 0.71,
      "hand": "right"
    },
    {
      "midi": 82,
      "time": 150.5,
      "duration": 0.25,
      "velocity": 0.71,
      "hand": "right"
    },
    {
      "midi": 75,
      "time": 150.75,
      "duration": 0.25,
      "velocity": 0.71,
      "hand": "right"
    },
    {
      "midi": 43,
      "time": 151,
      "duration": 2,
      "velocity": 0.32,
      "hand": "left"
    },
    {
      "midi": 46,
      "time": 151,
      "duration": 2,
      "velocity": 0.32,
      "hand": "left"
    },
    {
      "midi": 51,
      "time": 151,
      "duration": 2,
      "velocity": 0.32,
      "hand": "left"
    },
    {
      "midi": 55,
      "time": 151,
      "duration": 2,
      "velocity": 0.32,
      "hand": "left"
    },
    {
      "midi": 82,
      "time": 151,
      "duration": 0.25,
      "velocity": 0.71,
      "hand": "right"
    },
    {
      "midi": 87,
      "time": 151,
      "duration": 0.25,
      "velocity": 0.71,
      "hand": "right"
    },
    {
      "midi": 75,
      "time": 151.25,
      "duration": 0.25,
      "velocity": 0.71,
      "hand": "right"
    },
    {
      "midi": 79,
      "time": 151.5,
      "duration": 0.25,
      "velocity": 0.71,
      "hand": "right"
    },
    {
      "midi": 82,
      "time": 151.5,
      "duration": 0.25,
      "velocity": 0.71,
      "hand": "right"
    },
    {
      "midi": 75,
      "time": 151.75,
      "duration": 0.25,
      "velocity": 0.71,
      "hand": "right"
    },
    {
      "midi": 75,
      "time": 152,
      "duration": 0.25,
      "velocity": 0.71,
      "hand": "right"
    },
    {
      "midi": 79,
      "time": 152,
      "duration": 0.25,
      "velocity": 0.71,
      "hand": "right"
    },
    {
      "midi": 70,
      "time": 152.25,
      "duration": 0.25,
      "velocity": 0.71,
      "hand": "right"
    },
    {
      "midi": 70,
      "time": 152.5,
      "duration": 0.25,
      "velocity": 0.71,
      "hand": "right"
    },
    {
      "midi": 75,
      "time": 152.5,
      "duration": 0.25,
      "velocity": 0.71,
      "hand": "right"
    },
    {
      "midi": 67,
      "time": 152.75,
      "duration": 0.25,
      "velocity": 0.71,
      "hand": "right"
    },
    {
      "midi": 51,
      "time": 153,
      "duration": 1,
      "velocity": 0.75,
      "hand": "left"
    },
    {
      "midi": 55,
      "time": 153,
      "duration": 1,
      "velocity": 0.75,
      "hand": "left"
    },
    {
      "midi": 63,
      "time": 153,
      "duration": 1,
      "velocity": 0.75,
      "hand": "right"
    },
    {
      "midi": 58,
      "time": 153.25,
      "duration": 0.25,
      "velocity": 0.71,
      "hand": "left"
    },
    {
      "midi": 67,
      "time": 153.5,
      "duration": 0.25,
      "velocity": 0.71,
      "hand": "right"
    },
    {
      "midi": 70,
      "time": 153.5,
      "duration": 0.25,
      "velocity": 0.71,
      "hand": "right"
    },
    {
      "midi": 58,
      "time": 153.75,
      "duration": 0.25,
      "velocity": 0.71,
      "hand": "left"
    },
    {
      "midi": 50,
      "time": 154,
      "duration": 1,
      "velocity": 0.75,
      "hand": "left"
    },
    {
      "midi": 53,
      "time": 154,
      "duration": 1,
      "velocity": 0.75,
      "hand": "left"
    },
    {
      "midi": 62,
      "time": 154,
      "duration": 1,
      "velocity": 0.75,
      "hand": "right"
    },
    {
      "midi": 58,
      "time": 154.25,
      "duration": 0.25,
      "velocity": 0.71,
      "hand": "left"
    },
    {
      "midi": 65,
      "time": 154.5,
      "duration": 0.25,
      "velocity": 0.71,
      "hand": "right"
    },
    {
      "midi": 70,
      "time": 154.5,
      "duration": 0.25,
      "velocity": 0.71,
      "hand": "right"
    },
    {
      "midi": 58,
      "time": 154.75,
      "duration": 0.25,
      "velocity": 0.71,
      "hand": "left"
    },
    {
      "midi": 48,
      "time": 155,
      "duration": 1,
      "velocity": 0.7,
      "hand": "left"
    },
    {
      "midi": 51,
      "time": 155,
      "duration": 1,
      "velocity": 0.7,
      "hand": "left"
    },
    {
      "midi": 55,
      "time": 155,
      "duration": 1,
      "velocity": 0.7,
      "hand": "left"
    },
    {
      "midi": 60,
      "time": 155,
      "duration": 1,
      "velocity": 0.7,
      "hand": "right"
    },
    {
      "midi": 63,
      "time": 155.25,
      "duration": 0.25,
      "velocity": 0.71,
      "hand": "right"
    },
    {
      "midi": 67,
      "time": 155.5,
      "duration": 0.25,
      "velocity": 0.71,
      "hand": "right"
    },
    {
      "midi": 72,
      "time": 155.5,
      "duration": 0.25,
      "velocity": 0.71,
      "hand": "right"
    },
    {
      "midi": 75,
      "time": 155.5,
      "duration": 0.25,
      "velocity": 0.71,
      "hand": "right"
    },
    {
      "midi": 63,
      "time": 155.75,
      "duration": 0.25,
      "velocity": 0.71,
      "hand": "right"
    },
    {
      "midi": 43,
      "time": 156,
      "duration": 1,
      "velocity": 0.65,
      "hand": "left"
    },
    {
      "midi": 46,
      "time": 156,
      "duration": 1,
      "velocity": 0.65,
      "hand": "left"
    },
    {
      "midi": 50,
      "time": 156,
      "duration": 1,
      "velocity": 0.65,
      "hand": "left"
    },
    {
      "midi": 55,
      "time": 156,
      "duration": 1,
      "velocity": 0.65,
      "hand": "left"
    },
    {
      "midi": 67,
      "time": 156.25,
      "duration": 0.25,
      "velocity": 0.71,
      "hand": "right"
    },
    {
      "midi": 70,
      "time": 156.5,
      "duration": 0.25,
      "velocity": 0.71,
      "hand": "right"
    },
    {
      "midi": 74,
      "time": 156.5,
      "duration": 0.25,
      "velocity": 0.71,
      "hand": "right"
    },
    {
      "midi": 79,
      "time": 156.5,
      "duration": 0.25,
      "velocity": 0.71,
      "hand": "right"
    },
    {
      "midi": 67,
      "time": 156.75,
      "duration": 0.25,
      "velocity": 0.71,
      "hand": "right"
    },
    {
      "midi": 39,
      "time": 157,
      "duration": 0.5,
      "velocity": 0.61,
      "hand": "left"
    },
    {
      "midi": 60,
      "time": 157,
      "duration": 0.75,
      "velocity": 0.71,
      "hand": "right"
    },
    {
      "midi": 48,
      "time": 157.25,
      "duration": 0.25,
      "velocity": 0.93,
      "hand": "left"
    },
    {
      "midi": 51,
      "time": 157.5,
      "duration": 0.5,
      "velocity": 0.61,
      "hand": "left"
    },
    {
      "midi": 55,
      "time": 157.5,
      "duration": 0.5,
      "velocity": 0.93,
      "hand": "left"
    },
    {
      "midi": 62,
      "time": 157.75,
      "duration": 0.25,
      "velocity": 0.71,
      "hand": "right"
    },
    {
      "midi": 34,
      "time": 158,
      "duration": 0.5,
      "velocity": 0.61,
      "hand": "left"
    },
    {
      "midi": 55,
      "time": 158,
      "duration": 0.75,
      "velocity": 0.71,
      "hand": "left"
    },
    {
      "midi": 60,
      "time": 158,
      "duration": 0.25,
      "velocity": 0.71,
      "hand": "right"
    },
    {
      "midi": 50,
      "time": 158.25,
      "duration": 0.5,
      "velocity": 0.93,
      "hand": "left"
    },
    {
      "midi": 46,
      "time": 158.5,
      "duration": 0.5,
      "velocity": 0.61,
      "hand": "left"
    },
    {
      "midi": 50,
      "time": 158.75,
      "duration": 0.25,
      "velocity": 0.93,
      "hand": "left"
    },
    {
      "midi": 55,
      "time": 158.75,
      "duration": 0.25,
      "velocity": 0.71,
      "hand": "left"
    },
    {
      "midi": 50,
      "time": 159,
      "duration": 0.25,
      "velocity": 0.61,
      "hand": "left"
    },
    {
      "midi": 55,
      "time": 159.25,
      "duration": 0.25,
      "velocity": 0.71,
      "hand": "left"
    },
    {
      "midi": 58,
      "time": 159.25,
      "duration": 0.25,
      "velocity": 0.71,
      "hand": "left"
    },
    {
      "midi": 55,
      "time": 159.5,
      "duration": 0.25,
      "velocity": 0.61,
      "hand": "left"
    },
    {
      "midi": 58,
      "time": 159.75,
      "duration": 0.25,
      "velocity": 0.71,
      "hand": "left"
    },
    {
      "midi": 62,
      "time": 159.75,
      "duration": 0.25,
      "velocity": 0.71,
      "hand": "right"
    },
    {
      "midi": 58,
      "time": 160,
      "duration": 0.25,
      "velocity": 0.61,
      "hand": "left"
    },
    {
      "midi": 62,
      "time": 160.25,
      "duration": 0.25,
      "velocity": 0.71,
      "hand": "right"
    },
    {
      "midi": 67,
      "time": 160.25,
      "duration": 0.25,
      "velocity": 0.71,
      "hand": "right"
    },
    {
      "midi": 62,
      "time": 160.5,
      "duration": 0.25,
      "velocity": 0.61,
      "hand": "right"
    },
    {
      "midi": 67,
      "time": 160.75,
      "duration": 0.25,
      "velocity": 0.71,
      "hand": "right"
    },
    {
      "midi": 70,
      "time": 160.75,
      "duration": 0.25,
      "velocity": 0.71,
      "hand": "right"
    },
    {
      "midi": 51,
      "time": 161,
      "duration": 0.5,
      "velocity": 0.61,
      "hand": "left"
    },
    {
      "midi": 72,
      "time": 161,
      "duration": 0.75,
      "velocity": 0.71,
      "hand": "right"
    },
    {
      "midi": 60,
      "time": 161.25,
      "duration": 0.25,
      "velocity": 0.54,
      "hand": "right"
    },
    {
      "midi": 63,
      "time": 161.5,
      "duration": 0.5,
      "velocity": 0.61,
      "hand": "right"
    },
    {
      "midi": 67,
      "time": 161.5,
      "duration": 0.5,
      "velocity": 0.54,
      "hand": "right"
    },
    {
      "midi": 74,
      "time": 161.75,
      "duration": 0.25,
      "velocity": 0.71,
      "hand": "right"
    },
    {
      "midi": 46,
      "time": 162,
      "duration": 0.5,
      "velocity": 0.61,
      "hand": "left"
    },
    {
      "midi": 67,
      "time": 162,
      "duration": 0.75,
      "velocity": 0.71,
      "hand": "right"
    },
    {
      "midi": 72,
      "time": 162,
      "duration": 0.25,
      "velocity": 0.71,
      "hand": "right"
    },
    {
      "midi": 62,
      "time": 162.25,
      "duration": 0.5,
      "velocity": 0.54,
      "hand": "right"
    },
    {
      "midi": 58,
      "time": 162.5,
      "duration": 0.5,
      "velocity": 0.61,
      "hand": "left"
    },
    {
      "midi": 62,
      "time": 162.75,
      "duration": 0.25,
      "velocity": 0.54,
      "hand": "right"
    },
    {
      "midi": 67,
      "time": 162.75,
      "duration": 0.25,
      "velocity": 0.71,
      "hand": "right"
    },
    {
      "midi": 62,
      "time": 163,
      "duration": 0.25,
      "velocity": 0.61,
      "hand": "right"
    },
    {
      "midi": 67,
      "time": 163.25,
      "duration": 0.25,
      "velocity": 0.71,
      "hand": "right"
    },
    {
      "midi": 70,
      "time": 163.25,
      "duration": 0.25,
      "velocity": 0.71,
      "hand": "right"
    },
    {
      "midi": 67,
      "time": 163.5,
      "duration": 0.25,
      "velocity": 0.61,
      "hand": "right"
    },
    {
      "midi": 70,
      "time": 163.75,
      "duration": 0.25,
      "velocity": 0.71,
      "hand": "right"
    },
    {
      "midi": 74,
      "time": 163.75,
      "duration": 0.25,
      "velocity": 0.71,
      "hand": "right"
    },
    {
      "midi": 70,
      "time": 164,
      "duration": 0.25,
      "velocity": 0.61,
      "hand": "right"
    },
    {
      "midi": 74,
      "time": 164.25,
      "duration": 0.25,
      "velocity": 0.71,
      "hand": "right"
    },
    {
      "midi": 79,
      "time": 164.25,
      "duration": 0.25,
      "velocity": 0.71,
      "hand": "right"
    },
    {
      "midi": 74,
      "time": 164.5,
      "duration": 0.25,
      "velocity": 0.61,
      "hand": "right"
    },
    {
      "midi": 79,
      "time": 164.75,
      "duration": 0.25,
      "velocity": 0.71,
      "hand": "right"
    },
    {
      "midi": 82,
      "time": 164.75,
      "duration": 0.25,
      "velocity": 0.71,
      "hand": "right"
    },
    {
      "midi": 63,
      "time": 165,
      "duration": 0.5,
      "velocity": 0.61,
      "hand": "right"
    },
    {
      "midi": 84,
      "time": 165,
      "duration": 0.75,
      "velocity": 0.71,
      "hand": "right"
    },
    {
      "midi": 72,
      "time": 165.25,
      "duration": 0.25,
      "velocity": 0.49,
      "hand": "right"
    },
    {
      "midi": 75,
      "time": 165.5,
      "duration": 0.5,
      "velocity": 0.61,
      "hand": "right"
    },
    {
      "midi": 79,
      "time": 165.5,
      "duration": 0.5,
      "velocity": 0.49,
      "hand": "right"
    },
    {
      "midi": 86,
      "time": 165.75,
      "duration": 0.25,
      "velocity": 0.71,
      "hand": "right"
    },
    {
      "midi": 58,
      "time": 166,
      "duration": 0.5,
      "velocity": 0.61,
      "hand": "left"
    },
    {
      "midi": 79,
      "time": 166,
      "duration": 0.75,
      "velocity": 0.71,
      "hand": "right"
    },
    {
      "midi": 84,
      "time": 166,
      "duration": 0.25,
      "velocity": 0.71,
      "hand": "right"
    },
    {
      "midi": 74,
      "time": 166.25,
      "duration": 0.5,
      "velocity": 0.49,
      "hand": "right"
    },
    {
      "midi": 70,
      "time": 166.5,
      "duration": 0.5,
      "velocity": 0.61,
      "hand": "right"
    },
    {
      "midi": 74,
      "time": 166.75,
      "duration": 0.25,
      "velocity": 0.49,
      "hand": "right"
    },
    {
      "midi": 79,
      "time": 166.75,
      "duration": 0.25,
      "velocity": 0.71,
      "hand": "right"
    },
    {
      "midi": 74,
      "time": 167,
      "duration": 0.25,
      "velocity": 0.61,
      "hand": "right"
    },
    {
      "midi": 79,
      "time": 167.25,
      "duration": 0.25,
      "velocity": 0.71,
      "hand": "right"
    },
    {
      "midi": 82,
      "time": 167.25,
      "duration": 0.25,
      "velocity": 0.71,
      "hand": "right"
    },
    {
      "midi": 79,
      "time": 167.5,
      "duration": 0.25,
      "velocity": 0.61,
      "hand": "right"
    },
    {
      "midi": 82,
      "time": 167.75,
      "duration": 0.25,
      "velocity": 0.71,
      "hand": "right"
    },
    {
      "midi": 86,
      "time": 167.75,
      "duration": 0.25,
      "velocity": 0.71,
      "hand": "right"
    },
    {
      "midi": 82,
      "time": 168,
      "duration": 0.25,
      "velocity": 0.61,
      "hand": "right"
    },
    {
      "midi": 86,
      "time": 168.25,
      "duration": 0.25,
      "velocity": 0.71,
      "hand": "right"
    },
    {
      "midi": 91,
      "time": 168.25,
      "duration": 0.25,
      "velocity": 0.71,
      "hand": "right"
    },
    {
      "midi": 86,
      "time": 168.5,
      "duration": 0.25,
      "velocity": 0.61,
      "hand": "right"
    },
    {
      "midi": 91,
      "time": 168.75,
      "duration": 0.25,
      "velocity": 0.71,
      "hand": "right"
    },
    {
      "midi": 94,
      "time": 168.75,
      "duration": 0.25,
      "velocity": 0.71,
      "hand": "right"
    },
    {
      "midi": 91,
      "time": 169,
      "duration": 0.25,
      "velocity": 0.61,
      "hand": "right"
    },
    {
      "midi": 94,
      "time": 169.25,
      "duration": 0.25,
      "velocity": 0.71,
      "hand": "right"
    },
    {
      "midi": 98,
      "time": 169.25,
      "duration": 0.25,
      "velocity": 0.71,
      "hand": "right"
    },
    {
      "midi": 94,
      "time": 169.5,
      "duration": 0.25,
      "velocity": 0.61,
      "hand": "right"
    },
    {
      "midi": 98,
      "time": 169.75,
      "duration": 0.25,
      "velocity": 0.71,
      "hand": "right"
    },
    {
      "midi": 103,
      "time": 169.75,
      "duration": 0.25,
      "velocity": 0.71,
      "hand": "right"
    },
    {
      "midi": 91,
      "time": 170,
      "duration": 0.25,
      "velocity": 0.61,
      "hand": "right"
    },
    {
      "midi": 94,
      "time": 170.25,
      "duration": 0.25,
      "velocity": 0.71,
      "hand": "right"
    },
    {
      "midi": 98,
      "time": 170.25,
      "duration": 0.25,
      "velocity": 0.71,
      "hand": "right"
    },
    {
      "midi": 94,
      "time": 170.5,
      "duration": 0.25,
      "velocity": 0.61,
      "hand": "right"
    },
    {
      "midi": 98,
      "time": 170.75,
      "duration": 0.25,
      "velocity": 0.71,
      "hand": "right"
    },
    {
      "midi": 103,
      "time": 170.75,
      "duration": 0.25,
      "velocity": 0.71,
      "hand": "right"
    },
    {
      "midi": 91,
      "time": 171,
      "duration": 0.25,
      "velocity": 0.61,
      "hand": "right"
    },
    {
      "midi": 94,
      "time": 171.25,
      "duration": 0.25,
      "velocity": 0.71,
      "hand": "right"
    },
    {
      "midi": 98,
      "time": 171.25,
      "duration": 0.25,
      "velocity": 0.71,
      "hand": "right"
    },
    {
      "midi": 94,
      "time": 171.5,
      "duration": 0.25,
      "velocity": 0.61,
      "hand": "right"
    },
    {
      "midi": 98,
      "time": 171.75,
      "duration": 0.25,
      "velocity": 0.71,
      "hand": "right"
    },
    {
      "midi": 103,
      "time": 171.75,
      "duration": 0.25,
      "velocity": 0.71,
      "hand": "right"
    },
    {
      "midi": 91,
      "time": 172,
      "duration": 0.25,
      "velocity": 0.61,
      "hand": "right"
    },
    {
      "midi": 94,
      "time": 172.25,
      "duration": 0.25,
      "velocity": 0.71,
      "hand": "right"
    },
    {
      "midi": 98,
      "time": 172.25,
      "duration": 0.25,
      "velocity": 0.71,
      "hand": "right"
    },
    {
      "midi": 94,
      "time": 172.5,
      "duration": 0.25,
      "velocity": 0.61,
      "hand": "right"
    },
    {
      "midi": 98,
      "time": 172.75,
      "duration": 0.25,
      "velocity": 0.71,
      "hand": "right"
    },
    {
      "midi": 103,
      "time": 172.75,
      "duration": 0.25,
      "velocity": 0.71,
      "hand": "right"
    },
    {
      "midi": 91,
      "time": 173,
      "duration": 0.25,
      "velocity": 0.61,
      "hand": "right"
    },
    {
      "midi": 94,
      "time": 173.25,
      "duration": 0.25,
      "velocity": 0.71,
      "hand": "right"
    },
    {
      "midi": 98,
      "time": 173.25,
      "duration": 0.25,
      "velocity": 0.71,
      "hand": "right"
    },
    {
      "midi": 94,
      "time": 173.5,
      "duration": 0.25,
      "velocity": 0.61,
      "hand": "right"
    },
    {
      "midi": 98,
      "time": 173.75,
      "duration": 0.25,
      "velocity": 0.71,
      "hand": "right"
    },
    {
      "midi": 103,
      "time": 173.75,
      "duration": 0.25,
      "velocity": 0.71,
      "hand": "right"
    },
    {
      "midi": 91,
      "time": 174,
      "duration": 0.5,
      "velocity": 0.61,
      "hand": "right"
    },
    {
      "midi": 94,
      "time": 174.25,
      "duration": 0.25,
      "velocity": 0.61,
      "hand": "right"
    },
    {
      "midi": 98,
      "time": 174.25,
      "duration": 0.25,
      "velocity": 0.61,
      "hand": "right"
    },
    {
      "midi": 87,
      "time": 174.5,
      "duration": 0.25,
      "velocity": 0.61,
      "hand": "right"
    },
    {
      "midi": 96,
      "time": 174.5,
      "duration": 0.25,
      "velocity": 0.61,
      "hand": "right"
    },
    {
      "midi": 103,
      "time": 174.5,
      "duration": 0.25,
      "velocity": 0.61,
      "hand": "right"
    },
    {
      "midi": 91,
      "time": 174.75,
      "duration": 0.25,
      "velocity": 0.61,
      "hand": "right"
    },
    {
      "midi": 94,
      "time": 174.75,
      "duration": 0.25,
      "velocity": 0.61,
      "hand": "right"
    },
    {
      "midi": 98,
      "time": 174.75,
      "duration": 0.25,
      "velocity": 0.61,
      "hand": "right"
    },
    {
      "midi": 87,
      "time": 175,
      "duration": 0.25,
      "velocity": 0.61,
      "hand": "right"
    },
    {
      "midi": 96,
      "time": 175,
      "duration": 0.25,
      "velocity": 0.61,
      "hand": "right"
    },
    {
      "midi": 103,
      "time": 175,
      "duration": 0.25,
      "velocity": 0.61,
      "hand": "right"
    },
    {
      "midi": 91,
      "time": 175.25,
      "duration": 0.25,
      "velocity": 0.61,
      "hand": "right"
    },
    {
      "midi": 94,
      "time": 175.25,
      "duration": 0.25,
      "velocity": 0.61,
      "hand": "right"
    },
    {
      "midi": 98,
      "time": 175.25,
      "duration": 0.25,
      "velocity": 0.61,
      "hand": "right"
    },
    {
      "midi": 87,
      "time": 175.5,
      "duration": 0.25,
      "velocity": 0.61,
      "hand": "right"
    },
    {
      "midi": 96,
      "time": 175.5,
      "duration": 0.25,
      "velocity": 0.61,
      "hand": "right"
    },
    {
      "midi": 103,
      "time": 175.5,
      "duration": 0.25,
      "velocity": 0.61,
      "hand": "right"
    },
    {
      "midi": 91,
      "time": 175.75,
      "duration": 0.25,
      "velocity": 0.61,
      "hand": "right"
    },
    {
      "midi": 94,
      "time": 175.75,
      "duration": 0.25,
      "velocity": 0.61,
      "hand": "right"
    },
    {
      "midi": 98,
      "time": 175.75,
      "duration": 0.25,
      "velocity": 0.61,
      "hand": "right"
    },
    {
      "midi": 87,
      "time": 176,
      "duration": 0.25,
      "velocity": 0.61,
      "hand": "right"
    },
    {
      "midi": 96,
      "time": 176,
      "duration": 0.25,
      "velocity": 0.61,
      "hand": "right"
    },
    {
      "midi": 103,
      "time": 176,
      "duration": 0.25,
      "velocity": 0.61,
      "hand": "right"
    },
    {
      "midi": 91,
      "time": 176.25,
      "duration": 0.25,
      "velocity": 0.61,
      "hand": "right"
    },
    {
      "midi": 94,
      "time": 176.25,
      "duration": 0.25,
      "velocity": 0.61,
      "hand": "right"
    },
    {
      "midi": 98,
      "time": 176.25,
      "duration": 0.25,
      "velocity": 0.61,
      "hand": "right"
    },
    {
      "midi": 87,
      "time": 176.5,
      "duration": 0.25,
      "velocity": 0.61,
      "hand": "right"
    },
    {
      "midi": 96,
      "time": 176.5,
      "duration": 0.25,
      "velocity": 0.61,
      "hand": "right"
    },
    {
      "midi": 103,
      "time": 176.5,
      "duration": 0.25,
      "velocity": 0.61,
      "hand": "right"
    },
    {
      "midi": 91,
      "time": 176.75,
      "duration": 0.25,
      "velocity": 0.61,
      "hand": "right"
    },
    {
      "midi": 94,
      "time": 176.75,
      "duration": 0.25,
      "velocity": 0.61,
      "hand": "right"
    },
    {
      "midi": 98,
      "time": 176.75,
      "duration": 0.25,
      "velocity": 0.61,
      "hand": "right"
    },
    {
      "midi": 87,
      "time": 177,
      "duration": 0.25,
      "velocity": 0.61,
      "hand": "right"
    },
    {
      "midi": 96,
      "time": 177,
      "duration": 0.25,
      "velocity": 0.61,
      "hand": "right"
    },
    {
      "midi": 103,
      "time": 177,
      "duration": 0.25,
      "velocity": 0.61,
      "hand": "right"
    },
    {
      "midi": 91,
      "time": 177.25,
      "duration": 0.25,
      "velocity": 0.61,
      "hand": "right"
    },
    {
      "midi": 94,
      "time": 177.25,
      "duration": 0.25,
      "velocity": 0.61,
      "hand": "right"
    },
    {
      "midi": 98,
      "time": 177.25,
      "duration": 0.25,
      "velocity": 0.61,
      "hand": "right"
    },
    {
      "midi": 87,
      "time": 177.5,
      "duration": 0.25,
      "velocity": 0.61,
      "hand": "right"
    },
    {
      "midi": 96,
      "time": 177.5,
      "duration": 0.25,
      "velocity": 0.61,
      "hand": "right"
    },
    {
      "midi": 103,
      "time": 177.5,
      "duration": 0.25,
      "velocity": 0.61,
      "hand": "right"
    },
    {
      "midi": 91,
      "time": 177.75,
      "duration": 0.25,
      "velocity": 0.61,
      "hand": "right"
    },
    {
      "midi": 94,
      "time": 177.75,
      "duration": 0.25,
      "velocity": 0.61,
      "hand": "right"
    },
    {
      "midi": 98,
      "time": 177.75,
      "duration": 0.25,
      "velocity": 0.61,
      "hand": "right"
    },
    {
      "midi": 87,
      "time": 178,
      "duration": 0.25,
      "velocity": 0.61,
      "hand": "right"
    },
    {
      "midi": 96,
      "time": 178,
      "duration": 0.25,
      "velocity": 0.61,
      "hand": "right"
    },
    {
      "midi": 103,
      "time": 178,
      "duration": 0.25,
      "velocity": 0.61,
      "hand": "right"
    },
    {
      "midi": 87,
      "time": 178.25,
      "duration": 0.25,
      "velocity": 0.61,
      "hand": "right"
    },
    {
      "midi": 91,
      "time": 178.25,
      "duration": 0.25,
      "velocity": 0.61,
      "hand": "right"
    },
    {
      "midi": 94,
      "time": 178.25,
      "duration": 0.25,
      "velocity": 0.61,
      "hand": "right"
    },
    {
      "midi": 96,
      "time": 178.25,
      "duration": 0.25,
      "velocity": 0.61,
      "hand": "right"
    },
    {
      "midi": 98,
      "time": 178.25,
      "duration": 0.25,
      "velocity": 0.61,
      "hand": "right"
    },
    {
      "midi": 103,
      "time": 178.25,
      "duration": 0.25,
      "velocity": 0.61,
      "hand": "right"
    },
    {
      "midi": 91,
      "time": 178.5,
      "duration": 0.25,
      "velocity": 0.61,
      "hand": "right"
    },
    {
      "midi": 94,
      "time": 178.5,
      "duration": 0.25,
      "velocity": 0.61,
      "hand": "right"
    },
    {
      "midi": 98,
      "time": 178.5,
      "duration": 0.25,
      "velocity": 0.61,
      "hand": "right"
    },
    {
      "midi": 87,
      "time": 178.75,
      "duration": 0.25,
      "velocity": 0.61,
      "hand": "right"
    },
    {
      "midi": 91,
      "time": 178.75,
      "duration": 0.25,
      "velocity": 0.61,
      "hand": "right"
    },
    {
      "midi": 94,
      "time": 178.75,
      "duration": 0.25,
      "velocity": 0.61,
      "hand": "right"
    },
    {
      "midi": 96,
      "time": 178.75,
      "duration": 0.25,
      "velocity": 0.61,
      "hand": "right"
    },
    {
      "midi": 98,
      "time": 178.75,
      "duration": 0.25,
      "velocity": 0.61,
      "hand": "right"
    },
    {
      "midi": 103,
      "time": 178.75,
      "duration": 0.25,
      "velocity": 0.61,
      "hand": "right"
    },
    {
      "midi": 87,
      "time": 179,
      "duration": 0.25,
      "velocity": 0.61,
      "hand": "right"
    },
    {
      "midi": 96,
      "time": 179,
      "duration": 0.25,
      "velocity": 0.61,
      "hand": "right"
    },
    {
      "midi": 103,
      "time": 179,
      "duration": 0.25,
      "velocity": 0.61,
      "hand": "right"
    },
    {
      "midi": 87,
      "time": 179.25,
      "duration": 0.25,
      "velocity": 0.61,
      "hand": "right"
    },
    {
      "midi": 91,
      "time": 179.25,
      "duration": 0.25,
      "velocity": 0.61,
      "hand": "right"
    },
    {
      "midi": 94,
      "time": 179.25,
      "duration": 0.25,
      "velocity": 0.61,
      "hand": "right"
    },
    {
      "midi": 96,
      "time": 179.25,
      "duration": 0.25,
      "velocity": 0.61,
      "hand": "right"
    },
    {
      "midi": 98,
      "time": 179.25,
      "duration": 0.25,
      "velocity": 0.61,
      "hand": "right"
    },
    {
      "midi": 103,
      "time": 179.25,
      "duration": 0.25,
      "velocity": 0.61,
      "hand": "right"
    },
    {
      "midi": 91,
      "time": 179.5,
      "duration": 0.25,
      "velocity": 0.61,
      "hand": "right"
    },
    {
      "midi": 94,
      "time": 179.5,
      "duration": 0.25,
      "velocity": 0.61,
      "hand": "right"
    },
    {
      "midi": 98,
      "time": 179.5,
      "duration": 0.25,
      "velocity": 0.61,
      "hand": "right"
    },
    {
      "midi": 87,
      "time": 179.75,
      "duration": 0.25,
      "velocity": 0.61,
      "hand": "right"
    },
    {
      "midi": 91,
      "time": 179.75,
      "duration": 0.25,
      "velocity": 0.61,
      "hand": "right"
    },
    {
      "midi": 94,
      "time": 179.75,
      "duration": 0.25,
      "velocity": 0.61,
      "hand": "right"
    },
    {
      "midi": 96,
      "time": 179.75,
      "duration": 0.25,
      "velocity": 0.61,
      "hand": "right"
    },
    {
      "midi": 98,
      "time": 179.75,
      "duration": 0.25,
      "velocity": 0.61,
      "hand": "right"
    },
    {
      "midi": 103,
      "time": 179.75,
      "duration": 0.25,
      "velocity": 0.61,
      "hand": "right"
    },
    {
      "midi": 87,
      "time": 180,
      "duration": 0.25,
      "velocity": 0.61,
      "hand": "right"
    },
    {
      "midi": 96,
      "time": 180,
      "duration": 0.25,
      "velocity": 0.61,
      "hand": "right"
    },
    {
      "midi": 103,
      "time": 180,
      "duration": 0.25,
      "velocity": 0.61,
      "hand": "right"
    },
    {
      "midi": 91,
      "time": 180.25,
      "duration": 0.25,
      "velocity": 0.61,
      "hand": "right"
    },
    {
      "midi": 94,
      "time": 180.25,
      "duration": 0.25,
      "velocity": 0.61,
      "hand": "right"
    },
    {
      "midi": 98,
      "time": 180.25,
      "duration": 0.25,
      "velocity": 0.61,
      "hand": "right"
    },
    {
      "midi": 87,
      "time": 180.5,
      "duration": 0.25,
      "velocity": 0.61,
      "hand": "right"
    },
    {
      "midi": 91,
      "time": 180.5,
      "duration": 1,
      "velocity": 0.61,
      "hand": "right"
    },
    {
      "midi": 94,
      "time": 180.5,
      "duration": 1,
      "velocity": 0.61,
      "hand": "right"
    },
    {
      "midi": 96,
      "time": 180.5,
      "duration": 0.25,
      "velocity": 0.61,
      "hand": "right"
    },
    {
      "midi": 98,
      "time": 180.5,
      "duration": 1,
      "velocity": 0.61,
      "hand": "right"
    },
    {
      "midi": 103,
      "time": 180.5,
      "duration": 0.25,
      "velocity": 0.61,
      "hand": "right"
    },
    {
      "midi": 51,
      "time": 182,
      "duration": 1.5,
      "velocity": 0.68,
      "hand": "left"
    },
    {
      "midi": 58,
      "time": 182,
      "duration": 1.5,
      "velocity": 0.68,
      "hand": "left"
    },
    {
      "midi": 63,
      "time": 182,
      "duration": 1.5,
      "velocity": 0.68,
      "hand": "right"
    },
    {
      "midi": 67,
      "time": 182,
      "duration": 1.5,
      "velocity": 0.71,
      "hand": "right"
    },
    {
      "midi": 70,
      "time": 182,
      "duration": 1.5,
      "velocity": 0.71,
      "hand": "right"
    },
    {
      "midi": 75,
      "time": 182,
      "duration": 1.5,
      "velocity": 0.71,
      "hand": "right"
    },
    {
      "midi": 79,
      "time": 182,
      "duration": 1.5,
      "velocity": 0.71,
      "hand": "right"
    },
    {
      "midi": 77,
      "time": 183.5,
      "duration": 0.125,
      "velocity": 0.71,
      "hand": "right"
    },
    {
      "midi": 77,
      "time": 183.5,
      "duration": 0.25,
      "velocity": 0.71,
      "hand": "right"
    },
    {
      "midi": 79,
      "time": 183.5,
      "duration": 0.125,
      "velocity": 0.71,
      "hand": "right"
    },
    {
      "midi": 75,
      "time": 183.75,
      "duration": 0.25,
      "velocity": 0.71,
      "hand": "right"
    },
    {
      "midi": 74,
      "time": 184,
      "duration": 0.25,
      "velocity": 0.71,
      "hand": "right"
    },
    {
      "midi": 75,
      "time": 184.25,
      "duration": 0.25,
      "velocity": 0.71,
      "hand": "right"
    },
    {
      "midi": 72,
      "time": 184.5,
      "duration": 0.25,
      "velocity": 0.71,
      "hand": "right"
    },
    {
      "midi": 74,
      "time": 184.75,
      "duration": 0.25,
      "velocity": 0.71,
      "hand": "right"
    },
    {
      "midi": 70,
      "time": 185,
      "duration": 0.5,
      "velocity": 0.71,
      "hand": "right"
    },
    {
      "midi": 56,
      "time": 185.5,
      "duration": 0.5,
      "velocity": 0.68,
      "hand": "left"
    },
    {
      "midi": 63,
      "time": 185.5,
      "duration": 0.5,
      "velocity": 0.68,
      "hand": "right"
    },
    {
      "midi": 65,
      "time": 185.5,
      "duration": 0.5,
      "velocity": 0.71,
      "hand": "right"
    },
    {
      "midi": 72,
      "time": 185.5,
      "duration": 0.5,
      "velocity": 0.71,
      "hand": "right"
    },
    {
      "midi": 51,
      "time": 186,
      "duration": 1.5,
      "velocity": 0.68,
      "hand": "left"
    },
    {
      "midi": 58,
      "time": 186,
      "duration": 1.5,
      "velocity": 0.68,
      "hand": "left"
    },
    {
      "midi": 63,
      "time": 186,
      "duration": 1.5,
      "velocity": 0.68,
      "hand": "right"
    },
    {
      "midi": 67,
      "time": 186,
      "duration": 1.5,
      "velocity": 0.71,
      "hand": "right"
    },
    {
      "midi": 70,
      "time": 186,
      "duration": 1.5,
      "velocity": 0.71,
      "hand": "right"
    },
    {
      "midi": 75,
      "time": 186,
      "duration": 1.5,
      "velocity": 0.71,
      "hand": "right"
    },
    {
      "midi": 79,
      "time": 186,
      "duration": 1.5,
      "velocity": 0.71,
      "hand": "right"
    },
    {
      "midi": 77,
      "time": 187.5,
      "duration": 0.125,
      "velocity": 0.71,
      "hand": "right"
    },
    {
      "midi": 77,
      "time": 187.5,
      "duration": 0.25,
      "velocity": 0.71,
      "hand": "right"
    },
    {
      "midi": 79,
      "time": 187.5,
      "duration": 0.125,
      "velocity": 0.71,
      "hand": "right"
    },
    {
      "midi": 75,
      "time": 187.75,
      "duration": 0.25,
      "velocity": 0.71,
      "hand": "right"
    },
    {
      "midi": 74,
      "time": 188,
      "duration": 0.25,
      "velocity": 0.71,
      "hand": "right"
    },
    {
      "midi": 75,
      "time": 188.25,
      "duration": 0.25,
      "velocity": 0.71,
      "hand": "right"
    },
    {
      "midi": 72,
      "time": 188.5,
      "duration": 0.25,
      "velocity": 0.71,
      "hand": "right"
    },
    {
      "midi": 74,
      "time": 188.75,
      "duration": 0.25,
      "velocity": 0.71,
      "hand": "right"
    },
    {
      "midi": 70,
      "time": 189,
      "duration": 0.5,
      "velocity": 0.71,
      "hand": "right"
    },
    {
      "midi": 56,
      "time": 189.5,
      "duration": 0.5,
      "velocity": 0.68,
      "hand": "left"
    },
    {
      "midi": 63,
      "time": 189.5,
      "duration": 0.5,
      "velocity": 0.68,
      "hand": "right"
    },
    {
      "midi": 65,
      "time": 189.5,
      "duration": 0.5,
      "velocity": 0.71,
      "hand": "right"
    },
    {
      "midi": 72,
      "time": 189.5,
      "duration": 0.5,
      "velocity": 0.71,
      "hand": "right"
    },
    {
      "midi": 51,
      "time": 190,
      "duration": 0.5,
      "velocity": 0.68,
      "hand": "left"
    },
    {
      "midi": 58,
      "time": 190,
      "duration": 0.5,
      "velocity": 0.68,
      "hand": "left"
    },
    {
      "midi": 63,
      "time": 190,
      "duration": 0.5,
      "velocity": 0.68,
      "hand": "right"
    },
    {
      "midi": 67,
      "time": 190,
      "duration": 0.5,
      "velocity": 0.68,
      "hand": "right"
    },
    {
      "midi": 70,
      "time": 190,
      "duration": 0.5,
      "velocity": 0.68,
      "hand": "right"
    },
    {
      "midi": 79,
      "time": 190,
      "duration": 0.5,
      "velocity": 0.68,
      "hand": "right"
    },
    {
      "midi": 51,
      "time": 190.5,
      "duration": 0.5,
      "velocity": 0.68,
      "hand": "left"
    },
    {
      "midi": 58,
      "time": 190.5,
      "duration": 0.5,
      "velocity": 0.68,
      "hand": "left"
    },
    {
      "midi": 63,
      "time": 190.5,
      "duration": 0.5,
      "velocity": 0.68,
      "hand": "right"
    },
    {
      "midi": 67,
      "time": 190.5,
      "duration": 0.5,
      "velocity": 0.68,
      "hand": "right"
    },
    {
      "midi": 70,
      "time": 190.5,
      "duration": 0.5,
      "velocity": 0.68,
      "hand": "right"
    },
    {
      "midi": 79,
      "time": 190.5,
      "duration": 0.5,
      "velocity": 0.68,
      "hand": "right"
    },
    {
      "midi": 53,
      "time": 191,
      "duration": 0.5,
      "velocity": 0.68,
      "hand": "left"
    },
    {
      "midi": 58,
      "time": 191,
      "duration": 0.5,
      "velocity": 0.68,
      "hand": "left"
    },
    {
      "midi": 65,
      "time": 191,
      "duration": 0.5,
      "velocity": 0.68,
      "hand": "right"
    },
    {
      "midi": 68,
      "time": 191,
      "duration": 0.5,
      "velocity": 0.68,
      "hand": "right"
    },
    {
      "midi": 70,
      "time": 191,
      "duration": 0.5,
      "velocity": 0.68,
      "hand": "right"
    },
    {
      "midi": 80,
      "time": 191,
      "duration": 0.5,
      "velocity": 0.68,
      "hand": "right"
    },
    {
      "midi": 51,
      "time": 191.5,
      "duration": 0.5,
      "velocity": 0.68,
      "hand": "left"
    },
    {
      "midi": 58,
      "time": 191.5,
      "duration": 0.5,
      "velocity": 0.68,
      "hand": "left"
    },
    {
      "midi": 63,
      "time": 191.5,
      "duration": 0.5,
      "velocity": 0.68,
      "hand": "right"
    },
    {
      "midi": 67,
      "time": 191.5,
      "duration": 0.5,
      "velocity": 0.68,
      "hand": "right"
    },
    {
      "midi": 70,
      "time": 191.5,
      "duration": 0.5,
      "velocity": 0.68,
      "hand": "right"
    },
    {
      "midi": 79,
      "time": 191.5,
      "duration": 0.5,
      "velocity": 0.68,
      "hand": "right"
    },
    {
      "midi": 50,
      "time": 192,
      "duration": 0.5,
      "velocity": 0.68,
      "hand": "left"
    },
    {
      "midi": 58,
      "time": 192,
      "duration": 0.5,
      "velocity": 0.68,
      "hand": "left"
    },
    {
      "midi": 62,
      "time": 192,
      "duration": 0.5,
      "velocity": 0.68,
      "hand": "right"
    },
    {
      "midi": 65,
      "time": 192,
      "duration": 0.5,
      "velocity": 0.68,
      "hand": "right"
    },
    {
      "midi": 70,
      "time": 192,
      "duration": 0.5,
      "velocity": 0.68,
      "hand": "right"
    },
    {
      "midi": 77,
      "time": 192,
      "duration": 0.5,
      "velocity": 0.68,
      "hand": "right"
    },
    {
      "midi": 51,
      "time": 192.5,
      "duration": 0.5,
      "velocity": 0.68,
      "hand": "left"
    },
    {
      "midi": 58,
      "time": 192.5,
      "duration": 0.5,
      "velocity": 0.68,
      "hand": "left"
    },
    {
      "midi": 63,
      "time": 192.5,
      "duration": 0.5,
      "velocity": 0.68,
      "hand": "right"
    },
    {
      "midi": 67,
      "time": 192.5,
      "duration": 0.5,
      "velocity": 0.68,
      "hand": "right"
    },
    {
      "midi": 70,
      "time": 192.5,
      "duration": 0.5,
      "velocity": 0.68,
      "hand": "right"
    },
    {
      "midi": 79,
      "time": 192.5,
      "duration": 0.5,
      "velocity": 0.68,
      "hand": "right"
    },
    {
      "midi": 48,
      "time": 193,
      "duration": 0.5,
      "velocity": 0.68,
      "hand": "left"
    },
    {
      "midi": 58,
      "time": 193,
      "duration": 0.5,
      "velocity": 0.68,
      "hand": "left"
    },
    {
      "midi": 60,
      "time": 193,
      "duration": 0.5,
      "velocity": 0.68,
      "hand": "right"
    },
    {
      "midi": 63,
      "time": 193,
      "duration": 0.5,
      "velocity": 0.68,
      "hand": "right"
    },
    {
      "midi": 70,
      "time": 193,
      "duration": 0.5,
      "velocity": 0.68,
      "hand": "right"
    },
    {
      "midi": 75,
      "time": 193,
      "duration": 0.5,
      "velocity": 0.68,
      "hand": "right"
    },
    {
      "midi": 50,
      "time": 193.5,
      "duration": 0.5,
      "velocity": 0.68,
      "hand": "left"
    },
    {
      "midi": 58,
      "time": 193.5,
      "duration": 0.5,
      "velocity": 0.68,
      "hand": "left"
    },
    {
      "midi": 62,
      "time": 193.5,
      "duration": 0.5,
      "velocity": 0.68,
      "hand": "right"
    },
    {
      "midi": 65,
      "time": 193.5,
      "duration": 0.5,
      "velocity": 0.68,
      "hand": "right"
    },
    {
      "midi": 70,
      "time": 193.5,
      "duration": 0.5,
      "velocity": 0.68,
      "hand": "right"
    },
    {
      "midi": 77,
      "time": 193.5,
      "duration": 0.5,
      "velocity": 0.68,
      "hand": "right"
    },
    {
      "midi": 51,
      "time": 194,
      "duration": 0.5,
      "velocity": 0.68,
      "hand": "left"
    },
    {
      "midi": 58,
      "time": 194,
      "duration": 0.5,
      "velocity": 0.68,
      "hand": "left"
    },
    {
      "midi": 63,
      "time": 194,
      "duration": 0.5,
      "velocity": 0.68,
      "hand": "right"
    },
    {
      "midi": 67,
      "time": 194,
      "duration": 0.5,
      "velocity": 0.75,
      "hand": "right"
    },
    {
      "midi": 70,
      "time": 194,
      "duration": 0.5,
      "velocity": 0.75,
      "hand": "right"
    },
    {
      "midi": 79,
      "time": 194,
      "duration": 0.5,
      "velocity": 0.75,
      "hand": "right"
    },
    {
      "midi": 55,
      "time": 194.5,
      "duration": 1,
      "velocity": 0.68,
      "hand": "left"
    },
    {
      "midi": 63,
      "time": 194.5,
      "duration": 1,
      "velocity": 0.68,
      "hand": "right"
    },
    {
      "midi": 67,
      "time": 194.5,
      "duration": 1,
      "velocity": 0.68,
      "hand": "right"
    },
    {
      "midi": 70,
      "time": 194.5,
      "duration": 1,
      "velocity": 0.75,
      "hand": "right"
    },
    {
      "midi": 75,
      "time": 194.5,
      "duration": 1,
      "velocity": 0.75,
      "hand": "right"
    },
    {
      "midi": 82,
      "time": 194.5,
      "duration": 1,
      "velocity": 0.75,
      "hand": "right"
    },
    {
      "midi": 56,
      "time": 195.5,
      "duration": 1,
      "velocity": 0.68,
      "hand": "left"
    },
    {
      "midi": 63,
      "time": 195.5,
      "duration": 1,
      "velocity": 0.68,
      "hand": "right"
    },
    {
      "midi": 68,
      "time": 195.5,
      "duration": 1,
      "velocity": 0.68,
      "hand": "right"
    },
    {
      "midi": 72,
      "time": 195.5,
      "duration": 1,
      "velocity": 0.75,
      "hand": "right"
    },
    {
      "midi": 75,
      "time": 195.5,
      "duration": 1,
      "velocity": 0.75,
      "hand": "right"
    },
    {
      "midi": 84,
      "time": 195.5,
      "duration": 1,
      "velocity": 0.75,
      "hand": "right"
    },
    {
      "midi": 55,
      "time": 196.5,
      "duration": 0.5,
      "velocity": 0.68,
      "hand": "left"
    },
    {
      "midi": 63,
      "time": 196.5,
      "duration": 0.5,
      "velocity": 0.68,
      "hand": "right"
    },
    {
      "midi": 67,
      "time": 196.5,
      "duration": 0.5,
      "velocity": 0.68,
      "hand": "right"
    },
    {
      "midi": 70,
      "time": 196.5,
      "duration": 0.5,
      "velocity": 0.75,
      "hand": "right"
    },
    {
      "midi": 75,
      "time": 196.5,
      "duration": 0.5,
      "velocity": 0.75,
      "hand": "right"
    },
    {
      "midi": 82,
      "time": 196.5,
      "duration": 0.5,
      "velocity": 0.75,
      "hand": "right"
    },
    {
      "midi": 50,
      "time": 197,
      "duration": 0.5,
      "velocity": 0.68,
      "hand": "left"
    },
    {
      "midi": 58,
      "time": 197,
      "duration": 0.5,
      "velocity": 0.68,
      "hand": "left"
    },
    {
      "midi": 62,
      "time": 197,
      "duration": 0.5,
      "velocity": 0.68,
      "hand": "right"
    },
    {
      "midi": 65,
      "time": 197,
      "duration": 0.5,
      "velocity": 0.75,
      "hand": "right"
    },
    {
      "midi": 70,
      "time": 197,
      "duration": 0.5,
      "velocity": 0.75,
      "hand": "right"
    },
    {
      "midi": 77,
      "time": 197,
      "duration": 0.5,
      "velocity": 0.75,
      "hand": "right"
    },
    {
      "midi": 69,
      "time": 197.5,
      "duration": 0.25,
      "velocity": 0.75,
      "hand": "right"
    },
    {
      "midi": 70,
      "time": 197.75,
      "duration": 0.25,
      "velocity": 0.75,
      "hand": "right"
    },
    {
      "midi": 74,
      "time": 197.75,
      "duration": 0.25,
      "velocity": 0.75,
      "hand": "right"
    },
    {
      "midi": 39,
      "time": 198,
      "duration": 0.5,
      "velocity": 0.71,
      "hand": "left"
    },
    {
      "midi": 46,
      "time": 198,
      "duration": 0.5,
      "velocity": 0.71,
      "hand": "left"
    },
    {
      "midi": 63,
      "time": 198,
      "duration": 0.5,
      "velocity": 0.71,
      "hand": "right"
    },
    {
      "midi": 67,
      "time": 198,
      "duration": 0.5,
      "velocity": 0.71,
      "hand": "right"
    },
    {
      "midi": 70,
      "time": 198,
      "duration": 0.5,
      "velocity": 0.71,
      "hand": "right"
    },
    {
      "midi": 75,
      "time": 198,
      "duration": 0.5,
      "velocity": 0.71,
      "hand": "right"
    },
    {
      "midi": 77,
      "time": 198,
      "duration": 0.25,
      "velocity": 0.75,
      "hand": "right"
    },
    {
      "midi": 79,
      "time": 198,
      "duration": 1.5,
      "velocity": 0.75,
      "hand": "right"
    },
    {
      "midi": 45,
      "time": 198.25,
      "duration": 0.25,
      "velocity": 0.61,
      "hand": "left"
    },
    {
      "midi": 46,
      "time": 198.5,
      "duration": 0.25,
      "velocity": 0.61,
      "hand": "left"
    },
    {
      "midi": 51,
      "time": 198.75,
      "duration": 0.25,
      "velocity": 0.61,
      "hand": "left"
    },
    {
      "midi": 55,
      "time": 199,
      "duration": 0.25,
      "velocity": 0.75,
      "hand": "left"
    },
    {
      "midi": 58,
      "time": 199.25,
      "duration": 0.25,
      "velocity": 0.75,
      "hand": "left"
    },
    {
      "midi": 63,
      "time": 199.5,
      "duration": 0.25,
      "velocity": 0.75,
      "hand": "right"
    },
    {
      "midi": 77,
      "time": 199.5,
      "duration": 0.125,
      "velocity": 0.52,
      "hand": "right"
    },
    {
      "midi": 77,
      "time": 199.5,
      "duration": 0.25,
      "velocity": 0.61,
      "hand": "right"
    },
    {
      "midi": 79,
      "time": 199.5,
      "duration": 0.125,
      "velocity": 0.52,
      "hand": "right"
    },
    {
      "midi": 67,
      "time": 199.75,
      "duration": 0.25,
      "velocity": 0.75,
      "hand": "right"
    },
    {
      "midi": 75,
      "time": 199.75,
      "duration": 0.25,
      "velocity": 0.61,
      "hand": "right"
    },
    {
      "midi": 70,
      "time": 200,
      "duration": 0.5,
      "velocity": 0.75,
      "hand": "right"
    },
    {
      "midi": 74,
      "time": 200,
      "duration": 0.25,
      "velocity": 0.61,
      "hand": "right"
    },
    {
      "midi": 75,
      "time": 200.25,
      "duration": 0.25,
      "velocity": 0.61,
      "hand": "right"
    },
    {
      "midi": 63,
      "time": 200.5,
      "duration": 0.5,
      "velocity": 0.75,
      "hand": "right"
    },
    {
      "midi": 66,
      "time": 200.5,
      "duration": 0.5,
      "velocity": 0.71,
      "hand": "right"
    },
    {
      "midi": 69,
      "time": 200.5,
      "duration": 0.5,
      "velocity": 0.71,
      "hand": "right"
    },
    {
      "midi": 72,
      "time": 200.5,
      "duration": 0.25,
      "velocity": 0.61,
      "hand": "right"
    },
    {
      "midi": 74,
      "time": 200.75,
      "duration": 0.25,
      "velocity": 0.61,
      "hand": "right"
    },
    {
      "midi": 67,
      "time": 201,
      "duration": 0.5,
      "velocity": 0.71,
      "hand": "right"
    },
    {
      "midi": 70,
      "time": 201,
      "duration": 0.5,
      "velocity": 0.61,
      "hand": "right"
    },
    {
      "midi": 44,
      "time": 201.5,
      "duration": 0.5,
      "velocity": 0.75,
      "hand": "left"
    },
    {
      "midi": 51,
      "time": 201.5,
      "duration": 0.5,
      "velocity": 0.75,
      "hand": "left"
    },
    {
      "midi": 56,
      "time": 201.5,
      "duration": 0.5,
      "velocity": 0.75,
      "hand": "left"
    },
    {
      "midi": 60,
      "time": 201.5,
      "duration": 0.5,
      "velocity": 0.75,
      "hand": "right"
    },
    {
      "midi": 65,
      "time": 201.5,
      "duration": 0.5,
      "velocity": 0.75,
      "hand": "right"
    },
    {
      "midi": 72,
      "time": 201.5,
      "duration": 0.5,
      "velocity": 0.61,
      "hand": "right"
    },
    {
      "midi": 39,
      "time": 202,
      "duration": 0.5,
      "velocity": 0.71,
      "hand": "left"
    },
    {
      "midi": 46,
      "time": 202,
      "duration": 0.5,
      "velocity": 0.71,
      "hand": "left"
    },
    {
      "midi": 63,
      "time": 202,
      "duration": 0.5,
      "velocity": 0.71,
      "hand": "right"
    },
    {
      "midi": 67,
      "time": 202,
      "duration": 0.5,
      "velocity": 0.75,
      "hand": "right"
    },
    {
      "midi": 70,
      "time": 202,
      "duration": 0.5,
      "velocity": 0.75,
      "hand": "right"
    },
    {
      "midi": 75,
      "time": 202,
      "duration": 0.5,
      "velocity": 0.75,
      "hand": "right"
    },
    {
      "midi": 79,
      "time": 202,
      "duration": 1.5,
      "velocity": 0.75,
      "hand": "right"
    },
    {
      "midi": 45,
      "time": 202.25,
      "duration": 0.25,
      "velocity": 0.61,
      "hand": "left"
    },
    {
      "midi": 46,
      "time": 202.5,
      "duration": 0.25,
      "velocity": 0.61,
      "hand": "left"
    },
    {
      "midi": 51,
      "time": 202.75,
      "duration": 0.25,
      "velocity": 0.61,
      "hand": "left"
    },
    {
      "midi": 55,
      "time": 203,
      "duration": 0.25,
      "velocity": 0.75,
      "hand": "left"
    },
    {
      "midi": 58,
      "time": 203.25,
      "duration": 0.25,
      "velocity": 0.75,
      "hand": "left"
    },
    {
      "midi": 63,
      "time": 203.5,
      "duration": 0.25,
      "velocity": 0.75,
      "hand": "right"
    },
    {
      "midi": 77,
      "time": 203.5,
      "duration": 0.125,
      "velocity": 0.38,
      "hand": "right"
    },
    {
      "midi": 77,
      "time": 203.5,
      "duration": 0.25,
      "velocity": 0.61,
      "hand": "right"
    },
    {
      "midi": 79,
      "time": 203.5,
      "duration": 0.125,
      "velocity": 0.38,
      "hand": "right"
    },
    {
      "midi": 67,
      "time": 203.75,
      "duration": 0.25,
      "velocity": 0.75,
      "hand": "right"
    },
    {
      "midi": 75,
      "time": 203.75,
      "duration": 0.25,
      "velocity": 0.61,
      "hand": "right"
    },
    {
      "midi": 70,
      "time": 204,
      "duration": 0.5,
      "velocity": 0.75,
      "hand": "right"
    },
    {
      "midi": 74,
      "time": 204,
      "duration": 0.25,
      "velocity": 0.61,
      "hand": "right"
    },
    {
      "midi": 75,
      "time": 204.25,
      "duration": 0.25,
      "velocity": 0.61,
      "hand": "right"
    },
    {
      "midi": 63,
      "time": 204.5,
      "duration": 0.5,
      "velocity": 0.75,
      "hand": "right"
    },
    {
      "midi": 66,
      "time": 204.5,
      "duration": 0.5,
      "velocity": 0.75,
      "hand": "right"
    },
    {
      "midi": 69,
      "time": 204.5,
      "duration": 0.5,
      "velocity": 0.75,
      "hand": "right"
    },
    {
      "midi": 72,
      "time": 204.5,
      "duration": 0.25,
      "velocity": 0.61,
      "hand": "right"
    },
    {
      "midi": 74,
      "time": 204.75,
      "duration": 0.25,
      "velocity": 0.61,
      "hand": "right"
    },
    {
      "midi": 67,
      "time": 205,
      "duration": 0.5,
      "velocity": 0.75,
      "hand": "right"
    },
    {
      "midi": 70,
      "time": 205,
      "duration": 0.5,
      "velocity": 0.61,
      "hand": "right"
    },
    {
      "midi": 44,
      "time": 205.5,
      "duration": 0.5,
      "velocity": 0.75,
      "hand": "left"
    },
    {
      "midi": 51,
      "time": 205.5,
      "duration": 0.5,
      "velocity": 0.75,
      "hand": "left"
    },
    {
      "midi": 56,
      "time": 205.5,
      "duration": 0.5,
      "velocity": 0.75,
      "hand": "left"
    },
    {
      "midi": 60,
      "time": 205.5,
      "duration": 0.5,
      "velocity": 0.75,
      "hand": "right"
    },
    {
      "midi": 65,
      "time": 205.5,
      "duration": 0.5,
      "velocity": 0.75,
      "hand": "right"
    },
    {
      "midi": 72,
      "time": 205.5,
      "duration": 0.5,
      "velocity": 0.61,
      "hand": "right"
    },
    {
      "midi": 39,
      "time": 206,
      "duration": 0.5,
      "velocity": 0.75,
      "hand": "left"
    },
    {
      "midi": 46,
      "time": 206,
      "duration": 0.5,
      "velocity": 0.75,
      "hand": "left"
    },
    {
      "midi": 51,
      "time": 206,
      "duration": 0.5,
      "velocity": 0.75,
      "hand": "left"
    },
    {
      "midi": 67,
      "time": 206,
      "duration": 0.5,
      "velocity": 0.61,
      "hand": "right"
    },
    {
      "midi": 70,
      "time": 206,
      "duration": 0.5,
      "velocity": 0.61,
      "hand": "right"
    },
    {
      "midi": 75,
      "time": 206,
      "duration": 0.5,
      "velocity": 0.61,
      "hand": "right"
    },
    {
      "midi": 79,
      "time": 206,
      "duration": 0.5,
      "velocity": 0.61,
      "hand": "right"
    },
    {
      "midi": 51,
      "time": 206.5,
      "duration": 0.5,
      "velocity": 0.75,
      "hand": "left"
    },
    {
      "midi": 58,
      "time": 206.5,
      "duration": 0.5,
      "velocity": 0.75,
      "hand": "left"
    },
    {
      "midi": 63,
      "time": 206.5,
      "duration": 0.5,
      "velocity": 0.75,
      "hand": "right"
    },
    {
      "midi": 67,
      "time": 206.5,
      "duration": 0.5,
      "velocity": 0.61,
      "hand": "right"
    },
    {
      "midi": 70,
      "time": 206.5,
      "duration": 0.5,
      "velocity": 0.61,
      "hand": "right"
    },
    {
      "midi": 79,
      "time": 206.5,
      "duration": 0.5,
      "velocity": 0.61,
      "hand": "right"
    },
    {
      "midi": 53,
      "time": 207,
      "duration": 0.5,
      "velocity": 0.75,
      "hand": "left"
    },
    {
      "midi": 58,
      "time": 207,
      "duration": 0.5,
      "velocity": 0.75,
      "hand": "left"
    },
    {
      "midi": 65,
      "time": 207,
      "duration": 0.5,
      "velocity": 0.75,
      "hand": "right"
    },
    {
      "midi": 68,
      "time": 207,
      "duration": 0.5,
      "velocity": 0.61,
      "hand": "right"
    },
    {
      "midi": 70,
      "time": 207,
      "duration": 0.5,
      "velocity": 0.61,
      "hand": "right"
    },
    {
      "midi": 80,
      "time": 207,
      "duration": 0.5,
      "velocity": 0.61,
      "hand": "right"
    },
    {
      "midi": 51,
      "time": 207.5,
      "duration": 0.5,
      "velocity": 0.75,
      "hand": "left"
    },
    {
      "midi": 58,
      "time": 207.5,
      "duration": 0.5,
      "velocity": 0.75,
      "hand": "left"
    },
    {
      "midi": 63,
      "time": 207.5,
      "duration": 0.5,
      "velocity": 0.75,
      "hand": "right"
    },
    {
      "midi": 67,
      "time": 207.5,
      "duration": 0.5,
      "velocity": 0.61,
      "hand": "right"
    },
    {
      "midi": 70,
      "time": 207.5,
      "duration": 0.5,
      "velocity": 0.61,
      "hand": "right"
    },
    {
      "midi": 79,
      "time": 207.5,
      "duration": 0.5,
      "velocity": 0.61,
      "hand": "right"
    },
    {
      "midi": 50,
      "time": 208,
      "duration": 0.5,
      "velocity": 0.75,
      "hand": "left"
    },
    {
      "midi": 58,
      "time": 208,
      "duration": 0.5,
      "velocity": 0.75,
      "hand": "left"
    },
    {
      "midi": 62,
      "time": 208,
      "duration": 0.5,
      "velocity": 0.75,
      "hand": "right"
    },
    {
      "midi": 65,
      "time": 208,
      "duration": 0.5,
      "velocity": 0.61,
      "hand": "right"
    },
    {
      "midi": 70,
      "time": 208,
      "duration": 0.5,
      "velocity": 0.61,
      "hand": "right"
    },
    {
      "midi": 77,
      "time": 208,
      "duration": 0.5,
      "velocity": 0.61,
      "hand": "right"
    },
    {
      "midi": 51,
      "time": 208.5,
      "duration": 0.5,
      "velocity": 0.75,
      "hand": "left"
    },
    {
      "midi": 58,
      "time": 208.5,
      "duration": 0.5,
      "velocity": 0.75,
      "hand": "left"
    },
    {
      "midi": 63,
      "time": 208.5,
      "duration": 0.5,
      "velocity": 0.75,
      "hand": "right"
    },
    {
      "midi": 67,
      "time": 208.5,
      "duration": 0.5,
      "velocity": 0.61,
      "hand": "right"
    },
    {
      "midi": 70,
      "time": 208.5,
      "duration": 0.5,
      "velocity": 0.61,
      "hand": "right"
    },
    {
      "midi": 79,
      "time": 208.5,
      "duration": 0.5,
      "velocity": 0.61,
      "hand": "right"
    },
    {
      "midi": 48,
      "time": 209,
      "duration": 0.5,
      "velocity": 0.75,
      "hand": "left"
    },
    {
      "midi": 55,
      "time": 209,
      "duration": 0.5,
      "velocity": 0.75,
      "hand": "left"
    },
    {
      "midi": 60,
      "time": 209,
      "duration": 0.5,
      "velocity": 0.75,
      "hand": "right"
    },
    {
      "midi": 63,
      "time": 209,
      "duration": 0.5,
      "velocity": 0.61,
      "hand": "right"
    },
    {
      "midi": 67,
      "time": 209,
      "duration": 0.5,
      "velocity": 0.61,
      "hand": "right"
    },
    {
      "midi": 75,
      "time": 209,
      "duration": 0.5,
      "velocity": 0.61,
      "hand": "right"
    },
    {
      "midi": 50,
      "time": 209.5,
      "duration": 0.5,
      "velocity": 0.75,
      "hand": "left"
    },
    {
      "midi": 55,
      "time": 209.5,
      "duration": 0.5,
      "velocity": 0.75,
      "hand": "left"
    },
    {
      "midi": 62,
      "time": 209.5,
      "duration": 0.5,
      "velocity": 0.75,
      "hand": "right"
    },
    {
      "midi": 65,
      "time": 209.5,
      "duration": 0.5,
      "velocity": 0.61,
      "hand": "right"
    },
    {
      "midi": 67,
      "time": 209.5,
      "duration": 0.5,
      "velocity": 0.61,
      "hand": "right"
    },
    {
      "midi": 77,
      "time": 209.5,
      "duration": 0.5,
      "velocity": 0.61,
      "hand": "right"
    },
    {
      "midi": 46,
      "time": 210,
      "duration": 0.5,
      "velocity": 0.75,
      "hand": "left"
    },
    {
      "midi": 55,
      "time": 210,
      "duration": 0.5,
      "velocity": 0.75,
      "hand": "left"
    },
    {
      "midi": 58,
      "time": 210,
      "duration": 0.5,
      "velocity": 0.75,
      "hand": "left"
    },
    {
      "midi": 62,
      "time": 210,
      "duration": 0.5,
      "velocity": 0.61,
      "hand": "right"
    },
    {
      "midi": 67,
      "time": 210,
      "duration": 0.5,
      "velocity": 0.61,
      "hand": "right"
    },
    {
      "midi": 74,
      "time": 210,
      "duration": 0.5,
      "velocity": 0.61,
      "hand": "right"
    },
    {
      "midi": 46,
      "time": 210.5,
      "duration": 0.5,
      "velocity": 0.76,
      "hand": "left"
    },
    {
      "midi": 55,
      "time": 210.5,
      "duration": 0.5,
      "velocity": 0.76,
      "hand": "left"
    },
    {
      "midi": 58,
      "time": 210.5,
      "duration": 0.5,
      "velocity": 0.76,
      "hand": "left"
    },
    {
      "midi": 62,
      "time": 210.5,
      "duration": 0.5,
      "velocity": 0.61,
      "hand": "right"
    },
    {
      "midi": 67,
      "time": 210.5,
      "duration": 0.5,
      "velocity": 0.61,
      "hand": "right"
    },
    {
      "midi": 74,
      "time": 210.5,
      "duration": 0.5,
      "velocity": 0.61,
      "hand": "right"
    },
    {
      "midi": 48,
      "time": 211,
      "duration": 0.5,
      "velocity": 0.77,
      "hand": "left"
    },
    {
      "midi": 55,
      "time": 211,
      "duration": 0.5,
      "velocity": 0.77,
      "hand": "left"
    },
    {
      "midi": 60,
      "time": 211,
      "duration": 0.5,
      "velocity": 0.77,
      "hand": "right"
    },
    {
      "midi": 63,
      "time": 211,
      "duration": 0.5,
      "velocity": 0.61,
      "hand": "right"
    },
    {
      "midi": 67,
      "time": 211,
      "duration": 0.5,
      "velocity": 0.61,
      "hand": "right"
    },
    {
      "midi": 75,
      "time": 211,
      "duration": 0.5,
      "velocity": 0.61,
      "hand": "right"
    },
    {
      "midi": 46,
      "time": 211.5,
      "duration": 0.5,
      "velocity": 0.79,
      "hand": "left"
    },
    {
      "midi": 55,
      "time": 211.5,
      "duration": 0.5,
      "velocity": 0.79,
      "hand": "left"
    },
    {
      "midi": 58,
      "time": 211.5,
      "duration": 0.5,
      "velocity": 0.79,
      "hand": "left"
    },
    {
      "midi": 62,
      "time": 211.5,
      "duration": 0.5,
      "velocity": 0.61,
      "hand": "right"
    },
    {
      "midi": 67,
      "time": 211.5,
      "duration": 0.5,
      "velocity": 0.61,
      "hand": "right"
    },
    {
      "midi": 74,
      "time": 211.5,
      "duration": 0.5,
      "velocity": 0.61,
      "hand": "right"
    },
    {
      "midi": 45,
      "time": 212,
      "duration": 0.5,
      "velocity": 0.8,
      "hand": "left"
    },
    {
      "midi": 55,
      "time": 212,
      "duration": 0.5,
      "velocity": 0.8,
      "hand": "left"
    },
    {
      "midi": 57,
      "time": 212,
      "duration": 0.5,
      "velocity": 0.8,
      "hand": "left"
    },
    {
      "midi": 60,
      "time": 212,
      "duration": 0.5,
      "velocity": 0.61,
      "hand": "right"
    },
    {
      "midi": 67,
      "time": 212,
      "duration": 0.5,
      "velocity": 0.61,
      "hand": "right"
    },
    {
      "midi": 72,
      "time": 212,
      "duration": 0.5,
      "velocity": 0.61,
      "hand": "right"
    },
    {
      "midi": 46,
      "time": 212.5,
      "duration": 0.5,
      "velocity": 0.82,
      "hand": "left"
    },
    {
      "midi": 55,
      "time": 212.5,
      "duration": 0.5,
      "velocity": 0.82,
      "hand": "left"
    },
    {
      "midi": 58,
      "time": 212.5,
      "duration": 0.5,
      "velocity": 0.82,
      "hand": "left"
    },
    {
      "midi": 62,
      "time": 212.5,
      "duration": 0.5,
      "velocity": 0.61,
      "hand": "right"
    },
    {
      "midi": 67,
      "time": 212.5,
      "duration": 0.5,
      "velocity": 0.61,
      "hand": "right"
    },
    {
      "midi": 74,
      "time": 212.5,
      "duration": 0.5,
      "velocity": 0.61,
      "hand": "right"
    },
    {
      "midi": 43,
      "time": 213,
      "duration": 0.5,
      "velocity": 0.83,
      "hand": "left"
    },
    {
      "midi": 50,
      "time": 213,
      "duration": 0.5,
      "velocity": 0.83,
      "hand": "left"
    },
    {
      "midi": 55,
      "time": 213,
      "duration": 0.5,
      "velocity": 0.83,
      "hand": "left"
    },
    {
      "midi": 58,
      "time": 213,
      "duration": 0.5,
      "velocity": 0.61,
      "hand": "left"
    },
    {
      "midi": 67,
      "time": 213,
      "duration": 0.5,
      "velocity": 0.61,
      "hand": "right"
    },
    {
      "midi": 70,
      "time": 213,
      "duration": 0.5,
      "velocity": 0.61,
      "hand": "right"
    },
    {
      "midi": 45,
      "time": 213.5,
      "duration": 0.5,
      "velocity": 0.84,
      "hand": "left"
    },
    {
      "midi": 50,
      "time": 213.5,
      "duration": 0.5,
      "velocity": 0.84,
      "hand": "left"
    },
    {
      "midi": 57,
      "time": 213.5,
      "duration": 0.5,
      "velocity": 0.84,
      "hand": "left"
    },
    {
      "midi": 60,
      "time": 213.5,
      "duration": 0.5,
      "velocity": 0.61,
      "hand": "right"
    },
    {
      "midi": 67,
      "time": 213.5,
      "duration": 0.5,
      "velocity": 0.61,
      "hand": "right"
    },
    {
      "midi": 72,
      "time": 213.5,
      "duration": 0.5,
      "velocity": 0.61,
      "hand": "right"
    },
    {
      "midi": 46,
      "time": 214,
      "duration": 0.5,
      "velocity": 0.86,
      "hand": "left"
    },
    {
      "midi": 50,
      "time": 214,
      "duration": 0.5,
      "velocity": 0.86,
      "hand": "left"
    },
    {
      "midi": 58,
      "time": 214,
      "duration": 0.5,
      "velocity": 0.86,
      "hand": "left"
    },
    {
      "midi": 62,
      "time": 214,
      "duration": 0.5,
      "velocity": 0.61,
      "hand": "right"
    },
    {
      "midi": 67,
      "time": 214,
      "duration": 0.5,
      "velocity": 0.61,
      "hand": "right"
    },
    {
      "midi": 74,
      "time": 214,
      "duration": 0.5,
      "velocity": 0.61,
      "hand": "right"
    },
    {
      "midi": 43,
      "time": 214.5,
      "duration": 1,
      "velocity": 0.87,
      "hand": "left"
    },
    {
      "midi": 50,
      "time": 214.5,
      "duration": 1,
      "velocity": 0.87,
      "hand": "left"
    },
    {
      "midi": 55,
      "time": 214.5,
      "duration": 1,
      "velocity": 0.87,
      "hand": "left"
    },
    {
      "midi": 58,
      "time": 214.5,
      "duration": 1,
      "velocity": 0.61,
      "hand": "left"
    },
    {
      "midi": 67,
      "time": 214.5,
      "duration": 1,
      "velocity": 0.61,
      "hand": "right"
    },
    {
      "midi": 70,
      "time": 214.5,
      "duration": 1,
      "velocity": 0.61,
      "hand": "right"
    },
    {
      "midi": 45,
      "time": 215.5,
      "duration": 0.5,
      "velocity": 0.9,
      "hand": "left"
    },
    {
      "midi": 50,
      "time": 215.5,
      "duration": 0.5,
      "velocity": 0.9,
      "hand": "left"
    },
    {
      "midi": 57,
      "time": 215.5,
      "duration": 0.5,
      "velocity": 0.9,
      "hand": "left"
    },
    {
      "midi": 60,
      "time": 215.5,
      "duration": 0.5,
      "velocity": 0.61,
      "hand": "right"
    },
    {
      "midi": 67,
      "time": 215.5,
      "duration": 0.5,
      "velocity": 0.61,
      "hand": "right"
    },
    {
      "midi": 72,
      "time": 215.5,
      "duration": 0.5,
      "velocity": 0.61,
      "hand": "right"
    },
    {
      "midi": 46,
      "time": 216,
      "duration": 0.5,
      "velocity": 0.91,
      "hand": "left"
    },
    {
      "midi": 50,
      "time": 216,
      "duration": 0.5,
      "velocity": 0.91,
      "hand": "left"
    },
    {
      "midi": 58,
      "time": 216,
      "duration": 0.5,
      "velocity": 0.91,
      "hand": "left"
    },
    {
      "midi": 62,
      "time": 216,
      "duration": 0.5,
      "velocity": 0.61,
      "hand": "right"
    },
    {
      "midi": 67,
      "time": 216,
      "duration": 0.5,
      "velocity": 0.61,
      "hand": "right"
    },
    {
      "midi": 74,
      "time": 216,
      "duration": 0.5,
      "velocity": 0.61,
      "hand": "right"
    },
    {
      "midi": 43,
      "time": 216.5,
      "duration": 1,
      "velocity": 0.93,
      "hand": "left"
    },
    {
      "midi": 50,
      "time": 216.5,
      "duration": 1,
      "velocity": 0.93,
      "hand": "left"
    },
    {
      "midi": 55,
      "time": 216.5,
      "duration": 1,
      "velocity": 0.93,
      "hand": "left"
    },
    {
      "midi": 58,
      "time": 216.5,
      "duration": 1,
      "velocity": 0.61,
      "hand": "left"
    },
    {
      "midi": 67,
      "time": 216.5,
      "duration": 1,
      "velocity": 0.61,
      "hand": "right"
    },
    {
      "midi": 70,
      "time": 216.5,
      "duration": 1,
      "velocity": 0.61,
      "hand": "right"
    },
    {
      "midi": 45,
      "time": 217.5,
      "duration": 0.5,
      "velocity": 0.96,
      "hand": "left"
    },
    {
      "midi": 50,
      "time": 217.5,
      "duration": 0.5,
      "velocity": 0.96,
      "hand": "left"
    },
    {
      "midi": 57,
      "time": 217.5,
      "duration": 0.5,
      "velocity": 0.96,
      "hand": "left"
    },
    {
      "midi": 60,
      "time": 217.5,
      "duration": 0.5,
      "velocity": 0.61,
      "hand": "right"
    },
    {
      "midi": 67,
      "time": 217.5,
      "duration": 0.5,
      "velocity": 0.61,
      "hand": "right"
    },
    {
      "midi": 72,
      "time": 217.5,
      "duration": 0.5,
      "velocity": 0.61,
      "hand": "right"
    },
    {
      "midi": 46,
      "time": 218,
      "duration": 0.5,
      "velocity": 0.97,
      "hand": "left"
    },
    {
      "midi": 50,
      "time": 218,
      "duration": 0.5,
      "velocity": 0.97,
      "hand": "left"
    },
    {
      "midi": 58,
      "time": 218,
      "duration": 0.5,
      "velocity": 0.97,
      "hand": "left"
    },
    {
      "midi": 62,
      "time": 218,
      "duration": 0.5,
      "velocity": 0.61,
      "hand": "right"
    },
    {
      "midi": 67,
      "time": 218,
      "duration": 0.5,
      "velocity": 0.61,
      "hand": "right"
    },
    {
      "midi": 74,
      "time": 218,
      "duration": 0.5,
      "velocity": 0.61,
      "hand": "right"
    },
    {
      "midi": 43,
      "time": 218.5,
      "duration": 0.5,
      "velocity": 0.97,
      "hand": "left"
    },
    {
      "midi": 50,
      "time": 218.5,
      "duration": 0.5,
      "velocity": 0.97,
      "hand": "left"
    },
    {
      "midi": 55,
      "time": 218.5,
      "duration": 0.5,
      "velocity": 0.97,
      "hand": "left"
    },
    {
      "midi": 58,
      "time": 218.5,
      "duration": 0.5,
      "velocity": 0.61,
      "hand": "left"
    },
    {
      "midi": 67,
      "time": 218.5,
      "duration": 0.5,
      "velocity": 0.61,
      "hand": "right"
    },
    {
      "midi": 70,
      "time": 218.5,
      "duration": 0.5,
      "velocity": 0.61,
      "hand": "right"
    },
    {
      "midi": 46,
      "time": 219,
      "duration": 0.5,
      "velocity": 0.97,
      "hand": "left"
    },
    {
      "midi": 55,
      "time": 219,
      "duration": 0.5,
      "velocity": 0.97,
      "hand": "left"
    },
    {
      "midi": 58,
      "time": 219,
      "duration": 0.5,
      "velocity": 0.97,
      "hand": "left"
    },
    {
      "midi": 62,
      "time": 219,
      "duration": 0.5,
      "velocity": 0.61,
      "hand": "right"
    },
    {
      "midi": 67,
      "time": 219,
      "duration": 0.5,
      "velocity": 0.61,
      "hand": "right"
    },
    {
      "midi": 74,
      "time": 219,
      "duration": 0.5,
      "velocity": 0.61,
      "hand": "right"
    },
    {
      "midi": 48,
      "time": 219.5,
      "duration": 0.5,
      "velocity": 0.97,
      "hand": "left"
    },
    {
      "midi": 55,
      "time": 219.5,
      "duration": 0.5,
      "velocity": 0.97,
      "hand": "left"
    },
    {
      "midi": 60,
      "time": 219.5,
      "duration": 0.5,
      "velocity": 0.97,
      "hand": "right"
    },
    {
      "midi": 63,
      "time": 219.5,
      "duration": 0.5,
      "velocity": 0.61,
      "hand": "right"
    },
    {
      "midi": 75,
      "time": 219.5,
      "duration": 0.5,
      "velocity": 0.61,
      "hand": "right"
    },
    {
      "midi": 43,
      "time": 220,
      "duration": 0.5,
      "velocity": 0.8,
      "hand": "left"
    },
    {
      "midi": 46,
      "time": 220,
      "duration": 0.5,
      "velocity": 0.8,
      "hand": "left"
    },
    {
      "midi": 55,
      "time": 220,
      "duration": 0.5,
      "velocity": 0.61,
      "hand": "left"
    },
    {
      "midi": 50,
      "time": 220.5,
      "duration": 0.125,
      "velocity": 0.8,
      "hand": "left"
    },
    {
      "midi": 55,
      "time": 220.5,
      "duration": 0.125,
      "velocity": 0.8,
      "hand": "left"
    },
    {
      "midi": 58,
      "time": 220.5,
      "duration": 0.125,
      "velocity": 0.61,
      "hand": "left"
    },
    {
      "midi": 62,
      "time": 220.5,
      "duration": 0.125,
      "velocity": 0.61,
      "hand": "right"
    },
    {
      "midi": 58,
      "time": 220.75,
      "duration": 0.125,
      "velocity": 0.8,
      "hand": "left"
    },
    {
      "midi": 62,
      "time": 220.75,
      "duration": 0.125,
      "velocity": 0.8,
      "hand": "right"
    },
    {
      "midi": 67,
      "time": 220.75,
      "duration": 0.125,
      "velocity": 0.61,
      "hand": "right"
    },
    {
      "midi": 70,
      "time": 220.75,
      "duration": 0.125,
      "velocity": 0.61,
      "hand": "right"
    },
    {
      "midi": 67,
      "time": 221,
      "duration": 0.125,
      "velocity": 0.8,
      "hand": "right"
    },
    {
      "midi": 70,
      "time": 221,
      "duration": 0.5,
      "velocity": 0.8,
      "hand": "right"
    },
    {
      "midi": 74,
      "time": 221,
      "duration": 0.125,
      "velocity": 0.61,
      "hand": "right"
    },
    {
      "midi": 79,
      "time": 221,
      "duration": 0.5,
      "velocity": 0.61,
      "hand": "right"
    },
    {
      "midi": 39,
      "time": 222,
      "duration": 1.5,
      "velocity": 0.68,
      "hand": "left"
    },
    {
      "midi": 46,
      "time": 222,
      "duration": 1.5,
      "velocity": 0.68,
      "hand": "left"
    },
    {
      "midi": 51,
      "time": 222,
      "duration": 1.5,
      "velocity": 0.68,
      "hand": "left"
    },
    {
      "midi": 55,
      "time": 222,
      "duration": 1.5,
      "velocity": 0.75,
      "hand": "left"
    },
    {
      "midi": 58,
      "time": 222,
      "duration": 1.5,
      "velocity": 0.75,
      "hand": "left"
    },
    {
      "midi": 63,
      "time": 222,
      "duration": 1.5,
      "velocity": 0.75,
      "hand": "right"
    },
    {
      "midi": 67,
      "time": 222,
      "duration": 1.5,
      "velocity": 0.61,
      "hand": "right"
    },
    {
      "midi": 65,
      "time": 223.5,
      "duration": 0.125,
      "velocity": 0.61,
      "hand": "right"
    },
    {
      "midi": 65,
      "time": 223.5,
      "duration": 0.25,
      "velocity": 0.61,
      "hand": "right"
    },
    {
      "midi": 67,
      "time": 223.5,
      "duration": 0.125,
      "velocity": 0.61,
      "hand": "right"
    },
    {
      "midi": 63,
      "time": 223.75,
      "duration": 0.25,
      "velocity": 0.61,
      "hand": "right"
    },
    {
      "midi": 62,
      "time": 224,
      "duration": 0.25,
      "velocity": 0.61,
      "hand": "right"
    },
    {
      "midi": 63,
      "time": 224.25,
      "duration": 0.25,
      "velocity": 0.61,
      "hand": "right"
    },
    {
      "midi": 60,
      "time": 224.5,
      "duration": 0.25,
      "velocity": 0.61,
      "hand": "right"
    },
    {
      "midi": 62,
      "time": 224.75,
      "duration": 0.25,
      "velocity": 0.61,
      "hand": "right"
    },
    {
      "midi": 58,
      "time": 225,
      "duration": 0.5,
      "velocity": 0.61,
      "hand": "left"
    },
    {
      "midi": 44,
      "time": 225.5,
      "duration": 0.5,
      "velocity": 0.68,
      "hand": "left"
    },
    {
      "midi": 51,
      "time": 225.5,
      "duration": 0.5,
      "velocity": 0.68,
      "hand": "left"
    },
    {
      "midi": 53,
      "time": 225.5,
      "duration": 0.5,
      "velocity": 0.75,
      "hand": "left"
    },
    {
      "midi": 60,
      "time": 225.5,
      "duration": 0.5,
      "velocity": 0.61,
      "hand": "right"
    },
    {
      "midi": 39,
      "time": 226,
      "duration": 1.5,
      "velocity": 0.68,
      "hand": "left"
    },
    {
      "midi": 46,
      "time": 226,
      "duration": 1.5,
      "velocity": 0.68,
      "hand": "left"
    },
    {
      "midi": 51,
      "time": 226,
      "duration": 1.5,
      "velocity": 0.68,
      "hand": "left"
    },
    {
      "midi": 55,
      "time": 226,
      "duration": 1.5,
      "velocity": 0.75,
      "hand": "left"
    },
    {
      "midi": 58,
      "time": 226,
      "duration": 1.5,
      "velocity": 0.75,
      "hand": "left"
    },
    {
      "midi": 63,
      "time": 226,
      "duration": 1.5,
      "velocity": 0.75,
      "hand": "right"
    },
    {
      "midi": 67,
      "time": 226,
      "duration": 1.5,
      "velocity": 0.61,
      "hand": "right"
    },
    {
      "midi": 65,
      "time": 227.5,
      "duration": 0.125,
      "velocity": 0.61,
      "hand": "right"
    },
    {
      "midi": 65,
      "time": 227.5,
      "duration": 0.25,
      "velocity": 0.61,
      "hand": "right"
    },
    {
      "midi": 67,
      "time": 227.5,
      "duration": 0.125,
      "velocity": 0.61,
      "hand": "right"
    },
    {
      "midi": 63,
      "time": 227.75,
      "duration": 0.25,
      "velocity": 0.61,
      "hand": "right"
    },
    {
      "midi": 62,
      "time": 228,
      "duration": 0.25,
      "velocity": 0.61,
      "hand": "right"
    },
    {
      "midi": 63,
      "time": 228.25,
      "duration": 0.25,
      "velocity": 0.61,
      "hand": "right"
    },
    {
      "midi": 60,
      "time": 228.5,
      "duration": 0.25,
      "velocity": 0.61,
      "hand": "right"
    },
    {
      "midi": 62,
      "time": 228.75,
      "duration": 0.25,
      "velocity": 0.61,
      "hand": "right"
    },
    {
      "midi": 58,
      "time": 229,
      "duration": 0.5,
      "velocity": 0.61,
      "hand": "left"
    },
    {
      "midi": 44,
      "time": 229.5,
      "duration": 0.5,
      "velocity": 0.68,
      "hand": "left"
    },
    {
      "midi": 51,
      "time": 229.5,
      "duration": 0.5,
      "velocity": 0.68,
      "hand": "left"
    },
    {
      "midi": 53,
      "time": 229.5,
      "duration": 0.5,
      "velocity": 0.75,
      "hand": "left"
    },
    {
      "midi": 60,
      "time": 229.5,
      "duration": 0.5,
      "velocity": 0.61,
      "hand": "right"
    },
    {
      "midi": 39,
      "time": 230,
      "duration": 1.5,
      "velocity": 0.68,
      "hand": "left"
    },
    {
      "midi": 46,
      "time": 230,
      "duration": 1.5,
      "velocity": 0.68,
      "hand": "left"
    },
    {
      "midi": 51,
      "time": 230,
      "duration": 1.5,
      "velocity": 0.68,
      "hand": "left"
    },
    {
      "midi": 55,
      "time": 230,
      "duration": 1.5,
      "velocity": 0.61,
      "hand": "left"
    },
    {
      "midi": 58,
      "time": 230,
      "duration": 1.5,
      "velocity": 0.61,
      "hand": "left"
    },
    {
      "midi": 63,
      "time": 230,
      "duration": 1.5,
      "velocity": 0.61,
      "hand": "right"
    },
    {
      "midi": 67,
      "time": 230,
      "duration": 1.5,
      "velocity": 0.61,
      "hand": "right"
    },
    {
      "midi": 44,
      "time": 231.5,
      "duration": 0.5,
      "velocity": 0.68,
      "hand": "left"
    },
    {
      "midi": 51,
      "time": 231.5,
      "duration": 0.5,
      "velocity": 0.68,
      "hand": "left"
    },
    {
      "midi": 53,
      "time": 231.5,
      "duration": 0.5,
      "velocity": 0.61,
      "hand": "left"
    },
    {
      "midi": 60,
      "time": 231.5,
      "duration": 0.5,
      "velocity": 0.61,
      "hand": "right"
    },
    {
      "midi": 39,
      "time": 232,
      "duration": 1.5,
      "velocity": 0.68,
      "hand": "left"
    },
    {
      "midi": 46,
      "time": 232,
      "duration": 1.5,
      "velocity": 0.68,
      "hand": "left"
    },
    {
      "midi": 51,
      "time": 232,
      "duration": 1.5,
      "velocity": 0.68,
      "hand": "left"
    },
    {
      "midi": 55,
      "time": 232,
      "duration": 1.5,
      "velocity": 0.61,
      "hand": "left"
    },
    {
      "midi": 58,
      "time": 232,
      "duration": 1.5,
      "velocity": 0.61,
      "hand": "left"
    },
    {
      "midi": 63,
      "time": 232,
      "duration": 1.5,
      "velocity": 0.61,
      "hand": "right"
    },
    {
      "midi": 67,
      "time": 232,
      "duration": 1.5,
      "velocity": 0.61,
      "hand": "right"
    },
    {
      "midi": 44,
      "time": 233.5,
      "duration": 0.5,
      "velocity": 0.68,
      "hand": "left"
    },
    {
      "midi": 51,
      "time": 233.5,
      "duration": 0.5,
      "velocity": 0.68,
      "hand": "left"
    },
    {
      "midi": 53,
      "time": 233.5,
      "duration": 0.5,
      "velocity": 0.61,
      "hand": "left"
    },
    {
      "midi": 60,
      "time": 233.5,
      "duration": 0.5,
      "velocity": 0.61,
      "hand": "right"
    },
    {
      "midi": 39,
      "time": 234,
      "duration": 0.5,
      "velocity": 0.68,
      "hand": "left"
    },
    {
      "midi": 46,
      "time": 234,
      "duration": 0.5,
      "velocity": 0.68,
      "hand": "left"
    },
    {
      "midi": 51,
      "time": 234,
      "duration": 0.5,
      "velocity": 0.68,
      "hand": "left"
    },
    {
      "midi": 55,
      "time": 234,
      "duration": 0.5,
      "velocity": 0.54,
      "hand": "left"
    },
    {
      "midi": 58,
      "time": 234,
      "duration": 0.5,
      "velocity": 0.54,
      "hand": "left"
    },
    {
      "midi": 63,
      "time": 234,
      "duration": 0.5,
      "velocity": 0.54,
      "hand": "right"
    },
    {
      "midi": 67,
      "time": 234,
      "duration": 0.5,
      "velocity": 0.54,
      "hand": "right"
    },
    {
      "midi": 44,
      "time": 234.5,
      "duration": 0.5,
      "velocity": 0.68,
      "hand": "left"
    },
    {
      "midi": 51,
      "time": 234.5,
      "duration": 0.5,
      "velocity": 0.68,
      "hand": "left"
    },
    {
      "midi": 53,
      "time": 234.5,
      "duration": 0.5,
      "velocity": 0.54,
      "hand": "left"
    },
    {
      "midi": 60,
      "time": 234.5,
      "duration": 0.5,
      "velocity": 0.54,
      "hand": "right"
    },
    {
      "midi": 39,
      "time": 235,
      "duration": 0.5,
      "velocity": 0.68,
      "hand": "left"
    },
    {
      "midi": 46,
      "time": 235,
      "duration": 0.5,
      "velocity": 0.68,
      "hand": "left"
    },
    {
      "midi": 51,
      "time": 235,
      "duration": 0.5,
      "velocity": 0.68,
      "hand": "left"
    },
    {
      "midi": 55,
      "time": 235,
      "duration": 0.5,
      "velocity": 0.54,
      "hand": "left"
    },
    {
      "midi": 58,
      "time": 235,
      "duration": 0.5,
      "velocity": 0.54,
      "hand": "left"
    },
    {
      "midi": 63,
      "time": 235,
      "duration": 0.5,
      "velocity": 0.54,
      "hand": "right"
    },
    {
      "midi": 67,
      "time": 235,
      "duration": 0.5,
      "velocity": 0.54,
      "hand": "right"
    },
    {
      "midi": 44,
      "time": 235.5,
      "duration": 0.5,
      "velocity": 0.68,
      "hand": "left"
    },
    {
      "midi": 51,
      "time": 235.5,
      "duration": 0.5,
      "velocity": 0.68,
      "hand": "left"
    },
    {
      "midi": 53,
      "time": 235.5,
      "duration": 0.5,
      "velocity": 0.54,
      "hand": "left"
    },
    {
      "midi": 60,
      "time": 235.5,
      "duration": 0.5,
      "velocity": 0.54,
      "hand": "right"
    },
    {
      "midi": 39,
      "time": 236,
      "duration": 0.5,
      "velocity": 0.68,
      "hand": "left"
    },
    {
      "midi": 46,
      "time": 236,
      "duration": 0.5,
      "velocity": 0.68,
      "hand": "left"
    },
    {
      "midi": 51,
      "time": 236,
      "duration": 0.5,
      "velocity": 0.68,
      "hand": "left"
    },
    {
      "midi": 55,
      "time": 236,
      "duration": 0.5,
      "velocity": 0.54,
      "hand": "left"
    },
    {
      "midi": 58,
      "time": 236,
      "duration": 0.5,
      "velocity": 0.54,
      "hand": "left"
    },
    {
      "midi": 63,
      "time": 236,
      "duration": 0.5,
      "velocity": 0.54,
      "hand": "right"
    },
    {
      "midi": 67,
      "time": 236,
      "duration": 0.5,
      "velocity": 0.54,
      "hand": "right"
    },
    {
      "midi": 44,
      "time": 236.5,
      "duration": 0.5,
      "velocity": 0.68,
      "hand": "left"
    },
    {
      "midi": 51,
      "time": 236.5,
      "duration": 0.5,
      "velocity": 0.68,
      "hand": "left"
    },
    {
      "midi": 53,
      "time": 236.5,
      "duration": 0.5,
      "velocity": 0.54,
      "hand": "left"
    },
    {
      "midi": 60,
      "time": 236.5,
      "duration": 0.5,
      "velocity": 0.54,
      "hand": "right"
    },
    {
      "midi": 39,
      "time": 237,
      "duration": 0.5,
      "velocity": 0.68,
      "hand": "left"
    },
    {
      "midi": 46,
      "time": 237,
      "duration": 0.5,
      "velocity": 0.68,
      "hand": "left"
    },
    {
      "midi": 51,
      "time": 237,
      "duration": 0.5,
      "velocity": 0.68,
      "hand": "left"
    },
    {
      "midi": 55,
      "time": 237,
      "duration": 0.5,
      "velocity": 0.54,
      "hand": "left"
    },
    {
      "midi": 58,
      "time": 237,
      "duration": 0.5,
      "velocity": 0.54,
      "hand": "left"
    },
    {
      "midi": 63,
      "time": 237,
      "duration": 0.5,
      "velocity": 0.54,
      "hand": "right"
    },
    {
      "midi": 67,
      "time": 237,
      "duration": 0.5,
      "velocity": 0.54,
      "hand": "right"
    },
    {
      "midi": 44,
      "time": 237.5,
      "duration": 0.5,
      "velocity": 0.68,
      "hand": "left"
    },
    {
      "midi": 51,
      "time": 237.5,
      "duration": 0.5,
      "velocity": 0.68,
      "hand": "left"
    },
    {
      "midi": 53,
      "time": 237.5,
      "duration": 0.5,
      "velocity": 0.54,
      "hand": "left"
    },
    {
      "midi": 60,
      "time": 237.5,
      "duration": 0.5,
      "velocity": 0.54,
      "hand": "right"
    },
    {
      "midi": 39,
      "time": 238,
      "duration": 0.25,
      "velocity": 0.68,
      "hand": "left"
    },
    {
      "midi": 46,
      "time": 238,
      "duration": 0.25,
      "velocity": 0.68,
      "hand": "left"
    },
    {
      "midi": 51,
      "time": 238,
      "duration": 0.25,
      "velocity": 0.68,
      "hand": "left"
    },
    {
      "midi": 55,
      "time": 238,
      "duration": 0.25,
      "velocity": 0.75,
      "hand": "left"
    },
    {
      "midi": 58,
      "time": 238,
      "duration": 0.25,
      "velocity": 0.75,
      "hand": "left"
    },
    {
      "midi": 63,
      "time": 238,
      "duration": 0.25,
      "velocity": 0.75,
      "hand": "right"
    },
    {
      "midi": 67,
      "time": 238,
      "duration": 0.25,
      "velocity": 0.54,
      "hand": "right"
    },
    {
      "midi": 65,
      "time": 238.25,
      "duration": 0.25,
      "velocity": 0.54,
      "hand": "right"
    },
    {
      "midi": 58,
      "time": 238.5,
      "duration": 0.25,
      "velocity": 0.54,
      "hand": "left"
    },
    {
      "midi": 62,
      "time": 238.5,
      "duration": 0.25,
      "velocity": 0.54,
      "hand": "right"
    },
    {
      "midi": 63,
      "time": 238.5,
      "duration": 0.25,
      "velocity": 0.54,
      "hand": "right"
    },
    {
      "midi": 55,
      "time": 238.75,
      "duration": 0.25,
      "velocity": 0.54,
      "hand": "left"
    },
    {
      "midi": 63,
      "time": 238.75,
      "duration": 0.25,
      "velocity": 0.54,
      "hand": "right"
    },
    {
      "midi": 54,
      "time": 239,
      "duration": 0.25,
      "velocity": 0.54,
      "hand": "left"
    },
    {
      "midi": 58,
      "time": 239,
      "duration": 0.5,
      "velocity": 0.54,
      "hand": "left"
    },
    {
      "midi": 55,
      "time": 239.25,
      "duration": 0.25,
      "velocity": 0.54,
      "hand": "left"
    },
    {
      "midi": 53,
      "time": 239.5,
      "duration": 0.5,
      "velocity": 0.54,
      "hand": "left"
    },
    {
      "midi": 56,
      "time": 239.5,
      "duration": 0.5,
      "velocity": 0.54,
      "hand": "left"
    },
    {
      "midi": 60,
      "time": 239.5,
      "duration": 0.5,
      "velocity": 0.54,
      "hand": "right"
    },
    {
      "midi": 39,
      "time": 240,
      "duration": 0.25,
      "velocity": 0.54,
      "hand": "left"
    },
    {
      "midi": 46,
      "time": 240,
      "duration": 0.25,
      "velocity": 0.54,
      "hand": "left"
    },
    {
      "midi": 51,
      "time": 240,
      "duration": 0.25,
      "velocity": 0.54,
      "hand": "left"
    },
    {
      "midi": 55,
      "time": 240,
      "duration": 0.25,
      "velocity": 0.75,
      "hand": "left"
    },
    {
      "midi": 58,
      "time": 240,
      "duration": 0.25,
      "velocity": 0.75,
      "hand": "left"
    },
    {
      "midi": 67,
      "time": 240,
      "duration": 0.25,
      "velocity": 0.54,
      "hand": "right"
    },
    {
      "midi": 65,
      "time": 240.25,
      "duration": 0.25,
      "velocity": 0.54,
      "hand": "right"
    },
    {
      "midi": 58,
      "time": 240.5,
      "duration": 0.25,
      "velocity": 0.54,
      "hand": "left"
    },
    {
      "midi": 62,
      "time": 240.5,
      "duration": 0.25,
      "velocity": 0.54,
      "hand": "right"
    },
    {
      "midi": 63,
      "time": 240.5,
      "duration": 0.25,
      "velocity": 0.54,
      "hand": "right"
    },
    {
      "midi": 55,
      "time": 240.75,
      "duration": 0.25,
      "velocity": 0.54,
      "hand": "left"
    },
    {
      "midi": 63,
      "time": 240.75,
      "duration": 0.25,
      "velocity": 0.54,
      "hand": "right"
    },
    {
      "midi": 54,
      "time": 241,
      "duration": 0.25,
      "velocity": 0.54,
      "hand": "left"
    },
    {
      "midi": 58,
      "time": 241,
      "duration": 0.5,
      "velocity": 0.54,
      "hand": "left"
    },
    {
      "midi": 55,
      "time": 241.25,
      "duration": 0.25,
      "velocity": 0.54,
      "hand": "left"
    },
    {
      "midi": 53,
      "time": 241.5,
      "duration": 0.5,
      "velocity": 0.54,
      "hand": "left"
    },
    {
      "midi": 56,
      "time": 241.5,
      "duration": 0.5,
      "velocity": 0.54,
      "hand": "left"
    },
    {
      "midi": 60,
      "time": 241.5,
      "duration": 0.5,
      "velocity": 0.54,
      "hand": "right"
    },
    {
      "midi": 39,
      "time": 242,
      "duration": 0.25,
      "velocity": 0.71,
      "hand": "left"
    },
    {
      "midi": 46,
      "time": 242,
      "duration": 0.25,
      "velocity": 0.71,
      "hand": "left"
    },
    {
      "midi": 51,
      "time": 242,
      "duration": 0.25,
      "velocity": 0.71,
      "hand": "left"
    },
    {
      "midi": 55,
      "time": 242,
      "duration": 0.25,
      "velocity": 0.54,
      "hand": "left"
    },
    {
      "midi": 58,
      "time": 242,
      "duration": 0.25,
      "velocity": 0.54,
      "hand": "left"
    },
    {
      "midi": 63,
      "time": 242,
      "duration": 0.25,
      "velocity": 0.54,
      "hand": "right"
    },
    {
      "midi": 67,
      "time": 242,
      "duration": 0.25,
      "velocity": 0.54,
      "hand": "right"
    },
    {
      "midi": 58,
      "time": 242.25,
      "duration": 0.5,
      "velocity": 0.71,
      "hand": "left"
    },
    {
      "midi": 67,
      "time": 242.25,
      "duration": 0.5,
      "velocity": 0.54,
      "hand": "right"
    },
    {
      "midi": 51,
      "time": 242.5,
      "duration": 0.25,
      "velocity": 0.71,
      "hand": "left"
    },
    {
      "midi": 59,
      "time": 242.75,
      "duration": 0.5,
      "velocity": 0.54,
      "hand": "left"
    },
    {
      "midi": 65,
      "time": 242.75,
      "duration": 0.5,
      "velocity": 0.54,
      "hand": "right"
    },
    {
      "midi": 67,
      "time": 242.75,
      "duration": 0.5,
      "velocity": 0.54,
      "hand": "right"
    },
    {
      "midi": 50,
      "time": 243,
      "duration": 0.25,
      "velocity": 0.71,
      "hand": "left"
    },
    {
      "midi": 60,
      "time": 243.25,
      "duration": 0.5,
      "velocity": 0.54,
      "hand": "right"
    },
    {
      "midi": 63,
      "time": 243.25,
      "duration": 0.5,
      "velocity": 0.57,
      "hand": "right"
    },
    {
      "midi": 67,
      "time": 243.25,
      "duration": 0.5,
      "velocity": 0.57,
      "hand": "right"
    },
    {
      "midi": 48,
      "time": 243.5,
      "duration": 0.25,
      "velocity": 0.71,
      "hand": "left"
    },
    {
      "midi": 58,
      "time": 243.75,
      "duration": 0.5,
      "velocity": 0.54,
      "hand": "left"
    },
    {
      "midi": 62,
      "time": 243.75,
      "duration": 0.5,
      "velocity": 0.61,
      "hand": "right"
    },
    {
      "midi": 67,
      "time": 243.75,
      "duration": 0.5,
      "velocity": 0.61,
      "hand": "right"
    },
    {
      "midi": 46,
      "time": 244,
      "duration": 0.25,
      "velocity": 0.71,
      "hand": "left"
    },
    {
      "midi": 50,
      "time": 244,
      "duration": 0.25,
      "velocity": 0.71,
      "hand": "left"
    },
    {
      "midi": 56,
      "time": 244.25,
      "duration": 0.5,
      "velocity": 0.71,
      "hand": "left"
    },
    {
      "midi": 60,
      "time": 244.25,
      "duration": 0.5,
      "velocity": 0.65,
      "hand": "right"
    },
    {
      "midi": 67,
      "time": 244.25,
      "duration": 0.5,
      "velocity": 0.65,
      "hand": "right"
    },
    {
      "midi": 44,
      "time": 244.5,
      "duration": 0.25,
      "velocity": 0.71,
      "hand": "left"
    },
    {
      "midi": 50,
      "time": 244.5,
      "duration": 0.25,
      "velocity": 0.71,
      "hand": "left"
    },
    {
      "midi": 55,
      "time": 244.75,
      "duration": 0.75,
      "velocity": 0.54,
      "hand": "left"
    },
    {
      "midi": 58,
      "time": 244.75,
      "duration": 0.5,
      "velocity": 0.69,
      "hand": "left"
    },
    {
      "midi": 62,
      "time": 244.75,
      "duration": 0.5,
      "velocity": 0.69,
      "hand": "right"
    },
    {
      "midi": 67,
      "time": 244.75,
      "duration": 0.5,
      "velocity": 0.69,
      "hand": "right"
    },
    {
      "midi": 43,
      "time": 245,
      "duration": 0.5,
      "velocity": 0.71,
      "hand": "left"
    },
    {
      "midi": 50,
      "time": 245,
      "duration": 0.5,
      "velocity": 0.71,
      "hand": "left"
    },
    {
      "midi": 67,
      "time": 245.25,
      "duration": 0.75,
      "velocity": 0.72,
      "hand": "right"
    },
    {
      "midi": 55,
      "time": 245.5,
      "duration": 0.5,
      "velocity": 0.71,
      "hand": "left"
    },
    {
      "midi": 58,
      "time": 245.5,
      "duration": 0.5,
      "velocity": 0.71,
      "hand": "left"
    },
    {
      "midi": 62,
      "time": 245.5,
      "duration": 0.5,
      "velocity": 0.54,
      "hand": "right"
    },
    {
      "midi": 70,
      "time": 245.5,
      "duration": 0.5,
      "velocity": 0.75,
      "hand": "right"
    },
    {
      "midi": 74,
      "time": 245.5,
      "duration": 0.5,
      "velocity": 0.75,
      "hand": "right"
    },
    {
      "midi": 79,
      "time": 245.5,
      "duration": 0.5,
      "velocity": 0.75,
      "hand": "right"
    },
    {
      "midi": 39,
      "time": 246,
      "duration": 0.25,
      "velocity": 0.54,
      "hand": "left"
    },
    {
      "midi": 46,
      "time": 246,
      "duration": 0.25,
      "velocity": 0.54,
      "hand": "left"
    },
    {
      "midi": 51,
      "time": 246,
      "duration": 0.25,
      "velocity": 0.54,
      "hand": "left"
    },
    {
      "midi": 55,
      "time": 246,
      "duration": 0.25,
      "velocity": 0.75,
      "hand": "left"
    },
    {
      "midi": 58,
      "time": 246,
      "duration": 0.25,
      "velocity": 0.75,
      "hand": "left"
    },
    {
      "midi": 63,
      "time": 246,
      "duration": 0.25,
      "velocity": 0.75,
      "hand": "right"
    },
    {
      "midi": 67,
      "time": 246,
      "duration": 0.25,
      "velocity": 0.75,
      "hand": "right"
    },
    {
      "midi": 65,
      "time": 246.25,
      "duration": 0.25,
      "velocity": 0.75,
      "hand": "right"
    },
    {
      "midi": 58,
      "time": 246.5,
      "duration": 0.25,
      "velocity": 0.54,
      "hand": "left"
    },
    {
      "midi": 62,
      "time": 246.5,
      "duration": 0.25,
      "velocity": 0.75,
      "hand": "right"
    },
    {
      "midi": 63,
      "time": 246.5,
      "duration": 0.25,
      "velocity": 0.75,
      "hand": "right"
    },
    {
      "midi": 55,
      "time": 246.75,
      "duration": 0.25,
      "velocity": 0.54,
      "hand": "left"
    },
    {
      "midi": 63,
      "time": 246.75,
      "duration": 0.25,
      "velocity": 0.75,
      "hand": "right"
    },
    {
      "midi": 54,
      "time": 247,
      "duration": 0.25,
      "velocity": 0.54,
      "hand": "left"
    },
    {
      "midi": 58,
      "time": 247,
      "duration": 0.5,
      "velocity": 0.75,
      "hand": "left"
    },
    {
      "midi": 55,
      "time": 247.25,
      "duration": 0.25,
      "velocity": 0.54,
      "hand": "left"
    },
    {
      "midi": 53,
      "time": 247.5,
      "duration": 0.5,
      "velocity": 0.75,
      "hand": "left"
    },
    {
      "midi": 56,
      "time": 247.5,
      "duration": 0.5,
      "velocity": 0.54,
      "hand": "left"
    },
    {
      "midi": 60,
      "time": 247.5,
      "duration": 0.5,
      "velocity": 0.75,
      "hand": "right"
    },
    {
      "midi": 39,
      "time": 248,
      "duration": 0.25,
      "velocity": 0.54,
      "hand": "left"
    },
    {
      "midi": 46,
      "time": 248,
      "duration": 0.25,
      "velocity": 0.54,
      "hand": "left"
    },
    {
      "midi": 51,
      "time": 248,
      "duration": 0.25,
      "velocity": 0.54,
      "hand": "left"
    },
    {
      "midi": 55,
      "time": 248,
      "duration": 0.25,
      "velocity": 0.75,
      "hand": "left"
    },
    {
      "midi": 58,
      "time": 248,
      "duration": 0.25,
      "velocity": 0.75,
      "hand": "left"
    },
    {
      "midi": 67,
      "time": 248,
      "duration": 0.25,
      "velocity": 0.75,
      "hand": "right"
    },
    {
      "midi": 65,
      "time": 248.25,
      "duration": 0.25,
      "velocity": 0.75,
      "hand": "right"
    },
    {
      "midi": 58,
      "time": 248.5,
      "duration": 0.25,
      "velocity": 0.54,
      "hand": "left"
    },
    {
      "midi": 62,
      "time": 248.5,
      "duration": 0.25,
      "velocity": 0.75,
      "hand": "right"
    },
    {
      "midi": 63,
      "time": 248.5,
      "duration": 0.25,
      "velocity": 0.75,
      "hand": "right"
    },
    {
      "midi": 55,
      "time": 248.75,
      "duration": 0.25,
      "velocity": 0.54,
      "hand": "left"
    },
    {
      "midi": 63,
      "time": 248.75,
      "duration": 0.25,
      "velocity": 0.75,
      "hand": "right"
    },
    {
      "midi": 54,
      "time": 249,
      "duration": 0.25,
      "velocity": 0.54,
      "hand": "left"
    },
    {
      "midi": 58,
      "time": 249,
      "duration": 0.5,
      "velocity": 0.75,
      "hand": "left"
    },
    {
      "midi": 55,
      "time": 249.25,
      "duration": 0.25,
      "velocity": 0.54,
      "hand": "left"
    },
    {
      "midi": 53,
      "time": 249.5,
      "duration": 0.5,
      "velocity": 0.75,
      "hand": "left"
    },
    {
      "midi": 56,
      "time": 249.5,
      "duration": 0.5,
      "velocity": 0.54,
      "hand": "left"
    },
    {
      "midi": 60,
      "time": 249.5,
      "duration": 0.5,
      "velocity": 0.75,
      "hand": "right"
    },
    {
      "midi": 39,
      "time": 250,
      "duration": 0.25,
      "velocity": 0.71,
      "hand": "left"
    },
    {
      "midi": 46,
      "time": 250,
      "duration": 0.25,
      "velocity": 0.71,
      "hand": "left"
    },
    {
      "midi": 51,
      "time": 250,
      "duration": 0.25,
      "velocity": 0.71,
      "hand": "left"
    },
    {
      "midi": 55,
      "time": 250,
      "duration": 0.25,
      "velocity": 0.75,
      "hand": "left"
    },
    {
      "midi": 58,
      "time": 250,
      "duration": 0.25,
      "velocity": 0.75,
      "hand": "left"
    },
    {
      "midi": 63,
      "time": 250,
      "duration": 0.25,
      "velocity": 0.75,
      "hand": "right"
    },
    {
      "midi": 67,
      "time": 250,
      "duration": 0.25,
      "velocity": 0.75,
      "hand": "right"
    },
    {
      "midi": 58,
      "time": 250.25,
      "duration": 0.5,
      "velocity": 0.71,
      "hand": "left"
    },
    {
      "midi": 67,
      "time": 250.25,
      "duration": 0.5,
      "velocity": 0.75,
      "hand": "right"
    },
    {
      "midi": 51,
      "time": 250.5,
      "duration": 0.25,
      "velocity": 0.71,
      "hand": "left"
    },
    {
      "midi": 59,
      "time": 250.75,
      "duration": 0.5,
      "velocity": 0.54,
      "hand": "left"
    },
    {
      "midi": 65,
      "time": 250.75,
      "duration": 0.5,
      "velocity": 0.75,
      "hand": "right"
    },
    {
      "midi": 67,
      "time": 250.75,
      "duration": 0.5,
      "velocity": 0.75,
      "hand": "right"
    },
    {
      "midi": 50,
      "time": 251,
      "duration": 0.25,
      "velocity": 0.71,
      "hand": "left"
    },
    {
      "midi": 60,
      "time": 251.25,
      "duration": 0.5,
      "velocity": 0.54,
      "hand": "right"
    },
    {
      "midi": 63,
      "time": 251.25,
      "duration": 0.5,
      "velocity": 0.75,
      "hand": "right"
    },
    {
      "midi": 67,
      "time": 251.25,
      "duration": 0.5,
      "velocity": 0.75,
      "hand": "right"
    },
    {
      "midi": 48,
      "time": 251.5,
      "duration": 0.25,
      "velocity": 0.71,
      "hand": "left"
    },
    {
      "midi": 58,
      "time": 251.75,
      "duration": 0.5,
      "velocity": 0.54,
      "hand": "left"
    },
    {
      "midi": 62,
      "time": 251.75,
      "duration": 0.5,
      "velocity": 0.75,
      "hand": "right"
    },
    {
      "midi": 67,
      "time": 251.75,
      "duration": 0.5,
      "velocity": 0.75,
      "hand": "right"
    },
    {
      "midi": 46,
      "time": 252,
      "duration": 0.25,
      "velocity": 0.71,
      "hand": "left"
    },
    {
      "midi": 50,
      "time": 252,
      "duration": 0.25,
      "velocity": 0.71,
      "hand": "left"
    },
    {
      "midi": 56,
      "time": 252.25,
      "duration": 0.5,
      "velocity": 0.71,
      "hand": "left"
    },
    {
      "midi": 60,
      "time": 252.25,
      "duration": 0.5,
      "velocity": 0.75,
      "hand": "right"
    },
    {
      "midi": 67,
      "time": 252.25,
      "duration": 0.5,
      "velocity": 0.75,
      "hand": "right"
    },
    {
      "midi": 44,
      "time": 252.5,
      "duration": 0.25,
      "velocity": 0.71,
      "hand": "left"
    },
    {
      "midi": 50,
      "time": 252.5,
      "duration": 0.25,
      "velocity": 0.71,
      "hand": "left"
    },
    {
      "midi": 55,
      "time": 252.75,
      "duration": 0.75,
      "velocity": 0.54,
      "hand": "left"
    },
    {
      "midi": 58,
      "time": 252.75,
      "duration": 0.5,
      "velocity": 0.75,
      "hand": "left"
    },
    {
      "midi": 62,
      "time": 252.75,
      "duration": 0.5,
      "velocity": 0.75,
      "hand": "right"
    },
    {
      "midi": 67,
      "time": 252.75,
      "duration": 0.5,
      "velocity": 0.75,
      "hand": "right"
    },
    {
      "midi": 43,
      "time": 253,
      "duration": 0.5,
      "velocity": 0.71,
      "hand": "left"
    },
    {
      "midi": 50,
      "time": 253,
      "duration": 0.5,
      "velocity": 0.71,
      "hand": "left"
    },
    {
      "midi": 67,
      "time": 253.25,
      "duration": 0.25,
      "velocity": 0.75,
      "hand": "right"
    },
    {
      "midi": 55,
      "time": 253.5,
      "duration": 0.5,
      "velocity": 0.71,
      "hand": "left"
    },
    {
      "midi": 58,
      "time": 253.5,
      "duration": 0.5,
      "velocity": 0.71,
      "hand": "left"
    },
    {
      "midi": 62,
      "time": 253.5,
      "duration": 0.5,
      "velocity": 0.54,
      "hand": "right"
    },
    {
      "midi": 70,
      "time": 253.5,
      "duration": 0.25,
      "velocity": 0.75,
      "hand": "right"
    },
    {
      "midi": 74,
      "time": 253.5,
      "duration": 0.25,
      "velocity": 0.75,
      "hand": "right"
    },
    {
      "midi": 79,
      "time": 253.5,
      "duration": 0.25,
      "velocity": 0.75,
      "hand": "right"
    },
    {
      "midi": 70,
      "time": 253.75,
      "duration": 0.25,
      "velocity": 0.75,
      "hand": "right"
    },
    {
      "midi": 82,
      "time": 253.75,
      "duration": 0.25,
      "velocity": 0.75,
      "hand": "right"
    },
    {
      "midi": 72,
      "time": 254,
      "duration": 0.5,
      "velocity": 0.61,
      "hand": "right"
    },
    {
      "midi": 84,
      "time": 254,
      "duration": 0.5,
      "velocity": 0.61,
      "hand": "right"
    },
    {
      "midi": 44,
      "time": 254.25,
      "duration": 0.25,
      "velocity": 0.54,
      "hand": "left"
    },
    {
      "midi": 46,
      "time": 254.25,
      "duration": 0.25,
      "velocity": 0.54,
      "hand": "left"
    },
    {
      "midi": 50,
      "time": 254.25,
      "duration": 0.25,
      "velocity": 0.54,
      "hand": "left"
    },
    {
      "midi": 56,
      "time": 254.5,
      "duration": 0.25,
      "velocity": 0.54,
      "hand": "left"
    },
    {
      "midi": 72,
      "time": 254.5,
      "duration": 0.5,
      "velocity": 0.61,
      "hand": "right"
    },
    {
      "midi": 84,
      "time": 254.5,
      "duration": 0.5,
      "velocity": 0.61,
      "hand": "right"
    },
    {
      "midi": 56,
      "time": 254.75,
      "duration": 0.25,
      "velocity": 0.54,
      "hand": "left"
    },
    {
      "midi": 58,
      "time": 254.75,
      "duration": 0.25,
      "velocity": 0.54,
      "hand": "left"
    },
    {
      "midi": 62,
      "time": 254.75,
      "duration": 0.25,
      "velocity": 0.54,
      "hand": "right"
    },
    {
      "midi": 68,
      "time": 255,
      "duration": 0.25,
      "velocity": 0.54,
      "hand": "right"
    },
    {
      "midi": 72,
      "time": 255,
      "duration": 0.25,
      "velocity": 0.61,
      "hand": "right"
    },
    {
      "midi": 84,
      "time": 255,
      "duration": 0.25,
      "velocity": 0.61,
      "hand": "right"
    },
    {
      "midi": 56,
      "time": 255.25,
      "duration": 0.25,
      "velocity": 0.54,
      "hand": "left"
    },
    {
      "midi": 58,
      "time": 255.25,
      "duration": 0.25,
      "velocity": 0.54,
      "hand": "left"
    },
    {
      "midi": 62,
      "time": 255.25,
      "duration": 0.25,
      "velocity": 0.54,
      "hand": "right"
    },
    {
      "midi": 82,
      "time": 255.25,
      "duration": 0.25,
      "velocity": 0.61,
      "hand": "right"
    },
    {
      "midi": 79,
      "time": 255.5,
      "duration": 0.25,
      "velocity": 0.61,
      "hand": "right"
    },
    {
      "midi": 80,
      "time": 255.5,
      "duration": 0.25,
      "velocity": 0.61,
      "hand": "right"
    },
    {
      "midi": 77,
      "time": 255.75,
      "duration": 0.25,
      "velocity": 0.61,
      "hand": "right"
    },
    {
      "midi": 70,
      "time": 256,
      "duration": 0.5,
      "velocity": 0.61,
      "hand": "right"
    },
    {
      "midi": 82,
      "time": 256,
      "duration": 0.5,
      "velocity": 0.61,
      "hand": "right"
    },
    {
      "midi": 43,
      "time": 256.25,
      "duration": 0.25,
      "velocity": 0.54,
      "hand": "left"
    },
    {
      "midi": 46,
      "time": 256.25,
      "duration": 0.25,
      "velocity": 0.54,
      "hand": "left"
    },
    {
      "midi": 51,
      "time": 256.25,
      "duration": 0.25,
      "velocity": 0.54,
      "hand": "left"
    },
    {
      "midi": 55,
      "time": 256.5,
      "duration": 0.25,
      "velocity": 0.54,
      "hand": "left"
    },
    {
      "midi": 70,
      "time": 256.5,
      "duration": 0.5,
      "velocity": 0.61,
      "hand": "right"
    },
    {
      "midi": 82,
      "time": 256.5,
      "duration": 0.5,
      "velocity": 0.61,
      "hand": "right"
    },
    {
      "midi": 55,
      "time": 256.75,
      "duration": 0.25,
      "velocity": 0.54,
      "hand": "left"
    },
    {
      "midi": 58,
      "time": 256.75,
      "duration": 0.25,
      "velocity": 0.54,
      "hand": "left"
    },
    {
      "midi": 63,
      "time": 256.75,
      "duration": 0.25,
      "velocity": 0.54,
      "hand": "right"
    },
    {
      "midi": 67,
      "time": 257,
      "duration": 0.25,
      "velocity": 0.54,
      "hand": "right"
    },
    {
      "midi": 70,
      "time": 257,
      "duration": 0.5,
      "velocity": 0.61,
      "hand": "right"
    },
    {
      "midi": 82,
      "time": 257,
      "duration": 0.5,
      "velocity": 0.61,
      "hand": "right"
    },
    {
      "midi": 55,
      "time": 257.25,
      "duration": 0.25,
      "velocity": 0.54,
      "hand": "left"
    },
    {
      "midi": 58,
      "time": 257.25,
      "duration": 0.25,
      "velocity": 0.54,
      "hand": "left"
    },
    {
      "midi": 63,
      "time": 257.25,
      "duration": 0.25,
      "velocity": 0.54,
      "hand": "right"
    },
    {
      "midi": 75,
      "time": 257.5,
      "duration": 0.25,
      "velocity": 0.61,
      "hand": "right"
    },
    {
      "midi": 87,
      "time": 257.5,
      "duration": 0.25,
      "velocity": 0.61,
      "hand": "right"
    },
    {
      "midi": 74,
      "time": 257.75,
      "duration": 0.25,
      "velocity": 0.61,
      "hand": "right"
    },
    {
      "midi": 86,
      "time": 257.75,
      "duration": 0.25,
      "velocity": 0.61,
      "hand": "right"
    },
    {
      "midi": 72,
      "time": 258,
      "duration": 0.5,
      "velocity": 0.61,
      "hand": "right"
    },
    {
      "midi": 84,
      "time": 258,
      "duration": 0.5,
      "velocity": 0.61,
      "hand": "right"
    },
    {
      "midi": 44,
      "time": 258.25,
      "duration": 0.25,
      "velocity": 0.54,
      "hand": "left"
    },
    {
      "midi": 46,
      "time": 258.25,
      "duration": 0.25,
      "velocity": 0.54,
      "hand": "left"
    },
    {
      "midi": 50,
      "time": 258.25,
      "duration": 0.25,
      "velocity": 0.54,
      "hand": "left"
    },
    {
      "midi": 56,
      "time": 258.5,
      "duration": 0.25,
      "velocity": 0.54,
      "hand": "left"
    },
    {
      "midi": 72,
      "time": 258.5,
      "duration": 0.5,
      "velocity": 0.61,
      "hand": "right"
    },
    {
      "midi": 84,
      "time": 258.5,
      "duration": 0.5,
      "velocity": 0.61,
      "hand": "right"
    },
    {
      "midi": 56,
      "time": 258.75,
      "duration": 0.25,
      "velocity": 0.54,
      "hand": "left"
    },
    {
      "midi": 58,
      "time": 258.75,
      "duration": 0.25,
      "velocity": 0.54,
      "hand": "left"
    },
    {
      "midi": 62,
      "time": 258.75,
      "duration": 0.25,
      "velocity": 0.54,
      "hand": "right"
    },
    {
      "midi": 68,
      "time": 259,
      "duration": 0.25,
      "velocity": 0.54,
      "hand": "right"
    },
    {
      "midi": 72,
      "time": 259,
      "duration": 0.25,
      "velocity": 0.61,
      "hand": "right"
    },
    {
      "midi": 84,
      "time": 259,
      "duration": 0.25,
      "velocity": 0.61,
      "hand": "right"
    },
    {
      "midi": 56,
      "time": 259.25,
      "duration": 0.25,
      "velocity": 0.54,
      "hand": "left"
    },
    {
      "midi": 58,
      "time": 259.25,
      "duration": 0.25,
      "velocity": 0.54,
      "hand": "left"
    },
    {
      "midi": 62,
      "time": 259.25,
      "duration": 0.25,
      "velocity": 0.54,
      "hand": "right"
    },
    {
      "midi": 82,
      "time": 259.25,
      "duration": 0.25,
      "velocity": 0.61,
      "hand": "right"
    },
    {
      "midi": 79,
      "time": 259.5,
      "duration": 0.25,
      "velocity": 0.61,
      "hand": "right"
    },
    {
      "midi": 80,
      "time": 259.5,
      "duration": 0.25,
      "velocity": 0.61,
      "hand": "right"
    },
    {
      "midi": 77,
      "time": 259.75,
      "duration": 0.25,
      "velocity": 0.61,
      "hand": "right"
    },
    {
      "midi": 70,
      "time": 260,
      "duration": 0.5,
      "velocity": 0.61,
      "hand": "right"
    },
    {
      "midi": 82,
      "time": 260,
      "duration": 0.5,
      "velocity": 0.61,
      "hand": "right"
    },
    {
      "midi": 43,
      "time": 260.25,
      "duration": 0.25,
      "velocity": 0.54,
      "hand": "left"
    },
    {
      "midi": 46,
      "time": 260.25,
      "duration": 0.25,
      "velocity": 0.54,
      "hand": "left"
    },
    {
      "midi": 51,
      "time": 260.25,
      "duration": 0.25,
      "velocity": 0.54,
      "hand": "left"
    },
    {
      "midi": 55,
      "time": 260.5,
      "duration": 0.25,
      "velocity": 0.54,
      "hand": "left"
    },
    {
      "midi": 70,
      "time": 260.5,
      "duration": 0.5,
      "velocity": 0.61,
      "hand": "right"
    },
    {
      "midi": 82,
      "time": 260.5,
      "duration": 0.5,
      "velocity": 0.61,
      "hand": "right"
    },
    {
      "midi": 55,
      "time": 260.75,
      "duration": 0.25,
      "velocity": 0.54,
      "hand": "left"
    },
    {
      "midi": 58,
      "time": 260.75,
      "duration": 0.25,
      "velocity": 0.54,
      "hand": "left"
    },
    {
      "midi": 63,
      "time": 260.75,
      "duration": 0.25,
      "velocity": 0.54,
      "hand": "right"
    },
    {
      "midi": 67,
      "time": 261,
      "duration": 0.25,
      "velocity": 0.54,
      "hand": "right"
    },
    {
      "midi": 70,
      "time": 261,
      "duration": 0.5,
      "velocity": 0.61,
      "hand": "right"
    },
    {
      "midi": 82,
      "time": 261,
      "duration": 0.5,
      "velocity": 0.61,
      "hand": "right"
    },
    {
      "midi": 55,
      "time": 261.25,
      "duration": 0.25,
      "velocity": 0.54,
      "hand": "left"
    },
    {
      "midi": 58,
      "time": 261.25,
      "duration": 0.25,
      "velocity": 0.54,
      "hand": "left"
    },
    {
      "midi": 63,
      "time": 261.25,
      "duration": 0.25,
      "velocity": 0.54,
      "hand": "right"
    },
    {
      "midi": 63,
      "time": 261.5,
      "duration": 0.25,
      "velocity": 0.68,
      "hand": "right"
    },
    {
      "midi": 67,
      "time": 261.5,
      "duration": 0.25,
      "velocity": 0.68,
      "hand": "right"
    },
    {
      "midi": 67,
      "time": 261.75,
      "duration": 0.25,
      "velocity": 0.68,
      "hand": "right"
    },
    {
      "midi": 70,
      "time": 261.75,
      "duration": 0.25,
      "velocity": 0.68,
      "hand": "right"
    },
    {
      "midi": 44,
      "time": 262,
      "duration": 1.25,
      "velocity": 0.71,
      "hand": "left"
    },
    {
      "midi": 68,
      "time": 262,
      "duration": 0.25,
      "velocity": 0.75,
      "hand": "right"
    },
    {
      "midi": 72,
      "time": 262,
      "duration": 0.5,
      "velocity": 0.68,
      "hand": "right"
    },
    {
      "midi": 50,
      "time": 262.25,
      "duration": 0.5,
      "velocity": 0.54,
      "hand": "left"
    },
    {
      "midi": 60,
      "time": 262.25,
      "duration": 0.25,
      "velocity": 0.75,
      "hand": "right"
    },
    {
      "midi": 65,
      "time": 262.25,
      "duration": 0.25,
      "velocity": 0.75,
      "hand": "right"
    },
    {
      "midi": 68,
      "time": 262.5,
      "duration": 0.25,
      "velocity": 0.75,
      "hand": "right"
    },
    {
      "midi": 72,
      "time": 262.5,
      "duration": 0.5,
      "velocity": 0.68,
      "hand": "right"
    },
    {
      "midi": 52,
      "time": 262.75,
      "duration": 0.25,
      "velocity": 0.54,
      "hand": "left"
    },
    {
      "midi": 60,
      "time": 262.75,
      "duration": 0.25,
      "velocity": 0.75,
      "hand": "right"
    },
    {
      "midi": 67,
      "time": 262.75,
      "duration": 0.25,
      "velocity": 0.75,
      "hand": "right"
    },
    {
      "midi": 53,
      "time": 263,
      "duration": 0.25,
      "velocity": 0.54,
      "hand": "left"
    },
    {
      "midi": 68,
      "time": 263,
      "duration": 0.25,
      "velocity": 0.75,
      "hand": "right"
    },
    {
      "midi": 72,
      "time": 263,
      "duration": 0.25,
      "velocity": 0.68,
      "hand": "right"
    },
    {
      "midi": 70,
      "time": 263.25,
      "duration": 0.25,
      "velocity": 0.68,
      "hand": "right"
    },
    {
      "midi": 67,
      "time": 263.5,
      "duration": 0.25,
      "velocity": 0.68,
      "hand": "right"
    },
    {
      "midi": 68,
      "time": 263.5,
      "duration": 0.25,
      "velocity": 0.68,
      "hand": "right"
    },
    {
      "midi": 65,
      "time": 263.75,
      "duration": 0.25,
      "velocity": 0.68,
      "hand": "right"
    },
    {
      "midi": 43,
      "time": 264,
      "duration": 1.25,
      "velocity": 0.71,
      "hand": "left"
    },
    {
      "midi": 67,
      "time": 264,
      "duration": 0.25,
      "velocity": 0.75,
      "hand": "right"
    },
    {
      "midi": 70,
      "time": 264,
      "duration": 0.5,
      "velocity": 0.68,
      "hand": "right"
    },
    {
      "midi": 48,
      "time": 264.25,
      "duration": 0.5,
      "velocity": 0.54,
      "hand": "left"
    },
    {
      "midi": 58,
      "time": 264.25,
      "duration": 0.25,
      "velocity": 0.75,
      "hand": "left"
    },
    {
      "midi": 63,
      "time": 264.25,
      "duration": 0.25,
      "velocity": 0.75,
      "hand": "right"
    },
    {
      "midi": 67,
      "time": 264.5,
      "duration": 0.25,
      "velocity": 0.75,
      "hand": "right"
    },
    {
      "midi": 70,
      "time": 264.5,
      "duration": 0.5,
      "velocity": 0.68,
      "hand": "right"
    },
    {
      "midi": 50,
      "time": 264.75,
      "duration": 0.25,
      "velocity": 0.54,
      "hand": "left"
    },
    {
      "midi": 58,
      "time": 264.75,
      "duration": 0.25,
      "velocity": 0.75,
      "hand": "left"
    },
    {
      "midi": 65,
      "time": 264.75,
      "duration": 0.25,
      "velocity": 0.75,
      "hand": "right"
    },
    {
      "midi": 51,
      "time": 265,
      "duration": 0.25,
      "velocity": 0.54,
      "hand": "left"
    },
    {
      "midi": 67,
      "time": 265,
      "duration": 0.25,
      "velocity": 0.75,
      "hand": "right"
    },
    {
      "midi": 70,
      "time": 265,
      "duration": 0.25,
      "velocity": 0.68,
      "hand": "right"
    },
    {
      "midi": 66,
      "time": 265.25,
      "duration": 0.25,
      "velocity": 0.75,
      "hand": "right"
    },
    {
      "midi": 67,
      "time": 265.25,
      "duration": 0.25,
      "velocity": 0.75,
      "hand": "right"
    },
    {
      "midi": 70,
      "time": 265.5,
      "duration": 0.25,
      "velocity": 0.75,
      "hand": "right"
    },
    {
      "midi": 75,
      "time": 265.5,
      "duration": 0.25,
      "velocity": 0.75,
      "hand": "right"
    },
    {
      "midi": 74,
      "time": 265.75,
      "duration": 0.25,
      "velocity": 0.75,
      "hand": "right"
    },
    {
      "midi": 44,
      "time": 266,
      "duration": 1.25,
      "velocity": 0.71,
      "hand": "left"
    },
    {
      "midi": 68,
      "time": 266,
      "duration": 0.25,
      "velocity": 0.75,
      "hand": "right"
    },
    {
      "midi": 72,
      "time": 266,
      "duration": 0.5,
      "velocity": 0.68,
      "hand": "right"
    },
    {
      "midi": 50,
      "time": 266.25,
      "duration": 0.5,
      "velocity": 0.54,
      "hand": "left"
    },
    {
      "midi": 60,
      "time": 266.25,
      "duration": 0.25,
      "velocity": 0.75,
      "hand": "right"
    },
    {
      "midi": 65,
      "time": 266.25,
      "duration": 0.25,
      "velocity": 0.75,
      "hand": "right"
    },
    {
      "midi": 68,
      "time": 266.5,
      "duration": 0.25,
      "velocity": 0.75,
      "hand": "right"
    },
    {
      "midi": 72,
      "time": 266.5,
      "duration": 0.5,
      "velocity": 0.68,
      "hand": "right"
    },
    {
      "midi": 52,
      "time": 266.75,
      "duration": 0.25,
      "velocity": 0.54,
      "hand": "left"
    },
    {
      "midi": 60,
      "time": 266.75,
      "duration": 0.25,
      "velocity": 0.75,
      "hand": "right"
    },
    {
      "midi": 67,
      "time": 266.75,
      "duration": 0.25,
      "velocity": 0.75,
      "hand": "right"
    },
    {
      "midi": 53,
      "time": 267,
      "duration": 0.25,
      "velocity": 0.54,
      "hand": "left"
    },
    {
      "midi": 68,
      "time": 267,
      "duration": 0.25,
      "velocity": 0.75,
      "hand": "right"
    },
    {
      "midi": 72,
      "time": 267,
      "duration": 0.25,
      "velocity": 0.68,
      "hand": "right"
    },
    {
      "midi": 70,
      "time": 267.25,
      "duration": 0.25,
      "velocity": 0.68,
      "hand": "right"
    },
    {
      "midi": 67,
      "time": 267.5,
      "duration": 0.25,
      "velocity": 0.68,
      "hand": "right"
    },
    {
      "midi": 68,
      "time": 267.5,
      "duration": 0.25,
      "velocity": 0.68,
      "hand": "right"
    },
    {
      "midi": 65,
      "time": 267.75,
      "duration": 0.25,
      "velocity": 0.68,
      "hand": "right"
    },
    {
      "midi": 43,
      "time": 268,
      "duration": 1.25,
      "velocity": 0.71,
      "hand": "left"
    },
    {
      "midi": 67,
      "time": 268,
      "duration": 0.25,
      "velocity": 0.75,
      "hand": "right"
    },
    {
      "midi": 70,
      "time": 268,
      "duration": 0.5,
      "velocity": 0.68,
      "hand": "right"
    },
    {
      "midi": 48,
      "time": 268.25,
      "duration": 0.5,
      "velocity": 0.54,
      "hand": "left"
    },
    {
      "midi": 58,
      "time": 268.25,
      "duration": 0.25,
      "velocity": 0.75,
      "hand": "left"
    },
    {
      "midi": 63,
      "time": 268.25,
      "duration": 0.25,
      "velocity": 0.75,
      "hand": "right"
    },
    {
      "midi": 67,
      "time": 268.5,
      "duration": 0.25,
      "velocity": 0.75,
      "hand": "right"
    },
    {
      "midi": 70,
      "time": 268.5,
      "duration": 0.5,
      "velocity": 0.68,
      "hand": "right"
    },
    {
      "midi": 50,
      "time": 268.75,
      "duration": 0.25,
      "velocity": 0.54,
      "hand": "left"
    },
    {
      "midi": 58,
      "time": 268.75,
      "duration": 0.25,
      "velocity": 0.75,
      "hand": "left"
    },
    {
      "midi": 65,
      "time": 268.75,
      "duration": 0.25,
      "velocity": 0.75,
      "hand": "right"
    },
    {
      "midi": 51,
      "time": 269,
      "duration": 0.25,
      "velocity": 0.54,
      "hand": "left"
    },
    {
      "midi": 67,
      "time": 269,
      "duration": 0.25,
      "velocity": 0.75,
      "hand": "right"
    },
    {
      "midi": 70,
      "time": 269,
      "duration": 0.25,
      "velocity": 0.68,
      "hand": "right"
    },
    {
      "midi": 63,
      "time": 269.25,
      "duration": 0.25,
      "velocity": 0.75,
      "hand": "right"
    },
    {
      "midi": 65,
      "time": 269.25,
      "duration": 0.25,
      "velocity": 0.75,
      "hand": "right"
    },
    {
      "midi": 55,
      "time": 269.5,
      "duration": 0.25,
      "velocity": 0.54,
      "hand": "left"
    },
    {
      "midi": 62,
      "time": 269.5,
      "duration": 0.25,
      "velocity": 0.75,
      "hand": "right"
    },
    {
      "midi": 63,
      "time": 269.5,
      "duration": 0.5,
      "velocity": 0.75,
      "hand": "right"
    },
    {
      "midi": 58,
      "time": 269.75,
      "duration": 0.25,
      "velocity": 0.54,
      "hand": "left"
    },
    {
      "midi": 60,
      "time": 270,
      "duration": 0.5,
      "velocity": 0.54,
      "hand": "right"
    },
    {
      "midi": 44,
      "time": 270.25,
      "duration": 0.25,
      "velocity": 0.71,
      "hand": "left"
    },
    {
      "midi": 51,
      "time": 270.25,
      "duration": 0.25,
      "velocity": 0.71,
      "hand": "left"
    },
    {
      "midi": 65,
      "time": 270.25,
      "duration": 0.25,
      "velocity": 0.68,
      "hand": "right"
    },
    {
      "midi": 71,
      "time": 270.25,
      "duration": 0.125,
      "velocity": 0.68,
      "hand": "right"
    },
    {
      "midi": 72,
      "time": 270.25,
      "duration": 0.25,
      "velocity": 0.68,
      "hand": "right"
    },
    {
      "midi": 60,
      "time": 270.5,
      "duration": 0.5,
      "velocity": 0.54,
      "hand": "right"
    },
    {
      "midi": 44,
      "time": 270.75,
      "duration": 0.25,
      "velocity": 0.71,
      "hand": "left"
    },
    {
      "midi": 51,
      "time": 270.75,
      "duration": 0.25,
      "velocity": 0.71,
      "hand": "left"
    },
    {
      "midi": 77,
      "time": 270.75,
      "duration": 0.25,
      "velocity": 0.68,
      "hand": "right"
    },
    {
      "midi": 83,
      "time": 270.75,
      "duration": 0.125,
      "velocity": 0.68,
      "hand": "right"
    },
    {
      "midi": 84,
      "time": 270.75,
      "duration": 0.25,
      "velocity": 0.68,
      "hand": "right"
    },
    {
      "midi": 60,
      "time": 271,
      "duration": 0.5,
      "velocity": 0.54,
      "hand": "right"
    },
    {
      "midi": 44,
      "time": 271.25,
      "duration": 0.25,
      "velocity": 0.71,
      "hand": "left"
    },
    {
      "midi": 51,
      "time": 271.25,
      "duration": 0.25,
      "velocity": 0.71,
      "hand": "left"
    },
    {
      "midi": 89,
      "time": 271.25,
      "duration": 0.25,
      "velocity": 0.68,
      "hand": "right"
    },
    {
      "midi": 95,
      "time": 271.25,
      "duration": 0.125,
      "velocity": 0.68,
      "hand": "right"
    },
    {
      "midi": 96,
      "time": 271.25,
      "duration": 0.25,
      "velocity": 0.68,
      "hand": "right"
    },
    {
      "midi": 58,
      "time": 271.5,
      "duration": 0.25,
      "velocity": 0.54,
      "hand": "left"
    },
    {
      "midi": 55,
      "time": 271.75,
      "duration": 0.25,
      "velocity": 0.54,
      "hand": "left"
    },
    {
      "midi": 56,
      "time": 271.75,
      "duration": 0.25,
      "velocity": 0.54,
      "hand": "left"
    },
    {
      "midi": 53,
      "time": 272,
      "duration": 0.25,
      "velocity": 0.54,
      "hand": "left"
    },
    {
      "midi": 58,
      "time": 272,
      "duration": 0.5,
      "velocity": 0.54,
      "hand": "left"
    },
    {
      "midi": 43,
      "time": 272.25,
      "duration": 0.25,
      "velocity": 0.71,
      "hand": "left"
    },
    {
      "midi": 51,
      "time": 272.25,
      "duration": 0.25,
      "velocity": 0.71,
      "hand": "left"
    },
    {
      "midi": 70,
      "time": 272.25,
      "duration": 0.25,
      "velocity": 0.68,
      "hand": "right"
    },
    {
      "midi": 74,
      "time": 272.25,
      "duration": 0.125,
      "velocity": 0.68,
      "hand": "right"
    },
    {
      "midi": 75,
      "time": 272.25,
      "duration": 0.25,
      "velocity": 0.68,
      "hand": "right"
    },
    {
      "midi": 58,
      "time": 272.5,
      "duration": 0.5,
      "velocity": 0.54,
      "hand": "left"
    },
    {
      "midi": 43,
      "time": 272.75,
      "duration": 0.25,
      "velocity": 0.71,
      "hand": "left"
    },
    {
      "midi": 51,
      "time": 272.75,
      "duration": 0.25,
      "velocity": 0.71,
      "hand": "left"
    },
    {
      "midi": 82,
      "time": 272.75,
      "duration": 0.25,
      "velocity": 0.68,
      "hand": "right"
    },
    {
      "midi": 86,
      "time": 272.75,
      "duration": 0.125,
      "velocity": 0.68,
      "hand": "right"
    },
    {
      "midi": 87,
      "time": 272.75,
      "duration": 0.25,
      "velocity": 0.68,
      "hand": "right"
    },
    {
      "midi": 58,
      "time": 273,
      "duration": 0.5,
      "velocity": 0.54,
      "hand": "left"
    },
    {
      "midi": 43,
      "time": 273.25,
      "duration": 0.25,
      "velocity": 0.71,
      "hand": "left"
    },
    {
      "midi": 51,
      "time": 273.25,
      "duration": 0.25,
      "velocity": 0.71,
      "hand": "left"
    },
    {
      "midi": 94,
      "time": 273.25,
      "duration": 0.25,
      "velocity": 0.68,
      "hand": "right"
    },
    {
      "midi": 98,
      "time": 273.25,
      "duration": 0.125,
      "velocity": 0.68,
      "hand": "right"
    },
    {
      "midi": 99,
      "time": 273.25,
      "duration": 0.25,
      "velocity": 0.68,
      "hand": "right"
    },
    {
      "midi": 63,
      "time": 273.5,
      "duration": 0.25,
      "velocity": 0.54,
      "hand": "right"
    },
    {
      "midi": 62,
      "time": 273.75,
      "duration": 0.25,
      "velocity": 0.54,
      "hand": "right"
    },
    {
      "midi": 60,
      "time": 274,
      "duration": 0.5,
      "velocity": 0.54,
      "hand": "right"
    },
    {
      "midi": 44,
      "time": 274.25,
      "duration": 0.25,
      "velocity": 0.71,
      "hand": "left"
    },
    {
      "midi": 51,
      "time": 274.25,
      "duration": 0.25,
      "velocity": 0.71,
      "hand": "left"
    },
    {
      "midi": 65,
      "time": 274.25,
      "duration": 0.25,
      "velocity": 0.68,
      "hand": "right"
    },
    {
      "midi": 71,
      "time": 274.25,
      "duration": 0.125,
      "velocity": 0.68,
      "hand": "right"
    },
    {
      "midi": 72,
      "time": 274.25,
      "duration": 0.25,
      "velocity": 0.68,
      "hand": "right"
    },
    {
      "midi": 60,
      "time": 274.5,
      "duration": 0.5,
      "velocity": 0.54,
      "hand": "right"
    },
    {
      "midi": 44,
      "time": 274.75,
      "duration": 0.25,
      "velocity": 0.71,
      "hand": "left"
    },
    {
      "midi": 51,
      "time": 274.75,
      "duration": 0.25,
      "velocity": 0.71,
      "hand": "left"
    },
    {
      "midi": 77,
      "time": 274.75,
      "duration": 0.25,
      "velocity": 0.68,
      "hand": "right"
    },
    {
      "midi": 83,
      "time": 274.75,
      "duration": 0.125,
      "velocity": 0.68,
      "hand": "right"
    },
    {
      "midi": 84,
      "time": 274.75,
      "duration": 0.25,
      "velocity": 0.68,
      "hand": "right"
    },
    {
      "midi": 60,
      "time": 275,
      "duration": 0.5,
      "velocity": 0.54,
      "hand": "right"
    },
    {
      "midi": 44,
      "time": 275.25,
      "duration": 0.25,
      "velocity": 0.71,
      "hand": "left"
    },
    {
      "midi": 51,
      "time": 275.25,
      "duration": 0.25,
      "velocity": 0.71,
      "hand": "left"
    },
    {
      "midi": 89,
      "time": 275.25,
      "duration": 0.25,
      "velocity": 0.68,
      "hand": "right"
    },
    {
      "midi": 95,
      "time": 275.25,
      "duration": 0.125,
      "velocity": 0.68,
      "hand": "right"
    },
    {
      "midi": 96,
      "time": 275.25,
      "duration": 0.25,
      "velocity": 0.68,
      "hand": "right"
    },
    {
      "midi": 58,
      "time": 275.5,
      "duration": 0.25,
      "velocity": 0.54,
      "hand": "left"
    },
    {
      "midi": 55,
      "time": 275.75,
      "duration": 0.25,
      "velocity": 0.54,
      "hand": "left"
    },
    {
      "midi": 56,
      "time": 275.75,
      "duration": 0.25,
      "velocity": 0.54,
      "hand": "left"
    },
    {
      "midi": 53,
      "time": 276,
      "duration": 0.25,
      "velocity": 0.54,
      "hand": "left"
    },
    {
      "midi": 58,
      "time": 276,
      "duration": 0.5,
      "velocity": 0.54,
      "hand": "left"
    },
    {
      "midi": 43,
      "time": 276.25,
      "duration": 0.25,
      "velocity": 0.71,
      "hand": "left"
    },
    {
      "midi": 51,
      "time": 276.25,
      "duration": 0.25,
      "velocity": 0.71,
      "hand": "left"
    },
    {
      "midi": 70,
      "time": 276.25,
      "duration": 0.25,
      "velocity": 0.68,
      "hand": "right"
    },
    {
      "midi": 74,
      "time": 276.25,
      "duration": 0.125,
      "velocity": 0.68,
      "hand": "right"
    },
    {
      "midi": 75,
      "time": 276.25,
      "duration": 0.25,
      "velocity": 0.68,
      "hand": "right"
    },
    {
      "midi": 58,
      "time": 276.5,
      "duration": 0.5,
      "velocity": 0.54,
      "hand": "left"
    },
    {
      "midi": 43,
      "time": 276.75,
      "duration": 0.25,
      "velocity": 0.71,
      "hand": "left"
    },
    {
      "midi": 51,
      "time": 276.75,
      "duration": 0.25,
      "velocity": 0.71,
      "hand": "left"
    },
    {
      "midi": 82,
      "time": 276.75,
      "duration": 0.25,
      "velocity": 0.68,
      "hand": "right"
    },
    {
      "midi": 86,
      "time": 276.75,
      "duration": 0.125,
      "velocity": 0.68,
      "hand": "right"
    },
    {
      "midi": 87,
      "time": 276.75,
      "duration": 0.25,
      "velocity": 0.68,
      "hand": "right"
    },
    {
      "midi": 58,
      "time": 277,
      "duration": 0.5,
      "velocity": 0.54,
      "hand": "left"
    },
    {
      "midi": 43,
      "time": 277.25,
      "duration": 0.25,
      "velocity": 0.71,
      "hand": "left"
    },
    {
      "midi": 51,
      "time": 277.25,
      "duration": 0.25,
      "velocity": 0.71,
      "hand": "left"
    },
    {
      "midi": 94,
      "time": 277.25,
      "duration": 0.25,
      "velocity": 0.68,
      "hand": "right"
    },
    {
      "midi": 98,
      "time": 277.25,
      "duration": 0.125,
      "velocity": 0.68,
      "hand": "right"
    },
    {
      "midi": 99,
      "time": 277.25,
      "duration": 0.25,
      "velocity": 0.68,
      "hand": "right"
    },
    {
      "midi": 63,
      "time": 277.5,
      "duration": 0.25,
      "velocity": 0.54,
      "hand": "right"
    },
    {
      "midi": 86,
      "time": 277.5,
      "duration": 0.25,
      "velocity": 0.68,
      "hand": "right"
    },
    {
      "midi": 62,
      "time": 277.75,
      "duration": 0.25,
      "velocity": 0.54,
      "hand": "right"
    },
    {
      "midi": 87,
      "time": 277.75,
      "duration": 0.25,
      "velocity": 0.68,
      "hand": "right"
    },
    {
      "midi": 91,
      "time": 277.75,
      "duration": 0.25,
      "velocity": 0.68,
      "hand": "right"
    },
    {
      "midi": 44,
      "time": 278,
      "duration": 0.25,
      "velocity": 0.54,
      "hand": "left"
    },
    {
      "midi": 50,
      "time": 278,
      "duration": 0.25,
      "velocity": 0.54,
      "hand": "left"
    },
    {
      "midi": 94,
      "time": 278,
      "duration": 0.25,
      "velocity": 0.68,
      "hand": "right"
    },
    {
      "midi": 96,
      "time": 278,
      "duration": 0.25,
      "velocity": 0.68,
      "hand": "right"
    },
    {
      "midi": 51,
      "time": 278.25,
      "duration": 0.25,
      "velocity": 0.54,
      "hand": "left"
    },
    {
      "midi": 91,
      "time": 278.25,
      "duration": 0.25,
      "velocity": 0.68,
      "hand": "right"
    },
    {
      "midi": 92,
      "time": 278.25,
      "duration": 0.25,
      "velocity": 0.68,
      "hand": "right"
    },
    {
      "midi": 52,
      "time": 278.5,
      "duration": 0.25,
      "velocity": 0.54,
      "hand": "left"
    },
    {
      "midi": 84,
      "time": 278.5,
      "duration": 0.25,
      "velocity": 0.68,
      "hand": "right"
    },
    {
      "midi": 89,
      "time": 278.5,
      "duration": 0.25,
      "velocity": 0.68,
      "hand": "right"
    },
    {
      "midi": 53,
      "time": 278.75,
      "duration": 0.25,
      "velocity": 0.54,
      "hand": "left"
    },
    {
      "midi": 79,
      "time": 278.75,
      "duration": 0.25,
      "velocity": 0.68,
      "hand": "right"
    },
    {
      "midi": 80,
      "time": 278.75,
      "duration": 0.25,
      "velocity": 0.68,
      "hand": "right"
    },
    {
      "midi": 55,
      "time": 279,
      "duration": 0.25,
      "velocity": 0.54,
      "hand": "left"
    },
    {
      "midi": 72,
      "time": 279,
      "duration": 0.25,
      "velocity": 0.68,
      "hand": "right"
    },
    {
      "midi": 77,
      "time": 279,
      "duration": 0.25,
      "velocity": 0.68,
      "hand": "right"
    },
    {
      "midi": 56,
      "time": 279.25,
      "duration": 0.25,
      "velocity": 0.54,
      "hand": "left"
    },
    {
      "midi": 67,
      "time": 279.25,
      "duration": 0.25,
      "velocity": 0.68,
      "hand": "right"
    },
    {
      "midi": 68,
      "time": 279.25,
      "duration": 0.25,
      "velocity": 0.68,
      "hand": "right"
    },
    {
      "midi": 60,
      "time": 279.5,
      "duration": 0.25,
      "velocity": 0.54,
      "hand": "right"
    },
    {
      "midi": 65,
      "time": 279.5,
      "duration": 0.25,
      "velocity": 0.68,
      "hand": "right"
    },
    {
      "midi": 88,
      "time": 279.75,
      "duration": 0.25,
      "velocity": 0.68,
      "hand": "right"
    },
    {
      "midi": 89,
      "time": 279.75,
      "duration": 0.25,
      "velocity": 0.68,
      "hand": "right"
    },
    {
      "midi": 43,
      "time": 280,
      "duration": 0.25,
      "velocity": 0.54,
      "hand": "left"
    },
    {
      "midi": 50,
      "time": 280,
      "duration": 0.25,
      "velocity": 0.54,
      "hand": "left"
    },
    {
      "midi": 91,
      "time": 280,
      "duration": 0.25,
      "velocity": 0.68,
      "hand": "right"
    },
    {
      "midi": 94,
      "time": 280,
      "duration": 0.25,
      "velocity": 0.68,
      "hand": "right"
    },
    {
      "midi": 51,
      "time": 280.25,
      "duration": 0.25,
      "velocity": 0.54,
      "hand": "left"
    },
    {
      "midi": 89,
      "time": 280.25,
      "duration": 0.25,
      "velocity": 0.68,
      "hand": "right"
    },
    {
      "midi": 91,
      "time": 280.25,
      "duration": 0.25,
      "velocity": 0.68,
      "hand": "right"
    },
    {
      "midi": 54,
      "time": 280.5,
      "duration": 0.25,
      "velocity": 0.54,
      "hand": "left"
    },
    {
      "midi": 82,
      "time": 280.5,
      "duration": 0.25,
      "velocity": 0.68,
      "hand": "right"
    },
    {
      "midi": 87,
      "time": 280.5,
      "duration": 0.25,
      "velocity": 0.68,
      "hand": "right"
    },
    {
      "midi": 55,
      "time": 280.75,
      "duration": 0.25,
      "velocity": 0.54,
      "hand": "left"
    },
    {
      "midi": 77,
      "time": 280.75,
      "duration": 0.25,
      "velocity": 0.68,
      "hand": "right"
    },
    {
      "midi": 79,
      "time": 280.75,
      "duration": 0.25,
      "velocity": 0.68,
      "hand": "right"
    },
    {
      "midi": 57,
      "time": 281,
      "duration": 0.25,
      "velocity": 0.54,
      "hand": "left"
    },
    {
      "midi": 70,
      "time": 281,
      "duration": 0.25,
      "velocity": 0.68,
      "hand": "right"
    },
    {
      "midi": 75,
      "time": 281,
      "duration": 0.25,
      "velocity": 0.68,
      "hand": "right"
    },
    {
      "midi": 58,
      "time": 281.25,
      "duration": 0.25,
      "velocity": 0.54,
      "hand": "left"
    },
    {
      "midi": 65,
      "time": 281.25,
      "duration": 0.25,
      "velocity": 0.68,
      "hand": "right"
    },
    {
      "midi": 67,
      "time": 281.25,
      "duration": 0.25,
      "velocity": 0.68,
      "hand": "right"
    },
    {
      "midi": 63,
      "time": 281.5,
      "duration": 0.25,
      "velocity": 0.68,
      "hand": "right"
    },
    {
      "midi": 91,
      "time": 281.75,
      "duration": 0.25,
      "velocity": 0.68,
      "hand": "right"
    },
    {
      "midi": 92,
      "time": 281.75,
      "duration": 0.25,
      "velocity": 0.68,
      "hand": "right"
    },
    {
      "midi": 44,
      "time": 282,
      "duration": 0.25,
      "velocity": 0.54,
      "hand": "left"
    },
    {
      "midi": 50,
      "time": 282,
      "duration": 0.25,
      "velocity": 0.54,
      "hand": "left"
    },
    {
      "midi": 94,
      "time": 282,
      "duration": 0.25,
      "velocity": 0.68,
      "hand": "right"
    },
    {
      "midi": 96,
      "time": 282,
      "duration": 0.25,
      "velocity": 0.68,
      "hand": "right"
    },
    {
      "midi": 51,
      "time": 282.25,
      "duration": 0.25,
      "velocity": 0.54,
      "hand": "left"
    },
    {
      "midi": 91,
      "time": 282.25,
      "duration": 0.25,
      "velocity": 0.68,
      "hand": "right"
    },
    {
      "midi": 92,
      "time": 282.25,
      "duration": 0.25,
      "velocity": 0.68,
      "hand": "right"
    },
    {
      "midi": 52,
      "time": 282.5,
      "duration": 0.25,
      "velocity": 0.54,
      "hand": "left"
    },
    {
      "midi": 84,
      "time": 282.5,
      "duration": 0.25,
      "velocity": 0.68,
      "hand": "right"
    },
    {
      "midi": 89,
      "time": 282.5,
      "duration": 0.25,
      "velocity": 0.68,
      "hand": "right"
    },
    {
      "midi": 53,
      "time": 282.75,
      "duration": 0.25,
      "velocity": 0.54,
      "hand": "left"
    },
    {
      "midi": 79,
      "time": 282.75,
      "duration": 0.25,
      "velocity": 0.68,
      "hand": "right"
    },
    {
      "midi": 80,
      "time": 282.75,
      "duration": 0.25,
      "velocity": 0.68,
      "hand": "right"
    },
    {
      "midi": 55,
      "time": 283,
      "duration": 0.25,
      "velocity": 0.54,
      "hand": "left"
    },
    {
      "midi": 72,
      "time": 283,
      "duration": 0.25,
      "velocity": 0.68,
      "hand": "right"
    },
    {
      "midi": 77,
      "time": 283,
      "duration": 0.25,
      "velocity": 0.68,
      "hand": "right"
    },
    {
      "midi": 56,
      "time": 283.25,
      "duration": 0.25,
      "velocity": 0.54,
      "hand": "left"
    },
    {
      "midi": 67,
      "time": 283.25,
      "duration": 0.25,
      "velocity": 0.68,
      "hand": "right"
    },
    {
      "midi": 68,
      "time": 283.25,
      "duration": 0.25,
      "velocity": 0.68,
      "hand": "right"
    },
    {
      "midi": 60,
      "time": 283.5,
      "duration": 0.25,
      "velocity": 0.54,
      "hand": "right"
    },
    {
      "midi": 65,
      "time": 283.5,
      "duration": 0.25,
      "velocity": 0.68,
      "hand": "right"
    },
    {
      "midi": 88,
      "time": 283.75,
      "duration": 0.25,
      "velocity": 0.68,
      "hand": "right"
    },
    {
      "midi": 89,
      "time": 283.75,
      "duration": 0.25,
      "velocity": 0.68,
      "hand": "right"
    },
    {
      "midi": 43,
      "time": 284,
      "duration": 0.25,
      "velocity": 0.54,
      "hand": "left"
    },
    {
      "midi": 50,
      "time": 284,
      "duration": 0.25,
      "velocity": 0.54,
      "hand": "left"
    },
    {
      "midi": 91,
      "time": 284,
      "duration": 0.25,
      "velocity": 0.68,
      "hand": "right"
    },
    {
      "midi": 94,
      "time": 284,
      "duration": 0.25,
      "velocity": 0.68,
      "hand": "right"
    },
    {
      "midi": 51,
      "time": 284.25,
      "duration": 0.25,
      "velocity": 0.54,
      "hand": "left"
    },
    {
      "midi": 89,
      "time": 284.25,
      "duration": 0.25,
      "velocity": 0.68,
      "hand": "right"
    },
    {
      "midi": 91,
      "time": 284.25,
      "duration": 0.25,
      "velocity": 0.68,
      "hand": "right"
    },
    {
      "midi": 54,
      "time": 284.5,
      "duration": 0.25,
      "velocity": 0.54,
      "hand": "left"
    },
    {
      "midi": 82,
      "time": 284.5,
      "duration": 0.25,
      "velocity": 0.68,
      "hand": "right"
    },
    {
      "midi": 87,
      "time": 284.5,
      "duration": 0.25,
      "velocity": 0.68,
      "hand": "right"
    },
    {
      "midi": 55,
      "time": 284.75,
      "duration": 0.25,
      "velocity": 0.54,
      "hand": "left"
    },
    {
      "midi": 77,
      "time": 284.75,
      "duration": 0.25,
      "velocity": 0.68,
      "hand": "right"
    },
    {
      "midi": 79,
      "time": 284.75,
      "duration": 0.25,
      "velocity": 0.68,
      "hand": "right"
    },
    {
      "midi": 57,
      "time": 285,
      "duration": 0.25,
      "velocity": 0.54,
      "hand": "left"
    },
    {
      "midi": 70,
      "time": 285,
      "duration": 0.25,
      "velocity": 0.68,
      "hand": "right"
    },
    {
      "midi": 75,
      "time": 285,
      "duration": 0.25,
      "velocity": 0.68,
      "hand": "right"
    },
    {
      "midi": 58,
      "time": 285.25,
      "duration": 0.25,
      "velocity": 0.54,
      "hand": "left"
    },
    {
      "midi": 65,
      "time": 285.25,
      "duration": 0.25,
      "velocity": 0.68,
      "hand": "right"
    },
    {
      "midi": 67,
      "time": 285.25,
      "duration": 0.25,
      "velocity": 0.68,
      "hand": "right"
    },
    {
      "midi": 63,
      "time": 285.5,
      "duration": 0.25,
      "velocity": 0.68,
      "hand": "right"
    },
    {
      "midi": 58,
      "time": 285.75,
      "duration": 0.25,
      "velocity": 0.54,
      "hand": "left"
    },
    {
      "midi": 67,
      "time": 285.75,
      "duration": 0.25,
      "velocity": 0.54,
      "hand": "right"
    },
    {
      "midi": 44,
      "time": 286,
      "duration": 0.25,
      "velocity": 0.71,
      "hand": "left"
    },
    {
      "midi": 51,
      "time": 286,
      "duration": 0.25,
      "velocity": 0.54,
      "hand": "left"
    },
    {
      "midi": 66,
      "time": 286,
      "duration": 0.25,
      "velocity": 0.54,
      "hand": "right"
    },
    {
      "midi": 52,
      "time": 286.25,
      "duration": 0.25,
      "velocity": 0.55,
      "hand": "left"
    },
    {
      "midi": 60,
      "time": 286.25,
      "duration": 0.25,
      "velocity": 0.54,
      "hand": "right"
    },
    {
      "midi": 67,
      "time": 286.25,
      "duration": 0.25,
      "velocity": 0.54,
      "hand": "right"
    },
    {
      "midi": 72,
      "time": 286.25,
      "duration": 0.25,
      "velocity": 0.54,
      "hand": "right"
    },
    {
      "midi": 44,
      "time": 286.5,
      "duration": 0.25,
      "velocity": 0.71,
      "hand": "left"
    },
    {
      "midi": 51,
      "time": 286.5,
      "duration": 0.25,
      "velocity": 0.56,
      "hand": "left"
    },
    {
      "midi": 66,
      "time": 286.5,
      "duration": 0.25,
      "velocity": 0.54,
      "hand": "right"
    },
    {
      "midi": 52,
      "time": 286.75,
      "duration": 0.25,
      "velocity": 0.57,
      "hand": "left"
    },
    {
      "midi": 60,
      "time": 286.75,
      "duration": 0.25,
      "velocity": 0.54,
      "hand": "right"
    },
    {
      "midi": 67,
      "time": 286.75,
      "duration": 0.25,
      "velocity": 0.54,
      "hand": "right"
    },
    {
      "midi": 72,
      "time": 286.75,
      "duration": 0.25,
      "velocity": 0.54,
      "hand": "right"
    },
    {
      "midi": 44,
      "time": 287,
      "duration": 0.25,
      "velocity": 0.71,
      "hand": "left"
    },
    {
      "midi": 51,
      "time": 287,
      "duration": 0.25,
      "velocity": 0.57,
      "hand": "left"
    },
    {
      "midi": 66,
      "time": 287,
      "duration": 0.25,
      "velocity": 0.54,
      "hand": "right"
    },
    {
      "midi": 52,
      "time": 287.25,
      "duration": 0.25,
      "velocity": 0.58,
      "hand": "left"
    },
    {
      "midi": 60,
      "time": 287.25,
      "duration": 0.25,
      "velocity": 0.54,
      "hand": "right"
    },
    {
      "midi": 67,
      "time": 287.25,
      "duration": 0.25,
      "velocity": 0.54,
      "hand": "right"
    },
    {
      "midi": 72,
      "time": 287.25,
      "duration": 0.25,
      "velocity": 0.54,
      "hand": "right"
    },
    {
      "midi": 44,
      "time": 287.5,
      "duration": 0.25,
      "velocity": 0.71,
      "hand": "left"
    },
    {
      "midi": 49,
      "time": 287.5,
      "duration": 0.25,
      "velocity": 0.59,
      "hand": "left"
    },
    {
      "midi": 64,
      "time": 287.5,
      "duration": 0.25,
      "velocity": 0.54,
      "hand": "right"
    },
    {
      "midi": 50,
      "time": 287.75,
      "duration": 0.25,
      "velocity": 0.6,
      "hand": "left"
    },
    {
      "midi": 58,
      "time": 287.75,
      "duration": 0.25,
      "velocity": 0.54,
      "hand": "left"
    },
    {
      "midi": 65,
      "time": 287.75,
      "duration": 0.25,
      "velocity": 0.54,
      "hand": "right"
    },
    {
      "midi": 70,
      "time": 287.75,
      "duration": 0.25,
      "velocity": 0.54,
      "hand": "right"
    },
    {
      "midi": 43,
      "time": 288,
      "duration": 0.25,
      "velocity": 0.71,
      "hand": "left"
    },
    {
      "midi": 50,
      "time": 288,
      "duration": 0.25,
      "velocity": 0.61,
      "hand": "left"
    },
    {
      "midi": 65,
      "time": 288,
      "duration": 0.25,
      "velocity": 0.54,
      "hand": "right"
    },
    {
      "midi": 51,
      "time": 288.25,
      "duration": 0.25,
      "velocity": 0.61,
      "hand": "left"
    },
    {
      "midi": 58,
      "time": 288.25,
      "duration": 0.25,
      "velocity": 0.54,
      "hand": "left"
    },
    {
      "midi": 67,
      "time": 288.25,
      "duration": 0.25,
      "velocity": 0.54,
      "hand": "right"
    },
    {
      "midi": 70,
      "time": 288.25,
      "duration": 0.25,
      "velocity": 0.54,
      "hand": "right"
    },
    {
      "midi": 43,
      "time": 288.5,
      "duration": 0.25,
      "velocity": 0.71,
      "hand": "left"
    },
    {
      "midi": 50,
      "time": 288.5,
      "duration": 0.25,
      "velocity": 0.62,
      "hand": "left"
    },
    {
      "midi": 65,
      "time": 288.5,
      "duration": 0.25,
      "velocity": 0.54,
      "hand": "right"
    },
    {
      "midi": 51,
      "time": 288.75,
      "duration": 0.25,
      "velocity": 0.63,
      "hand": "left"
    },
    {
      "midi": 58,
      "time": 288.75,
      "duration": 0.25,
      "velocity": 0.54,
      "hand": "left"
    },
    {
      "midi": 67,
      "time": 288.75,
      "duration": 0.25,
      "velocity": 0.54,
      "hand": "right"
    },
    {
      "midi": 70,
      "time": 288.75,
      "duration": 0.25,
      "velocity": 0.54,
      "hand": "right"
    },
    {
      "midi": 43,
      "time": 289,
      "duration": 0.25,
      "velocity": 0.71,
      "hand": "left"
    },
    {
      "midi": 50,
      "time": 289,
      "duration": 0.25,
      "velocity": 0.64,
      "hand": "left"
    },
    {
      "midi": 65,
      "time": 289,
      "duration": 0.25,
      "velocity": 0.54,
      "hand": "right"
    },
    {
      "midi": 51,
      "time": 289.25,
      "duration": 0.25,
      "velocity": 0.65,
      "hand": "left"
    },
    {
      "midi": 58,
      "time": 289.25,
      "duration": 0.25,
      "velocity": 0.54,
      "hand": "left"
    },
    {
      "midi": 67,
      "time": 289.25,
      "duration": 0.25,
      "velocity": 0.54,
      "hand": "right"
    },
    {
      "midi": 70,
      "time": 289.25,
      "duration": 0.25,
      "velocity": 0.54,
      "hand": "right"
    },
    {
      "midi": 43,
      "time": 289.5,
      "duration": 0.25,
      "velocity": 0.71,
      "hand": "left"
    },
    {
      "midi": 47,
      "time": 289.5,
      "duration": 0.25,
      "velocity": 0.65,
      "hand": "left"
    },
    {
      "midi": 62,
      "time": 289.5,
      "duration": 0.25,
      "velocity": 0.54,
      "hand": "right"
    },
    {
      "midi": 48,
      "time": 289.75,
      "duration": 0.25,
      "velocity": 0.66,
      "hand": "left"
    },
    {
      "midi": 55,
      "time": 289.75,
      "duration": 0.25,
      "velocity": 0.54,
      "hand": "left"
    },
    {
      "midi": 63,
      "time": 289.75,
      "duration": 0.25,
      "velocity": 0.54,
      "hand": "right"
    },
    {
      "midi": 67,
      "time": 289.75,
      "duration": 0.25,
      "velocity": 0.54,
      "hand": "right"
    },
    {
      "midi": 44,
      "time": 290,
      "duration": 0.25,
      "velocity": 0.71,
      "hand": "left"
    },
    {
      "midi": 51,
      "time": 290,
      "duration": 0.25,
      "velocity": 0.67,
      "hand": "left"
    },
    {
      "midi": 66,
      "time": 290,
      "duration": 0.25,
      "velocity": 0.54,
      "hand": "right"
    },
    {
      "midi": 52,
      "time": 290.25,
      "duration": 0.25,
      "velocity": 0.68,
      "hand": "left"
    },
    {
      "midi": 60,
      "time": 290.25,
      "duration": 0.25,
      "velocity": 0.54,
      "hand": "right"
    },
    {
      "midi": 67,
      "time": 290.25,
      "duration": 0.25,
      "velocity": 0.54,
      "hand": "right"
    },
    {
      "midi": 72,
      "time": 290.25,
      "duration": 0.25,
      "velocity": 0.54,
      "hand": "right"
    },
    {
      "midi": 44,
      "time": 290.5,
      "duration": 0.25,
      "velocity": 0.71,
      "hand": "left"
    },
    {
      "midi": 51,
      "time": 290.5,
      "duration": 0.25,
      "velocity": 0.69,
      "hand": "left"
    },
    {
      "midi": 66,
      "time": 290.5,
      "duration": 0.25,
      "velocity": 0.54,
      "hand": "right"
    },
    {
      "midi": 52,
      "time": 290.75,
      "duration": 0.25,
      "velocity": 0.69,
      "hand": "left"
    },
    {
      "midi": 60,
      "time": 290.75,
      "duration": 0.25,
      "velocity": 0.54,
      "hand": "right"
    },
    {
      "midi": 67,
      "time": 290.75,
      "duration": 0.25,
      "velocity": 0.54,
      "hand": "right"
    },
    {
      "midi": 72,
      "time": 290.75,
      "duration": 0.25,
      "velocity": 0.54,
      "hand": "right"
    },
    {
      "midi": 44,
      "time": 291,
      "duration": 0.25,
      "velocity": 0.71,
      "hand": "left"
    },
    {
      "midi": 51,
      "time": 291,
      "duration": 0.25,
      "velocity": 0.7,
      "hand": "left"
    },
    {
      "midi": 66,
      "time": 291,
      "duration": 0.25,
      "velocity": 0.54,
      "hand": "right"
    },
    {
      "midi": 52,
      "time": 291.25,
      "duration": 0.25,
      "velocity": 0.71,
      "hand": "left"
    },
    {
      "midi": 60,
      "time": 291.25,
      "duration": 0.25,
      "velocity": 0.54,
      "hand": "right"
    },
    {
      "midi": 67,
      "time": 291.25,
      "duration": 0.25,
      "velocity": 0.54,
      "hand": "right"
    },
    {
      "midi": 72,
      "time": 291.25,
      "duration": 0.25,
      "velocity": 0.54,
      "hand": "right"
    },
    {
      "midi": 44,
      "time": 291.5,
      "duration": 0.25,
      "velocity": 0.71,
      "hand": "left"
    },
    {
      "midi": 49,
      "time": 291.5,
      "duration": 0.25,
      "velocity": 0.72,
      "hand": "left"
    },
    {
      "midi": 64,
      "time": 291.5,
      "duration": 0.25,
      "velocity": 0.54,
      "hand": "right"
    },
    {
      "midi": 50,
      "time": 291.75,
      "duration": 0.25,
      "velocity": 0.72,
      "hand": "left"
    },
    {
      "midi": 58,
      "time": 291.75,
      "duration": 0.25,
      "velocity": 0.54,
      "hand": "left"
    },
    {
      "midi": 65,
      "time": 291.75,
      "duration": 0.25,
      "velocity": 0.54,
      "hand": "right"
    },
    {
      "midi": 70,
      "time": 291.75,
      "duration": 0.25,
      "velocity": 0.54,
      "hand": "right"
    },
    {
      "midi": 43,
      "time": 292,
      "duration": 0.25,
      "velocity": 0.71,
      "hand": "left"
    },
    {
      "midi": 50,
      "time": 292,
      "duration": 0.25,
      "velocity": 0.73,
      "hand": "left"
    },
    {
      "midi": 65,
      "time": 292,
      "duration": 0.25,
      "velocity": 0.54,
      "hand": "right"
    },
    {
      "midi": 51,
      "time": 292.25,
      "duration": 0.25,
      "velocity": 0.74,
      "hand": "left"
    },
    {
      "midi": 58,
      "time": 292.25,
      "duration": 0.25,
      "velocity": 0.54,
      "hand": "left"
    },
    {
      "midi": 67,
      "time": 292.25,
      "duration": 0.25,
      "velocity": 0.54,
      "hand": "right"
    },
    {
      "midi": 70,
      "time": 292.25,
      "duration": 0.25,
      "velocity": 0.54,
      "hand": "right"
    },
    {
      "midi": 43,
      "time": 292.5,
      "duration": 0.25,
      "velocity": 0.71,
      "hand": "left"
    },
    {
      "midi": 50,
      "time": 292.5,
      "duration": 0.25,
      "velocity": 0.75,
      "hand": "left"
    },
    {
      "midi": 65,
      "time": 292.5,
      "duration": 0.25,
      "velocity": 0.54,
      "hand": "right"
    },
    {
      "midi": 51,
      "time": 292.75,
      "duration": 0.25,
      "velocity": 0.76,
      "hand": "left"
    },
    {
      "midi": 58,
      "time": 292.75,
      "duration": 0.25,
      "velocity": 0.54,
      "hand": "left"
    },
    {
      "midi": 67,
      "time": 292.75,
      "duration": 0.25,
      "velocity": 0.54,
      "hand": "right"
    },
    {
      "midi": 70,
      "time": 292.75,
      "duration": 0.25,
      "velocity": 0.54,
      "hand": "right"
    },
    {
      "midi": 43,
      "time": 293,
      "duration": 0.25,
      "velocity": 0.71,
      "hand": "left"
    },
    {
      "midi": 50,
      "time": 293,
      "duration": 0.25,
      "velocity": 0.76,
      "hand": "left"
    },
    {
      "midi": 65,
      "time": 293,
      "duration": 0.25,
      "velocity": 0.54,
      "hand": "right"
    },
    {
      "midi": 51,
      "time": 293.25,
      "duration": 0.25,
      "velocity": 0.77,
      "hand": "left"
    },
    {
      "midi": 58,
      "time": 293.25,
      "duration": 0.25,
      "velocity": 0.54,
      "hand": "left"
    },
    {
      "midi": 67,
      "time": 293.25,
      "duration": 0.25,
      "velocity": 0.54,
      "hand": "right"
    },
    {
      "midi": 70,
      "time": 293.25,
      "duration": 0.25,
      "velocity": 0.54,
      "hand": "right"
    },
    {
      "midi": 43,
      "time": 293.5,
      "duration": 0.25,
      "velocity": 0.71,
      "hand": "left"
    },
    {
      "midi": 47,
      "time": 293.5,
      "duration": 0.25,
      "velocity": 0.78,
      "hand": "left"
    },
    {
      "midi": 62,
      "time": 293.5,
      "duration": 0.25,
      "velocity": 0.54,
      "hand": "right"
    },
    {
      "midi": 48,
      "time": 293.75,
      "duration": 0.25,
      "velocity": 0.79,
      "hand": "left"
    },
    {
      "midi": 55,
      "time": 293.75,
      "duration": 0.25,
      "velocity": 0.54,
      "hand": "left"
    },
    {
      "midi": 63,
      "time": 293.75,
      "duration": 0.25,
      "velocity": 0.54,
      "hand": "right"
    },
    {
      "midi": 67,
      "time": 293.75,
      "duration": 0.25,
      "velocity": 0.54,
      "hand": "right"
    },
    {
      "midi": 32,
      "time": 294,
      "duration": 0.5,
      "velocity": 0.8,
      "hand": "left"
    },
    {
      "midi": 38,
      "time": 294,
      "duration": 0.5,
      "velocity": 0.8,
      "hand": "left"
    },
    {
      "midi": 44,
      "time": 294,
      "duration": 0.5,
      "velocity": 0.8,
      "hand": "left"
    },
    {
      "midi": 60,
      "time": 294.25,
      "duration": 0.5,
      "velocity": 0.54,
      "hand": "right"
    },
    {
      "midi": 72,
      "time": 294.25,
      "duration": 0.5,
      "velocity": 0.54,
      "hand": "right"
    },
    {
      "midi": 44,
      "time": 294.5,
      "duration": 0.5,
      "velocity": 0.8,
      "hand": "left"
    },
    {
      "midi": 50,
      "time": 294.5,
      "duration": 0.5,
      "velocity": 0.8,
      "hand": "left"
    },
    {
      "midi": 56,
      "time": 294.5,
      "duration": 0.5,
      "velocity": 0.8,
      "hand": "left"
    },
    {
      "midi": 72,
      "time": 294.75,
      "duration": 0.75,
      "velocity": 0.54,
      "hand": "right"
    },
    {
      "midi": 84,
      "time": 294.75,
      "duration": 0.75,
      "velocity": 0.54,
      "hand": "right"
    },
    {
      "midi": 56,
      "time": 295,
      "duration": 1,
      "velocity": 0.8,
      "hand": "left"
    },
    {
      "midi": 62,
      "time": 295,
      "duration": 1,
      "velocity": 0.8,
      "hand": "right"
    },
    {
      "midi": 68,
      "time": 295,
      "duration": 1,
      "velocity": 0.8,
      "hand": "right"
    },
    {
      "midi": 67,
      "time": 295.5,
      "duration": 0.25,
      "velocity": 0.54,
      "hand": "right"
    },
    {
      "midi": 68,
      "time": 295.5,
      "duration": 0.25,
      "velocity": 0.54,
      "hand": "right"
    },
    {
      "midi": 79,
      "time": 295.5,
      "duration": 0.25,
      "velocity": 0.54,
      "hand": "right"
    },
    {
      "midi": 80,
      "time": 295.5,
      "duration": 0.25,
      "velocity": 0.54,
      "hand": "right"
    },
    {
      "midi": 65,
      "time": 295.75,
      "duration": 0.25,
      "velocity": 0.54,
      "hand": "right"
    },
    {
      "midi": 77,
      "time": 295.75,
      "duration": 0.25,
      "velocity": 0.54,
      "hand": "right"
    },
    {
      "midi": 31,
      "time": 296,
      "duration": 0.5,
      "velocity": 0.8,
      "hand": "left"
    },
    {
      "midi": 39,
      "time": 296,
      "duration": 0.5,
      "velocity": 0.8,
      "hand": "left"
    },
    {
      "midi": 43,
      "time": 296,
      "duration": 0.5,
      "velocity": 0.8,
      "hand": "left"
    },
    {
      "midi": 58,
      "time": 296.25,
      "duration": 0.5,
      "velocity": 0.54,
      "hand": "left"
    },
    {
      "midi": 70,
      "time": 296.25,
      "duration": 0.5,
      "velocity": 0.54,
      "hand": "right"
    },
    {
      "midi": 43,
      "time": 296.5,
      "duration": 0.5,
      "velocity": 0.8,
      "hand": "left"
    },
    {
      "midi": 51,
      "time": 296.5,
      "duration": 0.5,
      "velocity": 0.8,
      "hand": "left"
    },
    {
      "midi": 55,
      "time": 296.5,
      "duration": 0.5,
      "velocity": 0.8,
      "hand": "left"
    },
    {
      "midi": 70,
      "time": 296.75,
      "duration": 0.75,
      "velocity": 0.54,
      "hand": "right"
    },
    {
      "midi": 82,
      "time": 296.75,
      "duration": 0.75,
      "velocity": 0.54,
      "hand": "right"
    },
    {
      "midi": 55,
      "time": 297,
      "duration": 1,
      "velocity": 0.8,
      "hand": "left"
    },
    {
      "midi": 63,
      "time": 297,
      "duration": 1,
      "velocity": 0.8,
      "hand": "right"
    },
    {
      "midi": 67,
      "time": 297,
      "duration": 1,
      "velocity": 0.8,
      "hand": "right"
    },
    {
      "midi": 65,
      "time": 297.5,
      "duration": 0.25,
      "velocity": 0.54,
      "hand": "right"
    },
    {
      "midi": 67,
      "time": 297.5,
      "duration": 0.25,
      "velocity": 0.54,
      "hand": "right"
    },
    {
      "midi": 77,
      "time": 297.5,
      "duration": 0.25,
      "velocity": 0.54,
      "hand": "right"
    },
    {
      "midi": 79,
      "time": 297.5,
      "duration": 0.25,
      "velocity": 0.54,
      "hand": "right"
    },
    {
      "midi": 63,
      "time": 297.75,
      "duration": 0.25,
      "velocity": 0.54,
      "hand": "right"
    },
    {
      "midi": 75,
      "time": 297.75,
      "duration": 0.25,
      "velocity": 0.54,
      "hand": "right"
    },
    {
      "midi": 32,
      "time": 298,
      "duration": 0.5,
      "velocity": 0.8,
      "hand": "left"
    },
    {
      "midi": 38,
      "time": 298,
      "duration": 0.5,
      "velocity": 0.8,
      "hand": "left"
    },
    {
      "midi": 44,
      "time": 298,
      "duration": 0.5,
      "velocity": 0.8,
      "hand": "left"
    },
    {
      "midi": 60,
      "time": 298.25,
      "duration": 0.5,
      "velocity": 0.54,
      "hand": "right"
    },
    {
      "midi": 72,
      "time": 298.25,
      "duration": 0.5,
      "velocity": 0.54,
      "hand": "right"
    },
    {
      "midi": 44,
      "time": 298.5,
      "duration": 0.5,
      "velocity": 0.8,
      "hand": "left"
    },
    {
      "midi": 50,
      "time": 298.5,
      "duration": 0.5,
      "velocity": 0.8,
      "hand": "left"
    },
    {
      "midi": 56,
      "time": 298.5,
      "duration": 0.5,
      "velocity": 0.8,
      "hand": "left"
    },
    {
      "midi": 72,
      "time": 298.75,
      "duration": 0.75,
      "velocity": 0.54,
      "hand": "right"
    },
    {
      "midi": 84,
      "time": 298.75,
      "duration": 0.75,
      "velocity": 0.54,
      "hand": "right"
    },
    {
      "midi": 56,
      "time": 299,
      "duration": 1,
      "velocity": 0.8,
      "hand": "left"
    },
    {
      "midi": 62,
      "time": 299,
      "duration": 1,
      "velocity": 0.8,
      "hand": "right"
    },
    {
      "midi": 68,
      "time": 299,
      "duration": 1,
      "velocity": 0.8,
      "hand": "right"
    },
    {
      "midi": 67,
      "time": 299.5,
      "duration": 0.25,
      "velocity": 0.54,
      "hand": "right"
    },
    {
      "midi": 68,
      "time": 299.5,
      "duration": 0.25,
      "velocity": 0.54,
      "hand": "right"
    },
    {
      "midi": 79,
      "time": 299.5,
      "duration": 0.25,
      "velocity": 0.54,
      "hand": "right"
    },
    {
      "midi": 80,
      "time": 299.5,
      "duration": 0.25,
      "velocity": 0.54,
      "hand": "right"
    },
    {
      "midi": 65,
      "time": 299.75,
      "duration": 0.25,
      "velocity": 0.54,
      "hand": "right"
    },
    {
      "midi": 77,
      "time": 299.75,
      "duration": 0.25,
      "velocity": 0.54,
      "hand": "right"
    },
    {
      "midi": 31,
      "time": 300,
      "duration": 0.5,
      "velocity": 0.8,
      "hand": "left"
    },
    {
      "midi": 39,
      "time": 300,
      "duration": 0.5,
      "velocity": 0.8,
      "hand": "left"
    },
    {
      "midi": 43,
      "time": 300,
      "duration": 0.5,
      "velocity": 0.8,
      "hand": "left"
    },
    {
      "midi": 58,
      "time": 300.25,
      "duration": 0.5,
      "velocity": 0.54,
      "hand": "left"
    },
    {
      "midi": 70,
      "time": 300.25,
      "duration": 0.5,
      "velocity": 0.54,
      "hand": "right"
    },
    {
      "midi": 43,
      "time": 300.5,
      "duration": 0.5,
      "velocity": 0.8,
      "hand": "left"
    },
    {
      "midi": 51,
      "time": 300.5,
      "duration": 0.5,
      "velocity": 0.8,
      "hand": "left"
    },
    {
      "midi": 55,
      "time": 300.5,
      "duration": 0.5,
      "velocity": 0.8,
      "hand": "left"
    },
    {
      "midi": 70,
      "time": 300.75,
      "duration": 0.75,
      "velocity": 0.54,
      "hand": "right"
    },
    {
      "midi": 82,
      "time": 300.75,
      "duration": 0.75,
      "velocity": 0.54,
      "hand": "right"
    },
    {
      "midi": 55,
      "time": 301,
      "duration": 0.5,
      "velocity": 0.8,
      "hand": "left"
    },
    {
      "midi": 63,
      "time": 301,
      "duration": 0.5,
      "velocity": 0.8,
      "hand": "right"
    },
    {
      "midi": 67,
      "time": 301,
      "duration": 0.5,
      "velocity": 0.8,
      "hand": "right"
    },
    {
      "midi": 51,
      "time": 301.5,
      "duration": 0.25,
      "velocity": 0.8,
      "hand": "left"
    },
    {
      "midi": 55,
      "time": 301.5,
      "duration": 0.25,
      "velocity": 0.8,
      "hand": "left"
    },
    {
      "midi": 65,
      "time": 301.5,
      "duration": 0.25,
      "velocity": 0.54,
      "hand": "right"
    },
    {
      "midi": 67,
      "time": 301.5,
      "duration": 0.25,
      "velocity": 0.54,
      "hand": "right"
    },
    {
      "midi": 77,
      "time": 301.5,
      "duration": 0.25,
      "velocity": 0.54,
      "hand": "right"
    },
    {
      "midi": 79,
      "time": 301.5,
      "duration": 0.25,
      "velocity": 0.54,
      "hand": "right"
    },
    {
      "midi": 55,
      "time": 301.75,
      "duration": 0.25,
      "velocity": 0.8,
      "hand": "left"
    },
    {
      "midi": 58,
      "time": 301.75,
      "duration": 0.25,
      "velocity": 0.8,
      "hand": "left"
    },
    {
      "midi": 63,
      "time": 301.75,
      "duration": 0.25,
      "velocity": 0.54,
      "hand": "right"
    },
    {
      "midi": 75,
      "time": 301.75,
      "duration": 0.25,
      "velocity": 0.54,
      "hand": "right"
    },
    {
      "midi": 56,
      "time": 302,
      "duration": 0.5,
      "velocity": 0.84,
      "hand": "left"
    },
    {
      "midi": 60,
      "time": 302,
      "duration": 0.5,
      "velocity": 0.84,
      "hand": "right"
    },
    {
      "midi": 62,
      "time": 302.25,
      "duration": 0.25,
      "velocity": 0.54,
      "hand": "right"
    },
    {
      "midi": 44,
      "time": 302.5,
      "duration": 1,
      "velocity": 1,
      "hand": "left"
    },
    {
      "midi": 48,
      "time": 302.5,
      "duration": 1,
      "velocity": 1,
      "hand": "left"
    },
    {
      "midi": 53,
      "time": 302.5,
      "duration": 1,
      "velocity": 1,
      "hand": "left"
    },
    {
      "midi": 64,
      "time": 302.5,
      "duration": 0.25,
      "velocity": 0.54,
      "hand": "right"
    },
    {
      "midi": 65,
      "time": 302.5,
      "duration": 0.125,
      "velocity": 0.54,
      "hand": "right"
    },
    {
      "midi": 67,
      "time": 302.5,
      "duration": 0.125,
      "velocity": 0.54,
      "hand": "right"
    },
    {
      "midi": 68,
      "time": 302.75,
      "duration": 0.125,
      "velocity": 0.54,
      "hand": "right"
    },
    {
      "midi": 70,
      "time": 302.75,
      "duration": 0.125,
      "velocity": 0.54,
      "hand": "right"
    },
    {
      "midi": 72,
      "time": 303,
      "duration": 0.125,
      "velocity": 0.54,
      "hand": "right"
    },
    {
      "midi": 74,
      "time": 303,
      "duration": 0.125,
      "velocity": 0.54,
      "hand": "right"
    },
    {
      "midi": 76,
      "time": 303,
      "duration": 0.125,
      "velocity": 0.54,
      "hand": "right"
    },
    {
      "midi": 77,
      "time": 303.25,
      "duration": 0.125,
      "velocity": 0.54,
      "hand": "right"
    },
    {
      "midi": 79,
      "time": 303.25,
      "duration": 0.125,
      "velocity": 0.54,
      "hand": "right"
    },
    {
      "midi": 80,
      "time": 303.25,
      "duration": 0.125,
      "velocity": 0.54,
      "hand": "right"
    },
    {
      "midi": 50,
      "time": 303.5,
      "duration": 0.25,
      "velocity": 1,
      "hand": "left"
    },
    {
      "midi": 53,
      "time": 303.5,
      "duration": 0.25,
      "velocity": 1,
      "hand": "left"
    },
    {
      "midi": 82,
      "time": 303.5,
      "duration": 0.125,
      "velocity": 0.54,
      "hand": "right"
    },
    {
      "midi": 84,
      "time": 303.5,
      "duration": 0.5,
      "velocity": 0.54,
      "hand": "right"
    },
    {
      "midi": 53,
      "time": 303.75,
      "duration": 0.25,
      "velocity": 1,
      "hand": "left"
    },
    {
      "midi": 56,
      "time": 303.75,
      "duration": 0.25,
      "velocity": 1,
      "hand": "left"
    },
    {
      "midi": 55,
      "time": 304,
      "duration": 0.5,
      "velocity": 1,
      "hand": "left"
    },
    {
      "midi": 58,
      "time": 304,
      "duration": 0.5,
      "velocity": 1,
      "hand": "left"
    },
    {
      "midi": 60,
      "time": 304.25,
      "duration": 0.25,
      "velocity": 0.54,
      "hand": "right"
    },
    {
      "midi": 43,
      "time": 304.5,
      "duration": 1,
      "velocity": 1,
      "hand": "left"
    },
    {
      "midi": 46,
      "time": 304.5,
      "duration": 1,
      "velocity": 1,
      "hand": "left"
    },
    {
      "midi": 51,
      "time": 304.5,
      "duration": 1,
      "velocity": 1,
      "hand": "left"
    },
    {
      "midi": 62,
      "time": 304.5,
      "duration": 0.25,
      "velocity": 0.54,
      "hand": "right"
    },
    {
      "midi": 63,
      "time": 304.5,
      "duration": 0.125,
      "velocity": 0.54,
      "hand": "right"
    },
    {
      "midi": 65,
      "time": 304.5,
      "duration": 0.125,
      "velocity": 0.54,
      "hand": "right"
    },
    {
      "midi": 67,
      "time": 304.75,
      "duration": 0.125,
      "velocity": 0.54,
      "hand": "right"
    },
    {
      "midi": 68,
      "time": 304.75,
      "duration": 0.125,
      "velocity": 0.54,
      "hand": "right"
    },
    {
      "midi": 70,
      "time": 305,
      "duration": 0.125,
      "velocity": 0.54,
      "hand": "right"
    },
    {
      "midi": 72,
      "time": 305,
      "duration": 0.125,
      "velocity": 0.54,
      "hand": "right"
    },
    {
      "midi": 74,
      "time": 305,
      "duration": 0.125,
      "velocity": 0.54,
      "hand": "right"
    },
    {
      "midi": 75,
      "time": 305.25,
      "duration": 0.125,
      "velocity": 0.54,
      "hand": "right"
    },
    {
      "midi": 77,
      "time": 305.25,
      "duration": 0.125,
      "velocity": 0.54,
      "hand": "right"
    },
    {
      "midi": 79,
      "time": 305.25,
      "duration": 0.125,
      "velocity": 0.54,
      "hand": "right"
    },
    {
      "midi": 51,
      "time": 305.5,
      "duration": 0.25,
      "velocity": 1,
      "hand": "left"
    },
    {
      "midi": 55,
      "time": 305.5,
      "duration": 0.25,
      "velocity": 1,
      "hand": "left"
    },
    {
      "midi": 80,
      "time": 305.5,
      "duration": 0.125,
      "velocity": 0.54,
      "hand": "right"
    },
    {
      "midi": 82,
      "time": 305.5,
      "duration": 0.5,
      "velocity": 0.54,
      "hand": "right"
    },
    {
      "midi": 55,
      "time": 305.75,
      "duration": 0.25,
      "velocity": 1,
      "hand": "left"
    },
    {
      "midi": 58,
      "time": 305.75,
      "duration": 0.25,
      "velocity": 1,
      "hand": "left"
    },
    {
      "midi": 56,
      "time": 306,
      "duration": 0.5,
      "velocity": 1,
      "hand": "left"
    },
    {
      "midi": 60,
      "time": 306,
      "duration": 0.5,
      "velocity": 1,
      "hand": "right"
    },
    {
      "midi": 62,
      "time": 306.25,
      "duration": 0.25,
      "velocity": 0.54,
      "hand": "right"
    },
    {
      "midi": 44,
      "time": 306.5,
      "duration": 1,
      "velocity": 1,
      "hand": "left"
    },
    {
      "midi": 48,
      "time": 306.5,
      "duration": 1,
      "velocity": 1,
      "hand": "left"
    },
    {
      "midi": 53,
      "time": 306.5,
      "duration": 1,
      "velocity": 1,
      "hand": "left"
    },
    {
      "midi": 64,
      "time": 306.5,
      "duration": 0.25,
      "velocity": 0.54,
      "hand": "right"
    },
    {
      "midi": 65,
      "time": 306.5,
      "duration": 0.125,
      "velocity": 0.54,
      "hand": "right"
    },
    {
      "midi": 67,
      "time": 306.5,
      "duration": 0.125,
      "velocity": 0.54,
      "hand": "right"
    },
    {
      "midi": 68,
      "time": 306.75,
      "duration": 0.125,
      "velocity": 0.54,
      "hand": "right"
    },
    {
      "midi": 70,
      "time": 306.75,
      "duration": 0.125,
      "velocity": 0.54,
      "hand": "right"
    },
    {
      "midi": 72,
      "time": 307,
      "duration": 0.125,
      "velocity": 0.54,
      "hand": "right"
    },
    {
      "midi": 74,
      "time": 307,
      "duration": 0.125,
      "velocity": 0.54,
      "hand": "right"
    },
    {
      "midi": 76,
      "time": 307,
      "duration": 0.125,
      "velocity": 0.54,
      "hand": "right"
    },
    {
      "midi": 77,
      "time": 307.25,
      "duration": 0.125,
      "velocity": 0.54,
      "hand": "right"
    },
    {
      "midi": 79,
      "time": 307.25,
      "duration": 0.125,
      "velocity": 0.54,
      "hand": "right"
    },
    {
      "midi": 80,
      "time": 307.25,
      "duration": 0.125,
      "velocity": 0.54,
      "hand": "right"
    },
    {
      "midi": 50,
      "time": 307.5,
      "duration": 0.25,
      "velocity": 1,
      "hand": "left"
    },
    {
      "midi": 53,
      "time": 307.5,
      "duration": 0.25,
      "velocity": 1,
      "hand": "left"
    },
    {
      "midi": 82,
      "time": 307.5,
      "duration": 0.125,
      "velocity": 0.54,
      "hand": "right"
    },
    {
      "midi": 84,
      "time": 307.5,
      "duration": 0.5,
      "velocity": 0.54,
      "hand": "right"
    },
    {
      "midi": 53,
      "time": 307.75,
      "duration": 0.25,
      "velocity": 1,
      "hand": "left"
    },
    {
      "midi": 56,
      "time": 307.75,
      "duration": 0.25,
      "velocity": 1,
      "hand": "left"
    },
    {
      "midi": 55,
      "time": 308,
      "duration": 0.5,
      "velocity": 1,
      "hand": "left"
    },
    {
      "midi": 58,
      "time": 308,
      "duration": 0.5,
      "velocity": 1,
      "hand": "left"
    },
    {
      "midi": 60,
      "time": 308.25,
      "duration": 0.25,
      "velocity": 0.54,
      "hand": "right"
    },
    {
      "midi": 43,
      "time": 308.5,
      "duration": 1,
      "velocity": 1,
      "hand": "left"
    },
    {
      "midi": 46,
      "time": 308.5,
      "duration": 1,
      "velocity": 1,
      "hand": "left"
    },
    {
      "midi": 51,
      "time": 308.5,
      "duration": 1,
      "velocity": 1,
      "hand": "left"
    },
    {
      "midi": 62,
      "time": 308.5,
      "duration": 0.25,
      "velocity": 0.54,
      "hand": "right"
    },
    {
      "midi": 63,
      "time": 308.5,
      "duration": 0.125,
      "velocity": 0.54,
      "hand": "right"
    },
    {
      "midi": 65,
      "time": 308.5,
      "duration": 0.125,
      "velocity": 0.54,
      "hand": "right"
    },
    {
      "midi": 67,
      "time": 308.75,
      "duration": 0.125,
      "velocity": 0.54,
      "hand": "right"
    },
    {
      "midi": 68,
      "time": 308.75,
      "duration": 0.125,
      "velocity": 0.54,
      "hand": "right"
    },
    {
      "midi": 70,
      "time": 309,
      "duration": 0.125,
      "velocity": 0.54,
      "hand": "right"
    },
    {
      "midi": 72,
      "time": 309,
      "duration": 0.125,
      "velocity": 0.54,
      "hand": "right"
    },
    {
      "midi": 74,
      "time": 309,
      "duration": 0.125,
      "velocity": 0.54,
      "hand": "right"
    },
    {
      "midi": 75,
      "time": 309.25,
      "duration": 0.125,
      "velocity": 0.54,
      "hand": "right"
    },
    {
      "midi": 77,
      "time": 309.25,
      "duration": 0.125,
      "velocity": 0.54,
      "hand": "right"
    },
    {
      "midi": 79,
      "time": 309.25,
      "duration": 0.125,
      "velocity": 0.54,
      "hand": "right"
    },
    {
      "midi": 67,
      "time": 309.5,
      "duration": 0.25,
      "velocity": 1,
      "hand": "right"
    },
    {
      "midi": 70,
      "time": 309.5,
      "duration": 0.25,
      "velocity": 1,
      "hand": "right"
    },
    {
      "midi": 75,
      "time": 309.5,
      "duration": 0.25,
      "velocity": 1,
      "hand": "right"
    },
    {
      "midi": 80,
      "time": 309.5,
      "duration": 0.125,
      "velocity": 0.54,
      "hand": "right"
    },
    {
      "midi": 82,
      "time": 309.5,
      "duration": 0.25,
      "velocity": 0.54,
      "hand": "right"
    },
    {
      "midi": 67,
      "time": 309.75,
      "duration": 0.25,
      "velocity": 1,
      "hand": "right"
    },
    {
      "midi": 70,
      "time": 309.75,
      "duration": 0.25,
      "velocity": 1,
      "hand": "right"
    },
    {
      "midi": 75,
      "time": 309.75,
      "duration": 0.25,
      "velocity": 1,
      "hand": "right"
    },
    {
      "midi": 82,
      "time": 309.75,
      "duration": 0.25,
      "velocity": 0.54,
      "hand": "right"
    },
    {
      "midi": 84,
      "time": 309.75,
      "duration": 0.25,
      "velocity": 0.54,
      "hand": "right"
    },
    {
      "midi": 67,
      "time": 310,
      "duration": 0.25,
      "velocity": 0.71,
      "hand": "right"
    },
    {
      "midi": 70,
      "time": 310,
      "duration": 0.25,
      "velocity": 0.71,
      "hand": "right"
    },
    {
      "midi": 74,
      "time": 310,
      "duration": 0.25,
      "velocity": 0.71,
      "hand": "right"
    },
    {
      "midi": 79,
      "time": 310,
      "duration": 0.25,
      "velocity": 0.71,
      "hand": "right"
    },
    {
      "midi": 82,
      "time": 310,
      "duration": 0.25,
      "velocity": 0.71,
      "hand": "right"
    },
    {
      "midi": 86,
      "time": 310,
      "duration": 0.5,
      "velocity": 0.71,
      "hand": "right"
    },
    {
      "midi": 67,
      "time": 310.25,
      "duration": 0.25,
      "velocity": 0.71,
      "hand": "right"
    },
    {
      "midi": 70,
      "time": 310.25,
      "duration": 0.25,
      "velocity": 0.71,
      "hand": "right"
    },
    {
      "midi": 74,
      "time": 310.25,
      "duration": 0.25,
      "velocity": 0.71,
      "hand": "right"
    },
    {
      "midi": 79,
      "time": 310.25,
      "duration": 0.25,
      "velocity": 0.71,
      "hand": "right"
    },
    {
      "midi": 82,
      "time": 310.25,
      "duration": 0.25,
      "velocity": 0.71,
      "hand": "right"
    },
    {
      "midi": 67,
      "time": 310.5,
      "duration": 0.25,
      "velocity": 0.71,
      "hand": "right"
    },
    {
      "midi": 70,
      "time": 310.5,
      "duration": 0.25,
      "velocity": 0.71,
      "hand": "right"
    },
    {
      "midi": 74,
      "time": 310.5,
      "duration": 0.25,
      "velocity": 0.71,
      "hand": "right"
    },
    {
      "midi": 79,
      "time": 310.5,
      "duration": 0.25,
      "velocity": 0.71,
      "hand": "right"
    },
    {
      "midi": 82,
      "time": 310.5,
      "duration": 0.25,
      "velocity": 0.71,
      "hand": "right"
    },
    {
      "midi": 86,
      "time": 310.5,
      "duration": 1,
      "velocity": 0.71,
      "hand": "right"
    },
    {
      "midi": 67,
      "time": 310.75,
      "duration": 0.25,
      "velocity": 0.71,
      "hand": "right"
    },
    {
      "midi": 70,
      "time": 310.75,
      "duration": 0.25,
      "velocity": 0.71,
      "hand": "right"
    },
    {
      "midi": 74,
      "time": 310.75,
      "duration": 0.25,
      "velocity": 0.71,
      "hand": "right"
    },
    {
      "midi": 79,
      "time": 310.75,
      "duration": 0.25,
      "velocity": 0.71,
      "hand": "right"
    },
    {
      "midi": 82,
      "time": 310.75,
      "duration": 0.25,
      "velocity": 0.71,
      "hand": "right"
    },
    {
      "midi": 67,
      "time": 311,
      "duration": 0.25,
      "velocity": 0.71,
      "hand": "right"
    },
    {
      "midi": 70,
      "time": 311,
      "duration": 0.25,
      "velocity": 0.71,
      "hand": "right"
    },
    {
      "midi": 74,
      "time": 311,
      "duration": 0.25,
      "velocity": 0.71,
      "hand": "right"
    },
    {
      "midi": 79,
      "time": 311,
      "duration": 0.25,
      "velocity": 0.71,
      "hand": "right"
    },
    {
      "midi": 82,
      "time": 311,
      "duration": 0.25,
      "velocity": 0.71,
      "hand": "right"
    },
    {
      "midi": 67,
      "time": 311.25,
      "duration": 0.25,
      "velocity": 0.71,
      "hand": "right"
    },
    {
      "midi": 70,
      "time": 311.25,
      "duration": 0.25,
      "velocity": 0.71,
      "hand": "right"
    },
    {
      "midi": 74,
      "time": 311.25,
      "duration": 0.25,
      "velocity": 0.71,
      "hand": "right"
    },
    {
      "midi": 79,
      "time": 311.25,
      "duration": 0.25,
      "velocity": 0.71,
      "hand": "right"
    },
    {
      "midi": 82,
      "time": 311.25,
      "duration": 0.25,
      "velocity": 0.71,
      "hand": "right"
    },
    {
      "midi": 63,
      "time": 311.5,
      "duration": 0.25,
      "velocity": 0.71,
      "hand": "right"
    },
    {
      "midi": 67,
      "time": 311.5,
      "duration": 0.25,
      "velocity": 0.71,
      "hand": "right"
    },
    {
      "midi": 72,
      "time": 311.5,
      "duration": 0.25,
      "velocity": 0.71,
      "hand": "right"
    },
    {
      "midi": 79,
      "time": 311.5,
      "duration": 0.25,
      "velocity": 0.71,
      "hand": "right"
    },
    {
      "midi": 84,
      "time": 311.5,
      "duration": 0.25,
      "velocity": 0.71,
      "hand": "right"
    },
    {
      "midi": 63,
      "time": 311.75,
      "duration": 0.25,
      "velocity": 0.71,
      "hand": "right"
    },
    {
      "midi": 67,
      "time": 311.75,
      "duration": 0.25,
      "velocity": 0.71,
      "hand": "right"
    },
    {
      "midi": 72,
      "time": 311.75,
      "duration": 0.25,
      "velocity": 0.71,
      "hand": "right"
    },
    {
      "midi": 79,
      "time": 311.75,
      "duration": 0.25,
      "velocity": 0.71,
      "hand": "right"
    },
    {
      "midi": 84,
      "time": 311.75,
      "duration": 0.25,
      "velocity": 0.71,
      "hand": "right"
    },
    {
      "midi": 86,
      "time": 311.75,
      "duration": 0.25,
      "velocity": 0.71,
      "hand": "right"
    },
    {
      "midi": 67,
      "time": 312,
      "duration": 0.25,
      "velocity": 0.71,
      "hand": "right"
    },
    {
      "midi": 70,
      "time": 312,
      "duration": 0.25,
      "velocity": 0.71,
      "hand": "right"
    },
    {
      "midi": 74,
      "time": 312,
      "duration": 0.25,
      "velocity": 0.71,
      "hand": "right"
    },
    {
      "midi": 79,
      "time": 312,
      "duration": 0.25,
      "velocity": 0.71,
      "hand": "right"
    },
    {
      "midi": 82,
      "time": 312,
      "duration": 0.25,
      "velocity": 0.71,
      "hand": "right"
    },
    {
      "midi": 86,
      "time": 312,
      "duration": 0.5,
      "velocity": 0.71,
      "hand": "right"
    },
    {
      "midi": 91,
      "time": 312,
      "duration": 0.25,
      "velocity": 0.71,
      "hand": "right"
    },
    {
      "midi": 67,
      "time": 312.25,
      "duration": 0.25,
      "velocity": 0.71,
      "hand": "right"
    },
    {
      "midi": 70,
      "time": 312.25,
      "duration": 0.25,
      "velocity": 0.71,
      "hand": "right"
    },
    {
      "midi": 74,
      "time": 312.25,
      "duration": 0.25,
      "velocity": 0.71,
      "hand": "right"
    },
    {
      "midi": 79,
      "time": 312.25,
      "duration": 0.25,
      "velocity": 0.71,
      "hand": "right"
    },
    {
      "midi": 82,
      "time": 312.25,
      "duration": 0.25,
      "velocity": 0.71,
      "hand": "right"
    },
    {
      "midi": 67,
      "time": 312.5,
      "duration": 0.25,
      "velocity": 0.71,
      "hand": "right"
    },
    {
      "midi": 70,
      "time": 312.5,
      "duration": 0.25,
      "velocity": 0.71,
      "hand": "right"
    },
    {
      "midi": 74,
      "time": 312.5,
      "duration": 0.25,
      "velocity": 0.71,
      "hand": "right"
    },
    {
      "midi": 79,
      "time": 312.5,
      "duration": 0.25,
      "velocity": 0.71,
      "hand": "right"
    },
    {
      "midi": 82,
      "time": 312.5,
      "duration": 0.25,
      "velocity": 0.71,
      "hand": "right"
    },
    {
      "midi": 86,
      "time": 312.5,
      "duration": 1,
      "velocity": 0.71,
      "hand": "right"
    },
    {
      "midi": 67,
      "time": 312.75,
      "duration": 0.25,
      "velocity": 0.71,
      "hand": "right"
    },
    {
      "midi": 70,
      "time": 312.75,
      "duration": 0.25,
      "velocity": 0.71,
      "hand": "right"
    },
    {
      "midi": 74,
      "time": 312.75,
      "duration": 0.25,
      "velocity": 0.71,
      "hand": "right"
    },
    {
      "midi": 79,
      "time": 312.75,
      "duration": 0.25,
      "velocity": 0.71,
      "hand": "right"
    },
    {
      "midi": 82,
      "time": 312.75,
      "duration": 0.25,
      "velocity": 0.71,
      "hand": "right"
    },
    {
      "midi": 67,
      "time": 313,
      "duration": 0.25,
      "velocity": 0.71,
      "hand": "right"
    },
    {
      "midi": 70,
      "time": 313,
      "duration": 0.25,
      "velocity": 0.71,
      "hand": "right"
    },
    {
      "midi": 74,
      "time": 313,
      "duration": 0.25,
      "velocity": 0.71,
      "hand": "right"
    },
    {
      "midi": 79,
      "time": 313,
      "duration": 0.25,
      "velocity": 0.71,
      "hand": "right"
    },
    {
      "midi": 82,
      "time": 313,
      "duration": 0.25,
      "velocity": 0.71,
      "hand": "right"
    },
    {
      "midi": 67,
      "time": 313.25,
      "duration": 0.25,
      "velocity": 0.71,
      "hand": "right"
    },
    {
      "midi": 70,
      "time": 313.25,
      "duration": 0.25,
      "velocity": 0.71,
      "hand": "right"
    },
    {
      "midi": 74,
      "time": 313.25,
      "duration": 0.25,
      "velocity": 0.71,
      "hand": "right"
    },
    {
      "midi": 79,
      "time": 313.25,
      "duration": 0.25,
      "velocity": 0.71,
      "hand": "right"
    },
    {
      "midi": 82,
      "time": 313.25,
      "duration": 0.25,
      "velocity": 0.71,
      "hand": "right"
    },
    {
      "midi": 63,
      "time": 313.5,
      "duration": 0.25,
      "velocity": 0.71,
      "hand": "right"
    },
    {
      "midi": 67,
      "time": 313.5,
      "duration": 0.25,
      "velocity": 0.71,
      "hand": "right"
    },
    {
      "midi": 72,
      "time": 313.5,
      "duration": 0.25,
      "velocity": 0.71,
      "hand": "right"
    },
    {
      "midi": 79,
      "time": 313.5,
      "duration": 0.25,
      "velocity": 0.71,
      "hand": "right"
    },
    {
      "midi": 84,
      "time": 313.5,
      "duration": 0.25,
      "velocity": 0.71,
      "hand": "right"
    },
    {
      "midi": 63,
      "time": 313.75,
      "duration": 0.25,
      "velocity": 0.71,
      "hand": "right"
    },
    {
      "midi": 67,
      "time": 313.75,
      "duration": 0.25,
      "velocity": 0.71,
      "hand": "right"
    },
    {
      "midi": 72,
      "time": 313.75,
      "duration": 0.25,
      "velocity": 0.71,
      "hand": "right"
    },
    {
      "midi": 79,
      "time": 313.75,
      "duration": 0.25,
      "velocity": 0.71,
      "hand": "right"
    },
    {
      "midi": 84,
      "time": 313.75,
      "duration": 0.25,
      "velocity": 0.71,
      "hand": "right"
    },
    {
      "midi": 86,
      "time": 313.75,
      "duration": 0.25,
      "velocity": 0.71,
      "hand": "right"
    },
    {
      "midi": 67,
      "time": 314,
      "duration": 0.25,
      "velocity": 0.71,
      "hand": "right"
    },
    {
      "midi": 70,
      "time": 314,
      "duration": 0.25,
      "velocity": 0.71,
      "hand": "right"
    },
    {
      "midi": 74,
      "time": 314,
      "duration": 0.25,
      "velocity": 0.71,
      "hand": "right"
    },
    {
      "midi": 79,
      "time": 314,
      "duration": 0.5,
      "velocity": 0.71,
      "hand": "right"
    },
    {
      "midi": 86,
      "time": 314,
      "duration": 0.25,
      "velocity": 0.71,
      "hand": "right"
    },
    {
      "midi": 67,
      "time": 314.25,
      "duration": 0.25,
      "velocity": 0.71,
      "hand": "right"
    },
    {
      "midi": 70,
      "time": 314.25,
      "duration": 0.25,
      "velocity": 0.71,
      "hand": "right"
    },
    {
      "midi": 74,
      "time": 314.25,
      "duration": 0.25,
      "velocity": 0.71,
      "hand": "right"
    },
    {
      "midi": 67,
      "time": 314.5,
      "duration": 0.25,
      "velocity": 0.71,
      "hand": "right"
    },
    {
      "midi": 72,
      "time": 314.5,
      "duration": 0.25,
      "velocity": 0.71,
      "hand": "right"
    },
    {
      "midi": 75,
      "time": 314.5,
      "duration": 0.25,
      "velocity": 0.71,
      "hand": "right"
    },
    {
      "midi": 81,
      "time": 314.5,
      "duration": 0.5,
      "velocity": 0.71,
      "hand": "right"
    },
    {
      "midi": 82,
      "time": 314.5,
      "duration": 0.25,
      "velocity": 0.71,
      "hand": "right"
    },
    {
      "midi": 67,
      "time": 314.75,
      "duration": 0.25,
      "velocity": 0.71,
      "hand": "right"
    },
    {
      "midi": 72,
      "time": 314.75,
      "duration": 0.25,
      "velocity": 0.71,
      "hand": "right"
    },
    {
      "midi": 75,
      "time": 314.75,
      "duration": 0.25,
      "velocity": 0.71,
      "hand": "right"
    },
    {
      "midi": 67,
      "time": 315,
      "duration": 0.25,
      "velocity": 0.71,
      "hand": "right"
    },
    {
      "midi": 70,
      "time": 315,
      "duration": 0.25,
      "velocity": 0.71,
      "hand": "right"
    },
    {
      "midi": 74,
      "time": 315,
      "duration": 0.25,
      "velocity": 0.71,
      "hand": "right"
    },
    {
      "midi": 79,
      "time": 315,
      "duration": 0.5,
      "velocity": 0.71,
      "hand": "right"
    },
    {
      "midi": 82,
      "time": 315,
      "duration": 0.25,
      "velocity": 0.71,
      "hand": "right"
    },
    {
      "midi": 67,
      "time": 315.25,
      "duration": 0.25,
      "velocity": 0.71,
      "hand": "right"
    },
    {
      "midi": 70,
      "time": 315.25,
      "duration": 0.25,
      "velocity": 0.71,
      "hand": "right"
    },
    {
      "midi": 74,
      "time": 315.25,
      "duration": 0.25,
      "velocity": 0.71,
      "hand": "right"
    },
    {
      "midi": 63,
      "time": 315.5,
      "duration": 0.25,
      "velocity": 0.71,
      "hand": "right"
    },
    {
      "midi": 67,
      "time": 315.5,
      "duration": 0.25,
      "velocity": 0.71,
      "hand": "right"
    },
    {
      "midi": 72,
      "time": 315.5,
      "duration": 0.25,
      "velocity": 0.71,
      "hand": "right"
    },
    {
      "midi": 79,
      "time": 315.5,
      "duration": 0.25,
      "velocity": 0.71,
      "hand": "right"
    },
    {
      "midi": 82,
      "time": 315.5,
      "duration": 0.25,
      "velocity": 0.71,
      "hand": "right"
    },
    {
      "midi": 84,
      "time": 315.5,
      "duration": 0.5,
      "velocity": 0.71,
      "hand": "right"
    },
    {
      "midi": 63,
      "time": 315.75,
      "duration": 0.25,
      "velocity": 0.71,
      "hand": "right"
    },
    {
      "midi": 67,
      "time": 315.75,
      "duration": 0.25,
      "velocity": 0.71,
      "hand": "right"
    },
    {
      "midi": 72,
      "time": 315.75,
      "duration": 0.25,
      "velocity": 0.71,
      "hand": "right"
    },
    {
      "midi": 79,
      "time": 315.75,
      "duration": 0.25,
      "velocity": 0.71,
      "hand": "right"
    },
    {
      "midi": 67,
      "time": 316,
      "duration": 0.25,
      "velocity": 0.71,
      "hand": "right"
    },
    {
      "midi": 70,
      "time": 316,
      "duration": 0.25,
      "velocity": 0.71,
      "hand": "right"
    },
    {
      "midi": 74,
      "time": 316,
      "duration": 0.25,
      "velocity": 0.71,
      "hand": "right"
    },
    {
      "midi": 79,
      "time": 316,
      "duration": 0.5,
      "velocity": 0.71,
      "hand": "right"
    },
    {
      "midi": 82,
      "time": 316,
      "duration": 0.25,
      "velocity": 0.71,
      "hand": "right"
    },
    {
      "midi": 67,
      "time": 316.25,
      "duration": 0.25,
      "velocity": 0.71,
      "hand": "right"
    },
    {
      "midi": 70,
      "time": 316.25,
      "duration": 0.25,
      "velocity": 0.71,
      "hand": "right"
    },
    {
      "midi": 74,
      "time": 316.25,
      "duration": 0.25,
      "velocity": 0.71,
      "hand": "right"
    },
    {
      "midi": 67,
      "time": 316.5,
      "duration": 0.25,
      "velocity": 0.71,
      "hand": "right"
    },
    {
      "midi": 70,
      "time": 316.5,
      "duration": 0.25,
      "velocity": 0.71,
      "hand": "right"
    },
    {
      "midi": 74,
      "time": 316.5,
      "duration": 0.25,
      "velocity": 0.71,
      "hand": "right"
    },
    {
      "midi": 79,
      "time": 316.5,
      "duration": 1,
      "velocity": 0.71,
      "hand": "right"
    },
    {
      "midi": 67,
      "time": 316.75,
      "duration": 0.25,
      "velocity": 0.71,
      "hand": "right"
    },
    {
      "midi": 70,
      "time": 316.75,
      "duration": 0.25,
      "velocity": 0.71,
      "hand": "right"
    },
    {
      "midi": 74,
      "time": 316.75,
      "duration": 0.25,
      "velocity": 0.71,
      "hand": "right"
    },
    {
      "midi": 67,
      "time": 317,
      "duration": 0.25,
      "velocity": 0.71,
      "hand": "right"
    },
    {
      "midi": 70,
      "time": 317,
      "duration": 0.25,
      "velocity": 0.71,
      "hand": "right"
    },
    {
      "midi": 74,
      "time": 317,
      "duration": 0.25,
      "velocity": 0.71,
      "hand": "right"
    },
    {
      "midi": 91,
      "time": 317,
      "duration": 0.5,
      "velocity": 0.71,
      "hand": "right"
    },
    {
      "midi": 98,
      "time": 317,
      "duration": 0.5,
      "velocity": 0.71,
      "hand": "right"
    },
    {
      "midi": 67,
      "time": 317.25,
      "duration": 0.25,
      "velocity": 0.71,
      "hand": "right"
    },
    {
      "midi": 70,
      "time": 317.25,
      "duration": 0.25,
      "velocity": 0.71,
      "hand": "right"
    },
    {
      "midi": 74,
      "time": 317.25,
      "duration": 0.25,
      "velocity": 0.71,
      "hand": "right"
    },
    {
      "midi": 67,
      "time": 317.5,
      "duration": 0.25,
      "velocity": 0.71,
      "hand": "right"
    },
    {
      "midi": 70,
      "time": 317.5,
      "duration": 0.25,
      "velocity": 0.71,
      "hand": "right"
    },
    {
      "midi": 75,
      "time": 317.5,
      "duration": 0.25,
      "velocity": 0.71,
      "hand": "right"
    },
    {
      "midi": 82,
      "time": 317.5,
      "duration": 0.25,
      "velocity": 0.71,
      "hand": "right"
    },
    {
      "midi": 67,
      "time": 317.75,
      "duration": 0.25,
      "velocity": 0.71,
      "hand": "right"
    },
    {
      "midi": 70,
      "time": 317.75,
      "duration": 0.25,
      "velocity": 0.71,
      "hand": "right"
    },
    {
      "midi": 75,
      "time": 317.75,
      "duration": 0.25,
      "velocity": 0.71,
      "hand": "right"
    },
    {
      "midi": 82,
      "time": 317.75,
      "duration": 0.25,
      "velocity": 0.71,
      "hand": "right"
    },
    {
      "midi": 84,
      "time": 317.75,
      "duration": 0.25,
      "velocity": 0.71,
      "hand": "right"
    },
    {
      "midi": 67,
      "time": 318,
      "duration": 0.25,
      "velocity": 0.71,
      "hand": "right"
    },
    {
      "midi": 70,
      "time": 318,
      "duration": 0.25,
      "velocity": 0.71,
      "hand": "right"
    },
    {
      "midi": 74,
      "time": 318,
      "duration": 0.25,
      "velocity": 0.71,
      "hand": "right"
    },
    {
      "midi": 79,
      "time": 318,
      "duration": 0.25,
      "velocity": 0.71,
      "hand": "right"
    },
    {
      "midi": 82,
      "time": 318,
      "duration": 0.25,
      "velocity": 0.71,
      "hand": "right"
    },
    {
      "midi": 86,
      "time": 318,
      "duration": 0.5,
      "velocity": 0.71,
      "hand": "right"
    },
    {
      "midi": 67,
      "time": 318.25,
      "duration": 0.25,
      "velocity": 0.71,
      "hand": "right"
    },
    {
      "midi": 70,
      "time": 318.25,
      "duration": 0.25,
      "velocity": 0.71,
      "hand": "right"
    },
    {
      "midi": 74,
      "time": 318.25,
      "duration": 0.25,
      "velocity": 0.71,
      "hand": "right"
    },
    {
      "midi": 79,
      "time": 318.25,
      "duration": 0.25,
      "velocity": 0.71,
      "hand": "right"
    },
    {
      "midi": 82,
      "time": 318.25,
      "duration": 0.25,
      "velocity": 0.71,
      "hand": "right"
    },
    {
      "midi": 67,
      "time": 318.5,
      "duration": 0.25,
      "velocity": 0.71,
      "hand": "right"
    },
    {
      "midi": 70,
      "time": 318.5,
      "duration": 0.25,
      "velocity": 0.71,
      "hand": "right"
    },
    {
      "midi": 74,
      "time": 318.5,
      "duration": 0.25,
      "velocity": 0.71,
      "hand": "right"
    },
    {
      "midi": 79,
      "time": 318.5,
      "duration": 0.25,
      "velocity": 0.71,
      "hand": "right"
    },
    {
      "midi": 82,
      "time": 318.5,
      "duration": 0.25,
      "velocity": 0.71,
      "hand": "right"
    },
    {
      "midi": 86,
      "time": 318.5,
      "duration": 1,
      "velocity": 0.71,
      "hand": "right"
    },
    {
      "midi": 67,
      "time": 318.75,
      "duration": 0.25,
      "velocity": 0.71,
      "hand": "right"
    },
    {
      "midi": 70,
      "time": 318.75,
      "duration": 0.25,
      "velocity": 0.71,
      "hand": "right"
    },
    {
      "midi": 74,
      "time": 318.75,
      "duration": 0.25,
      "velocity": 0.71,
      "hand": "right"
    },
    {
      "midi": 79,
      "time": 318.75,
      "duration": 0.25,
      "velocity": 0.71,
      "hand": "right"
    },
    {
      "midi": 82,
      "time": 318.75,
      "duration": 0.25,
      "velocity": 0.71,
      "hand": "right"
    },
    {
      "midi": 67,
      "time": 319,
      "duration": 0.25,
      "velocity": 0.71,
      "hand": "right"
    },
    {
      "midi": 70,
      "time": 319,
      "duration": 0.25,
      "velocity": 0.71,
      "hand": "right"
    },
    {
      "midi": 74,
      "time": 319,
      "duration": 0.25,
      "velocity": 0.71,
      "hand": "right"
    },
    {
      "midi": 79,
      "time": 319,
      "duration": 0.25,
      "velocity": 0.71,
      "hand": "right"
    },
    {
      "midi": 82,
      "time": 319,
      "duration": 0.25,
      "velocity": 0.71,
      "hand": "right"
    },
    {
      "midi": 67,
      "time": 319.25,
      "duration": 0.25,
      "velocity": 0.71,
      "hand": "right"
    },
    {
      "midi": 70,
      "time": 319.25,
      "duration": 0.25,
      "velocity": 0.71,
      "hand": "right"
    },
    {
      "midi": 74,
      "time": 319.25,
      "duration": 0.25,
      "velocity": 0.71,
      "hand": "right"
    },
    {
      "midi": 79,
      "time": 319.25,
      "duration": 0.25,
      "velocity": 0.71,
      "hand": "right"
    },
    {
      "midi": 82,
      "time": 319.25,
      "duration": 0.25,
      "velocity": 0.71,
      "hand": "right"
    },
    {
      "midi": 63,
      "time": 319.5,
      "duration": 0.25,
      "velocity": 0.71,
      "hand": "right"
    },
    {
      "midi": 67,
      "time": 319.5,
      "duration": 0.25,
      "velocity": 0.71,
      "hand": "right"
    },
    {
      "midi": 72,
      "time": 319.5,
      "duration": 0.25,
      "velocity": 0.71,
      "hand": "right"
    },
    {
      "midi": 79,
      "time": 319.5,
      "duration": 0.25,
      "velocity": 0.71,
      "hand": "right"
    },
    {
      "midi": 84,
      "time": 319.5,
      "duration": 0.25,
      "velocity": 0.71,
      "hand": "right"
    },
    {
      "midi": 63,
      "time": 319.75,
      "duration": 0.25,
      "velocity": 0.71,
      "hand": "right"
    },
    {
      "midi": 67,
      "time": 319.75,
      "duration": 0.25,
      "velocity": 0.71,
      "hand": "right"
    },
    {
      "midi": 72,
      "time": 319.75,
      "duration": 0.25,
      "velocity": 0.71,
      "hand": "right"
    },
    {
      "midi": 79,
      "time": 319.75,
      "duration": 0.25,
      "velocity": 0.71,
      "hand": "right"
    },
    {
      "midi": 84,
      "time": 319.75,
      "duration": 0.25,
      "velocity": 0.71,
      "hand": "right"
    },
    {
      "midi": 86,
      "time": 319.75,
      "duration": 0.25,
      "velocity": 0.71,
      "hand": "right"
    },
    {
      "midi": 67,
      "time": 320,
      "duration": 0.25,
      "velocity": 0.71,
      "hand": "right"
    },
    {
      "midi": 70,
      "time": 320,
      "duration": 0.25,
      "velocity": 0.71,
      "hand": "right"
    },
    {
      "midi": 74,
      "time": 320,
      "duration": 0.25,
      "velocity": 0.71,
      "hand": "right"
    },
    {
      "midi": 79,
      "time": 320,
      "duration": 0.25,
      "velocity": 0.71,
      "hand": "right"
    },
    {
      "midi": 82,
      "time": 320,
      "duration": 0.25,
      "velocity": 0.71,
      "hand": "right"
    },
    {
      "midi": 86,
      "time": 320,
      "duration": 0.5,
      "velocity": 0.71,
      "hand": "right"
    },
    {
      "midi": 91,
      "time": 320,
      "duration": 0.25,
      "velocity": 0.71,
      "hand": "right"
    },
    {
      "midi": 67,
      "time": 320.25,
      "duration": 0.25,
      "velocity": 0.71,
      "hand": "right"
    },
    {
      "midi": 70,
      "time": 320.25,
      "duration": 0.25,
      "velocity": 0.71,
      "hand": "right"
    },
    {
      "midi": 74,
      "time": 320.25,
      "duration": 0.25,
      "velocity": 0.71,
      "hand": "right"
    },
    {
      "midi": 79,
      "time": 320.25,
      "duration": 0.25,
      "velocity": 0.71,
      "hand": "right"
    },
    {
      "midi": 82,
      "time": 320.25,
      "duration": 0.25,
      "velocity": 0.71,
      "hand": "right"
    },
    {
      "midi": 67,
      "time": 320.5,
      "duration": 0.25,
      "velocity": 0.71,
      "hand": "right"
    },
    {
      "midi": 70,
      "time": 320.5,
      "duration": 0.25,
      "velocity": 0.71,
      "hand": "right"
    },
    {
      "midi": 74,
      "time": 320.5,
      "duration": 0.25,
      "velocity": 0.71,
      "hand": "right"
    },
    {
      "midi": 79,
      "time": 320.5,
      "duration": 0.25,
      "velocity": 0.71,
      "hand": "right"
    },
    {
      "midi": 82,
      "time": 320.5,
      "duration": 0.25,
      "velocity": 0.71,
      "hand": "right"
    },
    {
      "midi": 86,
      "time": 320.5,
      "duration": 1,
      "velocity": 0.71,
      "hand": "right"
    },
    {
      "midi": 67,
      "time": 320.75,
      "duration": 0.25,
      "velocity": 0.71,
      "hand": "right"
    },
    {
      "midi": 70,
      "time": 320.75,
      "duration": 0.25,
      "velocity": 0.71,
      "hand": "right"
    },
    {
      "midi": 74,
      "time": 320.75,
      "duration": 0.25,
      "velocity": 0.71,
      "hand": "right"
    },
    {
      "midi": 79,
      "time": 320.75,
      "duration": 0.25,
      "velocity": 0.71,
      "hand": "right"
    },
    {
      "midi": 82,
      "time": 320.75,
      "duration": 0.25,
      "velocity": 0.71,
      "hand": "right"
    },
    {
      "midi": 67,
      "time": 321,
      "duration": 0.25,
      "velocity": 0.71,
      "hand": "right"
    },
    {
      "midi": 70,
      "time": 321,
      "duration": 0.25,
      "velocity": 0.71,
      "hand": "right"
    },
    {
      "midi": 74,
      "time": 321,
      "duration": 0.25,
      "velocity": 0.71,
      "hand": "right"
    },
    {
      "midi": 79,
      "time": 321,
      "duration": 0.25,
      "velocity": 0.71,
      "hand": "right"
    },
    {
      "midi": 82,
      "time": 321,
      "duration": 0.25,
      "velocity": 0.71,
      "hand": "right"
    },
    {
      "midi": 67,
      "time": 321.25,
      "duration": 0.25,
      "velocity": 0.71,
      "hand": "right"
    },
    {
      "midi": 70,
      "time": 321.25,
      "duration": 0.25,
      "velocity": 0.71,
      "hand": "right"
    },
    {
      "midi": 74,
      "time": 321.25,
      "duration": 0.25,
      "velocity": 0.71,
      "hand": "right"
    },
    {
      "midi": 79,
      "time": 321.25,
      "duration": 0.25,
      "velocity": 0.71,
      "hand": "right"
    },
    {
      "midi": 82,
      "time": 321.25,
      "duration": 0.25,
      "velocity": 0.71,
      "hand": "right"
    },
    {
      "midi": 63,
      "time": 321.5,
      "duration": 0.25,
      "velocity": 0.71,
      "hand": "right"
    },
    {
      "midi": 67,
      "time": 321.5,
      "duration": 0.25,
      "velocity": 0.71,
      "hand": "right"
    },
    {
      "midi": 72,
      "time": 321.5,
      "duration": 0.25,
      "velocity": 0.71,
      "hand": "right"
    },
    {
      "midi": 79,
      "time": 321.5,
      "duration": 0.25,
      "velocity": 0.71,
      "hand": "right"
    },
    {
      "midi": 84,
      "time": 321.5,
      "duration": 0.25,
      "velocity": 0.71,
      "hand": "right"
    },
    {
      "midi": 63,
      "time": 321.75,
      "duration": 0.25,
      "velocity": 0.71,
      "hand": "right"
    },
    {
      "midi": 67,
      "time": 321.75,
      "duration": 0.25,
      "velocity": 0.71,
      "hand": "right"
    },
    {
      "midi": 72,
      "time": 321.75,
      "duration": 0.25,
      "velocity": 0.71,
      "hand": "right"
    },
    {
      "midi": 79,
      "time": 321.75,
      "duration": 0.25,
      "velocity": 0.71,
      "hand": "right"
    },
    {
      "midi": 84,
      "time": 321.75,
      "duration": 0.25,
      "velocity": 0.71,
      "hand": "right"
    },
    {
      "midi": 86,
      "time": 321.75,
      "duration": 0.25,
      "velocity": 0.71,
      "hand": "right"
    },
    {
      "midi": 67,
      "time": 322,
      "duration": 0.25,
      "velocity": 0.71,
      "hand": "right"
    },
    {
      "midi": 70,
      "time": 322,
      "duration": 0.25,
      "velocity": 0.71,
      "hand": "right"
    },
    {
      "midi": 74,
      "time": 322,
      "duration": 0.25,
      "velocity": 0.71,
      "hand": "right"
    },
    {
      "midi": 79,
      "time": 322,
      "duration": 0.5,
      "velocity": 0.71,
      "hand": "right"
    },
    {
      "midi": 86,
      "time": 322,
      "duration": 0.25,
      "velocity": 0.71,
      "hand": "right"
    },
    {
      "midi": 67,
      "time": 322.25,
      "duration": 0.25,
      "velocity": 0.71,
      "hand": "right"
    },
    {
      "midi": 70,
      "time": 322.25,
      "duration": 0.25,
      "velocity": 0.71,
      "hand": "right"
    },
    {
      "midi": 74,
      "time": 322.25,
      "duration": 0.25,
      "velocity": 0.71,
      "hand": "right"
    },
    {
      "midi": 67,
      "time": 322.5,
      "duration": 0.25,
      "velocity": 0.71,
      "hand": "right"
    },
    {
      "midi": 72,
      "time": 322.5,
      "duration": 0.25,
      "velocity": 0.71,
      "hand": "right"
    },
    {
      "midi": 75,
      "time": 322.5,
      "duration": 0.25,
      "velocity": 0.71,
      "hand": "right"
    },
    {
      "midi": 81,
      "time": 322.5,
      "duration": 0.5,
      "velocity": 0.71,
      "hand": "right"
    },
    {
      "midi": 82,
      "time": 322.5,
      "duration": 0.25,
      "velocity": 0.71,
      "hand": "right"
    },
    {
      "midi": 67,
      "time": 322.75,
      "duration": 0.25,
      "velocity": 0.71,
      "hand": "right"
    },
    {
      "midi": 72,
      "time": 322.75,
      "duration": 0.25,
      "velocity": 0.71,
      "hand": "right"
    },
    {
      "midi": 75,
      "time": 322.75,
      "duration": 0.25,
      "velocity": 0.71,
      "hand": "right"
    },
    {
      "midi": 67,
      "time": 323,
      "duration": 0.25,
      "velocity": 0.71,
      "hand": "right"
    },
    {
      "midi": 70,
      "time": 323,
      "duration": 0.25,
      "velocity": 0.71,
      "hand": "right"
    },
    {
      "midi": 74,
      "time": 323,
      "duration": 0.25,
      "velocity": 0.71,
      "hand": "right"
    },
    {
      "midi": 79,
      "time": 323,
      "duration": 0.5,
      "velocity": 0.71,
      "hand": "right"
    },
    {
      "midi": 82,
      "time": 323,
      "duration": 0.25,
      "velocity": 0.71,
      "hand": "right"
    },
    {
      "midi": 67,
      "time": 323.25,
      "duration": 0.25,
      "velocity": 0.71,
      "hand": "right"
    },
    {
      "midi": 70,
      "time": 323.25,
      "duration": 0.25,
      "velocity": 0.71,
      "hand": "right"
    },
    {
      "midi": 74,
      "time": 323.25,
      "duration": 0.25,
      "velocity": 0.71,
      "hand": "right"
    },
    {
      "midi": 63,
      "time": 323.5,
      "duration": 0.25,
      "velocity": 0.71,
      "hand": "right"
    },
    {
      "midi": 67,
      "time": 323.5,
      "duration": 0.25,
      "velocity": 0.71,
      "hand": "right"
    },
    {
      "midi": 72,
      "time": 323.5,
      "duration": 0.25,
      "velocity": 0.71,
      "hand": "right"
    },
    {
      "midi": 79,
      "time": 323.5,
      "duration": 0.25,
      "velocity": 0.71,
      "hand": "right"
    },
    {
      "midi": 82,
      "time": 323.5,
      "duration": 0.25,
      "velocity": 0.71,
      "hand": "right"
    },
    {
      "midi": 84,
      "time": 323.5,
      "duration": 0.5,
      "velocity": 0.71,
      "hand": "right"
    },
    {
      "midi": 63,
      "time": 323.75,
      "duration": 0.25,
      "velocity": 0.71,
      "hand": "right"
    },
    {
      "midi": 67,
      "time": 323.75,
      "duration": 0.25,
      "velocity": 0.71,
      "hand": "right"
    },
    {
      "midi": 72,
      "time": 323.75,
      "duration": 0.25,
      "velocity": 0.71,
      "hand": "right"
    },
    {
      "midi": 79,
      "time": 323.75,
      "duration": 0.25,
      "velocity": 0.71,
      "hand": "right"
    },
    {
      "midi": 67,
      "time": 324,
      "duration": 0.25,
      "velocity": 0.71,
      "hand": "right"
    },
    {
      "midi": 70,
      "time": 324,
      "duration": 0.25,
      "velocity": 0.71,
      "hand": "right"
    },
    {
      "midi": 74,
      "time": 324,
      "duration": 0.25,
      "velocity": 0.71,
      "hand": "right"
    },
    {
      "midi": 79,
      "time": 324,
      "duration": 0.5,
      "velocity": 0.71,
      "hand": "right"
    },
    {
      "midi": 82,
      "time": 324,
      "duration": 0.25,
      "velocity": 0.71,
      "hand": "right"
    },
    {
      "midi": 67,
      "time": 324.25,
      "duration": 0.25,
      "velocity": 0.71,
      "hand": "right"
    },
    {
      "midi": 70,
      "time": 324.25,
      "duration": 0.25,
      "velocity": 0.71,
      "hand": "right"
    },
    {
      "midi": 74,
      "time": 324.25,
      "duration": 0.25,
      "velocity": 0.71,
      "hand": "right"
    },
    {
      "midi": 67,
      "time": 324.5,
      "duration": 0.25,
      "velocity": 0.71,
      "hand": "right"
    },
    {
      "midi": 70,
      "time": 324.5,
      "duration": 0.25,
      "velocity": 0.71,
      "hand": "right"
    },
    {
      "midi": 74,
      "time": 324.5,
      "duration": 0.25,
      "velocity": 0.71,
      "hand": "right"
    },
    {
      "midi": 79,
      "time": 324.5,
      "duration": 1,
      "velocity": 0.71,
      "hand": "right"
    },
    {
      "midi": 67,
      "time": 324.75,
      "duration": 0.25,
      "velocity": 0.71,
      "hand": "right"
    },
    {
      "midi": 70,
      "time": 324.75,
      "duration": 0.25,
      "velocity": 0.71,
      "hand": "right"
    },
    {
      "midi": 74,
      "time": 324.75,
      "duration": 0.25,
      "velocity": 0.71,
      "hand": "right"
    },
    {
      "midi": 67,
      "time": 325,
      "duration": 0.25,
      "velocity": 0.71,
      "hand": "right"
    },
    {
      "midi": 70,
      "time": 325,
      "duration": 0.25,
      "velocity": 0.71,
      "hand": "right"
    },
    {
      "midi": 74,
      "time": 325,
      "duration": 0.25,
      "velocity": 0.71,
      "hand": "right"
    },
    {
      "midi": 91,
      "time": 325,
      "duration": 0.5,
      "velocity": 0.71,
      "hand": "right"
    },
    {
      "midi": 98,
      "time": 325,
      "duration": 0.5,
      "velocity": 0.71,
      "hand": "right"
    },
    {
      "midi": 67,
      "time": 325.25,
      "duration": 0.25,
      "velocity": 0.71,
      "hand": "right"
    },
    {
      "midi": 70,
      "time": 325.25,
      "duration": 0.25,
      "velocity": 0.71,
      "hand": "right"
    },
    {
      "midi": 74,
      "time": 325.25,
      "duration": 0.25,
      "velocity": 0.71,
      "hand": "right"
    },
    {
      "midi": 67,
      "time": 325.5,
      "duration": 0.25,
      "velocity": 0.71,
      "hand": "right"
    },
    {
      "midi": 70,
      "time": 325.5,
      "duration": 0.25,
      "velocity": 0.71,
      "hand": "right"
    },
    {
      "midi": 75,
      "time": 325.5,
      "duration": 0.25,
      "velocity": 0.71,
      "hand": "right"
    },
    {
      "midi": 82,
      "time": 325.5,
      "duration": 0.25,
      "velocity": 0.71,
      "hand": "right"
    },
    {
      "midi": 67,
      "time": 325.75,
      "duration": 0.25,
      "velocity": 0.71,
      "hand": "right"
    },
    {
      "midi": 70,
      "time": 325.75,
      "duration": 0.25,
      "velocity": 0.71,
      "hand": "right"
    },
    {
      "midi": 75,
      "time": 325.75,
      "duration": 0.25,
      "velocity": 0.71,
      "hand": "right"
    },
    {
      "midi": 84,
      "time": 325.75,
      "duration": 0.25,
      "velocity": 0.71,
      "hand": "right"
    },
    {
      "midi": 66,
      "time": 326,
      "duration": 0.25,
      "velocity": 0.71,
      "hand": "right"
    },
    {
      "midi": 70,
      "time": 326,
      "duration": 0.25,
      "velocity": 0.71,
      "hand": "right"
    },
    {
      "midi": 74,
      "time": 326,
      "duration": 0.25,
      "velocity": 0.71,
      "hand": "right"
    },
    {
      "midi": 76,
      "time": 326,
      "duration": 0.25,
      "velocity": 0.71,
      "hand": "right"
    },
    {
      "midi": 82,
      "time": 326,
      "duration": 0.25,
      "velocity": 0.71,
      "hand": "right"
    },
    {
      "midi": 86,
      "time": 326,
      "duration": 0.5,
      "velocity": 0.71,
      "hand": "right"
    },
    {
      "midi": 66,
      "time": 326.25,
      "duration": 0.25,
      "velocity": 0.71,
      "hand": "right"
    },
    {
      "midi": 70,
      "time": 326.25,
      "duration": 0.25,
      "velocity": 0.71,
      "hand": "right"
    },
    {
      "midi": 74,
      "time": 326.25,
      "duration": 0.25,
      "velocity": 0.71,
      "hand": "right"
    },
    {
      "midi": 76,
      "time": 326.25,
      "duration": 0.25,
      "velocity": 0.71,
      "hand": "right"
    },
    {
      "midi": 82,
      "time": 326.25,
      "duration": 0.25,
      "velocity": 0.71,
      "hand": "right"
    },
    {
      "midi": 66,
      "time": 326.5,
      "duration": 0.25,
      "velocity": 0.71,
      "hand": "right"
    },
    {
      "midi": 70,
      "time": 326.5,
      "duration": 0.25,
      "velocity": 0.71,
      "hand": "right"
    },
    {
      "midi": 74,
      "time": 326.5,
      "duration": 0.25,
      "velocity": 0.71,
      "hand": "right"
    },
    {
      "midi": 76,
      "time": 326.5,
      "duration": 0.25,
      "velocity": 0.71,
      "hand": "right"
    },
    {
      "midi": 82,
      "time": 326.5,
      "duration": 0.25,
      "velocity": 0.71,
      "hand": "right"
    },
    {
      "midi": 86,
      "time": 326.5,
      "duration": 1,
      "velocity": 0.71,
      "hand": "right"
    },
    {
      "midi": 66,
      "time": 326.75,
      "duration": 0.25,
      "velocity": 0.71,
      "hand": "right"
    },
    {
      "midi": 70,
      "time": 326.75,
      "duration": 0.25,
      "velocity": 0.71,
      "hand": "right"
    },
    {
      "midi": 74,
      "time": 326.75,
      "duration": 0.25,
      "velocity": 0.71,
      "hand": "right"
    },
    {
      "midi": 76,
      "time": 326.75,
      "duration": 0.25,
      "velocity": 0.71,
      "hand": "right"
    },
    {
      "midi": 82,
      "time": 326.75,
      "duration": 0.25,
      "velocity": 0.71,
      "hand": "right"
    },
    {
      "midi": 65,
      "time": 327,
      "duration": 0.25,
      "velocity": 0.71,
      "hand": "right"
    },
    {
      "midi": 70,
      "time": 327,
      "duration": 0.25,
      "velocity": 0.71,
      "hand": "right"
    },
    {
      "midi": 74,
      "time": 327,
      "duration": 0.25,
      "velocity": 0.71,
      "hand": "right"
    },
    {
      "midi": 77,
      "time": 327,
      "duration": 0.25,
      "velocity": 0.71,
      "hand": "right"
    },
    {
      "midi": 82,
      "time": 327,
      "duration": 0.25,
      "velocity": 0.71,
      "hand": "right"
    },
    {
      "midi": 65,
      "time": 327.25,
      "duration": 0.25,
      "velocity": 0.71,
      "hand": "right"
    },
    {
      "midi": 70,
      "time": 327.25,
      "duration": 0.25,
      "velocity": 0.71,
      "hand": "right"
    },
    {
      "midi": 74,
      "time": 327.25,
      "duration": 0.25,
      "velocity": 0.71,
      "hand": "right"
    },
    {
      "midi": 77,
      "time": 327.25,
      "duration": 0.25,
      "velocity": 0.71,
      "hand": "right"
    },
    {
      "midi": 82,
      "time": 327.25,
      "duration": 0.25,
      "velocity": 0.71,
      "hand": "right"
    },
    {
      "midi": 64,
      "time": 327.5,
      "duration": 0.25,
      "velocity": 0.71,
      "hand": "right"
    },
    {
      "midi": 67,
      "time": 327.5,
      "duration": 0.25,
      "velocity": 0.71,
      "hand": "right"
    },
    {
      "midi": 72,
      "time": 327.5,
      "duration": 0.25,
      "velocity": 0.71,
      "hand": "right"
    },
    {
      "midi": 79,
      "time": 327.5,
      "duration": 0.25,
      "velocity": 0.71,
      "hand": "right"
    },
    {
      "midi": 64,
      "time": 327.75,
      "duration": 0.25,
      "velocity": 0.71,
      "hand": "right"
    },
    {
      "midi": 67,
      "time": 327.75,
      "duration": 0.25,
      "velocity": 0.71,
      "hand": "right"
    },
    {
      "midi": 72,
      "time": 327.75,
      "duration": 0.25,
      "velocity": 0.71,
      "hand": "right"
    },
    {
      "midi": 79,
      "time": 327.75,
      "duration": 0.25,
      "velocity": 0.71,
      "hand": "right"
    },
    {
      "midi": 81,
      "time": 327.75,
      "duration": 0.25,
      "velocity": 0.71,
      "hand": "right"
    },
    {
      "midi": 63,
      "time": 328,
      "duration": 0.25,
      "velocity": 0.71,
      "hand": "right"
    },
    {
      "midi": 67,
      "time": 328,
      "duration": 0.25,
      "velocity": 0.71,
      "hand": "right"
    },
    {
      "midi": 70,
      "time": 328,
      "duration": 0.25,
      "velocity": 0.71,
      "hand": "right"
    },
    {
      "midi": 73,
      "time": 328,
      "duration": 0.25,
      "velocity": 0.71,
      "hand": "right"
    },
    {
      "midi": 79,
      "time": 328,
      "duration": 0.25,
      "velocity": 0.71,
      "hand": "right"
    },
    {
      "midi": 81,
      "time": 328,
      "duration": 0.25,
      "velocity": 0.71,
      "hand": "right"
    },
    {
      "midi": 82,
      "time": 328,
      "duration": 0.5,
      "velocity": 0.71,
      "hand": "right"
    },
    {
      "midi": 63,
      "time": 328.25,
      "duration": 0.25,
      "velocity": 0.71,
      "hand": "right"
    },
    {
      "midi": 67,
      "time": 328.25,
      "duration": 0.25,
      "velocity": 0.71,
      "hand": "right"
    },
    {
      "midi": 70,
      "time": 328.25,
      "duration": 0.25,
      "velocity": 0.71,
      "hand": "right"
    },
    {
      "midi": 73,
      "time": 328.25,
      "duration": 0.25,
      "velocity": 0.71,
      "hand": "right"
    },
    {
      "midi": 79,
      "time": 328.25,
      "duration": 0.25,
      "velocity": 0.71,
      "hand": "right"
    },
    {
      "midi": 63,
      "time": 328.5,
      "duration": 0.25,
      "velocity": 0.71,
      "hand": "right"
    },
    {
      "midi": 67,
      "time": 328.5,
      "duration": 0.25,
      "velocity": 0.71,
      "hand": "right"
    },
    {
      "midi": 70,
      "time": 328.5,
      "duration": 0.25,
      "velocity": 0.71,
      "hand": "right"
    },
    {
      "midi": 73,
      "time": 328.5,
      "duration": 0.25,
      "velocity": 0.71,
      "hand": "right"
    },
    {
      "midi": 79,
      "time": 328.5,
      "duration": 0.25,
      "velocity": 0.71,
      "hand": "right"
    },
    {
      "midi": 82,
      "time": 328.5,
      "duration": 1,
      "velocity": 0.71,
      "hand": "right"
    },
    {
      "midi": 63,
      "time": 328.75,
      "duration": 0.25,
      "velocity": 0.71,
      "hand": "right"
    },
    {
      "midi": 67,
      "time": 328.75,
      "duration": 0.25,
      "velocity": 0.71,
      "hand": "right"
    },
    {
      "midi": 70,
      "time": 328.75,
      "duration": 0.25,
      "velocity": 0.71,
      "hand": "right"
    },
    {
      "midi": 73,
      "time": 328.75,
      "duration": 0.25,
      "velocity": 0.71,
      "hand": "right"
    },
    {
      "midi": 79,
      "time": 328.75,
      "duration": 0.25,
      "velocity": 0.71,
      "hand": "right"
    },
    {
      "midi": 62,
      "time": 329,
      "duration": 0.25,
      "velocity": 0.71,
      "hand": "right"
    },
    {
      "midi": 67,
      "time": 329,
      "duration": 0.25,
      "velocity": 0.71,
      "hand": "right"
    },
    {
      "midi": 70,
      "time": 329,
      "duration": 0.25,
      "velocity": 0.71,
      "hand": "right"
    },
    {
      "midi": 74,
      "time": 329,
      "duration": 0.25,
      "velocity": 0.71,
      "hand": "right"
    },
    {
      "midi": 79,
      "time": 329,
      "duration": 0.25,
      "velocity": 0.71,
      "hand": "right"
    },
    {
      "midi": 62,
      "time": 329.25,
      "duration": 0.25,
      "velocity": 0.71,
      "hand": "right"
    },
    {
      "midi": 67,
      "time": 329.25,
      "duration": 0.25,
      "velocity": 0.71,
      "hand": "right"
    },
    {
      "midi": 70,
      "time": 329.25,
      "duration": 0.25,
      "velocity": 0.71,
      "hand": "right"
    },
    {
      "midi": 74,
      "time": 329.25,
      "duration": 0.25,
      "velocity": 0.71,
      "hand": "right"
    },
    {
      "midi": 79,
      "time": 329.25,
      "duration": 0.25,
      "velocity": 0.71,
      "hand": "right"
    },
    {
      "midi": 61,
      "time": 329.5,
      "duration": 0.25,
      "velocity": 0.71,
      "hand": "right"
    },
    {
      "midi": 64,
      "time": 329.5,
      "duration": 0.25,
      "velocity": 0.71,
      "hand": "right"
    },
    {
      "midi": 69,
      "time": 329.5,
      "duration": 0.25,
      "velocity": 0.71,
      "hand": "right"
    },
    {
      "midi": 76,
      "time": 329.5,
      "duration": 0.25,
      "velocity": 0.71,
      "hand": "right"
    },
    {
      "midi": 61,
      "time": 329.75,
      "duration": 0.25,
      "velocity": 0.71,
      "hand": "right"
    },
    {
      "midi": 64,
      "time": 329.75,
      "duration": 0.25,
      "velocity": 0.71,
      "hand": "right"
    },
    {
      "midi": 69,
      "time": 329.75,
      "duration": 0.25,
      "velocity": 0.71,
      "hand": "right"
    },
    {
      "midi": 76,
      "time": 329.75,
      "duration": 0.25,
      "velocity": 0.71,
      "hand": "right"
    },
    {
      "midi": 78,
      "time": 329.75,
      "duration": 0.25,
      "velocity": 0.71,
      "hand": "right"
    },
    {
      "midi": 60,
      "time": 330,
      "duration": 0.25,
      "velocity": 0.71,
      "hand": "right"
    },
    {
      "midi": 64,
      "time": 330,
      "duration": 0.25,
      "velocity": 0.71,
      "hand": "right"
    },
    {
      "midi": 67,
      "time": 330,
      "duration": 0.25,
      "velocity": 0.71,
      "hand": "right"
    },
    {
      "midi": 70,
      "time": 330,
      "duration": 0.25,
      "velocity": 0.71,
      "hand": "right"
    },
    {
      "midi": 76,
      "time": 330,
      "duration": 0.25,
      "velocity": 0.71,
      "hand": "right"
    },
    {
      "midi": 78,
      "time": 330,
      "duration": 0.25,
      "velocity": 0.71,
      "hand": "right"
    },
    {
      "midi": 79,
      "time": 330,
      "duration": 0.5,
      "velocity": 0.71,
      "hand": "right"
    },
    {
      "midi": 60,
      "time": 330.25,
      "duration": 0.25,
      "velocity": 0.71,
      "hand": "right"
    },
    {
      "midi": 64,
      "time": 330.25,
      "duration": 0.25,
      "velocity": 0.71,
      "hand": "right"
    },
    {
      "midi": 67,
      "time": 330.25,
      "duration": 0.25,
      "velocity": 0.71,
      "hand": "right"
    },
    {
      "midi": 70,
      "time": 330.25,
      "duration": 0.25,
      "velocity": 0.71,
      "hand": "right"
    },
    {
      "midi": 76,
      "time": 330.25,
      "duration": 0.25,
      "velocity": 0.71,
      "hand": "right"
    },
    {
      "midi": 59,
      "time": 330.5,
      "duration": 0.25,
      "velocity": 0.71,
      "hand": "left"
    },
    {
      "midi": 64,
      "time": 330.5,
      "duration": 0.25,
      "velocity": 0.71,
      "hand": "right"
    },
    {
      "midi": 67,
      "time": 330.5,
      "duration": 0.25,
      "velocity": 0.71,
      "hand": "right"
    },
    {
      "midi": 71,
      "time": 330.5,
      "duration": 0.25,
      "velocity": 0.71,
      "hand": "right"
    },
    {
      "midi": 73,
      "time": 330.5,
      "duration": 0.25,
      "velocity": 0.71,
      "hand": "right"
    },
    {
      "midi": 59,
      "time": 330.75,
      "duration": 0.25,
      "velocity": 0.71,
      "hand": "left"
    },
    {
      "midi": 64,
      "time": 330.75,
      "duration": 0.25,
      "velocity": 0.71,
      "hand": "right"
    },
    {
      "midi": 67,
      "time": 330.75,
      "duration": 0.25,
      "velocity": 0.71,
      "hand": "right"
    },
    {
      "midi": 71,
      "time": 330.75,
      "duration": 0.25,
      "velocity": 0.71,
      "hand": "right"
    },
    {
      "midi": 73,
      "time": 330.75,
      "duration": 0.25,
      "velocity": 0.71,
      "hand": "right"
    },
    {
      "midi": 75,
      "time": 330.75,
      "duration": 0.25,
      "velocity": 0.71,
      "hand": "right"
    },
    {
      "midi": 58,
      "time": 331,
      "duration": 0.25,
      "velocity": 0.71,
      "hand": "left"
    },
    {
      "midi": 60,
      "time": 331,
      "duration": 0.25,
      "velocity": 0.71,
      "hand": "right"
    },
    {
      "midi": 64,
      "time": 331,
      "duration": 0.25,
      "velocity": 0.71,
      "hand": "right"
    },
    {
      "midi": 67,
      "time": 331,
      "duration": 0.25,
      "velocity": 0.71,
      "hand": "right"
    },
    {
      "midi": 72,
      "time": 331,
      "duration": 0.25,
      "velocity": 0.71,
      "hand": "right"
    },
    {
      "midi": 75,
      "time": 331,
      "duration": 0.25,
      "velocity": 0.71,
      "hand": "right"
    },
    {
      "midi": 76,
      "time": 331,
      "duration": 0.5,
      "velocity": 0.71,
      "hand": "right"
    },
    {
      "midi": 58,
      "time": 331.25,
      "duration": 0.25,
      "velocity": 0.71,
      "hand": "left"
    },
    {
      "midi": 60,
      "time": 331.25,
      "duration": 0.25,
      "velocity": 0.71,
      "hand": "right"
    },
    {
      "midi": 64,
      "time": 331.25,
      "duration": 0.25,
      "velocity": 0.71,
      "hand": "right"
    },
    {
      "midi": 67,
      "time": 331.25,
      "duration": 0.25,
      "velocity": 0.71,
      "hand": "right"
    },
    {
      "midi": 72,
      "time": 331.25,
      "duration": 0.25,
      "velocity": 0.71,
      "hand": "right"
    },
    {
      "midi": 57,
      "time": 331.5,
      "duration": 0.25,
      "velocity": 0.71,
      "hand": "left"
    },
    {
      "midi": 60,
      "time": 331.5,
      "duration": 0.25,
      "velocity": 0.71,
      "hand": "right"
    },
    {
      "midi": 64,
      "time": 331.5,
      "duration": 0.25,
      "velocity": 0.71,
      "hand": "right"
    },
    {
      "midi": 67,
      "time": 331.5,
      "duration": 0.25,
      "velocity": 0.71,
      "hand": "right"
    },
    {
      "midi": 57,
      "time": 331.75,
      "duration": 0.25,
      "velocity": 0.71,
      "hand": "left"
    },
    {
      "midi": 60,
      "time": 331.75,
      "duration": 0.25,
      "velocity": 0.71,
      "hand": "right"
    },
    {
      "midi": 64,
      "time": 331.75,
      "duration": 0.25,
      "velocity": 0.71,
      "hand": "right"
    },
    {
      "midi": 67,
      "time": 331.75,
      "duration": 0.25,
      "velocity": 0.71,
      "hand": "right"
    },
    {
      "midi": 69,
      "time": 331.75,
      "duration": 0.25,
      "velocity": 0.71,
      "hand": "right"
    },
    {
      "midi": 55,
      "time": 332,
      "duration": 0.5,
      "velocity": 0.71,
      "hand": "left"
    },
    {
      "midi": 58,
      "time": 332,
      "duration": 0.5,
      "velocity": 0.71,
      "hand": "left"
    },
    {
      "midi": 63,
      "time": 332,
      "duration": 0.25,
      "velocity": 0.71,
      "hand": "right"
    },
    {
      "midi": 67,
      "time": 332,
      "duration": 0.25,
      "velocity": 0.71,
      "hand": "right"
    },
    {
      "midi": 69,
      "time": 332,
      "duration": 0.25,
      "velocity": 0.71,
      "hand": "right"
    },
    {
      "midi": 70,
      "time": 332,
      "duration": 1.5,
      "velocity": 0.71,
      "hand": "right"
    },
    {
      "midi": 63,
      "time": 332.25,
      "duration": 0.25,
      "velocity": 0.71,
      "hand": "right"
    },
    {
      "midi": 67,
      "time": 332.25,
      "duration": 0.25,
      "velocity": 0.71,
      "hand": "right"
    },
    {
      "midi": 31,
      "time": 332.5,
      "duration": 0.125,
      "velocity": 0.54,
      "hand": "left"
    },
    {
      "midi": 34,
      "time": 332.5,
      "duration": 0.125,
      "velocity": 0.54,
      "hand": "left"
    },
    {
      "midi": 63,
      "time": 332.5,
      "duration": 0.25,
      "velocity": 0.71,
      "hand": "right"
    },
    {
      "midi": 67,
      "time": 332.5,
      "duration": 0.25,
      "velocity": 0.71,
      "hand": "right"
    },
    {
      "midi": 39,
      "time": 332.75,
      "duration": 0.125,
      "velocity": 0.54,
      "hand": "left"
    },
    {
      "midi": 43,
      "time": 332.75,
      "duration": 0.125,
      "velocity": 0.54,
      "hand": "left"
    },
    {
      "midi": 46,
      "time": 332.75,
      "duration": 0.125,
      "velocity": 0.54,
      "hand": "left"
    },
    {
      "midi": 51,
      "time": 332.75,
      "duration": 0.125,
      "velocity": 0.54,
      "hand": "left"
    },
    {
      "midi": 63,
      "time": 332.75,
      "duration": 0.25,
      "velocity": 0.71,
      "hand": "right"
    },
    {
      "midi": 67,
      "time": 332.75,
      "duration": 0.25,
      "velocity": 0.71,
      "hand": "right"
    },
    {
      "midi": 55,
      "time": 333,
      "duration": 0.125,
      "velocity": 0.54,
      "hand": "left"
    },
    {
      "midi": 58,
      "time": 333,
      "duration": 0.5,
      "velocity": 0.54,
      "hand": "left"
    },
    {
      "midi": 63,
      "time": 333,
      "duration": 0.25,
      "velocity": 0.71,
      "hand": "right"
    },
    {
      "midi": 67,
      "time": 333,
      "duration": 0.25,
      "velocity": 0.71,
      "hand": "right"
    },
    {
      "midi": 63,
      "time": 333.25,
      "duration": 0.25,
      "velocity": 0.71,
      "hand": "right"
    },
    {
      "midi": 67,
      "time": 333.25,
      "duration": 0.25,
      "velocity": 0.71,
      "hand": "right"
    },
    {
      "midi": 55,
      "time": 333.5,
      "duration": 0.25,
      "velocity": 0.54,
      "hand": "left"
    },
    {
      "midi": 58,
      "time": 333.5,
      "duration": 0.25,
      "velocity": 0.54,
      "hand": "left"
    },
    {
      "midi": 63,
      "time": 333.5,
      "duration": 0.25,
      "velocity": 0.71,
      "hand": "right"
    },
    {
      "midi": 70,
      "time": 333.5,
      "duration": 0.25,
      "velocity": 0.71,
      "hand": "right"
    },
    {
      "midi": 55,
      "time": 333.75,
      "duration": 0.25,
      "velocity": 0.54,
      "hand": "left"
    },
    {
      "midi": 58,
      "time": 333.75,
      "duration": 0.25,
      "velocity": 0.54,
      "hand": "left"
    },
    {
      "midi": 63,
      "time": 333.75,
      "duration": 0.25,
      "velocity": 0.71,
      "hand": "right"
    },
    {
      "midi": 70,
      "time": 333.75,
      "duration": 0.25,
      "velocity": 0.71,
      "hand": "right"
    },
    {
      "midi": 72,
      "time": 333.75,
      "duration": 0.25,
      "velocity": 0.71,
      "hand": "right"
    },
    {
      "midi": 54,
      "time": 334,
      "duration": 0.25,
      "velocity": 0.54,
      "hand": "left"
    },
    {
      "midi": 58,
      "time": 334,
      "duration": 0.25,
      "velocity": 0.54,
      "hand": "left"
    },
    {
      "midi": 62,
      "time": 334,
      "duration": 0.25,
      "velocity": 0.71,
      "hand": "right"
    },
    {
      "midi": 64,
      "time": 334,
      "duration": 0.25,
      "velocity": 0.54,
      "hand": "right"
    },
    {
      "midi": 70,
      "time": 334,
      "duration": 0.25,
      "velocity": 0.71,
      "hand": "right"
    },
    {
      "midi": 74,
      "time": 334,
      "duration": 0.5,
      "velocity": 0.71,
      "hand": "right"
    },
    {
      "midi": 54,
      "time": 334.25,
      "duration": 0.25,
      "velocity": 0.54,
      "hand": "left"
    },
    {
      "midi": 58,
      "time": 334.25,
      "duration": 0.25,
      "velocity": 0.54,
      "hand": "left"
    },
    {
      "midi": 62,
      "time": 334.25,
      "duration": 0.25,
      "velocity": 0.71,
      "hand": "right"
    },
    {
      "midi": 64,
      "time": 334.25,
      "duration": 0.25,
      "velocity": 0.54,
      "hand": "right"
    },
    {
      "midi": 70,
      "time": 334.25,
      "duration": 0.25,
      "velocity": 0.71,
      "hand": "right"
    },
    {
      "midi": 54,
      "time": 334.5,
      "duration": 0.25,
      "velocity": 0.54,
      "hand": "left"
    },
    {
      "midi": 58,
      "time": 334.5,
      "duration": 0.25,
      "velocity": 0.54,
      "hand": "left"
    },
    {
      "midi": 62,
      "time": 334.5,
      "duration": 0.25,
      "velocity": 0.71,
      "hand": "right"
    },
    {
      "midi": 64,
      "time": 334.5,
      "duration": 0.25,
      "velocity": 0.54,
      "hand": "right"
    },
    {
      "midi": 70,
      "time": 334.5,
      "duration": 0.25,
      "velocity": 0.71,
      "hand": "right"
    },
    {
      "midi": 74,
      "time": 334.5,
      "duration": 1,
      "velocity": 0.71,
      "hand": "right"
    },
    {
      "midi": 54,
      "time": 334.75,
      "duration": 0.25,
      "velocity": 0.54,
      "hand": "left"
    },
    {
      "midi": 58,
      "time": 334.75,
      "duration": 0.25,
      "velocity": 0.54,
      "hand": "left"
    },
    {
      "midi": 62,
      "time": 334.75,
      "duration": 0.25,
      "velocity": 0.71,
      "hand": "right"
    },
    {
      "midi": 64,
      "time": 334.75,
      "duration": 0.25,
      "velocity": 0.54,
      "hand": "right"
    },
    {
      "midi": 70,
      "time": 334.75,
      "duration": 0.25,
      "velocity": 0.71,
      "hand": "right"
    },
    {
      "midi": 53,
      "time": 335,
      "duration": 0.25,
      "velocity": 0.54,
      "hand": "left"
    },
    {
      "midi": 58,
      "time": 335,
      "duration": 0.25,
      "velocity": 0.54,
      "hand": "left"
    },
    {
      "midi": 62,
      "time": 335,
      "duration": 0.25,
      "velocity": 0.71,
      "hand": "right"
    },
    {
      "midi": 65,
      "time": 335,
      "duration": 0.25,
      "velocity": 0.54,
      "hand": "right"
    },
    {
      "midi": 70,
      "time": 335,
      "duration": 0.25,
      "velocity": 0.71,
      "hand": "right"
    },
    {
      "midi": 53,
      "time": 335.25,
      "duration": 0.25,
      "velocity": 0.54,
      "hand": "left"
    },
    {
      "midi": 58,
      "time": 335.25,
      "duration": 0.25,
      "velocity": 0.54,
      "hand": "left"
    },
    {
      "midi": 62,
      "time": 335.25,
      "duration": 0.25,
      "velocity": 0.71,
      "hand": "right"
    },
    {
      "midi": 65,
      "time": 335.25,
      "duration": 0.25,
      "velocity": 0.54,
      "hand": "right"
    },
    {
      "midi": 70,
      "time": 335.25,
      "duration": 0.25,
      "velocity": 0.71,
      "hand": "right"
    },
    {
      "midi": 52,
      "time": 335.5,
      "duration": 0.25,
      "velocity": 0.54,
      "hand": "left"
    },
    {
      "midi": 55,
      "time": 335.5,
      "duration": 0.25,
      "velocity": 0.54,
      "hand": "left"
    },
    {
      "midi": 60,
      "time": 335.5,
      "duration": 0.25,
      "velocity": 0.71,
      "hand": "right"
    },
    {
      "midi": 67,
      "time": 335.5,
      "duration": 0.25,
      "velocity": 0.71,
      "hand": "right"
    },
    {
      "midi": 52,
      "time": 335.75,
      "duration": 0.25,
      "velocity": 0.54,
      "hand": "left"
    },
    {
      "midi": 55,
      "time": 335.75,
      "duration": 0.25,
      "velocity": 0.54,
      "hand": "left"
    },
    {
      "midi": 60,
      "time": 335.75,
      "duration": 0.25,
      "velocity": 0.71,
      "hand": "right"
    },
    {
      "midi": 67,
      "time": 335.75,
      "duration": 0.25,
      "velocity": 0.71,
      "hand": "right"
    },
    {
      "midi": 69,
      "time": 335.75,
      "duration": 0.25,
      "velocity": 0.71,
      "hand": "right"
    },
    {
      "midi": 51,
      "time": 336,
      "duration": 0.25,
      "velocity": 0.54,
      "hand": "left"
    },
    {
      "midi": 55,
      "time": 336,
      "duration": 0.25,
      "velocity": 0.54,
      "hand": "left"
    },
    {
      "midi": 58,
      "time": 336,
      "duration": 0.25,
      "velocity": 0.71,
      "hand": "left"
    },
    {
      "midi": 61,
      "time": 336,
      "duration": 0.25,
      "velocity": 0.54,
      "hand": "right"
    },
    {
      "midi": 67,
      "time": 336,
      "duration": 0.25,
      "velocity": 0.71,
      "hand": "right"
    },
    {
      "midi": 69,
      "time": 336,
      "duration": 0.25,
      "velocity": 0.71,
      "hand": "right"
    },
    {
      "midi": 70,
      "time": 336,
      "duration": 0.5,
      "velocity": 0.71,
      "hand": "right"
    },
    {
      "midi": 51,
      "time": 336.25,
      "duration": 0.25,
      "velocity": 0.54,
      "hand": "left"
    },
    {
      "midi": 55,
      "time": 336.25,
      "duration": 0.25,
      "velocity": 0.54,
      "hand": "left"
    },
    {
      "midi": 58,
      "time": 336.25,
      "duration": 0.25,
      "velocity": 0.71,
      "hand": "left"
    },
    {
      "midi": 61,
      "time": 336.25,
      "duration": 0.25,
      "velocity": 0.54,
      "hand": "right"
    },
    {
      "midi": 67,
      "time": 336.25,
      "duration": 0.25,
      "velocity": 0.71,
      "hand": "right"
    },
    {
      "midi": 51,
      "time": 336.5,
      "duration": 0.25,
      "velocity": 0.54,
      "hand": "left"
    },
    {
      "midi": 55,
      "time": 336.5,
      "duration": 0.25,
      "velocity": 0.54,
      "hand": "left"
    },
    {
      "midi": 58,
      "time": 336.5,
      "duration": 0.25,
      "velocity": 0.71,
      "hand": "left"
    },
    {
      "midi": 61,
      "time": 336.5,
      "duration": 0.25,
      "velocity": 0.54,
      "hand": "right"
    },
    {
      "midi": 67,
      "time": 336.5,
      "duration": 0.25,
      "velocity": 0.71,
      "hand": "right"
    },
    {
      "midi": 70,
      "time": 336.5,
      "duration": 1,
      "velocity": 0.71,
      "hand": "right"
    },
    {
      "midi": 51,
      "time": 336.75,
      "duration": 0.25,
      "velocity": 0.54,
      "hand": "left"
    },
    {
      "midi": 55,
      "time": 336.75,
      "duration": 0.25,
      "velocity": 0.54,
      "hand": "left"
    },
    {
      "midi": 58,
      "time": 336.75,
      "duration": 0.25,
      "velocity": 0.71,
      "hand": "left"
    },
    {
      "midi": 61,
      "time": 336.75,
      "duration": 0.25,
      "velocity": 0.54,
      "hand": "right"
    },
    {
      "midi": 67,
      "time": 336.75,
      "duration": 0.25,
      "velocity": 0.71,
      "hand": "right"
    },
    {
      "midi": 50,
      "time": 337,
      "duration": 0.25,
      "velocity": 0.54,
      "hand": "left"
    },
    {
      "midi": 55,
      "time": 337,
      "duration": 0.25,
      "velocity": 0.54,
      "hand": "left"
    },
    {
      "midi": 58,
      "time": 337,
      "duration": 0.25,
      "velocity": 0.71,
      "hand": "left"
    },
    {
      "midi": 62,
      "time": 337,
      "duration": 0.25,
      "velocity": 0.54,
      "hand": "right"
    },
    {
      "midi": 67,
      "time": 337,
      "duration": 0.25,
      "velocity": 0.71,
      "hand": "right"
    },
    {
      "midi": 50,
      "time": 337.25,
      "duration": 0.25,
      "velocity": 0.54,
      "hand": "left"
    },
    {
      "midi": 55,
      "time": 337.25,
      "duration": 0.25,
      "velocity": 0.54,
      "hand": "left"
    },
    {
      "midi": 58,
      "time": 337.25,
      "duration": 0.25,
      "velocity": 0.71,
      "hand": "left"
    },
    {
      "midi": 62,
      "time": 337.25,
      "duration": 0.25,
      "velocity": 0.54,
      "hand": "right"
    },
    {
      "midi": 67,
      "time": 337.25,
      "duration": 0.25,
      "velocity": 0.71,
      "hand": "right"
    },
    {
      "midi": 49,
      "time": 337.5,
      "duration": 0.25,
      "velocity": 0.54,
      "hand": "left"
    },
    {
      "midi": 52,
      "time": 337.5,
      "duration": 0.25,
      "velocity": 0.54,
      "hand": "left"
    },
    {
      "midi": 57,
      "time": 337.5,
      "duration": 0.25,
      "velocity": 0.71,
      "hand": "left"
    },
    {
      "midi": 64,
      "time": 337.5,
      "duration": 0.25,
      "velocity": 0.71,
      "hand": "right"
    },
    {
      "midi": 49,
      "time": 337.75,
      "duration": 0.25,
      "velocity": 0.54,
      "hand": "left"
    },
    {
      "midi": 52,
      "time": 337.75,
      "duration": 0.25,
      "velocity": 0.54,
      "hand": "left"
    },
    {
      "midi": 57,
      "time": 337.75,
      "duration": 0.25,
      "velocity": 0.71,
      "hand": "left"
    },
    {
      "midi": 64,
      "time": 337.75,
      "duration": 0.25,
      "velocity": 0.71,
      "hand": "right"
    },
    {
      "midi": 66,
      "time": 337.75,
      "duration": 0.25,
      "velocity": 0.71,
      "hand": "right"
    },
    {
      "midi": 48,
      "time": 338,
      "duration": 0.25,
      "velocity": 0.54,
      "hand": "left"
    },
    {
      "midi": 52,
      "time": 338,
      "duration": 0.25,
      "velocity": 0.54,
      "hand": "left"
    },
    {
      "midi": 55,
      "time": 338,
      "duration": 0.25,
      "velocity": 0.71,
      "hand": "left"
    },
    {
      "midi": 58,
      "time": 338,
      "duration": 0.25,
      "velocity": 0.54,
      "hand": "left"
    },
    {
      "midi": 64,
      "time": 338,
      "duration": 0.25,
      "velocity": 0.71,
      "hand": "right"
    },
    {
      "midi": 66,
      "time": 338,
      "duration": 0.25,
      "velocity": 0.71,
      "hand": "right"
    },
    {
      "midi": 67,
      "time": 338,
      "duration": 0.5,
      "velocity": 0.71,
      "hand": "right"
    },
    {
      "midi": 48,
      "time": 338.25,
      "duration": 0.25,
      "velocity": 0.54,
      "hand": "left"
    },
    {
      "midi": 52,
      "time": 338.25,
      "duration": 0.25,
      "velocity": 0.54,
      "hand": "left"
    },
    {
      "midi": 55,
      "time": 338.25,
      "duration": 0.25,
      "velocity": 0.71,
      "hand": "left"
    },
    {
      "midi": 58,
      "time": 338.25,
      "duration": 0.25,
      "velocity": 0.54,
      "hand": "left"
    },
    {
      "midi": 64,
      "time": 338.25,
      "duration": 0.25,
      "velocity": 0.71,
      "hand": "right"
    },
    {
      "midi": 47,
      "time": 338.5,
      "duration": 0.25,
      "velocity": 0.54,
      "hand": "left"
    },
    {
      "midi": 52,
      "time": 338.5,
      "duration": 0.25,
      "velocity": 0.54,
      "hand": "left"
    },
    {
      "midi": 55,
      "time": 338.5,
      "duration": 0.25,
      "velocity": 0.71,
      "hand": "left"
    },
    {
      "midi": 59,
      "time": 338.5,
      "duration": 0.25,
      "velocity": 0.54,
      "hand": "left"
    },
    {
      "midi": 61,
      "time": 338.5,
      "duration": 0.25,
      "velocity": 0.71,
      "hand": "right"
    },
    {
      "midi": 47,
      "time": 338.75,
      "duration": 0.25,
      "velocity": 0.54,
      "hand": "left"
    },
    {
      "midi": 52,
      "time": 338.75,
      "duration": 0.25,
      "velocity": 0.54,
      "hand": "left"
    },
    {
      "midi": 55,
      "time": 338.75,
      "duration": 0.25,
      "velocity": 0.71,
      "hand": "left"
    },
    {
      "midi": 59,
      "time": 338.75,
      "duration": 0.25,
      "velocity": 0.54,
      "hand": "left"
    },
    {
      "midi": 61,
      "time": 338.75,
      "duration": 0.25,
      "velocity": 0.71,
      "hand": "right"
    },
    {
      "midi": 63,
      "time": 338.75,
      "duration": 0.25,
      "velocity": 0.71,
      "hand": "right"
    },
    {
      "midi": 46,
      "time": 339,
      "duration": 0.25,
      "velocity": 0.54,
      "hand": "left"
    },
    {
      "midi": 48,
      "time": 339,
      "duration": 0.25,
      "velocity": 0.54,
      "hand": "left"
    },
    {
      "midi": 52,
      "time": 339,
      "duration": 0.25,
      "velocity": 0.54,
      "hand": "left"
    },
    {
      "midi": 55,
      "time": 339,
      "duration": 0.25,
      "velocity": 0.71,
      "hand": "left"
    },
    {
      "midi": 60,
      "time": 339,
      "duration": 0.25,
      "velocity": 0.71,
      "hand": "right"
    },
    {
      "midi": 63,
      "time": 339,
      "duration": 0.25,
      "velocity": 0.71,
      "hand": "right"
    },
    {
      "midi": 64,
      "time": 339,
      "duration": 0.5,
      "velocity": 0.71,
      "hand": "right"
    },
    {
      "midi": 46,
      "time": 339.25,
      "duration": 0.25,
      "velocity": 0.54,
      "hand": "left"
    },
    {
      "midi": 48,
      "time": 339.25,
      "duration": 0.25,
      "velocity": 0.54,
      "hand": "left"
    },
    {
      "midi": 52,
      "time": 339.25,
      "duration": 0.25,
      "velocity": 0.54,
      "hand": "left"
    },
    {
      "midi": 55,
      "time": 339.25,
      "duration": 0.25,
      "velocity": 0.71,
      "hand": "left"
    },
    {
      "midi": 60,
      "time": 339.25,
      "duration": 0.25,
      "velocity": 0.71,
      "hand": "right"
    },
    {
      "midi": 45,
      "time": 339.5,
      "duration": 0.25,
      "velocity": 0.54,
      "hand": "left"
    },
    {
      "midi": 48,
      "time": 339.5,
      "duration": 0.25,
      "velocity": 0.54,
      "hand": "left"
    },
    {
      "midi": 52,
      "time": 339.5,
      "duration": 0.25,
      "velocity": 0.71,
      "hand": "left"
    },
    {
      "midi": 55,
      "time": 339.5,
      "duration": 0.25,
      "velocity": 0.71,
      "hand": "left"
    },
    {
      "midi": 45,
      "time": 339.75,
      "duration": 0.25,
      "velocity": 0.54,
      "hand": "left"
    },
    {
      "midi": 48,
      "time": 339.75,
      "duration": 0.25,
      "velocity": 0.54,
      "hand": "left"
    },
    {
      "midi": 52,
      "time": 339.75,
      "duration": 0.25,
      "velocity": 0.71,
      "hand": "left"
    },
    {
      "midi": 55,
      "time": 339.75,
      "duration": 0.25,
      "velocity": 0.71,
      "hand": "left"
    },
    {
      "midi": 57,
      "time": 339.75,
      "duration": 0.25,
      "velocity": 0.71,
      "hand": "left"
    },
    {
      "midi": 43,
      "time": 340,
      "duration": 0.5,
      "velocity": 0.54,
      "hand": "left"
    },
    {
      "midi": 46,
      "time": 340,
      "duration": 0.5,
      "velocity": 0.54,
      "hand": "left"
    },
    {
      "midi": 51,
      "time": 340,
      "duration": 0.25,
      "velocity": 0.71,
      "hand": "left"
    },
    {
      "midi": 55,
      "time": 340,
      "duration": 0.25,
      "velocity": 0.71,
      "hand": "left"
    },
    {
      "midi": 57,
      "time": 340,
      "duration": 0.25,
      "velocity": 0.71,
      "hand": "left"
    },
    {
      "midi": 58,
      "time": 340,
      "duration": 1.75,
      "velocity": 0.71,
      "hand": "left"
    },
    {
      "midi": 51,
      "time": 340.25,
      "duration": 0.25,
      "velocity": 0.71,
      "hand": "left"
    },
    {
      "midi": 55,
      "time": 340.25,
      "duration": 0.25,
      "velocity": 0.71,
      "hand": "left"
    },
    {
      "midi": 22,
      "time": 340.5,
      "duration": 0.125,
      "velocity": 0.54,
      "hand": "left"
    },
    {
      "midi": 27,
      "time": 340.5,
      "duration": 0.125,
      "velocity": 0.54,
      "hand": "left"
    },
    {
      "midi": 51,
      "time": 340.5,
      "duration": 0.25,
      "velocity": 0.71,
      "hand": "left"
    },
    {
      "midi": 55,
      "time": 340.5,
      "duration": 0.25,
      "velocity": 0.71,
      "hand": "left"
    },
    {
      "midi": 31,
      "time": 340.75,
      "duration": 0.125,
      "velocity": 0.54,
      "hand": "left"
    },
    {
      "midi": 34,
      "time": 340.75,
      "duration": 0.125,
      "velocity": 0.54,
      "hand": "left"
    },
    {
      "midi": 39,
      "time": 340.75,
      "duration": 0.125,
      "velocity": 0.54,
      "hand": "left"
    },
    {
      "midi": 51,
      "time": 340.75,
      "duration": 0.25,
      "velocity": 0.71,
      "hand": "left"
    },
    {
      "midi": 55,
      "time": 340.75,
      "duration": 0.25,
      "velocity": 0.71,
      "hand": "left"
    },
    {
      "midi": 43,
      "time": 341,
      "duration": 0.125,
      "velocity": 0.54,
      "hand": "left"
    },
    {
      "midi": 46,
      "time": 341,
      "duration": 0.25,
      "velocity": 0.54,
      "hand": "left"
    },
    {
      "midi": 51,
      "time": 341,
      "duration": 0.25,
      "velocity": 0.71,
      "hand": "left"
    },
    {
      "midi": 55,
      "time": 341,
      "duration": 0.25,
      "velocity": 0.71,
      "hand": "left"
    },
    {
      "midi": 51,
      "time": 341.25,
      "duration": 0.25,
      "velocity": 0.71,
      "hand": "left"
    },
    {
      "midi": 55,
      "time": 341.25,
      "duration": 0.25,
      "velocity": 0.71,
      "hand": "left"
    },
    {
      "midi": 51,
      "time": 341.5,
      "duration": 0.25,
      "velocity": 0.71,
      "hand": "left"
    },
    {
      "midi": 55,
      "time": 341.5,
      "duration": 0.25,
      "velocity": 0.71,
      "hand": "left"
    },
    {
      "midi": 63,
      "time": 341.5,
      "duration": 0.25,
      "velocity": 0.54,
      "hand": "right"
    },
    {
      "midi": 67,
      "time": 341.5,
      "duration": 0.25,
      "velocity": 0.54,
      "hand": "right"
    },
    {
      "midi": 70,
      "time": 341.5,
      "duration": 0.25,
      "velocity": 0.54,
      "hand": "right"
    },
    {
      "midi": 51,
      "time": 341.75,
      "duration": 0.25,
      "velocity": 0.71,
      "hand": "left"
    },
    {
      "midi": 55,
      "time": 341.75,
      "duration": 0.25,
      "velocity": 0.71,
      "hand": "left"
    },
    {
      "midi": 60,
      "time": 341.75,
      "duration": 0.25,
      "velocity": 0.71,
      "hand": "right"
    },
    {
      "midi": 51,
      "time": 342,
      "duration": 0.25,
      "velocity": 0.71,
      "hand": "left"
    },
    {
      "midi": 55,
      "time": 342,
      "duration": 0.25,
      "velocity": 0.71,
      "hand": "left"
    },
    {
      "midi": 58,
      "time": 342,
      "duration": 1.75,
      "velocity": 0.71,
      "hand": "left"
    },
    {
      "midi": 51,
      "time": 342.25,
      "duration": 0.25,
      "velocity": 0.71,
      "hand": "left"
    },
    {
      "midi": 55,
      "time": 342.25,
      "duration": 0.25,
      "velocity": 0.71,
      "hand": "left"
    },
    {
      "midi": 22,
      "time": 342.5,
      "duration": 0.125,
      "velocity": 0.54,
      "hand": "left"
    },
    {
      "midi": 27,
      "time": 342.5,
      "duration": 0.125,
      "velocity": 0.54,
      "hand": "left"
    },
    {
      "midi": 51,
      "time": 342.5,
      "duration": 0.25,
      "velocity": 0.71,
      "hand": "left"
    },
    {
      "midi": 55,
      "time": 342.5,
      "duration": 0.25,
      "velocity": 0.71,
      "hand": "left"
    },
    {
      "midi": 31,
      "time": 342.75,
      "duration": 0.125,
      "velocity": 0.54,
      "hand": "left"
    },
    {
      "midi": 34,
      "time": 342.75,
      "duration": 0.125,
      "velocity": 0.54,
      "hand": "left"
    },
    {
      "midi": 39,
      "time": 342.75,
      "duration": 0.125,
      "velocity": 0.54,
      "hand": "left"
    },
    {
      "midi": 51,
      "time": 342.75,
      "duration": 0.25,
      "velocity": 0.71,
      "hand": "left"
    },
    {
      "midi": 55,
      "time": 342.75,
      "duration": 0.25,
      "velocity": 0.71,
      "hand": "left"
    },
    {
      "midi": 43,
      "time": 343,
      "duration": 0.125,
      "velocity": 0.54,
      "hand": "left"
    },
    {
      "midi": 46,
      "time": 343,
      "duration": 0.25,
      "velocity": 0.54,
      "hand": "left"
    },
    {
      "midi": 51,
      "time": 343,
      "duration": 0.25,
      "velocity": 0.71,
      "hand": "left"
    },
    {
      "midi": 55,
      "time": 343,
      "duration": 0.25,
      "velocity": 0.71,
      "hand": "left"
    },
    {
      "midi": 51,
      "time": 343.25,
      "duration": 0.25,
      "velocity": 0.71,
      "hand": "left"
    },
    {
      "midi": 55,
      "time": 343.25,
      "duration": 0.25,
      "velocity": 0.71,
      "hand": "left"
    },
    {
      "midi": 51,
      "time": 343.5,
      "duration": 0.25,
      "velocity": 0.71,
      "hand": "left"
    },
    {
      "midi": 55,
      "time": 343.5,
      "duration": 0.25,
      "velocity": 0.71,
      "hand": "left"
    },
    {
      "midi": 63,
      "time": 343.5,
      "duration": 0.25,
      "velocity": 0.54,
      "hand": "right"
    },
    {
      "midi": 67,
      "time": 343.5,
      "duration": 0.25,
      "velocity": 0.54,
      "hand": "right"
    },
    {
      "midi": 70,
      "time": 343.5,
      "duration": 0.25,
      "velocity": 0.54,
      "hand": "right"
    },
    {
      "midi": 51,
      "time": 343.75,
      "duration": 0.25,
      "velocity": 0.71,
      "hand": "left"
    },
    {
      "midi": 55,
      "time": 343.75,
      "duration": 0.25,
      "velocity": 0.71,
      "hand": "left"
    },
    {
      "midi": 60,
      "time": 343.75,
      "duration": 0.25,
      "velocity": 0.71,
      "hand": "right"
    },
    {
      "midi": 51,
      "time": 344,
      "duration": 0.25,
      "velocity": 0.71,
      "hand": "left"
    },
    {
      "midi": 55,
      "time": 344,
      "duration": 0.25,
      "velocity": 0.71,
      "hand": "left"
    },
    {
      "midi": 58,
      "time": 344,
      "duration": 0.75,
      "velocity": 0.71,
      "hand": "left"
    },
    {
      "midi": 51,
      "time": 344.25,
      "duration": 0.25,
      "velocity": 0.71,
      "hand": "left"
    },
    {
      "midi": 55,
      "time": 344.25,
      "duration": 0.25,
      "velocity": 0.71,
      "hand": "left"
    },
    {
      "midi": 51,
      "time": 344.5,
      "duration": 0.25,
      "velocity": 0.71,
      "hand": "left"
    },
    {
      "midi": 55,
      "time": 344.5,
      "duration": 0.25,
      "velocity": 0.71,
      "hand": "left"
    },
    {
      "midi": 63,
      "time": 344.5,
      "duration": 0.25,
      "velocity": 0.54,
      "hand": "right"
    },
    {
      "midi": 67,
      "time": 344.5,
      "duration": 0.25,
      "velocity": 0.54,
      "hand": "right"
    },
    {
      "midi": 70,
      "time": 344.5,
      "duration": 0.25,
      "velocity": 0.54,
      "hand": "right"
    },
    {
      "midi": 51,
      "time": 344.75,
      "duration": 0.25,
      "velocity": 0.71,
      "hand": "left"
    },
    {
      "midi": 55,
      "time": 344.75,
      "duration": 0.25,
      "velocity": 0.71,
      "hand": "left"
    },
    {
      "midi": 60,
      "time": 344.75,
      "duration": 0.25,
      "velocity": 0.71,
      "hand": "right"
    },
    {
      "midi": 51,
      "time": 345,
      "duration": 0.25,
      "velocity": 0.71,
      "hand": "left"
    },
    {
      "midi": 55,
      "time": 345,
      "duration": 0.25,
      "velocity": 0.71,
      "hand": "left"
    },
    {
      "midi": 58,
      "time": 345,
      "duration": 0.75,
      "velocity": 0.71,
      "hand": "left"
    },
    {
      "midi": 51,
      "time": 345.25,
      "duration": 0.25,
      "velocity": 0.71,
      "hand": "left"
    },
    {
      "midi": 55,
      "time": 345.25,
      "duration": 0.25,
      "velocity": 0.71,
      "hand": "left"
    },
    {
      "midi": 51,
      "time": 345.5,
      "duration": 0.25,
      "velocity": 0.71,
      "hand": "left"
    },
    {
      "midi": 55,
      "time": 345.5,
      "duration": 0.25,
      "velocity": 0.71,
      "hand": "left"
    },
    {
      "midi": 63,
      "time": 345.5,
      "duration": 0.25,
      "velocity": 0.54,
      "hand": "right"
    },
    {
      "midi": 67,
      "time": 345.5,
      "duration": 0.25,
      "velocity": 0.54,
      "hand": "right"
    },
    {
      "midi": 70,
      "time": 345.5,
      "duration": 0.25,
      "velocity": 0.54,
      "hand": "right"
    },
    {
      "midi": 51,
      "time": 345.75,
      "duration": 0.25,
      "velocity": 0.71,
      "hand": "left"
    },
    {
      "midi": 55,
      "time": 345.75,
      "duration": 0.25,
      "velocity": 0.71,
      "hand": "left"
    },
    {
      "midi": 60,
      "time": 345.75,
      "duration": 0.25,
      "velocity": 0.71,
      "hand": "right"
    },
    {
      "midi": 51,
      "time": 346,
      "duration": 0.25,
      "velocity": 0.71,
      "hand": "left"
    },
    {
      "midi": 55,
      "time": 346,
      "duration": 0.25,
      "velocity": 0.71,
      "hand": "left"
    },
    {
      "midi": 58,
      "time": 346,
      "duration": 7.5,
      "velocity": 0.71,
      "hand": "left"
    },
    {
      "midi": 51,
      "time": 346.25,
      "duration": 0.25,
      "velocity": 0.71,
      "hand": "left"
    },
    {
      "midi": 55,
      "time": 346.25,
      "duration": 0.25,
      "velocity": 0.71,
      "hand": "left"
    },
    {
      "midi": 51,
      "time": 346.5,
      "duration": 0.25,
      "velocity": 0.71,
      "hand": "left"
    },
    {
      "midi": 55,
      "time": 346.5,
      "duration": 0.25,
      "velocity": 0.71,
      "hand": "left"
    },
    {
      "midi": 63,
      "time": 346.5,
      "duration": 1,
      "velocity": 0.54,
      "hand": "right"
    },
    {
      "midi": 67,
      "time": 346.5,
      "duration": 1,
      "velocity": 0.54,
      "hand": "right"
    },
    {
      "midi": 70,
      "time": 346.5,
      "duration": 1,
      "velocity": 0.54,
      "hand": "right"
    },
    {
      "midi": 51,
      "time": 346.75,
      "duration": 0.25,
      "velocity": 0.71,
      "hand": "left"
    },
    {
      "midi": 55,
      "time": 346.75,
      "duration": 0.25,
      "velocity": 0.71,
      "hand": "left"
    },
    {
      "midi": 51,
      "time": 347,
      "duration": 0.25,
      "velocity": 0.71,
      "hand": "left"
    },
    {
      "midi": 55,
      "time": 347,
      "duration": 0.25,
      "velocity": 0.71,
      "hand": "left"
    },
    {
      "midi": 51,
      "time": 347.25,
      "duration": 0.25,
      "velocity": 0.71,
      "hand": "left"
    },
    {
      "midi": 55,
      "time": 347.25,
      "duration": 0.25,
      "velocity": 0.71,
      "hand": "left"
    },
    {
      "midi": 22,
      "time": 347.5,
      "duration": 0.125,
      "velocity": 0.54,
      "hand": "left"
    },
    {
      "midi": 27,
      "time": 347.5,
      "duration": 0.125,
      "velocity": 0.54,
      "hand": "left"
    },
    {
      "midi": 51,
      "time": 347.5,
      "duration": 0.25,
      "velocity": 0.71,
      "hand": "left"
    },
    {
      "midi": 55,
      "time": 347.5,
      "duration": 0.25,
      "velocity": 0.71,
      "hand": "left"
    },
    {
      "midi": 31,
      "time": 347.75,
      "duration": 0.125,
      "velocity": 0.54,
      "hand": "left"
    },
    {
      "midi": 34,
      "time": 347.75,
      "duration": 0.125,
      "velocity": 0.54,
      "hand": "left"
    },
    {
      "midi": 39,
      "time": 347.75,
      "duration": 0.125,
      "velocity": 0.54,
      "hand": "left"
    },
    {
      "midi": 51,
      "time": 347.75,
      "duration": 0.25,
      "velocity": 0.71,
      "hand": "left"
    },
    {
      "midi": 55,
      "time": 347.75,
      "duration": 0.25,
      "velocity": 0.71,
      "hand": "left"
    },
    {
      "midi": 43,
      "time": 348,
      "duration": 0.125,
      "velocity": 0.54,
      "hand": "left"
    },
    {
      "midi": 46,
      "time": 348,
      "duration": 0.75,
      "velocity": 0.54,
      "hand": "left"
    },
    {
      "midi": 51,
      "time": 348,
      "duration": 0.25,
      "velocity": 0.71,
      "hand": "left"
    },
    {
      "midi": 55,
      "time": 348,
      "duration": 0.25,
      "velocity": 0.71,
      "hand": "left"
    },
    {
      "midi": 51,
      "time": 348.25,
      "duration": 0.25,
      "velocity": 0.71,
      "hand": "left"
    },
    {
      "midi": 55,
      "time": 348.25,
      "duration": 0.25,
      "velocity": 0.71,
      "hand": "left"
    },
    {
      "midi": 51,
      "time": 348.5,
      "duration": 0.25,
      "velocity": 0.71,
      "hand": "left"
    },
    {
      "midi": 55,
      "time": 348.5,
      "duration": 0.25,
      "velocity": 0.71,
      "hand": "left"
    },
    {
      "midi": 48,
      "time": 348.75,
      "duration": 0.25,
      "velocity": 0.54,
      "hand": "left"
    },
    {
      "midi": 51,
      "time": 348.75,
      "duration": 0.25,
      "velocity": 0.71,
      "hand": "left"
    },
    {
      "midi": 55,
      "time": 348.75,
      "duration": 0.25,
      "velocity": 0.71,
      "hand": "left"
    },
    {
      "midi": 46,
      "time": 349,
      "duration": 4.5,
      "velocity": 0.54,
      "hand": "left"
    },
    {
      "midi": 51,
      "time": 349,
      "duration": 0.25,
      "velocity": 0.71,
      "hand": "left"
    },
    {
      "midi": 55,
      "time": 349,
      "duration": 0.25,
      "velocity": 0.71,
      "hand": "left"
    },
    {
      "midi": 51,
      "time": 349.25,
      "duration": 0.25,
      "velocity": 0.71,
      "hand": "left"
    },
    {
      "midi": 55,
      "time": 349.25,
      "duration": 0.25,
      "velocity": 0.71,
      "hand": "left"
    },
    {
      "midi": 51,
      "time": 349.5,
      "duration": 0.25,
      "velocity": 0.71,
      "hand": "left"
    },
    {
      "midi": 55,
      "time": 349.5,
      "duration": 0.25,
      "velocity": 0.71,
      "hand": "left"
    },
    {
      "midi": 51,
      "time": 349.75,
      "duration": 0.25,
      "velocity": 0.71,
      "hand": "left"
    },
    {
      "midi": 55,
      "time": 349.75,
      "duration": 0.25,
      "velocity": 0.71,
      "hand": "left"
    },
    {
      "midi": 51,
      "time": 350,
      "duration": 0.25,
      "velocity": 0.71,
      "hand": "left"
    },
    {
      "midi": 55,
      "time": 350,
      "duration": 0.25,
      "velocity": 0.71,
      "hand": "left"
    },
    {
      "midi": 51,
      "time": 350.25,
      "duration": 3.25,
      "velocity": 0.71,
      "hand": "left"
    },
    {
      "midi": 55,
      "time": 350.25,
      "duration": 3.25,
      "velocity": 0.71,
      "hand": "left"
    },
    {
      "midi": 33,
      "time": 353.75,
      "duration": 0.25,
      "velocity": 0.71,
      "hand": "left"
    },
    {
      "midi": 34,
      "time": 353.75,
      "duration": 0.25,
      "velocity": 0.71,
      "hand": "left"
    },
    {
      "midi": 38,
      "time": 354,
      "duration": 0.25,
      "velocity": 0.71,
      "hand": "left"
    },
    {
      "midi": 39,
      "time": 354.25,
      "duration": 0.25,
      "velocity": 0.71,
      "hand": "left"
    },
    {
      "midi": 42,
      "time": 354.25,
      "duration": 0.25,
      "velocity": 0.71,
      "hand": "left"
    },
    {
      "midi": 43,
      "time": 354.5,
      "duration": 0.25,
      "velocity": 0.71,
      "hand": "left"
    },
    {
      "midi": 45,
      "time": 354.75,
      "duration": 0.25,
      "velocity": 0.71,
      "hand": "left"
    },
    {
      "midi": 46,
      "time": 354.75,
      "duration": 0.25,
      "velocity": 0.71,
      "hand": "left"
    },
    {
      "midi": 50,
      "time": 355,
      "duration": 0.25,
      "velocity": 0.71,
      "hand": "left"
    },
    {
      "midi": 51,
      "time": 355.25,
      "duration": 0.25,
      "velocity": 0.71,
      "hand": "left"
    },
    {
      "midi": 54,
      "time": 355.25,
      "duration": 0.25,
      "velocity": 0.71,
      "hand": "left"
    },
    {
      "midi": 55,
      "time": 355.5,
      "duration": 0.25,
      "velocity": 0.71,
      "hand": "left"
    },
    {
      "midi": 57,
      "time": 355.75,
      "duration": 0.25,
      "velocity": 0.71,
      "hand": "left"
    },
    {
      "midi": 58,
      "time": 355.75,
      "duration": 0.25,
      "velocity": 0.71,
      "hand": "left"
    },
    {
      "midi": 55,
      "time": 356,
      "duration": 0.125,
      "velocity": 0.71,
      "hand": "left"
    },
    {
      "midi": 57,
      "time": 356,
      "duration": 0.125,
      "velocity": 0.71,
      "hand": "left"
    },
    {
      "midi": 58,
      "time": 356.25,
      "duration": 0.125,
      "velocity": 0.71,
      "hand": "left"
    },
    {
      "midi": 62,
      "time": 356.25,
      "duration": 0.125,
      "velocity": 0.71,
      "hand": "right"
    },
    {
      "midi": 63,
      "time": 356.25,
      "duration": 0.125,
      "velocity": 0.71,
      "hand": "right"
    },
    {
      "midi": 66,
      "time": 356.5,
      "duration": 0.125,
      "velocity": 0.71,
      "hand": "right"
    },
    {
      "midi": 67,
      "time": 356.5,
      "duration": 0.125,
      "velocity": 0.71,
      "hand": "right"
    },
    {
      "midi": 69,
      "time": 356.5,
      "duration": 0.125,
      "velocity": 0.71,
      "hand": "right"
    },
    {
      "midi": 70,
      "time": 356.75,
      "duration": 0.125,
      "velocity": 0.71,
      "hand": "right"
    },
    {
      "midi": 74,
      "time": 356.75,
      "duration": 0.125,
      "velocity": 0.72,
      "hand": "right"
    },
    {
      "midi": 75,
      "time": 356.75,
      "duration": 0.125,
      "velocity": 0.72,
      "hand": "right"
    },
    {
      "midi": 78,
      "time": 357,
      "duration": 0.125,
      "velocity": 0.72,
      "hand": "right"
    },
    {
      "midi": 79,
      "time": 357,
      "duration": 0.125,
      "velocity": 0.72,
      "hand": "right"
    },
    {
      "midi": 81,
      "time": 357,
      "duration": 0.125,
      "velocity": 0.72,
      "hand": "right"
    },
    {
      "midi": 82,
      "time": 357.25,
      "duration": 0.125,
      "velocity": 0.72,
      "hand": "right"
    },
    {
      "midi": 86,
      "time": 357.25,
      "duration": 0.125,
      "velocity": 0.72,
      "hand": "right"
    },
    {
      "midi": 87,
      "time": 357.25,
      "duration": 0.125,
      "velocity": 0.72,
      "hand": "right"
    },
    {
      "midi": 90,
      "time": 357.5,
      "duration": 0.125,
      "velocity": 0.73,
      "hand": "right"
    },
    {
      "midi": 91,
      "time": 357.5,
      "duration": 0.125,
      "velocity": 0.73,
      "hand": "right"
    },
    {
      "midi": 93,
      "time": 357.5,
      "duration": 0.125,
      "velocity": 0.73,
      "hand": "right"
    },
    {
      "midi": 94,
      "time": 357.75,
      "duration": 0.125,
      "velocity": 0.74,
      "hand": "right"
    },
    {
      "midi": 98,
      "time": 357.75,
      "duration": 0.125,
      "velocity": 0.74,
      "hand": "right"
    },
    {
      "midi": 99,
      "time": 357.75,
      "duration": 0.125,
      "velocity": 0.74,
      "hand": "right"
    },
    {
      "midi": 95,
      "time": 358,
      "duration": 0.125,
      "velocity": 0.75,
      "hand": "right"
    },
    {
      "midi": 102,
      "time": 358,
      "duration": 0.125,
      "velocity": 0.74,
      "hand": "right"
    },
    {
      "midi": 103,
      "time": 358,
      "duration": 0.125,
      "velocity": 0.75,
      "hand": "right"
    },
    {
      "midi": 96,
      "time": 358.25,
      "duration": 0.125,
      "velocity": 0.75,
      "hand": "right"
    },
    {
      "midi": 98,
      "time": 358.25,
      "duration": 0.125,
      "velocity": 0.75,
      "hand": "right"
    },
    {
      "midi": 101,
      "time": 358.25,
      "duration": 0.125,
      "velocity": 0.75,
      "hand": "right"
    },
    {
      "midi": 95,
      "time": 358.5,
      "duration": 0.125,
      "velocity": 0.75,
      "hand": "right"
    },
    {
      "midi": 99,
      "time": 358.5,
      "duration": 0.125,
      "velocity": 0.75,
      "hand": "right"
    },
    {
      "midi": 103,
      "time": 358.5,
      "duration": 0.125,
      "velocity": 0.75,
      "hand": "right"
    },
    {
      "midi": 96,
      "time": 358.75,
      "duration": 0.125,
      "velocity": 0.75,
      "hand": "right"
    },
    {
      "midi": 98,
      "time": 358.75,
      "duration": 0.125,
      "velocity": 0.75,
      "hand": "right"
    },
    {
      "midi": 101,
      "time": 358.75,
      "duration": 0.125,
      "velocity": 0.75,
      "hand": "right"
    },
    {
      "midi": 95,
      "time": 359,
      "duration": 0.125,
      "velocity": 0.75,
      "hand": "right"
    },
    {
      "midi": 99,
      "time": 359,
      "duration": 0.125,
      "velocity": 0.75,
      "hand": "right"
    },
    {
      "midi": 103,
      "time": 359,
      "duration": 0.125,
      "velocity": 0.75,
      "hand": "right"
    },
    {
      "midi": 96,
      "time": 359.25,
      "duration": 0.125,
      "velocity": 0.75,
      "hand": "right"
    },
    {
      "midi": 98,
      "time": 359.25,
      "duration": 0.125,
      "velocity": 0.75,
      "hand": "right"
    },
    {
      "midi": 101,
      "time": 359.25,
      "duration": 0.125,
      "velocity": 0.75,
      "hand": "right"
    },
    {
      "midi": 95,
      "time": 359.5,
      "duration": 0.125,
      "velocity": 0.75,
      "hand": "right"
    },
    {
      "midi": 99,
      "time": 359.5,
      "duration": 0.125,
      "velocity": 0.75,
      "hand": "right"
    },
    {
      "midi": 103,
      "time": 359.5,
      "duration": 0.125,
      "velocity": 0.75,
      "hand": "right"
    },
    {
      "midi": 96,
      "time": 359.75,
      "duration": 0.125,
      "velocity": 0.75,
      "hand": "right"
    },
    {
      "midi": 98,
      "time": 359.75,
      "duration": 0.125,
      "velocity": 0.75,
      "hand": "right"
    },
    {
      "midi": 101,
      "time": 359.75,
      "duration": 0.125,
      "velocity": 0.75,
      "hand": "right"
    },
    {
      "midi": 99,
      "time": 360,
      "duration": 0.125,
      "velocity": 0.75,
      "hand": "right"
    },
    {
      "midi": 103,
      "time": 360,
      "duration": 1.75,
      "velocity": 0.75,
      "hand": "right"
    },
    {
      "midi": 98,
      "time": 361.75,
      "duration": 0.25,
      "velocity": 0.49,
      "hand": "right"
    },
    {
      "midi": 101,
      "time": 361.75,
      "duration": 0.25,
      "velocity": 0.49,
      "hand": "right"
    },
    {
      "midi": 93,
      "time": 362,
      "duration": 0.125,
      "velocity": 0.49,
      "hand": "right"
    },
    {
      "midi": 96,
      "time": 362,
      "duration": 0.125,
      "velocity": 0.49,
      "hand": "right"
    },
    {
      "midi": 99,
      "time": 362,
      "duration": 0.25,
      "velocity": 0.49,
      "hand": "right"
    },
    {
      "midi": 90,
      "time": 362.25,
      "duration": 0.125,
      "velocity": 0.49,
      "hand": "right"
    },
    {
      "midi": 92,
      "time": 362.25,
      "duration": 0.125,
      "velocity": 0.49,
      "hand": "right"
    },
    {
      "midi": 94,
      "time": 362.25,
      "duration": 0.125,
      "velocity": 0.49,
      "hand": "right"
    },
    {
      "midi": 86,
      "time": 362.5,
      "duration": 0.125,
      "velocity": 0.49,
      "hand": "right"
    },
    {
      "midi": 89,
      "time": 362.5,
      "duration": 0.125,
      "velocity": 0.49,
      "hand": "right"
    },
    {
      "midi": 91,
      "time": 362.5,
      "duration": 0.125,
      "velocity": 0.49,
      "hand": "right"
    },
    {
      "midi": 81,
      "time": 362.75,
      "duration": 0.125,
      "velocity": 0.49,
      "hand": "right"
    },
    {
      "midi": 84,
      "time": 362.75,
      "duration": 0.125,
      "velocity": 0.49,
      "hand": "right"
    },
    {
      "midi": 87,
      "time": 362.75,
      "duration": 0.125,
      "velocity": 0.49,
      "hand": "right"
    },
    {
      "midi": 78,
      "time": 363,
      "duration": 0.125,
      "velocity": 0.49,
      "hand": "right"
    },
    {
      "midi": 80,
      "time": 363,
      "duration": 0.125,
      "velocity": 0.49,
      "hand": "right"
    },
    {
      "midi": 82,
      "time": 363,
      "duration": 0.125,
      "velocity": 0.49,
      "hand": "right"
    },
    {
      "midi": 74,
      "time": 363.25,
      "duration": 0.125,
      "velocity": 0.49,
      "hand": "right"
    },
    {
      "midi": 77,
      "time": 363.25,
      "duration": 0.125,
      "velocity": 0.49,
      "hand": "right"
    },
    {
      "midi": 79,
      "time": 363.25,
      "duration": 0.125,
      "velocity": 0.49,
      "hand": "right"
    },
    {
      "midi": 69,
      "time": 363.5,
      "duration": 0.125,
      "velocity": 0.49,
      "hand": "right"
    },
    {
      "midi": 72,
      "time": 363.5,
      "duration": 0.125,
      "velocity": 0.49,
      "hand": "right"
    },
    {
      "midi": 75,
      "time": 363.5,
      "duration": 0.125,
      "velocity": 0.49,
      "hand": "right"
    },
    {
      "midi": 66,
      "time": 363.75,
      "duration": 0.125,
      "velocity": 0.49,
      "hand": "right"
    },
    {
      "midi": 68,
      "time": 363.75,
      "duration": 0.125,
      "velocity": 0.49,
      "hand": "right"
    },
    {
      "midi": 70,
      "time": 363.75,
      "duration": 0.125,
      "velocity": 0.49,
      "hand": "right"
    },
    {
      "midi": 62,
      "time": 364,
      "duration": 0.125,
      "velocity": 0.49,
      "hand": "right"
    },
    {
      "midi": 65,
      "time": 364,
      "duration": 0.125,
      "velocity": 0.49,
      "hand": "right"
    },
    {
      "midi": 67,
      "time": 364,
      "duration": 0.125,
      "velocity": 0.49,
      "hand": "right"
    },
    {
      "midi": 57,
      "time": 364.25,
      "duration": 0.125,
      "velocity": 0.49,
      "hand": "left"
    },
    {
      "midi": 60,
      "time": 364.25,
      "duration": 0.125,
      "velocity": 0.49,
      "hand": "right"
    },
    {
      "midi": 63,
      "time": 364.25,
      "duration": 0.125,
      "velocity": 0.49,
      "hand": "right"
    },
    {
      "midi": 58,
      "time": 364.5,
      "duration": 0.125,
      "velocity": 0.49,
      "hand": "left"
    },
    {
      "midi": 62,
      "time": 364.5,
      "duration": 0.125,
      "velocity": 0.49,
      "hand": "right"
    },
    {
      "midi": 65,
      "time": 364.5,
      "duration": 0.125,
      "velocity": 0.49,
      "hand": "right"
    },
    {
      "midi": 57,
      "time": 364.75,
      "duration": 0.125,
      "velocity": 0.49,
      "hand": "left"
    },
    {
      "midi": 60,
      "time": 364.75,
      "duration": 0.125,
      "velocity": 0.49,
      "hand": "right"
    },
    {
      "midi": 63,
      "time": 364.75,
      "duration": 0.125,
      "velocity": 0.49,
      "hand": "right"
    },
    {
      "midi": 58,
      "time": 365,
      "duration": 0.125,
      "velocity": 0.49,
      "hand": "left"
    },
    {
      "midi": 62,
      "time": 365,
      "duration": 0.125,
      "velocity": 0.49,
      "hand": "right"
    },
    {
      "midi": 65,
      "time": 365,
      "duration": 0.125,
      "velocity": 0.49,
      "hand": "right"
    },
    {
      "midi": 57,
      "time": 365.25,
      "duration": 0.125,
      "velocity": 0.49,
      "hand": "left"
    },
    {
      "midi": 60,
      "time": 365.25,
      "duration": 0.125,
      "velocity": 0.49,
      "hand": "right"
    },
    {
      "midi": 63,
      "time": 365.25,
      "duration": 0.125,
      "velocity": 0.49,
      "hand": "right"
    },
    {
      "midi": 58,
      "time": 365.5,
      "duration": 0.125,
      "velocity": 0.49,
      "hand": "left"
    },
    {
      "midi": 62,
      "time": 365.5,
      "duration": 0.125,
      "velocity": 0.49,
      "hand": "right"
    },
    {
      "midi": 65,
      "time": 365.5,
      "duration": 0.125,
      "velocity": 0.49,
      "hand": "right"
    },
    {
      "midi": 57,
      "time": 365.75,
      "duration": 0.125,
      "velocity": 0.49,
      "hand": "left"
    },
    {
      "midi": 60,
      "time": 365.75,
      "duration": 0.125,
      "velocity": 0.49,
      "hand": "right"
    },
    {
      "midi": 63,
      "time": 365.75,
      "duration": 0.125,
      "velocity": 0.49,
      "hand": "right"
    },
    {
      "midi": 58,
      "time": 366,
      "duration": 0.125,
      "velocity": 0.49,
      "hand": "left"
    },
    {
      "midi": 62,
      "time": 366,
      "duration": 0.25,
      "velocity": 0.49,
      "hand": "right"
    },
    {
      "midi": 63,
      "time": 366.25,
      "duration": 0.125,
      "velocity": 0.55,
      "hand": "right"
    },
    {
      "midi": 66,
      "time": 366.25,
      "duration": 0.125,
      "velocity": 0.57,
      "hand": "right"
    },
    {
      "midi": 67,
      "time": 366.5,
      "duration": 0.125,
      "velocity": 0.59,
      "hand": "right"
    },
    {
      "midi": 69,
      "time": 366.5,
      "duration": 0.125,
      "velocity": 0.61,
      "hand": "right"
    },
    {
      "midi": 70,
      "time": 366.5,
      "duration": 0.125,
      "velocity": 0.64,
      "hand": "right"
    },
    {
      "midi": 74,
      "time": 366.75,
      "duration": 0.125,
      "velocity": 0.66,
      "hand": "right"
    },
    {
      "midi": 75,
      "time": 366.75,
      "duration": 0.125,
      "velocity": 0.68,
      "hand": "right"
    },
    {
      "midi": 78,
      "time": 366.75,
      "duration": 0.125,
      "velocity": 0.7,
      "hand": "right"
    },
    {
      "midi": 79,
      "time": 367,
      "duration": 0.125,
      "velocity": 0.72,
      "hand": "right"
    },
    {
      "midi": 82,
      "time": 367,
      "duration": 1,
      "velocity": 0.75,
      "hand": "right"
    },
    {
      "midi": 79,
      "time": 368,
      "duration": 0.125,
      "velocity": 0.75,
      "hand": "right"
    },
    {
      "midi": 72,
      "time": 368.25,
      "duration": 0.125,
      "velocity": 0.75,
      "hand": "right"
    },
    {
      "midi": 75,
      "time": 368.25,
      "duration": 0.125,
      "velocity": 0.75,
      "hand": "right"
    },
    {
      "midi": 67,
      "time": 368.5,
      "duration": 0.125,
      "velocity": 0.75,
      "hand": "right"
    },
    {
      "midi": 70,
      "time": 368.5,
      "duration": 0.125,
      "velocity": 0.75,
      "hand": "right"
    },
    {
      "midi": 60,
      "time": 368.75,
      "duration": 0.125,
      "velocity": 0.75,
      "hand": "right"
    },
    {
      "midi": 63,
      "time": 368.75,
      "duration": 0.125,
      "velocity": 0.75,
      "hand": "right"
    },
    {
      "midi": 51,
      "time": 369,
      "duration": 0.125,
      "velocity": 0.75,
      "hand": "left"
    },
    {
      "midi": 55,
      "time": 369,
      "duration": 0.125,
      "velocity": 0.75,
      "hand": "left"
    },
    {
      "midi": 58,
      "time": 369,
      "duration": 0.125,
      "velocity": 0.75,
      "hand": "left"
    },
    {
      "midi": 46,
      "time": 369.25,
      "duration": 0.125,
      "velocity": 0.75,
      "hand": "left"
    },
    {
      "midi": 48,
      "time": 369.25,
      "duration": 0.125,
      "velocity": 0.75,
      "hand": "left"
    },
    {
      "midi": 39,
      "time": 369.5,
      "duration": 0.125,
      "velocity": 0.75,
      "hand": "left"
    },
    {
      "midi": 43,
      "time": 369.5,
      "duration": 0.125,
      "velocity": 0.75,
      "hand": "left"
    },
    {
      "midi": 34,
      "time": 369.75,
      "duration": 0.125,
      "velocity": 0.75,
      "hand": "left"
    },
    {
      "midi": 36,
      "time": 369.75,
      "duration": 0.125,
      "velocity": 0.75,
      "hand": "left"
    },
    {
      "midi": 27,
      "time": 370,
      "duration": 2,
      "velocity": 0.54,
      "hand": "left"
    },
    {
      "midi": 31,
      "time": 370,
      "duration": 0.125,
      "velocity": 0.75,
      "hand": "left"
    },
    {
      "midi": 31,
      "time": 372,
      "duration": 0.25,
      "velocity": 0.54,
      "hand": "left"
    },
    {
      "midi": 39,
      "time": 372,
      "duration": 0.25,
      "velocity": 0.71,
      "hand": "left"
    },
    {
      "midi": 34,
      "time": 372.25,
      "duration": 0.25,
      "velocity": 0.54,
      "hand": "left"
    },
    {
      "midi": 43,
      "time": 372.25,
      "duration": 0.25,
      "velocity": 0.71,
      "hand": "left"
    },
    {
      "midi": 39,
      "time": 372.75,
      "duration": 0.25,
      "velocity": 0.54,
      "hand": "left"
    },
    {
      "midi": 46,
      "time": 372.75,
      "duration": 0.25,
      "velocity": 0.71,
      "hand": "left"
    },
    {
      "midi": 43,
      "time": 373,
      "duration": 0.25,
      "velocity": 0.54,
      "hand": "left"
    },
    {
      "midi": 51,
      "time": 373,
      "duration": 0.25,
      "velocity": 0.71,
      "hand": "left"
    },
    {
      "midi": 46,
      "time": 373.25,
      "duration": 0.25,
      "velocity": 0.54,
      "hand": "left"
    },
    {
      "midi": 51,
      "time": 373.25,
      "duration": 0.25,
      "velocity": 0.54,
      "hand": "left"
    },
    {
      "midi": 55,
      "time": 373.25,
      "duration": 0.25,
      "velocity": 0.71,
      "hand": "left"
    },
    {
      "midi": 58,
      "time": 373.25,
      "duration": 0.25,
      "velocity": 0.71,
      "hand": "left"
    },
    {
      "midi": 55,
      "time": 373.5,
      "duration": 0.25,
      "velocity": 0.54,
      "hand": "left"
    },
    {
      "midi": 58,
      "time": 373.5,
      "duration": 0.25,
      "velocity": 0.71,
      "hand": "left"
    },
    {
      "midi": 63,
      "time": 373.5,
      "duration": 0.25,
      "velocity": 0.71,
      "hand": "right"
    },
    {
      "midi": 67,
      "time": 373.5,
      "duration": 0.25,
      "velocity": 0.75,
      "hand": "right"
    },
    {
      "midi": 63,
      "time": 373.75,
      "duration": 0.25,
      "velocity": 0.71,
      "hand": "right"
    },
    {
      "midi": 70,
      "time": 373.75,
      "duration": 0.25,
      "velocity": 0.75,
      "hand": "right"
    },
    {
      "midi": 67,
      "time": 374,
      "duration": 0.25,
      "velocity": 0.71,
      "hand": "right"
    },
    {
      "midi": 70,
      "time": 374,
      "duration": 0.25,
      "velocity": 0.71,
      "hand": "right"
    },
    {
      "midi": 75,
      "time": 374,
      "duration": 0.25,
      "velocity": 0.75,
      "hand": "right"
    },
    {
      "midi": 79,
      "time": 374,
      "duration": 0.25,
      "velocity": 0.75,
      "hand": "right"
    },
    {
      "midi": 75,
      "time": 374.25,
      "duration": 0.25,
      "velocity": 0.71,
      "hand": "right"
    },
    {
      "midi": 82,
      "time": 374.25,
      "duration": 0.25,
      "velocity": 0.75,
      "hand": "right"
    },
    {
      "midi": 79,
      "time": 374.5,
      "duration": 0.25,
      "velocity": 0.71,
      "hand": "right"
    },
    {
      "midi": 82,
      "time": 374.5,
      "duration": 0.25,
      "velocity": 0.71,
      "hand": "right"
    },
    {
      "midi": 87,
      "time": 374.5,
      "duration": 0.25,
      "velocity": 0.75,
      "hand": "right"
    },
    {
      "midi": 91,
      "time": 374.5,
      "duration": 0.25,
      "velocity": 0.75,
      "hand": "right"
    },
    {
      "midi": 87,
      "time": 374.75,
      "duration": 0.25,
      "velocity": 0.71,
      "hand": "right"
    },
    {
      "midi": 91,
      "time": 374.75,
      "duration": 0.25,
      "velocity": 0.71,
      "hand": "right"
    },
    {
      "midi": 94,
      "time": 374.75,
      "duration": 0.25,
      "velocity": 0.75,
      "hand": "right"
    },
    {
      "midi": 99,
      "time": 374.75,
      "duration": 0.25,
      "velocity": 0.75,
      "hand": "right"
    },
    {
      "midi": 94,
      "time": 375,
      "duration": 0.5,
      "velocity": 0.71,
      "hand": "right"
    },
    {
      "midi": 103,
      "time": 375,
      "duration": 0.5,
      "velocity": 0.75,
      "hand": "right"
    },
    {
      "midi": 31,
      "time": 376,
      "duration": 0.25,
      "velocity": 0.54,
      "hand": "left"
    },
    {
      "midi": 43,
      "time": 376,
      "duration": 0.25,
      "velocity": 0.75,
      "hand": "left"
    },
    {
      "midi": 55,
      "time": 376,
      "duration": 0.25,
      "velocity": 0.75,
      "hand": "left"
    },
    {
      "midi": 34,
      "time": 376.25,
      "duration": 0.25,
      "velocity": 0.54,
      "hand": "left"
    },
    {
      "midi": 46,
      "time": 376.25,
      "duration": 0.25,
      "velocity": 0.75,
      "hand": "left"
    },
    {
      "midi": 58,
      "time": 376.25,
      "duration": 0.25,
      "velocity": 0.75,
      "hand": "left"
    },
    {
      "midi": 36,
      "time": 376.5,
      "duration": 0.25,
      "velocity": 0.71,
      "hand": "left"
    },
    {
      "midi": 48,
      "time": 376.5,
      "duration": 0.25,
      "velocity": 0.71,
      "hand": "left"
    },
    {
      "midi": 60,
      "time": 376.5,
      "duration": 0.25,
      "velocity": 0.71,
      "hand": "right"
    },
    {
      "midi": 32,
      "time": 376.75,
      "duration": 0.25,
      "velocity": 0.71,
      "hand": "left"
    },
    {
      "midi": 44,
      "time": 376.75,
      "duration": 0.25,
      "velocity": 0.71,
      "hand": "left"
    },
    {
      "midi": 56,
      "time": 376.75,
      "duration": 0.25,
      "velocity": 0.71,
      "hand": "left"
    },
    {
      "midi": 34,
      "time": 377,
      "duration": 0.25,
      "velocity": 0.71,
      "hand": "left"
    },
    {
      "midi": 46,
      "time": 377,
      "duration": 0.25,
      "velocity": 0.71,
      "hand": "left"
    },
    {
      "midi": 58,
      "time": 377,
      "duration": 0.25,
      "velocity": 0.71,
      "hand": "left"
    },
    {
      "midi": 38,
      "time": 377.25,
      "duration": 0.25,
      "velocity": 0.71,
      "hand": "left"
    },
    {
      "midi": 50,
      "time": 377.25,
      "duration": 0.25,
      "velocity": 0.71,
      "hand": "left"
    },
    {
      "midi": 62,
      "time": 377.25,
      "duration": 0.25,
      "velocity": 0.71,
      "hand": "right"
    },
    {
      "midi": 39,
      "time": 377.5,
      "duration": 0.25,
      "velocity": 0.71,
      "hand": "left"
    },
    {
      "midi": 51,
      "time": 377.5,
      "duration": 0.25,
      "velocity": 0.71,
      "hand": "left"
    },
    {
      "midi": 63,
      "time": 377.5,
      "duration": 0.25,
      "velocity": 0.71,
      "hand": "right"
    },
    {
      "midi": 36,
      "time": 377.75,
      "duration": 0.25,
      "velocity": 0.71,
      "hand": "left"
    },
    {
      "midi": 48,
      "time": 377.75,
      "duration": 0.25,
      "velocity": 0.71,
      "hand": "left"
    },
    {
      "midi": 60,
      "time": 377.75,
      "duration": 0.25,
      "velocity": 0.71,
      "hand": "right"
    },
    {
      "midi": 40,
      "time": 378,
      "duration": 0.25,
      "velocity": 0.71,
      "hand": "left"
    },
    {
      "midi": 52,
      "time": 378,
      "duration": 0.25,
      "velocity": 0.71,
      "hand": "left"
    },
    {
      "midi": 64,
      "time": 378,
      "duration": 0.25,
      "velocity": 0.71,
      "hand": "right"
    },
    {
      "midi": 37,
      "time": 378.25,
      "duration": 0.25,
      "velocity": 0.71,
      "hand": "left"
    },
    {
      "midi": 49,
      "time": 378.25,
      "duration": 0.25,
      "velocity": 0.71,
      "hand": "left"
    },
    {
      "midi": 61,
      "time": 378.25,
      "duration": 0.25,
      "velocity": 0.71,
      "hand": "right"
    },
    {
      "midi": 41,
      "time": 378.5,
      "duration": 0.25,
      "velocity": 0.71,
      "hand": "left"
    },
    {
      "midi": 53,
      "time": 378.5,
      "duration": 0.25,
      "velocity": 0.71,
      "hand": "left"
    },
    {
      "midi": 65,
      "time": 378.5,
      "duration": 0.25,
      "velocity": 0.71,
      "hand": "right"
    },
    {
      "midi": 38,
      "time": 378.75,
      "duration": 0.25,
      "velocity": 0.71,
      "hand": "left"
    },
    {
      "midi": 50,
      "time": 378.75,
      "duration": 0.25,
      "velocity": 0.71,
      "hand": "left"
    },
    {
      "midi": 62,
      "time": 378.75,
      "duration": 0.25,
      "velocity": 0.71,
      "hand": "right"
    },
    {
      "midi": 43,
      "time": 379,
      "duration": 0.25,
      "velocity": 0.71,
      "hand": "left"
    },
    {
      "midi": 55,
      "time": 379,
      "duration": 0.25,
      "velocity": 0.71,
      "hand": "left"
    },
    {
      "midi": 67,
      "time": 379,
      "duration": 0.25,
      "velocity": 0.71,
      "hand": "right"
    },
    {
      "midi": 39,
      "time": 379.25,
      "duration": 0.25,
      "velocity": 0.71,
      "hand": "left"
    },
    {
      "midi": 52,
      "time": 379.25,
      "duration": 0.25,
      "velocity": 0.71,
      "hand": "left"
    },
    {
      "midi": 64,
      "time": 379.25,
      "duration": 0.25,
      "velocity": 0.71,
      "hand": "right"
    },
    {
      "midi": 44,
      "time": 379.5,
      "duration": 0.25,
      "velocity": 0.71,
      "hand": "left"
    },
    {
      "midi": 56,
      "time": 379.5,
      "duration": 0.25,
      "velocity": 0.71,
      "hand": "left"
    },
    {
      "midi": 68,
      "time": 379.5,
      "duration": 0.25,
      "velocity": 0.71,
      "hand": "right"
    },
    {
      "midi": 41,
      "time": 379.75,
      "duration": 0.25,
      "velocity": 0.71,
      "hand": "left"
    },
    {
      "midi": 53,
      "time": 379.75,
      "duration": 0.25,
      "velocity": 0.71,
      "hand": "left"
    },
    {
      "midi": 65,
      "time": 379.75,
      "duration": 0.25,
      "velocity": 0.71,
      "hand": "right"
    },
    {
      "midi": 43,
      "time": 380,
      "duration": 0.25,
      "velocity": 0.71,
      "hand": "left"
    },
    {
      "midi": 55,
      "time": 380,
      "duration": 0.25,
      "velocity": 0.71,
      "hand": "left"
    },
    {
      "midi": 67,
      "time": 380,
      "duration": 0.25,
      "velocity": 0.71,
      "hand": "right"
    },
    {
      "midi": 46,
      "time": 380.25,
      "duration": 0.25,
      "velocity": 0.71,
      "hand": "left"
    },
    {
      "midi": 58,
      "time": 380.25,
      "duration": 0.25,
      "velocity": 0.71,
      "hand": "left"
    },
    {
      "midi": 70,
      "time": 380.25,
      "duration": 0.25,
      "velocity": 0.71,
      "hand": "right"
    },
    {
      "midi": 48,
      "time": 380.5,
      "duration": 0.25,
      "velocity": 0.71,
      "hand": "left"
    },
    {
      "midi": 60,
      "time": 380.5,
      "duration": 0.25,
      "velocity": 0.71,
      "hand": "right"
    },
    {
      "midi": 72,
      "time": 380.5,
      "duration": 0.25,
      "velocity": 0.71,
      "hand": "right"
    },
    {
      "midi": 44,
      "time": 380.75,
      "duration": 0.25,
      "velocity": 0.71,
      "hand": "left"
    },
    {
      "midi": 56,
      "time": 380.75,
      "duration": 0.25,
      "velocity": 0.71,
      "hand": "left"
    },
    {
      "midi": 68,
      "time": 380.75,
      "duration": 0.25,
      "velocity": 0.71,
      "hand": "right"
    },
    {
      "midi": 46,
      "time": 381,
      "duration": 0.25,
      "velocity": 0.71,
      "hand": "left"
    },
    {
      "midi": 58,
      "time": 381,
      "duration": 0.25,
      "velocity": 0.71,
      "hand": "left"
    },
    {
      "midi": 70,
      "time": 381,
      "duration": 0.25,
      "velocity": 0.71,
      "hand": "right"
    },
    {
      "midi": 50,
      "time": 381.25,
      "duration": 0.25,
      "velocity": 0.71,
      "hand": "left"
    },
    {
      "midi": 62,
      "time": 381.25,
      "duration": 0.25,
      "velocity": 0.71,
      "hand": "right"
    },
    {
      "midi": 74,
      "time": 381.25,
      "duration": 0.25,
      "velocity": 0.71,
      "hand": "right"
    },
    {
      "midi": 51,
      "time": 381.5,
      "duration": 0.25,
      "velocity": 0.71,
      "hand": "left"
    },
    {
      "midi": 63,
      "time": 381.5,
      "duration": 0.25,
      "velocity": 0.71,
      "hand": "right"
    },
    {
      "midi": 75,
      "time": 381.5,
      "duration": 0.25,
      "velocity": 0.71,
      "hand": "right"
    },
    {
      "midi": 48,
      "time": 381.75,
      "duration": 0.25,
      "velocity": 0.71,
      "hand": "left"
    },
    {
      "midi": 60,
      "time": 381.75,
      "duration": 0.25,
      "velocity": 0.71,
      "hand": "right"
    },
    {
      "midi": 72,
      "time": 381.75,
      "duration": 0.25,
      "velocity": 0.71,
      "hand": "right"
    },
    {
      "midi": 52,
      "time": 382,
      "duration": 0.25,
      "velocity": 0.71,
      "hand": "left"
    },
    {
      "midi": 64,
      "time": 382,
      "duration": 0.25,
      "velocity": 0.71,
      "hand": "right"
    },
    {
      "midi": 76,
      "time": 382,
      "duration": 0.25,
      "velocity": 0.71,
      "hand": "right"
    },
    {
      "midi": 49,
      "time": 382.25,
      "duration": 0.25,
      "velocity": 0.71,
      "hand": "left"
    },
    {
      "midi": 61,
      "time": 382.25,
      "duration": 0.25,
      "velocity": 0.71,
      "hand": "right"
    },
    {
      "midi": 73,
      "time": 382.25,
      "duration": 0.25,
      "velocity": 0.71,
      "hand": "right"
    },
    {
      "midi": 53,
      "time": 382.5,
      "duration": 0.25,
      "velocity": 0.71,
      "hand": "left"
    },
    {
      "midi": 65,
      "time": 382.5,
      "duration": 0.25,
      "velocity": 0.71,
      "hand": "right"
    },
    {
      "midi": 77,
      "time": 382.5,
      "duration": 0.25,
      "velocity": 0.71,
      "hand": "right"
    },
    {
      "midi": 50,
      "time": 382.75,
      "duration": 0.25,
      "velocity": 0.71,
      "hand": "left"
    },
    {
      "midi": 62,
      "time": 382.75,
      "duration": 0.25,
      "velocity": 0.71,
      "hand": "right"
    },
    {
      "midi": 74,
      "time": 382.75,
      "duration": 0.25,
      "velocity": 0.71,
      "hand": "right"
    },
    {
      "midi": 55,
      "time": 383,
      "duration": 0.25,
      "velocity": 0.71,
      "hand": "left"
    },
    {
      "midi": 67,
      "time": 383,
      "duration": 0.25,
      "velocity": 0.71,
      "hand": "right"
    },
    {
      "midi": 79,
      "time": 383,
      "duration": 0.25,
      "velocity": 0.71,
      "hand": "right"
    },
    {
      "midi": 51,
      "time": 383.25,
      "duration": 0.25,
      "velocity": 0.71,
      "hand": "left"
    },
    {
      "midi": 64,
      "time": 383.25,
      "duration": 0.25,
      "velocity": 0.71,
      "hand": "right"
    },
    {
      "midi": 76,
      "time": 383.25,
      "duration": 0.25,
      "velocity": 0.71,
      "hand": "right"
    },
    {
      "midi": 56,
      "time": 383.5,
      "duration": 0.25,
      "velocity": 0.71,
      "hand": "left"
    },
    {
      "midi": 68,
      "time": 383.5,
      "duration": 0.25,
      "velocity": 0.71,
      "hand": "right"
    },
    {
      "midi": 80,
      "time": 383.5,
      "duration": 0.25,
      "velocity": 0.71,
      "hand": "right"
    },
    {
      "midi": 53,
      "time": 383.75,
      "duration": 0.25,
      "velocity": 0.71,
      "hand": "left"
    },
    {
      "midi": 65,
      "time": 383.75,
      "duration": 0.25,
      "velocity": 0.71,
      "hand": "right"
    },
    {
      "midi": 77,
      "time": 383.75,
      "duration": 0.25,
      "velocity": 0.71,
      "hand": "right"
    },
    {
      "midi": 58,
      "time": 384,
      "duration": 0.25,
      "velocity": 0.71,
      "hand": "left"
    },
    {
      "midi": 70,
      "time": 384,
      "duration": 0.25,
      "velocity": 0.71,
      "hand": "right"
    },
    {
      "midi": 82,
      "time": 384,
      "duration": 0.25,
      "velocity": 0.71,
      "hand": "right"
    },
    {
      "midi": 55,
      "time": 384.25,
      "duration": 0.25,
      "velocity": 0.71,
      "hand": "left"
    },
    {
      "midi": 67,
      "time": 384.25,
      "duration": 0.25,
      "velocity": 0.71,
      "hand": "right"
    },
    {
      "midi": 79,
      "time": 384.25,
      "duration": 0.25,
      "velocity": 0.71,
      "hand": "right"
    },
    {
      "midi": 60,
      "time": 384.5,
      "duration": 0.25,
      "velocity": 0.71,
      "hand": "right"
    },
    {
      "midi": 72,
      "time": 384.5,
      "duration": 0.25,
      "velocity": 0.71,
      "hand": "right"
    },
    {
      "midi": 84,
      "time": 384.5,
      "duration": 0.25,
      "velocity": 0.71,
      "hand": "right"
    },
    {
      "midi": 56,
      "time": 384.75,
      "duration": 0.25,
      "velocity": 0.71,
      "hand": "left"
    },
    {
      "midi": 68,
      "time": 384.75,
      "duration": 0.25,
      "velocity": 0.71,
      "hand": "right"
    },
    {
      "midi": 80,
      "time": 384.75,
      "duration": 0.25,
      "velocity": 0.71,
      "hand": "right"
    },
    {
      "midi": 58,
      "time": 385,
      "duration": 0.25,
      "velocity": 0.71,
      "hand": "left"
    },
    {
      "midi": 70,
      "time": 385,
      "duration": 0.25,
      "velocity": 0.71,
      "hand": "right"
    },
    {
      "midi": 82,
      "time": 385,
      "duration": 0.25,
      "velocity": 0.71,
      "hand": "right"
    },
    {
      "midi": 62,
      "time": 385.25,
      "duration": 0.25,
      "velocity": 0.71,
      "hand": "right"
    },
    {
      "midi": 74,
      "time": 385.25,
      "duration": 0.25,
      "velocity": 0.71,
      "hand": "right"
    },
    {
      "midi": 86,
      "time": 385.25,
      "duration": 0.25,
      "velocity": 0.71,
      "hand": "right"
    },
    {
      "midi": 63,
      "time": 385.5,
      "duration": 0.25,
      "velocity": 0.71,
      "hand": "right"
    },
    {
      "midi": 75,
      "time": 385.5,
      "duration": 0.25,
      "velocity": 0.71,
      "hand": "right"
    },
    {
      "midi": 87,
      "time": 385.5,
      "duration": 0.25,
      "velocity": 0.71,
      "hand": "right"
    },
    {
      "midi": 60,
      "time": 385.75,
      "duration": 0.25,
      "velocity": 0.71,
      "hand": "right"
    },
    {
      "midi": 72,
      "time": 385.75,
      "duration": 0.25,
      "velocity": 0.71,
      "hand": "right"
    },
    {
      "midi": 84,
      "time": 385.75,
      "duration": 0.25,
      "velocity": 0.71,
      "hand": "right"
    },
    {
      "midi": 62,
      "time": 386,
      "duration": 0.25,
      "velocity": 0.71,
      "hand": "right"
    },
    {
      "midi": 74,
      "time": 386,
      "duration": 0.25,
      "velocity": 0.71,
      "hand": "right"
    },
    {
      "midi": 86,
      "time": 386,
      "duration": 0.25,
      "velocity": 0.71,
      "hand": "right"
    },
    {
      "midi": 65,
      "time": 386.25,
      "duration": 0.25,
      "velocity": 0.71,
      "hand": "right"
    },
    {
      "midi": 77,
      "time": 386.25,
      "duration": 0.25,
      "velocity": 0.71,
      "hand": "right"
    },
    {
      "midi": 89,
      "time": 386.25,
      "duration": 0.25,
      "velocity": 0.71,
      "hand": "right"
    },
    {
      "midi": 67,
      "time": 386.5,
      "duration": 0.25,
      "velocity": 0.71,
      "hand": "right"
    },
    {
      "midi": 79,
      "time": 386.5,
      "duration": 0.25,
      "velocity": 0.71,
      "hand": "right"
    },
    {
      "midi": 91,
      "time": 386.5,
      "duration": 0.25,
      "velocity": 0.71,
      "hand": "right"
    },
    {
      "midi": 63,
      "time": 386.75,
      "duration": 0.25,
      "velocity": 0.71,
      "hand": "right"
    },
    {
      "midi": 75,
      "time": 386.75,
      "duration": 0.25,
      "velocity": 0.71,
      "hand": "right"
    },
    {
      "midi": 87,
      "time": 386.75,
      "duration": 0.25,
      "velocity": 0.71,
      "hand": "right"
    },
    {
      "midi": 65,
      "time": 387,
      "duration": 0.25,
      "velocity": 0.71,
      "hand": "right"
    },
    {
      "midi": 77,
      "time": 387,
      "duration": 0.25,
      "velocity": 0.71,
      "hand": "right"
    },
    {
      "midi": 89,
      "time": 387,
      "duration": 0.25,
      "velocity": 0.71,
      "hand": "right"
    },
    {
      "midi": 68,
      "time": 387.25,
      "duration": 0.25,
      "velocity": 0.71,
      "hand": "right"
    },
    {
      "midi": 80,
      "time": 387.25,
      "duration": 0.25,
      "velocity": 0.71,
      "hand": "right"
    },
    {
      "midi": 92,
      "time": 387.25,
      "duration": 0.25,
      "velocity": 0.71,
      "hand": "right"
    },
    {
      "midi": 70,
      "time": 387.5,
      "duration": 0.25,
      "velocity": 0.71,
      "hand": "right"
    },
    {
      "midi": 82,
      "time": 387.5,
      "duration": 0.25,
      "velocity": 0.71,
      "hand": "right"
    },
    {
      "midi": 94,
      "time": 387.5,
      "duration": 0.25,
      "velocity": 0.71,
      "hand": "right"
    },
    {
      "midi": 66,
      "time": 387.75,
      "duration": 0.25,
      "velocity": 0.71,
      "hand": "right"
    },
    {
      "midi": 78,
      "time": 387.75,
      "duration": 0.25,
      "velocity": 0.71,
      "hand": "right"
    },
    {
      "midi": 90,
      "time": 387.75,
      "duration": 0.25,
      "velocity": 0.71,
      "hand": "right"
    },
    {
      "midi": 67,
      "time": 388,
      "duration": 0.25,
      "velocity": 0.71,
      "hand": "right"
    },
    {
      "midi": 79,
      "time": 388,
      "duration": 0.25,
      "velocity": 0.71,
      "hand": "right"
    },
    {
      "midi": 91,
      "time": 388,
      "duration": 0.25,
      "velocity": 0.71,
      "hand": "right"
    },
    {
      "midi": 70,
      "time": 388.25,
      "duration": 0.25,
      "velocity": 0.71,
      "hand": "right"
    },
    {
      "midi": 82,
      "time": 388.25,
      "duration": 0.25,
      "velocity": 0.71,
      "hand": "right"
    },
    {
      "midi": 94,
      "time": 388.25,
      "duration": 0.25,
      "velocity": 0.71,
      "hand": "right"
    },
    {
      "midi": 72,
      "time": 388.5,
      "duration": 0.5,
      "velocity": 0.71,
      "hand": "right"
    },
    {
      "midi": 84,
      "time": 388.5,
      "duration": 0.5,
      "velocity": 0.84,
      "hand": "right"
    },
    {
      "midi": 96,
      "time": 388.5,
      "duration": 0.5,
      "velocity": 0.84,
      "hand": "right"
    },
    {
      "midi": 44,
      "time": 389,
      "duration": 1,
      "velocity": 0.71,
      "hand": "left"
    },
    {
      "midi": 50,
      "time": 389,
      "duration": 1,
      "velocity": 0.71,
      "hand": "left"
    },
    {
      "midi": 53,
      "time": 389,
      "duration": 1,
      "velocity": 0.71,
      "hand": "left"
    },
    {
      "midi": 56,
      "time": 389,
      "duration": 1,
      "velocity": 0.71,
      "hand": "left"
    },
    {
      "midi": 60,
      "time": 389,
      "duration": 1,
      "velocity": 0.84,
      "hand": "right"
    },
    {
      "midi": 65,
      "time": 389,
      "duration": 1,
      "velocity": 0.84,
      "hand": "right"
    },
    {
      "midi": 72,
      "time": 389,
      "duration": 1,
      "velocity": 0.84,
      "hand": "right"
    },
    {
      "midi": 65,
      "time": 390,
      "duration": 0.25,
      "velocity": 0.71,
      "hand": "right"
    },
    {
      "midi": 77,
      "time": 390,
      "duration": 0.25,
      "velocity": 0.84,
      "hand": "right"
    },
    {
      "midi": 89,
      "time": 390,
      "duration": 0.25,
      "velocity": 0.84,
      "hand": "right"
    },
    {
      "midi": 68,
      "time": 390.25,
      "duration": 0.25,
      "velocity": 0.71,
      "hand": "right"
    },
    {
      "midi": 80,
      "time": 390.25,
      "duration": 0.25,
      "velocity": 0.84,
      "hand": "right"
    },
    {
      "midi": 92,
      "time": 390.25,
      "duration": 0.25,
      "velocity": 0.84,
      "hand": "right"
    },
    {
      "midi": 70,
      "time": 390.5,
      "duration": 0.5,
      "velocity": 0.71,
      "hand": "right"
    },
    {
      "midi": 82,
      "time": 390.5,
      "duration": 0.5,
      "velocity": 0.84,
      "hand": "right"
    },
    {
      "midi": 94,
      "time": 390.5,
      "duration": 0.5,
      "velocity": 0.84,
      "hand": "right"
    },
    {
      "midi": 43,
      "time": 391,
      "duration": 1,
      "velocity": 0.71,
      "hand": "left"
    },
    {
      "midi": 46,
      "time": 391,
      "duration": 1,
      "velocity": 0.71,
      "hand": "left"
    },
    {
      "midi": 51,
      "time": 391,
      "duration": 1,
      "velocity": 0.71,
      "hand": "left"
    },
    {
      "midi": 55,
      "time": 391,
      "duration": 1,
      "velocity": 0.71,
      "hand": "left"
    },
    {
      "midi": 58,
      "time": 391,
      "duration": 1,
      "velocity": 0.84,
      "hand": "left"
    },
    {
      "midi": 63,
      "time": 391,
      "duration": 1,
      "velocity": 0.84,
      "hand": "right"
    },
    {
      "midi": 67,
      "time": 391,
      "duration": 1,
      "velocity": 0.84,
      "hand": "right"
    },
    {
      "midi": 70,
      "time": 391,
      "duration": 1,
      "velocity": 0.84,
      "hand": "right"
    },
    {
      "midi": 67,
      "time": 392,
      "duration": 0.25,
      "velocity": 0.71,
      "hand": "right"
    },
    {
      "midi": 79,
      "time": 392,
      "duration": 0.25,
      "velocity": 0.84,
      "hand": "right"
    },
    {
      "midi": 91,
      "time": 392,
      "duration": 0.25,
      "velocity": 0.84,
      "hand": "right"
    },
    {
      "midi": 70,
      "time": 392.25,
      "duration": 0.25,
      "velocity": 0.71,
      "hand": "right"
    },
    {
      "midi": 82,
      "time": 392.25,
      "duration": 0.25,
      "velocity": 0.84,
      "hand": "right"
    },
    {
      "midi": 94,
      "time": 392.25,
      "duration": 0.25,
      "velocity": 0.84,
      "hand": "right"
    },
    {
      "midi": 72,
      "time": 392.5,
      "duration": 0.5,
      "velocity": 0.71,
      "hand": "right"
    },
    {
      "midi": 84,
      "time": 392.5,
      "duration": 0.5,
      "velocity": 0.84,
      "hand": "right"
    },
    {
      "midi": 96,
      "time": 392.5,
      "duration": 0.5,
      "velocity": 0.84,
      "hand": "right"
    },
    {
      "midi": 44,
      "time": 393,
      "duration": 1,
      "velocity": 0.71,
      "hand": "left"
    },
    {
      "midi": 50,
      "time": 393,
      "duration": 1,
      "velocity": 0.71,
      "hand": "left"
    },
    {
      "midi": 53,
      "time": 393,
      "duration": 1,
      "velocity": 0.71,
      "hand": "left"
    },
    {
      "midi": 56,
      "time": 393,
      "duration": 1,
      "velocity": 0.71,
      "hand": "left"
    },
    {
      "midi": 60,
      "time": 393,
      "duration": 1,
      "velocity": 0.84,
      "hand": "right"
    },
    {
      "midi": 65,
      "time": 393,
      "duration": 1,
      "velocity": 0.84,
      "hand": "right"
    },
    {
      "midi": 72,
      "time": 393,
      "duration": 1,
      "velocity": 0.84,
      "hand": "right"
    },
    {
      "midi": 65,
      "time": 394,
      "duration": 0.25,
      "velocity": 0.71,
      "hand": "right"
    },
    {
      "midi": 77,
      "time": 394,
      "duration": 0.25,
      "velocity": 0.84,
      "hand": "right"
    },
    {
      "midi": 89,
      "time": 394,
      "duration": 0.25,
      "velocity": 0.84,
      "hand": "right"
    },
    {
      "midi": 68,
      "time": 394.25,
      "duration": 0.25,
      "velocity": 0.71,
      "hand": "right"
    },
    {
      "midi": 80,
      "time": 394.25,
      "duration": 0.25,
      "velocity": 0.84,
      "hand": "right"
    },
    {
      "midi": 92,
      "time": 394.25,
      "duration": 0.25,
      "velocity": 0.84,
      "hand": "right"
    },
    {
      "midi": 70,
      "time": 394.5,
      "duration": 0.5,
      "velocity": 0.71,
      "hand": "right"
    },
    {
      "midi": 82,
      "time": 394.5,
      "duration": 0.5,
      "velocity": 0.84,
      "hand": "right"
    },
    {
      "midi": 94,
      "time": 394.5,
      "duration": 0.5,
      "velocity": 0.84,
      "hand": "right"
    },
    {
      "midi": 43,
      "time": 395,
      "duration": 1,
      "velocity": 0.71,
      "hand": "left"
    },
    {
      "midi": 46,
      "time": 395,
      "duration": 1,
      "velocity": 0.71,
      "hand": "left"
    },
    {
      "midi": 51,
      "time": 395,
      "duration": 1,
      "velocity": 0.71,
      "hand": "left"
    },
    {
      "midi": 55,
      "time": 395,
      "duration": 1,
      "velocity": 0.71,
      "hand": "left"
    },
    {
      "midi": 58,
      "time": 395,
      "duration": 1,
      "velocity": 0.84,
      "hand": "left"
    },
    {
      "midi": 63,
      "time": 395,
      "duration": 1,
      "velocity": 0.84,
      "hand": "right"
    },
    {
      "midi": 67,
      "time": 395,
      "duration": 1,
      "velocity": 0.84,
      "hand": "right"
    },
    {
      "midi": 70,
      "time": 395,
      "duration": 1,
      "velocity": 0.84,
      "hand": "right"
    },
    {
      "midi": 79,
      "time": 396,
      "duration": 0.25,
      "velocity": 0.84,
      "hand": "right"
    },
    {
      "midi": 82,
      "time": 396.25,
      "duration": 0.25,
      "velocity": 0.84,
      "hand": "right"
    },
    {
      "midi": 44,
      "time": 396.5,
      "duration": 0.5,
      "velocity": 0.71,
      "hand": "left"
    },
    {
      "midi": 84,
      "time": 396.5,
      "duration": 0.25,
      "velocity": 0.84,
      "hand": "right"
    },
    {
      "midi": 72,
      "time": 396.75,
      "duration": 0.25,
      "velocity": 0.84,
      "hand": "right"
    },
    {
      "midi": 79,
      "time": 396.75,
      "duration": 0.25,
      "velocity": 0.84,
      "hand": "right"
    },
    {
      "midi": 56,
      "time": 397,
      "duration": 0.5,
      "velocity": 0.71,
      "hand": "left"
    },
    {
      "midi": 60,
      "time": 397,
      "duration": 0.5,
      "velocity": 0.71,
      "hand": "right"
    },
    {
      "midi": 64,
      "time": 397,
      "duration": 0.5,
      "velocity": 0.71,
      "hand": "right"
    },
    {
      "midi": 84,
      "time": 397,
      "duration": 0.25,
      "velocity": 0.84,
      "hand": "right"
    },
    {
      "midi": 72,
      "time": 397.25,
      "duration": 0.25,
      "velocity": 0.84,
      "hand": "right"
    },
    {
      "midi": 79,
      "time": 397.25,
      "duration": 0.25,
      "velocity": 0.84,
      "hand": "right"
    },
    {
      "midi": 68,
      "time": 397.5,
      "duration": 0.5,
      "velocity": 0.71,
      "hand": "right"
    },
    {
      "midi": 72,
      "time": 397.5,
      "duration": 0.25,
      "velocity": 1,
      "hand": "right"
    },
    {
      "midi": 77,
      "time": 397.5,
      "duration": 0.25,
      "velocity": 1,
      "hand": "right"
    },
    {
      "midi": 65,
      "time": 397.75,
      "duration": 0.25,
      "velocity": 1,
      "hand": "right"
    },
    {
      "midi": 77,
      "time": 398,
      "duration": 0.25,
      "velocity": 1,
      "hand": "right"
    },
    {
      "midi": 80,
      "time": 398.25,
      "duration": 0.25,
      "velocity": 1,
      "hand": "right"
    },
    {
      "midi": 43,
      "time": 398.5,
      "duration": 0.5,
      "velocity": 0.71,
      "hand": "left"
    },
    {
      "midi": 82,
      "time": 398.5,
      "duration": 0.25,
      "velocity": 1,
      "hand": "right"
    },
    {
      "midi": 70,
      "time": 398.75,
      "duration": 0.25,
      "velocity": 1,
      "hand": "right"
    },
    {
      "midi": 77,
      "time": 398.75,
      "duration": 0.25,
      "velocity": 1,
      "hand": "right"
    },
    {
      "midi": 55,
      "time": 399,
      "duration": 0.5,
      "velocity": 0.71,
      "hand": "left"
    },
    {
      "midi": 58,
      "time": 399,
      "duration": 0.5,
      "velocity": 0.71,
      "hand": "left"
    },
    {
      "midi": 62,
      "time": 399,
      "duration": 0.5,
      "velocity": 0.71,
      "hand": "right"
    },
    {
      "midi": 82,
      "time": 399,
      "duration": 0.25,
      "velocity": 1,
      "hand": "right"
    },
    {
      "midi": 70,
      "time": 399.25,
      "duration": 0.25,
      "velocity": 1,
      "hand": "right"
    },
    {
      "midi": 77,
      "time": 399.25,
      "duration": 0.25,
      "velocity": 1,
      "hand": "right"
    },
    {
      "midi": 67,
      "time": 399.5,
      "duration": 0.5,
      "velocity": 0.71,
      "hand": "right"
    },
    {
      "midi": 70,
      "time": 399.5,
      "duration": 0.25,
      "velocity": 1,
      "hand": "right"
    },
    {
      "midi": 75,
      "time": 399.5,
      "duration": 0.25,
      "velocity": 1,
      "hand": "right"
    },
    {
      "midi": 63,
      "time": 399.75,
      "duration": 0.25,
      "velocity": 1,
      "hand": "right"
    },
    {
      "midi": 79,
      "time": 400,
      "duration": 0.25,
      "velocity": 1,
      "hand": "right"
    },
    {
      "midi": 82,
      "time": 400.25,
      "duration": 0.25,
      "velocity": 1,
      "hand": "right"
    },
    {
      "midi": 44,
      "time": 400.5,
      "duration": 0.5,
      "velocity": 0.71,
      "hand": "left"
    },
    {
      "midi": 84,
      "time": 400.5,
      "duration": 0.25,
      "velocity": 1,
      "hand": "right"
    },
    {
      "midi": 72,
      "time": 400.75,
      "duration": 0.25,
      "velocity": 1,
      "hand": "right"
    },
    {
      "midi": 79,
      "time": 400.75,
      "duration": 0.25,
      "velocity": 1,
      "hand": "right"
    },
    {
      "midi": 56,
      "time": 401,
      "duration": 0.5,
      "velocity": 0.71,
      "hand": "left"
    },
    {
      "midi": 60,
      "time": 401,
      "duration": 0.5,
      "velocity": 0.71,
      "hand": "right"
    },
    {
      "midi": 64,
      "time": 401,
      "duration": 0.5,
      "velocity": 0.71,
      "hand": "right"
    },
    {
      "midi": 84,
      "time": 401,
      "duration": 0.25,
      "velocity": 1,
      "hand": "right"
    },
    {
      "midi": 72,
      "time": 401.25,
      "duration": 0.25,
      "velocity": 1,
      "hand": "right"
    },
    {
      "midi": 79,
      "time": 401.25,
      "duration": 0.25,
      "velocity": 1,
      "hand": "right"
    },
    {
      "midi": 68,
      "time": 401.5,
      "duration": 0.5,
      "velocity": 0.71,
      "hand": "right"
    },
    {
      "midi": 72,
      "time": 401.5,
      "duration": 0.25,
      "velocity": 1,
      "hand": "right"
    },
    {
      "midi": 77,
      "time": 401.5,
      "duration": 0.25,
      "velocity": 1,
      "hand": "right"
    },
    {
      "midi": 65,
      "time": 401.75,
      "duration": 0.25,
      "velocity": 1,
      "hand": "right"
    },
    {
      "midi": 77,
      "time": 402,
      "duration": 0.25,
      "velocity": 1,
      "hand": "right"
    },
    {
      "midi": 80,
      "time": 402.25,
      "duration": 0.25,
      "velocity": 1,
      "hand": "right"
    },
    {
      "midi": 43,
      "time": 402.5,
      "duration": 0.5,
      "velocity": 0.71,
      "hand": "left"
    },
    {
      "midi": 82,
      "time": 402.5,
      "duration": 0.25,
      "velocity": 1,
      "hand": "right"
    },
    {
      "midi": 70,
      "time": 402.75,
      "duration": 0.25,
      "velocity": 1,
      "hand": "right"
    },
    {
      "midi": 77,
      "time": 402.75,
      "duration": 0.25,
      "velocity": 1,
      "hand": "right"
    },
    {
      "midi": 55,
      "time": 403,
      "duration": 0.5,
      "velocity": 0.71,
      "hand": "left"
    },
    {
      "midi": 58,
      "time": 403,
      "duration": 0.5,
      "velocity": 0.71,
      "hand": "left"
    },
    {
      "midi": 62,
      "time": 403,
      "duration": 0.5,
      "velocity": 0.71,
      "hand": "right"
    },
    {
      "midi": 82,
      "time": 403,
      "duration": 0.25,
      "velocity": 1,
      "hand": "right"
    },
    {
      "midi": 70,
      "time": 403.25,
      "duration": 0.25,
      "velocity": 1,
      "hand": "right"
    },
    {
      "midi": 77,
      "time": 403.25,
      "duration": 0.25,
      "velocity": 1,
      "hand": "right"
    },
    {
      "midi": 67,
      "time": 403.5,
      "duration": 0.5,
      "velocity": 0.71,
      "hand": "right"
    },
    {
      "midi": 70,
      "time": 403.5,
      "duration": 0.25,
      "velocity": 1,
      "hand": "right"
    },
    {
      "midi": 75,
      "time": 403.5,
      "duration": 0.25,
      "velocity": 1,
      "hand": "right"
    },
    {
      "midi": 63,
      "time": 403.75,
      "duration": 0.25,
      "velocity": 1,
      "hand": "right"
    },
    {
      "midi": 31,
      "time": 404,
      "duration": 0.25,
      "velocity": 0.71,
      "hand": "left"
    },
    {
      "midi": 43,
      "time": 404,
      "duration": 0.25,
      "velocity": 0.71,
      "hand": "left"
    },
    {
      "midi": 34,
      "time": 404.25,
      "duration": 0.25,
      "velocity": 0.71,
      "hand": "left"
    },
    {
      "midi": 46,
      "time": 404.25,
      "duration": 0.25,
      "velocity": 0.71,
      "hand": "left"
    },
    {
      "midi": 36,
      "time": 404.5,
      "duration": 0.5,
      "velocity": 0.71,
      "hand": "left"
    },
    {
      "midi": 48,
      "time": 404.5,
      "duration": 0.5,
      "velocity": 0.71,
      "hand": "left"
    },
    {
      "midi": 63,
      "time": 404.5,
      "duration": 0.5,
      "velocity": 0.75,
      "hand": "right"
    },
    {
      "midi": 68,
      "time": 404.5,
      "duration": 0.5,
      "velocity": 0.75,
      "hand": "right"
    },
    {
      "midi": 36,
      "time": 405,
      "duration": 0.5,
      "velocity": 0.71,
      "hand": "left"
    },
    {
      "midi": 48,
      "time": 405,
      "duration": 0.5,
      "velocity": 0.71,
      "hand": "left"
    },
    {
      "midi": 63,
      "time": 405,
      "duration": 0.5,
      "velocity": 0.75,
      "hand": "right"
    },
    {
      "midi": 68,
      "time": 405,
      "duration": 0.5,
      "velocity": 0.75,
      "hand": "right"
    },
    {
      "midi": 75,
      "time": 405,
      "duration": 0.5,
      "velocity": 0.75,
      "hand": "right"
    },
    {
      "midi": 36,
      "time": 405.5,
      "duration": 0.5,
      "velocity": 0.71,
      "hand": "left"
    },
    {
      "midi": 48,
      "time": 405.5,
      "duration": 0.5,
      "velocity": 0.71,
      "hand": "left"
    },
    {
      "midi": 63,
      "time": 405.5,
      "duration": 0.5,
      "velocity": 0.71,
      "hand": "right"
    },
    {
      "midi": 68,
      "time": 405.5,
      "duration": 0.5,
      "velocity": 0.75,
      "hand": "right"
    },
    {
      "midi": 31,
      "time": 406,
      "duration": 0.25,
      "velocity": 0.71,
      "hand": "left"
    },
    {
      "midi": 43,
      "time": 406,
      "duration": 0.25,
      "velocity": 0.71,
      "hand": "left"
    },
    {
      "midi": 63,
      "time": 406,
      "duration": 0.25,
      "velocity": 0.71,
      "hand": "right"
    },
    {
      "midi": 65,
      "time": 406,
      "duration": 0.25,
      "velocity": 0.71,
      "hand": "right"
    },
    {
      "midi": 70,
      "time": 406,
      "duration": 0.25,
      "velocity": 0.75,
      "hand": "right"
    },
    {
      "midi": 32,
      "time": 406.25,
      "duration": 0.25,
      "velocity": 0.71,
      "hand": "left"
    },
    {
      "midi": 44,
      "time": 406.25,
      "duration": 0.25,
      "velocity": 0.71,
      "hand": "left"
    },
    {
      "midi": 63,
      "time": 406.25,
      "duration": 0.25,
      "velocity": 0.71,
      "hand": "right"
    },
    {
      "midi": 68,
      "time": 406.25,
      "duration": 0.25,
      "velocity": 0.75,
      "hand": "right"
    },
    {
      "midi": 72,
      "time": 406.25,
      "duration": 0.25,
      "velocity": 0.75,
      "hand": "right"
    },
    {
      "midi": 34,
      "time": 406.5,
      "duration": 0.5,
      "velocity": 0.71,
      "hand": "left"
    },
    {
      "midi": 46,
      "time": 406.5,
      "duration": 0.5,
      "velocity": 0.71,
      "hand": "left"
    },
    {
      "midi": 63,
      "time": 406.5,
      "duration": 0.5,
      "velocity": 0.75,
      "hand": "right"
    },
    {
      "midi": 67,
      "time": 406.5,
      "duration": 0.5,
      "velocity": 0.75,
      "hand": "right"
    },
    {
      "midi": 34,
      "time": 407,
      "duration": 0.5,
      "velocity": 0.71,
      "hand": "left"
    },
    {
      "midi": 46,
      "time": 407,
      "duration": 0.5,
      "velocity": 0.71,
      "hand": "left"
    },
    {
      "midi": 67,
      "time": 407,
      "duration": 0.5,
      "velocity": 0.75,
      "hand": "right"
    },
    {
      "midi": 75,
      "time": 407,
      "duration": 0.5,
      "velocity": 0.75,
      "hand": "right"
    },
    {
      "midi": 34,
      "time": 407.5,
      "duration": 0.5,
      "velocity": 0.71,
      "hand": "left"
    },
    {
      "midi": 46,
      "time": 407.5,
      "duration": 0.5,
      "velocity": 0.71,
      "hand": "left"
    },
    {
      "midi": 63,
      "time": 407.5,
      "duration": 0.5,
      "velocity": 0.71,
      "hand": "right"
    },
    {
      "midi": 67,
      "time": 407.5,
      "duration": 0.5,
      "velocity": 0.75,
      "hand": "right"
    },
    {
      "midi": 39,
      "time": 408,
      "duration": 0.25,
      "velocity": 0.71,
      "hand": "left"
    },
    {
      "midi": 51,
      "time": 408,
      "duration": 0.25,
      "velocity": 0.71,
      "hand": "left"
    },
    {
      "midi": 60,
      "time": 408,
      "duration": 0.25,
      "velocity": 0.71,
      "hand": "right"
    },
    {
      "midi": 62,
      "time": 408,
      "duration": 0.25,
      "velocity": 0.71,
      "hand": "right"
    },
    {
      "midi": 67,
      "time": 408,
      "duration": 0.25,
      "velocity": 0.75,
      "hand": "right"
    },
    {
      "midi": 38,
      "time": 408.25,
      "duration": 0.25,
      "velocity": 0.71,
      "hand": "left"
    },
    {
      "midi": 50,
      "time": 408.25,
      "duration": 0.25,
      "velocity": 0.71,
      "hand": "left"
    },
    {
      "midi": 58,
      "time": 408.25,
      "duration": 0.25,
      "velocity": 0.71,
      "hand": "left"
    },
    {
      "midi": 67,
      "time": 408.25,
      "duration": 0.25,
      "velocity": 0.75,
      "hand": "right"
    },
    {
      "midi": 36,
      "time": 408.5,
      "duration": 0.5,
      "velocity": 0.71,
      "hand": "left"
    },
    {
      "midi": 48,
      "time": 408.5,
      "duration": 0.5,
      "velocity": 0.71,
      "hand": "left"
    },
    {
      "midi": 63,
      "time": 408.5,
      "duration": 0.5,
      "velocity": 0.75,
      "hand": "right"
    },
    {
      "midi": 68,
      "time": 408.5,
      "duration": 0.5,
      "velocity": 0.75,
      "hand": "right"
    },
    {
      "midi": 36,
      "time": 409,
      "duration": 0.5,
      "velocity": 0.71,
      "hand": "left"
    },
    {
      "midi": 48,
      "time": 409,
      "duration": 0.5,
      "velocity": 0.71,
      "hand": "left"
    },
    {
      "midi": 63,
      "time": 409,
      "duration": 0.5,
      "velocity": 0.75,
      "hand": "right"
    },
    {
      "midi": 68,
      "time": 409,
      "duration": 0.5,
      "velocity": 0.75,
      "hand": "right"
    },
    {
      "midi": 75,
      "time": 409,
      "duration": 0.5,
      "velocity": 0.75,
      "hand": "right"
    },
    {
      "midi": 36,
      "time": 409.5,
      "duration": 0.5,
      "velocity": 0.71,
      "hand": "left"
    },
    {
      "midi": 48,
      "time": 409.5,
      "duration": 0.5,
      "velocity": 0.71,
      "hand": "left"
    },
    {
      "midi": 63,
      "time": 409.5,
      "duration": 0.5,
      "velocity": 0.71,
      "hand": "right"
    },
    {
      "midi": 68,
      "time": 409.5,
      "duration": 0.5,
      "velocity": 0.75,
      "hand": "right"
    },
    {
      "midi": 31,
      "time": 410,
      "duration": 0.25,
      "velocity": 0.71,
      "hand": "left"
    },
    {
      "midi": 43,
      "time": 410,
      "duration": 0.25,
      "velocity": 0.71,
      "hand": "left"
    },
    {
      "midi": 63,
      "time": 410,
      "duration": 0.25,
      "velocity": 0.71,
      "hand": "right"
    },
    {
      "midi": 65,
      "time": 410,
      "duration": 0.25,
      "velocity": 0.71,
      "hand": "right"
    },
    {
      "midi": 70,
      "time": 410,
      "duration": 0.25,
      "velocity": 0.75,
      "hand": "right"
    },
    {
      "midi": 32,
      "time": 410.25,
      "duration": 0.25,
      "velocity": 0.71,
      "hand": "left"
    },
    {
      "midi": 44,
      "time": 410.25,
      "duration": 0.25,
      "velocity": 0.71,
      "hand": "left"
    },
    {
      "midi": 63,
      "time": 410.25,
      "duration": 0.25,
      "velocity": 0.71,
      "hand": "right"
    },
    {
      "midi": 68,
      "time": 410.25,
      "duration": 0.25,
      "velocity": 0.75,
      "hand": "right"
    },
    {
      "midi": 72,
      "time": 410.25,
      "duration": 0.25,
      "velocity": 0.75,
      "hand": "right"
    },
    {
      "midi": 34,
      "time": 410.5,
      "duration": 0.5,
      "velocity": 0.71,
      "hand": "left"
    },
    {
      "midi": 46,
      "time": 410.5,
      "duration": 0.5,
      "velocity": 0.71,
      "hand": "left"
    },
    {
      "midi": 63,
      "time": 410.5,
      "duration": 0.5,
      "velocity": 0.75,
      "hand": "right"
    },
    {
      "midi": 67,
      "time": 410.5,
      "duration": 0.5,
      "velocity": 0.75,
      "hand": "right"
    },
    {
      "midi": 34,
      "time": 411,
      "duration": 0.5,
      "velocity": 0.71,
      "hand": "left"
    },
    {
      "midi": 46,
      "time": 411,
      "duration": 0.5,
      "velocity": 0.71,
      "hand": "left"
    },
    {
      "midi": 67,
      "time": 411,
      "duration": 0.5,
      "velocity": 0.75,
      "hand": "right"
    },
    {
      "midi": 75,
      "time": 411,
      "duration": 0.5,
      "velocity": 0.75,
      "hand": "right"
    },
    {
      "midi": 34,
      "time": 411.5,
      "duration": 0.5,
      "velocity": 0.71,
      "hand": "left"
    },
    {
      "midi": 46,
      "time": 411.5,
      "duration": 0.5,
      "velocity": 0.71,
      "hand": "left"
    },
    {
      "midi": 63,
      "time": 411.5,
      "duration": 0.5,
      "velocity": 0.71,
      "hand": "right"
    },
    {
      "midi": 67,
      "time": 411.5,
      "duration": 0.5,
      "velocity": 0.75,
      "hand": "right"
    },
    {
      "midi": 39,
      "time": 412,
      "duration": 0.25,
      "velocity": 0.71,
      "hand": "left"
    },
    {
      "midi": 51,
      "time": 412,
      "duration": 0.25,
      "velocity": 0.71,
      "hand": "left"
    },
    {
      "midi": 60,
      "time": 412,
      "duration": 0.25,
      "velocity": 0.71,
      "hand": "right"
    },
    {
      "midi": 62,
      "time": 412,
      "duration": 0.25,
      "velocity": 0.71,
      "hand": "right"
    },
    {
      "midi": 67,
      "time": 412,
      "duration": 0.25,
      "velocity": 0.75,
      "hand": "right"
    },
    {
      "midi": 39,
      "time": 412.25,
      "duration": 0.25,
      "velocity": 0.71,
      "hand": "left"
    },
    {
      "midi": 51,
      "time": 412.25,
      "duration": 0.25,
      "velocity": 0.71,
      "hand": "left"
    },
    {
      "midi": 58,
      "time": 412.25,
      "duration": 0.25,
      "velocity": 0.71,
      "hand": "left"
    },
    {
      "midi": 67,
      "time": 412.25,
      "duration": 0.25,
      "velocity": 0.75,
      "hand": "right"
    },
    {
      "midi": 38,
      "time": 412.5,
      "duration": 0.125,
      "velocity": 0.71,
      "hand": "left"
    },
    {
      "midi": 50,
      "time": 412.5,
      "duration": 2,
      "velocity": 0.71,
      "hand": "left"
    },
    {
      "midi": 58,
      "time": 412.5,
      "duration": 0.25,
      "velocity": 0.8,
      "hand": "left"
    },
    {
      "midi": 62,
      "time": 412.75,
      "duration": 0.25,
      "velocity": 0.8,
      "hand": "right"
    },
    {
      "midi": 70,
      "time": 412.75,
      "duration": 0.25,
      "velocity": 0.8,
      "hand": "right"
    },
    {
      "midi": 51,
      "time": 413,
      "duration": 0.5,
      "velocity": 0.71,
      "hand": "left"
    },
    {
      "midi": 60,
      "time": 413,
      "duration": 0.25,
      "velocity": 0.8,
      "hand": "right"
    },
    {
      "midi": 67,
      "time": 413,
      "duration": 0.25,
      "velocity": 0.8,
      "hand": "right"
    },
    {
      "midi": 67,
      "time": 413.25,
      "duration": 0.25,
      "velocity": 0.8,
      "hand": "right"
    },
    {
      "midi": 72,
      "time": 413.25,
      "duration": 0.25,
      "velocity": 0.8,
      "hand": "right"
    },
    {
      "midi": 52,
      "time": 413.5,
      "duration": 0.5,
      "velocity": 0.71,
      "hand": "left"
    },
    {
      "midi": 61,
      "time": 413.5,
      "duration": 0.25,
      "velocity": 0.8,
      "hand": "right"
    },
    {
      "midi": 70,
      "time": 413.5,
      "duration": 0.25,
      "velocity": 0.8,
      "hand": "right"
    },
    {
      "midi": 67,
      "time": 413.75,
      "duration": 0.25,
      "velocity": 0.8,
      "hand": "right"
    },
    {
      "midi": 73,
      "time": 413.75,
      "duration": 0.25,
      "velocity": 0.8,
      "hand": "right"
    },
    {
      "midi": 54,
      "time": 414,
      "duration": 0.25,
      "velocity": 0.71,
      "hand": "left"
    },
    {
      "midi": 55,
      "time": 414,
      "duration": 0.25,
      "velocity": 0.71,
      "hand": "left"
    },
    {
      "midi": 64,
      "time": 414,
      "duration": 0.25,
      "velocity": 0.8,
      "hand": "right"
    },
    {
      "midi": 69,
      "time": 414,
      "duration": 0.25,
      "velocity": 0.8,
      "hand": "right"
    },
    {
      "midi": 74,
      "time": 414,
      "duration": 0.25,
      "velocity": 0.8,
      "hand": "right"
    },
    {
      "midi": 57,
      "time": 414.25,
      "duration": 0.25,
      "velocity": 0.71,
      "hand": "left"
    },
    {
      "midi": 66,
      "time": 414.25,
      "duration": 0.25,
      "velocity": 0.8,
      "hand": "right"
    },
    {
      "midi": 70,
      "time": 414.25,
      "duration": 0.25,
      "velocity": 0.8,
      "hand": "right"
    },
    {
      "midi": 76,
      "time": 414.25,
      "duration": 0.25,
      "velocity": 0.8,
      "hand": "right"
    },
    {
      "midi": 50,
      "time": 414.5,
      "duration": 1,
      "velocity": 0.71,
      "hand": "left"
    },
    {
      "midi": 55,
      "time": 414.5,
      "duration": 1,
      "velocity": 0.71,
      "hand": "left"
    },
    {
      "midi": 58,
      "time": 414.5,
      "duration": 0.5,
      "velocity": 0.71,
      "hand": "left"
    },
    {
      "midi": 67,
      "time": 414.5,
      "duration": 0.25,
      "velocity": 0.8,
      "hand": "right"
    },
    {
      "midi": 72,
      "time": 414.5,
      "duration": 0.25,
      "velocity": 0.8,
      "hand": "right"
    },
    {
      "midi": 78,
      "time": 414.5,
      "duration": 0.25,
      "velocity": 0.8,
      "hand": "right"
    },
    {
      "midi": 70,
      "time": 414.75,
      "duration": 0.25,
      "velocity": 0.8,
      "hand": "right"
    },
    {
      "midi": 79,
      "time": 414.75,
      "duration": 0.25,
      "velocity": 0.8,
      "hand": "right"
    },
    {
      "midi": 60,
      "time": 415,
      "duration": 0.5,
      "velocity": 0.71,
      "hand": "right"
    },
    {
      "midi": 69,
      "time": 415,
      "duration": 0.25,
      "velocity": 0.8,
      "hand": "right"
    },
    {
      "midi": 74,
      "time": 415,
      "duration": 0.25,
      "velocity": 0.8,
      "hand": "right"
    },
    {
      "midi": 75,
      "time": 415.25,
      "duration": 0.25,
      "velocity": 0.8,
      "hand": "right"
    },
    {
      "midi": 81,
      "time": 415.25,
      "duration": 0.25,
      "velocity": 0.8,
      "hand": "right"
    },
    {
      "midi": 62,
      "time": 415.5,
      "duration": 0.5,
      "velocity": 0.71,
      "hand": "right"
    },
    {
      "midi": 70,
      "time": 415.5,
      "duration": 0.25,
      "velocity": 0.8,
      "hand": "right"
    },
    {
      "midi": 79,
      "time": 415.5,
      "duration": 0.25,
      "velocity": 0.8,
      "hand": "right"
    },
    {
      "midi": 74,
      "time": 415.75,
      "duration": 0.25,
      "velocity": 0.8,
      "hand": "right"
    },
    {
      "midi": 82,
      "time": 415.75,
      "duration": 0.25,
      "velocity": 0.8,
      "hand": "right"
    },
    {
      "midi": 64,
      "time": 416,
      "duration": 0.25,
      "velocity": 0.71,
      "hand": "right"
    },
    {
      "midi": 66,
      "time": 416,
      "duration": 0.25,
      "velocity": 0.71,
      "hand": "right"
    },
    {
      "midi": 74,
      "time": 416,
      "duration": 0.25,
      "velocity": 0.8,
      "hand": "right"
    },
    {
      "midi": 79,
      "time": 416,
      "duration": 0.25,
      "velocity": 0.8,
      "hand": "right"
    },
    {
      "midi": 67,
      "time": 416.25,
      "duration": 0.25,
      "velocity": 0.71,
      "hand": "right"
    },
    {
      "midi": 75,
      "time": 416.25,
      "duration": 0.25,
      "velocity": 0.8,
      "hand": "right"
    },
    {
      "midi": 82,
      "time": 416.25,
      "duration": 0.25,
      "velocity": 0.8,
      "hand": "right"
    },
    {
      "midi": 86,
      "time": 416.25,
      "duration": 0.25,
      "velocity": 0.8,
      "hand": "right"
    },
    {
      "midi": 38,
      "time": 416.5,
      "duration": 0.125,
      "velocity": 0.71,
      "hand": "left"
    },
    {
      "midi": 50,
      "time": 416.5,
      "duration": 2,
      "velocity": 0.71,
      "hand": "left"
    },
    {
      "midi": 82,
      "time": 416.5,
      "duration": 0.25,
      "velocity": 0.8,
      "hand": "right"
    },
    {
      "midi": 87,
      "time": 416.5,
      "duration": 0.25,
      "velocity": 0.8,
      "hand": "right"
    },
    {
      "midi": 58,
      "time": 416.75,
      "duration": 0.25,
      "velocity": 0.8,
      "hand": "left"
    },
    {
      "midi": 70,
      "time": 416.75,
      "duration": 0.25,
      "velocity": 0.8,
      "hand": "right"
    },
    {
      "midi": 51,
      "time": 417,
      "duration": 0.5,
      "velocity": 0.71,
      "hand": "left"
    },
    {
      "midi": 60,
      "time": 417,
      "duration": 0.25,
      "velocity": 0.8,
      "hand": "right"
    },
    {
      "midi": 67,
      "time": 417,
      "duration": 0.25,
      "velocity": 0.8,
      "hand": "right"
    },
    {
      "midi": 67,
      "time": 417.25,
      "duration": 0.25,
      "velocity": 0.8,
      "hand": "right"
    },
    {
      "midi": 72,
      "time": 417.25,
      "duration": 0.25,
      "velocity": 0.8,
      "hand": "right"
    },
    {
      "midi": 52,
      "time": 417.5,
      "duration": 0.5,
      "velocity": 0.71,
      "hand": "left"
    },
    {
      "midi": 61,
      "time": 417.5,
      "duration": 0.25,
      "velocity": 0.8,
      "hand": "right"
    },
    {
      "midi": 70,
      "time": 417.5,
      "duration": 0.25,
      "velocity": 0.8,
      "hand": "right"
    },
    {
      "midi": 67,
      "time": 417.75,
      "duration": 0.25,
      "velocity": 0.8,
      "hand": "right"
    },
    {
      "midi": 73,
      "time": 417.75,
      "duration": 0.25,
      "velocity": 0.8,
      "hand": "right"
    },
    {
      "midi": 54,
      "time": 418,
      "duration": 0.25,
      "velocity": 0.71,
      "hand": "left"
    },
    {
      "midi": 55,
      "time": 418,
      "duration": 0.25,
      "velocity": 0.71,
      "hand": "left"
    },
    {
      "midi": 64,
      "time": 418,
      "duration": 0.25,
      "velocity": 0.8,
      "hand": "right"
    },
    {
      "midi": 69,
      "time": 418,
      "duration": 0.25,
      "velocity": 0.8,
      "hand": "right"
    },
    {
      "midi": 74,
      "time": 418,
      "duration": 0.25,
      "velocity": 0.8,
      "hand": "right"
    },
    {
      "midi": 57,
      "time": 418.25,
      "duration": 0.25,
      "velocity": 0.71,
      "hand": "left"
    },
    {
      "midi": 66,
      "time": 418.25,
      "duration": 0.25,
      "velocity": 0.8,
      "hand": "right"
    },
    {
      "midi": 70,
      "time": 418.25,
      "duration": 0.25,
      "velocity": 0.8,
      "hand": "right"
    },
    {
      "midi": 76,
      "time": 418.25,
      "duration": 0.25,
      "velocity": 0.8,
      "hand": "right"
    },
    {
      "midi": 50,
      "time": 418.5,
      "duration": 1,
      "velocity": 0.71,
      "hand": "left"
    },
    {
      "midi": 55,
      "time": 418.5,
      "duration": 1,
      "velocity": 0.71,
      "hand": "left"
    },
    {
      "midi": 58,
      "time": 418.5,
      "duration": 0.5,
      "velocity": 0.71,
      "hand": "left"
    },
    {
      "midi": 67,
      "time": 418.5,
      "duration": 0.25,
      "velocity": 0.8,
      "hand": "right"
    },
    {
      "midi": 72,
      "time": 418.5,
      "duration": 0.25,
      "velocity": 0.8,
      "hand": "right"
    },
    {
      "midi": 78,
      "time": 418.5,
      "duration": 0.25,
      "velocity": 0.8,
      "hand": "right"
    },
    {
      "midi": 70,
      "time": 418.75,
      "duration": 0.25,
      "velocity": 0.8,
      "hand": "right"
    },
    {
      "midi": 79,
      "time": 418.75,
      "duration": 0.25,
      "velocity": 0.8,
      "hand": "right"
    },
    {
      "midi": 60,
      "time": 419,
      "duration": 0.5,
      "velocity": 0.71,
      "hand": "right"
    },
    {
      "midi": 69,
      "time": 419,
      "duration": 0.25,
      "velocity": 0.8,
      "hand": "right"
    },
    {
      "midi": 74,
      "time": 419,
      "duration": 0.25,
      "velocity": 0.8,
      "hand": "right"
    },
    {
      "midi": 75,
      "time": 419.25,
      "duration": 0.25,
      "velocity": 0.8,
      "hand": "right"
    },
    {
      "midi": 81,
      "time": 419.25,
      "duration": 0.25,
      "velocity": 0.8,
      "hand": "right"
    },
    {
      "midi": 62,
      "time": 419.5,
      "duration": 0.5,
      "velocity": 0.71,
      "hand": "right"
    },
    {
      "midi": 70,
      "time": 419.5,
      "duration": 0.25,
      "velocity": 0.8,
      "hand": "right"
    },
    {
      "midi": 79,
      "time": 419.5,
      "duration": 0.25,
      "velocity": 0.8,
      "hand": "right"
    },
    {
      "midi": 74,
      "time": 419.75,
      "duration": 0.25,
      "velocity": 0.8,
      "hand": "right"
    },
    {
      "midi": 82,
      "time": 419.75,
      "duration": 0.25,
      "velocity": 0.8,
      "hand": "right"
    },
    {
      "midi": 64,
      "time": 420,
      "duration": 0.25,
      "velocity": 0.71,
      "hand": "right"
    },
    {
      "midi": 66,
      "time": 420,
      "duration": 0.25,
      "velocity": 0.71,
      "hand": "right"
    },
    {
      "midi": 74,
      "time": 420,
      "duration": 0.25,
      "velocity": 0.8,
      "hand": "right"
    },
    {
      "midi": 79,
      "time": 420,
      "duration": 0.25,
      "velocity": 0.8,
      "hand": "right"
    },
    {
      "midi": 67,
      "time": 420.25,
      "duration": 0.25,
      "velocity": 0.71,
      "hand": "right"
    },
    {
      "midi": 75,
      "time": 420.25,
      "duration": 0.25,
      "velocity": 0.8,
      "hand": "right"
    },
    {
      "midi": 82,
      "time": 420.25,
      "duration": 0.25,
      "velocity": 0.8,
      "hand": "right"
    },
    {
      "midi": 86,
      "time": 420.25,
      "duration": 0.25,
      "velocity": 0.8,
      "hand": "right"
    },
    {
      "midi": 53,
      "time": 420.5,
      "duration": 0.5,
      "velocity": 0.84,
      "hand": "left"
    },
    {
      "midi": 55,
      "time": 420.5,
      "duration": 1,
      "velocity": 0.71,
      "hand": "left"
    },
    {
      "midi": 65,
      "time": 420.5,
      "duration": 0.5,
      "velocity": 0.84,
      "hand": "right"
    },
    {
      "midi": 82,
      "time": 420.5,
      "duration": 0.25,
      "velocity": 0.8,
      "hand": "right"
    },
    {
      "midi": 87,
      "time": 420.5,
      "duration": 0.25,
      "velocity": 0.8,
      "hand": "right"
    },
    {
      "midi": 71,
      "time": 420.75,
      "duration": 0.25,
      "velocity": 0.8,
      "hand": "right"
    },
    {
      "midi": 79,
      "time": 420.75,
      "duration": 0.25,
      "velocity": 0.8,
      "hand": "right"
    },
    {
      "midi": 51,
      "time": 421,
      "duration": 0.5,
      "velocity": 0.84,
      "hand": "left"
    },
    {
      "midi": 63,
      "time": 421,
      "duration": 0.5,
      "velocity": 0.84,
      "hand": "right"
    },
    {
      "midi": 69,
      "time": 421,
      "duration": 0.5,
      "velocity": 0.8,
      "hand": "right"
    },
    {
      "midi": 74,
      "time": 421,
      "duration": 0.25,
      "velocity": 0.8,
      "hand": "right"
    },
    {
      "midi": 72,
      "time": 421.25,
      "duration": 0.25,
      "velocity": 0.8,
      "hand": "right"
    },
    {
      "midi": 81,
      "time": 421.25,
      "duration": 0.25,
      "velocity": 0.8,
      "hand": "right"
    },
    {
      "midi": 50,
      "time": 421.5,
      "duration": 0.5,
      "velocity": 0.84,
      "hand": "left"
    },
    {
      "midi": 55,
      "time": 421.5,
      "duration": 0.5,
      "velocity": 0.84,
      "hand": "left"
    },
    {
      "midi": 62,
      "time": 421.5,
      "duration": 0.5,
      "velocity": 0.84,
      "hand": "right"
    },
    {
      "midi": 71,
      "time": 421.5,
      "duration": 0.5,
      "velocity": 0.8,
      "hand": "right"
    },
    {
      "midi": 75,
      "time": 421.5,
      "duration": 0.25,
      "velocity": 0.8,
      "hand": "right"
    },
    {
      "midi": 77,
      "time": 421.75,
      "duration": 0.25,
      "velocity": 0.8,
      "hand": "right"
    },
    {
      "midi": 83,
      "time": 421.75,
      "duration": 0.25,
      "velocity": 0.8,
      "hand": "right"
    },
    {
      "midi": 48,
      "time": 422,
      "duration": 0.25,
      "velocity": 0.84,
      "hand": "left"
    },
    {
      "midi": 49,
      "time": 422,
      "duration": 0.25,
      "velocity": 0.84,
      "hand": "left"
    },
    {
      "midi": 60,
      "time": 422,
      "duration": 0.25,
      "velocity": 0.84,
      "hand": "right"
    },
    {
      "midi": 61,
      "time": 422,
      "duration": 0.25,
      "velocity": 0.84,
      "hand": "right"
    },
    {
      "midi": 72,
      "time": 422,
      "duration": 0.25,
      "velocity": 0.8,
      "hand": "right"
    },
    {
      "midi": 79,
      "time": 422,
      "duration": 0.25,
      "velocity": 0.8,
      "hand": "right"
    },
    {
      "midi": 47,
      "time": 422.25,
      "duration": 0.25,
      "velocity": 0.84,
      "hand": "left"
    },
    {
      "midi": 59,
      "time": 422.25,
      "duration": 0.25,
      "velocity": 0.84,
      "hand": "left"
    },
    {
      "midi": 74,
      "time": 422.25,
      "duration": 0.25,
      "velocity": 0.8,
      "hand": "right"
    },
    {
      "midi": 75,
      "time": 422.25,
      "duration": 0.25,
      "velocity": 0.8,
      "hand": "right"
    },
    {
      "midi": 79,
      "time": 422.25,
      "duration": 0.25,
      "velocity": 0.8,
      "hand": "right"
    },
    {
      "midi": 84,
      "time": 422.25,
      "duration": 0.25,
      "velocity": 0.8,
      "hand": "right"
    },
    {
      "midi": 45,
      "time": 422.5,
      "duration": 0.5,
      "velocity": 0.84,
      "hand": "left"
    },
    {
      "midi": 48,
      "time": 422.5,
      "duration": 1,
      "velocity": 0.71,
      "hand": "left"
    },
    {
      "midi": 57,
      "time": 422.5,
      "duration": 0.5,
      "velocity": 0.84,
      "hand": "left"
    },
    {
      "midi": 75,
      "time": 422.5,
      "duration": 0.5,
      "velocity": 0.8,
      "hand": "right"
    },
    {
      "midi": 79,
      "time": 422.5,
      "duration": 0.25,
      "velocity": 0.8,
      "hand": "right"
    },
    {
      "midi": 86,
      "time": 422.5,
      "duration": 0.25,
      "velocity": 0.8,
      "hand": "right"
    },
    {
      "midi": 79,
      "time": 422.75,
      "duration": 0.25,
      "velocity": 0.8,
      "hand": "right"
    },
    {
      "midi": 87,
      "time": 422.75,
      "duration": 0.25,
      "velocity": 0.8,
      "hand": "right"
    },
    {
      "midi": 44,
      "time": 423,
      "duration": 0.5,
      "velocity": 0.84,
      "hand": "left"
    },
    {
      "midi": 56,
      "time": 423,
      "duration": 0.5,
      "velocity": 0.84,
      "hand": "left"
    },
    {
      "midi": 77,
      "time": 423,
      "duration": 0.5,
      "velocity": 0.71,
      "hand": "right"
    },
    {
      "midi": 84,
      "time": 423,
      "duration": 0.25,
      "velocity": 0.8,
      "hand": "right"
    },
    {
      "midi": 80,
      "time": 423.25,
      "duration": 0.25,
      "velocity": 0.8,
      "hand": "right"
    },
    {
      "midi": 89,
      "time": 423.25,
      "duration": 0.25,
      "velocity": 0.8,
      "hand": "right"
    },
    {
      "midi": 43,
      "time": 423.5,
      "duration": 0.5,
      "velocity": 0.84,
      "hand": "left"
    },
    {
      "midi": 48,
      "time": 423.5,
      "duration": 0.5,
      "velocity": 0.84,
      "hand": "left"
    },
    {
      "midi": 55,
      "time": 423.5,
      "duration": 0.5,
      "velocity": 0.84,
      "hand": "left"
    },
    {
      "midi": 79,
      "time": 423.5,
      "duration": 0.5,
      "velocity": 0.8,
      "hand": "right"
    },
    {
      "midi": 84,
      "time": 423.5,
      "duration": 0.25,
      "velocity": 0.8,
      "hand": "right"
    },
    {
      "midi": 84,
      "time": 423.75,
      "duration": 0.25,
      "velocity": 0.8,
      "hand": "right"
    },
    {
      "midi": 91,
      "time": 423.75,
      "duration": 0.25,
      "velocity": 0.8,
      "hand": "right"
    },
    {
      "midi": 41,
      "time": 424,
      "duration": 0.25,
      "velocity": 0.84,
      "hand": "left"
    },
    {
      "midi": 42,
      "time": 424,
      "duration": 0.25,
      "velocity": 0.84,
      "hand": "left"
    },
    {
      "midi": 53,
      "time": 424,
      "duration": 0.25,
      "velocity": 0.84,
      "hand": "left"
    },
    {
      "midi": 54,
      "time": 424,
      "duration": 0.25,
      "velocity": 0.84,
      "hand": "left"
    },
    {
      "midi": 80,
      "time": 424,
      "duration": 0.25,
      "velocity": 0.8,
      "hand": "right"
    },
    {
      "midi": 87,
      "time": 424,
      "duration": 0.25,
      "velocity": 0.8,
      "hand": "right"
    },
    {
      "midi": 39,
      "time": 424.25,
      "duration": 0.25,
      "velocity": 0.84,
      "hand": "left"
    },
    {
      "midi": 51,
      "time": 424.25,
      "duration": 0.25,
      "velocity": 0.84,
      "hand": "left"
    },
    {
      "midi": 79,
      "time": 424.25,
      "duration": 0.25,
      "velocity": 0.8,
      "hand": "right"
    },
    {
      "midi": 84,
      "time": 424.25,
      "duration": 0.25,
      "velocity": 0.8,
      "hand": "right"
    },
    {
      "midi": 92,
      "time": 424.25,
      "duration": 0.25,
      "velocity": 0.8,
      "hand": "right"
    },
    {
      "midi": 53,
      "time": 424.5,
      "duration": 0.5,
      "velocity": 0.84,
      "hand": "left"
    },
    {
      "midi": 55,
      "time": 424.5,
      "duration": 1,
      "velocity": 0.71,
      "hand": "left"
    },
    {
      "midi": 65,
      "time": 424.5,
      "duration": 0.5,
      "velocity": 0.84,
      "hand": "right"
    },
    {
      "midi": 84,
      "time": 424.5,
      "duration": 0.25,
      "velocity": 0.8,
      "hand": "right"
    },
    {
      "midi": 91,
      "time": 424.5,
      "duration": 0.25,
      "velocity": 0.8,
      "hand": "right"
    },
    {
      "midi": 71,
      "time": 424.75,
      "duration": 0.25,
      "velocity": 0.8,
      "hand": "right"
    },
    {
      "midi": 79,
      "time": 424.75,
      "duration": 0.25,
      "velocity": 0.8,
      "hand": "right"
    },
    {
      "midi": 51,
      "time": 425,
      "duration": 0.5,
      "velocity": 0.84,
      "hand": "left"
    },
    {
      "midi": 63,
      "time": 425,
      "duration": 0.5,
      "velocity": 0.84,
      "hand": "right"
    },
    {
      "midi": 69,
      "time": 425,
      "duration": 0.5,
      "velocity": 0.8,
      "hand": "right"
    },
    {
      "midi": 74,
      "time": 425,
      "duration": 0.25,
      "velocity": 0.8,
      "hand": "right"
    },
    {
      "midi": 72,
      "time": 425.25,
      "duration": 0.25,
      "velocity": 0.8,
      "hand": "right"
    },
    {
      "midi": 81,
      "time": 425.25,
      "duration": 0.25,
      "velocity": 0.8,
      "hand": "right"
    },
    {
      "midi": 50,
      "time": 425.5,
      "duration": 0.5,
      "velocity": 0.84,
      "hand": "left"
    },
    {
      "midi": 55,
      "time": 425.5,
      "duration": 0.5,
      "velocity": 0.84,
      "hand": "left"
    },
    {
      "midi": 62,
      "time": 425.5,
      "duration": 0.5,
      "velocity": 0.84,
      "hand": "right"
    },
    {
      "midi": 71,
      "time": 425.5,
      "duration": 0.5,
      "velocity": 0.8,
      "hand": "right"
    },
    {
      "midi": 75,
      "time": 425.5,
      "duration": 0.25,
      "velocity": 0.8,
      "hand": "right"
    },
    {
      "midi": 77,
      "time": 425.75,
      "duration": 0.25,
      "velocity": 0.8,
      "hand": "right"
    },
    {
      "midi": 83,
      "time": 425.75,
      "duration": 0.25,
      "velocity": 0.8,
      "hand": "right"
    },
    {
      "midi": 48,
      "time": 426,
      "duration": 0.25,
      "velocity": 0.84,
      "hand": "left"
    },
    {
      "midi": 49,
      "time": 426,
      "duration": 0.25,
      "velocity": 0.84,
      "hand": "left"
    },
    {
      "midi": 60,
      "time": 426,
      "duration": 0.25,
      "velocity": 0.84,
      "hand": "right"
    },
    {
      "midi": 61,
      "time": 426,
      "duration": 0.25,
      "velocity": 0.84,
      "hand": "right"
    },
    {
      "midi": 72,
      "time": 426,
      "duration": 0.25,
      "velocity": 0.8,
      "hand": "right"
    },
    {
      "midi": 79,
      "time": 426,
      "duration": 0.25,
      "velocity": 0.8,
      "hand": "right"
    },
    {
      "midi": 47,
      "time": 426.25,
      "duration": 0.25,
      "velocity": 0.84,
      "hand": "left"
    },
    {
      "midi": 59,
      "time": 426.25,
      "duration": 0.25,
      "velocity": 0.84,
      "hand": "left"
    },
    {
      "midi": 74,
      "time": 426.25,
      "duration": 0.25,
      "velocity": 0.8,
      "hand": "right"
    },
    {
      "midi": 75,
      "time": 426.25,
      "duration": 0.25,
      "velocity": 0.8,
      "hand": "right"
    },
    {
      "midi": 79,
      "time": 426.25,
      "duration": 0.25,
      "velocity": 0.8,
      "hand": "right"
    },
    {
      "midi": 84,
      "time": 426.25,
      "duration": 0.25,
      "velocity": 0.8,
      "hand": "right"
    },
    {
      "midi": 45,
      "time": 426.5,
      "duration": 0.5,
      "velocity": 0.84,
      "hand": "left"
    },
    {
      "midi": 48,
      "time": 426.5,
      "duration": 1,
      "velocity": 0.71,
      "hand": "left"
    },
    {
      "midi": 57,
      "time": 426.5,
      "duration": 0.5,
      "velocity": 0.84,
      "hand": "left"
    },
    {
      "midi": 75,
      "time": 426.5,
      "duration": 0.5,
      "velocity": 0.8,
      "hand": "right"
    },
    {
      "midi": 79,
      "time": 426.5,
      "duration": 0.25,
      "velocity": 0.8,
      "hand": "right"
    },
    {
      "midi": 86,
      "time": 426.5,
      "duration": 0.25,
      "velocity": 0.8,
      "hand": "right"
    },
    {
      "midi": 79,
      "time": 426.75,
      "duration": 0.25,
      "velocity": 0.8,
      "hand": "right"
    },
    {
      "midi": 87,
      "time": 426.75,
      "duration": 0.25,
      "velocity": 0.8,
      "hand": "right"
    },
    {
      "midi": 44,
      "time": 427,
      "duration": 0.5,
      "velocity": 0.84,
      "hand": "left"
    },
    {
      "midi": 56,
      "time": 427,
      "duration": 0.5,
      "velocity": 0.84,
      "hand": "left"
    },
    {
      "midi": 77,
      "time": 427,
      "duration": 0.5,
      "velocity": 0.71,
      "hand": "right"
    },
    {
      "midi": 84,
      "time": 427,
      "duration": 0.25,
      "velocity": 0.8,
      "hand": "right"
    },
    {
      "midi": 80,
      "time": 427.25,
      "duration": 0.25,
      "velocity": 0.8,
      "hand": "right"
    },
    {
      "midi": 89,
      "time": 427.25,
      "duration": 0.25,
      "velocity": 0.8,
      "hand": "right"
    },
    {
      "midi": 43,
      "time": 427.5,
      "duration": 0.5,
      "velocity": 0.84,
      "hand": "left"
    },
    {
      "midi": 48,
      "time": 427.5,
      "duration": 0.5,
      "velocity": 0.84,
      "hand": "left"
    },
    {
      "midi": 55,
      "time": 427.5,
      "duration": 0.5,
      "velocity": 0.84,
      "hand": "left"
    },
    {
      "midi": 79,
      "time": 427.5,
      "duration": 0.5,
      "velocity": 0.8,
      "hand": "right"
    },
    {
      "midi": 84,
      "time": 427.5,
      "duration": 0.25,
      "velocity": 0.8,
      "hand": "right"
    },
    {
      "midi": 84,
      "time": 427.75,
      "duration": 0.25,
      "velocity": 0.8,
      "hand": "right"
    },
    {
      "midi": 91,
      "time": 427.75,
      "duration": 0.25,
      "velocity": 0.8,
      "hand": "right"
    },
    {
      "midi": 41,
      "time": 428,
      "duration": 0.25,
      "velocity": 0.84,
      "hand": "left"
    },
    {
      "midi": 42,
      "time": 428,
      "duration": 0.25,
      "velocity": 0.84,
      "hand": "left"
    },
    {
      "midi": 53,
      "time": 428,
      "duration": 0.25,
      "velocity": 0.84,
      "hand": "left"
    },
    {
      "midi": 54,
      "time": 428,
      "duration": 0.25,
      "velocity": 0.84,
      "hand": "left"
    },
    {
      "midi": 80,
      "time": 428,
      "duration": 0.25,
      "velocity": 0.8,
      "hand": "right"
    },
    {
      "midi": 87,
      "time": 428,
      "duration": 0.25,
      "velocity": 0.8,
      "hand": "right"
    },
    {
      "midi": 39,
      "time": 428.25,
      "duration": 0.25,
      "velocity": 0.84,
      "hand": "left"
    },
    {
      "midi": 51,
      "time": 428.25,
      "duration": 0.25,
      "velocity": 0.84,
      "hand": "left"
    },
    {
      "midi": 79,
      "time": 428.25,
      "duration": 0.25,
      "velocity": 0.8,
      "hand": "right"
    },
    {
      "midi": 84,
      "time": 428.25,
      "duration": 0.25,
      "velocity": 0.8,
      "hand": "right"
    },
    {
      "midi": 92,
      "time": 428.25,
      "duration": 0.25,
      "velocity": 0.8,
      "hand": "right"
    },
    {
      "midi": 80,
      "time": 428.5,
      "duration": 0.5,
      "velocity": 0.8,
      "hand": "right"
    },
    {
      "midi": 84,
      "time": 428.5,
      "duration": 0.25,
      "velocity": 0.8,
      "hand": "right"
    },
    {
      "midi": 84,
      "time": 428.5,
      "duration": 0.5,
      "velocity": 0.8,
      "hand": "right"
    },
    {
      "midi": 87,
      "time": 428.5,
      "duration": 0.5,
      "velocity": 0.8,
      "hand": "right"
    },
    {
      "midi": 91,
      "time": 428.5,
      "duration": 0.25,
      "velocity": 0.8,
      "hand": "right"
    },
    {
      "midi": 92,
      "time": 428.5,
      "duration": 0.5,
      "velocity": 0.8,
      "hand": "right"
    },
    {
      "midi": 39,
      "time": 428.75,
      "duration": 0.25,
      "velocity": 0.71,
      "hand": "left"
    },
    {
      "midi": 48,
      "time": 428.75,
      "duration": 0.25,
      "velocity": 0.71,
      "hand": "left"
    },
    {
      "midi": 44,
      "time": 429,
      "duration": 0.25,
      "velocity": 0.71,
      "hand": "left"
    },
    {
      "midi": 51,
      "time": 429,
      "duration": 0.25,
      "velocity": 0.71,
      "hand": "left"
    },
    {
      "midi": 79,
      "time": 429,
      "duration": 0.5,
      "velocity": 0.8,
      "hand": "right"
    },
    {
      "midi": 84,
      "time": 429,
      "duration": 0.5,
      "velocity": 0.8,
      "hand": "right"
    },
    {
      "midi": 87,
      "time": 429,
      "duration": 0.5,
      "velocity": 0.8,
      "hand": "right"
    },
    {
      "midi": 91,
      "time": 429,
      "duration": 0.5,
      "velocity": 0.8,
      "hand": "right"
    },
    {
      "midi": 44,
      "time": 429.25,
      "duration": 0.25,
      "velocity": 0.71,
      "hand": "left"
    },
    {
      "midi": 48,
      "time": 429.25,
      "duration": 0.25,
      "velocity": 0.71,
      "hand": "left"
    },
    {
      "midi": 39,
      "time": 429.5,
      "duration": 0.25,
      "velocity": 0.71,
      "hand": "left"
    },
    {
      "midi": 77,
      "time": 429.5,
      "duration": 0.5,
      "velocity": 0.8,
      "hand": "right"
    },
    {
      "midi": 80,
      "time": 429.5,
      "duration": 0.5,
      "velocity": 0.8,
      "hand": "right"
    },
    {
      "midi": 84,
      "time": 429.5,
      "duration": 0.5,
      "velocity": 0.8,
      "hand": "right"
    },
    {
      "midi": 89,
      "time": 429.5,
      "duration": 0.5,
      "velocity": 0.8,
      "hand": "right"
    },
    {
      "midi": 44,
      "time": 429.75,
      "duration": 0.25,
      "velocity": 0.71,
      "hand": "left"
    },
    {
      "midi": 51,
      "time": 429.75,
      "duration": 0.25,
      "velocity": 0.71,
      "hand": "left"
    },
    {
      "midi": 48,
      "time": 430,
      "duration": 0.25,
      "velocity": 0.71,
      "hand": "left"
    },
    {
      "midi": 56,
      "time": 430,
      "duration": 0.25,
      "velocity": 0.71,
      "hand": "left"
    },
    {
      "midi": 73,
      "time": 430,
      "duration": 0.25,
      "velocity": 0.8,
      "hand": "right"
    },
    {
      "midi": 75,
      "time": 430,
      "duration": 0.25,
      "velocity": 0.8,
      "hand": "right"
    },
    {
      "midi": 85,
      "time": 430,
      "duration": 0.25,
      "velocity": 0.8,
      "hand": "right"
    },
    {
      "midi": 87,
      "time": 430,
      "duration": 0.25,
      "velocity": 0.8,
      "hand": "right"
    },
    {
      "midi": 48,
      "time": 430.25,
      "duration": 0.25,
      "velocity": 0.71,
      "hand": "left"
    },
    {
      "midi": 51,
      "time": 430.25,
      "duration": 0.25,
      "velocity": 0.71,
      "hand": "left"
    },
    {
      "midi": 72,
      "time": 430.25,
      "duration": 0.25,
      "velocity": 0.8,
      "hand": "right"
    },
    {
      "midi": 84,
      "time": 430.25,
      "duration": 0.25,
      "velocity": 0.8,
      "hand": "right"
    },
    {
      "midi": 44,
      "time": 430.5,
      "duration": 0.25,
      "velocity": 0.71,
      "hand": "left"
    },
    {
      "midi": 77,
      "time": 430.5,
      "duration": 0.5,
      "velocity": 0.8,
      "hand": "right"
    },
    {
      "midi": 80,
      "time": 430.5,
      "duration": 0.5,
      "velocity": 0.8,
      "hand": "right"
    },
    {
      "midi": 84,
      "time": 430.5,
      "duration": 0.5,
      "velocity": 0.8,
      "hand": "right"
    },
    {
      "midi": 89,
      "time": 430.5,
      "duration": 0.5,
      "velocity": 0.8,
      "hand": "right"
    },
    {
      "midi": 48,
      "time": 430.75,
      "duration": 0.25,
      "velocity": 0.71,
      "hand": "left"
    },
    {
      "midi": 56,
      "time": 430.75,
      "duration": 0.25,
      "velocity": 0.71,
      "hand": "left"
    },
    {
      "midi": 51,
      "time": 431,
      "duration": 0.25,
      "velocity": 0.71,
      "hand": "left"
    },
    {
      "midi": 60,
      "time": 431,
      "duration": 0.25,
      "velocity": 0.71,
      "hand": "right"
    },
    {
      "midi": 75,
      "time": 431,
      "duration": 0.5,
      "velocity": 0.8,
      "hand": "right"
    },
    {
      "midi": 80,
      "time": 431,
      "duration": 0.5,
      "velocity": 0.8,
      "hand": "right"
    },
    {
      "midi": 84,
      "time": 431,
      "duration": 0.5,
      "velocity": 0.8,
      "hand": "right"
    },
    {
      "midi": 87,
      "time": 431,
      "duration": 0.5,
      "velocity": 0.8,
      "hand": "right"
    },
    {
      "midi": 51,
      "time": 431.25,
      "duration": 0.25,
      "velocity": 0.71,
      "hand": "left"
    },
    {
      "midi": 56,
      "time": 431.25,
      "duration": 0.25,
      "velocity": 0.71,
      "hand": "left"
    },
    {
      "midi": 48,
      "time": 431.5,
      "duration": 0.25,
      "velocity": 0.71,
      "hand": "left"
    },
    {
      "midi": 73,
      "time": 431.5,
      "duration": 0.5,
      "velocity": 0.8,
      "hand": "right"
    },
    {
      "midi": 75,
      "time": 431.5,
      "duration": 0.5,
      "velocity": 0.8,
      "hand": "right"
    },
    {
      "midi": 80,
      "time": 431.5,
      "duration": 0.5,
      "velocity": 0.8,
      "hand": "right"
    },
    {
      "midi": 85,
      "time": 431.5,
      "duration": 0.5,
      "velocity": 0.8,
      "hand": "right"
    },
    {
      "midi": 51,
      "time": 431.75,
      "duration": 0.25,
      "velocity": 0.71,
      "hand": "left"
    },
    {
      "midi": 60,
      "time": 431.75,
      "duration": 0.25,
      "velocity": 0.71,
      "hand": "right"
    },
    {
      "midi": 56,
      "time": 432,
      "duration": 0.25,
      "velocity": 0.71,
      "hand": "left"
    },
    {
      "midi": 63,
      "time": 432,
      "duration": 0.25,
      "velocity": 0.71,
      "hand": "right"
    },
    {
      "midi": 70,
      "time": 432,
      "duration": 0.25,
      "velocity": 0.8,
      "hand": "right"
    },
    {
      "midi": 72,
      "time": 432,
      "duration": 0.25,
      "velocity": 0.8,
      "hand": "right"
    },
    {
      "midi": 82,
      "time": 432,
      "duration": 0.25,
      "velocity": 0.8,
      "hand": "right"
    },
    {
      "midi": 84,
      "time": 432,
      "duration": 0.25,
      "velocity": 0.8,
      "hand": "right"
    },
    {
      "midi": 56,
      "time": 432.25,
      "duration": 0.25,
      "velocity": 0.71,
      "hand": "left"
    },
    {
      "midi": 60,
      "time": 432.25,
      "duration": 0.25,
      "velocity": 0.71,
      "hand": "right"
    },
    {
      "midi": 68,
      "time": 432.25,
      "duration": 0.25,
      "velocity": 0.8,
      "hand": "right"
    },
    {
      "midi": 80,
      "time": 432.25,
      "duration": 0.25,
      "velocity": 0.8,
      "hand": "right"
    },
    {
      "midi": 51,
      "time": 432.5,
      "duration": 0.25,
      "velocity": 0.71,
      "hand": "left"
    },
    {
      "midi": 73,
      "time": 432.5,
      "duration": 0.25,
      "velocity": 0.8,
      "hand": "right"
    },
    {
      "midi": 75,
      "time": 432.5,
      "duration": 0.25,
      "velocity": 0.8,
      "hand": "right"
    },
    {
      "midi": 85,
      "time": 432.5,
      "duration": 0.25,
      "velocity": 0.8,
      "hand": "right"
    },
    {
      "midi": 56,
      "time": 432.75,
      "duration": 0.25,
      "velocity": 0.71,
      "hand": "left"
    },
    {
      "midi": 63,
      "time": 432.75,
      "duration": 0.25,
      "velocity": 0.71,
      "hand": "right"
    },
    {
      "midi": 68,
      "time": 432.75,
      "duration": 0.25,
      "velocity": 0.71,
      "hand": "right"
    },
    {
      "midi": 72,
      "time": 432.75,
      "duration": 0.25,
      "velocity": 0.8,
      "hand": "right"
    },
    {
      "midi": 84,
      "time": 432.75,
      "duration": 0.25,
      "velocity": 0.8,
      "hand": "right"
    },
    {
      "midi": 56,
      "time": 433,
      "duration": 0.25,
      "velocity": 0.71,
      "hand": "left"
    },
    {
      "midi": 63,
      "time": 433,
      "duration": 0.25,
      "velocity": 0.71,
      "hand": "right"
    },
    {
      "midi": 70,
      "time": 433,
      "duration": 0.25,
      "velocity": 0.8,
      "hand": "right"
    },
    {
      "midi": 75,
      "time": 433,
      "duration": 0.25,
      "velocity": 0.8,
      "hand": "right"
    },
    {
      "midi": 82,
      "time": 433,
      "duration": 0.25,
      "velocity": 0.8,
      "hand": "right"
    },
    {
      "midi": 51,
      "time": 433.25,
      "duration": 0.25,
      "velocity": 0.71,
      "hand": "left"
    },
    {
      "midi": 60,
      "time": 433.25,
      "duration": 0.25,
      "velocity": 0.71,
      "hand": "right"
    },
    {
      "midi": 63,
      "time": 433.25,
      "duration": 0.25,
      "velocity": 0.71,
      "hand": "right"
    },
    {
      "midi": 68,
      "time": 433.25,
      "duration": 0.25,
      "velocity": 0.8,
      "hand": "right"
    },
    {
      "midi": 80,
      "time": 433.25,
      "duration": 0.25,
      "velocity": 0.8,
      "hand": "right"
    },
    {
      "midi": 51,
      "time": 433.5,
      "duration": 0.25,
      "velocity": 0.71,
      "hand": "left"
    },
    {
      "midi": 60,
      "time": 433.5,
      "duration": 0.25,
      "velocity": 0.71,
      "hand": "right"
    },
    {
      "midi": 65,
      "time": 433.5,
      "duration": 0.25,
      "velocity": 0.8,
      "hand": "right"
    },
    {
      "midi": 68,
      "time": 433.5,
      "duration": 0.25,
      "velocity": 0.8,
      "hand": "right"
    },
    {
      "midi": 77,
      "time": 433.5,
      "duration": 0.25,
      "velocity": 0.8,
      "hand": "right"
    },
    {
      "midi": 48,
      "time": 433.75,
      "duration": 0.25,
      "velocity": 0.71,
      "hand": "left"
    },
    {
      "midi": 56,
      "time": 433.75,
      "duration": 0.25,
      "velocity": 0.71,
      "hand": "left"
    },
    {
      "midi": 60,
      "time": 433.75,
      "duration": 0.25,
      "velocity": 0.71,
      "hand": "right"
    },
    {
      "midi": 63,
      "time": 433.75,
      "duration": 0.25,
      "velocity": 0.8,
      "hand": "right"
    },
    {
      "midi": 75,
      "time": 433.75,
      "duration": 0.25,
      "velocity": 0.8,
      "hand": "right"
    },
    {
      "midi": 48,
      "time": 434,
      "duration": 0.25,
      "velocity": 0.71,
      "hand": "left"
    },
    {
      "midi": 56,
      "time": 434,
      "duration": 0.25,
      "velocity": 0.71,
      "hand": "left"
    },
    {
      "midi": 61,
      "time": 434,
      "duration": 0.25,
      "velocity": 0.8,
      "hand": "right"
    },
    {
      "midi": 63,
      "time": 434,
      "duration": 0.25,
      "velocity": 0.8,
      "hand": "right"
    },
    {
      "midi": 73,
      "time": 434,
      "duration": 0.25,
      "velocity": 0.8,
      "hand": "right"
    },
    {
      "midi": 44,
      "time": 434.25,
      "duration": 0.25,
      "velocity": 0.71,
      "hand": "left"
    },
    {
      "midi": 51,
      "time": 434.25,
      "duration": 0.25,
      "velocity": 0.71,
      "hand": "left"
    },
    {
      "midi": 56,
      "time": 434.25,
      "duration": 0.25,
      "velocity": 0.71,
      "hand": "left"
    },
    {
      "midi": 60,
      "time": 434.25,
      "duration": 0.25,
      "velocity": 0.8,
      "hand": "right"
    },
    {
      "midi": 72,
      "time": 434.25,
      "duration": 0.25,
      "velocity": 0.8,
      "hand": "right"
    },
    {
      "midi": 44,
      "time": 434.5,
      "duration": 0.25,
      "velocity": 0.71,
      "hand": "left"
    },
    {
      "midi": 51,
      "time": 434.5,
      "duration": 0.25,
      "velocity": 0.71,
      "hand": "left"
    },
    {
      "midi": 58,
      "time": 434.5,
      "duration": 0.25,
      "velocity": 0.8,
      "hand": "left"
    },
    {
      "midi": 63,
      "time": 434.5,
      "duration": 0.25,
      "velocity": 0.8,
      "hand": "right"
    },
    {
      "midi": 70,
      "time": 434.5,
      "duration": 0.25,
      "velocity": 0.8,
      "hand": "right"
    },
    {
      "midi": 39,
      "time": 434.75,
      "duration": 0.25,
      "velocity": 0.71,
      "hand": "left"
    },
    {
      "midi": 48,
      "time": 434.75,
      "duration": 0.25,
      "velocity": 0.71,
      "hand": "left"
    },
    {
      "midi": 51,
      "time": 434.75,
      "duration": 0.25,
      "velocity": 0.71,
      "hand": "left"
    },
    {
      "midi": 56,
      "time": 434.75,
      "duration": 0.25,
      "velocity": 0.8,
      "hand": "left"
    },
    {
      "midi": 68,
      "time": 434.75,
      "duration": 0.25,
      "velocity": 0.8,
      "hand": "right"
    },
    {
      "midi": 39,
      "time": 435,
      "duration": 0.25,
      "velocity": 0.71,
      "hand": "left"
    },
    {
      "midi": 48,
      "time": 435,
      "duration": 0.25,
      "velocity": 0.71,
      "hand": "left"
    },
    {
      "midi": 53,
      "time": 435,
      "duration": 0.25,
      "velocity": 0.8,
      "hand": "left"
    },
    {
      "midi": 56,
      "time": 435,
      "duration": 0.25,
      "velocity": 0.8,
      "hand": "left"
    },
    {
      "midi": 65,
      "time": 435,
      "duration": 0.25,
      "velocity": 0.8,
      "hand": "right"
    },
    {
      "midi": 36,
      "time": 435.25,
      "duration": 0.25,
      "velocity": 0.71,
      "hand": "left"
    },
    {
      "midi": 44,
      "time": 435.25,
      "duration": 0.25,
      "velocity": 0.71,
      "hand": "left"
    },
    {
      "midi": 48,
      "time": 435.25,
      "duration": 0.25,
      "velocity": 0.71,
      "hand": "left"
    },
    {
      "midi": 51,
      "time": 435.25,
      "duration": 0.25,
      "velocity": 0.8,
      "hand": "left"
    },
    {
      "midi": 63,
      "time": 435.25,
      "duration": 0.25,
      "velocity": 0.8,
      "hand": "right"
    },
    {
      "midi": 36,
      "time": 435.5,
      "duration": 0.25,
      "velocity": 0.71,
      "hand": "left"
    },
    {
      "midi": 44,
      "time": 435.5,
      "duration": 0.25,
      "velocity": 0.71,
      "hand": "left"
    },
    {
      "midi": 49,
      "time": 435.5,
      "duration": 0.25,
      "velocity": 0.8,
      "hand": "left"
    },
    {
      "midi": 51,
      "time": 435.5,
      "duration": 0.25,
      "velocity": 0.8,
      "hand": "left"
    },
    {
      "midi": 61,
      "time": 435.5,
      "duration": 0.25,
      "velocity": 0.8,
      "hand": "right"
    },
    {
      "midi": 32,
      "time": 435.75,
      "duration": 0.25,
      "velocity": 0.71,
      "hand": "left"
    },
    {
      "midi": 39,
      "time": 435.75,
      "duration": 0.25,
      "velocity": 0.71,
      "hand": "left"
    },
    {
      "midi": 44,
      "time": 435.75,
      "duration": 0.25,
      "velocity": 0.71,
      "hand": "left"
    },
    {
      "midi": 48,
      "time": 435.75,
      "duration": 0.25,
      "velocity": 0.8,
      "hand": "left"
    },
    {
      "midi": 60,
      "time": 435.75,
      "duration": 0.25,
      "velocity": 0.8,
      "hand": "right"
    },
    {
      "midi": 32,
      "time": 436,
      "duration": 0.25,
      "velocity": 0.71,
      "hand": "left"
    },
    {
      "midi": 39,
      "time": 436,
      "duration": 0.25,
      "velocity": 0.71,
      "hand": "left"
    },
    {
      "midi": 44,
      "time": 436,
      "duration": 1,
      "velocity": 0.71,
      "hand": "left"
    },
    {
      "midi": 52,
      "time": 436,
      "duration": 1,
      "velocity": 0.71,
      "hand": "left"
    },
    {
      "midi": 56,
      "time": 436,
      "duration": 1,
      "velocity": 0.71,
      "hand": "left"
    },
    {
      "midi": 59,
      "time": 436,
      "duration": 1,
      "velocity": 0.84,
      "hand": "left"
    },
    {
      "midi": 64,
      "time": 436,
      "duration": 1,
      "velocity": 0.84,
      "hand": "right"
    },
    {
      "midi": 71,
      "time": 436,
      "duration": 1,
      "velocity": 0.84,
      "hand": "right"
    },
    {
      "midi": 32,
      "time": 437,
      "duration": 0.5,
      "velocity": 0.71,
      "hand": "left"
    },
    {
      "midi": 40,
      "time": 437,
      "duration": 0.5,
      "velocity": 0.71,
      "hand": "left"
    },
    {
      "midi": 44,
      "time": 437,
      "duration": 0.5,
      "velocity": 0.71,
      "hand": "left"
    },
    {
      "midi": 47,
      "time": 437,
      "duration": 0.5,
      "velocity": 0.84,
      "hand": "left"
    },
    {
      "midi": 52,
      "time": 437,
      "duration": 0.5,
      "velocity": 0.84,
      "hand": "left"
    },
    {
      "midi": 59,
      "time": 437,
      "duration": 0.5,
      "velocity": 0.84,
      "hand": "left"
    },
    {
      "midi": 44,
      "time": 437.5,
      "duration": 0.5,
      "velocity": 0.71,
      "hand": "left"
    },
    {
      "midi": 52,
      "time": 437.5,
      "duration": 0.5,
      "velocity": 0.71,
      "hand": "left"
    },
    {
      "midi": 56,
      "time": 437.5,
      "duration": 0.5,
      "velocity": 0.71,
      "hand": "left"
    },
    {
      "midi": 59,
      "time": 437.5,
      "duration": 0.5,
      "velocity": 0.84,
      "hand": "left"
    },
    {
      "midi": 64,
      "time": 437.5,
      "duration": 0.5,
      "velocity": 0.84,
      "hand": "right"
    },
    {
      "midi": 71,
      "time": 437.5,
      "duration": 0.5,
      "velocity": 0.84,
      "hand": "right"
    },
    {
      "midi": 56,
      "time": 438,
      "duration": 0.5,
      "velocity": 0.71,
      "hand": "left"
    },
    {
      "midi": 64,
      "time": 438,
      "duration": 0.5,
      "velocity": 0.71,
      "hand": "right"
    },
    {
      "midi": 68,
      "time": 438,
      "duration": 0.5,
      "velocity": 0.71,
      "hand": "right"
    },
    {
      "midi": 71,
      "time": 438,
      "duration": 0.5,
      "velocity": 0.84,
      "hand": "right"
    },
    {
      "midi": 76,
      "time": 438,
      "duration": 0.5,
      "velocity": 0.84,
      "hand": "right"
    },
    {
      "midi": 83,
      "time": 438,
      "duration": 0.5,
      "velocity": 0.84,
      "hand": "right"
    },
    {
      "midi": 68,
      "time": 438.5,
      "duration": 0.5,
      "velocity": 0.71,
      "hand": "right"
    },
    {
      "midi": 76,
      "time": 438.5,
      "duration": 0.5,
      "velocity": 0.71,
      "hand": "right"
    },
    {
      "midi": 80,
      "time": 438.5,
      "duration": 0.5,
      "velocity": 0.71,
      "hand": "right"
    },
    {
      "midi": 83,
      "time": 438.5,
      "duration": 0.5,
      "velocity": 0.84,
      "hand": "right"
    },
    {
      "midi": 88,
      "time": 438.5,
      "duration": 0.5,
      "velocity": 0.84,
      "hand": "right"
    },
    {
      "midi": 95,
      "time": 438.5,
      "duration": 0.5,
      "velocity": 0.84,
      "hand": "right"
    },
    {
      "midi": 56,
      "time": 439,
      "duration": 0.5,
      "velocity": 0.71,
      "hand": "left"
    },
    {
      "midi": 64,
      "time": 439,
      "duration": 0.5,
      "velocity": 0.71,
      "hand": "right"
    },
    {
      "midi": 68,
      "time": 439,
      "duration": 0.5,
      "velocity": 0.71,
      "hand": "right"
    },
    {
      "midi": 71,
      "time": 439,
      "duration": 0.5,
      "velocity": 0.84,
      "hand": "right"
    },
    {
      "midi": 76,
      "time": 439,
      "duration": 0.5,
      "velocity": 0.84,
      "hand": "right"
    },
    {
      "midi": 83,
      "time": 439,
      "duration": 0.5,
      "velocity": 0.84,
      "hand": "right"
    },
    {
      "midi": 44,
      "time": 439.5,
      "duration": 0.5,
      "velocity": 0.71,
      "hand": "left"
    },
    {
      "midi": 52,
      "time": 439.5,
      "duration": 0.5,
      "velocity": 0.71,
      "hand": "left"
    },
    {
      "midi": 56,
      "time": 439.5,
      "duration": 0.5,
      "velocity": 0.71,
      "hand": "left"
    },
    {
      "midi": 59,
      "time": 439.5,
      "duration": 0.5,
      "velocity": 0.84,
      "hand": "left"
    },
    {
      "midi": 64,
      "time": 439.5,
      "duration": 0.5,
      "velocity": 0.84,
      "hand": "right"
    },
    {
      "midi": 71,
      "time": 439.5,
      "duration": 0.5,
      "velocity": 0.84,
      "hand": "right"
    },
    {
      "midi": 56,
      "time": 440,
      "duration": 0.25,
      "velocity": 0.68,
      "hand": "left"
    },
    {
      "midi": 68,
      "time": 440,
      "duration": 0.25,
      "velocity": 0.68,
      "hand": "right"
    },
    {
      "midi": 59,
      "time": 440.25,
      "duration": 0.25,
      "velocity": 0.68,
      "hand": "left"
    },
    {
      "midi": 71,
      "time": 440.25,
      "duration": 0.25,
      "velocity": 0.68,
      "hand": "right"
    },
    {
      "midi": 45,
      "time": 440.5,
      "duration": 0.5,
      "velocity": 0.71,
      "hand": "left"
    },
    {
      "midi": 54,
      "time": 440.5,
      "duration": 0.5,
      "velocity": 0.71,
      "hand": "left"
    },
    {
      "midi": 57,
      "time": 440.5,
      "duration": 0.5,
      "velocity": 0.71,
      "hand": "left"
    },
    {
      "midi": 61,
      "time": 440.5,
      "duration": 0.5,
      "velocity": 0.68,
      "hand": "right"
    },
    {
      "midi": 63,
      "time": 440.5,
      "duration": 0.5,
      "velocity": 0.68,
      "hand": "right"
    },
    {
      "midi": 73,
      "time": 440.5,
      "duration": 0.5,
      "velocity": 0.68,
      "hand": "right"
    },
    {
      "midi": 45,
      "time": 441,
      "duration": 0.5,
      "velocity": 0.71,
      "hand": "left"
    },
    {
      "midi": 52,
      "time": 441,
      "duration": 0.5,
      "velocity": 0.71,
      "hand": "left"
    },
    {
      "midi": 57,
      "time": 441,
      "duration": 0.5,
      "velocity": 0.71,
      "hand": "left"
    },
    {
      "midi": 61,
      "time": 441,
      "duration": 0.5,
      "velocity": 0.68,
      "hand": "right"
    },
    {
      "midi": 64,
      "time": 441,
      "duration": 0.5,
      "velocity": 0.68,
      "hand": "right"
    },
    {
      "midi": 73,
      "time": 441,
      "duration": 0.5,
      "velocity": 0.68,
      "hand": "right"
    },
    {
      "midi": 45,
      "time": 441.5,
      "duration": 0.5,
      "velocity": 0.71,
      "hand": "left"
    },
    {
      "midi": 51,
      "time": 441.5,
      "duration": 0.5,
      "velocity": 0.71,
      "hand": "left"
    },
    {
      "midi": 57,
      "time": 441.5,
      "duration": 0.5,
      "velocity": 0.71,
      "hand": "left"
    },
    {
      "midi": 61,
      "time": 441.5,
      "duration": 0.5,
      "velocity": 0.68,
      "hand": "right"
    },
    {
      "midi": 66,
      "time": 441.5,
      "duration": 0.5,
      "velocity": 0.68,
      "hand": "right"
    },
    {
      "midi": 73,
      "time": 441.5,
      "duration": 0.5,
      "velocity": 0.68,
      "hand": "right"
    },
    {
      "midi": 54,
      "time": 442,
      "duration": 0.25,
      "velocity": 0.68,
      "hand": "left"
    },
    {
      "midi": 66,
      "time": 442,
      "duration": 0.25,
      "velocity": 0.68,
      "hand": "right"
    },
    {
      "midi": 57,
      "time": 442.25,
      "duration": 0.25,
      "velocity": 0.68,
      "hand": "left"
    },
    {
      "midi": 69,
      "time": 442.25,
      "duration": 0.25,
      "velocity": 0.68,
      "hand": "right"
    },
    {
      "midi": 44,
      "time": 442.5,
      "duration": 0.5,
      "velocity": 0.71,
      "hand": "left"
    },
    {
      "midi": 52,
      "time": 442.5,
      "duration": 0.5,
      "velocity": 0.71,
      "hand": "left"
    },
    {
      "midi": 56,
      "time": 442.5,
      "duration": 0.5,
      "velocity": 0.71,
      "hand": "left"
    },
    {
      "midi": 59,
      "time": 442.5,
      "duration": 0.5,
      "velocity": 0.68,
      "hand": "left"
    },
    {
      "midi": 61,
      "time": 442.5,
      "duration": 0.5,
      "velocity": 0.68,
      "hand": "right"
    },
    {
      "midi": 71,
      "time": 442.5,
      "duration": 0.5,
      "velocity": 0.68,
      "hand": "right"
    },
    {
      "midi": 44,
      "time": 443,
      "duration": 0.5,
      "velocity": 0.71,
      "hand": "left"
    },
    {
      "midi": 51,
      "time": 443,
      "duration": 0.5,
      "velocity": 0.71,
      "hand": "left"
    },
    {
      "midi": 56,
      "time": 443,
      "duration": 0.5,
      "velocity": 0.71,
      "hand": "left"
    },
    {
      "midi": 59,
      "time": 443,
      "duration": 0.5,
      "velocity": 0.68,
      "hand": "left"
    },
    {
      "midi": 63,
      "time": 443,
      "duration": 0.5,
      "velocity": 0.68,
      "hand": "right"
    },
    {
      "midi": 71,
      "time": 443,
      "duration": 0.5,
      "velocity": 0.68,
      "hand": "right"
    },
    {
      "midi": 44,
      "time": 443.5,
      "duration": 0.5,
      "velocity": 0.71,
      "hand": "left"
    },
    {
      "midi": 49,
      "time": 443.5,
      "duration": 0.5,
      "velocity": 0.84,
      "hand": "left"
    },
    {
      "midi": 56,
      "time": 443.5,
      "duration": 0.5,
      "velocity": 0.71,
      "hand": "left"
    },
    {
      "midi": 59,
      "time": 443.5,
      "duration": 0.5,
      "velocity": 0.68,
      "hand": "left"
    },
    {
      "midi": 64,
      "time": 443.5,
      "duration": 0.5,
      "velocity": 0.71,
      "hand": "right"
    },
    {
      "midi": 71,
      "time": 443.5,
      "duration": 0.5,
      "velocity": 0.68,
      "hand": "right"
    },
    {
      "midi": 51,
      "time": 444,
      "duration": 0.25,
      "velocity": 0.84,
      "hand": "left"
    },
    {
      "midi": 52,
      "time": 444,
      "duration": 0.25,
      "velocity": 0.84,
      "hand": "left"
    },
    {
      "midi": 56,
      "time": 444,
      "duration": 0.25,
      "velocity": 0.68,
      "hand": "left"
    },
    {
      "midi": 66,
      "time": 444,
      "duration": 0.25,
      "velocity": 0.71,
      "hand": "right"
    },
    {
      "midi": 68,
      "time": 444,
      "duration": 0.25,
      "velocity": 0.68,
      "hand": "right"
    },
    {
      "midi": 59,
      "time": 444.25,
      "duration": 0.25,
      "velocity": 0.68,
      "hand": "left"
    },
    {
      "midi": 71,
      "time": 444.25,
      "duration": 0.25,
      "velocity": 0.68,
      "hand": "right"
    },
    {
      "midi": 45,
      "time": 444.5,
      "duration": 0.5,
      "velocity": 0.71,
      "hand": "left"
    },
    {
      "midi": 54,
      "time": 444.5,
      "duration": 0.5,
      "velocity": 0.71,
      "hand": "left"
    },
    {
      "midi": 57,
      "time": 444.5,
      "duration": 0.5,
      "velocity": 0.71,
      "hand": "left"
    },
    {
      "midi": 61,
      "time": 444.5,
      "duration": 0.5,
      "velocity": 0.68,
      "hand": "right"
    },
    {
      "midi": 63,
      "time": 444.5,
      "duration": 0.5,
      "velocity": 0.68,
      "hand": "right"
    },
    {
      "midi": 73,
      "time": 444.5,
      "duration": 0.5,
      "velocity": 0.68,
      "hand": "right"
    },
    {
      "midi": 45,
      "time": 445,
      "duration": 0.5,
      "velocity": 0.71,
      "hand": "left"
    },
    {
      "midi": 52,
      "time": 445,
      "duration": 0.5,
      "velocity": 0.71,
      "hand": "left"
    },
    {
      "midi": 57,
      "time": 445,
      "duration": 0.5,
      "velocity": 0.71,
      "hand": "left"
    },
    {
      "midi": 61,
      "time": 445,
      "duration": 0.5,
      "velocity": 0.68,
      "hand": "right"
    },
    {
      "midi": 64,
      "time": 445,
      "duration": 0.5,
      "velocity": 0.68,
      "hand": "right"
    },
    {
      "midi": 73,
      "time": 445,
      "duration": 0.5,
      "velocity": 0.68,
      "hand": "right"
    },
    {
      "midi": 45,
      "time": 445.5,
      "duration": 0.5,
      "velocity": 0.71,
      "hand": "left"
    },
    {
      "midi": 51,
      "time": 445.5,
      "duration": 0.5,
      "velocity": 0.71,
      "hand": "left"
    },
    {
      "midi": 57,
      "time": 445.5,
      "duration": 0.5,
      "velocity": 0.71,
      "hand": "left"
    },
    {
      "midi": 61,
      "time": 445.5,
      "duration": 0.5,
      "velocity": 0.68,
      "hand": "right"
    },
    {
      "midi": 66,
      "time": 445.5,
      "duration": 0.5,
      "velocity": 0.68,
      "hand": "right"
    },
    {
      "midi": 73,
      "time": 445.5,
      "duration": 0.5,
      "velocity": 0.68,
      "hand": "right"
    },
    {
      "midi": 54,
      "time": 446,
      "duration": 0.25,
      "velocity": 0.68,
      "hand": "left"
    },
    {
      "midi": 66,
      "time": 446,
      "duration": 0.25,
      "velocity": 0.68,
      "hand": "right"
    },
    {
      "midi": 57,
      "time": 446.25,
      "duration": 0.25,
      "velocity": 0.68,
      "hand": "left"
    },
    {
      "midi": 69,
      "time": 446.25,
      "duration": 0.25,
      "velocity": 0.68,
      "hand": "right"
    },
    {
      "midi": 44,
      "time": 446.5,
      "duration": 0.5,
      "velocity": 0.71,
      "hand": "left"
    },
    {
      "midi": 52,
      "time": 446.5,
      "duration": 0.5,
      "velocity": 0.71,
      "hand": "left"
    },
    {
      "midi": 56,
      "time": 446.5,
      "duration": 0.5,
      "velocity": 0.71,
      "hand": "left"
    },
    {
      "midi": 59,
      "time": 446.5,
      "duration": 0.5,
      "velocity": 0.68,
      "hand": "left"
    },
    {
      "midi": 61,
      "time": 446.5,
      "duration": 0.5,
      "velocity": 0.68,
      "hand": "right"
    },
    {
      "midi": 71,
      "time": 446.5,
      "duration": 0.5,
      "velocity": 0.68,
      "hand": "right"
    },
    {
      "midi": 44,
      "time": 447,
      "duration": 0.5,
      "velocity": 0.71,
      "hand": "left"
    },
    {
      "midi": 51,
      "time": 447,
      "duration": 0.5,
      "velocity": 0.71,
      "hand": "left"
    },
    {
      "midi": 56,
      "time": 447,
      "duration": 0.5,
      "velocity": 0.71,
      "hand": "left"
    },
    {
      "midi": 59,
      "time": 447,
      "duration": 0.5,
      "velocity": 0.68,
      "hand": "left"
    },
    {
      "midi": 63,
      "time": 447,
      "duration": 0.5,
      "velocity": 0.68,
      "hand": "right"
    },
    {
      "midi": 71,
      "time": 447,
      "duration": 0.5,
      "velocity": 0.68,
      "hand": "right"
    },
    {
      "midi": 44,
      "time": 447.5,
      "duration": 0.5,
      "velocity": 0.71,
      "hand": "left"
    },
    {
      "midi": 49,
      "time": 447.5,
      "duration": 0.5,
      "velocity": 0.71,
      "hand": "left"
    },
    {
      "midi": 56,
      "time": 447.5,
      "duration": 0.5,
      "velocity": 0.71,
      "hand": "left"
    },
    {
      "midi": 59,
      "time": 447.5,
      "duration": 0.5,
      "velocity": 0.68,
      "hand": "left"
    },
    {
      "midi": 64,
      "time": 447.5,
      "duration": 0.5,
      "velocity": 0.68,
      "hand": "right"
    },
    {
      "midi": 71,
      "time": 447.5,
      "duration": 0.5,
      "velocity": 0.68,
      "hand": "right"
    },
    {
      "midi": 52,
      "time": 448,
      "duration": 0.25,
      "velocity": 0.68,
      "hand": "left"
    },
    {
      "midi": 64,
      "time": 448,
      "duration": 0.25,
      "velocity": 0.68,
      "hand": "right"
    },
    {
      "midi": 56,
      "time": 448.25,
      "duration": 0.25,
      "velocity": 0.68,
      "hand": "left"
    },
    {
      "midi": 68,
      "time": 448.25,
      "duration": 0.25,
      "velocity": 0.68,
      "hand": "right"
    },
    {
      "midi": 42,
      "time": 448.5,
      "duration": 0.5,
      "velocity": 0.71,
      "hand": "left"
    },
    {
      "midi": 51,
      "time": 448.5,
      "duration": 0.5,
      "velocity": 0.71,
      "hand": "left"
    },
    {
      "midi": 54,
      "time": 448.5,
      "duration": 0.5,
      "velocity": 0.71,
      "hand": "left"
    },
    {
      "midi": 57,
      "time": 448.5,
      "duration": 0.5,
      "velocity": 0.68,
      "hand": "left"
    },
    {
      "midi": 60,
      "time": 448.5,
      "duration": 0.5,
      "velocity": 0.68,
      "hand": "right"
    },
    {
      "midi": 69,
      "time": 448.5,
      "duration": 0.5,
      "velocity": 0.68,
      "hand": "right"
    },
    {
      "midi": 42,
      "time": 449,
      "duration": 0.5,
      "velocity": 0.71,
      "hand": "left"
    },
    {
      "midi": 49,
      "time": 449,
      "duration": 0.5,
      "velocity": 0.71,
      "hand": "left"
    },
    {
      "midi": 54,
      "time": 449,
      "duration": 0.5,
      "velocity": 0.71,
      "hand": "left"
    },
    {
      "midi": 57,
      "time": 449,
      "duration": 0.5,
      "velocity": 0.68,
      "hand": "left"
    },
    {
      "midi": 61,
      "time": 449,
      "duration": 0.5,
      "velocity": 0.68,
      "hand": "right"
    },
    {
      "midi": 69,
      "time": 449,
      "duration": 0.5,
      "velocity": 0.68,
      "hand": "right"
    },
    {
      "midi": 42,
      "time": 449.5,
      "duration": 0.5,
      "velocity": 0.71,
      "hand": "left"
    },
    {
      "midi": 48,
      "time": 449.5,
      "duration": 0.5,
      "velocity": 0.71,
      "hand": "left"
    },
    {
      "midi": 54,
      "time": 449.5,
      "duration": 0.5,
      "velocity": 0.71,
      "hand": "left"
    },
    {
      "midi": 57,
      "time": 449.5,
      "duration": 0.5,
      "velocity": 0.68,
      "hand": "left"
    },
    {
      "midi": 63,
      "time": 449.5,
      "duration": 0.5,
      "velocity": 0.68,
      "hand": "right"
    },
    {
      "midi": 69,
      "time": 449.5,
      "duration": 0.5,
      "velocity": 0.68,
      "hand": "right"
    },
    {
      "midi": 51,
      "time": 450,
      "duration": 0.25,
      "velocity": 0.68,
      "hand": "left"
    },
    {
      "midi": 63,
      "time": 450,
      "duration": 0.25,
      "velocity": 0.68,
      "hand": "right"
    },
    {
      "midi": 54,
      "time": 450.25,
      "duration": 0.25,
      "velocity": 0.68,
      "hand": "left"
    },
    {
      "midi": 66,
      "time": 450.25,
      "duration": 0.25,
      "velocity": 0.68,
      "hand": "right"
    },
    {
      "midi": 40,
      "time": 450.5,
      "duration": 0.5,
      "velocity": 0.71,
      "hand": "left"
    },
    {
      "midi": 49,
      "time": 450.5,
      "duration": 0.5,
      "velocity": 0.71,
      "hand": "left"
    },
    {
      "midi": 52,
      "time": 450.5,
      "duration": 0.5,
      "velocity": 0.71,
      "hand": "left"
    },
    {
      "midi": 56,
      "time": 450.5,
      "duration": 0.5,
      "velocity": 0.68,
      "hand": "left"
    },
    {
      "midi": 58,
      "time": 450.5,
      "duration": 0.5,
      "velocity": 0.68,
      "hand": "left"
    },
    {
      "midi": 68,
      "time": 450.5,
      "duration": 0.5,
      "velocity": 0.68,
      "hand": "right"
    },
    {
      "midi": 40,
      "time": 451,
      "duration": 0.5,
      "velocity": 0.71,
      "hand": "left"
    },
    {
      "midi": 48,
      "time": 451,
      "duration": 0.5,
      "velocity": 0.71,
      "hand": "left"
    },
    {
      "midi": 52,
      "time": 451,
      "duration": 0.5,
      "velocity": 0.71,
      "hand": "left"
    },
    {
      "midi": 56,
      "time": 451,
      "duration": 0.5,
      "velocity": 0.68,
      "hand": "left"
    },
    {
      "midi": 60,
      "time": 451,
      "duration": 0.5,
      "velocity": 0.68,
      "hand": "right"
    },
    {
      "midi": 68,
      "time": 451,
      "duration": 0.5,
      "velocity": 0.68,
      "hand": "right"
    },
    {
      "midi": 40,
      "time": 451.5,
      "duration": 0.5,
      "velocity": 0.71,
      "hand": "left"
    },
    {
      "midi": 46,
      "time": 451.5,
      "duration": 0.5,
      "velocity": 0.71,
      "hand": "left"
    },
    {
      "midi": 52,
      "time": 451.5,
      "duration": 0.5,
      "velocity": 0.71,
      "hand": "left"
    },
    {
      "midi": 56,
      "time": 451.5,
      "duration": 0.5,
      "velocity": 0.68,
      "hand": "left"
    },
    {
      "midi": 61,
      "time": 451.5,
      "duration": 0.5,
      "velocity": 0.68,
      "hand": "right"
    },
    {
      "midi": 68,
      "time": 451.5,
      "duration": 0.5,
      "velocity": 0.68,
      "hand": "right"
    },
    {
      "midi": 49,
      "time": 452,
      "duration": 0.25,
      "velocity": 0.68,
      "hand": "left"
    },
    {
      "midi": 61,
      "time": 452,
      "duration": 0.25,
      "velocity": 0.68,
      "hand": "right"
    },
    {
      "midi": 52,
      "time": 452.25,
      "duration": 0.25,
      "velocity": 0.68,
      "hand": "left"
    },
    {
      "midi": 64,
      "time": 452.25,
      "duration": 0.25,
      "velocity": 0.68,
      "hand": "right"
    },
    {
      "midi": 39,
      "time": 452.5,
      "duration": 0.5,
      "velocity": 0.71,
      "hand": "left"
    },
    {
      "midi": 44,
      "time": 452.5,
      "duration": 0.5,
      "velocity": 0.71,
      "hand": "left"
    },
    {
      "midi": 51,
      "time": 452.5,
      "duration": 0.5,
      "velocity": 0.71,
      "hand": "left"
    },
    {
      "midi": 54,
      "time": 452.5,
      "duration": 0.5,
      "velocity": 0.68,
      "hand": "left"
    },
    {
      "midi": 56,
      "time": 452.5,
      "duration": 0.5,
      "velocity": 0.68,
      "hand": "left"
    },
    {
      "midi": 66,
      "time": 452.5,
      "duration": 0.5,
      "velocity": 0.68,
      "hand": "right"
    },
    {
      "midi": 48,
      "time": 453,
      "duration": 0.25,
      "velocity": 0.68,
      "hand": "left"
    },
    {
      "midi": 60,
      "time": 453,
      "duration": 0.25,
      "velocity": 0.68,
      "hand": "right"
    },
    {
      "midi": 51,
      "time": 453.25,
      "duration": 0.25,
      "velocity": 0.68,
      "hand": "left"
    },
    {
      "midi": 63,
      "time": 453.25,
      "duration": 0.25,
      "velocity": 0.68,
      "hand": "right"
    },
    {
      "midi": 37,
      "time": 453.5,
      "duration": 0.5,
      "velocity": 0.71,
      "hand": "left"
    },
    {
      "midi": 44,
      "time": 453.5,
      "duration": 0.5,
      "velocity": 0.71,
      "hand": "left"
    },
    {
      "midi": 49,
      "time": 453.5,
      "duration": 0.5,
      "velocity": 0.71,
      "hand": "left"
    },
    {
      "midi": 52,
      "time": 453.5,
      "duration": 0.5,
      "velocity": 0.68,
      "hand": "left"
    },
    {
      "midi": 56,
      "time": 453.5,
      "duration": 0.5,
      "velocity": 0.68,
      "hand": "left"
    },
    {
      "midi": 64,
      "time": 453.5,
      "duration": 0.5,
      "velocity": 0.68,
      "hand": "right"
    },
    {
      "midi": 46,
      "time": 454,
      "duration": 0.25,
      "velocity": 0.68,
      "hand": "left"
    },
    {
      "midi": 58,
      "time": 454,
      "duration": 0.25,
      "velocity": 0.68,
      "hand": "left"
    },
    {
      "midi": 49,
      "time": 454.25,
      "duration": 0.25,
      "velocity": 0.68,
      "hand": "left"
    },
    {
      "midi": 61,
      "time": 454.25,
      "duration": 0.25,
      "velocity": 0.68,
      "hand": "right"
    },
    {
      "midi": 32,
      "time": 454.5,
      "duration": 0.125,
      "velocity": 0.84,
      "hand": "left"
    },
    {
      "midi": 44,
      "time": 454.5,
      "duration": 1.5,
      "velocity": 0.84,
      "hand": "left"
    },
    {
      "midi": 49,
      "time": 454.5,
      "duration": 0.5,
      "velocity": 0.71,
      "hand": "left"
    },
    {
      "midi": 51,
      "time": 454.5,
      "duration": 1.5,
      "velocity": 0.75,
      "hand": "left"
    },
    {
      "midi": 56,
      "time": 454.5,
      "duration": 1.5,
      "velocity": 0.75,
      "hand": "left"
    },
    {
      "midi": 63,
      "time": 454.5,
      "duration": 1.5,
      "velocity": 0.75,
      "hand": "right"
    },
    {
      "midi": 48,
      "time": 455,
      "duration": 1,
      "velocity": 0.71,
      "hand": "left"
    },
    {
      "midi": 42,
      "time": 456,
      "duration": 0.5,
      "velocity": 0.84,
      "hand": "left"
    },
    {
      "midi": 49,
      "time": 456,
      "duration": 0.5,
      "velocity": 0.71,
      "hand": "left"
    },
    {
      "midi": 54,
      "time": 456,
      "duration": 0.5,
      "velocity": 0.75,
      "hand": "left"
    },
    {
      "midi": 57,
      "time": 456,
      "duration": 0.5,
      "velocity": 0.75,
      "hand": "left"
    },
    {
      "midi": 66,
      "time": 456,
      "duration": 0.5,
      "velocity": 0.75,
      "hand": "right"
    },
    {
      "midi": 44,
      "time": 456.5,
      "duration": 0.5,
      "velocity": 0.84,
      "hand": "left"
    },
    {
      "midi": 48,
      "time": 456.5,
      "duration": 0.5,
      "velocity": 0.71,
      "hand": "left"
    },
    {
      "midi": 51,
      "time": 456.5,
      "duration": 0.5,
      "velocity": 0.75,
      "hand": "left"
    },
    {
      "midi": 56,
      "time": 456.5,
      "duration": 0.5,
      "velocity": 0.75,
      "hand": "left"
    },
    {
      "midi": 63,
      "time": 456.5,
      "duration": 0.5,
      "velocity": 0.75,
      "hand": "right"
    },
    {
      "midi": 42,
      "time": 457,
      "duration": 0.5,
      "velocity": 0.84,
      "hand": "left"
    },
    {
      "midi": 49,
      "time": 457,
      "duration": 0.5,
      "velocity": 0.71,
      "hand": "left"
    },
    {
      "midi": 54,
      "time": 457,
      "duration": 0.5,
      "velocity": 0.75,
      "hand": "left"
    },
    {
      "midi": 57,
      "time": 457,
      "duration": 0.5,
      "velocity": 0.75,
      "hand": "left"
    },
    {
      "midi": 66,
      "time": 457,
      "duration": 0.5,
      "velocity": 0.75,
      "hand": "right"
    },
    {
      "midi": 44,
      "time": 457.5,
      "duration": 0.5,
      "velocity": 0.84,
      "hand": "left"
    },
    {
      "midi": 48,
      "time": 457.5,
      "duration": 0.5,
      "velocity": 0.71,
      "hand": "left"
    },
    {
      "midi": 51,
      "time": 457.5,
      "duration": 0.5,
      "velocity": 0.75,
      "hand": "left"
    },
    {
      "midi": 56,
      "time": 457.5,
      "duration": 0.5,
      "velocity": 0.75,
      "hand": "left"
    },
    {
      "midi": 63,
      "time": 457.5,
      "duration": 0.5,
      "velocity": 0.75,
      "hand": "right"
    },
    {
      "midi": 42,
      "time": 458,
      "duration": 0.5,
      "velocity": 0.84,
      "hand": "left"
    },
    {
      "midi": 49,
      "time": 458,
      "duration": 0.5,
      "velocity": 0.71,
      "hand": "left"
    },
    {
      "midi": 54,
      "time": 458,
      "duration": 0.5,
      "velocity": 0.75,
      "hand": "left"
    },
    {
      "midi": 57,
      "time": 458,
      "duration": 0.5,
      "velocity": 0.75,
      "hand": "left"
    },
    {
      "midi": 66,
      "time": 458,
      "duration": 0.5,
      "velocity": 0.75,
      "hand": "right"
    },
    {
      "midi": 32,
      "time": 458.5,
      "duration": 0.125,
      "velocity": 0.84,
      "hand": "left"
    },
    {
      "midi": 44,
      "time": 458.5,
      "duration": 1.5,
      "velocity": 0.84,
      "hand": "left"
    },
    {
      "midi": 49,
      "time": 458.5,
      "duration": 0.5,
      "velocity": 0.71,
      "hand": "left"
    },
    {
      "midi": 51,
      "time": 458.5,
      "duration": 1.5,
      "velocity": 0.75,
      "hand": "left"
    },
    {
      "midi": 56,
      "time": 458.5,
      "duration": 1.5,
      "velocity": 0.75,
      "hand": "left"
    },
    {
      "midi": 63,
      "time": 458.5,
      "duration": 1.5,
      "velocity": 0.75,
      "hand": "right"
    },
    {
      "midi": 48,
      "time": 459,
      "duration": 1,
      "velocity": 0.71,
      "hand": "left"
    },
    {
      "midi": 42,
      "time": 460,
      "duration": 0.5,
      "velocity": 0.84,
      "hand": "left"
    },
    {
      "midi": 49,
      "time": 460,
      "duration": 0.5,
      "velocity": 0.71,
      "hand": "left"
    },
    {
      "midi": 54,
      "time": 460,
      "duration": 0.5,
      "velocity": 0.75,
      "hand": "left"
    },
    {
      "midi": 57,
      "time": 460,
      "duration": 0.5,
      "velocity": 0.75,
      "hand": "left"
    },
    {
      "midi": 66,
      "time": 460,
      "duration": 0.5,
      "velocity": 0.75,
      "hand": "right"
    },
    {
      "midi": 44,
      "time": 460.5,
      "duration": 0.5,
      "velocity": 0.84,
      "hand": "left"
    },
    {
      "midi": 48,
      "time": 460.5,
      "duration": 0.5,
      "velocity": 0.71,
      "hand": "left"
    },
    {
      "midi": 51,
      "time": 460.5,
      "duration": 0.5,
      "velocity": 0.75,
      "hand": "left"
    },
    {
      "midi": 56,
      "time": 460.5,
      "duration": 0.5,
      "velocity": 0.75,
      "hand": "left"
    },
    {
      "midi": 63,
      "time": 460.5,
      "duration": 0.5,
      "velocity": 0.75,
      "hand": "right"
    },
    {
      "midi": 42,
      "time": 461,
      "duration": 0.5,
      "velocity": 0.84,
      "hand": "left"
    },
    {
      "midi": 49,
      "time": 461,
      "duration": 0.5,
      "velocity": 0.71,
      "hand": "left"
    },
    {
      "midi": 54,
      "time": 461,
      "duration": 0.5,
      "velocity": 0.75,
      "hand": "left"
    },
    {
      "midi": 57,
      "time": 461,
      "duration": 0.5,
      "velocity": 0.75,
      "hand": "left"
    },
    {
      "midi": 66,
      "time": 461,
      "duration": 0.5,
      "velocity": 0.75,
      "hand": "right"
    },
    {
      "midi": 44,
      "time": 461.5,
      "duration": 0.5,
      "velocity": 0.84,
      "hand": "left"
    },
    {
      "midi": 48,
      "time": 461.5,
      "duration": 0.5,
      "velocity": 0.71,
      "hand": "left"
    },
    {
      "midi": 51,
      "time": 461.5,
      "duration": 0.5,
      "velocity": 0.75,
      "hand": "left"
    },
    {
      "midi": 56,
      "time": 461.5,
      "duration": 0.5,
      "velocity": 0.75,
      "hand": "left"
    },
    {
      "midi": 63,
      "time": 461.5,
      "duration": 0.5,
      "velocity": 0.75,
      "hand": "right"
    },
    {
      "midi": 42,
      "time": 462,
      "duration": 0.5,
      "velocity": 0.84,
      "hand": "left"
    },
    {
      "midi": 49,
      "time": 462,
      "duration": 0.5,
      "velocity": 0.71,
      "hand": "left"
    },
    {
      "midi": 54,
      "time": 462,
      "duration": 0.5,
      "velocity": 0.75,
      "hand": "left"
    },
    {
      "midi": 57,
      "time": 462,
      "duration": 0.5,
      "velocity": 0.75,
      "hand": "left"
    },
    {
      "midi": 66,
      "time": 462,
      "duration": 0.5,
      "velocity": 0.75,
      "hand": "right"
    },
    {
      "midi": 44,
      "time": 462.5,
      "duration": 8.5,
      "velocity": 0.84,
      "hand": "left"
    },
    {
      "midi": 49,
      "time": 462.5,
      "duration": 1,
      "velocity": 0.71,
      "hand": "left"
    },
    {
      "midi": 51,
      "time": 462.5,
      "duration": 14,
      "velocity": 0.75,
      "hand": "left"
    },
    {
      "midi": 56,
      "time": 462.5,
      "duration": 14,
      "velocity": 0.75,
      "hand": "left"
    },
    {
      "midi": 63,
      "time": 462.5,
      "duration": 14,
      "velocity": 0.75,
      "hand": "right"
    },
    {
      "midi": 48,
      "time": 463.5,
      "duration": 2,
      "velocity": 0.71,
      "hand": "left"
    },
    {
      "midi": 47,
      "time": 465.5,
      "duration": 1,
      "velocity": 0.71,
      "hand": "left"
    },
    {
      "midi": 48,
      "time": 466.5,
      "duration": 4.5,
      "velocity": 0.71,
      "hand": "left"
    },
    {
      "midi": 36,
      "time": 476.5,
      "duration": 0.5,
      "velocity": 0.71,
      "hand": "left"
    },
    {
      "midi": 43,
      "time": 476.5,
      "duration": 0.5,
      "velocity": 0.71,
      "hand": "left"
    },
    {
      "midi": 48,
      "time": 476.5,
      "duration": 0.5,
      "velocity": 0.71,
      "hand": "left"
    },
    {
      "midi": 51,
      "time": 476.5,
      "duration": 0.5,
      "velocity": 0.49,
      "hand": "left"
    },
    {
      "midi": 55,
      "time": 476.5,
      "duration": 0.5,
      "velocity": 0.49,
      "hand": "left"
    },
    {
      "midi": 60,
      "time": 476.5,
      "duration": 2,
      "velocity": 0.71,
      "hand": "right"
    },
    {
      "midi": 63,
      "time": 478.5,
      "duration": 1,
      "velocity": 0.71,
      "hand": "right"
    },
    {
      "midi": 60,
      "time": 479.5,
      "duration": 1,
      "velocity": 0.71,
      "hand": "right"
    },
    {
      "midi": 44,
      "time": 480.5,
      "duration": 0.5,
      "velocity": 0.71,
      "hand": "left"
    },
    {
      "midi": 48,
      "time": 480.5,
      "duration": 0.5,
      "velocity": 0.71,
      "hand": "left"
    },
    {
      "midi": 53,
      "time": 480.5,
      "duration": 0.5,
      "velocity": 0.49,
      "hand": "left"
    },
    {
      "midi": 60,
      "time": 480.5,
      "duration": 0.5,
      "velocity": 0.49,
      "hand": "right"
    },
    {
      "midi": 65,
      "time": 480.5,
      "duration": 4,
      "velocity": 0.71,
      "hand": "right"
    },
    {
      "midi": 39,
      "time": 484.5,
      "duration": 0.5,
      "velocity": 0.71,
      "hand": "left"
    },
    {
      "midi": 43,
      "time": 484.5,
      "duration": 0.5,
      "velocity": 0.71,
      "hand": "left"
    },
    {
      "midi": 48,
      "time": 484.5,
      "duration": 0.5,
      "velocity": 0.71,
      "hand": "left"
    },
    {
      "midi": 51,
      "time": 484.5,
      "duration": 0.5,
      "velocity": 0.71,
      "hand": "left"
    },
    {
      "midi": 55,
      "time": 484.5,
      "duration": 0.5,
      "velocity": 0.49,
      "hand": "left"
    },
    {
      "midi": 60,
      "time": 484.5,
      "duration": 0.5,
      "velocity": 0.49,
      "hand": "right"
    },
    {
      "midi": 67,
      "time": 484.5,
      "duration": 1.5,
      "velocity": 0.71,
      "hand": "right"
    },
    {
      "midi": 65,
      "time": 486,
      "duration": 0.25,
      "velocity": 0.71,
      "hand": "right"
    },
    {
      "midi": 62,
      "time": 486.25,
      "duration": 0.25,
      "velocity": 0.71,
      "hand": "right"
    },
    {
      "midi": 63,
      "time": 486.25,
      "duration": 0.25,
      "velocity": 0.71,
      "hand": "right"
    },
    {
      "midi": 60,
      "time": 486.5,
      "duration": 1,
      "velocity": 0.71,
      "hand": "right"
    },
    {
      "midi": 60,
      "time": 487.5,
      "duration": 1,
      "velocity": 0.71,
      "hand": "right"
    },
    {
      "midi": 43,
      "time": 488.5,
      "duration": 1,
      "velocity": 0.71,
      "hand": "left"
    },
    {
      "midi": 50,
      "time": 488.5,
      "duration": 1,
      "velocity": 0.71,
      "hand": "left"
    },
    {
      "midi": 55,
      "time": 488.5,
      "duration": 1,
      "velocity": 0.49,
      "hand": "left"
    },
    {
      "midi": 58,
      "time": 488.5,
      "duration": 1,
      "velocity": 0.71,
      "hand": "left"
    },
    {
      "midi": 55,
      "time": 489.5,
      "duration": 3,
      "velocity": 0.71,
      "hand": "left"
    },
    {
      "midi": 39,
      "time": 492.5,
      "duration": 0.5,
      "velocity": 0.71,
      "hand": "left"
    },
    {
      "midi": 48,
      "time": 492.5,
      "duration": 0.5,
      "velocity": 0.71,
      "hand": "left"
    },
    {
      "midi": 55,
      "time": 492.5,
      "duration": 0.5,
      "velocity": 0.49,
      "hand": "left"
    },
    {
      "midi": 60,
      "time": 492.5,
      "duration": 1,
      "velocity": 0.71,
      "hand": "right"
    },
    {
      "midi": 60,
      "time": 493.5,
      "duration": 1,
      "velocity": 0.71,
      "hand": "right"
    },
    {
      "midi": 36,
      "time": 494.5,
      "duration": 0.5,
      "velocity": 0.71,
      "hand": "left"
    },
    {
      "midi": 43,
      "time": 494.5,
      "duration": 0.5,
      "velocity": 0.71,
      "hand": "left"
    },
    {
      "midi": 48,
      "time": 494.5,
      "duration": 0.5,
      "velocity": 0.71,
      "hand": "left"
    },
    {
      "midi": 51,
      "time": 494.5,
      "duration": 0.5,
      "velocity": 0.49,
      "hand": "left"
    },
    {
      "midi": 55,
      "time": 494.5,
      "duration": 0.5,
      "velocity": 0.49,
      "hand": "left"
    },
    {
      "midi": 60,
      "time": 494.5,
      "duration": 0.5,
      "velocity": 0.49,
      "hand": "right"
    },
    {
      "midi": 63,
      "time": 494.5,
      "duration": 1.5,
      "velocity": 0.71,
      "hand": "right"
    },
    {
      "midi": 62,
      "time": 496,
      "duration": 0.25,
      "velocity": 0.71,
      "hand": "right"
    },
    {
      "midi": 60,
      "time": 496.25,
      "duration": 0.25,
      "velocity": 0.71,
      "hand": "right"
    },
    {
      "midi": 38,
      "time": 496.5,
      "duration": 1.5,
      "velocity": 0.71,
      "hand": "left"
    },
    {
      "midi": 46,
      "time": 496.5,
      "duration": 4,
      "velocity": 0.71,
      "hand": "left"
    },
    {
      "midi": 53,
      "time": 496.5,
      "duration": 4,
      "velocity": 0.49,
      "hand": "left"
    },
    {
      "midi": 58,
      "time": 496.5,
      "duration": 4,
      "velocity": 0.71,
      "hand": "left"
    },
    {
      "midi": 39,
      "time": 498,
      "duration": 0.5,
      "velocity": 0.71,
      "hand": "left"
    },
    {
      "midi": 38,
      "time": 498.5,
      "duration": 0.75,
      "velocity": 0.71,
      "hand": "left"
    },
    {
      "midi": 39,
      "time": 499.25,
      "duration": 0.25,
      "velocity": 0.71,
      "hand": "left"
    },
    {
      "midi": 36,
      "time": 499.5,
      "duration": 0.5,
      "velocity": 0.71,
      "hand": "left"
    },
    {
      "midi": 38,
      "time": 499.5,
      "duration": 0.25,
      "velocity": 0.71,
      "hand": "left"
    },
    {
      "midi": 38,
      "time": 500,
      "duration": 0.5,
      "velocity": 0.71,
      "hand": "left"
    },
    {
      "midi": 39,
      "time": 500.5,
      "duration": 3,
      "velocity": 0.71,
      "hand": "left"
    },
    {
      "midi": 48,
      "time": 500.5,
      "duration": 3,
      "velocity": 0.71,
      "hand": "left"
    },
    {
      "midi": 55,
      "time": 500.5,
      "duration": 2,
      "velocity": 0.71,
      "hand": "left"
    },
    {
      "midi": 60,
      "time": 501,
      "duration": 0.5,
      "velocity": 0.71,
      "hand": "right"
    },
    {
      "midi": 59,
      "time": 501.5,
      "duration": 0.5,
      "velocity": 0.71,
      "hand": "left"
    },
    {
      "midi": 60,
      "time": 502,
      "duration": 0.5,
      "velocity": 0.71,
      "hand": "right"
    },
    {
      "midi": 55,
      "time": 502.5,
      "duration": 1,
      "velocity": 0.71,
      "hand": "left"
    },
    {
      "midi": 44,
      "time": 503.5,
      "duration": 1,
      "velocity": 0.71,
      "hand": "left"
    },
    {
      "midi": 48,
      "time": 503.5,
      "duration": 1,
      "velocity": 0.71,
      "hand": "left"
    },
    {
      "midi": 53,
      "time": 503.5,
      "duration": 0.75,
      "velocity": 0.71,
      "hand": "left"
    },
    {
      "midi": 51,
      "time": 504.25,
      "duration": 0.25,
      "velocity": 0.71,
      "hand": "left"
    },
    {
      "midi": 43,
      "time": 504.5,
      "duration": 4,
      "velocity": 0.71,
      "hand": "left"
    },
    {
      "midi": 47,
      "time": 504.5,
      "duration": 2,
      "velocity": 0.71,
      "hand": "left"
    },
    {
      "midi": 50,
      "time": 504.5,
      "duration": 2,
      "velocity": 0.49,
      "hand": "left"
    },
    {
      "midi": 53,
      "time": 504.5,
      "duration": 0.25,
      "velocity": 0.71,
      "hand": "left"
    },
    {
      "midi": 55,
      "time": 504.5,
      "duration": 4,
      "velocity": 0.71,
      "hand": "left"
    },
    {
      "midi": 45,
      "time": 506.5,
      "duration": 1,
      "velocity": 0.71,
      "hand": "left"
    },
    {
      "midi": 48,
      "time": 506.5,
      "duration": 1,
      "velocity": 0.49,
      "hand": "left"
    },
    {
      "midi": 47,
      "time": 507.5,
      "duration": 1,
      "velocity": 0.71,
      "hand": "left"
    },
    {
      "midi": 50,
      "time": 507.5,
      "duration": 1,
      "velocity": 0.49,
      "hand": "left"
    },
    {
      "midi": 39,
      "time": 508.5,
      "duration": 0.5,
      "velocity": 0.71,
      "hand": "left"
    },
    {
      "midi": 48,
      "time": 508.5,
      "duration": 0.5,
      "velocity": 0.71,
      "hand": "left"
    },
    {
      "midi": 51,
      "time": 508.5,
      "duration": 0.5,
      "velocity": 0.71,
      "hand": "left"
    },
    {
      "midi": 55,
      "time": 508.5,
      "duration": 0.5,
      "velocity": 0.49,
      "hand": "left"
    },
    {
      "midi": 60,
      "time": 508.5,
      "duration": 0.5,
      "velocity": 0.49,
      "hand": "right"
    },
    {
      "midi": 67,
      "time": 508.5,
      "duration": 1,
      "velocity": 0.71,
      "hand": "right"
    },
    {
      "midi": 67,
      "time": 509.5,
      "duration": 1,
      "velocity": 0.71,
      "hand": "right"
    },
    {
      "midi": 38,
      "time": 510.5,
      "duration": 0.5,
      "velocity": 0.71,
      "hand": "left"
    },
    {
      "midi": 50,
      "time": 510.5,
      "duration": 0.5,
      "velocity": 0.71,
      "hand": "left"
    },
    {
      "midi": 56,
      "time": 510.5,
      "duration": 0.5,
      "velocity": 0.49,
      "hand": "left"
    },
    {
      "midi": 60,
      "time": 510.5,
      "duration": 0.5,
      "velocity": 0.49,
      "hand": "right"
    },
    {
      "midi": 67,
      "time": 510.5,
      "duration": 1.5,
      "velocity": 0.71,
      "hand": "right"
    },
    {
      "midi": 65,
      "time": 512,
      "duration": 0.25,
      "velocity": 0.71,
      "hand": "right"
    },
    {
      "midi": 63,
      "time": 512.25,
      "duration": 0.25,
      "velocity": 0.71,
      "hand": "right"
    },
    {
      "midi": 62,
      "time": 512.5,
      "duration": 4,
      "velocity": 0.71,
      "hand": "right"
    },
    {
      "midi": 44,
      "time": 513.5,
      "duration": 2,
      "velocity": 0.71,
      "hand": "left"
    },
    {
      "midi": 50,
      "time": 513.5,
      "duration": 3,
      "velocity": 0.71,
      "hand": "left"
    },
    {
      "midi": 53,
      "time": 513.5,
      "duration": 2,
      "velocity": 0.49,
      "hand": "left"
    },
    {
      "midi": 60,
      "time": 513.5,
      "duration": 2,
      "velocity": 0.49,
      "hand": "right"
    },
    {
      "midi": 43,
      "time": 515.5,
      "duration": 1,
      "velocity": 0.71,
      "hand": "left"
    },
    {
      "midi": 55,
      "time": 515.5,
      "duration": 1,
      "velocity": 0.49,
      "hand": "left"
    },
    {
      "midi": 59,
      "time": 515.5,
      "duration": 1,
      "velocity": 0.49,
      "hand": "left"
    },
    {
      "midi": 39,
      "time": 516.5,
      "duration": 0.5,
      "velocity": 0.71,
      "hand": "left"
    },
    {
      "midi": 48,
      "time": 516.5,
      "duration": 0.5,
      "velocity": 0.71,
      "hand": "left"
    },
    {
      "midi": 51,
      "time": 516.5,
      "duration": 0.5,
      "velocity": 0.71,
      "hand": "left"
    },
    {
      "midi": 55,
      "time": 516.5,
      "duration": 0.5,
      "velocity": 0.49,
      "hand": "left"
    },
    {
      "midi": 60,
      "time": 516.5,
      "duration": 0.5,
      "velocity": 0.49,
      "hand": "right"
    },
    {
      "midi": 67,
      "time": 516.5,
      "duration": 1,
      "velocity": 0.71,
      "hand": "right"
    },
    {
      "midi": 67,
      "time": 517.5,
      "duration": 1,
      "velocity": 0.71,
      "hand": "right"
    },
    {
      "midi": 38,
      "time": 518.5,
      "duration": 0.5,
      "velocity": 0.71,
      "hand": "left"
    },
    {
      "midi": 50,
      "time": 518.5,
      "duration": 0.5,
      "velocity": 0.71,
      "hand": "left"
    },
    {
      "midi": 56,
      "time": 518.5,
      "duration": 0.5,
      "velocity": 0.49,
      "hand": "left"
    },
    {
      "midi": 60,
      "time": 518.5,
      "duration": 0.5,
      "velocity": 0.49,
      "hand": "right"
    },
    {
      "midi": 67,
      "time": 518.5,
      "duration": 1.5,
      "velocity": 0.71,
      "hand": "right"
    },
    {
      "midi": 65,
      "time": 520,
      "duration": 0.25,
      "velocity": 0.71,
      "hand": "right"
    },
    {
      "midi": 63,
      "time": 520.25,
      "duration": 0.25,
      "velocity": 0.71,
      "hand": "right"
    },
    {
      "midi": 62,
      "time": 520.5,
      "duration": 4,
      "velocity": 0.71,
      "hand": "right"
    },
    {
      "midi": 44,
      "time": 521.5,
      "duration": 2,
      "velocity": 0.71,
      "hand": "left"
    },
    {
      "midi": 50,
      "time": 521.5,
      "duration": 3,
      "velocity": 0.71,
      "hand": "left"
    },
    {
      "midi": 53,
      "time": 521.5,
      "duration": 2,
      "velocity": 0.49,
      "hand": "left"
    },
    {
      "midi": 60,
      "time": 521.5,
      "duration": 2,
      "velocity": 0.49,
      "hand": "right"
    },
    {
      "midi": 43,
      "time": 523.5,
      "duration": 1,
      "velocity": 0.71,
      "hand": "left"
    },
    {
      "midi": 55,
      "time": 523.5,
      "duration": 1,
      "velocity": 0.49,
      "hand": "left"
    },
    {
      "midi": 59,
      "time": 523.5,
      "duration": 1,
      "velocity": 0.49,
      "hand": "left"
    },
    {
      "midi": 60,
      "time": 524.5,
      "duration": 1,
      "velocity": 0.71,
      "hand": "right"
    },
    {
      "midi": 39,
      "time": 525.5,
      "duration": 0.5,
      "velocity": 0.71,
      "hand": "left"
    },
    {
      "midi": 48,
      "time": 525.5,
      "duration": 0.5,
      "velocity": 0.71,
      "hand": "left"
    },
    {
      "midi": 55,
      "time": 525.5,
      "duration": 0.5,
      "velocity": 0.49,
      "hand": "left"
    },
    {
      "midi": 60,
      "time": 525.5,
      "duration": 0.5,
      "velocity": 0.71,
      "hand": "right"
    },
    {
      "midi": 62,
      "time": 526,
      "duration": 0.5,
      "velocity": 0.71,
      "hand": "right"
    },
    {
      "midi": 65,
      "time": 526.5,
      "duration": 0.5,
      "velocity": 0.71,
      "hand": "right"
    },
    {
      "midi": 63,
      "time": 527,
      "duration": 0.5,
      "velocity": 0.71,
      "hand": "right"
    },
    {
      "midi": 36,
      "time": 527.5,
      "duration": 0.5,
      "velocity": 0.71,
      "hand": "left"
    },
    {
      "midi": 43,
      "time": 527.5,
      "duration": 0.5,
      "velocity": 0.71,
      "hand": "left"
    },
    {
      "midi": 48,
      "time": 527.5,
      "duration": 0.5,
      "velocity": 0.71,
      "hand": "left"
    },
    {
      "midi": 51,
      "time": 527.5,
      "duration": 0.5,
      "velocity": 0.49,
      "hand": "left"
    },
    {
      "midi": 55,
      "time": 527.5,
      "duration": 0.5,
      "velocity": 0.49,
      "hand": "left"
    },
    {
      "midi": 62,
      "time": 527.5,
      "duration": 0.5,
      "velocity": 0.71,
      "hand": "right"
    },
    {
      "midi": 60,
      "time": 528,
      "duration": 0.5,
      "velocity": 0.71,
      "hand": "right"
    },
    {
      "midi": 63,
      "time": 528.5,
      "duration": 3,
      "velocity": 0.71,
      "hand": "right"
    },
    {
      "midi": 43,
      "time": 529.5,
      "duration": 2,
      "velocity": 0.71,
      "hand": "left"
    },
    {
      "midi": 46,
      "time": 529.5,
      "duration": 2,
      "velocity": 0.71,
      "hand": "left"
    },
    {
      "midi": 51,
      "time": 529.5,
      "duration": 2,
      "velocity": 0.54,
      "hand": "left"
    },
    {
      "midi": 58,
      "time": 529.5,
      "duration": 2,
      "velocity": 0.54,
      "hand": "left"
    },
    {
      "midi": 31,
      "time": 531.5,
      "duration": 0.5,
      "velocity": 0.71,
      "hand": "left"
    },
    {
      "midi": 43,
      "time": 531.5,
      "duration": 0.5,
      "velocity": 0.71,
      "hand": "left"
    },
    {
      "midi": 51,
      "time": 531.5,
      "duration": 0.5,
      "velocity": 0.54,
      "hand": "left"
    },
    {
      "midi": 58,
      "time": 531.5,
      "duration": 0.5,
      "velocity": 0.54,
      "hand": "left"
    },
    {
      "midi": 63,
      "time": 531.5,
      "duration": 1,
      "velocity": 0.71,
      "hand": "right"
    },
    {
      "midi": 34,
      "time": 532.5,
      "duration": 0.5,
      "velocity": 0.71,
      "hand": "left"
    },
    {
      "midi": 46,
      "time": 532.5,
      "duration": 0.5,
      "velocity": 0.71,
      "hand": "left"
    },
    {
      "midi": 53,
      "time": 532.5,
      "duration": 0.5,
      "velocity": 0.54,
      "hand": "left"
    },
    {
      "midi": 58,
      "time": 532.5,
      "duration": 0.5,
      "velocity": 0.54,
      "hand": "left"
    },
    {
      "midi": 62,
      "time": 532.5,
      "duration": 1,
      "velocity": 0.71,
      "hand": "right"
    },
    {
      "midi": 36,
      "time": 533.5,
      "duration": 0.5,
      "velocity": 0.71,
      "hand": "left"
    },
    {
      "midi": 48,
      "time": 533.5,
      "duration": 0.5,
      "velocity": 0.71,
      "hand": "left"
    },
    {
      "midi": 51,
      "time": 533.5,
      "duration": 0.5,
      "velocity": 0.54,
      "hand": "left"
    },
    {
      "midi": 55,
      "time": 533.5,
      "duration": 0.5,
      "velocity": 0.54,
      "hand": "left"
    },
    {
      "midi": 60,
      "time": 533.5,
      "duration": 1,
      "velocity": 0.71,
      "hand": "right"
    },
    {
      "midi": 43,
      "time": 534.5,
      "duration": 0.5,
      "velocity": 0.71,
      "hand": "left"
    },
    {
      "midi": 47,
      "time": 534.5,
      "duration": 0.5,
      "velocity": 0.71,
      "hand": "left"
    },
    {
      "midi": 50,
      "time": 534.5,
      "duration": 0.5,
      "velocity": 0.54,
      "hand": "left"
    },
    {
      "midi": 55,
      "time": 534.5,
      "duration": 1,
      "velocity": 0.71,
      "hand": "left"
    },
    {
      "midi": 36,
      "time": 535.5,
      "duration": 0.5,
      "velocity": 0.71,
      "hand": "left"
    },
    {
      "midi": 43,
      "time": 535.5,
      "duration": 0.5,
      "velocity": 0.71,
      "hand": "left"
    },
    {
      "midi": 48,
      "time": 535.5,
      "duration": 0.5,
      "velocity": 0.71,
      "hand": "left"
    },
    {
      "midi": 51,
      "time": 535.5,
      "duration": 0.5,
      "velocity": 0.54,
      "hand": "left"
    },
    {
      "midi": 55,
      "time": 535.5,
      "duration": 0.5,
      "velocity": 0.54,
      "hand": "left"
    },
    {
      "midi": 60,
      "time": 535.5,
      "duration": 0.75,
      "velocity": 0.71,
      "hand": "right"
    },
    {
      "midi": 62,
      "time": 536.25,
      "duration": 0.25,
      "velocity": 0.71,
      "hand": "right"
    },
    {
      "midi": 43,
      "time": 536.5,
      "duration": 3,
      "velocity": 0.71,
      "hand": "left"
    },
    {
      "midi": 47,
      "time": 536.5,
      "duration": 3,
      "velocity": 0.71,
      "hand": "left"
    },
    {
      "midi": 50,
      "time": 536.5,
      "duration": 3,
      "velocity": 0.54,
      "hand": "left"
    },
    {
      "midi": 55,
      "time": 536.5,
      "duration": 3,
      "velocity": 0.71,
      "hand": "left"
    },
    {
      "midi": 60,
      "time": 536.5,
      "duration": 0.25,
      "velocity": 0.71,
      "hand": "right"
    },
    {
      "midi": 43,
      "time": 539.5,
      "duration": 0.5,
      "velocity": 0.71,
      "hand": "left"
    },
    {
      "midi": 46,
      "time": 539.5,
      "duration": 0.5,
      "velocity": 0.71,
      "hand": "left"
    },
    {
      "midi": 51,
      "time": 539.5,
      "duration": 0.5,
      "velocity": 0.49,
      "hand": "left"
    },
    {
      "midi": 58,
      "time": 539.5,
      "duration": 0.5,
      "velocity": 0.49,
      "hand": "left"
    },
    {
      "midi": 63,
      "time": 539.5,
      "duration": 1,
      "velocity": 0.71,
      "hand": "right"
    },
    {
      "midi": 34,
      "time": 540.5,
      "duration": 0.5,
      "velocity": 0.71,
      "hand": "left"
    },
    {
      "midi": 46,
      "time": 540.5,
      "duration": 0.5,
      "velocity": 0.71,
      "hand": "left"
    },
    {
      "midi": 53,
      "time": 540.5,
      "duration": 0.5,
      "velocity": 0.49,
      "hand": "left"
    },
    {
      "midi": 58,
      "time": 540.5,
      "duration": 0.5,
      "velocity": 0.49,
      "hand": "left"
    },
    {
      "midi": 62,
      "time": 540.5,
      "duration": 1,
      "velocity": 0.71,
      "hand": "right"
    },
    {
      "midi": 36,
      "time": 541.5,
      "duration": 0.5,
      "velocity": 0.71,
      "hand": "left"
    },
    {
      "midi": 48,
      "time": 541.5,
      "duration": 0.5,
      "velocity": 0.71,
      "hand": "left"
    },
    {
      "midi": 51,
      "time": 541.5,
      "duration": 0.5,
      "velocity": 0.49,
      "hand": "left"
    },
    {
      "midi": 55,
      "time": 541.5,
      "duration": 0.5,
      "velocity": 0.49,
      "hand": "left"
    },
    {
      "midi": 60,
      "time": 541.5,
      "duration": 1,
      "velocity": 0.71,
      "hand": "right"
    },
    {
      "midi": 43,
      "time": 542.5,
      "duration": 0.5,
      "velocity": 0.71,
      "hand": "left"
    },
    {
      "midi": 47,
      "time": 542.5,
      "duration": 0.5,
      "velocity": 0.71,
      "hand": "left"
    },
    {
      "midi": 50,
      "time": 542.5,
      "duration": 0.5,
      "velocity": 0.49,
      "hand": "left"
    },
    {
      "midi": 55,
      "time": 542.5,
      "duration": 1,
      "velocity": 0.71,
      "hand": "left"
    },
    {
      "midi": 36,
      "time": 543.5,
      "duration": 0.5,
      "velocity": 0.71,
      "hand": "left"
    },
    {
      "midi": 43,
      "time": 543.5,
      "duration": 0.5,
      "velocity": 0.71,
      "hand": "left"
    },
    {
      "midi": 48,
      "time": 543.5,
      "duration": 0.5,
      "velocity": 0.71,
      "hand": "left"
    },
    {
      "midi": 51,
      "time": 543.5,
      "duration": 0.5,
      "velocity": 0.49,
      "hand": "left"
    },
    {
      "midi": 55,
      "time": 543.5,
      "duration": 0.5,
      "velocity": 0.49,
      "hand": "left"
    },
    {
      "midi": 60,
      "time": 543.5,
      "duration": 0.75,
      "velocity": 0.71,
      "hand": "right"
    },
    {
      "midi": 62,
      "time": 544.25,
      "duration": 0.25,
      "velocity": 0.71,
      "hand": "right"
    },
    {
      "midi": 43,
      "time": 544.5,
      "duration": 3,
      "velocity": 0.71,
      "hand": "left"
    },
    {
      "midi": 47,
      "time": 544.5,
      "duration": 3,
      "velocity": 0.71,
      "hand": "left"
    },
    {
      "midi": 50,
      "time": 544.5,
      "duration": 3,
      "velocity": 0.49,
      "hand": "left"
    },
    {
      "midi": 55,
      "time": 544.5,
      "duration": 3,
      "velocity": 0.49,
      "hand": "left"
    },
    {
      "midi": 60,
      "time": 544.5,
      "duration": 0.25,
      "velocity": 0.71,
      "hand": "right"
    },
    {
      "midi": 36,
      "time": 547.5,
      "duration": 1,
      "velocity": 0.71,
      "hand": "left"
    },
    {
      "midi": 43,
      "time": 547.5,
      "duration": 1,
      "velocity": 0.71,
      "hand": "left"
    },
    {
      "midi": 48,
      "time": 547.5,
      "duration": 1,
      "velocity": 0.71,
      "hand": "left"
    },
    {
      "midi": 51,
      "time": 547.5,
      "duration": 1,
      "velocity": 0.49,
      "hand": "left"
    },
    {
      "midi": 55,
      "time": 547.5,
      "duration": 1,
      "velocity": 0.49,
      "hand": "left"
    },
    {
      "midi": 60,
      "time": 547.5,
      "duration": 1,
      "velocity": 0.49,
      "hand": "right"
    },
    {
      "midi": 43,
      "time": 548.5,
      "duration": 3,
      "velocity": 0.71,
      "hand": "left"
    },
    {
      "midi": 47,
      "time": 548.5,
      "duration": 3,
      "velocity": 0.71,
      "hand": "left"
    },
    {
      "midi": 50,
      "time": 548.5,
      "duration": 3,
      "velocity": 0.49,
      "hand": "left"
    },
    {
      "midi": 55,
      "time": 548.5,
      "duration": 3,
      "velocity": 0.49,
      "hand": "left"
    },
    {
      "midi": 36,
      "time": 551.5,
      "duration": 1,
      "velocity": 0.71,
      "hand": "left"
    },
    {
      "midi": 43,
      "time": 551.5,
      "duration": 1,
      "velocity": 0.71,
      "hand": "left"
    },
    {
      "midi": 48,
      "time": 551.5,
      "duration": 1,
      "velocity": 0.71,
      "hand": "left"
    },
    {
      "midi": 51,
      "time": 551.5,
      "duration": 1,
      "velocity": 0.49,
      "hand": "left"
    },
    {
      "midi": 55,
      "time": 551.5,
      "duration": 1,
      "velocity": 0.49,
      "hand": "left"
    },
    {
      "midi": 60,
      "time": 551.5,
      "duration": 1,
      "velocity": 0.49,
      "hand": "right"
    },
    {
      "midi": 43,
      "time": 552.5,
      "duration": 1,
      "velocity": 0.71,
      "hand": "left"
    },
    {
      "midi": 47,
      "time": 552.5,
      "duration": 1,
      "velocity": 0.71,
      "hand": "left"
    },
    {
      "midi": 50,
      "time": 552.5,
      "duration": 1,
      "velocity": 0.49,
      "hand": "left"
    },
    {
      "midi": 55,
      "time": 552.5,
      "duration": 1,
      "velocity": 0.49,
      "hand": "left"
    },
    {
      "midi": 36,
      "time": 553.5,
      "duration": 1,
      "velocity": 0.71,
      "hand": "left"
    },
    {
      "midi": 43,
      "time": 553.5,
      "duration": 1,
      "velocity": 0.71,
      "hand": "left"
    },
    {
      "midi": 48,
      "time": 553.5,
      "duration": 1,
      "velocity": 0.71,
      "hand": "left"
    },
    {
      "midi": 51,
      "time": 553.5,
      "duration": 1,
      "velocity": 0.49,
      "hand": "left"
    },
    {
      "midi": 55,
      "time": 553.5,
      "duration": 1,
      "velocity": 0.49,
      "hand": "left"
    },
    {
      "midi": 60,
      "time": 553.5,
      "duration": 1,
      "velocity": 0.49,
      "hand": "right"
    },
    {
      "midi": 43,
      "time": 554.5,
      "duration": 1,
      "velocity": 0.71,
      "hand": "left"
    },
    {
      "midi": 47,
      "time": 554.5,
      "duration": 1,
      "velocity": 0.71,
      "hand": "left"
    },
    {
      "midi": 50,
      "time": 554.5,
      "duration": 1,
      "velocity": 0.49,
      "hand": "left"
    },
    {
      "midi": 55,
      "time": 554.5,
      "duration": 1,
      "velocity": 0.49,
      "hand": "left"
    },
    {
      "midi": 36,
      "time": 555.5,
      "duration": 1,
      "velocity": 0.71,
      "hand": "left"
    },
    {
      "midi": 43,
      "time": 555.5,
      "duration": 1,
      "velocity": 0.71,
      "hand": "left"
    },
    {
      "midi": 48,
      "time": 555.5,
      "duration": 1,
      "velocity": 0.71,
      "hand": "left"
    },
    {
      "midi": 51,
      "time": 555.5,
      "duration": 1,
      "velocity": 0.49,
      "hand": "left"
    },
    {
      "midi": 55,
      "time": 555.5,
      "duration": 1,
      "velocity": 0.49,
      "hand": "left"
    },
    {
      "midi": 60,
      "time": 555.5,
      "duration": 1,
      "velocity": 0.49,
      "hand": "right"
    },
    {
      "midi": 43,
      "time": 556.5,
      "duration": 4,
      "velocity": 0.71,
      "hand": "left"
    },
    {
      "midi": 47,
      "time": 556.5,
      "duration": 4,
      "velocity": 0.71,
      "hand": "left"
    },
    {
      "midi": 50,
      "time": 556.5,
      "duration": 4,
      "velocity": 0.49,
      "hand": "left"
    },
    {
      "midi": 55,
      "time": 556.5,
      "duration": 4,
      "velocity": 0.49,
      "hand": "left"
    },
    {
      "midi": 36,
      "time": 560.5,
      "duration": 8,
      "velocity": 0.71,
      "hand": "left"
    },
    {
      "midi": 43,
      "time": 560.5,
      "duration": 8,
      "velocity": 0.71,
      "hand": "left"
    },
    {
      "midi": 48,
      "time": 560.5,
      "duration": 8,
      "velocity": 0.71,
      "hand": "left"
    },
    {
      "midi": 51,
      "time": 560.5,
      "duration": 8,
      "velocity": 0.49,
      "hand": "left"
    },
    {
      "midi": 55,
      "time": 560.5,
      "duration": 8,
      "velocity": 0.49,
      "hand": "left"
    },
    {
      "midi": 48,
      "time": 568.5,
      "duration": 0.5,
      "velocity": 0.71,
      "hand": "left"
    },
    {
      "midi": 51,
      "time": 568.5,
      "duration": 0.5,
      "velocity": 0.71,
      "hand": "left"
    },
    {
      "midi": 55,
      "time": 568.5,
      "duration": 0.5,
      "velocity": 0.71,
      "hand": "left"
    },
    {
      "midi": 60,
      "time": 568.5,
      "duration": 0.5,
      "velocity": 0.71,
      "hand": "right"
    },
    {
      "midi": 72,
      "time": 568.5,
      "duration": 0.5,
      "velocity": 0.8,
      "hand": "right"
    },
    {
      "midi": 75,
      "time": 568.5,
      "duration": 0.5,
      "velocity": 0.8,
      "hand": "right"
    },
    {
      "midi": 79,
      "time": 568.5,
      "duration": 0.5,
      "velocity": 0.8,
      "hand": "right"
    },
    {
      "midi": 84,
      "time": 568.5,
      "duration": 0.5,
      "velocity": 0.8,
      "hand": "right"
    },
    {
      "midi": 36,
      "time": 569,
      "duration": 0.5,
      "velocity": 0.71,
      "hand": "left"
    },
    {
      "midi": 48,
      "time": 569,
      "duration": 0.5,
      "velocity": 0.71,
      "hand": "left"
    },
    {
      "midi": 60,
      "time": 569,
      "duration": 0.5,
      "velocity": 0.8,
      "hand": "right"
    },
    {
      "midi": 36,
      "time": 572.5,
      "duration": 0.5,
      "velocity": 0.71,
      "hand": "left"
    },
    {
      "midi": 43,
      "time": 572.5,
      "duration": 0.5,
      "velocity": 0.71,
      "hand": "left"
    },
    {
      "midi": 48,
      "time": 572.5,
      "duration": 0.5,
      "velocity": 0.71,
      "hand": "left"
    },
    {
      "midi": 51,
      "time": 572.5,
      "duration": 0.5,
      "velocity": 0.8,
      "hand": "left"
    },
    {
      "midi": 55,
      "time": 572.5,
      "duration": 0.5,
      "velocity": 0.8,
      "hand": "left"
    },
    {
      "midi": 60,
      "time": 572.5,
      "duration": 0.5,
      "velocity": 0.8,
      "hand": "right"
    }
  ]
}
