{
  "id": "escravos-de-jo",
  "title": "Escravos de Jó",
  "artist": "Tradicional",
  "difficulty": "Difícil",
  "bpm": 100,
  "duration": 49,
  "category": "Infantis",
  "isPremium": false,
  "coverUrl": "/images/covers/placeholder.png",
  "notes": [
    {
      "midi": 38,
      "time": 0,
      "duration": 0.075,
      "velocity": 0.72,
      "hand": "left"
    },
    {
      "midi": 47,
      "time": 0,
      "duration": 0.075,
      "velocity": 0.75,
      "hand": "left"
    },
    {
      "midi": 38,
      "time": 0.15,
      "duration": 0.075,
      "velocity": 0.64,
      "hand": "left"
    },
    {
      "midi": 40,
      "time": 0.45,
      "duration": 0.075,
      "velocity": 0.59,
      "hand": "left"
    },
    {
      "midi": 38,
      "time": 0.6,
      "duration": 0.075,
      "velocity": 0.69,
      "hand": "left"
    },
    {
      "midi": 45,
      "time": 0.9,
      "duration": 0.075,
      "velocity": 0.57,
      "hand": "left"
    },
    {
      "midi": 67,
      "time": 0.9,
      "duration": 0.135,
      "velocity": 0.83,
      "hand": "right"
    },
    {
      "midi": 67,
      "time": 1.05,
      "duration": 0.135,
      "velocity": 0.58,
      "hand": "right"
    },
    {
      "midi": 36,
      "time": 1.2,
      "duration": 0.585,
      "velocity": 0.98,
      "hand": "left"
    },
    {
      "midi": 42,
      "time": 1.2,
      "duration": 0.075,
      "velocity": 0.63,
      "hand": "left"
    },
    {
      "midi": 62,
      "time": 1.2,
      "duration": 0.435,
      "velocity": 0.74,
      "hand": "right"
    },
    {
      "midi": 67,
      "time": 1.2,
      "duration": 0.285,
      "velocity": 0.7,
      "hand": "right"
    },
    {
      "midi": 69,
      "time": 1.2,
      "duration": 0.3,
      "velocity": 0.77,
      "hand": "right"
    },
    {
      "midi": 46,
      "time": 1.5,
      "duration": 0.075,
      "velocity": 0.51,
      "hand": "left"
    },
    {
      "midi": 54,
      "time": 1.5,
      "duration": 0.075,
      "velocity": 0.43,
      "hand": "left"
    },
    {
      "midi": 67,
      "time": 1.5,
      "duration": 0.135,
      "velocity": 0.8,
      "hand": "right"
    },
    {
      "midi": 38,
      "time": 1.65,
      "duration": 0.075,
      "velocity": 0.39,
      "hand": "left"
    },
    {
      "midi": 40,
      "time": 1.65,
      "duration": 0.075,
      "velocity": 0.56,
      "hand": "left"
    },
    {
      "midi": 62,
      "time": 1.65,
      "duration": 0.075,
      "velocity": 0.56,
      "hand": "right"
    },
    {
      "midi": 67,
      "time": 1.65,
      "duration": 0.075,
      "velocity": 0.54,
      "hand": "right"
    },
    {
      "midi": 36,
      "time": 1.8,
      "duration": 0.075,
      "velocity": 0.72,
      "hand": "left"
    },
    {
      "midi": 38,
      "time": 1.8,
      "duration": 0.075,
      "velocity": 0.39,
      "hand": "left"
    },
    {
      "midi": 62,
      "time": 1.8,
      "duration": 0.075,
      "velocity": 0.57,
      "hand": "right"
    },
    {
      "midi": 64,
      "time": 1.8,
      "duration": 0.3,
      "velocity": 0.81,
      "hand": "right"
    },
    {
      "midi": 67,
      "time": 1.8,
      "duration": 0.075,
      "velocity": 0.54,
      "hand": "right"
    },
    {
      "midi": 38,
      "time": 2.1,
      "duration": 0.075,
      "velocity": 0.39,
      "hand": "left"
    },
    {
      "midi": 40,
      "time": 2.1,
      "duration": 0.075,
      "velocity": 0.56,
      "hand": "left"
    },
    {
      "midi": 62,
      "time": 2.1,
      "duration": 0.075,
      "velocity": 0.56,
      "hand": "right"
    },
    {
      "midi": 67,
      "time": 2.1,
      "duration": 0.285,
      "velocity": 0.96,
      "hand": "right"
    },
    {
      "midi": 38,
      "time": 2.4,
      "duration": 0.285,
      "velocity": 0.87,
      "hand": "left"
    },
    {
      "midi": 40,
      "time": 2.4,
      "duration": 0.285,
      "velocity": 0.57,
      "hand": "left"
    },
    {
      "midi": 64,
      "time": 2.4,
      "duration": 0.585,
      "velocity": 0.64,
      "hand": "right"
    },
    {
      "midi": 67,
      "time": 2.4,
      "duration": 0.285,
      "velocity": 0.54,
      "hand": "right"
    },
    {
      "midi": 69,
      "time": 2.4,
      "duration": 0.9,
      "velocity": 0.8,
      "hand": "right"
    },
    {
      "midi": 38,
      "time": 2.7,
      "duration": 0.075,
      "velocity": 0.39,
      "hand": "left"
    },
    {
      "midi": 40,
      "time": 2.7,
      "duration": 0.075,
      "velocity": 0.57,
      "hand": "left"
    },
    {
      "midi": 62,
      "time": 2.7,
      "duration": 0.075,
      "velocity": 0.57,
      "hand": "right"
    },
    {
      "midi": 67,
      "time": 2.7,
      "duration": 0.3,
      "velocity": 0.81,
      "hand": "right"
    },
    {
      "midi": 36,
      "time": 3,
      "duration": 0.075,
      "velocity": 0.69,
      "hand": "left"
    },
    {
      "midi": 38,
      "time": 3,
      "duration": 0.075,
      "velocity": 0.39,
      "hand": "left"
    },
    {
      "midi": 62,
      "time": 3,
      "duration": 0.075,
      "velocity": 0.35,
      "hand": "right"
    },
    {
      "midi": 64,
      "time": 3,
      "duration": 0.3,
      "velocity": 0.83,
      "hand": "right"
    },
    {
      "midi": 66,
      "time": 3,
      "duration": 0.15,
      "velocity": 0.5,
      "hand": "right"
    },
    {
      "midi": 38,
      "time": 3.15,
      "duration": 0.075,
      "velocity": 0.39,
      "hand": "left"
    },
    {
      "midi": 40,
      "time": 3.15,
      "duration": 0.075,
      "velocity": 0.64,
      "hand": "left"
    },
    {
      "midi": 38,
      "time": 3.3,
      "duration": 0.075,
      "velocity": 0.39,
      "hand": "left"
    },
    {
      "midi": 46,
      "time": 3.3,
      "duration": 0.075,
      "velocity": 0.51,
      "hand": "left"
    },
    {
      "midi": 62,
      "time": 3.3,
      "duration": 0.075,
      "velocity": 0.49,
      "hand": "right"
    },
    {
      "midi": 67,
      "time": 3.3,
      "duration": 0.285,
      "velocity": 0.86,
      "hand": "right"
    },
    {
      "midi": 38,
      "time": 3.45,
      "duration": 0.075,
      "velocity": 0.39,
      "hand": "left"
    },
    {
      "midi": 38,
      "time": 3.6,
      "duration": 0.075,
      "velocity": 0.39,
      "hand": "left"
    },
    {
      "midi": 40,
      "time": 3.6,
      "duration": 0.075,
      "velocity": 0.56,
      "hand": "left"
    },
    {
      "midi": 65,
      "time": 3.6,
      "duration": 0.285,
      "velocity": 0.72,
      "hand": "right"
    },
    {
      "midi": 67,
      "time": 3.6,
      "duration": 0.3,
      "velocity": 0.64,
      "hand": "right"
    },
    {
      "midi": 69,
      "time": 3.6,
      "duration": 0.15,
      "velocity": 0.83,
      "hand": "right"
    },
    {
      "midi": 36,
      "time": 3.9,
      "duration": 0.285,
      "velocity": 0.96,
      "hand": "left"
    },
    {
      "midi": 46,
      "time": 3.9,
      "duration": 0.075,
      "velocity": 0.51,
      "hand": "left"
    },
    {
      "midi": 60,
      "time": 3.9,
      "duration": 0.075,
      "velocity": 0.65,
      "hand": "right"
    },
    {
      "midi": 62,
      "time": 3.9,
      "duration": 0.075,
      "velocity": 0.68,
      "hand": "right"
    },
    {
      "midi": 65,
      "time": 3.9,
      "duration": 0.075,
      "velocity": 0.64,
      "hand": "right"
    },
    {
      "midi": 69,
      "time": 3.9,
      "duration": 0.15,
      "velocity": 0.88,
      "hand": "right"
    },
    {
      "midi": 38,
      "time": 4.05,
      "duration": 0.075,
      "velocity": 0.39,
      "hand": "left"
    },
    {
      "midi": 40,
      "time": 4.05,
      "duration": 0.075,
      "velocity": 0.54,
      "hand": "left"
    },
    {
      "midi": 36,
      "time": 4.2,
      "duration": 0.075,
      "velocity": 0.72,
      "hand": "left"
    },
    {
      "midi": 38,
      "time": 4.2,
      "duration": 0.075,
      "velocity": 0.39,
      "hand": "left"
    },
    {
      "midi": 62,
      "time": 4.2,
      "duration": 0.285,
      "velocity": 0.78,
      "hand": "right"
    },
    {
      "midi": 65,
      "time": 4.2,
      "duration": 0.285,
      "velocity": 0.76,
      "hand": "right"
    },
    {
      "midi": 69,
      "time": 4.2,
      "duration": 0.3,
      "velocity": 0.74,
      "hand": "right"
    },
    {
      "midi": 71,
      "time": 4.2,
      "duration": 0.15,
      "velocity": 0.81,
      "hand": "right"
    },
    {
      "midi": 38,
      "time": 4.5,
      "duration": 0.285,
      "velocity": 0.95,
      "hand": "left"
    },
    {
      "midi": 40,
      "time": 4.5,
      "duration": 0.075,
      "velocity": 0.55,
      "hand": "left"
    },
    {
      "midi": 62,
      "time": 4.5,
      "duration": 0.15,
      "velocity": 0.56,
      "hand": "right"
    },
    {
      "midi": 65,
      "time": 4.5,
      "duration": 0.15,
      "velocity": 0.64,
      "hand": "right"
    },
    {
      "midi": 71,
      "time": 4.5,
      "duration": 0.15,
      "velocity": 0.78,
      "hand": "right"
    },
    {
      "midi": 36,
      "time": 4.8,
      "duration": 0.15,
      "velocity": 0.95,
      "hand": "left"
    },
    {
      "midi": 38,
      "time": 4.8,
      "duration": 0.075,
      "velocity": 0.72,
      "hand": "left"
    },
    {
      "midi": 62,
      "time": 4.8,
      "duration": 0.15,
      "velocity": 0.63,
      "hand": "right"
    },
    {
      "midi": 64,
      "time": 4.8,
      "duration": 0.3,
      "velocity": 0.75,
      "hand": "right"
    },
    {
      "midi": 67,
      "time": 4.8,
      "duration": 0.285,
      "velocity": 0.59,
      "hand": "right"
    },
    {
      "midi": 72,
      "time": 4.8,
      "duration": 0.45,
      "velocity": 0.9,
      "hand": "right"
    },
    {
      "midi": 38,
      "time": 4.95,
      "duration": 0.075,
      "velocity": 0.64,
      "hand": "left"
    },
    {
      "midi": 43,
      "time": 5.1,
      "duration": 0.6,
      "velocity": 0.95,
      "hand": "left"
    },
    {
      "midi": 55,
      "time": 5.1,
      "duration": 0.75,
      "velocity": 0.72,
      "hand": "left"
    },
    {
      "midi": 63,
      "time": 5.1,
      "duration": 0.75,
      "velocity": 0.73,
      "hand": "right"
    },
    {
      "midi": 67,
      "time": 5.1,
      "duration": 0.585,
      "velocity": 0.74,
      "hand": "right"
    },
    {
      "midi": 40,
      "time": 5.25,
      "duration": 0.075,
      "velocity": 0.59,
      "hand": "left"
    },
    {
      "midi": 38,
      "time": 5.4,
      "duration": 0.075,
      "velocity": 0.69,
      "hand": "left"
    },
    {
      "midi": 45,
      "time": 5.7,
      "duration": 0.075,
      "velocity": 0.57,
      "hand": "left"
    },
    {
      "midi": 67,
      "time": 5.7,
      "duration": 0.285,
      "velocity": 0.79,
      "hand": "right"
    },
    {
      "midi": 36,
      "time": 6,
      "duration": 0.585,
      "velocity": 0.82,
      "hand": "left"
    },
    {
      "midi": 38,
      "time": 6,
      "duration": 0.075,
      "velocity": 0.39,
      "hand": "left"
    },
    {
      "midi": 60,
      "time": 6,
      "duration": 0.15,
      "velocity": 0.61,
      "hand": "right"
    },
    {
      "midi": 62,
      "time": 6,
      "duration": 0.435,
      "velocity": 0.72,
      "hand": "right"
    },
    {
      "midi": 67,
      "time": 6,
      "duration": 0.435,
      "velocity": 0.57,
      "hand": "right"
    },
    {
      "midi": 72,
      "time": 6,
      "duration": 0.45,
      "velocity": 0.74,
      "hand": "right"
    },
    {
      "midi": 46,
      "time": 6.3,
      "duration": 0.075,
      "velocity": 0.51,
      "hand": "left"
    },
    {
      "midi": 54,
      "time": 6.3,
      "duration": 0.075,
      "velocity": 0.43,
      "hand": "left"
    },
    {
      "midi": 38,
      "time": 6.45,
      "duration": 0.075,
      "velocity": 0.39,
      "hand": "left"
    },
    {
      "midi": 40,
      "time": 6.45,
      "duration": 0.075,
      "velocity": 0.72,
      "hand": "left"
    },
    {
      "midi": 62,
      "time": 6.45,
      "duration": 0.075,
      "velocity": 0.52,
      "hand": "right"
    },
    {
      "midi": 67,
      "time": 6.45,
      "duration": 0.135,
      "velocity": 0.53,
      "hand": "right"
    },
    {
      "midi": 36,
      "time": 6.6,
      "duration": 0.075,
      "velocity": 0.54,
      "hand": "left"
    },
    {
      "midi": 38,
      "time": 6.6,
      "duration": 0.075,
      "velocity": 0.39,
      "hand": "left"
    },
    {
      "midi": 60,
      "time": 6.6,
      "duration": 0.15,
      "velocity": 0.52,
      "hand": "right"
    },
    {
      "midi": 62,
      "time": 6.6,
      "duration": 0.285,
      "velocity": 0.54,
      "hand": "right"
    },
    {
      "midi": 67,
      "time": 6.6,
      "duration": 0.285,
      "velocity": 0.35,
      "hand": "right"
    },
    {
      "midi": 71,
      "time": 6.6,
      "duration": 0.3,
      "velocity": 0.62,
      "hand": "right"
    },
    {
      "midi": 36,
      "time": 6.9,
      "duration": 0.3,
      "velocity": 0.76,
      "hand": "left"
    },
    {
      "midi": 38,
      "time": 6.9,
      "duration": 0.075,
      "velocity": 0.39,
      "hand": "left"
    },
    {
      "midi": 62,
      "time": 6.9,
      "duration": 0.075,
      "velocity": 0.63,
      "hand": "right"
    },
    {
      "midi": 67,
      "time": 6.9,
      "duration": 0.15,
      "velocity": 0.57,
      "hand": "right"
    },
    {
      "midi": 69,
      "time": 6.9,
      "duration": 0.285,
      "velocity": 0.62,
      "hand": "right"
    },
    {
      "midi": 38,
      "time": 7.2,
      "duration": 0.075,
      "velocity": 0.39,
      "hand": "left"
    },
    {
      "midi": 40,
      "time": 7.2,
      "duration": 0.285,
      "velocity": 0.7,
      "hand": "left"
    },
    {
      "midi": 64,
      "time": 7.2,
      "duration": 0.75,
      "velocity": 0.59,
      "hand": "right"
    },
    {
      "midi": 67,
      "time": 7.2,
      "duration": 0.75,
      "velocity": 0.56,
      "hand": "right"
    },
    {
      "midi": 69,
      "time": 7.2,
      "duration": 0.75,
      "velocity": 0.59,
      "hand": "right"
    },
    {
      "midi": 38,
      "time": 7.5,
      "duration": 0.075,
      "velocity": 0.39,
      "hand": "left"
    },
    {
      "midi": 40,
      "time": 7.5,
      "duration": 0.075,
      "velocity": 0.54,
      "hand": "left"
    },
    {
      "midi": 62,
      "time": 7.5,
      "duration": 0.075,
      "velocity": 0.52,
      "hand": "right"
    },
    {
      "midi": 66,
      "time": 7.5,
      "duration": 0.15,
      "velocity": 0.53,
      "hand": "right"
    },
    {
      "midi": 36,
      "time": 7.8,
      "duration": 0.075,
      "velocity": 0.7,
      "hand": "left"
    },
    {
      "midi": 38,
      "time": 7.8,
      "duration": 0.075,
      "velocity": 0.39,
      "hand": "left"
    },
    {
      "midi": 62,
      "time": 7.8,
      "duration": 0.075,
      "velocity": 0.49,
      "hand": "right"
    },
    {
      "midi": 66,
      "time": 7.8,
      "duration": 0.15,
      "velocity": 0.5,
      "hand": "right"
    },
    {
      "midi": 38,
      "time": 7.95,
      "duration": 0.075,
      "velocity": 0.39,
      "hand": "left"
    },
    {
      "midi": 40,
      "time": 7.95,
      "duration": 0.075,
      "velocity": 0.54,
      "hand": "left"
    },
    {
      "midi": 38,
      "time": 8.1,
      "duration": 0.075,
      "velocity": 0.39,
      "hand": "left"
    },
    {
      "midi": 40,
      "time": 8.1,
      "duration": 0.285,
      "velocity": 0.61,
      "hand": "left"
    },
    {
      "midi": 62,
      "time": 8.1,
      "duration": 0.075,
      "velocity": 0.49,
      "hand": "right"
    },
    {
      "midi": 66,
      "time": 8.1,
      "duration": 0.15,
      "velocity": 0.52,
      "hand": "right"
    },
    {
      "midi": 69,
      "time": 8.1,
      "duration": 0.3,
      "velocity": 0.64,
      "hand": "right"
    },
    {
      "midi": 38,
      "time": 8.25,
      "duration": 0.075,
      "velocity": 0.39,
      "hand": "left"
    },
    {
      "midi": 38,
      "time": 8.4,
      "duration": 0.435,
      "velocity": 0.78,
      "hand": "left"
    },
    {
      "midi": 40,
      "time": 8.4,
      "duration": 0.075,
      "velocity": 0.53,
      "hand": "left"
    },
    {
      "midi": 60,
      "time": 8.4,
      "duration": 0.285,
      "velocity": 0.61,
      "hand": "right"
    },
    {
      "midi": 62,
      "time": 8.4,
      "duration": 0.285,
      "velocity": 0.58,
      "hand": "right"
    },
    {
      "midi": 65,
      "time": 8.4,
      "duration": 0.285,
      "velocity": 0.56,
      "hand": "right"
    },
    {
      "midi": 67,
      "time": 8.4,
      "duration": 0.3,
      "velocity": 0.64,
      "hand": "right"
    },
    {
      "midi": 46,
      "time": 8.7,
      "duration": 0.075,
      "velocity": 0.51,
      "hand": "left"
    },
    {
      "midi": 54,
      "time": 8.7,
      "duration": 0.075,
      "velocity": 0.43,
      "hand": "left"
    },
    {
      "midi": 60,
      "time": 8.7,
      "duration": 0.075,
      "velocity": 0.57,
      "hand": "right"
    },
    {
      "midi": 62,
      "time": 8.7,
      "duration": 0.075,
      "velocity": 0.57,
      "hand": "right"
    },
    {
      "midi": 65,
      "time": 8.7,
      "duration": 0.075,
      "velocity": 0.57,
      "hand": "right"
    },
    {
      "midi": 69,
      "time": 8.7,
      "duration": 0.3,
      "velocity": 0.58,
      "hand": "right"
    },
    {
      "midi": 38,
      "time": 8.85,
      "duration": 0.075,
      "velocity": 0.39,
      "hand": "left"
    },
    {
      "midi": 40,
      "time": 8.85,
      "duration": 0.075,
      "velocity": 0.54,
      "hand": "left"
    },
    {
      "midi": 36,
      "time": 9,
      "duration": 0.075,
      "velocity": 0.69,
      "hand": "left"
    },
    {
      "midi": 38,
      "time": 9,
      "duration": 0.075,
      "velocity": 0.39,
      "hand": "left"
    },
    {
      "midi": 61,
      "time": 9,
      "duration": 0.285,
      "velocity": 0.72,
      "hand": "right"
    },
    {
      "midi": 65,
      "time": 9,
      "duration": 0.285,
      "velocity": 0.57,
      "hand": "right"
    },
    {
      "midi": 67,
      "time": 9,
      "duration": 0.3,
      "velocity": 0.63,
      "hand": "right"
    },
    {
      "midi": 38,
      "time": 9.3,
      "duration": 0.075,
      "velocity": 0.39,
      "hand": "left"
    },
    {
      "midi": 61,
      "time": 9.3,
      "duration": 0.15,
      "velocity": 0.48,
      "hand": "right"
    },
    {
      "midi": 65,
      "time": 9.3,
      "duration": 0.3,
      "velocity": 0.62,
      "hand": "right"
    },
    {
      "midi": 36,
      "time": 9.6,
      "duration": 0.585,
      "velocity": 0.83,
      "hand": "left"
    },
    {
      "midi": 38,
      "time": 9.6,
      "duration": 0.075,
      "velocity": 0.39,
      "hand": "left"
    },
    {
      "midi": 60,
      "time": 9.6,
      "duration": 0.075,
      "velocity": 0.49,
      "hand": "right"
    },
    {
      "midi": 62,
      "time": 9.6,
      "duration": 0.435,
      "velocity": 0.72,
      "hand": "right"
    },
    {
      "midi": 64,
      "time": 9.6,
      "duration": 1.05,
      "velocity": 0.63,
      "hand": "right"
    },
    {
      "midi": 67,
      "time": 9.6,
      "duration": 0.435,
      "velocity": 0.63,
      "hand": "right"
    },
    {
      "midi": 38,
      "time": 9.9,
      "duration": 0.075,
      "velocity": 0.39,
      "hand": "left"
    },
    {
      "midi": 40,
      "time": 9.9,
      "duration": 0.075,
      "velocity": 0.61,
      "hand": "left"
    },
    {
      "midi": 57,
      "time": 10.05,
      "duration": 0.075,
      "velocity": 0.57,
      "hand": "left"
    },
    {
      "midi": 62,
      "time": 10.05,
      "duration": 0.075,
      "velocity": 0.54,
      "hand": "right"
    },
    {
      "midi": 67,
      "time": 10.05,
      "duration": 0.135,
      "velocity": 0.56,
      "hand": "right"
    },
    {
      "midi": 36,
      "time": 10.2,
      "duration": 0.075,
      "velocity": 0.69,
      "hand": "left"
    },
    {
      "midi": 38,
      "time": 10.2,
      "duration": 0.075,
      "velocity": 0.39,
      "hand": "left"
    },
    {
      "midi": 62,
      "time": 10.2,
      "duration": 0.075,
      "velocity": 0.57,
      "hand": "right"
    },
    {
      "midi": 67,
      "time": 10.2,
      "duration": 0.15,
      "velocity": 0.45,
      "hand": "right"
    },
    {
      "midi": 38,
      "time": 10.35,
      "duration": 0.075,
      "velocity": 0.39,
      "hand": "left"
    },
    {
      "midi": 40,
      "time": 10.35,
      "duration": 0.075,
      "velocity": 0.57,
      "hand": "left"
    },
    {
      "midi": 38,
      "time": 10.5,
      "duration": 0.075,
      "velocity": 0.39,
      "hand": "left"
    },
    {
      "midi": 46,
      "time": 10.5,
      "duration": 0.075,
      "velocity": 0.51,
      "hand": "left"
    },
    {
      "midi": 62,
      "time": 10.5,
      "duration": 0.075,
      "velocity": 0.54,
      "hand": "right"
    },
    {
      "midi": 67,
      "time": 10.5,
      "duration": 0.15,
      "velocity": 0.5,
      "hand": "right"
    },
    {
      "midi": 38,
      "time": 10.65,
      "duration": 0.075,
      "velocity": 0.39,
      "hand": "left"
    },
    {
      "midi": 36,
      "time": 10.8,
      "duration": 0.585,
      "velocity": 0.77,
      "hand": "left"
    },
    {
      "midi": 38,
      "time": 10.8,
      "duration": 0.075,
      "velocity": 0.39,
      "hand": "left"
    },
    {
      "midi": 62,
      "time": 10.8,
      "duration": 0.285,
      "velocity": 0.68,
      "hand": "right"
    },
    {
      "midi": 67,
      "time": 10.8,
      "duration": 0.285,
      "velocity": 0.82,
      "hand": "right"
    },
    {
      "midi": 46,
      "time": 11.1,
      "duration": 0.075,
      "velocity": 0.51,
      "hand": "left"
    },
    {
      "midi": 54,
      "time": 11.1,
      "duration": 0.075,
      "velocity": 0.43,
      "hand": "left"
    },
    {
      "midi": 62,
      "time": 11.1,
      "duration": 0.075,
      "velocity": 0.65,
      "hand": "right"
    },
    {
      "midi": 67,
      "time": 11.1,
      "duration": 0.15,
      "velocity": 0.54,
      "hand": "right"
    },
    {
      "midi": 38,
      "time": 11.25,
      "duration": 0.075,
      "velocity": 0.39,
      "hand": "left"
    },
    {
      "midi": 40,
      "time": 11.25,
      "duration": 0.075,
      "velocity": 0.57,
      "hand": "left"
    },
    {
      "midi": 36,
      "time": 11.4,
      "duration": 0.075,
      "velocity": 0.61,
      "hand": "left"
    },
    {
      "midi": 38,
      "time": 11.4,
      "duration": 0.075,
      "velocity": 0.39,
      "hand": "left"
    },
    {
      "midi": 62,
      "time": 11.4,
      "duration": 0.075,
      "velocity": 0.61,
      "hand": "right"
    },
    {
      "midi": 64,
      "time": 11.4,
      "duration": 0.45,
      "velocity": 0.59,
      "hand": "right"
    },
    {
      "midi": 67,
      "time": 11.4,
      "duration": 0.075,
      "velocity": 0.51,
      "hand": "right"
    },
    {
      "midi": 38,
      "time": 11.7,
      "duration": 0.075,
      "velocity": 0.39,
      "hand": "left"
    },
    {
      "midi": 40,
      "time": 11.7,
      "duration": 0.075,
      "velocity": 0.61,
      "hand": "left"
    },
    {
      "midi": 62,
      "time": 11.7,
      "duration": 0.075,
      "velocity": 0.56,
      "hand": "right"
    },
    {
      "midi": 67,
      "time": 11.7,
      "duration": 0.15,
      "velocity": 0.59,
      "hand": "right"
    },
    {
      "midi": 38,
      "time": 12,
      "duration": 0.075,
      "velocity": 0.39,
      "hand": "left"
    },
    {
      "midi": 40,
      "time": 12,
      "duration": 0.285,
      "velocity": 0.77,
      "hand": "left"
    },
    {
      "midi": 64,
      "time": 12,
      "duration": 0.585,
      "velocity": 0.64,
      "hand": "right"
    },
    {
      "midi": 67,
      "time": 12,
      "duration": 1.05,
      "velocity": 0.74,
      "hand": "right"
    },
    {
      "midi": 69,
      "time": 12,
      "duration": 1.05,
      "velocity": 0.54,
      "hand": "right"
    },
    {
      "midi": 55,
      "time": 12.15,
      "duration": 0.15,
      "velocity": 0.52,
      "hand": "left"
    },
    {
      "midi": 59,
      "time": 12.15,
      "duration": 0.075,
      "velocity": 0.51,
      "hand": "left"
    },
    {
      "midi": 62,
      "time": 12.15,
      "duration": 0.075,
      "velocity": 0.51,
      "hand": "right"
    },
    {
      "midi": 66,
      "time": 12.15,
      "duration": 0.15,
      "velocity": 0.4,
      "hand": "right"
    },
    {
      "midi": 38,
      "time": 12.3,
      "duration": 0.075,
      "velocity": 0.39,
      "hand": "left"
    },
    {
      "midi": 40,
      "time": 12.3,
      "duration": 0.075,
      "velocity": 0.61,
      "hand": "left"
    },
    {
      "midi": 55,
      "time": 12.45,
      "duration": 0.075,
      "velocity": 0.51,
      "hand": "left"
    },
    {
      "midi": 59,
      "time": 12.45,
      "duration": 0.075,
      "velocity": 0.46,
      "hand": "left"
    },
    {
      "midi": 62,
      "time": 12.45,
      "duration": 0.075,
      "velocity": 0.49,
      "hand": "right"
    },
    {
      "midi": 66,
      "time": 12.45,
      "duration": 0.135,
      "velocity": 0.47,
      "hand": "right"
    },
    {
      "midi": 36,
      "time": 12.6,
      "duration": 0.075,
      "velocity": 0.72,
      "hand": "left"
    },
    {
      "midi": 38,
      "time": 12.6,
      "duration": 0.075,
      "velocity": 0.39,
      "hand": "left"
    },
    {
      "midi": 62,
      "time": 12.6,
      "duration": 0.075,
      "velocity": 0.5,
      "hand": "right"
    },
    {
      "midi": 64,
      "time": 12.6,
      "duration": 0.585,
      "velocity": 0.68,
      "hand": "right"
    },
    {
      "midi": 66,
      "time": 12.6,
      "duration": 0.15,
      "velocity": 0.43,
      "hand": "right"
    },
    {
      "midi": 38,
      "time": 12.75,
      "duration": 0.075,
      "velocity": 0.39,
      "hand": "left"
    },
    {
      "midi": 40,
      "time": 12.75,
      "duration": 0.075,
      "velocity": 0.54,
      "hand": "left"
    },
    {
      "midi": 38,
      "time": 12.9,
      "duration": 0.075,
      "velocity": 0.39,
      "hand": "left"
    },
    {
      "midi": 46,
      "time": 12.9,
      "duration": 0.075,
      "velocity": 0.51,
      "hand": "left"
    },
    {
      "midi": 62,
      "time": 12.9,
      "duration": 0.15,
      "velocity": 0.49,
      "hand": "right"
    },
    {
      "midi": 66,
      "time": 12.9,
      "duration": 0.15,
      "velocity": 0.19,
      "hand": "right"
    },
    {
      "midi": 38,
      "time": 13.05,
      "duration": 0.075,
      "velocity": 0.39,
      "hand": "left"
    },
    {
      "midi": 38,
      "time": 13.2,
      "duration": 0.435,
      "velocity": 0.8,
      "hand": "left"
    },
    {
      "midi": 40,
      "time": 13.2,
      "duration": 0.075,
      "velocity": 0.57,
      "hand": "left"
    },
    {
      "midi": 62,
      "time": 13.2,
      "duration": 0.285,
      "velocity": 0.72,
      "hand": "right"
    },
    {
      "midi": 65,
      "time": 13.2,
      "duration": 0.285,
      "velocity": 0.68,
      "hand": "right"
    },
    {
      "midi": 67,
      "time": 13.2,
      "duration": 0.285,
      "velocity": 0.83,
      "hand": "right"
    },
    {
      "midi": 46,
      "time": 13.5,
      "duration": 0.075,
      "velocity": 0.51,
      "hand": "left"
    },
    {
      "midi": 54,
      "time": 13.5,
      "duration": 0.075,
      "velocity": 0.43,
      "hand": "left"
    },
    {
      "midi": 60,
      "time": 13.5,
      "duration": 0.15,
      "velocity": 0.63,
      "hand": "right"
    },
    {
      "midi": 62,
      "time": 13.5,
      "duration": 0.15,
      "velocity": 0.61,
      "hand": "right"
    },
    {
      "midi": 65,
      "time": 13.5,
      "duration": 0.15,
      "velocity": 0.58,
      "hand": "right"
    },
    {
      "midi": 67,
      "time": 13.5,
      "duration": 0.15,
      "velocity": 0.81,
      "hand": "right"
    },
    {
      "midi": 38,
      "time": 13.65,
      "duration": 0.075,
      "velocity": 0.39,
      "hand": "left"
    },
    {
      "midi": 40,
      "time": 13.65,
      "duration": 0.075,
      "velocity": 0.65,
      "hand": "left"
    },
    {
      "midi": 36,
      "time": 13.8,
      "duration": 0.075,
      "velocity": 0.72,
      "hand": "left"
    },
    {
      "midi": 38,
      "time": 13.8,
      "duration": 0.075,
      "velocity": 0.39,
      "hand": "left"
    },
    {
      "midi": 61,
      "time": 13.8,
      "duration": 0.285,
      "velocity": 0.72,
      "hand": "right"
    },
    {
      "midi": 65,
      "time": 13.8,
      "duration": 0.285,
      "velocity": 0.68,
      "hand": "right"
    },
    {
      "midi": 72,
      "time": 13.8,
      "duration": 0.15,
      "velocity": 0.82,
      "hand": "right"
    },
    {
      "midi": 38,
      "time": 14.1,
      "duration": 0.075,
      "velocity": 0.39,
      "hand": "left"
    },
    {
      "midi": 40,
      "time": 14.1,
      "duration": 0.075,
      "velocity": 0.57,
      "hand": "left"
    },
    {
      "midi": 61,
      "time": 14.1,
      "duration": 0.15,
      "velocity": 0.53,
      "hand": "right"
    },
    {
      "midi": 65,
      "time": 14.1,
      "duration": 0.15,
      "velocity": 0.52,
      "hand": "right"
    },
    {
      "midi": 74,
      "time": 14.1,
      "duration": 0.3,
      "velocity": 0.72,
      "hand": "right"
    },
    {
      "midi": 36,
      "time": 14.4,
      "duration": 0.45,
      "velocity": 0.79,
      "hand": "left"
    },
    {
      "midi": 38,
      "time": 14.4,
      "duration": 0.075,
      "velocity": 0.39,
      "hand": "left"
    },
    {
      "midi": 62,
      "time": 14.4,
      "duration": 0.435,
      "velocity": 0.73,
      "hand": "right"
    },
    {
      "midi": 67,
      "time": 14.4,
      "duration": 0.435,
      "velocity": 0.65,
      "hand": "right"
    },
    {
      "midi": 76,
      "time": 14.4,
      "duration": 0.75,
      "velocity": 0.77,
      "hand": "right"
    },
    {
      "midi": 38,
      "time": 14.7,
      "duration": 0.075,
      "velocity": 0.39,
      "hand": "left"
    },
    {
      "midi": 40,
      "time": 14.7,
      "duration": 0.075,
      "velocity": 0.57,
      "hand": "left"
    },
    {
      "midi": 57,
      "time": 14.85,
      "duration": 0.075,
      "velocity": 0.54,
      "hand": "left"
    },
    {
      "midi": 62,
      "time": 14.85,
      "duration": 0.075,
      "velocity": 0.61,
      "hand": "right"
    },
    {
      "midi": 67,
      "time": 14.85,
      "duration": 0.135,
      "velocity": 0.56,
      "hand": "right"
    },
    {
      "midi": 36,
      "time": 15,
      "duration": 0.075,
      "velocity": 0.72,
      "hand": "left"
    },
    {
      "midi": 38,
      "time": 15,
      "duration": 0.075,
      "velocity": 0.39,
      "hand": "left"
    },
    {
      "midi": 62,
      "time": 15,
      "duration": 0.075,
      "velocity": 0.64,
      "hand": "right"
    },
    {
      "midi": 67,
      "time": 15,
      "duration": 0.15,
      "velocity": 0.54,
      "hand": "right"
    },
    {
      "midi": 38,
      "time": 15.15,
      "duration": 0.075,
      "velocity": 0.39,
      "hand": "left"
    },
    {
      "midi": 40,
      "time": 15.15,
      "duration": 0.075,
      "velocity": 0.68,
      "hand": "left"
    },
    {
      "midi": 38,
      "time": 15.3,
      "duration": 0.075,
      "velocity": 0.39,
      "hand": "left"
    },
    {
      "midi": 46,
      "time": 15.3,
      "duration": 0.075,
      "velocity": 0.51,
      "hand": "left"
    },
    {
      "midi": 62,
      "time": 15.3,
      "duration": 0.075,
      "velocity": 0.64,
      "hand": "right"
    },
    {
      "midi": 67,
      "time": 15.3,
      "duration": 0.15,
      "velocity": 0.5,
      "hand": "right"
    },
    {
      "midi": 74,
      "time": 15.3,
      "duration": 0.3,
      "velocity": 0.7,
      "hand": "right"
    },
    {
      "midi": 38,
      "time": 15.45,
      "duration": 0.075,
      "velocity": 0.39,
      "hand": "left"
    },
    {
      "midi": 52,
      "time": 15.45,
      "duration": 1.05,
      "velocity": 0.49,
      "hand": "left"
    },
    {
      "midi": 36,
      "time": 15.6,
      "duration": 0.585,
      "velocity": 0.78,
      "hand": "left"
    },
    {
      "midi": 38,
      "time": 15.6,
      "duration": 0.075,
      "velocity": 0.39,
      "hand": "left"
    },
    {
      "midi": 62,
      "time": 15.6,
      "duration": 0.285,
      "velocity": 0.58,
      "hand": "right"
    },
    {
      "midi": 67,
      "time": 15.6,
      "duration": 0.585,
      "velocity": 0.55,
      "hand": "right"
    },
    {
      "midi": 72,
      "time": 15.6,
      "duration": 0.6,
      "velocity": 0.79,
      "hand": "right"
    },
    {
      "midi": 46,
      "time": 15.9,
      "duration": 0.075,
      "velocity": 0.51,
      "hand": "left"
    },
    {
      "midi": 54,
      "time": 15.9,
      "duration": 0.075,
      "velocity": 0.43,
      "hand": "left"
    },
    {
      "midi": 62,
      "time": 15.9,
      "duration": 0.075,
      "velocity": 0.57,
      "hand": "right"
    },
    {
      "midi": 38,
      "time": 16.05,
      "duration": 0.075,
      "velocity": 0.39,
      "hand": "left"
    },
    {
      "midi": 40,
      "time": 16.05,
      "duration": 0.075,
      "velocity": 0.59,
      "hand": "left"
    },
    {
      "midi": 36,
      "time": 16.2,
      "duration": 0.075,
      "velocity": 0.69,
      "hand": "left"
    },
    {
      "midi": 38,
      "time": 16.2,
      "duration": 0.075,
      "velocity": 0.39,
      "hand": "left"
    },
    {
      "midi": 62,
      "time": 16.2,
      "duration": 0.075,
      "velocity": 0.7,
      "hand": "right"
    },
    {
      "midi": 67,
      "time": 16.2,
      "duration": 0.15,
      "velocity": 0.61,
      "hand": "right"
    },
    {
      "midi": 38,
      "time": 16.5,
      "duration": 0.075,
      "velocity": 0.39,
      "hand": "left"
    },
    {
      "midi": 40,
      "time": 16.5,
      "duration": 0.075,
      "velocity": 0.56,
      "hand": "left"
    },
    {
      "midi": 62,
      "time": 16.5,
      "duration": 0.075,
      "velocity": 0.54,
      "hand": "right"
    },
    {
      "midi": 67,
      "time": 16.5,
      "duration": 0.285,
      "velocity": 0.81,
      "hand": "right"
    },
    {
      "midi": 36,
      "time": 16.8,
      "duration": 0.585,
      "velocity": 0.79,
      "hand": "left"
    },
    {
      "midi": 38,
      "time": 16.8,
      "duration": 0.075,
      "velocity": 0.39,
      "hand": "left"
    },
    {
      "midi": 62,
      "time": 16.8,
      "duration": 0.435,
      "velocity": 0.73,
      "hand": "right"
    },
    {
      "midi": 67,
      "time": 16.8,
      "duration": 0.285,
      "velocity": 0.7,
      "hand": "right"
    },
    {
      "midi": 69,
      "time": 16.8,
      "duration": 0.3,
      "velocity": 0.62,
      "hand": "right"
    },
    {
      "midi": 40,
      "time": 16.95,
      "duration": 0.075,
      "velocity": 0.61,
      "hand": "left"
    },
    {
      "midi": 38,
      "time": 17.1,
      "duration": 0.075,
      "velocity": 0.39,
      "hand": "left"
    },
    {
      "midi": 46,
      "time": 17.1,
      "duration": 0.075,
      "velocity": 0.51,
      "hand": "left"
    },
    {
      "midi": 67,
      "time": 17.1,
      "duration": 0.135,
      "velocity": 0.65,
      "hand": "right"
    },
    {
      "midi": 57,
      "time": 17.25,
      "duration": 0.075,
      "velocity": 0.54,
      "hand": "left"
    },
    {
      "midi": 62,
      "time": 17.25,
      "duration": 0.075,
      "velocity": 0.56,
      "hand": "right"
    },
    {
      "midi": 67,
      "time": 17.25,
      "duration": 0.135,
      "velocity": 0.52,
      "hand": "right"
    },
    {
      "midi": 36,
      "time": 17.4,
      "duration": 0.075,
      "velocity": 0.69,
      "hand": "left"
    },
    {
      "midi": 38,
      "time": 17.4,
      "duration": 0.075,
      "velocity": 0.39,
      "hand": "left"
    },
    {
      "midi": 62,
      "time": 17.4,
      "duration": 0.15,
      "velocity": 0.61,
      "hand": "right"
    },
    {
      "midi": 64,
      "time": 17.4,
      "duration": 0.3,
      "velocity": 0.65,
      "hand": "right"
    },
    {
      "midi": 67,
      "time": 17.4,
      "duration": 0.15,
      "velocity": 0.51,
      "hand": "right"
    },
    {
      "midi": 38,
      "time": 17.55,
      "duration": 0.075,
      "velocity": 0.39,
      "hand": "left"
    },
    {
      "midi": 36,
      "time": 17.7,
      "duration": 0.3,
      "velocity": 0.8,
      "hand": "left"
    },
    {
      "midi": 38,
      "time": 17.7,
      "duration": 0.075,
      "velocity": 0.39,
      "hand": "left"
    },
    {
      "midi": 62,
      "time": 17.7,
      "duration": 0.15,
      "velocity": 0.5,
      "hand": "right"
    },
    {
      "midi": 67,
      "time": 17.7,
      "duration": 0.15,
      "velocity": 0.52,
      "hand": "right"
    },
    {
      "midi": 38,
      "time": 17.85,
      "duration": 0.075,
      "velocity": 0.39,
      "hand": "left"
    },
    {
      "midi": 40,
      "time": 18,
      "duration": 0.435,
      "velocity": 0.97,
      "hand": "left"
    },
    {
      "midi": 42,
      "time": 18,
      "duration": 0.075,
      "velocity": 0.63,
      "hand": "left"
    },
    {
      "midi": 64,
      "time": 18,
      "duration": 0.585,
      "velocity": 0.64,
      "hand": "right"
    },
    {
      "midi": 67,
      "time": 18,
      "duration": 0.285,
      "velocity": 0.58,
      "hand": "right"
    },
    {
      "midi": 69,
      "time": 18,
      "duration": 0.6,
      "velocity": 0.62,
      "hand": "right"
    },
    {
      "midi": 46,
      "time": 18.3,
      "duration": 0.075,
      "velocity": 0.51,
      "hand": "left"
    },
    {
      "midi": 54,
      "time": 18.3,
      "duration": 0.075,
      "velocity": 0.43,
      "hand": "left"
    },
    {
      "midi": 62,
      "time": 18.3,
      "duration": 0.075,
      "velocity": 0.43,
      "hand": "right"
    },
    {
      "midi": 67,
      "time": 18.3,
      "duration": 0.3,
      "velocity": 0.65,
      "hand": "right"
    },
    {
      "midi": 38,
      "time": 18.45,
      "duration": 0.075,
      "velocity": 0.39,
      "hand": "left"
    },
    {
      "midi": 40,
      "time": 18.45,
      "duration": 0.075,
      "velocity": 0.56,
      "hand": "left"
    },
    {
      "midi": 36,
      "time": 18.6,
      "duration": 0.075,
      "velocity": 0.72,
      "hand": "left"
    },
    {
      "midi": 38,
      "time": 18.6,
      "duration": 0.075,
      "velocity": 0.39,
      "hand": "left"
    },
    {
      "midi": 62,
      "time": 18.6,
      "duration": 0.15,
      "velocity": 0.57,
      "hand": "right"
    },
    {
      "midi": 64,
      "time": 18.6,
      "duration": 0.3,
      "velocity": 0.77,
      "hand": "right"
    },
    {
      "midi": 66,
      "time": 18.6,
      "duration": 0.15,
      "velocity": 0.55,
      "hand": "right"
    },
    {
      "midi": 38,
      "time": 18.9,
      "duration": 0.075,
      "velocity": 0.39,
      "hand": "left"
    },
    {
      "midi": 40,
      "time": 18.9,
      "duration": 0.15,
      "velocity": 0.76,
      "hand": "left"
    },
    {
      "midi": 62,
      "time": 18.9,
      "duration": 0.15,
      "velocity": 0.51,
      "hand": "right"
    },
    {
      "midi": 67,
      "time": 18.9,
      "duration": 0.3,
      "velocity": 0.76,
      "hand": "right"
    },
    {
      "midi": 38,
      "time": 19.2,
      "duration": 0.585,
      "velocity": 0.78,
      "hand": "left"
    },
    {
      "midi": 42,
      "time": 19.2,
      "duration": 0.075,
      "velocity": 0.63,
      "hand": "left"
    },
    {
      "midi": 60,
      "time": 19.2,
      "duration": 0.285,
      "velocity": 0.74,
      "hand": "right"
    },
    {
      "midi": 62,
      "time": 19.2,
      "duration": 0.285,
      "velocity": 0.72,
      "hand": "right"
    },
    {
      "midi": 65,
      "time": 19.2,
      "duration": 0.285,
      "velocity": 0.64,
      "hand": "right"
    },
    {
      "midi": 69,
      "time": 19.2,
      "duration": 0.15,
      "velocity": 0.65,
      "hand": "right"
    },
    {
      "midi": 55,
      "time": 19.5,
      "duration": 0.15,
      "velocity": 0.58,
      "hand": "left"
    },
    {
      "midi": 60,
      "time": 19.5,
      "duration": 0.15,
      "velocity": 0.64,
      "hand": "right"
    },
    {
      "midi": 62,
      "time": 19.5,
      "duration": 0.15,
      "velocity": 0.64,
      "hand": "right"
    },
    {
      "midi": 65,
      "time": 19.5,
      "duration": 0.15,
      "velocity": 0.64,
      "hand": "right"
    },
    {
      "midi": 69,
      "time": 19.5,
      "duration": 0.3,
      "velocity": 0.62,
      "hand": "right"
    },
    {
      "midi": 36,
      "time": 19.8,
      "duration": 0.075,
      "velocity": 0.69,
      "hand": "left"
    },
    {
      "midi": 38,
      "time": 19.8,
      "duration": 0.075,
      "velocity": 0.39,
      "hand": "left"
    },
    {
      "midi": 61,
      "time": 19.8,
      "duration": 0.285,
      "velocity": 0.57,
      "hand": "right"
    },
    {
      "midi": 65,
      "time": 19.8,
      "duration": 0.285,
      "velocity": 0.5,
      "hand": "right"
    },
    {
      "midi": 71,
      "time": 19.8,
      "duration": 0.15,
      "velocity": 0.65,
      "hand": "right"
    },
    {
      "midi": 37,
      "time": 20.1,
      "duration": 0.3,
      "velocity": 0.77,
      "hand": "left"
    },
    {
      "midi": 55,
      "time": 20.1,
      "duration": 0.15,
      "velocity": 0.64,
      "hand": "left"
    },
    {
      "midi": 61,
      "time": 20.1,
      "duration": 0.15,
      "velocity": 0.55,
      "hand": "right"
    },
    {
      "midi": 65,
      "time": 20.1,
      "duration": 0.15,
      "velocity": 0.57,
      "hand": "right"
    },
    {
      "midi": 71,
      "time": 20.1,
      "duration": 0.15,
      "velocity": 0.64,
      "hand": "right"
    },
    {
      "midi": 36,
      "time": 20.4,
      "duration": 0.3,
      "velocity": 0.87,
      "hand": "left"
    },
    {
      "midi": 38,
      "time": 20.4,
      "duration": 0.075,
      "velocity": 0.39,
      "hand": "left"
    },
    {
      "midi": 62,
      "time": 20.4,
      "duration": 0.435,
      "velocity": 0.72,
      "hand": "right"
    },
    {
      "midi": 67,
      "time": 20.4,
      "duration": 0.435,
      "velocity": 0.68,
      "hand": "right"
    },
    {
      "midi": 72,
      "time": 20.4,
      "duration": 0.75,
      "velocity": 0.79,
      "hand": "right"
    },
    {
      "midi": 46,
      "time": 20.7,
      "duration": 0.075,
      "velocity": 0.51,
      "hand": "left"
    },
    {
      "midi": 54,
      "time": 20.7,
      "duration": 0.075,
      "velocity": 0.43,
      "hand": "left"
    },
    {
      "midi": 38,
      "time": 20.85,
      "duration": 0.075,
      "velocity": 0.39,
      "hand": "left"
    },
    {
      "midi": 40,
      "time": 20.85,
      "duration": 0.075,
      "velocity": 0.54,
      "hand": "left"
    },
    {
      "midi": 62,
      "time": 20.85,
      "duration": 0.075,
      "velocity": 0.65,
      "hand": "right"
    },
    {
      "midi": 67,
      "time": 20.85,
      "duration": 0.15,
      "velocity": 0.57,
      "hand": "right"
    },
    {
      "midi": 36,
      "time": 21,
      "duration": 0.075,
      "velocity": 0.72,
      "hand": "left"
    },
    {
      "midi": 38,
      "time": 21,
      "duration": 0.075,
      "velocity": 0.39,
      "hand": "left"
    },
    {
      "midi": 38,
      "time": 21.3,
      "duration": 0.075,
      "velocity": 0.39,
      "hand": "left"
    },
    {
      "midi": 40,
      "time": 21.3,
      "duration": 0.075,
      "velocity": 0.55,
      "hand": "left"
    },
    {
      "midi": 62,
      "time": 21.3,
      "duration": 0.075,
      "velocity": 0.72,
      "hand": "right"
    },
    {
      "midi": 67,
      "time": 21.3,
      "duration": 0.285,
      "velocity": 0.8,
      "hand": "right"
    },
    {
      "midi": 36,
      "time": 21.6,
      "duration": 0.585,
      "velocity": 0.79,
      "hand": "left"
    },
    {
      "midi": 38,
      "time": 21.6,
      "duration": 0.075,
      "velocity": 0.39,
      "hand": "left"
    },
    {
      "midi": 62,
      "time": 21.6,
      "duration": 0.285,
      "velocity": 0.73,
      "hand": "right"
    },
    {
      "midi": 67,
      "time": 21.6,
      "duration": 0.285,
      "velocity": 0.7,
      "hand": "right"
    },
    {
      "midi": 69,
      "time": 21.6,
      "duration": 0.3,
      "velocity": 0.64,
      "hand": "right"
    },
    {
      "midi": 38,
      "time": 21.9,
      "duration": 0.075,
      "velocity": 0.39,
      "hand": "left"
    },
    {
      "midi": 40,
      "time": 21.9,
      "duration": 0.075,
      "velocity": 0.63,
      "hand": "left"
    },
    {
      "midi": 62,
      "time": 21.9,
      "duration": 0.075,
      "velocity": 0.73,
      "hand": "right"
    },
    {
      "midi": 67,
      "time": 21.9,
      "duration": 0.285,
      "velocity": 0.62,
      "hand": "right"
    },
    {
      "midi": 36,
      "time": 22.2,
      "duration": 0.075,
      "velocity": 0.69,
      "hand": "left"
    },
    {
      "midi": 38,
      "time": 22.2,
      "duration": 0.075,
      "velocity": 0.39,
      "hand": "left"
    },
    {
      "midi": 62,
      "time": 22.2,
      "duration": 0.15,
      "velocity": 0.74,
      "hand": "right"
    },
    {
      "midi": 64,
      "time": 22.2,
      "duration": 0.3,
      "velocity": 0.8,
      "hand": "right"
    },
    {
      "midi": 67,
      "time": 22.2,
      "duration": 0.15,
      "velocity": 0.72,
      "hand": "right"
    },
    {
      "midi": 38,
      "time": 22.35,
      "duration": 0.075,
      "velocity": 0.39,
      "hand": "left"
    },
    {
      "midi": 40,
      "time": 22.35,
      "duration": 0.075,
      "velocity": 0.57,
      "hand": "left"
    },
    {
      "midi": 36,
      "time": 22.5,
      "duration": 0.3,
      "velocity": 0.8,
      "hand": "left"
    },
    {
      "midi": 38,
      "time": 22.5,
      "duration": 0.075,
      "velocity": 0.39,
      "hand": "left"
    },
    {
      "midi": 60,
      "time": 22.5,
      "duration": 0.075,
      "velocity": 0.54,
      "hand": "right"
    },
    {
      "midi": 62,
      "time": 22.5,
      "duration": 0.15,
      "velocity": 0.5,
      "hand": "right"
    },
    {
      "midi": 67,
      "time": 22.5,
      "duration": 0.285,
      "velocity": 0.76,
      "hand": "right"
    },
    {
      "midi": 38,
      "time": 22.65,
      "duration": 0.075,
      "velocity": 0.39,
      "hand": "left"
    },
    {
      "midi": 59,
      "time": 22.65,
      "duration": 0.135,
      "velocity": 0.43,
      "hand": "left"
    },
    {
      "midi": 38,
      "time": 22.8,
      "duration": 0.075,
      "velocity": 0.39,
      "hand": "left"
    },
    {
      "midi": 40,
      "time": 22.8,
      "duration": 0.435,
      "velocity": 0.97,
      "hand": "left"
    },
    {
      "midi": 64,
      "time": 22.8,
      "duration": 0.585,
      "velocity": 0.64,
      "hand": "right"
    },
    {
      "midi": 67,
      "time": 22.8,
      "duration": 0.285,
      "velocity": 0.58,
      "hand": "right"
    },
    {
      "midi": 69,
      "time": 22.8,
      "duration": 0.9,
      "velocity": 0.64,
      "hand": "right"
    },
    {
      "midi": 46,
      "time": 23.1,
      "duration": 0.075,
      "velocity": 0.51,
      "hand": "left"
    },
    {
      "midi": 54,
      "time": 23.1,
      "duration": 0.075,
      "velocity": 0.43,
      "hand": "left"
    },
    {
      "midi": 67,
      "time": 23.1,
      "duration": 0.3,
      "velocity": 0.62,
      "hand": "right"
    },
    {
      "midi": 38,
      "time": 23.25,
      "duration": 0.075,
      "velocity": 0.39,
      "hand": "left"
    },
    {
      "midi": 40,
      "time": 23.25,
      "duration": 0.075,
      "velocity": 0.72,
      "hand": "left"
    },
    {
      "midi": 62,
      "time": 23.25,
      "duration": 0.135,
      "velocity": 0.48,
      "hand": "right"
    },
    {
      "midi": 66,
      "time": 23.25,
      "duration": 0.135,
      "velocity": 0.51,
      "hand": "right"
    },
    {
      "midi": 36,
      "time": 23.4,
      "duration": 0.075,
      "velocity": 0.54,
      "hand": "left"
    },
    {
      "midi": 38,
      "time": 23.4,
      "duration": 0.075,
      "velocity": 0.39,
      "hand": "left"
    },
    {
      "midi": 62,
      "time": 23.4,
      "duration": 0.285,
      "velocity": 0.56,
      "hand": "right"
    },
    {
      "midi": 64,
      "time": 23.4,
      "duration": 0.3,
      "velocity": 0.7,
      "hand": "right"
    },
    {
      "midi": 66,
      "time": 23.4,
      "duration": 0.15,
      "velocity": 0.54,
      "hand": "right"
    },
    {
      "midi": 38,
      "time": 23.7,
      "duration": 0.075,
      "velocity": 0.39,
      "hand": "left"
    },
    {
      "midi": 40,
      "time": 23.7,
      "duration": 0.15,
      "velocity": 0.76,
      "hand": "left"
    },
    {
      "midi": 62,
      "time": 23.7,
      "duration": 0.15,
      "velocity": 0.5,
      "hand": "right"
    },
    {
      "midi": 67,
      "time": 23.7,
      "duration": 0.3,
      "velocity": 0.72,
      "hand": "right"
    },
    {
      "midi": 38,
      "time": 24,
      "duration": 0.585,
      "velocity": 0.78,
      "hand": "left"
    },
    {
      "midi": 42,
      "time": 24,
      "duration": 0.075,
      "velocity": 0.63,
      "hand": "left"
    },
    {
      "midi": 60,
      "time": 24,
      "duration": 0.285,
      "velocity": 0.74,
      "hand": "right"
    },
    {
      "midi": 62,
      "time": 24,
      "duration": 0.285,
      "velocity": 0.69,
      "hand": "right"
    },
    {
      "midi": 65,
      "time": 24,
      "duration": 0.285,
      "velocity": 0.7,
      "hand": "right"
    },
    {
      "midi": 69,
      "time": 24,
      "duration": 0.15,
      "velocity": 0.72,
      "hand": "right"
    },
    {
      "midi": 55,
      "time": 24.3,
      "duration": 0.15,
      "velocity": 0.64,
      "hand": "left"
    },
    {
      "midi": 60,
      "time": 24.3,
      "duration": 0.15,
      "velocity": 0.72,
      "hand": "right"
    },
    {
      "midi": 62,
      "time": 24.3,
      "duration": 0.15,
      "velocity": 0.65,
      "hand": "right"
    },
    {
      "midi": 65,
      "time": 24.3,
      "duration": 0.15,
      "velocity": 0.68,
      "hand": "right"
    },
    {
      "midi": 69,
      "time": 24.3,
      "duration": 0.3,
      "velocity": 0.66,
      "hand": "right"
    },
    {
      "midi": 36,
      "time": 24.6,
      "duration": 0.075,
      "velocity": 0.7,
      "hand": "left"
    },
    {
      "midi": 38,
      "time": 24.6,
      "duration": 0.075,
      "velocity": 0.39,
      "hand": "left"
    },
    {
      "midi": 62,
      "time": 24.6,
      "duration": 0.3,
      "velocity": 0.51,
      "hand": "right"
    },
    {
      "midi": 65,
      "time": 24.6,
      "duration": 0.285,
      "velocity": 0.58,
      "hand": "right"
    },
    {
      "midi": 71,
      "time": 24.6,
      "duration": 0.15,
      "velocity": 0.65,
      "hand": "right"
    },
    {
      "midi": 37,
      "time": 24.9,
      "duration": 0.3,
      "velocity": 0.77,
      "hand": "left"
    },
    {
      "midi": 55,
      "time": 24.9,
      "duration": 0.15,
      "velocity": 0.45,
      "hand": "left"
    },
    {
      "midi": 61,
      "time": 24.9,
      "duration": 0.15,
      "velocity": 0.45,
      "hand": "right"
    },
    {
      "midi": 65,
      "time": 24.9,
      "duration": 0.15,
      "velocity": 0.38,
      "hand": "right"
    },
    {
      "midi": 71,
      "time": 24.9,
      "duration": 0.15,
      "velocity": 0.66,
      "hand": "right"
    },
    {
      "midi": 36,
      "time": 25.2,
      "duration": 0.3,
      "velocity": 0.87,
      "hand": "left"
    },
    {
      "midi": 38,
      "time": 25.2,
      "duration": 0.075,
      "velocity": 0.39,
      "hand": "left"
    },
    {
      "midi": 62,
      "time": 25.2,
      "duration": 0.15,
      "velocity": 0.75,
      "hand": "right"
    },
    {
      "midi": 64,
      "time": 25.2,
      "duration": 0.3,
      "velocity": 0.59,
      "hand": "right"
    },
    {
      "midi": 67,
      "time": 25.2,
      "duration": 0.285,
      "velocity": 0.56,
      "hand": "right"
    },
    {
      "midi": 72,
      "time": 25.2,
      "duration": 0.45,
      "velocity": 0.74,
      "hand": "right"
    },
    {
      "midi": 43,
      "time": 25.5,
      "duration": 0.3,
      "velocity": 0.87,
      "hand": "left"
    },
    {
      "midi": 46,
      "time": 25.5,
      "duration": 0.075,
      "velocity": 0.51,
      "hand": "left"
    },
    {
      "midi": 60,
      "time": 25.5,
      "duration": 0.075,
      "velocity": 0.58,
      "hand": "right"
    },
    {
      "midi": 63,
      "time": 25.5,
      "duration": 0.45,
      "velocity": 0.78,
      "hand": "right"
    },
    {
      "midi": 67,
      "time": 25.5,
      "duration": 0.45,
      "velocity": 0.73,
      "hand": "right"
    },
    {
      "midi": 38,
      "time": 25.65,
      "duration": 0.075,
      "velocity": 0.39,
      "hand": "left"
    },
    {
      "midi": 40,
      "time": 25.65,
      "duration": 0.075,
      "velocity": 0.54,
      "hand": "left"
    },
    {
      "midi": 36,
      "time": 25.8,
      "duration": 0.075,
      "velocity": 0.69,
      "hand": "left"
    },
    {
      "midi": 38,
      "time": 25.8,
      "duration": 0.075,
      "velocity": 0.39,
      "hand": "left"
    },
    {
      "midi": 38,
      "time": 26.1,
      "duration": 0.075,
      "velocity": 0.39,
      "hand": "left"
    },
    {
      "midi": 40,
      "time": 26.1,
      "duration": 0.075,
      "velocity": 0.56,
      "hand": "left"
    },
    {
      "midi": 67,
      "time": 26.1,
      "duration": 0.285,
      "velocity": 0.94,
      "hand": "right"
    },
    {
      "midi": 36,
      "time": 26.4,
      "duration": 0.585,
      "velocity": 0.82,
      "hand": "left"
    },
    {
      "midi": 42,
      "time": 26.4,
      "duration": 0.075,
      "velocity": 0.63,
      "hand": "left"
    },
    {
      "midi": 62,
      "time": 26.4,
      "duration": 0.435,
      "velocity": 0.72,
      "hand": "right"
    },
    {
      "midi": 64,
      "time": 26.4,
      "duration": 1.05,
      "velocity": 0.61,
      "hand": "right"
    },
    {
      "midi": 67,
      "time": 26.4,
      "duration": 0.435,
      "velocity": 0.57,
      "hand": "right"
    },
    {
      "midi": 72,
      "time": 26.4,
      "duration": 0.45,
      "velocity": 0.9,
      "hand": "right"
    },
    {
      "midi": 50,
      "time": 26.55,
      "duration": 0.075,
      "velocity": 0.81,
      "hand": "left"
    },
    {
      "midi": 46,
      "time": 26.7,
      "duration": 0.075,
      "velocity": 0.51,
      "hand": "left"
    },
    {
      "midi": 50,
      "time": 26.7,
      "duration": 0.075,
      "velocity": 0.81,
      "hand": "left"
    },
    {
      "midi": 48,
      "time": 26.85,
      "duration": 0.075,
      "velocity": 0.81,
      "hand": "left"
    },
    {
      "midi": 57,
      "time": 26.85,
      "duration": 0.075,
      "velocity": 0.46,
      "hand": "left"
    },
    {
      "midi": 62,
      "time": 26.85,
      "duration": 0.075,
      "velocity": 0.52,
      "hand": "right"
    },
    {
      "midi": 67,
      "time": 26.85,
      "duration": 0.135,
      "velocity": 0.53,
      "hand": "right"
    },
    {
      "midi": 36,
      "time": 27,
      "duration": 0.075,
      "velocity": 0.69,
      "hand": "left"
    },
    {
      "midi": 41,
      "time": 27,
      "duration": 0.075,
      "velocity": 0.63,
      "hand": "left"
    },
    {
      "midi": 60,
      "time": 27,
      "duration": 0.15,
      "velocity": 0.52,
      "hand": "right"
    },
    {
      "midi": 62,
      "time": 27,
      "duration": 0.285,
      "velocity": 0.54,
      "hand": "right"
    },
    {
      "midi": 67,
      "time": 27,
      "duration": 0.285,
      "velocity": 0.35,
      "hand": "right"
    },
    {
      "midi": 71,
      "time": 27,
      "duration": 0.3,
      "velocity": 0.78,
      "hand": "right"
    },
    {
      "midi": 47,
      "time": 27.15,
      "duration": 0.075,
      "velocity": 0.81,
      "hand": "left"
    },
    {
      "midi": 36,
      "time": 27.3,
      "duration": 0.3,
      "velocity": 0.76,
      "hand": "left"
    },
    {
      "midi": 46,
      "time": 27.3,
      "duration": 0.075,
      "velocity": 0.51,
      "hand": "left"
    },
    {
      "midi": 62,
      "time": 27.3,
      "duration": 0.075,
      "velocity": 0.63,
      "hand": "right"
    },
    {
      "midi": 67,
      "time": 27.3,
      "duration": 0.15,
      "velocity": 0.57,
      "hand": "right"
    },
    {
      "midi": 69,
      "time": 27.3,
      "duration": 0.285,
      "velocity": 0.78,
      "hand": "right"
    },
    {
      "midi": 45,
      "time": 27.45,
      "duration": 0.075,
      "velocity": 0.81,
      "hand": "left"
    },
    {
      "midi": 38,
      "time": 27.6,
      "duration": 0.075,
      "velocity": 0.39,
      "hand": "left"
    },
    {
      "midi": 40,
      "time": 27.6,
      "duration": 0.285,
      "velocity": 0.7,
      "hand": "left"
    },
    {
      "midi": 64,
      "time": 27.6,
      "duration": 0.75,
      "velocity": 0.59,
      "hand": "right"
    },
    {
      "midi": 67,
      "time": 27.6,
      "duration": 0.75,
      "velocity": 0.56,
      "hand": "right"
    },
    {
      "midi": 69,
      "time": 27.6,
      "duration": 0.75,
      "velocity": 0.59,
      "hand": "right"
    },
    {
      "midi": 38,
      "time": 27.9,
      "duration": 0.075,
      "velocity": 0.39,
      "hand": "left"
    },
    {
      "midi": 40,
      "time": 27.9,
      "duration": 0.075,
      "velocity": 0.54,
      "hand": "left"
    },
    {
      "midi": 62,
      "time": 27.9,
      "duration": 0.075,
      "velocity": 0.52,
      "hand": "right"
    },
    {
      "midi": 66,
      "time": 27.9,
      "duration": 0.15,
      "velocity": 0.53,
      "hand": "right"
    },
    {
      "midi": 36,
      "time": 28.2,
      "duration": 0.075,
      "velocity": 0.7,
      "hand": "left"
    },
    {
      "midi": 38,
      "time": 28.2,
      "duration": 0.075,
      "velocity": 0.39,
      "hand": "left"
    },
    {
      "midi": 62,
      "time": 28.2,
      "duration": 0.075,
      "velocity": 0.49,
      "hand": "right"
    },
    {
      "midi": 66,
      "time": 28.2,
      "duration": 0.15,
      "velocity": 0.5,
      "hand": "right"
    },
    {
      "midi": 38,
      "time": 28.35,
      "duration": 0.075,
      "velocity": 0.39,
      "hand": "left"
    },
    {
      "midi": 40,
      "time": 28.35,
      "duration": 0.075,
      "velocity": 0.54,
      "hand": "left"
    },
    {
      "midi": 38,
      "time": 28.5,
      "duration": 0.075,
      "velocity": 0.39,
      "hand": "left"
    },
    {
      "midi": 40,
      "time": 28.5,
      "duration": 0.285,
      "velocity": 0.61,
      "hand": "left"
    },
    {
      "midi": 62,
      "time": 28.5,
      "duration": 0.075,
      "velocity": 0.49,
      "hand": "right"
    },
    {
      "midi": 66,
      "time": 28.5,
      "duration": 0.15,
      "velocity": 0.52,
      "hand": "right"
    },
    {
      "midi": 69,
      "time": 28.5,
      "duration": 0.3,
      "velocity": 0.8,
      "hand": "right"
    },
    {
      "midi": 38,
      "time": 28.65,
      "duration": 0.075,
      "velocity": 0.39,
      "hand": "left"
    },
    {
      "midi": 38,
      "time": 28.8,
      "duration": 0.435,
      "velocity": 0.78,
      "hand": "left"
    },
    {
      "midi": 40,
      "time": 28.8,
      "duration": 0.075,
      "velocity": 0.53,
      "hand": "left"
    },
    {
      "midi": 60,
      "time": 28.8,
      "duration": 0.285,
      "velocity": 0.61,
      "hand": "right"
    },
    {
      "midi": 62,
      "time": 28.8,
      "duration": 0.285,
      "velocity": 0.58,
      "hand": "right"
    },
    {
      "midi": 65,
      "time": 28.8,
      "duration": 0.285,
      "velocity": 0.56,
      "hand": "right"
    },
    {
      "midi": 67,
      "time": 28.8,
      "duration": 0.3,
      "velocity": 0.8,
      "hand": "right"
    },
    {
      "midi": 46,
      "time": 29.1,
      "duration": 0.075,
      "velocity": 0.51,
      "hand": "left"
    },
    {
      "midi": 54,
      "time": 29.1,
      "duration": 0.075,
      "velocity": 0.43,
      "hand": "left"
    },
    {
      "midi": 60,
      "time": 29.1,
      "duration": 0.075,
      "velocity": 0.57,
      "hand": "right"
    },
    {
      "midi": 62,
      "time": 29.1,
      "duration": 0.075,
      "velocity": 0.57,
      "hand": "right"
    },
    {
      "midi": 65,
      "time": 29.1,
      "duration": 0.075,
      "velocity": 0.57,
      "hand": "right"
    },
    {
      "midi": 69,
      "time": 29.1,
      "duration": 0.3,
      "velocity": 0.74,
      "hand": "right"
    },
    {
      "midi": 38,
      "time": 29.25,
      "duration": 0.075,
      "velocity": 0.39,
      "hand": "left"
    },
    {
      "midi": 40,
      "time": 29.25,
      "duration": 0.075,
      "velocity": 0.54,
      "hand": "left"
    },
    {
      "midi": 36,
      "time": 29.4,
      "duration": 0.075,
      "velocity": 0.69,
      "hand": "left"
    },
    {
      "midi": 38,
      "time": 29.4,
      "duration": 0.075,
      "velocity": 0.39,
      "hand": "left"
    },
    {
      "midi": 61,
      "time": 29.4,
      "duration": 0.285,
      "velocity": 0.72,
      "hand": "right"
    },
    {
      "midi": 65,
      "time": 29.4,
      "duration": 0.285,
      "velocity": 0.57,
      "hand": "right"
    },
    {
      "midi": 67,
      "time": 29.4,
      "duration": 0.3,
      "velocity": 0.79,
      "hand": "right"
    },
    {
      "midi": 38,
      "time": 29.7,
      "duration": 0.075,
      "velocity": 0.39,
      "hand": "left"
    },
    {
      "midi": 61,
      "time": 29.7,
      "duration": 0.15,
      "velocity": 0.48,
      "hand": "right"
    },
    {
      "midi": 65,
      "time": 29.7,
      "duration": 0.3,
      "velocity": 0.78,
      "hand": "right"
    },
    {
      "midi": 36,
      "time": 30,
      "duration": 0.585,
      "velocity": 0.83,
      "hand": "left"
    },
    {
      "midi": 38,
      "time": 30,
      "duration": 0.075,
      "velocity": 0.39,
      "hand": "left"
    },
    {
      "midi": 60,
      "time": 30,
      "duration": 0.075,
      "velocity": 0.49,
      "hand": "right"
    },
    {
      "midi": 62,
      "time": 30,
      "duration": 0.435,
      "velocity": 0.72,
      "hand": "right"
    },
    {
      "midi": 64,
      "time": 30,
      "duration": 0.135,
      "velocity": 0.79,
      "hand": "right"
    },
    {
      "midi": 67,
      "time": 30,
      "duration": 0.435,
      "velocity": 0.63,
      "hand": "right"
    },
    {
      "midi": 55,
      "time": 30.15,
      "duration": 1.035,
      "velocity": 0.46,
      "hand": "left"
    },
    {
      "midi": 60,
      "time": 30.15,
      "duration": 1.035,
      "velocity": 0.72,
      "hand": "right"
    },
    {
      "midi": 64,
      "time": 30.15,
      "duration": 1.035,
      "velocity": 0.65,
      "hand": "right"
    },
    {
      "midi": 38,
      "time": 30.3,
      "duration": 0.075,
      "velocity": 0.39,
      "hand": "left"
    },
    {
      "midi": 40,
      "time": 30.3,
      "duration": 0.075,
      "velocity": 0.61,
      "hand": "left"
    },
    {
      "midi": 57,
      "time": 30.45,
      "duration": 0.075,
      "velocity": 0.57,
      "hand": "left"
    },
    {
      "midi": 62,
      "time": 30.45,
      "duration": 0.075,
      "velocity": 0.54,
      "hand": "right"
    },
    {
      "midi": 67,
      "time": 30.45,
      "duration": 0.135,
      "velocity": 0.56,
      "hand": "right"
    },
    {
      "midi": 36,
      "time": 30.6,
      "duration": 0.075,
      "velocity": 0.69,
      "hand": "left"
    },
    {
      "midi": 38,
      "time": 30.6,
      "duration": 0.075,
      "velocity": 0.39,
      "hand": "left"
    },
    {
      "midi": 62,
      "time": 30.6,
      "duration": 0.075,
      "velocity": 0.57,
      "hand": "right"
    },
    {
      "midi": 67,
      "time": 30.6,
      "duration": 0.15,
      "velocity": 0.45,
      "hand": "right"
    },
    {
      "midi": 38,
      "time": 30.75,
      "duration": 0.075,
      "velocity": 0.39,
      "hand": "left"
    },
    {
      "midi": 40,
      "time": 30.75,
      "duration": 0.075,
      "velocity": 0.57,
      "hand": "left"
    },
    {
      "midi": 38,
      "time": 30.9,
      "duration": 0.075,
      "velocity": 0.39,
      "hand": "left"
    },
    {
      "midi": 46,
      "time": 30.9,
      "duration": 0.075,
      "velocity": 0.51,
      "hand": "left"
    },
    {
      "midi": 62,
      "time": 30.9,
      "duration": 0.075,
      "velocity": 0.54,
      "hand": "right"
    },
    {
      "midi": 67,
      "time": 30.9,
      "duration": 0.15,
      "velocity": 0.5,
      "hand": "right"
    },
    {
      "midi": 38,
      "time": 31.05,
      "duration": 0.075,
      "velocity": 0.39,
      "hand": "left"
    },
    {
      "midi": 36,
      "time": 31.2,
      "duration": 0.585,
      "velocity": 0.77,
      "hand": "left"
    },
    {
      "midi": 38,
      "time": 31.2,
      "duration": 0.075,
      "velocity": 0.39,
      "hand": "left"
    },
    {
      "midi": 60,
      "time": 31.2,
      "duration": 1.05,
      "velocity": 0.56,
      "hand": "right"
    },
    {
      "midi": 62,
      "time": 31.2,
      "duration": 0.285,
      "velocity": 0.68,
      "hand": "right"
    },
    {
      "midi": 64,
      "time": 31.2,
      "duration": 0.585,
      "velocity": 0.58,
      "hand": "right"
    },
    {
      "midi": 67,
      "time": 31.2,
      "duration": 0.285,
      "velocity": 0.98,
      "hand": "right"
    },
    {
      "midi": 46,
      "time": 31.5,
      "duration": 0.075,
      "velocity": 0.51,
      "hand": "left"
    },
    {
      "midi": 54,
      "time": 31.5,
      "duration": 0.075,
      "velocity": 0.43,
      "hand": "left"
    },
    {
      "midi": 62,
      "time": 31.5,
      "duration": 0.075,
      "velocity": 0.65,
      "hand": "right"
    },
    {
      "midi": 67,
      "time": 31.5,
      "duration": 0.15,
      "velocity": 0.54,
      "hand": "right"
    },
    {
      "midi": 38,
      "time": 31.65,
      "duration": 0.075,
      "velocity": 0.39,
      "hand": "left"
    },
    {
      "midi": 40,
      "time": 31.65,
      "duration": 0.075,
      "velocity": 0.57,
      "hand": "left"
    },
    {
      "midi": 36,
      "time": 31.8,
      "duration": 0.075,
      "velocity": 0.61,
      "hand": "left"
    },
    {
      "midi": 38,
      "time": 31.8,
      "duration": 0.075,
      "velocity": 0.39,
      "hand": "left"
    },
    {
      "midi": 62,
      "time": 31.8,
      "duration": 0.075,
      "velocity": 0.61,
      "hand": "right"
    },
    {
      "midi": 64,
      "time": 31.8,
      "duration": 0.45,
      "velocity": 0.75,
      "hand": "right"
    },
    {
      "midi": 67,
      "time": 31.8,
      "duration": 0.075,
      "velocity": 0.51,
      "hand": "right"
    },
    {
      "midi": 38,
      "time": 32.1,
      "duration": 0.075,
      "velocity": 0.39,
      "hand": "left"
    },
    {
      "midi": 40,
      "time": 32.1,
      "duration": 0.075,
      "velocity": 0.61,
      "hand": "left"
    },
    {
      "midi": 62,
      "time": 32.1,
      "duration": 0.075,
      "velocity": 0.56,
      "hand": "right"
    },
    {
      "midi": 67,
      "time": 32.1,
      "duration": 0.15,
      "velocity": 0.59,
      "hand": "right"
    },
    {
      "midi": 38,
      "time": 32.4,
      "duration": 0.075,
      "velocity": 0.39,
      "hand": "left"
    },
    {
      "midi": 40,
      "time": 32.4,
      "duration": 0.285,
      "velocity": 0.77,
      "hand": "left"
    },
    {
      "midi": 64,
      "time": 32.4,
      "duration": 0.585,
      "velocity": 0.64,
      "hand": "right"
    },
    {
      "midi": 67,
      "time": 32.4,
      "duration": 1.05,
      "velocity": 0.9,
      "hand": "right"
    },
    {
      "midi": 69,
      "time": 32.4,
      "duration": 1.05,
      "velocity": 0.54,
      "hand": "right"
    },
    {
      "midi": 55,
      "time": 32.55,
      "duration": 0.15,
      "velocity": 0.52,
      "hand": "left"
    },
    {
      "midi": 59,
      "time": 32.55,
      "duration": 0.075,
      "velocity": 0.51,
      "hand": "left"
    },
    {
      "midi": 62,
      "time": 32.55,
      "duration": 0.075,
      "velocity": 0.51,
      "hand": "right"
    },
    {
      "midi": 66,
      "time": 32.55,
      "duration": 0.15,
      "velocity": 0.4,
      "hand": "right"
    },
    {
      "midi": 38,
      "time": 32.7,
      "duration": 0.075,
      "velocity": 0.39,
      "hand": "left"
    },
    {
      "midi": 40,
      "time": 32.7,
      "duration": 0.075,
      "velocity": 0.61,
      "hand": "left"
    },
    {
      "midi": 55,
      "time": 32.85,
      "duration": 0.075,
      "velocity": 0.51,
      "hand": "left"
    },
    {
      "midi": 59,
      "time": 32.85,
      "duration": 0.075,
      "velocity": 0.46,
      "hand": "left"
    },
    {
      "midi": 62,
      "time": 32.85,
      "duration": 0.075,
      "velocity": 0.49,
      "hand": "right"
    },
    {
      "midi": 66,
      "time": 32.85,
      "duration": 0.135,
      "velocity": 0.47,
      "hand": "right"
    },
    {
      "midi": 36,
      "time": 33,
      "duration": 0.075,
      "velocity": 0.72,
      "hand": "left"
    },
    {
      "midi": 38,
      "time": 33,
      "duration": 0.075,
      "velocity": 0.39,
      "hand": "left"
    },
    {
      "midi": 62,
      "time": 33,
      "duration": 0.075,
      "velocity": 0.5,
      "hand": "right"
    },
    {
      "midi": 64,
      "time": 33,
      "duration": 0.585,
      "velocity": 0.83,
      "hand": "right"
    },
    {
      "midi": 66,
      "time": 33,
      "duration": 0.15,
      "velocity": 0.43,
      "hand": "right"
    },
    {
      "midi": 38,
      "time": 33.15,
      "duration": 0.075,
      "velocity": 0.39,
      "hand": "left"
    },
    {
      "midi": 40,
      "time": 33.15,
      "duration": 0.075,
      "velocity": 0.54,
      "hand": "left"
    },
    {
      "midi": 38,
      "time": 33.3,
      "duration": 0.075,
      "velocity": 0.39,
      "hand": "left"
    },
    {
      "midi": 46,
      "time": 33.3,
      "duration": 0.075,
      "velocity": 0.51,
      "hand": "left"
    },
    {
      "midi": 62,
      "time": 33.3,
      "duration": 0.15,
      "velocity": 0.49,
      "hand": "right"
    },
    {
      "midi": 66,
      "time": 33.3,
      "duration": 0.15,
      "velocity": 0.19,
      "hand": "right"
    },
    {
      "midi": 38,
      "time": 33.45,
      "duration": 0.075,
      "velocity": 0.39,
      "hand": "left"
    },
    {
      "midi": 38,
      "time": 33.6,
      "duration": 0.435,
      "velocity": 0.8,
      "hand": "left"
    },
    {
      "midi": 40,
      "time": 33.6,
      "duration": 0.075,
      "velocity": 0.57,
      "hand": "left"
    },
    {
      "midi": 62,
      "time": 33.6,
      "duration": 0.285,
      "velocity": 0.73,
      "hand": "right"
    },
    {
      "midi": 65,
      "time": 33.6,
      "duration": 0.285,
      "velocity": 0.68,
      "hand": "right"
    },
    {
      "midi": 67,
      "time": 33.6,
      "duration": 0.285,
      "velocity": 0.98,
      "hand": "right"
    },
    {
      "midi": 46,
      "time": 33.9,
      "duration": 0.075,
      "velocity": 0.51,
      "hand": "left"
    },
    {
      "midi": 54,
      "time": 33.9,
      "duration": 0.075,
      "velocity": 0.43,
      "hand": "left"
    },
    {
      "midi": 60,
      "time": 33.9,
      "duration": 0.15,
      "velocity": 0.63,
      "hand": "right"
    },
    {
      "midi": 62,
      "time": 33.9,
      "duration": 0.15,
      "velocity": 0.61,
      "hand": "right"
    },
    {
      "midi": 65,
      "time": 33.9,
      "duration": 0.15,
      "velocity": 0.58,
      "hand": "right"
    },
    {
      "midi": 67,
      "time": 33.9,
      "duration": 0.15,
      "velocity": 0.97,
      "hand": "right"
    },
    {
      "midi": 38,
      "time": 34.05,
      "duration": 0.075,
      "velocity": 0.39,
      "hand": "left"
    },
    {
      "midi": 40,
      "time": 34.05,
      "duration": 0.075,
      "velocity": 0.65,
      "hand": "left"
    },
    {
      "midi": 36,
      "time": 34.2,
      "duration": 0.075,
      "velocity": 0.72,
      "hand": "left"
    },
    {
      "midi": 38,
      "time": 34.2,
      "duration": 0.075,
      "velocity": 0.39,
      "hand": "left"
    },
    {
      "midi": 62,
      "time": 34.2,
      "duration": 0.45,
      "velocity": 0.49,
      "hand": "right"
    },
    {
      "midi": 65,
      "time": 34.2,
      "duration": 0.285,
      "velocity": 0.68,
      "hand": "right"
    },
    {
      "midi": 72,
      "time": 34.2,
      "duration": 0.15,
      "velocity": 0.98,
      "hand": "right"
    },
    {
      "midi": 38,
      "time": 34.5,
      "duration": 0.075,
      "velocity": 0.39,
      "hand": "left"
    },
    {
      "midi": 40,
      "time": 34.5,
      "duration": 0.075,
      "velocity": 0.57,
      "hand": "left"
    },
    {
      "midi": 61,
      "time": 34.5,
      "duration": 0.15,
      "velocity": 0.53,
      "hand": "right"
    },
    {
      "midi": 65,
      "time": 34.5,
      "duration": 0.15,
      "velocity": 0.52,
      "hand": "right"
    },
    {
      "midi": 74,
      "time": 34.5,
      "duration": 0.3,
      "velocity": 0.88,
      "hand": "right"
    },
    {
      "midi": 36,
      "time": 34.8,
      "duration": 0.45,
      "velocity": 0.79,
      "hand": "left"
    },
    {
      "midi": 38,
      "time": 34.8,
      "duration": 0.075,
      "velocity": 0.39,
      "hand": "left"
    },
    {
      "midi": 62,
      "time": 34.8,
      "duration": 0.435,
      "velocity": 0.73,
      "hand": "right"
    },
    {
      "midi": 67,
      "time": 34.8,
      "duration": 0.435,
      "velocity": 0.68,
      "hand": "right"
    },
    {
      "midi": 76,
      "time": 34.8,
      "duration": 0.75,
      "velocity": 0.93,
      "hand": "right"
    },
    {
      "midi": 38,
      "time": 35.1,
      "duration": 0.075,
      "velocity": 0.39,
      "hand": "left"
    },
    {
      "midi": 40,
      "time": 35.1,
      "duration": 0.075,
      "velocity": 0.57,
      "hand": "left"
    },
    {
      "midi": 57,
      "time": 35.25,
      "duration": 0.075,
      "velocity": 0.54,
      "hand": "left"
    },
    {
      "midi": 62,
      "time": 35.25,
      "duration": 0.075,
      "velocity": 0.61,
      "hand": "right"
    },
    {
      "midi": 67,
      "time": 35.25,
      "duration": 0.135,
      "velocity": 0.56,
      "hand": "right"
    },
    {
      "midi": 36,
      "time": 35.4,
      "duration": 0.075,
      "velocity": 0.72,
      "hand": "left"
    },
    {
      "midi": 38,
      "time": 35.4,
      "duration": 0.075,
      "velocity": 0.39,
      "hand": "left"
    },
    {
      "midi": 62,
      "time": 35.4,
      "duration": 0.075,
      "velocity": 0.64,
      "hand": "right"
    },
    {
      "midi": 67,
      "time": 35.4,
      "duration": 0.15,
      "velocity": 0.54,
      "hand": "right"
    },
    {
      "midi": 38,
      "time": 35.55,
      "duration": 0.075,
      "velocity": 0.39,
      "hand": "left"
    },
    {
      "midi": 40,
      "time": 35.55,
      "duration": 0.075,
      "velocity": 0.68,
      "hand": "left"
    },
    {
      "midi": 38,
      "time": 35.7,
      "duration": 0.075,
      "velocity": 0.39,
      "hand": "left"
    },
    {
      "midi": 46,
      "time": 35.7,
      "duration": 0.075,
      "velocity": 0.51,
      "hand": "left"
    },
    {
      "midi": 62,
      "time": 35.7,
      "duration": 0.075,
      "velocity": 0.64,
      "hand": "right"
    },
    {
      "midi": 67,
      "time": 35.7,
      "duration": 0.15,
      "velocity": 0.5,
      "hand": "right"
    },
    {
      "midi": 74,
      "time": 35.7,
      "duration": 0.3,
      "velocity": 0.86,
      "hand": "right"
    },
    {
      "midi": 38,
      "time": 35.85,
      "duration": 0.075,
      "velocity": 0.39,
      "hand": "left"
    },
    {
      "midi": 52,
      "time": 35.85,
      "duration": 1.05,
      "velocity": 0.49,
      "hand": "left"
    },
    {
      "midi": 36,
      "time": 36,
      "duration": 0.585,
      "velocity": 0.78,
      "hand": "left"
    },
    {
      "midi": 38,
      "time": 36,
      "duration": 0.075,
      "velocity": 0.39,
      "hand": "left"
    },
    {
      "midi": 60,
      "time": 36,
      "duration": 1.05,
      "velocity": 0.57,
      "hand": "right"
    },
    {
      "midi": 62,
      "time": 36,
      "duration": 0.285,
      "velocity": 0.58,
      "hand": "right"
    },
    {
      "midi": 67,
      "time": 36,
      "duration": 0.585,
      "velocity": 0.55,
      "hand": "right"
    },
    {
      "midi": 72,
      "time": 36,
      "duration": 0.6,
      "velocity": 0.94,
      "hand": "right"
    },
    {
      "midi": 46,
      "time": 36.3,
      "duration": 0.075,
      "velocity": 0.51,
      "hand": "left"
    },
    {
      "midi": 54,
      "time": 36.3,
      "duration": 0.075,
      "velocity": 0.43,
      "hand": "left"
    },
    {
      "midi": 62,
      "time": 36.3,
      "duration": 0.075,
      "velocity": 0.57,
      "hand": "right"
    },
    {
      "midi": 38,
      "time": 36.45,
      "duration": 0.075,
      "velocity": 0.39,
      "hand": "left"
    },
    {
      "midi": 40,
      "time": 36.45,
      "duration": 0.075,
      "velocity": 0.59,
      "hand": "left"
    },
    {
      "midi": 36,
      "time": 36.6,
      "duration": 0.075,
      "velocity": 0.69,
      "hand": "left"
    },
    {
      "midi": 38,
      "time": 36.6,
      "duration": 0.075,
      "velocity": 0.39,
      "hand": "left"
    },
    {
      "midi": 62,
      "time": 36.6,
      "duration": 0.075,
      "velocity": 0.7,
      "hand": "right"
    },
    {
      "midi": 67,
      "time": 36.6,
      "duration": 0.15,
      "velocity": 0.61,
      "hand": "right"
    },
    {
      "midi": 38,
      "time": 36.9,
      "duration": 0.075,
      "velocity": 0.39,
      "hand": "left"
    },
    {
      "midi": 40,
      "time": 36.9,
      "duration": 0.075,
      "velocity": 0.56,
      "hand": "left"
    },
    {
      "midi": 62,
      "time": 36.9,
      "duration": 0.075,
      "velocity": 0.54,
      "hand": "right"
    },
    {
      "midi": 67,
      "time": 36.9,
      "duration": 0.285,
      "velocity": 0.97,
      "hand": "right"
    },
    {
      "midi": 36,
      "time": 37.2,
      "duration": 0.585,
      "velocity": 0.79,
      "hand": "left"
    },
    {
      "midi": 38,
      "time": 37.2,
      "duration": 0.075,
      "velocity": 0.39,
      "hand": "left"
    },
    {
      "midi": 60,
      "time": 37.2,
      "duration": 1.05,
      "velocity": 0.76,
      "hand": "right"
    },
    {
      "midi": 62,
      "time": 37.2,
      "duration": 0.435,
      "velocity": 0.75,
      "hand": "right"
    },
    {
      "midi": 67,
      "time": 37.2,
      "duration": 0.285,
      "velocity": 0.72,
      "hand": "right"
    },
    {
      "midi": 69,
      "time": 37.2,
      "duration": 0.3,
      "velocity": 0.78,
      "hand": "right"
    },
    {
      "midi": 40,
      "time": 37.35,
      "duration": 0.075,
      "velocity": 0.61,
      "hand": "left"
    },
    {
      "midi": 38,
      "time": 37.5,
      "duration": 0.075,
      "velocity": 0.39,
      "hand": "left"
    },
    {
      "midi": 46,
      "time": 37.5,
      "duration": 0.075,
      "velocity": 0.51,
      "hand": "left"
    },
    {
      "midi": 67,
      "time": 37.5,
      "duration": 0.135,
      "velocity": 0.81,
      "hand": "right"
    },
    {
      "midi": 57,
      "time": 37.65,
      "duration": 0.075,
      "velocity": 0.54,
      "hand": "left"
    },
    {
      "midi": 62,
      "time": 37.65,
      "duration": 0.075,
      "velocity": 0.56,
      "hand": "right"
    },
    {
      "midi": 67,
      "time": 37.65,
      "duration": 0.135,
      "velocity": 0.52,
      "hand": "right"
    },
    {
      "midi": 36,
      "time": 37.8,
      "duration": 0.075,
      "velocity": 0.69,
      "hand": "left"
    },
    {
      "midi": 38,
      "time": 37.8,
      "duration": 0.075,
      "velocity": 0.39,
      "hand": "left"
    },
    {
      "midi": 62,
      "time": 37.8,
      "duration": 0.15,
      "velocity": 0.61,
      "hand": "right"
    },
    {
      "midi": 64,
      "time": 37.8,
      "duration": 0.3,
      "velocity": 0.81,
      "hand": "right"
    },
    {
      "midi": 67,
      "time": 37.8,
      "duration": 0.15,
      "velocity": 0.51,
      "hand": "right"
    },
    {
      "midi": 38,
      "time": 37.95,
      "duration": 0.075,
      "velocity": 0.39,
      "hand": "left"
    },
    {
      "midi": 36,
      "time": 38.1,
      "duration": 0.3,
      "velocity": 0.8,
      "hand": "left"
    },
    {
      "midi": 38,
      "time": 38.1,
      "duration": 0.075,
      "velocity": 0.39,
      "hand": "left"
    },
    {
      "midi": 62,
      "time": 38.1,
      "duration": 0.15,
      "velocity": 0.5,
      "hand": "right"
    },
    {
      "midi": 67,
      "time": 38.1,
      "duration": 0.15,
      "velocity": 0.52,
      "hand": "right"
    },
    {
      "midi": 38,
      "time": 38.25,
      "duration": 0.075,
      "velocity": 0.39,
      "hand": "left"
    },
    {
      "midi": 40,
      "time": 38.4,
      "duration": 0.435,
      "velocity": 0.97,
      "hand": "left"
    },
    {
      "midi": 42,
      "time": 38.4,
      "duration": 0.075,
      "velocity": 0.63,
      "hand": "left"
    },
    {
      "midi": 64,
      "time": 38.4,
      "duration": 0.585,
      "velocity": 0.64,
      "hand": "right"
    },
    {
      "midi": 67,
      "time": 38.4,
      "duration": 0.285,
      "velocity": 0.58,
      "hand": "right"
    },
    {
      "midi": 69,
      "time": 38.4,
      "duration": 0.6,
      "velocity": 0.78,
      "hand": "right"
    },
    {
      "midi": 46,
      "time": 38.7,
      "duration": 0.075,
      "velocity": 0.51,
      "hand": "left"
    },
    {
      "midi": 54,
      "time": 38.7,
      "duration": 0.075,
      "velocity": 0.43,
      "hand": "left"
    },
    {
      "midi": 62,
      "time": 38.7,
      "duration": 0.075,
      "velocity": 0.43,
      "hand": "right"
    },
    {
      "midi": 67,
      "time": 38.7,
      "duration": 0.3,
      "velocity": 0.8,
      "hand": "right"
    },
    {
      "midi": 38,
      "time": 38.85,
      "duration": 0.075,
      "velocity": 0.39,
      "hand": "left"
    },
    {
      "midi": 40,
      "time": 38.85,
      "duration": 0.075,
      "velocity": 0.56,
      "hand": "left"
    },
    {
      "midi": 36,
      "time": 39,
      "duration": 0.075,
      "velocity": 0.72,
      "hand": "left"
    },
    {
      "midi": 38,
      "time": 39,
      "duration": 0.075,
      "velocity": 0.39,
      "hand": "left"
    },
    {
      "midi": 62,
      "time": 39,
      "duration": 0.15,
      "velocity": 0.57,
      "hand": "right"
    },
    {
      "midi": 64,
      "time": 39,
      "duration": 0.3,
      "velocity": 0.93,
      "hand": "right"
    },
    {
      "midi": 66,
      "time": 39,
      "duration": 0.15,
      "velocity": 0.55,
      "hand": "right"
    },
    {
      "midi": 38,
      "time": 39.3,
      "duration": 0.075,
      "velocity": 0.39,
      "hand": "left"
    },
    {
      "midi": 40,
      "time": 39.3,
      "duration": 0.15,
      "velocity": 0.76,
      "hand": "left"
    },
    {
      "midi": 62,
      "time": 39.3,
      "duration": 0.15,
      "velocity": 0.51,
      "hand": "right"
    },
    {
      "midi": 67,
      "time": 39.3,
      "duration": 0.3,
      "velocity": 0.92,
      "hand": "right"
    },
    {
      "midi": 38,
      "time": 39.6,
      "duration": 0.585,
      "velocity": 0.78,
      "hand": "left"
    },
    {
      "midi": 42,
      "time": 39.6,
      "duration": 0.075,
      "velocity": 0.63,
      "hand": "left"
    },
    {
      "midi": 60,
      "time": 39.6,
      "duration": 0.285,
      "velocity": 0.74,
      "hand": "right"
    },
    {
      "midi": 62,
      "time": 39.6,
      "duration": 0.285,
      "velocity": 0.72,
      "hand": "right"
    },
    {
      "midi": 65,
      "time": 39.6,
      "duration": 0.285,
      "velocity": 0.64,
      "hand": "right"
    },
    {
      "midi": 69,
      "time": 39.6,
      "duration": 0.15,
      "velocity": 0.81,
      "hand": "right"
    },
    {
      "midi": 55,
      "time": 39.9,
      "duration": 0.15,
      "velocity": 0.58,
      "hand": "left"
    },
    {
      "midi": 60,
      "time": 39.9,
      "duration": 0.15,
      "velocity": 0.64,
      "hand": "right"
    },
    {
      "midi": 62,
      "time": 39.9,
      "duration": 0.15,
      "velocity": 0.64,
      "hand": "right"
    },
    {
      "midi": 65,
      "time": 39.9,
      "duration": 0.15,
      "velocity": 0.64,
      "hand": "right"
    },
    {
      "midi": 69,
      "time": 39.9,
      "duration": 0.3,
      "velocity": 0.78,
      "hand": "right"
    },
    {
      "midi": 36,
      "time": 40.2,
      "duration": 0.075,
      "velocity": 0.69,
      "hand": "left"
    },
    {
      "midi": 38,
      "time": 40.2,
      "duration": 0.075,
      "velocity": 0.39,
      "hand": "left"
    },
    {
      "midi": 62,
      "time": 40.2,
      "duration": 0.45,
      "velocity": 0.56,
      "hand": "right"
    },
    {
      "midi": 65,
      "time": 40.2,
      "duration": 0.285,
      "velocity": 0.5,
      "hand": "right"
    },
    {
      "midi": 71,
      "time": 40.2,
      "duration": 0.15,
      "velocity": 0.8,
      "hand": "right"
    },
    {
      "midi": 37,
      "time": 40.5,
      "duration": 0.3,
      "velocity": 0.77,
      "hand": "left"
    },
    {
      "midi": 55,
      "time": 40.5,
      "duration": 0.15,
      "velocity": 0.64,
      "hand": "left"
    },
    {
      "midi": 61,
      "time": 40.5,
      "duration": 0.15,
      "velocity": 0.55,
      "hand": "right"
    },
    {
      "midi": 65,
      "time": 40.5,
      "duration": 0.15,
      "velocity": 0.57,
      "hand": "right"
    },
    {
      "midi": 71,
      "time": 40.5,
      "duration": 0.15,
      "velocity": 0.8,
      "hand": "right"
    },
    {
      "midi": 36,
      "time": 40.8,
      "duration": 0.3,
      "velocity": 0.87,
      "hand": "left"
    },
    {
      "midi": 38,
      "time": 40.8,
      "duration": 0.075,
      "velocity": 0.39,
      "hand": "left"
    },
    {
      "midi": 62,
      "time": 40.8,
      "duration": 0.435,
      "velocity": 0.72,
      "hand": "right"
    },
    {
      "midi": 67,
      "time": 40.8,
      "duration": 0.435,
      "velocity": 0.68,
      "hand": "right"
    },
    {
      "midi": 72,
      "time": 40.8,
      "duration": 0.75,
      "velocity": 0.94,
      "hand": "right"
    },
    {
      "midi": 46,
      "time": 41.1,
      "duration": 0.075,
      "velocity": 0.51,
      "hand": "left"
    },
    {
      "midi": 54,
      "time": 41.1,
      "duration": 0.075,
      "velocity": 0.43,
      "hand": "left"
    },
    {
      "midi": 38,
      "time": 41.25,
      "duration": 0.075,
      "velocity": 0.39,
      "hand": "left"
    },
    {
      "midi": 40,
      "time": 41.25,
      "duration": 0.075,
      "velocity": 0.54,
      "hand": "left"
    },
    {
      "midi": 62,
      "time": 41.25,
      "duration": 0.075,
      "velocity": 0.65,
      "hand": "right"
    },
    {
      "midi": 67,
      "time": 41.25,
      "duration": 0.15,
      "velocity": 0.57,
      "hand": "right"
    },
    {
      "midi": 36,
      "time": 41.4,
      "duration": 0.075,
      "velocity": 0.72,
      "hand": "left"
    },
    {
      "midi": 38,
      "time": 41.4,
      "duration": 0.075,
      "velocity": 0.39,
      "hand": "left"
    },
    {
      "midi": 38,
      "time": 41.7,
      "duration": 0.075,
      "velocity": 0.39,
      "hand": "left"
    },
    {
      "midi": 40,
      "time": 41.7,
      "duration": 0.075,
      "velocity": 0.55,
      "hand": "left"
    },
    {
      "midi": 62,
      "time": 41.7,
      "duration": 0.075,
      "velocity": 0.72,
      "hand": "right"
    },
    {
      "midi": 67,
      "time": 41.7,
      "duration": 0.285,
      "velocity": 0.96,
      "hand": "right"
    },
    {
      "midi": 36,
      "time": 42,
      "duration": 0.585,
      "velocity": 0.79,
      "hand": "left"
    },
    {
      "midi": 38,
      "time": 42,
      "duration": 0.075,
      "velocity": 0.39,
      "hand": "left"
    },
    {
      "midi": 60,
      "time": 42,
      "duration": 0.885,
      "velocity": 0.72,
      "hand": "right"
    },
    {
      "midi": 62,
      "time": 42,
      "duration": 0.285,
      "velocity": 0.73,
      "hand": "right"
    },
    {
      "midi": 67,
      "time": 42,
      "duration": 0.285,
      "velocity": 0.7,
      "hand": "right"
    },
    {
      "midi": 69,
      "time": 42,
      "duration": 0.3,
      "velocity": 0.8,
      "hand": "right"
    },
    {
      "midi": 38,
      "time": 42.3,
      "duration": 0.075,
      "velocity": 0.39,
      "hand": "left"
    },
    {
      "midi": 40,
      "time": 42.3,
      "duration": 0.075,
      "velocity": 0.63,
      "hand": "left"
    },
    {
      "midi": 62,
      "time": 42.3,
      "duration": 0.075,
      "velocity": 0.73,
      "hand": "right"
    },
    {
      "midi": 67,
      "time": 42.3,
      "duration": 0.285,
      "velocity": 0.78,
      "hand": "right"
    },
    {
      "midi": 36,
      "time": 42.6,
      "duration": 0.075,
      "velocity": 0.69,
      "hand": "left"
    },
    {
      "midi": 38,
      "time": 42.6,
      "duration": 0.075,
      "velocity": 0.39,
      "hand": "left"
    },
    {
      "midi": 62,
      "time": 42.6,
      "duration": 0.15,
      "velocity": 0.74,
      "hand": "right"
    },
    {
      "midi": 64,
      "time": 42.6,
      "duration": 0.3,
      "velocity": 0.96,
      "hand": "right"
    },
    {
      "midi": 67,
      "time": 42.6,
      "duration": 0.15,
      "velocity": 0.72,
      "hand": "right"
    },
    {
      "midi": 38,
      "time": 42.75,
      "duration": 0.075,
      "velocity": 0.39,
      "hand": "left"
    },
    {
      "midi": 40,
      "time": 42.75,
      "duration": 0.075,
      "velocity": 0.57,
      "hand": "left"
    },
    {
      "midi": 36,
      "time": 42.9,
      "duration": 0.3,
      "velocity": 0.8,
      "hand": "left"
    },
    {
      "midi": 38,
      "time": 42.9,
      "duration": 0.075,
      "velocity": 0.39,
      "hand": "left"
    },
    {
      "midi": 60,
      "time": 42.9,
      "duration": 0.075,
      "velocity": 0.54,
      "hand": "right"
    },
    {
      "midi": 62,
      "time": 42.9,
      "duration": 0.15,
      "velocity": 0.5,
      "hand": "right"
    },
    {
      "midi": 67,
      "time": 42.9,
      "duration": 0.285,
      "velocity": 0.92,
      "hand": "right"
    },
    {
      "midi": 38,
      "time": 43.05,
      "duration": 0.075,
      "velocity": 0.39,
      "hand": "left"
    },
    {
      "midi": 59,
      "time": 43.05,
      "duration": 0.135,
      "velocity": 0.43,
      "hand": "left"
    },
    {
      "midi": 38,
      "time": 43.2,
      "duration": 0.075,
      "velocity": 0.39,
      "hand": "left"
    },
    {
      "midi": 40,
      "time": 43.2,
      "duration": 0.435,
      "velocity": 0.97,
      "hand": "left"
    },
    {
      "midi": 64,
      "time": 43.2,
      "duration": 0.585,
      "velocity": 0.64,
      "hand": "right"
    },
    {
      "midi": 67,
      "time": 43.2,
      "duration": 0.285,
      "velocity": 0.58,
      "hand": "right"
    },
    {
      "midi": 69,
      "time": 43.2,
      "duration": 0.9,
      "velocity": 0.78,
      "hand": "right"
    },
    {
      "midi": 46,
      "time": 43.5,
      "duration": 0.075,
      "velocity": 0.51,
      "hand": "left"
    },
    {
      "midi": 54,
      "time": 43.5,
      "duration": 0.075,
      "velocity": 0.43,
      "hand": "left"
    },
    {
      "midi": 67,
      "time": 43.5,
      "duration": 0.3,
      "velocity": 0.78,
      "hand": "right"
    },
    {
      "midi": 38,
      "time": 43.65,
      "duration": 0.075,
      "velocity": 0.39,
      "hand": "left"
    },
    {
      "midi": 40,
      "time": 43.65,
      "duration": 0.075,
      "velocity": 0.72,
      "hand": "left"
    },
    {
      "midi": 62,
      "time": 43.65,
      "duration": 0.135,
      "velocity": 0.48,
      "hand": "right"
    },
    {
      "midi": 66,
      "time": 43.65,
      "duration": 0.135,
      "velocity": 0.51,
      "hand": "right"
    },
    {
      "midi": 36,
      "time": 43.8,
      "duration": 0.075,
      "velocity": 0.54,
      "hand": "left"
    },
    {
      "midi": 38,
      "time": 43.8,
      "duration": 0.075,
      "velocity": 0.39,
      "hand": "left"
    },
    {
      "midi": 62,
      "time": 43.8,
      "duration": 0.285,
      "velocity": 0.56,
      "hand": "right"
    },
    {
      "midi": 64,
      "time": 43.8,
      "duration": 0.3,
      "velocity": 0.86,
      "hand": "right"
    },
    {
      "midi": 66,
      "time": 43.8,
      "duration": 0.15,
      "velocity": 0.54,
      "hand": "right"
    },
    {
      "midi": 38,
      "time": 44.1,
      "duration": 0.075,
      "velocity": 0.39,
      "hand": "left"
    },
    {
      "midi": 40,
      "time": 44.1,
      "duration": 0.15,
      "velocity": 0.76,
      "hand": "left"
    },
    {
      "midi": 62,
      "time": 44.1,
      "duration": 0.15,
      "velocity": 0.5,
      "hand": "right"
    },
    {
      "midi": 67,
      "time": 44.1,
      "duration": 0.3,
      "velocity": 0.87,
      "hand": "right"
    },
    {
      "midi": 38,
      "time": 44.4,
      "duration": 0.585,
      "velocity": 0.78,
      "hand": "left"
    },
    {
      "midi": 42,
      "time": 44.4,
      "duration": 0.075,
      "velocity": 0.63,
      "hand": "left"
    },
    {
      "midi": 60,
      "time": 44.4,
      "duration": 0.285,
      "velocity": 0.74,
      "hand": "right"
    },
    {
      "midi": 62,
      "time": 44.4,
      "duration": 0.285,
      "velocity": 0.69,
      "hand": "right"
    },
    {
      "midi": 65,
      "time": 44.4,
      "duration": 0.285,
      "velocity": 0.7,
      "hand": "right"
    },
    {
      "midi": 69,
      "time": 44.4,
      "duration": 0.15,
      "velocity": 0.88,
      "hand": "right"
    },
    {
      "midi": 55,
      "time": 44.7,
      "duration": 0.15,
      "velocity": 0.64,
      "hand": "left"
    },
    {
      "midi": 60,
      "time": 44.7,
      "duration": 0.15,
      "velocity": 0.72,
      "hand": "right"
    },
    {
      "midi": 62,
      "time": 44.7,
      "duration": 0.15,
      "velocity": 0.65,
      "hand": "right"
    },
    {
      "midi": 65,
      "time": 44.7,
      "duration": 0.15,
      "velocity": 0.68,
      "hand": "right"
    },
    {
      "midi": 69,
      "time": 44.7,
      "duration": 0.3,
      "velocity": 0.82,
      "hand": "right"
    },
    {
      "midi": 36,
      "time": 45,
      "duration": 0.075,
      "velocity": 0.7,
      "hand": "left"
    },
    {
      "midi": 38,
      "time": 45,
      "duration": 0.075,
      "velocity": 0.39,
      "hand": "left"
    },
    {
      "midi": 62,
      "time": 45,
      "duration": 0.3,
      "velocity": 0.51,
      "hand": "right"
    },
    {
      "midi": 65,
      "time": 45,
      "duration": 0.285,
      "velocity": 0.54,
      "hand": "right"
    },
    {
      "midi": 71,
      "time": 45,
      "duration": 0.15,
      "velocity": 0.8,
      "hand": "right"
    },
    {
      "midi": 37,
      "time": 45.3,
      "duration": 0.3,
      "velocity": 0.77,
      "hand": "left"
    },
    {
      "midi": 55,
      "time": 45.3,
      "duration": 0.15,
      "velocity": 0.45,
      "hand": "left"
    },
    {
      "midi": 61,
      "time": 45.3,
      "duration": 0.15,
      "velocity": 0.45,
      "hand": "right"
    },
    {
      "midi": 65,
      "time": 45.3,
      "duration": 0.15,
      "velocity": 0.38,
      "hand": "right"
    },
    {
      "midi": 71,
      "time": 45.3,
      "duration": 0.15,
      "velocity": 0.82,
      "hand": "right"
    },
    {
      "midi": 36,
      "time": 45.6,
      "duration": 0.3,
      "velocity": 0.87,
      "hand": "left"
    },
    {
      "midi": 38,
      "time": 45.6,
      "duration": 0.075,
      "velocity": 0.39,
      "hand": "left"
    },
    {
      "midi": 62,
      "time": 45.6,
      "duration": 0.15,
      "velocity": 0.75,
      "hand": "right"
    },
    {
      "midi": 64,
      "time": 45.6,
      "duration": 0.15,
      "velocity": 0.52,
      "hand": "right"
    },
    {
      "midi": 67,
      "time": 45.6,
      "duration": 0.15,
      "velocity": 0.52,
      "hand": "right"
    },
    {
      "midi": 72,
      "time": 45.6,
      "duration": 0.3,
      "velocity": 0.79,
      "hand": "right"
    },
    {
      "midi": 38,
      "time": 45.9,
      "duration": 0.075,
      "velocity": 0.17,
      "hand": "left"
    },
    {
      "midi": 38,
      "time": 46.05,
      "duration": 0.075,
      "velocity": 0.17,
      "hand": "left"
    },
    {
      "midi": 47,
      "time": 46.05,
      "duration": 0.075,
      "velocity": 0.56,
      "hand": "left"
    },
    {
      "midi": 38,
      "time": 46.2,
      "duration": 0.075,
      "velocity": 0.5,
      "hand": "left"
    },
    {
      "midi": 40,
      "time": 46.2,
      "duration": 0.075,
      "velocity": 0.59,
      "hand": "left"
    },
    {
      "midi": 36,
      "time": 46.35,
      "duration": 0.075,
      "velocity": 0.59,
      "hand": "left"
    },
    {
      "midi": 38,
      "time": 46.35,
      "duration": 0.075,
      "velocity": 0.2,
      "hand": "left"
    },
    {
      "midi": 38,
      "time": 46.5,
      "duration": 0.075,
      "velocity": 0.5,
      "hand": "left"
    },
    {
      "midi": 40,
      "time": 46.65,
      "duration": 0.075,
      "velocity": 0.81,
      "hand": "left"
    },
    {
      "midi": 36,
      "time": 46.8,
      "duration": 1.2,
      "velocity": 0.87,
      "hand": "left"
    },
    {
      "midi": 38,
      "time": 46.8,
      "duration": 0.075,
      "velocity": 0.51,
      "hand": "left"
    },
    {
      "midi": 64,
      "time": 46.8,
      "duration": 1.2,
      "velocity": 0.76,
      "hand": "right"
    },
    {
      "midi": 67,
      "time": 46.8,
      "duration": 1.2,
      "velocity": 0.76,
      "hand": "right"
    },
    {
      "midi": 71,
      "time": 46.8,
      "duration": 0.9,
      "velocity": 0.72,
      "hand": "right"
    },
    {
      "midi": 74,
      "time": 46.8,
      "duration": 0.9,
      "velocity": 0.72,
      "hand": "right"
    }
  ],
  "arrangements": {
    "easy": [
      {
        "midi": 59,
        "time": 0,
        "duration": 0.36,
        "velocity": 0.75,
        "hand": "right"
      },
      {
        "midi": 62,
        "time": 0.6,
        "duration": 0.36,
        "velocity": 0.69,
        "hand": "right"
      },
      {
        "midi": 69,
        "time": 1.2,
        "duration": 0.36,
        "velocity": 0.77,
        "hand": "right"
      },
      {
        "midi": 67,
        "time": 1.8,
        "duration": 0.36,
        "velocity": 0.54,
        "hand": "right"
      },
      {
        "midi": 69,
        "time": 2.4,
        "duration": 0.9,
        "velocity": 0.8,
        "hand": "right"
      },
      {
        "midi": 66,
        "time": 3,
        "duration": 0.36,
        "velocity": 0.5,
        "hand": "right"
      },
      {
        "midi": 69,
        "time": 3.6,
        "duration": 0.36,
        "velocity": 0.83,
        "hand": "right"
      },
      {
        "midi": 71,
        "time": 4.2,
        "duration": 0.36,
        "velocity": 0.81,
        "hand": "right"
      },
      {
        "midi": 72,
        "time": 4.8,
        "duration": 0.45,
        "velocity": 0.9,
        "hand": "right"
      },
      {
        "midi": 62,
        "time": 5.4,
        "duration": 0.36,
        "velocity": 0.69,
        "hand": "right"
      },
      {
        "midi": 72,
        "time": 6,
        "duration": 0.45,
        "velocity": 0.74,
        "hand": "right"
      },
      {
        "midi": 71,
        "time": 6.6,
        "duration": 0.36,
        "velocity": 0.62,
        "hand": "right"
      },
      {
        "midi": 69,
        "time": 7.2,
        "duration": 0.75,
        "velocity": 0.59,
        "hand": "right"
      },
      {
        "midi": 66,
        "time": 7.8,
        "duration": 0.36,
        "velocity": 0.5,
        "hand": "right"
      },
      {
        "midi": 67,
        "time": 8.4,
        "duration": 0.36,
        "velocity": 0.64,
        "hand": "right"
      },
      {
        "midi": 67,
        "time": 9,
        "duration": 0.36,
        "velocity": 0.63,
        "hand": "right"
      },
      {
        "midi": 67,
        "time": 9.6,
        "duration": 0.435,
        "velocity": 0.63,
        "hand": "right"
      },
      {
        "midi": 67,
        "time": 10.2,
        "duration": 0.36,
        "velocity": 0.45,
        "hand": "right"
      },
      {
        "midi": 67,
        "time": 10.8,
        "duration": 0.36,
        "velocity": 0.82,
        "hand": "right"
      },
      {
        "midi": 67,
        "time": 11.4,
        "duration": 0.36,
        "velocity": 0.51,
        "hand": "right"
      },
      {
        "midi": 69,
        "time": 12,
        "duration": 1.05,
        "velocity": 0.54,
        "hand": "right"
      },
      {
        "midi": 66,
        "time": 12.6,
        "duration": 0.36,
        "velocity": 0.43,
        "hand": "right"
      },
      {
        "midi": 67,
        "time": 13.2,
        "duration": 0.36,
        "velocity": 0.83,
        "hand": "right"
      },
      {
        "midi": 72,
        "time": 13.8,
        "duration": 0.36,
        "velocity": 0.82,
        "hand": "right"
      },
      {
        "midi": 76,
        "time": 14.4,
        "duration": 0.75,
        "velocity": 0.77,
        "hand": "right"
      },
      {
        "midi": 67,
        "time": 15,
        "duration": 0.36,
        "velocity": 0.54,
        "hand": "right"
      },
      {
        "midi": 72,
        "time": 15.6,
        "duration": 0.6,
        "velocity": 0.79,
        "hand": "right"
      },
      {
        "midi": 67,
        "time": 16.2,
        "duration": 0.36,
        "velocity": 0.61,
        "hand": "right"
      },
      {
        "midi": 69,
        "time": 16.8,
        "duration": 0.36,
        "velocity": 0.62,
        "hand": "right"
      },
      {
        "midi": 67,
        "time": 17.4,
        "duration": 0.36,
        "velocity": 0.51,
        "hand": "right"
      },
      {
        "midi": 69,
        "time": 18,
        "duration": 0.6,
        "velocity": 0.62,
        "hand": "right"
      },
      {
        "midi": 66,
        "time": 18.6,
        "duration": 0.36,
        "velocity": 0.55,
        "hand": "right"
      },
      {
        "midi": 69,
        "time": 19.2,
        "duration": 0.36,
        "velocity": 0.65,
        "hand": "right"
      },
      {
        "midi": 71,
        "time": 19.8,
        "duration": 0.36,
        "velocity": 0.65,
        "hand": "right"
      },
      {
        "midi": 72,
        "time": 20.4,
        "duration": 0.75,
        "velocity": 0.79,
        "hand": "right"
      },
      {
        "midi": 62,
        "time": 21,
        "duration": 0.36,
        "velocity": 0.39,
        "hand": "right"
      },
      {
        "midi": 69,
        "time": 21.6,
        "duration": 0.36,
        "velocity": 0.64,
        "hand": "right"
      },
      {
        "midi": 67,
        "time": 22.2,
        "duration": 0.36,
        "velocity": 0.72,
        "hand": "right"
      },
      {
        "midi": 69,
        "time": 22.8,
        "duration": 0.9,
        "velocity": 0.64,
        "hand": "right"
      },
      {
        "midi": 66,
        "time": 23.4,
        "duration": 0.36,
        "velocity": 0.54,
        "hand": "right"
      },
      {
        "midi": 69,
        "time": 24,
        "duration": 0.36,
        "velocity": 0.72,
        "hand": "right"
      },
      {
        "midi": 71,
        "time": 24.6,
        "duration": 0.36,
        "velocity": 0.65,
        "hand": "right"
      },
      {
        "midi": 72,
        "time": 25.2,
        "duration": 0.45,
        "velocity": 0.74,
        "hand": "right"
      },
      {
        "midi": 62,
        "time": 25.8,
        "duration": 0.36,
        "velocity": 0.39,
        "hand": "right"
      },
      {
        "midi": 72,
        "time": 26.4,
        "duration": 0.45,
        "velocity": 0.9,
        "hand": "right"
      },
      {
        "midi": 71,
        "time": 27,
        "duration": 0.36,
        "velocity": 0.78,
        "hand": "right"
      },
      {
        "midi": 69,
        "time": 27.6,
        "duration": 0.75,
        "velocity": 0.59,
        "hand": "right"
      },
      {
        "midi": 66,
        "time": 28.2,
        "duration": 0.36,
        "velocity": 0.5,
        "hand": "right"
      },
      {
        "midi": 67,
        "time": 28.8,
        "duration": 0.36,
        "velocity": 0.8,
        "hand": "right"
      },
      {
        "midi": 67,
        "time": 29.4,
        "duration": 0.36,
        "velocity": 0.79,
        "hand": "right"
      },
      {
        "midi": 67,
        "time": 30,
        "duration": 0.435,
        "velocity": 0.63,
        "hand": "right"
      },
      {
        "midi": 67,
        "time": 30.6,
        "duration": 0.36,
        "velocity": 0.45,
        "hand": "right"
      },
      {
        "midi": 67,
        "time": 31.2,
        "duration": 0.36,
        "velocity": 0.98,
        "hand": "right"
      },
      {
        "midi": 67,
        "time": 31.8,
        "duration": 0.36,
        "velocity": 0.51,
        "hand": "right"
      },
      {
        "midi": 69,
        "time": 32.4,
        "duration": 1.05,
        "velocity": 0.54,
        "hand": "right"
      },
      {
        "midi": 66,
        "time": 33,
        "duration": 0.36,
        "velocity": 0.43,
        "hand": "right"
      },
      {
        "midi": 67,
        "time": 33.6,
        "duration": 0.36,
        "velocity": 0.98,
        "hand": "right"
      },
      {
        "midi": 72,
        "time": 34.2,
        "duration": 0.36,
        "velocity": 0.98,
        "hand": "right"
      },
      {
        "midi": 76,
        "time": 34.8,
        "duration": 0.75,
        "velocity": 0.93,
        "hand": "right"
      },
      {
        "midi": 67,
        "time": 35.4,
        "duration": 0.36,
        "velocity": 0.54,
        "hand": "right"
      },
      {
        "midi": 72,
        "time": 36,
        "duration": 0.6,
        "velocity": 0.94,
        "hand": "right"
      },
      {
        "midi": 67,
        "time": 36.6,
        "duration": 0.36,
        "velocity": 0.61,
        "hand": "right"
      },
      {
        "midi": 69,
        "time": 37.2,
        "duration": 0.36,
        "velocity": 0.78,
        "hand": "right"
      },
      {
        "midi": 67,
        "time": 37.8,
        "duration": 0.36,
        "velocity": 0.51,
        "hand": "right"
      },
      {
        "midi": 69,
        "time": 38.4,
        "duration": 0.6,
        "velocity": 0.78,
        "hand": "right"
      },
      {
        "midi": 66,
        "time": 39,
        "duration": 0.36,
        "velocity": 0.55,
        "hand": "right"
      },
      {
        "midi": 69,
        "time": 39.6,
        "duration": 0.36,
        "velocity": 0.81,
        "hand": "right"
      },
      {
        "midi": 71,
        "time": 40.2,
        "duration": 0.36,
        "velocity": 0.8,
        "hand": "right"
      },
      {
        "midi": 72,
        "time": 40.8,
        "duration": 0.75,
        "velocity": 0.94,
        "hand": "right"
      },
      {
        "midi": 62,
        "time": 41.4,
        "duration": 0.36,
        "velocity": 0.39,
        "hand": "right"
      },
      {
        "midi": 69,
        "time": 42,
        "duration": 0.36,
        "velocity": 0.8,
        "hand": "right"
      },
      {
        "midi": 67,
        "time": 42.6,
        "duration": 0.36,
        "velocity": 0.72,
        "hand": "right"
      },
      {
        "midi": 69,
        "time": 43.2,
        "duration": 0.9,
        "velocity": 0.78,
        "hand": "right"
      },
      {
        "midi": 66,
        "time": 43.8,
        "duration": 0.36,
        "velocity": 0.54,
        "hand": "right"
      },
      {
        "midi": 69,
        "time": 44.4,
        "duration": 0.36,
        "velocity": 0.88,
        "hand": "right"
      },
      {
        "midi": 71,
        "time": 45,
        "duration": 0.36,
        "velocity": 0.8,
        "hand": "right"
      },
      {
        "midi": 72,
        "time": 45.6,
        "duration": 0.36,
        "velocity": 0.79,
        "hand": "right"
      },
      {
        "midi": 64,
        "time": 46.2,
        "duration": 0.36,
        "velocity": 0.59,
        "hand": "right"
      },
      {
        "midi": 74,
        "time": 46.8,
        "duration": 0.9,
        "velocity": 0.72,
        "hand": "right"
      }
    ],
    "medium": [
      {
        "midi": 38,
        "time": 0,
        "duration": 0.21,
        "velocity": 0.72,
        "hand": "left"
      },
      {
        "midi": 47,
        "time": 0,
        "duration": 0.21,
        "velocity": 0.75,
        "hand": "left"
      },
      {
        "midi": 57,
        "time": 0.9,
        "duration": 0.21,
        "velocity": 0.57,
        "hand": "left"
      },
      {
        "midi": 67,
        "time": 0.9,
        "duration": 0.21,
        "velocity": 0.83,
        "hand": "right"
      },
      {
        "midi": 67,
        "time": 1.65,
        "duration": 0.21,
        "velocity": 0.54,
        "hand": "right"
      },
      {
        "midi": 69,
        "time": 2.4,
        "duration": 0.9,
        "velocity": 0.8,
        "hand": "right"
      },
      {
        "midi": 38,
        "time": 3.15,
        "duration": 0.21,
        "velocity": 0.39,
        "hand": "left"
      },
      {
        "midi": 40,
        "time": 3.15,
        "duration": 0.21,
        "velocity": 0.64,
        "hand": "left"
      },
      {
        "midi": 69,
        "time": 3.9,
        "duration": 0.21,
        "velocity": 0.88,
        "hand": "right"
      },
      {
        "midi": 72,
        "time": 4.8,
        "duration": 0.45,
        "velocity": 0.9,
        "hand": "right"
      },
      {
        "midi": 57,
        "time": 5.7,
        "duration": 0.21,
        "velocity": 0.57,
        "hand": "left"
      },
      {
        "midi": 67,
        "time": 5.7,
        "duration": 0.285,
        "velocity": 0.79,
        "hand": "right"
      },
      {
        "midi": 67,
        "time": 6.45,
        "duration": 0.21,
        "velocity": 0.53,
        "hand": "right"
      },
      {
        "midi": 69,
        "time": 7.2,
        "duration": 0.75,
        "velocity": 0.59,
        "hand": "right"
      },
      {
        "midi": 38,
        "time": 7.95,
        "duration": 0.21,
        "velocity": 0.39,
        "hand": "left"
      },
      {
        "midi": 40,
        "time": 7.95,
        "duration": 0.21,
        "velocity": 0.54,
        "hand": "left"
      },
      {
        "midi": 58,
        "time": 8.7,
        "duration": 0.21,
        "velocity": 0.51,
        "hand": "left"
      },
      {
        "midi": 69,
        "time": 8.7,
        "duration": 0.3,
        "velocity": 0.58,
        "hand": "right"
      },
      {
        "midi": 67,
        "time": 9.6,
        "duration": 0.435,
        "velocity": 0.63,
        "hand": "right"
      },
      {
        "midi": 38,
        "time": 10.35,
        "duration": 0.21,
        "velocity": 0.39,
        "hand": "left"
      },
      {
        "midi": 40,
        "time": 10.35,
        "duration": 0.21,
        "velocity": 0.57,
        "hand": "left"
      },
      {
        "midi": 58,
        "time": 11.1,
        "duration": 0.21,
        "velocity": 0.51,
        "hand": "left"
      },
      {
        "midi": 67,
        "time": 11.1,
        "duration": 0.21,
        "velocity": 0.54,
        "hand": "right"
      },
      {
        "midi": 69,
        "time": 12,
        "duration": 1.05,
        "velocity": 0.54,
        "hand": "right"
      },
      {
        "midi": 38,
        "time": 12.75,
        "duration": 0.21,
        "velocity": 0.39,
        "hand": "left"
      },
      {
        "midi": 40,
        "time": 12.75,
        "duration": 0.21,
        "velocity": 0.54,
        "hand": "left"
      },
      {
        "midi": 58,
        "time": 13.5,
        "duration": 0.21,
        "velocity": 0.51,
        "hand": "left"
      },
      {
        "midi": 67,
        "time": 13.5,
        "duration": 0.21,
        "velocity": 0.81,
        "hand": "right"
      },
      {
        "midi": 76,
        "time": 14.4,
        "duration": 0.75,
        "velocity": 0.77,
        "hand": "right"
      },
      {
        "midi": 38,
        "time": 15.15,
        "duration": 0.21,
        "velocity": 0.39,
        "hand": "left"
      },
      {
        "midi": 40,
        "time": 15.15,
        "duration": 0.21,
        "velocity": 0.68,
        "hand": "left"
      },
      {
        "midi": 46,
        "time": 15.9,
        "duration": 0.21,
        "velocity": 0.51,
        "hand": "left"
      },
      {
        "midi": 62,
        "time": 15.9,
        "duration": 0.21,
        "velocity": 0.57,
        "hand": "right"
      },
      {
        "midi": 69,
        "time": 16.8,
        "duration": 0.3,
        "velocity": 0.62,
        "hand": "right"
      },
      {
        "midi": 38,
        "time": 17.55,
        "duration": 0.21,
        "velocity": 0.39,
        "hand": "left"
      },
      {
        "midi": 58,
        "time": 18.3,
        "duration": 0.21,
        "velocity": 0.51,
        "hand": "left"
      },
      {
        "midi": 67,
        "time": 18.3,
        "duration": 0.3,
        "velocity": 0.65,
        "hand": "right"
      },
      {
        "midi": 69,
        "time": 19.2,
        "duration": 0.21,
        "velocity": 0.65,
        "hand": "right"
      },
      {
        "midi": 71,
        "time": 20.1,
        "duration": 0.21,
        "velocity": 0.64,
        "hand": "right"
      },
      {
        "midi": 67,
        "time": 20.85,
        "duration": 0.21,
        "velocity": 0.57,
        "hand": "right"
      },
      {
        "midi": 69,
        "time": 21.6,
        "duration": 0.3,
        "velocity": 0.64,
        "hand": "right"
      },
      {
        "midi": 38,
        "time": 22.35,
        "duration": 0.21,
        "velocity": 0.39,
        "hand": "left"
      },
      {
        "midi": 40,
        "time": 22.35,
        "duration": 0.21,
        "velocity": 0.57,
        "hand": "left"
      },
      {
        "midi": 58,
        "time": 23.1,
        "duration": 0.21,
        "velocity": 0.51,
        "hand": "left"
      },
      {
        "midi": 67,
        "time": 23.1,
        "duration": 0.3,
        "velocity": 0.62,
        "hand": "right"
      },
      {
        "midi": 69,
        "time": 24,
        "duration": 0.21,
        "velocity": 0.72,
        "hand": "right"
      },
      {
        "midi": 71,
        "time": 24.9,
        "duration": 0.21,
        "velocity": 0.66,
        "hand": "right"
      },
      {
        "midi": 38,
        "time": 25.65,
        "duration": 0.21,
        "velocity": 0.39,
        "hand": "left"
      },
      {
        "midi": 40,
        "time": 25.65,
        "duration": 0.21,
        "velocity": 0.54,
        "hand": "left"
      },
      {
        "midi": 72,
        "time": 26.4,
        "duration": 0.45,
        "velocity": 0.9,
        "hand": "right"
      },
      {
        "midi": 47,
        "time": 27.15,
        "duration": 0.21,
        "velocity": 0.81,
        "hand": "left"
      },
      {
        "midi": 50,
        "time": 27.9,
        "duration": 0.21,
        "velocity": 0.39,
        "hand": "left"
      },
      {
        "midi": 66,
        "time": 27.9,
        "duration": 0.21,
        "velocity": 0.53,
        "hand": "right"
      },
      {
        "midi": 38,
        "time": 28.65,
        "duration": 0.21,
        "velocity": 0.39,
        "hand": "left"
      },
      {
        "midi": 67,
        "time": 29.4,
        "duration": 0.3,
        "velocity": 0.79,
        "hand": "right"
      },
      {
        "midi": 55,
        "time": 30.15,
        "duration": 1.035,
        "velocity": 0.46,
        "hand": "left"
      },
      {
        "midi": 64,
        "time": 30.15,
        "duration": 1.035,
        "velocity": 0.65,
        "hand": "right"
      },
      {
        "midi": 67,
        "time": 30.9,
        "duration": 0.21,
        "velocity": 0.5,
        "hand": "right"
      },
      {
        "midi": 38,
        "time": 31.65,
        "duration": 0.21,
        "velocity": 0.39,
        "hand": "left"
      },
      {
        "midi": 40,
        "time": 31.65,
        "duration": 0.21,
        "velocity": 0.57,
        "hand": "left"
      },
      {
        "midi": 69,
        "time": 32.4,
        "duration": 1.05,
        "velocity": 0.54,
        "hand": "right"
      },
      {
        "midi": 38,
        "time": 33.15,
        "duration": 0.21,
        "velocity": 0.39,
        "hand": "left"
      },
      {
        "midi": 40,
        "time": 33.15,
        "duration": 0.21,
        "velocity": 0.54,
        "hand": "left"
      },
      {
        "midi": 58,
        "time": 33.9,
        "duration": 0.21,
        "velocity": 0.51,
        "hand": "left"
      },
      {
        "midi": 67,
        "time": 33.9,
        "duration": 0.21,
        "velocity": 0.97,
        "hand": "right"
      },
      {
        "midi": 76,
        "time": 34.8,
        "duration": 0.75,
        "velocity": 0.93,
        "hand": "right"
      },
      {
        "midi": 38,
        "time": 35.55,
        "duration": 0.21,
        "velocity": 0.39,
        "hand": "left"
      },
      {
        "midi": 40,
        "time": 35.55,
        "duration": 0.21,
        "velocity": 0.68,
        "hand": "left"
      },
      {
        "midi": 46,
        "time": 36.3,
        "duration": 0.21,
        "velocity": 0.51,
        "hand": "left"
      },
      {
        "midi": 62,
        "time": 36.3,
        "duration": 0.21,
        "velocity": 0.57,
        "hand": "right"
      },
      {
        "midi": 69,
        "time": 37.2,
        "duration": 0.3,
        "velocity": 0.78,
        "hand": "right"
      },
      {
        "midi": 38,
        "time": 37.95,
        "duration": 0.21,
        "velocity": 0.39,
        "hand": "left"
      },
      {
        "midi": 58,
        "time": 38.7,
        "duration": 0.21,
        "velocity": 0.51,
        "hand": "left"
      },
      {
        "midi": 67,
        "time": 38.7,
        "duration": 0.3,
        "velocity": 0.8,
        "hand": "right"
      },
      {
        "midi": 69,
        "time": 39.6,
        "duration": 0.21,
        "velocity": 0.81,
        "hand": "right"
      },
      {
        "midi": 71,
        "time": 40.5,
        "duration": 0.21,
        "velocity": 0.8,
        "hand": "right"
      },
      {
        "midi": 67,
        "time": 41.25,
        "duration": 0.21,
        "velocity": 0.57,
        "hand": "right"
      },
      {
        "midi": 69,
        "time": 42,
        "duration": 0.3,
        "velocity": 0.8,
        "hand": "right"
      },
      {
        "midi": 38,
        "time": 42.75,
        "duration": 0.21,
        "velocity": 0.39,
        "hand": "left"
      },
      {
        "midi": 40,
        "time": 42.75,
        "duration": 0.21,
        "velocity": 0.57,
        "hand": "left"
      },
      {
        "midi": 58,
        "time": 43.5,
        "duration": 0.21,
        "velocity": 0.51,
        "hand": "left"
      },
      {
        "midi": 67,
        "time": 43.5,
        "duration": 0.3,
        "velocity": 0.78,
        "hand": "right"
      },
      {
        "midi": 69,
        "time": 44.4,
        "duration": 0.21,
        "velocity": 0.88,
        "hand": "right"
      },
      {
        "midi": 71,
        "time": 45.3,
        "duration": 0.21,
        "velocity": 0.82,
        "hand": "right"
      },
      {
        "midi": 38,
        "time": 46.05,
        "duration": 0.21,
        "velocity": 0.17,
        "hand": "left"
      },
      {
        "midi": 47,
        "time": 46.05,
        "duration": 0.21,
        "velocity": 0.56,
        "hand": "left"
      },
      {
        "midi": 74,
        "time": 46.8,
        "duration": 0.9,
        "velocity": 0.72,
        "hand": "right"
      }
    ],
    "hard": [
      {
        "midi": 38,
        "time": 0,
        "duration": 0.075,
        "velocity": 0.72,
        "hand": "left"
      },
      {
        "midi": 47,
        "time": 0,
        "duration": 0.075,
        "velocity": 0.75,
        "hand": "left"
      },
      {
        "midi": 38,
        "time": 0.15,
        "duration": 0.075,
        "velocity": 0.64,
        "hand": "left"
      },
      {
        "midi": 40,
        "time": 0.45,
        "duration": 0.075,
        "velocity": 0.59,
        "hand": "left"
      },
      {
        "midi": 38,
        "time": 0.6,
        "duration": 0.075,
        "velocity": 0.69,
        "hand": "left"
      },
      {
        "midi": 45,
        "time": 0.9,
        "duration": 0.075,
        "velocity": 0.57,
        "hand": "left"
      },
      {
        "midi": 67,
        "time": 0.9,
        "duration": 0.135,
        "velocity": 0.83,
        "hand": "right"
      },
      {
        "midi": 67,
        "time": 1.05,
        "duration": 0.135,
        "velocity": 0.58,
        "hand": "right"
      },
      {
        "midi": 36,
        "time": 1.2,
        "duration": 0.585,
        "velocity": 0.98,
        "hand": "left"
      },
      {
        "midi": 42,
        "time": 1.2,
        "duration": 0.075,
        "velocity": 0.63,
        "hand": "left"
      },
      {
        "midi": 62,
        "time": 1.2,
        "duration": 0.435,
        "velocity": 0.74,
        "hand": "right"
      },
      {
        "midi": 67,
        "time": 1.2,
        "duration": 0.285,
        "velocity": 0.7,
        "hand": "right"
      },
      {
        "midi": 69,
        "time": 1.2,
        "duration": 0.3,
        "velocity": 0.77,
        "hand": "right"
      },
      {
        "midi": 46,
        "time": 1.5,
        "duration": 0.075,
        "velocity": 0.51,
        "hand": "left"
      },
      {
        "midi": 54,
        "time": 1.5,
        "duration": 0.075,
        "velocity": 0.43,
        "hand": "left"
      },
      {
        "midi": 67,
        "time": 1.5,
        "duration": 0.135,
        "velocity": 0.8,
        "hand": "right"
      },
      {
        "midi": 38,
        "time": 1.65,
        "duration": 0.075,
        "velocity": 0.39,
        "hand": "left"
      },
      {
        "midi": 40,
        "time": 1.65,
        "duration": 0.075,
        "velocity": 0.56,
        "hand": "left"
      },
      {
        "midi": 62,
        "time": 1.65,
        "duration": 0.075,
        "velocity": 0.56,
        "hand": "right"
      },
      {
        "midi": 67,
        "time": 1.65,
        "duration": 0.075,
        "velocity": 0.54,
        "hand": "right"
      },
      {
        "midi": 36,
        "time": 1.8,
        "duration": 0.075,
        "velocity": 0.72,
        "hand": "left"
      },
      {
        "midi": 38,
        "time": 1.8,
        "duration": 0.075,
        "velocity": 0.39,
        "hand": "left"
      },
      {
        "midi": 62,
        "time": 1.8,
        "duration": 0.075,
        "velocity": 0.57,
        "hand": "right"
      },
      {
        "midi": 64,
        "time": 1.8,
        "duration": 0.3,
        "velocity": 0.81,
        "hand": "right"
      },
      {
        "midi": 67,
        "time": 1.8,
        "duration": 0.075,
        "velocity": 0.54,
        "hand": "right"
      },
      {
        "midi": 38,
        "time": 2.1,
        "duration": 0.075,
        "velocity": 0.39,
        "hand": "left"
      },
      {
        "midi": 40,
        "time": 2.1,
        "duration": 0.075,
        "velocity": 0.56,
        "hand": "left"
      },
      {
        "midi": 62,
        "time": 2.1,
        "duration": 0.075,
        "velocity": 0.56,
        "hand": "right"
      },
      {
        "midi": 67,
        "time": 2.1,
        "duration": 0.285,
        "velocity": 0.96,
        "hand": "right"
      },
      {
        "midi": 38,
        "time": 2.4,
        "duration": 0.285,
        "velocity": 0.87,
        "hand": "left"
      },
      {
        "midi": 40,
        "time": 2.4,
        "duration": 0.285,
        "velocity": 0.57,
        "hand": "left"
      },
      {
        "midi": 64,
        "time": 2.4,
        "duration": 0.585,
        "velocity": 0.64,
        "hand": "right"
      },
      {
        "midi": 67,
        "time": 2.4,
        "duration": 0.285,
        "velocity": 0.54,
        "hand": "right"
      },
      {
        "midi": 69,
        "time": 2.4,
        "duration": 0.9,
        "velocity": 0.8,
        "hand": "right"
      },
      {
        "midi": 38,
        "time": 2.7,
        "duration": 0.075,
        "velocity": 0.39,
        "hand": "left"
      },
      {
        "midi": 40,
        "time": 2.7,
        "duration": 0.075,
        "velocity": 0.57,
        "hand": "left"
      },
      {
        "midi": 62,
        "time": 2.7,
        "duration": 0.075,
        "velocity": 0.57,
        "hand": "right"
      },
      {
        "midi": 67,
        "time": 2.7,
        "duration": 0.3,
        "velocity": 0.81,
        "hand": "right"
      },
      {
        "midi": 36,
        "time": 3,
        "duration": 0.075,
        "velocity": 0.69,
        "hand": "left"
      },
      {
        "midi": 38,
        "time": 3,
        "duration": 0.075,
        "velocity": 0.39,
        "hand": "left"
      },
      {
        "midi": 62,
        "time": 3,
        "duration": 0.075,
        "velocity": 0.35,
        "hand": "right"
      },
      {
        "midi": 64,
        "time": 3,
        "duration": 0.3,
        "velocity": 0.83,
        "hand": "right"
      },
      {
        "midi": 66,
        "time": 3,
        "duration": 0.15,
        "velocity": 0.5,
        "hand": "right"
      },
      {
        "midi": 38,
        "time": 3.15,
        "duration": 0.075,
        "velocity": 0.39,
        "hand": "left"
      },
      {
        "midi": 40,
        "time": 3.15,
        "duration": 0.075,
        "velocity": 0.64,
        "hand": "left"
      },
      {
        "midi": 38,
        "time": 3.3,
        "duration": 0.075,
        "velocity": 0.39,
        "hand": "left"
      },
      {
        "midi": 46,
        "time": 3.3,
        "duration": 0.075,
        "velocity": 0.51,
        "hand": "left"
      },
      {
        "midi": 62,
        "time": 3.3,
        "duration": 0.075,
        "velocity": 0.49,
        "hand": "right"
      },
      {
        "midi": 67,
        "time": 3.3,
        "duration": 0.285,
        "velocity": 0.86,
        "hand": "right"
      },
      {
        "midi": 38,
        "time": 3.45,
        "duration": 0.075,
        "velocity": 0.39,
        "hand": "left"
      },
      {
        "midi": 38,
        "time": 3.6,
        "duration": 0.075,
        "velocity": 0.39,
        "hand": "left"
      },
      {
        "midi": 40,
        "time": 3.6,
        "duration": 0.075,
        "velocity": 0.56,
        "hand": "left"
      },
      {
        "midi": 65,
        "time": 3.6,
        "duration": 0.285,
        "velocity": 0.72,
        "hand": "right"
      },
      {
        "midi": 67,
        "time": 3.6,
        "duration": 0.3,
        "velocity": 0.64,
        "hand": "right"
      },
      {
        "midi": 69,
        "time": 3.6,
        "duration": 0.15,
        "velocity": 0.83,
        "hand": "right"
      },
      {
        "midi": 36,
        "time": 3.9,
        "duration": 0.285,
        "velocity": 0.96,
        "hand": "left"
      },
      {
        "midi": 46,
        "time": 3.9,
        "duration": 0.075,
        "velocity": 0.51,
        "hand": "left"
      },
      {
        "midi": 60,
        "time": 3.9,
        "duration": 0.075,
        "velocity": 0.65,
        "hand": "right"
      },
      {
        "midi": 62,
        "time": 3.9,
        "duration": 0.075,
        "velocity": 0.68,
        "hand": "right"
      },
      {
        "midi": 65,
        "time": 3.9,
        "duration": 0.075,
        "velocity": 0.64,
        "hand": "right"
      },
      {
        "midi": 69,
        "time": 3.9,
        "duration": 0.15,
        "velocity": 0.88,
        "hand": "right"
      },
      {
        "midi": 38,
        "time": 4.05,
        "duration": 0.075,
        "velocity": 0.39,
        "hand": "left"
      },
      {
        "midi": 40,
        "time": 4.05,
        "duration": 0.075,
        "velocity": 0.54,
        "hand": "left"
      },
      {
        "midi": 36,
        "time": 4.2,
        "duration": 0.075,
        "velocity": 0.72,
        "hand": "left"
      },
      {
        "midi": 38,
        "time": 4.2,
        "duration": 0.075,
        "velocity": 0.39,
        "hand": "left"
      },
      {
        "midi": 62,
        "time": 4.2,
        "duration": 0.285,
        "velocity": 0.78,
        "hand": "right"
      },
      {
        "midi": 65,
        "time": 4.2,
        "duration": 0.285,
        "velocity": 0.76,
        "hand": "right"
      },
      {
        "midi": 69,
        "time": 4.2,
        "duration": 0.3,
        "velocity": 0.74,
        "hand": "right"
      },
      {
        "midi": 71,
        "time": 4.2,
        "duration": 0.15,
        "velocity": 0.81,
        "hand": "right"
      },
      {
        "midi": 38,
        "time": 4.5,
        "duration": 0.285,
        "velocity": 0.95,
        "hand": "left"
      },
      {
        "midi": 40,
        "time": 4.5,
        "duration": 0.075,
        "velocity": 0.55,
        "hand": "left"
      },
      {
        "midi": 62,
        "time": 4.5,
        "duration": 0.15,
        "velocity": 0.56,
        "hand": "right"
      },
      {
        "midi": 65,
        "time": 4.5,
        "duration": 0.15,
        "velocity": 0.64,
        "hand": "right"
      },
      {
        "midi": 71,
        "time": 4.5,
        "duration": 0.15,
        "velocity": 0.78,
        "hand": "right"
      },
      {
        "midi": 36,
        "time": 4.8,
        "duration": 0.15,
        "velocity": 0.95,
        "hand": "left"
      },
      {
        "midi": 38,
        "time": 4.8,
        "duration": 0.075,
        "velocity": 0.72,
        "hand": "left"
      },
      {
        "midi": 62,
        "time": 4.8,
        "duration": 0.15,
        "velocity": 0.63,
        "hand": "right"
      },
      {
        "midi": 64,
        "time": 4.8,
        "duration": 0.3,
        "velocity": 0.75,
        "hand": "right"
      },
      {
        "midi": 67,
        "time": 4.8,
        "duration": 0.285,
        "velocity": 0.59,
        "hand": "right"
      },
      {
        "midi": 72,
        "time": 4.8,
        "duration": 0.45,
        "velocity": 0.9,
        "hand": "right"
      },
      {
        "midi": 38,
        "time": 4.95,
        "duration": 0.075,
        "velocity": 0.64,
        "hand": "left"
      },
      {
        "midi": 43,
        "time": 5.1,
        "duration": 0.6,
        "velocity": 0.95,
        "hand": "left"
      },
      {
        "midi": 55,
        "time": 5.1,
        "duration": 0.75,
        "velocity": 0.72,
        "hand": "left"
      },
      {
        "midi": 63,
        "time": 5.1,
        "duration": 0.75,
        "velocity": 0.73,
        "hand": "right"
      },
      {
        "midi": 67,
        "time": 5.1,
        "duration": 0.585,
        "velocity": 0.74,
        "hand": "right"
      },
      {
        "midi": 40,
        "time": 5.25,
        "duration": 0.075,
        "velocity": 0.59,
        "hand": "left"
      },
      {
        "midi": 38,
        "time": 5.4,
        "duration": 0.075,
        "velocity": 0.69,
        "hand": "left"
      },
      {
        "midi": 45,
        "time": 5.7,
        "duration": 0.075,
        "velocity": 0.57,
        "hand": "left"
      },
      {
        "midi": 67,
        "time": 5.7,
        "duration": 0.285,
        "velocity": 0.79,
        "hand": "right"
      },
      {
        "midi": 36,
        "time": 6,
        "duration": 0.585,
        "velocity": 0.82,
        "hand": "left"
      },
      {
        "midi": 38,
        "time": 6,
        "duration": 0.075,
        "velocity": 0.39,
        "hand": "left"
      },
      {
        "midi": 60,
        "time": 6,
        "duration": 0.15,
        "velocity": 0.61,
        "hand": "right"
      },
      {
        "midi": 62,
        "time": 6,
        "duration": 0.435,
        "velocity": 0.72,
        "hand": "right"
      },
      {
        "midi": 67,
        "time": 6,
        "duration": 0.435,
        "velocity": 0.57,
        "hand": "right"
      },
      {
        "midi": 72,
        "time": 6,
        "duration": 0.45,
        "velocity": 0.74,
        "hand": "right"
      },
      {
        "midi": 46,
        "time": 6.3,
        "duration": 0.075,
        "velocity": 0.51,
        "hand": "left"
      },
      {
        "midi": 54,
        "time": 6.3,
        "duration": 0.075,
        "velocity": 0.43,
        "hand": "left"
      },
      {
        "midi": 38,
        "time": 6.45,
        "duration": 0.075,
        "velocity": 0.39,
        "hand": "left"
      },
      {
        "midi": 40,
        "time": 6.45,
        "duration": 0.075,
        "velocity": 0.72,
        "hand": "left"
      },
      {
        "midi": 62,
        "time": 6.45,
        "duration": 0.075,
        "velocity": 0.52,
        "hand": "right"
      },
      {
        "midi": 67,
        "time": 6.45,
        "duration": 0.135,
        "velocity": 0.53,
        "hand": "right"
      },
      {
        "midi": 36,
        "time": 6.6,
        "duration": 0.075,
        "velocity": 0.54,
        "hand": "left"
      },
      {
        "midi": 38,
        "time": 6.6,
        "duration": 0.075,
        "velocity": 0.39,
        "hand": "left"
      },
      {
        "midi": 60,
        "time": 6.6,
        "duration": 0.15,
        "velocity": 0.52,
        "hand": "right"
      },
      {
        "midi": 62,
        "time": 6.6,
        "duration": 0.285,
        "velocity": 0.54,
        "hand": "right"
      },
      {
        "midi": 67,
        "time": 6.6,
        "duration": 0.285,
        "velocity": 0.35,
        "hand": "right"
      },
      {
        "midi": 71,
        "time": 6.6,
        "duration": 0.3,
        "velocity": 0.62,
        "hand": "right"
      },
      {
        "midi": 36,
        "time": 6.9,
        "duration": 0.3,
        "velocity": 0.76,
        "hand": "left"
      },
      {
        "midi": 38,
        "time": 6.9,
        "duration": 0.075,
        "velocity": 0.39,
        "hand": "left"
      },
      {
        "midi": 62,
        "time": 6.9,
        "duration": 0.075,
        "velocity": 0.63,
        "hand": "right"
      },
      {
        "midi": 67,
        "time": 6.9,
        "duration": 0.15,
        "velocity": 0.57,
        "hand": "right"
      },
      {
        "midi": 69,
        "time": 6.9,
        "duration": 0.285,
        "velocity": 0.62,
        "hand": "right"
      },
      {
        "midi": 38,
        "time": 7.2,
        "duration": 0.075,
        "velocity": 0.39,
        "hand": "left"
      },
      {
        "midi": 40,
        "time": 7.2,
        "duration": 0.285,
        "velocity": 0.7,
        "hand": "left"
      },
      {
        "midi": 64,
        "time": 7.2,
        "duration": 0.75,
        "velocity": 0.59,
        "hand": "right"
      },
      {
        "midi": 67,
        "time": 7.2,
        "duration": 0.75,
        "velocity": 0.56,
        "hand": "right"
      },
      {
        "midi": 69,
        "time": 7.2,
        "duration": 0.75,
        "velocity": 0.59,
        "hand": "right"
      },
      {
        "midi": 38,
        "time": 7.5,
        "duration": 0.075,
        "velocity": 0.39,
        "hand": "left"
      },
      {
        "midi": 40,
        "time": 7.5,
        "duration": 0.075,
        "velocity": 0.54,
        "hand": "left"
      },
      {
        "midi": 62,
        "time": 7.5,
        "duration": 0.075,
        "velocity": 0.52,
        "hand": "right"
      },
      {
        "midi": 66,
        "time": 7.5,
        "duration": 0.15,
        "velocity": 0.53,
        "hand": "right"
      },
      {
        "midi": 36,
        "time": 7.8,
        "duration": 0.075,
        "velocity": 0.7,
        "hand": "left"
      },
      {
        "midi": 38,
        "time": 7.8,
        "duration": 0.075,
        "velocity": 0.39,
        "hand": "left"
      },
      {
        "midi": 62,
        "time": 7.8,
        "duration": 0.075,
        "velocity": 0.49,
        "hand": "right"
      },
      {
        "midi": 66,
        "time": 7.8,
        "duration": 0.15,
        "velocity": 0.5,
        "hand": "right"
      },
      {
        "midi": 38,
        "time": 7.95,
        "duration": 0.075,
        "velocity": 0.39,
        "hand": "left"
      },
      {
        "midi": 40,
        "time": 7.95,
        "duration": 0.075,
        "velocity": 0.54,
        "hand": "left"
      },
      {
        "midi": 38,
        "time": 8.1,
        "duration": 0.075,
        "velocity": 0.39,
        "hand": "left"
      },
      {
        "midi": 40,
        "time": 8.1,
        "duration": 0.285,
        "velocity": 0.61,
        "hand": "left"
      },
      {
        "midi": 62,
        "time": 8.1,
        "duration": 0.075,
        "velocity": 0.49,
        "hand": "right"
      },
      {
        "midi": 66,
        "time": 8.1,
        "duration": 0.15,
        "velocity": 0.52,
        "hand": "right"
      },
      {
        "midi": 69,
        "time": 8.1,
        "duration": 0.3,
        "velocity": 0.64,
        "hand": "right"
      },
      {
        "midi": 38,
        "time": 8.25,
        "duration": 0.075,
        "velocity": 0.39,
        "hand": "left"
      },
      {
        "midi": 38,
        "time": 8.4,
        "duration": 0.435,
        "velocity": 0.78,
        "hand": "left"
      },
      {
        "midi": 40,
        "time": 8.4,
        "duration": 0.075,
        "velocity": 0.53,
        "hand": "left"
      },
      {
        "midi": 60,
        "time": 8.4,
        "duration": 0.285,
        "velocity": 0.61,
        "hand": "right"
      },
      {
        "midi": 62,
        "time": 8.4,
        "duration": 0.285,
        "velocity": 0.58,
        "hand": "right"
      },
      {
        "midi": 65,
        "time": 8.4,
        "duration": 0.285,
        "velocity": 0.56,
        "hand": "right"
      },
      {
        "midi": 67,
        "time": 8.4,
        "duration": 0.3,
        "velocity": 0.64,
        "hand": "right"
      },
      {
        "midi": 46,
        "time": 8.7,
        "duration": 0.075,
        "velocity": 0.51,
        "hand": "left"
      },
      {
        "midi": 54,
        "time": 8.7,
        "duration": 0.075,
        "velocity": 0.43,
        "hand": "left"
      },
      {
        "midi": 60,
        "time": 8.7,
        "duration": 0.075,
        "velocity": 0.57,
        "hand": "right"
      },
      {
        "midi": 62,
        "time": 8.7,
        "duration": 0.075,
        "velocity": 0.57,
        "hand": "right"
      },
      {
        "midi": 65,
        "time": 8.7,
        "duration": 0.075,
        "velocity": 0.57,
        "hand": "right"
      },
      {
        "midi": 69,
        "time": 8.7,
        "duration": 0.3,
        "velocity": 0.58,
        "hand": "right"
      },
      {
        "midi": 38,
        "time": 8.85,
        "duration": 0.075,
        "velocity": 0.39,
        "hand": "left"
      },
      {
        "midi": 40,
        "time": 8.85,
        "duration": 0.075,
        "velocity": 0.54,
        "hand": "left"
      },
      {
        "midi": 36,
        "time": 9,
        "duration": 0.075,
        "velocity": 0.69,
        "hand": "left"
      },
      {
        "midi": 38,
        "time": 9,
        "duration": 0.075,
        "velocity": 0.39,
        "hand": "left"
      },
      {
        "midi": 61,
        "time": 9,
        "duration": 0.285,
        "velocity": 0.72,
        "hand": "right"
      },
      {
        "midi": 65,
        "time": 9,
        "duration": 0.285,
        "velocity": 0.57,
        "hand": "right"
      },
      {
        "midi": 67,
        "time": 9,
        "duration": 0.3,
        "velocity": 0.63,
        "hand": "right"
      },
      {
        "midi": 38,
        "time": 9.3,
        "duration": 0.075,
        "velocity": 0.39,
        "hand": "left"
      },
      {
        "midi": 61,
        "time": 9.3,
        "duration": 0.15,
        "velocity": 0.48,
        "hand": "right"
      },
      {
        "midi": 65,
        "time": 9.3,
        "duration": 0.3,
        "velocity": 0.62,
        "hand": "right"
      },
      {
        "midi": 36,
        "time": 9.6,
        "duration": 0.585,
        "velocity": 0.83,
        "hand": "left"
      },
      {
        "midi": 38,
        "time": 9.6,
        "duration": 0.075,
        "velocity": 0.39,
        "hand": "left"
      },
      {
        "midi": 60,
        "time": 9.6,
        "duration": 0.075,
        "velocity": 0.49,
        "hand": "right"
      },
      {
        "midi": 62,
        "time": 9.6,
        "duration": 0.435,
        "velocity": 0.72,
        "hand": "right"
      },
      {
        "midi": 64,
        "time": 9.6,
        "duration": 1.05,
        "velocity": 0.63,
        "hand": "right"
      },
      {
        "midi": 67,
        "time": 9.6,
        "duration": 0.435,
        "velocity": 0.63,
        "hand": "right"
      },
      {
        "midi": 38,
        "time": 9.9,
        "duration": 0.075,
        "velocity": 0.39,
        "hand": "left"
      },
      {
        "midi": 40,
        "time": 9.9,
        "duration": 0.075,
        "velocity": 0.61,
        "hand": "left"
      },
      {
        "midi": 57,
        "time": 10.05,
        "duration": 0.075,
        "velocity": 0.57,
        "hand": "left"
      },
      {
        "midi": 62,
        "time": 10.05,
        "duration": 0.075,
        "velocity": 0.54,
        "hand": "right"
      },
      {
        "midi": 67,
        "time": 10.05,
        "duration": 0.135,
        "velocity": 0.56,
        "hand": "right"
      },
      {
        "midi": 36,
        "time": 10.2,
        "duration": 0.075,
        "velocity": 0.69,
        "hand": "left"
      },
      {
        "midi": 38,
        "time": 10.2,
        "duration": 0.075,
        "velocity": 0.39,
        "hand": "left"
      },
      {
        "midi": 62,
        "time": 10.2,
        "duration": 0.075,
        "velocity": 0.57,
        "hand": "right"
      },
      {
        "midi": 67,
        "time": 10.2,
        "duration": 0.15,
        "velocity": 0.45,
        "hand": "right"
      },
      {
        "midi": 38,
        "time": 10.35,
        "duration": 0.075,
        "velocity": 0.39,
        "hand": "left"
      },
      {
        "midi": 40,
        "time": 10.35,
        "duration": 0.075,
        "velocity": 0.57,
        "hand": "left"
      },
      {
        "midi": 38,
        "time": 10.5,
        "duration": 0.075,
        "velocity": 0.39,
        "hand": "left"
      },
      {
        "midi": 46,
        "time": 10.5,
        "duration": 0.075,
        "velocity": 0.51,
        "hand": "left"
      },
      {
        "midi": 62,
        "time": 10.5,
        "duration": 0.075,
        "velocity": 0.54,
        "hand": "right"
      },
      {
        "midi": 67,
        "time": 10.5,
        "duration": 0.15,
        "velocity": 0.5,
        "hand": "right"
      },
      {
        "midi": 38,
        "time": 10.65,
        "duration": 0.075,
        "velocity": 0.39,
        "hand": "left"
      },
      {
        "midi": 36,
        "time": 10.8,
        "duration": 0.585,
        "velocity": 0.77,
        "hand": "left"
      },
      {
        "midi": 38,
        "time": 10.8,
        "duration": 0.075,
        "velocity": 0.39,
        "hand": "left"
      },
      {
        "midi": 62,
        "time": 10.8,
        "duration": 0.285,
        "velocity": 0.68,
        "hand": "right"
      },
      {
        "midi": 67,
        "time": 10.8,
        "duration": 0.285,
        "velocity": 0.82,
        "hand": "right"
      },
      {
        "midi": 46,
        "time": 11.1,
        "duration": 0.075,
        "velocity": 0.51,
        "hand": "left"
      },
      {
        "midi": 54,
        "time": 11.1,
        "duration": 0.075,
        "velocity": 0.43,
        "hand": "left"
      },
      {
        "midi": 62,
        "time": 11.1,
        "duration": 0.075,
        "velocity": 0.65,
        "hand": "right"
      },
      {
        "midi": 67,
        "time": 11.1,
        "duration": 0.15,
        "velocity": 0.54,
        "hand": "right"
      },
      {
        "midi": 38,
        "time": 11.25,
        "duration": 0.075,
        "velocity": 0.39,
        "hand": "left"
      },
      {
        "midi": 40,
        "time": 11.25,
        "duration": 0.075,
        "velocity": 0.57,
        "hand": "left"
      },
      {
        "midi": 36,
        "time": 11.4,
        "duration": 0.075,
        "velocity": 0.61,
        "hand": "left"
      },
      {
        "midi": 38,
        "time": 11.4,
        "duration": 0.075,
        "velocity": 0.39,
        "hand": "left"
      },
      {
        "midi": 62,
        "time": 11.4,
        "duration": 0.075,
        "velocity": 0.61,
        "hand": "right"
      },
      {
        "midi": 64,
        "time": 11.4,
        "duration": 0.45,
        "velocity": 0.59,
        "hand": "right"
      },
      {
        "midi": 67,
        "time": 11.4,
        "duration": 0.075,
        "velocity": 0.51,
        "hand": "right"
      },
      {
        "midi": 38,
        "time": 11.7,
        "duration": 0.075,
        "velocity": 0.39,
        "hand": "left"
      },
      {
        "midi": 40,
        "time": 11.7,
        "duration": 0.075,
        "velocity": 0.61,
        "hand": "left"
      },
      {
        "midi": 62,
        "time": 11.7,
        "duration": 0.075,
        "velocity": 0.56,
        "hand": "right"
      },
      {
        "midi": 67,
        "time": 11.7,
        "duration": 0.15,
        "velocity": 0.59,
        "hand": "right"
      },
      {
        "midi": 38,
        "time": 12,
        "duration": 0.075,
        "velocity": 0.39,
        "hand": "left"
      },
      {
        "midi": 40,
        "time": 12,
        "duration": 0.285,
        "velocity": 0.77,
        "hand": "left"
      },
      {
        "midi": 64,
        "time": 12,
        "duration": 0.585,
        "velocity": 0.64,
        "hand": "right"
      },
      {
        "midi": 67,
        "time": 12,
        "duration": 1.05,
        "velocity": 0.74,
        "hand": "right"
      },
      {
        "midi": 69,
        "time": 12,
        "duration": 1.05,
        "velocity": 0.54,
        "hand": "right"
      },
      {
        "midi": 55,
        "time": 12.15,
        "duration": 0.15,
        "velocity": 0.52,
        "hand": "left"
      },
      {
        "midi": 59,
        "time": 12.15,
        "duration": 0.075,
        "velocity": 0.51,
        "hand": "left"
      },
      {
        "midi": 62,
        "time": 12.15,
        "duration": 0.075,
        "velocity": 0.51,
        "hand": "right"
      },
      {
        "midi": 66,
        "time": 12.15,
        "duration": 0.15,
        "velocity": 0.4,
        "hand": "right"
      },
      {
        "midi": 38,
        "time": 12.3,
        "duration": 0.075,
        "velocity": 0.39,
        "hand": "left"
      },
      {
        "midi": 40,
        "time": 12.3,
        "duration": 0.075,
        "velocity": 0.61,
        "hand": "left"
      },
      {
        "midi": 55,
        "time": 12.45,
        "duration": 0.075,
        "velocity": 0.51,
        "hand": "left"
      },
      {
        "midi": 59,
        "time": 12.45,
        "duration": 0.075,
        "velocity": 0.46,
        "hand": "left"
      },
      {
        "midi": 62,
        "time": 12.45,
        "duration": 0.075,
        "velocity": 0.49,
        "hand": "right"
      },
      {
        "midi": 66,
        "time": 12.45,
        "duration": 0.135,
        "velocity": 0.47,
        "hand": "right"
      },
      {
        "midi": 36,
        "time": 12.6,
        "duration": 0.075,
        "velocity": 0.72,
        "hand": "left"
      },
      {
        "midi": 38,
        "time": 12.6,
        "duration": 0.075,
        "velocity": 0.39,
        "hand": "left"
      },
      {
        "midi": 62,
        "time": 12.6,
        "duration": 0.075,
        "velocity": 0.5,
        "hand": "right"
      },
      {
        "midi": 64,
        "time": 12.6,
        "duration": 0.585,
        "velocity": 0.68,
        "hand": "right"
      },
      {
        "midi": 66,
        "time": 12.6,
        "duration": 0.15,
        "velocity": 0.43,
        "hand": "right"
      },
      {
        "midi": 38,
        "time": 12.75,
        "duration": 0.075,
        "velocity": 0.39,
        "hand": "left"
      },
      {
        "midi": 40,
        "time": 12.75,
        "duration": 0.075,
        "velocity": 0.54,
        "hand": "left"
      },
      {
        "midi": 38,
        "time": 12.9,
        "duration": 0.075,
        "velocity": 0.39,
        "hand": "left"
      },
      {
        "midi": 46,
        "time": 12.9,
        "duration": 0.075,
        "velocity": 0.51,
        "hand": "left"
      },
      {
        "midi": 62,
        "time": 12.9,
        "duration": 0.15,
        "velocity": 0.49,
        "hand": "right"
      },
      {
        "midi": 66,
        "time": 12.9,
        "duration": 0.15,
        "velocity": 0.19,
        "hand": "right"
      },
      {
        "midi": 38,
        "time": 13.05,
        "duration": 0.075,
        "velocity": 0.39,
        "hand": "left"
      },
      {
        "midi": 38,
        "time": 13.2,
        "duration": 0.435,
        "velocity": 0.8,
        "hand": "left"
      },
      {
        "midi": 40,
        "time": 13.2,
        "duration": 0.075,
        "velocity": 0.57,
        "hand": "left"
      },
      {
        "midi": 62,
        "time": 13.2,
        "duration": 0.285,
        "velocity": 0.72,
        "hand": "right"
      },
      {
        "midi": 65,
        "time": 13.2,
        "duration": 0.285,
        "velocity": 0.68,
        "hand": "right"
      },
      {
        "midi": 67,
        "time": 13.2,
        "duration": 0.285,
        "velocity": 0.83,
        "hand": "right"
      },
      {
        "midi": 46,
        "time": 13.5,
        "duration": 0.075,
        "velocity": 0.51,
        "hand": "left"
      },
      {
        "midi": 54,
        "time": 13.5,
        "duration": 0.075,
        "velocity": 0.43,
        "hand": "left"
      },
      {
        "midi": 60,
        "time": 13.5,
        "duration": 0.15,
        "velocity": 0.63,
        "hand": "right"
      },
      {
        "midi": 62,
        "time": 13.5,
        "duration": 0.15,
        "velocity": 0.61,
        "hand": "right"
      },
      {
        "midi": 65,
        "time": 13.5,
        "duration": 0.15,
        "velocity": 0.58,
        "hand": "right"
      },
      {
        "midi": 67,
        "time": 13.5,
        "duration": 0.15,
        "velocity": 0.81,
        "hand": "right"
      },
      {
        "midi": 38,
        "time": 13.65,
        "duration": 0.075,
        "velocity": 0.39,
        "hand": "left"
      },
      {
        "midi": 40,
        "time": 13.65,
        "duration": 0.075,
        "velocity": 0.65,
        "hand": "left"
      },
      {
        "midi": 36,
        "time": 13.8,
        "duration": 0.075,
        "velocity": 0.72,
        "hand": "left"
      },
      {
        "midi": 38,
        "time": 13.8,
        "duration": 0.075,
        "velocity": 0.39,
        "hand": "left"
      },
      {
        "midi": 61,
        "time": 13.8,
        "duration": 0.285,
        "velocity": 0.72,
        "hand": "right"
      },
      {
        "midi": 65,
        "time": 13.8,
        "duration": 0.285,
        "velocity": 0.68,
        "hand": "right"
      },
      {
        "midi": 72,
        "time": 13.8,
        "duration": 0.15,
        "velocity": 0.82,
        "hand": "right"
      },
      {
        "midi": 38,
        "time": 14.1,
        "duration": 0.075,
        "velocity": 0.39,
        "hand": "left"
      },
      {
        "midi": 40,
        "time": 14.1,
        "duration": 0.075,
        "velocity": 0.57,
        "hand": "left"
      },
      {
        "midi": 61,
        "time": 14.1,
        "duration": 0.15,
        "velocity": 0.53,
        "hand": "right"
      },
      {
        "midi": 65,
        "time": 14.1,
        "duration": 0.15,
        "velocity": 0.52,
        "hand": "right"
      },
      {
        "midi": 74,
        "time": 14.1,
        "duration": 0.3,
        "velocity": 0.72,
        "hand": "right"
      },
      {
        "midi": 36,
        "time": 14.4,
        "duration": 0.45,
        "velocity": 0.79,
        "hand": "left"
      },
      {
        "midi": 38,
        "time": 14.4,
        "duration": 0.075,
        "velocity": 0.39,
        "hand": "left"
      },
      {
        "midi": 62,
        "time": 14.4,
        "duration": 0.435,
        "velocity": 0.73,
        "hand": "right"
      },
      {
        "midi": 67,
        "time": 14.4,
        "duration": 0.435,
        "velocity": 0.65,
        "hand": "right"
      },
      {
        "midi": 76,
        "time": 14.4,
        "duration": 0.75,
        "velocity": 0.77,
        "hand": "right"
      },
      {
        "midi": 38,
        "time": 14.7,
        "duration": 0.075,
        "velocity": 0.39,
        "hand": "left"
      },
      {
        "midi": 40,
        "time": 14.7,
        "duration": 0.075,
        "velocity": 0.57,
        "hand": "left"
      },
      {
        "midi": 57,
        "time": 14.85,
        "duration": 0.075,
        "velocity": 0.54,
        "hand": "left"
      },
      {
        "midi": 62,
        "time": 14.85,
        "duration": 0.075,
        "velocity": 0.61,
        "hand": "right"
      },
      {
        "midi": 67,
        "time": 14.85,
        "duration": 0.135,
        "velocity": 0.56,
        "hand": "right"
      },
      {
        "midi": 36,
        "time": 15,
        "duration": 0.075,
        "velocity": 0.72,
        "hand": "left"
      },
      {
        "midi": 38,
        "time": 15,
        "duration": 0.075,
        "velocity": 0.39,
        "hand": "left"
      },
      {
        "midi": 62,
        "time": 15,
        "duration": 0.075,
        "velocity": 0.64,
        "hand": "right"
      },
      {
        "midi": 67,
        "time": 15,
        "duration": 0.15,
        "velocity": 0.54,
        "hand": "right"
      },
      {
        "midi": 38,
        "time": 15.15,
        "duration": 0.075,
        "velocity": 0.39,
        "hand": "left"
      },
      {
        "midi": 40,
        "time": 15.15,
        "duration": 0.075,
        "velocity": 0.68,
        "hand": "left"
      },
      {
        "midi": 38,
        "time": 15.3,
        "duration": 0.075,
        "velocity": 0.39,
        "hand": "left"
      },
      {
        "midi": 46,
        "time": 15.3,
        "duration": 0.075,
        "velocity": 0.51,
        "hand": "left"
      },
      {
        "midi": 62,
        "time": 15.3,
        "duration": 0.075,
        "velocity": 0.64,
        "hand": "right"
      },
      {
        "midi": 67,
        "time": 15.3,
        "duration": 0.15,
        "velocity": 0.5,
        "hand": "right"
      },
      {
        "midi": 74,
        "time": 15.3,
        "duration": 0.3,
        "velocity": 0.7,
        "hand": "right"
      },
      {
        "midi": 38,
        "time": 15.45,
        "duration": 0.075,
        "velocity": 0.39,
        "hand": "left"
      },
      {
        "midi": 52,
        "time": 15.45,
        "duration": 1.05,
        "velocity": 0.49,
        "hand": "left"
      },
      {
        "midi": 36,
        "time": 15.6,
        "duration": 0.585,
        "velocity": 0.78,
        "hand": "left"
      },
      {
        "midi": 38,
        "time": 15.6,
        "duration": 0.075,
        "velocity": 0.39,
        "hand": "left"
      },
      {
        "midi": 62,
        "time": 15.6,
        "duration": 0.285,
        "velocity": 0.58,
        "hand": "right"
      },
      {
        "midi": 67,
        "time": 15.6,
        "duration": 0.585,
        "velocity": 0.55,
        "hand": "right"
      },
      {
        "midi": 72,
        "time": 15.6,
        "duration": 0.6,
        "velocity": 0.79,
        "hand": "right"
      },
      {
        "midi": 46,
        "time": 15.9,
        "duration": 0.075,
        "velocity": 0.51,
        "hand": "left"
      },
      {
        "midi": 54,
        "time": 15.9,
        "duration": 0.075,
        "velocity": 0.43,
        "hand": "left"
      },
      {
        "midi": 62,
        "time": 15.9,
        "duration": 0.075,
        "velocity": 0.57,
        "hand": "right"
      },
      {
        "midi": 38,
        "time": 16.05,
        "duration": 0.075,
        "velocity": 0.39,
        "hand": "left"
      },
      {
        "midi": 40,
        "time": 16.05,
        "duration": 0.075,
        "velocity": 0.59,
        "hand": "left"
      },
      {
        "midi": 36,
        "time": 16.2,
        "duration": 0.075,
        "velocity": 0.69,
        "hand": "left"
      },
      {
        "midi": 38,
        "time": 16.2,
        "duration": 0.075,
        "velocity": 0.39,
        "hand": "left"
      },
      {
        "midi": 62,
        "time": 16.2,
        "duration": 0.075,
        "velocity": 0.7,
        "hand": "right"
      },
      {
        "midi": 67,
        "time": 16.2,
        "duration": 0.15,
        "velocity": 0.61,
        "hand": "right"
      },
      {
        "midi": 38,
        "time": 16.5,
        "duration": 0.075,
        "velocity": 0.39,
        "hand": "left"
      },
      {
        "midi": 40,
        "time": 16.5,
        "duration": 0.075,
        "velocity": 0.56,
        "hand": "left"
      },
      {
        "midi": 62,
        "time": 16.5,
        "duration": 0.075,
        "velocity": 0.54,
        "hand": "right"
      },
      {
        "midi": 67,
        "time": 16.5,
        "duration": 0.285,
        "velocity": 0.81,
        "hand": "right"
      },
      {
        "midi": 36,
        "time": 16.8,
        "duration": 0.585,
        "velocity": 0.79,
        "hand": "left"
      },
      {
        "midi": 38,
        "time": 16.8,
        "duration": 0.075,
        "velocity": 0.39,
        "hand": "left"
      },
      {
        "midi": 62,
        "time": 16.8,
        "duration": 0.435,
        "velocity": 0.73,
        "hand": "right"
      },
      {
        "midi": 67,
        "time": 16.8,
        "duration": 0.285,
        "velocity": 0.7,
        "hand": "right"
      },
      {
        "midi": 69,
        "time": 16.8,
        "duration": 0.3,
        "velocity": 0.62,
        "hand": "right"
      },
      {
        "midi": 40,
        "time": 16.95,
        "duration": 0.075,
        "velocity": 0.61,
        "hand": "left"
      },
      {
        "midi": 38,
        "time": 17.1,
        "duration": 0.075,
        "velocity": 0.39,
        "hand": "left"
      },
      {
        "midi": 46,
        "time": 17.1,
        "duration": 0.075,
        "velocity": 0.51,
        "hand": "left"
      },
      {
        "midi": 67,
        "time": 17.1,
        "duration": 0.135,
        "velocity": 0.65,
        "hand": "right"
      },
      {
        "midi": 57,
        "time": 17.25,
        "duration": 0.075,
        "velocity": 0.54,
        "hand": "left"
      },
      {
        "midi": 62,
        "time": 17.25,
        "duration": 0.075,
        "velocity": 0.56,
        "hand": "right"
      },
      {
        "midi": 67,
        "time": 17.25,
        "duration": 0.135,
        "velocity": 0.52,
        "hand": "right"
      },
      {
        "midi": 36,
        "time": 17.4,
        "duration": 0.075,
        "velocity": 0.69,
        "hand": "left"
      },
      {
        "midi": 38,
        "time": 17.4,
        "duration": 0.075,
        "velocity": 0.39,
        "hand": "left"
      },
      {
        "midi": 62,
        "time": 17.4,
        "duration": 0.15,
        "velocity": 0.61,
        "hand": "right"
      },
      {
        "midi": 64,
        "time": 17.4,
        "duration": 0.3,
        "velocity": 0.65,
        "hand": "right"
      },
      {
        "midi": 67,
        "time": 17.4,
        "duration": 0.15,
        "velocity": 0.51,
        "hand": "right"
      },
      {
        "midi": 38,
        "time": 17.55,
        "duration": 0.075,
        "velocity": 0.39,
        "hand": "left"
      },
      {
        "midi": 36,
        "time": 17.7,
        "duration": 0.3,
        "velocity": 0.8,
        "hand": "left"
      },
      {
        "midi": 38,
        "time": 17.7,
        "duration": 0.075,
        "velocity": 0.39,
        "hand": "left"
      },
      {
        "midi": 62,
        "time": 17.7,
        "duration": 0.15,
        "velocity": 0.5,
        "hand": "right"
      },
      {
        "midi": 67,
        "time": 17.7,
        "duration": 0.15,
        "velocity": 0.52,
        "hand": "right"
      },
      {
        "midi": 38,
        "time": 17.85,
        "duration": 0.075,
        "velocity": 0.39,
        "hand": "left"
      },
      {
        "midi": 40,
        "time": 18,
        "duration": 0.435,
        "velocity": 0.97,
        "hand": "left"
      },
      {
        "midi": 42,
        "time": 18,
        "duration": 0.075,
        "velocity": 0.63,
        "hand": "left"
      },
      {
        "midi": 64,
        "time": 18,
        "duration": 0.585,
        "velocity": 0.64,
        "hand": "right"
      },
      {
        "midi": 67,
        "time": 18,
        "duration": 0.285,
        "velocity": 0.58,
        "hand": "right"
      },
      {
        "midi": 69,
        "time": 18,
        "duration": 0.6,
        "velocity": 0.62,
        "hand": "right"
      },
      {
        "midi": 46,
        "time": 18.3,
        "duration": 0.075,
        "velocity": 0.51,
        "hand": "left"
      },
      {
        "midi": 54,
        "time": 18.3,
        "duration": 0.075,
        "velocity": 0.43,
        "hand": "left"
      },
      {
        "midi": 62,
        "time": 18.3,
        "duration": 0.075,
        "velocity": 0.43,
        "hand": "right"
      },
      {
        "midi": 67,
        "time": 18.3,
        "duration": 0.3,
        "velocity": 0.65,
        "hand": "right"
      },
      {
        "midi": 38,
        "time": 18.45,
        "duration": 0.075,
        "velocity": 0.39,
        "hand": "left"
      },
      {
        "midi": 40,
        "time": 18.45,
        "duration": 0.075,
        "velocity": 0.56,
        "hand": "left"
      },
      {
        "midi": 36,
        "time": 18.6,
        "duration": 0.075,
        "velocity": 0.72,
        "hand": "left"
      },
      {
        "midi": 38,
        "time": 18.6,
        "duration": 0.075,
        "velocity": 0.39,
        "hand": "left"
      },
      {
        "midi": 62,
        "time": 18.6,
        "duration": 0.15,
        "velocity": 0.57,
        "hand": "right"
      },
      {
        "midi": 64,
        "time": 18.6,
        "duration": 0.3,
        "velocity": 0.77,
        "hand": "right"
      },
      {
        "midi": 66,
        "time": 18.6,
        "duration": 0.15,
        "velocity": 0.55,
        "hand": "right"
      },
      {
        "midi": 38,
        "time": 18.9,
        "duration": 0.075,
        "velocity": 0.39,
        "hand": "left"
      },
      {
        "midi": 40,
        "time": 18.9,
        "duration": 0.15,
        "velocity": 0.76,
        "hand": "left"
      },
      {
        "midi": 62,
        "time": 18.9,
        "duration": 0.15,
        "velocity": 0.51,
        "hand": "right"
      },
      {
        "midi": 67,
        "time": 18.9,
        "duration": 0.3,
        "velocity": 0.76,
        "hand": "right"
      },
      {
        "midi": 38,
        "time": 19.2,
        "duration": 0.585,
        "velocity": 0.78,
        "hand": "left"
      },
      {
        "midi": 42,
        "time": 19.2,
        "duration": 0.075,
        "velocity": 0.63,
        "hand": "left"
      },
      {
        "midi": 60,
        "time": 19.2,
        "duration": 0.285,
        "velocity": 0.74,
        "hand": "right"
      },
      {
        "midi": 62,
        "time": 19.2,
        "duration": 0.285,
        "velocity": 0.72,
        "hand": "right"
      },
      {
        "midi": 65,
        "time": 19.2,
        "duration": 0.285,
        "velocity": 0.64,
        "hand": "right"
      },
      {
        "midi": 69,
        "time": 19.2,
        "duration": 0.15,
        "velocity": 0.65,
        "hand": "right"
      },
      {
        "midi": 55,
        "time": 19.5,
        "duration": 0.15,
        "velocity": 0.58,
        "hand": "left"
      },
      {
        "midi": 60,
        "time": 19.5,
        "duration": 0.15,
        "velocity": 0.64,
        "hand": "right"
      },
      {
        "midi": 62,
        "time": 19.5,
        "duration": 0.15,
        "velocity": 0.64,
        "hand": "right"
      },
      {
        "midi": 65,
        "time": 19.5,
        "duration": 0.15,
        "velocity": 0.64,
        "hand": "right"
      },
      {
        "midi": 69,
        "time": 19.5,
        "duration": 0.3,
        "velocity": 0.62,
        "hand": "right"
      },
      {
        "midi": 36,
        "time": 19.8,
        "duration": 0.075,
        "velocity": 0.69,
        "hand": "left"
      },
      {
        "midi": 38,
        "time": 19.8,
        "duration": 0.075,
        "velocity": 0.39,
        "hand": "left"
      },
      {
        "midi": 61,
        "time": 19.8,
        "duration": 0.285,
        "velocity": 0.57,
        "hand": "right"
      },
      {
        "midi": 65,
        "time": 19.8,
        "duration": 0.285,
        "velocity": 0.5,
        "hand": "right"
      },
      {
        "midi": 71,
        "time": 19.8,
        "duration": 0.15,
        "velocity": 0.65,
        "hand": "right"
      },
      {
        "midi": 37,
        "time": 20.1,
        "duration": 0.3,
        "velocity": 0.77,
        "hand": "left"
      },
      {
        "midi": 55,
        "time": 20.1,
        "duration": 0.15,
        "velocity": 0.64,
        "hand": "left"
      },
      {
        "midi": 61,
        "time": 20.1,
        "duration": 0.15,
        "velocity": 0.55,
        "hand": "right"
      },
      {
        "midi": 65,
        "time": 20.1,
        "duration": 0.15,
        "velocity": 0.57,
        "hand": "right"
      },
      {
        "midi": 71,
        "time": 20.1,
        "duration": 0.15,
        "velocity": 0.64,
        "hand": "right"
      },
      {
        "midi": 36,
        "time": 20.4,
        "duration": 0.3,
        "velocity": 0.87,
        "hand": "left"
      },
      {
        "midi": 38,
        "time": 20.4,
        "duration": 0.075,
        "velocity": 0.39,
        "hand": "left"
      },
      {
        "midi": 62,
        "time": 20.4,
        "duration": 0.435,
        "velocity": 0.72,
        "hand": "right"
      },
      {
        "midi": 67,
        "time": 20.4,
        "duration": 0.435,
        "velocity": 0.68,
        "hand": "right"
      },
      {
        "midi": 72,
        "time": 20.4,
        "duration": 0.75,
        "velocity": 0.79,
        "hand": "right"
      },
      {
        "midi": 46,
        "time": 20.7,
        "duration": 0.075,
        "velocity": 0.51,
        "hand": "left"
      },
      {
        "midi": 54,
        "time": 20.7,
        "duration": 0.075,
        "velocity": 0.43,
        "hand": "left"
      },
      {
        "midi": 38,
        "time": 20.85,
        "duration": 0.075,
        "velocity": 0.39,
        "hand": "left"
      },
      {
        "midi": 40,
        "time": 20.85,
        "duration": 0.075,
        "velocity": 0.54,
        "hand": "left"
      },
      {
        "midi": 62,
        "time": 20.85,
        "duration": 0.075,
        "velocity": 0.65,
        "hand": "right"
      },
      {
        "midi": 67,
        "time": 20.85,
        "duration": 0.15,
        "velocity": 0.57,
        "hand": "right"
      },
      {
        "midi": 36,
        "time": 21,
        "duration": 0.075,
        "velocity": 0.72,
        "hand": "left"
      },
      {
        "midi": 38,
        "time": 21,
        "duration": 0.075,
        "velocity": 0.39,
        "hand": "left"
      },
      {
        "midi": 38,
        "time": 21.3,
        "duration": 0.075,
        "velocity": 0.39,
        "hand": "left"
      },
      {
        "midi": 40,
        "time": 21.3,
        "duration": 0.075,
        "velocity": 0.55,
        "hand": "left"
      },
      {
        "midi": 62,
        "time": 21.3,
        "duration": 0.075,
        "velocity": 0.72,
        "hand": "right"
      },
      {
        "midi": 67,
        "time": 21.3,
        "duration": 0.285,
        "velocity": 0.8,
        "hand": "right"
      },
      {
        "midi": 36,
        "time": 21.6,
        "duration": 0.585,
        "velocity": 0.79,
        "hand": "left"
      },
      {
        "midi": 38,
        "time": 21.6,
        "duration": 0.075,
        "velocity": 0.39,
        "hand": "left"
      },
      {
        "midi": 62,
        "time": 21.6,
        "duration": 0.285,
        "velocity": 0.73,
        "hand": "right"
      },
      {
        "midi": 67,
        "time": 21.6,
        "duration": 0.285,
        "velocity": 0.7,
        "hand": "right"
      },
      {
        "midi": 69,
        "time": 21.6,
        "duration": 0.3,
        "velocity": 0.64,
        "hand": "right"
      },
      {
        "midi": 38,
        "time": 21.9,
        "duration": 0.075,
        "velocity": 0.39,
        "hand": "left"
      },
      {
        "midi": 40,
        "time": 21.9,
        "duration": 0.075,
        "velocity": 0.63,
        "hand": "left"
      },
      {
        "midi": 62,
        "time": 21.9,
        "duration": 0.075,
        "velocity": 0.73,
        "hand": "right"
      },
      {
        "midi": 67,
        "time": 21.9,
        "duration": 0.285,
        "velocity": 0.62,
        "hand": "right"
      },
      {
        "midi": 36,
        "time": 22.2,
        "duration": 0.075,
        "velocity": 0.69,
        "hand": "left"
      },
      {
        "midi": 38,
        "time": 22.2,
        "duration": 0.075,
        "velocity": 0.39,
        "hand": "left"
      },
      {
        "midi": 62,
        "time": 22.2,
        "duration": 0.15,
        "velocity": 0.74,
        "hand": "right"
      },
      {
        "midi": 64,
        "time": 22.2,
        "duration": 0.3,
        "velocity": 0.8,
        "hand": "right"
      },
      {
        "midi": 67,
        "time": 22.2,
        "duration": 0.15,
        "velocity": 0.72,
        "hand": "right"
      },
      {
        "midi": 38,
        "time": 22.35,
        "duration": 0.075,
        "velocity": 0.39,
        "hand": "left"
      },
      {
        "midi": 40,
        "time": 22.35,
        "duration": 0.075,
        "velocity": 0.57,
        "hand": "left"
      },
      {
        "midi": 36,
        "time": 22.5,
        "duration": 0.3,
        "velocity": 0.8,
        "hand": "left"
      },
      {
        "midi": 38,
        "time": 22.5,
        "duration": 0.075,
        "velocity": 0.39,
        "hand": "left"
      },
      {
        "midi": 60,
        "time": 22.5,
        "duration": 0.075,
        "velocity": 0.54,
        "hand": "right"
      },
      {
        "midi": 62,
        "time": 22.5,
        "duration": 0.15,
        "velocity": 0.5,
        "hand": "right"
      },
      {
        "midi": 67,
        "time": 22.5,
        "duration": 0.285,
        "velocity": 0.76,
        "hand": "right"
      },
      {
        "midi": 38,
        "time": 22.65,
        "duration": 0.075,
        "velocity": 0.39,
        "hand": "left"
      },
      {
        "midi": 59,
        "time": 22.65,
        "duration": 0.135,
        "velocity": 0.43,
        "hand": "left"
      },
      {
        "midi": 38,
        "time": 22.8,
        "duration": 0.075,
        "velocity": 0.39,
        "hand": "left"
      },
      {
        "midi": 40,
        "time": 22.8,
        "duration": 0.435,
        "velocity": 0.97,
        "hand": "left"
      },
      {
        "midi": 64,
        "time": 22.8,
        "duration": 0.585,
        "velocity": 0.64,
        "hand": "right"
      },
      {
        "midi": 67,
        "time": 22.8,
        "duration": 0.285,
        "velocity": 0.58,
        "hand": "right"
      },
      {
        "midi": 69,
        "time": 22.8,
        "duration": 0.9,
        "velocity": 0.64,
        "hand": "right"
      },
      {
        "midi": 46,
        "time": 23.1,
        "duration": 0.075,
        "velocity": 0.51,
        "hand": "left"
      },
      {
        "midi": 54,
        "time": 23.1,
        "duration": 0.075,
        "velocity": 0.43,
        "hand": "left"
      },
      {
        "midi": 67,
        "time": 23.1,
        "duration": 0.3,
        "velocity": 0.62,
        "hand": "right"
      },
      {
        "midi": 38,
        "time": 23.25,
        "duration": 0.075,
        "velocity": 0.39,
        "hand": "left"
      },
      {
        "midi": 40,
        "time": 23.25,
        "duration": 0.075,
        "velocity": 0.72,
        "hand": "left"
      },
      {
        "midi": 62,
        "time": 23.25,
        "duration": 0.135,
        "velocity": 0.48,
        "hand": "right"
      },
      {
        "midi": 66,
        "time": 23.25,
        "duration": 0.135,
        "velocity": 0.51,
        "hand": "right"
      },
      {
        "midi": 36,
        "time": 23.4,
        "duration": 0.075,
        "velocity": 0.54,
        "hand": "left"
      },
      {
        "midi": 38,
        "time": 23.4,
        "duration": 0.075,
        "velocity": 0.39,
        "hand": "left"
      },
      {
        "midi": 62,
        "time": 23.4,
        "duration": 0.285,
        "velocity": 0.56,
        "hand": "right"
      },
      {
        "midi": 64,
        "time": 23.4,
        "duration": 0.3,
        "velocity": 0.7,
        "hand": "right"
      },
      {
        "midi": 66,
        "time": 23.4,
        "duration": 0.15,
        "velocity": 0.54,
        "hand": "right"
      },
      {
        "midi": 38,
        "time": 23.7,
        "duration": 0.075,
        "velocity": 0.39,
        "hand": "left"
      },
      {
        "midi": 40,
        "time": 23.7,
        "duration": 0.15,
        "velocity": 0.76,
        "hand": "left"
      },
      {
        "midi": 62,
        "time": 23.7,
        "duration": 0.15,
        "velocity": 0.5,
        "hand": "right"
      },
      {
        "midi": 67,
        "time": 23.7,
        "duration": 0.3,
        "velocity": 0.72,
        "hand": "right"
      },
      {
        "midi": 38,
        "time": 24,
        "duration": 0.585,
        "velocity": 0.78,
        "hand": "left"
      },
      {
        "midi": 42,
        "time": 24,
        "duration": 0.075,
        "velocity": 0.63,
        "hand": "left"
      },
      {
        "midi": 60,
        "time": 24,
        "duration": 0.285,
        "velocity": 0.74,
        "hand": "right"
      },
      {
        "midi": 62,
        "time": 24,
        "duration": 0.285,
        "velocity": 0.69,
        "hand": "right"
      },
      {
        "midi": 65,
        "time": 24,
        "duration": 0.285,
        "velocity": 0.7,
        "hand": "right"
      },
      {
        "midi": 69,
        "time": 24,
        "duration": 0.15,
        "velocity": 0.72,
        "hand": "right"
      },
      {
        "midi": 55,
        "time": 24.3,
        "duration": 0.15,
        "velocity": 0.64,
        "hand": "left"
      },
      {
        "midi": 60,
        "time": 24.3,
        "duration": 0.15,
        "velocity": 0.72,
        "hand": "right"
      },
      {
        "midi": 62,
        "time": 24.3,
        "duration": 0.15,
        "velocity": 0.65,
        "hand": "right"
      },
      {
        "midi": 65,
        "time": 24.3,
        "duration": 0.15,
        "velocity": 0.68,
        "hand": "right"
      },
      {
        "midi": 69,
        "time": 24.3,
        "duration": 0.3,
        "velocity": 0.66,
        "hand": "right"
      },
      {
        "midi": 36,
        "time": 24.6,
        "duration": 0.075,
        "velocity": 0.7,
        "hand": "left"
      },
      {
        "midi": 38,
        "time": 24.6,
        "duration": 0.075,
        "velocity": 0.39,
        "hand": "left"
      },
      {
        "midi": 62,
        "time": 24.6,
        "duration": 0.3,
        "velocity": 0.51,
        "hand": "right"
      },
      {
        "midi": 65,
        "time": 24.6,
        "duration": 0.285,
        "velocity": 0.58,
        "hand": "right"
      },
      {
        "midi": 71,
        "time": 24.6,
        "duration": 0.15,
        "velocity": 0.65,
        "hand": "right"
      },
      {
        "midi": 37,
        "time": 24.9,
        "duration": 0.3,
        "velocity": 0.77,
        "hand": "left"
      },
      {
        "midi": 55,
        "time": 24.9,
        "duration": 0.15,
        "velocity": 0.45,
        "hand": "left"
      },
      {
        "midi": 61,
        "time": 24.9,
        "duration": 0.15,
        "velocity": 0.45,
        "hand": "right"
      },
      {
        "midi": 65,
        "time": 24.9,
        "duration": 0.15,
        "velocity": 0.38,
        "hand": "right"
      },
      {
        "midi": 71,
        "time": 24.9,
        "duration": 0.15,
        "velocity": 0.66,
        "hand": "right"
      },
      {
        "midi": 36,
        "time": 25.2,
        "duration": 0.3,
        "velocity": 0.87,
        "hand": "left"
      },
      {
        "midi": 38,
        "time": 25.2,
        "duration": 0.075,
        "velocity": 0.39,
        "hand": "left"
      },
      {
        "midi": 62,
        "time": 25.2,
        "duration": 0.15,
        "velocity": 0.75,
        "hand": "right"
      },
      {
        "midi": 64,
        "time": 25.2,
        "duration": 0.3,
        "velocity": 0.59,
        "hand": "right"
      },
      {
        "midi": 67,
        "time": 25.2,
        "duration": 0.285,
        "velocity": 0.56,
        "hand": "right"
      },
      {
        "midi": 72,
        "time": 25.2,
        "duration": 0.45,
        "velocity": 0.74,
        "hand": "right"
      },
      {
        "midi": 43,
        "time": 25.5,
        "duration": 0.3,
        "velocity": 0.87,
        "hand": "left"
      },
      {
        "midi": 46,
        "time": 25.5,
        "duration": 0.075,
        "velocity": 0.51,
        "hand": "left"
      },
      {
        "midi": 60,
        "time": 25.5,
        "duration": 0.075,
        "velocity": 0.58,
        "hand": "right"
      },
      {
        "midi": 63,
        "time": 25.5,
        "duration": 0.45,
        "velocity": 0.78,
        "hand": "right"
      },
      {
        "midi": 67,
        "time": 25.5,
        "duration": 0.45,
        "velocity": 0.73,
        "hand": "right"
      },
      {
        "midi": 38,
        "time": 25.65,
        "duration": 0.075,
        "velocity": 0.39,
        "hand": "left"
      },
      {
        "midi": 40,
        "time": 25.65,
        "duration": 0.075,
        "velocity": 0.54,
        "hand": "left"
      },
      {
        "midi": 36,
        "time": 25.8,
        "duration": 0.075,
        "velocity": 0.69,
        "hand": "left"
      },
      {
        "midi": 38,
        "time": 25.8,
        "duration": 0.075,
        "velocity": 0.39,
        "hand": "left"
      },
      {
        "midi": 38,
        "time": 26.1,
        "duration": 0.075,
        "velocity": 0.39,
        "hand": "left"
      },
      {
        "midi": 40,
        "time": 26.1,
        "duration": 0.075,
        "velocity": 0.56,
        "hand": "left"
      },
      {
        "midi": 67,
        "time": 26.1,
        "duration": 0.285,
        "velocity": 0.94,
        "hand": "right"
      },
      {
        "midi": 36,
        "time": 26.4,
        "duration": 0.585,
        "velocity": 0.82,
        "hand": "left"
      },
      {
        "midi": 42,
        "time": 26.4,
        "duration": 0.075,
        "velocity": 0.63,
        "hand": "left"
      },
      {
        "midi": 62,
        "time": 26.4,
        "duration": 0.435,
        "velocity": 0.72,
        "hand": "right"
      },
      {
        "midi": 64,
        "time": 26.4,
        "duration": 1.05,
        "velocity": 0.61,
        "hand": "right"
      },
      {
        "midi": 67,
        "time": 26.4,
        "duration": 0.435,
        "velocity": 0.57,
        "hand": "right"
      },
      {
        "midi": 72,
        "time": 26.4,
        "duration": 0.45,
        "velocity": 0.9,
        "hand": "right"
      },
      {
        "midi": 50,
        "time": 26.55,
        "duration": 0.075,
        "velocity": 0.81,
        "hand": "left"
      },
      {
        "midi": 46,
        "time": 26.7,
        "duration": 0.075,
        "velocity": 0.51,
        "hand": "left"
      },
      {
        "midi": 50,
        "time": 26.7,
        "duration": 0.075,
        "velocity": 0.81,
        "hand": "left"
      },
      {
        "midi": 48,
        "time": 26.85,
        "duration": 0.075,
        "velocity": 0.81,
        "hand": "left"
      },
      {
        "midi": 57,
        "time": 26.85,
        "duration": 0.075,
        "velocity": 0.46,
        "hand": "left"
      },
      {
        "midi": 62,
        "time": 26.85,
        "duration": 0.075,
        "velocity": 0.52,
        "hand": "right"
      },
      {
        "midi": 67,
        "time": 26.85,
        "duration": 0.135,
        "velocity": 0.53,
        "hand": "right"
      },
      {
        "midi": 36,
        "time": 27,
        "duration": 0.075,
        "velocity": 0.69,
        "hand": "left"
      },
      {
        "midi": 41,
        "time": 27,
        "duration": 0.075,
        "velocity": 0.63,
        "hand": "left"
      },
      {
        "midi": 60,
        "time": 27,
        "duration": 0.15,
        "velocity": 0.52,
        "hand": "right"
      },
      {
        "midi": 62,
        "time": 27,
        "duration": 0.285,
        "velocity": 0.54,
        "hand": "right"
      },
      {
        "midi": 67,
        "time": 27,
        "duration": 0.285,
        "velocity": 0.35,
        "hand": "right"
      },
      {
        "midi": 71,
        "time": 27,
        "duration": 0.3,
        "velocity": 0.78,
        "hand": "right"
      },
      {
        "midi": 47,
        "time": 27.15,
        "duration": 0.075,
        "velocity": 0.81,
        "hand": "left"
      },
      {
        "midi": 36,
        "time": 27.3,
        "duration": 0.3,
        "velocity": 0.76,
        "hand": "left"
      },
      {
        "midi": 46,
        "time": 27.3,
        "duration": 0.075,
        "velocity": 0.51,
        "hand": "left"
      },
      {
        "midi": 62,
        "time": 27.3,
        "duration": 0.075,
        "velocity": 0.63,
        "hand": "right"
      },
      {
        "midi": 67,
        "time": 27.3,
        "duration": 0.15,
        "velocity": 0.57,
        "hand": "right"
      },
      {
        "midi": 69,
        "time": 27.3,
        "duration": 0.285,
        "velocity": 0.78,
        "hand": "right"
      },
      {
        "midi": 45,
        "time": 27.45,
        "duration": 0.075,
        "velocity": 0.81,
        "hand": "left"
      },
      {
        "midi": 38,
        "time": 27.6,
        "duration": 0.075,
        "velocity": 0.39,
        "hand": "left"
      },
      {
        "midi": 40,
        "time": 27.6,
        "duration": 0.285,
        "velocity": 0.7,
        "hand": "left"
      },
      {
        "midi": 64,
        "time": 27.6,
        "duration": 0.75,
        "velocity": 0.59,
        "hand": "right"
      },
      {
        "midi": 67,
        "time": 27.6,
        "duration": 0.75,
        "velocity": 0.56,
        "hand": "right"
      },
      {
        "midi": 69,
        "time": 27.6,
        "duration": 0.75,
        "velocity": 0.59,
        "hand": "right"
      },
      {
        "midi": 38,
        "time": 27.9,
        "duration": 0.075,
        "velocity": 0.39,
        "hand": "left"
      },
      {
        "midi": 40,
        "time": 27.9,
        "duration": 0.075,
        "velocity": 0.54,
        "hand": "left"
      },
      {
        "midi": 62,
        "time": 27.9,
        "duration": 0.075,
        "velocity": 0.52,
        "hand": "right"
      },
      {
        "midi": 66,
        "time": 27.9,
        "duration": 0.15,
        "velocity": 0.53,
        "hand": "right"
      },
      {
        "midi": 36,
        "time": 28.2,
        "duration": 0.075,
        "velocity": 0.7,
        "hand": "left"
      },
      {
        "midi": 38,
        "time": 28.2,
        "duration": 0.075,
        "velocity": 0.39,
        "hand": "left"
      },
      {
        "midi": 62,
        "time": 28.2,
        "duration": 0.075,
        "velocity": 0.49,
        "hand": "right"
      },
      {
        "midi": 66,
        "time": 28.2,
        "duration": 0.15,
        "velocity": 0.5,
        "hand": "right"
      },
      {
        "midi": 38,
        "time": 28.35,
        "duration": 0.075,
        "velocity": 0.39,
        "hand": "left"
      },
      {
        "midi": 40,
        "time": 28.35,
        "duration": 0.075,
        "velocity": 0.54,
        "hand": "left"
      },
      {
        "midi": 38,
        "time": 28.5,
        "duration": 0.075,
        "velocity": 0.39,
        "hand": "left"
      },
      {
        "midi": 40,
        "time": 28.5,
        "duration": 0.285,
        "velocity": 0.61,
        "hand": "left"
      },
      {
        "midi": 62,
        "time": 28.5,
        "duration": 0.075,
        "velocity": 0.49,
        "hand": "right"
      },
      {
        "midi": 66,
        "time": 28.5,
        "duration": 0.15,
        "velocity": 0.52,
        "hand": "right"
      },
      {
        "midi": 69,
        "time": 28.5,
        "duration": 0.3,
        "velocity": 0.8,
        "hand": "right"
      },
      {
        "midi": 38,
        "time": 28.65,
        "duration": 0.075,
        "velocity": 0.39,
        "hand": "left"
      },
      {
        "midi": 38,
        "time": 28.8,
        "duration": 0.435,
        "velocity": 0.78,
        "hand": "left"
      },
      {
        "midi": 40,
        "time": 28.8,
        "duration": 0.075,
        "velocity": 0.53,
        "hand": "left"
      },
      {
        "midi": 60,
        "time": 28.8,
        "duration": 0.285,
        "velocity": 0.61,
        "hand": "right"
      },
      {
        "midi": 62,
        "time": 28.8,
        "duration": 0.285,
        "velocity": 0.58,
        "hand": "right"
      },
      {
        "midi": 65,
        "time": 28.8,
        "duration": 0.285,
        "velocity": 0.56,
        "hand": "right"
      },
      {
        "midi": 67,
        "time": 28.8,
        "duration": 0.3,
        "velocity": 0.8,
        "hand": "right"
      },
      {
        "midi": 46,
        "time": 29.1,
        "duration": 0.075,
        "velocity": 0.51,
        "hand": "left"
      },
      {
        "midi": 54,
        "time": 29.1,
        "duration": 0.075,
        "velocity": 0.43,
        "hand": "left"
      },
      {
        "midi": 60,
        "time": 29.1,
        "duration": 0.075,
        "velocity": 0.57,
        "hand": "right"
      },
      {
        "midi": 62,
        "time": 29.1,
        "duration": 0.075,
        "velocity": 0.57,
        "hand": "right"
      },
      {
        "midi": 65,
        "time": 29.1,
        "duration": 0.075,
        "velocity": 0.57,
        "hand": "right"
      },
      {
        "midi": 69,
        "time": 29.1,
        "duration": 0.3,
        "velocity": 0.74,
        "hand": "right"
      },
      {
        "midi": 38,
        "time": 29.25,
        "duration": 0.075,
        "velocity": 0.39,
        "hand": "left"
      },
      {
        "midi": 40,
        "time": 29.25,
        "duration": 0.075,
        "velocity": 0.54,
        "hand": "left"
      },
      {
        "midi": 36,
        "time": 29.4,
        "duration": 0.075,
        "velocity": 0.69,
        "hand": "left"
      },
      {
        "midi": 38,
        "time": 29.4,
        "duration": 0.075,
        "velocity": 0.39,
        "hand": "left"
      },
      {
        "midi": 61,
        "time": 29.4,
        "duration": 0.285,
        "velocity": 0.72,
        "hand": "right"
      },
      {
        "midi": 65,
        "time": 29.4,
        "duration": 0.285,
        "velocity": 0.57,
        "hand": "right"
      },
      {
        "midi": 67,
        "time": 29.4,
        "duration": 0.3,
        "velocity": 0.79,
        "hand": "right"
      },
      {
        "midi": 38,
        "time": 29.7,
        "duration": 0.075,
        "velocity": 0.39,
        "hand": "left"
      },
      {
        "midi": 61,
        "time": 29.7,
        "duration": 0.15,
        "velocity": 0.48,
        "hand": "right"
      },
      {
        "midi": 65,
        "time": 29.7,
        "duration": 0.3,
        "velocity": 0.78,
        "hand": "right"
      },
      {
        "midi": 36,
        "time": 30,
        "duration": 0.585,
        "velocity": 0.83,
        "hand": "left"
      },
      {
        "midi": 38,
        "time": 30,
        "duration": 0.075,
        "velocity": 0.39,
        "hand": "left"
      },
      {
        "midi": 60,
        "time": 30,
        "duration": 0.075,
        "velocity": 0.49,
        "hand": "right"
      },
      {
        "midi": 62,
        "time": 30,
        "duration": 0.435,
        "velocity": 0.72,
        "hand": "right"
      },
      {
        "midi": 64,
        "time": 30,
        "duration": 0.135,
        "velocity": 0.79,
        "hand": "right"
      },
      {
        "midi": 67,
        "time": 30,
        "duration": 0.435,
        "velocity": 0.63,
        "hand": "right"
      },
      {
        "midi": 55,
        "time": 30.15,
        "duration": 1.035,
        "velocity": 0.46,
        "hand": "left"
      },
      {
        "midi": 60,
        "time": 30.15,
        "duration": 1.035,
        "velocity": 0.72,
        "hand": "right"
      },
      {
        "midi": 64,
        "time": 30.15,
        "duration": 1.035,
        "velocity": 0.65,
        "hand": "right"
      },
      {
        "midi": 38,
        "time": 30.3,
        "duration": 0.075,
        "velocity": 0.39,
        "hand": "left"
      },
      {
        "midi": 40,
        "time": 30.3,
        "duration": 0.075,
        "velocity": 0.61,
        "hand": "left"
      },
      {
        "midi": 57,
        "time": 30.45,
        "duration": 0.075,
        "velocity": 0.57,
        "hand": "left"
      },
      {
        "midi": 62,
        "time": 30.45,
        "duration": 0.075,
        "velocity": 0.54,
        "hand": "right"
      },
      {
        "midi": 67,
        "time": 30.45,
        "duration": 0.135,
        "velocity": 0.56,
        "hand": "right"
      },
      {
        "midi": 36,
        "time": 30.6,
        "duration": 0.075,
        "velocity": 0.69,
        "hand": "left"
      },
      {
        "midi": 38,
        "time": 30.6,
        "duration": 0.075,
        "velocity": 0.39,
        "hand": "left"
      },
      {
        "midi": 62,
        "time": 30.6,
        "duration": 0.075,
        "velocity": 0.57,
        "hand": "right"
      },
      {
        "midi": 67,
        "time": 30.6,
        "duration": 0.15,
        "velocity": 0.45,
        "hand": "right"
      },
      {
        "midi": 38,
        "time": 30.75,
        "duration": 0.075,
        "velocity": 0.39,
        "hand": "left"
      },
      {
        "midi": 40,
        "time": 30.75,
        "duration": 0.075,
        "velocity": 0.57,
        "hand": "left"
      },
      {
        "midi": 38,
        "time": 30.9,
        "duration": 0.075,
        "velocity": 0.39,
        "hand": "left"
      },
      {
        "midi": 46,
        "time": 30.9,
        "duration": 0.075,
        "velocity": 0.51,
        "hand": "left"
      },
      {
        "midi": 62,
        "time": 30.9,
        "duration": 0.075,
        "velocity": 0.54,
        "hand": "right"
      },
      {
        "midi": 67,
        "time": 30.9,
        "duration": 0.15,
        "velocity": 0.5,
        "hand": "right"
      },
      {
        "midi": 38,
        "time": 31.05,
        "duration": 0.075,
        "velocity": 0.39,
        "hand": "left"
      },
      {
        "midi": 36,
        "time": 31.2,
        "duration": 0.585,
        "velocity": 0.77,
        "hand": "left"
      },
      {
        "midi": 38,
        "time": 31.2,
        "duration": 0.075,
        "velocity": 0.39,
        "hand": "left"
      },
      {
        "midi": 60,
        "time": 31.2,
        "duration": 1.05,
        "velocity": 0.56,
        "hand": "right"
      },
      {
        "midi": 62,
        "time": 31.2,
        "duration": 0.285,
        "velocity": 0.68,
        "hand": "right"
      },
      {
        "midi": 64,
        "time": 31.2,
        "duration": 0.585,
        "velocity": 0.58,
        "hand": "right"
      },
      {
        "midi": 67,
        "time": 31.2,
        "duration": 0.285,
        "velocity": 0.98,
        "hand": "right"
      },
      {
        "midi": 46,
        "time": 31.5,
        "duration": 0.075,
        "velocity": 0.51,
        "hand": "left"
      },
      {
        "midi": 54,
        "time": 31.5,
        "duration": 0.075,
        "velocity": 0.43,
        "hand": "left"
      },
      {
        "midi": 62,
        "time": 31.5,
        "duration": 0.075,
        "velocity": 0.65,
        "hand": "right"
      },
      {
        "midi": 67,
        "time": 31.5,
        "duration": 0.15,
        "velocity": 0.54,
        "hand": "right"
      },
      {
        "midi": 38,
        "time": 31.65,
        "duration": 0.075,
        "velocity": 0.39,
        "hand": "left"
      },
      {
        "midi": 40,
        "time": 31.65,
        "duration": 0.075,
        "velocity": 0.57,
        "hand": "left"
      },
      {
        "midi": 36,
        "time": 31.8,
        "duration": 0.075,
        "velocity": 0.61,
        "hand": "left"
      },
      {
        "midi": 38,
        "time": 31.8,
        "duration": 0.075,
        "velocity": 0.39,
        "hand": "left"
      },
      {
        "midi": 62,
        "time": 31.8,
        "duration": 0.075,
        "velocity": 0.61,
        "hand": "right"
      },
      {
        "midi": 64,
        "time": 31.8,
        "duration": 0.45,
        "velocity": 0.75,
        "hand": "right"
      },
      {
        "midi": 67,
        "time": 31.8,
        "duration": 0.075,
        "velocity": 0.51,
        "hand": "right"
      },
      {
        "midi": 38,
        "time": 32.1,
        "duration": 0.075,
        "velocity": 0.39,
        "hand": "left"
      },
      {
        "midi": 40,
        "time": 32.1,
        "duration": 0.075,
        "velocity": 0.61,
        "hand": "left"
      },
      {
        "midi": 62,
        "time": 32.1,
        "duration": 0.075,
        "velocity": 0.56,
        "hand": "right"
      },
      {
        "midi": 67,
        "time": 32.1,
        "duration": 0.15,
        "velocity": 0.59,
        "hand": "right"
      },
      {
        "midi": 38,
        "time": 32.4,
        "duration": 0.075,
        "velocity": 0.39,
        "hand": "left"
      },
      {
        "midi": 40,
        "time": 32.4,
        "duration": 0.285,
        "velocity": 0.77,
        "hand": "left"
      },
      {
        "midi": 64,
        "time": 32.4,
        "duration": 0.585,
        "velocity": 0.64,
        "hand": "right"
      },
      {
        "midi": 67,
        "time": 32.4,
        "duration": 1.05,
        "velocity": 0.9,
        "hand": "right"
      },
      {
        "midi": 69,
        "time": 32.4,
        "duration": 1.05,
        "velocity": 0.54,
        "hand": "right"
      },
      {
        "midi": 55,
        "time": 32.55,
        "duration": 0.15,
        "velocity": 0.52,
        "hand": "left"
      },
      {
        "midi": 59,
        "time": 32.55,
        "duration": 0.075,
        "velocity": 0.51,
        "hand": "left"
      },
      {
        "midi": 62,
        "time": 32.55,
        "duration": 0.075,
        "velocity": 0.51,
        "hand": "right"
      },
      {
        "midi": 66,
        "time": 32.55,
        "duration": 0.15,
        "velocity": 0.4,
        "hand": "right"
      },
      {
        "midi": 38,
        "time": 32.7,
        "duration": 0.075,
        "velocity": 0.39,
        "hand": "left"
      },
      {
        "midi": 40,
        "time": 32.7,
        "duration": 0.075,
        "velocity": 0.61,
        "hand": "left"
      },
      {
        "midi": 55,
        "time": 32.85,
        "duration": 0.075,
        "velocity": 0.51,
        "hand": "left"
      },
      {
        "midi": 59,
        "time": 32.85,
        "duration": 0.075,
        "velocity": 0.46,
        "hand": "left"
      },
      {
        "midi": 62,
        "time": 32.85,
        "duration": 0.075,
        "velocity": 0.49,
        "hand": "right"
      },
      {
        "midi": 66,
        "time": 32.85,
        "duration": 0.135,
        "velocity": 0.47,
        "hand": "right"
      },
      {
        "midi": 36,
        "time": 33,
        "duration": 0.075,
        "velocity": 0.72,
        "hand": "left"
      },
      {
        "midi": 38,
        "time": 33,
        "duration": 0.075,
        "velocity": 0.39,
        "hand": "left"
      },
      {
        "midi": 62,
        "time": 33,
        "duration": 0.075,
        "velocity": 0.5,
        "hand": "right"
      },
      {
        "midi": 64,
        "time": 33,
        "duration": 0.585,
        "velocity": 0.83,
        "hand": "right"
      },
      {
        "midi": 66,
        "time": 33,
        "duration": 0.15,
        "velocity": 0.43,
        "hand": "right"
      },
      {
        "midi": 38,
        "time": 33.15,
        "duration": 0.075,
        "velocity": 0.39,
        "hand": "left"
      },
      {
        "midi": 40,
        "time": 33.15,
        "duration": 0.075,
        "velocity": 0.54,
        "hand": "left"
      },
      {
        "midi": 38,
        "time": 33.3,
        "duration": 0.075,
        "velocity": 0.39,
        "hand": "left"
      },
      {
        "midi": 46,
        "time": 33.3,
        "duration": 0.075,
        "velocity": 0.51,
        "hand": "left"
      },
      {
        "midi": 62,
        "time": 33.3,
        "duration": 0.15,
        "velocity": 0.49,
        "hand": "right"
      },
      {
        "midi": 66,
        "time": 33.3,
        "duration": 0.15,
        "velocity": 0.19,
        "hand": "right"
      },
      {
        "midi": 38,
        "time": 33.45,
        "duration": 0.075,
        "velocity": 0.39,
        "hand": "left"
      },
      {
        "midi": 38,
        "time": 33.6,
        "duration": 0.435,
        "velocity": 0.8,
        "hand": "left"
      },
      {
        "midi": 40,
        "time": 33.6,
        "duration": 0.075,
        "velocity": 0.57,
        "hand": "left"
      },
      {
        "midi": 62,
        "time": 33.6,
        "duration": 0.285,
        "velocity": 0.73,
        "hand": "right"
      },
      {
        "midi": 65,
        "time": 33.6,
        "duration": 0.285,
        "velocity": 0.68,
        "hand": "right"
      },
      {
        "midi": 67,
        "time": 33.6,
        "duration": 0.285,
        "velocity": 0.98,
        "hand": "right"
      },
      {
        "midi": 46,
        "time": 33.9,
        "duration": 0.075,
        "velocity": 0.51,
        "hand": "left"
      },
      {
        "midi": 54,
        "time": 33.9,
        "duration": 0.075,
        "velocity": 0.43,
        "hand": "left"
      },
      {
        "midi": 60,
        "time": 33.9,
        "duration": 0.15,
        "velocity": 0.63,
        "hand": "right"
      },
      {
        "midi": 62,
        "time": 33.9,
        "duration": 0.15,
        "velocity": 0.61,
        "hand": "right"
      },
      {
        "midi": 65,
        "time": 33.9,
        "duration": 0.15,
        "velocity": 0.58,
        "hand": "right"
      },
      {
        "midi": 67,
        "time": 33.9,
        "duration": 0.15,
        "velocity": 0.97,
        "hand": "right"
      },
      {
        "midi": 38,
        "time": 34.05,
        "duration": 0.075,
        "velocity": 0.39,
        "hand": "left"
      },
      {
        "midi": 40,
        "time": 34.05,
        "duration": 0.075,
        "velocity": 0.65,
        "hand": "left"
      },
      {
        "midi": 36,
        "time": 34.2,
        "duration": 0.075,
        "velocity": 0.72,
        "hand": "left"
      },
      {
        "midi": 38,
        "time": 34.2,
        "duration": 0.075,
        "velocity": 0.39,
        "hand": "left"
      },
      {
        "midi": 62,
        "time": 34.2,
        "duration": 0.45,
        "velocity": 0.49,
        "hand": "right"
      },
      {
        "midi": 65,
        "time": 34.2,
        "duration": 0.285,
        "velocity": 0.68,
        "hand": "right"
      },
      {
        "midi": 72,
        "time": 34.2,
        "duration": 0.15,
        "velocity": 0.98,
        "hand": "right"
      },
      {
        "midi": 38,
        "time": 34.5,
        "duration": 0.075,
        "velocity": 0.39,
        "hand": "left"
      },
      {
        "midi": 40,
        "time": 34.5,
        "duration": 0.075,
        "velocity": 0.57,
        "hand": "left"
      },
      {
        "midi": 61,
        "time": 34.5,
        "duration": 0.15,
        "velocity": 0.53,
        "hand": "right"
      },
      {
        "midi": 65,
        "time": 34.5,
        "duration": 0.15,
        "velocity": 0.52,
        "hand": "right"
      },
      {
        "midi": 74,
        "time": 34.5,
        "duration": 0.3,
        "velocity": 0.88,
        "hand": "right"
      },
      {
        "midi": 36,
        "time": 34.8,
        "duration": 0.45,
        "velocity": 0.79,
        "hand": "left"
      },
      {
        "midi": 38,
        "time": 34.8,
        "duration": 0.075,
        "velocity": 0.39,
        "hand": "left"
      },
      {
        "midi": 62,
        "time": 34.8,
        "duration": 0.435,
        "velocity": 0.73,
        "hand": "right"
      },
      {
        "midi": 67,
        "time": 34.8,
        "duration": 0.435,
        "velocity": 0.68,
        "hand": "right"
      },
      {
        "midi": 76,
        "time": 34.8,
        "duration": 0.75,
        "velocity": 0.93,
        "hand": "right"
      },
      {
        "midi": 38,
        "time": 35.1,
        "duration": 0.075,
        "velocity": 0.39,
        "hand": "left"
      },
      {
        "midi": 40,
        "time": 35.1,
        "duration": 0.075,
        "velocity": 0.57,
        "hand": "left"
      },
      {
        "midi": 57,
        "time": 35.25,
        "duration": 0.075,
        "velocity": 0.54,
        "hand": "left"
      },
      {
        "midi": 62,
        "time": 35.25,
        "duration": 0.075,
        "velocity": 0.61,
        "hand": "right"
      },
      {
        "midi": 67,
        "time": 35.25,
        "duration": 0.135,
        "velocity": 0.56,
        "hand": "right"
      },
      {
        "midi": 36,
        "time": 35.4,
        "duration": 0.075,
        "velocity": 0.72,
        "hand": "left"
      },
      {
        "midi": 38,
        "time": 35.4,
        "duration": 0.075,
        "velocity": 0.39,
        "hand": "left"
      },
      {
        "midi": 62,
        "time": 35.4,
        "duration": 0.075,
        "velocity": 0.64,
        "hand": "right"
      },
      {
        "midi": 67,
        "time": 35.4,
        "duration": 0.15,
        "velocity": 0.54,
        "hand": "right"
      },
      {
        "midi": 38,
        "time": 35.55,
        "duration": 0.075,
        "velocity": 0.39,
        "hand": "left"
      },
      {
        "midi": 40,
        "time": 35.55,
        "duration": 0.075,
        "velocity": 0.68,
        "hand": "left"
      },
      {
        "midi": 38,
        "time": 35.7,
        "duration": 0.075,
        "velocity": 0.39,
        "hand": "left"
      },
      {
        "midi": 46,
        "time": 35.7,
        "duration": 0.075,
        "velocity": 0.51,
        "hand": "left"
      },
      {
        "midi": 62,
        "time": 35.7,
        "duration": 0.075,
        "velocity": 0.64,
        "hand": "right"
      },
      {
        "midi": 67,
        "time": 35.7,
        "duration": 0.15,
        "velocity": 0.5,
        "hand": "right"
      },
      {
        "midi": 74,
        "time": 35.7,
        "duration": 0.3,
        "velocity": 0.86,
        "hand": "right"
      },
      {
        "midi": 38,
        "time": 35.85,
        "duration": 0.075,
        "velocity": 0.39,
        "hand": "left"
      },
      {
        "midi": 52,
        "time": 35.85,
        "duration": 1.05,
        "velocity": 0.49,
        "hand": "left"
      },
      {
        "midi": 36,
        "time": 36,
        "duration": 0.585,
        "velocity": 0.78,
        "hand": "left"
      },
      {
        "midi": 38,
        "time": 36,
        "duration": 0.075,
        "velocity": 0.39,
        "hand": "left"
      },
      {
        "midi": 60,
        "time": 36,
        "duration": 1.05,
        "velocity": 0.57,
        "hand": "right"
      },
      {
        "midi": 62,
        "time": 36,
        "duration": 0.285,
        "velocity": 0.58,
        "hand": "right"
      },
      {
        "midi": 67,
        "time": 36,
        "duration": 0.585,
        "velocity": 0.55,
        "hand": "right"
      },
      {
        "midi": 72,
        "time": 36,
        "duration": 0.6,
        "velocity": 0.94,
        "hand": "right"
      },
      {
        "midi": 46,
        "time": 36.3,
        "duration": 0.075,
        "velocity": 0.51,
        "hand": "left"
      },
      {
        "midi": 54,
        "time": 36.3,
        "duration": 0.075,
        "velocity": 0.43,
        "hand": "left"
      },
      {
        "midi": 62,
        "time": 36.3,
        "duration": 0.075,
        "velocity": 0.57,
        "hand": "right"
      },
      {
        "midi": 38,
        "time": 36.45,
        "duration": 0.075,
        "velocity": 0.39,
        "hand": "left"
      },
      {
        "midi": 40,
        "time": 36.45,
        "duration": 0.075,
        "velocity": 0.59,
        "hand": "left"
      },
      {
        "midi": 36,
        "time": 36.6,
        "duration": 0.075,
        "velocity": 0.69,
        "hand": "left"
      },
      {
        "midi": 38,
        "time": 36.6,
        "duration": 0.075,
        "velocity": 0.39,
        "hand": "left"
      },
      {
        "midi": 62,
        "time": 36.6,
        "duration": 0.075,
        "velocity": 0.7,
        "hand": "right"
      },
      {
        "midi": 67,
        "time": 36.6,
        "duration": 0.15,
        "velocity": 0.61,
        "hand": "right"
      },
      {
        "midi": 38,
        "time": 36.9,
        "duration": 0.075,
        "velocity": 0.39,
        "hand": "left"
      },
      {
        "midi": 40,
        "time": 36.9,
        "duration": 0.075,
        "velocity": 0.56,
        "hand": "left"
      },
      {
        "midi": 62,
        "time": 36.9,
        "duration": 0.075,
        "velocity": 0.54,
        "hand": "right"
      },
      {
        "midi": 67,
        "time": 36.9,
        "duration": 0.285,
        "velocity": 0.97,
        "hand": "right"
      },
      {
        "midi": 36,
        "time": 37.2,
        "duration": 0.585,
        "velocity": 0.79,
        "hand": "left"
      },
      {
        "midi": 38,
        "time": 37.2,
        "duration": 0.075,
        "velocity": 0.39,
        "hand": "left"
      },
      {
        "midi": 60,
        "time": 37.2,
        "duration": 1.05,
        "velocity": 0.76,
        "hand": "right"
      },
      {
        "midi": 62,
        "time": 37.2,
        "duration": 0.435,
        "velocity": 0.75,
        "hand": "right"
      },
      {
        "midi": 67,
        "time": 37.2,
        "duration": 0.285,
        "velocity": 0.72,
        "hand": "right"
      },
      {
        "midi": 69,
        "time": 37.2,
        "duration": 0.3,
        "velocity": 0.78,
        "hand": "right"
      },
      {
        "midi": 40,
        "time": 37.35,
        "duration": 0.075,
        "velocity": 0.61,
        "hand": "left"
      },
      {
        "midi": 38,
        "time": 37.5,
        "duration": 0.075,
        "velocity": 0.39,
        "hand": "left"
      },
      {
        "midi": 46,
        "time": 37.5,
        "duration": 0.075,
        "velocity": 0.51,
        "hand": "left"
      },
      {
        "midi": 67,
        "time": 37.5,
        "duration": 0.135,
        "velocity": 0.81,
        "hand": "right"
      },
      {
        "midi": 57,
        "time": 37.65,
        "duration": 0.075,
        "velocity": 0.54,
        "hand": "left"
      },
      {
        "midi": 62,
        "time": 37.65,
        "duration": 0.075,
        "velocity": 0.56,
        "hand": "right"
      },
      {
        "midi": 67,
        "time": 37.65,
        "duration": 0.135,
        "velocity": 0.52,
        "hand": "right"
      },
      {
        "midi": 36,
        "time": 37.8,
        "duration": 0.075,
        "velocity": 0.69,
        "hand": "left"
      },
      {
        "midi": 38,
        "time": 37.8,
        "duration": 0.075,
        "velocity": 0.39,
        "hand": "left"
      },
      {
        "midi": 62,
        "time": 37.8,
        "duration": 0.15,
        "velocity": 0.61,
        "hand": "right"
      },
      {
        "midi": 64,
        "time": 37.8,
        "duration": 0.3,
        "velocity": 0.81,
        "hand": "right"
      },
      {
        "midi": 67,
        "time": 37.8,
        "duration": 0.15,
        "velocity": 0.51,
        "hand": "right"
      },
      {
        "midi": 38,
        "time": 37.95,
        "duration": 0.075,
        "velocity": 0.39,
        "hand": "left"
      },
      {
        "midi": 36,
        "time": 38.1,
        "duration": 0.3,
        "velocity": 0.8,
        "hand": "left"
      },
      {
        "midi": 38,
        "time": 38.1,
        "duration": 0.075,
        "velocity": 0.39,
        "hand": "left"
      },
      {
        "midi": 62,
        "time": 38.1,
        "duration": 0.15,
        "velocity": 0.5,
        "hand": "right"
      },
      {
        "midi": 67,
        "time": 38.1,
        "duration": 0.15,
        "velocity": 0.52,
        "hand": "right"
      },
      {
        "midi": 38,
        "time": 38.25,
        "duration": 0.075,
        "velocity": 0.39,
        "hand": "left"
      },
      {
        "midi": 40,
        "time": 38.4,
        "duration": 0.435,
        "velocity": 0.97,
        "hand": "left"
      },
      {
        "midi": 42,
        "time": 38.4,
        "duration": 0.075,
        "velocity": 0.63,
        "hand": "left"
      },
      {
        "midi": 64,
        "time": 38.4,
        "duration": 0.585,
        "velocity": 0.64,
        "hand": "right"
      },
      {
        "midi": 67,
        "time": 38.4,
        "duration": 0.285,
        "velocity": 0.58,
        "hand": "right"
      },
      {
        "midi": 69,
        "time": 38.4,
        "duration": 0.6,
        "velocity": 0.78,
        "hand": "right"
      },
      {
        "midi": 46,
        "time": 38.7,
        "duration": 0.075,
        "velocity": 0.51,
        "hand": "left"
      },
      {
        "midi": 54,
        "time": 38.7,
        "duration": 0.075,
        "velocity": 0.43,
        "hand": "left"
      },
      {
        "midi": 62,
        "time": 38.7,
        "duration": 0.075,
        "velocity": 0.43,
        "hand": "right"
      },
      {
        "midi": 67,
        "time": 38.7,
        "duration": 0.3,
        "velocity": 0.8,
        "hand": "right"
      },
      {
        "midi": 38,
        "time": 38.85,
        "duration": 0.075,
        "velocity": 0.39,
        "hand": "left"
      },
      {
        "midi": 40,
        "time": 38.85,
        "duration": 0.075,
        "velocity": 0.56,
        "hand": "left"
      },
      {
        "midi": 36,
        "time": 39,
        "duration": 0.075,
        "velocity": 0.72,
        "hand": "left"
      },
      {
        "midi": 38,
        "time": 39,
        "duration": 0.075,
        "velocity": 0.39,
        "hand": "left"
      },
      {
        "midi": 62,
        "time": 39,
        "duration": 0.15,
        "velocity": 0.57,
        "hand": "right"
      },
      {
        "midi": 64,
        "time": 39,
        "duration": 0.3,
        "velocity": 0.93,
        "hand": "right"
      },
      {
        "midi": 66,
        "time": 39,
        "duration": 0.15,
        "velocity": 0.55,
        "hand": "right"
      },
      {
        "midi": 38,
        "time": 39.3,
        "duration": 0.075,
        "velocity": 0.39,
        "hand": "left"
      },
      {
        "midi": 40,
        "time": 39.3,
        "duration": 0.15,
        "velocity": 0.76,
        "hand": "left"
      },
      {
        "midi": 62,
        "time": 39.3,
        "duration": 0.15,
        "velocity": 0.51,
        "hand": "right"
      },
      {
        "midi": 67,
        "time": 39.3,
        "duration": 0.3,
        "velocity": 0.92,
        "hand": "right"
      },
      {
        "midi": 38,
        "time": 39.6,
        "duration": 0.585,
        "velocity": 0.78,
        "hand": "left"
      },
      {
        "midi": 42,
        "time": 39.6,
        "duration": 0.075,
        "velocity": 0.63,
        "hand": "left"
      },
      {
        "midi": 60,
        "time": 39.6,
        "duration": 0.285,
        "velocity": 0.74,
        "hand": "right"
      },
      {
        "midi": 62,
        "time": 39.6,
        "duration": 0.285,
        "velocity": 0.72,
        "hand": "right"
      },
      {
        "midi": 65,
        "time": 39.6,
        "duration": 0.285,
        "velocity": 0.64,
        "hand": "right"
      },
      {
        "midi": 69,
        "time": 39.6,
        "duration": 0.15,
        "velocity": 0.81,
        "hand": "right"
      },
      {
        "midi": 55,
        "time": 39.9,
        "duration": 0.15,
        "velocity": 0.58,
        "hand": "left"
      },
      {
        "midi": 60,
        "time": 39.9,
        "duration": 0.15,
        "velocity": 0.64,
        "hand": "right"
      },
      {
        "midi": 62,
        "time": 39.9,
        "duration": 0.15,
        "velocity": 0.64,
        "hand": "right"
      },
      {
        "midi": 65,
        "time": 39.9,
        "duration": 0.15,
        "velocity": 0.64,
        "hand": "right"
      },
      {
        "midi": 69,
        "time": 39.9,
        "duration": 0.3,
        "velocity": 0.78,
        "hand": "right"
      },
      {
        "midi": 36,
        "time": 40.2,
        "duration": 0.075,
        "velocity": 0.69,
        "hand": "left"
      },
      {
        "midi": 38,
        "time": 40.2,
        "duration": 0.075,
        "velocity": 0.39,
        "hand": "left"
      },
      {
        "midi": 62,
        "time": 40.2,
        "duration": 0.45,
        "velocity": 0.56,
        "hand": "right"
      },
      {
        "midi": 65,
        "time": 40.2,
        "duration": 0.285,
        "velocity": 0.5,
        "hand": "right"
      },
      {
        "midi": 71,
        "time": 40.2,
        "duration": 0.15,
        "velocity": 0.8,
        "hand": "right"
      },
      {
        "midi": 37,
        "time": 40.5,
        "duration": 0.3,
        "velocity": 0.77,
        "hand": "left"
      },
      {
        "midi": 55,
        "time": 40.5,
        "duration": 0.15,
        "velocity": 0.64,
        "hand": "left"
      },
      {
        "midi": 61,
        "time": 40.5,
        "duration": 0.15,
        "velocity": 0.55,
        "hand": "right"
      },
      {
        "midi": 65,
        "time": 40.5,
        "duration": 0.15,
        "velocity": 0.57,
        "hand": "right"
      },
      {
        "midi": 71,
        "time": 40.5,
        "duration": 0.15,
        "velocity": 0.8,
        "hand": "right"
      },
      {
        "midi": 36,
        "time": 40.8,
        "duration": 0.3,
        "velocity": 0.87,
        "hand": "left"
      },
      {
        "midi": 38,
        "time": 40.8,
        "duration": 0.075,
        "velocity": 0.39,
        "hand": "left"
      },
      {
        "midi": 62,
        "time": 40.8,
        "duration": 0.435,
        "velocity": 0.72,
        "hand": "right"
      },
      {
        "midi": 67,
        "time": 40.8,
        "duration": 0.435,
        "velocity": 0.68,
        "hand": "right"
      },
      {
        "midi": 72,
        "time": 40.8,
        "duration": 0.75,
        "velocity": 0.94,
        "hand": "right"
      },
      {
        "midi": 46,
        "time": 41.1,
        "duration": 0.075,
        "velocity": 0.51,
        "hand": "left"
      },
      {
        "midi": 54,
        "time": 41.1,
        "duration": 0.075,
        "velocity": 0.43,
        "hand": "left"
      },
      {
        "midi": 38,
        "time": 41.25,
        "duration": 0.075,
        "velocity": 0.39,
        "hand": "left"
      },
      {
        "midi": 40,
        "time": 41.25,
        "duration": 0.075,
        "velocity": 0.54,
        "hand": "left"
      },
      {
        "midi": 62,
        "time": 41.25,
        "duration": 0.075,
        "velocity": 0.65,
        "hand": "right"
      },
      {
        "midi": 67,
        "time": 41.25,
        "duration": 0.15,
        "velocity": 0.57,
        "hand": "right"
      },
      {
        "midi": 36,
        "time": 41.4,
        "duration": 0.075,
        "velocity": 0.72,
        "hand": "left"
      },
      {
        "midi": 38,
        "time": 41.4,
        "duration": 0.075,
        "velocity": 0.39,
        "hand": "left"
      },
      {
        "midi": 38,
        "time": 41.7,
        "duration": 0.075,
        "velocity": 0.39,
        "hand": "left"
      },
      {
        "midi": 40,
        "time": 41.7,
        "duration": 0.075,
        "velocity": 0.55,
        "hand": "left"
      },
      {
        "midi": 62,
        "time": 41.7,
        "duration": 0.075,
        "velocity": 0.72,
        "hand": "right"
      },
      {
        "midi": 67,
        "time": 41.7,
        "duration": 0.285,
        "velocity": 0.96,
        "hand": "right"
      },
      {
        "midi": 36,
        "time": 42,
        "duration": 0.585,
        "velocity": 0.79,
        "hand": "left"
      },
      {
        "midi": 38,
        "time": 42,
        "duration": 0.075,
        "velocity": 0.39,
        "hand": "left"
      },
      {
        "midi": 60,
        "time": 42,
        "duration": 0.885,
        "velocity": 0.72,
        "hand": "right"
      },
      {
        "midi": 62,
        "time": 42,
        "duration": 0.285,
        "velocity": 0.73,
        "hand": "right"
      },
      {
        "midi": 67,
        "time": 42,
        "duration": 0.285,
        "velocity": 0.7,
        "hand": "right"
      },
      {
        "midi": 69,
        "time": 42,
        "duration": 0.3,
        "velocity": 0.8,
        "hand": "right"
      },
      {
        "midi": 38,
        "time": 42.3,
        "duration": 0.075,
        "velocity": 0.39,
        "hand": "left"
      },
      {
        "midi": 40,
        "time": 42.3,
        "duration": 0.075,
        "velocity": 0.63,
        "hand": "left"
      },
      {
        "midi": 62,
        "time": 42.3,
        "duration": 0.075,
        "velocity": 0.73,
        "hand": "right"
      },
      {
        "midi": 67,
        "time": 42.3,
        "duration": 0.285,
        "velocity": 0.78,
        "hand": "right"
      },
      {
        "midi": 36,
        "time": 42.6,
        "duration": 0.075,
        "velocity": 0.69,
        "hand": "left"
      },
      {
        "midi": 38,
        "time": 42.6,
        "duration": 0.075,
        "velocity": 0.39,
        "hand": "left"
      },
      {
        "midi": 62,
        "time": 42.6,
        "duration": 0.15,
        "velocity": 0.74,
        "hand": "right"
      },
      {
        "midi": 64,
        "time": 42.6,
        "duration": 0.3,
        "velocity": 0.96,
        "hand": "right"
      },
      {
        "midi": 67,
        "time": 42.6,
        "duration": 0.15,
        "velocity": 0.72,
        "hand": "right"
      },
      {
        "midi": 38,
        "time": 42.75,
        "duration": 0.075,
        "velocity": 0.39,
        "hand": "left"
      },
      {
        "midi": 40,
        "time": 42.75,
        "duration": 0.075,
        "velocity": 0.57,
        "hand": "left"
      },
      {
        "midi": 36,
        "time": 42.9,
        "duration": 0.3,
        "velocity": 0.8,
        "hand": "left"
      },
      {
        "midi": 38,
        "time": 42.9,
        "duration": 0.075,
        "velocity": 0.39,
        "hand": "left"
      },
      {
        "midi": 60,
        "time": 42.9,
        "duration": 0.075,
        "velocity": 0.54,
        "hand": "right"
      },
      {
        "midi": 62,
        "time": 42.9,
        "duration": 0.15,
        "velocity": 0.5,
        "hand": "right"
      },
      {
        "midi": 67,
        "time": 42.9,
        "duration": 0.285,
        "velocity": 0.92,
        "hand": "right"
      },
      {
        "midi": 38,
        "time": 43.05,
        "duration": 0.075,
        "velocity": 0.39,
        "hand": "left"
      },
      {
        "midi": 59,
        "time": 43.05,
        "duration": 0.135,
        "velocity": 0.43,
        "hand": "left"
      },
      {
        "midi": 38,
        "time": 43.2,
        "duration": 0.075,
        "velocity": 0.39,
        "hand": "left"
      },
      {
        "midi": 40,
        "time": 43.2,
        "duration": 0.435,
        "velocity": 0.97,
        "hand": "left"
      },
      {
        "midi": 64,
        "time": 43.2,
        "duration": 0.585,
        "velocity": 0.64,
        "hand": "right"
      },
      {
        "midi": 67,
        "time": 43.2,
        "duration": 0.285,
        "velocity": 0.58,
        "hand": "right"
      },
      {
        "midi": 69,
        "time": 43.2,
        "duration": 0.9,
        "velocity": 0.78,
        "hand": "right"
      },
      {
        "midi": 46,
        "time": 43.5,
        "duration": 0.075,
        "velocity": 0.51,
        "hand": "left"
      },
      {
        "midi": 54,
        "time": 43.5,
        "duration": 0.075,
        "velocity": 0.43,
        "hand": "left"
      },
      {
        "midi": 67,
        "time": 43.5,
        "duration": 0.3,
        "velocity": 0.78,
        "hand": "right"
      },
      {
        "midi": 38,
        "time": 43.65,
        "duration": 0.075,
        "velocity": 0.39,
        "hand": "left"
      },
      {
        "midi": 40,
        "time": 43.65,
        "duration": 0.075,
        "velocity": 0.72,
        "hand": "left"
      },
      {
        "midi": 62,
        "time": 43.65,
        "duration": 0.135,
        "velocity": 0.48,
        "hand": "right"
      },
      {
        "midi": 66,
        "time": 43.65,
        "duration": 0.135,
        "velocity": 0.51,
        "hand": "right"
      },
      {
        "midi": 36,
        "time": 43.8,
        "duration": 0.075,
        "velocity": 0.54,
        "hand": "left"
      },
      {
        "midi": 38,
        "time": 43.8,
        "duration": 0.075,
        "velocity": 0.39,
        "hand": "left"
      },
      {
        "midi": 62,
        "time": 43.8,
        "duration": 0.285,
        "velocity": 0.56,
        "hand": "right"
      },
      {
        "midi": 64,
        "time": 43.8,
        "duration": 0.3,
        "velocity": 0.86,
        "hand": "right"
      },
      {
        "midi": 66,
        "time": 43.8,
        "duration": 0.15,
        "velocity": 0.54,
        "hand": "right"
      },
      {
        "midi": 38,
        "time": 44.1,
        "duration": 0.075,
        "velocity": 0.39,
        "hand": "left"
      },
      {
        "midi": 40,
        "time": 44.1,
        "duration": 0.15,
        "velocity": 0.76,
        "hand": "left"
      },
      {
        "midi": 62,
        "time": 44.1,
        "duration": 0.15,
        "velocity": 0.5,
        "hand": "right"
      },
      {
        "midi": 67,
        "time": 44.1,
        "duration": 0.3,
        "velocity": 0.87,
        "hand": "right"
      },
      {
        "midi": 38,
        "time": 44.4,
        "duration": 0.585,
        "velocity": 0.78,
        "hand": "left"
      },
      {
        "midi": 42,
        "time": 44.4,
        "duration": 0.075,
        "velocity": 0.63,
        "hand": "left"
      },
      {
        "midi": 60,
        "time": 44.4,
        "duration": 0.285,
        "velocity": 0.74,
        "hand": "right"
      },
      {
        "midi": 62,
        "time": 44.4,
        "duration": 0.285,
        "velocity": 0.69,
        "hand": "right"
      },
      {
        "midi": 65,
        "time": 44.4,
        "duration": 0.285,
        "velocity": 0.7,
        "hand": "right"
      },
      {
        "midi": 69,
        "time": 44.4,
        "duration": 0.15,
        "velocity": 0.88,
        "hand": "right"
      },
      {
        "midi": 55,
        "time": 44.7,
        "duration": 0.15,
        "velocity": 0.64,
        "hand": "left"
      },
      {
        "midi": 60,
        "time": 44.7,
        "duration": 0.15,
        "velocity": 0.72,
        "hand": "right"
      },
      {
        "midi": 62,
        "time": 44.7,
        "duration": 0.15,
        "velocity": 0.65,
        "hand": "right"
      },
      {
        "midi": 65,
        "time": 44.7,
        "duration": 0.15,
        "velocity": 0.68,
        "hand": "right"
      },
      {
        "midi": 69,
        "time": 44.7,
        "duration": 0.3,
        "velocity": 0.82,
        "hand": "right"
      },
      {
        "midi": 36,
        "time": 45,
        "duration": 0.075,
        "velocity": 0.7,
        "hand": "left"
      },
      {
        "midi": 38,
        "time": 45,
        "duration": 0.075,
        "velocity": 0.39,
        "hand": "left"
      },
      {
        "midi": 62,
        "time": 45,
        "duration": 0.3,
        "velocity": 0.51,
        "hand": "right"
      },
      {
        "midi": 65,
        "time": 45,
        "duration": 0.285,
        "velocity": 0.54,
        "hand": "right"
      },
      {
        "midi": 71,
        "time": 45,
        "duration": 0.15,
        "velocity": 0.8,
        "hand": "right"
      },
      {
        "midi": 37,
        "time": 45.3,
        "duration": 0.3,
        "velocity": 0.77,
        "hand": "left"
      },
      {
        "midi": 55,
        "time": 45.3,
        "duration": 0.15,
        "velocity": 0.45,
        "hand": "left"
      },
      {
        "midi": 61,
        "time": 45.3,
        "duration": 0.15,
        "velocity": 0.45,
        "hand": "right"
      },
      {
        "midi": 65,
        "time": 45.3,
        "duration": 0.15,
        "velocity": 0.38,
        "hand": "right"
      },
      {
        "midi": 71,
        "time": 45.3,
        "duration": 0.15,
        "velocity": 0.82,
        "hand": "right"
      },
      {
        "midi": 36,
        "time": 45.6,
        "duration": 0.3,
        "velocity": 0.87,
        "hand": "left"
      },
      {
        "midi": 38,
        "time": 45.6,
        "duration": 0.075,
        "velocity": 0.39,
        "hand": "left"
      },
      {
        "midi": 62,
        "time": 45.6,
        "duration": 0.15,
        "velocity": 0.75,
        "hand": "right"
      },
      {
        "midi": 64,
        "time": 45.6,
        "duration": 0.15,
        "velocity": 0.52,
        "hand": "right"
      },
      {
        "midi": 67,
        "time": 45.6,
        "duration": 0.15,
        "velocity": 0.52,
        "hand": "right"
      },
      {
        "midi": 72,
        "time": 45.6,
        "duration": 0.3,
        "velocity": 0.79,
        "hand": "right"
      },
      {
        "midi": 38,
        "time": 45.9,
        "duration": 0.075,
        "velocity": 0.17,
        "hand": "left"
      },
      {
        "midi": 38,
        "time": 46.05,
        "duration": 0.075,
        "velocity": 0.17,
        "hand": "left"
      },
      {
        "midi": 47,
        "time": 46.05,
        "duration": 0.075,
        "velocity": 0.56,
        "hand": "left"
      },
      {
        "midi": 38,
        "time": 46.2,
        "duration": 0.075,
        "velocity": 0.5,
        "hand": "left"
      },
      {
        "midi": 40,
        "time": 46.2,
        "duration": 0.075,
        "velocity": 0.59,
        "hand": "left"
      },
      {
        "midi": 36,
        "time": 46.35,
        "duration": 0.075,
        "velocity": 0.59,
        "hand": "left"
      },
      {
        "midi": 38,
        "time": 46.35,
        "duration": 0.075,
        "velocity": 0.2,
        "hand": "left"
      },
      {
        "midi": 38,
        "time": 46.5,
        "duration": 0.075,
        "velocity": 0.5,
        "hand": "left"
      },
      {
        "midi": 40,
        "time": 46.65,
        "duration": 0.075,
        "velocity": 0.81,
        "hand": "left"
      },
      {
        "midi": 36,
        "time": 46.8,
        "duration": 1.2,
        "velocity": 0.87,
        "hand": "left"
      },
      {
        "midi": 38,
        "time": 46.8,
        "duration": 0.075,
        "velocity": 0.51,
        "hand": "left"
      },
      {
        "midi": 64,
        "time": 46.8,
        "duration": 1.2,
        "velocity": 0.76,
        "hand": "right"
      },
      {
        "midi": 67,
        "time": 46.8,
        "duration": 1.2,
        "velocity": 0.76,
        "hand": "right"
      },
      {
        "midi": 71,
        "time": 46.8,
        "duration": 0.9,
        "velocity": 0.72,
        "hand": "right"
      },
      {
        "midi": 74,
        "time": 46.8,
        "duration": 0.9,
        "velocity": 0.72,
        "hand": "right"
      }
    ]
  },
  "notes1Hand": [
    {
      "midi": 59,
      "time": 0,
      "duration": 0.36,
      "velocity": 0.75,
      "hand": "right"
    },
    {
      "midi": 62,
      "time": 0.6,
      "duration": 0.36,
      "velocity": 0.69,
      "hand": "right"
    },
    {
      "midi": 69,
      "time": 1.2,
      "duration": 0.36,
      "velocity": 0.77,
      "hand": "right"
    },
    {
      "midi": 67,
      "time": 1.8,
      "duration": 0.36,
      "velocity": 0.54,
      "hand": "right"
    },
    {
      "midi": 69,
      "time": 2.4,
      "duration": 0.9,
      "velocity": 0.8,
      "hand": "right"
    },
    {
      "midi": 66,
      "time": 3,
      "duration": 0.36,
      "velocity": 0.5,
      "hand": "right"
    },
    {
      "midi": 69,
      "time": 3.6,
      "duration": 0.36,
      "velocity": 0.83,
      "hand": "right"
    },
    {
      "midi": 71,
      "time": 4.2,
      "duration": 0.36,
      "velocity": 0.81,
      "hand": "right"
    },
    {
      "midi": 72,
      "time": 4.8,
      "duration": 0.45,
      "velocity": 0.9,
      "hand": "right"
    },
    {
      "midi": 62,
      "time": 5.4,
      "duration": 0.36,
      "velocity": 0.69,
      "hand": "right"
    },
    {
      "midi": 72,
      "time": 6,
      "duration": 0.45,
      "velocity": 0.74,
      "hand": "right"
    },
    {
      "midi": 71,
      "time": 6.6,
      "duration": 0.36,
      "velocity": 0.62,
      "hand": "right"
    },
    {
      "midi": 69,
      "time": 7.2,
      "duration": 0.75,
      "velocity": 0.59,
      "hand": "right"
    },
    {
      "midi": 66,
      "time": 7.8,
      "duration": 0.36,
      "velocity": 0.5,
      "hand": "right"
    },
    {
      "midi": 67,
      "time": 8.4,
      "duration": 0.36,
      "velocity": 0.64,
      "hand": "right"
    },
    {
      "midi": 67,
      "time": 9,
      "duration": 0.36,
      "velocity": 0.63,
      "hand": "right"
    },
    {
      "midi": 67,
      "time": 9.6,
      "duration": 0.435,
      "velocity": 0.63,
      "hand": "right"
    },
    {
      "midi": 67,
      "time": 10.2,
      "duration": 0.36,
      "velocity": 0.45,
      "hand": "right"
    },
    {
      "midi": 67,
      "time": 10.8,
      "duration": 0.36,
      "velocity": 0.82,
      "hand": "right"
    },
    {
      "midi": 67,
      "time": 11.4,
      "duration": 0.36,
      "velocity": 0.51,
      "hand": "right"
    },
    {
      "midi": 69,
      "time": 12,
      "duration": 1.05,
      "velocity": 0.54,
      "hand": "right"
    },
    {
      "midi": 66,
      "time": 12.6,
      "duration": 0.36,
      "velocity": 0.43,
      "hand": "right"
    },
    {
      "midi": 67,
      "time": 13.2,
      "duration": 0.36,
      "velocity": 0.83,
      "hand": "right"
    },
    {
      "midi": 72,
      "time": 13.8,
      "duration": 0.36,
      "velocity": 0.82,
      "hand": "right"
    },
    {
      "midi": 76,
      "time": 14.4,
      "duration": 0.75,
      "velocity": 0.77,
      "hand": "right"
    },
    {
      "midi": 67,
      "time": 15,
      "duration": 0.36,
      "velocity": 0.54,
      "hand": "right"
    },
    {
      "midi": 72,
      "time": 15.6,
      "duration": 0.6,
      "velocity": 0.79,
      "hand": "right"
    },
    {
      "midi": 67,
      "time": 16.2,
      "duration": 0.36,
      "velocity": 0.61,
      "hand": "right"
    },
    {
      "midi": 69,
      "time": 16.8,
      "duration": 0.36,
      "velocity": 0.62,
      "hand": "right"
    },
    {
      "midi": 67,
      "time": 17.4,
      "duration": 0.36,
      "velocity": 0.51,
      "hand": "right"
    },
    {
      "midi": 69,
      "time": 18,
      "duration": 0.6,
      "velocity": 0.62,
      "hand": "right"
    },
    {
      "midi": 66,
      "time": 18.6,
      "duration": 0.36,
      "velocity": 0.55,
      "hand": "right"
    },
    {
      "midi": 69,
      "time": 19.2,
      "duration": 0.36,
      "velocity": 0.65,
      "hand": "right"
    },
    {
      "midi": 71,
      "time": 19.8,
      "duration": 0.36,
      "velocity": 0.65,
      "hand": "right"
    },
    {
      "midi": 72,
      "time": 20.4,
      "duration": 0.75,
      "velocity": 0.79,
      "hand": "right"
    },
    {
      "midi": 62,
      "time": 21,
      "duration": 0.36,
      "velocity": 0.39,
      "hand": "right"
    },
    {
      "midi": 69,
      "time": 21.6,
      "duration": 0.36,
      "velocity": 0.64,
      "hand": "right"
    },
    {
      "midi": 67,
      "time": 22.2,
      "duration": 0.36,
      "velocity": 0.72,
      "hand": "right"
    },
    {
      "midi": 69,
      "time": 22.8,
      "duration": 0.9,
      "velocity": 0.64,
      "hand": "right"
    },
    {
      "midi": 66,
      "time": 23.4,
      "duration": 0.36,
      "velocity": 0.54,
      "hand": "right"
    },
    {
      "midi": 69,
      "time": 24,
      "duration": 0.36,
      "velocity": 0.72,
      "hand": "right"
    },
    {
      "midi": 71,
      "time": 24.6,
      "duration": 0.36,
      "velocity": 0.65,
      "hand": "right"
    },
    {
      "midi": 72,
      "time": 25.2,
      "duration": 0.45,
      "velocity": 0.74,
      "hand": "right"
    },
    {
      "midi": 62,
      "time": 25.8,
      "duration": 0.36,
      "velocity": 0.39,
      "hand": "right"
    },
    {
      "midi": 72,
      "time": 26.4,
      "duration": 0.45,
      "velocity": 0.9,
      "hand": "right"
    },
    {
      "midi": 71,
      "time": 27,
      "duration": 0.36,
      "velocity": 0.78,
      "hand": "right"
    },
    {
      "midi": 69,
      "time": 27.6,
      "duration": 0.75,
      "velocity": 0.59,
      "hand": "right"
    },
    {
      "midi": 66,
      "time": 28.2,
      "duration": 0.36,
      "velocity": 0.5,
      "hand": "right"
    },
    {
      "midi": 67,
      "time": 28.8,
      "duration": 0.36,
      "velocity": 0.8,
      "hand": "right"
    },
    {
      "midi": 67,
      "time": 29.4,
      "duration": 0.36,
      "velocity": 0.79,
      "hand": "right"
    },
    {
      "midi": 67,
      "time": 30,
      "duration": 0.435,
      "velocity": 0.63,
      "hand": "right"
    },
    {
      "midi": 67,
      "time": 30.6,
      "duration": 0.36,
      "velocity": 0.45,
      "hand": "right"
    },
    {
      "midi": 67,
      "time": 31.2,
      "duration": 0.36,
      "velocity": 0.98,
      "hand": "right"
    },
    {
      "midi": 67,
      "time": 31.8,
      "duration": 0.36,
      "velocity": 0.51,
      "hand": "right"
    },
    {
      "midi": 69,
      "time": 32.4,
      "duration": 1.05,
      "velocity": 0.54,
      "hand": "right"
    },
    {
      "midi": 66,
      "time": 33,
      "duration": 0.36,
      "velocity": 0.43,
      "hand": "right"
    },
    {
      "midi": 67,
      "time": 33.6,
      "duration": 0.36,
      "velocity": 0.98,
      "hand": "right"
    },
    {
      "midi": 72,
      "time": 34.2,
      "duration": 0.36,
      "velocity": 0.98,
      "hand": "right"
    },
    {
      "midi": 76,
      "time": 34.8,
      "duration": 0.75,
      "velocity": 0.93,
      "hand": "right"
    },
    {
      "midi": 67,
      "time": 35.4,
      "duration": 0.36,
      "velocity": 0.54,
      "hand": "right"
    },
    {
      "midi": 72,
      "time": 36,
      "duration": 0.6,
      "velocity": 0.94,
      "hand": "right"
    },
    {
      "midi": 67,
      "time": 36.6,
      "duration": 0.36,
      "velocity": 0.61,
      "hand": "right"
    },
    {
      "midi": 69,
      "time": 37.2,
      "duration": 0.36,
      "velocity": 0.78,
      "hand": "right"
    },
    {
      "midi": 67,
      "time": 37.8,
      "duration": 0.36,
      "velocity": 0.51,
      "hand": "right"
    },
    {
      "midi": 69,
      "time": 38.4,
      "duration": 0.6,
      "velocity": 0.78,
      "hand": "right"
    },
    {
      "midi": 66,
      "time": 39,
      "duration": 0.36,
      "velocity": 0.55,
      "hand": "right"
    },
    {
      "midi": 69,
      "time": 39.6,
      "duration": 0.36,
      "velocity": 0.81,
      "hand": "right"
    },
    {
      "midi": 71,
      "time": 40.2,
      "duration": 0.36,
      "velocity": 0.8,
      "hand": "right"
    },
    {
      "midi": 72,
      "time": 40.8,
      "duration": 0.75,
      "velocity": 0.94,
      "hand": "right"
    },
    {
      "midi": 62,
      "time": 41.4,
      "duration": 0.36,
      "velocity": 0.39,
      "hand": "right"
    },
    {
      "midi": 69,
      "time": 42,
      "duration": 0.36,
      "velocity": 0.8,
      "hand": "right"
    },
    {
      "midi": 67,
      "time": 42.6,
      "duration": 0.36,
      "velocity": 0.72,
      "hand": "right"
    },
    {
      "midi": 69,
      "time": 43.2,
      "duration": 0.9,
      "velocity": 0.78,
      "hand": "right"
    },
    {
      "midi": 66,
      "time": 43.8,
      "duration": 0.36,
      "velocity": 0.54,
      "hand": "right"
    },
    {
      "midi": 69,
      "time": 44.4,
      "duration": 0.36,
      "velocity": 0.88,
      "hand": "right"
    },
    {
      "midi": 71,
      "time": 45,
      "duration": 0.36,
      "velocity": 0.8,
      "hand": "right"
    },
    {
      "midi": 72,
      "time": 45.6,
      "duration": 0.36,
      "velocity": 0.79,
      "hand": "right"
    },
    {
      "midi": 64,
      "time": 46.2,
      "duration": 0.36,
      "velocity": 0.59,
      "hand": "right"
    },
    {
      "midi": 74,
      "time": 46.8,
      "duration": 0.9,
      "velocity": 0.72,
      "hand": "right"
    }
  ],
  "notes2Hands": [
    {
      "midi": 38,
      "time": 0,
      "duration": 0.075,
      "velocity": 0.72,
      "hand": "left"
    },
    {
      "midi": 47,
      "time": 0,
      "duration": 0.075,
      "velocity": 0.75,
      "hand": "left"
    },
    {
      "midi": 38,
      "time": 0.15,
      "duration": 0.075,
      "velocity": 0.64,
      "hand": "left"
    },
    {
      "midi": 40,
      "time": 0.45,
      "duration": 0.075,
      "velocity": 0.59,
      "hand": "left"
    },
    {
      "midi": 38,
      "time": 0.6,
      "duration": 0.075,
      "velocity": 0.69,
      "hand": "left"
    },
    {
      "midi": 45,
      "time": 0.9,
      "duration": 0.075,
      "velocity": 0.57,
      "hand": "left"
    },
    {
      "midi": 67,
      "time": 0.9,
      "duration": 0.135,
      "velocity": 0.83,
      "hand": "right"
    },
    {
      "midi": 67,
      "time": 1.05,
      "duration": 0.135,
      "velocity": 0.58,
      "hand": "right"
    },
    {
      "midi": 36,
      "time": 1.2,
      "duration": 0.585,
      "velocity": 0.98,
      "hand": "left"
    },
    {
      "midi": 42,
      "time": 1.2,
      "duration": 0.075,
      "velocity": 0.63,
      "hand": "left"
    },
    {
      "midi": 62,
      "time": 1.2,
      "duration": 0.435,
      "velocity": 0.74,
      "hand": "right"
    },
    {
      "midi": 67,
      "time": 1.2,
      "duration": 0.285,
      "velocity": 0.7,
      "hand": "right"
    },
    {
      "midi": 69,
      "time": 1.2,
      "duration": 0.3,
      "velocity": 0.77,
      "hand": "right"
    },
    {
      "midi": 46,
      "time": 1.5,
      "duration": 0.075,
      "velocity": 0.51,
      "hand": "left"
    },
    {
      "midi": 54,
      "time": 1.5,
      "duration": 0.075,
      "velocity": 0.43,
      "hand": "left"
    },
    {
      "midi": 67,
      "time": 1.5,
      "duration": 0.135,
      "velocity": 0.8,
      "hand": "right"
    },
    {
      "midi": 38,
      "time": 1.65,
      "duration": 0.075,
      "velocity": 0.39,
      "hand": "left"
    },
    {
      "midi": 40,
      "time": 1.65,
      "duration": 0.075,
      "velocity": 0.56,
      "hand": "left"
    },
    {
      "midi": 62,
      "time": 1.65,
      "duration": 0.075,
      "velocity": 0.56,
      "hand": "right"
    },
    {
      "midi": 67,
      "time": 1.65,
      "duration": 0.075,
      "velocity": 0.54,
      "hand": "right"
    },
    {
      "midi": 36,
      "time": 1.8,
      "duration": 0.075,
      "velocity": 0.72,
      "hand": "left"
    },
    {
      "midi": 38,
      "time": 1.8,
      "duration": 0.075,
      "velocity": 0.39,
      "hand": "left"
    },
    {
      "midi": 62,
      "time": 1.8,
      "duration": 0.075,
      "velocity": 0.57,
      "hand": "right"
    },
    {
      "midi": 64,
      "time": 1.8,
      "duration": 0.3,
      "velocity": 0.81,
      "hand": "right"
    },
    {
      "midi": 67,
      "time": 1.8,
      "duration": 0.075,
      "velocity": 0.54,
      "hand": "right"
    },
    {
      "midi": 38,
      "time": 2.1,
      "duration": 0.075,
      "velocity": 0.39,
      "hand": "left"
    },
    {
      "midi": 40,
      "time": 2.1,
      "duration": 0.075,
      "velocity": 0.56,
      "hand": "left"
    },
    {
      "midi": 62,
      "time": 2.1,
      "duration": 0.075,
      "velocity": 0.56,
      "hand": "right"
    },
    {
      "midi": 67,
      "time": 2.1,
      "duration": 0.285,
      "velocity": 0.96,
      "hand": "right"
    },
    {
      "midi": 38,
      "time": 2.4,
      "duration": 0.285,
      "velocity": 0.87,
      "hand": "left"
    },
    {
      "midi": 40,
      "time": 2.4,
      "duration": 0.285,
      "velocity": 0.57,
      "hand": "left"
    },
    {
      "midi": 64,
      "time": 2.4,
      "duration": 0.585,
      "velocity": 0.64,
      "hand": "right"
    },
    {
      "midi": 67,
      "time": 2.4,
      "duration": 0.285,
      "velocity": 0.54,
      "hand": "right"
    },
    {
      "midi": 69,
      "time": 2.4,
      "duration": 0.9,
      "velocity": 0.8,
      "hand": "right"
    },
    {
      "midi": 38,
      "time": 2.7,
      "duration": 0.075,
      "velocity": 0.39,
      "hand": "left"
    },
    {
      "midi": 40,
      "time": 2.7,
      "duration": 0.075,
      "velocity": 0.57,
      "hand": "left"
    },
    {
      "midi": 62,
      "time": 2.7,
      "duration": 0.075,
      "velocity": 0.57,
      "hand": "right"
    },
    {
      "midi": 67,
      "time": 2.7,
      "duration": 0.3,
      "velocity": 0.81,
      "hand": "right"
    },
    {
      "midi": 36,
      "time": 3,
      "duration": 0.075,
      "velocity": 0.69,
      "hand": "left"
    },
    {
      "midi": 38,
      "time": 3,
      "duration": 0.075,
      "velocity": 0.39,
      "hand": "left"
    },
    {
      "midi": 62,
      "time": 3,
      "duration": 0.075,
      "velocity": 0.35,
      "hand": "right"
    },
    {
      "midi": 64,
      "time": 3,
      "duration": 0.3,
      "velocity": 0.83,
      "hand": "right"
    },
    {
      "midi": 66,
      "time": 3,
      "duration": 0.15,
      "velocity": 0.5,
      "hand": "right"
    },
    {
      "midi": 38,
      "time": 3.15,
      "duration": 0.075,
      "velocity": 0.39,
      "hand": "left"
    },
    {
      "midi": 40,
      "time": 3.15,
      "duration": 0.075,
      "velocity": 0.64,
      "hand": "left"
    },
    {
      "midi": 38,
      "time": 3.3,
      "duration": 0.075,
      "velocity": 0.39,
      "hand": "left"
    },
    {
      "midi": 46,
      "time": 3.3,
      "duration": 0.075,
      "velocity": 0.51,
      "hand": "left"
    },
    {
      "midi": 62,
      "time": 3.3,
      "duration": 0.075,
      "velocity": 0.49,
      "hand": "right"
    },
    {
      "midi": 67,
      "time": 3.3,
      "duration": 0.285,
      "velocity": 0.86,
      "hand": "right"
    },
    {
      "midi": 38,
      "time": 3.45,
      "duration": 0.075,
      "velocity": 0.39,
      "hand": "left"
    },
    {
      "midi": 38,
      "time": 3.6,
      "duration": 0.075,
      "velocity": 0.39,
      "hand": "left"
    },
    {
      "midi": 40,
      "time": 3.6,
      "duration": 0.075,
      "velocity": 0.56,
      "hand": "left"
    },
    {
      "midi": 65,
      "time": 3.6,
      "duration": 0.285,
      "velocity": 0.72,
      "hand": "right"
    },
    {
      "midi": 67,
      "time": 3.6,
      "duration": 0.3,
      "velocity": 0.64,
      "hand": "right"
    },
    {
      "midi": 69,
      "time": 3.6,
      "duration": 0.15,
      "velocity": 0.83,
      "hand": "right"
    },
    {
      "midi": 36,
      "time": 3.9,
      "duration": 0.285,
      "velocity": 0.96,
      "hand": "left"
    },
    {
      "midi": 46,
      "time": 3.9,
      "duration": 0.075,
      "velocity": 0.51,
      "hand": "left"
    },
    {
      "midi": 60,
      "time": 3.9,
      "duration": 0.075,
      "velocity": 0.65,
      "hand": "right"
    },
    {
      "midi": 62,
      "time": 3.9,
      "duration": 0.075,
      "velocity": 0.68,
      "hand": "right"
    },
    {
      "midi": 65,
      "time": 3.9,
      "duration": 0.075,
      "velocity": 0.64,
      "hand": "right"
    },
    {
      "midi": 69,
      "time": 3.9,
      "duration": 0.15,
      "velocity": 0.88,
      "hand": "right"
    },
    {
      "midi": 38,
      "time": 4.05,
      "duration": 0.075,
      "velocity": 0.39,
      "hand": "left"
    },
    {
      "midi": 40,
      "time": 4.05,
      "duration": 0.075,
      "velocity": 0.54,
      "hand": "left"
    },
    {
      "midi": 36,
      "time": 4.2,
      "duration": 0.075,
      "velocity": 0.72,
      "hand": "left"
    },
    {
      "midi": 38,
      "time": 4.2,
      "duration": 0.075,
      "velocity": 0.39,
      "hand": "left"
    },
    {
      "midi": 62,
      "time": 4.2,
      "duration": 0.285,
      "velocity": 0.78,
      "hand": "right"
    },
    {
      "midi": 65,
      "time": 4.2,
      "duration": 0.285,
      "velocity": 0.76,
      "hand": "right"
    },
    {
      "midi": 69,
      "time": 4.2,
      "duration": 0.3,
      "velocity": 0.74,
      "hand": "right"
    },
    {
      "midi": 71,
      "time": 4.2,
      "duration": 0.15,
      "velocity": 0.81,
      "hand": "right"
    },
    {
      "midi": 38,
      "time": 4.5,
      "duration": 0.285,
      "velocity": 0.95,
      "hand": "left"
    },
    {
      "midi": 40,
      "time": 4.5,
      "duration": 0.075,
      "velocity": 0.55,
      "hand": "left"
    },
    {
      "midi": 62,
      "time": 4.5,
      "duration": 0.15,
      "velocity": 0.56,
      "hand": "right"
    },
    {
      "midi": 65,
      "time": 4.5,
      "duration": 0.15,
      "velocity": 0.64,
      "hand": "right"
    },
    {
      "midi": 71,
      "time": 4.5,
      "duration": 0.15,
      "velocity": 0.78,
      "hand": "right"
    },
    {
      "midi": 36,
      "time": 4.8,
      "duration": 0.15,
      "velocity": 0.95,
      "hand": "left"
    },
    {
      "midi": 38,
      "time": 4.8,
      "duration": 0.075,
      "velocity": 0.72,
      "hand": "left"
    },
    {
      "midi": 62,
      "time": 4.8,
      "duration": 0.15,
      "velocity": 0.63,
      "hand": "right"
    },
    {
      "midi": 64,
      "time": 4.8,
      "duration": 0.3,
      "velocity": 0.75,
      "hand": "right"
    },
    {
      "midi": 67,
      "time": 4.8,
      "duration": 0.285,
      "velocity": 0.59,
      "hand": "right"
    },
    {
      "midi": 72,
      "time": 4.8,
      "duration": 0.45,
      "velocity": 0.9,
      "hand": "right"
    },
    {
      "midi": 38,
      "time": 4.95,
      "duration": 0.075,
      "velocity": 0.64,
      "hand": "left"
    },
    {
      "midi": 43,
      "time": 5.1,
      "duration": 0.6,
      "velocity": 0.95,
      "hand": "left"
    },
    {
      "midi": 55,
      "time": 5.1,
      "duration": 0.75,
      "velocity": 0.72,
      "hand": "left"
    },
    {
      "midi": 63,
      "time": 5.1,
      "duration": 0.75,
      "velocity": 0.73,
      "hand": "right"
    },
    {
      "midi": 67,
      "time": 5.1,
      "duration": 0.585,
      "velocity": 0.74,
      "hand": "right"
    },
    {
      "midi": 40,
      "time": 5.25,
      "duration": 0.075,
      "velocity": 0.59,
      "hand": "left"
    },
    {
      "midi": 38,
      "time": 5.4,
      "duration": 0.075,
      "velocity": 0.69,
      "hand": "left"
    },
    {
      "midi": 45,
      "time": 5.7,
      "duration": 0.075,
      "velocity": 0.57,
      "hand": "left"
    },
    {
      "midi": 67,
      "time": 5.7,
      "duration": 0.285,
      "velocity": 0.79,
      "hand": "right"
    },
    {
      "midi": 36,
      "time": 6,
      "duration": 0.585,
      "velocity": 0.82,
      "hand": "left"
    },
    {
      "midi": 38,
      "time": 6,
      "duration": 0.075,
      "velocity": 0.39,
      "hand": "left"
    },
    {
      "midi": 60,
      "time": 6,
      "duration": 0.15,
      "velocity": 0.61,
      "hand": "right"
    },
    {
      "midi": 62,
      "time": 6,
      "duration": 0.435,
      "velocity": 0.72,
      "hand": "right"
    },
    {
      "midi": 67,
      "time": 6,
      "duration": 0.435,
      "velocity": 0.57,
      "hand": "right"
    },
    {
      "midi": 72,
      "time": 6,
      "duration": 0.45,
      "velocity": 0.74,
      "hand": "right"
    },
    {
      "midi": 46,
      "time": 6.3,
      "duration": 0.075,
      "velocity": 0.51,
      "hand": "left"
    },
    {
      "midi": 54,
      "time": 6.3,
      "duration": 0.075,
      "velocity": 0.43,
      "hand": "left"
    },
    {
      "midi": 38,
      "time": 6.45,
      "duration": 0.075,
      "velocity": 0.39,
      "hand": "left"
    },
    {
      "midi": 40,
      "time": 6.45,
      "duration": 0.075,
      "velocity": 0.72,
      "hand": "left"
    },
    {
      "midi": 62,
      "time": 6.45,
      "duration": 0.075,
      "velocity": 0.52,
      "hand": "right"
    },
    {
      "midi": 67,
      "time": 6.45,
      "duration": 0.135,
      "velocity": 0.53,
      "hand": "right"
    },
    {
      "midi": 36,
      "time": 6.6,
      "duration": 0.075,
      "velocity": 0.54,
      "hand": "left"
    },
    {
      "midi": 38,
      "time": 6.6,
      "duration": 0.075,
      "velocity": 0.39,
      "hand": "left"
    },
    {
      "midi": 60,
      "time": 6.6,
      "duration": 0.15,
      "velocity": 0.52,
      "hand": "right"
    },
    {
      "midi": 62,
      "time": 6.6,
      "duration": 0.285,
      "velocity": 0.54,
      "hand": "right"
    },
    {
      "midi": 67,
      "time": 6.6,
      "duration": 0.285,
      "velocity": 0.35,
      "hand": "right"
    },
    {
      "midi": 71,
      "time": 6.6,
      "duration": 0.3,
      "velocity": 0.62,
      "hand": "right"
    },
    {
      "midi": 36,
      "time": 6.9,
      "duration": 0.3,
      "velocity": 0.76,
      "hand": "left"
    },
    {
      "midi": 38,
      "time": 6.9,
      "duration": 0.075,
      "velocity": 0.39,
      "hand": "left"
    },
    {
      "midi": 62,
      "time": 6.9,
      "duration": 0.075,
      "velocity": 0.63,
      "hand": "right"
    },
    {
      "midi": 67,
      "time": 6.9,
      "duration": 0.15,
      "velocity": 0.57,
      "hand": "right"
    },
    {
      "midi": 69,
      "time": 6.9,
      "duration": 0.285,
      "velocity": 0.62,
      "hand": "right"
    },
    {
      "midi": 38,
      "time": 7.2,
      "duration": 0.075,
      "velocity": 0.39,
      "hand": "left"
    },
    {
      "midi": 40,
      "time": 7.2,
      "duration": 0.285,
      "velocity": 0.7,
      "hand": "left"
    },
    {
      "midi": 64,
      "time": 7.2,
      "duration": 0.75,
      "velocity": 0.59,
      "hand": "right"
    },
    {
      "midi": 67,
      "time": 7.2,
      "duration": 0.75,
      "velocity": 0.56,
      "hand": "right"
    },
    {
      "midi": 69,
      "time": 7.2,
      "duration": 0.75,
      "velocity": 0.59,
      "hand": "right"
    },
    {
      "midi": 38,
      "time": 7.5,
      "duration": 0.075,
      "velocity": 0.39,
      "hand": "left"
    },
    {
      "midi": 40,
      "time": 7.5,
      "duration": 0.075,
      "velocity": 0.54,
      "hand": "left"
    },
    {
      "midi": 62,
      "time": 7.5,
      "duration": 0.075,
      "velocity": 0.52,
      "hand": "right"
    },
    {
      "midi": 66,
      "time": 7.5,
      "duration": 0.15,
      "velocity": 0.53,
      "hand": "right"
    },
    {
      "midi": 36,
      "time": 7.8,
      "duration": 0.075,
      "velocity": 0.7,
      "hand": "left"
    },
    {
      "midi": 38,
      "time": 7.8,
      "duration": 0.075,
      "velocity": 0.39,
      "hand": "left"
    },
    {
      "midi": 62,
      "time": 7.8,
      "duration": 0.075,
      "velocity": 0.49,
      "hand": "right"
    },
    {
      "midi": 66,
      "time": 7.8,
      "duration": 0.15,
      "velocity": 0.5,
      "hand": "right"
    },
    {
      "midi": 38,
      "time": 7.95,
      "duration": 0.075,
      "velocity": 0.39,
      "hand": "left"
    },
    {
      "midi": 40,
      "time": 7.95,
      "duration": 0.075,
      "velocity": 0.54,
      "hand": "left"
    },
    {
      "midi": 38,
      "time": 8.1,
      "duration": 0.075,
      "velocity": 0.39,
      "hand": "left"
    },
    {
      "midi": 40,
      "time": 8.1,
      "duration": 0.285,
      "velocity": 0.61,
      "hand": "left"
    },
    {
      "midi": 62,
      "time": 8.1,
      "duration": 0.075,
      "velocity": 0.49,
      "hand": "right"
    },
    {
      "midi": 66,
      "time": 8.1,
      "duration": 0.15,
      "velocity": 0.52,
      "hand": "right"
    },
    {
      "midi": 69,
      "time": 8.1,
      "duration": 0.3,
      "velocity": 0.64,
      "hand": "right"
    },
    {
      "midi": 38,
      "time": 8.25,
      "duration": 0.075,
      "velocity": 0.39,
      "hand": "left"
    },
    {
      "midi": 38,
      "time": 8.4,
      "duration": 0.435,
      "velocity": 0.78,
      "hand": "left"
    },
    {
      "midi": 40,
      "time": 8.4,
      "duration": 0.075,
      "velocity": 0.53,
      "hand": "left"
    },
    {
      "midi": 60,
      "time": 8.4,
      "duration": 0.285,
      "velocity": 0.61,
      "hand": "right"
    },
    {
      "midi": 62,
      "time": 8.4,
      "duration": 0.285,
      "velocity": 0.58,
      "hand": "right"
    },
    {
      "midi": 65,
      "time": 8.4,
      "duration": 0.285,
      "velocity": 0.56,
      "hand": "right"
    },
    {
      "midi": 67,
      "time": 8.4,
      "duration": 0.3,
      "velocity": 0.64,
      "hand": "right"
    },
    {
      "midi": 46,
      "time": 8.7,
      "duration": 0.075,
      "velocity": 0.51,
      "hand": "left"
    },
    {
      "midi": 54,
      "time": 8.7,
      "duration": 0.075,
      "velocity": 0.43,
      "hand": "left"
    },
    {
      "midi": 60,
      "time": 8.7,
      "duration": 0.075,
      "velocity": 0.57,
      "hand": "right"
    },
    {
      "midi": 62,
      "time": 8.7,
      "duration": 0.075,
      "velocity": 0.57,
      "hand": "right"
    },
    {
      "midi": 65,
      "time": 8.7,
      "duration": 0.075,
      "velocity": 0.57,
      "hand": "right"
    },
    {
      "midi": 69,
      "time": 8.7,
      "duration": 0.3,
      "velocity": 0.58,
      "hand": "right"
    },
    {
      "midi": 38,
      "time": 8.85,
      "duration": 0.075,
      "velocity": 0.39,
      "hand": "left"
    },
    {
      "midi": 40,
      "time": 8.85,
      "duration": 0.075,
      "velocity": 0.54,
      "hand": "left"
    },
    {
      "midi": 36,
      "time": 9,
      "duration": 0.075,
      "velocity": 0.69,
      "hand": "left"
    },
    {
      "midi": 38,
      "time": 9,
      "duration": 0.075,
      "velocity": 0.39,
      "hand": "left"
    },
    {
      "midi": 61,
      "time": 9,
      "duration": 0.285,
      "velocity": 0.72,
      "hand": "right"
    },
    {
      "midi": 65,
      "time": 9,
      "duration": 0.285,
      "velocity": 0.57,
      "hand": "right"
    },
    {
      "midi": 67,
      "time": 9,
      "duration": 0.3,
      "velocity": 0.63,
      "hand": "right"
    },
    {
      "midi": 38,
      "time": 9.3,
      "duration": 0.075,
      "velocity": 0.39,
      "hand": "left"
    },
    {
      "midi": 61,
      "time": 9.3,
      "duration": 0.15,
      "velocity": 0.48,
      "hand": "right"
    },
    {
      "midi": 65,
      "time": 9.3,
      "duration": 0.3,
      "velocity": 0.62,
      "hand": "right"
    },
    {
      "midi": 36,
      "time": 9.6,
      "duration": 0.585,
      "velocity": 0.83,
      "hand": "left"
    },
    {
      "midi": 38,
      "time": 9.6,
      "duration": 0.075,
      "velocity": 0.39,
      "hand": "left"
    },
    {
      "midi": 60,
      "time": 9.6,
      "duration": 0.075,
      "velocity": 0.49,
      "hand": "right"
    },
    {
      "midi": 62,
      "time": 9.6,
      "duration": 0.435,
      "velocity": 0.72,
      "hand": "right"
    },
    {
      "midi": 64,
      "time": 9.6,
      "duration": 1.05,
      "velocity": 0.63,
      "hand": "right"
    },
    {
      "midi": 67,
      "time": 9.6,
      "duration": 0.435,
      "velocity": 0.63,
      "hand": "right"
    },
    {
      "midi": 38,
      "time": 9.9,
      "duration": 0.075,
      "velocity": 0.39,
      "hand": "left"
    },
    {
      "midi": 40,
      "time": 9.9,
      "duration": 0.075,
      "velocity": 0.61,
      "hand": "left"
    },
    {
      "midi": 57,
      "time": 10.05,
      "duration": 0.075,
      "velocity": 0.57,
      "hand": "left"
    },
    {
      "midi": 62,
      "time": 10.05,
      "duration": 0.075,
      "velocity": 0.54,
      "hand": "right"
    },
    {
      "midi": 67,
      "time": 10.05,
      "duration": 0.135,
      "velocity": 0.56,
      "hand": "right"
    },
    {
      "midi": 36,
      "time": 10.2,
      "duration": 0.075,
      "velocity": 0.69,
      "hand": "left"
    },
    {
      "midi": 38,
      "time": 10.2,
      "duration": 0.075,
      "velocity": 0.39,
      "hand": "left"
    },
    {
      "midi": 62,
      "time": 10.2,
      "duration": 0.075,
      "velocity": 0.57,
      "hand": "right"
    },
    {
      "midi": 67,
      "time": 10.2,
      "duration": 0.15,
      "velocity": 0.45,
      "hand": "right"
    },
    {
      "midi": 38,
      "time": 10.35,
      "duration": 0.075,
      "velocity": 0.39,
      "hand": "left"
    },
    {
      "midi": 40,
      "time": 10.35,
      "duration": 0.075,
      "velocity": 0.57,
      "hand": "left"
    },
    {
      "midi": 38,
      "time": 10.5,
      "duration": 0.075,
      "velocity": 0.39,
      "hand": "left"
    },
    {
      "midi": 46,
      "time": 10.5,
      "duration": 0.075,
      "velocity": 0.51,
      "hand": "left"
    },
    {
      "midi": 62,
      "time": 10.5,
      "duration": 0.075,
      "velocity": 0.54,
      "hand": "right"
    },
    {
      "midi": 67,
      "time": 10.5,
      "duration": 0.15,
      "velocity": 0.5,
      "hand": "right"
    },
    {
      "midi": 38,
      "time": 10.65,
      "duration": 0.075,
      "velocity": 0.39,
      "hand": "left"
    },
    {
      "midi": 36,
      "time": 10.8,
      "duration": 0.585,
      "velocity": 0.77,
      "hand": "left"
    },
    {
      "midi": 38,
      "time": 10.8,
      "duration": 0.075,
      "velocity": 0.39,
      "hand": "left"
    },
    {
      "midi": 62,
      "time": 10.8,
      "duration": 0.285,
      "velocity": 0.68,
      "hand": "right"
    },
    {
      "midi": 67,
      "time": 10.8,
      "duration": 0.285,
      "velocity": 0.82,
      "hand": "right"
    },
    {
      "midi": 46,
      "time": 11.1,
      "duration": 0.075,
      "velocity": 0.51,
      "hand": "left"
    },
    {
      "midi": 54,
      "time": 11.1,
      "duration": 0.075,
      "velocity": 0.43,
      "hand": "left"
    },
    {
      "midi": 62,
      "time": 11.1,
      "duration": 0.075,
      "velocity": 0.65,
      "hand": "right"
    },
    {
      "midi": 67,
      "time": 11.1,
      "duration": 0.15,
      "velocity": 0.54,
      "hand": "right"
    },
    {
      "midi": 38,
      "time": 11.25,
      "duration": 0.075,
      "velocity": 0.39,
      "hand": "left"
    },
    {
      "midi": 40,
      "time": 11.25,
      "duration": 0.075,
      "velocity": 0.57,
      "hand": "left"
    },
    {
      "midi": 36,
      "time": 11.4,
      "duration": 0.075,
      "velocity": 0.61,
      "hand": "left"
    },
    {
      "midi": 38,
      "time": 11.4,
      "duration": 0.075,
      "velocity": 0.39,
      "hand": "left"
    },
    {
      "midi": 62,
      "time": 11.4,
      "duration": 0.075,
      "velocity": 0.61,
      "hand": "right"
    },
    {
      "midi": 64,
      "time": 11.4,
      "duration": 0.45,
      "velocity": 0.59,
      "hand": "right"
    },
    {
      "midi": 67,
      "time": 11.4,
      "duration": 0.075,
      "velocity": 0.51,
      "hand": "right"
    },
    {
      "midi": 38,
      "time": 11.7,
      "duration": 0.075,
      "velocity": 0.39,
      "hand": "left"
    },
    {
      "midi": 40,
      "time": 11.7,
      "duration": 0.075,
      "velocity": 0.61,
      "hand": "left"
    },
    {
      "midi": 62,
      "time": 11.7,
      "duration": 0.075,
      "velocity": 0.56,
      "hand": "right"
    },
    {
      "midi": 67,
      "time": 11.7,
      "duration": 0.15,
      "velocity": 0.59,
      "hand": "right"
    },
    {
      "midi": 38,
      "time": 12,
      "duration": 0.075,
      "velocity": 0.39,
      "hand": "left"
    },
    {
      "midi": 40,
      "time": 12,
      "duration": 0.285,
      "velocity": 0.77,
      "hand": "left"
    },
    {
      "midi": 64,
      "time": 12,
      "duration": 0.585,
      "velocity": 0.64,
      "hand": "right"
    },
    {
      "midi": 67,
      "time": 12,
      "duration": 1.05,
      "velocity": 0.74,
      "hand": "right"
    },
    {
      "midi": 69,
      "time": 12,
      "duration": 1.05,
      "velocity": 0.54,
      "hand": "right"
    },
    {
      "midi": 55,
      "time": 12.15,
      "duration": 0.15,
      "velocity": 0.52,
      "hand": "left"
    },
    {
      "midi": 59,
      "time": 12.15,
      "duration": 0.075,
      "velocity": 0.51,
      "hand": "left"
    },
    {
      "midi": 62,
      "time": 12.15,
      "duration": 0.075,
      "velocity": 0.51,
      "hand": "right"
    },
    {
      "midi": 66,
      "time": 12.15,
      "duration": 0.15,
      "velocity": 0.4,
      "hand": "right"
    },
    {
      "midi": 38,
      "time": 12.3,
      "duration": 0.075,
      "velocity": 0.39,
      "hand": "left"
    },
    {
      "midi": 40,
      "time": 12.3,
      "duration": 0.075,
      "velocity": 0.61,
      "hand": "left"
    },
    {
      "midi": 55,
      "time": 12.45,
      "duration": 0.075,
      "velocity": 0.51,
      "hand": "left"
    },
    {
      "midi": 59,
      "time": 12.45,
      "duration": 0.075,
      "velocity": 0.46,
      "hand": "left"
    },
    {
      "midi": 62,
      "time": 12.45,
      "duration": 0.075,
      "velocity": 0.49,
      "hand": "right"
    },
    {
      "midi": 66,
      "time": 12.45,
      "duration": 0.135,
      "velocity": 0.47,
      "hand": "right"
    },
    {
      "midi": 36,
      "time": 12.6,
      "duration": 0.075,
      "velocity": 0.72,
      "hand": "left"
    },
    {
      "midi": 38,
      "time": 12.6,
      "duration": 0.075,
      "velocity": 0.39,
      "hand": "left"
    },
    {
      "midi": 62,
      "time": 12.6,
      "duration": 0.075,
      "velocity": 0.5,
      "hand": "right"
    },
    {
      "midi": 64,
      "time": 12.6,
      "duration": 0.585,
      "velocity": 0.68,
      "hand": "right"
    },
    {
      "midi": 66,
      "time": 12.6,
      "duration": 0.15,
      "velocity": 0.43,
      "hand": "right"
    },
    {
      "midi": 38,
      "time": 12.75,
      "duration": 0.075,
      "velocity": 0.39,
      "hand": "left"
    },
    {
      "midi": 40,
      "time": 12.75,
      "duration": 0.075,
      "velocity": 0.54,
      "hand": "left"
    },
    {
      "midi": 38,
      "time": 12.9,
      "duration": 0.075,
      "velocity": 0.39,
      "hand": "left"
    },
    {
      "midi": 46,
      "time": 12.9,
      "duration": 0.075,
      "velocity": 0.51,
      "hand": "left"
    },
    {
      "midi": 62,
      "time": 12.9,
      "duration": 0.15,
      "velocity": 0.49,
      "hand": "right"
    },
    {
      "midi": 66,
      "time": 12.9,
      "duration": 0.15,
      "velocity": 0.19,
      "hand": "right"
    },
    {
      "midi": 38,
      "time": 13.05,
      "duration": 0.075,
      "velocity": 0.39,
      "hand": "left"
    },
    {
      "midi": 38,
      "time": 13.2,
      "duration": 0.435,
      "velocity": 0.8,
      "hand": "left"
    },
    {
      "midi": 40,
      "time": 13.2,
      "duration": 0.075,
      "velocity": 0.57,
      "hand": "left"
    },
    {
      "midi": 62,
      "time": 13.2,
      "duration": 0.285,
      "velocity": 0.72,
      "hand": "right"
    },
    {
      "midi": 65,
      "time": 13.2,
      "duration": 0.285,
      "velocity": 0.68,
      "hand": "right"
    },
    {
      "midi": 67,
      "time": 13.2,
      "duration": 0.285,
      "velocity": 0.83,
      "hand": "right"
    },
    {
      "midi": 46,
      "time": 13.5,
      "duration": 0.075,
      "velocity": 0.51,
      "hand": "left"
    },
    {
      "midi": 54,
      "time": 13.5,
      "duration": 0.075,
      "velocity": 0.43,
      "hand": "left"
    },
    {
      "midi": 60,
      "time": 13.5,
      "duration": 0.15,
      "velocity": 0.63,
      "hand": "right"
    },
    {
      "midi": 62,
      "time": 13.5,
      "duration": 0.15,
      "velocity": 0.61,
      "hand": "right"
    },
    {
      "midi": 65,
      "time": 13.5,
      "duration": 0.15,
      "velocity": 0.58,
      "hand": "right"
    },
    {
      "midi": 67,
      "time": 13.5,
      "duration": 0.15,
      "velocity": 0.81,
      "hand": "right"
    },
    {
      "midi": 38,
      "time": 13.65,
      "duration": 0.075,
      "velocity": 0.39,
      "hand": "left"
    },
    {
      "midi": 40,
      "time": 13.65,
      "duration": 0.075,
      "velocity": 0.65,
      "hand": "left"
    },
    {
      "midi": 36,
      "time": 13.8,
      "duration": 0.075,
      "velocity": 0.72,
      "hand": "left"
    },
    {
      "midi": 38,
      "time": 13.8,
      "duration": 0.075,
      "velocity": 0.39,
      "hand": "left"
    },
    {
      "midi": 61,
      "time": 13.8,
      "duration": 0.285,
      "velocity": 0.72,
      "hand": "right"
    },
    {
      "midi": 65,
      "time": 13.8,
      "duration": 0.285,
      "velocity": 0.68,
      "hand": "right"
    },
    {
      "midi": 72,
      "time": 13.8,
      "duration": 0.15,
      "velocity": 0.82,
      "hand": "right"
    },
    {
      "midi": 38,
      "time": 14.1,
      "duration": 0.075,
      "velocity": 0.39,
      "hand": "left"
    },
    {
      "midi": 40,
      "time": 14.1,
      "duration": 0.075,
      "velocity": 0.57,
      "hand": "left"
    },
    {
      "midi": 61,
      "time": 14.1,
      "duration": 0.15,
      "velocity": 0.53,
      "hand": "right"
    },
    {
      "midi": 65,
      "time": 14.1,
      "duration": 0.15,
      "velocity": 0.52,
      "hand": "right"
    },
    {
      "midi": 74,
      "time": 14.1,
      "duration": 0.3,
      "velocity": 0.72,
      "hand": "right"
    },
    {
      "midi": 36,
      "time": 14.4,
      "duration": 0.45,
      "velocity": 0.79,
      "hand": "left"
    },
    {
      "midi": 38,
      "time": 14.4,
      "duration": 0.075,
      "velocity": 0.39,
      "hand": "left"
    },
    {
      "midi": 62,
      "time": 14.4,
      "duration": 0.435,
      "velocity": 0.73,
      "hand": "right"
    },
    {
      "midi": 67,
      "time": 14.4,
      "duration": 0.435,
      "velocity": 0.65,
      "hand": "right"
    },
    {
      "midi": 76,
      "time": 14.4,
      "duration": 0.75,
      "velocity": 0.77,
      "hand": "right"
    },
    {
      "midi": 38,
      "time": 14.7,
      "duration": 0.075,
      "velocity": 0.39,
      "hand": "left"
    },
    {
      "midi": 40,
      "time": 14.7,
      "duration": 0.075,
      "velocity": 0.57,
      "hand": "left"
    },
    {
      "midi": 57,
      "time": 14.85,
      "duration": 0.075,
      "velocity": 0.54,
      "hand": "left"
    },
    {
      "midi": 62,
      "time": 14.85,
      "duration": 0.075,
      "velocity": 0.61,
      "hand": "right"
    },
    {
      "midi": 67,
      "time": 14.85,
      "duration": 0.135,
      "velocity": 0.56,
      "hand": "right"
    },
    {
      "midi": 36,
      "time": 15,
      "duration": 0.075,
      "velocity": 0.72,
      "hand": "left"
    },
    {
      "midi": 38,
      "time": 15,
      "duration": 0.075,
      "velocity": 0.39,
      "hand": "left"
    },
    {
      "midi": 62,
      "time": 15,
      "duration": 0.075,
      "velocity": 0.64,
      "hand": "right"
    },
    {
      "midi": 67,
      "time": 15,
      "duration": 0.15,
      "velocity": 0.54,
      "hand": "right"
    },
    {
      "midi": 38,
      "time": 15.15,
      "duration": 0.075,
      "velocity": 0.39,
      "hand": "left"
    },
    {
      "midi": 40,
      "time": 15.15,
      "duration": 0.075,
      "velocity": 0.68,
      "hand": "left"
    },
    {
      "midi": 38,
      "time": 15.3,
      "duration": 0.075,
      "velocity": 0.39,
      "hand": "left"
    },
    {
      "midi": 46,
      "time": 15.3,
      "duration": 0.075,
      "velocity": 0.51,
      "hand": "left"
    },
    {
      "midi": 62,
      "time": 15.3,
      "duration": 0.075,
      "velocity": 0.64,
      "hand": "right"
    },
    {
      "midi": 67,
      "time": 15.3,
      "duration": 0.15,
      "velocity": 0.5,
      "hand": "right"
    },
    {
      "midi": 74,
      "time": 15.3,
      "duration": 0.3,
      "velocity": 0.7,
      "hand": "right"
    },
    {
      "midi": 38,
      "time": 15.45,
      "duration": 0.075,
      "velocity": 0.39,
      "hand": "left"
    },
    {
      "midi": 52,
      "time": 15.45,
      "duration": 1.05,
      "velocity": 0.49,
      "hand": "left"
    },
    {
      "midi": 36,
      "time": 15.6,
      "duration": 0.585,
      "velocity": 0.78,
      "hand": "left"
    },
    {
      "midi": 38,
      "time": 15.6,
      "duration": 0.075,
      "velocity": 0.39,
      "hand": "left"
    },
    {
      "midi": 62,
      "time": 15.6,
      "duration": 0.285,
      "velocity": 0.58,
      "hand": "right"
    },
    {
      "midi": 67,
      "time": 15.6,
      "duration": 0.585,
      "velocity": 0.55,
      "hand": "right"
    },
    {
      "midi": 72,
      "time": 15.6,
      "duration": 0.6,
      "velocity": 0.79,
      "hand": "right"
    },
    {
      "midi": 46,
      "time": 15.9,
      "duration": 0.075,
      "velocity": 0.51,
      "hand": "left"
    },
    {
      "midi": 54,
      "time": 15.9,
      "duration": 0.075,
      "velocity": 0.43,
      "hand": "left"
    },
    {
      "midi": 62,
      "time": 15.9,
      "duration": 0.075,
      "velocity": 0.57,
      "hand": "right"
    },
    {
      "midi": 38,
      "time": 16.05,
      "duration": 0.075,
      "velocity": 0.39,
      "hand": "left"
    },
    {
      "midi": 40,
      "time": 16.05,
      "duration": 0.075,
      "velocity": 0.59,
      "hand": "left"
    },
    {
      "midi": 36,
      "time": 16.2,
      "duration": 0.075,
      "velocity": 0.69,
      "hand": "left"
    },
    {
      "midi": 38,
      "time": 16.2,
      "duration": 0.075,
      "velocity": 0.39,
      "hand": "left"
    },
    {
      "midi": 62,
      "time": 16.2,
      "duration": 0.075,
      "velocity": 0.7,
      "hand": "right"
    },
    {
      "midi": 67,
      "time": 16.2,
      "duration": 0.15,
      "velocity": 0.61,
      "hand": "right"
    },
    {
      "midi": 38,
      "time": 16.5,
      "duration": 0.075,
      "velocity": 0.39,
      "hand": "left"
    },
    {
      "midi": 40,
      "time": 16.5,
      "duration": 0.075,
      "velocity": 0.56,
      "hand": "left"
    },
    {
      "midi": 62,
      "time": 16.5,
      "duration": 0.075,
      "velocity": 0.54,
      "hand": "right"
    },
    {
      "midi": 67,
      "time": 16.5,
      "duration": 0.285,
      "velocity": 0.81,
      "hand": "right"
    },
    {
      "midi": 36,
      "time": 16.8,
      "duration": 0.585,
      "velocity": 0.79,
      "hand": "left"
    },
    {
      "midi": 38,
      "time": 16.8,
      "duration": 0.075,
      "velocity": 0.39,
      "hand": "left"
    },
    {
      "midi": 62,
      "time": 16.8,
      "duration": 0.435,
      "velocity": 0.73,
      "hand": "right"
    },
    {
      "midi": 67,
      "time": 16.8,
      "duration": 0.285,
      "velocity": 0.7,
      "hand": "right"
    },
    {
      "midi": 69,
      "time": 16.8,
      "duration": 0.3,
      "velocity": 0.62,
      "hand": "right"
    },
    {
      "midi": 40,
      "time": 16.95,
      "duration": 0.075,
      "velocity": 0.61,
      "hand": "left"
    },
    {
      "midi": 38,
      "time": 17.1,
      "duration": 0.075,
      "velocity": 0.39,
      "hand": "left"
    },
    {
      "midi": 46,
      "time": 17.1,
      "duration": 0.075,
      "velocity": 0.51,
      "hand": "left"
    },
    {
      "midi": 67,
      "time": 17.1,
      "duration": 0.135,
      "velocity": 0.65,
      "hand": "right"
    },
    {
      "midi": 57,
      "time": 17.25,
      "duration": 0.075,
      "velocity": 0.54,
      "hand": "left"
    },
    {
      "midi": 62,
      "time": 17.25,
      "duration": 0.075,
      "velocity": 0.56,
      "hand": "right"
    },
    {
      "midi": 67,
      "time": 17.25,
      "duration": 0.135,
      "velocity": 0.52,
      "hand": "right"
    },
    {
      "midi": 36,
      "time": 17.4,
      "duration": 0.075,
      "velocity": 0.69,
      "hand": "left"
    },
    {
      "midi": 38,
      "time": 17.4,
      "duration": 0.075,
      "velocity": 0.39,
      "hand": "left"
    },
    {
      "midi": 62,
      "time": 17.4,
      "duration": 0.15,
      "velocity": 0.61,
      "hand": "right"
    },
    {
      "midi": 64,
      "time": 17.4,
      "duration": 0.3,
      "velocity": 0.65,
      "hand": "right"
    },
    {
      "midi": 67,
      "time": 17.4,
      "duration": 0.15,
      "velocity": 0.51,
      "hand": "right"
    },
    {
      "midi": 38,
      "time": 17.55,
      "duration": 0.075,
      "velocity": 0.39,
      "hand": "left"
    },
    {
      "midi": 36,
      "time": 17.7,
      "duration": 0.3,
      "velocity": 0.8,
      "hand": "left"
    },
    {
      "midi": 38,
      "time": 17.7,
      "duration": 0.075,
      "velocity": 0.39,
      "hand": "left"
    },
    {
      "midi": 62,
      "time": 17.7,
      "duration": 0.15,
      "velocity": 0.5,
      "hand": "right"
    },
    {
      "midi": 67,
      "time": 17.7,
      "duration": 0.15,
      "velocity": 0.52,
      "hand": "right"
    },
    {
      "midi": 38,
      "time": 17.85,
      "duration": 0.075,
      "velocity": 0.39,
      "hand": "left"
    },
    {
      "midi": 40,
      "time": 18,
      "duration": 0.435,
      "velocity": 0.97,
      "hand": "left"
    },
    {
      "midi": 42,
      "time": 18,
      "duration": 0.075,
      "velocity": 0.63,
      "hand": "left"
    },
    {
      "midi": 64,
      "time": 18,
      "duration": 0.585,
      "velocity": 0.64,
      "hand": "right"
    },
    {
      "midi": 67,
      "time": 18,
      "duration": 0.285,
      "velocity": 0.58,
      "hand": "right"
    },
    {
      "midi": 69,
      "time": 18,
      "duration": 0.6,
      "velocity": 0.62,
      "hand": "right"
    },
    {
      "midi": 46,
      "time": 18.3,
      "duration": 0.075,
      "velocity": 0.51,
      "hand": "left"
    },
    {
      "midi": 54,
      "time": 18.3,
      "duration": 0.075,
      "velocity": 0.43,
      "hand": "left"
    },
    {
      "midi": 62,
      "time": 18.3,
      "duration": 0.075,
      "velocity": 0.43,
      "hand": "right"
    },
    {
      "midi": 67,
      "time": 18.3,
      "duration": 0.3,
      "velocity": 0.65,
      "hand": "right"
    },
    {
      "midi": 38,
      "time": 18.45,
      "duration": 0.075,
      "velocity": 0.39,
      "hand": "left"
    },
    {
      "midi": 40,
      "time": 18.45,
      "duration": 0.075,
      "velocity": 0.56,
      "hand": "left"
    },
    {
      "midi": 36,
      "time": 18.6,
      "duration": 0.075,
      "velocity": 0.72,
      "hand": "left"
    },
    {
      "midi": 38,
      "time": 18.6,
      "duration": 0.075,
      "velocity": 0.39,
      "hand": "left"
    },
    {
      "midi": 62,
      "time": 18.6,
      "duration": 0.15,
      "velocity": 0.57,
      "hand": "right"
    },
    {
      "midi": 64,
      "time": 18.6,
      "duration": 0.3,
      "velocity": 0.77,
      "hand": "right"
    },
    {
      "midi": 66,
      "time": 18.6,
      "duration": 0.15,
      "velocity": 0.55,
      "hand": "right"
    },
    {
      "midi": 38,
      "time": 18.9,
      "duration": 0.075,
      "velocity": 0.39,
      "hand": "left"
    },
    {
      "midi": 40,
      "time": 18.9,
      "duration": 0.15,
      "velocity": 0.76,
      "hand": "left"
    },
    {
      "midi": 62,
      "time": 18.9,
      "duration": 0.15,
      "velocity": 0.51,
      "hand": "right"
    },
    {
      "midi": 67,
      "time": 18.9,
      "duration": 0.3,
      "velocity": 0.76,
      "hand": "right"
    },
    {
      "midi": 38,
      "time": 19.2,
      "duration": 0.585,
      "velocity": 0.78,
      "hand": "left"
    },
    {
      "midi": 42,
      "time": 19.2,
      "duration": 0.075,
      "velocity": 0.63,
      "hand": "left"
    },
    {
      "midi": 60,
      "time": 19.2,
      "duration": 0.285,
      "velocity": 0.74,
      "hand": "right"
    },
    {
      "midi": 62,
      "time": 19.2,
      "duration": 0.285,
      "velocity": 0.72,
      "hand": "right"
    },
    {
      "midi": 65,
      "time": 19.2,
      "duration": 0.285,
      "velocity": 0.64,
      "hand": "right"
    },
    {
      "midi": 69,
      "time": 19.2,
      "duration": 0.15,
      "velocity": 0.65,
      "hand": "right"
    },
    {
      "midi": 55,
      "time": 19.5,
      "duration": 0.15,
      "velocity": 0.58,
      "hand": "left"
    },
    {
      "midi": 60,
      "time": 19.5,
      "duration": 0.15,
      "velocity": 0.64,
      "hand": "right"
    },
    {
      "midi": 62,
      "time": 19.5,
      "duration": 0.15,
      "velocity": 0.64,
      "hand": "right"
    },
    {
      "midi": 65,
      "time": 19.5,
      "duration": 0.15,
      "velocity": 0.64,
      "hand": "right"
    },
    {
      "midi": 69,
      "time": 19.5,
      "duration": 0.3,
      "velocity": 0.62,
      "hand": "right"
    },
    {
      "midi": 36,
      "time": 19.8,
      "duration": 0.075,
      "velocity": 0.69,
      "hand": "left"
    },
    {
      "midi": 38,
      "time": 19.8,
      "duration": 0.075,
      "velocity": 0.39,
      "hand": "left"
    },
    {
      "midi": 61,
      "time": 19.8,
      "duration": 0.285,
      "velocity": 0.57,
      "hand": "right"
    },
    {
      "midi": 65,
      "time": 19.8,
      "duration": 0.285,
      "velocity": 0.5,
      "hand": "right"
    },
    {
      "midi": 71,
      "time": 19.8,
      "duration": 0.15,
      "velocity": 0.65,
      "hand": "right"
    },
    {
      "midi": 37,
      "time": 20.1,
      "duration": 0.3,
      "velocity": 0.77,
      "hand": "left"
    },
    {
      "midi": 55,
      "time": 20.1,
      "duration": 0.15,
      "velocity": 0.64,
      "hand": "left"
    },
    {
      "midi": 61,
      "time": 20.1,
      "duration": 0.15,
      "velocity": 0.55,
      "hand": "right"
    },
    {
      "midi": 65,
      "time": 20.1,
      "duration": 0.15,
      "velocity": 0.57,
      "hand": "right"
    },
    {
      "midi": 71,
      "time": 20.1,
      "duration": 0.15,
      "velocity": 0.64,
      "hand": "right"
    },
    {
      "midi": 36,
      "time": 20.4,
      "duration": 0.3,
      "velocity": 0.87,
      "hand": "left"
    },
    {
      "midi": 38,
      "time": 20.4,
      "duration": 0.075,
      "velocity": 0.39,
      "hand": "left"
    },
    {
      "midi": 62,
      "time": 20.4,
      "duration": 0.435,
      "velocity": 0.72,
      "hand": "right"
    },
    {
      "midi": 67,
      "time": 20.4,
      "duration": 0.435,
      "velocity": 0.68,
      "hand": "right"
    },
    {
      "midi": 72,
      "time": 20.4,
      "duration": 0.75,
      "velocity": 0.79,
      "hand": "right"
    },
    {
      "midi": 46,
      "time": 20.7,
      "duration": 0.075,
      "velocity": 0.51,
      "hand": "left"
    },
    {
      "midi": 54,
      "time": 20.7,
      "duration": 0.075,
      "velocity": 0.43,
      "hand": "left"
    },
    {
      "midi": 38,
      "time": 20.85,
      "duration": 0.075,
      "velocity": 0.39,
      "hand": "left"
    },
    {
      "midi": 40,
      "time": 20.85,
      "duration": 0.075,
      "velocity": 0.54,
      "hand": "left"
    },
    {
      "midi": 62,
      "time": 20.85,
      "duration": 0.075,
      "velocity": 0.65,
      "hand": "right"
    },
    {
      "midi": 67,
      "time": 20.85,
      "duration": 0.15,
      "velocity": 0.57,
      "hand": "right"
    },
    {
      "midi": 36,
      "time": 21,
      "duration": 0.075,
      "velocity": 0.72,
      "hand": "left"
    },
    {
      "midi": 38,
      "time": 21,
      "duration": 0.075,
      "velocity": 0.39,
      "hand": "left"
    },
    {
      "midi": 38,
      "time": 21.3,
      "duration": 0.075,
      "velocity": 0.39,
      "hand": "left"
    },
    {
      "midi": 40,
      "time": 21.3,
      "duration": 0.075,
      "velocity": 0.55,
      "hand": "left"
    },
    {
      "midi": 62,
      "time": 21.3,
      "duration": 0.075,
      "velocity": 0.72,
      "hand": "right"
    },
    {
      "midi": 67,
      "time": 21.3,
      "duration": 0.285,
      "velocity": 0.8,
      "hand": "right"
    },
    {
      "midi": 36,
      "time": 21.6,
      "duration": 0.585,
      "velocity": 0.79,
      "hand": "left"
    },
    {
      "midi": 38,
      "time": 21.6,
      "duration": 0.075,
      "velocity": 0.39,
      "hand": "left"
    },
    {
      "midi": 62,
      "time": 21.6,
      "duration": 0.285,
      "velocity": 0.73,
      "hand": "right"
    },
    {
      "midi": 67,
      "time": 21.6,
      "duration": 0.285,
      "velocity": 0.7,
      "hand": "right"
    },
    {
      "midi": 69,
      "time": 21.6,
      "duration": 0.3,
      "velocity": 0.64,
      "hand": "right"
    },
    {
      "midi": 38,
      "time": 21.9,
      "duration": 0.075,
      "velocity": 0.39,
      "hand": "left"
    },
    {
      "midi": 40,
      "time": 21.9,
      "duration": 0.075,
      "velocity": 0.63,
      "hand": "left"
    },
    {
      "midi": 62,
      "time": 21.9,
      "duration": 0.075,
      "velocity": 0.73,
      "hand": "right"
    },
    {
      "midi": 67,
      "time": 21.9,
      "duration": 0.285,
      "velocity": 0.62,
      "hand": "right"
    },
    {
      "midi": 36,
      "time": 22.2,
      "duration": 0.075,
      "velocity": 0.69,
      "hand": "left"
    },
    {
      "midi": 38,
      "time": 22.2,
      "duration": 0.075,
      "velocity": 0.39,
      "hand": "left"
    },
    {
      "midi": 62,
      "time": 22.2,
      "duration": 0.15,
      "velocity": 0.74,
      "hand": "right"
    },
    {
      "midi": 64,
      "time": 22.2,
      "duration": 0.3,
      "velocity": 0.8,
      "hand": "right"
    },
    {
      "midi": 67,
      "time": 22.2,
      "duration": 0.15,
      "velocity": 0.72,
      "hand": "right"
    },
    {
      "midi": 38,
      "time": 22.35,
      "duration": 0.075,
      "velocity": 0.39,
      "hand": "left"
    },
    {
      "midi": 40,
      "time": 22.35,
      "duration": 0.075,
      "velocity": 0.57,
      "hand": "left"
    },
    {
      "midi": 36,
      "time": 22.5,
      "duration": 0.3,
      "velocity": 0.8,
      "hand": "left"
    },
    {
      "midi": 38,
      "time": 22.5,
      "duration": 0.075,
      "velocity": 0.39,
      "hand": "left"
    },
    {
      "midi": 60,
      "time": 22.5,
      "duration": 0.075,
      "velocity": 0.54,
      "hand": "right"
    },
    {
      "midi": 62,
      "time": 22.5,
      "duration": 0.15,
      "velocity": 0.5,
      "hand": "right"
    },
    {
      "midi": 67,
      "time": 22.5,
      "duration": 0.285,
      "velocity": 0.76,
      "hand": "right"
    },
    {
      "midi": 38,
      "time": 22.65,
      "duration": 0.075,
      "velocity": 0.39,
      "hand": "left"
    },
    {
      "midi": 59,
      "time": 22.65,
      "duration": 0.135,
      "velocity": 0.43,
      "hand": "left"
    },
    {
      "midi": 38,
      "time": 22.8,
      "duration": 0.075,
      "velocity": 0.39,
      "hand": "left"
    },
    {
      "midi": 40,
      "time": 22.8,
      "duration": 0.435,
      "velocity": 0.97,
      "hand": "left"
    },
    {
      "midi": 64,
      "time": 22.8,
      "duration": 0.585,
      "velocity": 0.64,
      "hand": "right"
    },
    {
      "midi": 67,
      "time": 22.8,
      "duration": 0.285,
      "velocity": 0.58,
      "hand": "right"
    },
    {
      "midi": 69,
      "time": 22.8,
      "duration": 0.9,
      "velocity": 0.64,
      "hand": "right"
    },
    {
      "midi": 46,
      "time": 23.1,
      "duration": 0.075,
      "velocity": 0.51,
      "hand": "left"
    },
    {
      "midi": 54,
      "time": 23.1,
      "duration": 0.075,
      "velocity": 0.43,
      "hand": "left"
    },
    {
      "midi": 67,
      "time": 23.1,
      "duration": 0.3,
      "velocity": 0.62,
      "hand": "right"
    },
    {
      "midi": 38,
      "time": 23.25,
      "duration": 0.075,
      "velocity": 0.39,
      "hand": "left"
    },
    {
      "midi": 40,
      "time": 23.25,
      "duration": 0.075,
      "velocity": 0.72,
      "hand": "left"
    },
    {
      "midi": 62,
      "time": 23.25,
      "duration": 0.135,
      "velocity": 0.48,
      "hand": "right"
    },
    {
      "midi": 66,
      "time": 23.25,
      "duration": 0.135,
      "velocity": 0.51,
      "hand": "right"
    },
    {
      "midi": 36,
      "time": 23.4,
      "duration": 0.075,
      "velocity": 0.54,
      "hand": "left"
    },
    {
      "midi": 38,
      "time": 23.4,
      "duration": 0.075,
      "velocity": 0.39,
      "hand": "left"
    },
    {
      "midi": 62,
      "time": 23.4,
      "duration": 0.285,
      "velocity": 0.56,
      "hand": "right"
    },
    {
      "midi": 64,
      "time": 23.4,
      "duration": 0.3,
      "velocity": 0.7,
      "hand": "right"
    },
    {
      "midi": 66,
      "time": 23.4,
      "duration": 0.15,
      "velocity": 0.54,
      "hand": "right"
    },
    {
      "midi": 38,
      "time": 23.7,
      "duration": 0.075,
      "velocity": 0.39,
      "hand": "left"
    },
    {
      "midi": 40,
      "time": 23.7,
      "duration": 0.15,
      "velocity": 0.76,
      "hand": "left"
    },
    {
      "midi": 62,
      "time": 23.7,
      "duration": 0.15,
      "velocity": 0.5,
      "hand": "right"
    },
    {
      "midi": 67,
      "time": 23.7,
      "duration": 0.3,
      "velocity": 0.72,
      "hand": "right"
    },
    {
      "midi": 38,
      "time": 24,
      "duration": 0.585,
      "velocity": 0.78,
      "hand": "left"
    },
    {
      "midi": 42,
      "time": 24,
      "duration": 0.075,
      "velocity": 0.63,
      "hand": "left"
    },
    {
      "midi": 60,
      "time": 24,
      "duration": 0.285,
      "velocity": 0.74,
      "hand": "right"
    },
    {
      "midi": 62,
      "time": 24,
      "duration": 0.285,
      "velocity": 0.69,
      "hand": "right"
    },
    {
      "midi": 65,
      "time": 24,
      "duration": 0.285,
      "velocity": 0.7,
      "hand": "right"
    },
    {
      "midi": 69,
      "time": 24,
      "duration": 0.15,
      "velocity": 0.72,
      "hand": "right"
    },
    {
      "midi": 55,
      "time": 24.3,
      "duration": 0.15,
      "velocity": 0.64,
      "hand": "left"
    },
    {
      "midi": 60,
      "time": 24.3,
      "duration": 0.15,
      "velocity": 0.72,
      "hand": "right"
    },
    {
      "midi": 62,
      "time": 24.3,
      "duration": 0.15,
      "velocity": 0.65,
      "hand": "right"
    },
    {
      "midi": 65,
      "time": 24.3,
      "duration": 0.15,
      "velocity": 0.68,
      "hand": "right"
    },
    {
      "midi": 69,
      "time": 24.3,
      "duration": 0.3,
      "velocity": 0.66,
      "hand": "right"
    },
    {
      "midi": 36,
      "time": 24.6,
      "duration": 0.075,
      "velocity": 0.7,
      "hand": "left"
    },
    {
      "midi": 38,
      "time": 24.6,
      "duration": 0.075,
      "velocity": 0.39,
      "hand": "left"
    },
    {
      "midi": 62,
      "time": 24.6,
      "duration": 0.3,
      "velocity": 0.51,
      "hand": "right"
    },
    {
      "midi": 65,
      "time": 24.6,
      "duration": 0.285,
      "velocity": 0.58,
      "hand": "right"
    },
    {
      "midi": 71,
      "time": 24.6,
      "duration": 0.15,
      "velocity": 0.65,
      "hand": "right"
    },
    {
      "midi": 37,
      "time": 24.9,
      "duration": 0.3,
      "velocity": 0.77,
      "hand": "left"
    },
    {
      "midi": 55,
      "time": 24.9,
      "duration": 0.15,
      "velocity": 0.45,
      "hand": "left"
    },
    {
      "midi": 61,
      "time": 24.9,
      "duration": 0.15,
      "velocity": 0.45,
      "hand": "right"
    },
    {
      "midi": 65,
      "time": 24.9,
      "duration": 0.15,
      "velocity": 0.38,
      "hand": "right"
    },
    {
      "midi": 71,
      "time": 24.9,
      "duration": 0.15,
      "velocity": 0.66,
      "hand": "right"
    },
    {
      "midi": 36,
      "time": 25.2,
      "duration": 0.3,
      "velocity": 0.87,
      "hand": "left"
    },
    {
      "midi": 38,
      "time": 25.2,
      "duration": 0.075,
      "velocity": 0.39,
      "hand": "left"
    },
    {
      "midi": 62,
      "time": 25.2,
      "duration": 0.15,
      "velocity": 0.75,
      "hand": "right"
    },
    {
      "midi": 64,
      "time": 25.2,
      "duration": 0.3,
      "velocity": 0.59,
      "hand": "right"
    },
    {
      "midi": 67,
      "time": 25.2,
      "duration": 0.285,
      "velocity": 0.56,
      "hand": "right"
    },
    {
      "midi": 72,
      "time": 25.2,
      "duration": 0.45,
      "velocity": 0.74,
      "hand": "right"
    },
    {
      "midi": 43,
      "time": 25.5,
      "duration": 0.3,
      "velocity": 0.87,
      "hand": "left"
    },
    {
      "midi": 46,
      "time": 25.5,
      "duration": 0.075,
      "velocity": 0.51,
      "hand": "left"
    },
    {
      "midi": 60,
      "time": 25.5,
      "duration": 0.075,
      "velocity": 0.58,
      "hand": "right"
    },
    {
      "midi": 63,
      "time": 25.5,
      "duration": 0.45,
      "velocity": 0.78,
      "hand": "right"
    },
    {
      "midi": 67,
      "time": 25.5,
      "duration": 0.45,
      "velocity": 0.73,
      "hand": "right"
    },
    {
      "midi": 38,
      "time": 25.65,
      "duration": 0.075,
      "velocity": 0.39,
      "hand": "left"
    },
    {
      "midi": 40,
      "time": 25.65,
      "duration": 0.075,
      "velocity": 0.54,
      "hand": "left"
    },
    {
      "midi": 36,
      "time": 25.8,
      "duration": 0.075,
      "velocity": 0.69,
      "hand": "left"
    },
    {
      "midi": 38,
      "time": 25.8,
      "duration": 0.075,
      "velocity": 0.39,
      "hand": "left"
    },
    {
      "midi": 38,
      "time": 26.1,
      "duration": 0.075,
      "velocity": 0.39,
      "hand": "left"
    },
    {
      "midi": 40,
      "time": 26.1,
      "duration": 0.075,
      "velocity": 0.56,
      "hand": "left"
    },
    {
      "midi": 67,
      "time": 26.1,
      "duration": 0.285,
      "velocity": 0.94,
      "hand": "right"
    },
    {
      "midi": 36,
      "time": 26.4,
      "duration": 0.585,
      "velocity": 0.82,
      "hand": "left"
    },
    {
      "midi": 42,
      "time": 26.4,
      "duration": 0.075,
      "velocity": 0.63,
      "hand": "left"
    },
    {
      "midi": 62,
      "time": 26.4,
      "duration": 0.435,
      "velocity": 0.72,
      "hand": "right"
    },
    {
      "midi": 64,
      "time": 26.4,
      "duration": 1.05,
      "velocity": 0.61,
      "hand": "right"
    },
    {
      "midi": 67,
      "time": 26.4,
      "duration": 0.435,
      "velocity": 0.57,
      "hand": "right"
    },
    {
      "midi": 72,
      "time": 26.4,
      "duration": 0.45,
      "velocity": 0.9,
      "hand": "right"
    },
    {
      "midi": 50,
      "time": 26.55,
      "duration": 0.075,
      "velocity": 0.81,
      "hand": "left"
    },
    {
      "midi": 46,
      "time": 26.7,
      "duration": 0.075,
      "velocity": 0.51,
      "hand": "left"
    },
    {
      "midi": 50,
      "time": 26.7,
      "duration": 0.075,
      "velocity": 0.81,
      "hand": "left"
    },
    {
      "midi": 48,
      "time": 26.85,
      "duration": 0.075,
      "velocity": 0.81,
      "hand": "left"
    },
    {
      "midi": 57,
      "time": 26.85,
      "duration": 0.075,
      "velocity": 0.46,
      "hand": "left"
    },
    {
      "midi": 62,
      "time": 26.85,
      "duration": 0.075,
      "velocity": 0.52,
      "hand": "right"
    },
    {
      "midi": 67,
      "time": 26.85,
      "duration": 0.135,
      "velocity": 0.53,
      "hand": "right"
    },
    {
      "midi": 36,
      "time": 27,
      "duration": 0.075,
      "velocity": 0.69,
      "hand": "left"
    },
    {
      "midi": 41,
      "time": 27,
      "duration": 0.075,
      "velocity": 0.63,
      "hand": "left"
    },
    {
      "midi": 60,
      "time": 27,
      "duration": 0.15,
      "velocity": 0.52,
      "hand": "right"
    },
    {
      "midi": 62,
      "time": 27,
      "duration": 0.285,
      "velocity": 0.54,
      "hand": "right"
    },
    {
      "midi": 67,
      "time": 27,
      "duration": 0.285,
      "velocity": 0.35,
      "hand": "right"
    },
    {
      "midi": 71,
      "time": 27,
      "duration": 0.3,
      "velocity": 0.78,
      "hand": "right"
    },
    {
      "midi": 47,
      "time": 27.15,
      "duration": 0.075,
      "velocity": 0.81,
      "hand": "left"
    },
    {
      "midi": 36,
      "time": 27.3,
      "duration": 0.3,
      "velocity": 0.76,
      "hand": "left"
    },
    {
      "midi": 46,
      "time": 27.3,
      "duration": 0.075,
      "velocity": 0.51,
      "hand": "left"
    },
    {
      "midi": 62,
      "time": 27.3,
      "duration": 0.075,
      "velocity": 0.63,
      "hand": "right"
    },
    {
      "midi": 67,
      "time": 27.3,
      "duration": 0.15,
      "velocity": 0.57,
      "hand": "right"
    },
    {
      "midi": 69,
      "time": 27.3,
      "duration": 0.285,
      "velocity": 0.78,
      "hand": "right"
    },
    {
      "midi": 45,
      "time": 27.45,
      "duration": 0.075,
      "velocity": 0.81,
      "hand": "left"
    },
    {
      "midi": 38,
      "time": 27.6,
      "duration": 0.075,
      "velocity": 0.39,
      "hand": "left"
    },
    {
      "midi": 40,
      "time": 27.6,
      "duration": 0.285,
      "velocity": 0.7,
      "hand": "left"
    },
    {
      "midi": 64,
      "time": 27.6,
      "duration": 0.75,
      "velocity": 0.59,
      "hand": "right"
    },
    {
      "midi": 67,
      "time": 27.6,
      "duration": 0.75,
      "velocity": 0.56,
      "hand": "right"
    },
    {
      "midi": 69,
      "time": 27.6,
      "duration": 0.75,
      "velocity": 0.59,
      "hand": "right"
    },
    {
      "midi": 38,
      "time": 27.9,
      "duration": 0.075,
      "velocity": 0.39,
      "hand": "left"
    },
    {
      "midi": 40,
      "time": 27.9,
      "duration": 0.075,
      "velocity": 0.54,
      "hand": "left"
    },
    {
      "midi": 62,
      "time": 27.9,
      "duration": 0.075,
      "velocity": 0.52,
      "hand": "right"
    },
    {
      "midi": 66,
      "time": 27.9,
      "duration": 0.15,
      "velocity": 0.53,
      "hand": "right"
    },
    {
      "midi": 36,
      "time": 28.2,
      "duration": 0.075,
      "velocity": 0.7,
      "hand": "left"
    },
    {
      "midi": 38,
      "time": 28.2,
      "duration": 0.075,
      "velocity": 0.39,
      "hand": "left"
    },
    {
      "midi": 62,
      "time": 28.2,
      "duration": 0.075,
      "velocity": 0.49,
      "hand": "right"
    },
    {
      "midi": 66,
      "time": 28.2,
      "duration": 0.15,
      "velocity": 0.5,
      "hand": "right"
    },
    {
      "midi": 38,
      "time": 28.35,
      "duration": 0.075,
      "velocity": 0.39,
      "hand": "left"
    },
    {
      "midi": 40,
      "time": 28.35,
      "duration": 0.075,
      "velocity": 0.54,
      "hand": "left"
    },
    {
      "midi": 38,
      "time": 28.5,
      "duration": 0.075,
      "velocity": 0.39,
      "hand": "left"
    },
    {
      "midi": 40,
      "time": 28.5,
      "duration": 0.285,
      "velocity": 0.61,
      "hand": "left"
    },
    {
      "midi": 62,
      "time": 28.5,
      "duration": 0.075,
      "velocity": 0.49,
      "hand": "right"
    },
    {
      "midi": 66,
      "time": 28.5,
      "duration": 0.15,
      "velocity": 0.52,
      "hand": "right"
    },
    {
      "midi": 69,
      "time": 28.5,
      "duration": 0.3,
      "velocity": 0.8,
      "hand": "right"
    },
    {
      "midi": 38,
      "time": 28.65,
      "duration": 0.075,
      "velocity": 0.39,
      "hand": "left"
    },
    {
      "midi": 38,
      "time": 28.8,
      "duration": 0.435,
      "velocity": 0.78,
      "hand": "left"
    },
    {
      "midi": 40,
      "time": 28.8,
      "duration": 0.075,
      "velocity": 0.53,
      "hand": "left"
    },
    {
      "midi": 60,
      "time": 28.8,
      "duration": 0.285,
      "velocity": 0.61,
      "hand": "right"
    },
    {
      "midi": 62,
      "time": 28.8,
      "duration": 0.285,
      "velocity": 0.58,
      "hand": "right"
    },
    {
      "midi": 65,
      "time": 28.8,
      "duration": 0.285,
      "velocity": 0.56,
      "hand": "right"
    },
    {
      "midi": 67,
      "time": 28.8,
      "duration": 0.3,
      "velocity": 0.8,
      "hand": "right"
    },
    {
      "midi": 46,
      "time": 29.1,
      "duration": 0.075,
      "velocity": 0.51,
      "hand": "left"
    },
    {
      "midi": 54,
      "time": 29.1,
      "duration": 0.075,
      "velocity": 0.43,
      "hand": "left"
    },
    {
      "midi": 60,
      "time": 29.1,
      "duration": 0.075,
      "velocity": 0.57,
      "hand": "right"
    },
    {
      "midi": 62,
      "time": 29.1,
      "duration": 0.075,
      "velocity": 0.57,
      "hand": "right"
    },
    {
      "midi": 65,
      "time": 29.1,
      "duration": 0.075,
      "velocity": 0.57,
      "hand": "right"
    },
    {
      "midi": 69,
      "time": 29.1,
      "duration": 0.3,
      "velocity": 0.74,
      "hand": "right"
    },
    {
      "midi": 38,
      "time": 29.25,
      "duration": 0.075,
      "velocity": 0.39,
      "hand": "left"
    },
    {
      "midi": 40,
      "time": 29.25,
      "duration": 0.075,
      "velocity": 0.54,
      "hand": "left"
    },
    {
      "midi": 36,
      "time": 29.4,
      "duration": 0.075,
      "velocity": 0.69,
      "hand": "left"
    },
    {
      "midi": 38,
      "time": 29.4,
      "duration": 0.075,
      "velocity": 0.39,
      "hand": "left"
    },
    {
      "midi": 61,
      "time": 29.4,
      "duration": 0.285,
      "velocity": 0.72,
      "hand": "right"
    },
    {
      "midi": 65,
      "time": 29.4,
      "duration": 0.285,
      "velocity": 0.57,
      "hand": "right"
    },
    {
      "midi": 67,
      "time": 29.4,
      "duration": 0.3,
      "velocity": 0.79,
      "hand": "right"
    },
    {
      "midi": 38,
      "time": 29.7,
      "duration": 0.075,
      "velocity": 0.39,
      "hand": "left"
    },
    {
      "midi": 61,
      "time": 29.7,
      "duration": 0.15,
      "velocity": 0.48,
      "hand": "right"
    },
    {
      "midi": 65,
      "time": 29.7,
      "duration": 0.3,
      "velocity": 0.78,
      "hand": "right"
    },
    {
      "midi": 36,
      "time": 30,
      "duration": 0.585,
      "velocity": 0.83,
      "hand": "left"
    },
    {
      "midi": 38,
      "time": 30,
      "duration": 0.075,
      "velocity": 0.39,
      "hand": "left"
    },
    {
      "midi": 60,
      "time": 30,
      "duration": 0.075,
      "velocity": 0.49,
      "hand": "right"
    },
    {
      "midi": 62,
      "time": 30,
      "duration": 0.435,
      "velocity": 0.72,
      "hand": "right"
    },
    {
      "midi": 64,
      "time": 30,
      "duration": 0.135,
      "velocity": 0.79,
      "hand": "right"
    },
    {
      "midi": 67,
      "time": 30,
      "duration": 0.435,
      "velocity": 0.63,
      "hand": "right"
    },
    {
      "midi": 55,
      "time": 30.15,
      "duration": 1.035,
      "velocity": 0.46,
      "hand": "left"
    },
    {
      "midi": 60,
      "time": 30.15,
      "duration": 1.035,
      "velocity": 0.72,
      "hand": "right"
    },
    {
      "midi": 64,
      "time": 30.15,
      "duration": 1.035,
      "velocity": 0.65,
      "hand": "right"
    },
    {
      "midi": 38,
      "time": 30.3,
      "duration": 0.075,
      "velocity": 0.39,
      "hand": "left"
    },
    {
      "midi": 40,
      "time": 30.3,
      "duration": 0.075,
      "velocity": 0.61,
      "hand": "left"
    },
    {
      "midi": 57,
      "time": 30.45,
      "duration": 0.075,
      "velocity": 0.57,
      "hand": "left"
    },
    {
      "midi": 62,
      "time": 30.45,
      "duration": 0.075,
      "velocity": 0.54,
      "hand": "right"
    },
    {
      "midi": 67,
      "time": 30.45,
      "duration": 0.135,
      "velocity": 0.56,
      "hand": "right"
    },
    {
      "midi": 36,
      "time": 30.6,
      "duration": 0.075,
      "velocity": 0.69,
      "hand": "left"
    },
    {
      "midi": 38,
      "time": 30.6,
      "duration": 0.075,
      "velocity": 0.39,
      "hand": "left"
    },
    {
      "midi": 62,
      "time": 30.6,
      "duration": 0.075,
      "velocity": 0.57,
      "hand": "right"
    },
    {
      "midi": 67,
      "time": 30.6,
      "duration": 0.15,
      "velocity": 0.45,
      "hand": "right"
    },
    {
      "midi": 38,
      "time": 30.75,
      "duration": 0.075,
      "velocity": 0.39,
      "hand": "left"
    },
    {
      "midi": 40,
      "time": 30.75,
      "duration": 0.075,
      "velocity": 0.57,
      "hand": "left"
    },
    {
      "midi": 38,
      "time": 30.9,
      "duration": 0.075,
      "velocity": 0.39,
      "hand": "left"
    },
    {
      "midi": 46,
      "time": 30.9,
      "duration": 0.075,
      "velocity": 0.51,
      "hand": "left"
    },
    {
      "midi": 62,
      "time": 30.9,
      "duration": 0.075,
      "velocity": 0.54,
      "hand": "right"
    },
    {
      "midi": 67,
      "time": 30.9,
      "duration": 0.15,
      "velocity": 0.5,
      "hand": "right"
    },
    {
      "midi": 38,
      "time": 31.05,
      "duration": 0.075,
      "velocity": 0.39,
      "hand": "left"
    },
    {
      "midi": 36,
      "time": 31.2,
      "duration": 0.585,
      "velocity": 0.77,
      "hand": "left"
    },
    {
      "midi": 38,
      "time": 31.2,
      "duration": 0.075,
      "velocity": 0.39,
      "hand": "left"
    },
    {
      "midi": 60,
      "time": 31.2,
      "duration": 1.05,
      "velocity": 0.56,
      "hand": "right"
    },
    {
      "midi": 62,
      "time": 31.2,
      "duration": 0.285,
      "velocity": 0.68,
      "hand": "right"
    },
    {
      "midi": 64,
      "time": 31.2,
      "duration": 0.585,
      "velocity": 0.58,
      "hand": "right"
    },
    {
      "midi": 67,
      "time": 31.2,
      "duration": 0.285,
      "velocity": 0.98,
      "hand": "right"
    },
    {
      "midi": 46,
      "time": 31.5,
      "duration": 0.075,
      "velocity": 0.51,
      "hand": "left"
    },
    {
      "midi": 54,
      "time": 31.5,
      "duration": 0.075,
      "velocity": 0.43,
      "hand": "left"
    },
    {
      "midi": 62,
      "time": 31.5,
      "duration": 0.075,
      "velocity": 0.65,
      "hand": "right"
    },
    {
      "midi": 67,
      "time": 31.5,
      "duration": 0.15,
      "velocity": 0.54,
      "hand": "right"
    },
    {
      "midi": 38,
      "time": 31.65,
      "duration": 0.075,
      "velocity": 0.39,
      "hand": "left"
    },
    {
      "midi": 40,
      "time": 31.65,
      "duration": 0.075,
      "velocity": 0.57,
      "hand": "left"
    },
    {
      "midi": 36,
      "time": 31.8,
      "duration": 0.075,
      "velocity": 0.61,
      "hand": "left"
    },
    {
      "midi": 38,
      "time": 31.8,
      "duration": 0.075,
      "velocity": 0.39,
      "hand": "left"
    },
    {
      "midi": 62,
      "time": 31.8,
      "duration": 0.075,
      "velocity": 0.61,
      "hand": "right"
    },
    {
      "midi": 64,
      "time": 31.8,
      "duration": 0.45,
      "velocity": 0.75,
      "hand": "right"
    },
    {
      "midi": 67,
      "time": 31.8,
      "duration": 0.075,
      "velocity": 0.51,
      "hand": "right"
    },
    {
      "midi": 38,
      "time": 32.1,
      "duration": 0.075,
      "velocity": 0.39,
      "hand": "left"
    },
    {
      "midi": 40,
      "time": 32.1,
      "duration": 0.075,
      "velocity": 0.61,
      "hand": "left"
    },
    {
      "midi": 62,
      "time": 32.1,
      "duration": 0.075,
      "velocity": 0.56,
      "hand": "right"
    },
    {
      "midi": 67,
      "time": 32.1,
      "duration": 0.15,
      "velocity": 0.59,
      "hand": "right"
    },
    {
      "midi": 38,
      "time": 32.4,
      "duration": 0.075,
      "velocity": 0.39,
      "hand": "left"
    },
    {
      "midi": 40,
      "time": 32.4,
      "duration": 0.285,
      "velocity": 0.77,
      "hand": "left"
    },
    {
      "midi": 64,
      "time": 32.4,
      "duration": 0.585,
      "velocity": 0.64,
      "hand": "right"
    },
    {
      "midi": 67,
      "time": 32.4,
      "duration": 1.05,
      "velocity": 0.9,
      "hand": "right"
    },
    {
      "midi": 69,
      "time": 32.4,
      "duration": 1.05,
      "velocity": 0.54,
      "hand": "right"
    },
    {
      "midi": 55,
      "time": 32.55,
      "duration": 0.15,
      "velocity": 0.52,
      "hand": "left"
    },
    {
      "midi": 59,
      "time": 32.55,
      "duration": 0.075,
      "velocity": 0.51,
      "hand": "left"
    },
    {
      "midi": 62,
      "time": 32.55,
      "duration": 0.075,
      "velocity": 0.51,
      "hand": "right"
    },
    {
      "midi": 66,
      "time": 32.55,
      "duration": 0.15,
      "velocity": 0.4,
      "hand": "right"
    },
    {
      "midi": 38,
      "time": 32.7,
      "duration": 0.075,
      "velocity": 0.39,
      "hand": "left"
    },
    {
      "midi": 40,
      "time": 32.7,
      "duration": 0.075,
      "velocity": 0.61,
      "hand": "left"
    },
    {
      "midi": 55,
      "time": 32.85,
      "duration": 0.075,
      "velocity": 0.51,
      "hand": "left"
    },
    {
      "midi": 59,
      "time": 32.85,
      "duration": 0.075,
      "velocity": 0.46,
      "hand": "left"
    },
    {
      "midi": 62,
      "time": 32.85,
      "duration": 0.075,
      "velocity": 0.49,
      "hand": "right"
    },
    {
      "midi": 66,
      "time": 32.85,
      "duration": 0.135,
      "velocity": 0.47,
      "hand": "right"
    },
    {
      "midi": 36,
      "time": 33,
      "duration": 0.075,
      "velocity": 0.72,
      "hand": "left"
    },
    {
      "midi": 38,
      "time": 33,
      "duration": 0.075,
      "velocity": 0.39,
      "hand": "left"
    },
    {
      "midi": 62,
      "time": 33,
      "duration": 0.075,
      "velocity": 0.5,
      "hand": "right"
    },
    {
      "midi": 64,
      "time": 33,
      "duration": 0.585,
      "velocity": 0.83,
      "hand": "right"
    },
    {
      "midi": 66,
      "time": 33,
      "duration": 0.15,
      "velocity": 0.43,
      "hand": "right"
    },
    {
      "midi": 38,
      "time": 33.15,
      "duration": 0.075,
      "velocity": 0.39,
      "hand": "left"
    },
    {
      "midi": 40,
      "time": 33.15,
      "duration": 0.075,
      "velocity": 0.54,
      "hand": "left"
    },
    {
      "midi": 38,
      "time": 33.3,
      "duration": 0.075,
      "velocity": 0.39,
      "hand": "left"
    },
    {
      "midi": 46,
      "time": 33.3,
      "duration": 0.075,
      "velocity": 0.51,
      "hand": "left"
    },
    {
      "midi": 62,
      "time": 33.3,
      "duration": 0.15,
      "velocity": 0.49,
      "hand": "right"
    },
    {
      "midi": 66,
      "time": 33.3,
      "duration": 0.15,
      "velocity": 0.19,
      "hand": "right"
    },
    {
      "midi": 38,
      "time": 33.45,
      "duration": 0.075,
      "velocity": 0.39,
      "hand": "left"
    },
    {
      "midi": 38,
      "time": 33.6,
      "duration": 0.435,
      "velocity": 0.8,
      "hand": "left"
    },
    {
      "midi": 40,
      "time": 33.6,
      "duration": 0.075,
      "velocity": 0.57,
      "hand": "left"
    },
    {
      "midi": 62,
      "time": 33.6,
      "duration": 0.285,
      "velocity": 0.73,
      "hand": "right"
    },
    {
      "midi": 65,
      "time": 33.6,
      "duration": 0.285,
      "velocity": 0.68,
      "hand": "right"
    },
    {
      "midi": 67,
      "time": 33.6,
      "duration": 0.285,
      "velocity": 0.98,
      "hand": "right"
    },
    {
      "midi": 46,
      "time": 33.9,
      "duration": 0.075,
      "velocity": 0.51,
      "hand": "left"
    },
    {
      "midi": 54,
      "time": 33.9,
      "duration": 0.075,
      "velocity": 0.43,
      "hand": "left"
    },
    {
      "midi": 60,
      "time": 33.9,
      "duration": 0.15,
      "velocity": 0.63,
      "hand": "right"
    },
    {
      "midi": 62,
      "time": 33.9,
      "duration": 0.15,
      "velocity": 0.61,
      "hand": "right"
    },
    {
      "midi": 65,
      "time": 33.9,
      "duration": 0.15,
      "velocity": 0.58,
      "hand": "right"
    },
    {
      "midi": 67,
      "time": 33.9,
      "duration": 0.15,
      "velocity": 0.97,
      "hand": "right"
    },
    {
      "midi": 38,
      "time": 34.05,
      "duration": 0.075,
      "velocity": 0.39,
      "hand": "left"
    },
    {
      "midi": 40,
      "time": 34.05,
      "duration": 0.075,
      "velocity": 0.65,
      "hand": "left"
    },
    {
      "midi": 36,
      "time": 34.2,
      "duration": 0.075,
      "velocity": 0.72,
      "hand": "left"
    },
    {
      "midi": 38,
      "time": 34.2,
      "duration": 0.075,
      "velocity": 0.39,
      "hand": "left"
    },
    {
      "midi": 62,
      "time": 34.2,
      "duration": 0.45,
      "velocity": 0.49,
      "hand": "right"
    },
    {
      "midi": 65,
      "time": 34.2,
      "duration": 0.285,
      "velocity": 0.68,
      "hand": "right"
    },
    {
      "midi": 72,
      "time": 34.2,
      "duration": 0.15,
      "velocity": 0.98,
      "hand": "right"
    },
    {
      "midi": 38,
      "time": 34.5,
      "duration": 0.075,
      "velocity": 0.39,
      "hand": "left"
    },
    {
      "midi": 40,
      "time": 34.5,
      "duration": 0.075,
      "velocity": 0.57,
      "hand": "left"
    },
    {
      "midi": 61,
      "time": 34.5,
      "duration": 0.15,
      "velocity": 0.53,
      "hand": "right"
    },
    {
      "midi": 65,
      "time": 34.5,
      "duration": 0.15,
      "velocity": 0.52,
      "hand": "right"
    },
    {
      "midi": 74,
      "time": 34.5,
      "duration": 0.3,
      "velocity": 0.88,
      "hand": "right"
    },
    {
      "midi": 36,
      "time": 34.8,
      "duration": 0.45,
      "velocity": 0.79,
      "hand": "left"
    },
    {
      "midi": 38,
      "time": 34.8,
      "duration": 0.075,
      "velocity": 0.39,
      "hand": "left"
    },
    {
      "midi": 62,
      "time": 34.8,
      "duration": 0.435,
      "velocity": 0.73,
      "hand": "right"
    },
    {
      "midi": 67,
      "time": 34.8,
      "duration": 0.435,
      "velocity": 0.68,
      "hand": "right"
    },
    {
      "midi": 76,
      "time": 34.8,
      "duration": 0.75,
      "velocity": 0.93,
      "hand": "right"
    },
    {
      "midi": 38,
      "time": 35.1,
      "duration": 0.075,
      "velocity": 0.39,
      "hand": "left"
    },
    {
      "midi": 40,
      "time": 35.1,
      "duration": 0.075,
      "velocity": 0.57,
      "hand": "left"
    },
    {
      "midi": 57,
      "time": 35.25,
      "duration": 0.075,
      "velocity": 0.54,
      "hand": "left"
    },
    {
      "midi": 62,
      "time": 35.25,
      "duration": 0.075,
      "velocity": 0.61,
      "hand": "right"
    },
    {
      "midi": 67,
      "time": 35.25,
      "duration": 0.135,
      "velocity": 0.56,
      "hand": "right"
    },
    {
      "midi": 36,
      "time": 35.4,
      "duration": 0.075,
      "velocity": 0.72,
      "hand": "left"
    },
    {
      "midi": 38,
      "time": 35.4,
      "duration": 0.075,
      "velocity": 0.39,
      "hand": "left"
    },
    {
      "midi": 62,
      "time": 35.4,
      "duration": 0.075,
      "velocity": 0.64,
      "hand": "right"
    },
    {
      "midi": 67,
      "time": 35.4,
      "duration": 0.15,
      "velocity": 0.54,
      "hand": "right"
    },
    {
      "midi": 38,
      "time": 35.55,
      "duration": 0.075,
      "velocity": 0.39,
      "hand": "left"
    },
    {
      "midi": 40,
      "time": 35.55,
      "duration": 0.075,
      "velocity": 0.68,
      "hand": "left"
    },
    {
      "midi": 38,
      "time": 35.7,
      "duration": 0.075,
      "velocity": 0.39,
      "hand": "left"
    },
    {
      "midi": 46,
      "time": 35.7,
      "duration": 0.075,
      "velocity": 0.51,
      "hand": "left"
    },
    {
      "midi": 62,
      "time": 35.7,
      "duration": 0.075,
      "velocity": 0.64,
      "hand": "right"
    },
    {
      "midi": 67,
      "time": 35.7,
      "duration": 0.15,
      "velocity": 0.5,
      "hand": "right"
    },
    {
      "midi": 74,
      "time": 35.7,
      "duration": 0.3,
      "velocity": 0.86,
      "hand": "right"
    },
    {
      "midi": 38,
      "time": 35.85,
      "duration": 0.075,
      "velocity": 0.39,
      "hand": "left"
    },
    {
      "midi": 52,
      "time": 35.85,
      "duration": 1.05,
      "velocity": 0.49,
      "hand": "left"
    },
    {
      "midi": 36,
      "time": 36,
      "duration": 0.585,
      "velocity": 0.78,
      "hand": "left"
    },
    {
      "midi": 38,
      "time": 36,
      "duration": 0.075,
      "velocity": 0.39,
      "hand": "left"
    },
    {
      "midi": 60,
      "time": 36,
      "duration": 1.05,
      "velocity": 0.57,
      "hand": "right"
    },
    {
      "midi": 62,
      "time": 36,
      "duration": 0.285,
      "velocity": 0.58,
      "hand": "right"
    },
    {
      "midi": 67,
      "time": 36,
      "duration": 0.585,
      "velocity": 0.55,
      "hand": "right"
    },
    {
      "midi": 72,
      "time": 36,
      "duration": 0.6,
      "velocity": 0.94,
      "hand": "right"
    },
    {
      "midi": 46,
      "time": 36.3,
      "duration": 0.075,
      "velocity": 0.51,
      "hand": "left"
    },
    {
      "midi": 54,
      "time": 36.3,
      "duration": 0.075,
      "velocity": 0.43,
      "hand": "left"
    },
    {
      "midi": 62,
      "time": 36.3,
      "duration": 0.075,
      "velocity": 0.57,
      "hand": "right"
    },
    {
      "midi": 38,
      "time": 36.45,
      "duration": 0.075,
      "velocity": 0.39,
      "hand": "left"
    },
    {
      "midi": 40,
      "time": 36.45,
      "duration": 0.075,
      "velocity": 0.59,
      "hand": "left"
    },
    {
      "midi": 36,
      "time": 36.6,
      "duration": 0.075,
      "velocity": 0.69,
      "hand": "left"
    },
    {
      "midi": 38,
      "time": 36.6,
      "duration": 0.075,
      "velocity": 0.39,
      "hand": "left"
    },
    {
      "midi": 62,
      "time": 36.6,
      "duration": 0.075,
      "velocity": 0.7,
      "hand": "right"
    },
    {
      "midi": 67,
      "time": 36.6,
      "duration": 0.15,
      "velocity": 0.61,
      "hand": "right"
    },
    {
      "midi": 38,
      "time": 36.9,
      "duration": 0.075,
      "velocity": 0.39,
      "hand": "left"
    },
    {
      "midi": 40,
      "time": 36.9,
      "duration": 0.075,
      "velocity": 0.56,
      "hand": "left"
    },
    {
      "midi": 62,
      "time": 36.9,
      "duration": 0.075,
      "velocity": 0.54,
      "hand": "right"
    },
    {
      "midi": 67,
      "time": 36.9,
      "duration": 0.285,
      "velocity": 0.97,
      "hand": "right"
    },
    {
      "midi": 36,
      "time": 37.2,
      "duration": 0.585,
      "velocity": 0.79,
      "hand": "left"
    },
    {
      "midi": 38,
      "time": 37.2,
      "duration": 0.075,
      "velocity": 0.39,
      "hand": "left"
    },
    {
      "midi": 60,
      "time": 37.2,
      "duration": 1.05,
      "velocity": 0.76,
      "hand": "right"
    },
    {
      "midi": 62,
      "time": 37.2,
      "duration": 0.435,
      "velocity": 0.75,
      "hand": "right"
    },
    {
      "midi": 67,
      "time": 37.2,
      "duration": 0.285,
      "velocity": 0.72,
      "hand": "right"
    },
    {
      "midi": 69,
      "time": 37.2,
      "duration": 0.3,
      "velocity": 0.78,
      "hand": "right"
    },
    {
      "midi": 40,
      "time": 37.35,
      "duration": 0.075,
      "velocity": 0.61,
      "hand": "left"
    },
    {
      "midi": 38,
      "time": 37.5,
      "duration": 0.075,
      "velocity": 0.39,
      "hand": "left"
    },
    {
      "midi": 46,
      "time": 37.5,
      "duration": 0.075,
      "velocity": 0.51,
      "hand": "left"
    },
    {
      "midi": 67,
      "time": 37.5,
      "duration": 0.135,
      "velocity": 0.81,
      "hand": "right"
    },
    {
      "midi": 57,
      "time": 37.65,
      "duration": 0.075,
      "velocity": 0.54,
      "hand": "left"
    },
    {
      "midi": 62,
      "time": 37.65,
      "duration": 0.075,
      "velocity": 0.56,
      "hand": "right"
    },
    {
      "midi": 67,
      "time": 37.65,
      "duration": 0.135,
      "velocity": 0.52,
      "hand": "right"
    },
    {
      "midi": 36,
      "time": 37.8,
      "duration": 0.075,
      "velocity": 0.69,
      "hand": "left"
    },
    {
      "midi": 38,
      "time": 37.8,
      "duration": 0.075,
      "velocity": 0.39,
      "hand": "left"
    },
    {
      "midi": 62,
      "time": 37.8,
      "duration": 0.15,
      "velocity": 0.61,
      "hand": "right"
    },
    {
      "midi": 64,
      "time": 37.8,
      "duration": 0.3,
      "velocity": 0.81,
      "hand": "right"
    },
    {
      "midi": 67,
      "time": 37.8,
      "duration": 0.15,
      "velocity": 0.51,
      "hand": "right"
    },
    {
      "midi": 38,
      "time": 37.95,
      "duration": 0.075,
      "velocity": 0.39,
      "hand": "left"
    },
    {
      "midi": 36,
      "time": 38.1,
      "duration": 0.3,
      "velocity": 0.8,
      "hand": "left"
    },
    {
      "midi": 38,
      "time": 38.1,
      "duration": 0.075,
      "velocity": 0.39,
      "hand": "left"
    },
    {
      "midi": 62,
      "time": 38.1,
      "duration": 0.15,
      "velocity": 0.5,
      "hand": "right"
    },
    {
      "midi": 67,
      "time": 38.1,
      "duration": 0.15,
      "velocity": 0.52,
      "hand": "right"
    },
    {
      "midi": 38,
      "time": 38.25,
      "duration": 0.075,
      "velocity": 0.39,
      "hand": "left"
    },
    {
      "midi": 40,
      "time": 38.4,
      "duration": 0.435,
      "velocity": 0.97,
      "hand": "left"
    },
    {
      "midi": 42,
      "time": 38.4,
      "duration": 0.075,
      "velocity": 0.63,
      "hand": "left"
    },
    {
      "midi": 64,
      "time": 38.4,
      "duration": 0.585,
      "velocity": 0.64,
      "hand": "right"
    },
    {
      "midi": 67,
      "time": 38.4,
      "duration": 0.285,
      "velocity": 0.58,
      "hand": "right"
    },
    {
      "midi": 69,
      "time": 38.4,
      "duration": 0.6,
      "velocity": 0.78,
      "hand": "right"
    },
    {
      "midi": 46,
      "time": 38.7,
      "duration": 0.075,
      "velocity": 0.51,
      "hand": "left"
    },
    {
      "midi": 54,
      "time": 38.7,
      "duration": 0.075,
      "velocity": 0.43,
      "hand": "left"
    },
    {
      "midi": 62,
      "time": 38.7,
      "duration": 0.075,
      "velocity": 0.43,
      "hand": "right"
    },
    {
      "midi": 67,
      "time": 38.7,
      "duration": 0.3,
      "velocity": 0.8,
      "hand": "right"
    },
    {
      "midi": 38,
      "time": 38.85,
      "duration": 0.075,
      "velocity": 0.39,
      "hand": "left"
    },
    {
      "midi": 40,
      "time": 38.85,
      "duration": 0.075,
      "velocity": 0.56,
      "hand": "left"
    },
    {
      "midi": 36,
      "time": 39,
      "duration": 0.075,
      "velocity": 0.72,
      "hand": "left"
    },
    {
      "midi": 38,
      "time": 39,
      "duration": 0.075,
      "velocity": 0.39,
      "hand": "left"
    },
    {
      "midi": 62,
      "time": 39,
      "duration": 0.15,
      "velocity": 0.57,
      "hand": "right"
    },
    {
      "midi": 64,
      "time": 39,
      "duration": 0.3,
      "velocity": 0.93,
      "hand": "right"
    },
    {
      "midi": 66,
      "time": 39,
      "duration": 0.15,
      "velocity": 0.55,
      "hand": "right"
    },
    {
      "midi": 38,
      "time": 39.3,
      "duration": 0.075,
      "velocity": 0.39,
      "hand": "left"
    },
    {
      "midi": 40,
      "time": 39.3,
      "duration": 0.15,
      "velocity": 0.76,
      "hand": "left"
    },
    {
      "midi": 62,
      "time": 39.3,
      "duration": 0.15,
      "velocity": 0.51,
      "hand": "right"
    },
    {
      "midi": 67,
      "time": 39.3,
      "duration": 0.3,
      "velocity": 0.92,
      "hand": "right"
    },
    {
      "midi": 38,
      "time": 39.6,
      "duration": 0.585,
      "velocity": 0.78,
      "hand": "left"
    },
    {
      "midi": 42,
      "time": 39.6,
      "duration": 0.075,
      "velocity": 0.63,
      "hand": "left"
    },
    {
      "midi": 60,
      "time": 39.6,
      "duration": 0.285,
      "velocity": 0.74,
      "hand": "right"
    },
    {
      "midi": 62,
      "time": 39.6,
      "duration": 0.285,
      "velocity": 0.72,
      "hand": "right"
    },
    {
      "midi": 65,
      "time": 39.6,
      "duration": 0.285,
      "velocity": 0.64,
      "hand": "right"
    },
    {
      "midi": 69,
      "time": 39.6,
      "duration": 0.15,
      "velocity": 0.81,
      "hand": "right"
    },
    {
      "midi": 55,
      "time": 39.9,
      "duration": 0.15,
      "velocity": 0.58,
      "hand": "left"
    },
    {
      "midi": 60,
      "time": 39.9,
      "duration": 0.15,
      "velocity": 0.64,
      "hand": "right"
    },
    {
      "midi": 62,
      "time": 39.9,
      "duration": 0.15,
      "velocity": 0.64,
      "hand": "right"
    },
    {
      "midi": 65,
      "time": 39.9,
      "duration": 0.15,
      "velocity": 0.64,
      "hand": "right"
    },
    {
      "midi": 69,
      "time": 39.9,
      "duration": 0.3,
      "velocity": 0.78,
      "hand": "right"
    },
    {
      "midi": 36,
      "time": 40.2,
      "duration": 0.075,
      "velocity": 0.69,
      "hand": "left"
    },
    {
      "midi": 38,
      "time": 40.2,
      "duration": 0.075,
      "velocity": 0.39,
      "hand": "left"
    },
    {
      "midi": 62,
      "time": 40.2,
      "duration": 0.45,
      "velocity": 0.56,
      "hand": "right"
    },
    {
      "midi": 65,
      "time": 40.2,
      "duration": 0.285,
      "velocity": 0.5,
      "hand": "right"
    },
    {
      "midi": 71,
      "time": 40.2,
      "duration": 0.15,
      "velocity": 0.8,
      "hand": "right"
    },
    {
      "midi": 37,
      "time": 40.5,
      "duration": 0.3,
      "velocity": 0.77,
      "hand": "left"
    },
    {
      "midi": 55,
      "time": 40.5,
      "duration": 0.15,
      "velocity": 0.64,
      "hand": "left"
    },
    {
      "midi": 61,
      "time": 40.5,
      "duration": 0.15,
      "velocity": 0.55,
      "hand": "right"
    },
    {
      "midi": 65,
      "time": 40.5,
      "duration": 0.15,
      "velocity": 0.57,
      "hand": "right"
    },
    {
      "midi": 71,
      "time": 40.5,
      "duration": 0.15,
      "velocity": 0.8,
      "hand": "right"
    },
    {
      "midi": 36,
      "time": 40.8,
      "duration": 0.3,
      "velocity": 0.87,
      "hand": "left"
    },
    {
      "midi": 38,
      "time": 40.8,
      "duration": 0.075,
      "velocity": 0.39,
      "hand": "left"
    },
    {
      "midi": 62,
      "time": 40.8,
      "duration": 0.435,
      "velocity": 0.72,
      "hand": "right"
    },
    {
      "midi": 67,
      "time": 40.8,
      "duration": 0.435,
      "velocity": 0.68,
      "hand": "right"
    },
    {
      "midi": 72,
      "time": 40.8,
      "duration": 0.75,
      "velocity": 0.94,
      "hand": "right"
    },
    {
      "midi": 46,
      "time": 41.1,
      "duration": 0.075,
      "velocity": 0.51,
      "hand": "left"
    },
    {
      "midi": 54,
      "time": 41.1,
      "duration": 0.075,
      "velocity": 0.43,
      "hand": "left"
    },
    {
      "midi": 38,
      "time": 41.25,
      "duration": 0.075,
      "velocity": 0.39,
      "hand": "left"
    },
    {
      "midi": 40,
      "time": 41.25,
      "duration": 0.075,
      "velocity": 0.54,
      "hand": "left"
    },
    {
      "midi": 62,
      "time": 41.25,
      "duration": 0.075,
      "velocity": 0.65,
      "hand": "right"
    },
    {
      "midi": 67,
      "time": 41.25,
      "duration": 0.15,
      "velocity": 0.57,
      "hand": "right"
    },
    {
      "midi": 36,
      "time": 41.4,
      "duration": 0.075,
      "velocity": 0.72,
      "hand": "left"
    },
    {
      "midi": 38,
      "time": 41.4,
      "duration": 0.075,
      "velocity": 0.39,
      "hand": "left"
    },
    {
      "midi": 38,
      "time": 41.7,
      "duration": 0.075,
      "velocity": 0.39,
      "hand": "left"
    },
    {
      "midi": 40,
      "time": 41.7,
      "duration": 0.075,
      "velocity": 0.55,
      "hand": "left"
    },
    {
      "midi": 62,
      "time": 41.7,
      "duration": 0.075,
      "velocity": 0.72,
      "hand": "right"
    },
    {
      "midi": 67,
      "time": 41.7,
      "duration": 0.285,
      "velocity": 0.96,
      "hand": "right"
    },
    {
      "midi": 36,
      "time": 42,
      "duration": 0.585,
      "velocity": 0.79,
      "hand": "left"
    },
    {
      "midi": 38,
      "time": 42,
      "duration": 0.075,
      "velocity": 0.39,
      "hand": "left"
    },
    {
      "midi": 60,
      "time": 42,
      "duration": 0.885,
      "velocity": 0.72,
      "hand": "right"
    },
    {
      "midi": 62,
      "time": 42,
      "duration": 0.285,
      "velocity": 0.73,
      "hand": "right"
    },
    {
      "midi": 67,
      "time": 42,
      "duration": 0.285,
      "velocity": 0.7,
      "hand": "right"
    },
    {
      "midi": 69,
      "time": 42,
      "duration": 0.3,
      "velocity": 0.8,
      "hand": "right"
    },
    {
      "midi": 38,
      "time": 42.3,
      "duration": 0.075,
      "velocity": 0.39,
      "hand": "left"
    },
    {
      "midi": 40,
      "time": 42.3,
      "duration": 0.075,
      "velocity": 0.63,
      "hand": "left"
    },
    {
      "midi": 62,
      "time": 42.3,
      "duration": 0.075,
      "velocity": 0.73,
      "hand": "right"
    },
    {
      "midi": 67,
      "time": 42.3,
      "duration": 0.285,
      "velocity": 0.78,
      "hand": "right"
    },
    {
      "midi": 36,
      "time": 42.6,
      "duration": 0.075,
      "velocity": 0.69,
      "hand": "left"
    },
    {
      "midi": 38,
      "time": 42.6,
      "duration": 0.075,
      "velocity": 0.39,
      "hand": "left"
    },
    {
      "midi": 62,
      "time": 42.6,
      "duration": 0.15,
      "velocity": 0.74,
      "hand": "right"
    },
    {
      "midi": 64,
      "time": 42.6,
      "duration": 0.3,
      "velocity": 0.96,
      "hand": "right"
    },
    {
      "midi": 67,
      "time": 42.6,
      "duration": 0.15,
      "velocity": 0.72,
      "hand": "right"
    },
    {
      "midi": 38,
      "time": 42.75,
      "duration": 0.075,
      "velocity": 0.39,
      "hand": "left"
    },
    {
      "midi": 40,
      "time": 42.75,
      "duration": 0.075,
      "velocity": 0.57,
      "hand": "left"
    },
    {
      "midi": 36,
      "time": 42.9,
      "duration": 0.3,
      "velocity": 0.8,
      "hand": "left"
    },
    {
      "midi": 38,
      "time": 42.9,
      "duration": 0.075,
      "velocity": 0.39,
      "hand": "left"
    },
    {
      "midi": 60,
      "time": 42.9,
      "duration": 0.075,
      "velocity": 0.54,
      "hand": "right"
    },
    {
      "midi": 62,
      "time": 42.9,
      "duration": 0.15,
      "velocity": 0.5,
      "hand": "right"
    },
    {
      "midi": 67,
      "time": 42.9,
      "duration": 0.285,
      "velocity": 0.92,
      "hand": "right"
    },
    {
      "midi": 38,
      "time": 43.05,
      "duration": 0.075,
      "velocity": 0.39,
      "hand": "left"
    },
    {
      "midi": 59,
      "time": 43.05,
      "duration": 0.135,
      "velocity": 0.43,
      "hand": "left"
    },
    {
      "midi": 38,
      "time": 43.2,
      "duration": 0.075,
      "velocity": 0.39,
      "hand": "left"
    },
    {
      "midi": 40,
      "time": 43.2,
      "duration": 0.435,
      "velocity": 0.97,
      "hand": "left"
    },
    {
      "midi": 64,
      "time": 43.2,
      "duration": 0.585,
      "velocity": 0.64,
      "hand": "right"
    },
    {
      "midi": 67,
      "time": 43.2,
      "duration": 0.285,
      "velocity": 0.58,
      "hand": "right"
    },
    {
      "midi": 69,
      "time": 43.2,
      "duration": 0.9,
      "velocity": 0.78,
      "hand": "right"
    },
    {
      "midi": 46,
      "time": 43.5,
      "duration": 0.075,
      "velocity": 0.51,
      "hand": "left"
    },
    {
      "midi": 54,
      "time": 43.5,
      "duration": 0.075,
      "velocity": 0.43,
      "hand": "left"
    },
    {
      "midi": 67,
      "time": 43.5,
      "duration": 0.3,
      "velocity": 0.78,
      "hand": "right"
    },
    {
      "midi": 38,
      "time": 43.65,
      "duration": 0.075,
      "velocity": 0.39,
      "hand": "left"
    },
    {
      "midi": 40,
      "time": 43.65,
      "duration": 0.075,
      "velocity": 0.72,
      "hand": "left"
    },
    {
      "midi": 62,
      "time": 43.65,
      "duration": 0.135,
      "velocity": 0.48,
      "hand": "right"
    },
    {
      "midi": 66,
      "time": 43.65,
      "duration": 0.135,
      "velocity": 0.51,
      "hand": "right"
    },
    {
      "midi": 36,
      "time": 43.8,
      "duration": 0.075,
      "velocity": 0.54,
      "hand": "left"
    },
    {
      "midi": 38,
      "time": 43.8,
      "duration": 0.075,
      "velocity": 0.39,
      "hand": "left"
    },
    {
      "midi": 62,
      "time": 43.8,
      "duration": 0.285,
      "velocity": 0.56,
      "hand": "right"
    },
    {
      "midi": 64,
      "time": 43.8,
      "duration": 0.3,
      "velocity": 0.86,
      "hand": "right"
    },
    {
      "midi": 66,
      "time": 43.8,
      "duration": 0.15,
      "velocity": 0.54,
      "hand": "right"
    },
    {
      "midi": 38,
      "time": 44.1,
      "duration": 0.075,
      "velocity": 0.39,
      "hand": "left"
    },
    {
      "midi": 40,
      "time": 44.1,
      "duration": 0.15,
      "velocity": 0.76,
      "hand": "left"
    },
    {
      "midi": 62,
      "time": 44.1,
      "duration": 0.15,
      "velocity": 0.5,
      "hand": "right"
    },
    {
      "midi": 67,
      "time": 44.1,
      "duration": 0.3,
      "velocity": 0.87,
      "hand": "right"
    },
    {
      "midi": 38,
      "time": 44.4,
      "duration": 0.585,
      "velocity": 0.78,
      "hand": "left"
    },
    {
      "midi": 42,
      "time": 44.4,
      "duration": 0.075,
      "velocity": 0.63,
      "hand": "left"
    },
    {
      "midi": 60,
      "time": 44.4,
      "duration": 0.285,
      "velocity": 0.74,
      "hand": "right"
    },
    {
      "midi": 62,
      "time": 44.4,
      "duration": 0.285,
      "velocity": 0.69,
      "hand": "right"
    },
    {
      "midi": 65,
      "time": 44.4,
      "duration": 0.285,
      "velocity": 0.7,
      "hand": "right"
    },
    {
      "midi": 69,
      "time": 44.4,
      "duration": 0.15,
      "velocity": 0.88,
      "hand": "right"
    },
    {
      "midi": 55,
      "time": 44.7,
      "duration": 0.15,
      "velocity": 0.64,
      "hand": "left"
    },
    {
      "midi": 60,
      "time": 44.7,
      "duration": 0.15,
      "velocity": 0.72,
      "hand": "right"
    },
    {
      "midi": 62,
      "time": 44.7,
      "duration": 0.15,
      "velocity": 0.65,
      "hand": "right"
    },
    {
      "midi": 65,
      "time": 44.7,
      "duration": 0.15,
      "velocity": 0.68,
      "hand": "right"
    },
    {
      "midi": 69,
      "time": 44.7,
      "duration": 0.3,
      "velocity": 0.82,
      "hand": "right"
    },
    {
      "midi": 36,
      "time": 45,
      "duration": 0.075,
      "velocity": 0.7,
      "hand": "left"
    },
    {
      "midi": 38,
      "time": 45,
      "duration": 0.075,
      "velocity": 0.39,
      "hand": "left"
    },
    {
      "midi": 62,
      "time": 45,
      "duration": 0.3,
      "velocity": 0.51,
      "hand": "right"
    },
    {
      "midi": 65,
      "time": 45,
      "duration": 0.285,
      "velocity": 0.54,
      "hand": "right"
    },
    {
      "midi": 71,
      "time": 45,
      "duration": 0.15,
      "velocity": 0.8,
      "hand": "right"
    },
    {
      "midi": 37,
      "time": 45.3,
      "duration": 0.3,
      "velocity": 0.77,
      "hand": "left"
    },
    {
      "midi": 55,
      "time": 45.3,
      "duration": 0.15,
      "velocity": 0.45,
      "hand": "left"
    },
    {
      "midi": 61,
      "time": 45.3,
      "duration": 0.15,
      "velocity": 0.45,
      "hand": "right"
    },
    {
      "midi": 65,
      "time": 45.3,
      "duration": 0.15,
      "velocity": 0.38,
      "hand": "right"
    },
    {
      "midi": 71,
      "time": 45.3,
      "duration": 0.15,
      "velocity": 0.82,
      "hand": "right"
    },
    {
      "midi": 36,
      "time": 45.6,
      "duration": 0.3,
      "velocity": 0.87,
      "hand": "left"
    },
    {
      "midi": 38,
      "time": 45.6,
      "duration": 0.075,
      "velocity": 0.39,
      "hand": "left"
    },
    {
      "midi": 62,
      "time": 45.6,
      "duration": 0.15,
      "velocity": 0.75,
      "hand": "right"
    },
    {
      "midi": 64,
      "time": 45.6,
      "duration": 0.15,
      "velocity": 0.52,
      "hand": "right"
    },
    {
      "midi": 67,
      "time": 45.6,
      "duration": 0.15,
      "velocity": 0.52,
      "hand": "right"
    },
    {
      "midi": 72,
      "time": 45.6,
      "duration": 0.3,
      "velocity": 0.79,
      "hand": "right"
    },
    {
      "midi": 38,
      "time": 45.9,
      "duration": 0.075,
      "velocity": 0.17,
      "hand": "left"
    },
    {
      "midi": 38,
      "time": 46.05,
      "duration": 0.075,
      "velocity": 0.17,
      "hand": "left"
    },
    {
      "midi": 47,
      "time": 46.05,
      "duration": 0.075,
      "velocity": 0.56,
      "hand": "left"
    },
    {
      "midi": 38,
      "time": 46.2,
      "duration": 0.075,
      "velocity": 0.5,
      "hand": "left"
    },
    {
      "midi": 40,
      "time": 46.2,
      "duration": 0.075,
      "velocity": 0.59,
      "hand": "left"
    },
    {
      "midi": 36,
      "time": 46.35,
      "duration": 0.075,
      "velocity": 0.59,
      "hand": "left"
    },
    {
      "midi": 38,
      "time": 46.35,
      "duration": 0.075,
      "velocity": 0.2,
      "hand": "left"
    },
    {
      "midi": 38,
      "time": 46.5,
      "duration": 0.075,
      "velocity": 0.5,
      "hand": "left"
    },
    {
      "midi": 40,
      "time": 46.65,
      "duration": 0.075,
      "velocity": 0.81,
      "hand": "left"
    },
    {
      "midi": 36,
      "time": 46.8,
      "duration": 1.2,
      "velocity": 0.87,
      "hand": "left"
    },
    {
      "midi": 38,
      "time": 46.8,
      "duration": 0.075,
      "velocity": 0.51,
      "hand": "left"
    },
    {
      "midi": 64,
      "time": 46.8,
      "duration": 1.2,
      "velocity": 0.76,
      "hand": "right"
    },
    {
      "midi": 67,
      "time": 46.8,
      "duration": 1.2,
      "velocity": 0.76,
      "hand": "right"
    },
    {
      "midi": 71,
      "time": 46.8,
      "duration": 0.9,
      "velocity": 0.72,
      "hand": "right"
    },
    {
      "midi": 74,
      "time": 46.8,
      "duration": 0.9,
      "velocity": 0.72,
      "hand": "right"
    }
  ]
}
