{
  "id": "etude-a-mollchopin",
  "title": "Estudo em Lá Menor",
  "artist": "Frédéric Chopin",
  "difficulty": "Difícil",
  "bpm": 144,
  "duration": 83,
  "category": "Clássicos",
  "isPremium": true,
  "coverUrl": "/images/covers/placeholder.png",
  "notes": [
    {
      "midi": 45,
      "time": 0,
      "duration": 0.208,
      "velocity": 0.71,
      "hand": "left"
    },
    {
      "midi": 60,
      "time": 0,
      "duration": 0.104,
      "velocity": 0.71,
      "hand": "right"
    },
    {
      "midi": 64,
      "time": 0,
      "duration": 0.104,
      "velocity": 0.71,
      "hand": "right"
    },
    {
      "midi": 70,
      "time": 0.104,
      "duration": 0.104,
      "velocity": 0.71,
      "hand": "right"
    },
    {
      "midi": 72,
      "time": 0.313,
      "duration": 0.104,
      "velocity": 0.71,
      "hand": "right"
    },
    {
      "midi": 52,
      "time": 0.417,
      "duration": 0.208,
      "velocity": 0.71,
      "hand": "left"
    },
    {
      "midi": 57,
      "time": 0.417,
      "duration": 0.208,
      "velocity": 0.71,
      "hand": "left"
    },
    {
      "midi": 64,
      "time": 0.417,
      "duration": 0.104,
      "velocity": 0.71,
      "hand": "right"
    },
    {
      "midi": 69,
      "time": 0.417,
      "duration": 0.104,
      "velocity": 0.71,
      "hand": "right"
    },
    {
      "midi": 74,
      "time": 0.521,
      "duration": 0.104,
      "velocity": 0.71,
      "hand": "right"
    },
    {
      "midi": 76,
      "time": 0.729,
      "duration": 0.104,
      "velocity": 0.71,
      "hand": "right"
    },
    {
      "midi": 45,
      "time": 0.833,
      "duration": 0.208,
      "velocity": 0.71,
      "hand": "left"
    },
    {
      "midi": 69,
      "time": 0.833,
      "duration": 0.104,
      "velocity": 0.71,
      "hand": "right"
    },
    {
      "midi": 74,
      "time": 0.833,
      "duration": 0.104,
      "velocity": 0.71,
      "hand": "right"
    },
    {
      "midi": 78,
      "time": 0.938,
      "duration": 0.104,
      "velocity": 0.71,
      "hand": "right"
    },
    {
      "midi": 80,
      "time": 1.146,
      "duration": 0.104,
      "velocity": 0.71,
      "hand": "right"
    },
    {
      "midi": 53,
      "time": 1.25,
      "duration": 0.208,
      "velocity": 0.71,
      "hand": "left"
    },
    {
      "midi": 57,
      "time": 1.25,
      "duration": 0.208,
      "velocity": 0.71,
      "hand": "left"
    },
    {
      "midi": 74,
      "time": 1.25,
      "duration": 0.104,
      "velocity": 0.71,
      "hand": "right"
    },
    {
      "midi": 77,
      "time": 1.25,
      "duration": 0.104,
      "velocity": 0.71,
      "hand": "right"
    },
    {
      "midi": 82,
      "time": 1.354,
      "duration": 0.104,
      "velocity": 0.71,
      "hand": "right"
    },
    {
      "midi": 84,
      "time": 1.563,
      "duration": 0.104,
      "velocity": 0.71,
      "hand": "right"
    },
    {
      "midi": 45,
      "time": 1.667,
      "duration": 0.208,
      "velocity": 0.71,
      "hand": "left"
    },
    {
      "midi": 76,
      "time": 1.667,
      "duration": 0.104,
      "velocity": 0.71,
      "hand": "right"
    },
    {
      "midi": 81,
      "time": 1.667,
      "duration": 0.104,
      "velocity": 0.71,
      "hand": "right"
    },
    {
      "midi": 74,
      "time": 1.771,
      "duration": 0.104,
      "velocity": 0.71,
      "hand": "right"
    },
    {
      "midi": 52,
      "time": 2.083,
      "duration": 0.208,
      "velocity": 0.71,
      "hand": "left"
    },
    {
      "midi": 57,
      "time": 2.083,
      "duration": 0.208,
      "velocity": 0.71,
      "hand": "left"
    },
    {
      "midi": 77,
      "time": 2.083,
      "duration": 0.104,
      "velocity": 0.71,
      "hand": "right"
    },
    {
      "midi": 81,
      "time": 2.083,
      "duration": 0.104,
      "velocity": 0.71,
      "hand": "right"
    },
    {
      "midi": 84,
      "time": 2.083,
      "duration": 0.104,
      "velocity": 0.71,
      "hand": "right"
    },
    {
      "midi": 75,
      "time": 2.292,
      "duration": 0.104,
      "velocity": 0.71,
      "hand": "right"
    },
    {
      "midi": 57,
      "time": 2.5,
      "duration": 0.208,
      "velocity": 0.71,
      "hand": "left"
    },
    {
      "midi": 73,
      "time": 2.5,
      "duration": 0.104,
      "velocity": 0.71,
      "hand": "right"
    },
    {
      "midi": 76,
      "time": 2.5,
      "duration": 0.104,
      "velocity": 0.71,
      "hand": "right"
    },
    {
      "midi": 81,
      "time": 2.5,
      "duration": 0.104,
      "velocity": 0.71,
      "hand": "right"
    },
    {
      "midi": 84,
      "time": 2.604,
      "duration": 0.104,
      "velocity": 0.71,
      "hand": "right"
    },
    {
      "midi": 83,
      "time": 2.708,
      "duration": 0.104,
      "velocity": 0.71,
      "hand": "right"
    },
    {
      "midi": 72,
      "time": 2.917,
      "duration": 0.104,
      "velocity": 0.71,
      "hand": "right"
    },
    {
      "midi": 76,
      "time": 2.917,
      "duration": 0.104,
      "velocity": 0.71,
      "hand": "right"
    },
    {
      "midi": 81,
      "time": 2.917,
      "duration": 0.104,
      "velocity": 0.71,
      "hand": "right"
    },
    {
      "midi": 83,
      "time": 3.125,
      "duration": 0.104,
      "velocity": 0.71,
      "hand": "right"
    },
    {
      "midi": 81,
      "time": 3.229,
      "duration": 0.104,
      "velocity": 0.71,
      "hand": "right"
    },
    {
      "midi": 40,
      "time": 3.333,
      "duration": 0.208,
      "velocity": 0.71,
      "hand": "left"
    },
    {
      "midi": 71,
      "time": 3.333,
      "duration": 0.104,
      "velocity": 0.71,
      "hand": "right"
    },
    {
      "midi": 76,
      "time": 3.333,
      "duration": 0.104,
      "velocity": 0.71,
      "hand": "right"
    },
    {
      "midi": 80,
      "time": 3.333,
      "duration": 0.104,
      "velocity": 0.71,
      "hand": "right"
    },
    {
      "midi": 78,
      "time": 3.542,
      "duration": 0.104,
      "velocity": 0.71,
      "hand": "right"
    },
    {
      "midi": 52,
      "time": 3.75,
      "duration": 0.208,
      "velocity": 0.71,
      "hand": "left"
    },
    {
      "midi": 59,
      "time": 3.75,
      "duration": 0.208,
      "velocity": 0.71,
      "hand": "left"
    },
    {
      "midi": 68,
      "time": 3.75,
      "duration": 0.104,
      "velocity": 0.71,
      "hand": "right"
    },
    {
      "midi": 71,
      "time": 3.75,
      "duration": 0.104,
      "velocity": 0.71,
      "hand": "right"
    },
    {
      "midi": 76,
      "time": 3.75,
      "duration": 0.104,
      "velocity": 0.71,
      "hand": "right"
    },
    {
      "midi": 77,
      "time": 3.958,
      "duration": 0.104,
      "velocity": 0.71,
      "hand": "right"
    },
    {
      "midi": 45,
      "time": 4.167,
      "duration": 0.208,
      "velocity": 0.71,
      "hand": "left"
    },
    {
      "midi": 69,
      "time": 4.167,
      "duration": 0.104,
      "velocity": 0.71,
      "hand": "right"
    },
    {
      "midi": 72,
      "time": 4.167,
      "duration": 0.104,
      "velocity": 0.71,
      "hand": "right"
    },
    {
      "midi": 75,
      "time": 4.167,
      "duration": 0.104,
      "velocity": 0.71,
      "hand": "right"
    },
    {
      "midi": 73,
      "time": 4.375,
      "duration": 0.104,
      "velocity": 0.71,
      "hand": "right"
    },
    {
      "midi": 52,
      "time": 4.583,
      "duration": 0.208,
      "velocity": 0.71,
      "hand": "left"
    },
    {
      "midi": 57,
      "time": 4.583,
      "duration": 0.208,
      "velocity": 0.71,
      "hand": "left"
    },
    {
      "midi": 64,
      "time": 4.583,
      "duration": 0.104,
      "velocity": 0.71,
      "hand": "right"
    },
    {
      "midi": 69,
      "time": 4.583,
      "duration": 0.104,
      "velocity": 0.71,
      "hand": "right"
    },
    {
      "midi": 72,
      "time": 4.688,
      "duration": 0.104,
      "velocity": 0.71,
      "hand": "right"
    },
    {
      "midi": 74,
      "time": 4.792,
      "duration": 0.104,
      "velocity": 0.71,
      "hand": "right"
    },
    {
      "midi": 72,
      "time": 4.896,
      "duration": 0.104,
      "velocity": 0.71,
      "hand": "right"
    },
    {
      "midi": 52,
      "time": 5,
      "duration": 0.208,
      "velocity": 0.71,
      "hand": "left"
    },
    {
      "midi": 59,
      "time": 5,
      "duration": 0.208,
      "velocity": 0.71,
      "hand": "left"
    },
    {
      "midi": 64,
      "time": 5,
      "duration": 0.104,
      "velocity": 0.71,
      "hand": "right"
    },
    {
      "midi": 68,
      "time": 5,
      "duration": 0.104,
      "velocity": 0.71,
      "hand": "right"
    },
    {
      "midi": 72,
      "time": 5.104,
      "duration": 0.104,
      "velocity": 0.71,
      "hand": "right"
    },
    {
      "midi": 72,
      "time": 5.313,
      "duration": 0.104,
      "velocity": 0.71,
      "hand": "right"
    },
    {
      "midi": 53,
      "time": 5.417,
      "duration": 0.417,
      "velocity": 0.71,
      "hand": "left"
    },
    {
      "midi": 59,
      "time": 5.417,
      "duration": 0.401,
      "velocity": 0.71,
      "hand": "left"
    },
    {
      "midi": 63,
      "time": 5.417,
      "duration": 0.104,
      "velocity": 0.71,
      "hand": "right"
    },
    {
      "midi": 69,
      "time": 5.417,
      "duration": 0.104,
      "velocity": 0.71,
      "hand": "right"
    },
    {
      "midi": 72,
      "time": 5.521,
      "duration": 0.104,
      "velocity": 0.71,
      "hand": "right"
    },
    {
      "midi": 72,
      "time": 5.729,
      "duration": 0.104,
      "velocity": 0.71,
      "hand": "right"
    },
    {
      "midi": 52,
      "time": 5.833,
      "duration": 0.208,
      "velocity": 0.71,
      "hand": "left"
    },
    {
      "midi": 59,
      "time": 5.833,
      "duration": 0.208,
      "velocity": 0.71,
      "hand": "left"
    },
    {
      "midi": 64,
      "time": 5.833,
      "duration": 0.104,
      "velocity": 0.71,
      "hand": "right"
    },
    {
      "midi": 68,
      "time": 5.833,
      "duration": 0.104,
      "velocity": 0.71,
      "hand": "right"
    },
    {
      "midi": 76,
      "time": 5.938,
      "duration": 0.104,
      "velocity": 0.71,
      "hand": "right"
    },
    {
      "midi": 62,
      "time": 6.25,
      "duration": 0.104,
      "velocity": 0.71,
      "hand": "right"
    },
    {
      "midi": 68,
      "time": 6.25,
      "duration": 0.104,
      "velocity": 0.71,
      "hand": "right"
    },
    {
      "midi": 73,
      "time": 6.25,
      "duration": 0.104,
      "velocity": 0.71,
      "hand": "right"
    },
    {
      "midi": 71,
      "time": 6.458,
      "duration": 0.104,
      "velocity": 0.71,
      "hand": "right"
    },
    {
      "midi": 45,
      "time": 6.667,
      "duration": 0.208,
      "velocity": 0.71,
      "hand": "left"
    },
    {
      "midi": 60,
      "time": 6.667,
      "duration": 0.104,
      "velocity": 0.71,
      "hand": "right"
    },
    {
      "midi": 64,
      "time": 6.667,
      "duration": 0.104,
      "velocity": 0.71,
      "hand": "right"
    },
    {
      "midi": 70,
      "time": 6.771,
      "duration": 0.104,
      "velocity": 0.71,
      "hand": "right"
    },
    {
      "midi": 72,
      "time": 6.979,
      "duration": 0.104,
      "velocity": 0.71,
      "hand": "right"
    },
    {
      "midi": 52,
      "time": 7.083,
      "duration": 0.208,
      "velocity": 0.71,
      "hand": "left"
    },
    {
      "midi": 57,
      "time": 7.083,
      "duration": 0.208,
      "velocity": 0.71,
      "hand": "left"
    },
    {
      "midi": 64,
      "time": 7.083,
      "duration": 0.104,
      "velocity": 0.71,
      "hand": "right"
    },
    {
      "midi": 69,
      "time": 7.083,
      "duration": 0.104,
      "velocity": 0.71,
      "hand": "right"
    },
    {
      "midi": 74,
      "time": 7.188,
      "duration": 0.104,
      "velocity": 0.71,
      "hand": "right"
    },
    {
      "midi": 76,
      "time": 7.396,
      "duration": 0.104,
      "velocity": 0.71,
      "hand": "right"
    },
    {
      "midi": 45,
      "time": 7.5,
      "duration": 0.208,
      "velocity": 0.71,
      "hand": "left"
    },
    {
      "midi": 69,
      "time": 7.5,
      "duration": 0.104,
      "velocity": 0.71,
      "hand": "right"
    },
    {
      "midi": 74,
      "time": 7.5,
      "duration": 0.104,
      "velocity": 0.71,
      "hand": "right"
    },
    {
      "midi": 78,
      "time": 7.604,
      "duration": 0.104,
      "velocity": 0.71,
      "hand": "right"
    },
    {
      "midi": 80,
      "time": 7.813,
      "duration": 0.104,
      "velocity": 0.71,
      "hand": "right"
    },
    {
      "midi": 53,
      "time": 7.917,
      "duration": 0.208,
      "velocity": 0.71,
      "hand": "left"
    },
    {
      "midi": 57,
      "time": 7.917,
      "duration": 0.208,
      "velocity": 0.71,
      "hand": "left"
    },
    {
      "midi": 74,
      "time": 7.917,
      "duration": 0.104,
      "velocity": 0.71,
      "hand": "right"
    },
    {
      "midi": 77,
      "time": 7.917,
      "duration": 0.104,
      "velocity": 0.71,
      "hand": "right"
    },
    {
      "midi": 82,
      "time": 8.021,
      "duration": 0.104,
      "velocity": 0.71,
      "hand": "right"
    },
    {
      "midi": 84,
      "time": 8.229,
      "duration": 0.104,
      "velocity": 0.71,
      "hand": "right"
    },
    {
      "midi": 45,
      "time": 8.333,
      "duration": 0.208,
      "velocity": 0.71,
      "hand": "left"
    },
    {
      "midi": 76,
      "time": 8.333,
      "duration": 0.104,
      "velocity": 0.71,
      "hand": "right"
    },
    {
      "midi": 81,
      "time": 8.333,
      "duration": 0.104,
      "velocity": 0.71,
      "hand": "right"
    },
    {
      "midi": 74,
      "time": 8.438,
      "duration": 0.104,
      "velocity": 0.71,
      "hand": "right"
    },
    {
      "midi": 52,
      "time": 8.75,
      "duration": 0.208,
      "velocity": 0.71,
      "hand": "left"
    },
    {
      "midi": 57,
      "time": 8.75,
      "duration": 0.208,
      "velocity": 0.71,
      "hand": "left"
    },
    {
      "midi": 77,
      "time": 8.75,
      "duration": 0.104,
      "velocity": 0.71,
      "hand": "right"
    },
    {
      "midi": 81,
      "time": 8.75,
      "duration": 0.104,
      "velocity": 0.71,
      "hand": "right"
    },
    {
      "midi": 84,
      "time": 8.75,
      "duration": 0.104,
      "velocity": 0.71,
      "hand": "right"
    },
    {
      "midi": 75,
      "time": 8.958,
      "duration": 0.104,
      "velocity": 0.71,
      "hand": "right"
    },
    {
      "midi": 57,
      "time": 9.167,
      "duration": 0.208,
      "velocity": 0.71,
      "hand": "left"
    },
    {
      "midi": 73,
      "time": 9.167,
      "duration": 0.104,
      "velocity": 0.71,
      "hand": "right"
    },
    {
      "midi": 76,
      "time": 9.167,
      "duration": 0.104,
      "velocity": 0.71,
      "hand": "right"
    },
    {
      "midi": 81,
      "time": 9.167,
      "duration": 0.104,
      "velocity": 0.71,
      "hand": "right"
    },
    {
      "midi": 84,
      "time": 9.271,
      "duration": 0.104,
      "velocity": 0.71,
      "hand": "right"
    },
    {
      "midi": 83,
      "time": 9.375,
      "duration": 0.104,
      "velocity": 0.71,
      "hand": "right"
    },
    {
      "midi": 72,
      "time": 9.583,
      "duration": 0.104,
      "velocity": 0.71,
      "hand": "right"
    },
    {
      "midi": 76,
      "time": 9.583,
      "duration": 0.104,
      "velocity": 0.71,
      "hand": "right"
    },
    {
      "midi": 81,
      "time": 9.583,
      "duration": 0.104,
      "velocity": 0.71,
      "hand": "right"
    },
    {
      "midi": 83,
      "time": 9.792,
      "duration": 0.104,
      "velocity": 0.71,
      "hand": "right"
    },
    {
      "midi": 81,
      "time": 9.896,
      "duration": 0.104,
      "velocity": 0.71,
      "hand": "right"
    },
    {
      "midi": 47,
      "time": 10,
      "duration": 0.208,
      "velocity": 0.71,
      "hand": "left"
    },
    {
      "midi": 71,
      "time": 10,
      "duration": 0.104,
      "velocity": 0.71,
      "hand": "right"
    },
    {
      "midi": 76,
      "time": 10,
      "duration": 0.104,
      "velocity": 0.71,
      "hand": "right"
    },
    {
      "midi": 80,
      "time": 10.104,
      "duration": 0.104,
      "velocity": 0.71,
      "hand": "right"
    },
    {
      "midi": 82,
      "time": 10.313,
      "duration": 0.104,
      "velocity": 0.71,
      "hand": "right"
    },
    {
      "midi": 59,
      "time": 10.417,
      "duration": 0.208,
      "velocity": 0.71,
      "hand": "left"
    },
    {
      "midi": 76,
      "time": 10.417,
      "duration": 0.104,
      "velocity": 0.71,
      "hand": "right"
    },
    {
      "midi": 79,
      "time": 10.417,
      "duration": 0.104,
      "velocity": 0.71,
      "hand": "right"
    },
    {
      "midi": 84,
      "time": 10.521,
      "duration": 0.104,
      "velocity": 0.71,
      "hand": "right"
    },
    {
      "midi": 47,
      "time": 10.833,
      "duration": 0.208,
      "velocity": 0.71,
      "hand": "left"
    },
    {
      "midi": 75,
      "time": 10.833,
      "duration": 0.104,
      "velocity": 0.71,
      "hand": "right"
    },
    {
      "midi": 78,
      "time": 10.833,
      "duration": 0.104,
      "velocity": 0.71,
      "hand": "right"
    },
    {
      "midi": 81,
      "time": 10.833,
      "duration": 0.104,
      "velocity": 0.71,
      "hand": "right"
    },
    {
      "midi": 79,
      "time": 11.042,
      "duration": 0.104,
      "velocity": 0.71,
      "hand": "right"
    },
    {
      "midi": 59,
      "time": 11.25,
      "duration": 0.208,
      "velocity": 0.71,
      "hand": "left"
    },
    {
      "midi": 71,
      "time": 11.25,
      "duration": 0.208,
      "velocity": 0.71,
      "hand": "right"
    },
    {
      "midi": 75,
      "time": 11.25,
      "duration": 0.104,
      "velocity": 0.71,
      "hand": "right"
    },
    {
      "midi": 78,
      "time": 11.354,
      "duration": 0.104,
      "velocity": 0.71,
      "hand": "right"
    },
    {
      "midi": 79,
      "time": 11.458,
      "duration": 0.104,
      "velocity": 0.71,
      "hand": "right"
    },
    {
      "midi": 52,
      "time": 11.667,
      "duration": 0.401,
      "velocity": 0.71,
      "hand": "left"
    },
    {
      "midi": 68,
      "time": 11.667,
      "duration": 0.104,
      "velocity": 0.71,
      "hand": "right"
    },
    {
      "midi": 71,
      "time": 11.667,
      "duration": 0.104,
      "velocity": 0.71,
      "hand": "right"
    },
    {
      "midi": 77,
      "time": 11.771,
      "duration": 0.104,
      "velocity": 0.71,
      "hand": "right"
    },
    {
      "midi": 76,
      "time": 11.979,
      "duration": 0.104,
      "velocity": 0.71,
      "hand": "right"
    },
    {
      "midi": 40,
      "time": 12.083,
      "duration": 0.417,
      "velocity": 0.71,
      "hand": "left"
    },
    {
      "midi": 52,
      "time": 12.083,
      "duration": 0.417,
      "velocity": 0.71,
      "hand": "left"
    },
    {
      "midi": 65,
      "time": 12.083,
      "duration": 0.104,
      "velocity": 0.71,
      "hand": "right"
    },
    {
      "midi": 69,
      "time": 12.083,
      "duration": 0.104,
      "velocity": 0.71,
      "hand": "right"
    },
    {
      "midi": 74,
      "time": 12.083,
      "duration": 0.104,
      "velocity": 0.71,
      "hand": "right"
    },
    {
      "midi": 76,
      "time": 12.188,
      "duration": 0.104,
      "velocity": 0.71,
      "hand": "right"
    },
    {
      "midi": 74,
      "time": 12.396,
      "duration": 0.104,
      "velocity": 0.71,
      "hand": "right"
    },
    {
      "midi": 64,
      "time": 12.5,
      "duration": 0.104,
      "velocity": 0.71,
      "hand": "right"
    },
    {
      "midi": 69,
      "time": 12.5,
      "duration": 0.104,
      "velocity": 0.71,
      "hand": "right"
    },
    {
      "midi": 72,
      "time": 12.5,
      "duration": 0.104,
      "velocity": 0.71,
      "hand": "right"
    },
    {
      "midi": 74,
      "time": 12.604,
      "duration": 0.104,
      "velocity": 0.71,
      "hand": "right"
    },
    {
      "midi": 72,
      "time": 12.813,
      "duration": 0.104,
      "velocity": 0.71,
      "hand": "right"
    },
    {
      "midi": 40,
      "time": 12.917,
      "duration": 0.417,
      "velocity": 0.71,
      "hand": "left"
    },
    {
      "midi": 52,
      "time": 12.917,
      "duration": 0.417,
      "velocity": 0.71,
      "hand": "left"
    },
    {
      "midi": 62,
      "time": 12.917,
      "duration": 0.104,
      "velocity": 0.71,
      "hand": "right"
    },
    {
      "midi": 68,
      "time": 12.917,
      "duration": 0.104,
      "velocity": 0.71,
      "hand": "right"
    },
    {
      "midi": 72,
      "time": 13.021,
      "duration": 0.104,
      "velocity": 0.71,
      "hand": "right"
    },
    {
      "midi": 71,
      "time": 13.229,
      "duration": 0.104,
      "velocity": 0.71,
      "hand": "right"
    },
    {
      "midi": 45,
      "time": 13.333,
      "duration": 0.208,
      "velocity": 0.71,
      "hand": "left"
    },
    {
      "midi": 60,
      "time": 13.333,
      "duration": 0.104,
      "velocity": 0.71,
      "hand": "right"
    },
    {
      "midi": 64,
      "time": 13.333,
      "duration": 0.104,
      "velocity": 0.71,
      "hand": "right"
    },
    {
      "midi": 70,
      "time": 13.438,
      "duration": 0.104,
      "velocity": 0.71,
      "hand": "right"
    },
    {
      "midi": 72,
      "time": 13.646,
      "duration": 0.104,
      "velocity": 0.71,
      "hand": "right"
    },
    {
      "midi": 52,
      "time": 13.75,
      "duration": 0.208,
      "velocity": 0.71,
      "hand": "left"
    },
    {
      "midi": 57,
      "time": 13.75,
      "duration": 0.208,
      "velocity": 0.71,
      "hand": "left"
    },
    {
      "midi": 64,
      "time": 13.75,
      "duration": 0.104,
      "velocity": 0.71,
      "hand": "right"
    },
    {
      "midi": 69,
      "time": 13.75,
      "duration": 0.104,
      "velocity": 0.71,
      "hand": "right"
    },
    {
      "midi": 74,
      "time": 13.854,
      "duration": 0.104,
      "velocity": 0.71,
      "hand": "right"
    },
    {
      "midi": 76,
      "time": 14.063,
      "duration": 0.104,
      "velocity": 0.71,
      "hand": "right"
    },
    {
      "midi": 45,
      "time": 14.167,
      "duration": 0.208,
      "velocity": 0.71,
      "hand": "left"
    },
    {
      "midi": 69,
      "time": 14.167,
      "duration": 0.104,
      "velocity": 0.71,
      "hand": "right"
    },
    {
      "midi": 74,
      "time": 14.167,
      "duration": 0.104,
      "velocity": 0.71,
      "hand": "right"
    },
    {
      "midi": 78,
      "time": 14.271,
      "duration": 0.104,
      "velocity": 0.71,
      "hand": "right"
    },
    {
      "midi": 80,
      "time": 14.479,
      "duration": 0.104,
      "velocity": 0.71,
      "hand": "right"
    },
    {
      "midi": 53,
      "time": 14.583,
      "duration": 0.208,
      "velocity": 0.71,
      "hand": "left"
    },
    {
      "midi": 57,
      "time": 14.583,
      "duration": 0.208,
      "velocity": 0.71,
      "hand": "left"
    },
    {
      "midi": 74,
      "time": 14.583,
      "duration": 0.104,
      "velocity": 0.71,
      "hand": "right"
    },
    {
      "midi": 77,
      "time": 14.583,
      "duration": 0.104,
      "velocity": 0.71,
      "hand": "right"
    },
    {
      "midi": 82,
      "time": 14.688,
      "duration": 0.104,
      "velocity": 0.71,
      "hand": "right"
    },
    {
      "midi": 84,
      "time": 14.896,
      "duration": 0.104,
      "velocity": 0.71,
      "hand": "right"
    },
    {
      "midi": 45,
      "time": 15,
      "duration": 0.208,
      "velocity": 0.71,
      "hand": "left"
    },
    {
      "midi": 76,
      "time": 15,
      "duration": 0.104,
      "velocity": 0.71,
      "hand": "right"
    },
    {
      "midi": 81,
      "time": 15,
      "duration": 0.104,
      "velocity": 0.71,
      "hand": "right"
    },
    {
      "midi": 74,
      "time": 15.104,
      "duration": 0.104,
      "velocity": 0.71,
      "hand": "right"
    },
    {
      "midi": 52,
      "time": 15.417,
      "duration": 0.208,
      "velocity": 0.71,
      "hand": "left"
    },
    {
      "midi": 57,
      "time": 15.417,
      "duration": 0.208,
      "velocity": 0.71,
      "hand": "left"
    },
    {
      "midi": 77,
      "time": 15.417,
      "duration": 0.104,
      "velocity": 0.71,
      "hand": "right"
    },
    {
      "midi": 81,
      "time": 15.417,
      "duration": 0.104,
      "velocity": 0.71,
      "hand": "right"
    },
    {
      "midi": 84,
      "time": 15.417,
      "duration": 0.104,
      "velocity": 0.71,
      "hand": "right"
    },
    {
      "midi": 75,
      "time": 15.625,
      "duration": 0.104,
      "velocity": 0.71,
      "hand": "right"
    },
    {
      "midi": 57,
      "time": 15.833,
      "duration": 0.208,
      "velocity": 0.71,
      "hand": "left"
    },
    {
      "midi": 73,
      "time": 15.833,
      "duration": 0.104,
      "velocity": 0.71,
      "hand": "right"
    },
    {
      "midi": 76,
      "time": 15.833,
      "duration": 0.104,
      "velocity": 0.71,
      "hand": "right"
    },
    {
      "midi": 81,
      "time": 15.833,
      "duration": 0.104,
      "velocity": 0.71,
      "hand": "right"
    },
    {
      "midi": 84,
      "time": 15.938,
      "duration": 0.104,
      "velocity": 0.71,
      "hand": "right"
    },
    {
      "midi": 83,
      "time": 16.042,
      "duration": 0.104,
      "velocity": 0.71,
      "hand": "right"
    },
    {
      "midi": 72,
      "time": 16.25,
      "duration": 0.104,
      "velocity": 0.71,
      "hand": "right"
    },
    {
      "midi": 76,
      "time": 16.25,
      "duration": 0.104,
      "velocity": 0.71,
      "hand": "right"
    },
    {
      "midi": 81,
      "time": 16.25,
      "duration": 0.104,
      "velocity": 0.71,
      "hand": "right"
    },
    {
      "midi": 83,
      "time": 16.458,
      "duration": 0.104,
      "velocity": 0.71,
      "hand": "right"
    },
    {
      "midi": 81,
      "time": 16.563,
      "duration": 0.104,
      "velocity": 0.71,
      "hand": "right"
    },
    {
      "midi": 40,
      "time": 16.667,
      "duration": 0.208,
      "velocity": 0.71,
      "hand": "left"
    },
    {
      "midi": 71,
      "time": 16.667,
      "duration": 0.104,
      "velocity": 0.71,
      "hand": "right"
    },
    {
      "midi": 76,
      "time": 16.667,
      "duration": 0.104,
      "velocity": 0.71,
      "hand": "right"
    },
    {
      "midi": 80,
      "time": 16.667,
      "duration": 0.104,
      "velocity": 0.71,
      "hand": "right"
    },
    {
      "midi": 78,
      "time": 16.875,
      "duration": 0.104,
      "velocity": 0.71,
      "hand": "right"
    },
    {
      "midi": 52,
      "time": 17.083,
      "duration": 0.208,
      "velocity": 0.71,
      "hand": "left"
    },
    {
      "midi": 59,
      "time": 17.083,
      "duration": 0.208,
      "velocity": 0.71,
      "hand": "left"
    },
    {
      "midi": 68,
      "time": 17.083,
      "duration": 0.104,
      "velocity": 0.71,
      "hand": "right"
    },
    {
      "midi": 71,
      "time": 17.083,
      "duration": 0.104,
      "velocity": 0.71,
      "hand": "right"
    },
    {
      "midi": 76,
      "time": 17.083,
      "duration": 0.104,
      "velocity": 0.71,
      "hand": "right"
    },
    {
      "midi": 77,
      "time": 17.292,
      "duration": 0.104,
      "velocity": 0.71,
      "hand": "right"
    },
    {
      "midi": 45,
      "time": 17.5,
      "duration": 0.208,
      "velocity": 0.71,
      "hand": "left"
    },
    {
      "midi": 69,
      "time": 17.5,
      "duration": 0.104,
      "velocity": 0.71,
      "hand": "right"
    },
    {
      "midi": 72,
      "time": 17.5,
      "duration": 0.104,
      "velocity": 0.71,
      "hand": "right"
    },
    {
      "midi": 75,
      "time": 17.5,
      "duration": 0.104,
      "velocity": 0.71,
      "hand": "right"
    },
    {
      "midi": 73,
      "time": 17.708,
      "duration": 0.104,
      "velocity": 0.71,
      "hand": "right"
    },
    {
      "midi": 52,
      "time": 17.917,
      "duration": 0.208,
      "velocity": 0.71,
      "hand": "left"
    },
    {
      "midi": 57,
      "time": 17.917,
      "duration": 0.208,
      "velocity": 0.71,
      "hand": "left"
    },
    {
      "midi": 64,
      "time": 17.917,
      "duration": 0.104,
      "velocity": 0.71,
      "hand": "right"
    },
    {
      "midi": 69,
      "time": 17.917,
      "duration": 0.104,
      "velocity": 0.71,
      "hand": "right"
    },
    {
      "midi": 72,
      "time": 18.021,
      "duration": 0.104,
      "velocity": 0.71,
      "hand": "right"
    },
    {
      "midi": 74,
      "time": 18.125,
      "duration": 0.104,
      "velocity": 0.71,
      "hand": "right"
    },
    {
      "midi": 72,
      "time": 18.229,
      "duration": 0.104,
      "velocity": 0.71,
      "hand": "right"
    },
    {
      "midi": 52,
      "time": 18.333,
      "duration": 0.208,
      "velocity": 0.71,
      "hand": "left"
    },
    {
      "midi": 59,
      "time": 18.333,
      "duration": 0.208,
      "velocity": 0.71,
      "hand": "left"
    },
    {
      "midi": 64,
      "time": 18.333,
      "duration": 0.104,
      "velocity": 0.71,
      "hand": "right"
    },
    {
      "midi": 68,
      "time": 18.333,
      "duration": 0.104,
      "velocity": 0.71,
      "hand": "right"
    },
    {
      "midi": 72,
      "time": 18.438,
      "duration": 0.104,
      "velocity": 0.71,
      "hand": "right"
    },
    {
      "midi": 72,
      "time": 18.646,
      "duration": 0.104,
      "velocity": 0.71,
      "hand": "right"
    },
    {
      "midi": 53,
      "time": 18.75,
      "duration": 0.417,
      "velocity": 0.71,
      "hand": "left"
    },
    {
      "midi": 59,
      "time": 18.75,
      "duration": 0.402,
      "velocity": 0.71,
      "hand": "left"
    },
    {
      "midi": 63,
      "time": 18.75,
      "duration": 0.104,
      "velocity": 0.71,
      "hand": "right"
    },
    {
      "midi": 69,
      "time": 18.75,
      "duration": 0.104,
      "velocity": 0.71,
      "hand": "right"
    },
    {
      "midi": 72,
      "time": 18.854,
      "duration": 0.104,
      "velocity": 0.71,
      "hand": "right"
    },
    {
      "midi": 72,
      "time": 19.063,
      "duration": 0.104,
      "velocity": 0.71,
      "hand": "right"
    },
    {
      "midi": 52,
      "time": 19.167,
      "duration": 0.208,
      "velocity": 0.71,
      "hand": "left"
    },
    {
      "midi": 59,
      "time": 19.167,
      "duration": 0.208,
      "velocity": 0.71,
      "hand": "left"
    },
    {
      "midi": 64,
      "time": 19.167,
      "duration": 0.104,
      "velocity": 0.71,
      "hand": "right"
    },
    {
      "midi": 68,
      "time": 19.167,
      "duration": 0.104,
      "velocity": 0.71,
      "hand": "right"
    },
    {
      "midi": 76,
      "time": 19.271,
      "duration": 0.104,
      "velocity": 0.71,
      "hand": "right"
    },
    {
      "midi": 62,
      "time": 19.583,
      "duration": 0.104,
      "velocity": 0.71,
      "hand": "right"
    },
    {
      "midi": 68,
      "time": 19.583,
      "duration": 0.104,
      "velocity": 0.71,
      "hand": "right"
    },
    {
      "midi": 73,
      "time": 19.583,
      "duration": 0.104,
      "velocity": 0.71,
      "hand": "right"
    },
    {
      "midi": 71,
      "time": 19.792,
      "duration": 0.104,
      "velocity": 0.71,
      "hand": "right"
    },
    {
      "midi": 45,
      "time": 20,
      "duration": 0.208,
      "velocity": 0.71,
      "hand": "left"
    },
    {
      "midi": 60,
      "time": 20,
      "duration": 0.104,
      "velocity": 0.71,
      "hand": "right"
    },
    {
      "midi": 64,
      "time": 20,
      "duration": 0.104,
      "velocity": 0.71,
      "hand": "right"
    },
    {
      "midi": 70,
      "time": 20.104,
      "duration": 0.104,
      "velocity": 0.71,
      "hand": "right"
    },
    {
      "midi": 72,
      "time": 20.313,
      "duration": 0.104,
      "velocity": 0.71,
      "hand": "right"
    },
    {
      "midi": 52,
      "time": 20.417,
      "duration": 0.208,
      "velocity": 0.71,
      "hand": "left"
    },
    {
      "midi": 57,
      "time": 20.417,
      "duration": 0.208,
      "velocity": 0.71,
      "hand": "left"
    },
    {
      "midi": 64,
      "time": 20.417,
      "duration": 0.104,
      "velocity": 0.71,
      "hand": "right"
    },
    {
      "midi": 69,
      "time": 20.417,
      "duration": 0.104,
      "velocity": 0.71,
      "hand": "right"
    },
    {
      "midi": 74,
      "time": 20.521,
      "duration": 0.104,
      "velocity": 0.71,
      "hand": "right"
    },
    {
      "midi": 76,
      "time": 20.729,
      "duration": 0.104,
      "velocity": 0.71,
      "hand": "right"
    },
    {
      "midi": 45,
      "time": 20.833,
      "duration": 0.208,
      "velocity": 0.71,
      "hand": "left"
    },
    {
      "midi": 69,
      "time": 20.833,
      "duration": 0.104,
      "velocity": 0.71,
      "hand": "right"
    },
    {
      "midi": 74,
      "time": 20.833,
      "duration": 0.104,
      "velocity": 0.71,
      "hand": "right"
    },
    {
      "midi": 78,
      "time": 20.938,
      "duration": 0.104,
      "velocity": 0.71,
      "hand": "right"
    },
    {
      "midi": 80,
      "time": 21.146,
      "duration": 0.104,
      "velocity": 0.71,
      "hand": "right"
    },
    {
      "midi": 53,
      "time": 21.25,
      "duration": 0.208,
      "velocity": 0.71,
      "hand": "left"
    },
    {
      "midi": 57,
      "time": 21.25,
      "duration": 0.208,
      "velocity": 0.71,
      "hand": "left"
    },
    {
      "midi": 74,
      "time": 21.25,
      "duration": 0.104,
      "velocity": 0.71,
      "hand": "right"
    },
    {
      "midi": 77,
      "time": 21.25,
      "duration": 0.104,
      "velocity": 0.71,
      "hand": "right"
    },
    {
      "midi": 82,
      "time": 21.354,
      "duration": 0.104,
      "velocity": 0.71,
      "hand": "right"
    },
    {
      "midi": 84,
      "time": 21.563,
      "duration": 0.104,
      "velocity": 0.71,
      "hand": "right"
    },
    {
      "midi": 45,
      "time": 21.667,
      "duration": 0.208,
      "velocity": 0.71,
      "hand": "left"
    },
    {
      "midi": 76,
      "time": 21.667,
      "duration": 0.104,
      "velocity": 0.71,
      "hand": "right"
    },
    {
      "midi": 81,
      "time": 21.667,
      "duration": 0.104,
      "velocity": 0.71,
      "hand": "right"
    },
    {
      "midi": 74,
      "time": 21.771,
      "duration": 0.104,
      "velocity": 0.71,
      "hand": "right"
    },
    {
      "midi": 52,
      "time": 22.083,
      "duration": 0.208,
      "velocity": 0.71,
      "hand": "left"
    },
    {
      "midi": 57,
      "time": 22.083,
      "duration": 0.208,
      "velocity": 0.71,
      "hand": "left"
    },
    {
      "midi": 77,
      "time": 22.083,
      "duration": 0.104,
      "velocity": 0.71,
      "hand": "right"
    },
    {
      "midi": 81,
      "time": 22.083,
      "duration": 0.104,
      "velocity": 0.71,
      "hand": "right"
    },
    {
      "midi": 84,
      "time": 22.083,
      "duration": 0.104,
      "velocity": 0.71,
      "hand": "right"
    },
    {
      "midi": 75,
      "time": 22.292,
      "duration": 0.104,
      "velocity": 0.71,
      "hand": "right"
    },
    {
      "midi": 57,
      "time": 22.5,
      "duration": 0.208,
      "velocity": 0.71,
      "hand": "left"
    },
    {
      "midi": 73,
      "time": 22.5,
      "duration": 0.104,
      "velocity": 0.71,
      "hand": "right"
    },
    {
      "midi": 76,
      "time": 22.5,
      "duration": 0.104,
      "velocity": 0.71,
      "hand": "right"
    },
    {
      "midi": 81,
      "time": 22.5,
      "duration": 0.104,
      "velocity": 0.71,
      "hand": "right"
    },
    {
      "midi": 84,
      "time": 22.604,
      "duration": 0.104,
      "velocity": 0.71,
      "hand": "right"
    },
    {
      "midi": 83,
      "time": 22.708,
      "duration": 0.104,
      "velocity": 0.71,
      "hand": "right"
    },
    {
      "midi": 72,
      "time": 22.917,
      "duration": 0.104,
      "velocity": 0.71,
      "hand": "right"
    },
    {
      "midi": 76,
      "time": 22.917,
      "duration": 0.104,
      "velocity": 0.71,
      "hand": "right"
    },
    {
      "midi": 81,
      "time": 22.917,
      "duration": 0.104,
      "velocity": 0.71,
      "hand": "right"
    },
    {
      "midi": 83,
      "time": 23.125,
      "duration": 0.104,
      "velocity": 0.71,
      "hand": "right"
    },
    {
      "midi": 81,
      "time": 23.229,
      "duration": 0.104,
      "velocity": 0.71,
      "hand": "right"
    },
    {
      "midi": 38,
      "time": 23.333,
      "duration": 0.208,
      "velocity": 0.71,
      "hand": "left"
    },
    {
      "midi": 50,
      "time": 23.333,
      "duration": 0.208,
      "velocity": 0.71,
      "hand": "left"
    },
    {
      "midi": 74,
      "time": 23.333,
      "duration": 0.104,
      "velocity": 0.71,
      "hand": "right"
    },
    {
      "midi": 77,
      "time": 23.333,
      "duration": 0.104,
      "velocity": 0.71,
      "hand": "right"
    },
    {
      "midi": 83,
      "time": 23.438,
      "duration": 0.104,
      "velocity": 0.71,
      "hand": "right"
    },
    {
      "midi": 84,
      "time": 23.542,
      "duration": 0.104,
      "velocity": 0.71,
      "hand": "right"
    },
    {
      "midi": 73,
      "time": 23.646,
      "duration": 0.104,
      "velocity": 0.71,
      "hand": "right"
    },
    {
      "midi": 50,
      "time": 23.75,
      "duration": 0.208,
      "velocity": 0.71,
      "hand": "left"
    },
    {
      "midi": 53,
      "time": 23.75,
      "duration": 0.208,
      "velocity": 0.71,
      "hand": "left"
    },
    {
      "midi": 77,
      "time": 23.75,
      "duration": 0.104,
      "velocity": 0.71,
      "hand": "right"
    },
    {
      "midi": 82,
      "time": 23.75,
      "duration": 0.104,
      "velocity": 0.71,
      "hand": "right"
    },
    {
      "midi": 75,
      "time": 23.854,
      "duration": 0.104,
      "velocity": 0.71,
      "hand": "right"
    },
    {
      "midi": 77,
      "time": 24.063,
      "duration": 0.104,
      "velocity": 0.71,
      "hand": "right"
    },
    {
      "midi": 40,
      "time": 24.167,
      "duration": 0.208,
      "velocity": 0.71,
      "hand": "left"
    },
    {
      "midi": 52,
      "time": 24.167,
      "duration": 0.208,
      "velocity": 0.71,
      "hand": "left"
    },
    {
      "midi": 74,
      "time": 24.167,
      "duration": 0.104,
      "velocity": 0.71,
      "hand": "right"
    },
    {
      "midi": 80,
      "time": 24.167,
      "duration": 0.104,
      "velocity": 0.71,
      "hand": "right"
    },
    {
      "midi": 77,
      "time": 24.271,
      "duration": 0.104,
      "velocity": 0.71,
      "hand": "right"
    },
    {
      "midi": 79,
      "time": 24.479,
      "duration": 0.104,
      "velocity": 0.71,
      "hand": "right"
    },
    {
      "midi": 52,
      "time": 24.583,
      "duration": 0.208,
      "velocity": 0.71,
      "hand": "left"
    },
    {
      "midi": 59,
      "time": 24.583,
      "duration": 0.208,
      "velocity": 0.71,
      "hand": "left"
    },
    {
      "midi": 62,
      "time": 24.583,
      "duration": 0.208,
      "velocity": 0.71,
      "hand": "right"
    },
    {
      "midi": 74,
      "time": 24.583,
      "duration": 0.104,
      "velocity": 0.71,
      "hand": "right"
    },
    {
      "midi": 81,
      "time": 24.688,
      "duration": 0.104,
      "velocity": 0.71,
      "hand": "right"
    },
    {
      "midi": 41,
      "time": 25,
      "duration": 0.208,
      "velocity": 0.71,
      "hand": "left"
    },
    {
      "midi": 53,
      "time": 25,
      "duration": 0.208,
      "velocity": 0.71,
      "hand": "left"
    },
    {
      "midi": 77,
      "time": 25,
      "duration": 0.104,
      "velocity": 0.71,
      "hand": "right"
    },
    {
      "midi": 81,
      "time": 25,
      "duration": 0.104,
      "velocity": 0.71,
      "hand": "right"
    },
    {
      "midi": 84,
      "time": 25,
      "duration": 0.104,
      "velocity": 0.71,
      "hand": "right"
    },
    {
      "midi": 79,
      "time": 25.208,
      "duration": 0.104,
      "velocity": 0.71,
      "hand": "right"
    },
    {
      "midi": 57,
      "time": 25.417,
      "duration": 0.208,
      "velocity": 0.71,
      "hand": "left"
    },
    {
      "midi": 77,
      "time": 25.417,
      "duration": 0.104,
      "velocity": 0.71,
      "hand": "right"
    },
    {
      "midi": 81,
      "time": 25.417,
      "duration": 0.104,
      "velocity": 0.71,
      "hand": "right"
    },
    {
      "midi": 84,
      "time": 25.417,
      "duration": 0.104,
      "velocity": 0.71,
      "hand": "right"
    },
    {
      "midi": 75,
      "time": 25.625,
      "duration": 0.104,
      "velocity": 0.71,
      "hand": "right"
    },
    {
      "midi": 36,
      "time": 25.833,
      "duration": 0.208,
      "velocity": 0.71,
      "hand": "left"
    },
    {
      "midi": 48,
      "time": 25.833,
      "duration": 0.208,
      "velocity": 0.71,
      "hand": "left"
    },
    {
      "midi": 73,
      "time": 25.833,
      "duration": 0.104,
      "velocity": 0.71,
      "hand": "right"
    },
    {
      "midi": 76,
      "time": 25.833,
      "duration": 0.104,
      "velocity": 0.71,
      "hand": "right"
    },
    {
      "midi": 81,
      "time": 25.833,
      "duration": 0.104,
      "velocity": 0.71,
      "hand": "right"
    },
    {
      "midi": 84,
      "time": 25.938,
      "duration": 0.104,
      "velocity": 0.71,
      "hand": "right"
    },
    {
      "midi": 83,
      "time": 26.042,
      "duration": 0.104,
      "velocity": 0.71,
      "hand": "right"
    },
    {
      "midi": 52,
      "time": 26.25,
      "duration": 0.208,
      "velocity": 0.71,
      "hand": "left"
    },
    {
      "midi": 57,
      "time": 26.25,
      "duration": 0.208,
      "velocity": 0.71,
      "hand": "left"
    },
    {
      "midi": 72,
      "time": 26.25,
      "duration": 0.104,
      "velocity": 0.71,
      "hand": "right"
    },
    {
      "midi": 76,
      "time": 26.25,
      "duration": 0.104,
      "velocity": 0.71,
      "hand": "right"
    },
    {
      "midi": 81,
      "time": 26.25,
      "duration": 0.104,
      "velocity": 0.71,
      "hand": "right"
    },
    {
      "midi": 79,
      "time": 26.458,
      "duration": 0.104,
      "velocity": 0.71,
      "hand": "right"
    },
    {
      "midi": 38,
      "time": 26.667,
      "duration": 0.208,
      "velocity": 0.71,
      "hand": "left"
    },
    {
      "midi": 70,
      "time": 26.667,
      "duration": 0.104,
      "velocity": 0.71,
      "hand": "right"
    },
    {
      "midi": 74,
      "time": 26.667,
      "duration": 0.104,
      "velocity": 0.71,
      "hand": "right"
    },
    {
      "midi": 77,
      "time": 26.667,
      "duration": 0.104,
      "velocity": 0.71,
      "hand": "right"
    },
    {
      "midi": 75,
      "time": 26.875,
      "duration": 0.104,
      "velocity": 0.71,
      "hand": "right"
    },
    {
      "midi": 50,
      "time": 27.083,
      "duration": 0.417,
      "velocity": 0.71,
      "hand": "left"
    },
    {
      "midi": 53,
      "time": 27.083,
      "duration": 0.417,
      "velocity": 0.71,
      "hand": "left"
    },
    {
      "midi": 65,
      "time": 27.083,
      "duration": 0.104,
      "velocity": 0.71,
      "hand": "right"
    },
    {
      "midi": 70,
      "time": 27.083,
      "duration": 0.104,
      "velocity": 0.71,
      "hand": "right"
    },
    {
      "midi": 74,
      "time": 27.188,
      "duration": 0.104,
      "velocity": 0.71,
      "hand": "right"
    },
    {
      "midi": 77,
      "time": 27.292,
      "duration": 0.104,
      "velocity": 0.71,
      "hand": "right"
    },
    {
      "midi": 74,
      "time": 27.396,
      "duration": 0.104,
      "velocity": 0.71,
      "hand": "right"
    },
    {
      "midi": 52,
      "time": 27.5,
      "duration": 0.402,
      "velocity": 0.71,
      "hand": "left"
    },
    {
      "midi": 57,
      "time": 27.5,
      "duration": 0.417,
      "velocity": 0.71,
      "hand": "left"
    },
    {
      "midi": 64,
      "time": 27.5,
      "duration": 0.104,
      "velocity": 0.71,
      "hand": "right"
    },
    {
      "midi": 69,
      "time": 27.5,
      "duration": 0.104,
      "velocity": 0.71,
      "hand": "right"
    },
    {
      "midi": 72,
      "time": 27.604,
      "duration": 0.104,
      "velocity": 0.71,
      "hand": "right"
    },
    {
      "midi": 76,
      "time": 27.708,
      "duration": 0.104,
      "velocity": 0.71,
      "hand": "right"
    },
    {
      "midi": 72,
      "time": 27.813,
      "duration": 0.104,
      "velocity": 0.71,
      "hand": "right"
    },
    {
      "midi": 52,
      "time": 27.917,
      "duration": 0.417,
      "velocity": 0.71,
      "hand": "left"
    },
    {
      "midi": 62,
      "time": 27.917,
      "duration": 0.104,
      "velocity": 0.71,
      "hand": "right"
    },
    {
      "midi": 68,
      "time": 27.917,
      "duration": 0.104,
      "velocity": 0.71,
      "hand": "right"
    },
    {
      "midi": 71,
      "time": 28.021,
      "duration": 0.104,
      "velocity": 0.71,
      "hand": "right"
    },
    {
      "midi": 76,
      "time": 28.125,
      "duration": 0.104,
      "velocity": 0.71,
      "hand": "right"
    },
    {
      "midi": 71,
      "time": 28.229,
      "duration": 0.104,
      "velocity": 0.71,
      "hand": "right"
    },
    {
      "midi": 45,
      "time": 28.333,
      "duration": 0.417,
      "velocity": 0.71,
      "hand": "left"
    },
    {
      "midi": 57,
      "time": 28.333,
      "duration": 0.417,
      "velocity": 0.71,
      "hand": "left"
    },
    {
      "midi": 60,
      "time": 28.333,
      "duration": 0.104,
      "velocity": 0.71,
      "hand": "right"
    },
    {
      "midi": 64,
      "time": 28.333,
      "duration": 0.104,
      "velocity": 0.71,
      "hand": "right"
    },
    {
      "midi": 70,
      "time": 28.438,
      "duration": 0.104,
      "velocity": 0.71,
      "hand": "right"
    },
    {
      "midi": 72,
      "time": 28.646,
      "duration": 0.104,
      "velocity": 0.71,
      "hand": "right"
    },
    {
      "midi": 40,
      "time": 28.75,
      "duration": 0.417,
      "velocity": 0.71,
      "hand": "left"
    },
    {
      "midi": 52,
      "time": 28.75,
      "duration": 0.417,
      "velocity": 0.71,
      "hand": "left"
    },
    {
      "midi": 64,
      "time": 28.75,
      "duration": 0.104,
      "velocity": 0.71,
      "hand": "right"
    },
    {
      "midi": 68,
      "time": 28.75,
      "duration": 0.104,
      "velocity": 0.71,
      "hand": "right"
    },
    {
      "midi": 74,
      "time": 28.854,
      "duration": 0.104,
      "velocity": 0.71,
      "hand": "right"
    },
    {
      "midi": 76,
      "time": 29.063,
      "duration": 0.104,
      "velocity": 0.71,
      "hand": "right"
    },
    {
      "midi": 45,
      "time": 29.167,
      "duration": 0.417,
      "velocity": 0.71,
      "hand": "left"
    },
    {
      "midi": 69,
      "time": 29.167,
      "duration": 0.104,
      "velocity": 0.71,
      "hand": "right"
    },
    {
      "midi": 72,
      "time": 29.167,
      "duration": 0.104,
      "velocity": 0.71,
      "hand": "right"
    },
    {
      "midi": 81,
      "time": 29.167,
      "duration": 0.104,
      "velocity": 0.71,
      "hand": "right"
    },
    {
      "midi": 79,
      "time": 29.375,
      "duration": 0.104,
      "velocity": 0.71,
      "hand": "right"
    },
    {
      "midi": 77,
      "time": 29.583,
      "duration": 0.104,
      "velocity": 0.71,
      "hand": "right"
    },
    {
      "midi": 75,
      "time": 29.792,
      "duration": 0.104,
      "velocity": 0.71,
      "hand": "right"
    },
    {
      "midi": 36,
      "time": 30,
      "duration": 0.208,
      "velocity": 0.71,
      "hand": "left"
    },
    {
      "midi": 48,
      "time": 30,
      "duration": 0.208,
      "velocity": 0.71,
      "hand": "left"
    },
    {
      "midi": 64,
      "time": 30,
      "duration": 0.104,
      "velocity": 0.71,
      "hand": "right"
    },
    {
      "midi": 70,
      "time": 30,
      "duration": 0.104,
      "velocity": 0.71,
      "hand": "right"
    },
    {
      "midi": 73,
      "time": 30,
      "duration": 0.104,
      "velocity": 0.71,
      "hand": "right"
    },
    {
      "midi": 72,
      "time": 30.313,
      "duration": 0.104,
      "velocity": 0.71,
      "hand": "right"
    },
    {
      "midi": 48,
      "time": 30.417,
      "duration": 0.208,
      "velocity": 0.71,
      "hand": "left"
    },
    {
      "midi": 55,
      "time": 30.417,
      "duration": 0.208,
      "velocity": 0.71,
      "hand": "left"
    },
    {
      "midi": 64,
      "time": 30.417,
      "duration": 0.104,
      "velocity": 0.71,
      "hand": "right"
    },
    {
      "midi": 70,
      "time": 30.417,
      "duration": 0.104,
      "velocity": 0.71,
      "hand": "right"
    },
    {
      "midi": 74,
      "time": 30.521,
      "duration": 0.104,
      "velocity": 0.71,
      "hand": "right"
    },
    {
      "midi": 76,
      "time": 30.729,
      "duration": 0.104,
      "velocity": 0.71,
      "hand": "right"
    },
    {
      "midi": 41,
      "time": 30.833,
      "duration": 0.208,
      "velocity": 0.71,
      "hand": "left"
    },
    {
      "midi": 69,
      "time": 30.833,
      "duration": 0.104,
      "velocity": 0.71,
      "hand": "right"
    },
    {
      "midi": 78,
      "time": 30.938,
      "duration": 0.104,
      "velocity": 0.71,
      "hand": "right"
    },
    {
      "midi": 48,
      "time": 31.25,
      "duration": 0.208,
      "velocity": 0.71,
      "hand": "left"
    },
    {
      "midi": 57,
      "time": 31.25,
      "duration": 0.208,
      "velocity": 0.71,
      "hand": "left"
    },
    {
      "midi": 60,
      "time": 31.25,
      "duration": 0.208,
      "velocity": 0.71,
      "hand": "right"
    },
    {
      "midi": 72,
      "time": 31.25,
      "duration": 0.104,
      "velocity": 0.71,
      "hand": "right"
    },
    {
      "midi": 81,
      "time": 31.25,
      "duration": 0.104,
      "velocity": 0.71,
      "hand": "right"
    },
    {
      "midi": 77,
      "time": 31.458,
      "duration": 0.104,
      "velocity": 0.71,
      "hand": "right"
    },
    {
      "midi": 74,
      "time": 31.563,
      "duration": 0.104,
      "velocity": 0.71,
      "hand": "right"
    },
    {
      "midi": 36,
      "time": 31.667,
      "duration": 0.208,
      "velocity": 0.71,
      "hand": "left"
    },
    {
      "midi": 70,
      "time": 31.667,
      "duration": 0.104,
      "velocity": 0.71,
      "hand": "right"
    },
    {
      "midi": 72,
      "time": 31.979,
      "duration": 0.104,
      "velocity": 0.71,
      "hand": "right"
    },
    {
      "midi": 48,
      "time": 32.083,
      "duration": 0.208,
      "velocity": 0.71,
      "hand": "left"
    },
    {
      "midi": 55,
      "time": 32.083,
      "duration": 0.208,
      "velocity": 0.71,
      "hand": "left"
    },
    {
      "midi": 64,
      "time": 32.083,
      "duration": 0.104,
      "velocity": 0.71,
      "hand": "right"
    },
    {
      "midi": 70,
      "time": 32.083,
      "duration": 0.104,
      "velocity": 0.71,
      "hand": "right"
    },
    {
      "midi": 74,
      "time": 32.188,
      "duration": 0.104,
      "velocity": 0.71,
      "hand": "right"
    },
    {
      "midi": 76,
      "time": 32.396,
      "duration": 0.104,
      "velocity": 0.71,
      "hand": "right"
    },
    {
      "midi": 37,
      "time": 32.5,
      "duration": 0.208,
      "velocity": 0.71,
      "hand": "left"
    },
    {
      "midi": 65,
      "time": 32.5,
      "duration": 0.104,
      "velocity": 0.71,
      "hand": "right"
    },
    {
      "midi": 68,
      "time": 32.5,
      "duration": 0.104,
      "velocity": 0.71,
      "hand": "right"
    },
    {
      "midi": 78,
      "time": 32.604,
      "duration": 0.104,
      "velocity": 0.71,
      "hand": "right"
    },
    {
      "midi": 80,
      "time": 32.813,
      "duration": 0.104,
      "velocity": 0.71,
      "hand": "right"
    },
    {
      "midi": 49,
      "time": 32.917,
      "duration": 0.208,
      "velocity": 0.71,
      "hand": "left"
    },
    {
      "midi": 56,
      "time": 32.917,
      "duration": 0.208,
      "velocity": 0.71,
      "hand": "left"
    },
    {
      "midi": 71,
      "time": 32.917,
      "duration": 0.104,
      "velocity": 0.71,
      "hand": "right"
    },
    {
      "midi": 77,
      "time": 33.125,
      "duration": 0.104,
      "velocity": 0.71,
      "hand": "right"
    },
    {
      "midi": 38,
      "time": 33.333,
      "duration": 0.208,
      "velocity": 0.71,
      "hand": "left"
    },
    {
      "midi": 72,
      "time": 33.333,
      "duration": 0.104,
      "velocity": 0.71,
      "hand": "right"
    },
    {
      "midi": 75,
      "time": 33.333,
      "duration": 0.104,
      "velocity": 0.71,
      "hand": "right"
    },
    {
      "midi": 74,
      "time": 33.646,
      "duration": 0.104,
      "velocity": 0.71,
      "hand": "right"
    },
    {
      "midi": 50,
      "time": 33.75,
      "duration": 0.208,
      "velocity": 0.71,
      "hand": "left"
    },
    {
      "midi": 57,
      "time": 33.75,
      "duration": 0.208,
      "velocity": 0.71,
      "hand": "left"
    },
    {
      "midi": 66,
      "time": 33.75,
      "duration": 0.104,
      "velocity": 0.71,
      "hand": "right"
    },
    {
      "midi": 72,
      "time": 33.75,
      "duration": 0.104,
      "velocity": 0.71,
      "hand": "right"
    },
    {
      "midi": 76,
      "time": 33.854,
      "duration": 0.104,
      "velocity": 0.71,
      "hand": "right"
    },
    {
      "midi": 78,
      "time": 34.063,
      "duration": 0.104,
      "velocity": 0.71,
      "hand": "right"
    },
    {
      "midi": 43,
      "time": 34.167,
      "duration": 0.208,
      "velocity": 0.71,
      "hand": "left"
    },
    {
      "midi": 70,
      "time": 34.167,
      "duration": 0.104,
      "velocity": 0.71,
      "hand": "right"
    },
    {
      "midi": 80,
      "time": 34.271,
      "duration": 0.104,
      "velocity": 0.71,
      "hand": "right"
    },
    {
      "midi": 82,
      "time": 34.479,
      "duration": 0.104,
      "velocity": 0.71,
      "hand": "right"
    },
    {
      "midi": 50,
      "time": 34.583,
      "duration": 0.208,
      "velocity": 0.71,
      "hand": "left"
    },
    {
      "midi": 55,
      "time": 34.583,
      "duration": 0.208,
      "velocity": 0.71,
      "hand": "left"
    },
    {
      "midi": 74,
      "time": 34.583,
      "duration": 0.104,
      "velocity": 0.71,
      "hand": "right"
    },
    {
      "midi": 79,
      "time": 34.792,
      "duration": 0.104,
      "velocity": 0.71,
      "hand": "right"
    },
    {
      "midi": 75,
      "time": 34.896,
      "duration": 0.104,
      "velocity": 0.71,
      "hand": "right"
    },
    {
      "midi": 38,
      "time": 35,
      "duration": 0.208,
      "velocity": 0.71,
      "hand": "left"
    },
    {
      "midi": 72,
      "time": 35,
      "duration": 0.104,
      "velocity": 0.71,
      "hand": "right"
    },
    {
      "midi": 75,
      "time": 35.104,
      "duration": 0.104,
      "velocity": 0.71,
      "hand": "right"
    },
    {
      "midi": 74,
      "time": 35.313,
      "duration": 0.104,
      "velocity": 0.71,
      "hand": "right"
    },
    {
      "midi": 50,
      "time": 35.417,
      "duration": 0.208,
      "velocity": 0.71,
      "hand": "left"
    },
    {
      "midi": 57,
      "time": 35.417,
      "duration": 0.208,
      "velocity": 0.71,
      "hand": "left"
    },
    {
      "midi": 66,
      "time": 35.417,
      "duration": 0.104,
      "velocity": 0.71,
      "hand": "right"
    },
    {
      "midi": 72,
      "time": 35.417,
      "duration": 0.104,
      "velocity": 0.71,
      "hand": "right"
    },
    {
      "midi": 76,
      "time": 35.521,
      "duration": 0.104,
      "velocity": 0.71,
      "hand": "right"
    },
    {
      "midi": 78,
      "time": 35.729,
      "duration": 0.104,
      "velocity": 0.71,
      "hand": "right"
    },
    {
      "midi": 39,
      "time": 35.833,
      "duration": 0.208,
      "velocity": 0.71,
      "hand": "left"
    },
    {
      "midi": 67,
      "time": 35.833,
      "duration": 0.104,
      "velocity": 0.71,
      "hand": "right"
    },
    {
      "midi": 70,
      "time": 35.833,
      "duration": 0.104,
      "velocity": 0.71,
      "hand": "right"
    },
    {
      "midi": 80,
      "time": 35.938,
      "duration": 0.104,
      "velocity": 0.71,
      "hand": "right"
    },
    {
      "midi": 82,
      "time": 36.146,
      "duration": 0.104,
      "velocity": 0.71,
      "hand": "right"
    },
    {
      "midi": 51,
      "time": 36.25,
      "duration": 0.208,
      "velocity": 0.71,
      "hand": "left"
    },
    {
      "midi": 58,
      "time": 36.25,
      "duration": 0.208,
      "velocity": 0.71,
      "hand": "left"
    },
    {
      "midi": 61,
      "time": 36.25,
      "duration": 0.208,
      "velocity": 0.71,
      "hand": "right"
    },
    {
      "midi": 73,
      "time": 36.25,
      "duration": 0.104,
      "velocity": 0.71,
      "hand": "right"
    },
    {
      "midi": 79,
      "time": 36.458,
      "duration": 0.104,
      "velocity": 0.71,
      "hand": "right"
    },
    {
      "midi": 40,
      "time": 36.667,
      "duration": 0.208,
      "velocity": 0.71,
      "hand": "left"
    },
    {
      "midi": 74,
      "time": 36.667,
      "duration": 0.104,
      "velocity": 0.71,
      "hand": "right"
    },
    {
      "midi": 77,
      "time": 36.667,
      "duration": 0.104,
      "velocity": 0.71,
      "hand": "right"
    },
    {
      "midi": 76,
      "time": 36.979,
      "duration": 0.104,
      "velocity": 0.71,
      "hand": "right"
    },
    {
      "midi": 52,
      "time": 37.083,
      "duration": 0.208,
      "velocity": 0.71,
      "hand": "left"
    },
    {
      "midi": 59,
      "time": 37.083,
      "duration": 0.208,
      "velocity": 0.71,
      "hand": "left"
    },
    {
      "midi": 68,
      "time": 37.083,
      "duration": 0.104,
      "velocity": 0.71,
      "hand": "right"
    },
    {
      "midi": 74,
      "time": 37.083,
      "duration": 0.104,
      "velocity": 0.71,
      "hand": "right"
    },
    {
      "midi": 78,
      "time": 37.188,
      "duration": 0.104,
      "velocity": 0.71,
      "hand": "right"
    },
    {
      "midi": 80,
      "time": 37.396,
      "duration": 0.104,
      "velocity": 0.71,
      "hand": "right"
    },
    {
      "midi": 45,
      "time": 37.5,
      "duration": 0.208,
      "velocity": 0.71,
      "hand": "left"
    },
    {
      "midi": 72,
      "time": 37.5,
      "duration": 0.104,
      "velocity": 0.71,
      "hand": "right"
    },
    {
      "midi": 82,
      "time": 37.604,
      "duration": 0.104,
      "velocity": 0.71,
      "hand": "right"
    },
    {
      "midi": 84,
      "time": 37.813,
      "duration": 0.104,
      "velocity": 0.71,
      "hand": "right"
    },
    {
      "midi": 52,
      "time": 37.917,
      "duration": 0.208,
      "velocity": 0.71,
      "hand": "left"
    },
    {
      "midi": 57,
      "time": 37.917,
      "duration": 0.208,
      "velocity": 0.71,
      "hand": "left"
    },
    {
      "midi": 64,
      "time": 37.917,
      "duration": 0.208,
      "velocity": 0.71,
      "hand": "right"
    },
    {
      "midi": 76,
      "time": 37.917,
      "duration": 0.104,
      "velocity": 0.71,
      "hand": "right"
    },
    {
      "midi": 81,
      "time": 38.125,
      "duration": 0.104,
      "velocity": 0.71,
      "hand": "right"
    },
    {
      "midi": 40,
      "time": 38.333,
      "duration": 0.208,
      "velocity": 0.71,
      "hand": "left"
    },
    {
      "midi": 74,
      "time": 38.333,
      "duration": 0.104,
      "velocity": 0.71,
      "hand": "right"
    },
    {
      "midi": 79,
      "time": 38.333,
      "duration": 0.104,
      "velocity": 0.71,
      "hand": "right"
    },
    {
      "midi": 77,
      "time": 38.542,
      "duration": 0.104,
      "velocity": 0.71,
      "hand": "right"
    },
    {
      "midi": 52,
      "time": 38.75,
      "duration": 0.208,
      "velocity": 0.71,
      "hand": "left"
    },
    {
      "midi": 59,
      "time": 38.75,
      "duration": 0.208,
      "velocity": 0.71,
      "hand": "left"
    },
    {
      "midi": 68,
      "time": 38.75,
      "duration": 0.104,
      "velocity": 0.71,
      "hand": "right"
    },
    {
      "midi": 74,
      "time": 38.75,
      "duration": 0.104,
      "velocity": 0.71,
      "hand": "right"
    },
    {
      "midi": 78,
      "time": 38.854,
      "duration": 0.104,
      "velocity": 0.71,
      "hand": "right"
    },
    {
      "midi": 80,
      "time": 39.063,
      "duration": 0.104,
      "velocity": 0.71,
      "hand": "right"
    },
    {
      "midi": 45,
      "time": 39.167,
      "duration": 0.417,
      "velocity": 0.71,
      "hand": "left"
    },
    {
      "midi": 57,
      "time": 39.167,
      "duration": 0.417,
      "velocity": 0.71,
      "hand": "left"
    },
    {
      "midi": 72,
      "time": 39.167,
      "duration": 0.104,
      "velocity": 0.71,
      "hand": "right"
    },
    {
      "midi": 82,
      "time": 39.271,
      "duration": 0.104,
      "velocity": 0.71,
      "hand": "right"
    },
    {
      "midi": 84,
      "time": 39.479,
      "duration": 0.104,
      "velocity": 0.71,
      "hand": "right"
    },
    {
      "midi": 43,
      "time": 39.583,
      "duration": 0.417,
      "velocity": 0.71,
      "hand": "left"
    },
    {
      "midi": 55,
      "time": 39.583,
      "duration": 0.417,
      "velocity": 0.71,
      "hand": "left"
    },
    {
      "midi": 76,
      "time": 39.583,
      "duration": 0.104,
      "velocity": 0.71,
      "hand": "right"
    },
    {
      "midi": 81,
      "time": 39.583,
      "duration": 0.104,
      "velocity": 0.71,
      "hand": "right"
    },
    {
      "midi": 74,
      "time": 39.688,
      "duration": 0.104,
      "velocity": 0.71,
      "hand": "right"
    },
    {
      "midi": 41,
      "time": 40,
      "duration": 0.417,
      "velocity": 0.71,
      "hand": "left"
    },
    {
      "midi": 53,
      "time": 40,
      "duration": 0.417,
      "velocity": 0.71,
      "hand": "left"
    },
    {
      "midi": 77,
      "time": 40,
      "duration": 0.104,
      "velocity": 0.71,
      "hand": "right"
    },
    {
      "midi": 81,
      "time": 40,
      "duration": 0.104,
      "velocity": 0.71,
      "hand": "right"
    },
    {
      "midi": 75,
      "time": 40.208,
      "duration": 0.104,
      "velocity": 0.71,
      "hand": "right"
    },
    {
      "midi": 47,
      "time": 40.417,
      "duration": 0.833,
      "velocity": 0.71,
      "hand": "left"
    },
    {
      "midi": 59,
      "time": 40.417,
      "duration": 0.833,
      "velocity": 0.71,
      "hand": "left"
    },
    {
      "midi": 73,
      "time": 40.417,
      "duration": 0.104,
      "velocity": 0.71,
      "hand": "right"
    },
    {
      "midi": 77,
      "time": 40.417,
      "duration": 0.104,
      "velocity": 0.71,
      "hand": "right"
    },
    {
      "midi": 81,
      "time": 40.417,
      "duration": 0.104,
      "velocity": 0.71,
      "hand": "right"
    },
    {
      "midi": 84,
      "time": 40.521,
      "duration": 0.104,
      "velocity": 0.71,
      "hand": "right"
    },
    {
      "midi": 83,
      "time": 40.625,
      "duration": 0.104,
      "velocity": 0.71,
      "hand": "right"
    },
    {
      "midi": 74,
      "time": 40.833,
      "duration": 0.104,
      "velocity": 0.71,
      "hand": "right"
    },
    {
      "midi": 77,
      "time": 40.833,
      "duration": 0.104,
      "velocity": 0.71,
      "hand": "right"
    },
    {
      "midi": 81,
      "time": 40.833,
      "duration": 0.104,
      "velocity": 0.71,
      "hand": "right"
    },
    {
      "midi": 79,
      "time": 41.042,
      "duration": 0.104,
      "velocity": 0.71,
      "hand": "right"
    },
    {
      "midi": 52,
      "time": 41.25,
      "duration": 0.417,
      "velocity": 0.71,
      "hand": "left"
    },
    {
      "midi": 68,
      "time": 41.25,
      "duration": 0.104,
      "velocity": 0.71,
      "hand": "right"
    },
    {
      "midi": 74,
      "time": 41.25,
      "duration": 0.104,
      "velocity": 0.71,
      "hand": "right"
    },
    {
      "midi": 77,
      "time": 41.25,
      "duration": 0.104,
      "velocity": 0.71,
      "hand": "right"
    },
    {
      "midi": 76,
      "time": 41.563,
      "duration": 0.104,
      "velocity": 0.71,
      "hand": "right"
    },
    {
      "midi": 39,
      "time": 41.667,
      "duration": 0.417,
      "velocity": 0.71,
      "hand": "left"
    },
    {
      "midi": 51,
      "time": 41.667,
      "duration": 0.417,
      "velocity": 0.71,
      "hand": "left"
    },
    {
      "midi": 79,
      "time": 41.667,
      "duration": 0.104,
      "velocity": 0.71,
      "hand": "right"
    },
    {
      "midi": 73,
      "time": 41.875,
      "duration": 0.104,
      "velocity": 0.71,
      "hand": "right"
    },
    {
      "midi": 84,
      "time": 41.979,
      "duration": 0.104,
      "velocity": 0.71,
      "hand": "right"
    },
    {
      "midi": 45,
      "time": 42.083,
      "duration": 0.833,
      "velocity": 0.71,
      "hand": "left"
    },
    {
      "midi": 57,
      "time": 42.083,
      "duration": 0.833,
      "velocity": 0.71,
      "hand": "left"
    },
    {
      "midi": 75,
      "time": 42.083,
      "duration": 0.104,
      "velocity": 0.71,
      "hand": "right"
    },
    {
      "midi": 79,
      "time": 42.083,
      "duration": 0.104,
      "velocity": 0.71,
      "hand": "right"
    },
    {
      "midi": 83,
      "time": 42.083,
      "duration": 0.104,
      "velocity": 0.71,
      "hand": "right"
    },
    {
      "midi": 81,
      "time": 42.292,
      "duration": 0.104,
      "velocity": 0.71,
      "hand": "right"
    },
    {
      "midi": 72,
      "time": 42.5,
      "duration": 0.104,
      "velocity": 0.71,
      "hand": "right"
    },
    {
      "midi": 75,
      "time": 42.5,
      "duration": 0.104,
      "velocity": 0.71,
      "hand": "right"
    },
    {
      "midi": 79,
      "time": 42.5,
      "duration": 0.104,
      "velocity": 0.71,
      "hand": "right"
    },
    {
      "midi": 77,
      "time": 42.708,
      "duration": 0.104,
      "velocity": 0.71,
      "hand": "right"
    },
    {
      "midi": 50,
      "time": 42.917,
      "duration": 0.417,
      "velocity": 0.71,
      "hand": "left"
    },
    {
      "midi": 66,
      "time": 42.917,
      "duration": 0.104,
      "velocity": 0.71,
      "hand": "right"
    },
    {
      "midi": 72,
      "time": 42.917,
      "duration": 0.104,
      "velocity": 0.71,
      "hand": "right"
    },
    {
      "midi": 75,
      "time": 42.917,
      "duration": 0.104,
      "velocity": 0.71,
      "hand": "right"
    },
    {
      "midi": 74,
      "time": 43.229,
      "duration": 0.089,
      "velocity": 0.71,
      "hand": "right"
    },
    {
      "midi": 43,
      "time": 43.333,
      "duration": 0.417,
      "velocity": 0.71,
      "hand": "left"
    },
    {
      "midi": 55,
      "time": 43.333,
      "duration": 0.417,
      "velocity": 0.71,
      "hand": "left"
    },
    {
      "midi": 74,
      "time": 43.333,
      "duration": 0.104,
      "velocity": 0.71,
      "hand": "right"
    },
    {
      "midi": 79,
      "time": 43.333,
      "duration": 0.104,
      "velocity": 0.71,
      "hand": "right"
    },
    {
      "midi": 82,
      "time": 43.333,
      "duration": 0.104,
      "velocity": 0.71,
      "hand": "right"
    },
    {
      "midi": 84,
      "time": 43.542,
      "duration": 0.104,
      "velocity": 0.71,
      "hand": "right"
    },
    {
      "midi": 51,
      "time": 43.75,
      "duration": 0.417,
      "velocity": 0.71,
      "hand": "left"
    },
    {
      "midi": 73,
      "time": 43.75,
      "duration": 0.104,
      "velocity": 0.71,
      "hand": "right"
    },
    {
      "midi": 79,
      "time": 43.75,
      "duration": 0.104,
      "velocity": 0.71,
      "hand": "right"
    },
    {
      "midi": 82,
      "time": 43.75,
      "duration": 0.104,
      "velocity": 0.71,
      "hand": "right"
    },
    {
      "midi": 80,
      "time": 43.958,
      "duration": 0.104,
      "velocity": 0.71,
      "hand": "right"
    },
    {
      "midi": 50,
      "time": 44.167,
      "duration": 0.208,
      "velocity": 0.71,
      "hand": "left"
    },
    {
      "midi": 69,
      "time": 44.167,
      "duration": 0.104,
      "velocity": 0.71,
      "hand": "right"
    },
    {
      "midi": 74,
      "time": 44.167,
      "duration": 0.104,
      "velocity": 0.71,
      "hand": "right"
    },
    {
      "midi": 79,
      "time": 44.271,
      "duration": 0.104,
      "velocity": 0.71,
      "hand": "right"
    },
    {
      "midi": 81,
      "time": 44.479,
      "duration": 0.104,
      "velocity": 0.71,
      "hand": "right"
    },
    {
      "midi": 45,
      "time": 44.583,
      "duration": 0.417,
      "velocity": 0.71,
      "hand": "left"
    },
    {
      "midi": 57,
      "time": 44.583,
      "duration": 0.417,
      "velocity": 0.71,
      "hand": "left"
    },
    {
      "midi": 72,
      "time": 44.583,
      "duration": 0.104,
      "velocity": 0.71,
      "hand": "right"
    },
    {
      "midi": 77,
      "time": 44.583,
      "duration": 0.104,
      "velocity": 0.71,
      "hand": "right"
    },
    {
      "midi": 84,
      "time": 44.792,
      "duration": 0.104,
      "velocity": 0.71,
      "hand": "right"
    },
    {
      "midi": 41,
      "time": 45,
      "duration": 0.208,
      "velocity": 0.71,
      "hand": "left"
    },
    {
      "midi": 53,
      "time": 45,
      "duration": 0.208,
      "velocity": 0.71,
      "hand": "left"
    },
    {
      "midi": 74,
      "time": 45,
      "duration": 0.104,
      "velocity": 0.71,
      "hand": "right"
    },
    {
      "midi": 77,
      "time": 45,
      "duration": 0.104,
      "velocity": 0.71,
      "hand": "right"
    },
    {
      "midi": 81,
      "time": 45,
      "duration": 0.104,
      "velocity": 0.71,
      "hand": "right"
    },
    {
      "midi": 84,
      "time": 45.104,
      "duration": 0.104,
      "velocity": 0.71,
      "hand": "right"
    },
    {
      "midi": 82,
      "time": 45.208,
      "duration": 0.104,
      "velocity": 0.71,
      "hand": "right"
    },
    {
      "midi": 49,
      "time": 45.417,
      "duration": 0.417,
      "velocity": 0.71,
      "hand": "left"
    },
    {
      "midi": 71,
      "time": 45.417,
      "duration": 0.104,
      "velocity": 0.71,
      "hand": "right"
    },
    {
      "midi": 77,
      "time": 45.417,
      "duration": 0.104,
      "velocity": 0.71,
      "hand": "right"
    },
    {
      "midi": 80,
      "time": 45.417,
      "duration": 0.104,
      "velocity": 0.71,
      "hand": "right"
    },
    {
      "midi": 78,
      "time": 45.625,
      "duration": 0.104,
      "velocity": 0.71,
      "hand": "right"
    },
    {
      "midi": 48,
      "time": 45.833,
      "duration": 0.208,
      "velocity": 0.71,
      "hand": "left"
    },
    {
      "midi": 67,
      "time": 45.833,
      "duration": 0.104,
      "velocity": 0.71,
      "hand": "right"
    },
    {
      "midi": 72,
      "time": 45.833,
      "duration": 0.104,
      "velocity": 0.71,
      "hand": "right"
    },
    {
      "midi": 77,
      "time": 45.938,
      "duration": 0.104,
      "velocity": 0.71,
      "hand": "right"
    },
    {
      "midi": 79,
      "time": 46.146,
      "duration": 0.104,
      "velocity": 0.71,
      "hand": "right"
    },
    {
      "midi": 43,
      "time": 46.25,
      "duration": 0.417,
      "velocity": 0.71,
      "hand": "left"
    },
    {
      "midi": 55,
      "time": 46.25,
      "duration": 0.417,
      "velocity": 0.71,
      "hand": "left"
    },
    {
      "midi": 70,
      "time": 46.25,
      "duration": 0.104,
      "velocity": 0.71,
      "hand": "right"
    },
    {
      "midi": 75,
      "time": 46.25,
      "duration": 0.104,
      "velocity": 0.71,
      "hand": "right"
    },
    {
      "midi": 82,
      "time": 46.458,
      "duration": 0.104,
      "velocity": 0.71,
      "hand": "right"
    },
    {
      "midi": 39,
      "time": 46.667,
      "duration": 0.208,
      "velocity": 0.71,
      "hand": "left"
    },
    {
      "midi": 51,
      "time": 46.667,
      "duration": 0.208,
      "velocity": 0.71,
      "hand": "left"
    },
    {
      "midi": 75,
      "time": 46.667,
      "duration": 0.104,
      "velocity": 0.71,
      "hand": "right"
    },
    {
      "midi": 79,
      "time": 46.667,
      "duration": 0.104,
      "velocity": 0.71,
      "hand": "right"
    },
    {
      "midi": 84,
      "time": 46.667,
      "duration": 0.104,
      "velocity": 0.71,
      "hand": "right"
    },
    {
      "midi": 82,
      "time": 46.771,
      "duration": 0.104,
      "velocity": 0.71,
      "hand": "right"
    },
    {
      "midi": 81,
      "time": 46.875,
      "duration": 0.104,
      "velocity": 0.71,
      "hand": "right"
    },
    {
      "midi": 51,
      "time": 47.083,
      "duration": 0.819,
      "velocity": 0.71,
      "hand": "left"
    },
    {
      "midi": 70,
      "time": 47.083,
      "duration": 0.104,
      "velocity": 0.71,
      "hand": "right"
    },
    {
      "midi": 75,
      "time": 47.083,
      "duration": 0.104,
      "velocity": 0.71,
      "hand": "right"
    },
    {
      "midi": 79,
      "time": 47.083,
      "duration": 0.104,
      "velocity": 0.71,
      "hand": "right"
    },
    {
      "midi": 77,
      "time": 47.292,
      "duration": 0.104,
      "velocity": 0.71,
      "hand": "right"
    },
    {
      "midi": 67,
      "time": 47.5,
      "duration": 0.104,
      "velocity": 0.71,
      "hand": "right"
    },
    {
      "midi": 70,
      "time": 47.5,
      "duration": 0.104,
      "velocity": 0.71,
      "hand": "right"
    },
    {
      "midi": 75,
      "time": 47.5,
      "duration": 0.104,
      "velocity": 0.71,
      "hand": "right"
    },
    {
      "midi": 73,
      "time": 47.708,
      "duration": 0.104,
      "velocity": 0.71,
      "hand": "right"
    },
    {
      "midi": 39,
      "time": 47.917,
      "duration": 0.417,
      "velocity": 0.71,
      "hand": "left"
    },
    {
      "midi": 51,
      "time": 47.917,
      "duration": 0.417,
      "velocity": 0.71,
      "hand": "left"
    },
    {
      "midi": 61,
      "time": 47.917,
      "duration": 0.104,
      "velocity": 0.71,
      "hand": "right"
    },
    {
      "midi": 67,
      "time": 47.917,
      "duration": 0.104,
      "velocity": 0.71,
      "hand": "right"
    },
    {
      "midi": 70,
      "time": 47.917,
      "duration": 0.104,
      "velocity": 0.71,
      "hand": "right"
    },
    {
      "midi": 68,
      "time": 48.125,
      "duration": 0.104,
      "velocity": 0.71,
      "hand": "right"
    },
    {
      "midi": 38,
      "time": 48.333,
      "duration": 0.208,
      "velocity": 0.71,
      "hand": "left"
    },
    {
      "midi": 50,
      "time": 48.333,
      "duration": 0.208,
      "velocity": 0.71,
      "hand": "left"
    },
    {
      "midi": 62,
      "time": 48.333,
      "duration": 0.104,
      "velocity": 0.71,
      "hand": "right"
    },
    {
      "midi": 67,
      "time": 48.438,
      "duration": 0.104,
      "velocity": 0.71,
      "hand": "right"
    },
    {
      "midi": 39,
      "time": 48.75,
      "duration": 0.417,
      "velocity": 0.71,
      "hand": "left"
    },
    {
      "midi": 45,
      "time": 48.75,
      "duration": 0.417,
      "velocity": 0.71,
      "hand": "left"
    },
    {
      "midi": 61,
      "time": 48.75,
      "duration": 0.104,
      "velocity": 0.71,
      "hand": "right"
    },
    {
      "midi": 67,
      "time": 48.75,
      "duration": 0.104,
      "velocity": 0.71,
      "hand": "right"
    },
    {
      "midi": 70,
      "time": 48.75,
      "duration": 0.104,
      "velocity": 0.71,
      "hand": "right"
    },
    {
      "midi": 68,
      "time": 48.958,
      "duration": 0.104,
      "velocity": 0.71,
      "hand": "right"
    },
    {
      "midi": 38,
      "time": 49.167,
      "duration": 0.208,
      "velocity": 0.71,
      "hand": "left"
    },
    {
      "midi": 50,
      "time": 49.167,
      "duration": 0.208,
      "velocity": 0.71,
      "hand": "left"
    },
    {
      "midi": 62,
      "time": 49.167,
      "duration": 0.104,
      "velocity": 0.71,
      "hand": "right"
    },
    {
      "midi": 67,
      "time": 49.271,
      "duration": 0.104,
      "velocity": 0.71,
      "hand": "right"
    },
    {
      "midi": 39,
      "time": 49.583,
      "duration": 0.417,
      "velocity": 0.71,
      "hand": "left"
    },
    {
      "midi": 45,
      "time": 49.583,
      "duration": 0.417,
      "velocity": 0.71,
      "hand": "left"
    },
    {
      "midi": 61,
      "time": 49.583,
      "duration": 0.104,
      "velocity": 0.71,
      "hand": "right"
    },
    {
      "midi": 67,
      "time": 49.583,
      "duration": 0.104,
      "velocity": 0.71,
      "hand": "right"
    },
    {
      "midi": 70,
      "time": 49.583,
      "duration": 0.104,
      "velocity": 0.71,
      "hand": "right"
    },
    {
      "midi": 68,
      "time": 49.792,
      "duration": 0.104,
      "velocity": 0.71,
      "hand": "right"
    },
    {
      "midi": 38,
      "time": 50,
      "duration": 0.208,
      "velocity": 0.71,
      "hand": "left"
    },
    {
      "midi": 50,
      "time": 50,
      "duration": 0.208,
      "velocity": 0.71,
      "hand": "left"
    },
    {
      "midi": 62,
      "time": 50,
      "duration": 0.104,
      "velocity": 0.71,
      "hand": "right"
    },
    {
      "midi": 67,
      "time": 50.104,
      "duration": 0.104,
      "velocity": 0.71,
      "hand": "right"
    },
    {
      "midi": 69,
      "time": 50.313,
      "duration": 0.104,
      "velocity": 0.71,
      "hand": "right"
    },
    {
      "midi": 41,
      "time": 50.417,
      "duration": 0.417,
      "velocity": 0.71,
      "hand": "left"
    },
    {
      "midi": 47,
      "time": 50.417,
      "duration": 0.417,
      "velocity": 0.71,
      "hand": "left"
    },
    {
      "midi": 63,
      "time": 50.417,
      "duration": 0.104,
      "velocity": 0.71,
      "hand": "right"
    },
    {
      "midi": 72,
      "time": 50.417,
      "duration": 0.104,
      "velocity": 0.71,
      "hand": "right"
    },
    {
      "midi": 70,
      "time": 50.625,
      "duration": 0.104,
      "velocity": 0.71,
      "hand": "right"
    },
    {
      "midi": 40,
      "time": 50.833,
      "duration": 0.208,
      "velocity": 0.71,
      "hand": "left"
    },
    {
      "midi": 52,
      "time": 50.833,
      "duration": 0.208,
      "velocity": 0.71,
      "hand": "left"
    },
    {
      "midi": 64,
      "time": 50.833,
      "duration": 0.104,
      "velocity": 0.71,
      "hand": "right"
    },
    {
      "midi": 69,
      "time": 50.938,
      "duration": 0.104,
      "velocity": 0.71,
      "hand": "right"
    },
    {
      "midi": 41,
      "time": 51.25,
      "duration": 0.417,
      "velocity": 0.71,
      "hand": "left"
    },
    {
      "midi": 47,
      "time": 51.25,
      "duration": 0.417,
      "velocity": 0.71,
      "hand": "left"
    },
    {
      "midi": 63,
      "time": 51.25,
      "duration": 0.104,
      "velocity": 0.71,
      "hand": "right"
    },
    {
      "midi": 69,
      "time": 51.25,
      "duration": 0.104,
      "velocity": 0.71,
      "hand": "right"
    },
    {
      "midi": 72,
      "time": 51.25,
      "duration": 0.104,
      "velocity": 0.71,
      "hand": "right"
    },
    {
      "midi": 70,
      "time": 51.458,
      "duration": 0.104,
      "velocity": 0.71,
      "hand": "right"
    },
    {
      "midi": 40,
      "time": 51.667,
      "duration": 6.667,
      "velocity": 0.71,
      "hand": "left"
    },
    {
      "midi": 52,
      "time": 51.667,
      "duration": 6.667,
      "velocity": 0.71,
      "hand": "left"
    },
    {
      "midi": 64,
      "time": 51.667,
      "duration": 0.208,
      "velocity": 0.71,
      "hand": "right"
    },
    {
      "midi": 68,
      "time": 51.667,
      "duration": 0.208,
      "velocity": 0.71,
      "hand": "right"
    },
    {
      "midi": 80,
      "time": 52.083,
      "duration": 0.104,
      "velocity": 0.71,
      "hand": "right"
    },
    {
      "midi": 83,
      "time": 52.083,
      "duration": 0.104,
      "velocity": 0.71,
      "hand": "right"
    },
    {
      "midi": 77,
      "time": 52.188,
      "duration": 0.104,
      "velocity": 0.71,
      "hand": "right"
    },
    {
      "midi": 74,
      "time": 52.292,
      "duration": 0.104,
      "velocity": 0.71,
      "hand": "right"
    },
    {
      "midi": 76,
      "time": 52.396,
      "duration": 0.089,
      "velocity": 0.71,
      "hand": "right"
    },
    {
      "midi": 76,
      "time": 52.5,
      "duration": 0.104,
      "velocity": 0.71,
      "hand": "right"
    },
    {
      "midi": 81,
      "time": 52.5,
      "duration": 0.104,
      "velocity": 0.71,
      "hand": "right"
    },
    {
      "midi": 84,
      "time": 52.5,
      "duration": 0.104,
      "velocity": 0.71,
      "hand": "right"
    },
    {
      "midi": 74,
      "time": 52.604,
      "duration": 0.104,
      "velocity": 0.71,
      "hand": "right"
    },
    {
      "midi": 84,
      "time": 52.813,
      "duration": 0.104,
      "velocity": 0.71,
      "hand": "right"
    },
    {
      "midi": 72,
      "time": 52.917,
      "duration": 0.104,
      "velocity": 0.71,
      "hand": "right"
    },
    {
      "midi": 76,
      "time": 52.917,
      "duration": 0.104,
      "velocity": 0.71,
      "hand": "right"
    },
    {
      "midi": 81,
      "time": 52.917,
      "duration": 0.104,
      "velocity": 0.71,
      "hand": "right"
    },
    {
      "midi": 83,
      "time": 53.021,
      "duration": 0.104,
      "velocity": 0.71,
      "hand": "right"
    },
    {
      "midi": 79,
      "time": 53.125,
      "duration": 0.104,
      "velocity": 0.71,
      "hand": "right"
    },
    {
      "midi": 81,
      "time": 53.229,
      "duration": 0.104,
      "velocity": 0.71,
      "hand": "right"
    },
    {
      "midi": 69,
      "time": 53.333,
      "duration": 0.104,
      "velocity": 0.71,
      "hand": "right"
    },
    {
      "midi": 72,
      "time": 53.333,
      "duration": 0.104,
      "velocity": 0.71,
      "hand": "right"
    },
    {
      "midi": 77,
      "time": 53.333,
      "duration": 0.104,
      "velocity": 0.71,
      "hand": "right"
    },
    {
      "midi": 79,
      "time": 53.438,
      "duration": 0.104,
      "velocity": 0.71,
      "hand": "right"
    },
    {
      "midi": 77,
      "time": 53.646,
      "duration": 0.208,
      "velocity": 0.71,
      "hand": "right"
    },
    {
      "midi": 74,
      "time": 53.75,
      "duration": 0.104,
      "velocity": 0.71,
      "hand": "right"
    },
    {
      "midi": 81,
      "time": 53.75,
      "duration": 0.104,
      "velocity": 0.71,
      "hand": "right"
    },
    {
      "midi": 76,
      "time": 53.854,
      "duration": 0.104,
      "velocity": 0.71,
      "hand": "right"
    },
    {
      "midi": 84,
      "time": 53.958,
      "duration": 0.104,
      "velocity": 0.71,
      "hand": "right"
    },
    {
      "midi": 74,
      "time": 54.063,
      "duration": 0.089,
      "velocity": 0.71,
      "hand": "right"
    },
    {
      "midi": 74,
      "time": 54.167,
      "duration": 0.104,
      "velocity": 0.71,
      "hand": "right"
    },
    {
      "midi": 77,
      "time": 54.167,
      "duration": 0.104,
      "velocity": 0.71,
      "hand": "right"
    },
    {
      "midi": 84,
      "time": 54.271,
      "duration": 0.104,
      "velocity": 0.71,
      "hand": "right"
    },
    {
      "midi": 81,
      "time": 54.375,
      "duration": 0.104,
      "velocity": 0.71,
      "hand": "right"
    },
    {
      "midi": 83,
      "time": 54.479,
      "duration": 0.104,
      "velocity": 0.71,
      "hand": "right"
    },
    {
      "midi": 71,
      "time": 54.583,
      "duration": 0.104,
      "velocity": 0.71,
      "hand": "right"
    },
    {
      "midi": 74,
      "time": 54.583,
      "duration": 0.104,
      "velocity": 0.71,
      "hand": "right"
    },
    {
      "midi": 81,
      "time": 54.688,
      "duration": 0.104,
      "velocity": 0.71,
      "hand": "right"
    },
    {
      "midi": 77,
      "time": 54.792,
      "duration": 0.104,
      "velocity": 0.71,
      "hand": "right"
    },
    {
      "midi": 79,
      "time": 54.896,
      "duration": 0.104,
      "velocity": 0.71,
      "hand": "right"
    },
    {
      "midi": 68,
      "time": 55,
      "duration": 0.104,
      "velocity": 0.71,
      "hand": "right"
    },
    {
      "midi": 71,
      "time": 55,
      "duration": 0.104,
      "velocity": 0.71,
      "hand": "right"
    },
    {
      "midi": 77,
      "time": 55.104,
      "duration": 0.104,
      "velocity": 0.71,
      "hand": "right"
    },
    {
      "midi": 76,
      "time": 55.313,
      "duration": 0.208,
      "velocity": 0.71,
      "hand": "right"
    },
    {
      "midi": 81,
      "time": 55.417,
      "duration": 0.104,
      "velocity": 0.71,
      "hand": "right"
    },
    {
      "midi": 84,
      "time": 55.417,
      "duration": 0.104,
      "velocity": 0.71,
      "hand": "right"
    },
    {
      "midi": 74,
      "time": 55.521,
      "duration": 0.104,
      "velocity": 0.71,
      "hand": "right"
    },
    {
      "midi": 84,
      "time": 55.729,
      "duration": 0.104,
      "velocity": 0.71,
      "hand": "right"
    },
    {
      "midi": 72,
      "time": 55.833,
      "duration": 0.104,
      "velocity": 0.71,
      "hand": "right"
    },
    {
      "midi": 76,
      "time": 55.833,
      "duration": 0.104,
      "velocity": 0.71,
      "hand": "right"
    },
    {
      "midi": 81,
      "time": 55.833,
      "duration": 0.104,
      "velocity": 0.71,
      "hand": "right"
    },
    {
      "midi": 83,
      "time": 55.938,
      "duration": 0.104,
      "velocity": 0.71,
      "hand": "right"
    },
    {
      "midi": 79,
      "time": 56.042,
      "duration": 0.104,
      "velocity": 0.71,
      "hand": "right"
    },
    {
      "midi": 81,
      "time": 56.146,
      "duration": 0.104,
      "velocity": 0.71,
      "hand": "right"
    },
    {
      "midi": 69,
      "time": 56.25,
      "duration": 0.104,
      "velocity": 0.71,
      "hand": "right"
    },
    {
      "midi": 72,
      "time": 56.25,
      "duration": 0.104,
      "velocity": 0.71,
      "hand": "right"
    },
    {
      "midi": 77,
      "time": 56.25,
      "duration": 0.104,
      "velocity": 0.71,
      "hand": "right"
    },
    {
      "midi": 79,
      "time": 56.354,
      "duration": 0.104,
      "velocity": 0.71,
      "hand": "right"
    },
    {
      "midi": 77,
      "time": 56.563,
      "duration": 0.104,
      "velocity": 0.71,
      "hand": "right"
    },
    {
      "midi": 65,
      "time": 56.667,
      "duration": 0.104,
      "velocity": 0.71,
      "hand": "right"
    },
    {
      "midi": 69,
      "time": 56.667,
      "duration": 0.104,
      "velocity": 0.71,
      "hand": "right"
    },
    {
      "midi": 74,
      "time": 56.667,
      "duration": 0.104,
      "velocity": 0.71,
      "hand": "right"
    },
    {
      "midi": 76,
      "time": 56.771,
      "duration": 0.104,
      "velocity": 0.71,
      "hand": "right"
    },
    {
      "midi": 72,
      "time": 56.875,
      "duration": 0.104,
      "velocity": 0.71,
      "hand": "right"
    },
    {
      "midi": 74,
      "time": 56.979,
      "duration": 0.104,
      "velocity": 0.71,
      "hand": "right"
    },
    {
      "midi": 62,
      "time": 57.083,
      "duration": 0.104,
      "velocity": 0.71,
      "hand": "right"
    },
    {
      "midi": 65,
      "time": 57.083,
      "duration": 0.104,
      "velocity": 0.71,
      "hand": "right"
    },
    {
      "midi": 72,
      "time": 57.188,
      "duration": 0.104,
      "velocity": 0.71,
      "hand": "right"
    },
    {
      "midi": 69,
      "time": 57.292,
      "duration": 0.104,
      "velocity": 0.71,
      "hand": "right"
    },
    {
      "midi": 71,
      "time": 57.396,
      "duration": 0.104,
      "velocity": 0.71,
      "hand": "right"
    },
    {
      "midi": 59,
      "time": 57.5,
      "duration": 0.104,
      "velocity": 0.71,
      "hand": "left"
    },
    {
      "midi": 62,
      "time": 57.5,
      "duration": 0.104,
      "velocity": 0.71,
      "hand": "right"
    },
    {
      "midi": 68,
      "time": 57.5,
      "duration": 0.104,
      "velocity": 0.71,
      "hand": "right"
    },
    {
      "midi": 65,
      "time": 57.604,
      "duration": 0.104,
      "velocity": 0.71,
      "hand": "right"
    },
    {
      "midi": 64,
      "time": 57.813,
      "duration": 0.104,
      "velocity": 0.71,
      "hand": "right"
    },
    {
      "midi": 66,
      "time": 58.021,
      "duration": 0.104,
      "velocity": 0.71,
      "hand": "right"
    },
    {
      "midi": 68,
      "time": 58.229,
      "duration": 0.104,
      "velocity": 0.71,
      "hand": "right"
    },
    {
      "midi": 45,
      "time": 58.333,
      "duration": 0.208,
      "velocity": 0.71,
      "hand": "left"
    },
    {
      "midi": 60,
      "time": 58.333,
      "duration": 0.104,
      "velocity": 0.71,
      "hand": "right"
    },
    {
      "midi": 64,
      "time": 58.333,
      "duration": 0.104,
      "velocity": 0.71,
      "hand": "right"
    },
    {
      "midi": 70,
      "time": 58.438,
      "duration": 0.104,
      "velocity": 0.71,
      "hand": "right"
    },
    {
      "midi": 72,
      "time": 58.646,
      "duration": 0.104,
      "velocity": 0.71,
      "hand": "right"
    },
    {
      "midi": 52,
      "time": 58.75,
      "duration": 0.208,
      "velocity": 0.71,
      "hand": "left"
    },
    {
      "midi": 57,
      "time": 58.75,
      "duration": 0.208,
      "velocity": 0.71,
      "hand": "left"
    },
    {
      "midi": 64,
      "time": 58.75,
      "duration": 0.104,
      "velocity": 0.71,
      "hand": "right"
    },
    {
      "midi": 69,
      "time": 58.75,
      "duration": 0.104,
      "velocity": 0.71,
      "hand": "right"
    },
    {
      "midi": 74,
      "time": 58.854,
      "duration": 0.104,
      "velocity": 0.71,
      "hand": "right"
    },
    {
      "midi": 76,
      "time": 59.063,
      "duration": 0.104,
      "velocity": 0.71,
      "hand": "right"
    },
    {
      "midi": 45,
      "time": 59.167,
      "duration": 0.208,
      "velocity": 0.71,
      "hand": "left"
    },
    {
      "midi": 69,
      "time": 59.167,
      "duration": 0.104,
      "velocity": 0.71,
      "hand": "right"
    },
    {
      "midi": 74,
      "time": 59.167,
      "duration": 0.104,
      "velocity": 0.71,
      "hand": "right"
    },
    {
      "midi": 78,
      "time": 59.271,
      "duration": 0.104,
      "velocity": 0.71,
      "hand": "right"
    },
    {
      "midi": 80,
      "time": 59.479,
      "duration": 0.104,
      "velocity": 0.71,
      "hand": "right"
    },
    {
      "midi": 53,
      "time": 59.583,
      "duration": 0.208,
      "velocity": 0.71,
      "hand": "left"
    },
    {
      "midi": 57,
      "time": 59.583,
      "duration": 0.208,
      "velocity": 0.71,
      "hand": "left"
    },
    {
      "midi": 74,
      "time": 59.583,
      "duration": 0.104,
      "velocity": 0.71,
      "hand": "right"
    },
    {
      "midi": 77,
      "time": 59.583,
      "duration": 0.104,
      "velocity": 0.71,
      "hand": "right"
    },
    {
      "midi": 82,
      "time": 59.688,
      "duration": 0.104,
      "velocity": 0.71,
      "hand": "right"
    },
    {
      "midi": 84,
      "time": 59.896,
      "duration": 0.104,
      "velocity": 0.71,
      "hand": "right"
    },
    {
      "midi": 45,
      "time": 60,
      "duration": 0.208,
      "velocity": 0.71,
      "hand": "left"
    },
    {
      "midi": 76,
      "time": 60,
      "duration": 0.104,
      "velocity": 0.71,
      "hand": "right"
    },
    {
      "midi": 81,
      "time": 60,
      "duration": 0.104,
      "velocity": 0.71,
      "hand": "right"
    },
    {
      "midi": 74,
      "time": 60.104,
      "duration": 0.104,
      "velocity": 0.71,
      "hand": "right"
    },
    {
      "midi": 52,
      "time": 60.417,
      "duration": 0.208,
      "velocity": 0.71,
      "hand": "left"
    },
    {
      "midi": 57,
      "time": 60.417,
      "duration": 0.208,
      "velocity": 0.71,
      "hand": "left"
    },
    {
      "midi": 77,
      "time": 60.417,
      "duration": 0.104,
      "velocity": 0.71,
      "hand": "right"
    },
    {
      "midi": 81,
      "time": 60.417,
      "duration": 0.104,
      "velocity": 0.71,
      "hand": "right"
    },
    {
      "midi": 84,
      "time": 60.417,
      "duration": 0.104,
      "velocity": 0.71,
      "hand": "right"
    },
    {
      "midi": 75,
      "time": 60.625,
      "duration": 0.104,
      "velocity": 0.71,
      "hand": "right"
    },
    {
      "midi": 57,
      "time": 60.833,
      "duration": 0.208,
      "velocity": 0.71,
      "hand": "left"
    },
    {
      "midi": 73,
      "time": 60.833,
      "duration": 0.104,
      "velocity": 0.71,
      "hand": "right"
    },
    {
      "midi": 76,
      "time": 60.833,
      "duration": 0.104,
      "velocity": 0.71,
      "hand": "right"
    },
    {
      "midi": 81,
      "time": 60.833,
      "duration": 0.104,
      "velocity": 0.71,
      "hand": "right"
    },
    {
      "midi": 84,
      "time": 60.938,
      "duration": 0.104,
      "velocity": 0.71,
      "hand": "right"
    },
    {
      "midi": 83,
      "time": 61.042,
      "duration": 0.104,
      "velocity": 0.71,
      "hand": "right"
    },
    {
      "midi": 72,
      "time": 61.25,
      "duration": 0.104,
      "velocity": 0.71,
      "hand": "right"
    },
    {
      "midi": 76,
      "time": 61.25,
      "duration": 0.104,
      "velocity": 0.71,
      "hand": "right"
    },
    {
      "midi": 81,
      "time": 61.25,
      "duration": 0.104,
      "velocity": 0.71,
      "hand": "right"
    },
    {
      "midi": 83,
      "time": 61.458,
      "duration": 0.104,
      "velocity": 0.71,
      "hand": "right"
    },
    {
      "midi": 81,
      "time": 61.563,
      "duration": 0.104,
      "velocity": 0.71,
      "hand": "right"
    },
    {
      "midi": 40,
      "time": 61.667,
      "duration": 0.208,
      "velocity": 0.71,
      "hand": "left"
    },
    {
      "midi": 71,
      "time": 61.667,
      "duration": 0.104,
      "velocity": 0.71,
      "hand": "right"
    },
    {
      "midi": 76,
      "time": 61.667,
      "duration": 0.104,
      "velocity": 0.71,
      "hand": "right"
    },
    {
      "midi": 80,
      "time": 61.667,
      "duration": 0.104,
      "velocity": 0.71,
      "hand": "right"
    },
    {
      "midi": 78,
      "time": 61.875,
      "duration": 0.104,
      "velocity": 0.71,
      "hand": "right"
    },
    {
      "midi": 52,
      "time": 62.083,
      "duration": 0.208,
      "velocity": 0.71,
      "hand": "left"
    },
    {
      "midi": 59,
      "time": 62.083,
      "duration": 0.208,
      "velocity": 0.71,
      "hand": "left"
    },
    {
      "midi": 68,
      "time": 62.083,
      "duration": 0.104,
      "velocity": 0.71,
      "hand": "right"
    },
    {
      "midi": 71,
      "time": 62.083,
      "duration": 0.104,
      "velocity": 0.71,
      "hand": "right"
    },
    {
      "midi": 76,
      "time": 62.083,
      "duration": 0.104,
      "velocity": 0.71,
      "hand": "right"
    },
    {
      "midi": 77,
      "time": 62.292,
      "duration": 0.104,
      "velocity": 0.71,
      "hand": "right"
    },
    {
      "midi": 45,
      "time": 62.5,
      "duration": 0.208,
      "velocity": 0.71,
      "hand": "left"
    },
    {
      "midi": 69,
      "time": 62.5,
      "duration": 0.104,
      "velocity": 0.71,
      "hand": "right"
    },
    {
      "midi": 72,
      "time": 62.5,
      "duration": 0.104,
      "velocity": 0.71,
      "hand": "right"
    },
    {
      "midi": 75,
      "time": 62.5,
      "duration": 0.104,
      "velocity": 0.71,
      "hand": "right"
    },
    {
      "midi": 73,
      "time": 62.708,
      "duration": 0.104,
      "velocity": 0.71,
      "hand": "right"
    },
    {
      "midi": 52,
      "time": 62.917,
      "duration": 0.208,
      "velocity": 0.71,
      "hand": "left"
    },
    {
      "midi": 57,
      "time": 62.917,
      "duration": 0.208,
      "velocity": 0.71,
      "hand": "left"
    },
    {
      "midi": 64,
      "time": 62.917,
      "duration": 0.104,
      "velocity": 0.71,
      "hand": "right"
    },
    {
      "midi": 69,
      "time": 62.917,
      "duration": 0.104,
      "velocity": 0.71,
      "hand": "right"
    },
    {
      "midi": 72,
      "time": 63.021,
      "duration": 0.104,
      "velocity": 0.71,
      "hand": "right"
    },
    {
      "midi": 74,
      "time": 63.125,
      "duration": 0.104,
      "velocity": 0.71,
      "hand": "right"
    },
    {
      "midi": 72,
      "time": 63.229,
      "duration": 0.104,
      "velocity": 0.71,
      "hand": "right"
    },
    {
      "midi": 52,
      "time": 63.333,
      "duration": 0.208,
      "velocity": 0.71,
      "hand": "left"
    },
    {
      "midi": 59,
      "time": 63.333,
      "duration": 0.208,
      "velocity": 0.71,
      "hand": "left"
    },
    {
      "midi": 64,
      "time": 63.333,
      "duration": 0.104,
      "velocity": 0.71,
      "hand": "right"
    },
    {
      "midi": 68,
      "time": 63.333,
      "duration": 0.104,
      "velocity": 0.71,
      "hand": "right"
    },
    {
      "midi": 72,
      "time": 63.438,
      "duration": 0.104,
      "velocity": 0.71,
      "hand": "right"
    },
    {
      "midi": 72,
      "time": 63.646,
      "duration": 0.104,
      "velocity": 0.71,
      "hand": "right"
    },
    {
      "midi": 53,
      "time": 63.75,
      "duration": 0.417,
      "velocity": 0.71,
      "hand": "left"
    },
    {
      "midi": 59,
      "time": 63.75,
      "duration": 0.625,
      "velocity": 0.71,
      "hand": "left"
    },
    {
      "midi": 63,
      "time": 63.75,
      "duration": 0.104,
      "velocity": 0.71,
      "hand": "right"
    },
    {
      "midi": 69,
      "time": 63.75,
      "duration": 0.104,
      "velocity": 0.71,
      "hand": "right"
    },
    {
      "midi": 72,
      "time": 63.854,
      "duration": 0.104,
      "velocity": 0.71,
      "hand": "right"
    },
    {
      "midi": 72,
      "time": 64.063,
      "duration": 0.104,
      "velocity": 0.71,
      "hand": "right"
    },
    {
      "midi": 52,
      "time": 64.167,
      "duration": 0.208,
      "velocity": 0.71,
      "hand": "left"
    },
    {
      "midi": 64,
      "time": 64.167,
      "duration": 0.104,
      "velocity": 0.71,
      "hand": "right"
    },
    {
      "midi": 68,
      "time": 64.167,
      "duration": 0.104,
      "velocity": 0.71,
      "hand": "right"
    },
    {
      "midi": 76,
      "time": 64.271,
      "duration": 0.104,
      "velocity": 0.71,
      "hand": "right"
    },
    {
      "midi": 62,
      "time": 64.583,
      "duration": 0.104,
      "velocity": 0.71,
      "hand": "right"
    },
    {
      "midi": 68,
      "time": 64.583,
      "duration": 0.104,
      "velocity": 0.71,
      "hand": "right"
    },
    {
      "midi": 73,
      "time": 64.583,
      "duration": 0.104,
      "velocity": 0.71,
      "hand": "right"
    },
    {
      "midi": 71,
      "time": 64.792,
      "duration": 0.104,
      "velocity": 0.71,
      "hand": "right"
    },
    {
      "midi": 45,
      "time": 65,
      "duration": 0.208,
      "velocity": 0.71,
      "hand": "left"
    },
    {
      "midi": 60,
      "time": 65,
      "duration": 0.104,
      "velocity": 0.71,
      "hand": "right"
    },
    {
      "midi": 64,
      "time": 65,
      "duration": 0.104,
      "velocity": 0.71,
      "hand": "right"
    },
    {
      "midi": 70,
      "time": 65.104,
      "duration": 0.104,
      "velocity": 0.71,
      "hand": "right"
    },
    {
      "midi": 72,
      "time": 65.313,
      "duration": 0.104,
      "velocity": 0.71,
      "hand": "right"
    },
    {
      "midi": 52,
      "time": 65.417,
      "duration": 0.208,
      "velocity": 0.71,
      "hand": "left"
    },
    {
      "midi": 57,
      "time": 65.417,
      "duration": 0.208,
      "velocity": 0.71,
      "hand": "left"
    },
    {
      "midi": 64,
      "time": 65.417,
      "duration": 0.104,
      "velocity": 0.71,
      "hand": "right"
    },
    {
      "midi": 69,
      "time": 65.417,
      "duration": 0.104,
      "velocity": 0.71,
      "hand": "right"
    },
    {
      "midi": 74,
      "time": 65.521,
      "duration": 0.104,
      "velocity": 0.71,
      "hand": "right"
    },
    {
      "midi": 76,
      "time": 65.729,
      "duration": 0.104,
      "velocity": 0.71,
      "hand": "right"
    },
    {
      "midi": 45,
      "time": 65.833,
      "duration": 0.208,
      "velocity": 0.71,
      "hand": "left"
    },
    {
      "midi": 69,
      "time": 65.833,
      "duration": 0.104,
      "velocity": 0.71,
      "hand": "right"
    },
    {
      "midi": 74,
      "time": 65.833,
      "duration": 0.104,
      "velocity": 0.71,
      "hand": "right"
    },
    {
      "midi": 78,
      "time": 65.938,
      "duration": 0.104,
      "velocity": 0.71,
      "hand": "right"
    },
    {
      "midi": 80,
      "time": 66.146,
      "duration": 0.104,
      "velocity": 0.71,
      "hand": "right"
    },
    {
      "midi": 53,
      "time": 66.25,
      "duration": 0.208,
      "velocity": 0.71,
      "hand": "left"
    },
    {
      "midi": 57,
      "time": 66.25,
      "duration": 0.208,
      "velocity": 0.71,
      "hand": "left"
    },
    {
      "midi": 74,
      "time": 66.25,
      "duration": 0.104,
      "velocity": 0.71,
      "hand": "right"
    },
    {
      "midi": 77,
      "time": 66.25,
      "duration": 0.104,
      "velocity": 0.71,
      "hand": "right"
    },
    {
      "midi": 82,
      "time": 66.354,
      "duration": 0.104,
      "velocity": 0.71,
      "hand": "right"
    },
    {
      "midi": 84,
      "time": 66.563,
      "duration": 0.104,
      "velocity": 0.71,
      "hand": "right"
    },
    {
      "midi": 45,
      "time": 66.667,
      "duration": 0.208,
      "velocity": 0.71,
      "hand": "left"
    },
    {
      "midi": 76,
      "time": 66.667,
      "duration": 0.104,
      "velocity": 0.71,
      "hand": "right"
    },
    {
      "midi": 81,
      "time": 66.667,
      "duration": 0.104,
      "velocity": 0.71,
      "hand": "right"
    },
    {
      "midi": 74,
      "time": 66.771,
      "duration": 0.104,
      "velocity": 0.71,
      "hand": "right"
    },
    {
      "midi": 52,
      "time": 67.083,
      "duration": 0.208,
      "velocity": 0.71,
      "hand": "left"
    },
    {
      "midi": 57,
      "time": 67.083,
      "duration": 0.208,
      "velocity": 0.71,
      "hand": "left"
    },
    {
      "midi": 77,
      "time": 67.083,
      "duration": 0.104,
      "velocity": 0.71,
      "hand": "right"
    },
    {
      "midi": 81,
      "time": 67.083,
      "duration": 0.104,
      "velocity": 0.71,
      "hand": "right"
    },
    {
      "midi": 84,
      "time": 67.083,
      "duration": 0.104,
      "velocity": 0.71,
      "hand": "right"
    },
    {
      "midi": 75,
      "time": 67.292,
      "duration": 0.104,
      "velocity": 0.71,
      "hand": "right"
    },
    {
      "midi": 57,
      "time": 67.5,
      "duration": 0.208,
      "velocity": 0.71,
      "hand": "left"
    },
    {
      "midi": 73,
      "time": 67.5,
      "duration": 0.104,
      "velocity": 0.71,
      "hand": "right"
    },
    {
      "midi": 76,
      "time": 67.5,
      "duration": 0.104,
      "velocity": 0.71,
      "hand": "right"
    },
    {
      "midi": 81,
      "time": 67.5,
      "duration": 0.104,
      "velocity": 0.71,
      "hand": "right"
    },
    {
      "midi": 84,
      "time": 67.604,
      "duration": 0.104,
      "velocity": 0.71,
      "hand": "right"
    },
    {
      "midi": 83,
      "time": 67.708,
      "duration": 0.104,
      "velocity": 0.71,
      "hand": "right"
    },
    {
      "midi": 72,
      "time": 67.917,
      "duration": 0.104,
      "velocity": 0.71,
      "hand": "right"
    },
    {
      "midi": 76,
      "time": 67.917,
      "duration": 0.104,
      "velocity": 0.71,
      "hand": "right"
    },
    {
      "midi": 81,
      "time": 67.917,
      "duration": 0.104,
      "velocity": 0.71,
      "hand": "right"
    },
    {
      "midi": 83,
      "time": 68.125,
      "duration": 0.104,
      "velocity": 0.71,
      "hand": "right"
    },
    {
      "midi": 81,
      "time": 68.229,
      "duration": 0.104,
      "velocity": 0.71,
      "hand": "right"
    },
    {
      "midi": 38,
      "time": 68.333,
      "duration": 0.208,
      "velocity": 0.71,
      "hand": "left"
    },
    {
      "midi": 50,
      "time": 68.333,
      "duration": 0.208,
      "velocity": 0.71,
      "hand": "left"
    },
    {
      "midi": 74,
      "time": 68.333,
      "duration": 0.104,
      "velocity": 0.71,
      "hand": "right"
    },
    {
      "midi": 77,
      "time": 68.333,
      "duration": 0.104,
      "velocity": 0.71,
      "hand": "right"
    },
    {
      "midi": 83,
      "time": 68.438,
      "duration": 0.104,
      "velocity": 0.71,
      "hand": "right"
    },
    {
      "midi": 84,
      "time": 68.542,
      "duration": 0.104,
      "velocity": 0.71,
      "hand": "right"
    },
    {
      "midi": 73,
      "time": 68.646,
      "duration": 0.104,
      "velocity": 0.71,
      "hand": "right"
    },
    {
      "midi": 50,
      "time": 68.75,
      "duration": 0.208,
      "velocity": 0.71,
      "hand": "left"
    },
    {
      "midi": 53,
      "time": 68.75,
      "duration": 0.208,
      "velocity": 0.71,
      "hand": "left"
    },
    {
      "midi": 77,
      "time": 68.75,
      "duration": 0.104,
      "velocity": 0.71,
      "hand": "right"
    },
    {
      "midi": 82,
      "time": 68.75,
      "duration": 0.104,
      "velocity": 0.71,
      "hand": "right"
    },
    {
      "midi": 75,
      "time": 68.854,
      "duration": 0.104,
      "velocity": 0.71,
      "hand": "right"
    },
    {
      "midi": 77,
      "time": 69.063,
      "duration": 0.104,
      "velocity": 0.71,
      "hand": "right"
    },
    {
      "midi": 40,
      "time": 69.167,
      "duration": 0.208,
      "velocity": 0.71,
      "hand": "left"
    },
    {
      "midi": 52,
      "time": 69.167,
      "duration": 0.208,
      "velocity": 0.71,
      "hand": "left"
    },
    {
      "midi": 74,
      "time": 69.167,
      "duration": 0.104,
      "velocity": 0.71,
      "hand": "right"
    },
    {
      "midi": 80,
      "time": 69.167,
      "duration": 0.104,
      "velocity": 0.71,
      "hand": "right"
    },
    {
      "midi": 77,
      "time": 69.271,
      "duration": 0.104,
      "velocity": 0.71,
      "hand": "right"
    },
    {
      "midi": 79,
      "time": 69.479,
      "duration": 0.104,
      "velocity": 0.71,
      "hand": "right"
    },
    {
      "midi": 52,
      "time": 69.583,
      "duration": 0.208,
      "velocity": 0.71,
      "hand": "left"
    },
    {
      "midi": 59,
      "time": 69.583,
      "duration": 0.208,
      "velocity": 0.71,
      "hand": "left"
    },
    {
      "midi": 62,
      "time": 69.583,
      "duration": 0.208,
      "velocity": 0.71,
      "hand": "right"
    },
    {
      "midi": 74,
      "time": 69.583,
      "duration": 0.104,
      "velocity": 0.71,
      "hand": "right"
    },
    {
      "midi": 81,
      "time": 69.688,
      "duration": 0.104,
      "velocity": 0.71,
      "hand": "right"
    },
    {
      "midi": 41,
      "time": 70,
      "duration": 0.208,
      "velocity": 0.71,
      "hand": "left"
    },
    {
      "midi": 53,
      "time": 70,
      "duration": 0.208,
      "velocity": 0.71,
      "hand": "left"
    },
    {
      "midi": 81,
      "time": 70,
      "duration": 0.104,
      "velocity": 0.71,
      "hand": "right"
    },
    {
      "midi": 84,
      "time": 70,
      "duration": 0.104,
      "velocity": 0.75,
      "hand": "right"
    },
    {
      "midi": 79,
      "time": 70.208,
      "duration": 0.104,
      "velocity": 0.71,
      "hand": "right"
    },
    {
      "midi": 57,
      "time": 70.417,
      "duration": 0.208,
      "velocity": 0.71,
      "hand": "left"
    },
    {
      "midi": 77,
      "time": 70.417,
      "duration": 0.104,
      "velocity": 0.71,
      "hand": "right"
    },
    {
      "midi": 81,
      "time": 70.417,
      "duration": 0.104,
      "velocity": 0.75,
      "hand": "right"
    },
    {
      "midi": 84,
      "time": 70.417,
      "duration": 0.104,
      "velocity": 0.75,
      "hand": "right"
    },
    {
      "midi": 75,
      "time": 70.625,
      "duration": 0.104,
      "velocity": 0.71,
      "hand": "right"
    },
    {
      "midi": 36,
      "time": 70.833,
      "duration": 0.208,
      "velocity": 0.71,
      "hand": "left"
    },
    {
      "midi": 48,
      "time": 70.833,
      "duration": 0.208,
      "velocity": 0.71,
      "hand": "left"
    },
    {
      "midi": 73,
      "time": 70.833,
      "duration": 0.104,
      "velocity": 0.71,
      "hand": "right"
    },
    {
      "midi": 76,
      "time": 70.833,
      "duration": 0.104,
      "velocity": 0.75,
      "hand": "right"
    },
    {
      "midi": 81,
      "time": 70.833,
      "duration": 0.104,
      "velocity": 0.75,
      "hand": "right"
    },
    {
      "midi": 84,
      "time": 70.938,
      "duration": 0.104,
      "velocity": 0.71,
      "hand": "right"
    },
    {
      "midi": 83,
      "time": 71.042,
      "duration": 0.104,
      "velocity": 0.71,
      "hand": "right"
    },
    {
      "midi": 52,
      "time": 71.25,
      "duration": 0.208,
      "velocity": 0.71,
      "hand": "left"
    },
    {
      "midi": 57,
      "time": 71.25,
      "duration": 0.208,
      "velocity": 0.71,
      "hand": "left"
    },
    {
      "midi": 72,
      "time": 71.25,
      "duration": 0.104,
      "velocity": 0.75,
      "hand": "right"
    },
    {
      "midi": 76,
      "time": 71.25,
      "duration": 0.104,
      "velocity": 0.75,
      "hand": "right"
    },
    {
      "midi": 81,
      "time": 71.25,
      "duration": 0.104,
      "velocity": 0.71,
      "hand": "right"
    },
    {
      "midi": 79,
      "time": 71.458,
      "duration": 0.104,
      "velocity": 0.71,
      "hand": "right"
    },
    {
      "midi": 38,
      "time": 71.667,
      "duration": 0.208,
      "velocity": 0.71,
      "hand": "left"
    },
    {
      "midi": 70,
      "time": 71.667,
      "duration": 0.104,
      "velocity": 0.75,
      "hand": "right"
    },
    {
      "midi": 74,
      "time": 71.667,
      "duration": 0.104,
      "velocity": 0.75,
      "hand": "right"
    },
    {
      "midi": 77,
      "time": 71.667,
      "duration": 0.104,
      "velocity": 0.71,
      "hand": "right"
    },
    {
      "midi": 75,
      "time": 71.875,
      "duration": 0.104,
      "velocity": 0.71,
      "hand": "right"
    },
    {
      "midi": 50,
      "time": 72.083,
      "duration": 0.417,
      "velocity": 0.71,
      "hand": "left"
    },
    {
      "midi": 53,
      "time": 72.083,
      "duration": 0.417,
      "velocity": 0.71,
      "hand": "left"
    },
    {
      "midi": 65,
      "time": 72.083,
      "duration": 0.104,
      "velocity": 0.75,
      "hand": "right"
    },
    {
      "midi": 70,
      "time": 72.083,
      "duration": 0.104,
      "velocity": 0.75,
      "hand": "right"
    },
    {
      "midi": 74,
      "time": 72.188,
      "duration": 0.104,
      "velocity": 0.71,
      "hand": "right"
    },
    {
      "midi": 77,
      "time": 72.292,
      "duration": 0.104,
      "velocity": 0.71,
      "hand": "right"
    },
    {
      "midi": 74,
      "time": 72.396,
      "duration": 0.104,
      "velocity": 0.71,
      "hand": "right"
    },
    {
      "midi": 52,
      "time": 72.5,
      "duration": 0.402,
      "velocity": 0.71,
      "hand": "left"
    },
    {
      "midi": 57,
      "time": 72.5,
      "duration": 0.417,
      "velocity": 0.71,
      "hand": "left"
    },
    {
      "midi": 64,
      "time": 72.5,
      "duration": 0.104,
      "velocity": 0.75,
      "hand": "right"
    },
    {
      "midi": 69,
      "time": 72.5,
      "duration": 0.104,
      "velocity": 0.75,
      "hand": "right"
    },
    {
      "midi": 72,
      "time": 72.604,
      "duration": 0.104,
      "velocity": 0.71,
      "hand": "right"
    },
    {
      "midi": 76,
      "time": 72.708,
      "duration": 0.104,
      "velocity": 0.71,
      "hand": "right"
    },
    {
      "midi": 72,
      "time": 72.813,
      "duration": 0.104,
      "velocity": 0.71,
      "hand": "right"
    },
    {
      "midi": 52,
      "time": 72.917,
      "duration": 0.417,
      "velocity": 0.71,
      "hand": "left"
    },
    {
      "midi": 59,
      "time": 72.917,
      "duration": 0.417,
      "velocity": 0.71,
      "hand": "left"
    },
    {
      "midi": 62,
      "time": 72.917,
      "duration": 0.104,
      "velocity": 0.75,
      "hand": "right"
    },
    {
      "midi": 68,
      "time": 72.917,
      "duration": 0.104,
      "velocity": 0.75,
      "hand": "right"
    },
    {
      "midi": 71,
      "time": 73.021,
      "duration": 0.104,
      "velocity": 0.71,
      "hand": "right"
    },
    {
      "midi": 76,
      "time": 73.125,
      "duration": 0.104,
      "velocity": 0.71,
      "hand": "right"
    },
    {
      "midi": 71,
      "time": 73.229,
      "duration": 0.104,
      "velocity": 0.71,
      "hand": "right"
    },
    {
      "midi": 45,
      "time": 73.333,
      "duration": 0.208,
      "velocity": 0.71,
      "hand": "left"
    },
    {
      "midi": 57,
      "time": 73.333,
      "duration": 0.208,
      "velocity": 0.71,
      "hand": "left"
    },
    {
      "midi": 60,
      "time": 73.333,
      "duration": 0.104,
      "velocity": 0.75,
      "hand": "right"
    },
    {
      "midi": 70,
      "time": 73.438,
      "duration": 0.104,
      "velocity": 0.71,
      "hand": "right"
    },
    {
      "midi": 72,
      "time": 73.646,
      "duration": 0.104,
      "velocity": 0.71,
      "hand": "right"
    },
    {
      "midi": 41,
      "time": 73.75,
      "duration": 0.833,
      "velocity": 0.71,
      "hand": "left"
    },
    {
      "midi": 53,
      "time": 73.75,
      "duration": 0.833,
      "velocity": 0.71,
      "hand": "left"
    },
    {
      "midi": 62,
      "time": 73.75,
      "duration": 0.104,
      "velocity": 0.75,
      "hand": "right"
    },
    {
      "midi": 69,
      "time": 73.75,
      "duration": 0.104,
      "velocity": 0.75,
      "hand": "right"
    },
    {
      "midi": 74,
      "time": 73.854,
      "duration": 0.104,
      "velocity": 0.71,
      "hand": "right"
    },
    {
      "midi": 76,
      "time": 74.063,
      "duration": 0.104,
      "velocity": 0.71,
      "hand": "right"
    },
    {
      "midi": 69,
      "time": 74.167,
      "duration": 0.104,
      "velocity": 0.75,
      "hand": "right"
    },
    {
      "midi": 74,
      "time": 74.167,
      "duration": 0.104,
      "velocity": 0.75,
      "hand": "right"
    },
    {
      "midi": 78,
      "time": 74.271,
      "duration": 0.104,
      "velocity": 0.71,
      "hand": "right"
    },
    {
      "midi": 80,
      "time": 74.479,
      "duration": 0.104,
      "velocity": 0.71,
      "hand": "right"
    },
    {
      "midi": 40,
      "time": 74.583,
      "duration": 0.417,
      "velocity": 0.71,
      "hand": "left"
    },
    {
      "midi": 52,
      "time": 74.583,
      "duration": 0.417,
      "velocity": 0.71,
      "hand": "left"
    },
    {
      "midi": 74,
      "time": 74.583,
      "duration": 0.104,
      "velocity": 0.75,
      "hand": "right"
    },
    {
      "midi": 76,
      "time": 74.583,
      "duration": 0.104,
      "velocity": 0.75,
      "hand": "right"
    },
    {
      "midi": 82,
      "time": 74.688,
      "duration": 0.104,
      "velocity": 0.71,
      "hand": "right"
    },
    {
      "midi": 84,
      "time": 74.896,
      "duration": 0.104,
      "velocity": 0.71,
      "hand": "right"
    },
    {
      "midi": 45,
      "time": 75,
      "duration": 0.208,
      "velocity": 0.71,
      "hand": "left"
    },
    {
      "midi": 72,
      "time": 75,
      "duration": 0.104,
      "velocity": 0.75,
      "hand": "right"
    },
    {
      "midi": 76,
      "time": 75,
      "duration": 0.104,
      "velocity": 0.75,
      "hand": "right"
    },
    {
      "midi": 82,
      "time": 75.104,
      "duration": 0.104,
      "velocity": 0.71,
      "hand": "right"
    },
    {
      "midi": 84,
      "time": 75.313,
      "duration": 0.104,
      "velocity": 0.71,
      "hand": "right"
    },
    {
      "midi": 41,
      "time": 75.417,
      "duration": 0.833,
      "velocity": 0.71,
      "hand": "left"
    },
    {
      "midi": 74,
      "time": 75.417,
      "duration": 0.089,
      "velocity": 0.75,
      "hand": "right"
    },
    {
      "midi": 81,
      "time": 75.417,
      "duration": 0.104,
      "velocity": 0.75,
      "hand": "right"
    },
    {
      "midi": 74,
      "time": 75.521,
      "duration": 0.104,
      "velocity": 0.71,
      "hand": "right"
    },
    {
      "midi": 76,
      "time": 75.729,
      "duration": 0.104,
      "velocity": 0.71,
      "hand": "right"
    },
    {
      "midi": 74,
      "time": 75.833,
      "duration": 0.104,
      "velocity": 0.75,
      "hand": "right"
    },
    {
      "midi": 81,
      "time": 75.833,
      "duration": 0.104,
      "velocity": 0.75,
      "hand": "right"
    },
    {
      "midi": 78,
      "time": 75.938,
      "duration": 0.104,
      "velocity": 0.71,
      "hand": "right"
    },
    {
      "midi": 80,
      "time": 76.146,
      "duration": 0.104,
      "velocity": 0.71,
      "hand": "right"
    },
    {
      "midi": 40,
      "time": 76.25,
      "duration": 0.417,
      "velocity": 0.71,
      "hand": "left"
    },
    {
      "midi": 74,
      "time": 76.25,
      "duration": 0.104,
      "velocity": 0.75,
      "hand": "right"
    },
    {
      "midi": 76,
      "time": 76.25,
      "duration": 0.104,
      "velocity": 0.75,
      "hand": "right"
    },
    {
      "midi": 82,
      "time": 76.354,
      "duration": 0.104,
      "velocity": 0.71,
      "hand": "right"
    },
    {
      "midi": 84,
      "time": 76.563,
      "duration": 0.089,
      "velocity": 0.71,
      "hand": "right"
    },
    {
      "midi": 45,
      "time": 76.667,
      "duration": 5,
      "velocity": 0.71,
      "hand": "left"
    },
    {
      "midi": 76,
      "time": 76.667,
      "duration": 0.104,
      "velocity": 0.75,
      "hand": "right"
    },
    {
      "midi": 81,
      "time": 76.667,
      "duration": 0.104,
      "velocity": 0.71,
      "hand": "right"
    },
    {
      "midi": 84,
      "time": 76.667,
      "duration": 0.104,
      "velocity": 0.75,
      "hand": "right"
    },
    {
      "midi": 79,
      "time": 76.875,
      "duration": 0.104,
      "velocity": 0.71,
      "hand": "right"
    },
    {
      "midi": 74,
      "time": 77.083,
      "duration": 0.104,
      "velocity": 0.75,
      "hand": "right"
    },
    {
      "midi": 77,
      "time": 77.083,
      "duration": 0.104,
      "velocity": 0.71,
      "hand": "right"
    },
    {
      "midi": 81,
      "time": 77.083,
      "duration": 0.104,
      "velocity": 0.75,
      "hand": "right"
    },
    {
      "midi": 75,
      "time": 77.292,
      "duration": 0.104,
      "velocity": 0.71,
      "hand": "right"
    },
    {
      "midi": 73,
      "time": 77.5,
      "duration": 0.104,
      "velocity": 0.71,
      "hand": "right"
    },
    {
      "midi": 77,
      "time": 77.5,
      "duration": 0.104,
      "velocity": 0.75,
      "hand": "right"
    },
    {
      "midi": 81,
      "time": 77.5,
      "duration": 0.104,
      "velocity": 0.75,
      "hand": "right"
    },
    {
      "midi": 84,
      "time": 77.604,
      "duration": 0.104,
      "velocity": 0.71,
      "hand": "right"
    },
    {
      "midi": 83,
      "time": 77.708,
      "duration": 0.104,
      "velocity": 0.71,
      "hand": "right"
    },
    {
      "midi": 74,
      "time": 77.917,
      "duration": 0.104,
      "velocity": 0.75,
      "hand": "right"
    },
    {
      "midi": 77,
      "time": 77.917,
      "duration": 0.104,
      "velocity": 0.75,
      "hand": "right"
    },
    {
      "midi": 81,
      "time": 77.917,
      "duration": 0.104,
      "velocity": 0.71,
      "hand": "right"
    },
    {
      "midi": 79,
      "time": 78.125,
      "duration": 0.104,
      "velocity": 0.71,
      "hand": "right"
    },
    {
      "midi": 69,
      "time": 78.333,
      "duration": 0.104,
      "velocity": 0.75,
      "hand": "right"
    },
    {
      "midi": 74,
      "time": 78.333,
      "duration": 0.104,
      "velocity": 0.75,
      "hand": "right"
    },
    {
      "midi": 77,
      "time": 78.333,
      "duration": 0.104,
      "velocity": 0.71,
      "hand": "right"
    },
    {
      "midi": 75,
      "time": 78.542,
      "duration": 0.104,
      "velocity": 0.71,
      "hand": "right"
    },
    {
      "midi": 65,
      "time": 78.75,
      "duration": 0.104,
      "velocity": 0.75,
      "hand": "right"
    },
    {
      "midi": 69,
      "time": 78.75,
      "duration": 0.104,
      "velocity": 0.75,
      "hand": "right"
    },
    {
      "midi": 73,
      "time": 78.75,
      "duration": 0.104,
      "velocity": 0.71,
      "hand": "right"
    },
    {
      "midi": 71,
      "time": 78.958,
      "duration": 0.104,
      "velocity": 0.71,
      "hand": "right"
    },
    {
      "midi": 62,
      "time": 79.167,
      "duration": 0.104,
      "velocity": 0.75,
      "hand": "right"
    },
    {
      "midi": 65,
      "time": 79.167,
      "duration": 0.104,
      "velocity": 0.75,
      "hand": "right"
    },
    {
      "midi": 69,
      "time": 79.167,
      "duration": 0.104,
      "velocity": 0.71,
      "hand": "right"
    },
    {
      "midi": 67,
      "time": 79.375,
      "duration": 0.104,
      "velocity": 0.71,
      "hand": "right"
    },
    {
      "midi": 57,
      "time": 79.583,
      "duration": 0.104,
      "velocity": 0.75,
      "hand": "left"
    },
    {
      "midi": 62,
      "time": 79.583,
      "duration": 0.104,
      "velocity": 0.75,
      "hand": "right"
    },
    {
      "midi": 65,
      "time": 79.583,
      "duration": 0.104,
      "velocity": 0.71,
      "hand": "right"
    },
    {
      "midi": 63,
      "time": 79.792,
      "duration": 0.104,
      "velocity": 0.71,
      "hand": "right"
    },
    {
      "midi": 52,
      "time": 80,
      "duration": 1.667,
      "velocity": 0.71,
      "hand": "left"
    },
    {
      "midi": 57,
      "time": 80,
      "duration": 1.667,
      "velocity": 0.71,
      "hand": "left"
    },
    {
      "midi": 61,
      "time": 80,
      "duration": 1.667,
      "velocity": 0.71,
      "hand": "right"
    }
  ],
  "arrangements": {
    "easy": [
      {
        "midi": 70,
        "time": 0.104,
        "duration": 0.25,
        "velocity": 0.71,
        "hand": "right"
      },
      {
        "midi": 76,
        "time": 0.729,
        "duration": 0.25,
        "velocity": 0.71,
        "hand": "right"
      },
      {
        "midi": 82,
        "time": 1.354,
        "duration": 0.25,
        "velocity": 0.71,
        "hand": "right"
      },
      {
        "midi": 84,
        "time": 2.083,
        "duration": 0.25,
        "velocity": 0.71,
        "hand": "right"
      },
      {
        "midi": 83,
        "time": 2.708,
        "duration": 0.25,
        "velocity": 0.71,
        "hand": "right"
      },
      {
        "midi": 80,
        "time": 3.333,
        "duration": 0.25,
        "velocity": 0.71,
        "hand": "right"
      },
      {
        "midi": 77,
        "time": 3.958,
        "duration": 0.25,
        "velocity": 0.71,
        "hand": "right"
      },
      {
        "midi": 72,
        "time": 4.688,
        "duration": 0.25,
        "velocity": 0.71,
        "hand": "right"
      },
      {
        "midi": 72,
        "time": 5.313,
        "duration": 0.25,
        "velocity": 0.71,
        "hand": "right"
      },
      {
        "midi": 76,
        "time": 5.938,
        "duration": 0.25,
        "velocity": 0.71,
        "hand": "right"
      },
      {
        "midi": 70,
        "time": 6.771,
        "duration": 0.25,
        "velocity": 0.71,
        "hand": "right"
      },
      {
        "midi": 76,
        "time": 7.396,
        "duration": 0.25,
        "velocity": 0.71,
        "hand": "right"
      },
      {
        "midi": 82,
        "time": 8.021,
        "duration": 0.25,
        "velocity": 0.71,
        "hand": "right"
      },
      {
        "midi": 84,
        "time": 8.75,
        "duration": 0.25,
        "velocity": 0.71,
        "hand": "right"
      },
      {
        "midi": 83,
        "time": 9.375,
        "duration": 0.25,
        "velocity": 0.71,
        "hand": "right"
      },
      {
        "midi": 80,
        "time": 10.104,
        "duration": 0.25,
        "velocity": 0.71,
        "hand": "right"
      },
      {
        "midi": 81,
        "time": 10.833,
        "duration": 0.25,
        "velocity": 0.71,
        "hand": "right"
      },
      {
        "midi": 79,
        "time": 11.458,
        "duration": 0.25,
        "velocity": 0.71,
        "hand": "right"
      },
      {
        "midi": 76,
        "time": 12.188,
        "duration": 0.25,
        "velocity": 0.71,
        "hand": "right"
      },
      {
        "midi": 72,
        "time": 12.813,
        "duration": 0.25,
        "velocity": 0.71,
        "hand": "right"
      },
      {
        "midi": 70,
        "time": 13.438,
        "duration": 0.25,
        "velocity": 0.71,
        "hand": "right"
      },
      {
        "midi": 76,
        "time": 14.063,
        "duration": 0.25,
        "velocity": 0.71,
        "hand": "right"
      },
      {
        "midi": 82,
        "time": 14.688,
        "duration": 0.25,
        "velocity": 0.71,
        "hand": "right"
      },
      {
        "midi": 84,
        "time": 15.417,
        "duration": 0.25,
        "velocity": 0.71,
        "hand": "right"
      },
      {
        "midi": 83,
        "time": 16.042,
        "duration": 0.25,
        "velocity": 0.71,
        "hand": "right"
      },
      {
        "midi": 80,
        "time": 16.667,
        "duration": 0.25,
        "velocity": 0.71,
        "hand": "right"
      },
      {
        "midi": 77,
        "time": 17.292,
        "duration": 0.25,
        "velocity": 0.71,
        "hand": "right"
      },
      {
        "midi": 72,
        "time": 18.021,
        "duration": 0.25,
        "velocity": 0.71,
        "hand": "right"
      },
      {
        "midi": 72,
        "time": 18.646,
        "duration": 0.25,
        "velocity": 0.71,
        "hand": "right"
      },
      {
        "midi": 76,
        "time": 19.271,
        "duration": 0.25,
        "velocity": 0.71,
        "hand": "right"
      },
      {
        "midi": 70,
        "time": 20.104,
        "duration": 0.25,
        "velocity": 0.71,
        "hand": "right"
      },
      {
        "midi": 76,
        "time": 20.729,
        "duration": 0.25,
        "velocity": 0.71,
        "hand": "right"
      },
      {
        "midi": 82,
        "time": 21.354,
        "duration": 0.25,
        "velocity": 0.71,
        "hand": "right"
      },
      {
        "midi": 84,
        "time": 22.083,
        "duration": 0.25,
        "velocity": 0.71,
        "hand": "right"
      },
      {
        "midi": 83,
        "time": 22.708,
        "duration": 0.25,
        "velocity": 0.71,
        "hand": "right"
      },
      {
        "midi": 83,
        "time": 23.438,
        "duration": 0.25,
        "velocity": 0.71,
        "hand": "right"
      },
      {
        "midi": 80,
        "time": 24.167,
        "duration": 0.25,
        "velocity": 0.71,
        "hand": "right"
      },
      {
        "midi": 84,
        "time": 25,
        "duration": 0.25,
        "velocity": 0.71,
        "hand": "right"
      },
      {
        "midi": 75,
        "time": 25.625,
        "duration": 0.25,
        "velocity": 0.71,
        "hand": "right"
      },
      {
        "midi": 81,
        "time": 26.25,
        "duration": 0.25,
        "velocity": 0.71,
        "hand": "right"
      },
      {
        "midi": 75,
        "time": 26.875,
        "duration": 0.25,
        "velocity": 0.71,
        "hand": "right"
      },
      {
        "midi": 72,
        "time": 27.604,
        "duration": 0.25,
        "velocity": 0.71,
        "hand": "right"
      },
      {
        "midi": 70,
        "time": 28.438,
        "duration": 0.25,
        "velocity": 0.71,
        "hand": "right"
      },
      {
        "midi": 81,
        "time": 29.167,
        "duration": 0.25,
        "velocity": 0.71,
        "hand": "right"
      },
      {
        "midi": 75,
        "time": 29.792,
        "duration": 0.25,
        "velocity": 0.71,
        "hand": "right"
      },
      {
        "midi": 74,
        "time": 30.521,
        "duration": 0.25,
        "velocity": 0.71,
        "hand": "right"
      },
      {
        "midi": 81,
        "time": 31.25,
        "duration": 0.25,
        "velocity": 0.71,
        "hand": "right"
      },
      {
        "midi": 72,
        "time": 31.979,
        "duration": 0.25,
        "velocity": 0.71,
        "hand": "right"
      },
      {
        "midi": 78,
        "time": 32.604,
        "duration": 0.25,
        "velocity": 0.71,
        "hand": "right"
      },
      {
        "midi": 75,
        "time": 33.333,
        "duration": 0.25,
        "velocity": 0.71,
        "hand": "right"
      },
      {
        "midi": 78,
        "time": 34.063,
        "duration": 0.25,
        "velocity": 0.71,
        "hand": "right"
      },
      {
        "midi": 79,
        "time": 34.792,
        "duration": 0.25,
        "velocity": 0.71,
        "hand": "right"
      },
      {
        "midi": 76,
        "time": 35.521,
        "duration": 0.25,
        "velocity": 0.71,
        "hand": "right"
      },
      {
        "midi": 82,
        "time": 36.146,
        "duration": 0.25,
        "velocity": 0.71,
        "hand": "right"
      },
      {
        "midi": 76,
        "time": 36.979,
        "duration": 0.25,
        "velocity": 0.71,
        "hand": "right"
      },
      {
        "midi": 82,
        "time": 37.604,
        "duration": 0.25,
        "velocity": 0.71,
        "hand": "right"
      },
      {
        "midi": 79,
        "time": 38.333,
        "duration": 0.25,
        "velocity": 0.71,
        "hand": "right"
      },
      {
        "midi": 80,
        "time": 39.063,
        "duration": 0.25,
        "velocity": 0.71,
        "hand": "right"
      },
      {
        "midi": 74,
        "time": 39.688,
        "duration": 0.25,
        "velocity": 0.71,
        "hand": "right"
      },
      {
        "midi": 84,
        "time": 40.521,
        "duration": 0.25,
        "velocity": 0.71,
        "hand": "right"
      },
      {
        "midi": 77,
        "time": 41.25,
        "duration": 0.25,
        "velocity": 0.71,
        "hand": "right"
      },
      {
        "midi": 84,
        "time": 41.979,
        "duration": 0.25,
        "velocity": 0.71,
        "hand": "right"
      },
      {
        "midi": 77,
        "time": 42.708,
        "duration": 0.25,
        "velocity": 0.71,
        "hand": "right"
      },
      {
        "midi": 82,
        "time": 43.333,
        "duration": 0.25,
        "velocity": 0.71,
        "hand": "right"
      },
      {
        "midi": 80,
        "time": 43.958,
        "duration": 0.25,
        "velocity": 0.71,
        "hand": "right"
      },
      {
        "midi": 84,
        "time": 44.792,
        "duration": 0.25,
        "velocity": 0.71,
        "hand": "right"
      },
      {
        "midi": 80,
        "time": 45.417,
        "duration": 0.25,
        "velocity": 0.71,
        "hand": "right"
      },
      {
        "midi": 79,
        "time": 46.146,
        "duration": 0.25,
        "velocity": 0.71,
        "hand": "right"
      },
      {
        "midi": 81,
        "time": 46.875,
        "duration": 0.25,
        "velocity": 0.71,
        "hand": "right"
      },
      {
        "midi": 75,
        "time": 47.5,
        "duration": 0.25,
        "velocity": 0.71,
        "hand": "right"
      },
      {
        "midi": 68,
        "time": 48.125,
        "duration": 0.25,
        "velocity": 0.71,
        "hand": "right"
      },
      {
        "midi": 70,
        "time": 48.75,
        "duration": 0.25,
        "velocity": 0.71,
        "hand": "right"
      },
      {
        "midi": 70,
        "time": 49.583,
        "duration": 0.25,
        "velocity": 0.71,
        "hand": "right"
      },
      {
        "midi": 72,
        "time": 50.417,
        "duration": 0.25,
        "velocity": 0.71,
        "hand": "right"
      },
      {
        "midi": 72,
        "time": 51.25,
        "duration": 0.25,
        "velocity": 0.71,
        "hand": "right"
      },
      {
        "midi": 83,
        "time": 52.083,
        "duration": 0.25,
        "velocity": 0.71,
        "hand": "right"
      },
      {
        "midi": 84,
        "time": 52.813,
        "duration": 0.25,
        "velocity": 0.71,
        "hand": "right"
      },
      {
        "midi": 79,
        "time": 53.438,
        "duration": 0.25,
        "velocity": 0.71,
        "hand": "right"
      },
      {
        "midi": 77,
        "time": 54.167,
        "duration": 0.25,
        "velocity": 0.71,
        "hand": "right"
      },
      {
        "midi": 79,
        "time": 54.896,
        "duration": 0.25,
        "velocity": 0.71,
        "hand": "right"
      },
      {
        "midi": 74,
        "time": 55.521,
        "duration": 0.25,
        "velocity": 0.71,
        "hand": "right"
      },
      {
        "midi": 81,
        "time": 56.146,
        "duration": 0.25,
        "velocity": 0.71,
        "hand": "right"
      },
      {
        "midi": 76,
        "time": 56.771,
        "duration": 0.25,
        "velocity": 0.71,
        "hand": "right"
      },
      {
        "midi": 71,
        "time": 57.396,
        "duration": 0.25,
        "velocity": 0.71,
        "hand": "right"
      },
      {
        "midi": 66,
        "time": 58.021,
        "duration": 0.25,
        "velocity": 0.71,
        "hand": "right"
      },
      {
        "midi": 72,
        "time": 58.646,
        "duration": 0.25,
        "velocity": 0.71,
        "hand": "right"
      },
      {
        "midi": 78,
        "time": 59.271,
        "duration": 0.25,
        "velocity": 0.71,
        "hand": "right"
      },
      {
        "midi": 84,
        "time": 59.896,
        "duration": 0.25,
        "velocity": 0.71,
        "hand": "right"
      },
      {
        "midi": 75,
        "time": 60.625,
        "duration": 0.25,
        "velocity": 0.71,
        "hand": "right"
      },
      {
        "midi": 81,
        "time": 61.25,
        "duration": 0.25,
        "velocity": 0.71,
        "hand": "right"
      },
      {
        "midi": 78,
        "time": 61.875,
        "duration": 0.25,
        "velocity": 0.71,
        "hand": "right"
      },
      {
        "midi": 75,
        "time": 62.5,
        "duration": 0.25,
        "velocity": 0.71,
        "hand": "right"
      },
      {
        "midi": 74,
        "time": 63.125,
        "duration": 0.25,
        "velocity": 0.71,
        "hand": "right"
      },
      {
        "midi": 72,
        "time": 63.854,
        "duration": 0.25,
        "velocity": 0.71,
        "hand": "right"
      },
      {
        "midi": 73,
        "time": 64.583,
        "duration": 0.25,
        "velocity": 0.71,
        "hand": "right"
      },
      {
        "midi": 72,
        "time": 65.313,
        "duration": 0.25,
        "velocity": 0.71,
        "hand": "right"
      },
      {
        "midi": 78,
        "time": 65.938,
        "duration": 0.25,
        "velocity": 0.71,
        "hand": "right"
      },
      {
        "midi": 84,
        "time": 66.563,
        "duration": 0.25,
        "velocity": 0.71,
        "hand": "right"
      },
      {
        "midi": 75,
        "time": 67.292,
        "duration": 0.25,
        "velocity": 0.71,
        "hand": "right"
      },
      {
        "midi": 81,
        "time": 67.917,
        "duration": 0.25,
        "velocity": 0.71,
        "hand": "right"
      },
      {
        "midi": 84,
        "time": 68.542,
        "duration": 0.25,
        "velocity": 0.71,
        "hand": "right"
      },
      {
        "midi": 80,
        "time": 69.167,
        "duration": 0.25,
        "velocity": 0.71,
        "hand": "right"
      },
      {
        "midi": 84,
        "time": 70,
        "duration": 0.25,
        "velocity": 0.75,
        "hand": "right"
      },
      {
        "midi": 75,
        "time": 70.625,
        "duration": 0.25,
        "velocity": 0.71,
        "hand": "right"
      },
      {
        "midi": 81,
        "time": 71.25,
        "duration": 0.25,
        "velocity": 0.71,
        "hand": "right"
      },
      {
        "midi": 75,
        "time": 71.875,
        "duration": 0.25,
        "velocity": 0.71,
        "hand": "right"
      },
      {
        "midi": 72,
        "time": 72.604,
        "duration": 0.25,
        "velocity": 0.71,
        "hand": "right"
      },
      {
        "midi": 70,
        "time": 73.438,
        "duration": 0.25,
        "velocity": 0.71,
        "hand": "right"
      },
      {
        "midi": 76,
        "time": 74.063,
        "duration": 0.25,
        "velocity": 0.71,
        "hand": "right"
      },
      {
        "midi": 82,
        "time": 74.688,
        "duration": 0.25,
        "velocity": 0.71,
        "hand": "right"
      },
      {
        "midi": 84,
        "time": 75.313,
        "duration": 0.25,
        "velocity": 0.71,
        "hand": "right"
      },
      {
        "midi": 78,
        "time": 75.938,
        "duration": 0.25,
        "velocity": 0.71,
        "hand": "right"
      },
      {
        "midi": 84,
        "time": 76.667,
        "duration": 0.25,
        "velocity": 0.75,
        "hand": "right"
      },
      {
        "midi": 75,
        "time": 77.292,
        "duration": 0.25,
        "velocity": 0.71,
        "hand": "right"
      },
      {
        "midi": 81,
        "time": 77.917,
        "duration": 0.25,
        "velocity": 0.71,
        "hand": "right"
      },
      {
        "midi": 75,
        "time": 78.542,
        "duration": 0.25,
        "velocity": 0.71,
        "hand": "right"
      },
      {
        "midi": 69,
        "time": 79.167,
        "duration": 0.25,
        "velocity": 0.71,
        "hand": "right"
      },
      {
        "midi": 63,
        "time": 79.792,
        "duration": 0.25,
        "velocity": 0.71,
        "hand": "right"
      }
    ],
    "medium": [
      {
        "midi": 57,
        "time": 0,
        "duration": 0.208,
        "velocity": 0.71,
        "hand": "left"
      },
      {
        "midi": 70,
        "time": 0.104,
        "duration": 0.146,
        "velocity": 0.71,
        "hand": "right"
      },
      {
        "midi": 76,
        "time": 0.729,
        "duration": 0.146,
        "velocity": 0.71,
        "hand": "right"
      },
      {
        "midi": 84,
        "time": 1.563,
        "duration": 0.146,
        "velocity": 0.71,
        "hand": "right"
      },
      {
        "midi": 75,
        "time": 2.292,
        "duration": 0.146,
        "velocity": 0.71,
        "hand": "right"
      },
      {
        "midi": 83,
        "time": 3.125,
        "duration": 0.146,
        "velocity": 0.71,
        "hand": "right"
      },
      {
        "midi": 81,
        "time": 3.229,
        "duration": 0.146,
        "velocity": 0.71,
        "hand": "right"
      },
      {
        "midi": 77,
        "time": 3.958,
        "duration": 0.146,
        "velocity": 0.71,
        "hand": "right"
      },
      {
        "midi": 74,
        "time": 4.792,
        "duration": 0.146,
        "velocity": 0.71,
        "hand": "right"
      },
      {
        "midi": 72,
        "time": 4.896,
        "duration": 0.146,
        "velocity": 0.71,
        "hand": "right"
      },
      {
        "midi": 72,
        "time": 5.521,
        "duration": 0.146,
        "velocity": 0.71,
        "hand": "right"
      },
      {
        "midi": 62,
        "time": 6.25,
        "duration": 0.146,
        "velocity": 0.71,
        "hand": "right"
      },
      {
        "midi": 73,
        "time": 6.25,
        "duration": 0.146,
        "velocity": 0.71,
        "hand": "right"
      },
      {
        "midi": 72,
        "time": 6.979,
        "duration": 0.146,
        "velocity": 0.71,
        "hand": "right"
      },
      {
        "midi": 80,
        "time": 7.813,
        "duration": 0.146,
        "velocity": 0.71,
        "hand": "right"
      },
      {
        "midi": 84,
        "time": 8.75,
        "duration": 0.146,
        "velocity": 0.71,
        "hand": "right"
      },
      {
        "midi": 72,
        "time": 9.583,
        "duration": 0.146,
        "velocity": 0.71,
        "hand": "right"
      },
      {
        "midi": 81,
        "time": 9.583,
        "duration": 0.146,
        "velocity": 0.71,
        "hand": "right"
      },
      {
        "midi": 82,
        "time": 10.313,
        "duration": 0.146,
        "velocity": 0.71,
        "hand": "right"
      },
      {
        "midi": 79,
        "time": 11.042,
        "duration": 0.146,
        "velocity": 0.71,
        "hand": "right"
      },
      {
        "midi": 76,
        "time": 11.979,
        "duration": 0.146,
        "velocity": 0.71,
        "hand": "right"
      },
      {
        "midi": 72,
        "time": 12.813,
        "duration": 0.146,
        "velocity": 0.71,
        "hand": "right"
      },
      {
        "midi": 72,
        "time": 13.646,
        "duration": 0.146,
        "velocity": 0.71,
        "hand": "right"
      },
      {
        "midi": 80,
        "time": 14.479,
        "duration": 0.146,
        "velocity": 0.71,
        "hand": "right"
      },
      {
        "midi": 84,
        "time": 15.417,
        "duration": 0.146,
        "velocity": 0.71,
        "hand": "right"
      },
      {
        "midi": 72,
        "time": 16.25,
        "duration": 0.146,
        "velocity": 0.71,
        "hand": "right"
      },
      {
        "midi": 81,
        "time": 16.25,
        "duration": 0.146,
        "velocity": 0.71,
        "hand": "right"
      },
      {
        "midi": 76,
        "time": 17.083,
        "duration": 0.146,
        "velocity": 0.71,
        "hand": "right"
      },
      {
        "midi": 72,
        "time": 18.021,
        "duration": 0.146,
        "velocity": 0.71,
        "hand": "right"
      },
      {
        "midi": 72,
        "time": 18.646,
        "duration": 0.146,
        "velocity": 0.71,
        "hand": "right"
      },
      {
        "midi": 62,
        "time": 19.583,
        "duration": 0.146,
        "velocity": 0.71,
        "hand": "right"
      },
      {
        "midi": 73,
        "time": 19.583,
        "duration": 0.146,
        "velocity": 0.71,
        "hand": "right"
      },
      {
        "midi": 72,
        "time": 20.313,
        "duration": 0.146,
        "velocity": 0.71,
        "hand": "right"
      },
      {
        "midi": 80,
        "time": 21.146,
        "duration": 0.146,
        "velocity": 0.71,
        "hand": "right"
      },
      {
        "midi": 84,
        "time": 22.083,
        "duration": 0.146,
        "velocity": 0.71,
        "hand": "right"
      },
      {
        "midi": 72,
        "time": 22.917,
        "duration": 0.146,
        "velocity": 0.71,
        "hand": "right"
      },
      {
        "midi": 81,
        "time": 22.917,
        "duration": 0.146,
        "velocity": 0.71,
        "hand": "right"
      },
      {
        "midi": 82,
        "time": 23.75,
        "duration": 0.146,
        "velocity": 0.71,
        "hand": "right"
      },
      {
        "midi": 79,
        "time": 24.479,
        "duration": 0.146,
        "velocity": 0.71,
        "hand": "right"
      },
      {
        "midi": 79,
        "time": 25.208,
        "duration": 0.146,
        "velocity": 0.71,
        "hand": "right"
      },
      {
        "midi": 83,
        "time": 26.042,
        "duration": 0.146,
        "velocity": 0.71,
        "hand": "right"
      },
      {
        "midi": 75,
        "time": 26.875,
        "duration": 0.146,
        "velocity": 0.71,
        "hand": "right"
      },
      {
        "midi": 76,
        "time": 27.708,
        "duration": 0.146,
        "velocity": 0.71,
        "hand": "right"
      },
      {
        "midi": 72,
        "time": 27.813,
        "duration": 0.146,
        "velocity": 0.71,
        "hand": "right"
      },
      {
        "midi": 72,
        "time": 28.646,
        "duration": 0.146,
        "velocity": 0.71,
        "hand": "right"
      },
      {
        "midi": 79,
        "time": 29.375,
        "duration": 0.146,
        "velocity": 0.71,
        "hand": "right"
      },
      {
        "midi": 72,
        "time": 30.313,
        "duration": 0.146,
        "velocity": 0.71,
        "hand": "right"
      },
      {
        "midi": 81,
        "time": 31.25,
        "duration": 0.146,
        "velocity": 0.71,
        "hand": "right"
      },
      {
        "midi": 72,
        "time": 31.979,
        "duration": 0.146,
        "velocity": 0.71,
        "hand": "right"
      },
      {
        "midi": 80,
        "time": 32.813,
        "duration": 0.146,
        "velocity": 0.71,
        "hand": "right"
      },
      {
        "midi": 74,
        "time": 33.646,
        "duration": 0.146,
        "velocity": 0.71,
        "hand": "right"
      },
      {
        "midi": 82,
        "time": 34.479,
        "duration": 0.146,
        "velocity": 0.71,
        "hand": "right"
      },
      {
        "midi": 74,
        "time": 35.313,
        "duration": 0.146,
        "velocity": 0.71,
        "hand": "right"
      },
      {
        "midi": 82,
        "time": 36.146,
        "duration": 0.146,
        "velocity": 0.71,
        "hand": "right"
      },
      {
        "midi": 76,
        "time": 36.979,
        "duration": 0.146,
        "velocity": 0.71,
        "hand": "right"
      },
      {
        "midi": 84,
        "time": 37.813,
        "duration": 0.146,
        "velocity": 0.71,
        "hand": "right"
      },
      {
        "midi": 77,
        "time": 38.542,
        "duration": 0.146,
        "velocity": 0.71,
        "hand": "right"
      },
      {
        "midi": 82,
        "time": 39.271,
        "duration": 0.146,
        "velocity": 0.71,
        "hand": "right"
      },
      {
        "midi": 81,
        "time": 40,
        "duration": 0.146,
        "velocity": 0.71,
        "hand": "right"
      },
      {
        "midi": 74,
        "time": 40.833,
        "duration": 0.146,
        "velocity": 0.71,
        "hand": "right"
      },
      {
        "midi": 81,
        "time": 40.833,
        "duration": 0.146,
        "velocity": 0.71,
        "hand": "right"
      },
      {
        "midi": 79,
        "time": 41.667,
        "duration": 0.146,
        "velocity": 0.71,
        "hand": "right"
      },
      {
        "midi": 81,
        "time": 42.292,
        "duration": 0.146,
        "velocity": 0.71,
        "hand": "right"
      },
      {
        "midi": 82,
        "time": 43.333,
        "duration": 0.146,
        "velocity": 0.71,
        "hand": "right"
      },
      {
        "midi": 80,
        "time": 43.958,
        "duration": 0.146,
        "velocity": 0.71,
        "hand": "right"
      },
      {
        "midi": 84,
        "time": 44.792,
        "duration": 0.146,
        "velocity": 0.71,
        "hand": "right"
      },
      {
        "midi": 78,
        "time": 45.625,
        "duration": 0.146,
        "velocity": 0.71,
        "hand": "right"
      },
      {
        "midi": 82,
        "time": 46.458,
        "duration": 0.146,
        "velocity": 0.71,
        "hand": "right"
      },
      {
        "midi": 77,
        "time": 47.292,
        "duration": 0.146,
        "velocity": 0.71,
        "hand": "right"
      },
      {
        "midi": 68,
        "time": 48.125,
        "duration": 0.146,
        "velocity": 0.71,
        "hand": "right"
      },
      {
        "midi": 68,
        "time": 48.958,
        "duration": 0.146,
        "velocity": 0.71,
        "hand": "right"
      },
      {
        "midi": 68,
        "time": 49.792,
        "duration": 0.146,
        "velocity": 0.71,
        "hand": "right"
      },
      {
        "midi": 70,
        "time": 50.625,
        "duration": 0.146,
        "velocity": 0.71,
        "hand": "right"
      },
      {
        "midi": 70,
        "time": 51.458,
        "duration": 0.146,
        "velocity": 0.71,
        "hand": "right"
      },
      {
        "midi": 74,
        "time": 52.292,
        "duration": 0.146,
        "velocity": 0.71,
        "hand": "right"
      },
      {
        "midi": 76,
        "time": 52.396,
        "duration": 0.146,
        "velocity": 0.71,
        "hand": "right"
      },
      {
        "midi": 83,
        "time": 53.021,
        "duration": 0.146,
        "velocity": 0.71,
        "hand": "right"
      },
      {
        "midi": 79,
        "time": 53.125,
        "duration": 0.146,
        "velocity": 0.71,
        "hand": "right"
      },
      {
        "midi": 76,
        "time": 53.854,
        "duration": 0.146,
        "velocity": 0.71,
        "hand": "right"
      },
      {
        "midi": 84,
        "time": 53.958,
        "duration": 0.146,
        "velocity": 0.71,
        "hand": "right"
      },
      {
        "midi": 81,
        "time": 54.688,
        "duration": 0.146,
        "velocity": 0.71,
        "hand": "right"
      },
      {
        "midi": 77,
        "time": 54.792,
        "duration": 0.146,
        "velocity": 0.71,
        "hand": "right"
      },
      {
        "midi": 74,
        "time": 55.521,
        "duration": 0.146,
        "velocity": 0.71,
        "hand": "right"
      },
      {
        "midi": 79,
        "time": 56.354,
        "duration": 0.146,
        "velocity": 0.71,
        "hand": "right"
      },
      {
        "midi": 72,
        "time": 57.188,
        "duration": 0.146,
        "velocity": 0.71,
        "hand": "right"
      },
      {
        "midi": 69,
        "time": 57.292,
        "duration": 0.146,
        "velocity": 0.71,
        "hand": "right"
      },
      {
        "midi": 66,
        "time": 58.021,
        "duration": 0.146,
        "velocity": 0.71,
        "hand": "right"
      },
      {
        "midi": 74,
        "time": 58.854,
        "duration": 0.146,
        "velocity": 0.71,
        "hand": "right"
      },
      {
        "midi": 82,
        "time": 59.688,
        "duration": 0.146,
        "velocity": 0.71,
        "hand": "right"
      },
      {
        "midi": 84,
        "time": 60.417,
        "duration": 0.146,
        "velocity": 0.71,
        "hand": "right"
      },
      {
        "midi": 72,
        "time": 61.25,
        "duration": 0.146,
        "velocity": 0.71,
        "hand": "right"
      },
      {
        "midi": 81,
        "time": 61.25,
        "duration": 0.146,
        "velocity": 0.71,
        "hand": "right"
      },
      {
        "midi": 76,
        "time": 62.083,
        "duration": 0.146,
        "velocity": 0.71,
        "hand": "right"
      },
      {
        "midi": 72,
        "time": 63.021,
        "duration": 0.146,
        "velocity": 0.71,
        "hand": "right"
      },
      {
        "midi": 72,
        "time": 63.646,
        "duration": 0.146,
        "velocity": 0.71,
        "hand": "right"
      },
      {
        "midi": 62,
        "time": 64.583,
        "duration": 0.146,
        "velocity": 0.71,
        "hand": "right"
      },
      {
        "midi": 73,
        "time": 64.583,
        "duration": 0.146,
        "velocity": 0.71,
        "hand": "right"
      },
      {
        "midi": 72,
        "time": 65.313,
        "duration": 0.146,
        "velocity": 0.71,
        "hand": "right"
      },
      {
        "midi": 80,
        "time": 66.146,
        "duration": 0.146,
        "velocity": 0.71,
        "hand": "right"
      },
      {
        "midi": 84,
        "time": 67.083,
        "duration": 0.146,
        "velocity": 0.71,
        "hand": "right"
      },
      {
        "midi": 72,
        "time": 67.917,
        "duration": 0.146,
        "velocity": 0.71,
        "hand": "right"
      },
      {
        "midi": 81,
        "time": 67.917,
        "duration": 0.146,
        "velocity": 0.71,
        "hand": "right"
      },
      {
        "midi": 82,
        "time": 68.75,
        "duration": 0.146,
        "velocity": 0.71,
        "hand": "right"
      },
      {
        "midi": 79,
        "time": 69.479,
        "duration": 0.146,
        "velocity": 0.71,
        "hand": "right"
      },
      {
        "midi": 79,
        "time": 70.208,
        "duration": 0.146,
        "velocity": 0.71,
        "hand": "right"
      },
      {
        "midi": 83,
        "time": 71.042,
        "duration": 0.146,
        "velocity": 0.71,
        "hand": "right"
      },
      {
        "midi": 75,
        "time": 71.875,
        "duration": 0.146,
        "velocity": 0.71,
        "hand": "right"
      },
      {
        "midi": 76,
        "time": 72.708,
        "duration": 0.146,
        "velocity": 0.71,
        "hand": "right"
      },
      {
        "midi": 72,
        "time": 72.813,
        "duration": 0.146,
        "velocity": 0.71,
        "hand": "right"
      },
      {
        "midi": 72,
        "time": 73.646,
        "duration": 0.146,
        "velocity": 0.71,
        "hand": "right"
      },
      {
        "midi": 80,
        "time": 74.479,
        "duration": 0.146,
        "velocity": 0.71,
        "hand": "right"
      },
      {
        "midi": 84,
        "time": 75.313,
        "duration": 0.146,
        "velocity": 0.71,
        "hand": "right"
      },
      {
        "midi": 80,
        "time": 76.146,
        "duration": 0.146,
        "velocity": 0.71,
        "hand": "right"
      },
      {
        "midi": 79,
        "time": 76.875,
        "duration": 0.146,
        "velocity": 0.71,
        "hand": "right"
      },
      {
        "midi": 83,
        "time": 77.708,
        "duration": 0.146,
        "velocity": 0.71,
        "hand": "right"
      },
      {
        "midi": 75,
        "time": 78.542,
        "duration": 0.146,
        "velocity": 0.71,
        "hand": "right"
      },
      {
        "midi": 67,
        "time": 79.375,
        "duration": 0.146,
        "velocity": 0.71,
        "hand": "right"
      }
    ],
    "hard": [
      {
        "midi": 45,
        "time": 0,
        "duration": 0.208,
        "velocity": 0.71,
        "hand": "left"
      },
      {
        "midi": 60,
        "time": 0,
        "duration": 0.104,
        "velocity": 0.71,
        "hand": "right"
      },
      {
        "midi": 64,
        "time": 0,
        "duration": 0.104,
        "velocity": 0.71,
        "hand": "right"
      },
      {
        "midi": 70,
        "time": 0.104,
        "duration": 0.104,
        "velocity": 0.71,
        "hand": "right"
      },
      {
        "midi": 72,
        "time": 0.313,
        "duration": 0.104,
        "velocity": 0.71,
        "hand": "right"
      },
      {
        "midi": 52,
        "time": 0.417,
        "duration": 0.208,
        "velocity": 0.71,
        "hand": "left"
      },
      {
        "midi": 57,
        "time": 0.417,
        "duration": 0.208,
        "velocity": 0.71,
        "hand": "left"
      },
      {
        "midi": 64,
        "time": 0.417,
        "duration": 0.104,
        "velocity": 0.71,
        "hand": "right"
      },
      {
        "midi": 69,
        "time": 0.417,
        "duration": 0.104,
        "velocity": 0.71,
        "hand": "right"
      },
      {
        "midi": 74,
        "time": 0.521,
        "duration": 0.104,
        "velocity": 0.71,
        "hand": "right"
      },
      {
        "midi": 76,
        "time": 0.729,
        "duration": 0.104,
        "velocity": 0.71,
        "hand": "right"
      },
      {
        "midi": 45,
        "time": 0.833,
        "duration": 0.208,
        "velocity": 0.71,
        "hand": "left"
      },
      {
        "midi": 69,
        "time": 0.833,
        "duration": 0.104,
        "velocity": 0.71,
        "hand": "right"
      },
      {
        "midi": 74,
        "time": 0.833,
        "duration": 0.104,
        "velocity": 0.71,
        "hand": "right"
      },
      {
        "midi": 78,
        "time": 0.938,
        "duration": 0.104,
        "velocity": 0.71,
        "hand": "right"
      },
      {
        "midi": 80,
        "time": 1.146,
        "duration": 0.104,
        "velocity": 0.71,
        "hand": "right"
      },
      {
        "midi": 53,
        "time": 1.25,
        "duration": 0.208,
        "velocity": 0.71,
        "hand": "left"
      },
      {
        "midi": 57,
        "time": 1.25,
        "duration": 0.208,
        "velocity": 0.71,
        "hand": "left"
      },
      {
        "midi": 74,
        "time": 1.25,
        "duration": 0.104,
        "velocity": 0.71,
        "hand": "right"
      },
      {
        "midi": 77,
        "time": 1.25,
        "duration": 0.104,
        "velocity": 0.71,
        "hand": "right"
      },
      {
        "midi": 82,
        "time": 1.354,
        "duration": 0.104,
        "velocity": 0.71,
        "hand": "right"
      },
      {
        "midi": 84,
        "time": 1.563,
        "duration": 0.104,
        "velocity": 0.71,
        "hand": "right"
      },
      {
        "midi": 45,
        "time": 1.667,
        "duration": 0.208,
        "velocity": 0.71,
        "hand": "left"
      },
      {
        "midi": 76,
        "time": 1.667,
        "duration": 0.104,
        "velocity": 0.71,
        "hand": "right"
      },
      {
        "midi": 81,
        "time": 1.667,
        "duration": 0.104,
        "velocity": 0.71,
        "hand": "right"
      },
      {
        "midi": 74,
        "time": 1.771,
        "duration": 0.104,
        "velocity": 0.71,
        "hand": "right"
      },
      {
        "midi": 52,
        "time": 2.083,
        "duration": 0.208,
        "velocity": 0.71,
        "hand": "left"
      },
      {
        "midi": 57,
        "time": 2.083,
        "duration": 0.208,
        "velocity": 0.71,
        "hand": "left"
      },
      {
        "midi": 77,
        "time": 2.083,
        "duration": 0.104,
        "velocity": 0.71,
        "hand": "right"
      },
      {
        "midi": 81,
        "time": 2.083,
        "duration": 0.104,
        "velocity": 0.71,
        "hand": "right"
      },
      {
        "midi": 84,
        "time": 2.083,
        "duration": 0.104,
        "velocity": 0.71,
        "hand": "right"
      },
      {
        "midi": 75,
        "time": 2.292,
        "duration": 0.104,
        "velocity": 0.71,
        "hand": "right"
      },
      {
        "midi": 57,
        "time": 2.5,
        "duration": 0.208,
        "velocity": 0.71,
        "hand": "left"
      },
      {
        "midi": 73,
        "time": 2.5,
        "duration": 0.104,
        "velocity": 0.71,
        "hand": "right"
      },
      {
        "midi": 76,
        "time": 2.5,
        "duration": 0.104,
        "velocity": 0.71,
        "hand": "right"
      },
      {
        "midi": 81,
        "time": 2.5,
        "duration": 0.104,
        "velocity": 0.71,
        "hand": "right"
      },
      {
        "midi": 84,
        "time": 2.604,
        "duration": 0.104,
        "velocity": 0.71,
        "hand": "right"
      },
      {
        "midi": 83,
        "time": 2.708,
        "duration": 0.104,
        "velocity": 0.71,
        "hand": "right"
      },
      {
        "midi": 72,
        "time": 2.917,
        "duration": 0.104,
        "velocity": 0.71,
        "hand": "right"
      },
      {
        "midi": 76,
        "time": 2.917,
        "duration": 0.104,
        "velocity": 0.71,
        "hand": "right"
      },
      {
        "midi": 81,
        "time": 2.917,
        "duration": 0.104,
        "velocity": 0.71,
        "hand": "right"
      },
      {
        "midi": 83,
        "time": 3.125,
        "duration": 0.104,
        "velocity": 0.71,
        "hand": "right"
      },
      {
        "midi": 81,
        "time": 3.229,
        "duration": 0.104,
        "velocity": 0.71,
        "hand": "right"
      },
      {
        "midi": 40,
        "time": 3.333,
        "duration": 0.208,
        "velocity": 0.71,
        "hand": "left"
      },
      {
        "midi": 71,
        "time": 3.333,
        "duration": 0.104,
        "velocity": 0.71,
        "hand": "right"
      },
      {
        "midi": 76,
        "time": 3.333,
        "duration": 0.104,
        "velocity": 0.71,
        "hand": "right"
      },
      {
        "midi": 80,
        "time": 3.333,
        "duration": 0.104,
        "velocity": 0.71,
        "hand": "right"
      },
      {
        "midi": 78,
        "time": 3.542,
        "duration": 0.104,
        "velocity": 0.71,
        "hand": "right"
      },
      {
        "midi": 52,
        "time": 3.75,
        "duration": 0.208,
        "velocity": 0.71,
        "hand": "left"
      },
      {
        "midi": 59,
        "time": 3.75,
        "duration": 0.208,
        "velocity": 0.71,
        "hand": "left"
      },
      {
        "midi": 68,
        "time": 3.75,
        "duration": 0.104,
        "velocity": 0.71,
        "hand": "right"
      },
      {
        "midi": 71,
        "time": 3.75,
        "duration": 0.104,
        "velocity": 0.71,
        "hand": "right"
      },
      {
        "midi": 76,
        "time": 3.75,
        "duration": 0.104,
        "velocity": 0.71,
        "hand": "right"
      },
      {
        "midi": 77,
        "time": 3.958,
        "duration": 0.104,
        "velocity": 0.71,
        "hand": "right"
      },
      {
        "midi": 45,
        "time": 4.167,
        "duration": 0.208,
        "velocity": 0.71,
        "hand": "left"
      },
      {
        "midi": 69,
        "time": 4.167,
        "duration": 0.104,
        "velocity": 0.71,
        "hand": "right"
      },
      {
        "midi": 72,
        "time": 4.167,
        "duration": 0.104,
        "velocity": 0.71,
        "hand": "right"
      },
      {
        "midi": 75,
        "time": 4.167,
        "duration": 0.104,
        "velocity": 0.71,
        "hand": "right"
      },
      {
        "midi": 73,
        "time": 4.375,
        "duration": 0.104,
        "velocity": 0.71,
        "hand": "right"
      },
      {
        "midi": 52,
        "time": 4.583,
        "duration": 0.208,
        "velocity": 0.71,
        "hand": "left"
      },
      {
        "midi": 57,
        "time": 4.583,
        "duration": 0.208,
        "velocity": 0.71,
        "hand": "left"
      },
      {
        "midi": 64,
        "time": 4.583,
        "duration": 0.104,
        "velocity": 0.71,
        "hand": "right"
      },
      {
        "midi": 69,
        "time": 4.583,
        "duration": 0.104,
        "velocity": 0.71,
        "hand": "right"
      },
      {
        "midi": 72,
        "time": 4.688,
        "duration": 0.104,
        "velocity": 0.71,
        "hand": "right"
      },
      {
        "midi": 74,
        "time": 4.792,
        "duration": 0.104,
        "velocity": 0.71,
        "hand": "right"
      },
      {
        "midi": 72,
        "time": 4.896,
        "duration": 0.104,
        "velocity": 0.71,
        "hand": "right"
      },
      {
        "midi": 52,
        "time": 5,
        "duration": 0.208,
        "velocity": 0.71,
        "hand": "left"
      },
      {
        "midi": 59,
        "time": 5,
        "duration": 0.208,
        "velocity": 0.71,
        "hand": "left"
      },
      {
        "midi": 64,
        "time": 5,
        "duration": 0.104,
        "velocity": 0.71,
        "hand": "right"
      },
      {
        "midi": 68,
        "time": 5,
        "duration": 0.104,
        "velocity": 0.71,
        "hand": "right"
      },
      {
        "midi": 72,
        "time": 5.104,
        "duration": 0.104,
        "velocity": 0.71,
        "hand": "right"
      },
      {
        "midi": 72,
        "time": 5.313,
        "duration": 0.104,
        "velocity": 0.71,
        "hand": "right"
      },
      {
        "midi": 53,
        "time": 5.417,
        "duration": 0.417,
        "velocity": 0.71,
        "hand": "left"
      },
      {
        "midi": 59,
        "time": 5.417,
        "duration": 0.401,
        "velocity": 0.71,
        "hand": "left"
      },
      {
        "midi": 63,
        "time": 5.417,
        "duration": 0.104,
        "velocity": 0.71,
        "hand": "right"
      },
      {
        "midi": 69,
        "time": 5.417,
        "duration": 0.104,
        "velocity": 0.71,
        "hand": "right"
      },
      {
        "midi": 72,
        "time": 5.521,
        "duration": 0.104,
        "velocity": 0.71,
        "hand": "right"
      },
      {
        "midi": 72,
        "time": 5.729,
        "duration": 0.104,
        "velocity": 0.71,
        "hand": "right"
      },
      {
        "midi": 52,
        "time": 5.833,
        "duration": 0.208,
        "velocity": 0.71,
        "hand": "left"
      },
      {
        "midi": 59,
        "time": 5.833,
        "duration": 0.208,
        "velocity": 0.71,
        "hand": "left"
      },
      {
        "midi": 64,
        "time": 5.833,
        "duration": 0.104,
        "velocity": 0.71,
        "hand": "right"
      },
      {
        "midi": 68,
        "time": 5.833,
        "duration": 0.104,
        "velocity": 0.71,
        "hand": "right"
      },
      {
        "midi": 76,
        "time": 5.938,
        "duration": 0.104,
        "velocity": 0.71,
        "hand": "right"
      },
      {
        "midi": 62,
        "time": 6.25,
        "duration": 0.104,
        "velocity": 0.71,
        "hand": "right"
      },
      {
        "midi": 68,
        "time": 6.25,
        "duration": 0.104,
        "velocity": 0.71,
        "hand": "right"
      },
      {
        "midi": 73,
        "time": 6.25,
        "duration": 0.104,
        "velocity": 0.71,
        "hand": "right"
      },
      {
        "midi": 71,
        "time": 6.458,
        "duration": 0.104,
        "velocity": 0.71,
        "hand": "right"
      },
      {
        "midi": 45,
        "time": 6.667,
        "duration": 0.208,
        "velocity": 0.71,
        "hand": "left"
      },
      {
        "midi": 60,
        "time": 6.667,
        "duration": 0.104,
        "velocity": 0.71,
        "hand": "right"
      },
      {
        "midi": 64,
        "time": 6.667,
        "duration": 0.104,
        "velocity": 0.71,
        "hand": "right"
      },
      {
        "midi": 70,
        "time": 6.771,
        "duration": 0.104,
        "velocity": 0.71,
        "hand": "right"
      },
      {
        "midi": 72,
        "time": 6.979,
        "duration": 0.104,
        "velocity": 0.71,
        "hand": "right"
      },
      {
        "midi": 52,
        "time": 7.083,
        "duration": 0.208,
        "velocity": 0.71,
        "hand": "left"
      },
      {
        "midi": 57,
        "time": 7.083,
        "duration": 0.208,
        "velocity": 0.71,
        "hand": "left"
      },
      {
        "midi": 64,
        "time": 7.083,
        "duration": 0.104,
        "velocity": 0.71,
        "hand": "right"
      },
      {
        "midi": 69,
        "time": 7.083,
        "duration": 0.104,
        "velocity": 0.71,
        "hand": "right"
      },
      {
        "midi": 74,
        "time": 7.188,
        "duration": 0.104,
        "velocity": 0.71,
        "hand": "right"
      },
      {
        "midi": 76,
        "time": 7.396,
        "duration": 0.104,
        "velocity": 0.71,
        "hand": "right"
      },
      {
        "midi": 45,
        "time": 7.5,
        "duration": 0.208,
        "velocity": 0.71,
        "hand": "left"
      },
      {
        "midi": 69,
        "time": 7.5,
        "duration": 0.104,
        "velocity": 0.71,
        "hand": "right"
      },
      {
        "midi": 74,
        "time": 7.5,
        "duration": 0.104,
        "velocity": 0.71,
        "hand": "right"
      },
      {
        "midi": 78,
        "time": 7.604,
        "duration": 0.104,
        "velocity": 0.71,
        "hand": "right"
      },
      {
        "midi": 80,
        "time": 7.813,
        "duration": 0.104,
        "velocity": 0.71,
        "hand": "right"
      },
      {
        "midi": 53,
        "time": 7.917,
        "duration": 0.208,
        "velocity": 0.71,
        "hand": "left"
      },
      {
        "midi": 57,
        "time": 7.917,
        "duration": 0.208,
        "velocity": 0.71,
        "hand": "left"
      },
      {
        "midi": 74,
        "time": 7.917,
        "duration": 0.104,
        "velocity": 0.71,
        "hand": "right"
      },
      {
        "midi": 77,
        "time": 7.917,
        "duration": 0.104,
        "velocity": 0.71,
        "hand": "right"
      },
      {
        "midi": 82,
        "time": 8.021,
        "duration": 0.104,
        "velocity": 0.71,
        "hand": "right"
      },
      {
        "midi": 84,
        "time": 8.229,
        "duration": 0.104,
        "velocity": 0.71,
        "hand": "right"
      },
      {
        "midi": 45,
        "time": 8.333,
        "duration": 0.208,
        "velocity": 0.71,
        "hand": "left"
      },
      {
        "midi": 76,
        "time": 8.333,
        "duration": 0.104,
        "velocity": 0.71,
        "hand": "right"
      },
      {
        "midi": 81,
        "time": 8.333,
        "duration": 0.104,
        "velocity": 0.71,
        "hand": "right"
      },
      {
        "midi": 74,
        "time": 8.438,
        "duration": 0.104,
        "velocity": 0.71,
        "hand": "right"
      },
      {
        "midi": 52,
        "time": 8.75,
        "duration": 0.208,
        "velocity": 0.71,
        "hand": "left"
      },
      {
        "midi": 57,
        "time": 8.75,
        "duration": 0.208,
        "velocity": 0.71,
        "hand": "left"
      },
      {
        "midi": 77,
        "time": 8.75,
        "duration": 0.104,
        "velocity": 0.71,
        "hand": "right"
      },
      {
        "midi": 81,
        "time": 8.75,
        "duration": 0.104,
        "velocity": 0.71,
        "hand": "right"
      },
      {
        "midi": 84,
        "time": 8.75,
        "duration": 0.104,
        "velocity": 0.71,
        "hand": "right"
      },
      {
        "midi": 75,
        "time": 8.958,
        "duration": 0.104,
        "velocity": 0.71,
        "hand": "right"
      },
      {
        "midi": 57,
        "time": 9.167,
        "duration": 0.208,
        "velocity": 0.71,
        "hand": "left"
      },
      {
        "midi": 73,
        "time": 9.167,
        "duration": 0.104,
        "velocity": 0.71,
        "hand": "right"
      },
      {
        "midi": 76,
        "time": 9.167,
        "duration": 0.104,
        "velocity": 0.71,
        "hand": "right"
      },
      {
        "midi": 81,
        "time": 9.167,
        "duration": 0.104,
        "velocity": 0.71,
        "hand": "right"
      },
      {
        "midi": 84,
        "time": 9.271,
        "duration": 0.104,
        "velocity": 0.71,
        "hand": "right"
      },
      {
        "midi": 83,
        "time": 9.375,
        "duration": 0.104,
        "velocity": 0.71,
        "hand": "right"
      },
      {
        "midi": 72,
        "time": 9.583,
        "duration": 0.104,
        "velocity": 0.71,
        "hand": "right"
      },
      {
        "midi": 76,
        "time": 9.583,
        "duration": 0.104,
        "velocity": 0.71,
        "hand": "right"
      },
      {
        "midi": 81,
        "time": 9.583,
        "duration": 0.104,
        "velocity": 0.71,
        "hand": "right"
      },
      {
        "midi": 83,
        "time": 9.792,
        "duration": 0.104,
        "velocity": 0.71,
        "hand": "right"
      },
      {
        "midi": 81,
        "time": 9.896,
        "duration": 0.104,
        "velocity": 0.71,
        "hand": "right"
      },
      {
        "midi": 47,
        "time": 10,
        "duration": 0.208,
        "velocity": 0.71,
        "hand": "left"
      },
      {
        "midi": 71,
        "time": 10,
        "duration": 0.104,
        "velocity": 0.71,
        "hand": "right"
      },
      {
        "midi": 76,
        "time": 10,
        "duration": 0.104,
        "velocity": 0.71,
        "hand": "right"
      },
      {
        "midi": 80,
        "time": 10.104,
        "duration": 0.104,
        "velocity": 0.71,
        "hand": "right"
      },
      {
        "midi": 82,
        "time": 10.313,
        "duration": 0.104,
        "velocity": 0.71,
        "hand": "right"
      },
      {
        "midi": 59,
        "time": 10.417,
        "duration": 0.208,
        "velocity": 0.71,
        "hand": "left"
      },
      {
        "midi": 76,
        "time": 10.417,
        "duration": 0.104,
        "velocity": 0.71,
        "hand": "right"
      },
      {
        "midi": 79,
        "time": 10.417,
        "duration": 0.104,
        "velocity": 0.71,
        "hand": "right"
      },
      {
        "midi": 84,
        "time": 10.521,
        "duration": 0.104,
        "velocity": 0.71,
        "hand": "right"
      },
      {
        "midi": 47,
        "time": 10.833,
        "duration": 0.208,
        "velocity": 0.71,
        "hand": "left"
      },
      {
        "midi": 75,
        "time": 10.833,
        "duration": 0.104,
        "velocity": 0.71,
        "hand": "right"
      },
      {
        "midi": 78,
        "time": 10.833,
        "duration": 0.104,
        "velocity": 0.71,
        "hand": "right"
      },
      {
        "midi": 81,
        "time": 10.833,
        "duration": 0.104,
        "velocity": 0.71,
        "hand": "right"
      },
      {
        "midi": 79,
        "time": 11.042,
        "duration": 0.104,
        "velocity": 0.71,
        "hand": "right"
      },
      {
        "midi": 59,
        "time": 11.25,
        "duration": 0.208,
        "velocity": 0.71,
        "hand": "left"
      },
      {
        "midi": 71,
        "time": 11.25,
        "duration": 0.208,
        "velocity": 0.71,
        "hand": "right"
      },
      {
        "midi": 75,
        "time": 11.25,
        "duration": 0.104,
        "velocity": 0.71,
        "hand": "right"
      },
      {
        "midi": 78,
        "time": 11.354,
        "duration": 0.104,
        "velocity": 0.71,
        "hand": "right"
      },
      {
        "midi": 79,
        "time": 11.458,
        "duration": 0.104,
        "velocity": 0.71,
        "hand": "right"
      },
      {
        "midi": 52,
        "time": 11.667,
        "duration": 0.401,
        "velocity": 0.71,
        "hand": "left"
      },
      {
        "midi": 68,
        "time": 11.667,
        "duration": 0.104,
        "velocity": 0.71,
        "hand": "right"
      },
      {
        "midi": 71,
        "time": 11.667,
        "duration": 0.104,
        "velocity": 0.71,
        "hand": "right"
      },
      {
        "midi": 77,
        "time": 11.771,
        "duration": 0.104,
        "velocity": 0.71,
        "hand": "right"
      },
      {
        "midi": 76,
        "time": 11.979,
        "duration": 0.104,
        "velocity": 0.71,
        "hand": "right"
      },
      {
        "midi": 40,
        "time": 12.083,
        "duration": 0.417,
        "velocity": 0.71,
        "hand": "left"
      },
      {
        "midi": 52,
        "time": 12.083,
        "duration": 0.417,
        "velocity": 0.71,
        "hand": "left"
      },
      {
        "midi": 65,
        "time": 12.083,
        "duration": 0.104,
        "velocity": 0.71,
        "hand": "right"
      },
      {
        "midi": 69,
        "time": 12.083,
        "duration": 0.104,
        "velocity": 0.71,
        "hand": "right"
      },
      {
        "midi": 74,
        "time": 12.083,
        "duration": 0.104,
        "velocity": 0.71,
        "hand": "right"
      },
      {
        "midi": 76,
        "time": 12.188,
        "duration": 0.104,
        "velocity": 0.71,
        "hand": "right"
      },
      {
        "midi": 74,
        "time": 12.396,
        "duration": 0.104,
        "velocity": 0.71,
        "hand": "right"
      },
      {
        "midi": 64,
        "time": 12.5,
        "duration": 0.104,
        "velocity": 0.71,
        "hand": "right"
      },
      {
        "midi": 69,
        "time": 12.5,
        "duration": 0.104,
        "velocity": 0.71,
        "hand": "right"
      },
      {
        "midi": 72,
        "time": 12.5,
        "duration": 0.104,
        "velocity": 0.71,
        "hand": "right"
      },
      {
        "midi": 74,
        "time": 12.604,
        "duration": 0.104,
        "velocity": 0.71,
        "hand": "right"
      },
      {
        "midi": 72,
        "time": 12.813,
        "duration": 0.104,
        "velocity": 0.71,
        "hand": "right"
      },
      {
        "midi": 40,
        "time": 12.917,
        "duration": 0.417,
        "velocity": 0.71,
        "hand": "left"
      },
      {
        "midi": 52,
        "time": 12.917,
        "duration": 0.417,
        "velocity": 0.71,
        "hand": "left"
      },
      {
        "midi": 62,
        "time": 12.917,
        "duration": 0.104,
        "velocity": 0.71,
        "hand": "right"
      },
      {
        "midi": 68,
        "time": 12.917,
        "duration": 0.104,
        "velocity": 0.71,
        "hand": "right"
      },
      {
        "midi": 72,
        "time": 13.021,
        "duration": 0.104,
        "velocity": 0.71,
        "hand": "right"
      },
      {
        "midi": 71,
        "time": 13.229,
        "duration": 0.104,
        "velocity": 0.71,
        "hand": "right"
      },
      {
        "midi": 45,
        "time": 13.333,
        "duration": 0.208,
        "velocity": 0.71,
        "hand": "left"
      },
      {
        "midi": 60,
        "time": 13.333,
        "duration": 0.104,
        "velocity": 0.71,
        "hand": "right"
      },
      {
        "midi": 64,
        "time": 13.333,
        "duration": 0.104,
        "velocity": 0.71,
        "hand": "right"
      },
      {
        "midi": 70,
        "time": 13.438,
        "duration": 0.104,
        "velocity": 0.71,
        "hand": "right"
      },
      {
        "midi": 72,
        "time": 13.646,
        "duration": 0.104,
        "velocity": 0.71,
        "hand": "right"
      },
      {
        "midi": 52,
        "time": 13.75,
        "duration": 0.208,
        "velocity": 0.71,
        "hand": "left"
      },
      {
        "midi": 57,
        "time": 13.75,
        "duration": 0.208,
        "velocity": 0.71,
        "hand": "left"
      },
      {
        "midi": 64,
        "time": 13.75,
        "duration": 0.104,
        "velocity": 0.71,
        "hand": "right"
      },
      {
        "midi": 69,
        "time": 13.75,
        "duration": 0.104,
        "velocity": 0.71,
        "hand": "right"
      },
      {
        "midi": 74,
        "time": 13.854,
        "duration": 0.104,
        "velocity": 0.71,
        "hand": "right"
      },
      {
        "midi": 76,
        "time": 14.063,
        "duration": 0.104,
        "velocity": 0.71,
        "hand": "right"
      },
      {
        "midi": 45,
        "time": 14.167,
        "duration": 0.208,
        "velocity": 0.71,
        "hand": "left"
      },
      {
        "midi": 69,
        "time": 14.167,
        "duration": 0.104,
        "velocity": 0.71,
        "hand": "right"
      },
      {
        "midi": 74,
        "time": 14.167,
        "duration": 0.104,
        "velocity": 0.71,
        "hand": "right"
      },
      {
        "midi": 78,
        "time": 14.271,
        "duration": 0.104,
        "velocity": 0.71,
        "hand": "right"
      },
      {
        "midi": 80,
        "time": 14.479,
        "duration": 0.104,
        "velocity": 0.71,
        "hand": "right"
      },
      {
        "midi": 53,
        "time": 14.583,
        "duration": 0.208,
        "velocity": 0.71,
        "hand": "left"
      },
      {
        "midi": 57,
        "time": 14.583,
        "duration": 0.208,
        "velocity": 0.71,
        "hand": "left"
      },
      {
        "midi": 74,
        "time": 14.583,
        "duration": 0.104,
        "velocity": 0.71,
        "hand": "right"
      },
      {
        "midi": 77,
        "time": 14.583,
        "duration": 0.104,
        "velocity": 0.71,
        "hand": "right"
      },
      {
        "midi": 82,
        "time": 14.688,
        "duration": 0.104,
        "velocity": 0.71,
        "hand": "right"
      },
      {
        "midi": 84,
        "time": 14.896,
        "duration": 0.104,
        "velocity": 0.71,
        "hand": "right"
      },
      {
        "midi": 45,
        "time": 15,
        "duration": 0.208,
        "velocity": 0.71,
        "hand": "left"
      },
      {
        "midi": 76,
        "time": 15,
        "duration": 0.104,
        "velocity": 0.71,
        "hand": "right"
      },
      {
        "midi": 81,
        "time": 15,
        "duration": 0.104,
        "velocity": 0.71,
        "hand": "right"
      },
      {
        "midi": 74,
        "time": 15.104,
        "duration": 0.104,
        "velocity": 0.71,
        "hand": "right"
      },
      {
        "midi": 52,
        "time": 15.417,
        "duration": 0.208,
        "velocity": 0.71,
        "hand": "left"
      },
      {
        "midi": 57,
        "time": 15.417,
        "duration": 0.208,
        "velocity": 0.71,
        "hand": "left"
      },
      {
        "midi": 77,
        "time": 15.417,
        "duration": 0.104,
        "velocity": 0.71,
        "hand": "right"
      },
      {
        "midi": 81,
        "time": 15.417,
        "duration": 0.104,
        "velocity": 0.71,
        "hand": "right"
      },
      {
        "midi": 84,
        "time": 15.417,
        "duration": 0.104,
        "velocity": 0.71,
        "hand": "right"
      },
      {
        "midi": 75,
        "time": 15.625,
        "duration": 0.104,
        "velocity": 0.71,
        "hand": "right"
      },
      {
        "midi": 57,
        "time": 15.833,
        "duration": 0.208,
        "velocity": 0.71,
        "hand": "left"
      },
      {
        "midi": 73,
        "time": 15.833,
        "duration": 0.104,
        "velocity": 0.71,
        "hand": "right"
      },
      {
        "midi": 76,
        "time": 15.833,
        "duration": 0.104,
        "velocity": 0.71,
        "hand": "right"
      },
      {
        "midi": 81,
        "time": 15.833,
        "duration": 0.104,
        "velocity": 0.71,
        "hand": "right"
      },
      {
        "midi": 84,
        "time": 15.938,
        "duration": 0.104,
        "velocity": 0.71,
        "hand": "right"
      },
      {
        "midi": 83,
        "time": 16.042,
        "duration": 0.104,
        "velocity": 0.71,
        "hand": "right"
      },
      {
        "midi": 72,
        "time": 16.25,
        "duration": 0.104,
        "velocity": 0.71,
        "hand": "right"
      },
      {
        "midi": 76,
        "time": 16.25,
        "duration": 0.104,
        "velocity": 0.71,
        "hand": "right"
      },
      {
        "midi": 81,
        "time": 16.25,
        "duration": 0.104,
        "velocity": 0.71,
        "hand": "right"
      },
      {
        "midi": 83,
        "time": 16.458,
        "duration": 0.104,
        "velocity": 0.71,
        "hand": "right"
      },
      {
        "midi": 81,
        "time": 16.563,
        "duration": 0.104,
        "velocity": 0.71,
        "hand": "right"
      },
      {
        "midi": 40,
        "time": 16.667,
        "duration": 0.208,
        "velocity": 0.71,
        "hand": "left"
      },
      {
        "midi": 71,
        "time": 16.667,
        "duration": 0.104,
        "velocity": 0.71,
        "hand": "right"
      },
      {
        "midi": 76,
        "time": 16.667,
        "duration": 0.104,
        "velocity": 0.71,
        "hand": "right"
      },
      {
        "midi": 80,
        "time": 16.667,
        "duration": 0.104,
        "velocity": 0.71,
        "hand": "right"
      },
      {
        "midi": 78,
        "time": 16.875,
        "duration": 0.104,
        "velocity": 0.71,
        "hand": "right"
      },
      {
        "midi": 52,
        "time": 17.083,
        "duration": 0.208,
        "velocity": 0.71,
        "hand": "left"
      },
      {
        "midi": 59,
        "time": 17.083,
        "duration": 0.208,
        "velocity": 0.71,
        "hand": "left"
      },
      {
        "midi": 68,
        "time": 17.083,
        "duration": 0.104,
        "velocity": 0.71,
        "hand": "right"
      },
      {
        "midi": 71,
        "time": 17.083,
        "duration": 0.104,
        "velocity": 0.71,
        "hand": "right"
      },
      {
        "midi": 76,
        "time": 17.083,
        "duration": 0.104,
        "velocity": 0.71,
        "hand": "right"
      },
      {
        "midi": 77,
        "time": 17.292,
        "duration": 0.104,
        "velocity": 0.71,
        "hand": "right"
      },
      {
        "midi": 45,
        "time": 17.5,
        "duration": 0.208,
        "velocity": 0.71,
        "hand": "left"
      },
      {
        "midi": 69,
        "time": 17.5,
        "duration": 0.104,
        "velocity": 0.71,
        "hand": "right"
      },
      {
        "midi": 72,
        "time": 17.5,
        "duration": 0.104,
        "velocity": 0.71,
        "hand": "right"
      },
      {
        "midi": 75,
        "time": 17.5,
        "duration": 0.104,
        "velocity": 0.71,
        "hand": "right"
      },
      {
        "midi": 73,
        "time": 17.708,
        "duration": 0.104,
        "velocity": 0.71,
        "hand": "right"
      },
      {
        "midi": 52,
        "time": 17.917,
        "duration": 0.208,
        "velocity": 0.71,
        "hand": "left"
      },
      {
        "midi": 57,
        "time": 17.917,
        "duration": 0.208,
        "velocity": 0.71,
        "hand": "left"
      },
      {
        "midi": 64,
        "time": 17.917,
        "duration": 0.104,
        "velocity": 0.71,
        "hand": "right"
      },
      {
        "midi": 69,
        "time": 17.917,
        "duration": 0.104,
        "velocity": 0.71,
        "hand": "right"
      },
      {
        "midi": 72,
        "time": 18.021,
        "duration": 0.104,
        "velocity": 0.71,
        "hand": "right"
      },
      {
        "midi": 74,
        "time": 18.125,
        "duration": 0.104,
        "velocity": 0.71,
        "hand": "right"
      },
      {
        "midi": 72,
        "time": 18.229,
        "duration": 0.104,
        "velocity": 0.71,
        "hand": "right"
      },
      {
        "midi": 52,
        "time": 18.333,
        "duration": 0.208,
        "velocity": 0.71,
        "hand": "left"
      },
      {
        "midi": 59,
        "time": 18.333,
        "duration": 0.208,
        "velocity": 0.71,
        "hand": "left"
      },
      {
        "midi": 64,
        "time": 18.333,
        "duration": 0.104,
        "velocity": 0.71,
        "hand": "right"
      },
      {
        "midi": 68,
        "time": 18.333,
        "duration": 0.104,
        "velocity": 0.71,
        "hand": "right"
      },
      {
        "midi": 72,
        "time": 18.438,
        "duration": 0.104,
        "velocity": 0.71,
        "hand": "right"
      },
      {
        "midi": 72,
        "time": 18.646,
        "duration": 0.104,
        "velocity": 0.71,
        "hand": "right"
      },
      {
        "midi": 53,
        "time": 18.75,
        "duration": 0.417,
        "velocity": 0.71,
        "hand": "left"
      },
      {
        "midi": 59,
        "time": 18.75,
        "duration": 0.402,
        "velocity": 0.71,
        "hand": "left"
      },
      {
        "midi": 63,
        "time": 18.75,
        "duration": 0.104,
        "velocity": 0.71,
        "hand": "right"
      },
      {
        "midi": 69,
        "time": 18.75,
        "duration": 0.104,
        "velocity": 0.71,
        "hand": "right"
      },
      {
        "midi": 72,
        "time": 18.854,
        "duration": 0.104,
        "velocity": 0.71,
        "hand": "right"
      },
      {
        "midi": 72,
        "time": 19.063,
        "duration": 0.104,
        "velocity": 0.71,
        "hand": "right"
      },
      {
        "midi": 52,
        "time": 19.167,
        "duration": 0.208,
        "velocity": 0.71,
        "hand": "left"
      },
      {
        "midi": 59,
        "time": 19.167,
        "duration": 0.208,
        "velocity": 0.71,
        "hand": "left"
      },
      {
        "midi": 64,
        "time": 19.167,
        "duration": 0.104,
        "velocity": 0.71,
        "hand": "right"
      },
      {
        "midi": 68,
        "time": 19.167,
        "duration": 0.104,
        "velocity": 0.71,
        "hand": "right"
      },
      {
        "midi": 76,
        "time": 19.271,
        "duration": 0.104,
        "velocity": 0.71,
        "hand": "right"
      },
      {
        "midi": 62,
        "time": 19.583,
        "duration": 0.104,
        "velocity": 0.71,
        "hand": "right"
      },
      {
        "midi": 68,
        "time": 19.583,
        "duration": 0.104,
        "velocity": 0.71,
        "hand": "right"
      },
      {
        "midi": 73,
        "time": 19.583,
        "duration": 0.104,
        "velocity": 0.71,
        "hand": "right"
      },
      {
        "midi": 71,
        "time": 19.792,
        "duration": 0.104,
        "velocity": 0.71,
        "hand": "right"
      },
      {
        "midi": 45,
        "time": 20,
        "duration": 0.208,
        "velocity": 0.71,
        "hand": "left"
      },
      {
        "midi": 60,
        "time": 20,
        "duration": 0.104,
        "velocity": 0.71,
        "hand": "right"
      },
      {
        "midi": 64,
        "time": 20,
        "duration": 0.104,
        "velocity": 0.71,
        "hand": "right"
      },
      {
        "midi": 70,
        "time": 20.104,
        "duration": 0.104,
        "velocity": 0.71,
        "hand": "right"
      },
      {
        "midi": 72,
        "time": 20.313,
        "duration": 0.104,
        "velocity": 0.71,
        "hand": "right"
      },
      {
        "midi": 52,
        "time": 20.417,
        "duration": 0.208,
        "velocity": 0.71,
        "hand": "left"
      },
      {
        "midi": 57,
        "time": 20.417,
        "duration": 0.208,
        "velocity": 0.71,
        "hand": "left"
      },
      {
        "midi": 64,
        "time": 20.417,
        "duration": 0.104,
        "velocity": 0.71,
        "hand": "right"
      },
      {
        "midi": 69,
        "time": 20.417,
        "duration": 0.104,
        "velocity": 0.71,
        "hand": "right"
      },
      {
        "midi": 74,
        "time": 20.521,
        "duration": 0.104,
        "velocity": 0.71,
        "hand": "right"
      },
      {
        "midi": 76,
        "time": 20.729,
        "duration": 0.104,
        "velocity": 0.71,
        "hand": "right"
      },
      {
        "midi": 45,
        "time": 20.833,
        "duration": 0.208,
        "velocity": 0.71,
        "hand": "left"
      },
      {
        "midi": 69,
        "time": 20.833,
        "duration": 0.104,
        "velocity": 0.71,
        "hand": "right"
      },
      {
        "midi": 74,
        "time": 20.833,
        "duration": 0.104,
        "velocity": 0.71,
        "hand": "right"
      },
      {
        "midi": 78,
        "time": 20.938,
        "duration": 0.104,
        "velocity": 0.71,
        "hand": "right"
      },
      {
        "midi": 80,
        "time": 21.146,
        "duration": 0.104,
        "velocity": 0.71,
        "hand": "right"
      },
      {
        "midi": 53,
        "time": 21.25,
        "duration": 0.208,
        "velocity": 0.71,
        "hand": "left"
      },
      {
        "midi": 57,
        "time": 21.25,
        "duration": 0.208,
        "velocity": 0.71,
        "hand": "left"
      },
      {
        "midi": 74,
        "time": 21.25,
        "duration": 0.104,
        "velocity": 0.71,
        "hand": "right"
      },
      {
        "midi": 77,
        "time": 21.25,
        "duration": 0.104,
        "velocity": 0.71,
        "hand": "right"
      },
      {
        "midi": 82,
        "time": 21.354,
        "duration": 0.104,
        "velocity": 0.71,
        "hand": "right"
      },
      {
        "midi": 84,
        "time": 21.563,
        "duration": 0.104,
        "velocity": 0.71,
        "hand": "right"
      },
      {
        "midi": 45,
        "time": 21.667,
        "duration": 0.208,
        "velocity": 0.71,
        "hand": "left"
      },
      {
        "midi": 76,
        "time": 21.667,
        "duration": 0.104,
        "velocity": 0.71,
        "hand": "right"
      },
      {
        "midi": 81,
        "time": 21.667,
        "duration": 0.104,
        "velocity": 0.71,
        "hand": "right"
      },
      {
        "midi": 74,
        "time": 21.771,
        "duration": 0.104,
        "velocity": 0.71,
        "hand": "right"
      },
      {
        "midi": 52,
        "time": 22.083,
        "duration": 0.208,
        "velocity": 0.71,
        "hand": "left"
      },
      {
        "midi": 57,
        "time": 22.083,
        "duration": 0.208,
        "velocity": 0.71,
        "hand": "left"
      },
      {
        "midi": 77,
        "time": 22.083,
        "duration": 0.104,
        "velocity": 0.71,
        "hand": "right"
      },
      {
        "midi": 81,
        "time": 22.083,
        "duration": 0.104,
        "velocity": 0.71,
        "hand": "right"
      },
      {
        "midi": 84,
        "time": 22.083,
        "duration": 0.104,
        "velocity": 0.71,
        "hand": "right"
      },
      {
        "midi": 75,
        "time": 22.292,
        "duration": 0.104,
        "velocity": 0.71,
        "hand": "right"
      },
      {
        "midi": 57,
        "time": 22.5,
        "duration": 0.208,
        "velocity": 0.71,
        "hand": "left"
      },
      {
        "midi": 73,
        "time": 22.5,
        "duration": 0.104,
        "velocity": 0.71,
        "hand": "right"
      },
      {
        "midi": 76,
        "time": 22.5,
        "duration": 0.104,
        "velocity": 0.71,
        "hand": "right"
      },
      {
        "midi": 81,
        "time": 22.5,
        "duration": 0.104,
        "velocity": 0.71,
        "hand": "right"
      },
      {
        "midi": 84,
        "time": 22.604,
        "duration": 0.104,
        "velocity": 0.71,
        "hand": "right"
      },
      {
        "midi": 83,
        "time": 22.708,
        "duration": 0.104,
        "velocity": 0.71,
        "hand": "right"
      },
      {
        "midi": 72,
        "time": 22.917,
        "duration": 0.104,
        "velocity": 0.71,
        "hand": "right"
      },
      {
        "midi": 76,
        "time": 22.917,
        "duration": 0.104,
        "velocity": 0.71,
        "hand": "right"
      },
      {
        "midi": 81,
        "time": 22.917,
        "duration": 0.104,
        "velocity": 0.71,
        "hand": "right"
      },
      {
        "midi": 83,
        "time": 23.125,
        "duration": 0.104,
        "velocity": 0.71,
        "hand": "right"
      },
      {
        "midi": 81,
        "time": 23.229,
        "duration": 0.104,
        "velocity": 0.71,
        "hand": "right"
      },
      {
        "midi": 38,
        "time": 23.333,
        "duration": 0.208,
        "velocity": 0.71,
        "hand": "left"
      },
      {
        "midi": 50,
        "time": 23.333,
        "duration": 0.208,
        "velocity": 0.71,
        "hand": "left"
      },
      {
        "midi": 74,
        "time": 23.333,
        "duration": 0.104,
        "velocity": 0.71,
        "hand": "right"
      },
      {
        "midi": 77,
        "time": 23.333,
        "duration": 0.104,
        "velocity": 0.71,
        "hand": "right"
      },
      {
        "midi": 83,
        "time": 23.438,
        "duration": 0.104,
        "velocity": 0.71,
        "hand": "right"
      },
      {
        "midi": 84,
        "time": 23.542,
        "duration": 0.104,
        "velocity": 0.71,
        "hand": "right"
      },
      {
        "midi": 73,
        "time": 23.646,
        "duration": 0.104,
        "velocity": 0.71,
        "hand": "right"
      },
      {
        "midi": 50,
        "time": 23.75,
        "duration": 0.208,
        "velocity": 0.71,
        "hand": "left"
      },
      {
        "midi": 53,
        "time": 23.75,
        "duration": 0.208,
        "velocity": 0.71,
        "hand": "left"
      },
      {
        "midi": 77,
        "time": 23.75,
        "duration": 0.104,
        "velocity": 0.71,
        "hand": "right"
      },
      {
        "midi": 82,
        "time": 23.75,
        "duration": 0.104,
        "velocity": 0.71,
        "hand": "right"
      },
      {
        "midi": 75,
        "time": 23.854,
        "duration": 0.104,
        "velocity": 0.71,
        "hand": "right"
      },
      {
        "midi": 77,
        "time": 24.063,
        "duration": 0.104,
        "velocity": 0.71,
        "hand": "right"
      },
      {
        "midi": 40,
        "time": 24.167,
        "duration": 0.208,
        "velocity": 0.71,
        "hand": "left"
      },
      {
        "midi": 52,
        "time": 24.167,
        "duration": 0.208,
        "velocity": 0.71,
        "hand": "left"
      },
      {
        "midi": 74,
        "time": 24.167,
        "duration": 0.104,
        "velocity": 0.71,
        "hand": "right"
      },
      {
        "midi": 80,
        "time": 24.167,
        "duration": 0.104,
        "velocity": 0.71,
        "hand": "right"
      },
      {
        "midi": 77,
        "time": 24.271,
        "duration": 0.104,
        "velocity": 0.71,
        "hand": "right"
      },
      {
        "midi": 79,
        "time": 24.479,
        "duration": 0.104,
        "velocity": 0.71,
        "hand": "right"
      },
      {
        "midi": 52,
        "time": 24.583,
        "duration": 0.208,
        "velocity": 0.71,
        "hand": "left"
      },
      {
        "midi": 59,
        "time": 24.583,
        "duration": 0.208,
        "velocity": 0.71,
        "hand": "left"
      },
      {
        "midi": 62,
        "time": 24.583,
        "duration": 0.208,
        "velocity": 0.71,
        "hand": "right"
      },
      {
        "midi": 74,
        "time": 24.583,
        "duration": 0.104,
        "velocity": 0.71,
        "hand": "right"
      },
      {
        "midi": 81,
        "time": 24.688,
        "duration": 0.104,
        "velocity": 0.71,
        "hand": "right"
      },
      {
        "midi": 41,
        "time": 25,
        "duration": 0.208,
        "velocity": 0.71,
        "hand": "left"
      },
      {
        "midi": 53,
        "time": 25,
        "duration": 0.208,
        "velocity": 0.71,
        "hand": "left"
      },
      {
        "midi": 77,
        "time": 25,
        "duration": 0.104,
        "velocity": 0.71,
        "hand": "right"
      },
      {
        "midi": 81,
        "time": 25,
        "duration": 0.104,
        "velocity": 0.71,
        "hand": "right"
      },
      {
        "midi": 84,
        "time": 25,
        "duration": 0.104,
        "velocity": 0.71,
        "hand": "right"
      },
      {
        "midi": 79,
        "time": 25.208,
        "duration": 0.104,
        "velocity": 0.71,
        "hand": "right"
      },
      {
        "midi": 57,
        "time": 25.417,
        "duration": 0.208,
        "velocity": 0.71,
        "hand": "left"
      },
      {
        "midi": 77,
        "time": 25.417,
        "duration": 0.104,
        "velocity": 0.71,
        "hand": "right"
      },
      {
        "midi": 81,
        "time": 25.417,
        "duration": 0.104,
        "velocity": 0.71,
        "hand": "right"
      },
      {
        "midi": 84,
        "time": 25.417,
        "duration": 0.104,
        "velocity": 0.71,
        "hand": "right"
      },
      {
        "midi": 75,
        "time": 25.625,
        "duration": 0.104,
        "velocity": 0.71,
        "hand": "right"
      },
      {
        "midi": 36,
        "time": 25.833,
        "duration": 0.208,
        "velocity": 0.71,
        "hand": "left"
      },
      {
        "midi": 48,
        "time": 25.833,
        "duration": 0.208,
        "velocity": 0.71,
        "hand": "left"
      },
      {
        "midi": 73,
        "time": 25.833,
        "duration": 0.104,
        "velocity": 0.71,
        "hand": "right"
      },
      {
        "midi": 76,
        "time": 25.833,
        "duration": 0.104,
        "velocity": 0.71,
        "hand": "right"
      },
      {
        "midi": 81,
        "time": 25.833,
        "duration": 0.104,
        "velocity": 0.71,
        "hand": "right"
      },
      {
        "midi": 84,
        "time": 25.938,
        "duration": 0.104,
        "velocity": 0.71,
        "hand": "right"
      },
      {
        "midi": 83,
        "time": 26.042,
        "duration": 0.104,
        "velocity": 0.71,
        "hand": "right"
      },
      {
        "midi": 52,
        "time": 26.25,
        "duration": 0.208,
        "velocity": 0.71,
        "hand": "left"
      },
      {
        "midi": 57,
        "time": 26.25,
        "duration": 0.208,
        "velocity": 0.71,
        "hand": "left"
      },
      {
        "midi": 72,
        "time": 26.25,
        "duration": 0.104,
        "velocity": 0.71,
        "hand": "right"
      },
      {
        "midi": 76,
        "time": 26.25,
        "duration": 0.104,
        "velocity": 0.71,
        "hand": "right"
      },
      {
        "midi": 81,
        "time": 26.25,
        "duration": 0.104,
        "velocity": 0.71,
        "hand": "right"
      },
      {
        "midi": 79,
        "time": 26.458,
        "duration": 0.104,
        "velocity": 0.71,
        "hand": "right"
      },
      {
        "midi": 38,
        "time": 26.667,
        "duration": 0.208,
        "velocity": 0.71,
        "hand": "left"
      },
      {
        "midi": 70,
        "time": 26.667,
        "duration": 0.104,
        "velocity": 0.71,
        "hand": "right"
      },
      {
        "midi": 74,
        "time": 26.667,
        "duration": 0.104,
        "velocity": 0.71,
        "hand": "right"
      },
      {
        "midi": 77,
        "time": 26.667,
        "duration": 0.104,
        "velocity": 0.71,
        "hand": "right"
      },
      {
        "midi": 75,
        "time": 26.875,
        "duration": 0.104,
        "velocity": 0.71,
        "hand": "right"
      },
      {
        "midi": 50,
        "time": 27.083,
        "duration": 0.417,
        "velocity": 0.71,
        "hand": "left"
      },
      {
        "midi": 53,
        "time": 27.083,
        "duration": 0.417,
        "velocity": 0.71,
        "hand": "left"
      },
      {
        "midi": 65,
        "time": 27.083,
        "duration": 0.104,
        "velocity": 0.71,
        "hand": "right"
      },
      {
        "midi": 70,
        "time": 27.083,
        "duration": 0.104,
        "velocity": 0.71,
        "hand": "right"
      },
      {
        "midi": 74,
        "time": 27.188,
        "duration": 0.104,
        "velocity": 0.71,
        "hand": "right"
      },
      {
        "midi": 77,
        "time": 27.292,
        "duration": 0.104,
        "velocity": 0.71,
        "hand": "right"
      },
      {
        "midi": 74,
        "time": 27.396,
        "duration": 0.104,
        "velocity": 0.71,
        "hand": "right"
      },
      {
        "midi": 52,
        "time": 27.5,
        "duration": 0.402,
        "velocity": 0.71,
        "hand": "left"
      },
      {
        "midi": 57,
        "time": 27.5,
        "duration": 0.417,
        "velocity": 0.71,
        "hand": "left"
      },
      {
        "midi": 64,
        "time": 27.5,
        "duration": 0.104,
        "velocity": 0.71,
        "hand": "right"
      },
      {
        "midi": 69,
        "time": 27.5,
        "duration": 0.104,
        "velocity": 0.71,
        "hand": "right"
      },
      {
        "midi": 72,
        "time": 27.604,
        "duration": 0.104,
        "velocity": 0.71,
        "hand": "right"
      },
      {
        "midi": 76,
        "time": 27.708,
        "duration": 0.104,
        "velocity": 0.71,
        "hand": "right"
      },
      {
        "midi": 72,
        "time": 27.813,
        "duration": 0.104,
        "velocity": 0.71,
        "hand": "right"
      },
      {
        "midi": 52,
        "time": 27.917,
        "duration": 0.417,
        "velocity": 0.71,
        "hand": "left"
      },
      {
        "midi": 62,
        "time": 27.917,
        "duration": 0.104,
        "velocity": 0.71,
        "hand": "right"
      },
      {
        "midi": 68,
        "time": 27.917,
        "duration": 0.104,
        "velocity": 0.71,
        "hand": "right"
      },
      {
        "midi": 71,
        "time": 28.021,
        "duration": 0.104,
        "velocity": 0.71,
        "hand": "right"
      },
      {
        "midi": 76,
        "time": 28.125,
        "duration": 0.104,
        "velocity": 0.71,
        "hand": "right"
      },
      {
        "midi": 71,
        "time": 28.229,
        "duration": 0.104,
        "velocity": 0.71,
        "hand": "right"
      },
      {
        "midi": 45,
        "time": 28.333,
        "duration": 0.417,
        "velocity": 0.71,
        "hand": "left"
      },
      {
        "midi": 57,
        "time": 28.333,
        "duration": 0.417,
        "velocity": 0.71,
        "hand": "left"
      },
      {
        "midi": 60,
        "time": 28.333,
        "duration": 0.104,
        "velocity": 0.71,
        "hand": "right"
      },
      {
        "midi": 64,
        "time": 28.333,
        "duration": 0.104,
        "velocity": 0.71,
        "hand": "right"
      },
      {
        "midi": 70,
        "time": 28.438,
        "duration": 0.104,
        "velocity": 0.71,
        "hand": "right"
      },
      {
        "midi": 72,
        "time": 28.646,
        "duration": 0.104,
        "velocity": 0.71,
        "hand": "right"
      },
      {
        "midi": 40,
        "time": 28.75,
        "duration": 0.417,
        "velocity": 0.71,
        "hand": "left"
      },
      {
        "midi": 52,
        "time": 28.75,
        "duration": 0.417,
        "velocity": 0.71,
        "hand": "left"
      },
      {
        "midi": 64,
        "time": 28.75,
        "duration": 0.104,
        "velocity": 0.71,
        "hand": "right"
      },
      {
        "midi": 68,
        "time": 28.75,
        "duration": 0.104,
        "velocity": 0.71,
        "hand": "right"
      },
      {
        "midi": 74,
        "time": 28.854,
        "duration": 0.104,
        "velocity": 0.71,
        "hand": "right"
      },
      {
        "midi": 76,
        "time": 29.063,
        "duration": 0.104,
        "velocity": 0.71,
        "hand": "right"
      },
      {
        "midi": 45,
        "time": 29.167,
        "duration": 0.417,
        "velocity": 0.71,
        "hand": "left"
      },
      {
        "midi": 69,
        "time": 29.167,
        "duration": 0.104,
        "velocity": 0.71,
        "hand": "right"
      },
      {
        "midi": 72,
        "time": 29.167,
        "duration": 0.104,
        "velocity": 0.71,
        "hand": "right"
      },
      {
        "midi": 81,
        "time": 29.167,
        "duration": 0.104,
        "velocity": 0.71,
        "hand": "right"
      },
      {
        "midi": 79,
        "time": 29.375,
        "duration": 0.104,
        "velocity": 0.71,
        "hand": "right"
      },
      {
        "midi": 77,
        "time": 29.583,
        "duration": 0.104,
        "velocity": 0.71,
        "hand": "right"
      },
      {
        "midi": 75,
        "time": 29.792,
        "duration": 0.104,
        "velocity": 0.71,
        "hand": "right"
      },
      {
        "midi": 36,
        "time": 30,
        "duration": 0.208,
        "velocity": 0.71,
        "hand": "left"
      },
      {
        "midi": 48,
        "time": 30,
        "duration": 0.208,
        "velocity": 0.71,
        "hand": "left"
      },
      {
        "midi": 64,
        "time": 30,
        "duration": 0.104,
        "velocity": 0.71,
        "hand": "right"
      },
      {
        "midi": 70,
        "time": 30,
        "duration": 0.104,
        "velocity": 0.71,
        "hand": "right"
      },
      {
        "midi": 73,
        "time": 30,
        "duration": 0.104,
        "velocity": 0.71,
        "hand": "right"
      },
      {
        "midi": 72,
        "time": 30.313,
        "duration": 0.104,
        "velocity": 0.71,
        "hand": "right"
      },
      {
        "midi": 48,
        "time": 30.417,
        "duration": 0.208,
        "velocity": 0.71,
        "hand": "left"
      },
      {
        "midi": 55,
        "time": 30.417,
        "duration": 0.208,
        "velocity": 0.71,
        "hand": "left"
      },
      {
        "midi": 64,
        "time": 30.417,
        "duration": 0.104,
        "velocity": 0.71,
        "hand": "right"
      },
      {
        "midi": 70,
        "time": 30.417,
        "duration": 0.104,
        "velocity": 0.71,
        "hand": "right"
      },
      {
        "midi": 74,
        "time": 30.521,
        "duration": 0.104,
        "velocity": 0.71,
        "hand": "right"
      },
      {
        "midi": 76,
        "time": 30.729,
        "duration": 0.104,
        "velocity": 0.71,
        "hand": "right"
      },
      {
        "midi": 41,
        "time": 30.833,
        "duration": 0.208,
        "velocity": 0.71,
        "hand": "left"
      },
      {
        "midi": 69,
        "time": 30.833,
        "duration": 0.104,
        "velocity": 0.71,
        "hand": "right"
      },
      {
        "midi": 78,
        "time": 30.938,
        "duration": 0.104,
        "velocity": 0.71,
        "hand": "right"
      },
      {
        "midi": 48,
        "time": 31.25,
        "duration": 0.208,
        "velocity": 0.71,
        "hand": "left"
      },
      {
        "midi": 57,
        "time": 31.25,
        "duration": 0.208,
        "velocity": 0.71,
        "hand": "left"
      },
      {
        "midi": 60,
        "time": 31.25,
        "duration": 0.208,
        "velocity": 0.71,
        "hand": "right"
      },
      {
        "midi": 72,
        "time": 31.25,
        "duration": 0.104,
        "velocity": 0.71,
        "hand": "right"
      },
      {
        "midi": 81,
        "time": 31.25,
        "duration": 0.104,
        "velocity": 0.71,
        "hand": "right"
      },
      {
        "midi": 77,
        "time": 31.458,
        "duration": 0.104,
        "velocity": 0.71,
        "hand": "right"
      },
      {
        "midi": 74,
        "time": 31.563,
        "duration": 0.104,
        "velocity": 0.71,
        "hand": "right"
      },
      {
        "midi": 36,
        "time": 31.667,
        "duration": 0.208,
        "velocity": 0.71,
        "hand": "left"
      },
      {
        "midi": 70,
        "time": 31.667,
        "duration": 0.104,
        "velocity": 0.71,
        "hand": "right"
      },
      {
        "midi": 72,
        "time": 31.979,
        "duration": 0.104,
        "velocity": 0.71,
        "hand": "right"
      },
      {
        "midi": 48,
        "time": 32.083,
        "duration": 0.208,
        "velocity": 0.71,
        "hand": "left"
      },
      {
        "midi": 55,
        "time": 32.083,
        "duration": 0.208,
        "velocity": 0.71,
        "hand": "left"
      },
      {
        "midi": 64,
        "time": 32.083,
        "duration": 0.104,
        "velocity": 0.71,
        "hand": "right"
      },
      {
        "midi": 70,
        "time": 32.083,
        "duration": 0.104,
        "velocity": 0.71,
        "hand": "right"
      },
      {
        "midi": 74,
        "time": 32.188,
        "duration": 0.104,
        "velocity": 0.71,
        "hand": "right"
      },
      {
        "midi": 76,
        "time": 32.396,
        "duration": 0.104,
        "velocity": 0.71,
        "hand": "right"
      },
      {
        "midi": 37,
        "time": 32.5,
        "duration": 0.208,
        "velocity": 0.71,
        "hand": "left"
      },
      {
        "midi": 65,
        "time": 32.5,
        "duration": 0.104,
        "velocity": 0.71,
        "hand": "right"
      },
      {
        "midi": 68,
        "time": 32.5,
        "duration": 0.104,
        "velocity": 0.71,
        "hand": "right"
      },
      {
        "midi": 78,
        "time": 32.604,
        "duration": 0.104,
        "velocity": 0.71,
        "hand": "right"
      },
      {
        "midi": 80,
        "time": 32.813,
        "duration": 0.104,
        "velocity": 0.71,
        "hand": "right"
      },
      {
        "midi": 49,
        "time": 32.917,
        "duration": 0.208,
        "velocity": 0.71,
        "hand": "left"
      },
      {
        "midi": 56,
        "time": 32.917,
        "duration": 0.208,
        "velocity": 0.71,
        "hand": "left"
      },
      {
        "midi": 71,
        "time": 32.917,
        "duration": 0.104,
        "velocity": 0.71,
        "hand": "right"
      },
      {
        "midi": 77,
        "time": 33.125,
        "duration": 0.104,
        "velocity": 0.71,
        "hand": "right"
      },
      {
        "midi": 38,
        "time": 33.333,
        "duration": 0.208,
        "velocity": 0.71,
        "hand": "left"
      },
      {
        "midi": 72,
        "time": 33.333,
        "duration": 0.104,
        "velocity": 0.71,
        "hand": "right"
      },
      {
        "midi": 75,
        "time": 33.333,
        "duration": 0.104,
        "velocity": 0.71,
        "hand": "right"
      },
      {
        "midi": 74,
        "time": 33.646,
        "duration": 0.104,
        "velocity": 0.71,
        "hand": "right"
      },
      {
        "midi": 50,
        "time": 33.75,
        "duration": 0.208,
        "velocity": 0.71,
        "hand": "left"
      },
      {
        "midi": 57,
        "time": 33.75,
        "duration": 0.208,
        "velocity": 0.71,
        "hand": "left"
      },
      {
        "midi": 66,
        "time": 33.75,
        "duration": 0.104,
        "velocity": 0.71,
        "hand": "right"
      },
      {
        "midi": 72,
        "time": 33.75,
        "duration": 0.104,
        "velocity": 0.71,
        "hand": "right"
      },
      {
        "midi": 76,
        "time": 33.854,
        "duration": 0.104,
        "velocity": 0.71,
        "hand": "right"
      },
      {
        "midi": 78,
        "time": 34.063,
        "duration": 0.104,
        "velocity": 0.71,
        "hand": "right"
      },
      {
        "midi": 43,
        "time": 34.167,
        "duration": 0.208,
        "velocity": 0.71,
        "hand": "left"
      },
      {
        "midi": 70,
        "time": 34.167,
        "duration": 0.104,
        "velocity": 0.71,
        "hand": "right"
      },
      {
        "midi": 80,
        "time": 34.271,
        "duration": 0.104,
        "velocity": 0.71,
        "hand": "right"
      },
      {
        "midi": 82,
        "time": 34.479,
        "duration": 0.104,
        "velocity": 0.71,
        "hand": "right"
      },
      {
        "midi": 50,
        "time": 34.583,
        "duration": 0.208,
        "velocity": 0.71,
        "hand": "left"
      },
      {
        "midi": 55,
        "time": 34.583,
        "duration": 0.208,
        "velocity": 0.71,
        "hand": "left"
      },
      {
        "midi": 74,
        "time": 34.583,
        "duration": 0.104,
        "velocity": 0.71,
        "hand": "right"
      },
      {
        "midi": 79,
        "time": 34.792,
        "duration": 0.104,
        "velocity": 0.71,
        "hand": "right"
      },
      {
        "midi": 75,
        "time": 34.896,
        "duration": 0.104,
        "velocity": 0.71,
        "hand": "right"
      },
      {
        "midi": 38,
        "time": 35,
        "duration": 0.208,
        "velocity": 0.71,
        "hand": "left"
      },
      {
        "midi": 72,
        "time": 35,
        "duration": 0.104,
        "velocity": 0.71,
        "hand": "right"
      },
      {
        "midi": 75,
        "time": 35.104,
        "duration": 0.104,
        "velocity": 0.71,
        "hand": "right"
      },
      {
        "midi": 74,
        "time": 35.313,
        "duration": 0.104,
        "velocity": 0.71,
        "hand": "right"
      },
      {
        "midi": 50,
        "time": 35.417,
        "duration": 0.208,
        "velocity": 0.71,
        "hand": "left"
      },
      {
        "midi": 57,
        "time": 35.417,
        "duration": 0.208,
        "velocity": 0.71,
        "hand": "left"
      },
      {
        "midi": 66,
        "time": 35.417,
        "duration": 0.104,
        "velocity": 0.71,
        "hand": "right"
      },
      {
        "midi": 72,
        "time": 35.417,
        "duration": 0.104,
        "velocity": 0.71,
        "hand": "right"
      },
      {
        "midi": 76,
        "time": 35.521,
        "duration": 0.104,
        "velocity": 0.71,
        "hand": "right"
      },
      {
        "midi": 78,
        "time": 35.729,
        "duration": 0.104,
        "velocity": 0.71,
        "hand": "right"
      },
      {
        "midi": 39,
        "time": 35.833,
        "duration": 0.208,
        "velocity": 0.71,
        "hand": "left"
      },
      {
        "midi": 67,
        "time": 35.833,
        "duration": 0.104,
        "velocity": 0.71,
        "hand": "right"
      },
      {
        "midi": 70,
        "time": 35.833,
        "duration": 0.104,
        "velocity": 0.71,
        "hand": "right"
      },
      {
        "midi": 80,
        "time": 35.938,
        "duration": 0.104,
        "velocity": 0.71,
        "hand": "right"
      },
      {
        "midi": 82,
        "time": 36.146,
        "duration": 0.104,
        "velocity": 0.71,
        "hand": "right"
      },
      {
        "midi": 51,
        "time": 36.25,
        "duration": 0.208,
        "velocity": 0.71,
        "hand": "left"
      },
      {
        "midi": 58,
        "time": 36.25,
        "duration": 0.208,
        "velocity": 0.71,
        "hand": "left"
      },
      {
        "midi": 61,
        "time": 36.25,
        "duration": 0.208,
        "velocity": 0.71,
        "hand": "right"
      },
      {
        "midi": 73,
        "time": 36.25,
        "duration": 0.104,
        "velocity": 0.71,
        "hand": "right"
      },
      {
        "midi": 79,
        "time": 36.458,
        "duration": 0.104,
        "velocity": 0.71,
        "hand": "right"
      },
      {
        "midi": 40,
        "time": 36.667,
        "duration": 0.208,
        "velocity": 0.71,
        "hand": "left"
      },
      {
        "midi": 74,
        "time": 36.667,
        "duration": 0.104,
        "velocity": 0.71,
        "hand": "right"
      },
      {
        "midi": 77,
        "time": 36.667,
        "duration": 0.104,
        "velocity": 0.71,
        "hand": "right"
      },
      {
        "midi": 76,
        "time": 36.979,
        "duration": 0.104,
        "velocity": 0.71,
        "hand": "right"
      },
      {
        "midi": 52,
        "time": 37.083,
        "duration": 0.208,
        "velocity": 0.71,
        "hand": "left"
      },
      {
        "midi": 59,
        "time": 37.083,
        "duration": 0.208,
        "velocity": 0.71,
        "hand": "left"
      },
      {
        "midi": 68,
        "time": 37.083,
        "duration": 0.104,
        "velocity": 0.71,
        "hand": "right"
      },
      {
        "midi": 74,
        "time": 37.083,
        "duration": 0.104,
        "velocity": 0.71,
        "hand": "right"
      },
      {
        "midi": 78,
        "time": 37.188,
        "duration": 0.104,
        "velocity": 0.71,
        "hand": "right"
      },
      {
        "midi": 80,
        "time": 37.396,
        "duration": 0.104,
        "velocity": 0.71,
        "hand": "right"
      },
      {
        "midi": 45,
        "time": 37.5,
        "duration": 0.208,
        "velocity": 0.71,
        "hand": "left"
      },
      {
        "midi": 72,
        "time": 37.5,
        "duration": 0.104,
        "velocity": 0.71,
        "hand": "right"
      },
      {
        "midi": 82,
        "time": 37.604,
        "duration": 0.104,
        "velocity": 0.71,
        "hand": "right"
      },
      {
        "midi": 84,
        "time": 37.813,
        "duration": 0.104,
        "velocity": 0.71,
        "hand": "right"
      },
      {
        "midi": 52,
        "time": 37.917,
        "duration": 0.208,
        "velocity": 0.71,
        "hand": "left"
      },
      {
        "midi": 57,
        "time": 37.917,
        "duration": 0.208,
        "velocity": 0.71,
        "hand": "left"
      },
      {
        "midi": 64,
        "time": 37.917,
        "duration": 0.208,
        "velocity": 0.71,
        "hand": "right"
      },
      {
        "midi": 76,
        "time": 37.917,
        "duration": 0.104,
        "velocity": 0.71,
        "hand": "right"
      },
      {
        "midi": 81,
        "time": 38.125,
        "duration": 0.104,
        "velocity": 0.71,
        "hand": "right"
      },
      {
        "midi": 40,
        "time": 38.333,
        "duration": 0.208,
        "velocity": 0.71,
        "hand": "left"
      },
      {
        "midi": 74,
        "time": 38.333,
        "duration": 0.104,
        "velocity": 0.71,
        "hand": "right"
      },
      {
        "midi": 79,
        "time": 38.333,
        "duration": 0.104,
        "velocity": 0.71,
        "hand": "right"
      },
      {
        "midi": 77,
        "time": 38.542,
        "duration": 0.104,
        "velocity": 0.71,
        "hand": "right"
      },
      {
        "midi": 52,
        "time": 38.75,
        "duration": 0.208,
        "velocity": 0.71,
        "hand": "left"
      },
      {
        "midi": 59,
        "time": 38.75,
        "duration": 0.208,
        "velocity": 0.71,
        "hand": "left"
      },
      {
        "midi": 68,
        "time": 38.75,
        "duration": 0.104,
        "velocity": 0.71,
        "hand": "right"
      },
      {
        "midi": 74,
        "time": 38.75,
        "duration": 0.104,
        "velocity": 0.71,
        "hand": "right"
      },
      {
        "midi": 78,
        "time": 38.854,
        "duration": 0.104,
        "velocity": 0.71,
        "hand": "right"
      },
      {
        "midi": 80,
        "time": 39.063,
        "duration": 0.104,
        "velocity": 0.71,
        "hand": "right"
      },
      {
        "midi": 45,
        "time": 39.167,
        "duration": 0.417,
        "velocity": 0.71,
        "hand": "left"
      },
      {
        "midi": 57,
        "time": 39.167,
        "duration": 0.417,
        "velocity": 0.71,
        "hand": "left"
      },
      {
        "midi": 72,
        "time": 39.167,
        "duration": 0.104,
        "velocity": 0.71,
        "hand": "right"
      },
      {
        "midi": 82,
        "time": 39.271,
        "duration": 0.104,
        "velocity": 0.71,
        "hand": "right"
      },
      {
        "midi": 84,
        "time": 39.479,
        "duration": 0.104,
        "velocity": 0.71,
        "hand": "right"
      },
      {
        "midi": 43,
        "time": 39.583,
        "duration": 0.417,
        "velocity": 0.71,
        "hand": "left"
      },
      {
        "midi": 55,
        "time": 39.583,
        "duration": 0.417,
        "velocity": 0.71,
        "hand": "left"
      },
      {
        "midi": 76,
        "time": 39.583,
        "duration": 0.104,
        "velocity": 0.71,
        "hand": "right"
      },
      {
        "midi": 81,
        "time": 39.583,
        "duration": 0.104,
        "velocity": 0.71,
        "hand": "right"
      },
      {
        "midi": 74,
        "time": 39.688,
        "duration": 0.104,
        "velocity": 0.71,
        "hand": "right"
      },
      {
        "midi": 41,
        "time": 40,
        "duration": 0.417,
        "velocity": 0.71,
        "hand": "left"
      },
      {
        "midi": 53,
        "time": 40,
        "duration": 0.417,
        "velocity": 0.71,
        "hand": "left"
      },
      {
        "midi": 77,
        "time": 40,
        "duration": 0.104,
        "velocity": 0.71,
        "hand": "right"
      },
      {
        "midi": 81,
        "time": 40,
        "duration": 0.104,
        "velocity": 0.71,
        "hand": "right"
      },
      {
        "midi": 75,
        "time": 40.208,
        "duration": 0.104,
        "velocity": 0.71,
        "hand": "right"
      },
      {
        "midi": 47,
        "time": 40.417,
        "duration": 0.833,
        "velocity": 0.71,
        "hand": "left"
      },
      {
        "midi": 59,
        "time": 40.417,
        "duration": 0.833,
        "velocity": 0.71,
        "hand": "left"
      },
      {
        "midi": 73,
        "time": 40.417,
        "duration": 0.104,
        "velocity": 0.71,
        "hand": "right"
      },
      {
        "midi": 77,
        "time": 40.417,
        "duration": 0.104,
        "velocity": 0.71,
        "hand": "right"
      },
      {
        "midi": 81,
        "time": 40.417,
        "duration": 0.104,
        "velocity": 0.71,
        "hand": "right"
      },
      {
        "midi": 84,
        "time": 40.521,
        "duration": 0.104,
        "velocity": 0.71,
        "hand": "right"
      },
      {
        "midi": 83,
        "time": 40.625,
        "duration": 0.104,
        "velocity": 0.71,
        "hand": "right"
      },
      {
        "midi": 74,
        "time": 40.833,
        "duration": 0.104,
        "velocity": 0.71,
        "hand": "right"
      },
      {
        "midi": 77,
        "time": 40.833,
        "duration": 0.104,
        "velocity": 0.71,
        "hand": "right"
      },
      {
        "midi": 81,
        "time": 40.833,
        "duration": 0.104,
        "velocity": 0.71,
        "hand": "right"
      },
      {
        "midi": 79,
        "time": 41.042,
        "duration": 0.104,
        "velocity": 0.71,
        "hand": "right"
      },
      {
        "midi": 52,
        "time": 41.25,
        "duration": 0.417,
        "velocity": 0.71,
        "hand": "left"
      },
      {
        "midi": 68,
        "time": 41.25,
        "duration": 0.104,
        "velocity": 0.71,
        "hand": "right"
      },
      {
        "midi": 74,
        "time": 41.25,
        "duration": 0.104,
        "velocity": 0.71,
        "hand": "right"
      },
      {
        "midi": 77,
        "time": 41.25,
        "duration": 0.104,
        "velocity": 0.71,
        "hand": "right"
      },
      {
        "midi": 76,
        "time": 41.563,
        "duration": 0.104,
        "velocity": 0.71,
        "hand": "right"
      },
      {
        "midi": 39,
        "time": 41.667,
        "duration": 0.417,
        "velocity": 0.71,
        "hand": "left"
      },
      {
        "midi": 51,
        "time": 41.667,
        "duration": 0.417,
        "velocity": 0.71,
        "hand": "left"
      },
      {
        "midi": 79,
        "time": 41.667,
        "duration": 0.104,
        "velocity": 0.71,
        "hand": "right"
      },
      {
        "midi": 73,
        "time": 41.875,
        "duration": 0.104,
        "velocity": 0.71,
        "hand": "right"
      },
      {
        "midi": 84,
        "time": 41.979,
        "duration": 0.104,
        "velocity": 0.71,
        "hand": "right"
      },
      {
        "midi": 45,
        "time": 42.083,
        "duration": 0.833,
        "velocity": 0.71,
        "hand": "left"
      },
      {
        "midi": 57,
        "time": 42.083,
        "duration": 0.833,
        "velocity": 0.71,
        "hand": "left"
      },
      {
        "midi": 75,
        "time": 42.083,
        "duration": 0.104,
        "velocity": 0.71,
        "hand": "right"
      },
      {
        "midi": 79,
        "time": 42.083,
        "duration": 0.104,
        "velocity": 0.71,
        "hand": "right"
      },
      {
        "midi": 83,
        "time": 42.083,
        "duration": 0.104,
        "velocity": 0.71,
        "hand": "right"
      },
      {
        "midi": 81,
        "time": 42.292,
        "duration": 0.104,
        "velocity": 0.71,
        "hand": "right"
      },
      {
        "midi": 72,
        "time": 42.5,
        "duration": 0.104,
        "velocity": 0.71,
        "hand": "right"
      },
      {
        "midi": 75,
        "time": 42.5,
        "duration": 0.104,
        "velocity": 0.71,
        "hand": "right"
      },
      {
        "midi": 79,
        "time": 42.5,
        "duration": 0.104,
        "velocity": 0.71,
        "hand": "right"
      },
      {
        "midi": 77,
        "time": 42.708,
        "duration": 0.104,
        "velocity": 0.71,
        "hand": "right"
      },
      {
        "midi": 50,
        "time": 42.917,
        "duration": 0.417,
        "velocity": 0.71,
        "hand": "left"
      },
      {
        "midi": 66,
        "time": 42.917,
        "duration": 0.104,
        "velocity": 0.71,
        "hand": "right"
      },
      {
        "midi": 72,
        "time": 42.917,
        "duration": 0.104,
        "velocity": 0.71,
        "hand": "right"
      },
      {
        "midi": 75,
        "time": 42.917,
        "duration": 0.104,
        "velocity": 0.71,
        "hand": "right"
      },
      {
        "midi": 74,
        "time": 43.229,
        "duration": 0.089,
        "velocity": 0.71,
        "hand": "right"
      },
      {
        "midi": 43,
        "time": 43.333,
        "duration": 0.417,
        "velocity": 0.71,
        "hand": "left"
      },
      {
        "midi": 55,
        "time": 43.333,
        "duration": 0.417,
        "velocity": 0.71,
        "hand": "left"
      },
      {
        "midi": 74,
        "time": 43.333,
        "duration": 0.104,
        "velocity": 0.71,
        "hand": "right"
      },
      {
        "midi": 79,
        "time": 43.333,
        "duration": 0.104,
        "velocity": 0.71,
        "hand": "right"
      },
      {
        "midi": 82,
        "time": 43.333,
        "duration": 0.104,
        "velocity": 0.71,
        "hand": "right"
      },
      {
        "midi": 84,
        "time": 43.542,
        "duration": 0.104,
        "velocity": 0.71,
        "hand": "right"
      },
      {
        "midi": 51,
        "time": 43.75,
        "duration": 0.417,
        "velocity": 0.71,
        "hand": "left"
      },
      {
        "midi": 73,
        "time": 43.75,
        "duration": 0.104,
        "velocity": 0.71,
        "hand": "right"
      },
      {
        "midi": 79,
        "time": 43.75,
        "duration": 0.104,
        "velocity": 0.71,
        "hand": "right"
      },
      {
        "midi": 82,
        "time": 43.75,
        "duration": 0.104,
        "velocity": 0.71,
        "hand": "right"
      },
      {
        "midi": 80,
        "time": 43.958,
        "duration": 0.104,
        "velocity": 0.71,
        "hand": "right"
      },
      {
        "midi": 50,
        "time": 44.167,
        "duration": 0.208,
        "velocity": 0.71,
        "hand": "left"
      },
      {
        "midi": 69,
        "time": 44.167,
        "duration": 0.104,
        "velocity": 0.71,
        "hand": "right"
      },
      {
        "midi": 74,
        "time": 44.167,
        "duration": 0.104,
        "velocity": 0.71,
        "hand": "right"
      },
      {
        "midi": 79,
        "time": 44.271,
        "duration": 0.104,
        "velocity": 0.71,
        "hand": "right"
      },
      {
        "midi": 81,
        "time": 44.479,
        "duration": 0.104,
        "velocity": 0.71,
        "hand": "right"
      },
      {
        "midi": 45,
        "time": 44.583,
        "duration": 0.417,
        "velocity": 0.71,
        "hand": "left"
      },
      {
        "midi": 57,
        "time": 44.583,
        "duration": 0.417,
        "velocity": 0.71,
        "hand": "left"
      },
      {
        "midi": 72,
        "time": 44.583,
        "duration": 0.104,
        "velocity": 0.71,
        "hand": "right"
      },
      {
        "midi": 77,
        "time": 44.583,
        "duration": 0.104,
        "velocity": 0.71,
        "hand": "right"
      },
      {
        "midi": 84,
        "time": 44.792,
        "duration": 0.104,
        "velocity": 0.71,
        "hand": "right"
      },
      {
        "midi": 41,
        "time": 45,
        "duration": 0.208,
        "velocity": 0.71,
        "hand": "left"
      },
      {
        "midi": 53,
        "time": 45,
        "duration": 0.208,
        "velocity": 0.71,
        "hand": "left"
      },
      {
        "midi": 74,
        "time": 45,
        "duration": 0.104,
        "velocity": 0.71,
        "hand": "right"
      },
      {
        "midi": 77,
        "time": 45,
        "duration": 0.104,
        "velocity": 0.71,
        "hand": "right"
      },
      {
        "midi": 81,
        "time": 45,
        "duration": 0.104,
        "velocity": 0.71,
        "hand": "right"
      },
      {
        "midi": 84,
        "time": 45.104,
        "duration": 0.104,
        "velocity": 0.71,
        "hand": "right"
      },
      {
        "midi": 82,
        "time": 45.208,
        "duration": 0.104,
        "velocity": 0.71,
        "hand": "right"
      },
      {
        "midi": 49,
        "time": 45.417,
        "duration": 0.417,
        "velocity": 0.71,
        "hand": "left"
      },
      {
        "midi": 71,
        "time": 45.417,
        "duration": 0.104,
        "velocity": 0.71,
        "hand": "right"
      },
      {
        "midi": 77,
        "time": 45.417,
        "duration": 0.104,
        "velocity": 0.71,
        "hand": "right"
      },
      {
        "midi": 80,
        "time": 45.417,
        "duration": 0.104,
        "velocity": 0.71,
        "hand": "right"
      },
      {
        "midi": 78,
        "time": 45.625,
        "duration": 0.104,
        "velocity": 0.71,
        "hand": "right"
      },
      {
        "midi": 48,
        "time": 45.833,
        "duration": 0.208,
        "velocity": 0.71,
        "hand": "left"
      },
      {
        "midi": 67,
        "time": 45.833,
        "duration": 0.104,
        "velocity": 0.71,
        "hand": "right"
      },
      {
        "midi": 72,
        "time": 45.833,
        "duration": 0.104,
        "velocity": 0.71,
        "hand": "right"
      },
      {
        "midi": 77,
        "time": 45.938,
        "duration": 0.104,
        "velocity": 0.71,
        "hand": "right"
      },
      {
        "midi": 79,
        "time": 46.146,
        "duration": 0.104,
        "velocity": 0.71,
        "hand": "right"
      },
      {
        "midi": 43,
        "time": 46.25,
        "duration": 0.417,
        "velocity": 0.71,
        "hand": "left"
      },
      {
        "midi": 55,
        "time": 46.25,
        "duration": 0.417,
        "velocity": 0.71,
        "hand": "left"
      },
      {
        "midi": 70,
        "time": 46.25,
        "duration": 0.104,
        "velocity": 0.71,
        "hand": "right"
      },
      {
        "midi": 75,
        "time": 46.25,
        "duration": 0.104,
        "velocity": 0.71,
        "hand": "right"
      },
      {
        "midi": 82,
        "time": 46.458,
        "duration": 0.104,
        "velocity": 0.71,
        "hand": "right"
      },
      {
        "midi": 39,
        "time": 46.667,
        "duration": 0.208,
        "velocity": 0.71,
        "hand": "left"
      },
      {
        "midi": 51,
        "time": 46.667,
        "duration": 0.208,
        "velocity": 0.71,
        "hand": "left"
      },
      {
        "midi": 75,
        "time": 46.667,
        "duration": 0.104,
        "velocity": 0.71,
        "hand": "right"
      },
      {
        "midi": 79,
        "time": 46.667,
        "duration": 0.104,
        "velocity": 0.71,
        "hand": "right"
      },
      {
        "midi": 84,
        "time": 46.667,
        "duration": 0.104,
        "velocity": 0.71,
        "hand": "right"
      },
      {
        "midi": 82,
        "time": 46.771,
        "duration": 0.104,
        "velocity": 0.71,
        "hand": "right"
      },
      {
        "midi": 81,
        "time": 46.875,
        "duration": 0.104,
        "velocity": 0.71,
        "hand": "right"
      },
      {
        "midi": 51,
        "time": 47.083,
        "duration": 0.819,
        "velocity": 0.71,
        "hand": "left"
      },
      {
        "midi": 70,
        "time": 47.083,
        "duration": 0.104,
        "velocity": 0.71,
        "hand": "right"
      },
      {
        "midi": 75,
        "time": 47.083,
        "duration": 0.104,
        "velocity": 0.71,
        "hand": "right"
      },
      {
        "midi": 79,
        "time": 47.083,
        "duration": 0.104,
        "velocity": 0.71,
        "hand": "right"
      },
      {
        "midi": 77,
        "time": 47.292,
        "duration": 0.104,
        "velocity": 0.71,
        "hand": "right"
      },
      {
        "midi": 67,
        "time": 47.5,
        "duration": 0.104,
        "velocity": 0.71,
        "hand": "right"
      },
      {
        "midi": 70,
        "time": 47.5,
        "duration": 0.104,
        "velocity": 0.71,
        "hand": "right"
      },
      {
        "midi": 75,
        "time": 47.5,
        "duration": 0.104,
        "velocity": 0.71,
        "hand": "right"
      },
      {
        "midi": 73,
        "time": 47.708,
        "duration": 0.104,
        "velocity": 0.71,
        "hand": "right"
      },
      {
        "midi": 39,
        "time": 47.917,
        "duration": 0.417,
        "velocity": 0.71,
        "hand": "left"
      },
      {
        "midi": 51,
        "time": 47.917,
        "duration": 0.417,
        "velocity": 0.71,
        "hand": "left"
      },
      {
        "midi": 61,
        "time": 47.917,
        "duration": 0.104,
        "velocity": 0.71,
        "hand": "right"
      },
      {
        "midi": 67,
        "time": 47.917,
        "duration": 0.104,
        "velocity": 0.71,
        "hand": "right"
      },
      {
        "midi": 70,
        "time": 47.917,
        "duration": 0.104,
        "velocity": 0.71,
        "hand": "right"
      },
      {
        "midi": 68,
        "time": 48.125,
        "duration": 0.104,
        "velocity": 0.71,
        "hand": "right"
      },
      {
        "midi": 38,
        "time": 48.333,
        "duration": 0.208,
        "velocity": 0.71,
        "hand": "left"
      },
      {
        "midi": 50,
        "time": 48.333,
        "duration": 0.208,
        "velocity": 0.71,
        "hand": "left"
      },
      {
        "midi": 62,
        "time": 48.333,
        "duration": 0.104,
        "velocity": 0.71,
        "hand": "right"
      },
      {
        "midi": 67,
        "time": 48.438,
        "duration": 0.104,
        "velocity": 0.71,
        "hand": "right"
      },
      {
        "midi": 39,
        "time": 48.75,
        "duration": 0.417,
        "velocity": 0.71,
        "hand": "left"
      },
      {
        "midi": 45,
        "time": 48.75,
        "duration": 0.417,
        "velocity": 0.71,
        "hand": "left"
      },
      {
        "midi": 61,
        "time": 48.75,
        "duration": 0.104,
        "velocity": 0.71,
        "hand": "right"
      },
      {
        "midi": 67,
        "time": 48.75,
        "duration": 0.104,
        "velocity": 0.71,
        "hand": "right"
      },
      {
        "midi": 70,
        "time": 48.75,
        "duration": 0.104,
        "velocity": 0.71,
        "hand": "right"
      },
      {
        "midi": 68,
        "time": 48.958,
        "duration": 0.104,
        "velocity": 0.71,
        "hand": "right"
      },
      {
        "midi": 38,
        "time": 49.167,
        "duration": 0.208,
        "velocity": 0.71,
        "hand": "left"
      },
      {
        "midi": 50,
        "time": 49.167,
        "duration": 0.208,
        "velocity": 0.71,
        "hand": "left"
      },
      {
        "midi": 62,
        "time": 49.167,
        "duration": 0.104,
        "velocity": 0.71,
        "hand": "right"
      },
      {
        "midi": 67,
        "time": 49.271,
        "duration": 0.104,
        "velocity": 0.71,
        "hand": "right"
      },
      {
        "midi": 39,
        "time": 49.583,
        "duration": 0.417,
        "velocity": 0.71,
        "hand": "left"
      },
      {
        "midi": 45,
        "time": 49.583,
        "duration": 0.417,
        "velocity": 0.71,
        "hand": "left"
      },
      {
        "midi": 61,
        "time": 49.583,
        "duration": 0.104,
        "velocity": 0.71,
        "hand": "right"
      },
      {
        "midi": 67,
        "time": 49.583,
        "duration": 0.104,
        "velocity": 0.71,
        "hand": "right"
      },
      {
        "midi": 70,
        "time": 49.583,
        "duration": 0.104,
        "velocity": 0.71,
        "hand": "right"
      },
      {
        "midi": 68,
        "time": 49.792,
        "duration": 0.104,
        "velocity": 0.71,
        "hand": "right"
      },
      {
        "midi": 38,
        "time": 50,
        "duration": 0.208,
        "velocity": 0.71,
        "hand": "left"
      },
      {
        "midi": 50,
        "time": 50,
        "duration": 0.208,
        "velocity": 0.71,
        "hand": "left"
      },
      {
        "midi": 62,
        "time": 50,
        "duration": 0.104,
        "velocity": 0.71,
        "hand": "right"
      },
      {
        "midi": 67,
        "time": 50.104,
        "duration": 0.104,
        "velocity": 0.71,
        "hand": "right"
      },
      {
        "midi": 69,
        "time": 50.313,
        "duration": 0.104,
        "velocity": 0.71,
        "hand": "right"
      },
      {
        "midi": 41,
        "time": 50.417,
        "duration": 0.417,
        "velocity": 0.71,
        "hand": "left"
      },
      {
        "midi": 47,
        "time": 50.417,
        "duration": 0.417,
        "velocity": 0.71,
        "hand": "left"
      },
      {
        "midi": 63,
        "time": 50.417,
        "duration": 0.104,
        "velocity": 0.71,
        "hand": "right"
      },
      {
        "midi": 72,
        "time": 50.417,
        "duration": 0.104,
        "velocity": 0.71,
        "hand": "right"
      },
      {
        "midi": 70,
        "time": 50.625,
        "duration": 0.104,
        "velocity": 0.71,
        "hand": "right"
      },
      {
        "midi": 40,
        "time": 50.833,
        "duration": 0.208,
        "velocity": 0.71,
        "hand": "left"
      },
      {
        "midi": 52,
        "time": 50.833,
        "duration": 0.208,
        "velocity": 0.71,
        "hand": "left"
      },
      {
        "midi": 64,
        "time": 50.833,
        "duration": 0.104,
        "velocity": 0.71,
        "hand": "right"
      },
      {
        "midi": 69,
        "time": 50.938,
        "duration": 0.104,
        "velocity": 0.71,
        "hand": "right"
      },
      {
        "midi": 41,
        "time": 51.25,
        "duration": 0.417,
        "velocity": 0.71,
        "hand": "left"
      },
      {
        "midi": 47,
        "time": 51.25,
        "duration": 0.417,
        "velocity": 0.71,
        "hand": "left"
      },
      {
        "midi": 63,
        "time": 51.25,
        "duration": 0.104,
        "velocity": 0.71,
        "hand": "right"
      },
      {
        "midi": 69,
        "time": 51.25,
        "duration": 0.104,
        "velocity": 0.71,
        "hand": "right"
      },
      {
        "midi": 72,
        "time": 51.25,
        "duration": 0.104,
        "velocity": 0.71,
        "hand": "right"
      },
      {
        "midi": 70,
        "time": 51.458,
        "duration": 0.104,
        "velocity": 0.71,
        "hand": "right"
      },
      {
        "midi": 40,
        "time": 51.667,
        "duration": 6.667,
        "velocity": 0.71,
        "hand": "left"
      },
      {
        "midi": 52,
        "time": 51.667,
        "duration": 6.667,
        "velocity": 0.71,
        "hand": "left"
      },
      {
        "midi": 64,
        "time": 51.667,
        "duration": 0.208,
        "velocity": 0.71,
        "hand": "right"
      },
      {
        "midi": 68,
        "time": 51.667,
        "duration": 0.208,
        "velocity": 0.71,
        "hand": "right"
      },
      {
        "midi": 80,
        "time": 52.083,
        "duration": 0.104,
        "velocity": 0.71,
        "hand": "right"
      },
      {
        "midi": 83,
        "time": 52.083,
        "duration": 0.104,
        "velocity": 0.71,
        "hand": "right"
      },
      {
        "midi": 77,
        "time": 52.188,
        "duration": 0.104,
        "velocity": 0.71,
        "hand": "right"
      },
      {
        "midi": 74,
        "time": 52.292,
        "duration": 0.104,
        "velocity": 0.71,
        "hand": "right"
      },
      {
        "midi": 76,
        "time": 52.396,
        "duration": 0.089,
        "velocity": 0.71,
        "hand": "right"
      },
      {
        "midi": 76,
        "time": 52.5,
        "duration": 0.104,
        "velocity": 0.71,
        "hand": "right"
      },
      {
        "midi": 81,
        "time": 52.5,
        "duration": 0.104,
        "velocity": 0.71,
        "hand": "right"
      },
      {
        "midi": 84,
        "time": 52.5,
        "duration": 0.104,
        "velocity": 0.71,
        "hand": "right"
      },
      {
        "midi": 74,
        "time": 52.604,
        "duration": 0.104,
        "velocity": 0.71,
        "hand": "right"
      },
      {
        "midi": 84,
        "time": 52.813,
        "duration": 0.104,
        "velocity": 0.71,
        "hand": "right"
      },
      {
        "midi": 72,
        "time": 52.917,
        "duration": 0.104,
        "velocity": 0.71,
        "hand": "right"
      },
      {
        "midi": 76,
        "time": 52.917,
        "duration": 0.104,
        "velocity": 0.71,
        "hand": "right"
      },
      {
        "midi": 81,
        "time": 52.917,
        "duration": 0.104,
        "velocity": 0.71,
        "hand": "right"
      },
      {
        "midi": 83,
        "time": 53.021,
        "duration": 0.104,
        "velocity": 0.71,
        "hand": "right"
      },
      {
        "midi": 79,
        "time": 53.125,
        "duration": 0.104,
        "velocity": 0.71,
        "hand": "right"
      },
      {
        "midi": 81,
        "time": 53.229,
        "duration": 0.104,
        "velocity": 0.71,
        "hand": "right"
      },
      {
        "midi": 69,
        "time": 53.333,
        "duration": 0.104,
        "velocity": 0.71,
        "hand": "right"
      },
      {
        "midi": 72,
        "time": 53.333,
        "duration": 0.104,
        "velocity": 0.71,
        "hand": "right"
      },
      {
        "midi": 77,
        "time": 53.333,
        "duration": 0.104,
        "velocity": 0.71,
        "hand": "right"
      },
      {
        "midi": 79,
        "time": 53.438,
        "duration": 0.104,
        "velocity": 0.71,
        "hand": "right"
      },
      {
        "midi": 77,
        "time": 53.646,
        "duration": 0.208,
        "velocity": 0.71,
        "hand": "right"
      },
      {
        "midi": 74,
        "time": 53.75,
        "duration": 0.104,
        "velocity": 0.71,
        "hand": "right"
      },
      {
        "midi": 81,
        "time": 53.75,
        "duration": 0.104,
        "velocity": 0.71,
        "hand": "right"
      },
      {
        "midi": 76,
        "time": 53.854,
        "duration": 0.104,
        "velocity": 0.71,
        "hand": "right"
      },
      {
        "midi": 84,
        "time": 53.958,
        "duration": 0.104,
        "velocity": 0.71,
        "hand": "right"
      },
      {
        "midi": 74,
        "time": 54.063,
        "duration": 0.089,
        "velocity": 0.71,
        "hand": "right"
      },
      {
        "midi": 74,
        "time": 54.167,
        "duration": 0.104,
        "velocity": 0.71,
        "hand": "right"
      },
      {
        "midi": 77,
        "time": 54.167,
        "duration": 0.104,
        "velocity": 0.71,
        "hand": "right"
      },
      {
        "midi": 84,
        "time": 54.271,
        "duration": 0.104,
        "velocity": 0.71,
        "hand": "right"
      },
      {
        "midi": 81,
        "time": 54.375,
        "duration": 0.104,
        "velocity": 0.71,
        "hand": "right"
      },
      {
        "midi": 83,
        "time": 54.479,
        "duration": 0.104,
        "velocity": 0.71,
        "hand": "right"
      },
      {
        "midi": 71,
        "time": 54.583,
        "duration": 0.104,
        "velocity": 0.71,
        "hand": "right"
      },
      {
        "midi": 74,
        "time": 54.583,
        "duration": 0.104,
        "velocity": 0.71,
        "hand": "right"
      },
      {
        "midi": 81,
        "time": 54.688,
        "duration": 0.104,
        "velocity": 0.71,
        "hand": "right"
      },
      {
        "midi": 77,
        "time": 54.792,
        "duration": 0.104,
        "velocity": 0.71,
        "hand": "right"
      },
      {
        "midi": 79,
        "time": 54.896,
        "duration": 0.104,
        "velocity": 0.71,
        "hand": "right"
      },
      {
        "midi": 68,
        "time": 55,
        "duration": 0.104,
        "velocity": 0.71,
        "hand": "right"
      },
      {
        "midi": 71,
        "time": 55,
        "duration": 0.104,
        "velocity": 0.71,
        "hand": "right"
      },
      {
        "midi": 77,
        "time": 55.104,
        "duration": 0.104,
        "velocity": 0.71,
        "hand": "right"
      },
      {
        "midi": 76,
        "time": 55.313,
        "duration": 0.208,
        "velocity": 0.71,
        "hand": "right"
      },
      {
        "midi": 81,
        "time": 55.417,
        "duration": 0.104,
        "velocity": 0.71,
        "hand": "right"
      },
      {
        "midi": 84,
        "time": 55.417,
        "duration": 0.104,
        "velocity": 0.71,
        "hand": "right"
      },
      {
        "midi": 74,
        "time": 55.521,
        "duration": 0.104,
        "velocity": 0.71,
        "hand": "right"
      },
      {
        "midi": 84,
        "time": 55.729,
        "duration": 0.104,
        "velocity": 0.71,
        "hand": "right"
      },
      {
        "midi": 72,
        "time": 55.833,
        "duration": 0.104,
        "velocity": 0.71,
        "hand": "right"
      },
      {
        "midi": 76,
        "time": 55.833,
        "duration": 0.104,
        "velocity": 0.71,
        "hand": "right"
      },
      {
        "midi": 81,
        "time": 55.833,
        "duration": 0.104,
        "velocity": 0.71,
        "hand": "right"
      },
      {
        "midi": 83,
        "time": 55.938,
        "duration": 0.104,
        "velocity": 0.71,
        "hand": "right"
      },
      {
        "midi": 79,
        "time": 56.042,
        "duration": 0.104,
        "velocity": 0.71,
        "hand": "right"
      },
      {
        "midi": 81,
        "time": 56.146,
        "duration": 0.104,
        "velocity": 0.71,
        "hand": "right"
      },
      {
        "midi": 69,
        "time": 56.25,
        "duration": 0.104,
        "velocity": 0.71,
        "hand": "right"
      },
      {
        "midi": 72,
        "time": 56.25,
        "duration": 0.104,
        "velocity": 0.71,
        "hand": "right"
      },
      {
        "midi": 77,
        "time": 56.25,
        "duration": 0.104,
        "velocity": 0.71,
        "hand": "right"
      },
      {
        "midi": 79,
        "time": 56.354,
        "duration": 0.104,
        "velocity": 0.71,
        "hand": "right"
      },
      {
        "midi": 77,
        "time": 56.563,
        "duration": 0.104,
        "velocity": 0.71,
        "hand": "right"
      },
      {
        "midi": 65,
        "time": 56.667,
        "duration": 0.104,
        "velocity": 0.71,
        "hand": "right"
      },
      {
        "midi": 69,
        "time": 56.667,
        "duration": 0.104,
        "velocity": 0.71,
        "hand": "right"
      },
      {
        "midi": 74,
        "time": 56.667,
        "duration": 0.104,
        "velocity": 0.71,
        "hand": "right"
      },
      {
        "midi": 76,
        "time": 56.771,
        "duration": 0.104,
        "velocity": 0.71,
        "hand": "right"
      },
      {
        "midi": 72,
        "time": 56.875,
        "duration": 0.104,
        "velocity": 0.71,
        "hand": "right"
      },
      {
        "midi": 74,
        "time": 56.979,
        "duration": 0.104,
        "velocity": 0.71,
        "hand": "right"
      },
      {
        "midi": 62,
        "time": 57.083,
        "duration": 0.104,
        "velocity": 0.71,
        "hand": "right"
      },
      {
        "midi": 65,
        "time": 57.083,
        "duration": 0.104,
        "velocity": 0.71,
        "hand": "right"
      },
      {
        "midi": 72,
        "time": 57.188,
        "duration": 0.104,
        "velocity": 0.71,
        "hand": "right"
      },
      {
        "midi": 69,
        "time": 57.292,
        "duration": 0.104,
        "velocity": 0.71,
        "hand": "right"
      },
      {
        "midi": 71,
        "time": 57.396,
        "duration": 0.104,
        "velocity": 0.71,
        "hand": "right"
      },
      {
        "midi": 59,
        "time": 57.5,
        "duration": 0.104,
        "velocity": 0.71,
        "hand": "left"
      },
      {
        "midi": 62,
        "time": 57.5,
        "duration": 0.104,
        "velocity": 0.71,
        "hand": "right"
      },
      {
        "midi": 68,
        "time": 57.5,
        "duration": 0.104,
        "velocity": 0.71,
        "hand": "right"
      },
      {
        "midi": 65,
        "time": 57.604,
        "duration": 0.104,
        "velocity": 0.71,
        "hand": "right"
      },
      {
        "midi": 64,
        "time": 57.813,
        "duration": 0.104,
        "velocity": 0.71,
        "hand": "right"
      },
      {
        "midi": 66,
        "time": 58.021,
        "duration": 0.104,
        "velocity": 0.71,
        "hand": "right"
      },
      {
        "midi": 68,
        "time": 58.229,
        "duration": 0.104,
        "velocity": 0.71,
        "hand": "right"
      },
      {
        "midi": 45,
        "time": 58.333,
        "duration": 0.208,
        "velocity": 0.71,
        "hand": "left"
      },
      {
        "midi": 60,
        "time": 58.333,
        "duration": 0.104,
        "velocity": 0.71,
        "hand": "right"
      },
      {
        "midi": 64,
        "time": 58.333,
        "duration": 0.104,
        "velocity": 0.71,
        "hand": "right"
      },
      {
        "midi": 70,
        "time": 58.438,
        "duration": 0.104,
        "velocity": 0.71,
        "hand": "right"
      },
      {
        "midi": 72,
        "time": 58.646,
        "duration": 0.104,
        "velocity": 0.71,
        "hand": "right"
      },
      {
        "midi": 52,
        "time": 58.75,
        "duration": 0.208,
        "velocity": 0.71,
        "hand": "left"
      },
      {
        "midi": 57,
        "time": 58.75,
        "duration": 0.208,
        "velocity": 0.71,
        "hand": "left"
      },
      {
        "midi": 64,
        "time": 58.75,
        "duration": 0.104,
        "velocity": 0.71,
        "hand": "right"
      },
      {
        "midi": 69,
        "time": 58.75,
        "duration": 0.104,
        "velocity": 0.71,
        "hand": "right"
      },
      {
        "midi": 74,
        "time": 58.854,
        "duration": 0.104,
        "velocity": 0.71,
        "hand": "right"
      },
      {
        "midi": 76,
        "time": 59.063,
        "duration": 0.104,
        "velocity": 0.71,
        "hand": "right"
      },
      {
        "midi": 45,
        "time": 59.167,
        "duration": 0.208,
        "velocity": 0.71,
        "hand": "left"
      },
      {
        "midi": 69,
        "time": 59.167,
        "duration": 0.104,
        "velocity": 0.71,
        "hand": "right"
      },
      {
        "midi": 74,
        "time": 59.167,
        "duration": 0.104,
        "velocity": 0.71,
        "hand": "right"
      },
      {
        "midi": 78,
        "time": 59.271,
        "duration": 0.104,
        "velocity": 0.71,
        "hand": "right"
      },
      {
        "midi": 80,
        "time": 59.479,
        "duration": 0.104,
        "velocity": 0.71,
        "hand": "right"
      },
      {
        "midi": 53,
        "time": 59.583,
        "duration": 0.208,
        "velocity": 0.71,
        "hand": "left"
      },
      {
        "midi": 57,
        "time": 59.583,
        "duration": 0.208,
        "velocity": 0.71,
        "hand": "left"
      },
      {
        "midi": 74,
        "time": 59.583,
        "duration": 0.104,
        "velocity": 0.71,
        "hand": "right"
      },
      {
        "midi": 77,
        "time": 59.583,
        "duration": 0.104,
        "velocity": 0.71,
        "hand": "right"
      },
      {
        "midi": 82,
        "time": 59.688,
        "duration": 0.104,
        "velocity": 0.71,
        "hand": "right"
      },
      {
        "midi": 84,
        "time": 59.896,
        "duration": 0.104,
        "velocity": 0.71,
        "hand": "right"
      },
      {
        "midi": 45,
        "time": 60,
        "duration": 0.208,
        "velocity": 0.71,
        "hand": "left"
      },
      {
        "midi": 76,
        "time": 60,
        "duration": 0.104,
        "velocity": 0.71,
        "hand": "right"
      },
      {
        "midi": 81,
        "time": 60,
        "duration": 0.104,
        "velocity": 0.71,
        "hand": "right"
      },
      {
        "midi": 74,
        "time": 60.104,
        "duration": 0.104,
        "velocity": 0.71,
        "hand": "right"
      },
      {
        "midi": 52,
        "time": 60.417,
        "duration": 0.208,
        "velocity": 0.71,
        "hand": "left"
      },
      {
        "midi": 57,
        "time": 60.417,
        "duration": 0.208,
        "velocity": 0.71,
        "hand": "left"
      },
      {
        "midi": 77,
        "time": 60.417,
        "duration": 0.104,
        "velocity": 0.71,
        "hand": "right"
      },
      {
        "midi": 81,
        "time": 60.417,
        "duration": 0.104,
        "velocity": 0.71,
        "hand": "right"
      },
      {
        "midi": 84,
        "time": 60.417,
        "duration": 0.104,
        "velocity": 0.71,
        "hand": "right"
      },
      {
        "midi": 75,
        "time": 60.625,
        "duration": 0.104,
        "velocity": 0.71,
        "hand": "right"
      },
      {
        "midi": 57,
        "time": 60.833,
        "duration": 0.208,
        "velocity": 0.71,
        "hand": "left"
      },
      {
        "midi": 73,
        "time": 60.833,
        "duration": 0.104,
        "velocity": 0.71,
        "hand": "right"
      },
      {
        "midi": 76,
        "time": 60.833,
        "duration": 0.104,
        "velocity": 0.71,
        "hand": "right"
      },
      {
        "midi": 81,
        "time": 60.833,
        "duration": 0.104,
        "velocity": 0.71,
        "hand": "right"
      },
      {
        "midi": 84,
        "time": 60.938,
        "duration": 0.104,
        "velocity": 0.71,
        "hand": "right"
      },
      {
        "midi": 83,
        "time": 61.042,
        "duration": 0.104,
        "velocity": 0.71,
        "hand": "right"
      },
      {
        "midi": 72,
        "time": 61.25,
        "duration": 0.104,
        "velocity": 0.71,
        "hand": "right"
      },
      {
        "midi": 76,
        "time": 61.25,
        "duration": 0.104,
        "velocity": 0.71,
        "hand": "right"
      },
      {
        "midi": 81,
        "time": 61.25,
        "duration": 0.104,
        "velocity": 0.71,
        "hand": "right"
      },
      {
        "midi": 83,
        "time": 61.458,
        "duration": 0.104,
        "velocity": 0.71,
        "hand": "right"
      },
      {
        "midi": 81,
        "time": 61.563,
        "duration": 0.104,
        "velocity": 0.71,
        "hand": "right"
      },
      {
        "midi": 40,
        "time": 61.667,
        "duration": 0.208,
        "velocity": 0.71,
        "hand": "left"
      },
      {
        "midi": 71,
        "time": 61.667,
        "duration": 0.104,
        "velocity": 0.71,
        "hand": "right"
      },
      {
        "midi": 76,
        "time": 61.667,
        "duration": 0.104,
        "velocity": 0.71,
        "hand": "right"
      },
      {
        "midi": 80,
        "time": 61.667,
        "duration": 0.104,
        "velocity": 0.71,
        "hand": "right"
      },
      {
        "midi": 78,
        "time": 61.875,
        "duration": 0.104,
        "velocity": 0.71,
        "hand": "right"
      },
      {
        "midi": 52,
        "time": 62.083,
        "duration": 0.208,
        "velocity": 0.71,
        "hand": "left"
      },
      {
        "midi": 59,
        "time": 62.083,
        "duration": 0.208,
        "velocity": 0.71,
        "hand": "left"
      },
      {
        "midi": 68,
        "time": 62.083,
        "duration": 0.104,
        "velocity": 0.71,
        "hand": "right"
      },
      {
        "midi": 71,
        "time": 62.083,
        "duration": 0.104,
        "velocity": 0.71,
        "hand": "right"
      },
      {
        "midi": 76,
        "time": 62.083,
        "duration": 0.104,
        "velocity": 0.71,
        "hand": "right"
      },
      {
        "midi": 77,
        "time": 62.292,
        "duration": 0.104,
        "velocity": 0.71,
        "hand": "right"
      },
      {
        "midi": 45,
        "time": 62.5,
        "duration": 0.208,
        "velocity": 0.71,
        "hand": "left"
      },
      {
        "midi": 69,
        "time": 62.5,
        "duration": 0.104,
        "velocity": 0.71,
        "hand": "right"
      },
      {
        "midi": 72,
        "time": 62.5,
        "duration": 0.104,
        "velocity": 0.71,
        "hand": "right"
      },
      {
        "midi": 75,
        "time": 62.5,
        "duration": 0.104,
        "velocity": 0.71,
        "hand": "right"
      },
      {
        "midi": 73,
        "time": 62.708,
        "duration": 0.104,
        "velocity": 0.71,
        "hand": "right"
      },
      {
        "midi": 52,
        "time": 62.917,
        "duration": 0.208,
        "velocity": 0.71,
        "hand": "left"
      },
      {
        "midi": 57,
        "time": 62.917,
        "duration": 0.208,
        "velocity": 0.71,
        "hand": "left"
      },
      {
        "midi": 64,
        "time": 62.917,
        "duration": 0.104,
        "velocity": 0.71,
        "hand": "right"
      },
      {
        "midi": 69,
        "time": 62.917,
        "duration": 0.104,
        "velocity": 0.71,
        "hand": "right"
      },
      {
        "midi": 72,
        "time": 63.021,
        "duration": 0.104,
        "velocity": 0.71,
        "hand": "right"
      },
      {
        "midi": 74,
        "time": 63.125,
        "duration": 0.104,
        "velocity": 0.71,
        "hand": "right"
      },
      {
        "midi": 72,
        "time": 63.229,
        "duration": 0.104,
        "velocity": 0.71,
        "hand": "right"
      },
      {
        "midi": 52,
        "time": 63.333,
        "duration": 0.208,
        "velocity": 0.71,
        "hand": "left"
      },
      {
        "midi": 59,
        "time": 63.333,
        "duration": 0.208,
        "velocity": 0.71,
        "hand": "left"
      },
      {
        "midi": 64,
        "time": 63.333,
        "duration": 0.104,
        "velocity": 0.71,
        "hand": "right"
      },
      {
        "midi": 68,
        "time": 63.333,
        "duration": 0.104,
        "velocity": 0.71,
        "hand": "right"
      },
      {
        "midi": 72,
        "time": 63.438,
        "duration": 0.104,
        "velocity": 0.71,
        "hand": "right"
      },
      {
        "midi": 72,
        "time": 63.646,
        "duration": 0.104,
        "velocity": 0.71,
        "hand": "right"
      },
      {
        "midi": 53,
        "time": 63.75,
        "duration": 0.417,
        "velocity": 0.71,
        "hand": "left"
      },
      {
        "midi": 59,
        "time": 63.75,
        "duration": 0.625,
        "velocity": 0.71,
        "hand": "left"
      },
      {
        "midi": 63,
        "time": 63.75,
        "duration": 0.104,
        "velocity": 0.71,
        "hand": "right"
      },
      {
        "midi": 69,
        "time": 63.75,
        "duration": 0.104,
        "velocity": 0.71,
        "hand": "right"
      },
      {
        "midi": 72,
        "time": 63.854,
        "duration": 0.104,
        "velocity": 0.71,
        "hand": "right"
      },
      {
        "midi": 72,
        "time": 64.063,
        "duration": 0.104,
        "velocity": 0.71,
        "hand": "right"
      },
      {
        "midi": 52,
        "time": 64.167,
        "duration": 0.208,
        "velocity": 0.71,
        "hand": "left"
      },
      {
        "midi": 64,
        "time": 64.167,
        "duration": 0.104,
        "velocity": 0.71,
        "hand": "right"
      },
      {
        "midi": 68,
        "time": 64.167,
        "duration": 0.104,
        "velocity": 0.71,
        "hand": "right"
      },
      {
        "midi": 76,
        "time": 64.271,
        "duration": 0.104,
        "velocity": 0.71,
        "hand": "right"
      },
      {
        "midi": 62,
        "time": 64.583,
        "duration": 0.104,
        "velocity": 0.71,
        "hand": "right"
      },
      {
        "midi": 68,
        "time": 64.583,
        "duration": 0.104,
        "velocity": 0.71,
        "hand": "right"
      },
      {
        "midi": 73,
        "time": 64.583,
        "duration": 0.104,
        "velocity": 0.71,
        "hand": "right"
      },
      {
        "midi": 71,
        "time": 64.792,
        "duration": 0.104,
        "velocity": 0.71,
        "hand": "right"
      },
      {
        "midi": 45,
        "time": 65,
        "duration": 0.208,
        "velocity": 0.71,
        "hand": "left"
      },
      {
        "midi": 60,
        "time": 65,
        "duration": 0.104,
        "velocity": 0.71,
        "hand": "right"
      },
      {
        "midi": 64,
        "time": 65,
        "duration": 0.104,
        "velocity": 0.71,
        "hand": "right"
      },
      {
        "midi": 70,
        "time": 65.104,
        "duration": 0.104,
        "velocity": 0.71,
        "hand": "right"
      },
      {
        "midi": 72,
        "time": 65.313,
        "duration": 0.104,
        "velocity": 0.71,
        "hand": "right"
      },
      {
        "midi": 52,
        "time": 65.417,
        "duration": 0.208,
        "velocity": 0.71,
        "hand": "left"
      },
      {
        "midi": 57,
        "time": 65.417,
        "duration": 0.208,
        "velocity": 0.71,
        "hand": "left"
      },
      {
        "midi": 64,
        "time": 65.417,
        "duration": 0.104,
        "velocity": 0.71,
        "hand": "right"
      },
      {
        "midi": 69,
        "time": 65.417,
        "duration": 0.104,
        "velocity": 0.71,
        "hand": "right"
      },
      {
        "midi": 74,
        "time": 65.521,
        "duration": 0.104,
        "velocity": 0.71,
        "hand": "right"
      },
      {
        "midi": 76,
        "time": 65.729,
        "duration": 0.104,
        "velocity": 0.71,
        "hand": "right"
      },
      {
        "midi": 45,
        "time": 65.833,
        "duration": 0.208,
        "velocity": 0.71,
        "hand": "left"
      },
      {
        "midi": 69,
        "time": 65.833,
        "duration": 0.104,
        "velocity": 0.71,
        "hand": "right"
      },
      {
        "midi": 74,
        "time": 65.833,
        "duration": 0.104,
        "velocity": 0.71,
        "hand": "right"
      },
      {
        "midi": 78,
        "time": 65.938,
        "duration": 0.104,
        "velocity": 0.71,
        "hand": "right"
      },
      {
        "midi": 80,
        "time": 66.146,
        "duration": 0.104,
        "velocity": 0.71,
        "hand": "right"
      },
      {
        "midi": 53,
        "time": 66.25,
        "duration": 0.208,
        "velocity": 0.71,
        "hand": "left"
      },
      {
        "midi": 57,
        "time": 66.25,
        "duration": 0.208,
        "velocity": 0.71,
        "hand": "left"
      },
      {
        "midi": 74,
        "time": 66.25,
        "duration": 0.104,
        "velocity": 0.71,
        "hand": "right"
      },
      {
        "midi": 77,
        "time": 66.25,
        "duration": 0.104,
        "velocity": 0.71,
        "hand": "right"
      },
      {
        "midi": 82,
        "time": 66.354,
        "duration": 0.104,
        "velocity": 0.71,
        "hand": "right"
      },
      {
        "midi": 84,
        "time": 66.563,
        "duration": 0.104,
        "velocity": 0.71,
        "hand": "right"
      },
      {
        "midi": 45,
        "time": 66.667,
        "duration": 0.208,
        "velocity": 0.71,
        "hand": "left"
      },
      {
        "midi": 76,
        "time": 66.667,
        "duration": 0.104,
        "velocity": 0.71,
        "hand": "right"
      },
      {
        "midi": 81,
        "time": 66.667,
        "duration": 0.104,
        "velocity": 0.71,
        "hand": "right"
      },
      {
        "midi": 74,
        "time": 66.771,
        "duration": 0.104,
        "velocity": 0.71,
        "hand": "right"
      },
      {
        "midi": 52,
        "time": 67.083,
        "duration": 0.208,
        "velocity": 0.71,
        "hand": "left"
      },
      {
        "midi": 57,
        "time": 67.083,
        "duration": 0.208,
        "velocity": 0.71,
        "hand": "left"
      },
      {
        "midi": 77,
        "time": 67.083,
        "duration": 0.104,
        "velocity": 0.71,
        "hand": "right"
      },
      {
        "midi": 81,
        "time": 67.083,
        "duration": 0.104,
        "velocity": 0.71,
        "hand": "right"
      },
      {
        "midi": 84,
        "time": 67.083,
        "duration": 0.104,
        "velocity": 0.71,
        "hand": "right"
      },
      {
        "midi": 75,
        "time": 67.292,
        "duration": 0.104,
        "velocity": 0.71,
        "hand": "right"
      },
      {
        "midi": 57,
        "time": 67.5,
        "duration": 0.208,
        "velocity": 0.71,
        "hand": "left"
      },
      {
        "midi": 73,
        "time": 67.5,
        "duration": 0.104,
        "velocity": 0.71,
        "hand": "right"
      },
      {
        "midi": 76,
        "time": 67.5,
        "duration": 0.104,
        "velocity": 0.71,
        "hand": "right"
      },
      {
        "midi": 81,
        "time": 67.5,
        "duration": 0.104,
        "velocity": 0.71,
        "hand": "right"
      },
      {
        "midi": 84,
        "time": 67.604,
        "duration": 0.104,
        "velocity": 0.71,
        "hand": "right"
      },
      {
        "midi": 83,
        "time": 67.708,
        "duration": 0.104,
        "velocity": 0.71,
        "hand": "right"
      },
      {
        "midi": 72,
        "time": 67.917,
        "duration": 0.104,
        "velocity": 0.71,
        "hand": "right"
      },
      {
        "midi": 76,
        "time": 67.917,
        "duration": 0.104,
        "velocity": 0.71,
        "hand": "right"
      },
      {
        "midi": 81,
        "time": 67.917,
        "duration": 0.104,
        "velocity": 0.71,
        "hand": "right"
      },
      {
        "midi": 83,
        "time": 68.125,
        "duration": 0.104,
        "velocity": 0.71,
        "hand": "right"
      },
      {
        "midi": 81,
        "time": 68.229,
        "duration": 0.104,
        "velocity": 0.71,
        "hand": "right"
      },
      {
        "midi": 38,
        "time": 68.333,
        "duration": 0.208,
        "velocity": 0.71,
        "hand": "left"
      },
      {
        "midi": 50,
        "time": 68.333,
        "duration": 0.208,
        "velocity": 0.71,
        "hand": "left"
      },
      {
        "midi": 74,
        "time": 68.333,
        "duration": 0.104,
        "velocity": 0.71,
        "hand": "right"
      },
      {
        "midi": 77,
        "time": 68.333,
        "duration": 0.104,
        "velocity": 0.71,
        "hand": "right"
      },
      {
        "midi": 83,
        "time": 68.438,
        "duration": 0.104,
        "velocity": 0.71,
        "hand": "right"
      },
      {
        "midi": 84,
        "time": 68.542,
        "duration": 0.104,
        "velocity": 0.71,
        "hand": "right"
      },
      {
        "midi": 73,
        "time": 68.646,
        "duration": 0.104,
        "velocity": 0.71,
        "hand": "right"
      },
      {
        "midi": 50,
        "time": 68.75,
        "duration": 0.208,
        "velocity": 0.71,
        "hand": "left"
      },
      {
        "midi": 53,
        "time": 68.75,
        "duration": 0.208,
        "velocity": 0.71,
        "hand": "left"
      },
      {
        "midi": 77,
        "time": 68.75,
        "duration": 0.104,
        "velocity": 0.71,
        "hand": "right"
      },
      {
        "midi": 82,
        "time": 68.75,
        "duration": 0.104,
        "velocity": 0.71,
        "hand": "right"
      },
      {
        "midi": 75,
        "time": 68.854,
        "duration": 0.104,
        "velocity": 0.71,
        "hand": "right"
      },
      {
        "midi": 77,
        "time": 69.063,
        "duration": 0.104,
        "velocity": 0.71,
        "hand": "right"
      },
      {
        "midi": 40,
        "time": 69.167,
        "duration": 0.208,
        "velocity": 0.71,
        "hand": "left"
      },
      {
        "midi": 52,
        "time": 69.167,
        "duration": 0.208,
        "velocity": 0.71,
        "hand": "left"
      },
      {
        "midi": 74,
        "time": 69.167,
        "duration": 0.104,
        "velocity": 0.71,
        "hand": "right"
      },
      {
        "midi": 80,
        "time": 69.167,
        "duration": 0.104,
        "velocity": 0.71,
        "hand": "right"
      },
      {
        "midi": 77,
        "time": 69.271,
        "duration": 0.104,
        "velocity": 0.71,
        "hand": "right"
      },
      {
        "midi": 79,
        "time": 69.479,
        "duration": 0.104,
        "velocity": 0.71,
        "hand": "right"
      },
      {
        "midi": 52,
        "time": 69.583,
        "duration": 0.208,
        "velocity": 0.71,
        "hand": "left"
      },
      {
        "midi": 59,
        "time": 69.583,
        "duration": 0.208,
        "velocity": 0.71,
        "hand": "left"
      },
      {
        "midi": 62,
        "time": 69.583,
        "duration": 0.208,
        "velocity": 0.71,
        "hand": "right"
      },
      {
        "midi": 74,
        "time": 69.583,
        "duration": 0.104,
        "velocity": 0.71,
        "hand": "right"
      },
      {
        "midi": 81,
        "time": 69.688,
        "duration": 0.104,
        "velocity": 0.71,
        "hand": "right"
      },
      {
        "midi": 41,
        "time": 70,
        "duration": 0.208,
        "velocity": 0.71,
        "hand": "left"
      },
      {
        "midi": 53,
        "time": 70,
        "duration": 0.208,
        "velocity": 0.71,
        "hand": "left"
      },
      {
        "midi": 81,
        "time": 70,
        "duration": 0.104,
        "velocity": 0.71,
        "hand": "right"
      },
      {
        "midi": 84,
        "time": 70,
        "duration": 0.104,
        "velocity": 0.75,
        "hand": "right"
      },
      {
        "midi": 79,
        "time": 70.208,
        "duration": 0.104,
        "velocity": 0.71,
        "hand": "right"
      },
      {
        "midi": 57,
        "time": 70.417,
        "duration": 0.208,
        "velocity": 0.71,
        "hand": "left"
      },
      {
        "midi": 77,
        "time": 70.417,
        "duration": 0.104,
        "velocity": 0.71,
        "hand": "right"
      },
      {
        "midi": 81,
        "time": 70.417,
        "duration": 0.104,
        "velocity": 0.75,
        "hand": "right"
      },
      {
        "midi": 84,
        "time": 70.417,
        "duration": 0.104,
        "velocity": 0.75,
        "hand": "right"
      },
      {
        "midi": 75,
        "time": 70.625,
        "duration": 0.104,
        "velocity": 0.71,
        "hand": "right"
      },
      {
        "midi": 36,
        "time": 70.833,
        "duration": 0.208,
        "velocity": 0.71,
        "hand": "left"
      },
      {
        "midi": 48,
        "time": 70.833,
        "duration": 0.208,
        "velocity": 0.71,
        "hand": "left"
      },
      {
        "midi": 73,
        "time": 70.833,
        "duration": 0.104,
        "velocity": 0.71,
        "hand": "right"
      },
      {
        "midi": 76,
        "time": 70.833,
        "duration": 0.104,
        "velocity": 0.75,
        "hand": "right"
      },
      {
        "midi": 81,
        "time": 70.833,
        "duration": 0.104,
        "velocity": 0.75,
        "hand": "right"
      },
      {
        "midi": 84,
        "time": 70.938,
        "duration": 0.104,
        "velocity": 0.71,
        "hand": "right"
      },
      {
        "midi": 83,
        "time": 71.042,
        "duration": 0.104,
        "velocity": 0.71,
        "hand": "right"
      },
      {
        "midi": 52,
        "time": 71.25,
        "duration": 0.208,
        "velocity": 0.71,
        "hand": "left"
      },
      {
        "midi": 57,
        "time": 71.25,
        "duration": 0.208,
        "velocity": 0.71,
        "hand": "left"
      },
      {
        "midi": 72,
        "time": 71.25,
        "duration": 0.104,
        "velocity": 0.75,
        "hand": "right"
      },
      {
        "midi": 76,
        "time": 71.25,
        "duration": 0.104,
        "velocity": 0.75,
        "hand": "right"
      },
      {
        "midi": 81,
        "time": 71.25,
        "duration": 0.104,
        "velocity": 0.71,
        "hand": "right"
      },
      {
        "midi": 79,
        "time": 71.458,
        "duration": 0.104,
        "velocity": 0.71,
        "hand": "right"
      },
      {
        "midi": 38,
        "time": 71.667,
        "duration": 0.208,
        "velocity": 0.71,
        "hand": "left"
      },
      {
        "midi": 70,
        "time": 71.667,
        "duration": 0.104,
        "velocity": 0.75,
        "hand": "right"
      },
      {
        "midi": 74,
        "time": 71.667,
        "duration": 0.104,
        "velocity": 0.75,
        "hand": "right"
      },
      {
        "midi": 77,
        "time": 71.667,
        "duration": 0.104,
        "velocity": 0.71,
        "hand": "right"
      },
      {
        "midi": 75,
        "time": 71.875,
        "duration": 0.104,
        "velocity": 0.71,
        "hand": "right"
      },
      {
        "midi": 50,
        "time": 72.083,
        "duration": 0.417,
        "velocity": 0.71,
        "hand": "left"
      },
      {
        "midi": 53,
        "time": 72.083,
        "duration": 0.417,
        "velocity": 0.71,
        "hand": "left"
      },
      {
        "midi": 65,
        "time": 72.083,
        "duration": 0.104,
        "velocity": 0.75,
        "hand": "right"
      },
      {
        "midi": 70,
        "time": 72.083,
        "duration": 0.104,
        "velocity": 0.75,
        "hand": "right"
      },
      {
        "midi": 74,
        "time": 72.188,
        "duration": 0.104,
        "velocity": 0.71,
        "hand": "right"
      },
      {
        "midi": 77,
        "time": 72.292,
        "duration": 0.104,
        "velocity": 0.71,
        "hand": "right"
      },
      {
        "midi": 74,
        "time": 72.396,
        "duration": 0.104,
        "velocity": 0.71,
        "hand": "right"
      },
      {
        "midi": 52,
        "time": 72.5,
        "duration": 0.402,
        "velocity": 0.71,
        "hand": "left"
      },
      {
        "midi": 57,
        "time": 72.5,
        "duration": 0.417,
        "velocity": 0.71,
        "hand": "left"
      },
      {
        "midi": 64,
        "time": 72.5,
        "duration": 0.104,
        "velocity": 0.75,
        "hand": "right"
      },
      {
        "midi": 69,
        "time": 72.5,
        "duration": 0.104,
        "velocity": 0.75,
        "hand": "right"
      },
      {
        "midi": 72,
        "time": 72.604,
        "duration": 0.104,
        "velocity": 0.71,
        "hand": "right"
      },
      {
        "midi": 76,
        "time": 72.708,
        "duration": 0.104,
        "velocity": 0.71,
        "hand": "right"
      },
      {
        "midi": 72,
        "time": 72.813,
        "duration": 0.104,
        "velocity": 0.71,
        "hand": "right"
      },
      {
        "midi": 52,
        "time": 72.917,
        "duration": 0.417,
        "velocity": 0.71,
        "hand": "left"
      },
      {
        "midi": 59,
        "time": 72.917,
        "duration": 0.417,
        "velocity": 0.71,
        "hand": "left"
      },
      {
        "midi": 62,
        "time": 72.917,
        "duration": 0.104,
        "velocity": 0.75,
        "hand": "right"
      },
      {
        "midi": 68,
        "time": 72.917,
        "duration": 0.104,
        "velocity": 0.75,
        "hand": "right"
      },
      {
        "midi": 71,
        "time": 73.021,
        "duration": 0.104,
        "velocity": 0.71,
        "hand": "right"
      },
      {
        "midi": 76,
        "time": 73.125,
        "duration": 0.104,
        "velocity": 0.71,
        "hand": "right"
      },
      {
        "midi": 71,
        "time": 73.229,
        "duration": 0.104,
        "velocity": 0.71,
        "hand": "right"
      },
      {
        "midi": 45,
        "time": 73.333,
        "duration": 0.208,
        "velocity": 0.71,
        "hand": "left"
      },
      {
        "midi": 57,
        "time": 73.333,
        "duration": 0.208,
        "velocity": 0.71,
        "hand": "left"
      },
      {
        "midi": 60,
        "time": 73.333,
        "duration": 0.104,
        "velocity": 0.75,
        "hand": "right"
      },
      {
        "midi": 70,
        "time": 73.438,
        "duration": 0.104,
        "velocity": 0.71,
        "hand": "right"
      },
      {
        "midi": 72,
        "time": 73.646,
        "duration": 0.104,
        "velocity": 0.71,
        "hand": "right"
      },
      {
        "midi": 41,
        "time": 73.75,
        "duration": 0.833,
        "velocity": 0.71,
        "hand": "left"
      },
      {
        "midi": 53,
        "time": 73.75,
        "duration": 0.833,
        "velocity": 0.71,
        "hand": "left"
      },
      {
        "midi": 62,
        "time": 73.75,
        "duration": 0.104,
        "velocity": 0.75,
        "hand": "right"
      },
      {
        "midi": 69,
        "time": 73.75,
        "duration": 0.104,
        "velocity": 0.75,
        "hand": "right"
      },
      {
        "midi": 74,
        "time": 73.854,
        "duration": 0.104,
        "velocity": 0.71,
        "hand": "right"
      },
      {
        "midi": 76,
        "time": 74.063,
        "duration": 0.104,
        "velocity": 0.71,
        "hand": "right"
      },
      {
        "midi": 69,
        "time": 74.167,
        "duration": 0.104,
        "velocity": 0.75,
        "hand": "right"
      },
      {
        "midi": 74,
        "time": 74.167,
        "duration": 0.104,
        "velocity": 0.75,
        "hand": "right"
      },
      {
        "midi": 78,
        "time": 74.271,
        "duration": 0.104,
        "velocity": 0.71,
        "hand": "right"
      },
      {
        "midi": 80,
        "time": 74.479,
        "duration": 0.104,
        "velocity": 0.71,
        "hand": "right"
      },
      {
        "midi": 40,
        "time": 74.583,
        "duration": 0.417,
        "velocity": 0.71,
        "hand": "left"
      },
      {
        "midi": 52,
        "time": 74.583,
        "duration": 0.417,
        "velocity": 0.71,
        "hand": "left"
      },
      {
        "midi": 74,
        "time": 74.583,
        "duration": 0.104,
        "velocity": 0.75,
        "hand": "right"
      },
      {
        "midi": 76,
        "time": 74.583,
        "duration": 0.104,
        "velocity": 0.75,
        "hand": "right"
      },
      {
        "midi": 82,
        "time": 74.688,
        "duration": 0.104,
        "velocity": 0.71,
        "hand": "right"
      },
      {
        "midi": 84,
        "time": 74.896,
        "duration": 0.104,
        "velocity": 0.71,
        "hand": "right"
      },
      {
        "midi": 45,
        "time": 75,
        "duration": 0.208,
        "velocity": 0.71,
        "hand": "left"
      },
      {
        "midi": 72,
        "time": 75,
        "duration": 0.104,
        "velocity": 0.75,
        "hand": "right"
      },
      {
        "midi": 76,
        "time": 75,
        "duration": 0.104,
        "velocity": 0.75,
        "hand": "right"
      },
      {
        "midi": 82,
        "time": 75.104,
        "duration": 0.104,
        "velocity": 0.71,
        "hand": "right"
      },
      {
        "midi": 84,
        "time": 75.313,
        "duration": 0.104,
        "velocity": 0.71,
        "hand": "right"
      },
      {
        "midi": 41,
        "time": 75.417,
        "duration": 0.833,
        "velocity": 0.71,
        "hand": "left"
      },
      {
        "midi": 74,
        "time": 75.417,
        "duration": 0.089,
        "velocity": 0.75,
        "hand": "right"
      },
      {
        "midi": 81,
        "time": 75.417,
        "duration": 0.104,
        "velocity": 0.75,
        "hand": "right"
      },
      {
        "midi": 74,
        "time": 75.521,
        "duration": 0.104,
        "velocity": 0.71,
        "hand": "right"
      },
      {
        "midi": 76,
        "time": 75.729,
        "duration": 0.104,
        "velocity": 0.71,
        "hand": "right"
      },
      {
        "midi": 74,
        "time": 75.833,
        "duration": 0.104,
        "velocity": 0.75,
        "hand": "right"
      },
      {
        "midi": 81,
        "time": 75.833,
        "duration": 0.104,
        "velocity": 0.75,
        "hand": "right"
      },
      {
        "midi": 78,
        "time": 75.938,
        "duration": 0.104,
        "velocity": 0.71,
        "hand": "right"
      },
      {
        "midi": 80,
        "time": 76.146,
        "duration": 0.104,
        "velocity": 0.71,
        "hand": "right"
      },
      {
        "midi": 40,
        "time": 76.25,
        "duration": 0.417,
        "velocity": 0.71,
        "hand": "left"
      },
      {
        "midi": 74,
        "time": 76.25,
        "duration": 0.104,
        "velocity": 0.75,
        "hand": "right"
      },
      {
        "midi": 76,
        "time": 76.25,
        "duration": 0.104,
        "velocity": 0.75,
        "hand": "right"
      },
      {
        "midi": 82,
        "time": 76.354,
        "duration": 0.104,
        "velocity": 0.71,
        "hand": "right"
      },
      {
        "midi": 84,
        "time": 76.563,
        "duration": 0.089,
        "velocity": 0.71,
        "hand": "right"
      },
      {
        "midi": 45,
        "time": 76.667,
        "duration": 5,
        "velocity": 0.71,
        "hand": "left"
      },
      {
        "midi": 76,
        "time": 76.667,
        "duration": 0.104,
        "velocity": 0.75,
        "hand": "right"
      },
      {
        "midi": 81,
        "time": 76.667,
        "duration": 0.104,
        "velocity": 0.71,
        "hand": "right"
      },
      {
        "midi": 84,
        "time": 76.667,
        "duration": 0.104,
        "velocity": 0.75,
        "hand": "right"
      },
      {
        "midi": 79,
        "time": 76.875,
        "duration": 0.104,
        "velocity": 0.71,
        "hand": "right"
      },
      {
        "midi": 74,
        "time": 77.083,
        "duration": 0.104,
        "velocity": 0.75,
        "hand": "right"
      },
      {
        "midi": 77,
        "time": 77.083,
        "duration": 0.104,
        "velocity": 0.71,
        "hand": "right"
      },
      {
        "midi": 81,
        "time": 77.083,
        "duration": 0.104,
        "velocity": 0.75,
        "hand": "right"
      },
      {
        "midi": 75,
        "time": 77.292,
        "duration": 0.104,
        "velocity": 0.71,
        "hand": "right"
      },
      {
        "midi": 73,
        "time": 77.5,
        "duration": 0.104,
        "velocity": 0.71,
        "hand": "right"
      },
      {
        "midi": 77,
        "time": 77.5,
        "duration": 0.104,
        "velocity": 0.75,
        "hand": "right"
      },
      {
        "midi": 81,
        "time": 77.5,
        "duration": 0.104,
        "velocity": 0.75,
        "hand": "right"
      },
      {
        "midi": 84,
        "time": 77.604,
        "duration": 0.104,
        "velocity": 0.71,
        "hand": "right"
      },
      {
        "midi": 83,
        "time": 77.708,
        "duration": 0.104,
        "velocity": 0.71,
        "hand": "right"
      },
      {
        "midi": 74,
        "time": 77.917,
        "duration": 0.104,
        "velocity": 0.75,
        "hand": "right"
      },
      {
        "midi": 77,
        "time": 77.917,
        "duration": 0.104,
        "velocity": 0.75,
        "hand": "right"
      },
      {
        "midi": 81,
        "time": 77.917,
        "duration": 0.104,
        "velocity": 0.71,
        "hand": "right"
      },
      {
        "midi": 79,
        "time": 78.125,
        "duration": 0.104,
        "velocity": 0.71,
        "hand": "right"
      },
      {
        "midi": 69,
        "time": 78.333,
        "duration": 0.104,
        "velocity": 0.75,
        "hand": "right"
      },
      {
        "midi": 74,
        "time": 78.333,
        "duration": 0.104,
        "velocity": 0.75,
        "hand": "right"
      },
      {
        "midi": 77,
        "time": 78.333,
        "duration": 0.104,
        "velocity": 0.71,
        "hand": "right"
      },
      {
        "midi": 75,
        "time": 78.542,
        "duration": 0.104,
        "velocity": 0.71,
        "hand": "right"
      },
      {
        "midi": 65,
        "time": 78.75,
        "duration": 0.104,
        "velocity": 0.75,
        "hand": "right"
      },
      {
        "midi": 69,
        "time": 78.75,
        "duration": 0.104,
        "velocity": 0.75,
        "hand": "right"
      },
      {
        "midi": 73,
        "time": 78.75,
        "duration": 0.104,
        "velocity": 0.71,
        "hand": "right"
      },
      {
        "midi": 71,
        "time": 78.958,
        "duration": 0.104,
        "velocity": 0.71,
        "hand": "right"
      },
      {
        "midi": 62,
        "time": 79.167,
        "duration": 0.104,
        "velocity": 0.75,
        "hand": "right"
      },
      {
        "midi": 65,
        "time": 79.167,
        "duration": 0.104,
        "velocity": 0.75,
        "hand": "right"
      },
      {
        "midi": 69,
        "time": 79.167,
        "duration": 0.104,
        "velocity": 0.71,
        "hand": "right"
      },
      {
        "midi": 67,
        "time": 79.375,
        "duration": 0.104,
        "velocity": 0.71,
        "hand": "right"
      },
      {
        "midi": 57,
        "time": 79.583,
        "duration": 0.104,
        "velocity": 0.75,
        "hand": "left"
      },
      {
        "midi": 62,
        "time": 79.583,
        "duration": 0.104,
        "velocity": 0.75,
        "hand": "right"
      },
      {
        "midi": 65,
        "time": 79.583,
        "duration": 0.104,
        "velocity": 0.71,
        "hand": "right"
      },
      {
        "midi": 63,
        "time": 79.792,
        "duration": 0.104,
        "velocity": 0.71,
        "hand": "right"
      },
      {
        "midi": 52,
        "time": 80,
        "duration": 1.667,
        "velocity": 0.71,
        "hand": "left"
      },
      {
        "midi": 57,
        "time": 80,
        "duration": 1.667,
        "velocity": 0.71,
        "hand": "left"
      },
      {
        "midi": 61,
        "time": 80,
        "duration": 1.667,
        "velocity": 0.71,
        "hand": "right"
      }
    ]
  },
  "notes1Hand": [
    {
      "midi": 70,
      "time": 0.104,
      "duration": 0.25,
      "velocity": 0.71,
      "hand": "right"
    },
    {
      "midi": 76,
      "time": 0.729,
      "duration": 0.25,
      "velocity": 0.71,
      "hand": "right"
    },
    {
      "midi": 82,
      "time": 1.354,
      "duration": 0.25,
      "velocity": 0.71,
      "hand": "right"
    },
    {
      "midi": 84,
      "time": 2.083,
      "duration": 0.25,
      "velocity": 0.71,
      "hand": "right"
    },
    {
      "midi": 83,
      "time": 2.708,
      "duration": 0.25,
      "velocity": 0.71,
      "hand": "right"
    },
    {
      "midi": 80,
      "time": 3.333,
      "duration": 0.25,
      "velocity": 0.71,
      "hand": "right"
    },
    {
      "midi": 77,
      "time": 3.958,
      "duration": 0.25,
      "velocity": 0.71,
      "hand": "right"
    },
    {
      "midi": 72,
      "time": 4.688,
      "duration": 0.25,
      "velocity": 0.71,
      "hand": "right"
    },
    {
      "midi": 72,
      "time": 5.313,
      "duration": 0.25,
      "velocity": 0.71,
      "hand": "right"
    },
    {
      "midi": 76,
      "time": 5.938,
      "duration": 0.25,
      "velocity": 0.71,
      "hand": "right"
    },
    {
      "midi": 70,
      "time": 6.771,
      "duration": 0.25,
      "velocity": 0.71,
      "hand": "right"
    },
    {
      "midi": 76,
      "time": 7.396,
      "duration": 0.25,
      "velocity": 0.71,
      "hand": "right"
    },
    {
      "midi": 82,
      "time": 8.021,
      "duration": 0.25,
      "velocity": 0.71,
      "hand": "right"
    },
    {
      "midi": 84,
      "time": 8.75,
      "duration": 0.25,
      "velocity": 0.71,
      "hand": "right"
    },
    {
      "midi": 83,
      "time": 9.375,
      "duration": 0.25,
      "velocity": 0.71,
      "hand": "right"
    },
    {
      "midi": 80,
      "time": 10.104,
      "duration": 0.25,
      "velocity": 0.71,
      "hand": "right"
    },
    {
      "midi": 81,
      "time": 10.833,
      "duration": 0.25,
      "velocity": 0.71,
      "hand": "right"
    },
    {
      "midi": 79,
      "time": 11.458,
      "duration": 0.25,
      "velocity": 0.71,
      "hand": "right"
    },
    {
      "midi": 76,
      "time": 12.188,
      "duration": 0.25,
      "velocity": 0.71,
      "hand": "right"
    },
    {
      "midi": 72,
      "time": 12.813,
      "duration": 0.25,
      "velocity": 0.71,
      "hand": "right"
    },
    {
      "midi": 70,
      "time": 13.438,
      "duration": 0.25,
      "velocity": 0.71,
      "hand": "right"
    },
    {
      "midi": 76,
      "time": 14.063,
      "duration": 0.25,
      "velocity": 0.71,
      "hand": "right"
    },
    {
      "midi": 82,
      "time": 14.688,
      "duration": 0.25,
      "velocity": 0.71,
      "hand": "right"
    },
    {
      "midi": 84,
      "time": 15.417,
      "duration": 0.25,
      "velocity": 0.71,
      "hand": "right"
    },
    {
      "midi": 83,
      "time": 16.042,
      "duration": 0.25,
      "velocity": 0.71,
      "hand": "right"
    },
    {
      "midi": 80,
      "time": 16.667,
      "duration": 0.25,
      "velocity": 0.71,
      "hand": "right"
    },
    {
      "midi": 77,
      "time": 17.292,
      "duration": 0.25,
      "velocity": 0.71,
      "hand": "right"
    },
    {
      "midi": 72,
      "time": 18.021,
      "duration": 0.25,
      "velocity": 0.71,
      "hand": "right"
    },
    {
      "midi": 72,
      "time": 18.646,
      "duration": 0.25,
      "velocity": 0.71,
      "hand": "right"
    },
    {
      "midi": 76,
      "time": 19.271,
      "duration": 0.25,
      "velocity": 0.71,
      "hand": "right"
    },
    {
      "midi": 70,
      "time": 20.104,
      "duration": 0.25,
      "velocity": 0.71,
      "hand": "right"
    },
    {
      "midi": 76,
      "time": 20.729,
      "duration": 0.25,
      "velocity": 0.71,
      "hand": "right"
    },
    {
      "midi": 82,
      "time": 21.354,
      "duration": 0.25,
      "velocity": 0.71,
      "hand": "right"
    },
    {
      "midi": 84,
      "time": 22.083,
      "duration": 0.25,
      "velocity": 0.71,
      "hand": "right"
    },
    {
      "midi": 83,
      "time": 22.708,
      "duration": 0.25,
      "velocity": 0.71,
      "hand": "right"
    },
    {
      "midi": 83,
      "time": 23.438,
      "duration": 0.25,
      "velocity": 0.71,
      "hand": "right"
    },
    {
      "midi": 80,
      "time": 24.167,
      "duration": 0.25,
      "velocity": 0.71,
      "hand": "right"
    },
    {
      "midi": 84,
      "time": 25,
      "duration": 0.25,
      "velocity": 0.71,
      "hand": "right"
    },
    {
      "midi": 75,
      "time": 25.625,
      "duration": 0.25,
      "velocity": 0.71,
      "hand": "right"
    },
    {
      "midi": 81,
      "time": 26.25,
      "duration": 0.25,
      "velocity": 0.71,
      "hand": "right"
    },
    {
      "midi": 75,
      "time": 26.875,
      "duration": 0.25,
      "velocity": 0.71,
      "hand": "right"
    },
    {
      "midi": 72,
      "time": 27.604,
      "duration": 0.25,
      "velocity": 0.71,
      "hand": "right"
    },
    {
      "midi": 70,
      "time": 28.438,
      "duration": 0.25,
      "velocity": 0.71,
      "hand": "right"
    },
    {
      "midi": 81,
      "time": 29.167,
      "duration": 0.25,
      "velocity": 0.71,
      "hand": "right"
    },
    {
      "midi": 75,
      "time": 29.792,
      "duration": 0.25,
      "velocity": 0.71,
      "hand": "right"
    },
    {
      "midi": 74,
      "time": 30.521,
      "duration": 0.25,
      "velocity": 0.71,
      "hand": "right"
    },
    {
      "midi": 81,
      "time": 31.25,
      "duration": 0.25,
      "velocity": 0.71,
      "hand": "right"
    },
    {
      "midi": 72,
      "time": 31.979,
      "duration": 0.25,
      "velocity": 0.71,
      "hand": "right"
    },
    {
      "midi": 78,
      "time": 32.604,
      "duration": 0.25,
      "velocity": 0.71,
      "hand": "right"
    },
    {
      "midi": 75,
      "time": 33.333,
      "duration": 0.25,
      "velocity": 0.71,
      "hand": "right"
    },
    {
      "midi": 78,
      "time": 34.063,
      "duration": 0.25,
      "velocity": 0.71,
      "hand": "right"
    },
    {
      "midi": 79,
      "time": 34.792,
      "duration": 0.25,
      "velocity": 0.71,
      "hand": "right"
    },
    {
      "midi": 76,
      "time": 35.521,
      "duration": 0.25,
      "velocity": 0.71,
      "hand": "right"
    },
    {
      "midi": 82,
      "time": 36.146,
      "duration": 0.25,
      "velocity": 0.71,
      "hand": "right"
    },
    {
      "midi": 76,
      "time": 36.979,
      "duration": 0.25,
      "velocity": 0.71,
      "hand": "right"
    },
    {
      "midi": 82,
      "time": 37.604,
      "duration": 0.25,
      "velocity": 0.71,
      "hand": "right"
    },
    {
      "midi": 79,
      "time": 38.333,
      "duration": 0.25,
      "velocity": 0.71,
      "hand": "right"
    },
    {
      "midi": 80,
      "time": 39.063,
      "duration": 0.25,
      "velocity": 0.71,
      "hand": "right"
    },
    {
      "midi": 74,
      "time": 39.688,
      "duration": 0.25,
      "velocity": 0.71,
      "hand": "right"
    },
    {
      "midi": 84,
      "time": 40.521,
      "duration": 0.25,
      "velocity": 0.71,
      "hand": "right"
    },
    {
      "midi": 77,
      "time": 41.25,
      "duration": 0.25,
      "velocity": 0.71,
      "hand": "right"
    },
    {
      "midi": 84,
      "time": 41.979,
      "duration": 0.25,
      "velocity": 0.71,
      "hand": "right"
    },
    {
      "midi": 77,
      "time": 42.708,
      "duration": 0.25,
      "velocity": 0.71,
      "hand": "right"
    },
    {
      "midi": 82,
      "time": 43.333,
      "duration": 0.25,
      "velocity": 0.71,
      "hand": "right"
    },
    {
      "midi": 80,
      "time": 43.958,
      "duration": 0.25,
      "velocity": 0.71,
      "hand": "right"
    },
    {
      "midi": 84,
      "time": 44.792,
      "duration": 0.25,
      "velocity": 0.71,
      "hand": "right"
    },
    {
      "midi": 80,
      "time": 45.417,
      "duration": 0.25,
      "velocity": 0.71,
      "hand": "right"
    },
    {
      "midi": 79,
      "time": 46.146,
      "duration": 0.25,
      "velocity": 0.71,
      "hand": "right"
    },
    {
      "midi": 81,
      "time": 46.875,
      "duration": 0.25,
      "velocity": 0.71,
      "hand": "right"
    },
    {
      "midi": 75,
      "time": 47.5,
      "duration": 0.25,
      "velocity": 0.71,
      "hand": "right"
    },
    {
      "midi": 68,
      "time": 48.125,
      "duration": 0.25,
      "velocity": 0.71,
      "hand": "right"
    },
    {
      "midi": 70,
      "time": 48.75,
      "duration": 0.25,
      "velocity": 0.71,
      "hand": "right"
    },
    {
      "midi": 70,
      "time": 49.583,
      "duration": 0.25,
      "velocity": 0.71,
      "hand": "right"
    },
    {
      "midi": 72,
      "time": 50.417,
      "duration": 0.25,
      "velocity": 0.71,
      "hand": "right"
    },
    {
      "midi": 72,
      "time": 51.25,
      "duration": 0.25,
      "velocity": 0.71,
      "hand": "right"
    },
    {
      "midi": 83,
      "time": 52.083,
      "duration": 0.25,
      "velocity": 0.71,
      "hand": "right"
    },
    {
      "midi": 84,
      "time": 52.813,
      "duration": 0.25,
      "velocity": 0.71,
      "hand": "right"
    },
    {
      "midi": 79,
      "time": 53.438,
      "duration": 0.25,
      "velocity": 0.71,
      "hand": "right"
    },
    {
      "midi": 77,
      "time": 54.167,
      "duration": 0.25,
      "velocity": 0.71,
      "hand": "right"
    },
    {
      "midi": 79,
      "time": 54.896,
      "duration": 0.25,
      "velocity": 0.71,
      "hand": "right"
    },
    {
      "midi": 74,
      "time": 55.521,
      "duration": 0.25,
      "velocity": 0.71,
      "hand": "right"
    },
    {
      "midi": 81,
      "time": 56.146,
      "duration": 0.25,
      "velocity": 0.71,
      "hand": "right"
    },
    {
      "midi": 76,
      "time": 56.771,
      "duration": 0.25,
      "velocity": 0.71,
      "hand": "right"
    },
    {
      "midi": 71,
      "time": 57.396,
      "duration": 0.25,
      "velocity": 0.71,
      "hand": "right"
    },
    {
      "midi": 66,
      "time": 58.021,
      "duration": 0.25,
      "velocity": 0.71,
      "hand": "right"
    },
    {
      "midi": 72,
      "time": 58.646,
      "duration": 0.25,
      "velocity": 0.71,
      "hand": "right"
    },
    {
      "midi": 78,
      "time": 59.271,
      "duration": 0.25,
      "velocity": 0.71,
      "hand": "right"
    },
    {
      "midi": 84,
      "time": 59.896,
      "duration": 0.25,
      "velocity": 0.71,
      "hand": "right"
    },
    {
      "midi": 75,
      "time": 60.625,
      "duration": 0.25,
      "velocity": 0.71,
      "hand": "right"
    },
    {
      "midi": 81,
      "time": 61.25,
      "duration": 0.25,
      "velocity": 0.71,
      "hand": "right"
    },
    {
      "midi": 78,
      "time": 61.875,
      "duration": 0.25,
      "velocity": 0.71,
      "hand": "right"
    },
    {
      "midi": 75,
      "time": 62.5,
      "duration": 0.25,
      "velocity": 0.71,
      "hand": "right"
    },
    {
      "midi": 74,
      "time": 63.125,
      "duration": 0.25,
      "velocity": 0.71,
      "hand": "right"
    },
    {
      "midi": 72,
      "time": 63.854,
      "duration": 0.25,
      "velocity": 0.71,
      "hand": "right"
    },
    {
      "midi": 73,
      "time": 64.583,
      "duration": 0.25,
      "velocity": 0.71,
      "hand": "right"
    },
    {
      "midi": 72,
      "time": 65.313,
      "duration": 0.25,
      "velocity": 0.71,
      "hand": "right"
    },
    {
      "midi": 78,
      "time": 65.938,
      "duration": 0.25,
      "velocity": 0.71,
      "hand": "right"
    },
    {
      "midi": 84,
      "time": 66.563,
      "duration": 0.25,
      "velocity": 0.71,
      "hand": "right"
    },
    {
      "midi": 75,
      "time": 67.292,
      "duration": 0.25,
      "velocity": 0.71,
      "hand": "right"
    },
    {
      "midi": 81,
      "time": 67.917,
      "duration": 0.25,
      "velocity": 0.71,
      "hand": "right"
    },
    {
      "midi": 84,
      "time": 68.542,
      "duration": 0.25,
      "velocity": 0.71,
      "hand": "right"
    },
    {
      "midi": 80,
      "time": 69.167,
      "duration": 0.25,
      "velocity": 0.71,
      "hand": "right"
    },
    {
      "midi": 84,
      "time": 70,
      "duration": 0.25,
      "velocity": 0.75,
      "hand": "right"
    },
    {
      "midi": 75,
      "time": 70.625,
      "duration": 0.25,
      "velocity": 0.71,
      "hand": "right"
    },
    {
      "midi": 81,
      "time": 71.25,
      "duration": 0.25,
      "velocity": 0.71,
      "hand": "right"
    },
    {
      "midi": 75,
      "time": 71.875,
      "duration": 0.25,
      "velocity": 0.71,
      "hand": "right"
    },
    {
      "midi": 72,
      "time": 72.604,
      "duration": 0.25,
      "velocity": 0.71,
      "hand": "right"
    },
    {
      "midi": 70,
      "time": 73.438,
      "duration": 0.25,
      "velocity": 0.71,
      "hand": "right"
    },
    {
      "midi": 76,
      "time": 74.063,
      "duration": 0.25,
      "velocity": 0.71,
      "hand": "right"
    },
    {
      "midi": 82,
      "time": 74.688,
      "duration": 0.25,
      "velocity": 0.71,
      "hand": "right"
    },
    {
      "midi": 84,
      "time": 75.313,
      "duration": 0.25,
      "velocity": 0.71,
      "hand": "right"
    },
    {
      "midi": 78,
      "time": 75.938,
      "duration": 0.25,
      "velocity": 0.71,
      "hand": "right"
    },
    {
      "midi": 84,
      "time": 76.667,
      "duration": 0.25,
      "velocity": 0.75,
      "hand": "right"
    },
    {
      "midi": 75,
      "time": 77.292,
      "duration": 0.25,
      "velocity": 0.71,
      "hand": "right"
    },
    {
      "midi": 81,
      "time": 77.917,
      "duration": 0.25,
      "velocity": 0.71,
      "hand": "right"
    },
    {
      "midi": 75,
      "time": 78.542,
      "duration": 0.25,
      "velocity": 0.71,
      "hand": "right"
    },
    {
      "midi": 69,
      "time": 79.167,
      "duration": 0.25,
      "velocity": 0.71,
      "hand": "right"
    },
    {
      "midi": 63,
      "time": 79.792,
      "duration": 0.25,
      "velocity": 0.71,
      "hand": "right"
    }
  ],
  "notes2Hands": [
    {
      "midi": 45,
      "time": 0,
      "duration": 0.208,
      "velocity": 0.71,
      "hand": "left"
    },
    {
      "midi": 60,
      "time": 0,
      "duration": 0.104,
      "velocity": 0.71,
      "hand": "right"
    },
    {
      "midi": 64,
      "time": 0,
      "duration": 0.104,
      "velocity": 0.71,
      "hand": "right"
    },
    {
      "midi": 70,
      "time": 0.104,
      "duration": 0.104,
      "velocity": 0.71,
      "hand": "right"
    },
    {
      "midi": 72,
      "time": 0.313,
      "duration": 0.104,
      "velocity": 0.71,
      "hand": "right"
    },
    {
      "midi": 52,
      "time": 0.417,
      "duration": 0.208,
      "velocity": 0.71,
      "hand": "left"
    },
    {
      "midi": 57,
      "time": 0.417,
      "duration": 0.208,
      "velocity": 0.71,
      "hand": "left"
    },
    {
      "midi": 64,
      "time": 0.417,
      "duration": 0.104,
      "velocity": 0.71,
      "hand": "right"
    },
    {
      "midi": 69,
      "time": 0.417,
      "duration": 0.104,
      "velocity": 0.71,
      "hand": "right"
    },
    {
      "midi": 74,
      "time": 0.521,
      "duration": 0.104,
      "velocity": 0.71,
      "hand": "right"
    },
    {
      "midi": 76,
      "time": 0.729,
      "duration": 0.104,
      "velocity": 0.71,
      "hand": "right"
    },
    {
      "midi": 45,
      "time": 0.833,
      "duration": 0.208,
      "velocity": 0.71,
      "hand": "left"
    },
    {
      "midi": 69,
      "time": 0.833,
      "duration": 0.104,
      "velocity": 0.71,
      "hand": "right"
    },
    {
      "midi": 74,
      "time": 0.833,
      "duration": 0.104,
      "velocity": 0.71,
      "hand": "right"
    },
    {
      "midi": 78,
      "time": 0.938,
      "duration": 0.104,
      "velocity": 0.71,
      "hand": "right"
    },
    {
      "midi": 80,
      "time": 1.146,
      "duration": 0.104,
      "velocity": 0.71,
      "hand": "right"
    },
    {
      "midi": 53,
      "time": 1.25,
      "duration": 0.208,
      "velocity": 0.71,
      "hand": "left"
    },
    {
      "midi": 57,
      "time": 1.25,
      "duration": 0.208,
      "velocity": 0.71,
      "hand": "left"
    },
    {
      "midi": 74,
      "time": 1.25,
      "duration": 0.104,
      "velocity": 0.71,
      "hand": "right"
    },
    {
      "midi": 77,
      "time": 1.25,
      "duration": 0.104,
      "velocity": 0.71,
      "hand": "right"
    },
    {
      "midi": 82,
      "time": 1.354,
      "duration": 0.104,
      "velocity": 0.71,
      "hand": "right"
    },
    {
      "midi": 84,
      "time": 1.563,
      "duration": 0.104,
      "velocity": 0.71,
      "hand": "right"
    },
    {
      "midi": 45,
      "time": 1.667,
      "duration": 0.208,
      "velocity": 0.71,
      "hand": "left"
    },
    {
      "midi": 76,
      "time": 1.667,
      "duration": 0.104,
      "velocity": 0.71,
      "hand": "right"
    },
    {
      "midi": 81,
      "time": 1.667,
      "duration": 0.104,
      "velocity": 0.71,
      "hand": "right"
    },
    {
      "midi": 74,
      "time": 1.771,
      "duration": 0.104,
      "velocity": 0.71,
      "hand": "right"
    },
    {
      "midi": 52,
      "time": 2.083,
      "duration": 0.208,
      "velocity": 0.71,
      "hand": "left"
    },
    {
      "midi": 57,
      "time": 2.083,
      "duration": 0.208,
      "velocity": 0.71,
      "hand": "left"
    },
    {
      "midi": 77,
      "time": 2.083,
      "duration": 0.104,
      "velocity": 0.71,
      "hand": "right"
    },
    {
      "midi": 81,
      "time": 2.083,
      "duration": 0.104,
      "velocity": 0.71,
      "hand": "right"
    },
    {
      "midi": 84,
      "time": 2.083,
      "duration": 0.104,
      "velocity": 0.71,
      "hand": "right"
    },
    {
      "midi": 75,
      "time": 2.292,
      "duration": 0.104,
      "velocity": 0.71,
      "hand": "right"
    },
    {
      "midi": 57,
      "time": 2.5,
      "duration": 0.208,
      "velocity": 0.71,
      "hand": "left"
    },
    {
      "midi": 73,
      "time": 2.5,
      "duration": 0.104,
      "velocity": 0.71,
      "hand": "right"
    },
    {
      "midi": 76,
      "time": 2.5,
      "duration": 0.104,
      "velocity": 0.71,
      "hand": "right"
    },
    {
      "midi": 81,
      "time": 2.5,
      "duration": 0.104,
      "velocity": 0.71,
      "hand": "right"
    },
    {
      "midi": 84,
      "time": 2.604,
      "duration": 0.104,
      "velocity": 0.71,
      "hand": "right"
    },
    {
      "midi": 83,
      "time": 2.708,
      "duration": 0.104,
      "velocity": 0.71,
      "hand": "right"
    },
    {
      "midi": 72,
      "time": 2.917,
      "duration": 0.104,
      "velocity": 0.71,
      "hand": "right"
    },
    {
      "midi": 76,
      "time": 2.917,
      "duration": 0.104,
      "velocity": 0.71,
      "hand": "right"
    },
    {
      "midi": 81,
      "time": 2.917,
      "duration": 0.104,
      "velocity": 0.71,
      "hand": "right"
    },
    {
      "midi": 83,
      "time": 3.125,
      "duration": 0.104,
      "velocity": 0.71,
      "hand": "right"
    },
    {
      "midi": 81,
      "time": 3.229,
      "duration": 0.104,
      "velocity": 0.71,
      "hand": "right"
    },
    {
      "midi": 40,
      "time": 3.333,
      "duration": 0.208,
      "velocity": 0.71,
      "hand": "left"
    },
    {
      "midi": 71,
      "time": 3.333,
      "duration": 0.104,
      "velocity": 0.71,
      "hand": "right"
    },
    {
      "midi": 76,
      "time": 3.333,
      "duration": 0.104,
      "velocity": 0.71,
      "hand": "right"
    },
    {
      "midi": 80,
      "time": 3.333,
      "duration": 0.104,
      "velocity": 0.71,
      "hand": "right"
    },
    {
      "midi": 78,
      "time": 3.542,
      "duration": 0.104,
      "velocity": 0.71,
      "hand": "right"
    },
    {
      "midi": 52,
      "time": 3.75,
      "duration": 0.208,
      "velocity": 0.71,
      "hand": "left"
    },
    {
      "midi": 59,
      "time": 3.75,
      "duration": 0.208,
      "velocity": 0.71,
      "hand": "left"
    },
    {
      "midi": 68,
      "time": 3.75,
      "duration": 0.104,
      "velocity": 0.71,
      "hand": "right"
    },
    {
      "midi": 71,
      "time": 3.75,
      "duration": 0.104,
      "velocity": 0.71,
      "hand": "right"
    },
    {
      "midi": 76,
      "time": 3.75,
      "duration": 0.104,
      "velocity": 0.71,
      "hand": "right"
    },
    {
      "midi": 77,
      "time": 3.958,
      "duration": 0.104,
      "velocity": 0.71,
      "hand": "right"
    },
    {
      "midi": 45,
      "time": 4.167,
      "duration": 0.208,
      "velocity": 0.71,
      "hand": "left"
    },
    {
      "midi": 69,
      "time": 4.167,
      "duration": 0.104,
      "velocity": 0.71,
      "hand": "right"
    },
    {
      "midi": 72,
      "time": 4.167,
      "duration": 0.104,
      "velocity": 0.71,
      "hand": "right"
    },
    {
      "midi": 75,
      "time": 4.167,
      "duration": 0.104,
      "velocity": 0.71,
      "hand": "right"
    },
    {
      "midi": 73,
      "time": 4.375,
      "duration": 0.104,
      "velocity": 0.71,
      "hand": "right"
    },
    {
      "midi": 52,
      "time": 4.583,
      "duration": 0.208,
      "velocity": 0.71,
      "hand": "left"
    },
    {
      "midi": 57,
      "time": 4.583,
      "duration": 0.208,
      "velocity": 0.71,
      "hand": "left"
    },
    {
      "midi": 64,
      "time": 4.583,
      "duration": 0.104,
      "velocity": 0.71,
      "hand": "right"
    },
    {
      "midi": 69,
      "time": 4.583,
      "duration": 0.104,
      "velocity": 0.71,
      "hand": "right"
    },
    {
      "midi": 72,
      "time": 4.688,
      "duration": 0.104,
      "velocity": 0.71,
      "hand": "right"
    },
    {
      "midi": 74,
      "time": 4.792,
      "duration": 0.104,
      "velocity": 0.71,
      "hand": "right"
    },
    {
      "midi": 72,
      "time": 4.896,
      "duration": 0.104,
      "velocity": 0.71,
      "hand": "right"
    },
    {
      "midi": 52,
      "time": 5,
      "duration": 0.208,
      "velocity": 0.71,
      "hand": "left"
    },
    {
      "midi": 59,
      "time": 5,
      "duration": 0.208,
      "velocity": 0.71,
      "hand": "left"
    },
    {
      "midi": 64,
      "time": 5,
      "duration": 0.104,
      "velocity": 0.71,
      "hand": "right"
    },
    {
      "midi": 68,
      "time": 5,
      "duration": 0.104,
      "velocity": 0.71,
      "hand": "right"
    },
    {
      "midi": 72,
      "time": 5.104,
      "duration": 0.104,
      "velocity": 0.71,
      "hand": "right"
    },
    {
      "midi": 72,
      "time": 5.313,
      "duration": 0.104,
      "velocity": 0.71,
      "hand": "right"
    },
    {
      "midi": 53,
      "time": 5.417,
      "duration": 0.417,
      "velocity": 0.71,
      "hand": "left"
    },
    {
      "midi": 59,
      "time": 5.417,
      "duration": 0.401,
      "velocity": 0.71,
      "hand": "left"
    },
    {
      "midi": 63,
      "time": 5.417,
      "duration": 0.104,
      "velocity": 0.71,
      "hand": "right"
    },
    {
      "midi": 69,
      "time": 5.417,
      "duration": 0.104,
      "velocity": 0.71,
      "hand": "right"
    },
    {
      "midi": 72,
      "time": 5.521,
      "duration": 0.104,
      "velocity": 0.71,
      "hand": "right"
    },
    {
      "midi": 72,
      "time": 5.729,
      "duration": 0.104,
      "velocity": 0.71,
      "hand": "right"
    },
    {
      "midi": 52,
      "time": 5.833,
      "duration": 0.208,
      "velocity": 0.71,
      "hand": "left"
    },
    {
      "midi": 59,
      "time": 5.833,
      "duration": 0.208,
      "velocity": 0.71,
      "hand": "left"
    },
    {
      "midi": 64,
      "time": 5.833,
      "duration": 0.104,
      "velocity": 0.71,
      "hand": "right"
    },
    {
      "midi": 68,
      "time": 5.833,
      "duration": 0.104,
      "velocity": 0.71,
      "hand": "right"
    },
    {
      "midi": 76,
      "time": 5.938,
      "duration": 0.104,
      "velocity": 0.71,
      "hand": "right"
    },
    {
      "midi": 62,
      "time": 6.25,
      "duration": 0.104,
      "velocity": 0.71,
      "hand": "right"
    },
    {
      "midi": 68,
      "time": 6.25,
      "duration": 0.104,
      "velocity": 0.71,
      "hand": "right"
    },
    {
      "midi": 73,
      "time": 6.25,
      "duration": 0.104,
      "velocity": 0.71,
      "hand": "right"
    },
    {
      "midi": 71,
      "time": 6.458,
      "duration": 0.104,
      "velocity": 0.71,
      "hand": "right"
    },
    {
      "midi": 45,
      "time": 6.667,
      "duration": 0.208,
      "velocity": 0.71,
      "hand": "left"
    },
    {
      "midi": 60,
      "time": 6.667,
      "duration": 0.104,
      "velocity": 0.71,
      "hand": "right"
    },
    {
      "midi": 64,
      "time": 6.667,
      "duration": 0.104,
      "velocity": 0.71,
      "hand": "right"
    },
    {
      "midi": 70,
      "time": 6.771,
      "duration": 0.104,
      "velocity": 0.71,
      "hand": "right"
    },
    {
      "midi": 72,
      "time": 6.979,
      "duration": 0.104,
      "velocity": 0.71,
      "hand": "right"
    },
    {
      "midi": 52,
      "time": 7.083,
      "duration": 0.208,
      "velocity": 0.71,
      "hand": "left"
    },
    {
      "midi": 57,
      "time": 7.083,
      "duration": 0.208,
      "velocity": 0.71,
      "hand": "left"
    },
    {
      "midi": 64,
      "time": 7.083,
      "duration": 0.104,
      "velocity": 0.71,
      "hand": "right"
    },
    {
      "midi": 69,
      "time": 7.083,
      "duration": 0.104,
      "velocity": 0.71,
      "hand": "right"
    },
    {
      "midi": 74,
      "time": 7.188,
      "duration": 0.104,
      "velocity": 0.71,
      "hand": "right"
    },
    {
      "midi": 76,
      "time": 7.396,
      "duration": 0.104,
      "velocity": 0.71,
      "hand": "right"
    },
    {
      "midi": 45,
      "time": 7.5,
      "duration": 0.208,
      "velocity": 0.71,
      "hand": "left"
    },
    {
      "midi": 69,
      "time": 7.5,
      "duration": 0.104,
      "velocity": 0.71,
      "hand": "right"
    },
    {
      "midi": 74,
      "time": 7.5,
      "duration": 0.104,
      "velocity": 0.71,
      "hand": "right"
    },
    {
      "midi": 78,
      "time": 7.604,
      "duration": 0.104,
      "velocity": 0.71,
      "hand": "right"
    },
    {
      "midi": 80,
      "time": 7.813,
      "duration": 0.104,
      "velocity": 0.71,
      "hand": "right"
    },
    {
      "midi": 53,
      "time": 7.917,
      "duration": 0.208,
      "velocity": 0.71,
      "hand": "left"
    },
    {
      "midi": 57,
      "time": 7.917,
      "duration": 0.208,
      "velocity": 0.71,
      "hand": "left"
    },
    {
      "midi": 74,
      "time": 7.917,
      "duration": 0.104,
      "velocity": 0.71,
      "hand": "right"
    },
    {
      "midi": 77,
      "time": 7.917,
      "duration": 0.104,
      "velocity": 0.71,
      "hand": "right"
    },
    {
      "midi": 82,
      "time": 8.021,
      "duration": 0.104,
      "velocity": 0.71,
      "hand": "right"
    },
    {
      "midi": 84,
      "time": 8.229,
      "duration": 0.104,
      "velocity": 0.71,
      "hand": "right"
    },
    {
      "midi": 45,
      "time": 8.333,
      "duration": 0.208,
      "velocity": 0.71,
      "hand": "left"
    },
    {
      "midi": 76,
      "time": 8.333,
      "duration": 0.104,
      "velocity": 0.71,
      "hand": "right"
    },
    {
      "midi": 81,
      "time": 8.333,
      "duration": 0.104,
      "velocity": 0.71,
      "hand": "right"
    },
    {
      "midi": 74,
      "time": 8.438,
      "duration": 0.104,
      "velocity": 0.71,
      "hand": "right"
    },
    {
      "midi": 52,
      "time": 8.75,
      "duration": 0.208,
      "velocity": 0.71,
      "hand": "left"
    },
    {
      "midi": 57,
      "time": 8.75,
      "duration": 0.208,
      "velocity": 0.71,
      "hand": "left"
    },
    {
      "midi": 77,
      "time": 8.75,
      "duration": 0.104,
      "velocity": 0.71,
      "hand": "right"
    },
    {
      "midi": 81,
      "time": 8.75,
      "duration": 0.104,
      "velocity": 0.71,
      "hand": "right"
    },
    {
      "midi": 84,
      "time": 8.75,
      "duration": 0.104,
      "velocity": 0.71,
      "hand": "right"
    },
    {
      "midi": 75,
      "time": 8.958,
      "duration": 0.104,
      "velocity": 0.71,
      "hand": "right"
    },
    {
      "midi": 57,
      "time": 9.167,
      "duration": 0.208,
      "velocity": 0.71,
      "hand": "left"
    },
    {
      "midi": 73,
      "time": 9.167,
      "duration": 0.104,
      "velocity": 0.71,
      "hand": "right"
    },
    {
      "midi": 76,
      "time": 9.167,
      "duration": 0.104,
      "velocity": 0.71,
      "hand": "right"
    },
    {
      "midi": 81,
      "time": 9.167,
      "duration": 0.104,
      "velocity": 0.71,
      "hand": "right"
    },
    {
      "midi": 84,
      "time": 9.271,
      "duration": 0.104,
      "velocity": 0.71,
      "hand": "right"
    },
    {
      "midi": 83,
      "time": 9.375,
      "duration": 0.104,
      "velocity": 0.71,
      "hand": "right"
    },
    {
      "midi": 72,
      "time": 9.583,
      "duration": 0.104,
      "velocity": 0.71,
      "hand": "right"
    },
    {
      "midi": 76,
      "time": 9.583,
      "duration": 0.104,
      "velocity": 0.71,
      "hand": "right"
    },
    {
      "midi": 81,
      "time": 9.583,
      "duration": 0.104,
      "velocity": 0.71,
      "hand": "right"
    },
    {
      "midi": 83,
      "time": 9.792,
      "duration": 0.104,
      "velocity": 0.71,
      "hand": "right"
    },
    {
      "midi": 81,
      "time": 9.896,
      "duration": 0.104,
      "velocity": 0.71,
      "hand": "right"
    },
    {
      "midi": 47,
      "time": 10,
      "duration": 0.208,
      "velocity": 0.71,
      "hand": "left"
    },
    {
      "midi": 71,
      "time": 10,
      "duration": 0.104,
      "velocity": 0.71,
      "hand": "right"
    },
    {
      "midi": 76,
      "time": 10,
      "duration": 0.104,
      "velocity": 0.71,
      "hand": "right"
    },
    {
      "midi": 80,
      "time": 10.104,
      "duration": 0.104,
      "velocity": 0.71,
      "hand": "right"
    },
    {
      "midi": 82,
      "time": 10.313,
      "duration": 0.104,
      "velocity": 0.71,
      "hand": "right"
    },
    {
      "midi": 59,
      "time": 10.417,
      "duration": 0.208,
      "velocity": 0.71,
      "hand": "left"
    },
    {
      "midi": 76,
      "time": 10.417,
      "duration": 0.104,
      "velocity": 0.71,
      "hand": "right"
    },
    {
      "midi": 79,
      "time": 10.417,
      "duration": 0.104,
      "velocity": 0.71,
      "hand": "right"
    },
    {
      "midi": 84,
      "time": 10.521,
      "duration": 0.104,
      "velocity": 0.71,
      "hand": "right"
    },
    {
      "midi": 47,
      "time": 10.833,
      "duration": 0.208,
      "velocity": 0.71,
      "hand": "left"
    },
    {
      "midi": 75,
      "time": 10.833,
      "duration": 0.104,
      "velocity": 0.71,
      "hand": "right"
    },
    {
      "midi": 78,
      "time": 10.833,
      "duration": 0.104,
      "velocity": 0.71,
      "hand": "right"
    },
    {
      "midi": 81,
      "time": 10.833,
      "duration": 0.104,
      "velocity": 0.71,
      "hand": "right"
    },
    {
      "midi": 79,
      "time": 11.042,
      "duration": 0.104,
      "velocity": 0.71,
      "hand": "right"
    },
    {
      "midi": 59,
      "time": 11.25,
      "duration": 0.208,
      "velocity": 0.71,
      "hand": "left"
    },
    {
      "midi": 71,
      "time": 11.25,
      "duration": 0.208,
      "velocity": 0.71,
      "hand": "right"
    },
    {
      "midi": 75,
      "time": 11.25,
      "duration": 0.104,
      "velocity": 0.71,
      "hand": "right"
    },
    {
      "midi": 78,
      "time": 11.354,
      "duration": 0.104,
      "velocity": 0.71,
      "hand": "right"
    },
    {
      "midi": 79,
      "time": 11.458,
      "duration": 0.104,
      "velocity": 0.71,
      "hand": "right"
    },
    {
      "midi": 52,
      "time": 11.667,
      "duration": 0.401,
      "velocity": 0.71,
      "hand": "left"
    },
    {
      "midi": 68,
      "time": 11.667,
      "duration": 0.104,
      "velocity": 0.71,
      "hand": "right"
    },
    {
      "midi": 71,
      "time": 11.667,
      "duration": 0.104,
      "velocity": 0.71,
      "hand": "right"
    },
    {
      "midi": 77,
      "time": 11.771,
      "duration": 0.104,
      "velocity": 0.71,
      "hand": "right"
    },
    {
      "midi": 76,
      "time": 11.979,
      "duration": 0.104,
      "velocity": 0.71,
      "hand": "right"
    },
    {
      "midi": 40,
      "time": 12.083,
      "duration": 0.417,
      "velocity": 0.71,
      "hand": "left"
    },
    {
      "midi": 52,
      "time": 12.083,
      "duration": 0.417,
      "velocity": 0.71,
      "hand": "left"
    },
    {
      "midi": 65,
      "time": 12.083,
      "duration": 0.104,
      "velocity": 0.71,
      "hand": "right"
    },
    {
      "midi": 69,
      "time": 12.083,
      "duration": 0.104,
      "velocity": 0.71,
      "hand": "right"
    },
    {
      "midi": 74,
      "time": 12.083,
      "duration": 0.104,
      "velocity": 0.71,
      "hand": "right"
    },
    {
      "midi": 76,
      "time": 12.188,
      "duration": 0.104,
      "velocity": 0.71,
      "hand": "right"
    },
    {
      "midi": 74,
      "time": 12.396,
      "duration": 0.104,
      "velocity": 0.71,
      "hand": "right"
    },
    {
      "midi": 64,
      "time": 12.5,
      "duration": 0.104,
      "velocity": 0.71,
      "hand": "right"
    },
    {
      "midi": 69,
      "time": 12.5,
      "duration": 0.104,
      "velocity": 0.71,
      "hand": "right"
    },
    {
      "midi": 72,
      "time": 12.5,
      "duration": 0.104,
      "velocity": 0.71,
      "hand": "right"
    },
    {
      "midi": 74,
      "time": 12.604,
      "duration": 0.104,
      "velocity": 0.71,
      "hand": "right"
    },
    {
      "midi": 72,
      "time": 12.813,
      "duration": 0.104,
      "velocity": 0.71,
      "hand": "right"
    },
    {
      "midi": 40,
      "time": 12.917,
      "duration": 0.417,
      "velocity": 0.71,
      "hand": "left"
    },
    {
      "midi": 52,
      "time": 12.917,
      "duration": 0.417,
      "velocity": 0.71,
      "hand": "left"
    },
    {
      "midi": 62,
      "time": 12.917,
      "duration": 0.104,
      "velocity": 0.71,
      "hand": "right"
    },
    {
      "midi": 68,
      "time": 12.917,
      "duration": 0.104,
      "velocity": 0.71,
      "hand": "right"
    },
    {
      "midi": 72,
      "time": 13.021,
      "duration": 0.104,
      "velocity": 0.71,
      "hand": "right"
    },
    {
      "midi": 71,
      "time": 13.229,
      "duration": 0.104,
      "velocity": 0.71,
      "hand": "right"
    },
    {
      "midi": 45,
      "time": 13.333,
      "duration": 0.208,
      "velocity": 0.71,
      "hand": "left"
    },
    {
      "midi": 60,
      "time": 13.333,
      "duration": 0.104,
      "velocity": 0.71,
      "hand": "right"
    },
    {
      "midi": 64,
      "time": 13.333,
      "duration": 0.104,
      "velocity": 0.71,
      "hand": "right"
    },
    {
      "midi": 70,
      "time": 13.438,
      "duration": 0.104,
      "velocity": 0.71,
      "hand": "right"
    },
    {
      "midi": 72,
      "time": 13.646,
      "duration": 0.104,
      "velocity": 0.71,
      "hand": "right"
    },
    {
      "midi": 52,
      "time": 13.75,
      "duration": 0.208,
      "velocity": 0.71,
      "hand": "left"
    },
    {
      "midi": 57,
      "time": 13.75,
      "duration": 0.208,
      "velocity": 0.71,
      "hand": "left"
    },
    {
      "midi": 64,
      "time": 13.75,
      "duration": 0.104,
      "velocity": 0.71,
      "hand": "right"
    },
    {
      "midi": 69,
      "time": 13.75,
      "duration": 0.104,
      "velocity": 0.71,
      "hand": "right"
    },
    {
      "midi": 74,
      "time": 13.854,
      "duration": 0.104,
      "velocity": 0.71,
      "hand": "right"
    },
    {
      "midi": 76,
      "time": 14.063,
      "duration": 0.104,
      "velocity": 0.71,
      "hand": "right"
    },
    {
      "midi": 45,
      "time": 14.167,
      "duration": 0.208,
      "velocity": 0.71,
      "hand": "left"
    },
    {
      "midi": 69,
      "time": 14.167,
      "duration": 0.104,
      "velocity": 0.71,
      "hand": "right"
    },
    {
      "midi": 74,
      "time": 14.167,
      "duration": 0.104,
      "velocity": 0.71,
      "hand": "right"
    },
    {
      "midi": 78,
      "time": 14.271,
      "duration": 0.104,
      "velocity": 0.71,
      "hand": "right"
    },
    {
      "midi": 80,
      "time": 14.479,
      "duration": 0.104,
      "velocity": 0.71,
      "hand": "right"
    },
    {
      "midi": 53,
      "time": 14.583,
      "duration": 0.208,
      "velocity": 0.71,
      "hand": "left"
    },
    {
      "midi": 57,
      "time": 14.583,
      "duration": 0.208,
      "velocity": 0.71,
      "hand": "left"
    },
    {
      "midi": 74,
      "time": 14.583,
      "duration": 0.104,
      "velocity": 0.71,
      "hand": "right"
    },
    {
      "midi": 77,
      "time": 14.583,
      "duration": 0.104,
      "velocity": 0.71,
      "hand": "right"
    },
    {
      "midi": 82,
      "time": 14.688,
      "duration": 0.104,
      "velocity": 0.71,
      "hand": "right"
    },
    {
      "midi": 84,
      "time": 14.896,
      "duration": 0.104,
      "velocity": 0.71,
      "hand": "right"
    },
    {
      "midi": 45,
      "time": 15,
      "duration": 0.208,
      "velocity": 0.71,
      "hand": "left"
    },
    {
      "midi": 76,
      "time": 15,
      "duration": 0.104,
      "velocity": 0.71,
      "hand": "right"
    },
    {
      "midi": 81,
      "time": 15,
      "duration": 0.104,
      "velocity": 0.71,
      "hand": "right"
    },
    {
      "midi": 74,
      "time": 15.104,
      "duration": 0.104,
      "velocity": 0.71,
      "hand": "right"
    },
    {
      "midi": 52,
      "time": 15.417,
      "duration": 0.208,
      "velocity": 0.71,
      "hand": "left"
    },
    {
      "midi": 57,
      "time": 15.417,
      "duration": 0.208,
      "velocity": 0.71,
      "hand": "left"
    },
    {
      "midi": 77,
      "time": 15.417,
      "duration": 0.104,
      "velocity": 0.71,
      "hand": "right"
    },
    {
      "midi": 81,
      "time": 15.417,
      "duration": 0.104,
      "velocity": 0.71,
      "hand": "right"
    },
    {
      "midi": 84,
      "time": 15.417,
      "duration": 0.104,
      "velocity": 0.71,
      "hand": "right"
    },
    {
      "midi": 75,
      "time": 15.625,
      "duration": 0.104,
      "velocity": 0.71,
      "hand": "right"
    },
    {
      "midi": 57,
      "time": 15.833,
      "duration": 0.208,
      "velocity": 0.71,
      "hand": "left"
    },
    {
      "midi": 73,
      "time": 15.833,
      "duration": 0.104,
      "velocity": 0.71,
      "hand": "right"
    },
    {
      "midi": 76,
      "time": 15.833,
      "duration": 0.104,
      "velocity": 0.71,
      "hand": "right"
    },
    {
      "midi": 81,
      "time": 15.833,
      "duration": 0.104,
      "velocity": 0.71,
      "hand": "right"
    },
    {
      "midi": 84,
      "time": 15.938,
      "duration": 0.104,
      "velocity": 0.71,
      "hand": "right"
    },
    {
      "midi": 83,
      "time": 16.042,
      "duration": 0.104,
      "velocity": 0.71,
      "hand": "right"
    },
    {
      "midi": 72,
      "time": 16.25,
      "duration": 0.104,
      "velocity": 0.71,
      "hand": "right"
    },
    {
      "midi": 76,
      "time": 16.25,
      "duration": 0.104,
      "velocity": 0.71,
      "hand": "right"
    },
    {
      "midi": 81,
      "time": 16.25,
      "duration": 0.104,
      "velocity": 0.71,
      "hand": "right"
    },
    {
      "midi": 83,
      "time": 16.458,
      "duration": 0.104,
      "velocity": 0.71,
      "hand": "right"
    },
    {
      "midi": 81,
      "time": 16.563,
      "duration": 0.104,
      "velocity": 0.71,
      "hand": "right"
    },
    {
      "midi": 40,
      "time": 16.667,
      "duration": 0.208,
      "velocity": 0.71,
      "hand": "left"
    },
    {
      "midi": 71,
      "time": 16.667,
      "duration": 0.104,
      "velocity": 0.71,
      "hand": "right"
    },
    {
      "midi": 76,
      "time": 16.667,
      "duration": 0.104,
      "velocity": 0.71,
      "hand": "right"
    },
    {
      "midi": 80,
      "time": 16.667,
      "duration": 0.104,
      "velocity": 0.71,
      "hand": "right"
    },
    {
      "midi": 78,
      "time": 16.875,
      "duration": 0.104,
      "velocity": 0.71,
      "hand": "right"
    },
    {
      "midi": 52,
      "time": 17.083,
      "duration": 0.208,
      "velocity": 0.71,
      "hand": "left"
    },
    {
      "midi": 59,
      "time": 17.083,
      "duration": 0.208,
      "velocity": 0.71,
      "hand": "left"
    },
    {
      "midi": 68,
      "time": 17.083,
      "duration": 0.104,
      "velocity": 0.71,
      "hand": "right"
    },
    {
      "midi": 71,
      "time": 17.083,
      "duration": 0.104,
      "velocity": 0.71,
      "hand": "right"
    },
    {
      "midi": 76,
      "time": 17.083,
      "duration": 0.104,
      "velocity": 0.71,
      "hand": "right"
    },
    {
      "midi": 77,
      "time": 17.292,
      "duration": 0.104,
      "velocity": 0.71,
      "hand": "right"
    },
    {
      "midi": 45,
      "time": 17.5,
      "duration": 0.208,
      "velocity": 0.71,
      "hand": "left"
    },
    {
      "midi": 69,
      "time": 17.5,
      "duration": 0.104,
      "velocity": 0.71,
      "hand": "right"
    },
    {
      "midi": 72,
      "time": 17.5,
      "duration": 0.104,
      "velocity": 0.71,
      "hand": "right"
    },
    {
      "midi": 75,
      "time": 17.5,
      "duration": 0.104,
      "velocity": 0.71,
      "hand": "right"
    },
    {
      "midi": 73,
      "time": 17.708,
      "duration": 0.104,
      "velocity": 0.71,
      "hand": "right"
    },
    {
      "midi": 52,
      "time": 17.917,
      "duration": 0.208,
      "velocity": 0.71,
      "hand": "left"
    },
    {
      "midi": 57,
      "time": 17.917,
      "duration": 0.208,
      "velocity": 0.71,
      "hand": "left"
    },
    {
      "midi": 64,
      "time": 17.917,
      "duration": 0.104,
      "velocity": 0.71,
      "hand": "right"
    },
    {
      "midi": 69,
      "time": 17.917,
      "duration": 0.104,
      "velocity": 0.71,
      "hand": "right"
    },
    {
      "midi": 72,
      "time": 18.021,
      "duration": 0.104,
      "velocity": 0.71,
      "hand": "right"
    },
    {
      "midi": 74,
      "time": 18.125,
      "duration": 0.104,
      "velocity": 0.71,
      "hand": "right"
    },
    {
      "midi": 72,
      "time": 18.229,
      "duration": 0.104,
      "velocity": 0.71,
      "hand": "right"
    },
    {
      "midi": 52,
      "time": 18.333,
      "duration": 0.208,
      "velocity": 0.71,
      "hand": "left"
    },
    {
      "midi": 59,
      "time": 18.333,
      "duration": 0.208,
      "velocity": 0.71,
      "hand": "left"
    },
    {
      "midi": 64,
      "time": 18.333,
      "duration": 0.104,
      "velocity": 0.71,
      "hand": "right"
    },
    {
      "midi": 68,
      "time": 18.333,
      "duration": 0.104,
      "velocity": 0.71,
      "hand": "right"
    },
    {
      "midi": 72,
      "time": 18.438,
      "duration": 0.104,
      "velocity": 0.71,
      "hand": "right"
    },
    {
      "midi": 72,
      "time": 18.646,
      "duration": 0.104,
      "velocity": 0.71,
      "hand": "right"
    },
    {
      "midi": 53,
      "time": 18.75,
      "duration": 0.417,
      "velocity": 0.71,
      "hand": "left"
    },
    {
      "midi": 59,
      "time": 18.75,
      "duration": 0.402,
      "velocity": 0.71,
      "hand": "left"
    },
    {
      "midi": 63,
      "time": 18.75,
      "duration": 0.104,
      "velocity": 0.71,
      "hand": "right"
    },
    {
      "midi": 69,
      "time": 18.75,
      "duration": 0.104,
      "velocity": 0.71,
      "hand": "right"
    },
    {
      "midi": 72,
      "time": 18.854,
      "duration": 0.104,
      "velocity": 0.71,
      "hand": "right"
    },
    {
      "midi": 72,
      "time": 19.063,
      "duration": 0.104,
      "velocity": 0.71,
      "hand": "right"
    },
    {
      "midi": 52,
      "time": 19.167,
      "duration": 0.208,
      "velocity": 0.71,
      "hand": "left"
    },
    {
      "midi": 59,
      "time": 19.167,
      "duration": 0.208,
      "velocity": 0.71,
      "hand": "left"
    },
    {
      "midi": 64,
      "time": 19.167,
      "duration": 0.104,
      "velocity": 0.71,
      "hand": "right"
    },
    {
      "midi": 68,
      "time": 19.167,
      "duration": 0.104,
      "velocity": 0.71,
      "hand": "right"
    },
    {
      "midi": 76,
      "time": 19.271,
      "duration": 0.104,
      "velocity": 0.71,
      "hand": "right"
    },
    {
      "midi": 62,
      "time": 19.583,
      "duration": 0.104,
      "velocity": 0.71,
      "hand": "right"
    },
    {
      "midi": 68,
      "time": 19.583,
      "duration": 0.104,
      "velocity": 0.71,
      "hand": "right"
    },
    {
      "midi": 73,
      "time": 19.583,
      "duration": 0.104,
      "velocity": 0.71,
      "hand": "right"
    },
    {
      "midi": 71,
      "time": 19.792,
      "duration": 0.104,
      "velocity": 0.71,
      "hand": "right"
    },
    {
      "midi": 45,
      "time": 20,
      "duration": 0.208,
      "velocity": 0.71,
      "hand": "left"
    },
    {
      "midi": 60,
      "time": 20,
      "duration": 0.104,
      "velocity": 0.71,
      "hand": "right"
    },
    {
      "midi": 64,
      "time": 20,
      "duration": 0.104,
      "velocity": 0.71,
      "hand": "right"
    },
    {
      "midi": 70,
      "time": 20.104,
      "duration": 0.104,
      "velocity": 0.71,
      "hand": "right"
    },
    {
      "midi": 72,
      "time": 20.313,
      "duration": 0.104,
      "velocity": 0.71,
      "hand": "right"
    },
    {
      "midi": 52,
      "time": 20.417,
      "duration": 0.208,
      "velocity": 0.71,
      "hand": "left"
    },
    {
      "midi": 57,
      "time": 20.417,
      "duration": 0.208,
      "velocity": 0.71,
      "hand": "left"
    },
    {
      "midi": 64,
      "time": 20.417,
      "duration": 0.104,
      "velocity": 0.71,
      "hand": "right"
    },
    {
      "midi": 69,
      "time": 20.417,
      "duration": 0.104,
      "velocity": 0.71,
      "hand": "right"
    },
    {
      "midi": 74,
      "time": 20.521,
      "duration": 0.104,
      "velocity": 0.71,
      "hand": "right"
    },
    {
      "midi": 76,
      "time": 20.729,
      "duration": 0.104,
      "velocity": 0.71,
      "hand": "right"
    },
    {
      "midi": 45,
      "time": 20.833,
      "duration": 0.208,
      "velocity": 0.71,
      "hand": "left"
    },
    {
      "midi": 69,
      "time": 20.833,
      "duration": 0.104,
      "velocity": 0.71,
      "hand": "right"
    },
    {
      "midi": 74,
      "time": 20.833,
      "duration": 0.104,
      "velocity": 0.71,
      "hand": "right"
    },
    {
      "midi": 78,
      "time": 20.938,
      "duration": 0.104,
      "velocity": 0.71,
      "hand": "right"
    },
    {
      "midi": 80,
      "time": 21.146,
      "duration": 0.104,
      "velocity": 0.71,
      "hand": "right"
    },
    {
      "midi": 53,
      "time": 21.25,
      "duration": 0.208,
      "velocity": 0.71,
      "hand": "left"
    },
    {
      "midi": 57,
      "time": 21.25,
      "duration": 0.208,
      "velocity": 0.71,
      "hand": "left"
    },
    {
      "midi": 74,
      "time": 21.25,
      "duration": 0.104,
      "velocity": 0.71,
      "hand": "right"
    },
    {
      "midi": 77,
      "time": 21.25,
      "duration": 0.104,
      "velocity": 0.71,
      "hand": "right"
    },
    {
      "midi": 82,
      "time": 21.354,
      "duration": 0.104,
      "velocity": 0.71,
      "hand": "right"
    },
    {
      "midi": 84,
      "time": 21.563,
      "duration": 0.104,
      "velocity": 0.71,
      "hand": "right"
    },
    {
      "midi": 45,
      "time": 21.667,
      "duration": 0.208,
      "velocity": 0.71,
      "hand": "left"
    },
    {
      "midi": 76,
      "time": 21.667,
      "duration": 0.104,
      "velocity": 0.71,
      "hand": "right"
    },
    {
      "midi": 81,
      "time": 21.667,
      "duration": 0.104,
      "velocity": 0.71,
      "hand": "right"
    },
    {
      "midi": 74,
      "time": 21.771,
      "duration": 0.104,
      "velocity": 0.71,
      "hand": "right"
    },
    {
      "midi": 52,
      "time": 22.083,
      "duration": 0.208,
      "velocity": 0.71,
      "hand": "left"
    },
    {
      "midi": 57,
      "time": 22.083,
      "duration": 0.208,
      "velocity": 0.71,
      "hand": "left"
    },
    {
      "midi": 77,
      "time": 22.083,
      "duration": 0.104,
      "velocity": 0.71,
      "hand": "right"
    },
    {
      "midi": 81,
      "time": 22.083,
      "duration": 0.104,
      "velocity": 0.71,
      "hand": "right"
    },
    {
      "midi": 84,
      "time": 22.083,
      "duration": 0.104,
      "velocity": 0.71,
      "hand": "right"
    },
    {
      "midi": 75,
      "time": 22.292,
      "duration": 0.104,
      "velocity": 0.71,
      "hand": "right"
    },
    {
      "midi": 57,
      "time": 22.5,
      "duration": 0.208,
      "velocity": 0.71,
      "hand": "left"
    },
    {
      "midi": 73,
      "time": 22.5,
      "duration": 0.104,
      "velocity": 0.71,
      "hand": "right"
    },
    {
      "midi": 76,
      "time": 22.5,
      "duration": 0.104,
      "velocity": 0.71,
      "hand": "right"
    },
    {
      "midi": 81,
      "time": 22.5,
      "duration": 0.104,
      "velocity": 0.71,
      "hand": "right"
    },
    {
      "midi": 84,
      "time": 22.604,
      "duration": 0.104,
      "velocity": 0.71,
      "hand": "right"
    },
    {
      "midi": 83,
      "time": 22.708,
      "duration": 0.104,
      "velocity": 0.71,
      "hand": "right"
    },
    {
      "midi": 72,
      "time": 22.917,
      "duration": 0.104,
      "velocity": 0.71,
      "hand": "right"
    },
    {
      "midi": 76,
      "time": 22.917,
      "duration": 0.104,
      "velocity": 0.71,
      "hand": "right"
    },
    {
      "midi": 81,
      "time": 22.917,
      "duration": 0.104,
      "velocity": 0.71,
      "hand": "right"
    },
    {
      "midi": 83,
      "time": 23.125,
      "duration": 0.104,
      "velocity": 0.71,
      "hand": "right"
    },
    {
      "midi": 81,
      "time": 23.229,
      "duration": 0.104,
      "velocity": 0.71,
      "hand": "right"
    },
    {
      "midi": 38,
      "time": 23.333,
      "duration": 0.208,
      "velocity": 0.71,
      "hand": "left"
    },
    {
      "midi": 50,
      "time": 23.333,
      "duration": 0.208,
      "velocity": 0.71,
      "hand": "left"
    },
    {
      "midi": 74,
      "time": 23.333,
      "duration": 0.104,
      "velocity": 0.71,
      "hand": "right"
    },
    {
      "midi": 77,
      "time": 23.333,
      "duration": 0.104,
      "velocity": 0.71,
      "hand": "right"
    },
    {
      "midi": 83,
      "time": 23.438,
      "duration": 0.104,
      "velocity": 0.71,
      "hand": "right"
    },
    {
      "midi": 84,
      "time": 23.542,
      "duration": 0.104,
      "velocity": 0.71,
      "hand": "right"
    },
    {
      "midi": 73,
      "time": 23.646,
      "duration": 0.104,
      "velocity": 0.71,
      "hand": "right"
    },
    {
      "midi": 50,
      "time": 23.75,
      "duration": 0.208,
      "velocity": 0.71,
      "hand": "left"
    },
    {
      "midi": 53,
      "time": 23.75,
      "duration": 0.208,
      "velocity": 0.71,
      "hand": "left"
    },
    {
      "midi": 77,
      "time": 23.75,
      "duration": 0.104,
      "velocity": 0.71,
      "hand": "right"
    },
    {
      "midi": 82,
      "time": 23.75,
      "duration": 0.104,
      "velocity": 0.71,
      "hand": "right"
    },
    {
      "midi": 75,
      "time": 23.854,
      "duration": 0.104,
      "velocity": 0.71,
      "hand": "right"
    },
    {
      "midi": 77,
      "time": 24.063,
      "duration": 0.104,
      "velocity": 0.71,
      "hand": "right"
    },
    {
      "midi": 40,
      "time": 24.167,
      "duration": 0.208,
      "velocity": 0.71,
      "hand": "left"
    },
    {
      "midi": 52,
      "time": 24.167,
      "duration": 0.208,
      "velocity": 0.71,
      "hand": "left"
    },
    {
      "midi": 74,
      "time": 24.167,
      "duration": 0.104,
      "velocity": 0.71,
      "hand": "right"
    },
    {
      "midi": 80,
      "time": 24.167,
      "duration": 0.104,
      "velocity": 0.71,
      "hand": "right"
    },
    {
      "midi": 77,
      "time": 24.271,
      "duration": 0.104,
      "velocity": 0.71,
      "hand": "right"
    },
    {
      "midi": 79,
      "time": 24.479,
      "duration": 0.104,
      "velocity": 0.71,
      "hand": "right"
    },
    {
      "midi": 52,
      "time": 24.583,
      "duration": 0.208,
      "velocity": 0.71,
      "hand": "left"
    },
    {
      "midi": 59,
      "time": 24.583,
      "duration": 0.208,
      "velocity": 0.71,
      "hand": "left"
    },
    {
      "midi": 62,
      "time": 24.583,
      "duration": 0.208,
      "velocity": 0.71,
      "hand": "right"
    },
    {
      "midi": 74,
      "time": 24.583,
      "duration": 0.104,
      "velocity": 0.71,
      "hand": "right"
    },
    {
      "midi": 81,
      "time": 24.688,
      "duration": 0.104,
      "velocity": 0.71,
      "hand": "right"
    },
    {
      "midi": 41,
      "time": 25,
      "duration": 0.208,
      "velocity": 0.71,
      "hand": "left"
    },
    {
      "midi": 53,
      "time": 25,
      "duration": 0.208,
      "velocity": 0.71,
      "hand": "left"
    },
    {
      "midi": 77,
      "time": 25,
      "duration": 0.104,
      "velocity": 0.71,
      "hand": "right"
    },
    {
      "midi": 81,
      "time": 25,
      "duration": 0.104,
      "velocity": 0.71,
      "hand": "right"
    },
    {
      "midi": 84,
      "time": 25,
      "duration": 0.104,
      "velocity": 0.71,
      "hand": "right"
    },
    {
      "midi": 79,
      "time": 25.208,
      "duration": 0.104,
      "velocity": 0.71,
      "hand": "right"
    },
    {
      "midi": 57,
      "time": 25.417,
      "duration": 0.208,
      "velocity": 0.71,
      "hand": "left"
    },
    {
      "midi": 77,
      "time": 25.417,
      "duration": 0.104,
      "velocity": 0.71,
      "hand": "right"
    },
    {
      "midi": 81,
      "time": 25.417,
      "duration": 0.104,
      "velocity": 0.71,
      "hand": "right"
    },
    {
      "midi": 84,
      "time": 25.417,
      "duration": 0.104,
      "velocity": 0.71,
      "hand": "right"
    },
    {
      "midi": 75,
      "time": 25.625,
      "duration": 0.104,
      "velocity": 0.71,
      "hand": "right"
    },
    {
      "midi": 36,
      "time": 25.833,
      "duration": 0.208,
      "velocity": 0.71,
      "hand": "left"
    },
    {
      "midi": 48,
      "time": 25.833,
      "duration": 0.208,
      "velocity": 0.71,
      "hand": "left"
    },
    {
      "midi": 73,
      "time": 25.833,
      "duration": 0.104,
      "velocity": 0.71,
      "hand": "right"
    },
    {
      "midi": 76,
      "time": 25.833,
      "duration": 0.104,
      "velocity": 0.71,
      "hand": "right"
    },
    {
      "midi": 81,
      "time": 25.833,
      "duration": 0.104,
      "velocity": 0.71,
      "hand": "right"
    },
    {
      "midi": 84,
      "time": 25.938,
      "duration": 0.104,
      "velocity": 0.71,
      "hand": "right"
    },
    {
      "midi": 83,
      "time": 26.042,
      "duration": 0.104,
      "velocity": 0.71,
      "hand": "right"
    },
    {
      "midi": 52,
      "time": 26.25,
      "duration": 0.208,
      "velocity": 0.71,
      "hand": "left"
    },
    {
      "midi": 57,
      "time": 26.25,
      "duration": 0.208,
      "velocity": 0.71,
      "hand": "left"
    },
    {
      "midi": 72,
      "time": 26.25,
      "duration": 0.104,
      "velocity": 0.71,
      "hand": "right"
    },
    {
      "midi": 76,
      "time": 26.25,
      "duration": 0.104,
      "velocity": 0.71,
      "hand": "right"
    },
    {
      "midi": 81,
      "time": 26.25,
      "duration": 0.104,
      "velocity": 0.71,
      "hand": "right"
    },
    {
      "midi": 79,
      "time": 26.458,
      "duration": 0.104,
      "velocity": 0.71,
      "hand": "right"
    },
    {
      "midi": 38,
      "time": 26.667,
      "duration": 0.208,
      "velocity": 0.71,
      "hand": "left"
    },
    {
      "midi": 70,
      "time": 26.667,
      "duration": 0.104,
      "velocity": 0.71,
      "hand": "right"
    },
    {
      "midi": 74,
      "time": 26.667,
      "duration": 0.104,
      "velocity": 0.71,
      "hand": "right"
    },
    {
      "midi": 77,
      "time": 26.667,
      "duration": 0.104,
      "velocity": 0.71,
      "hand": "right"
    },
    {
      "midi": 75,
      "time": 26.875,
      "duration": 0.104,
      "velocity": 0.71,
      "hand": "right"
    },
    {
      "midi": 50,
      "time": 27.083,
      "duration": 0.417,
      "velocity": 0.71,
      "hand": "left"
    },
    {
      "midi": 53,
      "time": 27.083,
      "duration": 0.417,
      "velocity": 0.71,
      "hand": "left"
    },
    {
      "midi": 65,
      "time": 27.083,
      "duration": 0.104,
      "velocity": 0.71,
      "hand": "right"
    },
    {
      "midi": 70,
      "time": 27.083,
      "duration": 0.104,
      "velocity": 0.71,
      "hand": "right"
    },
    {
      "midi": 74,
      "time": 27.188,
      "duration": 0.104,
      "velocity": 0.71,
      "hand": "right"
    },
    {
      "midi": 77,
      "time": 27.292,
      "duration": 0.104,
      "velocity": 0.71,
      "hand": "right"
    },
    {
      "midi": 74,
      "time": 27.396,
      "duration": 0.104,
      "velocity": 0.71,
      "hand": "right"
    },
    {
      "midi": 52,
      "time": 27.5,
      "duration": 0.402,
      "velocity": 0.71,
      "hand": "left"
    },
    {
      "midi": 57,
      "time": 27.5,
      "duration": 0.417,
      "velocity": 0.71,
      "hand": "left"
    },
    {
      "midi": 64,
      "time": 27.5,
      "duration": 0.104,
      "velocity": 0.71,
      "hand": "right"
    },
    {
      "midi": 69,
      "time": 27.5,
      "duration": 0.104,
      "velocity": 0.71,
      "hand": "right"
    },
    {
      "midi": 72,
      "time": 27.604,
      "duration": 0.104,
      "velocity": 0.71,
      "hand": "right"
    },
    {
      "midi": 76,
      "time": 27.708,
      "duration": 0.104,
      "velocity": 0.71,
      "hand": "right"
    },
    {
      "midi": 72,
      "time": 27.813,
      "duration": 0.104,
      "velocity": 0.71,
      "hand": "right"
    },
    {
      "midi": 52,
      "time": 27.917,
      "duration": 0.417,
      "velocity": 0.71,
      "hand": "left"
    },
    {
      "midi": 62,
      "time": 27.917,
      "duration": 0.104,
      "velocity": 0.71,
      "hand": "right"
    },
    {
      "midi": 68,
      "time": 27.917,
      "duration": 0.104,
      "velocity": 0.71,
      "hand": "right"
    },
    {
      "midi": 71,
      "time": 28.021,
      "duration": 0.104,
      "velocity": 0.71,
      "hand": "right"
    },
    {
      "midi": 76,
      "time": 28.125,
      "duration": 0.104,
      "velocity": 0.71,
      "hand": "right"
    },
    {
      "midi": 71,
      "time": 28.229,
      "duration": 0.104,
      "velocity": 0.71,
      "hand": "right"
    },
    {
      "midi": 45,
      "time": 28.333,
      "duration": 0.417,
      "velocity": 0.71,
      "hand": "left"
    },
    {
      "midi": 57,
      "time": 28.333,
      "duration": 0.417,
      "velocity": 0.71,
      "hand": "left"
    },
    {
      "midi": 60,
      "time": 28.333,
      "duration": 0.104,
      "velocity": 0.71,
      "hand": "right"
    },
    {
      "midi": 64,
      "time": 28.333,
      "duration": 0.104,
      "velocity": 0.71,
      "hand": "right"
    },
    {
      "midi": 70,
      "time": 28.438,
      "duration": 0.104,
      "velocity": 0.71,
      "hand": "right"
    },
    {
      "midi": 72,
      "time": 28.646,
      "duration": 0.104,
      "velocity": 0.71,
      "hand": "right"
    },
    {
      "midi": 40,
      "time": 28.75,
      "duration": 0.417,
      "velocity": 0.71,
      "hand": "left"
    },
    {
      "midi": 52,
      "time": 28.75,
      "duration": 0.417,
      "velocity": 0.71,
      "hand": "left"
    },
    {
      "midi": 64,
      "time": 28.75,
      "duration": 0.104,
      "velocity": 0.71,
      "hand": "right"
    },
    {
      "midi": 68,
      "time": 28.75,
      "duration": 0.104,
      "velocity": 0.71,
      "hand": "right"
    },
    {
      "midi": 74,
      "time": 28.854,
      "duration": 0.104,
      "velocity": 0.71,
      "hand": "right"
    },
    {
      "midi": 76,
      "time": 29.063,
      "duration": 0.104,
      "velocity": 0.71,
      "hand": "right"
    },
    {
      "midi": 45,
      "time": 29.167,
      "duration": 0.417,
      "velocity": 0.71,
      "hand": "left"
    },
    {
      "midi": 69,
      "time": 29.167,
      "duration": 0.104,
      "velocity": 0.71,
      "hand": "right"
    },
    {
      "midi": 72,
      "time": 29.167,
      "duration": 0.104,
      "velocity": 0.71,
      "hand": "right"
    },
    {
      "midi": 81,
      "time": 29.167,
      "duration": 0.104,
      "velocity": 0.71,
      "hand": "right"
    },
    {
      "midi": 79,
      "time": 29.375,
      "duration": 0.104,
      "velocity": 0.71,
      "hand": "right"
    },
    {
      "midi": 77,
      "time": 29.583,
      "duration": 0.104,
      "velocity": 0.71,
      "hand": "right"
    },
    {
      "midi": 75,
      "time": 29.792,
      "duration": 0.104,
      "velocity": 0.71,
      "hand": "right"
    },
    {
      "midi": 36,
      "time": 30,
      "duration": 0.208,
      "velocity": 0.71,
      "hand": "left"
    },
    {
      "midi": 48,
      "time": 30,
      "duration": 0.208,
      "velocity": 0.71,
      "hand": "left"
    },
    {
      "midi": 64,
      "time": 30,
      "duration": 0.104,
      "velocity": 0.71,
      "hand": "right"
    },
    {
      "midi": 70,
      "time": 30,
      "duration": 0.104,
      "velocity": 0.71,
      "hand": "right"
    },
    {
      "midi": 73,
      "time": 30,
      "duration": 0.104,
      "velocity": 0.71,
      "hand": "right"
    },
    {
      "midi": 72,
      "time": 30.313,
      "duration": 0.104,
      "velocity": 0.71,
      "hand": "right"
    },
    {
      "midi": 48,
      "time": 30.417,
      "duration": 0.208,
      "velocity": 0.71,
      "hand": "left"
    },
    {
      "midi": 55,
      "time": 30.417,
      "duration": 0.208,
      "velocity": 0.71,
      "hand": "left"
    },
    {
      "midi": 64,
      "time": 30.417,
      "duration": 0.104,
      "velocity": 0.71,
      "hand": "right"
    },
    {
      "midi": 70,
      "time": 30.417,
      "duration": 0.104,
      "velocity": 0.71,
      "hand": "right"
    },
    {
      "midi": 74,
      "time": 30.521,
      "duration": 0.104,
      "velocity": 0.71,
      "hand": "right"
    },
    {
      "midi": 76,
      "time": 30.729,
      "duration": 0.104,
      "velocity": 0.71,
      "hand": "right"
    },
    {
      "midi": 41,
      "time": 30.833,
      "duration": 0.208,
      "velocity": 0.71,
      "hand": "left"
    },
    {
      "midi": 69,
      "time": 30.833,
      "duration": 0.104,
      "velocity": 0.71,
      "hand": "right"
    },
    {
      "midi": 78,
      "time": 30.938,
      "duration": 0.104,
      "velocity": 0.71,
      "hand": "right"
    },
    {
      "midi": 48,
      "time": 31.25,
      "duration": 0.208,
      "velocity": 0.71,
      "hand": "left"
    },
    {
      "midi": 57,
      "time": 31.25,
      "duration": 0.208,
      "velocity": 0.71,
      "hand": "left"
    },
    {
      "midi": 60,
      "time": 31.25,
      "duration": 0.208,
      "velocity": 0.71,
      "hand": "right"
    },
    {
      "midi": 72,
      "time": 31.25,
      "duration": 0.104,
      "velocity": 0.71,
      "hand": "right"
    },
    {
      "midi": 81,
      "time": 31.25,
      "duration": 0.104,
      "velocity": 0.71,
      "hand": "right"
    },
    {
      "midi": 77,
      "time": 31.458,
      "duration": 0.104,
      "velocity": 0.71,
      "hand": "right"
    },
    {
      "midi": 74,
      "time": 31.563,
      "duration": 0.104,
      "velocity": 0.71,
      "hand": "right"
    },
    {
      "midi": 36,
      "time": 31.667,
      "duration": 0.208,
      "velocity": 0.71,
      "hand": "left"
    },
    {
      "midi": 70,
      "time": 31.667,
      "duration": 0.104,
      "velocity": 0.71,
      "hand": "right"
    },
    {
      "midi": 72,
      "time": 31.979,
      "duration": 0.104,
      "velocity": 0.71,
      "hand": "right"
    },
    {
      "midi": 48,
      "time": 32.083,
      "duration": 0.208,
      "velocity": 0.71,
      "hand": "left"
    },
    {
      "midi": 55,
      "time": 32.083,
      "duration": 0.208,
      "velocity": 0.71,
      "hand": "left"
    },
    {
      "midi": 64,
      "time": 32.083,
      "duration": 0.104,
      "velocity": 0.71,
      "hand": "right"
    },
    {
      "midi": 70,
      "time": 32.083,
      "duration": 0.104,
      "velocity": 0.71,
      "hand": "right"
    },
    {
      "midi": 74,
      "time": 32.188,
      "duration": 0.104,
      "velocity": 0.71,
      "hand": "right"
    },
    {
      "midi": 76,
      "time": 32.396,
      "duration": 0.104,
      "velocity": 0.71,
      "hand": "right"
    },
    {
      "midi": 37,
      "time": 32.5,
      "duration": 0.208,
      "velocity": 0.71,
      "hand": "left"
    },
    {
      "midi": 65,
      "time": 32.5,
      "duration": 0.104,
      "velocity": 0.71,
      "hand": "right"
    },
    {
      "midi": 68,
      "time": 32.5,
      "duration": 0.104,
      "velocity": 0.71,
      "hand": "right"
    },
    {
      "midi": 78,
      "time": 32.604,
      "duration": 0.104,
      "velocity": 0.71,
      "hand": "right"
    },
    {
      "midi": 80,
      "time": 32.813,
      "duration": 0.104,
      "velocity": 0.71,
      "hand": "right"
    },
    {
      "midi": 49,
      "time": 32.917,
      "duration": 0.208,
      "velocity": 0.71,
      "hand": "left"
    },
    {
      "midi": 56,
      "time": 32.917,
      "duration": 0.208,
      "velocity": 0.71,
      "hand": "left"
    },
    {
      "midi": 71,
      "time": 32.917,
      "duration": 0.104,
      "velocity": 0.71,
      "hand": "right"
    },
    {
      "midi": 77,
      "time": 33.125,
      "duration": 0.104,
      "velocity": 0.71,
      "hand": "right"
    },
    {
      "midi": 38,
      "time": 33.333,
      "duration": 0.208,
      "velocity": 0.71,
      "hand": "left"
    },
    {
      "midi": 72,
      "time": 33.333,
      "duration": 0.104,
      "velocity": 0.71,
      "hand": "right"
    },
    {
      "midi": 75,
      "time": 33.333,
      "duration": 0.104,
      "velocity": 0.71,
      "hand": "right"
    },
    {
      "midi": 74,
      "time": 33.646,
      "duration": 0.104,
      "velocity": 0.71,
      "hand": "right"
    },
    {
      "midi": 50,
      "time": 33.75,
      "duration": 0.208,
      "velocity": 0.71,
      "hand": "left"
    },
    {
      "midi": 57,
      "time": 33.75,
      "duration": 0.208,
      "velocity": 0.71,
      "hand": "left"
    },
    {
      "midi": 66,
      "time": 33.75,
      "duration": 0.104,
      "velocity": 0.71,
      "hand": "right"
    },
    {
      "midi": 72,
      "time": 33.75,
      "duration": 0.104,
      "velocity": 0.71,
      "hand": "right"
    },
    {
      "midi": 76,
      "time": 33.854,
      "duration": 0.104,
      "velocity": 0.71,
      "hand": "right"
    },
    {
      "midi": 78,
      "time": 34.063,
      "duration": 0.104,
      "velocity": 0.71,
      "hand": "right"
    },
    {
      "midi": 43,
      "time": 34.167,
      "duration": 0.208,
      "velocity": 0.71,
      "hand": "left"
    },
    {
      "midi": 70,
      "time": 34.167,
      "duration": 0.104,
      "velocity": 0.71,
      "hand": "right"
    },
    {
      "midi": 80,
      "time": 34.271,
      "duration": 0.104,
      "velocity": 0.71,
      "hand": "right"
    },
    {
      "midi": 82,
      "time": 34.479,
      "duration": 0.104,
      "velocity": 0.71,
      "hand": "right"
    },
    {
      "midi": 50,
      "time": 34.583,
      "duration": 0.208,
      "velocity": 0.71,
      "hand": "left"
    },
    {
      "midi": 55,
      "time": 34.583,
      "duration": 0.208,
      "velocity": 0.71,
      "hand": "left"
    },
    {
      "midi": 74,
      "time": 34.583,
      "duration": 0.104,
      "velocity": 0.71,
      "hand": "right"
    },
    {
      "midi": 79,
      "time": 34.792,
      "duration": 0.104,
      "velocity": 0.71,
      "hand": "right"
    },
    {
      "midi": 75,
      "time": 34.896,
      "duration": 0.104,
      "velocity": 0.71,
      "hand": "right"
    },
    {
      "midi": 38,
      "time": 35,
      "duration": 0.208,
      "velocity": 0.71,
      "hand": "left"
    },
    {
      "midi": 72,
      "time": 35,
      "duration": 0.104,
      "velocity": 0.71,
      "hand": "right"
    },
    {
      "midi": 75,
      "time": 35.104,
      "duration": 0.104,
      "velocity": 0.71,
      "hand": "right"
    },
    {
      "midi": 74,
      "time": 35.313,
      "duration": 0.104,
      "velocity": 0.71,
      "hand": "right"
    },
    {
      "midi": 50,
      "time": 35.417,
      "duration": 0.208,
      "velocity": 0.71,
      "hand": "left"
    },
    {
      "midi": 57,
      "time": 35.417,
      "duration": 0.208,
      "velocity": 0.71,
      "hand": "left"
    },
    {
      "midi": 66,
      "time": 35.417,
      "duration": 0.104,
      "velocity": 0.71,
      "hand": "right"
    },
    {
      "midi": 72,
      "time": 35.417,
      "duration": 0.104,
      "velocity": 0.71,
      "hand": "right"
    },
    {
      "midi": 76,
      "time": 35.521,
      "duration": 0.104,
      "velocity": 0.71,
      "hand": "right"
    },
    {
      "midi": 78,
      "time": 35.729,
      "duration": 0.104,
      "velocity": 0.71,
      "hand": "right"
    },
    {
      "midi": 39,
      "time": 35.833,
      "duration": 0.208,
      "velocity": 0.71,
      "hand": "left"
    },
    {
      "midi": 67,
      "time": 35.833,
      "duration": 0.104,
      "velocity": 0.71,
      "hand": "right"
    },
    {
      "midi": 70,
      "time": 35.833,
      "duration": 0.104,
      "velocity": 0.71,
      "hand": "right"
    },
    {
      "midi": 80,
      "time": 35.938,
      "duration": 0.104,
      "velocity": 0.71,
      "hand": "right"
    },
    {
      "midi": 82,
      "time": 36.146,
      "duration": 0.104,
      "velocity": 0.71,
      "hand": "right"
    },
    {
      "midi": 51,
      "time": 36.25,
      "duration": 0.208,
      "velocity": 0.71,
      "hand": "left"
    },
    {
      "midi": 58,
      "time": 36.25,
      "duration": 0.208,
      "velocity": 0.71,
      "hand": "left"
    },
    {
      "midi": 61,
      "time": 36.25,
      "duration": 0.208,
      "velocity": 0.71,
      "hand": "right"
    },
    {
      "midi": 73,
      "time": 36.25,
      "duration": 0.104,
      "velocity": 0.71,
      "hand": "right"
    },
    {
      "midi": 79,
      "time": 36.458,
      "duration": 0.104,
      "velocity": 0.71,
      "hand": "right"
    },
    {
      "midi": 40,
      "time": 36.667,
      "duration": 0.208,
      "velocity": 0.71,
      "hand": "left"
    },
    {
      "midi": 74,
      "time": 36.667,
      "duration": 0.104,
      "velocity": 0.71,
      "hand": "right"
    },
    {
      "midi": 77,
      "time": 36.667,
      "duration": 0.104,
      "velocity": 0.71,
      "hand": "right"
    },
    {
      "midi": 76,
      "time": 36.979,
      "duration": 0.104,
      "velocity": 0.71,
      "hand": "right"
    },
    {
      "midi": 52,
      "time": 37.083,
      "duration": 0.208,
      "velocity": 0.71,
      "hand": "left"
    },
    {
      "midi": 59,
      "time": 37.083,
      "duration": 0.208,
      "velocity": 0.71,
      "hand": "left"
    },
    {
      "midi": 68,
      "time": 37.083,
      "duration": 0.104,
      "velocity": 0.71,
      "hand": "right"
    },
    {
      "midi": 74,
      "time": 37.083,
      "duration": 0.104,
      "velocity": 0.71,
      "hand": "right"
    },
    {
      "midi": 78,
      "time": 37.188,
      "duration": 0.104,
      "velocity": 0.71,
      "hand": "right"
    },
    {
      "midi": 80,
      "time": 37.396,
      "duration": 0.104,
      "velocity": 0.71,
      "hand": "right"
    },
    {
      "midi": 45,
      "time": 37.5,
      "duration": 0.208,
      "velocity": 0.71,
      "hand": "left"
    },
    {
      "midi": 72,
      "time": 37.5,
      "duration": 0.104,
      "velocity": 0.71,
      "hand": "right"
    },
    {
      "midi": 82,
      "time": 37.604,
      "duration": 0.104,
      "velocity": 0.71,
      "hand": "right"
    },
    {
      "midi": 84,
      "time": 37.813,
      "duration": 0.104,
      "velocity": 0.71,
      "hand": "right"
    },
    {
      "midi": 52,
      "time": 37.917,
      "duration": 0.208,
      "velocity": 0.71,
      "hand": "left"
    },
    {
      "midi": 57,
      "time": 37.917,
      "duration": 0.208,
      "velocity": 0.71,
      "hand": "left"
    },
    {
      "midi": 64,
      "time": 37.917,
      "duration": 0.208,
      "velocity": 0.71,
      "hand": "right"
    },
    {
      "midi": 76,
      "time": 37.917,
      "duration": 0.104,
      "velocity": 0.71,
      "hand": "right"
    },
    {
      "midi": 81,
      "time": 38.125,
      "duration": 0.104,
      "velocity": 0.71,
      "hand": "right"
    },
    {
      "midi": 40,
      "time": 38.333,
      "duration": 0.208,
      "velocity": 0.71,
      "hand": "left"
    },
    {
      "midi": 74,
      "time": 38.333,
      "duration": 0.104,
      "velocity": 0.71,
      "hand": "right"
    },
    {
      "midi": 79,
      "time": 38.333,
      "duration": 0.104,
      "velocity": 0.71,
      "hand": "right"
    },
    {
      "midi": 77,
      "time": 38.542,
      "duration": 0.104,
      "velocity": 0.71,
      "hand": "right"
    },
    {
      "midi": 52,
      "time": 38.75,
      "duration": 0.208,
      "velocity": 0.71,
      "hand": "left"
    },
    {
      "midi": 59,
      "time": 38.75,
      "duration": 0.208,
      "velocity": 0.71,
      "hand": "left"
    },
    {
      "midi": 68,
      "time": 38.75,
      "duration": 0.104,
      "velocity": 0.71,
      "hand": "right"
    },
    {
      "midi": 74,
      "time": 38.75,
      "duration": 0.104,
      "velocity": 0.71,
      "hand": "right"
    },
    {
      "midi": 78,
      "time": 38.854,
      "duration": 0.104,
      "velocity": 0.71,
      "hand": "right"
    },
    {
      "midi": 80,
      "time": 39.063,
      "duration": 0.104,
      "velocity": 0.71,
      "hand": "right"
    },
    {
      "midi": 45,
      "time": 39.167,
      "duration": 0.417,
      "velocity": 0.71,
      "hand": "left"
    },
    {
      "midi": 57,
      "time": 39.167,
      "duration": 0.417,
      "velocity": 0.71,
      "hand": "left"
    },
    {
      "midi": 72,
      "time": 39.167,
      "duration": 0.104,
      "velocity": 0.71,
      "hand": "right"
    },
    {
      "midi": 82,
      "time": 39.271,
      "duration": 0.104,
      "velocity": 0.71,
      "hand": "right"
    },
    {
      "midi": 84,
      "time": 39.479,
      "duration": 0.104,
      "velocity": 0.71,
      "hand": "right"
    },
    {
      "midi": 43,
      "time": 39.583,
      "duration": 0.417,
      "velocity": 0.71,
      "hand": "left"
    },
    {
      "midi": 55,
      "time": 39.583,
      "duration": 0.417,
      "velocity": 0.71,
      "hand": "left"
    },
    {
      "midi": 76,
      "time": 39.583,
      "duration": 0.104,
      "velocity": 0.71,
      "hand": "right"
    },
    {
      "midi": 81,
      "time": 39.583,
      "duration": 0.104,
      "velocity": 0.71,
      "hand": "right"
    },
    {
      "midi": 74,
      "time": 39.688,
      "duration": 0.104,
      "velocity": 0.71,
      "hand": "right"
    },
    {
      "midi": 41,
      "time": 40,
      "duration": 0.417,
      "velocity": 0.71,
      "hand": "left"
    },
    {
      "midi": 53,
      "time": 40,
      "duration": 0.417,
      "velocity": 0.71,
      "hand": "left"
    },
    {
      "midi": 77,
      "time": 40,
      "duration": 0.104,
      "velocity": 0.71,
      "hand": "right"
    },
    {
      "midi": 81,
      "time": 40,
      "duration": 0.104,
      "velocity": 0.71,
      "hand": "right"
    },
    {
      "midi": 75,
      "time": 40.208,
      "duration": 0.104,
      "velocity": 0.71,
      "hand": "right"
    },
    {
      "midi": 47,
      "time": 40.417,
      "duration": 0.833,
      "velocity": 0.71,
      "hand": "left"
    },
    {
      "midi": 59,
      "time": 40.417,
      "duration": 0.833,
      "velocity": 0.71,
      "hand": "left"
    },
    {
      "midi": 73,
      "time": 40.417,
      "duration": 0.104,
      "velocity": 0.71,
      "hand": "right"
    },
    {
      "midi": 77,
      "time": 40.417,
      "duration": 0.104,
      "velocity": 0.71,
      "hand": "right"
    },
    {
      "midi": 81,
      "time": 40.417,
      "duration": 0.104,
      "velocity": 0.71,
      "hand": "right"
    },
    {
      "midi": 84,
      "time": 40.521,
      "duration": 0.104,
      "velocity": 0.71,
      "hand": "right"
    },
    {
      "midi": 83,
      "time": 40.625,
      "duration": 0.104,
      "velocity": 0.71,
      "hand": "right"
    },
    {
      "midi": 74,
      "time": 40.833,
      "duration": 0.104,
      "velocity": 0.71,
      "hand": "right"
    },
    {
      "midi": 77,
      "time": 40.833,
      "duration": 0.104,
      "velocity": 0.71,
      "hand": "right"
    },
    {
      "midi": 81,
      "time": 40.833,
      "duration": 0.104,
      "velocity": 0.71,
      "hand": "right"
    },
    {
      "midi": 79,
      "time": 41.042,
      "duration": 0.104,
      "velocity": 0.71,
      "hand": "right"
    },
    {
      "midi": 52,
      "time": 41.25,
      "duration": 0.417,
      "velocity": 0.71,
      "hand": "left"
    },
    {
      "midi": 68,
      "time": 41.25,
      "duration": 0.104,
      "velocity": 0.71,
      "hand": "right"
    },
    {
      "midi": 74,
      "time": 41.25,
      "duration": 0.104,
      "velocity": 0.71,
      "hand": "right"
    },
    {
      "midi": 77,
      "time": 41.25,
      "duration": 0.104,
      "velocity": 0.71,
      "hand": "right"
    },
    {
      "midi": 76,
      "time": 41.563,
      "duration": 0.104,
      "velocity": 0.71,
      "hand": "right"
    },
    {
      "midi": 39,
      "time": 41.667,
      "duration": 0.417,
      "velocity": 0.71,
      "hand": "left"
    },
    {
      "midi": 51,
      "time": 41.667,
      "duration": 0.417,
      "velocity": 0.71,
      "hand": "left"
    },
    {
      "midi": 79,
      "time": 41.667,
      "duration": 0.104,
      "velocity": 0.71,
      "hand": "right"
    },
    {
      "midi": 73,
      "time": 41.875,
      "duration": 0.104,
      "velocity": 0.71,
      "hand": "right"
    },
    {
      "midi": 84,
      "time": 41.979,
      "duration": 0.104,
      "velocity": 0.71,
      "hand": "right"
    },
    {
      "midi": 45,
      "time": 42.083,
      "duration": 0.833,
      "velocity": 0.71,
      "hand": "left"
    },
    {
      "midi": 57,
      "time": 42.083,
      "duration": 0.833,
      "velocity": 0.71,
      "hand": "left"
    },
    {
      "midi": 75,
      "time": 42.083,
      "duration": 0.104,
      "velocity": 0.71,
      "hand": "right"
    },
    {
      "midi": 79,
      "time": 42.083,
      "duration": 0.104,
      "velocity": 0.71,
      "hand": "right"
    },
    {
      "midi": 83,
      "time": 42.083,
      "duration": 0.104,
      "velocity": 0.71,
      "hand": "right"
    },
    {
      "midi": 81,
      "time": 42.292,
      "duration": 0.104,
      "velocity": 0.71,
      "hand": "right"
    },
    {
      "midi": 72,
      "time": 42.5,
      "duration": 0.104,
      "velocity": 0.71,
      "hand": "right"
    },
    {
      "midi": 75,
      "time": 42.5,
      "duration": 0.104,
      "velocity": 0.71,
      "hand": "right"
    },
    {
      "midi": 79,
      "time": 42.5,
      "duration": 0.104,
      "velocity": 0.71,
      "hand": "right"
    },
    {
      "midi": 77,
      "time": 42.708,
      "duration": 0.104,
      "velocity": 0.71,
      "hand": "right"
    },
    {
      "midi": 50,
      "time": 42.917,
      "duration": 0.417,
      "velocity": 0.71,
      "hand": "left"
    },
    {
      "midi": 66,
      "time": 42.917,
      "duration": 0.104,
      "velocity": 0.71,
      "hand": "right"
    },
    {
      "midi": 72,
      "time": 42.917,
      "duration": 0.104,
      "velocity": 0.71,
      "hand": "right"
    },
    {
      "midi": 75,
      "time": 42.917,
      "duration": 0.104,
      "velocity": 0.71,
      "hand": "right"
    },
    {
      "midi": 74,
      "time": 43.229,
      "duration": 0.089,
      "velocity": 0.71,
      "hand": "right"
    },
    {
      "midi": 43,
      "time": 43.333,
      "duration": 0.417,
      "velocity": 0.71,
      "hand": "left"
    },
    {
      "midi": 55,
      "time": 43.333,
      "duration": 0.417,
      "velocity": 0.71,
      "hand": "left"
    },
    {
      "midi": 74,
      "time": 43.333,
      "duration": 0.104,
      "velocity": 0.71,
      "hand": "right"
    },
    {
      "midi": 79,
      "time": 43.333,
      "duration": 0.104,
      "velocity": 0.71,
      "hand": "right"
    },
    {
      "midi": 82,
      "time": 43.333,
      "duration": 0.104,
      "velocity": 0.71,
      "hand": "right"
    },
    {
      "midi": 84,
      "time": 43.542,
      "duration": 0.104,
      "velocity": 0.71,
      "hand": "right"
    },
    {
      "midi": 51,
      "time": 43.75,
      "duration": 0.417,
      "velocity": 0.71,
      "hand": "left"
    },
    {
      "midi": 73,
      "time": 43.75,
      "duration": 0.104,
      "velocity": 0.71,
      "hand": "right"
    },
    {
      "midi": 79,
      "time": 43.75,
      "duration": 0.104,
      "velocity": 0.71,
      "hand": "right"
    },
    {
      "midi": 82,
      "time": 43.75,
      "duration": 0.104,
      "velocity": 0.71,
      "hand": "right"
    },
    {
      "midi": 80,
      "time": 43.958,
      "duration": 0.104,
      "velocity": 0.71,
      "hand": "right"
    },
    {
      "midi": 50,
      "time": 44.167,
      "duration": 0.208,
      "velocity": 0.71,
      "hand": "left"
    },
    {
      "midi": 69,
      "time": 44.167,
      "duration": 0.104,
      "velocity": 0.71,
      "hand": "right"
    },
    {
      "midi": 74,
      "time": 44.167,
      "duration": 0.104,
      "velocity": 0.71,
      "hand": "right"
    },
    {
      "midi": 79,
      "time": 44.271,
      "duration": 0.104,
      "velocity": 0.71,
      "hand": "right"
    },
    {
      "midi": 81,
      "time": 44.479,
      "duration": 0.104,
      "velocity": 0.71,
      "hand": "right"
    },
    {
      "midi": 45,
      "time": 44.583,
      "duration": 0.417,
      "velocity": 0.71,
      "hand": "left"
    },
    {
      "midi": 57,
      "time": 44.583,
      "duration": 0.417,
      "velocity": 0.71,
      "hand": "left"
    },
    {
      "midi": 72,
      "time": 44.583,
      "duration": 0.104,
      "velocity": 0.71,
      "hand": "right"
    },
    {
      "midi": 77,
      "time": 44.583,
      "duration": 0.104,
      "velocity": 0.71,
      "hand": "right"
    },
    {
      "midi": 84,
      "time": 44.792,
      "duration": 0.104,
      "velocity": 0.71,
      "hand": "right"
    },
    {
      "midi": 41,
      "time": 45,
      "duration": 0.208,
      "velocity": 0.71,
      "hand": "left"
    },
    {
      "midi": 53,
      "time": 45,
      "duration": 0.208,
      "velocity": 0.71,
      "hand": "left"
    },
    {
      "midi": 74,
      "time": 45,
      "duration": 0.104,
      "velocity": 0.71,
      "hand": "right"
    },
    {
      "midi": 77,
      "time": 45,
      "duration": 0.104,
      "velocity": 0.71,
      "hand": "right"
    },
    {
      "midi": 81,
      "time": 45,
      "duration": 0.104,
      "velocity": 0.71,
      "hand": "right"
    },
    {
      "midi": 84,
      "time": 45.104,
      "duration": 0.104,
      "velocity": 0.71,
      "hand": "right"
    },
    {
      "midi": 82,
      "time": 45.208,
      "duration": 0.104,
      "velocity": 0.71,
      "hand": "right"
    },
    {
      "midi": 49,
      "time": 45.417,
      "duration": 0.417,
      "velocity": 0.71,
      "hand": "left"
    },
    {
      "midi": 71,
      "time": 45.417,
      "duration": 0.104,
      "velocity": 0.71,
      "hand": "right"
    },
    {
      "midi": 77,
      "time": 45.417,
      "duration": 0.104,
      "velocity": 0.71,
      "hand": "right"
    },
    {
      "midi": 80,
      "time": 45.417,
      "duration": 0.104,
      "velocity": 0.71,
      "hand": "right"
    },
    {
      "midi": 78,
      "time": 45.625,
      "duration": 0.104,
      "velocity": 0.71,
      "hand": "right"
    },
    {
      "midi": 48,
      "time": 45.833,
      "duration": 0.208,
      "velocity": 0.71,
      "hand": "left"
    },
    {
      "midi": 67,
      "time": 45.833,
      "duration": 0.104,
      "velocity": 0.71,
      "hand": "right"
    },
    {
      "midi": 72,
      "time": 45.833,
      "duration": 0.104,
      "velocity": 0.71,
      "hand": "right"
    },
    {
      "midi": 77,
      "time": 45.938,
      "duration": 0.104,
      "velocity": 0.71,
      "hand": "right"
    },
    {
      "midi": 79,
      "time": 46.146,
      "duration": 0.104,
      "velocity": 0.71,
      "hand": "right"
    },
    {
      "midi": 43,
      "time": 46.25,
      "duration": 0.417,
      "velocity": 0.71,
      "hand": "left"
    },
    {
      "midi": 55,
      "time": 46.25,
      "duration": 0.417,
      "velocity": 0.71,
      "hand": "left"
    },
    {
      "midi": 70,
      "time": 46.25,
      "duration": 0.104,
      "velocity": 0.71,
      "hand": "right"
    },
    {
      "midi": 75,
      "time": 46.25,
      "duration": 0.104,
      "velocity": 0.71,
      "hand": "right"
    },
    {
      "midi": 82,
      "time": 46.458,
      "duration": 0.104,
      "velocity": 0.71,
      "hand": "right"
    },
    {
      "midi": 39,
      "time": 46.667,
      "duration": 0.208,
      "velocity": 0.71,
      "hand": "left"
    },
    {
      "midi": 51,
      "time": 46.667,
      "duration": 0.208,
      "velocity": 0.71,
      "hand": "left"
    },
    {
      "midi": 75,
      "time": 46.667,
      "duration": 0.104,
      "velocity": 0.71,
      "hand": "right"
    },
    {
      "midi": 79,
      "time": 46.667,
      "duration": 0.104,
      "velocity": 0.71,
      "hand": "right"
    },
    {
      "midi": 84,
      "time": 46.667,
      "duration": 0.104,
      "velocity": 0.71,
      "hand": "right"
    },
    {
      "midi": 82,
      "time": 46.771,
      "duration": 0.104,
      "velocity": 0.71,
      "hand": "right"
    },
    {
      "midi": 81,
      "time": 46.875,
      "duration": 0.104,
      "velocity": 0.71,
      "hand": "right"
    },
    {
      "midi": 51,
      "time": 47.083,
      "duration": 0.819,
      "velocity": 0.71,
      "hand": "left"
    },
    {
      "midi": 70,
      "time": 47.083,
      "duration": 0.104,
      "velocity": 0.71,
      "hand": "right"
    },
    {
      "midi": 75,
      "time": 47.083,
      "duration": 0.104,
      "velocity": 0.71,
      "hand": "right"
    },
    {
      "midi": 79,
      "time": 47.083,
      "duration": 0.104,
      "velocity": 0.71,
      "hand": "right"
    },
    {
      "midi": 77,
      "time": 47.292,
      "duration": 0.104,
      "velocity": 0.71,
      "hand": "right"
    },
    {
      "midi": 67,
      "time": 47.5,
      "duration": 0.104,
      "velocity": 0.71,
      "hand": "right"
    },
    {
      "midi": 70,
      "time": 47.5,
      "duration": 0.104,
      "velocity": 0.71,
      "hand": "right"
    },
    {
      "midi": 75,
      "time": 47.5,
      "duration": 0.104,
      "velocity": 0.71,
      "hand": "right"
    },
    {
      "midi": 73,
      "time": 47.708,
      "duration": 0.104,
      "velocity": 0.71,
      "hand": "right"
    },
    {
      "midi": 39,
      "time": 47.917,
      "duration": 0.417,
      "velocity": 0.71,
      "hand": "left"
    },
    {
      "midi": 51,
      "time": 47.917,
      "duration": 0.417,
      "velocity": 0.71,
      "hand": "left"
    },
    {
      "midi": 61,
      "time": 47.917,
      "duration": 0.104,
      "velocity": 0.71,
      "hand": "right"
    },
    {
      "midi": 67,
      "time": 47.917,
      "duration": 0.104,
      "velocity": 0.71,
      "hand": "right"
    },
    {
      "midi": 70,
      "time": 47.917,
      "duration": 0.104,
      "velocity": 0.71,
      "hand": "right"
    },
    {
      "midi": 68,
      "time": 48.125,
      "duration": 0.104,
      "velocity": 0.71,
      "hand": "right"
    },
    {
      "midi": 38,
      "time": 48.333,
      "duration": 0.208,
      "velocity": 0.71,
      "hand": "left"
    },
    {
      "midi": 50,
      "time": 48.333,
      "duration": 0.208,
      "velocity": 0.71,
      "hand": "left"
    },
    {
      "midi": 62,
      "time": 48.333,
      "duration": 0.104,
      "velocity": 0.71,
      "hand": "right"
    },
    {
      "midi": 67,
      "time": 48.438,
      "duration": 0.104,
      "velocity": 0.71,
      "hand": "right"
    },
    {
      "midi": 39,
      "time": 48.75,
      "duration": 0.417,
      "velocity": 0.71,
      "hand": "left"
    },
    {
      "midi": 45,
      "time": 48.75,
      "duration": 0.417,
      "velocity": 0.71,
      "hand": "left"
    },
    {
      "midi": 61,
      "time": 48.75,
      "duration": 0.104,
      "velocity": 0.71,
      "hand": "right"
    },
    {
      "midi": 67,
      "time": 48.75,
      "duration": 0.104,
      "velocity": 0.71,
      "hand": "right"
    },
    {
      "midi": 70,
      "time": 48.75,
      "duration": 0.104,
      "velocity": 0.71,
      "hand": "right"
    },
    {
      "midi": 68,
      "time": 48.958,
      "duration": 0.104,
      "velocity": 0.71,
      "hand": "right"
    },
    {
      "midi": 38,
      "time": 49.167,
      "duration": 0.208,
      "velocity": 0.71,
      "hand": "left"
    },
    {
      "midi": 50,
      "time": 49.167,
      "duration": 0.208,
      "velocity": 0.71,
      "hand": "left"
    },
    {
      "midi": 62,
      "time": 49.167,
      "duration": 0.104,
      "velocity": 0.71,
      "hand": "right"
    },
    {
      "midi": 67,
      "time": 49.271,
      "duration": 0.104,
      "velocity": 0.71,
      "hand": "right"
    },
    {
      "midi": 39,
      "time": 49.583,
      "duration": 0.417,
      "velocity": 0.71,
      "hand": "left"
    },
    {
      "midi": 45,
      "time": 49.583,
      "duration": 0.417,
      "velocity": 0.71,
      "hand": "left"
    },
    {
      "midi": 61,
      "time": 49.583,
      "duration": 0.104,
      "velocity": 0.71,
      "hand": "right"
    },
    {
      "midi": 67,
      "time": 49.583,
      "duration": 0.104,
      "velocity": 0.71,
      "hand": "right"
    },
    {
      "midi": 70,
      "time": 49.583,
      "duration": 0.104,
      "velocity": 0.71,
      "hand": "right"
    },
    {
      "midi": 68,
      "time": 49.792,
      "duration": 0.104,
      "velocity": 0.71,
      "hand": "right"
    },
    {
      "midi": 38,
      "time": 50,
      "duration": 0.208,
      "velocity": 0.71,
      "hand": "left"
    },
    {
      "midi": 50,
      "time": 50,
      "duration": 0.208,
      "velocity": 0.71,
      "hand": "left"
    },
    {
      "midi": 62,
      "time": 50,
      "duration": 0.104,
      "velocity": 0.71,
      "hand": "right"
    },
    {
      "midi": 67,
      "time": 50.104,
      "duration": 0.104,
      "velocity": 0.71,
      "hand": "right"
    },
    {
      "midi": 69,
      "time": 50.313,
      "duration": 0.104,
      "velocity": 0.71,
      "hand": "right"
    },
    {
      "midi": 41,
      "time": 50.417,
      "duration": 0.417,
      "velocity": 0.71,
      "hand": "left"
    },
    {
      "midi": 47,
      "time": 50.417,
      "duration": 0.417,
      "velocity": 0.71,
      "hand": "left"
    },
    {
      "midi": 63,
      "time": 50.417,
      "duration": 0.104,
      "velocity": 0.71,
      "hand": "right"
    },
    {
      "midi": 72,
      "time": 50.417,
      "duration": 0.104,
      "velocity": 0.71,
      "hand": "right"
    },
    {
      "midi": 70,
      "time": 50.625,
      "duration": 0.104,
      "velocity": 0.71,
      "hand": "right"
    },
    {
      "midi": 40,
      "time": 50.833,
      "duration": 0.208,
      "velocity": 0.71,
      "hand": "left"
    },
    {
      "midi": 52,
      "time": 50.833,
      "duration": 0.208,
      "velocity": 0.71,
      "hand": "left"
    },
    {
      "midi": 64,
      "time": 50.833,
      "duration": 0.104,
      "velocity": 0.71,
      "hand": "right"
    },
    {
      "midi": 69,
      "time": 50.938,
      "duration": 0.104,
      "velocity": 0.71,
      "hand": "right"
    },
    {
      "midi": 41,
      "time": 51.25,
      "duration": 0.417,
      "velocity": 0.71,
      "hand": "left"
    },
    {
      "midi": 47,
      "time": 51.25,
      "duration": 0.417,
      "velocity": 0.71,
      "hand": "left"
    },
    {
      "midi": 63,
      "time": 51.25,
      "duration": 0.104,
      "velocity": 0.71,
      "hand": "right"
    },
    {
      "midi": 69,
      "time": 51.25,
      "duration": 0.104,
      "velocity": 0.71,
      "hand": "right"
    },
    {
      "midi": 72,
      "time": 51.25,
      "duration": 0.104,
      "velocity": 0.71,
      "hand": "right"
    },
    {
      "midi": 70,
      "time": 51.458,
      "duration": 0.104,
      "velocity": 0.71,
      "hand": "right"
    },
    {
      "midi": 40,
      "time": 51.667,
      "duration": 6.667,
      "velocity": 0.71,
      "hand": "left"
    },
    {
      "midi": 52,
      "time": 51.667,
      "duration": 6.667,
      "velocity": 0.71,
      "hand": "left"
    },
    {
      "midi": 64,
      "time": 51.667,
      "duration": 0.208,
      "velocity": 0.71,
      "hand": "right"
    },
    {
      "midi": 68,
      "time": 51.667,
      "duration": 0.208,
      "velocity": 0.71,
      "hand": "right"
    },
    {
      "midi": 80,
      "time": 52.083,
      "duration": 0.104,
      "velocity": 0.71,
      "hand": "right"
    },
    {
      "midi": 83,
      "time": 52.083,
      "duration": 0.104,
      "velocity": 0.71,
      "hand": "right"
    },
    {
      "midi": 77,
      "time": 52.188,
      "duration": 0.104,
      "velocity": 0.71,
      "hand": "right"
    },
    {
      "midi": 74,
      "time": 52.292,
      "duration": 0.104,
      "velocity": 0.71,
      "hand": "right"
    },
    {
      "midi": 76,
      "time": 52.396,
      "duration": 0.089,
      "velocity": 0.71,
      "hand": "right"
    },
    {
      "midi": 76,
      "time": 52.5,
      "duration": 0.104,
      "velocity": 0.71,
      "hand": "right"
    },
    {
      "midi": 81,
      "time": 52.5,
      "duration": 0.104,
      "velocity": 0.71,
      "hand": "right"
    },
    {
      "midi": 84,
      "time": 52.5,
      "duration": 0.104,
      "velocity": 0.71,
      "hand": "right"
    },
    {
      "midi": 74,
      "time": 52.604,
      "duration": 0.104,
      "velocity": 0.71,
      "hand": "right"
    },
    {
      "midi": 84,
      "time": 52.813,
      "duration": 0.104,
      "velocity": 0.71,
      "hand": "right"
    },
    {
      "midi": 72,
      "time": 52.917,
      "duration": 0.104,
      "velocity": 0.71,
      "hand": "right"
    },
    {
      "midi": 76,
      "time": 52.917,
      "duration": 0.104,
      "velocity": 0.71,
      "hand": "right"
    },
    {
      "midi": 81,
      "time": 52.917,
      "duration": 0.104,
      "velocity": 0.71,
      "hand": "right"
    },
    {
      "midi": 83,
      "time": 53.021,
      "duration": 0.104,
      "velocity": 0.71,
      "hand": "right"
    },
    {
      "midi": 79,
      "time": 53.125,
      "duration": 0.104,
      "velocity": 0.71,
      "hand": "right"
    },
    {
      "midi": 81,
      "time": 53.229,
      "duration": 0.104,
      "velocity": 0.71,
      "hand": "right"
    },
    {
      "midi": 69,
      "time": 53.333,
      "duration": 0.104,
      "velocity": 0.71,
      "hand": "right"
    },
    {
      "midi": 72,
      "time": 53.333,
      "duration": 0.104,
      "velocity": 0.71,
      "hand": "right"
    },
    {
      "midi": 77,
      "time": 53.333,
      "duration": 0.104,
      "velocity": 0.71,
      "hand": "right"
    },
    {
      "midi": 79,
      "time": 53.438,
      "duration": 0.104,
      "velocity": 0.71,
      "hand": "right"
    },
    {
      "midi": 77,
      "time": 53.646,
      "duration": 0.208,
      "velocity": 0.71,
      "hand": "right"
    },
    {
      "midi": 74,
      "time": 53.75,
      "duration": 0.104,
      "velocity": 0.71,
      "hand": "right"
    },
    {
      "midi": 81,
      "time": 53.75,
      "duration": 0.104,
      "velocity": 0.71,
      "hand": "right"
    },
    {
      "midi": 76,
      "time": 53.854,
      "duration": 0.104,
      "velocity": 0.71,
      "hand": "right"
    },
    {
      "midi": 84,
      "time": 53.958,
      "duration": 0.104,
      "velocity": 0.71,
      "hand": "right"
    },
    {
      "midi": 74,
      "time": 54.063,
      "duration": 0.089,
      "velocity": 0.71,
      "hand": "right"
    },
    {
      "midi": 74,
      "time": 54.167,
      "duration": 0.104,
      "velocity": 0.71,
      "hand": "right"
    },
    {
      "midi": 77,
      "time": 54.167,
      "duration": 0.104,
      "velocity": 0.71,
      "hand": "right"
    },
    {
      "midi": 84,
      "time": 54.271,
      "duration": 0.104,
      "velocity": 0.71,
      "hand": "right"
    },
    {
      "midi": 81,
      "time": 54.375,
      "duration": 0.104,
      "velocity": 0.71,
      "hand": "right"
    },
    {
      "midi": 83,
      "time": 54.479,
      "duration": 0.104,
      "velocity": 0.71,
      "hand": "right"
    },
    {
      "midi": 71,
      "time": 54.583,
      "duration": 0.104,
      "velocity": 0.71,
      "hand": "right"
    },
    {
      "midi": 74,
      "time": 54.583,
      "duration": 0.104,
      "velocity": 0.71,
      "hand": "right"
    },
    {
      "midi": 81,
      "time": 54.688,
      "duration": 0.104,
      "velocity": 0.71,
      "hand": "right"
    },
    {
      "midi": 77,
      "time": 54.792,
      "duration": 0.104,
      "velocity": 0.71,
      "hand": "right"
    },
    {
      "midi": 79,
      "time": 54.896,
      "duration": 0.104,
      "velocity": 0.71,
      "hand": "right"
    },
    {
      "midi": 68,
      "time": 55,
      "duration": 0.104,
      "velocity": 0.71,
      "hand": "right"
    },
    {
      "midi": 71,
      "time": 55,
      "duration": 0.104,
      "velocity": 0.71,
      "hand": "right"
    },
    {
      "midi": 77,
      "time": 55.104,
      "duration": 0.104,
      "velocity": 0.71,
      "hand": "right"
    },
    {
      "midi": 76,
      "time": 55.313,
      "duration": 0.208,
      "velocity": 0.71,
      "hand": "right"
    },
    {
      "midi": 81,
      "time": 55.417,
      "duration": 0.104,
      "velocity": 0.71,
      "hand": "right"
    },
    {
      "midi": 84,
      "time": 55.417,
      "duration": 0.104,
      "velocity": 0.71,
      "hand": "right"
    },
    {
      "midi": 74,
      "time": 55.521,
      "duration": 0.104,
      "velocity": 0.71,
      "hand": "right"
    },
    {
      "midi": 84,
      "time": 55.729,
      "duration": 0.104,
      "velocity": 0.71,
      "hand": "right"
    },
    {
      "midi": 72,
      "time": 55.833,
      "duration": 0.104,
      "velocity": 0.71,
      "hand": "right"
    },
    {
      "midi": 76,
      "time": 55.833,
      "duration": 0.104,
      "velocity": 0.71,
      "hand": "right"
    },
    {
      "midi": 81,
      "time": 55.833,
      "duration": 0.104,
      "velocity": 0.71,
      "hand": "right"
    },
    {
      "midi": 83,
      "time": 55.938,
      "duration": 0.104,
      "velocity": 0.71,
      "hand": "right"
    },
    {
      "midi": 79,
      "time": 56.042,
      "duration": 0.104,
      "velocity": 0.71,
      "hand": "right"
    },
    {
      "midi": 81,
      "time": 56.146,
      "duration": 0.104,
      "velocity": 0.71,
      "hand": "right"
    },
    {
      "midi": 69,
      "time": 56.25,
      "duration": 0.104,
      "velocity": 0.71,
      "hand": "right"
    },
    {
      "midi": 72,
      "time": 56.25,
      "duration": 0.104,
      "velocity": 0.71,
      "hand": "right"
    },
    {
      "midi": 77,
      "time": 56.25,
      "duration": 0.104,
      "velocity": 0.71,
      "hand": "right"
    },
    {
      "midi": 79,
      "time": 56.354,
      "duration": 0.104,
      "velocity": 0.71,
      "hand": "right"
    },
    {
      "midi": 77,
      "time": 56.563,
      "duration": 0.104,
      "velocity": 0.71,
      "hand": "right"
    },
    {
      "midi": 65,
      "time": 56.667,
      "duration": 0.104,
      "velocity": 0.71,
      "hand": "right"
    },
    {
      "midi": 69,
      "time": 56.667,
      "duration": 0.104,
      "velocity": 0.71,
      "hand": "right"
    },
    {
      "midi": 74,
      "time": 56.667,
      "duration": 0.104,
      "velocity": 0.71,
      "hand": "right"
    },
    {
      "midi": 76,
      "time": 56.771,
      "duration": 0.104,
      "velocity": 0.71,
      "hand": "right"
    },
    {
      "midi": 72,
      "time": 56.875,
      "duration": 0.104,
      "velocity": 0.71,
      "hand": "right"
    },
    {
      "midi": 74,
      "time": 56.979,
      "duration": 0.104,
      "velocity": 0.71,
      "hand": "right"
    },
    {
      "midi": 62,
      "time": 57.083,
      "duration": 0.104,
      "velocity": 0.71,
      "hand": "right"
    },
    {
      "midi": 65,
      "time": 57.083,
      "duration": 0.104,
      "velocity": 0.71,
      "hand": "right"
    },
    {
      "midi": 72,
      "time": 57.188,
      "duration": 0.104,
      "velocity": 0.71,
      "hand": "right"
    },
    {
      "midi": 69,
      "time": 57.292,
      "duration": 0.104,
      "velocity": 0.71,
      "hand": "right"
    },
    {
      "midi": 71,
      "time": 57.396,
      "duration": 0.104,
      "velocity": 0.71,
      "hand": "right"
    },
    {
      "midi": 59,
      "time": 57.5,
      "duration": 0.104,
      "velocity": 0.71,
      "hand": "left"
    },
    {
      "midi": 62,
      "time": 57.5,
      "duration": 0.104,
      "velocity": 0.71,
      "hand": "right"
    },
    {
      "midi": 68,
      "time": 57.5,
      "duration": 0.104,
      "velocity": 0.71,
      "hand": "right"
    },
    {
      "midi": 65,
      "time": 57.604,
      "duration": 0.104,
      "velocity": 0.71,
      "hand": "right"
    },
    {
      "midi": 64,
      "time": 57.813,
      "duration": 0.104,
      "velocity": 0.71,
      "hand": "right"
    },
    {
      "midi": 66,
      "time": 58.021,
      "duration": 0.104,
      "velocity": 0.71,
      "hand": "right"
    },
    {
      "midi": 68,
      "time": 58.229,
      "duration": 0.104,
      "velocity": 0.71,
      "hand": "right"
    },
    {
      "midi": 45,
      "time": 58.333,
      "duration": 0.208,
      "velocity": 0.71,
      "hand": "left"
    },
    {
      "midi": 60,
      "time": 58.333,
      "duration": 0.104,
      "velocity": 0.71,
      "hand": "right"
    },
    {
      "midi": 64,
      "time": 58.333,
      "duration": 0.104,
      "velocity": 0.71,
      "hand": "right"
    },
    {
      "midi": 70,
      "time": 58.438,
      "duration": 0.104,
      "velocity": 0.71,
      "hand": "right"
    },
    {
      "midi": 72,
      "time": 58.646,
      "duration": 0.104,
      "velocity": 0.71,
      "hand": "right"
    },
    {
      "midi": 52,
      "time": 58.75,
      "duration": 0.208,
      "velocity": 0.71,
      "hand": "left"
    },
    {
      "midi": 57,
      "time": 58.75,
      "duration": 0.208,
      "velocity": 0.71,
      "hand": "left"
    },
    {
      "midi": 64,
      "time": 58.75,
      "duration": 0.104,
      "velocity": 0.71,
      "hand": "right"
    },
    {
      "midi": 69,
      "time": 58.75,
      "duration": 0.104,
      "velocity": 0.71,
      "hand": "right"
    },
    {
      "midi": 74,
      "time": 58.854,
      "duration": 0.104,
      "velocity": 0.71,
      "hand": "right"
    },
    {
      "midi": 76,
      "time": 59.063,
      "duration": 0.104,
      "velocity": 0.71,
      "hand": "right"
    },
    {
      "midi": 45,
      "time": 59.167,
      "duration": 0.208,
      "velocity": 0.71,
      "hand": "left"
    },
    {
      "midi": 69,
      "time": 59.167,
      "duration": 0.104,
      "velocity": 0.71,
      "hand": "right"
    },
    {
      "midi": 74,
      "time": 59.167,
      "duration": 0.104,
      "velocity": 0.71,
      "hand": "right"
    },
    {
      "midi": 78,
      "time": 59.271,
      "duration": 0.104,
      "velocity": 0.71,
      "hand": "right"
    },
    {
      "midi": 80,
      "time": 59.479,
      "duration": 0.104,
      "velocity": 0.71,
      "hand": "right"
    },
    {
      "midi": 53,
      "time": 59.583,
      "duration": 0.208,
      "velocity": 0.71,
      "hand": "left"
    },
    {
      "midi": 57,
      "time": 59.583,
      "duration": 0.208,
      "velocity": 0.71,
      "hand": "left"
    },
    {
      "midi": 74,
      "time": 59.583,
      "duration": 0.104,
      "velocity": 0.71,
      "hand": "right"
    },
    {
      "midi": 77,
      "time": 59.583,
      "duration": 0.104,
      "velocity": 0.71,
      "hand": "right"
    },
    {
      "midi": 82,
      "time": 59.688,
      "duration": 0.104,
      "velocity": 0.71,
      "hand": "right"
    },
    {
      "midi": 84,
      "time": 59.896,
      "duration": 0.104,
      "velocity": 0.71,
      "hand": "right"
    },
    {
      "midi": 45,
      "time": 60,
      "duration": 0.208,
      "velocity": 0.71,
      "hand": "left"
    },
    {
      "midi": 76,
      "time": 60,
      "duration": 0.104,
      "velocity": 0.71,
      "hand": "right"
    },
    {
      "midi": 81,
      "time": 60,
      "duration": 0.104,
      "velocity": 0.71,
      "hand": "right"
    },
    {
      "midi": 74,
      "time": 60.104,
      "duration": 0.104,
      "velocity": 0.71,
      "hand": "right"
    },
    {
      "midi": 52,
      "time": 60.417,
      "duration": 0.208,
      "velocity": 0.71,
      "hand": "left"
    },
    {
      "midi": 57,
      "time": 60.417,
      "duration": 0.208,
      "velocity": 0.71,
      "hand": "left"
    },
    {
      "midi": 77,
      "time": 60.417,
      "duration": 0.104,
      "velocity": 0.71,
      "hand": "right"
    },
    {
      "midi": 81,
      "time": 60.417,
      "duration": 0.104,
      "velocity": 0.71,
      "hand": "right"
    },
    {
      "midi": 84,
      "time": 60.417,
      "duration": 0.104,
      "velocity": 0.71,
      "hand": "right"
    },
    {
      "midi": 75,
      "time": 60.625,
      "duration": 0.104,
      "velocity": 0.71,
      "hand": "right"
    },
    {
      "midi": 57,
      "time": 60.833,
      "duration": 0.208,
      "velocity": 0.71,
      "hand": "left"
    },
    {
      "midi": 73,
      "time": 60.833,
      "duration": 0.104,
      "velocity": 0.71,
      "hand": "right"
    },
    {
      "midi": 76,
      "time": 60.833,
      "duration": 0.104,
      "velocity": 0.71,
      "hand": "right"
    },
    {
      "midi": 81,
      "time": 60.833,
      "duration": 0.104,
      "velocity": 0.71,
      "hand": "right"
    },
    {
      "midi": 84,
      "time": 60.938,
      "duration": 0.104,
      "velocity": 0.71,
      "hand": "right"
    },
    {
      "midi": 83,
      "time": 61.042,
      "duration": 0.104,
      "velocity": 0.71,
      "hand": "right"
    },
    {
      "midi": 72,
      "time": 61.25,
      "duration": 0.104,
      "velocity": 0.71,
      "hand": "right"
    },
    {
      "midi": 76,
      "time": 61.25,
      "duration": 0.104,
      "velocity": 0.71,
      "hand": "right"
    },
    {
      "midi": 81,
      "time": 61.25,
      "duration": 0.104,
      "velocity": 0.71,
      "hand": "right"
    },
    {
      "midi": 83,
      "time": 61.458,
      "duration": 0.104,
      "velocity": 0.71,
      "hand": "right"
    },
    {
      "midi": 81,
      "time": 61.563,
      "duration": 0.104,
      "velocity": 0.71,
      "hand": "right"
    },
    {
      "midi": 40,
      "time": 61.667,
      "duration": 0.208,
      "velocity": 0.71,
      "hand": "left"
    },
    {
      "midi": 71,
      "time": 61.667,
      "duration": 0.104,
      "velocity": 0.71,
      "hand": "right"
    },
    {
      "midi": 76,
      "time": 61.667,
      "duration": 0.104,
      "velocity": 0.71,
      "hand": "right"
    },
    {
      "midi": 80,
      "time": 61.667,
      "duration": 0.104,
      "velocity": 0.71,
      "hand": "right"
    },
    {
      "midi": 78,
      "time": 61.875,
      "duration": 0.104,
      "velocity": 0.71,
      "hand": "right"
    },
    {
      "midi": 52,
      "time": 62.083,
      "duration": 0.208,
      "velocity": 0.71,
      "hand": "left"
    },
    {
      "midi": 59,
      "time": 62.083,
      "duration": 0.208,
      "velocity": 0.71,
      "hand": "left"
    },
    {
      "midi": 68,
      "time": 62.083,
      "duration": 0.104,
      "velocity": 0.71,
      "hand": "right"
    },
    {
      "midi": 71,
      "time": 62.083,
      "duration": 0.104,
      "velocity": 0.71,
      "hand": "right"
    },
    {
      "midi": 76,
      "time": 62.083,
      "duration": 0.104,
      "velocity": 0.71,
      "hand": "right"
    },
    {
      "midi": 77,
      "time": 62.292,
      "duration": 0.104,
      "velocity": 0.71,
      "hand": "right"
    },
    {
      "midi": 45,
      "time": 62.5,
      "duration": 0.208,
      "velocity": 0.71,
      "hand": "left"
    },
    {
      "midi": 69,
      "time": 62.5,
      "duration": 0.104,
      "velocity": 0.71,
      "hand": "right"
    },
    {
      "midi": 72,
      "time": 62.5,
      "duration": 0.104,
      "velocity": 0.71,
      "hand": "right"
    },
    {
      "midi": 75,
      "time": 62.5,
      "duration": 0.104,
      "velocity": 0.71,
      "hand": "right"
    },
    {
      "midi": 73,
      "time": 62.708,
      "duration": 0.104,
      "velocity": 0.71,
      "hand": "right"
    },
    {
      "midi": 52,
      "time": 62.917,
      "duration": 0.208,
      "velocity": 0.71,
      "hand": "left"
    },
    {
      "midi": 57,
      "time": 62.917,
      "duration": 0.208,
      "velocity": 0.71,
      "hand": "left"
    },
    {
      "midi": 64,
      "time": 62.917,
      "duration": 0.104,
      "velocity": 0.71,
      "hand": "right"
    },
    {
      "midi": 69,
      "time": 62.917,
      "duration": 0.104,
      "velocity": 0.71,
      "hand": "right"
    },
    {
      "midi": 72,
      "time": 63.021,
      "duration": 0.104,
      "velocity": 0.71,
      "hand": "right"
    },
    {
      "midi": 74,
      "time": 63.125,
      "duration": 0.104,
      "velocity": 0.71,
      "hand": "right"
    },
    {
      "midi": 72,
      "time": 63.229,
      "duration": 0.104,
      "velocity": 0.71,
      "hand": "right"
    },
    {
      "midi": 52,
      "time": 63.333,
      "duration": 0.208,
      "velocity": 0.71,
      "hand": "left"
    },
    {
      "midi": 59,
      "time": 63.333,
      "duration": 0.208,
      "velocity": 0.71,
      "hand": "left"
    },
    {
      "midi": 64,
      "time": 63.333,
      "duration": 0.104,
      "velocity": 0.71,
      "hand": "right"
    },
    {
      "midi": 68,
      "time": 63.333,
      "duration": 0.104,
      "velocity": 0.71,
      "hand": "right"
    },
    {
      "midi": 72,
      "time": 63.438,
      "duration": 0.104,
      "velocity": 0.71,
      "hand": "right"
    },
    {
      "midi": 72,
      "time": 63.646,
      "duration": 0.104,
      "velocity": 0.71,
      "hand": "right"
    },
    {
      "midi": 53,
      "time": 63.75,
      "duration": 0.417,
      "velocity": 0.71,
      "hand": "left"
    },
    {
      "midi": 59,
      "time": 63.75,
      "duration": 0.625,
      "velocity": 0.71,
      "hand": "left"
    },
    {
      "midi": 63,
      "time": 63.75,
      "duration": 0.104,
      "velocity": 0.71,
      "hand": "right"
    },
    {
      "midi": 69,
      "time": 63.75,
      "duration": 0.104,
      "velocity": 0.71,
      "hand": "right"
    },
    {
      "midi": 72,
      "time": 63.854,
      "duration": 0.104,
      "velocity": 0.71,
      "hand": "right"
    },
    {
      "midi": 72,
      "time": 64.063,
      "duration": 0.104,
      "velocity": 0.71,
      "hand": "right"
    },
    {
      "midi": 52,
      "time": 64.167,
      "duration": 0.208,
      "velocity": 0.71,
      "hand": "left"
    },
    {
      "midi": 64,
      "time": 64.167,
      "duration": 0.104,
      "velocity": 0.71,
      "hand": "right"
    },
    {
      "midi": 68,
      "time": 64.167,
      "duration": 0.104,
      "velocity": 0.71,
      "hand": "right"
    },
    {
      "midi": 76,
      "time": 64.271,
      "duration": 0.104,
      "velocity": 0.71,
      "hand": "right"
    },
    {
      "midi": 62,
      "time": 64.583,
      "duration": 0.104,
      "velocity": 0.71,
      "hand": "right"
    },
    {
      "midi": 68,
      "time": 64.583,
      "duration": 0.104,
      "velocity": 0.71,
      "hand": "right"
    },
    {
      "midi": 73,
      "time": 64.583,
      "duration": 0.104,
      "velocity": 0.71,
      "hand": "right"
    },
    {
      "midi": 71,
      "time": 64.792,
      "duration": 0.104,
      "velocity": 0.71,
      "hand": "right"
    },
    {
      "midi": 45,
      "time": 65,
      "duration": 0.208,
      "velocity": 0.71,
      "hand": "left"
    },
    {
      "midi": 60,
      "time": 65,
      "duration": 0.104,
      "velocity": 0.71,
      "hand": "right"
    },
    {
      "midi": 64,
      "time": 65,
      "duration": 0.104,
      "velocity": 0.71,
      "hand": "right"
    },
    {
      "midi": 70,
      "time": 65.104,
      "duration": 0.104,
      "velocity": 0.71,
      "hand": "right"
    },
    {
      "midi": 72,
      "time": 65.313,
      "duration": 0.104,
      "velocity": 0.71,
      "hand": "right"
    },
    {
      "midi": 52,
      "time": 65.417,
      "duration": 0.208,
      "velocity": 0.71,
      "hand": "left"
    },
    {
      "midi": 57,
      "time": 65.417,
      "duration": 0.208,
      "velocity": 0.71,
      "hand": "left"
    },
    {
      "midi": 64,
      "time": 65.417,
      "duration": 0.104,
      "velocity": 0.71,
      "hand": "right"
    },
    {
      "midi": 69,
      "time": 65.417,
      "duration": 0.104,
      "velocity": 0.71,
      "hand": "right"
    },
    {
      "midi": 74,
      "time": 65.521,
      "duration": 0.104,
      "velocity": 0.71,
      "hand": "right"
    },
    {
      "midi": 76,
      "time": 65.729,
      "duration": 0.104,
      "velocity": 0.71,
      "hand": "right"
    },
    {
      "midi": 45,
      "time": 65.833,
      "duration": 0.208,
      "velocity": 0.71,
      "hand": "left"
    },
    {
      "midi": 69,
      "time": 65.833,
      "duration": 0.104,
      "velocity": 0.71,
      "hand": "right"
    },
    {
      "midi": 74,
      "time": 65.833,
      "duration": 0.104,
      "velocity": 0.71,
      "hand": "right"
    },
    {
      "midi": 78,
      "time": 65.938,
      "duration": 0.104,
      "velocity": 0.71,
      "hand": "right"
    },
    {
      "midi": 80,
      "time": 66.146,
      "duration": 0.104,
      "velocity": 0.71,
      "hand": "right"
    },
    {
      "midi": 53,
      "time": 66.25,
      "duration": 0.208,
      "velocity": 0.71,
      "hand": "left"
    },
    {
      "midi": 57,
      "time": 66.25,
      "duration": 0.208,
      "velocity": 0.71,
      "hand": "left"
    },
    {
      "midi": 74,
      "time": 66.25,
      "duration": 0.104,
      "velocity": 0.71,
      "hand": "right"
    },
    {
      "midi": 77,
      "time": 66.25,
      "duration": 0.104,
      "velocity": 0.71,
      "hand": "right"
    },
    {
      "midi": 82,
      "time": 66.354,
      "duration": 0.104,
      "velocity": 0.71,
      "hand": "right"
    },
    {
      "midi": 84,
      "time": 66.563,
      "duration": 0.104,
      "velocity": 0.71,
      "hand": "right"
    },
    {
      "midi": 45,
      "time": 66.667,
      "duration": 0.208,
      "velocity": 0.71,
      "hand": "left"
    },
    {
      "midi": 76,
      "time": 66.667,
      "duration": 0.104,
      "velocity": 0.71,
      "hand": "right"
    },
    {
      "midi": 81,
      "time": 66.667,
      "duration": 0.104,
      "velocity": 0.71,
      "hand": "right"
    },
    {
      "midi": 74,
      "time": 66.771,
      "duration": 0.104,
      "velocity": 0.71,
      "hand": "right"
    },
    {
      "midi": 52,
      "time": 67.083,
      "duration": 0.208,
      "velocity": 0.71,
      "hand": "left"
    },
    {
      "midi": 57,
      "time": 67.083,
      "duration": 0.208,
      "velocity": 0.71,
      "hand": "left"
    },
    {
      "midi": 77,
      "time": 67.083,
      "duration": 0.104,
      "velocity": 0.71,
      "hand": "right"
    },
    {
      "midi": 81,
      "time": 67.083,
      "duration": 0.104,
      "velocity": 0.71,
      "hand": "right"
    },
    {
      "midi": 84,
      "time": 67.083,
      "duration": 0.104,
      "velocity": 0.71,
      "hand": "right"
    },
    {
      "midi": 75,
      "time": 67.292,
      "duration": 0.104,
      "velocity": 0.71,
      "hand": "right"
    },
    {
      "midi": 57,
      "time": 67.5,
      "duration": 0.208,
      "velocity": 0.71,
      "hand": "left"
    },
    {
      "midi": 73,
      "time": 67.5,
      "duration": 0.104,
      "velocity": 0.71,
      "hand": "right"
    },
    {
      "midi": 76,
      "time": 67.5,
      "duration": 0.104,
      "velocity": 0.71,
      "hand": "right"
    },
    {
      "midi": 81,
      "time": 67.5,
      "duration": 0.104,
      "velocity": 0.71,
      "hand": "right"
    },
    {
      "midi": 84,
      "time": 67.604,
      "duration": 0.104,
      "velocity": 0.71,
      "hand": "right"
    },
    {
      "midi": 83,
      "time": 67.708,
      "duration": 0.104,
      "velocity": 0.71,
      "hand": "right"
    },
    {
      "midi": 72,
      "time": 67.917,
      "duration": 0.104,
      "velocity": 0.71,
      "hand": "right"
    },
    {
      "midi": 76,
      "time": 67.917,
      "duration": 0.104,
      "velocity": 0.71,
      "hand": "right"
    },
    {
      "midi": 81,
      "time": 67.917,
      "duration": 0.104,
      "velocity": 0.71,
      "hand": "right"
    },
    {
      "midi": 83,
      "time": 68.125,
      "duration": 0.104,
      "velocity": 0.71,
      "hand": "right"
    },
    {
      "midi": 81,
      "time": 68.229,
      "duration": 0.104,
      "velocity": 0.71,
      "hand": "right"
    },
    {
      "midi": 38,
      "time": 68.333,
      "duration": 0.208,
      "velocity": 0.71,
      "hand": "left"
    },
    {
      "midi": 50,
      "time": 68.333,
      "duration": 0.208,
      "velocity": 0.71,
      "hand": "left"
    },
    {
      "midi": 74,
      "time": 68.333,
      "duration": 0.104,
      "velocity": 0.71,
      "hand": "right"
    },
    {
      "midi": 77,
      "time": 68.333,
      "duration": 0.104,
      "velocity": 0.71,
      "hand": "right"
    },
    {
      "midi": 83,
      "time": 68.438,
      "duration": 0.104,
      "velocity": 0.71,
      "hand": "right"
    },
    {
      "midi": 84,
      "time": 68.542,
      "duration": 0.104,
      "velocity": 0.71,
      "hand": "right"
    },
    {
      "midi": 73,
      "time": 68.646,
      "duration": 0.104,
      "velocity": 0.71,
      "hand": "right"
    },
    {
      "midi": 50,
      "time": 68.75,
      "duration": 0.208,
      "velocity": 0.71,
      "hand": "left"
    },
    {
      "midi": 53,
      "time": 68.75,
      "duration": 0.208,
      "velocity": 0.71,
      "hand": "left"
    },
    {
      "midi": 77,
      "time": 68.75,
      "duration": 0.104,
      "velocity": 0.71,
      "hand": "right"
    },
    {
      "midi": 82,
      "time": 68.75,
      "duration": 0.104,
      "velocity": 0.71,
      "hand": "right"
    },
    {
      "midi": 75,
      "time": 68.854,
      "duration": 0.104,
      "velocity": 0.71,
      "hand": "right"
    },
    {
      "midi": 77,
      "time": 69.063,
      "duration": 0.104,
      "velocity": 0.71,
      "hand": "right"
    },
    {
      "midi": 40,
      "time": 69.167,
      "duration": 0.208,
      "velocity": 0.71,
      "hand": "left"
    },
    {
      "midi": 52,
      "time": 69.167,
      "duration": 0.208,
      "velocity": 0.71,
      "hand": "left"
    },
    {
      "midi": 74,
      "time": 69.167,
      "duration": 0.104,
      "velocity": 0.71,
      "hand": "right"
    },
    {
      "midi": 80,
      "time": 69.167,
      "duration": 0.104,
      "velocity": 0.71,
      "hand": "right"
    },
    {
      "midi": 77,
      "time": 69.271,
      "duration": 0.104,
      "velocity": 0.71,
      "hand": "right"
    },
    {
      "midi": 79,
      "time": 69.479,
      "duration": 0.104,
      "velocity": 0.71,
      "hand": "right"
    },
    {
      "midi": 52,
      "time": 69.583,
      "duration": 0.208,
      "velocity": 0.71,
      "hand": "left"
    },
    {
      "midi": 59,
      "time": 69.583,
      "duration": 0.208,
      "velocity": 0.71,
      "hand": "left"
    },
    {
      "midi": 62,
      "time": 69.583,
      "duration": 0.208,
      "velocity": 0.71,
      "hand": "right"
    },
    {
      "midi": 74,
      "time": 69.583,
      "duration": 0.104,
      "velocity": 0.71,
      "hand": "right"
    },
    {
      "midi": 81,
      "time": 69.688,
      "duration": 0.104,
      "velocity": 0.71,
      "hand": "right"
    },
    {
      "midi": 41,
      "time": 70,
      "duration": 0.208,
      "velocity": 0.71,
      "hand": "left"
    },
    {
      "midi": 53,
      "time": 70,
      "duration": 0.208,
      "velocity": 0.71,
      "hand": "left"
    },
    {
      "midi": 81,
      "time": 70,
      "duration": 0.104,
      "velocity": 0.71,
      "hand": "right"
    },
    {
      "midi": 84,
      "time": 70,
      "duration": 0.104,
      "velocity": 0.75,
      "hand": "right"
    },
    {
      "midi": 79,
      "time": 70.208,
      "duration": 0.104,
      "velocity": 0.71,
      "hand": "right"
    },
    {
      "midi": 57,
      "time": 70.417,
      "duration": 0.208,
      "velocity": 0.71,
      "hand": "left"
    },
    {
      "midi": 77,
      "time": 70.417,
      "duration": 0.104,
      "velocity": 0.71,
      "hand": "right"
    },
    {
      "midi": 81,
      "time": 70.417,
      "duration": 0.104,
      "velocity": 0.75,
      "hand": "right"
    },
    {
      "midi": 84,
      "time": 70.417,
      "duration": 0.104,
      "velocity": 0.75,
      "hand": "right"
    },
    {
      "midi": 75,
      "time": 70.625,
      "duration": 0.104,
      "velocity": 0.71,
      "hand": "right"
    },
    {
      "midi": 36,
      "time": 70.833,
      "duration": 0.208,
      "velocity": 0.71,
      "hand": "left"
    },
    {
      "midi": 48,
      "time": 70.833,
      "duration": 0.208,
      "velocity": 0.71,
      "hand": "left"
    },
    {
      "midi": 73,
      "time": 70.833,
      "duration": 0.104,
      "velocity": 0.71,
      "hand": "right"
    },
    {
      "midi": 76,
      "time": 70.833,
      "duration": 0.104,
      "velocity": 0.75,
      "hand": "right"
    },
    {
      "midi": 81,
      "time": 70.833,
      "duration": 0.104,
      "velocity": 0.75,
      "hand": "right"
    },
    {
      "midi": 84,
      "time": 70.938,
      "duration": 0.104,
      "velocity": 0.71,
      "hand": "right"
    },
    {
      "midi": 83,
      "time": 71.042,
      "duration": 0.104,
      "velocity": 0.71,
      "hand": "right"
    },
    {
      "midi": 52,
      "time": 71.25,
      "duration": 0.208,
      "velocity": 0.71,
      "hand": "left"
    },
    {
      "midi": 57,
      "time": 71.25,
      "duration": 0.208,
      "velocity": 0.71,
      "hand": "left"
    },
    {
      "midi": 72,
      "time": 71.25,
      "duration": 0.104,
      "velocity": 0.75,
      "hand": "right"
    },
    {
      "midi": 76,
      "time": 71.25,
      "duration": 0.104,
      "velocity": 0.75,
      "hand": "right"
    },
    {
      "midi": 81,
      "time": 71.25,
      "duration": 0.104,
      "velocity": 0.71,
      "hand": "right"
    },
    {
      "midi": 79,
      "time": 71.458,
      "duration": 0.104,
      "velocity": 0.71,
      "hand": "right"
    },
    {
      "midi": 38,
      "time": 71.667,
      "duration": 0.208,
      "velocity": 0.71,
      "hand": "left"
    },
    {
      "midi": 70,
      "time": 71.667,
      "duration": 0.104,
      "velocity": 0.75,
      "hand": "right"
    },
    {
      "midi": 74,
      "time": 71.667,
      "duration": 0.104,
      "velocity": 0.75,
      "hand": "right"
    },
    {
      "midi": 77,
      "time": 71.667,
      "duration": 0.104,
      "velocity": 0.71,
      "hand": "right"
    },
    {
      "midi": 75,
      "time": 71.875,
      "duration": 0.104,
      "velocity": 0.71,
      "hand": "right"
    },
    {
      "midi": 50,
      "time": 72.083,
      "duration": 0.417,
      "velocity": 0.71,
      "hand": "left"
    },
    {
      "midi": 53,
      "time": 72.083,
      "duration": 0.417,
      "velocity": 0.71,
      "hand": "left"
    },
    {
      "midi": 65,
      "time": 72.083,
      "duration": 0.104,
      "velocity": 0.75,
      "hand": "right"
    },
    {
      "midi": 70,
      "time": 72.083,
      "duration": 0.104,
      "velocity": 0.75,
      "hand": "right"
    },
    {
      "midi": 74,
      "time": 72.188,
      "duration": 0.104,
      "velocity": 0.71,
      "hand": "right"
    },
    {
      "midi": 77,
      "time": 72.292,
      "duration": 0.104,
      "velocity": 0.71,
      "hand": "right"
    },
    {
      "midi": 74,
      "time": 72.396,
      "duration": 0.104,
      "velocity": 0.71,
      "hand": "right"
    },
    {
      "midi": 52,
      "time": 72.5,
      "duration": 0.402,
      "velocity": 0.71,
      "hand": "left"
    },
    {
      "midi": 57,
      "time": 72.5,
      "duration": 0.417,
      "velocity": 0.71,
      "hand": "left"
    },
    {
      "midi": 64,
      "time": 72.5,
      "duration": 0.104,
      "velocity": 0.75,
      "hand": "right"
    },
    {
      "midi": 69,
      "time": 72.5,
      "duration": 0.104,
      "velocity": 0.75,
      "hand": "right"
    },
    {
      "midi": 72,
      "time": 72.604,
      "duration": 0.104,
      "velocity": 0.71,
      "hand": "right"
    },
    {
      "midi": 76,
      "time": 72.708,
      "duration": 0.104,
      "velocity": 0.71,
      "hand": "right"
    },
    {
      "midi": 72,
      "time": 72.813,
      "duration": 0.104,
      "velocity": 0.71,
      "hand": "right"
    },
    {
      "midi": 52,
      "time": 72.917,
      "duration": 0.417,
      "velocity": 0.71,
      "hand": "left"
    },
    {
      "midi": 59,
      "time": 72.917,
      "duration": 0.417,
      "velocity": 0.71,
      "hand": "left"
    },
    {
      "midi": 62,
      "time": 72.917,
      "duration": 0.104,
      "velocity": 0.75,
      "hand": "right"
    },
    {
      "midi": 68,
      "time": 72.917,
      "duration": 0.104,
      "velocity": 0.75,
      "hand": "right"
    },
    {
      "midi": 71,
      "time": 73.021,
      "duration": 0.104,
      "velocity": 0.71,
      "hand": "right"
    },
    {
      "midi": 76,
      "time": 73.125,
      "duration": 0.104,
      "velocity": 0.71,
      "hand": "right"
    },
    {
      "midi": 71,
      "time": 73.229,
      "duration": 0.104,
      "velocity": 0.71,
      "hand": "right"
    },
    {
      "midi": 45,
      "time": 73.333,
      "duration": 0.208,
      "velocity": 0.71,
      "hand": "left"
    },
    {
      "midi": 57,
      "time": 73.333,
      "duration": 0.208,
      "velocity": 0.71,
      "hand": "left"
    },
    {
      "midi": 60,
      "time": 73.333,
      "duration": 0.104,
      "velocity": 0.75,
      "hand": "right"
    },
    {
      "midi": 70,
      "time": 73.438,
      "duration": 0.104,
      "velocity": 0.71,
      "hand": "right"
    },
    {
      "midi": 72,
      "time": 73.646,
      "duration": 0.104,
      "velocity": 0.71,
      "hand": "right"
    },
    {
      "midi": 41,
      "time": 73.75,
      "duration": 0.833,
      "velocity": 0.71,
      "hand": "left"
    },
    {
      "midi": 53,
      "time": 73.75,
      "duration": 0.833,
      "velocity": 0.71,
      "hand": "left"
    },
    {
      "midi": 62,
      "time": 73.75,
      "duration": 0.104,
      "velocity": 0.75,
      "hand": "right"
    },
    {
      "midi": 69,
      "time": 73.75,
      "duration": 0.104,
      "velocity": 0.75,
      "hand": "right"
    },
    {
      "midi": 74,
      "time": 73.854,
      "duration": 0.104,
      "velocity": 0.71,
      "hand": "right"
    },
    {
      "midi": 76,
      "time": 74.063,
      "duration": 0.104,
      "velocity": 0.71,
      "hand": "right"
    },
    {
      "midi": 69,
      "time": 74.167,
      "duration": 0.104,
      "velocity": 0.75,
      "hand": "right"
    },
    {
      "midi": 74,
      "time": 74.167,
      "duration": 0.104,
      "velocity": 0.75,
      "hand": "right"
    },
    {
      "midi": 78,
      "time": 74.271,
      "duration": 0.104,
      "velocity": 0.71,
      "hand": "right"
    },
    {
      "midi": 80,
      "time": 74.479,
      "duration": 0.104,
      "velocity": 0.71,
      "hand": "right"
    },
    {
      "midi": 40,
      "time": 74.583,
      "duration": 0.417,
      "velocity": 0.71,
      "hand": "left"
    },
    {
      "midi": 52,
      "time": 74.583,
      "duration": 0.417,
      "velocity": 0.71,
      "hand": "left"
    },
    {
      "midi": 74,
      "time": 74.583,
      "duration": 0.104,
      "velocity": 0.75,
      "hand": "right"
    },
    {
      "midi": 76,
      "time": 74.583,
      "duration": 0.104,
      "velocity": 0.75,
      "hand": "right"
    },
    {
      "midi": 82,
      "time": 74.688,
      "duration": 0.104,
      "velocity": 0.71,
      "hand": "right"
    },
    {
      "midi": 84,
      "time": 74.896,
      "duration": 0.104,
      "velocity": 0.71,
      "hand": "right"
    },
    {
      "midi": 45,
      "time": 75,
      "duration": 0.208,
      "velocity": 0.71,
      "hand": "left"
    },
    {
      "midi": 72,
      "time": 75,
      "duration": 0.104,
      "velocity": 0.75,
      "hand": "right"
    },
    {
      "midi": 76,
      "time": 75,
      "duration": 0.104,
      "velocity": 0.75,
      "hand": "right"
    },
    {
      "midi": 82,
      "time": 75.104,
      "duration": 0.104,
      "velocity": 0.71,
      "hand": "right"
    },
    {
      "midi": 84,
      "time": 75.313,
      "duration": 0.104,
      "velocity": 0.71,
      "hand": "right"
    },
    {
      "midi": 41,
      "time": 75.417,
      "duration": 0.833,
      "velocity": 0.71,
      "hand": "left"
    },
    {
      "midi": 74,
      "time": 75.417,
      "duration": 0.089,
      "velocity": 0.75,
      "hand": "right"
    },
    {
      "midi": 81,
      "time": 75.417,
      "duration": 0.104,
      "velocity": 0.75,
      "hand": "right"
    },
    {
      "midi": 74,
      "time": 75.521,
      "duration": 0.104,
      "velocity": 0.71,
      "hand": "right"
    },
    {
      "midi": 76,
      "time": 75.729,
      "duration": 0.104,
      "velocity": 0.71,
      "hand": "right"
    },
    {
      "midi": 74,
      "time": 75.833,
      "duration": 0.104,
      "velocity": 0.75,
      "hand": "right"
    },
    {
      "midi": 81,
      "time": 75.833,
      "duration": 0.104,
      "velocity": 0.75,
      "hand": "right"
    },
    {
      "midi": 78,
      "time": 75.938,
      "duration": 0.104,
      "velocity": 0.71,
      "hand": "right"
    },
    {
      "midi": 80,
      "time": 76.146,
      "duration": 0.104,
      "velocity": 0.71,
      "hand": "right"
    },
    {
      "midi": 40,
      "time": 76.25,
      "duration": 0.417,
      "velocity": 0.71,
      "hand": "left"
    },
    {
      "midi": 74,
      "time": 76.25,
      "duration": 0.104,
      "velocity": 0.75,
      "hand": "right"
    },
    {
      "midi": 76,
      "time": 76.25,
      "duration": 0.104,
      "velocity": 0.75,
      "hand": "right"
    },
    {
      "midi": 82,
      "time": 76.354,
      "duration": 0.104,
      "velocity": 0.71,
      "hand": "right"
    },
    {
      "midi": 84,
      "time": 76.563,
      "duration": 0.089,
      "velocity": 0.71,
      "hand": "right"
    },
    {
      "midi": 45,
      "time": 76.667,
      "duration": 5,
      "velocity": 0.71,
      "hand": "left"
    },
    {
      "midi": 76,
      "time": 76.667,
      "duration": 0.104,
      "velocity": 0.75,
      "hand": "right"
    },
    {
      "midi": 81,
      "time": 76.667,
      "duration": 0.104,
      "velocity": 0.71,
      "hand": "right"
    },
    {
      "midi": 84,
      "time": 76.667,
      "duration": 0.104,
      "velocity": 0.75,
      "hand": "right"
    },
    {
      "midi": 79,
      "time": 76.875,
      "duration": 0.104,
      "velocity": 0.71,
      "hand": "right"
    },
    {
      "midi": 74,
      "time": 77.083,
      "duration": 0.104,
      "velocity": 0.75,
      "hand": "right"
    },
    {
      "midi": 77,
      "time": 77.083,
      "duration": 0.104,
      "velocity": 0.71,
      "hand": "right"
    },
    {
      "midi": 81,
      "time": 77.083,
      "duration": 0.104,
      "velocity": 0.75,
      "hand": "right"
    },
    {
      "midi": 75,
      "time": 77.292,
      "duration": 0.104,
      "velocity": 0.71,
      "hand": "right"
    },
    {
      "midi": 73,
      "time": 77.5,
      "duration": 0.104,
      "velocity": 0.71,
      "hand": "right"
    },
    {
      "midi": 77,
      "time": 77.5,
      "duration": 0.104,
      "velocity": 0.75,
      "hand": "right"
    },
    {
      "midi": 81,
      "time": 77.5,
      "duration": 0.104,
      "velocity": 0.75,
      "hand": "right"
    },
    {
      "midi": 84,
      "time": 77.604,
      "duration": 0.104,
      "velocity": 0.71,
      "hand": "right"
    },
    {
      "midi": 83,
      "time": 77.708,
      "duration": 0.104,
      "velocity": 0.71,
      "hand": "right"
    },
    {
      "midi": 74,
      "time": 77.917,
      "duration": 0.104,
      "velocity": 0.75,
      "hand": "right"
    },
    {
      "midi": 77,
      "time": 77.917,
      "duration": 0.104,
      "velocity": 0.75,
      "hand": "right"
    },
    {
      "midi": 81,
      "time": 77.917,
      "duration": 0.104,
      "velocity": 0.71,
      "hand": "right"
    },
    {
      "midi": 79,
      "time": 78.125,
      "duration": 0.104,
      "velocity": 0.71,
      "hand": "right"
    },
    {
      "midi": 69,
      "time": 78.333,
      "duration": 0.104,
      "velocity": 0.75,
      "hand": "right"
    },
    {
      "midi": 74,
      "time": 78.333,
      "duration": 0.104,
      "velocity": 0.75,
      "hand": "right"
    },
    {
      "midi": 77,
      "time": 78.333,
      "duration": 0.104,
      "velocity": 0.71,
      "hand": "right"
    },
    {
      "midi": 75,
      "time": 78.542,
      "duration": 0.104,
      "velocity": 0.71,
      "hand": "right"
    },
    {
      "midi": 65,
      "time": 78.75,
      "duration": 0.104,
      "velocity": 0.75,
      "hand": "right"
    },
    {
      "midi": 69,
      "time": 78.75,
      "duration": 0.104,
      "velocity": 0.75,
      "hand": "right"
    },
    {
      "midi": 73,
      "time": 78.75,
      "duration": 0.104,
      "velocity": 0.71,
      "hand": "right"
    },
    {
      "midi": 71,
      "time": 78.958,
      "duration": 0.104,
      "velocity": 0.71,
      "hand": "right"
    },
    {
      "midi": 62,
      "time": 79.167,
      "duration": 0.104,
      "velocity": 0.75,
      "hand": "right"
    },
    {
      "midi": 65,
      "time": 79.167,
      "duration": 0.104,
      "velocity": 0.75,
      "hand": "right"
    },
    {
      "midi": 69,
      "time": 79.167,
      "duration": 0.104,
      "velocity": 0.71,
      "hand": "right"
    },
    {
      "midi": 67,
      "time": 79.375,
      "duration": 0.104,
      "velocity": 0.71,
      "hand": "right"
    },
    {
      "midi": 57,
      "time": 79.583,
      "duration": 0.104,
      "velocity": 0.75,
      "hand": "left"
    },
    {
      "midi": 62,
      "time": 79.583,
      "duration": 0.104,
      "velocity": 0.75,
      "hand": "right"
    },
    {
      "midi": 65,
      "time": 79.583,
      "duration": 0.104,
      "velocity": 0.71,
      "hand": "right"
    },
    {
      "midi": 63,
      "time": 79.792,
      "duration": 0.104,
      "velocity": 0.71,
      "hand": "right"
    },
    {
      "midi": 52,
      "time": 80,
      "duration": 1.667,
      "velocity": 0.71,
      "hand": "left"
    },
    {
      "midi": 57,
      "time": 80,
      "duration": 1.667,
      "velocity": 0.71,
      "hand": "left"
    },
    {
      "midi": 61,
      "time": 80,
      "duration": 1.667,
      "velocity": 0.71,
      "hand": "right"
    }
  ]
}
