{
  "id": "fantasy-in-d-minormozart",
  "title": "Fantasia em Ré Menor",
  "artist": "Wolfgang Amadeus Mozart",
  "difficulty": "Difícil",
  "bpm": 80,
  "duration": 283,
  "category": "Clássicos",
  "isPremium": true,
  "coverUrl": "/images/covers/placeholder.png",
  "notes": [
    {
      "midi": 38,
      "time": 0,
      "duration": 3,
      "velocity": 0.71,
      "hand": "left"
    },
    {
      "midi": 41,
      "time": 0.188,
      "duration": 0.188,
      "velocity": 0.71,
      "hand": "left"
    },
    {
      "midi": 45,
      "time": 0.563,
      "duration": 0.188,
      "velocity": 0.71,
      "hand": "left"
    },
    {
      "midi": 50,
      "time": 0.75,
      "duration": 2.25,
      "velocity": 0.71,
      "hand": "left"
    },
    {
      "midi": 53,
      "time": 0.938,
      "duration": 0.188,
      "velocity": 0.71,
      "hand": "left"
    },
    {
      "midi": 57,
      "time": 1.313,
      "duration": 0.188,
      "velocity": 0.71,
      "hand": "left"
    },
    {
      "midi": 62,
      "time": 1.5,
      "duration": 0.188,
      "velocity": 0.71,
      "hand": "right"
    },
    {
      "midi": 57,
      "time": 1.688,
      "duration": 0.188,
      "velocity": 0.71,
      "hand": "left"
    },
    {
      "midi": 65,
      "time": 2.063,
      "duration": 0.188,
      "velocity": 0.71,
      "hand": "right"
    },
    {
      "midi": 62,
      "time": 2.25,
      "duration": 0.188,
      "velocity": 0.71,
      "hand": "right"
    },
    {
      "midi": 57,
      "time": 2.438,
      "duration": 0.188,
      "velocity": 0.71,
      "hand": "left"
    },
    {
      "midi": 53,
      "time": 2.813,
      "duration": 0.188,
      "velocity": 0.71,
      "hand": "left"
    },
    {
      "midi": 38,
      "time": 3,
      "duration": 3,
      "velocity": 0.71,
      "hand": "left"
    },
    {
      "midi": 41,
      "time": 3.188,
      "duration": 0.188,
      "velocity": 0.71,
      "hand": "left"
    },
    {
      "midi": 45,
      "time": 3.563,
      "duration": 0.188,
      "velocity": 0.71,
      "hand": "left"
    },
    {
      "midi": 50,
      "time": 3.75,
      "duration": 2.25,
      "velocity": 0.71,
      "hand": "left"
    },
    {
      "midi": 53,
      "time": 3.938,
      "duration": 0.188,
      "velocity": 0.71,
      "hand": "left"
    },
    {
      "midi": 57,
      "time": 4.313,
      "duration": 0.188,
      "velocity": 0.71,
      "hand": "left"
    },
    {
      "midi": 62,
      "time": 4.5,
      "duration": 0.188,
      "velocity": 0.71,
      "hand": "right"
    },
    {
      "midi": 57,
      "time": 4.688,
      "duration": 0.188,
      "velocity": 0.71,
      "hand": "left"
    },
    {
      "midi": 65,
      "time": 5.063,
      "duration": 0.188,
      "velocity": 0.71,
      "hand": "right"
    },
    {
      "midi": 62,
      "time": 5.25,
      "duration": 0.188,
      "velocity": 0.71,
      "hand": "right"
    },
    {
      "midi": 57,
      "time": 5.438,
      "duration": 0.188,
      "velocity": 0.71,
      "hand": "left"
    },
    {
      "midi": 53,
      "time": 5.813,
      "duration": 0.188,
      "velocity": 0.71,
      "hand": "left"
    },
    {
      "midi": 38,
      "time": 6,
      "duration": 3,
      "velocity": 0.71,
      "hand": "left"
    },
    {
      "midi": 43,
      "time": 6.188,
      "duration": 0.188,
      "velocity": 0.71,
      "hand": "left"
    },
    {
      "midi": 46,
      "time": 6.563,
      "duration": 0.188,
      "velocity": 0.71,
      "hand": "left"
    },
    {
      "midi": 50,
      "time": 6.75,
      "duration": 2.25,
      "velocity": 0.71,
      "hand": "left"
    },
    {
      "midi": 55,
      "time": 6.938,
      "duration": 0.188,
      "velocity": 0.71,
      "hand": "left"
    },
    {
      "midi": 58,
      "time": 7.313,
      "duration": 0.188,
      "velocity": 0.71,
      "hand": "left"
    },
    {
      "midi": 64,
      "time": 7.5,
      "duration": 0.188,
      "velocity": 0.71,
      "hand": "right"
    },
    {
      "midi": 58,
      "time": 7.688,
      "duration": 0.188,
      "velocity": 0.71,
      "hand": "left"
    },
    {
      "midi": 67,
      "time": 8.063,
      "duration": 0.188,
      "velocity": 0.71,
      "hand": "right"
    },
    {
      "midi": 64,
      "time": 8.25,
      "duration": 0.188,
      "velocity": 0.71,
      "hand": "right"
    },
    {
      "midi": 58,
      "time": 8.438,
      "duration": 0.188,
      "velocity": 0.71,
      "hand": "left"
    },
    {
      "midi": 55,
      "time": 8.813,
      "duration": 0.188,
      "velocity": 0.71,
      "hand": "left"
    },
    {
      "midi": 38,
      "time": 9,
      "duration": 3,
      "velocity": 0.71,
      "hand": "left"
    },
    {
      "midi": 43,
      "time": 9.188,
      "duration": 0.188,
      "velocity": 0.71,
      "hand": "left"
    },
    {
      "midi": 46,
      "time": 9.563,
      "duration": 0.188,
      "velocity": 0.71,
      "hand": "left"
    },
    {
      "midi": 50,
      "time": 9.75,
      "duration": 2.25,
      "velocity": 0.71,
      "hand": "left"
    },
    {
      "midi": 55,
      "time": 9.938,
      "duration": 0.188,
      "velocity": 0.71,
      "hand": "left"
    },
    {
      "midi": 58,
      "time": 10.313,
      "duration": 0.188,
      "velocity": 0.71,
      "hand": "left"
    },
    {
      "midi": 64,
      "time": 10.5,
      "duration": 0.188,
      "velocity": 0.71,
      "hand": "right"
    },
    {
      "midi": 58,
      "time": 10.688,
      "duration": 0.188,
      "velocity": 0.71,
      "hand": "left"
    },
    {
      "midi": 67,
      "time": 11.063,
      "duration": 0.188,
      "velocity": 0.71,
      "hand": "right"
    },
    {
      "midi": 64,
      "time": 11.25,
      "duration": 0.188,
      "velocity": 0.71,
      "hand": "right"
    },
    {
      "midi": 58,
      "time": 11.438,
      "duration": 0.188,
      "velocity": 0.71,
      "hand": "left"
    },
    {
      "midi": 55,
      "time": 11.813,
      "duration": 0.188,
      "velocity": 0.71,
      "hand": "left"
    },
    {
      "midi": 36,
      "time": 12,
      "duration": 3,
      "velocity": 0.71,
      "hand": "left"
    },
    {
      "midi": 42,
      "time": 12.188,
      "duration": 0.188,
      "velocity": 0.71,
      "hand": "left"
    },
    {
      "midi": 45,
      "time": 12.563,
      "duration": 0.188,
      "velocity": 0.71,
      "hand": "left"
    },
    {
      "midi": 48,
      "time": 12.75,
      "duration": 2.25,
      "velocity": 0.71,
      "hand": "left"
    },
    {
      "midi": 57,
      "time": 12.938,
      "duration": 0.188,
      "velocity": 0.71,
      "hand": "left"
    },
    {
      "midi": 62,
      "time": 13.313,
      "duration": 0.188,
      "velocity": 0.71,
      "hand": "right"
    },
    {
      "midi": 66,
      "time": 13.5,
      "duration": 0.188,
      "velocity": 0.71,
      "hand": "right"
    },
    {
      "midi": 62,
      "time": 13.688,
      "duration": 0.188,
      "velocity": 0.71,
      "hand": "right"
    },
    {
      "midi": 69,
      "time": 14.063,
      "duration": 0.188,
      "velocity": 0.71,
      "hand": "right"
    },
    {
      "midi": 66,
      "time": 14.25,
      "duration": 0.188,
      "velocity": 0.71,
      "hand": "right"
    },
    {
      "midi": 62,
      "time": 14.438,
      "duration": 0.188,
      "velocity": 0.71,
      "hand": "right"
    },
    {
      "midi": 57,
      "time": 14.813,
      "duration": 0.188,
      "velocity": 0.71,
      "hand": "left"
    },
    {
      "midi": 36,
      "time": 15,
      "duration": 3,
      "velocity": 0.71,
      "hand": "left"
    },
    {
      "midi": 42,
      "time": 15.188,
      "duration": 0.188,
      "velocity": 0.71,
      "hand": "left"
    },
    {
      "midi": 45,
      "time": 15.563,
      "duration": 0.188,
      "velocity": 0.71,
      "hand": "left"
    },
    {
      "midi": 48,
      "time": 15.75,
      "duration": 2.25,
      "velocity": 0.71,
      "hand": "left"
    },
    {
      "midi": 57,
      "time": 15.938,
      "duration": 0.188,
      "velocity": 0.71,
      "hand": "left"
    },
    {
      "midi": 62,
      "time": 16.313,
      "duration": 0.188,
      "velocity": 0.71,
      "hand": "right"
    },
    {
      "midi": 66,
      "time": 16.5,
      "duration": 0.188,
      "velocity": 0.71,
      "hand": "right"
    },
    {
      "midi": 62,
      "time": 16.688,
      "duration": 0.188,
      "velocity": 0.71,
      "hand": "right"
    },
    {
      "midi": 69,
      "time": 17.063,
      "duration": 0.188,
      "velocity": 0.71,
      "hand": "right"
    },
    {
      "midi": 66,
      "time": 17.25,
      "duration": 0.188,
      "velocity": 0.71,
      "hand": "right"
    },
    {
      "midi": 62,
      "time": 17.438,
      "duration": 0.188,
      "velocity": 0.71,
      "hand": "right"
    },
    {
      "midi": 57,
      "time": 17.813,
      "duration": 0.188,
      "velocity": 0.71,
      "hand": "left"
    },
    {
      "midi": 46,
      "time": 18,
      "duration": 1.5,
      "velocity": 0.71,
      "hand": "left"
    },
    {
      "midi": 50,
      "time": 18.188,
      "duration": 0.188,
      "velocity": 0.71,
      "hand": "left"
    },
    {
      "midi": 55,
      "time": 18.563,
      "duration": 0.938,
      "velocity": 0.71,
      "hand": "left"
    },
    {
      "midi": 62,
      "time": 18.75,
      "duration": 0.188,
      "velocity": 0.71,
      "hand": "right"
    },
    {
      "midi": 69,
      "time": 18.938,
      "duration": 0.188,
      "velocity": 0.71,
      "hand": "right"
    },
    {
      "midi": 67,
      "time": 19.313,
      "duration": 0.938,
      "velocity": 0.71,
      "hand": "right"
    },
    {
      "midi": 45,
      "time": 19.5,
      "duration": 1.5,
      "velocity": 0.71,
      "hand": "left"
    },
    {
      "midi": 48,
      "time": 19.688,
      "duration": 0.188,
      "velocity": 0.71,
      "hand": "left"
    },
    {
      "midi": 53,
      "time": 20.063,
      "duration": 0.938,
      "velocity": 0.71,
      "hand": "left"
    },
    {
      "midi": 60,
      "time": 20.25,
      "duration": 0.188,
      "velocity": 0.71,
      "hand": "right"
    },
    {
      "midi": 67,
      "time": 20.438,
      "duration": 0.188,
      "velocity": 0.71,
      "hand": "right"
    },
    {
      "midi": 65,
      "time": 20.813,
      "duration": 0.938,
      "velocity": 0.71,
      "hand": "right"
    },
    {
      "midi": 43,
      "time": 21,
      "duration": 1.5,
      "velocity": 0.71,
      "hand": "left"
    },
    {
      "midi": 46,
      "time": 21.188,
      "duration": 0.188,
      "velocity": 0.71,
      "hand": "left"
    },
    {
      "midi": 51,
      "time": 21.563,
      "duration": 0.938,
      "velocity": 0.71,
      "hand": "left"
    },
    {
      "midi": 58,
      "time": 21.75,
      "duration": 0.188,
      "velocity": 0.71,
      "hand": "left"
    },
    {
      "midi": 65,
      "time": 21.938,
      "duration": 0.188,
      "velocity": 0.71,
      "hand": "right"
    },
    {
      "midi": 63,
      "time": 22.313,
      "duration": 0.938,
      "velocity": 0.71,
      "hand": "right"
    },
    {
      "midi": 44,
      "time": 22.5,
      "duration": 1.5,
      "velocity": 0.71,
      "hand": "left"
    },
    {
      "midi": 47,
      "time": 22.688,
      "duration": 0.188,
      "velocity": 0.71,
      "hand": "left"
    },
    {
      "midi": 53,
      "time": 23.063,
      "duration": 0.938,
      "velocity": 0.71,
      "hand": "left"
    },
    {
      "midi": 59,
      "time": 23.25,
      "duration": 0.188,
      "velocity": 0.71,
      "hand": "left"
    },
    {
      "midi": 64,
      "time": 23.438,
      "duration": 0.188,
      "velocity": 0.71,
      "hand": "right"
    },
    {
      "midi": 62,
      "time": 23.813,
      "duration": 0.188,
      "velocity": 0.71,
      "hand": "right"
    },
    {
      "midi": 45,
      "time": 24,
      "duration": 0.188,
      "velocity": 0.71,
      "hand": "left"
    },
    {
      "midi": 49,
      "time": 24.188,
      "duration": 0.188,
      "velocity": 0.71,
      "hand": "left"
    },
    {
      "midi": 52,
      "time": 24.563,
      "duration": 0.188,
      "velocity": 0.71,
      "hand": "left"
    },
    {
      "midi": 57,
      "time": 24.75,
      "duration": 0.75,
      "velocity": 0.71,
      "hand": "left"
    },
    {
      "midi": 61,
      "time": 24.938,
      "duration": 0.188,
      "velocity": 0.71,
      "hand": "right"
    },
    {
      "midi": 64,
      "time": 25.313,
      "duration": 0.188,
      "velocity": 0.71,
      "hand": "right"
    },
    {
      "midi": 69,
      "time": 25.5,
      "duration": 0.188,
      "velocity": 0.71,
      "hand": "right"
    },
    {
      "midi": 73,
      "time": 25.688,
      "duration": 0.188,
      "velocity": 0.71,
      "hand": "right"
    },
    {
      "midi": 76,
      "time": 26.063,
      "duration": 0.188,
      "velocity": 0.71,
      "hand": "right"
    },
    {
      "midi": 81,
      "time": 26.25,
      "duration": 0.188,
      "velocity": 0.71,
      "hand": "right"
    },
    {
      "midi": 85,
      "time": 26.438,
      "duration": 0.188,
      "velocity": 0.71,
      "hand": "right"
    },
    {
      "midi": 88,
      "time": 26.813,
      "duration": 0.188,
      "velocity": 0.71,
      "hand": "right"
    },
    {
      "midi": 87,
      "time": 27,
      "duration": 0.188,
      "velocity": 0.71,
      "hand": "right"
    },
    {
      "midi": 88,
      "time": 27.188,
      "duration": 0.188,
      "velocity": 0.71,
      "hand": "right"
    },
    {
      "midi": 84,
      "time": 27.563,
      "duration": 0.188,
      "velocity": 0.71,
      "hand": "right"
    },
    {
      "midi": 85,
      "time": 27.75,
      "duration": 0.188,
      "velocity": 0.71,
      "hand": "right"
    },
    {
      "midi": 80,
      "time": 27.938,
      "duration": 0.188,
      "velocity": 0.71,
      "hand": "right"
    },
    {
      "midi": 81,
      "time": 28.313,
      "duration": 0.188,
      "velocity": 0.71,
      "hand": "right"
    },
    {
      "midi": 75,
      "time": 28.5,
      "duration": 0.188,
      "velocity": 0.71,
      "hand": "right"
    },
    {
      "midi": 76,
      "time": 28.688,
      "duration": 0.188,
      "velocity": 0.71,
      "hand": "right"
    },
    {
      "midi": 72,
      "time": 29.063,
      "duration": 0.188,
      "velocity": 0.71,
      "hand": "right"
    },
    {
      "midi": 73,
      "time": 29.25,
      "duration": 0.188,
      "velocity": 0.71,
      "hand": "right"
    },
    {
      "midi": 68,
      "time": 29.438,
      "duration": 0.188,
      "velocity": 0.71,
      "hand": "right"
    },
    {
      "midi": 69,
      "time": 29.813,
      "duration": 0.188,
      "velocity": 0.71,
      "hand": "right"
    },
    {
      "midi": 33,
      "time": 30,
      "duration": 1.5,
      "velocity": 0.71,
      "hand": "left"
    },
    {
      "midi": 62,
      "time": 33,
      "duration": 2.063,
      "velocity": 0.71,
      "hand": "right"
    },
    {
      "midi": 77,
      "time": 33,
      "duration": 1.688,
      "velocity": 0.54,
      "hand": "right"
    },
    {
      "midi": 65,
      "time": 33.563,
      "duration": 0.563,
      "velocity": 0.71,
      "hand": "right"
    },
    {
      "midi": 69,
      "time": 33.563,
      "duration": 0.563,
      "velocity": 0.71,
      "hand": "right"
    },
    {
      "midi": 65,
      "time": 33.938,
      "duration": 0.563,
      "velocity": 0.71,
      "hand": "right"
    },
    {
      "midi": 69,
      "time": 33.938,
      "duration": 0.563,
      "velocity": 0.71,
      "hand": "right"
    },
    {
      "midi": 65,
      "time": 34.5,
      "duration": 0.563,
      "velocity": 0.71,
      "hand": "right"
    },
    {
      "midi": 69,
      "time": 34.5,
      "duration": 0.563,
      "velocity": 0.71,
      "hand": "right"
    },
    {
      "midi": 76,
      "time": 34.688,
      "duration": 0.188,
      "velocity": 0.54,
      "hand": "right"
    },
    {
      "midi": 77,
      "time": 34.875,
      "duration": 0.188,
      "velocity": 0.54,
      "hand": "right"
    },
    {
      "midi": 62,
      "time": 35.063,
      "duration": 2.063,
      "velocity": 0.71,
      "hand": "right"
    },
    {
      "midi": 79,
      "time": 35.063,
      "duration": 0.563,
      "velocity": 0.54,
      "hand": "right"
    },
    {
      "midi": 65,
      "time": 35.438,
      "duration": 0.563,
      "velocity": 0.71,
      "hand": "right"
    },
    {
      "midi": 69,
      "time": 35.438,
      "duration": 0.563,
      "velocity": 0.71,
      "hand": "right"
    },
    {
      "midi": 77,
      "time": 35.438,
      "duration": 0.563,
      "velocity": 0.54,
      "hand": "right"
    },
    {
      "midi": 65,
      "time": 36,
      "duration": 0.563,
      "velocity": 0.71,
      "hand": "right"
    },
    {
      "midi": 69,
      "time": 36,
      "duration": 0.563,
      "velocity": 0.71,
      "hand": "right"
    },
    {
      "midi": 76,
      "time": 36,
      "duration": 0.563,
      "velocity": 0.54,
      "hand": "right"
    },
    {
      "midi": 65,
      "time": 36.563,
      "duration": 0.563,
      "velocity": 0.71,
      "hand": "right"
    },
    {
      "midi": 69,
      "time": 36.563,
      "duration": 0.563,
      "velocity": 0.71,
      "hand": "right"
    },
    {
      "midi": 74,
      "time": 36.563,
      "duration": 0.563,
      "velocity": 0.54,
      "hand": "right"
    },
    {
      "midi": 64,
      "time": 36.938,
      "duration": 2.063,
      "velocity": 0.71,
      "hand": "right"
    },
    {
      "midi": 73,
      "time": 36.938,
      "duration": 0.938,
      "velocity": 0.54,
      "hand": "right"
    },
    {
      "midi": 67,
      "time": 37.5,
      "duration": 0.563,
      "velocity": 0.71,
      "hand": "right"
    },
    {
      "midi": 69,
      "time": 37.5,
      "duration": 0.563,
      "velocity": 0.71,
      "hand": "right"
    },
    {
      "midi": 67,
      "time": 38.063,
      "duration": 0.563,
      "velocity": 0.71,
      "hand": "right"
    },
    {
      "midi": 69,
      "time": 38.063,
      "duration": 0.563,
      "velocity": 0.71,
      "hand": "right"
    },
    {
      "midi": 67,
      "time": 38.438,
      "duration": 0.563,
      "velocity": 0.71,
      "hand": "right"
    },
    {
      "midi": 69,
      "time": 38.438,
      "duration": 0.563,
      "velocity": 0.71,
      "hand": "right"
    },
    {
      "midi": 74,
      "time": 38.813,
      "duration": 0.188,
      "velocity": 0.54,
      "hand": "right"
    },
    {
      "midi": 64,
      "time": 39,
      "duration": 2.063,
      "velocity": 0.71,
      "hand": "right"
    },
    {
      "midi": 75,
      "time": 39,
      "duration": 0.563,
      "velocity": 0.54,
      "hand": "right"
    },
    {
      "midi": 67,
      "time": 39.563,
      "duration": 0.563,
      "velocity": 0.71,
      "hand": "right"
    },
    {
      "midi": 69,
      "time": 39.563,
      "duration": 0.563,
      "velocity": 0.71,
      "hand": "right"
    },
    {
      "midi": 76,
      "time": 39.563,
      "duration": 0.563,
      "velocity": 0.54,
      "hand": "right"
    },
    {
      "midi": 67,
      "time": 39.938,
      "duration": 0.563,
      "velocity": 0.71,
      "hand": "right"
    },
    {
      "midi": 69,
      "time": 39.938,
      "duration": 0.563,
      "velocity": 0.71,
      "hand": "right"
    },
    {
      "midi": 67,
      "time": 40.5,
      "duration": 0.563,
      "velocity": 0.71,
      "hand": "right"
    },
    {
      "midi": 69,
      "time": 40.5,
      "duration": 0.563,
      "velocity": 0.71,
      "hand": "right"
    },
    {
      "midi": 61,
      "time": 41.063,
      "duration": 2.063,
      "velocity": 0.71,
      "hand": "right"
    },
    {
      "midi": 79,
      "time": 41.063,
      "duration": 1.688,
      "velocity": 0.54,
      "hand": "right"
    },
    {
      "midi": 64,
      "time": 41.438,
      "duration": 0.563,
      "velocity": 0.71,
      "hand": "right"
    },
    {
      "midi": 69,
      "time": 41.438,
      "duration": 0.563,
      "velocity": 0.71,
      "hand": "right"
    },
    {
      "midi": 64,
      "time": 42,
      "duration": 0.563,
      "velocity": 0.71,
      "hand": "right"
    },
    {
      "midi": 69,
      "time": 42,
      "duration": 0.563,
      "velocity": 0.71,
      "hand": "right"
    },
    {
      "midi": 64,
      "time": 42.563,
      "duration": 0.563,
      "velocity": 0.71,
      "hand": "right"
    },
    {
      "midi": 69,
      "time": 42.563,
      "duration": 0.563,
      "velocity": 0.71,
      "hand": "right"
    },
    {
      "midi": 78,
      "time": 42.75,
      "duration": 0.188,
      "velocity": 0.54,
      "hand": "right"
    },
    {
      "midi": 61,
      "time": 42.938,
      "duration": 2.063,
      "velocity": 0.71,
      "hand": "right"
    },
    {
      "midi": 79,
      "time": 42.938,
      "duration": 0.188,
      "velocity": 0.54,
      "hand": "right"
    },
    {
      "midi": 81,
      "time": 42.938,
      "duration": 0.563,
      "velocity": 0.54,
      "hand": "right"
    },
    {
      "midi": 64,
      "time": 43.5,
      "duration": 0.563,
      "velocity": 0.71,
      "hand": "right"
    },
    {
      "midi": 69,
      "time": 43.5,
      "duration": 0.563,
      "velocity": 0.71,
      "hand": "right"
    },
    {
      "midi": 79,
      "time": 43.5,
      "duration": 0.563,
      "velocity": 0.54,
      "hand": "right"
    },
    {
      "midi": 64,
      "time": 44.063,
      "duration": 0.563,
      "velocity": 0.71,
      "hand": "right"
    },
    {
      "midi": 69,
      "time": 44.063,
      "duration": 0.563,
      "velocity": 0.71,
      "hand": "right"
    },
    {
      "midi": 77,
      "time": 44.063,
      "duration": 0.563,
      "velocity": 0.54,
      "hand": "right"
    },
    {
      "midi": 64,
      "time": 44.438,
      "duration": 0.563,
      "velocity": 0.71,
      "hand": "right"
    },
    {
      "midi": 69,
      "time": 44.438,
      "duration": 0.563,
      "velocity": 0.71,
      "hand": "right"
    },
    {
      "midi": 76,
      "time": 44.438,
      "duration": 0.563,
      "velocity": 0.54,
      "hand": "right"
    },
    {
      "midi": 62,
      "time": 45,
      "duration": 2.063,
      "velocity": 0.71,
      "hand": "right"
    },
    {
      "midi": 74,
      "time": 45,
      "duration": 0.938,
      "velocity": 0.54,
      "hand": "right"
    },
    {
      "midi": 65,
      "time": 45.563,
      "duration": 0.563,
      "velocity": 0.71,
      "hand": "right"
    },
    {
      "midi": 69,
      "time": 45.563,
      "duration": 0.563,
      "velocity": 0.71,
      "hand": "right"
    },
    {
      "midi": 65,
      "time": 45.938,
      "duration": 0.563,
      "velocity": 0.71,
      "hand": "right"
    },
    {
      "midi": 69,
      "time": 45.938,
      "duration": 0.563,
      "velocity": 0.71,
      "hand": "right"
    },
    {
      "midi": 65,
      "time": 46.5,
      "duration": 0.563,
      "velocity": 0.71,
      "hand": "right"
    },
    {
      "midi": 69,
      "time": 46.5,
      "duration": 0.563,
      "velocity": 0.71,
      "hand": "right"
    },
    {
      "midi": 76,
      "time": 46.688,
      "duration": 0.188,
      "velocity": 0.54,
      "hand": "right"
    },
    {
      "midi": 62,
      "time": 47.063,
      "duration": 2.063,
      "velocity": 0.71,
      "hand": "right"
    },
    {
      "midi": 79,
      "time": 47.063,
      "duration": 0.563,
      "velocity": 0.54,
      "hand": "right"
    },
    {
      "midi": 65,
      "time": 47.438,
      "duration": 0.563,
      "velocity": 0.71,
      "hand": "right"
    },
    {
      "midi": 69,
      "time": 47.438,
      "duration": 0.563,
      "velocity": 0.71,
      "hand": "right"
    },
    {
      "midi": 77,
      "time": 47.438,
      "duration": 0.563,
      "velocity": 0.54,
      "hand": "right"
    },
    {
      "midi": 65,
      "time": 48,
      "duration": 0.563,
      "velocity": 0.71,
      "hand": "right"
    },
    {
      "midi": 69,
      "time": 48,
      "duration": 0.563,
      "velocity": 0.71,
      "hand": "right"
    },
    {
      "midi": 65,
      "time": 48.563,
      "duration": 0.563,
      "velocity": 0.71,
      "hand": "right"
    },
    {
      "midi": 69,
      "time": 48.563,
      "duration": 0.563,
      "velocity": 0.71,
      "hand": "right"
    },
    {
      "midi": 69,
      "time": 48.938,
      "duration": 2.063,
      "velocity": 0.75,
      "hand": "right"
    },
    {
      "midi": 81,
      "time": 48.938,
      "duration": 2.063,
      "velocity": 0.75,
      "hand": "right"
    },
    {
      "midi": 53,
      "time": 50.063,
      "duration": 0.938,
      "velocity": 0.71,
      "hand": "left"
    },
    {
      "midi": 57,
      "time": 50.063,
      "duration": 0.938,
      "velocity": 0.71,
      "hand": "left"
    },
    {
      "midi": 62,
      "time": 50.063,
      "duration": 0.938,
      "velocity": 0.71,
      "hand": "right"
    },
    {
      "midi": 52,
      "time": 51,
      "duration": 0.563,
      "velocity": 0.71,
      "hand": "left"
    },
    {
      "midi": 55,
      "time": 51,
      "duration": 0.563,
      "velocity": 0.71,
      "hand": "left"
    },
    {
      "midi": 61,
      "time": 51,
      "duration": 0.563,
      "velocity": 0.71,
      "hand": "right"
    },
    {
      "midi": 70,
      "time": 51,
      "duration": 0.563,
      "velocity": 0.75,
      "hand": "right"
    },
    {
      "midi": 82,
      "time": 51,
      "duration": 0.563,
      "velocity": 0.75,
      "hand": "right"
    },
    {
      "midi": 81,
      "time": 53.063,
      "duration": 0.75,
      "velocity": 0.54,
      "hand": "right"
    },
    {
      "midi": 86,
      "time": 53.813,
      "duration": 0.188,
      "velocity": 0.54,
      "hand": "right"
    },
    {
      "midi": 65,
      "time": 54,
      "duration": 0.938,
      "velocity": 0.71,
      "hand": "right"
    },
    {
      "midi": 74,
      "time": 54,
      "duration": 0.938,
      "velocity": 0.71,
      "hand": "right"
    },
    {
      "midi": 85,
      "time": 54,
      "duration": 0.375,
      "velocity": 0.54,
      "hand": "right"
    },
    {
      "midi": 84,
      "time": 54.375,
      "duration": 0.375,
      "velocity": 0.54,
      "hand": "right"
    },
    {
      "midi": 83,
      "time": 54.75,
      "duration": 0.375,
      "velocity": 0.54,
      "hand": "right"
    },
    {
      "midi": 67,
      "time": 54.938,
      "duration": 0.938,
      "velocity": 0.71,
      "hand": "right"
    },
    {
      "midi": 73,
      "time": 54.938,
      "duration": 0.938,
      "velocity": 0.71,
      "hand": "right"
    },
    {
      "midi": 82,
      "time": 54.938,
      "duration": 0.938,
      "velocity": 0.54,
      "hand": "right"
    },
    {
      "midi": 65,
      "time": 56.813,
      "duration": 0.188,
      "velocity": 0.71,
      "hand": "right"
    },
    {
      "midi": 74,
      "time": 56.813,
      "duration": 0.188,
      "velocity": 0.71,
      "hand": "right"
    },
    {
      "midi": 81,
      "time": 56.813,
      "duration": 0.188,
      "velocity": 0.54,
      "hand": "right"
    },
    {
      "midi": 64,
      "time": 57,
      "duration": 0.563,
      "velocity": 0.71,
      "hand": "right"
    },
    {
      "midi": 76,
      "time": 57,
      "duration": 0.563,
      "velocity": 0.71,
      "hand": "right"
    },
    {
      "midi": 81,
      "time": 57,
      "duration": 0.563,
      "velocity": 0.54,
      "hand": "right"
    },
    {
      "midi": 80,
      "time": 57.563,
      "duration": 0.563,
      "velocity": 0.54,
      "hand": "right"
    },
    {
      "midi": 69,
      "time": 57.938,
      "duration": 0.563,
      "velocity": 0.71,
      "hand": "right"
    },
    {
      "midi": 73,
      "time": 57.938,
      "duration": 0.563,
      "velocity": 0.71,
      "hand": "right"
    },
    {
      "midi": 79,
      "time": 58.5,
      "duration": 0.563,
      "velocity": 0.54,
      "hand": "right"
    },
    {
      "midi": 62,
      "time": 59.063,
      "duration": 0.563,
      "velocity": 0.71,
      "hand": "right"
    },
    {
      "midi": 74,
      "time": 59.063,
      "duration": 0.563,
      "velocity": 0.71,
      "hand": "right"
    },
    {
      "midi": 78,
      "time": 59.438,
      "duration": 0.563,
      "velocity": 0.54,
      "hand": "right"
    },
    {
      "midi": 68,
      "time": 60,
      "duration": 0.563,
      "velocity": 0.71,
      "hand": "right"
    },
    {
      "midi": 71,
      "time": 60,
      "duration": 0.563,
      "velocity": 0.71,
      "hand": "right"
    },
    {
      "midi": 74,
      "time": 60.563,
      "duration": 0.563,
      "velocity": 0.54,
      "hand": "right"
    },
    {
      "midi": 77,
      "time": 60.563,
      "duration": 0.563,
      "velocity": 0.54,
      "hand": "right"
    },
    {
      "midi": 69,
      "time": 60.938,
      "duration": 0.938,
      "velocity": 0.71,
      "hand": "right"
    },
    {
      "midi": 73,
      "time": 61.5,
      "duration": 0.563,
      "velocity": 0.54,
      "hand": "right"
    },
    {
      "midi": 76,
      "time": 61.5,
      "duration": 0.563,
      "velocity": 0.54,
      "hand": "right"
    },
    {
      "midi": 76,
      "time": 62.063,
      "duration": 0.563,
      "velocity": 0.54,
      "hand": "right"
    },
    {
      "midi": 81,
      "time": 62.063,
      "duration": 0.563,
      "velocity": 0.54,
      "hand": "right"
    },
    {
      "midi": 81,
      "time": 62.438,
      "duration": 0.563,
      "velocity": 0.54,
      "hand": "right"
    },
    {
      "midi": 85,
      "time": 62.438,
      "duration": 0.563,
      "velocity": 0.54,
      "hand": "right"
    },
    {
      "midi": 85,
      "time": 63,
      "duration": 0.563,
      "velocity": 0.54,
      "hand": "right"
    },
    {
      "midi": 88,
      "time": 63,
      "duration": 0.563,
      "velocity": 0.54,
      "hand": "right"
    },
    {
      "midi": 64,
      "time": 65.063,
      "duration": 0.563,
      "velocity": 0.71,
      "hand": "right"
    },
    {
      "midi": 64,
      "time": 65.438,
      "duration": 0.563,
      "velocity": 0.71,
      "hand": "right"
    },
    {
      "midi": 64,
      "time": 66,
      "duration": 0.563,
      "velocity": 0.71,
      "hand": "right"
    },
    {
      "midi": 64,
      "time": 66.563,
      "duration": 0.563,
      "velocity": 0.71,
      "hand": "right"
    },
    {
      "midi": 64,
      "time": 66.938,
      "duration": 0.563,
      "velocity": 0.71,
      "hand": "right"
    },
    {
      "midi": 64,
      "time": 67.5,
      "duration": 0.563,
      "velocity": 0.71,
      "hand": "right"
    },
    {
      "midi": 45,
      "time": 68.063,
      "duration": 0.938,
      "velocity": 0.71,
      "hand": "left"
    },
    {
      "midi": 57,
      "time": 68.063,
      "duration": 0.938,
      "velocity": 0.71,
      "hand": "left"
    },
    {
      "midi": 60,
      "time": 68.063,
      "duration": 0.938,
      "velocity": 0.71,
      "hand": "right"
    },
    {
      "midi": 64,
      "time": 68.063,
      "duration": 0.563,
      "velocity": 0.71,
      "hand": "right"
    },
    {
      "midi": 64,
      "time": 68.438,
      "duration": 0.563,
      "velocity": 0.71,
      "hand": "right"
    },
    {
      "midi": 44,
      "time": 69,
      "duration": 0.938,
      "velocity": 0.71,
      "hand": "left"
    },
    {
      "midi": 56,
      "time": 69,
      "duration": 0.938,
      "velocity": 0.71,
      "hand": "left"
    },
    {
      "midi": 59,
      "time": 69,
      "duration": 0.938,
      "velocity": 0.71,
      "hand": "left"
    },
    {
      "midi": 64,
      "time": 69,
      "duration": 0.563,
      "velocity": 0.71,
      "hand": "right"
    },
    {
      "midi": 64,
      "time": 69.563,
      "duration": 0.563,
      "velocity": 0.71,
      "hand": "right"
    },
    {
      "midi": 43,
      "time": 69.938,
      "duration": 0.938,
      "velocity": 0.71,
      "hand": "left"
    },
    {
      "midi": 55,
      "time": 69.938,
      "duration": 0.938,
      "velocity": 0.71,
      "hand": "left"
    },
    {
      "midi": 58,
      "time": 69.938,
      "duration": 0.938,
      "velocity": 0.71,
      "hand": "left"
    },
    {
      "midi": 64,
      "time": 69.938,
      "duration": 0.563,
      "velocity": 0.71,
      "hand": "right"
    },
    {
      "midi": 64,
      "time": 70.5,
      "duration": 0.563,
      "velocity": 0.71,
      "hand": "right"
    },
    {
      "midi": 42,
      "time": 71.063,
      "duration": 0.938,
      "velocity": 0.71,
      "hand": "left"
    },
    {
      "midi": 54,
      "time": 71.063,
      "duration": 0.938,
      "velocity": 0.71,
      "hand": "left"
    },
    {
      "midi": 57,
      "time": 71.063,
      "duration": 0.938,
      "velocity": 0.71,
      "hand": "left"
    },
    {
      "midi": 64,
      "time": 71.063,
      "duration": 0.563,
      "velocity": 0.71,
      "hand": "right"
    },
    {
      "midi": 63,
      "time": 71.438,
      "duration": 0.563,
      "velocity": 0.71,
      "hand": "right"
    },
    {
      "midi": 41,
      "time": 72,
      "duration": 0.938,
      "velocity": 0.71,
      "hand": "left"
    },
    {
      "midi": 53,
      "time": 72,
      "duration": 0.938,
      "velocity": 0.71,
      "hand": "left"
    },
    {
      "midi": 63,
      "time": 72,
      "duration": 0.938,
      "velocity": 0.71,
      "hand": "right"
    },
    {
      "midi": 69,
      "time": 72,
      "duration": 0.563,
      "velocity": 0.71,
      "hand": "right"
    },
    {
      "midi": 69,
      "time": 72.563,
      "duration": 0.563,
      "velocity": 0.71,
      "hand": "right"
    },
    {
      "midi": 40,
      "time": 72.938,
      "duration": 3,
      "velocity": 0.71,
      "hand": "left"
    },
    {
      "midi": 52,
      "time": 72.938,
      "duration": 3,
      "velocity": 0.71,
      "hand": "left"
    },
    {
      "midi": 63,
      "time": 72.938,
      "duration": 2.063,
      "velocity": 0.71,
      "hand": "right"
    },
    {
      "midi": 69,
      "time": 72.938,
      "duration": 1.5,
      "velocity": 0.71,
      "hand": "right"
    },
    {
      "midi": 68,
      "time": 74.438,
      "duration": 0.188,
      "velocity": 0.71,
      "hand": "right"
    },
    {
      "midi": 69,
      "time": 74.625,
      "duration": 0.188,
      "velocity": 0.71,
      "hand": "right"
    },
    {
      "midi": 69,
      "time": 74.813,
      "duration": 0.188,
      "velocity": 0.71,
      "hand": "right"
    },
    {
      "midi": 71,
      "time": 74.813,
      "duration": 0.188,
      "velocity": 0.71,
      "hand": "right"
    },
    {
      "midi": 64,
      "time": 75,
      "duration": 0.938,
      "velocity": 0.71,
      "hand": "right"
    },
    {
      "midi": 68,
      "time": 75,
      "duration": 0.938,
      "velocity": 0.71,
      "hand": "right"
    },
    {
      "midi": 71,
      "time": 76.688,
      "duration": 0.188,
      "velocity": 0.54,
      "hand": "right"
    },
    {
      "midi": 69,
      "time": 77.063,
      "duration": 0.188,
      "velocity": 0.54,
      "hand": "right"
    },
    {
      "midi": 68,
      "time": 77.25,
      "duration": 0.188,
      "velocity": 0.54,
      "hand": "right"
    },
    {
      "midi": 62,
      "time": 77.438,
      "duration": 0.563,
      "velocity": 0.71,
      "hand": "right"
    },
    {
      "midi": 65,
      "time": 77.438,
      "duration": 0.563,
      "velocity": 0.71,
      "hand": "right"
    },
    {
      "midi": 71,
      "time": 77.813,
      "duration": 0.188,
      "velocity": 0.54,
      "hand": "right"
    },
    {
      "midi": 62,
      "time": 78,
      "duration": 0.563,
      "velocity": 0.71,
      "hand": "right"
    },
    {
      "midi": 65,
      "time": 78,
      "duration": 0.563,
      "velocity": 0.71,
      "hand": "right"
    },
    {
      "midi": 69,
      "time": 78,
      "duration": 0.188,
      "velocity": 0.54,
      "hand": "right"
    },
    {
      "midi": 68,
      "time": 78.188,
      "duration": 0.188,
      "velocity": 0.54,
      "hand": "right"
    },
    {
      "midi": 62,
      "time": 78.563,
      "duration": 0.563,
      "velocity": 0.71,
      "hand": "right"
    },
    {
      "midi": 65,
      "time": 78.563,
      "duration": 0.563,
      "velocity": 0.71,
      "hand": "right"
    },
    {
      "midi": 71,
      "time": 78.75,
      "duration": 0.188,
      "velocity": 0.54,
      "hand": "right"
    },
    {
      "midi": 62,
      "time": 78.938,
      "duration": 0.563,
      "velocity": 0.71,
      "hand": "right"
    },
    {
      "midi": 65,
      "time": 78.938,
      "duration": 0.563,
      "velocity": 0.71,
      "hand": "right"
    },
    {
      "midi": 69,
      "time": 78.938,
      "duration": 0.188,
      "velocity": 0.54,
      "hand": "right"
    },
    {
      "midi": 68,
      "time": 79.313,
      "duration": 0.188,
      "velocity": 0.54,
      "hand": "right"
    },
    {
      "midi": 62,
      "time": 79.5,
      "duration": 0.563,
      "velocity": 0.71,
      "hand": "right"
    },
    {
      "midi": 65,
      "time": 79.5,
      "duration": 0.563,
      "velocity": 0.71,
      "hand": "right"
    },
    {
      "midi": 71,
      "time": 79.688,
      "duration": 0.188,
      "velocity": 0.54,
      "hand": "right"
    },
    {
      "midi": 62,
      "time": 80.063,
      "duration": 0.563,
      "velocity": 0.71,
      "hand": "right"
    },
    {
      "midi": 65,
      "time": 80.063,
      "duration": 0.563,
      "velocity": 0.71,
      "hand": "right"
    },
    {
      "midi": 74,
      "time": 80.25,
      "duration": 0.188,
      "velocity": 0.54,
      "hand": "right"
    },
    {
      "midi": 62,
      "time": 80.438,
      "duration": 0.563,
      "velocity": 0.71,
      "hand": "right"
    },
    {
      "midi": 65,
      "time": 80.438,
      "duration": 0.563,
      "velocity": 0.71,
      "hand": "right"
    },
    {
      "midi": 68,
      "time": 80.813,
      "duration": 0.188,
      "velocity": 0.54,
      "hand": "right"
    },
    {
      "midi": 71,
      "time": 81,
      "duration": 0.188,
      "velocity": 0.54,
      "hand": "right"
    },
    {
      "midi": 69,
      "time": 81.188,
      "duration": 0.188,
      "velocity": 0.54,
      "hand": "right"
    },
    {
      "midi": 60,
      "time": 81.563,
      "duration": 0.563,
      "velocity": 0.71,
      "hand": "right"
    },
    {
      "midi": 64,
      "time": 81.563,
      "duration": 0.563,
      "velocity": 0.71,
      "hand": "right"
    },
    {
      "midi": 72,
      "time": 81.75,
      "duration": 0.188,
      "velocity": 0.54,
      "hand": "right"
    },
    {
      "midi": 60,
      "time": 81.938,
      "duration": 0.563,
      "velocity": 0.71,
      "hand": "right"
    },
    {
      "midi": 64,
      "time": 81.938,
      "duration": 0.563,
      "velocity": 0.71,
      "hand": "right"
    },
    {
      "midi": 71,
      "time": 81.938,
      "duration": 0.188,
      "velocity": 0.54,
      "hand": "right"
    },
    {
      "midi": 69,
      "time": 82.313,
      "duration": 0.188,
      "velocity": 0.54,
      "hand": "right"
    },
    {
      "midi": 60,
      "time": 82.5,
      "duration": 0.563,
      "velocity": 0.71,
      "hand": "right"
    },
    {
      "midi": 64,
      "time": 82.5,
      "duration": 0.563,
      "velocity": 0.71,
      "hand": "right"
    },
    {
      "midi": 72,
      "time": 82.688,
      "duration": 0.188,
      "velocity": 0.54,
      "hand": "right"
    },
    {
      "midi": 60,
      "time": 83.063,
      "duration": 0.563,
      "velocity": 0.71,
      "hand": "right"
    },
    {
      "midi": 64,
      "time": 83.063,
      "duration": 0.563,
      "velocity": 0.71,
      "hand": "right"
    },
    {
      "midi": 71,
      "time": 83.063,
      "duration": 0.188,
      "velocity": 0.54,
      "hand": "right"
    },
    {
      "midi": 69,
      "time": 83.25,
      "duration": 0.188,
      "velocity": 0.54,
      "hand": "right"
    },
    {
      "midi": 60,
      "time": 83.438,
      "duration": 0.563,
      "velocity": 0.71,
      "hand": "right"
    },
    {
      "midi": 64,
      "time": 83.438,
      "duration": 0.563,
      "velocity": 0.71,
      "hand": "right"
    },
    {
      "midi": 72,
      "time": 83.813,
      "duration": 0.188,
      "velocity": 0.54,
      "hand": "right"
    },
    {
      "midi": 60,
      "time": 84,
      "duration": 0.563,
      "velocity": 0.71,
      "hand": "right"
    },
    {
      "midi": 64,
      "time": 84,
      "duration": 0.563,
      "velocity": 0.71,
      "hand": "right"
    },
    {
      "midi": 76,
      "time": 84.188,
      "duration": 0.188,
      "velocity": 0.54,
      "hand": "right"
    },
    {
      "midi": 60,
      "time": 84.563,
      "duration": 0.563,
      "velocity": 0.71,
      "hand": "right"
    },
    {
      "midi": 64,
      "time": 84.563,
      "duration": 0.563,
      "velocity": 0.71,
      "hand": "right"
    },
    {
      "midi": 69,
      "time": 84.75,
      "duration": 0.188,
      "velocity": 0.54,
      "hand": "right"
    },
    {
      "midi": 72,
      "time": 84.938,
      "duration": 0.188,
      "velocity": 0.54,
      "hand": "right"
    },
    {
      "midi": 71,
      "time": 85.313,
      "duration": 0.188,
      "velocity": 0.54,
      "hand": "right"
    },
    {
      "midi": 56,
      "time": 85.5,
      "duration": 0.563,
      "velocity": 0.71,
      "hand": "left"
    },
    {
      "midi": 64,
      "time": 85.5,
      "duration": 0.563,
      "velocity": 0.71,
      "hand": "right"
    },
    {
      "midi": 74,
      "time": 85.688,
      "duration": 0.188,
      "velocity": 0.54,
      "hand": "right"
    },
    {
      "midi": 56,
      "time": 86.063,
      "duration": 0.563,
      "velocity": 0.71,
      "hand": "left"
    },
    {
      "midi": 64,
      "time": 86.063,
      "duration": 0.563,
      "velocity": 0.71,
      "hand": "right"
    },
    {
      "midi": 72,
      "time": 86.063,
      "duration": 0.188,
      "velocity": 0.54,
      "hand": "right"
    },
    {
      "midi": 71,
      "time": 86.25,
      "duration": 0.188,
      "velocity": 0.54,
      "hand": "right"
    },
    {
      "midi": 56,
      "time": 86.438,
      "duration": 0.563,
      "velocity": 0.71,
      "hand": "left"
    },
    {
      "midi": 64,
      "time": 86.438,
      "duration": 0.563,
      "velocity": 0.71,
      "hand": "right"
    },
    {
      "midi": 74,
      "time": 86.813,
      "duration": 0.188,
      "velocity": 0.54,
      "hand": "right"
    },
    {
      "midi": 56,
      "time": 87,
      "duration": 0.563,
      "velocity": 0.71,
      "hand": "left"
    },
    {
      "midi": 64,
      "time": 87,
      "duration": 0.563,
      "velocity": 0.71,
      "hand": "right"
    },
    {
      "midi": 72,
      "time": 87,
      "duration": 0.188,
      "velocity": 0.54,
      "hand": "right"
    },
    {
      "midi": 71,
      "time": 87.188,
      "duration": 0.188,
      "velocity": 0.54,
      "hand": "right"
    },
    {
      "midi": 56,
      "time": 87.563,
      "duration": 0.563,
      "velocity": 0.71,
      "hand": "left"
    },
    {
      "midi": 64,
      "time": 87.563,
      "duration": 0.563,
      "velocity": 0.71,
      "hand": "right"
    },
    {
      "midi": 74,
      "time": 87.75,
      "duration": 0.188,
      "velocity": 0.54,
      "hand": "right"
    },
    {
      "midi": 56,
      "time": 87.938,
      "duration": 0.563,
      "velocity": 0.71,
      "hand": "left"
    },
    {
      "midi": 64,
      "time": 87.938,
      "duration": 0.563,
      "velocity": 0.71,
      "hand": "right"
    },
    {
      "midi": 77,
      "time": 88.313,
      "duration": 0.188,
      "velocity": 0.54,
      "hand": "right"
    },
    {
      "midi": 56,
      "time": 88.5,
      "duration": 0.563,
      "velocity": 0.71,
      "hand": "left"
    },
    {
      "midi": 64,
      "time": 88.5,
      "duration": 0.563,
      "velocity": 0.71,
      "hand": "right"
    },
    {
      "midi": 71,
      "time": 88.688,
      "duration": 0.188,
      "velocity": 0.54,
      "hand": "right"
    },
    {
      "midi": 57,
      "time": 89.063,
      "duration": 0.563,
      "velocity": 0.71,
      "hand": "left"
    },
    {
      "midi": 64,
      "time": 89.063,
      "duration": 0.563,
      "velocity": 0.71,
      "hand": "right"
    },
    {
      "midi": 74,
      "time": 89.063,
      "duration": 0.188,
      "velocity": 0.54,
      "hand": "right"
    },
    {
      "midi": 72,
      "time": 89.25,
      "duration": 0.188,
      "velocity": 0.54,
      "hand": "right"
    },
    {
      "midi": 57,
      "time": 89.438,
      "duration": 0.563,
      "velocity": 0.71,
      "hand": "left"
    },
    {
      "midi": 60,
      "time": 89.438,
      "duration": 0.563,
      "velocity": 0.71,
      "hand": "right"
    },
    {
      "midi": 81,
      "time": 89.813,
      "duration": 0.188,
      "velocity": 0.54,
      "hand": "right"
    },
    {
      "midi": 59,
      "time": 90,
      "duration": 0.563,
      "velocity": 0.71,
      "hand": "left"
    },
    {
      "midi": 62,
      "time": 90,
      "duration": 0.563,
      "velocity": 0.71,
      "hand": "right"
    },
    {
      "midi": 80,
      "time": 90.188,
      "duration": 0.188,
      "velocity": 0.57,
      "hand": "right"
    },
    {
      "midi": 61,
      "time": 90.563,
      "duration": 0.563,
      "velocity": 0.71,
      "hand": "right"
    },
    {
      "midi": 64,
      "time": 90.563,
      "duration": 0.563,
      "velocity": 0.71,
      "hand": "right"
    },
    {
      "midi": 79,
      "time": 90.75,
      "duration": 0.188,
      "velocity": 0.61,
      "hand": "right"
    },
    {
      "midi": 62,
      "time": 90.938,
      "duration": 0.563,
      "velocity": 0.71,
      "hand": "right"
    },
    {
      "midi": 65,
      "time": 90.938,
      "duration": 0.563,
      "velocity": 0.71,
      "hand": "right"
    },
    {
      "midi": 77,
      "time": 91.313,
      "duration": 0.188,
      "velocity": 0.65,
      "hand": "right"
    },
    {
      "midi": 64,
      "time": 91.5,
      "duration": 0.563,
      "velocity": 0.71,
      "hand": "right"
    },
    {
      "midi": 68,
      "time": 91.5,
      "duration": 0.563,
      "velocity": 0.71,
      "hand": "right"
    },
    {
      "midi": 76,
      "time": 91.688,
      "duration": 0.188,
      "velocity": 0.7,
      "hand": "right"
    },
    {
      "midi": 66,
      "time": 92.063,
      "duration": 0.563,
      "velocity": 0.71,
      "hand": "right"
    },
    {
      "midi": 69,
      "time": 92.063,
      "duration": 0.563,
      "velocity": 0.71,
      "hand": "right"
    },
    {
      "midi": 75,
      "time": 92.25,
      "duration": 0.188,
      "velocity": 0.75,
      "hand": "right"
    },
    {
      "midi": 68,
      "time": 92.438,
      "duration": 0.563,
      "velocity": 0.71,
      "hand": "right"
    },
    {
      "midi": 71,
      "time": 92.438,
      "duration": 0.563,
      "velocity": 0.71,
      "hand": "right"
    },
    {
      "midi": 74,
      "time": 92.813,
      "duration": 0.188,
      "velocity": 0.54,
      "hand": "right"
    },
    {
      "midi": 69,
      "time": 93,
      "duration": 0.563,
      "velocity": 0.71,
      "hand": "right"
    },
    {
      "midi": 72,
      "time": 93,
      "duration": 0.188,
      "velocity": 0.54,
      "hand": "right"
    },
    {
      "midi": 76,
      "time": 93.188,
      "duration": 0.188,
      "velocity": 0.54,
      "hand": "right"
    },
    {
      "midi": 57,
      "time": 93.563,
      "duration": 0.563,
      "velocity": 0.71,
      "hand": "left"
    },
    {
      "midi": 60,
      "time": 93.563,
      "duration": 0.563,
      "velocity": 0.71,
      "hand": "right"
    },
    {
      "midi": 81,
      "time": 93.75,
      "duration": 0.188,
      "velocity": 0.54,
      "hand": "right"
    },
    {
      "midi": 59,
      "time": 93.938,
      "duration": 0.563,
      "velocity": 0.71,
      "hand": "left"
    },
    {
      "midi": 62,
      "time": 93.938,
      "duration": 0.563,
      "velocity": 0.71,
      "hand": "right"
    },
    {
      "midi": 80,
      "time": 94.313,
      "duration": 0.188,
      "velocity": 0.57,
      "hand": "right"
    },
    {
      "midi": 61,
      "time": 94.5,
      "duration": 0.563,
      "velocity": 0.71,
      "hand": "right"
    },
    {
      "midi": 64,
      "time": 94.5,
      "duration": 0.563,
      "velocity": 0.71,
      "hand": "right"
    },
    {
      "midi": 79,
      "time": 94.688,
      "duration": 0.188,
      "velocity": 0.62,
      "hand": "right"
    },
    {
      "midi": 62,
      "time": 95.063,
      "duration": 0.563,
      "velocity": 0.71,
      "hand": "right"
    },
    {
      "midi": 65,
      "time": 95.063,
      "duration": 0.563,
      "velocity": 0.71,
      "hand": "right"
    },
    {
      "midi": 77,
      "time": 95.25,
      "duration": 0.188,
      "velocity": 0.67,
      "hand": "right"
    },
    {
      "midi": 64,
      "time": 95.438,
      "duration": 0.563,
      "velocity": 0.71,
      "hand": "right"
    },
    {
      "midi": 68,
      "time": 95.438,
      "duration": 0.563,
      "velocity": 0.71,
      "hand": "right"
    },
    {
      "midi": 76,
      "time": 95.813,
      "duration": 0.188,
      "velocity": 0.72,
      "hand": "right"
    },
    {
      "midi": 66,
      "time": 96,
      "duration": 0.563,
      "velocity": 0.71,
      "hand": "right"
    },
    {
      "midi": 69,
      "time": 96,
      "duration": 0.563,
      "velocity": 0.71,
      "hand": "right"
    },
    {
      "midi": 75,
      "time": 96.188,
      "duration": 0.188,
      "velocity": 0.75,
      "hand": "right"
    },
    {
      "midi": 68,
      "time": 96.563,
      "duration": 0.563,
      "velocity": 0.71,
      "hand": "right"
    },
    {
      "midi": 71,
      "time": 96.563,
      "duration": 0.563,
      "velocity": 0.71,
      "hand": "right"
    },
    {
      "midi": 74,
      "time": 96.75,
      "duration": 0.188,
      "velocity": 0.75,
      "hand": "right"
    },
    {
      "midi": 57,
      "time": 101.063,
      "duration": 2.063,
      "velocity": 0.71,
      "hand": "left"
    },
    {
      "midi": 72,
      "time": 101.063,
      "duration": 1.688,
      "velocity": 0.54,
      "hand": "right"
    },
    {
      "midi": 60,
      "time": 101.438,
      "duration": 0.563,
      "velocity": 0.71,
      "hand": "right"
    },
    {
      "midi": 64,
      "time": 101.438,
      "duration": 0.563,
      "velocity": 0.71,
      "hand": "right"
    },
    {
      "midi": 60,
      "time": 102,
      "duration": 0.563,
      "velocity": 0.71,
      "hand": "right"
    },
    {
      "midi": 64,
      "time": 102,
      "duration": 0.563,
      "velocity": 0.71,
      "hand": "right"
    },
    {
      "midi": 60,
      "time": 102.563,
      "duration": 0.563,
      "velocity": 0.71,
      "hand": "right"
    },
    {
      "midi": 64,
      "time": 102.563,
      "duration": 0.563,
      "velocity": 0.71,
      "hand": "right"
    },
    {
      "midi": 71,
      "time": 102.75,
      "duration": 0.188,
      "velocity": 0.54,
      "hand": "right"
    },
    {
      "midi": 57,
      "time": 102.938,
      "duration": 2.063,
      "velocity": 0.71,
      "hand": "left"
    },
    {
      "midi": 72,
      "time": 102.938,
      "duration": 0.188,
      "velocity": 0.54,
      "hand": "right"
    },
    {
      "midi": 74,
      "time": 102.938,
      "duration": 0.563,
      "velocity": 0.54,
      "hand": "right"
    },
    {
      "midi": 60,
      "time": 103.5,
      "duration": 0.563,
      "velocity": 0.71,
      "hand": "right"
    },
    {
      "midi": 64,
      "time": 103.5,
      "duration": 0.563,
      "velocity": 0.71,
      "hand": "right"
    },
    {
      "midi": 72,
      "time": 103.5,
      "duration": 0.563,
      "velocity": 0.54,
      "hand": "right"
    },
    {
      "midi": 60,
      "time": 104.063,
      "duration": 0.563,
      "velocity": 0.71,
      "hand": "right"
    },
    {
      "midi": 64,
      "time": 104.063,
      "duration": 0.563,
      "velocity": 0.71,
      "hand": "right"
    },
    {
      "midi": 71,
      "time": 104.063,
      "duration": 0.563,
      "velocity": 0.54,
      "hand": "right"
    },
    {
      "midi": 60,
      "time": 104.438,
      "duration": 0.563,
      "velocity": 0.71,
      "hand": "right"
    },
    {
      "midi": 64,
      "time": 104.438,
      "duration": 0.563,
      "velocity": 0.71,
      "hand": "right"
    },
    {
      "midi": 69,
      "time": 104.438,
      "duration": 0.563,
      "velocity": 0.54,
      "hand": "right"
    },
    {
      "midi": 59,
      "time": 105,
      "duration": 2.063,
      "velocity": 0.71,
      "hand": "left"
    },
    {
      "midi": 68,
      "time": 105,
      "duration": 0.938,
      "velocity": 0.54,
      "hand": "right"
    },
    {
      "midi": 62,
      "time": 105.563,
      "duration": 0.563,
      "velocity": 0.71,
      "hand": "right"
    },
    {
      "midi": 64,
      "time": 105.563,
      "duration": 0.563,
      "velocity": 0.71,
      "hand": "right"
    },
    {
      "midi": 62,
      "time": 105.938,
      "duration": 0.563,
      "velocity": 0.71,
      "hand": "right"
    },
    {
      "midi": 64,
      "time": 105.938,
      "duration": 0.563,
      "velocity": 0.71,
      "hand": "right"
    },
    {
      "midi": 62,
      "time": 106.5,
      "duration": 0.563,
      "velocity": 0.71,
      "hand": "right"
    },
    {
      "midi": 64,
      "time": 106.5,
      "duration": 0.563,
      "velocity": 0.71,
      "hand": "right"
    },
    {
      "midi": 69,
      "time": 106.688,
      "duration": 0.188,
      "velocity": 0.54,
      "hand": "right"
    },
    {
      "midi": 59,
      "time": 107.063,
      "duration": 2.063,
      "velocity": 0.71,
      "hand": "left"
    },
    {
      "midi": 70,
      "time": 107.063,
      "duration": 0.563,
      "velocity": 0.54,
      "hand": "right"
    },
    {
      "midi": 62,
      "time": 107.438,
      "duration": 0.563,
      "velocity": 0.71,
      "hand": "right"
    },
    {
      "midi": 64,
      "time": 107.438,
      "duration": 0.563,
      "velocity": 0.71,
      "hand": "right"
    },
    {
      "midi": 71,
      "time": 107.438,
      "duration": 0.563,
      "velocity": 0.54,
      "hand": "right"
    },
    {
      "midi": 62,
      "time": 108,
      "duration": 0.563,
      "velocity": 0.71,
      "hand": "right"
    },
    {
      "midi": 64,
      "time": 108,
      "duration": 0.563,
      "velocity": 0.71,
      "hand": "right"
    },
    {
      "midi": 62,
      "time": 108.563,
      "duration": 0.563,
      "velocity": 0.71,
      "hand": "right"
    },
    {
      "midi": 64,
      "time": 108.563,
      "duration": 0.563,
      "velocity": 0.71,
      "hand": "right"
    },
    {
      "midi": 56,
      "time": 108.938,
      "duration": 2.063,
      "velocity": 0.71,
      "hand": "left"
    },
    {
      "midi": 77,
      "time": 108.938,
      "duration": 1.688,
      "velocity": 0.54,
      "hand": "right"
    },
    {
      "midi": 59,
      "time": 109.5,
      "duration": 0.563,
      "velocity": 0.71,
      "hand": "left"
    },
    {
      "midi": 62,
      "time": 109.5,
      "duration": 0.563,
      "velocity": 0.71,
      "hand": "right"
    },
    {
      "midi": 59,
      "time": 110.063,
      "duration": 0.563,
      "velocity": 0.71,
      "hand": "left"
    },
    {
      "midi": 62,
      "time": 110.063,
      "duration": 0.563,
      "velocity": 0.71,
      "hand": "right"
    },
    {
      "midi": 59,
      "time": 110.438,
      "duration": 0.563,
      "velocity": 0.71,
      "hand": "left"
    },
    {
      "midi": 62,
      "time": 110.438,
      "duration": 0.563,
      "velocity": 0.71,
      "hand": "right"
    },
    {
      "midi": 76,
      "time": 110.813,
      "duration": 0.188,
      "velocity": 0.54,
      "hand": "right"
    },
    {
      "midi": 77,
      "time": 110.813,
      "duration": 0.188,
      "velocity": 0.54,
      "hand": "right"
    },
    {
      "midi": 56,
      "time": 111,
      "duration": 2.063,
      "velocity": 0.71,
      "hand": "left"
    },
    {
      "midi": 79,
      "time": 111,
      "duration": 0.563,
      "velocity": 0.54,
      "hand": "right"
    },
    {
      "midi": 59,
      "time": 111.563,
      "duration": 0.563,
      "velocity": 0.71,
      "hand": "left"
    },
    {
      "midi": 62,
      "time": 111.563,
      "duration": 0.563,
      "velocity": 0.71,
      "hand": "right"
    },
    {
      "midi": 77,
      "time": 111.563,
      "duration": 0.563,
      "velocity": 0.54,
      "hand": "right"
    },
    {
      "midi": 59,
      "time": 111.938,
      "duration": 0.563,
      "velocity": 0.71,
      "hand": "left"
    },
    {
      "midi": 62,
      "time": 111.938,
      "duration": 0.563,
      "velocity": 0.71,
      "hand": "right"
    },
    {
      "midi": 76,
      "time": 111.938,
      "duration": 0.563,
      "velocity": 0.54,
      "hand": "right"
    },
    {
      "midi": 59,
      "time": 112.5,
      "duration": 0.563,
      "velocity": 0.71,
      "hand": "left"
    },
    {
      "midi": 62,
      "time": 112.5,
      "duration": 0.563,
      "velocity": 0.71,
      "hand": "right"
    },
    {
      "midi": 74,
      "time": 112.5,
      "duration": 0.563,
      "velocity": 0.54,
      "hand": "right"
    },
    {
      "midi": 55,
      "time": 113.063,
      "duration": 2.063,
      "velocity": 0.71,
      "hand": "left"
    },
    {
      "midi": 73,
      "time": 113.063,
      "duration": 0.938,
      "velocity": 0.54,
      "hand": "right"
    },
    {
      "midi": 58,
      "time": 113.438,
      "duration": 0.563,
      "velocity": 0.71,
      "hand": "left"
    },
    {
      "midi": 64,
      "time": 113.438,
      "duration": 0.563,
      "velocity": 0.71,
      "hand": "right"
    },
    {
      "midi": 58,
      "time": 114,
      "duration": 0.563,
      "velocity": 0.71,
      "hand": "left"
    },
    {
      "midi": 64,
      "time": 114,
      "duration": 0.563,
      "velocity": 0.71,
      "hand": "right"
    },
    {
      "midi": 58,
      "time": 114.563,
      "duration": 0.563,
      "velocity": 0.71,
      "hand": "left"
    },
    {
      "midi": 64,
      "time": 114.563,
      "duration": 0.563,
      "velocity": 0.71,
      "hand": "right"
    },
    {
      "midi": 74,
      "time": 114.75,
      "duration": 0.188,
      "velocity": 0.54,
      "hand": "right"
    },
    {
      "midi": 55,
      "time": 114.938,
      "duration": 2.063,
      "velocity": 0.71,
      "hand": "left"
    },
    {
      "midi": 75,
      "time": 114.938,
      "duration": 0.563,
      "velocity": 0.54,
      "hand": "right"
    },
    {
      "midi": 58,
      "time": 115.5,
      "duration": 0.563,
      "velocity": 0.71,
      "hand": "left"
    },
    {
      "midi": 61,
      "time": 115.5,
      "duration": 0.563,
      "velocity": 0.71,
      "hand": "right"
    },
    {
      "midi": 76,
      "time": 115.5,
      "duration": 0.563,
      "velocity": 0.54,
      "hand": "right"
    },
    {
      "midi": 58,
      "time": 116.063,
      "duration": 0.563,
      "velocity": 0.71,
      "hand": "left"
    },
    {
      "midi": 61,
      "time": 116.063,
      "duration": 0.563,
      "velocity": 0.71,
      "hand": "right"
    },
    {
      "midi": 58,
      "time": 116.438,
      "duration": 0.563,
      "velocity": 0.71,
      "hand": "left"
    },
    {
      "midi": 61,
      "time": 116.438,
      "duration": 0.563,
      "velocity": 0.71,
      "hand": "right"
    },
    {
      "midi": 77,
      "time": 116.813,
      "duration": 0.188,
      "velocity": 0.54,
      "hand": "right"
    },
    {
      "midi": 52,
      "time": 117,
      "duration": 2.063,
      "velocity": 0.71,
      "hand": "left"
    },
    {
      "midi": 78,
      "time": 117,
      "duration": 0.563,
      "velocity": 0.54,
      "hand": "right"
    },
    {
      "midi": 58,
      "time": 117.563,
      "duration": 0.563,
      "velocity": 0.71,
      "hand": "left"
    },
    {
      "midi": 61,
      "time": 117.563,
      "duration": 0.563,
      "velocity": 0.71,
      "hand": "right"
    },
    {
      "midi": 79,
      "time": 117.563,
      "duration": 0.563,
      "velocity": 0.6,
      "hand": "right"
    },
    {
      "midi": 58,
      "time": 117.938,
      "duration": 0.563,
      "velocity": 0.71,
      "hand": "left"
    },
    {
      "midi": 61,
      "time": 117.938,
      "duration": 0.563,
      "velocity": 0.71,
      "hand": "right"
    },
    {
      "midi": 58,
      "time": 118.5,
      "duration": 0.563,
      "velocity": 0.71,
      "hand": "left"
    },
    {
      "midi": 61,
      "time": 118.5,
      "duration": 0.563,
      "velocity": 0.71,
      "hand": "right"
    },
    {
      "midi": 81,
      "time": 118.688,
      "duration": 0.188,
      "velocity": 0.72,
      "hand": "right"
    },
    {
      "midi": 49,
      "time": 119.063,
      "duration": 0.938,
      "velocity": 0.71,
      "hand": "left"
    },
    {
      "midi": 52,
      "time": 119.063,
      "duration": 0.938,
      "velocity": 0.71,
      "hand": "left"
    },
    {
      "midi": 55,
      "time": 119.063,
      "duration": 0.938,
      "velocity": 0.71,
      "hand": "left"
    },
    {
      "midi": 84,
      "time": 119.063,
      "duration": 0.563,
      "velocity": 0.75,
      "hand": "right"
    },
    {
      "midi": 82,
      "time": 119.438,
      "duration": 0.563,
      "velocity": 0.75,
      "hand": "right"
    },
    {
      "midi": 81,
      "time": 121.125,
      "duration": 0.188,
      "velocity": 0.75,
      "hand": "right"
    },
    {
      "midi": 83,
      "time": 121.313,
      "duration": 0.188,
      "velocity": 0.75,
      "hand": "right"
    },
    {
      "midi": 84,
      "time": 121.313,
      "duration": 0.188,
      "velocity": 0.75,
      "hand": "right"
    },
    {
      "midi": 79,
      "time": 121.5,
      "duration": 0.188,
      "velocity": 0.75,
      "hand": "right"
    },
    {
      "midi": 81,
      "time": 121.5,
      "duration": 0.188,
      "velocity": 0.75,
      "hand": "right"
    },
    {
      "midi": 77,
      "time": 121.688,
      "duration": 0.188,
      "velocity": 0.75,
      "hand": "right"
    },
    {
      "midi": 74,
      "time": 121.875,
      "duration": 0.188,
      "velocity": 0.75,
      "hand": "right"
    },
    {
      "midi": 76,
      "time": 121.875,
      "duration": 0.188,
      "velocity": 0.75,
      "hand": "right"
    },
    {
      "midi": 73,
      "time": 122.063,
      "duration": 0.188,
      "velocity": 0.75,
      "hand": "right"
    },
    {
      "midi": 76,
      "time": 122.063,
      "duration": 0.188,
      "velocity": 0.75,
      "hand": "right"
    },
    {
      "midi": 69,
      "time": 122.25,
      "duration": 0.188,
      "velocity": 0.75,
      "hand": "right"
    },
    {
      "midi": 70,
      "time": 122.438,
      "duration": 0.188,
      "velocity": 0.75,
      "hand": "right"
    },
    {
      "midi": 72,
      "time": 122.438,
      "duration": 0.188,
      "velocity": 0.75,
      "hand": "right"
    },
    {
      "midi": 69,
      "time": 122.625,
      "duration": 0.188,
      "velocity": 0.75,
      "hand": "right"
    },
    {
      "midi": 65,
      "time": 122.813,
      "duration": 0.188,
      "velocity": 0.75,
      "hand": "right"
    },
    {
      "midi": 67,
      "time": 122.813,
      "duration": 0.188,
      "velocity": 0.75,
      "hand": "right"
    },
    {
      "midi": 62,
      "time": 123,
      "duration": 0.188,
      "velocity": 0.75,
      "hand": "right"
    },
    {
      "midi": 64,
      "time": 123,
      "duration": 0.188,
      "velocity": 0.75,
      "hand": "right"
    },
    {
      "midi": 61,
      "time": 123.188,
      "duration": 0.188,
      "velocity": 0.75,
      "hand": "right"
    },
    {
      "midi": 57,
      "time": 123.375,
      "duration": 0.188,
      "velocity": 0.75,
      "hand": "left"
    },
    {
      "midi": 64,
      "time": 123.375,
      "duration": 0.188,
      "velocity": 0.75,
      "hand": "right"
    },
    {
      "midi": 58,
      "time": 123.563,
      "duration": 0.188,
      "velocity": 0.75,
      "hand": "left"
    },
    {
      "midi": 60,
      "time": 123.563,
      "duration": 0.188,
      "velocity": 0.75,
      "hand": "right"
    },
    {
      "midi": 57,
      "time": 123.75,
      "duration": 0.188,
      "velocity": 0.75,
      "hand": "left"
    },
    {
      "midi": 53,
      "time": 123.938,
      "duration": 0.188,
      "velocity": 0.75,
      "hand": "left"
    },
    {
      "midi": 55,
      "time": 123.938,
      "duration": 0.188,
      "velocity": 0.75,
      "hand": "left"
    },
    {
      "midi": 52,
      "time": 124.125,
      "duration": 0.188,
      "velocity": 0.75,
      "hand": "left"
    },
    {
      "midi": 49,
      "time": 124.313,
      "duration": 0.188,
      "velocity": 0.75,
      "hand": "left"
    },
    {
      "midi": 50,
      "time": 124.313,
      "duration": 0.188,
      "velocity": 0.75,
      "hand": "left"
    },
    {
      "midi": 45,
      "time": 124.5,
      "duration": 0.188,
      "velocity": 0.75,
      "hand": "left"
    },
    {
      "midi": 52,
      "time": 124.5,
      "duration": 0.188,
      "velocity": 0.75,
      "hand": "left"
    },
    {
      "midi": 48,
      "time": 124.688,
      "duration": 0.188,
      "velocity": 0.75,
      "hand": "left"
    },
    {
      "midi": 45,
      "time": 124.875,
      "duration": 0.188,
      "velocity": 0.75,
      "hand": "left"
    },
    {
      "midi": 46,
      "time": 124.875,
      "duration": 0.188,
      "velocity": 0.75,
      "hand": "left"
    },
    {
      "midi": 36,
      "time": 125.063,
      "duration": 0.188,
      "velocity": 0.71,
      "hand": "left"
    },
    {
      "midi": 43,
      "time": 125.063,
      "duration": 0.188,
      "velocity": 0.75,
      "hand": "left"
    },
    {
      "midi": 39,
      "time": 125.25,
      "duration": 0.188,
      "velocity": 0.71,
      "hand": "left"
    },
    {
      "midi": 42,
      "time": 125.438,
      "duration": 0.188,
      "velocity": 0.71,
      "hand": "left"
    },
    {
      "midi": 45,
      "time": 125.438,
      "duration": 0.188,
      "velocity": 0.71,
      "hand": "left"
    },
    {
      "midi": 48,
      "time": 125.625,
      "duration": 0.188,
      "velocity": 0.75,
      "hand": "left"
    },
    {
      "midi": 51,
      "time": 125.813,
      "duration": 0.188,
      "velocity": 0.75,
      "hand": "left"
    },
    {
      "midi": 54,
      "time": 125.813,
      "duration": 0.188,
      "velocity": 0.75,
      "hand": "left"
    },
    {
      "midi": 57,
      "time": 126,
      "duration": 0.188,
      "velocity": 0.75,
      "hand": "left"
    },
    {
      "midi": 60,
      "time": 126,
      "duration": 0.188,
      "velocity": 0.71,
      "hand": "right"
    },
    {
      "midi": 63,
      "time": 126.188,
      "duration": 0.188,
      "velocity": 0.71,
      "hand": "right"
    },
    {
      "midi": 66,
      "time": 126.375,
      "duration": 0.188,
      "velocity": 0.71,
      "hand": "right"
    },
    {
      "midi": 69,
      "time": 126.375,
      "duration": 0.188,
      "velocity": 0.71,
      "hand": "right"
    },
    {
      "midi": 72,
      "time": 126.563,
      "duration": 0.188,
      "velocity": 0.75,
      "hand": "right"
    },
    {
      "midi": 75,
      "time": 126.563,
      "duration": 0.188,
      "velocity": 0.75,
      "hand": "right"
    },
    {
      "midi": 78,
      "time": 126.75,
      "duration": 0.188,
      "velocity": 0.75,
      "hand": "right"
    },
    {
      "midi": 81,
      "time": 126.938,
      "duration": 0.188,
      "velocity": 0.75,
      "hand": "right"
    },
    {
      "midi": 84,
      "time": 126.938,
      "duration": 0.188,
      "velocity": 0.75,
      "hand": "right"
    },
    {
      "midi": 87,
      "time": 127.125,
      "duration": 0.188,
      "velocity": 0.75,
      "hand": "right"
    },
    {
      "midi": 62,
      "time": 127.875,
      "duration": 0.563,
      "velocity": 0.75,
      "hand": "right"
    },
    {
      "midi": 62,
      "time": 128.438,
      "duration": 0.563,
      "velocity": 0.75,
      "hand": "right"
    },
    {
      "midi": 62,
      "time": 128.813,
      "duration": 0.563,
      "velocity": 0.75,
      "hand": "right"
    },
    {
      "midi": 62,
      "time": 129.375,
      "duration": 0.563,
      "velocity": 0.75,
      "hand": "right"
    },
    {
      "midi": 62,
      "time": 129.938,
      "duration": 0.563,
      "velocity": 0.75,
      "hand": "right"
    },
    {
      "midi": 62,
      "time": 130.313,
      "duration": 0.563,
      "velocity": 0.75,
      "hand": "right"
    },
    {
      "midi": 43,
      "time": 130.875,
      "duration": 0.938,
      "velocity": 0.71,
      "hand": "left"
    },
    {
      "midi": 55,
      "time": 130.875,
      "duration": 0.938,
      "velocity": 0.71,
      "hand": "left"
    },
    {
      "midi": 58,
      "time": 130.875,
      "duration": 0.938,
      "velocity": 0.75,
      "hand": "left"
    },
    {
      "midi": 62,
      "time": 130.875,
      "duration": 0.563,
      "velocity": 0.75,
      "hand": "right"
    },
    {
      "midi": 62,
      "time": 131.438,
      "duration": 0.563,
      "velocity": 0.75,
      "hand": "right"
    },
    {
      "midi": 42,
      "time": 131.813,
      "duration": 0.938,
      "velocity": 0.71,
      "hand": "left"
    },
    {
      "midi": 54,
      "time": 131.813,
      "duration": 0.938,
      "velocity": 0.71,
      "hand": "left"
    },
    {
      "midi": 57,
      "time": 131.813,
      "duration": 0.938,
      "velocity": 0.75,
      "hand": "left"
    },
    {
      "midi": 62,
      "time": 131.813,
      "duration": 0.563,
      "velocity": 0.75,
      "hand": "right"
    },
    {
      "midi": 62,
      "time": 132.375,
      "duration": 0.563,
      "velocity": 0.75,
      "hand": "right"
    },
    {
      "midi": 41,
      "time": 132.938,
      "duration": 0.938,
      "velocity": 0.71,
      "hand": "left"
    },
    {
      "midi": 53,
      "time": 132.938,
      "duration": 0.938,
      "velocity": 0.71,
      "hand": "left"
    },
    {
      "midi": 56,
      "time": 132.938,
      "duration": 0.938,
      "velocity": 0.75,
      "hand": "left"
    },
    {
      "midi": 62,
      "time": 132.938,
      "duration": 0.563,
      "velocity": 0.75,
      "hand": "right"
    },
    {
      "midi": 62,
      "time": 133.313,
      "duration": 0.563,
      "velocity": 0.75,
      "hand": "right"
    },
    {
      "midi": 40,
      "time": 133.875,
      "duration": 0.938,
      "velocity": 0.71,
      "hand": "left"
    },
    {
      "midi": 52,
      "time": 133.875,
      "duration": 0.938,
      "velocity": 0.71,
      "hand": "left"
    },
    {
      "midi": 55,
      "time": 133.875,
      "duration": 0.938,
      "velocity": 0.75,
      "hand": "left"
    },
    {
      "midi": 62,
      "time": 133.875,
      "duration": 0.563,
      "velocity": 0.75,
      "hand": "right"
    },
    {
      "midi": 61,
      "time": 134.438,
      "duration": 0.563,
      "velocity": 0.75,
      "hand": "right"
    },
    {
      "midi": 39,
      "time": 134.813,
      "duration": 0.938,
      "velocity": 0.71,
      "hand": "left"
    },
    {
      "midi": 51,
      "time": 134.813,
      "duration": 0.938,
      "velocity": 0.71,
      "hand": "left"
    },
    {
      "midi": 61,
      "time": 134.813,
      "duration": 0.938,
      "velocity": 0.75,
      "hand": "right"
    },
    {
      "midi": 67,
      "time": 134.813,
      "duration": 0.563,
      "velocity": 0.75,
      "hand": "right"
    },
    {
      "midi": 67,
      "time": 135.375,
      "duration": 0.563,
      "velocity": 0.75,
      "hand": "right"
    },
    {
      "midi": 38,
      "time": 135.938,
      "duration": 3,
      "velocity": 0.71,
      "hand": "left"
    },
    {
      "midi": 50,
      "time": 135.938,
      "duration": 3,
      "velocity": 0.71,
      "hand": "left"
    },
    {
      "midi": 61,
      "time": 135.938,
      "duration": 2.063,
      "velocity": 0.75,
      "hand": "right"
    },
    {
      "midi": 67,
      "time": 135.938,
      "duration": 1.5,
      "velocity": 0.75,
      "hand": "right"
    },
    {
      "midi": 66,
      "time": 137.438,
      "duration": 0.188,
      "velocity": 0.75,
      "hand": "right"
    },
    {
      "midi": 67,
      "time": 137.438,
      "duration": 0.188,
      "velocity": 0.75,
      "hand": "right"
    },
    {
      "midi": 69,
      "time": 137.625,
      "duration": 0.188,
      "velocity": 0.75,
      "hand": "right"
    },
    {
      "midi": 62,
      "time": 137.813,
      "duration": 0.938,
      "velocity": 0.75,
      "hand": "right"
    },
    {
      "midi": 66,
      "time": 137.813,
      "duration": 0.938,
      "velocity": 0.75,
      "hand": "right"
    },
    {
      "midi": 67,
      "time": 137.813,
      "duration": 0.188,
      "velocity": 0.75,
      "hand": "right"
    },
    {
      "midi": 69,
      "time": 139.688,
      "duration": 0.188,
      "velocity": 0.54,
      "hand": "right"
    },
    {
      "midi": 67,
      "time": 139.875,
      "duration": 0.188,
      "velocity": 0.54,
      "hand": "right"
    },
    {
      "midi": 66,
      "time": 140.063,
      "duration": 0.188,
      "velocity": 0.54,
      "hand": "right"
    },
    {
      "midi": 60,
      "time": 140.438,
      "duration": 0.563,
      "velocity": 0.71,
      "hand": "right"
    },
    {
      "midi": 63,
      "time": 140.438,
      "duration": 0.563,
      "velocity": 0.71,
      "hand": "right"
    },
    {
      "midi": 69,
      "time": 140.625,
      "duration": 0.188,
      "velocity": 0.54,
      "hand": "right"
    },
    {
      "midi": 60,
      "time": 140.813,
      "duration": 0.563,
      "velocity": 0.71,
      "hand": "right"
    },
    {
      "midi": 63,
      "time": 140.813,
      "duration": 0.563,
      "velocity": 0.71,
      "hand": "right"
    },
    {
      "midi": 67,
      "time": 140.813,
      "duration": 0.188,
      "velocity": 0.54,
      "hand": "right"
    },
    {
      "midi": 66,
      "time": 141.188,
      "duration": 0.188,
      "velocity": 0.54,
      "hand": "right"
    },
    {
      "midi": 60,
      "time": 141.375,
      "duration": 0.563,
      "velocity": 0.71,
      "hand": "right"
    },
    {
      "midi": 63,
      "time": 141.375,
      "duration": 0.563,
      "velocity": 0.71,
      "hand": "right"
    },
    {
      "midi": 69,
      "time": 141.563,
      "duration": 0.188,
      "velocity": 0.54,
      "hand": "right"
    },
    {
      "midi": 60,
      "time": 141.938,
      "duration": 0.563,
      "velocity": 0.71,
      "hand": "right"
    },
    {
      "midi": 63,
      "time": 141.938,
      "duration": 0.563,
      "velocity": 0.71,
      "hand": "right"
    },
    {
      "midi": 67,
      "time": 141.938,
      "duration": 0.188,
      "velocity": 0.54,
      "hand": "right"
    },
    {
      "midi": 66,
      "time": 142.125,
      "duration": 0.188,
      "velocity": 0.54,
      "hand": "right"
    },
    {
      "midi": 60,
      "time": 142.313,
      "duration": 0.563,
      "velocity": 0.71,
      "hand": "right"
    },
    {
      "midi": 63,
      "time": 142.313,
      "duration": 0.563,
      "velocity": 0.71,
      "hand": "right"
    },
    {
      "midi": 69,
      "time": 142.688,
      "duration": 0.188,
      "velocity": 0.54,
      "hand": "right"
    },
    {
      "midi": 60,
      "time": 142.875,
      "duration": 0.563,
      "velocity": 0.71,
      "hand": "right"
    },
    {
      "midi": 63,
      "time": 142.875,
      "duration": 0.563,
      "velocity": 0.71,
      "hand": "right"
    },
    {
      "midi": 72,
      "time": 143.063,
      "duration": 0.188,
      "velocity": 0.54,
      "hand": "right"
    },
    {
      "midi": 60,
      "time": 143.438,
      "duration": 0.563,
      "velocity": 0.71,
      "hand": "right"
    },
    {
      "midi": 63,
      "time": 143.438,
      "duration": 0.563,
      "velocity": 0.71,
      "hand": "right"
    },
    {
      "midi": 66,
      "time": 143.625,
      "duration": 0.188,
      "velocity": 0.54,
      "hand": "right"
    },
    {
      "midi": 69,
      "time": 143.813,
      "duration": 0.188,
      "velocity": 0.54,
      "hand": "right"
    },
    {
      "midi": 67,
      "time": 144.188,
      "duration": 0.188,
      "velocity": 0.54,
      "hand": "right"
    },
    {
      "midi": 58,
      "time": 144.375,
      "duration": 0.563,
      "velocity": 0.71,
      "hand": "left"
    },
    {
      "midi": 62,
      "time": 144.375,
      "duration": 0.563,
      "velocity": 0.71,
      "hand": "right"
    },
    {
      "midi": 70,
      "time": 144.563,
      "duration": 0.188,
      "velocity": 0.54,
      "hand": "right"
    },
    {
      "midi": 58,
      "time": 144.938,
      "duration": 0.563,
      "velocity": 0.71,
      "hand": "left"
    },
    {
      "midi": 62,
      "time": 144.938,
      "duration": 0.563,
      "velocity": 0.71,
      "hand": "right"
    },
    {
      "midi": 69,
      "time": 144.938,
      "duration": 0.188,
      "velocity": 0.54,
      "hand": "right"
    },
    {
      "midi": 67,
      "time": 145.125,
      "duration": 0.188,
      "velocity": 0.54,
      "hand": "right"
    },
    {
      "midi": 58,
      "time": 145.313,
      "duration": 0.563,
      "velocity": 0.71,
      "hand": "left"
    },
    {
      "midi": 62,
      "time": 145.313,
      "duration": 0.563,
      "velocity": 0.71,
      "hand": "right"
    },
    {
      "midi": 70,
      "time": 145.688,
      "duration": 0.188,
      "velocity": 0.54,
      "hand": "right"
    },
    {
      "midi": 58,
      "time": 145.875,
      "duration": 0.563,
      "velocity": 0.71,
      "hand": "left"
    },
    {
      "midi": 62,
      "time": 145.875,
      "duration": 0.563,
      "velocity": 0.71,
      "hand": "right"
    },
    {
      "midi": 69,
      "time": 145.875,
      "duration": 0.188,
      "velocity": 0.54,
      "hand": "right"
    },
    {
      "midi": 67,
      "time": 146.063,
      "duration": 0.188,
      "velocity": 0.54,
      "hand": "right"
    },
    {
      "midi": 58,
      "time": 146.438,
      "duration": 0.563,
      "velocity": 0.71,
      "hand": "left"
    },
    {
      "midi": 62,
      "time": 146.438,
      "duration": 0.563,
      "velocity": 0.71,
      "hand": "right"
    },
    {
      "midi": 70,
      "time": 146.625,
      "duration": 0.188,
      "velocity": 0.54,
      "hand": "right"
    },
    {
      "midi": 58,
      "time": 146.813,
      "duration": 0.563,
      "velocity": 0.71,
      "hand": "left"
    },
    {
      "midi": 62,
      "time": 146.813,
      "duration": 0.563,
      "velocity": 0.71,
      "hand": "right"
    },
    {
      "midi": 74,
      "time": 147.188,
      "duration": 0.188,
      "velocity": 0.54,
      "hand": "right"
    },
    {
      "midi": 58,
      "time": 147.375,
      "duration": 0.563,
      "velocity": 0.71,
      "hand": "left"
    },
    {
      "midi": 62,
      "time": 147.375,
      "duration": 0.563,
      "velocity": 0.71,
      "hand": "right"
    },
    {
      "midi": 67,
      "time": 147.563,
      "duration": 0.188,
      "velocity": 0.54,
      "hand": "right"
    },
    {
      "midi": 70,
      "time": 147.938,
      "duration": 0.188,
      "velocity": 0.54,
      "hand": "right"
    },
    {
      "midi": 69,
      "time": 148.125,
      "duration": 0.188,
      "velocity": 0.54,
      "hand": "right"
    },
    {
      "midi": 54,
      "time": 148.313,
      "duration": 0.563,
      "velocity": 0.71,
      "hand": "left"
    },
    {
      "midi": 62,
      "time": 148.313,
      "duration": 0.563,
      "velocity": 0.71,
      "hand": "right"
    },
    {
      "midi": 72,
      "time": 148.688,
      "duration": 0.188,
      "velocity": 0.54,
      "hand": "right"
    },
    {
      "midi": 54,
      "time": 148.875,
      "duration": 0.563,
      "velocity": 0.71,
      "hand": "left"
    },
    {
      "midi": 62,
      "time": 148.875,
      "duration": 0.563,
      "velocity": 0.71,
      "hand": "right"
    },
    {
      "midi": 70,
      "time": 148.875,
      "duration": 0.188,
      "velocity": 0.54,
      "hand": "right"
    },
    {
      "midi": 69,
      "time": 149.063,
      "duration": 0.188,
      "velocity": 0.54,
      "hand": "right"
    },
    {
      "midi": 54,
      "time": 149.438,
      "duration": 0.563,
      "velocity": 0.71,
      "hand": "left"
    },
    {
      "midi": 62,
      "time": 149.438,
      "duration": 0.563,
      "velocity": 0.71,
      "hand": "right"
    },
    {
      "midi": 72,
      "time": 149.625,
      "duration": 0.188,
      "velocity": 0.54,
      "hand": "right"
    },
    {
      "midi": 54,
      "time": 149.813,
      "duration": 0.563,
      "velocity": 0.71,
      "hand": "left"
    },
    {
      "midi": 62,
      "time": 149.813,
      "duration": 0.563,
      "velocity": 0.71,
      "hand": "right"
    },
    {
      "midi": 70,
      "time": 149.813,
      "duration": 0.188,
      "velocity": 0.54,
      "hand": "right"
    },
    {
      "midi": 69,
      "time": 150.188,
      "duration": 0.188,
      "velocity": 0.54,
      "hand": "right"
    },
    {
      "midi": 54,
      "time": 150.375,
      "duration": 0.563,
      "velocity": 0.71,
      "hand": "left"
    },
    {
      "midi": 62,
      "time": 150.375,
      "duration": 0.563,
      "velocity": 0.71,
      "hand": "right"
    },
    {
      "midi": 72,
      "time": 150.563,
      "duration": 0.188,
      "velocity": 0.54,
      "hand": "right"
    },
    {
      "midi": 54,
      "time": 150.938,
      "duration": 0.563,
      "velocity": 0.71,
      "hand": "left"
    },
    {
      "midi": 62,
      "time": 150.938,
      "duration": 0.563,
      "velocity": 0.71,
      "hand": "right"
    },
    {
      "midi": 75,
      "time": 151.125,
      "duration": 0.188,
      "velocity": 0.54,
      "hand": "right"
    },
    {
      "midi": 54,
      "time": 151.313,
      "duration": 0.563,
      "velocity": 0.71,
      "hand": "left"
    },
    {
      "midi": 62,
      "time": 151.313,
      "duration": 0.563,
      "velocity": 0.71,
      "hand": "right"
    },
    {
      "midi": 69,
      "time": 151.688,
      "duration": 0.188,
      "velocity": 0.54,
      "hand": "right"
    },
    {
      "midi": 55,
      "time": 151.875,
      "duration": 0.563,
      "velocity": 0.71,
      "hand": "left"
    },
    {
      "midi": 62,
      "time": 151.875,
      "duration": 0.563,
      "velocity": 0.71,
      "hand": "right"
    },
    {
      "midi": 72,
      "time": 151.875,
      "duration": 0.188,
      "velocity": 0.54,
      "hand": "right"
    },
    {
      "midi": 70,
      "time": 152.063,
      "duration": 0.188,
      "velocity": 0.54,
      "hand": "right"
    },
    {
      "midi": 55,
      "time": 152.438,
      "duration": 0.563,
      "velocity": 0.71,
      "hand": "left"
    },
    {
      "midi": 58,
      "time": 152.438,
      "duration": 0.563,
      "velocity": 0.71,
      "hand": "left"
    },
    {
      "midi": 79,
      "time": 152.625,
      "duration": 0.188,
      "velocity": 0.54,
      "hand": "right"
    },
    {
      "midi": 57,
      "time": 152.813,
      "duration": 0.563,
      "velocity": 0.71,
      "hand": "left"
    },
    {
      "midi": 60,
      "time": 152.813,
      "duration": 0.563,
      "velocity": 0.71,
      "hand": "right"
    },
    {
      "midi": 78,
      "time": 153.188,
      "duration": 0.188,
      "velocity": 0.57,
      "hand": "right"
    },
    {
      "midi": 59,
      "time": 153.375,
      "duration": 0.563,
      "velocity": 0.71,
      "hand": "left"
    },
    {
      "midi": 62,
      "time": 153.375,
      "duration": 0.563,
      "velocity": 0.71,
      "hand": "right"
    },
    {
      "midi": 77,
      "time": 153.563,
      "duration": 0.188,
      "velocity": 0.62,
      "hand": "right"
    },
    {
      "midi": 60,
      "time": 153.938,
      "duration": 0.563,
      "velocity": 0.71,
      "hand": "right"
    },
    {
      "midi": 63,
      "time": 153.938,
      "duration": 0.563,
      "velocity": 0.71,
      "hand": "right"
    },
    {
      "midi": 75,
      "time": 154.125,
      "duration": 0.188,
      "velocity": 0.67,
      "hand": "right"
    },
    {
      "midi": 62,
      "time": 154.313,
      "duration": 0.563,
      "velocity": 0.71,
      "hand": "right"
    },
    {
      "midi": 66,
      "time": 154.313,
      "duration": 0.563,
      "velocity": 0.71,
      "hand": "right"
    },
    {
      "midi": 74,
      "time": 154.688,
      "duration": 0.188,
      "velocity": 0.72,
      "hand": "right"
    },
    {
      "midi": 64,
      "time": 154.875,
      "duration": 0.563,
      "velocity": 0.71,
      "hand": "right"
    },
    {
      "midi": 67,
      "time": 154.875,
      "duration": 0.563,
      "velocity": 0.71,
      "hand": "right"
    },
    {
      "midi": 73,
      "time": 155.063,
      "duration": 0.188,
      "velocity": 0.75,
      "hand": "right"
    },
    {
      "midi": 66,
      "time": 155.438,
      "duration": 0.563,
      "velocity": 0.71,
      "hand": "right"
    },
    {
      "midi": 69,
      "time": 155.438,
      "duration": 0.563,
      "velocity": 0.71,
      "hand": "right"
    },
    {
      "midi": 72,
      "time": 155.625,
      "duration": 0.188,
      "velocity": 0.54,
      "hand": "right"
    },
    {
      "midi": 67,
      "time": 155.813,
      "duration": 0.563,
      "velocity": 0.71,
      "hand": "right"
    },
    {
      "midi": 70,
      "time": 155.813,
      "duration": 0.188,
      "velocity": 0.54,
      "hand": "right"
    },
    {
      "midi": 74,
      "time": 156.188,
      "duration": 0.188,
      "velocity": 0.54,
      "hand": "right"
    },
    {
      "midi": 55,
      "time": 156.375,
      "duration": 0.563,
      "velocity": 0.71,
      "hand": "left"
    },
    {
      "midi": 58,
      "time": 156.375,
      "duration": 0.563,
      "velocity": 0.71,
      "hand": "left"
    },
    {
      "midi": 79,
      "time": 156.563,
      "duration": 0.188,
      "velocity": 0.54,
      "hand": "right"
    },
    {
      "midi": 57,
      "time": 156.938,
      "duration": 0.563,
      "velocity": 0.71,
      "hand": "left"
    },
    {
      "midi": 60,
      "time": 156.938,
      "duration": 0.563,
      "velocity": 0.71,
      "hand": "right"
    },
    {
      "midi": 78,
      "time": 157.125,
      "duration": 0.188,
      "velocity": 0.54,
      "hand": "right"
    },
    {
      "midi": 59,
      "time": 157.313,
      "duration": 0.563,
      "velocity": 0.71,
      "hand": "left"
    },
    {
      "midi": 62,
      "time": 157.313,
      "duration": 0.563,
      "velocity": 0.71,
      "hand": "right"
    },
    {
      "midi": 77,
      "time": 157.688,
      "duration": 0.188,
      "velocity": 0.54,
      "hand": "right"
    },
    {
      "midi": 60,
      "time": 157.875,
      "duration": 0.563,
      "velocity": 0.71,
      "hand": "right"
    },
    {
      "midi": 67,
      "time": 157.875,
      "duration": 0.563,
      "velocity": 0.71,
      "hand": "right"
    },
    {
      "midi": 74,
      "time": 157.875,
      "duration": 0.188,
      "velocity": 0.54,
      "hand": "right"
    },
    {
      "midi": 75,
      "time": 158.063,
      "duration": 0.188,
      "velocity": 0.54,
      "hand": "right"
    },
    {
      "midi": 58,
      "time": 158.438,
      "duration": 0.563,
      "velocity": 0.71,
      "hand": "left"
    },
    {
      "midi": 61,
      "time": 158.438,
      "duration": 0.563,
      "velocity": 0.71,
      "hand": "right"
    },
    {
      "midi": 76,
      "time": 158.625,
      "duration": 0.188,
      "velocity": 0.54,
      "hand": "right"
    },
    {
      "midi": 57,
      "time": 158.813,
      "duration": 0.563,
      "velocity": 0.71,
      "hand": "left"
    },
    {
      "midi": 60,
      "time": 158.813,
      "duration": 0.563,
      "velocity": 0.71,
      "hand": "right"
    },
    {
      "midi": 79,
      "time": 158.813,
      "duration": 0.188,
      "velocity": 0.54,
      "hand": "right"
    },
    {
      "midi": 77,
      "time": 159.188,
      "duration": 0.188,
      "velocity": 0.54,
      "hand": "right"
    },
    {
      "midi": 60,
      "time": 159.375,
      "duration": 0.563,
      "velocity": 0.71,
      "hand": "right"
    },
    {
      "midi": 63,
      "time": 159.375,
      "duration": 0.563,
      "velocity": 0.71,
      "hand": "right"
    },
    {
      "midi": 78,
      "time": 159.563,
      "duration": 0.188,
      "velocity": 0.54,
      "hand": "right"
    },
    {
      "midi": 59,
      "time": 159.938,
      "duration": 0.563,
      "velocity": 0.71,
      "hand": "left"
    },
    {
      "midi": 62,
      "time": 159.938,
      "duration": 0.563,
      "velocity": 0.71,
      "hand": "right"
    },
    {
      "midi": 81,
      "time": 159.938,
      "duration": 0.188,
      "velocity": 0.54,
      "hand": "right"
    },
    {
      "midi": 79,
      "time": 160.125,
      "duration": 0.188,
      "velocity": 0.54,
      "hand": "right"
    },
    {
      "midi": 54,
      "time": 160.313,
      "duration": 0.563,
      "velocity": 0.71,
      "hand": "left"
    },
    {
      "midi": 62,
      "time": 160.313,
      "duration": 0.938,
      "velocity": 0.71,
      "hand": "right"
    },
    {
      "midi": 81,
      "time": 160.688,
      "duration": 0.188,
      "velocity": 0.54,
      "hand": "right"
    },
    {
      "midi": 55,
      "time": 160.875,
      "duration": 0.563,
      "velocity": 0.71,
      "hand": "left"
    },
    {
      "midi": 84,
      "time": 160.875,
      "duration": 0.188,
      "velocity": 0.54,
      "hand": "right"
    },
    {
      "midi": 82,
      "time": 161.063,
      "duration": 0.188,
      "velocity": 0.54,
      "hand": "right"
    },
    {
      "midi": 53,
      "time": 161.438,
      "duration": 0.563,
      "velocity": 0.71,
      "hand": "left"
    },
    {
      "midi": 56,
      "time": 161.438,
      "duration": 0.563,
      "velocity": 0.71,
      "hand": "left"
    },
    {
      "midi": 83,
      "time": 161.625,
      "duration": 0.188,
      "velocity": 0.54,
      "hand": "right"
    },
    {
      "midi": 52,
      "time": 161.813,
      "duration": 0.563,
      "velocity": 0.71,
      "hand": "left"
    },
    {
      "midi": 55,
      "time": 161.813,
      "duration": 0.563,
      "velocity": 0.71,
      "hand": "left"
    },
    {
      "midi": 86,
      "time": 161.813,
      "duration": 0.188,
      "velocity": 0.54,
      "hand": "right"
    },
    {
      "midi": 85,
      "time": 162.188,
      "duration": 0.188,
      "velocity": 0.54,
      "hand": "right"
    },
    {
      "midi": 50,
      "time": 162.375,
      "duration": 0.563,
      "velocity": 0.71,
      "hand": "left"
    },
    {
      "midi": 55,
      "time": 162.375,
      "duration": 0.563,
      "velocity": 0.71,
      "hand": "left"
    },
    {
      "midi": 58,
      "time": 162.375,
      "duration": 0.563,
      "velocity": 0.71,
      "hand": "left"
    },
    {
      "midi": 86,
      "time": 162.563,
      "duration": 0.188,
      "velocity": 0.54,
      "hand": "right"
    },
    {
      "midi": 49,
      "time": 162.938,
      "duration": 0.938,
      "velocity": 0.71,
      "hand": "left"
    },
    {
      "midi": 55,
      "time": 162.938,
      "duration": 0.938,
      "velocity": 0.71,
      "hand": "left"
    },
    {
      "midi": 58,
      "time": 162.938,
      "duration": 0.938,
      "velocity": 0.71,
      "hand": "left"
    },
    {
      "midi": 89,
      "time": 162.938,
      "duration": 0.563,
      "velocity": 0.54,
      "hand": "right"
    },
    {
      "midi": 88,
      "time": 163.313,
      "duration": 0.563,
      "velocity": 0.54,
      "hand": "right"
    },
    {
      "midi": 87,
      "time": 164.063,
      "duration": 0.188,
      "velocity": 0.54,
      "hand": "right"
    },
    {
      "midi": 88,
      "time": 164.063,
      "duration": 0.188,
      "velocity": 0.54,
      "hand": "right"
    },
    {
      "midi": 86,
      "time": 164.25,
      "duration": 0.188,
      "velocity": 0.54,
      "hand": "right"
    },
    {
      "midi": 83,
      "time": 164.438,
      "duration": 0.188,
      "velocity": 0.54,
      "hand": "right"
    },
    {
      "midi": 85,
      "time": 164.438,
      "duration": 0.188,
      "velocity": 0.54,
      "hand": "right"
    },
    {
      "midi": 81,
      "time": 164.625,
      "duration": 0.188,
      "velocity": 0.54,
      "hand": "right"
    },
    {
      "midi": 80,
      "time": 164.813,
      "duration": 0.188,
      "velocity": 0.54,
      "hand": "right"
    },
    {
      "midi": 82,
      "time": 164.813,
      "duration": 0.188,
      "velocity": 0.54,
      "hand": "right"
    },
    {
      "midi": 81,
      "time": 165,
      "duration": 0.188,
      "velocity": 0.54,
      "hand": "right"
    },
    {
      "midi": 82,
      "time": 165.188,
      "duration": 0.188,
      "velocity": 0.54,
      "hand": "right"
    },
    {
      "midi": 84,
      "time": 165.188,
      "duration": 0.188,
      "velocity": 0.54,
      "hand": "right"
    },
    {
      "midi": 81,
      "time": 165.375,
      "duration": 0.188,
      "velocity": 0.54,
      "hand": "right"
    },
    {
      "midi": 77,
      "time": 165.563,
      "duration": 0.188,
      "velocity": 0.54,
      "hand": "right"
    },
    {
      "midi": 79,
      "time": 165.563,
      "duration": 0.188,
      "velocity": 0.54,
      "hand": "right"
    },
    {
      "midi": 76,
      "time": 165.75,
      "duration": 0.188,
      "velocity": 0.54,
      "hand": "right"
    },
    {
      "midi": 73,
      "time": 165.938,
      "duration": 0.188,
      "velocity": 0.54,
      "hand": "right"
    },
    {
      "midi": 74,
      "time": 165.938,
      "duration": 0.188,
      "velocity": 0.54,
      "hand": "right"
    },
    {
      "midi": 71,
      "time": 166.125,
      "duration": 0.188,
      "velocity": 0.54,
      "hand": "right"
    },
    {
      "midi": 68,
      "time": 166.313,
      "duration": 0.188,
      "velocity": 0.54,
      "hand": "right"
    },
    {
      "midi": 69,
      "time": 166.313,
      "duration": 0.188,
      "velocity": 0.54,
      "hand": "right"
    },
    {
      "midi": 70,
      "time": 166.5,
      "duration": 0.188,
      "velocity": 0.54,
      "hand": "right"
    },
    {
      "midi": 69,
      "time": 166.688,
      "duration": 0.188,
      "velocity": 0.54,
      "hand": "right"
    },
    {
      "midi": 72,
      "time": 166.688,
      "duration": 0.188,
      "velocity": 0.54,
      "hand": "right"
    },
    {
      "midi": 70,
      "time": 166.875,
      "duration": 0.188,
      "velocity": 0.54,
      "hand": "right"
    },
    {
      "midi": 67,
      "time": 167.063,
      "duration": 0.188,
      "velocity": 0.54,
      "hand": "right"
    },
    {
      "midi": 69,
      "time": 167.063,
      "duration": 0.188,
      "velocity": 0.54,
      "hand": "right"
    },
    {
      "midi": 65,
      "time": 167.25,
      "duration": 0.188,
      "velocity": 0.54,
      "hand": "right"
    },
    {
      "midi": 62,
      "time": 167.438,
      "duration": 0.188,
      "velocity": 0.54,
      "hand": "right"
    },
    {
      "midi": 64,
      "time": 167.438,
      "duration": 0.188,
      "velocity": 0.54,
      "hand": "right"
    },
    {
      "midi": 61,
      "time": 167.625,
      "duration": 0.188,
      "velocity": 0.54,
      "hand": "right"
    },
    {
      "midi": 57,
      "time": 167.813,
      "duration": 0.188,
      "velocity": 0.54,
      "hand": "left"
    },
    {
      "midi": 59,
      "time": 167.813,
      "duration": 0.188,
      "velocity": 0.54,
      "hand": "left"
    },
    {
      "midi": 56,
      "time": 168,
      "duration": 0.188,
      "velocity": 0.54,
      "hand": "left"
    },
    {
      "midi": 57,
      "time": 168.188,
      "duration": 0.188,
      "velocity": 0.54,
      "hand": "left"
    },
    {
      "midi": 58,
      "time": 168.188,
      "duration": 0.188,
      "velocity": 0.54,
      "hand": "left"
    },
    {
      "midi": 60,
      "time": 168.375,
      "duration": 0.188,
      "velocity": 0.54,
      "hand": "right"
    },
    {
      "midi": 57,
      "time": 168.563,
      "duration": 0.188,
      "velocity": 0.54,
      "hand": "left"
    },
    {
      "midi": 58,
      "time": 168.563,
      "duration": 0.188,
      "velocity": 0.54,
      "hand": "left"
    },
    {
      "midi": 55,
      "time": 168.75,
      "duration": 0.188,
      "velocity": 0.54,
      "hand": "left"
    },
    {
      "midi": 52,
      "time": 168.938,
      "duration": 0.188,
      "velocity": 0.54,
      "hand": "left"
    },
    {
      "midi": 53,
      "time": 168.938,
      "duration": 0.188,
      "velocity": 0.54,
      "hand": "left"
    },
    {
      "midi": 50,
      "time": 169.125,
      "duration": 0.188,
      "velocity": 0.54,
      "hand": "left"
    },
    {
      "midi": 47,
      "time": 169.313,
      "duration": 0.188,
      "velocity": 0.54,
      "hand": "left"
    },
    {
      "midi": 49,
      "time": 169.313,
      "duration": 0.188,
      "velocity": 0.54,
      "hand": "left"
    },
    {
      "midi": 45,
      "time": 169.5,
      "duration": 0.188,
      "velocity": 0.54,
      "hand": "left"
    },
    {
      "midi": 44,
      "time": 169.688,
      "duration": 0.188,
      "velocity": 0.54,
      "hand": "left"
    },
    {
      "midi": 46,
      "time": 169.688,
      "duration": 0.188,
      "velocity": 0.54,
      "hand": "left"
    },
    {
      "midi": 45,
      "time": 169.875,
      "duration": 0.188,
      "velocity": 0.54,
      "hand": "left"
    },
    {
      "midi": 46,
      "time": 170.063,
      "duration": 0.188,
      "velocity": 0.54,
      "hand": "left"
    },
    {
      "midi": 48,
      "time": 170.063,
      "duration": 0.188,
      "velocity": 0.54,
      "hand": "left"
    },
    {
      "midi": 45,
      "time": 170.25,
      "duration": 0.188,
      "velocity": 0.54,
      "hand": "left"
    },
    {
      "midi": 41,
      "time": 170.438,
      "duration": 0.188,
      "velocity": 0.54,
      "hand": "left"
    },
    {
      "midi": 43,
      "time": 170.438,
      "duration": 0.188,
      "velocity": 0.54,
      "hand": "left"
    },
    {
      "midi": 40,
      "time": 170.625,
      "duration": 0.188,
      "velocity": 0.54,
      "hand": "left"
    },
    {
      "midi": 33,
      "time": 170.813,
      "duration": 2.063,
      "velocity": 0.71,
      "hand": "left"
    },
    {
      "midi": 38,
      "time": 170.813,
      "duration": 0.188,
      "velocity": 0.54,
      "hand": "left"
    },
    {
      "midi": 45,
      "time": 171.938,
      "duration": 1.313,
      "velocity": 0.54,
      "hand": "left"
    },
    {
      "midi": 47,
      "time": 173.063,
      "duration": 0.188,
      "velocity": 0.54,
      "hand": "left"
    },
    {
      "midi": 45,
      "time": 173.438,
      "duration": 0.188,
      "velocity": 0.54,
      "hand": "left"
    },
    {
      "midi": 44,
      "time": 173.625,
      "duration": 0.188,
      "velocity": 0.54,
      "hand": "left"
    },
    {
      "midi": 45,
      "time": 173.813,
      "duration": 0.563,
      "velocity": 0.54,
      "hand": "left"
    },
    {
      "midi": 46,
      "time": 174.375,
      "duration": 0.188,
      "velocity": 0.54,
      "hand": "left"
    },
    {
      "midi": 47,
      "time": 174.563,
      "duration": 0.188,
      "velocity": 0.54,
      "hand": "left"
    },
    {
      "midi": 48,
      "time": 174.563,
      "duration": 0.188,
      "velocity": 0.54,
      "hand": "left"
    },
    {
      "midi": 49,
      "time": 174.75,
      "duration": 0.188,
      "velocity": 0.54,
      "hand": "left"
    },
    {
      "midi": 50,
      "time": 174.938,
      "duration": 0.188,
      "velocity": 0.54,
      "hand": "left"
    },
    {
      "midi": 51,
      "time": 174.938,
      "duration": 0.188,
      "velocity": 0.54,
      "hand": "left"
    },
    {
      "midi": 52,
      "time": 175.125,
      "duration": 0.188,
      "velocity": 0.54,
      "hand": "left"
    },
    {
      "midi": 53,
      "time": 175.313,
      "duration": 0.188,
      "velocity": 0.54,
      "hand": "left"
    },
    {
      "midi": 54,
      "time": 175.313,
      "duration": 0.188,
      "velocity": 0.54,
      "hand": "left"
    },
    {
      "midi": 55,
      "time": 175.5,
      "duration": 0.188,
      "velocity": 0.54,
      "hand": "left"
    },
    {
      "midi": 56,
      "time": 175.688,
      "duration": 0.188,
      "velocity": 0.54,
      "hand": "left"
    },
    {
      "midi": 57,
      "time": 175.688,
      "duration": 0.188,
      "velocity": 0.54,
      "hand": "left"
    },
    {
      "midi": 58,
      "time": 175.875,
      "duration": 0.188,
      "velocity": 0.54,
      "hand": "left"
    },
    {
      "midi": 59,
      "time": 176.063,
      "duration": 0.188,
      "velocity": 0.54,
      "hand": "left"
    },
    {
      "midi": 60,
      "time": 176.063,
      "duration": 0.188,
      "velocity": 0.54,
      "hand": "right"
    },
    {
      "midi": 61,
      "time": 176.25,
      "duration": 0.188,
      "velocity": 0.54,
      "hand": "right"
    },
    {
      "midi": 62,
      "time": 176.438,
      "duration": 0.188,
      "velocity": 0.54,
      "hand": "right"
    },
    {
      "midi": 63,
      "time": 176.438,
      "duration": 0.188,
      "velocity": 0.54,
      "hand": "right"
    },
    {
      "midi": 64,
      "time": 176.625,
      "duration": 0.188,
      "velocity": 0.54,
      "hand": "right"
    },
    {
      "midi": 65,
      "time": 176.813,
      "duration": 0.188,
      "velocity": 0.54,
      "hand": "right"
    },
    {
      "midi": 66,
      "time": 176.813,
      "duration": 0.188,
      "velocity": 0.54,
      "hand": "right"
    },
    {
      "midi": 67,
      "time": 177,
      "duration": 0.188,
      "velocity": 0.54,
      "hand": "right"
    },
    {
      "midi": 68,
      "time": 177.188,
      "duration": 0.188,
      "velocity": 0.54,
      "hand": "right"
    },
    {
      "midi": 69,
      "time": 177.188,
      "duration": 0.188,
      "velocity": 0.54,
      "hand": "right"
    },
    {
      "midi": 70,
      "time": 177.375,
      "duration": 0.188,
      "velocity": 0.54,
      "hand": "right"
    },
    {
      "midi": 71,
      "time": 177.563,
      "duration": 0.188,
      "velocity": 0.54,
      "hand": "right"
    },
    {
      "midi": 72,
      "time": 177.563,
      "duration": 0.188,
      "velocity": 0.54,
      "hand": "right"
    },
    {
      "midi": 73,
      "time": 177.75,
      "duration": 0.188,
      "velocity": 0.54,
      "hand": "right"
    },
    {
      "midi": 74,
      "time": 177.938,
      "duration": 0.188,
      "velocity": 0.54,
      "hand": "right"
    },
    {
      "midi": 75,
      "time": 177.938,
      "duration": 0.188,
      "velocity": 0.54,
      "hand": "right"
    },
    {
      "midi": 76,
      "time": 178.125,
      "duration": 0.188,
      "velocity": 0.54,
      "hand": "right"
    },
    {
      "midi": 62,
      "time": 178.313,
      "duration": 2.063,
      "velocity": 0.71,
      "hand": "right"
    },
    {
      "midi": 77,
      "time": 178.313,
      "duration": 1.688,
      "velocity": 0.54,
      "hand": "right"
    },
    {
      "midi": 65,
      "time": 178.688,
      "duration": 0.563,
      "velocity": 0.71,
      "hand": "right"
    },
    {
      "midi": 69,
      "time": 178.688,
      "duration": 0.563,
      "velocity": 0.71,
      "hand": "right"
    },
    {
      "midi": 65,
      "time": 179.25,
      "duration": 0.563,
      "velocity": 0.71,
      "hand": "right"
    },
    {
      "midi": 69,
      "time": 179.25,
      "duration": 0.563,
      "velocity": 0.71,
      "hand": "right"
    },
    {
      "midi": 65,
      "time": 179.813,
      "duration": 0.563,
      "velocity": 0.71,
      "hand": "right"
    },
    {
      "midi": 69,
      "time": 179.813,
      "duration": 0.563,
      "velocity": 0.71,
      "hand": "right"
    },
    {
      "midi": 76,
      "time": 180,
      "duration": 0.188,
      "velocity": 0.54,
      "hand": "right"
    },
    {
      "midi": 62,
      "time": 180.188,
      "duration": 2.063,
      "velocity": 0.71,
      "hand": "right"
    },
    {
      "midi": 77,
      "time": 180.188,
      "duration": 0.188,
      "velocity": 0.54,
      "hand": "right"
    },
    {
      "midi": 79,
      "time": 180.188,
      "duration": 0.563,
      "velocity": 0.54,
      "hand": "right"
    },
    {
      "midi": 65,
      "time": 180.75,
      "duration": 0.563,
      "velocity": 0.71,
      "hand": "right"
    },
    {
      "midi": 69,
      "time": 180.75,
      "duration": 0.563,
      "velocity": 0.71,
      "hand": "right"
    },
    {
      "midi": 77,
      "time": 180.75,
      "duration": 0.563,
      "velocity": 0.54,
      "hand": "right"
    },
    {
      "midi": 65,
      "time": 181.313,
      "duration": 0.563,
      "velocity": 0.71,
      "hand": "right"
    },
    {
      "midi": 69,
      "time": 181.313,
      "duration": 0.563,
      "velocity": 0.71,
      "hand": "right"
    },
    {
      "midi": 76,
      "time": 181.313,
      "duration": 0.563,
      "velocity": 0.54,
      "hand": "right"
    },
    {
      "midi": 65,
      "time": 181.688,
      "duration": 0.563,
      "velocity": 0.71,
      "hand": "right"
    },
    {
      "midi": 69,
      "time": 181.688,
      "duration": 0.563,
      "velocity": 0.71,
      "hand": "right"
    },
    {
      "midi": 74,
      "time": 181.688,
      "duration": 0.563,
      "velocity": 0.54,
      "hand": "right"
    },
    {
      "midi": 64,
      "time": 182.25,
      "duration": 2.063,
      "velocity": 0.71,
      "hand": "right"
    },
    {
      "midi": 73,
      "time": 182.25,
      "duration": 0.938,
      "velocity": 0.54,
      "hand": "right"
    },
    {
      "midi": 67,
      "time": 182.813,
      "duration": 0.563,
      "velocity": 0.71,
      "hand": "right"
    },
    {
      "midi": 69,
      "time": 182.813,
      "duration": 0.563,
      "velocity": 0.71,
      "hand": "right"
    },
    {
      "midi": 67,
      "time": 183.188,
      "duration": 0.563,
      "velocity": 0.71,
      "hand": "right"
    },
    {
      "midi": 69,
      "time": 183.188,
      "duration": 0.563,
      "velocity": 0.71,
      "hand": "right"
    },
    {
      "midi": 67,
      "time": 183.75,
      "duration": 0.563,
      "velocity": 0.71,
      "hand": "right"
    },
    {
      "midi": 69,
      "time": 183.75,
      "duration": 0.563,
      "velocity": 0.71,
      "hand": "right"
    },
    {
      "midi": 74,
      "time": 183.938,
      "duration": 0.188,
      "velocity": 0.54,
      "hand": "right"
    },
    {
      "midi": 64,
      "time": 184.313,
      "duration": 2.063,
      "velocity": 0.71,
      "hand": "right"
    },
    {
      "midi": 75,
      "time": 184.313,
      "duration": 0.563,
      "velocity": 0.54,
      "hand": "right"
    },
    {
      "midi": 67,
      "time": 184.688,
      "duration": 0.563,
      "velocity": 0.71,
      "hand": "right"
    },
    {
      "midi": 69,
      "time": 184.688,
      "duration": 0.563,
      "velocity": 0.71,
      "hand": "right"
    },
    {
      "midi": 76,
      "time": 184.688,
      "duration": 0.563,
      "velocity": 0.54,
      "hand": "right"
    },
    {
      "midi": 67,
      "time": 185.25,
      "duration": 0.563,
      "velocity": 0.71,
      "hand": "right"
    },
    {
      "midi": 69,
      "time": 185.25,
      "duration": 0.563,
      "velocity": 0.71,
      "hand": "right"
    },
    {
      "midi": 67,
      "time": 185.813,
      "duration": 0.563,
      "velocity": 0.71,
      "hand": "right"
    },
    {
      "midi": 69,
      "time": 185.813,
      "duration": 0.563,
      "velocity": 0.71,
      "hand": "right"
    },
    {
      "midi": 61,
      "time": 186.188,
      "duration": 2.063,
      "velocity": 0.71,
      "hand": "right"
    },
    {
      "midi": 79,
      "time": 186.188,
      "duration": 1.688,
      "velocity": 0.54,
      "hand": "right"
    },
    {
      "midi": 64,
      "time": 186.75,
      "duration": 0.563,
      "velocity": 0.71,
      "hand": "right"
    },
    {
      "midi": 69,
      "time": 186.75,
      "duration": 0.563,
      "velocity": 0.71,
      "hand": "right"
    },
    {
      "midi": 64,
      "time": 187.313,
      "duration": 0.563,
      "velocity": 0.71,
      "hand": "right"
    },
    {
      "midi": 69,
      "time": 187.313,
      "duration": 0.563,
      "velocity": 0.71,
      "hand": "right"
    },
    {
      "midi": 64,
      "time": 187.688,
      "duration": 0.563,
      "velocity": 0.71,
      "hand": "right"
    },
    {
      "midi": 69,
      "time": 187.688,
      "duration": 0.563,
      "velocity": 0.71,
      "hand": "right"
    },
    {
      "midi": 78,
      "time": 188.063,
      "duration": 0.188,
      "velocity": 0.54,
      "hand": "right"
    },
    {
      "midi": 79,
      "time": 188.063,
      "duration": 0.188,
      "velocity": 0.54,
      "hand": "right"
    },
    {
      "midi": 61,
      "time": 188.25,
      "duration": 2.063,
      "velocity": 0.71,
      "hand": "right"
    },
    {
      "midi": 81,
      "time": 188.25,
      "duration": 0.563,
      "velocity": 0.54,
      "hand": "right"
    },
    {
      "midi": 64,
      "time": 188.813,
      "duration": 0.563,
      "velocity": 0.71,
      "hand": "right"
    },
    {
      "midi": 69,
      "time": 188.813,
      "duration": 0.563,
      "velocity": 0.71,
      "hand": "right"
    },
    {
      "midi": 79,
      "time": 188.813,
      "duration": 0.563,
      "velocity": 0.54,
      "hand": "right"
    },
    {
      "midi": 64,
      "time": 189.188,
      "duration": 0.563,
      "velocity": 0.71,
      "hand": "right"
    },
    {
      "midi": 69,
      "time": 189.188,
      "duration": 0.563,
      "velocity": 0.71,
      "hand": "right"
    },
    {
      "midi": 77,
      "time": 189.188,
      "duration": 0.563,
      "velocity": 0.54,
      "hand": "right"
    },
    {
      "midi": 64,
      "time": 189.75,
      "duration": 0.563,
      "velocity": 0.71,
      "hand": "right"
    },
    {
      "midi": 69,
      "time": 189.75,
      "duration": 0.563,
      "velocity": 0.71,
      "hand": "right"
    },
    {
      "midi": 76,
      "time": 189.75,
      "duration": 0.563,
      "velocity": 0.54,
      "hand": "right"
    },
    {
      "midi": 62,
      "time": 190.313,
      "duration": 2.063,
      "velocity": 0.71,
      "hand": "right"
    },
    {
      "midi": 74,
      "time": 190.313,
      "duration": 0.938,
      "velocity": 0.54,
      "hand": "right"
    },
    {
      "midi": 65,
      "time": 190.688,
      "duration": 0.563,
      "velocity": 0.71,
      "hand": "right"
    },
    {
      "midi": 69,
      "time": 190.688,
      "duration": 0.563,
      "velocity": 0.71,
      "hand": "right"
    },
    {
      "midi": 65,
      "time": 191.25,
      "duration": 0.563,
      "velocity": 0.71,
      "hand": "right"
    },
    {
      "midi": 69,
      "time": 191.25,
      "duration": 0.563,
      "velocity": 0.71,
      "hand": "right"
    },
    {
      "midi": 65,
      "time": 191.813,
      "duration": 0.563,
      "velocity": 0.71,
      "hand": "right"
    },
    {
      "midi": 69,
      "time": 191.813,
      "duration": 0.563,
      "velocity": 0.71,
      "hand": "right"
    },
    {
      "midi": 76,
      "time": 192,
      "duration": 0.188,
      "velocity": 0.54,
      "hand": "right"
    },
    {
      "midi": 62,
      "time": 192.188,
      "duration": 2.063,
      "velocity": 0.71,
      "hand": "right"
    },
    {
      "midi": 79,
      "time": 192.188,
      "duration": 0.563,
      "velocity": 0.54,
      "hand": "right"
    },
    {
      "midi": 65,
      "time": 192.75,
      "duration": 0.563,
      "velocity": 0.71,
      "hand": "right"
    },
    {
      "midi": 69,
      "time": 192.75,
      "duration": 0.563,
      "velocity": 0.71,
      "hand": "right"
    },
    {
      "midi": 77,
      "time": 192.75,
      "duration": 0.563,
      "velocity": 0.54,
      "hand": "right"
    },
    {
      "midi": 65,
      "time": 193.313,
      "duration": 0.563,
      "velocity": 0.71,
      "hand": "right"
    },
    {
      "midi": 69,
      "time": 193.313,
      "duration": 0.563,
      "velocity": 0.71,
      "hand": "right"
    },
    {
      "midi": 65,
      "time": 193.688,
      "duration": 0.563,
      "velocity": 0.71,
      "hand": "right"
    },
    {
      "midi": 69,
      "time": 193.688,
      "duration": 0.563,
      "velocity": 0.71,
      "hand": "right"
    },
    {
      "midi": 69,
      "time": 194.25,
      "duration": 2.063,
      "velocity": 0.75,
      "hand": "right"
    },
    {
      "midi": 81,
      "time": 194.25,
      "duration": 2.063,
      "velocity": 0.75,
      "hand": "right"
    },
    {
      "midi": 53,
      "time": 195.188,
      "duration": 0.938,
      "velocity": 0.71,
      "hand": "left"
    },
    {
      "midi": 57,
      "time": 195.188,
      "duration": 0.938,
      "velocity": 0.71,
      "hand": "left"
    },
    {
      "midi": 62,
      "time": 195.188,
      "duration": 0.938,
      "velocity": 0.71,
      "hand": "right"
    },
    {
      "midi": 52,
      "time": 196.313,
      "duration": 0.563,
      "velocity": 0.71,
      "hand": "left"
    },
    {
      "midi": 55,
      "time": 196.313,
      "duration": 0.563,
      "velocity": 0.71,
      "hand": "left"
    },
    {
      "midi": 61,
      "time": 196.313,
      "duration": 0.563,
      "velocity": 0.71,
      "hand": "right"
    },
    {
      "midi": 70,
      "time": 196.313,
      "duration": 0.563,
      "velocity": 0.75,
      "hand": "right"
    },
    {
      "midi": 82,
      "time": 196.313,
      "duration": 0.563,
      "velocity": 0.75,
      "hand": "right"
    },
    {
      "midi": 81,
      "time": 198.188,
      "duration": 0.75,
      "velocity": 0.54,
      "hand": "right"
    },
    {
      "midi": 86,
      "time": 198.938,
      "duration": 0.188,
      "velocity": 0.54,
      "hand": "right"
    },
    {
      "midi": 65,
      "time": 199.313,
      "duration": 0.938,
      "velocity": 0.71,
      "hand": "right"
    },
    {
      "midi": 74,
      "time": 199.313,
      "duration": 0.938,
      "velocity": 0.71,
      "hand": "right"
    },
    {
      "midi": 85,
      "time": 199.313,
      "duration": 0.375,
      "velocity": 0.54,
      "hand": "right"
    },
    {
      "midi": 84,
      "time": 199.5,
      "duration": 0.375,
      "velocity": 0.54,
      "hand": "right"
    },
    {
      "midi": 83,
      "time": 199.875,
      "duration": 0.375,
      "velocity": 0.54,
      "hand": "right"
    },
    {
      "midi": 67,
      "time": 200.25,
      "duration": 0.938,
      "velocity": 0.71,
      "hand": "right"
    },
    {
      "midi": 73,
      "time": 200.25,
      "duration": 0.938,
      "velocity": 0.71,
      "hand": "right"
    },
    {
      "midi": 82,
      "time": 200.25,
      "duration": 0.938,
      "velocity": 0.54,
      "hand": "right"
    },
    {
      "midi": 65,
      "time": 201.938,
      "duration": 0.188,
      "velocity": 0.71,
      "hand": "right"
    },
    {
      "midi": 74,
      "time": 201.938,
      "duration": 0.188,
      "velocity": 0.71,
      "hand": "right"
    },
    {
      "midi": 81,
      "time": 201.938,
      "duration": 0.188,
      "velocity": 0.54,
      "hand": "right"
    },
    {
      "midi": 64,
      "time": 202.313,
      "duration": 0.938,
      "velocity": 0.71,
      "hand": "right"
    },
    {
      "midi": 74,
      "time": 202.313,
      "duration": 0.938,
      "velocity": 0.71,
      "hand": "right"
    },
    {
      "midi": 81,
      "time": 202.313,
      "duration": 0.563,
      "velocity": 0.54,
      "hand": "right"
    },
    {
      "midi": 80,
      "time": 202.688,
      "duration": 0.563,
      "velocity": 0.54,
      "hand": "right"
    },
    {
      "midi": 80,
      "time": 204,
      "duration": 0.188,
      "velocity": 0.54,
      "hand": "right"
    },
    {
      "midi": 69,
      "time": 204.188,
      "duration": 0.938,
      "velocity": 0.71,
      "hand": "right"
    },
    {
      "midi": 73,
      "time": 204.188,
      "duration": 0.938,
      "velocity": 0.71,
      "hand": "right"
    },
    {
      "midi": 88,
      "time": 204.188,
      "duration": 0.563,
      "velocity": 0.54,
      "hand": "right"
    },
    {
      "midi": 79,
      "time": 204.75,
      "duration": 0.563,
      "velocity": 0.54,
      "hand": "right"
    },
    {
      "midi": 79,
      "time": 206.063,
      "duration": 0.188,
      "velocity": 0.54,
      "hand": "right"
    },
    {
      "midi": 70,
      "time": 206.25,
      "duration": 0.938,
      "velocity": 0.71,
      "hand": "right"
    },
    {
      "midi": 74,
      "time": 206.25,
      "duration": 0.938,
      "velocity": 0.71,
      "hand": "right"
    },
    {
      "midi": 76,
      "time": 206.25,
      "duration": 0.563,
      "velocity": 0.54,
      "hand": "right"
    },
    {
      "midi": 77,
      "time": 206.813,
      "duration": 0.563,
      "velocity": 0.54,
      "hand": "right"
    },
    {
      "midi": 77,
      "time": 207.938,
      "duration": 0.188,
      "velocity": 0.54,
      "hand": "right"
    },
    {
      "midi": 55,
      "time": 208.313,
      "duration": 3,
      "velocity": 0.71,
      "hand": "left"
    },
    {
      "midi": 58,
      "time": 208.313,
      "duration": 3,
      "velocity": 0.71,
      "hand": "left"
    },
    {
      "midi": 63,
      "time": 208.313,
      "duration": 3,
      "velocity": 0.71,
      "hand": "right"
    },
    {
      "midi": 75,
      "time": 208.313,
      "duration": 1.688,
      "velocity": 0.75,
      "hand": "right"
    },
    {
      "midi": 75,
      "time": 209.813,
      "duration": 0.094,
      "velocity": 0.75,
      "hand": "right"
    },
    {
      "midi": 77,
      "time": 209.813,
      "duration": 0.094,
      "velocity": 0.75,
      "hand": "right"
    },
    {
      "midi": 74,
      "time": 210,
      "duration": 0.094,
      "velocity": 0.75,
      "hand": "right"
    },
    {
      "midi": 75,
      "time": 210,
      "duration": 0.094,
      "velocity": 0.75,
      "hand": "right"
    },
    {
      "midi": 77,
      "time": 210,
      "duration": 0.188,
      "velocity": 0.54,
      "hand": "right"
    },
    {
      "midi": 79,
      "time": 210.188,
      "duration": 0.563,
      "velocity": 0.54,
      "hand": "right"
    },
    {
      "midi": 78,
      "time": 210.938,
      "duration": 0.094,
      "velocity": 0.54,
      "hand": "right"
    },
    {
      "midi": 79,
      "time": 210.938,
      "duration": 0.094,
      "velocity": 0.54,
      "hand": "right"
    },
    {
      "midi": 81,
      "time": 210.938,
      "duration": 0.094,
      "velocity": 0.54,
      "hand": "right"
    },
    {
      "midi": 81,
      "time": 210.938,
      "duration": 0.188,
      "velocity": 0.54,
      "hand": "right"
    },
    {
      "midi": 82,
      "time": 211.313,
      "duration": 0.563,
      "velocity": 0.54,
      "hand": "right"
    },
    {
      "midi": 44,
      "time": 212.25,
      "duration": 0.188,
      "velocity": 0.75,
      "hand": "left"
    },
    {
      "midi": 47,
      "time": 212.438,
      "duration": 0.188,
      "velocity": 0.75,
      "hand": "left"
    },
    {
      "midi": 50,
      "time": 212.438,
      "duration": 0.188,
      "velocity": 0.75,
      "hand": "left"
    },
    {
      "midi": 53,
      "time": 212.625,
      "duration": 0.188,
      "velocity": 0.75,
      "hand": "left"
    },
    {
      "midi": 56,
      "time": 212.813,
      "duration": 0.188,
      "velocity": 0.54,
      "hand": "left"
    },
    {
      "midi": 59,
      "time": 212.813,
      "duration": 0.188,
      "velocity": 0.54,
      "hand": "left"
    },
    {
      "midi": 62,
      "time": 213,
      "duration": 0.188,
      "velocity": 0.54,
      "hand": "right"
    },
    {
      "midi": 65,
      "time": 213.188,
      "duration": 0.188,
      "velocity": 0.54,
      "hand": "right"
    },
    {
      "midi": 68,
      "time": 213.188,
      "duration": 0.188,
      "velocity": 0.75,
      "hand": "right"
    },
    {
      "midi": 71,
      "time": 213.375,
      "duration": 0.188,
      "velocity": 0.75,
      "hand": "right"
    },
    {
      "midi": 74,
      "time": 213.563,
      "duration": 0.188,
      "velocity": 0.75,
      "hand": "right"
    },
    {
      "midi": 77,
      "time": 213.563,
      "duration": 0.188,
      "velocity": 0.75,
      "hand": "right"
    },
    {
      "midi": 80,
      "time": 213.75,
      "duration": 0.188,
      "velocity": 0.54,
      "hand": "right"
    },
    {
      "midi": 83,
      "time": 213.938,
      "duration": 0.188,
      "velocity": 0.54,
      "hand": "right"
    },
    {
      "midi": 86,
      "time": 213.938,
      "duration": 0.188,
      "velocity": 0.54,
      "hand": "right"
    },
    {
      "midi": 89,
      "time": 214.125,
      "duration": 0.188,
      "velocity": 0.54,
      "hand": "right"
    },
    {
      "midi": 57,
      "time": 214.5,
      "duration": 0.563,
      "velocity": 0.75,
      "hand": "left"
    },
    {
      "midi": 65,
      "time": 214.5,
      "duration": 0.563,
      "velocity": 0.75,
      "hand": "right"
    },
    {
      "midi": 69,
      "time": 214.5,
      "duration": 0.563,
      "velocity": 0.54,
      "hand": "right"
    },
    {
      "midi": 74,
      "time": 214.5,
      "duration": 0.563,
      "velocity": 0.54,
      "hand": "right"
    },
    {
      "midi": 81,
      "time": 214.5,
      "duration": 0.563,
      "velocity": 0.54,
      "hand": "right"
    },
    {
      "midi": 33,
      "time": 216.563,
      "duration": 0.563,
      "velocity": 0.75,
      "hand": "left"
    },
    {
      "midi": 45,
      "time": 216.563,
      "duration": 0.563,
      "velocity": 0.75,
      "hand": "left"
    },
    {
      "midi": 52,
      "time": 216.563,
      "duration": 0.563,
      "velocity": 0.54,
      "hand": "left"
    },
    {
      "midi": 55,
      "time": 216.563,
      "duration": 0.563,
      "velocity": 0.54,
      "hand": "left"
    },
    {
      "midi": 61,
      "time": 216.563,
      "duration": 0.563,
      "velocity": 0.54,
      "hand": "right"
    },
    {
      "midi": 62,
      "time": 218.438,
      "duration": 0.938,
      "velocity": 0.75,
      "hand": "right"
    },
    {
      "midi": 66,
      "time": 218.438,
      "duration": 0.938,
      "velocity": 0.75,
      "hand": "right"
    },
    {
      "midi": 69,
      "time": 218.438,
      "duration": 0.563,
      "velocity": 0.54,
      "hand": "right"
    },
    {
      "midi": 78,
      "time": 219,
      "duration": 0.188,
      "velocity": 0.54,
      "hand": "right"
    },
    {
      "midi": 74,
      "time": 219.188,
      "duration": 0.188,
      "velocity": 0.54,
      "hand": "right"
    },
    {
      "midi": 62,
      "time": 219.563,
      "duration": 2.063,
      "velocity": 0.75,
      "hand": "right"
    },
    {
      "midi": 67,
      "time": 219.563,
      "duration": 2.063,
      "velocity": 0.75,
      "hand": "right"
    },
    {
      "midi": 73,
      "time": 219.563,
      "duration": 0.563,
      "velocity": 0.54,
      "hand": "right"
    },
    {
      "midi": 71,
      "time": 219.938,
      "duration": 0.188,
      "velocity": 0.54,
      "hand": "right"
    },
    {
      "midi": 76,
      "time": 220.313,
      "duration": 0.188,
      "velocity": 0.54,
      "hand": "right"
    },
    {
      "midi": 79,
      "time": 220.313,
      "duration": 0.188,
      "velocity": 0.54,
      "hand": "right"
    },
    {
      "midi": 64,
      "time": 220.5,
      "duration": 0.938,
      "velocity": 0.75,
      "hand": "right"
    },
    {
      "midi": 74,
      "time": 220.5,
      "duration": 0.188,
      "velocity": 0.71,
      "hand": "right"
    },
    {
      "midi": 73,
      "time": 220.688,
      "duration": 0.75,
      "velocity": 0.71,
      "hand": "right"
    },
    {
      "midi": 83,
      "time": 221.063,
      "duration": 0.188,
      "velocity": 0.71,
      "hand": "right"
    },
    {
      "midi": 81,
      "time": 221.25,
      "duration": 0.188,
      "velocity": 0.71,
      "hand": "right"
    },
    {
      "midi": 62,
      "time": 221.438,
      "duration": 0.563,
      "velocity": 0.75,
      "hand": "right"
    },
    {
      "midi": 66,
      "time": 221.438,
      "duration": 0.563,
      "velocity": 0.75,
      "hand": "right"
    },
    {
      "midi": 74,
      "time": 221.438,
      "duration": 0.563,
      "velocity": 0.71,
      "hand": "right"
    },
    {
      "midi": 81,
      "time": 221.438,
      "duration": 0.375,
      "velocity": 0.71,
      "hand": "right"
    },
    {
      "midi": 83,
      "time": 221.813,
      "duration": 0.094,
      "velocity": 0.71,
      "hand": "right"
    },
    {
      "midi": 78,
      "time": 222,
      "duration": 0.188,
      "velocity": 0.71,
      "hand": "right"
    },
    {
      "midi": 79,
      "time": 222,
      "duration": 0.094,
      "velocity": 0.71,
      "hand": "right"
    },
    {
      "midi": 81,
      "time": 222.188,
      "duration": 0.188,
      "velocity": 0.71,
      "hand": "right"
    },
    {
      "midi": 78,
      "time": 222.375,
      "duration": 0.188,
      "velocity": 0.71,
      "hand": "right"
    },
    {
      "midi": 68,
      "time": 222.563,
      "duration": 0.188,
      "velocity": 0.75,
      "hand": "right"
    },
    {
      "midi": 74,
      "time": 222.563,
      "duration": 0.188,
      "velocity": 0.75,
      "hand": "right"
    },
    {
      "midi": 76,
      "time": 222.563,
      "duration": 0.188,
      "velocity": 0.54,
      "hand": "right"
    },
    {
      "midi": 68,
      "time": 222.75,
      "duration": 0.188,
      "velocity": 0.75,
      "hand": "right"
    },
    {
      "midi": 74,
      "time": 222.75,
      "duration": 0.188,
      "velocity": 0.75,
      "hand": "right"
    },
    {
      "midi": 76,
      "time": 222.75,
      "duration": 0.188,
      "velocity": 0.54,
      "hand": "right"
    },
    {
      "midi": 68,
      "time": 222.938,
      "duration": 0.188,
      "velocity": 0.75,
      "hand": "right"
    },
    {
      "midi": 74,
      "time": 222.938,
      "duration": 0.188,
      "velocity": 0.75,
      "hand": "right"
    },
    {
      "midi": 76,
      "time": 222.938,
      "duration": 0.188,
      "velocity": 0.54,
      "hand": "right"
    },
    {
      "midi": 68,
      "time": 223.313,
      "duration": 0.188,
      "velocity": 0.75,
      "hand": "right"
    },
    {
      "midi": 74,
      "time": 223.313,
      "duration": 0.188,
      "velocity": 0.75,
      "hand": "right"
    },
    {
      "midi": 76,
      "time": 223.313,
      "duration": 0.188,
      "velocity": 0.54,
      "hand": "right"
    },
    {
      "midi": 69,
      "time": 223.5,
      "duration": 0.188,
      "velocity": 0.75,
      "hand": "right"
    },
    {
      "midi": 73,
      "time": 223.5,
      "duration": 0.188,
      "velocity": 0.75,
      "hand": "right"
    },
    {
      "midi": 76,
      "time": 223.5,
      "duration": 0.188,
      "velocity": 0.54,
      "hand": "right"
    },
    {
      "midi": 81,
      "time": 223.688,
      "duration": 0.188,
      "velocity": 0.54,
      "hand": "right"
    },
    {
      "midi": 62,
      "time": 224.063,
      "duration": 0.188,
      "velocity": 0.75,
      "hand": "right"
    },
    {
      "midi": 66,
      "time": 224.063,
      "duration": 0.188,
      "velocity": 0.75,
      "hand": "right"
    },
    {
      "midi": 71,
      "time": 224.063,
      "duration": 0.188,
      "velocity": 0.54,
      "hand": "right"
    },
    {
      "midi": 78,
      "time": 224.25,
      "duration": 0.188,
      "velocity": 0.54,
      "hand": "right"
    },
    {
      "midi": 52,
      "time": 224.438,
      "duration": 0.938,
      "velocity": 0.71,
      "hand": "left"
    },
    {
      "midi": 61,
      "time": 224.438,
      "duration": 0.563,
      "velocity": 0.71,
      "hand": "right"
    },
    {
      "midi": 69,
      "time": 224.438,
      "duration": 0.563,
      "velocity": 0.54,
      "hand": "right"
    },
    {
      "midi": 62,
      "time": 225,
      "duration": 0.563,
      "velocity": 0.71,
      "hand": "right"
    },
    {
      "midi": 68,
      "time": 225,
      "duration": 0.563,
      "velocity": 0.71,
      "hand": "right"
    },
    {
      "midi": 73,
      "time": 225,
      "duration": 0.375,
      "velocity": 0.71,
      "hand": "right"
    },
    {
      "midi": 71,
      "time": 225.375,
      "duration": 0.188,
      "velocity": 0.71,
      "hand": "right"
    },
    {
      "midi": 57,
      "time": 225.563,
      "duration": 0.563,
      "velocity": 0.75,
      "hand": "left"
    },
    {
      "midi": 61,
      "time": 225.563,
      "duration": 0.563,
      "velocity": 0.75,
      "hand": "right"
    },
    {
      "midi": 69,
      "time": 225.563,
      "duration": 0.563,
      "velocity": 0.71,
      "hand": "right"
    },
    {
      "midi": 74,
      "time": 226.5,
      "duration": 0.563,
      "velocity": 0.54,
      "hand": "right"
    },
    {
      "midi": 54,
      "time": 226.688,
      "duration": 0.188,
      "velocity": 0.75,
      "hand": "left"
    },
    {
      "midi": 57,
      "time": 226.688,
      "duration": 0.188,
      "velocity": 0.75,
      "hand": "left"
    },
    {
      "midi": 52,
      "time": 227.063,
      "duration": 0.188,
      "velocity": 0.75,
      "hand": "left"
    },
    {
      "midi": 55,
      "time": 227.063,
      "duration": 0.188,
      "velocity": 0.75,
      "hand": "left"
    },
    {
      "midi": 76,
      "time": 227.063,
      "duration": 0.188,
      "velocity": 0.54,
      "hand": "right"
    },
    {
      "midi": 50,
      "time": 227.25,
      "duration": 0.188,
      "velocity": 0.75,
      "hand": "left"
    },
    {
      "midi": 54,
      "time": 227.25,
      "duration": 0.188,
      "velocity": 0.75,
      "hand": "left"
    },
    {
      "midi": 78,
      "time": 227.25,
      "duration": 0.188,
      "velocity": 0.54,
      "hand": "right"
    },
    {
      "midi": 55,
      "time": 227.438,
      "duration": 0.938,
      "velocity": 0.71,
      "hand": "left"
    },
    {
      "midi": 62,
      "time": 227.438,
      "duration": 0.188,
      "velocity": 0.71,
      "hand": "right"
    },
    {
      "midi": 71,
      "time": 227.438,
      "duration": 0.75,
      "velocity": 0.54,
      "hand": "right"
    },
    {
      "midi": 63,
      "time": 227.813,
      "duration": 0.188,
      "velocity": 0.71,
      "hand": "right"
    },
    {
      "midi": 64,
      "time": 228,
      "duration": 0.188,
      "velocity": 0.71,
      "hand": "right"
    },
    {
      "midi": 73,
      "time": 228.188,
      "duration": 0.188,
      "velocity": 0.54,
      "hand": "right"
    },
    {
      "midi": 75,
      "time": 228.375,
      "duration": 0.188,
      "velocity": 0.54,
      "hand": "right"
    },
    {
      "midi": 76,
      "time": 228.563,
      "duration": 0.188,
      "velocity": 0.54,
      "hand": "right"
    },
    {
      "midi": 78,
      "time": 228.563,
      "duration": 0.188,
      "velocity": 0.54,
      "hand": "right"
    },
    {
      "midi": 79,
      "time": 228.75,
      "duration": 0.188,
      "velocity": 0.54,
      "hand": "right"
    },
    {
      "midi": 81,
      "time": 228.938,
      "duration": 0.188,
      "velocity": 0.54,
      "hand": "right"
    },
    {
      "midi": 83,
      "time": 228.938,
      "duration": 0.188,
      "velocity": 0.54,
      "hand": "right"
    },
    {
      "midi": 56,
      "time": 229.313,
      "duration": 0.188,
      "velocity": 0.75,
      "hand": "left"
    },
    {
      "midi": 65,
      "time": 229.313,
      "duration": 0.188,
      "velocity": 0.75,
      "hand": "right"
    },
    {
      "midi": 83,
      "time": 229.313,
      "duration": 0.188,
      "velocity": 0.54,
      "hand": "right"
    },
    {
      "midi": 57,
      "time": 229.5,
      "duration": 0.75,
      "velocity": 0.71,
      "hand": "left"
    },
    {
      "midi": 66,
      "time": 229.5,
      "duration": 0.563,
      "velocity": 0.71,
      "hand": "right"
    },
    {
      "midi": 74,
      "time": 229.5,
      "duration": 0.563,
      "velocity": 0.54,
      "hand": "right"
    },
    {
      "midi": 64,
      "time": 230.063,
      "duration": 0.188,
      "velocity": 0.71,
      "hand": "right"
    },
    {
      "midi": 73,
      "time": 230.063,
      "duration": 0.188,
      "velocity": 0.54,
      "hand": "right"
    },
    {
      "midi": 81,
      "time": 230.25,
      "duration": 0.188,
      "velocity": 0.54,
      "hand": "right"
    },
    {
      "midi": 59,
      "time": 230.438,
      "duration": 0.938,
      "velocity": 0.75,
      "hand": "left"
    },
    {
      "midi": 62,
      "time": 230.438,
      "duration": 0.938,
      "velocity": 0.75,
      "hand": "right"
    },
    {
      "midi": 80,
      "time": 230.438,
      "duration": 0.188,
      "velocity": 0.54,
      "hand": "right"
    },
    {
      "midi": 86,
      "time": 230.813,
      "duration": 0.188,
      "velocity": 0.54,
      "hand": "right"
    },
    {
      "midi": 83,
      "time": 231,
      "duration": 0.188,
      "velocity": 0.54,
      "hand": "right"
    },
    {
      "midi": 80,
      "time": 231.188,
      "duration": 0.188,
      "velocity": 0.54,
      "hand": "right"
    },
    {
      "midi": 57,
      "time": 231.563,
      "duration": 0.188,
      "velocity": 0.71,
      "hand": "left"
    },
    {
      "midi": 61,
      "time": 231.563,
      "duration": 0.563,
      "velocity": 0.71,
      "hand": "right"
    },
    {
      "midi": 88,
      "time": 231.563,
      "duration": 0.188,
      "velocity": 0.54,
      "hand": "right"
    },
    {
      "midi": 58,
      "time": 231.75,
      "duration": 0.188,
      "velocity": 0.71,
      "hand": "left"
    },
    {
      "midi": 79,
      "time": 231.75,
      "duration": 0.188,
      "velocity": 0.54,
      "hand": "right"
    },
    {
      "midi": 59,
      "time": 231.938,
      "duration": 0.188,
      "velocity": 0.71,
      "hand": "left"
    },
    {
      "midi": 62,
      "time": 231.938,
      "duration": 0.375,
      "velocity": 0.71,
      "hand": "right"
    },
    {
      "midi": 78,
      "time": 231.938,
      "duration": 0.188,
      "velocity": 0.54,
      "hand": "right"
    },
    {
      "midi": 55,
      "time": 232.313,
      "duration": 0.188,
      "velocity": 0.71,
      "hand": "left"
    },
    {
      "midi": 83,
      "time": 232.313,
      "duration": 0.188,
      "velocity": 0.54,
      "hand": "right"
    },
    {
      "midi": 57,
      "time": 232.5,
      "duration": 0.938,
      "velocity": 0.71,
      "hand": "left"
    },
    {
      "midi": 66,
      "time": 232.5,
      "duration": 0.563,
      "velocity": 0.71,
      "hand": "right"
    },
    {
      "midi": 67,
      "time": 232.5,
      "duration": 0.094,
      "velocity": 0.71,
      "hand": "right"
    },
    {
      "midi": 74,
      "time": 232.5,
      "duration": 0.563,
      "velocity": 0.54,
      "hand": "right"
    },
    {
      "midi": 67,
      "time": 233.063,
      "duration": 0.563,
      "velocity": 0.71,
      "hand": "right"
    },
    {
      "midi": 73,
      "time": 233.063,
      "duration": 0.563,
      "velocity": 0.71,
      "hand": "right"
    },
    {
      "midi": 78,
      "time": 233.063,
      "duration": 0.375,
      "velocity": 0.71,
      "hand": "right"
    },
    {
      "midi": 62,
      "time": 233.438,
      "duration": 0.563,
      "velocity": 0.75,
      "hand": "right"
    },
    {
      "midi": 66,
      "time": 233.438,
      "duration": 0.563,
      "velocity": 0.75,
      "hand": "right"
    },
    {
      "midi": 74,
      "time": 233.438,
      "duration": 0.563,
      "velocity": 0.71,
      "hand": "right"
    },
    {
      "midi": 76,
      "time": 233.438,
      "duration": 0.188,
      "velocity": 0.71,
      "hand": "right"
    },
    {
      "midi": 62,
      "time": 234.563,
      "duration": 0.188,
      "velocity": 0.75,
      "hand": "right"
    },
    {
      "midi": 69,
      "time": 234.563,
      "duration": 0.188,
      "velocity": 0.75,
      "hand": "right"
    },
    {
      "midi": 74,
      "time": 234.563,
      "duration": 0.563,
      "velocity": 0.71,
      "hand": "right"
    },
    {
      "midi": 66,
      "time": 234.75,
      "duration": 0.188,
      "velocity": 0.75,
      "hand": "right"
    },
    {
      "midi": 66,
      "time": 234.938,
      "duration": 0.188,
      "velocity": 0.75,
      "hand": "right"
    },
    {
      "midi": 69,
      "time": 234.938,
      "duration": 0.188,
      "velocity": 0.75,
      "hand": "right"
    },
    {
      "midi": 69,
      "time": 235.125,
      "duration": 0.188,
      "velocity": 0.75,
      "hand": "right"
    },
    {
      "midi": 66,
      "time": 235.313,
      "duration": 0.188,
      "velocity": 0.75,
      "hand": "right"
    },
    {
      "midi": 69,
      "time": 235.313,
      "duration": 0.188,
      "velocity": 0.75,
      "hand": "right"
    },
    {
      "midi": 74,
      "time": 235.313,
      "duration": 0.188,
      "velocity": 0.54,
      "hand": "right"
    },
    {
      "midi": 67,
      "time": 235.5,
      "duration": 0.188,
      "velocity": 0.75,
      "hand": "right"
    },
    {
      "midi": 73,
      "time": 235.5,
      "duration": 0.188,
      "velocity": 0.54,
      "hand": "right"
    },
    {
      "midi": 69,
      "time": 235.688,
      "duration": 0.188,
      "velocity": 0.75,
      "hand": "right"
    },
    {
      "midi": 73,
      "time": 235.688,
      "duration": 0.188,
      "velocity": 0.75,
      "hand": "right"
    },
    {
      "midi": 81,
      "time": 235.688,
      "duration": 0.188,
      "velocity": 0.54,
      "hand": "right"
    },
    {
      "midi": 69,
      "time": 235.875,
      "duration": 0.188,
      "velocity": 0.75,
      "hand": "right"
    },
    {
      "midi": 67,
      "time": 236.063,
      "duration": 0.188,
      "velocity": 0.75,
      "hand": "right"
    },
    {
      "midi": 69,
      "time": 236.063,
      "duration": 0.188,
      "velocity": 0.75,
      "hand": "right"
    },
    {
      "midi": 81,
      "time": 236.063,
      "duration": 0.188,
      "velocity": 0.54,
      "hand": "right"
    },
    {
      "midi": 73,
      "time": 236.25,
      "duration": 0.188,
      "velocity": 0.75,
      "hand": "right"
    },
    {
      "midi": 81,
      "time": 236.25,
      "duration": 0.188,
      "velocity": 0.54,
      "hand": "right"
    },
    {
      "midi": 66,
      "time": 236.438,
      "duration": 0.188,
      "velocity": 0.75,
      "hand": "right"
    },
    {
      "midi": 69,
      "time": 236.438,
      "duration": 0.188,
      "velocity": 0.75,
      "hand": "right"
    },
    {
      "midi": 81,
      "time": 236.438,
      "duration": 0.375,
      "velocity": 0.54,
      "hand": "right"
    },
    {
      "midi": 69,
      "time": 236.625,
      "duration": 0.188,
      "velocity": 0.75,
      "hand": "right"
    },
    {
      "midi": 69,
      "time": 236.813,
      "duration": 0.188,
      "velocity": 0.75,
      "hand": "right"
    },
    {
      "midi": 74,
      "time": 236.813,
      "duration": 0.188,
      "velocity": 0.75,
      "hand": "right"
    },
    {
      "midi": 83,
      "time": 236.813,
      "duration": 0.094,
      "velocity": 0.54,
      "hand": "right"
    },
    {
      "midi": 66,
      "time": 237,
      "duration": 0.188,
      "velocity": 0.75,
      "hand": "right"
    },
    {
      "midi": 85,
      "time": 237,
      "duration": 0.094,
      "velocity": 0.54,
      "hand": "right"
    },
    {
      "midi": 86,
      "time": 237,
      "duration": 0.188,
      "velocity": 0.54,
      "hand": "right"
    },
    {
      "midi": 66,
      "time": 237.188,
      "duration": 0.188,
      "velocity": 0.75,
      "hand": "right"
    },
    {
      "midi": 69,
      "time": 237.188,
      "duration": 0.188,
      "velocity": 0.75,
      "hand": "right"
    },
    {
      "midi": 74,
      "time": 237.188,
      "duration": 0.188,
      "velocity": 0.54,
      "hand": "right"
    },
    {
      "midi": 69,
      "time": 237.375,
      "duration": 0.188,
      "velocity": 0.75,
      "hand": "right"
    },
    {
      "midi": 67,
      "time": 237.563,
      "duration": 0.188,
      "velocity": 0.75,
      "hand": "right"
    },
    {
      "midi": 69,
      "time": 237.563,
      "duration": 0.188,
      "velocity": 0.75,
      "hand": "right"
    },
    {
      "midi": 73,
      "time": 237.563,
      "duration": 0.188,
      "velocity": 0.54,
      "hand": "right"
    },
    {
      "midi": 73,
      "time": 237.75,
      "duration": 0.188,
      "velocity": 0.75,
      "hand": "right"
    },
    {
      "midi": 81,
      "time": 237.75,
      "duration": 0.188,
      "velocity": 0.54,
      "hand": "right"
    },
    {
      "midi": 67,
      "time": 237.938,
      "duration": 0.188,
      "velocity": 0.75,
      "hand": "right"
    },
    {
      "midi": 69,
      "time": 237.938,
      "duration": 0.188,
      "velocity": 0.75,
      "hand": "right"
    },
    {
      "midi": 81,
      "time": 237.938,
      "duration": 0.188,
      "velocity": 0.54,
      "hand": "right"
    },
    {
      "midi": 69,
      "time": 238.125,
      "duration": 0.188,
      "velocity": 0.75,
      "hand": "right"
    },
    {
      "midi": 69,
      "time": 238.313,
      "duration": 0.188,
      "velocity": 0.75,
      "hand": "right"
    },
    {
      "midi": 73,
      "time": 238.313,
      "duration": 0.188,
      "velocity": 0.75,
      "hand": "right"
    },
    {
      "midi": 81,
      "time": 238.313,
      "duration": 0.188,
      "velocity": 0.54,
      "hand": "right"
    },
    {
      "midi": 66,
      "time": 238.5,
      "duration": 0.188,
      "velocity": 0.75,
      "hand": "right"
    },
    {
      "midi": 81,
      "time": 238.5,
      "duration": 0.375,
      "velocity": 0.54,
      "hand": "right"
    },
    {
      "midi": 69,
      "time": 238.688,
      "duration": 0.188,
      "velocity": 0.75,
      "hand": "right"
    },
    {
      "midi": 74,
      "time": 238.688,
      "duration": 0.188,
      "velocity": 0.75,
      "hand": "right"
    },
    {
      "midi": 69,
      "time": 238.875,
      "duration": 0.188,
      "velocity": 0.75,
      "hand": "right"
    },
    {
      "midi": 83,
      "time": 238.875,
      "duration": 0.094,
      "velocity": 0.54,
      "hand": "right"
    },
    {
      "midi": 85,
      "time": 238.875,
      "duration": 0.094,
      "velocity": 0.54,
      "hand": "right"
    },
    {
      "midi": 66,
      "time": 239.063,
      "duration": 0.188,
      "velocity": 0.75,
      "hand": "right"
    },
    {
      "midi": 69,
      "time": 239.063,
      "duration": 0.188,
      "velocity": 0.75,
      "hand": "right"
    },
    {
      "midi": 86,
      "time": 239.063,
      "duration": 0.188,
      "velocity": 0.54,
      "hand": "right"
    },
    {
      "midi": 66,
      "time": 239.25,
      "duration": 0.188,
      "velocity": 0.75,
      "hand": "right"
    },
    {
      "midi": 74,
      "time": 239.25,
      "duration": 0.188,
      "velocity": 0.54,
      "hand": "right"
    },
    {
      "midi": 66,
      "time": 239.438,
      "duration": 0.188,
      "velocity": 0.75,
      "hand": "right"
    },
    {
      "midi": 69,
      "time": 239.438,
      "duration": 0.188,
      "velocity": 0.75,
      "hand": "right"
    },
    {
      "midi": 75,
      "time": 239.438,
      "duration": 0.188,
      "velocity": 0.54,
      "hand": "right"
    },
    {
      "midi": 84,
      "time": 239.438,
      "duration": 0.188,
      "velocity": 0.54,
      "hand": "right"
    },
    {
      "midi": 69,
      "time": 239.625,
      "duration": 0.188,
      "velocity": 0.75,
      "hand": "right"
    },
    {
      "midi": 66,
      "time": 239.813,
      "duration": 0.188,
      "velocity": 0.75,
      "hand": "right"
    },
    {
      "midi": 69,
      "time": 239.813,
      "duration": 0.188,
      "velocity": 0.75,
      "hand": "right"
    },
    {
      "midi": 75,
      "time": 239.813,
      "duration": 0.188,
      "velocity": 0.54,
      "hand": "right"
    },
    {
      "midi": 84,
      "time": 239.813,
      "duration": 0.188,
      "velocity": 0.54,
      "hand": "right"
    },
    {
      "midi": 66,
      "time": 240,
      "duration": 0.188,
      "velocity": 0.75,
      "hand": "right"
    },
    {
      "midi": 75,
      "time": 240,
      "duration": 0.188,
      "velocity": 0.54,
      "hand": "right"
    },
    {
      "midi": 84,
      "time": 240,
      "duration": 0.188,
      "velocity": 0.54,
      "hand": "right"
    },
    {
      "midi": 66,
      "time": 240.188,
      "duration": 0.188,
      "velocity": 0.75,
      "hand": "right"
    },
    {
      "midi": 69,
      "time": 240.188,
      "duration": 0.188,
      "velocity": 0.75,
      "hand": "right"
    },
    {
      "midi": 75,
      "time": 240.188,
      "duration": 0.188,
      "velocity": 0.54,
      "hand": "right"
    },
    {
      "midi": 84,
      "time": 240.188,
      "duration": 0.188,
      "velocity": 0.54,
      "hand": "right"
    },
    {
      "midi": 69,
      "time": 240.375,
      "duration": 0.188,
      "velocity": 0.75,
      "hand": "right"
    },
    {
      "midi": 67,
      "time": 240.563,
      "duration": 0.563,
      "velocity": 0.75,
      "hand": "right"
    },
    {
      "midi": 76,
      "time": 240.563,
      "duration": 0.563,
      "velocity": 0.71,
      "hand": "right"
    },
    {
      "midi": 83,
      "time": 240.563,
      "duration": 0.188,
      "velocity": 0.71,
      "hand": "right"
    },
    {
      "midi": 84,
      "time": 240.563,
      "duration": 0.188,
      "velocity": 0.71,
      "hand": "right"
    },
    {
      "midi": 82,
      "time": 240.75,
      "duration": 0.188,
      "velocity": 0.71,
      "hand": "right"
    },
    {
      "midi": 81,
      "time": 240.938,
      "duration": 0.188,
      "velocity": 0.71,
      "hand": "right"
    },
    {
      "midi": 83,
      "time": 240.938,
      "duration": 0.188,
      "velocity": 0.71,
      "hand": "right"
    },
    {
      "midi": 79,
      "time": 241.125,
      "duration": 0.188,
      "velocity": 0.71,
      "hand": "right"
    },
    {
      "midi": 76,
      "time": 241.313,
      "duration": 0.188,
      "velocity": 0.71,
      "hand": "right"
    },
    {
      "midi": 78,
      "time": 241.313,
      "duration": 0.188,
      "velocity": 0.71,
      "hand": "right"
    },
    {
      "midi": 57,
      "time": 241.5,
      "duration": 0.938,
      "velocity": 0.71,
      "hand": "left"
    },
    {
      "midi": 66,
      "time": 241.5,
      "duration": 0.563,
      "velocity": 0.71,
      "hand": "right"
    },
    {
      "midi": 74,
      "time": 241.5,
      "duration": 0.563,
      "velocity": 0.71,
      "hand": "right"
    },
    {
      "midi": 67,
      "time": 242.063,
      "duration": 0.563,
      "velocity": 0.71,
      "hand": "right"
    },
    {
      "midi": 73,
      "time": 242.063,
      "duration": 0.563,
      "velocity": 0.71,
      "hand": "right"
    },
    {
      "midi": 78,
      "time": 242.063,
      "duration": 0.375,
      "velocity": 0.71,
      "hand": "right"
    },
    {
      "midi": 62,
      "time": 242.438,
      "duration": 0.188,
      "velocity": 0.75,
      "hand": "right"
    },
    {
      "midi": 74,
      "time": 242.438,
      "duration": 0.563,
      "velocity": 0.71,
      "hand": "right"
    },
    {
      "midi": 76,
      "time": 242.438,
      "duration": 0.188,
      "velocity": 0.71,
      "hand": "right"
    },
    {
      "midi": 69,
      "time": 242.625,
      "duration": 0.188,
      "velocity": 0.75,
      "hand": "right"
    },
    {
      "midi": 66,
      "time": 242.813,
      "duration": 0.188,
      "velocity": 0.75,
      "hand": "right"
    },
    {
      "midi": 69,
      "time": 242.813,
      "duration": 0.188,
      "velocity": 0.75,
      "hand": "right"
    },
    {
      "midi": 66,
      "time": 243,
      "duration": 0.188,
      "velocity": 0.75,
      "hand": "right"
    },
    {
      "midi": 66,
      "time": 243.188,
      "duration": 0.188,
      "velocity": 0.75,
      "hand": "right"
    },
    {
      "midi": 69,
      "time": 243.188,
      "duration": 0.188,
      "velocity": 0.75,
      "hand": "right"
    },
    {
      "midi": 74,
      "time": 243.188,
      "duration": 0.188,
      "velocity": 0.54,
      "hand": "right"
    },
    {
      "midi": 69,
      "time": 243.375,
      "duration": 0.188,
      "velocity": 0.75,
      "hand": "right"
    },
    {
      "midi": 67,
      "time": 243.563,
      "duration": 0.188,
      "velocity": 0.75,
      "hand": "right"
    },
    {
      "midi": 69,
      "time": 243.563,
      "duration": 0.188,
      "velocity": 0.75,
      "hand": "right"
    },
    {
      "midi": 73,
      "time": 243.563,
      "duration": 0.188,
      "velocity": 0.54,
      "hand": "right"
    },
    {
      "midi": 73,
      "time": 243.75,
      "duration": 0.188,
      "velocity": 0.75,
      "hand": "right"
    },
    {
      "midi": 81,
      "time": 243.75,
      "duration": 0.188,
      "velocity": 0.54,
      "hand": "right"
    },
    {
      "midi": 67,
      "time": 243.938,
      "duration": 0.188,
      "velocity": 0.75,
      "hand": "right"
    },
    {
      "midi": 69,
      "time": 243.938,
      "duration": 0.188,
      "velocity": 0.75,
      "hand": "right"
    },
    {
      "midi": 81,
      "time": 243.938,
      "duration": 0.188,
      "velocity": 0.54,
      "hand": "right"
    },
    {
      "midi": 69,
      "time": 244.125,
      "duration": 0.188,
      "velocity": 0.75,
      "hand": "right"
    },
    {
      "midi": 69,
      "time": 244.313,
      "duration": 0.188,
      "velocity": 0.75,
      "hand": "right"
    },
    {
      "midi": 73,
      "time": 244.313,
      "duration": 0.188,
      "velocity": 0.75,
      "hand": "right"
    },
    {
      "midi": 81,
      "time": 244.313,
      "duration": 0.188,
      "velocity": 0.54,
      "hand": "right"
    },
    {
      "midi": 66,
      "time": 244.5,
      "duration": 0.188,
      "velocity": 0.75,
      "hand": "right"
    },
    {
      "midi": 81,
      "time": 244.5,
      "duration": 0.375,
      "velocity": 0.54,
      "hand": "right"
    },
    {
      "midi": 69,
      "time": 244.688,
      "duration": 0.188,
      "velocity": 0.75,
      "hand": "right"
    },
    {
      "midi": 74,
      "time": 244.688,
      "duration": 0.188,
      "velocity": 0.75,
      "hand": "right"
    },
    {
      "midi": 69,
      "time": 244.875,
      "duration": 0.188,
      "velocity": 0.75,
      "hand": "right"
    },
    {
      "midi": 83,
      "time": 244.875,
      "duration": 0.094,
      "velocity": 0.54,
      "hand": "right"
    },
    {
      "midi": 85,
      "time": 244.875,
      "duration": 0.094,
      "velocity": 0.54,
      "hand": "right"
    },
    {
      "midi": 66,
      "time": 245.063,
      "duration": 0.188,
      "velocity": 0.75,
      "hand": "right"
    },
    {
      "midi": 69,
      "time": 245.063,
      "duration": 0.188,
      "velocity": 0.75,
      "hand": "right"
    },
    {
      "midi": 86,
      "time": 245.063,
      "duration": 0.188,
      "velocity": 0.54,
      "hand": "right"
    },
    {
      "midi": 66,
      "time": 245.25,
      "duration": 0.188,
      "velocity": 0.75,
      "hand": "right"
    },
    {
      "midi": 74,
      "time": 245.25,
      "duration": 0.188,
      "velocity": 0.54,
      "hand": "right"
    },
    {
      "midi": 67,
      "time": 245.438,
      "duration": 0.188,
      "velocity": 0.75,
      "hand": "right"
    },
    {
      "midi": 69,
      "time": 245.438,
      "duration": 0.188,
      "velocity": 0.75,
      "hand": "right"
    },
    {
      "midi": 73,
      "time": 245.438,
      "duration": 0.188,
      "velocity": 0.54,
      "hand": "right"
    },
    {
      "midi": 69,
      "time": 245.625,
      "duration": 0.188,
      "velocity": 0.75,
      "hand": "right"
    },
    {
      "midi": 69,
      "time": 245.813,
      "duration": 0.188,
      "velocity": 0.75,
      "hand": "right"
    },
    {
      "midi": 73,
      "time": 245.813,
      "duration": 0.188,
      "velocity": 0.75,
      "hand": "right"
    },
    {
      "midi": 81,
      "time": 245.813,
      "duration": 0.188,
      "velocity": 0.54,
      "hand": "right"
    },
    {
      "midi": 67,
      "time": 246,
      "duration": 0.188,
      "velocity": 0.75,
      "hand": "right"
    },
    {
      "midi": 81,
      "time": 246,
      "duration": 0.188,
      "velocity": 0.54,
      "hand": "right"
    },
    {
      "midi": 69,
      "time": 246.188,
      "duration": 0.188,
      "velocity": 0.75,
      "hand": "right"
    },
    {
      "midi": 73,
      "time": 246.188,
      "duration": 0.188,
      "velocity": 0.75,
      "hand": "right"
    },
    {
      "midi": 81,
      "time": 246.188,
      "duration": 0.188,
      "velocity": 0.54,
      "hand": "right"
    },
    {
      "midi": 69,
      "time": 246.375,
      "duration": 0.188,
      "velocity": 0.75,
      "hand": "right"
    },
    {
      "midi": 66,
      "time": 246.563,
      "duration": 0.188,
      "velocity": 0.75,
      "hand": "right"
    },
    {
      "midi": 69,
      "time": 246.563,
      "duration": 0.188,
      "velocity": 0.75,
      "hand": "right"
    },
    {
      "midi": 81,
      "time": 246.563,
      "duration": 0.375,
      "velocity": 0.54,
      "hand": "right"
    },
    {
      "midi": 74,
      "time": 246.75,
      "duration": 0.188,
      "velocity": 0.75,
      "hand": "right"
    },
    {
      "midi": 66,
      "time": 246.938,
      "duration": 0.188,
      "velocity": 0.75,
      "hand": "right"
    },
    {
      "midi": 69,
      "time": 246.938,
      "duration": 0.188,
      "velocity": 0.75,
      "hand": "right"
    },
    {
      "midi": 83,
      "time": 246.938,
      "duration": 0.094,
      "velocity": 0.54,
      "hand": "right"
    },
    {
      "midi": 85,
      "time": 246.938,
      "duration": 0.094,
      "velocity": 0.54,
      "hand": "right"
    },
    {
      "midi": 86,
      "time": 246.938,
      "duration": 0.188,
      "velocity": 0.54,
      "hand": "right"
    },
    {
      "midi": 69,
      "time": 247.125,
      "duration": 0.188,
      "velocity": 0.75,
      "hand": "right"
    },
    {
      "midi": 66,
      "time": 247.313,
      "duration": 0.188,
      "velocity": 0.75,
      "hand": "right"
    },
    {
      "midi": 69,
      "time": 247.313,
      "duration": 0.188,
      "velocity": 0.75,
      "hand": "right"
    },
    {
      "midi": 74,
      "time": 247.313,
      "duration": 0.188,
      "velocity": 0.54,
      "hand": "right"
    },
    {
      "midi": 66,
      "time": 247.5,
      "duration": 0.188,
      "velocity": 0.75,
      "hand": "right"
    },
    {
      "midi": 75,
      "time": 247.5,
      "duration": 0.938,
      "velocity": 0.54,
      "hand": "right"
    },
    {
      "midi": 84,
      "time": 247.5,
      "duration": 0.938,
      "velocity": 0.54,
      "hand": "right"
    },
    {
      "midi": 66,
      "time": 247.688,
      "duration": 0.188,
      "velocity": 0.75,
      "hand": "right"
    },
    {
      "midi": 69,
      "time": 247.688,
      "duration": 0.188,
      "velocity": 0.75,
      "hand": "right"
    },
    {
      "midi": 69,
      "time": 247.875,
      "duration": 0.188,
      "velocity": 0.75,
      "hand": "right"
    },
    {
      "midi": 66,
      "time": 248.063,
      "duration": 0.188,
      "velocity": 0.75,
      "hand": "right"
    },
    {
      "midi": 69,
      "time": 248.063,
      "duration": 0.188,
      "velocity": 0.75,
      "hand": "right"
    },
    {
      "midi": 66,
      "time": 248.25,
      "duration": 0.188,
      "velocity": 0.75,
      "hand": "right"
    },
    {
      "midi": 67,
      "time": 248.438,
      "duration": 0.563,
      "velocity": 0.75,
      "hand": "right"
    },
    {
      "midi": 69,
      "time": 248.438,
      "duration": 0.188,
      "velocity": 0.75,
      "hand": "right"
    },
    {
      "midi": 71,
      "time": 248.438,
      "duration": 0.563,
      "velocity": 0.54,
      "hand": "right"
    },
    {
      "midi": 76,
      "time": 248.438,
      "duration": 0.563,
      "velocity": 0.54,
      "hand": "right"
    },
    {
      "midi": 56,
      "time": 249.563,
      "duration": 0.563,
      "velocity": 0.75,
      "hand": "left"
    },
    {
      "midi": 68,
      "time": 249.563,
      "duration": 0.563,
      "velocity": 0.75,
      "hand": "right"
    },
    {
      "midi": 77,
      "time": 249.563,
      "duration": 0.563,
      "velocity": 0.54,
      "hand": "right"
    },
    {
      "midi": 83,
      "time": 249.563,
      "duration": 0.563,
      "velocity": 0.54,
      "hand": "right"
    },
    {
      "midi": 86,
      "time": 249.563,
      "duration": 0.563,
      "velocity": 0.54,
      "hand": "right"
    },
    {
      "midi": 45,
      "time": 250.5,
      "duration": 1.5,
      "velocity": 0.75,
      "hand": "left"
    },
    {
      "midi": 50,
      "time": 250.5,
      "duration": 1.5,
      "velocity": 0.75,
      "hand": "left"
    },
    {
      "midi": 54,
      "time": 250.5,
      "duration": 1.5,
      "velocity": 0.75,
      "hand": "left"
    },
    {
      "midi": 57,
      "time": 250.5,
      "duration": 1.5,
      "velocity": 0.54,
      "hand": "left"
    },
    {
      "midi": 57,
      "time": 252,
      "duration": 0.188,
      "velocity": 0.54,
      "hand": "left"
    },
    {
      "midi": 59,
      "time": 252,
      "duration": 0.188,
      "velocity": 0.54,
      "hand": "left"
    },
    {
      "midi": 56,
      "time": 252.188,
      "duration": 0.188,
      "velocity": 0.54,
      "hand": "left"
    },
    {
      "midi": 57,
      "time": 252.188,
      "duration": 0.188,
      "velocity": 0.54,
      "hand": "left"
    },
    {
      "midi": 57,
      "time": 252.375,
      "duration": 0.188,
      "velocity": 0.54,
      "hand": "left"
    },
    {
      "midi": 59,
      "time": 252.375,
      "duration": 0.188,
      "velocity": 0.54,
      "hand": "left"
    },
    {
      "midi": 61,
      "time": 252.563,
      "duration": 0.188,
      "velocity": 0.54,
      "hand": "right"
    },
    {
      "midi": 62,
      "time": 252.563,
      "duration": 0.188,
      "velocity": 0.54,
      "hand": "right"
    },
    {
      "midi": 64,
      "time": 252.75,
      "duration": 0.188,
      "velocity": 0.54,
      "hand": "right"
    },
    {
      "midi": 66,
      "time": 252.75,
      "duration": 0.188,
      "velocity": 0.54,
      "hand": "right"
    },
    {
      "midi": 67,
      "time": 252.938,
      "duration": 0.188,
      "velocity": 0.54,
      "hand": "right"
    },
    {
      "midi": 69,
      "time": 252.938,
      "duration": 0.188,
      "velocity": 0.54,
      "hand": "right"
    },
    {
      "midi": 71,
      "time": 253.125,
      "duration": 0.188,
      "velocity": 0.54,
      "hand": "right"
    },
    {
      "midi": 73,
      "time": 253.125,
      "duration": 0.188,
      "velocity": 0.54,
      "hand": "right"
    },
    {
      "midi": 74,
      "time": 253.313,
      "duration": 0.188,
      "velocity": 0.54,
      "hand": "right"
    },
    {
      "midi": 76,
      "time": 253.313,
      "duration": 0.188,
      "velocity": 0.54,
      "hand": "right"
    },
    {
      "midi": 78,
      "time": 253.5,
      "duration": 0.188,
      "velocity": 0.54,
      "hand": "right"
    },
    {
      "midi": 79,
      "time": 253.5,
      "duration": 0.188,
      "velocity": 0.54,
      "hand": "right"
    },
    {
      "midi": 81,
      "time": 253.688,
      "duration": 0.188,
      "velocity": 0.54,
      "hand": "right"
    },
    {
      "midi": 83,
      "time": 253.688,
      "duration": 0.188,
      "velocity": 0.54,
      "hand": "right"
    },
    {
      "midi": 85,
      "time": 253.875,
      "duration": 0.188,
      "velocity": 0.54,
      "hand": "right"
    },
    {
      "midi": 86,
      "time": 253.875,
      "duration": 0.188,
      "velocity": 0.54,
      "hand": "right"
    },
    {
      "midi": 85,
      "time": 254.063,
      "duration": 0.188,
      "velocity": 0.54,
      "hand": "right"
    },
    {
      "midi": 88,
      "time": 254.063,
      "duration": 0.188,
      "velocity": 0.54,
      "hand": "right"
    },
    {
      "midi": 85,
      "time": 254.25,
      "duration": 0.188,
      "velocity": 0.54,
      "hand": "right"
    },
    {
      "midi": 86,
      "time": 254.25,
      "duration": 0.188,
      "velocity": 0.54,
      "hand": "right"
    },
    {
      "midi": 81,
      "time": 254.438,
      "duration": 0.188,
      "velocity": 0.54,
      "hand": "right"
    },
    {
      "midi": 83,
      "time": 254.438,
      "duration": 0.188,
      "velocity": 0.54,
      "hand": "right"
    },
    {
      "midi": 83,
      "time": 254.625,
      "duration": 0.188,
      "velocity": 0.54,
      "hand": "right"
    },
    {
      "midi": 85,
      "time": 254.625,
      "duration": 0.188,
      "velocity": 0.54,
      "hand": "right"
    },
    {
      "midi": 79,
      "time": 254.813,
      "duration": 0.188,
      "velocity": 0.54,
      "hand": "right"
    },
    {
      "midi": 81,
      "time": 254.813,
      "duration": 0.188,
      "velocity": 0.54,
      "hand": "right"
    },
    {
      "midi": 78,
      "time": 255,
      "duration": 0.188,
      "velocity": 0.54,
      "hand": "right"
    },
    {
      "midi": 81,
      "time": 255,
      "duration": 0.188,
      "velocity": 0.54,
      "hand": "right"
    },
    {
      "midi": 78,
      "time": 255.188,
      "duration": 0.188,
      "velocity": 0.54,
      "hand": "right"
    },
    {
      "midi": 79,
      "time": 255.188,
      "duration": 0.188,
      "velocity": 0.54,
      "hand": "right"
    },
    {
      "midi": 75,
      "time": 255.375,
      "duration": 0.188,
      "velocity": 0.54,
      "hand": "right"
    },
    {
      "midi": 76,
      "time": 255.375,
      "duration": 0.188,
      "velocity": 0.54,
      "hand": "right"
    },
    {
      "midi": 76,
      "time": 255.563,
      "duration": 0.188,
      "velocity": 0.54,
      "hand": "right"
    },
    {
      "midi": 78,
      "time": 255.563,
      "duration": 0.188,
      "velocity": 0.54,
      "hand": "right"
    },
    {
      "midi": 76,
      "time": 255.75,
      "duration": 0.188,
      "velocity": 0.54,
      "hand": "right"
    },
    {
      "midi": 79,
      "time": 255.75,
      "duration": 0.188,
      "velocity": 0.54,
      "hand": "right"
    },
    {
      "midi": 76,
      "time": 255.938,
      "duration": 0.188,
      "velocity": 0.54,
      "hand": "right"
    },
    {
      "midi": 76,
      "time": 255.938,
      "duration": 3.188,
      "velocity": 0.54,
      "hand": "right"
    },
    {
      "midi": 57,
      "time": 258.938,
      "duration": 1.688,
      "velocity": 0.75,
      "hand": "left"
    },
    {
      "midi": 61,
      "time": 258.938,
      "duration": 1.688,
      "velocity": 0.75,
      "hand": "right"
    },
    {
      "midi": 67,
      "time": 258.938,
      "duration": 1.688,
      "velocity": 0.75,
      "hand": "right"
    },
    {
      "midi": 75,
      "time": 259.125,
      "duration": 0.188,
      "velocity": 0.54,
      "hand": "right"
    },
    {
      "midi": 76,
      "time": 259.313,
      "duration": 0.188,
      "velocity": 0.54,
      "hand": "right"
    },
    {
      "midi": 78,
      "time": 259.313,
      "duration": 0.188,
      "velocity": 0.54,
      "hand": "right"
    },
    {
      "midi": 76,
      "time": 259.5,
      "duration": 0.188,
      "velocity": 0.54,
      "hand": "right"
    },
    {
      "midi": 79,
      "time": 259.5,
      "duration": 0.188,
      "velocity": 0.54,
      "hand": "right"
    },
    {
      "midi": 78,
      "time": 259.688,
      "duration": 0.188,
      "velocity": 0.54,
      "hand": "right"
    },
    {
      "midi": 81,
      "time": 259.688,
      "duration": 0.188,
      "velocity": 0.54,
      "hand": "right"
    },
    {
      "midi": 79,
      "time": 259.875,
      "duration": 0.188,
      "velocity": 0.54,
      "hand": "right"
    },
    {
      "midi": 76,
      "time": 260.063,
      "duration": 0.188,
      "velocity": 0.54,
      "hand": "right"
    },
    {
      "midi": 78,
      "time": 260.063,
      "duration": 0.188,
      "velocity": 0.54,
      "hand": "right"
    },
    {
      "midi": 79,
      "time": 260.25,
      "duration": 0.188,
      "velocity": 0.54,
      "hand": "right"
    },
    {
      "midi": 76,
      "time": 260.438,
      "duration": 0.188,
      "velocity": 0.54,
      "hand": "right"
    },
    {
      "midi": 78,
      "time": 260.438,
      "duration": 0.188,
      "velocity": 0.54,
      "hand": "right"
    },
    {
      "midi": 74,
      "time": 260.625,
      "duration": 0.188,
      "velocity": 0.54,
      "hand": "right"
    },
    {
      "midi": 78,
      "time": 260.813,
      "duration": 0.188,
      "velocity": 0.54,
      "hand": "right"
    },
    {
      "midi": 76,
      "time": 261,
      "duration": 0.188,
      "velocity": 0.54,
      "hand": "right"
    },
    {
      "midi": 74,
      "time": 261.188,
      "duration": 0.188,
      "velocity": 0.54,
      "hand": "right"
    },
    {
      "midi": 73,
      "time": 261.563,
      "duration": 0.188,
      "velocity": 0.54,
      "hand": "right"
    },
    {
      "midi": 76,
      "time": 261.75,
      "duration": 0.188,
      "velocity": 0.54,
      "hand": "right"
    },
    {
      "midi": 74,
      "time": 261.938,
      "duration": 0.188,
      "velocity": 0.54,
      "hand": "right"
    },
    {
      "midi": 73,
      "time": 262.313,
      "duration": 0.188,
      "velocity": 0.54,
      "hand": "right"
    },
    {
      "midi": 71,
      "time": 262.5,
      "duration": 0.188,
      "velocity": 0.54,
      "hand": "right"
    },
    {
      "midi": 62,
      "time": 262.688,
      "duration": 0.938,
      "velocity": 0.75,
      "hand": "right"
    },
    {
      "midi": 66,
      "time": 262.688,
      "duration": 0.938,
      "velocity": 0.75,
      "hand": "right"
    },
    {
      "midi": 69,
      "time": 262.688,
      "duration": 0.563,
      "velocity": 0.54,
      "hand": "right"
    },
    {
      "midi": 78,
      "time": 263.25,
      "duration": 0.188,
      "velocity": 0.54,
      "hand": "right"
    },
    {
      "midi": 74,
      "time": 263.438,
      "duration": 0.188,
      "velocity": 0.54,
      "hand": "right"
    },
    {
      "midi": 62,
      "time": 263.813,
      "duration": 2.063,
      "velocity": 0.75,
      "hand": "right"
    },
    {
      "midi": 67,
      "time": 263.813,
      "duration": 2.063,
      "velocity": 0.75,
      "hand": "right"
    },
    {
      "midi": 73,
      "time": 263.813,
      "duration": 0.563,
      "velocity": 0.54,
      "hand": "right"
    },
    {
      "midi": 71,
      "time": 264.188,
      "duration": 0.188,
      "velocity": 0.54,
      "hand": "right"
    },
    {
      "midi": 76,
      "time": 264.563,
      "duration": 0.188,
      "velocity": 0.54,
      "hand": "right"
    },
    {
      "midi": 79,
      "time": 264.563,
      "duration": 0.188,
      "velocity": 0.54,
      "hand": "right"
    },
    {
      "midi": 64,
      "time": 264.75,
      "duration": 0.938,
      "velocity": 0.75,
      "hand": "right"
    },
    {
      "midi": 74,
      "time": 264.75,
      "duration": 0.188,
      "velocity": 0.71,
      "hand": "right"
    },
    {
      "midi": 73,
      "time": 264.938,
      "duration": 0.75,
      "velocity": 0.71,
      "hand": "right"
    },
    {
      "midi": 83,
      "time": 265.313,
      "duration": 0.188,
      "velocity": 0.71,
      "hand": "right"
    },
    {
      "midi": 81,
      "time": 265.5,
      "duration": 0.188,
      "velocity": 0.71,
      "hand": "right"
    },
    {
      "midi": 62,
      "time": 265.688,
      "duration": 0.563,
      "velocity": 0.75,
      "hand": "right"
    },
    {
      "midi": 66,
      "time": 265.688,
      "duration": 0.563,
      "velocity": 0.75,
      "hand": "right"
    },
    {
      "midi": 74,
      "time": 265.688,
      "duration": 0.563,
      "velocity": 0.71,
      "hand": "right"
    },
    {
      "midi": 81,
      "time": 265.688,
      "duration": 0.375,
      "velocity": 0.71,
      "hand": "right"
    },
    {
      "midi": 83,
      "time": 266.063,
      "duration": 0.094,
      "velocity": 0.71,
      "hand": "right"
    },
    {
      "midi": 78,
      "time": 266.25,
      "duration": 0.188,
      "velocity": 0.71,
      "hand": "right"
    },
    {
      "midi": 79,
      "time": 266.25,
      "duration": 0.094,
      "velocity": 0.71,
      "hand": "right"
    },
    {
      "midi": 81,
      "time": 266.438,
      "duration": 0.188,
      "velocity": 0.75,
      "hand": "right"
    },
    {
      "midi": 78,
      "time": 266.625,
      "duration": 0.188,
      "velocity": 0.75,
      "hand": "right"
    },
    {
      "midi": 42,
      "time": 266.813,
      "duration": 0.188,
      "velocity": 0.75,
      "hand": "left"
    },
    {
      "midi": 54,
      "time": 266.813,
      "duration": 0.188,
      "velocity": 0.75,
      "hand": "left"
    },
    {
      "midi": 86,
      "time": 266.813,
      "duration": 0.188,
      "velocity": 0.54,
      "hand": "right"
    },
    {
      "midi": 42,
      "time": 267,
      "duration": 0.188,
      "velocity": 0.75,
      "hand": "left"
    },
    {
      "midi": 54,
      "time": 267,
      "duration": 0.188,
      "velocity": 0.75,
      "hand": "left"
    },
    {
      "midi": 74,
      "time": 267,
      "duration": 0.188,
      "velocity": 0.54,
      "hand": "right"
    },
    {
      "midi": 81,
      "time": 267,
      "duration": 0.188,
      "velocity": 0.54,
      "hand": "right"
    },
    {
      "midi": 86,
      "time": 267,
      "duration": 0.188,
      "velocity": 0.54,
      "hand": "right"
    },
    {
      "midi": 42,
      "time": 267.188,
      "duration": 0.188,
      "velocity": 0.75,
      "hand": "left"
    },
    {
      "midi": 54,
      "time": 267.188,
      "duration": 0.188,
      "velocity": 0.75,
      "hand": "left"
    },
    {
      "midi": 74,
      "time": 267.188,
      "duration": 0.188,
      "velocity": 0.54,
      "hand": "right"
    },
    {
      "midi": 81,
      "time": 267.188,
      "duration": 0.188,
      "velocity": 0.54,
      "hand": "right"
    },
    {
      "midi": 86,
      "time": 267.188,
      "duration": 0.188,
      "velocity": 0.54,
      "hand": "right"
    },
    {
      "midi": 42,
      "time": 267.563,
      "duration": 0.188,
      "velocity": 0.75,
      "hand": "left"
    },
    {
      "midi": 54,
      "time": 267.563,
      "duration": 0.188,
      "velocity": 0.75,
      "hand": "left"
    },
    {
      "midi": 74,
      "time": 267.563,
      "duration": 0.188,
      "velocity": 0.54,
      "hand": "right"
    },
    {
      "midi": 81,
      "time": 267.563,
      "duration": 0.188,
      "velocity": 0.54,
      "hand": "right"
    },
    {
      "midi": 86,
      "time": 267.563,
      "duration": 0.188,
      "velocity": 0.54,
      "hand": "right"
    },
    {
      "midi": 43,
      "time": 267.75,
      "duration": 0.563,
      "velocity": 0.75,
      "hand": "left"
    },
    {
      "midi": 55,
      "time": 267.75,
      "duration": 0.563,
      "velocity": 0.75,
      "hand": "left"
    },
    {
      "midi": 74,
      "time": 267.75,
      "duration": 0.563,
      "velocity": 0.54,
      "hand": "right"
    },
    {
      "midi": 79,
      "time": 267.75,
      "duration": 0.563,
      "velocity": 0.54,
      "hand": "right"
    },
    {
      "midi": 83,
      "time": 267.75,
      "duration": 0.563,
      "velocity": 0.54,
      "hand": "right"
    },
    {
      "midi": 79,
      "time": 268.5,
      "duration": 0.188,
      "velocity": 0.54,
      "hand": "right"
    },
    {
      "midi": 57,
      "time": 268.688,
      "duration": 0.188,
      "velocity": 0.75,
      "hand": "left"
    },
    {
      "midi": 64,
      "time": 268.688,
      "duration": 0.188,
      "velocity": 0.75,
      "hand": "right"
    },
    {
      "midi": 73,
      "time": 268.688,
      "duration": 0.188,
      "velocity": 0.54,
      "hand": "right"
    },
    {
      "midi": 76,
      "time": 268.688,
      "duration": 0.188,
      "velocity": 0.54,
      "hand": "right"
    },
    {
      "midi": 57,
      "time": 269.063,
      "duration": 0.188,
      "velocity": 0.75,
      "hand": "left"
    },
    {
      "midi": 64,
      "time": 269.063,
      "duration": 0.188,
      "velocity": 0.75,
      "hand": "right"
    },
    {
      "midi": 67,
      "time": 269.063,
      "duration": 0.188,
      "velocity": 0.54,
      "hand": "right"
    },
    {
      "midi": 73,
      "time": 269.063,
      "duration": 0.188,
      "velocity": 0.54,
      "hand": "right"
    },
    {
      "midi": 57,
      "time": 269.25,
      "duration": 0.188,
      "velocity": 0.75,
      "hand": "left"
    },
    {
      "midi": 64,
      "time": 269.25,
      "duration": 0.188,
      "velocity": 0.75,
      "hand": "right"
    },
    {
      "midi": 67,
      "time": 269.25,
      "duration": 0.188,
      "velocity": 0.54,
      "hand": "right"
    },
    {
      "midi": 73,
      "time": 269.25,
      "duration": 0.188,
      "velocity": 0.54,
      "hand": "right"
    },
    {
      "midi": 57,
      "time": 269.438,
      "duration": 0.188,
      "velocity": 0.75,
      "hand": "left"
    },
    {
      "midi": 64,
      "time": 269.438,
      "duration": 0.188,
      "velocity": 0.75,
      "hand": "right"
    },
    {
      "midi": 67,
      "time": 269.438,
      "duration": 0.188,
      "velocity": 0.54,
      "hand": "right"
    },
    {
      "midi": 73,
      "time": 269.438,
      "duration": 0.188,
      "velocity": 0.54,
      "hand": "right"
    },
    {
      "midi": 59,
      "time": 269.813,
      "duration": 0.563,
      "velocity": 0.75,
      "hand": "left"
    },
    {
      "midi": 62,
      "time": 269.813,
      "duration": 0.563,
      "velocity": 0.75,
      "hand": "right"
    },
    {
      "midi": 66,
      "time": 269.813,
      "duration": 0.563,
      "velocity": 0.54,
      "hand": "right"
    },
    {
      "midi": 74,
      "time": 269.813,
      "duration": 0.563,
      "velocity": 0.54,
      "hand": "right"
    },
    {
      "midi": 44,
      "time": 270.75,
      "duration": 0.563,
      "velocity": 0.75,
      "hand": "left"
    },
    {
      "midi": 56,
      "time": 270.75,
      "duration": 0.563,
      "velocity": 0.75,
      "hand": "left"
    },
    {
      "midi": 74,
      "time": 270.75,
      "duration": 0.563,
      "velocity": 0.75,
      "hand": "right"
    },
    {
      "midi": 77,
      "time": 270.75,
      "duration": 0.563,
      "velocity": 0.75,
      "hand": "right"
    },
    {
      "midi": 83,
      "time": 270.75,
      "duration": 0.563,
      "velocity": 0.75,
      "hand": "right"
    },
    {
      "midi": 45,
      "time": 271.688,
      "duration": 0.563,
      "velocity": 0.75,
      "hand": "left"
    },
    {
      "midi": 57,
      "time": 271.688,
      "duration": 0.563,
      "velocity": 0.75,
      "hand": "left"
    },
    {
      "midi": 74,
      "time": 271.688,
      "duration": 0.563,
      "velocity": 0.75,
      "hand": "right"
    },
    {
      "midi": 78,
      "time": 271.688,
      "duration": 0.563,
      "velocity": 0.75,
      "hand": "right"
    },
    {
      "midi": 81,
      "time": 271.688,
      "duration": 0.563,
      "velocity": 0.75,
      "hand": "right"
    },
    {
      "midi": 33,
      "time": 272.813,
      "duration": 0.563,
      "velocity": 0.75,
      "hand": "left"
    },
    {
      "midi": 45,
      "time": 272.813,
      "duration": 0.563,
      "velocity": 0.75,
      "hand": "left"
    },
    {
      "midi": 52,
      "time": 272.813,
      "duration": 0.563,
      "velocity": 0.54,
      "hand": "left"
    },
    {
      "midi": 55,
      "time": 272.813,
      "duration": 0.563,
      "velocity": 0.54,
      "hand": "left"
    },
    {
      "midi": 61,
      "time": 272.813,
      "duration": 0.563,
      "velocity": 0.54,
      "hand": "right"
    },
    {
      "midi": 50,
      "time": 273.75,
      "duration": 0.938,
      "velocity": 0.75,
      "hand": "left"
    },
    {
      "midi": 54,
      "time": 273.75,
      "duration": 0.938,
      "velocity": 0.75,
      "hand": "left"
    },
    {
      "midi": 57,
      "time": 273.75,
      "duration": 0.563,
      "velocity": 0.49,
      "hand": "left"
    },
    {
      "midi": 66,
      "time": 274.313,
      "duration": 0.188,
      "velocity": 0.49,
      "hand": "right"
    },
    {
      "midi": 62,
      "time": 274.5,
      "duration": 0.188,
      "velocity": 0.49,
      "hand": "right"
    },
    {
      "midi": 50,
      "time": 274.688,
      "duration": 2.063,
      "velocity": 0.75,
      "hand": "left"
    },
    {
      "midi": 55,
      "time": 274.688,
      "duration": 2.063,
      "velocity": 0.75,
      "hand": "left"
    },
    {
      "midi": 61,
      "time": 274.688,
      "duration": 0.563,
      "velocity": 0.49,
      "hand": "right"
    },
    {
      "midi": 59,
      "time": 275.25,
      "duration": 0.188,
      "velocity": 0.49,
      "hand": "left"
    },
    {
      "midi": 67,
      "time": 275.438,
      "duration": 0.188,
      "velocity": 0.49,
      "hand": "right"
    },
    {
      "midi": 64,
      "time": 275.625,
      "duration": 0.188,
      "velocity": 0.49,
      "hand": "right"
    },
    {
      "midi": 52,
      "time": 275.813,
      "duration": 0.938,
      "velocity": 0.75,
      "hand": "left"
    },
    {
      "midi": 62,
      "time": 275.813,
      "duration": 0.188,
      "velocity": 0.71,
      "hand": "right"
    },
    {
      "midi": 61,
      "time": 276,
      "duration": 0.75,
      "velocity": 0.71,
      "hand": "right"
    },
    {
      "midi": 71,
      "time": 276.188,
      "duration": 0.188,
      "velocity": 0.71,
      "hand": "right"
    },
    {
      "midi": 69,
      "time": 276.563,
      "duration": 0.188,
      "velocity": 0.71,
      "hand": "right"
    },
    {
      "midi": 50,
      "time": 276.75,
      "duration": 0.75,
      "velocity": 0.75,
      "hand": "left"
    },
    {
      "midi": 54,
      "time": 276.75,
      "duration": 0.75,
      "velocity": 0.75,
      "hand": "left"
    },
    {
      "midi": 62,
      "time": 276.75,
      "duration": 0.75,
      "velocity": 0.71,
      "hand": "right"
    },
    {
      "midi": 69,
      "time": 276.75,
      "duration": 0.375,
      "velocity": 0.71,
      "hand": "right"
    },
    {
      "midi": 66,
      "time": 277.125,
      "duration": 0.188,
      "velocity": 0.71,
      "hand": "right"
    },
    {
      "midi": 69,
      "time": 277.313,
      "duration": 0.188,
      "velocity": 0.71,
      "hand": "right"
    },
    {
      "midi": 42,
      "time": 277.688,
      "duration": 0.938,
      "velocity": 0.75,
      "hand": "left"
    },
    {
      "midi": 50,
      "time": 277.688,
      "duration": 0.938,
      "velocity": 0.75,
      "hand": "left"
    },
    {
      "midi": 69,
      "time": 277.688,
      "duration": 0.563,
      "velocity": 0.75,
      "hand": "right"
    },
    {
      "midi": 78,
      "time": 278.25,
      "duration": 0.188,
      "velocity": 0.75,
      "hand": "right"
    },
    {
      "midi": 74,
      "time": 278.438,
      "duration": 0.188,
      "velocity": 0.75,
      "hand": "right"
    },
    {
      "midi": 43,
      "time": 278.813,
      "duration": 0.938,
      "velocity": 0.75,
      "hand": "left"
    },
    {
      "midi": 55,
      "time": 278.813,
      "duration": 0.938,
      "velocity": 0.75,
      "hand": "left"
    },
    {
      "midi": 71,
      "time": 278.813,
      "duration": 0.75,
      "velocity": 0.75,
      "hand": "right"
    },
    {
      "midi": 76,
      "time": 279.563,
      "duration": 0.188,
      "velocity": 0.75,
      "hand": "right"
    },
    {
      "midi": 79,
      "time": 279.563,
      "duration": 0.188,
      "velocity": 0.75,
      "hand": "right"
    },
    {
      "midi": 45,
      "time": 279.75,
      "duration": 0.938,
      "velocity": 0.75,
      "hand": "left"
    },
    {
      "midi": 52,
      "time": 279.75,
      "duration": 0.938,
      "velocity": 0.75,
      "hand": "left"
    },
    {
      "midi": 55,
      "time": 279.75,
      "duration": 0.938,
      "velocity": 0.75,
      "hand": "left"
    },
    {
      "midi": 73,
      "time": 279.75,
      "duration": 0.188,
      "velocity": 0.75,
      "hand": "right"
    },
    {
      "midi": 74,
      "time": 279.938,
      "duration": 0.188,
      "velocity": 0.75,
      "hand": "right"
    },
    {
      "midi": 76,
      "time": 279.938,
      "duration": 0.188,
      "velocity": 0.75,
      "hand": "right"
    },
    {
      "midi": 78,
      "time": 280.125,
      "duration": 0.188,
      "velocity": 0.75,
      "hand": "right"
    },
    {
      "midi": 79,
      "time": 280.313,
      "duration": 0.188,
      "velocity": 0.75,
      "hand": "right"
    },
    {
      "midi": 81,
      "time": 280.313,
      "duration": 0.188,
      "velocity": 0.75,
      "hand": "right"
    },
    {
      "midi": 83,
      "time": 280.5,
      "duration": 0.188,
      "velocity": 0.75,
      "hand": "right"
    },
    {
      "midi": 50,
      "time": 280.688,
      "duration": 0.188,
      "velocity": 0.75,
      "hand": "left"
    },
    {
      "midi": 54,
      "time": 280.688,
      "duration": 0.188,
      "velocity": 0.75,
      "hand": "left"
    },
    {
      "midi": 85,
      "time": 280.688,
      "duration": 0.188,
      "velocity": 0.75,
      "hand": "right"
    },
    {
      "midi": 86,
      "time": 280.688,
      "duration": 0.188,
      "velocity": 0.75,
      "hand": "right"
    },
    {
      "midi": 45,
      "time": 281.25,
      "duration": 0.188,
      "velocity": 0.75,
      "hand": "left"
    },
    {
      "midi": 57,
      "time": 281.25,
      "duration": 0.188,
      "velocity": 0.75,
      "hand": "left"
    },
    {
      "midi": 69,
      "time": 281.25,
      "duration": 0.188,
      "velocity": 0.8,
      "hand": "right"
    },
    {
      "midi": 73,
      "time": 281.25,
      "duration": 0.188,
      "velocity": 0.8,
      "hand": "right"
    },
    {
      "midi": 76,
      "time": 281.25,
      "duration": 0.188,
      "velocity": 0.8,
      "hand": "right"
    },
    {
      "midi": 81,
      "time": 281.25,
      "duration": 0.188,
      "velocity": 0.8,
      "hand": "right"
    },
    {
      "midi": 50,
      "time": 281.813,
      "duration": 0.188,
      "velocity": 0.75,
      "hand": "left"
    },
    {
      "midi": 57,
      "time": 281.813,
      "duration": 0.188,
      "velocity": 0.75,
      "hand": "left"
    },
    {
      "midi": 69,
      "time": 281.813,
      "duration": 0.188,
      "velocity": 0.8,
      "hand": "right"
    },
    {
      "midi": 74,
      "time": 281.813,
      "duration": 0.188,
      "velocity": 0.8,
      "hand": "right"
    },
    {
      "midi": 78,
      "time": 281.813,
      "duration": 0.188,
      "velocity": 0.8,
      "hand": "right"
    },
    {
      "midi": 45,
      "time": 282.188,
      "duration": 0.188,
      "velocity": 0.75,
      "hand": "left"
    },
    {
      "midi": 57,
      "time": 282.188,
      "duration": 0.188,
      "velocity": 0.75,
      "hand": "left"
    },
    {
      "midi": 64,
      "time": 282.188,
      "duration": 0.188,
      "velocity": 0.8,
      "hand": "right"
    },
    {
      "midi": 67,
      "time": 282.188,
      "duration": 0.188,
      "velocity": 0.8,
      "hand": "right"
    },
    {
      "midi": 69,
      "time": 282.188,
      "duration": 0.188,
      "velocity": 0.8,
      "hand": "right"
    },
    {
      "midi": 73,
      "time": 282.188,
      "duration": 0.188,
      "velocity": 0.8,
      "hand": "right"
    },
    {
      "midi": 38,
      "time": 282.75,
      "duration": 0.563,
      "velocity": 0.75,
      "hand": "left"
    },
    {
      "midi": 50,
      "time": 282.75,
      "duration": 0.563,
      "velocity": 0.75,
      "hand": "left"
    },
    {
      "midi": 62,
      "time": 282.75,
      "duration": 0.563,
      "velocity": 0.8,
      "hand": "right"
    },
    {
      "midi": 66,
      "time": 282.75,
      "duration": 0.563,
      "velocity": 0.8,
      "hand": "right"
    },
    {
      "midi": 69,
      "time": 282.75,
      "duration": 0.563,
      "velocity": 0.8,
      "hand": "right"
    },
    {
      "midi": 74,
      "time": 282.75,
      "duration": 0.563,
      "velocity": 0.8,
      "hand": "right"
    }
  ],
  "arrangements": {
    "easy": [
      {
        "midi": 62,
        "time": 1.5,
        "duration": 0.375,
        "velocity": 0.71,
        "hand": "right"
      },
      {
        "midi": 65,
        "time": 2.063,
        "duration": 0.375,
        "velocity": 0.71,
        "hand": "right"
      },
      {
        "midi": 62,
        "time": 4.5,
        "duration": 0.375,
        "velocity": 0.71,
        "hand": "right"
      },
      {
        "midi": 65,
        "time": 5.063,
        "duration": 0.375,
        "velocity": 0.71,
        "hand": "right"
      },
      {
        "midi": 64,
        "time": 7.5,
        "duration": 0.375,
        "velocity": 0.71,
        "hand": "right"
      },
      {
        "midi": 67,
        "time": 8.063,
        "duration": 0.375,
        "velocity": 0.71,
        "hand": "right"
      },
      {
        "midi": 64,
        "time": 10.5,
        "duration": 0.375,
        "velocity": 0.71,
        "hand": "right"
      },
      {
        "midi": 67,
        "time": 11.063,
        "duration": 0.375,
        "velocity": 0.71,
        "hand": "right"
      },
      {
        "midi": 62,
        "time": 13.313,
        "duration": 0.375,
        "velocity": 0.71,
        "hand": "right"
      },
      {
        "midi": 69,
        "time": 14.063,
        "duration": 0.375,
        "velocity": 0.71,
        "hand": "right"
      },
      {
        "midi": 62,
        "time": 14.438,
        "duration": 0.375,
        "velocity": 0.71,
        "hand": "right"
      },
      {
        "midi": 62,
        "time": 16.313,
        "duration": 0.375,
        "velocity": 0.71,
        "hand": "right"
      },
      {
        "midi": 69,
        "time": 17.063,
        "duration": 0.375,
        "velocity": 0.71,
        "hand": "right"
      },
      {
        "midi": 62,
        "time": 17.438,
        "duration": 0.375,
        "velocity": 0.71,
        "hand": "right"
      },
      {
        "midi": 62,
        "time": 18.75,
        "duration": 0.375,
        "velocity": 0.71,
        "hand": "right"
      },
      {
        "midi": 67,
        "time": 19.313,
        "duration": 0.938,
        "velocity": 0.71,
        "hand": "right"
      },
      {
        "midi": 60,
        "time": 20.25,
        "duration": 0.375,
        "velocity": 0.71,
        "hand": "right"
      },
      {
        "midi": 65,
        "time": 20.813,
        "duration": 0.938,
        "velocity": 0.71,
        "hand": "right"
      },
      {
        "midi": 65,
        "time": 21.938,
        "duration": 0.375,
        "velocity": 0.71,
        "hand": "right"
      },
      {
        "midi": 63,
        "time": 22.313,
        "duration": 0.938,
        "velocity": 0.71,
        "hand": "right"
      },
      {
        "midi": 64,
        "time": 23.438,
        "duration": 0.375,
        "velocity": 0.71,
        "hand": "right"
      },
      {
        "midi": 62,
        "time": 23.813,
        "duration": 0.375,
        "velocity": 0.71,
        "hand": "right"
      },
      {
        "midi": 61,
        "time": 24.938,
        "duration": 0.375,
        "velocity": 0.71,
        "hand": "right"
      },
      {
        "midi": 64,
        "time": 25.313,
        "duration": 0.375,
        "velocity": 0.71,
        "hand": "right"
      },
      {
        "midi": 73,
        "time": 25.688,
        "duration": 0.375,
        "velocity": 0.71,
        "hand": "right"
      },
      {
        "midi": 76,
        "time": 26.063,
        "duration": 0.375,
        "velocity": 0.71,
        "hand": "right"
      },
      {
        "midi": 85,
        "time": 26.438,
        "duration": 0.375,
        "velocity": 0.71,
        "hand": "right"
      },
      {
        "midi": 88,
        "time": 26.813,
        "duration": 0.375,
        "velocity": 0.71,
        "hand": "right"
      },
      {
        "midi": 84,
        "time": 27.563,
        "duration": 0.375,
        "velocity": 0.71,
        "hand": "right"
      },
      {
        "midi": 80,
        "time": 27.938,
        "duration": 0.375,
        "velocity": 0.71,
        "hand": "right"
      },
      {
        "midi": 81,
        "time": 28.313,
        "duration": 0.375,
        "velocity": 0.71,
        "hand": "right"
      },
      {
        "midi": 76,
        "time": 28.688,
        "duration": 0.375,
        "velocity": 0.71,
        "hand": "right"
      },
      {
        "midi": 72,
        "time": 29.063,
        "duration": 0.375,
        "velocity": 0.71,
        "hand": "right"
      },
      {
        "midi": 68,
        "time": 29.438,
        "duration": 0.375,
        "velocity": 0.71,
        "hand": "right"
      },
      {
        "midi": 69,
        "time": 29.813,
        "duration": 0.375,
        "velocity": 0.71,
        "hand": "right"
      },
      {
        "midi": 77,
        "time": 33,
        "duration": 1.688,
        "velocity": 0.54,
        "hand": "right"
      },
      {
        "midi": 69,
        "time": 33.563,
        "duration": 0.563,
        "velocity": 0.71,
        "hand": "right"
      },
      {
        "midi": 69,
        "time": 34.5,
        "duration": 0.563,
        "velocity": 0.71,
        "hand": "right"
      },
      {
        "midi": 77,
        "time": 34.875,
        "duration": 0.375,
        "velocity": 0.54,
        "hand": "right"
      },
      {
        "midi": 77,
        "time": 35.438,
        "duration": 0.563,
        "velocity": 0.54,
        "hand": "right"
      },
      {
        "midi": 76,
        "time": 36,
        "duration": 0.563,
        "velocity": 0.54,
        "hand": "right"
      },
      {
        "midi": 74,
        "time": 36.563,
        "duration": 0.563,
        "velocity": 0.54,
        "hand": "right"
      },
      {
        "midi": 73,
        "time": 36.938,
        "duration": 0.938,
        "velocity": 0.54,
        "hand": "right"
      },
      {
        "midi": 69,
        "time": 37.5,
        "duration": 0.563,
        "velocity": 0.71,
        "hand": "right"
      },
      {
        "midi": 69,
        "time": 38.063,
        "duration": 0.563,
        "velocity": 0.71,
        "hand": "right"
      },
      {
        "midi": 74,
        "time": 38.813,
        "duration": 0.375,
        "velocity": 0.54,
        "hand": "right"
      },
      {
        "midi": 76,
        "time": 39.563,
        "duration": 0.563,
        "velocity": 0.54,
        "hand": "right"
      },
      {
        "midi": 69,
        "time": 39.938,
        "duration": 0.563,
        "velocity": 0.71,
        "hand": "right"
      },
      {
        "midi": 69,
        "time": 40.5,
        "duration": 0.563,
        "velocity": 0.71,
        "hand": "right"
      },
      {
        "midi": 79,
        "time": 41.063,
        "duration": 1.688,
        "velocity": 0.54,
        "hand": "right"
      },
      {
        "midi": 69,
        "time": 41.438,
        "duration": 0.563,
        "velocity": 0.71,
        "hand": "right"
      },
      {
        "midi": 69,
        "time": 42,
        "duration": 0.563,
        "velocity": 0.71,
        "hand": "right"
      },
      {
        "midi": 69,
        "time": 42.563,
        "duration": 0.563,
        "velocity": 0.71,
        "hand": "right"
      },
      {
        "midi": 81,
        "time": 42.938,
        "duration": 0.563,
        "velocity": 0.54,
        "hand": "right"
      },
      {
        "midi": 79,
        "time": 43.5,
        "duration": 0.563,
        "velocity": 0.54,
        "hand": "right"
      },
      {
        "midi": 77,
        "time": 44.063,
        "duration": 0.563,
        "velocity": 0.54,
        "hand": "right"
      },
      {
        "midi": 76,
        "time": 44.438,
        "duration": 0.563,
        "velocity": 0.54,
        "hand": "right"
      },
      {
        "midi": 74,
        "time": 45,
        "duration": 0.938,
        "velocity": 0.54,
        "hand": "right"
      },
      {
        "midi": 69,
        "time": 45.563,
        "duration": 0.563,
        "velocity": 0.71,
        "hand": "right"
      },
      {
        "midi": 69,
        "time": 46.5,
        "duration": 0.563,
        "velocity": 0.71,
        "hand": "right"
      },
      {
        "midi": 79,
        "time": 47.063,
        "duration": 0.563,
        "velocity": 0.54,
        "hand": "right"
      },
      {
        "midi": 77,
        "time": 47.438,
        "duration": 0.563,
        "velocity": 0.54,
        "hand": "right"
      },
      {
        "midi": 69,
        "time": 48,
        "duration": 0.563,
        "velocity": 0.71,
        "hand": "right"
      },
      {
        "midi": 69,
        "time": 48.563,
        "duration": 0.563,
        "velocity": 0.71,
        "hand": "right"
      },
      {
        "midi": 81,
        "time": 48.938,
        "duration": 2.063,
        "velocity": 0.75,
        "hand": "right"
      },
      {
        "midi": 62,
        "time": 50.063,
        "duration": 0.938,
        "velocity": 0.71,
        "hand": "right"
      },
      {
        "midi": 82,
        "time": 51,
        "duration": 0.563,
        "velocity": 0.75,
        "hand": "right"
      },
      {
        "midi": 81,
        "time": 53.063,
        "duration": 0.75,
        "velocity": 0.54,
        "hand": "right"
      },
      {
        "midi": 86,
        "time": 53.813,
        "duration": 0.375,
        "velocity": 0.54,
        "hand": "right"
      },
      {
        "midi": 84,
        "time": 54.375,
        "duration": 0.375,
        "velocity": 0.54,
        "hand": "right"
      },
      {
        "midi": 83,
        "time": 54.75,
        "duration": 0.375,
        "velocity": 0.54,
        "hand": "right"
      },
      {
        "midi": 81,
        "time": 56.813,
        "duration": 0.375,
        "velocity": 0.54,
        "hand": "right"
      },
      {
        "midi": 80,
        "time": 57.563,
        "duration": 0.563,
        "velocity": 0.54,
        "hand": "right"
      },
      {
        "midi": 73,
        "time": 57.938,
        "duration": 0.563,
        "velocity": 0.71,
        "hand": "right"
      },
      {
        "midi": 79,
        "time": 58.5,
        "duration": 0.563,
        "velocity": 0.54,
        "hand": "right"
      },
      {
        "midi": 74,
        "time": 59.063,
        "duration": 0.563,
        "velocity": 0.71,
        "hand": "right"
      },
      {
        "midi": 78,
        "time": 59.438,
        "duration": 0.563,
        "velocity": 0.54,
        "hand": "right"
      },
      {
        "midi": 71,
        "time": 60,
        "duration": 0.563,
        "velocity": 0.71,
        "hand": "right"
      },
      {
        "midi": 77,
        "time": 60.563,
        "duration": 0.563,
        "velocity": 0.54,
        "hand": "right"
      },
      {
        "midi": 69,
        "time": 60.938,
        "duration": 0.938,
        "velocity": 0.71,
        "hand": "right"
      },
      {
        "midi": 76,
        "time": 61.5,
        "duration": 0.563,
        "velocity": 0.54,
        "hand": "right"
      },
      {
        "midi": 81,
        "time": 62.063,
        "duration": 0.563,
        "velocity": 0.54,
        "hand": "right"
      },
      {
        "midi": 85,
        "time": 62.438,
        "duration": 0.563,
        "velocity": 0.54,
        "hand": "right"
      },
      {
        "midi": 88,
        "time": 63,
        "duration": 0.563,
        "velocity": 0.54,
        "hand": "right"
      },
      {
        "midi": 64,
        "time": 65.063,
        "duration": 0.563,
        "velocity": 0.71,
        "hand": "right"
      },
      {
        "midi": 64,
        "time": 66,
        "duration": 0.563,
        "velocity": 0.71,
        "hand": "right"
      },
      {
        "midi": 64,
        "time": 66.563,
        "duration": 0.563,
        "velocity": 0.71,
        "hand": "right"
      },
      {
        "midi": 64,
        "time": 67.5,
        "duration": 0.563,
        "velocity": 0.71,
        "hand": "right"
      },
      {
        "midi": 64,
        "time": 68.063,
        "duration": 0.563,
        "velocity": 0.71,
        "hand": "right"
      },
      {
        "midi": 64,
        "time": 69,
        "duration": 0.563,
        "velocity": 0.71,
        "hand": "right"
      },
      {
        "midi": 64,
        "time": 69.563,
        "duration": 0.563,
        "velocity": 0.71,
        "hand": "right"
      },
      {
        "midi": 64,
        "time": 70.5,
        "duration": 0.563,
        "velocity": 0.71,
        "hand": "right"
      },
      {
        "midi": 64,
        "time": 71.063,
        "duration": 0.563,
        "velocity": 0.71,
        "hand": "right"
      },
      {
        "midi": 63,
        "time": 71.438,
        "duration": 0.563,
        "velocity": 0.71,
        "hand": "right"
      },
      {
        "midi": 69,
        "time": 72,
        "duration": 0.563,
        "velocity": 0.71,
        "hand": "right"
      },
      {
        "midi": 69,
        "time": 72.563,
        "duration": 0.563,
        "velocity": 0.71,
        "hand": "right"
      },
      {
        "midi": 68,
        "time": 74.438,
        "duration": 0.375,
        "velocity": 0.71,
        "hand": "right"
      },
      {
        "midi": 71,
        "time": 74.813,
        "duration": 0.375,
        "velocity": 0.71,
        "hand": "right"
      },
      {
        "midi": 71,
        "time": 76.688,
        "duration": 0.375,
        "velocity": 0.54,
        "hand": "right"
      },
      {
        "midi": 69,
        "time": 77.063,
        "duration": 0.375,
        "velocity": 0.54,
        "hand": "right"
      },
      {
        "midi": 65,
        "time": 77.438,
        "duration": 0.563,
        "velocity": 0.71,
        "hand": "right"
      },
      {
        "midi": 71,
        "time": 77.813,
        "duration": 0.375,
        "velocity": 0.54,
        "hand": "right"
      },
      {
        "midi": 68,
        "time": 78.188,
        "duration": 0.375,
        "velocity": 0.54,
        "hand": "right"
      },
      {
        "midi": 65,
        "time": 78.563,
        "duration": 0.563,
        "velocity": 0.71,
        "hand": "right"
      },
      {
        "midi": 69,
        "time": 78.938,
        "duration": 0.375,
        "velocity": 0.54,
        "hand": "right"
      },
      {
        "midi": 68,
        "time": 79.313,
        "duration": 0.375,
        "velocity": 0.54,
        "hand": "right"
      },
      {
        "midi": 71,
        "time": 79.688,
        "duration": 0.375,
        "velocity": 0.54,
        "hand": "right"
      },
      {
        "midi": 65,
        "time": 80.063,
        "duration": 0.563,
        "velocity": 0.71,
        "hand": "right"
      },
      {
        "midi": 68,
        "time": 80.813,
        "duration": 0.375,
        "velocity": 0.54,
        "hand": "right"
      },
      {
        "midi": 69,
        "time": 81.188,
        "duration": 0.375,
        "velocity": 0.54,
        "hand": "right"
      },
      {
        "midi": 64,
        "time": 81.563,
        "duration": 0.563,
        "velocity": 0.71,
        "hand": "right"
      },
      {
        "midi": 71,
        "time": 81.938,
        "duration": 0.375,
        "velocity": 0.54,
        "hand": "right"
      },
      {
        "midi": 69,
        "time": 82.313,
        "duration": 0.375,
        "velocity": 0.54,
        "hand": "right"
      },
      {
        "midi": 72,
        "time": 82.688,
        "duration": 0.375,
        "velocity": 0.54,
        "hand": "right"
      },
      {
        "midi": 71,
        "time": 83.063,
        "duration": 0.375,
        "velocity": 0.54,
        "hand": "right"
      },
      {
        "midi": 64,
        "time": 83.438,
        "duration": 0.563,
        "velocity": 0.71,
        "hand": "right"
      },
      {
        "midi": 72,
        "time": 83.813,
        "duration": 0.375,
        "velocity": 0.54,
        "hand": "right"
      },
      {
        "midi": 76,
        "time": 84.188,
        "duration": 0.375,
        "velocity": 0.54,
        "hand": "right"
      },
      {
        "midi": 64,
        "time": 84.563,
        "duration": 0.563,
        "velocity": 0.71,
        "hand": "right"
      },
      {
        "midi": 72,
        "time": 84.938,
        "duration": 0.375,
        "velocity": 0.54,
        "hand": "right"
      },
      {
        "midi": 71,
        "time": 85.313,
        "duration": 0.375,
        "velocity": 0.54,
        "hand": "right"
      },
      {
        "midi": 74,
        "time": 85.688,
        "duration": 0.375,
        "velocity": 0.54,
        "hand": "right"
      },
      {
        "midi": 72,
        "time": 86.063,
        "duration": 0.375,
        "velocity": 0.54,
        "hand": "right"
      },
      {
        "midi": 64,
        "time": 86.438,
        "duration": 0.563,
        "velocity": 0.71,
        "hand": "right"
      },
      {
        "midi": 74,
        "time": 86.813,
        "duration": 0.375,
        "velocity": 0.54,
        "hand": "right"
      },
      {
        "midi": 71,
        "time": 87.188,
        "duration": 0.375,
        "velocity": 0.54,
        "hand": "right"
      },
      {
        "midi": 64,
        "time": 87.563,
        "duration": 0.563,
        "velocity": 0.71,
        "hand": "right"
      },
      {
        "midi": 77,
        "time": 88.313,
        "duration": 0.375,
        "velocity": 0.54,
        "hand": "right"
      },
      {
        "midi": 71,
        "time": 88.688,
        "duration": 0.375,
        "velocity": 0.54,
        "hand": "right"
      },
      {
        "midi": 74,
        "time": 89.063,
        "duration": 0.375,
        "velocity": 0.54,
        "hand": "right"
      },
      {
        "midi": 60,
        "time": 89.438,
        "duration": 0.563,
        "velocity": 0.71,
        "hand": "right"
      },
      {
        "midi": 81,
        "time": 89.813,
        "duration": 0.375,
        "velocity": 0.54,
        "hand": "right"
      },
      {
        "midi": 80,
        "time": 90.188,
        "duration": 0.375,
        "velocity": 0.57,
        "hand": "right"
      },
      {
        "midi": 64,
        "time": 90.563,
        "duration": 0.563,
        "velocity": 0.71,
        "hand": "right"
      },
      {
        "midi": 65,
        "time": 90.938,
        "duration": 0.563,
        "velocity": 0.71,
        "hand": "right"
      },
      {
        "midi": 77,
        "time": 91.313,
        "duration": 0.375,
        "velocity": 0.65,
        "hand": "right"
      },
      {
        "midi": 76,
        "time": 91.688,
        "duration": 0.375,
        "velocity": 0.7,
        "hand": "right"
      },
      {
        "midi": 69,
        "time": 92.063,
        "duration": 0.563,
        "velocity": 0.71,
        "hand": "right"
      },
      {
        "midi": 71,
        "time": 92.438,
        "duration": 0.563,
        "velocity": 0.71,
        "hand": "right"
      },
      {
        "midi": 74,
        "time": 92.813,
        "duration": 0.375,
        "velocity": 0.54,
        "hand": "right"
      },
      {
        "midi": 76,
        "time": 93.188,
        "duration": 0.375,
        "velocity": 0.54,
        "hand": "right"
      },
      {
        "midi": 60,
        "time": 93.563,
        "duration": 0.563,
        "velocity": 0.71,
        "hand": "right"
      },
      {
        "midi": 62,
        "time": 93.938,
        "duration": 0.563,
        "velocity": 0.71,
        "hand": "right"
      },
      {
        "midi": 80,
        "time": 94.313,
        "duration": 0.375,
        "velocity": 0.57,
        "hand": "right"
      },
      {
        "midi": 79,
        "time": 94.688,
        "duration": 0.375,
        "velocity": 0.62,
        "hand": "right"
      },
      {
        "midi": 65,
        "time": 95.063,
        "duration": 0.563,
        "velocity": 0.71,
        "hand": "right"
      },
      {
        "midi": 68,
        "time": 95.438,
        "duration": 0.563,
        "velocity": 0.71,
        "hand": "right"
      },
      {
        "midi": 76,
        "time": 95.813,
        "duration": 0.375,
        "velocity": 0.72,
        "hand": "right"
      },
      {
        "midi": 75,
        "time": 96.188,
        "duration": 0.375,
        "velocity": 0.75,
        "hand": "right"
      },
      {
        "midi": 71,
        "time": 96.563,
        "duration": 0.563,
        "velocity": 0.71,
        "hand": "right"
      },
      {
        "midi": 72,
        "time": 101.063,
        "duration": 1.688,
        "velocity": 0.54,
        "hand": "right"
      },
      {
        "midi": 64,
        "time": 101.438,
        "duration": 0.563,
        "velocity": 0.71,
        "hand": "right"
      },
      {
        "midi": 64,
        "time": 102,
        "duration": 0.563,
        "velocity": 0.71,
        "hand": "right"
      },
      {
        "midi": 64,
        "time": 102.563,
        "duration": 0.563,
        "velocity": 0.71,
        "hand": "right"
      },
      {
        "midi": 74,
        "time": 102.938,
        "duration": 0.563,
        "velocity": 0.54,
        "hand": "right"
      },
      {
        "midi": 72,
        "time": 103.5,
        "duration": 0.563,
        "velocity": 0.54,
        "hand": "right"
      },
      {
        "midi": 71,
        "time": 104.063,
        "duration": 0.563,
        "velocity": 0.54,
        "hand": "right"
      },
      {
        "midi": 69,
        "time": 104.438,
        "duration": 0.563,
        "velocity": 0.54,
        "hand": "right"
      },
      {
        "midi": 68,
        "time": 105,
        "duration": 0.938,
        "velocity": 0.54,
        "hand": "right"
      },
      {
        "midi": 64,
        "time": 105.563,
        "duration": 0.563,
        "velocity": 0.71,
        "hand": "right"
      },
      {
        "midi": 64,
        "time": 106.5,
        "duration": 0.563,
        "velocity": 0.71,
        "hand": "right"
      },
      {
        "midi": 70,
        "time": 107.063,
        "duration": 0.563,
        "velocity": 0.54,
        "hand": "right"
      },
      {
        "midi": 71,
        "time": 107.438,
        "duration": 0.563,
        "velocity": 0.54,
        "hand": "right"
      },
      {
        "midi": 64,
        "time": 108,
        "duration": 0.563,
        "velocity": 0.71,
        "hand": "right"
      },
      {
        "midi": 64,
        "time": 108.563,
        "duration": 0.563,
        "velocity": 0.71,
        "hand": "right"
      },
      {
        "midi": 77,
        "time": 108.938,
        "duration": 1.688,
        "velocity": 0.54,
        "hand": "right"
      },
      {
        "midi": 62,
        "time": 109.5,
        "duration": 0.563,
        "velocity": 0.71,
        "hand": "right"
      },
      {
        "midi": 62,
        "time": 110.063,
        "duration": 0.563,
        "velocity": 0.71,
        "hand": "right"
      },
      {
        "midi": 77,
        "time": 110.813,
        "duration": 0.375,
        "velocity": 0.54,
        "hand": "right"
      },
      {
        "midi": 77,
        "time": 111.563,
        "duration": 0.563,
        "velocity": 0.54,
        "hand": "right"
      },
      {
        "midi": 76,
        "time": 111.938,
        "duration": 0.563,
        "velocity": 0.54,
        "hand": "right"
      },
      {
        "midi": 74,
        "time": 112.5,
        "duration": 0.563,
        "velocity": 0.54,
        "hand": "right"
      },
      {
        "midi": 73,
        "time": 113.063,
        "duration": 0.938,
        "velocity": 0.54,
        "hand": "right"
      },
      {
        "midi": 64,
        "time": 113.438,
        "duration": 0.563,
        "velocity": 0.71,
        "hand": "right"
      },
      {
        "midi": 64,
        "time": 114,
        "duration": 0.563,
        "velocity": 0.71,
        "hand": "right"
      },
      {
        "midi": 64,
        "time": 114.563,
        "duration": 0.563,
        "velocity": 0.71,
        "hand": "right"
      },
      {
        "midi": 75,
        "time": 114.938,
        "duration": 0.563,
        "velocity": 0.54,
        "hand": "right"
      },
      {
        "midi": 76,
        "time": 115.5,
        "duration": 0.563,
        "velocity": 0.54,
        "hand": "right"
      },
      {
        "midi": 61,
        "time": 116.063,
        "duration": 0.563,
        "velocity": 0.71,
        "hand": "right"
      },
      {
        "midi": 77,
        "time": 116.813,
        "duration": 0.375,
        "velocity": 0.54,
        "hand": "right"
      },
      {
        "midi": 79,
        "time": 117.563,
        "duration": 0.563,
        "velocity": 0.6,
        "hand": "right"
      },
      {
        "midi": 61,
        "time": 117.938,
        "duration": 0.563,
        "velocity": 0.71,
        "hand": "right"
      },
      {
        "midi": 61,
        "time": 118.5,
        "duration": 0.563,
        "velocity": 0.71,
        "hand": "right"
      },
      {
        "midi": 84,
        "time": 119.063,
        "duration": 0.563,
        "velocity": 0.75,
        "hand": "right"
      },
      {
        "midi": 82,
        "time": 119.438,
        "duration": 0.563,
        "velocity": 0.75,
        "hand": "right"
      },
      {
        "midi": 81,
        "time": 121.125,
        "duration": 0.375,
        "velocity": 0.75,
        "hand": "right"
      },
      {
        "midi": 76,
        "time": 121.875,
        "duration": 0.375,
        "velocity": 0.75,
        "hand": "right"
      },
      {
        "midi": 69,
        "time": 122.25,
        "duration": 0.375,
        "velocity": 0.75,
        "hand": "right"
      },
      {
        "midi": 64,
        "time": 123,
        "duration": 0.375,
        "velocity": 0.75,
        "hand": "right"
      },
      {
        "midi": 60,
        "time": 126,
        "duration": 0.375,
        "velocity": 0.71,
        "hand": "right"
      },
      {
        "midi": 69,
        "time": 126.375,
        "duration": 0.375,
        "velocity": 0.71,
        "hand": "right"
      },
      {
        "midi": 78,
        "time": 126.75,
        "duration": 0.375,
        "velocity": 0.75,
        "hand": "right"
      },
      {
        "midi": 87,
        "time": 127.125,
        "duration": 0.375,
        "velocity": 0.75,
        "hand": "right"
      },
      {
        "midi": 62,
        "time": 127.875,
        "duration": 0.563,
        "velocity": 0.75,
        "hand": "right"
      },
      {
        "midi": 62,
        "time": 128.438,
        "duration": 0.563,
        "velocity": 0.75,
        "hand": "right"
      },
      {
        "midi": 62,
        "time": 129.375,
        "duration": 0.563,
        "velocity": 0.75,
        "hand": "right"
      },
      {
        "midi": 62,
        "time": 129.938,
        "duration": 0.563,
        "velocity": 0.75,
        "hand": "right"
      },
      {
        "midi": 62,
        "time": 130.875,
        "duration": 0.563,
        "velocity": 0.75,
        "hand": "right"
      },
      {
        "midi": 62,
        "time": 131.438,
        "duration": 0.563,
        "velocity": 0.75,
        "hand": "right"
      },
      {
        "midi": 62,
        "time": 132.375,
        "duration": 0.563,
        "velocity": 0.75,
        "hand": "right"
      },
      {
        "midi": 62,
        "time": 132.938,
        "duration": 0.563,
        "velocity": 0.75,
        "hand": "right"
      },
      {
        "midi": 62,
        "time": 133.875,
        "duration": 0.563,
        "velocity": 0.75,
        "hand": "right"
      },
      {
        "midi": 61,
        "time": 134.438,
        "duration": 0.563,
        "velocity": 0.75,
        "hand": "right"
      },
      {
        "midi": 67,
        "time": 134.813,
        "duration": 0.563,
        "velocity": 0.75,
        "hand": "right"
      },
      {
        "midi": 67,
        "time": 135.375,
        "duration": 0.563,
        "velocity": 0.75,
        "hand": "right"
      },
      {
        "midi": 67,
        "time": 135.938,
        "duration": 1.5,
        "velocity": 0.75,
        "hand": "right"
      },
      {
        "midi": 67,
        "time": 137.438,
        "duration": 0.375,
        "velocity": 0.75,
        "hand": "right"
      },
      {
        "midi": 69,
        "time": 139.688,
        "duration": 0.375,
        "velocity": 0.54,
        "hand": "right"
      },
      {
        "midi": 66,
        "time": 140.063,
        "duration": 0.375,
        "velocity": 0.54,
        "hand": "right"
      },
      {
        "midi": 63,
        "time": 140.438,
        "duration": 0.563,
        "velocity": 0.71,
        "hand": "right"
      },
      {
        "midi": 67,
        "time": 140.813,
        "duration": 0.375,
        "velocity": 0.54,
        "hand": "right"
      },
      {
        "midi": 66,
        "time": 141.188,
        "duration": 0.375,
        "velocity": 0.54,
        "hand": "right"
      },
      {
        "midi": 69,
        "time": 141.563,
        "duration": 0.375,
        "velocity": 0.54,
        "hand": "right"
      },
      {
        "midi": 67,
        "time": 141.938,
        "duration": 0.375,
        "velocity": 0.54,
        "hand": "right"
      },
      {
        "midi": 63,
        "time": 142.313,
        "duration": 0.563,
        "velocity": 0.71,
        "hand": "right"
      },
      {
        "midi": 69,
        "time": 142.688,
        "duration": 0.375,
        "velocity": 0.54,
        "hand": "right"
      },
      {
        "midi": 72,
        "time": 143.063,
        "duration": 0.375,
        "velocity": 0.54,
        "hand": "right"
      },
      {
        "midi": 63,
        "time": 143.438,
        "duration": 0.563,
        "velocity": 0.71,
        "hand": "right"
      },
      {
        "midi": 69,
        "time": 143.813,
        "duration": 0.375,
        "velocity": 0.54,
        "hand": "right"
      },
      {
        "midi": 67,
        "time": 144.188,
        "duration": 0.375,
        "velocity": 0.54,
        "hand": "right"
      },
      {
        "midi": 70,
        "time": 144.563,
        "duration": 0.375,
        "velocity": 0.54,
        "hand": "right"
      },
      {
        "midi": 69,
        "time": 144.938,
        "duration": 0.375,
        "velocity": 0.54,
        "hand": "right"
      },
      {
        "midi": 62,
        "time": 145.313,
        "duration": 0.563,
        "velocity": 0.71,
        "hand": "right"
      },
      {
        "midi": 70,
        "time": 145.688,
        "duration": 0.375,
        "velocity": 0.54,
        "hand": "right"
      },
      {
        "midi": 67,
        "time": 146.063,
        "duration": 0.375,
        "velocity": 0.54,
        "hand": "right"
      },
      {
        "midi": 62,
        "time": 146.438,
        "duration": 0.563,
        "velocity": 0.71,
        "hand": "right"
      },
      {
        "midi": 74,
        "time": 147.188,
        "duration": 0.375,
        "velocity": 0.54,
        "hand": "right"
      },
      {
        "midi": 67,
        "time": 147.563,
        "duration": 0.375,
        "velocity": 0.54,
        "hand": "right"
      },
      {
        "midi": 70,
        "time": 147.938,
        "duration": 0.375,
        "velocity": 0.54,
        "hand": "right"
      },
      {
        "midi": 62,
        "time": 148.313,
        "duration": 0.563,
        "velocity": 0.71,
        "hand": "right"
      },
      {
        "midi": 72,
        "time": 148.688,
        "duration": 0.375,
        "velocity": 0.54,
        "hand": "right"
      },
      {
        "midi": 69,
        "time": 149.063,
        "duration": 0.375,
        "velocity": 0.54,
        "hand": "right"
      },
      {
        "midi": 62,
        "time": 149.438,
        "duration": 0.563,
        "velocity": 0.71,
        "hand": "right"
      },
      {
        "midi": 70,
        "time": 149.813,
        "duration": 0.375,
        "velocity": 0.54,
        "hand": "right"
      },
      {
        "midi": 69,
        "time": 150.188,
        "duration": 0.375,
        "velocity": 0.54,
        "hand": "right"
      },
      {
        "midi": 72,
        "time": 150.563,
        "duration": 0.375,
        "velocity": 0.54,
        "hand": "right"
      },
      {
        "midi": 62,
        "time": 150.938,
        "duration": 0.563,
        "velocity": 0.71,
        "hand": "right"
      },
      {
        "midi": 69,
        "time": 151.688,
        "duration": 0.375,
        "velocity": 0.54,
        "hand": "right"
      },
      {
        "midi": 70,
        "time": 152.063,
        "duration": 0.375,
        "velocity": 0.54,
        "hand": "right"
      },
      {
        "midi": 79,
        "time": 152.625,
        "duration": 0.375,
        "velocity": 0.54,
        "hand": "right"
      },
      {
        "midi": 78,
        "time": 153.188,
        "duration": 0.375,
        "velocity": 0.57,
        "hand": "right"
      },
      {
        "midi": 77,
        "time": 153.563,
        "duration": 0.375,
        "velocity": 0.62,
        "hand": "right"
      },
      {
        "midi": 63,
        "time": 153.938,
        "duration": 0.563,
        "velocity": 0.71,
        "hand": "right"
      },
      {
        "midi": 66,
        "time": 154.313,
        "duration": 0.563,
        "velocity": 0.71,
        "hand": "right"
      },
      {
        "midi": 74,
        "time": 154.688,
        "duration": 0.375,
        "velocity": 0.72,
        "hand": "right"
      },
      {
        "midi": 73,
        "time": 155.063,
        "duration": 0.375,
        "velocity": 0.75,
        "hand": "right"
      },
      {
        "midi": 69,
        "time": 155.438,
        "duration": 0.563,
        "velocity": 0.71,
        "hand": "right"
      },
      {
        "midi": 70,
        "time": 155.813,
        "duration": 0.375,
        "velocity": 0.54,
        "hand": "right"
      },
      {
        "midi": 74,
        "time": 156.188,
        "duration": 0.375,
        "velocity": 0.54,
        "hand": "right"
      },
      {
        "midi": 79,
        "time": 156.563,
        "duration": 0.375,
        "velocity": 0.54,
        "hand": "right"
      },
      {
        "midi": 60,
        "time": 156.938,
        "duration": 0.563,
        "velocity": 0.71,
        "hand": "right"
      },
      {
        "midi": 62,
        "time": 157.313,
        "duration": 0.563,
        "velocity": 0.71,
        "hand": "right"
      },
      {
        "midi": 77,
        "time": 157.688,
        "duration": 0.375,
        "velocity": 0.54,
        "hand": "right"
      },
      {
        "midi": 75,
        "time": 158.063,
        "duration": 0.375,
        "velocity": 0.54,
        "hand": "right"
      },
      {
        "midi": 61,
        "time": 158.438,
        "duration": 0.563,
        "velocity": 0.71,
        "hand": "right"
      },
      {
        "midi": 79,
        "time": 158.813,
        "duration": 0.375,
        "velocity": 0.54,
        "hand": "right"
      },
      {
        "midi": 77,
        "time": 159.188,
        "duration": 0.375,
        "velocity": 0.54,
        "hand": "right"
      },
      {
        "midi": 78,
        "time": 159.563,
        "duration": 0.375,
        "velocity": 0.54,
        "hand": "right"
      },
      {
        "midi": 81,
        "time": 159.938,
        "duration": 0.375,
        "velocity": 0.54,
        "hand": "right"
      },
      {
        "midi": 62,
        "time": 160.313,
        "duration": 0.938,
        "velocity": 0.71,
        "hand": "right"
      },
      {
        "midi": 81,
        "time": 160.688,
        "duration": 0.375,
        "velocity": 0.54,
        "hand": "right"
      },
      {
        "midi": 82,
        "time": 161.063,
        "duration": 0.375,
        "velocity": 0.54,
        "hand": "right"
      },
      {
        "midi": 83,
        "time": 161.625,
        "duration": 0.375,
        "velocity": 0.54,
        "hand": "right"
      },
      {
        "midi": 85,
        "time": 162.188,
        "duration": 0.375,
        "velocity": 0.54,
        "hand": "right"
      },
      {
        "midi": 86,
        "time": 162.563,
        "duration": 0.375,
        "velocity": 0.54,
        "hand": "right"
      },
      {
        "midi": 89,
        "time": 162.938,
        "duration": 0.563,
        "velocity": 0.54,
        "hand": "right"
      },
      {
        "midi": 88,
        "time": 163.313,
        "duration": 0.563,
        "velocity": 0.54,
        "hand": "right"
      },
      {
        "midi": 88,
        "time": 164.063,
        "duration": 0.375,
        "velocity": 0.54,
        "hand": "right"
      },
      {
        "midi": 85,
        "time": 164.438,
        "duration": 0.375,
        "velocity": 0.54,
        "hand": "right"
      },
      {
        "midi": 82,
        "time": 164.813,
        "duration": 0.375,
        "velocity": 0.54,
        "hand": "right"
      },
      {
        "midi": 84,
        "time": 165.188,
        "duration": 0.375,
        "velocity": 0.54,
        "hand": "right"
      },
      {
        "midi": 79,
        "time": 165.563,
        "duration": 0.375,
        "velocity": 0.54,
        "hand": "right"
      },
      {
        "midi": 74,
        "time": 165.938,
        "duration": 0.375,
        "velocity": 0.54,
        "hand": "right"
      },
      {
        "midi": 69,
        "time": 166.313,
        "duration": 0.375,
        "velocity": 0.54,
        "hand": "right"
      },
      {
        "midi": 72,
        "time": 166.688,
        "duration": 0.375,
        "velocity": 0.54,
        "hand": "right"
      },
      {
        "midi": 69,
        "time": 167.063,
        "duration": 0.375,
        "velocity": 0.54,
        "hand": "right"
      },
      {
        "midi": 64,
        "time": 167.438,
        "duration": 0.375,
        "velocity": 0.54,
        "hand": "right"
      },
      {
        "midi": 60,
        "time": 168.375,
        "duration": 0.375,
        "velocity": 0.54,
        "hand": "right"
      },
      {
        "midi": 60,
        "time": 176.063,
        "duration": 0.375,
        "velocity": 0.54,
        "hand": "right"
      },
      {
        "midi": 63,
        "time": 176.438,
        "duration": 0.375,
        "velocity": 0.54,
        "hand": "right"
      },
      {
        "midi": 66,
        "time": 176.813,
        "duration": 0.375,
        "velocity": 0.54,
        "hand": "right"
      },
      {
        "midi": 69,
        "time": 177.188,
        "duration": 0.375,
        "velocity": 0.54,
        "hand": "right"
      },
      {
        "midi": 72,
        "time": 177.563,
        "duration": 0.375,
        "velocity": 0.54,
        "hand": "right"
      },
      {
        "midi": 75,
        "time": 177.938,
        "duration": 0.375,
        "velocity": 0.54,
        "hand": "right"
      },
      {
        "midi": 77,
        "time": 178.313,
        "duration": 1.688,
        "velocity": 0.54,
        "hand": "right"
      },
      {
        "midi": 69,
        "time": 178.688,
        "duration": 0.563,
        "velocity": 0.71,
        "hand": "right"
      },
      {
        "midi": 69,
        "time": 179.25,
        "duration": 0.563,
        "velocity": 0.71,
        "hand": "right"
      },
      {
        "midi": 69,
        "time": 179.813,
        "duration": 0.563,
        "velocity": 0.71,
        "hand": "right"
      },
      {
        "midi": 79,
        "time": 180.188,
        "duration": 0.563,
        "velocity": 0.54,
        "hand": "right"
      },
      {
        "midi": 77,
        "time": 180.75,
        "duration": 0.563,
        "velocity": 0.54,
        "hand": "right"
      },
      {
        "midi": 76,
        "time": 181.313,
        "duration": 0.563,
        "velocity": 0.54,
        "hand": "right"
      },
      {
        "midi": 74,
        "time": 181.688,
        "duration": 0.563,
        "velocity": 0.54,
        "hand": "right"
      },
      {
        "midi": 73,
        "time": 182.25,
        "duration": 0.938,
        "velocity": 0.54,
        "hand": "right"
      },
      {
        "midi": 69,
        "time": 182.813,
        "duration": 0.563,
        "velocity": 0.71,
        "hand": "right"
      },
      {
        "midi": 69,
        "time": 183.75,
        "duration": 0.563,
        "velocity": 0.71,
        "hand": "right"
      },
      {
        "midi": 75,
        "time": 184.313,
        "duration": 0.563,
        "velocity": 0.54,
        "hand": "right"
      },
      {
        "midi": 76,
        "time": 184.688,
        "duration": 0.563,
        "velocity": 0.54,
        "hand": "right"
      },
      {
        "midi": 69,
        "time": 185.25,
        "duration": 0.563,
        "velocity": 0.71,
        "hand": "right"
      },
      {
        "midi": 69,
        "time": 185.813,
        "duration": 0.563,
        "velocity": 0.71,
        "hand": "right"
      },
      {
        "midi": 79,
        "time": 186.188,
        "duration": 1.688,
        "velocity": 0.54,
        "hand": "right"
      },
      {
        "midi": 69,
        "time": 186.75,
        "duration": 0.563,
        "velocity": 0.71,
        "hand": "right"
      },
      {
        "midi": 69,
        "time": 187.313,
        "duration": 0.563,
        "velocity": 0.71,
        "hand": "right"
      },
      {
        "midi": 79,
        "time": 188.063,
        "duration": 0.375,
        "velocity": 0.54,
        "hand": "right"
      },
      {
        "midi": 79,
        "time": 188.813,
        "duration": 0.563,
        "velocity": 0.54,
        "hand": "right"
      },
      {
        "midi": 77,
        "time": 189.188,
        "duration": 0.563,
        "velocity": 0.54,
        "hand": "right"
      },
      {
        "midi": 76,
        "time": 189.75,
        "duration": 0.563,
        "velocity": 0.54,
        "hand": "right"
      },
      {
        "midi": 74,
        "time": 190.313,
        "duration": 0.938,
        "velocity": 0.54,
        "hand": "right"
      },
      {
        "midi": 69,
        "time": 190.688,
        "duration": 0.563,
        "velocity": 0.71,
        "hand": "right"
      },
      {
        "midi": 69,
        "time": 191.25,
        "duration": 0.563,
        "velocity": 0.71,
        "hand": "right"
      },
      {
        "midi": 69,
        "time": 191.813,
        "duration": 0.563,
        "velocity": 0.71,
        "hand": "right"
      },
      {
        "midi": 79,
        "time": 192.188,
        "duration": 0.563,
        "velocity": 0.54,
        "hand": "right"
      },
      {
        "midi": 77,
        "time": 192.75,
        "duration": 0.563,
        "velocity": 0.54,
        "hand": "right"
      },
      {
        "midi": 69,
        "time": 193.313,
        "duration": 0.563,
        "velocity": 0.71,
        "hand": "right"
      },
      {
        "midi": 81,
        "time": 194.25,
        "duration": 2.063,
        "velocity": 0.75,
        "hand": "right"
      },
      {
        "midi": 62,
        "time": 195.188,
        "duration": 0.938,
        "velocity": 0.71,
        "hand": "right"
      },
      {
        "midi": 82,
        "time": 196.313,
        "duration": 0.563,
        "velocity": 0.75,
        "hand": "right"
      },
      {
        "midi": 81,
        "time": 198.188,
        "duration": 0.75,
        "velocity": 0.54,
        "hand": "right"
      },
      {
        "midi": 86,
        "time": 198.938,
        "duration": 0.375,
        "velocity": 0.54,
        "hand": "right"
      },
      {
        "midi": 85,
        "time": 199.313,
        "duration": 0.375,
        "velocity": 0.54,
        "hand": "right"
      },
      {
        "midi": 83,
        "time": 199.875,
        "duration": 0.375,
        "velocity": 0.54,
        "hand": "right"
      },
      {
        "midi": 82,
        "time": 200.25,
        "duration": 0.938,
        "velocity": 0.54,
        "hand": "right"
      },
      {
        "midi": 81,
        "time": 201.938,
        "duration": 0.375,
        "velocity": 0.54,
        "hand": "right"
      },
      {
        "midi": 80,
        "time": 202.688,
        "duration": 0.563,
        "velocity": 0.54,
        "hand": "right"
      },
      {
        "midi": 80,
        "time": 204,
        "duration": 0.375,
        "velocity": 0.54,
        "hand": "right"
      },
      {
        "midi": 79,
        "time": 204.75,
        "duration": 0.563,
        "velocity": 0.54,
        "hand": "right"
      },
      {
        "midi": 79,
        "time": 206.063,
        "duration": 0.375,
        "velocity": 0.54,
        "hand": "right"
      },
      {
        "midi": 77,
        "time": 206.813,
        "duration": 0.563,
        "velocity": 0.54,
        "hand": "right"
      },
      {
        "midi": 77,
        "time": 207.938,
        "duration": 0.375,
        "velocity": 0.54,
        "hand": "right"
      },
      {
        "midi": 75,
        "time": 208.313,
        "duration": 1.688,
        "velocity": 0.75,
        "hand": "right"
      },
      {
        "midi": 77,
        "time": 210,
        "duration": 0.375,
        "velocity": 0.54,
        "hand": "right"
      },
      {
        "midi": 81,
        "time": 210.938,
        "duration": 0.375,
        "velocity": 0.54,
        "hand": "right"
      },
      {
        "midi": 82,
        "time": 211.313,
        "duration": 0.563,
        "velocity": 0.54,
        "hand": "right"
      },
      {
        "midi": 62,
        "time": 213,
        "duration": 0.375,
        "velocity": 0.54,
        "hand": "right"
      },
      {
        "midi": 71,
        "time": 213.375,
        "duration": 0.375,
        "velocity": 0.75,
        "hand": "right"
      },
      {
        "midi": 80,
        "time": 213.75,
        "duration": 0.375,
        "velocity": 0.54,
        "hand": "right"
      },
      {
        "midi": 89,
        "time": 214.125,
        "duration": 0.375,
        "velocity": 0.54,
        "hand": "right"
      },
      {
        "midi": 81,
        "time": 214.5,
        "duration": 0.563,
        "velocity": 0.54,
        "hand": "right"
      },
      {
        "midi": 61,
        "time": 216.563,
        "duration": 0.563,
        "velocity": 0.54,
        "hand": "right"
      },
      {
        "midi": 69,
        "time": 218.438,
        "duration": 0.563,
        "velocity": 0.54,
        "hand": "right"
      },
      {
        "midi": 78,
        "time": 219,
        "duration": 0.375,
        "velocity": 0.54,
        "hand": "right"
      },
      {
        "midi": 73,
        "time": 219.563,
        "duration": 0.563,
        "velocity": 0.54,
        "hand": "right"
      },
      {
        "midi": 71,
        "time": 219.938,
        "duration": 0.375,
        "velocity": 0.54,
        "hand": "right"
      },
      {
        "midi": 79,
        "time": 220.313,
        "duration": 0.375,
        "velocity": 0.54,
        "hand": "right"
      },
      {
        "midi": 73,
        "time": 220.688,
        "duration": 0.75,
        "velocity": 0.71,
        "hand": "right"
      },
      {
        "midi": 83,
        "time": 221.063,
        "duration": 0.375,
        "velocity": 0.71,
        "hand": "right"
      },
      {
        "midi": 81,
        "time": 221.438,
        "duration": 0.375,
        "velocity": 0.71,
        "hand": "right"
      },
      {
        "midi": 78,
        "time": 222,
        "duration": 0.375,
        "velocity": 0.71,
        "hand": "right"
      },
      {
        "midi": 76,
        "time": 222.75,
        "duration": 0.375,
        "velocity": 0.54,
        "hand": "right"
      },
      {
        "midi": 76,
        "time": 223.313,
        "duration": 0.375,
        "velocity": 0.54,
        "hand": "right"
      },
      {
        "midi": 81,
        "time": 223.688,
        "duration": 0.375,
        "velocity": 0.54,
        "hand": "right"
      },
      {
        "midi": 71,
        "time": 224.063,
        "duration": 0.375,
        "velocity": 0.54,
        "hand": "right"
      },
      {
        "midi": 69,
        "time": 224.438,
        "duration": 0.563,
        "velocity": 0.54,
        "hand": "right"
      },
      {
        "midi": 73,
        "time": 225,
        "duration": 0.375,
        "velocity": 0.71,
        "hand": "right"
      },
      {
        "midi": 71,
        "time": 225.375,
        "duration": 0.375,
        "velocity": 0.71,
        "hand": "right"
      },
      {
        "midi": 74,
        "time": 226.5,
        "duration": 0.563,
        "velocity": 0.54,
        "hand": "right"
      },
      {
        "midi": 76,
        "time": 227.063,
        "duration": 0.375,
        "velocity": 0.54,
        "hand": "right"
      },
      {
        "midi": 71,
        "time": 227.438,
        "duration": 0.75,
        "velocity": 0.54,
        "hand": "right"
      },
      {
        "midi": 63,
        "time": 227.813,
        "duration": 0.375,
        "velocity": 0.71,
        "hand": "right"
      },
      {
        "midi": 73,
        "time": 228.188,
        "duration": 0.375,
        "velocity": 0.54,
        "hand": "right"
      },
      {
        "midi": 78,
        "time": 228.563,
        "duration": 0.375,
        "velocity": 0.54,
        "hand": "right"
      },
      {
        "midi": 83,
        "time": 228.938,
        "duration": 0.375,
        "velocity": 0.54,
        "hand": "right"
      },
      {
        "midi": 73,
        "time": 230.063,
        "duration": 0.375,
        "velocity": 0.54,
        "hand": "right"
      },
      {
        "midi": 80,
        "time": 230.438,
        "duration": 0.375,
        "velocity": 0.54,
        "hand": "right"
      },
      {
        "midi": 86,
        "time": 230.813,
        "duration": 0.375,
        "velocity": 0.54,
        "hand": "right"
      },
      {
        "midi": 80,
        "time": 231.188,
        "duration": 0.375,
        "velocity": 0.54,
        "hand": "right"
      },
      {
        "midi": 88,
        "time": 231.563,
        "duration": 0.375,
        "velocity": 0.54,
        "hand": "right"
      },
      {
        "midi": 78,
        "time": 231.938,
        "duration": 0.375,
        "velocity": 0.54,
        "hand": "right"
      },
      {
        "midi": 83,
        "time": 232.313,
        "duration": 0.375,
        "velocity": 0.54,
        "hand": "right"
      },
      {
        "midi": 78,
        "time": 233.063,
        "duration": 0.375,
        "velocity": 0.71,
        "hand": "right"
      },
      {
        "midi": 76,
        "time": 233.438,
        "duration": 0.375,
        "velocity": 0.71,
        "hand": "right"
      },
      {
        "midi": 74,
        "time": 234.563,
        "duration": 0.563,
        "velocity": 0.71,
        "hand": "right"
      },
      {
        "midi": 69,
        "time": 234.938,
        "duration": 0.375,
        "velocity": 0.75,
        "hand": "right"
      },
      {
        "midi": 74,
        "time": 235.313,
        "duration": 0.375,
        "velocity": 0.54,
        "hand": "right"
      },
      {
        "midi": 81,
        "time": 235.688,
        "duration": 0.375,
        "velocity": 0.54,
        "hand": "right"
      },
      {
        "midi": 81,
        "time": 236.438,
        "duration": 0.375,
        "velocity": 0.54,
        "hand": "right"
      },
      {
        "midi": 74,
        "time": 236.813,
        "duration": 0.375,
        "velocity": 0.75,
        "hand": "right"
      },
      {
        "midi": 73,
        "time": 237.563,
        "duration": 0.375,
        "velocity": 0.54,
        "hand": "right"
      },
      {
        "midi": 81,
        "time": 237.938,
        "duration": 0.375,
        "velocity": 0.54,
        "hand": "right"
      },
      {
        "midi": 74,
        "time": 238.688,
        "duration": 0.375,
        "velocity": 0.75,
        "hand": "right"
      },
      {
        "midi": 86,
        "time": 239.063,
        "duration": 0.375,
        "velocity": 0.54,
        "hand": "right"
      },
      {
        "midi": 84,
        "time": 239.438,
        "duration": 0.375,
        "velocity": 0.54,
        "hand": "right"
      },
      {
        "midi": 84,
        "time": 240.188,
        "duration": 0.375,
        "velocity": 0.54,
        "hand": "right"
      },
      {
        "midi": 83,
        "time": 240.938,
        "duration": 0.375,
        "velocity": 0.71,
        "hand": "right"
      },
      {
        "midi": 78,
        "time": 241.313,
        "duration": 0.375,
        "velocity": 0.71,
        "hand": "right"
      },
      {
        "midi": 78,
        "time": 242.063,
        "duration": 0.375,
        "velocity": 0.71,
        "hand": "right"
      },
      {
        "midi": 76,
        "time": 242.438,
        "duration": 0.375,
        "velocity": 0.71,
        "hand": "right"
      },
      {
        "midi": 69,
        "time": 242.813,
        "duration": 0.375,
        "velocity": 0.75,
        "hand": "right"
      },
      {
        "midi": 74,
        "time": 243.188,
        "duration": 0.375,
        "velocity": 0.54,
        "hand": "right"
      },
      {
        "midi": 73,
        "time": 243.563,
        "duration": 0.375,
        "velocity": 0.54,
        "hand": "right"
      },
      {
        "midi": 81,
        "time": 243.938,
        "duration": 0.375,
        "velocity": 0.54,
        "hand": "right"
      },
      {
        "midi": 74,
        "time": 244.688,
        "duration": 0.375,
        "velocity": 0.75,
        "hand": "right"
      },
      {
        "midi": 86,
        "time": 245.063,
        "duration": 0.375,
        "velocity": 0.54,
        "hand": "right"
      },
      {
        "midi": 73,
        "time": 245.438,
        "duration": 0.375,
        "velocity": 0.54,
        "hand": "right"
      },
      {
        "midi": 81,
        "time": 245.813,
        "duration": 0.375,
        "velocity": 0.54,
        "hand": "right"
      },
      {
        "midi": 81,
        "time": 246.563,
        "duration": 0.375,
        "velocity": 0.54,
        "hand": "right"
      },
      {
        "midi": 86,
        "time": 246.938,
        "duration": 0.375,
        "velocity": 0.54,
        "hand": "right"
      },
      {
        "midi": 74,
        "time": 247.313,
        "duration": 0.375,
        "velocity": 0.54,
        "hand": "right"
      },
      {
        "midi": 69,
        "time": 247.688,
        "duration": 0.375,
        "velocity": 0.75,
        "hand": "right"
      },
      {
        "midi": 76,
        "time": 248.438,
        "duration": 0.563,
        "velocity": 0.54,
        "hand": "right"
      },
      {
        "midi": 86,
        "time": 249.563,
        "duration": 0.563,
        "velocity": 0.54,
        "hand": "right"
      },
      {
        "midi": 62,
        "time": 252.563,
        "duration": 0.375,
        "velocity": 0.54,
        "hand": "right"
      },
      {
        "midi": 69,
        "time": 252.938,
        "duration": 0.375,
        "velocity": 0.54,
        "hand": "right"
      },
      {
        "midi": 76,
        "time": 253.313,
        "duration": 0.375,
        "velocity": 0.54,
        "hand": "right"
      },
      {
        "midi": 83,
        "time": 253.688,
        "duration": 0.375,
        "velocity": 0.54,
        "hand": "right"
      },
      {
        "midi": 88,
        "time": 254.063,
        "duration": 0.375,
        "velocity": 0.54,
        "hand": "right"
      },
      {
        "midi": 83,
        "time": 254.438,
        "duration": 0.375,
        "velocity": 0.54,
        "hand": "right"
      },
      {
        "midi": 81,
        "time": 254.813,
        "duration": 0.375,
        "velocity": 0.54,
        "hand": "right"
      },
      {
        "midi": 79,
        "time": 255.188,
        "duration": 0.375,
        "velocity": 0.54,
        "hand": "right"
      },
      {
        "midi": 78,
        "time": 255.563,
        "duration": 0.375,
        "velocity": 0.54,
        "hand": "right"
      },
      {
        "midi": 76,
        "time": 255.938,
        "duration": 0.375,
        "velocity": 0.54,
        "hand": "right"
      },
      {
        "midi": 67,
        "time": 258.938,
        "duration": 1.688,
        "velocity": 0.75,
        "hand": "right"
      },
      {
        "midi": 78,
        "time": 259.313,
        "duration": 0.375,
        "velocity": 0.54,
        "hand": "right"
      },
      {
        "midi": 81,
        "time": 259.688,
        "duration": 0.375,
        "velocity": 0.54,
        "hand": "right"
      },
      {
        "midi": 78,
        "time": 260.063,
        "duration": 0.375,
        "velocity": 0.54,
        "hand": "right"
      },
      {
        "midi": 78,
        "time": 260.813,
        "duration": 0.375,
        "velocity": 0.54,
        "hand": "right"
      },
      {
        "midi": 74,
        "time": 261.188,
        "duration": 0.375,
        "velocity": 0.54,
        "hand": "right"
      },
      {
        "midi": 73,
        "time": 261.563,
        "duration": 0.375,
        "velocity": 0.54,
        "hand": "right"
      },
      {
        "midi": 74,
        "time": 261.938,
        "duration": 0.375,
        "velocity": 0.54,
        "hand": "right"
      },
      {
        "midi": 73,
        "time": 262.313,
        "duration": 0.375,
        "velocity": 0.54,
        "hand": "right"
      },
      {
        "midi": 69,
        "time": 262.688,
        "duration": 0.563,
        "velocity": 0.54,
        "hand": "right"
      },
      {
        "midi": 78,
        "time": 263.25,
        "duration": 0.375,
        "velocity": 0.54,
        "hand": "right"
      },
      {
        "midi": 73,
        "time": 263.813,
        "duration": 0.563,
        "velocity": 0.54,
        "hand": "right"
      },
      {
        "midi": 71,
        "time": 264.188,
        "duration": 0.375,
        "velocity": 0.54,
        "hand": "right"
      },
      {
        "midi": 79,
        "time": 264.563,
        "duration": 0.375,
        "velocity": 0.54,
        "hand": "right"
      },
      {
        "midi": 73,
        "time": 264.938,
        "duration": 0.75,
        "velocity": 0.71,
        "hand": "right"
      },
      {
        "midi": 83,
        "time": 265.313,
        "duration": 0.375,
        "velocity": 0.71,
        "hand": "right"
      },
      {
        "midi": 81,
        "time": 265.688,
        "duration": 0.375,
        "velocity": 0.71,
        "hand": "right"
      },
      {
        "midi": 78,
        "time": 266.25,
        "duration": 0.375,
        "velocity": 0.71,
        "hand": "right"
      },
      {
        "midi": 86,
        "time": 267,
        "duration": 0.375,
        "velocity": 0.54,
        "hand": "right"
      },
      {
        "midi": 86,
        "time": 267.563,
        "duration": 0.375,
        "velocity": 0.54,
        "hand": "right"
      },
      {
        "midi": 79,
        "time": 268.5,
        "duration": 0.375,
        "velocity": 0.54,
        "hand": "right"
      },
      {
        "midi": 73,
        "time": 269.063,
        "duration": 0.375,
        "velocity": 0.54,
        "hand": "right"
      },
      {
        "midi": 74,
        "time": 269.813,
        "duration": 0.563,
        "velocity": 0.54,
        "hand": "right"
      },
      {
        "midi": 83,
        "time": 270.75,
        "duration": 0.563,
        "velocity": 0.75,
        "hand": "right"
      },
      {
        "midi": 81,
        "time": 271.688,
        "duration": 0.563,
        "velocity": 0.75,
        "hand": "right"
      },
      {
        "midi": 61,
        "time": 272.813,
        "duration": 0.563,
        "velocity": 0.54,
        "hand": "right"
      },
      {
        "midi": 66,
        "time": 274.313,
        "duration": 0.375,
        "velocity": 0.49,
        "hand": "right"
      },
      {
        "midi": 61,
        "time": 274.688,
        "duration": 0.563,
        "velocity": 0.49,
        "hand": "right"
      },
      {
        "midi": 67,
        "time": 275.438,
        "duration": 0.375,
        "velocity": 0.49,
        "hand": "right"
      },
      {
        "midi": 62,
        "time": 275.813,
        "duration": 0.375,
        "velocity": 0.71,
        "hand": "right"
      },
      {
        "midi": 71,
        "time": 276.188,
        "duration": 0.375,
        "velocity": 0.71,
        "hand": "right"
      },
      {
        "midi": 69,
        "time": 276.563,
        "duration": 0.375,
        "velocity": 0.71,
        "hand": "right"
      },
      {
        "midi": 66,
        "time": 277.125,
        "duration": 0.375,
        "velocity": 0.71,
        "hand": "right"
      },
      {
        "midi": 69,
        "time": 277.688,
        "duration": 0.563,
        "velocity": 0.75,
        "hand": "right"
      },
      {
        "midi": 78,
        "time": 278.25,
        "duration": 0.375,
        "velocity": 0.75,
        "hand": "right"
      },
      {
        "midi": 71,
        "time": 278.813,
        "duration": 0.75,
        "velocity": 0.75,
        "hand": "right"
      },
      {
        "midi": 79,
        "time": 279.563,
        "duration": 0.375,
        "velocity": 0.75,
        "hand": "right"
      },
      {
        "midi": 76,
        "time": 279.938,
        "duration": 0.375,
        "velocity": 0.75,
        "hand": "right"
      },
      {
        "midi": 81,
        "time": 280.313,
        "duration": 0.375,
        "velocity": 0.75,
        "hand": "right"
      },
      {
        "midi": 86,
        "time": 280.688,
        "duration": 0.375,
        "velocity": 0.75,
        "hand": "right"
      },
      {
        "midi": 81,
        "time": 281.25,
        "duration": 0.375,
        "velocity": 0.8,
        "hand": "right"
      },
      {
        "midi": 78,
        "time": 281.813,
        "duration": 0.375,
        "velocity": 0.8,
        "hand": "right"
      },
      {
        "midi": 73,
        "time": 282.188,
        "duration": 0.375,
        "velocity": 0.8,
        "hand": "right"
      },
      {
        "midi": 74,
        "time": 282.75,
        "duration": 0.563,
        "velocity": 0.8,
        "hand": "right"
      }
    ],
    "medium": [
      {
        "midi": 38,
        "time": 0,
        "duration": 3,
        "velocity": 0.71,
        "hand": "left"
      },
      {
        "midi": 41,
        "time": 0.188,
        "duration": 0.188,
        "velocity": 0.71,
        "hand": "left"
      },
      {
        "midi": 45,
        "time": 0.563,
        "duration": 0.188,
        "velocity": 0.71,
        "hand": "left"
      },
      {
        "midi": 50,
        "time": 0.75,
        "duration": 2.25,
        "velocity": 0.71,
        "hand": "left"
      },
      {
        "midi": 53,
        "time": 0.938,
        "duration": 0.188,
        "velocity": 0.71,
        "hand": "left"
      },
      {
        "midi": 57,
        "time": 1.313,
        "duration": 0.188,
        "velocity": 0.71,
        "hand": "left"
      },
      {
        "midi": 62,
        "time": 1.5,
        "duration": 0.188,
        "velocity": 0.71,
        "hand": "right"
      },
      {
        "midi": 57,
        "time": 1.688,
        "duration": 0.188,
        "velocity": 0.71,
        "hand": "left"
      },
      {
        "midi": 65,
        "time": 2.063,
        "duration": 0.188,
        "velocity": 0.71,
        "hand": "right"
      },
      {
        "midi": 62,
        "time": 2.25,
        "duration": 0.188,
        "velocity": 0.71,
        "hand": "right"
      },
      {
        "midi": 57,
        "time": 2.438,
        "duration": 0.188,
        "velocity": 0.71,
        "hand": "left"
      },
      {
        "midi": 53,
        "time": 2.813,
        "duration": 0.188,
        "velocity": 0.71,
        "hand": "left"
      },
      {
        "midi": 38,
        "time": 3,
        "duration": 3,
        "velocity": 0.71,
        "hand": "left"
      },
      {
        "midi": 41,
        "time": 3.188,
        "duration": 0.188,
        "velocity": 0.71,
        "hand": "left"
      },
      {
        "midi": 45,
        "time": 3.563,
        "duration": 0.188,
        "velocity": 0.71,
        "hand": "left"
      },
      {
        "midi": 50,
        "time": 3.75,
        "duration": 2.25,
        "velocity": 0.71,
        "hand": "left"
      },
      {
        "midi": 53,
        "time": 3.938,
        "duration": 0.188,
        "velocity": 0.71,
        "hand": "left"
      },
      {
        "midi": 57,
        "time": 4.313,
        "duration": 0.188,
        "velocity": 0.71,
        "hand": "left"
      },
      {
        "midi": 62,
        "time": 4.5,
        "duration": 0.188,
        "velocity": 0.71,
        "hand": "right"
      },
      {
        "midi": 57,
        "time": 4.688,
        "duration": 0.188,
        "velocity": 0.71,
        "hand": "left"
      },
      {
        "midi": 65,
        "time": 5.063,
        "duration": 0.188,
        "velocity": 0.71,
        "hand": "right"
      },
      {
        "midi": 62,
        "time": 5.25,
        "duration": 0.188,
        "velocity": 0.71,
        "hand": "right"
      },
      {
        "midi": 57,
        "time": 5.438,
        "duration": 0.188,
        "velocity": 0.71,
        "hand": "left"
      },
      {
        "midi": 53,
        "time": 5.813,
        "duration": 0.188,
        "velocity": 0.71,
        "hand": "left"
      },
      {
        "midi": 38,
        "time": 6,
        "duration": 3,
        "velocity": 0.71,
        "hand": "left"
      },
      {
        "midi": 43,
        "time": 6.188,
        "duration": 0.188,
        "velocity": 0.71,
        "hand": "left"
      },
      {
        "midi": 46,
        "time": 6.563,
        "duration": 0.188,
        "velocity": 0.71,
        "hand": "left"
      },
      {
        "midi": 50,
        "time": 6.75,
        "duration": 2.25,
        "velocity": 0.71,
        "hand": "left"
      },
      {
        "midi": 55,
        "time": 6.938,
        "duration": 0.188,
        "velocity": 0.71,
        "hand": "left"
      },
      {
        "midi": 58,
        "time": 7.313,
        "duration": 0.188,
        "velocity": 0.71,
        "hand": "left"
      },
      {
        "midi": 64,
        "time": 7.5,
        "duration": 0.188,
        "velocity": 0.71,
        "hand": "right"
      },
      {
        "midi": 58,
        "time": 7.688,
        "duration": 0.188,
        "velocity": 0.71,
        "hand": "left"
      },
      {
        "midi": 67,
        "time": 8.063,
        "duration": 0.188,
        "velocity": 0.71,
        "hand": "right"
      },
      {
        "midi": 64,
        "time": 8.25,
        "duration": 0.188,
        "velocity": 0.71,
        "hand": "right"
      },
      {
        "midi": 58,
        "time": 8.438,
        "duration": 0.188,
        "velocity": 0.71,
        "hand": "left"
      },
      {
        "midi": 55,
        "time": 8.813,
        "duration": 0.188,
        "velocity": 0.71,
        "hand": "left"
      },
      {
        "midi": 38,
        "time": 9,
        "duration": 3,
        "velocity": 0.71,
        "hand": "left"
      },
      {
        "midi": 43,
        "time": 9.188,
        "duration": 0.188,
        "velocity": 0.71,
        "hand": "left"
      },
      {
        "midi": 46,
        "time": 9.563,
        "duration": 0.188,
        "velocity": 0.71,
        "hand": "left"
      },
      {
        "midi": 50,
        "time": 9.75,
        "duration": 2.25,
        "velocity": 0.71,
        "hand": "left"
      },
      {
        "midi": 55,
        "time": 9.938,
        "duration": 0.188,
        "velocity": 0.71,
        "hand": "left"
      },
      {
        "midi": 58,
        "time": 10.313,
        "duration": 0.188,
        "velocity": 0.71,
        "hand": "left"
      },
      {
        "midi": 64,
        "time": 10.5,
        "duration": 0.188,
        "velocity": 0.71,
        "hand": "right"
      },
      {
        "midi": 58,
        "time": 10.688,
        "duration": 0.188,
        "velocity": 0.71,
        "hand": "left"
      },
      {
        "midi": 67,
        "time": 11.063,
        "duration": 0.188,
        "velocity": 0.71,
        "hand": "right"
      },
      {
        "midi": 64,
        "time": 11.25,
        "duration": 0.188,
        "velocity": 0.71,
        "hand": "right"
      },
      {
        "midi": 58,
        "time": 11.438,
        "duration": 0.188,
        "velocity": 0.71,
        "hand": "left"
      },
      {
        "midi": 55,
        "time": 11.813,
        "duration": 0.188,
        "velocity": 0.71,
        "hand": "left"
      },
      {
        "midi": 36,
        "time": 12,
        "duration": 3,
        "velocity": 0.71,
        "hand": "left"
      },
      {
        "midi": 42,
        "time": 12.188,
        "duration": 0.188,
        "velocity": 0.71,
        "hand": "left"
      },
      {
        "midi": 45,
        "time": 12.563,
        "duration": 0.188,
        "velocity": 0.71,
        "hand": "left"
      },
      {
        "midi": 48,
        "time": 12.75,
        "duration": 2.25,
        "velocity": 0.71,
        "hand": "left"
      },
      {
        "midi": 57,
        "time": 12.938,
        "duration": 0.188,
        "velocity": 0.71,
        "hand": "left"
      },
      {
        "midi": 62,
        "time": 13.313,
        "duration": 0.188,
        "velocity": 0.71,
        "hand": "right"
      },
      {
        "midi": 66,
        "time": 13.5,
        "duration": 0.188,
        "velocity": 0.71,
        "hand": "right"
      },
      {
        "midi": 62,
        "time": 13.688,
        "duration": 0.188,
        "velocity": 0.71,
        "hand": "right"
      },
      {
        "midi": 69,
        "time": 14.063,
        "duration": 0.188,
        "velocity": 0.71,
        "hand": "right"
      },
      {
        "midi": 66,
        "time": 14.25,
        "duration": 0.188,
        "velocity": 0.71,
        "hand": "right"
      },
      {
        "midi": 62,
        "time": 14.438,
        "duration": 0.188,
        "velocity": 0.71,
        "hand": "right"
      },
      {
        "midi": 57,
        "time": 14.813,
        "duration": 0.188,
        "velocity": 0.71,
        "hand": "left"
      },
      {
        "midi": 36,
        "time": 15,
        "duration": 3,
        "velocity": 0.71,
        "hand": "left"
      },
      {
        "midi": 42,
        "time": 15.188,
        "duration": 0.188,
        "velocity": 0.71,
        "hand": "left"
      },
      {
        "midi": 45,
        "time": 15.563,
        "duration": 0.188,
        "velocity": 0.71,
        "hand": "left"
      },
      {
        "midi": 48,
        "time": 15.75,
        "duration": 2.25,
        "velocity": 0.71,
        "hand": "left"
      },
      {
        "midi": 57,
        "time": 15.938,
        "duration": 0.188,
        "velocity": 0.71,
        "hand": "left"
      },
      {
        "midi": 62,
        "time": 16.313,
        "duration": 0.188,
        "velocity": 0.71,
        "hand": "right"
      },
      {
        "midi": 66,
        "time": 16.5,
        "duration": 0.188,
        "velocity": 0.71,
        "hand": "right"
      },
      {
        "midi": 62,
        "time": 16.688,
        "duration": 0.188,
        "velocity": 0.71,
        "hand": "right"
      },
      {
        "midi": 69,
        "time": 17.063,
        "duration": 0.188,
        "velocity": 0.71,
        "hand": "right"
      },
      {
        "midi": 66,
        "time": 17.25,
        "duration": 0.188,
        "velocity": 0.71,
        "hand": "right"
      },
      {
        "midi": 62,
        "time": 17.438,
        "duration": 0.188,
        "velocity": 0.71,
        "hand": "right"
      },
      {
        "midi": 57,
        "time": 17.813,
        "duration": 0.188,
        "velocity": 0.71,
        "hand": "left"
      },
      {
        "midi": 46,
        "time": 18,
        "duration": 1.5,
        "velocity": 0.71,
        "hand": "left"
      },
      {
        "midi": 50,
        "time": 18.188,
        "duration": 0.188,
        "velocity": 0.71,
        "hand": "left"
      },
      {
        "midi": 55,
        "time": 18.563,
        "duration": 0.938,
        "velocity": 0.71,
        "hand": "left"
      },
      {
        "midi": 62,
        "time": 18.75,
        "duration": 0.188,
        "velocity": 0.71,
        "hand": "right"
      },
      {
        "midi": 69,
        "time": 18.938,
        "duration": 0.188,
        "velocity": 0.71,
        "hand": "right"
      },
      {
        "midi": 67,
        "time": 19.313,
        "duration": 0.938,
        "velocity": 0.71,
        "hand": "right"
      },
      {
        "midi": 45,
        "time": 19.5,
        "duration": 1.5,
        "velocity": 0.71,
        "hand": "left"
      },
      {
        "midi": 48,
        "time": 19.688,
        "duration": 0.188,
        "velocity": 0.71,
        "hand": "left"
      },
      {
        "midi": 53,
        "time": 20.063,
        "duration": 0.938,
        "velocity": 0.71,
        "hand": "left"
      },
      {
        "midi": 60,
        "time": 20.25,
        "duration": 0.188,
        "velocity": 0.71,
        "hand": "right"
      },
      {
        "midi": 67,
        "time": 20.438,
        "duration": 0.188,
        "velocity": 0.71,
        "hand": "right"
      },
      {
        "midi": 65,
        "time": 20.813,
        "duration": 0.938,
        "velocity": 0.71,
        "hand": "right"
      },
      {
        "midi": 43,
        "time": 21,
        "duration": 1.5,
        "velocity": 0.71,
        "hand": "left"
      },
      {
        "midi": 46,
        "time": 21.188,
        "duration": 0.188,
        "velocity": 0.71,
        "hand": "left"
      },
      {
        "midi": 51,
        "time": 21.563,
        "duration": 0.938,
        "velocity": 0.71,
        "hand": "left"
      },
      {
        "midi": 58,
        "time": 21.75,
        "duration": 0.188,
        "velocity": 0.71,
        "hand": "left"
      },
      {
        "midi": 65,
        "time": 21.938,
        "duration": 0.188,
        "velocity": 0.71,
        "hand": "right"
      },
      {
        "midi": 63,
        "time": 22.313,
        "duration": 0.938,
        "velocity": 0.71,
        "hand": "right"
      },
      {
        "midi": 44,
        "time": 22.5,
        "duration": 1.5,
        "velocity": 0.71,
        "hand": "left"
      },
      {
        "midi": 47,
        "time": 22.688,
        "duration": 0.188,
        "velocity": 0.71,
        "hand": "left"
      },
      {
        "midi": 53,
        "time": 23.063,
        "duration": 0.938,
        "velocity": 0.71,
        "hand": "left"
      },
      {
        "midi": 59,
        "time": 23.25,
        "duration": 0.188,
        "velocity": 0.71,
        "hand": "left"
      },
      {
        "midi": 64,
        "time": 23.438,
        "duration": 0.188,
        "velocity": 0.71,
        "hand": "right"
      },
      {
        "midi": 62,
        "time": 23.813,
        "duration": 0.188,
        "velocity": 0.71,
        "hand": "right"
      },
      {
        "midi": 45,
        "time": 24,
        "duration": 0.188,
        "velocity": 0.71,
        "hand": "left"
      },
      {
        "midi": 49,
        "time": 24.188,
        "duration": 0.188,
        "velocity": 0.71,
        "hand": "left"
      },
      {
        "midi": 52,
        "time": 24.563,
        "duration": 0.188,
        "velocity": 0.71,
        "hand": "left"
      },
      {
        "midi": 57,
        "time": 24.75,
        "duration": 0.75,
        "velocity": 0.71,
        "hand": "left"
      },
      {
        "midi": 61,
        "time": 24.938,
        "duration": 0.188,
        "velocity": 0.71,
        "hand": "right"
      },
      {
        "midi": 64,
        "time": 25.313,
        "duration": 0.188,
        "velocity": 0.71,
        "hand": "right"
      },
      {
        "midi": 69,
        "time": 25.5,
        "duration": 0.188,
        "velocity": 0.71,
        "hand": "right"
      },
      {
        "midi": 73,
        "time": 25.688,
        "duration": 0.188,
        "velocity": 0.71,
        "hand": "right"
      },
      {
        "midi": 76,
        "time": 26.063,
        "duration": 0.188,
        "velocity": 0.71,
        "hand": "right"
      },
      {
        "midi": 81,
        "time": 26.25,
        "duration": 0.188,
        "velocity": 0.71,
        "hand": "right"
      },
      {
        "midi": 85,
        "time": 26.438,
        "duration": 0.188,
        "velocity": 0.71,
        "hand": "right"
      },
      {
        "midi": 88,
        "time": 26.813,
        "duration": 0.188,
        "velocity": 0.71,
        "hand": "right"
      },
      {
        "midi": 87,
        "time": 27,
        "duration": 0.188,
        "velocity": 0.71,
        "hand": "right"
      },
      {
        "midi": 88,
        "time": 27.188,
        "duration": 0.188,
        "velocity": 0.71,
        "hand": "right"
      },
      {
        "midi": 84,
        "time": 27.563,
        "duration": 0.188,
        "velocity": 0.71,
        "hand": "right"
      },
      {
        "midi": 85,
        "time": 27.75,
        "duration": 0.188,
        "velocity": 0.71,
        "hand": "right"
      },
      {
        "midi": 80,
        "time": 27.938,
        "duration": 0.188,
        "velocity": 0.71,
        "hand": "right"
      },
      {
        "midi": 81,
        "time": 28.313,
        "duration": 0.188,
        "velocity": 0.71,
        "hand": "right"
      },
      {
        "midi": 75,
        "time": 28.5,
        "duration": 0.188,
        "velocity": 0.71,
        "hand": "right"
      },
      {
        "midi": 76,
        "time": 28.688,
        "duration": 0.188,
        "velocity": 0.71,
        "hand": "right"
      },
      {
        "midi": 72,
        "time": 29.063,
        "duration": 0.188,
        "velocity": 0.71,
        "hand": "right"
      },
      {
        "midi": 73,
        "time": 29.25,
        "duration": 0.188,
        "velocity": 0.71,
        "hand": "right"
      },
      {
        "midi": 68,
        "time": 29.438,
        "duration": 0.188,
        "velocity": 0.71,
        "hand": "right"
      },
      {
        "midi": 69,
        "time": 29.813,
        "duration": 0.188,
        "velocity": 0.71,
        "hand": "right"
      },
      {
        "midi": 33,
        "time": 30,
        "duration": 1.5,
        "velocity": 0.71,
        "hand": "left"
      },
      {
        "midi": 62,
        "time": 33,
        "duration": 2.063,
        "velocity": 0.71,
        "hand": "right"
      },
      {
        "midi": 77,
        "time": 33,
        "duration": 1.688,
        "velocity": 0.54,
        "hand": "right"
      },
      {
        "midi": 65,
        "time": 33.563,
        "duration": 0.563,
        "velocity": 0.71,
        "hand": "right"
      },
      {
        "midi": 69,
        "time": 33.563,
        "duration": 0.563,
        "velocity": 0.71,
        "hand": "right"
      },
      {
        "midi": 65,
        "time": 33.938,
        "duration": 0.563,
        "velocity": 0.71,
        "hand": "right"
      },
      {
        "midi": 69,
        "time": 33.938,
        "duration": 0.563,
        "velocity": 0.71,
        "hand": "right"
      },
      {
        "midi": 65,
        "time": 34.5,
        "duration": 0.563,
        "velocity": 0.71,
        "hand": "right"
      },
      {
        "midi": 69,
        "time": 34.5,
        "duration": 0.563,
        "velocity": 0.71,
        "hand": "right"
      },
      {
        "midi": 76,
        "time": 34.688,
        "duration": 0.188,
        "velocity": 0.54,
        "hand": "right"
      },
      {
        "midi": 77,
        "time": 34.875,
        "duration": 0.188,
        "velocity": 0.54,
        "hand": "right"
      },
      {
        "midi": 62,
        "time": 35.063,
        "duration": 2.063,
        "velocity": 0.71,
        "hand": "right"
      },
      {
        "midi": 79,
        "time": 35.063,
        "duration": 0.563,
        "velocity": 0.54,
        "hand": "right"
      },
      {
        "midi": 65,
        "time": 35.438,
        "duration": 0.563,
        "velocity": 0.71,
        "hand": "right"
      },
      {
        "midi": 69,
        "time": 35.438,
        "duration": 0.563,
        "velocity": 0.71,
        "hand": "right"
      },
      {
        "midi": 77,
        "time": 35.438,
        "duration": 0.563,
        "velocity": 0.54,
        "hand": "right"
      },
      {
        "midi": 65,
        "time": 36,
        "duration": 0.563,
        "velocity": 0.71,
        "hand": "right"
      },
      {
        "midi": 69,
        "time": 36,
        "duration": 0.563,
        "velocity": 0.71,
        "hand": "right"
      },
      {
        "midi": 76,
        "time": 36,
        "duration": 0.563,
        "velocity": 0.54,
        "hand": "right"
      },
      {
        "midi": 65,
        "time": 36.563,
        "duration": 0.563,
        "velocity": 0.71,
        "hand": "right"
      },
      {
        "midi": 69,
        "time": 36.563,
        "duration": 0.563,
        "velocity": 0.71,
        "hand": "right"
      },
      {
        "midi": 74,
        "time": 36.563,
        "duration": 0.563,
        "velocity": 0.54,
        "hand": "right"
      },
      {
        "midi": 64,
        "time": 36.938,
        "duration": 2.063,
        "velocity": 0.71,
        "hand": "right"
      },
      {
        "midi": 73,
        "time": 36.938,
        "duration": 0.938,
        "velocity": 0.54,
        "hand": "right"
      },
      {
        "midi": 67,
        "time": 37.5,
        "duration": 0.563,
        "velocity": 0.71,
        "hand": "right"
      },
      {
        "midi": 69,
        "time": 37.5,
        "duration": 0.563,
        "velocity": 0.71,
        "hand": "right"
      },
      {
        "midi": 67,
        "time": 38.063,
        "duration": 0.563,
        "velocity": 0.71,
        "hand": "right"
      },
      {
        "midi": 69,
        "time": 38.063,
        "duration": 0.563,
        "velocity": 0.71,
        "hand": "right"
      },
      {
        "midi": 67,
        "time": 38.438,
        "duration": 0.563,
        "velocity": 0.71,
        "hand": "right"
      },
      {
        "midi": 69,
        "time": 38.438,
        "duration": 0.563,
        "velocity": 0.71,
        "hand": "right"
      },
      {
        "midi": 74,
        "time": 38.813,
        "duration": 0.188,
        "velocity": 0.54,
        "hand": "right"
      },
      {
        "midi": 64,
        "time": 39,
        "duration": 2.063,
        "velocity": 0.71,
        "hand": "right"
      },
      {
        "midi": 75,
        "time": 39,
        "duration": 0.563,
        "velocity": 0.54,
        "hand": "right"
      },
      {
        "midi": 67,
        "time": 39.563,
        "duration": 0.563,
        "velocity": 0.71,
        "hand": "right"
      },
      {
        "midi": 69,
        "time": 39.563,
        "duration": 0.563,
        "velocity": 0.71,
        "hand": "right"
      },
      {
        "midi": 76,
        "time": 39.563,
        "duration": 0.563,
        "velocity": 0.54,
        "hand": "right"
      },
      {
        "midi": 67,
        "time": 39.938,
        "duration": 0.563,
        "velocity": 0.71,
        "hand": "right"
      },
      {
        "midi": 69,
        "time": 39.938,
        "duration": 0.563,
        "velocity": 0.71,
        "hand": "right"
      },
      {
        "midi": 67,
        "time": 40.5,
        "duration": 0.563,
        "velocity": 0.71,
        "hand": "right"
      },
      {
        "midi": 69,
        "time": 40.5,
        "duration": 0.563,
        "velocity": 0.71,
        "hand": "right"
      },
      {
        "midi": 61,
        "time": 41.063,
        "duration": 2.063,
        "velocity": 0.71,
        "hand": "right"
      },
      {
        "midi": 79,
        "time": 41.063,
        "duration": 1.688,
        "velocity": 0.54,
        "hand": "right"
      },
      {
        "midi": 64,
        "time": 41.438,
        "duration": 0.563,
        "velocity": 0.71,
        "hand": "right"
      },
      {
        "midi": 69,
        "time": 41.438,
        "duration": 0.563,
        "velocity": 0.71,
        "hand": "right"
      },
      {
        "midi": 64,
        "time": 42,
        "duration": 0.563,
        "velocity": 0.71,
        "hand": "right"
      },
      {
        "midi": 69,
        "time": 42,
        "duration": 0.563,
        "velocity": 0.71,
        "hand": "right"
      },
      {
        "midi": 64,
        "time": 42.563,
        "duration": 0.563,
        "velocity": 0.71,
        "hand": "right"
      },
      {
        "midi": 69,
        "time": 42.563,
        "duration": 0.563,
        "velocity": 0.71,
        "hand": "right"
      },
      {
        "midi": 78,
        "time": 42.75,
        "duration": 0.188,
        "velocity": 0.54,
        "hand": "right"
      },
      {
        "midi": 61,
        "time": 42.938,
        "duration": 2.063,
        "velocity": 0.71,
        "hand": "right"
      },
      {
        "midi": 79,
        "time": 42.938,
        "duration": 0.188,
        "velocity": 0.54,
        "hand": "right"
      },
      {
        "midi": 81,
        "time": 42.938,
        "duration": 0.563,
        "velocity": 0.54,
        "hand": "right"
      },
      {
        "midi": 64,
        "time": 43.5,
        "duration": 0.563,
        "velocity": 0.71,
        "hand": "right"
      },
      {
        "midi": 69,
        "time": 43.5,
        "duration": 0.563,
        "velocity": 0.71,
        "hand": "right"
      },
      {
        "midi": 79,
        "time": 43.5,
        "duration": 0.563,
        "velocity": 0.54,
        "hand": "right"
      },
      {
        "midi": 64,
        "time": 44.063,
        "duration": 0.563,
        "velocity": 0.71,
        "hand": "right"
      },
      {
        "midi": 69,
        "time": 44.063,
        "duration": 0.563,
        "velocity": 0.71,
        "hand": "right"
      },
      {
        "midi": 77,
        "time": 44.063,
        "duration": 0.563,
        "velocity": 0.54,
        "hand": "right"
      },
      {
        "midi": 64,
        "time": 44.438,
        "duration": 0.563,
        "velocity": 0.71,
        "hand": "right"
      },
      {
        "midi": 69,
        "time": 44.438,
        "duration": 0.563,
        "velocity": 0.71,
        "hand": "right"
      },
      {
        "midi": 76,
        "time": 44.438,
        "duration": 0.563,
        "velocity": 0.54,
        "hand": "right"
      },
      {
        "midi": 62,
        "time": 45,
        "duration": 2.063,
        "velocity": 0.71,
        "hand": "right"
      },
      {
        "midi": 74,
        "time": 45,
        "duration": 0.938,
        "velocity": 0.54,
        "hand": "right"
      },
      {
        "midi": 65,
        "time": 45.563,
        "duration": 0.563,
        "velocity": 0.71,
        "hand": "right"
      },
      {
        "midi": 69,
        "time": 45.563,
        "duration": 0.563,
        "velocity": 0.71,
        "hand": "right"
      },
      {
        "midi": 65,
        "time": 45.938,
        "duration": 0.563,
        "velocity": 0.71,
        "hand": "right"
      },
      {
        "midi": 69,
        "time": 45.938,
        "duration": 0.563,
        "velocity": 0.71,
        "hand": "right"
      },
      {
        "midi": 65,
        "time": 46.5,
        "duration": 0.563,
        "velocity": 0.71,
        "hand": "right"
      },
      {
        "midi": 69,
        "time": 46.5,
        "duration": 0.563,
        "velocity": 0.71,
        "hand": "right"
      },
      {
        "midi": 76,
        "time": 46.688,
        "duration": 0.188,
        "velocity": 0.54,
        "hand": "right"
      },
      {
        "midi": 62,
        "time": 47.063,
        "duration": 2.063,
        "velocity": 0.71,
        "hand": "right"
      },
      {
        "midi": 79,
        "time": 47.063,
        "duration": 0.563,
        "velocity": 0.54,
        "hand": "right"
      },
      {
        "midi": 65,
        "time": 47.438,
        "duration": 0.563,
        "velocity": 0.71,
        "hand": "right"
      },
      {
        "midi": 69,
        "time": 47.438,
        "duration": 0.563,
        "velocity": 0.71,
        "hand": "right"
      },
      {
        "midi": 77,
        "time": 47.438,
        "duration": 0.563,
        "velocity": 0.54,
        "hand": "right"
      },
      {
        "midi": 65,
        "time": 48,
        "duration": 0.563,
        "velocity": 0.71,
        "hand": "right"
      },
      {
        "midi": 69,
        "time": 48,
        "duration": 0.563,
        "velocity": 0.71,
        "hand": "right"
      },
      {
        "midi": 65,
        "time": 48.563,
        "duration": 0.563,
        "velocity": 0.71,
        "hand": "right"
      },
      {
        "midi": 69,
        "time": 48.563,
        "duration": 0.563,
        "velocity": 0.71,
        "hand": "right"
      },
      {
        "midi": 69,
        "time": 48.938,
        "duration": 2.063,
        "velocity": 0.75,
        "hand": "right"
      },
      {
        "midi": 81,
        "time": 48.938,
        "duration": 2.063,
        "velocity": 0.75,
        "hand": "right"
      },
      {
        "midi": 53,
        "time": 50.063,
        "duration": 0.938,
        "velocity": 0.71,
        "hand": "left"
      },
      {
        "midi": 57,
        "time": 50.063,
        "duration": 0.938,
        "velocity": 0.71,
        "hand": "left"
      },
      {
        "midi": 62,
        "time": 50.063,
        "duration": 0.938,
        "velocity": 0.71,
        "hand": "right"
      },
      {
        "midi": 52,
        "time": 51,
        "duration": 0.563,
        "velocity": 0.71,
        "hand": "left"
      },
      {
        "midi": 61,
        "time": 51,
        "duration": 0.563,
        "velocity": 0.71,
        "hand": "right"
      },
      {
        "midi": 82,
        "time": 51,
        "duration": 0.563,
        "velocity": 0.75,
        "hand": "right"
      },
      {
        "midi": 81,
        "time": 53.063,
        "duration": 0.75,
        "velocity": 0.54,
        "hand": "right"
      },
      {
        "midi": 86,
        "time": 53.813,
        "duration": 0.188,
        "velocity": 0.54,
        "hand": "right"
      },
      {
        "midi": 65,
        "time": 54,
        "duration": 0.938,
        "velocity": 0.71,
        "hand": "right"
      },
      {
        "midi": 74,
        "time": 54,
        "duration": 0.938,
        "velocity": 0.71,
        "hand": "right"
      },
      {
        "midi": 85,
        "time": 54,
        "duration": 0.375,
        "velocity": 0.54,
        "hand": "right"
      },
      {
        "midi": 84,
        "time": 54.375,
        "duration": 0.375,
        "velocity": 0.54,
        "hand": "right"
      },
      {
        "midi": 83,
        "time": 54.75,
        "duration": 0.375,
        "velocity": 0.54,
        "hand": "right"
      },
      {
        "midi": 67,
        "time": 54.938,
        "duration": 0.938,
        "velocity": 0.71,
        "hand": "right"
      },
      {
        "midi": 73,
        "time": 54.938,
        "duration": 0.938,
        "velocity": 0.71,
        "hand": "right"
      },
      {
        "midi": 82,
        "time": 54.938,
        "duration": 0.938,
        "velocity": 0.54,
        "hand": "right"
      },
      {
        "midi": 65,
        "time": 56.813,
        "duration": 0.188,
        "velocity": 0.71,
        "hand": "right"
      },
      {
        "midi": 74,
        "time": 56.813,
        "duration": 0.188,
        "velocity": 0.71,
        "hand": "right"
      },
      {
        "midi": 81,
        "time": 56.813,
        "duration": 0.188,
        "velocity": 0.54,
        "hand": "right"
      },
      {
        "midi": 64,
        "time": 57,
        "duration": 0.563,
        "velocity": 0.71,
        "hand": "right"
      },
      {
        "midi": 76,
        "time": 57,
        "duration": 0.563,
        "velocity": 0.71,
        "hand": "right"
      },
      {
        "midi": 81,
        "time": 57,
        "duration": 0.563,
        "velocity": 0.54,
        "hand": "right"
      },
      {
        "midi": 80,
        "time": 57.563,
        "duration": 0.563,
        "velocity": 0.54,
        "hand": "right"
      },
      {
        "midi": 69,
        "time": 57.938,
        "duration": 0.563,
        "velocity": 0.71,
        "hand": "right"
      },
      {
        "midi": 73,
        "time": 57.938,
        "duration": 0.563,
        "velocity": 0.71,
        "hand": "right"
      },
      {
        "midi": 79,
        "time": 58.5,
        "duration": 0.563,
        "velocity": 0.54,
        "hand": "right"
      },
      {
        "midi": 62,
        "time": 59.063,
        "duration": 0.563,
        "velocity": 0.71,
        "hand": "right"
      },
      {
        "midi": 74,
        "time": 59.063,
        "duration": 0.563,
        "velocity": 0.71,
        "hand": "right"
      },
      {
        "midi": 78,
        "time": 59.438,
        "duration": 0.563,
        "velocity": 0.54,
        "hand": "right"
      },
      {
        "midi": 68,
        "time": 60,
        "duration": 0.563,
        "velocity": 0.71,
        "hand": "right"
      },
      {
        "midi": 71,
        "time": 60,
        "duration": 0.563,
        "velocity": 0.71,
        "hand": "right"
      },
      {
        "midi": 74,
        "time": 60.563,
        "duration": 0.563,
        "velocity": 0.54,
        "hand": "right"
      },
      {
        "midi": 77,
        "time": 60.563,
        "duration": 0.563,
        "velocity": 0.54,
        "hand": "right"
      },
      {
        "midi": 69,
        "time": 60.938,
        "duration": 0.938,
        "velocity": 0.71,
        "hand": "right"
      },
      {
        "midi": 73,
        "time": 61.5,
        "duration": 0.563,
        "velocity": 0.54,
        "hand": "right"
      },
      {
        "midi": 76,
        "time": 61.5,
        "duration": 0.563,
        "velocity": 0.54,
        "hand": "right"
      },
      {
        "midi": 76,
        "time": 62.063,
        "duration": 0.563,
        "velocity": 0.54,
        "hand": "right"
      },
      {
        "midi": 81,
        "time": 62.063,
        "duration": 0.563,
        "velocity": 0.54,
        "hand": "right"
      },
      {
        "midi": 81,
        "time": 62.438,
        "duration": 0.563,
        "velocity": 0.54,
        "hand": "right"
      },
      {
        "midi": 85,
        "time": 62.438,
        "duration": 0.563,
        "velocity": 0.54,
        "hand": "right"
      },
      {
        "midi": 85,
        "time": 63,
        "duration": 0.563,
        "velocity": 0.54,
        "hand": "right"
      },
      {
        "midi": 88,
        "time": 63,
        "duration": 0.563,
        "velocity": 0.54,
        "hand": "right"
      },
      {
        "midi": 64,
        "time": 65.063,
        "duration": 0.563,
        "velocity": 0.71,
        "hand": "right"
      },
      {
        "midi": 64,
        "time": 65.438,
        "duration": 0.563,
        "velocity": 0.71,
        "hand": "right"
      },
      {
        "midi": 64,
        "time": 66,
        "duration": 0.563,
        "velocity": 0.71,
        "hand": "right"
      },
      {
        "midi": 64,
        "time": 66.563,
        "duration": 0.563,
        "velocity": 0.71,
        "hand": "right"
      },
      {
        "midi": 64,
        "time": 66.938,
        "duration": 0.563,
        "velocity": 0.71,
        "hand": "right"
      },
      {
        "midi": 64,
        "time": 67.5,
        "duration": 0.563,
        "velocity": 0.71,
        "hand": "right"
      },
      {
        "midi": 45,
        "time": 68.063,
        "duration": 0.938,
        "velocity": 0.71,
        "hand": "left"
      },
      {
        "midi": 60,
        "time": 68.063,
        "duration": 0.938,
        "velocity": 0.71,
        "hand": "right"
      },
      {
        "midi": 64,
        "time": 68.063,
        "duration": 0.563,
        "velocity": 0.71,
        "hand": "right"
      },
      {
        "midi": 64,
        "time": 68.438,
        "duration": 0.563,
        "velocity": 0.71,
        "hand": "right"
      },
      {
        "midi": 44,
        "time": 69,
        "duration": 0.938,
        "velocity": 0.71,
        "hand": "left"
      },
      {
        "midi": 59,
        "time": 69,
        "duration": 0.938,
        "velocity": 0.71,
        "hand": "left"
      },
      {
        "midi": 64,
        "time": 69,
        "duration": 0.563,
        "velocity": 0.71,
        "hand": "right"
      },
      {
        "midi": 64,
        "time": 69.563,
        "duration": 0.563,
        "velocity": 0.71,
        "hand": "right"
      },
      {
        "midi": 43,
        "time": 69.938,
        "duration": 0.938,
        "velocity": 0.71,
        "hand": "left"
      },
      {
        "midi": 58,
        "time": 69.938,
        "duration": 0.938,
        "velocity": 0.71,
        "hand": "left"
      },
      {
        "midi": 64,
        "time": 69.938,
        "duration": 0.563,
        "velocity": 0.71,
        "hand": "right"
      },
      {
        "midi": 64,
        "time": 70.5,
        "duration": 0.563,
        "velocity": 0.71,
        "hand": "right"
      },
      {
        "midi": 42,
        "time": 71.063,
        "duration": 0.938,
        "velocity": 0.71,
        "hand": "left"
      },
      {
        "midi": 57,
        "time": 71.063,
        "duration": 0.938,
        "velocity": 0.71,
        "hand": "left"
      },
      {
        "midi": 64,
        "time": 71.063,
        "duration": 0.563,
        "velocity": 0.71,
        "hand": "right"
      },
      {
        "midi": 63,
        "time": 71.438,
        "duration": 0.563,
        "velocity": 0.71,
        "hand": "right"
      },
      {
        "midi": 41,
        "time": 72,
        "duration": 0.938,
        "velocity": 0.71,
        "hand": "left"
      },
      {
        "midi": 63,
        "time": 72,
        "duration": 0.938,
        "velocity": 0.71,
        "hand": "right"
      },
      {
        "midi": 69,
        "time": 72,
        "duration": 0.563,
        "velocity": 0.71,
        "hand": "right"
      },
      {
        "midi": 69,
        "time": 72.563,
        "duration": 0.563,
        "velocity": 0.71,
        "hand": "right"
      },
      {
        "midi": 40,
        "time": 72.938,
        "duration": 3,
        "velocity": 0.71,
        "hand": "left"
      },
      {
        "midi": 63,
        "time": 72.938,
        "duration": 2.063,
        "velocity": 0.71,
        "hand": "right"
      },
      {
        "midi": 69,
        "time": 72.938,
        "duration": 1.5,
        "velocity": 0.71,
        "hand": "right"
      },
      {
        "midi": 68,
        "time": 74.438,
        "duration": 0.188,
        "velocity": 0.71,
        "hand": "right"
      },
      {
        "midi": 69,
        "time": 74.625,
        "duration": 0.188,
        "velocity": 0.71,
        "hand": "right"
      },
      {
        "midi": 69,
        "time": 74.813,
        "duration": 0.188,
        "velocity": 0.71,
        "hand": "right"
      },
      {
        "midi": 71,
        "time": 74.813,
        "duration": 0.188,
        "velocity": 0.71,
        "hand": "right"
      },
      {
        "midi": 64,
        "time": 75,
        "duration": 0.938,
        "velocity": 0.71,
        "hand": "right"
      },
      {
        "midi": 68,
        "time": 75,
        "duration": 0.938,
        "velocity": 0.71,
        "hand": "right"
      },
      {
        "midi": 71,
        "time": 76.688,
        "duration": 0.188,
        "velocity": 0.54,
        "hand": "right"
      },
      {
        "midi": 69,
        "time": 77.063,
        "duration": 0.188,
        "velocity": 0.54,
        "hand": "right"
      },
      {
        "midi": 68,
        "time": 77.25,
        "duration": 0.188,
        "velocity": 0.54,
        "hand": "right"
      },
      {
        "midi": 62,
        "time": 77.438,
        "duration": 0.563,
        "velocity": 0.71,
        "hand": "right"
      },
      {
        "midi": 65,
        "time": 77.438,
        "duration": 0.563,
        "velocity": 0.71,
        "hand": "right"
      },
      {
        "midi": 71,
        "time": 77.813,
        "duration": 0.188,
        "velocity": 0.54,
        "hand": "right"
      },
      {
        "midi": 62,
        "time": 78,
        "duration": 0.563,
        "velocity": 0.71,
        "hand": "right"
      },
      {
        "midi": 65,
        "time": 78,
        "duration": 0.563,
        "velocity": 0.71,
        "hand": "right"
      },
      {
        "midi": 69,
        "time": 78,
        "duration": 0.188,
        "velocity": 0.54,
        "hand": "right"
      },
      {
        "midi": 68,
        "time": 78.188,
        "duration": 0.188,
        "velocity": 0.54,
        "hand": "right"
      },
      {
        "midi": 62,
        "time": 78.563,
        "duration": 0.563,
        "velocity": 0.71,
        "hand": "right"
      },
      {
        "midi": 65,
        "time": 78.563,
        "duration": 0.563,
        "velocity": 0.71,
        "hand": "right"
      },
      {
        "midi": 71,
        "time": 78.75,
        "duration": 0.188,
        "velocity": 0.54,
        "hand": "right"
      },
      {
        "midi": 62,
        "time": 78.938,
        "duration": 0.563,
        "velocity": 0.71,
        "hand": "right"
      },
      {
        "midi": 65,
        "time": 78.938,
        "duration": 0.563,
        "velocity": 0.71,
        "hand": "right"
      },
      {
        "midi": 69,
        "time": 78.938,
        "duration": 0.188,
        "velocity": 0.54,
        "hand": "right"
      },
      {
        "midi": 68,
        "time": 79.313,
        "duration": 0.188,
        "velocity": 0.54,
        "hand": "right"
      },
      {
        "midi": 62,
        "time": 79.5,
        "duration": 0.563,
        "velocity": 0.71,
        "hand": "right"
      },
      {
        "midi": 65,
        "time": 79.5,
        "duration": 0.563,
        "velocity": 0.71,
        "hand": "right"
      },
      {
        "midi": 71,
        "time": 79.688,
        "duration": 0.188,
        "velocity": 0.54,
        "hand": "right"
      },
      {
        "midi": 62,
        "time": 80.063,
        "duration": 0.563,
        "velocity": 0.71,
        "hand": "right"
      },
      {
        "midi": 65,
        "time": 80.063,
        "duration": 0.563,
        "velocity": 0.71,
        "hand": "right"
      },
      {
        "midi": 74,
        "time": 80.25,
        "duration": 0.188,
        "velocity": 0.54,
        "hand": "right"
      },
      {
        "midi": 62,
        "time": 80.438,
        "duration": 0.563,
        "velocity": 0.71,
        "hand": "right"
      },
      {
        "midi": 65,
        "time": 80.438,
        "duration": 0.563,
        "velocity": 0.71,
        "hand": "right"
      },
      {
        "midi": 68,
        "time": 80.813,
        "duration": 0.188,
        "velocity": 0.54,
        "hand": "right"
      },
      {
        "midi": 71,
        "time": 81,
        "duration": 0.188,
        "velocity": 0.54,
        "hand": "right"
      },
      {
        "midi": 69,
        "time": 81.188,
        "duration": 0.188,
        "velocity": 0.54,
        "hand": "right"
      },
      {
        "midi": 60,
        "time": 81.563,
        "duration": 0.563,
        "velocity": 0.71,
        "hand": "right"
      },
      {
        "midi": 64,
        "time": 81.563,
        "duration": 0.563,
        "velocity": 0.71,
        "hand": "right"
      },
      {
        "midi": 72,
        "time": 81.75,
        "duration": 0.188,
        "velocity": 0.54,
        "hand": "right"
      },
      {
        "midi": 60,
        "time": 81.938,
        "duration": 0.563,
        "velocity": 0.71,
        "hand": "right"
      },
      {
        "midi": 64,
        "time": 81.938,
        "duration": 0.563,
        "velocity": 0.71,
        "hand": "right"
      },
      {
        "midi": 71,
        "time": 81.938,
        "duration": 0.188,
        "velocity": 0.54,
        "hand": "right"
      },
      {
        "midi": 69,
        "time": 82.313,
        "duration": 0.188,
        "velocity": 0.54,
        "hand": "right"
      },
      {
        "midi": 60,
        "time": 82.5,
        "duration": 0.563,
        "velocity": 0.71,
        "hand": "right"
      },
      {
        "midi": 64,
        "time": 82.5,
        "duration": 0.563,
        "velocity": 0.71,
        "hand": "right"
      },
      {
        "midi": 72,
        "time": 82.688,
        "duration": 0.188,
        "velocity": 0.54,
        "hand": "right"
      },
      {
        "midi": 60,
        "time": 83.063,
        "duration": 0.563,
        "velocity": 0.71,
        "hand": "right"
      },
      {
        "midi": 64,
        "time": 83.063,
        "duration": 0.563,
        "velocity": 0.71,
        "hand": "right"
      },
      {
        "midi": 71,
        "time": 83.063,
        "duration": 0.188,
        "velocity": 0.54,
        "hand": "right"
      },
      {
        "midi": 69,
        "time": 83.25,
        "duration": 0.188,
        "velocity": 0.54,
        "hand": "right"
      },
      {
        "midi": 60,
        "time": 83.438,
        "duration": 0.563,
        "velocity": 0.71,
        "hand": "right"
      },
      {
        "midi": 64,
        "time": 83.438,
        "duration": 0.563,
        "velocity": 0.71,
        "hand": "right"
      },
      {
        "midi": 72,
        "time": 83.813,
        "duration": 0.188,
        "velocity": 0.54,
        "hand": "right"
      },
      {
        "midi": 60,
        "time": 84,
        "duration": 0.563,
        "velocity": 0.71,
        "hand": "right"
      },
      {
        "midi": 64,
        "time": 84,
        "duration": 0.563,
        "velocity": 0.71,
        "hand": "right"
      },
      {
        "midi": 76,
        "time": 84.188,
        "duration": 0.188,
        "velocity": 0.54,
        "hand": "right"
      },
      {
        "midi": 60,
        "time": 84.563,
        "duration": 0.563,
        "velocity": 0.71,
        "hand": "right"
      },
      {
        "midi": 64,
        "time": 84.563,
        "duration": 0.563,
        "velocity": 0.71,
        "hand": "right"
      },
      {
        "midi": 69,
        "time": 84.75,
        "duration": 0.188,
        "velocity": 0.54,
        "hand": "right"
      },
      {
        "midi": 72,
        "time": 84.938,
        "duration": 0.188,
        "velocity": 0.54,
        "hand": "right"
      },
      {
        "midi": 71,
        "time": 85.313,
        "duration": 0.188,
        "velocity": 0.54,
        "hand": "right"
      },
      {
        "midi": 56,
        "time": 85.5,
        "duration": 0.563,
        "velocity": 0.71,
        "hand": "left"
      },
      {
        "midi": 64,
        "time": 85.5,
        "duration": 0.563,
        "velocity": 0.71,
        "hand": "right"
      },
      {
        "midi": 74,
        "time": 85.688,
        "duration": 0.188,
        "velocity": 0.54,
        "hand": "right"
      },
      {
        "midi": 56,
        "time": 86.063,
        "duration": 0.563,
        "velocity": 0.71,
        "hand": "left"
      },
      {
        "midi": 64,
        "time": 86.063,
        "duration": 0.563,
        "velocity": 0.71,
        "hand": "right"
      },
      {
        "midi": 72,
        "time": 86.063,
        "duration": 0.188,
        "velocity": 0.54,
        "hand": "right"
      },
      {
        "midi": 71,
        "time": 86.25,
        "duration": 0.188,
        "velocity": 0.54,
        "hand": "right"
      },
      {
        "midi": 56,
        "time": 86.438,
        "duration": 0.563,
        "velocity": 0.71,
        "hand": "left"
      },
      {
        "midi": 64,
        "time": 86.438,
        "duration": 0.563,
        "velocity": 0.71,
        "hand": "right"
      },
      {
        "midi": 74,
        "time": 86.813,
        "duration": 0.188,
        "velocity": 0.54,
        "hand": "right"
      },
      {
        "midi": 56,
        "time": 87,
        "duration": 0.563,
        "velocity": 0.71,
        "hand": "left"
      },
      {
        "midi": 64,
        "time": 87,
        "duration": 0.563,
        "velocity": 0.71,
        "hand": "right"
      },
      {
        "midi": 72,
        "time": 87,
        "duration": 0.188,
        "velocity": 0.54,
        "hand": "right"
      },
      {
        "midi": 71,
        "time": 87.188,
        "duration": 0.188,
        "velocity": 0.54,
        "hand": "right"
      },
      {
        "midi": 56,
        "time": 87.563,
        "duration": 0.563,
        "velocity": 0.71,
        "hand": "left"
      },
      {
        "midi": 64,
        "time": 87.563,
        "duration": 0.563,
        "velocity": 0.71,
        "hand": "right"
      },
      {
        "midi": 74,
        "time": 87.75,
        "duration": 0.188,
        "velocity": 0.54,
        "hand": "right"
      },
      {
        "midi": 56,
        "time": 87.938,
        "duration": 0.563,
        "velocity": 0.71,
        "hand": "left"
      },
      {
        "midi": 64,
        "time": 87.938,
        "duration": 0.563,
        "velocity": 0.71,
        "hand": "right"
      },
      {
        "midi": 77,
        "time": 88.313,
        "duration": 0.188,
        "velocity": 0.54,
        "hand": "right"
      },
      {
        "midi": 56,
        "time": 88.5,
        "duration": 0.563,
        "velocity": 0.71,
        "hand": "left"
      },
      {
        "midi": 64,
        "time": 88.5,
        "duration": 0.563,
        "velocity": 0.71,
        "hand": "right"
      },
      {
        "midi": 71,
        "time": 88.688,
        "duration": 0.188,
        "velocity": 0.54,
        "hand": "right"
      },
      {
        "midi": 57,
        "time": 89.063,
        "duration": 0.563,
        "velocity": 0.71,
        "hand": "left"
      },
      {
        "midi": 64,
        "time": 89.063,
        "duration": 0.563,
        "velocity": 0.71,
        "hand": "right"
      },
      {
        "midi": 74,
        "time": 89.063,
        "duration": 0.188,
        "velocity": 0.54,
        "hand": "right"
      },
      {
        "midi": 72,
        "time": 89.25,
        "duration": 0.188,
        "velocity": 0.54,
        "hand": "right"
      },
      {
        "midi": 57,
        "time": 89.438,
        "duration": 0.563,
        "velocity": 0.71,
        "hand": "left"
      },
      {
        "midi": 60,
        "time": 89.438,
        "duration": 0.563,
        "velocity": 0.71,
        "hand": "right"
      },
      {
        "midi": 81,
        "time": 89.813,
        "duration": 0.188,
        "velocity": 0.54,
        "hand": "right"
      },
      {
        "midi": 59,
        "time": 90,
        "duration": 0.563,
        "velocity": 0.71,
        "hand": "left"
      },
      {
        "midi": 62,
        "time": 90,
        "duration": 0.563,
        "velocity": 0.71,
        "hand": "right"
      },
      {
        "midi": 80,
        "time": 90.188,
        "duration": 0.188,
        "velocity": 0.57,
        "hand": "right"
      },
      {
        "midi": 61,
        "time": 90.563,
        "duration": 0.563,
        "velocity": 0.71,
        "hand": "right"
      },
      {
        "midi": 64,
        "time": 90.563,
        "duration": 0.563,
        "velocity": 0.71,
        "hand": "right"
      },
      {
        "midi": 79,
        "time": 90.75,
        "duration": 0.188,
        "velocity": 0.61,
        "hand": "right"
      },
      {
        "midi": 62,
        "time": 90.938,
        "duration": 0.563,
        "velocity": 0.71,
        "hand": "right"
      },
      {
        "midi": 65,
        "time": 90.938,
        "duration": 0.563,
        "velocity": 0.71,
        "hand": "right"
      },
      {
        "midi": 77,
        "time": 91.313,
        "duration": 0.188,
        "velocity": 0.65,
        "hand": "right"
      },
      {
        "midi": 64,
        "time": 91.5,
        "duration": 0.563,
        "velocity": 0.71,
        "hand": "right"
      },
      {
        "midi": 68,
        "time": 91.5,
        "duration": 0.563,
        "velocity": 0.71,
        "hand": "right"
      },
      {
        "midi": 76,
        "time": 91.688,
        "duration": 0.188,
        "velocity": 0.7,
        "hand": "right"
      },
      {
        "midi": 66,
        "time": 92.063,
        "duration": 0.563,
        "velocity": 0.71,
        "hand": "right"
      },
      {
        "midi": 69,
        "time": 92.063,
        "duration": 0.563,
        "velocity": 0.71,
        "hand": "right"
      },
      {
        "midi": 75,
        "time": 92.25,
        "duration": 0.188,
        "velocity": 0.75,
        "hand": "right"
      },
      {
        "midi": 68,
        "time": 92.438,
        "duration": 0.563,
        "velocity": 0.71,
        "hand": "right"
      },
      {
        "midi": 71,
        "time": 92.438,
        "duration": 0.563,
        "velocity": 0.71,
        "hand": "right"
      },
      {
        "midi": 74,
        "time": 92.813,
        "duration": 0.188,
        "velocity": 0.54,
        "hand": "right"
      },
      {
        "midi": 69,
        "time": 93,
        "duration": 0.563,
        "velocity": 0.71,
        "hand": "right"
      },
      {
        "midi": 72,
        "time": 93,
        "duration": 0.188,
        "velocity": 0.54,
        "hand": "right"
      },
      {
        "midi": 76,
        "time": 93.188,
        "duration": 0.188,
        "velocity": 0.54,
        "hand": "right"
      },
      {
        "midi": 57,
        "time": 93.563,
        "duration": 0.563,
        "velocity": 0.71,
        "hand": "left"
      },
      {
        "midi": 60,
        "time": 93.563,
        "duration": 0.563,
        "velocity": 0.71,
        "hand": "right"
      },
      {
        "midi": 81,
        "time": 93.75,
        "duration": 0.188,
        "velocity": 0.54,
        "hand": "right"
      },
      {
        "midi": 59,
        "time": 93.938,
        "duration": 0.563,
        "velocity": 0.71,
        "hand": "left"
      },
      {
        "midi": 62,
        "time": 93.938,
        "duration": 0.563,
        "velocity": 0.71,
        "hand": "right"
      },
      {
        "midi": 80,
        "time": 94.313,
        "duration": 0.188,
        "velocity": 0.57,
        "hand": "right"
      },
      {
        "midi": 61,
        "time": 94.5,
        "duration": 0.563,
        "velocity": 0.71,
        "hand": "right"
      },
      {
        "midi": 64,
        "time": 94.5,
        "duration": 0.563,
        "velocity": 0.71,
        "hand": "right"
      },
      {
        "midi": 79,
        "time": 94.688,
        "duration": 0.188,
        "velocity": 0.62,
        "hand": "right"
      },
      {
        "midi": 62,
        "time": 95.063,
        "duration": 0.563,
        "velocity": 0.71,
        "hand": "right"
      },
      {
        "midi": 65,
        "time": 95.063,
        "duration": 0.563,
        "velocity": 0.71,
        "hand": "right"
      },
      {
        "midi": 77,
        "time": 95.25,
        "duration": 0.188,
        "velocity": 0.67,
        "hand": "right"
      },
      {
        "midi": 64,
        "time": 95.438,
        "duration": 0.563,
        "velocity": 0.71,
        "hand": "right"
      },
      {
        "midi": 68,
        "time": 95.438,
        "duration": 0.563,
        "velocity": 0.71,
        "hand": "right"
      },
      {
        "midi": 76,
        "time": 95.813,
        "duration": 0.188,
        "velocity": 0.72,
        "hand": "right"
      },
      {
        "midi": 66,
        "time": 96,
        "duration": 0.563,
        "velocity": 0.71,
        "hand": "right"
      },
      {
        "midi": 69,
        "time": 96,
        "duration": 0.563,
        "velocity": 0.71,
        "hand": "right"
      },
      {
        "midi": 75,
        "time": 96.188,
        "duration": 0.188,
        "velocity": 0.75,
        "hand": "right"
      },
      {
        "midi": 68,
        "time": 96.563,
        "duration": 0.563,
        "velocity": 0.71,
        "hand": "right"
      },
      {
        "midi": 71,
        "time": 96.563,
        "duration": 0.563,
        "velocity": 0.71,
        "hand": "right"
      },
      {
        "midi": 74,
        "time": 96.75,
        "duration": 0.188,
        "velocity": 0.75,
        "hand": "right"
      },
      {
        "midi": 57,
        "time": 101.063,
        "duration": 2.063,
        "velocity": 0.71,
        "hand": "left"
      },
      {
        "midi": 72,
        "time": 101.063,
        "duration": 1.688,
        "velocity": 0.54,
        "hand": "right"
      },
      {
        "midi": 60,
        "time": 101.438,
        "duration": 0.563,
        "velocity": 0.71,
        "hand": "right"
      },
      {
        "midi": 64,
        "time": 101.438,
        "duration": 0.563,
        "velocity": 0.71,
        "hand": "right"
      },
      {
        "midi": 60,
        "time": 102,
        "duration": 0.563,
        "velocity": 0.71,
        "hand": "right"
      },
      {
        "midi": 64,
        "time": 102,
        "duration": 0.563,
        "velocity": 0.71,
        "hand": "right"
      },
      {
        "midi": 60,
        "time": 102.563,
        "duration": 0.563,
        "velocity": 0.71,
        "hand": "right"
      },
      {
        "midi": 64,
        "time": 102.563,
        "duration": 0.563,
        "velocity": 0.71,
        "hand": "right"
      },
      {
        "midi": 71,
        "time": 102.75,
        "duration": 0.188,
        "velocity": 0.54,
        "hand": "right"
      },
      {
        "midi": 57,
        "time": 102.938,
        "duration": 2.063,
        "velocity": 0.71,
        "hand": "left"
      },
      {
        "midi": 72,
        "time": 102.938,
        "duration": 0.188,
        "velocity": 0.54,
        "hand": "right"
      },
      {
        "midi": 74,
        "time": 102.938,
        "duration": 0.563,
        "velocity": 0.54,
        "hand": "right"
      },
      {
        "midi": 60,
        "time": 103.5,
        "duration": 0.563,
        "velocity": 0.71,
        "hand": "right"
      },
      {
        "midi": 64,
        "time": 103.5,
        "duration": 0.563,
        "velocity": 0.71,
        "hand": "right"
      },
      {
        "midi": 72,
        "time": 103.5,
        "duration": 0.563,
        "velocity": 0.54,
        "hand": "right"
      },
      {
        "midi": 60,
        "time": 104.063,
        "duration": 0.563,
        "velocity": 0.71,
        "hand": "right"
      },
      {
        "midi": 64,
        "time": 104.063,
        "duration": 0.563,
        "velocity": 0.71,
        "hand": "right"
      },
      {
        "midi": 71,
        "time": 104.063,
        "duration": 0.563,
        "velocity": 0.54,
        "hand": "right"
      },
      {
        "midi": 60,
        "time": 104.438,
        "duration": 0.563,
        "velocity": 0.71,
        "hand": "right"
      },
      {
        "midi": 64,
        "time": 104.438,
        "duration": 0.563,
        "velocity": 0.71,
        "hand": "right"
      },
      {
        "midi": 69,
        "time": 104.438,
        "duration": 0.563,
        "velocity": 0.54,
        "hand": "right"
      },
      {
        "midi": 59,
        "time": 105,
        "duration": 2.063,
        "velocity": 0.71,
        "hand": "left"
      },
      {
        "midi": 68,
        "time": 105,
        "duration": 0.938,
        "velocity": 0.54,
        "hand": "right"
      },
      {
        "midi": 62,
        "time": 105.563,
        "duration": 0.563,
        "velocity": 0.71,
        "hand": "right"
      },
      {
        "midi": 64,
        "time": 105.563,
        "duration": 0.563,
        "velocity": 0.71,
        "hand": "right"
      },
      {
        "midi": 62,
        "time": 105.938,
        "duration": 0.563,
        "velocity": 0.71,
        "hand": "right"
      },
      {
        "midi": 64,
        "time": 105.938,
        "duration": 0.563,
        "velocity": 0.71,
        "hand": "right"
      },
      {
        "midi": 62,
        "time": 106.5,
        "duration": 0.563,
        "velocity": 0.71,
        "hand": "right"
      },
      {
        "midi": 64,
        "time": 106.5,
        "duration": 0.563,
        "velocity": 0.71,
        "hand": "right"
      },
      {
        "midi": 69,
        "time": 106.688,
        "duration": 0.188,
        "velocity": 0.54,
        "hand": "right"
      },
      {
        "midi": 59,
        "time": 107.063,
        "duration": 2.063,
        "velocity": 0.71,
        "hand": "left"
      },
      {
        "midi": 70,
        "time": 107.063,
        "duration": 0.563,
        "velocity": 0.54,
        "hand": "right"
      },
      {
        "midi": 62,
        "time": 107.438,
        "duration": 0.563,
        "velocity": 0.71,
        "hand": "right"
      },
      {
        "midi": 64,
        "time": 107.438,
        "duration": 0.563,
        "velocity": 0.71,
        "hand": "right"
      },
      {
        "midi": 71,
        "time": 107.438,
        "duration": 0.563,
        "velocity": 0.54,
        "hand": "right"
      },
      {
        "midi": 62,
        "time": 108,
        "duration": 0.563,
        "velocity": 0.71,
        "hand": "right"
      },
      {
        "midi": 64,
        "time": 108,
        "duration": 0.563,
        "velocity": 0.71,
        "hand": "right"
      },
      {
        "midi": 62,
        "time": 108.563,
        "duration": 0.563,
        "velocity": 0.71,
        "hand": "right"
      },
      {
        "midi": 64,
        "time": 108.563,
        "duration": 0.563,
        "velocity": 0.71,
        "hand": "right"
      },
      {
        "midi": 56,
        "time": 108.938,
        "duration": 2.063,
        "velocity": 0.71,
        "hand": "left"
      },
      {
        "midi": 77,
        "time": 108.938,
        "duration": 1.688,
        "velocity": 0.54,
        "hand": "right"
      },
      {
        "midi": 59,
        "time": 109.5,
        "duration": 0.563,
        "velocity": 0.71,
        "hand": "left"
      },
      {
        "midi": 62,
        "time": 109.5,
        "duration": 0.563,
        "velocity": 0.71,
        "hand": "right"
      },
      {
        "midi": 59,
        "time": 110.063,
        "duration": 0.563,
        "velocity": 0.71,
        "hand": "left"
      },
      {
        "midi": 62,
        "time": 110.063,
        "duration": 0.563,
        "velocity": 0.71,
        "hand": "right"
      },
      {
        "midi": 59,
        "time": 110.438,
        "duration": 0.563,
        "velocity": 0.71,
        "hand": "left"
      },
      {
        "midi": 62,
        "time": 110.438,
        "duration": 0.563,
        "velocity": 0.71,
        "hand": "right"
      },
      {
        "midi": 76,
        "time": 110.813,
        "duration": 0.188,
        "velocity": 0.54,
        "hand": "right"
      },
      {
        "midi": 77,
        "time": 110.813,
        "duration": 0.188,
        "velocity": 0.54,
        "hand": "right"
      },
      {
        "midi": 56,
        "time": 111,
        "duration": 2.063,
        "velocity": 0.71,
        "hand": "left"
      },
      {
        "midi": 79,
        "time": 111,
        "duration": 0.563,
        "velocity": 0.54,
        "hand": "right"
      },
      {
        "midi": 59,
        "time": 111.563,
        "duration": 0.563,
        "velocity": 0.71,
        "hand": "left"
      },
      {
        "midi": 62,
        "time": 111.563,
        "duration": 0.563,
        "velocity": 0.71,
        "hand": "right"
      },
      {
        "midi": 77,
        "time": 111.563,
        "duration": 0.563,
        "velocity": 0.54,
        "hand": "right"
      },
      {
        "midi": 59,
        "time": 111.938,
        "duration": 0.563,
        "velocity": 0.71,
        "hand": "left"
      },
      {
        "midi": 62,
        "time": 111.938,
        "duration": 0.563,
        "velocity": 0.71,
        "hand": "right"
      },
      {
        "midi": 76,
        "time": 111.938,
        "duration": 0.563,
        "velocity": 0.54,
        "hand": "right"
      },
      {
        "midi": 59,
        "time": 112.5,
        "duration": 0.563,
        "velocity": 0.71,
        "hand": "left"
      },
      {
        "midi": 62,
        "time": 112.5,
        "duration": 0.563,
        "velocity": 0.71,
        "hand": "right"
      },
      {
        "midi": 74,
        "time": 112.5,
        "duration": 0.563,
        "velocity": 0.54,
        "hand": "right"
      },
      {
        "midi": 55,
        "time": 113.063,
        "duration": 2.063,
        "velocity": 0.71,
        "hand": "left"
      },
      {
        "midi": 73,
        "time": 113.063,
        "duration": 0.938,
        "velocity": 0.54,
        "hand": "right"
      },
      {
        "midi": 58,
        "time": 113.438,
        "duration": 0.563,
        "velocity": 0.71,
        "hand": "left"
      },
      {
        "midi": 64,
        "time": 113.438,
        "duration": 0.563,
        "velocity": 0.71,
        "hand": "right"
      },
      {
        "midi": 58,
        "time": 114,
        "duration": 0.563,
        "velocity": 0.71,
        "hand": "left"
      },
      {
        "midi": 64,
        "time": 114,
        "duration": 0.563,
        "velocity": 0.71,
        "hand": "right"
      },
      {
        "midi": 58,
        "time": 114.563,
        "duration": 0.563,
        "velocity": 0.71,
        "hand": "left"
      },
      {
        "midi": 64,
        "time": 114.563,
        "duration": 0.563,
        "velocity": 0.71,
        "hand": "right"
      },
      {
        "midi": 74,
        "time": 114.75,
        "duration": 0.188,
        "velocity": 0.54,
        "hand": "right"
      },
      {
        "midi": 55,
        "time": 114.938,
        "duration": 2.063,
        "velocity": 0.71,
        "hand": "left"
      },
      {
        "midi": 75,
        "time": 114.938,
        "duration": 0.563,
        "velocity": 0.54,
        "hand": "right"
      },
      {
        "midi": 58,
        "time": 115.5,
        "duration": 0.563,
        "velocity": 0.71,
        "hand": "left"
      },
      {
        "midi": 61,
        "time": 115.5,
        "duration": 0.563,
        "velocity": 0.71,
        "hand": "right"
      },
      {
        "midi": 76,
        "time": 115.5,
        "duration": 0.563,
        "velocity": 0.54,
        "hand": "right"
      },
      {
        "midi": 58,
        "time": 116.063,
        "duration": 0.563,
        "velocity": 0.71,
        "hand": "left"
      },
      {
        "midi": 61,
        "time": 116.063,
        "duration": 0.563,
        "velocity": 0.71,
        "hand": "right"
      },
      {
        "midi": 58,
        "time": 116.438,
        "duration": 0.563,
        "velocity": 0.71,
        "hand": "left"
      },
      {
        "midi": 61,
        "time": 116.438,
        "duration": 0.563,
        "velocity": 0.71,
        "hand": "right"
      },
      {
        "midi": 77,
        "time": 116.813,
        "duration": 0.188,
        "velocity": 0.54,
        "hand": "right"
      },
      {
        "midi": 52,
        "time": 117,
        "duration": 2.063,
        "velocity": 0.71,
        "hand": "left"
      },
      {
        "midi": 78,
        "time": 117,
        "duration": 0.563,
        "velocity": 0.54,
        "hand": "right"
      },
      {
        "midi": 58,
        "time": 117.563,
        "duration": 0.563,
        "velocity": 0.71,
        "hand": "left"
      },
      {
        "midi": 61,
        "time": 117.563,
        "duration": 0.563,
        "velocity": 0.71,
        "hand": "right"
      },
      {
        "midi": 79,
        "time": 117.563,
        "duration": 0.563,
        "velocity": 0.6,
        "hand": "right"
      },
      {
        "midi": 58,
        "time": 117.938,
        "duration": 0.563,
        "velocity": 0.71,
        "hand": "left"
      },
      {
        "midi": 61,
        "time": 117.938,
        "duration": 0.563,
        "velocity": 0.71,
        "hand": "right"
      },
      {
        "midi": 58,
        "time": 118.5,
        "duration": 0.563,
        "velocity": 0.71,
        "hand": "left"
      },
      {
        "midi": 61,
        "time": 118.5,
        "duration": 0.563,
        "velocity": 0.71,
        "hand": "right"
      },
      {
        "midi": 81,
        "time": 118.688,
        "duration": 0.188,
        "velocity": 0.72,
        "hand": "right"
      },
      {
        "midi": 49,
        "time": 119.063,
        "duration": 0.938,
        "velocity": 0.71,
        "hand": "left"
      },
      {
        "midi": 55,
        "time": 119.063,
        "duration": 0.938,
        "velocity": 0.71,
        "hand": "left"
      },
      {
        "midi": 84,
        "time": 119.063,
        "duration": 0.563,
        "velocity": 0.75,
        "hand": "right"
      },
      {
        "midi": 82,
        "time": 119.438,
        "duration": 0.563,
        "velocity": 0.75,
        "hand": "right"
      },
      {
        "midi": 81,
        "time": 121.125,
        "duration": 0.188,
        "velocity": 0.75,
        "hand": "right"
      },
      {
        "midi": 83,
        "time": 121.313,
        "duration": 0.188,
        "velocity": 0.75,
        "hand": "right"
      },
      {
        "midi": 84,
        "time": 121.313,
        "duration": 0.188,
        "velocity": 0.75,
        "hand": "right"
      },
      {
        "midi": 79,
        "time": 121.5,
        "duration": 0.188,
        "velocity": 0.75,
        "hand": "right"
      },
      {
        "midi": 81,
        "time": 121.5,
        "duration": 0.188,
        "velocity": 0.75,
        "hand": "right"
      },
      {
        "midi": 77,
        "time": 121.688,
        "duration": 0.188,
        "velocity": 0.75,
        "hand": "right"
      },
      {
        "midi": 74,
        "time": 121.875,
        "duration": 0.188,
        "velocity": 0.75,
        "hand": "right"
      },
      {
        "midi": 76,
        "time": 121.875,
        "duration": 0.188,
        "velocity": 0.75,
        "hand": "right"
      },
      {
        "midi": 73,
        "time": 122.063,
        "duration": 0.188,
        "velocity": 0.75,
        "hand": "right"
      },
      {
        "midi": 76,
        "time": 122.063,
        "duration": 0.188,
        "velocity": 0.75,
        "hand": "right"
      },
      {
        "midi": 69,
        "time": 122.25,
        "duration": 0.188,
        "velocity": 0.75,
        "hand": "right"
      },
      {
        "midi": 70,
        "time": 122.438,
        "duration": 0.188,
        "velocity": 0.75,
        "hand": "right"
      },
      {
        "midi": 72,
        "time": 122.438,
        "duration": 0.188,
        "velocity": 0.75,
        "hand": "right"
      },
      {
        "midi": 69,
        "time": 122.625,
        "duration": 0.188,
        "velocity": 0.75,
        "hand": "right"
      },
      {
        "midi": 65,
        "time": 122.813,
        "duration": 0.188,
        "velocity": 0.75,
        "hand": "right"
      },
      {
        "midi": 67,
        "time": 122.813,
        "duration": 0.188,
        "velocity": 0.75,
        "hand": "right"
      },
      {
        "midi": 62,
        "time": 123,
        "duration": 0.188,
        "velocity": 0.75,
        "hand": "right"
      },
      {
        "midi": 64,
        "time": 123,
        "duration": 0.188,
        "velocity": 0.75,
        "hand": "right"
      },
      {
        "midi": 61,
        "time": 123.188,
        "duration": 0.188,
        "velocity": 0.75,
        "hand": "right"
      },
      {
        "midi": 57,
        "time": 123.375,
        "duration": 0.188,
        "velocity": 0.75,
        "hand": "left"
      },
      {
        "midi": 64,
        "time": 123.375,
        "duration": 0.188,
        "velocity": 0.75,
        "hand": "right"
      },
      {
        "midi": 58,
        "time": 123.563,
        "duration": 0.188,
        "velocity": 0.75,
        "hand": "left"
      },
      {
        "midi": 60,
        "time": 123.563,
        "duration": 0.188,
        "velocity": 0.75,
        "hand": "right"
      },
      {
        "midi": 57,
        "time": 123.75,
        "duration": 0.188,
        "velocity": 0.75,
        "hand": "left"
      },
      {
        "midi": 53,
        "time": 123.938,
        "duration": 0.188,
        "velocity": 0.75,
        "hand": "left"
      },
      {
        "midi": 55,
        "time": 123.938,
        "duration": 0.188,
        "velocity": 0.75,
        "hand": "left"
      },
      {
        "midi": 52,
        "time": 124.125,
        "duration": 0.188,
        "velocity": 0.75,
        "hand": "left"
      },
      {
        "midi": 49,
        "time": 124.313,
        "duration": 0.188,
        "velocity": 0.75,
        "hand": "left"
      },
      {
        "midi": 50,
        "time": 124.313,
        "duration": 0.188,
        "velocity": 0.75,
        "hand": "left"
      },
      {
        "midi": 45,
        "time": 124.5,
        "duration": 0.188,
        "velocity": 0.75,
        "hand": "left"
      },
      {
        "midi": 52,
        "time": 124.5,
        "duration": 0.188,
        "velocity": 0.75,
        "hand": "left"
      },
      {
        "midi": 48,
        "time": 124.688,
        "duration": 0.188,
        "velocity": 0.75,
        "hand": "left"
      },
      {
        "midi": 45,
        "time": 124.875,
        "duration": 0.188,
        "velocity": 0.75,
        "hand": "left"
      },
      {
        "midi": 46,
        "time": 124.875,
        "duration": 0.188,
        "velocity": 0.75,
        "hand": "left"
      },
      {
        "midi": 36,
        "time": 125.063,
        "duration": 0.188,
        "velocity": 0.71,
        "hand": "left"
      },
      {
        "midi": 43,
        "time": 125.063,
        "duration": 0.188,
        "velocity": 0.75,
        "hand": "left"
      },
      {
        "midi": 39,
        "time": 125.25,
        "duration": 0.188,
        "velocity": 0.71,
        "hand": "left"
      },
      {
        "midi": 42,
        "time": 125.438,
        "duration": 0.188,
        "velocity": 0.71,
        "hand": "left"
      },
      {
        "midi": 45,
        "time": 125.438,
        "duration": 0.188,
        "velocity": 0.71,
        "hand": "left"
      },
      {
        "midi": 48,
        "time": 125.625,
        "duration": 0.188,
        "velocity": 0.75,
        "hand": "left"
      },
      {
        "midi": 51,
        "time": 125.813,
        "duration": 0.188,
        "velocity": 0.75,
        "hand": "left"
      },
      {
        "midi": 54,
        "time": 125.813,
        "duration": 0.188,
        "velocity": 0.75,
        "hand": "left"
      },
      {
        "midi": 57,
        "time": 126,
        "duration": 0.188,
        "velocity": 0.75,
        "hand": "left"
      },
      {
        "midi": 60,
        "time": 126,
        "duration": 0.188,
        "velocity": 0.71,
        "hand": "right"
      },
      {
        "midi": 63,
        "time": 126.188,
        "duration": 0.188,
        "velocity": 0.71,
        "hand": "right"
      },
      {
        "midi": 66,
        "time": 126.375,
        "duration": 0.188,
        "velocity": 0.71,
        "hand": "right"
      },
      {
        "midi": 69,
        "time": 126.375,
        "duration": 0.188,
        "velocity": 0.71,
        "hand": "right"
      },
      {
        "midi": 72,
        "time": 126.563,
        "duration": 0.188,
        "velocity": 0.75,
        "hand": "right"
      },
      {
        "midi": 75,
        "time": 126.563,
        "duration": 0.188,
        "velocity": 0.75,
        "hand": "right"
      },
      {
        "midi": 78,
        "time": 126.75,
        "duration": 0.188,
        "velocity": 0.75,
        "hand": "right"
      },
      {
        "midi": 81,
        "time": 126.938,
        "duration": 0.188,
        "velocity": 0.75,
        "hand": "right"
      },
      {
        "midi": 84,
        "time": 126.938,
        "duration": 0.188,
        "velocity": 0.75,
        "hand": "right"
      },
      {
        "midi": 87,
        "time": 127.125,
        "duration": 0.188,
        "velocity": 0.75,
        "hand": "right"
      },
      {
        "midi": 62,
        "time": 127.875,
        "duration": 0.563,
        "velocity": 0.75,
        "hand": "right"
      },
      {
        "midi": 62,
        "time": 128.438,
        "duration": 0.563,
        "velocity": 0.75,
        "hand": "right"
      },
      {
        "midi": 62,
        "time": 128.813,
        "duration": 0.563,
        "velocity": 0.75,
        "hand": "right"
      },
      {
        "midi": 62,
        "time": 129.375,
        "duration": 0.563,
        "velocity": 0.75,
        "hand": "right"
      },
      {
        "midi": 62,
        "time": 129.938,
        "duration": 0.563,
        "velocity": 0.75,
        "hand": "right"
      },
      {
        "midi": 62,
        "time": 130.313,
        "duration": 0.563,
        "velocity": 0.75,
        "hand": "right"
      },
      {
        "midi": 43,
        "time": 130.875,
        "duration": 0.938,
        "velocity": 0.71,
        "hand": "left"
      },
      {
        "midi": 58,
        "time": 130.875,
        "duration": 0.938,
        "velocity": 0.75,
        "hand": "left"
      },
      {
        "midi": 62,
        "time": 130.875,
        "duration": 0.563,
        "velocity": 0.75,
        "hand": "right"
      },
      {
        "midi": 62,
        "time": 131.438,
        "duration": 0.563,
        "velocity": 0.75,
        "hand": "right"
      },
      {
        "midi": 42,
        "time": 131.813,
        "duration": 0.938,
        "velocity": 0.71,
        "hand": "left"
      },
      {
        "midi": 57,
        "time": 131.813,
        "duration": 0.938,
        "velocity": 0.75,
        "hand": "left"
      },
      {
        "midi": 62,
        "time": 131.813,
        "duration": 0.563,
        "velocity": 0.75,
        "hand": "right"
      },
      {
        "midi": 62,
        "time": 132.375,
        "duration": 0.563,
        "velocity": 0.75,
        "hand": "right"
      },
      {
        "midi": 41,
        "time": 132.938,
        "duration": 0.938,
        "velocity": 0.71,
        "hand": "left"
      },
      {
        "midi": 56,
        "time": 132.938,
        "duration": 0.938,
        "velocity": 0.75,
        "hand": "left"
      },
      {
        "midi": 62,
        "time": 132.938,
        "duration": 0.563,
        "velocity": 0.75,
        "hand": "right"
      },
      {
        "midi": 62,
        "time": 133.313,
        "duration": 0.563,
        "velocity": 0.75,
        "hand": "right"
      },
      {
        "midi": 40,
        "time": 133.875,
        "duration": 0.938,
        "velocity": 0.71,
        "hand": "left"
      },
      {
        "midi": 55,
        "time": 133.875,
        "duration": 0.938,
        "velocity": 0.75,
        "hand": "left"
      },
      {
        "midi": 62,
        "time": 133.875,
        "duration": 0.563,
        "velocity": 0.75,
        "hand": "right"
      },
      {
        "midi": 61,
        "time": 134.438,
        "duration": 0.563,
        "velocity": 0.75,
        "hand": "right"
      },
      {
        "midi": 39,
        "time": 134.813,
        "duration": 0.938,
        "velocity": 0.71,
        "hand": "left"
      },
      {
        "midi": 61,
        "time": 134.813,
        "duration": 0.938,
        "velocity": 0.75,
        "hand": "right"
      },
      {
        "midi": 67,
        "time": 134.813,
        "duration": 0.563,
        "velocity": 0.75,
        "hand": "right"
      },
      {
        "midi": 67,
        "time": 135.375,
        "duration": 0.563,
        "velocity": 0.75,
        "hand": "right"
      },
      {
        "midi": 38,
        "time": 135.938,
        "duration": 3,
        "velocity": 0.71,
        "hand": "left"
      },
      {
        "midi": 61,
        "time": 135.938,
        "duration": 2.063,
        "velocity": 0.75,
        "hand": "right"
      },
      {
        "midi": 67,
        "time": 135.938,
        "duration": 1.5,
        "velocity": 0.75,
        "hand": "right"
      },
      {
        "midi": 66,
        "time": 137.438,
        "duration": 0.188,
        "velocity": 0.75,
        "hand": "right"
      },
      {
        "midi": 67,
        "time": 137.438,
        "duration": 0.188,
        "velocity": 0.75,
        "hand": "right"
      },
      {
        "midi": 69,
        "time": 137.625,
        "duration": 0.188,
        "velocity": 0.75,
        "hand": "right"
      },
      {
        "midi": 62,
        "time": 137.813,
        "duration": 0.938,
        "velocity": 0.75,
        "hand": "right"
      },
      {
        "midi": 66,
        "time": 137.813,
        "duration": 0.938,
        "velocity": 0.75,
        "hand": "right"
      },
      {
        "midi": 67,
        "time": 137.813,
        "duration": 0.188,
        "velocity": 0.75,
        "hand": "right"
      },
      {
        "midi": 69,
        "time": 139.688,
        "duration": 0.188,
        "velocity": 0.54,
        "hand": "right"
      },
      {
        "midi": 67,
        "time": 139.875,
        "duration": 0.188,
        "velocity": 0.54,
        "hand": "right"
      },
      {
        "midi": 66,
        "time": 140.063,
        "duration": 0.188,
        "velocity": 0.54,
        "hand": "right"
      },
      {
        "midi": 60,
        "time": 140.438,
        "duration": 0.563,
        "velocity": 0.71,
        "hand": "right"
      },
      {
        "midi": 63,
        "time": 140.438,
        "duration": 0.563,
        "velocity": 0.71,
        "hand": "right"
      },
      {
        "midi": 69,
        "time": 140.625,
        "duration": 0.188,
        "velocity": 0.54,
        "hand": "right"
      },
      {
        "midi": 60,
        "time": 140.813,
        "duration": 0.563,
        "velocity": 0.71,
        "hand": "right"
      },
      {
        "midi": 63,
        "time": 140.813,
        "duration": 0.563,
        "velocity": 0.71,
        "hand": "right"
      },
      {
        "midi": 67,
        "time": 140.813,
        "duration": 0.188,
        "velocity": 0.54,
        "hand": "right"
      },
      {
        "midi": 66,
        "time": 141.188,
        "duration": 0.188,
        "velocity": 0.54,
        "hand": "right"
      },
      {
        "midi": 60,
        "time": 141.375,
        "duration": 0.563,
        "velocity": 0.71,
        "hand": "right"
      },
      {
        "midi": 63,
        "time": 141.375,
        "duration": 0.563,
        "velocity": 0.71,
        "hand": "right"
      },
      {
        "midi": 69,
        "time": 141.563,
        "duration": 0.188,
        "velocity": 0.54,
        "hand": "right"
      },
      {
        "midi": 60,
        "time": 141.938,
        "duration": 0.563,
        "velocity": 0.71,
        "hand": "right"
      },
      {
        "midi": 63,
        "time": 141.938,
        "duration": 0.563,
        "velocity": 0.71,
        "hand": "right"
      },
      {
        "midi": 67,
        "time": 141.938,
        "duration": 0.188,
        "velocity": 0.54,
        "hand": "right"
      },
      {
        "midi": 66,
        "time": 142.125,
        "duration": 0.188,
        "velocity": 0.54,
        "hand": "right"
      },
      {
        "midi": 60,
        "time": 142.313,
        "duration": 0.563,
        "velocity": 0.71,
        "hand": "right"
      },
      {
        "midi": 63,
        "time": 142.313,
        "duration": 0.563,
        "velocity": 0.71,
        "hand": "right"
      },
      {
        "midi": 69,
        "time": 142.688,
        "duration": 0.188,
        "velocity": 0.54,
        "hand": "right"
      },
      {
        "midi": 60,
        "time": 142.875,
        "duration": 0.563,
        "velocity": 0.71,
        "hand": "right"
      },
      {
        "midi": 63,
        "time": 142.875,
        "duration": 0.563,
        "velocity": 0.71,
        "hand": "right"
      },
      {
        "midi": 72,
        "time": 143.063,
        "duration": 0.188,
        "velocity": 0.54,
        "hand": "right"
      },
      {
        "midi": 60,
        "time": 143.438,
        "duration": 0.563,
        "velocity": 0.71,
        "hand": "right"
      },
      {
        "midi": 63,
        "time": 143.438,
        "duration": 0.563,
        "velocity": 0.71,
        "hand": "right"
      },
      {
        "midi": 66,
        "time": 143.625,
        "duration": 0.188,
        "velocity": 0.54,
        "hand": "right"
      },
      {
        "midi": 69,
        "time": 143.813,
        "duration": 0.188,
        "velocity": 0.54,
        "hand": "right"
      },
      {
        "midi": 67,
        "time": 144.188,
        "duration": 0.188,
        "velocity": 0.54,
        "hand": "right"
      },
      {
        "midi": 58,
        "time": 144.375,
        "duration": 0.563,
        "velocity": 0.71,
        "hand": "left"
      },
      {
        "midi": 62,
        "time": 144.375,
        "duration": 0.563,
        "velocity": 0.71,
        "hand": "right"
      },
      {
        "midi": 70,
        "time": 144.563,
        "duration": 0.188,
        "velocity": 0.54,
        "hand": "right"
      },
      {
        "midi": 58,
        "time": 144.938,
        "duration": 0.563,
        "velocity": 0.71,
        "hand": "left"
      },
      {
        "midi": 62,
        "time": 144.938,
        "duration": 0.563,
        "velocity": 0.71,
        "hand": "right"
      },
      {
        "midi": 69,
        "time": 144.938,
        "duration": 0.188,
        "velocity": 0.54,
        "hand": "right"
      },
      {
        "midi": 67,
        "time": 145.125,
        "duration": 0.188,
        "velocity": 0.54,
        "hand": "right"
      },
      {
        "midi": 58,
        "time": 145.313,
        "duration": 0.563,
        "velocity": 0.71,
        "hand": "left"
      },
      {
        "midi": 62,
        "time": 145.313,
        "duration": 0.563,
        "velocity": 0.71,
        "hand": "right"
      },
      {
        "midi": 70,
        "time": 145.688,
        "duration": 0.188,
        "velocity": 0.54,
        "hand": "right"
      },
      {
        "midi": 58,
        "time": 145.875,
        "duration": 0.563,
        "velocity": 0.71,
        "hand": "left"
      },
      {
        "midi": 62,
        "time": 145.875,
        "duration": 0.563,
        "velocity": 0.71,
        "hand": "right"
      },
      {
        "midi": 69,
        "time": 145.875,
        "duration": 0.188,
        "velocity": 0.54,
        "hand": "right"
      },
      {
        "midi": 67,
        "time": 146.063,
        "duration": 0.188,
        "velocity": 0.54,
        "hand": "right"
      },
      {
        "midi": 58,
        "time": 146.438,
        "duration": 0.563,
        "velocity": 0.71,
        "hand": "left"
      },
      {
        "midi": 62,
        "time": 146.438,
        "duration": 0.563,
        "velocity": 0.71,
        "hand": "right"
      },
      {
        "midi": 70,
        "time": 146.625,
        "duration": 0.188,
        "velocity": 0.54,
        "hand": "right"
      },
      {
        "midi": 58,
        "time": 146.813,
        "duration": 0.563,
        "velocity": 0.71,
        "hand": "left"
      },
      {
        "midi": 62,
        "time": 146.813,
        "duration": 0.563,
        "velocity": 0.71,
        "hand": "right"
      },
      {
        "midi": 74,
        "time": 147.188,
        "duration": 0.188,
        "velocity": 0.54,
        "hand": "right"
      },
      {
        "midi": 58,
        "time": 147.375,
        "duration": 0.563,
        "velocity": 0.71,
        "hand": "left"
      },
      {
        "midi": 62,
        "time": 147.375,
        "duration": 0.563,
        "velocity": 0.71,
        "hand": "right"
      },
      {
        "midi": 67,
        "time": 147.563,
        "duration": 0.188,
        "velocity": 0.54,
        "hand": "right"
      },
      {
        "midi": 70,
        "time": 147.938,
        "duration": 0.188,
        "velocity": 0.54,
        "hand": "right"
      },
      {
        "midi": 69,
        "time": 148.125,
        "duration": 0.188,
        "velocity": 0.54,
        "hand": "right"
      },
      {
        "midi": 54,
        "time": 148.313,
        "duration": 0.563,
        "velocity": 0.71,
        "hand": "left"
      },
      {
        "midi": 62,
        "time": 148.313,
        "duration": 0.563,
        "velocity": 0.71,
        "hand": "right"
      },
      {
        "midi": 72,
        "time": 148.688,
        "duration": 0.188,
        "velocity": 0.54,
        "hand": "right"
      },
      {
        "midi": 54,
        "time": 148.875,
        "duration": 0.563,
        "velocity": 0.71,
        "hand": "left"
      },
      {
        "midi": 62,
        "time": 148.875,
        "duration": 0.563,
        "velocity": 0.71,
        "hand": "right"
      },
      {
        "midi": 70,
        "time": 148.875,
        "duration": 0.188,
        "velocity": 0.54,
        "hand": "right"
      },
      {
        "midi": 69,
        "time": 149.063,
        "duration": 0.188,
        "velocity": 0.54,
        "hand": "right"
      },
      {
        "midi": 54,
        "time": 149.438,
        "duration": 0.563,
        "velocity": 0.71,
        "hand": "left"
      },
      {
        "midi": 62,
        "time": 149.438,
        "duration": 0.563,
        "velocity": 0.71,
        "hand": "right"
      },
      {
        "midi": 72,
        "time": 149.625,
        "duration": 0.188,
        "velocity": 0.54,
        "hand": "right"
      },
      {
        "midi": 54,
        "time": 149.813,
        "duration": 0.563,
        "velocity": 0.71,
        "hand": "left"
      },
      {
        "midi": 62,
        "time": 149.813,
        "duration": 0.563,
        "velocity": 0.71,
        "hand": "right"
      },
      {
        "midi": 70,
        "time": 149.813,
        "duration": 0.188,
        "velocity": 0.54,
        "hand": "right"
      },
      {
        "midi": 69,
        "time": 150.188,
        "duration": 0.188,
        "velocity": 0.54,
        "hand": "right"
      },
      {
        "midi": 54,
        "time": 150.375,
        "duration": 0.563,
        "velocity": 0.71,
        "hand": "left"
      },
      {
        "midi": 62,
        "time": 150.375,
        "duration": 0.563,
        "velocity": 0.71,
        "hand": "right"
      },
      {
        "midi": 72,
        "time": 150.563,
        "duration": 0.188,
        "velocity": 0.54,
        "hand": "right"
      },
      {
        "midi": 54,
        "time": 150.938,
        "duration": 0.563,
        "velocity": 0.71,
        "hand": "left"
      },
      {
        "midi": 62,
        "time": 150.938,
        "duration": 0.563,
        "velocity": 0.71,
        "hand": "right"
      },
      {
        "midi": 75,
        "time": 151.125,
        "duration": 0.188,
        "velocity": 0.54,
        "hand": "right"
      },
      {
        "midi": 54,
        "time": 151.313,
        "duration": 0.563,
        "velocity": 0.71,
        "hand": "left"
      },
      {
        "midi": 62,
        "time": 151.313,
        "duration": 0.563,
        "velocity": 0.71,
        "hand": "right"
      },
      {
        "midi": 69,
        "time": 151.688,
        "duration": 0.188,
        "velocity": 0.54,
        "hand": "right"
      },
      {
        "midi": 55,
        "time": 151.875,
        "duration": 0.563,
        "velocity": 0.71,
        "hand": "left"
      },
      {
        "midi": 62,
        "time": 151.875,
        "duration": 0.563,
        "velocity": 0.71,
        "hand": "right"
      },
      {
        "midi": 72,
        "time": 151.875,
        "duration": 0.188,
        "velocity": 0.54,
        "hand": "right"
      },
      {
        "midi": 70,
        "time": 152.063,
        "duration": 0.188,
        "velocity": 0.54,
        "hand": "right"
      },
      {
        "midi": 55,
        "time": 152.438,
        "duration": 0.563,
        "velocity": 0.71,
        "hand": "left"
      },
      {
        "midi": 58,
        "time": 152.438,
        "duration": 0.563,
        "velocity": 0.71,
        "hand": "left"
      },
      {
        "midi": 79,
        "time": 152.625,
        "duration": 0.188,
        "velocity": 0.54,
        "hand": "right"
      },
      {
        "midi": 57,
        "time": 152.813,
        "duration": 0.563,
        "velocity": 0.71,
        "hand": "left"
      },
      {
        "midi": 60,
        "time": 152.813,
        "duration": 0.563,
        "velocity": 0.71,
        "hand": "right"
      },
      {
        "midi": 78,
        "time": 153.188,
        "duration": 0.188,
        "velocity": 0.57,
        "hand": "right"
      },
      {
        "midi": 59,
        "time": 153.375,
        "duration": 0.563,
        "velocity": 0.71,
        "hand": "left"
      },
      {
        "midi": 62,
        "time": 153.375,
        "duration": 0.563,
        "velocity": 0.71,
        "hand": "right"
      },
      {
        "midi": 77,
        "time": 153.563,
        "duration": 0.188,
        "velocity": 0.62,
        "hand": "right"
      },
      {
        "midi": 60,
        "time": 153.938,
        "duration": 0.563,
        "velocity": 0.71,
        "hand": "right"
      },
      {
        "midi": 63,
        "time": 153.938,
        "duration": 0.563,
        "velocity": 0.71,
        "hand": "right"
      },
      {
        "midi": 75,
        "time": 154.125,
        "duration": 0.188,
        "velocity": 0.67,
        "hand": "right"
      },
      {
        "midi": 62,
        "time": 154.313,
        "duration": 0.563,
        "velocity": 0.71,
        "hand": "right"
      },
      {
        "midi": 66,
        "time": 154.313,
        "duration": 0.563,
        "velocity": 0.71,
        "hand": "right"
      },
      {
        "midi": 74,
        "time": 154.688,
        "duration": 0.188,
        "velocity": 0.72,
        "hand": "right"
      },
      {
        "midi": 64,
        "time": 154.875,
        "duration": 0.563,
        "velocity": 0.71,
        "hand": "right"
      },
      {
        "midi": 67,
        "time": 154.875,
        "duration": 0.563,
        "velocity": 0.71,
        "hand": "right"
      },
      {
        "midi": 73,
        "time": 155.063,
        "duration": 0.188,
        "velocity": 0.75,
        "hand": "right"
      },
      {
        "midi": 66,
        "time": 155.438,
        "duration": 0.563,
        "velocity": 0.71,
        "hand": "right"
      },
      {
        "midi": 69,
        "time": 155.438,
        "duration": 0.563,
        "velocity": 0.71,
        "hand": "right"
      },
      {
        "midi": 72,
        "time": 155.625,
        "duration": 0.188,
        "velocity": 0.54,
        "hand": "right"
      },
      {
        "midi": 67,
        "time": 155.813,
        "duration": 0.563,
        "velocity": 0.71,
        "hand": "right"
      },
      {
        "midi": 70,
        "time": 155.813,
        "duration": 0.188,
        "velocity": 0.54,
        "hand": "right"
      },
      {
        "midi": 74,
        "time": 156.188,
        "duration": 0.188,
        "velocity": 0.54,
        "hand": "right"
      },
      {
        "midi": 55,
        "time": 156.375,
        "duration": 0.563,
        "velocity": 0.71,
        "hand": "left"
      },
      {
        "midi": 58,
        "time": 156.375,
        "duration": 0.563,
        "velocity": 0.71,
        "hand": "left"
      },
      {
        "midi": 79,
        "time": 156.563,
        "duration": 0.188,
        "velocity": 0.54,
        "hand": "right"
      },
      {
        "midi": 57,
        "time": 156.938,
        "duration": 0.563,
        "velocity": 0.71,
        "hand": "left"
      },
      {
        "midi": 60,
        "time": 156.938,
        "duration": 0.563,
        "velocity": 0.71,
        "hand": "right"
      },
      {
        "midi": 78,
        "time": 157.125,
        "duration": 0.188,
        "velocity": 0.54,
        "hand": "right"
      },
      {
        "midi": 59,
        "time": 157.313,
        "duration": 0.563,
        "velocity": 0.71,
        "hand": "left"
      },
      {
        "midi": 62,
        "time": 157.313,
        "duration": 0.563,
        "velocity": 0.71,
        "hand": "right"
      },
      {
        "midi": 77,
        "time": 157.688,
        "duration": 0.188,
        "velocity": 0.54,
        "hand": "right"
      },
      {
        "midi": 60,
        "time": 157.875,
        "duration": 0.563,
        "velocity": 0.71,
        "hand": "right"
      },
      {
        "midi": 67,
        "time": 157.875,
        "duration": 0.563,
        "velocity": 0.71,
        "hand": "right"
      },
      {
        "midi": 74,
        "time": 157.875,
        "duration": 0.188,
        "velocity": 0.54,
        "hand": "right"
      },
      {
        "midi": 75,
        "time": 158.063,
        "duration": 0.188,
        "velocity": 0.54,
        "hand": "right"
      },
      {
        "midi": 58,
        "time": 158.438,
        "duration": 0.563,
        "velocity": 0.71,
        "hand": "left"
      },
      {
        "midi": 61,
        "time": 158.438,
        "duration": 0.563,
        "velocity": 0.71,
        "hand": "right"
      },
      {
        "midi": 76,
        "time": 158.625,
        "duration": 0.188,
        "velocity": 0.54,
        "hand": "right"
      },
      {
        "midi": 57,
        "time": 158.813,
        "duration": 0.563,
        "velocity": 0.71,
        "hand": "left"
      },
      {
        "midi": 60,
        "time": 158.813,
        "duration": 0.563,
        "velocity": 0.71,
        "hand": "right"
      },
      {
        "midi": 79,
        "time": 158.813,
        "duration": 0.188,
        "velocity": 0.54,
        "hand": "right"
      },
      {
        "midi": 77,
        "time": 159.188,
        "duration": 0.188,
        "velocity": 0.54,
        "hand": "right"
      },
      {
        "midi": 60,
        "time": 159.375,
        "duration": 0.563,
        "velocity": 0.71,
        "hand": "right"
      },
      {
        "midi": 63,
        "time": 159.375,
        "duration": 0.563,
        "velocity": 0.71,
        "hand": "right"
      },
      {
        "midi": 78,
        "time": 159.563,
        "duration": 0.188,
        "velocity": 0.54,
        "hand": "right"
      },
      {
        "midi": 59,
        "time": 159.938,
        "duration": 0.563,
        "velocity": 0.71,
        "hand": "left"
      },
      {
        "midi": 62,
        "time": 159.938,
        "duration": 0.563,
        "velocity": 0.71,
        "hand": "right"
      },
      {
        "midi": 81,
        "time": 159.938,
        "duration": 0.188,
        "velocity": 0.54,
        "hand": "right"
      },
      {
        "midi": 79,
        "time": 160.125,
        "duration": 0.188,
        "velocity": 0.54,
        "hand": "right"
      },
      {
        "midi": 54,
        "time": 160.313,
        "duration": 0.563,
        "velocity": 0.71,
        "hand": "left"
      },
      {
        "midi": 62,
        "time": 160.313,
        "duration": 0.938,
        "velocity": 0.71,
        "hand": "right"
      },
      {
        "midi": 81,
        "time": 160.688,
        "duration": 0.188,
        "velocity": 0.54,
        "hand": "right"
      },
      {
        "midi": 55,
        "time": 160.875,
        "duration": 0.563,
        "velocity": 0.71,
        "hand": "left"
      },
      {
        "midi": 84,
        "time": 160.875,
        "duration": 0.188,
        "velocity": 0.54,
        "hand": "right"
      },
      {
        "midi": 82,
        "time": 161.063,
        "duration": 0.188,
        "velocity": 0.54,
        "hand": "right"
      },
      {
        "midi": 53,
        "time": 161.438,
        "duration": 0.563,
        "velocity": 0.71,
        "hand": "left"
      },
      {
        "midi": 56,
        "time": 161.438,
        "duration": 0.563,
        "velocity": 0.71,
        "hand": "left"
      },
      {
        "midi": 83,
        "time": 161.625,
        "duration": 0.188,
        "velocity": 0.54,
        "hand": "right"
      },
      {
        "midi": 52,
        "time": 161.813,
        "duration": 0.563,
        "velocity": 0.71,
        "hand": "left"
      },
      {
        "midi": 55,
        "time": 161.813,
        "duration": 0.563,
        "velocity": 0.71,
        "hand": "left"
      },
      {
        "midi": 86,
        "time": 161.813,
        "duration": 0.188,
        "velocity": 0.54,
        "hand": "right"
      },
      {
        "midi": 85,
        "time": 162.188,
        "duration": 0.188,
        "velocity": 0.54,
        "hand": "right"
      },
      {
        "midi": 50,
        "time": 162.375,
        "duration": 0.563,
        "velocity": 0.71,
        "hand": "left"
      },
      {
        "midi": 55,
        "time": 162.375,
        "duration": 0.563,
        "velocity": 0.71,
        "hand": "left"
      },
      {
        "midi": 58,
        "time": 162.375,
        "duration": 0.563,
        "velocity": 0.71,
        "hand": "left"
      },
      {
        "midi": 86,
        "time": 162.563,
        "duration": 0.188,
        "velocity": 0.54,
        "hand": "right"
      },
      {
        "midi": 49,
        "time": 162.938,
        "duration": 0.938,
        "velocity": 0.71,
        "hand": "left"
      },
      {
        "midi": 58,
        "time": 162.938,
        "duration": 0.938,
        "velocity": 0.71,
        "hand": "left"
      },
      {
        "midi": 89,
        "time": 162.938,
        "duration": 0.563,
        "velocity": 0.54,
        "hand": "right"
      },
      {
        "midi": 88,
        "time": 163.313,
        "duration": 0.563,
        "velocity": 0.54,
        "hand": "right"
      },
      {
        "midi": 87,
        "time": 164.063,
        "duration": 0.188,
        "velocity": 0.54,
        "hand": "right"
      },
      {
        "midi": 88,
        "time": 164.063,
        "duration": 0.188,
        "velocity": 0.54,
        "hand": "right"
      },
      {
        "midi": 86,
        "time": 164.25,
        "duration": 0.188,
        "velocity": 0.54,
        "hand": "right"
      },
      {
        "midi": 83,
        "time": 164.438,
        "duration": 0.188,
        "velocity": 0.54,
        "hand": "right"
      },
      {
        "midi": 85,
        "time": 164.438,
        "duration": 0.188,
        "velocity": 0.54,
        "hand": "right"
      },
      {
        "midi": 81,
        "time": 164.625,
        "duration": 0.188,
        "velocity": 0.54,
        "hand": "right"
      },
      {
        "midi": 80,
        "time": 164.813,
        "duration": 0.188,
        "velocity": 0.54,
        "hand": "right"
      },
      {
        "midi": 82,
        "time": 164.813,
        "duration": 0.188,
        "velocity": 0.54,
        "hand": "right"
      },
      {
        "midi": 81,
        "time": 165,
        "duration": 0.188,
        "velocity": 0.54,
        "hand": "right"
      },
      {
        "midi": 82,
        "time": 165.188,
        "duration": 0.188,
        "velocity": 0.54,
        "hand": "right"
      },
      {
        "midi": 84,
        "time": 165.188,
        "duration": 0.188,
        "velocity": 0.54,
        "hand": "right"
      },
      {
        "midi": 81,
        "time": 165.375,
        "duration": 0.188,
        "velocity": 0.54,
        "hand": "right"
      },
      {
        "midi": 77,
        "time": 165.563,
        "duration": 0.188,
        "velocity": 0.54,
        "hand": "right"
      },
      {
        "midi": 79,
        "time": 165.563,
        "duration": 0.188,
        "velocity": 0.54,
        "hand": "right"
      },
      {
        "midi": 76,
        "time": 165.75,
        "duration": 0.188,
        "velocity": 0.54,
        "hand": "right"
      },
      {
        "midi": 73,
        "time": 165.938,
        "duration": 0.188,
        "velocity": 0.54,
        "hand": "right"
      },
      {
        "midi": 74,
        "time": 165.938,
        "duration": 0.188,
        "velocity": 0.54,
        "hand": "right"
      },
      {
        "midi": 71,
        "time": 166.125,
        "duration": 0.188,
        "velocity": 0.54,
        "hand": "right"
      },
      {
        "midi": 68,
        "time": 166.313,
        "duration": 0.188,
        "velocity": 0.54,
        "hand": "right"
      },
      {
        "midi": 69,
        "time": 166.313,
        "duration": 0.188,
        "velocity": 0.54,
        "hand": "right"
      },
      {
        "midi": 70,
        "time": 166.5,
        "duration": 0.188,
        "velocity": 0.54,
        "hand": "right"
      },
      {
        "midi": 69,
        "time": 166.688,
        "duration": 0.188,
        "velocity": 0.54,
        "hand": "right"
      },
      {
        "midi": 72,
        "time": 166.688,
        "duration": 0.188,
        "velocity": 0.54,
        "hand": "right"
      },
      {
        "midi": 70,
        "time": 166.875,
        "duration": 0.188,
        "velocity": 0.54,
        "hand": "right"
      },
      {
        "midi": 67,
        "time": 167.063,
        "duration": 0.188,
        "velocity": 0.54,
        "hand": "right"
      },
      {
        "midi": 69,
        "time": 167.063,
        "duration": 0.188,
        "velocity": 0.54,
        "hand": "right"
      },
      {
        "midi": 65,
        "time": 167.25,
        "duration": 0.188,
        "velocity": 0.54,
        "hand": "right"
      },
      {
        "midi": 62,
        "time": 167.438,
        "duration": 0.188,
        "velocity": 0.54,
        "hand": "right"
      },
      {
        "midi": 64,
        "time": 167.438,
        "duration": 0.188,
        "velocity": 0.54,
        "hand": "right"
      },
      {
        "midi": 61,
        "time": 167.625,
        "duration": 0.188,
        "velocity": 0.54,
        "hand": "right"
      },
      {
        "midi": 57,
        "time": 167.813,
        "duration": 0.188,
        "velocity": 0.54,
        "hand": "left"
      },
      {
        "midi": 59,
        "time": 167.813,
        "duration": 0.188,
        "velocity": 0.54,
        "hand": "left"
      },
      {
        "midi": 56,
        "time": 168,
        "duration": 0.188,
        "velocity": 0.54,
        "hand": "left"
      },
      {
        "midi": 57,
        "time": 168.188,
        "duration": 0.188,
        "velocity": 0.54,
        "hand": "left"
      },
      {
        "midi": 58,
        "time": 168.188,
        "duration": 0.188,
        "velocity": 0.54,
        "hand": "left"
      },
      {
        "midi": 60,
        "time": 168.375,
        "duration": 0.188,
        "velocity": 0.54,
        "hand": "right"
      },
      {
        "midi": 57,
        "time": 168.563,
        "duration": 0.188,
        "velocity": 0.54,
        "hand": "left"
      },
      {
        "midi": 58,
        "time": 168.563,
        "duration": 0.188,
        "velocity": 0.54,
        "hand": "left"
      },
      {
        "midi": 55,
        "time": 168.75,
        "duration": 0.188,
        "velocity": 0.54,
        "hand": "left"
      },
      {
        "midi": 52,
        "time": 168.938,
        "duration": 0.188,
        "velocity": 0.54,
        "hand": "left"
      },
      {
        "midi": 53,
        "time": 168.938,
        "duration": 0.188,
        "velocity": 0.54,
        "hand": "left"
      },
      {
        "midi": 50,
        "time": 169.125,
        "duration": 0.188,
        "velocity": 0.54,
        "hand": "left"
      },
      {
        "midi": 47,
        "time": 169.313,
        "duration": 0.188,
        "velocity": 0.54,
        "hand": "left"
      },
      {
        "midi": 49,
        "time": 169.313,
        "duration": 0.188,
        "velocity": 0.54,
        "hand": "left"
      },
      {
        "midi": 45,
        "time": 169.5,
        "duration": 0.188,
        "velocity": 0.54,
        "hand": "left"
      },
      {
        "midi": 44,
        "time": 169.688,
        "duration": 0.188,
        "velocity": 0.54,
        "hand": "left"
      },
      {
        "midi": 46,
        "time": 169.688,
        "duration": 0.188,
        "velocity": 0.54,
        "hand": "left"
      },
      {
        "midi": 45,
        "time": 169.875,
        "duration": 0.188,
        "velocity": 0.54,
        "hand": "left"
      },
      {
        "midi": 46,
        "time": 170.063,
        "duration": 0.188,
        "velocity": 0.54,
        "hand": "left"
      },
      {
        "midi": 48,
        "time": 170.063,
        "duration": 0.188,
        "velocity": 0.54,
        "hand": "left"
      },
      {
        "midi": 45,
        "time": 170.25,
        "duration": 0.188,
        "velocity": 0.54,
        "hand": "left"
      },
      {
        "midi": 41,
        "time": 170.438,
        "duration": 0.188,
        "velocity": 0.54,
        "hand": "left"
      },
      {
        "midi": 43,
        "time": 170.438,
        "duration": 0.188,
        "velocity": 0.54,
        "hand": "left"
      },
      {
        "midi": 40,
        "time": 170.625,
        "duration": 0.188,
        "velocity": 0.54,
        "hand": "left"
      },
      {
        "midi": 33,
        "time": 170.813,
        "duration": 2.063,
        "velocity": 0.71,
        "hand": "left"
      },
      {
        "midi": 38,
        "time": 170.813,
        "duration": 0.188,
        "velocity": 0.54,
        "hand": "left"
      },
      {
        "midi": 45,
        "time": 171.938,
        "duration": 1.313,
        "velocity": 0.54,
        "hand": "left"
      },
      {
        "midi": 47,
        "time": 173.063,
        "duration": 0.188,
        "velocity": 0.54,
        "hand": "left"
      },
      {
        "midi": 45,
        "time": 173.438,
        "duration": 0.188,
        "velocity": 0.54,
        "hand": "left"
      },
      {
        "midi": 44,
        "time": 173.625,
        "duration": 0.188,
        "velocity": 0.54,
        "hand": "left"
      },
      {
        "midi": 45,
        "time": 173.813,
        "duration": 0.563,
        "velocity": 0.54,
        "hand": "left"
      },
      {
        "midi": 46,
        "time": 174.375,
        "duration": 0.188,
        "velocity": 0.54,
        "hand": "left"
      },
      {
        "midi": 47,
        "time": 174.563,
        "duration": 0.188,
        "velocity": 0.54,
        "hand": "left"
      },
      {
        "midi": 48,
        "time": 174.563,
        "duration": 0.188,
        "velocity": 0.54,
        "hand": "left"
      },
      {
        "midi": 49,
        "time": 174.75,
        "duration": 0.188,
        "velocity": 0.54,
        "hand": "left"
      },
      {
        "midi": 50,
        "time": 174.938,
        "duration": 0.188,
        "velocity": 0.54,
        "hand": "left"
      },
      {
        "midi": 51,
        "time": 174.938,
        "duration": 0.188,
        "velocity": 0.54,
        "hand": "left"
      },
      {
        "midi": 52,
        "time": 175.125,
        "duration": 0.188,
        "velocity": 0.54,
        "hand": "left"
      },
      {
        "midi": 53,
        "time": 175.313,
        "duration": 0.188,
        "velocity": 0.54,
        "hand": "left"
      },
      {
        "midi": 54,
        "time": 175.313,
        "duration": 0.188,
        "velocity": 0.54,
        "hand": "left"
      },
      {
        "midi": 55,
        "time": 175.5,
        "duration": 0.188,
        "velocity": 0.54,
        "hand": "left"
      },
      {
        "midi": 56,
        "time": 175.688,
        "duration": 0.188,
        "velocity": 0.54,
        "hand": "left"
      },
      {
        "midi": 57,
        "time": 175.688,
        "duration": 0.188,
        "velocity": 0.54,
        "hand": "left"
      },
      {
        "midi": 58,
        "time": 175.875,
        "duration": 0.188,
        "velocity": 0.54,
        "hand": "left"
      },
      {
        "midi": 59,
        "time": 176.063,
        "duration": 0.188,
        "velocity": 0.54,
        "hand": "left"
      },
      {
        "midi": 60,
        "time": 176.063,
        "duration": 0.188,
        "velocity": 0.54,
        "hand": "right"
      },
      {
        "midi": 61,
        "time": 176.25,
        "duration": 0.188,
        "velocity": 0.54,
        "hand": "right"
      },
      {
        "midi": 62,
        "time": 176.438,
        "duration": 0.188,
        "velocity": 0.54,
        "hand": "right"
      },
      {
        "midi": 63,
        "time": 176.438,
        "duration": 0.188,
        "velocity": 0.54,
        "hand": "right"
      },
      {
        "midi": 64,
        "time": 176.625,
        "duration": 0.188,
        "velocity": 0.54,
        "hand": "right"
      },
      {
        "midi": 65,
        "time": 176.813,
        "duration": 0.188,
        "velocity": 0.54,
        "hand": "right"
      },
      {
        "midi": 66,
        "time": 176.813,
        "duration": 0.188,
        "velocity": 0.54,
        "hand": "right"
      },
      {
        "midi": 67,
        "time": 177,
        "duration": 0.188,
        "velocity": 0.54,
        "hand": "right"
      },
      {
        "midi": 68,
        "time": 177.188,
        "duration": 0.188,
        "velocity": 0.54,
        "hand": "right"
      },
      {
        "midi": 69,
        "time": 177.188,
        "duration": 0.188,
        "velocity": 0.54,
        "hand": "right"
      },
      {
        "midi": 70,
        "time": 177.375,
        "duration": 0.188,
        "velocity": 0.54,
        "hand": "right"
      },
      {
        "midi": 71,
        "time": 177.563,
        "duration": 0.188,
        "velocity": 0.54,
        "hand": "right"
      },
      {
        "midi": 72,
        "time": 177.563,
        "duration": 0.188,
        "velocity": 0.54,
        "hand": "right"
      },
      {
        "midi": 73,
        "time": 177.75,
        "duration": 0.188,
        "velocity": 0.54,
        "hand": "right"
      },
      {
        "midi": 74,
        "time": 177.938,
        "duration": 0.188,
        "velocity": 0.54,
        "hand": "right"
      },
      {
        "midi": 75,
        "time": 177.938,
        "duration": 0.188,
        "velocity": 0.54,
        "hand": "right"
      },
      {
        "midi": 76,
        "time": 178.125,
        "duration": 0.188,
        "velocity": 0.54,
        "hand": "right"
      },
      {
        "midi": 62,
        "time": 178.313,
        "duration": 2.063,
        "velocity": 0.71,
        "hand": "right"
      },
      {
        "midi": 77,
        "time": 178.313,
        "duration": 1.688,
        "velocity": 0.54,
        "hand": "right"
      },
      {
        "midi": 65,
        "time": 178.688,
        "duration": 0.563,
        "velocity": 0.71,
        "hand": "right"
      },
      {
        "midi": 69,
        "time": 178.688,
        "duration": 0.563,
        "velocity": 0.71,
        "hand": "right"
      },
      {
        "midi": 65,
        "time": 179.25,
        "duration": 0.563,
        "velocity": 0.71,
        "hand": "right"
      },
      {
        "midi": 69,
        "time": 179.25,
        "duration": 0.563,
        "velocity": 0.71,
        "hand": "right"
      },
      {
        "midi": 65,
        "time": 179.813,
        "duration": 0.563,
        "velocity": 0.71,
        "hand": "right"
      },
      {
        "midi": 69,
        "time": 179.813,
        "duration": 0.563,
        "velocity": 0.71,
        "hand": "right"
      },
      {
        "midi": 76,
        "time": 180,
        "duration": 0.188,
        "velocity": 0.54,
        "hand": "right"
      },
      {
        "midi": 62,
        "time": 180.188,
        "duration": 2.063,
        "velocity": 0.71,
        "hand": "right"
      },
      {
        "midi": 77,
        "time": 180.188,
        "duration": 0.188,
        "velocity": 0.54,
        "hand": "right"
      },
      {
        "midi": 79,
        "time": 180.188,
        "duration": 0.563,
        "velocity": 0.54,
        "hand": "right"
      },
      {
        "midi": 65,
        "time": 180.75,
        "duration": 0.563,
        "velocity": 0.71,
        "hand": "right"
      },
      {
        "midi": 69,
        "time": 180.75,
        "duration": 0.563,
        "velocity": 0.71,
        "hand": "right"
      },
      {
        "midi": 77,
        "time": 180.75,
        "duration": 0.563,
        "velocity": 0.54,
        "hand": "right"
      },
      {
        "midi": 65,
        "time": 181.313,
        "duration": 0.563,
        "velocity": 0.71,
        "hand": "right"
      },
      {
        "midi": 69,
        "time": 181.313,
        "duration": 0.563,
        "velocity": 0.71,
        "hand": "right"
      },
      {
        "midi": 76,
        "time": 181.313,
        "duration": 0.563,
        "velocity": 0.54,
        "hand": "right"
      },
      {
        "midi": 65,
        "time": 181.688,
        "duration": 0.563,
        "velocity": 0.71,
        "hand": "right"
      },
      {
        "midi": 69,
        "time": 181.688,
        "duration": 0.563,
        "velocity": 0.71,
        "hand": "right"
      },
      {
        "midi": 74,
        "time": 181.688,
        "duration": 0.563,
        "velocity": 0.54,
        "hand": "right"
      },
      {
        "midi": 64,
        "time": 182.25,
        "duration": 2.063,
        "velocity": 0.71,
        "hand": "right"
      },
      {
        "midi": 73,
        "time": 182.25,
        "duration": 0.938,
        "velocity": 0.54,
        "hand": "right"
      },
      {
        "midi": 67,
        "time": 182.813,
        "duration": 0.563,
        "velocity": 0.71,
        "hand": "right"
      },
      {
        "midi": 69,
        "time": 182.813,
        "duration": 0.563,
        "velocity": 0.71,
        "hand": "right"
      },
      {
        "midi": 67,
        "time": 183.188,
        "duration": 0.563,
        "velocity": 0.71,
        "hand": "right"
      },
      {
        "midi": 69,
        "time": 183.188,
        "duration": 0.563,
        "velocity": 0.71,
        "hand": "right"
      },
      {
        "midi": 67,
        "time": 183.75,
        "duration": 0.563,
        "velocity": 0.71,
        "hand": "right"
      },
      {
        "midi": 69,
        "time": 183.75,
        "duration": 0.563,
        "velocity": 0.71,
        "hand": "right"
      },
      {
        "midi": 74,
        "time": 183.938,
        "duration": 0.188,
        "velocity": 0.54,
        "hand": "right"
      },
      {
        "midi": 64,
        "time": 184.313,
        "duration": 2.063,
        "velocity": 0.71,
        "hand": "right"
      },
      {
        "midi": 75,
        "time": 184.313,
        "duration": 0.563,
        "velocity": 0.54,
        "hand": "right"
      },
      {
        "midi": 67,
        "time": 184.688,
        "duration": 0.563,
        "velocity": 0.71,
        "hand": "right"
      },
      {
        "midi": 69,
        "time": 184.688,
        "duration": 0.563,
        "velocity": 0.71,
        "hand": "right"
      },
      {
        "midi": 76,
        "time": 184.688,
        "duration": 0.563,
        "velocity": 0.54,
        "hand": "right"
      },
      {
        "midi": 67,
        "time": 185.25,
        "duration": 0.563,
        "velocity": 0.71,
        "hand": "right"
      },
      {
        "midi": 69,
        "time": 185.25,
        "duration": 0.563,
        "velocity": 0.71,
        "hand": "right"
      },
      {
        "midi": 67,
        "time": 185.813,
        "duration": 0.563,
        "velocity": 0.71,
        "hand": "right"
      },
      {
        "midi": 69,
        "time": 185.813,
        "duration": 0.563,
        "velocity": 0.71,
        "hand": "right"
      },
      {
        "midi": 61,
        "time": 186.188,
        "duration": 2.063,
        "velocity": 0.71,
        "hand": "right"
      },
      {
        "midi": 79,
        "time": 186.188,
        "duration": 1.688,
        "velocity": 0.54,
        "hand": "right"
      },
      {
        "midi": 64,
        "time": 186.75,
        "duration": 0.563,
        "velocity": 0.71,
        "hand": "right"
      },
      {
        "midi": 69,
        "time": 186.75,
        "duration": 0.563,
        "velocity": 0.71,
        "hand": "right"
      },
      {
        "midi": 64,
        "time": 187.313,
        "duration": 0.563,
        "velocity": 0.71,
        "hand": "right"
      },
      {
        "midi": 69,
        "time": 187.313,
        "duration": 0.563,
        "velocity": 0.71,
        "hand": "right"
      },
      {
        "midi": 64,
        "time": 187.688,
        "duration": 0.563,
        "velocity": 0.71,
        "hand": "right"
      },
      {
        "midi": 69,
        "time": 187.688,
        "duration": 0.563,
        "velocity": 0.71,
        "hand": "right"
      },
      {
        "midi": 78,
        "time": 188.063,
        "duration": 0.188,
        "velocity": 0.54,
        "hand": "right"
      },
      {
        "midi": 79,
        "time": 188.063,
        "duration": 0.188,
        "velocity": 0.54,
        "hand": "right"
      },
      {
        "midi": 61,
        "time": 188.25,
        "duration": 2.063,
        "velocity": 0.71,
        "hand": "right"
      },
      {
        "midi": 81,
        "time": 188.25,
        "duration": 0.563,
        "velocity": 0.54,
        "hand": "right"
      },
      {
        "midi": 64,
        "time": 188.813,
        "duration": 0.563,
        "velocity": 0.71,
        "hand": "right"
      },
      {
        "midi": 69,
        "time": 188.813,
        "duration": 0.563,
        "velocity": 0.71,
        "hand": "right"
      },
      {
        "midi": 79,
        "time": 188.813,
        "duration": 0.563,
        "velocity": 0.54,
        "hand": "right"
      },
      {
        "midi": 64,
        "time": 189.188,
        "duration": 0.563,
        "velocity": 0.71,
        "hand": "right"
      },
      {
        "midi": 69,
        "time": 189.188,
        "duration": 0.563,
        "velocity": 0.71,
        "hand": "right"
      },
      {
        "midi": 77,
        "time": 189.188,
        "duration": 0.563,
        "velocity": 0.54,
        "hand": "right"
      },
      {
        "midi": 64,
        "time": 189.75,
        "duration": 0.563,
        "velocity": 0.71,
        "hand": "right"
      },
      {
        "midi": 69,
        "time": 189.75,
        "duration": 0.563,
        "velocity": 0.71,
        "hand": "right"
      },
      {
        "midi": 76,
        "time": 189.75,
        "duration": 0.563,
        "velocity": 0.54,
        "hand": "right"
      },
      {
        "midi": 62,
        "time": 190.313,
        "duration": 2.063,
        "velocity": 0.71,
        "hand": "right"
      },
      {
        "midi": 74,
        "time": 190.313,
        "duration": 0.938,
        "velocity": 0.54,
        "hand": "right"
      },
      {
        "midi": 65,
        "time": 190.688,
        "duration": 0.563,
        "velocity": 0.71,
        "hand": "right"
      },
      {
        "midi": 69,
        "time": 190.688,
        "duration": 0.563,
        "velocity": 0.71,
        "hand": "right"
      },
      {
        "midi": 65,
        "time": 191.25,
        "duration": 0.563,
        "velocity": 0.71,
        "hand": "right"
      },
      {
        "midi": 69,
        "time": 191.25,
        "duration": 0.563,
        "velocity": 0.71,
        "hand": "right"
      },
      {
        "midi": 65,
        "time": 191.813,
        "duration": 0.563,
        "velocity": 0.71,
        "hand": "right"
      },
      {
        "midi": 69,
        "time": 191.813,
        "duration": 0.563,
        "velocity": 0.71,
        "hand": "right"
      },
      {
        "midi": 76,
        "time": 192,
        "duration": 0.188,
        "velocity": 0.54,
        "hand": "right"
      },
      {
        "midi": 62,
        "time": 192.188,
        "duration": 2.063,
        "velocity": 0.71,
        "hand": "right"
      },
      {
        "midi": 79,
        "time": 192.188,
        "duration": 0.563,
        "velocity": 0.54,
        "hand": "right"
      },
      {
        "midi": 65,
        "time": 192.75,
        "duration": 0.563,
        "velocity": 0.71,
        "hand": "right"
      },
      {
        "midi": 69,
        "time": 192.75,
        "duration": 0.563,
        "velocity": 0.71,
        "hand": "right"
      },
      {
        "midi": 77,
        "time": 192.75,
        "duration": 0.563,
        "velocity": 0.54,
        "hand": "right"
      },
      {
        "midi": 65,
        "time": 193.313,
        "duration": 0.563,
        "velocity": 0.71,
        "hand": "right"
      },
      {
        "midi": 69,
        "time": 193.313,
        "duration": 0.563,
        "velocity": 0.71,
        "hand": "right"
      },
      {
        "midi": 65,
        "time": 193.688,
        "duration": 0.563,
        "velocity": 0.71,
        "hand": "right"
      },
      {
        "midi": 69,
        "time": 193.688,
        "duration": 0.563,
        "velocity": 0.71,
        "hand": "right"
      },
      {
        "midi": 69,
        "time": 194.25,
        "duration": 2.063,
        "velocity": 0.75,
        "hand": "right"
      },
      {
        "midi": 81,
        "time": 194.25,
        "duration": 2.063,
        "velocity": 0.75,
        "hand": "right"
      },
      {
        "midi": 53,
        "time": 195.188,
        "duration": 0.938,
        "velocity": 0.71,
        "hand": "left"
      },
      {
        "midi": 57,
        "time": 195.188,
        "duration": 0.938,
        "velocity": 0.71,
        "hand": "left"
      },
      {
        "midi": 62,
        "time": 195.188,
        "duration": 0.938,
        "velocity": 0.71,
        "hand": "right"
      },
      {
        "midi": 52,
        "time": 196.313,
        "duration": 0.563,
        "velocity": 0.71,
        "hand": "left"
      },
      {
        "midi": 61,
        "time": 196.313,
        "duration": 0.563,
        "velocity": 0.71,
        "hand": "right"
      },
      {
        "midi": 82,
        "time": 196.313,
        "duration": 0.563,
        "velocity": 0.75,
        "hand": "right"
      },
      {
        "midi": 81,
        "time": 198.188,
        "duration": 0.75,
        "velocity": 0.54,
        "hand": "right"
      },
      {
        "midi": 86,
        "time": 198.938,
        "duration": 0.188,
        "velocity": 0.54,
        "hand": "right"
      },
      {
        "midi": 65,
        "time": 199.313,
        "duration": 0.938,
        "velocity": 0.71,
        "hand": "right"
      },
      {
        "midi": 74,
        "time": 199.313,
        "duration": 0.938,
        "velocity": 0.71,
        "hand": "right"
      },
      {
        "midi": 85,
        "time": 199.313,
        "duration": 0.375,
        "velocity": 0.54,
        "hand": "right"
      },
      {
        "midi": 84,
        "time": 199.5,
        "duration": 0.375,
        "velocity": 0.54,
        "hand": "right"
      },
      {
        "midi": 83,
        "time": 199.875,
        "duration": 0.375,
        "velocity": 0.54,
        "hand": "right"
      },
      {
        "midi": 67,
        "time": 200.25,
        "duration": 0.938,
        "velocity": 0.71,
        "hand": "right"
      },
      {
        "midi": 73,
        "time": 200.25,
        "duration": 0.938,
        "velocity": 0.71,
        "hand": "right"
      },
      {
        "midi": 82,
        "time": 200.25,
        "duration": 0.938,
        "velocity": 0.54,
        "hand": "right"
      },
      {
        "midi": 65,
        "time": 201.938,
        "duration": 0.188,
        "velocity": 0.71,
        "hand": "right"
      },
      {
        "midi": 74,
        "time": 201.938,
        "duration": 0.188,
        "velocity": 0.71,
        "hand": "right"
      },
      {
        "midi": 81,
        "time": 201.938,
        "duration": 0.188,
        "velocity": 0.54,
        "hand": "right"
      },
      {
        "midi": 64,
        "time": 202.313,
        "duration": 0.938,
        "velocity": 0.71,
        "hand": "right"
      },
      {
        "midi": 74,
        "time": 202.313,
        "duration": 0.938,
        "velocity": 0.71,
        "hand": "right"
      },
      {
        "midi": 81,
        "time": 202.313,
        "duration": 0.563,
        "velocity": 0.54,
        "hand": "right"
      },
      {
        "midi": 80,
        "time": 202.688,
        "duration": 0.563,
        "velocity": 0.54,
        "hand": "right"
      },
      {
        "midi": 80,
        "time": 204,
        "duration": 0.188,
        "velocity": 0.54,
        "hand": "right"
      },
      {
        "midi": 69,
        "time": 204.188,
        "duration": 0.938,
        "velocity": 0.71,
        "hand": "right"
      },
      {
        "midi": 73,
        "time": 204.188,
        "duration": 0.938,
        "velocity": 0.71,
        "hand": "right"
      },
      {
        "midi": 88,
        "time": 204.188,
        "duration": 0.563,
        "velocity": 0.54,
        "hand": "right"
      },
      {
        "midi": 79,
        "time": 204.75,
        "duration": 0.563,
        "velocity": 0.54,
        "hand": "right"
      },
      {
        "midi": 79,
        "time": 206.063,
        "duration": 0.188,
        "velocity": 0.54,
        "hand": "right"
      },
      {
        "midi": 70,
        "time": 206.25,
        "duration": 0.938,
        "velocity": 0.71,
        "hand": "right"
      },
      {
        "midi": 74,
        "time": 206.25,
        "duration": 0.938,
        "velocity": 0.71,
        "hand": "right"
      },
      {
        "midi": 76,
        "time": 206.25,
        "duration": 0.563,
        "velocity": 0.54,
        "hand": "right"
      },
      {
        "midi": 77,
        "time": 206.813,
        "duration": 0.563,
        "velocity": 0.54,
        "hand": "right"
      },
      {
        "midi": 77,
        "time": 207.938,
        "duration": 0.188,
        "velocity": 0.54,
        "hand": "right"
      },
      {
        "midi": 55,
        "time": 208.313,
        "duration": 3,
        "velocity": 0.71,
        "hand": "left"
      },
      {
        "midi": 63,
        "time": 208.313,
        "duration": 3,
        "velocity": 0.71,
        "hand": "right"
      },
      {
        "midi": 75,
        "time": 208.313,
        "duration": 1.688,
        "velocity": 0.75,
        "hand": "right"
      },
      {
        "midi": 75,
        "time": 209.813,
        "duration": 0.188,
        "velocity": 0.75,
        "hand": "right"
      },
      {
        "midi": 77,
        "time": 209.813,
        "duration": 0.188,
        "velocity": 0.75,
        "hand": "right"
      },
      {
        "midi": 74,
        "time": 210,
        "duration": 0.188,
        "velocity": 0.75,
        "hand": "right"
      },
      {
        "midi": 75,
        "time": 210,
        "duration": 0.188,
        "velocity": 0.75,
        "hand": "right"
      },
      {
        "midi": 77,
        "time": 210,
        "duration": 0.188,
        "velocity": 0.54,
        "hand": "right"
      },
      {
        "midi": 79,
        "time": 210.188,
        "duration": 0.563,
        "velocity": 0.54,
        "hand": "right"
      },
      {
        "midi": 78,
        "time": 210.938,
        "duration": 0.188,
        "velocity": 0.54,
        "hand": "right"
      },
      {
        "midi": 81,
        "time": 210.938,
        "duration": 0.188,
        "velocity": 0.54,
        "hand": "right"
      },
      {
        "midi": 82,
        "time": 211.313,
        "duration": 0.563,
        "velocity": 0.54,
        "hand": "right"
      },
      {
        "midi": 44,
        "time": 212.25,
        "duration": 0.188,
        "velocity": 0.75,
        "hand": "left"
      },
      {
        "midi": 47,
        "time": 212.438,
        "duration": 0.188,
        "velocity": 0.75,
        "hand": "left"
      },
      {
        "midi": 50,
        "time": 212.438,
        "duration": 0.188,
        "velocity": 0.75,
        "hand": "left"
      },
      {
        "midi": 53,
        "time": 212.625,
        "duration": 0.188,
        "velocity": 0.75,
        "hand": "left"
      },
      {
        "midi": 56,
        "time": 212.813,
        "duration": 0.188,
        "velocity": 0.54,
        "hand": "left"
      },
      {
        "midi": 59,
        "time": 212.813,
        "duration": 0.188,
        "velocity": 0.54,
        "hand": "left"
      },
      {
        "midi": 62,
        "time": 213,
        "duration": 0.188,
        "velocity": 0.54,
        "hand": "right"
      },
      {
        "midi": 65,
        "time": 213.188,
        "duration": 0.188,
        "velocity": 0.54,
        "hand": "right"
      },
      {
        "midi": 68,
        "time": 213.188,
        "duration": 0.188,
        "velocity": 0.75,
        "hand": "right"
      },
      {
        "midi": 71,
        "time": 213.375,
        "duration": 0.188,
        "velocity": 0.75,
        "hand": "right"
      },
      {
        "midi": 74,
        "time": 213.563,
        "duration": 0.188,
        "velocity": 0.75,
        "hand": "right"
      },
      {
        "midi": 77,
        "time": 213.563,
        "duration": 0.188,
        "velocity": 0.75,
        "hand": "right"
      },
      {
        "midi": 80,
        "time": 213.75,
        "duration": 0.188,
        "velocity": 0.54,
        "hand": "right"
      },
      {
        "midi": 83,
        "time": 213.938,
        "duration": 0.188,
        "velocity": 0.54,
        "hand": "right"
      },
      {
        "midi": 86,
        "time": 213.938,
        "duration": 0.188,
        "velocity": 0.54,
        "hand": "right"
      },
      {
        "midi": 89,
        "time": 214.125,
        "duration": 0.188,
        "velocity": 0.54,
        "hand": "right"
      },
      {
        "midi": 57,
        "time": 214.5,
        "duration": 0.563,
        "velocity": 0.75,
        "hand": "left"
      },
      {
        "midi": 69,
        "time": 214.5,
        "duration": 0.563,
        "velocity": 0.54,
        "hand": "right"
      },
      {
        "midi": 81,
        "time": 214.5,
        "duration": 0.563,
        "velocity": 0.54,
        "hand": "right"
      },
      {
        "midi": 33,
        "time": 216.563,
        "duration": 0.563,
        "velocity": 0.75,
        "hand": "left"
      },
      {
        "midi": 52,
        "time": 216.563,
        "duration": 0.563,
        "velocity": 0.54,
        "hand": "left"
      },
      {
        "midi": 61,
        "time": 216.563,
        "duration": 0.563,
        "velocity": 0.54,
        "hand": "right"
      },
      {
        "midi": 62,
        "time": 218.438,
        "duration": 0.938,
        "velocity": 0.75,
        "hand": "right"
      },
      {
        "midi": 66,
        "time": 218.438,
        "duration": 0.938,
        "velocity": 0.75,
        "hand": "right"
      },
      {
        "midi": 69,
        "time": 218.438,
        "duration": 0.563,
        "velocity": 0.54,
        "hand": "right"
      },
      {
        "midi": 78,
        "time": 219,
        "duration": 0.188,
        "velocity": 0.54,
        "hand": "right"
      },
      {
        "midi": 74,
        "time": 219.188,
        "duration": 0.188,
        "velocity": 0.54,
        "hand": "right"
      },
      {
        "midi": 62,
        "time": 219.563,
        "duration": 2.063,
        "velocity": 0.75,
        "hand": "right"
      },
      {
        "midi": 67,
        "time": 219.563,
        "duration": 2.063,
        "velocity": 0.75,
        "hand": "right"
      },
      {
        "midi": 73,
        "time": 219.563,
        "duration": 0.563,
        "velocity": 0.54,
        "hand": "right"
      },
      {
        "midi": 71,
        "time": 219.938,
        "duration": 0.188,
        "velocity": 0.54,
        "hand": "right"
      },
      {
        "midi": 76,
        "time": 220.313,
        "duration": 0.188,
        "velocity": 0.54,
        "hand": "right"
      },
      {
        "midi": 79,
        "time": 220.313,
        "duration": 0.188,
        "velocity": 0.54,
        "hand": "right"
      },
      {
        "midi": 64,
        "time": 220.5,
        "duration": 0.938,
        "velocity": 0.75,
        "hand": "right"
      },
      {
        "midi": 74,
        "time": 220.5,
        "duration": 0.188,
        "velocity": 0.71,
        "hand": "right"
      },
      {
        "midi": 73,
        "time": 220.688,
        "duration": 0.75,
        "velocity": 0.71,
        "hand": "right"
      },
      {
        "midi": 83,
        "time": 221.063,
        "duration": 0.188,
        "velocity": 0.71,
        "hand": "right"
      },
      {
        "midi": 81,
        "time": 221.25,
        "duration": 0.188,
        "velocity": 0.71,
        "hand": "right"
      },
      {
        "midi": 62,
        "time": 221.438,
        "duration": 0.563,
        "velocity": 0.75,
        "hand": "right"
      },
      {
        "midi": 74,
        "time": 221.438,
        "duration": 0.563,
        "velocity": 0.71,
        "hand": "right"
      },
      {
        "midi": 81,
        "time": 221.438,
        "duration": 0.375,
        "velocity": 0.71,
        "hand": "right"
      },
      {
        "midi": 83,
        "time": 221.813,
        "duration": 0.188,
        "velocity": 0.71,
        "hand": "right"
      },
      {
        "midi": 78,
        "time": 222,
        "duration": 0.188,
        "velocity": 0.71,
        "hand": "right"
      },
      {
        "midi": 79,
        "time": 222,
        "duration": 0.188,
        "velocity": 0.71,
        "hand": "right"
      },
      {
        "midi": 81,
        "time": 222.188,
        "duration": 0.188,
        "velocity": 0.71,
        "hand": "right"
      },
      {
        "midi": 78,
        "time": 222.375,
        "duration": 0.188,
        "velocity": 0.71,
        "hand": "right"
      },
      {
        "midi": 68,
        "time": 222.563,
        "duration": 0.188,
        "velocity": 0.75,
        "hand": "right"
      },
      {
        "midi": 74,
        "time": 222.563,
        "duration": 0.188,
        "velocity": 0.75,
        "hand": "right"
      },
      {
        "midi": 76,
        "time": 222.563,
        "duration": 0.188,
        "velocity": 0.54,
        "hand": "right"
      },
      {
        "midi": 68,
        "time": 222.75,
        "duration": 0.188,
        "velocity": 0.75,
        "hand": "right"
      },
      {
        "midi": 74,
        "time": 222.75,
        "duration": 0.188,
        "velocity": 0.75,
        "hand": "right"
      },
      {
        "midi": 76,
        "time": 222.75,
        "duration": 0.188,
        "velocity": 0.54,
        "hand": "right"
      },
      {
        "midi": 68,
        "time": 222.938,
        "duration": 0.188,
        "velocity": 0.75,
        "hand": "right"
      },
      {
        "midi": 74,
        "time": 222.938,
        "duration": 0.188,
        "velocity": 0.75,
        "hand": "right"
      },
      {
        "midi": 76,
        "time": 222.938,
        "duration": 0.188,
        "velocity": 0.54,
        "hand": "right"
      },
      {
        "midi": 68,
        "time": 223.313,
        "duration": 0.188,
        "velocity": 0.75,
        "hand": "right"
      },
      {
        "midi": 74,
        "time": 223.313,
        "duration": 0.188,
        "velocity": 0.75,
        "hand": "right"
      },
      {
        "midi": 76,
        "time": 223.313,
        "duration": 0.188,
        "velocity": 0.54,
        "hand": "right"
      },
      {
        "midi": 69,
        "time": 223.5,
        "duration": 0.188,
        "velocity": 0.75,
        "hand": "right"
      },
      {
        "midi": 73,
        "time": 223.5,
        "duration": 0.188,
        "velocity": 0.75,
        "hand": "right"
      },
      {
        "midi": 76,
        "time": 223.5,
        "duration": 0.188,
        "velocity": 0.54,
        "hand": "right"
      },
      {
        "midi": 81,
        "time": 223.688,
        "duration": 0.188,
        "velocity": 0.54,
        "hand": "right"
      },
      {
        "midi": 62,
        "time": 224.063,
        "duration": 0.188,
        "velocity": 0.75,
        "hand": "right"
      },
      {
        "midi": 66,
        "time": 224.063,
        "duration": 0.188,
        "velocity": 0.75,
        "hand": "right"
      },
      {
        "midi": 71,
        "time": 224.063,
        "duration": 0.188,
        "velocity": 0.54,
        "hand": "right"
      },
      {
        "midi": 78,
        "time": 224.25,
        "duration": 0.188,
        "velocity": 0.54,
        "hand": "right"
      },
      {
        "midi": 52,
        "time": 224.438,
        "duration": 0.938,
        "velocity": 0.71,
        "hand": "left"
      },
      {
        "midi": 61,
        "time": 224.438,
        "duration": 0.563,
        "velocity": 0.71,
        "hand": "right"
      },
      {
        "midi": 69,
        "time": 224.438,
        "duration": 0.563,
        "velocity": 0.54,
        "hand": "right"
      },
      {
        "midi": 62,
        "time": 225,
        "duration": 0.563,
        "velocity": 0.71,
        "hand": "right"
      },
      {
        "midi": 68,
        "time": 225,
        "duration": 0.563,
        "velocity": 0.71,
        "hand": "right"
      },
      {
        "midi": 73,
        "time": 225,
        "duration": 0.375,
        "velocity": 0.71,
        "hand": "right"
      },
      {
        "midi": 71,
        "time": 225.375,
        "duration": 0.188,
        "velocity": 0.71,
        "hand": "right"
      },
      {
        "midi": 57,
        "time": 225.563,
        "duration": 0.563,
        "velocity": 0.75,
        "hand": "left"
      },
      {
        "midi": 61,
        "time": 225.563,
        "duration": 0.563,
        "velocity": 0.75,
        "hand": "right"
      },
      {
        "midi": 69,
        "time": 225.563,
        "duration": 0.563,
        "velocity": 0.71,
        "hand": "right"
      },
      {
        "midi": 74,
        "time": 226.5,
        "duration": 0.563,
        "velocity": 0.54,
        "hand": "right"
      },
      {
        "midi": 54,
        "time": 226.688,
        "duration": 0.188,
        "velocity": 0.75,
        "hand": "left"
      },
      {
        "midi": 57,
        "time": 226.688,
        "duration": 0.188,
        "velocity": 0.75,
        "hand": "left"
      },
      {
        "midi": 52,
        "time": 227.063,
        "duration": 0.188,
        "velocity": 0.75,
        "hand": "left"
      },
      {
        "midi": 55,
        "time": 227.063,
        "duration": 0.188,
        "velocity": 0.75,
        "hand": "left"
      },
      {
        "midi": 76,
        "time": 227.063,
        "duration": 0.188,
        "velocity": 0.54,
        "hand": "right"
      },
      {
        "midi": 50,
        "time": 227.25,
        "duration": 0.188,
        "velocity": 0.75,
        "hand": "left"
      },
      {
        "midi": 54,
        "time": 227.25,
        "duration": 0.188,
        "velocity": 0.75,
        "hand": "left"
      },
      {
        "midi": 78,
        "time": 227.25,
        "duration": 0.188,
        "velocity": 0.54,
        "hand": "right"
      },
      {
        "midi": 55,
        "time": 227.438,
        "duration": 0.938,
        "velocity": 0.71,
        "hand": "left"
      },
      {
        "midi": 62,
        "time": 227.438,
        "duration": 0.188,
        "velocity": 0.71,
        "hand": "right"
      },
      {
        "midi": 71,
        "time": 227.438,
        "duration": 0.75,
        "velocity": 0.54,
        "hand": "right"
      },
      {
        "midi": 63,
        "time": 227.813,
        "duration": 0.188,
        "velocity": 0.71,
        "hand": "right"
      },
      {
        "midi": 64,
        "time": 228,
        "duration": 0.188,
        "velocity": 0.71,
        "hand": "right"
      },
      {
        "midi": 73,
        "time": 228.188,
        "duration": 0.188,
        "velocity": 0.54,
        "hand": "right"
      },
      {
        "midi": 75,
        "time": 228.375,
        "duration": 0.188,
        "velocity": 0.54,
        "hand": "right"
      },
      {
        "midi": 76,
        "time": 228.563,
        "duration": 0.188,
        "velocity": 0.54,
        "hand": "right"
      },
      {
        "midi": 78,
        "time": 228.563,
        "duration": 0.188,
        "velocity": 0.54,
        "hand": "right"
      },
      {
        "midi": 79,
        "time": 228.75,
        "duration": 0.188,
        "velocity": 0.54,
        "hand": "right"
      },
      {
        "midi": 81,
        "time": 228.938,
        "duration": 0.188,
        "velocity": 0.54,
        "hand": "right"
      },
      {
        "midi": 83,
        "time": 228.938,
        "duration": 0.188,
        "velocity": 0.54,
        "hand": "right"
      },
      {
        "midi": 56,
        "time": 229.313,
        "duration": 0.188,
        "velocity": 0.75,
        "hand": "left"
      },
      {
        "midi": 65,
        "time": 229.313,
        "duration": 0.188,
        "velocity": 0.75,
        "hand": "right"
      },
      {
        "midi": 83,
        "time": 229.313,
        "duration": 0.188,
        "velocity": 0.54,
        "hand": "right"
      },
      {
        "midi": 57,
        "time": 229.5,
        "duration": 0.75,
        "velocity": 0.71,
        "hand": "left"
      },
      {
        "midi": 66,
        "time": 229.5,
        "duration": 0.563,
        "velocity": 0.71,
        "hand": "right"
      },
      {
        "midi": 74,
        "time": 229.5,
        "duration": 0.563,
        "velocity": 0.54,
        "hand": "right"
      },
      {
        "midi": 64,
        "time": 230.063,
        "duration": 0.188,
        "velocity": 0.71,
        "hand": "right"
      },
      {
        "midi": 73,
        "time": 230.063,
        "duration": 0.188,
        "velocity": 0.54,
        "hand": "right"
      },
      {
        "midi": 81,
        "time": 230.25,
        "duration": 0.188,
        "velocity": 0.54,
        "hand": "right"
      },
      {
        "midi": 59,
        "time": 230.438,
        "duration": 0.938,
        "velocity": 0.75,
        "hand": "left"
      },
      {
        "midi": 62,
        "time": 230.438,
        "duration": 0.938,
        "velocity": 0.75,
        "hand": "right"
      },
      {
        "midi": 80,
        "time": 230.438,
        "duration": 0.188,
        "velocity": 0.54,
        "hand": "right"
      },
      {
        "midi": 86,
        "time": 230.813,
        "duration": 0.188,
        "velocity": 0.54,
        "hand": "right"
      },
      {
        "midi": 83,
        "time": 231,
        "duration": 0.188,
        "velocity": 0.54,
        "hand": "right"
      },
      {
        "midi": 80,
        "time": 231.188,
        "duration": 0.188,
        "velocity": 0.54,
        "hand": "right"
      },
      {
        "midi": 57,
        "time": 231.563,
        "duration": 0.188,
        "velocity": 0.71,
        "hand": "left"
      },
      {
        "midi": 61,
        "time": 231.563,
        "duration": 0.563,
        "velocity": 0.71,
        "hand": "right"
      },
      {
        "midi": 88,
        "time": 231.563,
        "duration": 0.188,
        "velocity": 0.54,
        "hand": "right"
      },
      {
        "midi": 58,
        "time": 231.75,
        "duration": 0.188,
        "velocity": 0.71,
        "hand": "left"
      },
      {
        "midi": 79,
        "time": 231.75,
        "duration": 0.188,
        "velocity": 0.54,
        "hand": "right"
      },
      {
        "midi": 59,
        "time": 231.938,
        "duration": 0.188,
        "velocity": 0.71,
        "hand": "left"
      },
      {
        "midi": 62,
        "time": 231.938,
        "duration": 0.375,
        "velocity": 0.71,
        "hand": "right"
      },
      {
        "midi": 78,
        "time": 231.938,
        "duration": 0.188,
        "velocity": 0.54,
        "hand": "right"
      },
      {
        "midi": 55,
        "time": 232.313,
        "duration": 0.188,
        "velocity": 0.71,
        "hand": "left"
      },
      {
        "midi": 83,
        "time": 232.313,
        "duration": 0.188,
        "velocity": 0.54,
        "hand": "right"
      },
      {
        "midi": 57,
        "time": 232.5,
        "duration": 0.938,
        "velocity": 0.71,
        "hand": "left"
      },
      {
        "midi": 67,
        "time": 232.5,
        "duration": 0.188,
        "velocity": 0.71,
        "hand": "right"
      },
      {
        "midi": 74,
        "time": 232.5,
        "duration": 0.563,
        "velocity": 0.54,
        "hand": "right"
      },
      {
        "midi": 67,
        "time": 233.063,
        "duration": 0.563,
        "velocity": 0.71,
        "hand": "right"
      },
      {
        "midi": 73,
        "time": 233.063,
        "duration": 0.563,
        "velocity": 0.71,
        "hand": "right"
      },
      {
        "midi": 78,
        "time": 233.063,
        "duration": 0.375,
        "velocity": 0.71,
        "hand": "right"
      },
      {
        "midi": 62,
        "time": 233.438,
        "duration": 0.563,
        "velocity": 0.75,
        "hand": "right"
      },
      {
        "midi": 74,
        "time": 233.438,
        "duration": 0.563,
        "velocity": 0.71,
        "hand": "right"
      },
      {
        "midi": 76,
        "time": 233.438,
        "duration": 0.188,
        "velocity": 0.71,
        "hand": "right"
      },
      {
        "midi": 62,
        "time": 234.563,
        "duration": 0.188,
        "velocity": 0.75,
        "hand": "right"
      },
      {
        "midi": 69,
        "time": 234.563,
        "duration": 0.188,
        "velocity": 0.75,
        "hand": "right"
      },
      {
        "midi": 74,
        "time": 234.563,
        "duration": 0.563,
        "velocity": 0.71,
        "hand": "right"
      },
      {
        "midi": 66,
        "time": 234.75,
        "duration": 0.188,
        "velocity": 0.75,
        "hand": "right"
      },
      {
        "midi": 66,
        "time": 234.938,
        "duration": 0.188,
        "velocity": 0.75,
        "hand": "right"
      },
      {
        "midi": 69,
        "time": 234.938,
        "duration": 0.188,
        "velocity": 0.75,
        "hand": "right"
      },
      {
        "midi": 69,
        "time": 235.125,
        "duration": 0.188,
        "velocity": 0.75,
        "hand": "right"
      },
      {
        "midi": 66,
        "time": 235.313,
        "duration": 0.188,
        "velocity": 0.75,
        "hand": "right"
      },
      {
        "midi": 69,
        "time": 235.313,
        "duration": 0.188,
        "velocity": 0.75,
        "hand": "right"
      },
      {
        "midi": 74,
        "time": 235.313,
        "duration": 0.188,
        "velocity": 0.54,
        "hand": "right"
      },
      {
        "midi": 67,
        "time": 235.5,
        "duration": 0.188,
        "velocity": 0.75,
        "hand": "right"
      },
      {
        "midi": 73,
        "time": 235.5,
        "duration": 0.188,
        "velocity": 0.54,
        "hand": "right"
      },
      {
        "midi": 69,
        "time": 235.688,
        "duration": 0.188,
        "velocity": 0.75,
        "hand": "right"
      },
      {
        "midi": 73,
        "time": 235.688,
        "duration": 0.188,
        "velocity": 0.75,
        "hand": "right"
      },
      {
        "midi": 81,
        "time": 235.688,
        "duration": 0.188,
        "velocity": 0.54,
        "hand": "right"
      },
      {
        "midi": 69,
        "time": 235.875,
        "duration": 0.188,
        "velocity": 0.75,
        "hand": "right"
      },
      {
        "midi": 67,
        "time": 236.063,
        "duration": 0.188,
        "velocity": 0.75,
        "hand": "right"
      },
      {
        "midi": 69,
        "time": 236.063,
        "duration": 0.188,
        "velocity": 0.75,
        "hand": "right"
      },
      {
        "midi": 81,
        "time": 236.063,
        "duration": 0.188,
        "velocity": 0.54,
        "hand": "right"
      },
      {
        "midi": 73,
        "time": 236.25,
        "duration": 0.188,
        "velocity": 0.75,
        "hand": "right"
      },
      {
        "midi": 81,
        "time": 236.25,
        "duration": 0.188,
        "velocity": 0.54,
        "hand": "right"
      },
      {
        "midi": 66,
        "time": 236.438,
        "duration": 0.188,
        "velocity": 0.75,
        "hand": "right"
      },
      {
        "midi": 69,
        "time": 236.438,
        "duration": 0.188,
        "velocity": 0.75,
        "hand": "right"
      },
      {
        "midi": 81,
        "time": 236.438,
        "duration": 0.375,
        "velocity": 0.54,
        "hand": "right"
      },
      {
        "midi": 69,
        "time": 236.625,
        "duration": 0.188,
        "velocity": 0.75,
        "hand": "right"
      },
      {
        "midi": 69,
        "time": 236.813,
        "duration": 0.188,
        "velocity": 0.75,
        "hand": "right"
      },
      {
        "midi": 74,
        "time": 236.813,
        "duration": 0.188,
        "velocity": 0.75,
        "hand": "right"
      },
      {
        "midi": 83,
        "time": 236.813,
        "duration": 0.188,
        "velocity": 0.54,
        "hand": "right"
      },
      {
        "midi": 66,
        "time": 237,
        "duration": 0.188,
        "velocity": 0.75,
        "hand": "right"
      },
      {
        "midi": 85,
        "time": 237,
        "duration": 0.188,
        "velocity": 0.54,
        "hand": "right"
      },
      {
        "midi": 86,
        "time": 237,
        "duration": 0.188,
        "velocity": 0.54,
        "hand": "right"
      },
      {
        "midi": 66,
        "time": 237.188,
        "duration": 0.188,
        "velocity": 0.75,
        "hand": "right"
      },
      {
        "midi": 69,
        "time": 237.188,
        "duration": 0.188,
        "velocity": 0.75,
        "hand": "right"
      },
      {
        "midi": 74,
        "time": 237.188,
        "duration": 0.188,
        "velocity": 0.54,
        "hand": "right"
      },
      {
        "midi": 69,
        "time": 237.375,
        "duration": 0.188,
        "velocity": 0.75,
        "hand": "right"
      },
      {
        "midi": 67,
        "time": 237.563,
        "duration": 0.188,
        "velocity": 0.75,
        "hand": "right"
      },
      {
        "midi": 69,
        "time": 237.563,
        "duration": 0.188,
        "velocity": 0.75,
        "hand": "right"
      },
      {
        "midi": 73,
        "time": 237.563,
        "duration": 0.188,
        "velocity": 0.54,
        "hand": "right"
      },
      {
        "midi": 73,
        "time": 237.75,
        "duration": 0.188,
        "velocity": 0.75,
        "hand": "right"
      },
      {
        "midi": 81,
        "time": 237.75,
        "duration": 0.188,
        "velocity": 0.54,
        "hand": "right"
      },
      {
        "midi": 67,
        "time": 237.938,
        "duration": 0.188,
        "velocity": 0.75,
        "hand": "right"
      },
      {
        "midi": 69,
        "time": 237.938,
        "duration": 0.188,
        "velocity": 0.75,
        "hand": "right"
      },
      {
        "midi": 81,
        "time": 237.938,
        "duration": 0.188,
        "velocity": 0.54,
        "hand": "right"
      },
      {
        "midi": 69,
        "time": 238.125,
        "duration": 0.188,
        "velocity": 0.75,
        "hand": "right"
      },
      {
        "midi": 69,
        "time": 238.313,
        "duration": 0.188,
        "velocity": 0.75,
        "hand": "right"
      },
      {
        "midi": 73,
        "time": 238.313,
        "duration": 0.188,
        "velocity": 0.75,
        "hand": "right"
      },
      {
        "midi": 81,
        "time": 238.313,
        "duration": 0.188,
        "velocity": 0.54,
        "hand": "right"
      },
      {
        "midi": 66,
        "time": 238.5,
        "duration": 0.188,
        "velocity": 0.75,
        "hand": "right"
      },
      {
        "midi": 81,
        "time": 238.5,
        "duration": 0.375,
        "velocity": 0.54,
        "hand": "right"
      },
      {
        "midi": 69,
        "time": 238.688,
        "duration": 0.188,
        "velocity": 0.75,
        "hand": "right"
      },
      {
        "midi": 74,
        "time": 238.688,
        "duration": 0.188,
        "velocity": 0.75,
        "hand": "right"
      },
      {
        "midi": 69,
        "time": 238.875,
        "duration": 0.188,
        "velocity": 0.75,
        "hand": "right"
      },
      {
        "midi": 83,
        "time": 238.875,
        "duration": 0.188,
        "velocity": 0.54,
        "hand": "right"
      },
      {
        "midi": 85,
        "time": 238.875,
        "duration": 0.188,
        "velocity": 0.54,
        "hand": "right"
      },
      {
        "midi": 66,
        "time": 239.063,
        "duration": 0.188,
        "velocity": 0.75,
        "hand": "right"
      },
      {
        "midi": 69,
        "time": 239.063,
        "duration": 0.188,
        "velocity": 0.75,
        "hand": "right"
      },
      {
        "midi": 86,
        "time": 239.063,
        "duration": 0.188,
        "velocity": 0.54,
        "hand": "right"
      },
      {
        "midi": 66,
        "time": 239.25,
        "duration": 0.188,
        "velocity": 0.75,
        "hand": "right"
      },
      {
        "midi": 74,
        "time": 239.25,
        "duration": 0.188,
        "velocity": 0.54,
        "hand": "right"
      },
      {
        "midi": 66,
        "time": 239.438,
        "duration": 0.188,
        "velocity": 0.75,
        "hand": "right"
      },
      {
        "midi": 75,
        "time": 239.438,
        "duration": 0.188,
        "velocity": 0.54,
        "hand": "right"
      },
      {
        "midi": 84,
        "time": 239.438,
        "duration": 0.188,
        "velocity": 0.54,
        "hand": "right"
      },
      {
        "midi": 69,
        "time": 239.625,
        "duration": 0.188,
        "velocity": 0.75,
        "hand": "right"
      },
      {
        "midi": 66,
        "time": 239.813,
        "duration": 0.188,
        "velocity": 0.75,
        "hand": "right"
      },
      {
        "midi": 75,
        "time": 239.813,
        "duration": 0.188,
        "velocity": 0.54,
        "hand": "right"
      },
      {
        "midi": 84,
        "time": 239.813,
        "duration": 0.188,
        "velocity": 0.54,
        "hand": "right"
      },
      {
        "midi": 66,
        "time": 240,
        "duration": 0.188,
        "velocity": 0.75,
        "hand": "right"
      },
      {
        "midi": 75,
        "time": 240,
        "duration": 0.188,
        "velocity": 0.54,
        "hand": "right"
      },
      {
        "midi": 84,
        "time": 240,
        "duration": 0.188,
        "velocity": 0.54,
        "hand": "right"
      },
      {
        "midi": 66,
        "time": 240.188,
        "duration": 0.188,
        "velocity": 0.75,
        "hand": "right"
      },
      {
        "midi": 75,
        "time": 240.188,
        "duration": 0.188,
        "velocity": 0.54,
        "hand": "right"
      },
      {
        "midi": 84,
        "time": 240.188,
        "duration": 0.188,
        "velocity": 0.54,
        "hand": "right"
      },
      {
        "midi": 69,
        "time": 240.375,
        "duration": 0.188,
        "velocity": 0.75,
        "hand": "right"
      },
      {
        "midi": 67,
        "time": 240.563,
        "duration": 0.563,
        "velocity": 0.75,
        "hand": "right"
      },
      {
        "midi": 83,
        "time": 240.563,
        "duration": 0.188,
        "velocity": 0.71,
        "hand": "right"
      },
      {
        "midi": 84,
        "time": 240.563,
        "duration": 0.188,
        "velocity": 0.71,
        "hand": "right"
      },
      {
        "midi": 82,
        "time": 240.75,
        "duration": 0.188,
        "velocity": 0.71,
        "hand": "right"
      },
      {
        "midi": 81,
        "time": 240.938,
        "duration": 0.188,
        "velocity": 0.71,
        "hand": "right"
      },
      {
        "midi": 83,
        "time": 240.938,
        "duration": 0.188,
        "velocity": 0.71,
        "hand": "right"
      },
      {
        "midi": 79,
        "time": 241.125,
        "duration": 0.188,
        "velocity": 0.71,
        "hand": "right"
      },
      {
        "midi": 76,
        "time": 241.313,
        "duration": 0.188,
        "velocity": 0.71,
        "hand": "right"
      },
      {
        "midi": 78,
        "time": 241.313,
        "duration": 0.188,
        "velocity": 0.71,
        "hand": "right"
      },
      {
        "midi": 57,
        "time": 241.5,
        "duration": 0.938,
        "velocity": 0.71,
        "hand": "left"
      },
      {
        "midi": 66,
        "time": 241.5,
        "duration": 0.563,
        "velocity": 0.71,
        "hand": "right"
      },
      {
        "midi": 74,
        "time": 241.5,
        "duration": 0.563,
        "velocity": 0.71,
        "hand": "right"
      },
      {
        "midi": 67,
        "time": 242.063,
        "duration": 0.563,
        "velocity": 0.71,
        "hand": "right"
      },
      {
        "midi": 73,
        "time": 242.063,
        "duration": 0.563,
        "velocity": 0.71,
        "hand": "right"
      },
      {
        "midi": 78,
        "time": 242.063,
        "duration": 0.375,
        "velocity": 0.71,
        "hand": "right"
      },
      {
        "midi": 62,
        "time": 242.438,
        "duration": 0.188,
        "velocity": 0.75,
        "hand": "right"
      },
      {
        "midi": 74,
        "time": 242.438,
        "duration": 0.563,
        "velocity": 0.71,
        "hand": "right"
      },
      {
        "midi": 76,
        "time": 242.438,
        "duration": 0.188,
        "velocity": 0.71,
        "hand": "right"
      },
      {
        "midi": 69,
        "time": 242.625,
        "duration": 0.188,
        "velocity": 0.75,
        "hand": "right"
      },
      {
        "midi": 66,
        "time": 242.813,
        "duration": 0.188,
        "velocity": 0.75,
        "hand": "right"
      },
      {
        "midi": 69,
        "time": 242.813,
        "duration": 0.188,
        "velocity": 0.75,
        "hand": "right"
      },
      {
        "midi": 66,
        "time": 243,
        "duration": 0.188,
        "velocity": 0.75,
        "hand": "right"
      },
      {
        "midi": 66,
        "time": 243.188,
        "duration": 0.188,
        "velocity": 0.75,
        "hand": "right"
      },
      {
        "midi": 69,
        "time": 243.188,
        "duration": 0.188,
        "velocity": 0.75,
        "hand": "right"
      },
      {
        "midi": 74,
        "time": 243.188,
        "duration": 0.188,
        "velocity": 0.54,
        "hand": "right"
      },
      {
        "midi": 69,
        "time": 243.375,
        "duration": 0.188,
        "velocity": 0.75,
        "hand": "right"
      },
      {
        "midi": 67,
        "time": 243.563,
        "duration": 0.188,
        "velocity": 0.75,
        "hand": "right"
      },
      {
        "midi": 69,
        "time": 243.563,
        "duration": 0.188,
        "velocity": 0.75,
        "hand": "right"
      },
      {
        "midi": 73,
        "time": 243.563,
        "duration": 0.188,
        "velocity": 0.54,
        "hand": "right"
      },
      {
        "midi": 73,
        "time": 243.75,
        "duration": 0.188,
        "velocity": 0.75,
        "hand": "right"
      },
      {
        "midi": 81,
        "time": 243.75,
        "duration": 0.188,
        "velocity": 0.54,
        "hand": "right"
      },
      {
        "midi": 67,
        "time": 243.938,
        "duration": 0.188,
        "velocity": 0.75,
        "hand": "right"
      },
      {
        "midi": 69,
        "time": 243.938,
        "duration": 0.188,
        "velocity": 0.75,
        "hand": "right"
      },
      {
        "midi": 81,
        "time": 243.938,
        "duration": 0.188,
        "velocity": 0.54,
        "hand": "right"
      },
      {
        "midi": 69,
        "time": 244.125,
        "duration": 0.188,
        "velocity": 0.75,
        "hand": "right"
      },
      {
        "midi": 69,
        "time": 244.313,
        "duration": 0.188,
        "velocity": 0.75,
        "hand": "right"
      },
      {
        "midi": 73,
        "time": 244.313,
        "duration": 0.188,
        "velocity": 0.75,
        "hand": "right"
      },
      {
        "midi": 81,
        "time": 244.313,
        "duration": 0.188,
        "velocity": 0.54,
        "hand": "right"
      },
      {
        "midi": 66,
        "time": 244.5,
        "duration": 0.188,
        "velocity": 0.75,
        "hand": "right"
      },
      {
        "midi": 81,
        "time": 244.5,
        "duration": 0.375,
        "velocity": 0.54,
        "hand": "right"
      },
      {
        "midi": 69,
        "time": 244.688,
        "duration": 0.188,
        "velocity": 0.75,
        "hand": "right"
      },
      {
        "midi": 74,
        "time": 244.688,
        "duration": 0.188,
        "velocity": 0.75,
        "hand": "right"
      },
      {
        "midi": 69,
        "time": 244.875,
        "duration": 0.188,
        "velocity": 0.75,
        "hand": "right"
      },
      {
        "midi": 83,
        "time": 244.875,
        "duration": 0.188,
        "velocity": 0.54,
        "hand": "right"
      },
      {
        "midi": 85,
        "time": 244.875,
        "duration": 0.188,
        "velocity": 0.54,
        "hand": "right"
      },
      {
        "midi": 66,
        "time": 245.063,
        "duration": 0.188,
        "velocity": 0.75,
        "hand": "right"
      },
      {
        "midi": 69,
        "time": 245.063,
        "duration": 0.188,
        "velocity": 0.75,
        "hand": "right"
      },
      {
        "midi": 86,
        "time": 245.063,
        "duration": 0.188,
        "velocity": 0.54,
        "hand": "right"
      },
      {
        "midi": 66,
        "time": 245.25,
        "duration": 0.188,
        "velocity": 0.75,
        "hand": "right"
      },
      {
        "midi": 74,
        "time": 245.25,
        "duration": 0.188,
        "velocity": 0.54,
        "hand": "right"
      },
      {
        "midi": 67,
        "time": 245.438,
        "duration": 0.188,
        "velocity": 0.75,
        "hand": "right"
      },
      {
        "midi": 69,
        "time": 245.438,
        "duration": 0.188,
        "velocity": 0.75,
        "hand": "right"
      },
      {
        "midi": 73,
        "time": 245.438,
        "duration": 0.188,
        "velocity": 0.54,
        "hand": "right"
      },
      {
        "midi": 69,
        "time": 245.625,
        "duration": 0.188,
        "velocity": 0.75,
        "hand": "right"
      },
      {
        "midi": 69,
        "time": 245.813,
        "duration": 0.188,
        "velocity": 0.75,
        "hand": "right"
      },
      {
        "midi": 73,
        "time": 245.813,
        "duration": 0.188,
        "velocity": 0.75,
        "hand": "right"
      },
      {
        "midi": 81,
        "time": 245.813,
        "duration": 0.188,
        "velocity": 0.54,
        "hand": "right"
      },
      {
        "midi": 67,
        "time": 246,
        "duration": 0.188,
        "velocity": 0.75,
        "hand": "right"
      },
      {
        "midi": 81,
        "time": 246,
        "duration": 0.188,
        "velocity": 0.54,
        "hand": "right"
      },
      {
        "midi": 69,
        "time": 246.188,
        "duration": 0.188,
        "velocity": 0.75,
        "hand": "right"
      },
      {
        "midi": 73,
        "time": 246.188,
        "duration": 0.188,
        "velocity": 0.75,
        "hand": "right"
      },
      {
        "midi": 81,
        "time": 246.188,
        "duration": 0.188,
        "velocity": 0.54,
        "hand": "right"
      },
      {
        "midi": 69,
        "time": 246.375,
        "duration": 0.188,
        "velocity": 0.75,
        "hand": "right"
      },
      {
        "midi": 66,
        "time": 246.563,
        "duration": 0.188,
        "velocity": 0.75,
        "hand": "right"
      },
      {
        "midi": 69,
        "time": 246.563,
        "duration": 0.188,
        "velocity": 0.75,
        "hand": "right"
      },
      {
        "midi": 81,
        "time": 246.563,
        "duration": 0.375,
        "velocity": 0.54,
        "hand": "right"
      },
      {
        "midi": 74,
        "time": 246.75,
        "duration": 0.188,
        "velocity": 0.75,
        "hand": "right"
      },
      {
        "midi": 66,
        "time": 246.938,
        "duration": 0.188,
        "velocity": 0.75,
        "hand": "right"
      },
      {
        "midi": 83,
        "time": 246.938,
        "duration": 0.188,
        "velocity": 0.54,
        "hand": "right"
      },
      {
        "midi": 86,
        "time": 246.938,
        "duration": 0.188,
        "velocity": 0.54,
        "hand": "right"
      },
      {
        "midi": 69,
        "time": 247.125,
        "duration": 0.188,
        "velocity": 0.75,
        "hand": "right"
      },
      {
        "midi": 66,
        "time": 247.313,
        "duration": 0.188,
        "velocity": 0.75,
        "hand": "right"
      },
      {
        "midi": 69,
        "time": 247.313,
        "duration": 0.188,
        "velocity": 0.75,
        "hand": "right"
      },
      {
        "midi": 74,
        "time": 247.313,
        "duration": 0.188,
        "velocity": 0.54,
        "hand": "right"
      },
      {
        "midi": 66,
        "time": 247.5,
        "duration": 0.188,
        "velocity": 0.75,
        "hand": "right"
      },
      {
        "midi": 75,
        "time": 247.5,
        "duration": 0.938,
        "velocity": 0.54,
        "hand": "right"
      },
      {
        "midi": 84,
        "time": 247.5,
        "duration": 0.938,
        "velocity": 0.54,
        "hand": "right"
      },
      {
        "midi": 66,
        "time": 247.688,
        "duration": 0.188,
        "velocity": 0.75,
        "hand": "right"
      },
      {
        "midi": 69,
        "time": 247.688,
        "duration": 0.188,
        "velocity": 0.75,
        "hand": "right"
      },
      {
        "midi": 69,
        "time": 247.875,
        "duration": 0.188,
        "velocity": 0.75,
        "hand": "right"
      },
      {
        "midi": 66,
        "time": 248.063,
        "duration": 0.188,
        "velocity": 0.75,
        "hand": "right"
      },
      {
        "midi": 69,
        "time": 248.063,
        "duration": 0.188,
        "velocity": 0.75,
        "hand": "right"
      },
      {
        "midi": 66,
        "time": 248.25,
        "duration": 0.188,
        "velocity": 0.75,
        "hand": "right"
      },
      {
        "midi": 67,
        "time": 248.438,
        "duration": 0.563,
        "velocity": 0.75,
        "hand": "right"
      },
      {
        "midi": 71,
        "time": 248.438,
        "duration": 0.563,
        "velocity": 0.54,
        "hand": "right"
      },
      {
        "midi": 76,
        "time": 248.438,
        "duration": 0.563,
        "velocity": 0.54,
        "hand": "right"
      },
      {
        "midi": 56,
        "time": 249.563,
        "duration": 0.563,
        "velocity": 0.75,
        "hand": "left"
      },
      {
        "midi": 77,
        "time": 249.563,
        "duration": 0.563,
        "velocity": 0.54,
        "hand": "right"
      },
      {
        "midi": 86,
        "time": 249.563,
        "duration": 0.563,
        "velocity": 0.54,
        "hand": "right"
      },
      {
        "midi": 45,
        "time": 250.5,
        "duration": 1.5,
        "velocity": 0.75,
        "hand": "left"
      },
      {
        "midi": 54,
        "time": 250.5,
        "duration": 1.5,
        "velocity": 0.75,
        "hand": "left"
      },
      {
        "midi": 57,
        "time": 250.5,
        "duration": 1.5,
        "velocity": 0.54,
        "hand": "left"
      },
      {
        "midi": 57,
        "time": 252,
        "duration": 0.188,
        "velocity": 0.54,
        "hand": "left"
      },
      {
        "midi": 59,
        "time": 252,
        "duration": 0.188,
        "velocity": 0.54,
        "hand": "left"
      },
      {
        "midi": 56,
        "time": 252.188,
        "duration": 0.188,
        "velocity": 0.54,
        "hand": "left"
      },
      {
        "midi": 57,
        "time": 252.188,
        "duration": 0.188,
        "velocity": 0.54,
        "hand": "left"
      },
      {
        "midi": 57,
        "time": 252.375,
        "duration": 0.188,
        "velocity": 0.54,
        "hand": "left"
      },
      {
        "midi": 59,
        "time": 252.375,
        "duration": 0.188,
        "velocity": 0.54,
        "hand": "left"
      },
      {
        "midi": 61,
        "time": 252.563,
        "duration": 0.188,
        "velocity": 0.54,
        "hand": "right"
      },
      {
        "midi": 62,
        "time": 252.563,
        "duration": 0.188,
        "velocity": 0.54,
        "hand": "right"
      },
      {
        "midi": 64,
        "time": 252.75,
        "duration": 0.188,
        "velocity": 0.54,
        "hand": "right"
      },
      {
        "midi": 66,
        "time": 252.75,
        "duration": 0.188,
        "velocity": 0.54,
        "hand": "right"
      },
      {
        "midi": 67,
        "time": 252.938,
        "duration": 0.188,
        "velocity": 0.54,
        "hand": "right"
      },
      {
        "midi": 69,
        "time": 252.938,
        "duration": 0.188,
        "velocity": 0.54,
        "hand": "right"
      },
      {
        "midi": 71,
        "time": 253.125,
        "duration": 0.188,
        "velocity": 0.54,
        "hand": "right"
      },
      {
        "midi": 73,
        "time": 253.125,
        "duration": 0.188,
        "velocity": 0.54,
        "hand": "right"
      },
      {
        "midi": 74,
        "time": 253.313,
        "duration": 0.188,
        "velocity": 0.54,
        "hand": "right"
      },
      {
        "midi": 76,
        "time": 253.313,
        "duration": 0.188,
        "velocity": 0.54,
        "hand": "right"
      },
      {
        "midi": 78,
        "time": 253.5,
        "duration": 0.188,
        "velocity": 0.54,
        "hand": "right"
      },
      {
        "midi": 79,
        "time": 253.5,
        "duration": 0.188,
        "velocity": 0.54,
        "hand": "right"
      },
      {
        "midi": 81,
        "time": 253.688,
        "duration": 0.188,
        "velocity": 0.54,
        "hand": "right"
      },
      {
        "midi": 83,
        "time": 253.688,
        "duration": 0.188,
        "velocity": 0.54,
        "hand": "right"
      },
      {
        "midi": 85,
        "time": 253.875,
        "duration": 0.188,
        "velocity": 0.54,
        "hand": "right"
      },
      {
        "midi": 86,
        "time": 253.875,
        "duration": 0.188,
        "velocity": 0.54,
        "hand": "right"
      },
      {
        "midi": 85,
        "time": 254.063,
        "duration": 0.188,
        "velocity": 0.54,
        "hand": "right"
      },
      {
        "midi": 88,
        "time": 254.063,
        "duration": 0.188,
        "velocity": 0.54,
        "hand": "right"
      },
      {
        "midi": 85,
        "time": 254.25,
        "duration": 0.188,
        "velocity": 0.54,
        "hand": "right"
      },
      {
        "midi": 86,
        "time": 254.25,
        "duration": 0.188,
        "velocity": 0.54,
        "hand": "right"
      },
      {
        "midi": 81,
        "time": 254.438,
        "duration": 0.188,
        "velocity": 0.54,
        "hand": "right"
      },
      {
        "midi": 83,
        "time": 254.438,
        "duration": 0.188,
        "velocity": 0.54,
        "hand": "right"
      },
      {
        "midi": 83,
        "time": 254.625,
        "duration": 0.188,
        "velocity": 0.54,
        "hand": "right"
      },
      {
        "midi": 85,
        "time": 254.625,
        "duration": 0.188,
        "velocity": 0.54,
        "hand": "right"
      },
      {
        "midi": 79,
        "time": 254.813,
        "duration": 0.188,
        "velocity": 0.54,
        "hand": "right"
      },
      {
        "midi": 81,
        "time": 254.813,
        "duration": 0.188,
        "velocity": 0.54,
        "hand": "right"
      },
      {
        "midi": 78,
        "time": 255,
        "duration": 0.188,
        "velocity": 0.54,
        "hand": "right"
      },
      {
        "midi": 81,
        "time": 255,
        "duration": 0.188,
        "velocity": 0.54,
        "hand": "right"
      },
      {
        "midi": 78,
        "time": 255.188,
        "duration": 0.188,
        "velocity": 0.54,
        "hand": "right"
      },
      {
        "midi": 79,
        "time": 255.188,
        "duration": 0.188,
        "velocity": 0.54,
        "hand": "right"
      },
      {
        "midi": 75,
        "time": 255.375,
        "duration": 0.188,
        "velocity": 0.54,
        "hand": "right"
      },
      {
        "midi": 76,
        "time": 255.375,
        "duration": 0.188,
        "velocity": 0.54,
        "hand": "right"
      },
      {
        "midi": 76,
        "time": 255.563,
        "duration": 0.188,
        "velocity": 0.54,
        "hand": "right"
      },
      {
        "midi": 78,
        "time": 255.563,
        "duration": 0.188,
        "velocity": 0.54,
        "hand": "right"
      },
      {
        "midi": 76,
        "time": 255.75,
        "duration": 0.188,
        "velocity": 0.54,
        "hand": "right"
      },
      {
        "midi": 79,
        "time": 255.75,
        "duration": 0.188,
        "velocity": 0.54,
        "hand": "right"
      },
      {
        "midi": 76,
        "time": 255.938,
        "duration": 3.188,
        "velocity": 0.54,
        "hand": "right"
      },
      {
        "midi": 57,
        "time": 258.938,
        "duration": 1.688,
        "velocity": 0.75,
        "hand": "left"
      },
      {
        "midi": 61,
        "time": 258.938,
        "duration": 1.688,
        "velocity": 0.75,
        "hand": "right"
      },
      {
        "midi": 67,
        "time": 258.938,
        "duration": 1.688,
        "velocity": 0.75,
        "hand": "right"
      },
      {
        "midi": 75,
        "time": 259.125,
        "duration": 0.188,
        "velocity": 0.54,
        "hand": "right"
      },
      {
        "midi": 76,
        "time": 259.313,
        "duration": 0.188,
        "velocity": 0.54,
        "hand": "right"
      },
      {
        "midi": 78,
        "time": 259.313,
        "duration": 0.188,
        "velocity": 0.54,
        "hand": "right"
      },
      {
        "midi": 76,
        "time": 259.5,
        "duration": 0.188,
        "velocity": 0.54,
        "hand": "right"
      },
      {
        "midi": 79,
        "time": 259.5,
        "duration": 0.188,
        "velocity": 0.54,
        "hand": "right"
      },
      {
        "midi": 78,
        "time": 259.688,
        "duration": 0.188,
        "velocity": 0.54,
        "hand": "right"
      },
      {
        "midi": 81,
        "time": 259.688,
        "duration": 0.188,
        "velocity": 0.54,
        "hand": "right"
      },
      {
        "midi": 79,
        "time": 259.875,
        "duration": 0.188,
        "velocity": 0.54,
        "hand": "right"
      },
      {
        "midi": 76,
        "time": 260.063,
        "duration": 0.188,
        "velocity": 0.54,
        "hand": "right"
      },
      {
        "midi": 78,
        "time": 260.063,
        "duration": 0.188,
        "velocity": 0.54,
        "hand": "right"
      },
      {
        "midi": 79,
        "time": 260.25,
        "duration": 0.188,
        "velocity": 0.54,
        "hand": "right"
      },
      {
        "midi": 76,
        "time": 260.438,
        "duration": 0.188,
        "velocity": 0.54,
        "hand": "right"
      },
      {
        "midi": 78,
        "time": 260.438,
        "duration": 0.188,
        "velocity": 0.54,
        "hand": "right"
      },
      {
        "midi": 74,
        "time": 260.625,
        "duration": 0.188,
        "velocity": 0.54,
        "hand": "right"
      },
      {
        "midi": 78,
        "time": 260.813,
        "duration": 0.188,
        "velocity": 0.54,
        "hand": "right"
      },
      {
        "midi": 76,
        "time": 261,
        "duration": 0.188,
        "velocity": 0.54,
        "hand": "right"
      },
      {
        "midi": 74,
        "time": 261.188,
        "duration": 0.188,
        "velocity": 0.54,
        "hand": "right"
      },
      {
        "midi": 73,
        "time": 261.563,
        "duration": 0.188,
        "velocity": 0.54,
        "hand": "right"
      },
      {
        "midi": 76,
        "time": 261.75,
        "duration": 0.188,
        "velocity": 0.54,
        "hand": "right"
      },
      {
        "midi": 74,
        "time": 261.938,
        "duration": 0.188,
        "velocity": 0.54,
        "hand": "right"
      },
      {
        "midi": 73,
        "time": 262.313,
        "duration": 0.188,
        "velocity": 0.54,
        "hand": "right"
      },
      {
        "midi": 71,
        "time": 262.5,
        "duration": 0.188,
        "velocity": 0.54,
        "hand": "right"
      },
      {
        "midi": 62,
        "time": 262.688,
        "duration": 0.938,
        "velocity": 0.75,
        "hand": "right"
      },
      {
        "midi": 66,
        "time": 262.688,
        "duration": 0.938,
        "velocity": 0.75,
        "hand": "right"
      },
      {
        "midi": 69,
        "time": 262.688,
        "duration": 0.563,
        "velocity": 0.54,
        "hand": "right"
      },
      {
        "midi": 78,
        "time": 263.25,
        "duration": 0.188,
        "velocity": 0.54,
        "hand": "right"
      },
      {
        "midi": 74,
        "time": 263.438,
        "duration": 0.188,
        "velocity": 0.54,
        "hand": "right"
      },
      {
        "midi": 62,
        "time": 263.813,
        "duration": 2.063,
        "velocity": 0.75,
        "hand": "right"
      },
      {
        "midi": 67,
        "time": 263.813,
        "duration": 2.063,
        "velocity": 0.75,
        "hand": "right"
      },
      {
        "midi": 73,
        "time": 263.813,
        "duration": 0.563,
        "velocity": 0.54,
        "hand": "right"
      },
      {
        "midi": 71,
        "time": 264.188,
        "duration": 0.188,
        "velocity": 0.54,
        "hand": "right"
      },
      {
        "midi": 76,
        "time": 264.563,
        "duration": 0.188,
        "velocity": 0.54,
        "hand": "right"
      },
      {
        "midi": 79,
        "time": 264.563,
        "duration": 0.188,
        "velocity": 0.54,
        "hand": "right"
      },
      {
        "midi": 64,
        "time": 264.75,
        "duration": 0.938,
        "velocity": 0.75,
        "hand": "right"
      },
      {
        "midi": 74,
        "time": 264.75,
        "duration": 0.188,
        "velocity": 0.71,
        "hand": "right"
      },
      {
        "midi": 73,
        "time": 264.938,
        "duration": 0.75,
        "velocity": 0.71,
        "hand": "right"
      },
      {
        "midi": 83,
        "time": 265.313,
        "duration": 0.188,
        "velocity": 0.71,
        "hand": "right"
      },
      {
        "midi": 81,
        "time": 265.5,
        "duration": 0.188,
        "velocity": 0.71,
        "hand": "right"
      },
      {
        "midi": 62,
        "time": 265.688,
        "duration": 0.563,
        "velocity": 0.75,
        "hand": "right"
      },
      {
        "midi": 74,
        "time": 265.688,
        "duration": 0.563,
        "velocity": 0.71,
        "hand": "right"
      },
      {
        "midi": 81,
        "time": 265.688,
        "duration": 0.375,
        "velocity": 0.71,
        "hand": "right"
      },
      {
        "midi": 83,
        "time": 266.063,
        "duration": 0.188,
        "velocity": 0.71,
        "hand": "right"
      },
      {
        "midi": 78,
        "time": 266.25,
        "duration": 0.188,
        "velocity": 0.71,
        "hand": "right"
      },
      {
        "midi": 79,
        "time": 266.25,
        "duration": 0.188,
        "velocity": 0.71,
        "hand": "right"
      },
      {
        "midi": 81,
        "time": 266.438,
        "duration": 0.188,
        "velocity": 0.75,
        "hand": "right"
      },
      {
        "midi": 78,
        "time": 266.625,
        "duration": 0.188,
        "velocity": 0.75,
        "hand": "right"
      },
      {
        "midi": 42,
        "time": 266.813,
        "duration": 0.188,
        "velocity": 0.75,
        "hand": "left"
      },
      {
        "midi": 54,
        "time": 266.813,
        "duration": 0.188,
        "velocity": 0.75,
        "hand": "left"
      },
      {
        "midi": 86,
        "time": 266.813,
        "duration": 0.188,
        "velocity": 0.54,
        "hand": "right"
      },
      {
        "midi": 42,
        "time": 267,
        "duration": 0.188,
        "velocity": 0.75,
        "hand": "left"
      },
      {
        "midi": 74,
        "time": 267,
        "duration": 0.188,
        "velocity": 0.54,
        "hand": "right"
      },
      {
        "midi": 86,
        "time": 267,
        "duration": 0.188,
        "velocity": 0.54,
        "hand": "right"
      },
      {
        "midi": 42,
        "time": 267.188,
        "duration": 0.188,
        "velocity": 0.75,
        "hand": "left"
      },
      {
        "midi": 74,
        "time": 267.188,
        "duration": 0.188,
        "velocity": 0.54,
        "hand": "right"
      },
      {
        "midi": 86,
        "time": 267.188,
        "duration": 0.188,
        "velocity": 0.54,
        "hand": "right"
      },
      {
        "midi": 42,
        "time": 267.563,
        "duration": 0.188,
        "velocity": 0.75,
        "hand": "left"
      },
      {
        "midi": 74,
        "time": 267.563,
        "duration": 0.188,
        "velocity": 0.54,
        "hand": "right"
      },
      {
        "midi": 86,
        "time": 267.563,
        "duration": 0.188,
        "velocity": 0.54,
        "hand": "right"
      },
      {
        "midi": 43,
        "time": 267.75,
        "duration": 0.563,
        "velocity": 0.75,
        "hand": "left"
      },
      {
        "midi": 74,
        "time": 267.75,
        "duration": 0.563,
        "velocity": 0.54,
        "hand": "right"
      },
      {
        "midi": 83,
        "time": 267.75,
        "duration": 0.563,
        "velocity": 0.54,
        "hand": "right"
      },
      {
        "midi": 79,
        "time": 268.5,
        "duration": 0.188,
        "velocity": 0.54,
        "hand": "right"
      },
      {
        "midi": 57,
        "time": 268.688,
        "duration": 0.188,
        "velocity": 0.75,
        "hand": "left"
      },
      {
        "midi": 73,
        "time": 268.688,
        "duration": 0.188,
        "velocity": 0.54,
        "hand": "right"
      },
      {
        "midi": 76,
        "time": 268.688,
        "duration": 0.188,
        "velocity": 0.54,
        "hand": "right"
      },
      {
        "midi": 57,
        "time": 269.063,
        "duration": 0.188,
        "velocity": 0.75,
        "hand": "left"
      },
      {
        "midi": 67,
        "time": 269.063,
        "duration": 0.188,
        "velocity": 0.54,
        "hand": "right"
      },
      {
        "midi": 73,
        "time": 269.063,
        "duration": 0.188,
        "velocity": 0.54,
        "hand": "right"
      },
      {
        "midi": 57,
        "time": 269.25,
        "duration": 0.188,
        "velocity": 0.75,
        "hand": "left"
      },
      {
        "midi": 67,
        "time": 269.25,
        "duration": 0.188,
        "velocity": 0.54,
        "hand": "right"
      },
      {
        "midi": 73,
        "time": 269.25,
        "duration": 0.188,
        "velocity": 0.54,
        "hand": "right"
      },
      {
        "midi": 57,
        "time": 269.438,
        "duration": 0.188,
        "velocity": 0.75,
        "hand": "left"
      },
      {
        "midi": 67,
        "time": 269.438,
        "duration": 0.188,
        "velocity": 0.54,
        "hand": "right"
      },
      {
        "midi": 73,
        "time": 269.438,
        "duration": 0.188,
        "velocity": 0.54,
        "hand": "right"
      },
      {
        "midi": 59,
        "time": 269.813,
        "duration": 0.563,
        "velocity": 0.75,
        "hand": "left"
      },
      {
        "midi": 66,
        "time": 269.813,
        "duration": 0.563,
        "velocity": 0.54,
        "hand": "right"
      },
      {
        "midi": 74,
        "time": 269.813,
        "duration": 0.563,
        "velocity": 0.54,
        "hand": "right"
      },
      {
        "midi": 44,
        "time": 270.75,
        "duration": 0.563,
        "velocity": 0.75,
        "hand": "left"
      },
      {
        "midi": 74,
        "time": 270.75,
        "duration": 0.563,
        "velocity": 0.75,
        "hand": "right"
      },
      {
        "midi": 83,
        "time": 270.75,
        "duration": 0.563,
        "velocity": 0.75,
        "hand": "right"
      },
      {
        "midi": 45,
        "time": 271.688,
        "duration": 0.563,
        "velocity": 0.75,
        "hand": "left"
      },
      {
        "midi": 74,
        "time": 271.688,
        "duration": 0.563,
        "velocity": 0.75,
        "hand": "right"
      },
      {
        "midi": 81,
        "time": 271.688,
        "duration": 0.563,
        "velocity": 0.75,
        "hand": "right"
      },
      {
        "midi": 33,
        "time": 272.813,
        "duration": 0.563,
        "velocity": 0.75,
        "hand": "left"
      },
      {
        "midi": 52,
        "time": 272.813,
        "duration": 0.563,
        "velocity": 0.54,
        "hand": "left"
      },
      {
        "midi": 61,
        "time": 272.813,
        "duration": 0.563,
        "velocity": 0.54,
        "hand": "right"
      },
      {
        "midi": 50,
        "time": 273.75,
        "duration": 0.938,
        "velocity": 0.75,
        "hand": "left"
      },
      {
        "midi": 54,
        "time": 273.75,
        "duration": 0.938,
        "velocity": 0.75,
        "hand": "left"
      },
      {
        "midi": 57,
        "time": 273.75,
        "duration": 0.563,
        "velocity": 0.49,
        "hand": "left"
      },
      {
        "midi": 66,
        "time": 274.313,
        "duration": 0.188,
        "velocity": 0.49,
        "hand": "right"
      },
      {
        "midi": 62,
        "time": 274.5,
        "duration": 0.188,
        "velocity": 0.49,
        "hand": "right"
      },
      {
        "midi": 50,
        "time": 274.688,
        "duration": 2.063,
        "velocity": 0.75,
        "hand": "left"
      },
      {
        "midi": 55,
        "time": 274.688,
        "duration": 2.063,
        "velocity": 0.75,
        "hand": "left"
      },
      {
        "midi": 61,
        "time": 274.688,
        "duration": 0.563,
        "velocity": 0.49,
        "hand": "right"
      },
      {
        "midi": 59,
        "time": 275.25,
        "duration": 0.188,
        "velocity": 0.49,
        "hand": "left"
      },
      {
        "midi": 67,
        "time": 275.438,
        "duration": 0.188,
        "velocity": 0.49,
        "hand": "right"
      },
      {
        "midi": 64,
        "time": 275.625,
        "duration": 0.188,
        "velocity": 0.49,
        "hand": "right"
      },
      {
        "midi": 52,
        "time": 275.813,
        "duration": 0.938,
        "velocity": 0.75,
        "hand": "left"
      },
      {
        "midi": 62,
        "time": 275.813,
        "duration": 0.188,
        "velocity": 0.71,
        "hand": "right"
      },
      {
        "midi": 61,
        "time": 276,
        "duration": 0.75,
        "velocity": 0.71,
        "hand": "right"
      },
      {
        "midi": 71,
        "time": 276.188,
        "duration": 0.188,
        "velocity": 0.71,
        "hand": "right"
      },
      {
        "midi": 69,
        "time": 276.563,
        "duration": 0.188,
        "velocity": 0.71,
        "hand": "right"
      },
      {
        "midi": 50,
        "time": 276.75,
        "duration": 0.75,
        "velocity": 0.75,
        "hand": "left"
      },
      {
        "midi": 62,
        "time": 276.75,
        "duration": 0.75,
        "velocity": 0.71,
        "hand": "right"
      },
      {
        "midi": 69,
        "time": 276.75,
        "duration": 0.375,
        "velocity": 0.71,
        "hand": "right"
      },
      {
        "midi": 66,
        "time": 277.125,
        "duration": 0.188,
        "velocity": 0.71,
        "hand": "right"
      },
      {
        "midi": 69,
        "time": 277.313,
        "duration": 0.188,
        "velocity": 0.71,
        "hand": "right"
      },
      {
        "midi": 42,
        "time": 277.688,
        "duration": 0.938,
        "velocity": 0.75,
        "hand": "left"
      },
      {
        "midi": 50,
        "time": 277.688,
        "duration": 0.938,
        "velocity": 0.75,
        "hand": "left"
      },
      {
        "midi": 69,
        "time": 277.688,
        "duration": 0.563,
        "velocity": 0.75,
        "hand": "right"
      },
      {
        "midi": 78,
        "time": 278.25,
        "duration": 0.188,
        "velocity": 0.75,
        "hand": "right"
      },
      {
        "midi": 74,
        "time": 278.438,
        "duration": 0.188,
        "velocity": 0.75,
        "hand": "right"
      },
      {
        "midi": 43,
        "time": 278.813,
        "duration": 0.938,
        "velocity": 0.75,
        "hand": "left"
      },
      {
        "midi": 55,
        "time": 278.813,
        "duration": 0.938,
        "velocity": 0.75,
        "hand": "left"
      },
      {
        "midi": 71,
        "time": 278.813,
        "duration": 0.75,
        "velocity": 0.75,
        "hand": "right"
      },
      {
        "midi": 76,
        "time": 279.563,
        "duration": 0.188,
        "velocity": 0.75,
        "hand": "right"
      },
      {
        "midi": 79,
        "time": 279.563,
        "duration": 0.188,
        "velocity": 0.75,
        "hand": "right"
      },
      {
        "midi": 45,
        "time": 279.75,
        "duration": 0.938,
        "velocity": 0.75,
        "hand": "left"
      },
      {
        "midi": 55,
        "time": 279.75,
        "duration": 0.938,
        "velocity": 0.75,
        "hand": "left"
      },
      {
        "midi": 73,
        "time": 279.75,
        "duration": 0.188,
        "velocity": 0.75,
        "hand": "right"
      },
      {
        "midi": 74,
        "time": 279.938,
        "duration": 0.188,
        "velocity": 0.75,
        "hand": "right"
      },
      {
        "midi": 76,
        "time": 279.938,
        "duration": 0.188,
        "velocity": 0.75,
        "hand": "right"
      },
      {
        "midi": 78,
        "time": 280.125,
        "duration": 0.188,
        "velocity": 0.75,
        "hand": "right"
      },
      {
        "midi": 79,
        "time": 280.313,
        "duration": 0.188,
        "velocity": 0.75,
        "hand": "right"
      },
      {
        "midi": 81,
        "time": 280.313,
        "duration": 0.188,
        "velocity": 0.75,
        "hand": "right"
      },
      {
        "midi": 83,
        "time": 280.5,
        "duration": 0.188,
        "velocity": 0.75,
        "hand": "right"
      },
      {
        "midi": 50,
        "time": 280.688,
        "duration": 0.188,
        "velocity": 0.75,
        "hand": "left"
      },
      {
        "midi": 85,
        "time": 280.688,
        "duration": 0.188,
        "velocity": 0.75,
        "hand": "right"
      },
      {
        "midi": 86,
        "time": 280.688,
        "duration": 0.188,
        "velocity": 0.75,
        "hand": "right"
      },
      {
        "midi": 45,
        "time": 281.25,
        "duration": 0.188,
        "velocity": 0.75,
        "hand": "left"
      },
      {
        "midi": 73,
        "time": 281.25,
        "duration": 0.188,
        "velocity": 0.8,
        "hand": "right"
      },
      {
        "midi": 81,
        "time": 281.25,
        "duration": 0.188,
        "velocity": 0.8,
        "hand": "right"
      },
      {
        "midi": 50,
        "time": 281.813,
        "duration": 0.188,
        "velocity": 0.75,
        "hand": "left"
      },
      {
        "midi": 69,
        "time": 281.813,
        "duration": 0.188,
        "velocity": 0.8,
        "hand": "right"
      },
      {
        "midi": 78,
        "time": 281.813,
        "duration": 0.188,
        "velocity": 0.8,
        "hand": "right"
      },
      {
        "midi": 45,
        "time": 282.188,
        "duration": 0.188,
        "velocity": 0.75,
        "hand": "left"
      },
      {
        "midi": 67,
        "time": 282.188,
        "duration": 0.188,
        "velocity": 0.8,
        "hand": "right"
      },
      {
        "midi": 73,
        "time": 282.188,
        "duration": 0.188,
        "velocity": 0.8,
        "hand": "right"
      },
      {
        "midi": 38,
        "time": 282.75,
        "duration": 0.563,
        "velocity": 0.75,
        "hand": "left"
      },
      {
        "midi": 66,
        "time": 282.75,
        "duration": 0.563,
        "velocity": 0.8,
        "hand": "right"
      },
      {
        "midi": 74,
        "time": 282.75,
        "duration": 0.563,
        "velocity": 0.8,
        "hand": "right"
      }
    ],
    "hard": [
      {
        "midi": 38,
        "time": 0,
        "duration": 3,
        "velocity": 0.71,
        "hand": "left"
      },
      {
        "midi": 41,
        "time": 0.188,
        "duration": 0.188,
        "velocity": 0.71,
        "hand": "left"
      },
      {
        "midi": 45,
        "time": 0.563,
        "duration": 0.188,
        "velocity": 0.71,
        "hand": "left"
      },
      {
        "midi": 50,
        "time": 0.75,
        "duration": 2.25,
        "velocity": 0.71,
        "hand": "left"
      },
      {
        "midi": 53,
        "time": 0.938,
        "duration": 0.188,
        "velocity": 0.71,
        "hand": "left"
      },
      {
        "midi": 57,
        "time": 1.313,
        "duration": 0.188,
        "velocity": 0.71,
        "hand": "left"
      },
      {
        "midi": 62,
        "time": 1.5,
        "duration": 0.188,
        "velocity": 0.71,
        "hand": "right"
      },
      {
        "midi": 57,
        "time": 1.688,
        "duration": 0.188,
        "velocity": 0.71,
        "hand": "left"
      },
      {
        "midi": 65,
        "time": 2.063,
        "duration": 0.188,
        "velocity": 0.71,
        "hand": "right"
      },
      {
        "midi": 62,
        "time": 2.25,
        "duration": 0.188,
        "velocity": 0.71,
        "hand": "right"
      },
      {
        "midi": 57,
        "time": 2.438,
        "duration": 0.188,
        "velocity": 0.71,
        "hand": "left"
      },
      {
        "midi": 53,
        "time": 2.813,
        "duration": 0.188,
        "velocity": 0.71,
        "hand": "left"
      },
      {
        "midi": 38,
        "time": 3,
        "duration": 3,
        "velocity": 0.71,
        "hand": "left"
      },
      {
        "midi": 41,
        "time": 3.188,
        "duration": 0.188,
        "velocity": 0.71,
        "hand": "left"
      },
      {
        "midi": 45,
        "time": 3.563,
        "duration": 0.188,
        "velocity": 0.71,
        "hand": "left"
      },
      {
        "midi": 50,
        "time": 3.75,
        "duration": 2.25,
        "velocity": 0.71,
        "hand": "left"
      },
      {
        "midi": 53,
        "time": 3.938,
        "duration": 0.188,
        "velocity": 0.71,
        "hand": "left"
      },
      {
        "midi": 57,
        "time": 4.313,
        "duration": 0.188,
        "velocity": 0.71,
        "hand": "left"
      },
      {
        "midi": 62,
        "time": 4.5,
        "duration": 0.188,
        "velocity": 0.71,
        "hand": "right"
      },
      {
        "midi": 57,
        "time": 4.688,
        "duration": 0.188,
        "velocity": 0.71,
        "hand": "left"
      },
      {
        "midi": 65,
        "time": 5.063,
        "duration": 0.188,
        "velocity": 0.71,
        "hand": "right"
      },
      {
        "midi": 62,
        "time": 5.25,
        "duration": 0.188,
        "velocity": 0.71,
        "hand": "right"
      },
      {
        "midi": 57,
        "time": 5.438,
        "duration": 0.188,
        "velocity": 0.71,
        "hand": "left"
      },
      {
        "midi": 53,
        "time": 5.813,
        "duration": 0.188,
        "velocity": 0.71,
        "hand": "left"
      },
      {
        "midi": 38,
        "time": 6,
        "duration": 3,
        "velocity": 0.71,
        "hand": "left"
      },
      {
        "midi": 43,
        "time": 6.188,
        "duration": 0.188,
        "velocity": 0.71,
        "hand": "left"
      },
      {
        "midi": 46,
        "time": 6.563,
        "duration": 0.188,
        "velocity": 0.71,
        "hand": "left"
      },
      {
        "midi": 50,
        "time": 6.75,
        "duration": 2.25,
        "velocity": 0.71,
        "hand": "left"
      },
      {
        "midi": 55,
        "time": 6.938,
        "duration": 0.188,
        "velocity": 0.71,
        "hand": "left"
      },
      {
        "midi": 58,
        "time": 7.313,
        "duration": 0.188,
        "velocity": 0.71,
        "hand": "left"
      },
      {
        "midi": 64,
        "time": 7.5,
        "duration": 0.188,
        "velocity": 0.71,
        "hand": "right"
      },
      {
        "midi": 58,
        "time": 7.688,
        "duration": 0.188,
        "velocity": 0.71,
        "hand": "left"
      },
      {
        "midi": 67,
        "time": 8.063,
        "duration": 0.188,
        "velocity": 0.71,
        "hand": "right"
      },
      {
        "midi": 64,
        "time": 8.25,
        "duration": 0.188,
        "velocity": 0.71,
        "hand": "right"
      },
      {
        "midi": 58,
        "time": 8.438,
        "duration": 0.188,
        "velocity": 0.71,
        "hand": "left"
      },
      {
        "midi": 55,
        "time": 8.813,
        "duration": 0.188,
        "velocity": 0.71,
        "hand": "left"
      },
      {
        "midi": 38,
        "time": 9,
        "duration": 3,
        "velocity": 0.71,
        "hand": "left"
      },
      {
        "midi": 43,
        "time": 9.188,
        "duration": 0.188,
        "velocity": 0.71,
        "hand": "left"
      },
      {
        "midi": 46,
        "time": 9.563,
        "duration": 0.188,
        "velocity": 0.71,
        "hand": "left"
      },
      {
        "midi": 50,
        "time": 9.75,
        "duration": 2.25,
        "velocity": 0.71,
        "hand": "left"
      },
      {
        "midi": 55,
        "time": 9.938,
        "duration": 0.188,
        "velocity": 0.71,
        "hand": "left"
      },
      {
        "midi": 58,
        "time": 10.313,
        "duration": 0.188,
        "velocity": 0.71,
        "hand": "left"
      },
      {
        "midi": 64,
        "time": 10.5,
        "duration": 0.188,
        "velocity": 0.71,
        "hand": "right"
      },
      {
        "midi": 58,
        "time": 10.688,
        "duration": 0.188,
        "velocity": 0.71,
        "hand": "left"
      },
      {
        "midi": 67,
        "time": 11.063,
        "duration": 0.188,
        "velocity": 0.71,
        "hand": "right"
      },
      {
        "midi": 64,
        "time": 11.25,
        "duration": 0.188,
        "velocity": 0.71,
        "hand": "right"
      },
      {
        "midi": 58,
        "time": 11.438,
        "duration": 0.188,
        "velocity": 0.71,
        "hand": "left"
      },
      {
        "midi": 55,
        "time": 11.813,
        "duration": 0.188,
        "velocity": 0.71,
        "hand": "left"
      },
      {
        "midi": 36,
        "time": 12,
        "duration": 3,
        "velocity": 0.71,
        "hand": "left"
      },
      {
        "midi": 42,
        "time": 12.188,
        "duration": 0.188,
        "velocity": 0.71,
        "hand": "left"
      },
      {
        "midi": 45,
        "time": 12.563,
        "duration": 0.188,
        "velocity": 0.71,
        "hand": "left"
      },
      {
        "midi": 48,
        "time": 12.75,
        "duration": 2.25,
        "velocity": 0.71,
        "hand": "left"
      },
      {
        "midi": 57,
        "time": 12.938,
        "duration": 0.188,
        "velocity": 0.71,
        "hand": "left"
      },
      {
        "midi": 62,
        "time": 13.313,
        "duration": 0.188,
        "velocity": 0.71,
        "hand": "right"
      },
      {
        "midi": 66,
        "time": 13.5,
        "duration": 0.188,
        "velocity": 0.71,
        "hand": "right"
      },
      {
        "midi": 62,
        "time": 13.688,
        "duration": 0.188,
        "velocity": 0.71,
        "hand": "right"
      },
      {
        "midi": 69,
        "time": 14.063,
        "duration": 0.188,
        "velocity": 0.71,
        "hand": "right"
      },
      {
        "midi": 66,
        "time": 14.25,
        "duration": 0.188,
        "velocity": 0.71,
        "hand": "right"
      },
      {
        "midi": 62,
        "time": 14.438,
        "duration": 0.188,
        "velocity": 0.71,
        "hand": "right"
      },
      {
        "midi": 57,
        "time": 14.813,
        "duration": 0.188,
        "velocity": 0.71,
        "hand": "left"
      },
      {
        "midi": 36,
        "time": 15,
        "duration": 3,
        "velocity": 0.71,
        "hand": "left"
      },
      {
        "midi": 42,
        "time": 15.188,
        "duration": 0.188,
        "velocity": 0.71,
        "hand": "left"
      },
      {
        "midi": 45,
        "time": 15.563,
        "duration": 0.188,
        "velocity": 0.71,
        "hand": "left"
      },
      {
        "midi": 48,
        "time": 15.75,
        "duration": 2.25,
        "velocity": 0.71,
        "hand": "left"
      },
      {
        "midi": 57,
        "time": 15.938,
        "duration": 0.188,
        "velocity": 0.71,
        "hand": "left"
      },
      {
        "midi": 62,
        "time": 16.313,
        "duration": 0.188,
        "velocity": 0.71,
        "hand": "right"
      },
      {
        "midi": 66,
        "time": 16.5,
        "duration": 0.188,
        "velocity": 0.71,
        "hand": "right"
      },
      {
        "midi": 62,
        "time": 16.688,
        "duration": 0.188,
        "velocity": 0.71,
        "hand": "right"
      },
      {
        "midi": 69,
        "time": 17.063,
        "duration": 0.188,
        "velocity": 0.71,
        "hand": "right"
      },
      {
        "midi": 66,
        "time": 17.25,
        "duration": 0.188,
        "velocity": 0.71,
        "hand": "right"
      },
      {
        "midi": 62,
        "time": 17.438,
        "duration": 0.188,
        "velocity": 0.71,
        "hand": "right"
      },
      {
        "midi": 57,
        "time": 17.813,
        "duration": 0.188,
        "velocity": 0.71,
        "hand": "left"
      },
      {
        "midi": 46,
        "time": 18,
        "duration": 1.5,
        "velocity": 0.71,
        "hand": "left"
      },
      {
        "midi": 50,
        "time": 18.188,
        "duration": 0.188,
        "velocity": 0.71,
        "hand": "left"
      },
      {
        "midi": 55,
        "time": 18.563,
        "duration": 0.938,
        "velocity": 0.71,
        "hand": "left"
      },
      {
        "midi": 62,
        "time": 18.75,
        "duration": 0.188,
        "velocity": 0.71,
        "hand": "right"
      },
      {
        "midi": 69,
        "time": 18.938,
        "duration": 0.188,
        "velocity": 0.71,
        "hand": "right"
      },
      {
        "midi": 67,
        "time": 19.313,
        "duration": 0.938,
        "velocity": 0.71,
        "hand": "right"
      },
      {
        "midi": 45,
        "time": 19.5,
        "duration": 1.5,
        "velocity": 0.71,
        "hand": "left"
      },
      {
        "midi": 48,
        "time": 19.688,
        "duration": 0.188,
        "velocity": 0.71,
        "hand": "left"
      },
      {
        "midi": 53,
        "time": 20.063,
        "duration": 0.938,
        "velocity": 0.71,
        "hand": "left"
      },
      {
        "midi": 60,
        "time": 20.25,
        "duration": 0.188,
        "velocity": 0.71,
        "hand": "right"
      },
      {
        "midi": 67,
        "time": 20.438,
        "duration": 0.188,
        "velocity": 0.71,
        "hand": "right"
      },
      {
        "midi": 65,
        "time": 20.813,
        "duration": 0.938,
        "velocity": 0.71,
        "hand": "right"
      },
      {
        "midi": 43,
        "time": 21,
        "duration": 1.5,
        "velocity": 0.71,
        "hand": "left"
      },
      {
        "midi": 46,
        "time": 21.188,
        "duration": 0.188,
        "velocity": 0.71,
        "hand": "left"
      },
      {
        "midi": 51,
        "time": 21.563,
        "duration": 0.938,
        "velocity": 0.71,
        "hand": "left"
      },
      {
        "midi": 58,
        "time": 21.75,
        "duration": 0.188,
        "velocity": 0.71,
        "hand": "left"
      },
      {
        "midi": 65,
        "time": 21.938,
        "duration": 0.188,
        "velocity": 0.71,
        "hand": "right"
      },
      {
        "midi": 63,
        "time": 22.313,
        "duration": 0.938,
        "velocity": 0.71,
        "hand": "right"
      },
      {
        "midi": 44,
        "time": 22.5,
        "duration": 1.5,
        "velocity": 0.71,
        "hand": "left"
      },
      {
        "midi": 47,
        "time": 22.688,
        "duration": 0.188,
        "velocity": 0.71,
        "hand": "left"
      },
      {
        "midi": 53,
        "time": 23.063,
        "duration": 0.938,
        "velocity": 0.71,
        "hand": "left"
      },
      {
        "midi": 59,
        "time": 23.25,
        "duration": 0.188,
        "velocity": 0.71,
        "hand": "left"
      },
      {
        "midi": 64,
        "time": 23.438,
        "duration": 0.188,
        "velocity": 0.71,
        "hand": "right"
      },
      {
        "midi": 62,
        "time": 23.813,
        "duration": 0.188,
        "velocity": 0.71,
        "hand": "right"
      },
      {
        "midi": 45,
        "time": 24,
        "duration": 0.188,
        "velocity": 0.71,
        "hand": "left"
      },
      {
        "midi": 49,
        "time": 24.188,
        "duration": 0.188,
        "velocity": 0.71,
        "hand": "left"
      },
      {
        "midi": 52,
        "time": 24.563,
        "duration": 0.188,
        "velocity": 0.71,
        "hand": "left"
      },
      {
        "midi": 57,
        "time": 24.75,
        "duration": 0.75,
        "velocity": 0.71,
        "hand": "left"
      },
      {
        "midi": 61,
        "time": 24.938,
        "duration": 0.188,
        "velocity": 0.71,
        "hand": "right"
      },
      {
        "midi": 64,
        "time": 25.313,
        "duration": 0.188,
        "velocity": 0.71,
        "hand": "right"
      },
      {
        "midi": 69,
        "time": 25.5,
        "duration": 0.188,
        "velocity": 0.71,
        "hand": "right"
      },
      {
        "midi": 73,
        "time": 25.688,
        "duration": 0.188,
        "velocity": 0.71,
        "hand": "right"
      },
      {
        "midi": 76,
        "time": 26.063,
        "duration": 0.188,
        "velocity": 0.71,
        "hand": "right"
      },
      {
        "midi": 81,
        "time": 26.25,
        "duration": 0.188,
        "velocity": 0.71,
        "hand": "right"
      },
      {
        "midi": 85,
        "time": 26.438,
        "duration": 0.188,
        "velocity": 0.71,
        "hand": "right"
      },
      {
        "midi": 88,
        "time": 26.813,
        "duration": 0.188,
        "velocity": 0.71,
        "hand": "right"
      },
      {
        "midi": 87,
        "time": 27,
        "duration": 0.188,
        "velocity": 0.71,
        "hand": "right"
      },
      {
        "midi": 88,
        "time": 27.188,
        "duration": 0.188,
        "velocity": 0.71,
        "hand": "right"
      },
      {
        "midi": 84,
        "time": 27.563,
        "duration": 0.188,
        "velocity": 0.71,
        "hand": "right"
      },
      {
        "midi": 85,
        "time": 27.75,
        "duration": 0.188,
        "velocity": 0.71,
        "hand": "right"
      },
      {
        "midi": 80,
        "time": 27.938,
        "duration": 0.188,
        "velocity": 0.71,
        "hand": "right"
      },
      {
        "midi": 81,
        "time": 28.313,
        "duration": 0.188,
        "velocity": 0.71,
        "hand": "right"
      },
      {
        "midi": 75,
        "time": 28.5,
        "duration": 0.188,
        "velocity": 0.71,
        "hand": "right"
      },
      {
        "midi": 76,
        "time": 28.688,
        "duration": 0.188,
        "velocity": 0.71,
        "hand": "right"
      },
      {
        "midi": 72,
        "time": 29.063,
        "duration": 0.188,
        "velocity": 0.71,
        "hand": "right"
      },
      {
        "midi": 73,
        "time": 29.25,
        "duration": 0.188,
        "velocity": 0.71,
        "hand": "right"
      },
      {
        "midi": 68,
        "time": 29.438,
        "duration": 0.188,
        "velocity": 0.71,
        "hand": "right"
      },
      {
        "midi": 69,
        "time": 29.813,
        "duration": 0.188,
        "velocity": 0.71,
        "hand": "right"
      },
      {
        "midi": 33,
        "time": 30,
        "duration": 1.5,
        "velocity": 0.71,
        "hand": "left"
      },
      {
        "midi": 62,
        "time": 33,
        "duration": 2.063,
        "velocity": 0.71,
        "hand": "right"
      },
      {
        "midi": 77,
        "time": 33,
        "duration": 1.688,
        "velocity": 0.54,
        "hand": "right"
      },
      {
        "midi": 65,
        "time": 33.563,
        "duration": 0.563,
        "velocity": 0.71,
        "hand": "right"
      },
      {
        "midi": 69,
        "time": 33.563,
        "duration": 0.563,
        "velocity": 0.71,
        "hand": "right"
      },
      {
        "midi": 65,
        "time": 33.938,
        "duration": 0.563,
        "velocity": 0.71,
        "hand": "right"
      },
      {
        "midi": 69,
        "time": 33.938,
        "duration": 0.563,
        "velocity": 0.71,
        "hand": "right"
      },
      {
        "midi": 65,
        "time": 34.5,
        "duration": 0.563,
        "velocity": 0.71,
        "hand": "right"
      },
      {
        "midi": 69,
        "time": 34.5,
        "duration": 0.563,
        "velocity": 0.71,
        "hand": "right"
      },
      {
        "midi": 76,
        "time": 34.688,
        "duration": 0.188,
        "velocity": 0.54,
        "hand": "right"
      },
      {
        "midi": 77,
        "time": 34.875,
        "duration": 0.188,
        "velocity": 0.54,
        "hand": "right"
      },
      {
        "midi": 62,
        "time": 35.063,
        "duration": 2.063,
        "velocity": 0.71,
        "hand": "right"
      },
      {
        "midi": 79,
        "time": 35.063,
        "duration": 0.563,
        "velocity": 0.54,
        "hand": "right"
      },
      {
        "midi": 65,
        "time": 35.438,
        "duration": 0.563,
        "velocity": 0.71,
        "hand": "right"
      },
      {
        "midi": 69,
        "time": 35.438,
        "duration": 0.563,
        "velocity": 0.71,
        "hand": "right"
      },
      {
        "midi": 77,
        "time": 35.438,
        "duration": 0.563,
        "velocity": 0.54,
        "hand": "right"
      },
      {
        "midi": 65,
        "time": 36,
        "duration": 0.563,
        "velocity": 0.71,
        "hand": "right"
      },
      {
        "midi": 69,
        "time": 36,
        "duration": 0.563,
        "velocity": 0.71,
        "hand": "right"
      },
      {
        "midi": 76,
        "time": 36,
        "duration": 0.563,
        "velocity": 0.54,
        "hand": "right"
      },
      {
        "midi": 65,
        "time": 36.563,
        "duration": 0.563,
        "velocity": 0.71,
        "hand": "right"
      },
      {
        "midi": 69,
        "time": 36.563,
        "duration": 0.563,
        "velocity": 0.71,
        "hand": "right"
      },
      {
        "midi": 74,
        "time": 36.563,
        "duration": 0.563,
        "velocity": 0.54,
        "hand": "right"
      },
      {
        "midi": 64,
        "time": 36.938,
        "duration": 2.063,
        "velocity": 0.71,
        "hand": "right"
      },
      {
        "midi": 73,
        "time": 36.938,
        "duration": 0.938,
        "velocity": 0.54,
        "hand": "right"
      },
      {
        "midi": 67,
        "time": 37.5,
        "duration": 0.563,
        "velocity": 0.71,
        "hand": "right"
      },
      {
        "midi": 69,
        "time": 37.5,
        "duration": 0.563,
        "velocity": 0.71,
        "hand": "right"
      },
      {
        "midi": 67,
        "time": 38.063,
        "duration": 0.563,
        "velocity": 0.71,
        "hand": "right"
      },
      {
        "midi": 69,
        "time": 38.063,
        "duration": 0.563,
        "velocity": 0.71,
        "hand": "right"
      },
      {
        "midi": 67,
        "time": 38.438,
        "duration": 0.563,
        "velocity": 0.71,
        "hand": "right"
      },
      {
        "midi": 69,
        "time": 38.438,
        "duration": 0.563,
        "velocity": 0.71,
        "hand": "right"
      },
      {
        "midi": 74,
        "time": 38.813,
        "duration": 0.188,
        "velocity": 0.54,
        "hand": "right"
      },
      {
        "midi": 64,
        "time": 39,
        "duration": 2.063,
        "velocity": 0.71,
        "hand": "right"
      },
      {
        "midi": 75,
        "time": 39,
        "duration": 0.563,
        "velocity": 0.54,
        "hand": "right"
      },
      {
        "midi": 67,
        "time": 39.563,
        "duration": 0.563,
        "velocity": 0.71,
        "hand": "right"
      },
      {
        "midi": 69,
        "time": 39.563,
        "duration": 0.563,
        "velocity": 0.71,
        "hand": "right"
      },
      {
        "midi": 76,
        "time": 39.563,
        "duration": 0.563,
        "velocity": 0.54,
        "hand": "right"
      },
      {
        "midi": 67,
        "time": 39.938,
        "duration": 0.563,
        "velocity": 0.71,
        "hand": "right"
      },
      {
        "midi": 69,
        "time": 39.938,
        "duration": 0.563,
        "velocity": 0.71,
        "hand": "right"
      },
      {
        "midi": 67,
        "time": 40.5,
        "duration": 0.563,
        "velocity": 0.71,
        "hand": "right"
      },
      {
        "midi": 69,
        "time": 40.5,
        "duration": 0.563,
        "velocity": 0.71,
        "hand": "right"
      },
      {
        "midi": 61,
        "time": 41.063,
        "duration": 2.063,
        "velocity": 0.71,
        "hand": "right"
      },
      {
        "midi": 79,
        "time": 41.063,
        "duration": 1.688,
        "velocity": 0.54,
        "hand": "right"
      },
      {
        "midi": 64,
        "time": 41.438,
        "duration": 0.563,
        "velocity": 0.71,
        "hand": "right"
      },
      {
        "midi": 69,
        "time": 41.438,
        "duration": 0.563,
        "velocity": 0.71,
        "hand": "right"
      },
      {
        "midi": 64,
        "time": 42,
        "duration": 0.563,
        "velocity": 0.71,
        "hand": "right"
      },
      {
        "midi": 69,
        "time": 42,
        "duration": 0.563,
        "velocity": 0.71,
        "hand": "right"
      },
      {
        "midi": 64,
        "time": 42.563,
        "duration": 0.563,
        "velocity": 0.71,
        "hand": "right"
      },
      {
        "midi": 69,
        "time": 42.563,
        "duration": 0.563,
        "velocity": 0.71,
        "hand": "right"
      },
      {
        "midi": 78,
        "time": 42.75,
        "duration": 0.188,
        "velocity": 0.54,
        "hand": "right"
      },
      {
        "midi": 61,
        "time": 42.938,
        "duration": 2.063,
        "velocity": 0.71,
        "hand": "right"
      },
      {
        "midi": 79,
        "time": 42.938,
        "duration": 0.188,
        "velocity": 0.54,
        "hand": "right"
      },
      {
        "midi": 81,
        "time": 42.938,
        "duration": 0.563,
        "velocity": 0.54,
        "hand": "right"
      },
      {
        "midi": 64,
        "time": 43.5,
        "duration": 0.563,
        "velocity": 0.71,
        "hand": "right"
      },
      {
        "midi": 69,
        "time": 43.5,
        "duration": 0.563,
        "velocity": 0.71,
        "hand": "right"
      },
      {
        "midi": 79,
        "time": 43.5,
        "duration": 0.563,
        "velocity": 0.54,
        "hand": "right"
      },
      {
        "midi": 64,
        "time": 44.063,
        "duration": 0.563,
        "velocity": 0.71,
        "hand": "right"
      },
      {
        "midi": 69,
        "time": 44.063,
        "duration": 0.563,
        "velocity": 0.71,
        "hand": "right"
      },
      {
        "midi": 77,
        "time": 44.063,
        "duration": 0.563,
        "velocity": 0.54,
        "hand": "right"
      },
      {
        "midi": 64,
        "time": 44.438,
        "duration": 0.563,
        "velocity": 0.71,
        "hand": "right"
      },
      {
        "midi": 69,
        "time": 44.438,
        "duration": 0.563,
        "velocity": 0.71,
        "hand": "right"
      },
      {
        "midi": 76,
        "time": 44.438,
        "duration": 0.563,
        "velocity": 0.54,
        "hand": "right"
      },
      {
        "midi": 62,
        "time": 45,
        "duration": 2.063,
        "velocity": 0.71,
        "hand": "right"
      },
      {
        "midi": 74,
        "time": 45,
        "duration": 0.938,
        "velocity": 0.54,
        "hand": "right"
      },
      {
        "midi": 65,
        "time": 45.563,
        "duration": 0.563,
        "velocity": 0.71,
        "hand": "right"
      },
      {
        "midi": 69,
        "time": 45.563,
        "duration": 0.563,
        "velocity": 0.71,
        "hand": "right"
      },
      {
        "midi": 65,
        "time": 45.938,
        "duration": 0.563,
        "velocity": 0.71,
        "hand": "right"
      },
      {
        "midi": 69,
        "time": 45.938,
        "duration": 0.563,
        "velocity": 0.71,
        "hand": "right"
      },
      {
        "midi": 65,
        "time": 46.5,
        "duration": 0.563,
        "velocity": 0.71,
        "hand": "right"
      },
      {
        "midi": 69,
        "time": 46.5,
        "duration": 0.563,
        "velocity": 0.71,
        "hand": "right"
      },
      {
        "midi": 76,
        "time": 46.688,
        "duration": 0.188,
        "velocity": 0.54,
        "hand": "right"
      },
      {
        "midi": 62,
        "time": 47.063,
        "duration": 2.063,
        "velocity": 0.71,
        "hand": "right"
      },
      {
        "midi": 79,
        "time": 47.063,
        "duration": 0.563,
        "velocity": 0.54,
        "hand": "right"
      },
      {
        "midi": 65,
        "time": 47.438,
        "duration": 0.563,
        "velocity": 0.71,
        "hand": "right"
      },
      {
        "midi": 69,
        "time": 47.438,
        "duration": 0.563,
        "velocity": 0.71,
        "hand": "right"
      },
      {
        "midi": 77,
        "time": 47.438,
        "duration": 0.563,
        "velocity": 0.54,
        "hand": "right"
      },
      {
        "midi": 65,
        "time": 48,
        "duration": 0.563,
        "velocity": 0.71,
        "hand": "right"
      },
      {
        "midi": 69,
        "time": 48,
        "duration": 0.563,
        "velocity": 0.71,
        "hand": "right"
      },
      {
        "midi": 65,
        "time": 48.563,
        "duration": 0.563,
        "velocity": 0.71,
        "hand": "right"
      },
      {
        "midi": 69,
        "time": 48.563,
        "duration": 0.563,
        "velocity": 0.71,
        "hand": "right"
      },
      {
        "midi": 69,
        "time": 48.938,
        "duration": 2.063,
        "velocity": 0.75,
        "hand": "right"
      },
      {
        "midi": 81,
        "time": 48.938,
        "duration": 2.063,
        "velocity": 0.75,
        "hand": "right"
      },
      {
        "midi": 53,
        "time": 50.063,
        "duration": 0.938,
        "velocity": 0.71,
        "hand": "left"
      },
      {
        "midi": 57,
        "time": 50.063,
        "duration": 0.938,
        "velocity": 0.71,
        "hand": "left"
      },
      {
        "midi": 62,
        "time": 50.063,
        "duration": 0.938,
        "velocity": 0.71,
        "hand": "right"
      },
      {
        "midi": 52,
        "time": 51,
        "duration": 0.563,
        "velocity": 0.71,
        "hand": "left"
      },
      {
        "midi": 55,
        "time": 51,
        "duration": 0.563,
        "velocity": 0.71,
        "hand": "left"
      },
      {
        "midi": 61,
        "time": 51,
        "duration": 0.563,
        "velocity": 0.71,
        "hand": "right"
      },
      {
        "midi": 70,
        "time": 51,
        "duration": 0.563,
        "velocity": 0.75,
        "hand": "right"
      },
      {
        "midi": 82,
        "time": 51,
        "duration": 0.563,
        "velocity": 0.75,
        "hand": "right"
      },
      {
        "midi": 81,
        "time": 53.063,
        "duration": 0.75,
        "velocity": 0.54,
        "hand": "right"
      },
      {
        "midi": 86,
        "time": 53.813,
        "duration": 0.188,
        "velocity": 0.54,
        "hand": "right"
      },
      {
        "midi": 65,
        "time": 54,
        "duration": 0.938,
        "velocity": 0.71,
        "hand": "right"
      },
      {
        "midi": 74,
        "time": 54,
        "duration": 0.938,
        "velocity": 0.71,
        "hand": "right"
      },
      {
        "midi": 85,
        "time": 54,
        "duration": 0.375,
        "velocity": 0.54,
        "hand": "right"
      },
      {
        "midi": 84,
        "time": 54.375,
        "duration": 0.375,
        "velocity": 0.54,
        "hand": "right"
      },
      {
        "midi": 83,
        "time": 54.75,
        "duration": 0.375,
        "velocity": 0.54,
        "hand": "right"
      },
      {
        "midi": 67,
        "time": 54.938,
        "duration": 0.938,
        "velocity": 0.71,
        "hand": "right"
      },
      {
        "midi": 73,
        "time": 54.938,
        "duration": 0.938,
        "velocity": 0.71,
        "hand": "right"
      },
      {
        "midi": 82,
        "time": 54.938,
        "duration": 0.938,
        "velocity": 0.54,
        "hand": "right"
      },
      {
        "midi": 65,
        "time": 56.813,
        "duration": 0.188,
        "velocity": 0.71,
        "hand": "right"
      },
      {
        "midi": 74,
        "time": 56.813,
        "duration": 0.188,
        "velocity": 0.71,
        "hand": "right"
      },
      {
        "midi": 81,
        "time": 56.813,
        "duration": 0.188,
        "velocity": 0.54,
        "hand": "right"
      },
      {
        "midi": 64,
        "time": 57,
        "duration": 0.563,
        "velocity": 0.71,
        "hand": "right"
      },
      {
        "midi": 76,
        "time": 57,
        "duration": 0.563,
        "velocity": 0.71,
        "hand": "right"
      },
      {
        "midi": 81,
        "time": 57,
        "duration": 0.563,
        "velocity": 0.54,
        "hand": "right"
      },
      {
        "midi": 80,
        "time": 57.563,
        "duration": 0.563,
        "velocity": 0.54,
        "hand": "right"
      },
      {
        "midi": 69,
        "time": 57.938,
        "duration": 0.563,
        "velocity": 0.71,
        "hand": "right"
      },
      {
        "midi": 73,
        "time": 57.938,
        "duration": 0.563,
        "velocity": 0.71,
        "hand": "right"
      },
      {
        "midi": 79,
        "time": 58.5,
        "duration": 0.563,
        "velocity": 0.54,
        "hand": "right"
      },
      {
        "midi": 62,
        "time": 59.063,
        "duration": 0.563,
        "velocity": 0.71,
        "hand": "right"
      },
      {
        "midi": 74,
        "time": 59.063,
        "duration": 0.563,
        "velocity": 0.71,
        "hand": "right"
      },
      {
        "midi": 78,
        "time": 59.438,
        "duration": 0.563,
        "velocity": 0.54,
        "hand": "right"
      },
      {
        "midi": 68,
        "time": 60,
        "duration": 0.563,
        "velocity": 0.71,
        "hand": "right"
      },
      {
        "midi": 71,
        "time": 60,
        "duration": 0.563,
        "velocity": 0.71,
        "hand": "right"
      },
      {
        "midi": 74,
        "time": 60.563,
        "duration": 0.563,
        "velocity": 0.54,
        "hand": "right"
      },
      {
        "midi": 77,
        "time": 60.563,
        "duration": 0.563,
        "velocity": 0.54,
        "hand": "right"
      },
      {
        "midi": 69,
        "time": 60.938,
        "duration": 0.938,
        "velocity": 0.71,
        "hand": "right"
      },
      {
        "midi": 73,
        "time": 61.5,
        "duration": 0.563,
        "velocity": 0.54,
        "hand": "right"
      },
      {
        "midi": 76,
        "time": 61.5,
        "duration": 0.563,
        "velocity": 0.54,
        "hand": "right"
      },
      {
        "midi": 76,
        "time": 62.063,
        "duration": 0.563,
        "velocity": 0.54,
        "hand": "right"
      },
      {
        "midi": 81,
        "time": 62.063,
        "duration": 0.563,
        "velocity": 0.54,
        "hand": "right"
      },
      {
        "midi": 81,
        "time": 62.438,
        "duration": 0.563,
        "velocity": 0.54,
        "hand": "right"
      },
      {
        "midi": 85,
        "time": 62.438,
        "duration": 0.563,
        "velocity": 0.54,
        "hand": "right"
      },
      {
        "midi": 85,
        "time": 63,
        "duration": 0.563,
        "velocity": 0.54,
        "hand": "right"
      },
      {
        "midi": 88,
        "time": 63,
        "duration": 0.563,
        "velocity": 0.54,
        "hand": "right"
      },
      {
        "midi": 64,
        "time": 65.063,
        "duration": 0.563,
        "velocity": 0.71,
        "hand": "right"
      },
      {
        "midi": 64,
        "time": 65.438,
        "duration": 0.563,
        "velocity": 0.71,
        "hand": "right"
      },
      {
        "midi": 64,
        "time": 66,
        "duration": 0.563,
        "velocity": 0.71,
        "hand": "right"
      },
      {
        "midi": 64,
        "time": 66.563,
        "duration": 0.563,
        "velocity": 0.71,
        "hand": "right"
      },
      {
        "midi": 64,
        "time": 66.938,
        "duration": 0.563,
        "velocity": 0.71,
        "hand": "right"
      },
      {
        "midi": 64,
        "time": 67.5,
        "duration": 0.563,
        "velocity": 0.71,
        "hand": "right"
      },
      {
        "midi": 45,
        "time": 68.063,
        "duration": 0.938,
        "velocity": 0.71,
        "hand": "left"
      },
      {
        "midi": 57,
        "time": 68.063,
        "duration": 0.938,
        "velocity": 0.71,
        "hand": "left"
      },
      {
        "midi": 60,
        "time": 68.063,
        "duration": 0.938,
        "velocity": 0.71,
        "hand": "right"
      },
      {
        "midi": 64,
        "time": 68.063,
        "duration": 0.563,
        "velocity": 0.71,
        "hand": "right"
      },
      {
        "midi": 64,
        "time": 68.438,
        "duration": 0.563,
        "velocity": 0.71,
        "hand": "right"
      },
      {
        "midi": 44,
        "time": 69,
        "duration": 0.938,
        "velocity": 0.71,
        "hand": "left"
      },
      {
        "midi": 56,
        "time": 69,
        "duration": 0.938,
        "velocity": 0.71,
        "hand": "left"
      },
      {
        "midi": 59,
        "time": 69,
        "duration": 0.938,
        "velocity": 0.71,
        "hand": "left"
      },
      {
        "midi": 64,
        "time": 69,
        "duration": 0.563,
        "velocity": 0.71,
        "hand": "right"
      },
      {
        "midi": 64,
        "time": 69.563,
        "duration": 0.563,
        "velocity": 0.71,
        "hand": "right"
      },
      {
        "midi": 43,
        "time": 69.938,
        "duration": 0.938,
        "velocity": 0.71,
        "hand": "left"
      },
      {
        "midi": 55,
        "time": 69.938,
        "duration": 0.938,
        "velocity": 0.71,
        "hand": "left"
      },
      {
        "midi": 58,
        "time": 69.938,
        "duration": 0.938,
        "velocity": 0.71,
        "hand": "left"
      },
      {
        "midi": 64,
        "time": 69.938,
        "duration": 0.563,
        "velocity": 0.71,
        "hand": "right"
      },
      {
        "midi": 64,
        "time": 70.5,
        "duration": 0.563,
        "velocity": 0.71,
        "hand": "right"
      },
      {
        "midi": 42,
        "time": 71.063,
        "duration": 0.938,
        "velocity": 0.71,
        "hand": "left"
      },
      {
        "midi": 54,
        "time": 71.063,
        "duration": 0.938,
        "velocity": 0.71,
        "hand": "left"
      },
      {
        "midi": 57,
        "time": 71.063,
        "duration": 0.938,
        "velocity": 0.71,
        "hand": "left"
      },
      {
        "midi": 64,
        "time": 71.063,
        "duration": 0.563,
        "velocity": 0.71,
        "hand": "right"
      },
      {
        "midi": 63,
        "time": 71.438,
        "duration": 0.563,
        "velocity": 0.71,
        "hand": "right"
      },
      {
        "midi": 41,
        "time": 72,
        "duration": 0.938,
        "velocity": 0.71,
        "hand": "left"
      },
      {
        "midi": 53,
        "time": 72,
        "duration": 0.938,
        "velocity": 0.71,
        "hand": "left"
      },
      {
        "midi": 63,
        "time": 72,
        "duration": 0.938,
        "velocity": 0.71,
        "hand": "right"
      },
      {
        "midi": 69,
        "time": 72,
        "duration": 0.563,
        "velocity": 0.71,
        "hand": "right"
      },
      {
        "midi": 69,
        "time": 72.563,
        "duration": 0.563,
        "velocity": 0.71,
        "hand": "right"
      },
      {
        "midi": 40,
        "time": 72.938,
        "duration": 3,
        "velocity": 0.71,
        "hand": "left"
      },
      {
        "midi": 52,
        "time": 72.938,
        "duration": 3,
        "velocity": 0.71,
        "hand": "left"
      },
      {
        "midi": 63,
        "time": 72.938,
        "duration": 2.063,
        "velocity": 0.71,
        "hand": "right"
      },
      {
        "midi": 69,
        "time": 72.938,
        "duration": 1.5,
        "velocity": 0.71,
        "hand": "right"
      },
      {
        "midi": 68,
        "time": 74.438,
        "duration": 0.188,
        "velocity": 0.71,
        "hand": "right"
      },
      {
        "midi": 69,
        "time": 74.625,
        "duration": 0.188,
        "velocity": 0.71,
        "hand": "right"
      },
      {
        "midi": 69,
        "time": 74.813,
        "duration": 0.188,
        "velocity": 0.71,
        "hand": "right"
      },
      {
        "midi": 71,
        "time": 74.813,
        "duration": 0.188,
        "velocity": 0.71,
        "hand": "right"
      },
      {
        "midi": 64,
        "time": 75,
        "duration": 0.938,
        "velocity": 0.71,
        "hand": "right"
      },
      {
        "midi": 68,
        "time": 75,
        "duration": 0.938,
        "velocity": 0.71,
        "hand": "right"
      },
      {
        "midi": 71,
        "time": 76.688,
        "duration": 0.188,
        "velocity": 0.54,
        "hand": "right"
      },
      {
        "midi": 69,
        "time": 77.063,
        "duration": 0.188,
        "velocity": 0.54,
        "hand": "right"
      },
      {
        "midi": 68,
        "time": 77.25,
        "duration": 0.188,
        "velocity": 0.54,
        "hand": "right"
      },
      {
        "midi": 62,
        "time": 77.438,
        "duration": 0.563,
        "velocity": 0.71,
        "hand": "right"
      },
      {
        "midi": 65,
        "time": 77.438,
        "duration": 0.563,
        "velocity": 0.71,
        "hand": "right"
      },
      {
        "midi": 71,
        "time": 77.813,
        "duration": 0.188,
        "velocity": 0.54,
        "hand": "right"
      },
      {
        "midi": 62,
        "time": 78,
        "duration": 0.563,
        "velocity": 0.71,
        "hand": "right"
      },
      {
        "midi": 65,
        "time": 78,
        "duration": 0.563,
        "velocity": 0.71,
        "hand": "right"
      },
      {
        "midi": 69,
        "time": 78,
        "duration": 0.188,
        "velocity": 0.54,
        "hand": "right"
      },
      {
        "midi": 68,
        "time": 78.188,
        "duration": 0.188,
        "velocity": 0.54,
        "hand": "right"
      },
      {
        "midi": 62,
        "time": 78.563,
        "duration": 0.563,
        "velocity": 0.71,
        "hand": "right"
      },
      {
        "midi": 65,
        "time": 78.563,
        "duration": 0.563,
        "velocity": 0.71,
        "hand": "right"
      },
      {
        "midi": 71,
        "time": 78.75,
        "duration": 0.188,
        "velocity": 0.54,
        "hand": "right"
      },
      {
        "midi": 62,
        "time": 78.938,
        "duration": 0.563,
        "velocity": 0.71,
        "hand": "right"
      },
      {
        "midi": 65,
        "time": 78.938,
        "duration": 0.563,
        "velocity": 0.71,
        "hand": "right"
      },
      {
        "midi": 69,
        "time": 78.938,
        "duration": 0.188,
        "velocity": 0.54,
        "hand": "right"
      },
      {
        "midi": 68,
        "time": 79.313,
        "duration": 0.188,
        "velocity": 0.54,
        "hand": "right"
      },
      {
        "midi": 62,
        "time": 79.5,
        "duration": 0.563,
        "velocity": 0.71,
        "hand": "right"
      },
      {
        "midi": 65,
        "time": 79.5,
        "duration": 0.563,
        "velocity": 0.71,
        "hand": "right"
      },
      {
        "midi": 71,
        "time": 79.688,
        "duration": 0.188,
        "velocity": 0.54,
        "hand": "right"
      },
      {
        "midi": 62,
        "time": 80.063,
        "duration": 0.563,
        "velocity": 0.71,
        "hand": "right"
      },
      {
        "midi": 65,
        "time": 80.063,
        "duration": 0.563,
        "velocity": 0.71,
        "hand": "right"
      },
      {
        "midi": 74,
        "time": 80.25,
        "duration": 0.188,
        "velocity": 0.54,
        "hand": "right"
      },
      {
        "midi": 62,
        "time": 80.438,
        "duration": 0.563,
        "velocity": 0.71,
        "hand": "right"
      },
      {
        "midi": 65,
        "time": 80.438,
        "duration": 0.563,
        "velocity": 0.71,
        "hand": "right"
      },
      {
        "midi": 68,
        "time": 80.813,
        "duration": 0.188,
        "velocity": 0.54,
        "hand": "right"
      },
      {
        "midi": 71,
        "time": 81,
        "duration": 0.188,
        "velocity": 0.54,
        "hand": "right"
      },
      {
        "midi": 69,
        "time": 81.188,
        "duration": 0.188,
        "velocity": 0.54,
        "hand": "right"
      },
      {
        "midi": 60,
        "time": 81.563,
        "duration": 0.563,
        "velocity": 0.71,
        "hand": "right"
      },
      {
        "midi": 64,
        "time": 81.563,
        "duration": 0.563,
        "velocity": 0.71,
        "hand": "right"
      },
      {
        "midi": 72,
        "time": 81.75,
        "duration": 0.188,
        "velocity": 0.54,
        "hand": "right"
      },
      {
        "midi": 60,
        "time": 81.938,
        "duration": 0.563,
        "velocity": 0.71,
        "hand": "right"
      },
      {
        "midi": 64,
        "time": 81.938,
        "duration": 0.563,
        "velocity": 0.71,
        "hand": "right"
      },
      {
        "midi": 71,
        "time": 81.938,
        "duration": 0.188,
        "velocity": 0.54,
        "hand": "right"
      },
      {
        "midi": 69,
        "time": 82.313,
        "duration": 0.188,
        "velocity": 0.54,
        "hand": "right"
      },
      {
        "midi": 60,
        "time": 82.5,
        "duration": 0.563,
        "velocity": 0.71,
        "hand": "right"
      },
      {
        "midi": 64,
        "time": 82.5,
        "duration": 0.563,
        "velocity": 0.71,
        "hand": "right"
      },
      {
        "midi": 72,
        "time": 82.688,
        "duration": 0.188,
        "velocity": 0.54,
        "hand": "right"
      },
      {
        "midi": 60,
        "time": 83.063,
        "duration": 0.563,
        "velocity": 0.71,
        "hand": "right"
      },
      {
        "midi": 64,
        "time": 83.063,
        "duration": 0.563,
        "velocity": 0.71,
        "hand": "right"
      },
      {
        "midi": 71,
        "time": 83.063,
        "duration": 0.188,
        "velocity": 0.54,
        "hand": "right"
      },
      {
        "midi": 69,
        "time": 83.25,
        "duration": 0.188,
        "velocity": 0.54,
        "hand": "right"
      },
      {
        "midi": 60,
        "time": 83.438,
        "duration": 0.563,
        "velocity": 0.71,
        "hand": "right"
      },
      {
        "midi": 64,
        "time": 83.438,
        "duration": 0.563,
        "velocity": 0.71,
        "hand": "right"
      },
      {
        "midi": 72,
        "time": 83.813,
        "duration": 0.188,
        "velocity": 0.54,
        "hand": "right"
      },
      {
        "midi": 60,
        "time": 84,
        "duration": 0.563,
        "velocity": 0.71,
        "hand": "right"
      },
      {
        "midi": 64,
        "time": 84,
        "duration": 0.563,
        "velocity": 0.71,
        "hand": "right"
      },
      {
        "midi": 76,
        "time": 84.188,
        "duration": 0.188,
        "velocity": 0.54,
        "hand": "right"
      },
      {
        "midi": 60,
        "time": 84.563,
        "duration": 0.563,
        "velocity": 0.71,
        "hand": "right"
      },
      {
        "midi": 64,
        "time": 84.563,
        "duration": 0.563,
        "velocity": 0.71,
        "hand": "right"
      },
      {
        "midi": 69,
        "time": 84.75,
        "duration": 0.188,
        "velocity": 0.54,
        "hand": "right"
      },
      {
        "midi": 72,
        "time": 84.938,
        "duration": 0.188,
        "velocity": 0.54,
        "hand": "right"
      },
      {
        "midi": 71,
        "time": 85.313,
        "duration": 0.188,
        "velocity": 0.54,
        "hand": "right"
      },
      {
        "midi": 56,
        "time": 85.5,
        "duration": 0.563,
        "velocity": 0.71,
        "hand": "left"
      },
      {
        "midi": 64,
        "time": 85.5,
        "duration": 0.563,
        "velocity": 0.71,
        "hand": "right"
      },
      {
        "midi": 74,
        "time": 85.688,
        "duration": 0.188,
        "velocity": 0.54,
        "hand": "right"
      },
      {
        "midi": 56,
        "time": 86.063,
        "duration": 0.563,
        "velocity": 0.71,
        "hand": "left"
      },
      {
        "midi": 64,
        "time": 86.063,
        "duration": 0.563,
        "velocity": 0.71,
        "hand": "right"
      },
      {
        "midi": 72,
        "time": 86.063,
        "duration": 0.188,
        "velocity": 0.54,
        "hand": "right"
      },
      {
        "midi": 71,
        "time": 86.25,
        "duration": 0.188,
        "velocity": 0.54,
        "hand": "right"
      },
      {
        "midi": 56,
        "time": 86.438,
        "duration": 0.563,
        "velocity": 0.71,
        "hand": "left"
      },
      {
        "midi": 64,
        "time": 86.438,
        "duration": 0.563,
        "velocity": 0.71,
        "hand": "right"
      },
      {
        "midi": 74,
        "time": 86.813,
        "duration": 0.188,
        "velocity": 0.54,
        "hand": "right"
      },
      {
        "midi": 56,
        "time": 87,
        "duration": 0.563,
        "velocity": 0.71,
        "hand": "left"
      },
      {
        "midi": 64,
        "time": 87,
        "duration": 0.563,
        "velocity": 0.71,
        "hand": "right"
      },
      {
        "midi": 72,
        "time": 87,
        "duration": 0.188,
        "velocity": 0.54,
        "hand": "right"
      },
      {
        "midi": 71,
        "time": 87.188,
        "duration": 0.188,
        "velocity": 0.54,
        "hand": "right"
      },
      {
        "midi": 56,
        "time": 87.563,
        "duration": 0.563,
        "velocity": 0.71,
        "hand": "left"
      },
      {
        "midi": 64,
        "time": 87.563,
        "duration": 0.563,
        "velocity": 0.71,
        "hand": "right"
      },
      {
        "midi": 74,
        "time": 87.75,
        "duration": 0.188,
        "velocity": 0.54,
        "hand": "right"
      },
      {
        "midi": 56,
        "time": 87.938,
        "duration": 0.563,
        "velocity": 0.71,
        "hand": "left"
      },
      {
        "midi": 64,
        "time": 87.938,
        "duration": 0.563,
        "velocity": 0.71,
        "hand": "right"
      },
      {
        "midi": 77,
        "time": 88.313,
        "duration": 0.188,
        "velocity": 0.54,
        "hand": "right"
      },
      {
        "midi": 56,
        "time": 88.5,
        "duration": 0.563,
        "velocity": 0.71,
        "hand": "left"
      },
      {
        "midi": 64,
        "time": 88.5,
        "duration": 0.563,
        "velocity": 0.71,
        "hand": "right"
      },
      {
        "midi": 71,
        "time": 88.688,
        "duration": 0.188,
        "velocity": 0.54,
        "hand": "right"
      },
      {
        "midi": 57,
        "time": 89.063,
        "duration": 0.563,
        "velocity": 0.71,
        "hand": "left"
      },
      {
        "midi": 64,
        "time": 89.063,
        "duration": 0.563,
        "velocity": 0.71,
        "hand": "right"
      },
      {
        "midi": 74,
        "time": 89.063,
        "duration": 0.188,
        "velocity": 0.54,
        "hand": "right"
      },
      {
        "midi": 72,
        "time": 89.25,
        "duration": 0.188,
        "velocity": 0.54,
        "hand": "right"
      },
      {
        "midi": 57,
        "time": 89.438,
        "duration": 0.563,
        "velocity": 0.71,
        "hand": "left"
      },
      {
        "midi": 60,
        "time": 89.438,
        "duration": 0.563,
        "velocity": 0.71,
        "hand": "right"
      },
      {
        "midi": 81,
        "time": 89.813,
        "duration": 0.188,
        "velocity": 0.54,
        "hand": "right"
      },
      {
        "midi": 59,
        "time": 90,
        "duration": 0.563,
        "velocity": 0.71,
        "hand": "left"
      },
      {
        "midi": 62,
        "time": 90,
        "duration": 0.563,
        "velocity": 0.71,
        "hand": "right"
      },
      {
        "midi": 80,
        "time": 90.188,
        "duration": 0.188,
        "velocity": 0.57,
        "hand": "right"
      },
      {
        "midi": 61,
        "time": 90.563,
        "duration": 0.563,
        "velocity": 0.71,
        "hand": "right"
      },
      {
        "midi": 64,
        "time": 90.563,
        "duration": 0.563,
        "velocity": 0.71,
        "hand": "right"
      },
      {
        "midi": 79,
        "time": 90.75,
        "duration": 0.188,
        "velocity": 0.61,
        "hand": "right"
      },
      {
        "midi": 62,
        "time": 90.938,
        "duration": 0.563,
        "velocity": 0.71,
        "hand": "right"
      },
      {
        "midi": 65,
        "time": 90.938,
        "duration": 0.563,
        "velocity": 0.71,
        "hand": "right"
      },
      {
        "midi": 77,
        "time": 91.313,
        "duration": 0.188,
        "velocity": 0.65,
        "hand": "right"
      },
      {
        "midi": 64,
        "time": 91.5,
        "duration": 0.563,
        "velocity": 0.71,
        "hand": "right"
      },
      {
        "midi": 68,
        "time": 91.5,
        "duration": 0.563,
        "velocity": 0.71,
        "hand": "right"
      },
      {
        "midi": 76,
        "time": 91.688,
        "duration": 0.188,
        "velocity": 0.7,
        "hand": "right"
      },
      {
        "midi": 66,
        "time": 92.063,
        "duration": 0.563,
        "velocity": 0.71,
        "hand": "right"
      },
      {
        "midi": 69,
        "time": 92.063,
        "duration": 0.563,
        "velocity": 0.71,
        "hand": "right"
      },
      {
        "midi": 75,
        "time": 92.25,
        "duration": 0.188,
        "velocity": 0.75,
        "hand": "right"
      },
      {
        "midi": 68,
        "time": 92.438,
        "duration": 0.563,
        "velocity": 0.71,
        "hand": "right"
      },
      {
        "midi": 71,
        "time": 92.438,
        "duration": 0.563,
        "velocity": 0.71,
        "hand": "right"
      },
      {
        "midi": 74,
        "time": 92.813,
        "duration": 0.188,
        "velocity": 0.54,
        "hand": "right"
      },
      {
        "midi": 69,
        "time": 93,
        "duration": 0.563,
        "velocity": 0.71,
        "hand": "right"
      },
      {
        "midi": 72,
        "time": 93,
        "duration": 0.188,
        "velocity": 0.54,
        "hand": "right"
      },
      {
        "midi": 76,
        "time": 93.188,
        "duration": 0.188,
        "velocity": 0.54,
        "hand": "right"
      },
      {
        "midi": 57,
        "time": 93.563,
        "duration": 0.563,
        "velocity": 0.71,
        "hand": "left"
      },
      {
        "midi": 60,
        "time": 93.563,
        "duration": 0.563,
        "velocity": 0.71,
        "hand": "right"
      },
      {
        "midi": 81,
        "time": 93.75,
        "duration": 0.188,
        "velocity": 0.54,
        "hand": "right"
      },
      {
        "midi": 59,
        "time": 93.938,
        "duration": 0.563,
        "velocity": 0.71,
        "hand": "left"
      },
      {
        "midi": 62,
        "time": 93.938,
        "duration": 0.563,
        "velocity": 0.71,
        "hand": "right"
      },
      {
        "midi": 80,
        "time": 94.313,
        "duration": 0.188,
        "velocity": 0.57,
        "hand": "right"
      },
      {
        "midi": 61,
        "time": 94.5,
        "duration": 0.563,
        "velocity": 0.71,
        "hand": "right"
      },
      {
        "midi": 64,
        "time": 94.5,
        "duration": 0.563,
        "velocity": 0.71,
        "hand": "right"
      },
      {
        "midi": 79,
        "time": 94.688,
        "duration": 0.188,
        "velocity": 0.62,
        "hand": "right"
      },
      {
        "midi": 62,
        "time": 95.063,
        "duration": 0.563,
        "velocity": 0.71,
        "hand": "right"
      },
      {
        "midi": 65,
        "time": 95.063,
        "duration": 0.563,
        "velocity": 0.71,
        "hand": "right"
      },
      {
        "midi": 77,
        "time": 95.25,
        "duration": 0.188,
        "velocity": 0.67,
        "hand": "right"
      },
      {
        "midi": 64,
        "time": 95.438,
        "duration": 0.563,
        "velocity": 0.71,
        "hand": "right"
      },
      {
        "midi": 68,
        "time": 95.438,
        "duration": 0.563,
        "velocity": 0.71,
        "hand": "right"
      },
      {
        "midi": 76,
        "time": 95.813,
        "duration": 0.188,
        "velocity": 0.72,
        "hand": "right"
      },
      {
        "midi": 66,
        "time": 96,
        "duration": 0.563,
        "velocity": 0.71,
        "hand": "right"
      },
      {
        "midi": 69,
        "time": 96,
        "duration": 0.563,
        "velocity": 0.71,
        "hand": "right"
      },
      {
        "midi": 75,
        "time": 96.188,
        "duration": 0.188,
        "velocity": 0.75,
        "hand": "right"
      },
      {
        "midi": 68,
        "time": 96.563,
        "duration": 0.563,
        "velocity": 0.71,
        "hand": "right"
      },
      {
        "midi": 71,
        "time": 96.563,
        "duration": 0.563,
        "velocity": 0.71,
        "hand": "right"
      },
      {
        "midi": 74,
        "time": 96.75,
        "duration": 0.188,
        "velocity": 0.75,
        "hand": "right"
      },
      {
        "midi": 57,
        "time": 101.063,
        "duration": 2.063,
        "velocity": 0.71,
        "hand": "left"
      },
      {
        "midi": 72,
        "time": 101.063,
        "duration": 1.688,
        "velocity": 0.54,
        "hand": "right"
      },
      {
        "midi": 60,
        "time": 101.438,
        "duration": 0.563,
        "velocity": 0.71,
        "hand": "right"
      },
      {
        "midi": 64,
        "time": 101.438,
        "duration": 0.563,
        "velocity": 0.71,
        "hand": "right"
      },
      {
        "midi": 60,
        "time": 102,
        "duration": 0.563,
        "velocity": 0.71,
        "hand": "right"
      },
      {
        "midi": 64,
        "time": 102,
        "duration": 0.563,
        "velocity": 0.71,
        "hand": "right"
      },
      {
        "midi": 60,
        "time": 102.563,
        "duration": 0.563,
        "velocity": 0.71,
        "hand": "right"
      },
      {
        "midi": 64,
        "time": 102.563,
        "duration": 0.563,
        "velocity": 0.71,
        "hand": "right"
      },
      {
        "midi": 71,
        "time": 102.75,
        "duration": 0.188,
        "velocity": 0.54,
        "hand": "right"
      },
      {
        "midi": 57,
        "time": 102.938,
        "duration": 2.063,
        "velocity": 0.71,
        "hand": "left"
      },
      {
        "midi": 72,
        "time": 102.938,
        "duration": 0.188,
        "velocity": 0.54,
        "hand": "right"
      },
      {
        "midi": 74,
        "time": 102.938,
        "duration": 0.563,
        "velocity": 0.54,
        "hand": "right"
      },
      {
        "midi": 60,
        "time": 103.5,
        "duration": 0.563,
        "velocity": 0.71,
        "hand": "right"
      },
      {
        "midi": 64,
        "time": 103.5,
        "duration": 0.563,
        "velocity": 0.71,
        "hand": "right"
      },
      {
        "midi": 72,
        "time": 103.5,
        "duration": 0.563,
        "velocity": 0.54,
        "hand": "right"
      },
      {
        "midi": 60,
        "time": 104.063,
        "duration": 0.563,
        "velocity": 0.71,
        "hand": "right"
      },
      {
        "midi": 64,
        "time": 104.063,
        "duration": 0.563,
        "velocity": 0.71,
        "hand": "right"
      },
      {
        "midi": 71,
        "time": 104.063,
        "duration": 0.563,
        "velocity": 0.54,
        "hand": "right"
      },
      {
        "midi": 60,
        "time": 104.438,
        "duration": 0.563,
        "velocity": 0.71,
        "hand": "right"
      },
      {
        "midi": 64,
        "time": 104.438,
        "duration": 0.563,
        "velocity": 0.71,
        "hand": "right"
      },
      {
        "midi": 69,
        "time": 104.438,
        "duration": 0.563,
        "velocity": 0.54,
        "hand": "right"
      },
      {
        "midi": 59,
        "time": 105,
        "duration": 2.063,
        "velocity": 0.71,
        "hand": "left"
      },
      {
        "midi": 68,
        "time": 105,
        "duration": 0.938,
        "velocity": 0.54,
        "hand": "right"
      },
      {
        "midi": 62,
        "time": 105.563,
        "duration": 0.563,
        "velocity": 0.71,
        "hand": "right"
      },
      {
        "midi": 64,
        "time": 105.563,
        "duration": 0.563,
        "velocity": 0.71,
        "hand": "right"
      },
      {
        "midi": 62,
        "time": 105.938,
        "duration": 0.563,
        "velocity": 0.71,
        "hand": "right"
      },
      {
        "midi": 64,
        "time": 105.938,
        "duration": 0.563,
        "velocity": 0.71,
        "hand": "right"
      },
      {
        "midi": 62,
        "time": 106.5,
        "duration": 0.563,
        "velocity": 0.71,
        "hand": "right"
      },
      {
        "midi": 64,
        "time": 106.5,
        "duration": 0.563,
        "velocity": 0.71,
        "hand": "right"
      },
      {
        "midi": 69,
        "time": 106.688,
        "duration": 0.188,
        "velocity": 0.54,
        "hand": "right"
      },
      {
        "midi": 59,
        "time": 107.063,
        "duration": 2.063,
        "velocity": 0.71,
        "hand": "left"
      },
      {
        "midi": 70,
        "time": 107.063,
        "duration": 0.563,
        "velocity": 0.54,
        "hand": "right"
      },
      {
        "midi": 62,
        "time": 107.438,
        "duration": 0.563,
        "velocity": 0.71,
        "hand": "right"
      },
      {
        "midi": 64,
        "time": 107.438,
        "duration": 0.563,
        "velocity": 0.71,
        "hand": "right"
      },
      {
        "midi": 71,
        "time": 107.438,
        "duration": 0.563,
        "velocity": 0.54,
        "hand": "right"
      },
      {
        "midi": 62,
        "time": 108,
        "duration": 0.563,
        "velocity": 0.71,
        "hand": "right"
      },
      {
        "midi": 64,
        "time": 108,
        "duration": 0.563,
        "velocity": 0.71,
        "hand": "right"
      },
      {
        "midi": 62,
        "time": 108.563,
        "duration": 0.563,
        "velocity": 0.71,
        "hand": "right"
      },
      {
        "midi": 64,
        "time": 108.563,
        "duration": 0.563,
        "velocity": 0.71,
        "hand": "right"
      },
      {
        "midi": 56,
        "time": 108.938,
        "duration": 2.063,
        "velocity": 0.71,
        "hand": "left"
      },
      {
        "midi": 77,
        "time": 108.938,
        "duration": 1.688,
        "velocity": 0.54,
        "hand": "right"
      },
      {
        "midi": 59,
        "time": 109.5,
        "duration": 0.563,
        "velocity": 0.71,
        "hand": "left"
      },
      {
        "midi": 62,
        "time": 109.5,
        "duration": 0.563,
        "velocity": 0.71,
        "hand": "right"
      },
      {
        "midi": 59,
        "time": 110.063,
        "duration": 0.563,
        "velocity": 0.71,
        "hand": "left"
      },
      {
        "midi": 62,
        "time": 110.063,
        "duration": 0.563,
        "velocity": 0.71,
        "hand": "right"
      },
      {
        "midi": 59,
        "time": 110.438,
        "duration": 0.563,
        "velocity": 0.71,
        "hand": "left"
      },
      {
        "midi": 62,
        "time": 110.438,
        "duration": 0.563,
        "velocity": 0.71,
        "hand": "right"
      },
      {
        "midi": 76,
        "time": 110.813,
        "duration": 0.188,
        "velocity": 0.54,
        "hand": "right"
      },
      {
        "midi": 77,
        "time": 110.813,
        "duration": 0.188,
        "velocity": 0.54,
        "hand": "right"
      },
      {
        "midi": 56,
        "time": 111,
        "duration": 2.063,
        "velocity": 0.71,
        "hand": "left"
      },
      {
        "midi": 79,
        "time": 111,
        "duration": 0.563,
        "velocity": 0.54,
        "hand": "right"
      },
      {
        "midi": 59,
        "time": 111.563,
        "duration": 0.563,
        "velocity": 0.71,
        "hand": "left"
      },
      {
        "midi": 62,
        "time": 111.563,
        "duration": 0.563,
        "velocity": 0.71,
        "hand": "right"
      },
      {
        "midi": 77,
        "time": 111.563,
        "duration": 0.563,
        "velocity": 0.54,
        "hand": "right"
      },
      {
        "midi": 59,
        "time": 111.938,
        "duration": 0.563,
        "velocity": 0.71,
        "hand": "left"
      },
      {
        "midi": 62,
        "time": 111.938,
        "duration": 0.563,
        "velocity": 0.71,
        "hand": "right"
      },
      {
        "midi": 76,
        "time": 111.938,
        "duration": 0.563,
        "velocity": 0.54,
        "hand": "right"
      },
      {
        "midi": 59,
        "time": 112.5,
        "duration": 0.563,
        "velocity": 0.71,
        "hand": "left"
      },
      {
        "midi": 62,
        "time": 112.5,
        "duration": 0.563,
        "velocity": 0.71,
        "hand": "right"
      },
      {
        "midi": 74,
        "time": 112.5,
        "duration": 0.563,
        "velocity": 0.54,
        "hand": "right"
      },
      {
        "midi": 55,
        "time": 113.063,
        "duration": 2.063,
        "velocity": 0.71,
        "hand": "left"
      },
      {
        "midi": 73,
        "time": 113.063,
        "duration": 0.938,
        "velocity": 0.54,
        "hand": "right"
      },
      {
        "midi": 58,
        "time": 113.438,
        "duration": 0.563,
        "velocity": 0.71,
        "hand": "left"
      },
      {
        "midi": 64,
        "time": 113.438,
        "duration": 0.563,
        "velocity": 0.71,
        "hand": "right"
      },
      {
        "midi": 58,
        "time": 114,
        "duration": 0.563,
        "velocity": 0.71,
        "hand": "left"
      },
      {
        "midi": 64,
        "time": 114,
        "duration": 0.563,
        "velocity": 0.71,
        "hand": "right"
      },
      {
        "midi": 58,
        "time": 114.563,
        "duration": 0.563,
        "velocity": 0.71,
        "hand": "left"
      },
      {
        "midi": 64,
        "time": 114.563,
        "duration": 0.563,
        "velocity": 0.71,
        "hand": "right"
      },
      {
        "midi": 74,
        "time": 114.75,
        "duration": 0.188,
        "velocity": 0.54,
        "hand": "right"
      },
      {
        "midi": 55,
        "time": 114.938,
        "duration": 2.063,
        "velocity": 0.71,
        "hand": "left"
      },
      {
        "midi": 75,
        "time": 114.938,
        "duration": 0.563,
        "velocity": 0.54,
        "hand": "right"
      },
      {
        "midi": 58,
        "time": 115.5,
        "duration": 0.563,
        "velocity": 0.71,
        "hand": "left"
      },
      {
        "midi": 61,
        "time": 115.5,
        "duration": 0.563,
        "velocity": 0.71,
        "hand": "right"
      },
      {
        "midi": 76,
        "time": 115.5,
        "duration": 0.563,
        "velocity": 0.54,
        "hand": "right"
      },
      {
        "midi": 58,
        "time": 116.063,
        "duration": 0.563,
        "velocity": 0.71,
        "hand": "left"
      },
      {
        "midi": 61,
        "time": 116.063,
        "duration": 0.563,
        "velocity": 0.71,
        "hand": "right"
      },
      {
        "midi": 58,
        "time": 116.438,
        "duration": 0.563,
        "velocity": 0.71,
        "hand": "left"
      },
      {
        "midi": 61,
        "time": 116.438,
        "duration": 0.563,
        "velocity": 0.71,
        "hand": "right"
      },
      {
        "midi": 77,
        "time": 116.813,
        "duration": 0.188,
        "velocity": 0.54,
        "hand": "right"
      },
      {
        "midi": 52,
        "time": 117,
        "duration": 2.063,
        "velocity": 0.71,
        "hand": "left"
      },
      {
        "midi": 78,
        "time": 117,
        "duration": 0.563,
        "velocity": 0.54,
        "hand": "right"
      },
      {
        "midi": 58,
        "time": 117.563,
        "duration": 0.563,
        "velocity": 0.71,
        "hand": "left"
      },
      {
        "midi": 61,
        "time": 117.563,
        "duration": 0.563,
        "velocity": 0.71,
        "hand": "right"
      },
      {
        "midi": 79,
        "time": 117.563,
        "duration": 0.563,
        "velocity": 0.6,
        "hand": "right"
      },
      {
        "midi": 58,
        "time": 117.938,
        "duration": 0.563,
        "velocity": 0.71,
        "hand": "left"
      },
      {
        "midi": 61,
        "time": 117.938,
        "duration": 0.563,
        "velocity": 0.71,
        "hand": "right"
      },
      {
        "midi": 58,
        "time": 118.5,
        "duration": 0.563,
        "velocity": 0.71,
        "hand": "left"
      },
      {
        "midi": 61,
        "time": 118.5,
        "duration": 0.563,
        "velocity": 0.71,
        "hand": "right"
      },
      {
        "midi": 81,
        "time": 118.688,
        "duration": 0.188,
        "velocity": 0.72,
        "hand": "right"
      },
      {
        "midi": 49,
        "time": 119.063,
        "duration": 0.938,
        "velocity": 0.71,
        "hand": "left"
      },
      {
        "midi": 52,
        "time": 119.063,
        "duration": 0.938,
        "velocity": 0.71,
        "hand": "left"
      },
      {
        "midi": 55,
        "time": 119.063,
        "duration": 0.938,
        "velocity": 0.71,
        "hand": "left"
      },
      {
        "midi": 84,
        "time": 119.063,
        "duration": 0.563,
        "velocity": 0.75,
        "hand": "right"
      },
      {
        "midi": 82,
        "time": 119.438,
        "duration": 0.563,
        "velocity": 0.75,
        "hand": "right"
      },
      {
        "midi": 81,
        "time": 121.125,
        "duration": 0.188,
        "velocity": 0.75,
        "hand": "right"
      },
      {
        "midi": 83,
        "time": 121.313,
        "duration": 0.188,
        "velocity": 0.75,
        "hand": "right"
      },
      {
        "midi": 84,
        "time": 121.313,
        "duration": 0.188,
        "velocity": 0.75,
        "hand": "right"
      },
      {
        "midi": 79,
        "time": 121.5,
        "duration": 0.188,
        "velocity": 0.75,
        "hand": "right"
      },
      {
        "midi": 81,
        "time": 121.5,
        "duration": 0.188,
        "velocity": 0.75,
        "hand": "right"
      },
      {
        "midi": 77,
        "time": 121.688,
        "duration": 0.188,
        "velocity": 0.75,
        "hand": "right"
      },
      {
        "midi": 74,
        "time": 121.875,
        "duration": 0.188,
        "velocity": 0.75,
        "hand": "right"
      },
      {
        "midi": 76,
        "time": 121.875,
        "duration": 0.188,
        "velocity": 0.75,
        "hand": "right"
      },
      {
        "midi": 73,
        "time": 122.063,
        "duration": 0.188,
        "velocity": 0.75,
        "hand": "right"
      },
      {
        "midi": 76,
        "time": 122.063,
        "duration": 0.188,
        "velocity": 0.75,
        "hand": "right"
      },
      {
        "midi": 69,
        "time": 122.25,
        "duration": 0.188,
        "velocity": 0.75,
        "hand": "right"
      },
      {
        "midi": 70,
        "time": 122.438,
        "duration": 0.188,
        "velocity": 0.75,
        "hand": "right"
      },
      {
        "midi": 72,
        "time": 122.438,
        "duration": 0.188,
        "velocity": 0.75,
        "hand": "right"
      },
      {
        "midi": 69,
        "time": 122.625,
        "duration": 0.188,
        "velocity": 0.75,
        "hand": "right"
      },
      {
        "midi": 65,
        "time": 122.813,
        "duration": 0.188,
        "velocity": 0.75,
        "hand": "right"
      },
      {
        "midi": 67,
        "time": 122.813,
        "duration": 0.188,
        "velocity": 0.75,
        "hand": "right"
      },
      {
        "midi": 62,
        "time": 123,
        "duration": 0.188,
        "velocity": 0.75,
        "hand": "right"
      },
      {
        "midi": 64,
        "time": 123,
        "duration": 0.188,
        "velocity": 0.75,
        "hand": "right"
      },
      {
        "midi": 61,
        "time": 123.188,
        "duration": 0.188,
        "velocity": 0.75,
        "hand": "right"
      },
      {
        "midi": 57,
        "time": 123.375,
        "duration": 0.188,
        "velocity": 0.75,
        "hand": "left"
      },
      {
        "midi": 64,
        "time": 123.375,
        "duration": 0.188,
        "velocity": 0.75,
        "hand": "right"
      },
      {
        "midi": 58,
        "time": 123.563,
        "duration": 0.188,
        "velocity": 0.75,
        "hand": "left"
      },
      {
        "midi": 60,
        "time": 123.563,
        "duration": 0.188,
        "velocity": 0.75,
        "hand": "right"
      },
      {
        "midi": 57,
        "time": 123.75,
        "duration": 0.188,
        "velocity": 0.75,
        "hand": "left"
      },
      {
        "midi": 53,
        "time": 123.938,
        "duration": 0.188,
        "velocity": 0.75,
        "hand": "left"
      },
      {
        "midi": 55,
        "time": 123.938,
        "duration": 0.188,
        "velocity": 0.75,
        "hand": "left"
      },
      {
        "midi": 52,
        "time": 124.125,
        "duration": 0.188,
        "velocity": 0.75,
        "hand": "left"
      },
      {
        "midi": 49,
        "time": 124.313,
        "duration": 0.188,
        "velocity": 0.75,
        "hand": "left"
      },
      {
        "midi": 50,
        "time": 124.313,
        "duration": 0.188,
        "velocity": 0.75,
        "hand": "left"
      },
      {
        "midi": 45,
        "time": 124.5,
        "duration": 0.188,
        "velocity": 0.75,
        "hand": "left"
      },
      {
        "midi": 52,
        "time": 124.5,
        "duration": 0.188,
        "velocity": 0.75,
        "hand": "left"
      },
      {
        "midi": 48,
        "time": 124.688,
        "duration": 0.188,
        "velocity": 0.75,
        "hand": "left"
      },
      {
        "midi": 45,
        "time": 124.875,
        "duration": 0.188,
        "velocity": 0.75,
        "hand": "left"
      },
      {
        "midi": 46,
        "time": 124.875,
        "duration": 0.188,
        "velocity": 0.75,
        "hand": "left"
      },
      {
        "midi": 36,
        "time": 125.063,
        "duration": 0.188,
        "velocity": 0.71,
        "hand": "left"
      },
      {
        "midi": 43,
        "time": 125.063,
        "duration": 0.188,
        "velocity": 0.75,
        "hand": "left"
      },
      {
        "midi": 39,
        "time": 125.25,
        "duration": 0.188,
        "velocity": 0.71,
        "hand": "left"
      },
      {
        "midi": 42,
        "time": 125.438,
        "duration": 0.188,
        "velocity": 0.71,
        "hand": "left"
      },
      {
        "midi": 45,
        "time": 125.438,
        "duration": 0.188,
        "velocity": 0.71,
        "hand": "left"
      },
      {
        "midi": 48,
        "time": 125.625,
        "duration": 0.188,
        "velocity": 0.75,
        "hand": "left"
      },
      {
        "midi": 51,
        "time": 125.813,
        "duration": 0.188,
        "velocity": 0.75,
        "hand": "left"
      },
      {
        "midi": 54,
        "time": 125.813,
        "duration": 0.188,
        "velocity": 0.75,
        "hand": "left"
      },
      {
        "midi": 57,
        "time": 126,
        "duration": 0.188,
        "velocity": 0.75,
        "hand": "left"
      },
      {
        "midi": 60,
        "time": 126,
        "duration": 0.188,
        "velocity": 0.71,
        "hand": "right"
      },
      {
        "midi": 63,
        "time": 126.188,
        "duration": 0.188,
        "velocity": 0.71,
        "hand": "right"
      },
      {
        "midi": 66,
        "time": 126.375,
        "duration": 0.188,
        "velocity": 0.71,
        "hand": "right"
      },
      {
        "midi": 69,
        "time": 126.375,
        "duration": 0.188,
        "velocity": 0.71,
        "hand": "right"
      },
      {
        "midi": 72,
        "time": 126.563,
        "duration": 0.188,
        "velocity": 0.75,
        "hand": "right"
      },
      {
        "midi": 75,
        "time": 126.563,
        "duration": 0.188,
        "velocity": 0.75,
        "hand": "right"
      },
      {
        "midi": 78,
        "time": 126.75,
        "duration": 0.188,
        "velocity": 0.75,
        "hand": "right"
      },
      {
        "midi": 81,
        "time": 126.938,
        "duration": 0.188,
        "velocity": 0.75,
        "hand": "right"
      },
      {
        "midi": 84,
        "time": 126.938,
        "duration": 0.188,
        "velocity": 0.75,
        "hand": "right"
      },
      {
        "midi": 87,
        "time": 127.125,
        "duration": 0.188,
        "velocity": 0.75,
        "hand": "right"
      },
      {
        "midi": 62,
        "time": 127.875,
        "duration": 0.563,
        "velocity": 0.75,
        "hand": "right"
      },
      {
        "midi": 62,
        "time": 128.438,
        "duration": 0.563,
        "velocity": 0.75,
        "hand": "right"
      },
      {
        "midi": 62,
        "time": 128.813,
        "duration": 0.563,
        "velocity": 0.75,
        "hand": "right"
      },
      {
        "midi": 62,
        "time": 129.375,
        "duration": 0.563,
        "velocity": 0.75,
        "hand": "right"
      },
      {
        "midi": 62,
        "time": 129.938,
        "duration": 0.563,
        "velocity": 0.75,
        "hand": "right"
      },
      {
        "midi": 62,
        "time": 130.313,
        "duration": 0.563,
        "velocity": 0.75,
        "hand": "right"
      },
      {
        "midi": 43,
        "time": 130.875,
        "duration": 0.938,
        "velocity": 0.71,
        "hand": "left"
      },
      {
        "midi": 55,
        "time": 130.875,
        "duration": 0.938,
        "velocity": 0.71,
        "hand": "left"
      },
      {
        "midi": 58,
        "time": 130.875,
        "duration": 0.938,
        "velocity": 0.75,
        "hand": "left"
      },
      {
        "midi": 62,
        "time": 130.875,
        "duration": 0.563,
        "velocity": 0.75,
        "hand": "right"
      },
      {
        "midi": 62,
        "time": 131.438,
        "duration": 0.563,
        "velocity": 0.75,
        "hand": "right"
      },
      {
        "midi": 42,
        "time": 131.813,
        "duration": 0.938,
        "velocity": 0.71,
        "hand": "left"
      },
      {
        "midi": 54,
        "time": 131.813,
        "duration": 0.938,
        "velocity": 0.71,
        "hand": "left"
      },
      {
        "midi": 57,
        "time": 131.813,
        "duration": 0.938,
        "velocity": 0.75,
        "hand": "left"
      },
      {
        "midi": 62,
        "time": 131.813,
        "duration": 0.563,
        "velocity": 0.75,
        "hand": "right"
      },
      {
        "midi": 62,
        "time": 132.375,
        "duration": 0.563,
        "velocity": 0.75,
        "hand": "right"
      },
      {
        "midi": 41,
        "time": 132.938,
        "duration": 0.938,
        "velocity": 0.71,
        "hand": "left"
      },
      {
        "midi": 53,
        "time": 132.938,
        "duration": 0.938,
        "velocity": 0.71,
        "hand": "left"
      },
      {
        "midi": 56,
        "time": 132.938,
        "duration": 0.938,
        "velocity": 0.75,
        "hand": "left"
      },
      {
        "midi": 62,
        "time": 132.938,
        "duration": 0.563,
        "velocity": 0.75,
        "hand": "right"
      },
      {
        "midi": 62,
        "time": 133.313,
        "duration": 0.563,
        "velocity": 0.75,
        "hand": "right"
      },
      {
        "midi": 40,
        "time": 133.875,
        "duration": 0.938,
        "velocity": 0.71,
        "hand": "left"
      },
      {
        "midi": 52,
        "time": 133.875,
        "duration": 0.938,
        "velocity": 0.71,
        "hand": "left"
      },
      {
        "midi": 55,
        "time": 133.875,
        "duration": 0.938,
        "velocity": 0.75,
        "hand": "left"
      },
      {
        "midi": 62,
        "time": 133.875,
        "duration": 0.563,
        "velocity": 0.75,
        "hand": "right"
      },
      {
        "midi": 61,
        "time": 134.438,
        "duration": 0.563,
        "velocity": 0.75,
        "hand": "right"
      },
      {
        "midi": 39,
        "time": 134.813,
        "duration": 0.938,
        "velocity": 0.71,
        "hand": "left"
      },
      {
        "midi": 51,
        "time": 134.813,
        "duration": 0.938,
        "velocity": 0.71,
        "hand": "left"
      },
      {
        "midi": 61,
        "time": 134.813,
        "duration": 0.938,
        "velocity": 0.75,
        "hand": "right"
      },
      {
        "midi": 67,
        "time": 134.813,
        "duration": 0.563,
        "velocity": 0.75,
        "hand": "right"
      },
      {
        "midi": 67,
        "time": 135.375,
        "duration": 0.563,
        "velocity": 0.75,
        "hand": "right"
      },
      {
        "midi": 38,
        "time": 135.938,
        "duration": 3,
        "velocity": 0.71,
        "hand": "left"
      },
      {
        "midi": 50,
        "time": 135.938,
        "duration": 3,
        "velocity": 0.71,
        "hand": "left"
      },
      {
        "midi": 61,
        "time": 135.938,
        "duration": 2.063,
        "velocity": 0.75,
        "hand": "right"
      },
      {
        "midi": 67,
        "time": 135.938,
        "duration": 1.5,
        "velocity": 0.75,
        "hand": "right"
      },
      {
        "midi": 66,
        "time": 137.438,
        "duration": 0.188,
        "velocity": 0.75,
        "hand": "right"
      },
      {
        "midi": 67,
        "time": 137.438,
        "duration": 0.188,
        "velocity": 0.75,
        "hand": "right"
      },
      {
        "midi": 69,
        "time": 137.625,
        "duration": 0.188,
        "velocity": 0.75,
        "hand": "right"
      },
      {
        "midi": 62,
        "time": 137.813,
        "duration": 0.938,
        "velocity": 0.75,
        "hand": "right"
      },
      {
        "midi": 66,
        "time": 137.813,
        "duration": 0.938,
        "velocity": 0.75,
        "hand": "right"
      },
      {
        "midi": 67,
        "time": 137.813,
        "duration": 0.188,
        "velocity": 0.75,
        "hand": "right"
      },
      {
        "midi": 69,
        "time": 139.688,
        "duration": 0.188,
        "velocity": 0.54,
        "hand": "right"
      },
      {
        "midi": 67,
        "time": 139.875,
        "duration": 0.188,
        "velocity": 0.54,
        "hand": "right"
      },
      {
        "midi": 66,
        "time": 140.063,
        "duration": 0.188,
        "velocity": 0.54,
        "hand": "right"
      },
      {
        "midi": 60,
        "time": 140.438,
        "duration": 0.563,
        "velocity": 0.71,
        "hand": "right"
      },
      {
        "midi": 63,
        "time": 140.438,
        "duration": 0.563,
        "velocity": 0.71,
        "hand": "right"
      },
      {
        "midi": 69,
        "time": 140.625,
        "duration": 0.188,
        "velocity": 0.54,
        "hand": "right"
      },
      {
        "midi": 60,
        "time": 140.813,
        "duration": 0.563,
        "velocity": 0.71,
        "hand": "right"
      },
      {
        "midi": 63,
        "time": 140.813,
        "duration": 0.563,
        "velocity": 0.71,
        "hand": "right"
      },
      {
        "midi": 67,
        "time": 140.813,
        "duration": 0.188,
        "velocity": 0.54,
        "hand": "right"
      },
      {
        "midi": 66,
        "time": 141.188,
        "duration": 0.188,
        "velocity": 0.54,
        "hand": "right"
      },
      {
        "midi": 60,
        "time": 141.375,
        "duration": 0.563,
        "velocity": 0.71,
        "hand": "right"
      },
      {
        "midi": 63,
        "time": 141.375,
        "duration": 0.563,
        "velocity": 0.71,
        "hand": "right"
      },
      {
        "midi": 69,
        "time": 141.563,
        "duration": 0.188,
        "velocity": 0.54,
        "hand": "right"
      },
      {
        "midi": 60,
        "time": 141.938,
        "duration": 0.563,
        "velocity": 0.71,
        "hand": "right"
      },
      {
        "midi": 63,
        "time": 141.938,
        "duration": 0.563,
        "velocity": 0.71,
        "hand": "right"
      },
      {
        "midi": 67,
        "time": 141.938,
        "duration": 0.188,
        "velocity": 0.54,
        "hand": "right"
      },
      {
        "midi": 66,
        "time": 142.125,
        "duration": 0.188,
        "velocity": 0.54,
        "hand": "right"
      },
      {
        "midi": 60,
        "time": 142.313,
        "duration": 0.563,
        "velocity": 0.71,
        "hand": "right"
      },
      {
        "midi": 63,
        "time": 142.313,
        "duration": 0.563,
        "velocity": 0.71,
        "hand": "right"
      },
      {
        "midi": 69,
        "time": 142.688,
        "duration": 0.188,
        "velocity": 0.54,
        "hand": "right"
      },
      {
        "midi": 60,
        "time": 142.875,
        "duration": 0.563,
        "velocity": 0.71,
        "hand": "right"
      },
      {
        "midi": 63,
        "time": 142.875,
        "duration": 0.563,
        "velocity": 0.71,
        "hand": "right"
      },
      {
        "midi": 72,
        "time": 143.063,
        "duration": 0.188,
        "velocity": 0.54,
        "hand": "right"
      },
      {
        "midi": 60,
        "time": 143.438,
        "duration": 0.563,
        "velocity": 0.71,
        "hand": "right"
      },
      {
        "midi": 63,
        "time": 143.438,
        "duration": 0.563,
        "velocity": 0.71,
        "hand": "right"
      },
      {
        "midi": 66,
        "time": 143.625,
        "duration": 0.188,
        "velocity": 0.54,
        "hand": "right"
      },
      {
        "midi": 69,
        "time": 143.813,
        "duration": 0.188,
        "velocity": 0.54,
        "hand": "right"
      },
      {
        "midi": 67,
        "time": 144.188,
        "duration": 0.188,
        "velocity": 0.54,
        "hand": "right"
      },
      {
        "midi": 58,
        "time": 144.375,
        "duration": 0.563,
        "velocity": 0.71,
        "hand": "left"
      },
      {
        "midi": 62,
        "time": 144.375,
        "duration": 0.563,
        "velocity": 0.71,
        "hand": "right"
      },
      {
        "midi": 70,
        "time": 144.563,
        "duration": 0.188,
        "velocity": 0.54,
        "hand": "right"
      },
      {
        "midi": 58,
        "time": 144.938,
        "duration": 0.563,
        "velocity": 0.71,
        "hand": "left"
      },
      {
        "midi": 62,
        "time": 144.938,
        "duration": 0.563,
        "velocity": 0.71,
        "hand": "right"
      },
      {
        "midi": 69,
        "time": 144.938,
        "duration": 0.188,
        "velocity": 0.54,
        "hand": "right"
      },
      {
        "midi": 67,
        "time": 145.125,
        "duration": 0.188,
        "velocity": 0.54,
        "hand": "right"
      },
      {
        "midi": 58,
        "time": 145.313,
        "duration": 0.563,
        "velocity": 0.71,
        "hand": "left"
      },
      {
        "midi": 62,
        "time": 145.313,
        "duration": 0.563,
        "velocity": 0.71,
        "hand": "right"
      },
      {
        "midi": 70,
        "time": 145.688,
        "duration": 0.188,
        "velocity": 0.54,
        "hand": "right"
      },
      {
        "midi": 58,
        "time": 145.875,
        "duration": 0.563,
        "velocity": 0.71,
        "hand": "left"
      },
      {
        "midi": 62,
        "time": 145.875,
        "duration": 0.563,
        "velocity": 0.71,
        "hand": "right"
      },
      {
        "midi": 69,
        "time": 145.875,
        "duration": 0.188,
        "velocity": 0.54,
        "hand": "right"
      },
      {
        "midi": 67,
        "time": 146.063,
        "duration": 0.188,
        "velocity": 0.54,
        "hand": "right"
      },
      {
        "midi": 58,
        "time": 146.438,
        "duration": 0.563,
        "velocity": 0.71,
        "hand": "left"
      },
      {
        "midi": 62,
        "time": 146.438,
        "duration": 0.563,
        "velocity": 0.71,
        "hand": "right"
      },
      {
        "midi": 70,
        "time": 146.625,
        "duration": 0.188,
        "velocity": 0.54,
        "hand": "right"
      },
      {
        "midi": 58,
        "time": 146.813,
        "duration": 0.563,
        "velocity": 0.71,
        "hand": "left"
      },
      {
        "midi": 62,
        "time": 146.813,
        "duration": 0.563,
        "velocity": 0.71,
        "hand": "right"
      },
      {
        "midi": 74,
        "time": 147.188,
        "duration": 0.188,
        "velocity": 0.54,
        "hand": "right"
      },
      {
        "midi": 58,
        "time": 147.375,
        "duration": 0.563,
        "velocity": 0.71,
        "hand": "left"
      },
      {
        "midi": 62,
        "time": 147.375,
        "duration": 0.563,
        "velocity": 0.71,
        "hand": "right"
      },
      {
        "midi": 67,
        "time": 147.563,
        "duration": 0.188,
        "velocity": 0.54,
        "hand": "right"
      },
      {
        "midi": 70,
        "time": 147.938,
        "duration": 0.188,
        "velocity": 0.54,
        "hand": "right"
      },
      {
        "midi": 69,
        "time": 148.125,
        "duration": 0.188,
        "velocity": 0.54,
        "hand": "right"
      },
      {
        "midi": 54,
        "time": 148.313,
        "duration": 0.563,
        "velocity": 0.71,
        "hand": "left"
      },
      {
        "midi": 62,
        "time": 148.313,
        "duration": 0.563,
        "velocity": 0.71,
        "hand": "right"
      },
      {
        "midi": 72,
        "time": 148.688,
        "duration": 0.188,
        "velocity": 0.54,
        "hand": "right"
      },
      {
        "midi": 54,
        "time": 148.875,
        "duration": 0.563,
        "velocity": 0.71,
        "hand": "left"
      },
      {
        "midi": 62,
        "time": 148.875,
        "duration": 0.563,
        "velocity": 0.71,
        "hand": "right"
      },
      {
        "midi": 70,
        "time": 148.875,
        "duration": 0.188,
        "velocity": 0.54,
        "hand": "right"
      },
      {
        "midi": 69,
        "time": 149.063,
        "duration": 0.188,
        "velocity": 0.54,
        "hand": "right"
      },
      {
        "midi": 54,
        "time": 149.438,
        "duration": 0.563,
        "velocity": 0.71,
        "hand": "left"
      },
      {
        "midi": 62,
        "time": 149.438,
        "duration": 0.563,
        "velocity": 0.71,
        "hand": "right"
      },
      {
        "midi": 72,
        "time": 149.625,
        "duration": 0.188,
        "velocity": 0.54,
        "hand": "right"
      },
      {
        "midi": 54,
        "time": 149.813,
        "duration": 0.563,
        "velocity": 0.71,
        "hand": "left"
      },
      {
        "midi": 62,
        "time": 149.813,
        "duration": 0.563,
        "velocity": 0.71,
        "hand": "right"
      },
      {
        "midi": 70,
        "time": 149.813,
        "duration": 0.188,
        "velocity": 0.54,
        "hand": "right"
      },
      {
        "midi": 69,
        "time": 150.188,
        "duration": 0.188,
        "velocity": 0.54,
        "hand": "right"
      },
      {
        "midi": 54,
        "time": 150.375,
        "duration": 0.563,
        "velocity": 0.71,
        "hand": "left"
      },
      {
        "midi": 62,
        "time": 150.375,
        "duration": 0.563,
        "velocity": 0.71,
        "hand": "right"
      },
      {
        "midi": 72,
        "time": 150.563,
        "duration": 0.188,
        "velocity": 0.54,
        "hand": "right"
      },
      {
        "midi": 54,
        "time": 150.938,
        "duration": 0.563,
        "velocity": 0.71,
        "hand": "left"
      },
      {
        "midi": 62,
        "time": 150.938,
        "duration": 0.563,
        "velocity": 0.71,
        "hand": "right"
      },
      {
        "midi": 75,
        "time": 151.125,
        "duration": 0.188,
        "velocity": 0.54,
        "hand": "right"
      },
      {
        "midi": 54,
        "time": 151.313,
        "duration": 0.563,
        "velocity": 0.71,
        "hand": "left"
      },
      {
        "midi": 62,
        "time": 151.313,
        "duration": 0.563,
        "velocity": 0.71,
        "hand": "right"
      },
      {
        "midi": 69,
        "time": 151.688,
        "duration": 0.188,
        "velocity": 0.54,
        "hand": "right"
      },
      {
        "midi": 55,
        "time": 151.875,
        "duration": 0.563,
        "velocity": 0.71,
        "hand": "left"
      },
      {
        "midi": 62,
        "time": 151.875,
        "duration": 0.563,
        "velocity": 0.71,
        "hand": "right"
      },
      {
        "midi": 72,
        "time": 151.875,
        "duration": 0.188,
        "velocity": 0.54,
        "hand": "right"
      },
      {
        "midi": 70,
        "time": 152.063,
        "duration": 0.188,
        "velocity": 0.54,
        "hand": "right"
      },
      {
        "midi": 55,
        "time": 152.438,
        "duration": 0.563,
        "velocity": 0.71,
        "hand": "left"
      },
      {
        "midi": 58,
        "time": 152.438,
        "duration": 0.563,
        "velocity": 0.71,
        "hand": "left"
      },
      {
        "midi": 79,
        "time": 152.625,
        "duration": 0.188,
        "velocity": 0.54,
        "hand": "right"
      },
      {
        "midi": 57,
        "time": 152.813,
        "duration": 0.563,
        "velocity": 0.71,
        "hand": "left"
      },
      {
        "midi": 60,
        "time": 152.813,
        "duration": 0.563,
        "velocity": 0.71,
        "hand": "right"
      },
      {
        "midi": 78,
        "time": 153.188,
        "duration": 0.188,
        "velocity": 0.57,
        "hand": "right"
      },
      {
        "midi": 59,
        "time": 153.375,
        "duration": 0.563,
        "velocity": 0.71,
        "hand": "left"
      },
      {
        "midi": 62,
        "time": 153.375,
        "duration": 0.563,
        "velocity": 0.71,
        "hand": "right"
      },
      {
        "midi": 77,
        "time": 153.563,
        "duration": 0.188,
        "velocity": 0.62,
        "hand": "right"
      },
      {
        "midi": 60,
        "time": 153.938,
        "duration": 0.563,
        "velocity": 0.71,
        "hand": "right"
      },
      {
        "midi": 63,
        "time": 153.938,
        "duration": 0.563,
        "velocity": 0.71,
        "hand": "right"
      },
      {
        "midi": 75,
        "time": 154.125,
        "duration": 0.188,
        "velocity": 0.67,
        "hand": "right"
      },
      {
        "midi": 62,
        "time": 154.313,
        "duration": 0.563,
        "velocity": 0.71,
        "hand": "right"
      },
      {
        "midi": 66,
        "time": 154.313,
        "duration": 0.563,
        "velocity": 0.71,
        "hand": "right"
      },
      {
        "midi": 74,
        "time": 154.688,
        "duration": 0.188,
        "velocity": 0.72,
        "hand": "right"
      },
      {
        "midi": 64,
        "time": 154.875,
        "duration": 0.563,
        "velocity": 0.71,
        "hand": "right"
      },
      {
        "midi": 67,
        "time": 154.875,
        "duration": 0.563,
        "velocity": 0.71,
        "hand": "right"
      },
      {
        "midi": 73,
        "time": 155.063,
        "duration": 0.188,
        "velocity": 0.75,
        "hand": "right"
      },
      {
        "midi": 66,
        "time": 155.438,
        "duration": 0.563,
        "velocity": 0.71,
        "hand": "right"
      },
      {
        "midi": 69,
        "time": 155.438,
        "duration": 0.563,
        "velocity": 0.71,
        "hand": "right"
      },
      {
        "midi": 72,
        "time": 155.625,
        "duration": 0.188,
        "velocity": 0.54,
        "hand": "right"
      },
      {
        "midi": 67,
        "time": 155.813,
        "duration": 0.563,
        "velocity": 0.71,
        "hand": "right"
      },
      {
        "midi": 70,
        "time": 155.813,
        "duration": 0.188,
        "velocity": 0.54,
        "hand": "right"
      },
      {
        "midi": 74,
        "time": 156.188,
        "duration": 0.188,
        "velocity": 0.54,
        "hand": "right"
      },
      {
        "midi": 55,
        "time": 156.375,
        "duration": 0.563,
        "velocity": 0.71,
        "hand": "left"
      },
      {
        "midi": 58,
        "time": 156.375,
        "duration": 0.563,
        "velocity": 0.71,
        "hand": "left"
      },
      {
        "midi": 79,
        "time": 156.563,
        "duration": 0.188,
        "velocity": 0.54,
        "hand": "right"
      },
      {
        "midi": 57,
        "time": 156.938,
        "duration": 0.563,
        "velocity": 0.71,
        "hand": "left"
      },
      {
        "midi": 60,
        "time": 156.938,
        "duration": 0.563,
        "velocity": 0.71,
        "hand": "right"
      },
      {
        "midi": 78,
        "time": 157.125,
        "duration": 0.188,
        "velocity": 0.54,
        "hand": "right"
      },
      {
        "midi": 59,
        "time": 157.313,
        "duration": 0.563,
        "velocity": 0.71,
        "hand": "left"
      },
      {
        "midi": 62,
        "time": 157.313,
        "duration": 0.563,
        "velocity": 0.71,
        "hand": "right"
      },
      {
        "midi": 77,
        "time": 157.688,
        "duration": 0.188,
        "velocity": 0.54,
        "hand": "right"
      },
      {
        "midi": 60,
        "time": 157.875,
        "duration": 0.563,
        "velocity": 0.71,
        "hand": "right"
      },
      {
        "midi": 67,
        "time": 157.875,
        "duration": 0.563,
        "velocity": 0.71,
        "hand": "right"
      },
      {
        "midi": 74,
        "time": 157.875,
        "duration": 0.188,
        "velocity": 0.54,
        "hand": "right"
      },
      {
        "midi": 75,
        "time": 158.063,
        "duration": 0.188,
        "velocity": 0.54,
        "hand": "right"
      },
      {
        "midi": 58,
        "time": 158.438,
        "duration": 0.563,
        "velocity": 0.71,
        "hand": "left"
      },
      {
        "midi": 61,
        "time": 158.438,
        "duration": 0.563,
        "velocity": 0.71,
        "hand": "right"
      },
      {
        "midi": 76,
        "time": 158.625,
        "duration": 0.188,
        "velocity": 0.54,
        "hand": "right"
      },
      {
        "midi": 57,
        "time": 158.813,
        "duration": 0.563,
        "velocity": 0.71,
        "hand": "left"
      },
      {
        "midi": 60,
        "time": 158.813,
        "duration": 0.563,
        "velocity": 0.71,
        "hand": "right"
      },
      {
        "midi": 79,
        "time": 158.813,
        "duration": 0.188,
        "velocity": 0.54,
        "hand": "right"
      },
      {
        "midi": 77,
        "time": 159.188,
        "duration": 0.188,
        "velocity": 0.54,
        "hand": "right"
      },
      {
        "midi": 60,
        "time": 159.375,
        "duration": 0.563,
        "velocity": 0.71,
        "hand": "right"
      },
      {
        "midi": 63,
        "time": 159.375,
        "duration": 0.563,
        "velocity": 0.71,
        "hand": "right"
      },
      {
        "midi": 78,
        "time": 159.563,
        "duration": 0.188,
        "velocity": 0.54,
        "hand": "right"
      },
      {
        "midi": 59,
        "time": 159.938,
        "duration": 0.563,
        "velocity": 0.71,
        "hand": "left"
      },
      {
        "midi": 62,
        "time": 159.938,
        "duration": 0.563,
        "velocity": 0.71,
        "hand": "right"
      },
      {
        "midi": 81,
        "time": 159.938,
        "duration": 0.188,
        "velocity": 0.54,
        "hand": "right"
      },
      {
        "midi": 79,
        "time": 160.125,
        "duration": 0.188,
        "velocity": 0.54,
        "hand": "right"
      },
      {
        "midi": 54,
        "time": 160.313,
        "duration": 0.563,
        "velocity": 0.71,
        "hand": "left"
      },
      {
        "midi": 62,
        "time": 160.313,
        "duration": 0.938,
        "velocity": 0.71,
        "hand": "right"
      },
      {
        "midi": 81,
        "time": 160.688,
        "duration": 0.188,
        "velocity": 0.54,
        "hand": "right"
      },
      {
        "midi": 55,
        "time": 160.875,
        "duration": 0.563,
        "velocity": 0.71,
        "hand": "left"
      },
      {
        "midi": 84,
        "time": 160.875,
        "duration": 0.188,
        "velocity": 0.54,
        "hand": "right"
      },
      {
        "midi": 82,
        "time": 161.063,
        "duration": 0.188,
        "velocity": 0.54,
        "hand": "right"
      },
      {
        "midi": 53,
        "time": 161.438,
        "duration": 0.563,
        "velocity": 0.71,
        "hand": "left"
      },
      {
        "midi": 56,
        "time": 161.438,
        "duration": 0.563,
        "velocity": 0.71,
        "hand": "left"
      },
      {
        "midi": 83,
        "time": 161.625,
        "duration": 0.188,
        "velocity": 0.54,
        "hand": "right"
      },
      {
        "midi": 52,
        "time": 161.813,
        "duration": 0.563,
        "velocity": 0.71,
        "hand": "left"
      },
      {
        "midi": 55,
        "time": 161.813,
        "duration": 0.563,
        "velocity": 0.71,
        "hand": "left"
      },
      {
        "midi": 86,
        "time": 161.813,
        "duration": 0.188,
        "velocity": 0.54,
        "hand": "right"
      },
      {
        "midi": 85,
        "time": 162.188,
        "duration": 0.188,
        "velocity": 0.54,
        "hand": "right"
      },
      {
        "midi": 50,
        "time": 162.375,
        "duration": 0.563,
        "velocity": 0.71,
        "hand": "left"
      },
      {
        "midi": 55,
        "time": 162.375,
        "duration": 0.563,
        "velocity": 0.71,
        "hand": "left"
      },
      {
        "midi": 58,
        "time": 162.375,
        "duration": 0.563,
        "velocity": 0.71,
        "hand": "left"
      },
      {
        "midi": 86,
        "time": 162.563,
        "duration": 0.188,
        "velocity": 0.54,
        "hand": "right"
      },
      {
        "midi": 49,
        "time": 162.938,
        "duration": 0.938,
        "velocity": 0.71,
        "hand": "left"
      },
      {
        "midi": 55,
        "time": 162.938,
        "duration": 0.938,
        "velocity": 0.71,
        "hand": "left"
      },
      {
        "midi": 58,
        "time": 162.938,
        "duration": 0.938,
        "velocity": 0.71,
        "hand": "left"
      },
      {
        "midi": 89,
        "time": 162.938,
        "duration": 0.563,
        "velocity": 0.54,
        "hand": "right"
      },
      {
        "midi": 88,
        "time": 163.313,
        "duration": 0.563,
        "velocity": 0.54,
        "hand": "right"
      },
      {
        "midi": 87,
        "time": 164.063,
        "duration": 0.188,
        "velocity": 0.54,
        "hand": "right"
      },
      {
        "midi": 88,
        "time": 164.063,
        "duration": 0.188,
        "velocity": 0.54,
        "hand": "right"
      },
      {
        "midi": 86,
        "time": 164.25,
        "duration": 0.188,
        "velocity": 0.54,
        "hand": "right"
      },
      {
        "midi": 83,
        "time": 164.438,
        "duration": 0.188,
        "velocity": 0.54,
        "hand": "right"
      },
      {
        "midi": 85,
        "time": 164.438,
        "duration": 0.188,
        "velocity": 0.54,
        "hand": "right"
      },
      {
        "midi": 81,
        "time": 164.625,
        "duration": 0.188,
        "velocity": 0.54,
        "hand": "right"
      },
      {
        "midi": 80,
        "time": 164.813,
        "duration": 0.188,
        "velocity": 0.54,
        "hand": "right"
      },
      {
        "midi": 82,
        "time": 164.813,
        "duration": 0.188,
        "velocity": 0.54,
        "hand": "right"
      },
      {
        "midi": 81,
        "time": 165,
        "duration": 0.188,
        "velocity": 0.54,
        "hand": "right"
      },
      {
        "midi": 82,
        "time": 165.188,
        "duration": 0.188,
        "velocity": 0.54,
        "hand": "right"
      },
      {
        "midi": 84,
        "time": 165.188,
        "duration": 0.188,
        "velocity": 0.54,
        "hand": "right"
      },
      {
        "midi": 81,
        "time": 165.375,
        "duration": 0.188,
        "velocity": 0.54,
        "hand": "right"
      },
      {
        "midi": 77,
        "time": 165.563,
        "duration": 0.188,
        "velocity": 0.54,
        "hand": "right"
      },
      {
        "midi": 79,
        "time": 165.563,
        "duration": 0.188,
        "velocity": 0.54,
        "hand": "right"
      },
      {
        "midi": 76,
        "time": 165.75,
        "duration": 0.188,
        "velocity": 0.54,
        "hand": "right"
      },
      {
        "midi": 73,
        "time": 165.938,
        "duration": 0.188,
        "velocity": 0.54,
        "hand": "right"
      },
      {
        "midi": 74,
        "time": 165.938,
        "duration": 0.188,
        "velocity": 0.54,
        "hand": "right"
      },
      {
        "midi": 71,
        "time": 166.125,
        "duration": 0.188,
        "velocity": 0.54,
        "hand": "right"
      },
      {
        "midi": 68,
        "time": 166.313,
        "duration": 0.188,
        "velocity": 0.54,
        "hand": "right"
      },
      {
        "midi": 69,
        "time": 166.313,
        "duration": 0.188,
        "velocity": 0.54,
        "hand": "right"
      },
      {
        "midi": 70,
        "time": 166.5,
        "duration": 0.188,
        "velocity": 0.54,
        "hand": "right"
      },
      {
        "midi": 69,
        "time": 166.688,
        "duration": 0.188,
        "velocity": 0.54,
        "hand": "right"
      },
      {
        "midi": 72,
        "time": 166.688,
        "duration": 0.188,
        "velocity": 0.54,
        "hand": "right"
      },
      {
        "midi": 70,
        "time": 166.875,
        "duration": 0.188,
        "velocity": 0.54,
        "hand": "right"
      },
      {
        "midi": 67,
        "time": 167.063,
        "duration": 0.188,
        "velocity": 0.54,
        "hand": "right"
      },
      {
        "midi": 69,
        "time": 167.063,
        "duration": 0.188,
        "velocity": 0.54,
        "hand": "right"
      },
      {
        "midi": 65,
        "time": 167.25,
        "duration": 0.188,
        "velocity": 0.54,
        "hand": "right"
      },
      {
        "midi": 62,
        "time": 167.438,
        "duration": 0.188,
        "velocity": 0.54,
        "hand": "right"
      },
      {
        "midi": 64,
        "time": 167.438,
        "duration": 0.188,
        "velocity": 0.54,
        "hand": "right"
      },
      {
        "midi": 61,
        "time": 167.625,
        "duration": 0.188,
        "velocity": 0.54,
        "hand": "right"
      },
      {
        "midi": 57,
        "time": 167.813,
        "duration": 0.188,
        "velocity": 0.54,
        "hand": "left"
      },
      {
        "midi": 59,
        "time": 167.813,
        "duration": 0.188,
        "velocity": 0.54,
        "hand": "left"
      },
      {
        "midi": 56,
        "time": 168,
        "duration": 0.188,
        "velocity": 0.54,
        "hand": "left"
      },
      {
        "midi": 57,
        "time": 168.188,
        "duration": 0.188,
        "velocity": 0.54,
        "hand": "left"
      },
      {
        "midi": 58,
        "time": 168.188,
        "duration": 0.188,
        "velocity": 0.54,
        "hand": "left"
      },
      {
        "midi": 60,
        "time": 168.375,
        "duration": 0.188,
        "velocity": 0.54,
        "hand": "right"
      },
      {
        "midi": 57,
        "time": 168.563,
        "duration": 0.188,
        "velocity": 0.54,
        "hand": "left"
      },
      {
        "midi": 58,
        "time": 168.563,
        "duration": 0.188,
        "velocity": 0.54,
        "hand": "left"
      },
      {
        "midi": 55,
        "time": 168.75,
        "duration": 0.188,
        "velocity": 0.54,
        "hand": "left"
      },
      {
        "midi": 52,
        "time": 168.938,
        "duration": 0.188,
        "velocity": 0.54,
        "hand": "left"
      },
      {
        "midi": 53,
        "time": 168.938,
        "duration": 0.188,
        "velocity": 0.54,
        "hand": "left"
      },
      {
        "midi": 50,
        "time": 169.125,
        "duration": 0.188,
        "velocity": 0.54,
        "hand": "left"
      },
      {
        "midi": 47,
        "time": 169.313,
        "duration": 0.188,
        "velocity": 0.54,
        "hand": "left"
      },
      {
        "midi": 49,
        "time": 169.313,
        "duration": 0.188,
        "velocity": 0.54,
        "hand": "left"
      },
      {
        "midi": 45,
        "time": 169.5,
        "duration": 0.188,
        "velocity": 0.54,
        "hand": "left"
      },
      {
        "midi": 44,
        "time": 169.688,
        "duration": 0.188,
        "velocity": 0.54,
        "hand": "left"
      },
      {
        "midi": 46,
        "time": 169.688,
        "duration": 0.188,
        "velocity": 0.54,
        "hand": "left"
      },
      {
        "midi": 45,
        "time": 169.875,
        "duration": 0.188,
        "velocity": 0.54,
        "hand": "left"
      },
      {
        "midi": 46,
        "time": 170.063,
        "duration": 0.188,
        "velocity": 0.54,
        "hand": "left"
      },
      {
        "midi": 48,
        "time": 170.063,
        "duration": 0.188,
        "velocity": 0.54,
        "hand": "left"
      },
      {
        "midi": 45,
        "time": 170.25,
        "duration": 0.188,
        "velocity": 0.54,
        "hand": "left"
      },
      {
        "midi": 41,
        "time": 170.438,
        "duration": 0.188,
        "velocity": 0.54,
        "hand": "left"
      },
      {
        "midi": 43,
        "time": 170.438,
        "duration": 0.188,
        "velocity": 0.54,
        "hand": "left"
      },
      {
        "midi": 40,
        "time": 170.625,
        "duration": 0.188,
        "velocity": 0.54,
        "hand": "left"
      },
      {
        "midi": 33,
        "time": 170.813,
        "duration": 2.063,
        "velocity": 0.71,
        "hand": "left"
      },
      {
        "midi": 38,
        "time": 170.813,
        "duration": 0.188,
        "velocity": 0.54,
        "hand": "left"
      },
      {
        "midi": 45,
        "time": 171.938,
        "duration": 1.313,
        "velocity": 0.54,
        "hand": "left"
      },
      {
        "midi": 47,
        "time": 173.063,
        "duration": 0.188,
        "velocity": 0.54,
        "hand": "left"
      },
      {
        "midi": 45,
        "time": 173.438,
        "duration": 0.188,
        "velocity": 0.54,
        "hand": "left"
      },
      {
        "midi": 44,
        "time": 173.625,
        "duration": 0.188,
        "velocity": 0.54,
        "hand": "left"
      },
      {
        "midi": 45,
        "time": 173.813,
        "duration": 0.563,
        "velocity": 0.54,
        "hand": "left"
      },
      {
        "midi": 46,
        "time": 174.375,
        "duration": 0.188,
        "velocity": 0.54,
        "hand": "left"
      },
      {
        "midi": 47,
        "time": 174.563,
        "duration": 0.188,
        "velocity": 0.54,
        "hand": "left"
      },
      {
        "midi": 48,
        "time": 174.563,
        "duration": 0.188,
        "velocity": 0.54,
        "hand": "left"
      },
      {
        "midi": 49,
        "time": 174.75,
        "duration": 0.188,
        "velocity": 0.54,
        "hand": "left"
      },
      {
        "midi": 50,
        "time": 174.938,
        "duration": 0.188,
        "velocity": 0.54,
        "hand": "left"
      },
      {
        "midi": 51,
        "time": 174.938,
        "duration": 0.188,
        "velocity": 0.54,
        "hand": "left"
      },
      {
        "midi": 52,
        "time": 175.125,
        "duration": 0.188,
        "velocity": 0.54,
        "hand": "left"
      },
      {
        "midi": 53,
        "time": 175.313,
        "duration": 0.188,
        "velocity": 0.54,
        "hand": "left"
      },
      {
        "midi": 54,
        "time": 175.313,
        "duration": 0.188,
        "velocity": 0.54,
        "hand": "left"
      },
      {
        "midi": 55,
        "time": 175.5,
        "duration": 0.188,
        "velocity": 0.54,
        "hand": "left"
      },
      {
        "midi": 56,
        "time": 175.688,
        "duration": 0.188,
        "velocity": 0.54,
        "hand": "left"
      },
      {
        "midi": 57,
        "time": 175.688,
        "duration": 0.188,
        "velocity": 0.54,
        "hand": "left"
      },
      {
        "midi": 58,
        "time": 175.875,
        "duration": 0.188,
        "velocity": 0.54,
        "hand": "left"
      },
      {
        "midi": 59,
        "time": 176.063,
        "duration": 0.188,
        "velocity": 0.54,
        "hand": "left"
      },
      {
        "midi": 60,
        "time": 176.063,
        "duration": 0.188,
        "velocity": 0.54,
        "hand": "right"
      },
      {
        "midi": 61,
        "time": 176.25,
        "duration": 0.188,
        "velocity": 0.54,
        "hand": "right"
      },
      {
        "midi": 62,
        "time": 176.438,
        "duration": 0.188,
        "velocity": 0.54,
        "hand": "right"
      },
      {
        "midi": 63,
        "time": 176.438,
        "duration": 0.188,
        "velocity": 0.54,
        "hand": "right"
      },
      {
        "midi": 64,
        "time": 176.625,
        "duration": 0.188,
        "velocity": 0.54,
        "hand": "right"
      },
      {
        "midi": 65,
        "time": 176.813,
        "duration": 0.188,
        "velocity": 0.54,
        "hand": "right"
      },
      {
        "midi": 66,
        "time": 176.813,
        "duration": 0.188,
        "velocity": 0.54,
        "hand": "right"
      },
      {
        "midi": 67,
        "time": 177,
        "duration": 0.188,
        "velocity": 0.54,
        "hand": "right"
      },
      {
        "midi": 68,
        "time": 177.188,
        "duration": 0.188,
        "velocity": 0.54,
        "hand": "right"
      },
      {
        "midi": 69,
        "time": 177.188,
        "duration": 0.188,
        "velocity": 0.54,
        "hand": "right"
      },
      {
        "midi": 70,
        "time": 177.375,
        "duration": 0.188,
        "velocity": 0.54,
        "hand": "right"
      },
      {
        "midi": 71,
        "time": 177.563,
        "duration": 0.188,
        "velocity": 0.54,
        "hand": "right"
      },
      {
        "midi": 72,
        "time": 177.563,
        "duration": 0.188,
        "velocity": 0.54,
        "hand": "right"
      },
      {
        "midi": 73,
        "time": 177.75,
        "duration": 0.188,
        "velocity": 0.54,
        "hand": "right"
      },
      {
        "midi": 74,
        "time": 177.938,
        "duration": 0.188,
        "velocity": 0.54,
        "hand": "right"
      },
      {
        "midi": 75,
        "time": 177.938,
        "duration": 0.188,
        "velocity": 0.54,
        "hand": "right"
      },
      {
        "midi": 76,
        "time": 178.125,
        "duration": 0.188,
        "velocity": 0.54,
        "hand": "right"
      },
      {
        "midi": 62,
        "time": 178.313,
        "duration": 2.063,
        "velocity": 0.71,
        "hand": "right"
      },
      {
        "midi": 77,
        "time": 178.313,
        "duration": 1.688,
        "velocity": 0.54,
        "hand": "right"
      },
      {
        "midi": 65,
        "time": 178.688,
        "duration": 0.563,
        "velocity": 0.71,
        "hand": "right"
      },
      {
        "midi": 69,
        "time": 178.688,
        "duration": 0.563,
        "velocity": 0.71,
        "hand": "right"
      },
      {
        "midi": 65,
        "time": 179.25,
        "duration": 0.563,
        "velocity": 0.71,
        "hand": "right"
      },
      {
        "midi": 69,
        "time": 179.25,
        "duration": 0.563,
        "velocity": 0.71,
        "hand": "right"
      },
      {
        "midi": 65,
        "time": 179.813,
        "duration": 0.563,
        "velocity": 0.71,
        "hand": "right"
      },
      {
        "midi": 69,
        "time": 179.813,
        "duration": 0.563,
        "velocity": 0.71,
        "hand": "right"
      },
      {
        "midi": 76,
        "time": 180,
        "duration": 0.188,
        "velocity": 0.54,
        "hand": "right"
      },
      {
        "midi": 62,
        "time": 180.188,
        "duration": 2.063,
        "velocity": 0.71,
        "hand": "right"
      },
      {
        "midi": 77,
        "time": 180.188,
        "duration": 0.188,
        "velocity": 0.54,
        "hand": "right"
      },
      {
        "midi": 79,
        "time": 180.188,
        "duration": 0.563,
        "velocity": 0.54,
        "hand": "right"
      },
      {
        "midi": 65,
        "time": 180.75,
        "duration": 0.563,
        "velocity": 0.71,
        "hand": "right"
      },
      {
        "midi": 69,
        "time": 180.75,
        "duration": 0.563,
        "velocity": 0.71,
        "hand": "right"
      },
      {
        "midi": 77,
        "time": 180.75,
        "duration": 0.563,
        "velocity": 0.54,
        "hand": "right"
      },
      {
        "midi": 65,
        "time": 181.313,
        "duration": 0.563,
        "velocity": 0.71,
        "hand": "right"
      },
      {
        "midi": 69,
        "time": 181.313,
        "duration": 0.563,
        "velocity": 0.71,
        "hand": "right"
      },
      {
        "midi": 76,
        "time": 181.313,
        "duration": 0.563,
        "velocity": 0.54,
        "hand": "right"
      },
      {
        "midi": 65,
        "time": 181.688,
        "duration": 0.563,
        "velocity": 0.71,
        "hand": "right"
      },
      {
        "midi": 69,
        "time": 181.688,
        "duration": 0.563,
        "velocity": 0.71,
        "hand": "right"
      },
      {
        "midi": 74,
        "time": 181.688,
        "duration": 0.563,
        "velocity": 0.54,
        "hand": "right"
      },
      {
        "midi": 64,
        "time": 182.25,
        "duration": 2.063,
        "velocity": 0.71,
        "hand": "right"
      },
      {
        "midi": 73,
        "time": 182.25,
        "duration": 0.938,
        "velocity": 0.54,
        "hand": "right"
      },
      {
        "midi": 67,
        "time": 182.813,
        "duration": 0.563,
        "velocity": 0.71,
        "hand": "right"
      },
      {
        "midi": 69,
        "time": 182.813,
        "duration": 0.563,
        "velocity": 0.71,
        "hand": "right"
      },
      {
        "midi": 67,
        "time": 183.188,
        "duration": 0.563,
        "velocity": 0.71,
        "hand": "right"
      },
      {
        "midi": 69,
        "time": 183.188,
        "duration": 0.563,
        "velocity": 0.71,
        "hand": "right"
      },
      {
        "midi": 67,
        "time": 183.75,
        "duration": 0.563,
        "velocity": 0.71,
        "hand": "right"
      },
      {
        "midi": 69,
        "time": 183.75,
        "duration": 0.563,
        "velocity": 0.71,
        "hand": "right"
      },
      {
        "midi": 74,
        "time": 183.938,
        "duration": 0.188,
        "velocity": 0.54,
        "hand": "right"
      },
      {
        "midi": 64,
        "time": 184.313,
        "duration": 2.063,
        "velocity": 0.71,
        "hand": "right"
      },
      {
        "midi": 75,
        "time": 184.313,
        "duration": 0.563,
        "velocity": 0.54,
        "hand": "right"
      },
      {
        "midi": 67,
        "time": 184.688,
        "duration": 0.563,
        "velocity": 0.71,
        "hand": "right"
      },
      {
        "midi": 69,
        "time": 184.688,
        "duration": 0.563,
        "velocity": 0.71,
        "hand": "right"
      },
      {
        "midi": 76,
        "time": 184.688,
        "duration": 0.563,
        "velocity": 0.54,
        "hand": "right"
      },
      {
        "midi": 67,
        "time": 185.25,
        "duration": 0.563,
        "velocity": 0.71,
        "hand": "right"
      },
      {
        "midi": 69,
        "time": 185.25,
        "duration": 0.563,
        "velocity": 0.71,
        "hand": "right"
      },
      {
        "midi": 67,
        "time": 185.813,
        "duration": 0.563,
        "velocity": 0.71,
        "hand": "right"
      },
      {
        "midi": 69,
        "time": 185.813,
        "duration": 0.563,
        "velocity": 0.71,
        "hand": "right"
      },
      {
        "midi": 61,
        "time": 186.188,
        "duration": 2.063,
        "velocity": 0.71,
        "hand": "right"
      },
      {
        "midi": 79,
        "time": 186.188,
        "duration": 1.688,
        "velocity": 0.54,
        "hand": "right"
      },
      {
        "midi": 64,
        "time": 186.75,
        "duration": 0.563,
        "velocity": 0.71,
        "hand": "right"
      },
      {
        "midi": 69,
        "time": 186.75,
        "duration": 0.563,
        "velocity": 0.71,
        "hand": "right"
      },
      {
        "midi": 64,
        "time": 187.313,
        "duration": 0.563,
        "velocity": 0.71,
        "hand": "right"
      },
      {
        "midi": 69,
        "time": 187.313,
        "duration": 0.563,
        "velocity": 0.71,
        "hand": "right"
      },
      {
        "midi": 64,
        "time": 187.688,
        "duration": 0.563,
        "velocity": 0.71,
        "hand": "right"
      },
      {
        "midi": 69,
        "time": 187.688,
        "duration": 0.563,
        "velocity": 0.71,
        "hand": "right"
      },
      {
        "midi": 78,
        "time": 188.063,
        "duration": 0.188,
        "velocity": 0.54,
        "hand": "right"
      },
      {
        "midi": 79,
        "time": 188.063,
        "duration": 0.188,
        "velocity": 0.54,
        "hand": "right"
      },
      {
        "midi": 61,
        "time": 188.25,
        "duration": 2.063,
        "velocity": 0.71,
        "hand": "right"
      },
      {
        "midi": 81,
        "time": 188.25,
        "duration": 0.563,
        "velocity": 0.54,
        "hand": "right"
      },
      {
        "midi": 64,
        "time": 188.813,
        "duration": 0.563,
        "velocity": 0.71,
        "hand": "right"
      },
      {
        "midi": 69,
        "time": 188.813,
        "duration": 0.563,
        "velocity": 0.71,
        "hand": "right"
      },
      {
        "midi": 79,
        "time": 188.813,
        "duration": 0.563,
        "velocity": 0.54,
        "hand": "right"
      },
      {
        "midi": 64,
        "time": 189.188,
        "duration": 0.563,
        "velocity": 0.71,
        "hand": "right"
      },
      {
        "midi": 69,
        "time": 189.188,
        "duration": 0.563,
        "velocity": 0.71,
        "hand": "right"
      },
      {
        "midi": 77,
        "time": 189.188,
        "duration": 0.563,
        "velocity": 0.54,
        "hand": "right"
      },
      {
        "midi": 64,
        "time": 189.75,
        "duration": 0.563,
        "velocity": 0.71,
        "hand": "right"
      },
      {
        "midi": 69,
        "time": 189.75,
        "duration": 0.563,
        "velocity": 0.71,
        "hand": "right"
      },
      {
        "midi": 76,
        "time": 189.75,
        "duration": 0.563,
        "velocity": 0.54,
        "hand": "right"
      },
      {
        "midi": 62,
        "time": 190.313,
        "duration": 2.063,
        "velocity": 0.71,
        "hand": "right"
      },
      {
        "midi": 74,
        "time": 190.313,
        "duration": 0.938,
        "velocity": 0.54,
        "hand": "right"
      },
      {
        "midi": 65,
        "time": 190.688,
        "duration": 0.563,
        "velocity": 0.71,
        "hand": "right"
      },
      {
        "midi": 69,
        "time": 190.688,
        "duration": 0.563,
        "velocity": 0.71,
        "hand": "right"
      },
      {
        "midi": 65,
        "time": 191.25,
        "duration": 0.563,
        "velocity": 0.71,
        "hand": "right"
      },
      {
        "midi": 69,
        "time": 191.25,
        "duration": 0.563,
        "velocity": 0.71,
        "hand": "right"
      },
      {
        "midi": 65,
        "time": 191.813,
        "duration": 0.563,
        "velocity": 0.71,
        "hand": "right"
      },
      {
        "midi": 69,
        "time": 191.813,
        "duration": 0.563,
        "velocity": 0.71,
        "hand": "right"
      },
      {
        "midi": 76,
        "time": 192,
        "duration": 0.188,
        "velocity": 0.54,
        "hand": "right"
      },
      {
        "midi": 62,
        "time": 192.188,
        "duration": 2.063,
        "velocity": 0.71,
        "hand": "right"
      },
      {
        "midi": 79,
        "time": 192.188,
        "duration": 0.563,
        "velocity": 0.54,
        "hand": "right"
      },
      {
        "midi": 65,
        "time": 192.75,
        "duration": 0.563,
        "velocity": 0.71,
        "hand": "right"
      },
      {
        "midi": 69,
        "time": 192.75,
        "duration": 0.563,
        "velocity": 0.71,
        "hand": "right"
      },
      {
        "midi": 77,
        "time": 192.75,
        "duration": 0.563,
        "velocity": 0.54,
        "hand": "right"
      },
      {
        "midi": 65,
        "time": 193.313,
        "duration": 0.563,
        "velocity": 0.71,
        "hand": "right"
      },
      {
        "midi": 69,
        "time": 193.313,
        "duration": 0.563,
        "velocity": 0.71,
        "hand": "right"
      },
      {
        "midi": 65,
        "time": 193.688,
        "duration": 0.563,
        "velocity": 0.71,
        "hand": "right"
      },
      {
        "midi": 69,
        "time": 193.688,
        "duration": 0.563,
        "velocity": 0.71,
        "hand": "right"
      },
      {
        "midi": 69,
        "time": 194.25,
        "duration": 2.063,
        "velocity": 0.75,
        "hand": "right"
      },
      {
        "midi": 81,
        "time": 194.25,
        "duration": 2.063,
        "velocity": 0.75,
        "hand": "right"
      },
      {
        "midi": 53,
        "time": 195.188,
        "duration": 0.938,
        "velocity": 0.71,
        "hand": "left"
      },
      {
        "midi": 57,
        "time": 195.188,
        "duration": 0.938,
        "velocity": 0.71,
        "hand": "left"
      },
      {
        "midi": 62,
        "time": 195.188,
        "duration": 0.938,
        "velocity": 0.71,
        "hand": "right"
      },
      {
        "midi": 52,
        "time": 196.313,
        "duration": 0.563,
        "velocity": 0.71,
        "hand": "left"
      },
      {
        "midi": 55,
        "time": 196.313,
        "duration": 0.563,
        "velocity": 0.71,
        "hand": "left"
      },
      {
        "midi": 61,
        "time": 196.313,
        "duration": 0.563,
        "velocity": 0.71,
        "hand": "right"
      },
      {
        "midi": 70,
        "time": 196.313,
        "duration": 0.563,
        "velocity": 0.75,
        "hand": "right"
      },
      {
        "midi": 82,
        "time": 196.313,
        "duration": 0.563,
        "velocity": 0.75,
        "hand": "right"
      },
      {
        "midi": 81,
        "time": 198.188,
        "duration": 0.75,
        "velocity": 0.54,
        "hand": "right"
      },
      {
        "midi": 86,
        "time": 198.938,
        "duration": 0.188,
        "velocity": 0.54,
        "hand": "right"
      },
      {
        "midi": 65,
        "time": 199.313,
        "duration": 0.938,
        "velocity": 0.71,
        "hand": "right"
      },
      {
        "midi": 74,
        "time": 199.313,
        "duration": 0.938,
        "velocity": 0.71,
        "hand": "right"
      },
      {
        "midi": 85,
        "time": 199.313,
        "duration": 0.375,
        "velocity": 0.54,
        "hand": "right"
      },
      {
        "midi": 84,
        "time": 199.5,
        "duration": 0.375,
        "velocity": 0.54,
        "hand": "right"
      },
      {
        "midi": 83,
        "time": 199.875,
        "duration": 0.375,
        "velocity": 0.54,
        "hand": "right"
      },
      {
        "midi": 67,
        "time": 200.25,
        "duration": 0.938,
        "velocity": 0.71,
        "hand": "right"
      },
      {
        "midi": 73,
        "time": 200.25,
        "duration": 0.938,
        "velocity": 0.71,
        "hand": "right"
      },
      {
        "midi": 82,
        "time": 200.25,
        "duration": 0.938,
        "velocity": 0.54,
        "hand": "right"
      },
      {
        "midi": 65,
        "time": 201.938,
        "duration": 0.188,
        "velocity": 0.71,
        "hand": "right"
      },
      {
        "midi": 74,
        "time": 201.938,
        "duration": 0.188,
        "velocity": 0.71,
        "hand": "right"
      },
      {
        "midi": 81,
        "time": 201.938,
        "duration": 0.188,
        "velocity": 0.54,
        "hand": "right"
      },
      {
        "midi": 64,
        "time": 202.313,
        "duration": 0.938,
        "velocity": 0.71,
        "hand": "right"
      },
      {
        "midi": 74,
        "time": 202.313,
        "duration": 0.938,
        "velocity": 0.71,
        "hand": "right"
      },
      {
        "midi": 81,
        "time": 202.313,
        "duration": 0.563,
        "velocity": 0.54,
        "hand": "right"
      },
      {
        "midi": 80,
        "time": 202.688,
        "duration": 0.563,
        "velocity": 0.54,
        "hand": "right"
      },
      {
        "midi": 80,
        "time": 204,
        "duration": 0.188,
        "velocity": 0.54,
        "hand": "right"
      },
      {
        "midi": 69,
        "time": 204.188,
        "duration": 0.938,
        "velocity": 0.71,
        "hand": "right"
      },
      {
        "midi": 73,
        "time": 204.188,
        "duration": 0.938,
        "velocity": 0.71,
        "hand": "right"
      },
      {
        "midi": 88,
        "time": 204.188,
        "duration": 0.563,
        "velocity": 0.54,
        "hand": "right"
      },
      {
        "midi": 79,
        "time": 204.75,
        "duration": 0.563,
        "velocity": 0.54,
        "hand": "right"
      },
      {
        "midi": 79,
        "time": 206.063,
        "duration": 0.188,
        "velocity": 0.54,
        "hand": "right"
      },
      {
        "midi": 70,
        "time": 206.25,
        "duration": 0.938,
        "velocity": 0.71,
        "hand": "right"
      },
      {
        "midi": 74,
        "time": 206.25,
        "duration": 0.938,
        "velocity": 0.71,
        "hand": "right"
      },
      {
        "midi": 76,
        "time": 206.25,
        "duration": 0.563,
        "velocity": 0.54,
        "hand": "right"
      },
      {
        "midi": 77,
        "time": 206.813,
        "duration": 0.563,
        "velocity": 0.54,
        "hand": "right"
      },
      {
        "midi": 77,
        "time": 207.938,
        "duration": 0.188,
        "velocity": 0.54,
        "hand": "right"
      },
      {
        "midi": 55,
        "time": 208.313,
        "duration": 3,
        "velocity": 0.71,
        "hand": "left"
      },
      {
        "midi": 58,
        "time": 208.313,
        "duration": 3,
        "velocity": 0.71,
        "hand": "left"
      },
      {
        "midi": 63,
        "time": 208.313,
        "duration": 3,
        "velocity": 0.71,
        "hand": "right"
      },
      {
        "midi": 75,
        "time": 208.313,
        "duration": 1.688,
        "velocity": 0.75,
        "hand": "right"
      },
      {
        "midi": 75,
        "time": 209.813,
        "duration": 0.094,
        "velocity": 0.75,
        "hand": "right"
      },
      {
        "midi": 77,
        "time": 209.813,
        "duration": 0.094,
        "velocity": 0.75,
        "hand": "right"
      },
      {
        "midi": 74,
        "time": 210,
        "duration": 0.094,
        "velocity": 0.75,
        "hand": "right"
      },
      {
        "midi": 75,
        "time": 210,
        "duration": 0.094,
        "velocity": 0.75,
        "hand": "right"
      },
      {
        "midi": 77,
        "time": 210,
        "duration": 0.188,
        "velocity": 0.54,
        "hand": "right"
      },
      {
        "midi": 79,
        "time": 210.188,
        "duration": 0.563,
        "velocity": 0.54,
        "hand": "right"
      },
      {
        "midi": 78,
        "time": 210.938,
        "duration": 0.094,
        "velocity": 0.54,
        "hand": "right"
      },
      {
        "midi": 79,
        "time": 210.938,
        "duration": 0.094,
        "velocity": 0.54,
        "hand": "right"
      },
      {
        "midi": 81,
        "time": 210.938,
        "duration": 0.094,
        "velocity": 0.54,
        "hand": "right"
      },
      {
        "midi": 81,
        "time": 210.938,
        "duration": 0.188,
        "velocity": 0.54,
        "hand": "right"
      },
      {
        "midi": 82,
        "time": 211.313,
        "duration": 0.563,
        "velocity": 0.54,
        "hand": "right"
      },
      {
        "midi": 44,
        "time": 212.25,
        "duration": 0.188,
        "velocity": 0.75,
        "hand": "left"
      },
      {
        "midi": 47,
        "time": 212.438,
        "duration": 0.188,
        "velocity": 0.75,
        "hand": "left"
      },
      {
        "midi": 50,
        "time": 212.438,
        "duration": 0.188,
        "velocity": 0.75,
        "hand": "left"
      },
      {
        "midi": 53,
        "time": 212.625,
        "duration": 0.188,
        "velocity": 0.75,
        "hand": "left"
      },
      {
        "midi": 56,
        "time": 212.813,
        "duration": 0.188,
        "velocity": 0.54,
        "hand": "left"
      },
      {
        "midi": 59,
        "time": 212.813,
        "duration": 0.188,
        "velocity": 0.54,
        "hand": "left"
      },
      {
        "midi": 62,
        "time": 213,
        "duration": 0.188,
        "velocity": 0.54,
        "hand": "right"
      },
      {
        "midi": 65,
        "time": 213.188,
        "duration": 0.188,
        "velocity": 0.54,
        "hand": "right"
      },
      {
        "midi": 68,
        "time": 213.188,
        "duration": 0.188,
        "velocity": 0.75,
        "hand": "right"
      },
      {
        "midi": 71,
        "time": 213.375,
        "duration": 0.188,
        "velocity": 0.75,
        "hand": "right"
      },
      {
        "midi": 74,
        "time": 213.563,
        "duration": 0.188,
        "velocity": 0.75,
        "hand": "right"
      },
      {
        "midi": 77,
        "time": 213.563,
        "duration": 0.188,
        "velocity": 0.75,
        "hand": "right"
      },
      {
        "midi": 80,
        "time": 213.75,
        "duration": 0.188,
        "velocity": 0.54,
        "hand": "right"
      },
      {
        "midi": 83,
        "time": 213.938,
        "duration": 0.188,
        "velocity": 0.54,
        "hand": "right"
      },
      {
        "midi": 86,
        "time": 213.938,
        "duration": 0.188,
        "velocity": 0.54,
        "hand": "right"
      },
      {
        "midi": 89,
        "time": 214.125,
        "duration": 0.188,
        "velocity": 0.54,
        "hand": "right"
      },
      {
        "midi": 57,
        "time": 214.5,
        "duration": 0.563,
        "velocity": 0.75,
        "hand": "left"
      },
      {
        "midi": 65,
        "time": 214.5,
        "duration": 0.563,
        "velocity": 0.75,
        "hand": "right"
      },
      {
        "midi": 69,
        "time": 214.5,
        "duration": 0.563,
        "velocity": 0.54,
        "hand": "right"
      },
      {
        "midi": 74,
        "time": 214.5,
        "duration": 0.563,
        "velocity": 0.54,
        "hand": "right"
      },
      {
        "midi": 81,
        "time": 214.5,
        "duration": 0.563,
        "velocity": 0.54,
        "hand": "right"
      },
      {
        "midi": 33,
        "time": 216.563,
        "duration": 0.563,
        "velocity": 0.75,
        "hand": "left"
      },
      {
        "midi": 45,
        "time": 216.563,
        "duration": 0.563,
        "velocity": 0.75,
        "hand": "left"
      },
      {
        "midi": 52,
        "time": 216.563,
        "duration": 0.563,
        "velocity": 0.54,
        "hand": "left"
      },
      {
        "midi": 55,
        "time": 216.563,
        "duration": 0.563,
        "velocity": 0.54,
        "hand": "left"
      },
      {
        "midi": 61,
        "time": 216.563,
        "duration": 0.563,
        "velocity": 0.54,
        "hand": "right"
      },
      {
        "midi": 62,
        "time": 218.438,
        "duration": 0.938,
        "velocity": 0.75,
        "hand": "right"
      },
      {
        "midi": 66,
        "time": 218.438,
        "duration": 0.938,
        "velocity": 0.75,
        "hand": "right"
      },
      {
        "midi": 69,
        "time": 218.438,
        "duration": 0.563,
        "velocity": 0.54,
        "hand": "right"
      },
      {
        "midi": 78,
        "time": 219,
        "duration": 0.188,
        "velocity": 0.54,
        "hand": "right"
      },
      {
        "midi": 74,
        "time": 219.188,
        "duration": 0.188,
        "velocity": 0.54,
        "hand": "right"
      },
      {
        "midi": 62,
        "time": 219.563,
        "duration": 2.063,
        "velocity": 0.75,
        "hand": "right"
      },
      {
        "midi": 67,
        "time": 219.563,
        "duration": 2.063,
        "velocity": 0.75,
        "hand": "right"
      },
      {
        "midi": 73,
        "time": 219.563,
        "duration": 0.563,
        "velocity": 0.54,
        "hand": "right"
      },
      {
        "midi": 71,
        "time": 219.938,
        "duration": 0.188,
        "velocity": 0.54,
        "hand": "right"
      },
      {
        "midi": 76,
        "time": 220.313,
        "duration": 0.188,
        "velocity": 0.54,
        "hand": "right"
      },
      {
        "midi": 79,
        "time": 220.313,
        "duration": 0.188,
        "velocity": 0.54,
        "hand": "right"
      },
      {
        "midi": 64,
        "time": 220.5,
        "duration": 0.938,
        "velocity": 0.75,
        "hand": "right"
      },
      {
        "midi": 74,
        "time": 220.5,
        "duration": 0.188,
        "velocity": 0.71,
        "hand": "right"
      },
      {
        "midi": 73,
        "time": 220.688,
        "duration": 0.75,
        "velocity": 0.71,
        "hand": "right"
      },
      {
        "midi": 83,
        "time": 221.063,
        "duration": 0.188,
        "velocity": 0.71,
        "hand": "right"
      },
      {
        "midi": 81,
        "time": 221.25,
        "duration": 0.188,
        "velocity": 0.71,
        "hand": "right"
      },
      {
        "midi": 62,
        "time": 221.438,
        "duration": 0.563,
        "velocity": 0.75,
        "hand": "right"
      },
      {
        "midi": 66,
        "time": 221.438,
        "duration": 0.563,
        "velocity": 0.75,
        "hand": "right"
      },
      {
        "midi": 74,
        "time": 221.438,
        "duration": 0.563,
        "velocity": 0.71,
        "hand": "right"
      },
      {
        "midi": 81,
        "time": 221.438,
        "duration": 0.375,
        "velocity": 0.71,
        "hand": "right"
      },
      {
        "midi": 83,
        "time": 221.813,
        "duration": 0.094,
        "velocity": 0.71,
        "hand": "right"
      },
      {
        "midi": 78,
        "time": 222,
        "duration": 0.188,
        "velocity": 0.71,
        "hand": "right"
      },
      {
        "midi": 79,
        "time": 222,
        "duration": 0.094,
        "velocity": 0.71,
        "hand": "right"
      },
      {
        "midi": 81,
        "time": 222.188,
        "duration": 0.188,
        "velocity": 0.71,
        "hand": "right"
      },
      {
        "midi": 78,
        "time": 222.375,
        "duration": 0.188,
        "velocity": 0.71,
        "hand": "right"
      },
      {
        "midi": 68,
        "time": 222.563,
        "duration": 0.188,
        "velocity": 0.75,
        "hand": "right"
      },
      {
        "midi": 74,
        "time": 222.563,
        "duration": 0.188,
        "velocity": 0.75,
        "hand": "right"
      },
      {
        "midi": 76,
        "time": 222.563,
        "duration": 0.188,
        "velocity": 0.54,
        "hand": "right"
      },
      {
        "midi": 68,
        "time": 222.75,
        "duration": 0.188,
        "velocity": 0.75,
        "hand": "right"
      },
      {
        "midi": 74,
        "time": 222.75,
        "duration": 0.188,
        "velocity": 0.75,
        "hand": "right"
      },
      {
        "midi": 76,
        "time": 222.75,
        "duration": 0.188,
        "velocity": 0.54,
        "hand": "right"
      },
      {
        "midi": 68,
        "time": 222.938,
        "duration": 0.188,
        "velocity": 0.75,
        "hand": "right"
      },
      {
        "midi": 74,
        "time": 222.938,
        "duration": 0.188,
        "velocity": 0.75,
        "hand": "right"
      },
      {
        "midi": 76,
        "time": 222.938,
        "duration": 0.188,
        "velocity": 0.54,
        "hand": "right"
      },
      {
        "midi": 68,
        "time": 223.313,
        "duration": 0.188,
        "velocity": 0.75,
        "hand": "right"
      },
      {
        "midi": 74,
        "time": 223.313,
        "duration": 0.188,
        "velocity": 0.75,
        "hand": "right"
      },
      {
        "midi": 76,
        "time": 223.313,
        "duration": 0.188,
        "velocity": 0.54,
        "hand": "right"
      },
      {
        "midi": 69,
        "time": 223.5,
        "duration": 0.188,
        "velocity": 0.75,
        "hand": "right"
      },
      {
        "midi": 73,
        "time": 223.5,
        "duration": 0.188,
        "velocity": 0.75,
        "hand": "right"
      },
      {
        "midi": 76,
        "time": 223.5,
        "duration": 0.188,
        "velocity": 0.54,
        "hand": "right"
      },
      {
        "midi": 81,
        "time": 223.688,
        "duration": 0.188,
        "velocity": 0.54,
        "hand": "right"
      },
      {
        "midi": 62,
        "time": 224.063,
        "duration": 0.188,
        "velocity": 0.75,
        "hand": "right"
      },
      {
        "midi": 66,
        "time": 224.063,
        "duration": 0.188,
        "velocity": 0.75,
        "hand": "right"
      },
      {
        "midi": 71,
        "time": 224.063,
        "duration": 0.188,
        "velocity": 0.54,
        "hand": "right"
      },
      {
        "midi": 78,
        "time": 224.25,
        "duration": 0.188,
        "velocity": 0.54,
        "hand": "right"
      },
      {
        "midi": 52,
        "time": 224.438,
        "duration": 0.938,
        "velocity": 0.71,
        "hand": "left"
      },
      {
        "midi": 61,
        "time": 224.438,
        "duration": 0.563,
        "velocity": 0.71,
        "hand": "right"
      },
      {
        "midi": 69,
        "time": 224.438,
        "duration": 0.563,
        "velocity": 0.54,
        "hand": "right"
      },
      {
        "midi": 62,
        "time": 225,
        "duration": 0.563,
        "velocity": 0.71,
        "hand": "right"
      },
      {
        "midi": 68,
        "time": 225,
        "duration": 0.563,
        "velocity": 0.71,
        "hand": "right"
      },
      {
        "midi": 73,
        "time": 225,
        "duration": 0.375,
        "velocity": 0.71,
        "hand": "right"
      },
      {
        "midi": 71,
        "time": 225.375,
        "duration": 0.188,
        "velocity": 0.71,
        "hand": "right"
      },
      {
        "midi": 57,
        "time": 225.563,
        "duration": 0.563,
        "velocity": 0.75,
        "hand": "left"
      },
      {
        "midi": 61,
        "time": 225.563,
        "duration": 0.563,
        "velocity": 0.75,
        "hand": "right"
      },
      {
        "midi": 69,
        "time": 225.563,
        "duration": 0.563,
        "velocity": 0.71,
        "hand": "right"
      },
      {
        "midi": 74,
        "time": 226.5,
        "duration": 0.563,
        "velocity": 0.54,
        "hand": "right"
      },
      {
        "midi": 54,
        "time": 226.688,
        "duration": 0.188,
        "velocity": 0.75,
        "hand": "left"
      },
      {
        "midi": 57,
        "time": 226.688,
        "duration": 0.188,
        "velocity": 0.75,
        "hand": "left"
      },
      {
        "midi": 52,
        "time": 227.063,
        "duration": 0.188,
        "velocity": 0.75,
        "hand": "left"
      },
      {
        "midi": 55,
        "time": 227.063,
        "duration": 0.188,
        "velocity": 0.75,
        "hand": "left"
      },
      {
        "midi": 76,
        "time": 227.063,
        "duration": 0.188,
        "velocity": 0.54,
        "hand": "right"
      },
      {
        "midi": 50,
        "time": 227.25,
        "duration": 0.188,
        "velocity": 0.75,
        "hand": "left"
      },
      {
        "midi": 54,
        "time": 227.25,
        "duration": 0.188,
        "velocity": 0.75,
        "hand": "left"
      },
      {
        "midi": 78,
        "time": 227.25,
        "duration": 0.188,
        "velocity": 0.54,
        "hand": "right"
      },
      {
        "midi": 55,
        "time": 227.438,
        "duration": 0.938,
        "velocity": 0.71,
        "hand": "left"
      },
      {
        "midi": 62,
        "time": 227.438,
        "duration": 0.188,
        "velocity": 0.71,
        "hand": "right"
      },
      {
        "midi": 71,
        "time": 227.438,
        "duration": 0.75,
        "velocity": 0.54,
        "hand": "right"
      },
      {
        "midi": 63,
        "time": 227.813,
        "duration": 0.188,
        "velocity": 0.71,
        "hand": "right"
      },
      {
        "midi": 64,
        "time": 228,
        "duration": 0.188,
        "velocity": 0.71,
        "hand": "right"
      },
      {
        "midi": 73,
        "time": 228.188,
        "duration": 0.188,
        "velocity": 0.54,
        "hand": "right"
      },
      {
        "midi": 75,
        "time": 228.375,
        "duration": 0.188,
        "velocity": 0.54,
        "hand": "right"
      },
      {
        "midi": 76,
        "time": 228.563,
        "duration": 0.188,
        "velocity": 0.54,
        "hand": "right"
      },
      {
        "midi": 78,
        "time": 228.563,
        "duration": 0.188,
        "velocity": 0.54,
        "hand": "right"
      },
      {
        "midi": 79,
        "time": 228.75,
        "duration": 0.188,
        "velocity": 0.54,
        "hand": "right"
      },
      {
        "midi": 81,
        "time": 228.938,
        "duration": 0.188,
        "velocity": 0.54,
        "hand": "right"
      },
      {
        "midi": 83,
        "time": 228.938,
        "duration": 0.188,
        "velocity": 0.54,
        "hand": "right"
      },
      {
        "midi": 56,
        "time": 229.313,
        "duration": 0.188,
        "velocity": 0.75,
        "hand": "left"
      },
      {
        "midi": 65,
        "time": 229.313,
        "duration": 0.188,
        "velocity": 0.75,
        "hand": "right"
      },
      {
        "midi": 83,
        "time": 229.313,
        "duration": 0.188,
        "velocity": 0.54,
        "hand": "right"
      },
      {
        "midi": 57,
        "time": 229.5,
        "duration": 0.75,
        "velocity": 0.71,
        "hand": "left"
      },
      {
        "midi": 66,
        "time": 229.5,
        "duration": 0.563,
        "velocity": 0.71,
        "hand": "right"
      },
      {
        "midi": 74,
        "time": 229.5,
        "duration": 0.563,
        "velocity": 0.54,
        "hand": "right"
      },
      {
        "midi": 64,
        "time": 230.063,
        "duration": 0.188,
        "velocity": 0.71,
        "hand": "right"
      },
      {
        "midi": 73,
        "time": 230.063,
        "duration": 0.188,
        "velocity": 0.54,
        "hand": "right"
      },
      {
        "midi": 81,
        "time": 230.25,
        "duration": 0.188,
        "velocity": 0.54,
        "hand": "right"
      },
      {
        "midi": 59,
        "time": 230.438,
        "duration": 0.938,
        "velocity": 0.75,
        "hand": "left"
      },
      {
        "midi": 62,
        "time": 230.438,
        "duration": 0.938,
        "velocity": 0.75,
        "hand": "right"
      },
      {
        "midi": 80,
        "time": 230.438,
        "duration": 0.188,
        "velocity": 0.54,
        "hand": "right"
      },
      {
        "midi": 86,
        "time": 230.813,
        "duration": 0.188,
        "velocity": 0.54,
        "hand": "right"
      },
      {
        "midi": 83,
        "time": 231,
        "duration": 0.188,
        "velocity": 0.54,
        "hand": "right"
      },
      {
        "midi": 80,
        "time": 231.188,
        "duration": 0.188,
        "velocity": 0.54,
        "hand": "right"
      },
      {
        "midi": 57,
        "time": 231.563,
        "duration": 0.188,
        "velocity": 0.71,
        "hand": "left"
      },
      {
        "midi": 61,
        "time": 231.563,
        "duration": 0.563,
        "velocity": 0.71,
        "hand": "right"
      },
      {
        "midi": 88,
        "time": 231.563,
        "duration": 0.188,
        "velocity": 0.54,
        "hand": "right"
      },
      {
        "midi": 58,
        "time": 231.75,
        "duration": 0.188,
        "velocity": 0.71,
        "hand": "left"
      },
      {
        "midi": 79,
        "time": 231.75,
        "duration": 0.188,
        "velocity": 0.54,
        "hand": "right"
      },
      {
        "midi": 59,
        "time": 231.938,
        "duration": 0.188,
        "velocity": 0.71,
        "hand": "left"
      },
      {
        "midi": 62,
        "time": 231.938,
        "duration": 0.375,
        "velocity": 0.71,
        "hand": "right"
      },
      {
        "midi": 78,
        "time": 231.938,
        "duration": 0.188,
        "velocity": 0.54,
        "hand": "right"
      },
      {
        "midi": 55,
        "time": 232.313,
        "duration": 0.188,
        "velocity": 0.71,
        "hand": "left"
      },
      {
        "midi": 83,
        "time": 232.313,
        "duration": 0.188,
        "velocity": 0.54,
        "hand": "right"
      },
      {
        "midi": 57,
        "time": 232.5,
        "duration": 0.938,
        "velocity": 0.71,
        "hand": "left"
      },
      {
        "midi": 66,
        "time": 232.5,
        "duration": 0.563,
        "velocity": 0.71,
        "hand": "right"
      },
      {
        "midi": 67,
        "time": 232.5,
        "duration": 0.094,
        "velocity": 0.71,
        "hand": "right"
      },
      {
        "midi": 74,
        "time": 232.5,
        "duration": 0.563,
        "velocity": 0.54,
        "hand": "right"
      },
      {
        "midi": 67,
        "time": 233.063,
        "duration": 0.563,
        "velocity": 0.71,
        "hand": "right"
      },
      {
        "midi": 73,
        "time": 233.063,
        "duration": 0.563,
        "velocity": 0.71,
        "hand": "right"
      },
      {
        "midi": 78,
        "time": 233.063,
        "duration": 0.375,
        "velocity": 0.71,
        "hand": "right"
      },
      {
        "midi": 62,
        "time": 233.438,
        "duration": 0.563,
        "velocity": 0.75,
        "hand": "right"
      },
      {
        "midi": 66,
        "time": 233.438,
        "duration": 0.563,
        "velocity": 0.75,
        "hand": "right"
      },
      {
        "midi": 74,
        "time": 233.438,
        "duration": 0.563,
        "velocity": 0.71,
        "hand": "right"
      },
      {
        "midi": 76,
        "time": 233.438,
        "duration": 0.188,
        "velocity": 0.71,
        "hand": "right"
      },
      {
        "midi": 62,
        "time": 234.563,
        "duration": 0.188,
        "velocity": 0.75,
        "hand": "right"
      },
      {
        "midi": 69,
        "time": 234.563,
        "duration": 0.188,
        "velocity": 0.75,
        "hand": "right"
      },
      {
        "midi": 74,
        "time": 234.563,
        "duration": 0.563,
        "velocity": 0.71,
        "hand": "right"
      },
      {
        "midi": 66,
        "time": 234.75,
        "duration": 0.188,
        "velocity": 0.75,
        "hand": "right"
      },
      {
        "midi": 66,
        "time": 234.938,
        "duration": 0.188,
        "velocity": 0.75,
        "hand": "right"
      },
      {
        "midi": 69,
        "time": 234.938,
        "duration": 0.188,
        "velocity": 0.75,
        "hand": "right"
      },
      {
        "midi": 69,
        "time": 235.125,
        "duration": 0.188,
        "velocity": 0.75,
        "hand": "right"
      },
      {
        "midi": 66,
        "time": 235.313,
        "duration": 0.188,
        "velocity": 0.75,
        "hand": "right"
      },
      {
        "midi": 69,
        "time": 235.313,
        "duration": 0.188,
        "velocity": 0.75,
        "hand": "right"
      },
      {
        "midi": 74,
        "time": 235.313,
        "duration": 0.188,
        "velocity": 0.54,
        "hand": "right"
      },
      {
        "midi": 67,
        "time": 235.5,
        "duration": 0.188,
        "velocity": 0.75,
        "hand": "right"
      },
      {
        "midi": 73,
        "time": 235.5,
        "duration": 0.188,
        "velocity": 0.54,
        "hand": "right"
      },
      {
        "midi": 69,
        "time": 235.688,
        "duration": 0.188,
        "velocity": 0.75,
        "hand": "right"
      },
      {
        "midi": 73,
        "time": 235.688,
        "duration": 0.188,
        "velocity": 0.75,
        "hand": "right"
      },
      {
        "midi": 81,
        "time": 235.688,
        "duration": 0.188,
        "velocity": 0.54,
        "hand": "right"
      },
      {
        "midi": 69,
        "time": 235.875,
        "duration": 0.188,
        "velocity": 0.75,
        "hand": "right"
      },
      {
        "midi": 67,
        "time": 236.063,
        "duration": 0.188,
        "velocity": 0.75,
        "hand": "right"
      },
      {
        "midi": 69,
        "time": 236.063,
        "duration": 0.188,
        "velocity": 0.75,
        "hand": "right"
      },
      {
        "midi": 81,
        "time": 236.063,
        "duration": 0.188,
        "velocity": 0.54,
        "hand": "right"
      },
      {
        "midi": 73,
        "time": 236.25,
        "duration": 0.188,
        "velocity": 0.75,
        "hand": "right"
      },
      {
        "midi": 81,
        "time": 236.25,
        "duration": 0.188,
        "velocity": 0.54,
        "hand": "right"
      },
      {
        "midi": 66,
        "time": 236.438,
        "duration": 0.188,
        "velocity": 0.75,
        "hand": "right"
      },
      {
        "midi": 69,
        "time": 236.438,
        "duration": 0.188,
        "velocity": 0.75,
        "hand": "right"
      },
      {
        "midi": 81,
        "time": 236.438,
        "duration": 0.375,
        "velocity": 0.54,
        "hand": "right"
      },
      {
        "midi": 69,
        "time": 236.625,
        "duration": 0.188,
        "velocity": 0.75,
        "hand": "right"
      },
      {
        "midi": 69,
        "time": 236.813,
        "duration": 0.188,
        "velocity": 0.75,
        "hand": "right"
      },
      {
        "midi": 74,
        "time": 236.813,
        "duration": 0.188,
        "velocity": 0.75,
        "hand": "right"
      },
      {
        "midi": 83,
        "time": 236.813,
        "duration": 0.094,
        "velocity": 0.54,
        "hand": "right"
      },
      {
        "midi": 66,
        "time": 237,
        "duration": 0.188,
        "velocity": 0.75,
        "hand": "right"
      },
      {
        "midi": 85,
        "time": 237,
        "duration": 0.094,
        "velocity": 0.54,
        "hand": "right"
      },
      {
        "midi": 86,
        "time": 237,
        "duration": 0.188,
        "velocity": 0.54,
        "hand": "right"
      },
      {
        "midi": 66,
        "time": 237.188,
        "duration": 0.188,
        "velocity": 0.75,
        "hand": "right"
      },
      {
        "midi": 69,
        "time": 237.188,
        "duration": 0.188,
        "velocity": 0.75,
        "hand": "right"
      },
      {
        "midi": 74,
        "time": 237.188,
        "duration": 0.188,
        "velocity": 0.54,
        "hand": "right"
      },
      {
        "midi": 69,
        "time": 237.375,
        "duration": 0.188,
        "velocity": 0.75,
        "hand": "right"
      },
      {
        "midi": 67,
        "time": 237.563,
        "duration": 0.188,
        "velocity": 0.75,
        "hand": "right"
      },
      {
        "midi": 69,
        "time": 237.563,
        "duration": 0.188,
        "velocity": 0.75,
        "hand": "right"
      },
      {
        "midi": 73,
        "time": 237.563,
        "duration": 0.188,
        "velocity": 0.54,
        "hand": "right"
      },
      {
        "midi": 73,
        "time": 237.75,
        "duration": 0.188,
        "velocity": 0.75,
        "hand": "right"
      },
      {
        "midi": 81,
        "time": 237.75,
        "duration": 0.188,
        "velocity": 0.54,
        "hand": "right"
      },
      {
        "midi": 67,
        "time": 237.938,
        "duration": 0.188,
        "velocity": 0.75,
        "hand": "right"
      },
      {
        "midi": 69,
        "time": 237.938,
        "duration": 0.188,
        "velocity": 0.75,
        "hand": "right"
      },
      {
        "midi": 81,
        "time": 237.938,
        "duration": 0.188,
        "velocity": 0.54,
        "hand": "right"
      },
      {
        "midi": 69,
        "time": 238.125,
        "duration": 0.188,
        "velocity": 0.75,
        "hand": "right"
      },
      {
        "midi": 69,
        "time": 238.313,
        "duration": 0.188,
        "velocity": 0.75,
        "hand": "right"
      },
      {
        "midi": 73,
        "time": 238.313,
        "duration": 0.188,
        "velocity": 0.75,
        "hand": "right"
      },
      {
        "midi": 81,
        "time": 238.313,
        "duration": 0.188,
        "velocity": 0.54,
        "hand": "right"
      },
      {
        "midi": 66,
        "time": 238.5,
        "duration": 0.188,
        "velocity": 0.75,
        "hand": "right"
      },
      {
        "midi": 81,
        "time": 238.5,
        "duration": 0.375,
        "velocity": 0.54,
        "hand": "right"
      },
      {
        "midi": 69,
        "time": 238.688,
        "duration": 0.188,
        "velocity": 0.75,
        "hand": "right"
      },
      {
        "midi": 74,
        "time": 238.688,
        "duration": 0.188,
        "velocity": 0.75,
        "hand": "right"
      },
      {
        "midi": 69,
        "time": 238.875,
        "duration": 0.188,
        "velocity": 0.75,
        "hand": "right"
      },
      {
        "midi": 83,
        "time": 238.875,
        "duration": 0.094,
        "velocity": 0.54,
        "hand": "right"
      },
      {
        "midi": 85,
        "time": 238.875,
        "duration": 0.094,
        "velocity": 0.54,
        "hand": "right"
      },
      {
        "midi": 66,
        "time": 239.063,
        "duration": 0.188,
        "velocity": 0.75,
        "hand": "right"
      },
      {
        "midi": 69,
        "time": 239.063,
        "duration": 0.188,
        "velocity": 0.75,
        "hand": "right"
      },
      {
        "midi": 86,
        "time": 239.063,
        "duration": 0.188,
        "velocity": 0.54,
        "hand": "right"
      },
      {
        "midi": 66,
        "time": 239.25,
        "duration": 0.188,
        "velocity": 0.75,
        "hand": "right"
      },
      {
        "midi": 74,
        "time": 239.25,
        "duration": 0.188,
        "velocity": 0.54,
        "hand": "right"
      },
      {
        "midi": 66,
        "time": 239.438,
        "duration": 0.188,
        "velocity": 0.75,
        "hand": "right"
      },
      {
        "midi": 69,
        "time": 239.438,
        "duration": 0.188,
        "velocity": 0.75,
        "hand": "right"
      },
      {
        "midi": 75,
        "time": 239.438,
        "duration": 0.188,
        "velocity": 0.54,
        "hand": "right"
      },
      {
        "midi": 84,
        "time": 239.438,
        "duration": 0.188,
        "velocity": 0.54,
        "hand": "right"
      },
      {
        "midi": 69,
        "time": 239.625,
        "duration": 0.188,
        "velocity": 0.75,
        "hand": "right"
      },
      {
        "midi": 66,
        "time": 239.813,
        "duration": 0.188,
        "velocity": 0.75,
        "hand": "right"
      },
      {
        "midi": 69,
        "time": 239.813,
        "duration": 0.188,
        "velocity": 0.75,
        "hand": "right"
      },
      {
        "midi": 75,
        "time": 239.813,
        "duration": 0.188,
        "velocity": 0.54,
        "hand": "right"
      },
      {
        "midi": 84,
        "time": 239.813,
        "duration": 0.188,
        "velocity": 0.54,
        "hand": "right"
      },
      {
        "midi": 66,
        "time": 240,
        "duration": 0.188,
        "velocity": 0.75,
        "hand": "right"
      },
      {
        "midi": 75,
        "time": 240,
        "duration": 0.188,
        "velocity": 0.54,
        "hand": "right"
      },
      {
        "midi": 84,
        "time": 240,
        "duration": 0.188,
        "velocity": 0.54,
        "hand": "right"
      },
      {
        "midi": 66,
        "time": 240.188,
        "duration": 0.188,
        "velocity": 0.75,
        "hand": "right"
      },
      {
        "midi": 69,
        "time": 240.188,
        "duration": 0.188,
        "velocity": 0.75,
        "hand": "right"
      },
      {
        "midi": 75,
        "time": 240.188,
        "duration": 0.188,
        "velocity": 0.54,
        "hand": "right"
      },
      {
        "midi": 84,
        "time": 240.188,
        "duration": 0.188,
        "velocity": 0.54,
        "hand": "right"
      },
      {
        "midi": 69,
        "time": 240.375,
        "duration": 0.188,
        "velocity": 0.75,
        "hand": "right"
      },
      {
        "midi": 67,
        "time": 240.563,
        "duration": 0.563,
        "velocity": 0.75,
        "hand": "right"
      },
      {
        "midi": 76,
        "time": 240.563,
        "duration": 0.563,
        "velocity": 0.71,
        "hand": "right"
      },
      {
        "midi": 83,
        "time": 240.563,
        "duration": 0.188,
        "velocity": 0.71,
        "hand": "right"
      },
      {
        "midi": 84,
        "time": 240.563,
        "duration": 0.188,
        "velocity": 0.71,
        "hand": "right"
      },
      {
        "midi": 82,
        "time": 240.75,
        "duration": 0.188,
        "velocity": 0.71,
        "hand": "right"
      },
      {
        "midi": 81,
        "time": 240.938,
        "duration": 0.188,
        "velocity": 0.71,
        "hand": "right"
      },
      {
        "midi": 83,
        "time": 240.938,
        "duration": 0.188,
        "velocity": 0.71,
        "hand": "right"
      },
      {
        "midi": 79,
        "time": 241.125,
        "duration": 0.188,
        "velocity": 0.71,
        "hand": "right"
      },
      {
        "midi": 76,
        "time": 241.313,
        "duration": 0.188,
        "velocity": 0.71,
        "hand": "right"
      },
      {
        "midi": 78,
        "time": 241.313,
        "duration": 0.188,
        "velocity": 0.71,
        "hand": "right"
      },
      {
        "midi": 57,
        "time": 241.5,
        "duration": 0.938,
        "velocity": 0.71,
        "hand": "left"
      },
      {
        "midi": 66,
        "time": 241.5,
        "duration": 0.563,
        "velocity": 0.71,
        "hand": "right"
      },
      {
        "midi": 74,
        "time": 241.5,
        "duration": 0.563,
        "velocity": 0.71,
        "hand": "right"
      },
      {
        "midi": 67,
        "time": 242.063,
        "duration": 0.563,
        "velocity": 0.71,
        "hand": "right"
      },
      {
        "midi": 73,
        "time": 242.063,
        "duration": 0.563,
        "velocity": 0.71,
        "hand": "right"
      },
      {
        "midi": 78,
        "time": 242.063,
        "duration": 0.375,
        "velocity": 0.71,
        "hand": "right"
      },
      {
        "midi": 62,
        "time": 242.438,
        "duration": 0.188,
        "velocity": 0.75,
        "hand": "right"
      },
      {
        "midi": 74,
        "time": 242.438,
        "duration": 0.563,
        "velocity": 0.71,
        "hand": "right"
      },
      {
        "midi": 76,
        "time": 242.438,
        "duration": 0.188,
        "velocity": 0.71,
        "hand": "right"
      },
      {
        "midi": 69,
        "time": 242.625,
        "duration": 0.188,
        "velocity": 0.75,
        "hand": "right"
      },
      {
        "midi": 66,
        "time": 242.813,
        "duration": 0.188,
        "velocity": 0.75,
        "hand": "right"
      },
      {
        "midi": 69,
        "time": 242.813,
        "duration": 0.188,
        "velocity": 0.75,
        "hand": "right"
      },
      {
        "midi": 66,
        "time": 243,
        "duration": 0.188,
        "velocity": 0.75,
        "hand": "right"
      },
      {
        "midi": 66,
        "time": 243.188,
        "duration": 0.188,
        "velocity": 0.75,
        "hand": "right"
      },
      {
        "midi": 69,
        "time": 243.188,
        "duration": 0.188,
        "velocity": 0.75,
        "hand": "right"
      },
      {
        "midi": 74,
        "time": 243.188,
        "duration": 0.188,
        "velocity": 0.54,
        "hand": "right"
      },
      {
        "midi": 69,
        "time": 243.375,
        "duration": 0.188,
        "velocity": 0.75,
        "hand": "right"
      },
      {
        "midi": 67,
        "time": 243.563,
        "duration": 0.188,
        "velocity": 0.75,
        "hand": "right"
      },
      {
        "midi": 69,
        "time": 243.563,
        "duration": 0.188,
        "velocity": 0.75,
        "hand": "right"
      },
      {
        "midi": 73,
        "time": 243.563,
        "duration": 0.188,
        "velocity": 0.54,
        "hand": "right"
      },
      {
        "midi": 73,
        "time": 243.75,
        "duration": 0.188,
        "velocity": 0.75,
        "hand": "right"
      },
      {
        "midi": 81,
        "time": 243.75,
        "duration": 0.188,
        "velocity": 0.54,
        "hand": "right"
      },
      {
        "midi": 67,
        "time": 243.938,
        "duration": 0.188,
        "velocity": 0.75,
        "hand": "right"
      },
      {
        "midi": 69,
        "time": 243.938,
        "duration": 0.188,
        "velocity": 0.75,
        "hand": "right"
      },
      {
        "midi": 81,
        "time": 243.938,
        "duration": 0.188,
        "velocity": 0.54,
        "hand": "right"
      },
      {
        "midi": 69,
        "time": 244.125,
        "duration": 0.188,
        "velocity": 0.75,
        "hand": "right"
      },
      {
        "midi": 69,
        "time": 244.313,
        "duration": 0.188,
        "velocity": 0.75,
        "hand": "right"
      },
      {
        "midi": 73,
        "time": 244.313,
        "duration": 0.188,
        "velocity": 0.75,
        "hand": "right"
      },
      {
        "midi": 81,
        "time": 244.313,
        "duration": 0.188,
        "velocity": 0.54,
        "hand": "right"
      },
      {
        "midi": 66,
        "time": 244.5,
        "duration": 0.188,
        "velocity": 0.75,
        "hand": "right"
      },
      {
        "midi": 81,
        "time": 244.5,
        "duration": 0.375,
        "velocity": 0.54,
        "hand": "right"
      },
      {
        "midi": 69,
        "time": 244.688,
        "duration": 0.188,
        "velocity": 0.75,
        "hand": "right"
      },
      {
        "midi": 74,
        "time": 244.688,
        "duration": 0.188,
        "velocity": 0.75,
        "hand": "right"
      },
      {
        "midi": 69,
        "time": 244.875,
        "duration": 0.188,
        "velocity": 0.75,
        "hand": "right"
      },
      {
        "midi": 83,
        "time": 244.875,
        "duration": 0.094,
        "velocity": 0.54,
        "hand": "right"
      },
      {
        "midi": 85,
        "time": 244.875,
        "duration": 0.094,
        "velocity": 0.54,
        "hand": "right"
      },
      {
        "midi": 66,
        "time": 245.063,
        "duration": 0.188,
        "velocity": 0.75,
        "hand": "right"
      },
      {
        "midi": 69,
        "time": 245.063,
        "duration": 0.188,
        "velocity": 0.75,
        "hand": "right"
      },
      {
        "midi": 86,
        "time": 245.063,
        "duration": 0.188,
        "velocity": 0.54,
        "hand": "right"
      },
      {
        "midi": 66,
        "time": 245.25,
        "duration": 0.188,
        "velocity": 0.75,
        "hand": "right"
      },
      {
        "midi": 74,
        "time": 245.25,
        "duration": 0.188,
        "velocity": 0.54,
        "hand": "right"
      },
      {
        "midi": 67,
        "time": 245.438,
        "duration": 0.188,
        "velocity": 0.75,
        "hand": "right"
      },
      {
        "midi": 69,
        "time": 245.438,
        "duration": 0.188,
        "velocity": 0.75,
        "hand": "right"
      },
      {
        "midi": 73,
        "time": 245.438,
        "duration": 0.188,
        "velocity": 0.54,
        "hand": "right"
      },
      {
        "midi": 69,
        "time": 245.625,
        "duration": 0.188,
        "velocity": 0.75,
        "hand": "right"
      },
      {
        "midi": 69,
        "time": 245.813,
        "duration": 0.188,
        "velocity": 0.75,
        "hand": "right"
      },
      {
        "midi": 73,
        "time": 245.813,
        "duration": 0.188,
        "velocity": 0.75,
        "hand": "right"
      },
      {
        "midi": 81,
        "time": 245.813,
        "duration": 0.188,
        "velocity": 0.54,
        "hand": "right"
      },
      {
        "midi": 67,
        "time": 246,
        "duration": 0.188,
        "velocity": 0.75,
        "hand": "right"
      },
      {
        "midi": 81,
        "time": 246,
        "duration": 0.188,
        "velocity": 0.54,
        "hand": "right"
      },
      {
        "midi": 69,
        "time": 246.188,
        "duration": 0.188,
        "velocity": 0.75,
        "hand": "right"
      },
      {
        "midi": 73,
        "time": 246.188,
        "duration": 0.188,
        "velocity": 0.75,
        "hand": "right"
      },
      {
        "midi": 81,
        "time": 246.188,
        "duration": 0.188,
        "velocity": 0.54,
        "hand": "right"
      },
      {
        "midi": 69,
        "time": 246.375,
        "duration": 0.188,
        "velocity": 0.75,
        "hand": "right"
      },
      {
        "midi": 66,
        "time": 246.563,
        "duration": 0.188,
        "velocity": 0.75,
        "hand": "right"
      },
      {
        "midi": 69,
        "time": 246.563,
        "duration": 0.188,
        "velocity": 0.75,
        "hand": "right"
      },
      {
        "midi": 81,
        "time": 246.563,
        "duration": 0.375,
        "velocity": 0.54,
        "hand": "right"
      },
      {
        "midi": 74,
        "time": 246.75,
        "duration": 0.188,
        "velocity": 0.75,
        "hand": "right"
      },
      {
        "midi": 66,
        "time": 246.938,
        "duration": 0.188,
        "velocity": 0.75,
        "hand": "right"
      },
      {
        "midi": 69,
        "time": 246.938,
        "duration": 0.188,
        "velocity": 0.75,
        "hand": "right"
      },
      {
        "midi": 83,
        "time": 246.938,
        "duration": 0.094,
        "velocity": 0.54,
        "hand": "right"
      },
      {
        "midi": 85,
        "time": 246.938,
        "duration": 0.094,
        "velocity": 0.54,
        "hand": "right"
      },
      {
        "midi": 86,
        "time": 246.938,
        "duration": 0.188,
        "velocity": 0.54,
        "hand": "right"
      },
      {
        "midi": 69,
        "time": 247.125,
        "duration": 0.188,
        "velocity": 0.75,
        "hand": "right"
      },
      {
        "midi": 66,
        "time": 247.313,
        "duration": 0.188,
        "velocity": 0.75,
        "hand": "right"
      },
      {
        "midi": 69,
        "time": 247.313,
        "duration": 0.188,
        "velocity": 0.75,
        "hand": "right"
      },
      {
        "midi": 74,
        "time": 247.313,
        "duration": 0.188,
        "velocity": 0.54,
        "hand": "right"
      },
      {
        "midi": 66,
        "time": 247.5,
        "duration": 0.188,
        "velocity": 0.75,
        "hand": "right"
      },
      {
        "midi": 75,
        "time": 247.5,
        "duration": 0.938,
        "velocity": 0.54,
        "hand": "right"
      },
      {
        "midi": 84,
        "time": 247.5,
        "duration": 0.938,
        "velocity": 0.54,
        "hand": "right"
      },
      {
        "midi": 66,
        "time": 247.688,
        "duration": 0.188,
        "velocity": 0.75,
        "hand": "right"
      },
      {
        "midi": 69,
        "time": 247.688,
        "duration": 0.188,
        "velocity": 0.75,
        "hand": "right"
      },
      {
        "midi": 69,
        "time": 247.875,
        "duration": 0.188,
        "velocity": 0.75,
        "hand": "right"
      },
      {
        "midi": 66,
        "time": 248.063,
        "duration": 0.188,
        "velocity": 0.75,
        "hand": "right"
      },
      {
        "midi": 69,
        "time": 248.063,
        "duration": 0.188,
        "velocity": 0.75,
        "hand": "right"
      },
      {
        "midi": 66,
        "time": 248.25,
        "duration": 0.188,
        "velocity": 0.75,
        "hand": "right"
      },
      {
        "midi": 67,
        "time": 248.438,
        "duration": 0.563,
        "velocity": 0.75,
        "hand": "right"
      },
      {
        "midi": 69,
        "time": 248.438,
        "duration": 0.188,
        "velocity": 0.75,
        "hand": "right"
      },
      {
        "midi": 71,
        "time": 248.438,
        "duration": 0.563,
        "velocity": 0.54,
        "hand": "right"
      },
      {
        "midi": 76,
        "time": 248.438,
        "duration": 0.563,
        "velocity": 0.54,
        "hand": "right"
      },
      {
        "midi": 56,
        "time": 249.563,
        "duration": 0.563,
        "velocity": 0.75,
        "hand": "left"
      },
      {
        "midi": 68,
        "time": 249.563,
        "duration": 0.563,
        "velocity": 0.75,
        "hand": "right"
      },
      {
        "midi": 77,
        "time": 249.563,
        "duration": 0.563,
        "velocity": 0.54,
        "hand": "right"
      },
      {
        "midi": 83,
        "time": 249.563,
        "duration": 0.563,
        "velocity": 0.54,
        "hand": "right"
      },
      {
        "midi": 86,
        "time": 249.563,
        "duration": 0.563,
        "velocity": 0.54,
        "hand": "right"
      },
      {
        "midi": 45,
        "time": 250.5,
        "duration": 1.5,
        "velocity": 0.75,
        "hand": "left"
      },
      {
        "midi": 50,
        "time": 250.5,
        "duration": 1.5,
        "velocity": 0.75,
        "hand": "left"
      },
      {
        "midi": 54,
        "time": 250.5,
        "duration": 1.5,
        "velocity": 0.75,
        "hand": "left"
      },
      {
        "midi": 57,
        "time": 250.5,
        "duration": 1.5,
        "velocity": 0.54,
        "hand": "left"
      },
      {
        "midi": 57,
        "time": 252,
        "duration": 0.188,
        "velocity": 0.54,
        "hand": "left"
      },
      {
        "midi": 59,
        "time": 252,
        "duration": 0.188,
        "velocity": 0.54,
        "hand": "left"
      },
      {
        "midi": 56,
        "time": 252.188,
        "duration": 0.188,
        "velocity": 0.54,
        "hand": "left"
      },
      {
        "midi": 57,
        "time": 252.188,
        "duration": 0.188,
        "velocity": 0.54,
        "hand": "left"
      },
      {
        "midi": 57,
        "time": 252.375,
        "duration": 0.188,
        "velocity": 0.54,
        "hand": "left"
      },
      {
        "midi": 59,
        "time": 252.375,
        "duration": 0.188,
        "velocity": 0.54,
        "hand": "left"
      },
      {
        "midi": 61,
        "time": 252.563,
        "duration": 0.188,
        "velocity": 0.54,
        "hand": "right"
      },
      {
        "midi": 62,
        "time": 252.563,
        "duration": 0.188,
        "velocity": 0.54,
        "hand": "right"
      },
      {
        "midi": 64,
        "time": 252.75,
        "duration": 0.188,
        "velocity": 0.54,
        "hand": "right"
      },
      {
        "midi": 66,
        "time": 252.75,
        "duration": 0.188,
        "velocity": 0.54,
        "hand": "right"
      },
      {
        "midi": 67,
        "time": 252.938,
        "duration": 0.188,
        "velocity": 0.54,
        "hand": "right"
      },
      {
        "midi": 69,
        "time": 252.938,
        "duration": 0.188,
        "velocity": 0.54,
        "hand": "right"
      },
      {
        "midi": 71,
        "time": 253.125,
        "duration": 0.188,
        "velocity": 0.54,
        "hand": "right"
      },
      {
        "midi": 73,
        "time": 253.125,
        "duration": 0.188,
        "velocity": 0.54,
        "hand": "right"
      },
      {
        "midi": 74,
        "time": 253.313,
        "duration": 0.188,
        "velocity": 0.54,
        "hand": "right"
      },
      {
        "midi": 76,
        "time": 253.313,
        "duration": 0.188,
        "velocity": 0.54,
        "hand": "right"
      },
      {
        "midi": 78,
        "time": 253.5,
        "duration": 0.188,
        "velocity": 0.54,
        "hand": "right"
      },
      {
        "midi": 79,
        "time": 253.5,
        "duration": 0.188,
        "velocity": 0.54,
        "hand": "right"
      },
      {
        "midi": 81,
        "time": 253.688,
        "duration": 0.188,
        "velocity": 0.54,
        "hand": "right"
      },
      {
        "midi": 83,
        "time": 253.688,
        "duration": 0.188,
        "velocity": 0.54,
        "hand": "right"
      },
      {
        "midi": 85,
        "time": 253.875,
        "duration": 0.188,
        "velocity": 0.54,
        "hand": "right"
      },
      {
        "midi": 86,
        "time": 253.875,
        "duration": 0.188,
        "velocity": 0.54,
        "hand": "right"
      },
      {
        "midi": 85,
        "time": 254.063,
        "duration": 0.188,
        "velocity": 0.54,
        "hand": "right"
      },
      {
        "midi": 88,
        "time": 254.063,
        "duration": 0.188,
        "velocity": 0.54,
        "hand": "right"
      },
      {
        "midi": 85,
        "time": 254.25,
        "duration": 0.188,
        "velocity": 0.54,
        "hand": "right"
      },
      {
        "midi": 86,
        "time": 254.25,
        "duration": 0.188,
        "velocity": 0.54,
        "hand": "right"
      },
      {
        "midi": 81,
        "time": 254.438,
        "duration": 0.188,
        "velocity": 0.54,
        "hand": "right"
      },
      {
        "midi": 83,
        "time": 254.438,
        "duration": 0.188,
        "velocity": 0.54,
        "hand": "right"
      },
      {
        "midi": 83,
        "time": 254.625,
        "duration": 0.188,
        "velocity": 0.54,
        "hand": "right"
      },
      {
        "midi": 85,
        "time": 254.625,
        "duration": 0.188,
        "velocity": 0.54,
        "hand": "right"
      },
      {
        "midi": 79,
        "time": 254.813,
        "duration": 0.188,
        "velocity": 0.54,
        "hand": "right"
      },
      {
        "midi": 81,
        "time": 254.813,
        "duration": 0.188,
        "velocity": 0.54,
        "hand": "right"
      },
      {
        "midi": 78,
        "time": 255,
        "duration": 0.188,
        "velocity": 0.54,
        "hand": "right"
      },
      {
        "midi": 81,
        "time": 255,
        "duration": 0.188,
        "velocity": 0.54,
        "hand": "right"
      },
      {
        "midi": 78,
        "time": 255.188,
        "duration": 0.188,
        "velocity": 0.54,
        "hand": "right"
      },
      {
        "midi": 79,
        "time": 255.188,
        "duration": 0.188,
        "velocity": 0.54,
        "hand": "right"
      },
      {
        "midi": 75,
        "time": 255.375,
        "duration": 0.188,
        "velocity": 0.54,
        "hand": "right"
      },
      {
        "midi": 76,
        "time": 255.375,
        "duration": 0.188,
        "velocity": 0.54,
        "hand": "right"
      },
      {
        "midi": 76,
        "time": 255.563,
        "duration": 0.188,
        "velocity": 0.54,
        "hand": "right"
      },
      {
        "midi": 78,
        "time": 255.563,
        "duration": 0.188,
        "velocity": 0.54,
        "hand": "right"
      },
      {
        "midi": 76,
        "time": 255.75,
        "duration": 0.188,
        "velocity": 0.54,
        "hand": "right"
      },
      {
        "midi": 79,
        "time": 255.75,
        "duration": 0.188,
        "velocity": 0.54,
        "hand": "right"
      },
      {
        "midi": 76,
        "time": 255.938,
        "duration": 0.188,
        "velocity": 0.54,
        "hand": "right"
      },
      {
        "midi": 76,
        "time": 255.938,
        "duration": 3.188,
        "velocity": 0.54,
        "hand": "right"
      },
      {
        "midi": 57,
        "time": 258.938,
        "duration": 1.688,
        "velocity": 0.75,
        "hand": "left"
      },
      {
        "midi": 61,
        "time": 258.938,
        "duration": 1.688,
        "velocity": 0.75,
        "hand": "right"
      },
      {
        "midi": 67,
        "time": 258.938,
        "duration": 1.688,
        "velocity": 0.75,
        "hand": "right"
      },
      {
        "midi": 75,
        "time": 259.125,
        "duration": 0.188,
        "velocity": 0.54,
        "hand": "right"
      },
      {
        "midi": 76,
        "time": 259.313,
        "duration": 0.188,
        "velocity": 0.54,
        "hand": "right"
      },
      {
        "midi": 78,
        "time": 259.313,
        "duration": 0.188,
        "velocity": 0.54,
        "hand": "right"
      },
      {
        "midi": 76,
        "time": 259.5,
        "duration": 0.188,
        "velocity": 0.54,
        "hand": "right"
      },
      {
        "midi": 79,
        "time": 259.5,
        "duration": 0.188,
        "velocity": 0.54,
        "hand": "right"
      },
      {
        "midi": 78,
        "time": 259.688,
        "duration": 0.188,
        "velocity": 0.54,
        "hand": "right"
      },
      {
        "midi": 81,
        "time": 259.688,
        "duration": 0.188,
        "velocity": 0.54,
        "hand": "right"
      },
      {
        "midi": 79,
        "time": 259.875,
        "duration": 0.188,
        "velocity": 0.54,
        "hand": "right"
      },
      {
        "midi": 76,
        "time": 260.063,
        "duration": 0.188,
        "velocity": 0.54,
        "hand": "right"
      },
      {
        "midi": 78,
        "time": 260.063,
        "duration": 0.188,
        "velocity": 0.54,
        "hand": "right"
      },
      {
        "midi": 79,
        "time": 260.25,
        "duration": 0.188,
        "velocity": 0.54,
        "hand": "right"
      },
      {
        "midi": 76,
        "time": 260.438,
        "duration": 0.188,
        "velocity": 0.54,
        "hand": "right"
      },
      {
        "midi": 78,
        "time": 260.438,
        "duration": 0.188,
        "velocity": 0.54,
        "hand": "right"
      },
      {
        "midi": 74,
        "time": 260.625,
        "duration": 0.188,
        "velocity": 0.54,
        "hand": "right"
      },
      {
        "midi": 78,
        "time": 260.813,
        "duration": 0.188,
        "velocity": 0.54,
        "hand": "right"
      },
      {
        "midi": 76,
        "time": 261,
        "duration": 0.188,
        "velocity": 0.54,
        "hand": "right"
      },
      {
        "midi": 74,
        "time": 261.188,
        "duration": 0.188,
        "velocity": 0.54,
        "hand": "right"
      },
      {
        "midi": 73,
        "time": 261.563,
        "duration": 0.188,
        "velocity": 0.54,
        "hand": "right"
      },
      {
        "midi": 76,
        "time": 261.75,
        "duration": 0.188,
        "velocity": 0.54,
        "hand": "right"
      },
      {
        "midi": 74,
        "time": 261.938,
        "duration": 0.188,
        "velocity": 0.54,
        "hand": "right"
      },
      {
        "midi": 73,
        "time": 262.313,
        "duration": 0.188,
        "velocity": 0.54,
        "hand": "right"
      },
      {
        "midi": 71,
        "time": 262.5,
        "duration": 0.188,
        "velocity": 0.54,
        "hand": "right"
      },
      {
        "midi": 62,
        "time": 262.688,
        "duration": 0.938,
        "velocity": 0.75,
        "hand": "right"
      },
      {
        "midi": 66,
        "time": 262.688,
        "duration": 0.938,
        "velocity": 0.75,
        "hand": "right"
      },
      {
        "midi": 69,
        "time": 262.688,
        "duration": 0.563,
        "velocity": 0.54,
        "hand": "right"
      },
      {
        "midi": 78,
        "time": 263.25,
        "duration": 0.188,
        "velocity": 0.54,
        "hand": "right"
      },
      {
        "midi": 74,
        "time": 263.438,
        "duration": 0.188,
        "velocity": 0.54,
        "hand": "right"
      },
      {
        "midi": 62,
        "time": 263.813,
        "duration": 2.063,
        "velocity": 0.75,
        "hand": "right"
      },
      {
        "midi": 67,
        "time": 263.813,
        "duration": 2.063,
        "velocity": 0.75,
        "hand": "right"
      },
      {
        "midi": 73,
        "time": 263.813,
        "duration": 0.563,
        "velocity": 0.54,
        "hand": "right"
      },
      {
        "midi": 71,
        "time": 264.188,
        "duration": 0.188,
        "velocity": 0.54,
        "hand": "right"
      },
      {
        "midi": 76,
        "time": 264.563,
        "duration": 0.188,
        "velocity": 0.54,
        "hand": "right"
      },
      {
        "midi": 79,
        "time": 264.563,
        "duration": 0.188,
        "velocity": 0.54,
        "hand": "right"
      },
      {
        "midi": 64,
        "time": 264.75,
        "duration": 0.938,
        "velocity": 0.75,
        "hand": "right"
      },
      {
        "midi": 74,
        "time": 264.75,
        "duration": 0.188,
        "velocity": 0.71,
        "hand": "right"
      },
      {
        "midi": 73,
        "time": 264.938,
        "duration": 0.75,
        "velocity": 0.71,
        "hand": "right"
      },
      {
        "midi": 83,
        "time": 265.313,
        "duration": 0.188,
        "velocity": 0.71,
        "hand": "right"
      },
      {
        "midi": 81,
        "time": 265.5,
        "duration": 0.188,
        "velocity": 0.71,
        "hand": "right"
      },
      {
        "midi": 62,
        "time": 265.688,
        "duration": 0.563,
        "velocity": 0.75,
        "hand": "right"
      },
      {
        "midi": 66,
        "time": 265.688,
        "duration": 0.563,
        "velocity": 0.75,
        "hand": "right"
      },
      {
        "midi": 74,
        "time": 265.688,
        "duration": 0.563,
        "velocity": 0.71,
        "hand": "right"
      },
      {
        "midi": 81,
        "time": 265.688,
        "duration": 0.375,
        "velocity": 0.71,
        "hand": "right"
      },
      {
        "midi": 83,
        "time": 266.063,
        "duration": 0.094,
        "velocity": 0.71,
        "hand": "right"
      },
      {
        "midi": 78,
        "time": 266.25,
        "duration": 0.188,
        "velocity": 0.71,
        "hand": "right"
      },
      {
        "midi": 79,
        "time": 266.25,
        "duration": 0.094,
        "velocity": 0.71,
        "hand": "right"
      },
      {
        "midi": 81,
        "time": 266.438,
        "duration": 0.188,
        "velocity": 0.75,
        "hand": "right"
      },
      {
        "midi": 78,
        "time": 266.625,
        "duration": 0.188,
        "velocity": 0.75,
        "hand": "right"
      },
      {
        "midi": 42,
        "time": 266.813,
        "duration": 0.188,
        "velocity": 0.75,
        "hand": "left"
      },
      {
        "midi": 54,
        "time": 266.813,
        "duration": 0.188,
        "velocity": 0.75,
        "hand": "left"
      },
      {
        "midi": 86,
        "time": 266.813,
        "duration": 0.188,
        "velocity": 0.54,
        "hand": "right"
      },
      {
        "midi": 42,
        "time": 267,
        "duration": 0.188,
        "velocity": 0.75,
        "hand": "left"
      },
      {
        "midi": 54,
        "time": 267,
        "duration": 0.188,
        "velocity": 0.75,
        "hand": "left"
      },
      {
        "midi": 74,
        "time": 267,
        "duration": 0.188,
        "velocity": 0.54,
        "hand": "right"
      },
      {
        "midi": 81,
        "time": 267,
        "duration": 0.188,
        "velocity": 0.54,
        "hand": "right"
      },
      {
        "midi": 86,
        "time": 267,
        "duration": 0.188,
        "velocity": 0.54,
        "hand": "right"
      },
      {
        "midi": 42,
        "time": 267.188,
        "duration": 0.188,
        "velocity": 0.75,
        "hand": "left"
      },
      {
        "midi": 54,
        "time": 267.188,
        "duration": 0.188,
        "velocity": 0.75,
        "hand": "left"
      },
      {
        "midi": 74,
        "time": 267.188,
        "duration": 0.188,
        "velocity": 0.54,
        "hand": "right"
      },
      {
        "midi": 81,
        "time": 267.188,
        "duration": 0.188,
        "velocity": 0.54,
        "hand": "right"
      },
      {
        "midi": 86,
        "time": 267.188,
        "duration": 0.188,
        "velocity": 0.54,
        "hand": "right"
      },
      {
        "midi": 42,
        "time": 267.563,
        "duration": 0.188,
        "velocity": 0.75,
        "hand": "left"
      },
      {
        "midi": 54,
        "time": 267.563,
        "duration": 0.188,
        "velocity": 0.75,
        "hand": "left"
      },
      {
        "midi": 74,
        "time": 267.563,
        "duration": 0.188,
        "velocity": 0.54,
        "hand": "right"
      },
      {
        "midi": 81,
        "time": 267.563,
        "duration": 0.188,
        "velocity": 0.54,
        "hand": "right"
      },
      {
        "midi": 86,
        "time": 267.563,
        "duration": 0.188,
        "velocity": 0.54,
        "hand": "right"
      },
      {
        "midi": 43,
        "time": 267.75,
        "duration": 0.563,
        "velocity": 0.75,
        "hand": "left"
      },
      {
        "midi": 55,
        "time": 267.75,
        "duration": 0.563,
        "velocity": 0.75,
        "hand": "left"
      },
      {
        "midi": 74,
        "time": 267.75,
        "duration": 0.563,
        "velocity": 0.54,
        "hand": "right"
      },
      {
        "midi": 79,
        "time": 267.75,
        "duration": 0.563,
        "velocity": 0.54,
        "hand": "right"
      },
      {
        "midi": 83,
        "time": 267.75,
        "duration": 0.563,
        "velocity": 0.54,
        "hand": "right"
      },
      {
        "midi": 79,
        "time": 268.5,
        "duration": 0.188,
        "velocity": 0.54,
        "hand": "right"
      },
      {
        "midi": 57,
        "time": 268.688,
        "duration": 0.188,
        "velocity": 0.75,
        "hand": "left"
      },
      {
        "midi": 64,
        "time": 268.688,
        "duration": 0.188,
        "velocity": 0.75,
        "hand": "right"
      },
      {
        "midi": 73,
        "time": 268.688,
        "duration": 0.188,
        "velocity": 0.54,
        "hand": "right"
      },
      {
        "midi": 76,
        "time": 268.688,
        "duration": 0.188,
        "velocity": 0.54,
        "hand": "right"
      },
      {
        "midi": 57,
        "time": 269.063,
        "duration": 0.188,
        "velocity": 0.75,
        "hand": "left"
      },
      {
        "midi": 64,
        "time": 269.063,
        "duration": 0.188,
        "velocity": 0.75,
        "hand": "right"
      },
      {
        "midi": 67,
        "time": 269.063,
        "duration": 0.188,
        "velocity": 0.54,
        "hand": "right"
      },
      {
        "midi": 73,
        "time": 269.063,
        "duration": 0.188,
        "velocity": 0.54,
        "hand": "right"
      },
      {
        "midi": 57,
        "time": 269.25,
        "duration": 0.188,
        "velocity": 0.75,
        "hand": "left"
      },
      {
        "midi": 64,
        "time": 269.25,
        "duration": 0.188,
        "velocity": 0.75,
        "hand": "right"
      },
      {
        "midi": 67,
        "time": 269.25,
        "duration": 0.188,
        "velocity": 0.54,
        "hand": "right"
      },
      {
        "midi": 73,
        "time": 269.25,
        "duration": 0.188,
        "velocity": 0.54,
        "hand": "right"
      },
      {
        "midi": 57,
        "time": 269.438,
        "duration": 0.188,
        "velocity": 0.75,
        "hand": "left"
      },
      {
        "midi": 64,
        "time": 269.438,
        "duration": 0.188,
        "velocity": 0.75,
        "hand": "right"
      },
      {
        "midi": 67,
        "time": 269.438,
        "duration": 0.188,
        "velocity": 0.54,
        "hand": "right"
      },
      {
        "midi": 73,
        "time": 269.438,
        "duration": 0.188,
        "velocity": 0.54,
        "hand": "right"
      },
      {
        "midi": 59,
        "time": 269.813,
        "duration": 0.563,
        "velocity": 0.75,
        "hand": "left"
      },
      {
        "midi": 62,
        "time": 269.813,
        "duration": 0.563,
        "velocity": 0.75,
        "hand": "right"
      },
      {
        "midi": 66,
        "time": 269.813,
        "duration": 0.563,
        "velocity": 0.54,
        "hand": "right"
      },
      {
        "midi": 74,
        "time": 269.813,
        "duration": 0.563,
        "velocity": 0.54,
        "hand": "right"
      },
      {
        "midi": 44,
        "time": 270.75,
        "duration": 0.563,
        "velocity": 0.75,
        "hand": "left"
      },
      {
        "midi": 56,
        "time": 270.75,
        "duration": 0.563,
        "velocity": 0.75,
        "hand": "left"
      },
      {
        "midi": 74,
        "time": 270.75,
        "duration": 0.563,
        "velocity": 0.75,
        "hand": "right"
      },
      {
        "midi": 77,
        "time": 270.75,
        "duration": 0.563,
        "velocity": 0.75,
        "hand": "right"
      },
      {
        "midi": 83,
        "time": 270.75,
        "duration": 0.563,
        "velocity": 0.75,
        "hand": "right"
      },
      {
        "midi": 45,
        "time": 271.688,
        "duration": 0.563,
        "velocity": 0.75,
        "hand": "left"
      },
      {
        "midi": 57,
        "time": 271.688,
        "duration": 0.563,
        "velocity": 0.75,
        "hand": "left"
      },
      {
        "midi": 74,
        "time": 271.688,
        "duration": 0.563,
        "velocity": 0.75,
        "hand": "right"
      },
      {
        "midi": 78,
        "time": 271.688,
        "duration": 0.563,
        "velocity": 0.75,
        "hand": "right"
      },
      {
        "midi": 81,
        "time": 271.688,
        "duration": 0.563,
        "velocity": 0.75,
        "hand": "right"
      },
      {
        "midi": 33,
        "time": 272.813,
        "duration": 0.563,
        "velocity": 0.75,
        "hand": "left"
      },
      {
        "midi": 45,
        "time": 272.813,
        "duration": 0.563,
        "velocity": 0.75,
        "hand": "left"
      },
      {
        "midi": 52,
        "time": 272.813,
        "duration": 0.563,
        "velocity": 0.54,
        "hand": "left"
      },
      {
        "midi": 55,
        "time": 272.813,
        "duration": 0.563,
        "velocity": 0.54,
        "hand": "left"
      },
      {
        "midi": 61,
        "time": 272.813,
        "duration": 0.563,
        "velocity": 0.54,
        "hand": "right"
      },
      {
        "midi": 50,
        "time": 273.75,
        "duration": 0.938,
        "velocity": 0.75,
        "hand": "left"
      },
      {
        "midi": 54,
        "time": 273.75,
        "duration": 0.938,
        "velocity": 0.75,
        "hand": "left"
      },
      {
        "midi": 57,
        "time": 273.75,
        "duration": 0.563,
        "velocity": 0.49,
        "hand": "left"
      },
      {
        "midi": 66,
        "time": 274.313,
        "duration": 0.188,
        "velocity": 0.49,
        "hand": "right"
      },
      {
        "midi": 62,
        "time": 274.5,
        "duration": 0.188,
        "velocity": 0.49,
        "hand": "right"
      },
      {
        "midi": 50,
        "time": 274.688,
        "duration": 2.063,
        "velocity": 0.75,
        "hand": "left"
      },
      {
        "midi": 55,
        "time": 274.688,
        "duration": 2.063,
        "velocity": 0.75,
        "hand": "left"
      },
      {
        "midi": 61,
        "time": 274.688,
        "duration": 0.563,
        "velocity": 0.49,
        "hand": "right"
      },
      {
        "midi": 59,
        "time": 275.25,
        "duration": 0.188,
        "velocity": 0.49,
        "hand": "left"
      },
      {
        "midi": 67,
        "time": 275.438,
        "duration": 0.188,
        "velocity": 0.49,
        "hand": "right"
      },
      {
        "midi": 64,
        "time": 275.625,
        "duration": 0.188,
        "velocity": 0.49,
        "hand": "right"
      },
      {
        "midi": 52,
        "time": 275.813,
        "duration": 0.938,
        "velocity": 0.75,
        "hand": "left"
      },
      {
        "midi": 62,
        "time": 275.813,
        "duration": 0.188,
        "velocity": 0.71,
        "hand": "right"
      },
      {
        "midi": 61,
        "time": 276,
        "duration": 0.75,
        "velocity": 0.71,
        "hand": "right"
      },
      {
        "midi": 71,
        "time": 276.188,
        "duration": 0.188,
        "velocity": 0.71,
        "hand": "right"
      },
      {
        "midi": 69,
        "time": 276.563,
        "duration": 0.188,
        "velocity": 0.71,
        "hand": "right"
      },
      {
        "midi": 50,
        "time": 276.75,
        "duration": 0.75,
        "velocity": 0.75,
        "hand": "left"
      },
      {
        "midi": 54,
        "time": 276.75,
        "duration": 0.75,
        "velocity": 0.75,
        "hand": "left"
      },
      {
        "midi": 62,
        "time": 276.75,
        "duration": 0.75,
        "velocity": 0.71,
        "hand": "right"
      },
      {
        "midi": 69,
        "time": 276.75,
        "duration": 0.375,
        "velocity": 0.71,
        "hand": "right"
      },
      {
        "midi": 66,
        "time": 277.125,
        "duration": 0.188,
        "velocity": 0.71,
        "hand": "right"
      },
      {
        "midi": 69,
        "time": 277.313,
        "duration": 0.188,
        "velocity": 0.71,
        "hand": "right"
      },
      {
        "midi": 42,
        "time": 277.688,
        "duration": 0.938,
        "velocity": 0.75,
        "hand": "left"
      },
      {
        "midi": 50,
        "time": 277.688,
        "duration": 0.938,
        "velocity": 0.75,
        "hand": "left"
      },
      {
        "midi": 69,
        "time": 277.688,
        "duration": 0.563,
        "velocity": 0.75,
        "hand": "right"
      },
      {
        "midi": 78,
        "time": 278.25,
        "duration": 0.188,
        "velocity": 0.75,
        "hand": "right"
      },
      {
        "midi": 74,
        "time": 278.438,
        "duration": 0.188,
        "velocity": 0.75,
        "hand": "right"
      },
      {
        "midi": 43,
        "time": 278.813,
        "duration": 0.938,
        "velocity": 0.75,
        "hand": "left"
      },
      {
        "midi": 55,
        "time": 278.813,
        "duration": 0.938,
        "velocity": 0.75,
        "hand": "left"
      },
      {
        "midi": 71,
        "time": 278.813,
        "duration": 0.75,
        "velocity": 0.75,
        "hand": "right"
      },
      {
        "midi": 76,
        "time": 279.563,
        "duration": 0.188,
        "velocity": 0.75,
        "hand": "right"
      },
      {
        "midi": 79,
        "time": 279.563,
        "duration": 0.188,
        "velocity": 0.75,
        "hand": "right"
      },
      {
        "midi": 45,
        "time": 279.75,
        "duration": 0.938,
        "velocity": 0.75,
        "hand": "left"
      },
      {
        "midi": 52,
        "time": 279.75,
        "duration": 0.938,
        "velocity": 0.75,
        "hand": "left"
      },
      {
        "midi": 55,
        "time": 279.75,
        "duration": 0.938,
        "velocity": 0.75,
        "hand": "left"
      },
      {
        "midi": 73,
        "time": 279.75,
        "duration": 0.188,
        "velocity": 0.75,
        "hand": "right"
      },
      {
        "midi": 74,
        "time": 279.938,
        "duration": 0.188,
        "velocity": 0.75,
        "hand": "right"
      },
      {
        "midi": 76,
        "time": 279.938,
        "duration": 0.188,
        "velocity": 0.75,
        "hand": "right"
      },
      {
        "midi": 78,
        "time": 280.125,
        "duration": 0.188,
        "velocity": 0.75,
        "hand": "right"
      },
      {
        "midi": 79,
        "time": 280.313,
        "duration": 0.188,
        "velocity": 0.75,
        "hand": "right"
      },
      {
        "midi": 81,
        "time": 280.313,
        "duration": 0.188,
        "velocity": 0.75,
        "hand": "right"
      },
      {
        "midi": 83,
        "time": 280.5,
        "duration": 0.188,
        "velocity": 0.75,
        "hand": "right"
      },
      {
        "midi": 50,
        "time": 280.688,
        "duration": 0.188,
        "velocity": 0.75,
        "hand": "left"
      },
      {
        "midi": 54,
        "time": 280.688,
        "duration": 0.188,
        "velocity": 0.75,
        "hand": "left"
      },
      {
        "midi": 85,
        "time": 280.688,
        "duration": 0.188,
        "velocity": 0.75,
        "hand": "right"
      },
      {
        "midi": 86,
        "time": 280.688,
        "duration": 0.188,
        "velocity": 0.75,
        "hand": "right"
      },
      {
        "midi": 45,
        "time": 281.25,
        "duration": 0.188,
        "velocity": 0.75,
        "hand": "left"
      },
      {
        "midi": 57,
        "time": 281.25,
        "duration": 0.188,
        "velocity": 0.75,
        "hand": "left"
      },
      {
        "midi": 69,
        "time": 281.25,
        "duration": 0.188,
        "velocity": 0.8,
        "hand": "right"
      },
      {
        "midi": 73,
        "time": 281.25,
        "duration": 0.188,
        "velocity": 0.8,
        "hand": "right"
      },
      {
        "midi": 76,
        "time": 281.25,
        "duration": 0.188,
        "velocity": 0.8,
        "hand": "right"
      },
      {
        "midi": 81,
        "time": 281.25,
        "duration": 0.188,
        "velocity": 0.8,
        "hand": "right"
      },
      {
        "midi": 50,
        "time": 281.813,
        "duration": 0.188,
        "velocity": 0.75,
        "hand": "left"
      },
      {
        "midi": 57,
        "time": 281.813,
        "duration": 0.188,
        "velocity": 0.75,
        "hand": "left"
      },
      {
        "midi": 69,
        "time": 281.813,
        "duration": 0.188,
        "velocity": 0.8,
        "hand": "right"
      },
      {
        "midi": 74,
        "time": 281.813,
        "duration": 0.188,
        "velocity": 0.8,
        "hand": "right"
      },
      {
        "midi": 78,
        "time": 281.813,
        "duration": 0.188,
        "velocity": 0.8,
        "hand": "right"
      },
      {
        "midi": 45,
        "time": 282.188,
        "duration": 0.188,
        "velocity": 0.75,
        "hand": "left"
      },
      {
        "midi": 57,
        "time": 282.188,
        "duration": 0.188,
        "velocity": 0.75,
        "hand": "left"
      },
      {
        "midi": 64,
        "time": 282.188,
        "duration": 0.188,
        "velocity": 0.8,
        "hand": "right"
      },
      {
        "midi": 67,
        "time": 282.188,
        "duration": 0.188,
        "velocity": 0.8,
        "hand": "right"
      },
      {
        "midi": 69,
        "time": 282.188,
        "duration": 0.188,
        "velocity": 0.8,
        "hand": "right"
      },
      {
        "midi": 73,
        "time": 282.188,
        "duration": 0.188,
        "velocity": 0.8,
        "hand": "right"
      },
      {
        "midi": 38,
        "time": 282.75,
        "duration": 0.563,
        "velocity": 0.75,
        "hand": "left"
      },
      {
        "midi": 50,
        "time": 282.75,
        "duration": 0.563,
        "velocity": 0.75,
        "hand": "left"
      },
      {
        "midi": 62,
        "time": 282.75,
        "duration": 0.563,
        "velocity": 0.8,
        "hand": "right"
      },
      {
        "midi": 66,
        "time": 282.75,
        "duration": 0.563,
        "velocity": 0.8,
        "hand": "right"
      },
      {
        "midi": 69,
        "time": 282.75,
        "duration": 0.563,
        "velocity": 0.8,
        "hand": "right"
      },
      {
        "midi": 74,
        "time": 282.75,
        "duration": 0.563,
        "velocity": 0.8,
        "hand": "right"
      }
    ]
  },
  "notes1Hand": [
    {
      "midi": 62,
      "time": 1.5,
      "duration": 0.375,
      "velocity": 0.71,
      "hand": "right"
    },
    {
      "midi": 65,
      "time": 2.063,
      "duration": 0.375,
      "velocity": 0.71,
      "hand": "right"
    },
    {
      "midi": 62,
      "time": 4.5,
      "duration": 0.375,
      "velocity": 0.71,
      "hand": "right"
    },
    {
      "midi": 65,
      "time": 5.063,
      "duration": 0.375,
      "velocity": 0.71,
      "hand": "right"
    },
    {
      "midi": 64,
      "time": 7.5,
      "duration": 0.375,
      "velocity": 0.71,
      "hand": "right"
    },
    {
      "midi": 67,
      "time": 8.063,
      "duration": 0.375,
      "velocity": 0.71,
      "hand": "right"
    },
    {
      "midi": 64,
      "time": 10.5,
      "duration": 0.375,
      "velocity": 0.71,
      "hand": "right"
    },
    {
      "midi": 67,
      "time": 11.063,
      "duration": 0.375,
      "velocity": 0.71,
      "hand": "right"
    },
    {
      "midi": 62,
      "time": 13.313,
      "duration": 0.375,
      "velocity": 0.71,
      "hand": "right"
    },
    {
      "midi": 69,
      "time": 14.063,
      "duration": 0.375,
      "velocity": 0.71,
      "hand": "right"
    },
    {
      "midi": 62,
      "time": 14.438,
      "duration": 0.375,
      "velocity": 0.71,
      "hand": "right"
    },
    {
      "midi": 62,
      "time": 16.313,
      "duration": 0.375,
      "velocity": 0.71,
      "hand": "right"
    },
    {
      "midi": 69,
      "time": 17.063,
      "duration": 0.375,
      "velocity": 0.71,
      "hand": "right"
    },
    {
      "midi": 62,
      "time": 17.438,
      "duration": 0.375,
      "velocity": 0.71,
      "hand": "right"
    },
    {
      "midi": 62,
      "time": 18.75,
      "duration": 0.375,
      "velocity": 0.71,
      "hand": "right"
    },
    {
      "midi": 67,
      "time": 19.313,
      "duration": 0.938,
      "velocity": 0.71,
      "hand": "right"
    },
    {
      "midi": 60,
      "time": 20.25,
      "duration": 0.375,
      "velocity": 0.71,
      "hand": "right"
    },
    {
      "midi": 65,
      "time": 20.813,
      "duration": 0.938,
      "velocity": 0.71,
      "hand": "right"
    },
    {
      "midi": 65,
      "time": 21.938,
      "duration": 0.375,
      "velocity": 0.71,
      "hand": "right"
    },
    {
      "midi": 63,
      "time": 22.313,
      "duration": 0.938,
      "velocity": 0.71,
      "hand": "right"
    },
    {
      "midi": 64,
      "time": 23.438,
      "duration": 0.375,
      "velocity": 0.71,
      "hand": "right"
    },
    {
      "midi": 62,
      "time": 23.813,
      "duration": 0.375,
      "velocity": 0.71,
      "hand": "right"
    },
    {
      "midi": 61,
      "time": 24.938,
      "duration": 0.375,
      "velocity": 0.71,
      "hand": "right"
    },
    {
      "midi": 64,
      "time": 25.313,
      "duration": 0.375,
      "velocity": 0.71,
      "hand": "right"
    },
    {
      "midi": 73,
      "time": 25.688,
      "duration": 0.375,
      "velocity": 0.71,
      "hand": "right"
    },
    {
      "midi": 76,
      "time": 26.063,
      "duration": 0.375,
      "velocity": 0.71,
      "hand": "right"
    },
    {
      "midi": 85,
      "time": 26.438,
      "duration": 0.375,
      "velocity": 0.71,
      "hand": "right"
    },
    {
      "midi": 88,
      "time": 26.813,
      "duration": 0.375,
      "velocity": 0.71,
      "hand": "right"
    },
    {
      "midi": 84,
      "time": 27.563,
      "duration": 0.375,
      "velocity": 0.71,
      "hand": "right"
    },
    {
      "midi": 80,
      "time": 27.938,
      "duration": 0.375,
      "velocity": 0.71,
      "hand": "right"
    },
    {
      "midi": 81,
      "time": 28.313,
      "duration": 0.375,
      "velocity": 0.71,
      "hand": "right"
    },
    {
      "midi": 76,
      "time": 28.688,
      "duration": 0.375,
      "velocity": 0.71,
      "hand": "right"
    },
    {
      "midi": 72,
      "time": 29.063,
      "duration": 0.375,
      "velocity": 0.71,
      "hand": "right"
    },
    {
      "midi": 68,
      "time": 29.438,
      "duration": 0.375,
      "velocity": 0.71,
      "hand": "right"
    },
    {
      "midi": 69,
      "time": 29.813,
      "duration": 0.375,
      "velocity": 0.71,
      "hand": "right"
    },
    {
      "midi": 77,
      "time": 33,
      "duration": 1.688,
      "velocity": 0.54,
      "hand": "right"
    },
    {
      "midi": 69,
      "time": 33.563,
      "duration": 0.563,
      "velocity": 0.71,
      "hand": "right"
    },
    {
      "midi": 69,
      "time": 34.5,
      "duration": 0.563,
      "velocity": 0.71,
      "hand": "right"
    },
    {
      "midi": 77,
      "time": 34.875,
      "duration": 0.375,
      "velocity": 0.54,
      "hand": "right"
    },
    {
      "midi": 77,
      "time": 35.438,
      "duration": 0.563,
      "velocity": 0.54,
      "hand": "right"
    },
    {
      "midi": 76,
      "time": 36,
      "duration": 0.563,
      "velocity": 0.54,
      "hand": "right"
    },
    {
      "midi": 74,
      "time": 36.563,
      "duration": 0.563,
      "velocity": 0.54,
      "hand": "right"
    },
    {
      "midi": 73,
      "time": 36.938,
      "duration": 0.938,
      "velocity": 0.54,
      "hand": "right"
    },
    {
      "midi": 69,
      "time": 37.5,
      "duration": 0.563,
      "velocity": 0.71,
      "hand": "right"
    },
    {
      "midi": 69,
      "time": 38.063,
      "duration": 0.563,
      "velocity": 0.71,
      "hand": "right"
    },
    {
      "midi": 74,
      "time": 38.813,
      "duration": 0.375,
      "velocity": 0.54,
      "hand": "right"
    },
    {
      "midi": 76,
      "time": 39.563,
      "duration": 0.563,
      "velocity": 0.54,
      "hand": "right"
    },
    {
      "midi": 69,
      "time": 39.938,
      "duration": 0.563,
      "velocity": 0.71,
      "hand": "right"
    },
    {
      "midi": 69,
      "time": 40.5,
      "duration": 0.563,
      "velocity": 0.71,
      "hand": "right"
    },
    {
      "midi": 79,
      "time": 41.063,
      "duration": 1.688,
      "velocity": 0.54,
      "hand": "right"
    },
    {
      "midi": 69,
      "time": 41.438,
      "duration": 0.563,
      "velocity": 0.71,
      "hand": "right"
    },
    {
      "midi": 69,
      "time": 42,
      "duration": 0.563,
      "velocity": 0.71,
      "hand": "right"
    },
    {
      "midi": 69,
      "time": 42.563,
      "duration": 0.563,
      "velocity": 0.71,
      "hand": "right"
    },
    {
      "midi": 81,
      "time": 42.938,
      "duration": 0.563,
      "velocity": 0.54,
      "hand": "right"
    },
    {
      "midi": 79,
      "time": 43.5,
      "duration": 0.563,
      "velocity": 0.54,
      "hand": "right"
    },
    {
      "midi": 77,
      "time": 44.063,
      "duration": 0.563,
      "velocity": 0.54,
      "hand": "right"
    },
    {
      "midi": 76,
      "time": 44.438,
      "duration": 0.563,
      "velocity": 0.54,
      "hand": "right"
    },
    {
      "midi": 74,
      "time": 45,
      "duration": 0.938,
      "velocity": 0.54,
      "hand": "right"
    },
    {
      "midi": 69,
      "time": 45.563,
      "duration": 0.563,
      "velocity": 0.71,
      "hand": "right"
    },
    {
      "midi": 69,
      "time": 46.5,
      "duration": 0.563,
      "velocity": 0.71,
      "hand": "right"
    },
    {
      "midi": 79,
      "time": 47.063,
      "duration": 0.563,
      "velocity": 0.54,
      "hand": "right"
    },
    {
      "midi": 77,
      "time": 47.438,
      "duration": 0.563,
      "velocity": 0.54,
      "hand": "right"
    },
    {
      "midi": 69,
      "time": 48,
      "duration": 0.563,
      "velocity": 0.71,
      "hand": "right"
    },
    {
      "midi": 69,
      "time": 48.563,
      "duration": 0.563,
      "velocity": 0.71,
      "hand": "right"
    },
    {
      "midi": 81,
      "time": 48.938,
      "duration": 2.063,
      "velocity": 0.75,
      "hand": "right"
    },
    {
      "midi": 62,
      "time": 50.063,
      "duration": 0.938,
      "velocity": 0.71,
      "hand": "right"
    },
    {
      "midi": 82,
      "time": 51,
      "duration": 0.563,
      "velocity": 0.75,
      "hand": "right"
    },
    {
      "midi": 81,
      "time": 53.063,
      "duration": 0.75,
      "velocity": 0.54,
      "hand": "right"
    },
    {
      "midi": 86,
      "time": 53.813,
      "duration": 0.375,
      "velocity": 0.54,
      "hand": "right"
    },
    {
      "midi": 84,
      "time": 54.375,
      "duration": 0.375,
      "velocity": 0.54,
      "hand": "right"
    },
    {
      "midi": 83,
      "time": 54.75,
      "duration": 0.375,
      "velocity": 0.54,
      "hand": "right"
    },
    {
      "midi": 81,
      "time": 56.813,
      "duration": 0.375,
      "velocity": 0.54,
      "hand": "right"
    },
    {
      "midi": 80,
      "time": 57.563,
      "duration": 0.563,
      "velocity": 0.54,
      "hand": "right"
    },
    {
      "midi": 73,
      "time": 57.938,
      "duration": 0.563,
      "velocity": 0.71,
      "hand": "right"
    },
    {
      "midi": 79,
      "time": 58.5,
      "duration": 0.563,
      "velocity": 0.54,
      "hand": "right"
    },
    {
      "midi": 74,
      "time": 59.063,
      "duration": 0.563,
      "velocity": 0.71,
      "hand": "right"
    },
    {
      "midi": 78,
      "time": 59.438,
      "duration": 0.563,
      "velocity": 0.54,
      "hand": "right"
    },
    {
      "midi": 71,
      "time": 60,
      "duration": 0.563,
      "velocity": 0.71,
      "hand": "right"
    },
    {
      "midi": 77,
      "time": 60.563,
      "duration": 0.563,
      "velocity": 0.54,
      "hand": "right"
    },
    {
      "midi": 69,
      "time": 60.938,
      "duration": 0.938,
      "velocity": 0.71,
      "hand": "right"
    },
    {
      "midi": 76,
      "time": 61.5,
      "duration": 0.563,
      "velocity": 0.54,
      "hand": "right"
    },
    {
      "midi": 81,
      "time": 62.063,
      "duration": 0.563,
      "velocity": 0.54,
      "hand": "right"
    },
    {
      "midi": 85,
      "time": 62.438,
      "duration": 0.563,
      "velocity": 0.54,
      "hand": "right"
    },
    {
      "midi": 88,
      "time": 63,
      "duration": 0.563,
      "velocity": 0.54,
      "hand": "right"
    },
    {
      "midi": 64,
      "time": 65.063,
      "duration": 0.563,
      "velocity": 0.71,
      "hand": "right"
    },
    {
      "midi": 64,
      "time": 66,
      "duration": 0.563,
      "velocity": 0.71,
      "hand": "right"
    },
    {
      "midi": 64,
      "time": 66.563,
      "duration": 0.563,
      "velocity": 0.71,
      "hand": "right"
    },
    {
      "midi": 64,
      "time": 67.5,
      "duration": 0.563,
      "velocity": 0.71,
      "hand": "right"
    },
    {
      "midi": 64,
      "time": 68.063,
      "duration": 0.563,
      "velocity": 0.71,
      "hand": "right"
    },
    {
      "midi": 64,
      "time": 69,
      "duration": 0.563,
      "velocity": 0.71,
      "hand": "right"
    },
    {
      "midi": 64,
      "time": 69.563,
      "duration": 0.563,
      "velocity": 0.71,
      "hand": "right"
    },
    {
      "midi": 64,
      "time": 70.5,
      "duration": 0.563,
      "velocity": 0.71,
      "hand": "right"
    },
    {
      "midi": 64,
      "time": 71.063,
      "duration": 0.563,
      "velocity": 0.71,
      "hand": "right"
    },
    {
      "midi": 63,
      "time": 71.438,
      "duration": 0.563,
      "velocity": 0.71,
      "hand": "right"
    },
    {
      "midi": 69,
      "time": 72,
      "duration": 0.563,
      "velocity": 0.71,
      "hand": "right"
    },
    {
      "midi": 69,
      "time": 72.563,
      "duration": 0.563,
      "velocity": 0.71,
      "hand": "right"
    },
    {
      "midi": 68,
      "time": 74.438,
      "duration": 0.375,
      "velocity": 0.71,
      "hand": "right"
    },
    {
      "midi": 71,
      "time": 74.813,
      "duration": 0.375,
      "velocity": 0.71,
      "hand": "right"
    },
    {
      "midi": 71,
      "time": 76.688,
      "duration": 0.375,
      "velocity": 0.54,
      "hand": "right"
    },
    {
      "midi": 69,
      "time": 77.063,
      "duration": 0.375,
      "velocity": 0.54,
      "hand": "right"
    },
    {
      "midi": 65,
      "time": 77.438,
      "duration": 0.563,
      "velocity": 0.71,
      "hand": "right"
    },
    {
      "midi": 71,
      "time": 77.813,
      "duration": 0.375,
      "velocity": 0.54,
      "hand": "right"
    },
    {
      "midi": 68,
      "time": 78.188,
      "duration": 0.375,
      "velocity": 0.54,
      "hand": "right"
    },
    {
      "midi": 65,
      "time": 78.563,
      "duration": 0.563,
      "velocity": 0.71,
      "hand": "right"
    },
    {
      "midi": 69,
      "time": 78.938,
      "duration": 0.375,
      "velocity": 0.54,
      "hand": "right"
    },
    {
      "midi": 68,
      "time": 79.313,
      "duration": 0.375,
      "velocity": 0.54,
      "hand": "right"
    },
    {
      "midi": 71,
      "time": 79.688,
      "duration": 0.375,
      "velocity": 0.54,
      "hand": "right"
    },
    {
      "midi": 65,
      "time": 80.063,
      "duration": 0.563,
      "velocity": 0.71,
      "hand": "right"
    },
    {
      "midi": 68,
      "time": 80.813,
      "duration": 0.375,
      "velocity": 0.54,
      "hand": "right"
    },
    {
      "midi": 69,
      "time": 81.188,
      "duration": 0.375,
      "velocity": 0.54,
      "hand": "right"
    },
    {
      "midi": 64,
      "time": 81.563,
      "duration": 0.563,
      "velocity": 0.71,
      "hand": "right"
    },
    {
      "midi": 71,
      "time": 81.938,
      "duration": 0.375,
      "velocity": 0.54,
      "hand": "right"
    },
    {
      "midi": 69,
      "time": 82.313,
      "duration": 0.375,
      "velocity": 0.54,
      "hand": "right"
    },
    {
      "midi": 72,
      "time": 82.688,
      "duration": 0.375,
      "velocity": 0.54,
      "hand": "right"
    },
    {
      "midi": 71,
      "time": 83.063,
      "duration": 0.375,
      "velocity": 0.54,
      "hand": "right"
    },
    {
      "midi": 64,
      "time": 83.438,
      "duration": 0.563,
      "velocity": 0.71,
      "hand": "right"
    },
    {
      "midi": 72,
      "time": 83.813,
      "duration": 0.375,
      "velocity": 0.54,
      "hand": "right"
    },
    {
      "midi": 76,
      "time": 84.188,
      "duration": 0.375,
      "velocity": 0.54,
      "hand": "right"
    },
    {
      "midi": 64,
      "time": 84.563,
      "duration": 0.563,
      "velocity": 0.71,
      "hand": "right"
    },
    {
      "midi": 72,
      "time": 84.938,
      "duration": 0.375,
      "velocity": 0.54,
      "hand": "right"
    },
    {
      "midi": 71,
      "time": 85.313,
      "duration": 0.375,
      "velocity": 0.54,
      "hand": "right"
    },
    {
      "midi": 74,
      "time": 85.688,
      "duration": 0.375,
      "velocity": 0.54,
      "hand": "right"
    },
    {
      "midi": 72,
      "time": 86.063,
      "duration": 0.375,
      "velocity": 0.54,
      "hand": "right"
    },
    {
      "midi": 64,
      "time": 86.438,
      "duration": 0.563,
      "velocity": 0.71,
      "hand": "right"
    },
    {
      "midi": 74,
      "time": 86.813,
      "duration": 0.375,
      "velocity": 0.54,
      "hand": "right"
    },
    {
      "midi": 71,
      "time": 87.188,
      "duration": 0.375,
      "velocity": 0.54,
      "hand": "right"
    },
    {
      "midi": 64,
      "time": 87.563,
      "duration": 0.563,
      "velocity": 0.71,
      "hand": "right"
    },
    {
      "midi": 77,
      "time": 88.313,
      "duration": 0.375,
      "velocity": 0.54,
      "hand": "right"
    },
    {
      "midi": 71,
      "time": 88.688,
      "duration": 0.375,
      "velocity": 0.54,
      "hand": "right"
    },
    {
      "midi": 74,
      "time": 89.063,
      "duration": 0.375,
      "velocity": 0.54,
      "hand": "right"
    },
    {
      "midi": 60,
      "time": 89.438,
      "duration": 0.563,
      "velocity": 0.71,
      "hand": "right"
    },
    {
      "midi": 81,
      "time": 89.813,
      "duration": 0.375,
      "velocity": 0.54,
      "hand": "right"
    },
    {
      "midi": 80,
      "time": 90.188,
      "duration": 0.375,
      "velocity": 0.57,
      "hand": "right"
    },
    {
      "midi": 64,
      "time": 90.563,
      "duration": 0.563,
      "velocity": 0.71,
      "hand": "right"
    },
    {
      "midi": 65,
      "time": 90.938,
      "duration": 0.563,
      "velocity": 0.71,
      "hand": "right"
    },
    {
      "midi": 77,
      "time": 91.313,
      "duration": 0.375,
      "velocity": 0.65,
      "hand": "right"
    },
    {
      "midi": 76,
      "time": 91.688,
      "duration": 0.375,
      "velocity": 0.7,
      "hand": "right"
    },
    {
      "midi": 69,
      "time": 92.063,
      "duration": 0.563,
      "velocity": 0.71,
      "hand": "right"
    },
    {
      "midi": 71,
      "time": 92.438,
      "duration": 0.563,
      "velocity": 0.71,
      "hand": "right"
    },
    {
      "midi": 74,
      "time": 92.813,
      "duration": 0.375,
      "velocity": 0.54,
      "hand": "right"
    },
    {
      "midi": 76,
      "time": 93.188,
      "duration": 0.375,
      "velocity": 0.54,
      "hand": "right"
    },
    {
      "midi": 60,
      "time": 93.563,
      "duration": 0.563,
      "velocity": 0.71,
      "hand": "right"
    },
    {
      "midi": 62,
      "time": 93.938,
      "duration": 0.563,
      "velocity": 0.71,
      "hand": "right"
    },
    {
      "midi": 80,
      "time": 94.313,
      "duration": 0.375,
      "velocity": 0.57,
      "hand": "right"
    },
    {
      "midi": 79,
      "time": 94.688,
      "duration": 0.375,
      "velocity": 0.62,
      "hand": "right"
    },
    {
      "midi": 65,
      "time": 95.063,
      "duration": 0.563,
      "velocity": 0.71,
      "hand": "right"
    },
    {
      "midi": 68,
      "time": 95.438,
      "duration": 0.563,
      "velocity": 0.71,
      "hand": "right"
    },
    {
      "midi": 76,
      "time": 95.813,
      "duration": 0.375,
      "velocity": 0.72,
      "hand": "right"
    },
    {
      "midi": 75,
      "time": 96.188,
      "duration": 0.375,
      "velocity": 0.75,
      "hand": "right"
    },
    {
      "midi": 71,
      "time": 96.563,
      "duration": 0.563,
      "velocity": 0.71,
      "hand": "right"
    },
    {
      "midi": 72,
      "time": 101.063,
      "duration": 1.688,
      "velocity": 0.54,
      "hand": "right"
    },
    {
      "midi": 64,
      "time": 101.438,
      "duration": 0.563,
      "velocity": 0.71,
      "hand": "right"
    },
    {
      "midi": 64,
      "time": 102,
      "duration": 0.563,
      "velocity": 0.71,
      "hand": "right"
    },
    {
      "midi": 64,
      "time": 102.563,
      "duration": 0.563,
      "velocity": 0.71,
      "hand": "right"
    },
    {
      "midi": 74,
      "time": 102.938,
      "duration": 0.563,
      "velocity": 0.54,
      "hand": "right"
    },
    {
      "midi": 72,
      "time": 103.5,
      "duration": 0.563,
      "velocity": 0.54,
      "hand": "right"
    },
    {
      "midi": 71,
      "time": 104.063,
      "duration": 0.563,
      "velocity": 0.54,
      "hand": "right"
    },
    {
      "midi": 69,
      "time": 104.438,
      "duration": 0.563,
      "velocity": 0.54,
      "hand": "right"
    },
    {
      "midi": 68,
      "time": 105,
      "duration": 0.938,
      "velocity": 0.54,
      "hand": "right"
    },
    {
      "midi": 64,
      "time": 105.563,
      "duration": 0.563,
      "velocity": 0.71,
      "hand": "right"
    },
    {
      "midi": 64,
      "time": 106.5,
      "duration": 0.563,
      "velocity": 0.71,
      "hand": "right"
    },
    {
      "midi": 70,
      "time": 107.063,
      "duration": 0.563,
      "velocity": 0.54,
      "hand": "right"
    },
    {
      "midi": 71,
      "time": 107.438,
      "duration": 0.563,
      "velocity": 0.54,
      "hand": "right"
    },
    {
      "midi": 64,
      "time": 108,
      "duration": 0.563,
      "velocity": 0.71,
      "hand": "right"
    },
    {
      "midi": 64,
      "time": 108.563,
      "duration": 0.563,
      "velocity": 0.71,
      "hand": "right"
    },
    {
      "midi": 77,
      "time": 108.938,
      "duration": 1.688,
      "velocity": 0.54,
      "hand": "right"
    },
    {
      "midi": 62,
      "time": 109.5,
      "duration": 0.563,
      "velocity": 0.71,
      "hand": "right"
    },
    {
      "midi": 62,
      "time": 110.063,
      "duration": 0.563,
      "velocity": 0.71,
      "hand": "right"
    },
    {
      "midi": 77,
      "time": 110.813,
      "duration": 0.375,
      "velocity": 0.54,
      "hand": "right"
    },
    {
      "midi": 77,
      "time": 111.563,
      "duration": 0.563,
      "velocity": 0.54,
      "hand": "right"
    },
    {
      "midi": 76,
      "time": 111.938,
      "duration": 0.563,
      "velocity": 0.54,
      "hand": "right"
    },
    {
      "midi": 74,
      "time": 112.5,
      "duration": 0.563,
      "velocity": 0.54,
      "hand": "right"
    },
    {
      "midi": 73,
      "time": 113.063,
      "duration": 0.938,
      "velocity": 0.54,
      "hand": "right"
    },
    {
      "midi": 64,
      "time": 113.438,
      "duration": 0.563,
      "velocity": 0.71,
      "hand": "right"
    },
    {
      "midi": 64,
      "time": 114,
      "duration": 0.563,
      "velocity": 0.71,
      "hand": "right"
    },
    {
      "midi": 64,
      "time": 114.563,
      "duration": 0.563,
      "velocity": 0.71,
      "hand": "right"
    },
    {
      "midi": 75,
      "time": 114.938,
      "duration": 0.563,
      "velocity": 0.54,
      "hand": "right"
    },
    {
      "midi": 76,
      "time": 115.5,
      "duration": 0.563,
      "velocity": 0.54,
      "hand": "right"
    },
    {
      "midi": 61,
      "time": 116.063,
      "duration": 0.563,
      "velocity": 0.71,
      "hand": "right"
    },
    {
      "midi": 77,
      "time": 116.813,
      "duration": 0.375,
      "velocity": 0.54,
      "hand": "right"
    },
    {
      "midi": 79,
      "time": 117.563,
      "duration": 0.563,
      "velocity": 0.6,
      "hand": "right"
    },
    {
      "midi": 61,
      "time": 117.938,
      "duration": 0.563,
      "velocity": 0.71,
      "hand": "right"
    },
    {
      "midi": 61,
      "time": 118.5,
      "duration": 0.563,
      "velocity": 0.71,
      "hand": "right"
    },
    {
      "midi": 84,
      "time": 119.063,
      "duration": 0.563,
      "velocity": 0.75,
      "hand": "right"
    },
    {
      "midi": 82,
      "time": 119.438,
      "duration": 0.563,
      "velocity": 0.75,
      "hand": "right"
    },
    {
      "midi": 81,
      "time": 121.125,
      "duration": 0.375,
      "velocity": 0.75,
      "hand": "right"
    },
    {
      "midi": 76,
      "time": 121.875,
      "duration": 0.375,
      "velocity": 0.75,
      "hand": "right"
    },
    {
      "midi": 69,
      "time": 122.25,
      "duration": 0.375,
      "velocity": 0.75,
      "hand": "right"
    },
    {
      "midi": 64,
      "time": 123,
      "duration": 0.375,
      "velocity": 0.75,
      "hand": "right"
    },
    {
      "midi": 60,
      "time": 126,
      "duration": 0.375,
      "velocity": 0.71,
      "hand": "right"
    },
    {
      "midi": 69,
      "time": 126.375,
      "duration": 0.375,
      "velocity": 0.71,
      "hand": "right"
    },
    {
      "midi": 78,
      "time": 126.75,
      "duration": 0.375,
      "velocity": 0.75,
      "hand": "right"
    },
    {
      "midi": 87,
      "time": 127.125,
      "duration": 0.375,
      "velocity": 0.75,
      "hand": "right"
    },
    {
      "midi": 62,
      "time": 127.875,
      "duration": 0.563,
      "velocity": 0.75,
      "hand": "right"
    },
    {
      "midi": 62,
      "time": 128.438,
      "duration": 0.563,
      "velocity": 0.75,
      "hand": "right"
    },
    {
      "midi": 62,
      "time": 129.375,
      "duration": 0.563,
      "velocity": 0.75,
      "hand": "right"
    },
    {
      "midi": 62,
      "time": 129.938,
      "duration": 0.563,
      "velocity": 0.75,
      "hand": "right"
    },
    {
      "midi": 62,
      "time": 130.875,
      "duration": 0.563,
      "velocity": 0.75,
      "hand": "right"
    },
    {
      "midi": 62,
      "time": 131.438,
      "duration": 0.563,
      "velocity": 0.75,
      "hand": "right"
    },
    {
      "midi": 62,
      "time": 132.375,
      "duration": 0.563,
      "velocity": 0.75,
      "hand": "right"
    },
    {
      "midi": 62,
      "time": 132.938,
      "duration": 0.563,
      "velocity": 0.75,
      "hand": "right"
    },
    {
      "midi": 62,
      "time": 133.875,
      "duration": 0.563,
      "velocity": 0.75,
      "hand": "right"
    },
    {
      "midi": 61,
      "time": 134.438,
      "duration": 0.563,
      "velocity": 0.75,
      "hand": "right"
    },
    {
      "midi": 67,
      "time": 134.813,
      "duration": 0.563,
      "velocity": 0.75,
      "hand": "right"
    },
    {
      "midi": 67,
      "time": 135.375,
      "duration": 0.563,
      "velocity": 0.75,
      "hand": "right"
    },
    {
      "midi": 67,
      "time": 135.938,
      "duration": 1.5,
      "velocity": 0.75,
      "hand": "right"
    },
    {
      "midi": 67,
      "time": 137.438,
      "duration": 0.375,
      "velocity": 0.75,
      "hand": "right"
    },
    {
      "midi": 69,
      "time": 139.688,
      "duration": 0.375,
      "velocity": 0.54,
      "hand": "right"
    },
    {
      "midi": 66,
      "time": 140.063,
      "duration": 0.375,
      "velocity": 0.54,
      "hand": "right"
    },
    {
      "midi": 63,
      "time": 140.438,
      "duration": 0.563,
      "velocity": 0.71,
      "hand": "right"
    },
    {
      "midi": 67,
      "time": 140.813,
      "duration": 0.375,
      "velocity": 0.54,
      "hand": "right"
    },
    {
      "midi": 66,
      "time": 141.188,
      "duration": 0.375,
      "velocity": 0.54,
      "hand": "right"
    },
    {
      "midi": 69,
      "time": 141.563,
      "duration": 0.375,
      "velocity": 0.54,
      "hand": "right"
    },
    {
      "midi": 67,
      "time": 141.938,
      "duration": 0.375,
      "velocity": 0.54,
      "hand": "right"
    },
    {
      "midi": 63,
      "time": 142.313,
      "duration": 0.563,
      "velocity": 0.71,
      "hand": "right"
    },
    {
      "midi": 69,
      "time": 142.688,
      "duration": 0.375,
      "velocity": 0.54,
      "hand": "right"
    },
    {
      "midi": 72,
      "time": 143.063,
      "duration": 0.375,
      "velocity": 0.54,
      "hand": "right"
    },
    {
      "midi": 63,
      "time": 143.438,
      "duration": 0.563,
      "velocity": 0.71,
      "hand": "right"
    },
    {
      "midi": 69,
      "time": 143.813,
      "duration": 0.375,
      "velocity": 0.54,
      "hand": "right"
    },
    {
      "midi": 67,
      "time": 144.188,
      "duration": 0.375,
      "velocity": 0.54,
      "hand": "right"
    },
    {
      "midi": 70,
      "time": 144.563,
      "duration": 0.375,
      "velocity": 0.54,
      "hand": "right"
    },
    {
      "midi": 69,
      "time": 144.938,
      "duration": 0.375,
      "velocity": 0.54,
      "hand": "right"
    },
    {
      "midi": 62,
      "time": 145.313,
      "duration": 0.563,
      "velocity": 0.71,
      "hand": "right"
    },
    {
      "midi": 70,
      "time": 145.688,
      "duration": 0.375,
      "velocity": 0.54,
      "hand": "right"
    },
    {
      "midi": 67,
      "time": 146.063,
      "duration": 0.375,
      "velocity": 0.54,
      "hand": "right"
    },
    {
      "midi": 62,
      "time": 146.438,
      "duration": 0.563,
      "velocity": 0.71,
      "hand": "right"
    },
    {
      "midi": 74,
      "time": 147.188,
      "duration": 0.375,
      "velocity": 0.54,
      "hand": "right"
    },
    {
      "midi": 67,
      "time": 147.563,
      "duration": 0.375,
      "velocity": 0.54,
      "hand": "right"
    },
    {
      "midi": 70,
      "time": 147.938,
      "duration": 0.375,
      "velocity": 0.54,
      "hand": "right"
    },
    {
      "midi": 62,
      "time": 148.313,
      "duration": 0.563,
      "velocity": 0.71,
      "hand": "right"
    },
    {
      "midi": 72,
      "time": 148.688,
      "duration": 0.375,
      "velocity": 0.54,
      "hand": "right"
    },
    {
      "midi": 69,
      "time": 149.063,
      "duration": 0.375,
      "velocity": 0.54,
      "hand": "right"
    },
    {
      "midi": 62,
      "time": 149.438,
      "duration": 0.563,
      "velocity": 0.71,
      "hand": "right"
    },
    {
      "midi": 70,
      "time": 149.813,
      "duration": 0.375,
      "velocity": 0.54,
      "hand": "right"
    },
    {
      "midi": 69,
      "time": 150.188,
      "duration": 0.375,
      "velocity": 0.54,
      "hand": "right"
    },
    {
      "midi": 72,
      "time": 150.563,
      "duration": 0.375,
      "velocity": 0.54,
      "hand": "right"
    },
    {
      "midi": 62,
      "time": 150.938,
      "duration": 0.563,
      "velocity": 0.71,
      "hand": "right"
    },
    {
      "midi": 69,
      "time": 151.688,
      "duration": 0.375,
      "velocity": 0.54,
      "hand": "right"
    },
    {
      "midi": 70,
      "time": 152.063,
      "duration": 0.375,
      "velocity": 0.54,
      "hand": "right"
    },
    {
      "midi": 79,
      "time": 152.625,
      "duration": 0.375,
      "velocity": 0.54,
      "hand": "right"
    },
    {
      "midi": 78,
      "time": 153.188,
      "duration": 0.375,
      "velocity": 0.57,
      "hand": "right"
    },
    {
      "midi": 77,
      "time": 153.563,
      "duration": 0.375,
      "velocity": 0.62,
      "hand": "right"
    },
    {
      "midi": 63,
      "time": 153.938,
      "duration": 0.563,
      "velocity": 0.71,
      "hand": "right"
    },
    {
      "midi": 66,
      "time": 154.313,
      "duration": 0.563,
      "velocity": 0.71,
      "hand": "right"
    },
    {
      "midi": 74,
      "time": 154.688,
      "duration": 0.375,
      "velocity": 0.72,
      "hand": "right"
    },
    {
      "midi": 73,
      "time": 155.063,
      "duration": 0.375,
      "velocity": 0.75,
      "hand": "right"
    },
    {
      "midi": 69,
      "time": 155.438,
      "duration": 0.563,
      "velocity": 0.71,
      "hand": "right"
    },
    {
      "midi": 70,
      "time": 155.813,
      "duration": 0.375,
      "velocity": 0.54,
      "hand": "right"
    },
    {
      "midi": 74,
      "time": 156.188,
      "duration": 0.375,
      "velocity": 0.54,
      "hand": "right"
    },
    {
      "midi": 79,
      "time": 156.563,
      "duration": 0.375,
      "velocity": 0.54,
      "hand": "right"
    },
    {
      "midi": 60,
      "time": 156.938,
      "duration": 0.563,
      "velocity": 0.71,
      "hand": "right"
    },
    {
      "midi": 62,
      "time": 157.313,
      "duration": 0.563,
      "velocity": 0.71,
      "hand": "right"
    },
    {
      "midi": 77,
      "time": 157.688,
      "duration": 0.375,
      "velocity": 0.54,
      "hand": "right"
    },
    {
      "midi": 75,
      "time": 158.063,
      "duration": 0.375,
      "velocity": 0.54,
      "hand": "right"
    },
    {
      "midi": 61,
      "time": 158.438,
      "duration": 0.563,
      "velocity": 0.71,
      "hand": "right"
    },
    {
      "midi": 79,
      "time": 158.813,
      "duration": 0.375,
      "velocity": 0.54,
      "hand": "right"
    },
    {
      "midi": 77,
      "time": 159.188,
      "duration": 0.375,
      "velocity": 0.54,
      "hand": "right"
    },
    {
      "midi": 78,
      "time": 159.563,
      "duration": 0.375,
      "velocity": 0.54,
      "hand": "right"
    },
    {
      "midi": 81,
      "time": 159.938,
      "duration": 0.375,
      "velocity": 0.54,
      "hand": "right"
    },
    {
      "midi": 62,
      "time": 160.313,
      "duration": 0.938,
      "velocity": 0.71,
      "hand": "right"
    },
    {
      "midi": 81,
      "time": 160.688,
      "duration": 0.375,
      "velocity": 0.54,
      "hand": "right"
    },
    {
      "midi": 82,
      "time": 161.063,
      "duration": 0.375,
      "velocity": 0.54,
      "hand": "right"
    },
    {
      "midi": 83,
      "time": 161.625,
      "duration": 0.375,
      "velocity": 0.54,
      "hand": "right"
    },
    {
      "midi": 85,
      "time": 162.188,
      "duration": 0.375,
      "velocity": 0.54,
      "hand": "right"
    },
    {
      "midi": 86,
      "time": 162.563,
      "duration": 0.375,
      "velocity": 0.54,
      "hand": "right"
    },
    {
      "midi": 89,
      "time": 162.938,
      "duration": 0.563,
      "velocity": 0.54,
      "hand": "right"
    },
    {
      "midi": 88,
      "time": 163.313,
      "duration": 0.563,
      "velocity": 0.54,
      "hand": "right"
    },
    {
      "midi": 88,
      "time": 164.063,
      "duration": 0.375,
      "velocity": 0.54,
      "hand": "right"
    },
    {
      "midi": 85,
      "time": 164.438,
      "duration": 0.375,
      "velocity": 0.54,
      "hand": "right"
    },
    {
      "midi": 82,
      "time": 164.813,
      "duration": 0.375,
      "velocity": 0.54,
      "hand": "right"
    },
    {
      "midi": 84,
      "time": 165.188,
      "duration": 0.375,
      "velocity": 0.54,
      "hand": "right"
    },
    {
      "midi": 79,
      "time": 165.563,
      "duration": 0.375,
      "velocity": 0.54,
      "hand": "right"
    },
    {
      "midi": 74,
      "time": 165.938,
      "duration": 0.375,
      "velocity": 0.54,
      "hand": "right"
    },
    {
      "midi": 69,
      "time": 166.313,
      "duration": 0.375,
      "velocity": 0.54,
      "hand": "right"
    },
    {
      "midi": 72,
      "time": 166.688,
      "duration": 0.375,
      "velocity": 0.54,
      "hand": "right"
    },
    {
      "midi": 69,
      "time": 167.063,
      "duration": 0.375,
      "velocity": 0.54,
      "hand": "right"
    },
    {
      "midi": 64,
      "time": 167.438,
      "duration": 0.375,
      "velocity": 0.54,
      "hand": "right"
    },
    {
      "midi": 60,
      "time": 168.375,
      "duration": 0.375,
      "velocity": 0.54,
      "hand": "right"
    },
    {
      "midi": 60,
      "time": 176.063,
      "duration": 0.375,
      "velocity": 0.54,
      "hand": "right"
    },
    {
      "midi": 63,
      "time": 176.438,
      "duration": 0.375,
      "velocity": 0.54,
      "hand": "right"
    },
    {
      "midi": 66,
      "time": 176.813,
      "duration": 0.375,
      "velocity": 0.54,
      "hand": "right"
    },
    {
      "midi": 69,
      "time": 177.188,
      "duration": 0.375,
      "velocity": 0.54,
      "hand": "right"
    },
    {
      "midi": 72,
      "time": 177.563,
      "duration": 0.375,
      "velocity": 0.54,
      "hand": "right"
    },
    {
      "midi": 75,
      "time": 177.938,
      "duration": 0.375,
      "velocity": 0.54,
      "hand": "right"
    },
    {
      "midi": 77,
      "time": 178.313,
      "duration": 1.688,
      "velocity": 0.54,
      "hand": "right"
    },
    {
      "midi": 69,
      "time": 178.688,
      "duration": 0.563,
      "velocity": 0.71,
      "hand": "right"
    },
    {
      "midi": 69,
      "time": 179.25,
      "duration": 0.563,
      "velocity": 0.71,
      "hand": "right"
    },
    {
      "midi": 69,
      "time": 179.813,
      "duration": 0.563,
      "velocity": 0.71,
      "hand": "right"
    },
    {
      "midi": 79,
      "time": 180.188,
      "duration": 0.563,
      "velocity": 0.54,
      "hand": "right"
    },
    {
      "midi": 77,
      "time": 180.75,
      "duration": 0.563,
      "velocity": 0.54,
      "hand": "right"
    },
    {
      "midi": 76,
      "time": 181.313,
      "duration": 0.563,
      "velocity": 0.54,
      "hand": "right"
    },
    {
      "midi": 74,
      "time": 181.688,
      "duration": 0.563,
      "velocity": 0.54,
      "hand": "right"
    },
    {
      "midi": 73,
      "time": 182.25,
      "duration": 0.938,
      "velocity": 0.54,
      "hand": "right"
    },
    {
      "midi": 69,
      "time": 182.813,
      "duration": 0.563,
      "velocity": 0.71,
      "hand": "right"
    },
    {
      "midi": 69,
      "time": 183.75,
      "duration": 0.563,
      "velocity": 0.71,
      "hand": "right"
    },
    {
      "midi": 75,
      "time": 184.313,
      "duration": 0.563,
      "velocity": 0.54,
      "hand": "right"
    },
    {
      "midi": 76,
      "time": 184.688,
      "duration": 0.563,
      "velocity": 0.54,
      "hand": "right"
    },
    {
      "midi": 69,
      "time": 185.25,
      "duration": 0.563,
      "velocity": 0.71,
      "hand": "right"
    },
    {
      "midi": 69,
      "time": 185.813,
      "duration": 0.563,
      "velocity": 0.71,
      "hand": "right"
    },
    {
      "midi": 79,
      "time": 186.188,
      "duration": 1.688,
      "velocity": 0.54,
      "hand": "right"
    },
    {
      "midi": 69,
      "time": 186.75,
      "duration": 0.563,
      "velocity": 0.71,
      "hand": "right"
    },
    {
      "midi": 69,
      "time": 187.313,
      "duration": 0.563,
      "velocity": 0.71,
      "hand": "right"
    },
    {
      "midi": 79,
      "time": 188.063,
      "duration": 0.375,
      "velocity": 0.54,
      "hand": "right"
    },
    {
      "midi": 79,
      "time": 188.813,
      "duration": 0.563,
      "velocity": 0.54,
      "hand": "right"
    },
    {
      "midi": 77,
      "time": 189.188,
      "duration": 0.563,
      "velocity": 0.54,
      "hand": "right"
    },
    {
      "midi": 76,
      "time": 189.75,
      "duration": 0.563,
      "velocity": 0.54,
      "hand": "right"
    },
    {
      "midi": 74,
      "time": 190.313,
      "duration": 0.938,
      "velocity": 0.54,
      "hand": "right"
    },
    {
      "midi": 69,
      "time": 190.688,
      "duration": 0.563,
      "velocity": 0.71,
      "hand": "right"
    },
    {
      "midi": 69,
      "time": 191.25,
      "duration": 0.563,
      "velocity": 0.71,
      "hand": "right"
    },
    {
      "midi": 69,
      "time": 191.813,
      "duration": 0.563,
      "velocity": 0.71,
      "hand": "right"
    },
    {
      "midi": 79,
      "time": 192.188,
      "duration": 0.563,
      "velocity": 0.54,
      "hand": "right"
    },
    {
      "midi": 77,
      "time": 192.75,
      "duration": 0.563,
      "velocity": 0.54,
      "hand": "right"
    },
    {
      "midi": 69,
      "time": 193.313,
      "duration": 0.563,
      "velocity": 0.71,
      "hand": "right"
    },
    {
      "midi": 81,
      "time": 194.25,
      "duration": 2.063,
      "velocity": 0.75,
      "hand": "right"
    },
    {
      "midi": 62,
      "time": 195.188,
      "duration": 0.938,
      "velocity": 0.71,
      "hand": "right"
    },
    {
      "midi": 82,
      "time": 196.313,
      "duration": 0.563,
      "velocity": 0.75,
      "hand": "right"
    },
    {
      "midi": 81,
      "time": 198.188,
      "duration": 0.75,
      "velocity": 0.54,
      "hand": "right"
    },
    {
      "midi": 86,
      "time": 198.938,
      "duration": 0.375,
      "velocity": 0.54,
      "hand": "right"
    },
    {
      "midi": 85,
      "time": 199.313,
      "duration": 0.375,
      "velocity": 0.54,
      "hand": "right"
    },
    {
      "midi": 83,
      "time": 199.875,
      "duration": 0.375,
      "velocity": 0.54,
      "hand": "right"
    },
    {
      "midi": 82,
      "time": 200.25,
      "duration": 0.938,
      "velocity": 0.54,
      "hand": "right"
    },
    {
      "midi": 81,
      "time": 201.938,
      "duration": 0.375,
      "velocity": 0.54,
      "hand": "right"
    },
    {
      "midi": 80,
      "time": 202.688,
      "duration": 0.563,
      "velocity": 0.54,
      "hand": "right"
    },
    {
      "midi": 80,
      "time": 204,
      "duration": 0.375,
      "velocity": 0.54,
      "hand": "right"
    },
    {
      "midi": 79,
      "time": 204.75,
      "duration": 0.563,
      "velocity": 0.54,
      "hand": "right"
    },
    {
      "midi": 79,
      "time": 206.063,
      "duration": 0.375,
      "velocity": 0.54,
      "hand": "right"
    },
    {
      "midi": 77,
      "time": 206.813,
      "duration": 0.563,
      "velocity": 0.54,
      "hand": "right"
    },
    {
      "midi": 77,
      "time": 207.938,
      "duration": 0.375,
      "velocity": 0.54,
      "hand": "right"
    },
    {
      "midi": 75,
      "time": 208.313,
      "duration": 1.688,
      "velocity": 0.75,
      "hand": "right"
    },
    {
      "midi": 77,
      "time": 210,
      "duration": 0.375,
      "velocity": 0.54,
      "hand": "right"
    },
    {
      "midi": 81,
      "time": 210.938,
      "duration": 0.375,
      "velocity": 0.54,
      "hand": "right"
    },
    {
      "midi": 82,
      "time": 211.313,
      "duration": 0.563,
      "velocity": 0.54,
      "hand": "right"
    },
    {
      "midi": 62,
      "time": 213,
      "duration": 0.375,
      "velocity": 0.54,
      "hand": "right"
    },
    {
      "midi": 71,
      "time": 213.375,
      "duration": 0.375,
      "velocity": 0.75,
      "hand": "right"
    },
    {
      "midi": 80,
      "time": 213.75,
      "duration": 0.375,
      "velocity": 0.54,
      "hand": "right"
    },
    {
      "midi": 89,
      "time": 214.125,
      "duration": 0.375,
      "velocity": 0.54,
      "hand": "right"
    },
    {
      "midi": 81,
      "time": 214.5,
      "duration": 0.563,
      "velocity": 0.54,
      "hand": "right"
    },
    {
      "midi": 61,
      "time": 216.563,
      "duration": 0.563,
      "velocity": 0.54,
      "hand": "right"
    },
    {
      "midi": 69,
      "time": 218.438,
      "duration": 0.563,
      "velocity": 0.54,
      "hand": "right"
    },
    {
      "midi": 78,
      "time": 219,
      "duration": 0.375,
      "velocity": 0.54,
      "hand": "right"
    },
    {
      "midi": 73,
      "time": 219.563,
      "duration": 0.563,
      "velocity": 0.54,
      "hand": "right"
    },
    {
      "midi": 71,
      "time": 219.938,
      "duration": 0.375,
      "velocity": 0.54,
      "hand": "right"
    },
    {
      "midi": 79,
      "time": 220.313,
      "duration": 0.375,
      "velocity": 0.54,
      "hand": "right"
    },
    {
      "midi": 73,
      "time": 220.688,
      "duration": 0.75,
      "velocity": 0.71,
      "hand": "right"
    },
    {
      "midi": 83,
      "time": 221.063,
      "duration": 0.375,
      "velocity": 0.71,
      "hand": "right"
    },
    {
      "midi": 81,
      "time": 221.438,
      "duration": 0.375,
      "velocity": 0.71,
      "hand": "right"
    },
    {
      "midi": 78,
      "time": 222,
      "duration": 0.375,
      "velocity": 0.71,
      "hand": "right"
    },
    {
      "midi": 76,
      "time": 222.75,
      "duration": 0.375,
      "velocity": 0.54,
      "hand": "right"
    },
    {
      "midi": 76,
      "time": 223.313,
      "duration": 0.375,
      "velocity": 0.54,
      "hand": "right"
    },
    {
      "midi": 81,
      "time": 223.688,
      "duration": 0.375,
      "velocity": 0.54,
      "hand": "right"
    },
    {
      "midi": 71,
      "time": 224.063,
      "duration": 0.375,
      "velocity": 0.54,
      "hand": "right"
    },
    {
      "midi": 69,
      "time": 224.438,
      "duration": 0.563,
      "velocity": 0.54,
      "hand": "right"
    },
    {
      "midi": 73,
      "time": 225,
      "duration": 0.375,
      "velocity": 0.71,
      "hand": "right"
    },
    {
      "midi": 71,
      "time": 225.375,
      "duration": 0.375,
      "velocity": 0.71,
      "hand": "right"
    },
    {
      "midi": 74,
      "time": 226.5,
      "duration": 0.563,
      "velocity": 0.54,
      "hand": "right"
    },
    {
      "midi": 76,
      "time": 227.063,
      "duration": 0.375,
      "velocity": 0.54,
      "hand": "right"
    },
    {
      "midi": 71,
      "time": 227.438,
      "duration": 0.75,
      "velocity": 0.54,
      "hand": "right"
    },
    {
      "midi": 63,
      "time": 227.813,
      "duration": 0.375,
      "velocity": 0.71,
      "hand": "right"
    },
    {
      "midi": 73,
      "time": 228.188,
      "duration": 0.375,
      "velocity": 0.54,
      "hand": "right"
    },
    {
      "midi": 78,
      "time": 228.563,
      "duration": 0.375,
      "velocity": 0.54,
      "hand": "right"
    },
    {
      "midi": 83,
      "time": 228.938,
      "duration": 0.375,
      "velocity": 0.54,
      "hand": "right"
    },
    {
      "midi": 73,
      "time": 230.063,
      "duration": 0.375,
      "velocity": 0.54,
      "hand": "right"
    },
    {
      "midi": 80,
      "time": 230.438,
      "duration": 0.375,
      "velocity": 0.54,
      "hand": "right"
    },
    {
      "midi": 86,
      "time": 230.813,
      "duration": 0.375,
      "velocity": 0.54,
      "hand": "right"
    },
    {
      "midi": 80,
      "time": 231.188,
      "duration": 0.375,
      "velocity": 0.54,
      "hand": "right"
    },
    {
      "midi": 88,
      "time": 231.563,
      "duration": 0.375,
      "velocity": 0.54,
      "hand": "right"
    },
    {
      "midi": 78,
      "time": 231.938,
      "duration": 0.375,
      "velocity": 0.54,
      "hand": "right"
    },
    {
      "midi": 83,
      "time": 232.313,
      "duration": 0.375,
      "velocity": 0.54,
      "hand": "right"
    },
    {
      "midi": 78,
      "time": 233.063,
      "duration": 0.375,
      "velocity": 0.71,
      "hand": "right"
    },
    {
      "midi": 76,
      "time": 233.438,
      "duration": 0.375,
      "velocity": 0.71,
      "hand": "right"
    },
    {
      "midi": 74,
      "time": 234.563,
      "duration": 0.563,
      "velocity": 0.71,
      "hand": "right"
    },
    {
      "midi": 69,
      "time": 234.938,
      "duration": 0.375,
      "velocity": 0.75,
      "hand": "right"
    },
    {
      "midi": 74,
      "time": 235.313,
      "duration": 0.375,
      "velocity": 0.54,
      "hand": "right"
    },
    {
      "midi": 81,
      "time": 235.688,
      "duration": 0.375,
      "velocity": 0.54,
      "hand": "right"
    },
    {
      "midi": 81,
      "time": 236.438,
      "duration": 0.375,
      "velocity": 0.54,
      "hand": "right"
    },
    {
      "midi": 74,
      "time": 236.813,
      "duration": 0.375,
      "velocity": 0.75,
      "hand": "right"
    },
    {
      "midi": 73,
      "time": 237.563,
      "duration": 0.375,
      "velocity": 0.54,
      "hand": "right"
    },
    {
      "midi": 81,
      "time": 237.938,
      "duration": 0.375,
      "velocity": 0.54,
      "hand": "right"
    },
    {
      "midi": 74,
      "time": 238.688,
      "duration": 0.375,
      "velocity": 0.75,
      "hand": "right"
    },
    {
      "midi": 86,
      "time": 239.063,
      "duration": 0.375,
      "velocity": 0.54,
      "hand": "right"
    },
    {
      "midi": 84,
      "time": 239.438,
      "duration": 0.375,
      "velocity": 0.54,
      "hand": "right"
    },
    {
      "midi": 84,
      "time": 240.188,
      "duration": 0.375,
      "velocity": 0.54,
      "hand": "right"
    },
    {
      "midi": 83,
      "time": 240.938,
      "duration": 0.375,
      "velocity": 0.71,
      "hand": "right"
    },
    {
      "midi": 78,
      "time": 241.313,
      "duration": 0.375,
      "velocity": 0.71,
      "hand": "right"
    },
    {
      "midi": 78,
      "time": 242.063,
      "duration": 0.375,
      "velocity": 0.71,
      "hand": "right"
    },
    {
      "midi": 76,
      "time": 242.438,
      "duration": 0.375,
      "velocity": 0.71,
      "hand": "right"
    },
    {
      "midi": 69,
      "time": 242.813,
      "duration": 0.375,
      "velocity": 0.75,
      "hand": "right"
    },
    {
      "midi": 74,
      "time": 243.188,
      "duration": 0.375,
      "velocity": 0.54,
      "hand": "right"
    },
    {
      "midi": 73,
      "time": 243.563,
      "duration": 0.375,
      "velocity": 0.54,
      "hand": "right"
    },
    {
      "midi": 81,
      "time": 243.938,
      "duration": 0.375,
      "velocity": 0.54,
      "hand": "right"
    },
    {
      "midi": 74,
      "time": 244.688,
      "duration": 0.375,
      "velocity": 0.75,
      "hand": "right"
    },
    {
      "midi": 86,
      "time": 245.063,
      "duration": 0.375,
      "velocity": 0.54,
      "hand": "right"
    },
    {
      "midi": 73,
      "time": 245.438,
      "duration": 0.375,
      "velocity": 0.54,
      "hand": "right"
    },
    {
      "midi": 81,
      "time": 245.813,
      "duration": 0.375,
      "velocity": 0.54,
      "hand": "right"
    },
    {
      "midi": 81,
      "time": 246.563,
      "duration": 0.375,
      "velocity": 0.54,
      "hand": "right"
    },
    {
      "midi": 86,
      "time": 246.938,
      "duration": 0.375,
      "velocity": 0.54,
      "hand": "right"
    },
    {
      "midi": 74,
      "time": 247.313,
      "duration": 0.375,
      "velocity": 0.54,
      "hand": "right"
    },
    {
      "midi": 69,
      "time": 247.688,
      "duration": 0.375,
      "velocity": 0.75,
      "hand": "right"
    },
    {
      "midi": 76,
      "time": 248.438,
      "duration": 0.563,
      "velocity": 0.54,
      "hand": "right"
    },
    {
      "midi": 86,
      "time": 249.563,
      "duration": 0.563,
      "velocity": 0.54,
      "hand": "right"
    },
    {
      "midi": 62,
      "time": 252.563,
      "duration": 0.375,
      "velocity": 0.54,
      "hand": "right"
    },
    {
      "midi": 69,
      "time": 252.938,
      "duration": 0.375,
      "velocity": 0.54,
      "hand": "right"
    },
    {
      "midi": 76,
      "time": 253.313,
      "duration": 0.375,
      "velocity": 0.54,
      "hand": "right"
    },
    {
      "midi": 83,
      "time": 253.688,
      "duration": 0.375,
      "velocity": 0.54,
      "hand": "right"
    },
    {
      "midi": 88,
      "time": 254.063,
      "duration": 0.375,
      "velocity": 0.54,
      "hand": "right"
    },
    {
      "midi": 83,
      "time": 254.438,
      "duration": 0.375,
      "velocity": 0.54,
      "hand": "right"
    },
    {
      "midi": 81,
      "time": 254.813,
      "duration": 0.375,
      "velocity": 0.54,
      "hand": "right"
    },
    {
      "midi": 79,
      "time": 255.188,
      "duration": 0.375,
      "velocity": 0.54,
      "hand": "right"
    },
    {
      "midi": 78,
      "time": 255.563,
      "duration": 0.375,
      "velocity": 0.54,
      "hand": "right"
    },
    {
      "midi": 76,
      "time": 255.938,
      "duration": 0.375,
      "velocity": 0.54,
      "hand": "right"
    },
    {
      "midi": 67,
      "time": 258.938,
      "duration": 1.688,
      "velocity": 0.75,
      "hand": "right"
    },
    {
      "midi": 78,
      "time": 259.313,
      "duration": 0.375,
      "velocity": 0.54,
      "hand": "right"
    },
    {
      "midi": 81,
      "time": 259.688,
      "duration": 0.375,
      "velocity": 0.54,
      "hand": "right"
    },
    {
      "midi": 78,
      "time": 260.063,
      "duration": 0.375,
      "velocity": 0.54,
      "hand": "right"
    },
    {
      "midi": 78,
      "time": 260.813,
      "duration": 0.375,
      "velocity": 0.54,
      "hand": "right"
    },
    {
      "midi": 74,
      "time": 261.188,
      "duration": 0.375,
      "velocity": 0.54,
      "hand": "right"
    },
    {
      "midi": 73,
      "time": 261.563,
      "duration": 0.375,
      "velocity": 0.54,
      "hand": "right"
    },
    {
      "midi": 74,
      "time": 261.938,
      "duration": 0.375,
      "velocity": 0.54,
      "hand": "right"
    },
    {
      "midi": 73,
      "time": 262.313,
      "duration": 0.375,
      "velocity": 0.54,
      "hand": "right"
    },
    {
      "midi": 69,
      "time": 262.688,
      "duration": 0.563,
      "velocity": 0.54,
      "hand": "right"
    },
    {
      "midi": 78,
      "time": 263.25,
      "duration": 0.375,
      "velocity": 0.54,
      "hand": "right"
    },
    {
      "midi": 73,
      "time": 263.813,
      "duration": 0.563,
      "velocity": 0.54,
      "hand": "right"
    },
    {
      "midi": 71,
      "time": 264.188,
      "duration": 0.375,
      "velocity": 0.54,
      "hand": "right"
    },
    {
      "midi": 79,
      "time": 264.563,
      "duration": 0.375,
      "velocity": 0.54,
      "hand": "right"
    },
    {
      "midi": 73,
      "time": 264.938,
      "duration": 0.75,
      "velocity": 0.71,
      "hand": "right"
    },
    {
      "midi": 83,
      "time": 265.313,
      "duration": 0.375,
      "velocity": 0.71,
      "hand": "right"
    },
    {
      "midi": 81,
      "time": 265.688,
      "duration": 0.375,
      "velocity": 0.71,
      "hand": "right"
    },
    {
      "midi": 78,
      "time": 266.25,
      "duration": 0.375,
      "velocity": 0.71,
      "hand": "right"
    },
    {
      "midi": 86,
      "time": 267,
      "duration": 0.375,
      "velocity": 0.54,
      "hand": "right"
    },
    {
      "midi": 86,
      "time": 267.563,
      "duration": 0.375,
      "velocity": 0.54,
      "hand": "right"
    },
    {
      "midi": 79,
      "time": 268.5,
      "duration": 0.375,
      "velocity": 0.54,
      "hand": "right"
    },
    {
      "midi": 73,
      "time": 269.063,
      "duration": 0.375,
      "velocity": 0.54,
      "hand": "right"
    },
    {
      "midi": 74,
      "time": 269.813,
      "duration": 0.563,
      "velocity": 0.54,
      "hand": "right"
    },
    {
      "midi": 83,
      "time": 270.75,
      "duration": 0.563,
      "velocity": 0.75,
      "hand": "right"
    },
    {
      "midi": 81,
      "time": 271.688,
      "duration": 0.563,
      "velocity": 0.75,
      "hand": "right"
    },
    {
      "midi": 61,
      "time": 272.813,
      "duration": 0.563,
      "velocity": 0.54,
      "hand": "right"
    },
    {
      "midi": 66,
      "time": 274.313,
      "duration": 0.375,
      "velocity": 0.49,
      "hand": "right"
    },
    {
      "midi": 61,
      "time": 274.688,
      "duration": 0.563,
      "velocity": 0.49,
      "hand": "right"
    },
    {
      "midi": 67,
      "time": 275.438,
      "duration": 0.375,
      "velocity": 0.49,
      "hand": "right"
    },
    {
      "midi": 62,
      "time": 275.813,
      "duration": 0.375,
      "velocity": 0.71,
      "hand": "right"
    },
    {
      "midi": 71,
      "time": 276.188,
      "duration": 0.375,
      "velocity": 0.71,
      "hand": "right"
    },
    {
      "midi": 69,
      "time": 276.563,
      "duration": 0.375,
      "velocity": 0.71,
      "hand": "right"
    },
    {
      "midi": 66,
      "time": 277.125,
      "duration": 0.375,
      "velocity": 0.71,
      "hand": "right"
    },
    {
      "midi": 69,
      "time": 277.688,
      "duration": 0.563,
      "velocity": 0.75,
      "hand": "right"
    },
    {
      "midi": 78,
      "time": 278.25,
      "duration": 0.375,
      "velocity": 0.75,
      "hand": "right"
    },
    {
      "midi": 71,
      "time": 278.813,
      "duration": 0.75,
      "velocity": 0.75,
      "hand": "right"
    },
    {
      "midi": 79,
      "time": 279.563,
      "duration": 0.375,
      "velocity": 0.75,
      "hand": "right"
    },
    {
      "midi": 76,
      "time": 279.938,
      "duration": 0.375,
      "velocity": 0.75,
      "hand": "right"
    },
    {
      "midi": 81,
      "time": 280.313,
      "duration": 0.375,
      "velocity": 0.75,
      "hand": "right"
    },
    {
      "midi": 86,
      "time": 280.688,
      "duration": 0.375,
      "velocity": 0.75,
      "hand": "right"
    },
    {
      "midi": 81,
      "time": 281.25,
      "duration": 0.375,
      "velocity": 0.8,
      "hand": "right"
    },
    {
      "midi": 78,
      "time": 281.813,
      "duration": 0.375,
      "velocity": 0.8,
      "hand": "right"
    },
    {
      "midi": 73,
      "time": 282.188,
      "duration": 0.375,
      "velocity": 0.8,
      "hand": "right"
    },
    {
      "midi": 74,
      "time": 282.75,
      "duration": 0.563,
      "velocity": 0.8,
      "hand": "right"
    }
  ],
  "notes2Hands": [
    {
      "midi": 38,
      "time": 0,
      "duration": 3,
      "velocity": 0.71,
      "hand": "left"
    },
    {
      "midi": 41,
      "time": 0.188,
      "duration": 0.188,
      "velocity": 0.71,
      "hand": "left"
    },
    {
      "midi": 45,
      "time": 0.563,
      "duration": 0.188,
      "velocity": 0.71,
      "hand": "left"
    },
    {
      "midi": 50,
      "time": 0.75,
      "duration": 2.25,
      "velocity": 0.71,
      "hand": "left"
    },
    {
      "midi": 53,
      "time": 0.938,
      "duration": 0.188,
      "velocity": 0.71,
      "hand": "left"
    },
    {
      "midi": 57,
      "time": 1.313,
      "duration": 0.188,
      "velocity": 0.71,
      "hand": "left"
    },
    {
      "midi": 62,
      "time": 1.5,
      "duration": 0.188,
      "velocity": 0.71,
      "hand": "right"
    },
    {
      "midi": 57,
      "time": 1.688,
      "duration": 0.188,
      "velocity": 0.71,
      "hand": "left"
    },
    {
      "midi": 65,
      "time": 2.063,
      "duration": 0.188,
      "velocity": 0.71,
      "hand": "right"
    },
    {
      "midi": 62,
      "time": 2.25,
      "duration": 0.188,
      "velocity": 0.71,
      "hand": "right"
    },
    {
      "midi": 57,
      "time": 2.438,
      "duration": 0.188,
      "velocity": 0.71,
      "hand": "left"
    },
    {
      "midi": 53,
      "time": 2.813,
      "duration": 0.188,
      "velocity": 0.71,
      "hand": "left"
    },
    {
      "midi": 38,
      "time": 3,
      "duration": 3,
      "velocity": 0.71,
      "hand": "left"
    },
    {
      "midi": 41,
      "time": 3.188,
      "duration": 0.188,
      "velocity": 0.71,
      "hand": "left"
    },
    {
      "midi": 45,
      "time": 3.563,
      "duration": 0.188,
      "velocity": 0.71,
      "hand": "left"
    },
    {
      "midi": 50,
      "time": 3.75,
      "duration": 2.25,
      "velocity": 0.71,
      "hand": "left"
    },
    {
      "midi": 53,
      "time": 3.938,
      "duration": 0.188,
      "velocity": 0.71,
      "hand": "left"
    },
    {
      "midi": 57,
      "time": 4.313,
      "duration": 0.188,
      "velocity": 0.71,
      "hand": "left"
    },
    {
      "midi": 62,
      "time": 4.5,
      "duration": 0.188,
      "velocity": 0.71,
      "hand": "right"
    },
    {
      "midi": 57,
      "time": 4.688,
      "duration": 0.188,
      "velocity": 0.71,
      "hand": "left"
    },
    {
      "midi": 65,
      "time": 5.063,
      "duration": 0.188,
      "velocity": 0.71,
      "hand": "right"
    },
    {
      "midi": 62,
      "time": 5.25,
      "duration": 0.188,
      "velocity": 0.71,
      "hand": "right"
    },
    {
      "midi": 57,
      "time": 5.438,
      "duration": 0.188,
      "velocity": 0.71,
      "hand": "left"
    },
    {
      "midi": 53,
      "time": 5.813,
      "duration": 0.188,
      "velocity": 0.71,
      "hand": "left"
    },
    {
      "midi": 38,
      "time": 6,
      "duration": 3,
      "velocity": 0.71,
      "hand": "left"
    },
    {
      "midi": 43,
      "time": 6.188,
      "duration": 0.188,
      "velocity": 0.71,
      "hand": "left"
    },
    {
      "midi": 46,
      "time": 6.563,
      "duration": 0.188,
      "velocity": 0.71,
      "hand": "left"
    },
    {
      "midi": 50,
      "time": 6.75,
      "duration": 2.25,
      "velocity": 0.71,
      "hand": "left"
    },
    {
      "midi": 55,
      "time": 6.938,
      "duration": 0.188,
      "velocity": 0.71,
      "hand": "left"
    },
    {
      "midi": 58,
      "time": 7.313,
      "duration": 0.188,
      "velocity": 0.71,
      "hand": "left"
    },
    {
      "midi": 64,
      "time": 7.5,
      "duration": 0.188,
      "velocity": 0.71,
      "hand": "right"
    },
    {
      "midi": 58,
      "time": 7.688,
      "duration": 0.188,
      "velocity": 0.71,
      "hand": "left"
    },
    {
      "midi": 67,
      "time": 8.063,
      "duration": 0.188,
      "velocity": 0.71,
      "hand": "right"
    },
    {
      "midi": 64,
      "time": 8.25,
      "duration": 0.188,
      "velocity": 0.71,
      "hand": "right"
    },
    {
      "midi": 58,
      "time": 8.438,
      "duration": 0.188,
      "velocity": 0.71,
      "hand": "left"
    },
    {
      "midi": 55,
      "time": 8.813,
      "duration": 0.188,
      "velocity": 0.71,
      "hand": "left"
    },
    {
      "midi": 38,
      "time": 9,
      "duration": 3,
      "velocity": 0.71,
      "hand": "left"
    },
    {
      "midi": 43,
      "time": 9.188,
      "duration": 0.188,
      "velocity": 0.71,
      "hand": "left"
    },
    {
      "midi": 46,
      "time": 9.563,
      "duration": 0.188,
      "velocity": 0.71,
      "hand": "left"
    },
    {
      "midi": 50,
      "time": 9.75,
      "duration": 2.25,
      "velocity": 0.71,
      "hand": "left"
    },
    {
      "midi": 55,
      "time": 9.938,
      "duration": 0.188,
      "velocity": 0.71,
      "hand": "left"
    },
    {
      "midi": 58,
      "time": 10.313,
      "duration": 0.188,
      "velocity": 0.71,
      "hand": "left"
    },
    {
      "midi": 64,
      "time": 10.5,
      "duration": 0.188,
      "velocity": 0.71,
      "hand": "right"
    },
    {
      "midi": 58,
      "time": 10.688,
      "duration": 0.188,
      "velocity": 0.71,
      "hand": "left"
    },
    {
      "midi": 67,
      "time": 11.063,
      "duration": 0.188,
      "velocity": 0.71,
      "hand": "right"
    },
    {
      "midi": 64,
      "time": 11.25,
      "duration": 0.188,
      "velocity": 0.71,
      "hand": "right"
    },
    {
      "midi": 58,
      "time": 11.438,
      "duration": 0.188,
      "velocity": 0.71,
      "hand": "left"
    },
    {
      "midi": 55,
      "time": 11.813,
      "duration": 0.188,
      "velocity": 0.71,
      "hand": "left"
    },
    {
      "midi": 36,
      "time": 12,
      "duration": 3,
      "velocity": 0.71,
      "hand": "left"
    },
    {
      "midi": 42,
      "time": 12.188,
      "duration": 0.188,
      "velocity": 0.71,
      "hand": "left"
    },
    {
      "midi": 45,
      "time": 12.563,
      "duration": 0.188,
      "velocity": 0.71,
      "hand": "left"
    },
    {
      "midi": 48,
      "time": 12.75,
      "duration": 2.25,
      "velocity": 0.71,
      "hand": "left"
    },
    {
      "midi": 57,
      "time": 12.938,
      "duration": 0.188,
      "velocity": 0.71,
      "hand": "left"
    },
    {
      "midi": 62,
      "time": 13.313,
      "duration": 0.188,
      "velocity": 0.71,
      "hand": "right"
    },
    {
      "midi": 66,
      "time": 13.5,
      "duration": 0.188,
      "velocity": 0.71,
      "hand": "right"
    },
    {
      "midi": 62,
      "time": 13.688,
      "duration": 0.188,
      "velocity": 0.71,
      "hand": "right"
    },
    {
      "midi": 69,
      "time": 14.063,
      "duration": 0.188,
      "velocity": 0.71,
      "hand": "right"
    },
    {
      "midi": 66,
      "time": 14.25,
      "duration": 0.188,
      "velocity": 0.71,
      "hand": "right"
    },
    {
      "midi": 62,
      "time": 14.438,
      "duration": 0.188,
      "velocity": 0.71,
      "hand": "right"
    },
    {
      "midi": 57,
      "time": 14.813,
      "duration": 0.188,
      "velocity": 0.71,
      "hand": "left"
    },
    {
      "midi": 36,
      "time": 15,
      "duration": 3,
      "velocity": 0.71,
      "hand": "left"
    },
    {
      "midi": 42,
      "time": 15.188,
      "duration": 0.188,
      "velocity": 0.71,
      "hand": "left"
    },
    {
      "midi": 45,
      "time": 15.563,
      "duration": 0.188,
      "velocity": 0.71,
      "hand": "left"
    },
    {
      "midi": 48,
      "time": 15.75,
      "duration": 2.25,
      "velocity": 0.71,
      "hand": "left"
    },
    {
      "midi": 57,
      "time": 15.938,
      "duration": 0.188,
      "velocity": 0.71,
      "hand": "left"
    },
    {
      "midi": 62,
      "time": 16.313,
      "duration": 0.188,
      "velocity": 0.71,
      "hand": "right"
    },
    {
      "midi": 66,
      "time": 16.5,
      "duration": 0.188,
      "velocity": 0.71,
      "hand": "right"
    },
    {
      "midi": 62,
      "time": 16.688,
      "duration": 0.188,
      "velocity": 0.71,
      "hand": "right"
    },
    {
      "midi": 69,
      "time": 17.063,
      "duration": 0.188,
      "velocity": 0.71,
      "hand": "right"
    },
    {
      "midi": 66,
      "time": 17.25,
      "duration": 0.188,
      "velocity": 0.71,
      "hand": "right"
    },
    {
      "midi": 62,
      "time": 17.438,
      "duration": 0.188,
      "velocity": 0.71,
      "hand": "right"
    },
    {
      "midi": 57,
      "time": 17.813,
      "duration": 0.188,
      "velocity": 0.71,
      "hand": "left"
    },
    {
      "midi": 46,
      "time": 18,
      "duration": 1.5,
      "velocity": 0.71,
      "hand": "left"
    },
    {
      "midi": 50,
      "time": 18.188,
      "duration": 0.188,
      "velocity": 0.71,
      "hand": "left"
    },
    {
      "midi": 55,
      "time": 18.563,
      "duration": 0.938,
      "velocity": 0.71,
      "hand": "left"
    },
    {
      "midi": 62,
      "time": 18.75,
      "duration": 0.188,
      "velocity": 0.71,
      "hand": "right"
    },
    {
      "midi": 69,
      "time": 18.938,
      "duration": 0.188,
      "velocity": 0.71,
      "hand": "right"
    },
    {
      "midi": 67,
      "time": 19.313,
      "duration": 0.938,
      "velocity": 0.71,
      "hand": "right"
    },
    {
      "midi": 45,
      "time": 19.5,
      "duration": 1.5,
      "velocity": 0.71,
      "hand": "left"
    },
    {
      "midi": 48,
      "time": 19.688,
      "duration": 0.188,
      "velocity": 0.71,
      "hand": "left"
    },
    {
      "midi": 53,
      "time": 20.063,
      "duration": 0.938,
      "velocity": 0.71,
      "hand": "left"
    },
    {
      "midi": 60,
      "time": 20.25,
      "duration": 0.188,
      "velocity": 0.71,
      "hand": "right"
    },
    {
      "midi": 67,
      "time": 20.438,
      "duration": 0.188,
      "velocity": 0.71,
      "hand": "right"
    },
    {
      "midi": 65,
      "time": 20.813,
      "duration": 0.938,
      "velocity": 0.71,
      "hand": "right"
    },
    {
      "midi": 43,
      "time": 21,
      "duration": 1.5,
      "velocity": 0.71,
      "hand": "left"
    },
    {
      "midi": 46,
      "time": 21.188,
      "duration": 0.188,
      "velocity": 0.71,
      "hand": "left"
    },
    {
      "midi": 51,
      "time": 21.563,
      "duration": 0.938,
      "velocity": 0.71,
      "hand": "left"
    },
    {
      "midi": 58,
      "time": 21.75,
      "duration": 0.188,
      "velocity": 0.71,
      "hand": "left"
    },
    {
      "midi": 65,
      "time": 21.938,
      "duration": 0.188,
      "velocity": 0.71,
      "hand": "right"
    },
    {
      "midi": 63,
      "time": 22.313,
      "duration": 0.938,
      "velocity": 0.71,
      "hand": "right"
    },
    {
      "midi": 44,
      "time": 22.5,
      "duration": 1.5,
      "velocity": 0.71,
      "hand": "left"
    },
    {
      "midi": 47,
      "time": 22.688,
      "duration": 0.188,
      "velocity": 0.71,
      "hand": "left"
    },
    {
      "midi": 53,
      "time": 23.063,
      "duration": 0.938,
      "velocity": 0.71,
      "hand": "left"
    },
    {
      "midi": 59,
      "time": 23.25,
      "duration": 0.188,
      "velocity": 0.71,
      "hand": "left"
    },
    {
      "midi": 64,
      "time": 23.438,
      "duration": 0.188,
      "velocity": 0.71,
      "hand": "right"
    },
    {
      "midi": 62,
      "time": 23.813,
      "duration": 0.188,
      "velocity": 0.71,
      "hand": "right"
    },
    {
      "midi": 45,
      "time": 24,
      "duration": 0.188,
      "velocity": 0.71,
      "hand": "left"
    },
    {
      "midi": 49,
      "time": 24.188,
      "duration": 0.188,
      "velocity": 0.71,
      "hand": "left"
    },
    {
      "midi": 52,
      "time": 24.563,
      "duration": 0.188,
      "velocity": 0.71,
      "hand": "left"
    },
    {
      "midi": 57,
      "time": 24.75,
      "duration": 0.75,
      "velocity": 0.71,
      "hand": "left"
    },
    {
      "midi": 61,
      "time": 24.938,
      "duration": 0.188,
      "velocity": 0.71,
      "hand": "right"
    },
    {
      "midi": 64,
      "time": 25.313,
      "duration": 0.188,
      "velocity": 0.71,
      "hand": "right"
    },
    {
      "midi": 69,
      "time": 25.5,
      "duration": 0.188,
      "velocity": 0.71,
      "hand": "right"
    },
    {
      "midi": 73,
      "time": 25.688,
      "duration": 0.188,
      "velocity": 0.71,
      "hand": "right"
    },
    {
      "midi": 76,
      "time": 26.063,
      "duration": 0.188,
      "velocity": 0.71,
      "hand": "right"
    },
    {
      "midi": 81,
      "time": 26.25,
      "duration": 0.188,
      "velocity": 0.71,
      "hand": "right"
    },
    {
      "midi": 85,
      "time": 26.438,
      "duration": 0.188,
      "velocity": 0.71,
      "hand": "right"
    },
    {
      "midi": 88,
      "time": 26.813,
      "duration": 0.188,
      "velocity": 0.71,
      "hand": "right"
    },
    {
      "midi": 87,
      "time": 27,
      "duration": 0.188,
      "velocity": 0.71,
      "hand": "right"
    },
    {
      "midi": 88,
      "time": 27.188,
      "duration": 0.188,
      "velocity": 0.71,
      "hand": "right"
    },
    {
      "midi": 84,
      "time": 27.563,
      "duration": 0.188,
      "velocity": 0.71,
      "hand": "right"
    },
    {
      "midi": 85,
      "time": 27.75,
      "duration": 0.188,
      "velocity": 0.71,
      "hand": "right"
    },
    {
      "midi": 80,
      "time": 27.938,
      "duration": 0.188,
      "velocity": 0.71,
      "hand": "right"
    },
    {
      "midi": 81,
      "time": 28.313,
      "duration": 0.188,
      "velocity": 0.71,
      "hand": "right"
    },
    {
      "midi": 75,
      "time": 28.5,
      "duration": 0.188,
      "velocity": 0.71,
      "hand": "right"
    },
    {
      "midi": 76,
      "time": 28.688,
      "duration": 0.188,
      "velocity": 0.71,
      "hand": "right"
    },
    {
      "midi": 72,
      "time": 29.063,
      "duration": 0.188,
      "velocity": 0.71,
      "hand": "right"
    },
    {
      "midi": 73,
      "time": 29.25,
      "duration": 0.188,
      "velocity": 0.71,
      "hand": "right"
    },
    {
      "midi": 68,
      "time": 29.438,
      "duration": 0.188,
      "velocity": 0.71,
      "hand": "right"
    },
    {
      "midi": 69,
      "time": 29.813,
      "duration": 0.188,
      "velocity": 0.71,
      "hand": "right"
    },
    {
      "midi": 33,
      "time": 30,
      "duration": 1.5,
      "velocity": 0.71,
      "hand": "left"
    },
    {
      "midi": 62,
      "time": 33,
      "duration": 2.063,
      "velocity": 0.71,
      "hand": "right"
    },
    {
      "midi": 77,
      "time": 33,
      "duration": 1.688,
      "velocity": 0.54,
      "hand": "right"
    },
    {
      "midi": 65,
      "time": 33.563,
      "duration": 0.563,
      "velocity": 0.71,
      "hand": "right"
    },
    {
      "midi": 69,
      "time": 33.563,
      "duration": 0.563,
      "velocity": 0.71,
      "hand": "right"
    },
    {
      "midi": 65,
      "time": 33.938,
      "duration": 0.563,
      "velocity": 0.71,
      "hand": "right"
    },
    {
      "midi": 69,
      "time": 33.938,
      "duration": 0.563,
      "velocity": 0.71,
      "hand": "right"
    },
    {
      "midi": 65,
      "time": 34.5,
      "duration": 0.563,
      "velocity": 0.71,
      "hand": "right"
    },
    {
      "midi": 69,
      "time": 34.5,
      "duration": 0.563,
      "velocity": 0.71,
      "hand": "right"
    },
    {
      "midi": 76,
      "time": 34.688,
      "duration": 0.188,
      "velocity": 0.54,
      "hand": "right"
    },
    {
      "midi": 77,
      "time": 34.875,
      "duration": 0.188,
      "velocity": 0.54,
      "hand": "right"
    },
    {
      "midi": 62,
      "time": 35.063,
      "duration": 2.063,
      "velocity": 0.71,
      "hand": "right"
    },
    {
      "midi": 79,
      "time": 35.063,
      "duration": 0.563,
      "velocity": 0.54,
      "hand": "right"
    },
    {
      "midi": 65,
      "time": 35.438,
      "duration": 0.563,
      "velocity": 0.71,
      "hand": "right"
    },
    {
      "midi": 69,
      "time": 35.438,
      "duration": 0.563,
      "velocity": 0.71,
      "hand": "right"
    },
    {
      "midi": 77,
      "time": 35.438,
      "duration": 0.563,
      "velocity": 0.54,
      "hand": "right"
    },
    {
      "midi": 65,
      "time": 36,
      "duration": 0.563,
      "velocity": 0.71,
      "hand": "right"
    },
    {
      "midi": 69,
      "time": 36,
      "duration": 0.563,
      "velocity": 0.71,
      "hand": "right"
    },
    {
      "midi": 76,
      "time": 36,
      "duration": 0.563,
      "velocity": 0.54,
      "hand": "right"
    },
    {
      "midi": 65,
      "time": 36.563,
      "duration": 0.563,
      "velocity": 0.71,
      "hand": "right"
    },
    {
      "midi": 69,
      "time": 36.563,
      "duration": 0.563,
      "velocity": 0.71,
      "hand": "right"
    },
    {
      "midi": 74,
      "time": 36.563,
      "duration": 0.563,
      "velocity": 0.54,
      "hand": "right"
    },
    {
      "midi": 64,
      "time": 36.938,
      "duration": 2.063,
      "velocity": 0.71,
      "hand": "right"
    },
    {
      "midi": 73,
      "time": 36.938,
      "duration": 0.938,
      "velocity": 0.54,
      "hand": "right"
    },
    {
      "midi": 67,
      "time": 37.5,
      "duration": 0.563,
      "velocity": 0.71,
      "hand": "right"
    },
    {
      "midi": 69,
      "time": 37.5,
      "duration": 0.563,
      "velocity": 0.71,
      "hand": "right"
    },
    {
      "midi": 67,
      "time": 38.063,
      "duration": 0.563,
      "velocity": 0.71,
      "hand": "right"
    },
    {
      "midi": 69,
      "time": 38.063,
      "duration": 0.563,
      "velocity": 0.71,
      "hand": "right"
    },
    {
      "midi": 67,
      "time": 38.438,
      "duration": 0.563,
      "velocity": 0.71,
      "hand": "right"
    },
    {
      "midi": 69,
      "time": 38.438,
      "duration": 0.563,
      "velocity": 0.71,
      "hand": "right"
    },
    {
      "midi": 74,
      "time": 38.813,
      "duration": 0.188,
      "velocity": 0.54,
      "hand": "right"
    },
    {
      "midi": 64,
      "time": 39,
      "duration": 2.063,
      "velocity": 0.71,
      "hand": "right"
    },
    {
      "midi": 75,
      "time": 39,
      "duration": 0.563,
      "velocity": 0.54,
      "hand": "right"
    },
    {
      "midi": 67,
      "time": 39.563,
      "duration": 0.563,
      "velocity": 0.71,
      "hand": "right"
    },
    {
      "midi": 69,
      "time": 39.563,
      "duration": 0.563,
      "velocity": 0.71,
      "hand": "right"
    },
    {
      "midi": 76,
      "time": 39.563,
      "duration": 0.563,
      "velocity": 0.54,
      "hand": "right"
    },
    {
      "midi": 67,
      "time": 39.938,
      "duration": 0.563,
      "velocity": 0.71,
      "hand": "right"
    },
    {
      "midi": 69,
      "time": 39.938,
      "duration": 0.563,
      "velocity": 0.71,
      "hand": "right"
    },
    {
      "midi": 67,
      "time": 40.5,
      "duration": 0.563,
      "velocity": 0.71,
      "hand": "right"
    },
    {
      "midi": 69,
      "time": 40.5,
      "duration": 0.563,
      "velocity": 0.71,
      "hand": "right"
    },
    {
      "midi": 61,
      "time": 41.063,
      "duration": 2.063,
      "velocity": 0.71,
      "hand": "right"
    },
    {
      "midi": 79,
      "time": 41.063,
      "duration": 1.688,
      "velocity": 0.54,
      "hand": "right"
    },
    {
      "midi": 64,
      "time": 41.438,
      "duration": 0.563,
      "velocity": 0.71,
      "hand": "right"
    },
    {
      "midi": 69,
      "time": 41.438,
      "duration": 0.563,
      "velocity": 0.71,
      "hand": "right"
    },
    {
      "midi": 64,
      "time": 42,
      "duration": 0.563,
      "velocity": 0.71,
      "hand": "right"
    },
    {
      "midi": 69,
      "time": 42,
      "duration": 0.563,
      "velocity": 0.71,
      "hand": "right"
    },
    {
      "midi": 64,
      "time": 42.563,
      "duration": 0.563,
      "velocity": 0.71,
      "hand": "right"
    },
    {
      "midi": 69,
      "time": 42.563,
      "duration": 0.563,
      "velocity": 0.71,
      "hand": "right"
    },
    {
      "midi": 78,
      "time": 42.75,
      "duration": 0.188,
      "velocity": 0.54,
      "hand": "right"
    },
    {
      "midi": 61,
      "time": 42.938,
      "duration": 2.063,
      "velocity": 0.71,
      "hand": "right"
    },
    {
      "midi": 79,
      "time": 42.938,
      "duration": 0.188,
      "velocity": 0.54,
      "hand": "right"
    },
    {
      "midi": 81,
      "time": 42.938,
      "duration": 0.563,
      "velocity": 0.54,
      "hand": "right"
    },
    {
      "midi": 64,
      "time": 43.5,
      "duration": 0.563,
      "velocity": 0.71,
      "hand": "right"
    },
    {
      "midi": 69,
      "time": 43.5,
      "duration": 0.563,
      "velocity": 0.71,
      "hand": "right"
    },
    {
      "midi": 79,
      "time": 43.5,
      "duration": 0.563,
      "velocity": 0.54,
      "hand": "right"
    },
    {
      "midi": 64,
      "time": 44.063,
      "duration": 0.563,
      "velocity": 0.71,
      "hand": "right"
    },
    {
      "midi": 69,
      "time": 44.063,
      "duration": 0.563,
      "velocity": 0.71,
      "hand": "right"
    },
    {
      "midi": 77,
      "time": 44.063,
      "duration": 0.563,
      "velocity": 0.54,
      "hand": "right"
    },
    {
      "midi": 64,
      "time": 44.438,
      "duration": 0.563,
      "velocity": 0.71,
      "hand": "right"
    },
    {
      "midi": 69,
      "time": 44.438,
      "duration": 0.563,
      "velocity": 0.71,
      "hand": "right"
    },
    {
      "midi": 76,
      "time": 44.438,
      "duration": 0.563,
      "velocity": 0.54,
      "hand": "right"
    },
    {
      "midi": 62,
      "time": 45,
      "duration": 2.063,
      "velocity": 0.71,
      "hand": "right"
    },
    {
      "midi": 74,
      "time": 45,
      "duration": 0.938,
      "velocity": 0.54,
      "hand": "right"
    },
    {
      "midi": 65,
      "time": 45.563,
      "duration": 0.563,
      "velocity": 0.71,
      "hand": "right"
    },
    {
      "midi": 69,
      "time": 45.563,
      "duration": 0.563,
      "velocity": 0.71,
      "hand": "right"
    },
    {
      "midi": 65,
      "time": 45.938,
      "duration": 0.563,
      "velocity": 0.71,
      "hand": "right"
    },
    {
      "midi": 69,
      "time": 45.938,
      "duration": 0.563,
      "velocity": 0.71,
      "hand": "right"
    },
    {
      "midi": 65,
      "time": 46.5,
      "duration": 0.563,
      "velocity": 0.71,
      "hand": "right"
    },
    {
      "midi": 69,
      "time": 46.5,
      "duration": 0.563,
      "velocity": 0.71,
      "hand": "right"
    },
    {
      "midi": 76,
      "time": 46.688,
      "duration": 0.188,
      "velocity": 0.54,
      "hand": "right"
    },
    {
      "midi": 62,
      "time": 47.063,
      "duration": 2.063,
      "velocity": 0.71,
      "hand": "right"
    },
    {
      "midi": 79,
      "time": 47.063,
      "duration": 0.563,
      "velocity": 0.54,
      "hand": "right"
    },
    {
      "midi": 65,
      "time": 47.438,
      "duration": 0.563,
      "velocity": 0.71,
      "hand": "right"
    },
    {
      "midi": 69,
      "time": 47.438,
      "duration": 0.563,
      "velocity": 0.71,
      "hand": "right"
    },
    {
      "midi": 77,
      "time": 47.438,
      "duration": 0.563,
      "velocity": 0.54,
      "hand": "right"
    },
    {
      "midi": 65,
      "time": 48,
      "duration": 0.563,
      "velocity": 0.71,
      "hand": "right"
    },
    {
      "midi": 69,
      "time": 48,
      "duration": 0.563,
      "velocity": 0.71,
      "hand": "right"
    },
    {
      "midi": 65,
      "time": 48.563,
      "duration": 0.563,
      "velocity": 0.71,
      "hand": "right"
    },
    {
      "midi": 69,
      "time": 48.563,
      "duration": 0.563,
      "velocity": 0.71,
      "hand": "right"
    },
    {
      "midi": 69,
      "time": 48.938,
      "duration": 2.063,
      "velocity": 0.75,
      "hand": "right"
    },
    {
      "midi": 81,
      "time": 48.938,
      "duration": 2.063,
      "velocity": 0.75,
      "hand": "right"
    },
    {
      "midi": 53,
      "time": 50.063,
      "duration": 0.938,
      "velocity": 0.71,
      "hand": "left"
    },
    {
      "midi": 57,
      "time": 50.063,
      "duration": 0.938,
      "velocity": 0.71,
      "hand": "left"
    },
    {
      "midi": 62,
      "time": 50.063,
      "duration": 0.938,
      "velocity": 0.71,
      "hand": "right"
    },
    {
      "midi": 52,
      "time": 51,
      "duration": 0.563,
      "velocity": 0.71,
      "hand": "left"
    },
    {
      "midi": 55,
      "time": 51,
      "duration": 0.563,
      "velocity": 0.71,
      "hand": "left"
    },
    {
      "midi": 61,
      "time": 51,
      "duration": 0.563,
      "velocity": 0.71,
      "hand": "right"
    },
    {
      "midi": 70,
      "time": 51,
      "duration": 0.563,
      "velocity": 0.75,
      "hand": "right"
    },
    {
      "midi": 82,
      "time": 51,
      "duration": 0.563,
      "velocity": 0.75,
      "hand": "right"
    },
    {
      "midi": 81,
      "time": 53.063,
      "duration": 0.75,
      "velocity": 0.54,
      "hand": "right"
    },
    {
      "midi": 86,
      "time": 53.813,
      "duration": 0.188,
      "velocity": 0.54,
      "hand": "right"
    },
    {
      "midi": 65,
      "time": 54,
      "duration": 0.938,
      "velocity": 0.71,
      "hand": "right"
    },
    {
      "midi": 74,
      "time": 54,
      "duration": 0.938,
      "velocity": 0.71,
      "hand": "right"
    },
    {
      "midi": 85,
      "time": 54,
      "duration": 0.375,
      "velocity": 0.54,
      "hand": "right"
    },
    {
      "midi": 84,
      "time": 54.375,
      "duration": 0.375,
      "velocity": 0.54,
      "hand": "right"
    },
    {
      "midi": 83,
      "time": 54.75,
      "duration": 0.375,
      "velocity": 0.54,
      "hand": "right"
    },
    {
      "midi": 67,
      "time": 54.938,
      "duration": 0.938,
      "velocity": 0.71,
      "hand": "right"
    },
    {
      "midi": 73,
      "time": 54.938,
      "duration": 0.938,
      "velocity": 0.71,
      "hand": "right"
    },
    {
      "midi": 82,
      "time": 54.938,
      "duration": 0.938,
      "velocity": 0.54,
      "hand": "right"
    },
    {
      "midi": 65,
      "time": 56.813,
      "duration": 0.188,
      "velocity": 0.71,
      "hand": "right"
    },
    {
      "midi": 74,
      "time": 56.813,
      "duration": 0.188,
      "velocity": 0.71,
      "hand": "right"
    },
    {
      "midi": 81,
      "time": 56.813,
      "duration": 0.188,
      "velocity": 0.54,
      "hand": "right"
    },
    {
      "midi": 64,
      "time": 57,
      "duration": 0.563,
      "velocity": 0.71,
      "hand": "right"
    },
    {
      "midi": 76,
      "time": 57,
      "duration": 0.563,
      "velocity": 0.71,
      "hand": "right"
    },
    {
      "midi": 81,
      "time": 57,
      "duration": 0.563,
      "velocity": 0.54,
      "hand": "right"
    },
    {
      "midi": 80,
      "time": 57.563,
      "duration": 0.563,
      "velocity": 0.54,
      "hand": "right"
    },
    {
      "midi": 69,
      "time": 57.938,
      "duration": 0.563,
      "velocity": 0.71,
      "hand": "right"
    },
    {
      "midi": 73,
      "time": 57.938,
      "duration": 0.563,
      "velocity": 0.71,
      "hand": "right"
    },
    {
      "midi": 79,
      "time": 58.5,
      "duration": 0.563,
      "velocity": 0.54,
      "hand": "right"
    },
    {
      "midi": 62,
      "time": 59.063,
      "duration": 0.563,
      "velocity": 0.71,
      "hand": "right"
    },
    {
      "midi": 74,
      "time": 59.063,
      "duration": 0.563,
      "velocity": 0.71,
      "hand": "right"
    },
    {
      "midi": 78,
      "time": 59.438,
      "duration": 0.563,
      "velocity": 0.54,
      "hand": "right"
    },
    {
      "midi": 68,
      "time": 60,
      "duration": 0.563,
      "velocity": 0.71,
      "hand": "right"
    },
    {
      "midi": 71,
      "time": 60,
      "duration": 0.563,
      "velocity": 0.71,
      "hand": "right"
    },
    {
      "midi": 74,
      "time": 60.563,
      "duration": 0.563,
      "velocity": 0.54,
      "hand": "right"
    },
    {
      "midi": 77,
      "time": 60.563,
      "duration": 0.563,
      "velocity": 0.54,
      "hand": "right"
    },
    {
      "midi": 69,
      "time": 60.938,
      "duration": 0.938,
      "velocity": 0.71,
      "hand": "right"
    },
    {
      "midi": 73,
      "time": 61.5,
      "duration": 0.563,
      "velocity": 0.54,
      "hand": "right"
    },
    {
      "midi": 76,
      "time": 61.5,
      "duration": 0.563,
      "velocity": 0.54,
      "hand": "right"
    },
    {
      "midi": 76,
      "time": 62.063,
      "duration": 0.563,
      "velocity": 0.54,
      "hand": "right"
    },
    {
      "midi": 81,
      "time": 62.063,
      "duration": 0.563,
      "velocity": 0.54,
      "hand": "right"
    },
    {
      "midi": 81,
      "time": 62.438,
      "duration": 0.563,
      "velocity": 0.54,
      "hand": "right"
    },
    {
      "midi": 85,
      "time": 62.438,
      "duration": 0.563,
      "velocity": 0.54,
      "hand": "right"
    },
    {
      "midi": 85,
      "time": 63,
      "duration": 0.563,
      "velocity": 0.54,
      "hand": "right"
    },
    {
      "midi": 88,
      "time": 63,
      "duration": 0.563,
      "velocity": 0.54,
      "hand": "right"
    },
    {
      "midi": 64,
      "time": 65.063,
      "duration": 0.563,
      "velocity": 0.71,
      "hand": "right"
    },
    {
      "midi": 64,
      "time": 65.438,
      "duration": 0.563,
      "velocity": 0.71,
      "hand": "right"
    },
    {
      "midi": 64,
      "time": 66,
      "duration": 0.563,
      "velocity": 0.71,
      "hand": "right"
    },
    {
      "midi": 64,
      "time": 66.563,
      "duration": 0.563,
      "velocity": 0.71,
      "hand": "right"
    },
    {
      "midi": 64,
      "time": 66.938,
      "duration": 0.563,
      "velocity": 0.71,
      "hand": "right"
    },
    {
      "midi": 64,
      "time": 67.5,
      "duration": 0.563,
      "velocity": 0.71,
      "hand": "right"
    },
    {
      "midi": 45,
      "time": 68.063,
      "duration": 0.938,
      "velocity": 0.71,
      "hand": "left"
    },
    {
      "midi": 57,
      "time": 68.063,
      "duration": 0.938,
      "velocity": 0.71,
      "hand": "left"
    },
    {
      "midi": 60,
      "time": 68.063,
      "duration": 0.938,
      "velocity": 0.71,
      "hand": "right"
    },
    {
      "midi": 64,
      "time": 68.063,
      "duration": 0.563,
      "velocity": 0.71,
      "hand": "right"
    },
    {
      "midi": 64,
      "time": 68.438,
      "duration": 0.563,
      "velocity": 0.71,
      "hand": "right"
    },
    {
      "midi": 44,
      "time": 69,
      "duration": 0.938,
      "velocity": 0.71,
      "hand": "left"
    },
    {
      "midi": 56,
      "time": 69,
      "duration": 0.938,
      "velocity": 0.71,
      "hand": "left"
    },
    {
      "midi": 59,
      "time": 69,
      "duration": 0.938,
      "velocity": 0.71,
      "hand": "left"
    },
    {
      "midi": 64,
      "time": 69,
      "duration": 0.563,
      "velocity": 0.71,
      "hand": "right"
    },
    {
      "midi": 64,
      "time": 69.563,
      "duration": 0.563,
      "velocity": 0.71,
      "hand": "right"
    },
    {
      "midi": 43,
      "time": 69.938,
      "duration": 0.938,
      "velocity": 0.71,
      "hand": "left"
    },
    {
      "midi": 55,
      "time": 69.938,
      "duration": 0.938,
      "velocity": 0.71,
      "hand": "left"
    },
    {
      "midi": 58,
      "time": 69.938,
      "duration": 0.938,
      "velocity": 0.71,
      "hand": "left"
    },
    {
      "midi": 64,
      "time": 69.938,
      "duration": 0.563,
      "velocity": 0.71,
      "hand": "right"
    },
    {
      "midi": 64,
      "time": 70.5,
      "duration": 0.563,
      "velocity": 0.71,
      "hand": "right"
    },
    {
      "midi": 42,
      "time": 71.063,
      "duration": 0.938,
      "velocity": 0.71,
      "hand": "left"
    },
    {
      "midi": 54,
      "time": 71.063,
      "duration": 0.938,
      "velocity": 0.71,
      "hand": "left"
    },
    {
      "midi": 57,
      "time": 71.063,
      "duration": 0.938,
      "velocity": 0.71,
      "hand": "left"
    },
    {
      "midi": 64,
      "time": 71.063,
      "duration": 0.563,
      "velocity": 0.71,
      "hand": "right"
    },
    {
      "midi": 63,
      "time": 71.438,
      "duration": 0.563,
      "velocity": 0.71,
      "hand": "right"
    },
    {
      "midi": 41,
      "time": 72,
      "duration": 0.938,
      "velocity": 0.71,
      "hand": "left"
    },
    {
      "midi": 53,
      "time": 72,
      "duration": 0.938,
      "velocity": 0.71,
      "hand": "left"
    },
    {
      "midi": 63,
      "time": 72,
      "duration": 0.938,
      "velocity": 0.71,
      "hand": "right"
    },
    {
      "midi": 69,
      "time": 72,
      "duration": 0.563,
      "velocity": 0.71,
      "hand": "right"
    },
    {
      "midi": 69,
      "time": 72.563,
      "duration": 0.563,
      "velocity": 0.71,
      "hand": "right"
    },
    {
      "midi": 40,
      "time": 72.938,
      "duration": 3,
      "velocity": 0.71,
      "hand": "left"
    },
    {
      "midi": 52,
      "time": 72.938,
      "duration": 3,
      "velocity": 0.71,
      "hand": "left"
    },
    {
      "midi": 63,
      "time": 72.938,
      "duration": 2.063,
      "velocity": 0.71,
      "hand": "right"
    },
    {
      "midi": 69,
      "time": 72.938,
      "duration": 1.5,
      "velocity": 0.71,
      "hand": "right"
    },
    {
      "midi": 68,
      "time": 74.438,
      "duration": 0.188,
      "velocity": 0.71,
      "hand": "right"
    },
    {
      "midi": 69,
      "time": 74.625,
      "duration": 0.188,
      "velocity": 0.71,
      "hand": "right"
    },
    {
      "midi": 69,
      "time": 74.813,
      "duration": 0.188,
      "velocity": 0.71,
      "hand": "right"
    },
    {
      "midi": 71,
      "time": 74.813,
      "duration": 0.188,
      "velocity": 0.71,
      "hand": "right"
    },
    {
      "midi": 64,
      "time": 75,
      "duration": 0.938,
      "velocity": 0.71,
      "hand": "right"
    },
    {
      "midi": 68,
      "time": 75,
      "duration": 0.938,
      "velocity": 0.71,
      "hand": "right"
    },
    {
      "midi": 71,
      "time": 76.688,
      "duration": 0.188,
      "velocity": 0.54,
      "hand": "right"
    },
    {
      "midi": 69,
      "time": 77.063,
      "duration": 0.188,
      "velocity": 0.54,
      "hand": "right"
    },
    {
      "midi": 68,
      "time": 77.25,
      "duration": 0.188,
      "velocity": 0.54,
      "hand": "right"
    },
    {
      "midi": 62,
      "time": 77.438,
      "duration": 0.563,
      "velocity": 0.71,
      "hand": "right"
    },
    {
      "midi": 65,
      "time": 77.438,
      "duration": 0.563,
      "velocity": 0.71,
      "hand": "right"
    },
    {
      "midi": 71,
      "time": 77.813,
      "duration": 0.188,
      "velocity": 0.54,
      "hand": "right"
    },
    {
      "midi": 62,
      "time": 78,
      "duration": 0.563,
      "velocity": 0.71,
      "hand": "right"
    },
    {
      "midi": 65,
      "time": 78,
      "duration": 0.563,
      "velocity": 0.71,
      "hand": "right"
    },
    {
      "midi": 69,
      "time": 78,
      "duration": 0.188,
      "velocity": 0.54,
      "hand": "right"
    },
    {
      "midi": 68,
      "time": 78.188,
      "duration": 0.188,
      "velocity": 0.54,
      "hand": "right"
    },
    {
      "midi": 62,
      "time": 78.563,
      "duration": 0.563,
      "velocity": 0.71,
      "hand": "right"
    },
    {
      "midi": 65,
      "time": 78.563,
      "duration": 0.563,
      "velocity": 0.71,
      "hand": "right"
    },
    {
      "midi": 71,
      "time": 78.75,
      "duration": 0.188,
      "velocity": 0.54,
      "hand": "right"
    },
    {
      "midi": 62,
      "time": 78.938,
      "duration": 0.563,
      "velocity": 0.71,
      "hand": "right"
    },
    {
      "midi": 65,
      "time": 78.938,
      "duration": 0.563,
      "velocity": 0.71,
      "hand": "right"
    },
    {
      "midi": 69,
      "time": 78.938,
      "duration": 0.188,
      "velocity": 0.54,
      "hand": "right"
    },
    {
      "midi": 68,
      "time": 79.313,
      "duration": 0.188,
      "velocity": 0.54,
      "hand": "right"
    },
    {
      "midi": 62,
      "time": 79.5,
      "duration": 0.563,
      "velocity": 0.71,
      "hand": "right"
    },
    {
      "midi": 65,
      "time": 79.5,
      "duration": 0.563,
      "velocity": 0.71,
      "hand": "right"
    },
    {
      "midi": 71,
      "time": 79.688,
      "duration": 0.188,
      "velocity": 0.54,
      "hand": "right"
    },
    {
      "midi": 62,
      "time": 80.063,
      "duration": 0.563,
      "velocity": 0.71,
      "hand": "right"
    },
    {
      "midi": 65,
      "time": 80.063,
      "duration": 0.563,
      "velocity": 0.71,
      "hand": "right"
    },
    {
      "midi": 74,
      "time": 80.25,
      "duration": 0.188,
      "velocity": 0.54,
      "hand": "right"
    },
    {
      "midi": 62,
      "time": 80.438,
      "duration": 0.563,
      "velocity": 0.71,
      "hand": "right"
    },
    {
      "midi": 65,
      "time": 80.438,
      "duration": 0.563,
      "velocity": 0.71,
      "hand": "right"
    },
    {
      "midi": 68,
      "time": 80.813,
      "duration": 0.188,
      "velocity": 0.54,
      "hand": "right"
    },
    {
      "midi": 71,
      "time": 81,
      "duration": 0.188,
      "velocity": 0.54,
      "hand": "right"
    },
    {
      "midi": 69,
      "time": 81.188,
      "duration": 0.188,
      "velocity": 0.54,
      "hand": "right"
    },
    {
      "midi": 60,
      "time": 81.563,
      "duration": 0.563,
      "velocity": 0.71,
      "hand": "right"
    },
    {
      "midi": 64,
      "time": 81.563,
      "duration": 0.563,
      "velocity": 0.71,
      "hand": "right"
    },
    {
      "midi": 72,
      "time": 81.75,
      "duration": 0.188,
      "velocity": 0.54,
      "hand": "right"
    },
    {
      "midi": 60,
      "time": 81.938,
      "duration": 0.563,
      "velocity": 0.71,
      "hand": "right"
    },
    {
      "midi": 64,
      "time": 81.938,
      "duration": 0.563,
      "velocity": 0.71,
      "hand": "right"
    },
    {
      "midi": 71,
      "time": 81.938,
      "duration": 0.188,
      "velocity": 0.54,
      "hand": "right"
    },
    {
      "midi": 69,
      "time": 82.313,
      "duration": 0.188,
      "velocity": 0.54,
      "hand": "right"
    },
    {
      "midi": 60,
      "time": 82.5,
      "duration": 0.563,
      "velocity": 0.71,
      "hand": "right"
    },
    {
      "midi": 64,
      "time": 82.5,
      "duration": 0.563,
      "velocity": 0.71,
      "hand": "right"
    },
    {
      "midi": 72,
      "time": 82.688,
      "duration": 0.188,
      "velocity": 0.54,
      "hand": "right"
    },
    {
      "midi": 60,
      "time": 83.063,
      "duration": 0.563,
      "velocity": 0.71,
      "hand": "right"
    },
    {
      "midi": 64,
      "time": 83.063,
      "duration": 0.563,
      "velocity": 0.71,
      "hand": "right"
    },
    {
      "midi": 71,
      "time": 83.063,
      "duration": 0.188,
      "velocity": 0.54,
      "hand": "right"
    },
    {
      "midi": 69,
      "time": 83.25,
      "duration": 0.188,
      "velocity": 0.54,
      "hand": "right"
    },
    {
      "midi": 60,
      "time": 83.438,
      "duration": 0.563,
      "velocity": 0.71,
      "hand": "right"
    },
    {
      "midi": 64,
      "time": 83.438,
      "duration": 0.563,
      "velocity": 0.71,
      "hand": "right"
    },
    {
      "midi": 72,
      "time": 83.813,
      "duration": 0.188,
      "velocity": 0.54,
      "hand": "right"
    },
    {
      "midi": 60,
      "time": 84,
      "duration": 0.563,
      "velocity": 0.71,
      "hand": "right"
    },
    {
      "midi": 64,
      "time": 84,
      "duration": 0.563,
      "velocity": 0.71,
      "hand": "right"
    },
    {
      "midi": 76,
      "time": 84.188,
      "duration": 0.188,
      "velocity": 0.54,
      "hand": "right"
    },
    {
      "midi": 60,
      "time": 84.563,
      "duration": 0.563,
      "velocity": 0.71,
      "hand": "right"
    },
    {
      "midi": 64,
      "time": 84.563,
      "duration": 0.563,
      "velocity": 0.71,
      "hand": "right"
    },
    {
      "midi": 69,
      "time": 84.75,
      "duration": 0.188,
      "velocity": 0.54,
      "hand": "right"
    },
    {
      "midi": 72,
      "time": 84.938,
      "duration": 0.188,
      "velocity": 0.54,
      "hand": "right"
    },
    {
      "midi": 71,
      "time": 85.313,
      "duration": 0.188,
      "velocity": 0.54,
      "hand": "right"
    },
    {
      "midi": 56,
      "time": 85.5,
      "duration": 0.563,
      "velocity": 0.71,
      "hand": "left"
    },
    {
      "midi": 64,
      "time": 85.5,
      "duration": 0.563,
      "velocity": 0.71,
      "hand": "right"
    },
    {
      "midi": 74,
      "time": 85.688,
      "duration": 0.188,
      "velocity": 0.54,
      "hand": "right"
    },
    {
      "midi": 56,
      "time": 86.063,
      "duration": 0.563,
      "velocity": 0.71,
      "hand": "left"
    },
    {
      "midi": 64,
      "time": 86.063,
      "duration": 0.563,
      "velocity": 0.71,
      "hand": "right"
    },
    {
      "midi": 72,
      "time": 86.063,
      "duration": 0.188,
      "velocity": 0.54,
      "hand": "right"
    },
    {
      "midi": 71,
      "time": 86.25,
      "duration": 0.188,
      "velocity": 0.54,
      "hand": "right"
    },
    {
      "midi": 56,
      "time": 86.438,
      "duration": 0.563,
      "velocity": 0.71,
      "hand": "left"
    },
    {
      "midi": 64,
      "time": 86.438,
      "duration": 0.563,
      "velocity": 0.71,
      "hand": "right"
    },
    {
      "midi": 74,
      "time": 86.813,
      "duration": 0.188,
      "velocity": 0.54,
      "hand": "right"
    },
    {
      "midi": 56,
      "time": 87,
      "duration": 0.563,
      "velocity": 0.71,
      "hand": "left"
    },
    {
      "midi": 64,
      "time": 87,
      "duration": 0.563,
      "velocity": 0.71,
      "hand": "right"
    },
    {
      "midi": 72,
      "time": 87,
      "duration": 0.188,
      "velocity": 0.54,
      "hand": "right"
    },
    {
      "midi": 71,
      "time": 87.188,
      "duration": 0.188,
      "velocity": 0.54,
      "hand": "right"
    },
    {
      "midi": 56,
      "time": 87.563,
      "duration": 0.563,
      "velocity": 0.71,
      "hand": "left"
    },
    {
      "midi": 64,
      "time": 87.563,
      "duration": 0.563,
      "velocity": 0.71,
      "hand": "right"
    },
    {
      "midi": 74,
      "time": 87.75,
      "duration": 0.188,
      "velocity": 0.54,
      "hand": "right"
    },
    {
      "midi": 56,
      "time": 87.938,
      "duration": 0.563,
      "velocity": 0.71,
      "hand": "left"
    },
    {
      "midi": 64,
      "time": 87.938,
      "duration": 0.563,
      "velocity": 0.71,
      "hand": "right"
    },
    {
      "midi": 77,
      "time": 88.313,
      "duration": 0.188,
      "velocity": 0.54,
      "hand": "right"
    },
    {
      "midi": 56,
      "time": 88.5,
      "duration": 0.563,
      "velocity": 0.71,
      "hand": "left"
    },
    {
      "midi": 64,
      "time": 88.5,
      "duration": 0.563,
      "velocity": 0.71,
      "hand": "right"
    },
    {
      "midi": 71,
      "time": 88.688,
      "duration": 0.188,
      "velocity": 0.54,
      "hand": "right"
    },
    {
      "midi": 57,
      "time": 89.063,
      "duration": 0.563,
      "velocity": 0.71,
      "hand": "left"
    },
    {
      "midi": 64,
      "time": 89.063,
      "duration": 0.563,
      "velocity": 0.71,
      "hand": "right"
    },
    {
      "midi": 74,
      "time": 89.063,
      "duration": 0.188,
      "velocity": 0.54,
      "hand": "right"
    },
    {
      "midi": 72,
      "time": 89.25,
      "duration": 0.188,
      "velocity": 0.54,
      "hand": "right"
    },
    {
      "midi": 57,
      "time": 89.438,
      "duration": 0.563,
      "velocity": 0.71,
      "hand": "left"
    },
    {
      "midi": 60,
      "time": 89.438,
      "duration": 0.563,
      "velocity": 0.71,
      "hand": "right"
    },
    {
      "midi": 81,
      "time": 89.813,
      "duration": 0.188,
      "velocity": 0.54,
      "hand": "right"
    },
    {
      "midi": 59,
      "time": 90,
      "duration": 0.563,
      "velocity": 0.71,
      "hand": "left"
    },
    {
      "midi": 62,
      "time": 90,
      "duration": 0.563,
      "velocity": 0.71,
      "hand": "right"
    },
    {
      "midi": 80,
      "time": 90.188,
      "duration": 0.188,
      "velocity": 0.57,
      "hand": "right"
    },
    {
      "midi": 61,
      "time": 90.563,
      "duration": 0.563,
      "velocity": 0.71,
      "hand": "right"
    },
    {
      "midi": 64,
      "time": 90.563,
      "duration": 0.563,
      "velocity": 0.71,
      "hand": "right"
    },
    {
      "midi": 79,
      "time": 90.75,
      "duration": 0.188,
      "velocity": 0.61,
      "hand": "right"
    },
    {
      "midi": 62,
      "time": 90.938,
      "duration": 0.563,
      "velocity": 0.71,
      "hand": "right"
    },
    {
      "midi": 65,
      "time": 90.938,
      "duration": 0.563,
      "velocity": 0.71,
      "hand": "right"
    },
    {
      "midi": 77,
      "time": 91.313,
      "duration": 0.188,
      "velocity": 0.65,
      "hand": "right"
    },
    {
      "midi": 64,
      "time": 91.5,
      "duration": 0.563,
      "velocity": 0.71,
      "hand": "right"
    },
    {
      "midi": 68,
      "time": 91.5,
      "duration": 0.563,
      "velocity": 0.71,
      "hand": "right"
    },
    {
      "midi": 76,
      "time": 91.688,
      "duration": 0.188,
      "velocity": 0.7,
      "hand": "right"
    },
    {
      "midi": 66,
      "time": 92.063,
      "duration": 0.563,
      "velocity": 0.71,
      "hand": "right"
    },
    {
      "midi": 69,
      "time": 92.063,
      "duration": 0.563,
      "velocity": 0.71,
      "hand": "right"
    },
    {
      "midi": 75,
      "time": 92.25,
      "duration": 0.188,
      "velocity": 0.75,
      "hand": "right"
    },
    {
      "midi": 68,
      "time": 92.438,
      "duration": 0.563,
      "velocity": 0.71,
      "hand": "right"
    },
    {
      "midi": 71,
      "time": 92.438,
      "duration": 0.563,
      "velocity": 0.71,
      "hand": "right"
    },
    {
      "midi": 74,
      "time": 92.813,
      "duration": 0.188,
      "velocity": 0.54,
      "hand": "right"
    },
    {
      "midi": 69,
      "time": 93,
      "duration": 0.563,
      "velocity": 0.71,
      "hand": "right"
    },
    {
      "midi": 72,
      "time": 93,
      "duration": 0.188,
      "velocity": 0.54,
      "hand": "right"
    },
    {
      "midi": 76,
      "time": 93.188,
      "duration": 0.188,
      "velocity": 0.54,
      "hand": "right"
    },
    {
      "midi": 57,
      "time": 93.563,
      "duration": 0.563,
      "velocity": 0.71,
      "hand": "left"
    },
    {
      "midi": 60,
      "time": 93.563,
      "duration": 0.563,
      "velocity": 0.71,
      "hand": "right"
    },
    {
      "midi": 81,
      "time": 93.75,
      "duration": 0.188,
      "velocity": 0.54,
      "hand": "right"
    },
    {
      "midi": 59,
      "time": 93.938,
      "duration": 0.563,
      "velocity": 0.71,
      "hand": "left"
    },
    {
      "midi": 62,
      "time": 93.938,
      "duration": 0.563,
      "velocity": 0.71,
      "hand": "right"
    },
    {
      "midi": 80,
      "time": 94.313,
      "duration": 0.188,
      "velocity": 0.57,
      "hand": "right"
    },
    {
      "midi": 61,
      "time": 94.5,
      "duration": 0.563,
      "velocity": 0.71,
      "hand": "right"
    },
    {
      "midi": 64,
      "time": 94.5,
      "duration": 0.563,
      "velocity": 0.71,
      "hand": "right"
    },
    {
      "midi": 79,
      "time": 94.688,
      "duration": 0.188,
      "velocity": 0.62,
      "hand": "right"
    },
    {
      "midi": 62,
      "time": 95.063,
      "duration": 0.563,
      "velocity": 0.71,
      "hand": "right"
    },
    {
      "midi": 65,
      "time": 95.063,
      "duration": 0.563,
      "velocity": 0.71,
      "hand": "right"
    },
    {
      "midi": 77,
      "time": 95.25,
      "duration": 0.188,
      "velocity": 0.67,
      "hand": "right"
    },
    {
      "midi": 64,
      "time": 95.438,
      "duration": 0.563,
      "velocity": 0.71,
      "hand": "right"
    },
    {
      "midi": 68,
      "time": 95.438,
      "duration": 0.563,
      "velocity": 0.71,
      "hand": "right"
    },
    {
      "midi": 76,
      "time": 95.813,
      "duration": 0.188,
      "velocity": 0.72,
      "hand": "right"
    },
    {
      "midi": 66,
      "time": 96,
      "duration": 0.563,
      "velocity": 0.71,
      "hand": "right"
    },
    {
      "midi": 69,
      "time": 96,
      "duration": 0.563,
      "velocity": 0.71,
      "hand": "right"
    },
    {
      "midi": 75,
      "time": 96.188,
      "duration": 0.188,
      "velocity": 0.75,
      "hand": "right"
    },
    {
      "midi": 68,
      "time": 96.563,
      "duration": 0.563,
      "velocity": 0.71,
      "hand": "right"
    },
    {
      "midi": 71,
      "time": 96.563,
      "duration": 0.563,
      "velocity": 0.71,
      "hand": "right"
    },
    {
      "midi": 74,
      "time": 96.75,
      "duration": 0.188,
      "velocity": 0.75,
      "hand": "right"
    },
    {
      "midi": 57,
      "time": 101.063,
      "duration": 2.063,
      "velocity": 0.71,
      "hand": "left"
    },
    {
      "midi": 72,
      "time": 101.063,
      "duration": 1.688,
      "velocity": 0.54,
      "hand": "right"
    },
    {
      "midi": 60,
      "time": 101.438,
      "duration": 0.563,
      "velocity": 0.71,
      "hand": "right"
    },
    {
      "midi": 64,
      "time": 101.438,
      "duration": 0.563,
      "velocity": 0.71,
      "hand": "right"
    },
    {
      "midi": 60,
      "time": 102,
      "duration": 0.563,
      "velocity": 0.71,
      "hand": "right"
    },
    {
      "midi": 64,
      "time": 102,
      "duration": 0.563,
      "velocity": 0.71,
      "hand": "right"
    },
    {
      "midi": 60,
      "time": 102.563,
      "duration": 0.563,
      "velocity": 0.71,
      "hand": "right"
    },
    {
      "midi": 64,
      "time": 102.563,
      "duration": 0.563,
      "velocity": 0.71,
      "hand": "right"
    },
    {
      "midi": 71,
      "time": 102.75,
      "duration": 0.188,
      "velocity": 0.54,
      "hand": "right"
    },
    {
      "midi": 57,
      "time": 102.938,
      "duration": 2.063,
      "velocity": 0.71,
      "hand": "left"
    },
    {
      "midi": 72,
      "time": 102.938,
      "duration": 0.188,
      "velocity": 0.54,
      "hand": "right"
    },
    {
      "midi": 74,
      "time": 102.938,
      "duration": 0.563,
      "velocity": 0.54,
      "hand": "right"
    },
    {
      "midi": 60,
      "time": 103.5,
      "duration": 0.563,
      "velocity": 0.71,
      "hand": "right"
    },
    {
      "midi": 64,
      "time": 103.5,
      "duration": 0.563,
      "velocity": 0.71,
      "hand": "right"
    },
    {
      "midi": 72,
      "time": 103.5,
      "duration": 0.563,
      "velocity": 0.54,
      "hand": "right"
    },
    {
      "midi": 60,
      "time": 104.063,
      "duration": 0.563,
      "velocity": 0.71,
      "hand": "right"
    },
    {
      "midi": 64,
      "time": 104.063,
      "duration": 0.563,
      "velocity": 0.71,
      "hand": "right"
    },
    {
      "midi": 71,
      "time": 104.063,
      "duration": 0.563,
      "velocity": 0.54,
      "hand": "right"
    },
    {
      "midi": 60,
      "time": 104.438,
      "duration": 0.563,
      "velocity": 0.71,
      "hand": "right"
    },
    {
      "midi": 64,
      "time": 104.438,
      "duration": 0.563,
      "velocity": 0.71,
      "hand": "right"
    },
    {
      "midi": 69,
      "time": 104.438,
      "duration": 0.563,
      "velocity": 0.54,
      "hand": "right"
    },
    {
      "midi": 59,
      "time": 105,
      "duration": 2.063,
      "velocity": 0.71,
      "hand": "left"
    },
    {
      "midi": 68,
      "time": 105,
      "duration": 0.938,
      "velocity": 0.54,
      "hand": "right"
    },
    {
      "midi": 62,
      "time": 105.563,
      "duration": 0.563,
      "velocity": 0.71,
      "hand": "right"
    },
    {
      "midi": 64,
      "time": 105.563,
      "duration": 0.563,
      "velocity": 0.71,
      "hand": "right"
    },
    {
      "midi": 62,
      "time": 105.938,
      "duration": 0.563,
      "velocity": 0.71,
      "hand": "right"
    },
    {
      "midi": 64,
      "time": 105.938,
      "duration": 0.563,
      "velocity": 0.71,
      "hand": "right"
    },
    {
      "midi": 62,
      "time": 106.5,
      "duration": 0.563,
      "velocity": 0.71,
      "hand": "right"
    },
    {
      "midi": 64,
      "time": 106.5,
      "duration": 0.563,
      "velocity": 0.71,
      "hand": "right"
    },
    {
      "midi": 69,
      "time": 106.688,
      "duration": 0.188,
      "velocity": 0.54,
      "hand": "right"
    },
    {
      "midi": 59,
      "time": 107.063,
      "duration": 2.063,
      "velocity": 0.71,
      "hand": "left"
    },
    {
      "midi": 70,
      "time": 107.063,
      "duration": 0.563,
      "velocity": 0.54,
      "hand": "right"
    },
    {
      "midi": 62,
      "time": 107.438,
      "duration": 0.563,
      "velocity": 0.71,
      "hand": "right"
    },
    {
      "midi": 64,
      "time": 107.438,
      "duration": 0.563,
      "velocity": 0.71,
      "hand": "right"
    },
    {
      "midi": 71,
      "time": 107.438,
      "duration": 0.563,
      "velocity": 0.54,
      "hand": "right"
    },
    {
      "midi": 62,
      "time": 108,
      "duration": 0.563,
      "velocity": 0.71,
      "hand": "right"
    },
    {
      "midi": 64,
      "time": 108,
      "duration": 0.563,
      "velocity": 0.71,
      "hand": "right"
    },
    {
      "midi": 62,
      "time": 108.563,
      "duration": 0.563,
      "velocity": 0.71,
      "hand": "right"
    },
    {
      "midi": 64,
      "time": 108.563,
      "duration": 0.563,
      "velocity": 0.71,
      "hand": "right"
    },
    {
      "midi": 56,
      "time": 108.938,
      "duration": 2.063,
      "velocity": 0.71,
      "hand": "left"
    },
    {
      "midi": 77,
      "time": 108.938,
      "duration": 1.688,
      "velocity": 0.54,
      "hand": "right"
    },
    {
      "midi": 59,
      "time": 109.5,
      "duration": 0.563,
      "velocity": 0.71,
      "hand": "left"
    },
    {
      "midi": 62,
      "time": 109.5,
      "duration": 0.563,
      "velocity": 0.71,
      "hand": "right"
    },
    {
      "midi": 59,
      "time": 110.063,
      "duration": 0.563,
      "velocity": 0.71,
      "hand": "left"
    },
    {
      "midi": 62,
      "time": 110.063,
      "duration": 0.563,
      "velocity": 0.71,
      "hand": "right"
    },
    {
      "midi": 59,
      "time": 110.438,
      "duration": 0.563,
      "velocity": 0.71,
      "hand": "left"
    },
    {
      "midi": 62,
      "time": 110.438,
      "duration": 0.563,
      "velocity": 0.71,
      "hand": "right"
    },
    {
      "midi": 76,
      "time": 110.813,
      "duration": 0.188,
      "velocity": 0.54,
      "hand": "right"
    },
    {
      "midi": 77,
      "time": 110.813,
      "duration": 0.188,
      "velocity": 0.54,
      "hand": "right"
    },
    {
      "midi": 56,
      "time": 111,
      "duration": 2.063,
      "velocity": 0.71,
      "hand": "left"
    },
    {
      "midi": 79,
      "time": 111,
      "duration": 0.563,
      "velocity": 0.54,
      "hand": "right"
    },
    {
      "midi": 59,
      "time": 111.563,
      "duration": 0.563,
      "velocity": 0.71,
      "hand": "left"
    },
    {
      "midi": 62,
      "time": 111.563,
      "duration": 0.563,
      "velocity": 0.71,
      "hand": "right"
    },
    {
      "midi": 77,
      "time": 111.563,
      "duration": 0.563,
      "velocity": 0.54,
      "hand": "right"
    },
    {
      "midi": 59,
      "time": 111.938,
      "duration": 0.563,
      "velocity": 0.71,
      "hand": "left"
    },
    {
      "midi": 62,
      "time": 111.938,
      "duration": 0.563,
      "velocity": 0.71,
      "hand": "right"
    },
    {
      "midi": 76,
      "time": 111.938,
      "duration": 0.563,
      "velocity": 0.54,
      "hand": "right"
    },
    {
      "midi": 59,
      "time": 112.5,
      "duration": 0.563,
      "velocity": 0.71,
      "hand": "left"
    },
    {
      "midi": 62,
      "time": 112.5,
      "duration": 0.563,
      "velocity": 0.71,
      "hand": "right"
    },
    {
      "midi": 74,
      "time": 112.5,
      "duration": 0.563,
      "velocity": 0.54,
      "hand": "right"
    },
    {
      "midi": 55,
      "time": 113.063,
      "duration": 2.063,
      "velocity": 0.71,
      "hand": "left"
    },
    {
      "midi": 73,
      "time": 113.063,
      "duration": 0.938,
      "velocity": 0.54,
      "hand": "right"
    },
    {
      "midi": 58,
      "time": 113.438,
      "duration": 0.563,
      "velocity": 0.71,
      "hand": "left"
    },
    {
      "midi": 64,
      "time": 113.438,
      "duration": 0.563,
      "velocity": 0.71,
      "hand": "right"
    },
    {
      "midi": 58,
      "time": 114,
      "duration": 0.563,
      "velocity": 0.71,
      "hand": "left"
    },
    {
      "midi": 64,
      "time": 114,
      "duration": 0.563,
      "velocity": 0.71,
      "hand": "right"
    },
    {
      "midi": 58,
      "time": 114.563,
      "duration": 0.563,
      "velocity": 0.71,
      "hand": "left"
    },
    {
      "midi": 64,
      "time": 114.563,
      "duration": 0.563,
      "velocity": 0.71,
      "hand": "right"
    },
    {
      "midi": 74,
      "time": 114.75,
      "duration": 0.188,
      "velocity": 0.54,
      "hand": "right"
    },
    {
      "midi": 55,
      "time": 114.938,
      "duration": 2.063,
      "velocity": 0.71,
      "hand": "left"
    },
    {
      "midi": 75,
      "time": 114.938,
      "duration": 0.563,
      "velocity": 0.54,
      "hand": "right"
    },
    {
      "midi": 58,
      "time": 115.5,
      "duration": 0.563,
      "velocity": 0.71,
      "hand": "left"
    },
    {
      "midi": 61,
      "time": 115.5,
      "duration": 0.563,
      "velocity": 0.71,
      "hand": "right"
    },
    {
      "midi": 76,
      "time": 115.5,
      "duration": 0.563,
      "velocity": 0.54,
      "hand": "right"
    },
    {
      "midi": 58,
      "time": 116.063,
      "duration": 0.563,
      "velocity": 0.71,
      "hand": "left"
    },
    {
      "midi": 61,
      "time": 116.063,
      "duration": 0.563,
      "velocity": 0.71,
      "hand": "right"
    },
    {
      "midi": 58,
      "time": 116.438,
      "duration": 0.563,
      "velocity": 0.71,
      "hand": "left"
    },
    {
      "midi": 61,
      "time": 116.438,
      "duration": 0.563,
      "velocity": 0.71,
      "hand": "right"
    },
    {
      "midi": 77,
      "time": 116.813,
      "duration": 0.188,
      "velocity": 0.54,
      "hand": "right"
    },
    {
      "midi": 52,
      "time": 117,
      "duration": 2.063,
      "velocity": 0.71,
      "hand": "left"
    },
    {
      "midi": 78,
      "time": 117,
      "duration": 0.563,
      "velocity": 0.54,
      "hand": "right"
    },
    {
      "midi": 58,
      "time": 117.563,
      "duration": 0.563,
      "velocity": 0.71,
      "hand": "left"
    },
    {
      "midi": 61,
      "time": 117.563,
      "duration": 0.563,
      "velocity": 0.71,
      "hand": "right"
    },
    {
      "midi": 79,
      "time": 117.563,
      "duration": 0.563,
      "velocity": 0.6,
      "hand": "right"
    },
    {
      "midi": 58,
      "time": 117.938,
      "duration": 0.563,
      "velocity": 0.71,
      "hand": "left"
    },
    {
      "midi": 61,
      "time": 117.938,
      "duration": 0.563,
      "velocity": 0.71,
      "hand": "right"
    },
    {
      "midi": 58,
      "time": 118.5,
      "duration": 0.563,
      "velocity": 0.71,
      "hand": "left"
    },
    {
      "midi": 61,
      "time": 118.5,
      "duration": 0.563,
      "velocity": 0.71,
      "hand": "right"
    },
    {
      "midi": 81,
      "time": 118.688,
      "duration": 0.188,
      "velocity": 0.72,
      "hand": "right"
    },
    {
      "midi": 49,
      "time": 119.063,
      "duration": 0.938,
      "velocity": 0.71,
      "hand": "left"
    },
    {
      "midi": 52,
      "time": 119.063,
      "duration": 0.938,
      "velocity": 0.71,
      "hand": "left"
    },
    {
      "midi": 55,
      "time": 119.063,
      "duration": 0.938,
      "velocity": 0.71,
      "hand": "left"
    },
    {
      "midi": 84,
      "time": 119.063,
      "duration": 0.563,
      "velocity": 0.75,
      "hand": "right"
    },
    {
      "midi": 82,
      "time": 119.438,
      "duration": 0.563,
      "velocity": 0.75,
      "hand": "right"
    },
    {
      "midi": 81,
      "time": 121.125,
      "duration": 0.188,
      "velocity": 0.75,
      "hand": "right"
    },
    {
      "midi": 83,
      "time": 121.313,
      "duration": 0.188,
      "velocity": 0.75,
      "hand": "right"
    },
    {
      "midi": 84,
      "time": 121.313,
      "duration": 0.188,
      "velocity": 0.75,
      "hand": "right"
    },
    {
      "midi": 79,
      "time": 121.5,
      "duration": 0.188,
      "velocity": 0.75,
      "hand": "right"
    },
    {
      "midi": 81,
      "time": 121.5,
      "duration": 0.188,
      "velocity": 0.75,
      "hand": "right"
    },
    {
      "midi": 77,
      "time": 121.688,
      "duration": 0.188,
      "velocity": 0.75,
      "hand": "right"
    },
    {
      "midi": 74,
      "time": 121.875,
      "duration": 0.188,
      "velocity": 0.75,
      "hand": "right"
    },
    {
      "midi": 76,
      "time": 121.875,
      "duration": 0.188,
      "velocity": 0.75,
      "hand": "right"
    },
    {
      "midi": 73,
      "time": 122.063,
      "duration": 0.188,
      "velocity": 0.75,
      "hand": "right"
    },
    {
      "midi": 76,
      "time": 122.063,
      "duration": 0.188,
      "velocity": 0.75,
      "hand": "right"
    },
    {
      "midi": 69,
      "time": 122.25,
      "duration": 0.188,
      "velocity": 0.75,
      "hand": "right"
    },
    {
      "midi": 70,
      "time": 122.438,
      "duration": 0.188,
      "velocity": 0.75,
      "hand": "right"
    },
    {
      "midi": 72,
      "time": 122.438,
      "duration": 0.188,
      "velocity": 0.75,
      "hand": "right"
    },
    {
      "midi": 69,
      "time": 122.625,
      "duration": 0.188,
      "velocity": 0.75,
      "hand": "right"
    },
    {
      "midi": 65,
      "time": 122.813,
      "duration": 0.188,
      "velocity": 0.75,
      "hand": "right"
    },
    {
      "midi": 67,
      "time": 122.813,
      "duration": 0.188,
      "velocity": 0.75,
      "hand": "right"
    },
    {
      "midi": 62,
      "time": 123,
      "duration": 0.188,
      "velocity": 0.75,
      "hand": "right"
    },
    {
      "midi": 64,
      "time": 123,
      "duration": 0.188,
      "velocity": 0.75,
      "hand": "right"
    },
    {
      "midi": 61,
      "time": 123.188,
      "duration": 0.188,
      "velocity": 0.75,
      "hand": "right"
    },
    {
      "midi": 57,
      "time": 123.375,
      "duration": 0.188,
      "velocity": 0.75,
      "hand": "left"
    },
    {
      "midi": 64,
      "time": 123.375,
      "duration": 0.188,
      "velocity": 0.75,
      "hand": "right"
    },
    {
      "midi": 58,
      "time": 123.563,
      "duration": 0.188,
      "velocity": 0.75,
      "hand": "left"
    },
    {
      "midi": 60,
      "time": 123.563,
      "duration": 0.188,
      "velocity": 0.75,
      "hand": "right"
    },
    {
      "midi": 57,
      "time": 123.75,
      "duration": 0.188,
      "velocity": 0.75,
      "hand": "left"
    },
    {
      "midi": 53,
      "time": 123.938,
      "duration": 0.188,
      "velocity": 0.75,
      "hand": "left"
    },
    {
      "midi": 55,
      "time": 123.938,
      "duration": 0.188,
      "velocity": 0.75,
      "hand": "left"
    },
    {
      "midi": 52,
      "time": 124.125,
      "duration": 0.188,
      "velocity": 0.75,
      "hand": "left"
    },
    {
      "midi": 49,
      "time": 124.313,
      "duration": 0.188,
      "velocity": 0.75,
      "hand": "left"
    },
    {
      "midi": 50,
      "time": 124.313,
      "duration": 0.188,
      "velocity": 0.75,
      "hand": "left"
    },
    {
      "midi": 45,
      "time": 124.5,
      "duration": 0.188,
      "velocity": 0.75,
      "hand": "left"
    },
    {
      "midi": 52,
      "time": 124.5,
      "duration": 0.188,
      "velocity": 0.75,
      "hand": "left"
    },
    {
      "midi": 48,
      "time": 124.688,
      "duration": 0.188,
      "velocity": 0.75,
      "hand": "left"
    },
    {
      "midi": 45,
      "time": 124.875,
      "duration": 0.188,
      "velocity": 0.75,
      "hand": "left"
    },
    {
      "midi": 46,
      "time": 124.875,
      "duration": 0.188,
      "velocity": 0.75,
      "hand": "left"
    },
    {
      "midi": 36,
      "time": 125.063,
      "duration": 0.188,
      "velocity": 0.71,
      "hand": "left"
    },
    {
      "midi": 43,
      "time": 125.063,
      "duration": 0.188,
      "velocity": 0.75,
      "hand": "left"
    },
    {
      "midi": 39,
      "time": 125.25,
      "duration": 0.188,
      "velocity": 0.71,
      "hand": "left"
    },
    {
      "midi": 42,
      "time": 125.438,
      "duration": 0.188,
      "velocity": 0.71,
      "hand": "left"
    },
    {
      "midi": 45,
      "time": 125.438,
      "duration": 0.188,
      "velocity": 0.71,
      "hand": "left"
    },
    {
      "midi": 48,
      "time": 125.625,
      "duration": 0.188,
      "velocity": 0.75,
      "hand": "left"
    },
    {
      "midi": 51,
      "time": 125.813,
      "duration": 0.188,
      "velocity": 0.75,
      "hand": "left"
    },
    {
      "midi": 54,
      "time": 125.813,
      "duration": 0.188,
      "velocity": 0.75,
      "hand": "left"
    },
    {
      "midi": 57,
      "time": 126,
      "duration": 0.188,
      "velocity": 0.75,
      "hand": "left"
    },
    {
      "midi": 60,
      "time": 126,
      "duration": 0.188,
      "velocity": 0.71,
      "hand": "right"
    },
    {
      "midi": 63,
      "time": 126.188,
      "duration": 0.188,
      "velocity": 0.71,
      "hand": "right"
    },
    {
      "midi": 66,
      "time": 126.375,
      "duration": 0.188,
      "velocity": 0.71,
      "hand": "right"
    },
    {
      "midi": 69,
      "time": 126.375,
      "duration": 0.188,
      "velocity": 0.71,
      "hand": "right"
    },
    {
      "midi": 72,
      "time": 126.563,
      "duration": 0.188,
      "velocity": 0.75,
      "hand": "right"
    },
    {
      "midi": 75,
      "time": 126.563,
      "duration": 0.188,
      "velocity": 0.75,
      "hand": "right"
    },
    {
      "midi": 78,
      "time": 126.75,
      "duration": 0.188,
      "velocity": 0.75,
      "hand": "right"
    },
    {
      "midi": 81,
      "time": 126.938,
      "duration": 0.188,
      "velocity": 0.75,
      "hand": "right"
    },
    {
      "midi": 84,
      "time": 126.938,
      "duration": 0.188,
      "velocity": 0.75,
      "hand": "right"
    },
    {
      "midi": 87,
      "time": 127.125,
      "duration": 0.188,
      "velocity": 0.75,
      "hand": "right"
    },
    {
      "midi": 62,
      "time": 127.875,
      "duration": 0.563,
      "velocity": 0.75,
      "hand": "right"
    },
    {
      "midi": 62,
      "time": 128.438,
      "duration": 0.563,
      "velocity": 0.75,
      "hand": "right"
    },
    {
      "midi": 62,
      "time": 128.813,
      "duration": 0.563,
      "velocity": 0.75,
      "hand": "right"
    },
    {
      "midi": 62,
      "time": 129.375,
      "duration": 0.563,
      "velocity": 0.75,
      "hand": "right"
    },
    {
      "midi": 62,
      "time": 129.938,
      "duration": 0.563,
      "velocity": 0.75,
      "hand": "right"
    },
    {
      "midi": 62,
      "time": 130.313,
      "duration": 0.563,
      "velocity": 0.75,
      "hand": "right"
    },
    {
      "midi": 43,
      "time": 130.875,
      "duration": 0.938,
      "velocity": 0.71,
      "hand": "left"
    },
    {
      "midi": 55,
      "time": 130.875,
      "duration": 0.938,
      "velocity": 0.71,
      "hand": "left"
    },
    {
      "midi": 58,
      "time": 130.875,
      "duration": 0.938,
      "velocity": 0.75,
      "hand": "left"
    },
    {
      "midi": 62,
      "time": 130.875,
      "duration": 0.563,
      "velocity": 0.75,
      "hand": "right"
    },
    {
      "midi": 62,
      "time": 131.438,
      "duration": 0.563,
      "velocity": 0.75,
      "hand": "right"
    },
    {
      "midi": 42,
      "time": 131.813,
      "duration": 0.938,
      "velocity": 0.71,
      "hand": "left"
    },
    {
      "midi": 54,
      "time": 131.813,
      "duration": 0.938,
      "velocity": 0.71,
      "hand": "left"
    },
    {
      "midi": 57,
      "time": 131.813,
      "duration": 0.938,
      "velocity": 0.75,
      "hand": "left"
    },
    {
      "midi": 62,
      "time": 131.813,
      "duration": 0.563,
      "velocity": 0.75,
      "hand": "right"
    },
    {
      "midi": 62,
      "time": 132.375,
      "duration": 0.563,
      "velocity": 0.75,
      "hand": "right"
    },
    {
      "midi": 41,
      "time": 132.938,
      "duration": 0.938,
      "velocity": 0.71,
      "hand": "left"
    },
    {
      "midi": 53,
      "time": 132.938,
      "duration": 0.938,
      "velocity": 0.71,
      "hand": "left"
    },
    {
      "midi": 56,
      "time": 132.938,
      "duration": 0.938,
      "velocity": 0.75,
      "hand": "left"
    },
    {
      "midi": 62,
      "time": 132.938,
      "duration": 0.563,
      "velocity": 0.75,
      "hand": "right"
    },
    {
      "midi": 62,
      "time": 133.313,
      "duration": 0.563,
      "velocity": 0.75,
      "hand": "right"
    },
    {
      "midi": 40,
      "time": 133.875,
      "duration": 0.938,
      "velocity": 0.71,
      "hand": "left"
    },
    {
      "midi": 52,
      "time": 133.875,
      "duration": 0.938,
      "velocity": 0.71,
      "hand": "left"
    },
    {
      "midi": 55,
      "time": 133.875,
      "duration": 0.938,
      "velocity": 0.75,
      "hand": "left"
    },
    {
      "midi": 62,
      "time": 133.875,
      "duration": 0.563,
      "velocity": 0.75,
      "hand": "right"
    },
    {
      "midi": 61,
      "time": 134.438,
      "duration": 0.563,
      "velocity": 0.75,
      "hand": "right"
    },
    {
      "midi": 39,
      "time": 134.813,
      "duration": 0.938,
      "velocity": 0.71,
      "hand": "left"
    },
    {
      "midi": 51,
      "time": 134.813,
      "duration": 0.938,
      "velocity": 0.71,
      "hand": "left"
    },
    {
      "midi": 61,
      "time": 134.813,
      "duration": 0.938,
      "velocity": 0.75,
      "hand": "right"
    },
    {
      "midi": 67,
      "time": 134.813,
      "duration": 0.563,
      "velocity": 0.75,
      "hand": "right"
    },
    {
      "midi": 67,
      "time": 135.375,
      "duration": 0.563,
      "velocity": 0.75,
      "hand": "right"
    },
    {
      "midi": 38,
      "time": 135.938,
      "duration": 3,
      "velocity": 0.71,
      "hand": "left"
    },
    {
      "midi": 50,
      "time": 135.938,
      "duration": 3,
      "velocity": 0.71,
      "hand": "left"
    },
    {
      "midi": 61,
      "time": 135.938,
      "duration": 2.063,
      "velocity": 0.75,
      "hand": "right"
    },
    {
      "midi": 67,
      "time": 135.938,
      "duration": 1.5,
      "velocity": 0.75,
      "hand": "right"
    },
    {
      "midi": 66,
      "time": 137.438,
      "duration": 0.188,
      "velocity": 0.75,
      "hand": "right"
    },
    {
      "midi": 67,
      "time": 137.438,
      "duration": 0.188,
      "velocity": 0.75,
      "hand": "right"
    },
    {
      "midi": 69,
      "time": 137.625,
      "duration": 0.188,
      "velocity": 0.75,
      "hand": "right"
    },
    {
      "midi": 62,
      "time": 137.813,
      "duration": 0.938,
      "velocity": 0.75,
      "hand": "right"
    },
    {
      "midi": 66,
      "time": 137.813,
      "duration": 0.938,
      "velocity": 0.75,
      "hand": "right"
    },
    {
      "midi": 67,
      "time": 137.813,
      "duration": 0.188,
      "velocity": 0.75,
      "hand": "right"
    },
    {
      "midi": 69,
      "time": 139.688,
      "duration": 0.188,
      "velocity": 0.54,
      "hand": "right"
    },
    {
      "midi": 67,
      "time": 139.875,
      "duration": 0.188,
      "velocity": 0.54,
      "hand": "right"
    },
    {
      "midi": 66,
      "time": 140.063,
      "duration": 0.188,
      "velocity": 0.54,
      "hand": "right"
    },
    {
      "midi": 60,
      "time": 140.438,
      "duration": 0.563,
      "velocity": 0.71,
      "hand": "right"
    },
    {
      "midi": 63,
      "time": 140.438,
      "duration": 0.563,
      "velocity": 0.71,
      "hand": "right"
    },
    {
      "midi": 69,
      "time": 140.625,
      "duration": 0.188,
      "velocity": 0.54,
      "hand": "right"
    },
    {
      "midi": 60,
      "time": 140.813,
      "duration": 0.563,
      "velocity": 0.71,
      "hand": "right"
    },
    {
      "midi": 63,
      "time": 140.813,
      "duration": 0.563,
      "velocity": 0.71,
      "hand": "right"
    },
    {
      "midi": 67,
      "time": 140.813,
      "duration": 0.188,
      "velocity": 0.54,
      "hand": "right"
    },
    {
      "midi": 66,
      "time": 141.188,
      "duration": 0.188,
      "velocity": 0.54,
      "hand": "right"
    },
    {
      "midi": 60,
      "time": 141.375,
      "duration": 0.563,
      "velocity": 0.71,
      "hand": "right"
    },
    {
      "midi": 63,
      "time": 141.375,
      "duration": 0.563,
      "velocity": 0.71,
      "hand": "right"
    },
    {
      "midi": 69,
      "time": 141.563,
      "duration": 0.188,
      "velocity": 0.54,
      "hand": "right"
    },
    {
      "midi": 60,
      "time": 141.938,
      "duration": 0.563,
      "velocity": 0.71,
      "hand": "right"
    },
    {
      "midi": 63,
      "time": 141.938,
      "duration": 0.563,
      "velocity": 0.71,
      "hand": "right"
    },
    {
      "midi": 67,
      "time": 141.938,
      "duration": 0.188,
      "velocity": 0.54,
      "hand": "right"
    },
    {
      "midi": 66,
      "time": 142.125,
      "duration": 0.188,
      "velocity": 0.54,
      "hand": "right"
    },
    {
      "midi": 60,
      "time": 142.313,
      "duration": 0.563,
      "velocity": 0.71,
      "hand": "right"
    },
    {
      "midi": 63,
      "time": 142.313,
      "duration": 0.563,
      "velocity": 0.71,
      "hand": "right"
    },
    {
      "midi": 69,
      "time": 142.688,
      "duration": 0.188,
      "velocity": 0.54,
      "hand": "right"
    },
    {
      "midi": 60,
      "time": 142.875,
      "duration": 0.563,
      "velocity": 0.71,
      "hand": "right"
    },
    {
      "midi": 63,
      "time": 142.875,
      "duration": 0.563,
      "velocity": 0.71,
      "hand": "right"
    },
    {
      "midi": 72,
      "time": 143.063,
      "duration": 0.188,
      "velocity": 0.54,
      "hand": "right"
    },
    {
      "midi": 60,
      "time": 143.438,
      "duration": 0.563,
      "velocity": 0.71,
      "hand": "right"
    },
    {
      "midi": 63,
      "time": 143.438,
      "duration": 0.563,
      "velocity": 0.71,
      "hand": "right"
    },
    {
      "midi": 66,
      "time": 143.625,
      "duration": 0.188,
      "velocity": 0.54,
      "hand": "right"
    },
    {
      "midi": 69,
      "time": 143.813,
      "duration": 0.188,
      "velocity": 0.54,
      "hand": "right"
    },
    {
      "midi": 67,
      "time": 144.188,
      "duration": 0.188,
      "velocity": 0.54,
      "hand": "right"
    },
    {
      "midi": 58,
      "time": 144.375,
      "duration": 0.563,
      "velocity": 0.71,
      "hand": "left"
    },
    {
      "midi": 62,
      "time": 144.375,
      "duration": 0.563,
      "velocity": 0.71,
      "hand": "right"
    },
    {
      "midi": 70,
      "time": 144.563,
      "duration": 0.188,
      "velocity": 0.54,
      "hand": "right"
    },
    {
      "midi": 58,
      "time": 144.938,
      "duration": 0.563,
      "velocity": 0.71,
      "hand": "left"
    },
    {
      "midi": 62,
      "time": 144.938,
      "duration": 0.563,
      "velocity": 0.71,
      "hand": "right"
    },
    {
      "midi": 69,
      "time": 144.938,
      "duration": 0.188,
      "velocity": 0.54,
      "hand": "right"
    },
    {
      "midi": 67,
      "time": 145.125,
      "duration": 0.188,
      "velocity": 0.54,
      "hand": "right"
    },
    {
      "midi": 58,
      "time": 145.313,
      "duration": 0.563,
      "velocity": 0.71,
      "hand": "left"
    },
    {
      "midi": 62,
      "time": 145.313,
      "duration": 0.563,
      "velocity": 0.71,
      "hand": "right"
    },
    {
      "midi": 70,
      "time": 145.688,
      "duration": 0.188,
      "velocity": 0.54,
      "hand": "right"
    },
    {
      "midi": 58,
      "time": 145.875,
      "duration": 0.563,
      "velocity": 0.71,
      "hand": "left"
    },
    {
      "midi": 62,
      "time": 145.875,
      "duration": 0.563,
      "velocity": 0.71,
      "hand": "right"
    },
    {
      "midi": 69,
      "time": 145.875,
      "duration": 0.188,
      "velocity": 0.54,
      "hand": "right"
    },
    {
      "midi": 67,
      "time": 146.063,
      "duration": 0.188,
      "velocity": 0.54,
      "hand": "right"
    },
    {
      "midi": 58,
      "time": 146.438,
      "duration": 0.563,
      "velocity": 0.71,
      "hand": "left"
    },
    {
      "midi": 62,
      "time": 146.438,
      "duration": 0.563,
      "velocity": 0.71,
      "hand": "right"
    },
    {
      "midi": 70,
      "time": 146.625,
      "duration": 0.188,
      "velocity": 0.54,
      "hand": "right"
    },
    {
      "midi": 58,
      "time": 146.813,
      "duration": 0.563,
      "velocity": 0.71,
      "hand": "left"
    },
    {
      "midi": 62,
      "time": 146.813,
      "duration": 0.563,
      "velocity": 0.71,
      "hand": "right"
    },
    {
      "midi": 74,
      "time": 147.188,
      "duration": 0.188,
      "velocity": 0.54,
      "hand": "right"
    },
    {
      "midi": 58,
      "time": 147.375,
      "duration": 0.563,
      "velocity": 0.71,
      "hand": "left"
    },
    {
      "midi": 62,
      "time": 147.375,
      "duration": 0.563,
      "velocity": 0.71,
      "hand": "right"
    },
    {
      "midi": 67,
      "time": 147.563,
      "duration": 0.188,
      "velocity": 0.54,
      "hand": "right"
    },
    {
      "midi": 70,
      "time": 147.938,
      "duration": 0.188,
      "velocity": 0.54,
      "hand": "right"
    },
    {
      "midi": 69,
      "time": 148.125,
      "duration": 0.188,
      "velocity": 0.54,
      "hand": "right"
    },
    {
      "midi": 54,
      "time": 148.313,
      "duration": 0.563,
      "velocity": 0.71,
      "hand": "left"
    },
    {
      "midi": 62,
      "time": 148.313,
      "duration": 0.563,
      "velocity": 0.71,
      "hand": "right"
    },
    {
      "midi": 72,
      "time": 148.688,
      "duration": 0.188,
      "velocity": 0.54,
      "hand": "right"
    },
    {
      "midi": 54,
      "time": 148.875,
      "duration": 0.563,
      "velocity": 0.71,
      "hand": "left"
    },
    {
      "midi": 62,
      "time": 148.875,
      "duration": 0.563,
      "velocity": 0.71,
      "hand": "right"
    },
    {
      "midi": 70,
      "time": 148.875,
      "duration": 0.188,
      "velocity": 0.54,
      "hand": "right"
    },
    {
      "midi": 69,
      "time": 149.063,
      "duration": 0.188,
      "velocity": 0.54,
      "hand": "right"
    },
    {
      "midi": 54,
      "time": 149.438,
      "duration": 0.563,
      "velocity": 0.71,
      "hand": "left"
    },
    {
      "midi": 62,
      "time": 149.438,
      "duration": 0.563,
      "velocity": 0.71,
      "hand": "right"
    },
    {
      "midi": 72,
      "time": 149.625,
      "duration": 0.188,
      "velocity": 0.54,
      "hand": "right"
    },
    {
      "midi": 54,
      "time": 149.813,
      "duration": 0.563,
      "velocity": 0.71,
      "hand": "left"
    },
    {
      "midi": 62,
      "time": 149.813,
      "duration": 0.563,
      "velocity": 0.71,
      "hand": "right"
    },
    {
      "midi": 70,
      "time": 149.813,
      "duration": 0.188,
      "velocity": 0.54,
      "hand": "right"
    },
    {
      "midi": 69,
      "time": 150.188,
      "duration": 0.188,
      "velocity": 0.54,
      "hand": "right"
    },
    {
      "midi": 54,
      "time": 150.375,
      "duration": 0.563,
      "velocity": 0.71,
      "hand": "left"
    },
    {
      "midi": 62,
      "time": 150.375,
      "duration": 0.563,
      "velocity": 0.71,
      "hand": "right"
    },
    {
      "midi": 72,
      "time": 150.563,
      "duration": 0.188,
      "velocity": 0.54,
      "hand": "right"
    },
    {
      "midi": 54,
      "time": 150.938,
      "duration": 0.563,
      "velocity": 0.71,
      "hand": "left"
    },
    {
      "midi": 62,
      "time": 150.938,
      "duration": 0.563,
      "velocity": 0.71,
      "hand": "right"
    },
    {
      "midi": 75,
      "time": 151.125,
      "duration": 0.188,
      "velocity": 0.54,
      "hand": "right"
    },
    {
      "midi": 54,
      "time": 151.313,
      "duration": 0.563,
      "velocity": 0.71,
      "hand": "left"
    },
    {
      "midi": 62,
      "time": 151.313,
      "duration": 0.563,
      "velocity": 0.71,
      "hand": "right"
    },
    {
      "midi": 69,
      "time": 151.688,
      "duration": 0.188,
      "velocity": 0.54,
      "hand": "right"
    },
    {
      "midi": 55,
      "time": 151.875,
      "duration": 0.563,
      "velocity": 0.71,
      "hand": "left"
    },
    {
      "midi": 62,
      "time": 151.875,
      "duration": 0.563,
      "velocity": 0.71,
      "hand": "right"
    },
    {
      "midi": 72,
      "time": 151.875,
      "duration": 0.188,
      "velocity": 0.54,
      "hand": "right"
    },
    {
      "midi": 70,
      "time": 152.063,
      "duration": 0.188,
      "velocity": 0.54,
      "hand": "right"
    },
    {
      "midi": 55,
      "time": 152.438,
      "duration": 0.563,
      "velocity": 0.71,
      "hand": "left"
    },
    {
      "midi": 58,
      "time": 152.438,
      "duration": 0.563,
      "velocity": 0.71,
      "hand": "left"
    },
    {
      "midi": 79,
      "time": 152.625,
      "duration": 0.188,
      "velocity": 0.54,
      "hand": "right"
    },
    {
      "midi": 57,
      "time": 152.813,
      "duration": 0.563,
      "velocity": 0.71,
      "hand": "left"
    },
    {
      "midi": 60,
      "time": 152.813,
      "duration": 0.563,
      "velocity": 0.71,
      "hand": "right"
    },
    {
      "midi": 78,
      "time": 153.188,
      "duration": 0.188,
      "velocity": 0.57,
      "hand": "right"
    },
    {
      "midi": 59,
      "time": 153.375,
      "duration": 0.563,
      "velocity": 0.71,
      "hand": "left"
    },
    {
      "midi": 62,
      "time": 153.375,
      "duration": 0.563,
      "velocity": 0.71,
      "hand": "right"
    },
    {
      "midi": 77,
      "time": 153.563,
      "duration": 0.188,
      "velocity": 0.62,
      "hand": "right"
    },
    {
      "midi": 60,
      "time": 153.938,
      "duration": 0.563,
      "velocity": 0.71,
      "hand": "right"
    },
    {
      "midi": 63,
      "time": 153.938,
      "duration": 0.563,
      "velocity": 0.71,
      "hand": "right"
    },
    {
      "midi": 75,
      "time": 154.125,
      "duration": 0.188,
      "velocity": 0.67,
      "hand": "right"
    },
    {
      "midi": 62,
      "time": 154.313,
      "duration": 0.563,
      "velocity": 0.71,
      "hand": "right"
    },
    {
      "midi": 66,
      "time": 154.313,
      "duration": 0.563,
      "velocity": 0.71,
      "hand": "right"
    },
    {
      "midi": 74,
      "time": 154.688,
      "duration": 0.188,
      "velocity": 0.72,
      "hand": "right"
    },
    {
      "midi": 64,
      "time": 154.875,
      "duration": 0.563,
      "velocity": 0.71,
      "hand": "right"
    },
    {
      "midi": 67,
      "time": 154.875,
      "duration": 0.563,
      "velocity": 0.71,
      "hand": "right"
    },
    {
      "midi": 73,
      "time": 155.063,
      "duration": 0.188,
      "velocity": 0.75,
      "hand": "right"
    },
    {
      "midi": 66,
      "time": 155.438,
      "duration": 0.563,
      "velocity": 0.71,
      "hand": "right"
    },
    {
      "midi": 69,
      "time": 155.438,
      "duration": 0.563,
      "velocity": 0.71,
      "hand": "right"
    },
    {
      "midi": 72,
      "time": 155.625,
      "duration": 0.188,
      "velocity": 0.54,
      "hand": "right"
    },
    {
      "midi": 67,
      "time": 155.813,
      "duration": 0.563,
      "velocity": 0.71,
      "hand": "right"
    },
    {
      "midi": 70,
      "time": 155.813,
      "duration": 0.188,
      "velocity": 0.54,
      "hand": "right"
    },
    {
      "midi": 74,
      "time": 156.188,
      "duration": 0.188,
      "velocity": 0.54,
      "hand": "right"
    },
    {
      "midi": 55,
      "time": 156.375,
      "duration": 0.563,
      "velocity": 0.71,
      "hand": "left"
    },
    {
      "midi": 58,
      "time": 156.375,
      "duration": 0.563,
      "velocity": 0.71,
      "hand": "left"
    },
    {
      "midi": 79,
      "time": 156.563,
      "duration": 0.188,
      "velocity": 0.54,
      "hand": "right"
    },
    {
      "midi": 57,
      "time": 156.938,
      "duration": 0.563,
      "velocity": 0.71,
      "hand": "left"
    },
    {
      "midi": 60,
      "time": 156.938,
      "duration": 0.563,
      "velocity": 0.71,
      "hand": "right"
    },
    {
      "midi": 78,
      "time": 157.125,
      "duration": 0.188,
      "velocity": 0.54,
      "hand": "right"
    },
    {
      "midi": 59,
      "time": 157.313,
      "duration": 0.563,
      "velocity": 0.71,
      "hand": "left"
    },
    {
      "midi": 62,
      "time": 157.313,
      "duration": 0.563,
      "velocity": 0.71,
      "hand": "right"
    },
    {
      "midi": 77,
      "time": 157.688,
      "duration": 0.188,
      "velocity": 0.54,
      "hand": "right"
    },
    {
      "midi": 60,
      "time": 157.875,
      "duration": 0.563,
      "velocity": 0.71,
      "hand": "right"
    },
    {
      "midi": 67,
      "time": 157.875,
      "duration": 0.563,
      "velocity": 0.71,
      "hand": "right"
    },
    {
      "midi": 74,
      "time": 157.875,
      "duration": 0.188,
      "velocity": 0.54,
      "hand": "right"
    },
    {
      "midi": 75,
      "time": 158.063,
      "duration": 0.188,
      "velocity": 0.54,
      "hand": "right"
    },
    {
      "midi": 58,
      "time": 158.438,
      "duration": 0.563,
      "velocity": 0.71,
      "hand": "left"
    },
    {
      "midi": 61,
      "time": 158.438,
      "duration": 0.563,
      "velocity": 0.71,
      "hand": "right"
    },
    {
      "midi": 76,
      "time": 158.625,
      "duration": 0.188,
      "velocity": 0.54,
      "hand": "right"
    },
    {
      "midi": 57,
      "time": 158.813,
      "duration": 0.563,
      "velocity": 0.71,
      "hand": "left"
    },
    {
      "midi": 60,
      "time": 158.813,
      "duration": 0.563,
      "velocity": 0.71,
      "hand": "right"
    },
    {
      "midi": 79,
      "time": 158.813,
      "duration": 0.188,
      "velocity": 0.54,
      "hand": "right"
    },
    {
      "midi": 77,
      "time": 159.188,
      "duration": 0.188,
      "velocity": 0.54,
      "hand": "right"
    },
    {
      "midi": 60,
      "time": 159.375,
      "duration": 0.563,
      "velocity": 0.71,
      "hand": "right"
    },
    {
      "midi": 63,
      "time": 159.375,
      "duration": 0.563,
      "velocity": 0.71,
      "hand": "right"
    },
    {
      "midi": 78,
      "time": 159.563,
      "duration": 0.188,
      "velocity": 0.54,
      "hand": "right"
    },
    {
      "midi": 59,
      "time": 159.938,
      "duration": 0.563,
      "velocity": 0.71,
      "hand": "left"
    },
    {
      "midi": 62,
      "time": 159.938,
      "duration": 0.563,
      "velocity": 0.71,
      "hand": "right"
    },
    {
      "midi": 81,
      "time": 159.938,
      "duration": 0.188,
      "velocity": 0.54,
      "hand": "right"
    },
    {
      "midi": 79,
      "time": 160.125,
      "duration": 0.188,
      "velocity": 0.54,
      "hand": "right"
    },
    {
      "midi": 54,
      "time": 160.313,
      "duration": 0.563,
      "velocity": 0.71,
      "hand": "left"
    },
    {
      "midi": 62,
      "time": 160.313,
      "duration": 0.938,
      "velocity": 0.71,
      "hand": "right"
    },
    {
      "midi": 81,
      "time": 160.688,
      "duration": 0.188,
      "velocity": 0.54,
      "hand": "right"
    },
    {
      "midi": 55,
      "time": 160.875,
      "duration": 0.563,
      "velocity": 0.71,
      "hand": "left"
    },
    {
      "midi": 84,
      "time": 160.875,
      "duration": 0.188,
      "velocity": 0.54,
      "hand": "right"
    },
    {
      "midi": 82,
      "time": 161.063,
      "duration": 0.188,
      "velocity": 0.54,
      "hand": "right"
    },
    {
      "midi": 53,
      "time": 161.438,
      "duration": 0.563,
      "velocity": 0.71,
      "hand": "left"
    },
    {
      "midi": 56,
      "time": 161.438,
      "duration": 0.563,
      "velocity": 0.71,
      "hand": "left"
    },
    {
      "midi": 83,
      "time": 161.625,
      "duration": 0.188,
      "velocity": 0.54,
      "hand": "right"
    },
    {
      "midi": 52,
      "time": 161.813,
      "duration": 0.563,
      "velocity": 0.71,
      "hand": "left"
    },
    {
      "midi": 55,
      "time": 161.813,
      "duration": 0.563,
      "velocity": 0.71,
      "hand": "left"
    },
    {
      "midi": 86,
      "time": 161.813,
      "duration": 0.188,
      "velocity": 0.54,
      "hand": "right"
    },
    {
      "midi": 85,
      "time": 162.188,
      "duration": 0.188,
      "velocity": 0.54,
      "hand": "right"
    },
    {
      "midi": 50,
      "time": 162.375,
      "duration": 0.563,
      "velocity": 0.71,
      "hand": "left"
    },
    {
      "midi": 55,
      "time": 162.375,
      "duration": 0.563,
      "velocity": 0.71,
      "hand": "left"
    },
    {
      "midi": 58,
      "time": 162.375,
      "duration": 0.563,
      "velocity": 0.71,
      "hand": "left"
    },
    {
      "midi": 86,
      "time": 162.563,
      "duration": 0.188,
      "velocity": 0.54,
      "hand": "right"
    },
    {
      "midi": 49,
      "time": 162.938,
      "duration": 0.938,
      "velocity": 0.71,
      "hand": "left"
    },
    {
      "midi": 55,
      "time": 162.938,
      "duration": 0.938,
      "velocity": 0.71,
      "hand": "left"
    },
    {
      "midi": 58,
      "time": 162.938,
      "duration": 0.938,
      "velocity": 0.71,
      "hand": "left"
    },
    {
      "midi": 89,
      "time": 162.938,
      "duration": 0.563,
      "velocity": 0.54,
      "hand": "right"
    },
    {
      "midi": 88,
      "time": 163.313,
      "duration": 0.563,
      "velocity": 0.54,
      "hand": "right"
    },
    {
      "midi": 87,
      "time": 164.063,
      "duration": 0.188,
      "velocity": 0.54,
      "hand": "right"
    },
    {
      "midi": 88,
      "time": 164.063,
      "duration": 0.188,
      "velocity": 0.54,
      "hand": "right"
    },
    {
      "midi": 86,
      "time": 164.25,
      "duration": 0.188,
      "velocity": 0.54,
      "hand": "right"
    },
    {
      "midi": 83,
      "time": 164.438,
      "duration": 0.188,
      "velocity": 0.54,
      "hand": "right"
    },
    {
      "midi": 85,
      "time": 164.438,
      "duration": 0.188,
      "velocity": 0.54,
      "hand": "right"
    },
    {
      "midi": 81,
      "time": 164.625,
      "duration": 0.188,
      "velocity": 0.54,
      "hand": "right"
    },
    {
      "midi": 80,
      "time": 164.813,
      "duration": 0.188,
      "velocity": 0.54,
      "hand": "right"
    },
    {
      "midi": 82,
      "time": 164.813,
      "duration": 0.188,
      "velocity": 0.54,
      "hand": "right"
    },
    {
      "midi": 81,
      "time": 165,
      "duration": 0.188,
      "velocity": 0.54,
      "hand": "right"
    },
    {
      "midi": 82,
      "time": 165.188,
      "duration": 0.188,
      "velocity": 0.54,
      "hand": "right"
    },
    {
      "midi": 84,
      "time": 165.188,
      "duration": 0.188,
      "velocity": 0.54,
      "hand": "right"
    },
    {
      "midi": 81,
      "time": 165.375,
      "duration": 0.188,
      "velocity": 0.54,
      "hand": "right"
    },
    {
      "midi": 77,
      "time": 165.563,
      "duration": 0.188,
      "velocity": 0.54,
      "hand": "right"
    },
    {
      "midi": 79,
      "time": 165.563,
      "duration": 0.188,
      "velocity": 0.54,
      "hand": "right"
    },
    {
      "midi": 76,
      "time": 165.75,
      "duration": 0.188,
      "velocity": 0.54,
      "hand": "right"
    },
    {
      "midi": 73,
      "time": 165.938,
      "duration": 0.188,
      "velocity": 0.54,
      "hand": "right"
    },
    {
      "midi": 74,
      "time": 165.938,
      "duration": 0.188,
      "velocity": 0.54,
      "hand": "right"
    },
    {
      "midi": 71,
      "time": 166.125,
      "duration": 0.188,
      "velocity": 0.54,
      "hand": "right"
    },
    {
      "midi": 68,
      "time": 166.313,
      "duration": 0.188,
      "velocity": 0.54,
      "hand": "right"
    },
    {
      "midi": 69,
      "time": 166.313,
      "duration": 0.188,
      "velocity": 0.54,
      "hand": "right"
    },
    {
      "midi": 70,
      "time": 166.5,
      "duration": 0.188,
      "velocity": 0.54,
      "hand": "right"
    },
    {
      "midi": 69,
      "time": 166.688,
      "duration": 0.188,
      "velocity": 0.54,
      "hand": "right"
    },
    {
      "midi": 72,
      "time": 166.688,
      "duration": 0.188,
      "velocity": 0.54,
      "hand": "right"
    },
    {
      "midi": 70,
      "time": 166.875,
      "duration": 0.188,
      "velocity": 0.54,
      "hand": "right"
    },
    {
      "midi": 67,
      "time": 167.063,
      "duration": 0.188,
      "velocity": 0.54,
      "hand": "right"
    },
    {
      "midi": 69,
      "time": 167.063,
      "duration": 0.188,
      "velocity": 0.54,
      "hand": "right"
    },
    {
      "midi": 65,
      "time": 167.25,
      "duration": 0.188,
      "velocity": 0.54,
      "hand": "right"
    },
    {
      "midi": 62,
      "time": 167.438,
      "duration": 0.188,
      "velocity": 0.54,
      "hand": "right"
    },
    {
      "midi": 64,
      "time": 167.438,
      "duration": 0.188,
      "velocity": 0.54,
      "hand": "right"
    },
    {
      "midi": 61,
      "time": 167.625,
      "duration": 0.188,
      "velocity": 0.54,
      "hand": "right"
    },
    {
      "midi": 57,
      "time": 167.813,
      "duration": 0.188,
      "velocity": 0.54,
      "hand": "left"
    },
    {
      "midi": 59,
      "time": 167.813,
      "duration": 0.188,
      "velocity": 0.54,
      "hand": "left"
    },
    {
      "midi": 56,
      "time": 168,
      "duration": 0.188,
      "velocity": 0.54,
      "hand": "left"
    },
    {
      "midi": 57,
      "time": 168.188,
      "duration": 0.188,
      "velocity": 0.54,
      "hand": "left"
    },
    {
      "midi": 58,
      "time": 168.188,
      "duration": 0.188,
      "velocity": 0.54,
      "hand": "left"
    },
    {
      "midi": 60,
      "time": 168.375,
      "duration": 0.188,
      "velocity": 0.54,
      "hand": "right"
    },
    {
      "midi": 57,
      "time": 168.563,
      "duration": 0.188,
      "velocity": 0.54,
      "hand": "left"
    },
    {
      "midi": 58,
      "time": 168.563,
      "duration": 0.188,
      "velocity": 0.54,
      "hand": "left"
    },
    {
      "midi": 55,
      "time": 168.75,
      "duration": 0.188,
      "velocity": 0.54,
      "hand": "left"
    },
    {
      "midi": 52,
      "time": 168.938,
      "duration": 0.188,
      "velocity": 0.54,
      "hand": "left"
    },
    {
      "midi": 53,
      "time": 168.938,
      "duration": 0.188,
      "velocity": 0.54,
      "hand": "left"
    },
    {
      "midi": 50,
      "time": 169.125,
      "duration": 0.188,
      "velocity": 0.54,
      "hand": "left"
    },
    {
      "midi": 47,
      "time": 169.313,
      "duration": 0.188,
      "velocity": 0.54,
      "hand": "left"
    },
    {
      "midi": 49,
      "time": 169.313,
      "duration": 0.188,
      "velocity": 0.54,
      "hand": "left"
    },
    {
      "midi": 45,
      "time": 169.5,
      "duration": 0.188,
      "velocity": 0.54,
      "hand": "left"
    },
    {
      "midi": 44,
      "time": 169.688,
      "duration": 0.188,
      "velocity": 0.54,
      "hand": "left"
    },
    {
      "midi": 46,
      "time": 169.688,
      "duration": 0.188,
      "velocity": 0.54,
      "hand": "left"
    },
    {
      "midi": 45,
      "time": 169.875,
      "duration": 0.188,
      "velocity": 0.54,
      "hand": "left"
    },
    {
      "midi": 46,
      "time": 170.063,
      "duration": 0.188,
      "velocity": 0.54,
      "hand": "left"
    },
    {
      "midi": 48,
      "time": 170.063,
      "duration": 0.188,
      "velocity": 0.54,
      "hand": "left"
    },
    {
      "midi": 45,
      "time": 170.25,
      "duration": 0.188,
      "velocity": 0.54,
      "hand": "left"
    },
    {
      "midi": 41,
      "time": 170.438,
      "duration": 0.188,
      "velocity": 0.54,
      "hand": "left"
    },
    {
      "midi": 43,
      "time": 170.438,
      "duration": 0.188,
      "velocity": 0.54,
      "hand": "left"
    },
    {
      "midi": 40,
      "time": 170.625,
      "duration": 0.188,
      "velocity": 0.54,
      "hand": "left"
    },
    {
      "midi": 33,
      "time": 170.813,
      "duration": 2.063,
      "velocity": 0.71,
      "hand": "left"
    },
    {
      "midi": 38,
      "time": 170.813,
      "duration": 0.188,
      "velocity": 0.54,
      "hand": "left"
    },
    {
      "midi": 45,
      "time": 171.938,
      "duration": 1.313,
      "velocity": 0.54,
      "hand": "left"
    },
    {
      "midi": 47,
      "time": 173.063,
      "duration": 0.188,
      "velocity": 0.54,
      "hand": "left"
    },
    {
      "midi": 45,
      "time": 173.438,
      "duration": 0.188,
      "velocity": 0.54,
      "hand": "left"
    },
    {
      "midi": 44,
      "time": 173.625,
      "duration": 0.188,
      "velocity": 0.54,
      "hand": "left"
    },
    {
      "midi": 45,
      "time": 173.813,
      "duration": 0.563,
      "velocity": 0.54,
      "hand": "left"
    },
    {
      "midi": 46,
      "time": 174.375,
      "duration": 0.188,
      "velocity": 0.54,
      "hand": "left"
    },
    {
      "midi": 47,
      "time": 174.563,
      "duration": 0.188,
      "velocity": 0.54,
      "hand": "left"
    },
    {
      "midi": 48,
      "time": 174.563,
      "duration": 0.188,
      "velocity": 0.54,
      "hand": "left"
    },
    {
      "midi": 49,
      "time": 174.75,
      "duration": 0.188,
      "velocity": 0.54,
      "hand": "left"
    },
    {
      "midi": 50,
      "time": 174.938,
      "duration": 0.188,
      "velocity": 0.54,
      "hand": "left"
    },
    {
      "midi": 51,
      "time": 174.938,
      "duration": 0.188,
      "velocity": 0.54,
      "hand": "left"
    },
    {
      "midi": 52,
      "time": 175.125,
      "duration": 0.188,
      "velocity": 0.54,
      "hand": "left"
    },
    {
      "midi": 53,
      "time": 175.313,
      "duration": 0.188,
      "velocity": 0.54,
      "hand": "left"
    },
    {
      "midi": 54,
      "time": 175.313,
      "duration": 0.188,
      "velocity": 0.54,
      "hand": "left"
    },
    {
      "midi": 55,
      "time": 175.5,
      "duration": 0.188,
      "velocity": 0.54,
      "hand": "left"
    },
    {
      "midi": 56,
      "time": 175.688,
      "duration": 0.188,
      "velocity": 0.54,
      "hand": "left"
    },
    {
      "midi": 57,
      "time": 175.688,
      "duration": 0.188,
      "velocity": 0.54,
      "hand": "left"
    },
    {
      "midi": 58,
      "time": 175.875,
      "duration": 0.188,
      "velocity": 0.54,
      "hand": "left"
    },
    {
      "midi": 59,
      "time": 176.063,
      "duration": 0.188,
      "velocity": 0.54,
      "hand": "left"
    },
    {
      "midi": 60,
      "time": 176.063,
      "duration": 0.188,
      "velocity": 0.54,
      "hand": "right"
    },
    {
      "midi": 61,
      "time": 176.25,
      "duration": 0.188,
      "velocity": 0.54,
      "hand": "right"
    },
    {
      "midi": 62,
      "time": 176.438,
      "duration": 0.188,
      "velocity": 0.54,
      "hand": "right"
    },
    {
      "midi": 63,
      "time": 176.438,
      "duration": 0.188,
      "velocity": 0.54,
      "hand": "right"
    },
    {
      "midi": 64,
      "time": 176.625,
      "duration": 0.188,
      "velocity": 0.54,
      "hand": "right"
    },
    {
      "midi": 65,
      "time": 176.813,
      "duration": 0.188,
      "velocity": 0.54,
      "hand": "right"
    },
    {
      "midi": 66,
      "time": 176.813,
      "duration": 0.188,
      "velocity": 0.54,
      "hand": "right"
    },
    {
      "midi": 67,
      "time": 177,
      "duration": 0.188,
      "velocity": 0.54,
      "hand": "right"
    },
    {
      "midi": 68,
      "time": 177.188,
      "duration": 0.188,
      "velocity": 0.54,
      "hand": "right"
    },
    {
      "midi": 69,
      "time": 177.188,
      "duration": 0.188,
      "velocity": 0.54,
      "hand": "right"
    },
    {
      "midi": 70,
      "time": 177.375,
      "duration": 0.188,
      "velocity": 0.54,
      "hand": "right"
    },
    {
      "midi": 71,
      "time": 177.563,
      "duration": 0.188,
      "velocity": 0.54,
      "hand": "right"
    },
    {
      "midi": 72,
      "time": 177.563,
      "duration": 0.188,
      "velocity": 0.54,
      "hand": "right"
    },
    {
      "midi": 73,
      "time": 177.75,
      "duration": 0.188,
      "velocity": 0.54,
      "hand": "right"
    },
    {
      "midi": 74,
      "time": 177.938,
      "duration": 0.188,
      "velocity": 0.54,
      "hand": "right"
    },
    {
      "midi": 75,
      "time": 177.938,
      "duration": 0.188,
      "velocity": 0.54,
      "hand": "right"
    },
    {
      "midi": 76,
      "time": 178.125,
      "duration": 0.188,
      "velocity": 0.54,
      "hand": "right"
    },
    {
      "midi": 62,
      "time": 178.313,
      "duration": 2.063,
      "velocity": 0.71,
      "hand": "right"
    },
    {
      "midi": 77,
      "time": 178.313,
      "duration": 1.688,
      "velocity": 0.54,
      "hand": "right"
    },
    {
      "midi": 65,
      "time": 178.688,
      "duration": 0.563,
      "velocity": 0.71,
      "hand": "right"
    },
    {
      "midi": 69,
      "time": 178.688,
      "duration": 0.563,
      "velocity": 0.71,
      "hand": "right"
    },
    {
      "midi": 65,
      "time": 179.25,
      "duration": 0.563,
      "velocity": 0.71,
      "hand": "right"
    },
    {
      "midi": 69,
      "time": 179.25,
      "duration": 0.563,
      "velocity": 0.71,
      "hand": "right"
    },
    {
      "midi": 65,
      "time": 179.813,
      "duration": 0.563,
      "velocity": 0.71,
      "hand": "right"
    },
    {
      "midi": 69,
      "time": 179.813,
      "duration": 0.563,
      "velocity": 0.71,
      "hand": "right"
    },
    {
      "midi": 76,
      "time": 180,
      "duration": 0.188,
      "velocity": 0.54,
      "hand": "right"
    },
    {
      "midi": 62,
      "time": 180.188,
      "duration": 2.063,
      "velocity": 0.71,
      "hand": "right"
    },
    {
      "midi": 77,
      "time": 180.188,
      "duration": 0.188,
      "velocity": 0.54,
      "hand": "right"
    },
    {
      "midi": 79,
      "time": 180.188,
      "duration": 0.563,
      "velocity": 0.54,
      "hand": "right"
    },
    {
      "midi": 65,
      "time": 180.75,
      "duration": 0.563,
      "velocity": 0.71,
      "hand": "right"
    },
    {
      "midi": 69,
      "time": 180.75,
      "duration": 0.563,
      "velocity": 0.71,
      "hand": "right"
    },
    {
      "midi": 77,
      "time": 180.75,
      "duration": 0.563,
      "velocity": 0.54,
      "hand": "right"
    },
    {
      "midi": 65,
      "time": 181.313,
      "duration": 0.563,
      "velocity": 0.71,
      "hand": "right"
    },
    {
      "midi": 69,
      "time": 181.313,
      "duration": 0.563,
      "velocity": 0.71,
      "hand": "right"
    },
    {
      "midi": 76,
      "time": 181.313,
      "duration": 0.563,
      "velocity": 0.54,
      "hand": "right"
    },
    {
      "midi": 65,
      "time": 181.688,
      "duration": 0.563,
      "velocity": 0.71,
      "hand": "right"
    },
    {
      "midi": 69,
      "time": 181.688,
      "duration": 0.563,
      "velocity": 0.71,
      "hand": "right"
    },
    {
      "midi": 74,
      "time": 181.688,
      "duration": 0.563,
      "velocity": 0.54,
      "hand": "right"
    },
    {
      "midi": 64,
      "time": 182.25,
      "duration": 2.063,
      "velocity": 0.71,
      "hand": "right"
    },
    {
      "midi": 73,
      "time": 182.25,
      "duration": 0.938,
      "velocity": 0.54,
      "hand": "right"
    },
    {
      "midi": 67,
      "time": 182.813,
      "duration": 0.563,
      "velocity": 0.71,
      "hand": "right"
    },
    {
      "midi": 69,
      "time": 182.813,
      "duration": 0.563,
      "velocity": 0.71,
      "hand": "right"
    },
    {
      "midi": 67,
      "time": 183.188,
      "duration": 0.563,
      "velocity": 0.71,
      "hand": "right"
    },
    {
      "midi": 69,
      "time": 183.188,
      "duration": 0.563,
      "velocity": 0.71,
      "hand": "right"
    },
    {
      "midi": 67,
      "time": 183.75,
      "duration": 0.563,
      "velocity": 0.71,
      "hand": "right"
    },
    {
      "midi": 69,
      "time": 183.75,
      "duration": 0.563,
      "velocity": 0.71,
      "hand": "right"
    },
    {
      "midi": 74,
      "time": 183.938,
      "duration": 0.188,
      "velocity": 0.54,
      "hand": "right"
    },
    {
      "midi": 64,
      "time": 184.313,
      "duration": 2.063,
      "velocity": 0.71,
      "hand": "right"
    },
    {
      "midi": 75,
      "time": 184.313,
      "duration": 0.563,
      "velocity": 0.54,
      "hand": "right"
    },
    {
      "midi": 67,
      "time": 184.688,
      "duration": 0.563,
      "velocity": 0.71,
      "hand": "right"
    },
    {
      "midi": 69,
      "time": 184.688,
      "duration": 0.563,
      "velocity": 0.71,
      "hand": "right"
    },
    {
      "midi": 76,
      "time": 184.688,
      "duration": 0.563,
      "velocity": 0.54,
      "hand": "right"
    },
    {
      "midi": 67,
      "time": 185.25,
      "duration": 0.563,
      "velocity": 0.71,
      "hand": "right"
    },
    {
      "midi": 69,
      "time": 185.25,
      "duration": 0.563,
      "velocity": 0.71,
      "hand": "right"
    },
    {
      "midi": 67,
      "time": 185.813,
      "duration": 0.563,
      "velocity": 0.71,
      "hand": "right"
    },
    {
      "midi": 69,
      "time": 185.813,
      "duration": 0.563,
      "velocity": 0.71,
      "hand": "right"
    },
    {
      "midi": 61,
      "time": 186.188,
      "duration": 2.063,
      "velocity": 0.71,
      "hand": "right"
    },
    {
      "midi": 79,
      "time": 186.188,
      "duration": 1.688,
      "velocity": 0.54,
      "hand": "right"
    },
    {
      "midi": 64,
      "time": 186.75,
      "duration": 0.563,
      "velocity": 0.71,
      "hand": "right"
    },
    {
      "midi": 69,
      "time": 186.75,
      "duration": 0.563,
      "velocity": 0.71,
      "hand": "right"
    },
    {
      "midi": 64,
      "time": 187.313,
      "duration": 0.563,
      "velocity": 0.71,
      "hand": "right"
    },
    {
      "midi": 69,
      "time": 187.313,
      "duration": 0.563,
      "velocity": 0.71,
      "hand": "right"
    },
    {
      "midi": 64,
      "time": 187.688,
      "duration": 0.563,
      "velocity": 0.71,
      "hand": "right"
    },
    {
      "midi": 69,
      "time": 187.688,
      "duration": 0.563,
      "velocity": 0.71,
      "hand": "right"
    },
    {
      "midi": 78,
      "time": 188.063,
      "duration": 0.188,
      "velocity": 0.54,
      "hand": "right"
    },
    {
      "midi": 79,
      "time": 188.063,
      "duration": 0.188,
      "velocity": 0.54,
      "hand": "right"
    },
    {
      "midi": 61,
      "time": 188.25,
      "duration": 2.063,
      "velocity": 0.71,
      "hand": "right"
    },
    {
      "midi": 81,
      "time": 188.25,
      "duration": 0.563,
      "velocity": 0.54,
      "hand": "right"
    },
    {
      "midi": 64,
      "time": 188.813,
      "duration": 0.563,
      "velocity": 0.71,
      "hand": "right"
    },
    {
      "midi": 69,
      "time": 188.813,
      "duration": 0.563,
      "velocity": 0.71,
      "hand": "right"
    },
    {
      "midi": 79,
      "time": 188.813,
      "duration": 0.563,
      "velocity": 0.54,
      "hand": "right"
    },
    {
      "midi": 64,
      "time": 189.188,
      "duration": 0.563,
      "velocity": 0.71,
      "hand": "right"
    },
    {
      "midi": 69,
      "time": 189.188,
      "duration": 0.563,
      "velocity": 0.71,
      "hand": "right"
    },
    {
      "midi": 77,
      "time": 189.188,
      "duration": 0.563,
      "velocity": 0.54,
      "hand": "right"
    },
    {
      "midi": 64,
      "time": 189.75,
      "duration": 0.563,
      "velocity": 0.71,
      "hand": "right"
    },
    {
      "midi": 69,
      "time": 189.75,
      "duration": 0.563,
      "velocity": 0.71,
      "hand": "right"
    },
    {
      "midi": 76,
      "time": 189.75,
      "duration": 0.563,
      "velocity": 0.54,
      "hand": "right"
    },
    {
      "midi": 62,
      "time": 190.313,
      "duration": 2.063,
      "velocity": 0.71,
      "hand": "right"
    },
    {
      "midi": 74,
      "time": 190.313,
      "duration": 0.938,
      "velocity": 0.54,
      "hand": "right"
    },
    {
      "midi": 65,
      "time": 190.688,
      "duration": 0.563,
      "velocity": 0.71,
      "hand": "right"
    },
    {
      "midi": 69,
      "time": 190.688,
      "duration": 0.563,
      "velocity": 0.71,
      "hand": "right"
    },
    {
      "midi": 65,
      "time": 191.25,
      "duration": 0.563,
      "velocity": 0.71,
      "hand": "right"
    },
    {
      "midi": 69,
      "time": 191.25,
      "duration": 0.563,
      "velocity": 0.71,
      "hand": "right"
    },
    {
      "midi": 65,
      "time": 191.813,
      "duration": 0.563,
      "velocity": 0.71,
      "hand": "right"
    },
    {
      "midi": 69,
      "time": 191.813,
      "duration": 0.563,
      "velocity": 0.71,
      "hand": "right"
    },
    {
      "midi": 76,
      "time": 192,
      "duration": 0.188,
      "velocity": 0.54,
      "hand": "right"
    },
    {
      "midi": 62,
      "time": 192.188,
      "duration": 2.063,
      "velocity": 0.71,
      "hand": "right"
    },
    {
      "midi": 79,
      "time": 192.188,
      "duration": 0.563,
      "velocity": 0.54,
      "hand": "right"
    },
    {
      "midi": 65,
      "time": 192.75,
      "duration": 0.563,
      "velocity": 0.71,
      "hand": "right"
    },
    {
      "midi": 69,
      "time": 192.75,
      "duration": 0.563,
      "velocity": 0.71,
      "hand": "right"
    },
    {
      "midi": 77,
      "time": 192.75,
      "duration": 0.563,
      "velocity": 0.54,
      "hand": "right"
    },
    {
      "midi": 65,
      "time": 193.313,
      "duration": 0.563,
      "velocity": 0.71,
      "hand": "right"
    },
    {
      "midi": 69,
      "time": 193.313,
      "duration": 0.563,
      "velocity": 0.71,
      "hand": "right"
    },
    {
      "midi": 65,
      "time": 193.688,
      "duration": 0.563,
      "velocity": 0.71,
      "hand": "right"
    },
    {
      "midi": 69,
      "time": 193.688,
      "duration": 0.563,
      "velocity": 0.71,
      "hand": "right"
    },
    {
      "midi": 69,
      "time": 194.25,
      "duration": 2.063,
      "velocity": 0.75,
      "hand": "right"
    },
    {
      "midi": 81,
      "time": 194.25,
      "duration": 2.063,
      "velocity": 0.75,
      "hand": "right"
    },
    {
      "midi": 53,
      "time": 195.188,
      "duration": 0.938,
      "velocity": 0.71,
      "hand": "left"
    },
    {
      "midi": 57,
      "time": 195.188,
      "duration": 0.938,
      "velocity": 0.71,
      "hand": "left"
    },
    {
      "midi": 62,
      "time": 195.188,
      "duration": 0.938,
      "velocity": 0.71,
      "hand": "right"
    },
    {
      "midi": 52,
      "time": 196.313,
      "duration": 0.563,
      "velocity": 0.71,
      "hand": "left"
    },
    {
      "midi": 55,
      "time": 196.313,
      "duration": 0.563,
      "velocity": 0.71,
      "hand": "left"
    },
    {
      "midi": 61,
      "time": 196.313,
      "duration": 0.563,
      "velocity": 0.71,
      "hand": "right"
    },
    {
      "midi": 70,
      "time": 196.313,
      "duration": 0.563,
      "velocity": 0.75,
      "hand": "right"
    },
    {
      "midi": 82,
      "time": 196.313,
      "duration": 0.563,
      "velocity": 0.75,
      "hand": "right"
    },
    {
      "midi": 81,
      "time": 198.188,
      "duration": 0.75,
      "velocity": 0.54,
      "hand": "right"
    },
    {
      "midi": 86,
      "time": 198.938,
      "duration": 0.188,
      "velocity": 0.54,
      "hand": "right"
    },
    {
      "midi": 65,
      "time": 199.313,
      "duration": 0.938,
      "velocity": 0.71,
      "hand": "right"
    },
    {
      "midi": 74,
      "time": 199.313,
      "duration": 0.938,
      "velocity": 0.71,
      "hand": "right"
    },
    {
      "midi": 85,
      "time": 199.313,
      "duration": 0.375,
      "velocity": 0.54,
      "hand": "right"
    },
    {
      "midi": 84,
      "time": 199.5,
      "duration": 0.375,
      "velocity": 0.54,
      "hand": "right"
    },
    {
      "midi": 83,
      "time": 199.875,
      "duration": 0.375,
      "velocity": 0.54,
      "hand": "right"
    },
    {
      "midi": 67,
      "time": 200.25,
      "duration": 0.938,
      "velocity": 0.71,
      "hand": "right"
    },
    {
      "midi": 73,
      "time": 200.25,
      "duration": 0.938,
      "velocity": 0.71,
      "hand": "right"
    },
    {
      "midi": 82,
      "time": 200.25,
      "duration": 0.938,
      "velocity": 0.54,
      "hand": "right"
    },
    {
      "midi": 65,
      "time": 201.938,
      "duration": 0.188,
      "velocity": 0.71,
      "hand": "right"
    },
    {
      "midi": 74,
      "time": 201.938,
      "duration": 0.188,
      "velocity": 0.71,
      "hand": "right"
    },
    {
      "midi": 81,
      "time": 201.938,
      "duration": 0.188,
      "velocity": 0.54,
      "hand": "right"
    },
    {
      "midi": 64,
      "time": 202.313,
      "duration": 0.938,
      "velocity": 0.71,
      "hand": "right"
    },
    {
      "midi": 74,
      "time": 202.313,
      "duration": 0.938,
      "velocity": 0.71,
      "hand": "right"
    },
    {
      "midi": 81,
      "time": 202.313,
      "duration": 0.563,
      "velocity": 0.54,
      "hand": "right"
    },
    {
      "midi": 80,
      "time": 202.688,
      "duration": 0.563,
      "velocity": 0.54,
      "hand": "right"
    },
    {
      "midi": 80,
      "time": 204,
      "duration": 0.188,
      "velocity": 0.54,
      "hand": "right"
    },
    {
      "midi": 69,
      "time": 204.188,
      "duration": 0.938,
      "velocity": 0.71,
      "hand": "right"
    },
    {
      "midi": 73,
      "time": 204.188,
      "duration": 0.938,
      "velocity": 0.71,
      "hand": "right"
    },
    {
      "midi": 88,
      "time": 204.188,
      "duration": 0.563,
      "velocity": 0.54,
      "hand": "right"
    },
    {
      "midi": 79,
      "time": 204.75,
      "duration": 0.563,
      "velocity": 0.54,
      "hand": "right"
    },
    {
      "midi": 79,
      "time": 206.063,
      "duration": 0.188,
      "velocity": 0.54,
      "hand": "right"
    },
    {
      "midi": 70,
      "time": 206.25,
      "duration": 0.938,
      "velocity": 0.71,
      "hand": "right"
    },
    {
      "midi": 74,
      "time": 206.25,
      "duration": 0.938,
      "velocity": 0.71,
      "hand": "right"
    },
    {
      "midi": 76,
      "time": 206.25,
      "duration": 0.563,
      "velocity": 0.54,
      "hand": "right"
    },
    {
      "midi": 77,
      "time": 206.813,
      "duration": 0.563,
      "velocity": 0.54,
      "hand": "right"
    },
    {
      "midi": 77,
      "time": 207.938,
      "duration": 0.188,
      "velocity": 0.54,
      "hand": "right"
    },
    {
      "midi": 55,
      "time": 208.313,
      "duration": 3,
      "velocity": 0.71,
      "hand": "left"
    },
    {
      "midi": 58,
      "time": 208.313,
      "duration": 3,
      "velocity": 0.71,
      "hand": "left"
    },
    {
      "midi": 63,
      "time": 208.313,
      "duration": 3,
      "velocity": 0.71,
      "hand": "right"
    },
    {
      "midi": 75,
      "time": 208.313,
      "duration": 1.688,
      "velocity": 0.75,
      "hand": "right"
    },
    {
      "midi": 75,
      "time": 209.813,
      "duration": 0.094,
      "velocity": 0.75,
      "hand": "right"
    },
    {
      "midi": 77,
      "time": 209.813,
      "duration": 0.094,
      "velocity": 0.75,
      "hand": "right"
    },
    {
      "midi": 74,
      "time": 210,
      "duration": 0.094,
      "velocity": 0.75,
      "hand": "right"
    },
    {
      "midi": 75,
      "time": 210,
      "duration": 0.094,
      "velocity": 0.75,
      "hand": "right"
    },
    {
      "midi": 77,
      "time": 210,
      "duration": 0.188,
      "velocity": 0.54,
      "hand": "right"
    },
    {
      "midi": 79,
      "time": 210.188,
      "duration": 0.563,
      "velocity": 0.54,
      "hand": "right"
    },
    {
      "midi": 78,
      "time": 210.938,
      "duration": 0.094,
      "velocity": 0.54,
      "hand": "right"
    },
    {
      "midi": 79,
      "time": 210.938,
      "duration": 0.094,
      "velocity": 0.54,
      "hand": "right"
    },
    {
      "midi": 81,
      "time": 210.938,
      "duration": 0.094,
      "velocity": 0.54,
      "hand": "right"
    },
    {
      "midi": 81,
      "time": 210.938,
      "duration": 0.188,
      "velocity": 0.54,
      "hand": "right"
    },
    {
      "midi": 82,
      "time": 211.313,
      "duration": 0.563,
      "velocity": 0.54,
      "hand": "right"
    },
    {
      "midi": 44,
      "time": 212.25,
      "duration": 0.188,
      "velocity": 0.75,
      "hand": "left"
    },
    {
      "midi": 47,
      "time": 212.438,
      "duration": 0.188,
      "velocity": 0.75,
      "hand": "left"
    },
    {
      "midi": 50,
      "time": 212.438,
      "duration": 0.188,
      "velocity": 0.75,
      "hand": "left"
    },
    {
      "midi": 53,
      "time": 212.625,
      "duration": 0.188,
      "velocity": 0.75,
      "hand": "left"
    },
    {
      "midi": 56,
      "time": 212.813,
      "duration": 0.188,
      "velocity": 0.54,
      "hand": "left"
    },
    {
      "midi": 59,
      "time": 212.813,
      "duration": 0.188,
      "velocity": 0.54,
      "hand": "left"
    },
    {
      "midi": 62,
      "time": 213,
      "duration": 0.188,
      "velocity": 0.54,
      "hand": "right"
    },
    {
      "midi": 65,
      "time": 213.188,
      "duration": 0.188,
      "velocity": 0.54,
      "hand": "right"
    },
    {
      "midi": 68,
      "time": 213.188,
      "duration": 0.188,
      "velocity": 0.75,
      "hand": "right"
    },
    {
      "midi": 71,
      "time": 213.375,
      "duration": 0.188,
      "velocity": 0.75,
      "hand": "right"
    },
    {
      "midi": 74,
      "time": 213.563,
      "duration": 0.188,
      "velocity": 0.75,
      "hand": "right"
    },
    {
      "midi": 77,
      "time": 213.563,
      "duration": 0.188,
      "velocity": 0.75,
      "hand": "right"
    },
    {
      "midi": 80,
      "time": 213.75,
      "duration": 0.188,
      "velocity": 0.54,
      "hand": "right"
    },
    {
      "midi": 83,
      "time": 213.938,
      "duration": 0.188,
      "velocity": 0.54,
      "hand": "right"
    },
    {
      "midi": 86,
      "time": 213.938,
      "duration": 0.188,
      "velocity": 0.54,
      "hand": "right"
    },
    {
      "midi": 89,
      "time": 214.125,
      "duration": 0.188,
      "velocity": 0.54,
      "hand": "right"
    },
    {
      "midi": 57,
      "time": 214.5,
      "duration": 0.563,
      "velocity": 0.75,
      "hand": "left"
    },
    {
      "midi": 65,
      "time": 214.5,
      "duration": 0.563,
      "velocity": 0.75,
      "hand": "right"
    },
    {
      "midi": 69,
      "time": 214.5,
      "duration": 0.563,
      "velocity": 0.54,
      "hand": "right"
    },
    {
      "midi": 74,
      "time": 214.5,
      "duration": 0.563,
      "velocity": 0.54,
      "hand": "right"
    },
    {
      "midi": 81,
      "time": 214.5,
      "duration": 0.563,
      "velocity": 0.54,
      "hand": "right"
    },
    {
      "midi": 33,
      "time": 216.563,
      "duration": 0.563,
      "velocity": 0.75,
      "hand": "left"
    },
    {
      "midi": 45,
      "time": 216.563,
      "duration": 0.563,
      "velocity": 0.75,
      "hand": "left"
    },
    {
      "midi": 52,
      "time": 216.563,
      "duration": 0.563,
      "velocity": 0.54,
      "hand": "left"
    },
    {
      "midi": 55,
      "time": 216.563,
      "duration": 0.563,
      "velocity": 0.54,
      "hand": "left"
    },
    {
      "midi": 61,
      "time": 216.563,
      "duration": 0.563,
      "velocity": 0.54,
      "hand": "right"
    },
    {
      "midi": 62,
      "time": 218.438,
      "duration": 0.938,
      "velocity": 0.75,
      "hand": "right"
    },
    {
      "midi": 66,
      "time": 218.438,
      "duration": 0.938,
      "velocity": 0.75,
      "hand": "right"
    },
    {
      "midi": 69,
      "time": 218.438,
      "duration": 0.563,
      "velocity": 0.54,
      "hand": "right"
    },
    {
      "midi": 78,
      "time": 219,
      "duration": 0.188,
      "velocity": 0.54,
      "hand": "right"
    },
    {
      "midi": 74,
      "time": 219.188,
      "duration": 0.188,
      "velocity": 0.54,
      "hand": "right"
    },
    {
      "midi": 62,
      "time": 219.563,
      "duration": 2.063,
      "velocity": 0.75,
      "hand": "right"
    },
    {
      "midi": 67,
      "time": 219.563,
      "duration": 2.063,
      "velocity": 0.75,
      "hand": "right"
    },
    {
      "midi": 73,
      "time": 219.563,
      "duration": 0.563,
      "velocity": 0.54,
      "hand": "right"
    },
    {
      "midi": 71,
      "time": 219.938,
      "duration": 0.188,
      "velocity": 0.54,
      "hand": "right"
    },
    {
      "midi": 76,
      "time": 220.313,
      "duration": 0.188,
      "velocity": 0.54,
      "hand": "right"
    },
    {
      "midi": 79,
      "time": 220.313,
      "duration": 0.188,
      "velocity": 0.54,
      "hand": "right"
    },
    {
      "midi": 64,
      "time": 220.5,
      "duration": 0.938,
      "velocity": 0.75,
      "hand": "right"
    },
    {
      "midi": 74,
      "time": 220.5,
      "duration": 0.188,
      "velocity": 0.71,
      "hand": "right"
    },
    {
      "midi": 73,
      "time": 220.688,
      "duration": 0.75,
      "velocity": 0.71,
      "hand": "right"
    },
    {
      "midi": 83,
      "time": 221.063,
      "duration": 0.188,
      "velocity": 0.71,
      "hand": "right"
    },
    {
      "midi": 81,
      "time": 221.25,
      "duration": 0.188,
      "velocity": 0.71,
      "hand": "right"
    },
    {
      "midi": 62,
      "time": 221.438,
      "duration": 0.563,
      "velocity": 0.75,
      "hand": "right"
    },
    {
      "midi": 66,
      "time": 221.438,
      "duration": 0.563,
      "velocity": 0.75,
      "hand": "right"
    },
    {
      "midi": 74,
      "time": 221.438,
      "duration": 0.563,
      "velocity": 0.71,
      "hand": "right"
    },
    {
      "midi": 81,
      "time": 221.438,
      "duration": 0.375,
      "velocity": 0.71,
      "hand": "right"
    },
    {
      "midi": 83,
      "time": 221.813,
      "duration": 0.094,
      "velocity": 0.71,
      "hand": "right"
    },
    {
      "midi": 78,
      "time": 222,
      "duration": 0.188,
      "velocity": 0.71,
      "hand": "right"
    },
    {
      "midi": 79,
      "time": 222,
      "duration": 0.094,
      "velocity": 0.71,
      "hand": "right"
    },
    {
      "midi": 81,
      "time": 222.188,
      "duration": 0.188,
      "velocity": 0.71,
      "hand": "right"
    },
    {
      "midi": 78,
      "time": 222.375,
      "duration": 0.188,
      "velocity": 0.71,
      "hand": "right"
    },
    {
      "midi": 68,
      "time": 222.563,
      "duration": 0.188,
      "velocity": 0.75,
      "hand": "right"
    },
    {
      "midi": 74,
      "time": 222.563,
      "duration": 0.188,
      "velocity": 0.75,
      "hand": "right"
    },
    {
      "midi": 76,
      "time": 222.563,
      "duration": 0.188,
      "velocity": 0.54,
      "hand": "right"
    },
    {
      "midi": 68,
      "time": 222.75,
      "duration": 0.188,
      "velocity": 0.75,
      "hand": "right"
    },
    {
      "midi": 74,
      "time": 222.75,
      "duration": 0.188,
      "velocity": 0.75,
      "hand": "right"
    },
    {
      "midi": 76,
      "time": 222.75,
      "duration": 0.188,
      "velocity": 0.54,
      "hand": "right"
    },
    {
      "midi": 68,
      "time": 222.938,
      "duration": 0.188,
      "velocity": 0.75,
      "hand": "right"
    },
    {
      "midi": 74,
      "time": 222.938,
      "duration": 0.188,
      "velocity": 0.75,
      "hand": "right"
    },
    {
      "midi": 76,
      "time": 222.938,
      "duration": 0.188,
      "velocity": 0.54,
      "hand": "right"
    },
    {
      "midi": 68,
      "time": 223.313,
      "duration": 0.188,
      "velocity": 0.75,
      "hand": "right"
    },
    {
      "midi": 74,
      "time": 223.313,
      "duration": 0.188,
      "velocity": 0.75,
      "hand": "right"
    },
    {
      "midi": 76,
      "time": 223.313,
      "duration": 0.188,
      "velocity": 0.54,
      "hand": "right"
    },
    {
      "midi": 69,
      "time": 223.5,
      "duration": 0.188,
      "velocity": 0.75,
      "hand": "right"
    },
    {
      "midi": 73,
      "time": 223.5,
      "duration": 0.188,
      "velocity": 0.75,
      "hand": "right"
    },
    {
      "midi": 76,
      "time": 223.5,
      "duration": 0.188,
      "velocity": 0.54,
      "hand": "right"
    },
    {
      "midi": 81,
      "time": 223.688,
      "duration": 0.188,
      "velocity": 0.54,
      "hand": "right"
    },
    {
      "midi": 62,
      "time": 224.063,
      "duration": 0.188,
      "velocity": 0.75,
      "hand": "right"
    },
    {
      "midi": 66,
      "time": 224.063,
      "duration": 0.188,
      "velocity": 0.75,
      "hand": "right"
    },
    {
      "midi": 71,
      "time": 224.063,
      "duration": 0.188,
      "velocity": 0.54,
      "hand": "right"
    },
    {
      "midi": 78,
      "time": 224.25,
      "duration": 0.188,
      "velocity": 0.54,
      "hand": "right"
    },
    {
      "midi": 52,
      "time": 224.438,
      "duration": 0.938,
      "velocity": 0.71,
      "hand": "left"
    },
    {
      "midi": 61,
      "time": 224.438,
      "duration": 0.563,
      "velocity": 0.71,
      "hand": "right"
    },
    {
      "midi": 69,
      "time": 224.438,
      "duration": 0.563,
      "velocity": 0.54,
      "hand": "right"
    },
    {
      "midi": 62,
      "time": 225,
      "duration": 0.563,
      "velocity": 0.71,
      "hand": "right"
    },
    {
      "midi": 68,
      "time": 225,
      "duration": 0.563,
      "velocity": 0.71,
      "hand": "right"
    },
    {
      "midi": 73,
      "time": 225,
      "duration": 0.375,
      "velocity": 0.71,
      "hand": "right"
    },
    {
      "midi": 71,
      "time": 225.375,
      "duration": 0.188,
      "velocity": 0.71,
      "hand": "right"
    },
    {
      "midi": 57,
      "time": 225.563,
      "duration": 0.563,
      "velocity": 0.75,
      "hand": "left"
    },
    {
      "midi": 61,
      "time": 225.563,
      "duration": 0.563,
      "velocity": 0.75,
      "hand": "right"
    },
    {
      "midi": 69,
      "time": 225.563,
      "duration": 0.563,
      "velocity": 0.71,
      "hand": "right"
    },
    {
      "midi": 74,
      "time": 226.5,
      "duration": 0.563,
      "velocity": 0.54,
      "hand": "right"
    },
    {
      "midi": 54,
      "time": 226.688,
      "duration": 0.188,
      "velocity": 0.75,
      "hand": "left"
    },
    {
      "midi": 57,
      "time": 226.688,
      "duration": 0.188,
      "velocity": 0.75,
      "hand": "left"
    },
    {
      "midi": 52,
      "time": 227.063,
      "duration": 0.188,
      "velocity": 0.75,
      "hand": "left"
    },
    {
      "midi": 55,
      "time": 227.063,
      "duration": 0.188,
      "velocity": 0.75,
      "hand": "left"
    },
    {
      "midi": 76,
      "time": 227.063,
      "duration": 0.188,
      "velocity": 0.54,
      "hand": "right"
    },
    {
      "midi": 50,
      "time": 227.25,
      "duration": 0.188,
      "velocity": 0.75,
      "hand": "left"
    },
    {
      "midi": 54,
      "time": 227.25,
      "duration": 0.188,
      "velocity": 0.75,
      "hand": "left"
    },
    {
      "midi": 78,
      "time": 227.25,
      "duration": 0.188,
      "velocity": 0.54,
      "hand": "right"
    },
    {
      "midi": 55,
      "time": 227.438,
      "duration": 0.938,
      "velocity": 0.71,
      "hand": "left"
    },
    {
      "midi": 62,
      "time": 227.438,
      "duration": 0.188,
      "velocity": 0.71,
      "hand": "right"
    },
    {
      "midi": 71,
      "time": 227.438,
      "duration": 0.75,
      "velocity": 0.54,
      "hand": "right"
    },
    {
      "midi": 63,
      "time": 227.813,
      "duration": 0.188,
      "velocity": 0.71,
      "hand": "right"
    },
    {
      "midi": 64,
      "time": 228,
      "duration": 0.188,
      "velocity": 0.71,
      "hand": "right"
    },
    {
      "midi": 73,
      "time": 228.188,
      "duration": 0.188,
      "velocity": 0.54,
      "hand": "right"
    },
    {
      "midi": 75,
      "time": 228.375,
      "duration": 0.188,
      "velocity": 0.54,
      "hand": "right"
    },
    {
      "midi": 76,
      "time": 228.563,
      "duration": 0.188,
      "velocity": 0.54,
      "hand": "right"
    },
    {
      "midi": 78,
      "time": 228.563,
      "duration": 0.188,
      "velocity": 0.54,
      "hand": "right"
    },
    {
      "midi": 79,
      "time": 228.75,
      "duration": 0.188,
      "velocity": 0.54,
      "hand": "right"
    },
    {
      "midi": 81,
      "time": 228.938,
      "duration": 0.188,
      "velocity": 0.54,
      "hand": "right"
    },
    {
      "midi": 83,
      "time": 228.938,
      "duration": 0.188,
      "velocity": 0.54,
      "hand": "right"
    },
    {
      "midi": 56,
      "time": 229.313,
      "duration": 0.188,
      "velocity": 0.75,
      "hand": "left"
    },
    {
      "midi": 65,
      "time": 229.313,
      "duration": 0.188,
      "velocity": 0.75,
      "hand": "right"
    },
    {
      "midi": 83,
      "time": 229.313,
      "duration": 0.188,
      "velocity": 0.54,
      "hand": "right"
    },
    {
      "midi": 57,
      "time": 229.5,
      "duration": 0.75,
      "velocity": 0.71,
      "hand": "left"
    },
    {
      "midi": 66,
      "time": 229.5,
      "duration": 0.563,
      "velocity": 0.71,
      "hand": "right"
    },
    {
      "midi": 74,
      "time": 229.5,
      "duration": 0.563,
      "velocity": 0.54,
      "hand": "right"
    },
    {
      "midi": 64,
      "time": 230.063,
      "duration": 0.188,
      "velocity": 0.71,
      "hand": "right"
    },
    {
      "midi": 73,
      "time": 230.063,
      "duration": 0.188,
      "velocity": 0.54,
      "hand": "right"
    },
    {
      "midi": 81,
      "time": 230.25,
      "duration": 0.188,
      "velocity": 0.54,
      "hand": "right"
    },
    {
      "midi": 59,
      "time": 230.438,
      "duration": 0.938,
      "velocity": 0.75,
      "hand": "left"
    },
    {
      "midi": 62,
      "time": 230.438,
      "duration": 0.938,
      "velocity": 0.75,
      "hand": "right"
    },
    {
      "midi": 80,
      "time": 230.438,
      "duration": 0.188,
      "velocity": 0.54,
      "hand": "right"
    },
    {
      "midi": 86,
      "time": 230.813,
      "duration": 0.188,
      "velocity": 0.54,
      "hand": "right"
    },
    {
      "midi": 83,
      "time": 231,
      "duration": 0.188,
      "velocity": 0.54,
      "hand": "right"
    },
    {
      "midi": 80,
      "time": 231.188,
      "duration": 0.188,
      "velocity": 0.54,
      "hand": "right"
    },
    {
      "midi": 57,
      "time": 231.563,
      "duration": 0.188,
      "velocity": 0.71,
      "hand": "left"
    },
    {
      "midi": 61,
      "time": 231.563,
      "duration": 0.563,
      "velocity": 0.71,
      "hand": "right"
    },
    {
      "midi": 88,
      "time": 231.563,
      "duration": 0.188,
      "velocity": 0.54,
      "hand": "right"
    },
    {
      "midi": 58,
      "time": 231.75,
      "duration": 0.188,
      "velocity": 0.71,
      "hand": "left"
    },
    {
      "midi": 79,
      "time": 231.75,
      "duration": 0.188,
      "velocity": 0.54,
      "hand": "right"
    },
    {
      "midi": 59,
      "time": 231.938,
      "duration": 0.188,
      "velocity": 0.71,
      "hand": "left"
    },
    {
      "midi": 62,
      "time": 231.938,
      "duration": 0.375,
      "velocity": 0.71,
      "hand": "right"
    },
    {
      "midi": 78,
      "time": 231.938,
      "duration": 0.188,
      "velocity": 0.54,
      "hand": "right"
    },
    {
      "midi": 55,
      "time": 232.313,
      "duration": 0.188,
      "velocity": 0.71,
      "hand": "left"
    },
    {
      "midi": 83,
      "time": 232.313,
      "duration": 0.188,
      "velocity": 0.54,
      "hand": "right"
    },
    {
      "midi": 57,
      "time": 232.5,
      "duration": 0.938,
      "velocity": 0.71,
      "hand": "left"
    },
    {
      "midi": 66,
      "time": 232.5,
      "duration": 0.563,
      "velocity": 0.71,
      "hand": "right"
    },
    {
      "midi": 67,
      "time": 232.5,
      "duration": 0.094,
      "velocity": 0.71,
      "hand": "right"
    },
    {
      "midi": 74,
      "time": 232.5,
      "duration": 0.563,
      "velocity": 0.54,
      "hand": "right"
    },
    {
      "midi": 67,
      "time": 233.063,
      "duration": 0.563,
      "velocity": 0.71,
      "hand": "right"
    },
    {
      "midi": 73,
      "time": 233.063,
      "duration": 0.563,
      "velocity": 0.71,
      "hand": "right"
    },
    {
      "midi": 78,
      "time": 233.063,
      "duration": 0.375,
      "velocity": 0.71,
      "hand": "right"
    },
    {
      "midi": 62,
      "time": 233.438,
      "duration": 0.563,
      "velocity": 0.75,
      "hand": "right"
    },
    {
      "midi": 66,
      "time": 233.438,
      "duration": 0.563,
      "velocity": 0.75,
      "hand": "right"
    },
    {
      "midi": 74,
      "time": 233.438,
      "duration": 0.563,
      "velocity": 0.71,
      "hand": "right"
    },
    {
      "midi": 76,
      "time": 233.438,
      "duration": 0.188,
      "velocity": 0.71,
      "hand": "right"
    },
    {
      "midi": 62,
      "time": 234.563,
      "duration": 0.188,
      "velocity": 0.75,
      "hand": "right"
    },
    {
      "midi": 69,
      "time": 234.563,
      "duration": 0.188,
      "velocity": 0.75,
      "hand": "right"
    },
    {
      "midi": 74,
      "time": 234.563,
      "duration": 0.563,
      "velocity": 0.71,
      "hand": "right"
    },
    {
      "midi": 66,
      "time": 234.75,
      "duration": 0.188,
      "velocity": 0.75,
      "hand": "right"
    },
    {
      "midi": 66,
      "time": 234.938,
      "duration": 0.188,
      "velocity": 0.75,
      "hand": "right"
    },
    {
      "midi": 69,
      "time": 234.938,
      "duration": 0.188,
      "velocity": 0.75,
      "hand": "right"
    },
    {
      "midi": 69,
      "time": 235.125,
      "duration": 0.188,
      "velocity": 0.75,
      "hand": "right"
    },
    {
      "midi": 66,
      "time": 235.313,
      "duration": 0.188,
      "velocity": 0.75,
      "hand": "right"
    },
    {
      "midi": 69,
      "time": 235.313,
      "duration": 0.188,
      "velocity": 0.75,
      "hand": "right"
    },
    {
      "midi": 74,
      "time": 235.313,
      "duration": 0.188,
      "velocity": 0.54,
      "hand": "right"
    },
    {
      "midi": 67,
      "time": 235.5,
      "duration": 0.188,
      "velocity": 0.75,
      "hand": "right"
    },
    {
      "midi": 73,
      "time": 235.5,
      "duration": 0.188,
      "velocity": 0.54,
      "hand": "right"
    },
    {
      "midi": 69,
      "time": 235.688,
      "duration": 0.188,
      "velocity": 0.75,
      "hand": "right"
    },
    {
      "midi": 73,
      "time": 235.688,
      "duration": 0.188,
      "velocity": 0.75,
      "hand": "right"
    },
    {
      "midi": 81,
      "time": 235.688,
      "duration": 0.188,
      "velocity": 0.54,
      "hand": "right"
    },
    {
      "midi": 69,
      "time": 235.875,
      "duration": 0.188,
      "velocity": 0.75,
      "hand": "right"
    },
    {
      "midi": 67,
      "time": 236.063,
      "duration": 0.188,
      "velocity": 0.75,
      "hand": "right"
    },
    {
      "midi": 69,
      "time": 236.063,
      "duration": 0.188,
      "velocity": 0.75,
      "hand": "right"
    },
    {
      "midi": 81,
      "time": 236.063,
      "duration": 0.188,
      "velocity": 0.54,
      "hand": "right"
    },
    {
      "midi": 73,
      "time": 236.25,
      "duration": 0.188,
      "velocity": 0.75,
      "hand": "right"
    },
    {
      "midi": 81,
      "time": 236.25,
      "duration": 0.188,
      "velocity": 0.54,
      "hand": "right"
    },
    {
      "midi": 66,
      "time": 236.438,
      "duration": 0.188,
      "velocity": 0.75,
      "hand": "right"
    },
    {
      "midi": 69,
      "time": 236.438,
      "duration": 0.188,
      "velocity": 0.75,
      "hand": "right"
    },
    {
      "midi": 81,
      "time": 236.438,
      "duration": 0.375,
      "velocity": 0.54,
      "hand": "right"
    },
    {
      "midi": 69,
      "time": 236.625,
      "duration": 0.188,
      "velocity": 0.75,
      "hand": "right"
    },
    {
      "midi": 69,
      "time": 236.813,
      "duration": 0.188,
      "velocity": 0.75,
      "hand": "right"
    },
    {
      "midi": 74,
      "time": 236.813,
      "duration": 0.188,
      "velocity": 0.75,
      "hand": "right"
    },
    {
      "midi": 83,
      "time": 236.813,
      "duration": 0.094,
      "velocity": 0.54,
      "hand": "right"
    },
    {
      "midi": 66,
      "time": 237,
      "duration": 0.188,
      "velocity": 0.75,
      "hand": "right"
    },
    {
      "midi": 85,
      "time": 237,
      "duration": 0.094,
      "velocity": 0.54,
      "hand": "right"
    },
    {
      "midi": 86,
      "time": 237,
      "duration": 0.188,
      "velocity": 0.54,
      "hand": "right"
    },
    {
      "midi": 66,
      "time": 237.188,
      "duration": 0.188,
      "velocity": 0.75,
      "hand": "right"
    },
    {
      "midi": 69,
      "time": 237.188,
      "duration": 0.188,
      "velocity": 0.75,
      "hand": "right"
    },
    {
      "midi": 74,
      "time": 237.188,
      "duration": 0.188,
      "velocity": 0.54,
      "hand": "right"
    },
    {
      "midi": 69,
      "time": 237.375,
      "duration": 0.188,
      "velocity": 0.75,
      "hand": "right"
    },
    {
      "midi": 67,
      "time": 237.563,
      "duration": 0.188,
      "velocity": 0.75,
      "hand": "right"
    },
    {
      "midi": 69,
      "time": 237.563,
      "duration": 0.188,
      "velocity": 0.75,
      "hand": "right"
    },
    {
      "midi": 73,
      "time": 237.563,
      "duration": 0.188,
      "velocity": 0.54,
      "hand": "right"
    },
    {
      "midi": 73,
      "time": 237.75,
      "duration": 0.188,
      "velocity": 0.75,
      "hand": "right"
    },
    {
      "midi": 81,
      "time": 237.75,
      "duration": 0.188,
      "velocity": 0.54,
      "hand": "right"
    },
    {
      "midi": 67,
      "time": 237.938,
      "duration": 0.188,
      "velocity": 0.75,
      "hand": "right"
    },
    {
      "midi": 69,
      "time": 237.938,
      "duration": 0.188,
      "velocity": 0.75,
      "hand": "right"
    },
    {
      "midi": 81,
      "time": 237.938,
      "duration": 0.188,
      "velocity": 0.54,
      "hand": "right"
    },
    {
      "midi": 69,
      "time": 238.125,
      "duration": 0.188,
      "velocity": 0.75,
      "hand": "right"
    },
    {
      "midi": 69,
      "time": 238.313,
      "duration": 0.188,
      "velocity": 0.75,
      "hand": "right"
    },
    {
      "midi": 73,
      "time": 238.313,
      "duration": 0.188,
      "velocity": 0.75,
      "hand": "right"
    },
    {
      "midi": 81,
      "time": 238.313,
      "duration": 0.188,
      "velocity": 0.54,
      "hand": "right"
    },
    {
      "midi": 66,
      "time": 238.5,
      "duration": 0.188,
      "velocity": 0.75,
      "hand": "right"
    },
    {
      "midi": 81,
      "time": 238.5,
      "duration": 0.375,
      "velocity": 0.54,
      "hand": "right"
    },
    {
      "midi": 69,
      "time": 238.688,
      "duration": 0.188,
      "velocity": 0.75,
      "hand": "right"
    },
    {
      "midi": 74,
      "time": 238.688,
      "duration": 0.188,
      "velocity": 0.75,
      "hand": "right"
    },
    {
      "midi": 69,
      "time": 238.875,
      "duration": 0.188,
      "velocity": 0.75,
      "hand": "right"
    },
    {
      "midi": 83,
      "time": 238.875,
      "duration": 0.094,
      "velocity": 0.54,
      "hand": "right"
    },
    {
      "midi": 85,
      "time": 238.875,
      "duration": 0.094,
      "velocity": 0.54,
      "hand": "right"
    },
    {
      "midi": 66,
      "time": 239.063,
      "duration": 0.188,
      "velocity": 0.75,
      "hand": "right"
    },
    {
      "midi": 69,
      "time": 239.063,
      "duration": 0.188,
      "velocity": 0.75,
      "hand": "right"
    },
    {
      "midi": 86,
      "time": 239.063,
      "duration": 0.188,
      "velocity": 0.54,
      "hand": "right"
    },
    {
      "midi": 66,
      "time": 239.25,
      "duration": 0.188,
      "velocity": 0.75,
      "hand": "right"
    },
    {
      "midi": 74,
      "time": 239.25,
      "duration": 0.188,
      "velocity": 0.54,
      "hand": "right"
    },
    {
      "midi": 66,
      "time": 239.438,
      "duration": 0.188,
      "velocity": 0.75,
      "hand": "right"
    },
    {
      "midi": 69,
      "time": 239.438,
      "duration": 0.188,
      "velocity": 0.75,
      "hand": "right"
    },
    {
      "midi": 75,
      "time": 239.438,
      "duration": 0.188,
      "velocity": 0.54,
      "hand": "right"
    },
    {
      "midi": 84,
      "time": 239.438,
      "duration": 0.188,
      "velocity": 0.54,
      "hand": "right"
    },
    {
      "midi": 69,
      "time": 239.625,
      "duration": 0.188,
      "velocity": 0.75,
      "hand": "right"
    },
    {
      "midi": 66,
      "time": 239.813,
      "duration": 0.188,
      "velocity": 0.75,
      "hand": "right"
    },
    {
      "midi": 69,
      "time": 239.813,
      "duration": 0.188,
      "velocity": 0.75,
      "hand": "right"
    },
    {
      "midi": 75,
      "time": 239.813,
      "duration": 0.188,
      "velocity": 0.54,
      "hand": "right"
    },
    {
      "midi": 84,
      "time": 239.813,
      "duration": 0.188,
      "velocity": 0.54,
      "hand": "right"
    },
    {
      "midi": 66,
      "time": 240,
      "duration": 0.188,
      "velocity": 0.75,
      "hand": "right"
    },
    {
      "midi": 75,
      "time": 240,
      "duration": 0.188,
      "velocity": 0.54,
      "hand": "right"
    },
    {
      "midi": 84,
      "time": 240,
      "duration": 0.188,
      "velocity": 0.54,
      "hand": "right"
    },
    {
      "midi": 66,
      "time": 240.188,
      "duration": 0.188,
      "velocity": 0.75,
      "hand": "right"
    },
    {
      "midi": 69,
      "time": 240.188,
      "duration": 0.188,
      "velocity": 0.75,
      "hand": "right"
    },
    {
      "midi": 75,
      "time": 240.188,
      "duration": 0.188,
      "velocity": 0.54,
      "hand": "right"
    },
    {
      "midi": 84,
      "time": 240.188,
      "duration": 0.188,
      "velocity": 0.54,
      "hand": "right"
    },
    {
      "midi": 69,
      "time": 240.375,
      "duration": 0.188,
      "velocity": 0.75,
      "hand": "right"
    },
    {
      "midi": 67,
      "time": 240.563,
      "duration": 0.563,
      "velocity": 0.75,
      "hand": "right"
    },
    {
      "midi": 76,
      "time": 240.563,
      "duration": 0.563,
      "velocity": 0.71,
      "hand": "right"
    },
    {
      "midi": 83,
      "time": 240.563,
      "duration": 0.188,
      "velocity": 0.71,
      "hand": "right"
    },
    {
      "midi": 84,
      "time": 240.563,
      "duration": 0.188,
      "velocity": 0.71,
      "hand": "right"
    },
    {
      "midi": 82,
      "time": 240.75,
      "duration": 0.188,
      "velocity": 0.71,
      "hand": "right"
    },
    {
      "midi": 81,
      "time": 240.938,
      "duration": 0.188,
      "velocity": 0.71,
      "hand": "right"
    },
    {
      "midi": 83,
      "time": 240.938,
      "duration": 0.188,
      "velocity": 0.71,
      "hand": "right"
    },
    {
      "midi": 79,
      "time": 241.125,
      "duration": 0.188,
      "velocity": 0.71,
      "hand": "right"
    },
    {
      "midi": 76,
      "time": 241.313,
      "duration": 0.188,
      "velocity": 0.71,
      "hand": "right"
    },
    {
      "midi": 78,
      "time": 241.313,
      "duration": 0.188,
      "velocity": 0.71,
      "hand": "right"
    },
    {
      "midi": 57,
      "time": 241.5,
      "duration": 0.938,
      "velocity": 0.71,
      "hand": "left"
    },
    {
      "midi": 66,
      "time": 241.5,
      "duration": 0.563,
      "velocity": 0.71,
      "hand": "right"
    },
    {
      "midi": 74,
      "time": 241.5,
      "duration": 0.563,
      "velocity": 0.71,
      "hand": "right"
    },
    {
      "midi": 67,
      "time": 242.063,
      "duration": 0.563,
      "velocity": 0.71,
      "hand": "right"
    },
    {
      "midi": 73,
      "time": 242.063,
      "duration": 0.563,
      "velocity": 0.71,
      "hand": "right"
    },
    {
      "midi": 78,
      "time": 242.063,
      "duration": 0.375,
      "velocity": 0.71,
      "hand": "right"
    },
    {
      "midi": 62,
      "time": 242.438,
      "duration": 0.188,
      "velocity": 0.75,
      "hand": "right"
    },
    {
      "midi": 74,
      "time": 242.438,
      "duration": 0.563,
      "velocity": 0.71,
      "hand": "right"
    },
    {
      "midi": 76,
      "time": 242.438,
      "duration": 0.188,
      "velocity": 0.71,
      "hand": "right"
    },
    {
      "midi": 69,
      "time": 242.625,
      "duration": 0.188,
      "velocity": 0.75,
      "hand": "right"
    },
    {
      "midi": 66,
      "time": 242.813,
      "duration": 0.188,
      "velocity": 0.75,
      "hand": "right"
    },
    {
      "midi": 69,
      "time": 242.813,
      "duration": 0.188,
      "velocity": 0.75,
      "hand": "right"
    },
    {
      "midi": 66,
      "time": 243,
      "duration": 0.188,
      "velocity": 0.75,
      "hand": "right"
    },
    {
      "midi": 66,
      "time": 243.188,
      "duration": 0.188,
      "velocity": 0.75,
      "hand": "right"
    },
    {
      "midi": 69,
      "time": 243.188,
      "duration": 0.188,
      "velocity": 0.75,
      "hand": "right"
    },
    {
      "midi": 74,
      "time": 243.188,
      "duration": 0.188,
      "velocity": 0.54,
      "hand": "right"
    },
    {
      "midi": 69,
      "time": 243.375,
      "duration": 0.188,
      "velocity": 0.75,
      "hand": "right"
    },
    {
      "midi": 67,
      "time": 243.563,
      "duration": 0.188,
      "velocity": 0.75,
      "hand": "right"
    },
    {
      "midi": 69,
      "time": 243.563,
      "duration": 0.188,
      "velocity": 0.75,
      "hand": "right"
    },
    {
      "midi": 73,
      "time": 243.563,
      "duration": 0.188,
      "velocity": 0.54,
      "hand": "right"
    },
    {
      "midi": 73,
      "time": 243.75,
      "duration": 0.188,
      "velocity": 0.75,
      "hand": "right"
    },
    {
      "midi": 81,
      "time": 243.75,
      "duration": 0.188,
      "velocity": 0.54,
      "hand": "right"
    },
    {
      "midi": 67,
      "time": 243.938,
      "duration": 0.188,
      "velocity": 0.75,
      "hand": "right"
    },
    {
      "midi": 69,
      "time": 243.938,
      "duration": 0.188,
      "velocity": 0.75,
      "hand": "right"
    },
    {
      "midi": 81,
      "time": 243.938,
      "duration": 0.188,
      "velocity": 0.54,
      "hand": "right"
    },
    {
      "midi": 69,
      "time": 244.125,
      "duration": 0.188,
      "velocity": 0.75,
      "hand": "right"
    },
    {
      "midi": 69,
      "time": 244.313,
      "duration": 0.188,
      "velocity": 0.75,
      "hand": "right"
    },
    {
      "midi": 73,
      "time": 244.313,
      "duration": 0.188,
      "velocity": 0.75,
      "hand": "right"
    },
    {
      "midi": 81,
      "time": 244.313,
      "duration": 0.188,
      "velocity": 0.54,
      "hand": "right"
    },
    {
      "midi": 66,
      "time": 244.5,
      "duration": 0.188,
      "velocity": 0.75,
      "hand": "right"
    },
    {
      "midi": 81,
      "time": 244.5,
      "duration": 0.375,
      "velocity": 0.54,
      "hand": "right"
    },
    {
      "midi": 69,
      "time": 244.688,
      "duration": 0.188,
      "velocity": 0.75,
      "hand": "right"
    },
    {
      "midi": 74,
      "time": 244.688,
      "duration": 0.188,
      "velocity": 0.75,
      "hand": "right"
    },
    {
      "midi": 69,
      "time": 244.875,
      "duration": 0.188,
      "velocity": 0.75,
      "hand": "right"
    },
    {
      "midi": 83,
      "time": 244.875,
      "duration": 0.094,
      "velocity": 0.54,
      "hand": "right"
    },
    {
      "midi": 85,
      "time": 244.875,
      "duration": 0.094,
      "velocity": 0.54,
      "hand": "right"
    },
    {
      "midi": 66,
      "time": 245.063,
      "duration": 0.188,
      "velocity": 0.75,
      "hand": "right"
    },
    {
      "midi": 69,
      "time": 245.063,
      "duration": 0.188,
      "velocity": 0.75,
      "hand": "right"
    },
    {
      "midi": 86,
      "time": 245.063,
      "duration": 0.188,
      "velocity": 0.54,
      "hand": "right"
    },
    {
      "midi": 66,
      "time": 245.25,
      "duration": 0.188,
      "velocity": 0.75,
      "hand": "right"
    },
    {
      "midi": 74,
      "time": 245.25,
      "duration": 0.188,
      "velocity": 0.54,
      "hand": "right"
    },
    {
      "midi": 67,
      "time": 245.438,
      "duration": 0.188,
      "velocity": 0.75,
      "hand": "right"
    },
    {
      "midi": 69,
      "time": 245.438,
      "duration": 0.188,
      "velocity": 0.75,
      "hand": "right"
    },
    {
      "midi": 73,
      "time": 245.438,
      "duration": 0.188,
      "velocity": 0.54,
      "hand": "right"
    },
    {
      "midi": 69,
      "time": 245.625,
      "duration": 0.188,
      "velocity": 0.75,
      "hand": "right"
    },
    {
      "midi": 69,
      "time": 245.813,
      "duration": 0.188,
      "velocity": 0.75,
      "hand": "right"
    },
    {
      "midi": 73,
      "time": 245.813,
      "duration": 0.188,
      "velocity": 0.75,
      "hand": "right"
    },
    {
      "midi": 81,
      "time": 245.813,
      "duration": 0.188,
      "velocity": 0.54,
      "hand": "right"
    },
    {
      "midi": 67,
      "time": 246,
      "duration": 0.188,
      "velocity": 0.75,
      "hand": "right"
    },
    {
      "midi": 81,
      "time": 246,
      "duration": 0.188,
      "velocity": 0.54,
      "hand": "right"
    },
    {
      "midi": 69,
      "time": 246.188,
      "duration": 0.188,
      "velocity": 0.75,
      "hand": "right"
    },
    {
      "midi": 73,
      "time": 246.188,
      "duration": 0.188,
      "velocity": 0.75,
      "hand": "right"
    },
    {
      "midi": 81,
      "time": 246.188,
      "duration": 0.188,
      "velocity": 0.54,
      "hand": "right"
    },
    {
      "midi": 69,
      "time": 246.375,
      "duration": 0.188,
      "velocity": 0.75,
      "hand": "right"
    },
    {
      "midi": 66,
      "time": 246.563,
      "duration": 0.188,
      "velocity": 0.75,
      "hand": "right"
    },
    {
      "midi": 69,
      "time": 246.563,
      "duration": 0.188,
      "velocity": 0.75,
      "hand": "right"
    },
    {
      "midi": 81,
      "time": 246.563,
      "duration": 0.375,
      "velocity": 0.54,
      "hand": "right"
    },
    {
      "midi": 74,
      "time": 246.75,
      "duration": 0.188,
      "velocity": 0.75,
      "hand": "right"
    },
    {
      "midi": 66,
      "time": 246.938,
      "duration": 0.188,
      "velocity": 0.75,
      "hand": "right"
    },
    {
      "midi": 69,
      "time": 246.938,
      "duration": 0.188,
      "velocity": 0.75,
      "hand": "right"
    },
    {
      "midi": 83,
      "time": 246.938,
      "duration": 0.094,
      "velocity": 0.54,
      "hand": "right"
    },
    {
      "midi": 85,
      "time": 246.938,
      "duration": 0.094,
      "velocity": 0.54,
      "hand": "right"
    },
    {
      "midi": 86,
      "time": 246.938,
      "duration": 0.188,
      "velocity": 0.54,
      "hand": "right"
    },
    {
      "midi": 69,
      "time": 247.125,
      "duration": 0.188,
      "velocity": 0.75,
      "hand": "right"
    },
    {
      "midi": 66,
      "time": 247.313,
      "duration": 0.188,
      "velocity": 0.75,
      "hand": "right"
    },
    {
      "midi": 69,
      "time": 247.313,
      "duration": 0.188,
      "velocity": 0.75,
      "hand": "right"
    },
    {
      "midi": 74,
      "time": 247.313,
      "duration": 0.188,
      "velocity": 0.54,
      "hand": "right"
    },
    {
      "midi": 66,
      "time": 247.5,
      "duration": 0.188,
      "velocity": 0.75,
      "hand": "right"
    },
    {
      "midi": 75,
      "time": 247.5,
      "duration": 0.938,
      "velocity": 0.54,
      "hand": "right"
    },
    {
      "midi": 84,
      "time": 247.5,
      "duration": 0.938,
      "velocity": 0.54,
      "hand": "right"
    },
    {
      "midi": 66,
      "time": 247.688,
      "duration": 0.188,
      "velocity": 0.75,
      "hand": "right"
    },
    {
      "midi": 69,
      "time": 247.688,
      "duration": 0.188,
      "velocity": 0.75,
      "hand": "right"
    },
    {
      "midi": 69,
      "time": 247.875,
      "duration": 0.188,
      "velocity": 0.75,
      "hand": "right"
    },
    {
      "midi": 66,
      "time": 248.063,
      "duration": 0.188,
      "velocity": 0.75,
      "hand": "right"
    },
    {
      "midi": 69,
      "time": 248.063,
      "duration": 0.188,
      "velocity": 0.75,
      "hand": "right"
    },
    {
      "midi": 66,
      "time": 248.25,
      "duration": 0.188,
      "velocity": 0.75,
      "hand": "right"
    },
    {
      "midi": 67,
      "time": 248.438,
      "duration": 0.563,
      "velocity": 0.75,
      "hand": "right"
    },
    {
      "midi": 69,
      "time": 248.438,
      "duration": 0.188,
      "velocity": 0.75,
      "hand": "right"
    },
    {
      "midi": 71,
      "time": 248.438,
      "duration": 0.563,
      "velocity": 0.54,
      "hand": "right"
    },
    {
      "midi": 76,
      "time": 248.438,
      "duration": 0.563,
      "velocity": 0.54,
      "hand": "right"
    },
    {
      "midi": 56,
      "time": 249.563,
      "duration": 0.563,
      "velocity": 0.75,
      "hand": "left"
    },
    {
      "midi": 68,
      "time": 249.563,
      "duration": 0.563,
      "velocity": 0.75,
      "hand": "right"
    },
    {
      "midi": 77,
      "time": 249.563,
      "duration": 0.563,
      "velocity": 0.54,
      "hand": "right"
    },
    {
      "midi": 83,
      "time": 249.563,
      "duration": 0.563,
      "velocity": 0.54,
      "hand": "right"
    },
    {
      "midi": 86,
      "time": 249.563,
      "duration": 0.563,
      "velocity": 0.54,
      "hand": "right"
    },
    {
      "midi": 45,
      "time": 250.5,
      "duration": 1.5,
      "velocity": 0.75,
      "hand": "left"
    },
    {
      "midi": 50,
      "time": 250.5,
      "duration": 1.5,
      "velocity": 0.75,
      "hand": "left"
    },
    {
      "midi": 54,
      "time": 250.5,
      "duration": 1.5,
      "velocity": 0.75,
      "hand": "left"
    },
    {
      "midi": 57,
      "time": 250.5,
      "duration": 1.5,
      "velocity": 0.54,
      "hand": "left"
    },
    {
      "midi": 57,
      "time": 252,
      "duration": 0.188,
      "velocity": 0.54,
      "hand": "left"
    },
    {
      "midi": 59,
      "time": 252,
      "duration": 0.188,
      "velocity": 0.54,
      "hand": "left"
    },
    {
      "midi": 56,
      "time": 252.188,
      "duration": 0.188,
      "velocity": 0.54,
      "hand": "left"
    },
    {
      "midi": 57,
      "time": 252.188,
      "duration": 0.188,
      "velocity": 0.54,
      "hand": "left"
    },
    {
      "midi": 57,
      "time": 252.375,
      "duration": 0.188,
      "velocity": 0.54,
      "hand": "left"
    },
    {
      "midi": 59,
      "time": 252.375,
      "duration": 0.188,
      "velocity": 0.54,
      "hand": "left"
    },
    {
      "midi": 61,
      "time": 252.563,
      "duration": 0.188,
      "velocity": 0.54,
      "hand": "right"
    },
    {
      "midi": 62,
      "time": 252.563,
      "duration": 0.188,
      "velocity": 0.54,
      "hand": "right"
    },
    {
      "midi": 64,
      "time": 252.75,
      "duration": 0.188,
      "velocity": 0.54,
      "hand": "right"
    },
    {
      "midi": 66,
      "time": 252.75,
      "duration": 0.188,
      "velocity": 0.54,
      "hand": "right"
    },
    {
      "midi": 67,
      "time": 252.938,
      "duration": 0.188,
      "velocity": 0.54,
      "hand": "right"
    },
    {
      "midi": 69,
      "time": 252.938,
      "duration": 0.188,
      "velocity": 0.54,
      "hand": "right"
    },
    {
      "midi": 71,
      "time": 253.125,
      "duration": 0.188,
      "velocity": 0.54,
      "hand": "right"
    },
    {
      "midi": 73,
      "time": 253.125,
      "duration": 0.188,
      "velocity": 0.54,
      "hand": "right"
    },
    {
      "midi": 74,
      "time": 253.313,
      "duration": 0.188,
      "velocity": 0.54,
      "hand": "right"
    },
    {
      "midi": 76,
      "time": 253.313,
      "duration": 0.188,
      "velocity": 0.54,
      "hand": "right"
    },
    {
      "midi": 78,
      "time": 253.5,
      "duration": 0.188,
      "velocity": 0.54,
      "hand": "right"
    },
    {
      "midi": 79,
      "time": 253.5,
      "duration": 0.188,
      "velocity": 0.54,
      "hand": "right"
    },
    {
      "midi": 81,
      "time": 253.688,
      "duration": 0.188,
      "velocity": 0.54,
      "hand": "right"
    },
    {
      "midi": 83,
      "time": 253.688,
      "duration": 0.188,
      "velocity": 0.54,
      "hand": "right"
    },
    {
      "midi": 85,
      "time": 253.875,
      "duration": 0.188,
      "velocity": 0.54,
      "hand": "right"
    },
    {
      "midi": 86,
      "time": 253.875,
      "duration": 0.188,
      "velocity": 0.54,
      "hand": "right"
    },
    {
      "midi": 85,
      "time": 254.063,
      "duration": 0.188,
      "velocity": 0.54,
      "hand": "right"
    },
    {
      "midi": 88,
      "time": 254.063,
      "duration": 0.188,
      "velocity": 0.54,
      "hand": "right"
    },
    {
      "midi": 85,
      "time": 254.25,
      "duration": 0.188,
      "velocity": 0.54,
      "hand": "right"
    },
    {
      "midi": 86,
      "time": 254.25,
      "duration": 0.188,
      "velocity": 0.54,
      "hand": "right"
    },
    {
      "midi": 81,
      "time": 254.438,
      "duration": 0.188,
      "velocity": 0.54,
      "hand": "right"
    },
    {
      "midi": 83,
      "time": 254.438,
      "duration": 0.188,
      "velocity": 0.54,
      "hand": "right"
    },
    {
      "midi": 83,
      "time": 254.625,
      "duration": 0.188,
      "velocity": 0.54,
      "hand": "right"
    },
    {
      "midi": 85,
      "time": 254.625,
      "duration": 0.188,
      "velocity": 0.54,
      "hand": "right"
    },
    {
      "midi": 79,
      "time": 254.813,
      "duration": 0.188,
      "velocity": 0.54,
      "hand": "right"
    },
    {
      "midi": 81,
      "time": 254.813,
      "duration": 0.188,
      "velocity": 0.54,
      "hand": "right"
    },
    {
      "midi": 78,
      "time": 255,
      "duration": 0.188,
      "velocity": 0.54,
      "hand": "right"
    },
    {
      "midi": 81,
      "time": 255,
      "duration": 0.188,
      "velocity": 0.54,
      "hand": "right"
    },
    {
      "midi": 78,
      "time": 255.188,
      "duration": 0.188,
      "velocity": 0.54,
      "hand": "right"
    },
    {
      "midi": 79,
      "time": 255.188,
      "duration": 0.188,
      "velocity": 0.54,
      "hand": "right"
    },
    {
      "midi": 75,
      "time": 255.375,
      "duration": 0.188,
      "velocity": 0.54,
      "hand": "right"
    },
    {
      "midi": 76,
      "time": 255.375,
      "duration": 0.188,
      "velocity": 0.54,
      "hand": "right"
    },
    {
      "midi": 76,
      "time": 255.563,
      "duration": 0.188,
      "velocity": 0.54,
      "hand": "right"
    },
    {
      "midi": 78,
      "time": 255.563,
      "duration": 0.188,
      "velocity": 0.54,
      "hand": "right"
    },
    {
      "midi": 76,
      "time": 255.75,
      "duration": 0.188,
      "velocity": 0.54,
      "hand": "right"
    },
    {
      "midi": 79,
      "time": 255.75,
      "duration": 0.188,
      "velocity": 0.54,
      "hand": "right"
    },
    {
      "midi": 76,
      "time": 255.938,
      "duration": 0.188,
      "velocity": 0.54,
      "hand": "right"
    },
    {
      "midi": 76,
      "time": 255.938,
      "duration": 3.188,
      "velocity": 0.54,
      "hand": "right"
    },
    {
      "midi": 57,
      "time": 258.938,
      "duration": 1.688,
      "velocity": 0.75,
      "hand": "left"
    },
    {
      "midi": 61,
      "time": 258.938,
      "duration": 1.688,
      "velocity": 0.75,
      "hand": "right"
    },
    {
      "midi": 67,
      "time": 258.938,
      "duration": 1.688,
      "velocity": 0.75,
      "hand": "right"
    },
    {
      "midi": 75,
      "time": 259.125,
      "duration": 0.188,
      "velocity": 0.54,
      "hand": "right"
    },
    {
      "midi": 76,
      "time": 259.313,
      "duration": 0.188,
      "velocity": 0.54,
      "hand": "right"
    },
    {
      "midi": 78,
      "time": 259.313,
      "duration": 0.188,
      "velocity": 0.54,
      "hand": "right"
    },
    {
      "midi": 76,
      "time": 259.5,
      "duration": 0.188,
      "velocity": 0.54,
      "hand": "right"
    },
    {
      "midi": 79,
      "time": 259.5,
      "duration": 0.188,
      "velocity": 0.54,
      "hand": "right"
    },
    {
      "midi": 78,
      "time": 259.688,
      "duration": 0.188,
      "velocity": 0.54,
      "hand": "right"
    },
    {
      "midi": 81,
      "time": 259.688,
      "duration": 0.188,
      "velocity": 0.54,
      "hand": "right"
    },
    {
      "midi": 79,
      "time": 259.875,
      "duration": 0.188,
      "velocity": 0.54,
      "hand": "right"
    },
    {
      "midi": 76,
      "time": 260.063,
      "duration": 0.188,
      "velocity": 0.54,
      "hand": "right"
    },
    {
      "midi": 78,
      "time": 260.063,
      "duration": 0.188,
      "velocity": 0.54,
      "hand": "right"
    },
    {
      "midi": 79,
      "time": 260.25,
      "duration": 0.188,
      "velocity": 0.54,
      "hand": "right"
    },
    {
      "midi": 76,
      "time": 260.438,
      "duration": 0.188,
      "velocity": 0.54,
      "hand": "right"
    },
    {
      "midi": 78,
      "time": 260.438,
      "duration": 0.188,
      "velocity": 0.54,
      "hand": "right"
    },
    {
      "midi": 74,
      "time": 260.625,
      "duration": 0.188,
      "velocity": 0.54,
      "hand": "right"
    },
    {
      "midi": 78,
      "time": 260.813,
      "duration": 0.188,
      "velocity": 0.54,
      "hand": "right"
    },
    {
      "midi": 76,
      "time": 261,
      "duration": 0.188,
      "velocity": 0.54,
      "hand": "right"
    },
    {
      "midi": 74,
      "time": 261.188,
      "duration": 0.188,
      "velocity": 0.54,
      "hand": "right"
    },
    {
      "midi": 73,
      "time": 261.563,
      "duration": 0.188,
      "velocity": 0.54,
      "hand": "right"
    },
    {
      "midi": 76,
      "time": 261.75,
      "duration": 0.188,
      "velocity": 0.54,
      "hand": "right"
    },
    {
      "midi": 74,
      "time": 261.938,
      "duration": 0.188,
      "velocity": 0.54,
      "hand": "right"
    },
    {
      "midi": 73,
      "time": 262.313,
      "duration": 0.188,
      "velocity": 0.54,
      "hand": "right"
    },
    {
      "midi": 71,
      "time": 262.5,
      "duration": 0.188,
      "velocity": 0.54,
      "hand": "right"
    },
    {
      "midi": 62,
      "time": 262.688,
      "duration": 0.938,
      "velocity": 0.75,
      "hand": "right"
    },
    {
      "midi": 66,
      "time": 262.688,
      "duration": 0.938,
      "velocity": 0.75,
      "hand": "right"
    },
    {
      "midi": 69,
      "time": 262.688,
      "duration": 0.563,
      "velocity": 0.54,
      "hand": "right"
    },
    {
      "midi": 78,
      "time": 263.25,
      "duration": 0.188,
      "velocity": 0.54,
      "hand": "right"
    },
    {
      "midi": 74,
      "time": 263.438,
      "duration": 0.188,
      "velocity": 0.54,
      "hand": "right"
    },
    {
      "midi": 62,
      "time": 263.813,
      "duration": 2.063,
      "velocity": 0.75,
      "hand": "right"
    },
    {
      "midi": 67,
      "time": 263.813,
      "duration": 2.063,
      "velocity": 0.75,
      "hand": "right"
    },
    {
      "midi": 73,
      "time": 263.813,
      "duration": 0.563,
      "velocity": 0.54,
      "hand": "right"
    },
    {
      "midi": 71,
      "time": 264.188,
      "duration": 0.188,
      "velocity": 0.54,
      "hand": "right"
    },
    {
      "midi": 76,
      "time": 264.563,
      "duration": 0.188,
      "velocity": 0.54,
      "hand": "right"
    },
    {
      "midi": 79,
      "time": 264.563,
      "duration": 0.188,
      "velocity": 0.54,
      "hand": "right"
    },
    {
      "midi": 64,
      "time": 264.75,
      "duration": 0.938,
      "velocity": 0.75,
      "hand": "right"
    },
    {
      "midi": 74,
      "time": 264.75,
      "duration": 0.188,
      "velocity": 0.71,
      "hand": "right"
    },
    {
      "midi": 73,
      "time": 264.938,
      "duration": 0.75,
      "velocity": 0.71,
      "hand": "right"
    },
    {
      "midi": 83,
      "time": 265.313,
      "duration": 0.188,
      "velocity": 0.71,
      "hand": "right"
    },
    {
      "midi": 81,
      "time": 265.5,
      "duration": 0.188,
      "velocity": 0.71,
      "hand": "right"
    },
    {
      "midi": 62,
      "time": 265.688,
      "duration": 0.563,
      "velocity": 0.75,
      "hand": "right"
    },
    {
      "midi": 66,
      "time": 265.688,
      "duration": 0.563,
      "velocity": 0.75,
      "hand": "right"
    },
    {
      "midi": 74,
      "time": 265.688,
      "duration": 0.563,
      "velocity": 0.71,
      "hand": "right"
    },
    {
      "midi": 81,
      "time": 265.688,
      "duration": 0.375,
      "velocity": 0.71,
      "hand": "right"
    },
    {
      "midi": 83,
      "time": 266.063,
      "duration": 0.094,
      "velocity": 0.71,
      "hand": "right"
    },
    {
      "midi": 78,
      "time": 266.25,
      "duration": 0.188,
      "velocity": 0.71,
      "hand": "right"
    },
    {
      "midi": 79,
      "time": 266.25,
      "duration": 0.094,
      "velocity": 0.71,
      "hand": "right"
    },
    {
      "midi": 81,
      "time": 266.438,
      "duration": 0.188,
      "velocity": 0.75,
      "hand": "right"
    },
    {
      "midi": 78,
      "time": 266.625,
      "duration": 0.188,
      "velocity": 0.75,
      "hand": "right"
    },
    {
      "midi": 42,
      "time": 266.813,
      "duration": 0.188,
      "velocity": 0.75,
      "hand": "left"
    },
    {
      "midi": 54,
      "time": 266.813,
      "duration": 0.188,
      "velocity": 0.75,
      "hand": "left"
    },
    {
      "midi": 86,
      "time": 266.813,
      "duration": 0.188,
      "velocity": 0.54,
      "hand": "right"
    },
    {
      "midi": 42,
      "time": 267,
      "duration": 0.188,
      "velocity": 0.75,
      "hand": "left"
    },
    {
      "midi": 54,
      "time": 267,
      "duration": 0.188,
      "velocity": 0.75,
      "hand": "left"
    },
    {
      "midi": 74,
      "time": 267,
      "duration": 0.188,
      "velocity": 0.54,
      "hand": "right"
    },
    {
      "midi": 81,
      "time": 267,
      "duration": 0.188,
      "velocity": 0.54,
      "hand": "right"
    },
    {
      "midi": 86,
      "time": 267,
      "duration": 0.188,
      "velocity": 0.54,
      "hand": "right"
    },
    {
      "midi": 42,
      "time": 267.188,
      "duration": 0.188,
      "velocity": 0.75,
      "hand": "left"
    },
    {
      "midi": 54,
      "time": 267.188,
      "duration": 0.188,
      "velocity": 0.75,
      "hand": "left"
    },
    {
      "midi": 74,
      "time": 267.188,
      "duration": 0.188,
      "velocity": 0.54,
      "hand": "right"
    },
    {
      "midi": 81,
      "time": 267.188,
      "duration": 0.188,
      "velocity": 0.54,
      "hand": "right"
    },
    {
      "midi": 86,
      "time": 267.188,
      "duration": 0.188,
      "velocity": 0.54,
      "hand": "right"
    },
    {
      "midi": 42,
      "time": 267.563,
      "duration": 0.188,
      "velocity": 0.75,
      "hand": "left"
    },
    {
      "midi": 54,
      "time": 267.563,
      "duration": 0.188,
      "velocity": 0.75,
      "hand": "left"
    },
    {
      "midi": 74,
      "time": 267.563,
      "duration": 0.188,
      "velocity": 0.54,
      "hand": "right"
    },
    {
      "midi": 81,
      "time": 267.563,
      "duration": 0.188,
      "velocity": 0.54,
      "hand": "right"
    },
    {
      "midi": 86,
      "time": 267.563,
      "duration": 0.188,
      "velocity": 0.54,
      "hand": "right"
    },
    {
      "midi": 43,
      "time": 267.75,
      "duration": 0.563,
      "velocity": 0.75,
      "hand": "left"
    },
    {
      "midi": 55,
      "time": 267.75,
      "duration": 0.563,
      "velocity": 0.75,
      "hand": "left"
    },
    {
      "midi": 74,
      "time": 267.75,
      "duration": 0.563,
      "velocity": 0.54,
      "hand": "right"
    },
    {
      "midi": 79,
      "time": 267.75,
      "duration": 0.563,
      "velocity": 0.54,
      "hand": "right"
    },
    {
      "midi": 83,
      "time": 267.75,
      "duration": 0.563,
      "velocity": 0.54,
      "hand": "right"
    },
    {
      "midi": 79,
      "time": 268.5,
      "duration": 0.188,
      "velocity": 0.54,
      "hand": "right"
    },
    {
      "midi": 57,
      "time": 268.688,
      "duration": 0.188,
      "velocity": 0.75,
      "hand": "left"
    },
    {
      "midi": 64,
      "time": 268.688,
      "duration": 0.188,
      "velocity": 0.75,
      "hand": "right"
    },
    {
      "midi": 73,
      "time": 268.688,
      "duration": 0.188,
      "velocity": 0.54,
      "hand": "right"
    },
    {
      "midi": 76,
      "time": 268.688,
      "duration": 0.188,
      "velocity": 0.54,
      "hand": "right"
    },
    {
      "midi": 57,
      "time": 269.063,
      "duration": 0.188,
      "velocity": 0.75,
      "hand": "left"
    },
    {
      "midi": 64,
      "time": 269.063,
      "duration": 0.188,
      "velocity": 0.75,
      "hand": "right"
    },
    {
      "midi": 67,
      "time": 269.063,
      "duration": 0.188,
      "velocity": 0.54,
      "hand": "right"
    },
    {
      "midi": 73,
      "time": 269.063,
      "duration": 0.188,
      "velocity": 0.54,
      "hand": "right"
    },
    {
      "midi": 57,
      "time": 269.25,
      "duration": 0.188,
      "velocity": 0.75,
      "hand": "left"
    },
    {
      "midi": 64,
      "time": 269.25,
      "duration": 0.188,
      "velocity": 0.75,
      "hand": "right"
    },
    {
      "midi": 67,
      "time": 269.25,
      "duration": 0.188,
      "velocity": 0.54,
      "hand": "right"
    },
    {
      "midi": 73,
      "time": 269.25,
      "duration": 0.188,
      "velocity": 0.54,
      "hand": "right"
    },
    {
      "midi": 57,
      "time": 269.438,
      "duration": 0.188,
      "velocity": 0.75,
      "hand": "left"
    },
    {
      "midi": 64,
      "time": 269.438,
      "duration": 0.188,
      "velocity": 0.75,
      "hand": "right"
    },
    {
      "midi": 67,
      "time": 269.438,
      "duration": 0.188,
      "velocity": 0.54,
      "hand": "right"
    },
    {
      "midi": 73,
      "time": 269.438,
      "duration": 0.188,
      "velocity": 0.54,
      "hand": "right"
    },
    {
      "midi": 59,
      "time": 269.813,
      "duration": 0.563,
      "velocity": 0.75,
      "hand": "left"
    },
    {
      "midi": 62,
      "time": 269.813,
      "duration": 0.563,
      "velocity": 0.75,
      "hand": "right"
    },
    {
      "midi": 66,
      "time": 269.813,
      "duration": 0.563,
      "velocity": 0.54,
      "hand": "right"
    },
    {
      "midi": 74,
      "time": 269.813,
      "duration": 0.563,
      "velocity": 0.54,
      "hand": "right"
    },
    {
      "midi": 44,
      "time": 270.75,
      "duration": 0.563,
      "velocity": 0.75,
      "hand": "left"
    },
    {
      "midi": 56,
      "time": 270.75,
      "duration": 0.563,
      "velocity": 0.75,
      "hand": "left"
    },
    {
      "midi": 74,
      "time": 270.75,
      "duration": 0.563,
      "velocity": 0.75,
      "hand": "right"
    },
    {
      "midi": 77,
      "time": 270.75,
      "duration": 0.563,
      "velocity": 0.75,
      "hand": "right"
    },
    {
      "midi": 83,
      "time": 270.75,
      "duration": 0.563,
      "velocity": 0.75,
      "hand": "right"
    },
    {
      "midi": 45,
      "time": 271.688,
      "duration": 0.563,
      "velocity": 0.75,
      "hand": "left"
    },
    {
      "midi": 57,
      "time": 271.688,
      "duration": 0.563,
      "velocity": 0.75,
      "hand": "left"
    },
    {
      "midi": 74,
      "time": 271.688,
      "duration": 0.563,
      "velocity": 0.75,
      "hand": "right"
    },
    {
      "midi": 78,
      "time": 271.688,
      "duration": 0.563,
      "velocity": 0.75,
      "hand": "right"
    },
    {
      "midi": 81,
      "time": 271.688,
      "duration": 0.563,
      "velocity": 0.75,
      "hand": "right"
    },
    {
      "midi": 33,
      "time": 272.813,
      "duration": 0.563,
      "velocity": 0.75,
      "hand": "left"
    },
    {
      "midi": 45,
      "time": 272.813,
      "duration": 0.563,
      "velocity": 0.75,
      "hand": "left"
    },
    {
      "midi": 52,
      "time": 272.813,
      "duration": 0.563,
      "velocity": 0.54,
      "hand": "left"
    },
    {
      "midi": 55,
      "time": 272.813,
      "duration": 0.563,
      "velocity": 0.54,
      "hand": "left"
    },
    {
      "midi": 61,
      "time": 272.813,
      "duration": 0.563,
      "velocity": 0.54,
      "hand": "right"
    },
    {
      "midi": 50,
      "time": 273.75,
      "duration": 0.938,
      "velocity": 0.75,
      "hand": "left"
    },
    {
      "midi": 54,
      "time": 273.75,
      "duration": 0.938,
      "velocity": 0.75,
      "hand": "left"
    },
    {
      "midi": 57,
      "time": 273.75,
      "duration": 0.563,
      "velocity": 0.49,
      "hand": "left"
    },
    {
      "midi": 66,
      "time": 274.313,
      "duration": 0.188,
      "velocity": 0.49,
      "hand": "right"
    },
    {
      "midi": 62,
      "time": 274.5,
      "duration": 0.188,
      "velocity": 0.49,
      "hand": "right"
    },
    {
      "midi": 50,
      "time": 274.688,
      "duration": 2.063,
      "velocity": 0.75,
      "hand": "left"
    },
    {
      "midi": 55,
      "time": 274.688,
      "duration": 2.063,
      "velocity": 0.75,
      "hand": "left"
    },
    {
      "midi": 61,
      "time": 274.688,
      "duration": 0.563,
      "velocity": 0.49,
      "hand": "right"
    },
    {
      "midi": 59,
      "time": 275.25,
      "duration": 0.188,
      "velocity": 0.49,
      "hand": "left"
    },
    {
      "midi": 67,
      "time": 275.438,
      "duration": 0.188,
      "velocity": 0.49,
      "hand": "right"
    },
    {
      "midi": 64,
      "time": 275.625,
      "duration": 0.188,
      "velocity": 0.49,
      "hand": "right"
    },
    {
      "midi": 52,
      "time": 275.813,
      "duration": 0.938,
      "velocity": 0.75,
      "hand": "left"
    },
    {
      "midi": 62,
      "time": 275.813,
      "duration": 0.188,
      "velocity": 0.71,
      "hand": "right"
    },
    {
      "midi": 61,
      "time": 276,
      "duration": 0.75,
      "velocity": 0.71,
      "hand": "right"
    },
    {
      "midi": 71,
      "time": 276.188,
      "duration": 0.188,
      "velocity": 0.71,
      "hand": "right"
    },
    {
      "midi": 69,
      "time": 276.563,
      "duration": 0.188,
      "velocity": 0.71,
      "hand": "right"
    },
    {
      "midi": 50,
      "time": 276.75,
      "duration": 0.75,
      "velocity": 0.75,
      "hand": "left"
    },
    {
      "midi": 54,
      "time": 276.75,
      "duration": 0.75,
      "velocity": 0.75,
      "hand": "left"
    },
    {
      "midi": 62,
      "time": 276.75,
      "duration": 0.75,
      "velocity": 0.71,
      "hand": "right"
    },
    {
      "midi": 69,
      "time": 276.75,
      "duration": 0.375,
      "velocity": 0.71,
      "hand": "right"
    },
    {
      "midi": 66,
      "time": 277.125,
      "duration": 0.188,
      "velocity": 0.71,
      "hand": "right"
    },
    {
      "midi": 69,
      "time": 277.313,
      "duration": 0.188,
      "velocity": 0.71,
      "hand": "right"
    },
    {
      "midi": 42,
      "time": 277.688,
      "duration": 0.938,
      "velocity": 0.75,
      "hand": "left"
    },
    {
      "midi": 50,
      "time": 277.688,
      "duration": 0.938,
      "velocity": 0.75,
      "hand": "left"
    },
    {
      "midi": 69,
      "time": 277.688,
      "duration": 0.563,
      "velocity": 0.75,
      "hand": "right"
    },
    {
      "midi": 78,
      "time": 278.25,
      "duration": 0.188,
      "velocity": 0.75,
      "hand": "right"
    },
    {
      "midi": 74,
      "time": 278.438,
      "duration": 0.188,
      "velocity": 0.75,
      "hand": "right"
    },
    {
      "midi": 43,
      "time": 278.813,
      "duration": 0.938,
      "velocity": 0.75,
      "hand": "left"
    },
    {
      "midi": 55,
      "time": 278.813,
      "duration": 0.938,
      "velocity": 0.75,
      "hand": "left"
    },
    {
      "midi": 71,
      "time": 278.813,
      "duration": 0.75,
      "velocity": 0.75,
      "hand": "right"
    },
    {
      "midi": 76,
      "time": 279.563,
      "duration": 0.188,
      "velocity": 0.75,
      "hand": "right"
    },
    {
      "midi": 79,
      "time": 279.563,
      "duration": 0.188,
      "velocity": 0.75,
      "hand": "right"
    },
    {
      "midi": 45,
      "time": 279.75,
      "duration": 0.938,
      "velocity": 0.75,
      "hand": "left"
    },
    {
      "midi": 52,
      "time": 279.75,
      "duration": 0.938,
      "velocity": 0.75,
      "hand": "left"
    },
    {
      "midi": 55,
      "time": 279.75,
      "duration": 0.938,
      "velocity": 0.75,
      "hand": "left"
    },
    {
      "midi": 73,
      "time": 279.75,
      "duration": 0.188,
      "velocity": 0.75,
      "hand": "right"
    },
    {
      "midi": 74,
      "time": 279.938,
      "duration": 0.188,
      "velocity": 0.75,
      "hand": "right"
    },
    {
      "midi": 76,
      "time": 279.938,
      "duration": 0.188,
      "velocity": 0.75,
      "hand": "right"
    },
    {
      "midi": 78,
      "time": 280.125,
      "duration": 0.188,
      "velocity": 0.75,
      "hand": "right"
    },
    {
      "midi": 79,
      "time": 280.313,
      "duration": 0.188,
      "velocity": 0.75,
      "hand": "right"
    },
    {
      "midi": 81,
      "time": 280.313,
      "duration": 0.188,
      "velocity": 0.75,
      "hand": "right"
    },
    {
      "midi": 83,
      "time": 280.5,
      "duration": 0.188,
      "velocity": 0.75,
      "hand": "right"
    },
    {
      "midi": 50,
      "time": 280.688,
      "duration": 0.188,
      "velocity": 0.75,
      "hand": "left"
    },
    {
      "midi": 54,
      "time": 280.688,
      "duration": 0.188,
      "velocity": 0.75,
      "hand": "left"
    },
    {
      "midi": 85,
      "time": 280.688,
      "duration": 0.188,
      "velocity": 0.75,
      "hand": "right"
    },
    {
      "midi": 86,
      "time": 280.688,
      "duration": 0.188,
      "velocity": 0.75,
      "hand": "right"
    },
    {
      "midi": 45,
      "time": 281.25,
      "duration": 0.188,
      "velocity": 0.75,
      "hand": "left"
    },
    {
      "midi": 57,
      "time": 281.25,
      "duration": 0.188,
      "velocity": 0.75,
      "hand": "left"
    },
    {
      "midi": 69,
      "time": 281.25,
      "duration": 0.188,
      "velocity": 0.8,
      "hand": "right"
    },
    {
      "midi": 73,
      "time": 281.25,
      "duration": 0.188,
      "velocity": 0.8,
      "hand": "right"
    },
    {
      "midi": 76,
      "time": 281.25,
      "duration": 0.188,
      "velocity": 0.8,
      "hand": "right"
    },
    {
      "midi": 81,
      "time": 281.25,
      "duration": 0.188,
      "velocity": 0.8,
      "hand": "right"
    },
    {
      "midi": 50,
      "time": 281.813,
      "duration": 0.188,
      "velocity": 0.75,
      "hand": "left"
    },
    {
      "midi": 57,
      "time": 281.813,
      "duration": 0.188,
      "velocity": 0.75,
      "hand": "left"
    },
    {
      "midi": 69,
      "time": 281.813,
      "duration": 0.188,
      "velocity": 0.8,
      "hand": "right"
    },
    {
      "midi": 74,
      "time": 281.813,
      "duration": 0.188,
      "velocity": 0.8,
      "hand": "right"
    },
    {
      "midi": 78,
      "time": 281.813,
      "duration": 0.188,
      "velocity": 0.8,
      "hand": "right"
    },
    {
      "midi": 45,
      "time": 282.188,
      "duration": 0.188,
      "velocity": 0.75,
      "hand": "left"
    },
    {
      "midi": 57,
      "time": 282.188,
      "duration": 0.188,
      "velocity": 0.75,
      "hand": "left"
    },
    {
      "midi": 64,
      "time": 282.188,
      "duration": 0.188,
      "velocity": 0.8,
      "hand": "right"
    },
    {
      "midi": 67,
      "time": 282.188,
      "duration": 0.188,
      "velocity": 0.8,
      "hand": "right"
    },
    {
      "midi": 69,
      "time": 282.188,
      "duration": 0.188,
      "velocity": 0.8,
      "hand": "right"
    },
    {
      "midi": 73,
      "time": 282.188,
      "duration": 0.188,
      "velocity": 0.8,
      "hand": "right"
    },
    {
      "midi": 38,
      "time": 282.75,
      "duration": 0.563,
      "velocity": 0.75,
      "hand": "left"
    },
    {
      "midi": 50,
      "time": 282.75,
      "duration": 0.563,
      "velocity": 0.75,
      "hand": "left"
    },
    {
      "midi": 62,
      "time": 282.75,
      "duration": 0.563,
      "velocity": 0.8,
      "hand": "right"
    },
    {
      "midi": 66,
      "time": 282.75,
      "duration": 0.563,
      "velocity": 0.8,
      "hand": "right"
    },
    {
      "midi": 69,
      "time": 282.75,
      "duration": 0.563,
      "velocity": 0.8,
      "hand": "right"
    },
    {
      "midi": 74,
      "time": 282.75,
      "duration": 0.563,
      "velocity": 0.8,
      "hand": "right"
    }
  ]
}
