{
  "id": "firme-nas-promessas",
  "title": "Firme nas Promessas",
  "artist": "Russell Kelso Carter",
  "difficulty": "Médio",
  "bpm": 105,
  "duration": 38,
  "category": "Religiosos",
  "isPremium": false,
  "coverUrl": "/images/covers/placeholder.png",
  "notes": [
    {
      "midi": 46,
      "time": 0,
      "duration": 0.429,
      "velocity": 0.54,
      "hand": "left"
    },
    {
      "midi": 58,
      "time": 0,
      "duration": 0.429,
      "velocity": 0.54,
      "hand": "left"
    },
    {
      "midi": 62,
      "time": 0,
      "duration": 0.429,
      "velocity": 0.51,
      "hand": "right"
    },
    {
      "midi": 65,
      "time": 0,
      "duration": 0.429,
      "velocity": 0.51,
      "hand": "right"
    },
    {
      "midi": 46,
      "time": 0.429,
      "duration": 0.143,
      "velocity": 0.58,
      "hand": "left"
    },
    {
      "midi": 58,
      "time": 0.429,
      "duration": 0.143,
      "velocity": 0.58,
      "hand": "left"
    },
    {
      "midi": 62,
      "time": 0.429,
      "duration": 0.143,
      "velocity": 0.57,
      "hand": "right"
    },
    {
      "midi": 65,
      "time": 0.429,
      "duration": 0.143,
      "velocity": 0.57,
      "hand": "right"
    },
    {
      "midi": 46,
      "time": 0.571,
      "duration": 0.429,
      "velocity": 0.6,
      "hand": "left"
    },
    {
      "midi": 58,
      "time": 0.571,
      "duration": 0.429,
      "velocity": 0.6,
      "hand": "left"
    },
    {
      "midi": 62,
      "time": 0.571,
      "duration": 0.429,
      "velocity": 0.56,
      "hand": "right"
    },
    {
      "midi": 65,
      "time": 0.571,
      "duration": 0.429,
      "velocity": 0.56,
      "hand": "right"
    },
    {
      "midi": 46,
      "time": 1,
      "duration": 0.143,
      "velocity": 0.61,
      "hand": "left"
    },
    {
      "midi": 58,
      "time": 1,
      "duration": 0.143,
      "velocity": 0.61,
      "hand": "left"
    },
    {
      "midi": 63,
      "time": 1,
      "duration": 0.143,
      "velocity": 0.62,
      "hand": "right"
    },
    {
      "midi": 67,
      "time": 1,
      "duration": 0.143,
      "velocity": 0.62,
      "hand": "right"
    },
    {
      "midi": 46,
      "time": 1.143,
      "duration": 0.429,
      "velocity": 0.57,
      "hand": "left"
    },
    {
      "midi": 58,
      "time": 1.143,
      "duration": 0.429,
      "velocity": 0.57,
      "hand": "left"
    },
    {
      "midi": 62,
      "time": 1.143,
      "duration": 0.429,
      "velocity": 0.57,
      "hand": "right"
    },
    {
      "midi": 65,
      "time": 1.143,
      "duration": 0.429,
      "velocity": 0.57,
      "hand": "right"
    },
    {
      "midi": 46,
      "time": 1.571,
      "duration": 0.143,
      "velocity": 0.55,
      "hand": "left"
    },
    {
      "midi": 53,
      "time": 1.571,
      "duration": 0.143,
      "velocity": 0.55,
      "hand": "left"
    },
    {
      "midi": 60,
      "time": 1.571,
      "duration": 0.143,
      "velocity": 0.57,
      "hand": "right"
    },
    {
      "midi": 63,
      "time": 1.571,
      "duration": 0.143,
      "velocity": 0.57,
      "hand": "right"
    },
    {
      "midi": 46,
      "time": 1.714,
      "duration": 0.429,
      "velocity": 0.61,
      "hand": "left"
    },
    {
      "midi": 53,
      "time": 1.714,
      "duration": 0.429,
      "velocity": 0.61,
      "hand": "left"
    },
    {
      "midi": 58,
      "time": 1.714,
      "duration": 0.429,
      "velocity": 0.57,
      "hand": "left"
    },
    {
      "midi": 62,
      "time": 1.714,
      "duration": 0.429,
      "velocity": 0.57,
      "hand": "right"
    },
    {
      "midi": 46,
      "time": 2.143,
      "duration": 0.143,
      "velocity": 0.59,
      "hand": "left"
    },
    {
      "midi": 53,
      "time": 2.143,
      "duration": 0.143,
      "velocity": 0.59,
      "hand": "left"
    },
    {
      "midi": 60,
      "time": 2.143,
      "duration": 0.143,
      "velocity": 0.6,
      "hand": "right"
    },
    {
      "midi": 63,
      "time": 2.143,
      "duration": 0.143,
      "velocity": 0.6,
      "hand": "right"
    },
    {
      "midi": 46,
      "time": 2.286,
      "duration": 0.571,
      "velocity": 0.63,
      "hand": "left"
    },
    {
      "midi": 58,
      "time": 2.286,
      "duration": 0.571,
      "velocity": 0.63,
      "hand": "left"
    },
    {
      "midi": 62,
      "time": 2.286,
      "duration": 0.571,
      "velocity": 0.64,
      "hand": "right"
    },
    {
      "midi": 65,
      "time": 2.286,
      "duration": 0.571,
      "velocity": 0.64,
      "hand": "right"
    },
    {
      "midi": 46,
      "time": 2.857,
      "duration": 0.571,
      "velocity": 0.6,
      "hand": "left"
    },
    {
      "midi": 58,
      "time": 2.857,
      "duration": 0.571,
      "velocity": 0.6,
      "hand": "left"
    },
    {
      "midi": 62,
      "time": 2.857,
      "duration": 0.571,
      "velocity": 0.71,
      "hand": "right"
    },
    {
      "midi": 70,
      "time": 2.857,
      "duration": 0.571,
      "velocity": 0.71,
      "hand": "right"
    },
    {
      "midi": 46,
      "time": 3.429,
      "duration": 1.143,
      "velocity": 0.61,
      "hand": "left"
    },
    {
      "midi": 58,
      "time": 3.429,
      "duration": 1.143,
      "velocity": 0.61,
      "hand": "left"
    },
    {
      "midi": 62,
      "time": 3.429,
      "duration": 1.143,
      "velocity": 0.61,
      "hand": "right"
    },
    {
      "midi": 70,
      "time": 3.429,
      "duration": 1.143,
      "velocity": 0.61,
      "hand": "right"
    },
    {
      "midi": 51,
      "time": 4.571,
      "duration": 0.429,
      "velocity": 0.59,
      "hand": "left"
    },
    {
      "midi": 58,
      "time": 4.571,
      "duration": 0.429,
      "velocity": 0.59,
      "hand": "left"
    },
    {
      "midi": 63,
      "time": 4.571,
      "duration": 0.429,
      "velocity": 0.55,
      "hand": "right"
    },
    {
      "midi": 67,
      "time": 4.571,
      "duration": 0.429,
      "velocity": 0.55,
      "hand": "right"
    },
    {
      "midi": 51,
      "time": 5,
      "duration": 0.143,
      "velocity": 0.6,
      "hand": "left"
    },
    {
      "midi": 58,
      "time": 5,
      "duration": 0.143,
      "velocity": 0.6,
      "hand": "left"
    },
    {
      "midi": 63,
      "time": 5,
      "duration": 0.143,
      "velocity": 0.61,
      "hand": "right"
    },
    {
      "midi": 67,
      "time": 5,
      "duration": 0.143,
      "velocity": 0.61,
      "hand": "right"
    },
    {
      "midi": 51,
      "time": 5.143,
      "duration": 0.429,
      "velocity": 0.61,
      "hand": "left"
    },
    {
      "midi": 58,
      "time": 5.143,
      "duration": 0.429,
      "velocity": 0.61,
      "hand": "left"
    },
    {
      "midi": 63,
      "time": 5.143,
      "duration": 0.429,
      "velocity": 0.62,
      "hand": "right"
    },
    {
      "midi": 67,
      "time": 5.143,
      "duration": 0.429,
      "velocity": 0.62,
      "hand": "right"
    },
    {
      "midi": 51,
      "time": 5.571,
      "duration": 0.143,
      "velocity": 0.57,
      "hand": "left"
    },
    {
      "midi": 58,
      "time": 5.571,
      "duration": 0.143,
      "velocity": 0.57,
      "hand": "left"
    },
    {
      "midi": 65,
      "time": 5.571,
      "duration": 0.143,
      "velocity": 0.65,
      "hand": "right"
    },
    {
      "midi": 69,
      "time": 5.571,
      "duration": 0.143,
      "velocity": 0.65,
      "hand": "right"
    },
    {
      "midi": 51,
      "time": 5.714,
      "duration": 0.429,
      "velocity": 0.69,
      "hand": "left"
    },
    {
      "midi": 63,
      "time": 5.714,
      "duration": 0.429,
      "velocity": 0.69,
      "hand": "right"
    },
    {
      "midi": 67,
      "time": 5.714,
      "duration": 0.429,
      "velocity": 0.62,
      "hand": "right"
    },
    {
      "midi": 70,
      "time": 5.714,
      "duration": 0.429,
      "velocity": 0.62,
      "hand": "right"
    },
    {
      "midi": 51,
      "time": 6.143,
      "duration": 0.143,
      "velocity": 0.61,
      "hand": "left"
    },
    {
      "midi": 63,
      "time": 6.143,
      "duration": 0.143,
      "velocity": 0.61,
      "hand": "right"
    },
    {
      "midi": 67,
      "time": 6.143,
      "duration": 0.143,
      "velocity": 0.58,
      "hand": "right"
    },
    {
      "midi": 70,
      "time": 6.143,
      "duration": 0.143,
      "velocity": 0.58,
      "hand": "right"
    },
    {
      "midi": 51,
      "time": 6.286,
      "duration": 0.429,
      "velocity": 0.56,
      "hand": "left"
    },
    {
      "midi": 58,
      "time": 6.286,
      "duration": 0.429,
      "velocity": 0.56,
      "hand": "left"
    },
    {
      "midi": 65,
      "time": 6.286,
      "duration": 0.429,
      "velocity": 0.55,
      "hand": "right"
    },
    {
      "midi": 69,
      "time": 6.286,
      "duration": 0.429,
      "velocity": 0.55,
      "hand": "right"
    },
    {
      "midi": 51,
      "time": 6.714,
      "duration": 0.143,
      "velocity": 0.57,
      "hand": "left"
    },
    {
      "midi": 58,
      "time": 6.714,
      "duration": 0.143,
      "velocity": 0.57,
      "hand": "left"
    },
    {
      "midi": 63,
      "time": 6.714,
      "duration": 0.143,
      "velocity": 0.52,
      "hand": "right"
    },
    {
      "midi": 67,
      "time": 6.714,
      "duration": 0.143,
      "velocity": 0.52,
      "hand": "right"
    },
    {
      "midi": 46,
      "time": 6.857,
      "duration": 0.571,
      "velocity": 0.58,
      "hand": "left"
    },
    {
      "midi": 58,
      "time": 6.857,
      "duration": 0.571,
      "velocity": 0.58,
      "hand": "left"
    },
    {
      "midi": 63,
      "time": 6.857,
      "duration": 0.571,
      "velocity": 0.58,
      "hand": "right"
    },
    {
      "midi": 67,
      "time": 6.857,
      "duration": 0.571,
      "velocity": 0.58,
      "hand": "right"
    },
    {
      "midi": 46,
      "time": 7.429,
      "duration": 0.571,
      "velocity": 0.61,
      "hand": "left"
    },
    {
      "midi": 58,
      "time": 7.429,
      "duration": 0.571,
      "velocity": 0.61,
      "hand": "left"
    },
    {
      "midi": 62,
      "time": 7.429,
      "duration": 0.571,
      "velocity": 0.54,
      "hand": "right"
    },
    {
      "midi": 65,
      "time": 7.429,
      "duration": 0.571,
      "velocity": 0.54,
      "hand": "right"
    },
    {
      "midi": 46,
      "time": 8,
      "duration": 1.143,
      "velocity": 0.6,
      "hand": "left"
    },
    {
      "midi": 58,
      "time": 8,
      "duration": 1.143,
      "velocity": 0.6,
      "hand": "left"
    },
    {
      "midi": 62,
      "time": 8,
      "duration": 1.143,
      "velocity": 0.57,
      "hand": "right"
    },
    {
      "midi": 65,
      "time": 8,
      "duration": 1.143,
      "velocity": 0.57,
      "hand": "right"
    },
    {
      "midi": 46,
      "time": 9.143,
      "duration": 0.429,
      "velocity": 0.59,
      "hand": "left"
    },
    {
      "midi": 58,
      "time": 9.143,
      "duration": 0.429,
      "velocity": 0.59,
      "hand": "left"
    },
    {
      "midi": 62,
      "time": 9.143,
      "duration": 0.429,
      "velocity": 0.62,
      "hand": "right"
    },
    {
      "midi": 65,
      "time": 9.143,
      "duration": 0.429,
      "velocity": 0.62,
      "hand": "right"
    },
    {
      "midi": 46,
      "time": 9.571,
      "duration": 0.143,
      "velocity": 0.61,
      "hand": "left"
    },
    {
      "midi": 58,
      "time": 9.571,
      "duration": 0.143,
      "velocity": 0.61,
      "hand": "left"
    },
    {
      "midi": 62,
      "time": 9.571,
      "duration": 0.143,
      "velocity": 0.59,
      "hand": "right"
    },
    {
      "midi": 65,
      "time": 9.571,
      "duration": 0.143,
      "velocity": 0.59,
      "hand": "right"
    },
    {
      "midi": 46,
      "time": 9.714,
      "duration": 0.429,
      "velocity": 0.61,
      "hand": "left"
    },
    {
      "midi": 58,
      "time": 9.714,
      "duration": 0.429,
      "velocity": 0.61,
      "hand": "left"
    },
    {
      "midi": 62,
      "time": 9.714,
      "duration": 0.429,
      "velocity": 0.62,
      "hand": "right"
    },
    {
      "midi": 65,
      "time": 9.714,
      "duration": 0.429,
      "velocity": 0.62,
      "hand": "right"
    },
    {
      "midi": 46,
      "time": 10.143,
      "duration": 0.143,
      "velocity": 0.59,
      "hand": "left"
    },
    {
      "midi": 58,
      "time": 10.143,
      "duration": 0.143,
      "velocity": 0.59,
      "hand": "left"
    },
    {
      "midi": 63,
      "time": 10.143,
      "duration": 0.143,
      "velocity": 0.62,
      "hand": "right"
    },
    {
      "midi": 67,
      "time": 10.143,
      "duration": 0.143,
      "velocity": 0.62,
      "hand": "right"
    },
    {
      "midi": 46,
      "time": 10.286,
      "duration": 0.429,
      "velocity": 0.64,
      "hand": "left"
    },
    {
      "midi": 58,
      "time": 10.286,
      "duration": 0.429,
      "velocity": 0.64,
      "hand": "left"
    },
    {
      "midi": 62,
      "time": 10.286,
      "duration": 0.429,
      "velocity": 0.55,
      "hand": "right"
    },
    {
      "midi": 65,
      "time": 10.286,
      "duration": 0.429,
      "velocity": 0.55,
      "hand": "right"
    },
    {
      "midi": 46,
      "time": 10.714,
      "duration": 0.143,
      "velocity": 0.56,
      "hand": "left"
    },
    {
      "midi": 53,
      "time": 10.714,
      "duration": 0.143,
      "velocity": 0.56,
      "hand": "left"
    },
    {
      "midi": 60,
      "time": 10.714,
      "duration": 0.143,
      "velocity": 0.53,
      "hand": "right"
    },
    {
      "midi": 63,
      "time": 10.714,
      "duration": 0.143,
      "velocity": 0.53,
      "hand": "right"
    },
    {
      "midi": 46,
      "time": 10.857,
      "duration": 0.429,
      "velocity": 0.58,
      "hand": "left"
    },
    {
      "midi": 53,
      "time": 10.857,
      "duration": 0.429,
      "velocity": 0.58,
      "hand": "left"
    },
    {
      "midi": 58,
      "time": 10.857,
      "duration": 0.429,
      "velocity": 0.56,
      "hand": "left"
    },
    {
      "midi": 62,
      "time": 10.857,
      "duration": 0.429,
      "velocity": 0.56,
      "hand": "right"
    },
    {
      "midi": 46,
      "time": 11.286,
      "duration": 0.143,
      "velocity": 0.61,
      "hand": "left"
    },
    {
      "midi": 53,
      "time": 11.286,
      "duration": 0.143,
      "velocity": 0.61,
      "hand": "left"
    },
    {
      "midi": 60,
      "time": 11.286,
      "duration": 0.143,
      "velocity": 0.65,
      "hand": "right"
    },
    {
      "midi": 63,
      "time": 11.286,
      "duration": 0.143,
      "velocity": 0.65,
      "hand": "right"
    },
    {
      "midi": 46,
      "time": 11.429,
      "duration": 0.571,
      "velocity": 0.65,
      "hand": "left"
    },
    {
      "midi": 58,
      "time": 11.429,
      "duration": 0.571,
      "velocity": 0.65,
      "hand": "left"
    },
    {
      "midi": 62,
      "time": 11.429,
      "duration": 0.571,
      "velocity": 0.62,
      "hand": "right"
    },
    {
      "midi": 65,
      "time": 11.429,
      "duration": 0.571,
      "velocity": 0.62,
      "hand": "right"
    },
    {
      "midi": 46,
      "time": 12,
      "duration": 0.571,
      "velocity": 0.58,
      "hand": "left"
    },
    {
      "midi": 53,
      "time": 12,
      "duration": 0.571,
      "velocity": 0.58,
      "hand": "left"
    },
    {
      "midi": 62,
      "time": 12,
      "duration": 0.571,
      "velocity": 0.7,
      "hand": "right"
    },
    {
      "midi": 70,
      "time": 12,
      "duration": 0.571,
      "velocity": 0.7,
      "hand": "right"
    },
    {
      "midi": 46,
      "time": 12.571,
      "duration": 1.143,
      "velocity": 0.57,
      "hand": "left"
    },
    {
      "midi": 53,
      "time": 12.571,
      "duration": 1.143,
      "velocity": 0.57,
      "hand": "left"
    },
    {
      "midi": 62,
      "time": 12.571,
      "duration": 1.143,
      "velocity": 0.6,
      "hand": "right"
    },
    {
      "midi": 70,
      "time": 12.571,
      "duration": 1.143,
      "velocity": 0.6,
      "hand": "right"
    },
    {
      "midi": 46,
      "time": 13.714,
      "duration": 0.429,
      "velocity": 0.63,
      "hand": "left"
    },
    {
      "midi": 58,
      "time": 13.714,
      "duration": 0.429,
      "velocity": 0.63,
      "hand": "left"
    },
    {
      "midi": 65,
      "time": 13.714,
      "duration": 0.429,
      "velocity": 0.66,
      "hand": "right"
    },
    {
      "midi": 74,
      "time": 13.714,
      "duration": 0.429,
      "velocity": 0.66,
      "hand": "right"
    },
    {
      "midi": 46,
      "time": 14.143,
      "duration": 0.143,
      "velocity": 0.58,
      "hand": "left"
    },
    {
      "midi": 58,
      "time": 14.143,
      "duration": 0.143,
      "velocity": 0.58,
      "hand": "left"
    },
    {
      "midi": 65,
      "time": 14.143,
      "duration": 0.143,
      "velocity": 0.66,
      "hand": "right"
    },
    {
      "midi": 74,
      "time": 14.143,
      "duration": 0.143,
      "velocity": 0.66,
      "hand": "right"
    },
    {
      "midi": 46,
      "time": 14.286,
      "duration": 0.429,
      "velocity": 0.56,
      "hand": "left"
    },
    {
      "midi": 53,
      "time": 14.286,
      "duration": 0.429,
      "velocity": 0.56,
      "hand": "left"
    },
    {
      "midi": 62,
      "time": 14.286,
      "duration": 0.429,
      "velocity": 0.52,
      "hand": "right"
    },
    {
      "midi": 70,
      "time": 14.286,
      "duration": 0.429,
      "velocity": 0.52,
      "hand": "right"
    },
    {
      "midi": 46,
      "time": 14.714,
      "duration": 0.143,
      "velocity": 0.64,
      "hand": "left"
    },
    {
      "midi": 53,
      "time": 14.714,
      "duration": 0.143,
      "velocity": 0.64,
      "hand": "left"
    },
    {
      "midi": 62,
      "time": 14.714,
      "duration": 0.143,
      "velocity": 0.58,
      "hand": "right"
    },
    {
      "midi": 70,
      "time": 14.714,
      "duration": 0.143,
      "velocity": 0.58,
      "hand": "right"
    },
    {
      "midi": 51,
      "time": 14.857,
      "duration": 0.429,
      "velocity": 0.61,
      "hand": "left"
    },
    {
      "midi": 55,
      "time": 14.857,
      "duration": 0.429,
      "velocity": 0.61,
      "hand": "left"
    },
    {
      "midi": 63,
      "time": 14.857,
      "duration": 0.429,
      "velocity": 0.66,
      "hand": "right"
    },
    {
      "midi": 72,
      "time": 14.857,
      "duration": 0.429,
      "velocity": 0.66,
      "hand": "right"
    },
    {
      "midi": 51,
      "time": 15.286,
      "duration": 0.143,
      "velocity": 0.61,
      "hand": "left"
    },
    {
      "midi": 55,
      "time": 15.286,
      "duration": 0.143,
      "velocity": 0.61,
      "hand": "left"
    },
    {
      "midi": 63,
      "time": 15.286,
      "duration": 0.143,
      "velocity": 0.61,
      "hand": "right"
    },
    {
      "midi": 72,
      "time": 15.286,
      "duration": 0.143,
      "velocity": 0.61,
      "hand": "right"
    },
    {
      "midi": 53,
      "time": 15.429,
      "duration": 0.429,
      "velocity": 0.57,
      "hand": "left"
    },
    {
      "midi": 63,
      "time": 15.429,
      "duration": 0.429,
      "velocity": 0.54,
      "hand": "right"
    },
    {
      "midi": 69,
      "time": 15.429,
      "duration": 0.429,
      "velocity": 0.54,
      "hand": "right"
    },
    {
      "midi": 53,
      "time": 15.857,
      "duration": 0.143,
      "velocity": 0.6,
      "hand": "left"
    },
    {
      "midi": 63,
      "time": 15.857,
      "duration": 0.143,
      "velocity": 0.59,
      "hand": "right"
    },
    {
      "midi": 69,
      "time": 15.857,
      "duration": 0.143,
      "velocity": 0.59,
      "hand": "right"
    },
    {
      "midi": 46,
      "time": 16,
      "duration": 2.286,
      "velocity": 0.61,
      "hand": "left"
    },
    {
      "midi": 53,
      "time": 16,
      "duration": 2.286,
      "velocity": 0.61,
      "hand": "left"
    },
    {
      "midi": 62,
      "time": 16,
      "duration": 2.286,
      "velocity": 0.63,
      "hand": "right"
    },
    {
      "midi": 70,
      "time": 16,
      "duration": 2.286,
      "velocity": 0.63,
      "hand": "right"
    },
    {
      "midi": 46,
      "time": 18.286,
      "duration": 0.429,
      "velocity": 0.67,
      "hand": "left"
    },
    {
      "midi": 58,
      "time": 18.286,
      "duration": 0.429,
      "velocity": 0.67,
      "hand": "left"
    },
    {
      "midi": 65,
      "time": 18.286,
      "duration": 0.429,
      "velocity": 0.52,
      "hand": "right"
    },
    {
      "midi": 74,
      "time": 18.286,
      "duration": 1.143,
      "velocity": 0.67,
      "hand": "right"
    },
    {
      "midi": 46,
      "time": 18.714,
      "duration": 0.143,
      "velocity": 0.59,
      "hand": "left"
    },
    {
      "midi": 58,
      "time": 18.714,
      "duration": 0.143,
      "velocity": 0.59,
      "hand": "left"
    },
    {
      "midi": 65,
      "time": 18.714,
      "duration": 0.143,
      "velocity": 0.57,
      "hand": "right"
    },
    {
      "midi": 46,
      "time": 18.857,
      "duration": 0.429,
      "velocity": 0.58,
      "hand": "left"
    },
    {
      "midi": 58,
      "time": 18.857,
      "duration": 0.429,
      "velocity": 0.58,
      "hand": "left"
    },
    {
      "midi": 65,
      "time": 18.857,
      "duration": 0.429,
      "velocity": 0.61,
      "hand": "right"
    },
    {
      "midi": 46,
      "time": 19.286,
      "duration": 0.143,
      "velocity": 0.6,
      "hand": "left"
    },
    {
      "midi": 58,
      "time": 19.286,
      "duration": 0.143,
      "velocity": 0.6,
      "hand": "left"
    },
    {
      "midi": 65,
      "time": 19.286,
      "duration": 0.143,
      "velocity": 0.64,
      "hand": "right"
    },
    {
      "midi": 46,
      "time": 19.429,
      "duration": 0.429,
      "velocity": 0.59,
      "hand": "left"
    },
    {
      "midi": 58,
      "time": 19.429,
      "duration": 0.429,
      "velocity": 0.59,
      "hand": "left"
    },
    {
      "midi": 62,
      "time": 19.429,
      "duration": 0.429,
      "velocity": 0.53,
      "hand": "right"
    },
    {
      "midi": 70,
      "time": 19.429,
      "duration": 1.143,
      "velocity": 0.57,
      "hand": "right"
    },
    {
      "midi": 46,
      "time": 19.857,
      "duration": 0.143,
      "velocity": 0.54,
      "hand": "left"
    },
    {
      "midi": 58,
      "time": 19.857,
      "duration": 0.143,
      "velocity": 0.54,
      "hand": "left"
    },
    {
      "midi": 62,
      "time": 19.857,
      "duration": 0.143,
      "velocity": 0.57,
      "hand": "right"
    },
    {
      "midi": 46,
      "time": 20,
      "duration": 0.571,
      "velocity": 0.61,
      "hand": "left"
    },
    {
      "midi": 58,
      "time": 20,
      "duration": 0.571,
      "velocity": 0.61,
      "hand": "left"
    },
    {
      "midi": 62,
      "time": 20,
      "duration": 0.571,
      "velocity": 0.61,
      "hand": "right"
    },
    {
      "midi": 51,
      "time": 20.571,
      "duration": 0.429,
      "velocity": 0.6,
      "hand": "left"
    },
    {
      "midi": 58,
      "time": 20.571,
      "duration": 0.429,
      "velocity": 0.6,
      "hand": "left"
    },
    {
      "midi": 63,
      "time": 20.571,
      "duration": 0.429,
      "velocity": 0.64,
      "hand": "right"
    },
    {
      "midi": 67,
      "time": 20.571,
      "duration": 1.143,
      "velocity": 0.53,
      "hand": "right"
    },
    {
      "midi": 51,
      "time": 21,
      "duration": 0.143,
      "velocity": 0.56,
      "hand": "left"
    },
    {
      "midi": 58,
      "time": 21,
      "duration": 0.143,
      "velocity": 0.56,
      "hand": "left"
    },
    {
      "midi": 63,
      "time": 21,
      "duration": 0.143,
      "velocity": 0.61,
      "hand": "right"
    },
    {
      "midi": 51,
      "time": 21.143,
      "duration": 0.429,
      "velocity": 0.55,
      "hand": "left"
    },
    {
      "midi": 58,
      "time": 21.143,
      "duration": 0.429,
      "velocity": 0.55,
      "hand": "left"
    },
    {
      "midi": 63,
      "time": 21.143,
      "duration": 0.429,
      "velocity": 0.59,
      "hand": "right"
    },
    {
      "midi": 51,
      "time": 21.571,
      "duration": 0.143,
      "velocity": 0.6,
      "hand": "left"
    },
    {
      "midi": 58,
      "time": 21.571,
      "duration": 0.143,
      "velocity": 0.6,
      "hand": "left"
    },
    {
      "midi": 63,
      "time": 21.571,
      "duration": 0.143,
      "velocity": 0.61,
      "hand": "right"
    },
    {
      "midi": 55,
      "time": 21.714,
      "duration": 0.429,
      "velocity": 0.61,
      "hand": "left"
    },
    {
      "midi": 58,
      "time": 21.714,
      "duration": 0.429,
      "velocity": 0.61,
      "hand": "left"
    },
    {
      "midi": 62,
      "time": 21.714,
      "duration": 0.429,
      "velocity": 0.58,
      "hand": "right"
    },
    {
      "midi": 70,
      "time": 21.714,
      "duration": 1.143,
      "velocity": 0.57,
      "hand": "right"
    },
    {
      "midi": 55,
      "time": 22.143,
      "duration": 0.143,
      "velocity": 0.6,
      "hand": "left"
    },
    {
      "midi": 58,
      "time": 22.143,
      "duration": 0.143,
      "velocity": 0.6,
      "hand": "left"
    },
    {
      "midi": 62,
      "time": 22.143,
      "duration": 0.143,
      "velocity": 0.59,
      "hand": "right"
    },
    {
      "midi": 55,
      "time": 22.286,
      "duration": 0.571,
      "velocity": 0.6,
      "hand": "left"
    },
    {
      "midi": 58,
      "time": 22.286,
      "duration": 0.571,
      "velocity": 0.6,
      "hand": "left"
    },
    {
      "midi": 62,
      "time": 22.286,
      "duration": 0.571,
      "velocity": 0.58,
      "hand": "right"
    },
    {
      "midi": 53,
      "time": 22.857,
      "duration": 0.429,
      "velocity": 0.58,
      "hand": "left"
    },
    {
      "midi": 57,
      "time": 22.857,
      "duration": 0.429,
      "velocity": 0.58,
      "hand": "left"
    },
    {
      "midi": 65,
      "time": 22.857,
      "duration": 0.429,
      "velocity": 0.68,
      "hand": "right"
    },
    {
      "midi": 72,
      "time": 22.857,
      "duration": 0.429,
      "velocity": 0.68,
      "hand": "right"
    },
    {
      "midi": 53,
      "time": 23.286,
      "duration": 0.143,
      "velocity": 0.57,
      "hand": "left"
    },
    {
      "midi": 57,
      "time": 23.286,
      "duration": 0.143,
      "velocity": 0.57,
      "hand": "left"
    },
    {
      "midi": 65,
      "time": 23.286,
      "duration": 0.143,
      "velocity": 0.61,
      "hand": "right"
    },
    {
      "midi": 72,
      "time": 23.286,
      "duration": 0.143,
      "velocity": 0.61,
      "hand": "right"
    },
    {
      "midi": 53,
      "time": 23.429,
      "duration": 0.429,
      "velocity": 0.6,
      "hand": "left"
    },
    {
      "midi": 57,
      "time": 23.429,
      "duration": 0.429,
      "velocity": 0.6,
      "hand": "left"
    },
    {
      "midi": 65,
      "time": 23.429,
      "duration": 0.429,
      "velocity": 0.61,
      "hand": "right"
    },
    {
      "midi": 72,
      "time": 23.429,
      "duration": 0.429,
      "velocity": 0.61,
      "hand": "right"
    },
    {
      "midi": 53,
      "time": 23.857,
      "duration": 0.143,
      "velocity": 0.63,
      "hand": "left"
    },
    {
      "midi": 57,
      "time": 23.857,
      "duration": 0.143,
      "velocity": 0.63,
      "hand": "left"
    },
    {
      "midi": 65,
      "time": 23.857,
      "duration": 0.143,
      "velocity": 0.59,
      "hand": "right"
    },
    {
      "midi": 72,
      "time": 23.857,
      "duration": 0.143,
      "velocity": 0.59,
      "hand": "right"
    },
    {
      "midi": 53,
      "time": 24,
      "duration": 0.429,
      "velocity": 0.58,
      "hand": "left"
    },
    {
      "midi": 57,
      "time": 24,
      "duration": 0.429,
      "velocity": 0.58,
      "hand": "left"
    },
    {
      "midi": 65,
      "time": 24,
      "duration": 0.429,
      "velocity": 0.59,
      "hand": "right"
    },
    {
      "midi": 72,
      "time": 24,
      "duration": 0.429,
      "velocity": 0.59,
      "hand": "right"
    },
    {
      "midi": 53,
      "time": 24.429,
      "duration": 0.143,
      "velocity": 0.61,
      "hand": "left"
    },
    {
      "midi": 57,
      "time": 24.429,
      "duration": 0.143,
      "velocity": 0.61,
      "hand": "left"
    },
    {
      "midi": 65,
      "time": 24.429,
      "duration": 0.143,
      "velocity": 0.57,
      "hand": "right"
    },
    {
      "midi": 72,
      "time": 24.429,
      "duration": 0.143,
      "velocity": 0.57,
      "hand": "right"
    },
    {
      "midi": 53,
      "time": 24.571,
      "duration": 0.429,
      "velocity": 0.6,
      "hand": "left"
    },
    {
      "midi": 55,
      "time": 24.571,
      "duration": 0.429,
      "velocity": 0.6,
      "hand": "left"
    },
    {
      "midi": 65,
      "time": 24.571,
      "duration": 0.429,
      "velocity": 0.58,
      "hand": "right"
    },
    {
      "midi": 70,
      "time": 24.571,
      "duration": 0.429,
      "velocity": 0.58,
      "hand": "right"
    },
    {
      "midi": 53,
      "time": 25,
      "duration": 0.143,
      "velocity": 0.61,
      "hand": "left"
    },
    {
      "midi": 57,
      "time": 25,
      "duration": 0.143,
      "velocity": 0.61,
      "hand": "left"
    },
    {
      "midi": 65,
      "time": 25,
      "duration": 0.143,
      "velocity": 0.61,
      "hand": "right"
    },
    {
      "midi": 72,
      "time": 25,
      "duration": 0.143,
      "velocity": 0.61,
      "hand": "right"
    },
    {
      "midi": 58,
      "time": 25.143,
      "duration": 0.571,
      "velocity": 0.62,
      "hand": "left"
    },
    {
      "midi": 65,
      "time": 25.143,
      "duration": 0.571,
      "velocity": 0.65,
      "hand": "right"
    },
    {
      "midi": 74,
      "time": 25.143,
      "duration": 0.571,
      "velocity": 0.65,
      "hand": "right"
    },
    {
      "midi": 46,
      "time": 25.714,
      "duration": 0.571,
      "velocity": 0.54,
      "hand": "left"
    },
    {
      "midi": 53,
      "time": 25.714,
      "duration": 0.571,
      "velocity": 0.54,
      "hand": "left"
    },
    {
      "midi": 62,
      "time": 25.714,
      "duration": 0.571,
      "velocity": 0.53,
      "hand": "right"
    },
    {
      "midi": 70,
      "time": 25.714,
      "duration": 0.571,
      "velocity": 0.53,
      "hand": "right"
    },
    {
      "midi": 46,
      "time": 26.286,
      "duration": 0.571,
      "velocity": 0.6,
      "hand": "left"
    },
    {
      "midi": 58,
      "time": 26.286,
      "duration": 0.571,
      "velocity": 0.6,
      "hand": "left"
    },
    {
      "midi": 63,
      "time": 26.286,
      "duration": 0.571,
      "velocity": 0.53,
      "hand": "right"
    },
    {
      "midi": 67,
      "time": 26.286,
      "duration": 0.571,
      "velocity": 0.53,
      "hand": "right"
    },
    {
      "midi": 46,
      "time": 26.857,
      "duration": 0.571,
      "velocity": 0.56,
      "hand": "left"
    },
    {
      "midi": 53,
      "time": 26.857,
      "duration": 0.571,
      "velocity": 0.56,
      "hand": "left"
    },
    {
      "midi": 62,
      "time": 26.857,
      "duration": 0.571,
      "velocity": 0.63,
      "hand": "right"
    },
    {
      "midi": 70,
      "time": 26.857,
      "duration": 0.571,
      "velocity": 0.63,
      "hand": "right"
    },
    {
      "midi": 46,
      "time": 27.429,
      "duration": 0.429,
      "velocity": 0.64,
      "hand": "left"
    },
    {
      "midi": 58,
      "time": 27.429,
      "duration": 0.429,
      "velocity": 0.64,
      "hand": "left"
    },
    {
      "midi": 65,
      "time": 27.429,
      "duration": 0.429,
      "velocity": 0.63,
      "hand": "right"
    },
    {
      "midi": 74,
      "time": 27.429,
      "duration": 1.143,
      "velocity": 0.69,
      "hand": "right"
    },
    {
      "midi": 46,
      "time": 27.857,
      "duration": 0.143,
      "velocity": 0.61,
      "hand": "left"
    },
    {
      "midi": 58,
      "time": 27.857,
      "duration": 0.143,
      "velocity": 0.61,
      "hand": "left"
    },
    {
      "midi": 65,
      "time": 27.857,
      "duration": 0.143,
      "velocity": 0.61,
      "hand": "right"
    },
    {
      "midi": 46,
      "time": 28,
      "duration": 0.429,
      "velocity": 0.57,
      "hand": "left"
    },
    {
      "midi": 58,
      "time": 28,
      "duration": 0.429,
      "velocity": 0.57,
      "hand": "left"
    },
    {
      "midi": 65,
      "time": 28,
      "duration": 0.429,
      "velocity": 0.55,
      "hand": "right"
    },
    {
      "midi": 46,
      "time": 28.429,
      "duration": 0.143,
      "velocity": 0.61,
      "hand": "left"
    },
    {
      "midi": 58,
      "time": 28.429,
      "duration": 0.143,
      "velocity": 0.61,
      "hand": "left"
    },
    {
      "midi": 65,
      "time": 28.429,
      "duration": 0.143,
      "velocity": 0.56,
      "hand": "right"
    },
    {
      "midi": 46,
      "time": 28.571,
      "duration": 0.429,
      "velocity": 0.62,
      "hand": "left"
    },
    {
      "midi": 58,
      "time": 28.571,
      "duration": 0.429,
      "velocity": 0.62,
      "hand": "left"
    },
    {
      "midi": 62,
      "time": 28.571,
      "duration": 0.429,
      "velocity": 0.56,
      "hand": "right"
    },
    {
      "midi": 70,
      "time": 28.571,
      "duration": 1.143,
      "velocity": 0.5,
      "hand": "right"
    },
    {
      "midi": 46,
      "time": 29,
      "duration": 0.143,
      "velocity": 0.61,
      "hand": "left"
    },
    {
      "midi": 58,
      "time": 29,
      "duration": 0.143,
      "velocity": 0.61,
      "hand": "left"
    },
    {
      "midi": 62,
      "time": 29,
      "duration": 0.143,
      "velocity": 0.58,
      "hand": "right"
    },
    {
      "midi": 46,
      "time": 29.143,
      "duration": 0.571,
      "velocity": 0.55,
      "hand": "left"
    },
    {
      "midi": 58,
      "time": 29.143,
      "duration": 0.571,
      "velocity": 0.55,
      "hand": "left"
    },
    {
      "midi": 62,
      "time": 29.143,
      "duration": 0.571,
      "velocity": 0.58,
      "hand": "right"
    },
    {
      "midi": 51,
      "time": 29.714,
      "duration": 0.429,
      "velocity": 0.62,
      "hand": "left"
    },
    {
      "midi": 58,
      "time": 29.714,
      "duration": 0.429,
      "velocity": 0.62,
      "hand": "left"
    },
    {
      "midi": 63,
      "time": 29.714,
      "duration": 0.429,
      "velocity": 0.61,
      "hand": "right"
    },
    {
      "midi": 67,
      "time": 29.714,
      "duration": 1.143,
      "velocity": 0.52,
      "hand": "right"
    },
    {
      "midi": 51,
      "time": 30.143,
      "duration": 0.143,
      "velocity": 0.57,
      "hand": "left"
    },
    {
      "midi": 58,
      "time": 30.143,
      "duration": 0.143,
      "velocity": 0.57,
      "hand": "left"
    },
    {
      "midi": 63,
      "time": 30.143,
      "duration": 0.143,
      "velocity": 0.6,
      "hand": "right"
    },
    {
      "midi": 51,
      "time": 30.286,
      "duration": 0.429,
      "velocity": 0.61,
      "hand": "left"
    },
    {
      "midi": 58,
      "time": 30.286,
      "duration": 0.429,
      "velocity": 0.61,
      "hand": "left"
    },
    {
      "midi": 63,
      "time": 30.286,
      "duration": 0.429,
      "velocity": 0.6,
      "hand": "right"
    },
    {
      "midi": 51,
      "time": 30.714,
      "duration": 0.143,
      "velocity": 0.6,
      "hand": "left"
    },
    {
      "midi": 58,
      "time": 30.714,
      "duration": 0.143,
      "velocity": 0.6,
      "hand": "left"
    },
    {
      "midi": 63,
      "time": 30.714,
      "duration": 0.143,
      "velocity": 0.61,
      "hand": "right"
    },
    {
      "midi": 51,
      "time": 30.857,
      "duration": 0.429,
      "velocity": 0.61,
      "hand": "left"
    },
    {
      "midi": 58,
      "time": 30.857,
      "duration": 0.429,
      "velocity": 0.61,
      "hand": "left"
    },
    {
      "midi": 67,
      "time": 30.857,
      "duration": 0.429,
      "velocity": 0.65,
      "hand": "right"
    },
    {
      "midi": 75,
      "time": 30.857,
      "duration": 2,
      "velocity": 0.71,
      "hand": "right"
    },
    {
      "midi": 51,
      "time": 31.286,
      "duration": 0.143,
      "velocity": 0.61,
      "hand": "left"
    },
    {
      "midi": 58,
      "time": 31.286,
      "duration": 0.143,
      "velocity": 0.61,
      "hand": "left"
    },
    {
      "midi": 67,
      "time": 31.286,
      "duration": 0.143,
      "velocity": 0.58,
      "hand": "right"
    },
    {
      "midi": 51,
      "time": 31.429,
      "duration": 1.429,
      "velocity": 0.59,
      "hand": "left"
    },
    {
      "midi": 58,
      "time": 31.429,
      "duration": 1.429,
      "velocity": 0.59,
      "hand": "left"
    },
    {
      "midi": 67,
      "time": 31.429,
      "duration": 1.429,
      "velocity": 0.6,
      "hand": "right"
    },
    {
      "midi": 51,
      "time": 32.857,
      "duration": 0.286,
      "velocity": 0.58,
      "hand": "left"
    },
    {
      "midi": 55,
      "time": 32.857,
      "duration": 0.286,
      "velocity": 0.58,
      "hand": "left"
    },
    {
      "midi": 63,
      "time": 32.857,
      "duration": 0.286,
      "velocity": 0.57,
      "hand": "right"
    },
    {
      "midi": 72,
      "time": 32.857,
      "duration": 0.286,
      "velocity": 0.57,
      "hand": "right"
    },
    {
      "midi": 53,
      "time": 33.143,
      "duration": 0.429,
      "velocity": 0.64,
      "hand": "left"
    },
    {
      "midi": 58,
      "time": 33.143,
      "duration": 0.429,
      "velocity": 0.64,
      "hand": "left"
    },
    {
      "midi": 62,
      "time": 33.143,
      "duration": 0.429,
      "velocity": 0.53,
      "hand": "right"
    },
    {
      "midi": 70,
      "time": 33.143,
      "duration": 0.429,
      "velocity": 0.53,
      "hand": "right"
    },
    {
      "midi": 53,
      "time": 33.571,
      "duration": 0.143,
      "velocity": 0.6,
      "hand": "left"
    },
    {
      "midi": 58,
      "time": 33.571,
      "duration": 0.143,
      "velocity": 0.6,
      "hand": "left"
    },
    {
      "midi": 62,
      "time": 33.571,
      "duration": 0.143,
      "velocity": 0.55,
      "hand": "right"
    },
    {
      "midi": 70,
      "time": 33.571,
      "duration": 0.143,
      "velocity": 0.55,
      "hand": "right"
    },
    {
      "midi": 53,
      "time": 33.714,
      "duration": 0.429,
      "velocity": 0.58,
      "hand": "left"
    },
    {
      "midi": 58,
      "time": 33.714,
      "duration": 0.429,
      "velocity": 0.58,
      "hand": "left"
    },
    {
      "midi": 62,
      "time": 33.714,
      "duration": 0.429,
      "velocity": 0.6,
      "hand": "right"
    },
    {
      "midi": 70,
      "time": 33.714,
      "duration": 0.429,
      "velocity": 0.6,
      "hand": "right"
    },
    {
      "midi": 53,
      "time": 34.143,
      "duration": 0.143,
      "velocity": 0.56,
      "hand": "left"
    },
    {
      "midi": 57,
      "time": 34.143,
      "duration": 0.143,
      "velocity": 0.56,
      "hand": "left"
    },
    {
      "midi": 63,
      "time": 34.143,
      "duration": 0.143,
      "velocity": 0.66,
      "hand": "right"
    },
    {
      "midi": 72,
      "time": 34.143,
      "duration": 0.143,
      "velocity": 0.66,
      "hand": "right"
    },
    {
      "midi": 53,
      "time": 34.286,
      "duration": 0.429,
      "velocity": 0.61,
      "hand": "left"
    },
    {
      "midi": 58,
      "time": 34.286,
      "duration": 0.429,
      "velocity": 0.61,
      "hand": "left"
    },
    {
      "midi": 65,
      "time": 34.286,
      "duration": 0.429,
      "velocity": 0.64,
      "hand": "right"
    },
    {
      "midi": 74,
      "time": 34.286,
      "duration": 0.429,
      "velocity": 0.64,
      "hand": "right"
    },
    {
      "midi": 53,
      "time": 34.714,
      "duration": 0.143,
      "velocity": 0.62,
      "hand": "left"
    },
    {
      "midi": 58,
      "time": 34.714,
      "duration": 0.143,
      "velocity": 0.62,
      "hand": "left"
    },
    {
      "midi": 65,
      "time": 34.714,
      "duration": 0.143,
      "velocity": 0.64,
      "hand": "right"
    },
    {
      "midi": 74,
      "time": 34.714,
      "duration": 0.143,
      "velocity": 0.64,
      "hand": "right"
    },
    {
      "midi": 53,
      "time": 34.857,
      "duration": 0.429,
      "velocity": 0.58,
      "hand": "left"
    },
    {
      "midi": 57,
      "time": 34.857,
      "duration": 0.429,
      "velocity": 0.58,
      "hand": "left"
    },
    {
      "midi": 63,
      "time": 34.857,
      "duration": 0.429,
      "velocity": 0.57,
      "hand": "right"
    },
    {
      "midi": 72,
      "time": 34.857,
      "duration": 0.429,
      "velocity": 0.57,
      "hand": "right"
    },
    {
      "midi": 53,
      "time": 35.286,
      "duration": 0.143,
      "velocity": 0.57,
      "hand": "left"
    },
    {
      "midi": 63,
      "time": 35.286,
      "duration": 0.143,
      "velocity": 0.58,
      "hand": "right"
    },
    {
      "midi": 72,
      "time": 35.286,
      "duration": 0.143,
      "velocity": 0.58,
      "hand": "right"
    },
    {
      "midi": 46,
      "time": 35.429,
      "duration": 2.286,
      "velocity": 0.58,
      "hand": "left"
    },
    {
      "midi": 53,
      "time": 35.429,
      "duration": 2.286,
      "velocity": 0.58,
      "hand": "left"
    },
    {
      "midi": 62,
      "time": 35.429,
      "duration": 2.286,
      "velocity": 0.57,
      "hand": "right"
    },
    {
      "midi": 70,
      "time": 35.429,
      "duration": 2.286,
      "velocity": 0.57,
      "hand": "right"
    }
  ],
  "arrangements": {
    "easy": [
      {
        "midi": 65,
        "time": 0,
        "duration": 0.429,
        "velocity": 0.51,
        "hand": "right"
      },
      {
        "midi": 65,
        "time": 0.429,
        "duration": 0.19,
        "velocity": 0.57,
        "hand": "right"
      },
      {
        "midi": 67,
        "time": 1,
        "duration": 0.19,
        "velocity": 0.62,
        "hand": "right"
      },
      {
        "midi": 65,
        "time": 1.143,
        "duration": 0.429,
        "velocity": 0.57,
        "hand": "right"
      },
      {
        "midi": 63,
        "time": 1.571,
        "duration": 0.19,
        "velocity": 0.57,
        "hand": "right"
      },
      {
        "midi": 62,
        "time": 1.714,
        "duration": 0.429,
        "velocity": 0.57,
        "hand": "right"
      },
      {
        "midi": 63,
        "time": 2.143,
        "duration": 0.19,
        "velocity": 0.6,
        "hand": "right"
      },
      {
        "midi": 65,
        "time": 2.286,
        "duration": 0.571,
        "velocity": 0.64,
        "hand": "right"
      },
      {
        "midi": 70,
        "time": 2.857,
        "duration": 0.571,
        "velocity": 0.71,
        "hand": "right"
      },
      {
        "midi": 70,
        "time": 3.429,
        "duration": 1.143,
        "velocity": 0.61,
        "hand": "right"
      },
      {
        "midi": 67,
        "time": 4.571,
        "duration": 0.429,
        "velocity": 0.55,
        "hand": "right"
      },
      {
        "midi": 67,
        "time": 5,
        "duration": 0.19,
        "velocity": 0.61,
        "hand": "right"
      },
      {
        "midi": 67,
        "time": 5.143,
        "duration": 0.429,
        "velocity": 0.62,
        "hand": "right"
      },
      {
        "midi": 69,
        "time": 5.571,
        "duration": 0.19,
        "velocity": 0.65,
        "hand": "right"
      },
      {
        "midi": 70,
        "time": 5.714,
        "duration": 0.429,
        "velocity": 0.62,
        "hand": "right"
      },
      {
        "midi": 70,
        "time": 6.143,
        "duration": 0.19,
        "velocity": 0.58,
        "hand": "right"
      },
      {
        "midi": 69,
        "time": 6.286,
        "duration": 0.429,
        "velocity": 0.55,
        "hand": "right"
      },
      {
        "midi": 67,
        "time": 6.714,
        "duration": 0.19,
        "velocity": 0.52,
        "hand": "right"
      },
      {
        "midi": 67,
        "time": 6.857,
        "duration": 0.571,
        "velocity": 0.58,
        "hand": "right"
      },
      {
        "midi": 65,
        "time": 7.429,
        "duration": 0.571,
        "velocity": 0.54,
        "hand": "right"
      },
      {
        "midi": 65,
        "time": 8,
        "duration": 1.143,
        "velocity": 0.57,
        "hand": "right"
      },
      {
        "midi": 65,
        "time": 9.143,
        "duration": 0.429,
        "velocity": 0.62,
        "hand": "right"
      },
      {
        "midi": 65,
        "time": 9.571,
        "duration": 0.19,
        "velocity": 0.59,
        "hand": "right"
      },
      {
        "midi": 65,
        "time": 9.714,
        "duration": 0.429,
        "velocity": 0.62,
        "hand": "right"
      },
      {
        "midi": 67,
        "time": 10.143,
        "duration": 0.19,
        "velocity": 0.62,
        "hand": "right"
      },
      {
        "midi": 65,
        "time": 10.286,
        "duration": 0.429,
        "velocity": 0.55,
        "hand": "right"
      },
      {
        "midi": 63,
        "time": 10.714,
        "duration": 0.19,
        "velocity": 0.53,
        "hand": "right"
      },
      {
        "midi": 62,
        "time": 10.857,
        "duration": 0.429,
        "velocity": 0.56,
        "hand": "right"
      },
      {
        "midi": 63,
        "time": 11.286,
        "duration": 0.19,
        "velocity": 0.65,
        "hand": "right"
      },
      {
        "midi": 65,
        "time": 11.429,
        "duration": 0.571,
        "velocity": 0.62,
        "hand": "right"
      },
      {
        "midi": 70,
        "time": 12,
        "duration": 0.571,
        "velocity": 0.7,
        "hand": "right"
      },
      {
        "midi": 70,
        "time": 12.571,
        "duration": 1.143,
        "velocity": 0.6,
        "hand": "right"
      },
      {
        "midi": 74,
        "time": 13.714,
        "duration": 0.429,
        "velocity": 0.66,
        "hand": "right"
      },
      {
        "midi": 74,
        "time": 14.143,
        "duration": 0.19,
        "velocity": 0.66,
        "hand": "right"
      },
      {
        "midi": 70,
        "time": 14.286,
        "duration": 0.429,
        "velocity": 0.52,
        "hand": "right"
      },
      {
        "midi": 70,
        "time": 14.714,
        "duration": 0.19,
        "velocity": 0.58,
        "hand": "right"
      },
      {
        "midi": 72,
        "time": 14.857,
        "duration": 0.429,
        "velocity": 0.66,
        "hand": "right"
      },
      {
        "midi": 72,
        "time": 15.286,
        "duration": 0.19,
        "velocity": 0.61,
        "hand": "right"
      },
      {
        "midi": 69,
        "time": 15.429,
        "duration": 0.429,
        "velocity": 0.54,
        "hand": "right"
      },
      {
        "midi": 69,
        "time": 15.857,
        "duration": 0.19,
        "velocity": 0.59,
        "hand": "right"
      },
      {
        "midi": 70,
        "time": 16,
        "duration": 2.286,
        "velocity": 0.63,
        "hand": "right"
      },
      {
        "midi": 74,
        "time": 18.286,
        "duration": 1.143,
        "velocity": 0.67,
        "hand": "right"
      },
      {
        "midi": 65,
        "time": 18.714,
        "duration": 0.19,
        "velocity": 0.57,
        "hand": "right"
      },
      {
        "midi": 65,
        "time": 18.857,
        "duration": 0.429,
        "velocity": 0.61,
        "hand": "right"
      },
      {
        "midi": 65,
        "time": 19.286,
        "duration": 0.19,
        "velocity": 0.64,
        "hand": "right"
      },
      {
        "midi": 70,
        "time": 19.429,
        "duration": 1.143,
        "velocity": 0.57,
        "hand": "right"
      },
      {
        "midi": 62,
        "time": 19.857,
        "duration": 0.19,
        "velocity": 0.57,
        "hand": "right"
      },
      {
        "midi": 62,
        "time": 20,
        "duration": 0.571,
        "velocity": 0.61,
        "hand": "right"
      },
      {
        "midi": 67,
        "time": 20.571,
        "duration": 1.143,
        "velocity": 0.53,
        "hand": "right"
      },
      {
        "midi": 63,
        "time": 21,
        "duration": 0.19,
        "velocity": 0.61,
        "hand": "right"
      },
      {
        "midi": 63,
        "time": 21.143,
        "duration": 0.429,
        "velocity": 0.59,
        "hand": "right"
      },
      {
        "midi": 63,
        "time": 21.571,
        "duration": 0.19,
        "velocity": 0.61,
        "hand": "right"
      },
      {
        "midi": 70,
        "time": 21.714,
        "duration": 1.143,
        "velocity": 0.57,
        "hand": "right"
      },
      {
        "midi": 62,
        "time": 22.143,
        "duration": 0.19,
        "velocity": 0.59,
        "hand": "right"
      },
      {
        "midi": 62,
        "time": 22.286,
        "duration": 0.571,
        "velocity": 0.58,
        "hand": "right"
      },
      {
        "midi": 72,
        "time": 22.857,
        "duration": 0.429,
        "velocity": 0.68,
        "hand": "right"
      },
      {
        "midi": 72,
        "time": 23.286,
        "duration": 0.19,
        "velocity": 0.61,
        "hand": "right"
      },
      {
        "midi": 72,
        "time": 23.429,
        "duration": 0.429,
        "velocity": 0.61,
        "hand": "right"
      },
      {
        "midi": 72,
        "time": 23.857,
        "duration": 0.19,
        "velocity": 0.59,
        "hand": "right"
      },
      {
        "midi": 72,
        "time": 24,
        "duration": 0.429,
        "velocity": 0.59,
        "hand": "right"
      },
      {
        "midi": 72,
        "time": 24.429,
        "duration": 0.19,
        "velocity": 0.57,
        "hand": "right"
      },
      {
        "midi": 70,
        "time": 24.571,
        "duration": 0.429,
        "velocity": 0.58,
        "hand": "right"
      },
      {
        "midi": 72,
        "time": 25,
        "duration": 0.19,
        "velocity": 0.61,
        "hand": "right"
      },
      {
        "midi": 74,
        "time": 25.143,
        "duration": 0.571,
        "velocity": 0.65,
        "hand": "right"
      },
      {
        "midi": 70,
        "time": 25.714,
        "duration": 0.571,
        "velocity": 0.53,
        "hand": "right"
      },
      {
        "midi": 67,
        "time": 26.286,
        "duration": 0.571,
        "velocity": 0.53,
        "hand": "right"
      },
      {
        "midi": 70,
        "time": 26.857,
        "duration": 0.571,
        "velocity": 0.63,
        "hand": "right"
      },
      {
        "midi": 74,
        "time": 27.429,
        "duration": 1.143,
        "velocity": 0.69,
        "hand": "right"
      },
      {
        "midi": 65,
        "time": 27.857,
        "duration": 0.19,
        "velocity": 0.61,
        "hand": "right"
      },
      {
        "midi": 65,
        "time": 28,
        "duration": 0.429,
        "velocity": 0.55,
        "hand": "right"
      },
      {
        "midi": 65,
        "time": 28.429,
        "duration": 0.19,
        "velocity": 0.56,
        "hand": "right"
      },
      {
        "midi": 70,
        "time": 28.571,
        "duration": 1.143,
        "velocity": 0.5,
        "hand": "right"
      },
      {
        "midi": 62,
        "time": 29,
        "duration": 0.19,
        "velocity": 0.58,
        "hand": "right"
      },
      {
        "midi": 62,
        "time": 29.143,
        "duration": 0.571,
        "velocity": 0.58,
        "hand": "right"
      },
      {
        "midi": 67,
        "time": 29.714,
        "duration": 1.143,
        "velocity": 0.52,
        "hand": "right"
      },
      {
        "midi": 63,
        "time": 30.143,
        "duration": 0.19,
        "velocity": 0.6,
        "hand": "right"
      },
      {
        "midi": 63,
        "time": 30.286,
        "duration": 0.429,
        "velocity": 0.6,
        "hand": "right"
      },
      {
        "midi": 63,
        "time": 30.714,
        "duration": 0.19,
        "velocity": 0.61,
        "hand": "right"
      },
      {
        "midi": 75,
        "time": 30.857,
        "duration": 2,
        "velocity": 0.71,
        "hand": "right"
      },
      {
        "midi": 67,
        "time": 31.286,
        "duration": 0.19,
        "velocity": 0.58,
        "hand": "right"
      },
      {
        "midi": 67,
        "time": 31.429,
        "duration": 1.429,
        "velocity": 0.6,
        "hand": "right"
      },
      {
        "midi": 72,
        "time": 32.857,
        "duration": 0.286,
        "velocity": 0.57,
        "hand": "right"
      },
      {
        "midi": 70,
        "time": 33.143,
        "duration": 0.429,
        "velocity": 0.53,
        "hand": "right"
      },
      {
        "midi": 70,
        "time": 33.571,
        "duration": 0.19,
        "velocity": 0.55,
        "hand": "right"
      },
      {
        "midi": 70,
        "time": 33.714,
        "duration": 0.429,
        "velocity": 0.6,
        "hand": "right"
      },
      {
        "midi": 72,
        "time": 34.143,
        "duration": 0.19,
        "velocity": 0.66,
        "hand": "right"
      },
      {
        "midi": 74,
        "time": 34.286,
        "duration": 0.429,
        "velocity": 0.64,
        "hand": "right"
      },
      {
        "midi": 74,
        "time": 34.714,
        "duration": 0.19,
        "velocity": 0.64,
        "hand": "right"
      },
      {
        "midi": 72,
        "time": 34.857,
        "duration": 0.429,
        "velocity": 0.57,
        "hand": "right"
      },
      {
        "midi": 72,
        "time": 35.286,
        "duration": 0.19,
        "velocity": 0.58,
        "hand": "right"
      },
      {
        "midi": 70,
        "time": 35.429,
        "duration": 2.286,
        "velocity": 0.57,
        "hand": "right"
      }
    ],
    "medium": [
      {
        "midi": 46,
        "time": 0,
        "duration": 0.429,
        "velocity": 0.54,
        "hand": "left"
      },
      {
        "midi": 62,
        "time": 0,
        "duration": 0.429,
        "velocity": 0.51,
        "hand": "right"
      },
      {
        "midi": 65,
        "time": 0,
        "duration": 0.429,
        "velocity": 0.51,
        "hand": "right"
      },
      {
        "midi": 46,
        "time": 0.429,
        "duration": 0.143,
        "velocity": 0.58,
        "hand": "left"
      },
      {
        "midi": 62,
        "time": 0.429,
        "duration": 0.143,
        "velocity": 0.57,
        "hand": "right"
      },
      {
        "midi": 65,
        "time": 0.429,
        "duration": 0.143,
        "velocity": 0.57,
        "hand": "right"
      },
      {
        "midi": 46,
        "time": 0.571,
        "duration": 0.429,
        "velocity": 0.6,
        "hand": "left"
      },
      {
        "midi": 62,
        "time": 0.571,
        "duration": 0.429,
        "velocity": 0.56,
        "hand": "right"
      },
      {
        "midi": 65,
        "time": 0.571,
        "duration": 0.429,
        "velocity": 0.56,
        "hand": "right"
      },
      {
        "midi": 46,
        "time": 1,
        "duration": 0.143,
        "velocity": 0.61,
        "hand": "left"
      },
      {
        "midi": 63,
        "time": 1,
        "duration": 0.143,
        "velocity": 0.62,
        "hand": "right"
      },
      {
        "midi": 67,
        "time": 1,
        "duration": 0.143,
        "velocity": 0.62,
        "hand": "right"
      },
      {
        "midi": 46,
        "time": 1.143,
        "duration": 0.429,
        "velocity": 0.57,
        "hand": "left"
      },
      {
        "midi": 62,
        "time": 1.143,
        "duration": 0.429,
        "velocity": 0.57,
        "hand": "right"
      },
      {
        "midi": 65,
        "time": 1.143,
        "duration": 0.429,
        "velocity": 0.57,
        "hand": "right"
      },
      {
        "midi": 46,
        "time": 1.571,
        "duration": 0.143,
        "velocity": 0.55,
        "hand": "left"
      },
      {
        "midi": 60,
        "time": 1.571,
        "duration": 0.143,
        "velocity": 0.57,
        "hand": "right"
      },
      {
        "midi": 63,
        "time": 1.571,
        "duration": 0.143,
        "velocity": 0.57,
        "hand": "right"
      },
      {
        "midi": 46,
        "time": 1.714,
        "duration": 0.429,
        "velocity": 0.61,
        "hand": "left"
      },
      {
        "midi": 58,
        "time": 1.714,
        "duration": 0.429,
        "velocity": 0.57,
        "hand": "left"
      },
      {
        "midi": 62,
        "time": 1.714,
        "duration": 0.429,
        "velocity": 0.57,
        "hand": "right"
      },
      {
        "midi": 46,
        "time": 2.143,
        "duration": 0.143,
        "velocity": 0.59,
        "hand": "left"
      },
      {
        "midi": 60,
        "time": 2.143,
        "duration": 0.143,
        "velocity": 0.6,
        "hand": "right"
      },
      {
        "midi": 63,
        "time": 2.143,
        "duration": 0.143,
        "velocity": 0.6,
        "hand": "right"
      },
      {
        "midi": 46,
        "time": 2.286,
        "duration": 0.571,
        "velocity": 0.63,
        "hand": "left"
      },
      {
        "midi": 62,
        "time": 2.286,
        "duration": 0.571,
        "velocity": 0.64,
        "hand": "right"
      },
      {
        "midi": 65,
        "time": 2.286,
        "duration": 0.571,
        "velocity": 0.64,
        "hand": "right"
      },
      {
        "midi": 46,
        "time": 2.857,
        "duration": 0.571,
        "velocity": 0.6,
        "hand": "left"
      },
      {
        "midi": 62,
        "time": 2.857,
        "duration": 0.571,
        "velocity": 0.71,
        "hand": "right"
      },
      {
        "midi": 70,
        "time": 2.857,
        "duration": 0.571,
        "velocity": 0.71,
        "hand": "right"
      },
      {
        "midi": 46,
        "time": 3.429,
        "duration": 1.143,
        "velocity": 0.61,
        "hand": "left"
      },
      {
        "midi": 62,
        "time": 3.429,
        "duration": 1.143,
        "velocity": 0.61,
        "hand": "right"
      },
      {
        "midi": 70,
        "time": 3.429,
        "duration": 1.143,
        "velocity": 0.61,
        "hand": "right"
      },
      {
        "midi": 51,
        "time": 4.571,
        "duration": 0.429,
        "velocity": 0.59,
        "hand": "left"
      },
      {
        "midi": 63,
        "time": 4.571,
        "duration": 0.429,
        "velocity": 0.55,
        "hand": "right"
      },
      {
        "midi": 67,
        "time": 4.571,
        "duration": 0.429,
        "velocity": 0.55,
        "hand": "right"
      },
      {
        "midi": 51,
        "time": 5,
        "duration": 0.143,
        "velocity": 0.6,
        "hand": "left"
      },
      {
        "midi": 63,
        "time": 5,
        "duration": 0.143,
        "velocity": 0.61,
        "hand": "right"
      },
      {
        "midi": 67,
        "time": 5,
        "duration": 0.143,
        "velocity": 0.61,
        "hand": "right"
      },
      {
        "midi": 51,
        "time": 5.143,
        "duration": 0.429,
        "velocity": 0.61,
        "hand": "left"
      },
      {
        "midi": 63,
        "time": 5.143,
        "duration": 0.429,
        "velocity": 0.62,
        "hand": "right"
      },
      {
        "midi": 67,
        "time": 5.143,
        "duration": 0.429,
        "velocity": 0.62,
        "hand": "right"
      },
      {
        "midi": 51,
        "time": 5.571,
        "duration": 0.143,
        "velocity": 0.57,
        "hand": "left"
      },
      {
        "midi": 65,
        "time": 5.571,
        "duration": 0.143,
        "velocity": 0.65,
        "hand": "right"
      },
      {
        "midi": 69,
        "time": 5.571,
        "duration": 0.143,
        "velocity": 0.65,
        "hand": "right"
      },
      {
        "midi": 51,
        "time": 5.714,
        "duration": 0.429,
        "velocity": 0.69,
        "hand": "left"
      },
      {
        "midi": 67,
        "time": 5.714,
        "duration": 0.429,
        "velocity": 0.62,
        "hand": "right"
      },
      {
        "midi": 70,
        "time": 5.714,
        "duration": 0.429,
        "velocity": 0.62,
        "hand": "right"
      },
      {
        "midi": 51,
        "time": 6.143,
        "duration": 0.143,
        "velocity": 0.61,
        "hand": "left"
      },
      {
        "midi": 67,
        "time": 6.143,
        "duration": 0.143,
        "velocity": 0.58,
        "hand": "right"
      },
      {
        "midi": 70,
        "time": 6.143,
        "duration": 0.143,
        "velocity": 0.58,
        "hand": "right"
      },
      {
        "midi": 51,
        "time": 6.286,
        "duration": 0.429,
        "velocity": 0.56,
        "hand": "left"
      },
      {
        "midi": 65,
        "time": 6.286,
        "duration": 0.429,
        "velocity": 0.55,
        "hand": "right"
      },
      {
        "midi": 69,
        "time": 6.286,
        "duration": 0.429,
        "velocity": 0.55,
        "hand": "right"
      },
      {
        "midi": 51,
        "time": 6.714,
        "duration": 0.143,
        "velocity": 0.57,
        "hand": "left"
      },
      {
        "midi": 63,
        "time": 6.714,
        "duration": 0.143,
        "velocity": 0.52,
        "hand": "right"
      },
      {
        "midi": 67,
        "time": 6.714,
        "duration": 0.143,
        "velocity": 0.52,
        "hand": "right"
      },
      {
        "midi": 46,
        "time": 6.857,
        "duration": 0.571,
        "velocity": 0.58,
        "hand": "left"
      },
      {
        "midi": 63,
        "time": 6.857,
        "duration": 0.571,
        "velocity": 0.58,
        "hand": "right"
      },
      {
        "midi": 67,
        "time": 6.857,
        "duration": 0.571,
        "velocity": 0.58,
        "hand": "right"
      },
      {
        "midi": 46,
        "time": 7.429,
        "duration": 0.571,
        "velocity": 0.61,
        "hand": "left"
      },
      {
        "midi": 62,
        "time": 7.429,
        "duration": 0.571,
        "velocity": 0.54,
        "hand": "right"
      },
      {
        "midi": 65,
        "time": 7.429,
        "duration": 0.571,
        "velocity": 0.54,
        "hand": "right"
      },
      {
        "midi": 46,
        "time": 8,
        "duration": 1.143,
        "velocity": 0.6,
        "hand": "left"
      },
      {
        "midi": 62,
        "time": 8,
        "duration": 1.143,
        "velocity": 0.57,
        "hand": "right"
      },
      {
        "midi": 65,
        "time": 8,
        "duration": 1.143,
        "velocity": 0.57,
        "hand": "right"
      },
      {
        "midi": 46,
        "time": 9.143,
        "duration": 0.429,
        "velocity": 0.59,
        "hand": "left"
      },
      {
        "midi": 62,
        "time": 9.143,
        "duration": 0.429,
        "velocity": 0.62,
        "hand": "right"
      },
      {
        "midi": 65,
        "time": 9.143,
        "duration": 0.429,
        "velocity": 0.62,
        "hand": "right"
      },
      {
        "midi": 46,
        "time": 9.571,
        "duration": 0.143,
        "velocity": 0.61,
        "hand": "left"
      },
      {
        "midi": 62,
        "time": 9.571,
        "duration": 0.143,
        "velocity": 0.59,
        "hand": "right"
      },
      {
        "midi": 65,
        "time": 9.571,
        "duration": 0.143,
        "velocity": 0.59,
        "hand": "right"
      },
      {
        "midi": 46,
        "time": 9.714,
        "duration": 0.429,
        "velocity": 0.61,
        "hand": "left"
      },
      {
        "midi": 62,
        "time": 9.714,
        "duration": 0.429,
        "velocity": 0.62,
        "hand": "right"
      },
      {
        "midi": 65,
        "time": 9.714,
        "duration": 0.429,
        "velocity": 0.62,
        "hand": "right"
      },
      {
        "midi": 46,
        "time": 10.143,
        "duration": 0.143,
        "velocity": 0.59,
        "hand": "left"
      },
      {
        "midi": 63,
        "time": 10.143,
        "duration": 0.143,
        "velocity": 0.62,
        "hand": "right"
      },
      {
        "midi": 67,
        "time": 10.143,
        "duration": 0.143,
        "velocity": 0.62,
        "hand": "right"
      },
      {
        "midi": 46,
        "time": 10.286,
        "duration": 0.429,
        "velocity": 0.64,
        "hand": "left"
      },
      {
        "midi": 62,
        "time": 10.286,
        "duration": 0.429,
        "velocity": 0.55,
        "hand": "right"
      },
      {
        "midi": 65,
        "time": 10.286,
        "duration": 0.429,
        "velocity": 0.55,
        "hand": "right"
      },
      {
        "midi": 46,
        "time": 10.714,
        "duration": 0.143,
        "velocity": 0.56,
        "hand": "left"
      },
      {
        "midi": 60,
        "time": 10.714,
        "duration": 0.143,
        "velocity": 0.53,
        "hand": "right"
      },
      {
        "midi": 63,
        "time": 10.714,
        "duration": 0.143,
        "velocity": 0.53,
        "hand": "right"
      },
      {
        "midi": 46,
        "time": 10.857,
        "duration": 0.429,
        "velocity": 0.58,
        "hand": "left"
      },
      {
        "midi": 58,
        "time": 10.857,
        "duration": 0.429,
        "velocity": 0.56,
        "hand": "left"
      },
      {
        "midi": 62,
        "time": 10.857,
        "duration": 0.429,
        "velocity": 0.56,
        "hand": "right"
      },
      {
        "midi": 46,
        "time": 11.286,
        "duration": 0.143,
        "velocity": 0.61,
        "hand": "left"
      },
      {
        "midi": 60,
        "time": 11.286,
        "duration": 0.143,
        "velocity": 0.65,
        "hand": "right"
      },
      {
        "midi": 63,
        "time": 11.286,
        "duration": 0.143,
        "velocity": 0.65,
        "hand": "right"
      },
      {
        "midi": 46,
        "time": 11.429,
        "duration": 0.571,
        "velocity": 0.65,
        "hand": "left"
      },
      {
        "midi": 62,
        "time": 11.429,
        "duration": 0.571,
        "velocity": 0.62,
        "hand": "right"
      },
      {
        "midi": 65,
        "time": 11.429,
        "duration": 0.571,
        "velocity": 0.62,
        "hand": "right"
      },
      {
        "midi": 46,
        "time": 12,
        "duration": 0.571,
        "velocity": 0.58,
        "hand": "left"
      },
      {
        "midi": 62,
        "time": 12,
        "duration": 0.571,
        "velocity": 0.7,
        "hand": "right"
      },
      {
        "midi": 70,
        "time": 12,
        "duration": 0.571,
        "velocity": 0.7,
        "hand": "right"
      },
      {
        "midi": 46,
        "time": 12.571,
        "duration": 1.143,
        "velocity": 0.57,
        "hand": "left"
      },
      {
        "midi": 62,
        "time": 12.571,
        "duration": 1.143,
        "velocity": 0.6,
        "hand": "right"
      },
      {
        "midi": 70,
        "time": 12.571,
        "duration": 1.143,
        "velocity": 0.6,
        "hand": "right"
      },
      {
        "midi": 46,
        "time": 13.714,
        "duration": 0.429,
        "velocity": 0.63,
        "hand": "left"
      },
      {
        "midi": 65,
        "time": 13.714,
        "duration": 0.429,
        "velocity": 0.66,
        "hand": "right"
      },
      {
        "midi": 74,
        "time": 13.714,
        "duration": 0.429,
        "velocity": 0.66,
        "hand": "right"
      },
      {
        "midi": 46,
        "time": 14.143,
        "duration": 0.143,
        "velocity": 0.58,
        "hand": "left"
      },
      {
        "midi": 65,
        "time": 14.143,
        "duration": 0.143,
        "velocity": 0.66,
        "hand": "right"
      },
      {
        "midi": 74,
        "time": 14.143,
        "duration": 0.143,
        "velocity": 0.66,
        "hand": "right"
      },
      {
        "midi": 46,
        "time": 14.286,
        "duration": 0.429,
        "velocity": 0.56,
        "hand": "left"
      },
      {
        "midi": 62,
        "time": 14.286,
        "duration": 0.429,
        "velocity": 0.52,
        "hand": "right"
      },
      {
        "midi": 70,
        "time": 14.286,
        "duration": 0.429,
        "velocity": 0.52,
        "hand": "right"
      },
      {
        "midi": 46,
        "time": 14.714,
        "duration": 0.143,
        "velocity": 0.64,
        "hand": "left"
      },
      {
        "midi": 62,
        "time": 14.714,
        "duration": 0.143,
        "velocity": 0.58,
        "hand": "right"
      },
      {
        "midi": 70,
        "time": 14.714,
        "duration": 0.143,
        "velocity": 0.58,
        "hand": "right"
      },
      {
        "midi": 51,
        "time": 14.857,
        "duration": 0.429,
        "velocity": 0.61,
        "hand": "left"
      },
      {
        "midi": 63,
        "time": 14.857,
        "duration": 0.429,
        "velocity": 0.66,
        "hand": "right"
      },
      {
        "midi": 72,
        "time": 14.857,
        "duration": 0.429,
        "velocity": 0.66,
        "hand": "right"
      },
      {
        "midi": 51,
        "time": 15.286,
        "duration": 0.143,
        "velocity": 0.61,
        "hand": "left"
      },
      {
        "midi": 63,
        "time": 15.286,
        "duration": 0.143,
        "velocity": 0.61,
        "hand": "right"
      },
      {
        "midi": 72,
        "time": 15.286,
        "duration": 0.143,
        "velocity": 0.61,
        "hand": "right"
      },
      {
        "midi": 53,
        "time": 15.429,
        "duration": 0.429,
        "velocity": 0.57,
        "hand": "left"
      },
      {
        "midi": 63,
        "time": 15.429,
        "duration": 0.429,
        "velocity": 0.54,
        "hand": "right"
      },
      {
        "midi": 69,
        "time": 15.429,
        "duration": 0.429,
        "velocity": 0.54,
        "hand": "right"
      },
      {
        "midi": 53,
        "time": 15.857,
        "duration": 0.143,
        "velocity": 0.6,
        "hand": "left"
      },
      {
        "midi": 63,
        "time": 15.857,
        "duration": 0.143,
        "velocity": 0.59,
        "hand": "right"
      },
      {
        "midi": 69,
        "time": 15.857,
        "duration": 0.143,
        "velocity": 0.59,
        "hand": "right"
      },
      {
        "midi": 46,
        "time": 16,
        "duration": 2.286,
        "velocity": 0.61,
        "hand": "left"
      },
      {
        "midi": 62,
        "time": 16,
        "duration": 2.286,
        "velocity": 0.63,
        "hand": "right"
      },
      {
        "midi": 70,
        "time": 16,
        "duration": 2.286,
        "velocity": 0.63,
        "hand": "right"
      },
      {
        "midi": 46,
        "time": 18.286,
        "duration": 0.429,
        "velocity": 0.67,
        "hand": "left"
      },
      {
        "midi": 65,
        "time": 18.286,
        "duration": 0.429,
        "velocity": 0.52,
        "hand": "right"
      },
      {
        "midi": 74,
        "time": 18.286,
        "duration": 1.143,
        "velocity": 0.67,
        "hand": "right"
      },
      {
        "midi": 46,
        "time": 18.714,
        "duration": 0.143,
        "velocity": 0.59,
        "hand": "left"
      },
      {
        "midi": 58,
        "time": 18.714,
        "duration": 0.143,
        "velocity": 0.59,
        "hand": "left"
      },
      {
        "midi": 65,
        "time": 18.714,
        "duration": 0.143,
        "velocity": 0.57,
        "hand": "right"
      },
      {
        "midi": 46,
        "time": 18.857,
        "duration": 0.429,
        "velocity": 0.58,
        "hand": "left"
      },
      {
        "midi": 58,
        "time": 18.857,
        "duration": 0.429,
        "velocity": 0.58,
        "hand": "left"
      },
      {
        "midi": 65,
        "time": 18.857,
        "duration": 0.429,
        "velocity": 0.61,
        "hand": "right"
      },
      {
        "midi": 46,
        "time": 19.286,
        "duration": 0.143,
        "velocity": 0.6,
        "hand": "left"
      },
      {
        "midi": 58,
        "time": 19.286,
        "duration": 0.143,
        "velocity": 0.6,
        "hand": "left"
      },
      {
        "midi": 65,
        "time": 19.286,
        "duration": 0.143,
        "velocity": 0.64,
        "hand": "right"
      },
      {
        "midi": 46,
        "time": 19.429,
        "duration": 0.429,
        "velocity": 0.59,
        "hand": "left"
      },
      {
        "midi": 62,
        "time": 19.429,
        "duration": 0.429,
        "velocity": 0.53,
        "hand": "right"
      },
      {
        "midi": 70,
        "time": 19.429,
        "duration": 1.143,
        "velocity": 0.57,
        "hand": "right"
      },
      {
        "midi": 46,
        "time": 19.857,
        "duration": 0.143,
        "velocity": 0.54,
        "hand": "left"
      },
      {
        "midi": 58,
        "time": 19.857,
        "duration": 0.143,
        "velocity": 0.54,
        "hand": "left"
      },
      {
        "midi": 62,
        "time": 19.857,
        "duration": 0.143,
        "velocity": 0.57,
        "hand": "right"
      },
      {
        "midi": 46,
        "time": 20,
        "duration": 0.571,
        "velocity": 0.61,
        "hand": "left"
      },
      {
        "midi": 58,
        "time": 20,
        "duration": 0.571,
        "velocity": 0.61,
        "hand": "left"
      },
      {
        "midi": 62,
        "time": 20,
        "duration": 0.571,
        "velocity": 0.61,
        "hand": "right"
      },
      {
        "midi": 51,
        "time": 20.571,
        "duration": 0.429,
        "velocity": 0.6,
        "hand": "left"
      },
      {
        "midi": 63,
        "time": 20.571,
        "duration": 0.429,
        "velocity": 0.64,
        "hand": "right"
      },
      {
        "midi": 67,
        "time": 20.571,
        "duration": 1.143,
        "velocity": 0.53,
        "hand": "right"
      },
      {
        "midi": 51,
        "time": 21,
        "duration": 0.143,
        "velocity": 0.56,
        "hand": "left"
      },
      {
        "midi": 58,
        "time": 21,
        "duration": 0.143,
        "velocity": 0.56,
        "hand": "left"
      },
      {
        "midi": 63,
        "time": 21,
        "duration": 0.143,
        "velocity": 0.61,
        "hand": "right"
      },
      {
        "midi": 51,
        "time": 21.143,
        "duration": 0.429,
        "velocity": 0.55,
        "hand": "left"
      },
      {
        "midi": 58,
        "time": 21.143,
        "duration": 0.429,
        "velocity": 0.55,
        "hand": "left"
      },
      {
        "midi": 63,
        "time": 21.143,
        "duration": 0.429,
        "velocity": 0.59,
        "hand": "right"
      },
      {
        "midi": 51,
        "time": 21.571,
        "duration": 0.143,
        "velocity": 0.6,
        "hand": "left"
      },
      {
        "midi": 58,
        "time": 21.571,
        "duration": 0.143,
        "velocity": 0.6,
        "hand": "left"
      },
      {
        "midi": 63,
        "time": 21.571,
        "duration": 0.143,
        "velocity": 0.61,
        "hand": "right"
      },
      {
        "midi": 55,
        "time": 21.714,
        "duration": 0.429,
        "velocity": 0.61,
        "hand": "left"
      },
      {
        "midi": 62,
        "time": 21.714,
        "duration": 0.429,
        "velocity": 0.58,
        "hand": "right"
      },
      {
        "midi": 70,
        "time": 21.714,
        "duration": 1.143,
        "velocity": 0.57,
        "hand": "right"
      },
      {
        "midi": 55,
        "time": 22.143,
        "duration": 0.143,
        "velocity": 0.6,
        "hand": "left"
      },
      {
        "midi": 58,
        "time": 22.143,
        "duration": 0.143,
        "velocity": 0.6,
        "hand": "left"
      },
      {
        "midi": 62,
        "time": 22.143,
        "duration": 0.143,
        "velocity": 0.59,
        "hand": "right"
      },
      {
        "midi": 55,
        "time": 22.286,
        "duration": 0.571,
        "velocity": 0.6,
        "hand": "left"
      },
      {
        "midi": 58,
        "time": 22.286,
        "duration": 0.571,
        "velocity": 0.6,
        "hand": "left"
      },
      {
        "midi": 62,
        "time": 22.286,
        "duration": 0.571,
        "velocity": 0.58,
        "hand": "right"
      },
      {
        "midi": 53,
        "time": 22.857,
        "duration": 0.429,
        "velocity": 0.58,
        "hand": "left"
      },
      {
        "midi": 65,
        "time": 22.857,
        "duration": 0.429,
        "velocity": 0.68,
        "hand": "right"
      },
      {
        "midi": 72,
        "time": 22.857,
        "duration": 0.429,
        "velocity": 0.68,
        "hand": "right"
      },
      {
        "midi": 53,
        "time": 23.286,
        "duration": 0.143,
        "velocity": 0.57,
        "hand": "left"
      },
      {
        "midi": 65,
        "time": 23.286,
        "duration": 0.143,
        "velocity": 0.61,
        "hand": "right"
      },
      {
        "midi": 72,
        "time": 23.286,
        "duration": 0.143,
        "velocity": 0.61,
        "hand": "right"
      },
      {
        "midi": 53,
        "time": 23.429,
        "duration": 0.429,
        "velocity": 0.6,
        "hand": "left"
      },
      {
        "midi": 65,
        "time": 23.429,
        "duration": 0.429,
        "velocity": 0.61,
        "hand": "right"
      },
      {
        "midi": 72,
        "time": 23.429,
        "duration": 0.429,
        "velocity": 0.61,
        "hand": "right"
      },
      {
        "midi": 53,
        "time": 23.857,
        "duration": 0.143,
        "velocity": 0.63,
        "hand": "left"
      },
      {
        "midi": 65,
        "time": 23.857,
        "duration": 0.143,
        "velocity": 0.59,
        "hand": "right"
      },
      {
        "midi": 72,
        "time": 23.857,
        "duration": 0.143,
        "velocity": 0.59,
        "hand": "right"
      },
      {
        "midi": 53,
        "time": 24,
        "duration": 0.429,
        "velocity": 0.58,
        "hand": "left"
      },
      {
        "midi": 65,
        "time": 24,
        "duration": 0.429,
        "velocity": 0.59,
        "hand": "right"
      },
      {
        "midi": 72,
        "time": 24,
        "duration": 0.429,
        "velocity": 0.59,
        "hand": "right"
      },
      {
        "midi": 53,
        "time": 24.429,
        "duration": 0.143,
        "velocity": 0.61,
        "hand": "left"
      },
      {
        "midi": 65,
        "time": 24.429,
        "duration": 0.143,
        "velocity": 0.57,
        "hand": "right"
      },
      {
        "midi": 72,
        "time": 24.429,
        "duration": 0.143,
        "velocity": 0.57,
        "hand": "right"
      },
      {
        "midi": 53,
        "time": 24.571,
        "duration": 0.429,
        "velocity": 0.6,
        "hand": "left"
      },
      {
        "midi": 65,
        "time": 24.571,
        "duration": 0.429,
        "velocity": 0.58,
        "hand": "right"
      },
      {
        "midi": 70,
        "time": 24.571,
        "duration": 0.429,
        "velocity": 0.58,
        "hand": "right"
      },
      {
        "midi": 53,
        "time": 25,
        "duration": 0.143,
        "velocity": 0.61,
        "hand": "left"
      },
      {
        "midi": 65,
        "time": 25,
        "duration": 0.143,
        "velocity": 0.61,
        "hand": "right"
      },
      {
        "midi": 72,
        "time": 25,
        "duration": 0.143,
        "velocity": 0.61,
        "hand": "right"
      },
      {
        "midi": 58,
        "time": 25.143,
        "duration": 0.571,
        "velocity": 0.62,
        "hand": "left"
      },
      {
        "midi": 65,
        "time": 25.143,
        "duration": 0.571,
        "velocity": 0.65,
        "hand": "right"
      },
      {
        "midi": 74,
        "time": 25.143,
        "duration": 0.571,
        "velocity": 0.65,
        "hand": "right"
      },
      {
        "midi": 46,
        "time": 25.714,
        "duration": 0.571,
        "velocity": 0.54,
        "hand": "left"
      },
      {
        "midi": 62,
        "time": 25.714,
        "duration": 0.571,
        "velocity": 0.53,
        "hand": "right"
      },
      {
        "midi": 70,
        "time": 25.714,
        "duration": 0.571,
        "velocity": 0.53,
        "hand": "right"
      },
      {
        "midi": 46,
        "time": 26.286,
        "duration": 0.571,
        "velocity": 0.6,
        "hand": "left"
      },
      {
        "midi": 63,
        "time": 26.286,
        "duration": 0.571,
        "velocity": 0.53,
        "hand": "right"
      },
      {
        "midi": 67,
        "time": 26.286,
        "duration": 0.571,
        "velocity": 0.53,
        "hand": "right"
      },
      {
        "midi": 46,
        "time": 26.857,
        "duration": 0.571,
        "velocity": 0.56,
        "hand": "left"
      },
      {
        "midi": 62,
        "time": 26.857,
        "duration": 0.571,
        "velocity": 0.63,
        "hand": "right"
      },
      {
        "midi": 70,
        "time": 26.857,
        "duration": 0.571,
        "velocity": 0.63,
        "hand": "right"
      },
      {
        "midi": 46,
        "time": 27.429,
        "duration": 0.429,
        "velocity": 0.64,
        "hand": "left"
      },
      {
        "midi": 65,
        "time": 27.429,
        "duration": 0.429,
        "velocity": 0.63,
        "hand": "right"
      },
      {
        "midi": 74,
        "time": 27.429,
        "duration": 1.143,
        "velocity": 0.69,
        "hand": "right"
      },
      {
        "midi": 46,
        "time": 27.857,
        "duration": 0.143,
        "velocity": 0.61,
        "hand": "left"
      },
      {
        "midi": 58,
        "time": 27.857,
        "duration": 0.143,
        "velocity": 0.61,
        "hand": "left"
      },
      {
        "midi": 65,
        "time": 27.857,
        "duration": 0.143,
        "velocity": 0.61,
        "hand": "right"
      },
      {
        "midi": 46,
        "time": 28,
        "duration": 0.429,
        "velocity": 0.57,
        "hand": "left"
      },
      {
        "midi": 58,
        "time": 28,
        "duration": 0.429,
        "velocity": 0.57,
        "hand": "left"
      },
      {
        "midi": 65,
        "time": 28,
        "duration": 0.429,
        "velocity": 0.55,
        "hand": "right"
      },
      {
        "midi": 46,
        "time": 28.429,
        "duration": 0.143,
        "velocity": 0.61,
        "hand": "left"
      },
      {
        "midi": 58,
        "time": 28.429,
        "duration": 0.143,
        "velocity": 0.61,
        "hand": "left"
      },
      {
        "midi": 65,
        "time": 28.429,
        "duration": 0.143,
        "velocity": 0.56,
        "hand": "right"
      },
      {
        "midi": 46,
        "time": 28.571,
        "duration": 0.429,
        "velocity": 0.62,
        "hand": "left"
      },
      {
        "midi": 62,
        "time": 28.571,
        "duration": 0.429,
        "velocity": 0.56,
        "hand": "right"
      },
      {
        "midi": 70,
        "time": 28.571,
        "duration": 1.143,
        "velocity": 0.5,
        "hand": "right"
      },
      {
        "midi": 46,
        "time": 29,
        "duration": 0.143,
        "velocity": 0.61,
        "hand": "left"
      },
      {
        "midi": 58,
        "time": 29,
        "duration": 0.143,
        "velocity": 0.61,
        "hand": "left"
      },
      {
        "midi": 62,
        "time": 29,
        "duration": 0.143,
        "velocity": 0.58,
        "hand": "right"
      },
      {
        "midi": 46,
        "time": 29.143,
        "duration": 0.571,
        "velocity": 0.55,
        "hand": "left"
      },
      {
        "midi": 58,
        "time": 29.143,
        "duration": 0.571,
        "velocity": 0.55,
        "hand": "left"
      },
      {
        "midi": 62,
        "time": 29.143,
        "duration": 0.571,
        "velocity": 0.58,
        "hand": "right"
      },
      {
        "midi": 51,
        "time": 29.714,
        "duration": 0.429,
        "velocity": 0.62,
        "hand": "left"
      },
      {
        "midi": 63,
        "time": 29.714,
        "duration": 0.429,
        "velocity": 0.61,
        "hand": "right"
      },
      {
        "midi": 67,
        "time": 29.714,
        "duration": 1.143,
        "velocity": 0.52,
        "hand": "right"
      },
      {
        "midi": 51,
        "time": 30.143,
        "duration": 0.143,
        "velocity": 0.57,
        "hand": "left"
      },
      {
        "midi": 58,
        "time": 30.143,
        "duration": 0.143,
        "velocity": 0.57,
        "hand": "left"
      },
      {
        "midi": 63,
        "time": 30.143,
        "duration": 0.143,
        "velocity": 0.6,
        "hand": "right"
      },
      {
        "midi": 51,
        "time": 30.286,
        "duration": 0.429,
        "velocity": 0.61,
        "hand": "left"
      },
      {
        "midi": 58,
        "time": 30.286,
        "duration": 0.429,
        "velocity": 0.61,
        "hand": "left"
      },
      {
        "midi": 63,
        "time": 30.286,
        "duration": 0.429,
        "velocity": 0.6,
        "hand": "right"
      },
      {
        "midi": 51,
        "time": 30.714,
        "duration": 0.143,
        "velocity": 0.6,
        "hand": "left"
      },
      {
        "midi": 58,
        "time": 30.714,
        "duration": 0.143,
        "velocity": 0.6,
        "hand": "left"
      },
      {
        "midi": 63,
        "time": 30.714,
        "duration": 0.143,
        "velocity": 0.61,
        "hand": "right"
      },
      {
        "midi": 51,
        "time": 30.857,
        "duration": 0.429,
        "velocity": 0.61,
        "hand": "left"
      },
      {
        "midi": 67,
        "time": 30.857,
        "duration": 0.429,
        "velocity": 0.65,
        "hand": "right"
      },
      {
        "midi": 75,
        "time": 30.857,
        "duration": 2,
        "velocity": 0.71,
        "hand": "right"
      },
      {
        "midi": 51,
        "time": 31.286,
        "duration": 0.143,
        "velocity": 0.61,
        "hand": "left"
      },
      {
        "midi": 58,
        "time": 31.286,
        "duration": 0.143,
        "velocity": 0.61,
        "hand": "left"
      },
      {
        "midi": 67,
        "time": 31.286,
        "duration": 0.143,
        "velocity": 0.58,
        "hand": "right"
      },
      {
        "midi": 51,
        "time": 31.429,
        "duration": 1.429,
        "velocity": 0.59,
        "hand": "left"
      },
      {
        "midi": 58,
        "time": 31.429,
        "duration": 1.429,
        "velocity": 0.59,
        "hand": "left"
      },
      {
        "midi": 67,
        "time": 31.429,
        "duration": 1.429,
        "velocity": 0.6,
        "hand": "right"
      },
      {
        "midi": 51,
        "time": 32.857,
        "duration": 0.286,
        "velocity": 0.58,
        "hand": "left"
      },
      {
        "midi": 63,
        "time": 32.857,
        "duration": 0.286,
        "velocity": 0.57,
        "hand": "right"
      },
      {
        "midi": 72,
        "time": 32.857,
        "duration": 0.286,
        "velocity": 0.57,
        "hand": "right"
      },
      {
        "midi": 53,
        "time": 33.143,
        "duration": 0.429,
        "velocity": 0.64,
        "hand": "left"
      },
      {
        "midi": 62,
        "time": 33.143,
        "duration": 0.429,
        "velocity": 0.53,
        "hand": "right"
      },
      {
        "midi": 70,
        "time": 33.143,
        "duration": 0.429,
        "velocity": 0.53,
        "hand": "right"
      },
      {
        "midi": 53,
        "time": 33.571,
        "duration": 0.143,
        "velocity": 0.6,
        "hand": "left"
      },
      {
        "midi": 62,
        "time": 33.571,
        "duration": 0.143,
        "velocity": 0.55,
        "hand": "right"
      },
      {
        "midi": 70,
        "time": 33.571,
        "duration": 0.143,
        "velocity": 0.55,
        "hand": "right"
      },
      {
        "midi": 53,
        "time": 33.714,
        "duration": 0.429,
        "velocity": 0.58,
        "hand": "left"
      },
      {
        "midi": 62,
        "time": 33.714,
        "duration": 0.429,
        "velocity": 0.6,
        "hand": "right"
      },
      {
        "midi": 70,
        "time": 33.714,
        "duration": 0.429,
        "velocity": 0.6,
        "hand": "right"
      },
      {
        "midi": 53,
        "time": 34.143,
        "duration": 0.143,
        "velocity": 0.56,
        "hand": "left"
      },
      {
        "midi": 63,
        "time": 34.143,
        "duration": 0.143,
        "velocity": 0.66,
        "hand": "right"
      },
      {
        "midi": 72,
        "time": 34.143,
        "duration": 0.143,
        "velocity": 0.66,
        "hand": "right"
      },
      {
        "midi": 53,
        "time": 34.286,
        "duration": 0.429,
        "velocity": 0.61,
        "hand": "left"
      },
      {
        "midi": 65,
        "time": 34.286,
        "duration": 0.429,
        "velocity": 0.64,
        "hand": "right"
      },
      {
        "midi": 74,
        "time": 34.286,
        "duration": 0.429,
        "velocity": 0.64,
        "hand": "right"
      },
      {
        "midi": 53,
        "time": 34.714,
        "duration": 0.143,
        "velocity": 0.62,
        "hand": "left"
      },
      {
        "midi": 65,
        "time": 34.714,
        "duration": 0.143,
        "velocity": 0.64,
        "hand": "right"
      },
      {
        "midi": 74,
        "time": 34.714,
        "duration": 0.143,
        "velocity": 0.64,
        "hand": "right"
      },
      {
        "midi": 53,
        "time": 34.857,
        "duration": 0.429,
        "velocity": 0.58,
        "hand": "left"
      },
      {
        "midi": 63,
        "time": 34.857,
        "duration": 0.429,
        "velocity": 0.57,
        "hand": "right"
      },
      {
        "midi": 72,
        "time": 34.857,
        "duration": 0.429,
        "velocity": 0.57,
        "hand": "right"
      },
      {
        "midi": 53,
        "time": 35.286,
        "duration": 0.143,
        "velocity": 0.57,
        "hand": "left"
      },
      {
        "midi": 63,
        "time": 35.286,
        "duration": 0.143,
        "velocity": 0.58,
        "hand": "right"
      },
      {
        "midi": 72,
        "time": 35.286,
        "duration": 0.143,
        "velocity": 0.58,
        "hand": "right"
      },
      {
        "midi": 46,
        "time": 35.429,
        "duration": 2.286,
        "velocity": 0.58,
        "hand": "left"
      },
      {
        "midi": 62,
        "time": 35.429,
        "duration": 2.286,
        "velocity": 0.57,
        "hand": "right"
      },
      {
        "midi": 70,
        "time": 35.429,
        "duration": 2.286,
        "velocity": 0.57,
        "hand": "right"
      }
    ],
    "hard": [
      {
        "midi": 46,
        "time": 0,
        "duration": 0.429,
        "velocity": 0.54,
        "hand": "left"
      },
      {
        "midi": 58,
        "time": 0,
        "duration": 0.429,
        "velocity": 0.54,
        "hand": "left"
      },
      {
        "midi": 62,
        "time": 0,
        "duration": 0.429,
        "velocity": 0.51,
        "hand": "right"
      },
      {
        "midi": 65,
        "time": 0,
        "duration": 0.429,
        "velocity": 0.51,
        "hand": "right"
      },
      {
        "midi": 46,
        "time": 0.429,
        "duration": 0.143,
        "velocity": 0.58,
        "hand": "left"
      },
      {
        "midi": 58,
        "time": 0.429,
        "duration": 0.143,
        "velocity": 0.58,
        "hand": "left"
      },
      {
        "midi": 62,
        "time": 0.429,
        "duration": 0.143,
        "velocity": 0.57,
        "hand": "right"
      },
      {
        "midi": 65,
        "time": 0.429,
        "duration": 0.143,
        "velocity": 0.57,
        "hand": "right"
      },
      {
        "midi": 46,
        "time": 0.571,
        "duration": 0.429,
        "velocity": 0.6,
        "hand": "left"
      },
      {
        "midi": 58,
        "time": 0.571,
        "duration": 0.429,
        "velocity": 0.6,
        "hand": "left"
      },
      {
        "midi": 62,
        "time": 0.571,
        "duration": 0.429,
        "velocity": 0.56,
        "hand": "right"
      },
      {
        "midi": 65,
        "time": 0.571,
        "duration": 0.429,
        "velocity": 0.56,
        "hand": "right"
      },
      {
        "midi": 46,
        "time": 1,
        "duration": 0.143,
        "velocity": 0.61,
        "hand": "left"
      },
      {
        "midi": 58,
        "time": 1,
        "duration": 0.143,
        "velocity": 0.61,
        "hand": "left"
      },
      {
        "midi": 63,
        "time": 1,
        "duration": 0.143,
        "velocity": 0.62,
        "hand": "right"
      },
      {
        "midi": 67,
        "time": 1,
        "duration": 0.143,
        "velocity": 0.62,
        "hand": "right"
      },
      {
        "midi": 46,
        "time": 1.143,
        "duration": 0.429,
        "velocity": 0.57,
        "hand": "left"
      },
      {
        "midi": 58,
        "time": 1.143,
        "duration": 0.429,
        "velocity": 0.57,
        "hand": "left"
      },
      {
        "midi": 62,
        "time": 1.143,
        "duration": 0.429,
        "velocity": 0.57,
        "hand": "right"
      },
      {
        "midi": 65,
        "time": 1.143,
        "duration": 0.429,
        "velocity": 0.57,
        "hand": "right"
      },
      {
        "midi": 46,
        "time": 1.571,
        "duration": 0.143,
        "velocity": 0.55,
        "hand": "left"
      },
      {
        "midi": 53,
        "time": 1.571,
        "duration": 0.143,
        "velocity": 0.55,
        "hand": "left"
      },
      {
        "midi": 60,
        "time": 1.571,
        "duration": 0.143,
        "velocity": 0.57,
        "hand": "right"
      },
      {
        "midi": 63,
        "time": 1.571,
        "duration": 0.143,
        "velocity": 0.57,
        "hand": "right"
      },
      {
        "midi": 46,
        "time": 1.714,
        "duration": 0.429,
        "velocity": 0.61,
        "hand": "left"
      },
      {
        "midi": 53,
        "time": 1.714,
        "duration": 0.429,
        "velocity": 0.61,
        "hand": "left"
      },
      {
        "midi": 58,
        "time": 1.714,
        "duration": 0.429,
        "velocity": 0.57,
        "hand": "left"
      },
      {
        "midi": 62,
        "time": 1.714,
        "duration": 0.429,
        "velocity": 0.57,
        "hand": "right"
      },
      {
        "midi": 46,
        "time": 2.143,
        "duration": 0.143,
        "velocity": 0.59,
        "hand": "left"
      },
      {
        "midi": 53,
        "time": 2.143,
        "duration": 0.143,
        "velocity": 0.59,
        "hand": "left"
      },
      {
        "midi": 60,
        "time": 2.143,
        "duration": 0.143,
        "velocity": 0.6,
        "hand": "right"
      },
      {
        "midi": 63,
        "time": 2.143,
        "duration": 0.143,
        "velocity": 0.6,
        "hand": "right"
      },
      {
        "midi": 46,
        "time": 2.286,
        "duration": 0.571,
        "velocity": 0.63,
        "hand": "left"
      },
      {
        "midi": 58,
        "time": 2.286,
        "duration": 0.571,
        "velocity": 0.63,
        "hand": "left"
      },
      {
        "midi": 62,
        "time": 2.286,
        "duration": 0.571,
        "velocity": 0.64,
        "hand": "right"
      },
      {
        "midi": 65,
        "time": 2.286,
        "duration": 0.571,
        "velocity": 0.64,
        "hand": "right"
      },
      {
        "midi": 46,
        "time": 2.857,
        "duration": 0.571,
        "velocity": 0.6,
        "hand": "left"
      },
      {
        "midi": 58,
        "time": 2.857,
        "duration": 0.571,
        "velocity": 0.6,
        "hand": "left"
      },
      {
        "midi": 62,
        "time": 2.857,
        "duration": 0.571,
        "velocity": 0.71,
        "hand": "right"
      },
      {
        "midi": 70,
        "time": 2.857,
        "duration": 0.571,
        "velocity": 0.71,
        "hand": "right"
      },
      {
        "midi": 46,
        "time": 3.429,
        "duration": 1.143,
        "velocity": 0.61,
        "hand": "left"
      },
      {
        "midi": 58,
        "time": 3.429,
        "duration": 1.143,
        "velocity": 0.61,
        "hand": "left"
      },
      {
        "midi": 62,
        "time": 3.429,
        "duration": 1.143,
        "velocity": 0.61,
        "hand": "right"
      },
      {
        "midi": 70,
        "time": 3.429,
        "duration": 1.143,
        "velocity": 0.61,
        "hand": "right"
      },
      {
        "midi": 51,
        "time": 4.571,
        "duration": 0.429,
        "velocity": 0.59,
        "hand": "left"
      },
      {
        "midi": 58,
        "time": 4.571,
        "duration": 0.429,
        "velocity": 0.59,
        "hand": "left"
      },
      {
        "midi": 63,
        "time": 4.571,
        "duration": 0.429,
        "velocity": 0.55,
        "hand": "right"
      },
      {
        "midi": 67,
        "time": 4.571,
        "duration": 0.429,
        "velocity": 0.55,
        "hand": "right"
      },
      {
        "midi": 51,
        "time": 5,
        "duration": 0.143,
        "velocity": 0.6,
        "hand": "left"
      },
      {
        "midi": 58,
        "time": 5,
        "duration": 0.143,
        "velocity": 0.6,
        "hand": "left"
      },
      {
        "midi": 63,
        "time": 5,
        "duration": 0.143,
        "velocity": 0.61,
        "hand": "right"
      },
      {
        "midi": 67,
        "time": 5,
        "duration": 0.143,
        "velocity": 0.61,
        "hand": "right"
      },
      {
        "midi": 51,
        "time": 5.143,
        "duration": 0.429,
        "velocity": 0.61,
        "hand": "left"
      },
      {
        "midi": 58,
        "time": 5.143,
        "duration": 0.429,
        "velocity": 0.61,
        "hand": "left"
      },
      {
        "midi": 63,
        "time": 5.143,
        "duration": 0.429,
        "velocity": 0.62,
        "hand": "right"
      },
      {
        "midi": 67,
        "time": 5.143,
        "duration": 0.429,
        "velocity": 0.62,
        "hand": "right"
      },
      {
        "midi": 51,
        "time": 5.571,
        "duration": 0.143,
        "velocity": 0.57,
        "hand": "left"
      },
      {
        "midi": 58,
        "time": 5.571,
        "duration": 0.143,
        "velocity": 0.57,
        "hand": "left"
      },
      {
        "midi": 65,
        "time": 5.571,
        "duration": 0.143,
        "velocity": 0.65,
        "hand": "right"
      },
      {
        "midi": 69,
        "time": 5.571,
        "duration": 0.143,
        "velocity": 0.65,
        "hand": "right"
      },
      {
        "midi": 51,
        "time": 5.714,
        "duration": 0.429,
        "velocity": 0.69,
        "hand": "left"
      },
      {
        "midi": 63,
        "time": 5.714,
        "duration": 0.429,
        "velocity": 0.69,
        "hand": "right"
      },
      {
        "midi": 67,
        "time": 5.714,
        "duration": 0.429,
        "velocity": 0.62,
        "hand": "right"
      },
      {
        "midi": 70,
        "time": 5.714,
        "duration": 0.429,
        "velocity": 0.62,
        "hand": "right"
      },
      {
        "midi": 51,
        "time": 6.143,
        "duration": 0.143,
        "velocity": 0.61,
        "hand": "left"
      },
      {
        "midi": 63,
        "time": 6.143,
        "duration": 0.143,
        "velocity": 0.61,
        "hand": "right"
      },
      {
        "midi": 67,
        "time": 6.143,
        "duration": 0.143,
        "velocity": 0.58,
        "hand": "right"
      },
      {
        "midi": 70,
        "time": 6.143,
        "duration": 0.143,
        "velocity": 0.58,
        "hand": "right"
      },
      {
        "midi": 51,
        "time": 6.286,
        "duration": 0.429,
        "velocity": 0.56,
        "hand": "left"
      },
      {
        "midi": 58,
        "time": 6.286,
        "duration": 0.429,
        "velocity": 0.56,
        "hand": "left"
      },
      {
        "midi": 65,
        "time": 6.286,
        "duration": 0.429,
        "velocity": 0.55,
        "hand": "right"
      },
      {
        "midi": 69,
        "time": 6.286,
        "duration": 0.429,
        "velocity": 0.55,
        "hand": "right"
      },
      {
        "midi": 51,
        "time": 6.714,
        "duration": 0.143,
        "velocity": 0.57,
        "hand": "left"
      },
      {
        "midi": 58,
        "time": 6.714,
        "duration": 0.143,
        "velocity": 0.57,
        "hand": "left"
      },
      {
        "midi": 63,
        "time": 6.714,
        "duration": 0.143,
        "velocity": 0.52,
        "hand": "right"
      },
      {
        "midi": 67,
        "time": 6.714,
        "duration": 0.143,
        "velocity": 0.52,
        "hand": "right"
      },
      {
        "midi": 46,
        "time": 6.857,
        "duration": 0.571,
        "velocity": 0.58,
        "hand": "left"
      },
      {
        "midi": 58,
        "time": 6.857,
        "duration": 0.571,
        "velocity": 0.58,
        "hand": "left"
      },
      {
        "midi": 63,
        "time": 6.857,
        "duration": 0.571,
        "velocity": 0.58,
        "hand": "right"
      },
      {
        "midi": 67,
        "time": 6.857,
        "duration": 0.571,
        "velocity": 0.58,
        "hand": "right"
      },
      {
        "midi": 46,
        "time": 7.429,
        "duration": 0.571,
        "velocity": 0.61,
        "hand": "left"
      },
      {
        "midi": 58,
        "time": 7.429,
        "duration": 0.571,
        "velocity": 0.61,
        "hand": "left"
      },
      {
        "midi": 62,
        "time": 7.429,
        "duration": 0.571,
        "velocity": 0.54,
        "hand": "right"
      },
      {
        "midi": 65,
        "time": 7.429,
        "duration": 0.571,
        "velocity": 0.54,
        "hand": "right"
      },
      {
        "midi": 46,
        "time": 8,
        "duration": 1.143,
        "velocity": 0.6,
        "hand": "left"
      },
      {
        "midi": 58,
        "time": 8,
        "duration": 1.143,
        "velocity": 0.6,
        "hand": "left"
      },
      {
        "midi": 62,
        "time": 8,
        "duration": 1.143,
        "velocity": 0.57,
        "hand": "right"
      },
      {
        "midi": 65,
        "time": 8,
        "duration": 1.143,
        "velocity": 0.57,
        "hand": "right"
      },
      {
        "midi": 46,
        "time": 9.143,
        "duration": 0.429,
        "velocity": 0.59,
        "hand": "left"
      },
      {
        "midi": 58,
        "time": 9.143,
        "duration": 0.429,
        "velocity": 0.59,
        "hand": "left"
      },
      {
        "midi": 62,
        "time": 9.143,
        "duration": 0.429,
        "velocity": 0.62,
        "hand": "right"
      },
      {
        "midi": 65,
        "time": 9.143,
        "duration": 0.429,
        "velocity": 0.62,
        "hand": "right"
      },
      {
        "midi": 46,
        "time": 9.571,
        "duration": 0.143,
        "velocity": 0.61,
        "hand": "left"
      },
      {
        "midi": 58,
        "time": 9.571,
        "duration": 0.143,
        "velocity": 0.61,
        "hand": "left"
      },
      {
        "midi": 62,
        "time": 9.571,
        "duration": 0.143,
        "velocity": 0.59,
        "hand": "right"
      },
      {
        "midi": 65,
        "time": 9.571,
        "duration": 0.143,
        "velocity": 0.59,
        "hand": "right"
      },
      {
        "midi": 46,
        "time": 9.714,
        "duration": 0.429,
        "velocity": 0.61,
        "hand": "left"
      },
      {
        "midi": 58,
        "time": 9.714,
        "duration": 0.429,
        "velocity": 0.61,
        "hand": "left"
      },
      {
        "midi": 62,
        "time": 9.714,
        "duration": 0.429,
        "velocity": 0.62,
        "hand": "right"
      },
      {
        "midi": 65,
        "time": 9.714,
        "duration": 0.429,
        "velocity": 0.62,
        "hand": "right"
      },
      {
        "midi": 46,
        "time": 10.143,
        "duration": 0.143,
        "velocity": 0.59,
        "hand": "left"
      },
      {
        "midi": 58,
        "time": 10.143,
        "duration": 0.143,
        "velocity": 0.59,
        "hand": "left"
      },
      {
        "midi": 63,
        "time": 10.143,
        "duration": 0.143,
        "velocity": 0.62,
        "hand": "right"
      },
      {
        "midi": 67,
        "time": 10.143,
        "duration": 0.143,
        "velocity": 0.62,
        "hand": "right"
      },
      {
        "midi": 46,
        "time": 10.286,
        "duration": 0.429,
        "velocity": 0.64,
        "hand": "left"
      },
      {
        "midi": 58,
        "time": 10.286,
        "duration": 0.429,
        "velocity": 0.64,
        "hand": "left"
      },
      {
        "midi": 62,
        "time": 10.286,
        "duration": 0.429,
        "velocity": 0.55,
        "hand": "right"
      },
      {
        "midi": 65,
        "time": 10.286,
        "duration": 0.429,
        "velocity": 0.55,
        "hand": "right"
      },
      {
        "midi": 46,
        "time": 10.714,
        "duration": 0.143,
        "velocity": 0.56,
        "hand": "left"
      },
      {
        "midi": 53,
        "time": 10.714,
        "duration": 0.143,
        "velocity": 0.56,
        "hand": "left"
      },
      {
        "midi": 60,
        "time": 10.714,
        "duration": 0.143,
        "velocity": 0.53,
        "hand": "right"
      },
      {
        "midi": 63,
        "time": 10.714,
        "duration": 0.143,
        "velocity": 0.53,
        "hand": "right"
      },
      {
        "midi": 46,
        "time": 10.857,
        "duration": 0.429,
        "velocity": 0.58,
        "hand": "left"
      },
      {
        "midi": 53,
        "time": 10.857,
        "duration": 0.429,
        "velocity": 0.58,
        "hand": "left"
      },
      {
        "midi": 58,
        "time": 10.857,
        "duration": 0.429,
        "velocity": 0.56,
        "hand": "left"
      },
      {
        "midi": 62,
        "time": 10.857,
        "duration": 0.429,
        "velocity": 0.56,
        "hand": "right"
      },
      {
        "midi": 46,
        "time": 11.286,
        "duration": 0.143,
        "velocity": 0.61,
        "hand": "left"
      },
      {
        "midi": 53,
        "time": 11.286,
        "duration": 0.143,
        "velocity": 0.61,
        "hand": "left"
      },
      {
        "midi": 60,
        "time": 11.286,
        "duration": 0.143,
        "velocity": 0.65,
        "hand": "right"
      },
      {
        "midi": 63,
        "time": 11.286,
        "duration": 0.143,
        "velocity": 0.65,
        "hand": "right"
      },
      {
        "midi": 46,
        "time": 11.429,
        "duration": 0.571,
        "velocity": 0.65,
        "hand": "left"
      },
      {
        "midi": 58,
        "time": 11.429,
        "duration": 0.571,
        "velocity": 0.65,
        "hand": "left"
      },
      {
        "midi": 62,
        "time": 11.429,
        "duration": 0.571,
        "velocity": 0.62,
        "hand": "right"
      },
      {
        "midi": 65,
        "time": 11.429,
        "duration": 0.571,
        "velocity": 0.62,
        "hand": "right"
      },
      {
        "midi": 46,
        "time": 12,
        "duration": 0.571,
        "velocity": 0.58,
        "hand": "left"
      },
      {
        "midi": 53,
        "time": 12,
        "duration": 0.571,
        "velocity": 0.58,
        "hand": "left"
      },
      {
        "midi": 62,
        "time": 12,
        "duration": 0.571,
        "velocity": 0.7,
        "hand": "right"
      },
      {
        "midi": 70,
        "time": 12,
        "duration": 0.571,
        "velocity": 0.7,
        "hand": "right"
      },
      {
        "midi": 46,
        "time": 12.571,
        "duration": 1.143,
        "velocity": 0.57,
        "hand": "left"
      },
      {
        "midi": 53,
        "time": 12.571,
        "duration": 1.143,
        "velocity": 0.57,
        "hand": "left"
      },
      {
        "midi": 62,
        "time": 12.571,
        "duration": 1.143,
        "velocity": 0.6,
        "hand": "right"
      },
      {
        "midi": 70,
        "time": 12.571,
        "duration": 1.143,
        "velocity": 0.6,
        "hand": "right"
      },
      {
        "midi": 46,
        "time": 13.714,
        "duration": 0.429,
        "velocity": 0.63,
        "hand": "left"
      },
      {
        "midi": 58,
        "time": 13.714,
        "duration": 0.429,
        "velocity": 0.63,
        "hand": "left"
      },
      {
        "midi": 65,
        "time": 13.714,
        "duration": 0.429,
        "velocity": 0.66,
        "hand": "right"
      },
      {
        "midi": 74,
        "time": 13.714,
        "duration": 0.429,
        "velocity": 0.66,
        "hand": "right"
      },
      {
        "midi": 46,
        "time": 14.143,
        "duration": 0.143,
        "velocity": 0.58,
        "hand": "left"
      },
      {
        "midi": 58,
        "time": 14.143,
        "duration": 0.143,
        "velocity": 0.58,
        "hand": "left"
      },
      {
        "midi": 65,
        "time": 14.143,
        "duration": 0.143,
        "velocity": 0.66,
        "hand": "right"
      },
      {
        "midi": 74,
        "time": 14.143,
        "duration": 0.143,
        "velocity": 0.66,
        "hand": "right"
      },
      {
        "midi": 46,
        "time": 14.286,
        "duration": 0.429,
        "velocity": 0.56,
        "hand": "left"
      },
      {
        "midi": 53,
        "time": 14.286,
        "duration": 0.429,
        "velocity": 0.56,
        "hand": "left"
      },
      {
        "midi": 62,
        "time": 14.286,
        "duration": 0.429,
        "velocity": 0.52,
        "hand": "right"
      },
      {
        "midi": 70,
        "time": 14.286,
        "duration": 0.429,
        "velocity": 0.52,
        "hand": "right"
      },
      {
        "midi": 46,
        "time": 14.714,
        "duration": 0.143,
        "velocity": 0.64,
        "hand": "left"
      },
      {
        "midi": 53,
        "time": 14.714,
        "duration": 0.143,
        "velocity": 0.64,
        "hand": "left"
      },
      {
        "midi": 62,
        "time": 14.714,
        "duration": 0.143,
        "velocity": 0.58,
        "hand": "right"
      },
      {
        "midi": 70,
        "time": 14.714,
        "duration": 0.143,
        "velocity": 0.58,
        "hand": "right"
      },
      {
        "midi": 51,
        "time": 14.857,
        "duration": 0.429,
        "velocity": 0.61,
        "hand": "left"
      },
      {
        "midi": 55,
        "time": 14.857,
        "duration": 0.429,
        "velocity": 0.61,
        "hand": "left"
      },
      {
        "midi": 63,
        "time": 14.857,
        "duration": 0.429,
        "velocity": 0.66,
        "hand": "right"
      },
      {
        "midi": 72,
        "time": 14.857,
        "duration": 0.429,
        "velocity": 0.66,
        "hand": "right"
      },
      {
        "midi": 51,
        "time": 15.286,
        "duration": 0.143,
        "velocity": 0.61,
        "hand": "left"
      },
      {
        "midi": 55,
        "time": 15.286,
        "duration": 0.143,
        "velocity": 0.61,
        "hand": "left"
      },
      {
        "midi": 63,
        "time": 15.286,
        "duration": 0.143,
        "velocity": 0.61,
        "hand": "right"
      },
      {
        "midi": 72,
        "time": 15.286,
        "duration": 0.143,
        "velocity": 0.61,
        "hand": "right"
      },
      {
        "midi": 53,
        "time": 15.429,
        "duration": 0.429,
        "velocity": 0.57,
        "hand": "left"
      },
      {
        "midi": 63,
        "time": 15.429,
        "duration": 0.429,
        "velocity": 0.54,
        "hand": "right"
      },
      {
        "midi": 69,
        "time": 15.429,
        "duration": 0.429,
        "velocity": 0.54,
        "hand": "right"
      },
      {
        "midi": 53,
        "time": 15.857,
        "duration": 0.143,
        "velocity": 0.6,
        "hand": "left"
      },
      {
        "midi": 63,
        "time": 15.857,
        "duration": 0.143,
        "velocity": 0.59,
        "hand": "right"
      },
      {
        "midi": 69,
        "time": 15.857,
        "duration": 0.143,
        "velocity": 0.59,
        "hand": "right"
      },
      {
        "midi": 46,
        "time": 16,
        "duration": 2.286,
        "velocity": 0.61,
        "hand": "left"
      },
      {
        "midi": 53,
        "time": 16,
        "duration": 2.286,
        "velocity": 0.61,
        "hand": "left"
      },
      {
        "midi": 62,
        "time": 16,
        "duration": 2.286,
        "velocity": 0.63,
        "hand": "right"
      },
      {
        "midi": 70,
        "time": 16,
        "duration": 2.286,
        "velocity": 0.63,
        "hand": "right"
      },
      {
        "midi": 46,
        "time": 18.286,
        "duration": 0.429,
        "velocity": 0.67,
        "hand": "left"
      },
      {
        "midi": 58,
        "time": 18.286,
        "duration": 0.429,
        "velocity": 0.67,
        "hand": "left"
      },
      {
        "midi": 65,
        "time": 18.286,
        "duration": 0.429,
        "velocity": 0.52,
        "hand": "right"
      },
      {
        "midi": 74,
        "time": 18.286,
        "duration": 1.143,
        "velocity": 0.67,
        "hand": "right"
      },
      {
        "midi": 46,
        "time": 18.714,
        "duration": 0.143,
        "velocity": 0.59,
        "hand": "left"
      },
      {
        "midi": 58,
        "time": 18.714,
        "duration": 0.143,
        "velocity": 0.59,
        "hand": "left"
      },
      {
        "midi": 65,
        "time": 18.714,
        "duration": 0.143,
        "velocity": 0.57,
        "hand": "right"
      },
      {
        "midi": 46,
        "time": 18.857,
        "duration": 0.429,
        "velocity": 0.58,
        "hand": "left"
      },
      {
        "midi": 58,
        "time": 18.857,
        "duration": 0.429,
        "velocity": 0.58,
        "hand": "left"
      },
      {
        "midi": 65,
        "time": 18.857,
        "duration": 0.429,
        "velocity": 0.61,
        "hand": "right"
      },
      {
        "midi": 46,
        "time": 19.286,
        "duration": 0.143,
        "velocity": 0.6,
        "hand": "left"
      },
      {
        "midi": 58,
        "time": 19.286,
        "duration": 0.143,
        "velocity": 0.6,
        "hand": "left"
      },
      {
        "midi": 65,
        "time": 19.286,
        "duration": 0.143,
        "velocity": 0.64,
        "hand": "right"
      },
      {
        "midi": 46,
        "time": 19.429,
        "duration": 0.429,
        "velocity": 0.59,
        "hand": "left"
      },
      {
        "midi": 58,
        "time": 19.429,
        "duration": 0.429,
        "velocity": 0.59,
        "hand": "left"
      },
      {
        "midi": 62,
        "time": 19.429,
        "duration": 0.429,
        "velocity": 0.53,
        "hand": "right"
      },
      {
        "midi": 70,
        "time": 19.429,
        "duration": 1.143,
        "velocity": 0.57,
        "hand": "right"
      },
      {
        "midi": 46,
        "time": 19.857,
        "duration": 0.143,
        "velocity": 0.54,
        "hand": "left"
      },
      {
        "midi": 58,
        "time": 19.857,
        "duration": 0.143,
        "velocity": 0.54,
        "hand": "left"
      },
      {
        "midi": 62,
        "time": 19.857,
        "duration": 0.143,
        "velocity": 0.57,
        "hand": "right"
      },
      {
        "midi": 46,
        "time": 20,
        "duration": 0.571,
        "velocity": 0.61,
        "hand": "left"
      },
      {
        "midi": 58,
        "time": 20,
        "duration": 0.571,
        "velocity": 0.61,
        "hand": "left"
      },
      {
        "midi": 62,
        "time": 20,
        "duration": 0.571,
        "velocity": 0.61,
        "hand": "right"
      },
      {
        "midi": 51,
        "time": 20.571,
        "duration": 0.429,
        "velocity": 0.6,
        "hand": "left"
      },
      {
        "midi": 58,
        "time": 20.571,
        "duration": 0.429,
        "velocity": 0.6,
        "hand": "left"
      },
      {
        "midi": 63,
        "time": 20.571,
        "duration": 0.429,
        "velocity": 0.64,
        "hand": "right"
      },
      {
        "midi": 67,
        "time": 20.571,
        "duration": 1.143,
        "velocity": 0.53,
        "hand": "right"
      },
      {
        "midi": 51,
        "time": 21,
        "duration": 0.143,
        "velocity": 0.56,
        "hand": "left"
      },
      {
        "midi": 58,
        "time": 21,
        "duration": 0.143,
        "velocity": 0.56,
        "hand": "left"
      },
      {
        "midi": 63,
        "time": 21,
        "duration": 0.143,
        "velocity": 0.61,
        "hand": "right"
      },
      {
        "midi": 51,
        "time": 21.143,
        "duration": 0.429,
        "velocity": 0.55,
        "hand": "left"
      },
      {
        "midi": 58,
        "time": 21.143,
        "duration": 0.429,
        "velocity": 0.55,
        "hand": "left"
      },
      {
        "midi": 63,
        "time": 21.143,
        "duration": 0.429,
        "velocity": 0.59,
        "hand": "right"
      },
      {
        "midi": 51,
        "time": 21.571,
        "duration": 0.143,
        "velocity": 0.6,
        "hand": "left"
      },
      {
        "midi": 58,
        "time": 21.571,
        "duration": 0.143,
        "velocity": 0.6,
        "hand": "left"
      },
      {
        "midi": 63,
        "time": 21.571,
        "duration": 0.143,
        "velocity": 0.61,
        "hand": "right"
      },
      {
        "midi": 55,
        "time": 21.714,
        "duration": 0.429,
        "velocity": 0.61,
        "hand": "left"
      },
      {
        "midi": 58,
        "time": 21.714,
        "duration": 0.429,
        "velocity": 0.61,
        "hand": "left"
      },
      {
        "midi": 62,
        "time": 21.714,
        "duration": 0.429,
        "velocity": 0.58,
        "hand": "right"
      },
      {
        "midi": 70,
        "time": 21.714,
        "duration": 1.143,
        "velocity": 0.57,
        "hand": "right"
      },
      {
        "midi": 55,
        "time": 22.143,
        "duration": 0.143,
        "velocity": 0.6,
        "hand": "left"
      },
      {
        "midi": 58,
        "time": 22.143,
        "duration": 0.143,
        "velocity": 0.6,
        "hand": "left"
      },
      {
        "midi": 62,
        "time": 22.143,
        "duration": 0.143,
        "velocity": 0.59,
        "hand": "right"
      },
      {
        "midi": 55,
        "time": 22.286,
        "duration": 0.571,
        "velocity": 0.6,
        "hand": "left"
      },
      {
        "midi": 58,
        "time": 22.286,
        "duration": 0.571,
        "velocity": 0.6,
        "hand": "left"
      },
      {
        "midi": 62,
        "time": 22.286,
        "duration": 0.571,
        "velocity": 0.58,
        "hand": "right"
      },
      {
        "midi": 53,
        "time": 22.857,
        "duration": 0.429,
        "velocity": 0.58,
        "hand": "left"
      },
      {
        "midi": 57,
        "time": 22.857,
        "duration": 0.429,
        "velocity": 0.58,
        "hand": "left"
      },
      {
        "midi": 65,
        "time": 22.857,
        "duration": 0.429,
        "velocity": 0.68,
        "hand": "right"
      },
      {
        "midi": 72,
        "time": 22.857,
        "duration": 0.429,
        "velocity": 0.68,
        "hand": "right"
      },
      {
        "midi": 53,
        "time": 23.286,
        "duration": 0.143,
        "velocity": 0.57,
        "hand": "left"
      },
      {
        "midi": 57,
        "time": 23.286,
        "duration": 0.143,
        "velocity": 0.57,
        "hand": "left"
      },
      {
        "midi": 65,
        "time": 23.286,
        "duration": 0.143,
        "velocity": 0.61,
        "hand": "right"
      },
      {
        "midi": 72,
        "time": 23.286,
        "duration": 0.143,
        "velocity": 0.61,
        "hand": "right"
      },
      {
        "midi": 53,
        "time": 23.429,
        "duration": 0.429,
        "velocity": 0.6,
        "hand": "left"
      },
      {
        "midi": 57,
        "time": 23.429,
        "duration": 0.429,
        "velocity": 0.6,
        "hand": "left"
      },
      {
        "midi": 65,
        "time": 23.429,
        "duration": 0.429,
        "velocity": 0.61,
        "hand": "right"
      },
      {
        "midi": 72,
        "time": 23.429,
        "duration": 0.429,
        "velocity": 0.61,
        "hand": "right"
      },
      {
        "midi": 53,
        "time": 23.857,
        "duration": 0.143,
        "velocity": 0.63,
        "hand": "left"
      },
      {
        "midi": 57,
        "time": 23.857,
        "duration": 0.143,
        "velocity": 0.63,
        "hand": "left"
      },
      {
        "midi": 65,
        "time": 23.857,
        "duration": 0.143,
        "velocity": 0.59,
        "hand": "right"
      },
      {
        "midi": 72,
        "time": 23.857,
        "duration": 0.143,
        "velocity": 0.59,
        "hand": "right"
      },
      {
        "midi": 53,
        "time": 24,
        "duration": 0.429,
        "velocity": 0.58,
        "hand": "left"
      },
      {
        "midi": 57,
        "time": 24,
        "duration": 0.429,
        "velocity": 0.58,
        "hand": "left"
      },
      {
        "midi": 65,
        "time": 24,
        "duration": 0.429,
        "velocity": 0.59,
        "hand": "right"
      },
      {
        "midi": 72,
        "time": 24,
        "duration": 0.429,
        "velocity": 0.59,
        "hand": "right"
      },
      {
        "midi": 53,
        "time": 24.429,
        "duration": 0.143,
        "velocity": 0.61,
        "hand": "left"
      },
      {
        "midi": 57,
        "time": 24.429,
        "duration": 0.143,
        "velocity": 0.61,
        "hand": "left"
      },
      {
        "midi": 65,
        "time": 24.429,
        "duration": 0.143,
        "velocity": 0.57,
        "hand": "right"
      },
      {
        "midi": 72,
        "time": 24.429,
        "duration": 0.143,
        "velocity": 0.57,
        "hand": "right"
      },
      {
        "midi": 53,
        "time": 24.571,
        "duration": 0.429,
        "velocity": 0.6,
        "hand": "left"
      },
      {
        "midi": 55,
        "time": 24.571,
        "duration": 0.429,
        "velocity": 0.6,
        "hand": "left"
      },
      {
        "midi": 65,
        "time": 24.571,
        "duration": 0.429,
        "velocity": 0.58,
        "hand": "right"
      },
      {
        "midi": 70,
        "time": 24.571,
        "duration": 0.429,
        "velocity": 0.58,
        "hand": "right"
      },
      {
        "midi": 53,
        "time": 25,
        "duration": 0.143,
        "velocity": 0.61,
        "hand": "left"
      },
      {
        "midi": 57,
        "time": 25,
        "duration": 0.143,
        "velocity": 0.61,
        "hand": "left"
      },
      {
        "midi": 65,
        "time": 25,
        "duration": 0.143,
        "velocity": 0.61,
        "hand": "right"
      },
      {
        "midi": 72,
        "time": 25,
        "duration": 0.143,
        "velocity": 0.61,
        "hand": "right"
      },
      {
        "midi": 58,
        "time": 25.143,
        "duration": 0.571,
        "velocity": 0.62,
        "hand": "left"
      },
      {
        "midi": 65,
        "time": 25.143,
        "duration": 0.571,
        "velocity": 0.65,
        "hand": "right"
      },
      {
        "midi": 74,
        "time": 25.143,
        "duration": 0.571,
        "velocity": 0.65,
        "hand": "right"
      },
      {
        "midi": 46,
        "time": 25.714,
        "duration": 0.571,
        "velocity": 0.54,
        "hand": "left"
      },
      {
        "midi": 53,
        "time": 25.714,
        "duration": 0.571,
        "velocity": 0.54,
        "hand": "left"
      },
      {
        "midi": 62,
        "time": 25.714,
        "duration": 0.571,
        "velocity": 0.53,
        "hand": "right"
      },
      {
        "midi": 70,
        "time": 25.714,
        "duration": 0.571,
        "velocity": 0.53,
        "hand": "right"
      },
      {
        "midi": 46,
        "time": 26.286,
        "duration": 0.571,
        "velocity": 0.6,
        "hand": "left"
      },
      {
        "midi": 58,
        "time": 26.286,
        "duration": 0.571,
        "velocity": 0.6,
        "hand": "left"
      },
      {
        "midi": 63,
        "time": 26.286,
        "duration": 0.571,
        "velocity": 0.53,
        "hand": "right"
      },
      {
        "midi": 67,
        "time": 26.286,
        "duration": 0.571,
        "velocity": 0.53,
        "hand": "right"
      },
      {
        "midi": 46,
        "time": 26.857,
        "duration": 0.571,
        "velocity": 0.56,
        "hand": "left"
      },
      {
        "midi": 53,
        "time": 26.857,
        "duration": 0.571,
        "velocity": 0.56,
        "hand": "left"
      },
      {
        "midi": 62,
        "time": 26.857,
        "duration": 0.571,
        "velocity": 0.63,
        "hand": "right"
      },
      {
        "midi": 70,
        "time": 26.857,
        "duration": 0.571,
        "velocity": 0.63,
        "hand": "right"
      },
      {
        "midi": 46,
        "time": 27.429,
        "duration": 0.429,
        "velocity": 0.64,
        "hand": "left"
      },
      {
        "midi": 58,
        "time": 27.429,
        "duration": 0.429,
        "velocity": 0.64,
        "hand": "left"
      },
      {
        "midi": 65,
        "time": 27.429,
        "duration": 0.429,
        "velocity": 0.63,
        "hand": "right"
      },
      {
        "midi": 74,
        "time": 27.429,
        "duration": 1.143,
        "velocity": 0.69,
        "hand": "right"
      },
      {
        "midi": 46,
        "time": 27.857,
        "duration": 0.143,
        "velocity": 0.61,
        "hand": "left"
      },
      {
        "midi": 58,
        "time": 27.857,
        "duration": 0.143,
        "velocity": 0.61,
        "hand": "left"
      },
      {
        "midi": 65,
        "time": 27.857,
        "duration": 0.143,
        "velocity": 0.61,
        "hand": "right"
      },
      {
        "midi": 46,
        "time": 28,
        "duration": 0.429,
        "velocity": 0.57,
        "hand": "left"
      },
      {
        "midi": 58,
        "time": 28,
        "duration": 0.429,
        "velocity": 0.57,
        "hand": "left"
      },
      {
        "midi": 65,
        "time": 28,
        "duration": 0.429,
        "velocity": 0.55,
        "hand": "right"
      },
      {
        "midi": 46,
        "time": 28.429,
        "duration": 0.143,
        "velocity": 0.61,
        "hand": "left"
      },
      {
        "midi": 58,
        "time": 28.429,
        "duration": 0.143,
        "velocity": 0.61,
        "hand": "left"
      },
      {
        "midi": 65,
        "time": 28.429,
        "duration": 0.143,
        "velocity": 0.56,
        "hand": "right"
      },
      {
        "midi": 46,
        "time": 28.571,
        "duration": 0.429,
        "velocity": 0.62,
        "hand": "left"
      },
      {
        "midi": 58,
        "time": 28.571,
        "duration": 0.429,
        "velocity": 0.62,
        "hand": "left"
      },
      {
        "midi": 62,
        "time": 28.571,
        "duration": 0.429,
        "velocity": 0.56,
        "hand": "right"
      },
      {
        "midi": 70,
        "time": 28.571,
        "duration": 1.143,
        "velocity": 0.5,
        "hand": "right"
      },
      {
        "midi": 46,
        "time": 29,
        "duration": 0.143,
        "velocity": 0.61,
        "hand": "left"
      },
      {
        "midi": 58,
        "time": 29,
        "duration": 0.143,
        "velocity": 0.61,
        "hand": "left"
      },
      {
        "midi": 62,
        "time": 29,
        "duration": 0.143,
        "velocity": 0.58,
        "hand": "right"
      },
      {
        "midi": 46,
        "time": 29.143,
        "duration": 0.571,
        "velocity": 0.55,
        "hand": "left"
      },
      {
        "midi": 58,
        "time": 29.143,
        "duration": 0.571,
        "velocity": 0.55,
        "hand": "left"
      },
      {
        "midi": 62,
        "time": 29.143,
        "duration": 0.571,
        "velocity": 0.58,
        "hand": "right"
      },
      {
        "midi": 51,
        "time": 29.714,
        "duration": 0.429,
        "velocity": 0.62,
        "hand": "left"
      },
      {
        "midi": 58,
        "time": 29.714,
        "duration": 0.429,
        "velocity": 0.62,
        "hand": "left"
      },
      {
        "midi": 63,
        "time": 29.714,
        "duration": 0.429,
        "velocity": 0.61,
        "hand": "right"
      },
      {
        "midi": 67,
        "time": 29.714,
        "duration": 1.143,
        "velocity": 0.52,
        "hand": "right"
      },
      {
        "midi": 51,
        "time": 30.143,
        "duration": 0.143,
        "velocity": 0.57,
        "hand": "left"
      },
      {
        "midi": 58,
        "time": 30.143,
        "duration": 0.143,
        "velocity": 0.57,
        "hand": "left"
      },
      {
        "midi": 63,
        "time": 30.143,
        "duration": 0.143,
        "velocity": 0.6,
        "hand": "right"
      },
      {
        "midi": 51,
        "time": 30.286,
        "duration": 0.429,
        "velocity": 0.61,
        "hand": "left"
      },
      {
        "midi": 58,
        "time": 30.286,
        "duration": 0.429,
        "velocity": 0.61,
        "hand": "left"
      },
      {
        "midi": 63,
        "time": 30.286,
        "duration": 0.429,
        "velocity": 0.6,
        "hand": "right"
      },
      {
        "midi": 51,
        "time": 30.714,
        "duration": 0.143,
        "velocity": 0.6,
        "hand": "left"
      },
      {
        "midi": 58,
        "time": 30.714,
        "duration": 0.143,
        "velocity": 0.6,
        "hand": "left"
      },
      {
        "midi": 63,
        "time": 30.714,
        "duration": 0.143,
        "velocity": 0.61,
        "hand": "right"
      },
      {
        "midi": 51,
        "time": 30.857,
        "duration": 0.429,
        "velocity": 0.61,
        "hand": "left"
      },
      {
        "midi": 58,
        "time": 30.857,
        "duration": 0.429,
        "velocity": 0.61,
        "hand": "left"
      },
      {
        "midi": 67,
        "time": 30.857,
        "duration": 0.429,
        "velocity": 0.65,
        "hand": "right"
      },
      {
        "midi": 75,
        "time": 30.857,
        "duration": 2,
        "velocity": 0.71,
        "hand": "right"
      },
      {
        "midi": 51,
        "time": 31.286,
        "duration": 0.143,
        "velocity": 0.61,
        "hand": "left"
      },
      {
        "midi": 58,
        "time": 31.286,
        "duration": 0.143,
        "velocity": 0.61,
        "hand": "left"
      },
      {
        "midi": 67,
        "time": 31.286,
        "duration": 0.143,
        "velocity": 0.58,
        "hand": "right"
      },
      {
        "midi": 51,
        "time": 31.429,
        "duration": 1.429,
        "velocity": 0.59,
        "hand": "left"
      },
      {
        "midi": 58,
        "time": 31.429,
        "duration": 1.429,
        "velocity": 0.59,
        "hand": "left"
      },
      {
        "midi": 67,
        "time": 31.429,
        "duration": 1.429,
        "velocity": 0.6,
        "hand": "right"
      },
      {
        "midi": 51,
        "time": 32.857,
        "duration": 0.286,
        "velocity": 0.58,
        "hand": "left"
      },
      {
        "midi": 55,
        "time": 32.857,
        "duration": 0.286,
        "velocity": 0.58,
        "hand": "left"
      },
      {
        "midi": 63,
        "time": 32.857,
        "duration": 0.286,
        "velocity": 0.57,
        "hand": "right"
      },
      {
        "midi": 72,
        "time": 32.857,
        "duration": 0.286,
        "velocity": 0.57,
        "hand": "right"
      },
      {
        "midi": 53,
        "time": 33.143,
        "duration": 0.429,
        "velocity": 0.64,
        "hand": "left"
      },
      {
        "midi": 58,
        "time": 33.143,
        "duration": 0.429,
        "velocity": 0.64,
        "hand": "left"
      },
      {
        "midi": 62,
        "time": 33.143,
        "duration": 0.429,
        "velocity": 0.53,
        "hand": "right"
      },
      {
        "midi": 70,
        "time": 33.143,
        "duration": 0.429,
        "velocity": 0.53,
        "hand": "right"
      },
      {
        "midi": 53,
        "time": 33.571,
        "duration": 0.143,
        "velocity": 0.6,
        "hand": "left"
      },
      {
        "midi": 58,
        "time": 33.571,
        "duration": 0.143,
        "velocity": 0.6,
        "hand": "left"
      },
      {
        "midi": 62,
        "time": 33.571,
        "duration": 0.143,
        "velocity": 0.55,
        "hand": "right"
      },
      {
        "midi": 70,
        "time": 33.571,
        "duration": 0.143,
        "velocity": 0.55,
        "hand": "right"
      },
      {
        "midi": 53,
        "time": 33.714,
        "duration": 0.429,
        "velocity": 0.58,
        "hand": "left"
      },
      {
        "midi": 58,
        "time": 33.714,
        "duration": 0.429,
        "velocity": 0.58,
        "hand": "left"
      },
      {
        "midi": 62,
        "time": 33.714,
        "duration": 0.429,
        "velocity": 0.6,
        "hand": "right"
      },
      {
        "midi": 70,
        "time": 33.714,
        "duration": 0.429,
        "velocity": 0.6,
        "hand": "right"
      },
      {
        "midi": 53,
        "time": 34.143,
        "duration": 0.143,
        "velocity": 0.56,
        "hand": "left"
      },
      {
        "midi": 57,
        "time": 34.143,
        "duration": 0.143,
        "velocity": 0.56,
        "hand": "left"
      },
      {
        "midi": 63,
        "time": 34.143,
        "duration": 0.143,
        "velocity": 0.66,
        "hand": "right"
      },
      {
        "midi": 72,
        "time": 34.143,
        "duration": 0.143,
        "velocity": 0.66,
        "hand": "right"
      },
      {
        "midi": 53,
        "time": 34.286,
        "duration": 0.429,
        "velocity": 0.61,
        "hand": "left"
      },
      {
        "midi": 58,
        "time": 34.286,
        "duration": 0.429,
        "velocity": 0.61,
        "hand": "left"
      },
      {
        "midi": 65,
        "time": 34.286,
        "duration": 0.429,
        "velocity": 0.64,
        "hand": "right"
      },
      {
        "midi": 74,
        "time": 34.286,
        "duration": 0.429,
        "velocity": 0.64,
        "hand": "right"
      },
      {
        "midi": 53,
        "time": 34.714,
        "duration": 0.143,
        "velocity": 0.62,
        "hand": "left"
      },
      {
        "midi": 58,
        "time": 34.714,
        "duration": 0.143,
        "velocity": 0.62,
        "hand": "left"
      },
      {
        "midi": 65,
        "time": 34.714,
        "duration": 0.143,
        "velocity": 0.64,
        "hand": "right"
      },
      {
        "midi": 74,
        "time": 34.714,
        "duration": 0.143,
        "velocity": 0.64,
        "hand": "right"
      },
      {
        "midi": 53,
        "time": 34.857,
        "duration": 0.429,
        "velocity": 0.58,
        "hand": "left"
      },
      {
        "midi": 57,
        "time": 34.857,
        "duration": 0.429,
        "velocity": 0.58,
        "hand": "left"
      },
      {
        "midi": 63,
        "time": 34.857,
        "duration": 0.429,
        "velocity": 0.57,
        "hand": "right"
      },
      {
        "midi": 72,
        "time": 34.857,
        "duration": 0.429,
        "velocity": 0.57,
        "hand": "right"
      },
      {
        "midi": 53,
        "time": 35.286,
        "duration": 0.143,
        "velocity": 0.57,
        "hand": "left"
      },
      {
        "midi": 63,
        "time": 35.286,
        "duration": 0.143,
        "velocity": 0.58,
        "hand": "right"
      },
      {
        "midi": 72,
        "time": 35.286,
        "duration": 0.143,
        "velocity": 0.58,
        "hand": "right"
      },
      {
        "midi": 46,
        "time": 35.429,
        "duration": 2.286,
        "velocity": 0.58,
        "hand": "left"
      },
      {
        "midi": 53,
        "time": 35.429,
        "duration": 2.286,
        "velocity": 0.58,
        "hand": "left"
      },
      {
        "midi": 62,
        "time": 35.429,
        "duration": 2.286,
        "velocity": 0.57,
        "hand": "right"
      },
      {
        "midi": 70,
        "time": 35.429,
        "duration": 2.286,
        "velocity": 0.57,
        "hand": "right"
      }
    ]
  },
  "notes1Hand": [
    {
      "midi": 65,
      "time": 0,
      "duration": 0.429,
      "velocity": 0.51,
      "hand": "right"
    },
    {
      "midi": 65,
      "time": 0.429,
      "duration": 0.19,
      "velocity": 0.57,
      "hand": "right"
    },
    {
      "midi": 67,
      "time": 1,
      "duration": 0.19,
      "velocity": 0.62,
      "hand": "right"
    },
    {
      "midi": 65,
      "time": 1.143,
      "duration": 0.429,
      "velocity": 0.57,
      "hand": "right"
    },
    {
      "midi": 63,
      "time": 1.571,
      "duration": 0.19,
      "velocity": 0.57,
      "hand": "right"
    },
    {
      "midi": 62,
      "time": 1.714,
      "duration": 0.429,
      "velocity": 0.57,
      "hand": "right"
    },
    {
      "midi": 63,
      "time": 2.143,
      "duration": 0.19,
      "velocity": 0.6,
      "hand": "right"
    },
    {
      "midi": 65,
      "time": 2.286,
      "duration": 0.571,
      "velocity": 0.64,
      "hand": "right"
    },
    {
      "midi": 70,
      "time": 2.857,
      "duration": 0.571,
      "velocity": 0.71,
      "hand": "right"
    },
    {
      "midi": 70,
      "time": 3.429,
      "duration": 1.143,
      "velocity": 0.61,
      "hand": "right"
    },
    {
      "midi": 67,
      "time": 4.571,
      "duration": 0.429,
      "velocity": 0.55,
      "hand": "right"
    },
    {
      "midi": 67,
      "time": 5,
      "duration": 0.19,
      "velocity": 0.61,
      "hand": "right"
    },
    {
      "midi": 67,
      "time": 5.143,
      "duration": 0.429,
      "velocity": 0.62,
      "hand": "right"
    },
    {
      "midi": 69,
      "time": 5.571,
      "duration": 0.19,
      "velocity": 0.65,
      "hand": "right"
    },
    {
      "midi": 70,
      "time": 5.714,
      "duration": 0.429,
      "velocity": 0.62,
      "hand": "right"
    },
    {
      "midi": 70,
      "time": 6.143,
      "duration": 0.19,
      "velocity": 0.58,
      "hand": "right"
    },
    {
      "midi": 69,
      "time": 6.286,
      "duration": 0.429,
      "velocity": 0.55,
      "hand": "right"
    },
    {
      "midi": 67,
      "time": 6.714,
      "duration": 0.19,
      "velocity": 0.52,
      "hand": "right"
    },
    {
      "midi": 67,
      "time": 6.857,
      "duration": 0.571,
      "velocity": 0.58,
      "hand": "right"
    },
    {
      "midi": 65,
      "time": 7.429,
      "duration": 0.571,
      "velocity": 0.54,
      "hand": "right"
    },
    {
      "midi": 65,
      "time": 8,
      "duration": 1.143,
      "velocity": 0.57,
      "hand": "right"
    },
    {
      "midi": 65,
      "time": 9.143,
      "duration": 0.429,
      "velocity": 0.62,
      "hand": "right"
    },
    {
      "midi": 65,
      "time": 9.571,
      "duration": 0.19,
      "velocity": 0.59,
      "hand": "right"
    },
    {
      "midi": 65,
      "time": 9.714,
      "duration": 0.429,
      "velocity": 0.62,
      "hand": "right"
    },
    {
      "midi": 67,
      "time": 10.143,
      "duration": 0.19,
      "velocity": 0.62,
      "hand": "right"
    },
    {
      "midi": 65,
      "time": 10.286,
      "duration": 0.429,
      "velocity": 0.55,
      "hand": "right"
    },
    {
      "midi": 63,
      "time": 10.714,
      "duration": 0.19,
      "velocity": 0.53,
      "hand": "right"
    },
    {
      "midi": 62,
      "time": 10.857,
      "duration": 0.429,
      "velocity": 0.56,
      "hand": "right"
    },
    {
      "midi": 63,
      "time": 11.286,
      "duration": 0.19,
      "velocity": 0.65,
      "hand": "right"
    },
    {
      "midi": 65,
      "time": 11.429,
      "duration": 0.571,
      "velocity": 0.62,
      "hand": "right"
    },
    {
      "midi": 70,
      "time": 12,
      "duration": 0.571,
      "velocity": 0.7,
      "hand": "right"
    },
    {
      "midi": 70,
      "time": 12.571,
      "duration": 1.143,
      "velocity": 0.6,
      "hand": "right"
    },
    {
      "midi": 74,
      "time": 13.714,
      "duration": 0.429,
      "velocity": 0.66,
      "hand": "right"
    },
    {
      "midi": 74,
      "time": 14.143,
      "duration": 0.19,
      "velocity": 0.66,
      "hand": "right"
    },
    {
      "midi": 70,
      "time": 14.286,
      "duration": 0.429,
      "velocity": 0.52,
      "hand": "right"
    },
    {
      "midi": 70,
      "time": 14.714,
      "duration": 0.19,
      "velocity": 0.58,
      "hand": "right"
    },
    {
      "midi": 72,
      "time": 14.857,
      "duration": 0.429,
      "velocity": 0.66,
      "hand": "right"
    },
    {
      "midi": 72,
      "time": 15.286,
      "duration": 0.19,
      "velocity": 0.61,
      "hand": "right"
    },
    {
      "midi": 69,
      "time": 15.429,
      "duration": 0.429,
      "velocity": 0.54,
      "hand": "right"
    },
    {
      "midi": 69,
      "time": 15.857,
      "duration": 0.19,
      "velocity": 0.59,
      "hand": "right"
    },
    {
      "midi": 70,
      "time": 16,
      "duration": 2.286,
      "velocity": 0.63,
      "hand": "right"
    },
    {
      "midi": 74,
      "time": 18.286,
      "duration": 1.143,
      "velocity": 0.67,
      "hand": "right"
    },
    {
      "midi": 65,
      "time": 18.714,
      "duration": 0.19,
      "velocity": 0.57,
      "hand": "right"
    },
    {
      "midi": 65,
      "time": 18.857,
      "duration": 0.429,
      "velocity": 0.61,
      "hand": "right"
    },
    {
      "midi": 65,
      "time": 19.286,
      "duration": 0.19,
      "velocity": 0.64,
      "hand": "right"
    },
    {
      "midi": 70,
      "time": 19.429,
      "duration": 1.143,
      "velocity": 0.57,
      "hand": "right"
    },
    {
      "midi": 62,
      "time": 19.857,
      "duration": 0.19,
      "velocity": 0.57,
      "hand": "right"
    },
    {
      "midi": 62,
      "time": 20,
      "duration": 0.571,
      "velocity": 0.61,
      "hand": "right"
    },
    {
      "midi": 67,
      "time": 20.571,
      "duration": 1.143,
      "velocity": 0.53,
      "hand": "right"
    },
    {
      "midi": 63,
      "time": 21,
      "duration": 0.19,
      "velocity": 0.61,
      "hand": "right"
    },
    {
      "midi": 63,
      "time": 21.143,
      "duration": 0.429,
      "velocity": 0.59,
      "hand": "right"
    },
    {
      "midi": 63,
      "time": 21.571,
      "duration": 0.19,
      "velocity": 0.61,
      "hand": "right"
    },
    {
      "midi": 70,
      "time": 21.714,
      "duration": 1.143,
      "velocity": 0.57,
      "hand": "right"
    },
    {
      "midi": 62,
      "time": 22.143,
      "duration": 0.19,
      "velocity": 0.59,
      "hand": "right"
    },
    {
      "midi": 62,
      "time": 22.286,
      "duration": 0.571,
      "velocity": 0.58,
      "hand": "right"
    },
    {
      "midi": 72,
      "time": 22.857,
      "duration": 0.429,
      "velocity": 0.68,
      "hand": "right"
    },
    {
      "midi": 72,
      "time": 23.286,
      "duration": 0.19,
      "velocity": 0.61,
      "hand": "right"
    },
    {
      "midi": 72,
      "time": 23.429,
      "duration": 0.429,
      "velocity": 0.61,
      "hand": "right"
    },
    {
      "midi": 72,
      "time": 23.857,
      "duration": 0.19,
      "velocity": 0.59,
      "hand": "right"
    },
    {
      "midi": 72,
      "time": 24,
      "duration": 0.429,
      "velocity": 0.59,
      "hand": "right"
    },
    {
      "midi": 72,
      "time": 24.429,
      "duration": 0.19,
      "velocity": 0.57,
      "hand": "right"
    },
    {
      "midi": 70,
      "time": 24.571,
      "duration": 0.429,
      "velocity": 0.58,
      "hand": "right"
    },
    {
      "midi": 72,
      "time": 25,
      "duration": 0.19,
      "velocity": 0.61,
      "hand": "right"
    },
    {
      "midi": 74,
      "time": 25.143,
      "duration": 0.571,
      "velocity": 0.65,
      "hand": "right"
    },
    {
      "midi": 70,
      "time": 25.714,
      "duration": 0.571,
      "velocity": 0.53,
      "hand": "right"
    },
    {
      "midi": 67,
      "time": 26.286,
      "duration": 0.571,
      "velocity": 0.53,
      "hand": "right"
    },
    {
      "midi": 70,
      "time": 26.857,
      "duration": 0.571,
      "velocity": 0.63,
      "hand": "right"
    },
    {
      "midi": 74,
      "time": 27.429,
      "duration": 1.143,
      "velocity": 0.69,
      "hand": "right"
    },
    {
      "midi": 65,
      "time": 27.857,
      "duration": 0.19,
      "velocity": 0.61,
      "hand": "right"
    },
    {
      "midi": 65,
      "time": 28,
      "duration": 0.429,
      "velocity": 0.55,
      "hand": "right"
    },
    {
      "midi": 65,
      "time": 28.429,
      "duration": 0.19,
      "velocity": 0.56,
      "hand": "right"
    },
    {
      "midi": 70,
      "time": 28.571,
      "duration": 1.143,
      "velocity": 0.5,
      "hand": "right"
    },
    {
      "midi": 62,
      "time": 29,
      "duration": 0.19,
      "velocity": 0.58,
      "hand": "right"
    },
    {
      "midi": 62,
      "time": 29.143,
      "duration": 0.571,
      "velocity": 0.58,
      "hand": "right"
    },
    {
      "midi": 67,
      "time": 29.714,
      "duration": 1.143,
      "velocity": 0.52,
      "hand": "right"
    },
    {
      "midi": 63,
      "time": 30.143,
      "duration": 0.19,
      "velocity": 0.6,
      "hand": "right"
    },
    {
      "midi": 63,
      "time": 30.286,
      "duration": 0.429,
      "velocity": 0.6,
      "hand": "right"
    },
    {
      "midi": 63,
      "time": 30.714,
      "duration": 0.19,
      "velocity": 0.61,
      "hand": "right"
    },
    {
      "midi": 75,
      "time": 30.857,
      "duration": 2,
      "velocity": 0.71,
      "hand": "right"
    },
    {
      "midi": 67,
      "time": 31.286,
      "duration": 0.19,
      "velocity": 0.58,
      "hand": "right"
    },
    {
      "midi": 67,
      "time": 31.429,
      "duration": 1.429,
      "velocity": 0.6,
      "hand": "right"
    },
    {
      "midi": 72,
      "time": 32.857,
      "duration": 0.286,
      "velocity": 0.57,
      "hand": "right"
    },
    {
      "midi": 70,
      "time": 33.143,
      "duration": 0.429,
      "velocity": 0.53,
      "hand": "right"
    },
    {
      "midi": 70,
      "time": 33.571,
      "duration": 0.19,
      "velocity": 0.55,
      "hand": "right"
    },
    {
      "midi": 70,
      "time": 33.714,
      "duration": 0.429,
      "velocity": 0.6,
      "hand": "right"
    },
    {
      "midi": 72,
      "time": 34.143,
      "duration": 0.19,
      "velocity": 0.66,
      "hand": "right"
    },
    {
      "midi": 74,
      "time": 34.286,
      "duration": 0.429,
      "velocity": 0.64,
      "hand": "right"
    },
    {
      "midi": 74,
      "time": 34.714,
      "duration": 0.19,
      "velocity": 0.64,
      "hand": "right"
    },
    {
      "midi": 72,
      "time": 34.857,
      "duration": 0.429,
      "velocity": 0.57,
      "hand": "right"
    },
    {
      "midi": 72,
      "time": 35.286,
      "duration": 0.19,
      "velocity": 0.58,
      "hand": "right"
    },
    {
      "midi": 70,
      "time": 35.429,
      "duration": 2.286,
      "velocity": 0.57,
      "hand": "right"
    }
  ],
  "notes2Hands": [
    {
      "midi": 46,
      "time": 0,
      "duration": 0.429,
      "velocity": 0.54,
      "hand": "left"
    },
    {
      "midi": 58,
      "time": 0,
      "duration": 0.429,
      "velocity": 0.54,
      "hand": "left"
    },
    {
      "midi": 62,
      "time": 0,
      "duration": 0.429,
      "velocity": 0.51,
      "hand": "right"
    },
    {
      "midi": 65,
      "time": 0,
      "duration": 0.429,
      "velocity": 0.51,
      "hand": "right"
    },
    {
      "midi": 46,
      "time": 0.429,
      "duration": 0.143,
      "velocity": 0.58,
      "hand": "left"
    },
    {
      "midi": 58,
      "time": 0.429,
      "duration": 0.143,
      "velocity": 0.58,
      "hand": "left"
    },
    {
      "midi": 62,
      "time": 0.429,
      "duration": 0.143,
      "velocity": 0.57,
      "hand": "right"
    },
    {
      "midi": 65,
      "time": 0.429,
      "duration": 0.143,
      "velocity": 0.57,
      "hand": "right"
    },
    {
      "midi": 46,
      "time": 0.571,
      "duration": 0.429,
      "velocity": 0.6,
      "hand": "left"
    },
    {
      "midi": 58,
      "time": 0.571,
      "duration": 0.429,
      "velocity": 0.6,
      "hand": "left"
    },
    {
      "midi": 62,
      "time": 0.571,
      "duration": 0.429,
      "velocity": 0.56,
      "hand": "right"
    },
    {
      "midi": 65,
      "time": 0.571,
      "duration": 0.429,
      "velocity": 0.56,
      "hand": "right"
    },
    {
      "midi": 46,
      "time": 1,
      "duration": 0.143,
      "velocity": 0.61,
      "hand": "left"
    },
    {
      "midi": 58,
      "time": 1,
      "duration": 0.143,
      "velocity": 0.61,
      "hand": "left"
    },
    {
      "midi": 63,
      "time": 1,
      "duration": 0.143,
      "velocity": 0.62,
      "hand": "right"
    },
    {
      "midi": 67,
      "time": 1,
      "duration": 0.143,
      "velocity": 0.62,
      "hand": "right"
    },
    {
      "midi": 46,
      "time": 1.143,
      "duration": 0.429,
      "velocity": 0.57,
      "hand": "left"
    },
    {
      "midi": 58,
      "time": 1.143,
      "duration": 0.429,
      "velocity": 0.57,
      "hand": "left"
    },
    {
      "midi": 62,
      "time": 1.143,
      "duration": 0.429,
      "velocity": 0.57,
      "hand": "right"
    },
    {
      "midi": 65,
      "time": 1.143,
      "duration": 0.429,
      "velocity": 0.57,
      "hand": "right"
    },
    {
      "midi": 46,
      "time": 1.571,
      "duration": 0.143,
      "velocity": 0.55,
      "hand": "left"
    },
    {
      "midi": 53,
      "time": 1.571,
      "duration": 0.143,
      "velocity": 0.55,
      "hand": "left"
    },
    {
      "midi": 60,
      "time": 1.571,
      "duration": 0.143,
      "velocity": 0.57,
      "hand": "right"
    },
    {
      "midi": 63,
      "time": 1.571,
      "duration": 0.143,
      "velocity": 0.57,
      "hand": "right"
    },
    {
      "midi": 46,
      "time": 1.714,
      "duration": 0.429,
      "velocity": 0.61,
      "hand": "left"
    },
    {
      "midi": 53,
      "time": 1.714,
      "duration": 0.429,
      "velocity": 0.61,
      "hand": "left"
    },
    {
      "midi": 58,
      "time": 1.714,
      "duration": 0.429,
      "velocity": 0.57,
      "hand": "left"
    },
    {
      "midi": 62,
      "time": 1.714,
      "duration": 0.429,
      "velocity": 0.57,
      "hand": "right"
    },
    {
      "midi": 46,
      "time": 2.143,
      "duration": 0.143,
      "velocity": 0.59,
      "hand": "left"
    },
    {
      "midi": 53,
      "time": 2.143,
      "duration": 0.143,
      "velocity": 0.59,
      "hand": "left"
    },
    {
      "midi": 60,
      "time": 2.143,
      "duration": 0.143,
      "velocity": 0.6,
      "hand": "right"
    },
    {
      "midi": 63,
      "time": 2.143,
      "duration": 0.143,
      "velocity": 0.6,
      "hand": "right"
    },
    {
      "midi": 46,
      "time": 2.286,
      "duration": 0.571,
      "velocity": 0.63,
      "hand": "left"
    },
    {
      "midi": 58,
      "time": 2.286,
      "duration": 0.571,
      "velocity": 0.63,
      "hand": "left"
    },
    {
      "midi": 62,
      "time": 2.286,
      "duration": 0.571,
      "velocity": 0.64,
      "hand": "right"
    },
    {
      "midi": 65,
      "time": 2.286,
      "duration": 0.571,
      "velocity": 0.64,
      "hand": "right"
    },
    {
      "midi": 46,
      "time": 2.857,
      "duration": 0.571,
      "velocity": 0.6,
      "hand": "left"
    },
    {
      "midi": 58,
      "time": 2.857,
      "duration": 0.571,
      "velocity": 0.6,
      "hand": "left"
    },
    {
      "midi": 62,
      "time": 2.857,
      "duration": 0.571,
      "velocity": 0.71,
      "hand": "right"
    },
    {
      "midi": 70,
      "time": 2.857,
      "duration": 0.571,
      "velocity": 0.71,
      "hand": "right"
    },
    {
      "midi": 46,
      "time": 3.429,
      "duration": 1.143,
      "velocity": 0.61,
      "hand": "left"
    },
    {
      "midi": 58,
      "time": 3.429,
      "duration": 1.143,
      "velocity": 0.61,
      "hand": "left"
    },
    {
      "midi": 62,
      "time": 3.429,
      "duration": 1.143,
      "velocity": 0.61,
      "hand": "right"
    },
    {
      "midi": 70,
      "time": 3.429,
      "duration": 1.143,
      "velocity": 0.61,
      "hand": "right"
    },
    {
      "midi": 51,
      "time": 4.571,
      "duration": 0.429,
      "velocity": 0.59,
      "hand": "left"
    },
    {
      "midi": 58,
      "time": 4.571,
      "duration": 0.429,
      "velocity": 0.59,
      "hand": "left"
    },
    {
      "midi": 63,
      "time": 4.571,
      "duration": 0.429,
      "velocity": 0.55,
      "hand": "right"
    },
    {
      "midi": 67,
      "time": 4.571,
      "duration": 0.429,
      "velocity": 0.55,
      "hand": "right"
    },
    {
      "midi": 51,
      "time": 5,
      "duration": 0.143,
      "velocity": 0.6,
      "hand": "left"
    },
    {
      "midi": 58,
      "time": 5,
      "duration": 0.143,
      "velocity": 0.6,
      "hand": "left"
    },
    {
      "midi": 63,
      "time": 5,
      "duration": 0.143,
      "velocity": 0.61,
      "hand": "right"
    },
    {
      "midi": 67,
      "time": 5,
      "duration": 0.143,
      "velocity": 0.61,
      "hand": "right"
    },
    {
      "midi": 51,
      "time": 5.143,
      "duration": 0.429,
      "velocity": 0.61,
      "hand": "left"
    },
    {
      "midi": 58,
      "time": 5.143,
      "duration": 0.429,
      "velocity": 0.61,
      "hand": "left"
    },
    {
      "midi": 63,
      "time": 5.143,
      "duration": 0.429,
      "velocity": 0.62,
      "hand": "right"
    },
    {
      "midi": 67,
      "time": 5.143,
      "duration": 0.429,
      "velocity": 0.62,
      "hand": "right"
    },
    {
      "midi": 51,
      "time": 5.571,
      "duration": 0.143,
      "velocity": 0.57,
      "hand": "left"
    },
    {
      "midi": 58,
      "time": 5.571,
      "duration": 0.143,
      "velocity": 0.57,
      "hand": "left"
    },
    {
      "midi": 65,
      "time": 5.571,
      "duration": 0.143,
      "velocity": 0.65,
      "hand": "right"
    },
    {
      "midi": 69,
      "time": 5.571,
      "duration": 0.143,
      "velocity": 0.65,
      "hand": "right"
    },
    {
      "midi": 51,
      "time": 5.714,
      "duration": 0.429,
      "velocity": 0.69,
      "hand": "left"
    },
    {
      "midi": 63,
      "time": 5.714,
      "duration": 0.429,
      "velocity": 0.69,
      "hand": "right"
    },
    {
      "midi": 67,
      "time": 5.714,
      "duration": 0.429,
      "velocity": 0.62,
      "hand": "right"
    },
    {
      "midi": 70,
      "time": 5.714,
      "duration": 0.429,
      "velocity": 0.62,
      "hand": "right"
    },
    {
      "midi": 51,
      "time": 6.143,
      "duration": 0.143,
      "velocity": 0.61,
      "hand": "left"
    },
    {
      "midi": 63,
      "time": 6.143,
      "duration": 0.143,
      "velocity": 0.61,
      "hand": "right"
    },
    {
      "midi": 67,
      "time": 6.143,
      "duration": 0.143,
      "velocity": 0.58,
      "hand": "right"
    },
    {
      "midi": 70,
      "time": 6.143,
      "duration": 0.143,
      "velocity": 0.58,
      "hand": "right"
    },
    {
      "midi": 51,
      "time": 6.286,
      "duration": 0.429,
      "velocity": 0.56,
      "hand": "left"
    },
    {
      "midi": 58,
      "time": 6.286,
      "duration": 0.429,
      "velocity": 0.56,
      "hand": "left"
    },
    {
      "midi": 65,
      "time": 6.286,
      "duration": 0.429,
      "velocity": 0.55,
      "hand": "right"
    },
    {
      "midi": 69,
      "time": 6.286,
      "duration": 0.429,
      "velocity": 0.55,
      "hand": "right"
    },
    {
      "midi": 51,
      "time": 6.714,
      "duration": 0.143,
      "velocity": 0.57,
      "hand": "left"
    },
    {
      "midi": 58,
      "time": 6.714,
      "duration": 0.143,
      "velocity": 0.57,
      "hand": "left"
    },
    {
      "midi": 63,
      "time": 6.714,
      "duration": 0.143,
      "velocity": 0.52,
      "hand": "right"
    },
    {
      "midi": 67,
      "time": 6.714,
      "duration": 0.143,
      "velocity": 0.52,
      "hand": "right"
    },
    {
      "midi": 46,
      "time": 6.857,
      "duration": 0.571,
      "velocity": 0.58,
      "hand": "left"
    },
    {
      "midi": 58,
      "time": 6.857,
      "duration": 0.571,
      "velocity": 0.58,
      "hand": "left"
    },
    {
      "midi": 63,
      "time": 6.857,
      "duration": 0.571,
      "velocity": 0.58,
      "hand": "right"
    },
    {
      "midi": 67,
      "time": 6.857,
      "duration": 0.571,
      "velocity": 0.58,
      "hand": "right"
    },
    {
      "midi": 46,
      "time": 7.429,
      "duration": 0.571,
      "velocity": 0.61,
      "hand": "left"
    },
    {
      "midi": 58,
      "time": 7.429,
      "duration": 0.571,
      "velocity": 0.61,
      "hand": "left"
    },
    {
      "midi": 62,
      "time": 7.429,
      "duration": 0.571,
      "velocity": 0.54,
      "hand": "right"
    },
    {
      "midi": 65,
      "time": 7.429,
      "duration": 0.571,
      "velocity": 0.54,
      "hand": "right"
    },
    {
      "midi": 46,
      "time": 8,
      "duration": 1.143,
      "velocity": 0.6,
      "hand": "left"
    },
    {
      "midi": 58,
      "time": 8,
      "duration": 1.143,
      "velocity": 0.6,
      "hand": "left"
    },
    {
      "midi": 62,
      "time": 8,
      "duration": 1.143,
      "velocity": 0.57,
      "hand": "right"
    },
    {
      "midi": 65,
      "time": 8,
      "duration": 1.143,
      "velocity": 0.57,
      "hand": "right"
    },
    {
      "midi": 46,
      "time": 9.143,
      "duration": 0.429,
      "velocity": 0.59,
      "hand": "left"
    },
    {
      "midi": 58,
      "time": 9.143,
      "duration": 0.429,
      "velocity": 0.59,
      "hand": "left"
    },
    {
      "midi": 62,
      "time": 9.143,
      "duration": 0.429,
      "velocity": 0.62,
      "hand": "right"
    },
    {
      "midi": 65,
      "time": 9.143,
      "duration": 0.429,
      "velocity": 0.62,
      "hand": "right"
    },
    {
      "midi": 46,
      "time": 9.571,
      "duration": 0.143,
      "velocity": 0.61,
      "hand": "left"
    },
    {
      "midi": 58,
      "time": 9.571,
      "duration": 0.143,
      "velocity": 0.61,
      "hand": "left"
    },
    {
      "midi": 62,
      "time": 9.571,
      "duration": 0.143,
      "velocity": 0.59,
      "hand": "right"
    },
    {
      "midi": 65,
      "time": 9.571,
      "duration": 0.143,
      "velocity": 0.59,
      "hand": "right"
    },
    {
      "midi": 46,
      "time": 9.714,
      "duration": 0.429,
      "velocity": 0.61,
      "hand": "left"
    },
    {
      "midi": 58,
      "time": 9.714,
      "duration": 0.429,
      "velocity": 0.61,
      "hand": "left"
    },
    {
      "midi": 62,
      "time": 9.714,
      "duration": 0.429,
      "velocity": 0.62,
      "hand": "right"
    },
    {
      "midi": 65,
      "time": 9.714,
      "duration": 0.429,
      "velocity": 0.62,
      "hand": "right"
    },
    {
      "midi": 46,
      "time": 10.143,
      "duration": 0.143,
      "velocity": 0.59,
      "hand": "left"
    },
    {
      "midi": 58,
      "time": 10.143,
      "duration": 0.143,
      "velocity": 0.59,
      "hand": "left"
    },
    {
      "midi": 63,
      "time": 10.143,
      "duration": 0.143,
      "velocity": 0.62,
      "hand": "right"
    },
    {
      "midi": 67,
      "time": 10.143,
      "duration": 0.143,
      "velocity": 0.62,
      "hand": "right"
    },
    {
      "midi": 46,
      "time": 10.286,
      "duration": 0.429,
      "velocity": 0.64,
      "hand": "left"
    },
    {
      "midi": 58,
      "time": 10.286,
      "duration": 0.429,
      "velocity": 0.64,
      "hand": "left"
    },
    {
      "midi": 62,
      "time": 10.286,
      "duration": 0.429,
      "velocity": 0.55,
      "hand": "right"
    },
    {
      "midi": 65,
      "time": 10.286,
      "duration": 0.429,
      "velocity": 0.55,
      "hand": "right"
    },
    {
      "midi": 46,
      "time": 10.714,
      "duration": 0.143,
      "velocity": 0.56,
      "hand": "left"
    },
    {
      "midi": 53,
      "time": 10.714,
      "duration": 0.143,
      "velocity": 0.56,
      "hand": "left"
    },
    {
      "midi": 60,
      "time": 10.714,
      "duration": 0.143,
      "velocity": 0.53,
      "hand": "right"
    },
    {
      "midi": 63,
      "time": 10.714,
      "duration": 0.143,
      "velocity": 0.53,
      "hand": "right"
    },
    {
      "midi": 46,
      "time": 10.857,
      "duration": 0.429,
      "velocity": 0.58,
      "hand": "left"
    },
    {
      "midi": 53,
      "time": 10.857,
      "duration": 0.429,
      "velocity": 0.58,
      "hand": "left"
    },
    {
      "midi": 58,
      "time": 10.857,
      "duration": 0.429,
      "velocity": 0.56,
      "hand": "left"
    },
    {
      "midi": 62,
      "time": 10.857,
      "duration": 0.429,
      "velocity": 0.56,
      "hand": "right"
    },
    {
      "midi": 46,
      "time": 11.286,
      "duration": 0.143,
      "velocity": 0.61,
      "hand": "left"
    },
    {
      "midi": 53,
      "time": 11.286,
      "duration": 0.143,
      "velocity": 0.61,
      "hand": "left"
    },
    {
      "midi": 60,
      "time": 11.286,
      "duration": 0.143,
      "velocity": 0.65,
      "hand": "right"
    },
    {
      "midi": 63,
      "time": 11.286,
      "duration": 0.143,
      "velocity": 0.65,
      "hand": "right"
    },
    {
      "midi": 46,
      "time": 11.429,
      "duration": 0.571,
      "velocity": 0.65,
      "hand": "left"
    },
    {
      "midi": 58,
      "time": 11.429,
      "duration": 0.571,
      "velocity": 0.65,
      "hand": "left"
    },
    {
      "midi": 62,
      "time": 11.429,
      "duration": 0.571,
      "velocity": 0.62,
      "hand": "right"
    },
    {
      "midi": 65,
      "time": 11.429,
      "duration": 0.571,
      "velocity": 0.62,
      "hand": "right"
    },
    {
      "midi": 46,
      "time": 12,
      "duration": 0.571,
      "velocity": 0.58,
      "hand": "left"
    },
    {
      "midi": 53,
      "time": 12,
      "duration": 0.571,
      "velocity": 0.58,
      "hand": "left"
    },
    {
      "midi": 62,
      "time": 12,
      "duration": 0.571,
      "velocity": 0.7,
      "hand": "right"
    },
    {
      "midi": 70,
      "time": 12,
      "duration": 0.571,
      "velocity": 0.7,
      "hand": "right"
    },
    {
      "midi": 46,
      "time": 12.571,
      "duration": 1.143,
      "velocity": 0.57,
      "hand": "left"
    },
    {
      "midi": 53,
      "time": 12.571,
      "duration": 1.143,
      "velocity": 0.57,
      "hand": "left"
    },
    {
      "midi": 62,
      "time": 12.571,
      "duration": 1.143,
      "velocity": 0.6,
      "hand": "right"
    },
    {
      "midi": 70,
      "time": 12.571,
      "duration": 1.143,
      "velocity": 0.6,
      "hand": "right"
    },
    {
      "midi": 46,
      "time": 13.714,
      "duration": 0.429,
      "velocity": 0.63,
      "hand": "left"
    },
    {
      "midi": 58,
      "time": 13.714,
      "duration": 0.429,
      "velocity": 0.63,
      "hand": "left"
    },
    {
      "midi": 65,
      "time": 13.714,
      "duration": 0.429,
      "velocity": 0.66,
      "hand": "right"
    },
    {
      "midi": 74,
      "time": 13.714,
      "duration": 0.429,
      "velocity": 0.66,
      "hand": "right"
    },
    {
      "midi": 46,
      "time": 14.143,
      "duration": 0.143,
      "velocity": 0.58,
      "hand": "left"
    },
    {
      "midi": 58,
      "time": 14.143,
      "duration": 0.143,
      "velocity": 0.58,
      "hand": "left"
    },
    {
      "midi": 65,
      "time": 14.143,
      "duration": 0.143,
      "velocity": 0.66,
      "hand": "right"
    },
    {
      "midi": 74,
      "time": 14.143,
      "duration": 0.143,
      "velocity": 0.66,
      "hand": "right"
    },
    {
      "midi": 46,
      "time": 14.286,
      "duration": 0.429,
      "velocity": 0.56,
      "hand": "left"
    },
    {
      "midi": 53,
      "time": 14.286,
      "duration": 0.429,
      "velocity": 0.56,
      "hand": "left"
    },
    {
      "midi": 62,
      "time": 14.286,
      "duration": 0.429,
      "velocity": 0.52,
      "hand": "right"
    },
    {
      "midi": 70,
      "time": 14.286,
      "duration": 0.429,
      "velocity": 0.52,
      "hand": "right"
    },
    {
      "midi": 46,
      "time": 14.714,
      "duration": 0.143,
      "velocity": 0.64,
      "hand": "left"
    },
    {
      "midi": 53,
      "time": 14.714,
      "duration": 0.143,
      "velocity": 0.64,
      "hand": "left"
    },
    {
      "midi": 62,
      "time": 14.714,
      "duration": 0.143,
      "velocity": 0.58,
      "hand": "right"
    },
    {
      "midi": 70,
      "time": 14.714,
      "duration": 0.143,
      "velocity": 0.58,
      "hand": "right"
    },
    {
      "midi": 51,
      "time": 14.857,
      "duration": 0.429,
      "velocity": 0.61,
      "hand": "left"
    },
    {
      "midi": 55,
      "time": 14.857,
      "duration": 0.429,
      "velocity": 0.61,
      "hand": "left"
    },
    {
      "midi": 63,
      "time": 14.857,
      "duration": 0.429,
      "velocity": 0.66,
      "hand": "right"
    },
    {
      "midi": 72,
      "time": 14.857,
      "duration": 0.429,
      "velocity": 0.66,
      "hand": "right"
    },
    {
      "midi": 51,
      "time": 15.286,
      "duration": 0.143,
      "velocity": 0.61,
      "hand": "left"
    },
    {
      "midi": 55,
      "time": 15.286,
      "duration": 0.143,
      "velocity": 0.61,
      "hand": "left"
    },
    {
      "midi": 63,
      "time": 15.286,
      "duration": 0.143,
      "velocity": 0.61,
      "hand": "right"
    },
    {
      "midi": 72,
      "time": 15.286,
      "duration": 0.143,
      "velocity": 0.61,
      "hand": "right"
    },
    {
      "midi": 53,
      "time": 15.429,
      "duration": 0.429,
      "velocity": 0.57,
      "hand": "left"
    },
    {
      "midi": 63,
      "time": 15.429,
      "duration": 0.429,
      "velocity": 0.54,
      "hand": "right"
    },
    {
      "midi": 69,
      "time": 15.429,
      "duration": 0.429,
      "velocity": 0.54,
      "hand": "right"
    },
    {
      "midi": 53,
      "time": 15.857,
      "duration": 0.143,
      "velocity": 0.6,
      "hand": "left"
    },
    {
      "midi": 63,
      "time": 15.857,
      "duration": 0.143,
      "velocity": 0.59,
      "hand": "right"
    },
    {
      "midi": 69,
      "time": 15.857,
      "duration": 0.143,
      "velocity": 0.59,
      "hand": "right"
    },
    {
      "midi": 46,
      "time": 16,
      "duration": 2.286,
      "velocity": 0.61,
      "hand": "left"
    },
    {
      "midi": 53,
      "time": 16,
      "duration": 2.286,
      "velocity": 0.61,
      "hand": "left"
    },
    {
      "midi": 62,
      "time": 16,
      "duration": 2.286,
      "velocity": 0.63,
      "hand": "right"
    },
    {
      "midi": 70,
      "time": 16,
      "duration": 2.286,
      "velocity": 0.63,
      "hand": "right"
    },
    {
      "midi": 46,
      "time": 18.286,
      "duration": 0.429,
      "velocity": 0.67,
      "hand": "left"
    },
    {
      "midi": 58,
      "time": 18.286,
      "duration": 0.429,
      "velocity": 0.67,
      "hand": "left"
    },
    {
      "midi": 65,
      "time": 18.286,
      "duration": 0.429,
      "velocity": 0.52,
      "hand": "right"
    },
    {
      "midi": 74,
      "time": 18.286,
      "duration": 1.143,
      "velocity": 0.67,
      "hand": "right"
    },
    {
      "midi": 46,
      "time": 18.714,
      "duration": 0.143,
      "velocity": 0.59,
      "hand": "left"
    },
    {
      "midi": 58,
      "time": 18.714,
      "duration": 0.143,
      "velocity": 0.59,
      "hand": "left"
    },
    {
      "midi": 65,
      "time": 18.714,
      "duration": 0.143,
      "velocity": 0.57,
      "hand": "right"
    },
    {
      "midi": 46,
      "time": 18.857,
      "duration": 0.429,
      "velocity": 0.58,
      "hand": "left"
    },
    {
      "midi": 58,
      "time": 18.857,
      "duration": 0.429,
      "velocity": 0.58,
      "hand": "left"
    },
    {
      "midi": 65,
      "time": 18.857,
      "duration": 0.429,
      "velocity": 0.61,
      "hand": "right"
    },
    {
      "midi": 46,
      "time": 19.286,
      "duration": 0.143,
      "velocity": 0.6,
      "hand": "left"
    },
    {
      "midi": 58,
      "time": 19.286,
      "duration": 0.143,
      "velocity": 0.6,
      "hand": "left"
    },
    {
      "midi": 65,
      "time": 19.286,
      "duration": 0.143,
      "velocity": 0.64,
      "hand": "right"
    },
    {
      "midi": 46,
      "time": 19.429,
      "duration": 0.429,
      "velocity": 0.59,
      "hand": "left"
    },
    {
      "midi": 58,
      "time": 19.429,
      "duration": 0.429,
      "velocity": 0.59,
      "hand": "left"
    },
    {
      "midi": 62,
      "time": 19.429,
      "duration": 0.429,
      "velocity": 0.53,
      "hand": "right"
    },
    {
      "midi": 70,
      "time": 19.429,
      "duration": 1.143,
      "velocity": 0.57,
      "hand": "right"
    },
    {
      "midi": 46,
      "time": 19.857,
      "duration": 0.143,
      "velocity": 0.54,
      "hand": "left"
    },
    {
      "midi": 58,
      "time": 19.857,
      "duration": 0.143,
      "velocity": 0.54,
      "hand": "left"
    },
    {
      "midi": 62,
      "time": 19.857,
      "duration": 0.143,
      "velocity": 0.57,
      "hand": "right"
    },
    {
      "midi": 46,
      "time": 20,
      "duration": 0.571,
      "velocity": 0.61,
      "hand": "left"
    },
    {
      "midi": 58,
      "time": 20,
      "duration": 0.571,
      "velocity": 0.61,
      "hand": "left"
    },
    {
      "midi": 62,
      "time": 20,
      "duration": 0.571,
      "velocity": 0.61,
      "hand": "right"
    },
    {
      "midi": 51,
      "time": 20.571,
      "duration": 0.429,
      "velocity": 0.6,
      "hand": "left"
    },
    {
      "midi": 58,
      "time": 20.571,
      "duration": 0.429,
      "velocity": 0.6,
      "hand": "left"
    },
    {
      "midi": 63,
      "time": 20.571,
      "duration": 0.429,
      "velocity": 0.64,
      "hand": "right"
    },
    {
      "midi": 67,
      "time": 20.571,
      "duration": 1.143,
      "velocity": 0.53,
      "hand": "right"
    },
    {
      "midi": 51,
      "time": 21,
      "duration": 0.143,
      "velocity": 0.56,
      "hand": "left"
    },
    {
      "midi": 58,
      "time": 21,
      "duration": 0.143,
      "velocity": 0.56,
      "hand": "left"
    },
    {
      "midi": 63,
      "time": 21,
      "duration": 0.143,
      "velocity": 0.61,
      "hand": "right"
    },
    {
      "midi": 51,
      "time": 21.143,
      "duration": 0.429,
      "velocity": 0.55,
      "hand": "left"
    },
    {
      "midi": 58,
      "time": 21.143,
      "duration": 0.429,
      "velocity": 0.55,
      "hand": "left"
    },
    {
      "midi": 63,
      "time": 21.143,
      "duration": 0.429,
      "velocity": 0.59,
      "hand": "right"
    },
    {
      "midi": 51,
      "time": 21.571,
      "duration": 0.143,
      "velocity": 0.6,
      "hand": "left"
    },
    {
      "midi": 58,
      "time": 21.571,
      "duration": 0.143,
      "velocity": 0.6,
      "hand": "left"
    },
    {
      "midi": 63,
      "time": 21.571,
      "duration": 0.143,
      "velocity": 0.61,
      "hand": "right"
    },
    {
      "midi": 55,
      "time": 21.714,
      "duration": 0.429,
      "velocity": 0.61,
      "hand": "left"
    },
    {
      "midi": 58,
      "time": 21.714,
      "duration": 0.429,
      "velocity": 0.61,
      "hand": "left"
    },
    {
      "midi": 62,
      "time": 21.714,
      "duration": 0.429,
      "velocity": 0.58,
      "hand": "right"
    },
    {
      "midi": 70,
      "time": 21.714,
      "duration": 1.143,
      "velocity": 0.57,
      "hand": "right"
    },
    {
      "midi": 55,
      "time": 22.143,
      "duration": 0.143,
      "velocity": 0.6,
      "hand": "left"
    },
    {
      "midi": 58,
      "time": 22.143,
      "duration": 0.143,
      "velocity": 0.6,
      "hand": "left"
    },
    {
      "midi": 62,
      "time": 22.143,
      "duration": 0.143,
      "velocity": 0.59,
      "hand": "right"
    },
    {
      "midi": 55,
      "time": 22.286,
      "duration": 0.571,
      "velocity": 0.6,
      "hand": "left"
    },
    {
      "midi": 58,
      "time": 22.286,
      "duration": 0.571,
      "velocity": 0.6,
      "hand": "left"
    },
    {
      "midi": 62,
      "time": 22.286,
      "duration": 0.571,
      "velocity": 0.58,
      "hand": "right"
    },
    {
      "midi": 53,
      "time": 22.857,
      "duration": 0.429,
      "velocity": 0.58,
      "hand": "left"
    },
    {
      "midi": 57,
      "time": 22.857,
      "duration": 0.429,
      "velocity": 0.58,
      "hand": "left"
    },
    {
      "midi": 65,
      "time": 22.857,
      "duration": 0.429,
      "velocity": 0.68,
      "hand": "right"
    },
    {
      "midi": 72,
      "time": 22.857,
      "duration": 0.429,
      "velocity": 0.68,
      "hand": "right"
    },
    {
      "midi": 53,
      "time": 23.286,
      "duration": 0.143,
      "velocity": 0.57,
      "hand": "left"
    },
    {
      "midi": 57,
      "time": 23.286,
      "duration": 0.143,
      "velocity": 0.57,
      "hand": "left"
    },
    {
      "midi": 65,
      "time": 23.286,
      "duration": 0.143,
      "velocity": 0.61,
      "hand": "right"
    },
    {
      "midi": 72,
      "time": 23.286,
      "duration": 0.143,
      "velocity": 0.61,
      "hand": "right"
    },
    {
      "midi": 53,
      "time": 23.429,
      "duration": 0.429,
      "velocity": 0.6,
      "hand": "left"
    },
    {
      "midi": 57,
      "time": 23.429,
      "duration": 0.429,
      "velocity": 0.6,
      "hand": "left"
    },
    {
      "midi": 65,
      "time": 23.429,
      "duration": 0.429,
      "velocity": 0.61,
      "hand": "right"
    },
    {
      "midi": 72,
      "time": 23.429,
      "duration": 0.429,
      "velocity": 0.61,
      "hand": "right"
    },
    {
      "midi": 53,
      "time": 23.857,
      "duration": 0.143,
      "velocity": 0.63,
      "hand": "left"
    },
    {
      "midi": 57,
      "time": 23.857,
      "duration": 0.143,
      "velocity": 0.63,
      "hand": "left"
    },
    {
      "midi": 65,
      "time": 23.857,
      "duration": 0.143,
      "velocity": 0.59,
      "hand": "right"
    },
    {
      "midi": 72,
      "time": 23.857,
      "duration": 0.143,
      "velocity": 0.59,
      "hand": "right"
    },
    {
      "midi": 53,
      "time": 24,
      "duration": 0.429,
      "velocity": 0.58,
      "hand": "left"
    },
    {
      "midi": 57,
      "time": 24,
      "duration": 0.429,
      "velocity": 0.58,
      "hand": "left"
    },
    {
      "midi": 65,
      "time": 24,
      "duration": 0.429,
      "velocity": 0.59,
      "hand": "right"
    },
    {
      "midi": 72,
      "time": 24,
      "duration": 0.429,
      "velocity": 0.59,
      "hand": "right"
    },
    {
      "midi": 53,
      "time": 24.429,
      "duration": 0.143,
      "velocity": 0.61,
      "hand": "left"
    },
    {
      "midi": 57,
      "time": 24.429,
      "duration": 0.143,
      "velocity": 0.61,
      "hand": "left"
    },
    {
      "midi": 65,
      "time": 24.429,
      "duration": 0.143,
      "velocity": 0.57,
      "hand": "right"
    },
    {
      "midi": 72,
      "time": 24.429,
      "duration": 0.143,
      "velocity": 0.57,
      "hand": "right"
    },
    {
      "midi": 53,
      "time": 24.571,
      "duration": 0.429,
      "velocity": 0.6,
      "hand": "left"
    },
    {
      "midi": 55,
      "time": 24.571,
      "duration": 0.429,
      "velocity": 0.6,
      "hand": "left"
    },
    {
      "midi": 65,
      "time": 24.571,
      "duration": 0.429,
      "velocity": 0.58,
      "hand": "right"
    },
    {
      "midi": 70,
      "time": 24.571,
      "duration": 0.429,
      "velocity": 0.58,
      "hand": "right"
    },
    {
      "midi": 53,
      "time": 25,
      "duration": 0.143,
      "velocity": 0.61,
      "hand": "left"
    },
    {
      "midi": 57,
      "time": 25,
      "duration": 0.143,
      "velocity": 0.61,
      "hand": "left"
    },
    {
      "midi": 65,
      "time": 25,
      "duration": 0.143,
      "velocity": 0.61,
      "hand": "right"
    },
    {
      "midi": 72,
      "time": 25,
      "duration": 0.143,
      "velocity": 0.61,
      "hand": "right"
    },
    {
      "midi": 58,
      "time": 25.143,
      "duration": 0.571,
      "velocity": 0.62,
      "hand": "left"
    },
    {
      "midi": 65,
      "time": 25.143,
      "duration": 0.571,
      "velocity": 0.65,
      "hand": "right"
    },
    {
      "midi": 74,
      "time": 25.143,
      "duration": 0.571,
      "velocity": 0.65,
      "hand": "right"
    },
    {
      "midi": 46,
      "time": 25.714,
      "duration": 0.571,
      "velocity": 0.54,
      "hand": "left"
    },
    {
      "midi": 53,
      "time": 25.714,
      "duration": 0.571,
      "velocity": 0.54,
      "hand": "left"
    },
    {
      "midi": 62,
      "time": 25.714,
      "duration": 0.571,
      "velocity": 0.53,
      "hand": "right"
    },
    {
      "midi": 70,
      "time": 25.714,
      "duration": 0.571,
      "velocity": 0.53,
      "hand": "right"
    },
    {
      "midi": 46,
      "time": 26.286,
      "duration": 0.571,
      "velocity": 0.6,
      "hand": "left"
    },
    {
      "midi": 58,
      "time": 26.286,
      "duration": 0.571,
      "velocity": 0.6,
      "hand": "left"
    },
    {
      "midi": 63,
      "time": 26.286,
      "duration": 0.571,
      "velocity": 0.53,
      "hand": "right"
    },
    {
      "midi": 67,
      "time": 26.286,
      "duration": 0.571,
      "velocity": 0.53,
      "hand": "right"
    },
    {
      "midi": 46,
      "time": 26.857,
      "duration": 0.571,
      "velocity": 0.56,
      "hand": "left"
    },
    {
      "midi": 53,
      "time": 26.857,
      "duration": 0.571,
      "velocity": 0.56,
      "hand": "left"
    },
    {
      "midi": 62,
      "time": 26.857,
      "duration": 0.571,
      "velocity": 0.63,
      "hand": "right"
    },
    {
      "midi": 70,
      "time": 26.857,
      "duration": 0.571,
      "velocity": 0.63,
      "hand": "right"
    },
    {
      "midi": 46,
      "time": 27.429,
      "duration": 0.429,
      "velocity": 0.64,
      "hand": "left"
    },
    {
      "midi": 58,
      "time": 27.429,
      "duration": 0.429,
      "velocity": 0.64,
      "hand": "left"
    },
    {
      "midi": 65,
      "time": 27.429,
      "duration": 0.429,
      "velocity": 0.63,
      "hand": "right"
    },
    {
      "midi": 74,
      "time": 27.429,
      "duration": 1.143,
      "velocity": 0.69,
      "hand": "right"
    },
    {
      "midi": 46,
      "time": 27.857,
      "duration": 0.143,
      "velocity": 0.61,
      "hand": "left"
    },
    {
      "midi": 58,
      "time": 27.857,
      "duration": 0.143,
      "velocity": 0.61,
      "hand": "left"
    },
    {
      "midi": 65,
      "time": 27.857,
      "duration": 0.143,
      "velocity": 0.61,
      "hand": "right"
    },
    {
      "midi": 46,
      "time": 28,
      "duration": 0.429,
      "velocity": 0.57,
      "hand": "left"
    },
    {
      "midi": 58,
      "time": 28,
      "duration": 0.429,
      "velocity": 0.57,
      "hand": "left"
    },
    {
      "midi": 65,
      "time": 28,
      "duration": 0.429,
      "velocity": 0.55,
      "hand": "right"
    },
    {
      "midi": 46,
      "time": 28.429,
      "duration": 0.143,
      "velocity": 0.61,
      "hand": "left"
    },
    {
      "midi": 58,
      "time": 28.429,
      "duration": 0.143,
      "velocity": 0.61,
      "hand": "left"
    },
    {
      "midi": 65,
      "time": 28.429,
      "duration": 0.143,
      "velocity": 0.56,
      "hand": "right"
    },
    {
      "midi": 46,
      "time": 28.571,
      "duration": 0.429,
      "velocity": 0.62,
      "hand": "left"
    },
    {
      "midi": 58,
      "time": 28.571,
      "duration": 0.429,
      "velocity": 0.62,
      "hand": "left"
    },
    {
      "midi": 62,
      "time": 28.571,
      "duration": 0.429,
      "velocity": 0.56,
      "hand": "right"
    },
    {
      "midi": 70,
      "time": 28.571,
      "duration": 1.143,
      "velocity": 0.5,
      "hand": "right"
    },
    {
      "midi": 46,
      "time": 29,
      "duration": 0.143,
      "velocity": 0.61,
      "hand": "left"
    },
    {
      "midi": 58,
      "time": 29,
      "duration": 0.143,
      "velocity": 0.61,
      "hand": "left"
    },
    {
      "midi": 62,
      "time": 29,
      "duration": 0.143,
      "velocity": 0.58,
      "hand": "right"
    },
    {
      "midi": 46,
      "time": 29.143,
      "duration": 0.571,
      "velocity": 0.55,
      "hand": "left"
    },
    {
      "midi": 58,
      "time": 29.143,
      "duration": 0.571,
      "velocity": 0.55,
      "hand": "left"
    },
    {
      "midi": 62,
      "time": 29.143,
      "duration": 0.571,
      "velocity": 0.58,
      "hand": "right"
    },
    {
      "midi": 51,
      "time": 29.714,
      "duration": 0.429,
      "velocity": 0.62,
      "hand": "left"
    },
    {
      "midi": 58,
      "time": 29.714,
      "duration": 0.429,
      "velocity": 0.62,
      "hand": "left"
    },
    {
      "midi": 63,
      "time": 29.714,
      "duration": 0.429,
      "velocity": 0.61,
      "hand": "right"
    },
    {
      "midi": 67,
      "time": 29.714,
      "duration": 1.143,
      "velocity": 0.52,
      "hand": "right"
    },
    {
      "midi": 51,
      "time": 30.143,
      "duration": 0.143,
      "velocity": 0.57,
      "hand": "left"
    },
    {
      "midi": 58,
      "time": 30.143,
      "duration": 0.143,
      "velocity": 0.57,
      "hand": "left"
    },
    {
      "midi": 63,
      "time": 30.143,
      "duration": 0.143,
      "velocity": 0.6,
      "hand": "right"
    },
    {
      "midi": 51,
      "time": 30.286,
      "duration": 0.429,
      "velocity": 0.61,
      "hand": "left"
    },
    {
      "midi": 58,
      "time": 30.286,
      "duration": 0.429,
      "velocity": 0.61,
      "hand": "left"
    },
    {
      "midi": 63,
      "time": 30.286,
      "duration": 0.429,
      "velocity": 0.6,
      "hand": "right"
    },
    {
      "midi": 51,
      "time": 30.714,
      "duration": 0.143,
      "velocity": 0.6,
      "hand": "left"
    },
    {
      "midi": 58,
      "time": 30.714,
      "duration": 0.143,
      "velocity": 0.6,
      "hand": "left"
    },
    {
      "midi": 63,
      "time": 30.714,
      "duration": 0.143,
      "velocity": 0.61,
      "hand": "right"
    },
    {
      "midi": 51,
      "time": 30.857,
      "duration": 0.429,
      "velocity": 0.61,
      "hand": "left"
    },
    {
      "midi": 58,
      "time": 30.857,
      "duration": 0.429,
      "velocity": 0.61,
      "hand": "left"
    },
    {
      "midi": 67,
      "time": 30.857,
      "duration": 0.429,
      "velocity": 0.65,
      "hand": "right"
    },
    {
      "midi": 75,
      "time": 30.857,
      "duration": 2,
      "velocity": 0.71,
      "hand": "right"
    },
    {
      "midi": 51,
      "time": 31.286,
      "duration": 0.143,
      "velocity": 0.61,
      "hand": "left"
    },
    {
      "midi": 58,
      "time": 31.286,
      "duration": 0.143,
      "velocity": 0.61,
      "hand": "left"
    },
    {
      "midi": 67,
      "time": 31.286,
      "duration": 0.143,
      "velocity": 0.58,
      "hand": "right"
    },
    {
      "midi": 51,
      "time": 31.429,
      "duration": 1.429,
      "velocity": 0.59,
      "hand": "left"
    },
    {
      "midi": 58,
      "time": 31.429,
      "duration": 1.429,
      "velocity": 0.59,
      "hand": "left"
    },
    {
      "midi": 67,
      "time": 31.429,
      "duration": 1.429,
      "velocity": 0.6,
      "hand": "right"
    },
    {
      "midi": 51,
      "time": 32.857,
      "duration": 0.286,
      "velocity": 0.58,
      "hand": "left"
    },
    {
      "midi": 55,
      "time": 32.857,
      "duration": 0.286,
      "velocity": 0.58,
      "hand": "left"
    },
    {
      "midi": 63,
      "time": 32.857,
      "duration": 0.286,
      "velocity": 0.57,
      "hand": "right"
    },
    {
      "midi": 72,
      "time": 32.857,
      "duration": 0.286,
      "velocity": 0.57,
      "hand": "right"
    },
    {
      "midi": 53,
      "time": 33.143,
      "duration": 0.429,
      "velocity": 0.64,
      "hand": "left"
    },
    {
      "midi": 58,
      "time": 33.143,
      "duration": 0.429,
      "velocity": 0.64,
      "hand": "left"
    },
    {
      "midi": 62,
      "time": 33.143,
      "duration": 0.429,
      "velocity": 0.53,
      "hand": "right"
    },
    {
      "midi": 70,
      "time": 33.143,
      "duration": 0.429,
      "velocity": 0.53,
      "hand": "right"
    },
    {
      "midi": 53,
      "time": 33.571,
      "duration": 0.143,
      "velocity": 0.6,
      "hand": "left"
    },
    {
      "midi": 58,
      "time": 33.571,
      "duration": 0.143,
      "velocity": 0.6,
      "hand": "left"
    },
    {
      "midi": 62,
      "time": 33.571,
      "duration": 0.143,
      "velocity": 0.55,
      "hand": "right"
    },
    {
      "midi": 70,
      "time": 33.571,
      "duration": 0.143,
      "velocity": 0.55,
      "hand": "right"
    },
    {
      "midi": 53,
      "time": 33.714,
      "duration": 0.429,
      "velocity": 0.58,
      "hand": "left"
    },
    {
      "midi": 58,
      "time": 33.714,
      "duration": 0.429,
      "velocity": 0.58,
      "hand": "left"
    },
    {
      "midi": 62,
      "time": 33.714,
      "duration": 0.429,
      "velocity": 0.6,
      "hand": "right"
    },
    {
      "midi": 70,
      "time": 33.714,
      "duration": 0.429,
      "velocity": 0.6,
      "hand": "right"
    },
    {
      "midi": 53,
      "time": 34.143,
      "duration": 0.143,
      "velocity": 0.56,
      "hand": "left"
    },
    {
      "midi": 57,
      "time": 34.143,
      "duration": 0.143,
      "velocity": 0.56,
      "hand": "left"
    },
    {
      "midi": 63,
      "time": 34.143,
      "duration": 0.143,
      "velocity": 0.66,
      "hand": "right"
    },
    {
      "midi": 72,
      "time": 34.143,
      "duration": 0.143,
      "velocity": 0.66,
      "hand": "right"
    },
    {
      "midi": 53,
      "time": 34.286,
      "duration": 0.429,
      "velocity": 0.61,
      "hand": "left"
    },
    {
      "midi": 58,
      "time": 34.286,
      "duration": 0.429,
      "velocity": 0.61,
      "hand": "left"
    },
    {
      "midi": 65,
      "time": 34.286,
      "duration": 0.429,
      "velocity": 0.64,
      "hand": "right"
    },
    {
      "midi": 74,
      "time": 34.286,
      "duration": 0.429,
      "velocity": 0.64,
      "hand": "right"
    },
    {
      "midi": 53,
      "time": 34.714,
      "duration": 0.143,
      "velocity": 0.62,
      "hand": "left"
    },
    {
      "midi": 58,
      "time": 34.714,
      "duration": 0.143,
      "velocity": 0.62,
      "hand": "left"
    },
    {
      "midi": 65,
      "time": 34.714,
      "duration": 0.143,
      "velocity": 0.64,
      "hand": "right"
    },
    {
      "midi": 74,
      "time": 34.714,
      "duration": 0.143,
      "velocity": 0.64,
      "hand": "right"
    },
    {
      "midi": 53,
      "time": 34.857,
      "duration": 0.429,
      "velocity": 0.58,
      "hand": "left"
    },
    {
      "midi": 57,
      "time": 34.857,
      "duration": 0.429,
      "velocity": 0.58,
      "hand": "left"
    },
    {
      "midi": 63,
      "time": 34.857,
      "duration": 0.429,
      "velocity": 0.57,
      "hand": "right"
    },
    {
      "midi": 72,
      "time": 34.857,
      "duration": 0.429,
      "velocity": 0.57,
      "hand": "right"
    },
    {
      "midi": 53,
      "time": 35.286,
      "duration": 0.143,
      "velocity": 0.57,
      "hand": "left"
    },
    {
      "midi": 63,
      "time": 35.286,
      "duration": 0.143,
      "velocity": 0.58,
      "hand": "right"
    },
    {
      "midi": 72,
      "time": 35.286,
      "duration": 0.143,
      "velocity": 0.58,
      "hand": "right"
    },
    {
      "midi": 46,
      "time": 35.429,
      "duration": 2.286,
      "velocity": 0.58,
      "hand": "left"
    },
    {
      "midi": 53,
      "time": 35.429,
      "duration": 2.286,
      "velocity": 0.58,
      "hand": "left"
    },
    {
      "midi": 62,
      "time": 35.429,
      "duration": 2.286,
      "velocity": 0.57,
      "hand": "right"
    },
    {
      "midi": 70,
      "time": 35.429,
      "duration": 2.286,
      "velocity": 0.57,
      "hand": "right"
    }
  ]
}
