{
  "id": "fugue-in-e-flat-major-kv-153375fmozart",
  "title": "Fuga em Mi Bemol Maior, KV 153/375f",
  "artist": "Wolfgang Amadeus Mozart",
  "difficulty": "Difícil",
  "bpm": 110,
  "duration": 144,
  "category": "Clássicos",
  "isPremium": true,
  "coverUrl": "/images/covers/placeholder.png",
  "notes": [
    {
      "midi": 46,
      "time": 0,
      "duration": 0.136,
      "velocity": 0.71,
      "hand": "left"
    },
    {
      "midi": 51,
      "time": 0.136,
      "duration": 0.545,
      "velocity": 0.71,
      "hand": "left"
    },
    {
      "midi": 51,
      "time": 0.682,
      "duration": 0.545,
      "velocity": 0.71,
      "hand": "left"
    },
    {
      "midi": 50,
      "time": 1.227,
      "duration": 0.545,
      "velocity": 0.71,
      "hand": "left"
    },
    {
      "midi": 51,
      "time": 2.182,
      "duration": 0.136,
      "velocity": 0.71,
      "hand": "left"
    },
    {
      "midi": 56,
      "time": 2.318,
      "duration": 0.545,
      "velocity": 0.71,
      "hand": "left"
    },
    {
      "midi": 56,
      "time": 2.864,
      "duration": 0.545,
      "velocity": 0.71,
      "hand": "left"
    },
    {
      "midi": 55,
      "time": 3.409,
      "duration": 0.545,
      "velocity": 0.71,
      "hand": "left"
    },
    {
      "midi": 58,
      "time": 4.364,
      "duration": 0.136,
      "velocity": 0.71,
      "hand": "left"
    },
    {
      "midi": 63,
      "time": 4.5,
      "duration": 0.273,
      "velocity": 0.71,
      "hand": "right"
    },
    {
      "midi": 62,
      "time": 4.773,
      "duration": 0.273,
      "velocity": 0.71,
      "hand": "right"
    },
    {
      "midi": 60,
      "time": 5.045,
      "duration": 0.273,
      "velocity": 0.71,
      "hand": "right"
    },
    {
      "midi": 58,
      "time": 5.318,
      "duration": 0.273,
      "velocity": 0.71,
      "hand": "left"
    },
    {
      "midi": 56,
      "time": 5.591,
      "duration": 0.273,
      "velocity": 0.71,
      "hand": "left"
    },
    {
      "midi": 55,
      "time": 5.864,
      "duration": 0.273,
      "velocity": 0.71,
      "hand": "left"
    },
    {
      "midi": 53,
      "time": 6.136,
      "duration": 0.273,
      "velocity": 0.71,
      "hand": "left"
    },
    {
      "midi": 51,
      "time": 6.409,
      "duration": 0.273,
      "velocity": 0.71,
      "hand": "left"
    },
    {
      "midi": 50,
      "time": 6.682,
      "duration": 0.273,
      "velocity": 0.71,
      "hand": "left"
    },
    {
      "midi": 48,
      "time": 6.955,
      "duration": 0.273,
      "velocity": 0.71,
      "hand": "left"
    },
    {
      "midi": 46,
      "time": 7.227,
      "duration": 0.273,
      "velocity": 0.71,
      "hand": "left"
    },
    {
      "midi": 44,
      "time": 7.5,
      "duration": 0.273,
      "velocity": 0.71,
      "hand": "left"
    },
    {
      "midi": 43,
      "time": 7.773,
      "duration": 0.273,
      "velocity": 0.71,
      "hand": "left"
    },
    {
      "midi": 41,
      "time": 8.045,
      "duration": 0.273,
      "velocity": 0.71,
      "hand": "left"
    },
    {
      "midi": 39,
      "time": 8.318,
      "duration": 0.273,
      "velocity": 0.71,
      "hand": "left"
    },
    {
      "midi": 41,
      "time": 8.591,
      "duration": 0.273,
      "velocity": 0.71,
      "hand": "left"
    },
    {
      "midi": 51,
      "time": 8.727,
      "duration": 0.136,
      "velocity": 0.71,
      "hand": "left"
    },
    {
      "midi": 43,
      "time": 8.864,
      "duration": 0.273,
      "velocity": 0.71,
      "hand": "left"
    },
    {
      "midi": 58,
      "time": 8.864,
      "duration": 0.545,
      "velocity": 0.71,
      "hand": "left"
    },
    {
      "midi": 41,
      "time": 9.136,
      "duration": 0.273,
      "velocity": 0.71,
      "hand": "left"
    },
    {
      "midi": 40,
      "time": 9.409,
      "duration": 0.273,
      "velocity": 0.71,
      "hand": "left"
    },
    {
      "midi": 58,
      "time": 9.409,
      "duration": 0.545,
      "velocity": 0.71,
      "hand": "left"
    },
    {
      "midi": 36,
      "time": 9.682,
      "duration": 0.273,
      "velocity": 0.71,
      "hand": "left"
    },
    {
      "midi": 41,
      "time": 9.955,
      "duration": 0.273,
      "velocity": 0.71,
      "hand": "left"
    },
    {
      "midi": 57,
      "time": 9.955,
      "duration": 0.545,
      "velocity": 0.71,
      "hand": "left"
    },
    {
      "midi": 48,
      "time": 10.227,
      "duration": 0.273,
      "velocity": 0.71,
      "hand": "left"
    },
    {
      "midi": 51,
      "time": 10.5,
      "duration": 0.273,
      "velocity": 0.71,
      "hand": "left"
    },
    {
      "midi": 50,
      "time": 10.773,
      "duration": 0.273,
      "velocity": 0.71,
      "hand": "left"
    },
    {
      "midi": 58,
      "time": 10.909,
      "duration": 0.136,
      "velocity": 0.71,
      "hand": "left"
    },
    {
      "midi": 48,
      "time": 11.045,
      "duration": 0.273,
      "velocity": 0.71,
      "hand": "left"
    },
    {
      "midi": 63,
      "time": 11.045,
      "duration": 0.545,
      "velocity": 0.71,
      "hand": "right"
    },
    {
      "midi": 46,
      "time": 11.318,
      "duration": 0.273,
      "velocity": 0.71,
      "hand": "left"
    },
    {
      "midi": 45,
      "time": 11.591,
      "duration": 0.273,
      "velocity": 0.71,
      "hand": "left"
    },
    {
      "midi": 63,
      "time": 11.591,
      "duration": 0.545,
      "velocity": 0.71,
      "hand": "right"
    },
    {
      "midi": 41,
      "time": 11.864,
      "duration": 0.273,
      "velocity": 0.71,
      "hand": "left"
    },
    {
      "midi": 46,
      "time": 12.136,
      "duration": 0.273,
      "velocity": 0.71,
      "hand": "left"
    },
    {
      "midi": 62,
      "time": 12.136,
      "duration": 0.545,
      "velocity": 0.71,
      "hand": "right"
    },
    {
      "midi": 53,
      "time": 12.409,
      "duration": 0.273,
      "velocity": 0.71,
      "hand": "left"
    },
    {
      "midi": 58,
      "time": 12.682,
      "duration": 0.273,
      "velocity": 0.71,
      "hand": "left"
    },
    {
      "midi": 57,
      "time": 12.955,
      "duration": 0.273,
      "velocity": 0.71,
      "hand": "left"
    },
    {
      "midi": 65,
      "time": 13.091,
      "duration": 0.136,
      "velocity": 0.71,
      "hand": "right"
    },
    {
      "midi": 55,
      "time": 13.227,
      "duration": 0.273,
      "velocity": 0.71,
      "hand": "left"
    },
    {
      "midi": 70,
      "time": 13.227,
      "duration": 0.273,
      "velocity": 0.71,
      "hand": "right"
    },
    {
      "midi": 53,
      "time": 13.5,
      "duration": 0.273,
      "velocity": 0.71,
      "hand": "left"
    },
    {
      "midi": 69,
      "time": 13.5,
      "duration": 0.273,
      "velocity": 0.71,
      "hand": "right"
    },
    {
      "midi": 51,
      "time": 13.773,
      "duration": 0.273,
      "velocity": 0.71,
      "hand": "left"
    },
    {
      "midi": 67,
      "time": 13.773,
      "duration": 0.273,
      "velocity": 0.71,
      "hand": "right"
    },
    {
      "midi": 50,
      "time": 14.045,
      "duration": 0.273,
      "velocity": 0.71,
      "hand": "left"
    },
    {
      "midi": 65,
      "time": 14.045,
      "duration": 0.273,
      "velocity": 0.71,
      "hand": "right"
    },
    {
      "midi": 48,
      "time": 14.318,
      "duration": 0.273,
      "velocity": 0.71,
      "hand": "left"
    },
    {
      "midi": 63,
      "time": 14.318,
      "duration": 0.273,
      "velocity": 0.71,
      "hand": "right"
    },
    {
      "midi": 46,
      "time": 14.591,
      "duration": 0.273,
      "velocity": 0.71,
      "hand": "left"
    },
    {
      "midi": 62,
      "time": 14.591,
      "duration": 0.273,
      "velocity": 0.71,
      "hand": "right"
    },
    {
      "midi": 45,
      "time": 14.864,
      "duration": 0.273,
      "velocity": 0.71,
      "hand": "left"
    },
    {
      "midi": 60,
      "time": 14.864,
      "duration": 0.273,
      "velocity": 0.71,
      "hand": "right"
    },
    {
      "midi": 43,
      "time": 15.136,
      "duration": 0.273,
      "velocity": 0.71,
      "hand": "left"
    },
    {
      "midi": 58,
      "time": 15.136,
      "duration": 0.273,
      "velocity": 0.71,
      "hand": "left"
    },
    {
      "midi": 41,
      "time": 15.409,
      "duration": 0.273,
      "velocity": 0.71,
      "hand": "left"
    },
    {
      "midi": 57,
      "time": 15.409,
      "duration": 0.273,
      "velocity": 0.71,
      "hand": "left"
    },
    {
      "midi": 43,
      "time": 15.682,
      "duration": 0.273,
      "velocity": 0.71,
      "hand": "left"
    },
    {
      "midi": 55,
      "time": 15.682,
      "duration": 0.273,
      "velocity": 0.71,
      "hand": "left"
    },
    {
      "midi": 45,
      "time": 15.955,
      "duration": 0.273,
      "velocity": 0.71,
      "hand": "left"
    },
    {
      "midi": 53,
      "time": 15.955,
      "duration": 0.273,
      "velocity": 0.71,
      "hand": "left"
    },
    {
      "midi": 41,
      "time": 16.227,
      "duration": 0.273,
      "velocity": 0.71,
      "hand": "left"
    },
    {
      "midi": 51,
      "time": 16.227,
      "duration": 0.273,
      "velocity": 0.71,
      "hand": "left"
    },
    {
      "midi": 46,
      "time": 16.5,
      "duration": 0.273,
      "velocity": 0.71,
      "hand": "left"
    },
    {
      "midi": 50,
      "time": 16.5,
      "duration": 0.273,
      "velocity": 0.71,
      "hand": "left"
    },
    {
      "midi": 48,
      "time": 16.773,
      "duration": 0.273,
      "velocity": 0.71,
      "hand": "left"
    },
    {
      "midi": 51,
      "time": 16.773,
      "duration": 0.273,
      "velocity": 0.71,
      "hand": "left"
    },
    {
      "midi": 50,
      "time": 17.045,
      "duration": 0.273,
      "velocity": 0.71,
      "hand": "left"
    },
    {
      "midi": 53,
      "time": 17.045,
      "duration": 0.273,
      "velocity": 0.71,
      "hand": "left"
    },
    {
      "midi": 51,
      "time": 17.318,
      "duration": 0.273,
      "velocity": 0.71,
      "hand": "left"
    },
    {
      "midi": 55,
      "time": 17.318,
      "duration": 0.273,
      "velocity": 0.71,
      "hand": "left"
    },
    {
      "midi": 53,
      "time": 17.591,
      "duration": 0.273,
      "velocity": 0.71,
      "hand": "left"
    },
    {
      "midi": 56,
      "time": 17.591,
      "duration": 0.273,
      "velocity": 0.71,
      "hand": "left"
    },
    {
      "midi": 55,
      "time": 17.864,
      "duration": 0.273,
      "velocity": 0.71,
      "hand": "left"
    },
    {
      "midi": 58,
      "time": 17.864,
      "duration": 0.273,
      "velocity": 0.71,
      "hand": "left"
    },
    {
      "midi": 53,
      "time": 18.136,
      "duration": 0.273,
      "velocity": 0.71,
      "hand": "left"
    },
    {
      "midi": 60,
      "time": 18.136,
      "duration": 0.818,
      "velocity": 0.71,
      "hand": "right"
    },
    {
      "midi": 51,
      "time": 18.409,
      "duration": 0.273,
      "velocity": 0.71,
      "hand": "left"
    },
    {
      "midi": 50,
      "time": 18.682,
      "duration": 0.273,
      "velocity": 0.71,
      "hand": "left"
    },
    {
      "midi": 46,
      "time": 18.955,
      "duration": 0.273,
      "velocity": 0.71,
      "hand": "left"
    },
    {
      "midi": 53,
      "time": 18.955,
      "duration": 0.273,
      "velocity": 0.71,
      "hand": "left"
    },
    {
      "midi": 48,
      "time": 19.227,
      "duration": 0.273,
      "velocity": 0.71,
      "hand": "left"
    },
    {
      "midi": 58,
      "time": 19.227,
      "duration": 0.273,
      "velocity": 0.71,
      "hand": "left"
    },
    {
      "midi": 50,
      "time": 19.5,
      "duration": 0.273,
      "velocity": 0.71,
      "hand": "left"
    },
    {
      "midi": 56,
      "time": 19.5,
      "duration": 0.273,
      "velocity": 0.71,
      "hand": "left"
    },
    {
      "midi": 58,
      "time": 19.636,
      "duration": 0.136,
      "velocity": 0.71,
      "hand": "left"
    },
    {
      "midi": 51,
      "time": 19.773,
      "duration": 0.273,
      "velocity": 0.71,
      "hand": "left"
    },
    {
      "midi": 55,
      "time": 19.773,
      "duration": 0.273,
      "velocity": 0.71,
      "hand": "left"
    },
    {
      "midi": 63,
      "time": 19.773,
      "duration": 0.545,
      "velocity": 0.71,
      "hand": "right"
    },
    {
      "midi": 50,
      "time": 20.045,
      "duration": 0.273,
      "velocity": 0.71,
      "hand": "left"
    },
    {
      "midi": 53,
      "time": 20.045,
      "duration": 0.273,
      "velocity": 0.71,
      "hand": "left"
    },
    {
      "midi": 51,
      "time": 20.318,
      "duration": 0.273,
      "velocity": 0.71,
      "hand": "left"
    },
    {
      "midi": 55,
      "time": 20.318,
      "duration": 0.273,
      "velocity": 0.71,
      "hand": "left"
    },
    {
      "midi": 63,
      "time": 20.318,
      "duration": 0.545,
      "velocity": 0.71,
      "hand": "right"
    },
    {
      "midi": 48,
      "time": 20.591,
      "duration": 0.273,
      "velocity": 0.71,
      "hand": "left"
    },
    {
      "midi": 57,
      "time": 20.591,
      "duration": 0.273,
      "velocity": 0.71,
      "hand": "left"
    },
    {
      "midi": 46,
      "time": 20.864,
      "duration": 0.273,
      "velocity": 0.71,
      "hand": "left"
    },
    {
      "midi": 58,
      "time": 20.864,
      "duration": 1.091,
      "velocity": 0.71,
      "hand": "left"
    },
    {
      "midi": 62,
      "time": 20.864,
      "duration": 0.545,
      "velocity": 0.71,
      "hand": "right"
    },
    {
      "midi": 53,
      "time": 21.136,
      "duration": 0.273,
      "velocity": 0.71,
      "hand": "left"
    },
    {
      "midi": 56,
      "time": 21.409,
      "duration": 0.273,
      "velocity": 0.71,
      "hand": "left"
    },
    {
      "midi": 55,
      "time": 21.682,
      "duration": 0.273,
      "velocity": 0.71,
      "hand": "left"
    },
    {
      "midi": 63,
      "time": 21.818,
      "duration": 0.136,
      "velocity": 0.71,
      "hand": "right"
    },
    {
      "midi": 53,
      "time": 21.955,
      "duration": 0.273,
      "velocity": 0.71,
      "hand": "left"
    },
    {
      "midi": 62,
      "time": 21.955,
      "duration": 0.273,
      "velocity": 0.71,
      "hand": "right"
    },
    {
      "midi": 68,
      "time": 21.955,
      "duration": 0.545,
      "velocity": 0.71,
      "hand": "right"
    },
    {
      "midi": 51,
      "time": 22.227,
      "duration": 0.273,
      "velocity": 0.71,
      "hand": "left"
    },
    {
      "midi": 63,
      "time": 22.227,
      "duration": 0.273,
      "velocity": 0.71,
      "hand": "right"
    },
    {
      "midi": 50,
      "time": 22.5,
      "duration": 0.273,
      "velocity": 0.71,
      "hand": "left"
    },
    {
      "midi": 65,
      "time": 22.5,
      "duration": 0.273,
      "velocity": 0.71,
      "hand": "right"
    },
    {
      "midi": 68,
      "time": 22.5,
      "duration": 0.545,
      "velocity": 0.71,
      "hand": "right"
    },
    {
      "midi": 46,
      "time": 22.773,
      "duration": 0.273,
      "velocity": 0.71,
      "hand": "left"
    },
    {
      "midi": 62,
      "time": 22.773,
      "duration": 0.273,
      "velocity": 0.71,
      "hand": "right"
    },
    {
      "midi": 51,
      "time": 23.045,
      "duration": 0.273,
      "velocity": 0.71,
      "hand": "left"
    },
    {
      "midi": 63,
      "time": 23.045,
      "duration": 2.182,
      "velocity": 0.71,
      "hand": "right"
    },
    {
      "midi": 67,
      "time": 23.045,
      "duration": 0.545,
      "velocity": 0.71,
      "hand": "right"
    },
    {
      "midi": 58,
      "time": 23.318,
      "duration": 0.273,
      "velocity": 0.71,
      "hand": "left"
    },
    {
      "midi": 63,
      "time": 23.591,
      "duration": 0.273,
      "velocity": 0.71,
      "hand": "right"
    },
    {
      "midi": 62,
      "time": 23.864,
      "duration": 0.273,
      "velocity": 0.71,
      "hand": "right"
    },
    {
      "midi": 70,
      "time": 24,
      "duration": 0.136,
      "velocity": 0.71,
      "hand": "right"
    },
    {
      "midi": 60,
      "time": 24.136,
      "duration": 0.273,
      "velocity": 0.71,
      "hand": "right"
    },
    {
      "midi": 75,
      "time": 24.136,
      "duration": 0.273,
      "velocity": 0.71,
      "hand": "right"
    },
    {
      "midi": 58,
      "time": 24.409,
      "duration": 0.273,
      "velocity": 0.71,
      "hand": "left"
    },
    {
      "midi": 74,
      "time": 24.409,
      "duration": 0.273,
      "velocity": 0.71,
      "hand": "right"
    },
    {
      "midi": 56,
      "time": 24.682,
      "duration": 0.273,
      "velocity": 0.71,
      "hand": "left"
    },
    {
      "midi": 72,
      "time": 24.682,
      "duration": 0.273,
      "velocity": 0.71,
      "hand": "right"
    },
    {
      "midi": 55,
      "time": 24.955,
      "duration": 0.273,
      "velocity": 0.71,
      "hand": "left"
    },
    {
      "midi": 70,
      "time": 24.955,
      "duration": 0.273,
      "velocity": 0.71,
      "hand": "right"
    },
    {
      "midi": 53,
      "time": 25.227,
      "duration": 0.273,
      "velocity": 0.71,
      "hand": "left"
    },
    {
      "midi": 62,
      "time": 25.227,
      "duration": 0.273,
      "velocity": 0.71,
      "hand": "right"
    },
    {
      "midi": 68,
      "time": 25.227,
      "duration": 0.273,
      "velocity": 0.71,
      "hand": "right"
    },
    {
      "midi": 51,
      "time": 25.5,
      "duration": 0.273,
      "velocity": 0.71,
      "hand": "left"
    },
    {
      "midi": 63,
      "time": 25.5,
      "duration": 0.273,
      "velocity": 0.71,
      "hand": "right"
    },
    {
      "midi": 67,
      "time": 25.5,
      "duration": 0.273,
      "velocity": 0.71,
      "hand": "right"
    },
    {
      "midi": 50,
      "time": 25.773,
      "duration": 0.273,
      "velocity": 0.71,
      "hand": "left"
    },
    {
      "midi": 58,
      "time": 25.773,
      "duration": 0.273,
      "velocity": 0.71,
      "hand": "left"
    },
    {
      "midi": 65,
      "time": 25.773,
      "duration": 0.273,
      "velocity": 0.71,
      "hand": "right"
    },
    {
      "midi": 48,
      "time": 26.045,
      "duration": 0.273,
      "velocity": 0.71,
      "hand": "left"
    },
    {
      "midi": 57,
      "time": 26.045,
      "duration": 0.273,
      "velocity": 0.71,
      "hand": "left"
    },
    {
      "midi": 63,
      "time": 26.045,
      "duration": 0.273,
      "velocity": 0.71,
      "hand": "right"
    },
    {
      "midi": 46,
      "time": 26.318,
      "duration": 0.273,
      "velocity": 0.71,
      "hand": "left"
    },
    {
      "midi": 58,
      "time": 26.318,
      "duration": 0.273,
      "velocity": 0.71,
      "hand": "left"
    },
    {
      "midi": 62,
      "time": 26.318,
      "duration": 0.273,
      "velocity": 0.71,
      "hand": "right"
    },
    {
      "midi": 44,
      "time": 26.591,
      "duration": 0.273,
      "velocity": 0.71,
      "hand": "left"
    },
    {
      "midi": 53,
      "time": 26.591,
      "duration": 0.273,
      "velocity": 0.71,
      "hand": "left"
    },
    {
      "midi": 60,
      "time": 26.591,
      "duration": 0.273,
      "velocity": 0.71,
      "hand": "right"
    },
    {
      "midi": 43,
      "time": 26.864,
      "duration": 0.273,
      "velocity": 0.71,
      "hand": "left"
    },
    {
      "midi": 55,
      "time": 26.864,
      "duration": 0.273,
      "velocity": 0.71,
      "hand": "left"
    },
    {
      "midi": 58,
      "time": 26.864,
      "duration": 0.273,
      "velocity": 0.71,
      "hand": "left"
    },
    {
      "midi": 41,
      "time": 27.136,
      "duration": 0.273,
      "velocity": 0.71,
      "hand": "left"
    },
    {
      "midi": 50,
      "time": 27.136,
      "duration": 0.273,
      "velocity": 0.71,
      "hand": "left"
    },
    {
      "midi": 56,
      "time": 27.136,
      "duration": 0.273,
      "velocity": 0.71,
      "hand": "left"
    },
    {
      "midi": 39,
      "time": 27.409,
      "duration": 0.545,
      "velocity": 0.71,
      "hand": "left"
    },
    {
      "midi": 51,
      "time": 27.409,
      "duration": 0.545,
      "velocity": 0.71,
      "hand": "left"
    },
    {
      "midi": 55,
      "time": 27.409,
      "duration": 0.273,
      "velocity": 0.71,
      "hand": "left"
    },
    {
      "midi": 58,
      "time": 27.682,
      "duration": 0.273,
      "velocity": 0.71,
      "hand": "left"
    },
    {
      "midi": 63,
      "time": 27.955,
      "duration": 0.273,
      "velocity": 0.71,
      "hand": "right"
    },
    {
      "midi": 67,
      "time": 28.227,
      "duration": 0.273,
      "velocity": 0.71,
      "hand": "right"
    },
    {
      "midi": 51,
      "time": 28.364,
      "duration": 0.136,
      "velocity": 0.71,
      "hand": "left"
    },
    {
      "midi": 48,
      "time": 28.5,
      "duration": 0.545,
      "velocity": 0.71,
      "hand": "left"
    },
    {
      "midi": 63,
      "time": 28.5,
      "duration": 0.545,
      "velocity": 0.71,
      "hand": "right"
    },
    {
      "midi": 68,
      "time": 28.5,
      "duration": 0.273,
      "velocity": 0.71,
      "hand": "right"
    },
    {
      "midi": 72,
      "time": 28.773,
      "duration": 0.273,
      "velocity": 0.71,
      "hand": "right"
    },
    {
      "midi": 50,
      "time": 29.045,
      "duration": 0.545,
      "velocity": 0.71,
      "hand": "left"
    },
    {
      "midi": 65,
      "time": 29.045,
      "duration": 0.545,
      "velocity": 0.71,
      "hand": "right"
    },
    {
      "midi": 70,
      "time": 29.045,
      "duration": 0.273,
      "velocity": 0.71,
      "hand": "right"
    },
    {
      "midi": 68,
      "time": 29.318,
      "duration": 0.273,
      "velocity": 0.71,
      "hand": "right"
    },
    {
      "midi": 51,
      "time": 29.591,
      "duration": 0.545,
      "velocity": 0.71,
      "hand": "left"
    },
    {
      "midi": 58,
      "time": 29.591,
      "duration": 0.545,
      "velocity": 0.71,
      "hand": "left"
    },
    {
      "midi": 67,
      "time": 29.591,
      "duration": 0.273,
      "velocity": 0.71,
      "hand": "right"
    },
    {
      "midi": 69,
      "time": 29.864,
      "duration": 0.273,
      "velocity": 0.71,
      "hand": "right"
    },
    {
      "midi": 70,
      "time": 30.136,
      "duration": 0.273,
      "velocity": 0.71,
      "hand": "right"
    },
    {
      "midi": 74,
      "time": 30.409,
      "duration": 0.273,
      "velocity": 0.71,
      "hand": "right"
    },
    {
      "midi": 58,
      "time": 30.545,
      "duration": 0.136,
      "velocity": 0.71,
      "hand": "left"
    },
    {
      "midi": 55,
      "time": 30.682,
      "duration": 0.545,
      "velocity": 0.71,
      "hand": "left"
    },
    {
      "midi": 75,
      "time": 30.682,
      "duration": 0.273,
      "velocity": 0.71,
      "hand": "right"
    },
    {
      "midi": 79,
      "time": 30.955,
      "duration": 0.273,
      "velocity": 0.71,
      "hand": "right"
    },
    {
      "midi": 57,
      "time": 31.227,
      "duration": 0.545,
      "velocity": 0.71,
      "hand": "left"
    },
    {
      "midi": 77,
      "time": 31.227,
      "duration": 0.273,
      "velocity": 0.71,
      "hand": "right"
    },
    {
      "midi": 75,
      "time": 31.5,
      "duration": 0.273,
      "velocity": 0.71,
      "hand": "right"
    },
    {
      "midi": 58,
      "time": 31.773,
      "duration": 0.273,
      "velocity": 0.71,
      "hand": "left"
    },
    {
      "midi": 74,
      "time": 31.773,
      "duration": 0.545,
      "velocity": 0.71,
      "hand": "right"
    },
    {
      "midi": 62,
      "time": 32.045,
      "duration": 0.273,
      "velocity": 0.71,
      "hand": "right"
    },
    {
      "midi": 65,
      "time": 32.318,
      "duration": 0.273,
      "velocity": 0.71,
      "hand": "right"
    },
    {
      "midi": 67,
      "time": 32.591,
      "duration": 0.273,
      "velocity": 0.71,
      "hand": "right"
    },
    {
      "midi": 82,
      "time": 32.727,
      "duration": 0.136,
      "velocity": 0.71,
      "hand": "right"
    },
    {
      "midi": 68,
      "time": 32.864,
      "duration": 0.273,
      "velocity": 0.71,
      "hand": "right"
    },
    {
      "midi": 84,
      "time": 32.864,
      "duration": 0.545,
      "velocity": 0.71,
      "hand": "right"
    },
    {
      "midi": 72,
      "time": 33.136,
      "duration": 0.273,
      "velocity": 0.71,
      "hand": "right"
    },
    {
      "midi": 70,
      "time": 33.409,
      "duration": 0.273,
      "velocity": 0.71,
      "hand": "right"
    },
    {
      "midi": 74,
      "time": 33.409,
      "duration": 0.545,
      "velocity": 0.71,
      "hand": "right"
    },
    {
      "midi": 68,
      "time": 33.682,
      "duration": 0.273,
      "velocity": 0.71,
      "hand": "right"
    },
    {
      "midi": 46,
      "time": 33.818,
      "duration": 0.136,
      "velocity": 0.71,
      "hand": "left"
    },
    {
      "midi": 51,
      "time": 33.955,
      "duration": 0.545,
      "velocity": 0.71,
      "hand": "left"
    },
    {
      "midi": 67,
      "time": 33.955,
      "duration": 0.545,
      "velocity": 0.71,
      "hand": "right"
    },
    {
      "midi": 75,
      "time": 33.955,
      "duration": 0.273,
      "velocity": 0.71,
      "hand": "right"
    },
    {
      "midi": 74,
      "time": 34.227,
      "duration": 0.273,
      "velocity": 0.71,
      "hand": "right"
    },
    {
      "midi": 51,
      "time": 34.5,
      "duration": 0.545,
      "velocity": 0.71,
      "hand": "left"
    },
    {
      "midi": 66,
      "time": 34.5,
      "duration": 0.545,
      "velocity": 0.71,
      "hand": "right"
    },
    {
      "midi": 72,
      "time": 34.5,
      "duration": 0.273,
      "velocity": 0.71,
      "hand": "right"
    },
    {
      "midi": 69,
      "time": 34.773,
      "duration": 0.273,
      "velocity": 0.71,
      "hand": "right"
    },
    {
      "midi": 50,
      "time": 35.045,
      "duration": 0.545,
      "velocity": 0.71,
      "hand": "left"
    },
    {
      "midi": 65,
      "time": 35.045,
      "duration": 0.545,
      "velocity": 0.71,
      "hand": "right"
    },
    {
      "midi": 70,
      "time": 35.045,
      "duration": 0.273,
      "velocity": 0.71,
      "hand": "right"
    },
    {
      "midi": 77,
      "time": 35.318,
      "duration": 0.273,
      "velocity": 0.71,
      "hand": "right"
    },
    {
      "midi": 70,
      "time": 35.591,
      "duration": 1.091,
      "velocity": 0.71,
      "hand": "right"
    },
    {
      "midi": 80,
      "time": 35.591,
      "duration": 0.273,
      "velocity": 0.71,
      "hand": "right"
    },
    {
      "midi": 79,
      "time": 35.864,
      "duration": 0.273,
      "velocity": 0.71,
      "hand": "right"
    },
    {
      "midi": 51,
      "time": 36,
      "duration": 0.136,
      "velocity": 0.71,
      "hand": "left"
    },
    {
      "midi": 56,
      "time": 36.136,
      "duration": 0.545,
      "velocity": 0.71,
      "hand": "left"
    },
    {
      "midi": 77,
      "time": 36.136,
      "duration": 0.273,
      "velocity": 0.71,
      "hand": "right"
    },
    {
      "midi": 75,
      "time": 36.409,
      "duration": 0.273,
      "velocity": 0.71,
      "hand": "right"
    },
    {
      "midi": 56,
      "time": 36.682,
      "duration": 0.545,
      "velocity": 0.71,
      "hand": "left"
    },
    {
      "midi": 71,
      "time": 36.682,
      "duration": 0.545,
      "velocity": 0.71,
      "hand": "right"
    },
    {
      "midi": 74,
      "time": 36.682,
      "duration": 0.273,
      "velocity": 0.71,
      "hand": "right"
    },
    {
      "midi": 77,
      "time": 36.955,
      "duration": 0.273,
      "velocity": 0.71,
      "hand": "right"
    },
    {
      "midi": 55,
      "time": 37.227,
      "duration": 0.545,
      "velocity": 0.71,
      "hand": "left"
    },
    {
      "midi": 70,
      "time": 37.227,
      "duration": 0.545,
      "velocity": 0.71,
      "hand": "right"
    },
    {
      "midi": 75,
      "time": 37.227,
      "duration": 0.273,
      "velocity": 0.71,
      "hand": "right"
    },
    {
      "midi": 82,
      "time": 37.5,
      "duration": 0.273,
      "velocity": 0.71,
      "hand": "right"
    },
    {
      "midi": 79,
      "time": 37.773,
      "duration": 0.818,
      "velocity": 0.71,
      "hand": "right"
    },
    {
      "midi": 87,
      "time": 37.773,
      "duration": 0.273,
      "velocity": 0.71,
      "hand": "right"
    },
    {
      "midi": 82,
      "time": 38.045,
      "duration": 0.273,
      "velocity": 0.71,
      "hand": "right"
    },
    {
      "midi": 58,
      "time": 38.182,
      "duration": 0.136,
      "velocity": 0.71,
      "hand": "left"
    },
    {
      "midi": 63,
      "time": 38.318,
      "duration": 0.273,
      "velocity": 0.71,
      "hand": "right"
    },
    {
      "midi": 84,
      "time": 38.318,
      "duration": 0.273,
      "velocity": 0.71,
      "hand": "right"
    },
    {
      "midi": 62,
      "time": 38.591,
      "duration": 0.273,
      "velocity": 0.71,
      "hand": "right"
    },
    {
      "midi": 77,
      "time": 38.591,
      "duration": 0.273,
      "velocity": 0.71,
      "hand": "right"
    },
    {
      "midi": 82,
      "time": 38.591,
      "duration": 0.273,
      "velocity": 0.71,
      "hand": "right"
    },
    {
      "midi": 60,
      "time": 38.864,
      "duration": 0.273,
      "velocity": 0.71,
      "hand": "right"
    },
    {
      "midi": 75,
      "time": 38.864,
      "duration": 0.273,
      "velocity": 0.71,
      "hand": "right"
    },
    {
      "midi": 80,
      "time": 38.864,
      "duration": 0.273,
      "velocity": 0.71,
      "hand": "right"
    },
    {
      "midi": 58,
      "time": 39.136,
      "duration": 0.273,
      "velocity": 0.71,
      "hand": "left"
    },
    {
      "midi": 74,
      "time": 39.136,
      "duration": 0.273,
      "velocity": 0.71,
      "hand": "right"
    },
    {
      "midi": 79,
      "time": 39.136,
      "duration": 0.273,
      "velocity": 0.71,
      "hand": "right"
    },
    {
      "midi": 56,
      "time": 39.409,
      "duration": 0.273,
      "velocity": 0.71,
      "hand": "left"
    },
    {
      "midi": 72,
      "time": 39.409,
      "duration": 0.273,
      "velocity": 0.71,
      "hand": "right"
    },
    {
      "midi": 77,
      "time": 39.409,
      "duration": 0.273,
      "velocity": 0.71,
      "hand": "right"
    },
    {
      "midi": 55,
      "time": 39.682,
      "duration": 0.273,
      "velocity": 0.71,
      "hand": "left"
    },
    {
      "midi": 70,
      "time": 39.682,
      "duration": 0.273,
      "velocity": 0.71,
      "hand": "right"
    },
    {
      "midi": 75,
      "time": 39.682,
      "duration": 0.273,
      "velocity": 0.71,
      "hand": "right"
    },
    {
      "midi": 53,
      "time": 39.955,
      "duration": 0.273,
      "velocity": 0.71,
      "hand": "left"
    },
    {
      "midi": 68,
      "time": 39.955,
      "duration": 0.273,
      "velocity": 0.71,
      "hand": "right"
    },
    {
      "midi": 74,
      "time": 39.955,
      "duration": 0.273,
      "velocity": 0.71,
      "hand": "right"
    },
    {
      "midi": 51,
      "time": 40.227,
      "duration": 0.273,
      "velocity": 0.71,
      "hand": "left"
    },
    {
      "midi": 67,
      "time": 40.227,
      "duration": 0.273,
      "velocity": 0.71,
      "hand": "right"
    },
    {
      "midi": 72,
      "time": 40.227,
      "duration": 0.273,
      "velocity": 0.71,
      "hand": "right"
    },
    {
      "midi": 50,
      "time": 40.5,
      "duration": 0.273,
      "velocity": 0.71,
      "hand": "left"
    },
    {
      "midi": 65,
      "time": 40.5,
      "duration": 0.273,
      "velocity": 0.71,
      "hand": "right"
    },
    {
      "midi": 70,
      "time": 40.5,
      "duration": 0.273,
      "velocity": 0.71,
      "hand": "right"
    },
    {
      "midi": 48,
      "time": 40.773,
      "duration": 0.273,
      "velocity": 0.71,
      "hand": "left"
    },
    {
      "midi": 63,
      "time": 40.773,
      "duration": 0.273,
      "velocity": 0.71,
      "hand": "right"
    },
    {
      "midi": 68,
      "time": 40.773,
      "duration": 0.273,
      "velocity": 0.71,
      "hand": "right"
    },
    {
      "midi": 46,
      "time": 41.045,
      "duration": 0.273,
      "velocity": 0.71,
      "hand": "left"
    },
    {
      "midi": 62,
      "time": 41.045,
      "duration": 0.273,
      "velocity": 0.71,
      "hand": "right"
    },
    {
      "midi": 67,
      "time": 41.045,
      "duration": 0.273,
      "velocity": 0.71,
      "hand": "right"
    },
    {
      "midi": 44,
      "time": 41.318,
      "duration": 0.273,
      "velocity": 0.71,
      "hand": "left"
    },
    {
      "midi": 60,
      "time": 41.318,
      "duration": 0.273,
      "velocity": 0.71,
      "hand": "right"
    },
    {
      "midi": 65,
      "time": 41.318,
      "duration": 0.273,
      "velocity": 0.71,
      "hand": "right"
    },
    {
      "midi": 43,
      "time": 41.591,
      "duration": 0.273,
      "velocity": 0.71,
      "hand": "left"
    },
    {
      "midi": 58,
      "time": 41.591,
      "duration": 0.545,
      "velocity": 0.71,
      "hand": "left"
    },
    {
      "midi": 63,
      "time": 41.591,
      "duration": 0.545,
      "velocity": 0.71,
      "hand": "right"
    },
    {
      "midi": 46,
      "time": 41.864,
      "duration": 0.273,
      "velocity": 0.71,
      "hand": "left"
    },
    {
      "midi": 51,
      "time": 42.136,
      "duration": 0.273,
      "velocity": 0.71,
      "hand": "left"
    },
    {
      "midi": 55,
      "time": 42.409,
      "duration": 0.273,
      "velocity": 0.71,
      "hand": "left"
    },
    {
      "midi": 63,
      "time": 42.545,
      "duration": 0.136,
      "velocity": 0.71,
      "hand": "right"
    },
    {
      "midi": 70,
      "time": 42.545,
      "duration": 0.136,
      "velocity": 0.71,
      "hand": "right"
    },
    {
      "midi": 56,
      "time": 42.682,
      "duration": 0.273,
      "velocity": 0.71,
      "hand": "left"
    },
    {
      "midi": 63,
      "time": 42.682,
      "duration": 0.545,
      "velocity": 0.71,
      "hand": "right"
    },
    {
      "midi": 72,
      "time": 42.682,
      "duration": 0.545,
      "velocity": 0.71,
      "hand": "right"
    },
    {
      "midi": 60,
      "time": 42.955,
      "duration": 0.273,
      "velocity": 0.71,
      "hand": "right"
    },
    {
      "midi": 58,
      "time": 43.227,
      "duration": 0.273,
      "velocity": 0.71,
      "hand": "left"
    },
    {
      "midi": 62,
      "time": 43.227,
      "duration": 0.545,
      "velocity": 0.71,
      "hand": "right"
    },
    {
      "midi": 65,
      "time": 43.227,
      "duration": 0.545,
      "velocity": 0.71,
      "hand": "right"
    },
    {
      "midi": 56,
      "time": 43.5,
      "duration": 0.273,
      "velocity": 0.71,
      "hand": "left"
    },
    {
      "midi": 55,
      "time": 43.773,
      "duration": 0.273,
      "velocity": 0.71,
      "hand": "left"
    },
    {
      "midi": 63,
      "time": 43.773,
      "duration": 0.545,
      "velocity": 0.71,
      "hand": "right"
    },
    {
      "midi": 67,
      "time": 43.773,
      "duration": 0.545,
      "velocity": 0.71,
      "hand": "right"
    },
    {
      "midi": 51,
      "time": 44.045,
      "duration": 0.273,
      "velocity": 0.71,
      "hand": "left"
    },
    {
      "midi": 55,
      "time": 44.318,
      "duration": 0.273,
      "velocity": 0.71,
      "hand": "left"
    },
    {
      "midi": 57,
      "time": 44.591,
      "duration": 0.273,
      "velocity": 0.71,
      "hand": "left"
    },
    {
      "midi": 66,
      "time": 44.727,
      "duration": 0.136,
      "velocity": 0.71,
      "hand": "right"
    },
    {
      "midi": 72,
      "time": 44.727,
      "duration": 0.136,
      "velocity": 0.71,
      "hand": "right"
    },
    {
      "midi": 58,
      "time": 44.864,
      "duration": 0.273,
      "velocity": 0.71,
      "hand": "left"
    },
    {
      "midi": 65,
      "time": 44.864,
      "duration": 0.545,
      "velocity": 0.71,
      "hand": "right"
    },
    {
      "midi": 73,
      "time": 44.864,
      "duration": 0.545,
      "velocity": 0.71,
      "hand": "right"
    },
    {
      "midi": 61,
      "time": 45.136,
      "duration": 0.273,
      "velocity": 0.71,
      "hand": "right"
    },
    {
      "midi": 60,
      "time": 45.409,
      "duration": 0.273,
      "velocity": 0.71,
      "hand": "right"
    },
    {
      "midi": 64,
      "time": 45.409,
      "duration": 0.545,
      "velocity": 0.71,
      "hand": "right"
    },
    {
      "midi": 67,
      "time": 45.409,
      "duration": 0.545,
      "velocity": 0.71,
      "hand": "right"
    },
    {
      "midi": 58,
      "time": 45.682,
      "duration": 0.273,
      "velocity": 0.71,
      "hand": "left"
    },
    {
      "midi": 56,
      "time": 45.955,
      "duration": 0.273,
      "velocity": 0.71,
      "hand": "left"
    },
    {
      "midi": 65,
      "time": 45.955,
      "duration": 0.545,
      "velocity": 0.71,
      "hand": "right"
    },
    {
      "midi": 68,
      "time": 45.955,
      "duration": 0.545,
      "velocity": 0.71,
      "hand": "right"
    },
    {
      "midi": 53,
      "time": 46.227,
      "duration": 0.273,
      "velocity": 0.71,
      "hand": "left"
    },
    {
      "midi": 56,
      "time": 46.5,
      "duration": 0.273,
      "velocity": 0.71,
      "hand": "left"
    },
    {
      "midi": 59,
      "time": 46.773,
      "duration": 0.273,
      "velocity": 0.71,
      "hand": "left"
    },
    {
      "midi": 68,
      "time": 46.909,
      "duration": 0.136,
      "velocity": 0.71,
      "hand": "right"
    },
    {
      "midi": 74,
      "time": 46.909,
      "duration": 0.136,
      "velocity": 0.71,
      "hand": "right"
    },
    {
      "midi": 60,
      "time": 47.045,
      "duration": 0.273,
      "velocity": 0.71,
      "hand": "right"
    },
    {
      "midi": 67,
      "time": 47.045,
      "duration": 0.545,
      "velocity": 0.71,
      "hand": "right"
    },
    {
      "midi": 75,
      "time": 47.045,
      "duration": 0.545,
      "velocity": 0.71,
      "hand": "right"
    },
    {
      "midi": 63,
      "time": 47.318,
      "duration": 0.273,
      "velocity": 0.71,
      "hand": "right"
    },
    {
      "midi": 62,
      "time": 47.591,
      "duration": 0.273,
      "velocity": 0.71,
      "hand": "right"
    },
    {
      "midi": 66,
      "time": 47.591,
      "duration": 0.545,
      "velocity": 0.71,
      "hand": "right"
    },
    {
      "midi": 69,
      "time": 47.591,
      "duration": 0.545,
      "velocity": 0.71,
      "hand": "right"
    },
    {
      "midi": 60,
      "time": 47.864,
      "duration": 0.273,
      "velocity": 0.71,
      "hand": "right"
    },
    {
      "midi": 59,
      "time": 48.136,
      "duration": 0.545,
      "velocity": 0.71,
      "hand": "left"
    },
    {
      "midi": 67,
      "time": 48.136,
      "duration": 0.273,
      "velocity": 0.71,
      "hand": "right"
    },
    {
      "midi": 71,
      "time": 48.136,
      "duration": 0.273,
      "velocity": 0.71,
      "hand": "right"
    },
    {
      "midi": 67,
      "time": 48.409,
      "duration": 0.273,
      "velocity": 0.71,
      "hand": "right"
    },
    {
      "midi": 71,
      "time": 48.682,
      "duration": 0.273,
      "velocity": 0.71,
      "hand": "right"
    },
    {
      "midi": 74,
      "time": 48.955,
      "duration": 0.273,
      "velocity": 0.71,
      "hand": "right"
    },
    {
      "midi": 55,
      "time": 49.091,
      "duration": 0.136,
      "velocity": 0.71,
      "hand": "left"
    },
    {
      "midi": 56,
      "time": 49.227,
      "duration": 0.545,
      "velocity": 0.71,
      "hand": "left"
    },
    {
      "midi": 77,
      "time": 49.227,
      "duration": 0.273,
      "velocity": 0.71,
      "hand": "right"
    },
    {
      "midi": 80,
      "time": 49.5,
      "duration": 0.273,
      "velocity": 0.71,
      "hand": "right"
    },
    {
      "midi": 47,
      "time": 49.773,
      "duration": 0.545,
      "velocity": 0.71,
      "hand": "left"
    },
    {
      "midi": 79,
      "time": 49.773,
      "duration": 0.273,
      "velocity": 0.71,
      "hand": "right"
    },
    {
      "midi": 77,
      "time": 50.045,
      "duration": 0.273,
      "velocity": 0.71,
      "hand": "right"
    },
    {
      "midi": 55,
      "time": 50.182,
      "duration": 0.136,
      "velocity": 0.71,
      "hand": "left"
    },
    {
      "midi": 48,
      "time": 50.318,
      "duration": 0.273,
      "velocity": 0.71,
      "hand": "left"
    },
    {
      "midi": 60,
      "time": 50.318,
      "duration": 0.545,
      "velocity": 0.71,
      "hand": "right"
    },
    {
      "midi": 77,
      "time": 50.318,
      "duration": 0.545,
      "velocity": 0.71,
      "hand": "right"
    },
    {
      "midi": 50,
      "time": 50.591,
      "duration": 0.273,
      "velocity": 0.71,
      "hand": "left"
    },
    {
      "midi": 51,
      "time": 50.864,
      "duration": 0.273,
      "velocity": 0.71,
      "hand": "left"
    },
    {
      "midi": 60,
      "time": 50.864,
      "duration": 0.545,
      "velocity": 0.71,
      "hand": "right"
    },
    {
      "midi": 75,
      "time": 50.864,
      "duration": 0.545,
      "velocity": 0.71,
      "hand": "right"
    },
    {
      "midi": 53,
      "time": 51.136,
      "duration": 0.273,
      "velocity": 0.71,
      "hand": "left"
    },
    {
      "midi": 55,
      "time": 51.409,
      "duration": 0.273,
      "velocity": 0.71,
      "hand": "left"
    },
    {
      "midi": 59,
      "time": 51.409,
      "duration": 0.545,
      "velocity": 0.71,
      "hand": "left"
    },
    {
      "midi": 74,
      "time": 51.409,
      "duration": 0.273,
      "velocity": 0.71,
      "hand": "right"
    },
    {
      "midi": 56,
      "time": 51.682,
      "duration": 0.273,
      "velocity": 0.71,
      "hand": "left"
    },
    {
      "midi": 65,
      "time": 51.682,
      "duration": 0.273,
      "velocity": 0.71,
      "hand": "right"
    },
    {
      "midi": 53,
      "time": 51.955,
      "duration": 0.273,
      "velocity": 0.71,
      "hand": "left"
    },
    {
      "midi": 68,
      "time": 51.955,
      "duration": 1.091,
      "velocity": 0.71,
      "hand": "right"
    },
    {
      "midi": 50,
      "time": 52.227,
      "duration": 0.273,
      "velocity": 0.71,
      "hand": "left"
    },
    {
      "midi": 60,
      "time": 52.364,
      "duration": 0.136,
      "velocity": 0.71,
      "hand": "right"
    },
    {
      "midi": 47,
      "time": 52.5,
      "duration": 0.273,
      "velocity": 0.71,
      "hand": "left"
    },
    {
      "midi": 65,
      "time": 52.5,
      "duration": 0.545,
      "velocity": 0.71,
      "hand": "right"
    },
    {
      "midi": 43,
      "time": 52.773,
      "duration": 0.273,
      "velocity": 0.71,
      "hand": "left"
    },
    {
      "midi": 45,
      "time": 53.045,
      "duration": 0.273,
      "velocity": 0.71,
      "hand": "left"
    },
    {
      "midi": 65,
      "time": 53.045,
      "duration": 0.545,
      "velocity": 0.71,
      "hand": "right"
    },
    {
      "midi": 67,
      "time": 53.045,
      "duration": 0.818,
      "velocity": 0.71,
      "hand": "right"
    },
    {
      "midi": 47,
      "time": 53.318,
      "duration": 0.273,
      "velocity": 0.71,
      "hand": "left"
    },
    {
      "midi": 48,
      "time": 53.591,
      "duration": 0.273,
      "velocity": 0.71,
      "hand": "left"
    },
    {
      "midi": 63,
      "time": 53.591,
      "duration": 0.545,
      "velocity": 0.71,
      "hand": "right"
    },
    {
      "midi": 60,
      "time": 53.864,
      "duration": 0.273,
      "velocity": 0.71,
      "hand": "right"
    },
    {
      "midi": 79,
      "time": 53.864,
      "duration": 0.273,
      "velocity": 0.71,
      "hand": "right"
    },
    {
      "midi": 62,
      "time": 54.136,
      "duration": 0.273,
      "velocity": 0.71,
      "hand": "right"
    },
    {
      "midi": 84,
      "time": 54.136,
      "duration": 0.273,
      "velocity": 0.71,
      "hand": "right"
    },
    {
      "midi": 64,
      "time": 54.409,
      "duration": 0.273,
      "velocity": 0.71,
      "hand": "right"
    },
    {
      "midi": 82,
      "time": 54.409,
      "duration": 0.273,
      "velocity": 0.71,
      "hand": "right"
    },
    {
      "midi": 67,
      "time": 54.545,
      "duration": 0.136,
      "velocity": 0.71,
      "hand": "right"
    },
    {
      "midi": 65,
      "time": 54.682,
      "duration": 0.545,
      "velocity": 0.71,
      "hand": "right"
    },
    {
      "midi": 72,
      "time": 54.682,
      "duration": 0.273,
      "velocity": 0.71,
      "hand": "right"
    },
    {
      "midi": 80,
      "time": 54.682,
      "duration": 0.273,
      "velocity": 0.71,
      "hand": "right"
    },
    {
      "midi": 70,
      "time": 54.955,
      "duration": 0.273,
      "velocity": 0.71,
      "hand": "right"
    },
    {
      "midi": 79,
      "time": 54.955,
      "duration": 0.273,
      "velocity": 0.71,
      "hand": "right"
    },
    {
      "midi": 53,
      "time": 55.227,
      "duration": 0.273,
      "velocity": 0.71,
      "hand": "left"
    },
    {
      "midi": 68,
      "time": 55.227,
      "duration": 0.273,
      "velocity": 0.71,
      "hand": "right"
    },
    {
      "midi": 77,
      "time": 55.227,
      "duration": 0.273,
      "velocity": 0.71,
      "hand": "right"
    },
    {
      "midi": 55,
      "time": 55.5,
      "duration": 0.273,
      "velocity": 0.71,
      "hand": "left"
    },
    {
      "midi": 67,
      "time": 55.5,
      "duration": 0.273,
      "velocity": 0.71,
      "hand": "right"
    },
    {
      "midi": 75,
      "time": 55.5,
      "duration": 0.273,
      "velocity": 0.71,
      "hand": "right"
    },
    {
      "midi": 56,
      "time": 55.773,
      "duration": 0.545,
      "velocity": 0.71,
      "hand": "left"
    },
    {
      "midi": 65,
      "time": 55.773,
      "duration": 0.273,
      "velocity": 0.71,
      "hand": "right"
    },
    {
      "midi": 74,
      "time": 55.773,
      "duration": 0.273,
      "velocity": 0.71,
      "hand": "right"
    },
    {
      "midi": 63,
      "time": 56.045,
      "duration": 0.273,
      "velocity": 0.71,
      "hand": "right"
    },
    {
      "midi": 72,
      "time": 56.045,
      "duration": 0.273,
      "velocity": 0.71,
      "hand": "right"
    },
    {
      "midi": 50,
      "time": 56.318,
      "duration": 0.273,
      "velocity": 0.71,
      "hand": "left"
    },
    {
      "midi": 62,
      "time": 56.318,
      "duration": 0.273,
      "velocity": 0.71,
      "hand": "right"
    },
    {
      "midi": 71,
      "time": 56.318,
      "duration": 0.273,
      "velocity": 0.71,
      "hand": "right"
    },
    {
      "midi": 51,
      "time": 56.591,
      "duration": 0.273,
      "velocity": 0.71,
      "hand": "left"
    },
    {
      "midi": 60,
      "time": 56.591,
      "duration": 0.273,
      "velocity": 0.71,
      "hand": "right"
    },
    {
      "midi": 68,
      "time": 56.591,
      "duration": 0.273,
      "velocity": 0.71,
      "hand": "right"
    },
    {
      "midi": 53,
      "time": 56.864,
      "duration": 0.545,
      "velocity": 0.71,
      "hand": "left"
    },
    {
      "midi": 59,
      "time": 56.864,
      "duration": 0.273,
      "velocity": 0.71,
      "hand": "left"
    },
    {
      "midi": 67,
      "time": 56.864,
      "duration": 0.273,
      "velocity": 0.71,
      "hand": "right"
    },
    {
      "midi": 56,
      "time": 57.136,
      "duration": 0.273,
      "velocity": 0.71,
      "hand": "left"
    },
    {
      "midi": 65,
      "time": 57.136,
      "duration": 0.273,
      "velocity": 0.71,
      "hand": "right"
    },
    {
      "midi": 45,
      "time": 57.409,
      "duration": 0.273,
      "velocity": 0.71,
      "hand": "left"
    },
    {
      "midi": 55,
      "time": 57.409,
      "duration": 0.273,
      "velocity": 0.71,
      "hand": "left"
    },
    {
      "midi": 63,
      "time": 57.409,
      "duration": 0.273,
      "velocity": 0.71,
      "hand": "right"
    },
    {
      "midi": 47,
      "time": 57.682,
      "duration": 0.273,
      "velocity": 0.71,
      "hand": "left"
    },
    {
      "midi": 53,
      "time": 57.682,
      "duration": 0.273,
      "velocity": 0.71,
      "hand": "left"
    },
    {
      "midi": 62,
      "time": 57.682,
      "duration": 0.273,
      "velocity": 0.71,
      "hand": "right"
    },
    {
      "midi": 48,
      "time": 57.955,
      "duration": 0.273,
      "velocity": 0.71,
      "hand": "left"
    },
    {
      "midi": 51,
      "time": 57.955,
      "duration": 0.273,
      "velocity": 0.71,
      "hand": "left"
    },
    {
      "midi": 60,
      "time": 57.955,
      "duration": 1.091,
      "velocity": 0.71,
      "hand": "right"
    },
    {
      "midi": 46,
      "time": 58.227,
      "duration": 0.273,
      "velocity": 0.71,
      "hand": "left"
    },
    {
      "midi": 52,
      "time": 58.227,
      "duration": 0.273,
      "velocity": 0.71,
      "hand": "left"
    },
    {
      "midi": 45,
      "time": 58.5,
      "duration": 0.273,
      "velocity": 0.71,
      "hand": "left"
    },
    {
      "midi": 53,
      "time": 58.5,
      "duration": 0.273,
      "velocity": 0.71,
      "hand": "left"
    },
    {
      "midi": 44,
      "time": 58.773,
      "duration": 0.273,
      "velocity": 0.71,
      "hand": "left"
    },
    {
      "midi": 54,
      "time": 58.773,
      "duration": 0.273,
      "velocity": 0.71,
      "hand": "left"
    },
    {
      "midi": 43,
      "time": 59.045,
      "duration": 0.273,
      "velocity": 0.71,
      "hand": "left"
    },
    {
      "midi": 55,
      "time": 59.045,
      "duration": 1.091,
      "velocity": 0.71,
      "hand": "left"
    },
    {
      "midi": 59,
      "time": 59.045,
      "duration": 0.545,
      "velocity": 0.71,
      "hand": "left"
    },
    {
      "midi": 50,
      "time": 59.318,
      "duration": 0.273,
      "velocity": 0.71,
      "hand": "left"
    },
    {
      "midi": 53,
      "time": 59.591,
      "duration": 0.273,
      "velocity": 0.71,
      "hand": "left"
    },
    {
      "midi": 51,
      "time": 59.864,
      "duration": 0.273,
      "velocity": 0.71,
      "hand": "left"
    },
    {
      "midi": 60,
      "time": 60,
      "duration": 0.136,
      "velocity": 0.71,
      "hand": "right"
    },
    {
      "midi": 50,
      "time": 60.136,
      "duration": 0.273,
      "velocity": 0.71,
      "hand": "left"
    },
    {
      "midi": 59,
      "time": 60.136,
      "duration": 0.273,
      "velocity": 0.71,
      "hand": "left"
    },
    {
      "midi": 67,
      "time": 60.136,
      "duration": 0.545,
      "velocity": 0.71,
      "hand": "right"
    },
    {
      "midi": 47,
      "time": 60.409,
      "duration": 0.273,
      "velocity": 0.71,
      "hand": "left"
    },
    {
      "midi": 62,
      "time": 60.409,
      "duration": 0.273,
      "velocity": 0.71,
      "hand": "right"
    },
    {
      "midi": 48,
      "time": 60.682,
      "duration": 0.273,
      "velocity": 0.71,
      "hand": "left"
    },
    {
      "midi": 63,
      "time": 60.682,
      "duration": 0.273,
      "velocity": 0.71,
      "hand": "right"
    },
    {
      "midi": 67,
      "time": 60.682,
      "duration": 0.545,
      "velocity": 0.71,
      "hand": "right"
    },
    {
      "midi": 45,
      "time": 60.955,
      "duration": 0.273,
      "velocity": 0.71,
      "hand": "left"
    },
    {
      "midi": 60,
      "time": 60.955,
      "duration": 0.273,
      "velocity": 0.71,
      "hand": "right"
    },
    {
      "midi": 50,
      "time": 61.227,
      "duration": 0.273,
      "velocity": 0.71,
      "hand": "left"
    },
    {
      "midi": 62,
      "time": 61.227,
      "duration": 1.091,
      "velocity": 0.71,
      "hand": "right"
    },
    {
      "midi": 66,
      "time": 61.227,
      "duration": 0.545,
      "velocity": 0.71,
      "hand": "right"
    },
    {
      "midi": 57,
      "time": 61.5,
      "duration": 0.273,
      "velocity": 0.71,
      "hand": "left"
    },
    {
      "midi": 60,
      "time": 61.773,
      "duration": 0.273,
      "velocity": 0.71,
      "hand": "right"
    },
    {
      "midi": 58,
      "time": 62.045,
      "duration": 0.273,
      "velocity": 0.71,
      "hand": "left"
    },
    {
      "midi": 67,
      "time": 62.182,
      "duration": 0.136,
      "velocity": 0.71,
      "hand": "right"
    },
    {
      "midi": 57,
      "time": 62.318,
      "duration": 0.273,
      "velocity": 0.71,
      "hand": "left"
    },
    {
      "midi": 66,
      "time": 62.318,
      "duration": 0.273,
      "velocity": 0.71,
      "hand": "right"
    },
    {
      "midi": 72,
      "time": 62.318,
      "duration": 0.545,
      "velocity": 0.71,
      "hand": "right"
    },
    {
      "midi": 55,
      "time": 62.591,
      "duration": 0.273,
      "velocity": 0.71,
      "hand": "left"
    },
    {
      "midi": 67,
      "time": 62.591,
      "duration": 0.273,
      "velocity": 0.71,
      "hand": "right"
    },
    {
      "midi": 54,
      "time": 62.864,
      "duration": 0.273,
      "velocity": 0.71,
      "hand": "left"
    },
    {
      "midi": 69,
      "time": 62.864,
      "duration": 0.273,
      "velocity": 0.71,
      "hand": "right"
    },
    {
      "midi": 72,
      "time": 62.864,
      "duration": 0.545,
      "velocity": 0.71,
      "hand": "right"
    },
    {
      "midi": 50,
      "time": 63.136,
      "duration": 0.273,
      "velocity": 0.71,
      "hand": "left"
    },
    {
      "midi": 66,
      "time": 63.136,
      "duration": 0.273,
      "velocity": 0.71,
      "hand": "right"
    },
    {
      "midi": 55,
      "time": 63.409,
      "duration": 0.273,
      "velocity": 0.71,
      "hand": "left"
    },
    {
      "midi": 67,
      "time": 63.409,
      "duration": 1.091,
      "velocity": 0.71,
      "hand": "right"
    },
    {
      "midi": 70,
      "time": 63.409,
      "duration": 0.545,
      "velocity": 0.71,
      "hand": "right"
    },
    {
      "midi": 62,
      "time": 63.682,
      "duration": 0.273,
      "velocity": 0.71,
      "hand": "right"
    },
    {
      "midi": 67,
      "time": 63.955,
      "duration": 0.273,
      "velocity": 0.71,
      "hand": "right"
    },
    {
      "midi": 65,
      "time": 64.227,
      "duration": 0.273,
      "velocity": 0.71,
      "hand": "right"
    },
    {
      "midi": 74,
      "time": 64.364,
      "duration": 0.136,
      "velocity": 0.71,
      "hand": "right"
    },
    {
      "midi": 63,
      "time": 64.5,
      "duration": 0.273,
      "velocity": 0.71,
      "hand": "right"
    },
    {
      "midi": 79,
      "time": 64.5,
      "duration": 0.273,
      "velocity": 0.71,
      "hand": "right"
    },
    {
      "midi": 62,
      "time": 64.773,
      "duration": 0.273,
      "velocity": 0.71,
      "hand": "right"
    },
    {
      "midi": 77,
      "time": 64.773,
      "duration": 0.273,
      "velocity": 0.71,
      "hand": "right"
    },
    {
      "midi": 60,
      "time": 65.045,
      "duration": 0.273,
      "velocity": 0.71,
      "hand": "right"
    },
    {
      "midi": 75,
      "time": 65.045,
      "duration": 0.273,
      "velocity": 0.71,
      "hand": "right"
    },
    {
      "midi": 58,
      "time": 65.318,
      "duration": 0.273,
      "velocity": 0.71,
      "hand": "left"
    },
    {
      "midi": 74,
      "time": 65.318,
      "duration": 0.273,
      "velocity": 0.71,
      "hand": "right"
    },
    {
      "midi": 57,
      "time": 65.591,
      "duration": 0.273,
      "velocity": 0.71,
      "hand": "left"
    },
    {
      "midi": 66,
      "time": 65.591,
      "duration": 0.273,
      "velocity": 0.71,
      "hand": "right"
    },
    {
      "midi": 72,
      "time": 65.591,
      "duration": 0.273,
      "velocity": 0.71,
      "hand": "right"
    },
    {
      "midi": 55,
      "time": 65.864,
      "duration": 0.273,
      "velocity": 0.71,
      "hand": "left"
    },
    {
      "midi": 67,
      "time": 65.864,
      "duration": 0.273,
      "velocity": 0.71,
      "hand": "right"
    },
    {
      "midi": 70,
      "time": 65.864,
      "duration": 0.273,
      "velocity": 0.71,
      "hand": "right"
    },
    {
      "midi": 48,
      "time": 66.136,
      "duration": 0.273,
      "velocity": 0.71,
      "hand": "left"
    },
    {
      "midi": 63,
      "time": 66.136,
      "duration": 0.273,
      "velocity": 0.71,
      "hand": "right"
    },
    {
      "midi": 69,
      "time": 66.136,
      "duration": 0.273,
      "velocity": 0.71,
      "hand": "right"
    },
    {
      "midi": 51,
      "time": 66.409,
      "duration": 0.273,
      "velocity": 0.71,
      "hand": "left"
    },
    {
      "midi": 60,
      "time": 66.409,
      "duration": 0.273,
      "velocity": 0.71,
      "hand": "right"
    },
    {
      "midi": 67,
      "time": 66.409,
      "duration": 0.273,
      "velocity": 0.71,
      "hand": "right"
    },
    {
      "midi": 50,
      "time": 66.682,
      "duration": 0.273,
      "velocity": 0.71,
      "hand": "left"
    },
    {
      "midi": 57,
      "time": 66.682,
      "duration": 0.545,
      "velocity": 0.71,
      "hand": "left"
    },
    {
      "midi": 66,
      "time": 66.682,
      "duration": 0.273,
      "velocity": 0.71,
      "hand": "right"
    },
    {
      "midi": 48,
      "time": 66.955,
      "duration": 0.273,
      "velocity": 0.71,
      "hand": "left"
    },
    {
      "midi": 63,
      "time": 66.955,
      "duration": 0.273,
      "velocity": 0.71,
      "hand": "right"
    },
    {
      "midi": 46,
      "time": 67.227,
      "duration": 0.273,
      "velocity": 0.71,
      "hand": "left"
    },
    {
      "midi": 54,
      "time": 67.227,
      "duration": 0.545,
      "velocity": 0.71,
      "hand": "left"
    },
    {
      "midi": 62,
      "time": 67.227,
      "duration": 0.273,
      "velocity": 0.71,
      "hand": "right"
    },
    {
      "midi": 45,
      "time": 67.5,
      "duration": 0.273,
      "velocity": 0.71,
      "hand": "left"
    },
    {
      "midi": 60,
      "time": 67.5,
      "duration": 0.273,
      "velocity": 0.71,
      "hand": "right"
    },
    {
      "midi": 43,
      "time": 67.773,
      "duration": 0.545,
      "velocity": 0.71,
      "hand": "left"
    },
    {
      "midi": 55,
      "time": 67.773,
      "duration": 0.545,
      "velocity": 0.71,
      "hand": "left"
    },
    {
      "midi": 58,
      "time": 67.773,
      "duration": 0.273,
      "velocity": 0.71,
      "hand": "left"
    },
    {
      "midi": 62,
      "time": 68.045,
      "duration": 0.273,
      "velocity": 0.71,
      "hand": "right"
    },
    {
      "midi": 67,
      "time": 68.318,
      "duration": 0.273,
      "velocity": 0.71,
      "hand": "right"
    },
    {
      "midi": 70,
      "time": 68.591,
      "duration": 0.273,
      "velocity": 0.71,
      "hand": "right"
    },
    {
      "midi": 55,
      "time": 68.727,
      "duration": 0.136,
      "velocity": 0.71,
      "hand": "left"
    },
    {
      "midi": 62,
      "time": 68.727,
      "duration": 0.136,
      "velocity": 0.71,
      "hand": "right"
    },
    {
      "midi": 48,
      "time": 68.864,
      "duration": 0.545,
      "velocity": 0.71,
      "hand": "left"
    },
    {
      "midi": 63,
      "time": 68.864,
      "duration": 0.545,
      "velocity": 0.71,
      "hand": "right"
    },
    {
      "midi": 68,
      "time": 68.864,
      "duration": 0.273,
      "velocity": 0.71,
      "hand": "right"
    },
    {
      "midi": 72,
      "time": 69.136,
      "duration": 0.273,
      "velocity": 0.71,
      "hand": "right"
    },
    {
      "midi": 50,
      "time": 69.409,
      "duration": 0.273,
      "velocity": 0.71,
      "hand": "left"
    },
    {
      "midi": 65,
      "time": 69.409,
      "duration": 0.545,
      "velocity": 0.71,
      "hand": "right"
    },
    {
      "midi": 70,
      "time": 69.409,
      "duration": 0.273,
      "velocity": 0.71,
      "hand": "right"
    },
    {
      "midi": 68,
      "time": 69.682,
      "duration": 0.273,
      "velocity": 0.71,
      "hand": "right"
    },
    {
      "midi": 46,
      "time": 69.818,
      "duration": 0.136,
      "velocity": 0.71,
      "hand": "left"
    },
    {
      "midi": 51,
      "time": 69.955,
      "duration": 0.545,
      "velocity": 0.71,
      "hand": "left"
    },
    {
      "midi": 63,
      "time": 69.955,
      "duration": 0.273,
      "velocity": 0.71,
      "hand": "right"
    },
    {
      "midi": 67,
      "time": 69.955,
      "duration": 0.273,
      "velocity": 0.71,
      "hand": "right"
    },
    {
      "midi": 62,
      "time": 70.227,
      "duration": 0.273,
      "velocity": 0.71,
      "hand": "right"
    },
    {
      "midi": 65,
      "time": 70.227,
      "duration": 0.273,
      "velocity": 0.71,
      "hand": "right"
    },
    {
      "midi": 51,
      "time": 70.5,
      "duration": 0.545,
      "velocity": 0.71,
      "hand": "left"
    },
    {
      "midi": 60,
      "time": 70.5,
      "duration": 0.273,
      "velocity": 0.71,
      "hand": "right"
    },
    {
      "midi": 67,
      "time": 70.5,
      "duration": 0.273,
      "velocity": 0.71,
      "hand": "right"
    },
    {
      "midi": 65,
      "time": 70.773,
      "duration": 0.273,
      "velocity": 0.71,
      "hand": "right"
    },
    {
      "midi": 69,
      "time": 70.773,
      "duration": 0.273,
      "velocity": 0.71,
      "hand": "right"
    },
    {
      "midi": 50,
      "time": 71.045,
      "duration": 0.545,
      "velocity": 0.71,
      "hand": "left"
    },
    {
      "midi": 58,
      "time": 71.045,
      "duration": 0.273,
      "velocity": 0.71,
      "hand": "left"
    },
    {
      "midi": 70,
      "time": 71.045,
      "duration": 1.091,
      "velocity": 0.71,
      "hand": "right"
    },
    {
      "midi": 65,
      "time": 71.318,
      "duration": 0.273,
      "velocity": 0.71,
      "hand": "right"
    },
    {
      "midi": 68,
      "time": 71.591,
      "duration": 0.273,
      "velocity": 0.71,
      "hand": "right"
    },
    {
      "midi": 67,
      "time": 71.864,
      "duration": 0.273,
      "velocity": 0.71,
      "hand": "right"
    },
    {
      "midi": 51,
      "time": 72,
      "duration": 0.136,
      "velocity": 0.71,
      "hand": "left"
    },
    {
      "midi": 56,
      "time": 72.136,
      "duration": 0.545,
      "velocity": 0.71,
      "hand": "left"
    },
    {
      "midi": 65,
      "time": 72.136,
      "duration": 0.273,
      "velocity": 0.71,
      "hand": "right"
    },
    {
      "midi": 72,
      "time": 72.136,
      "duration": 0.545,
      "velocity": 0.71,
      "hand": "right"
    },
    {
      "midi": 63,
      "time": 72.409,
      "duration": 0.273,
      "velocity": 0.71,
      "hand": "right"
    },
    {
      "midi": 56,
      "time": 72.682,
      "duration": 0.545,
      "velocity": 0.71,
      "hand": "left"
    },
    {
      "midi": 62,
      "time": 72.682,
      "duration": 0.273,
      "velocity": 0.71,
      "hand": "right"
    },
    {
      "midi": 70,
      "time": 72.682,
      "duration": 0.818,
      "velocity": 0.71,
      "hand": "right"
    },
    {
      "midi": 65,
      "time": 72.955,
      "duration": 0.273,
      "velocity": 0.71,
      "hand": "right"
    },
    {
      "midi": 55,
      "time": 73.227,
      "duration": 0.545,
      "velocity": 0.71,
      "hand": "left"
    },
    {
      "midi": 63,
      "time": 73.227,
      "duration": 0.273,
      "velocity": 0.71,
      "hand": "right"
    },
    {
      "midi": 70,
      "time": 73.5,
      "duration": 0.273,
      "velocity": 0.71,
      "hand": "right"
    },
    {
      "midi": 75,
      "time": 73.773,
      "duration": 0.273,
      "velocity": 0.71,
      "hand": "right"
    },
    {
      "midi": 79,
      "time": 73.773,
      "duration": 0.273,
      "velocity": 0.71,
      "hand": "right"
    },
    {
      "midi": 74,
      "time": 74.045,
      "duration": 0.273,
      "velocity": 0.71,
      "hand": "right"
    },
    {
      "midi": 77,
      "time": 74.045,
      "duration": 0.273,
      "velocity": 0.71,
      "hand": "right"
    },
    {
      "midi": 58,
      "time": 74.182,
      "duration": 0.136,
      "velocity": 0.71,
      "hand": "left"
    },
    {
      "midi": 63,
      "time": 74.318,
      "duration": 0.273,
      "velocity": 0.71,
      "hand": "right"
    },
    {
      "midi": 72,
      "time": 74.318,
      "duration": 0.273,
      "velocity": 0.71,
      "hand": "right"
    },
    {
      "midi": 75,
      "time": 74.318,
      "duration": 1.091,
      "velocity": 0.71,
      "hand": "right"
    },
    {
      "midi": 62,
      "time": 74.591,
      "duration": 0.273,
      "velocity": 0.71,
      "hand": "right"
    },
    {
      "midi": 70,
      "time": 74.591,
      "duration": 0.273,
      "velocity": 0.71,
      "hand": "right"
    },
    {
      "midi": 60,
      "time": 74.864,
      "duration": 0.273,
      "velocity": 0.71,
      "hand": "right"
    },
    {
      "midi": 68,
      "time": 74.864,
      "duration": 0.273,
      "velocity": 0.71,
      "hand": "right"
    },
    {
      "midi": 58,
      "time": 75.136,
      "duration": 0.273,
      "velocity": 0.71,
      "hand": "left"
    },
    {
      "midi": 67,
      "time": 75.136,
      "duration": 0.273,
      "velocity": 0.71,
      "hand": "right"
    },
    {
      "midi": 56,
      "time": 75.409,
      "duration": 0.273,
      "velocity": 0.71,
      "hand": "left"
    },
    {
      "midi": 65,
      "time": 75.409,
      "duration": 0.545,
      "velocity": 0.71,
      "hand": "right"
    },
    {
      "midi": 77,
      "time": 75.409,
      "duration": 0.273,
      "velocity": 0.71,
      "hand": "right"
    },
    {
      "midi": 55,
      "time": 75.682,
      "duration": 0.273,
      "velocity": 0.71,
      "hand": "left"
    },
    {
      "midi": 75,
      "time": 75.682,
      "duration": 0.273,
      "velocity": 0.71,
      "hand": "right"
    },
    {
      "midi": 53,
      "time": 75.955,
      "duration": 0.273,
      "velocity": 0.71,
      "hand": "left"
    },
    {
      "midi": 68,
      "time": 75.955,
      "duration": 1.091,
      "velocity": 0.71,
      "hand": "right"
    },
    {
      "midi": 74,
      "time": 75.955,
      "duration": 0.273,
      "velocity": 0.71,
      "hand": "right"
    },
    {
      "midi": 51,
      "time": 76.227,
      "duration": 0.273,
      "velocity": 0.71,
      "hand": "left"
    },
    {
      "midi": 72,
      "time": 76.227,
      "duration": 0.273,
      "velocity": 0.71,
      "hand": "right"
    },
    {
      "midi": 50,
      "time": 76.5,
      "duration": 0.273,
      "velocity": 0.71,
      "hand": "left"
    },
    {
      "midi": 70,
      "time": 76.5,
      "duration": 0.545,
      "velocity": 0.71,
      "hand": "right"
    },
    {
      "midi": 48,
      "time": 76.773,
      "duration": 0.273,
      "velocity": 0.71,
      "hand": "left"
    },
    {
      "midi": 46,
      "time": 77.045,
      "duration": 0.273,
      "velocity": 0.71,
      "hand": "left"
    },
    {
      "midi": 67,
      "time": 77.045,
      "duration": 0.273,
      "velocity": 0.71,
      "hand": "right"
    },
    {
      "midi": 74,
      "time": 77.045,
      "duration": 0.545,
      "velocity": 0.71,
      "hand": "right"
    },
    {
      "midi": 44,
      "time": 77.318,
      "duration": 0.273,
      "velocity": 0.71,
      "hand": "left"
    },
    {
      "midi": 65,
      "time": 77.318,
      "duration": 0.273,
      "velocity": 0.71,
      "hand": "right"
    },
    {
      "midi": 43,
      "time": 77.591,
      "duration": 0.273,
      "velocity": 0.71,
      "hand": "left"
    },
    {
      "midi": 63,
      "time": 77.591,
      "duration": 0.545,
      "velocity": 0.71,
      "hand": "right"
    },
    {
      "midi": 75,
      "time": 77.591,
      "duration": 0.273,
      "velocity": 0.71,
      "hand": "right"
    },
    {
      "midi": 46,
      "time": 77.864,
      "duration": 0.273,
      "velocity": 0.71,
      "hand": "left"
    },
    {
      "midi": 73,
      "time": 77.864,
      "duration": 0.273,
      "velocity": 0.71,
      "hand": "right"
    },
    {
      "midi": 48,
      "time": 78.136,
      "duration": 0.273,
      "velocity": 0.71,
      "hand": "left"
    },
    {
      "midi": 72,
      "time": 78.136,
      "duration": 0.273,
      "velocity": 0.71,
      "hand": "right"
    },
    {
      "midi": 49,
      "time": 78.409,
      "duration": 0.273,
      "velocity": 0.71,
      "hand": "left"
    },
    {
      "midi": 70,
      "time": 78.409,
      "duration": 0.273,
      "velocity": 0.71,
      "hand": "right"
    },
    {
      "midi": 51,
      "time": 78.545,
      "duration": 0.136,
      "velocity": 0.71,
      "hand": "left"
    },
    {
      "midi": 48,
      "time": 78.682,
      "duration": 0.273,
      "velocity": 0.71,
      "hand": "left"
    },
    {
      "midi": 56,
      "time": 78.682,
      "duration": 0.545,
      "velocity": 0.71,
      "hand": "left"
    },
    {
      "midi": 68,
      "time": 78.682,
      "duration": 0.545,
      "velocity": 0.71,
      "hand": "right"
    },
    {
      "midi": 41,
      "time": 78.955,
      "duration": 0.273,
      "velocity": 0.71,
      "hand": "left"
    },
    {
      "midi": 50,
      "time": 79.227,
      "duration": 0.273,
      "velocity": 0.71,
      "hand": "left"
    },
    {
      "midi": 56,
      "time": 79.227,
      "duration": 0.545,
      "velocity": 0.71,
      "hand": "left"
    },
    {
      "midi": 70,
      "time": 79.227,
      "duration": 0.818,
      "velocity": 0.71,
      "hand": "right"
    },
    {
      "midi": 46,
      "time": 79.5,
      "duration": 0.273,
      "velocity": 0.71,
      "hand": "left"
    },
    {
      "midi": 51,
      "time": 79.773,
      "duration": 0.273,
      "velocity": 0.71,
      "hand": "left"
    },
    {
      "midi": 55,
      "time": 79.773,
      "duration": 0.545,
      "velocity": 0.71,
      "hand": "left"
    },
    {
      "midi": 46,
      "time": 80.045,
      "duration": 0.273,
      "velocity": 0.71,
      "hand": "left"
    },
    {
      "midi": 61,
      "time": 80.045,
      "duration": 0.273,
      "velocity": 0.71,
      "hand": "right"
    },
    {
      "midi": 49,
      "time": 80.318,
      "duration": 0.273,
      "velocity": 0.71,
      "hand": "left"
    },
    {
      "midi": 65,
      "time": 80.318,
      "duration": 0.273,
      "velocity": 0.71,
      "hand": "right"
    },
    {
      "midi": 48,
      "time": 80.591,
      "duration": 0.273,
      "velocity": 0.71,
      "hand": "left"
    },
    {
      "midi": 63,
      "time": 80.591,
      "duration": 0.273,
      "velocity": 0.71,
      "hand": "right"
    },
    {
      "midi": 56,
      "time": 80.727,
      "duration": 0.136,
      "velocity": 0.71,
      "hand": "left"
    },
    {
      "midi": 46,
      "time": 80.864,
      "duration": 0.273,
      "velocity": 0.71,
      "hand": "left"
    },
    {
      "midi": 61,
      "time": 80.864,
      "duration": 0.545,
      "velocity": 0.71,
      "hand": "right"
    },
    {
      "midi": 44,
      "time": 81.136,
      "duration": 0.273,
      "velocity": 0.71,
      "hand": "left"
    },
    {
      "midi": 65,
      "time": 81.136,
      "duration": 0.273,
      "velocity": 0.71,
      "hand": "right"
    },
    {
      "midi": 43,
      "time": 81.409,
      "duration": 0.273,
      "velocity": 0.71,
      "hand": "left"
    },
    {
      "midi": 61,
      "time": 81.409,
      "duration": 0.545,
      "velocity": 0.71,
      "hand": "right"
    },
    {
      "midi": 70,
      "time": 81.409,
      "duration": 0.273,
      "velocity": 0.71,
      "hand": "right"
    },
    {
      "midi": 39,
      "time": 81.682,
      "duration": 0.273,
      "velocity": 0.71,
      "hand": "left"
    },
    {
      "midi": 67,
      "time": 81.682,
      "duration": 0.273,
      "velocity": 0.71,
      "hand": "right"
    },
    {
      "midi": 44,
      "time": 81.955,
      "duration": 0.273,
      "velocity": 0.71,
      "hand": "left"
    },
    {
      "midi": 60,
      "time": 81.955,
      "duration": 0.545,
      "velocity": 0.71,
      "hand": "right"
    },
    {
      "midi": 63,
      "time": 81.955,
      "duration": 0.545,
      "velocity": 0.71,
      "hand": "right"
    },
    {
      "midi": 51,
      "time": 82.227,
      "duration": 0.273,
      "velocity": 0.71,
      "hand": "left"
    },
    {
      "midi": 56,
      "time": 82.5,
      "duration": 0.273,
      "velocity": 0.71,
      "hand": "left"
    },
    {
      "midi": 72,
      "time": 82.5,
      "duration": 1.091,
      "velocity": 0.71,
      "hand": "right"
    },
    {
      "midi": 55,
      "time": 82.773,
      "duration": 0.273,
      "velocity": 0.71,
      "hand": "left"
    },
    {
      "midi": 63,
      "time": 82.909,
      "duration": 0.136,
      "velocity": 0.71,
      "hand": "right"
    },
    {
      "midi": 53,
      "time": 83.045,
      "duration": 0.273,
      "velocity": 0.71,
      "hand": "left"
    },
    {
      "midi": 68,
      "time": 83.045,
      "duration": 0.273,
      "velocity": 0.71,
      "hand": "right"
    },
    {
      "midi": 51,
      "time": 83.318,
      "duration": 0.273,
      "velocity": 0.71,
      "hand": "left"
    },
    {
      "midi": 67,
      "time": 83.318,
      "duration": 0.273,
      "velocity": 0.71,
      "hand": "right"
    },
    {
      "midi": 49,
      "time": 83.591,
      "duration": 0.273,
      "velocity": 0.71,
      "hand": "left"
    },
    {
      "midi": 65,
      "time": 83.591,
      "duration": 0.273,
      "velocity": 0.71,
      "hand": "right"
    },
    {
      "midi": 70,
      "time": 83.591,
      "duration": 0.273,
      "velocity": 0.71,
      "hand": "right"
    },
    {
      "midi": 48,
      "time": 83.864,
      "duration": 0.273,
      "velocity": 0.71,
      "hand": "left"
    },
    {
      "midi": 63,
      "time": 83.864,
      "duration": 0.273,
      "velocity": 0.71,
      "hand": "right"
    },
    {
      "midi": 72,
      "time": 83.864,
      "duration": 0.273,
      "velocity": 0.71,
      "hand": "right"
    },
    {
      "midi": 46,
      "time": 84.136,
      "duration": 0.273,
      "velocity": 0.71,
      "hand": "left"
    },
    {
      "midi": 61,
      "time": 84.136,
      "duration": 0.273,
      "velocity": 0.71,
      "hand": "right"
    },
    {
      "midi": 73,
      "time": 84.136,
      "duration": 0.273,
      "velocity": 0.71,
      "hand": "right"
    },
    {
      "midi": 48,
      "time": 84.409,
      "duration": 0.273,
      "velocity": 0.71,
      "hand": "left"
    },
    {
      "midi": 60,
      "time": 84.409,
      "duration": 0.273,
      "velocity": 0.71,
      "hand": "right"
    },
    {
      "midi": 75,
      "time": 84.409,
      "duration": 0.273,
      "velocity": 0.71,
      "hand": "right"
    },
    {
      "midi": 49,
      "time": 84.682,
      "duration": 0.273,
      "velocity": 0.71,
      "hand": "left"
    },
    {
      "midi": 58,
      "time": 84.682,
      "duration": 0.273,
      "velocity": 0.71,
      "hand": "left"
    },
    {
      "midi": 77,
      "time": 84.682,
      "duration": 0.818,
      "velocity": 0.71,
      "hand": "right"
    },
    {
      "midi": 50,
      "time": 84.955,
      "duration": 0.273,
      "velocity": 0.71,
      "hand": "left"
    },
    {
      "midi": 56,
      "time": 84.955,
      "duration": 0.273,
      "velocity": 0.71,
      "hand": "left"
    },
    {
      "midi": 51,
      "time": 85.227,
      "duration": 0.545,
      "velocity": 0.71,
      "hand": "left"
    },
    {
      "midi": 55,
      "time": 85.227,
      "duration": 0.273,
      "velocity": 0.71,
      "hand": "left"
    },
    {
      "midi": 53,
      "time": 85.5,
      "duration": 0.273,
      "velocity": 0.71,
      "hand": "left"
    },
    {
      "midi": 70,
      "time": 85.5,
      "duration": 0.273,
      "velocity": 0.71,
      "hand": "right"
    },
    {
      "midi": 43,
      "time": 85.773,
      "duration": 0.545,
      "velocity": 0.71,
      "hand": "left"
    },
    {
      "midi": 51,
      "time": 85.773,
      "duration": 0.273,
      "velocity": 0.71,
      "hand": "left"
    },
    {
      "midi": 75,
      "time": 85.773,
      "duration": 0.818,
      "velocity": 0.71,
      "hand": "right"
    },
    {
      "midi": 49,
      "time": 86.045,
      "duration": 0.273,
      "velocity": 0.71,
      "hand": "left"
    },
    {
      "midi": 44,
      "time": 86.318,
      "duration": 0.545,
      "velocity": 0.71,
      "hand": "left"
    },
    {
      "midi": 48,
      "time": 86.318,
      "duration": 0.273,
      "velocity": 0.71,
      "hand": "left"
    },
    {
      "midi": 51,
      "time": 86.591,
      "duration": 0.273,
      "velocity": 0.71,
      "hand": "left"
    },
    {
      "midi": 72,
      "time": 86.591,
      "duration": 0.273,
      "velocity": 0.71,
      "hand": "right"
    },
    {
      "midi": 56,
      "time": 86.864,
      "duration": 0.273,
      "velocity": 0.71,
      "hand": "left"
    },
    {
      "midi": 60,
      "time": 87.136,
      "duration": 0.273,
      "velocity": 0.71,
      "hand": "right"
    },
    {
      "midi": 56,
      "time": 87.273,
      "duration": 0.136,
      "velocity": 0.71,
      "hand": "left"
    },
    {
      "midi": 75,
      "time": 87.273,
      "duration": 0.136,
      "velocity": 0.71,
      "hand": "right"
    },
    {
      "midi": 53,
      "time": 87.409,
      "duration": 0.545,
      "velocity": 0.71,
      "hand": "left"
    },
    {
      "midi": 61,
      "time": 87.409,
      "duration": 0.273,
      "velocity": 0.71,
      "hand": "right"
    },
    {
      "midi": 77,
      "time": 87.409,
      "duration": 0.545,
      "velocity": 0.71,
      "hand": "right"
    },
    {
      "midi": 65,
      "time": 87.682,
      "duration": 0.273,
      "velocity": 0.71,
      "hand": "right"
    },
    {
      "midi": 55,
      "time": 87.955,
      "duration": 0.545,
      "velocity": 0.71,
      "hand": "left"
    },
    {
      "midi": 63,
      "time": 87.955,
      "duration": 0.273,
      "velocity": 0.71,
      "hand": "right"
    },
    {
      "midi": 70,
      "time": 87.955,
      "duration": 0.545,
      "velocity": 0.71,
      "hand": "right"
    },
    {
      "midi": 61,
      "time": 88.227,
      "duration": 0.273,
      "velocity": 0.71,
      "hand": "right"
    },
    {
      "midi": 56,
      "time": 88.5,
      "duration": 0.545,
      "velocity": 0.71,
      "hand": "left"
    },
    {
      "midi": 60,
      "time": 88.5,
      "duration": 0.273,
      "velocity": 0.71,
      "hand": "right"
    },
    {
      "midi": 72,
      "time": 88.5,
      "duration": 0.545,
      "velocity": 0.71,
      "hand": "right"
    },
    {
      "midi": 62,
      "time": 88.773,
      "duration": 0.273,
      "velocity": 0.71,
      "hand": "right"
    },
    {
      "midi": 63,
      "time": 89.045,
      "duration": 0.273,
      "velocity": 0.71,
      "hand": "right"
    },
    {
      "midi": 67,
      "time": 89.318,
      "duration": 0.273,
      "velocity": 0.71,
      "hand": "right"
    },
    {
      "midi": 55,
      "time": 89.455,
      "duration": 0.136,
      "velocity": 0.71,
      "hand": "left"
    },
    {
      "midi": 70,
      "time": 89.455,
      "duration": 0.136,
      "velocity": 0.71,
      "hand": "right"
    },
    {
      "midi": 53,
      "time": 89.591,
      "duration": 0.545,
      "velocity": 0.71,
      "hand": "left"
    },
    {
      "midi": 68,
      "time": 89.591,
      "duration": 0.273,
      "velocity": 0.71,
      "hand": "right"
    },
    {
      "midi": 72,
      "time": 89.591,
      "duration": 0.273,
      "velocity": 0.71,
      "hand": "right"
    },
    {
      "midi": 72,
      "time": 89.864,
      "duration": 0.273,
      "velocity": 0.71,
      "hand": "right"
    },
    {
      "midi": 58,
      "time": 90.136,
      "duration": 0.545,
      "velocity": 0.71,
      "hand": "left"
    },
    {
      "midi": 70,
      "time": 90.136,
      "duration": 0.273,
      "velocity": 0.71,
      "hand": "right"
    },
    {
      "midi": 74,
      "time": 90.136,
      "duration": 0.545,
      "velocity": 0.71,
      "hand": "right"
    },
    {
      "midi": 68,
      "time": 90.409,
      "duration": 0.273,
      "velocity": 0.71,
      "hand": "right"
    },
    {
      "midi": 51,
      "time": 90.682,
      "duration": 0.545,
      "velocity": 0.71,
      "hand": "left"
    },
    {
      "midi": 67,
      "time": 90.682,
      "duration": 0.545,
      "velocity": 0.71,
      "hand": "right"
    },
    {
      "midi": 75,
      "time": 90.682,
      "duration": 0.273,
      "velocity": 0.71,
      "hand": "right"
    },
    {
      "midi": 70,
      "time": 90.955,
      "duration": 0.273,
      "velocity": 0.71,
      "hand": "right"
    },
    {
      "midi": 72,
      "time": 91.227,
      "duration": 0.273,
      "velocity": 0.71,
      "hand": "right"
    },
    {
      "midi": 74,
      "time": 91.5,
      "duration": 0.273,
      "velocity": 0.71,
      "hand": "right"
    },
    {
      "midi": 50,
      "time": 91.636,
      "duration": 0.136,
      "velocity": 0.71,
      "hand": "left"
    },
    {
      "midi": 65,
      "time": 91.636,
      "duration": 0.136,
      "velocity": 0.71,
      "hand": "right"
    },
    {
      "midi": 48,
      "time": 91.773,
      "duration": 0.545,
      "velocity": 0.71,
      "hand": "left"
    },
    {
      "midi": 67,
      "time": 91.773,
      "duration": 0.545,
      "velocity": 0.71,
      "hand": "right"
    },
    {
      "midi": 75,
      "time": 91.773,
      "duration": 0.273,
      "velocity": 0.71,
      "hand": "right"
    },
    {
      "midi": 79,
      "time": 92.045,
      "duration": 0.273,
      "velocity": 0.71,
      "hand": "right"
    },
    {
      "midi": 53,
      "time": 92.318,
      "duration": 0.545,
      "velocity": 0.71,
      "hand": "left"
    },
    {
      "midi": 69,
      "time": 92.318,
      "duration": 0.545,
      "velocity": 0.71,
      "hand": "right"
    },
    {
      "midi": 77,
      "time": 92.318,
      "duration": 0.273,
      "velocity": 0.71,
      "hand": "right"
    },
    {
      "midi": 75,
      "time": 92.591,
      "duration": 0.273,
      "velocity": 0.71,
      "hand": "right"
    },
    {
      "midi": 46,
      "time": 92.864,
      "duration": 0.545,
      "velocity": 0.71,
      "hand": "left"
    },
    {
      "midi": 70,
      "time": 92.864,
      "duration": 0.273,
      "velocity": 0.71,
      "hand": "right"
    },
    {
      "midi": 74,
      "time": 92.864,
      "duration": 0.273,
      "velocity": 0.71,
      "hand": "right"
    },
    {
      "midi": 68,
      "time": 93.136,
      "duration": 0.273,
      "velocity": 0.71,
      "hand": "right"
    },
    {
      "midi": 72,
      "time": 93.136,
      "duration": 0.273,
      "velocity": 0.71,
      "hand": "right"
    },
    {
      "midi": 67,
      "time": 93.409,
      "duration": 0.273,
      "velocity": 0.71,
      "hand": "right"
    },
    {
      "midi": 70,
      "time": 93.409,
      "duration": 0.273,
      "velocity": 0.71,
      "hand": "right"
    },
    {
      "midi": 65,
      "time": 93.682,
      "duration": 0.273,
      "velocity": 0.71,
      "hand": "right"
    },
    {
      "midi": 68,
      "time": 93.682,
      "duration": 0.273,
      "velocity": 0.71,
      "hand": "right"
    },
    {
      "midi": 46,
      "time": 93.818,
      "duration": 0.136,
      "velocity": 0.71,
      "hand": "left"
    },
    {
      "midi": 51,
      "time": 93.955,
      "duration": 0.545,
      "velocity": 0.71,
      "hand": "left"
    },
    {
      "midi": 63,
      "time": 93.955,
      "duration": 0.273,
      "velocity": 0.71,
      "hand": "right"
    },
    {
      "midi": 67,
      "time": 93.955,
      "duration": 0.545,
      "velocity": 0.71,
      "hand": "right"
    },
    {
      "midi": 58,
      "time": 94.227,
      "duration": 0.273,
      "velocity": 0.71,
      "hand": "left"
    },
    {
      "midi": 51,
      "time": 94.5,
      "duration": 0.545,
      "velocity": 0.71,
      "hand": "left"
    },
    {
      "midi": 55,
      "time": 94.5,
      "duration": 0.273,
      "velocity": 0.71,
      "hand": "left"
    },
    {
      "midi": 60,
      "time": 94.773,
      "duration": 0.273,
      "velocity": 0.71,
      "hand": "right"
    },
    {
      "midi": 63,
      "time": 94.909,
      "duration": 0.136,
      "velocity": 0.71,
      "hand": "right"
    },
    {
      "midi": 50,
      "time": 95.045,
      "duration": 0.545,
      "velocity": 0.71,
      "hand": "left"
    },
    {
      "midi": 53,
      "time": 95.045,
      "duration": 0.273,
      "velocity": 0.71,
      "hand": "left"
    },
    {
      "midi": 70,
      "time": 95.045,
      "duration": 0.545,
      "velocity": 0.71,
      "hand": "right"
    },
    {
      "midi": 65,
      "time": 95.318,
      "duration": 0.273,
      "velocity": 0.71,
      "hand": "right"
    },
    {
      "midi": 68,
      "time": 95.591,
      "duration": 0.273,
      "velocity": 0.71,
      "hand": "right"
    },
    {
      "midi": 70,
      "time": 95.591,
      "duration": 0.545,
      "velocity": 0.71,
      "hand": "right"
    },
    {
      "midi": 67,
      "time": 95.864,
      "duration": 0.273,
      "velocity": 0.71,
      "hand": "right"
    },
    {
      "midi": 51,
      "time": 96,
      "duration": 0.136,
      "velocity": 0.71,
      "hand": "left"
    },
    {
      "midi": 56,
      "time": 96.136,
      "duration": 0.545,
      "velocity": 0.71,
      "hand": "left"
    },
    {
      "midi": 65,
      "time": 96.136,
      "duration": 0.273,
      "velocity": 0.71,
      "hand": "right"
    },
    {
      "midi": 68,
      "time": 96.136,
      "duration": 0.545,
      "velocity": 0.71,
      "hand": "right"
    },
    {
      "midi": 63,
      "time": 96.409,
      "duration": 0.273,
      "velocity": 0.71,
      "hand": "right"
    },
    {
      "midi": 56,
      "time": 96.682,
      "duration": 0.545,
      "velocity": 0.71,
      "hand": "left"
    },
    {
      "midi": 62,
      "time": 96.682,
      "duration": 0.273,
      "velocity": 0.71,
      "hand": "right"
    },
    {
      "midi": 65,
      "time": 96.955,
      "duration": 0.273,
      "velocity": 0.71,
      "hand": "right"
    },
    {
      "midi": 70,
      "time": 97.091,
      "duration": 0.136,
      "velocity": 0.71,
      "hand": "right"
    },
    {
      "midi": 55,
      "time": 97.227,
      "duration": 0.545,
      "velocity": 0.71,
      "hand": "left"
    },
    {
      "midi": 58,
      "time": 97.227,
      "duration": 0.273,
      "velocity": 0.71,
      "hand": "left"
    },
    {
      "midi": 75,
      "time": 97.227,
      "duration": 0.545,
      "velocity": 0.71,
      "hand": "right"
    },
    {
      "midi": 63,
      "time": 97.5,
      "duration": 0.273,
      "velocity": 0.71,
      "hand": "right"
    },
    {
      "midi": 67,
      "time": 97.773,
      "duration": 0.273,
      "velocity": 0.71,
      "hand": "right"
    },
    {
      "midi": 75,
      "time": 97.773,
      "duration": 0.409,
      "velocity": 0.71,
      "hand": "right"
    },
    {
      "midi": 65,
      "time": 98.045,
      "duration": 0.273,
      "velocity": 0.71,
      "hand": "right"
    },
    {
      "midi": 58,
      "time": 98.182,
      "duration": 0.136,
      "velocity": 0.71,
      "hand": "left"
    },
    {
      "midi": 74,
      "time": 98.182,
      "duration": 0.136,
      "velocity": 0.71,
      "hand": "right"
    },
    {
      "midi": 63,
      "time": 98.318,
      "duration": 0.273,
      "velocity": 0.71,
      "hand": "right"
    },
    {
      "midi": 67,
      "time": 98.318,
      "duration": 0.273,
      "velocity": 0.71,
      "hand": "right"
    },
    {
      "midi": 72,
      "time": 98.318,
      "duration": 0.545,
      "velocity": 0.71,
      "hand": "right"
    },
    {
      "midi": 62,
      "time": 98.591,
      "duration": 0.273,
      "velocity": 0.71,
      "hand": "right"
    },
    {
      "midi": 65,
      "time": 98.591,
      "duration": 0.273,
      "velocity": 0.71,
      "hand": "right"
    },
    {
      "midi": 60,
      "time": 98.864,
      "duration": 0.273,
      "velocity": 0.71,
      "hand": "right"
    },
    {
      "midi": 63,
      "time": 98.864,
      "duration": 0.273,
      "velocity": 0.71,
      "hand": "right"
    },
    {
      "midi": 58,
      "time": 99.136,
      "duration": 0.273,
      "velocity": 0.71,
      "hand": "left"
    },
    {
      "midi": 67,
      "time": 99.136,
      "duration": 0.273,
      "velocity": 0.71,
      "hand": "right"
    },
    {
      "midi": 72,
      "time": 99.273,
      "duration": 0.136,
      "velocity": 0.71,
      "hand": "right"
    },
    {
      "midi": 56,
      "time": 99.409,
      "duration": 0.273,
      "velocity": 0.71,
      "hand": "left"
    },
    {
      "midi": 60,
      "time": 99.409,
      "duration": 0.545,
      "velocity": 0.71,
      "hand": "right"
    },
    {
      "midi": 77,
      "time": 99.409,
      "duration": 0.273,
      "velocity": 0.71,
      "hand": "right"
    },
    {
      "midi": 55,
      "time": 99.682,
      "duration": 0.273,
      "velocity": 0.71,
      "hand": "left"
    },
    {
      "midi": 75,
      "time": 99.682,
      "duration": 0.273,
      "velocity": 0.71,
      "hand": "right"
    },
    {
      "midi": 53,
      "time": 99.955,
      "duration": 0.273,
      "velocity": 0.71,
      "hand": "left"
    },
    {
      "midi": 62,
      "time": 99.955,
      "duration": 0.273,
      "velocity": 0.71,
      "hand": "right"
    },
    {
      "midi": 74,
      "time": 99.955,
      "duration": 0.273,
      "velocity": 0.71,
      "hand": "right"
    },
    {
      "midi": 51,
      "time": 100.227,
      "duration": 0.273,
      "velocity": 0.71,
      "hand": "left"
    },
    {
      "midi": 63,
      "time": 100.227,
      "duration": 0.273,
      "velocity": 0.71,
      "hand": "right"
    },
    {
      "midi": 72,
      "time": 100.227,
      "duration": 0.273,
      "velocity": 0.71,
      "hand": "right"
    },
    {
      "midi": 50,
      "time": 100.5,
      "duration": 0.273,
      "velocity": 0.71,
      "hand": "left"
    },
    {
      "midi": 65,
      "time": 100.5,
      "duration": 0.545,
      "velocity": 0.71,
      "hand": "right"
    },
    {
      "midi": 70,
      "time": 100.5,
      "duration": 0.273,
      "velocity": 0.71,
      "hand": "right"
    },
    {
      "midi": 48,
      "time": 100.773,
      "duration": 0.273,
      "velocity": 0.71,
      "hand": "left"
    },
    {
      "midi": 68,
      "time": 100.773,
      "duration": 0.273,
      "velocity": 0.71,
      "hand": "right"
    },
    {
      "midi": 46,
      "time": 101.045,
      "duration": 0.273,
      "velocity": 0.71,
      "hand": "left"
    },
    {
      "midi": 62,
      "time": 101.045,
      "duration": 0.545,
      "velocity": 0.71,
      "hand": "right"
    },
    {
      "midi": 67,
      "time": 101.045,
      "duration": 0.273,
      "velocity": 0.71,
      "hand": "right"
    },
    {
      "midi": 44,
      "time": 101.318,
      "duration": 0.273,
      "velocity": 0.71,
      "hand": "left"
    },
    {
      "midi": 65,
      "time": 101.318,
      "duration": 0.273,
      "velocity": 0.71,
      "hand": "right"
    },
    {
      "midi": 43,
      "time": 101.591,
      "duration": 0.545,
      "velocity": 0.71,
      "hand": "left"
    },
    {
      "midi": 58,
      "time": 101.591,
      "duration": 0.545,
      "velocity": 0.71,
      "hand": "left"
    },
    {
      "midi": 63,
      "time": 101.591,
      "duration": 0.273,
      "velocity": 0.71,
      "hand": "right"
    },
    {
      "midi": 62,
      "time": 101.864,
      "duration": 0.273,
      "velocity": 0.71,
      "hand": "right"
    },
    {
      "midi": 51,
      "time": 102.136,
      "duration": 0.545,
      "velocity": 0.71,
      "hand": "left"
    },
    {
      "midi": 55,
      "time": 102.136,
      "duration": 0.545,
      "velocity": 0.71,
      "hand": "left"
    },
    {
      "midi": 60,
      "time": 102.136,
      "duration": 0.273,
      "velocity": 0.71,
      "hand": "right"
    },
    {
      "midi": 58,
      "time": 102.409,
      "duration": 0.273,
      "velocity": 0.71,
      "hand": "left"
    },
    {
      "midi": 44,
      "time": 102.682,
      "duration": 1.364,
      "velocity": 0.71,
      "hand": "left"
    },
    {
      "midi": 56,
      "time": 102.682,
      "duration": 0.545,
      "velocity": 0.71,
      "hand": "left"
    },
    {
      "midi": 60,
      "time": 102.682,
      "duration": 0.273,
      "velocity": 0.71,
      "hand": "right"
    },
    {
      "midi": 63,
      "time": 102.955,
      "duration": 0.273,
      "velocity": 0.71,
      "hand": "right"
    },
    {
      "midi": 60,
      "time": 103.227,
      "duration": 0.818,
      "velocity": 0.71,
      "hand": "right"
    },
    {
      "midi": 68,
      "time": 103.227,
      "duration": 0.273,
      "velocity": 0.71,
      "hand": "right"
    },
    {
      "midi": 70,
      "time": 103.5,
      "duration": 0.273,
      "velocity": 0.71,
      "hand": "right"
    },
    {
      "midi": 72,
      "time": 103.773,
      "duration": 1.091,
      "velocity": 0.71,
      "hand": "right"
    },
    {
      "midi": 41,
      "time": 104.045,
      "duration": 0.273,
      "velocity": 0.71,
      "hand": "left"
    },
    {
      "midi": 68,
      "time": 104.045,
      "duration": 0.273,
      "velocity": 0.71,
      "hand": "right"
    },
    {
      "midi": 44,
      "time": 104.318,
      "duration": 0.273,
      "velocity": 0.71,
      "hand": "left"
    },
    {
      "midi": 65,
      "time": 104.318,
      "duration": 0.273,
      "velocity": 0.71,
      "hand": "right"
    },
    {
      "midi": 45,
      "time": 104.591,
      "duration": 0.273,
      "velocity": 0.71,
      "hand": "left"
    },
    {
      "midi": 63,
      "time": 104.591,
      "duration": 0.273,
      "velocity": 0.71,
      "hand": "right"
    },
    {
      "midi": 46,
      "time": 104.864,
      "duration": 4.364,
      "velocity": 0.71,
      "hand": "left"
    },
    {
      "midi": 62,
      "time": 104.864,
      "duration": 0.273,
      "velocity": 0.71,
      "hand": "right"
    },
    {
      "midi": 70,
      "time": 104.864,
      "duration": 0.545,
      "velocity": 0.71,
      "hand": "right"
    },
    {
      "midi": 63,
      "time": 105.136,
      "duration": 0.273,
      "velocity": 0.71,
      "hand": "right"
    },
    {
      "midi": 65,
      "time": 105.409,
      "duration": 0.273,
      "velocity": 0.71,
      "hand": "right"
    },
    {
      "midi": 67,
      "time": 105.682,
      "duration": 0.273,
      "velocity": 0.71,
      "hand": "right"
    },
    {
      "midi": 70,
      "time": 105.818,
      "duration": 0.136,
      "velocity": 0.71,
      "hand": "right"
    },
    {
      "midi": 68,
      "time": 105.955,
      "duration": 0.273,
      "velocity": 0.71,
      "hand": "right"
    },
    {
      "midi": 72,
      "time": 105.955,
      "duration": 0.273,
      "velocity": 0.71,
      "hand": "right"
    },
    {
      "midi": 72,
      "time": 106.227,
      "duration": 0.273,
      "velocity": 0.71,
      "hand": "right"
    },
    {
      "midi": 70,
      "time": 106.5,
      "duration": 0.273,
      "velocity": 0.71,
      "hand": "right"
    },
    {
      "midi": 74,
      "time": 106.5,
      "duration": 0.545,
      "velocity": 0.71,
      "hand": "right"
    },
    {
      "midi": 68,
      "time": 106.773,
      "duration": 0.273,
      "velocity": 0.71,
      "hand": "right"
    },
    {
      "midi": 67,
      "time": 107.045,
      "duration": 0.545,
      "velocity": 0.71,
      "hand": "right"
    },
    {
      "midi": 75,
      "time": 107.045,
      "duration": 0.273,
      "velocity": 0.71,
      "hand": "right"
    },
    {
      "midi": 70,
      "time": 107.318,
      "duration": 0.273,
      "velocity": 0.71,
      "hand": "right"
    },
    {
      "midi": 72,
      "time": 107.591,
      "duration": 0.273,
      "velocity": 0.71,
      "hand": "right"
    },
    {
      "midi": 74,
      "time": 107.864,
      "duration": 0.273,
      "velocity": 0.71,
      "hand": "right"
    },
    {
      "midi": 65,
      "time": 108,
      "duration": 0.136,
      "velocity": 0.71,
      "hand": "right"
    },
    {
      "midi": 67,
      "time": 108.136,
      "duration": 0.545,
      "velocity": 0.71,
      "hand": "right"
    },
    {
      "midi": 75,
      "time": 108.136,
      "duration": 0.273,
      "velocity": 0.71,
      "hand": "right"
    },
    {
      "midi": 79,
      "time": 108.409,
      "duration": 0.273,
      "velocity": 0.71,
      "hand": "right"
    },
    {
      "midi": 69,
      "time": 108.682,
      "duration": 0.545,
      "velocity": 0.71,
      "hand": "right"
    },
    {
      "midi": 77,
      "time": 108.682,
      "duration": 0.273,
      "velocity": 0.71,
      "hand": "right"
    },
    {
      "midi": 75,
      "time": 108.955,
      "duration": 0.273,
      "velocity": 0.71,
      "hand": "right"
    },
    {
      "midi": 46,
      "time": 109.227,
      "duration": 0.545,
      "velocity": 0.71,
      "hand": "left"
    },
    {
      "midi": 70,
      "time": 109.227,
      "duration": 0.545,
      "velocity": 0.71,
      "hand": "right"
    },
    {
      "midi": 74,
      "time": 109.227,
      "duration": 0.273,
      "velocity": 0.71,
      "hand": "right"
    },
    {
      "midi": 75,
      "time": 109.5,
      "duration": 0.273,
      "velocity": 0.71,
      "hand": "right"
    },
    {
      "midi": 77,
      "time": 109.773,
      "duration": 0.273,
      "velocity": 0.71,
      "hand": "right"
    },
    {
      "midi": 79,
      "time": 110.045,
      "duration": 0.273,
      "velocity": 0.71,
      "hand": "right"
    },
    {
      "midi": 58,
      "time": 110.182,
      "duration": 0.136,
      "velocity": 0.71,
      "hand": "left"
    },
    {
      "midi": 62,
      "time": 110.182,
      "duration": 0.136,
      "velocity": 0.71,
      "hand": "right"
    },
    {
      "midi": 60,
      "time": 110.318,
      "duration": 0.545,
      "velocity": 0.71,
      "hand": "right"
    },
    {
      "midi": 63,
      "time": 110.318,
      "duration": 0.545,
      "velocity": 0.71,
      "hand": "right"
    },
    {
      "midi": 80,
      "time": 110.318,
      "duration": 0.273,
      "velocity": 0.71,
      "hand": "right"
    },
    {
      "midi": 84,
      "time": 110.591,
      "duration": 0.273,
      "velocity": 0.71,
      "hand": "right"
    },
    {
      "midi": 62,
      "time": 110.864,
      "duration": 0.545,
      "velocity": 0.71,
      "hand": "right"
    },
    {
      "midi": 65,
      "time": 110.864,
      "duration": 0.545,
      "velocity": 0.71,
      "hand": "right"
    },
    {
      "midi": 82,
      "time": 110.864,
      "duration": 0.273,
      "velocity": 0.71,
      "hand": "right"
    },
    {
      "midi": 80,
      "time": 111.136,
      "duration": 0.273,
      "velocity": 0.71,
      "hand": "right"
    },
    {
      "midi": 63,
      "time": 111.409,
      "duration": 0.273,
      "velocity": 0.71,
      "hand": "right"
    },
    {
      "midi": 67,
      "time": 111.409,
      "duration": 0.273,
      "velocity": 0.71,
      "hand": "right"
    },
    {
      "midi": 79,
      "time": 111.409,
      "duration": 0.545,
      "velocity": 0.71,
      "hand": "right"
    },
    {
      "midi": 51,
      "time": 111.682,
      "duration": 0.273,
      "velocity": 0.71,
      "hand": "left"
    },
    {
      "midi": 55,
      "time": 111.682,
      "duration": 0.273,
      "velocity": 0.71,
      "hand": "left"
    },
    {
      "midi": 53,
      "time": 111.955,
      "duration": 0.273,
      "velocity": 0.71,
      "hand": "left"
    },
    {
      "midi": 56,
      "time": 111.955,
      "duration": 0.273,
      "velocity": 0.71,
      "hand": "left"
    },
    {
      "midi": 55,
      "time": 112.227,
      "duration": 0.273,
      "velocity": 0.71,
      "hand": "left"
    },
    {
      "midi": 58,
      "time": 112.227,
      "duration": 0.273,
      "velocity": 0.71,
      "hand": "left"
    },
    {
      "midi": 63,
      "time": 112.364,
      "duration": 0.136,
      "velocity": 0.71,
      "hand": "right"
    },
    {
      "midi": 56,
      "time": 112.5,
      "duration": 0.273,
      "velocity": 0.71,
      "hand": "left"
    },
    {
      "midi": 60,
      "time": 112.5,
      "duration": 0.273,
      "velocity": 0.71,
      "hand": "right"
    },
    {
      "midi": 65,
      "time": 112.5,
      "duration": 0.273,
      "velocity": 0.71,
      "hand": "right"
    },
    {
      "midi": 60,
      "time": 112.773,
      "duration": 0.273,
      "velocity": 0.71,
      "hand": "right"
    },
    {
      "midi": 63,
      "time": 112.773,
      "duration": 0.273,
      "velocity": 0.71,
      "hand": "right"
    },
    {
      "midi": 58,
      "time": 113.045,
      "duration": 0.273,
      "velocity": 0.71,
      "hand": "left"
    },
    {
      "midi": 62,
      "time": 113.045,
      "duration": 0.273,
      "velocity": 0.71,
      "hand": "right"
    },
    {
      "midi": 70,
      "time": 113.045,
      "duration": 0.273,
      "velocity": 0.71,
      "hand": "right"
    },
    {
      "midi": 56,
      "time": 113.318,
      "duration": 0.273,
      "velocity": 0.71,
      "hand": "left"
    },
    {
      "midi": 60,
      "time": 113.318,
      "duration": 0.273,
      "velocity": 0.71,
      "hand": "right"
    },
    {
      "midi": 55,
      "time": 113.591,
      "duration": 0.273,
      "velocity": 0.71,
      "hand": "left"
    },
    {
      "midi": 58,
      "time": 113.591,
      "duration": 0.273,
      "velocity": 0.71,
      "hand": "left"
    },
    {
      "midi": 63,
      "time": 113.591,
      "duration": 0.545,
      "velocity": 0.71,
      "hand": "right"
    },
    {
      "midi": 53,
      "time": 113.864,
      "duration": 0.273,
      "velocity": 0.71,
      "hand": "left"
    },
    {
      "midi": 56,
      "time": 113.864,
      "duration": 0.273,
      "velocity": 0.71,
      "hand": "left"
    },
    {
      "midi": 51,
      "time": 114.136,
      "duration": 0.273,
      "velocity": 0.71,
      "hand": "left"
    },
    {
      "midi": 55,
      "time": 114.136,
      "duration": 0.273,
      "velocity": 0.71,
      "hand": "left"
    },
    {
      "midi": 49,
      "time": 114.409,
      "duration": 0.273,
      "velocity": 0.71,
      "hand": "left"
    },
    {
      "midi": 58,
      "time": 114.409,
      "duration": 0.273,
      "velocity": 0.71,
      "hand": "left"
    },
    {
      "midi": 63,
      "time": 114.545,
      "duration": 0.136,
      "velocity": 0.71,
      "hand": "right"
    },
    {
      "midi": 48,
      "time": 114.682,
      "duration": 0.273,
      "velocity": 0.71,
      "hand": "left"
    },
    {
      "midi": 63,
      "time": 114.682,
      "duration": 0.273,
      "velocity": 0.71,
      "hand": "right"
    },
    {
      "midi": 68,
      "time": 114.682,
      "duration": 0.545,
      "velocity": 0.71,
      "hand": "right"
    },
    {
      "midi": 46,
      "time": 114.955,
      "duration": 0.273,
      "velocity": 0.71,
      "hand": "left"
    },
    {
      "midi": 62,
      "time": 114.955,
      "duration": 0.273,
      "velocity": 0.71,
      "hand": "right"
    },
    {
      "midi": 48,
      "time": 115.227,
      "duration": 0.273,
      "velocity": 0.71,
      "hand": "left"
    },
    {
      "midi": 63,
      "time": 115.227,
      "duration": 0.273,
      "velocity": 0.71,
      "hand": "right"
    },
    {
      "midi": 68,
      "time": 115.227,
      "duration": 0.545,
      "velocity": 0.71,
      "hand": "right"
    },
    {
      "midi": 50,
      "time": 115.5,
      "duration": 0.273,
      "velocity": 0.71,
      "hand": "left"
    },
    {
      "midi": 65,
      "time": 115.5,
      "duration": 0.273,
      "velocity": 0.71,
      "hand": "right"
    },
    {
      "midi": 51,
      "time": 115.773,
      "duration": 0.273,
      "velocity": 0.71,
      "hand": "left"
    },
    {
      "midi": 58,
      "time": 115.773,
      "duration": 0.273,
      "velocity": 0.71,
      "hand": "left"
    },
    {
      "midi": 67,
      "time": 115.773,
      "duration": 0.545,
      "velocity": 0.71,
      "hand": "right"
    },
    {
      "midi": 46,
      "time": 116.045,
      "duration": 0.273,
      "velocity": 0.71,
      "hand": "left"
    },
    {
      "midi": 61,
      "time": 116.045,
      "duration": 0.273,
      "velocity": 0.71,
      "hand": "right"
    },
    {
      "midi": 49,
      "time": 116.318,
      "duration": 0.273,
      "velocity": 0.71,
      "hand": "left"
    },
    {
      "midi": 65,
      "time": 116.318,
      "duration": 0.273,
      "velocity": 0.71,
      "hand": "right"
    },
    {
      "midi": 48,
      "time": 116.591,
      "duration": 0.273,
      "velocity": 0.71,
      "hand": "left"
    },
    {
      "midi": 63,
      "time": 116.591,
      "duration": 0.273,
      "velocity": 0.71,
      "hand": "right"
    },
    {
      "midi": 68,
      "time": 116.727,
      "duration": 0.136,
      "velocity": 0.71,
      "hand": "right"
    },
    {
      "midi": 46,
      "time": 116.864,
      "duration": 0.273,
      "velocity": 0.71,
      "hand": "left"
    },
    {
      "midi": 67,
      "time": 116.864,
      "duration": 0.273,
      "velocity": 0.71,
      "hand": "right"
    },
    {
      "midi": 73,
      "time": 116.864,
      "duration": 0.545,
      "velocity": 0.71,
      "hand": "right"
    },
    {
      "midi": 44,
      "time": 117.136,
      "duration": 0.273,
      "velocity": 0.71,
      "hand": "left"
    },
    {
      "midi": 68,
      "time": 117.136,
      "duration": 0.273,
      "velocity": 0.71,
      "hand": "right"
    },
    {
      "midi": 43,
      "time": 117.409,
      "duration": 0.273,
      "velocity": 0.71,
      "hand": "left"
    },
    {
      "midi": 70,
      "time": 117.409,
      "duration": 0.273,
      "velocity": 0.71,
      "hand": "right"
    },
    {
      "midi": 73,
      "time": 117.409,
      "duration": 0.545,
      "velocity": 0.71,
      "hand": "right"
    },
    {
      "midi": 46,
      "time": 117.682,
      "duration": 0.273,
      "velocity": 0.71,
      "hand": "left"
    },
    {
      "midi": 67,
      "time": 117.682,
      "duration": 0.273,
      "velocity": 0.71,
      "hand": "right"
    },
    {
      "midi": 44,
      "time": 117.955,
      "duration": 0.273,
      "velocity": 0.71,
      "hand": "left"
    },
    {
      "midi": 63,
      "time": 117.955,
      "duration": 0.545,
      "velocity": 0.71,
      "hand": "right"
    },
    {
      "midi": 72,
      "time": 117.955,
      "duration": 0.545,
      "velocity": 0.71,
      "hand": "right"
    },
    {
      "midi": 46,
      "time": 118.227,
      "duration": 0.273,
      "velocity": 0.71,
      "hand": "left"
    },
    {
      "midi": 48,
      "time": 118.5,
      "duration": 0.273,
      "velocity": 0.71,
      "hand": "left"
    },
    {
      "midi": 68,
      "time": 118.5,
      "duration": 0.545,
      "velocity": 0.71,
      "hand": "right"
    },
    {
      "midi": 44,
      "time": 118.773,
      "duration": 0.273,
      "velocity": 0.71,
      "hand": "left"
    },
    {
      "midi": 75,
      "time": 118.909,
      "duration": 0.136,
      "velocity": 0.71,
      "hand": "right"
    },
    {
      "midi": 41,
      "time": 119.045,
      "duration": 0.273,
      "velocity": 0.71,
      "hand": "left"
    },
    {
      "midi": 72,
      "time": 119.045,
      "duration": 1.091,
      "velocity": 0.71,
      "hand": "right"
    },
    {
      "midi": 80,
      "time": 119.045,
      "duration": 0.273,
      "velocity": 0.71,
      "hand": "right"
    },
    {
      "midi": 43,
      "time": 119.318,
      "duration": 0.273,
      "velocity": 0.71,
      "hand": "left"
    },
    {
      "midi": 79,
      "time": 119.318,
      "duration": 0.273,
      "velocity": 0.71,
      "hand": "right"
    },
    {
      "midi": 44,
      "time": 119.591,
      "duration": 0.273,
      "velocity": 0.71,
      "hand": "left"
    },
    {
      "midi": 77,
      "time": 119.591,
      "duration": 0.273,
      "velocity": 0.71,
      "hand": "right"
    },
    {
      "midi": 45,
      "time": 119.864,
      "duration": 0.273,
      "velocity": 0.71,
      "hand": "left"
    },
    {
      "midi": 75,
      "time": 119.864,
      "duration": 0.273,
      "velocity": 0.71,
      "hand": "right"
    },
    {
      "midi": 46,
      "time": 120.136,
      "duration": 5.727,
      "velocity": 0.71,
      "hand": "left"
    },
    {
      "midi": 65,
      "time": 120.136,
      "duration": 0.545,
      "velocity": 0.71,
      "hand": "right"
    },
    {
      "midi": 74,
      "time": 120.136,
      "duration": 0.273,
      "velocity": 0.71,
      "hand": "right"
    },
    {
      "midi": 72,
      "time": 120.409,
      "duration": 0.273,
      "velocity": 0.71,
      "hand": "right"
    },
    {
      "midi": 62,
      "time": 120.682,
      "duration": 0.545,
      "velocity": 0.71,
      "hand": "right"
    },
    {
      "midi": 70,
      "time": 120.682,
      "duration": 0.273,
      "velocity": 0.71,
      "hand": "right"
    },
    {
      "midi": 68,
      "time": 120.955,
      "duration": 0.273,
      "velocity": 0.71,
      "hand": "right"
    },
    {
      "midi": 63,
      "time": 121.227,
      "duration": 0.545,
      "velocity": 0.71,
      "hand": "right"
    },
    {
      "midi": 67,
      "time": 121.227,
      "duration": 0.273,
      "velocity": 0.71,
      "hand": "right"
    },
    {
      "midi": 65,
      "time": 121.5,
      "duration": 0.273,
      "velocity": 0.71,
      "hand": "right"
    },
    {
      "midi": 55,
      "time": 121.773,
      "duration": 0.545,
      "velocity": 0.71,
      "hand": "left"
    },
    {
      "midi": 63,
      "time": 121.773,
      "duration": 0.273,
      "velocity": 0.71,
      "hand": "right"
    },
    {
      "midi": 62,
      "time": 122.045,
      "duration": 0.273,
      "velocity": 0.71,
      "hand": "right"
    },
    {
      "midi": 56,
      "time": 122.318,
      "duration": 0.273,
      "velocity": 0.71,
      "hand": "left"
    },
    {
      "midi": 60,
      "time": 122.318,
      "duration": 0.273,
      "velocity": 0.71,
      "hand": "right"
    },
    {
      "midi": 60,
      "time": 122.591,
      "duration": 0.273,
      "velocity": 0.71,
      "hand": "right"
    },
    {
      "midi": 58,
      "time": 122.864,
      "duration": 0.273,
      "velocity": 0.71,
      "hand": "left"
    },
    {
      "midi": 62,
      "time": 122.864,
      "duration": 0.545,
      "velocity": 0.71,
      "hand": "right"
    },
    {
      "midi": 56,
      "time": 123.136,
      "duration": 0.273,
      "velocity": 0.71,
      "hand": "left"
    },
    {
      "midi": 55,
      "time": 123.409,
      "duration": 0.273,
      "velocity": 0.71,
      "hand": "left"
    },
    {
      "midi": 63,
      "time": 123.409,
      "duration": 0.545,
      "velocity": 0.71,
      "hand": "right"
    },
    {
      "midi": 58,
      "time": 123.682,
      "duration": 0.273,
      "velocity": 0.71,
      "hand": "left"
    },
    {
      "midi": 60,
      "time": 123.955,
      "duration": 0.273,
      "velocity": 0.71,
      "hand": "right"
    },
    {
      "midi": 62,
      "time": 124.227,
      "duration": 0.273,
      "velocity": 0.71,
      "hand": "right"
    },
    {
      "midi": 65,
      "time": 124.364,
      "duration": 0.136,
      "velocity": 0.71,
      "hand": "right"
    },
    {
      "midi": 63,
      "time": 124.5,
      "duration": 0.273,
      "velocity": 0.71,
      "hand": "right"
    },
    {
      "midi": 67,
      "time": 124.5,
      "duration": 0.273,
      "velocity": 0.71,
      "hand": "right"
    },
    {
      "midi": 67,
      "time": 124.773,
      "duration": 0.273,
      "velocity": 0.71,
      "hand": "right"
    },
    {
      "midi": 65,
      "time": 125.045,
      "duration": 0.273,
      "velocity": 0.71,
      "hand": "right"
    },
    {
      "midi": 69,
      "time": 125.045,
      "duration": 0.545,
      "velocity": 0.71,
      "hand": "right"
    },
    {
      "midi": 63,
      "time": 125.318,
      "duration": 0.273,
      "velocity": 0.71,
      "hand": "right"
    },
    {
      "midi": 62,
      "time": 125.591,
      "duration": 0.545,
      "velocity": 0.71,
      "hand": "right"
    },
    {
      "midi": 70,
      "time": 125.591,
      "duration": 0.545,
      "velocity": 0.71,
      "hand": "right"
    },
    {
      "midi": 50,
      "time": 125.864,
      "duration": 0.273,
      "velocity": 0.71,
      "hand": "left"
    },
    {
      "midi": 53,
      "time": 126.136,
      "duration": 0.273,
      "velocity": 0.71,
      "hand": "left"
    },
    {
      "midi": 55,
      "time": 126.409,
      "duration": 0.273,
      "velocity": 0.71,
      "hand": "left"
    },
    {
      "midi": 63,
      "time": 126.545,
      "duration": 0.136,
      "velocity": 0.71,
      "hand": "right"
    },
    {
      "midi": 70,
      "time": 126.545,
      "duration": 0.136,
      "velocity": 0.71,
      "hand": "right"
    },
    {
      "midi": 56,
      "time": 126.682,
      "duration": 0.273,
      "velocity": 0.71,
      "hand": "left"
    },
    {
      "midi": 63,
      "time": 126.682,
      "duration": 0.273,
      "velocity": 0.71,
      "hand": "right"
    },
    {
      "midi": 72,
      "time": 126.682,
      "duration": 0.545,
      "velocity": 0.71,
      "hand": "right"
    },
    {
      "midi": 60,
      "time": 126.955,
      "duration": 0.273,
      "velocity": 0.71,
      "hand": "right"
    },
    {
      "midi": 68,
      "time": 126.955,
      "duration": 0.273,
      "velocity": 0.71,
      "hand": "right"
    },
    {
      "midi": 58,
      "time": 127.227,
      "duration": 0.273,
      "velocity": 0.71,
      "hand": "left"
    },
    {
      "midi": 67,
      "time": 127.227,
      "duration": 0.273,
      "velocity": 0.71,
      "hand": "right"
    },
    {
      "midi": 74,
      "time": 127.227,
      "duration": 0.545,
      "velocity": 0.71,
      "hand": "right"
    },
    {
      "midi": 56,
      "time": 127.5,
      "duration": 0.273,
      "velocity": 0.71,
      "hand": "left"
    },
    {
      "midi": 65,
      "time": 127.5,
      "duration": 0.273,
      "velocity": 0.71,
      "hand": "right"
    },
    {
      "midi": 55,
      "time": 127.773,
      "duration": 0.545,
      "velocity": 0.71,
      "hand": "left"
    },
    {
      "midi": 70,
      "time": 127.773,
      "duration": 0.545,
      "velocity": 0.71,
      "hand": "right"
    },
    {
      "midi": 75,
      "time": 127.773,
      "duration": 0.545,
      "velocity": 0.71,
      "hand": "right"
    },
    {
      "midi": 43,
      "time": 128.727,
      "duration": 0.136,
      "velocity": 0.71,
      "hand": "left"
    },
    {
      "midi": 58,
      "time": 128.727,
      "duration": 0.136,
      "velocity": 0.71,
      "hand": "left"
    },
    {
      "midi": 63,
      "time": 128.727,
      "duration": 0.136,
      "velocity": 0.71,
      "hand": "right"
    },
    {
      "midi": 44,
      "time": 128.864,
      "duration": 0.545,
      "velocity": 0.71,
      "hand": "left"
    },
    {
      "midi": 60,
      "time": 128.864,
      "duration": 0.545,
      "velocity": 0.71,
      "hand": "right"
    },
    {
      "midi": 65,
      "time": 128.864,
      "duration": 0.545,
      "velocity": 0.71,
      "hand": "right"
    },
    {
      "midi": 41,
      "time": 129.409,
      "duration": 0.545,
      "velocity": 0.71,
      "hand": "left"
    },
    {
      "midi": 65,
      "time": 129.409,
      "duration": 0.818,
      "velocity": 0.71,
      "hand": "right"
    },
    {
      "midi": 68,
      "time": 129.409,
      "duration": 0.545,
      "velocity": 0.71,
      "hand": "right"
    },
    {
      "midi": 46,
      "time": 129.955,
      "duration": 1.091,
      "velocity": 0.71,
      "hand": "left"
    },
    {
      "midi": 67,
      "time": 129.955,
      "duration": 0.545,
      "velocity": 0.71,
      "hand": "right"
    },
    {
      "midi": 63,
      "time": 130.227,
      "duration": 0.545,
      "velocity": 0.71,
      "hand": "right"
    },
    {
      "midi": 65,
      "time": 130.5,
      "duration": 0.545,
      "velocity": 0.71,
      "hand": "right"
    },
    {
      "midi": 62,
      "time": 130.773,
      "duration": 0.273,
      "velocity": 0.71,
      "hand": "right"
    },
    {
      "midi": 39,
      "time": 131.045,
      "duration": 8.455,
      "velocity": 0.71,
      "hand": "left"
    },
    {
      "midi": 63,
      "time": 131.045,
      "duration": 0.545,
      "velocity": 0.71,
      "hand": "right"
    },
    {
      "midi": 55,
      "time": 131.318,
      "duration": 0.273,
      "velocity": 0.71,
      "hand": "left"
    },
    {
      "midi": 58,
      "time": 131.591,
      "duration": 0.273,
      "velocity": 0.71,
      "hand": "left"
    },
    {
      "midi": 61,
      "time": 131.864,
      "duration": 0.273,
      "velocity": 0.71,
      "hand": "right"
    },
    {
      "midi": 63,
      "time": 132,
      "duration": 0.136,
      "velocity": 0.71,
      "hand": "right"
    },
    {
      "midi": 60,
      "time": 132.136,
      "duration": 0.273,
      "velocity": 0.71,
      "hand": "right"
    },
    {
      "midi": 68,
      "time": 132.136,
      "duration": 0.545,
      "velocity": 0.71,
      "hand": "right"
    },
    {
      "midi": 58,
      "time": 132.409,
      "duration": 0.273,
      "velocity": 0.71,
      "hand": "left"
    },
    {
      "midi": 60,
      "time": 132.682,
      "duration": 0.273,
      "velocity": 0.71,
      "hand": "right"
    },
    {
      "midi": 68,
      "time": 132.682,
      "duration": 0.545,
      "velocity": 0.71,
      "hand": "right"
    },
    {
      "midi": 62,
      "time": 132.955,
      "duration": 0.273,
      "velocity": 0.71,
      "hand": "right"
    },
    {
      "midi": 63,
      "time": 133.227,
      "duration": 0.273,
      "velocity": 0.71,
      "hand": "right"
    },
    {
      "midi": 67,
      "time": 133.227,
      "duration": 0.545,
      "velocity": 0.71,
      "hand": "right"
    },
    {
      "midi": 58,
      "time": 133.5,
      "duration": 0.273,
      "velocity": 0.71,
      "hand": "left"
    },
    {
      "midi": 61,
      "time": 133.773,
      "duration": 0.273,
      "velocity": 0.71,
      "hand": "right"
    },
    {
      "midi": 60,
      "time": 134.045,
      "duration": 0.273,
      "velocity": 0.71,
      "hand": "right"
    },
    {
      "midi": 68,
      "time": 134.182,
      "duration": 0.136,
      "velocity": 0.71,
      "hand": "right"
    },
    {
      "midi": 58,
      "time": 134.318,
      "duration": 0.273,
      "velocity": 0.71,
      "hand": "left"
    },
    {
      "midi": 73,
      "time": 134.318,
      "duration": 0.545,
      "velocity": 0.71,
      "hand": "right"
    },
    {
      "midi": 63,
      "time": 134.591,
      "duration": 0.273,
      "velocity": 0.71,
      "hand": "right"
    },
    {
      "midi": 65,
      "time": 134.864,
      "duration": 0.273,
      "velocity": 0.71,
      "hand": "right"
    },
    {
      "midi": 73,
      "time": 134.864,
      "duration": 0.545,
      "velocity": 0.71,
      "hand": "right"
    },
    {
      "midi": 67,
      "time": 135.136,
      "duration": 0.273,
      "velocity": 0.71,
      "hand": "right"
    },
    {
      "midi": 68,
      "time": 135.409,
      "duration": 0.273,
      "velocity": 0.71,
      "hand": "right"
    },
    {
      "midi": 72,
      "time": 135.409,
      "duration": 0.545,
      "velocity": 0.71,
      "hand": "right"
    },
    {
      "midi": 67,
      "time": 135.682,
      "duration": 0.273,
      "velocity": 0.71,
      "hand": "right"
    },
    {
      "midi": 68,
      "time": 135.955,
      "duration": 0.273,
      "velocity": 0.71,
      "hand": "right"
    },
    {
      "midi": 70,
      "time": 136.227,
      "duration": 0.273,
      "velocity": 0.71,
      "hand": "right"
    },
    {
      "midi": 75,
      "time": 136.364,
      "duration": 0.136,
      "velocity": 0.71,
      "hand": "right"
    },
    {
      "midi": 72,
      "time": 136.5,
      "duration": 0.545,
      "velocity": 0.71,
      "hand": "right"
    },
    {
      "midi": 80,
      "time": 136.5,
      "duration": 0.273,
      "velocity": 0.71,
      "hand": "right"
    },
    {
      "midi": 79,
      "time": 136.773,
      "duration": 0.273,
      "velocity": 0.71,
      "hand": "right"
    },
    {
      "midi": 68,
      "time": 137.045,
      "duration": 0.545,
      "velocity": 0.71,
      "hand": "right"
    },
    {
      "midi": 77,
      "time": 137.045,
      "duration": 0.273,
      "velocity": 0.71,
      "hand": "right"
    },
    {
      "midi": 75,
      "time": 137.318,
      "duration": 0.273,
      "velocity": 0.71,
      "hand": "right"
    },
    {
      "midi": 65,
      "time": 137.591,
      "duration": 0.273,
      "velocity": 0.71,
      "hand": "right"
    },
    {
      "midi": 74,
      "time": 137.591,
      "duration": 0.273,
      "velocity": 0.71,
      "hand": "right"
    },
    {
      "midi": 68,
      "time": 137.864,
      "duration": 0.273,
      "velocity": 0.71,
      "hand": "right"
    },
    {
      "midi": 72,
      "time": 137.864,
      "duration": 0.273,
      "velocity": 0.71,
      "hand": "right"
    },
    {
      "midi": 62,
      "time": 138.136,
      "duration": 0.273,
      "velocity": 0.71,
      "hand": "right"
    },
    {
      "midi": 70,
      "time": 138.136,
      "duration": 0.273,
      "velocity": 0.71,
      "hand": "right"
    },
    {
      "midi": 65,
      "time": 138.409,
      "duration": 0.273,
      "velocity": 0.71,
      "hand": "right"
    },
    {
      "midi": 68,
      "time": 138.409,
      "duration": 0.273,
      "velocity": 0.71,
      "hand": "right"
    },
    {
      "midi": 63,
      "time": 138.682,
      "duration": 0.273,
      "velocity": 0.71,
      "hand": "right"
    },
    {
      "midi": 67,
      "time": 138.682,
      "duration": 0.273,
      "velocity": 0.71,
      "hand": "right"
    },
    {
      "midi": 58,
      "time": 138.955,
      "duration": 0.273,
      "velocity": 0.71,
      "hand": "left"
    },
    {
      "midi": 65,
      "time": 138.955,
      "duration": 0.273,
      "velocity": 0.71,
      "hand": "right"
    },
    {
      "midi": 55,
      "time": 139.227,
      "duration": 0.273,
      "velocity": 0.71,
      "hand": "left"
    },
    {
      "midi": 63,
      "time": 139.227,
      "duration": 0.273,
      "velocity": 0.71,
      "hand": "right"
    },
    {
      "midi": 43,
      "time": 139.5,
      "duration": 0.273,
      "velocity": 0.71,
      "hand": "left"
    },
    {
      "midi": 58,
      "time": 139.5,
      "duration": 0.273,
      "velocity": 0.71,
      "hand": "left"
    },
    {
      "midi": 62,
      "time": 139.5,
      "duration": 0.273,
      "velocity": 0.71,
      "hand": "right"
    },
    {
      "midi": 44,
      "time": 139.773,
      "duration": 0.545,
      "velocity": 0.71,
      "hand": "left"
    },
    {
      "midi": 56,
      "time": 139.773,
      "duration": 0.545,
      "velocity": 0.71,
      "hand": "left"
    },
    {
      "midi": 60,
      "time": 139.773,
      "duration": 0.545,
      "velocity": 0.71,
      "hand": "right"
    },
    {
      "midi": 68,
      "time": 140.318,
      "duration": 0.545,
      "velocity": 0.71,
      "hand": "right"
    },
    {
      "midi": 72,
      "time": 140.318,
      "duration": 0.545,
      "velocity": 0.71,
      "hand": "right"
    },
    {
      "midi": 46,
      "time": 140.864,
      "duration": 1.091,
      "velocity": 0.71,
      "hand": "left"
    },
    {
      "midi": 56,
      "time": 141.409,
      "duration": 0.545,
      "velocity": 0.71,
      "hand": "left"
    },
    {
      "midi": 62,
      "time": 141.409,
      "duration": 0.545,
      "velocity": 0.71,
      "hand": "right"
    },
    {
      "midi": 39,
      "time": 141.955,
      "duration": 2.182,
      "velocity": 0.71,
      "hand": "left"
    },
    {
      "midi": 56,
      "time": 141.955,
      "duration": 1.091,
      "velocity": 0.71,
      "hand": "left"
    },
    {
      "midi": 62,
      "time": 141.955,
      "duration": 1.091,
      "velocity": 0.71,
      "hand": "right"
    },
    {
      "midi": 55,
      "time": 143.045,
      "duration": 1.091,
      "velocity": 0.71,
      "hand": "left"
    },
    {
      "midi": 63,
      "time": 143.045,
      "duration": 1.091,
      "velocity": 0.71,
      "hand": "right"
    }
  ],
  "arrangements": {
    "easy": [
      {
        "midi": 63,
        "time": 4.5,
        "duration": 0.273,
        "velocity": 0.71,
        "hand": "right"
      },
      {
        "midi": 62,
        "time": 4.773,
        "duration": 0.273,
        "velocity": 0.71,
        "hand": "right"
      },
      {
        "midi": 63,
        "time": 11.045,
        "duration": 0.545,
        "velocity": 0.71,
        "hand": "right"
      },
      {
        "midi": 63,
        "time": 11.591,
        "duration": 0.545,
        "velocity": 0.71,
        "hand": "right"
      },
      {
        "midi": 62,
        "time": 12.136,
        "duration": 0.545,
        "velocity": 0.71,
        "hand": "right"
      },
      {
        "midi": 65,
        "time": 13.091,
        "duration": 0.273,
        "velocity": 0.71,
        "hand": "right"
      },
      {
        "midi": 69,
        "time": 13.5,
        "duration": 0.273,
        "velocity": 0.71,
        "hand": "right"
      },
      {
        "midi": 67,
        "time": 13.773,
        "duration": 0.273,
        "velocity": 0.71,
        "hand": "right"
      },
      {
        "midi": 63,
        "time": 14.318,
        "duration": 0.273,
        "velocity": 0.71,
        "hand": "right"
      },
      {
        "midi": 62,
        "time": 14.591,
        "duration": 0.273,
        "velocity": 0.71,
        "hand": "right"
      },
      {
        "midi": 60,
        "time": 14.864,
        "duration": 0.273,
        "velocity": 0.71,
        "hand": "right"
      },
      {
        "midi": 60,
        "time": 18.136,
        "duration": 0.818,
        "velocity": 0.71,
        "hand": "right"
      },
      {
        "midi": 63,
        "time": 19.773,
        "duration": 0.545,
        "velocity": 0.71,
        "hand": "right"
      },
      {
        "midi": 63,
        "time": 20.318,
        "duration": 0.545,
        "velocity": 0.71,
        "hand": "right"
      },
      {
        "midi": 62,
        "time": 20.864,
        "duration": 0.545,
        "velocity": 0.71,
        "hand": "right"
      },
      {
        "midi": 63,
        "time": 21.818,
        "duration": 0.273,
        "velocity": 0.71,
        "hand": "right"
      },
      {
        "midi": 63,
        "time": 22.227,
        "duration": 0.273,
        "velocity": 0.71,
        "hand": "right"
      },
      {
        "midi": 68,
        "time": 22.5,
        "duration": 0.545,
        "velocity": 0.71,
        "hand": "right"
      },
      {
        "midi": 62,
        "time": 22.773,
        "duration": 0.273,
        "velocity": 0.71,
        "hand": "right"
      },
      {
        "midi": 63,
        "time": 23.591,
        "duration": 0.273,
        "velocity": 0.71,
        "hand": "right"
      },
      {
        "midi": 62,
        "time": 23.864,
        "duration": 0.273,
        "velocity": 0.71,
        "hand": "right"
      },
      {
        "midi": 74,
        "time": 24.409,
        "duration": 0.273,
        "velocity": 0.71,
        "hand": "right"
      },
      {
        "midi": 72,
        "time": 24.682,
        "duration": 0.273,
        "velocity": 0.71,
        "hand": "right"
      },
      {
        "midi": 70,
        "time": 24.955,
        "duration": 0.273,
        "velocity": 0.71,
        "hand": "right"
      },
      {
        "midi": 67,
        "time": 25.5,
        "duration": 0.273,
        "velocity": 0.71,
        "hand": "right"
      },
      {
        "midi": 65,
        "time": 25.773,
        "duration": 0.273,
        "velocity": 0.71,
        "hand": "right"
      },
      {
        "midi": 62,
        "time": 26.318,
        "duration": 0.273,
        "velocity": 0.71,
        "hand": "right"
      },
      {
        "midi": 60,
        "time": 26.591,
        "duration": 0.273,
        "velocity": 0.71,
        "hand": "right"
      },
      {
        "midi": 63,
        "time": 27.955,
        "duration": 0.273,
        "velocity": 0.71,
        "hand": "right"
      },
      {
        "midi": 68,
        "time": 28.5,
        "duration": 0.273,
        "velocity": 0.71,
        "hand": "right"
      },
      {
        "midi": 72,
        "time": 28.773,
        "duration": 0.273,
        "velocity": 0.71,
        "hand": "right"
      },
      {
        "midi": 68,
        "time": 29.318,
        "duration": 0.273,
        "velocity": 0.71,
        "hand": "right"
      },
      {
        "midi": 67,
        "time": 29.591,
        "duration": 0.273,
        "velocity": 0.71,
        "hand": "right"
      },
      {
        "midi": 69,
        "time": 29.864,
        "duration": 0.273,
        "velocity": 0.71,
        "hand": "right"
      },
      {
        "midi": 74,
        "time": 30.409,
        "duration": 0.273,
        "velocity": 0.71,
        "hand": "right"
      },
      {
        "midi": 75,
        "time": 30.682,
        "duration": 0.273,
        "velocity": 0.71,
        "hand": "right"
      },
      {
        "midi": 79,
        "time": 30.955,
        "duration": 0.273,
        "velocity": 0.71,
        "hand": "right"
      },
      {
        "midi": 75,
        "time": 31.5,
        "duration": 0.273,
        "velocity": 0.71,
        "hand": "right"
      },
      {
        "midi": 74,
        "time": 31.773,
        "duration": 0.545,
        "velocity": 0.71,
        "hand": "right"
      },
      {
        "midi": 65,
        "time": 32.318,
        "duration": 0.273,
        "velocity": 0.71,
        "hand": "right"
      },
      {
        "midi": 67,
        "time": 32.591,
        "duration": 0.273,
        "velocity": 0.71,
        "hand": "right"
      },
      {
        "midi": 84,
        "time": 32.864,
        "duration": 0.545,
        "velocity": 0.71,
        "hand": "right"
      },
      {
        "midi": 74,
        "time": 33.409,
        "duration": 0.545,
        "velocity": 0.71,
        "hand": "right"
      },
      {
        "midi": 68,
        "time": 33.682,
        "duration": 0.273,
        "velocity": 0.71,
        "hand": "right"
      },
      {
        "midi": 75,
        "time": 33.955,
        "duration": 0.273,
        "velocity": 0.71,
        "hand": "right"
      },
      {
        "midi": 72,
        "time": 34.5,
        "duration": 0.273,
        "velocity": 0.71,
        "hand": "right"
      },
      {
        "midi": 69,
        "time": 34.773,
        "duration": 0.273,
        "velocity": 0.71,
        "hand": "right"
      },
      {
        "midi": 77,
        "time": 35.318,
        "duration": 0.273,
        "velocity": 0.71,
        "hand": "right"
      },
      {
        "midi": 80,
        "time": 35.591,
        "duration": 0.273,
        "velocity": 0.71,
        "hand": "right"
      },
      {
        "midi": 79,
        "time": 35.864,
        "duration": 0.273,
        "velocity": 0.71,
        "hand": "right"
      },
      {
        "midi": 75,
        "time": 36.409,
        "duration": 0.273,
        "velocity": 0.71,
        "hand": "right"
      },
      {
        "midi": 74,
        "time": 36.682,
        "duration": 0.273,
        "velocity": 0.71,
        "hand": "right"
      },
      {
        "midi": 77,
        "time": 36.955,
        "duration": 0.273,
        "velocity": 0.71,
        "hand": "right"
      },
      {
        "midi": 82,
        "time": 37.5,
        "duration": 0.273,
        "velocity": 0.71,
        "hand": "right"
      },
      {
        "midi": 87,
        "time": 37.773,
        "duration": 0.273,
        "velocity": 0.71,
        "hand": "right"
      },
      {
        "midi": 84,
        "time": 38.318,
        "duration": 0.273,
        "velocity": 0.71,
        "hand": "right"
      },
      {
        "midi": 82,
        "time": 38.591,
        "duration": 0.273,
        "velocity": 0.71,
        "hand": "right"
      },
      {
        "midi": 80,
        "time": 38.864,
        "duration": 0.273,
        "velocity": 0.71,
        "hand": "right"
      },
      {
        "midi": 77,
        "time": 39.409,
        "duration": 0.273,
        "velocity": 0.71,
        "hand": "right"
      },
      {
        "midi": 75,
        "time": 39.682,
        "duration": 0.273,
        "velocity": 0.71,
        "hand": "right"
      },
      {
        "midi": 74,
        "time": 39.955,
        "duration": 0.273,
        "velocity": 0.71,
        "hand": "right"
      },
      {
        "midi": 70,
        "time": 40.5,
        "duration": 0.273,
        "velocity": 0.71,
        "hand": "right"
      },
      {
        "midi": 68,
        "time": 40.773,
        "duration": 0.273,
        "velocity": 0.71,
        "hand": "right"
      },
      {
        "midi": 65,
        "time": 41.318,
        "duration": 0.273,
        "velocity": 0.71,
        "hand": "right"
      },
      {
        "midi": 63,
        "time": 41.591,
        "duration": 0.545,
        "velocity": 0.71,
        "hand": "right"
      },
      {
        "midi": 70,
        "time": 42.545,
        "duration": 0.273,
        "velocity": 0.71,
        "hand": "right"
      },
      {
        "midi": 60,
        "time": 42.955,
        "duration": 0.273,
        "velocity": 0.71,
        "hand": "right"
      },
      {
        "midi": 67,
        "time": 43.773,
        "duration": 0.545,
        "velocity": 0.71,
        "hand": "right"
      },
      {
        "midi": 72,
        "time": 44.727,
        "duration": 0.273,
        "velocity": 0.71,
        "hand": "right"
      },
      {
        "midi": 61,
        "time": 45.136,
        "duration": 0.273,
        "velocity": 0.71,
        "hand": "right"
      },
      {
        "midi": 67,
        "time": 45.409,
        "duration": 0.545,
        "velocity": 0.71,
        "hand": "right"
      },
      {
        "midi": 68,
        "time": 45.955,
        "duration": 0.545,
        "velocity": 0.71,
        "hand": "right"
      },
      {
        "midi": 74,
        "time": 46.909,
        "duration": 0.273,
        "velocity": 0.71,
        "hand": "right"
      },
      {
        "midi": 63,
        "time": 47.318,
        "duration": 0.273,
        "velocity": 0.71,
        "hand": "right"
      },
      {
        "midi": 69,
        "time": 47.591,
        "duration": 0.545,
        "velocity": 0.71,
        "hand": "right"
      },
      {
        "midi": 60,
        "time": 47.864,
        "duration": 0.273,
        "velocity": 0.71,
        "hand": "right"
      },
      {
        "midi": 67,
        "time": 48.409,
        "duration": 0.273,
        "velocity": 0.71,
        "hand": "right"
      },
      {
        "midi": 71,
        "time": 48.682,
        "duration": 0.273,
        "velocity": 0.71,
        "hand": "right"
      },
      {
        "midi": 74,
        "time": 48.955,
        "duration": 0.273,
        "velocity": 0.71,
        "hand": "right"
      },
      {
        "midi": 80,
        "time": 49.5,
        "duration": 0.273,
        "velocity": 0.71,
        "hand": "right"
      },
      {
        "midi": 79,
        "time": 49.773,
        "duration": 0.273,
        "velocity": 0.71,
        "hand": "right"
      },
      {
        "midi": 77,
        "time": 50.318,
        "duration": 0.545,
        "velocity": 0.71,
        "hand": "right"
      },
      {
        "midi": 75,
        "time": 50.864,
        "duration": 0.545,
        "velocity": 0.71,
        "hand": "right"
      },
      {
        "midi": 74,
        "time": 51.409,
        "duration": 0.273,
        "velocity": 0.71,
        "hand": "right"
      },
      {
        "midi": 65,
        "time": 51.682,
        "duration": 0.273,
        "velocity": 0.71,
        "hand": "right"
      },
      {
        "midi": 68,
        "time": 51.955,
        "duration": 1.091,
        "velocity": 0.71,
        "hand": "right"
      },
      {
        "midi": 60,
        "time": 52.364,
        "duration": 0.273,
        "velocity": 0.71,
        "hand": "right"
      },
      {
        "midi": 67,
        "time": 53.045,
        "duration": 0.818,
        "velocity": 0.71,
        "hand": "right"
      },
      {
        "midi": 63,
        "time": 53.591,
        "duration": 0.545,
        "velocity": 0.71,
        "hand": "right"
      },
      {
        "midi": 79,
        "time": 53.864,
        "duration": 0.273,
        "velocity": 0.71,
        "hand": "right"
      },
      {
        "midi": 82,
        "time": 54.409,
        "duration": 0.273,
        "velocity": 0.71,
        "hand": "right"
      },
      {
        "midi": 80,
        "time": 54.682,
        "duration": 0.273,
        "velocity": 0.71,
        "hand": "right"
      },
      {
        "midi": 79,
        "time": 54.955,
        "duration": 0.273,
        "velocity": 0.71,
        "hand": "right"
      },
      {
        "midi": 75,
        "time": 55.5,
        "duration": 0.273,
        "velocity": 0.71,
        "hand": "right"
      },
      {
        "midi": 74,
        "time": 55.773,
        "duration": 0.273,
        "velocity": 0.71,
        "hand": "right"
      },
      {
        "midi": 71,
        "time": 56.318,
        "duration": 0.273,
        "velocity": 0.71,
        "hand": "right"
      },
      {
        "midi": 68,
        "time": 56.591,
        "duration": 0.273,
        "velocity": 0.71,
        "hand": "right"
      },
      {
        "midi": 67,
        "time": 56.864,
        "duration": 0.273,
        "velocity": 0.71,
        "hand": "right"
      },
      {
        "midi": 63,
        "time": 57.409,
        "duration": 0.273,
        "velocity": 0.71,
        "hand": "right"
      },
      {
        "midi": 62,
        "time": 57.682,
        "duration": 0.273,
        "velocity": 0.71,
        "hand": "right"
      },
      {
        "midi": 60,
        "time": 57.955,
        "duration": 1.091,
        "velocity": 0.71,
        "hand": "right"
      },
      {
        "midi": 60,
        "time": 60,
        "duration": 0.273,
        "velocity": 0.71,
        "hand": "right"
      },
      {
        "midi": 62,
        "time": 60.409,
        "duration": 0.273,
        "velocity": 0.71,
        "hand": "right"
      },
      {
        "midi": 67,
        "time": 60.682,
        "duration": 0.545,
        "velocity": 0.71,
        "hand": "right"
      },
      {
        "midi": 60,
        "time": 60.955,
        "duration": 0.273,
        "velocity": 0.71,
        "hand": "right"
      },
      {
        "midi": 60,
        "time": 61.773,
        "duration": 0.273,
        "velocity": 0.71,
        "hand": "right"
      },
      {
        "midi": 67,
        "time": 62.182,
        "duration": 0.273,
        "velocity": 0.71,
        "hand": "right"
      },
      {
        "midi": 67,
        "time": 62.591,
        "duration": 0.273,
        "velocity": 0.71,
        "hand": "right"
      },
      {
        "midi": 72,
        "time": 62.864,
        "duration": 0.545,
        "velocity": 0.71,
        "hand": "right"
      },
      {
        "midi": 70,
        "time": 63.409,
        "duration": 0.545,
        "velocity": 0.71,
        "hand": "right"
      },
      {
        "midi": 62,
        "time": 63.682,
        "duration": 0.273,
        "velocity": 0.71,
        "hand": "right"
      },
      {
        "midi": 67,
        "time": 63.955,
        "duration": 0.273,
        "velocity": 0.71,
        "hand": "right"
      },
      {
        "midi": 74,
        "time": 64.364,
        "duration": 0.273,
        "velocity": 0.71,
        "hand": "right"
      },
      {
        "midi": 77,
        "time": 64.773,
        "duration": 0.273,
        "velocity": 0.71,
        "hand": "right"
      },
      {
        "midi": 74,
        "time": 65.318,
        "duration": 0.273,
        "velocity": 0.71,
        "hand": "right"
      },
      {
        "midi": 72,
        "time": 65.591,
        "duration": 0.273,
        "velocity": 0.71,
        "hand": "right"
      },
      {
        "midi": 70,
        "time": 65.864,
        "duration": 0.273,
        "velocity": 0.71,
        "hand": "right"
      },
      {
        "midi": 67,
        "time": 66.409,
        "duration": 0.273,
        "velocity": 0.71,
        "hand": "right"
      },
      {
        "midi": 66,
        "time": 66.682,
        "duration": 0.273,
        "velocity": 0.71,
        "hand": "right"
      },
      {
        "midi": 63,
        "time": 66.955,
        "duration": 0.273,
        "velocity": 0.71,
        "hand": "right"
      },
      {
        "midi": 60,
        "time": 67.5,
        "duration": 0.273,
        "velocity": 0.71,
        "hand": "right"
      },
      {
        "midi": 62,
        "time": 68.045,
        "duration": 0.273,
        "velocity": 0.71,
        "hand": "right"
      },
      {
        "midi": 67,
        "time": 68.318,
        "duration": 0.273,
        "velocity": 0.71,
        "hand": "right"
      },
      {
        "midi": 70,
        "time": 68.591,
        "duration": 0.273,
        "velocity": 0.71,
        "hand": "right"
      },
      {
        "midi": 68,
        "time": 68.864,
        "duration": 0.273,
        "velocity": 0.71,
        "hand": "right"
      },
      {
        "midi": 70,
        "time": 69.409,
        "duration": 0.273,
        "velocity": 0.71,
        "hand": "right"
      },
      {
        "midi": 68,
        "time": 69.682,
        "duration": 0.273,
        "velocity": 0.71,
        "hand": "right"
      },
      {
        "midi": 67,
        "time": 69.955,
        "duration": 0.273,
        "velocity": 0.71,
        "hand": "right"
      },
      {
        "midi": 67,
        "time": 70.5,
        "duration": 0.273,
        "velocity": 0.71,
        "hand": "right"
      },
      {
        "midi": 69,
        "time": 70.773,
        "duration": 0.273,
        "velocity": 0.71,
        "hand": "right"
      },
      {
        "midi": 65,
        "time": 71.318,
        "duration": 0.273,
        "velocity": 0.71,
        "hand": "right"
      },
      {
        "midi": 68,
        "time": 71.591,
        "duration": 0.273,
        "velocity": 0.71,
        "hand": "right"
      },
      {
        "midi": 67,
        "time": 71.864,
        "duration": 0.273,
        "velocity": 0.71,
        "hand": "right"
      },
      {
        "midi": 63,
        "time": 72.409,
        "duration": 0.273,
        "velocity": 0.71,
        "hand": "right"
      },
      {
        "midi": 70,
        "time": 72.682,
        "duration": 0.818,
        "velocity": 0.71,
        "hand": "right"
      },
      {
        "midi": 65,
        "time": 72.955,
        "duration": 0.273,
        "velocity": 0.71,
        "hand": "right"
      },
      {
        "midi": 70,
        "time": 73.5,
        "duration": 0.273,
        "velocity": 0.71,
        "hand": "right"
      },
      {
        "midi": 79,
        "time": 73.773,
        "duration": 0.273,
        "velocity": 0.71,
        "hand": "right"
      },
      {
        "midi": 75,
        "time": 74.318,
        "duration": 1.091,
        "velocity": 0.71,
        "hand": "right"
      },
      {
        "midi": 70,
        "time": 74.591,
        "duration": 0.273,
        "velocity": 0.71,
        "hand": "right"
      },
      {
        "midi": 68,
        "time": 74.864,
        "duration": 0.273,
        "velocity": 0.71,
        "hand": "right"
      },
      {
        "midi": 77,
        "time": 75.409,
        "duration": 0.273,
        "velocity": 0.71,
        "hand": "right"
      },
      {
        "midi": 75,
        "time": 75.682,
        "duration": 0.273,
        "velocity": 0.71,
        "hand": "right"
      },
      {
        "midi": 74,
        "time": 75.955,
        "duration": 0.273,
        "velocity": 0.71,
        "hand": "right"
      },
      {
        "midi": 70,
        "time": 76.5,
        "duration": 0.545,
        "velocity": 0.71,
        "hand": "right"
      },
      {
        "midi": 74,
        "time": 77.045,
        "duration": 0.545,
        "velocity": 0.71,
        "hand": "right"
      },
      {
        "midi": 65,
        "time": 77.318,
        "duration": 0.273,
        "velocity": 0.71,
        "hand": "right"
      },
      {
        "midi": 75,
        "time": 77.591,
        "duration": 0.273,
        "velocity": 0.71,
        "hand": "right"
      },
      {
        "midi": 73,
        "time": 77.864,
        "duration": 0.273,
        "velocity": 0.71,
        "hand": "right"
      },
      {
        "midi": 70,
        "time": 78.409,
        "duration": 0.273,
        "velocity": 0.71,
        "hand": "right"
      },
      {
        "midi": 68,
        "time": 78.682,
        "duration": 0.545,
        "velocity": 0.71,
        "hand": "right"
      },
      {
        "midi": 70,
        "time": 79.227,
        "duration": 0.818,
        "velocity": 0.71,
        "hand": "right"
      },
      {
        "midi": 61,
        "time": 80.045,
        "duration": 0.273,
        "velocity": 0.71,
        "hand": "right"
      },
      {
        "midi": 65,
        "time": 80.318,
        "duration": 0.273,
        "velocity": 0.71,
        "hand": "right"
      },
      {
        "midi": 63,
        "time": 80.591,
        "duration": 0.273,
        "velocity": 0.71,
        "hand": "right"
      },
      {
        "midi": 61,
        "time": 80.864,
        "duration": 0.545,
        "velocity": 0.71,
        "hand": "right"
      },
      {
        "midi": 70,
        "time": 81.409,
        "duration": 0.273,
        "velocity": 0.71,
        "hand": "right"
      },
      {
        "midi": 67,
        "time": 81.682,
        "duration": 0.273,
        "velocity": 0.71,
        "hand": "right"
      },
      {
        "midi": 63,
        "time": 81.955,
        "duration": 0.545,
        "velocity": 0.71,
        "hand": "right"
      },
      {
        "midi": 72,
        "time": 82.5,
        "duration": 1.091,
        "velocity": 0.71,
        "hand": "right"
      },
      {
        "midi": 63,
        "time": 82.909,
        "duration": 0.273,
        "velocity": 0.71,
        "hand": "right"
      },
      {
        "midi": 67,
        "time": 83.318,
        "duration": 0.273,
        "velocity": 0.71,
        "hand": "right"
      },
      {
        "midi": 70,
        "time": 83.591,
        "duration": 0.273,
        "velocity": 0.71,
        "hand": "right"
      },
      {
        "midi": 72,
        "time": 83.864,
        "duration": 0.273,
        "velocity": 0.71,
        "hand": "right"
      },
      {
        "midi": 75,
        "time": 84.409,
        "duration": 0.273,
        "velocity": 0.71,
        "hand": "right"
      },
      {
        "midi": 77,
        "time": 84.682,
        "duration": 0.818,
        "velocity": 0.71,
        "hand": "right"
      },
      {
        "midi": 70,
        "time": 85.5,
        "duration": 0.273,
        "velocity": 0.71,
        "hand": "right"
      },
      {
        "midi": 75,
        "time": 85.773,
        "duration": 0.818,
        "velocity": 0.71,
        "hand": "right"
      },
      {
        "midi": 72,
        "time": 86.591,
        "duration": 0.273,
        "velocity": 0.71,
        "hand": "right"
      },
      {
        "midi": 60,
        "time": 87.136,
        "duration": 0.273,
        "velocity": 0.71,
        "hand": "right"
      },
      {
        "midi": 77,
        "time": 87.409,
        "duration": 0.545,
        "velocity": 0.71,
        "hand": "right"
      },
      {
        "midi": 65,
        "time": 87.682,
        "duration": 0.273,
        "velocity": 0.71,
        "hand": "right"
      },
      {
        "midi": 70,
        "time": 87.955,
        "duration": 0.545,
        "velocity": 0.71,
        "hand": "right"
      },
      {
        "midi": 72,
        "time": 88.5,
        "duration": 0.545,
        "velocity": 0.71,
        "hand": "right"
      },
      {
        "midi": 62,
        "time": 88.773,
        "duration": 0.273,
        "velocity": 0.71,
        "hand": "right"
      },
      {
        "midi": 67,
        "time": 89.318,
        "duration": 0.273,
        "velocity": 0.71,
        "hand": "right"
      },
      {
        "midi": 72,
        "time": 89.591,
        "duration": 0.273,
        "velocity": 0.71,
        "hand": "right"
      },
      {
        "midi": 68,
        "time": 90.409,
        "duration": 0.273,
        "velocity": 0.71,
        "hand": "right"
      },
      {
        "midi": 75,
        "time": 90.682,
        "duration": 0.273,
        "velocity": 0.71,
        "hand": "right"
      },
      {
        "midi": 70,
        "time": 90.955,
        "duration": 0.273,
        "velocity": 0.71,
        "hand": "right"
      },
      {
        "midi": 74,
        "time": 91.5,
        "duration": 0.273,
        "velocity": 0.71,
        "hand": "right"
      },
      {
        "midi": 75,
        "time": 91.773,
        "duration": 0.273,
        "velocity": 0.71,
        "hand": "right"
      },
      {
        "midi": 77,
        "time": 92.318,
        "duration": 0.273,
        "velocity": 0.71,
        "hand": "right"
      },
      {
        "midi": 75,
        "time": 92.591,
        "duration": 0.273,
        "velocity": 0.71,
        "hand": "right"
      },
      {
        "midi": 74,
        "time": 92.864,
        "duration": 0.273,
        "velocity": 0.71,
        "hand": "right"
      },
      {
        "midi": 70,
        "time": 93.409,
        "duration": 0.273,
        "velocity": 0.71,
        "hand": "right"
      },
      {
        "midi": 68,
        "time": 93.682,
        "duration": 0.273,
        "velocity": 0.71,
        "hand": "right"
      },
      {
        "midi": 67,
        "time": 93.955,
        "duration": 0.545,
        "velocity": 0.71,
        "hand": "right"
      },
      {
        "midi": 60,
        "time": 94.773,
        "duration": 0.273,
        "velocity": 0.71,
        "hand": "right"
      },
      {
        "midi": 65,
        "time": 95.318,
        "duration": 0.273,
        "velocity": 0.71,
        "hand": "right"
      },
      {
        "midi": 70,
        "time": 95.591,
        "duration": 0.545,
        "velocity": 0.71,
        "hand": "right"
      },
      {
        "midi": 67,
        "time": 95.864,
        "duration": 0.273,
        "velocity": 0.71,
        "hand": "right"
      },
      {
        "midi": 63,
        "time": 96.409,
        "duration": 0.273,
        "velocity": 0.71,
        "hand": "right"
      },
      {
        "midi": 62,
        "time": 96.682,
        "duration": 0.273,
        "velocity": 0.71,
        "hand": "right"
      },
      {
        "midi": 65,
        "time": 96.955,
        "duration": 0.273,
        "velocity": 0.71,
        "hand": "right"
      },
      {
        "midi": 63,
        "time": 97.5,
        "duration": 0.273,
        "velocity": 0.71,
        "hand": "right"
      },
      {
        "midi": 75,
        "time": 97.773,
        "duration": 0.409,
        "velocity": 0.71,
        "hand": "right"
      },
      {
        "midi": 74,
        "time": 98.182,
        "duration": 0.273,
        "velocity": 0.71,
        "hand": "right"
      },
      {
        "midi": 65,
        "time": 98.591,
        "duration": 0.273,
        "velocity": 0.71,
        "hand": "right"
      },
      {
        "midi": 63,
        "time": 98.864,
        "duration": 0.273,
        "velocity": 0.71,
        "hand": "right"
      },
      {
        "midi": 72,
        "time": 99.273,
        "duration": 0.273,
        "velocity": 0.71,
        "hand": "right"
      },
      {
        "midi": 75,
        "time": 99.682,
        "duration": 0.273,
        "velocity": 0.71,
        "hand": "right"
      },
      {
        "midi": 74,
        "time": 99.955,
        "duration": 0.273,
        "velocity": 0.71,
        "hand": "right"
      },
      {
        "midi": 70,
        "time": 100.5,
        "duration": 0.273,
        "velocity": 0.71,
        "hand": "right"
      },
      {
        "midi": 68,
        "time": 100.773,
        "duration": 0.273,
        "velocity": 0.71,
        "hand": "right"
      },
      {
        "midi": 65,
        "time": 101.318,
        "duration": 0.273,
        "velocity": 0.71,
        "hand": "right"
      },
      {
        "midi": 63,
        "time": 101.591,
        "duration": 0.273,
        "velocity": 0.71,
        "hand": "right"
      },
      {
        "midi": 62,
        "time": 101.864,
        "duration": 0.273,
        "velocity": 0.71,
        "hand": "right"
      },
      {
        "midi": 60,
        "time": 102.682,
        "duration": 0.273,
        "velocity": 0.71,
        "hand": "right"
      },
      {
        "midi": 63,
        "time": 102.955,
        "duration": 0.273,
        "velocity": 0.71,
        "hand": "right"
      },
      {
        "midi": 70,
        "time": 103.5,
        "duration": 0.273,
        "velocity": 0.71,
        "hand": "right"
      },
      {
        "midi": 72,
        "time": 103.773,
        "duration": 1.091,
        "velocity": 0.71,
        "hand": "right"
      },
      {
        "midi": 65,
        "time": 104.318,
        "duration": 0.273,
        "velocity": 0.71,
        "hand": "right"
      },
      {
        "midi": 63,
        "time": 104.591,
        "duration": 0.273,
        "velocity": 0.71,
        "hand": "right"
      },
      {
        "midi": 70,
        "time": 104.864,
        "duration": 0.545,
        "velocity": 0.71,
        "hand": "right"
      },
      {
        "midi": 65,
        "time": 105.409,
        "duration": 0.273,
        "velocity": 0.71,
        "hand": "right"
      },
      {
        "midi": 67,
        "time": 105.682,
        "duration": 0.273,
        "velocity": 0.71,
        "hand": "right"
      },
      {
        "midi": 72,
        "time": 105.955,
        "duration": 0.273,
        "velocity": 0.71,
        "hand": "right"
      },
      {
        "midi": 74,
        "time": 106.5,
        "duration": 0.545,
        "velocity": 0.71,
        "hand": "right"
      },
      {
        "midi": 68,
        "time": 106.773,
        "duration": 0.273,
        "velocity": 0.71,
        "hand": "right"
      },
      {
        "midi": 70,
        "time": 107.318,
        "duration": 0.273,
        "velocity": 0.71,
        "hand": "right"
      },
      {
        "midi": 72,
        "time": 107.591,
        "duration": 0.273,
        "velocity": 0.71,
        "hand": "right"
      },
      {
        "midi": 74,
        "time": 107.864,
        "duration": 0.273,
        "velocity": 0.71,
        "hand": "right"
      },
      {
        "midi": 79,
        "time": 108.409,
        "duration": 0.273,
        "velocity": 0.71,
        "hand": "right"
      },
      {
        "midi": 77,
        "time": 108.682,
        "duration": 0.273,
        "velocity": 0.71,
        "hand": "right"
      },
      {
        "midi": 75,
        "time": 108.955,
        "duration": 0.273,
        "velocity": 0.71,
        "hand": "right"
      },
      {
        "midi": 75,
        "time": 109.5,
        "duration": 0.273,
        "velocity": 0.71,
        "hand": "right"
      },
      {
        "midi": 77,
        "time": 109.773,
        "duration": 0.273,
        "velocity": 0.71,
        "hand": "right"
      },
      {
        "midi": 62,
        "time": 110.182,
        "duration": 0.273,
        "velocity": 0.71,
        "hand": "right"
      },
      {
        "midi": 84,
        "time": 110.591,
        "duration": 0.273,
        "velocity": 0.71,
        "hand": "right"
      },
      {
        "midi": 82,
        "time": 110.864,
        "duration": 0.273,
        "velocity": 0.71,
        "hand": "right"
      },
      {
        "midi": 79,
        "time": 111.409,
        "duration": 0.545,
        "velocity": 0.71,
        "hand": "right"
      },
      {
        "midi": 63,
        "time": 112.364,
        "duration": 0.273,
        "velocity": 0.71,
        "hand": "right"
      },
      {
        "midi": 63,
        "time": 112.773,
        "duration": 0.273,
        "velocity": 0.71,
        "hand": "right"
      },
      {
        "midi": 60,
        "time": 113.318,
        "duration": 0.273,
        "velocity": 0.71,
        "hand": "right"
      },
      {
        "midi": 63,
        "time": 113.591,
        "duration": 0.545,
        "velocity": 0.71,
        "hand": "right"
      },
      {
        "midi": 63,
        "time": 114.545,
        "duration": 0.273,
        "velocity": 0.71,
        "hand": "right"
      },
      {
        "midi": 62,
        "time": 114.955,
        "duration": 0.273,
        "velocity": 0.71,
        "hand": "right"
      },
      {
        "midi": 65,
        "time": 115.5,
        "duration": 0.273,
        "velocity": 0.71,
        "hand": "right"
      },
      {
        "midi": 67,
        "time": 115.773,
        "duration": 0.545,
        "velocity": 0.71,
        "hand": "right"
      },
      {
        "midi": 65,
        "time": 116.318,
        "duration": 0.273,
        "velocity": 0.71,
        "hand": "right"
      },
      {
        "midi": 63,
        "time": 116.591,
        "duration": 0.273,
        "velocity": 0.71,
        "hand": "right"
      },
      {
        "midi": 73,
        "time": 116.864,
        "duration": 0.545,
        "velocity": 0.71,
        "hand": "right"
      },
      {
        "midi": 73,
        "time": 117.409,
        "duration": 0.545,
        "velocity": 0.71,
        "hand": "right"
      },
      {
        "midi": 67,
        "time": 117.682,
        "duration": 0.273,
        "velocity": 0.71,
        "hand": "right"
      },
      {
        "midi": 72,
        "time": 117.955,
        "duration": 0.545,
        "velocity": 0.71,
        "hand": "right"
      },
      {
        "midi": 68,
        "time": 118.5,
        "duration": 0.545,
        "velocity": 0.71,
        "hand": "right"
      },
      {
        "midi": 75,
        "time": 118.909,
        "duration": 0.273,
        "velocity": 0.71,
        "hand": "right"
      },
      {
        "midi": 79,
        "time": 119.318,
        "duration": 0.273,
        "velocity": 0.71,
        "hand": "right"
      },
      {
        "midi": 77,
        "time": 119.591,
        "duration": 0.273,
        "velocity": 0.71,
        "hand": "right"
      },
      {
        "midi": 75,
        "time": 119.864,
        "duration": 0.273,
        "velocity": 0.71,
        "hand": "right"
      },
      {
        "midi": 72,
        "time": 120.409,
        "duration": 0.273,
        "velocity": 0.71,
        "hand": "right"
      },
      {
        "midi": 70,
        "time": 120.682,
        "duration": 0.273,
        "velocity": 0.71,
        "hand": "right"
      },
      {
        "midi": 68,
        "time": 120.955,
        "duration": 0.273,
        "velocity": 0.71,
        "hand": "right"
      },
      {
        "midi": 65,
        "time": 121.5,
        "duration": 0.273,
        "velocity": 0.71,
        "hand": "right"
      },
      {
        "midi": 63,
        "time": 121.773,
        "duration": 0.273,
        "velocity": 0.71,
        "hand": "right"
      },
      {
        "midi": 60,
        "time": 122.318,
        "duration": 0.273,
        "velocity": 0.71,
        "hand": "right"
      },
      {
        "midi": 62,
        "time": 122.864,
        "duration": 0.545,
        "velocity": 0.71,
        "hand": "right"
      },
      {
        "midi": 63,
        "time": 123.409,
        "duration": 0.545,
        "velocity": 0.71,
        "hand": "right"
      },
      {
        "midi": 60,
        "time": 123.955,
        "duration": 0.273,
        "velocity": 0.71,
        "hand": "right"
      },
      {
        "midi": 65,
        "time": 124.364,
        "duration": 0.273,
        "velocity": 0.71,
        "hand": "right"
      },
      {
        "midi": 67,
        "time": 124.773,
        "duration": 0.273,
        "velocity": 0.71,
        "hand": "right"
      },
      {
        "midi": 63,
        "time": 125.318,
        "duration": 0.273,
        "velocity": 0.71,
        "hand": "right"
      },
      {
        "midi": 70,
        "time": 125.591,
        "duration": 0.545,
        "velocity": 0.71,
        "hand": "right"
      },
      {
        "midi": 70,
        "time": 126.545,
        "duration": 0.273,
        "velocity": 0.71,
        "hand": "right"
      },
      {
        "midi": 68,
        "time": 126.955,
        "duration": 0.273,
        "velocity": 0.71,
        "hand": "right"
      },
      {
        "midi": 65,
        "time": 127.5,
        "duration": 0.273,
        "velocity": 0.71,
        "hand": "right"
      },
      {
        "midi": 75,
        "time": 127.773,
        "duration": 0.545,
        "velocity": 0.71,
        "hand": "right"
      },
      {
        "midi": 63,
        "time": 128.727,
        "duration": 0.273,
        "velocity": 0.71,
        "hand": "right"
      },
      {
        "midi": 68,
        "time": 129.409,
        "duration": 0.545,
        "velocity": 0.71,
        "hand": "right"
      },
      {
        "midi": 67,
        "time": 129.955,
        "duration": 0.545,
        "velocity": 0.71,
        "hand": "right"
      },
      {
        "midi": 65,
        "time": 130.5,
        "duration": 0.545,
        "velocity": 0.71,
        "hand": "right"
      },
      {
        "midi": 62,
        "time": 130.773,
        "duration": 0.273,
        "velocity": 0.71,
        "hand": "right"
      },
      {
        "midi": 61,
        "time": 131.864,
        "duration": 0.273,
        "velocity": 0.71,
        "hand": "right"
      },
      {
        "midi": 68,
        "time": 132.682,
        "duration": 0.545,
        "velocity": 0.71,
        "hand": "right"
      },
      {
        "midi": 62,
        "time": 132.955,
        "duration": 0.273,
        "velocity": 0.71,
        "hand": "right"
      },
      {
        "midi": 61,
        "time": 133.773,
        "duration": 0.273,
        "velocity": 0.71,
        "hand": "right"
      },
      {
        "midi": 68,
        "time": 134.182,
        "duration": 0.273,
        "velocity": 0.71,
        "hand": "right"
      },
      {
        "midi": 63,
        "time": 134.591,
        "duration": 0.273,
        "velocity": 0.71,
        "hand": "right"
      },
      {
        "midi": 73,
        "time": 134.864,
        "duration": 0.545,
        "velocity": 0.71,
        "hand": "right"
      },
      {
        "midi": 72,
        "time": 135.409,
        "duration": 0.545,
        "velocity": 0.71,
        "hand": "right"
      },
      {
        "midi": 67,
        "time": 135.682,
        "duration": 0.273,
        "velocity": 0.71,
        "hand": "right"
      },
      {
        "midi": 68,
        "time": 135.955,
        "duration": 0.273,
        "velocity": 0.71,
        "hand": "right"
      },
      {
        "midi": 75,
        "time": 136.364,
        "duration": 0.273,
        "velocity": 0.71,
        "hand": "right"
      },
      {
        "midi": 79,
        "time": 136.773,
        "duration": 0.273,
        "velocity": 0.71,
        "hand": "right"
      },
      {
        "midi": 75,
        "time": 137.318,
        "duration": 0.273,
        "velocity": 0.71,
        "hand": "right"
      },
      {
        "midi": 74,
        "time": 137.591,
        "duration": 0.273,
        "velocity": 0.71,
        "hand": "right"
      },
      {
        "midi": 72,
        "time": 137.864,
        "duration": 0.273,
        "velocity": 0.71,
        "hand": "right"
      },
      {
        "midi": 68,
        "time": 138.409,
        "duration": 0.273,
        "velocity": 0.71,
        "hand": "right"
      },
      {
        "midi": 67,
        "time": 138.682,
        "duration": 0.273,
        "velocity": 0.71,
        "hand": "right"
      },
      {
        "midi": 65,
        "time": 138.955,
        "duration": 0.273,
        "velocity": 0.71,
        "hand": "right"
      },
      {
        "midi": 62,
        "time": 139.5,
        "duration": 0.273,
        "velocity": 0.71,
        "hand": "right"
      },
      {
        "midi": 60,
        "time": 139.773,
        "duration": 0.545,
        "velocity": 0.71,
        "hand": "right"
      },
      {
        "midi": 72,
        "time": 140.318,
        "duration": 0.545,
        "velocity": 0.71,
        "hand": "right"
      },
      {
        "midi": 62,
        "time": 141.409,
        "duration": 0.545,
        "velocity": 0.71,
        "hand": "right"
      },
      {
        "midi": 62,
        "time": 141.955,
        "duration": 1.091,
        "velocity": 0.71,
        "hand": "right"
      },
      {
        "midi": 63,
        "time": 143.045,
        "duration": 1.091,
        "velocity": 0.71,
        "hand": "right"
      }
    ],
    "medium": [
      {
        "midi": 46,
        "time": 0,
        "duration": 0.136,
        "velocity": 0.71,
        "hand": "left"
      },
      {
        "midi": 51,
        "time": 0.136,
        "duration": 0.545,
        "velocity": 0.71,
        "hand": "left"
      },
      {
        "midi": 51,
        "time": 0.682,
        "duration": 0.545,
        "velocity": 0.71,
        "hand": "left"
      },
      {
        "midi": 50,
        "time": 1.227,
        "duration": 0.545,
        "velocity": 0.71,
        "hand": "left"
      },
      {
        "midi": 51,
        "time": 2.182,
        "duration": 0.136,
        "velocity": 0.71,
        "hand": "left"
      },
      {
        "midi": 56,
        "time": 2.318,
        "duration": 0.545,
        "velocity": 0.71,
        "hand": "left"
      },
      {
        "midi": 56,
        "time": 2.864,
        "duration": 0.545,
        "velocity": 0.71,
        "hand": "left"
      },
      {
        "midi": 55,
        "time": 3.409,
        "duration": 0.545,
        "velocity": 0.71,
        "hand": "left"
      },
      {
        "midi": 58,
        "time": 4.364,
        "duration": 0.136,
        "velocity": 0.71,
        "hand": "left"
      },
      {
        "midi": 63,
        "time": 4.5,
        "duration": 0.273,
        "velocity": 0.71,
        "hand": "right"
      },
      {
        "midi": 62,
        "time": 4.773,
        "duration": 0.273,
        "velocity": 0.71,
        "hand": "right"
      },
      {
        "midi": 60,
        "time": 5.045,
        "duration": 0.273,
        "velocity": 0.71,
        "hand": "right"
      },
      {
        "midi": 58,
        "time": 5.318,
        "duration": 0.273,
        "velocity": 0.71,
        "hand": "left"
      },
      {
        "midi": 56,
        "time": 5.591,
        "duration": 0.273,
        "velocity": 0.71,
        "hand": "left"
      },
      {
        "midi": 55,
        "time": 5.864,
        "duration": 0.273,
        "velocity": 0.71,
        "hand": "left"
      },
      {
        "midi": 53,
        "time": 6.136,
        "duration": 0.273,
        "velocity": 0.71,
        "hand": "left"
      },
      {
        "midi": 51,
        "time": 6.409,
        "duration": 0.273,
        "velocity": 0.71,
        "hand": "left"
      },
      {
        "midi": 50,
        "time": 6.682,
        "duration": 0.273,
        "velocity": 0.71,
        "hand": "left"
      },
      {
        "midi": 48,
        "time": 6.955,
        "duration": 0.273,
        "velocity": 0.71,
        "hand": "left"
      },
      {
        "midi": 46,
        "time": 7.227,
        "duration": 0.273,
        "velocity": 0.71,
        "hand": "left"
      },
      {
        "midi": 44,
        "time": 7.5,
        "duration": 0.273,
        "velocity": 0.71,
        "hand": "left"
      },
      {
        "midi": 43,
        "time": 7.773,
        "duration": 0.273,
        "velocity": 0.71,
        "hand": "left"
      },
      {
        "midi": 41,
        "time": 8.045,
        "duration": 0.273,
        "velocity": 0.71,
        "hand": "left"
      },
      {
        "midi": 39,
        "time": 8.318,
        "duration": 0.273,
        "velocity": 0.71,
        "hand": "left"
      },
      {
        "midi": 41,
        "time": 8.591,
        "duration": 0.273,
        "velocity": 0.71,
        "hand": "left"
      },
      {
        "midi": 51,
        "time": 8.727,
        "duration": 0.136,
        "velocity": 0.71,
        "hand": "left"
      },
      {
        "midi": 43,
        "time": 8.864,
        "duration": 0.273,
        "velocity": 0.71,
        "hand": "left"
      },
      {
        "midi": 58,
        "time": 8.864,
        "duration": 0.545,
        "velocity": 0.71,
        "hand": "left"
      },
      {
        "midi": 41,
        "time": 9.136,
        "duration": 0.273,
        "velocity": 0.71,
        "hand": "left"
      },
      {
        "midi": 40,
        "time": 9.409,
        "duration": 0.273,
        "velocity": 0.71,
        "hand": "left"
      },
      {
        "midi": 58,
        "time": 9.409,
        "duration": 0.545,
        "velocity": 0.71,
        "hand": "left"
      },
      {
        "midi": 36,
        "time": 9.682,
        "duration": 0.273,
        "velocity": 0.71,
        "hand": "left"
      },
      {
        "midi": 41,
        "time": 9.955,
        "duration": 0.273,
        "velocity": 0.71,
        "hand": "left"
      },
      {
        "midi": 57,
        "time": 9.955,
        "duration": 0.545,
        "velocity": 0.71,
        "hand": "left"
      },
      {
        "midi": 48,
        "time": 10.227,
        "duration": 0.273,
        "velocity": 0.71,
        "hand": "left"
      },
      {
        "midi": 51,
        "time": 10.5,
        "duration": 0.273,
        "velocity": 0.71,
        "hand": "left"
      },
      {
        "midi": 50,
        "time": 10.773,
        "duration": 0.273,
        "velocity": 0.71,
        "hand": "left"
      },
      {
        "midi": 58,
        "time": 10.909,
        "duration": 0.136,
        "velocity": 0.71,
        "hand": "left"
      },
      {
        "midi": 48,
        "time": 11.045,
        "duration": 0.273,
        "velocity": 0.71,
        "hand": "left"
      },
      {
        "midi": 63,
        "time": 11.045,
        "duration": 0.545,
        "velocity": 0.71,
        "hand": "right"
      },
      {
        "midi": 46,
        "time": 11.318,
        "duration": 0.273,
        "velocity": 0.71,
        "hand": "left"
      },
      {
        "midi": 45,
        "time": 11.591,
        "duration": 0.273,
        "velocity": 0.71,
        "hand": "left"
      },
      {
        "midi": 63,
        "time": 11.591,
        "duration": 0.545,
        "velocity": 0.71,
        "hand": "right"
      },
      {
        "midi": 41,
        "time": 11.864,
        "duration": 0.273,
        "velocity": 0.71,
        "hand": "left"
      },
      {
        "midi": 46,
        "time": 12.136,
        "duration": 0.273,
        "velocity": 0.71,
        "hand": "left"
      },
      {
        "midi": 62,
        "time": 12.136,
        "duration": 0.545,
        "velocity": 0.71,
        "hand": "right"
      },
      {
        "midi": 53,
        "time": 12.409,
        "duration": 0.273,
        "velocity": 0.71,
        "hand": "left"
      },
      {
        "midi": 58,
        "time": 12.682,
        "duration": 0.273,
        "velocity": 0.71,
        "hand": "left"
      },
      {
        "midi": 57,
        "time": 12.955,
        "duration": 0.273,
        "velocity": 0.71,
        "hand": "left"
      },
      {
        "midi": 65,
        "time": 13.091,
        "duration": 0.136,
        "velocity": 0.71,
        "hand": "right"
      },
      {
        "midi": 55,
        "time": 13.227,
        "duration": 0.273,
        "velocity": 0.71,
        "hand": "left"
      },
      {
        "midi": 70,
        "time": 13.227,
        "duration": 0.273,
        "velocity": 0.71,
        "hand": "right"
      },
      {
        "midi": 53,
        "time": 13.5,
        "duration": 0.273,
        "velocity": 0.71,
        "hand": "left"
      },
      {
        "midi": 69,
        "time": 13.5,
        "duration": 0.273,
        "velocity": 0.71,
        "hand": "right"
      },
      {
        "midi": 51,
        "time": 13.773,
        "duration": 0.273,
        "velocity": 0.71,
        "hand": "left"
      },
      {
        "midi": 67,
        "time": 13.773,
        "duration": 0.273,
        "velocity": 0.71,
        "hand": "right"
      },
      {
        "midi": 50,
        "time": 14.045,
        "duration": 0.273,
        "velocity": 0.71,
        "hand": "left"
      },
      {
        "midi": 65,
        "time": 14.045,
        "duration": 0.273,
        "velocity": 0.71,
        "hand": "right"
      },
      {
        "midi": 48,
        "time": 14.318,
        "duration": 0.273,
        "velocity": 0.71,
        "hand": "left"
      },
      {
        "midi": 63,
        "time": 14.318,
        "duration": 0.273,
        "velocity": 0.71,
        "hand": "right"
      },
      {
        "midi": 46,
        "time": 14.591,
        "duration": 0.273,
        "velocity": 0.71,
        "hand": "left"
      },
      {
        "midi": 62,
        "time": 14.591,
        "duration": 0.273,
        "velocity": 0.71,
        "hand": "right"
      },
      {
        "midi": 45,
        "time": 14.864,
        "duration": 0.273,
        "velocity": 0.71,
        "hand": "left"
      },
      {
        "midi": 60,
        "time": 14.864,
        "duration": 0.273,
        "velocity": 0.71,
        "hand": "right"
      },
      {
        "midi": 43,
        "time": 15.136,
        "duration": 0.273,
        "velocity": 0.71,
        "hand": "left"
      },
      {
        "midi": 58,
        "time": 15.136,
        "duration": 0.273,
        "velocity": 0.71,
        "hand": "left"
      },
      {
        "midi": 41,
        "time": 15.409,
        "duration": 0.273,
        "velocity": 0.71,
        "hand": "left"
      },
      {
        "midi": 57,
        "time": 15.409,
        "duration": 0.273,
        "velocity": 0.71,
        "hand": "left"
      },
      {
        "midi": 43,
        "time": 15.682,
        "duration": 0.273,
        "velocity": 0.71,
        "hand": "left"
      },
      {
        "midi": 55,
        "time": 15.682,
        "duration": 0.273,
        "velocity": 0.71,
        "hand": "left"
      },
      {
        "midi": 45,
        "time": 15.955,
        "duration": 0.273,
        "velocity": 0.71,
        "hand": "left"
      },
      {
        "midi": 53,
        "time": 15.955,
        "duration": 0.273,
        "velocity": 0.71,
        "hand": "left"
      },
      {
        "midi": 41,
        "time": 16.227,
        "duration": 0.273,
        "velocity": 0.71,
        "hand": "left"
      },
      {
        "midi": 51,
        "time": 16.227,
        "duration": 0.273,
        "velocity": 0.71,
        "hand": "left"
      },
      {
        "midi": 46,
        "time": 16.5,
        "duration": 0.273,
        "velocity": 0.71,
        "hand": "left"
      },
      {
        "midi": 50,
        "time": 16.5,
        "duration": 0.273,
        "velocity": 0.71,
        "hand": "left"
      },
      {
        "midi": 48,
        "time": 16.773,
        "duration": 0.273,
        "velocity": 0.71,
        "hand": "left"
      },
      {
        "midi": 51,
        "time": 16.773,
        "duration": 0.273,
        "velocity": 0.71,
        "hand": "left"
      },
      {
        "midi": 50,
        "time": 17.045,
        "duration": 0.273,
        "velocity": 0.71,
        "hand": "left"
      },
      {
        "midi": 53,
        "time": 17.045,
        "duration": 0.273,
        "velocity": 0.71,
        "hand": "left"
      },
      {
        "midi": 51,
        "time": 17.318,
        "duration": 0.273,
        "velocity": 0.71,
        "hand": "left"
      },
      {
        "midi": 55,
        "time": 17.318,
        "duration": 0.273,
        "velocity": 0.71,
        "hand": "left"
      },
      {
        "midi": 53,
        "time": 17.591,
        "duration": 0.273,
        "velocity": 0.71,
        "hand": "left"
      },
      {
        "midi": 56,
        "time": 17.591,
        "duration": 0.273,
        "velocity": 0.71,
        "hand": "left"
      },
      {
        "midi": 55,
        "time": 17.864,
        "duration": 0.273,
        "velocity": 0.71,
        "hand": "left"
      },
      {
        "midi": 58,
        "time": 17.864,
        "duration": 0.273,
        "velocity": 0.71,
        "hand": "left"
      },
      {
        "midi": 53,
        "time": 18.136,
        "duration": 0.273,
        "velocity": 0.71,
        "hand": "left"
      },
      {
        "midi": 60,
        "time": 18.136,
        "duration": 0.818,
        "velocity": 0.71,
        "hand": "right"
      },
      {
        "midi": 51,
        "time": 18.409,
        "duration": 0.273,
        "velocity": 0.71,
        "hand": "left"
      },
      {
        "midi": 50,
        "time": 18.682,
        "duration": 0.273,
        "velocity": 0.71,
        "hand": "left"
      },
      {
        "midi": 46,
        "time": 18.955,
        "duration": 0.273,
        "velocity": 0.71,
        "hand": "left"
      },
      {
        "midi": 53,
        "time": 18.955,
        "duration": 0.273,
        "velocity": 0.71,
        "hand": "left"
      },
      {
        "midi": 48,
        "time": 19.227,
        "duration": 0.273,
        "velocity": 0.71,
        "hand": "left"
      },
      {
        "midi": 58,
        "time": 19.227,
        "duration": 0.273,
        "velocity": 0.71,
        "hand": "left"
      },
      {
        "midi": 50,
        "time": 19.5,
        "duration": 0.273,
        "velocity": 0.71,
        "hand": "left"
      },
      {
        "midi": 56,
        "time": 19.5,
        "duration": 0.273,
        "velocity": 0.71,
        "hand": "left"
      },
      {
        "midi": 58,
        "time": 19.636,
        "duration": 0.136,
        "velocity": 0.71,
        "hand": "left"
      },
      {
        "midi": 51,
        "time": 19.773,
        "duration": 0.273,
        "velocity": 0.71,
        "hand": "left"
      },
      {
        "midi": 55,
        "time": 19.773,
        "duration": 0.273,
        "velocity": 0.71,
        "hand": "left"
      },
      {
        "midi": 63,
        "time": 19.773,
        "duration": 0.545,
        "velocity": 0.71,
        "hand": "right"
      },
      {
        "midi": 50,
        "time": 20.045,
        "duration": 0.273,
        "velocity": 0.71,
        "hand": "left"
      },
      {
        "midi": 53,
        "time": 20.045,
        "duration": 0.273,
        "velocity": 0.71,
        "hand": "left"
      },
      {
        "midi": 51,
        "time": 20.318,
        "duration": 0.273,
        "velocity": 0.71,
        "hand": "left"
      },
      {
        "midi": 55,
        "time": 20.318,
        "duration": 0.273,
        "velocity": 0.71,
        "hand": "left"
      },
      {
        "midi": 63,
        "time": 20.318,
        "duration": 0.545,
        "velocity": 0.71,
        "hand": "right"
      },
      {
        "midi": 48,
        "time": 20.591,
        "duration": 0.273,
        "velocity": 0.71,
        "hand": "left"
      },
      {
        "midi": 57,
        "time": 20.591,
        "duration": 0.273,
        "velocity": 0.71,
        "hand": "left"
      },
      {
        "midi": 46,
        "time": 20.864,
        "duration": 0.273,
        "velocity": 0.71,
        "hand": "left"
      },
      {
        "midi": 58,
        "time": 20.864,
        "duration": 1.091,
        "velocity": 0.71,
        "hand": "left"
      },
      {
        "midi": 62,
        "time": 20.864,
        "duration": 0.545,
        "velocity": 0.71,
        "hand": "right"
      },
      {
        "midi": 53,
        "time": 21.136,
        "duration": 0.273,
        "velocity": 0.71,
        "hand": "left"
      },
      {
        "midi": 56,
        "time": 21.409,
        "duration": 0.273,
        "velocity": 0.71,
        "hand": "left"
      },
      {
        "midi": 55,
        "time": 21.682,
        "duration": 0.273,
        "velocity": 0.71,
        "hand": "left"
      },
      {
        "midi": 63,
        "time": 21.818,
        "duration": 0.136,
        "velocity": 0.71,
        "hand": "right"
      },
      {
        "midi": 53,
        "time": 21.955,
        "duration": 0.273,
        "velocity": 0.71,
        "hand": "left"
      },
      {
        "midi": 62,
        "time": 21.955,
        "duration": 0.273,
        "velocity": 0.71,
        "hand": "right"
      },
      {
        "midi": 68,
        "time": 21.955,
        "duration": 0.545,
        "velocity": 0.71,
        "hand": "right"
      },
      {
        "midi": 51,
        "time": 22.227,
        "duration": 0.273,
        "velocity": 0.71,
        "hand": "left"
      },
      {
        "midi": 63,
        "time": 22.227,
        "duration": 0.273,
        "velocity": 0.71,
        "hand": "right"
      },
      {
        "midi": 50,
        "time": 22.5,
        "duration": 0.273,
        "velocity": 0.71,
        "hand": "left"
      },
      {
        "midi": 65,
        "time": 22.5,
        "duration": 0.273,
        "velocity": 0.71,
        "hand": "right"
      },
      {
        "midi": 68,
        "time": 22.5,
        "duration": 0.545,
        "velocity": 0.71,
        "hand": "right"
      },
      {
        "midi": 46,
        "time": 22.773,
        "duration": 0.273,
        "velocity": 0.71,
        "hand": "left"
      },
      {
        "midi": 62,
        "time": 22.773,
        "duration": 0.273,
        "velocity": 0.71,
        "hand": "right"
      },
      {
        "midi": 51,
        "time": 23.045,
        "duration": 0.273,
        "velocity": 0.71,
        "hand": "left"
      },
      {
        "midi": 63,
        "time": 23.045,
        "duration": 2.182,
        "velocity": 0.71,
        "hand": "right"
      },
      {
        "midi": 67,
        "time": 23.045,
        "duration": 0.545,
        "velocity": 0.71,
        "hand": "right"
      },
      {
        "midi": 58,
        "time": 23.318,
        "duration": 0.273,
        "velocity": 0.71,
        "hand": "left"
      },
      {
        "midi": 63,
        "time": 23.591,
        "duration": 0.273,
        "velocity": 0.71,
        "hand": "right"
      },
      {
        "midi": 62,
        "time": 23.864,
        "duration": 0.273,
        "velocity": 0.71,
        "hand": "right"
      },
      {
        "midi": 70,
        "time": 24,
        "duration": 0.136,
        "velocity": 0.71,
        "hand": "right"
      },
      {
        "midi": 60,
        "time": 24.136,
        "duration": 0.273,
        "velocity": 0.71,
        "hand": "right"
      },
      {
        "midi": 75,
        "time": 24.136,
        "duration": 0.273,
        "velocity": 0.71,
        "hand": "right"
      },
      {
        "midi": 58,
        "time": 24.409,
        "duration": 0.273,
        "velocity": 0.71,
        "hand": "left"
      },
      {
        "midi": 74,
        "time": 24.409,
        "duration": 0.273,
        "velocity": 0.71,
        "hand": "right"
      },
      {
        "midi": 56,
        "time": 24.682,
        "duration": 0.273,
        "velocity": 0.71,
        "hand": "left"
      },
      {
        "midi": 72,
        "time": 24.682,
        "duration": 0.273,
        "velocity": 0.71,
        "hand": "right"
      },
      {
        "midi": 55,
        "time": 24.955,
        "duration": 0.273,
        "velocity": 0.71,
        "hand": "left"
      },
      {
        "midi": 70,
        "time": 24.955,
        "duration": 0.273,
        "velocity": 0.71,
        "hand": "right"
      },
      {
        "midi": 53,
        "time": 25.227,
        "duration": 0.273,
        "velocity": 0.71,
        "hand": "left"
      },
      {
        "midi": 62,
        "time": 25.227,
        "duration": 0.273,
        "velocity": 0.71,
        "hand": "right"
      },
      {
        "midi": 68,
        "time": 25.227,
        "duration": 0.273,
        "velocity": 0.71,
        "hand": "right"
      },
      {
        "midi": 51,
        "time": 25.5,
        "duration": 0.273,
        "velocity": 0.71,
        "hand": "left"
      },
      {
        "midi": 63,
        "time": 25.5,
        "duration": 0.273,
        "velocity": 0.71,
        "hand": "right"
      },
      {
        "midi": 67,
        "time": 25.5,
        "duration": 0.273,
        "velocity": 0.71,
        "hand": "right"
      },
      {
        "midi": 50,
        "time": 25.773,
        "duration": 0.273,
        "velocity": 0.71,
        "hand": "left"
      },
      {
        "midi": 58,
        "time": 25.773,
        "duration": 0.273,
        "velocity": 0.71,
        "hand": "left"
      },
      {
        "midi": 65,
        "time": 25.773,
        "duration": 0.273,
        "velocity": 0.71,
        "hand": "right"
      },
      {
        "midi": 48,
        "time": 26.045,
        "duration": 0.273,
        "velocity": 0.71,
        "hand": "left"
      },
      {
        "midi": 57,
        "time": 26.045,
        "duration": 0.273,
        "velocity": 0.71,
        "hand": "left"
      },
      {
        "midi": 63,
        "time": 26.045,
        "duration": 0.273,
        "velocity": 0.71,
        "hand": "right"
      },
      {
        "midi": 46,
        "time": 26.318,
        "duration": 0.273,
        "velocity": 0.71,
        "hand": "left"
      },
      {
        "midi": 58,
        "time": 26.318,
        "duration": 0.273,
        "velocity": 0.71,
        "hand": "left"
      },
      {
        "midi": 62,
        "time": 26.318,
        "duration": 0.273,
        "velocity": 0.71,
        "hand": "right"
      },
      {
        "midi": 44,
        "time": 26.591,
        "duration": 0.273,
        "velocity": 0.71,
        "hand": "left"
      },
      {
        "midi": 53,
        "time": 26.591,
        "duration": 0.273,
        "velocity": 0.71,
        "hand": "left"
      },
      {
        "midi": 60,
        "time": 26.591,
        "duration": 0.273,
        "velocity": 0.71,
        "hand": "right"
      },
      {
        "midi": 43,
        "time": 26.864,
        "duration": 0.273,
        "velocity": 0.71,
        "hand": "left"
      },
      {
        "midi": 55,
        "time": 26.864,
        "duration": 0.273,
        "velocity": 0.71,
        "hand": "left"
      },
      {
        "midi": 58,
        "time": 26.864,
        "duration": 0.273,
        "velocity": 0.71,
        "hand": "left"
      },
      {
        "midi": 41,
        "time": 27.136,
        "duration": 0.273,
        "velocity": 0.71,
        "hand": "left"
      },
      {
        "midi": 50,
        "time": 27.136,
        "duration": 0.273,
        "velocity": 0.71,
        "hand": "left"
      },
      {
        "midi": 56,
        "time": 27.136,
        "duration": 0.273,
        "velocity": 0.71,
        "hand": "left"
      },
      {
        "midi": 39,
        "time": 27.409,
        "duration": 0.545,
        "velocity": 0.71,
        "hand": "left"
      },
      {
        "midi": 51,
        "time": 27.409,
        "duration": 0.545,
        "velocity": 0.71,
        "hand": "left"
      },
      {
        "midi": 55,
        "time": 27.409,
        "duration": 0.273,
        "velocity": 0.71,
        "hand": "left"
      },
      {
        "midi": 58,
        "time": 27.682,
        "duration": 0.273,
        "velocity": 0.71,
        "hand": "left"
      },
      {
        "midi": 63,
        "time": 27.955,
        "duration": 0.273,
        "velocity": 0.71,
        "hand": "right"
      },
      {
        "midi": 67,
        "time": 28.227,
        "duration": 0.273,
        "velocity": 0.71,
        "hand": "right"
      },
      {
        "midi": 51,
        "time": 28.364,
        "duration": 0.136,
        "velocity": 0.71,
        "hand": "left"
      },
      {
        "midi": 48,
        "time": 28.5,
        "duration": 0.545,
        "velocity": 0.71,
        "hand": "left"
      },
      {
        "midi": 63,
        "time": 28.5,
        "duration": 0.545,
        "velocity": 0.71,
        "hand": "right"
      },
      {
        "midi": 68,
        "time": 28.5,
        "duration": 0.273,
        "velocity": 0.71,
        "hand": "right"
      },
      {
        "midi": 72,
        "time": 28.773,
        "duration": 0.273,
        "velocity": 0.71,
        "hand": "right"
      },
      {
        "midi": 50,
        "time": 29.045,
        "duration": 0.545,
        "velocity": 0.71,
        "hand": "left"
      },
      {
        "midi": 65,
        "time": 29.045,
        "duration": 0.545,
        "velocity": 0.71,
        "hand": "right"
      },
      {
        "midi": 70,
        "time": 29.045,
        "duration": 0.273,
        "velocity": 0.71,
        "hand": "right"
      },
      {
        "midi": 68,
        "time": 29.318,
        "duration": 0.273,
        "velocity": 0.71,
        "hand": "right"
      },
      {
        "midi": 51,
        "time": 29.591,
        "duration": 0.545,
        "velocity": 0.71,
        "hand": "left"
      },
      {
        "midi": 58,
        "time": 29.591,
        "duration": 0.545,
        "velocity": 0.71,
        "hand": "left"
      },
      {
        "midi": 67,
        "time": 29.591,
        "duration": 0.273,
        "velocity": 0.71,
        "hand": "right"
      },
      {
        "midi": 69,
        "time": 29.864,
        "duration": 0.273,
        "velocity": 0.71,
        "hand": "right"
      },
      {
        "midi": 70,
        "time": 30.136,
        "duration": 0.273,
        "velocity": 0.71,
        "hand": "right"
      },
      {
        "midi": 74,
        "time": 30.409,
        "duration": 0.273,
        "velocity": 0.71,
        "hand": "right"
      },
      {
        "midi": 58,
        "time": 30.545,
        "duration": 0.136,
        "velocity": 0.71,
        "hand": "left"
      },
      {
        "midi": 55,
        "time": 30.682,
        "duration": 0.545,
        "velocity": 0.71,
        "hand": "left"
      },
      {
        "midi": 75,
        "time": 30.682,
        "duration": 0.273,
        "velocity": 0.71,
        "hand": "right"
      },
      {
        "midi": 79,
        "time": 30.955,
        "duration": 0.273,
        "velocity": 0.71,
        "hand": "right"
      },
      {
        "midi": 57,
        "time": 31.227,
        "duration": 0.545,
        "velocity": 0.71,
        "hand": "left"
      },
      {
        "midi": 77,
        "time": 31.227,
        "duration": 0.273,
        "velocity": 0.71,
        "hand": "right"
      },
      {
        "midi": 75,
        "time": 31.5,
        "duration": 0.273,
        "velocity": 0.71,
        "hand": "right"
      },
      {
        "midi": 58,
        "time": 31.773,
        "duration": 0.273,
        "velocity": 0.71,
        "hand": "left"
      },
      {
        "midi": 74,
        "time": 31.773,
        "duration": 0.545,
        "velocity": 0.71,
        "hand": "right"
      },
      {
        "midi": 62,
        "time": 32.045,
        "duration": 0.273,
        "velocity": 0.71,
        "hand": "right"
      },
      {
        "midi": 65,
        "time": 32.318,
        "duration": 0.273,
        "velocity": 0.71,
        "hand": "right"
      },
      {
        "midi": 67,
        "time": 32.591,
        "duration": 0.273,
        "velocity": 0.71,
        "hand": "right"
      },
      {
        "midi": 82,
        "time": 32.727,
        "duration": 0.136,
        "velocity": 0.71,
        "hand": "right"
      },
      {
        "midi": 68,
        "time": 32.864,
        "duration": 0.273,
        "velocity": 0.71,
        "hand": "right"
      },
      {
        "midi": 84,
        "time": 32.864,
        "duration": 0.545,
        "velocity": 0.71,
        "hand": "right"
      },
      {
        "midi": 72,
        "time": 33.136,
        "duration": 0.273,
        "velocity": 0.71,
        "hand": "right"
      },
      {
        "midi": 70,
        "time": 33.409,
        "duration": 0.273,
        "velocity": 0.71,
        "hand": "right"
      },
      {
        "midi": 74,
        "time": 33.409,
        "duration": 0.545,
        "velocity": 0.71,
        "hand": "right"
      },
      {
        "midi": 68,
        "time": 33.682,
        "duration": 0.273,
        "velocity": 0.71,
        "hand": "right"
      },
      {
        "midi": 46,
        "time": 33.818,
        "duration": 0.136,
        "velocity": 0.71,
        "hand": "left"
      },
      {
        "midi": 51,
        "time": 33.955,
        "duration": 0.545,
        "velocity": 0.71,
        "hand": "left"
      },
      {
        "midi": 67,
        "time": 33.955,
        "duration": 0.545,
        "velocity": 0.71,
        "hand": "right"
      },
      {
        "midi": 75,
        "time": 33.955,
        "duration": 0.273,
        "velocity": 0.71,
        "hand": "right"
      },
      {
        "midi": 74,
        "time": 34.227,
        "duration": 0.273,
        "velocity": 0.71,
        "hand": "right"
      },
      {
        "midi": 51,
        "time": 34.5,
        "duration": 0.545,
        "velocity": 0.71,
        "hand": "left"
      },
      {
        "midi": 66,
        "time": 34.5,
        "duration": 0.545,
        "velocity": 0.71,
        "hand": "right"
      },
      {
        "midi": 72,
        "time": 34.5,
        "duration": 0.273,
        "velocity": 0.71,
        "hand": "right"
      },
      {
        "midi": 69,
        "time": 34.773,
        "duration": 0.273,
        "velocity": 0.71,
        "hand": "right"
      },
      {
        "midi": 50,
        "time": 35.045,
        "duration": 0.545,
        "velocity": 0.71,
        "hand": "left"
      },
      {
        "midi": 65,
        "time": 35.045,
        "duration": 0.545,
        "velocity": 0.71,
        "hand": "right"
      },
      {
        "midi": 70,
        "time": 35.045,
        "duration": 0.273,
        "velocity": 0.71,
        "hand": "right"
      },
      {
        "midi": 77,
        "time": 35.318,
        "duration": 0.273,
        "velocity": 0.71,
        "hand": "right"
      },
      {
        "midi": 70,
        "time": 35.591,
        "duration": 1.091,
        "velocity": 0.71,
        "hand": "right"
      },
      {
        "midi": 80,
        "time": 35.591,
        "duration": 0.273,
        "velocity": 0.71,
        "hand": "right"
      },
      {
        "midi": 79,
        "time": 35.864,
        "duration": 0.273,
        "velocity": 0.71,
        "hand": "right"
      },
      {
        "midi": 51,
        "time": 36,
        "duration": 0.136,
        "velocity": 0.71,
        "hand": "left"
      },
      {
        "midi": 56,
        "time": 36.136,
        "duration": 0.545,
        "velocity": 0.71,
        "hand": "left"
      },
      {
        "midi": 77,
        "time": 36.136,
        "duration": 0.273,
        "velocity": 0.71,
        "hand": "right"
      },
      {
        "midi": 75,
        "time": 36.409,
        "duration": 0.273,
        "velocity": 0.71,
        "hand": "right"
      },
      {
        "midi": 56,
        "time": 36.682,
        "duration": 0.545,
        "velocity": 0.71,
        "hand": "left"
      },
      {
        "midi": 71,
        "time": 36.682,
        "duration": 0.545,
        "velocity": 0.71,
        "hand": "right"
      },
      {
        "midi": 74,
        "time": 36.682,
        "duration": 0.273,
        "velocity": 0.71,
        "hand": "right"
      },
      {
        "midi": 77,
        "time": 36.955,
        "duration": 0.273,
        "velocity": 0.71,
        "hand": "right"
      },
      {
        "midi": 55,
        "time": 37.227,
        "duration": 0.545,
        "velocity": 0.71,
        "hand": "left"
      },
      {
        "midi": 70,
        "time": 37.227,
        "duration": 0.545,
        "velocity": 0.71,
        "hand": "right"
      },
      {
        "midi": 75,
        "time": 37.227,
        "duration": 0.273,
        "velocity": 0.71,
        "hand": "right"
      },
      {
        "midi": 82,
        "time": 37.5,
        "duration": 0.273,
        "velocity": 0.71,
        "hand": "right"
      },
      {
        "midi": 79,
        "time": 37.773,
        "duration": 0.818,
        "velocity": 0.71,
        "hand": "right"
      },
      {
        "midi": 87,
        "time": 37.773,
        "duration": 0.273,
        "velocity": 0.71,
        "hand": "right"
      },
      {
        "midi": 82,
        "time": 38.045,
        "duration": 0.273,
        "velocity": 0.71,
        "hand": "right"
      },
      {
        "midi": 58,
        "time": 38.182,
        "duration": 0.136,
        "velocity": 0.71,
        "hand": "left"
      },
      {
        "midi": 63,
        "time": 38.318,
        "duration": 0.273,
        "velocity": 0.71,
        "hand": "right"
      },
      {
        "midi": 84,
        "time": 38.318,
        "duration": 0.273,
        "velocity": 0.71,
        "hand": "right"
      },
      {
        "midi": 62,
        "time": 38.591,
        "duration": 0.273,
        "velocity": 0.71,
        "hand": "right"
      },
      {
        "midi": 77,
        "time": 38.591,
        "duration": 0.273,
        "velocity": 0.71,
        "hand": "right"
      },
      {
        "midi": 82,
        "time": 38.591,
        "duration": 0.273,
        "velocity": 0.71,
        "hand": "right"
      },
      {
        "midi": 60,
        "time": 38.864,
        "duration": 0.273,
        "velocity": 0.71,
        "hand": "right"
      },
      {
        "midi": 75,
        "time": 38.864,
        "duration": 0.273,
        "velocity": 0.71,
        "hand": "right"
      },
      {
        "midi": 80,
        "time": 38.864,
        "duration": 0.273,
        "velocity": 0.71,
        "hand": "right"
      },
      {
        "midi": 58,
        "time": 39.136,
        "duration": 0.273,
        "velocity": 0.71,
        "hand": "left"
      },
      {
        "midi": 74,
        "time": 39.136,
        "duration": 0.273,
        "velocity": 0.71,
        "hand": "right"
      },
      {
        "midi": 79,
        "time": 39.136,
        "duration": 0.273,
        "velocity": 0.71,
        "hand": "right"
      },
      {
        "midi": 56,
        "time": 39.409,
        "duration": 0.273,
        "velocity": 0.71,
        "hand": "left"
      },
      {
        "midi": 72,
        "time": 39.409,
        "duration": 0.273,
        "velocity": 0.71,
        "hand": "right"
      },
      {
        "midi": 77,
        "time": 39.409,
        "duration": 0.273,
        "velocity": 0.71,
        "hand": "right"
      },
      {
        "midi": 55,
        "time": 39.682,
        "duration": 0.273,
        "velocity": 0.71,
        "hand": "left"
      },
      {
        "midi": 70,
        "time": 39.682,
        "duration": 0.273,
        "velocity": 0.71,
        "hand": "right"
      },
      {
        "midi": 75,
        "time": 39.682,
        "duration": 0.273,
        "velocity": 0.71,
        "hand": "right"
      },
      {
        "midi": 53,
        "time": 39.955,
        "duration": 0.273,
        "velocity": 0.71,
        "hand": "left"
      },
      {
        "midi": 68,
        "time": 39.955,
        "duration": 0.273,
        "velocity": 0.71,
        "hand": "right"
      },
      {
        "midi": 74,
        "time": 39.955,
        "duration": 0.273,
        "velocity": 0.71,
        "hand": "right"
      },
      {
        "midi": 51,
        "time": 40.227,
        "duration": 0.273,
        "velocity": 0.71,
        "hand": "left"
      },
      {
        "midi": 67,
        "time": 40.227,
        "duration": 0.273,
        "velocity": 0.71,
        "hand": "right"
      },
      {
        "midi": 72,
        "time": 40.227,
        "duration": 0.273,
        "velocity": 0.71,
        "hand": "right"
      },
      {
        "midi": 50,
        "time": 40.5,
        "duration": 0.273,
        "velocity": 0.71,
        "hand": "left"
      },
      {
        "midi": 65,
        "time": 40.5,
        "duration": 0.273,
        "velocity": 0.71,
        "hand": "right"
      },
      {
        "midi": 70,
        "time": 40.5,
        "duration": 0.273,
        "velocity": 0.71,
        "hand": "right"
      },
      {
        "midi": 48,
        "time": 40.773,
        "duration": 0.273,
        "velocity": 0.71,
        "hand": "left"
      },
      {
        "midi": 63,
        "time": 40.773,
        "duration": 0.273,
        "velocity": 0.71,
        "hand": "right"
      },
      {
        "midi": 68,
        "time": 40.773,
        "duration": 0.273,
        "velocity": 0.71,
        "hand": "right"
      },
      {
        "midi": 46,
        "time": 41.045,
        "duration": 0.273,
        "velocity": 0.71,
        "hand": "left"
      },
      {
        "midi": 62,
        "time": 41.045,
        "duration": 0.273,
        "velocity": 0.71,
        "hand": "right"
      },
      {
        "midi": 67,
        "time": 41.045,
        "duration": 0.273,
        "velocity": 0.71,
        "hand": "right"
      },
      {
        "midi": 44,
        "time": 41.318,
        "duration": 0.273,
        "velocity": 0.71,
        "hand": "left"
      },
      {
        "midi": 60,
        "time": 41.318,
        "duration": 0.273,
        "velocity": 0.71,
        "hand": "right"
      },
      {
        "midi": 65,
        "time": 41.318,
        "duration": 0.273,
        "velocity": 0.71,
        "hand": "right"
      },
      {
        "midi": 43,
        "time": 41.591,
        "duration": 0.273,
        "velocity": 0.71,
        "hand": "left"
      },
      {
        "midi": 58,
        "time": 41.591,
        "duration": 0.545,
        "velocity": 0.71,
        "hand": "left"
      },
      {
        "midi": 63,
        "time": 41.591,
        "duration": 0.545,
        "velocity": 0.71,
        "hand": "right"
      },
      {
        "midi": 46,
        "time": 41.864,
        "duration": 0.273,
        "velocity": 0.71,
        "hand": "left"
      },
      {
        "midi": 51,
        "time": 42.136,
        "duration": 0.273,
        "velocity": 0.71,
        "hand": "left"
      },
      {
        "midi": 55,
        "time": 42.409,
        "duration": 0.273,
        "velocity": 0.71,
        "hand": "left"
      },
      {
        "midi": 63,
        "time": 42.545,
        "duration": 0.136,
        "velocity": 0.71,
        "hand": "right"
      },
      {
        "midi": 70,
        "time": 42.545,
        "duration": 0.136,
        "velocity": 0.71,
        "hand": "right"
      },
      {
        "midi": 56,
        "time": 42.682,
        "duration": 0.273,
        "velocity": 0.71,
        "hand": "left"
      },
      {
        "midi": 63,
        "time": 42.682,
        "duration": 0.545,
        "velocity": 0.71,
        "hand": "right"
      },
      {
        "midi": 72,
        "time": 42.682,
        "duration": 0.545,
        "velocity": 0.71,
        "hand": "right"
      },
      {
        "midi": 60,
        "time": 42.955,
        "duration": 0.273,
        "velocity": 0.71,
        "hand": "right"
      },
      {
        "midi": 58,
        "time": 43.227,
        "duration": 0.273,
        "velocity": 0.71,
        "hand": "left"
      },
      {
        "midi": 62,
        "time": 43.227,
        "duration": 0.545,
        "velocity": 0.71,
        "hand": "right"
      },
      {
        "midi": 65,
        "time": 43.227,
        "duration": 0.545,
        "velocity": 0.71,
        "hand": "right"
      },
      {
        "midi": 56,
        "time": 43.5,
        "duration": 0.273,
        "velocity": 0.71,
        "hand": "left"
      },
      {
        "midi": 55,
        "time": 43.773,
        "duration": 0.273,
        "velocity": 0.71,
        "hand": "left"
      },
      {
        "midi": 63,
        "time": 43.773,
        "duration": 0.545,
        "velocity": 0.71,
        "hand": "right"
      },
      {
        "midi": 67,
        "time": 43.773,
        "duration": 0.545,
        "velocity": 0.71,
        "hand": "right"
      },
      {
        "midi": 51,
        "time": 44.045,
        "duration": 0.273,
        "velocity": 0.71,
        "hand": "left"
      },
      {
        "midi": 55,
        "time": 44.318,
        "duration": 0.273,
        "velocity": 0.71,
        "hand": "left"
      },
      {
        "midi": 57,
        "time": 44.591,
        "duration": 0.273,
        "velocity": 0.71,
        "hand": "left"
      },
      {
        "midi": 66,
        "time": 44.727,
        "duration": 0.136,
        "velocity": 0.71,
        "hand": "right"
      },
      {
        "midi": 72,
        "time": 44.727,
        "duration": 0.136,
        "velocity": 0.71,
        "hand": "right"
      },
      {
        "midi": 58,
        "time": 44.864,
        "duration": 0.273,
        "velocity": 0.71,
        "hand": "left"
      },
      {
        "midi": 65,
        "time": 44.864,
        "duration": 0.545,
        "velocity": 0.71,
        "hand": "right"
      },
      {
        "midi": 73,
        "time": 44.864,
        "duration": 0.545,
        "velocity": 0.71,
        "hand": "right"
      },
      {
        "midi": 61,
        "time": 45.136,
        "duration": 0.273,
        "velocity": 0.71,
        "hand": "right"
      },
      {
        "midi": 60,
        "time": 45.409,
        "duration": 0.273,
        "velocity": 0.71,
        "hand": "right"
      },
      {
        "midi": 64,
        "time": 45.409,
        "duration": 0.545,
        "velocity": 0.71,
        "hand": "right"
      },
      {
        "midi": 67,
        "time": 45.409,
        "duration": 0.545,
        "velocity": 0.71,
        "hand": "right"
      },
      {
        "midi": 58,
        "time": 45.682,
        "duration": 0.273,
        "velocity": 0.71,
        "hand": "left"
      },
      {
        "midi": 56,
        "time": 45.955,
        "duration": 0.273,
        "velocity": 0.71,
        "hand": "left"
      },
      {
        "midi": 65,
        "time": 45.955,
        "duration": 0.545,
        "velocity": 0.71,
        "hand": "right"
      },
      {
        "midi": 68,
        "time": 45.955,
        "duration": 0.545,
        "velocity": 0.71,
        "hand": "right"
      },
      {
        "midi": 53,
        "time": 46.227,
        "duration": 0.273,
        "velocity": 0.71,
        "hand": "left"
      },
      {
        "midi": 56,
        "time": 46.5,
        "duration": 0.273,
        "velocity": 0.71,
        "hand": "left"
      },
      {
        "midi": 59,
        "time": 46.773,
        "duration": 0.273,
        "velocity": 0.71,
        "hand": "left"
      },
      {
        "midi": 68,
        "time": 46.909,
        "duration": 0.136,
        "velocity": 0.71,
        "hand": "right"
      },
      {
        "midi": 74,
        "time": 46.909,
        "duration": 0.136,
        "velocity": 0.71,
        "hand": "right"
      },
      {
        "midi": 60,
        "time": 47.045,
        "duration": 0.273,
        "velocity": 0.71,
        "hand": "right"
      },
      {
        "midi": 67,
        "time": 47.045,
        "duration": 0.545,
        "velocity": 0.71,
        "hand": "right"
      },
      {
        "midi": 75,
        "time": 47.045,
        "duration": 0.545,
        "velocity": 0.71,
        "hand": "right"
      },
      {
        "midi": 63,
        "time": 47.318,
        "duration": 0.273,
        "velocity": 0.71,
        "hand": "right"
      },
      {
        "midi": 62,
        "time": 47.591,
        "duration": 0.273,
        "velocity": 0.71,
        "hand": "right"
      },
      {
        "midi": 66,
        "time": 47.591,
        "duration": 0.545,
        "velocity": 0.71,
        "hand": "right"
      },
      {
        "midi": 69,
        "time": 47.591,
        "duration": 0.545,
        "velocity": 0.71,
        "hand": "right"
      },
      {
        "midi": 60,
        "time": 47.864,
        "duration": 0.273,
        "velocity": 0.71,
        "hand": "right"
      },
      {
        "midi": 59,
        "time": 48.136,
        "duration": 0.545,
        "velocity": 0.71,
        "hand": "left"
      },
      {
        "midi": 67,
        "time": 48.136,
        "duration": 0.273,
        "velocity": 0.71,
        "hand": "right"
      },
      {
        "midi": 71,
        "time": 48.136,
        "duration": 0.273,
        "velocity": 0.71,
        "hand": "right"
      },
      {
        "midi": 67,
        "time": 48.409,
        "duration": 0.273,
        "velocity": 0.71,
        "hand": "right"
      },
      {
        "midi": 71,
        "time": 48.682,
        "duration": 0.273,
        "velocity": 0.71,
        "hand": "right"
      },
      {
        "midi": 74,
        "time": 48.955,
        "duration": 0.273,
        "velocity": 0.71,
        "hand": "right"
      },
      {
        "midi": 55,
        "time": 49.091,
        "duration": 0.136,
        "velocity": 0.71,
        "hand": "left"
      },
      {
        "midi": 56,
        "time": 49.227,
        "duration": 0.545,
        "velocity": 0.71,
        "hand": "left"
      },
      {
        "midi": 77,
        "time": 49.227,
        "duration": 0.273,
        "velocity": 0.71,
        "hand": "right"
      },
      {
        "midi": 80,
        "time": 49.5,
        "duration": 0.273,
        "velocity": 0.71,
        "hand": "right"
      },
      {
        "midi": 47,
        "time": 49.773,
        "duration": 0.545,
        "velocity": 0.71,
        "hand": "left"
      },
      {
        "midi": 79,
        "time": 49.773,
        "duration": 0.273,
        "velocity": 0.71,
        "hand": "right"
      },
      {
        "midi": 77,
        "time": 50.045,
        "duration": 0.273,
        "velocity": 0.71,
        "hand": "right"
      },
      {
        "midi": 55,
        "time": 50.182,
        "duration": 0.136,
        "velocity": 0.71,
        "hand": "left"
      },
      {
        "midi": 48,
        "time": 50.318,
        "duration": 0.273,
        "velocity": 0.71,
        "hand": "left"
      },
      {
        "midi": 60,
        "time": 50.318,
        "duration": 0.545,
        "velocity": 0.71,
        "hand": "right"
      },
      {
        "midi": 77,
        "time": 50.318,
        "duration": 0.545,
        "velocity": 0.71,
        "hand": "right"
      },
      {
        "midi": 50,
        "time": 50.591,
        "duration": 0.273,
        "velocity": 0.71,
        "hand": "left"
      },
      {
        "midi": 51,
        "time": 50.864,
        "duration": 0.273,
        "velocity": 0.71,
        "hand": "left"
      },
      {
        "midi": 60,
        "time": 50.864,
        "duration": 0.545,
        "velocity": 0.71,
        "hand": "right"
      },
      {
        "midi": 75,
        "time": 50.864,
        "duration": 0.545,
        "velocity": 0.71,
        "hand": "right"
      },
      {
        "midi": 53,
        "time": 51.136,
        "duration": 0.273,
        "velocity": 0.71,
        "hand": "left"
      },
      {
        "midi": 55,
        "time": 51.409,
        "duration": 0.273,
        "velocity": 0.71,
        "hand": "left"
      },
      {
        "midi": 59,
        "time": 51.409,
        "duration": 0.545,
        "velocity": 0.71,
        "hand": "left"
      },
      {
        "midi": 74,
        "time": 51.409,
        "duration": 0.273,
        "velocity": 0.71,
        "hand": "right"
      },
      {
        "midi": 56,
        "time": 51.682,
        "duration": 0.273,
        "velocity": 0.71,
        "hand": "left"
      },
      {
        "midi": 65,
        "time": 51.682,
        "duration": 0.273,
        "velocity": 0.71,
        "hand": "right"
      },
      {
        "midi": 53,
        "time": 51.955,
        "duration": 0.273,
        "velocity": 0.71,
        "hand": "left"
      },
      {
        "midi": 68,
        "time": 51.955,
        "duration": 1.091,
        "velocity": 0.71,
        "hand": "right"
      },
      {
        "midi": 50,
        "time": 52.227,
        "duration": 0.273,
        "velocity": 0.71,
        "hand": "left"
      },
      {
        "midi": 60,
        "time": 52.364,
        "duration": 0.136,
        "velocity": 0.71,
        "hand": "right"
      },
      {
        "midi": 47,
        "time": 52.5,
        "duration": 0.273,
        "velocity": 0.71,
        "hand": "left"
      },
      {
        "midi": 65,
        "time": 52.5,
        "duration": 0.545,
        "velocity": 0.71,
        "hand": "right"
      },
      {
        "midi": 43,
        "time": 52.773,
        "duration": 0.273,
        "velocity": 0.71,
        "hand": "left"
      },
      {
        "midi": 45,
        "time": 53.045,
        "duration": 0.273,
        "velocity": 0.71,
        "hand": "left"
      },
      {
        "midi": 65,
        "time": 53.045,
        "duration": 0.545,
        "velocity": 0.71,
        "hand": "right"
      },
      {
        "midi": 67,
        "time": 53.045,
        "duration": 0.818,
        "velocity": 0.71,
        "hand": "right"
      },
      {
        "midi": 47,
        "time": 53.318,
        "duration": 0.273,
        "velocity": 0.71,
        "hand": "left"
      },
      {
        "midi": 48,
        "time": 53.591,
        "duration": 0.273,
        "velocity": 0.71,
        "hand": "left"
      },
      {
        "midi": 63,
        "time": 53.591,
        "duration": 0.545,
        "velocity": 0.71,
        "hand": "right"
      },
      {
        "midi": 60,
        "time": 53.864,
        "duration": 0.273,
        "velocity": 0.71,
        "hand": "right"
      },
      {
        "midi": 79,
        "time": 53.864,
        "duration": 0.273,
        "velocity": 0.71,
        "hand": "right"
      },
      {
        "midi": 62,
        "time": 54.136,
        "duration": 0.273,
        "velocity": 0.71,
        "hand": "right"
      },
      {
        "midi": 84,
        "time": 54.136,
        "duration": 0.273,
        "velocity": 0.71,
        "hand": "right"
      },
      {
        "midi": 64,
        "time": 54.409,
        "duration": 0.273,
        "velocity": 0.71,
        "hand": "right"
      },
      {
        "midi": 82,
        "time": 54.409,
        "duration": 0.273,
        "velocity": 0.71,
        "hand": "right"
      },
      {
        "midi": 67,
        "time": 54.545,
        "duration": 0.136,
        "velocity": 0.71,
        "hand": "right"
      },
      {
        "midi": 65,
        "time": 54.682,
        "duration": 0.545,
        "velocity": 0.71,
        "hand": "right"
      },
      {
        "midi": 72,
        "time": 54.682,
        "duration": 0.273,
        "velocity": 0.71,
        "hand": "right"
      },
      {
        "midi": 80,
        "time": 54.682,
        "duration": 0.273,
        "velocity": 0.71,
        "hand": "right"
      },
      {
        "midi": 70,
        "time": 54.955,
        "duration": 0.273,
        "velocity": 0.71,
        "hand": "right"
      },
      {
        "midi": 79,
        "time": 54.955,
        "duration": 0.273,
        "velocity": 0.71,
        "hand": "right"
      },
      {
        "midi": 53,
        "time": 55.227,
        "duration": 0.273,
        "velocity": 0.71,
        "hand": "left"
      },
      {
        "midi": 68,
        "time": 55.227,
        "duration": 0.273,
        "velocity": 0.71,
        "hand": "right"
      },
      {
        "midi": 77,
        "time": 55.227,
        "duration": 0.273,
        "velocity": 0.71,
        "hand": "right"
      },
      {
        "midi": 55,
        "time": 55.5,
        "duration": 0.273,
        "velocity": 0.71,
        "hand": "left"
      },
      {
        "midi": 67,
        "time": 55.5,
        "duration": 0.273,
        "velocity": 0.71,
        "hand": "right"
      },
      {
        "midi": 75,
        "time": 55.5,
        "duration": 0.273,
        "velocity": 0.71,
        "hand": "right"
      },
      {
        "midi": 56,
        "time": 55.773,
        "duration": 0.545,
        "velocity": 0.71,
        "hand": "left"
      },
      {
        "midi": 65,
        "time": 55.773,
        "duration": 0.273,
        "velocity": 0.71,
        "hand": "right"
      },
      {
        "midi": 74,
        "time": 55.773,
        "duration": 0.273,
        "velocity": 0.71,
        "hand": "right"
      },
      {
        "midi": 63,
        "time": 56.045,
        "duration": 0.273,
        "velocity": 0.71,
        "hand": "right"
      },
      {
        "midi": 72,
        "time": 56.045,
        "duration": 0.273,
        "velocity": 0.71,
        "hand": "right"
      },
      {
        "midi": 50,
        "time": 56.318,
        "duration": 0.273,
        "velocity": 0.71,
        "hand": "left"
      },
      {
        "midi": 62,
        "time": 56.318,
        "duration": 0.273,
        "velocity": 0.71,
        "hand": "right"
      },
      {
        "midi": 71,
        "time": 56.318,
        "duration": 0.273,
        "velocity": 0.71,
        "hand": "right"
      },
      {
        "midi": 51,
        "time": 56.591,
        "duration": 0.273,
        "velocity": 0.71,
        "hand": "left"
      },
      {
        "midi": 60,
        "time": 56.591,
        "duration": 0.273,
        "velocity": 0.71,
        "hand": "right"
      },
      {
        "midi": 68,
        "time": 56.591,
        "duration": 0.273,
        "velocity": 0.71,
        "hand": "right"
      },
      {
        "midi": 53,
        "time": 56.864,
        "duration": 0.545,
        "velocity": 0.71,
        "hand": "left"
      },
      {
        "midi": 59,
        "time": 56.864,
        "duration": 0.273,
        "velocity": 0.71,
        "hand": "left"
      },
      {
        "midi": 67,
        "time": 56.864,
        "duration": 0.273,
        "velocity": 0.71,
        "hand": "right"
      },
      {
        "midi": 56,
        "time": 57.136,
        "duration": 0.273,
        "velocity": 0.71,
        "hand": "left"
      },
      {
        "midi": 65,
        "time": 57.136,
        "duration": 0.273,
        "velocity": 0.71,
        "hand": "right"
      },
      {
        "midi": 45,
        "time": 57.409,
        "duration": 0.273,
        "velocity": 0.71,
        "hand": "left"
      },
      {
        "midi": 55,
        "time": 57.409,
        "duration": 0.273,
        "velocity": 0.71,
        "hand": "left"
      },
      {
        "midi": 63,
        "time": 57.409,
        "duration": 0.273,
        "velocity": 0.71,
        "hand": "right"
      },
      {
        "midi": 47,
        "time": 57.682,
        "duration": 0.273,
        "velocity": 0.71,
        "hand": "left"
      },
      {
        "midi": 53,
        "time": 57.682,
        "duration": 0.273,
        "velocity": 0.71,
        "hand": "left"
      },
      {
        "midi": 62,
        "time": 57.682,
        "duration": 0.273,
        "velocity": 0.71,
        "hand": "right"
      },
      {
        "midi": 48,
        "time": 57.955,
        "duration": 0.273,
        "velocity": 0.71,
        "hand": "left"
      },
      {
        "midi": 51,
        "time": 57.955,
        "duration": 0.273,
        "velocity": 0.71,
        "hand": "left"
      },
      {
        "midi": 60,
        "time": 57.955,
        "duration": 1.091,
        "velocity": 0.71,
        "hand": "right"
      },
      {
        "midi": 46,
        "time": 58.227,
        "duration": 0.273,
        "velocity": 0.71,
        "hand": "left"
      },
      {
        "midi": 52,
        "time": 58.227,
        "duration": 0.273,
        "velocity": 0.71,
        "hand": "left"
      },
      {
        "midi": 45,
        "time": 58.5,
        "duration": 0.273,
        "velocity": 0.71,
        "hand": "left"
      },
      {
        "midi": 53,
        "time": 58.5,
        "duration": 0.273,
        "velocity": 0.71,
        "hand": "left"
      },
      {
        "midi": 44,
        "time": 58.773,
        "duration": 0.273,
        "velocity": 0.71,
        "hand": "left"
      },
      {
        "midi": 54,
        "time": 58.773,
        "duration": 0.273,
        "velocity": 0.71,
        "hand": "left"
      },
      {
        "midi": 43,
        "time": 59.045,
        "duration": 0.273,
        "velocity": 0.71,
        "hand": "left"
      },
      {
        "midi": 55,
        "time": 59.045,
        "duration": 1.091,
        "velocity": 0.71,
        "hand": "left"
      },
      {
        "midi": 59,
        "time": 59.045,
        "duration": 0.545,
        "velocity": 0.71,
        "hand": "left"
      },
      {
        "midi": 50,
        "time": 59.318,
        "duration": 0.273,
        "velocity": 0.71,
        "hand": "left"
      },
      {
        "midi": 53,
        "time": 59.591,
        "duration": 0.273,
        "velocity": 0.71,
        "hand": "left"
      },
      {
        "midi": 51,
        "time": 59.864,
        "duration": 0.273,
        "velocity": 0.71,
        "hand": "left"
      },
      {
        "midi": 60,
        "time": 60,
        "duration": 0.136,
        "velocity": 0.71,
        "hand": "right"
      },
      {
        "midi": 50,
        "time": 60.136,
        "duration": 0.273,
        "velocity": 0.71,
        "hand": "left"
      },
      {
        "midi": 59,
        "time": 60.136,
        "duration": 0.273,
        "velocity": 0.71,
        "hand": "left"
      },
      {
        "midi": 67,
        "time": 60.136,
        "duration": 0.545,
        "velocity": 0.71,
        "hand": "right"
      },
      {
        "midi": 47,
        "time": 60.409,
        "duration": 0.273,
        "velocity": 0.71,
        "hand": "left"
      },
      {
        "midi": 62,
        "time": 60.409,
        "duration": 0.273,
        "velocity": 0.71,
        "hand": "right"
      },
      {
        "midi": 48,
        "time": 60.682,
        "duration": 0.273,
        "velocity": 0.71,
        "hand": "left"
      },
      {
        "midi": 63,
        "time": 60.682,
        "duration": 0.273,
        "velocity": 0.71,
        "hand": "right"
      },
      {
        "midi": 67,
        "time": 60.682,
        "duration": 0.545,
        "velocity": 0.71,
        "hand": "right"
      },
      {
        "midi": 45,
        "time": 60.955,
        "duration": 0.273,
        "velocity": 0.71,
        "hand": "left"
      },
      {
        "midi": 60,
        "time": 60.955,
        "duration": 0.273,
        "velocity": 0.71,
        "hand": "right"
      },
      {
        "midi": 50,
        "time": 61.227,
        "duration": 0.273,
        "velocity": 0.71,
        "hand": "left"
      },
      {
        "midi": 62,
        "time": 61.227,
        "duration": 1.091,
        "velocity": 0.71,
        "hand": "right"
      },
      {
        "midi": 66,
        "time": 61.227,
        "duration": 0.545,
        "velocity": 0.71,
        "hand": "right"
      },
      {
        "midi": 57,
        "time": 61.5,
        "duration": 0.273,
        "velocity": 0.71,
        "hand": "left"
      },
      {
        "midi": 60,
        "time": 61.773,
        "duration": 0.273,
        "velocity": 0.71,
        "hand": "right"
      },
      {
        "midi": 58,
        "time": 62.045,
        "duration": 0.273,
        "velocity": 0.71,
        "hand": "left"
      },
      {
        "midi": 67,
        "time": 62.182,
        "duration": 0.136,
        "velocity": 0.71,
        "hand": "right"
      },
      {
        "midi": 57,
        "time": 62.318,
        "duration": 0.273,
        "velocity": 0.71,
        "hand": "left"
      },
      {
        "midi": 66,
        "time": 62.318,
        "duration": 0.273,
        "velocity": 0.71,
        "hand": "right"
      },
      {
        "midi": 72,
        "time": 62.318,
        "duration": 0.545,
        "velocity": 0.71,
        "hand": "right"
      },
      {
        "midi": 55,
        "time": 62.591,
        "duration": 0.273,
        "velocity": 0.71,
        "hand": "left"
      },
      {
        "midi": 67,
        "time": 62.591,
        "duration": 0.273,
        "velocity": 0.71,
        "hand": "right"
      },
      {
        "midi": 54,
        "time": 62.864,
        "duration": 0.273,
        "velocity": 0.71,
        "hand": "left"
      },
      {
        "midi": 69,
        "time": 62.864,
        "duration": 0.273,
        "velocity": 0.71,
        "hand": "right"
      },
      {
        "midi": 72,
        "time": 62.864,
        "duration": 0.545,
        "velocity": 0.71,
        "hand": "right"
      },
      {
        "midi": 50,
        "time": 63.136,
        "duration": 0.273,
        "velocity": 0.71,
        "hand": "left"
      },
      {
        "midi": 66,
        "time": 63.136,
        "duration": 0.273,
        "velocity": 0.71,
        "hand": "right"
      },
      {
        "midi": 55,
        "time": 63.409,
        "duration": 0.273,
        "velocity": 0.71,
        "hand": "left"
      },
      {
        "midi": 67,
        "time": 63.409,
        "duration": 1.091,
        "velocity": 0.71,
        "hand": "right"
      },
      {
        "midi": 70,
        "time": 63.409,
        "duration": 0.545,
        "velocity": 0.71,
        "hand": "right"
      },
      {
        "midi": 62,
        "time": 63.682,
        "duration": 0.273,
        "velocity": 0.71,
        "hand": "right"
      },
      {
        "midi": 67,
        "time": 63.955,
        "duration": 0.273,
        "velocity": 0.71,
        "hand": "right"
      },
      {
        "midi": 65,
        "time": 64.227,
        "duration": 0.273,
        "velocity": 0.71,
        "hand": "right"
      },
      {
        "midi": 74,
        "time": 64.364,
        "duration": 0.136,
        "velocity": 0.71,
        "hand": "right"
      },
      {
        "midi": 63,
        "time": 64.5,
        "duration": 0.273,
        "velocity": 0.71,
        "hand": "right"
      },
      {
        "midi": 79,
        "time": 64.5,
        "duration": 0.273,
        "velocity": 0.71,
        "hand": "right"
      },
      {
        "midi": 62,
        "time": 64.773,
        "duration": 0.273,
        "velocity": 0.71,
        "hand": "right"
      },
      {
        "midi": 77,
        "time": 64.773,
        "duration": 0.273,
        "velocity": 0.71,
        "hand": "right"
      },
      {
        "midi": 60,
        "time": 65.045,
        "duration": 0.273,
        "velocity": 0.71,
        "hand": "right"
      },
      {
        "midi": 75,
        "time": 65.045,
        "duration": 0.273,
        "velocity": 0.71,
        "hand": "right"
      },
      {
        "midi": 58,
        "time": 65.318,
        "duration": 0.273,
        "velocity": 0.71,
        "hand": "left"
      },
      {
        "midi": 74,
        "time": 65.318,
        "duration": 0.273,
        "velocity": 0.71,
        "hand": "right"
      },
      {
        "midi": 57,
        "time": 65.591,
        "duration": 0.273,
        "velocity": 0.71,
        "hand": "left"
      },
      {
        "midi": 66,
        "time": 65.591,
        "duration": 0.273,
        "velocity": 0.71,
        "hand": "right"
      },
      {
        "midi": 72,
        "time": 65.591,
        "duration": 0.273,
        "velocity": 0.71,
        "hand": "right"
      },
      {
        "midi": 55,
        "time": 65.864,
        "duration": 0.273,
        "velocity": 0.71,
        "hand": "left"
      },
      {
        "midi": 67,
        "time": 65.864,
        "duration": 0.273,
        "velocity": 0.71,
        "hand": "right"
      },
      {
        "midi": 70,
        "time": 65.864,
        "duration": 0.273,
        "velocity": 0.71,
        "hand": "right"
      },
      {
        "midi": 48,
        "time": 66.136,
        "duration": 0.273,
        "velocity": 0.71,
        "hand": "left"
      },
      {
        "midi": 63,
        "time": 66.136,
        "duration": 0.273,
        "velocity": 0.71,
        "hand": "right"
      },
      {
        "midi": 69,
        "time": 66.136,
        "duration": 0.273,
        "velocity": 0.71,
        "hand": "right"
      },
      {
        "midi": 51,
        "time": 66.409,
        "duration": 0.273,
        "velocity": 0.71,
        "hand": "left"
      },
      {
        "midi": 60,
        "time": 66.409,
        "duration": 0.273,
        "velocity": 0.71,
        "hand": "right"
      },
      {
        "midi": 67,
        "time": 66.409,
        "duration": 0.273,
        "velocity": 0.71,
        "hand": "right"
      },
      {
        "midi": 50,
        "time": 66.682,
        "duration": 0.273,
        "velocity": 0.71,
        "hand": "left"
      },
      {
        "midi": 57,
        "time": 66.682,
        "duration": 0.545,
        "velocity": 0.71,
        "hand": "left"
      },
      {
        "midi": 66,
        "time": 66.682,
        "duration": 0.273,
        "velocity": 0.71,
        "hand": "right"
      },
      {
        "midi": 48,
        "time": 66.955,
        "duration": 0.273,
        "velocity": 0.71,
        "hand": "left"
      },
      {
        "midi": 63,
        "time": 66.955,
        "duration": 0.273,
        "velocity": 0.71,
        "hand": "right"
      },
      {
        "midi": 46,
        "time": 67.227,
        "duration": 0.273,
        "velocity": 0.71,
        "hand": "left"
      },
      {
        "midi": 54,
        "time": 67.227,
        "duration": 0.545,
        "velocity": 0.71,
        "hand": "left"
      },
      {
        "midi": 62,
        "time": 67.227,
        "duration": 0.273,
        "velocity": 0.71,
        "hand": "right"
      },
      {
        "midi": 45,
        "time": 67.5,
        "duration": 0.273,
        "velocity": 0.71,
        "hand": "left"
      },
      {
        "midi": 60,
        "time": 67.5,
        "duration": 0.273,
        "velocity": 0.71,
        "hand": "right"
      },
      {
        "midi": 43,
        "time": 67.773,
        "duration": 0.545,
        "velocity": 0.71,
        "hand": "left"
      },
      {
        "midi": 55,
        "time": 67.773,
        "duration": 0.545,
        "velocity": 0.71,
        "hand": "left"
      },
      {
        "midi": 58,
        "time": 67.773,
        "duration": 0.273,
        "velocity": 0.71,
        "hand": "left"
      },
      {
        "midi": 62,
        "time": 68.045,
        "duration": 0.273,
        "velocity": 0.71,
        "hand": "right"
      },
      {
        "midi": 67,
        "time": 68.318,
        "duration": 0.273,
        "velocity": 0.71,
        "hand": "right"
      },
      {
        "midi": 70,
        "time": 68.591,
        "duration": 0.273,
        "velocity": 0.71,
        "hand": "right"
      },
      {
        "midi": 55,
        "time": 68.727,
        "duration": 0.136,
        "velocity": 0.71,
        "hand": "left"
      },
      {
        "midi": 62,
        "time": 68.727,
        "duration": 0.136,
        "velocity": 0.71,
        "hand": "right"
      },
      {
        "midi": 48,
        "time": 68.864,
        "duration": 0.545,
        "velocity": 0.71,
        "hand": "left"
      },
      {
        "midi": 63,
        "time": 68.864,
        "duration": 0.545,
        "velocity": 0.71,
        "hand": "right"
      },
      {
        "midi": 68,
        "time": 68.864,
        "duration": 0.273,
        "velocity": 0.71,
        "hand": "right"
      },
      {
        "midi": 72,
        "time": 69.136,
        "duration": 0.273,
        "velocity": 0.71,
        "hand": "right"
      },
      {
        "midi": 50,
        "time": 69.409,
        "duration": 0.273,
        "velocity": 0.71,
        "hand": "left"
      },
      {
        "midi": 65,
        "time": 69.409,
        "duration": 0.545,
        "velocity": 0.71,
        "hand": "right"
      },
      {
        "midi": 70,
        "time": 69.409,
        "duration": 0.273,
        "velocity": 0.71,
        "hand": "right"
      },
      {
        "midi": 68,
        "time": 69.682,
        "duration": 0.273,
        "velocity": 0.71,
        "hand": "right"
      },
      {
        "midi": 46,
        "time": 69.818,
        "duration": 0.136,
        "velocity": 0.71,
        "hand": "left"
      },
      {
        "midi": 51,
        "time": 69.955,
        "duration": 0.545,
        "velocity": 0.71,
        "hand": "left"
      },
      {
        "midi": 63,
        "time": 69.955,
        "duration": 0.273,
        "velocity": 0.71,
        "hand": "right"
      },
      {
        "midi": 67,
        "time": 69.955,
        "duration": 0.273,
        "velocity": 0.71,
        "hand": "right"
      },
      {
        "midi": 62,
        "time": 70.227,
        "duration": 0.273,
        "velocity": 0.71,
        "hand": "right"
      },
      {
        "midi": 65,
        "time": 70.227,
        "duration": 0.273,
        "velocity": 0.71,
        "hand": "right"
      },
      {
        "midi": 51,
        "time": 70.5,
        "duration": 0.545,
        "velocity": 0.71,
        "hand": "left"
      },
      {
        "midi": 60,
        "time": 70.5,
        "duration": 0.273,
        "velocity": 0.71,
        "hand": "right"
      },
      {
        "midi": 67,
        "time": 70.5,
        "duration": 0.273,
        "velocity": 0.71,
        "hand": "right"
      },
      {
        "midi": 65,
        "time": 70.773,
        "duration": 0.273,
        "velocity": 0.71,
        "hand": "right"
      },
      {
        "midi": 69,
        "time": 70.773,
        "duration": 0.273,
        "velocity": 0.71,
        "hand": "right"
      },
      {
        "midi": 50,
        "time": 71.045,
        "duration": 0.545,
        "velocity": 0.71,
        "hand": "left"
      },
      {
        "midi": 58,
        "time": 71.045,
        "duration": 0.273,
        "velocity": 0.71,
        "hand": "left"
      },
      {
        "midi": 70,
        "time": 71.045,
        "duration": 1.091,
        "velocity": 0.71,
        "hand": "right"
      },
      {
        "midi": 65,
        "time": 71.318,
        "duration": 0.273,
        "velocity": 0.71,
        "hand": "right"
      },
      {
        "midi": 68,
        "time": 71.591,
        "duration": 0.273,
        "velocity": 0.71,
        "hand": "right"
      },
      {
        "midi": 67,
        "time": 71.864,
        "duration": 0.273,
        "velocity": 0.71,
        "hand": "right"
      },
      {
        "midi": 51,
        "time": 72,
        "duration": 0.136,
        "velocity": 0.71,
        "hand": "left"
      },
      {
        "midi": 56,
        "time": 72.136,
        "duration": 0.545,
        "velocity": 0.71,
        "hand": "left"
      },
      {
        "midi": 65,
        "time": 72.136,
        "duration": 0.273,
        "velocity": 0.71,
        "hand": "right"
      },
      {
        "midi": 72,
        "time": 72.136,
        "duration": 0.545,
        "velocity": 0.71,
        "hand": "right"
      },
      {
        "midi": 63,
        "time": 72.409,
        "duration": 0.273,
        "velocity": 0.71,
        "hand": "right"
      },
      {
        "midi": 56,
        "time": 72.682,
        "duration": 0.545,
        "velocity": 0.71,
        "hand": "left"
      },
      {
        "midi": 62,
        "time": 72.682,
        "duration": 0.273,
        "velocity": 0.71,
        "hand": "right"
      },
      {
        "midi": 70,
        "time": 72.682,
        "duration": 0.818,
        "velocity": 0.71,
        "hand": "right"
      },
      {
        "midi": 65,
        "time": 72.955,
        "duration": 0.273,
        "velocity": 0.71,
        "hand": "right"
      },
      {
        "midi": 55,
        "time": 73.227,
        "duration": 0.545,
        "velocity": 0.71,
        "hand": "left"
      },
      {
        "midi": 63,
        "time": 73.227,
        "duration": 0.273,
        "velocity": 0.71,
        "hand": "right"
      },
      {
        "midi": 70,
        "time": 73.5,
        "duration": 0.273,
        "velocity": 0.71,
        "hand": "right"
      },
      {
        "midi": 75,
        "time": 73.773,
        "duration": 0.273,
        "velocity": 0.71,
        "hand": "right"
      },
      {
        "midi": 79,
        "time": 73.773,
        "duration": 0.273,
        "velocity": 0.71,
        "hand": "right"
      },
      {
        "midi": 74,
        "time": 74.045,
        "duration": 0.273,
        "velocity": 0.71,
        "hand": "right"
      },
      {
        "midi": 77,
        "time": 74.045,
        "duration": 0.273,
        "velocity": 0.71,
        "hand": "right"
      },
      {
        "midi": 58,
        "time": 74.182,
        "duration": 0.136,
        "velocity": 0.71,
        "hand": "left"
      },
      {
        "midi": 63,
        "time": 74.318,
        "duration": 0.273,
        "velocity": 0.71,
        "hand": "right"
      },
      {
        "midi": 72,
        "time": 74.318,
        "duration": 0.273,
        "velocity": 0.71,
        "hand": "right"
      },
      {
        "midi": 75,
        "time": 74.318,
        "duration": 1.091,
        "velocity": 0.71,
        "hand": "right"
      },
      {
        "midi": 62,
        "time": 74.591,
        "duration": 0.273,
        "velocity": 0.71,
        "hand": "right"
      },
      {
        "midi": 70,
        "time": 74.591,
        "duration": 0.273,
        "velocity": 0.71,
        "hand": "right"
      },
      {
        "midi": 60,
        "time": 74.864,
        "duration": 0.273,
        "velocity": 0.71,
        "hand": "right"
      },
      {
        "midi": 68,
        "time": 74.864,
        "duration": 0.273,
        "velocity": 0.71,
        "hand": "right"
      },
      {
        "midi": 58,
        "time": 75.136,
        "duration": 0.273,
        "velocity": 0.71,
        "hand": "left"
      },
      {
        "midi": 67,
        "time": 75.136,
        "duration": 0.273,
        "velocity": 0.71,
        "hand": "right"
      },
      {
        "midi": 56,
        "time": 75.409,
        "duration": 0.273,
        "velocity": 0.71,
        "hand": "left"
      },
      {
        "midi": 65,
        "time": 75.409,
        "duration": 0.545,
        "velocity": 0.71,
        "hand": "right"
      },
      {
        "midi": 77,
        "time": 75.409,
        "duration": 0.273,
        "velocity": 0.71,
        "hand": "right"
      },
      {
        "midi": 55,
        "time": 75.682,
        "duration": 0.273,
        "velocity": 0.71,
        "hand": "left"
      },
      {
        "midi": 75,
        "time": 75.682,
        "duration": 0.273,
        "velocity": 0.71,
        "hand": "right"
      },
      {
        "midi": 53,
        "time": 75.955,
        "duration": 0.273,
        "velocity": 0.71,
        "hand": "left"
      },
      {
        "midi": 68,
        "time": 75.955,
        "duration": 1.091,
        "velocity": 0.71,
        "hand": "right"
      },
      {
        "midi": 74,
        "time": 75.955,
        "duration": 0.273,
        "velocity": 0.71,
        "hand": "right"
      },
      {
        "midi": 51,
        "time": 76.227,
        "duration": 0.273,
        "velocity": 0.71,
        "hand": "left"
      },
      {
        "midi": 72,
        "time": 76.227,
        "duration": 0.273,
        "velocity": 0.71,
        "hand": "right"
      },
      {
        "midi": 50,
        "time": 76.5,
        "duration": 0.273,
        "velocity": 0.71,
        "hand": "left"
      },
      {
        "midi": 70,
        "time": 76.5,
        "duration": 0.545,
        "velocity": 0.71,
        "hand": "right"
      },
      {
        "midi": 48,
        "time": 76.773,
        "duration": 0.273,
        "velocity": 0.71,
        "hand": "left"
      },
      {
        "midi": 46,
        "time": 77.045,
        "duration": 0.273,
        "velocity": 0.71,
        "hand": "left"
      },
      {
        "midi": 67,
        "time": 77.045,
        "duration": 0.273,
        "velocity": 0.71,
        "hand": "right"
      },
      {
        "midi": 74,
        "time": 77.045,
        "duration": 0.545,
        "velocity": 0.71,
        "hand": "right"
      },
      {
        "midi": 44,
        "time": 77.318,
        "duration": 0.273,
        "velocity": 0.71,
        "hand": "left"
      },
      {
        "midi": 65,
        "time": 77.318,
        "duration": 0.273,
        "velocity": 0.71,
        "hand": "right"
      },
      {
        "midi": 43,
        "time": 77.591,
        "duration": 0.273,
        "velocity": 0.71,
        "hand": "left"
      },
      {
        "midi": 63,
        "time": 77.591,
        "duration": 0.545,
        "velocity": 0.71,
        "hand": "right"
      },
      {
        "midi": 75,
        "time": 77.591,
        "duration": 0.273,
        "velocity": 0.71,
        "hand": "right"
      },
      {
        "midi": 46,
        "time": 77.864,
        "duration": 0.273,
        "velocity": 0.71,
        "hand": "left"
      },
      {
        "midi": 73,
        "time": 77.864,
        "duration": 0.273,
        "velocity": 0.71,
        "hand": "right"
      },
      {
        "midi": 48,
        "time": 78.136,
        "duration": 0.273,
        "velocity": 0.71,
        "hand": "left"
      },
      {
        "midi": 72,
        "time": 78.136,
        "duration": 0.273,
        "velocity": 0.71,
        "hand": "right"
      },
      {
        "midi": 49,
        "time": 78.409,
        "duration": 0.273,
        "velocity": 0.71,
        "hand": "left"
      },
      {
        "midi": 70,
        "time": 78.409,
        "duration": 0.273,
        "velocity": 0.71,
        "hand": "right"
      },
      {
        "midi": 51,
        "time": 78.545,
        "duration": 0.136,
        "velocity": 0.71,
        "hand": "left"
      },
      {
        "midi": 48,
        "time": 78.682,
        "duration": 0.273,
        "velocity": 0.71,
        "hand": "left"
      },
      {
        "midi": 56,
        "time": 78.682,
        "duration": 0.545,
        "velocity": 0.71,
        "hand": "left"
      },
      {
        "midi": 68,
        "time": 78.682,
        "duration": 0.545,
        "velocity": 0.71,
        "hand": "right"
      },
      {
        "midi": 41,
        "time": 78.955,
        "duration": 0.273,
        "velocity": 0.71,
        "hand": "left"
      },
      {
        "midi": 50,
        "time": 79.227,
        "duration": 0.273,
        "velocity": 0.71,
        "hand": "left"
      },
      {
        "midi": 56,
        "time": 79.227,
        "duration": 0.545,
        "velocity": 0.71,
        "hand": "left"
      },
      {
        "midi": 70,
        "time": 79.227,
        "duration": 0.818,
        "velocity": 0.71,
        "hand": "right"
      },
      {
        "midi": 46,
        "time": 79.5,
        "duration": 0.273,
        "velocity": 0.71,
        "hand": "left"
      },
      {
        "midi": 51,
        "time": 79.773,
        "duration": 0.273,
        "velocity": 0.71,
        "hand": "left"
      },
      {
        "midi": 55,
        "time": 79.773,
        "duration": 0.545,
        "velocity": 0.71,
        "hand": "left"
      },
      {
        "midi": 46,
        "time": 80.045,
        "duration": 0.273,
        "velocity": 0.71,
        "hand": "left"
      },
      {
        "midi": 61,
        "time": 80.045,
        "duration": 0.273,
        "velocity": 0.71,
        "hand": "right"
      },
      {
        "midi": 49,
        "time": 80.318,
        "duration": 0.273,
        "velocity": 0.71,
        "hand": "left"
      },
      {
        "midi": 65,
        "time": 80.318,
        "duration": 0.273,
        "velocity": 0.71,
        "hand": "right"
      },
      {
        "midi": 48,
        "time": 80.591,
        "duration": 0.273,
        "velocity": 0.71,
        "hand": "left"
      },
      {
        "midi": 63,
        "time": 80.591,
        "duration": 0.273,
        "velocity": 0.71,
        "hand": "right"
      },
      {
        "midi": 56,
        "time": 80.727,
        "duration": 0.136,
        "velocity": 0.71,
        "hand": "left"
      },
      {
        "midi": 46,
        "time": 80.864,
        "duration": 0.273,
        "velocity": 0.71,
        "hand": "left"
      },
      {
        "midi": 61,
        "time": 80.864,
        "duration": 0.545,
        "velocity": 0.71,
        "hand": "right"
      },
      {
        "midi": 44,
        "time": 81.136,
        "duration": 0.273,
        "velocity": 0.71,
        "hand": "left"
      },
      {
        "midi": 65,
        "time": 81.136,
        "duration": 0.273,
        "velocity": 0.71,
        "hand": "right"
      },
      {
        "midi": 43,
        "time": 81.409,
        "duration": 0.273,
        "velocity": 0.71,
        "hand": "left"
      },
      {
        "midi": 61,
        "time": 81.409,
        "duration": 0.545,
        "velocity": 0.71,
        "hand": "right"
      },
      {
        "midi": 70,
        "time": 81.409,
        "duration": 0.273,
        "velocity": 0.71,
        "hand": "right"
      },
      {
        "midi": 39,
        "time": 81.682,
        "duration": 0.273,
        "velocity": 0.71,
        "hand": "left"
      },
      {
        "midi": 67,
        "time": 81.682,
        "duration": 0.273,
        "velocity": 0.71,
        "hand": "right"
      },
      {
        "midi": 44,
        "time": 81.955,
        "duration": 0.273,
        "velocity": 0.71,
        "hand": "left"
      },
      {
        "midi": 60,
        "time": 81.955,
        "duration": 0.545,
        "velocity": 0.71,
        "hand": "right"
      },
      {
        "midi": 63,
        "time": 81.955,
        "duration": 0.545,
        "velocity": 0.71,
        "hand": "right"
      },
      {
        "midi": 51,
        "time": 82.227,
        "duration": 0.273,
        "velocity": 0.71,
        "hand": "left"
      },
      {
        "midi": 56,
        "time": 82.5,
        "duration": 0.273,
        "velocity": 0.71,
        "hand": "left"
      },
      {
        "midi": 72,
        "time": 82.5,
        "duration": 1.091,
        "velocity": 0.71,
        "hand": "right"
      },
      {
        "midi": 55,
        "time": 82.773,
        "duration": 0.273,
        "velocity": 0.71,
        "hand": "left"
      },
      {
        "midi": 63,
        "time": 82.909,
        "duration": 0.136,
        "velocity": 0.71,
        "hand": "right"
      },
      {
        "midi": 53,
        "time": 83.045,
        "duration": 0.273,
        "velocity": 0.71,
        "hand": "left"
      },
      {
        "midi": 68,
        "time": 83.045,
        "duration": 0.273,
        "velocity": 0.71,
        "hand": "right"
      },
      {
        "midi": 51,
        "time": 83.318,
        "duration": 0.273,
        "velocity": 0.71,
        "hand": "left"
      },
      {
        "midi": 67,
        "time": 83.318,
        "duration": 0.273,
        "velocity": 0.71,
        "hand": "right"
      },
      {
        "midi": 49,
        "time": 83.591,
        "duration": 0.273,
        "velocity": 0.71,
        "hand": "left"
      },
      {
        "midi": 65,
        "time": 83.591,
        "duration": 0.273,
        "velocity": 0.71,
        "hand": "right"
      },
      {
        "midi": 70,
        "time": 83.591,
        "duration": 0.273,
        "velocity": 0.71,
        "hand": "right"
      },
      {
        "midi": 48,
        "time": 83.864,
        "duration": 0.273,
        "velocity": 0.71,
        "hand": "left"
      },
      {
        "midi": 63,
        "time": 83.864,
        "duration": 0.273,
        "velocity": 0.71,
        "hand": "right"
      },
      {
        "midi": 72,
        "time": 83.864,
        "duration": 0.273,
        "velocity": 0.71,
        "hand": "right"
      },
      {
        "midi": 46,
        "time": 84.136,
        "duration": 0.273,
        "velocity": 0.71,
        "hand": "left"
      },
      {
        "midi": 61,
        "time": 84.136,
        "duration": 0.273,
        "velocity": 0.71,
        "hand": "right"
      },
      {
        "midi": 73,
        "time": 84.136,
        "duration": 0.273,
        "velocity": 0.71,
        "hand": "right"
      },
      {
        "midi": 48,
        "time": 84.409,
        "duration": 0.273,
        "velocity": 0.71,
        "hand": "left"
      },
      {
        "midi": 60,
        "time": 84.409,
        "duration": 0.273,
        "velocity": 0.71,
        "hand": "right"
      },
      {
        "midi": 75,
        "time": 84.409,
        "duration": 0.273,
        "velocity": 0.71,
        "hand": "right"
      },
      {
        "midi": 49,
        "time": 84.682,
        "duration": 0.273,
        "velocity": 0.71,
        "hand": "left"
      },
      {
        "midi": 58,
        "time": 84.682,
        "duration": 0.273,
        "velocity": 0.71,
        "hand": "left"
      },
      {
        "midi": 77,
        "time": 84.682,
        "duration": 0.818,
        "velocity": 0.71,
        "hand": "right"
      },
      {
        "midi": 50,
        "time": 84.955,
        "duration": 0.273,
        "velocity": 0.71,
        "hand": "left"
      },
      {
        "midi": 56,
        "time": 84.955,
        "duration": 0.273,
        "velocity": 0.71,
        "hand": "left"
      },
      {
        "midi": 51,
        "time": 85.227,
        "duration": 0.545,
        "velocity": 0.71,
        "hand": "left"
      },
      {
        "midi": 55,
        "time": 85.227,
        "duration": 0.273,
        "velocity": 0.71,
        "hand": "left"
      },
      {
        "midi": 53,
        "time": 85.5,
        "duration": 0.273,
        "velocity": 0.71,
        "hand": "left"
      },
      {
        "midi": 70,
        "time": 85.5,
        "duration": 0.273,
        "velocity": 0.71,
        "hand": "right"
      },
      {
        "midi": 43,
        "time": 85.773,
        "duration": 0.545,
        "velocity": 0.71,
        "hand": "left"
      },
      {
        "midi": 51,
        "time": 85.773,
        "duration": 0.273,
        "velocity": 0.71,
        "hand": "left"
      },
      {
        "midi": 75,
        "time": 85.773,
        "duration": 0.818,
        "velocity": 0.71,
        "hand": "right"
      },
      {
        "midi": 49,
        "time": 86.045,
        "duration": 0.273,
        "velocity": 0.71,
        "hand": "left"
      },
      {
        "midi": 44,
        "time": 86.318,
        "duration": 0.545,
        "velocity": 0.71,
        "hand": "left"
      },
      {
        "midi": 48,
        "time": 86.318,
        "duration": 0.273,
        "velocity": 0.71,
        "hand": "left"
      },
      {
        "midi": 51,
        "time": 86.591,
        "duration": 0.273,
        "velocity": 0.71,
        "hand": "left"
      },
      {
        "midi": 72,
        "time": 86.591,
        "duration": 0.273,
        "velocity": 0.71,
        "hand": "right"
      },
      {
        "midi": 56,
        "time": 86.864,
        "duration": 0.273,
        "velocity": 0.71,
        "hand": "left"
      },
      {
        "midi": 60,
        "time": 87.136,
        "duration": 0.273,
        "velocity": 0.71,
        "hand": "right"
      },
      {
        "midi": 56,
        "time": 87.273,
        "duration": 0.136,
        "velocity": 0.71,
        "hand": "left"
      },
      {
        "midi": 75,
        "time": 87.273,
        "duration": 0.136,
        "velocity": 0.71,
        "hand": "right"
      },
      {
        "midi": 53,
        "time": 87.409,
        "duration": 0.545,
        "velocity": 0.71,
        "hand": "left"
      },
      {
        "midi": 61,
        "time": 87.409,
        "duration": 0.273,
        "velocity": 0.71,
        "hand": "right"
      },
      {
        "midi": 77,
        "time": 87.409,
        "duration": 0.545,
        "velocity": 0.71,
        "hand": "right"
      },
      {
        "midi": 65,
        "time": 87.682,
        "duration": 0.273,
        "velocity": 0.71,
        "hand": "right"
      },
      {
        "midi": 55,
        "time": 87.955,
        "duration": 0.545,
        "velocity": 0.71,
        "hand": "left"
      },
      {
        "midi": 63,
        "time": 87.955,
        "duration": 0.273,
        "velocity": 0.71,
        "hand": "right"
      },
      {
        "midi": 70,
        "time": 87.955,
        "duration": 0.545,
        "velocity": 0.71,
        "hand": "right"
      },
      {
        "midi": 61,
        "time": 88.227,
        "duration": 0.273,
        "velocity": 0.71,
        "hand": "right"
      },
      {
        "midi": 56,
        "time": 88.5,
        "duration": 0.545,
        "velocity": 0.71,
        "hand": "left"
      },
      {
        "midi": 60,
        "time": 88.5,
        "duration": 0.273,
        "velocity": 0.71,
        "hand": "right"
      },
      {
        "midi": 72,
        "time": 88.5,
        "duration": 0.545,
        "velocity": 0.71,
        "hand": "right"
      },
      {
        "midi": 62,
        "time": 88.773,
        "duration": 0.273,
        "velocity": 0.71,
        "hand": "right"
      },
      {
        "midi": 63,
        "time": 89.045,
        "duration": 0.273,
        "velocity": 0.71,
        "hand": "right"
      },
      {
        "midi": 67,
        "time": 89.318,
        "duration": 0.273,
        "velocity": 0.71,
        "hand": "right"
      },
      {
        "midi": 55,
        "time": 89.455,
        "duration": 0.136,
        "velocity": 0.71,
        "hand": "left"
      },
      {
        "midi": 70,
        "time": 89.455,
        "duration": 0.136,
        "velocity": 0.71,
        "hand": "right"
      },
      {
        "midi": 53,
        "time": 89.591,
        "duration": 0.545,
        "velocity": 0.71,
        "hand": "left"
      },
      {
        "midi": 68,
        "time": 89.591,
        "duration": 0.273,
        "velocity": 0.71,
        "hand": "right"
      },
      {
        "midi": 72,
        "time": 89.591,
        "duration": 0.273,
        "velocity": 0.71,
        "hand": "right"
      },
      {
        "midi": 72,
        "time": 89.864,
        "duration": 0.273,
        "velocity": 0.71,
        "hand": "right"
      },
      {
        "midi": 58,
        "time": 90.136,
        "duration": 0.545,
        "velocity": 0.71,
        "hand": "left"
      },
      {
        "midi": 70,
        "time": 90.136,
        "duration": 0.273,
        "velocity": 0.71,
        "hand": "right"
      },
      {
        "midi": 74,
        "time": 90.136,
        "duration": 0.545,
        "velocity": 0.71,
        "hand": "right"
      },
      {
        "midi": 68,
        "time": 90.409,
        "duration": 0.273,
        "velocity": 0.71,
        "hand": "right"
      },
      {
        "midi": 51,
        "time": 90.682,
        "duration": 0.545,
        "velocity": 0.71,
        "hand": "left"
      },
      {
        "midi": 67,
        "time": 90.682,
        "duration": 0.545,
        "velocity": 0.71,
        "hand": "right"
      },
      {
        "midi": 75,
        "time": 90.682,
        "duration": 0.273,
        "velocity": 0.71,
        "hand": "right"
      },
      {
        "midi": 70,
        "time": 90.955,
        "duration": 0.273,
        "velocity": 0.71,
        "hand": "right"
      },
      {
        "midi": 72,
        "time": 91.227,
        "duration": 0.273,
        "velocity": 0.71,
        "hand": "right"
      },
      {
        "midi": 74,
        "time": 91.5,
        "duration": 0.273,
        "velocity": 0.71,
        "hand": "right"
      },
      {
        "midi": 50,
        "time": 91.636,
        "duration": 0.136,
        "velocity": 0.71,
        "hand": "left"
      },
      {
        "midi": 65,
        "time": 91.636,
        "duration": 0.136,
        "velocity": 0.71,
        "hand": "right"
      },
      {
        "midi": 48,
        "time": 91.773,
        "duration": 0.545,
        "velocity": 0.71,
        "hand": "left"
      },
      {
        "midi": 67,
        "time": 91.773,
        "duration": 0.545,
        "velocity": 0.71,
        "hand": "right"
      },
      {
        "midi": 75,
        "time": 91.773,
        "duration": 0.273,
        "velocity": 0.71,
        "hand": "right"
      },
      {
        "midi": 79,
        "time": 92.045,
        "duration": 0.273,
        "velocity": 0.71,
        "hand": "right"
      },
      {
        "midi": 53,
        "time": 92.318,
        "duration": 0.545,
        "velocity": 0.71,
        "hand": "left"
      },
      {
        "midi": 69,
        "time": 92.318,
        "duration": 0.545,
        "velocity": 0.71,
        "hand": "right"
      },
      {
        "midi": 77,
        "time": 92.318,
        "duration": 0.273,
        "velocity": 0.71,
        "hand": "right"
      },
      {
        "midi": 75,
        "time": 92.591,
        "duration": 0.273,
        "velocity": 0.71,
        "hand": "right"
      },
      {
        "midi": 46,
        "time": 92.864,
        "duration": 0.545,
        "velocity": 0.71,
        "hand": "left"
      },
      {
        "midi": 70,
        "time": 92.864,
        "duration": 0.273,
        "velocity": 0.71,
        "hand": "right"
      },
      {
        "midi": 74,
        "time": 92.864,
        "duration": 0.273,
        "velocity": 0.71,
        "hand": "right"
      },
      {
        "midi": 68,
        "time": 93.136,
        "duration": 0.273,
        "velocity": 0.71,
        "hand": "right"
      },
      {
        "midi": 72,
        "time": 93.136,
        "duration": 0.273,
        "velocity": 0.71,
        "hand": "right"
      },
      {
        "midi": 67,
        "time": 93.409,
        "duration": 0.273,
        "velocity": 0.71,
        "hand": "right"
      },
      {
        "midi": 70,
        "time": 93.409,
        "duration": 0.273,
        "velocity": 0.71,
        "hand": "right"
      },
      {
        "midi": 65,
        "time": 93.682,
        "duration": 0.273,
        "velocity": 0.71,
        "hand": "right"
      },
      {
        "midi": 68,
        "time": 93.682,
        "duration": 0.273,
        "velocity": 0.71,
        "hand": "right"
      },
      {
        "midi": 46,
        "time": 93.818,
        "duration": 0.136,
        "velocity": 0.71,
        "hand": "left"
      },
      {
        "midi": 51,
        "time": 93.955,
        "duration": 0.545,
        "velocity": 0.71,
        "hand": "left"
      },
      {
        "midi": 63,
        "time": 93.955,
        "duration": 0.273,
        "velocity": 0.71,
        "hand": "right"
      },
      {
        "midi": 67,
        "time": 93.955,
        "duration": 0.545,
        "velocity": 0.71,
        "hand": "right"
      },
      {
        "midi": 58,
        "time": 94.227,
        "duration": 0.273,
        "velocity": 0.71,
        "hand": "left"
      },
      {
        "midi": 51,
        "time": 94.5,
        "duration": 0.545,
        "velocity": 0.71,
        "hand": "left"
      },
      {
        "midi": 55,
        "time": 94.5,
        "duration": 0.273,
        "velocity": 0.71,
        "hand": "left"
      },
      {
        "midi": 60,
        "time": 94.773,
        "duration": 0.273,
        "velocity": 0.71,
        "hand": "right"
      },
      {
        "midi": 63,
        "time": 94.909,
        "duration": 0.136,
        "velocity": 0.71,
        "hand": "right"
      },
      {
        "midi": 50,
        "time": 95.045,
        "duration": 0.545,
        "velocity": 0.71,
        "hand": "left"
      },
      {
        "midi": 53,
        "time": 95.045,
        "duration": 0.273,
        "velocity": 0.71,
        "hand": "left"
      },
      {
        "midi": 70,
        "time": 95.045,
        "duration": 0.545,
        "velocity": 0.71,
        "hand": "right"
      },
      {
        "midi": 65,
        "time": 95.318,
        "duration": 0.273,
        "velocity": 0.71,
        "hand": "right"
      },
      {
        "midi": 68,
        "time": 95.591,
        "duration": 0.273,
        "velocity": 0.71,
        "hand": "right"
      },
      {
        "midi": 70,
        "time": 95.591,
        "duration": 0.545,
        "velocity": 0.71,
        "hand": "right"
      },
      {
        "midi": 67,
        "time": 95.864,
        "duration": 0.273,
        "velocity": 0.71,
        "hand": "right"
      },
      {
        "midi": 51,
        "time": 96,
        "duration": 0.136,
        "velocity": 0.71,
        "hand": "left"
      },
      {
        "midi": 56,
        "time": 96.136,
        "duration": 0.545,
        "velocity": 0.71,
        "hand": "left"
      },
      {
        "midi": 65,
        "time": 96.136,
        "duration": 0.273,
        "velocity": 0.71,
        "hand": "right"
      },
      {
        "midi": 68,
        "time": 96.136,
        "duration": 0.545,
        "velocity": 0.71,
        "hand": "right"
      },
      {
        "midi": 63,
        "time": 96.409,
        "duration": 0.273,
        "velocity": 0.71,
        "hand": "right"
      },
      {
        "midi": 56,
        "time": 96.682,
        "duration": 0.545,
        "velocity": 0.71,
        "hand": "left"
      },
      {
        "midi": 62,
        "time": 96.682,
        "duration": 0.273,
        "velocity": 0.71,
        "hand": "right"
      },
      {
        "midi": 65,
        "time": 96.955,
        "duration": 0.273,
        "velocity": 0.71,
        "hand": "right"
      },
      {
        "midi": 70,
        "time": 97.091,
        "duration": 0.136,
        "velocity": 0.71,
        "hand": "right"
      },
      {
        "midi": 55,
        "time": 97.227,
        "duration": 0.545,
        "velocity": 0.71,
        "hand": "left"
      },
      {
        "midi": 58,
        "time": 97.227,
        "duration": 0.273,
        "velocity": 0.71,
        "hand": "left"
      },
      {
        "midi": 75,
        "time": 97.227,
        "duration": 0.545,
        "velocity": 0.71,
        "hand": "right"
      },
      {
        "midi": 63,
        "time": 97.5,
        "duration": 0.273,
        "velocity": 0.71,
        "hand": "right"
      },
      {
        "midi": 67,
        "time": 97.773,
        "duration": 0.273,
        "velocity": 0.71,
        "hand": "right"
      },
      {
        "midi": 75,
        "time": 97.773,
        "duration": 0.409,
        "velocity": 0.71,
        "hand": "right"
      },
      {
        "midi": 65,
        "time": 98.045,
        "duration": 0.273,
        "velocity": 0.71,
        "hand": "right"
      },
      {
        "midi": 58,
        "time": 98.182,
        "duration": 0.136,
        "velocity": 0.71,
        "hand": "left"
      },
      {
        "midi": 74,
        "time": 98.182,
        "duration": 0.136,
        "velocity": 0.71,
        "hand": "right"
      },
      {
        "midi": 63,
        "time": 98.318,
        "duration": 0.273,
        "velocity": 0.71,
        "hand": "right"
      },
      {
        "midi": 67,
        "time": 98.318,
        "duration": 0.273,
        "velocity": 0.71,
        "hand": "right"
      },
      {
        "midi": 72,
        "time": 98.318,
        "duration": 0.545,
        "velocity": 0.71,
        "hand": "right"
      },
      {
        "midi": 62,
        "time": 98.591,
        "duration": 0.273,
        "velocity": 0.71,
        "hand": "right"
      },
      {
        "midi": 65,
        "time": 98.591,
        "duration": 0.273,
        "velocity": 0.71,
        "hand": "right"
      },
      {
        "midi": 60,
        "time": 98.864,
        "duration": 0.273,
        "velocity": 0.71,
        "hand": "right"
      },
      {
        "midi": 63,
        "time": 98.864,
        "duration": 0.273,
        "velocity": 0.71,
        "hand": "right"
      },
      {
        "midi": 58,
        "time": 99.136,
        "duration": 0.273,
        "velocity": 0.71,
        "hand": "left"
      },
      {
        "midi": 67,
        "time": 99.136,
        "duration": 0.273,
        "velocity": 0.71,
        "hand": "right"
      },
      {
        "midi": 72,
        "time": 99.273,
        "duration": 0.136,
        "velocity": 0.71,
        "hand": "right"
      },
      {
        "midi": 56,
        "time": 99.409,
        "duration": 0.273,
        "velocity": 0.71,
        "hand": "left"
      },
      {
        "midi": 60,
        "time": 99.409,
        "duration": 0.545,
        "velocity": 0.71,
        "hand": "right"
      },
      {
        "midi": 77,
        "time": 99.409,
        "duration": 0.273,
        "velocity": 0.71,
        "hand": "right"
      },
      {
        "midi": 55,
        "time": 99.682,
        "duration": 0.273,
        "velocity": 0.71,
        "hand": "left"
      },
      {
        "midi": 75,
        "time": 99.682,
        "duration": 0.273,
        "velocity": 0.71,
        "hand": "right"
      },
      {
        "midi": 53,
        "time": 99.955,
        "duration": 0.273,
        "velocity": 0.71,
        "hand": "left"
      },
      {
        "midi": 62,
        "time": 99.955,
        "duration": 0.273,
        "velocity": 0.71,
        "hand": "right"
      },
      {
        "midi": 74,
        "time": 99.955,
        "duration": 0.273,
        "velocity": 0.71,
        "hand": "right"
      },
      {
        "midi": 51,
        "time": 100.227,
        "duration": 0.273,
        "velocity": 0.71,
        "hand": "left"
      },
      {
        "midi": 63,
        "time": 100.227,
        "duration": 0.273,
        "velocity": 0.71,
        "hand": "right"
      },
      {
        "midi": 72,
        "time": 100.227,
        "duration": 0.273,
        "velocity": 0.71,
        "hand": "right"
      },
      {
        "midi": 50,
        "time": 100.5,
        "duration": 0.273,
        "velocity": 0.71,
        "hand": "left"
      },
      {
        "midi": 65,
        "time": 100.5,
        "duration": 0.545,
        "velocity": 0.71,
        "hand": "right"
      },
      {
        "midi": 70,
        "time": 100.5,
        "duration": 0.273,
        "velocity": 0.71,
        "hand": "right"
      },
      {
        "midi": 48,
        "time": 100.773,
        "duration": 0.273,
        "velocity": 0.71,
        "hand": "left"
      },
      {
        "midi": 68,
        "time": 100.773,
        "duration": 0.273,
        "velocity": 0.71,
        "hand": "right"
      },
      {
        "midi": 46,
        "time": 101.045,
        "duration": 0.273,
        "velocity": 0.71,
        "hand": "left"
      },
      {
        "midi": 62,
        "time": 101.045,
        "duration": 0.545,
        "velocity": 0.71,
        "hand": "right"
      },
      {
        "midi": 67,
        "time": 101.045,
        "duration": 0.273,
        "velocity": 0.71,
        "hand": "right"
      },
      {
        "midi": 44,
        "time": 101.318,
        "duration": 0.273,
        "velocity": 0.71,
        "hand": "left"
      },
      {
        "midi": 65,
        "time": 101.318,
        "duration": 0.273,
        "velocity": 0.71,
        "hand": "right"
      },
      {
        "midi": 43,
        "time": 101.591,
        "duration": 0.545,
        "velocity": 0.71,
        "hand": "left"
      },
      {
        "midi": 58,
        "time": 101.591,
        "duration": 0.545,
        "velocity": 0.71,
        "hand": "left"
      },
      {
        "midi": 63,
        "time": 101.591,
        "duration": 0.273,
        "velocity": 0.71,
        "hand": "right"
      },
      {
        "midi": 62,
        "time": 101.864,
        "duration": 0.273,
        "velocity": 0.71,
        "hand": "right"
      },
      {
        "midi": 51,
        "time": 102.136,
        "duration": 0.545,
        "velocity": 0.71,
        "hand": "left"
      },
      {
        "midi": 55,
        "time": 102.136,
        "duration": 0.545,
        "velocity": 0.71,
        "hand": "left"
      },
      {
        "midi": 60,
        "time": 102.136,
        "duration": 0.273,
        "velocity": 0.71,
        "hand": "right"
      },
      {
        "midi": 58,
        "time": 102.409,
        "duration": 0.273,
        "velocity": 0.71,
        "hand": "left"
      },
      {
        "midi": 44,
        "time": 102.682,
        "duration": 1.364,
        "velocity": 0.71,
        "hand": "left"
      },
      {
        "midi": 56,
        "time": 102.682,
        "duration": 0.545,
        "velocity": 0.71,
        "hand": "left"
      },
      {
        "midi": 60,
        "time": 102.682,
        "duration": 0.273,
        "velocity": 0.71,
        "hand": "right"
      },
      {
        "midi": 63,
        "time": 102.955,
        "duration": 0.273,
        "velocity": 0.71,
        "hand": "right"
      },
      {
        "midi": 60,
        "time": 103.227,
        "duration": 0.818,
        "velocity": 0.71,
        "hand": "right"
      },
      {
        "midi": 68,
        "time": 103.227,
        "duration": 0.273,
        "velocity": 0.71,
        "hand": "right"
      },
      {
        "midi": 70,
        "time": 103.5,
        "duration": 0.273,
        "velocity": 0.71,
        "hand": "right"
      },
      {
        "midi": 72,
        "time": 103.773,
        "duration": 1.091,
        "velocity": 0.71,
        "hand": "right"
      },
      {
        "midi": 41,
        "time": 104.045,
        "duration": 0.273,
        "velocity": 0.71,
        "hand": "left"
      },
      {
        "midi": 68,
        "time": 104.045,
        "duration": 0.273,
        "velocity": 0.71,
        "hand": "right"
      },
      {
        "midi": 44,
        "time": 104.318,
        "duration": 0.273,
        "velocity": 0.71,
        "hand": "left"
      },
      {
        "midi": 65,
        "time": 104.318,
        "duration": 0.273,
        "velocity": 0.71,
        "hand": "right"
      },
      {
        "midi": 45,
        "time": 104.591,
        "duration": 0.273,
        "velocity": 0.71,
        "hand": "left"
      },
      {
        "midi": 63,
        "time": 104.591,
        "duration": 0.273,
        "velocity": 0.71,
        "hand": "right"
      },
      {
        "midi": 46,
        "time": 104.864,
        "duration": 4.364,
        "velocity": 0.71,
        "hand": "left"
      },
      {
        "midi": 62,
        "time": 104.864,
        "duration": 0.273,
        "velocity": 0.71,
        "hand": "right"
      },
      {
        "midi": 70,
        "time": 104.864,
        "duration": 0.545,
        "velocity": 0.71,
        "hand": "right"
      },
      {
        "midi": 63,
        "time": 105.136,
        "duration": 0.273,
        "velocity": 0.71,
        "hand": "right"
      },
      {
        "midi": 65,
        "time": 105.409,
        "duration": 0.273,
        "velocity": 0.71,
        "hand": "right"
      },
      {
        "midi": 67,
        "time": 105.682,
        "duration": 0.273,
        "velocity": 0.71,
        "hand": "right"
      },
      {
        "midi": 70,
        "time": 105.818,
        "duration": 0.136,
        "velocity": 0.71,
        "hand": "right"
      },
      {
        "midi": 68,
        "time": 105.955,
        "duration": 0.273,
        "velocity": 0.71,
        "hand": "right"
      },
      {
        "midi": 72,
        "time": 105.955,
        "duration": 0.273,
        "velocity": 0.71,
        "hand": "right"
      },
      {
        "midi": 72,
        "time": 106.227,
        "duration": 0.273,
        "velocity": 0.71,
        "hand": "right"
      },
      {
        "midi": 70,
        "time": 106.5,
        "duration": 0.273,
        "velocity": 0.71,
        "hand": "right"
      },
      {
        "midi": 74,
        "time": 106.5,
        "duration": 0.545,
        "velocity": 0.71,
        "hand": "right"
      },
      {
        "midi": 68,
        "time": 106.773,
        "duration": 0.273,
        "velocity": 0.71,
        "hand": "right"
      },
      {
        "midi": 67,
        "time": 107.045,
        "duration": 0.545,
        "velocity": 0.71,
        "hand": "right"
      },
      {
        "midi": 75,
        "time": 107.045,
        "duration": 0.273,
        "velocity": 0.71,
        "hand": "right"
      },
      {
        "midi": 70,
        "time": 107.318,
        "duration": 0.273,
        "velocity": 0.71,
        "hand": "right"
      },
      {
        "midi": 72,
        "time": 107.591,
        "duration": 0.273,
        "velocity": 0.71,
        "hand": "right"
      },
      {
        "midi": 74,
        "time": 107.864,
        "duration": 0.273,
        "velocity": 0.71,
        "hand": "right"
      },
      {
        "midi": 65,
        "time": 108,
        "duration": 0.136,
        "velocity": 0.71,
        "hand": "right"
      },
      {
        "midi": 67,
        "time": 108.136,
        "duration": 0.545,
        "velocity": 0.71,
        "hand": "right"
      },
      {
        "midi": 75,
        "time": 108.136,
        "duration": 0.273,
        "velocity": 0.71,
        "hand": "right"
      },
      {
        "midi": 79,
        "time": 108.409,
        "duration": 0.273,
        "velocity": 0.71,
        "hand": "right"
      },
      {
        "midi": 69,
        "time": 108.682,
        "duration": 0.545,
        "velocity": 0.71,
        "hand": "right"
      },
      {
        "midi": 77,
        "time": 108.682,
        "duration": 0.273,
        "velocity": 0.71,
        "hand": "right"
      },
      {
        "midi": 75,
        "time": 108.955,
        "duration": 0.273,
        "velocity": 0.71,
        "hand": "right"
      },
      {
        "midi": 46,
        "time": 109.227,
        "duration": 0.545,
        "velocity": 0.71,
        "hand": "left"
      },
      {
        "midi": 70,
        "time": 109.227,
        "duration": 0.545,
        "velocity": 0.71,
        "hand": "right"
      },
      {
        "midi": 74,
        "time": 109.227,
        "duration": 0.273,
        "velocity": 0.71,
        "hand": "right"
      },
      {
        "midi": 75,
        "time": 109.5,
        "duration": 0.273,
        "velocity": 0.71,
        "hand": "right"
      },
      {
        "midi": 77,
        "time": 109.773,
        "duration": 0.273,
        "velocity": 0.71,
        "hand": "right"
      },
      {
        "midi": 79,
        "time": 110.045,
        "duration": 0.273,
        "velocity": 0.71,
        "hand": "right"
      },
      {
        "midi": 58,
        "time": 110.182,
        "duration": 0.136,
        "velocity": 0.71,
        "hand": "left"
      },
      {
        "midi": 62,
        "time": 110.182,
        "duration": 0.136,
        "velocity": 0.71,
        "hand": "right"
      },
      {
        "midi": 60,
        "time": 110.318,
        "duration": 0.545,
        "velocity": 0.71,
        "hand": "right"
      },
      {
        "midi": 63,
        "time": 110.318,
        "duration": 0.545,
        "velocity": 0.71,
        "hand": "right"
      },
      {
        "midi": 80,
        "time": 110.318,
        "duration": 0.273,
        "velocity": 0.71,
        "hand": "right"
      },
      {
        "midi": 84,
        "time": 110.591,
        "duration": 0.273,
        "velocity": 0.71,
        "hand": "right"
      },
      {
        "midi": 62,
        "time": 110.864,
        "duration": 0.545,
        "velocity": 0.71,
        "hand": "right"
      },
      {
        "midi": 65,
        "time": 110.864,
        "duration": 0.545,
        "velocity": 0.71,
        "hand": "right"
      },
      {
        "midi": 82,
        "time": 110.864,
        "duration": 0.273,
        "velocity": 0.71,
        "hand": "right"
      },
      {
        "midi": 80,
        "time": 111.136,
        "duration": 0.273,
        "velocity": 0.71,
        "hand": "right"
      },
      {
        "midi": 63,
        "time": 111.409,
        "duration": 0.273,
        "velocity": 0.71,
        "hand": "right"
      },
      {
        "midi": 67,
        "time": 111.409,
        "duration": 0.273,
        "velocity": 0.71,
        "hand": "right"
      },
      {
        "midi": 79,
        "time": 111.409,
        "duration": 0.545,
        "velocity": 0.71,
        "hand": "right"
      },
      {
        "midi": 51,
        "time": 111.682,
        "duration": 0.273,
        "velocity": 0.71,
        "hand": "left"
      },
      {
        "midi": 55,
        "time": 111.682,
        "duration": 0.273,
        "velocity": 0.71,
        "hand": "left"
      },
      {
        "midi": 53,
        "time": 111.955,
        "duration": 0.273,
        "velocity": 0.71,
        "hand": "left"
      },
      {
        "midi": 56,
        "time": 111.955,
        "duration": 0.273,
        "velocity": 0.71,
        "hand": "left"
      },
      {
        "midi": 55,
        "time": 112.227,
        "duration": 0.273,
        "velocity": 0.71,
        "hand": "left"
      },
      {
        "midi": 58,
        "time": 112.227,
        "duration": 0.273,
        "velocity": 0.71,
        "hand": "left"
      },
      {
        "midi": 63,
        "time": 112.364,
        "duration": 0.136,
        "velocity": 0.71,
        "hand": "right"
      },
      {
        "midi": 56,
        "time": 112.5,
        "duration": 0.273,
        "velocity": 0.71,
        "hand": "left"
      },
      {
        "midi": 60,
        "time": 112.5,
        "duration": 0.273,
        "velocity": 0.71,
        "hand": "right"
      },
      {
        "midi": 65,
        "time": 112.5,
        "duration": 0.273,
        "velocity": 0.71,
        "hand": "right"
      },
      {
        "midi": 60,
        "time": 112.773,
        "duration": 0.273,
        "velocity": 0.71,
        "hand": "right"
      },
      {
        "midi": 63,
        "time": 112.773,
        "duration": 0.273,
        "velocity": 0.71,
        "hand": "right"
      },
      {
        "midi": 58,
        "time": 113.045,
        "duration": 0.273,
        "velocity": 0.71,
        "hand": "left"
      },
      {
        "midi": 62,
        "time": 113.045,
        "duration": 0.273,
        "velocity": 0.71,
        "hand": "right"
      },
      {
        "midi": 70,
        "time": 113.045,
        "duration": 0.273,
        "velocity": 0.71,
        "hand": "right"
      },
      {
        "midi": 56,
        "time": 113.318,
        "duration": 0.273,
        "velocity": 0.71,
        "hand": "left"
      },
      {
        "midi": 60,
        "time": 113.318,
        "duration": 0.273,
        "velocity": 0.71,
        "hand": "right"
      },
      {
        "midi": 55,
        "time": 113.591,
        "duration": 0.273,
        "velocity": 0.71,
        "hand": "left"
      },
      {
        "midi": 58,
        "time": 113.591,
        "duration": 0.273,
        "velocity": 0.71,
        "hand": "left"
      },
      {
        "midi": 63,
        "time": 113.591,
        "duration": 0.545,
        "velocity": 0.71,
        "hand": "right"
      },
      {
        "midi": 53,
        "time": 113.864,
        "duration": 0.273,
        "velocity": 0.71,
        "hand": "left"
      },
      {
        "midi": 56,
        "time": 113.864,
        "duration": 0.273,
        "velocity": 0.71,
        "hand": "left"
      },
      {
        "midi": 51,
        "time": 114.136,
        "duration": 0.273,
        "velocity": 0.71,
        "hand": "left"
      },
      {
        "midi": 55,
        "time": 114.136,
        "duration": 0.273,
        "velocity": 0.71,
        "hand": "left"
      },
      {
        "midi": 49,
        "time": 114.409,
        "duration": 0.273,
        "velocity": 0.71,
        "hand": "left"
      },
      {
        "midi": 58,
        "time": 114.409,
        "duration": 0.273,
        "velocity": 0.71,
        "hand": "left"
      },
      {
        "midi": 63,
        "time": 114.545,
        "duration": 0.136,
        "velocity": 0.71,
        "hand": "right"
      },
      {
        "midi": 48,
        "time": 114.682,
        "duration": 0.273,
        "velocity": 0.71,
        "hand": "left"
      },
      {
        "midi": 63,
        "time": 114.682,
        "duration": 0.273,
        "velocity": 0.71,
        "hand": "right"
      },
      {
        "midi": 68,
        "time": 114.682,
        "duration": 0.545,
        "velocity": 0.71,
        "hand": "right"
      },
      {
        "midi": 46,
        "time": 114.955,
        "duration": 0.273,
        "velocity": 0.71,
        "hand": "left"
      },
      {
        "midi": 62,
        "time": 114.955,
        "duration": 0.273,
        "velocity": 0.71,
        "hand": "right"
      },
      {
        "midi": 48,
        "time": 115.227,
        "duration": 0.273,
        "velocity": 0.71,
        "hand": "left"
      },
      {
        "midi": 63,
        "time": 115.227,
        "duration": 0.273,
        "velocity": 0.71,
        "hand": "right"
      },
      {
        "midi": 68,
        "time": 115.227,
        "duration": 0.545,
        "velocity": 0.71,
        "hand": "right"
      },
      {
        "midi": 50,
        "time": 115.5,
        "duration": 0.273,
        "velocity": 0.71,
        "hand": "left"
      },
      {
        "midi": 65,
        "time": 115.5,
        "duration": 0.273,
        "velocity": 0.71,
        "hand": "right"
      },
      {
        "midi": 51,
        "time": 115.773,
        "duration": 0.273,
        "velocity": 0.71,
        "hand": "left"
      },
      {
        "midi": 58,
        "time": 115.773,
        "duration": 0.273,
        "velocity": 0.71,
        "hand": "left"
      },
      {
        "midi": 67,
        "time": 115.773,
        "duration": 0.545,
        "velocity": 0.71,
        "hand": "right"
      },
      {
        "midi": 46,
        "time": 116.045,
        "duration": 0.273,
        "velocity": 0.71,
        "hand": "left"
      },
      {
        "midi": 61,
        "time": 116.045,
        "duration": 0.273,
        "velocity": 0.71,
        "hand": "right"
      },
      {
        "midi": 49,
        "time": 116.318,
        "duration": 0.273,
        "velocity": 0.71,
        "hand": "left"
      },
      {
        "midi": 65,
        "time": 116.318,
        "duration": 0.273,
        "velocity": 0.71,
        "hand": "right"
      },
      {
        "midi": 48,
        "time": 116.591,
        "duration": 0.273,
        "velocity": 0.71,
        "hand": "left"
      },
      {
        "midi": 63,
        "time": 116.591,
        "duration": 0.273,
        "velocity": 0.71,
        "hand": "right"
      },
      {
        "midi": 68,
        "time": 116.727,
        "duration": 0.136,
        "velocity": 0.71,
        "hand": "right"
      },
      {
        "midi": 46,
        "time": 116.864,
        "duration": 0.273,
        "velocity": 0.71,
        "hand": "left"
      },
      {
        "midi": 67,
        "time": 116.864,
        "duration": 0.273,
        "velocity": 0.71,
        "hand": "right"
      },
      {
        "midi": 73,
        "time": 116.864,
        "duration": 0.545,
        "velocity": 0.71,
        "hand": "right"
      },
      {
        "midi": 44,
        "time": 117.136,
        "duration": 0.273,
        "velocity": 0.71,
        "hand": "left"
      },
      {
        "midi": 68,
        "time": 117.136,
        "duration": 0.273,
        "velocity": 0.71,
        "hand": "right"
      },
      {
        "midi": 43,
        "time": 117.409,
        "duration": 0.273,
        "velocity": 0.71,
        "hand": "left"
      },
      {
        "midi": 70,
        "time": 117.409,
        "duration": 0.273,
        "velocity": 0.71,
        "hand": "right"
      },
      {
        "midi": 73,
        "time": 117.409,
        "duration": 0.545,
        "velocity": 0.71,
        "hand": "right"
      },
      {
        "midi": 46,
        "time": 117.682,
        "duration": 0.273,
        "velocity": 0.71,
        "hand": "left"
      },
      {
        "midi": 67,
        "time": 117.682,
        "duration": 0.273,
        "velocity": 0.71,
        "hand": "right"
      },
      {
        "midi": 44,
        "time": 117.955,
        "duration": 0.273,
        "velocity": 0.71,
        "hand": "left"
      },
      {
        "midi": 63,
        "time": 117.955,
        "duration": 0.545,
        "velocity": 0.71,
        "hand": "right"
      },
      {
        "midi": 72,
        "time": 117.955,
        "duration": 0.545,
        "velocity": 0.71,
        "hand": "right"
      },
      {
        "midi": 46,
        "time": 118.227,
        "duration": 0.273,
        "velocity": 0.71,
        "hand": "left"
      },
      {
        "midi": 48,
        "time": 118.5,
        "duration": 0.273,
        "velocity": 0.71,
        "hand": "left"
      },
      {
        "midi": 68,
        "time": 118.5,
        "duration": 0.545,
        "velocity": 0.71,
        "hand": "right"
      },
      {
        "midi": 44,
        "time": 118.773,
        "duration": 0.273,
        "velocity": 0.71,
        "hand": "left"
      },
      {
        "midi": 75,
        "time": 118.909,
        "duration": 0.136,
        "velocity": 0.71,
        "hand": "right"
      },
      {
        "midi": 41,
        "time": 119.045,
        "duration": 0.273,
        "velocity": 0.71,
        "hand": "left"
      },
      {
        "midi": 72,
        "time": 119.045,
        "duration": 1.091,
        "velocity": 0.71,
        "hand": "right"
      },
      {
        "midi": 80,
        "time": 119.045,
        "duration": 0.273,
        "velocity": 0.71,
        "hand": "right"
      },
      {
        "midi": 43,
        "time": 119.318,
        "duration": 0.273,
        "velocity": 0.71,
        "hand": "left"
      },
      {
        "midi": 79,
        "time": 119.318,
        "duration": 0.273,
        "velocity": 0.71,
        "hand": "right"
      },
      {
        "midi": 44,
        "time": 119.591,
        "duration": 0.273,
        "velocity": 0.71,
        "hand": "left"
      },
      {
        "midi": 77,
        "time": 119.591,
        "duration": 0.273,
        "velocity": 0.71,
        "hand": "right"
      },
      {
        "midi": 45,
        "time": 119.864,
        "duration": 0.273,
        "velocity": 0.71,
        "hand": "left"
      },
      {
        "midi": 75,
        "time": 119.864,
        "duration": 0.273,
        "velocity": 0.71,
        "hand": "right"
      },
      {
        "midi": 46,
        "time": 120.136,
        "duration": 5.727,
        "velocity": 0.71,
        "hand": "left"
      },
      {
        "midi": 65,
        "time": 120.136,
        "duration": 0.545,
        "velocity": 0.71,
        "hand": "right"
      },
      {
        "midi": 74,
        "time": 120.136,
        "duration": 0.273,
        "velocity": 0.71,
        "hand": "right"
      },
      {
        "midi": 72,
        "time": 120.409,
        "duration": 0.273,
        "velocity": 0.71,
        "hand": "right"
      },
      {
        "midi": 62,
        "time": 120.682,
        "duration": 0.545,
        "velocity": 0.71,
        "hand": "right"
      },
      {
        "midi": 70,
        "time": 120.682,
        "duration": 0.273,
        "velocity": 0.71,
        "hand": "right"
      },
      {
        "midi": 68,
        "time": 120.955,
        "duration": 0.273,
        "velocity": 0.71,
        "hand": "right"
      },
      {
        "midi": 63,
        "time": 121.227,
        "duration": 0.545,
        "velocity": 0.71,
        "hand": "right"
      },
      {
        "midi": 67,
        "time": 121.227,
        "duration": 0.273,
        "velocity": 0.71,
        "hand": "right"
      },
      {
        "midi": 65,
        "time": 121.5,
        "duration": 0.273,
        "velocity": 0.71,
        "hand": "right"
      },
      {
        "midi": 55,
        "time": 121.773,
        "duration": 0.545,
        "velocity": 0.71,
        "hand": "left"
      },
      {
        "midi": 63,
        "time": 121.773,
        "duration": 0.273,
        "velocity": 0.71,
        "hand": "right"
      },
      {
        "midi": 62,
        "time": 122.045,
        "duration": 0.273,
        "velocity": 0.71,
        "hand": "right"
      },
      {
        "midi": 56,
        "time": 122.318,
        "duration": 0.273,
        "velocity": 0.71,
        "hand": "left"
      },
      {
        "midi": 60,
        "time": 122.318,
        "duration": 0.273,
        "velocity": 0.71,
        "hand": "right"
      },
      {
        "midi": 60,
        "time": 122.591,
        "duration": 0.273,
        "velocity": 0.71,
        "hand": "right"
      },
      {
        "midi": 58,
        "time": 122.864,
        "duration": 0.273,
        "velocity": 0.71,
        "hand": "left"
      },
      {
        "midi": 62,
        "time": 122.864,
        "duration": 0.545,
        "velocity": 0.71,
        "hand": "right"
      },
      {
        "midi": 56,
        "time": 123.136,
        "duration": 0.273,
        "velocity": 0.71,
        "hand": "left"
      },
      {
        "midi": 55,
        "time": 123.409,
        "duration": 0.273,
        "velocity": 0.71,
        "hand": "left"
      },
      {
        "midi": 63,
        "time": 123.409,
        "duration": 0.545,
        "velocity": 0.71,
        "hand": "right"
      },
      {
        "midi": 58,
        "time": 123.682,
        "duration": 0.273,
        "velocity": 0.71,
        "hand": "left"
      },
      {
        "midi": 60,
        "time": 123.955,
        "duration": 0.273,
        "velocity": 0.71,
        "hand": "right"
      },
      {
        "midi": 62,
        "time": 124.227,
        "duration": 0.273,
        "velocity": 0.71,
        "hand": "right"
      },
      {
        "midi": 65,
        "time": 124.364,
        "duration": 0.136,
        "velocity": 0.71,
        "hand": "right"
      },
      {
        "midi": 63,
        "time": 124.5,
        "duration": 0.273,
        "velocity": 0.71,
        "hand": "right"
      },
      {
        "midi": 67,
        "time": 124.5,
        "duration": 0.273,
        "velocity": 0.71,
        "hand": "right"
      },
      {
        "midi": 67,
        "time": 124.773,
        "duration": 0.273,
        "velocity": 0.71,
        "hand": "right"
      },
      {
        "midi": 65,
        "time": 125.045,
        "duration": 0.273,
        "velocity": 0.71,
        "hand": "right"
      },
      {
        "midi": 69,
        "time": 125.045,
        "duration": 0.545,
        "velocity": 0.71,
        "hand": "right"
      },
      {
        "midi": 63,
        "time": 125.318,
        "duration": 0.273,
        "velocity": 0.71,
        "hand": "right"
      },
      {
        "midi": 62,
        "time": 125.591,
        "duration": 0.545,
        "velocity": 0.71,
        "hand": "right"
      },
      {
        "midi": 70,
        "time": 125.591,
        "duration": 0.545,
        "velocity": 0.71,
        "hand": "right"
      },
      {
        "midi": 50,
        "time": 125.864,
        "duration": 0.273,
        "velocity": 0.71,
        "hand": "left"
      },
      {
        "midi": 53,
        "time": 126.136,
        "duration": 0.273,
        "velocity": 0.71,
        "hand": "left"
      },
      {
        "midi": 55,
        "time": 126.409,
        "duration": 0.273,
        "velocity": 0.71,
        "hand": "left"
      },
      {
        "midi": 63,
        "time": 126.545,
        "duration": 0.136,
        "velocity": 0.71,
        "hand": "right"
      },
      {
        "midi": 70,
        "time": 126.545,
        "duration": 0.136,
        "velocity": 0.71,
        "hand": "right"
      },
      {
        "midi": 56,
        "time": 126.682,
        "duration": 0.273,
        "velocity": 0.71,
        "hand": "left"
      },
      {
        "midi": 63,
        "time": 126.682,
        "duration": 0.273,
        "velocity": 0.71,
        "hand": "right"
      },
      {
        "midi": 72,
        "time": 126.682,
        "duration": 0.545,
        "velocity": 0.71,
        "hand": "right"
      },
      {
        "midi": 60,
        "time": 126.955,
        "duration": 0.273,
        "velocity": 0.71,
        "hand": "right"
      },
      {
        "midi": 68,
        "time": 126.955,
        "duration": 0.273,
        "velocity": 0.71,
        "hand": "right"
      },
      {
        "midi": 58,
        "time": 127.227,
        "duration": 0.273,
        "velocity": 0.71,
        "hand": "left"
      },
      {
        "midi": 67,
        "time": 127.227,
        "duration": 0.273,
        "velocity": 0.71,
        "hand": "right"
      },
      {
        "midi": 74,
        "time": 127.227,
        "duration": 0.545,
        "velocity": 0.71,
        "hand": "right"
      },
      {
        "midi": 56,
        "time": 127.5,
        "duration": 0.273,
        "velocity": 0.71,
        "hand": "left"
      },
      {
        "midi": 65,
        "time": 127.5,
        "duration": 0.273,
        "velocity": 0.71,
        "hand": "right"
      },
      {
        "midi": 55,
        "time": 127.773,
        "duration": 0.545,
        "velocity": 0.71,
        "hand": "left"
      },
      {
        "midi": 70,
        "time": 127.773,
        "duration": 0.545,
        "velocity": 0.71,
        "hand": "right"
      },
      {
        "midi": 75,
        "time": 127.773,
        "duration": 0.545,
        "velocity": 0.71,
        "hand": "right"
      },
      {
        "midi": 43,
        "time": 128.727,
        "duration": 0.136,
        "velocity": 0.71,
        "hand": "left"
      },
      {
        "midi": 58,
        "time": 128.727,
        "duration": 0.136,
        "velocity": 0.71,
        "hand": "left"
      },
      {
        "midi": 63,
        "time": 128.727,
        "duration": 0.136,
        "velocity": 0.71,
        "hand": "right"
      },
      {
        "midi": 44,
        "time": 128.864,
        "duration": 0.545,
        "velocity": 0.71,
        "hand": "left"
      },
      {
        "midi": 60,
        "time": 128.864,
        "duration": 0.545,
        "velocity": 0.71,
        "hand": "right"
      },
      {
        "midi": 65,
        "time": 128.864,
        "duration": 0.545,
        "velocity": 0.71,
        "hand": "right"
      },
      {
        "midi": 41,
        "time": 129.409,
        "duration": 0.545,
        "velocity": 0.71,
        "hand": "left"
      },
      {
        "midi": 65,
        "time": 129.409,
        "duration": 0.818,
        "velocity": 0.71,
        "hand": "right"
      },
      {
        "midi": 68,
        "time": 129.409,
        "duration": 0.545,
        "velocity": 0.71,
        "hand": "right"
      },
      {
        "midi": 46,
        "time": 129.955,
        "duration": 1.091,
        "velocity": 0.71,
        "hand": "left"
      },
      {
        "midi": 67,
        "time": 129.955,
        "duration": 0.545,
        "velocity": 0.71,
        "hand": "right"
      },
      {
        "midi": 63,
        "time": 130.227,
        "duration": 0.545,
        "velocity": 0.71,
        "hand": "right"
      },
      {
        "midi": 65,
        "time": 130.5,
        "duration": 0.545,
        "velocity": 0.71,
        "hand": "right"
      },
      {
        "midi": 62,
        "time": 130.773,
        "duration": 0.273,
        "velocity": 0.71,
        "hand": "right"
      },
      {
        "midi": 39,
        "time": 131.045,
        "duration": 8.455,
        "velocity": 0.71,
        "hand": "left"
      },
      {
        "midi": 63,
        "time": 131.045,
        "duration": 0.545,
        "velocity": 0.71,
        "hand": "right"
      },
      {
        "midi": 55,
        "time": 131.318,
        "duration": 0.273,
        "velocity": 0.71,
        "hand": "left"
      },
      {
        "midi": 58,
        "time": 131.591,
        "duration": 0.273,
        "velocity": 0.71,
        "hand": "left"
      },
      {
        "midi": 61,
        "time": 131.864,
        "duration": 0.273,
        "velocity": 0.71,
        "hand": "right"
      },
      {
        "midi": 63,
        "time": 132,
        "duration": 0.136,
        "velocity": 0.71,
        "hand": "right"
      },
      {
        "midi": 60,
        "time": 132.136,
        "duration": 0.273,
        "velocity": 0.71,
        "hand": "right"
      },
      {
        "midi": 68,
        "time": 132.136,
        "duration": 0.545,
        "velocity": 0.71,
        "hand": "right"
      },
      {
        "midi": 58,
        "time": 132.409,
        "duration": 0.273,
        "velocity": 0.71,
        "hand": "left"
      },
      {
        "midi": 60,
        "time": 132.682,
        "duration": 0.273,
        "velocity": 0.71,
        "hand": "right"
      },
      {
        "midi": 68,
        "time": 132.682,
        "duration": 0.545,
        "velocity": 0.71,
        "hand": "right"
      },
      {
        "midi": 62,
        "time": 132.955,
        "duration": 0.273,
        "velocity": 0.71,
        "hand": "right"
      },
      {
        "midi": 63,
        "time": 133.227,
        "duration": 0.273,
        "velocity": 0.71,
        "hand": "right"
      },
      {
        "midi": 67,
        "time": 133.227,
        "duration": 0.545,
        "velocity": 0.71,
        "hand": "right"
      },
      {
        "midi": 58,
        "time": 133.5,
        "duration": 0.273,
        "velocity": 0.71,
        "hand": "left"
      },
      {
        "midi": 61,
        "time": 133.773,
        "duration": 0.273,
        "velocity": 0.71,
        "hand": "right"
      },
      {
        "midi": 60,
        "time": 134.045,
        "duration": 0.273,
        "velocity": 0.71,
        "hand": "right"
      },
      {
        "midi": 68,
        "time": 134.182,
        "duration": 0.136,
        "velocity": 0.71,
        "hand": "right"
      },
      {
        "midi": 58,
        "time": 134.318,
        "duration": 0.273,
        "velocity": 0.71,
        "hand": "left"
      },
      {
        "midi": 73,
        "time": 134.318,
        "duration": 0.545,
        "velocity": 0.71,
        "hand": "right"
      },
      {
        "midi": 63,
        "time": 134.591,
        "duration": 0.273,
        "velocity": 0.71,
        "hand": "right"
      },
      {
        "midi": 65,
        "time": 134.864,
        "duration": 0.273,
        "velocity": 0.71,
        "hand": "right"
      },
      {
        "midi": 73,
        "time": 134.864,
        "duration": 0.545,
        "velocity": 0.71,
        "hand": "right"
      },
      {
        "midi": 67,
        "time": 135.136,
        "duration": 0.273,
        "velocity": 0.71,
        "hand": "right"
      },
      {
        "midi": 68,
        "time": 135.409,
        "duration": 0.273,
        "velocity": 0.71,
        "hand": "right"
      },
      {
        "midi": 72,
        "time": 135.409,
        "duration": 0.545,
        "velocity": 0.71,
        "hand": "right"
      },
      {
        "midi": 67,
        "time": 135.682,
        "duration": 0.273,
        "velocity": 0.71,
        "hand": "right"
      },
      {
        "midi": 68,
        "time": 135.955,
        "duration": 0.273,
        "velocity": 0.71,
        "hand": "right"
      },
      {
        "midi": 70,
        "time": 136.227,
        "duration": 0.273,
        "velocity": 0.71,
        "hand": "right"
      },
      {
        "midi": 75,
        "time": 136.364,
        "duration": 0.136,
        "velocity": 0.71,
        "hand": "right"
      },
      {
        "midi": 72,
        "time": 136.5,
        "duration": 0.545,
        "velocity": 0.71,
        "hand": "right"
      },
      {
        "midi": 80,
        "time": 136.5,
        "duration": 0.273,
        "velocity": 0.71,
        "hand": "right"
      },
      {
        "midi": 79,
        "time": 136.773,
        "duration": 0.273,
        "velocity": 0.71,
        "hand": "right"
      },
      {
        "midi": 68,
        "time": 137.045,
        "duration": 0.545,
        "velocity": 0.71,
        "hand": "right"
      },
      {
        "midi": 77,
        "time": 137.045,
        "duration": 0.273,
        "velocity": 0.71,
        "hand": "right"
      },
      {
        "midi": 75,
        "time": 137.318,
        "duration": 0.273,
        "velocity": 0.71,
        "hand": "right"
      },
      {
        "midi": 65,
        "time": 137.591,
        "duration": 0.273,
        "velocity": 0.71,
        "hand": "right"
      },
      {
        "midi": 74,
        "time": 137.591,
        "duration": 0.273,
        "velocity": 0.71,
        "hand": "right"
      },
      {
        "midi": 68,
        "time": 137.864,
        "duration": 0.273,
        "velocity": 0.71,
        "hand": "right"
      },
      {
        "midi": 72,
        "time": 137.864,
        "duration": 0.273,
        "velocity": 0.71,
        "hand": "right"
      },
      {
        "midi": 62,
        "time": 138.136,
        "duration": 0.273,
        "velocity": 0.71,
        "hand": "right"
      },
      {
        "midi": 70,
        "time": 138.136,
        "duration": 0.273,
        "velocity": 0.71,
        "hand": "right"
      },
      {
        "midi": 65,
        "time": 138.409,
        "duration": 0.273,
        "velocity": 0.71,
        "hand": "right"
      },
      {
        "midi": 68,
        "time": 138.409,
        "duration": 0.273,
        "velocity": 0.71,
        "hand": "right"
      },
      {
        "midi": 63,
        "time": 138.682,
        "duration": 0.273,
        "velocity": 0.71,
        "hand": "right"
      },
      {
        "midi": 67,
        "time": 138.682,
        "duration": 0.273,
        "velocity": 0.71,
        "hand": "right"
      },
      {
        "midi": 58,
        "time": 138.955,
        "duration": 0.273,
        "velocity": 0.71,
        "hand": "left"
      },
      {
        "midi": 65,
        "time": 138.955,
        "duration": 0.273,
        "velocity": 0.71,
        "hand": "right"
      },
      {
        "midi": 55,
        "time": 139.227,
        "duration": 0.273,
        "velocity": 0.71,
        "hand": "left"
      },
      {
        "midi": 63,
        "time": 139.227,
        "duration": 0.273,
        "velocity": 0.71,
        "hand": "right"
      },
      {
        "midi": 43,
        "time": 139.5,
        "duration": 0.273,
        "velocity": 0.71,
        "hand": "left"
      },
      {
        "midi": 58,
        "time": 139.5,
        "duration": 0.273,
        "velocity": 0.71,
        "hand": "left"
      },
      {
        "midi": 62,
        "time": 139.5,
        "duration": 0.273,
        "velocity": 0.71,
        "hand": "right"
      },
      {
        "midi": 44,
        "time": 139.773,
        "duration": 0.545,
        "velocity": 0.71,
        "hand": "left"
      },
      {
        "midi": 56,
        "time": 139.773,
        "duration": 0.545,
        "velocity": 0.71,
        "hand": "left"
      },
      {
        "midi": 60,
        "time": 139.773,
        "duration": 0.545,
        "velocity": 0.71,
        "hand": "right"
      },
      {
        "midi": 68,
        "time": 140.318,
        "duration": 0.545,
        "velocity": 0.71,
        "hand": "right"
      },
      {
        "midi": 72,
        "time": 140.318,
        "duration": 0.545,
        "velocity": 0.71,
        "hand": "right"
      },
      {
        "midi": 46,
        "time": 140.864,
        "duration": 1.091,
        "velocity": 0.71,
        "hand": "left"
      },
      {
        "midi": 56,
        "time": 141.409,
        "duration": 0.545,
        "velocity": 0.71,
        "hand": "left"
      },
      {
        "midi": 62,
        "time": 141.409,
        "duration": 0.545,
        "velocity": 0.71,
        "hand": "right"
      },
      {
        "midi": 39,
        "time": 141.955,
        "duration": 2.182,
        "velocity": 0.71,
        "hand": "left"
      },
      {
        "midi": 56,
        "time": 141.955,
        "duration": 1.091,
        "velocity": 0.71,
        "hand": "left"
      },
      {
        "midi": 62,
        "time": 141.955,
        "duration": 1.091,
        "velocity": 0.71,
        "hand": "right"
      },
      {
        "midi": 55,
        "time": 143.045,
        "duration": 1.091,
        "velocity": 0.71,
        "hand": "left"
      },
      {
        "midi": 63,
        "time": 143.045,
        "duration": 1.091,
        "velocity": 0.71,
        "hand": "right"
      }
    ],
    "hard": [
      {
        "midi": 46,
        "time": 0,
        "duration": 0.136,
        "velocity": 0.71,
        "hand": "left"
      },
      {
        "midi": 51,
        "time": 0.136,
        "duration": 0.545,
        "velocity": 0.71,
        "hand": "left"
      },
      {
        "midi": 51,
        "time": 0.682,
        "duration": 0.545,
        "velocity": 0.71,
        "hand": "left"
      },
      {
        "midi": 50,
        "time": 1.227,
        "duration": 0.545,
        "velocity": 0.71,
        "hand": "left"
      },
      {
        "midi": 51,
        "time": 2.182,
        "duration": 0.136,
        "velocity": 0.71,
        "hand": "left"
      },
      {
        "midi": 56,
        "time": 2.318,
        "duration": 0.545,
        "velocity": 0.71,
        "hand": "left"
      },
      {
        "midi": 56,
        "time": 2.864,
        "duration": 0.545,
        "velocity": 0.71,
        "hand": "left"
      },
      {
        "midi": 55,
        "time": 3.409,
        "duration": 0.545,
        "velocity": 0.71,
        "hand": "left"
      },
      {
        "midi": 58,
        "time": 4.364,
        "duration": 0.136,
        "velocity": 0.71,
        "hand": "left"
      },
      {
        "midi": 63,
        "time": 4.5,
        "duration": 0.273,
        "velocity": 0.71,
        "hand": "right"
      },
      {
        "midi": 62,
        "time": 4.773,
        "duration": 0.273,
        "velocity": 0.71,
        "hand": "right"
      },
      {
        "midi": 60,
        "time": 5.045,
        "duration": 0.273,
        "velocity": 0.71,
        "hand": "right"
      },
      {
        "midi": 58,
        "time": 5.318,
        "duration": 0.273,
        "velocity": 0.71,
        "hand": "left"
      },
      {
        "midi": 56,
        "time": 5.591,
        "duration": 0.273,
        "velocity": 0.71,
        "hand": "left"
      },
      {
        "midi": 55,
        "time": 5.864,
        "duration": 0.273,
        "velocity": 0.71,
        "hand": "left"
      },
      {
        "midi": 53,
        "time": 6.136,
        "duration": 0.273,
        "velocity": 0.71,
        "hand": "left"
      },
      {
        "midi": 51,
        "time": 6.409,
        "duration": 0.273,
        "velocity": 0.71,
        "hand": "left"
      },
      {
        "midi": 50,
        "time": 6.682,
        "duration": 0.273,
        "velocity": 0.71,
        "hand": "left"
      },
      {
        "midi": 48,
        "time": 6.955,
        "duration": 0.273,
        "velocity": 0.71,
        "hand": "left"
      },
      {
        "midi": 46,
        "time": 7.227,
        "duration": 0.273,
        "velocity": 0.71,
        "hand": "left"
      },
      {
        "midi": 44,
        "time": 7.5,
        "duration": 0.273,
        "velocity": 0.71,
        "hand": "left"
      },
      {
        "midi": 43,
        "time": 7.773,
        "duration": 0.273,
        "velocity": 0.71,
        "hand": "left"
      },
      {
        "midi": 41,
        "time": 8.045,
        "duration": 0.273,
        "velocity": 0.71,
        "hand": "left"
      },
      {
        "midi": 39,
        "time": 8.318,
        "duration": 0.273,
        "velocity": 0.71,
        "hand": "left"
      },
      {
        "midi": 41,
        "time": 8.591,
        "duration": 0.273,
        "velocity": 0.71,
        "hand": "left"
      },
      {
        "midi": 51,
        "time": 8.727,
        "duration": 0.136,
        "velocity": 0.71,
        "hand": "left"
      },
      {
        "midi": 43,
        "time": 8.864,
        "duration": 0.273,
        "velocity": 0.71,
        "hand": "left"
      },
      {
        "midi": 58,
        "time": 8.864,
        "duration": 0.545,
        "velocity": 0.71,
        "hand": "left"
      },
      {
        "midi": 41,
        "time": 9.136,
        "duration": 0.273,
        "velocity": 0.71,
        "hand": "left"
      },
      {
        "midi": 40,
        "time": 9.409,
        "duration": 0.273,
        "velocity": 0.71,
        "hand": "left"
      },
      {
        "midi": 58,
        "time": 9.409,
        "duration": 0.545,
        "velocity": 0.71,
        "hand": "left"
      },
      {
        "midi": 36,
        "time": 9.682,
        "duration": 0.273,
        "velocity": 0.71,
        "hand": "left"
      },
      {
        "midi": 41,
        "time": 9.955,
        "duration": 0.273,
        "velocity": 0.71,
        "hand": "left"
      },
      {
        "midi": 57,
        "time": 9.955,
        "duration": 0.545,
        "velocity": 0.71,
        "hand": "left"
      },
      {
        "midi": 48,
        "time": 10.227,
        "duration": 0.273,
        "velocity": 0.71,
        "hand": "left"
      },
      {
        "midi": 51,
        "time": 10.5,
        "duration": 0.273,
        "velocity": 0.71,
        "hand": "left"
      },
      {
        "midi": 50,
        "time": 10.773,
        "duration": 0.273,
        "velocity": 0.71,
        "hand": "left"
      },
      {
        "midi": 58,
        "time": 10.909,
        "duration": 0.136,
        "velocity": 0.71,
        "hand": "left"
      },
      {
        "midi": 48,
        "time": 11.045,
        "duration": 0.273,
        "velocity": 0.71,
        "hand": "left"
      },
      {
        "midi": 63,
        "time": 11.045,
        "duration": 0.545,
        "velocity": 0.71,
        "hand": "right"
      },
      {
        "midi": 46,
        "time": 11.318,
        "duration": 0.273,
        "velocity": 0.71,
        "hand": "left"
      },
      {
        "midi": 45,
        "time": 11.591,
        "duration": 0.273,
        "velocity": 0.71,
        "hand": "left"
      },
      {
        "midi": 63,
        "time": 11.591,
        "duration": 0.545,
        "velocity": 0.71,
        "hand": "right"
      },
      {
        "midi": 41,
        "time": 11.864,
        "duration": 0.273,
        "velocity": 0.71,
        "hand": "left"
      },
      {
        "midi": 46,
        "time": 12.136,
        "duration": 0.273,
        "velocity": 0.71,
        "hand": "left"
      },
      {
        "midi": 62,
        "time": 12.136,
        "duration": 0.545,
        "velocity": 0.71,
        "hand": "right"
      },
      {
        "midi": 53,
        "time": 12.409,
        "duration": 0.273,
        "velocity": 0.71,
        "hand": "left"
      },
      {
        "midi": 58,
        "time": 12.682,
        "duration": 0.273,
        "velocity": 0.71,
        "hand": "left"
      },
      {
        "midi": 57,
        "time": 12.955,
        "duration": 0.273,
        "velocity": 0.71,
        "hand": "left"
      },
      {
        "midi": 65,
        "time": 13.091,
        "duration": 0.136,
        "velocity": 0.71,
        "hand": "right"
      },
      {
        "midi": 55,
        "time": 13.227,
        "duration": 0.273,
        "velocity": 0.71,
        "hand": "left"
      },
      {
        "midi": 70,
        "time": 13.227,
        "duration": 0.273,
        "velocity": 0.71,
        "hand": "right"
      },
      {
        "midi": 53,
        "time": 13.5,
        "duration": 0.273,
        "velocity": 0.71,
        "hand": "left"
      },
      {
        "midi": 69,
        "time": 13.5,
        "duration": 0.273,
        "velocity": 0.71,
        "hand": "right"
      },
      {
        "midi": 51,
        "time": 13.773,
        "duration": 0.273,
        "velocity": 0.71,
        "hand": "left"
      },
      {
        "midi": 67,
        "time": 13.773,
        "duration": 0.273,
        "velocity": 0.71,
        "hand": "right"
      },
      {
        "midi": 50,
        "time": 14.045,
        "duration": 0.273,
        "velocity": 0.71,
        "hand": "left"
      },
      {
        "midi": 65,
        "time": 14.045,
        "duration": 0.273,
        "velocity": 0.71,
        "hand": "right"
      },
      {
        "midi": 48,
        "time": 14.318,
        "duration": 0.273,
        "velocity": 0.71,
        "hand": "left"
      },
      {
        "midi": 63,
        "time": 14.318,
        "duration": 0.273,
        "velocity": 0.71,
        "hand": "right"
      },
      {
        "midi": 46,
        "time": 14.591,
        "duration": 0.273,
        "velocity": 0.71,
        "hand": "left"
      },
      {
        "midi": 62,
        "time": 14.591,
        "duration": 0.273,
        "velocity": 0.71,
        "hand": "right"
      },
      {
        "midi": 45,
        "time": 14.864,
        "duration": 0.273,
        "velocity": 0.71,
        "hand": "left"
      },
      {
        "midi": 60,
        "time": 14.864,
        "duration": 0.273,
        "velocity": 0.71,
        "hand": "right"
      },
      {
        "midi": 43,
        "time": 15.136,
        "duration": 0.273,
        "velocity": 0.71,
        "hand": "left"
      },
      {
        "midi": 58,
        "time": 15.136,
        "duration": 0.273,
        "velocity": 0.71,
        "hand": "left"
      },
      {
        "midi": 41,
        "time": 15.409,
        "duration": 0.273,
        "velocity": 0.71,
        "hand": "left"
      },
      {
        "midi": 57,
        "time": 15.409,
        "duration": 0.273,
        "velocity": 0.71,
        "hand": "left"
      },
      {
        "midi": 43,
        "time": 15.682,
        "duration": 0.273,
        "velocity": 0.71,
        "hand": "left"
      },
      {
        "midi": 55,
        "time": 15.682,
        "duration": 0.273,
        "velocity": 0.71,
        "hand": "left"
      },
      {
        "midi": 45,
        "time": 15.955,
        "duration": 0.273,
        "velocity": 0.71,
        "hand": "left"
      },
      {
        "midi": 53,
        "time": 15.955,
        "duration": 0.273,
        "velocity": 0.71,
        "hand": "left"
      },
      {
        "midi": 41,
        "time": 16.227,
        "duration": 0.273,
        "velocity": 0.71,
        "hand": "left"
      },
      {
        "midi": 51,
        "time": 16.227,
        "duration": 0.273,
        "velocity": 0.71,
        "hand": "left"
      },
      {
        "midi": 46,
        "time": 16.5,
        "duration": 0.273,
        "velocity": 0.71,
        "hand": "left"
      },
      {
        "midi": 50,
        "time": 16.5,
        "duration": 0.273,
        "velocity": 0.71,
        "hand": "left"
      },
      {
        "midi": 48,
        "time": 16.773,
        "duration": 0.273,
        "velocity": 0.71,
        "hand": "left"
      },
      {
        "midi": 51,
        "time": 16.773,
        "duration": 0.273,
        "velocity": 0.71,
        "hand": "left"
      },
      {
        "midi": 50,
        "time": 17.045,
        "duration": 0.273,
        "velocity": 0.71,
        "hand": "left"
      },
      {
        "midi": 53,
        "time": 17.045,
        "duration": 0.273,
        "velocity": 0.71,
        "hand": "left"
      },
      {
        "midi": 51,
        "time": 17.318,
        "duration": 0.273,
        "velocity": 0.71,
        "hand": "left"
      },
      {
        "midi": 55,
        "time": 17.318,
        "duration": 0.273,
        "velocity": 0.71,
        "hand": "left"
      },
      {
        "midi": 53,
        "time": 17.591,
        "duration": 0.273,
        "velocity": 0.71,
        "hand": "left"
      },
      {
        "midi": 56,
        "time": 17.591,
        "duration": 0.273,
        "velocity": 0.71,
        "hand": "left"
      },
      {
        "midi": 55,
        "time": 17.864,
        "duration": 0.273,
        "velocity": 0.71,
        "hand": "left"
      },
      {
        "midi": 58,
        "time": 17.864,
        "duration": 0.273,
        "velocity": 0.71,
        "hand": "left"
      },
      {
        "midi": 53,
        "time": 18.136,
        "duration": 0.273,
        "velocity": 0.71,
        "hand": "left"
      },
      {
        "midi": 60,
        "time": 18.136,
        "duration": 0.818,
        "velocity": 0.71,
        "hand": "right"
      },
      {
        "midi": 51,
        "time": 18.409,
        "duration": 0.273,
        "velocity": 0.71,
        "hand": "left"
      },
      {
        "midi": 50,
        "time": 18.682,
        "duration": 0.273,
        "velocity": 0.71,
        "hand": "left"
      },
      {
        "midi": 46,
        "time": 18.955,
        "duration": 0.273,
        "velocity": 0.71,
        "hand": "left"
      },
      {
        "midi": 53,
        "time": 18.955,
        "duration": 0.273,
        "velocity": 0.71,
        "hand": "left"
      },
      {
        "midi": 48,
        "time": 19.227,
        "duration": 0.273,
        "velocity": 0.71,
        "hand": "left"
      },
      {
        "midi": 58,
        "time": 19.227,
        "duration": 0.273,
        "velocity": 0.71,
        "hand": "left"
      },
      {
        "midi": 50,
        "time": 19.5,
        "duration": 0.273,
        "velocity": 0.71,
        "hand": "left"
      },
      {
        "midi": 56,
        "time": 19.5,
        "duration": 0.273,
        "velocity": 0.71,
        "hand": "left"
      },
      {
        "midi": 58,
        "time": 19.636,
        "duration": 0.136,
        "velocity": 0.71,
        "hand": "left"
      },
      {
        "midi": 51,
        "time": 19.773,
        "duration": 0.273,
        "velocity": 0.71,
        "hand": "left"
      },
      {
        "midi": 55,
        "time": 19.773,
        "duration": 0.273,
        "velocity": 0.71,
        "hand": "left"
      },
      {
        "midi": 63,
        "time": 19.773,
        "duration": 0.545,
        "velocity": 0.71,
        "hand": "right"
      },
      {
        "midi": 50,
        "time": 20.045,
        "duration": 0.273,
        "velocity": 0.71,
        "hand": "left"
      },
      {
        "midi": 53,
        "time": 20.045,
        "duration": 0.273,
        "velocity": 0.71,
        "hand": "left"
      },
      {
        "midi": 51,
        "time": 20.318,
        "duration": 0.273,
        "velocity": 0.71,
        "hand": "left"
      },
      {
        "midi": 55,
        "time": 20.318,
        "duration": 0.273,
        "velocity": 0.71,
        "hand": "left"
      },
      {
        "midi": 63,
        "time": 20.318,
        "duration": 0.545,
        "velocity": 0.71,
        "hand": "right"
      },
      {
        "midi": 48,
        "time": 20.591,
        "duration": 0.273,
        "velocity": 0.71,
        "hand": "left"
      },
      {
        "midi": 57,
        "time": 20.591,
        "duration": 0.273,
        "velocity": 0.71,
        "hand": "left"
      },
      {
        "midi": 46,
        "time": 20.864,
        "duration": 0.273,
        "velocity": 0.71,
        "hand": "left"
      },
      {
        "midi": 58,
        "time": 20.864,
        "duration": 1.091,
        "velocity": 0.71,
        "hand": "left"
      },
      {
        "midi": 62,
        "time": 20.864,
        "duration": 0.545,
        "velocity": 0.71,
        "hand": "right"
      },
      {
        "midi": 53,
        "time": 21.136,
        "duration": 0.273,
        "velocity": 0.71,
        "hand": "left"
      },
      {
        "midi": 56,
        "time": 21.409,
        "duration": 0.273,
        "velocity": 0.71,
        "hand": "left"
      },
      {
        "midi": 55,
        "time": 21.682,
        "duration": 0.273,
        "velocity": 0.71,
        "hand": "left"
      },
      {
        "midi": 63,
        "time": 21.818,
        "duration": 0.136,
        "velocity": 0.71,
        "hand": "right"
      },
      {
        "midi": 53,
        "time": 21.955,
        "duration": 0.273,
        "velocity": 0.71,
        "hand": "left"
      },
      {
        "midi": 62,
        "time": 21.955,
        "duration": 0.273,
        "velocity": 0.71,
        "hand": "right"
      },
      {
        "midi": 68,
        "time": 21.955,
        "duration": 0.545,
        "velocity": 0.71,
        "hand": "right"
      },
      {
        "midi": 51,
        "time": 22.227,
        "duration": 0.273,
        "velocity": 0.71,
        "hand": "left"
      },
      {
        "midi": 63,
        "time": 22.227,
        "duration": 0.273,
        "velocity": 0.71,
        "hand": "right"
      },
      {
        "midi": 50,
        "time": 22.5,
        "duration": 0.273,
        "velocity": 0.71,
        "hand": "left"
      },
      {
        "midi": 65,
        "time": 22.5,
        "duration": 0.273,
        "velocity": 0.71,
        "hand": "right"
      },
      {
        "midi": 68,
        "time": 22.5,
        "duration": 0.545,
        "velocity": 0.71,
        "hand": "right"
      },
      {
        "midi": 46,
        "time": 22.773,
        "duration": 0.273,
        "velocity": 0.71,
        "hand": "left"
      },
      {
        "midi": 62,
        "time": 22.773,
        "duration": 0.273,
        "velocity": 0.71,
        "hand": "right"
      },
      {
        "midi": 51,
        "time": 23.045,
        "duration": 0.273,
        "velocity": 0.71,
        "hand": "left"
      },
      {
        "midi": 63,
        "time": 23.045,
        "duration": 2.182,
        "velocity": 0.71,
        "hand": "right"
      },
      {
        "midi": 67,
        "time": 23.045,
        "duration": 0.545,
        "velocity": 0.71,
        "hand": "right"
      },
      {
        "midi": 58,
        "time": 23.318,
        "duration": 0.273,
        "velocity": 0.71,
        "hand": "left"
      },
      {
        "midi": 63,
        "time": 23.591,
        "duration": 0.273,
        "velocity": 0.71,
        "hand": "right"
      },
      {
        "midi": 62,
        "time": 23.864,
        "duration": 0.273,
        "velocity": 0.71,
        "hand": "right"
      },
      {
        "midi": 70,
        "time": 24,
        "duration": 0.136,
        "velocity": 0.71,
        "hand": "right"
      },
      {
        "midi": 60,
        "time": 24.136,
        "duration": 0.273,
        "velocity": 0.71,
        "hand": "right"
      },
      {
        "midi": 75,
        "time": 24.136,
        "duration": 0.273,
        "velocity": 0.71,
        "hand": "right"
      },
      {
        "midi": 58,
        "time": 24.409,
        "duration": 0.273,
        "velocity": 0.71,
        "hand": "left"
      },
      {
        "midi": 74,
        "time": 24.409,
        "duration": 0.273,
        "velocity": 0.71,
        "hand": "right"
      },
      {
        "midi": 56,
        "time": 24.682,
        "duration": 0.273,
        "velocity": 0.71,
        "hand": "left"
      },
      {
        "midi": 72,
        "time": 24.682,
        "duration": 0.273,
        "velocity": 0.71,
        "hand": "right"
      },
      {
        "midi": 55,
        "time": 24.955,
        "duration": 0.273,
        "velocity": 0.71,
        "hand": "left"
      },
      {
        "midi": 70,
        "time": 24.955,
        "duration": 0.273,
        "velocity": 0.71,
        "hand": "right"
      },
      {
        "midi": 53,
        "time": 25.227,
        "duration": 0.273,
        "velocity": 0.71,
        "hand": "left"
      },
      {
        "midi": 62,
        "time": 25.227,
        "duration": 0.273,
        "velocity": 0.71,
        "hand": "right"
      },
      {
        "midi": 68,
        "time": 25.227,
        "duration": 0.273,
        "velocity": 0.71,
        "hand": "right"
      },
      {
        "midi": 51,
        "time": 25.5,
        "duration": 0.273,
        "velocity": 0.71,
        "hand": "left"
      },
      {
        "midi": 63,
        "time": 25.5,
        "duration": 0.273,
        "velocity": 0.71,
        "hand": "right"
      },
      {
        "midi": 67,
        "time": 25.5,
        "duration": 0.273,
        "velocity": 0.71,
        "hand": "right"
      },
      {
        "midi": 50,
        "time": 25.773,
        "duration": 0.273,
        "velocity": 0.71,
        "hand": "left"
      },
      {
        "midi": 58,
        "time": 25.773,
        "duration": 0.273,
        "velocity": 0.71,
        "hand": "left"
      },
      {
        "midi": 65,
        "time": 25.773,
        "duration": 0.273,
        "velocity": 0.71,
        "hand": "right"
      },
      {
        "midi": 48,
        "time": 26.045,
        "duration": 0.273,
        "velocity": 0.71,
        "hand": "left"
      },
      {
        "midi": 57,
        "time": 26.045,
        "duration": 0.273,
        "velocity": 0.71,
        "hand": "left"
      },
      {
        "midi": 63,
        "time": 26.045,
        "duration": 0.273,
        "velocity": 0.71,
        "hand": "right"
      },
      {
        "midi": 46,
        "time": 26.318,
        "duration": 0.273,
        "velocity": 0.71,
        "hand": "left"
      },
      {
        "midi": 58,
        "time": 26.318,
        "duration": 0.273,
        "velocity": 0.71,
        "hand": "left"
      },
      {
        "midi": 62,
        "time": 26.318,
        "duration": 0.273,
        "velocity": 0.71,
        "hand": "right"
      },
      {
        "midi": 44,
        "time": 26.591,
        "duration": 0.273,
        "velocity": 0.71,
        "hand": "left"
      },
      {
        "midi": 53,
        "time": 26.591,
        "duration": 0.273,
        "velocity": 0.71,
        "hand": "left"
      },
      {
        "midi": 60,
        "time": 26.591,
        "duration": 0.273,
        "velocity": 0.71,
        "hand": "right"
      },
      {
        "midi": 43,
        "time": 26.864,
        "duration": 0.273,
        "velocity": 0.71,
        "hand": "left"
      },
      {
        "midi": 55,
        "time": 26.864,
        "duration": 0.273,
        "velocity": 0.71,
        "hand": "left"
      },
      {
        "midi": 58,
        "time": 26.864,
        "duration": 0.273,
        "velocity": 0.71,
        "hand": "left"
      },
      {
        "midi": 41,
        "time": 27.136,
        "duration": 0.273,
        "velocity": 0.71,
        "hand": "left"
      },
      {
        "midi": 50,
        "time": 27.136,
        "duration": 0.273,
        "velocity": 0.71,
        "hand": "left"
      },
      {
        "midi": 56,
        "time": 27.136,
        "duration": 0.273,
        "velocity": 0.71,
        "hand": "left"
      },
      {
        "midi": 39,
        "time": 27.409,
        "duration": 0.545,
        "velocity": 0.71,
        "hand": "left"
      },
      {
        "midi": 51,
        "time": 27.409,
        "duration": 0.545,
        "velocity": 0.71,
        "hand": "left"
      },
      {
        "midi": 55,
        "time": 27.409,
        "duration": 0.273,
        "velocity": 0.71,
        "hand": "left"
      },
      {
        "midi": 58,
        "time": 27.682,
        "duration": 0.273,
        "velocity": 0.71,
        "hand": "left"
      },
      {
        "midi": 63,
        "time": 27.955,
        "duration": 0.273,
        "velocity": 0.71,
        "hand": "right"
      },
      {
        "midi": 67,
        "time": 28.227,
        "duration": 0.273,
        "velocity": 0.71,
        "hand": "right"
      },
      {
        "midi": 51,
        "time": 28.364,
        "duration": 0.136,
        "velocity": 0.71,
        "hand": "left"
      },
      {
        "midi": 48,
        "time": 28.5,
        "duration": 0.545,
        "velocity": 0.71,
        "hand": "left"
      },
      {
        "midi": 63,
        "time": 28.5,
        "duration": 0.545,
        "velocity": 0.71,
        "hand": "right"
      },
      {
        "midi": 68,
        "time": 28.5,
        "duration": 0.273,
        "velocity": 0.71,
        "hand": "right"
      },
      {
        "midi": 72,
        "time": 28.773,
        "duration": 0.273,
        "velocity": 0.71,
        "hand": "right"
      },
      {
        "midi": 50,
        "time": 29.045,
        "duration": 0.545,
        "velocity": 0.71,
        "hand": "left"
      },
      {
        "midi": 65,
        "time": 29.045,
        "duration": 0.545,
        "velocity": 0.71,
        "hand": "right"
      },
      {
        "midi": 70,
        "time": 29.045,
        "duration": 0.273,
        "velocity": 0.71,
        "hand": "right"
      },
      {
        "midi": 68,
        "time": 29.318,
        "duration": 0.273,
        "velocity": 0.71,
        "hand": "right"
      },
      {
        "midi": 51,
        "time": 29.591,
        "duration": 0.545,
        "velocity": 0.71,
        "hand": "left"
      },
      {
        "midi": 58,
        "time": 29.591,
        "duration": 0.545,
        "velocity": 0.71,
        "hand": "left"
      },
      {
        "midi": 67,
        "time": 29.591,
        "duration": 0.273,
        "velocity": 0.71,
        "hand": "right"
      },
      {
        "midi": 69,
        "time": 29.864,
        "duration": 0.273,
        "velocity": 0.71,
        "hand": "right"
      },
      {
        "midi": 70,
        "time": 30.136,
        "duration": 0.273,
        "velocity": 0.71,
        "hand": "right"
      },
      {
        "midi": 74,
        "time": 30.409,
        "duration": 0.273,
        "velocity": 0.71,
        "hand": "right"
      },
      {
        "midi": 58,
        "time": 30.545,
        "duration": 0.136,
        "velocity": 0.71,
        "hand": "left"
      },
      {
        "midi": 55,
        "time": 30.682,
        "duration": 0.545,
        "velocity": 0.71,
        "hand": "left"
      },
      {
        "midi": 75,
        "time": 30.682,
        "duration": 0.273,
        "velocity": 0.71,
        "hand": "right"
      },
      {
        "midi": 79,
        "time": 30.955,
        "duration": 0.273,
        "velocity": 0.71,
        "hand": "right"
      },
      {
        "midi": 57,
        "time": 31.227,
        "duration": 0.545,
        "velocity": 0.71,
        "hand": "left"
      },
      {
        "midi": 77,
        "time": 31.227,
        "duration": 0.273,
        "velocity": 0.71,
        "hand": "right"
      },
      {
        "midi": 75,
        "time": 31.5,
        "duration": 0.273,
        "velocity": 0.71,
        "hand": "right"
      },
      {
        "midi": 58,
        "time": 31.773,
        "duration": 0.273,
        "velocity": 0.71,
        "hand": "left"
      },
      {
        "midi": 74,
        "time": 31.773,
        "duration": 0.545,
        "velocity": 0.71,
        "hand": "right"
      },
      {
        "midi": 62,
        "time": 32.045,
        "duration": 0.273,
        "velocity": 0.71,
        "hand": "right"
      },
      {
        "midi": 65,
        "time": 32.318,
        "duration": 0.273,
        "velocity": 0.71,
        "hand": "right"
      },
      {
        "midi": 67,
        "time": 32.591,
        "duration": 0.273,
        "velocity": 0.71,
        "hand": "right"
      },
      {
        "midi": 82,
        "time": 32.727,
        "duration": 0.136,
        "velocity": 0.71,
        "hand": "right"
      },
      {
        "midi": 68,
        "time": 32.864,
        "duration": 0.273,
        "velocity": 0.71,
        "hand": "right"
      },
      {
        "midi": 84,
        "time": 32.864,
        "duration": 0.545,
        "velocity": 0.71,
        "hand": "right"
      },
      {
        "midi": 72,
        "time": 33.136,
        "duration": 0.273,
        "velocity": 0.71,
        "hand": "right"
      },
      {
        "midi": 70,
        "time": 33.409,
        "duration": 0.273,
        "velocity": 0.71,
        "hand": "right"
      },
      {
        "midi": 74,
        "time": 33.409,
        "duration": 0.545,
        "velocity": 0.71,
        "hand": "right"
      },
      {
        "midi": 68,
        "time": 33.682,
        "duration": 0.273,
        "velocity": 0.71,
        "hand": "right"
      },
      {
        "midi": 46,
        "time": 33.818,
        "duration": 0.136,
        "velocity": 0.71,
        "hand": "left"
      },
      {
        "midi": 51,
        "time": 33.955,
        "duration": 0.545,
        "velocity": 0.71,
        "hand": "left"
      },
      {
        "midi": 67,
        "time": 33.955,
        "duration": 0.545,
        "velocity": 0.71,
        "hand": "right"
      },
      {
        "midi": 75,
        "time": 33.955,
        "duration": 0.273,
        "velocity": 0.71,
        "hand": "right"
      },
      {
        "midi": 74,
        "time": 34.227,
        "duration": 0.273,
        "velocity": 0.71,
        "hand": "right"
      },
      {
        "midi": 51,
        "time": 34.5,
        "duration": 0.545,
        "velocity": 0.71,
        "hand": "left"
      },
      {
        "midi": 66,
        "time": 34.5,
        "duration": 0.545,
        "velocity": 0.71,
        "hand": "right"
      },
      {
        "midi": 72,
        "time": 34.5,
        "duration": 0.273,
        "velocity": 0.71,
        "hand": "right"
      },
      {
        "midi": 69,
        "time": 34.773,
        "duration": 0.273,
        "velocity": 0.71,
        "hand": "right"
      },
      {
        "midi": 50,
        "time": 35.045,
        "duration": 0.545,
        "velocity": 0.71,
        "hand": "left"
      },
      {
        "midi": 65,
        "time": 35.045,
        "duration": 0.545,
        "velocity": 0.71,
        "hand": "right"
      },
      {
        "midi": 70,
        "time": 35.045,
        "duration": 0.273,
        "velocity": 0.71,
        "hand": "right"
      },
      {
        "midi": 77,
        "time": 35.318,
        "duration": 0.273,
        "velocity": 0.71,
        "hand": "right"
      },
      {
        "midi": 70,
        "time": 35.591,
        "duration": 1.091,
        "velocity": 0.71,
        "hand": "right"
      },
      {
        "midi": 80,
        "time": 35.591,
        "duration": 0.273,
        "velocity": 0.71,
        "hand": "right"
      },
      {
        "midi": 79,
        "time": 35.864,
        "duration": 0.273,
        "velocity": 0.71,
        "hand": "right"
      },
      {
        "midi": 51,
        "time": 36,
        "duration": 0.136,
        "velocity": 0.71,
        "hand": "left"
      },
      {
        "midi": 56,
        "time": 36.136,
        "duration": 0.545,
        "velocity": 0.71,
        "hand": "left"
      },
      {
        "midi": 77,
        "time": 36.136,
        "duration": 0.273,
        "velocity": 0.71,
        "hand": "right"
      },
      {
        "midi": 75,
        "time": 36.409,
        "duration": 0.273,
        "velocity": 0.71,
        "hand": "right"
      },
      {
        "midi": 56,
        "time": 36.682,
        "duration": 0.545,
        "velocity": 0.71,
        "hand": "left"
      },
      {
        "midi": 71,
        "time": 36.682,
        "duration": 0.545,
        "velocity": 0.71,
        "hand": "right"
      },
      {
        "midi": 74,
        "time": 36.682,
        "duration": 0.273,
        "velocity": 0.71,
        "hand": "right"
      },
      {
        "midi": 77,
        "time": 36.955,
        "duration": 0.273,
        "velocity": 0.71,
        "hand": "right"
      },
      {
        "midi": 55,
        "time": 37.227,
        "duration": 0.545,
        "velocity": 0.71,
        "hand": "left"
      },
      {
        "midi": 70,
        "time": 37.227,
        "duration": 0.545,
        "velocity": 0.71,
        "hand": "right"
      },
      {
        "midi": 75,
        "time": 37.227,
        "duration": 0.273,
        "velocity": 0.71,
        "hand": "right"
      },
      {
        "midi": 82,
        "time": 37.5,
        "duration": 0.273,
        "velocity": 0.71,
        "hand": "right"
      },
      {
        "midi": 79,
        "time": 37.773,
        "duration": 0.818,
        "velocity": 0.71,
        "hand": "right"
      },
      {
        "midi": 87,
        "time": 37.773,
        "duration": 0.273,
        "velocity": 0.71,
        "hand": "right"
      },
      {
        "midi": 82,
        "time": 38.045,
        "duration": 0.273,
        "velocity": 0.71,
        "hand": "right"
      },
      {
        "midi": 58,
        "time": 38.182,
        "duration": 0.136,
        "velocity": 0.71,
        "hand": "left"
      },
      {
        "midi": 63,
        "time": 38.318,
        "duration": 0.273,
        "velocity": 0.71,
        "hand": "right"
      },
      {
        "midi": 84,
        "time": 38.318,
        "duration": 0.273,
        "velocity": 0.71,
        "hand": "right"
      },
      {
        "midi": 62,
        "time": 38.591,
        "duration": 0.273,
        "velocity": 0.71,
        "hand": "right"
      },
      {
        "midi": 77,
        "time": 38.591,
        "duration": 0.273,
        "velocity": 0.71,
        "hand": "right"
      },
      {
        "midi": 82,
        "time": 38.591,
        "duration": 0.273,
        "velocity": 0.71,
        "hand": "right"
      },
      {
        "midi": 60,
        "time": 38.864,
        "duration": 0.273,
        "velocity": 0.71,
        "hand": "right"
      },
      {
        "midi": 75,
        "time": 38.864,
        "duration": 0.273,
        "velocity": 0.71,
        "hand": "right"
      },
      {
        "midi": 80,
        "time": 38.864,
        "duration": 0.273,
        "velocity": 0.71,
        "hand": "right"
      },
      {
        "midi": 58,
        "time": 39.136,
        "duration": 0.273,
        "velocity": 0.71,
        "hand": "left"
      },
      {
        "midi": 74,
        "time": 39.136,
        "duration": 0.273,
        "velocity": 0.71,
        "hand": "right"
      },
      {
        "midi": 79,
        "time": 39.136,
        "duration": 0.273,
        "velocity": 0.71,
        "hand": "right"
      },
      {
        "midi": 56,
        "time": 39.409,
        "duration": 0.273,
        "velocity": 0.71,
        "hand": "left"
      },
      {
        "midi": 72,
        "time": 39.409,
        "duration": 0.273,
        "velocity": 0.71,
        "hand": "right"
      },
      {
        "midi": 77,
        "time": 39.409,
        "duration": 0.273,
        "velocity": 0.71,
        "hand": "right"
      },
      {
        "midi": 55,
        "time": 39.682,
        "duration": 0.273,
        "velocity": 0.71,
        "hand": "left"
      },
      {
        "midi": 70,
        "time": 39.682,
        "duration": 0.273,
        "velocity": 0.71,
        "hand": "right"
      },
      {
        "midi": 75,
        "time": 39.682,
        "duration": 0.273,
        "velocity": 0.71,
        "hand": "right"
      },
      {
        "midi": 53,
        "time": 39.955,
        "duration": 0.273,
        "velocity": 0.71,
        "hand": "left"
      },
      {
        "midi": 68,
        "time": 39.955,
        "duration": 0.273,
        "velocity": 0.71,
        "hand": "right"
      },
      {
        "midi": 74,
        "time": 39.955,
        "duration": 0.273,
        "velocity": 0.71,
        "hand": "right"
      },
      {
        "midi": 51,
        "time": 40.227,
        "duration": 0.273,
        "velocity": 0.71,
        "hand": "left"
      },
      {
        "midi": 67,
        "time": 40.227,
        "duration": 0.273,
        "velocity": 0.71,
        "hand": "right"
      },
      {
        "midi": 72,
        "time": 40.227,
        "duration": 0.273,
        "velocity": 0.71,
        "hand": "right"
      },
      {
        "midi": 50,
        "time": 40.5,
        "duration": 0.273,
        "velocity": 0.71,
        "hand": "left"
      },
      {
        "midi": 65,
        "time": 40.5,
        "duration": 0.273,
        "velocity": 0.71,
        "hand": "right"
      },
      {
        "midi": 70,
        "time": 40.5,
        "duration": 0.273,
        "velocity": 0.71,
        "hand": "right"
      },
      {
        "midi": 48,
        "time": 40.773,
        "duration": 0.273,
        "velocity": 0.71,
        "hand": "left"
      },
      {
        "midi": 63,
        "time": 40.773,
        "duration": 0.273,
        "velocity": 0.71,
        "hand": "right"
      },
      {
        "midi": 68,
        "time": 40.773,
        "duration": 0.273,
        "velocity": 0.71,
        "hand": "right"
      },
      {
        "midi": 46,
        "time": 41.045,
        "duration": 0.273,
        "velocity": 0.71,
        "hand": "left"
      },
      {
        "midi": 62,
        "time": 41.045,
        "duration": 0.273,
        "velocity": 0.71,
        "hand": "right"
      },
      {
        "midi": 67,
        "time": 41.045,
        "duration": 0.273,
        "velocity": 0.71,
        "hand": "right"
      },
      {
        "midi": 44,
        "time": 41.318,
        "duration": 0.273,
        "velocity": 0.71,
        "hand": "left"
      },
      {
        "midi": 60,
        "time": 41.318,
        "duration": 0.273,
        "velocity": 0.71,
        "hand": "right"
      },
      {
        "midi": 65,
        "time": 41.318,
        "duration": 0.273,
        "velocity": 0.71,
        "hand": "right"
      },
      {
        "midi": 43,
        "time": 41.591,
        "duration": 0.273,
        "velocity": 0.71,
        "hand": "left"
      },
      {
        "midi": 58,
        "time": 41.591,
        "duration": 0.545,
        "velocity": 0.71,
        "hand": "left"
      },
      {
        "midi": 63,
        "time": 41.591,
        "duration": 0.545,
        "velocity": 0.71,
        "hand": "right"
      },
      {
        "midi": 46,
        "time": 41.864,
        "duration": 0.273,
        "velocity": 0.71,
        "hand": "left"
      },
      {
        "midi": 51,
        "time": 42.136,
        "duration": 0.273,
        "velocity": 0.71,
        "hand": "left"
      },
      {
        "midi": 55,
        "time": 42.409,
        "duration": 0.273,
        "velocity": 0.71,
        "hand": "left"
      },
      {
        "midi": 63,
        "time": 42.545,
        "duration": 0.136,
        "velocity": 0.71,
        "hand": "right"
      },
      {
        "midi": 70,
        "time": 42.545,
        "duration": 0.136,
        "velocity": 0.71,
        "hand": "right"
      },
      {
        "midi": 56,
        "time": 42.682,
        "duration": 0.273,
        "velocity": 0.71,
        "hand": "left"
      },
      {
        "midi": 63,
        "time": 42.682,
        "duration": 0.545,
        "velocity": 0.71,
        "hand": "right"
      },
      {
        "midi": 72,
        "time": 42.682,
        "duration": 0.545,
        "velocity": 0.71,
        "hand": "right"
      },
      {
        "midi": 60,
        "time": 42.955,
        "duration": 0.273,
        "velocity": 0.71,
        "hand": "right"
      },
      {
        "midi": 58,
        "time": 43.227,
        "duration": 0.273,
        "velocity": 0.71,
        "hand": "left"
      },
      {
        "midi": 62,
        "time": 43.227,
        "duration": 0.545,
        "velocity": 0.71,
        "hand": "right"
      },
      {
        "midi": 65,
        "time": 43.227,
        "duration": 0.545,
        "velocity": 0.71,
        "hand": "right"
      },
      {
        "midi": 56,
        "time": 43.5,
        "duration": 0.273,
        "velocity": 0.71,
        "hand": "left"
      },
      {
        "midi": 55,
        "time": 43.773,
        "duration": 0.273,
        "velocity": 0.71,
        "hand": "left"
      },
      {
        "midi": 63,
        "time": 43.773,
        "duration": 0.545,
        "velocity": 0.71,
        "hand": "right"
      },
      {
        "midi": 67,
        "time": 43.773,
        "duration": 0.545,
        "velocity": 0.71,
        "hand": "right"
      },
      {
        "midi": 51,
        "time": 44.045,
        "duration": 0.273,
        "velocity": 0.71,
        "hand": "left"
      },
      {
        "midi": 55,
        "time": 44.318,
        "duration": 0.273,
        "velocity": 0.71,
        "hand": "left"
      },
      {
        "midi": 57,
        "time": 44.591,
        "duration": 0.273,
        "velocity": 0.71,
        "hand": "left"
      },
      {
        "midi": 66,
        "time": 44.727,
        "duration": 0.136,
        "velocity": 0.71,
        "hand": "right"
      },
      {
        "midi": 72,
        "time": 44.727,
        "duration": 0.136,
        "velocity": 0.71,
        "hand": "right"
      },
      {
        "midi": 58,
        "time": 44.864,
        "duration": 0.273,
        "velocity": 0.71,
        "hand": "left"
      },
      {
        "midi": 65,
        "time": 44.864,
        "duration": 0.545,
        "velocity": 0.71,
        "hand": "right"
      },
      {
        "midi": 73,
        "time": 44.864,
        "duration": 0.545,
        "velocity": 0.71,
        "hand": "right"
      },
      {
        "midi": 61,
        "time": 45.136,
        "duration": 0.273,
        "velocity": 0.71,
        "hand": "right"
      },
      {
        "midi": 60,
        "time": 45.409,
        "duration": 0.273,
        "velocity": 0.71,
        "hand": "right"
      },
      {
        "midi": 64,
        "time": 45.409,
        "duration": 0.545,
        "velocity": 0.71,
        "hand": "right"
      },
      {
        "midi": 67,
        "time": 45.409,
        "duration": 0.545,
        "velocity": 0.71,
        "hand": "right"
      },
      {
        "midi": 58,
        "time": 45.682,
        "duration": 0.273,
        "velocity": 0.71,
        "hand": "left"
      },
      {
        "midi": 56,
        "time": 45.955,
        "duration": 0.273,
        "velocity": 0.71,
        "hand": "left"
      },
      {
        "midi": 65,
        "time": 45.955,
        "duration": 0.545,
        "velocity": 0.71,
        "hand": "right"
      },
      {
        "midi": 68,
        "time": 45.955,
        "duration": 0.545,
        "velocity": 0.71,
        "hand": "right"
      },
      {
        "midi": 53,
        "time": 46.227,
        "duration": 0.273,
        "velocity": 0.71,
        "hand": "left"
      },
      {
        "midi": 56,
        "time": 46.5,
        "duration": 0.273,
        "velocity": 0.71,
        "hand": "left"
      },
      {
        "midi": 59,
        "time": 46.773,
        "duration": 0.273,
        "velocity": 0.71,
        "hand": "left"
      },
      {
        "midi": 68,
        "time": 46.909,
        "duration": 0.136,
        "velocity": 0.71,
        "hand": "right"
      },
      {
        "midi": 74,
        "time": 46.909,
        "duration": 0.136,
        "velocity": 0.71,
        "hand": "right"
      },
      {
        "midi": 60,
        "time": 47.045,
        "duration": 0.273,
        "velocity": 0.71,
        "hand": "right"
      },
      {
        "midi": 67,
        "time": 47.045,
        "duration": 0.545,
        "velocity": 0.71,
        "hand": "right"
      },
      {
        "midi": 75,
        "time": 47.045,
        "duration": 0.545,
        "velocity": 0.71,
        "hand": "right"
      },
      {
        "midi": 63,
        "time": 47.318,
        "duration": 0.273,
        "velocity": 0.71,
        "hand": "right"
      },
      {
        "midi": 62,
        "time": 47.591,
        "duration": 0.273,
        "velocity": 0.71,
        "hand": "right"
      },
      {
        "midi": 66,
        "time": 47.591,
        "duration": 0.545,
        "velocity": 0.71,
        "hand": "right"
      },
      {
        "midi": 69,
        "time": 47.591,
        "duration": 0.545,
        "velocity": 0.71,
        "hand": "right"
      },
      {
        "midi": 60,
        "time": 47.864,
        "duration": 0.273,
        "velocity": 0.71,
        "hand": "right"
      },
      {
        "midi": 59,
        "time": 48.136,
        "duration": 0.545,
        "velocity": 0.71,
        "hand": "left"
      },
      {
        "midi": 67,
        "time": 48.136,
        "duration": 0.273,
        "velocity": 0.71,
        "hand": "right"
      },
      {
        "midi": 71,
        "time": 48.136,
        "duration": 0.273,
        "velocity": 0.71,
        "hand": "right"
      },
      {
        "midi": 67,
        "time": 48.409,
        "duration": 0.273,
        "velocity": 0.71,
        "hand": "right"
      },
      {
        "midi": 71,
        "time": 48.682,
        "duration": 0.273,
        "velocity": 0.71,
        "hand": "right"
      },
      {
        "midi": 74,
        "time": 48.955,
        "duration": 0.273,
        "velocity": 0.71,
        "hand": "right"
      },
      {
        "midi": 55,
        "time": 49.091,
        "duration": 0.136,
        "velocity": 0.71,
        "hand": "left"
      },
      {
        "midi": 56,
        "time": 49.227,
        "duration": 0.545,
        "velocity": 0.71,
        "hand": "left"
      },
      {
        "midi": 77,
        "time": 49.227,
        "duration": 0.273,
        "velocity": 0.71,
        "hand": "right"
      },
      {
        "midi": 80,
        "time": 49.5,
        "duration": 0.273,
        "velocity": 0.71,
        "hand": "right"
      },
      {
        "midi": 47,
        "time": 49.773,
        "duration": 0.545,
        "velocity": 0.71,
        "hand": "left"
      },
      {
        "midi": 79,
        "time": 49.773,
        "duration": 0.273,
        "velocity": 0.71,
        "hand": "right"
      },
      {
        "midi": 77,
        "time": 50.045,
        "duration": 0.273,
        "velocity": 0.71,
        "hand": "right"
      },
      {
        "midi": 55,
        "time": 50.182,
        "duration": 0.136,
        "velocity": 0.71,
        "hand": "left"
      },
      {
        "midi": 48,
        "time": 50.318,
        "duration": 0.273,
        "velocity": 0.71,
        "hand": "left"
      },
      {
        "midi": 60,
        "time": 50.318,
        "duration": 0.545,
        "velocity": 0.71,
        "hand": "right"
      },
      {
        "midi": 77,
        "time": 50.318,
        "duration": 0.545,
        "velocity": 0.71,
        "hand": "right"
      },
      {
        "midi": 50,
        "time": 50.591,
        "duration": 0.273,
        "velocity": 0.71,
        "hand": "left"
      },
      {
        "midi": 51,
        "time": 50.864,
        "duration": 0.273,
        "velocity": 0.71,
        "hand": "left"
      },
      {
        "midi": 60,
        "time": 50.864,
        "duration": 0.545,
        "velocity": 0.71,
        "hand": "right"
      },
      {
        "midi": 75,
        "time": 50.864,
        "duration": 0.545,
        "velocity": 0.71,
        "hand": "right"
      },
      {
        "midi": 53,
        "time": 51.136,
        "duration": 0.273,
        "velocity": 0.71,
        "hand": "left"
      },
      {
        "midi": 55,
        "time": 51.409,
        "duration": 0.273,
        "velocity": 0.71,
        "hand": "left"
      },
      {
        "midi": 59,
        "time": 51.409,
        "duration": 0.545,
        "velocity": 0.71,
        "hand": "left"
      },
      {
        "midi": 74,
        "time": 51.409,
        "duration": 0.273,
        "velocity": 0.71,
        "hand": "right"
      },
      {
        "midi": 56,
        "time": 51.682,
        "duration": 0.273,
        "velocity": 0.71,
        "hand": "left"
      },
      {
        "midi": 65,
        "time": 51.682,
        "duration": 0.273,
        "velocity": 0.71,
        "hand": "right"
      },
      {
        "midi": 53,
        "time": 51.955,
        "duration": 0.273,
        "velocity": 0.71,
        "hand": "left"
      },
      {
        "midi": 68,
        "time": 51.955,
        "duration": 1.091,
        "velocity": 0.71,
        "hand": "right"
      },
      {
        "midi": 50,
        "time": 52.227,
        "duration": 0.273,
        "velocity": 0.71,
        "hand": "left"
      },
      {
        "midi": 60,
        "time": 52.364,
        "duration": 0.136,
        "velocity": 0.71,
        "hand": "right"
      },
      {
        "midi": 47,
        "time": 52.5,
        "duration": 0.273,
        "velocity": 0.71,
        "hand": "left"
      },
      {
        "midi": 65,
        "time": 52.5,
        "duration": 0.545,
        "velocity": 0.71,
        "hand": "right"
      },
      {
        "midi": 43,
        "time": 52.773,
        "duration": 0.273,
        "velocity": 0.71,
        "hand": "left"
      },
      {
        "midi": 45,
        "time": 53.045,
        "duration": 0.273,
        "velocity": 0.71,
        "hand": "left"
      },
      {
        "midi": 65,
        "time": 53.045,
        "duration": 0.545,
        "velocity": 0.71,
        "hand": "right"
      },
      {
        "midi": 67,
        "time": 53.045,
        "duration": 0.818,
        "velocity": 0.71,
        "hand": "right"
      },
      {
        "midi": 47,
        "time": 53.318,
        "duration": 0.273,
        "velocity": 0.71,
        "hand": "left"
      },
      {
        "midi": 48,
        "time": 53.591,
        "duration": 0.273,
        "velocity": 0.71,
        "hand": "left"
      },
      {
        "midi": 63,
        "time": 53.591,
        "duration": 0.545,
        "velocity": 0.71,
        "hand": "right"
      },
      {
        "midi": 60,
        "time": 53.864,
        "duration": 0.273,
        "velocity": 0.71,
        "hand": "right"
      },
      {
        "midi": 79,
        "time": 53.864,
        "duration": 0.273,
        "velocity": 0.71,
        "hand": "right"
      },
      {
        "midi": 62,
        "time": 54.136,
        "duration": 0.273,
        "velocity": 0.71,
        "hand": "right"
      },
      {
        "midi": 84,
        "time": 54.136,
        "duration": 0.273,
        "velocity": 0.71,
        "hand": "right"
      },
      {
        "midi": 64,
        "time": 54.409,
        "duration": 0.273,
        "velocity": 0.71,
        "hand": "right"
      },
      {
        "midi": 82,
        "time": 54.409,
        "duration": 0.273,
        "velocity": 0.71,
        "hand": "right"
      },
      {
        "midi": 67,
        "time": 54.545,
        "duration": 0.136,
        "velocity": 0.71,
        "hand": "right"
      },
      {
        "midi": 65,
        "time": 54.682,
        "duration": 0.545,
        "velocity": 0.71,
        "hand": "right"
      },
      {
        "midi": 72,
        "time": 54.682,
        "duration": 0.273,
        "velocity": 0.71,
        "hand": "right"
      },
      {
        "midi": 80,
        "time": 54.682,
        "duration": 0.273,
        "velocity": 0.71,
        "hand": "right"
      },
      {
        "midi": 70,
        "time": 54.955,
        "duration": 0.273,
        "velocity": 0.71,
        "hand": "right"
      },
      {
        "midi": 79,
        "time": 54.955,
        "duration": 0.273,
        "velocity": 0.71,
        "hand": "right"
      },
      {
        "midi": 53,
        "time": 55.227,
        "duration": 0.273,
        "velocity": 0.71,
        "hand": "left"
      },
      {
        "midi": 68,
        "time": 55.227,
        "duration": 0.273,
        "velocity": 0.71,
        "hand": "right"
      },
      {
        "midi": 77,
        "time": 55.227,
        "duration": 0.273,
        "velocity": 0.71,
        "hand": "right"
      },
      {
        "midi": 55,
        "time": 55.5,
        "duration": 0.273,
        "velocity": 0.71,
        "hand": "left"
      },
      {
        "midi": 67,
        "time": 55.5,
        "duration": 0.273,
        "velocity": 0.71,
        "hand": "right"
      },
      {
        "midi": 75,
        "time": 55.5,
        "duration": 0.273,
        "velocity": 0.71,
        "hand": "right"
      },
      {
        "midi": 56,
        "time": 55.773,
        "duration": 0.545,
        "velocity": 0.71,
        "hand": "left"
      },
      {
        "midi": 65,
        "time": 55.773,
        "duration": 0.273,
        "velocity": 0.71,
        "hand": "right"
      },
      {
        "midi": 74,
        "time": 55.773,
        "duration": 0.273,
        "velocity": 0.71,
        "hand": "right"
      },
      {
        "midi": 63,
        "time": 56.045,
        "duration": 0.273,
        "velocity": 0.71,
        "hand": "right"
      },
      {
        "midi": 72,
        "time": 56.045,
        "duration": 0.273,
        "velocity": 0.71,
        "hand": "right"
      },
      {
        "midi": 50,
        "time": 56.318,
        "duration": 0.273,
        "velocity": 0.71,
        "hand": "left"
      },
      {
        "midi": 62,
        "time": 56.318,
        "duration": 0.273,
        "velocity": 0.71,
        "hand": "right"
      },
      {
        "midi": 71,
        "time": 56.318,
        "duration": 0.273,
        "velocity": 0.71,
        "hand": "right"
      },
      {
        "midi": 51,
        "time": 56.591,
        "duration": 0.273,
        "velocity": 0.71,
        "hand": "left"
      },
      {
        "midi": 60,
        "time": 56.591,
        "duration": 0.273,
        "velocity": 0.71,
        "hand": "right"
      },
      {
        "midi": 68,
        "time": 56.591,
        "duration": 0.273,
        "velocity": 0.71,
        "hand": "right"
      },
      {
        "midi": 53,
        "time": 56.864,
        "duration": 0.545,
        "velocity": 0.71,
        "hand": "left"
      },
      {
        "midi": 59,
        "time": 56.864,
        "duration": 0.273,
        "velocity": 0.71,
        "hand": "left"
      },
      {
        "midi": 67,
        "time": 56.864,
        "duration": 0.273,
        "velocity": 0.71,
        "hand": "right"
      },
      {
        "midi": 56,
        "time": 57.136,
        "duration": 0.273,
        "velocity": 0.71,
        "hand": "left"
      },
      {
        "midi": 65,
        "time": 57.136,
        "duration": 0.273,
        "velocity": 0.71,
        "hand": "right"
      },
      {
        "midi": 45,
        "time": 57.409,
        "duration": 0.273,
        "velocity": 0.71,
        "hand": "left"
      },
      {
        "midi": 55,
        "time": 57.409,
        "duration": 0.273,
        "velocity": 0.71,
        "hand": "left"
      },
      {
        "midi": 63,
        "time": 57.409,
        "duration": 0.273,
        "velocity": 0.71,
        "hand": "right"
      },
      {
        "midi": 47,
        "time": 57.682,
        "duration": 0.273,
        "velocity": 0.71,
        "hand": "left"
      },
      {
        "midi": 53,
        "time": 57.682,
        "duration": 0.273,
        "velocity": 0.71,
        "hand": "left"
      },
      {
        "midi": 62,
        "time": 57.682,
        "duration": 0.273,
        "velocity": 0.71,
        "hand": "right"
      },
      {
        "midi": 48,
        "time": 57.955,
        "duration": 0.273,
        "velocity": 0.71,
        "hand": "left"
      },
      {
        "midi": 51,
        "time": 57.955,
        "duration": 0.273,
        "velocity": 0.71,
        "hand": "left"
      },
      {
        "midi": 60,
        "time": 57.955,
        "duration": 1.091,
        "velocity": 0.71,
        "hand": "right"
      },
      {
        "midi": 46,
        "time": 58.227,
        "duration": 0.273,
        "velocity": 0.71,
        "hand": "left"
      },
      {
        "midi": 52,
        "time": 58.227,
        "duration": 0.273,
        "velocity": 0.71,
        "hand": "left"
      },
      {
        "midi": 45,
        "time": 58.5,
        "duration": 0.273,
        "velocity": 0.71,
        "hand": "left"
      },
      {
        "midi": 53,
        "time": 58.5,
        "duration": 0.273,
        "velocity": 0.71,
        "hand": "left"
      },
      {
        "midi": 44,
        "time": 58.773,
        "duration": 0.273,
        "velocity": 0.71,
        "hand": "left"
      },
      {
        "midi": 54,
        "time": 58.773,
        "duration": 0.273,
        "velocity": 0.71,
        "hand": "left"
      },
      {
        "midi": 43,
        "time": 59.045,
        "duration": 0.273,
        "velocity": 0.71,
        "hand": "left"
      },
      {
        "midi": 55,
        "time": 59.045,
        "duration": 1.091,
        "velocity": 0.71,
        "hand": "left"
      },
      {
        "midi": 59,
        "time": 59.045,
        "duration": 0.545,
        "velocity": 0.71,
        "hand": "left"
      },
      {
        "midi": 50,
        "time": 59.318,
        "duration": 0.273,
        "velocity": 0.71,
        "hand": "left"
      },
      {
        "midi": 53,
        "time": 59.591,
        "duration": 0.273,
        "velocity": 0.71,
        "hand": "left"
      },
      {
        "midi": 51,
        "time": 59.864,
        "duration": 0.273,
        "velocity": 0.71,
        "hand": "left"
      },
      {
        "midi": 60,
        "time": 60,
        "duration": 0.136,
        "velocity": 0.71,
        "hand": "right"
      },
      {
        "midi": 50,
        "time": 60.136,
        "duration": 0.273,
        "velocity": 0.71,
        "hand": "left"
      },
      {
        "midi": 59,
        "time": 60.136,
        "duration": 0.273,
        "velocity": 0.71,
        "hand": "left"
      },
      {
        "midi": 67,
        "time": 60.136,
        "duration": 0.545,
        "velocity": 0.71,
        "hand": "right"
      },
      {
        "midi": 47,
        "time": 60.409,
        "duration": 0.273,
        "velocity": 0.71,
        "hand": "left"
      },
      {
        "midi": 62,
        "time": 60.409,
        "duration": 0.273,
        "velocity": 0.71,
        "hand": "right"
      },
      {
        "midi": 48,
        "time": 60.682,
        "duration": 0.273,
        "velocity": 0.71,
        "hand": "left"
      },
      {
        "midi": 63,
        "time": 60.682,
        "duration": 0.273,
        "velocity": 0.71,
        "hand": "right"
      },
      {
        "midi": 67,
        "time": 60.682,
        "duration": 0.545,
        "velocity": 0.71,
        "hand": "right"
      },
      {
        "midi": 45,
        "time": 60.955,
        "duration": 0.273,
        "velocity": 0.71,
        "hand": "left"
      },
      {
        "midi": 60,
        "time": 60.955,
        "duration": 0.273,
        "velocity": 0.71,
        "hand": "right"
      },
      {
        "midi": 50,
        "time": 61.227,
        "duration": 0.273,
        "velocity": 0.71,
        "hand": "left"
      },
      {
        "midi": 62,
        "time": 61.227,
        "duration": 1.091,
        "velocity": 0.71,
        "hand": "right"
      },
      {
        "midi": 66,
        "time": 61.227,
        "duration": 0.545,
        "velocity": 0.71,
        "hand": "right"
      },
      {
        "midi": 57,
        "time": 61.5,
        "duration": 0.273,
        "velocity": 0.71,
        "hand": "left"
      },
      {
        "midi": 60,
        "time": 61.773,
        "duration": 0.273,
        "velocity": 0.71,
        "hand": "right"
      },
      {
        "midi": 58,
        "time": 62.045,
        "duration": 0.273,
        "velocity": 0.71,
        "hand": "left"
      },
      {
        "midi": 67,
        "time": 62.182,
        "duration": 0.136,
        "velocity": 0.71,
        "hand": "right"
      },
      {
        "midi": 57,
        "time": 62.318,
        "duration": 0.273,
        "velocity": 0.71,
        "hand": "left"
      },
      {
        "midi": 66,
        "time": 62.318,
        "duration": 0.273,
        "velocity": 0.71,
        "hand": "right"
      },
      {
        "midi": 72,
        "time": 62.318,
        "duration": 0.545,
        "velocity": 0.71,
        "hand": "right"
      },
      {
        "midi": 55,
        "time": 62.591,
        "duration": 0.273,
        "velocity": 0.71,
        "hand": "left"
      },
      {
        "midi": 67,
        "time": 62.591,
        "duration": 0.273,
        "velocity": 0.71,
        "hand": "right"
      },
      {
        "midi": 54,
        "time": 62.864,
        "duration": 0.273,
        "velocity": 0.71,
        "hand": "left"
      },
      {
        "midi": 69,
        "time": 62.864,
        "duration": 0.273,
        "velocity": 0.71,
        "hand": "right"
      },
      {
        "midi": 72,
        "time": 62.864,
        "duration": 0.545,
        "velocity": 0.71,
        "hand": "right"
      },
      {
        "midi": 50,
        "time": 63.136,
        "duration": 0.273,
        "velocity": 0.71,
        "hand": "left"
      },
      {
        "midi": 66,
        "time": 63.136,
        "duration": 0.273,
        "velocity": 0.71,
        "hand": "right"
      },
      {
        "midi": 55,
        "time": 63.409,
        "duration": 0.273,
        "velocity": 0.71,
        "hand": "left"
      },
      {
        "midi": 67,
        "time": 63.409,
        "duration": 1.091,
        "velocity": 0.71,
        "hand": "right"
      },
      {
        "midi": 70,
        "time": 63.409,
        "duration": 0.545,
        "velocity": 0.71,
        "hand": "right"
      },
      {
        "midi": 62,
        "time": 63.682,
        "duration": 0.273,
        "velocity": 0.71,
        "hand": "right"
      },
      {
        "midi": 67,
        "time": 63.955,
        "duration": 0.273,
        "velocity": 0.71,
        "hand": "right"
      },
      {
        "midi": 65,
        "time": 64.227,
        "duration": 0.273,
        "velocity": 0.71,
        "hand": "right"
      },
      {
        "midi": 74,
        "time": 64.364,
        "duration": 0.136,
        "velocity": 0.71,
        "hand": "right"
      },
      {
        "midi": 63,
        "time": 64.5,
        "duration": 0.273,
        "velocity": 0.71,
        "hand": "right"
      },
      {
        "midi": 79,
        "time": 64.5,
        "duration": 0.273,
        "velocity": 0.71,
        "hand": "right"
      },
      {
        "midi": 62,
        "time": 64.773,
        "duration": 0.273,
        "velocity": 0.71,
        "hand": "right"
      },
      {
        "midi": 77,
        "time": 64.773,
        "duration": 0.273,
        "velocity": 0.71,
        "hand": "right"
      },
      {
        "midi": 60,
        "time": 65.045,
        "duration": 0.273,
        "velocity": 0.71,
        "hand": "right"
      },
      {
        "midi": 75,
        "time": 65.045,
        "duration": 0.273,
        "velocity": 0.71,
        "hand": "right"
      },
      {
        "midi": 58,
        "time": 65.318,
        "duration": 0.273,
        "velocity": 0.71,
        "hand": "left"
      },
      {
        "midi": 74,
        "time": 65.318,
        "duration": 0.273,
        "velocity": 0.71,
        "hand": "right"
      },
      {
        "midi": 57,
        "time": 65.591,
        "duration": 0.273,
        "velocity": 0.71,
        "hand": "left"
      },
      {
        "midi": 66,
        "time": 65.591,
        "duration": 0.273,
        "velocity": 0.71,
        "hand": "right"
      },
      {
        "midi": 72,
        "time": 65.591,
        "duration": 0.273,
        "velocity": 0.71,
        "hand": "right"
      },
      {
        "midi": 55,
        "time": 65.864,
        "duration": 0.273,
        "velocity": 0.71,
        "hand": "left"
      },
      {
        "midi": 67,
        "time": 65.864,
        "duration": 0.273,
        "velocity": 0.71,
        "hand": "right"
      },
      {
        "midi": 70,
        "time": 65.864,
        "duration": 0.273,
        "velocity": 0.71,
        "hand": "right"
      },
      {
        "midi": 48,
        "time": 66.136,
        "duration": 0.273,
        "velocity": 0.71,
        "hand": "left"
      },
      {
        "midi": 63,
        "time": 66.136,
        "duration": 0.273,
        "velocity": 0.71,
        "hand": "right"
      },
      {
        "midi": 69,
        "time": 66.136,
        "duration": 0.273,
        "velocity": 0.71,
        "hand": "right"
      },
      {
        "midi": 51,
        "time": 66.409,
        "duration": 0.273,
        "velocity": 0.71,
        "hand": "left"
      },
      {
        "midi": 60,
        "time": 66.409,
        "duration": 0.273,
        "velocity": 0.71,
        "hand": "right"
      },
      {
        "midi": 67,
        "time": 66.409,
        "duration": 0.273,
        "velocity": 0.71,
        "hand": "right"
      },
      {
        "midi": 50,
        "time": 66.682,
        "duration": 0.273,
        "velocity": 0.71,
        "hand": "left"
      },
      {
        "midi": 57,
        "time": 66.682,
        "duration": 0.545,
        "velocity": 0.71,
        "hand": "left"
      },
      {
        "midi": 66,
        "time": 66.682,
        "duration": 0.273,
        "velocity": 0.71,
        "hand": "right"
      },
      {
        "midi": 48,
        "time": 66.955,
        "duration": 0.273,
        "velocity": 0.71,
        "hand": "left"
      },
      {
        "midi": 63,
        "time": 66.955,
        "duration": 0.273,
        "velocity": 0.71,
        "hand": "right"
      },
      {
        "midi": 46,
        "time": 67.227,
        "duration": 0.273,
        "velocity": 0.71,
        "hand": "left"
      },
      {
        "midi": 54,
        "time": 67.227,
        "duration": 0.545,
        "velocity": 0.71,
        "hand": "left"
      },
      {
        "midi": 62,
        "time": 67.227,
        "duration": 0.273,
        "velocity": 0.71,
        "hand": "right"
      },
      {
        "midi": 45,
        "time": 67.5,
        "duration": 0.273,
        "velocity": 0.71,
        "hand": "left"
      },
      {
        "midi": 60,
        "time": 67.5,
        "duration": 0.273,
        "velocity": 0.71,
        "hand": "right"
      },
      {
        "midi": 43,
        "time": 67.773,
        "duration": 0.545,
        "velocity": 0.71,
        "hand": "left"
      },
      {
        "midi": 55,
        "time": 67.773,
        "duration": 0.545,
        "velocity": 0.71,
        "hand": "left"
      },
      {
        "midi": 58,
        "time": 67.773,
        "duration": 0.273,
        "velocity": 0.71,
        "hand": "left"
      },
      {
        "midi": 62,
        "time": 68.045,
        "duration": 0.273,
        "velocity": 0.71,
        "hand": "right"
      },
      {
        "midi": 67,
        "time": 68.318,
        "duration": 0.273,
        "velocity": 0.71,
        "hand": "right"
      },
      {
        "midi": 70,
        "time": 68.591,
        "duration": 0.273,
        "velocity": 0.71,
        "hand": "right"
      },
      {
        "midi": 55,
        "time": 68.727,
        "duration": 0.136,
        "velocity": 0.71,
        "hand": "left"
      },
      {
        "midi": 62,
        "time": 68.727,
        "duration": 0.136,
        "velocity": 0.71,
        "hand": "right"
      },
      {
        "midi": 48,
        "time": 68.864,
        "duration": 0.545,
        "velocity": 0.71,
        "hand": "left"
      },
      {
        "midi": 63,
        "time": 68.864,
        "duration": 0.545,
        "velocity": 0.71,
        "hand": "right"
      },
      {
        "midi": 68,
        "time": 68.864,
        "duration": 0.273,
        "velocity": 0.71,
        "hand": "right"
      },
      {
        "midi": 72,
        "time": 69.136,
        "duration": 0.273,
        "velocity": 0.71,
        "hand": "right"
      },
      {
        "midi": 50,
        "time": 69.409,
        "duration": 0.273,
        "velocity": 0.71,
        "hand": "left"
      },
      {
        "midi": 65,
        "time": 69.409,
        "duration": 0.545,
        "velocity": 0.71,
        "hand": "right"
      },
      {
        "midi": 70,
        "time": 69.409,
        "duration": 0.273,
        "velocity": 0.71,
        "hand": "right"
      },
      {
        "midi": 68,
        "time": 69.682,
        "duration": 0.273,
        "velocity": 0.71,
        "hand": "right"
      },
      {
        "midi": 46,
        "time": 69.818,
        "duration": 0.136,
        "velocity": 0.71,
        "hand": "left"
      },
      {
        "midi": 51,
        "time": 69.955,
        "duration": 0.545,
        "velocity": 0.71,
        "hand": "left"
      },
      {
        "midi": 63,
        "time": 69.955,
        "duration": 0.273,
        "velocity": 0.71,
        "hand": "right"
      },
      {
        "midi": 67,
        "time": 69.955,
        "duration": 0.273,
        "velocity": 0.71,
        "hand": "right"
      },
      {
        "midi": 62,
        "time": 70.227,
        "duration": 0.273,
        "velocity": 0.71,
        "hand": "right"
      },
      {
        "midi": 65,
        "time": 70.227,
        "duration": 0.273,
        "velocity": 0.71,
        "hand": "right"
      },
      {
        "midi": 51,
        "time": 70.5,
        "duration": 0.545,
        "velocity": 0.71,
        "hand": "left"
      },
      {
        "midi": 60,
        "time": 70.5,
        "duration": 0.273,
        "velocity": 0.71,
        "hand": "right"
      },
      {
        "midi": 67,
        "time": 70.5,
        "duration": 0.273,
        "velocity": 0.71,
        "hand": "right"
      },
      {
        "midi": 65,
        "time": 70.773,
        "duration": 0.273,
        "velocity": 0.71,
        "hand": "right"
      },
      {
        "midi": 69,
        "time": 70.773,
        "duration": 0.273,
        "velocity": 0.71,
        "hand": "right"
      },
      {
        "midi": 50,
        "time": 71.045,
        "duration": 0.545,
        "velocity": 0.71,
        "hand": "left"
      },
      {
        "midi": 58,
        "time": 71.045,
        "duration": 0.273,
        "velocity": 0.71,
        "hand": "left"
      },
      {
        "midi": 70,
        "time": 71.045,
        "duration": 1.091,
        "velocity": 0.71,
        "hand": "right"
      },
      {
        "midi": 65,
        "time": 71.318,
        "duration": 0.273,
        "velocity": 0.71,
        "hand": "right"
      },
      {
        "midi": 68,
        "time": 71.591,
        "duration": 0.273,
        "velocity": 0.71,
        "hand": "right"
      },
      {
        "midi": 67,
        "time": 71.864,
        "duration": 0.273,
        "velocity": 0.71,
        "hand": "right"
      },
      {
        "midi": 51,
        "time": 72,
        "duration": 0.136,
        "velocity": 0.71,
        "hand": "left"
      },
      {
        "midi": 56,
        "time": 72.136,
        "duration": 0.545,
        "velocity": 0.71,
        "hand": "left"
      },
      {
        "midi": 65,
        "time": 72.136,
        "duration": 0.273,
        "velocity": 0.71,
        "hand": "right"
      },
      {
        "midi": 72,
        "time": 72.136,
        "duration": 0.545,
        "velocity": 0.71,
        "hand": "right"
      },
      {
        "midi": 63,
        "time": 72.409,
        "duration": 0.273,
        "velocity": 0.71,
        "hand": "right"
      },
      {
        "midi": 56,
        "time": 72.682,
        "duration": 0.545,
        "velocity": 0.71,
        "hand": "left"
      },
      {
        "midi": 62,
        "time": 72.682,
        "duration": 0.273,
        "velocity": 0.71,
        "hand": "right"
      },
      {
        "midi": 70,
        "time": 72.682,
        "duration": 0.818,
        "velocity": 0.71,
        "hand": "right"
      },
      {
        "midi": 65,
        "time": 72.955,
        "duration": 0.273,
        "velocity": 0.71,
        "hand": "right"
      },
      {
        "midi": 55,
        "time": 73.227,
        "duration": 0.545,
        "velocity": 0.71,
        "hand": "left"
      },
      {
        "midi": 63,
        "time": 73.227,
        "duration": 0.273,
        "velocity": 0.71,
        "hand": "right"
      },
      {
        "midi": 70,
        "time": 73.5,
        "duration": 0.273,
        "velocity": 0.71,
        "hand": "right"
      },
      {
        "midi": 75,
        "time": 73.773,
        "duration": 0.273,
        "velocity": 0.71,
        "hand": "right"
      },
      {
        "midi": 79,
        "time": 73.773,
        "duration": 0.273,
        "velocity": 0.71,
        "hand": "right"
      },
      {
        "midi": 74,
        "time": 74.045,
        "duration": 0.273,
        "velocity": 0.71,
        "hand": "right"
      },
      {
        "midi": 77,
        "time": 74.045,
        "duration": 0.273,
        "velocity": 0.71,
        "hand": "right"
      },
      {
        "midi": 58,
        "time": 74.182,
        "duration": 0.136,
        "velocity": 0.71,
        "hand": "left"
      },
      {
        "midi": 63,
        "time": 74.318,
        "duration": 0.273,
        "velocity": 0.71,
        "hand": "right"
      },
      {
        "midi": 72,
        "time": 74.318,
        "duration": 0.273,
        "velocity": 0.71,
        "hand": "right"
      },
      {
        "midi": 75,
        "time": 74.318,
        "duration": 1.091,
        "velocity": 0.71,
        "hand": "right"
      },
      {
        "midi": 62,
        "time": 74.591,
        "duration": 0.273,
        "velocity": 0.71,
        "hand": "right"
      },
      {
        "midi": 70,
        "time": 74.591,
        "duration": 0.273,
        "velocity": 0.71,
        "hand": "right"
      },
      {
        "midi": 60,
        "time": 74.864,
        "duration": 0.273,
        "velocity": 0.71,
        "hand": "right"
      },
      {
        "midi": 68,
        "time": 74.864,
        "duration": 0.273,
        "velocity": 0.71,
        "hand": "right"
      },
      {
        "midi": 58,
        "time": 75.136,
        "duration": 0.273,
        "velocity": 0.71,
        "hand": "left"
      },
      {
        "midi": 67,
        "time": 75.136,
        "duration": 0.273,
        "velocity": 0.71,
        "hand": "right"
      },
      {
        "midi": 56,
        "time": 75.409,
        "duration": 0.273,
        "velocity": 0.71,
        "hand": "left"
      },
      {
        "midi": 65,
        "time": 75.409,
        "duration": 0.545,
        "velocity": 0.71,
        "hand": "right"
      },
      {
        "midi": 77,
        "time": 75.409,
        "duration": 0.273,
        "velocity": 0.71,
        "hand": "right"
      },
      {
        "midi": 55,
        "time": 75.682,
        "duration": 0.273,
        "velocity": 0.71,
        "hand": "left"
      },
      {
        "midi": 75,
        "time": 75.682,
        "duration": 0.273,
        "velocity": 0.71,
        "hand": "right"
      },
      {
        "midi": 53,
        "time": 75.955,
        "duration": 0.273,
        "velocity": 0.71,
        "hand": "left"
      },
      {
        "midi": 68,
        "time": 75.955,
        "duration": 1.091,
        "velocity": 0.71,
        "hand": "right"
      },
      {
        "midi": 74,
        "time": 75.955,
        "duration": 0.273,
        "velocity": 0.71,
        "hand": "right"
      },
      {
        "midi": 51,
        "time": 76.227,
        "duration": 0.273,
        "velocity": 0.71,
        "hand": "left"
      },
      {
        "midi": 72,
        "time": 76.227,
        "duration": 0.273,
        "velocity": 0.71,
        "hand": "right"
      },
      {
        "midi": 50,
        "time": 76.5,
        "duration": 0.273,
        "velocity": 0.71,
        "hand": "left"
      },
      {
        "midi": 70,
        "time": 76.5,
        "duration": 0.545,
        "velocity": 0.71,
        "hand": "right"
      },
      {
        "midi": 48,
        "time": 76.773,
        "duration": 0.273,
        "velocity": 0.71,
        "hand": "left"
      },
      {
        "midi": 46,
        "time": 77.045,
        "duration": 0.273,
        "velocity": 0.71,
        "hand": "left"
      },
      {
        "midi": 67,
        "time": 77.045,
        "duration": 0.273,
        "velocity": 0.71,
        "hand": "right"
      },
      {
        "midi": 74,
        "time": 77.045,
        "duration": 0.545,
        "velocity": 0.71,
        "hand": "right"
      },
      {
        "midi": 44,
        "time": 77.318,
        "duration": 0.273,
        "velocity": 0.71,
        "hand": "left"
      },
      {
        "midi": 65,
        "time": 77.318,
        "duration": 0.273,
        "velocity": 0.71,
        "hand": "right"
      },
      {
        "midi": 43,
        "time": 77.591,
        "duration": 0.273,
        "velocity": 0.71,
        "hand": "left"
      },
      {
        "midi": 63,
        "time": 77.591,
        "duration": 0.545,
        "velocity": 0.71,
        "hand": "right"
      },
      {
        "midi": 75,
        "time": 77.591,
        "duration": 0.273,
        "velocity": 0.71,
        "hand": "right"
      },
      {
        "midi": 46,
        "time": 77.864,
        "duration": 0.273,
        "velocity": 0.71,
        "hand": "left"
      },
      {
        "midi": 73,
        "time": 77.864,
        "duration": 0.273,
        "velocity": 0.71,
        "hand": "right"
      },
      {
        "midi": 48,
        "time": 78.136,
        "duration": 0.273,
        "velocity": 0.71,
        "hand": "left"
      },
      {
        "midi": 72,
        "time": 78.136,
        "duration": 0.273,
        "velocity": 0.71,
        "hand": "right"
      },
      {
        "midi": 49,
        "time": 78.409,
        "duration": 0.273,
        "velocity": 0.71,
        "hand": "left"
      },
      {
        "midi": 70,
        "time": 78.409,
        "duration": 0.273,
        "velocity": 0.71,
        "hand": "right"
      },
      {
        "midi": 51,
        "time": 78.545,
        "duration": 0.136,
        "velocity": 0.71,
        "hand": "left"
      },
      {
        "midi": 48,
        "time": 78.682,
        "duration": 0.273,
        "velocity": 0.71,
        "hand": "left"
      },
      {
        "midi": 56,
        "time": 78.682,
        "duration": 0.545,
        "velocity": 0.71,
        "hand": "left"
      },
      {
        "midi": 68,
        "time": 78.682,
        "duration": 0.545,
        "velocity": 0.71,
        "hand": "right"
      },
      {
        "midi": 41,
        "time": 78.955,
        "duration": 0.273,
        "velocity": 0.71,
        "hand": "left"
      },
      {
        "midi": 50,
        "time": 79.227,
        "duration": 0.273,
        "velocity": 0.71,
        "hand": "left"
      },
      {
        "midi": 56,
        "time": 79.227,
        "duration": 0.545,
        "velocity": 0.71,
        "hand": "left"
      },
      {
        "midi": 70,
        "time": 79.227,
        "duration": 0.818,
        "velocity": 0.71,
        "hand": "right"
      },
      {
        "midi": 46,
        "time": 79.5,
        "duration": 0.273,
        "velocity": 0.71,
        "hand": "left"
      },
      {
        "midi": 51,
        "time": 79.773,
        "duration": 0.273,
        "velocity": 0.71,
        "hand": "left"
      },
      {
        "midi": 55,
        "time": 79.773,
        "duration": 0.545,
        "velocity": 0.71,
        "hand": "left"
      },
      {
        "midi": 46,
        "time": 80.045,
        "duration": 0.273,
        "velocity": 0.71,
        "hand": "left"
      },
      {
        "midi": 61,
        "time": 80.045,
        "duration": 0.273,
        "velocity": 0.71,
        "hand": "right"
      },
      {
        "midi": 49,
        "time": 80.318,
        "duration": 0.273,
        "velocity": 0.71,
        "hand": "left"
      },
      {
        "midi": 65,
        "time": 80.318,
        "duration": 0.273,
        "velocity": 0.71,
        "hand": "right"
      },
      {
        "midi": 48,
        "time": 80.591,
        "duration": 0.273,
        "velocity": 0.71,
        "hand": "left"
      },
      {
        "midi": 63,
        "time": 80.591,
        "duration": 0.273,
        "velocity": 0.71,
        "hand": "right"
      },
      {
        "midi": 56,
        "time": 80.727,
        "duration": 0.136,
        "velocity": 0.71,
        "hand": "left"
      },
      {
        "midi": 46,
        "time": 80.864,
        "duration": 0.273,
        "velocity": 0.71,
        "hand": "left"
      },
      {
        "midi": 61,
        "time": 80.864,
        "duration": 0.545,
        "velocity": 0.71,
        "hand": "right"
      },
      {
        "midi": 44,
        "time": 81.136,
        "duration": 0.273,
        "velocity": 0.71,
        "hand": "left"
      },
      {
        "midi": 65,
        "time": 81.136,
        "duration": 0.273,
        "velocity": 0.71,
        "hand": "right"
      },
      {
        "midi": 43,
        "time": 81.409,
        "duration": 0.273,
        "velocity": 0.71,
        "hand": "left"
      },
      {
        "midi": 61,
        "time": 81.409,
        "duration": 0.545,
        "velocity": 0.71,
        "hand": "right"
      },
      {
        "midi": 70,
        "time": 81.409,
        "duration": 0.273,
        "velocity": 0.71,
        "hand": "right"
      },
      {
        "midi": 39,
        "time": 81.682,
        "duration": 0.273,
        "velocity": 0.71,
        "hand": "left"
      },
      {
        "midi": 67,
        "time": 81.682,
        "duration": 0.273,
        "velocity": 0.71,
        "hand": "right"
      },
      {
        "midi": 44,
        "time": 81.955,
        "duration": 0.273,
        "velocity": 0.71,
        "hand": "left"
      },
      {
        "midi": 60,
        "time": 81.955,
        "duration": 0.545,
        "velocity": 0.71,
        "hand": "right"
      },
      {
        "midi": 63,
        "time": 81.955,
        "duration": 0.545,
        "velocity": 0.71,
        "hand": "right"
      },
      {
        "midi": 51,
        "time": 82.227,
        "duration": 0.273,
        "velocity": 0.71,
        "hand": "left"
      },
      {
        "midi": 56,
        "time": 82.5,
        "duration": 0.273,
        "velocity": 0.71,
        "hand": "left"
      },
      {
        "midi": 72,
        "time": 82.5,
        "duration": 1.091,
        "velocity": 0.71,
        "hand": "right"
      },
      {
        "midi": 55,
        "time": 82.773,
        "duration": 0.273,
        "velocity": 0.71,
        "hand": "left"
      },
      {
        "midi": 63,
        "time": 82.909,
        "duration": 0.136,
        "velocity": 0.71,
        "hand": "right"
      },
      {
        "midi": 53,
        "time": 83.045,
        "duration": 0.273,
        "velocity": 0.71,
        "hand": "left"
      },
      {
        "midi": 68,
        "time": 83.045,
        "duration": 0.273,
        "velocity": 0.71,
        "hand": "right"
      },
      {
        "midi": 51,
        "time": 83.318,
        "duration": 0.273,
        "velocity": 0.71,
        "hand": "left"
      },
      {
        "midi": 67,
        "time": 83.318,
        "duration": 0.273,
        "velocity": 0.71,
        "hand": "right"
      },
      {
        "midi": 49,
        "time": 83.591,
        "duration": 0.273,
        "velocity": 0.71,
        "hand": "left"
      },
      {
        "midi": 65,
        "time": 83.591,
        "duration": 0.273,
        "velocity": 0.71,
        "hand": "right"
      },
      {
        "midi": 70,
        "time": 83.591,
        "duration": 0.273,
        "velocity": 0.71,
        "hand": "right"
      },
      {
        "midi": 48,
        "time": 83.864,
        "duration": 0.273,
        "velocity": 0.71,
        "hand": "left"
      },
      {
        "midi": 63,
        "time": 83.864,
        "duration": 0.273,
        "velocity": 0.71,
        "hand": "right"
      },
      {
        "midi": 72,
        "time": 83.864,
        "duration": 0.273,
        "velocity": 0.71,
        "hand": "right"
      },
      {
        "midi": 46,
        "time": 84.136,
        "duration": 0.273,
        "velocity": 0.71,
        "hand": "left"
      },
      {
        "midi": 61,
        "time": 84.136,
        "duration": 0.273,
        "velocity": 0.71,
        "hand": "right"
      },
      {
        "midi": 73,
        "time": 84.136,
        "duration": 0.273,
        "velocity": 0.71,
        "hand": "right"
      },
      {
        "midi": 48,
        "time": 84.409,
        "duration": 0.273,
        "velocity": 0.71,
        "hand": "left"
      },
      {
        "midi": 60,
        "time": 84.409,
        "duration": 0.273,
        "velocity": 0.71,
        "hand": "right"
      },
      {
        "midi": 75,
        "time": 84.409,
        "duration": 0.273,
        "velocity": 0.71,
        "hand": "right"
      },
      {
        "midi": 49,
        "time": 84.682,
        "duration": 0.273,
        "velocity": 0.71,
        "hand": "left"
      },
      {
        "midi": 58,
        "time": 84.682,
        "duration": 0.273,
        "velocity": 0.71,
        "hand": "left"
      },
      {
        "midi": 77,
        "time": 84.682,
        "duration": 0.818,
        "velocity": 0.71,
        "hand": "right"
      },
      {
        "midi": 50,
        "time": 84.955,
        "duration": 0.273,
        "velocity": 0.71,
        "hand": "left"
      },
      {
        "midi": 56,
        "time": 84.955,
        "duration": 0.273,
        "velocity": 0.71,
        "hand": "left"
      },
      {
        "midi": 51,
        "time": 85.227,
        "duration": 0.545,
        "velocity": 0.71,
        "hand": "left"
      },
      {
        "midi": 55,
        "time": 85.227,
        "duration": 0.273,
        "velocity": 0.71,
        "hand": "left"
      },
      {
        "midi": 53,
        "time": 85.5,
        "duration": 0.273,
        "velocity": 0.71,
        "hand": "left"
      },
      {
        "midi": 70,
        "time": 85.5,
        "duration": 0.273,
        "velocity": 0.71,
        "hand": "right"
      },
      {
        "midi": 43,
        "time": 85.773,
        "duration": 0.545,
        "velocity": 0.71,
        "hand": "left"
      },
      {
        "midi": 51,
        "time": 85.773,
        "duration": 0.273,
        "velocity": 0.71,
        "hand": "left"
      },
      {
        "midi": 75,
        "time": 85.773,
        "duration": 0.818,
        "velocity": 0.71,
        "hand": "right"
      },
      {
        "midi": 49,
        "time": 86.045,
        "duration": 0.273,
        "velocity": 0.71,
        "hand": "left"
      },
      {
        "midi": 44,
        "time": 86.318,
        "duration": 0.545,
        "velocity": 0.71,
        "hand": "left"
      },
      {
        "midi": 48,
        "time": 86.318,
        "duration": 0.273,
        "velocity": 0.71,
        "hand": "left"
      },
      {
        "midi": 51,
        "time": 86.591,
        "duration": 0.273,
        "velocity": 0.71,
        "hand": "left"
      },
      {
        "midi": 72,
        "time": 86.591,
        "duration": 0.273,
        "velocity": 0.71,
        "hand": "right"
      },
      {
        "midi": 56,
        "time": 86.864,
        "duration": 0.273,
        "velocity": 0.71,
        "hand": "left"
      },
      {
        "midi": 60,
        "time": 87.136,
        "duration": 0.273,
        "velocity": 0.71,
        "hand": "right"
      },
      {
        "midi": 56,
        "time": 87.273,
        "duration": 0.136,
        "velocity": 0.71,
        "hand": "left"
      },
      {
        "midi": 75,
        "time": 87.273,
        "duration": 0.136,
        "velocity": 0.71,
        "hand": "right"
      },
      {
        "midi": 53,
        "time": 87.409,
        "duration": 0.545,
        "velocity": 0.71,
        "hand": "left"
      },
      {
        "midi": 61,
        "time": 87.409,
        "duration": 0.273,
        "velocity": 0.71,
        "hand": "right"
      },
      {
        "midi": 77,
        "time": 87.409,
        "duration": 0.545,
        "velocity": 0.71,
        "hand": "right"
      },
      {
        "midi": 65,
        "time": 87.682,
        "duration": 0.273,
        "velocity": 0.71,
        "hand": "right"
      },
      {
        "midi": 55,
        "time": 87.955,
        "duration": 0.545,
        "velocity": 0.71,
        "hand": "left"
      },
      {
        "midi": 63,
        "time": 87.955,
        "duration": 0.273,
        "velocity": 0.71,
        "hand": "right"
      },
      {
        "midi": 70,
        "time": 87.955,
        "duration": 0.545,
        "velocity": 0.71,
        "hand": "right"
      },
      {
        "midi": 61,
        "time": 88.227,
        "duration": 0.273,
        "velocity": 0.71,
        "hand": "right"
      },
      {
        "midi": 56,
        "time": 88.5,
        "duration": 0.545,
        "velocity": 0.71,
        "hand": "left"
      },
      {
        "midi": 60,
        "time": 88.5,
        "duration": 0.273,
        "velocity": 0.71,
        "hand": "right"
      },
      {
        "midi": 72,
        "time": 88.5,
        "duration": 0.545,
        "velocity": 0.71,
        "hand": "right"
      },
      {
        "midi": 62,
        "time": 88.773,
        "duration": 0.273,
        "velocity": 0.71,
        "hand": "right"
      },
      {
        "midi": 63,
        "time": 89.045,
        "duration": 0.273,
        "velocity": 0.71,
        "hand": "right"
      },
      {
        "midi": 67,
        "time": 89.318,
        "duration": 0.273,
        "velocity": 0.71,
        "hand": "right"
      },
      {
        "midi": 55,
        "time": 89.455,
        "duration": 0.136,
        "velocity": 0.71,
        "hand": "left"
      },
      {
        "midi": 70,
        "time": 89.455,
        "duration": 0.136,
        "velocity": 0.71,
        "hand": "right"
      },
      {
        "midi": 53,
        "time": 89.591,
        "duration": 0.545,
        "velocity": 0.71,
        "hand": "left"
      },
      {
        "midi": 68,
        "time": 89.591,
        "duration": 0.273,
        "velocity": 0.71,
        "hand": "right"
      },
      {
        "midi": 72,
        "time": 89.591,
        "duration": 0.273,
        "velocity": 0.71,
        "hand": "right"
      },
      {
        "midi": 72,
        "time": 89.864,
        "duration": 0.273,
        "velocity": 0.71,
        "hand": "right"
      },
      {
        "midi": 58,
        "time": 90.136,
        "duration": 0.545,
        "velocity": 0.71,
        "hand": "left"
      },
      {
        "midi": 70,
        "time": 90.136,
        "duration": 0.273,
        "velocity": 0.71,
        "hand": "right"
      },
      {
        "midi": 74,
        "time": 90.136,
        "duration": 0.545,
        "velocity": 0.71,
        "hand": "right"
      },
      {
        "midi": 68,
        "time": 90.409,
        "duration": 0.273,
        "velocity": 0.71,
        "hand": "right"
      },
      {
        "midi": 51,
        "time": 90.682,
        "duration": 0.545,
        "velocity": 0.71,
        "hand": "left"
      },
      {
        "midi": 67,
        "time": 90.682,
        "duration": 0.545,
        "velocity": 0.71,
        "hand": "right"
      },
      {
        "midi": 75,
        "time": 90.682,
        "duration": 0.273,
        "velocity": 0.71,
        "hand": "right"
      },
      {
        "midi": 70,
        "time": 90.955,
        "duration": 0.273,
        "velocity": 0.71,
        "hand": "right"
      },
      {
        "midi": 72,
        "time": 91.227,
        "duration": 0.273,
        "velocity": 0.71,
        "hand": "right"
      },
      {
        "midi": 74,
        "time": 91.5,
        "duration": 0.273,
        "velocity": 0.71,
        "hand": "right"
      },
      {
        "midi": 50,
        "time": 91.636,
        "duration": 0.136,
        "velocity": 0.71,
        "hand": "left"
      },
      {
        "midi": 65,
        "time": 91.636,
        "duration": 0.136,
        "velocity": 0.71,
        "hand": "right"
      },
      {
        "midi": 48,
        "time": 91.773,
        "duration": 0.545,
        "velocity": 0.71,
        "hand": "left"
      },
      {
        "midi": 67,
        "time": 91.773,
        "duration": 0.545,
        "velocity": 0.71,
        "hand": "right"
      },
      {
        "midi": 75,
        "time": 91.773,
        "duration": 0.273,
        "velocity": 0.71,
        "hand": "right"
      },
      {
        "midi": 79,
        "time": 92.045,
        "duration": 0.273,
        "velocity": 0.71,
        "hand": "right"
      },
      {
        "midi": 53,
        "time": 92.318,
        "duration": 0.545,
        "velocity": 0.71,
        "hand": "left"
      },
      {
        "midi": 69,
        "time": 92.318,
        "duration": 0.545,
        "velocity": 0.71,
        "hand": "right"
      },
      {
        "midi": 77,
        "time": 92.318,
        "duration": 0.273,
        "velocity": 0.71,
        "hand": "right"
      },
      {
        "midi": 75,
        "time": 92.591,
        "duration": 0.273,
        "velocity": 0.71,
        "hand": "right"
      },
      {
        "midi": 46,
        "time": 92.864,
        "duration": 0.545,
        "velocity": 0.71,
        "hand": "left"
      },
      {
        "midi": 70,
        "time": 92.864,
        "duration": 0.273,
        "velocity": 0.71,
        "hand": "right"
      },
      {
        "midi": 74,
        "time": 92.864,
        "duration": 0.273,
        "velocity": 0.71,
        "hand": "right"
      },
      {
        "midi": 68,
        "time": 93.136,
        "duration": 0.273,
        "velocity": 0.71,
        "hand": "right"
      },
      {
        "midi": 72,
        "time": 93.136,
        "duration": 0.273,
        "velocity": 0.71,
        "hand": "right"
      },
      {
        "midi": 67,
        "time": 93.409,
        "duration": 0.273,
        "velocity": 0.71,
        "hand": "right"
      },
      {
        "midi": 70,
        "time": 93.409,
        "duration": 0.273,
        "velocity": 0.71,
        "hand": "right"
      },
      {
        "midi": 65,
        "time": 93.682,
        "duration": 0.273,
        "velocity": 0.71,
        "hand": "right"
      },
      {
        "midi": 68,
        "time": 93.682,
        "duration": 0.273,
        "velocity": 0.71,
        "hand": "right"
      },
      {
        "midi": 46,
        "time": 93.818,
        "duration": 0.136,
        "velocity": 0.71,
        "hand": "left"
      },
      {
        "midi": 51,
        "time": 93.955,
        "duration": 0.545,
        "velocity": 0.71,
        "hand": "left"
      },
      {
        "midi": 63,
        "time": 93.955,
        "duration": 0.273,
        "velocity": 0.71,
        "hand": "right"
      },
      {
        "midi": 67,
        "time": 93.955,
        "duration": 0.545,
        "velocity": 0.71,
        "hand": "right"
      },
      {
        "midi": 58,
        "time": 94.227,
        "duration": 0.273,
        "velocity": 0.71,
        "hand": "left"
      },
      {
        "midi": 51,
        "time": 94.5,
        "duration": 0.545,
        "velocity": 0.71,
        "hand": "left"
      },
      {
        "midi": 55,
        "time": 94.5,
        "duration": 0.273,
        "velocity": 0.71,
        "hand": "left"
      },
      {
        "midi": 60,
        "time": 94.773,
        "duration": 0.273,
        "velocity": 0.71,
        "hand": "right"
      },
      {
        "midi": 63,
        "time": 94.909,
        "duration": 0.136,
        "velocity": 0.71,
        "hand": "right"
      },
      {
        "midi": 50,
        "time": 95.045,
        "duration": 0.545,
        "velocity": 0.71,
        "hand": "left"
      },
      {
        "midi": 53,
        "time": 95.045,
        "duration": 0.273,
        "velocity": 0.71,
        "hand": "left"
      },
      {
        "midi": 70,
        "time": 95.045,
        "duration": 0.545,
        "velocity": 0.71,
        "hand": "right"
      },
      {
        "midi": 65,
        "time": 95.318,
        "duration": 0.273,
        "velocity": 0.71,
        "hand": "right"
      },
      {
        "midi": 68,
        "time": 95.591,
        "duration": 0.273,
        "velocity": 0.71,
        "hand": "right"
      },
      {
        "midi": 70,
        "time": 95.591,
        "duration": 0.545,
        "velocity": 0.71,
        "hand": "right"
      },
      {
        "midi": 67,
        "time": 95.864,
        "duration": 0.273,
        "velocity": 0.71,
        "hand": "right"
      },
      {
        "midi": 51,
        "time": 96,
        "duration": 0.136,
        "velocity": 0.71,
        "hand": "left"
      },
      {
        "midi": 56,
        "time": 96.136,
        "duration": 0.545,
        "velocity": 0.71,
        "hand": "left"
      },
      {
        "midi": 65,
        "time": 96.136,
        "duration": 0.273,
        "velocity": 0.71,
        "hand": "right"
      },
      {
        "midi": 68,
        "time": 96.136,
        "duration": 0.545,
        "velocity": 0.71,
        "hand": "right"
      },
      {
        "midi": 63,
        "time": 96.409,
        "duration": 0.273,
        "velocity": 0.71,
        "hand": "right"
      },
      {
        "midi": 56,
        "time": 96.682,
        "duration": 0.545,
        "velocity": 0.71,
        "hand": "left"
      },
      {
        "midi": 62,
        "time": 96.682,
        "duration": 0.273,
        "velocity": 0.71,
        "hand": "right"
      },
      {
        "midi": 65,
        "time": 96.955,
        "duration": 0.273,
        "velocity": 0.71,
        "hand": "right"
      },
      {
        "midi": 70,
        "time": 97.091,
        "duration": 0.136,
        "velocity": 0.71,
        "hand": "right"
      },
      {
        "midi": 55,
        "time": 97.227,
        "duration": 0.545,
        "velocity": 0.71,
        "hand": "left"
      },
      {
        "midi": 58,
        "time": 97.227,
        "duration": 0.273,
        "velocity": 0.71,
        "hand": "left"
      },
      {
        "midi": 75,
        "time": 97.227,
        "duration": 0.545,
        "velocity": 0.71,
        "hand": "right"
      },
      {
        "midi": 63,
        "time": 97.5,
        "duration": 0.273,
        "velocity": 0.71,
        "hand": "right"
      },
      {
        "midi": 67,
        "time": 97.773,
        "duration": 0.273,
        "velocity": 0.71,
        "hand": "right"
      },
      {
        "midi": 75,
        "time": 97.773,
        "duration": 0.409,
        "velocity": 0.71,
        "hand": "right"
      },
      {
        "midi": 65,
        "time": 98.045,
        "duration": 0.273,
        "velocity": 0.71,
        "hand": "right"
      },
      {
        "midi": 58,
        "time": 98.182,
        "duration": 0.136,
        "velocity": 0.71,
        "hand": "left"
      },
      {
        "midi": 74,
        "time": 98.182,
        "duration": 0.136,
        "velocity": 0.71,
        "hand": "right"
      },
      {
        "midi": 63,
        "time": 98.318,
        "duration": 0.273,
        "velocity": 0.71,
        "hand": "right"
      },
      {
        "midi": 67,
        "time": 98.318,
        "duration": 0.273,
        "velocity": 0.71,
        "hand": "right"
      },
      {
        "midi": 72,
        "time": 98.318,
        "duration": 0.545,
        "velocity": 0.71,
        "hand": "right"
      },
      {
        "midi": 62,
        "time": 98.591,
        "duration": 0.273,
        "velocity": 0.71,
        "hand": "right"
      },
      {
        "midi": 65,
        "time": 98.591,
        "duration": 0.273,
        "velocity": 0.71,
        "hand": "right"
      },
      {
        "midi": 60,
        "time": 98.864,
        "duration": 0.273,
        "velocity": 0.71,
        "hand": "right"
      },
      {
        "midi": 63,
        "time": 98.864,
        "duration": 0.273,
        "velocity": 0.71,
        "hand": "right"
      },
      {
        "midi": 58,
        "time": 99.136,
        "duration": 0.273,
        "velocity": 0.71,
        "hand": "left"
      },
      {
        "midi": 67,
        "time": 99.136,
        "duration": 0.273,
        "velocity": 0.71,
        "hand": "right"
      },
      {
        "midi": 72,
        "time": 99.273,
        "duration": 0.136,
        "velocity": 0.71,
        "hand": "right"
      },
      {
        "midi": 56,
        "time": 99.409,
        "duration": 0.273,
        "velocity": 0.71,
        "hand": "left"
      },
      {
        "midi": 60,
        "time": 99.409,
        "duration": 0.545,
        "velocity": 0.71,
        "hand": "right"
      },
      {
        "midi": 77,
        "time": 99.409,
        "duration": 0.273,
        "velocity": 0.71,
        "hand": "right"
      },
      {
        "midi": 55,
        "time": 99.682,
        "duration": 0.273,
        "velocity": 0.71,
        "hand": "left"
      },
      {
        "midi": 75,
        "time": 99.682,
        "duration": 0.273,
        "velocity": 0.71,
        "hand": "right"
      },
      {
        "midi": 53,
        "time": 99.955,
        "duration": 0.273,
        "velocity": 0.71,
        "hand": "left"
      },
      {
        "midi": 62,
        "time": 99.955,
        "duration": 0.273,
        "velocity": 0.71,
        "hand": "right"
      },
      {
        "midi": 74,
        "time": 99.955,
        "duration": 0.273,
        "velocity": 0.71,
        "hand": "right"
      },
      {
        "midi": 51,
        "time": 100.227,
        "duration": 0.273,
        "velocity": 0.71,
        "hand": "left"
      },
      {
        "midi": 63,
        "time": 100.227,
        "duration": 0.273,
        "velocity": 0.71,
        "hand": "right"
      },
      {
        "midi": 72,
        "time": 100.227,
        "duration": 0.273,
        "velocity": 0.71,
        "hand": "right"
      },
      {
        "midi": 50,
        "time": 100.5,
        "duration": 0.273,
        "velocity": 0.71,
        "hand": "left"
      },
      {
        "midi": 65,
        "time": 100.5,
        "duration": 0.545,
        "velocity": 0.71,
        "hand": "right"
      },
      {
        "midi": 70,
        "time": 100.5,
        "duration": 0.273,
        "velocity": 0.71,
        "hand": "right"
      },
      {
        "midi": 48,
        "time": 100.773,
        "duration": 0.273,
        "velocity": 0.71,
        "hand": "left"
      },
      {
        "midi": 68,
        "time": 100.773,
        "duration": 0.273,
        "velocity": 0.71,
        "hand": "right"
      },
      {
        "midi": 46,
        "time": 101.045,
        "duration": 0.273,
        "velocity": 0.71,
        "hand": "left"
      },
      {
        "midi": 62,
        "time": 101.045,
        "duration": 0.545,
        "velocity": 0.71,
        "hand": "right"
      },
      {
        "midi": 67,
        "time": 101.045,
        "duration": 0.273,
        "velocity": 0.71,
        "hand": "right"
      },
      {
        "midi": 44,
        "time": 101.318,
        "duration": 0.273,
        "velocity": 0.71,
        "hand": "left"
      },
      {
        "midi": 65,
        "time": 101.318,
        "duration": 0.273,
        "velocity": 0.71,
        "hand": "right"
      },
      {
        "midi": 43,
        "time": 101.591,
        "duration": 0.545,
        "velocity": 0.71,
        "hand": "left"
      },
      {
        "midi": 58,
        "time": 101.591,
        "duration": 0.545,
        "velocity": 0.71,
        "hand": "left"
      },
      {
        "midi": 63,
        "time": 101.591,
        "duration": 0.273,
        "velocity": 0.71,
        "hand": "right"
      },
      {
        "midi": 62,
        "time": 101.864,
        "duration": 0.273,
        "velocity": 0.71,
        "hand": "right"
      },
      {
        "midi": 51,
        "time": 102.136,
        "duration": 0.545,
        "velocity": 0.71,
        "hand": "left"
      },
      {
        "midi": 55,
        "time": 102.136,
        "duration": 0.545,
        "velocity": 0.71,
        "hand": "left"
      },
      {
        "midi": 60,
        "time": 102.136,
        "duration": 0.273,
        "velocity": 0.71,
        "hand": "right"
      },
      {
        "midi": 58,
        "time": 102.409,
        "duration": 0.273,
        "velocity": 0.71,
        "hand": "left"
      },
      {
        "midi": 44,
        "time": 102.682,
        "duration": 1.364,
        "velocity": 0.71,
        "hand": "left"
      },
      {
        "midi": 56,
        "time": 102.682,
        "duration": 0.545,
        "velocity": 0.71,
        "hand": "left"
      },
      {
        "midi": 60,
        "time": 102.682,
        "duration": 0.273,
        "velocity": 0.71,
        "hand": "right"
      },
      {
        "midi": 63,
        "time": 102.955,
        "duration": 0.273,
        "velocity": 0.71,
        "hand": "right"
      },
      {
        "midi": 60,
        "time": 103.227,
        "duration": 0.818,
        "velocity": 0.71,
        "hand": "right"
      },
      {
        "midi": 68,
        "time": 103.227,
        "duration": 0.273,
        "velocity": 0.71,
        "hand": "right"
      },
      {
        "midi": 70,
        "time": 103.5,
        "duration": 0.273,
        "velocity": 0.71,
        "hand": "right"
      },
      {
        "midi": 72,
        "time": 103.773,
        "duration": 1.091,
        "velocity": 0.71,
        "hand": "right"
      },
      {
        "midi": 41,
        "time": 104.045,
        "duration": 0.273,
        "velocity": 0.71,
        "hand": "left"
      },
      {
        "midi": 68,
        "time": 104.045,
        "duration": 0.273,
        "velocity": 0.71,
        "hand": "right"
      },
      {
        "midi": 44,
        "time": 104.318,
        "duration": 0.273,
        "velocity": 0.71,
        "hand": "left"
      },
      {
        "midi": 65,
        "time": 104.318,
        "duration": 0.273,
        "velocity": 0.71,
        "hand": "right"
      },
      {
        "midi": 45,
        "time": 104.591,
        "duration": 0.273,
        "velocity": 0.71,
        "hand": "left"
      },
      {
        "midi": 63,
        "time": 104.591,
        "duration": 0.273,
        "velocity": 0.71,
        "hand": "right"
      },
      {
        "midi": 46,
        "time": 104.864,
        "duration": 4.364,
        "velocity": 0.71,
        "hand": "left"
      },
      {
        "midi": 62,
        "time": 104.864,
        "duration": 0.273,
        "velocity": 0.71,
        "hand": "right"
      },
      {
        "midi": 70,
        "time": 104.864,
        "duration": 0.545,
        "velocity": 0.71,
        "hand": "right"
      },
      {
        "midi": 63,
        "time": 105.136,
        "duration": 0.273,
        "velocity": 0.71,
        "hand": "right"
      },
      {
        "midi": 65,
        "time": 105.409,
        "duration": 0.273,
        "velocity": 0.71,
        "hand": "right"
      },
      {
        "midi": 67,
        "time": 105.682,
        "duration": 0.273,
        "velocity": 0.71,
        "hand": "right"
      },
      {
        "midi": 70,
        "time": 105.818,
        "duration": 0.136,
        "velocity": 0.71,
        "hand": "right"
      },
      {
        "midi": 68,
        "time": 105.955,
        "duration": 0.273,
        "velocity": 0.71,
        "hand": "right"
      },
      {
        "midi": 72,
        "time": 105.955,
        "duration": 0.273,
        "velocity": 0.71,
        "hand": "right"
      },
      {
        "midi": 72,
        "time": 106.227,
        "duration": 0.273,
        "velocity": 0.71,
        "hand": "right"
      },
      {
        "midi": 70,
        "time": 106.5,
        "duration": 0.273,
        "velocity": 0.71,
        "hand": "right"
      },
      {
        "midi": 74,
        "time": 106.5,
        "duration": 0.545,
        "velocity": 0.71,
        "hand": "right"
      },
      {
        "midi": 68,
        "time": 106.773,
        "duration": 0.273,
        "velocity": 0.71,
        "hand": "right"
      },
      {
        "midi": 67,
        "time": 107.045,
        "duration": 0.545,
        "velocity": 0.71,
        "hand": "right"
      },
      {
        "midi": 75,
        "time": 107.045,
        "duration": 0.273,
        "velocity": 0.71,
        "hand": "right"
      },
      {
        "midi": 70,
        "time": 107.318,
        "duration": 0.273,
        "velocity": 0.71,
        "hand": "right"
      },
      {
        "midi": 72,
        "time": 107.591,
        "duration": 0.273,
        "velocity": 0.71,
        "hand": "right"
      },
      {
        "midi": 74,
        "time": 107.864,
        "duration": 0.273,
        "velocity": 0.71,
        "hand": "right"
      },
      {
        "midi": 65,
        "time": 108,
        "duration": 0.136,
        "velocity": 0.71,
        "hand": "right"
      },
      {
        "midi": 67,
        "time": 108.136,
        "duration": 0.545,
        "velocity": 0.71,
        "hand": "right"
      },
      {
        "midi": 75,
        "time": 108.136,
        "duration": 0.273,
        "velocity": 0.71,
        "hand": "right"
      },
      {
        "midi": 79,
        "time": 108.409,
        "duration": 0.273,
        "velocity": 0.71,
        "hand": "right"
      },
      {
        "midi": 69,
        "time": 108.682,
        "duration": 0.545,
        "velocity": 0.71,
        "hand": "right"
      },
      {
        "midi": 77,
        "time": 108.682,
        "duration": 0.273,
        "velocity": 0.71,
        "hand": "right"
      },
      {
        "midi": 75,
        "time": 108.955,
        "duration": 0.273,
        "velocity": 0.71,
        "hand": "right"
      },
      {
        "midi": 46,
        "time": 109.227,
        "duration": 0.545,
        "velocity": 0.71,
        "hand": "left"
      },
      {
        "midi": 70,
        "time": 109.227,
        "duration": 0.545,
        "velocity": 0.71,
        "hand": "right"
      },
      {
        "midi": 74,
        "time": 109.227,
        "duration": 0.273,
        "velocity": 0.71,
        "hand": "right"
      },
      {
        "midi": 75,
        "time": 109.5,
        "duration": 0.273,
        "velocity": 0.71,
        "hand": "right"
      },
      {
        "midi": 77,
        "time": 109.773,
        "duration": 0.273,
        "velocity": 0.71,
        "hand": "right"
      },
      {
        "midi": 79,
        "time": 110.045,
        "duration": 0.273,
        "velocity": 0.71,
        "hand": "right"
      },
      {
        "midi": 58,
        "time": 110.182,
        "duration": 0.136,
        "velocity": 0.71,
        "hand": "left"
      },
      {
        "midi": 62,
        "time": 110.182,
        "duration": 0.136,
        "velocity": 0.71,
        "hand": "right"
      },
      {
        "midi": 60,
        "time": 110.318,
        "duration": 0.545,
        "velocity": 0.71,
        "hand": "right"
      },
      {
        "midi": 63,
        "time": 110.318,
        "duration": 0.545,
        "velocity": 0.71,
        "hand": "right"
      },
      {
        "midi": 80,
        "time": 110.318,
        "duration": 0.273,
        "velocity": 0.71,
        "hand": "right"
      },
      {
        "midi": 84,
        "time": 110.591,
        "duration": 0.273,
        "velocity": 0.71,
        "hand": "right"
      },
      {
        "midi": 62,
        "time": 110.864,
        "duration": 0.545,
        "velocity": 0.71,
        "hand": "right"
      },
      {
        "midi": 65,
        "time": 110.864,
        "duration": 0.545,
        "velocity": 0.71,
        "hand": "right"
      },
      {
        "midi": 82,
        "time": 110.864,
        "duration": 0.273,
        "velocity": 0.71,
        "hand": "right"
      },
      {
        "midi": 80,
        "time": 111.136,
        "duration": 0.273,
        "velocity": 0.71,
        "hand": "right"
      },
      {
        "midi": 63,
        "time": 111.409,
        "duration": 0.273,
        "velocity": 0.71,
        "hand": "right"
      },
      {
        "midi": 67,
        "time": 111.409,
        "duration": 0.273,
        "velocity": 0.71,
        "hand": "right"
      },
      {
        "midi": 79,
        "time": 111.409,
        "duration": 0.545,
        "velocity": 0.71,
        "hand": "right"
      },
      {
        "midi": 51,
        "time": 111.682,
        "duration": 0.273,
        "velocity": 0.71,
        "hand": "left"
      },
      {
        "midi": 55,
        "time": 111.682,
        "duration": 0.273,
        "velocity": 0.71,
        "hand": "left"
      },
      {
        "midi": 53,
        "time": 111.955,
        "duration": 0.273,
        "velocity": 0.71,
        "hand": "left"
      },
      {
        "midi": 56,
        "time": 111.955,
        "duration": 0.273,
        "velocity": 0.71,
        "hand": "left"
      },
      {
        "midi": 55,
        "time": 112.227,
        "duration": 0.273,
        "velocity": 0.71,
        "hand": "left"
      },
      {
        "midi": 58,
        "time": 112.227,
        "duration": 0.273,
        "velocity": 0.71,
        "hand": "left"
      },
      {
        "midi": 63,
        "time": 112.364,
        "duration": 0.136,
        "velocity": 0.71,
        "hand": "right"
      },
      {
        "midi": 56,
        "time": 112.5,
        "duration": 0.273,
        "velocity": 0.71,
        "hand": "left"
      },
      {
        "midi": 60,
        "time": 112.5,
        "duration": 0.273,
        "velocity": 0.71,
        "hand": "right"
      },
      {
        "midi": 65,
        "time": 112.5,
        "duration": 0.273,
        "velocity": 0.71,
        "hand": "right"
      },
      {
        "midi": 60,
        "time": 112.773,
        "duration": 0.273,
        "velocity": 0.71,
        "hand": "right"
      },
      {
        "midi": 63,
        "time": 112.773,
        "duration": 0.273,
        "velocity": 0.71,
        "hand": "right"
      },
      {
        "midi": 58,
        "time": 113.045,
        "duration": 0.273,
        "velocity": 0.71,
        "hand": "left"
      },
      {
        "midi": 62,
        "time": 113.045,
        "duration": 0.273,
        "velocity": 0.71,
        "hand": "right"
      },
      {
        "midi": 70,
        "time": 113.045,
        "duration": 0.273,
        "velocity": 0.71,
        "hand": "right"
      },
      {
        "midi": 56,
        "time": 113.318,
        "duration": 0.273,
        "velocity": 0.71,
        "hand": "left"
      },
      {
        "midi": 60,
        "time": 113.318,
        "duration": 0.273,
        "velocity": 0.71,
        "hand": "right"
      },
      {
        "midi": 55,
        "time": 113.591,
        "duration": 0.273,
        "velocity": 0.71,
        "hand": "left"
      },
      {
        "midi": 58,
        "time": 113.591,
        "duration": 0.273,
        "velocity": 0.71,
        "hand": "left"
      },
      {
        "midi": 63,
        "time": 113.591,
        "duration": 0.545,
        "velocity": 0.71,
        "hand": "right"
      },
      {
        "midi": 53,
        "time": 113.864,
        "duration": 0.273,
        "velocity": 0.71,
        "hand": "left"
      },
      {
        "midi": 56,
        "time": 113.864,
        "duration": 0.273,
        "velocity": 0.71,
        "hand": "left"
      },
      {
        "midi": 51,
        "time": 114.136,
        "duration": 0.273,
        "velocity": 0.71,
        "hand": "left"
      },
      {
        "midi": 55,
        "time": 114.136,
        "duration": 0.273,
        "velocity": 0.71,
        "hand": "left"
      },
      {
        "midi": 49,
        "time": 114.409,
        "duration": 0.273,
        "velocity": 0.71,
        "hand": "left"
      },
      {
        "midi": 58,
        "time": 114.409,
        "duration": 0.273,
        "velocity": 0.71,
        "hand": "left"
      },
      {
        "midi": 63,
        "time": 114.545,
        "duration": 0.136,
        "velocity": 0.71,
        "hand": "right"
      },
      {
        "midi": 48,
        "time": 114.682,
        "duration": 0.273,
        "velocity": 0.71,
        "hand": "left"
      },
      {
        "midi": 63,
        "time": 114.682,
        "duration": 0.273,
        "velocity": 0.71,
        "hand": "right"
      },
      {
        "midi": 68,
        "time": 114.682,
        "duration": 0.545,
        "velocity": 0.71,
        "hand": "right"
      },
      {
        "midi": 46,
        "time": 114.955,
        "duration": 0.273,
        "velocity": 0.71,
        "hand": "left"
      },
      {
        "midi": 62,
        "time": 114.955,
        "duration": 0.273,
        "velocity": 0.71,
        "hand": "right"
      },
      {
        "midi": 48,
        "time": 115.227,
        "duration": 0.273,
        "velocity": 0.71,
        "hand": "left"
      },
      {
        "midi": 63,
        "time": 115.227,
        "duration": 0.273,
        "velocity": 0.71,
        "hand": "right"
      },
      {
        "midi": 68,
        "time": 115.227,
        "duration": 0.545,
        "velocity": 0.71,
        "hand": "right"
      },
      {
        "midi": 50,
        "time": 115.5,
        "duration": 0.273,
        "velocity": 0.71,
        "hand": "left"
      },
      {
        "midi": 65,
        "time": 115.5,
        "duration": 0.273,
        "velocity": 0.71,
        "hand": "right"
      },
      {
        "midi": 51,
        "time": 115.773,
        "duration": 0.273,
        "velocity": 0.71,
        "hand": "left"
      },
      {
        "midi": 58,
        "time": 115.773,
        "duration": 0.273,
        "velocity": 0.71,
        "hand": "left"
      },
      {
        "midi": 67,
        "time": 115.773,
        "duration": 0.545,
        "velocity": 0.71,
        "hand": "right"
      },
      {
        "midi": 46,
        "time": 116.045,
        "duration": 0.273,
        "velocity": 0.71,
        "hand": "left"
      },
      {
        "midi": 61,
        "time": 116.045,
        "duration": 0.273,
        "velocity": 0.71,
        "hand": "right"
      },
      {
        "midi": 49,
        "time": 116.318,
        "duration": 0.273,
        "velocity": 0.71,
        "hand": "left"
      },
      {
        "midi": 65,
        "time": 116.318,
        "duration": 0.273,
        "velocity": 0.71,
        "hand": "right"
      },
      {
        "midi": 48,
        "time": 116.591,
        "duration": 0.273,
        "velocity": 0.71,
        "hand": "left"
      },
      {
        "midi": 63,
        "time": 116.591,
        "duration": 0.273,
        "velocity": 0.71,
        "hand": "right"
      },
      {
        "midi": 68,
        "time": 116.727,
        "duration": 0.136,
        "velocity": 0.71,
        "hand": "right"
      },
      {
        "midi": 46,
        "time": 116.864,
        "duration": 0.273,
        "velocity": 0.71,
        "hand": "left"
      },
      {
        "midi": 67,
        "time": 116.864,
        "duration": 0.273,
        "velocity": 0.71,
        "hand": "right"
      },
      {
        "midi": 73,
        "time": 116.864,
        "duration": 0.545,
        "velocity": 0.71,
        "hand": "right"
      },
      {
        "midi": 44,
        "time": 117.136,
        "duration": 0.273,
        "velocity": 0.71,
        "hand": "left"
      },
      {
        "midi": 68,
        "time": 117.136,
        "duration": 0.273,
        "velocity": 0.71,
        "hand": "right"
      },
      {
        "midi": 43,
        "time": 117.409,
        "duration": 0.273,
        "velocity": 0.71,
        "hand": "left"
      },
      {
        "midi": 70,
        "time": 117.409,
        "duration": 0.273,
        "velocity": 0.71,
        "hand": "right"
      },
      {
        "midi": 73,
        "time": 117.409,
        "duration": 0.545,
        "velocity": 0.71,
        "hand": "right"
      },
      {
        "midi": 46,
        "time": 117.682,
        "duration": 0.273,
        "velocity": 0.71,
        "hand": "left"
      },
      {
        "midi": 67,
        "time": 117.682,
        "duration": 0.273,
        "velocity": 0.71,
        "hand": "right"
      },
      {
        "midi": 44,
        "time": 117.955,
        "duration": 0.273,
        "velocity": 0.71,
        "hand": "left"
      },
      {
        "midi": 63,
        "time": 117.955,
        "duration": 0.545,
        "velocity": 0.71,
        "hand": "right"
      },
      {
        "midi": 72,
        "time": 117.955,
        "duration": 0.545,
        "velocity": 0.71,
        "hand": "right"
      },
      {
        "midi": 46,
        "time": 118.227,
        "duration": 0.273,
        "velocity": 0.71,
        "hand": "left"
      },
      {
        "midi": 48,
        "time": 118.5,
        "duration": 0.273,
        "velocity": 0.71,
        "hand": "left"
      },
      {
        "midi": 68,
        "time": 118.5,
        "duration": 0.545,
        "velocity": 0.71,
        "hand": "right"
      },
      {
        "midi": 44,
        "time": 118.773,
        "duration": 0.273,
        "velocity": 0.71,
        "hand": "left"
      },
      {
        "midi": 75,
        "time": 118.909,
        "duration": 0.136,
        "velocity": 0.71,
        "hand": "right"
      },
      {
        "midi": 41,
        "time": 119.045,
        "duration": 0.273,
        "velocity": 0.71,
        "hand": "left"
      },
      {
        "midi": 72,
        "time": 119.045,
        "duration": 1.091,
        "velocity": 0.71,
        "hand": "right"
      },
      {
        "midi": 80,
        "time": 119.045,
        "duration": 0.273,
        "velocity": 0.71,
        "hand": "right"
      },
      {
        "midi": 43,
        "time": 119.318,
        "duration": 0.273,
        "velocity": 0.71,
        "hand": "left"
      },
      {
        "midi": 79,
        "time": 119.318,
        "duration": 0.273,
        "velocity": 0.71,
        "hand": "right"
      },
      {
        "midi": 44,
        "time": 119.591,
        "duration": 0.273,
        "velocity": 0.71,
        "hand": "left"
      },
      {
        "midi": 77,
        "time": 119.591,
        "duration": 0.273,
        "velocity": 0.71,
        "hand": "right"
      },
      {
        "midi": 45,
        "time": 119.864,
        "duration": 0.273,
        "velocity": 0.71,
        "hand": "left"
      },
      {
        "midi": 75,
        "time": 119.864,
        "duration": 0.273,
        "velocity": 0.71,
        "hand": "right"
      },
      {
        "midi": 46,
        "time": 120.136,
        "duration": 5.727,
        "velocity": 0.71,
        "hand": "left"
      },
      {
        "midi": 65,
        "time": 120.136,
        "duration": 0.545,
        "velocity": 0.71,
        "hand": "right"
      },
      {
        "midi": 74,
        "time": 120.136,
        "duration": 0.273,
        "velocity": 0.71,
        "hand": "right"
      },
      {
        "midi": 72,
        "time": 120.409,
        "duration": 0.273,
        "velocity": 0.71,
        "hand": "right"
      },
      {
        "midi": 62,
        "time": 120.682,
        "duration": 0.545,
        "velocity": 0.71,
        "hand": "right"
      },
      {
        "midi": 70,
        "time": 120.682,
        "duration": 0.273,
        "velocity": 0.71,
        "hand": "right"
      },
      {
        "midi": 68,
        "time": 120.955,
        "duration": 0.273,
        "velocity": 0.71,
        "hand": "right"
      },
      {
        "midi": 63,
        "time": 121.227,
        "duration": 0.545,
        "velocity": 0.71,
        "hand": "right"
      },
      {
        "midi": 67,
        "time": 121.227,
        "duration": 0.273,
        "velocity": 0.71,
        "hand": "right"
      },
      {
        "midi": 65,
        "time": 121.5,
        "duration": 0.273,
        "velocity": 0.71,
        "hand": "right"
      },
      {
        "midi": 55,
        "time": 121.773,
        "duration": 0.545,
        "velocity": 0.71,
        "hand": "left"
      },
      {
        "midi": 63,
        "time": 121.773,
        "duration": 0.273,
        "velocity": 0.71,
        "hand": "right"
      },
      {
        "midi": 62,
        "time": 122.045,
        "duration": 0.273,
        "velocity": 0.71,
        "hand": "right"
      },
      {
        "midi": 56,
        "time": 122.318,
        "duration": 0.273,
        "velocity": 0.71,
        "hand": "left"
      },
      {
        "midi": 60,
        "time": 122.318,
        "duration": 0.273,
        "velocity": 0.71,
        "hand": "right"
      },
      {
        "midi": 60,
        "time": 122.591,
        "duration": 0.273,
        "velocity": 0.71,
        "hand": "right"
      },
      {
        "midi": 58,
        "time": 122.864,
        "duration": 0.273,
        "velocity": 0.71,
        "hand": "left"
      },
      {
        "midi": 62,
        "time": 122.864,
        "duration": 0.545,
        "velocity": 0.71,
        "hand": "right"
      },
      {
        "midi": 56,
        "time": 123.136,
        "duration": 0.273,
        "velocity": 0.71,
        "hand": "left"
      },
      {
        "midi": 55,
        "time": 123.409,
        "duration": 0.273,
        "velocity": 0.71,
        "hand": "left"
      },
      {
        "midi": 63,
        "time": 123.409,
        "duration": 0.545,
        "velocity": 0.71,
        "hand": "right"
      },
      {
        "midi": 58,
        "time": 123.682,
        "duration": 0.273,
        "velocity": 0.71,
        "hand": "left"
      },
      {
        "midi": 60,
        "time": 123.955,
        "duration": 0.273,
        "velocity": 0.71,
        "hand": "right"
      },
      {
        "midi": 62,
        "time": 124.227,
        "duration": 0.273,
        "velocity": 0.71,
        "hand": "right"
      },
      {
        "midi": 65,
        "time": 124.364,
        "duration": 0.136,
        "velocity": 0.71,
        "hand": "right"
      },
      {
        "midi": 63,
        "time": 124.5,
        "duration": 0.273,
        "velocity": 0.71,
        "hand": "right"
      },
      {
        "midi": 67,
        "time": 124.5,
        "duration": 0.273,
        "velocity": 0.71,
        "hand": "right"
      },
      {
        "midi": 67,
        "time": 124.773,
        "duration": 0.273,
        "velocity": 0.71,
        "hand": "right"
      },
      {
        "midi": 65,
        "time": 125.045,
        "duration": 0.273,
        "velocity": 0.71,
        "hand": "right"
      },
      {
        "midi": 69,
        "time": 125.045,
        "duration": 0.545,
        "velocity": 0.71,
        "hand": "right"
      },
      {
        "midi": 63,
        "time": 125.318,
        "duration": 0.273,
        "velocity": 0.71,
        "hand": "right"
      },
      {
        "midi": 62,
        "time": 125.591,
        "duration": 0.545,
        "velocity": 0.71,
        "hand": "right"
      },
      {
        "midi": 70,
        "time": 125.591,
        "duration": 0.545,
        "velocity": 0.71,
        "hand": "right"
      },
      {
        "midi": 50,
        "time": 125.864,
        "duration": 0.273,
        "velocity": 0.71,
        "hand": "left"
      },
      {
        "midi": 53,
        "time": 126.136,
        "duration": 0.273,
        "velocity": 0.71,
        "hand": "left"
      },
      {
        "midi": 55,
        "time": 126.409,
        "duration": 0.273,
        "velocity": 0.71,
        "hand": "left"
      },
      {
        "midi": 63,
        "time": 126.545,
        "duration": 0.136,
        "velocity": 0.71,
        "hand": "right"
      },
      {
        "midi": 70,
        "time": 126.545,
        "duration": 0.136,
        "velocity": 0.71,
        "hand": "right"
      },
      {
        "midi": 56,
        "time": 126.682,
        "duration": 0.273,
        "velocity": 0.71,
        "hand": "left"
      },
      {
        "midi": 63,
        "time": 126.682,
        "duration": 0.273,
        "velocity": 0.71,
        "hand": "right"
      },
      {
        "midi": 72,
        "time": 126.682,
        "duration": 0.545,
        "velocity": 0.71,
        "hand": "right"
      },
      {
        "midi": 60,
        "time": 126.955,
        "duration": 0.273,
        "velocity": 0.71,
        "hand": "right"
      },
      {
        "midi": 68,
        "time": 126.955,
        "duration": 0.273,
        "velocity": 0.71,
        "hand": "right"
      },
      {
        "midi": 58,
        "time": 127.227,
        "duration": 0.273,
        "velocity": 0.71,
        "hand": "left"
      },
      {
        "midi": 67,
        "time": 127.227,
        "duration": 0.273,
        "velocity": 0.71,
        "hand": "right"
      },
      {
        "midi": 74,
        "time": 127.227,
        "duration": 0.545,
        "velocity": 0.71,
        "hand": "right"
      },
      {
        "midi": 56,
        "time": 127.5,
        "duration": 0.273,
        "velocity": 0.71,
        "hand": "left"
      },
      {
        "midi": 65,
        "time": 127.5,
        "duration": 0.273,
        "velocity": 0.71,
        "hand": "right"
      },
      {
        "midi": 55,
        "time": 127.773,
        "duration": 0.545,
        "velocity": 0.71,
        "hand": "left"
      },
      {
        "midi": 70,
        "time": 127.773,
        "duration": 0.545,
        "velocity": 0.71,
        "hand": "right"
      },
      {
        "midi": 75,
        "time": 127.773,
        "duration": 0.545,
        "velocity": 0.71,
        "hand": "right"
      },
      {
        "midi": 43,
        "time": 128.727,
        "duration": 0.136,
        "velocity": 0.71,
        "hand": "left"
      },
      {
        "midi": 58,
        "time": 128.727,
        "duration": 0.136,
        "velocity": 0.71,
        "hand": "left"
      },
      {
        "midi": 63,
        "time": 128.727,
        "duration": 0.136,
        "velocity": 0.71,
        "hand": "right"
      },
      {
        "midi": 44,
        "time": 128.864,
        "duration": 0.545,
        "velocity": 0.71,
        "hand": "left"
      },
      {
        "midi": 60,
        "time": 128.864,
        "duration": 0.545,
        "velocity": 0.71,
        "hand": "right"
      },
      {
        "midi": 65,
        "time": 128.864,
        "duration": 0.545,
        "velocity": 0.71,
        "hand": "right"
      },
      {
        "midi": 41,
        "time": 129.409,
        "duration": 0.545,
        "velocity": 0.71,
        "hand": "left"
      },
      {
        "midi": 65,
        "time": 129.409,
        "duration": 0.818,
        "velocity": 0.71,
        "hand": "right"
      },
      {
        "midi": 68,
        "time": 129.409,
        "duration": 0.545,
        "velocity": 0.71,
        "hand": "right"
      },
      {
        "midi": 46,
        "time": 129.955,
        "duration": 1.091,
        "velocity": 0.71,
        "hand": "left"
      },
      {
        "midi": 67,
        "time": 129.955,
        "duration": 0.545,
        "velocity": 0.71,
        "hand": "right"
      },
      {
        "midi": 63,
        "time": 130.227,
        "duration": 0.545,
        "velocity": 0.71,
        "hand": "right"
      },
      {
        "midi": 65,
        "time": 130.5,
        "duration": 0.545,
        "velocity": 0.71,
        "hand": "right"
      },
      {
        "midi": 62,
        "time": 130.773,
        "duration": 0.273,
        "velocity": 0.71,
        "hand": "right"
      },
      {
        "midi": 39,
        "time": 131.045,
        "duration": 8.455,
        "velocity": 0.71,
        "hand": "left"
      },
      {
        "midi": 63,
        "time": 131.045,
        "duration": 0.545,
        "velocity": 0.71,
        "hand": "right"
      },
      {
        "midi": 55,
        "time": 131.318,
        "duration": 0.273,
        "velocity": 0.71,
        "hand": "left"
      },
      {
        "midi": 58,
        "time": 131.591,
        "duration": 0.273,
        "velocity": 0.71,
        "hand": "left"
      },
      {
        "midi": 61,
        "time": 131.864,
        "duration": 0.273,
        "velocity": 0.71,
        "hand": "right"
      },
      {
        "midi": 63,
        "time": 132,
        "duration": 0.136,
        "velocity": 0.71,
        "hand": "right"
      },
      {
        "midi": 60,
        "time": 132.136,
        "duration": 0.273,
        "velocity": 0.71,
        "hand": "right"
      },
      {
        "midi": 68,
        "time": 132.136,
        "duration": 0.545,
        "velocity": 0.71,
        "hand": "right"
      },
      {
        "midi": 58,
        "time": 132.409,
        "duration": 0.273,
        "velocity": 0.71,
        "hand": "left"
      },
      {
        "midi": 60,
        "time": 132.682,
        "duration": 0.273,
        "velocity": 0.71,
        "hand": "right"
      },
      {
        "midi": 68,
        "time": 132.682,
        "duration": 0.545,
        "velocity": 0.71,
        "hand": "right"
      },
      {
        "midi": 62,
        "time": 132.955,
        "duration": 0.273,
        "velocity": 0.71,
        "hand": "right"
      },
      {
        "midi": 63,
        "time": 133.227,
        "duration": 0.273,
        "velocity": 0.71,
        "hand": "right"
      },
      {
        "midi": 67,
        "time": 133.227,
        "duration": 0.545,
        "velocity": 0.71,
        "hand": "right"
      },
      {
        "midi": 58,
        "time": 133.5,
        "duration": 0.273,
        "velocity": 0.71,
        "hand": "left"
      },
      {
        "midi": 61,
        "time": 133.773,
        "duration": 0.273,
        "velocity": 0.71,
        "hand": "right"
      },
      {
        "midi": 60,
        "time": 134.045,
        "duration": 0.273,
        "velocity": 0.71,
        "hand": "right"
      },
      {
        "midi": 68,
        "time": 134.182,
        "duration": 0.136,
        "velocity": 0.71,
        "hand": "right"
      },
      {
        "midi": 58,
        "time": 134.318,
        "duration": 0.273,
        "velocity": 0.71,
        "hand": "left"
      },
      {
        "midi": 73,
        "time": 134.318,
        "duration": 0.545,
        "velocity": 0.71,
        "hand": "right"
      },
      {
        "midi": 63,
        "time": 134.591,
        "duration": 0.273,
        "velocity": 0.71,
        "hand": "right"
      },
      {
        "midi": 65,
        "time": 134.864,
        "duration": 0.273,
        "velocity": 0.71,
        "hand": "right"
      },
      {
        "midi": 73,
        "time": 134.864,
        "duration": 0.545,
        "velocity": 0.71,
        "hand": "right"
      },
      {
        "midi": 67,
        "time": 135.136,
        "duration": 0.273,
        "velocity": 0.71,
        "hand": "right"
      },
      {
        "midi": 68,
        "time": 135.409,
        "duration": 0.273,
        "velocity": 0.71,
        "hand": "right"
      },
      {
        "midi": 72,
        "time": 135.409,
        "duration": 0.545,
        "velocity": 0.71,
        "hand": "right"
      },
      {
        "midi": 67,
        "time": 135.682,
        "duration": 0.273,
        "velocity": 0.71,
        "hand": "right"
      },
      {
        "midi": 68,
        "time": 135.955,
        "duration": 0.273,
        "velocity": 0.71,
        "hand": "right"
      },
      {
        "midi": 70,
        "time": 136.227,
        "duration": 0.273,
        "velocity": 0.71,
        "hand": "right"
      },
      {
        "midi": 75,
        "time": 136.364,
        "duration": 0.136,
        "velocity": 0.71,
        "hand": "right"
      },
      {
        "midi": 72,
        "time": 136.5,
        "duration": 0.545,
        "velocity": 0.71,
        "hand": "right"
      },
      {
        "midi": 80,
        "time": 136.5,
        "duration": 0.273,
        "velocity": 0.71,
        "hand": "right"
      },
      {
        "midi": 79,
        "time": 136.773,
        "duration": 0.273,
        "velocity": 0.71,
        "hand": "right"
      },
      {
        "midi": 68,
        "time": 137.045,
        "duration": 0.545,
        "velocity": 0.71,
        "hand": "right"
      },
      {
        "midi": 77,
        "time": 137.045,
        "duration": 0.273,
        "velocity": 0.71,
        "hand": "right"
      },
      {
        "midi": 75,
        "time": 137.318,
        "duration": 0.273,
        "velocity": 0.71,
        "hand": "right"
      },
      {
        "midi": 65,
        "time": 137.591,
        "duration": 0.273,
        "velocity": 0.71,
        "hand": "right"
      },
      {
        "midi": 74,
        "time": 137.591,
        "duration": 0.273,
        "velocity": 0.71,
        "hand": "right"
      },
      {
        "midi": 68,
        "time": 137.864,
        "duration": 0.273,
        "velocity": 0.71,
        "hand": "right"
      },
      {
        "midi": 72,
        "time": 137.864,
        "duration": 0.273,
        "velocity": 0.71,
        "hand": "right"
      },
      {
        "midi": 62,
        "time": 138.136,
        "duration": 0.273,
        "velocity": 0.71,
        "hand": "right"
      },
      {
        "midi": 70,
        "time": 138.136,
        "duration": 0.273,
        "velocity": 0.71,
        "hand": "right"
      },
      {
        "midi": 65,
        "time": 138.409,
        "duration": 0.273,
        "velocity": 0.71,
        "hand": "right"
      },
      {
        "midi": 68,
        "time": 138.409,
        "duration": 0.273,
        "velocity": 0.71,
        "hand": "right"
      },
      {
        "midi": 63,
        "time": 138.682,
        "duration": 0.273,
        "velocity": 0.71,
        "hand": "right"
      },
      {
        "midi": 67,
        "time": 138.682,
        "duration": 0.273,
        "velocity": 0.71,
        "hand": "right"
      },
      {
        "midi": 58,
        "time": 138.955,
        "duration": 0.273,
        "velocity": 0.71,
        "hand": "left"
      },
      {
        "midi": 65,
        "time": 138.955,
        "duration": 0.273,
        "velocity": 0.71,
        "hand": "right"
      },
      {
        "midi": 55,
        "time": 139.227,
        "duration": 0.273,
        "velocity": 0.71,
        "hand": "left"
      },
      {
        "midi": 63,
        "time": 139.227,
        "duration": 0.273,
        "velocity": 0.71,
        "hand": "right"
      },
      {
        "midi": 43,
        "time": 139.5,
        "duration": 0.273,
        "velocity": 0.71,
        "hand": "left"
      },
      {
        "midi": 58,
        "time": 139.5,
        "duration": 0.273,
        "velocity": 0.71,
        "hand": "left"
      },
      {
        "midi": 62,
        "time": 139.5,
        "duration": 0.273,
        "velocity": 0.71,
        "hand": "right"
      },
      {
        "midi": 44,
        "time": 139.773,
        "duration": 0.545,
        "velocity": 0.71,
        "hand": "left"
      },
      {
        "midi": 56,
        "time": 139.773,
        "duration": 0.545,
        "velocity": 0.71,
        "hand": "left"
      },
      {
        "midi": 60,
        "time": 139.773,
        "duration": 0.545,
        "velocity": 0.71,
        "hand": "right"
      },
      {
        "midi": 68,
        "time": 140.318,
        "duration": 0.545,
        "velocity": 0.71,
        "hand": "right"
      },
      {
        "midi": 72,
        "time": 140.318,
        "duration": 0.545,
        "velocity": 0.71,
        "hand": "right"
      },
      {
        "midi": 46,
        "time": 140.864,
        "duration": 1.091,
        "velocity": 0.71,
        "hand": "left"
      },
      {
        "midi": 56,
        "time": 141.409,
        "duration": 0.545,
        "velocity": 0.71,
        "hand": "left"
      },
      {
        "midi": 62,
        "time": 141.409,
        "duration": 0.545,
        "velocity": 0.71,
        "hand": "right"
      },
      {
        "midi": 39,
        "time": 141.955,
        "duration": 2.182,
        "velocity": 0.71,
        "hand": "left"
      },
      {
        "midi": 56,
        "time": 141.955,
        "duration": 1.091,
        "velocity": 0.71,
        "hand": "left"
      },
      {
        "midi": 62,
        "time": 141.955,
        "duration": 1.091,
        "velocity": 0.71,
        "hand": "right"
      },
      {
        "midi": 55,
        "time": 143.045,
        "duration": 1.091,
        "velocity": 0.71,
        "hand": "left"
      },
      {
        "midi": 63,
        "time": 143.045,
        "duration": 1.091,
        "velocity": 0.71,
        "hand": "right"
      }
    ]
  },
  "notes1Hand": [
    {
      "midi": 63,
      "time": 4.5,
      "duration": 0.273,
      "velocity": 0.71,
      "hand": "right"
    },
    {
      "midi": 62,
      "time": 4.773,
      "duration": 0.273,
      "velocity": 0.71,
      "hand": "right"
    },
    {
      "midi": 63,
      "time": 11.045,
      "duration": 0.545,
      "velocity": 0.71,
      "hand": "right"
    },
    {
      "midi": 63,
      "time": 11.591,
      "duration": 0.545,
      "velocity": 0.71,
      "hand": "right"
    },
    {
      "midi": 62,
      "time": 12.136,
      "duration": 0.545,
      "velocity": 0.71,
      "hand": "right"
    },
    {
      "midi": 65,
      "time": 13.091,
      "duration": 0.273,
      "velocity": 0.71,
      "hand": "right"
    },
    {
      "midi": 69,
      "time": 13.5,
      "duration": 0.273,
      "velocity": 0.71,
      "hand": "right"
    },
    {
      "midi": 67,
      "time": 13.773,
      "duration": 0.273,
      "velocity": 0.71,
      "hand": "right"
    },
    {
      "midi": 63,
      "time": 14.318,
      "duration": 0.273,
      "velocity": 0.71,
      "hand": "right"
    },
    {
      "midi": 62,
      "time": 14.591,
      "duration": 0.273,
      "velocity": 0.71,
      "hand": "right"
    },
    {
      "midi": 60,
      "time": 14.864,
      "duration": 0.273,
      "velocity": 0.71,
      "hand": "right"
    },
    {
      "midi": 60,
      "time": 18.136,
      "duration": 0.818,
      "velocity": 0.71,
      "hand": "right"
    },
    {
      "midi": 63,
      "time": 19.773,
      "duration": 0.545,
      "velocity": 0.71,
      "hand": "right"
    },
    {
      "midi": 63,
      "time": 20.318,
      "duration": 0.545,
      "velocity": 0.71,
      "hand": "right"
    },
    {
      "midi": 62,
      "time": 20.864,
      "duration": 0.545,
      "velocity": 0.71,
      "hand": "right"
    },
    {
      "midi": 63,
      "time": 21.818,
      "duration": 0.273,
      "velocity": 0.71,
      "hand": "right"
    },
    {
      "midi": 63,
      "time": 22.227,
      "duration": 0.273,
      "velocity": 0.71,
      "hand": "right"
    },
    {
      "midi": 68,
      "time": 22.5,
      "duration": 0.545,
      "velocity": 0.71,
      "hand": "right"
    },
    {
      "midi": 62,
      "time": 22.773,
      "duration": 0.273,
      "velocity": 0.71,
      "hand": "right"
    },
    {
      "midi": 63,
      "time": 23.591,
      "duration": 0.273,
      "velocity": 0.71,
      "hand": "right"
    },
    {
      "midi": 62,
      "time": 23.864,
      "duration": 0.273,
      "velocity": 0.71,
      "hand": "right"
    },
    {
      "midi": 74,
      "time": 24.409,
      "duration": 0.273,
      "velocity": 0.71,
      "hand": "right"
    },
    {
      "midi": 72,
      "time": 24.682,
      "duration": 0.273,
      "velocity": 0.71,
      "hand": "right"
    },
    {
      "midi": 70,
      "time": 24.955,
      "duration": 0.273,
      "velocity": 0.71,
      "hand": "right"
    },
    {
      "midi": 67,
      "time": 25.5,
      "duration": 0.273,
      "velocity": 0.71,
      "hand": "right"
    },
    {
      "midi": 65,
      "time": 25.773,
      "duration": 0.273,
      "velocity": 0.71,
      "hand": "right"
    },
    {
      "midi": 62,
      "time": 26.318,
      "duration": 0.273,
      "velocity": 0.71,
      "hand": "right"
    },
    {
      "midi": 60,
      "time": 26.591,
      "duration": 0.273,
      "velocity": 0.71,
      "hand": "right"
    },
    {
      "midi": 63,
      "time": 27.955,
      "duration": 0.273,
      "velocity": 0.71,
      "hand": "right"
    },
    {
      "midi": 68,
      "time": 28.5,
      "duration": 0.273,
      "velocity": 0.71,
      "hand": "right"
    },
    {
      "midi": 72,
      "time": 28.773,
      "duration": 0.273,
      "velocity": 0.71,
      "hand": "right"
    },
    {
      "midi": 68,
      "time": 29.318,
      "duration": 0.273,
      "velocity": 0.71,
      "hand": "right"
    },
    {
      "midi": 67,
      "time": 29.591,
      "duration": 0.273,
      "velocity": 0.71,
      "hand": "right"
    },
    {
      "midi": 69,
      "time": 29.864,
      "duration": 0.273,
      "velocity": 0.71,
      "hand": "right"
    },
    {
      "midi": 74,
      "time": 30.409,
      "duration": 0.273,
      "velocity": 0.71,
      "hand": "right"
    },
    {
      "midi": 75,
      "time": 30.682,
      "duration": 0.273,
      "velocity": 0.71,
      "hand": "right"
    },
    {
      "midi": 79,
      "time": 30.955,
      "duration": 0.273,
      "velocity": 0.71,
      "hand": "right"
    },
    {
      "midi": 75,
      "time": 31.5,
      "duration": 0.273,
      "velocity": 0.71,
      "hand": "right"
    },
    {
      "midi": 74,
      "time": 31.773,
      "duration": 0.545,
      "velocity": 0.71,
      "hand": "right"
    },
    {
      "midi": 65,
      "time": 32.318,
      "duration": 0.273,
      "velocity": 0.71,
      "hand": "right"
    },
    {
      "midi": 67,
      "time": 32.591,
      "duration": 0.273,
      "velocity": 0.71,
      "hand": "right"
    },
    {
      "midi": 84,
      "time": 32.864,
      "duration": 0.545,
      "velocity": 0.71,
      "hand": "right"
    },
    {
      "midi": 74,
      "time": 33.409,
      "duration": 0.545,
      "velocity": 0.71,
      "hand": "right"
    },
    {
      "midi": 68,
      "time": 33.682,
      "duration": 0.273,
      "velocity": 0.71,
      "hand": "right"
    },
    {
      "midi": 75,
      "time": 33.955,
      "duration": 0.273,
      "velocity": 0.71,
      "hand": "right"
    },
    {
      "midi": 72,
      "time": 34.5,
      "duration": 0.273,
      "velocity": 0.71,
      "hand": "right"
    },
    {
      "midi": 69,
      "time": 34.773,
      "duration": 0.273,
      "velocity": 0.71,
      "hand": "right"
    },
    {
      "midi": 77,
      "time": 35.318,
      "duration": 0.273,
      "velocity": 0.71,
      "hand": "right"
    },
    {
      "midi": 80,
      "time": 35.591,
      "duration": 0.273,
      "velocity": 0.71,
      "hand": "right"
    },
    {
      "midi": 79,
      "time": 35.864,
      "duration": 0.273,
      "velocity": 0.71,
      "hand": "right"
    },
    {
      "midi": 75,
      "time": 36.409,
      "duration": 0.273,
      "velocity": 0.71,
      "hand": "right"
    },
    {
      "midi": 74,
      "time": 36.682,
      "duration": 0.273,
      "velocity": 0.71,
      "hand": "right"
    },
    {
      "midi": 77,
      "time": 36.955,
      "duration": 0.273,
      "velocity": 0.71,
      "hand": "right"
    },
    {
      "midi": 82,
      "time": 37.5,
      "duration": 0.273,
      "velocity": 0.71,
      "hand": "right"
    },
    {
      "midi": 87,
      "time": 37.773,
      "duration": 0.273,
      "velocity": 0.71,
      "hand": "right"
    },
    {
      "midi": 84,
      "time": 38.318,
      "duration": 0.273,
      "velocity": 0.71,
      "hand": "right"
    },
    {
      "midi": 82,
      "time": 38.591,
      "duration": 0.273,
      "velocity": 0.71,
      "hand": "right"
    },
    {
      "midi": 80,
      "time": 38.864,
      "duration": 0.273,
      "velocity": 0.71,
      "hand": "right"
    },
    {
      "midi": 77,
      "time": 39.409,
      "duration": 0.273,
      "velocity": 0.71,
      "hand": "right"
    },
    {
      "midi": 75,
      "time": 39.682,
      "duration": 0.273,
      "velocity": 0.71,
      "hand": "right"
    },
    {
      "midi": 74,
      "time": 39.955,
      "duration": 0.273,
      "velocity": 0.71,
      "hand": "right"
    },
    {
      "midi": 70,
      "time": 40.5,
      "duration": 0.273,
      "velocity": 0.71,
      "hand": "right"
    },
    {
      "midi": 68,
      "time": 40.773,
      "duration": 0.273,
      "velocity": 0.71,
      "hand": "right"
    },
    {
      "midi": 65,
      "time": 41.318,
      "duration": 0.273,
      "velocity": 0.71,
      "hand": "right"
    },
    {
      "midi": 63,
      "time": 41.591,
      "duration": 0.545,
      "velocity": 0.71,
      "hand": "right"
    },
    {
      "midi": 70,
      "time": 42.545,
      "duration": 0.273,
      "velocity": 0.71,
      "hand": "right"
    },
    {
      "midi": 60,
      "time": 42.955,
      "duration": 0.273,
      "velocity": 0.71,
      "hand": "right"
    },
    {
      "midi": 67,
      "time": 43.773,
      "duration": 0.545,
      "velocity": 0.71,
      "hand": "right"
    },
    {
      "midi": 72,
      "time": 44.727,
      "duration": 0.273,
      "velocity": 0.71,
      "hand": "right"
    },
    {
      "midi": 61,
      "time": 45.136,
      "duration": 0.273,
      "velocity": 0.71,
      "hand": "right"
    },
    {
      "midi": 67,
      "time": 45.409,
      "duration": 0.545,
      "velocity": 0.71,
      "hand": "right"
    },
    {
      "midi": 68,
      "time": 45.955,
      "duration": 0.545,
      "velocity": 0.71,
      "hand": "right"
    },
    {
      "midi": 74,
      "time": 46.909,
      "duration": 0.273,
      "velocity": 0.71,
      "hand": "right"
    },
    {
      "midi": 63,
      "time": 47.318,
      "duration": 0.273,
      "velocity": 0.71,
      "hand": "right"
    },
    {
      "midi": 69,
      "time": 47.591,
      "duration": 0.545,
      "velocity": 0.71,
      "hand": "right"
    },
    {
      "midi": 60,
      "time": 47.864,
      "duration": 0.273,
      "velocity": 0.71,
      "hand": "right"
    },
    {
      "midi": 67,
      "time": 48.409,
      "duration": 0.273,
      "velocity": 0.71,
      "hand": "right"
    },
    {
      "midi": 71,
      "time": 48.682,
      "duration": 0.273,
      "velocity": 0.71,
      "hand": "right"
    },
    {
      "midi": 74,
      "time": 48.955,
      "duration": 0.273,
      "velocity": 0.71,
      "hand": "right"
    },
    {
      "midi": 80,
      "time": 49.5,
      "duration": 0.273,
      "velocity": 0.71,
      "hand": "right"
    },
    {
      "midi": 79,
      "time": 49.773,
      "duration": 0.273,
      "velocity": 0.71,
      "hand": "right"
    },
    {
      "midi": 77,
      "time": 50.318,
      "duration": 0.545,
      "velocity": 0.71,
      "hand": "right"
    },
    {
      "midi": 75,
      "time": 50.864,
      "duration": 0.545,
      "velocity": 0.71,
      "hand": "right"
    },
    {
      "midi": 74,
      "time": 51.409,
      "duration": 0.273,
      "velocity": 0.71,
      "hand": "right"
    },
    {
      "midi": 65,
      "time": 51.682,
      "duration": 0.273,
      "velocity": 0.71,
      "hand": "right"
    },
    {
      "midi": 68,
      "time": 51.955,
      "duration": 1.091,
      "velocity": 0.71,
      "hand": "right"
    },
    {
      "midi": 60,
      "time": 52.364,
      "duration": 0.273,
      "velocity": 0.71,
      "hand": "right"
    },
    {
      "midi": 67,
      "time": 53.045,
      "duration": 0.818,
      "velocity": 0.71,
      "hand": "right"
    },
    {
      "midi": 63,
      "time": 53.591,
      "duration": 0.545,
      "velocity": 0.71,
      "hand": "right"
    },
    {
      "midi": 79,
      "time": 53.864,
      "duration": 0.273,
      "velocity": 0.71,
      "hand": "right"
    },
    {
      "midi": 82,
      "time": 54.409,
      "duration": 0.273,
      "velocity": 0.71,
      "hand": "right"
    },
    {
      "midi": 80,
      "time": 54.682,
      "duration": 0.273,
      "velocity": 0.71,
      "hand": "right"
    },
    {
      "midi": 79,
      "time": 54.955,
      "duration": 0.273,
      "velocity": 0.71,
      "hand": "right"
    },
    {
      "midi": 75,
      "time": 55.5,
      "duration": 0.273,
      "velocity": 0.71,
      "hand": "right"
    },
    {
      "midi": 74,
      "time": 55.773,
      "duration": 0.273,
      "velocity": 0.71,
      "hand": "right"
    },
    {
      "midi": 71,
      "time": 56.318,
      "duration": 0.273,
      "velocity": 0.71,
      "hand": "right"
    },
    {
      "midi": 68,
      "time": 56.591,
      "duration": 0.273,
      "velocity": 0.71,
      "hand": "right"
    },
    {
      "midi": 67,
      "time": 56.864,
      "duration": 0.273,
      "velocity": 0.71,
      "hand": "right"
    },
    {
      "midi": 63,
      "time": 57.409,
      "duration": 0.273,
      "velocity": 0.71,
      "hand": "right"
    },
    {
      "midi": 62,
      "time": 57.682,
      "duration": 0.273,
      "velocity": 0.71,
      "hand": "right"
    },
    {
      "midi": 60,
      "time": 57.955,
      "duration": 1.091,
      "velocity": 0.71,
      "hand": "right"
    },
    {
      "midi": 60,
      "time": 60,
      "duration": 0.273,
      "velocity": 0.71,
      "hand": "right"
    },
    {
      "midi": 62,
      "time": 60.409,
      "duration": 0.273,
      "velocity": 0.71,
      "hand": "right"
    },
    {
      "midi": 67,
      "time": 60.682,
      "duration": 0.545,
      "velocity": 0.71,
      "hand": "right"
    },
    {
      "midi": 60,
      "time": 60.955,
      "duration": 0.273,
      "velocity": 0.71,
      "hand": "right"
    },
    {
      "midi": 60,
      "time": 61.773,
      "duration": 0.273,
      "velocity": 0.71,
      "hand": "right"
    },
    {
      "midi": 67,
      "time": 62.182,
      "duration": 0.273,
      "velocity": 0.71,
      "hand": "right"
    },
    {
      "midi": 67,
      "time": 62.591,
      "duration": 0.273,
      "velocity": 0.71,
      "hand": "right"
    },
    {
      "midi": 72,
      "time": 62.864,
      "duration": 0.545,
      "velocity": 0.71,
      "hand": "right"
    },
    {
      "midi": 70,
      "time": 63.409,
      "duration": 0.545,
      "velocity": 0.71,
      "hand": "right"
    },
    {
      "midi": 62,
      "time": 63.682,
      "duration": 0.273,
      "velocity": 0.71,
      "hand": "right"
    },
    {
      "midi": 67,
      "time": 63.955,
      "duration": 0.273,
      "velocity": 0.71,
      "hand": "right"
    },
    {
      "midi": 74,
      "time": 64.364,
      "duration": 0.273,
      "velocity": 0.71,
      "hand": "right"
    },
    {
      "midi": 77,
      "time": 64.773,
      "duration": 0.273,
      "velocity": 0.71,
      "hand": "right"
    },
    {
      "midi": 74,
      "time": 65.318,
      "duration": 0.273,
      "velocity": 0.71,
      "hand": "right"
    },
    {
      "midi": 72,
      "time": 65.591,
      "duration": 0.273,
      "velocity": 0.71,
      "hand": "right"
    },
    {
      "midi": 70,
      "time": 65.864,
      "duration": 0.273,
      "velocity": 0.71,
      "hand": "right"
    },
    {
      "midi": 67,
      "time": 66.409,
      "duration": 0.273,
      "velocity": 0.71,
      "hand": "right"
    },
    {
      "midi": 66,
      "time": 66.682,
      "duration": 0.273,
      "velocity": 0.71,
      "hand": "right"
    },
    {
      "midi": 63,
      "time": 66.955,
      "duration": 0.273,
      "velocity": 0.71,
      "hand": "right"
    },
    {
      "midi": 60,
      "time": 67.5,
      "duration": 0.273,
      "velocity": 0.71,
      "hand": "right"
    },
    {
      "midi": 62,
      "time": 68.045,
      "duration": 0.273,
      "velocity": 0.71,
      "hand": "right"
    },
    {
      "midi": 67,
      "time": 68.318,
      "duration": 0.273,
      "velocity": 0.71,
      "hand": "right"
    },
    {
      "midi": 70,
      "time": 68.591,
      "duration": 0.273,
      "velocity": 0.71,
      "hand": "right"
    },
    {
      "midi": 68,
      "time": 68.864,
      "duration": 0.273,
      "velocity": 0.71,
      "hand": "right"
    },
    {
      "midi": 70,
      "time": 69.409,
      "duration": 0.273,
      "velocity": 0.71,
      "hand": "right"
    },
    {
      "midi": 68,
      "time": 69.682,
      "duration": 0.273,
      "velocity": 0.71,
      "hand": "right"
    },
    {
      "midi": 67,
      "time": 69.955,
      "duration": 0.273,
      "velocity": 0.71,
      "hand": "right"
    },
    {
      "midi": 67,
      "time": 70.5,
      "duration": 0.273,
      "velocity": 0.71,
      "hand": "right"
    },
    {
      "midi": 69,
      "time": 70.773,
      "duration": 0.273,
      "velocity": 0.71,
      "hand": "right"
    },
    {
      "midi": 65,
      "time": 71.318,
      "duration": 0.273,
      "velocity": 0.71,
      "hand": "right"
    },
    {
      "midi": 68,
      "time": 71.591,
      "duration": 0.273,
      "velocity": 0.71,
      "hand": "right"
    },
    {
      "midi": 67,
      "time": 71.864,
      "duration": 0.273,
      "velocity": 0.71,
      "hand": "right"
    },
    {
      "midi": 63,
      "time": 72.409,
      "duration": 0.273,
      "velocity": 0.71,
      "hand": "right"
    },
    {
      "midi": 70,
      "time": 72.682,
      "duration": 0.818,
      "velocity": 0.71,
      "hand": "right"
    },
    {
      "midi": 65,
      "time": 72.955,
      "duration": 0.273,
      "velocity": 0.71,
      "hand": "right"
    },
    {
      "midi": 70,
      "time": 73.5,
      "duration": 0.273,
      "velocity": 0.71,
      "hand": "right"
    },
    {
      "midi": 79,
      "time": 73.773,
      "duration": 0.273,
      "velocity": 0.71,
      "hand": "right"
    },
    {
      "midi": 75,
      "time": 74.318,
      "duration": 1.091,
      "velocity": 0.71,
      "hand": "right"
    },
    {
      "midi": 70,
      "time": 74.591,
      "duration": 0.273,
      "velocity": 0.71,
      "hand": "right"
    },
    {
      "midi": 68,
      "time": 74.864,
      "duration": 0.273,
      "velocity": 0.71,
      "hand": "right"
    },
    {
      "midi": 77,
      "time": 75.409,
      "duration": 0.273,
      "velocity": 0.71,
      "hand": "right"
    },
    {
      "midi": 75,
      "time": 75.682,
      "duration": 0.273,
      "velocity": 0.71,
      "hand": "right"
    },
    {
      "midi": 74,
      "time": 75.955,
      "duration": 0.273,
      "velocity": 0.71,
      "hand": "right"
    },
    {
      "midi": 70,
      "time": 76.5,
      "duration": 0.545,
      "velocity": 0.71,
      "hand": "right"
    },
    {
      "midi": 74,
      "time": 77.045,
      "duration": 0.545,
      "velocity": 0.71,
      "hand": "right"
    },
    {
      "midi": 65,
      "time": 77.318,
      "duration": 0.273,
      "velocity": 0.71,
      "hand": "right"
    },
    {
      "midi": 75,
      "time": 77.591,
      "duration": 0.273,
      "velocity": 0.71,
      "hand": "right"
    },
    {
      "midi": 73,
      "time": 77.864,
      "duration": 0.273,
      "velocity": 0.71,
      "hand": "right"
    },
    {
      "midi": 70,
      "time": 78.409,
      "duration": 0.273,
      "velocity": 0.71,
      "hand": "right"
    },
    {
      "midi": 68,
      "time": 78.682,
      "duration": 0.545,
      "velocity": 0.71,
      "hand": "right"
    },
    {
      "midi": 70,
      "time": 79.227,
      "duration": 0.818,
      "velocity": 0.71,
      "hand": "right"
    },
    {
      "midi": 61,
      "time": 80.045,
      "duration": 0.273,
      "velocity": 0.71,
      "hand": "right"
    },
    {
      "midi": 65,
      "time": 80.318,
      "duration": 0.273,
      "velocity": 0.71,
      "hand": "right"
    },
    {
      "midi": 63,
      "time": 80.591,
      "duration": 0.273,
      "velocity": 0.71,
      "hand": "right"
    },
    {
      "midi": 61,
      "time": 80.864,
      "duration": 0.545,
      "velocity": 0.71,
      "hand": "right"
    },
    {
      "midi": 70,
      "time": 81.409,
      "duration": 0.273,
      "velocity": 0.71,
      "hand": "right"
    },
    {
      "midi": 67,
      "time": 81.682,
      "duration": 0.273,
      "velocity": 0.71,
      "hand": "right"
    },
    {
      "midi": 63,
      "time": 81.955,
      "duration": 0.545,
      "velocity": 0.71,
      "hand": "right"
    },
    {
      "midi": 72,
      "time": 82.5,
      "duration": 1.091,
      "velocity": 0.71,
      "hand": "right"
    },
    {
      "midi": 63,
      "time": 82.909,
      "duration": 0.273,
      "velocity": 0.71,
      "hand": "right"
    },
    {
      "midi": 67,
      "time": 83.318,
      "duration": 0.273,
      "velocity": 0.71,
      "hand": "right"
    },
    {
      "midi": 70,
      "time": 83.591,
      "duration": 0.273,
      "velocity": 0.71,
      "hand": "right"
    },
    {
      "midi": 72,
      "time": 83.864,
      "duration": 0.273,
      "velocity": 0.71,
      "hand": "right"
    },
    {
      "midi": 75,
      "time": 84.409,
      "duration": 0.273,
      "velocity": 0.71,
      "hand": "right"
    },
    {
      "midi": 77,
      "time": 84.682,
      "duration": 0.818,
      "velocity": 0.71,
      "hand": "right"
    },
    {
      "midi": 70,
      "time": 85.5,
      "duration": 0.273,
      "velocity": 0.71,
      "hand": "right"
    },
    {
      "midi": 75,
      "time": 85.773,
      "duration": 0.818,
      "velocity": 0.71,
      "hand": "right"
    },
    {
      "midi": 72,
      "time": 86.591,
      "duration": 0.273,
      "velocity": 0.71,
      "hand": "right"
    },
    {
      "midi": 60,
      "time": 87.136,
      "duration": 0.273,
      "velocity": 0.71,
      "hand": "right"
    },
    {
      "midi": 77,
      "time": 87.409,
      "duration": 0.545,
      "velocity": 0.71,
      "hand": "right"
    },
    {
      "midi": 65,
      "time": 87.682,
      "duration": 0.273,
      "velocity": 0.71,
      "hand": "right"
    },
    {
      "midi": 70,
      "time": 87.955,
      "duration": 0.545,
      "velocity": 0.71,
      "hand": "right"
    },
    {
      "midi": 72,
      "time": 88.5,
      "duration": 0.545,
      "velocity": 0.71,
      "hand": "right"
    },
    {
      "midi": 62,
      "time": 88.773,
      "duration": 0.273,
      "velocity": 0.71,
      "hand": "right"
    },
    {
      "midi": 67,
      "time": 89.318,
      "duration": 0.273,
      "velocity": 0.71,
      "hand": "right"
    },
    {
      "midi": 72,
      "time": 89.591,
      "duration": 0.273,
      "velocity": 0.71,
      "hand": "right"
    },
    {
      "midi": 68,
      "time": 90.409,
      "duration": 0.273,
      "velocity": 0.71,
      "hand": "right"
    },
    {
      "midi": 75,
      "time": 90.682,
      "duration": 0.273,
      "velocity": 0.71,
      "hand": "right"
    },
    {
      "midi": 70,
      "time": 90.955,
      "duration": 0.273,
      "velocity": 0.71,
      "hand": "right"
    },
    {
      "midi": 74,
      "time": 91.5,
      "duration": 0.273,
      "velocity": 0.71,
      "hand": "right"
    },
    {
      "midi": 75,
      "time": 91.773,
      "duration": 0.273,
      "velocity": 0.71,
      "hand": "right"
    },
    {
      "midi": 77,
      "time": 92.318,
      "duration": 0.273,
      "velocity": 0.71,
      "hand": "right"
    },
    {
      "midi": 75,
      "time": 92.591,
      "duration": 0.273,
      "velocity": 0.71,
      "hand": "right"
    },
    {
      "midi": 74,
      "time": 92.864,
      "duration": 0.273,
      "velocity": 0.71,
      "hand": "right"
    },
    {
      "midi": 70,
      "time": 93.409,
      "duration": 0.273,
      "velocity": 0.71,
      "hand": "right"
    },
    {
      "midi": 68,
      "time": 93.682,
      "duration": 0.273,
      "velocity": 0.71,
      "hand": "right"
    },
    {
      "midi": 67,
      "time": 93.955,
      "duration": 0.545,
      "velocity": 0.71,
      "hand": "right"
    },
    {
      "midi": 60,
      "time": 94.773,
      "duration": 0.273,
      "velocity": 0.71,
      "hand": "right"
    },
    {
      "midi": 65,
      "time": 95.318,
      "duration": 0.273,
      "velocity": 0.71,
      "hand": "right"
    },
    {
      "midi": 70,
      "time": 95.591,
      "duration": 0.545,
      "velocity": 0.71,
      "hand": "right"
    },
    {
      "midi": 67,
      "time": 95.864,
      "duration": 0.273,
      "velocity": 0.71,
      "hand": "right"
    },
    {
      "midi": 63,
      "time": 96.409,
      "duration": 0.273,
      "velocity": 0.71,
      "hand": "right"
    },
    {
      "midi": 62,
      "time": 96.682,
      "duration": 0.273,
      "velocity": 0.71,
      "hand": "right"
    },
    {
      "midi": 65,
      "time": 96.955,
      "duration": 0.273,
      "velocity": 0.71,
      "hand": "right"
    },
    {
      "midi": 63,
      "time": 97.5,
      "duration": 0.273,
      "velocity": 0.71,
      "hand": "right"
    },
    {
      "midi": 75,
      "time": 97.773,
      "duration": 0.409,
      "velocity": 0.71,
      "hand": "right"
    },
    {
      "midi": 74,
      "time": 98.182,
      "duration": 0.273,
      "velocity": 0.71,
      "hand": "right"
    },
    {
      "midi": 65,
      "time": 98.591,
      "duration": 0.273,
      "velocity": 0.71,
      "hand": "right"
    },
    {
      "midi": 63,
      "time": 98.864,
      "duration": 0.273,
      "velocity": 0.71,
      "hand": "right"
    },
    {
      "midi": 72,
      "time": 99.273,
      "duration": 0.273,
      "velocity": 0.71,
      "hand": "right"
    },
    {
      "midi": 75,
      "time": 99.682,
      "duration": 0.273,
      "velocity": 0.71,
      "hand": "right"
    },
    {
      "midi": 74,
      "time": 99.955,
      "duration": 0.273,
      "velocity": 0.71,
      "hand": "right"
    },
    {
      "midi": 70,
      "time": 100.5,
      "duration": 0.273,
      "velocity": 0.71,
      "hand": "right"
    },
    {
      "midi": 68,
      "time": 100.773,
      "duration": 0.273,
      "velocity": 0.71,
      "hand": "right"
    },
    {
      "midi": 65,
      "time": 101.318,
      "duration": 0.273,
      "velocity": 0.71,
      "hand": "right"
    },
    {
      "midi": 63,
      "time": 101.591,
      "duration": 0.273,
      "velocity": 0.71,
      "hand": "right"
    },
    {
      "midi": 62,
      "time": 101.864,
      "duration": 0.273,
      "velocity": 0.71,
      "hand": "right"
    },
    {
      "midi": 60,
      "time": 102.682,
      "duration": 0.273,
      "velocity": 0.71,
      "hand": "right"
    },
    {
      "midi": 63,
      "time": 102.955,
      "duration": 0.273,
      "velocity": 0.71,
      "hand": "right"
    },
    {
      "midi": 70,
      "time": 103.5,
      "duration": 0.273,
      "velocity": 0.71,
      "hand": "right"
    },
    {
      "midi": 72,
      "time": 103.773,
      "duration": 1.091,
      "velocity": 0.71,
      "hand": "right"
    },
    {
      "midi": 65,
      "time": 104.318,
      "duration": 0.273,
      "velocity": 0.71,
      "hand": "right"
    },
    {
      "midi": 63,
      "time": 104.591,
      "duration": 0.273,
      "velocity": 0.71,
      "hand": "right"
    },
    {
      "midi": 70,
      "time": 104.864,
      "duration": 0.545,
      "velocity": 0.71,
      "hand": "right"
    },
    {
      "midi": 65,
      "time": 105.409,
      "duration": 0.273,
      "velocity": 0.71,
      "hand": "right"
    },
    {
      "midi": 67,
      "time": 105.682,
      "duration": 0.273,
      "velocity": 0.71,
      "hand": "right"
    },
    {
      "midi": 72,
      "time": 105.955,
      "duration": 0.273,
      "velocity": 0.71,
      "hand": "right"
    },
    {
      "midi": 74,
      "time": 106.5,
      "duration": 0.545,
      "velocity": 0.71,
      "hand": "right"
    },
    {
      "midi": 68,
      "time": 106.773,
      "duration": 0.273,
      "velocity": 0.71,
      "hand": "right"
    },
    {
      "midi": 70,
      "time": 107.318,
      "duration": 0.273,
      "velocity": 0.71,
      "hand": "right"
    },
    {
      "midi": 72,
      "time": 107.591,
      "duration": 0.273,
      "velocity": 0.71,
      "hand": "right"
    },
    {
      "midi": 74,
      "time": 107.864,
      "duration": 0.273,
      "velocity": 0.71,
      "hand": "right"
    },
    {
      "midi": 79,
      "time": 108.409,
      "duration": 0.273,
      "velocity": 0.71,
      "hand": "right"
    },
    {
      "midi": 77,
      "time": 108.682,
      "duration": 0.273,
      "velocity": 0.71,
      "hand": "right"
    },
    {
      "midi": 75,
      "time": 108.955,
      "duration": 0.273,
      "velocity": 0.71,
      "hand": "right"
    },
    {
      "midi": 75,
      "time": 109.5,
      "duration": 0.273,
      "velocity": 0.71,
      "hand": "right"
    },
    {
      "midi": 77,
      "time": 109.773,
      "duration": 0.273,
      "velocity": 0.71,
      "hand": "right"
    },
    {
      "midi": 62,
      "time": 110.182,
      "duration": 0.273,
      "velocity": 0.71,
      "hand": "right"
    },
    {
      "midi": 84,
      "time": 110.591,
      "duration": 0.273,
      "velocity": 0.71,
      "hand": "right"
    },
    {
      "midi": 82,
      "time": 110.864,
      "duration": 0.273,
      "velocity": 0.71,
      "hand": "right"
    },
    {
      "midi": 79,
      "time": 111.409,
      "duration": 0.545,
      "velocity": 0.71,
      "hand": "right"
    },
    {
      "midi": 63,
      "time": 112.364,
      "duration": 0.273,
      "velocity": 0.71,
      "hand": "right"
    },
    {
      "midi": 63,
      "time": 112.773,
      "duration": 0.273,
      "velocity": 0.71,
      "hand": "right"
    },
    {
      "midi": 60,
      "time": 113.318,
      "duration": 0.273,
      "velocity": 0.71,
      "hand": "right"
    },
    {
      "midi": 63,
      "time": 113.591,
      "duration": 0.545,
      "velocity": 0.71,
      "hand": "right"
    },
    {
      "midi": 63,
      "time": 114.545,
      "duration": 0.273,
      "velocity": 0.71,
      "hand": "right"
    },
    {
      "midi": 62,
      "time": 114.955,
      "duration": 0.273,
      "velocity": 0.71,
      "hand": "right"
    },
    {
      "midi": 65,
      "time": 115.5,
      "duration": 0.273,
      "velocity": 0.71,
      "hand": "right"
    },
    {
      "midi": 67,
      "time": 115.773,
      "duration": 0.545,
      "velocity": 0.71,
      "hand": "right"
    },
    {
      "midi": 65,
      "time": 116.318,
      "duration": 0.273,
      "velocity": 0.71,
      "hand": "right"
    },
    {
      "midi": 63,
      "time": 116.591,
      "duration": 0.273,
      "velocity": 0.71,
      "hand": "right"
    },
    {
      "midi": 73,
      "time": 116.864,
      "duration": 0.545,
      "velocity": 0.71,
      "hand": "right"
    },
    {
      "midi": 73,
      "time": 117.409,
      "duration": 0.545,
      "velocity": 0.71,
      "hand": "right"
    },
    {
      "midi": 67,
      "time": 117.682,
      "duration": 0.273,
      "velocity": 0.71,
      "hand": "right"
    },
    {
      "midi": 72,
      "time": 117.955,
      "duration": 0.545,
      "velocity": 0.71,
      "hand": "right"
    },
    {
      "midi": 68,
      "time": 118.5,
      "duration": 0.545,
      "velocity": 0.71,
      "hand": "right"
    },
    {
      "midi": 75,
      "time": 118.909,
      "duration": 0.273,
      "velocity": 0.71,
      "hand": "right"
    },
    {
      "midi": 79,
      "time": 119.318,
      "duration": 0.273,
      "velocity": 0.71,
      "hand": "right"
    },
    {
      "midi": 77,
      "time": 119.591,
      "duration": 0.273,
      "velocity": 0.71,
      "hand": "right"
    },
    {
      "midi": 75,
      "time": 119.864,
      "duration": 0.273,
      "velocity": 0.71,
      "hand": "right"
    },
    {
      "midi": 72,
      "time": 120.409,
      "duration": 0.273,
      "velocity": 0.71,
      "hand": "right"
    },
    {
      "midi": 70,
      "time": 120.682,
      "duration": 0.273,
      "velocity": 0.71,
      "hand": "right"
    },
    {
      "midi": 68,
      "time": 120.955,
      "duration": 0.273,
      "velocity": 0.71,
      "hand": "right"
    },
    {
      "midi": 65,
      "time": 121.5,
      "duration": 0.273,
      "velocity": 0.71,
      "hand": "right"
    },
    {
      "midi": 63,
      "time": 121.773,
      "duration": 0.273,
      "velocity": 0.71,
      "hand": "right"
    },
    {
      "midi": 60,
      "time": 122.318,
      "duration": 0.273,
      "velocity": 0.71,
      "hand": "right"
    },
    {
      "midi": 62,
      "time": 122.864,
      "duration": 0.545,
      "velocity": 0.71,
      "hand": "right"
    },
    {
      "midi": 63,
      "time": 123.409,
      "duration": 0.545,
      "velocity": 0.71,
      "hand": "right"
    },
    {
      "midi": 60,
      "time": 123.955,
      "duration": 0.273,
      "velocity": 0.71,
      "hand": "right"
    },
    {
      "midi": 65,
      "time": 124.364,
      "duration": 0.273,
      "velocity": 0.71,
      "hand": "right"
    },
    {
      "midi": 67,
      "time": 124.773,
      "duration": 0.273,
      "velocity": 0.71,
      "hand": "right"
    },
    {
      "midi": 63,
      "time": 125.318,
      "duration": 0.273,
      "velocity": 0.71,
      "hand": "right"
    },
    {
      "midi": 70,
      "time": 125.591,
      "duration": 0.545,
      "velocity": 0.71,
      "hand": "right"
    },
    {
      "midi": 70,
      "time": 126.545,
      "duration": 0.273,
      "velocity": 0.71,
      "hand": "right"
    },
    {
      "midi": 68,
      "time": 126.955,
      "duration": 0.273,
      "velocity": 0.71,
      "hand": "right"
    },
    {
      "midi": 65,
      "time": 127.5,
      "duration": 0.273,
      "velocity": 0.71,
      "hand": "right"
    },
    {
      "midi": 75,
      "time": 127.773,
      "duration": 0.545,
      "velocity": 0.71,
      "hand": "right"
    },
    {
      "midi": 63,
      "time": 128.727,
      "duration": 0.273,
      "velocity": 0.71,
      "hand": "right"
    },
    {
      "midi": 68,
      "time": 129.409,
      "duration": 0.545,
      "velocity": 0.71,
      "hand": "right"
    },
    {
      "midi": 67,
      "time": 129.955,
      "duration": 0.545,
      "velocity": 0.71,
      "hand": "right"
    },
    {
      "midi": 65,
      "time": 130.5,
      "duration": 0.545,
      "velocity": 0.71,
      "hand": "right"
    },
    {
      "midi": 62,
      "time": 130.773,
      "duration": 0.273,
      "velocity": 0.71,
      "hand": "right"
    },
    {
      "midi": 61,
      "time": 131.864,
      "duration": 0.273,
      "velocity": 0.71,
      "hand": "right"
    },
    {
      "midi": 68,
      "time": 132.682,
      "duration": 0.545,
      "velocity": 0.71,
      "hand": "right"
    },
    {
      "midi": 62,
      "time": 132.955,
      "duration": 0.273,
      "velocity": 0.71,
      "hand": "right"
    },
    {
      "midi": 61,
      "time": 133.773,
      "duration": 0.273,
      "velocity": 0.71,
      "hand": "right"
    },
    {
      "midi": 68,
      "time": 134.182,
      "duration": 0.273,
      "velocity": 0.71,
      "hand": "right"
    },
    {
      "midi": 63,
      "time": 134.591,
      "duration": 0.273,
      "velocity": 0.71,
      "hand": "right"
    },
    {
      "midi": 73,
      "time": 134.864,
      "duration": 0.545,
      "velocity": 0.71,
      "hand": "right"
    },
    {
      "midi": 72,
      "time": 135.409,
      "duration": 0.545,
      "velocity": 0.71,
      "hand": "right"
    },
    {
      "midi": 67,
      "time": 135.682,
      "duration": 0.273,
      "velocity": 0.71,
      "hand": "right"
    },
    {
      "midi": 68,
      "time": 135.955,
      "duration": 0.273,
      "velocity": 0.71,
      "hand": "right"
    },
    {
      "midi": 75,
      "time": 136.364,
      "duration": 0.273,
      "velocity": 0.71,
      "hand": "right"
    },
    {
      "midi": 79,
      "time": 136.773,
      "duration": 0.273,
      "velocity": 0.71,
      "hand": "right"
    },
    {
      "midi": 75,
      "time": 137.318,
      "duration": 0.273,
      "velocity": 0.71,
      "hand": "right"
    },
    {
      "midi": 74,
      "time": 137.591,
      "duration": 0.273,
      "velocity": 0.71,
      "hand": "right"
    },
    {
      "midi": 72,
      "time": 137.864,
      "duration": 0.273,
      "velocity": 0.71,
      "hand": "right"
    },
    {
      "midi": 68,
      "time": 138.409,
      "duration": 0.273,
      "velocity": 0.71,
      "hand": "right"
    },
    {
      "midi": 67,
      "time": 138.682,
      "duration": 0.273,
      "velocity": 0.71,
      "hand": "right"
    },
    {
      "midi": 65,
      "time": 138.955,
      "duration": 0.273,
      "velocity": 0.71,
      "hand": "right"
    },
    {
      "midi": 62,
      "time": 139.5,
      "duration": 0.273,
      "velocity": 0.71,
      "hand": "right"
    },
    {
      "midi": 60,
      "time": 139.773,
      "duration": 0.545,
      "velocity": 0.71,
      "hand": "right"
    },
    {
      "midi": 72,
      "time": 140.318,
      "duration": 0.545,
      "velocity": 0.71,
      "hand": "right"
    },
    {
      "midi": 62,
      "time": 141.409,
      "duration": 0.545,
      "velocity": 0.71,
      "hand": "right"
    },
    {
      "midi": 62,
      "time": 141.955,
      "duration": 1.091,
      "velocity": 0.71,
      "hand": "right"
    },
    {
      "midi": 63,
      "time": 143.045,
      "duration": 1.091,
      "velocity": 0.71,
      "hand": "right"
    }
  ],
  "notes2Hands": [
    {
      "midi": 46,
      "time": 0,
      "duration": 0.136,
      "velocity": 0.71,
      "hand": "left"
    },
    {
      "midi": 51,
      "time": 0.136,
      "duration": 0.545,
      "velocity": 0.71,
      "hand": "left"
    },
    {
      "midi": 51,
      "time": 0.682,
      "duration": 0.545,
      "velocity": 0.71,
      "hand": "left"
    },
    {
      "midi": 50,
      "time": 1.227,
      "duration": 0.545,
      "velocity": 0.71,
      "hand": "left"
    },
    {
      "midi": 51,
      "time": 2.182,
      "duration": 0.136,
      "velocity": 0.71,
      "hand": "left"
    },
    {
      "midi": 56,
      "time": 2.318,
      "duration": 0.545,
      "velocity": 0.71,
      "hand": "left"
    },
    {
      "midi": 56,
      "time": 2.864,
      "duration": 0.545,
      "velocity": 0.71,
      "hand": "left"
    },
    {
      "midi": 55,
      "time": 3.409,
      "duration": 0.545,
      "velocity": 0.71,
      "hand": "left"
    },
    {
      "midi": 58,
      "time": 4.364,
      "duration": 0.136,
      "velocity": 0.71,
      "hand": "left"
    },
    {
      "midi": 63,
      "time": 4.5,
      "duration": 0.273,
      "velocity": 0.71,
      "hand": "right"
    },
    {
      "midi": 62,
      "time": 4.773,
      "duration": 0.273,
      "velocity": 0.71,
      "hand": "right"
    },
    {
      "midi": 60,
      "time": 5.045,
      "duration": 0.273,
      "velocity": 0.71,
      "hand": "right"
    },
    {
      "midi": 58,
      "time": 5.318,
      "duration": 0.273,
      "velocity": 0.71,
      "hand": "left"
    },
    {
      "midi": 56,
      "time": 5.591,
      "duration": 0.273,
      "velocity": 0.71,
      "hand": "left"
    },
    {
      "midi": 55,
      "time": 5.864,
      "duration": 0.273,
      "velocity": 0.71,
      "hand": "left"
    },
    {
      "midi": 53,
      "time": 6.136,
      "duration": 0.273,
      "velocity": 0.71,
      "hand": "left"
    },
    {
      "midi": 51,
      "time": 6.409,
      "duration": 0.273,
      "velocity": 0.71,
      "hand": "left"
    },
    {
      "midi": 50,
      "time": 6.682,
      "duration": 0.273,
      "velocity": 0.71,
      "hand": "left"
    },
    {
      "midi": 48,
      "time": 6.955,
      "duration": 0.273,
      "velocity": 0.71,
      "hand": "left"
    },
    {
      "midi": 46,
      "time": 7.227,
      "duration": 0.273,
      "velocity": 0.71,
      "hand": "left"
    },
    {
      "midi": 44,
      "time": 7.5,
      "duration": 0.273,
      "velocity": 0.71,
      "hand": "left"
    },
    {
      "midi": 43,
      "time": 7.773,
      "duration": 0.273,
      "velocity": 0.71,
      "hand": "left"
    },
    {
      "midi": 41,
      "time": 8.045,
      "duration": 0.273,
      "velocity": 0.71,
      "hand": "left"
    },
    {
      "midi": 39,
      "time": 8.318,
      "duration": 0.273,
      "velocity": 0.71,
      "hand": "left"
    },
    {
      "midi": 41,
      "time": 8.591,
      "duration": 0.273,
      "velocity": 0.71,
      "hand": "left"
    },
    {
      "midi": 51,
      "time": 8.727,
      "duration": 0.136,
      "velocity": 0.71,
      "hand": "left"
    },
    {
      "midi": 43,
      "time": 8.864,
      "duration": 0.273,
      "velocity": 0.71,
      "hand": "left"
    },
    {
      "midi": 58,
      "time": 8.864,
      "duration": 0.545,
      "velocity": 0.71,
      "hand": "left"
    },
    {
      "midi": 41,
      "time": 9.136,
      "duration": 0.273,
      "velocity": 0.71,
      "hand": "left"
    },
    {
      "midi": 40,
      "time": 9.409,
      "duration": 0.273,
      "velocity": 0.71,
      "hand": "left"
    },
    {
      "midi": 58,
      "time": 9.409,
      "duration": 0.545,
      "velocity": 0.71,
      "hand": "left"
    },
    {
      "midi": 36,
      "time": 9.682,
      "duration": 0.273,
      "velocity": 0.71,
      "hand": "left"
    },
    {
      "midi": 41,
      "time": 9.955,
      "duration": 0.273,
      "velocity": 0.71,
      "hand": "left"
    },
    {
      "midi": 57,
      "time": 9.955,
      "duration": 0.545,
      "velocity": 0.71,
      "hand": "left"
    },
    {
      "midi": 48,
      "time": 10.227,
      "duration": 0.273,
      "velocity": 0.71,
      "hand": "left"
    },
    {
      "midi": 51,
      "time": 10.5,
      "duration": 0.273,
      "velocity": 0.71,
      "hand": "left"
    },
    {
      "midi": 50,
      "time": 10.773,
      "duration": 0.273,
      "velocity": 0.71,
      "hand": "left"
    },
    {
      "midi": 58,
      "time": 10.909,
      "duration": 0.136,
      "velocity": 0.71,
      "hand": "left"
    },
    {
      "midi": 48,
      "time": 11.045,
      "duration": 0.273,
      "velocity": 0.71,
      "hand": "left"
    },
    {
      "midi": 63,
      "time": 11.045,
      "duration": 0.545,
      "velocity": 0.71,
      "hand": "right"
    },
    {
      "midi": 46,
      "time": 11.318,
      "duration": 0.273,
      "velocity": 0.71,
      "hand": "left"
    },
    {
      "midi": 45,
      "time": 11.591,
      "duration": 0.273,
      "velocity": 0.71,
      "hand": "left"
    },
    {
      "midi": 63,
      "time": 11.591,
      "duration": 0.545,
      "velocity": 0.71,
      "hand": "right"
    },
    {
      "midi": 41,
      "time": 11.864,
      "duration": 0.273,
      "velocity": 0.71,
      "hand": "left"
    },
    {
      "midi": 46,
      "time": 12.136,
      "duration": 0.273,
      "velocity": 0.71,
      "hand": "left"
    },
    {
      "midi": 62,
      "time": 12.136,
      "duration": 0.545,
      "velocity": 0.71,
      "hand": "right"
    },
    {
      "midi": 53,
      "time": 12.409,
      "duration": 0.273,
      "velocity": 0.71,
      "hand": "left"
    },
    {
      "midi": 58,
      "time": 12.682,
      "duration": 0.273,
      "velocity": 0.71,
      "hand": "left"
    },
    {
      "midi": 57,
      "time": 12.955,
      "duration": 0.273,
      "velocity": 0.71,
      "hand": "left"
    },
    {
      "midi": 65,
      "time": 13.091,
      "duration": 0.136,
      "velocity": 0.71,
      "hand": "right"
    },
    {
      "midi": 55,
      "time": 13.227,
      "duration": 0.273,
      "velocity": 0.71,
      "hand": "left"
    },
    {
      "midi": 70,
      "time": 13.227,
      "duration": 0.273,
      "velocity": 0.71,
      "hand": "right"
    },
    {
      "midi": 53,
      "time": 13.5,
      "duration": 0.273,
      "velocity": 0.71,
      "hand": "left"
    },
    {
      "midi": 69,
      "time": 13.5,
      "duration": 0.273,
      "velocity": 0.71,
      "hand": "right"
    },
    {
      "midi": 51,
      "time": 13.773,
      "duration": 0.273,
      "velocity": 0.71,
      "hand": "left"
    },
    {
      "midi": 67,
      "time": 13.773,
      "duration": 0.273,
      "velocity": 0.71,
      "hand": "right"
    },
    {
      "midi": 50,
      "time": 14.045,
      "duration": 0.273,
      "velocity": 0.71,
      "hand": "left"
    },
    {
      "midi": 65,
      "time": 14.045,
      "duration": 0.273,
      "velocity": 0.71,
      "hand": "right"
    },
    {
      "midi": 48,
      "time": 14.318,
      "duration": 0.273,
      "velocity": 0.71,
      "hand": "left"
    },
    {
      "midi": 63,
      "time": 14.318,
      "duration": 0.273,
      "velocity": 0.71,
      "hand": "right"
    },
    {
      "midi": 46,
      "time": 14.591,
      "duration": 0.273,
      "velocity": 0.71,
      "hand": "left"
    },
    {
      "midi": 62,
      "time": 14.591,
      "duration": 0.273,
      "velocity": 0.71,
      "hand": "right"
    },
    {
      "midi": 45,
      "time": 14.864,
      "duration": 0.273,
      "velocity": 0.71,
      "hand": "left"
    },
    {
      "midi": 60,
      "time": 14.864,
      "duration": 0.273,
      "velocity": 0.71,
      "hand": "right"
    },
    {
      "midi": 43,
      "time": 15.136,
      "duration": 0.273,
      "velocity": 0.71,
      "hand": "left"
    },
    {
      "midi": 58,
      "time": 15.136,
      "duration": 0.273,
      "velocity": 0.71,
      "hand": "left"
    },
    {
      "midi": 41,
      "time": 15.409,
      "duration": 0.273,
      "velocity": 0.71,
      "hand": "left"
    },
    {
      "midi": 57,
      "time": 15.409,
      "duration": 0.273,
      "velocity": 0.71,
      "hand": "left"
    },
    {
      "midi": 43,
      "time": 15.682,
      "duration": 0.273,
      "velocity": 0.71,
      "hand": "left"
    },
    {
      "midi": 55,
      "time": 15.682,
      "duration": 0.273,
      "velocity": 0.71,
      "hand": "left"
    },
    {
      "midi": 45,
      "time": 15.955,
      "duration": 0.273,
      "velocity": 0.71,
      "hand": "left"
    },
    {
      "midi": 53,
      "time": 15.955,
      "duration": 0.273,
      "velocity": 0.71,
      "hand": "left"
    },
    {
      "midi": 41,
      "time": 16.227,
      "duration": 0.273,
      "velocity": 0.71,
      "hand": "left"
    },
    {
      "midi": 51,
      "time": 16.227,
      "duration": 0.273,
      "velocity": 0.71,
      "hand": "left"
    },
    {
      "midi": 46,
      "time": 16.5,
      "duration": 0.273,
      "velocity": 0.71,
      "hand": "left"
    },
    {
      "midi": 50,
      "time": 16.5,
      "duration": 0.273,
      "velocity": 0.71,
      "hand": "left"
    },
    {
      "midi": 48,
      "time": 16.773,
      "duration": 0.273,
      "velocity": 0.71,
      "hand": "left"
    },
    {
      "midi": 51,
      "time": 16.773,
      "duration": 0.273,
      "velocity": 0.71,
      "hand": "left"
    },
    {
      "midi": 50,
      "time": 17.045,
      "duration": 0.273,
      "velocity": 0.71,
      "hand": "left"
    },
    {
      "midi": 53,
      "time": 17.045,
      "duration": 0.273,
      "velocity": 0.71,
      "hand": "left"
    },
    {
      "midi": 51,
      "time": 17.318,
      "duration": 0.273,
      "velocity": 0.71,
      "hand": "left"
    },
    {
      "midi": 55,
      "time": 17.318,
      "duration": 0.273,
      "velocity": 0.71,
      "hand": "left"
    },
    {
      "midi": 53,
      "time": 17.591,
      "duration": 0.273,
      "velocity": 0.71,
      "hand": "left"
    },
    {
      "midi": 56,
      "time": 17.591,
      "duration": 0.273,
      "velocity": 0.71,
      "hand": "left"
    },
    {
      "midi": 55,
      "time": 17.864,
      "duration": 0.273,
      "velocity": 0.71,
      "hand": "left"
    },
    {
      "midi": 58,
      "time": 17.864,
      "duration": 0.273,
      "velocity": 0.71,
      "hand": "left"
    },
    {
      "midi": 53,
      "time": 18.136,
      "duration": 0.273,
      "velocity": 0.71,
      "hand": "left"
    },
    {
      "midi": 60,
      "time": 18.136,
      "duration": 0.818,
      "velocity": 0.71,
      "hand": "right"
    },
    {
      "midi": 51,
      "time": 18.409,
      "duration": 0.273,
      "velocity": 0.71,
      "hand": "left"
    },
    {
      "midi": 50,
      "time": 18.682,
      "duration": 0.273,
      "velocity": 0.71,
      "hand": "left"
    },
    {
      "midi": 46,
      "time": 18.955,
      "duration": 0.273,
      "velocity": 0.71,
      "hand": "left"
    },
    {
      "midi": 53,
      "time": 18.955,
      "duration": 0.273,
      "velocity": 0.71,
      "hand": "left"
    },
    {
      "midi": 48,
      "time": 19.227,
      "duration": 0.273,
      "velocity": 0.71,
      "hand": "left"
    },
    {
      "midi": 58,
      "time": 19.227,
      "duration": 0.273,
      "velocity": 0.71,
      "hand": "left"
    },
    {
      "midi": 50,
      "time": 19.5,
      "duration": 0.273,
      "velocity": 0.71,
      "hand": "left"
    },
    {
      "midi": 56,
      "time": 19.5,
      "duration": 0.273,
      "velocity": 0.71,
      "hand": "left"
    },
    {
      "midi": 58,
      "time": 19.636,
      "duration": 0.136,
      "velocity": 0.71,
      "hand": "left"
    },
    {
      "midi": 51,
      "time": 19.773,
      "duration": 0.273,
      "velocity": 0.71,
      "hand": "left"
    },
    {
      "midi": 55,
      "time": 19.773,
      "duration": 0.273,
      "velocity": 0.71,
      "hand": "left"
    },
    {
      "midi": 63,
      "time": 19.773,
      "duration": 0.545,
      "velocity": 0.71,
      "hand": "right"
    },
    {
      "midi": 50,
      "time": 20.045,
      "duration": 0.273,
      "velocity": 0.71,
      "hand": "left"
    },
    {
      "midi": 53,
      "time": 20.045,
      "duration": 0.273,
      "velocity": 0.71,
      "hand": "left"
    },
    {
      "midi": 51,
      "time": 20.318,
      "duration": 0.273,
      "velocity": 0.71,
      "hand": "left"
    },
    {
      "midi": 55,
      "time": 20.318,
      "duration": 0.273,
      "velocity": 0.71,
      "hand": "left"
    },
    {
      "midi": 63,
      "time": 20.318,
      "duration": 0.545,
      "velocity": 0.71,
      "hand": "right"
    },
    {
      "midi": 48,
      "time": 20.591,
      "duration": 0.273,
      "velocity": 0.71,
      "hand": "left"
    },
    {
      "midi": 57,
      "time": 20.591,
      "duration": 0.273,
      "velocity": 0.71,
      "hand": "left"
    },
    {
      "midi": 46,
      "time": 20.864,
      "duration": 0.273,
      "velocity": 0.71,
      "hand": "left"
    },
    {
      "midi": 58,
      "time": 20.864,
      "duration": 1.091,
      "velocity": 0.71,
      "hand": "left"
    },
    {
      "midi": 62,
      "time": 20.864,
      "duration": 0.545,
      "velocity": 0.71,
      "hand": "right"
    },
    {
      "midi": 53,
      "time": 21.136,
      "duration": 0.273,
      "velocity": 0.71,
      "hand": "left"
    },
    {
      "midi": 56,
      "time": 21.409,
      "duration": 0.273,
      "velocity": 0.71,
      "hand": "left"
    },
    {
      "midi": 55,
      "time": 21.682,
      "duration": 0.273,
      "velocity": 0.71,
      "hand": "left"
    },
    {
      "midi": 63,
      "time": 21.818,
      "duration": 0.136,
      "velocity": 0.71,
      "hand": "right"
    },
    {
      "midi": 53,
      "time": 21.955,
      "duration": 0.273,
      "velocity": 0.71,
      "hand": "left"
    },
    {
      "midi": 62,
      "time": 21.955,
      "duration": 0.273,
      "velocity": 0.71,
      "hand": "right"
    },
    {
      "midi": 68,
      "time": 21.955,
      "duration": 0.545,
      "velocity": 0.71,
      "hand": "right"
    },
    {
      "midi": 51,
      "time": 22.227,
      "duration": 0.273,
      "velocity": 0.71,
      "hand": "left"
    },
    {
      "midi": 63,
      "time": 22.227,
      "duration": 0.273,
      "velocity": 0.71,
      "hand": "right"
    },
    {
      "midi": 50,
      "time": 22.5,
      "duration": 0.273,
      "velocity": 0.71,
      "hand": "left"
    },
    {
      "midi": 65,
      "time": 22.5,
      "duration": 0.273,
      "velocity": 0.71,
      "hand": "right"
    },
    {
      "midi": 68,
      "time": 22.5,
      "duration": 0.545,
      "velocity": 0.71,
      "hand": "right"
    },
    {
      "midi": 46,
      "time": 22.773,
      "duration": 0.273,
      "velocity": 0.71,
      "hand": "left"
    },
    {
      "midi": 62,
      "time": 22.773,
      "duration": 0.273,
      "velocity": 0.71,
      "hand": "right"
    },
    {
      "midi": 51,
      "time": 23.045,
      "duration": 0.273,
      "velocity": 0.71,
      "hand": "left"
    },
    {
      "midi": 63,
      "time": 23.045,
      "duration": 2.182,
      "velocity": 0.71,
      "hand": "right"
    },
    {
      "midi": 67,
      "time": 23.045,
      "duration": 0.545,
      "velocity": 0.71,
      "hand": "right"
    },
    {
      "midi": 58,
      "time": 23.318,
      "duration": 0.273,
      "velocity": 0.71,
      "hand": "left"
    },
    {
      "midi": 63,
      "time": 23.591,
      "duration": 0.273,
      "velocity": 0.71,
      "hand": "right"
    },
    {
      "midi": 62,
      "time": 23.864,
      "duration": 0.273,
      "velocity": 0.71,
      "hand": "right"
    },
    {
      "midi": 70,
      "time": 24,
      "duration": 0.136,
      "velocity": 0.71,
      "hand": "right"
    },
    {
      "midi": 60,
      "time": 24.136,
      "duration": 0.273,
      "velocity": 0.71,
      "hand": "right"
    },
    {
      "midi": 75,
      "time": 24.136,
      "duration": 0.273,
      "velocity": 0.71,
      "hand": "right"
    },
    {
      "midi": 58,
      "time": 24.409,
      "duration": 0.273,
      "velocity": 0.71,
      "hand": "left"
    },
    {
      "midi": 74,
      "time": 24.409,
      "duration": 0.273,
      "velocity": 0.71,
      "hand": "right"
    },
    {
      "midi": 56,
      "time": 24.682,
      "duration": 0.273,
      "velocity": 0.71,
      "hand": "left"
    },
    {
      "midi": 72,
      "time": 24.682,
      "duration": 0.273,
      "velocity": 0.71,
      "hand": "right"
    },
    {
      "midi": 55,
      "time": 24.955,
      "duration": 0.273,
      "velocity": 0.71,
      "hand": "left"
    },
    {
      "midi": 70,
      "time": 24.955,
      "duration": 0.273,
      "velocity": 0.71,
      "hand": "right"
    },
    {
      "midi": 53,
      "time": 25.227,
      "duration": 0.273,
      "velocity": 0.71,
      "hand": "left"
    },
    {
      "midi": 62,
      "time": 25.227,
      "duration": 0.273,
      "velocity": 0.71,
      "hand": "right"
    },
    {
      "midi": 68,
      "time": 25.227,
      "duration": 0.273,
      "velocity": 0.71,
      "hand": "right"
    },
    {
      "midi": 51,
      "time": 25.5,
      "duration": 0.273,
      "velocity": 0.71,
      "hand": "left"
    },
    {
      "midi": 63,
      "time": 25.5,
      "duration": 0.273,
      "velocity": 0.71,
      "hand": "right"
    },
    {
      "midi": 67,
      "time": 25.5,
      "duration": 0.273,
      "velocity": 0.71,
      "hand": "right"
    },
    {
      "midi": 50,
      "time": 25.773,
      "duration": 0.273,
      "velocity": 0.71,
      "hand": "left"
    },
    {
      "midi": 58,
      "time": 25.773,
      "duration": 0.273,
      "velocity": 0.71,
      "hand": "left"
    },
    {
      "midi": 65,
      "time": 25.773,
      "duration": 0.273,
      "velocity": 0.71,
      "hand": "right"
    },
    {
      "midi": 48,
      "time": 26.045,
      "duration": 0.273,
      "velocity": 0.71,
      "hand": "left"
    },
    {
      "midi": 57,
      "time": 26.045,
      "duration": 0.273,
      "velocity": 0.71,
      "hand": "left"
    },
    {
      "midi": 63,
      "time": 26.045,
      "duration": 0.273,
      "velocity": 0.71,
      "hand": "right"
    },
    {
      "midi": 46,
      "time": 26.318,
      "duration": 0.273,
      "velocity": 0.71,
      "hand": "left"
    },
    {
      "midi": 58,
      "time": 26.318,
      "duration": 0.273,
      "velocity": 0.71,
      "hand": "left"
    },
    {
      "midi": 62,
      "time": 26.318,
      "duration": 0.273,
      "velocity": 0.71,
      "hand": "right"
    },
    {
      "midi": 44,
      "time": 26.591,
      "duration": 0.273,
      "velocity": 0.71,
      "hand": "left"
    },
    {
      "midi": 53,
      "time": 26.591,
      "duration": 0.273,
      "velocity": 0.71,
      "hand": "left"
    },
    {
      "midi": 60,
      "time": 26.591,
      "duration": 0.273,
      "velocity": 0.71,
      "hand": "right"
    },
    {
      "midi": 43,
      "time": 26.864,
      "duration": 0.273,
      "velocity": 0.71,
      "hand": "left"
    },
    {
      "midi": 55,
      "time": 26.864,
      "duration": 0.273,
      "velocity": 0.71,
      "hand": "left"
    },
    {
      "midi": 58,
      "time": 26.864,
      "duration": 0.273,
      "velocity": 0.71,
      "hand": "left"
    },
    {
      "midi": 41,
      "time": 27.136,
      "duration": 0.273,
      "velocity": 0.71,
      "hand": "left"
    },
    {
      "midi": 50,
      "time": 27.136,
      "duration": 0.273,
      "velocity": 0.71,
      "hand": "left"
    },
    {
      "midi": 56,
      "time": 27.136,
      "duration": 0.273,
      "velocity": 0.71,
      "hand": "left"
    },
    {
      "midi": 39,
      "time": 27.409,
      "duration": 0.545,
      "velocity": 0.71,
      "hand": "left"
    },
    {
      "midi": 51,
      "time": 27.409,
      "duration": 0.545,
      "velocity": 0.71,
      "hand": "left"
    },
    {
      "midi": 55,
      "time": 27.409,
      "duration": 0.273,
      "velocity": 0.71,
      "hand": "left"
    },
    {
      "midi": 58,
      "time": 27.682,
      "duration": 0.273,
      "velocity": 0.71,
      "hand": "left"
    },
    {
      "midi": 63,
      "time": 27.955,
      "duration": 0.273,
      "velocity": 0.71,
      "hand": "right"
    },
    {
      "midi": 67,
      "time": 28.227,
      "duration": 0.273,
      "velocity": 0.71,
      "hand": "right"
    },
    {
      "midi": 51,
      "time": 28.364,
      "duration": 0.136,
      "velocity": 0.71,
      "hand": "left"
    },
    {
      "midi": 48,
      "time": 28.5,
      "duration": 0.545,
      "velocity": 0.71,
      "hand": "left"
    },
    {
      "midi": 63,
      "time": 28.5,
      "duration": 0.545,
      "velocity": 0.71,
      "hand": "right"
    },
    {
      "midi": 68,
      "time": 28.5,
      "duration": 0.273,
      "velocity": 0.71,
      "hand": "right"
    },
    {
      "midi": 72,
      "time": 28.773,
      "duration": 0.273,
      "velocity": 0.71,
      "hand": "right"
    },
    {
      "midi": 50,
      "time": 29.045,
      "duration": 0.545,
      "velocity": 0.71,
      "hand": "left"
    },
    {
      "midi": 65,
      "time": 29.045,
      "duration": 0.545,
      "velocity": 0.71,
      "hand": "right"
    },
    {
      "midi": 70,
      "time": 29.045,
      "duration": 0.273,
      "velocity": 0.71,
      "hand": "right"
    },
    {
      "midi": 68,
      "time": 29.318,
      "duration": 0.273,
      "velocity": 0.71,
      "hand": "right"
    },
    {
      "midi": 51,
      "time": 29.591,
      "duration": 0.545,
      "velocity": 0.71,
      "hand": "left"
    },
    {
      "midi": 58,
      "time": 29.591,
      "duration": 0.545,
      "velocity": 0.71,
      "hand": "left"
    },
    {
      "midi": 67,
      "time": 29.591,
      "duration": 0.273,
      "velocity": 0.71,
      "hand": "right"
    },
    {
      "midi": 69,
      "time": 29.864,
      "duration": 0.273,
      "velocity": 0.71,
      "hand": "right"
    },
    {
      "midi": 70,
      "time": 30.136,
      "duration": 0.273,
      "velocity": 0.71,
      "hand": "right"
    },
    {
      "midi": 74,
      "time": 30.409,
      "duration": 0.273,
      "velocity": 0.71,
      "hand": "right"
    },
    {
      "midi": 58,
      "time": 30.545,
      "duration": 0.136,
      "velocity": 0.71,
      "hand": "left"
    },
    {
      "midi": 55,
      "time": 30.682,
      "duration": 0.545,
      "velocity": 0.71,
      "hand": "left"
    },
    {
      "midi": 75,
      "time": 30.682,
      "duration": 0.273,
      "velocity": 0.71,
      "hand": "right"
    },
    {
      "midi": 79,
      "time": 30.955,
      "duration": 0.273,
      "velocity": 0.71,
      "hand": "right"
    },
    {
      "midi": 57,
      "time": 31.227,
      "duration": 0.545,
      "velocity": 0.71,
      "hand": "left"
    },
    {
      "midi": 77,
      "time": 31.227,
      "duration": 0.273,
      "velocity": 0.71,
      "hand": "right"
    },
    {
      "midi": 75,
      "time": 31.5,
      "duration": 0.273,
      "velocity": 0.71,
      "hand": "right"
    },
    {
      "midi": 58,
      "time": 31.773,
      "duration": 0.273,
      "velocity": 0.71,
      "hand": "left"
    },
    {
      "midi": 74,
      "time": 31.773,
      "duration": 0.545,
      "velocity": 0.71,
      "hand": "right"
    },
    {
      "midi": 62,
      "time": 32.045,
      "duration": 0.273,
      "velocity": 0.71,
      "hand": "right"
    },
    {
      "midi": 65,
      "time": 32.318,
      "duration": 0.273,
      "velocity": 0.71,
      "hand": "right"
    },
    {
      "midi": 67,
      "time": 32.591,
      "duration": 0.273,
      "velocity": 0.71,
      "hand": "right"
    },
    {
      "midi": 82,
      "time": 32.727,
      "duration": 0.136,
      "velocity": 0.71,
      "hand": "right"
    },
    {
      "midi": 68,
      "time": 32.864,
      "duration": 0.273,
      "velocity": 0.71,
      "hand": "right"
    },
    {
      "midi": 84,
      "time": 32.864,
      "duration": 0.545,
      "velocity": 0.71,
      "hand": "right"
    },
    {
      "midi": 72,
      "time": 33.136,
      "duration": 0.273,
      "velocity": 0.71,
      "hand": "right"
    },
    {
      "midi": 70,
      "time": 33.409,
      "duration": 0.273,
      "velocity": 0.71,
      "hand": "right"
    },
    {
      "midi": 74,
      "time": 33.409,
      "duration": 0.545,
      "velocity": 0.71,
      "hand": "right"
    },
    {
      "midi": 68,
      "time": 33.682,
      "duration": 0.273,
      "velocity": 0.71,
      "hand": "right"
    },
    {
      "midi": 46,
      "time": 33.818,
      "duration": 0.136,
      "velocity": 0.71,
      "hand": "left"
    },
    {
      "midi": 51,
      "time": 33.955,
      "duration": 0.545,
      "velocity": 0.71,
      "hand": "left"
    },
    {
      "midi": 67,
      "time": 33.955,
      "duration": 0.545,
      "velocity": 0.71,
      "hand": "right"
    },
    {
      "midi": 75,
      "time": 33.955,
      "duration": 0.273,
      "velocity": 0.71,
      "hand": "right"
    },
    {
      "midi": 74,
      "time": 34.227,
      "duration": 0.273,
      "velocity": 0.71,
      "hand": "right"
    },
    {
      "midi": 51,
      "time": 34.5,
      "duration": 0.545,
      "velocity": 0.71,
      "hand": "left"
    },
    {
      "midi": 66,
      "time": 34.5,
      "duration": 0.545,
      "velocity": 0.71,
      "hand": "right"
    },
    {
      "midi": 72,
      "time": 34.5,
      "duration": 0.273,
      "velocity": 0.71,
      "hand": "right"
    },
    {
      "midi": 69,
      "time": 34.773,
      "duration": 0.273,
      "velocity": 0.71,
      "hand": "right"
    },
    {
      "midi": 50,
      "time": 35.045,
      "duration": 0.545,
      "velocity": 0.71,
      "hand": "left"
    },
    {
      "midi": 65,
      "time": 35.045,
      "duration": 0.545,
      "velocity": 0.71,
      "hand": "right"
    },
    {
      "midi": 70,
      "time": 35.045,
      "duration": 0.273,
      "velocity": 0.71,
      "hand": "right"
    },
    {
      "midi": 77,
      "time": 35.318,
      "duration": 0.273,
      "velocity": 0.71,
      "hand": "right"
    },
    {
      "midi": 70,
      "time": 35.591,
      "duration": 1.091,
      "velocity": 0.71,
      "hand": "right"
    },
    {
      "midi": 80,
      "time": 35.591,
      "duration": 0.273,
      "velocity": 0.71,
      "hand": "right"
    },
    {
      "midi": 79,
      "time": 35.864,
      "duration": 0.273,
      "velocity": 0.71,
      "hand": "right"
    },
    {
      "midi": 51,
      "time": 36,
      "duration": 0.136,
      "velocity": 0.71,
      "hand": "left"
    },
    {
      "midi": 56,
      "time": 36.136,
      "duration": 0.545,
      "velocity": 0.71,
      "hand": "left"
    },
    {
      "midi": 77,
      "time": 36.136,
      "duration": 0.273,
      "velocity": 0.71,
      "hand": "right"
    },
    {
      "midi": 75,
      "time": 36.409,
      "duration": 0.273,
      "velocity": 0.71,
      "hand": "right"
    },
    {
      "midi": 56,
      "time": 36.682,
      "duration": 0.545,
      "velocity": 0.71,
      "hand": "left"
    },
    {
      "midi": 71,
      "time": 36.682,
      "duration": 0.545,
      "velocity": 0.71,
      "hand": "right"
    },
    {
      "midi": 74,
      "time": 36.682,
      "duration": 0.273,
      "velocity": 0.71,
      "hand": "right"
    },
    {
      "midi": 77,
      "time": 36.955,
      "duration": 0.273,
      "velocity": 0.71,
      "hand": "right"
    },
    {
      "midi": 55,
      "time": 37.227,
      "duration": 0.545,
      "velocity": 0.71,
      "hand": "left"
    },
    {
      "midi": 70,
      "time": 37.227,
      "duration": 0.545,
      "velocity": 0.71,
      "hand": "right"
    },
    {
      "midi": 75,
      "time": 37.227,
      "duration": 0.273,
      "velocity": 0.71,
      "hand": "right"
    },
    {
      "midi": 82,
      "time": 37.5,
      "duration": 0.273,
      "velocity": 0.71,
      "hand": "right"
    },
    {
      "midi": 79,
      "time": 37.773,
      "duration": 0.818,
      "velocity": 0.71,
      "hand": "right"
    },
    {
      "midi": 87,
      "time": 37.773,
      "duration": 0.273,
      "velocity": 0.71,
      "hand": "right"
    },
    {
      "midi": 82,
      "time": 38.045,
      "duration": 0.273,
      "velocity": 0.71,
      "hand": "right"
    },
    {
      "midi": 58,
      "time": 38.182,
      "duration": 0.136,
      "velocity": 0.71,
      "hand": "left"
    },
    {
      "midi": 63,
      "time": 38.318,
      "duration": 0.273,
      "velocity": 0.71,
      "hand": "right"
    },
    {
      "midi": 84,
      "time": 38.318,
      "duration": 0.273,
      "velocity": 0.71,
      "hand": "right"
    },
    {
      "midi": 62,
      "time": 38.591,
      "duration": 0.273,
      "velocity": 0.71,
      "hand": "right"
    },
    {
      "midi": 77,
      "time": 38.591,
      "duration": 0.273,
      "velocity": 0.71,
      "hand": "right"
    },
    {
      "midi": 82,
      "time": 38.591,
      "duration": 0.273,
      "velocity": 0.71,
      "hand": "right"
    },
    {
      "midi": 60,
      "time": 38.864,
      "duration": 0.273,
      "velocity": 0.71,
      "hand": "right"
    },
    {
      "midi": 75,
      "time": 38.864,
      "duration": 0.273,
      "velocity": 0.71,
      "hand": "right"
    },
    {
      "midi": 80,
      "time": 38.864,
      "duration": 0.273,
      "velocity": 0.71,
      "hand": "right"
    },
    {
      "midi": 58,
      "time": 39.136,
      "duration": 0.273,
      "velocity": 0.71,
      "hand": "left"
    },
    {
      "midi": 74,
      "time": 39.136,
      "duration": 0.273,
      "velocity": 0.71,
      "hand": "right"
    },
    {
      "midi": 79,
      "time": 39.136,
      "duration": 0.273,
      "velocity": 0.71,
      "hand": "right"
    },
    {
      "midi": 56,
      "time": 39.409,
      "duration": 0.273,
      "velocity": 0.71,
      "hand": "left"
    },
    {
      "midi": 72,
      "time": 39.409,
      "duration": 0.273,
      "velocity": 0.71,
      "hand": "right"
    },
    {
      "midi": 77,
      "time": 39.409,
      "duration": 0.273,
      "velocity": 0.71,
      "hand": "right"
    },
    {
      "midi": 55,
      "time": 39.682,
      "duration": 0.273,
      "velocity": 0.71,
      "hand": "left"
    },
    {
      "midi": 70,
      "time": 39.682,
      "duration": 0.273,
      "velocity": 0.71,
      "hand": "right"
    },
    {
      "midi": 75,
      "time": 39.682,
      "duration": 0.273,
      "velocity": 0.71,
      "hand": "right"
    },
    {
      "midi": 53,
      "time": 39.955,
      "duration": 0.273,
      "velocity": 0.71,
      "hand": "left"
    },
    {
      "midi": 68,
      "time": 39.955,
      "duration": 0.273,
      "velocity": 0.71,
      "hand": "right"
    },
    {
      "midi": 74,
      "time": 39.955,
      "duration": 0.273,
      "velocity": 0.71,
      "hand": "right"
    },
    {
      "midi": 51,
      "time": 40.227,
      "duration": 0.273,
      "velocity": 0.71,
      "hand": "left"
    },
    {
      "midi": 67,
      "time": 40.227,
      "duration": 0.273,
      "velocity": 0.71,
      "hand": "right"
    },
    {
      "midi": 72,
      "time": 40.227,
      "duration": 0.273,
      "velocity": 0.71,
      "hand": "right"
    },
    {
      "midi": 50,
      "time": 40.5,
      "duration": 0.273,
      "velocity": 0.71,
      "hand": "left"
    },
    {
      "midi": 65,
      "time": 40.5,
      "duration": 0.273,
      "velocity": 0.71,
      "hand": "right"
    },
    {
      "midi": 70,
      "time": 40.5,
      "duration": 0.273,
      "velocity": 0.71,
      "hand": "right"
    },
    {
      "midi": 48,
      "time": 40.773,
      "duration": 0.273,
      "velocity": 0.71,
      "hand": "left"
    },
    {
      "midi": 63,
      "time": 40.773,
      "duration": 0.273,
      "velocity": 0.71,
      "hand": "right"
    },
    {
      "midi": 68,
      "time": 40.773,
      "duration": 0.273,
      "velocity": 0.71,
      "hand": "right"
    },
    {
      "midi": 46,
      "time": 41.045,
      "duration": 0.273,
      "velocity": 0.71,
      "hand": "left"
    },
    {
      "midi": 62,
      "time": 41.045,
      "duration": 0.273,
      "velocity": 0.71,
      "hand": "right"
    },
    {
      "midi": 67,
      "time": 41.045,
      "duration": 0.273,
      "velocity": 0.71,
      "hand": "right"
    },
    {
      "midi": 44,
      "time": 41.318,
      "duration": 0.273,
      "velocity": 0.71,
      "hand": "left"
    },
    {
      "midi": 60,
      "time": 41.318,
      "duration": 0.273,
      "velocity": 0.71,
      "hand": "right"
    },
    {
      "midi": 65,
      "time": 41.318,
      "duration": 0.273,
      "velocity": 0.71,
      "hand": "right"
    },
    {
      "midi": 43,
      "time": 41.591,
      "duration": 0.273,
      "velocity": 0.71,
      "hand": "left"
    },
    {
      "midi": 58,
      "time": 41.591,
      "duration": 0.545,
      "velocity": 0.71,
      "hand": "left"
    },
    {
      "midi": 63,
      "time": 41.591,
      "duration": 0.545,
      "velocity": 0.71,
      "hand": "right"
    },
    {
      "midi": 46,
      "time": 41.864,
      "duration": 0.273,
      "velocity": 0.71,
      "hand": "left"
    },
    {
      "midi": 51,
      "time": 42.136,
      "duration": 0.273,
      "velocity": 0.71,
      "hand": "left"
    },
    {
      "midi": 55,
      "time": 42.409,
      "duration": 0.273,
      "velocity": 0.71,
      "hand": "left"
    },
    {
      "midi": 63,
      "time": 42.545,
      "duration": 0.136,
      "velocity": 0.71,
      "hand": "right"
    },
    {
      "midi": 70,
      "time": 42.545,
      "duration": 0.136,
      "velocity": 0.71,
      "hand": "right"
    },
    {
      "midi": 56,
      "time": 42.682,
      "duration": 0.273,
      "velocity": 0.71,
      "hand": "left"
    },
    {
      "midi": 63,
      "time": 42.682,
      "duration": 0.545,
      "velocity": 0.71,
      "hand": "right"
    },
    {
      "midi": 72,
      "time": 42.682,
      "duration": 0.545,
      "velocity": 0.71,
      "hand": "right"
    },
    {
      "midi": 60,
      "time": 42.955,
      "duration": 0.273,
      "velocity": 0.71,
      "hand": "right"
    },
    {
      "midi": 58,
      "time": 43.227,
      "duration": 0.273,
      "velocity": 0.71,
      "hand": "left"
    },
    {
      "midi": 62,
      "time": 43.227,
      "duration": 0.545,
      "velocity": 0.71,
      "hand": "right"
    },
    {
      "midi": 65,
      "time": 43.227,
      "duration": 0.545,
      "velocity": 0.71,
      "hand": "right"
    },
    {
      "midi": 56,
      "time": 43.5,
      "duration": 0.273,
      "velocity": 0.71,
      "hand": "left"
    },
    {
      "midi": 55,
      "time": 43.773,
      "duration": 0.273,
      "velocity": 0.71,
      "hand": "left"
    },
    {
      "midi": 63,
      "time": 43.773,
      "duration": 0.545,
      "velocity": 0.71,
      "hand": "right"
    },
    {
      "midi": 67,
      "time": 43.773,
      "duration": 0.545,
      "velocity": 0.71,
      "hand": "right"
    },
    {
      "midi": 51,
      "time": 44.045,
      "duration": 0.273,
      "velocity": 0.71,
      "hand": "left"
    },
    {
      "midi": 55,
      "time": 44.318,
      "duration": 0.273,
      "velocity": 0.71,
      "hand": "left"
    },
    {
      "midi": 57,
      "time": 44.591,
      "duration": 0.273,
      "velocity": 0.71,
      "hand": "left"
    },
    {
      "midi": 66,
      "time": 44.727,
      "duration": 0.136,
      "velocity": 0.71,
      "hand": "right"
    },
    {
      "midi": 72,
      "time": 44.727,
      "duration": 0.136,
      "velocity": 0.71,
      "hand": "right"
    },
    {
      "midi": 58,
      "time": 44.864,
      "duration": 0.273,
      "velocity": 0.71,
      "hand": "left"
    },
    {
      "midi": 65,
      "time": 44.864,
      "duration": 0.545,
      "velocity": 0.71,
      "hand": "right"
    },
    {
      "midi": 73,
      "time": 44.864,
      "duration": 0.545,
      "velocity": 0.71,
      "hand": "right"
    },
    {
      "midi": 61,
      "time": 45.136,
      "duration": 0.273,
      "velocity": 0.71,
      "hand": "right"
    },
    {
      "midi": 60,
      "time": 45.409,
      "duration": 0.273,
      "velocity": 0.71,
      "hand": "right"
    },
    {
      "midi": 64,
      "time": 45.409,
      "duration": 0.545,
      "velocity": 0.71,
      "hand": "right"
    },
    {
      "midi": 67,
      "time": 45.409,
      "duration": 0.545,
      "velocity": 0.71,
      "hand": "right"
    },
    {
      "midi": 58,
      "time": 45.682,
      "duration": 0.273,
      "velocity": 0.71,
      "hand": "left"
    },
    {
      "midi": 56,
      "time": 45.955,
      "duration": 0.273,
      "velocity": 0.71,
      "hand": "left"
    },
    {
      "midi": 65,
      "time": 45.955,
      "duration": 0.545,
      "velocity": 0.71,
      "hand": "right"
    },
    {
      "midi": 68,
      "time": 45.955,
      "duration": 0.545,
      "velocity": 0.71,
      "hand": "right"
    },
    {
      "midi": 53,
      "time": 46.227,
      "duration": 0.273,
      "velocity": 0.71,
      "hand": "left"
    },
    {
      "midi": 56,
      "time": 46.5,
      "duration": 0.273,
      "velocity": 0.71,
      "hand": "left"
    },
    {
      "midi": 59,
      "time": 46.773,
      "duration": 0.273,
      "velocity": 0.71,
      "hand": "left"
    },
    {
      "midi": 68,
      "time": 46.909,
      "duration": 0.136,
      "velocity": 0.71,
      "hand": "right"
    },
    {
      "midi": 74,
      "time": 46.909,
      "duration": 0.136,
      "velocity": 0.71,
      "hand": "right"
    },
    {
      "midi": 60,
      "time": 47.045,
      "duration": 0.273,
      "velocity": 0.71,
      "hand": "right"
    },
    {
      "midi": 67,
      "time": 47.045,
      "duration": 0.545,
      "velocity": 0.71,
      "hand": "right"
    },
    {
      "midi": 75,
      "time": 47.045,
      "duration": 0.545,
      "velocity": 0.71,
      "hand": "right"
    },
    {
      "midi": 63,
      "time": 47.318,
      "duration": 0.273,
      "velocity": 0.71,
      "hand": "right"
    },
    {
      "midi": 62,
      "time": 47.591,
      "duration": 0.273,
      "velocity": 0.71,
      "hand": "right"
    },
    {
      "midi": 66,
      "time": 47.591,
      "duration": 0.545,
      "velocity": 0.71,
      "hand": "right"
    },
    {
      "midi": 69,
      "time": 47.591,
      "duration": 0.545,
      "velocity": 0.71,
      "hand": "right"
    },
    {
      "midi": 60,
      "time": 47.864,
      "duration": 0.273,
      "velocity": 0.71,
      "hand": "right"
    },
    {
      "midi": 59,
      "time": 48.136,
      "duration": 0.545,
      "velocity": 0.71,
      "hand": "left"
    },
    {
      "midi": 67,
      "time": 48.136,
      "duration": 0.273,
      "velocity": 0.71,
      "hand": "right"
    },
    {
      "midi": 71,
      "time": 48.136,
      "duration": 0.273,
      "velocity": 0.71,
      "hand": "right"
    },
    {
      "midi": 67,
      "time": 48.409,
      "duration": 0.273,
      "velocity": 0.71,
      "hand": "right"
    },
    {
      "midi": 71,
      "time": 48.682,
      "duration": 0.273,
      "velocity": 0.71,
      "hand": "right"
    },
    {
      "midi": 74,
      "time": 48.955,
      "duration": 0.273,
      "velocity": 0.71,
      "hand": "right"
    },
    {
      "midi": 55,
      "time": 49.091,
      "duration": 0.136,
      "velocity": 0.71,
      "hand": "left"
    },
    {
      "midi": 56,
      "time": 49.227,
      "duration": 0.545,
      "velocity": 0.71,
      "hand": "left"
    },
    {
      "midi": 77,
      "time": 49.227,
      "duration": 0.273,
      "velocity": 0.71,
      "hand": "right"
    },
    {
      "midi": 80,
      "time": 49.5,
      "duration": 0.273,
      "velocity": 0.71,
      "hand": "right"
    },
    {
      "midi": 47,
      "time": 49.773,
      "duration": 0.545,
      "velocity": 0.71,
      "hand": "left"
    },
    {
      "midi": 79,
      "time": 49.773,
      "duration": 0.273,
      "velocity": 0.71,
      "hand": "right"
    },
    {
      "midi": 77,
      "time": 50.045,
      "duration": 0.273,
      "velocity": 0.71,
      "hand": "right"
    },
    {
      "midi": 55,
      "time": 50.182,
      "duration": 0.136,
      "velocity": 0.71,
      "hand": "left"
    },
    {
      "midi": 48,
      "time": 50.318,
      "duration": 0.273,
      "velocity": 0.71,
      "hand": "left"
    },
    {
      "midi": 60,
      "time": 50.318,
      "duration": 0.545,
      "velocity": 0.71,
      "hand": "right"
    },
    {
      "midi": 77,
      "time": 50.318,
      "duration": 0.545,
      "velocity": 0.71,
      "hand": "right"
    },
    {
      "midi": 50,
      "time": 50.591,
      "duration": 0.273,
      "velocity": 0.71,
      "hand": "left"
    },
    {
      "midi": 51,
      "time": 50.864,
      "duration": 0.273,
      "velocity": 0.71,
      "hand": "left"
    },
    {
      "midi": 60,
      "time": 50.864,
      "duration": 0.545,
      "velocity": 0.71,
      "hand": "right"
    },
    {
      "midi": 75,
      "time": 50.864,
      "duration": 0.545,
      "velocity": 0.71,
      "hand": "right"
    },
    {
      "midi": 53,
      "time": 51.136,
      "duration": 0.273,
      "velocity": 0.71,
      "hand": "left"
    },
    {
      "midi": 55,
      "time": 51.409,
      "duration": 0.273,
      "velocity": 0.71,
      "hand": "left"
    },
    {
      "midi": 59,
      "time": 51.409,
      "duration": 0.545,
      "velocity": 0.71,
      "hand": "left"
    },
    {
      "midi": 74,
      "time": 51.409,
      "duration": 0.273,
      "velocity": 0.71,
      "hand": "right"
    },
    {
      "midi": 56,
      "time": 51.682,
      "duration": 0.273,
      "velocity": 0.71,
      "hand": "left"
    },
    {
      "midi": 65,
      "time": 51.682,
      "duration": 0.273,
      "velocity": 0.71,
      "hand": "right"
    },
    {
      "midi": 53,
      "time": 51.955,
      "duration": 0.273,
      "velocity": 0.71,
      "hand": "left"
    },
    {
      "midi": 68,
      "time": 51.955,
      "duration": 1.091,
      "velocity": 0.71,
      "hand": "right"
    },
    {
      "midi": 50,
      "time": 52.227,
      "duration": 0.273,
      "velocity": 0.71,
      "hand": "left"
    },
    {
      "midi": 60,
      "time": 52.364,
      "duration": 0.136,
      "velocity": 0.71,
      "hand": "right"
    },
    {
      "midi": 47,
      "time": 52.5,
      "duration": 0.273,
      "velocity": 0.71,
      "hand": "left"
    },
    {
      "midi": 65,
      "time": 52.5,
      "duration": 0.545,
      "velocity": 0.71,
      "hand": "right"
    },
    {
      "midi": 43,
      "time": 52.773,
      "duration": 0.273,
      "velocity": 0.71,
      "hand": "left"
    },
    {
      "midi": 45,
      "time": 53.045,
      "duration": 0.273,
      "velocity": 0.71,
      "hand": "left"
    },
    {
      "midi": 65,
      "time": 53.045,
      "duration": 0.545,
      "velocity": 0.71,
      "hand": "right"
    },
    {
      "midi": 67,
      "time": 53.045,
      "duration": 0.818,
      "velocity": 0.71,
      "hand": "right"
    },
    {
      "midi": 47,
      "time": 53.318,
      "duration": 0.273,
      "velocity": 0.71,
      "hand": "left"
    },
    {
      "midi": 48,
      "time": 53.591,
      "duration": 0.273,
      "velocity": 0.71,
      "hand": "left"
    },
    {
      "midi": 63,
      "time": 53.591,
      "duration": 0.545,
      "velocity": 0.71,
      "hand": "right"
    },
    {
      "midi": 60,
      "time": 53.864,
      "duration": 0.273,
      "velocity": 0.71,
      "hand": "right"
    },
    {
      "midi": 79,
      "time": 53.864,
      "duration": 0.273,
      "velocity": 0.71,
      "hand": "right"
    },
    {
      "midi": 62,
      "time": 54.136,
      "duration": 0.273,
      "velocity": 0.71,
      "hand": "right"
    },
    {
      "midi": 84,
      "time": 54.136,
      "duration": 0.273,
      "velocity": 0.71,
      "hand": "right"
    },
    {
      "midi": 64,
      "time": 54.409,
      "duration": 0.273,
      "velocity": 0.71,
      "hand": "right"
    },
    {
      "midi": 82,
      "time": 54.409,
      "duration": 0.273,
      "velocity": 0.71,
      "hand": "right"
    },
    {
      "midi": 67,
      "time": 54.545,
      "duration": 0.136,
      "velocity": 0.71,
      "hand": "right"
    },
    {
      "midi": 65,
      "time": 54.682,
      "duration": 0.545,
      "velocity": 0.71,
      "hand": "right"
    },
    {
      "midi": 72,
      "time": 54.682,
      "duration": 0.273,
      "velocity": 0.71,
      "hand": "right"
    },
    {
      "midi": 80,
      "time": 54.682,
      "duration": 0.273,
      "velocity": 0.71,
      "hand": "right"
    },
    {
      "midi": 70,
      "time": 54.955,
      "duration": 0.273,
      "velocity": 0.71,
      "hand": "right"
    },
    {
      "midi": 79,
      "time": 54.955,
      "duration": 0.273,
      "velocity": 0.71,
      "hand": "right"
    },
    {
      "midi": 53,
      "time": 55.227,
      "duration": 0.273,
      "velocity": 0.71,
      "hand": "left"
    },
    {
      "midi": 68,
      "time": 55.227,
      "duration": 0.273,
      "velocity": 0.71,
      "hand": "right"
    },
    {
      "midi": 77,
      "time": 55.227,
      "duration": 0.273,
      "velocity": 0.71,
      "hand": "right"
    },
    {
      "midi": 55,
      "time": 55.5,
      "duration": 0.273,
      "velocity": 0.71,
      "hand": "left"
    },
    {
      "midi": 67,
      "time": 55.5,
      "duration": 0.273,
      "velocity": 0.71,
      "hand": "right"
    },
    {
      "midi": 75,
      "time": 55.5,
      "duration": 0.273,
      "velocity": 0.71,
      "hand": "right"
    },
    {
      "midi": 56,
      "time": 55.773,
      "duration": 0.545,
      "velocity": 0.71,
      "hand": "left"
    },
    {
      "midi": 65,
      "time": 55.773,
      "duration": 0.273,
      "velocity": 0.71,
      "hand": "right"
    },
    {
      "midi": 74,
      "time": 55.773,
      "duration": 0.273,
      "velocity": 0.71,
      "hand": "right"
    },
    {
      "midi": 63,
      "time": 56.045,
      "duration": 0.273,
      "velocity": 0.71,
      "hand": "right"
    },
    {
      "midi": 72,
      "time": 56.045,
      "duration": 0.273,
      "velocity": 0.71,
      "hand": "right"
    },
    {
      "midi": 50,
      "time": 56.318,
      "duration": 0.273,
      "velocity": 0.71,
      "hand": "left"
    },
    {
      "midi": 62,
      "time": 56.318,
      "duration": 0.273,
      "velocity": 0.71,
      "hand": "right"
    },
    {
      "midi": 71,
      "time": 56.318,
      "duration": 0.273,
      "velocity": 0.71,
      "hand": "right"
    },
    {
      "midi": 51,
      "time": 56.591,
      "duration": 0.273,
      "velocity": 0.71,
      "hand": "left"
    },
    {
      "midi": 60,
      "time": 56.591,
      "duration": 0.273,
      "velocity": 0.71,
      "hand": "right"
    },
    {
      "midi": 68,
      "time": 56.591,
      "duration": 0.273,
      "velocity": 0.71,
      "hand": "right"
    },
    {
      "midi": 53,
      "time": 56.864,
      "duration": 0.545,
      "velocity": 0.71,
      "hand": "left"
    },
    {
      "midi": 59,
      "time": 56.864,
      "duration": 0.273,
      "velocity": 0.71,
      "hand": "left"
    },
    {
      "midi": 67,
      "time": 56.864,
      "duration": 0.273,
      "velocity": 0.71,
      "hand": "right"
    },
    {
      "midi": 56,
      "time": 57.136,
      "duration": 0.273,
      "velocity": 0.71,
      "hand": "left"
    },
    {
      "midi": 65,
      "time": 57.136,
      "duration": 0.273,
      "velocity": 0.71,
      "hand": "right"
    },
    {
      "midi": 45,
      "time": 57.409,
      "duration": 0.273,
      "velocity": 0.71,
      "hand": "left"
    },
    {
      "midi": 55,
      "time": 57.409,
      "duration": 0.273,
      "velocity": 0.71,
      "hand": "left"
    },
    {
      "midi": 63,
      "time": 57.409,
      "duration": 0.273,
      "velocity": 0.71,
      "hand": "right"
    },
    {
      "midi": 47,
      "time": 57.682,
      "duration": 0.273,
      "velocity": 0.71,
      "hand": "left"
    },
    {
      "midi": 53,
      "time": 57.682,
      "duration": 0.273,
      "velocity": 0.71,
      "hand": "left"
    },
    {
      "midi": 62,
      "time": 57.682,
      "duration": 0.273,
      "velocity": 0.71,
      "hand": "right"
    },
    {
      "midi": 48,
      "time": 57.955,
      "duration": 0.273,
      "velocity": 0.71,
      "hand": "left"
    },
    {
      "midi": 51,
      "time": 57.955,
      "duration": 0.273,
      "velocity": 0.71,
      "hand": "left"
    },
    {
      "midi": 60,
      "time": 57.955,
      "duration": 1.091,
      "velocity": 0.71,
      "hand": "right"
    },
    {
      "midi": 46,
      "time": 58.227,
      "duration": 0.273,
      "velocity": 0.71,
      "hand": "left"
    },
    {
      "midi": 52,
      "time": 58.227,
      "duration": 0.273,
      "velocity": 0.71,
      "hand": "left"
    },
    {
      "midi": 45,
      "time": 58.5,
      "duration": 0.273,
      "velocity": 0.71,
      "hand": "left"
    },
    {
      "midi": 53,
      "time": 58.5,
      "duration": 0.273,
      "velocity": 0.71,
      "hand": "left"
    },
    {
      "midi": 44,
      "time": 58.773,
      "duration": 0.273,
      "velocity": 0.71,
      "hand": "left"
    },
    {
      "midi": 54,
      "time": 58.773,
      "duration": 0.273,
      "velocity": 0.71,
      "hand": "left"
    },
    {
      "midi": 43,
      "time": 59.045,
      "duration": 0.273,
      "velocity": 0.71,
      "hand": "left"
    },
    {
      "midi": 55,
      "time": 59.045,
      "duration": 1.091,
      "velocity": 0.71,
      "hand": "left"
    },
    {
      "midi": 59,
      "time": 59.045,
      "duration": 0.545,
      "velocity": 0.71,
      "hand": "left"
    },
    {
      "midi": 50,
      "time": 59.318,
      "duration": 0.273,
      "velocity": 0.71,
      "hand": "left"
    },
    {
      "midi": 53,
      "time": 59.591,
      "duration": 0.273,
      "velocity": 0.71,
      "hand": "left"
    },
    {
      "midi": 51,
      "time": 59.864,
      "duration": 0.273,
      "velocity": 0.71,
      "hand": "left"
    },
    {
      "midi": 60,
      "time": 60,
      "duration": 0.136,
      "velocity": 0.71,
      "hand": "right"
    },
    {
      "midi": 50,
      "time": 60.136,
      "duration": 0.273,
      "velocity": 0.71,
      "hand": "left"
    },
    {
      "midi": 59,
      "time": 60.136,
      "duration": 0.273,
      "velocity": 0.71,
      "hand": "left"
    },
    {
      "midi": 67,
      "time": 60.136,
      "duration": 0.545,
      "velocity": 0.71,
      "hand": "right"
    },
    {
      "midi": 47,
      "time": 60.409,
      "duration": 0.273,
      "velocity": 0.71,
      "hand": "left"
    },
    {
      "midi": 62,
      "time": 60.409,
      "duration": 0.273,
      "velocity": 0.71,
      "hand": "right"
    },
    {
      "midi": 48,
      "time": 60.682,
      "duration": 0.273,
      "velocity": 0.71,
      "hand": "left"
    },
    {
      "midi": 63,
      "time": 60.682,
      "duration": 0.273,
      "velocity": 0.71,
      "hand": "right"
    },
    {
      "midi": 67,
      "time": 60.682,
      "duration": 0.545,
      "velocity": 0.71,
      "hand": "right"
    },
    {
      "midi": 45,
      "time": 60.955,
      "duration": 0.273,
      "velocity": 0.71,
      "hand": "left"
    },
    {
      "midi": 60,
      "time": 60.955,
      "duration": 0.273,
      "velocity": 0.71,
      "hand": "right"
    },
    {
      "midi": 50,
      "time": 61.227,
      "duration": 0.273,
      "velocity": 0.71,
      "hand": "left"
    },
    {
      "midi": 62,
      "time": 61.227,
      "duration": 1.091,
      "velocity": 0.71,
      "hand": "right"
    },
    {
      "midi": 66,
      "time": 61.227,
      "duration": 0.545,
      "velocity": 0.71,
      "hand": "right"
    },
    {
      "midi": 57,
      "time": 61.5,
      "duration": 0.273,
      "velocity": 0.71,
      "hand": "left"
    },
    {
      "midi": 60,
      "time": 61.773,
      "duration": 0.273,
      "velocity": 0.71,
      "hand": "right"
    },
    {
      "midi": 58,
      "time": 62.045,
      "duration": 0.273,
      "velocity": 0.71,
      "hand": "left"
    },
    {
      "midi": 67,
      "time": 62.182,
      "duration": 0.136,
      "velocity": 0.71,
      "hand": "right"
    },
    {
      "midi": 57,
      "time": 62.318,
      "duration": 0.273,
      "velocity": 0.71,
      "hand": "left"
    },
    {
      "midi": 66,
      "time": 62.318,
      "duration": 0.273,
      "velocity": 0.71,
      "hand": "right"
    },
    {
      "midi": 72,
      "time": 62.318,
      "duration": 0.545,
      "velocity": 0.71,
      "hand": "right"
    },
    {
      "midi": 55,
      "time": 62.591,
      "duration": 0.273,
      "velocity": 0.71,
      "hand": "left"
    },
    {
      "midi": 67,
      "time": 62.591,
      "duration": 0.273,
      "velocity": 0.71,
      "hand": "right"
    },
    {
      "midi": 54,
      "time": 62.864,
      "duration": 0.273,
      "velocity": 0.71,
      "hand": "left"
    },
    {
      "midi": 69,
      "time": 62.864,
      "duration": 0.273,
      "velocity": 0.71,
      "hand": "right"
    },
    {
      "midi": 72,
      "time": 62.864,
      "duration": 0.545,
      "velocity": 0.71,
      "hand": "right"
    },
    {
      "midi": 50,
      "time": 63.136,
      "duration": 0.273,
      "velocity": 0.71,
      "hand": "left"
    },
    {
      "midi": 66,
      "time": 63.136,
      "duration": 0.273,
      "velocity": 0.71,
      "hand": "right"
    },
    {
      "midi": 55,
      "time": 63.409,
      "duration": 0.273,
      "velocity": 0.71,
      "hand": "left"
    },
    {
      "midi": 67,
      "time": 63.409,
      "duration": 1.091,
      "velocity": 0.71,
      "hand": "right"
    },
    {
      "midi": 70,
      "time": 63.409,
      "duration": 0.545,
      "velocity": 0.71,
      "hand": "right"
    },
    {
      "midi": 62,
      "time": 63.682,
      "duration": 0.273,
      "velocity": 0.71,
      "hand": "right"
    },
    {
      "midi": 67,
      "time": 63.955,
      "duration": 0.273,
      "velocity": 0.71,
      "hand": "right"
    },
    {
      "midi": 65,
      "time": 64.227,
      "duration": 0.273,
      "velocity": 0.71,
      "hand": "right"
    },
    {
      "midi": 74,
      "time": 64.364,
      "duration": 0.136,
      "velocity": 0.71,
      "hand": "right"
    },
    {
      "midi": 63,
      "time": 64.5,
      "duration": 0.273,
      "velocity": 0.71,
      "hand": "right"
    },
    {
      "midi": 79,
      "time": 64.5,
      "duration": 0.273,
      "velocity": 0.71,
      "hand": "right"
    },
    {
      "midi": 62,
      "time": 64.773,
      "duration": 0.273,
      "velocity": 0.71,
      "hand": "right"
    },
    {
      "midi": 77,
      "time": 64.773,
      "duration": 0.273,
      "velocity": 0.71,
      "hand": "right"
    },
    {
      "midi": 60,
      "time": 65.045,
      "duration": 0.273,
      "velocity": 0.71,
      "hand": "right"
    },
    {
      "midi": 75,
      "time": 65.045,
      "duration": 0.273,
      "velocity": 0.71,
      "hand": "right"
    },
    {
      "midi": 58,
      "time": 65.318,
      "duration": 0.273,
      "velocity": 0.71,
      "hand": "left"
    },
    {
      "midi": 74,
      "time": 65.318,
      "duration": 0.273,
      "velocity": 0.71,
      "hand": "right"
    },
    {
      "midi": 57,
      "time": 65.591,
      "duration": 0.273,
      "velocity": 0.71,
      "hand": "left"
    },
    {
      "midi": 66,
      "time": 65.591,
      "duration": 0.273,
      "velocity": 0.71,
      "hand": "right"
    },
    {
      "midi": 72,
      "time": 65.591,
      "duration": 0.273,
      "velocity": 0.71,
      "hand": "right"
    },
    {
      "midi": 55,
      "time": 65.864,
      "duration": 0.273,
      "velocity": 0.71,
      "hand": "left"
    },
    {
      "midi": 67,
      "time": 65.864,
      "duration": 0.273,
      "velocity": 0.71,
      "hand": "right"
    },
    {
      "midi": 70,
      "time": 65.864,
      "duration": 0.273,
      "velocity": 0.71,
      "hand": "right"
    },
    {
      "midi": 48,
      "time": 66.136,
      "duration": 0.273,
      "velocity": 0.71,
      "hand": "left"
    },
    {
      "midi": 63,
      "time": 66.136,
      "duration": 0.273,
      "velocity": 0.71,
      "hand": "right"
    },
    {
      "midi": 69,
      "time": 66.136,
      "duration": 0.273,
      "velocity": 0.71,
      "hand": "right"
    },
    {
      "midi": 51,
      "time": 66.409,
      "duration": 0.273,
      "velocity": 0.71,
      "hand": "left"
    },
    {
      "midi": 60,
      "time": 66.409,
      "duration": 0.273,
      "velocity": 0.71,
      "hand": "right"
    },
    {
      "midi": 67,
      "time": 66.409,
      "duration": 0.273,
      "velocity": 0.71,
      "hand": "right"
    },
    {
      "midi": 50,
      "time": 66.682,
      "duration": 0.273,
      "velocity": 0.71,
      "hand": "left"
    },
    {
      "midi": 57,
      "time": 66.682,
      "duration": 0.545,
      "velocity": 0.71,
      "hand": "left"
    },
    {
      "midi": 66,
      "time": 66.682,
      "duration": 0.273,
      "velocity": 0.71,
      "hand": "right"
    },
    {
      "midi": 48,
      "time": 66.955,
      "duration": 0.273,
      "velocity": 0.71,
      "hand": "left"
    },
    {
      "midi": 63,
      "time": 66.955,
      "duration": 0.273,
      "velocity": 0.71,
      "hand": "right"
    },
    {
      "midi": 46,
      "time": 67.227,
      "duration": 0.273,
      "velocity": 0.71,
      "hand": "left"
    },
    {
      "midi": 54,
      "time": 67.227,
      "duration": 0.545,
      "velocity": 0.71,
      "hand": "left"
    },
    {
      "midi": 62,
      "time": 67.227,
      "duration": 0.273,
      "velocity": 0.71,
      "hand": "right"
    },
    {
      "midi": 45,
      "time": 67.5,
      "duration": 0.273,
      "velocity": 0.71,
      "hand": "left"
    },
    {
      "midi": 60,
      "time": 67.5,
      "duration": 0.273,
      "velocity": 0.71,
      "hand": "right"
    },
    {
      "midi": 43,
      "time": 67.773,
      "duration": 0.545,
      "velocity": 0.71,
      "hand": "left"
    },
    {
      "midi": 55,
      "time": 67.773,
      "duration": 0.545,
      "velocity": 0.71,
      "hand": "left"
    },
    {
      "midi": 58,
      "time": 67.773,
      "duration": 0.273,
      "velocity": 0.71,
      "hand": "left"
    },
    {
      "midi": 62,
      "time": 68.045,
      "duration": 0.273,
      "velocity": 0.71,
      "hand": "right"
    },
    {
      "midi": 67,
      "time": 68.318,
      "duration": 0.273,
      "velocity": 0.71,
      "hand": "right"
    },
    {
      "midi": 70,
      "time": 68.591,
      "duration": 0.273,
      "velocity": 0.71,
      "hand": "right"
    },
    {
      "midi": 55,
      "time": 68.727,
      "duration": 0.136,
      "velocity": 0.71,
      "hand": "left"
    },
    {
      "midi": 62,
      "time": 68.727,
      "duration": 0.136,
      "velocity": 0.71,
      "hand": "right"
    },
    {
      "midi": 48,
      "time": 68.864,
      "duration": 0.545,
      "velocity": 0.71,
      "hand": "left"
    },
    {
      "midi": 63,
      "time": 68.864,
      "duration": 0.545,
      "velocity": 0.71,
      "hand": "right"
    },
    {
      "midi": 68,
      "time": 68.864,
      "duration": 0.273,
      "velocity": 0.71,
      "hand": "right"
    },
    {
      "midi": 72,
      "time": 69.136,
      "duration": 0.273,
      "velocity": 0.71,
      "hand": "right"
    },
    {
      "midi": 50,
      "time": 69.409,
      "duration": 0.273,
      "velocity": 0.71,
      "hand": "left"
    },
    {
      "midi": 65,
      "time": 69.409,
      "duration": 0.545,
      "velocity": 0.71,
      "hand": "right"
    },
    {
      "midi": 70,
      "time": 69.409,
      "duration": 0.273,
      "velocity": 0.71,
      "hand": "right"
    },
    {
      "midi": 68,
      "time": 69.682,
      "duration": 0.273,
      "velocity": 0.71,
      "hand": "right"
    },
    {
      "midi": 46,
      "time": 69.818,
      "duration": 0.136,
      "velocity": 0.71,
      "hand": "left"
    },
    {
      "midi": 51,
      "time": 69.955,
      "duration": 0.545,
      "velocity": 0.71,
      "hand": "left"
    },
    {
      "midi": 63,
      "time": 69.955,
      "duration": 0.273,
      "velocity": 0.71,
      "hand": "right"
    },
    {
      "midi": 67,
      "time": 69.955,
      "duration": 0.273,
      "velocity": 0.71,
      "hand": "right"
    },
    {
      "midi": 62,
      "time": 70.227,
      "duration": 0.273,
      "velocity": 0.71,
      "hand": "right"
    },
    {
      "midi": 65,
      "time": 70.227,
      "duration": 0.273,
      "velocity": 0.71,
      "hand": "right"
    },
    {
      "midi": 51,
      "time": 70.5,
      "duration": 0.545,
      "velocity": 0.71,
      "hand": "left"
    },
    {
      "midi": 60,
      "time": 70.5,
      "duration": 0.273,
      "velocity": 0.71,
      "hand": "right"
    },
    {
      "midi": 67,
      "time": 70.5,
      "duration": 0.273,
      "velocity": 0.71,
      "hand": "right"
    },
    {
      "midi": 65,
      "time": 70.773,
      "duration": 0.273,
      "velocity": 0.71,
      "hand": "right"
    },
    {
      "midi": 69,
      "time": 70.773,
      "duration": 0.273,
      "velocity": 0.71,
      "hand": "right"
    },
    {
      "midi": 50,
      "time": 71.045,
      "duration": 0.545,
      "velocity": 0.71,
      "hand": "left"
    },
    {
      "midi": 58,
      "time": 71.045,
      "duration": 0.273,
      "velocity": 0.71,
      "hand": "left"
    },
    {
      "midi": 70,
      "time": 71.045,
      "duration": 1.091,
      "velocity": 0.71,
      "hand": "right"
    },
    {
      "midi": 65,
      "time": 71.318,
      "duration": 0.273,
      "velocity": 0.71,
      "hand": "right"
    },
    {
      "midi": 68,
      "time": 71.591,
      "duration": 0.273,
      "velocity": 0.71,
      "hand": "right"
    },
    {
      "midi": 67,
      "time": 71.864,
      "duration": 0.273,
      "velocity": 0.71,
      "hand": "right"
    },
    {
      "midi": 51,
      "time": 72,
      "duration": 0.136,
      "velocity": 0.71,
      "hand": "left"
    },
    {
      "midi": 56,
      "time": 72.136,
      "duration": 0.545,
      "velocity": 0.71,
      "hand": "left"
    },
    {
      "midi": 65,
      "time": 72.136,
      "duration": 0.273,
      "velocity": 0.71,
      "hand": "right"
    },
    {
      "midi": 72,
      "time": 72.136,
      "duration": 0.545,
      "velocity": 0.71,
      "hand": "right"
    },
    {
      "midi": 63,
      "time": 72.409,
      "duration": 0.273,
      "velocity": 0.71,
      "hand": "right"
    },
    {
      "midi": 56,
      "time": 72.682,
      "duration": 0.545,
      "velocity": 0.71,
      "hand": "left"
    },
    {
      "midi": 62,
      "time": 72.682,
      "duration": 0.273,
      "velocity": 0.71,
      "hand": "right"
    },
    {
      "midi": 70,
      "time": 72.682,
      "duration": 0.818,
      "velocity": 0.71,
      "hand": "right"
    },
    {
      "midi": 65,
      "time": 72.955,
      "duration": 0.273,
      "velocity": 0.71,
      "hand": "right"
    },
    {
      "midi": 55,
      "time": 73.227,
      "duration": 0.545,
      "velocity": 0.71,
      "hand": "left"
    },
    {
      "midi": 63,
      "time": 73.227,
      "duration": 0.273,
      "velocity": 0.71,
      "hand": "right"
    },
    {
      "midi": 70,
      "time": 73.5,
      "duration": 0.273,
      "velocity": 0.71,
      "hand": "right"
    },
    {
      "midi": 75,
      "time": 73.773,
      "duration": 0.273,
      "velocity": 0.71,
      "hand": "right"
    },
    {
      "midi": 79,
      "time": 73.773,
      "duration": 0.273,
      "velocity": 0.71,
      "hand": "right"
    },
    {
      "midi": 74,
      "time": 74.045,
      "duration": 0.273,
      "velocity": 0.71,
      "hand": "right"
    },
    {
      "midi": 77,
      "time": 74.045,
      "duration": 0.273,
      "velocity": 0.71,
      "hand": "right"
    },
    {
      "midi": 58,
      "time": 74.182,
      "duration": 0.136,
      "velocity": 0.71,
      "hand": "left"
    },
    {
      "midi": 63,
      "time": 74.318,
      "duration": 0.273,
      "velocity": 0.71,
      "hand": "right"
    },
    {
      "midi": 72,
      "time": 74.318,
      "duration": 0.273,
      "velocity": 0.71,
      "hand": "right"
    },
    {
      "midi": 75,
      "time": 74.318,
      "duration": 1.091,
      "velocity": 0.71,
      "hand": "right"
    },
    {
      "midi": 62,
      "time": 74.591,
      "duration": 0.273,
      "velocity": 0.71,
      "hand": "right"
    },
    {
      "midi": 70,
      "time": 74.591,
      "duration": 0.273,
      "velocity": 0.71,
      "hand": "right"
    },
    {
      "midi": 60,
      "time": 74.864,
      "duration": 0.273,
      "velocity": 0.71,
      "hand": "right"
    },
    {
      "midi": 68,
      "time": 74.864,
      "duration": 0.273,
      "velocity": 0.71,
      "hand": "right"
    },
    {
      "midi": 58,
      "time": 75.136,
      "duration": 0.273,
      "velocity": 0.71,
      "hand": "left"
    },
    {
      "midi": 67,
      "time": 75.136,
      "duration": 0.273,
      "velocity": 0.71,
      "hand": "right"
    },
    {
      "midi": 56,
      "time": 75.409,
      "duration": 0.273,
      "velocity": 0.71,
      "hand": "left"
    },
    {
      "midi": 65,
      "time": 75.409,
      "duration": 0.545,
      "velocity": 0.71,
      "hand": "right"
    },
    {
      "midi": 77,
      "time": 75.409,
      "duration": 0.273,
      "velocity": 0.71,
      "hand": "right"
    },
    {
      "midi": 55,
      "time": 75.682,
      "duration": 0.273,
      "velocity": 0.71,
      "hand": "left"
    },
    {
      "midi": 75,
      "time": 75.682,
      "duration": 0.273,
      "velocity": 0.71,
      "hand": "right"
    },
    {
      "midi": 53,
      "time": 75.955,
      "duration": 0.273,
      "velocity": 0.71,
      "hand": "left"
    },
    {
      "midi": 68,
      "time": 75.955,
      "duration": 1.091,
      "velocity": 0.71,
      "hand": "right"
    },
    {
      "midi": 74,
      "time": 75.955,
      "duration": 0.273,
      "velocity": 0.71,
      "hand": "right"
    },
    {
      "midi": 51,
      "time": 76.227,
      "duration": 0.273,
      "velocity": 0.71,
      "hand": "left"
    },
    {
      "midi": 72,
      "time": 76.227,
      "duration": 0.273,
      "velocity": 0.71,
      "hand": "right"
    },
    {
      "midi": 50,
      "time": 76.5,
      "duration": 0.273,
      "velocity": 0.71,
      "hand": "left"
    },
    {
      "midi": 70,
      "time": 76.5,
      "duration": 0.545,
      "velocity": 0.71,
      "hand": "right"
    },
    {
      "midi": 48,
      "time": 76.773,
      "duration": 0.273,
      "velocity": 0.71,
      "hand": "left"
    },
    {
      "midi": 46,
      "time": 77.045,
      "duration": 0.273,
      "velocity": 0.71,
      "hand": "left"
    },
    {
      "midi": 67,
      "time": 77.045,
      "duration": 0.273,
      "velocity": 0.71,
      "hand": "right"
    },
    {
      "midi": 74,
      "time": 77.045,
      "duration": 0.545,
      "velocity": 0.71,
      "hand": "right"
    },
    {
      "midi": 44,
      "time": 77.318,
      "duration": 0.273,
      "velocity": 0.71,
      "hand": "left"
    },
    {
      "midi": 65,
      "time": 77.318,
      "duration": 0.273,
      "velocity": 0.71,
      "hand": "right"
    },
    {
      "midi": 43,
      "time": 77.591,
      "duration": 0.273,
      "velocity": 0.71,
      "hand": "left"
    },
    {
      "midi": 63,
      "time": 77.591,
      "duration": 0.545,
      "velocity": 0.71,
      "hand": "right"
    },
    {
      "midi": 75,
      "time": 77.591,
      "duration": 0.273,
      "velocity": 0.71,
      "hand": "right"
    },
    {
      "midi": 46,
      "time": 77.864,
      "duration": 0.273,
      "velocity": 0.71,
      "hand": "left"
    },
    {
      "midi": 73,
      "time": 77.864,
      "duration": 0.273,
      "velocity": 0.71,
      "hand": "right"
    },
    {
      "midi": 48,
      "time": 78.136,
      "duration": 0.273,
      "velocity": 0.71,
      "hand": "left"
    },
    {
      "midi": 72,
      "time": 78.136,
      "duration": 0.273,
      "velocity": 0.71,
      "hand": "right"
    },
    {
      "midi": 49,
      "time": 78.409,
      "duration": 0.273,
      "velocity": 0.71,
      "hand": "left"
    },
    {
      "midi": 70,
      "time": 78.409,
      "duration": 0.273,
      "velocity": 0.71,
      "hand": "right"
    },
    {
      "midi": 51,
      "time": 78.545,
      "duration": 0.136,
      "velocity": 0.71,
      "hand": "left"
    },
    {
      "midi": 48,
      "time": 78.682,
      "duration": 0.273,
      "velocity": 0.71,
      "hand": "left"
    },
    {
      "midi": 56,
      "time": 78.682,
      "duration": 0.545,
      "velocity": 0.71,
      "hand": "left"
    },
    {
      "midi": 68,
      "time": 78.682,
      "duration": 0.545,
      "velocity": 0.71,
      "hand": "right"
    },
    {
      "midi": 41,
      "time": 78.955,
      "duration": 0.273,
      "velocity": 0.71,
      "hand": "left"
    },
    {
      "midi": 50,
      "time": 79.227,
      "duration": 0.273,
      "velocity": 0.71,
      "hand": "left"
    },
    {
      "midi": 56,
      "time": 79.227,
      "duration": 0.545,
      "velocity": 0.71,
      "hand": "left"
    },
    {
      "midi": 70,
      "time": 79.227,
      "duration": 0.818,
      "velocity": 0.71,
      "hand": "right"
    },
    {
      "midi": 46,
      "time": 79.5,
      "duration": 0.273,
      "velocity": 0.71,
      "hand": "left"
    },
    {
      "midi": 51,
      "time": 79.773,
      "duration": 0.273,
      "velocity": 0.71,
      "hand": "left"
    },
    {
      "midi": 55,
      "time": 79.773,
      "duration": 0.545,
      "velocity": 0.71,
      "hand": "left"
    },
    {
      "midi": 46,
      "time": 80.045,
      "duration": 0.273,
      "velocity": 0.71,
      "hand": "left"
    },
    {
      "midi": 61,
      "time": 80.045,
      "duration": 0.273,
      "velocity": 0.71,
      "hand": "right"
    },
    {
      "midi": 49,
      "time": 80.318,
      "duration": 0.273,
      "velocity": 0.71,
      "hand": "left"
    },
    {
      "midi": 65,
      "time": 80.318,
      "duration": 0.273,
      "velocity": 0.71,
      "hand": "right"
    },
    {
      "midi": 48,
      "time": 80.591,
      "duration": 0.273,
      "velocity": 0.71,
      "hand": "left"
    },
    {
      "midi": 63,
      "time": 80.591,
      "duration": 0.273,
      "velocity": 0.71,
      "hand": "right"
    },
    {
      "midi": 56,
      "time": 80.727,
      "duration": 0.136,
      "velocity": 0.71,
      "hand": "left"
    },
    {
      "midi": 46,
      "time": 80.864,
      "duration": 0.273,
      "velocity": 0.71,
      "hand": "left"
    },
    {
      "midi": 61,
      "time": 80.864,
      "duration": 0.545,
      "velocity": 0.71,
      "hand": "right"
    },
    {
      "midi": 44,
      "time": 81.136,
      "duration": 0.273,
      "velocity": 0.71,
      "hand": "left"
    },
    {
      "midi": 65,
      "time": 81.136,
      "duration": 0.273,
      "velocity": 0.71,
      "hand": "right"
    },
    {
      "midi": 43,
      "time": 81.409,
      "duration": 0.273,
      "velocity": 0.71,
      "hand": "left"
    },
    {
      "midi": 61,
      "time": 81.409,
      "duration": 0.545,
      "velocity": 0.71,
      "hand": "right"
    },
    {
      "midi": 70,
      "time": 81.409,
      "duration": 0.273,
      "velocity": 0.71,
      "hand": "right"
    },
    {
      "midi": 39,
      "time": 81.682,
      "duration": 0.273,
      "velocity": 0.71,
      "hand": "left"
    },
    {
      "midi": 67,
      "time": 81.682,
      "duration": 0.273,
      "velocity": 0.71,
      "hand": "right"
    },
    {
      "midi": 44,
      "time": 81.955,
      "duration": 0.273,
      "velocity": 0.71,
      "hand": "left"
    },
    {
      "midi": 60,
      "time": 81.955,
      "duration": 0.545,
      "velocity": 0.71,
      "hand": "right"
    },
    {
      "midi": 63,
      "time": 81.955,
      "duration": 0.545,
      "velocity": 0.71,
      "hand": "right"
    },
    {
      "midi": 51,
      "time": 82.227,
      "duration": 0.273,
      "velocity": 0.71,
      "hand": "left"
    },
    {
      "midi": 56,
      "time": 82.5,
      "duration": 0.273,
      "velocity": 0.71,
      "hand": "left"
    },
    {
      "midi": 72,
      "time": 82.5,
      "duration": 1.091,
      "velocity": 0.71,
      "hand": "right"
    },
    {
      "midi": 55,
      "time": 82.773,
      "duration": 0.273,
      "velocity": 0.71,
      "hand": "left"
    },
    {
      "midi": 63,
      "time": 82.909,
      "duration": 0.136,
      "velocity": 0.71,
      "hand": "right"
    },
    {
      "midi": 53,
      "time": 83.045,
      "duration": 0.273,
      "velocity": 0.71,
      "hand": "left"
    },
    {
      "midi": 68,
      "time": 83.045,
      "duration": 0.273,
      "velocity": 0.71,
      "hand": "right"
    },
    {
      "midi": 51,
      "time": 83.318,
      "duration": 0.273,
      "velocity": 0.71,
      "hand": "left"
    },
    {
      "midi": 67,
      "time": 83.318,
      "duration": 0.273,
      "velocity": 0.71,
      "hand": "right"
    },
    {
      "midi": 49,
      "time": 83.591,
      "duration": 0.273,
      "velocity": 0.71,
      "hand": "left"
    },
    {
      "midi": 65,
      "time": 83.591,
      "duration": 0.273,
      "velocity": 0.71,
      "hand": "right"
    },
    {
      "midi": 70,
      "time": 83.591,
      "duration": 0.273,
      "velocity": 0.71,
      "hand": "right"
    },
    {
      "midi": 48,
      "time": 83.864,
      "duration": 0.273,
      "velocity": 0.71,
      "hand": "left"
    },
    {
      "midi": 63,
      "time": 83.864,
      "duration": 0.273,
      "velocity": 0.71,
      "hand": "right"
    },
    {
      "midi": 72,
      "time": 83.864,
      "duration": 0.273,
      "velocity": 0.71,
      "hand": "right"
    },
    {
      "midi": 46,
      "time": 84.136,
      "duration": 0.273,
      "velocity": 0.71,
      "hand": "left"
    },
    {
      "midi": 61,
      "time": 84.136,
      "duration": 0.273,
      "velocity": 0.71,
      "hand": "right"
    },
    {
      "midi": 73,
      "time": 84.136,
      "duration": 0.273,
      "velocity": 0.71,
      "hand": "right"
    },
    {
      "midi": 48,
      "time": 84.409,
      "duration": 0.273,
      "velocity": 0.71,
      "hand": "left"
    },
    {
      "midi": 60,
      "time": 84.409,
      "duration": 0.273,
      "velocity": 0.71,
      "hand": "right"
    },
    {
      "midi": 75,
      "time": 84.409,
      "duration": 0.273,
      "velocity": 0.71,
      "hand": "right"
    },
    {
      "midi": 49,
      "time": 84.682,
      "duration": 0.273,
      "velocity": 0.71,
      "hand": "left"
    },
    {
      "midi": 58,
      "time": 84.682,
      "duration": 0.273,
      "velocity": 0.71,
      "hand": "left"
    },
    {
      "midi": 77,
      "time": 84.682,
      "duration": 0.818,
      "velocity": 0.71,
      "hand": "right"
    },
    {
      "midi": 50,
      "time": 84.955,
      "duration": 0.273,
      "velocity": 0.71,
      "hand": "left"
    },
    {
      "midi": 56,
      "time": 84.955,
      "duration": 0.273,
      "velocity": 0.71,
      "hand": "left"
    },
    {
      "midi": 51,
      "time": 85.227,
      "duration": 0.545,
      "velocity": 0.71,
      "hand": "left"
    },
    {
      "midi": 55,
      "time": 85.227,
      "duration": 0.273,
      "velocity": 0.71,
      "hand": "left"
    },
    {
      "midi": 53,
      "time": 85.5,
      "duration": 0.273,
      "velocity": 0.71,
      "hand": "left"
    },
    {
      "midi": 70,
      "time": 85.5,
      "duration": 0.273,
      "velocity": 0.71,
      "hand": "right"
    },
    {
      "midi": 43,
      "time": 85.773,
      "duration": 0.545,
      "velocity": 0.71,
      "hand": "left"
    },
    {
      "midi": 51,
      "time": 85.773,
      "duration": 0.273,
      "velocity": 0.71,
      "hand": "left"
    },
    {
      "midi": 75,
      "time": 85.773,
      "duration": 0.818,
      "velocity": 0.71,
      "hand": "right"
    },
    {
      "midi": 49,
      "time": 86.045,
      "duration": 0.273,
      "velocity": 0.71,
      "hand": "left"
    },
    {
      "midi": 44,
      "time": 86.318,
      "duration": 0.545,
      "velocity": 0.71,
      "hand": "left"
    },
    {
      "midi": 48,
      "time": 86.318,
      "duration": 0.273,
      "velocity": 0.71,
      "hand": "left"
    },
    {
      "midi": 51,
      "time": 86.591,
      "duration": 0.273,
      "velocity": 0.71,
      "hand": "left"
    },
    {
      "midi": 72,
      "time": 86.591,
      "duration": 0.273,
      "velocity": 0.71,
      "hand": "right"
    },
    {
      "midi": 56,
      "time": 86.864,
      "duration": 0.273,
      "velocity": 0.71,
      "hand": "left"
    },
    {
      "midi": 60,
      "time": 87.136,
      "duration": 0.273,
      "velocity": 0.71,
      "hand": "right"
    },
    {
      "midi": 56,
      "time": 87.273,
      "duration": 0.136,
      "velocity": 0.71,
      "hand": "left"
    },
    {
      "midi": 75,
      "time": 87.273,
      "duration": 0.136,
      "velocity": 0.71,
      "hand": "right"
    },
    {
      "midi": 53,
      "time": 87.409,
      "duration": 0.545,
      "velocity": 0.71,
      "hand": "left"
    },
    {
      "midi": 61,
      "time": 87.409,
      "duration": 0.273,
      "velocity": 0.71,
      "hand": "right"
    },
    {
      "midi": 77,
      "time": 87.409,
      "duration": 0.545,
      "velocity": 0.71,
      "hand": "right"
    },
    {
      "midi": 65,
      "time": 87.682,
      "duration": 0.273,
      "velocity": 0.71,
      "hand": "right"
    },
    {
      "midi": 55,
      "time": 87.955,
      "duration": 0.545,
      "velocity": 0.71,
      "hand": "left"
    },
    {
      "midi": 63,
      "time": 87.955,
      "duration": 0.273,
      "velocity": 0.71,
      "hand": "right"
    },
    {
      "midi": 70,
      "time": 87.955,
      "duration": 0.545,
      "velocity": 0.71,
      "hand": "right"
    },
    {
      "midi": 61,
      "time": 88.227,
      "duration": 0.273,
      "velocity": 0.71,
      "hand": "right"
    },
    {
      "midi": 56,
      "time": 88.5,
      "duration": 0.545,
      "velocity": 0.71,
      "hand": "left"
    },
    {
      "midi": 60,
      "time": 88.5,
      "duration": 0.273,
      "velocity": 0.71,
      "hand": "right"
    },
    {
      "midi": 72,
      "time": 88.5,
      "duration": 0.545,
      "velocity": 0.71,
      "hand": "right"
    },
    {
      "midi": 62,
      "time": 88.773,
      "duration": 0.273,
      "velocity": 0.71,
      "hand": "right"
    },
    {
      "midi": 63,
      "time": 89.045,
      "duration": 0.273,
      "velocity": 0.71,
      "hand": "right"
    },
    {
      "midi": 67,
      "time": 89.318,
      "duration": 0.273,
      "velocity": 0.71,
      "hand": "right"
    },
    {
      "midi": 55,
      "time": 89.455,
      "duration": 0.136,
      "velocity": 0.71,
      "hand": "left"
    },
    {
      "midi": 70,
      "time": 89.455,
      "duration": 0.136,
      "velocity": 0.71,
      "hand": "right"
    },
    {
      "midi": 53,
      "time": 89.591,
      "duration": 0.545,
      "velocity": 0.71,
      "hand": "left"
    },
    {
      "midi": 68,
      "time": 89.591,
      "duration": 0.273,
      "velocity": 0.71,
      "hand": "right"
    },
    {
      "midi": 72,
      "time": 89.591,
      "duration": 0.273,
      "velocity": 0.71,
      "hand": "right"
    },
    {
      "midi": 72,
      "time": 89.864,
      "duration": 0.273,
      "velocity": 0.71,
      "hand": "right"
    },
    {
      "midi": 58,
      "time": 90.136,
      "duration": 0.545,
      "velocity": 0.71,
      "hand": "left"
    },
    {
      "midi": 70,
      "time": 90.136,
      "duration": 0.273,
      "velocity": 0.71,
      "hand": "right"
    },
    {
      "midi": 74,
      "time": 90.136,
      "duration": 0.545,
      "velocity": 0.71,
      "hand": "right"
    },
    {
      "midi": 68,
      "time": 90.409,
      "duration": 0.273,
      "velocity": 0.71,
      "hand": "right"
    },
    {
      "midi": 51,
      "time": 90.682,
      "duration": 0.545,
      "velocity": 0.71,
      "hand": "left"
    },
    {
      "midi": 67,
      "time": 90.682,
      "duration": 0.545,
      "velocity": 0.71,
      "hand": "right"
    },
    {
      "midi": 75,
      "time": 90.682,
      "duration": 0.273,
      "velocity": 0.71,
      "hand": "right"
    },
    {
      "midi": 70,
      "time": 90.955,
      "duration": 0.273,
      "velocity": 0.71,
      "hand": "right"
    },
    {
      "midi": 72,
      "time": 91.227,
      "duration": 0.273,
      "velocity": 0.71,
      "hand": "right"
    },
    {
      "midi": 74,
      "time": 91.5,
      "duration": 0.273,
      "velocity": 0.71,
      "hand": "right"
    },
    {
      "midi": 50,
      "time": 91.636,
      "duration": 0.136,
      "velocity": 0.71,
      "hand": "left"
    },
    {
      "midi": 65,
      "time": 91.636,
      "duration": 0.136,
      "velocity": 0.71,
      "hand": "right"
    },
    {
      "midi": 48,
      "time": 91.773,
      "duration": 0.545,
      "velocity": 0.71,
      "hand": "left"
    },
    {
      "midi": 67,
      "time": 91.773,
      "duration": 0.545,
      "velocity": 0.71,
      "hand": "right"
    },
    {
      "midi": 75,
      "time": 91.773,
      "duration": 0.273,
      "velocity": 0.71,
      "hand": "right"
    },
    {
      "midi": 79,
      "time": 92.045,
      "duration": 0.273,
      "velocity": 0.71,
      "hand": "right"
    },
    {
      "midi": 53,
      "time": 92.318,
      "duration": 0.545,
      "velocity": 0.71,
      "hand": "left"
    },
    {
      "midi": 69,
      "time": 92.318,
      "duration": 0.545,
      "velocity": 0.71,
      "hand": "right"
    },
    {
      "midi": 77,
      "time": 92.318,
      "duration": 0.273,
      "velocity": 0.71,
      "hand": "right"
    },
    {
      "midi": 75,
      "time": 92.591,
      "duration": 0.273,
      "velocity": 0.71,
      "hand": "right"
    },
    {
      "midi": 46,
      "time": 92.864,
      "duration": 0.545,
      "velocity": 0.71,
      "hand": "left"
    },
    {
      "midi": 70,
      "time": 92.864,
      "duration": 0.273,
      "velocity": 0.71,
      "hand": "right"
    },
    {
      "midi": 74,
      "time": 92.864,
      "duration": 0.273,
      "velocity": 0.71,
      "hand": "right"
    },
    {
      "midi": 68,
      "time": 93.136,
      "duration": 0.273,
      "velocity": 0.71,
      "hand": "right"
    },
    {
      "midi": 72,
      "time": 93.136,
      "duration": 0.273,
      "velocity": 0.71,
      "hand": "right"
    },
    {
      "midi": 67,
      "time": 93.409,
      "duration": 0.273,
      "velocity": 0.71,
      "hand": "right"
    },
    {
      "midi": 70,
      "time": 93.409,
      "duration": 0.273,
      "velocity": 0.71,
      "hand": "right"
    },
    {
      "midi": 65,
      "time": 93.682,
      "duration": 0.273,
      "velocity": 0.71,
      "hand": "right"
    },
    {
      "midi": 68,
      "time": 93.682,
      "duration": 0.273,
      "velocity": 0.71,
      "hand": "right"
    },
    {
      "midi": 46,
      "time": 93.818,
      "duration": 0.136,
      "velocity": 0.71,
      "hand": "left"
    },
    {
      "midi": 51,
      "time": 93.955,
      "duration": 0.545,
      "velocity": 0.71,
      "hand": "left"
    },
    {
      "midi": 63,
      "time": 93.955,
      "duration": 0.273,
      "velocity": 0.71,
      "hand": "right"
    },
    {
      "midi": 67,
      "time": 93.955,
      "duration": 0.545,
      "velocity": 0.71,
      "hand": "right"
    },
    {
      "midi": 58,
      "time": 94.227,
      "duration": 0.273,
      "velocity": 0.71,
      "hand": "left"
    },
    {
      "midi": 51,
      "time": 94.5,
      "duration": 0.545,
      "velocity": 0.71,
      "hand": "left"
    },
    {
      "midi": 55,
      "time": 94.5,
      "duration": 0.273,
      "velocity": 0.71,
      "hand": "left"
    },
    {
      "midi": 60,
      "time": 94.773,
      "duration": 0.273,
      "velocity": 0.71,
      "hand": "right"
    },
    {
      "midi": 63,
      "time": 94.909,
      "duration": 0.136,
      "velocity": 0.71,
      "hand": "right"
    },
    {
      "midi": 50,
      "time": 95.045,
      "duration": 0.545,
      "velocity": 0.71,
      "hand": "left"
    },
    {
      "midi": 53,
      "time": 95.045,
      "duration": 0.273,
      "velocity": 0.71,
      "hand": "left"
    },
    {
      "midi": 70,
      "time": 95.045,
      "duration": 0.545,
      "velocity": 0.71,
      "hand": "right"
    },
    {
      "midi": 65,
      "time": 95.318,
      "duration": 0.273,
      "velocity": 0.71,
      "hand": "right"
    },
    {
      "midi": 68,
      "time": 95.591,
      "duration": 0.273,
      "velocity": 0.71,
      "hand": "right"
    },
    {
      "midi": 70,
      "time": 95.591,
      "duration": 0.545,
      "velocity": 0.71,
      "hand": "right"
    },
    {
      "midi": 67,
      "time": 95.864,
      "duration": 0.273,
      "velocity": 0.71,
      "hand": "right"
    },
    {
      "midi": 51,
      "time": 96,
      "duration": 0.136,
      "velocity": 0.71,
      "hand": "left"
    },
    {
      "midi": 56,
      "time": 96.136,
      "duration": 0.545,
      "velocity": 0.71,
      "hand": "left"
    },
    {
      "midi": 65,
      "time": 96.136,
      "duration": 0.273,
      "velocity": 0.71,
      "hand": "right"
    },
    {
      "midi": 68,
      "time": 96.136,
      "duration": 0.545,
      "velocity": 0.71,
      "hand": "right"
    },
    {
      "midi": 63,
      "time": 96.409,
      "duration": 0.273,
      "velocity": 0.71,
      "hand": "right"
    },
    {
      "midi": 56,
      "time": 96.682,
      "duration": 0.545,
      "velocity": 0.71,
      "hand": "left"
    },
    {
      "midi": 62,
      "time": 96.682,
      "duration": 0.273,
      "velocity": 0.71,
      "hand": "right"
    },
    {
      "midi": 65,
      "time": 96.955,
      "duration": 0.273,
      "velocity": 0.71,
      "hand": "right"
    },
    {
      "midi": 70,
      "time": 97.091,
      "duration": 0.136,
      "velocity": 0.71,
      "hand": "right"
    },
    {
      "midi": 55,
      "time": 97.227,
      "duration": 0.545,
      "velocity": 0.71,
      "hand": "left"
    },
    {
      "midi": 58,
      "time": 97.227,
      "duration": 0.273,
      "velocity": 0.71,
      "hand": "left"
    },
    {
      "midi": 75,
      "time": 97.227,
      "duration": 0.545,
      "velocity": 0.71,
      "hand": "right"
    },
    {
      "midi": 63,
      "time": 97.5,
      "duration": 0.273,
      "velocity": 0.71,
      "hand": "right"
    },
    {
      "midi": 67,
      "time": 97.773,
      "duration": 0.273,
      "velocity": 0.71,
      "hand": "right"
    },
    {
      "midi": 75,
      "time": 97.773,
      "duration": 0.409,
      "velocity": 0.71,
      "hand": "right"
    },
    {
      "midi": 65,
      "time": 98.045,
      "duration": 0.273,
      "velocity": 0.71,
      "hand": "right"
    },
    {
      "midi": 58,
      "time": 98.182,
      "duration": 0.136,
      "velocity": 0.71,
      "hand": "left"
    },
    {
      "midi": 74,
      "time": 98.182,
      "duration": 0.136,
      "velocity": 0.71,
      "hand": "right"
    },
    {
      "midi": 63,
      "time": 98.318,
      "duration": 0.273,
      "velocity": 0.71,
      "hand": "right"
    },
    {
      "midi": 67,
      "time": 98.318,
      "duration": 0.273,
      "velocity": 0.71,
      "hand": "right"
    },
    {
      "midi": 72,
      "time": 98.318,
      "duration": 0.545,
      "velocity": 0.71,
      "hand": "right"
    },
    {
      "midi": 62,
      "time": 98.591,
      "duration": 0.273,
      "velocity": 0.71,
      "hand": "right"
    },
    {
      "midi": 65,
      "time": 98.591,
      "duration": 0.273,
      "velocity": 0.71,
      "hand": "right"
    },
    {
      "midi": 60,
      "time": 98.864,
      "duration": 0.273,
      "velocity": 0.71,
      "hand": "right"
    },
    {
      "midi": 63,
      "time": 98.864,
      "duration": 0.273,
      "velocity": 0.71,
      "hand": "right"
    },
    {
      "midi": 58,
      "time": 99.136,
      "duration": 0.273,
      "velocity": 0.71,
      "hand": "left"
    },
    {
      "midi": 67,
      "time": 99.136,
      "duration": 0.273,
      "velocity": 0.71,
      "hand": "right"
    },
    {
      "midi": 72,
      "time": 99.273,
      "duration": 0.136,
      "velocity": 0.71,
      "hand": "right"
    },
    {
      "midi": 56,
      "time": 99.409,
      "duration": 0.273,
      "velocity": 0.71,
      "hand": "left"
    },
    {
      "midi": 60,
      "time": 99.409,
      "duration": 0.545,
      "velocity": 0.71,
      "hand": "right"
    },
    {
      "midi": 77,
      "time": 99.409,
      "duration": 0.273,
      "velocity": 0.71,
      "hand": "right"
    },
    {
      "midi": 55,
      "time": 99.682,
      "duration": 0.273,
      "velocity": 0.71,
      "hand": "left"
    },
    {
      "midi": 75,
      "time": 99.682,
      "duration": 0.273,
      "velocity": 0.71,
      "hand": "right"
    },
    {
      "midi": 53,
      "time": 99.955,
      "duration": 0.273,
      "velocity": 0.71,
      "hand": "left"
    },
    {
      "midi": 62,
      "time": 99.955,
      "duration": 0.273,
      "velocity": 0.71,
      "hand": "right"
    },
    {
      "midi": 74,
      "time": 99.955,
      "duration": 0.273,
      "velocity": 0.71,
      "hand": "right"
    },
    {
      "midi": 51,
      "time": 100.227,
      "duration": 0.273,
      "velocity": 0.71,
      "hand": "left"
    },
    {
      "midi": 63,
      "time": 100.227,
      "duration": 0.273,
      "velocity": 0.71,
      "hand": "right"
    },
    {
      "midi": 72,
      "time": 100.227,
      "duration": 0.273,
      "velocity": 0.71,
      "hand": "right"
    },
    {
      "midi": 50,
      "time": 100.5,
      "duration": 0.273,
      "velocity": 0.71,
      "hand": "left"
    },
    {
      "midi": 65,
      "time": 100.5,
      "duration": 0.545,
      "velocity": 0.71,
      "hand": "right"
    },
    {
      "midi": 70,
      "time": 100.5,
      "duration": 0.273,
      "velocity": 0.71,
      "hand": "right"
    },
    {
      "midi": 48,
      "time": 100.773,
      "duration": 0.273,
      "velocity": 0.71,
      "hand": "left"
    },
    {
      "midi": 68,
      "time": 100.773,
      "duration": 0.273,
      "velocity": 0.71,
      "hand": "right"
    },
    {
      "midi": 46,
      "time": 101.045,
      "duration": 0.273,
      "velocity": 0.71,
      "hand": "left"
    },
    {
      "midi": 62,
      "time": 101.045,
      "duration": 0.545,
      "velocity": 0.71,
      "hand": "right"
    },
    {
      "midi": 67,
      "time": 101.045,
      "duration": 0.273,
      "velocity": 0.71,
      "hand": "right"
    },
    {
      "midi": 44,
      "time": 101.318,
      "duration": 0.273,
      "velocity": 0.71,
      "hand": "left"
    },
    {
      "midi": 65,
      "time": 101.318,
      "duration": 0.273,
      "velocity": 0.71,
      "hand": "right"
    },
    {
      "midi": 43,
      "time": 101.591,
      "duration": 0.545,
      "velocity": 0.71,
      "hand": "left"
    },
    {
      "midi": 58,
      "time": 101.591,
      "duration": 0.545,
      "velocity": 0.71,
      "hand": "left"
    },
    {
      "midi": 63,
      "time": 101.591,
      "duration": 0.273,
      "velocity": 0.71,
      "hand": "right"
    },
    {
      "midi": 62,
      "time": 101.864,
      "duration": 0.273,
      "velocity": 0.71,
      "hand": "right"
    },
    {
      "midi": 51,
      "time": 102.136,
      "duration": 0.545,
      "velocity": 0.71,
      "hand": "left"
    },
    {
      "midi": 55,
      "time": 102.136,
      "duration": 0.545,
      "velocity": 0.71,
      "hand": "left"
    },
    {
      "midi": 60,
      "time": 102.136,
      "duration": 0.273,
      "velocity": 0.71,
      "hand": "right"
    },
    {
      "midi": 58,
      "time": 102.409,
      "duration": 0.273,
      "velocity": 0.71,
      "hand": "left"
    },
    {
      "midi": 44,
      "time": 102.682,
      "duration": 1.364,
      "velocity": 0.71,
      "hand": "left"
    },
    {
      "midi": 56,
      "time": 102.682,
      "duration": 0.545,
      "velocity": 0.71,
      "hand": "left"
    },
    {
      "midi": 60,
      "time": 102.682,
      "duration": 0.273,
      "velocity": 0.71,
      "hand": "right"
    },
    {
      "midi": 63,
      "time": 102.955,
      "duration": 0.273,
      "velocity": 0.71,
      "hand": "right"
    },
    {
      "midi": 60,
      "time": 103.227,
      "duration": 0.818,
      "velocity": 0.71,
      "hand": "right"
    },
    {
      "midi": 68,
      "time": 103.227,
      "duration": 0.273,
      "velocity": 0.71,
      "hand": "right"
    },
    {
      "midi": 70,
      "time": 103.5,
      "duration": 0.273,
      "velocity": 0.71,
      "hand": "right"
    },
    {
      "midi": 72,
      "time": 103.773,
      "duration": 1.091,
      "velocity": 0.71,
      "hand": "right"
    },
    {
      "midi": 41,
      "time": 104.045,
      "duration": 0.273,
      "velocity": 0.71,
      "hand": "left"
    },
    {
      "midi": 68,
      "time": 104.045,
      "duration": 0.273,
      "velocity": 0.71,
      "hand": "right"
    },
    {
      "midi": 44,
      "time": 104.318,
      "duration": 0.273,
      "velocity": 0.71,
      "hand": "left"
    },
    {
      "midi": 65,
      "time": 104.318,
      "duration": 0.273,
      "velocity": 0.71,
      "hand": "right"
    },
    {
      "midi": 45,
      "time": 104.591,
      "duration": 0.273,
      "velocity": 0.71,
      "hand": "left"
    },
    {
      "midi": 63,
      "time": 104.591,
      "duration": 0.273,
      "velocity": 0.71,
      "hand": "right"
    },
    {
      "midi": 46,
      "time": 104.864,
      "duration": 4.364,
      "velocity": 0.71,
      "hand": "left"
    },
    {
      "midi": 62,
      "time": 104.864,
      "duration": 0.273,
      "velocity": 0.71,
      "hand": "right"
    },
    {
      "midi": 70,
      "time": 104.864,
      "duration": 0.545,
      "velocity": 0.71,
      "hand": "right"
    },
    {
      "midi": 63,
      "time": 105.136,
      "duration": 0.273,
      "velocity": 0.71,
      "hand": "right"
    },
    {
      "midi": 65,
      "time": 105.409,
      "duration": 0.273,
      "velocity": 0.71,
      "hand": "right"
    },
    {
      "midi": 67,
      "time": 105.682,
      "duration": 0.273,
      "velocity": 0.71,
      "hand": "right"
    },
    {
      "midi": 70,
      "time": 105.818,
      "duration": 0.136,
      "velocity": 0.71,
      "hand": "right"
    },
    {
      "midi": 68,
      "time": 105.955,
      "duration": 0.273,
      "velocity": 0.71,
      "hand": "right"
    },
    {
      "midi": 72,
      "time": 105.955,
      "duration": 0.273,
      "velocity": 0.71,
      "hand": "right"
    },
    {
      "midi": 72,
      "time": 106.227,
      "duration": 0.273,
      "velocity": 0.71,
      "hand": "right"
    },
    {
      "midi": 70,
      "time": 106.5,
      "duration": 0.273,
      "velocity": 0.71,
      "hand": "right"
    },
    {
      "midi": 74,
      "time": 106.5,
      "duration": 0.545,
      "velocity": 0.71,
      "hand": "right"
    },
    {
      "midi": 68,
      "time": 106.773,
      "duration": 0.273,
      "velocity": 0.71,
      "hand": "right"
    },
    {
      "midi": 67,
      "time": 107.045,
      "duration": 0.545,
      "velocity": 0.71,
      "hand": "right"
    },
    {
      "midi": 75,
      "time": 107.045,
      "duration": 0.273,
      "velocity": 0.71,
      "hand": "right"
    },
    {
      "midi": 70,
      "time": 107.318,
      "duration": 0.273,
      "velocity": 0.71,
      "hand": "right"
    },
    {
      "midi": 72,
      "time": 107.591,
      "duration": 0.273,
      "velocity": 0.71,
      "hand": "right"
    },
    {
      "midi": 74,
      "time": 107.864,
      "duration": 0.273,
      "velocity": 0.71,
      "hand": "right"
    },
    {
      "midi": 65,
      "time": 108,
      "duration": 0.136,
      "velocity": 0.71,
      "hand": "right"
    },
    {
      "midi": 67,
      "time": 108.136,
      "duration": 0.545,
      "velocity": 0.71,
      "hand": "right"
    },
    {
      "midi": 75,
      "time": 108.136,
      "duration": 0.273,
      "velocity": 0.71,
      "hand": "right"
    },
    {
      "midi": 79,
      "time": 108.409,
      "duration": 0.273,
      "velocity": 0.71,
      "hand": "right"
    },
    {
      "midi": 69,
      "time": 108.682,
      "duration": 0.545,
      "velocity": 0.71,
      "hand": "right"
    },
    {
      "midi": 77,
      "time": 108.682,
      "duration": 0.273,
      "velocity": 0.71,
      "hand": "right"
    },
    {
      "midi": 75,
      "time": 108.955,
      "duration": 0.273,
      "velocity": 0.71,
      "hand": "right"
    },
    {
      "midi": 46,
      "time": 109.227,
      "duration": 0.545,
      "velocity": 0.71,
      "hand": "left"
    },
    {
      "midi": 70,
      "time": 109.227,
      "duration": 0.545,
      "velocity": 0.71,
      "hand": "right"
    },
    {
      "midi": 74,
      "time": 109.227,
      "duration": 0.273,
      "velocity": 0.71,
      "hand": "right"
    },
    {
      "midi": 75,
      "time": 109.5,
      "duration": 0.273,
      "velocity": 0.71,
      "hand": "right"
    },
    {
      "midi": 77,
      "time": 109.773,
      "duration": 0.273,
      "velocity": 0.71,
      "hand": "right"
    },
    {
      "midi": 79,
      "time": 110.045,
      "duration": 0.273,
      "velocity": 0.71,
      "hand": "right"
    },
    {
      "midi": 58,
      "time": 110.182,
      "duration": 0.136,
      "velocity": 0.71,
      "hand": "left"
    },
    {
      "midi": 62,
      "time": 110.182,
      "duration": 0.136,
      "velocity": 0.71,
      "hand": "right"
    },
    {
      "midi": 60,
      "time": 110.318,
      "duration": 0.545,
      "velocity": 0.71,
      "hand": "right"
    },
    {
      "midi": 63,
      "time": 110.318,
      "duration": 0.545,
      "velocity": 0.71,
      "hand": "right"
    },
    {
      "midi": 80,
      "time": 110.318,
      "duration": 0.273,
      "velocity": 0.71,
      "hand": "right"
    },
    {
      "midi": 84,
      "time": 110.591,
      "duration": 0.273,
      "velocity": 0.71,
      "hand": "right"
    },
    {
      "midi": 62,
      "time": 110.864,
      "duration": 0.545,
      "velocity": 0.71,
      "hand": "right"
    },
    {
      "midi": 65,
      "time": 110.864,
      "duration": 0.545,
      "velocity": 0.71,
      "hand": "right"
    },
    {
      "midi": 82,
      "time": 110.864,
      "duration": 0.273,
      "velocity": 0.71,
      "hand": "right"
    },
    {
      "midi": 80,
      "time": 111.136,
      "duration": 0.273,
      "velocity": 0.71,
      "hand": "right"
    },
    {
      "midi": 63,
      "time": 111.409,
      "duration": 0.273,
      "velocity": 0.71,
      "hand": "right"
    },
    {
      "midi": 67,
      "time": 111.409,
      "duration": 0.273,
      "velocity": 0.71,
      "hand": "right"
    },
    {
      "midi": 79,
      "time": 111.409,
      "duration": 0.545,
      "velocity": 0.71,
      "hand": "right"
    },
    {
      "midi": 51,
      "time": 111.682,
      "duration": 0.273,
      "velocity": 0.71,
      "hand": "left"
    },
    {
      "midi": 55,
      "time": 111.682,
      "duration": 0.273,
      "velocity": 0.71,
      "hand": "left"
    },
    {
      "midi": 53,
      "time": 111.955,
      "duration": 0.273,
      "velocity": 0.71,
      "hand": "left"
    },
    {
      "midi": 56,
      "time": 111.955,
      "duration": 0.273,
      "velocity": 0.71,
      "hand": "left"
    },
    {
      "midi": 55,
      "time": 112.227,
      "duration": 0.273,
      "velocity": 0.71,
      "hand": "left"
    },
    {
      "midi": 58,
      "time": 112.227,
      "duration": 0.273,
      "velocity": 0.71,
      "hand": "left"
    },
    {
      "midi": 63,
      "time": 112.364,
      "duration": 0.136,
      "velocity": 0.71,
      "hand": "right"
    },
    {
      "midi": 56,
      "time": 112.5,
      "duration": 0.273,
      "velocity": 0.71,
      "hand": "left"
    },
    {
      "midi": 60,
      "time": 112.5,
      "duration": 0.273,
      "velocity": 0.71,
      "hand": "right"
    },
    {
      "midi": 65,
      "time": 112.5,
      "duration": 0.273,
      "velocity": 0.71,
      "hand": "right"
    },
    {
      "midi": 60,
      "time": 112.773,
      "duration": 0.273,
      "velocity": 0.71,
      "hand": "right"
    },
    {
      "midi": 63,
      "time": 112.773,
      "duration": 0.273,
      "velocity": 0.71,
      "hand": "right"
    },
    {
      "midi": 58,
      "time": 113.045,
      "duration": 0.273,
      "velocity": 0.71,
      "hand": "left"
    },
    {
      "midi": 62,
      "time": 113.045,
      "duration": 0.273,
      "velocity": 0.71,
      "hand": "right"
    },
    {
      "midi": 70,
      "time": 113.045,
      "duration": 0.273,
      "velocity": 0.71,
      "hand": "right"
    },
    {
      "midi": 56,
      "time": 113.318,
      "duration": 0.273,
      "velocity": 0.71,
      "hand": "left"
    },
    {
      "midi": 60,
      "time": 113.318,
      "duration": 0.273,
      "velocity": 0.71,
      "hand": "right"
    },
    {
      "midi": 55,
      "time": 113.591,
      "duration": 0.273,
      "velocity": 0.71,
      "hand": "left"
    },
    {
      "midi": 58,
      "time": 113.591,
      "duration": 0.273,
      "velocity": 0.71,
      "hand": "left"
    },
    {
      "midi": 63,
      "time": 113.591,
      "duration": 0.545,
      "velocity": 0.71,
      "hand": "right"
    },
    {
      "midi": 53,
      "time": 113.864,
      "duration": 0.273,
      "velocity": 0.71,
      "hand": "left"
    },
    {
      "midi": 56,
      "time": 113.864,
      "duration": 0.273,
      "velocity": 0.71,
      "hand": "left"
    },
    {
      "midi": 51,
      "time": 114.136,
      "duration": 0.273,
      "velocity": 0.71,
      "hand": "left"
    },
    {
      "midi": 55,
      "time": 114.136,
      "duration": 0.273,
      "velocity": 0.71,
      "hand": "left"
    },
    {
      "midi": 49,
      "time": 114.409,
      "duration": 0.273,
      "velocity": 0.71,
      "hand": "left"
    },
    {
      "midi": 58,
      "time": 114.409,
      "duration": 0.273,
      "velocity": 0.71,
      "hand": "left"
    },
    {
      "midi": 63,
      "time": 114.545,
      "duration": 0.136,
      "velocity": 0.71,
      "hand": "right"
    },
    {
      "midi": 48,
      "time": 114.682,
      "duration": 0.273,
      "velocity": 0.71,
      "hand": "left"
    },
    {
      "midi": 63,
      "time": 114.682,
      "duration": 0.273,
      "velocity": 0.71,
      "hand": "right"
    },
    {
      "midi": 68,
      "time": 114.682,
      "duration": 0.545,
      "velocity": 0.71,
      "hand": "right"
    },
    {
      "midi": 46,
      "time": 114.955,
      "duration": 0.273,
      "velocity": 0.71,
      "hand": "left"
    },
    {
      "midi": 62,
      "time": 114.955,
      "duration": 0.273,
      "velocity": 0.71,
      "hand": "right"
    },
    {
      "midi": 48,
      "time": 115.227,
      "duration": 0.273,
      "velocity": 0.71,
      "hand": "left"
    },
    {
      "midi": 63,
      "time": 115.227,
      "duration": 0.273,
      "velocity": 0.71,
      "hand": "right"
    },
    {
      "midi": 68,
      "time": 115.227,
      "duration": 0.545,
      "velocity": 0.71,
      "hand": "right"
    },
    {
      "midi": 50,
      "time": 115.5,
      "duration": 0.273,
      "velocity": 0.71,
      "hand": "left"
    },
    {
      "midi": 65,
      "time": 115.5,
      "duration": 0.273,
      "velocity": 0.71,
      "hand": "right"
    },
    {
      "midi": 51,
      "time": 115.773,
      "duration": 0.273,
      "velocity": 0.71,
      "hand": "left"
    },
    {
      "midi": 58,
      "time": 115.773,
      "duration": 0.273,
      "velocity": 0.71,
      "hand": "left"
    },
    {
      "midi": 67,
      "time": 115.773,
      "duration": 0.545,
      "velocity": 0.71,
      "hand": "right"
    },
    {
      "midi": 46,
      "time": 116.045,
      "duration": 0.273,
      "velocity": 0.71,
      "hand": "left"
    },
    {
      "midi": 61,
      "time": 116.045,
      "duration": 0.273,
      "velocity": 0.71,
      "hand": "right"
    },
    {
      "midi": 49,
      "time": 116.318,
      "duration": 0.273,
      "velocity": 0.71,
      "hand": "left"
    },
    {
      "midi": 65,
      "time": 116.318,
      "duration": 0.273,
      "velocity": 0.71,
      "hand": "right"
    },
    {
      "midi": 48,
      "time": 116.591,
      "duration": 0.273,
      "velocity": 0.71,
      "hand": "left"
    },
    {
      "midi": 63,
      "time": 116.591,
      "duration": 0.273,
      "velocity": 0.71,
      "hand": "right"
    },
    {
      "midi": 68,
      "time": 116.727,
      "duration": 0.136,
      "velocity": 0.71,
      "hand": "right"
    },
    {
      "midi": 46,
      "time": 116.864,
      "duration": 0.273,
      "velocity": 0.71,
      "hand": "left"
    },
    {
      "midi": 67,
      "time": 116.864,
      "duration": 0.273,
      "velocity": 0.71,
      "hand": "right"
    },
    {
      "midi": 73,
      "time": 116.864,
      "duration": 0.545,
      "velocity": 0.71,
      "hand": "right"
    },
    {
      "midi": 44,
      "time": 117.136,
      "duration": 0.273,
      "velocity": 0.71,
      "hand": "left"
    },
    {
      "midi": 68,
      "time": 117.136,
      "duration": 0.273,
      "velocity": 0.71,
      "hand": "right"
    },
    {
      "midi": 43,
      "time": 117.409,
      "duration": 0.273,
      "velocity": 0.71,
      "hand": "left"
    },
    {
      "midi": 70,
      "time": 117.409,
      "duration": 0.273,
      "velocity": 0.71,
      "hand": "right"
    },
    {
      "midi": 73,
      "time": 117.409,
      "duration": 0.545,
      "velocity": 0.71,
      "hand": "right"
    },
    {
      "midi": 46,
      "time": 117.682,
      "duration": 0.273,
      "velocity": 0.71,
      "hand": "left"
    },
    {
      "midi": 67,
      "time": 117.682,
      "duration": 0.273,
      "velocity": 0.71,
      "hand": "right"
    },
    {
      "midi": 44,
      "time": 117.955,
      "duration": 0.273,
      "velocity": 0.71,
      "hand": "left"
    },
    {
      "midi": 63,
      "time": 117.955,
      "duration": 0.545,
      "velocity": 0.71,
      "hand": "right"
    },
    {
      "midi": 72,
      "time": 117.955,
      "duration": 0.545,
      "velocity": 0.71,
      "hand": "right"
    },
    {
      "midi": 46,
      "time": 118.227,
      "duration": 0.273,
      "velocity": 0.71,
      "hand": "left"
    },
    {
      "midi": 48,
      "time": 118.5,
      "duration": 0.273,
      "velocity": 0.71,
      "hand": "left"
    },
    {
      "midi": 68,
      "time": 118.5,
      "duration": 0.545,
      "velocity": 0.71,
      "hand": "right"
    },
    {
      "midi": 44,
      "time": 118.773,
      "duration": 0.273,
      "velocity": 0.71,
      "hand": "left"
    },
    {
      "midi": 75,
      "time": 118.909,
      "duration": 0.136,
      "velocity": 0.71,
      "hand": "right"
    },
    {
      "midi": 41,
      "time": 119.045,
      "duration": 0.273,
      "velocity": 0.71,
      "hand": "left"
    },
    {
      "midi": 72,
      "time": 119.045,
      "duration": 1.091,
      "velocity": 0.71,
      "hand": "right"
    },
    {
      "midi": 80,
      "time": 119.045,
      "duration": 0.273,
      "velocity": 0.71,
      "hand": "right"
    },
    {
      "midi": 43,
      "time": 119.318,
      "duration": 0.273,
      "velocity": 0.71,
      "hand": "left"
    },
    {
      "midi": 79,
      "time": 119.318,
      "duration": 0.273,
      "velocity": 0.71,
      "hand": "right"
    },
    {
      "midi": 44,
      "time": 119.591,
      "duration": 0.273,
      "velocity": 0.71,
      "hand": "left"
    },
    {
      "midi": 77,
      "time": 119.591,
      "duration": 0.273,
      "velocity": 0.71,
      "hand": "right"
    },
    {
      "midi": 45,
      "time": 119.864,
      "duration": 0.273,
      "velocity": 0.71,
      "hand": "left"
    },
    {
      "midi": 75,
      "time": 119.864,
      "duration": 0.273,
      "velocity": 0.71,
      "hand": "right"
    },
    {
      "midi": 46,
      "time": 120.136,
      "duration": 5.727,
      "velocity": 0.71,
      "hand": "left"
    },
    {
      "midi": 65,
      "time": 120.136,
      "duration": 0.545,
      "velocity": 0.71,
      "hand": "right"
    },
    {
      "midi": 74,
      "time": 120.136,
      "duration": 0.273,
      "velocity": 0.71,
      "hand": "right"
    },
    {
      "midi": 72,
      "time": 120.409,
      "duration": 0.273,
      "velocity": 0.71,
      "hand": "right"
    },
    {
      "midi": 62,
      "time": 120.682,
      "duration": 0.545,
      "velocity": 0.71,
      "hand": "right"
    },
    {
      "midi": 70,
      "time": 120.682,
      "duration": 0.273,
      "velocity": 0.71,
      "hand": "right"
    },
    {
      "midi": 68,
      "time": 120.955,
      "duration": 0.273,
      "velocity": 0.71,
      "hand": "right"
    },
    {
      "midi": 63,
      "time": 121.227,
      "duration": 0.545,
      "velocity": 0.71,
      "hand": "right"
    },
    {
      "midi": 67,
      "time": 121.227,
      "duration": 0.273,
      "velocity": 0.71,
      "hand": "right"
    },
    {
      "midi": 65,
      "time": 121.5,
      "duration": 0.273,
      "velocity": 0.71,
      "hand": "right"
    },
    {
      "midi": 55,
      "time": 121.773,
      "duration": 0.545,
      "velocity": 0.71,
      "hand": "left"
    },
    {
      "midi": 63,
      "time": 121.773,
      "duration": 0.273,
      "velocity": 0.71,
      "hand": "right"
    },
    {
      "midi": 62,
      "time": 122.045,
      "duration": 0.273,
      "velocity": 0.71,
      "hand": "right"
    },
    {
      "midi": 56,
      "time": 122.318,
      "duration": 0.273,
      "velocity": 0.71,
      "hand": "left"
    },
    {
      "midi": 60,
      "time": 122.318,
      "duration": 0.273,
      "velocity": 0.71,
      "hand": "right"
    },
    {
      "midi": 60,
      "time": 122.591,
      "duration": 0.273,
      "velocity": 0.71,
      "hand": "right"
    },
    {
      "midi": 58,
      "time": 122.864,
      "duration": 0.273,
      "velocity": 0.71,
      "hand": "left"
    },
    {
      "midi": 62,
      "time": 122.864,
      "duration": 0.545,
      "velocity": 0.71,
      "hand": "right"
    },
    {
      "midi": 56,
      "time": 123.136,
      "duration": 0.273,
      "velocity": 0.71,
      "hand": "left"
    },
    {
      "midi": 55,
      "time": 123.409,
      "duration": 0.273,
      "velocity": 0.71,
      "hand": "left"
    },
    {
      "midi": 63,
      "time": 123.409,
      "duration": 0.545,
      "velocity": 0.71,
      "hand": "right"
    },
    {
      "midi": 58,
      "time": 123.682,
      "duration": 0.273,
      "velocity": 0.71,
      "hand": "left"
    },
    {
      "midi": 60,
      "time": 123.955,
      "duration": 0.273,
      "velocity": 0.71,
      "hand": "right"
    },
    {
      "midi": 62,
      "time": 124.227,
      "duration": 0.273,
      "velocity": 0.71,
      "hand": "right"
    },
    {
      "midi": 65,
      "time": 124.364,
      "duration": 0.136,
      "velocity": 0.71,
      "hand": "right"
    },
    {
      "midi": 63,
      "time": 124.5,
      "duration": 0.273,
      "velocity": 0.71,
      "hand": "right"
    },
    {
      "midi": 67,
      "time": 124.5,
      "duration": 0.273,
      "velocity": 0.71,
      "hand": "right"
    },
    {
      "midi": 67,
      "time": 124.773,
      "duration": 0.273,
      "velocity": 0.71,
      "hand": "right"
    },
    {
      "midi": 65,
      "time": 125.045,
      "duration": 0.273,
      "velocity": 0.71,
      "hand": "right"
    },
    {
      "midi": 69,
      "time": 125.045,
      "duration": 0.545,
      "velocity": 0.71,
      "hand": "right"
    },
    {
      "midi": 63,
      "time": 125.318,
      "duration": 0.273,
      "velocity": 0.71,
      "hand": "right"
    },
    {
      "midi": 62,
      "time": 125.591,
      "duration": 0.545,
      "velocity": 0.71,
      "hand": "right"
    },
    {
      "midi": 70,
      "time": 125.591,
      "duration": 0.545,
      "velocity": 0.71,
      "hand": "right"
    },
    {
      "midi": 50,
      "time": 125.864,
      "duration": 0.273,
      "velocity": 0.71,
      "hand": "left"
    },
    {
      "midi": 53,
      "time": 126.136,
      "duration": 0.273,
      "velocity": 0.71,
      "hand": "left"
    },
    {
      "midi": 55,
      "time": 126.409,
      "duration": 0.273,
      "velocity": 0.71,
      "hand": "left"
    },
    {
      "midi": 63,
      "time": 126.545,
      "duration": 0.136,
      "velocity": 0.71,
      "hand": "right"
    },
    {
      "midi": 70,
      "time": 126.545,
      "duration": 0.136,
      "velocity": 0.71,
      "hand": "right"
    },
    {
      "midi": 56,
      "time": 126.682,
      "duration": 0.273,
      "velocity": 0.71,
      "hand": "left"
    },
    {
      "midi": 63,
      "time": 126.682,
      "duration": 0.273,
      "velocity": 0.71,
      "hand": "right"
    },
    {
      "midi": 72,
      "time": 126.682,
      "duration": 0.545,
      "velocity": 0.71,
      "hand": "right"
    },
    {
      "midi": 60,
      "time": 126.955,
      "duration": 0.273,
      "velocity": 0.71,
      "hand": "right"
    },
    {
      "midi": 68,
      "time": 126.955,
      "duration": 0.273,
      "velocity": 0.71,
      "hand": "right"
    },
    {
      "midi": 58,
      "time": 127.227,
      "duration": 0.273,
      "velocity": 0.71,
      "hand": "left"
    },
    {
      "midi": 67,
      "time": 127.227,
      "duration": 0.273,
      "velocity": 0.71,
      "hand": "right"
    },
    {
      "midi": 74,
      "time": 127.227,
      "duration": 0.545,
      "velocity": 0.71,
      "hand": "right"
    },
    {
      "midi": 56,
      "time": 127.5,
      "duration": 0.273,
      "velocity": 0.71,
      "hand": "left"
    },
    {
      "midi": 65,
      "time": 127.5,
      "duration": 0.273,
      "velocity": 0.71,
      "hand": "right"
    },
    {
      "midi": 55,
      "time": 127.773,
      "duration": 0.545,
      "velocity": 0.71,
      "hand": "left"
    },
    {
      "midi": 70,
      "time": 127.773,
      "duration": 0.545,
      "velocity": 0.71,
      "hand": "right"
    },
    {
      "midi": 75,
      "time": 127.773,
      "duration": 0.545,
      "velocity": 0.71,
      "hand": "right"
    },
    {
      "midi": 43,
      "time": 128.727,
      "duration": 0.136,
      "velocity": 0.71,
      "hand": "left"
    },
    {
      "midi": 58,
      "time": 128.727,
      "duration": 0.136,
      "velocity": 0.71,
      "hand": "left"
    },
    {
      "midi": 63,
      "time": 128.727,
      "duration": 0.136,
      "velocity": 0.71,
      "hand": "right"
    },
    {
      "midi": 44,
      "time": 128.864,
      "duration": 0.545,
      "velocity": 0.71,
      "hand": "left"
    },
    {
      "midi": 60,
      "time": 128.864,
      "duration": 0.545,
      "velocity": 0.71,
      "hand": "right"
    },
    {
      "midi": 65,
      "time": 128.864,
      "duration": 0.545,
      "velocity": 0.71,
      "hand": "right"
    },
    {
      "midi": 41,
      "time": 129.409,
      "duration": 0.545,
      "velocity": 0.71,
      "hand": "left"
    },
    {
      "midi": 65,
      "time": 129.409,
      "duration": 0.818,
      "velocity": 0.71,
      "hand": "right"
    },
    {
      "midi": 68,
      "time": 129.409,
      "duration": 0.545,
      "velocity": 0.71,
      "hand": "right"
    },
    {
      "midi": 46,
      "time": 129.955,
      "duration": 1.091,
      "velocity": 0.71,
      "hand": "left"
    },
    {
      "midi": 67,
      "time": 129.955,
      "duration": 0.545,
      "velocity": 0.71,
      "hand": "right"
    },
    {
      "midi": 63,
      "time": 130.227,
      "duration": 0.545,
      "velocity": 0.71,
      "hand": "right"
    },
    {
      "midi": 65,
      "time": 130.5,
      "duration": 0.545,
      "velocity": 0.71,
      "hand": "right"
    },
    {
      "midi": 62,
      "time": 130.773,
      "duration": 0.273,
      "velocity": 0.71,
      "hand": "right"
    },
    {
      "midi": 39,
      "time": 131.045,
      "duration": 8.455,
      "velocity": 0.71,
      "hand": "left"
    },
    {
      "midi": 63,
      "time": 131.045,
      "duration": 0.545,
      "velocity": 0.71,
      "hand": "right"
    },
    {
      "midi": 55,
      "time": 131.318,
      "duration": 0.273,
      "velocity": 0.71,
      "hand": "left"
    },
    {
      "midi": 58,
      "time": 131.591,
      "duration": 0.273,
      "velocity": 0.71,
      "hand": "left"
    },
    {
      "midi": 61,
      "time": 131.864,
      "duration": 0.273,
      "velocity": 0.71,
      "hand": "right"
    },
    {
      "midi": 63,
      "time": 132,
      "duration": 0.136,
      "velocity": 0.71,
      "hand": "right"
    },
    {
      "midi": 60,
      "time": 132.136,
      "duration": 0.273,
      "velocity": 0.71,
      "hand": "right"
    },
    {
      "midi": 68,
      "time": 132.136,
      "duration": 0.545,
      "velocity": 0.71,
      "hand": "right"
    },
    {
      "midi": 58,
      "time": 132.409,
      "duration": 0.273,
      "velocity": 0.71,
      "hand": "left"
    },
    {
      "midi": 60,
      "time": 132.682,
      "duration": 0.273,
      "velocity": 0.71,
      "hand": "right"
    },
    {
      "midi": 68,
      "time": 132.682,
      "duration": 0.545,
      "velocity": 0.71,
      "hand": "right"
    },
    {
      "midi": 62,
      "time": 132.955,
      "duration": 0.273,
      "velocity": 0.71,
      "hand": "right"
    },
    {
      "midi": 63,
      "time": 133.227,
      "duration": 0.273,
      "velocity": 0.71,
      "hand": "right"
    },
    {
      "midi": 67,
      "time": 133.227,
      "duration": 0.545,
      "velocity": 0.71,
      "hand": "right"
    },
    {
      "midi": 58,
      "time": 133.5,
      "duration": 0.273,
      "velocity": 0.71,
      "hand": "left"
    },
    {
      "midi": 61,
      "time": 133.773,
      "duration": 0.273,
      "velocity": 0.71,
      "hand": "right"
    },
    {
      "midi": 60,
      "time": 134.045,
      "duration": 0.273,
      "velocity": 0.71,
      "hand": "right"
    },
    {
      "midi": 68,
      "time": 134.182,
      "duration": 0.136,
      "velocity": 0.71,
      "hand": "right"
    },
    {
      "midi": 58,
      "time": 134.318,
      "duration": 0.273,
      "velocity": 0.71,
      "hand": "left"
    },
    {
      "midi": 73,
      "time": 134.318,
      "duration": 0.545,
      "velocity": 0.71,
      "hand": "right"
    },
    {
      "midi": 63,
      "time": 134.591,
      "duration": 0.273,
      "velocity": 0.71,
      "hand": "right"
    },
    {
      "midi": 65,
      "time": 134.864,
      "duration": 0.273,
      "velocity": 0.71,
      "hand": "right"
    },
    {
      "midi": 73,
      "time": 134.864,
      "duration": 0.545,
      "velocity": 0.71,
      "hand": "right"
    },
    {
      "midi": 67,
      "time": 135.136,
      "duration": 0.273,
      "velocity": 0.71,
      "hand": "right"
    },
    {
      "midi": 68,
      "time": 135.409,
      "duration": 0.273,
      "velocity": 0.71,
      "hand": "right"
    },
    {
      "midi": 72,
      "time": 135.409,
      "duration": 0.545,
      "velocity": 0.71,
      "hand": "right"
    },
    {
      "midi": 67,
      "time": 135.682,
      "duration": 0.273,
      "velocity": 0.71,
      "hand": "right"
    },
    {
      "midi": 68,
      "time": 135.955,
      "duration": 0.273,
      "velocity": 0.71,
      "hand": "right"
    },
    {
      "midi": 70,
      "time": 136.227,
      "duration": 0.273,
      "velocity": 0.71,
      "hand": "right"
    },
    {
      "midi": 75,
      "time": 136.364,
      "duration": 0.136,
      "velocity": 0.71,
      "hand": "right"
    },
    {
      "midi": 72,
      "time": 136.5,
      "duration": 0.545,
      "velocity": 0.71,
      "hand": "right"
    },
    {
      "midi": 80,
      "time": 136.5,
      "duration": 0.273,
      "velocity": 0.71,
      "hand": "right"
    },
    {
      "midi": 79,
      "time": 136.773,
      "duration": 0.273,
      "velocity": 0.71,
      "hand": "right"
    },
    {
      "midi": 68,
      "time": 137.045,
      "duration": 0.545,
      "velocity": 0.71,
      "hand": "right"
    },
    {
      "midi": 77,
      "time": 137.045,
      "duration": 0.273,
      "velocity": 0.71,
      "hand": "right"
    },
    {
      "midi": 75,
      "time": 137.318,
      "duration": 0.273,
      "velocity": 0.71,
      "hand": "right"
    },
    {
      "midi": 65,
      "time": 137.591,
      "duration": 0.273,
      "velocity": 0.71,
      "hand": "right"
    },
    {
      "midi": 74,
      "time": 137.591,
      "duration": 0.273,
      "velocity": 0.71,
      "hand": "right"
    },
    {
      "midi": 68,
      "time": 137.864,
      "duration": 0.273,
      "velocity": 0.71,
      "hand": "right"
    },
    {
      "midi": 72,
      "time": 137.864,
      "duration": 0.273,
      "velocity": 0.71,
      "hand": "right"
    },
    {
      "midi": 62,
      "time": 138.136,
      "duration": 0.273,
      "velocity": 0.71,
      "hand": "right"
    },
    {
      "midi": 70,
      "time": 138.136,
      "duration": 0.273,
      "velocity": 0.71,
      "hand": "right"
    },
    {
      "midi": 65,
      "time": 138.409,
      "duration": 0.273,
      "velocity": 0.71,
      "hand": "right"
    },
    {
      "midi": 68,
      "time": 138.409,
      "duration": 0.273,
      "velocity": 0.71,
      "hand": "right"
    },
    {
      "midi": 63,
      "time": 138.682,
      "duration": 0.273,
      "velocity": 0.71,
      "hand": "right"
    },
    {
      "midi": 67,
      "time": 138.682,
      "duration": 0.273,
      "velocity": 0.71,
      "hand": "right"
    },
    {
      "midi": 58,
      "time": 138.955,
      "duration": 0.273,
      "velocity": 0.71,
      "hand": "left"
    },
    {
      "midi": 65,
      "time": 138.955,
      "duration": 0.273,
      "velocity": 0.71,
      "hand": "right"
    },
    {
      "midi": 55,
      "time": 139.227,
      "duration": 0.273,
      "velocity": 0.71,
      "hand": "left"
    },
    {
      "midi": 63,
      "time": 139.227,
      "duration": 0.273,
      "velocity": 0.71,
      "hand": "right"
    },
    {
      "midi": 43,
      "time": 139.5,
      "duration": 0.273,
      "velocity": 0.71,
      "hand": "left"
    },
    {
      "midi": 58,
      "time": 139.5,
      "duration": 0.273,
      "velocity": 0.71,
      "hand": "left"
    },
    {
      "midi": 62,
      "time": 139.5,
      "duration": 0.273,
      "velocity": 0.71,
      "hand": "right"
    },
    {
      "midi": 44,
      "time": 139.773,
      "duration": 0.545,
      "velocity": 0.71,
      "hand": "left"
    },
    {
      "midi": 56,
      "time": 139.773,
      "duration": 0.545,
      "velocity": 0.71,
      "hand": "left"
    },
    {
      "midi": 60,
      "time": 139.773,
      "duration": 0.545,
      "velocity": 0.71,
      "hand": "right"
    },
    {
      "midi": 68,
      "time": 140.318,
      "duration": 0.545,
      "velocity": 0.71,
      "hand": "right"
    },
    {
      "midi": 72,
      "time": 140.318,
      "duration": 0.545,
      "velocity": 0.71,
      "hand": "right"
    },
    {
      "midi": 46,
      "time": 140.864,
      "duration": 1.091,
      "velocity": 0.71,
      "hand": "left"
    },
    {
      "midi": 56,
      "time": 141.409,
      "duration": 0.545,
      "velocity": 0.71,
      "hand": "left"
    },
    {
      "midi": 62,
      "time": 141.409,
      "duration": 0.545,
      "velocity": 0.71,
      "hand": "right"
    },
    {
      "midi": 39,
      "time": 141.955,
      "duration": 2.182,
      "velocity": 0.71,
      "hand": "left"
    },
    {
      "midi": 56,
      "time": 141.955,
      "duration": 1.091,
      "velocity": 0.71,
      "hand": "left"
    },
    {
      "midi": 62,
      "time": 141.955,
      "duration": 1.091,
      "velocity": 0.71,
      "hand": "right"
    },
    {
      "midi": 55,
      "time": 143.045,
      "duration": 1.091,
      "velocity": 0.71,
      "hand": "left"
    },
    {
      "midi": 63,
      "time": 143.045,
      "duration": 1.091,
      "velocity": 0.71,
      "hand": "right"
    }
  ]
}
