{
  "id": "fuguefragmentmozart",
  "title": "Fragmento de Fuga",
  "artist": "Wolfgang Amadeus Mozart",
  "difficulty": "Difícil",
  "bpm": 110,
  "duration": 58,
  "category": "Clássicos",
  "isPremium": true,
  "coverUrl": "/images/covers/placeholder.png",
  "notes": [
    {
      "midi": 76,
      "time": 0,
      "duration": 0.545,
      "velocity": 0.71,
      "hand": "right"
    },
    {
      "midi": 74,
      "time": 0.546,
      "duration": 0.545,
      "velocity": 0.71,
      "hand": "right"
    },
    {
      "midi": 72,
      "time": 1.091,
      "duration": 0.545,
      "velocity": 0.71,
      "hand": "right"
    },
    {
      "midi": 71,
      "time": 1.637,
      "duration": 0.545,
      "velocity": 0.71,
      "hand": "right"
    },
    {
      "midi": 72,
      "time": 2.182,
      "duration": 0.545,
      "velocity": 0.71,
      "hand": "right"
    },
    {
      "midi": 74,
      "time": 2.728,
      "duration": 0.818,
      "velocity": 0.71,
      "hand": "right"
    },
    {
      "midi": 72,
      "time": 3.546,
      "duration": 0.136,
      "velocity": 0.71,
      "hand": "right"
    },
    {
      "midi": 71,
      "time": 3.682,
      "duration": 0.136,
      "velocity": 0.71,
      "hand": "right"
    },
    {
      "midi": 69,
      "time": 3.819,
      "duration": 0.545,
      "velocity": 0.71,
      "hand": "right"
    },
    {
      "midi": 71,
      "time": 4.364,
      "duration": 0.545,
      "velocity": 0.71,
      "hand": "right"
    },
    {
      "midi": 64,
      "time": 4.91,
      "duration": 0.818,
      "velocity": 0.71,
      "hand": "right"
    },
    {
      "midi": 66,
      "time": 5.728,
      "duration": 0.136,
      "velocity": 0.71,
      "hand": "right"
    },
    {
      "midi": 67,
      "time": 5.864,
      "duration": 0.136,
      "velocity": 0.71,
      "hand": "right"
    },
    {
      "midi": 69,
      "time": 6,
      "duration": 0.545,
      "velocity": 0.71,
      "hand": "right"
    },
    {
      "midi": 62,
      "time": 6.546,
      "duration": 0.273,
      "velocity": 0.71,
      "hand": "right"
    },
    {
      "midi": 64,
      "time": 6.819,
      "duration": 0.273,
      "velocity": 0.71,
      "hand": "right"
    },
    {
      "midi": 66,
      "time": 7.091,
      "duration": 0.273,
      "velocity": 0.71,
      "hand": "right"
    },
    {
      "midi": 67,
      "time": 7.364,
      "duration": 0.273,
      "velocity": 0.71,
      "hand": "right"
    },
    {
      "midi": 69,
      "time": 7.637,
      "duration": 0.273,
      "velocity": 0.71,
      "hand": "right"
    },
    {
      "midi": 71,
      "time": 7.91,
      "duration": 0.273,
      "velocity": 0.71,
      "hand": "right"
    },
    {
      "midi": 67,
      "time": 8.182,
      "duration": 0.545,
      "velocity": 0.71,
      "hand": "right"
    },
    {
      "midi": 71,
      "time": 8.728,
      "duration": 0.545,
      "velocity": 0.71,
      "hand": "right"
    },
    {
      "midi": 74,
      "time": 8.728,
      "duration": 0.818,
      "velocity": 0.71,
      "hand": "right"
    },
    {
      "midi": 69,
      "time": 9.273,
      "duration": 0.545,
      "velocity": 0.71,
      "hand": "right"
    },
    {
      "midi": 73,
      "time": 9.546,
      "duration": 0.273,
      "velocity": 0.71,
      "hand": "right"
    },
    {
      "midi": 67,
      "time": 9.819,
      "duration": 0.545,
      "velocity": 0.71,
      "hand": "right"
    },
    {
      "midi": 79,
      "time": 9.819,
      "duration": 0.273,
      "velocity": 0.71,
      "hand": "right"
    },
    {
      "midi": 73,
      "time": 10.091,
      "duration": 0.273,
      "velocity": 0.71,
      "hand": "right"
    },
    {
      "midi": 66,
      "time": 10.364,
      "duration": 0.545,
      "velocity": 0.71,
      "hand": "right"
    },
    {
      "midi": 81,
      "time": 10.364,
      "duration": 0.818,
      "velocity": 0.71,
      "hand": "right"
    },
    {
      "midi": 67,
      "time": 10.91,
      "duration": 0.545,
      "velocity": 0.71,
      "hand": "right"
    },
    {
      "midi": 79,
      "time": 11.182,
      "duration": 0.136,
      "velocity": 0.71,
      "hand": "right"
    },
    {
      "midi": 78,
      "time": 11.319,
      "duration": 0.136,
      "velocity": 0.71,
      "hand": "right"
    },
    {
      "midi": 69,
      "time": 11.455,
      "duration": 0.818,
      "velocity": 0.71,
      "hand": "right"
    },
    {
      "midi": 76,
      "time": 11.455,
      "duration": 0.545,
      "velocity": 0.71,
      "hand": "right"
    },
    {
      "midi": 78,
      "time": 12,
      "duration": 0.545,
      "velocity": 0.71,
      "hand": "right"
    },
    {
      "midi": 67,
      "time": 12.273,
      "duration": 0.136,
      "velocity": 0.71,
      "hand": "right"
    },
    {
      "midi": 66,
      "time": 12.41,
      "duration": 0.136,
      "velocity": 0.71,
      "hand": "right"
    },
    {
      "midi": 64,
      "time": 12.546,
      "duration": 0.545,
      "velocity": 0.71,
      "hand": "right"
    },
    {
      "midi": 79,
      "time": 12.546,
      "duration": 0.545,
      "velocity": 0.71,
      "hand": "right"
    },
    {
      "midi": 66,
      "time": 13.091,
      "duration": 0.545,
      "velocity": 0.71,
      "hand": "right"
    },
    {
      "midi": 78,
      "time": 13.091,
      "duration": 0.273,
      "velocity": 0.71,
      "hand": "right"
    },
    {
      "midi": 76,
      "time": 13.364,
      "duration": 0.273,
      "velocity": 0.71,
      "hand": "right"
    },
    {
      "midi": 59,
      "time": 13.637,
      "duration": 0.818,
      "velocity": 0.71,
      "hand": "left"
    },
    {
      "midi": 74,
      "time": 13.637,
      "duration": 0.273,
      "velocity": 0.71,
      "hand": "right"
    },
    {
      "midi": 73,
      "time": 13.91,
      "duration": 0.273,
      "velocity": 0.71,
      "hand": "right"
    },
    {
      "midi": 71,
      "time": 14.182,
      "duration": 0.273,
      "velocity": 0.71,
      "hand": "right"
    },
    {
      "midi": 61,
      "time": 14.455,
      "duration": 0.136,
      "velocity": 0.71,
      "hand": "right"
    },
    {
      "midi": 69,
      "time": 14.455,
      "duration": 0.273,
      "velocity": 0.71,
      "hand": "right"
    },
    {
      "midi": 62,
      "time": 14.591,
      "duration": 0.136,
      "velocity": 0.71,
      "hand": "right"
    },
    {
      "midi": 64,
      "time": 14.728,
      "duration": 0.545,
      "velocity": 0.71,
      "hand": "right"
    },
    {
      "midi": 67,
      "time": 14.728,
      "duration": 0.818,
      "velocity": 0.71,
      "hand": "right"
    },
    {
      "midi": 57,
      "time": 15.273,
      "duration": 0.273,
      "velocity": 0.71,
      "hand": "left"
    },
    {
      "midi": 59,
      "time": 15.546,
      "duration": 0.273,
      "velocity": 0.71,
      "hand": "left"
    },
    {
      "midi": 66,
      "time": 15.546,
      "duration": 0.136,
      "velocity": 0.71,
      "hand": "right"
    },
    {
      "midi": 67,
      "time": 15.682,
      "duration": 0.136,
      "velocity": 0.71,
      "hand": "right"
    },
    {
      "midi": 61,
      "time": 15.819,
      "duration": 0.273,
      "velocity": 0.71,
      "hand": "right"
    },
    {
      "midi": 64,
      "time": 15.819,
      "duration": 0.53,
      "velocity": 0.71,
      "hand": "right"
    },
    {
      "midi": 62,
      "time": 16.091,
      "duration": 0.273,
      "velocity": 0.71,
      "hand": "right"
    },
    {
      "midi": 64,
      "time": 16.364,
      "duration": 0.273,
      "velocity": 0.71,
      "hand": "right"
    },
    {
      "midi": 73,
      "time": 16.364,
      "duration": 0.545,
      "velocity": 0.71,
      "hand": "right"
    },
    {
      "midi": 66,
      "time": 16.637,
      "duration": 0.273,
      "velocity": 0.71,
      "hand": "right"
    },
    {
      "midi": 62,
      "time": 16.91,
      "duration": 1.364,
      "velocity": 0.71,
      "hand": "right"
    },
    {
      "midi": 74,
      "time": 16.91,
      "duration": 0.273,
      "velocity": 0.71,
      "hand": "right"
    },
    {
      "midi": 68,
      "time": 17.182,
      "duration": 0.273,
      "velocity": 0.71,
      "hand": "right"
    },
    {
      "midi": 69,
      "time": 17.455,
      "duration": 0.273,
      "velocity": 0.71,
      "hand": "right"
    },
    {
      "midi": 71,
      "time": 17.728,
      "duration": 0.273,
      "velocity": 0.71,
      "hand": "right"
    },
    {
      "midi": 72,
      "time": 18,
      "duration": 1.364,
      "velocity": 0.71,
      "hand": "right"
    },
    {
      "midi": 63,
      "time": 18.273,
      "duration": 0.273,
      "velocity": 0.71,
      "hand": "right"
    },
    {
      "midi": 64,
      "time": 18.546,
      "duration": 0.273,
      "velocity": 0.71,
      "hand": "right"
    },
    {
      "midi": 66,
      "time": 18.819,
      "duration": 0.273,
      "velocity": 0.71,
      "hand": "right"
    },
    {
      "midi": 67,
      "time": 19.091,
      "duration": 0.818,
      "velocity": 0.71,
      "hand": "right"
    },
    {
      "midi": 71,
      "time": 19.364,
      "duration": 0.273,
      "velocity": 0.71,
      "hand": "right"
    },
    {
      "midi": 76,
      "time": 19.637,
      "duration": 0.818,
      "velocity": 0.71,
      "hand": "right"
    },
    {
      "midi": 66,
      "time": 19.91,
      "duration": 0.273,
      "velocity": 0.71,
      "hand": "right"
    },
    {
      "midi": 71,
      "time": 20.182,
      "duration": 0.818,
      "velocity": 0.71,
      "hand": "right"
    },
    {
      "midi": 74,
      "time": 20.455,
      "duration": 0.273,
      "velocity": 0.71,
      "hand": "right"
    },
    {
      "midi": 79,
      "time": 20.728,
      "duration": 0.818,
      "velocity": 0.71,
      "hand": "right"
    },
    {
      "midi": 69,
      "time": 21,
      "duration": 0.273,
      "velocity": 0.71,
      "hand": "right"
    },
    {
      "midi": 74,
      "time": 21.273,
      "duration": 0.545,
      "velocity": 0.71,
      "hand": "right"
    },
    {
      "midi": 78,
      "time": 21.546,
      "duration": 0.273,
      "velocity": 0.71,
      "hand": "right"
    },
    {
      "midi": 64,
      "time": 21.819,
      "duration": 0.545,
      "velocity": 0.71,
      "hand": "right"
    },
    {
      "midi": 67,
      "time": 21.819,
      "duration": 0.818,
      "velocity": 0.71,
      "hand": "right"
    },
    {
      "midi": 79,
      "time": 21.819,
      "duration": 0.273,
      "velocity": 0.71,
      "hand": "right"
    },
    {
      "midi": 73,
      "time": 22.091,
      "duration": 0.273,
      "velocity": 0.71,
      "hand": "right"
    },
    {
      "midi": 62,
      "time": 22.364,
      "duration": 0.545,
      "velocity": 0.71,
      "hand": "right"
    },
    {
      "midi": 74,
      "time": 22.364,
      "duration": 1.076,
      "velocity": 0.71,
      "hand": "right"
    },
    {
      "midi": 66,
      "time": 22.637,
      "duration": 0.273,
      "velocity": 0.71,
      "hand": "right"
    },
    {
      "midi": 60,
      "time": 22.91,
      "duration": 0.545,
      "velocity": 0.71,
      "hand": "right"
    },
    {
      "midi": 72,
      "time": 22.91,
      "duration": 0.273,
      "velocity": 0.71,
      "hand": "right"
    },
    {
      "midi": 66,
      "time": 23.182,
      "duration": 0.273,
      "velocity": 0.71,
      "hand": "right"
    },
    {
      "midi": 59,
      "time": 23.455,
      "duration": 0.545,
      "velocity": 0.71,
      "hand": "left"
    },
    {
      "midi": 74,
      "time": 23.455,
      "duration": 0.818,
      "velocity": 0.71,
      "hand": "right"
    },
    {
      "midi": 60,
      "time": 24,
      "duration": 0.545,
      "velocity": 0.71,
      "hand": "right"
    },
    {
      "midi": 76,
      "time": 24,
      "duration": 0.545,
      "velocity": 0.71,
      "hand": "right"
    },
    {
      "midi": 72,
      "time": 24.273,
      "duration": 0.136,
      "velocity": 0.71,
      "hand": "right"
    },
    {
      "midi": 71,
      "time": 24.41,
      "duration": 0.136,
      "velocity": 0.71,
      "hand": "right"
    },
    {
      "midi": 62,
      "time": 24.546,
      "duration": 0.818,
      "velocity": 0.71,
      "hand": "right"
    },
    {
      "midi": 69,
      "time": 24.546,
      "duration": 0.545,
      "velocity": 0.71,
      "hand": "right"
    },
    {
      "midi": 78,
      "time": 24.546,
      "duration": 0.545,
      "velocity": 0.71,
      "hand": "right"
    },
    {
      "midi": 71,
      "time": 25.091,
      "duration": 0.545,
      "velocity": 0.71,
      "hand": "right"
    },
    {
      "midi": 79,
      "time": 25.091,
      "duration": 0.545,
      "velocity": 0.71,
      "hand": "right"
    },
    {
      "midi": 60,
      "time": 25.364,
      "duration": 0.136,
      "velocity": 0.71,
      "hand": "right"
    },
    {
      "midi": 59,
      "time": 25.5,
      "duration": 0.136,
      "velocity": 0.71,
      "hand": "left"
    },
    {
      "midi": 57,
      "time": 25.637,
      "duration": 0.545,
      "velocity": 0.71,
      "hand": "left"
    },
    {
      "midi": 72,
      "time": 25.637,
      "duration": 0.545,
      "velocity": 0.71,
      "hand": "right"
    },
    {
      "midi": 81,
      "time": 25.637,
      "duration": 0.545,
      "velocity": 0.71,
      "hand": "right"
    },
    {
      "midi": 59,
      "time": 26.182,
      "duration": 0.545,
      "velocity": 0.71,
      "hand": "left"
    },
    {
      "midi": 71,
      "time": 26.182,
      "duration": 0.273,
      "velocity": 0.71,
      "hand": "right"
    },
    {
      "midi": 75,
      "time": 26.182,
      "duration": 0.545,
      "velocity": 0.71,
      "hand": "right"
    },
    {
      "midi": 69,
      "time": 26.455,
      "duration": 0.273,
      "velocity": 0.71,
      "hand": "right"
    },
    {
      "midi": 52,
      "time": 26.728,
      "duration": 0.818,
      "velocity": 0.71,
      "hand": "left"
    },
    {
      "midi": 67,
      "time": 26.728,
      "duration": 0.273,
      "velocity": 0.71,
      "hand": "right"
    },
    {
      "midi": 79,
      "time": 26.728,
      "duration": 0.545,
      "velocity": 0.71,
      "hand": "right"
    },
    {
      "midi": 66,
      "time": 27,
      "duration": 0.273,
      "velocity": 0.71,
      "hand": "right"
    },
    {
      "midi": 64,
      "time": 27.273,
      "duration": 0.273,
      "velocity": 0.71,
      "hand": "right"
    },
    {
      "midi": 73,
      "time": 27.273,
      "duration": 0.545,
      "velocity": 0.71,
      "hand": "right"
    },
    {
      "midi": 54,
      "time": 27.546,
      "duration": 0.136,
      "velocity": 0.71,
      "hand": "left"
    },
    {
      "midi": 62,
      "time": 27.546,
      "duration": 0.273,
      "velocity": 0.71,
      "hand": "right"
    },
    {
      "midi": 55,
      "time": 27.682,
      "duration": 0.136,
      "velocity": 0.71,
      "hand": "left"
    },
    {
      "midi": 57,
      "time": 27.819,
      "duration": 0.545,
      "velocity": 0.71,
      "hand": "left"
    },
    {
      "midi": 61,
      "time": 27.819,
      "duration": 0.818,
      "velocity": 0.71,
      "hand": "right"
    },
    {
      "midi": 76,
      "time": 27.819,
      "duration": 0.545,
      "velocity": 0.71,
      "hand": "right"
    },
    {
      "midi": 50,
      "time": 28.364,
      "duration": 0.273,
      "velocity": 0.71,
      "hand": "left"
    },
    {
      "midi": 66,
      "time": 28.364,
      "duration": 0.273,
      "velocity": 0.71,
      "hand": "right"
    },
    {
      "midi": 52,
      "time": 28.637,
      "duration": 0.273,
      "velocity": 0.71,
      "hand": "left"
    },
    {
      "midi": 59,
      "time": 28.637,
      "duration": 0.136,
      "velocity": 0.71,
      "hand": "left"
    },
    {
      "midi": 67,
      "time": 28.637,
      "duration": 0.273,
      "velocity": 0.71,
      "hand": "right"
    },
    {
      "midi": 61,
      "time": 28.773,
      "duration": 0.136,
      "velocity": 0.71,
      "hand": "right"
    },
    {
      "midi": 54,
      "time": 28.91,
      "duration": 0.273,
      "velocity": 0.71,
      "hand": "left"
    },
    {
      "midi": 57,
      "time": 28.91,
      "duration": 0.53,
      "velocity": 0.71,
      "hand": "left"
    },
    {
      "midi": 69,
      "time": 28.91,
      "duration": 0.273,
      "velocity": 0.71,
      "hand": "right"
    },
    {
      "midi": 55,
      "time": 29.182,
      "duration": 0.273,
      "velocity": 0.71,
      "hand": "left"
    },
    {
      "midi": 71,
      "time": 29.182,
      "duration": 0.273,
      "velocity": 0.71,
      "hand": "right"
    },
    {
      "midi": 57,
      "time": 29.455,
      "duration": 0.273,
      "velocity": 0.71,
      "hand": "left"
    },
    {
      "midi": 66,
      "time": 29.455,
      "duration": 0.545,
      "velocity": 0.71,
      "hand": "right"
    },
    {
      "midi": 73,
      "time": 29.455,
      "duration": 0.273,
      "velocity": 0.71,
      "hand": "right"
    },
    {
      "midi": 59,
      "time": 29.728,
      "duration": 0.273,
      "velocity": 0.71,
      "hand": "left"
    },
    {
      "midi": 74,
      "time": 29.728,
      "duration": 0.273,
      "velocity": 0.71,
      "hand": "right"
    },
    {
      "midi": 55,
      "time": 30,
      "duration": 1.364,
      "velocity": 0.71,
      "hand": "left"
    },
    {
      "midi": 67,
      "time": 30,
      "duration": 0.273,
      "velocity": 0.71,
      "hand": "right"
    },
    {
      "midi": 71,
      "time": 30,
      "duration": 1.364,
      "velocity": 0.71,
      "hand": "right"
    },
    {
      "midi": 61,
      "time": 30.273,
      "duration": 0.273,
      "velocity": 0.71,
      "hand": "right"
    },
    {
      "midi": 62,
      "time": 30.546,
      "duration": 0.273,
      "velocity": 0.71,
      "hand": "right"
    },
    {
      "midi": 66,
      "time": 30.819,
      "duration": 0.273,
      "velocity": 0.71,
      "hand": "right"
    },
    {
      "midi": 67,
      "time": 31.091,
      "duration": 1.364,
      "velocity": 0.71,
      "hand": "right"
    },
    {
      "midi": 58,
      "time": 31.364,
      "duration": 0.273,
      "velocity": 0.71,
      "hand": "left"
    },
    {
      "midi": 73,
      "time": 31.364,
      "duration": 0.273,
      "velocity": 0.71,
      "hand": "right"
    },
    {
      "midi": 59,
      "time": 31.637,
      "duration": 0.273,
      "velocity": 0.71,
      "hand": "left"
    },
    {
      "midi": 74,
      "time": 31.637,
      "duration": 0.273,
      "velocity": 0.71,
      "hand": "right"
    },
    {
      "midi": 61,
      "time": 31.91,
      "duration": 0.273,
      "velocity": 0.71,
      "hand": "right"
    },
    {
      "midi": 71,
      "time": 31.91,
      "duration": 0.273,
      "velocity": 0.71,
      "hand": "right"
    },
    {
      "midi": 62,
      "time": 32.182,
      "duration": 0.818,
      "velocity": 0.71,
      "hand": "right"
    },
    {
      "midi": 69,
      "time": 32.182,
      "duration": 0.545,
      "velocity": 0.71,
      "hand": "right"
    },
    {
      "midi": 66,
      "time": 32.455,
      "duration": 0.273,
      "velocity": 0.71,
      "hand": "right"
    },
    {
      "midi": 71,
      "time": 32.728,
      "duration": 0.818,
      "velocity": 0.71,
      "hand": "right"
    },
    {
      "midi": 61,
      "time": 33,
      "duration": 0.273,
      "velocity": 0.71,
      "hand": "right"
    },
    {
      "midi": 66,
      "time": 33.273,
      "duration": 0.818,
      "velocity": 0.71,
      "hand": "right"
    },
    {
      "midi": 74,
      "time": 33.273,
      "duration": 0.531,
      "velocity": 0.71,
      "hand": "right"
    },
    {
      "midi": 69,
      "time": 33.546,
      "duration": 0.273,
      "velocity": 0.71,
      "hand": "right"
    },
    {
      "midi": 74,
      "time": 33.819,
      "duration": 0.818,
      "velocity": 0.71,
      "hand": "right"
    },
    {
      "midi": 83,
      "time": 33.819,
      "duration": 0.545,
      "velocity": 0.71,
      "hand": "right"
    },
    {
      "midi": 64,
      "time": 34.091,
      "duration": 0.273,
      "velocity": 0.71,
      "hand": "right"
    },
    {
      "midi": 69,
      "time": 34.364,
      "duration": 0.545,
      "velocity": 0.71,
      "hand": "right"
    },
    {
      "midi": 76,
      "time": 34.364,
      "duration": 1.364,
      "velocity": 0.71,
      "hand": "right"
    },
    {
      "midi": 73,
      "time": 34.637,
      "duration": 0.273,
      "velocity": 0.71,
      "hand": "right"
    },
    {
      "midi": 59,
      "time": 34.91,
      "duration": 0.545,
      "velocity": 0.71,
      "hand": "left"
    },
    {
      "midi": 62,
      "time": 34.91,
      "duration": 0.818,
      "velocity": 0.71,
      "hand": "right"
    },
    {
      "midi": 74,
      "time": 34.91,
      "duration": 0.273,
      "velocity": 0.71,
      "hand": "right"
    },
    {
      "midi": 68,
      "time": 35.182,
      "duration": 0.273,
      "velocity": 0.71,
      "hand": "right"
    },
    {
      "midi": 57,
      "time": 35.455,
      "duration": 0.545,
      "velocity": 0.71,
      "hand": "left"
    },
    {
      "midi": 69,
      "time": 35.455,
      "duration": 1.076,
      "velocity": 0.71,
      "hand": "right"
    },
    {
      "midi": 61,
      "time": 35.728,
      "duration": 0.273,
      "velocity": 0.71,
      "hand": "right"
    },
    {
      "midi": 79,
      "time": 35.728,
      "duration": 0.273,
      "velocity": 0.71,
      "hand": "right"
    },
    {
      "midi": 55,
      "time": 36,
      "duration": 0.545,
      "velocity": 0.71,
      "hand": "left"
    },
    {
      "midi": 67,
      "time": 36,
      "duration": 0.273,
      "velocity": 0.71,
      "hand": "right"
    },
    {
      "midi": 73,
      "time": 36,
      "duration": 0.273,
      "velocity": 0.71,
      "hand": "right"
    },
    {
      "midi": 61,
      "time": 36.273,
      "duration": 0.273,
      "velocity": 0.71,
      "hand": "right"
    },
    {
      "midi": 76,
      "time": 36.273,
      "duration": 0.273,
      "velocity": 0.71,
      "hand": "right"
    },
    {
      "midi": 54,
      "time": 36.546,
      "duration": 0.545,
      "velocity": 0.71,
      "hand": "left"
    },
    {
      "midi": 69,
      "time": 36.546,
      "duration": 0.818,
      "velocity": 0.71,
      "hand": "right"
    },
    {
      "midi": 74,
      "time": 36.546,
      "duration": 0.545,
      "velocity": 0.71,
      "hand": "right"
    },
    {
      "midi": 55,
      "time": 37.091,
      "duration": 0.545,
      "velocity": 0.71,
      "hand": "left"
    },
    {
      "midi": 71,
      "time": 37.091,
      "duration": 0.545,
      "velocity": 0.71,
      "hand": "right"
    },
    {
      "midi": 67,
      "time": 37.364,
      "duration": 0.136,
      "velocity": 0.71,
      "hand": "right"
    },
    {
      "midi": 66,
      "time": 37.5,
      "duration": 0.136,
      "velocity": 0.71,
      "hand": "right"
    },
    {
      "midi": 57,
      "time": 37.637,
      "duration": 0.818,
      "velocity": 0.71,
      "hand": "left"
    },
    {
      "midi": 64,
      "time": 37.637,
      "duration": 0.545,
      "velocity": 0.71,
      "hand": "right"
    },
    {
      "midi": 73,
      "time": 37.637,
      "duration": 0.545,
      "velocity": 0.71,
      "hand": "right"
    },
    {
      "midi": 66,
      "time": 38.182,
      "duration": 0.545,
      "velocity": 0.71,
      "hand": "right"
    },
    {
      "midi": 74,
      "time": 38.182,
      "duration": 0.545,
      "velocity": 0.71,
      "hand": "right"
    },
    {
      "midi": 81,
      "time": 38.182,
      "duration": 0.545,
      "velocity": 0.71,
      "hand": "right"
    },
    {
      "midi": 55,
      "time": 38.455,
      "duration": 0.136,
      "velocity": 0.71,
      "hand": "left"
    },
    {
      "midi": 54,
      "time": 38.591,
      "duration": 0.136,
      "velocity": 0.71,
      "hand": "left"
    },
    {
      "midi": 52,
      "time": 38.728,
      "duration": 0.545,
      "velocity": 0.71,
      "hand": "left"
    },
    {
      "midi": 67,
      "time": 38.728,
      "duration": 0.545,
      "velocity": 0.71,
      "hand": "right"
    },
    {
      "midi": 76,
      "time": 38.728,
      "duration": 0.545,
      "velocity": 0.71,
      "hand": "right"
    },
    {
      "midi": 79,
      "time": 38.728,
      "duration": 0.545,
      "velocity": 0.71,
      "hand": "right"
    },
    {
      "midi": 54,
      "time": 39.273,
      "duration": 0.545,
      "velocity": 0.71,
      "hand": "left"
    },
    {
      "midi": 66,
      "time": 39.273,
      "duration": 0.273,
      "velocity": 0.71,
      "hand": "right"
    },
    {
      "midi": 70,
      "time": 39.273,
      "duration": 0.545,
      "velocity": 0.71,
      "hand": "right"
    },
    {
      "midi": 73,
      "time": 39.273,
      "duration": 0.545,
      "velocity": 0.71,
      "hand": "right"
    },
    {
      "midi": 64,
      "time": 39.546,
      "duration": 0.273,
      "velocity": 0.71,
      "hand": "right"
    },
    {
      "midi": 47,
      "time": 39.819,
      "duration": 0.818,
      "velocity": 0.71,
      "hand": "left"
    },
    {
      "midi": 62,
      "time": 39.819,
      "duration": 0.273,
      "velocity": 0.71,
      "hand": "right"
    },
    {
      "midi": 71,
      "time": 39.819,
      "duration": 0.545,
      "velocity": 0.71,
      "hand": "right"
    },
    {
      "midi": 74,
      "time": 39.819,
      "duration": 0.53,
      "velocity": 0.71,
      "hand": "right"
    },
    {
      "midi": 61,
      "time": 40.091,
      "duration": 0.273,
      "velocity": 0.71,
      "hand": "right"
    },
    {
      "midi": 59,
      "time": 40.364,
      "duration": 0.273,
      "velocity": 0.71,
      "hand": "left"
    },
    {
      "midi": 68,
      "time": 40.364,
      "duration": 0.545,
      "velocity": 0.71,
      "hand": "right"
    },
    {
      "midi": 74,
      "time": 40.364,
      "duration": 0.545,
      "velocity": 0.71,
      "hand": "right"
    },
    {
      "midi": 49,
      "time": 40.637,
      "duration": 0.136,
      "velocity": 0.71,
      "hand": "left"
    },
    {
      "midi": 57,
      "time": 40.637,
      "duration": 0.273,
      "velocity": 0.71,
      "hand": "left"
    },
    {
      "midi": 50,
      "time": 40.773,
      "duration": 0.136,
      "velocity": 0.71,
      "hand": "left"
    },
    {
      "midi": 52,
      "time": 40.91,
      "duration": 0.545,
      "velocity": 0.71,
      "hand": "left"
    },
    {
      "midi": 55,
      "time": 40.91,
      "duration": 0.818,
      "velocity": 0.71,
      "hand": "left"
    },
    {
      "midi": 67,
      "time": 40.91,
      "duration": 0.545,
      "velocity": 0.71,
      "hand": "right"
    },
    {
      "midi": 71,
      "time": 40.91,
      "duration": 0.545,
      "velocity": 0.71,
      "hand": "right"
    },
    {
      "midi": 45,
      "time": 41.455,
      "duration": 0.273,
      "velocity": 0.71,
      "hand": "left"
    },
    {
      "midi": 61,
      "time": 41.455,
      "duration": 0.273,
      "velocity": 0.71,
      "hand": "right"
    },
    {
      "midi": 64,
      "time": 41.455,
      "duration": 0.53,
      "velocity": 0.71,
      "hand": "right"
    },
    {
      "midi": 47,
      "time": 41.728,
      "duration": 0.273,
      "velocity": 0.71,
      "hand": "left"
    },
    {
      "midi": 54,
      "time": 41.728,
      "duration": 0.136,
      "velocity": 0.71,
      "hand": "left"
    },
    {
      "midi": 62,
      "time": 41.728,
      "duration": 0.273,
      "velocity": 0.71,
      "hand": "right"
    },
    {
      "midi": 55,
      "time": 41.864,
      "duration": 0.136,
      "velocity": 0.71,
      "hand": "left"
    },
    {
      "midi": 49,
      "time": 42,
      "duration": 0.273,
      "velocity": 0.71,
      "hand": "left"
    },
    {
      "midi": 52,
      "time": 42,
      "duration": 0.531,
      "velocity": 0.71,
      "hand": "left"
    },
    {
      "midi": 64,
      "time": 42,
      "duration": 0.273,
      "velocity": 0.71,
      "hand": "right"
    },
    {
      "midi": 50,
      "time": 42.273,
      "duration": 0.273,
      "velocity": 0.71,
      "hand": "left"
    },
    {
      "midi": 66,
      "time": 42.273,
      "duration": 0.273,
      "velocity": 0.71,
      "hand": "right"
    },
    {
      "midi": 52,
      "time": 42.546,
      "duration": 0.273,
      "velocity": 0.71,
      "hand": "left"
    },
    {
      "midi": 61,
      "time": 42.546,
      "duration": 0.545,
      "velocity": 0.71,
      "hand": "right"
    },
    {
      "midi": 67,
      "time": 42.546,
      "duration": 0.273,
      "velocity": 0.71,
      "hand": "right"
    },
    {
      "midi": 54,
      "time": 42.819,
      "duration": 0.273,
      "velocity": 0.71,
      "hand": "left"
    },
    {
      "midi": 69,
      "time": 42.819,
      "duration": 0.273,
      "velocity": 0.71,
      "hand": "right"
    },
    {
      "midi": 50,
      "time": 43.091,
      "duration": 1.364,
      "velocity": 0.71,
      "hand": "left"
    },
    {
      "midi": 62,
      "time": 43.091,
      "duration": 0.273,
      "velocity": 0.71,
      "hand": "right"
    },
    {
      "midi": 66,
      "time": 43.091,
      "duration": 1.364,
      "velocity": 0.71,
      "hand": "right"
    },
    {
      "midi": 56,
      "time": 43.364,
      "duration": 0.273,
      "velocity": 0.71,
      "hand": "left"
    },
    {
      "midi": 57,
      "time": 43.637,
      "duration": 0.273,
      "velocity": 0.71,
      "hand": "left"
    },
    {
      "midi": 59,
      "time": 43.91,
      "duration": 0.273,
      "velocity": 0.71,
      "hand": "left"
    },
    {
      "midi": 60,
      "time": 44.182,
      "duration": 1.364,
      "velocity": 0.71,
      "hand": "right"
    },
    {
      "midi": 51,
      "time": 44.455,
      "duration": 0.273,
      "velocity": 0.71,
      "hand": "left"
    },
    {
      "midi": 69,
      "time": 44.455,
      "duration": 0.273,
      "velocity": 0.71,
      "hand": "right"
    },
    {
      "midi": 52,
      "time": 44.728,
      "duration": 0.273,
      "velocity": 0.71,
      "hand": "left"
    },
    {
      "midi": 67,
      "time": 44.728,
      "duration": 0.273,
      "velocity": 0.71,
      "hand": "right"
    },
    {
      "midi": 54,
      "time": 45,
      "duration": 0.273,
      "velocity": 0.71,
      "hand": "left"
    },
    {
      "midi": 63,
      "time": 45,
      "duration": 0.273,
      "velocity": 0.71,
      "hand": "right"
    },
    {
      "midi": 55,
      "time": 45.273,
      "duration": 0.818,
      "velocity": 0.71,
      "hand": "left"
    },
    {
      "midi": 64,
      "time": 45.273,
      "duration": 0.273,
      "velocity": 0.71,
      "hand": "right"
    },
    {
      "midi": 59,
      "time": 45.546,
      "duration": 0.273,
      "velocity": 0.71,
      "hand": "left"
    },
    {
      "midi": 67,
      "time": 45.546,
      "duration": 0.273,
      "velocity": 0.71,
      "hand": "right"
    },
    {
      "midi": 64,
      "time": 45.819,
      "duration": 0.818,
      "velocity": 0.71,
      "hand": "right"
    },
    {
      "midi": 54,
      "time": 46.091,
      "duration": 0.273,
      "velocity": 0.71,
      "hand": "left"
    },
    {
      "midi": 69,
      "time": 46.091,
      "duration": 0.273,
      "velocity": 0.71,
      "hand": "right"
    },
    {
      "midi": 59,
      "time": 46.364,
      "duration": 0.818,
      "velocity": 0.71,
      "hand": "left"
    },
    {
      "midi": 67,
      "time": 46.364,
      "duration": 0.273,
      "velocity": 0.71,
      "hand": "right"
    },
    {
      "midi": 62,
      "time": 46.637,
      "duration": 0.273,
      "velocity": 0.71,
      "hand": "right"
    },
    {
      "midi": 71,
      "time": 46.637,
      "duration": 0.273,
      "velocity": 0.71,
      "hand": "right"
    },
    {
      "midi": 67,
      "time": 46.91,
      "duration": 0.818,
      "velocity": 0.71,
      "hand": "right"
    },
    {
      "midi": 57,
      "time": 47.182,
      "duration": 0.273,
      "velocity": 0.71,
      "hand": "left"
    },
    {
      "midi": 73,
      "time": 47.182,
      "duration": 0.273,
      "velocity": 0.71,
      "hand": "right"
    },
    {
      "midi": 62,
      "time": 47.455,
      "duration": 0.545,
      "velocity": 0.71,
      "hand": "right"
    },
    {
      "midi": 74,
      "time": 47.455,
      "duration": 0.545,
      "velocity": 0.71,
      "hand": "right"
    },
    {
      "midi": 66,
      "time": 47.728,
      "duration": 0.273,
      "velocity": 0.71,
      "hand": "right"
    },
    {
      "midi": 43,
      "time": 48,
      "duration": 0.818,
      "velocity": 0.71,
      "hand": "left"
    },
    {
      "midi": 67,
      "time": 48,
      "duration": 0.273,
      "velocity": 0.71,
      "hand": "right"
    },
    {
      "midi": 76,
      "time": 48,
      "duration": 0.545,
      "velocity": 0.71,
      "hand": "right"
    },
    {
      "midi": 61,
      "time": 48.273,
      "duration": 0.273,
      "velocity": 0.71,
      "hand": "right"
    },
    {
      "midi": 62,
      "time": 48.546,
      "duration": 1.076,
      "velocity": 0.71,
      "hand": "right"
    },
    {
      "midi": 69,
      "time": 48.546,
      "duration": 0.273,
      "velocity": 0.71,
      "hand": "right"
    },
    {
      "midi": 74,
      "time": 48.546,
      "duration": 0.545,
      "velocity": 0.71,
      "hand": "right"
    },
    {
      "midi": 42,
      "time": 48.819,
      "duration": 0.273,
      "velocity": 0.71,
      "hand": "left"
    },
    {
      "midi": 72,
      "time": 48.819,
      "duration": 0.257,
      "velocity": 0.71,
      "hand": "right"
    },
    {
      "midi": 48,
      "time": 49.091,
      "duration": 0.273,
      "velocity": 0.71,
      "hand": "left"
    },
    {
      "midi": 66,
      "time": 49.091,
      "duration": 0.273,
      "velocity": 0.71,
      "hand": "right"
    },
    {
      "midi": 72,
      "time": 49.091,
      "duration": 0.545,
      "velocity": 0.71,
      "hand": "right"
    },
    {
      "midi": 42,
      "time": 49.364,
      "duration": 0.273,
      "velocity": 0.71,
      "hand": "left"
    },
    {
      "midi": 69,
      "time": 49.364,
      "duration": 0.273,
      "velocity": 0.71,
      "hand": "right"
    },
    {
      "midi": 43,
      "time": 49.637,
      "duration": 0.545,
      "velocity": 0.71,
      "hand": "left"
    },
    {
      "midi": 62,
      "time": 49.637,
      "duration": 0.273,
      "velocity": 0.71,
      "hand": "right"
    },
    {
      "midi": 67,
      "time": 49.637,
      "duration": 0.545,
      "velocity": 0.71,
      "hand": "right"
    },
    {
      "midi": 71,
      "time": 49.637,
      "duration": 0.545,
      "velocity": 0.71,
      "hand": "right"
    },
    {
      "midi": 55,
      "time": 49.91,
      "duration": 0.257,
      "velocity": 0.71,
      "hand": "left"
    },
    {
      "midi": 55,
      "time": 50.182,
      "duration": 0.258,
      "velocity": 0.71,
      "hand": "left"
    },
    {
      "midi": 69,
      "time": 50.182,
      "duration": 0.545,
      "velocity": 0.71,
      "hand": "right"
    },
    {
      "midi": 72,
      "time": 50.182,
      "duration": 0.545,
      "velocity": 0.71,
      "hand": "right"
    },
    {
      "midi": 55,
      "time": 50.455,
      "duration": 0.258,
      "velocity": 0.71,
      "hand": "left"
    },
    {
      "midi": 55,
      "time": 50.728,
      "duration": 0.257,
      "velocity": 0.71,
      "hand": "left"
    },
    {
      "midi": 71,
      "time": 50.728,
      "duration": 0.818,
      "velocity": 0.71,
      "hand": "right"
    },
    {
      "midi": 74,
      "time": 50.728,
      "duration": 0.818,
      "velocity": 0.71,
      "hand": "right"
    },
    {
      "midi": 55,
      "time": 51,
      "duration": 0.273,
      "velocity": 0.71,
      "hand": "left"
    },
    {
      "midi": 59,
      "time": 51.273,
      "duration": 0.273,
      "velocity": 0.71,
      "hand": "left"
    },
    {
      "midi": 60,
      "time": 51.546,
      "duration": 0.273,
      "velocity": 0.71,
      "hand": "right"
    },
    {
      "midi": 69,
      "time": 51.546,
      "duration": 0.136,
      "velocity": 0.71,
      "hand": "right"
    },
    {
      "midi": 72,
      "time": 51.546,
      "duration": 0.136,
      "velocity": 0.71,
      "hand": "right"
    },
    {
      "midi": 67,
      "time": 51.682,
      "duration": 0.136,
      "velocity": 0.71,
      "hand": "right"
    },
    {
      "midi": 71,
      "time": 51.682,
      "duration": 0.136,
      "velocity": 0.71,
      "hand": "right"
    },
    {
      "midi": 62,
      "time": 51.819,
      "duration": 0.545,
      "velocity": 0.71,
      "hand": "right"
    },
    {
      "midi": 66,
      "time": 51.819,
      "duration": 0.545,
      "velocity": 0.71,
      "hand": "right"
    },
    {
      "midi": 69,
      "time": 51.819,
      "duration": 0.545,
      "velocity": 0.71,
      "hand": "right"
    },
    {
      "midi": 50,
      "time": 52.091,
      "duration": 0.258,
      "velocity": 0.71,
      "hand": "left"
    },
    {
      "midi": 50,
      "time": 52.364,
      "duration": 0.258,
      "velocity": 0.71,
      "hand": "left"
    },
    {
      "midi": 54,
      "time": 52.364,
      "duration": 0.545,
      "velocity": 0.71,
      "hand": "left"
    },
    {
      "midi": 71,
      "time": 52.364,
      "duration": 0.545,
      "velocity": 0.71,
      "hand": "right"
    },
    {
      "midi": 50,
      "time": 52.637,
      "duration": 0.258,
      "velocity": 0.71,
      "hand": "left"
    },
    {
      "midi": 50,
      "time": 52.91,
      "duration": 0.257,
      "velocity": 0.71,
      "hand": "left"
    },
    {
      "midi": 56,
      "time": 52.91,
      "duration": 0.818,
      "velocity": 0.71,
      "hand": "left"
    },
    {
      "midi": 64,
      "time": 52.91,
      "duration": 0.818,
      "velocity": 0.71,
      "hand": "right"
    },
    {
      "midi": 50,
      "time": 53.182,
      "duration": 0.273,
      "velocity": 0.71,
      "hand": "left"
    },
    {
      "midi": 48,
      "time": 53.455,
      "duration": 0.273,
      "velocity": 0.71,
      "hand": "left"
    },
    {
      "midi": 47,
      "time": 53.728,
      "duration": 0.273,
      "velocity": 0.71,
      "hand": "left"
    },
    {
      "midi": 57,
      "time": 53.728,
      "duration": 0.136,
      "velocity": 0.71,
      "hand": "left"
    },
    {
      "midi": 66,
      "time": 53.728,
      "duration": 0.136,
      "velocity": 0.71,
      "hand": "right"
    },
    {
      "midi": 59,
      "time": 53.864,
      "duration": 0.136,
      "velocity": 0.71,
      "hand": "left"
    },
    {
      "midi": 67,
      "time": 53.864,
      "duration": 0.136,
      "velocity": 0.71,
      "hand": "right"
    },
    {
      "midi": 45,
      "time": 54,
      "duration": 0.545,
      "velocity": 0.71,
      "hand": "left"
    },
    {
      "midi": 60,
      "time": 54,
      "duration": 0.273,
      "velocity": 0.71,
      "hand": "right"
    },
    {
      "midi": 69,
      "time": 54,
      "duration": 0.545,
      "velocity": 0.71,
      "hand": "right"
    },
    {
      "midi": 57,
      "time": 54.273,
      "duration": 0.273,
      "velocity": 0.71,
      "hand": "left"
    },
    {
      "midi": 48,
      "time": 54.546,
      "duration": 0.545,
      "velocity": 0.71,
      "hand": "left"
    },
    {
      "midi": 54,
      "time": 54.546,
      "duration": 0.273,
      "velocity": 0.71,
      "hand": "left"
    },
    {
      "midi": 62,
      "time": 54.546,
      "duration": 1.076,
      "velocity": 0.71,
      "hand": "right"
    },
    {
      "midi": 55,
      "time": 54.819,
      "duration": 0.273,
      "velocity": 0.71,
      "hand": "left"
    },
    {
      "midi": 64,
      "time": 54.819,
      "duration": 0.273,
      "velocity": 0.71,
      "hand": "right"
    },
    {
      "midi": 38,
      "time": 55.091,
      "duration": 0.545,
      "velocity": 0.71,
      "hand": "left"
    },
    {
      "midi": 57,
      "time": 55.091,
      "duration": 0.273,
      "velocity": 0.71,
      "hand": "left"
    },
    {
      "midi": 66,
      "time": 55.091,
      "duration": 0.273,
      "velocity": 0.71,
      "hand": "right"
    },
    {
      "midi": 55,
      "time": 55.364,
      "duration": 0.273,
      "velocity": 0.71,
      "hand": "left"
    },
    {
      "midi": 67,
      "time": 55.364,
      "duration": 0.273,
      "velocity": 0.71,
      "hand": "right"
    },
    {
      "midi": 48,
      "time": 55.637,
      "duration": 0.545,
      "velocity": 0.71,
      "hand": "left"
    },
    {
      "midi": 54,
      "time": 55.637,
      "duration": 0.545,
      "velocity": 0.71,
      "hand": "left"
    },
    {
      "midi": 62,
      "time": 55.637,
      "duration": 0.53,
      "velocity": 0.71,
      "hand": "right"
    },
    {
      "midi": 69,
      "time": 55.637,
      "duration": 0.273,
      "velocity": 0.71,
      "hand": "right"
    },
    {
      "midi": 71,
      "time": 55.91,
      "duration": 0.273,
      "velocity": 0.71,
      "hand": "right"
    },
    {
      "midi": 47,
      "time": 56.182,
      "duration": 0.545,
      "velocity": 0.71,
      "hand": "left"
    },
    {
      "midi": 55,
      "time": 56.182,
      "duration": 0.545,
      "velocity": 0.71,
      "hand": "left"
    },
    {
      "midi": 62,
      "time": 56.182,
      "duration": 0.545,
      "velocity": 0.71,
      "hand": "right"
    },
    {
      "midi": 67,
      "time": 56.182,
      "duration": 0.545,
      "velocity": 0.71,
      "hand": "right"
    }
  ],
  "arrangements": {
    "easy": [
      {
        "midi": 76,
        "time": 0,
        "duration": 0.545,
        "velocity": 0.71,
        "hand": "right"
      },
      {
        "midi": 72,
        "time": 1.091,
        "duration": 0.545,
        "velocity": 0.71,
        "hand": "right"
      },
      {
        "midi": 72,
        "time": 2.182,
        "duration": 0.545,
        "velocity": 0.71,
        "hand": "right"
      },
      {
        "midi": 72,
        "time": 3.546,
        "duration": 0.327,
        "velocity": 0.71,
        "hand": "right"
      },
      {
        "midi": 71,
        "time": 4.364,
        "duration": 0.545,
        "velocity": 0.71,
        "hand": "right"
      },
      {
        "midi": 66,
        "time": 5.728,
        "duration": 0.327,
        "velocity": 0.71,
        "hand": "right"
      },
      {
        "midi": 62,
        "time": 6.546,
        "duration": 0.327,
        "velocity": 0.71,
        "hand": "right"
      },
      {
        "midi": 67,
        "time": 7.364,
        "duration": 0.327,
        "velocity": 0.71,
        "hand": "right"
      },
      {
        "midi": 67,
        "time": 8.182,
        "duration": 0.545,
        "velocity": 0.71,
        "hand": "right"
      },
      {
        "midi": 69,
        "time": 9.273,
        "duration": 0.545,
        "velocity": 0.71,
        "hand": "right"
      },
      {
        "midi": 73,
        "time": 10.091,
        "duration": 0.327,
        "velocity": 0.71,
        "hand": "right"
      },
      {
        "midi": 67,
        "time": 10.91,
        "duration": 0.545,
        "velocity": 0.71,
        "hand": "right"
      },
      {
        "midi": 78,
        "time": 12,
        "duration": 0.545,
        "velocity": 0.71,
        "hand": "right"
      },
      {
        "midi": 78,
        "time": 13.091,
        "duration": 0.327,
        "velocity": 0.71,
        "hand": "right"
      },
      {
        "midi": 73,
        "time": 13.91,
        "duration": 0.327,
        "velocity": 0.71,
        "hand": "right"
      },
      {
        "midi": 62,
        "time": 14.591,
        "duration": 0.327,
        "velocity": 0.71,
        "hand": "right"
      },
      {
        "midi": 57,
        "time": 15.273,
        "duration": 0.327,
        "velocity": 0.71,
        "hand": "right"
      },
      {
        "midi": 62,
        "time": 16.091,
        "duration": 0.327,
        "velocity": 0.71,
        "hand": "right"
      },
      {
        "midi": 74,
        "time": 16.91,
        "duration": 0.327,
        "velocity": 0.71,
        "hand": "right"
      },
      {
        "midi": 71,
        "time": 17.728,
        "duration": 0.327,
        "velocity": 0.71,
        "hand": "right"
      },
      {
        "midi": 64,
        "time": 18.546,
        "duration": 0.327,
        "velocity": 0.71,
        "hand": "right"
      },
      {
        "midi": 71,
        "time": 19.364,
        "duration": 0.327,
        "velocity": 0.71,
        "hand": "right"
      },
      {
        "midi": 71,
        "time": 20.182,
        "duration": 0.818,
        "velocity": 0.71,
        "hand": "right"
      },
      {
        "midi": 69,
        "time": 21,
        "duration": 0.327,
        "velocity": 0.71,
        "hand": "right"
      },
      {
        "midi": 79,
        "time": 21.819,
        "duration": 0.327,
        "velocity": 0.71,
        "hand": "right"
      },
      {
        "midi": 66,
        "time": 22.637,
        "duration": 0.327,
        "velocity": 0.71,
        "hand": "right"
      },
      {
        "midi": 74,
        "time": 23.455,
        "duration": 0.818,
        "velocity": 0.71,
        "hand": "right"
      },
      {
        "midi": 72,
        "time": 24.273,
        "duration": 0.327,
        "velocity": 0.71,
        "hand": "right"
      },
      {
        "midi": 79,
        "time": 25.091,
        "duration": 0.545,
        "velocity": 0.71,
        "hand": "right"
      },
      {
        "midi": 75,
        "time": 26.182,
        "duration": 0.545,
        "velocity": 0.71,
        "hand": "right"
      },
      {
        "midi": 66,
        "time": 27,
        "duration": 0.327,
        "velocity": 0.71,
        "hand": "right"
      },
      {
        "midi": 55,
        "time": 27.682,
        "duration": 0.327,
        "velocity": 0.71,
        "hand": "right"
      },
      {
        "midi": 66,
        "time": 28.364,
        "duration": 0.327,
        "velocity": 0.71,
        "hand": "right"
      },
      {
        "midi": 71,
        "time": 29.182,
        "duration": 0.327,
        "velocity": 0.71,
        "hand": "right"
      },
      {
        "midi": 71,
        "time": 30,
        "duration": 1.364,
        "velocity": 0.71,
        "hand": "right"
      },
      {
        "midi": 66,
        "time": 30.819,
        "duration": 0.327,
        "velocity": 0.71,
        "hand": "right"
      },
      {
        "midi": 74,
        "time": 31.637,
        "duration": 0.327,
        "velocity": 0.71,
        "hand": "right"
      },
      {
        "midi": 66,
        "time": 32.455,
        "duration": 0.327,
        "velocity": 0.71,
        "hand": "right"
      },
      {
        "midi": 74,
        "time": 33.273,
        "duration": 0.531,
        "velocity": 0.71,
        "hand": "right"
      },
      {
        "midi": 64,
        "time": 34.091,
        "duration": 0.327,
        "velocity": 0.71,
        "hand": "right"
      },
      {
        "midi": 74,
        "time": 34.91,
        "duration": 0.327,
        "velocity": 0.71,
        "hand": "right"
      },
      {
        "midi": 79,
        "time": 35.728,
        "duration": 0.327,
        "velocity": 0.71,
        "hand": "right"
      },
      {
        "midi": 74,
        "time": 36.546,
        "duration": 0.545,
        "velocity": 0.71,
        "hand": "right"
      },
      {
        "midi": 67,
        "time": 37.364,
        "duration": 0.327,
        "velocity": 0.71,
        "hand": "right"
      },
      {
        "midi": 81,
        "time": 38.182,
        "duration": 0.545,
        "velocity": 0.71,
        "hand": "right"
      },
      {
        "midi": 73,
        "time": 39.273,
        "duration": 0.545,
        "velocity": 0.71,
        "hand": "right"
      },
      {
        "midi": 61,
        "time": 40.091,
        "duration": 0.327,
        "velocity": 0.71,
        "hand": "right"
      },
      {
        "midi": 62,
        "time": 40.773,
        "duration": 0.327,
        "velocity": 0.71,
        "hand": "right"
      },
      {
        "midi": 64,
        "time": 41.455,
        "duration": 0.53,
        "velocity": 0.71,
        "hand": "right"
      },
      {
        "midi": 66,
        "time": 42.273,
        "duration": 0.327,
        "velocity": 0.71,
        "hand": "right"
      },
      {
        "midi": 66,
        "time": 43.091,
        "duration": 1.364,
        "velocity": 0.71,
        "hand": "right"
      },
      {
        "midi": 59,
        "time": 43.91,
        "duration": 0.327,
        "velocity": 0.71,
        "hand": "right"
      },
      {
        "midi": 67,
        "time": 44.728,
        "duration": 0.327,
        "velocity": 0.71,
        "hand": "right"
      },
      {
        "midi": 67,
        "time": 45.546,
        "duration": 0.327,
        "velocity": 0.71,
        "hand": "right"
      },
      {
        "midi": 67,
        "time": 46.364,
        "duration": 0.327,
        "velocity": 0.71,
        "hand": "right"
      },
      {
        "midi": 73,
        "time": 47.182,
        "duration": 0.327,
        "velocity": 0.71,
        "hand": "right"
      },
      {
        "midi": 76,
        "time": 48,
        "duration": 0.545,
        "velocity": 0.71,
        "hand": "right"
      },
      {
        "midi": 72,
        "time": 48.819,
        "duration": 0.327,
        "velocity": 0.71,
        "hand": "right"
      },
      {
        "midi": 71,
        "time": 49.637,
        "duration": 0.545,
        "velocity": 0.71,
        "hand": "right"
      },
      {
        "midi": 55,
        "time": 50.455,
        "duration": 0.327,
        "velocity": 0.71,
        "hand": "right"
      },
      {
        "midi": 59,
        "time": 51.273,
        "duration": 0.327,
        "velocity": 0.71,
        "hand": "right"
      },
      {
        "midi": 62,
        "time": 52.091,
        "duration": 0.327,
        "velocity": 0.71,
        "hand": "right"
      },
      {
        "midi": 64,
        "time": 52.91,
        "duration": 0.818,
        "velocity": 0.71,
        "hand": "right"
      },
      {
        "midi": 66,
        "time": 53.728,
        "duration": 0.327,
        "velocity": 0.71,
        "hand": "right"
      },
      {
        "midi": 62,
        "time": 54.546,
        "duration": 1.076,
        "velocity": 0.71,
        "hand": "right"
      },
      {
        "midi": 67,
        "time": 55.364,
        "duration": 0.327,
        "velocity": 0.71,
        "hand": "right"
      },
      {
        "midi": 67,
        "time": 56.182,
        "duration": 0.545,
        "velocity": 0.71,
        "hand": "right"
      }
    ],
    "medium": [
      {
        "midi": 76,
        "time": 0,
        "duration": 0.545,
        "velocity": 0.71,
        "hand": "right"
      },
      {
        "midi": 72,
        "time": 1.091,
        "duration": 0.545,
        "velocity": 0.71,
        "hand": "right"
      },
      {
        "midi": 72,
        "time": 2.182,
        "duration": 0.545,
        "velocity": 0.71,
        "hand": "right"
      },
      {
        "midi": 72,
        "time": 3.546,
        "duration": 0.191,
        "velocity": 0.71,
        "hand": "right"
      },
      {
        "midi": 71,
        "time": 4.364,
        "duration": 0.545,
        "velocity": 0.71,
        "hand": "right"
      },
      {
        "midi": 66,
        "time": 5.728,
        "duration": 0.191,
        "velocity": 0.71,
        "hand": "right"
      },
      {
        "midi": 62,
        "time": 6.546,
        "duration": 0.273,
        "velocity": 0.71,
        "hand": "right"
      },
      {
        "midi": 67,
        "time": 7.364,
        "duration": 0.273,
        "velocity": 0.71,
        "hand": "right"
      },
      {
        "midi": 67,
        "time": 8.182,
        "duration": 0.545,
        "velocity": 0.71,
        "hand": "right"
      },
      {
        "midi": 69,
        "time": 9.273,
        "duration": 0.545,
        "velocity": 0.71,
        "hand": "right"
      },
      {
        "midi": 73,
        "time": 10.091,
        "duration": 0.273,
        "velocity": 0.71,
        "hand": "right"
      },
      {
        "midi": 67,
        "time": 10.91,
        "duration": 0.545,
        "velocity": 0.71,
        "hand": "right"
      },
      {
        "midi": 78,
        "time": 12,
        "duration": 0.545,
        "velocity": 0.71,
        "hand": "right"
      },
      {
        "midi": 66,
        "time": 13.091,
        "duration": 0.545,
        "velocity": 0.71,
        "hand": "right"
      },
      {
        "midi": 78,
        "time": 13.091,
        "duration": 0.273,
        "velocity": 0.71,
        "hand": "right"
      },
      {
        "midi": 73,
        "time": 13.91,
        "duration": 0.273,
        "velocity": 0.71,
        "hand": "right"
      },
      {
        "midi": 62,
        "time": 14.591,
        "duration": 0.191,
        "velocity": 0.71,
        "hand": "right"
      },
      {
        "midi": 57,
        "time": 15.273,
        "duration": 0.273,
        "velocity": 0.71,
        "hand": "left"
      },
      {
        "midi": 62,
        "time": 16.091,
        "duration": 0.273,
        "velocity": 0.71,
        "hand": "right"
      },
      {
        "midi": 62,
        "time": 16.91,
        "duration": 1.364,
        "velocity": 0.71,
        "hand": "right"
      },
      {
        "midi": 74,
        "time": 16.91,
        "duration": 0.273,
        "velocity": 0.71,
        "hand": "right"
      },
      {
        "midi": 71,
        "time": 17.728,
        "duration": 0.273,
        "velocity": 0.71,
        "hand": "right"
      },
      {
        "midi": 64,
        "time": 18.546,
        "duration": 0.273,
        "velocity": 0.71,
        "hand": "right"
      },
      {
        "midi": 71,
        "time": 19.364,
        "duration": 0.273,
        "velocity": 0.71,
        "hand": "right"
      },
      {
        "midi": 71,
        "time": 20.182,
        "duration": 0.818,
        "velocity": 0.71,
        "hand": "right"
      },
      {
        "midi": 69,
        "time": 21,
        "duration": 0.273,
        "velocity": 0.71,
        "hand": "right"
      },
      {
        "midi": 64,
        "time": 21.819,
        "duration": 0.545,
        "velocity": 0.71,
        "hand": "right"
      },
      {
        "midi": 79,
        "time": 21.819,
        "duration": 0.273,
        "velocity": 0.71,
        "hand": "right"
      },
      {
        "midi": 66,
        "time": 22.637,
        "duration": 0.273,
        "velocity": 0.71,
        "hand": "right"
      },
      {
        "midi": 59,
        "time": 23.455,
        "duration": 0.545,
        "velocity": 0.71,
        "hand": "left"
      },
      {
        "midi": 74,
        "time": 23.455,
        "duration": 0.818,
        "velocity": 0.71,
        "hand": "right"
      },
      {
        "midi": 72,
        "time": 24.273,
        "duration": 0.191,
        "velocity": 0.71,
        "hand": "right"
      },
      {
        "midi": 71,
        "time": 25.091,
        "duration": 0.545,
        "velocity": 0.71,
        "hand": "right"
      },
      {
        "midi": 79,
        "time": 25.091,
        "duration": 0.545,
        "velocity": 0.71,
        "hand": "right"
      },
      {
        "midi": 59,
        "time": 26.182,
        "duration": 0.545,
        "velocity": 0.71,
        "hand": "left"
      },
      {
        "midi": 75,
        "time": 26.182,
        "duration": 0.545,
        "velocity": 0.71,
        "hand": "right"
      },
      {
        "midi": 66,
        "time": 27,
        "duration": 0.273,
        "velocity": 0.71,
        "hand": "right"
      },
      {
        "midi": 55,
        "time": 27.682,
        "duration": 0.191,
        "velocity": 0.71,
        "hand": "left"
      },
      {
        "midi": 50,
        "time": 28.364,
        "duration": 0.273,
        "velocity": 0.71,
        "hand": "left"
      },
      {
        "midi": 66,
        "time": 28.364,
        "duration": 0.273,
        "velocity": 0.71,
        "hand": "right"
      },
      {
        "midi": 55,
        "time": 29.182,
        "duration": 0.273,
        "velocity": 0.71,
        "hand": "left"
      },
      {
        "midi": 71,
        "time": 29.182,
        "duration": 0.273,
        "velocity": 0.71,
        "hand": "right"
      },
      {
        "midi": 55,
        "time": 30,
        "duration": 1.364,
        "velocity": 0.71,
        "hand": "left"
      },
      {
        "midi": 71,
        "time": 30,
        "duration": 1.364,
        "velocity": 0.71,
        "hand": "right"
      },
      {
        "midi": 66,
        "time": 30.819,
        "duration": 0.273,
        "velocity": 0.71,
        "hand": "right"
      },
      {
        "midi": 59,
        "time": 31.637,
        "duration": 0.273,
        "velocity": 0.71,
        "hand": "left"
      },
      {
        "midi": 74,
        "time": 31.637,
        "duration": 0.273,
        "velocity": 0.71,
        "hand": "right"
      },
      {
        "midi": 66,
        "time": 32.455,
        "duration": 0.273,
        "velocity": 0.71,
        "hand": "right"
      },
      {
        "midi": 66,
        "time": 33.273,
        "duration": 0.818,
        "velocity": 0.71,
        "hand": "right"
      },
      {
        "midi": 74,
        "time": 33.273,
        "duration": 0.531,
        "velocity": 0.71,
        "hand": "right"
      },
      {
        "midi": 64,
        "time": 34.091,
        "duration": 0.273,
        "velocity": 0.71,
        "hand": "right"
      },
      {
        "midi": 59,
        "time": 34.91,
        "duration": 0.545,
        "velocity": 0.71,
        "hand": "left"
      },
      {
        "midi": 74,
        "time": 34.91,
        "duration": 0.273,
        "velocity": 0.71,
        "hand": "right"
      },
      {
        "midi": 79,
        "time": 35.728,
        "duration": 0.273,
        "velocity": 0.71,
        "hand": "right"
      },
      {
        "midi": 74,
        "time": 36.546,
        "duration": 0.545,
        "velocity": 0.71,
        "hand": "right"
      },
      {
        "midi": 67,
        "time": 37.364,
        "duration": 0.191,
        "velocity": 0.71,
        "hand": "right"
      },
      {
        "midi": 66,
        "time": 38.182,
        "duration": 0.545,
        "velocity": 0.71,
        "hand": "right"
      },
      {
        "midi": 81,
        "time": 38.182,
        "duration": 0.545,
        "velocity": 0.71,
        "hand": "right"
      },
      {
        "midi": 73,
        "time": 39.273,
        "duration": 0.545,
        "velocity": 0.71,
        "hand": "right"
      },
      {
        "midi": 61,
        "time": 40.091,
        "duration": 0.273,
        "velocity": 0.71,
        "hand": "right"
      },
      {
        "midi": 50,
        "time": 40.773,
        "duration": 0.191,
        "velocity": 0.71,
        "hand": "left"
      },
      {
        "midi": 57,
        "time": 41.455,
        "duration": 0.273,
        "velocity": 0.71,
        "hand": "left"
      },
      {
        "midi": 64,
        "time": 41.455,
        "duration": 0.53,
        "velocity": 0.71,
        "hand": "right"
      },
      {
        "midi": 50,
        "time": 42.273,
        "duration": 0.273,
        "velocity": 0.71,
        "hand": "left"
      },
      {
        "midi": 66,
        "time": 42.273,
        "duration": 0.273,
        "velocity": 0.71,
        "hand": "right"
      },
      {
        "midi": 50,
        "time": 43.091,
        "duration": 1.364,
        "velocity": 0.71,
        "hand": "left"
      },
      {
        "midi": 66,
        "time": 43.091,
        "duration": 1.364,
        "velocity": 0.71,
        "hand": "right"
      },
      {
        "midi": 59,
        "time": 43.91,
        "duration": 0.273,
        "velocity": 0.71,
        "hand": "left"
      },
      {
        "midi": 52,
        "time": 44.728,
        "duration": 0.273,
        "velocity": 0.71,
        "hand": "left"
      },
      {
        "midi": 67,
        "time": 44.728,
        "duration": 0.273,
        "velocity": 0.71,
        "hand": "right"
      },
      {
        "midi": 59,
        "time": 45.546,
        "duration": 0.273,
        "velocity": 0.71,
        "hand": "left"
      },
      {
        "midi": 67,
        "time": 45.546,
        "duration": 0.273,
        "velocity": 0.71,
        "hand": "right"
      },
      {
        "midi": 59,
        "time": 46.364,
        "duration": 0.818,
        "velocity": 0.71,
        "hand": "left"
      },
      {
        "midi": 67,
        "time": 46.364,
        "duration": 0.273,
        "velocity": 0.71,
        "hand": "right"
      },
      {
        "midi": 57,
        "time": 47.182,
        "duration": 0.273,
        "velocity": 0.71,
        "hand": "left"
      },
      {
        "midi": 73,
        "time": 47.182,
        "duration": 0.273,
        "velocity": 0.71,
        "hand": "right"
      },
      {
        "midi": 76,
        "time": 48,
        "duration": 0.545,
        "velocity": 0.71,
        "hand": "right"
      },
      {
        "midi": 72,
        "time": 48.819,
        "duration": 0.257,
        "velocity": 0.71,
        "hand": "right"
      },
      {
        "midi": 55,
        "time": 49.637,
        "duration": 0.545,
        "velocity": 0.71,
        "hand": "left"
      },
      {
        "midi": 71,
        "time": 49.637,
        "duration": 0.545,
        "velocity": 0.71,
        "hand": "right"
      },
      {
        "midi": 55,
        "time": 50.455,
        "duration": 0.258,
        "velocity": 0.71,
        "hand": "left"
      },
      {
        "midi": 59,
        "time": 51.273,
        "duration": 0.273,
        "velocity": 0.71,
        "hand": "left"
      },
      {
        "midi": 50,
        "time": 52.091,
        "duration": 0.258,
        "velocity": 0.71,
        "hand": "left"
      },
      {
        "midi": 50,
        "time": 52.91,
        "duration": 0.257,
        "velocity": 0.71,
        "hand": "left"
      },
      {
        "midi": 64,
        "time": 52.91,
        "duration": 0.818,
        "velocity": 0.71,
        "hand": "right"
      },
      {
        "midi": 59,
        "time": 53.728,
        "duration": 0.273,
        "velocity": 0.71,
        "hand": "left"
      },
      {
        "midi": 66,
        "time": 53.728,
        "duration": 0.191,
        "velocity": 0.71,
        "hand": "right"
      },
      {
        "midi": 48,
        "time": 54.546,
        "duration": 0.545,
        "velocity": 0.71,
        "hand": "left"
      },
      {
        "midi": 62,
        "time": 54.546,
        "duration": 1.076,
        "velocity": 0.71,
        "hand": "right"
      },
      {
        "midi": 55,
        "time": 55.364,
        "duration": 0.273,
        "velocity": 0.71,
        "hand": "left"
      },
      {
        "midi": 67,
        "time": 55.364,
        "duration": 0.273,
        "velocity": 0.71,
        "hand": "right"
      },
      {
        "midi": 59,
        "time": 56.182,
        "duration": 0.545,
        "velocity": 0.71,
        "hand": "left"
      },
      {
        "midi": 67,
        "time": 56.182,
        "duration": 0.545,
        "velocity": 0.71,
        "hand": "right"
      }
    ],
    "hard": [
      {
        "midi": 76,
        "time": 0,
        "duration": 0.545,
        "velocity": 0.71,
        "hand": "right"
      },
      {
        "midi": 74,
        "time": 0.546,
        "duration": 0.545,
        "velocity": 0.71,
        "hand": "right"
      },
      {
        "midi": 72,
        "time": 1.091,
        "duration": 0.545,
        "velocity": 0.71,
        "hand": "right"
      },
      {
        "midi": 71,
        "time": 1.637,
        "duration": 0.545,
        "velocity": 0.71,
        "hand": "right"
      },
      {
        "midi": 72,
        "time": 2.182,
        "duration": 0.545,
        "velocity": 0.71,
        "hand": "right"
      },
      {
        "midi": 74,
        "time": 2.728,
        "duration": 0.818,
        "velocity": 0.71,
        "hand": "right"
      },
      {
        "midi": 72,
        "time": 3.546,
        "duration": 0.136,
        "velocity": 0.71,
        "hand": "right"
      },
      {
        "midi": 71,
        "time": 3.682,
        "duration": 0.136,
        "velocity": 0.71,
        "hand": "right"
      },
      {
        "midi": 69,
        "time": 3.819,
        "duration": 0.545,
        "velocity": 0.71,
        "hand": "right"
      },
      {
        "midi": 71,
        "time": 4.364,
        "duration": 0.545,
        "velocity": 0.71,
        "hand": "right"
      },
      {
        "midi": 64,
        "time": 4.91,
        "duration": 0.818,
        "velocity": 0.71,
        "hand": "right"
      },
      {
        "midi": 66,
        "time": 5.728,
        "duration": 0.136,
        "velocity": 0.71,
        "hand": "right"
      },
      {
        "midi": 67,
        "time": 5.864,
        "duration": 0.136,
        "velocity": 0.71,
        "hand": "right"
      },
      {
        "midi": 69,
        "time": 6,
        "duration": 0.545,
        "velocity": 0.71,
        "hand": "right"
      },
      {
        "midi": 62,
        "time": 6.546,
        "duration": 0.273,
        "velocity": 0.71,
        "hand": "right"
      },
      {
        "midi": 64,
        "time": 6.819,
        "duration": 0.273,
        "velocity": 0.71,
        "hand": "right"
      },
      {
        "midi": 66,
        "time": 7.091,
        "duration": 0.273,
        "velocity": 0.71,
        "hand": "right"
      },
      {
        "midi": 67,
        "time": 7.364,
        "duration": 0.273,
        "velocity": 0.71,
        "hand": "right"
      },
      {
        "midi": 69,
        "time": 7.637,
        "duration": 0.273,
        "velocity": 0.71,
        "hand": "right"
      },
      {
        "midi": 71,
        "time": 7.91,
        "duration": 0.273,
        "velocity": 0.71,
        "hand": "right"
      },
      {
        "midi": 67,
        "time": 8.182,
        "duration": 0.545,
        "velocity": 0.71,
        "hand": "right"
      },
      {
        "midi": 71,
        "time": 8.728,
        "duration": 0.545,
        "velocity": 0.71,
        "hand": "right"
      },
      {
        "midi": 74,
        "time": 8.728,
        "duration": 0.818,
        "velocity": 0.71,
        "hand": "right"
      },
      {
        "midi": 69,
        "time": 9.273,
        "duration": 0.545,
        "velocity": 0.71,
        "hand": "right"
      },
      {
        "midi": 73,
        "time": 9.546,
        "duration": 0.273,
        "velocity": 0.71,
        "hand": "right"
      },
      {
        "midi": 67,
        "time": 9.819,
        "duration": 0.545,
        "velocity": 0.71,
        "hand": "right"
      },
      {
        "midi": 79,
        "time": 9.819,
        "duration": 0.273,
        "velocity": 0.71,
        "hand": "right"
      },
      {
        "midi": 73,
        "time": 10.091,
        "duration": 0.273,
        "velocity": 0.71,
        "hand": "right"
      },
      {
        "midi": 66,
        "time": 10.364,
        "duration": 0.545,
        "velocity": 0.71,
        "hand": "right"
      },
      {
        "midi": 81,
        "time": 10.364,
        "duration": 0.818,
        "velocity": 0.71,
        "hand": "right"
      },
      {
        "midi": 67,
        "time": 10.91,
        "duration": 0.545,
        "velocity": 0.71,
        "hand": "right"
      },
      {
        "midi": 79,
        "time": 11.182,
        "duration": 0.136,
        "velocity": 0.71,
        "hand": "right"
      },
      {
        "midi": 78,
        "time": 11.319,
        "duration": 0.136,
        "velocity": 0.71,
        "hand": "right"
      },
      {
        "midi": 69,
        "time": 11.455,
        "duration": 0.818,
        "velocity": 0.71,
        "hand": "right"
      },
      {
        "midi": 76,
        "time": 11.455,
        "duration": 0.545,
        "velocity": 0.71,
        "hand": "right"
      },
      {
        "midi": 78,
        "time": 12,
        "duration": 0.545,
        "velocity": 0.71,
        "hand": "right"
      },
      {
        "midi": 67,
        "time": 12.273,
        "duration": 0.136,
        "velocity": 0.71,
        "hand": "right"
      },
      {
        "midi": 66,
        "time": 12.41,
        "duration": 0.136,
        "velocity": 0.71,
        "hand": "right"
      },
      {
        "midi": 64,
        "time": 12.546,
        "duration": 0.545,
        "velocity": 0.71,
        "hand": "right"
      },
      {
        "midi": 79,
        "time": 12.546,
        "duration": 0.545,
        "velocity": 0.71,
        "hand": "right"
      },
      {
        "midi": 66,
        "time": 13.091,
        "duration": 0.545,
        "velocity": 0.71,
        "hand": "right"
      },
      {
        "midi": 78,
        "time": 13.091,
        "duration": 0.273,
        "velocity": 0.71,
        "hand": "right"
      },
      {
        "midi": 76,
        "time": 13.364,
        "duration": 0.273,
        "velocity": 0.71,
        "hand": "right"
      },
      {
        "midi": 59,
        "time": 13.637,
        "duration": 0.818,
        "velocity": 0.71,
        "hand": "left"
      },
      {
        "midi": 74,
        "time": 13.637,
        "duration": 0.273,
        "velocity": 0.71,
        "hand": "right"
      },
      {
        "midi": 73,
        "time": 13.91,
        "duration": 0.273,
        "velocity": 0.71,
        "hand": "right"
      },
      {
        "midi": 71,
        "time": 14.182,
        "duration": 0.273,
        "velocity": 0.71,
        "hand": "right"
      },
      {
        "midi": 61,
        "time": 14.455,
        "duration": 0.136,
        "velocity": 0.71,
        "hand": "right"
      },
      {
        "midi": 69,
        "time": 14.455,
        "duration": 0.273,
        "velocity": 0.71,
        "hand": "right"
      },
      {
        "midi": 62,
        "time": 14.591,
        "duration": 0.136,
        "velocity": 0.71,
        "hand": "right"
      },
      {
        "midi": 64,
        "time": 14.728,
        "duration": 0.545,
        "velocity": 0.71,
        "hand": "right"
      },
      {
        "midi": 67,
        "time": 14.728,
        "duration": 0.818,
        "velocity": 0.71,
        "hand": "right"
      },
      {
        "midi": 57,
        "time": 15.273,
        "duration": 0.273,
        "velocity": 0.71,
        "hand": "left"
      },
      {
        "midi": 59,
        "time": 15.546,
        "duration": 0.273,
        "velocity": 0.71,
        "hand": "left"
      },
      {
        "midi": 66,
        "time": 15.546,
        "duration": 0.136,
        "velocity": 0.71,
        "hand": "right"
      },
      {
        "midi": 67,
        "time": 15.682,
        "duration": 0.136,
        "velocity": 0.71,
        "hand": "right"
      },
      {
        "midi": 61,
        "time": 15.819,
        "duration": 0.273,
        "velocity": 0.71,
        "hand": "right"
      },
      {
        "midi": 64,
        "time": 15.819,
        "duration": 0.53,
        "velocity": 0.71,
        "hand": "right"
      },
      {
        "midi": 62,
        "time": 16.091,
        "duration": 0.273,
        "velocity": 0.71,
        "hand": "right"
      },
      {
        "midi": 64,
        "time": 16.364,
        "duration": 0.273,
        "velocity": 0.71,
        "hand": "right"
      },
      {
        "midi": 73,
        "time": 16.364,
        "duration": 0.545,
        "velocity": 0.71,
        "hand": "right"
      },
      {
        "midi": 66,
        "time": 16.637,
        "duration": 0.273,
        "velocity": 0.71,
        "hand": "right"
      },
      {
        "midi": 62,
        "time": 16.91,
        "duration": 1.364,
        "velocity": 0.71,
        "hand": "right"
      },
      {
        "midi": 74,
        "time": 16.91,
        "duration": 0.273,
        "velocity": 0.71,
        "hand": "right"
      },
      {
        "midi": 68,
        "time": 17.182,
        "duration": 0.273,
        "velocity": 0.71,
        "hand": "right"
      },
      {
        "midi": 69,
        "time": 17.455,
        "duration": 0.273,
        "velocity": 0.71,
        "hand": "right"
      },
      {
        "midi": 71,
        "time": 17.728,
        "duration": 0.273,
        "velocity": 0.71,
        "hand": "right"
      },
      {
        "midi": 72,
        "time": 18,
        "duration": 1.364,
        "velocity": 0.71,
        "hand": "right"
      },
      {
        "midi": 63,
        "time": 18.273,
        "duration": 0.273,
        "velocity": 0.71,
        "hand": "right"
      },
      {
        "midi": 64,
        "time": 18.546,
        "duration": 0.273,
        "velocity": 0.71,
        "hand": "right"
      },
      {
        "midi": 66,
        "time": 18.819,
        "duration": 0.273,
        "velocity": 0.71,
        "hand": "right"
      },
      {
        "midi": 67,
        "time": 19.091,
        "duration": 0.818,
        "velocity": 0.71,
        "hand": "right"
      },
      {
        "midi": 71,
        "time": 19.364,
        "duration": 0.273,
        "velocity": 0.71,
        "hand": "right"
      },
      {
        "midi": 76,
        "time": 19.637,
        "duration": 0.818,
        "velocity": 0.71,
        "hand": "right"
      },
      {
        "midi": 66,
        "time": 19.91,
        "duration": 0.273,
        "velocity": 0.71,
        "hand": "right"
      },
      {
        "midi": 71,
        "time": 20.182,
        "duration": 0.818,
        "velocity": 0.71,
        "hand": "right"
      },
      {
        "midi": 74,
        "time": 20.455,
        "duration": 0.273,
        "velocity": 0.71,
        "hand": "right"
      },
      {
        "midi": 79,
        "time": 20.728,
        "duration": 0.818,
        "velocity": 0.71,
        "hand": "right"
      },
      {
        "midi": 69,
        "time": 21,
        "duration": 0.273,
        "velocity": 0.71,
        "hand": "right"
      },
      {
        "midi": 74,
        "time": 21.273,
        "duration": 0.545,
        "velocity": 0.71,
        "hand": "right"
      },
      {
        "midi": 78,
        "time": 21.546,
        "duration": 0.273,
        "velocity": 0.71,
        "hand": "right"
      },
      {
        "midi": 64,
        "time": 21.819,
        "duration": 0.545,
        "velocity": 0.71,
        "hand": "right"
      },
      {
        "midi": 67,
        "time": 21.819,
        "duration": 0.818,
        "velocity": 0.71,
        "hand": "right"
      },
      {
        "midi": 79,
        "time": 21.819,
        "duration": 0.273,
        "velocity": 0.71,
        "hand": "right"
      },
      {
        "midi": 73,
        "time": 22.091,
        "duration": 0.273,
        "velocity": 0.71,
        "hand": "right"
      },
      {
        "midi": 62,
        "time": 22.364,
        "duration": 0.545,
        "velocity": 0.71,
        "hand": "right"
      },
      {
        "midi": 74,
        "time": 22.364,
        "duration": 1.076,
        "velocity": 0.71,
        "hand": "right"
      },
      {
        "midi": 66,
        "time": 22.637,
        "duration": 0.273,
        "velocity": 0.71,
        "hand": "right"
      },
      {
        "midi": 60,
        "time": 22.91,
        "duration": 0.545,
        "velocity": 0.71,
        "hand": "right"
      },
      {
        "midi": 72,
        "time": 22.91,
        "duration": 0.273,
        "velocity": 0.71,
        "hand": "right"
      },
      {
        "midi": 66,
        "time": 23.182,
        "duration": 0.273,
        "velocity": 0.71,
        "hand": "right"
      },
      {
        "midi": 59,
        "time": 23.455,
        "duration": 0.545,
        "velocity": 0.71,
        "hand": "left"
      },
      {
        "midi": 74,
        "time": 23.455,
        "duration": 0.818,
        "velocity": 0.71,
        "hand": "right"
      },
      {
        "midi": 60,
        "time": 24,
        "duration": 0.545,
        "velocity": 0.71,
        "hand": "right"
      },
      {
        "midi": 76,
        "time": 24,
        "duration": 0.545,
        "velocity": 0.71,
        "hand": "right"
      },
      {
        "midi": 72,
        "time": 24.273,
        "duration": 0.136,
        "velocity": 0.71,
        "hand": "right"
      },
      {
        "midi": 71,
        "time": 24.41,
        "duration": 0.136,
        "velocity": 0.71,
        "hand": "right"
      },
      {
        "midi": 62,
        "time": 24.546,
        "duration": 0.818,
        "velocity": 0.71,
        "hand": "right"
      },
      {
        "midi": 69,
        "time": 24.546,
        "duration": 0.545,
        "velocity": 0.71,
        "hand": "right"
      },
      {
        "midi": 78,
        "time": 24.546,
        "duration": 0.545,
        "velocity": 0.71,
        "hand": "right"
      },
      {
        "midi": 71,
        "time": 25.091,
        "duration": 0.545,
        "velocity": 0.71,
        "hand": "right"
      },
      {
        "midi": 79,
        "time": 25.091,
        "duration": 0.545,
        "velocity": 0.71,
        "hand": "right"
      },
      {
        "midi": 60,
        "time": 25.364,
        "duration": 0.136,
        "velocity": 0.71,
        "hand": "right"
      },
      {
        "midi": 59,
        "time": 25.5,
        "duration": 0.136,
        "velocity": 0.71,
        "hand": "left"
      },
      {
        "midi": 57,
        "time": 25.637,
        "duration": 0.545,
        "velocity": 0.71,
        "hand": "left"
      },
      {
        "midi": 72,
        "time": 25.637,
        "duration": 0.545,
        "velocity": 0.71,
        "hand": "right"
      },
      {
        "midi": 81,
        "time": 25.637,
        "duration": 0.545,
        "velocity": 0.71,
        "hand": "right"
      },
      {
        "midi": 59,
        "time": 26.182,
        "duration": 0.545,
        "velocity": 0.71,
        "hand": "left"
      },
      {
        "midi": 71,
        "time": 26.182,
        "duration": 0.273,
        "velocity": 0.71,
        "hand": "right"
      },
      {
        "midi": 75,
        "time": 26.182,
        "duration": 0.545,
        "velocity": 0.71,
        "hand": "right"
      },
      {
        "midi": 69,
        "time": 26.455,
        "duration": 0.273,
        "velocity": 0.71,
        "hand": "right"
      },
      {
        "midi": 52,
        "time": 26.728,
        "duration": 0.818,
        "velocity": 0.71,
        "hand": "left"
      },
      {
        "midi": 67,
        "time": 26.728,
        "duration": 0.273,
        "velocity": 0.71,
        "hand": "right"
      },
      {
        "midi": 79,
        "time": 26.728,
        "duration": 0.545,
        "velocity": 0.71,
        "hand": "right"
      },
      {
        "midi": 66,
        "time": 27,
        "duration": 0.273,
        "velocity": 0.71,
        "hand": "right"
      },
      {
        "midi": 64,
        "time": 27.273,
        "duration": 0.273,
        "velocity": 0.71,
        "hand": "right"
      },
      {
        "midi": 73,
        "time": 27.273,
        "duration": 0.545,
        "velocity": 0.71,
        "hand": "right"
      },
      {
        "midi": 54,
        "time": 27.546,
        "duration": 0.136,
        "velocity": 0.71,
        "hand": "left"
      },
      {
        "midi": 62,
        "time": 27.546,
        "duration": 0.273,
        "velocity": 0.71,
        "hand": "right"
      },
      {
        "midi": 55,
        "time": 27.682,
        "duration": 0.136,
        "velocity": 0.71,
        "hand": "left"
      },
      {
        "midi": 57,
        "time": 27.819,
        "duration": 0.545,
        "velocity": 0.71,
        "hand": "left"
      },
      {
        "midi": 61,
        "time": 27.819,
        "duration": 0.818,
        "velocity": 0.71,
        "hand": "right"
      },
      {
        "midi": 76,
        "time": 27.819,
        "duration": 0.545,
        "velocity": 0.71,
        "hand": "right"
      },
      {
        "midi": 50,
        "time": 28.364,
        "duration": 0.273,
        "velocity": 0.71,
        "hand": "left"
      },
      {
        "midi": 66,
        "time": 28.364,
        "duration": 0.273,
        "velocity": 0.71,
        "hand": "right"
      },
      {
        "midi": 52,
        "time": 28.637,
        "duration": 0.273,
        "velocity": 0.71,
        "hand": "left"
      },
      {
        "midi": 59,
        "time": 28.637,
        "duration": 0.136,
        "velocity": 0.71,
        "hand": "left"
      },
      {
        "midi": 67,
        "time": 28.637,
        "duration": 0.273,
        "velocity": 0.71,
        "hand": "right"
      },
      {
        "midi": 61,
        "time": 28.773,
        "duration": 0.136,
        "velocity": 0.71,
        "hand": "right"
      },
      {
        "midi": 54,
        "time": 28.91,
        "duration": 0.273,
        "velocity": 0.71,
        "hand": "left"
      },
      {
        "midi": 57,
        "time": 28.91,
        "duration": 0.53,
        "velocity": 0.71,
        "hand": "left"
      },
      {
        "midi": 69,
        "time": 28.91,
        "duration": 0.273,
        "velocity": 0.71,
        "hand": "right"
      },
      {
        "midi": 55,
        "time": 29.182,
        "duration": 0.273,
        "velocity": 0.71,
        "hand": "left"
      },
      {
        "midi": 71,
        "time": 29.182,
        "duration": 0.273,
        "velocity": 0.71,
        "hand": "right"
      },
      {
        "midi": 57,
        "time": 29.455,
        "duration": 0.273,
        "velocity": 0.71,
        "hand": "left"
      },
      {
        "midi": 66,
        "time": 29.455,
        "duration": 0.545,
        "velocity": 0.71,
        "hand": "right"
      },
      {
        "midi": 73,
        "time": 29.455,
        "duration": 0.273,
        "velocity": 0.71,
        "hand": "right"
      },
      {
        "midi": 59,
        "time": 29.728,
        "duration": 0.273,
        "velocity": 0.71,
        "hand": "left"
      },
      {
        "midi": 74,
        "time": 29.728,
        "duration": 0.273,
        "velocity": 0.71,
        "hand": "right"
      },
      {
        "midi": 55,
        "time": 30,
        "duration": 1.364,
        "velocity": 0.71,
        "hand": "left"
      },
      {
        "midi": 67,
        "time": 30,
        "duration": 0.273,
        "velocity": 0.71,
        "hand": "right"
      },
      {
        "midi": 71,
        "time": 30,
        "duration": 1.364,
        "velocity": 0.71,
        "hand": "right"
      },
      {
        "midi": 61,
        "time": 30.273,
        "duration": 0.273,
        "velocity": 0.71,
        "hand": "right"
      },
      {
        "midi": 62,
        "time": 30.546,
        "duration": 0.273,
        "velocity": 0.71,
        "hand": "right"
      },
      {
        "midi": 66,
        "time": 30.819,
        "duration": 0.273,
        "velocity": 0.71,
        "hand": "right"
      },
      {
        "midi": 67,
        "time": 31.091,
        "duration": 1.364,
        "velocity": 0.71,
        "hand": "right"
      },
      {
        "midi": 58,
        "time": 31.364,
        "duration": 0.273,
        "velocity": 0.71,
        "hand": "left"
      },
      {
        "midi": 73,
        "time": 31.364,
        "duration": 0.273,
        "velocity": 0.71,
        "hand": "right"
      },
      {
        "midi": 59,
        "time": 31.637,
        "duration": 0.273,
        "velocity": 0.71,
        "hand": "left"
      },
      {
        "midi": 74,
        "time": 31.637,
        "duration": 0.273,
        "velocity": 0.71,
        "hand": "right"
      },
      {
        "midi": 61,
        "time": 31.91,
        "duration": 0.273,
        "velocity": 0.71,
        "hand": "right"
      },
      {
        "midi": 71,
        "time": 31.91,
        "duration": 0.273,
        "velocity": 0.71,
        "hand": "right"
      },
      {
        "midi": 62,
        "time": 32.182,
        "duration": 0.818,
        "velocity": 0.71,
        "hand": "right"
      },
      {
        "midi": 69,
        "time": 32.182,
        "duration": 0.545,
        "velocity": 0.71,
        "hand": "right"
      },
      {
        "midi": 66,
        "time": 32.455,
        "duration": 0.273,
        "velocity": 0.71,
        "hand": "right"
      },
      {
        "midi": 71,
        "time": 32.728,
        "duration": 0.818,
        "velocity": 0.71,
        "hand": "right"
      },
      {
        "midi": 61,
        "time": 33,
        "duration": 0.273,
        "velocity": 0.71,
        "hand": "right"
      },
      {
        "midi": 66,
        "time": 33.273,
        "duration": 0.818,
        "velocity": 0.71,
        "hand": "right"
      },
      {
        "midi": 74,
        "time": 33.273,
        "duration": 0.531,
        "velocity": 0.71,
        "hand": "right"
      },
      {
        "midi": 69,
        "time": 33.546,
        "duration": 0.273,
        "velocity": 0.71,
        "hand": "right"
      },
      {
        "midi": 74,
        "time": 33.819,
        "duration": 0.818,
        "velocity": 0.71,
        "hand": "right"
      },
      {
        "midi": 83,
        "time": 33.819,
        "duration": 0.545,
        "velocity": 0.71,
        "hand": "right"
      },
      {
        "midi": 64,
        "time": 34.091,
        "duration": 0.273,
        "velocity": 0.71,
        "hand": "right"
      },
      {
        "midi": 69,
        "time": 34.364,
        "duration": 0.545,
        "velocity": 0.71,
        "hand": "right"
      },
      {
        "midi": 76,
        "time": 34.364,
        "duration": 1.364,
        "velocity": 0.71,
        "hand": "right"
      },
      {
        "midi": 73,
        "time": 34.637,
        "duration": 0.273,
        "velocity": 0.71,
        "hand": "right"
      },
      {
        "midi": 59,
        "time": 34.91,
        "duration": 0.545,
        "velocity": 0.71,
        "hand": "left"
      },
      {
        "midi": 62,
        "time": 34.91,
        "duration": 0.818,
        "velocity": 0.71,
        "hand": "right"
      },
      {
        "midi": 74,
        "time": 34.91,
        "duration": 0.273,
        "velocity": 0.71,
        "hand": "right"
      },
      {
        "midi": 68,
        "time": 35.182,
        "duration": 0.273,
        "velocity": 0.71,
        "hand": "right"
      },
      {
        "midi": 57,
        "time": 35.455,
        "duration": 0.545,
        "velocity": 0.71,
        "hand": "left"
      },
      {
        "midi": 69,
        "time": 35.455,
        "duration": 1.076,
        "velocity": 0.71,
        "hand": "right"
      },
      {
        "midi": 61,
        "time": 35.728,
        "duration": 0.273,
        "velocity": 0.71,
        "hand": "right"
      },
      {
        "midi": 79,
        "time": 35.728,
        "duration": 0.273,
        "velocity": 0.71,
        "hand": "right"
      },
      {
        "midi": 55,
        "time": 36,
        "duration": 0.545,
        "velocity": 0.71,
        "hand": "left"
      },
      {
        "midi": 67,
        "time": 36,
        "duration": 0.273,
        "velocity": 0.71,
        "hand": "right"
      },
      {
        "midi": 73,
        "time": 36,
        "duration": 0.273,
        "velocity": 0.71,
        "hand": "right"
      },
      {
        "midi": 61,
        "time": 36.273,
        "duration": 0.273,
        "velocity": 0.71,
        "hand": "right"
      },
      {
        "midi": 76,
        "time": 36.273,
        "duration": 0.273,
        "velocity": 0.71,
        "hand": "right"
      },
      {
        "midi": 54,
        "time": 36.546,
        "duration": 0.545,
        "velocity": 0.71,
        "hand": "left"
      },
      {
        "midi": 69,
        "time": 36.546,
        "duration": 0.818,
        "velocity": 0.71,
        "hand": "right"
      },
      {
        "midi": 74,
        "time": 36.546,
        "duration": 0.545,
        "velocity": 0.71,
        "hand": "right"
      },
      {
        "midi": 55,
        "time": 37.091,
        "duration": 0.545,
        "velocity": 0.71,
        "hand": "left"
      },
      {
        "midi": 71,
        "time": 37.091,
        "duration": 0.545,
        "velocity": 0.71,
        "hand": "right"
      },
      {
        "midi": 67,
        "time": 37.364,
        "duration": 0.136,
        "velocity": 0.71,
        "hand": "right"
      },
      {
        "midi": 66,
        "time": 37.5,
        "duration": 0.136,
        "velocity": 0.71,
        "hand": "right"
      },
      {
        "midi": 57,
        "time": 37.637,
        "duration": 0.818,
        "velocity": 0.71,
        "hand": "left"
      },
      {
        "midi": 64,
        "time": 37.637,
        "duration": 0.545,
        "velocity": 0.71,
        "hand": "right"
      },
      {
        "midi": 73,
        "time": 37.637,
        "duration": 0.545,
        "velocity": 0.71,
        "hand": "right"
      },
      {
        "midi": 66,
        "time": 38.182,
        "duration": 0.545,
        "velocity": 0.71,
        "hand": "right"
      },
      {
        "midi": 74,
        "time": 38.182,
        "duration": 0.545,
        "velocity": 0.71,
        "hand": "right"
      },
      {
        "midi": 81,
        "time": 38.182,
        "duration": 0.545,
        "velocity": 0.71,
        "hand": "right"
      },
      {
        "midi": 55,
        "time": 38.455,
        "duration": 0.136,
        "velocity": 0.71,
        "hand": "left"
      },
      {
        "midi": 54,
        "time": 38.591,
        "duration": 0.136,
        "velocity": 0.71,
        "hand": "left"
      },
      {
        "midi": 52,
        "time": 38.728,
        "duration": 0.545,
        "velocity": 0.71,
        "hand": "left"
      },
      {
        "midi": 67,
        "time": 38.728,
        "duration": 0.545,
        "velocity": 0.71,
        "hand": "right"
      },
      {
        "midi": 76,
        "time": 38.728,
        "duration": 0.545,
        "velocity": 0.71,
        "hand": "right"
      },
      {
        "midi": 79,
        "time": 38.728,
        "duration": 0.545,
        "velocity": 0.71,
        "hand": "right"
      },
      {
        "midi": 54,
        "time": 39.273,
        "duration": 0.545,
        "velocity": 0.71,
        "hand": "left"
      },
      {
        "midi": 66,
        "time": 39.273,
        "duration": 0.273,
        "velocity": 0.71,
        "hand": "right"
      },
      {
        "midi": 70,
        "time": 39.273,
        "duration": 0.545,
        "velocity": 0.71,
        "hand": "right"
      },
      {
        "midi": 73,
        "time": 39.273,
        "duration": 0.545,
        "velocity": 0.71,
        "hand": "right"
      },
      {
        "midi": 64,
        "time": 39.546,
        "duration": 0.273,
        "velocity": 0.71,
        "hand": "right"
      },
      {
        "midi": 47,
        "time": 39.819,
        "duration": 0.818,
        "velocity": 0.71,
        "hand": "left"
      },
      {
        "midi": 62,
        "time": 39.819,
        "duration": 0.273,
        "velocity": 0.71,
        "hand": "right"
      },
      {
        "midi": 71,
        "time": 39.819,
        "duration": 0.545,
        "velocity": 0.71,
        "hand": "right"
      },
      {
        "midi": 74,
        "time": 39.819,
        "duration": 0.53,
        "velocity": 0.71,
        "hand": "right"
      },
      {
        "midi": 61,
        "time": 40.091,
        "duration": 0.273,
        "velocity": 0.71,
        "hand": "right"
      },
      {
        "midi": 59,
        "time": 40.364,
        "duration": 0.273,
        "velocity": 0.71,
        "hand": "left"
      },
      {
        "midi": 68,
        "time": 40.364,
        "duration": 0.545,
        "velocity": 0.71,
        "hand": "right"
      },
      {
        "midi": 74,
        "time": 40.364,
        "duration": 0.545,
        "velocity": 0.71,
        "hand": "right"
      },
      {
        "midi": 49,
        "time": 40.637,
        "duration": 0.136,
        "velocity": 0.71,
        "hand": "left"
      },
      {
        "midi": 57,
        "time": 40.637,
        "duration": 0.273,
        "velocity": 0.71,
        "hand": "left"
      },
      {
        "midi": 50,
        "time": 40.773,
        "duration": 0.136,
        "velocity": 0.71,
        "hand": "left"
      },
      {
        "midi": 52,
        "time": 40.91,
        "duration": 0.545,
        "velocity": 0.71,
        "hand": "left"
      },
      {
        "midi": 55,
        "time": 40.91,
        "duration": 0.818,
        "velocity": 0.71,
        "hand": "left"
      },
      {
        "midi": 67,
        "time": 40.91,
        "duration": 0.545,
        "velocity": 0.71,
        "hand": "right"
      },
      {
        "midi": 71,
        "time": 40.91,
        "duration": 0.545,
        "velocity": 0.71,
        "hand": "right"
      },
      {
        "midi": 45,
        "time": 41.455,
        "duration": 0.273,
        "velocity": 0.71,
        "hand": "left"
      },
      {
        "midi": 61,
        "time": 41.455,
        "duration": 0.273,
        "velocity": 0.71,
        "hand": "right"
      },
      {
        "midi": 64,
        "time": 41.455,
        "duration": 0.53,
        "velocity": 0.71,
        "hand": "right"
      },
      {
        "midi": 47,
        "time": 41.728,
        "duration": 0.273,
        "velocity": 0.71,
        "hand": "left"
      },
      {
        "midi": 54,
        "time": 41.728,
        "duration": 0.136,
        "velocity": 0.71,
        "hand": "left"
      },
      {
        "midi": 62,
        "time": 41.728,
        "duration": 0.273,
        "velocity": 0.71,
        "hand": "right"
      },
      {
        "midi": 55,
        "time": 41.864,
        "duration": 0.136,
        "velocity": 0.71,
        "hand": "left"
      },
      {
        "midi": 49,
        "time": 42,
        "duration": 0.273,
        "velocity": 0.71,
        "hand": "left"
      },
      {
        "midi": 52,
        "time": 42,
        "duration": 0.531,
        "velocity": 0.71,
        "hand": "left"
      },
      {
        "midi": 64,
        "time": 42,
        "duration": 0.273,
        "velocity": 0.71,
        "hand": "right"
      },
      {
        "midi": 50,
        "time": 42.273,
        "duration": 0.273,
        "velocity": 0.71,
        "hand": "left"
      },
      {
        "midi": 66,
        "time": 42.273,
        "duration": 0.273,
        "velocity": 0.71,
        "hand": "right"
      },
      {
        "midi": 52,
        "time": 42.546,
        "duration": 0.273,
        "velocity": 0.71,
        "hand": "left"
      },
      {
        "midi": 61,
        "time": 42.546,
        "duration": 0.545,
        "velocity": 0.71,
        "hand": "right"
      },
      {
        "midi": 67,
        "time": 42.546,
        "duration": 0.273,
        "velocity": 0.71,
        "hand": "right"
      },
      {
        "midi": 54,
        "time": 42.819,
        "duration": 0.273,
        "velocity": 0.71,
        "hand": "left"
      },
      {
        "midi": 69,
        "time": 42.819,
        "duration": 0.273,
        "velocity": 0.71,
        "hand": "right"
      },
      {
        "midi": 50,
        "time": 43.091,
        "duration": 1.364,
        "velocity": 0.71,
        "hand": "left"
      },
      {
        "midi": 62,
        "time": 43.091,
        "duration": 0.273,
        "velocity": 0.71,
        "hand": "right"
      },
      {
        "midi": 66,
        "time": 43.091,
        "duration": 1.364,
        "velocity": 0.71,
        "hand": "right"
      },
      {
        "midi": 56,
        "time": 43.364,
        "duration": 0.273,
        "velocity": 0.71,
        "hand": "left"
      },
      {
        "midi": 57,
        "time": 43.637,
        "duration": 0.273,
        "velocity": 0.71,
        "hand": "left"
      },
      {
        "midi": 59,
        "time": 43.91,
        "duration": 0.273,
        "velocity": 0.71,
        "hand": "left"
      },
      {
        "midi": 60,
        "time": 44.182,
        "duration": 1.364,
        "velocity": 0.71,
        "hand": "right"
      },
      {
        "midi": 51,
        "time": 44.455,
        "duration": 0.273,
        "velocity": 0.71,
        "hand": "left"
      },
      {
        "midi": 69,
        "time": 44.455,
        "duration": 0.273,
        "velocity": 0.71,
        "hand": "right"
      },
      {
        "midi": 52,
        "time": 44.728,
        "duration": 0.273,
        "velocity": 0.71,
        "hand": "left"
      },
      {
        "midi": 67,
        "time": 44.728,
        "duration": 0.273,
        "velocity": 0.71,
        "hand": "right"
      },
      {
        "midi": 54,
        "time": 45,
        "duration": 0.273,
        "velocity": 0.71,
        "hand": "left"
      },
      {
        "midi": 63,
        "time": 45,
        "duration": 0.273,
        "velocity": 0.71,
        "hand": "right"
      },
      {
        "midi": 55,
        "time": 45.273,
        "duration": 0.818,
        "velocity": 0.71,
        "hand": "left"
      },
      {
        "midi": 64,
        "time": 45.273,
        "duration": 0.273,
        "velocity": 0.71,
        "hand": "right"
      },
      {
        "midi": 59,
        "time": 45.546,
        "duration": 0.273,
        "velocity": 0.71,
        "hand": "left"
      },
      {
        "midi": 67,
        "time": 45.546,
        "duration": 0.273,
        "velocity": 0.71,
        "hand": "right"
      },
      {
        "midi": 64,
        "time": 45.819,
        "duration": 0.818,
        "velocity": 0.71,
        "hand": "right"
      },
      {
        "midi": 54,
        "time": 46.091,
        "duration": 0.273,
        "velocity": 0.71,
        "hand": "left"
      },
      {
        "midi": 69,
        "time": 46.091,
        "duration": 0.273,
        "velocity": 0.71,
        "hand": "right"
      },
      {
        "midi": 59,
        "time": 46.364,
        "duration": 0.818,
        "velocity": 0.71,
        "hand": "left"
      },
      {
        "midi": 67,
        "time": 46.364,
        "duration": 0.273,
        "velocity": 0.71,
        "hand": "right"
      },
      {
        "midi": 62,
        "time": 46.637,
        "duration": 0.273,
        "velocity": 0.71,
        "hand": "right"
      },
      {
        "midi": 71,
        "time": 46.637,
        "duration": 0.273,
        "velocity": 0.71,
        "hand": "right"
      },
      {
        "midi": 67,
        "time": 46.91,
        "duration": 0.818,
        "velocity": 0.71,
        "hand": "right"
      },
      {
        "midi": 57,
        "time": 47.182,
        "duration": 0.273,
        "velocity": 0.71,
        "hand": "left"
      },
      {
        "midi": 73,
        "time": 47.182,
        "duration": 0.273,
        "velocity": 0.71,
        "hand": "right"
      },
      {
        "midi": 62,
        "time": 47.455,
        "duration": 0.545,
        "velocity": 0.71,
        "hand": "right"
      },
      {
        "midi": 74,
        "time": 47.455,
        "duration": 0.545,
        "velocity": 0.71,
        "hand": "right"
      },
      {
        "midi": 66,
        "time": 47.728,
        "duration": 0.273,
        "velocity": 0.71,
        "hand": "right"
      },
      {
        "midi": 43,
        "time": 48,
        "duration": 0.818,
        "velocity": 0.71,
        "hand": "left"
      },
      {
        "midi": 67,
        "time": 48,
        "duration": 0.273,
        "velocity": 0.71,
        "hand": "right"
      },
      {
        "midi": 76,
        "time": 48,
        "duration": 0.545,
        "velocity": 0.71,
        "hand": "right"
      },
      {
        "midi": 61,
        "time": 48.273,
        "duration": 0.273,
        "velocity": 0.71,
        "hand": "right"
      },
      {
        "midi": 62,
        "time": 48.546,
        "duration": 1.076,
        "velocity": 0.71,
        "hand": "right"
      },
      {
        "midi": 69,
        "time": 48.546,
        "duration": 0.273,
        "velocity": 0.71,
        "hand": "right"
      },
      {
        "midi": 74,
        "time": 48.546,
        "duration": 0.545,
        "velocity": 0.71,
        "hand": "right"
      },
      {
        "midi": 42,
        "time": 48.819,
        "duration": 0.273,
        "velocity": 0.71,
        "hand": "left"
      },
      {
        "midi": 72,
        "time": 48.819,
        "duration": 0.257,
        "velocity": 0.71,
        "hand": "right"
      },
      {
        "midi": 48,
        "time": 49.091,
        "duration": 0.273,
        "velocity": 0.71,
        "hand": "left"
      },
      {
        "midi": 66,
        "time": 49.091,
        "duration": 0.273,
        "velocity": 0.71,
        "hand": "right"
      },
      {
        "midi": 72,
        "time": 49.091,
        "duration": 0.545,
        "velocity": 0.71,
        "hand": "right"
      },
      {
        "midi": 42,
        "time": 49.364,
        "duration": 0.273,
        "velocity": 0.71,
        "hand": "left"
      },
      {
        "midi": 69,
        "time": 49.364,
        "duration": 0.273,
        "velocity": 0.71,
        "hand": "right"
      },
      {
        "midi": 43,
        "time": 49.637,
        "duration": 0.545,
        "velocity": 0.71,
        "hand": "left"
      },
      {
        "midi": 62,
        "time": 49.637,
        "duration": 0.273,
        "velocity": 0.71,
        "hand": "right"
      },
      {
        "midi": 67,
        "time": 49.637,
        "duration": 0.545,
        "velocity": 0.71,
        "hand": "right"
      },
      {
        "midi": 71,
        "time": 49.637,
        "duration": 0.545,
        "velocity": 0.71,
        "hand": "right"
      },
      {
        "midi": 55,
        "time": 49.91,
        "duration": 0.257,
        "velocity": 0.71,
        "hand": "left"
      },
      {
        "midi": 55,
        "time": 50.182,
        "duration": 0.258,
        "velocity": 0.71,
        "hand": "left"
      },
      {
        "midi": 69,
        "time": 50.182,
        "duration": 0.545,
        "velocity": 0.71,
        "hand": "right"
      },
      {
        "midi": 72,
        "time": 50.182,
        "duration": 0.545,
        "velocity": 0.71,
        "hand": "right"
      },
      {
        "midi": 55,
        "time": 50.455,
        "duration": 0.258,
        "velocity": 0.71,
        "hand": "left"
      },
      {
        "midi": 55,
        "time": 50.728,
        "duration": 0.257,
        "velocity": 0.71,
        "hand": "left"
      },
      {
        "midi": 71,
        "time": 50.728,
        "duration": 0.818,
        "velocity": 0.71,
        "hand": "right"
      },
      {
        "midi": 74,
        "time": 50.728,
        "duration": 0.818,
        "velocity": 0.71,
        "hand": "right"
      },
      {
        "midi": 55,
        "time": 51,
        "duration": 0.273,
        "velocity": 0.71,
        "hand": "left"
      },
      {
        "midi": 59,
        "time": 51.273,
        "duration": 0.273,
        "velocity": 0.71,
        "hand": "left"
      },
      {
        "midi": 60,
        "time": 51.546,
        "duration": 0.273,
        "velocity": 0.71,
        "hand": "right"
      },
      {
        "midi": 69,
        "time": 51.546,
        "duration": 0.136,
        "velocity": 0.71,
        "hand": "right"
      },
      {
        "midi": 72,
        "time": 51.546,
        "duration": 0.136,
        "velocity": 0.71,
        "hand": "right"
      },
      {
        "midi": 67,
        "time": 51.682,
        "duration": 0.136,
        "velocity": 0.71,
        "hand": "right"
      },
      {
        "midi": 71,
        "time": 51.682,
        "duration": 0.136,
        "velocity": 0.71,
        "hand": "right"
      },
      {
        "midi": 62,
        "time": 51.819,
        "duration": 0.545,
        "velocity": 0.71,
        "hand": "right"
      },
      {
        "midi": 66,
        "time": 51.819,
        "duration": 0.545,
        "velocity": 0.71,
        "hand": "right"
      },
      {
        "midi": 69,
        "time": 51.819,
        "duration": 0.545,
        "velocity": 0.71,
        "hand": "right"
      },
      {
        "midi": 50,
        "time": 52.091,
        "duration": 0.258,
        "velocity": 0.71,
        "hand": "left"
      },
      {
        "midi": 50,
        "time": 52.364,
        "duration": 0.258,
        "velocity": 0.71,
        "hand": "left"
      },
      {
        "midi": 54,
        "time": 52.364,
        "duration": 0.545,
        "velocity": 0.71,
        "hand": "left"
      },
      {
        "midi": 71,
        "time": 52.364,
        "duration": 0.545,
        "velocity": 0.71,
        "hand": "right"
      },
      {
        "midi": 50,
        "time": 52.637,
        "duration": 0.258,
        "velocity": 0.71,
        "hand": "left"
      },
      {
        "midi": 50,
        "time": 52.91,
        "duration": 0.257,
        "velocity": 0.71,
        "hand": "left"
      },
      {
        "midi": 56,
        "time": 52.91,
        "duration": 0.818,
        "velocity": 0.71,
        "hand": "left"
      },
      {
        "midi": 64,
        "time": 52.91,
        "duration": 0.818,
        "velocity": 0.71,
        "hand": "right"
      },
      {
        "midi": 50,
        "time": 53.182,
        "duration": 0.273,
        "velocity": 0.71,
        "hand": "left"
      },
      {
        "midi": 48,
        "time": 53.455,
        "duration": 0.273,
        "velocity": 0.71,
        "hand": "left"
      },
      {
        "midi": 47,
        "time": 53.728,
        "duration": 0.273,
        "velocity": 0.71,
        "hand": "left"
      },
      {
        "midi": 57,
        "time": 53.728,
        "duration": 0.136,
        "velocity": 0.71,
        "hand": "left"
      },
      {
        "midi": 66,
        "time": 53.728,
        "duration": 0.136,
        "velocity": 0.71,
        "hand": "right"
      },
      {
        "midi": 59,
        "time": 53.864,
        "duration": 0.136,
        "velocity": 0.71,
        "hand": "left"
      },
      {
        "midi": 67,
        "time": 53.864,
        "duration": 0.136,
        "velocity": 0.71,
        "hand": "right"
      },
      {
        "midi": 45,
        "time": 54,
        "duration": 0.545,
        "velocity": 0.71,
        "hand": "left"
      },
      {
        "midi": 60,
        "time": 54,
        "duration": 0.273,
        "velocity": 0.71,
        "hand": "right"
      },
      {
        "midi": 69,
        "time": 54,
        "duration": 0.545,
        "velocity": 0.71,
        "hand": "right"
      },
      {
        "midi": 57,
        "time": 54.273,
        "duration": 0.273,
        "velocity": 0.71,
        "hand": "left"
      },
      {
        "midi": 48,
        "time": 54.546,
        "duration": 0.545,
        "velocity": 0.71,
        "hand": "left"
      },
      {
        "midi": 54,
        "time": 54.546,
        "duration": 0.273,
        "velocity": 0.71,
        "hand": "left"
      },
      {
        "midi": 62,
        "time": 54.546,
        "duration": 1.076,
        "velocity": 0.71,
        "hand": "right"
      },
      {
        "midi": 55,
        "time": 54.819,
        "duration": 0.273,
        "velocity": 0.71,
        "hand": "left"
      },
      {
        "midi": 64,
        "time": 54.819,
        "duration": 0.273,
        "velocity": 0.71,
        "hand": "right"
      },
      {
        "midi": 38,
        "time": 55.091,
        "duration": 0.545,
        "velocity": 0.71,
        "hand": "left"
      },
      {
        "midi": 57,
        "time": 55.091,
        "duration": 0.273,
        "velocity": 0.71,
        "hand": "left"
      },
      {
        "midi": 66,
        "time": 55.091,
        "duration": 0.273,
        "velocity": 0.71,
        "hand": "right"
      },
      {
        "midi": 55,
        "time": 55.364,
        "duration": 0.273,
        "velocity": 0.71,
        "hand": "left"
      },
      {
        "midi": 67,
        "time": 55.364,
        "duration": 0.273,
        "velocity": 0.71,
        "hand": "right"
      },
      {
        "midi": 48,
        "time": 55.637,
        "duration": 0.545,
        "velocity": 0.71,
        "hand": "left"
      },
      {
        "midi": 54,
        "time": 55.637,
        "duration": 0.545,
        "velocity": 0.71,
        "hand": "left"
      },
      {
        "midi": 62,
        "time": 55.637,
        "duration": 0.53,
        "velocity": 0.71,
        "hand": "right"
      },
      {
        "midi": 69,
        "time": 55.637,
        "duration": 0.273,
        "velocity": 0.71,
        "hand": "right"
      },
      {
        "midi": 71,
        "time": 55.91,
        "duration": 0.273,
        "velocity": 0.71,
        "hand": "right"
      },
      {
        "midi": 47,
        "time": 56.182,
        "duration": 0.545,
        "velocity": 0.71,
        "hand": "left"
      },
      {
        "midi": 55,
        "time": 56.182,
        "duration": 0.545,
        "velocity": 0.71,
        "hand": "left"
      },
      {
        "midi": 62,
        "time": 56.182,
        "duration": 0.545,
        "velocity": 0.71,
        "hand": "right"
      },
      {
        "midi": 67,
        "time": 56.182,
        "duration": 0.545,
        "velocity": 0.71,
        "hand": "right"
      }
    ]
  },
  "notes1Hand": [
    {
      "midi": 76,
      "time": 0,
      "duration": 0.545,
      "velocity": 0.71,
      "hand": "right"
    },
    {
      "midi": 72,
      "time": 1.091,
      "duration": 0.545,
      "velocity": 0.71,
      "hand": "right"
    },
    {
      "midi": 72,
      "time": 2.182,
      "duration": 0.545,
      "velocity": 0.71,
      "hand": "right"
    },
    {
      "midi": 72,
      "time": 3.546,
      "duration": 0.327,
      "velocity": 0.71,
      "hand": "right"
    },
    {
      "midi": 71,
      "time": 4.364,
      "duration": 0.545,
      "velocity": 0.71,
      "hand": "right"
    },
    {
      "midi": 66,
      "time": 5.728,
      "duration": 0.327,
      "velocity": 0.71,
      "hand": "right"
    },
    {
      "midi": 62,
      "time": 6.546,
      "duration": 0.327,
      "velocity": 0.71,
      "hand": "right"
    },
    {
      "midi": 67,
      "time": 7.364,
      "duration": 0.327,
      "velocity": 0.71,
      "hand": "right"
    },
    {
      "midi": 67,
      "time": 8.182,
      "duration": 0.545,
      "velocity": 0.71,
      "hand": "right"
    },
    {
      "midi": 69,
      "time": 9.273,
      "duration": 0.545,
      "velocity": 0.71,
      "hand": "right"
    },
    {
      "midi": 73,
      "time": 10.091,
      "duration": 0.327,
      "velocity": 0.71,
      "hand": "right"
    },
    {
      "midi": 67,
      "time": 10.91,
      "duration": 0.545,
      "velocity": 0.71,
      "hand": "right"
    },
    {
      "midi": 78,
      "time": 12,
      "duration": 0.545,
      "velocity": 0.71,
      "hand": "right"
    },
    {
      "midi": 78,
      "time": 13.091,
      "duration": 0.327,
      "velocity": 0.71,
      "hand": "right"
    },
    {
      "midi": 73,
      "time": 13.91,
      "duration": 0.327,
      "velocity": 0.71,
      "hand": "right"
    },
    {
      "midi": 62,
      "time": 14.591,
      "duration": 0.327,
      "velocity": 0.71,
      "hand": "right"
    },
    {
      "midi": 57,
      "time": 15.273,
      "duration": 0.327,
      "velocity": 0.71,
      "hand": "right"
    },
    {
      "midi": 62,
      "time": 16.091,
      "duration": 0.327,
      "velocity": 0.71,
      "hand": "right"
    },
    {
      "midi": 74,
      "time": 16.91,
      "duration": 0.327,
      "velocity": 0.71,
      "hand": "right"
    },
    {
      "midi": 71,
      "time": 17.728,
      "duration": 0.327,
      "velocity": 0.71,
      "hand": "right"
    },
    {
      "midi": 64,
      "time": 18.546,
      "duration": 0.327,
      "velocity": 0.71,
      "hand": "right"
    },
    {
      "midi": 71,
      "time": 19.364,
      "duration": 0.327,
      "velocity": 0.71,
      "hand": "right"
    },
    {
      "midi": 71,
      "time": 20.182,
      "duration": 0.818,
      "velocity": 0.71,
      "hand": "right"
    },
    {
      "midi": 69,
      "time": 21,
      "duration": 0.327,
      "velocity": 0.71,
      "hand": "right"
    },
    {
      "midi": 79,
      "time": 21.819,
      "duration": 0.327,
      "velocity": 0.71,
      "hand": "right"
    },
    {
      "midi": 66,
      "time": 22.637,
      "duration": 0.327,
      "velocity": 0.71,
      "hand": "right"
    },
    {
      "midi": 74,
      "time": 23.455,
      "duration": 0.818,
      "velocity": 0.71,
      "hand": "right"
    },
    {
      "midi": 72,
      "time": 24.273,
      "duration": 0.327,
      "velocity": 0.71,
      "hand": "right"
    },
    {
      "midi": 79,
      "time": 25.091,
      "duration": 0.545,
      "velocity": 0.71,
      "hand": "right"
    },
    {
      "midi": 75,
      "time": 26.182,
      "duration": 0.545,
      "velocity": 0.71,
      "hand": "right"
    },
    {
      "midi": 66,
      "time": 27,
      "duration": 0.327,
      "velocity": 0.71,
      "hand": "right"
    },
    {
      "midi": 55,
      "time": 27.682,
      "duration": 0.327,
      "velocity": 0.71,
      "hand": "right"
    },
    {
      "midi": 66,
      "time": 28.364,
      "duration": 0.327,
      "velocity": 0.71,
      "hand": "right"
    },
    {
      "midi": 71,
      "time": 29.182,
      "duration": 0.327,
      "velocity": 0.71,
      "hand": "right"
    },
    {
      "midi": 71,
      "time": 30,
      "duration": 1.364,
      "velocity": 0.71,
      "hand": "right"
    },
    {
      "midi": 66,
      "time": 30.819,
      "duration": 0.327,
      "velocity": 0.71,
      "hand": "right"
    },
    {
      "midi": 74,
      "time": 31.637,
      "duration": 0.327,
      "velocity": 0.71,
      "hand": "right"
    },
    {
      "midi": 66,
      "time": 32.455,
      "duration": 0.327,
      "velocity": 0.71,
      "hand": "right"
    },
    {
      "midi": 74,
      "time": 33.273,
      "duration": 0.531,
      "velocity": 0.71,
      "hand": "right"
    },
    {
      "midi": 64,
      "time": 34.091,
      "duration": 0.327,
      "velocity": 0.71,
      "hand": "right"
    },
    {
      "midi": 74,
      "time": 34.91,
      "duration": 0.327,
      "velocity": 0.71,
      "hand": "right"
    },
    {
      "midi": 79,
      "time": 35.728,
      "duration": 0.327,
      "velocity": 0.71,
      "hand": "right"
    },
    {
      "midi": 74,
      "time": 36.546,
      "duration": 0.545,
      "velocity": 0.71,
      "hand": "right"
    },
    {
      "midi": 67,
      "time": 37.364,
      "duration": 0.327,
      "velocity": 0.71,
      "hand": "right"
    },
    {
      "midi": 81,
      "time": 38.182,
      "duration": 0.545,
      "velocity": 0.71,
      "hand": "right"
    },
    {
      "midi": 73,
      "time": 39.273,
      "duration": 0.545,
      "velocity": 0.71,
      "hand": "right"
    },
    {
      "midi": 61,
      "time": 40.091,
      "duration": 0.327,
      "velocity": 0.71,
      "hand": "right"
    },
    {
      "midi": 62,
      "time": 40.773,
      "duration": 0.327,
      "velocity": 0.71,
      "hand": "right"
    },
    {
      "midi": 64,
      "time": 41.455,
      "duration": 0.53,
      "velocity": 0.71,
      "hand": "right"
    },
    {
      "midi": 66,
      "time": 42.273,
      "duration": 0.327,
      "velocity": 0.71,
      "hand": "right"
    },
    {
      "midi": 66,
      "time": 43.091,
      "duration": 1.364,
      "velocity": 0.71,
      "hand": "right"
    },
    {
      "midi": 59,
      "time": 43.91,
      "duration": 0.327,
      "velocity": 0.71,
      "hand": "right"
    },
    {
      "midi": 67,
      "time": 44.728,
      "duration": 0.327,
      "velocity": 0.71,
      "hand": "right"
    },
    {
      "midi": 67,
      "time": 45.546,
      "duration": 0.327,
      "velocity": 0.71,
      "hand": "right"
    },
    {
      "midi": 67,
      "time": 46.364,
      "duration": 0.327,
      "velocity": 0.71,
      "hand": "right"
    },
    {
      "midi": 73,
      "time": 47.182,
      "duration": 0.327,
      "velocity": 0.71,
      "hand": "right"
    },
    {
      "midi": 76,
      "time": 48,
      "duration": 0.545,
      "velocity": 0.71,
      "hand": "right"
    },
    {
      "midi": 72,
      "time": 48.819,
      "duration": 0.327,
      "velocity": 0.71,
      "hand": "right"
    },
    {
      "midi": 71,
      "time": 49.637,
      "duration": 0.545,
      "velocity": 0.71,
      "hand": "right"
    },
    {
      "midi": 55,
      "time": 50.455,
      "duration": 0.327,
      "velocity": 0.71,
      "hand": "right"
    },
    {
      "midi": 59,
      "time": 51.273,
      "duration": 0.327,
      "velocity": 0.71,
      "hand": "right"
    },
    {
      "midi": 62,
      "time": 52.091,
      "duration": 0.327,
      "velocity": 0.71,
      "hand": "right"
    },
    {
      "midi": 64,
      "time": 52.91,
      "duration": 0.818,
      "velocity": 0.71,
      "hand": "right"
    },
    {
      "midi": 66,
      "time": 53.728,
      "duration": 0.327,
      "velocity": 0.71,
      "hand": "right"
    },
    {
      "midi": 62,
      "time": 54.546,
      "duration": 1.076,
      "velocity": 0.71,
      "hand": "right"
    },
    {
      "midi": 67,
      "time": 55.364,
      "duration": 0.327,
      "velocity": 0.71,
      "hand": "right"
    },
    {
      "midi": 67,
      "time": 56.182,
      "duration": 0.545,
      "velocity": 0.71,
      "hand": "right"
    }
  ],
  "notes2Hands": [
    {
      "midi": 76,
      "time": 0,
      "duration": 0.545,
      "velocity": 0.71,
      "hand": "right"
    },
    {
      "midi": 74,
      "time": 0.546,
      "duration": 0.545,
      "velocity": 0.71,
      "hand": "right"
    },
    {
      "midi": 72,
      "time": 1.091,
      "duration": 0.545,
      "velocity": 0.71,
      "hand": "right"
    },
    {
      "midi": 71,
      "time": 1.637,
      "duration": 0.545,
      "velocity": 0.71,
      "hand": "right"
    },
    {
      "midi": 72,
      "time": 2.182,
      "duration": 0.545,
      "velocity": 0.71,
      "hand": "right"
    },
    {
      "midi": 74,
      "time": 2.728,
      "duration": 0.818,
      "velocity": 0.71,
      "hand": "right"
    },
    {
      "midi": 72,
      "time": 3.546,
      "duration": 0.136,
      "velocity": 0.71,
      "hand": "right"
    },
    {
      "midi": 71,
      "time": 3.682,
      "duration": 0.136,
      "velocity": 0.71,
      "hand": "right"
    },
    {
      "midi": 69,
      "time": 3.819,
      "duration": 0.545,
      "velocity": 0.71,
      "hand": "right"
    },
    {
      "midi": 71,
      "time": 4.364,
      "duration": 0.545,
      "velocity": 0.71,
      "hand": "right"
    },
    {
      "midi": 64,
      "time": 4.91,
      "duration": 0.818,
      "velocity": 0.71,
      "hand": "right"
    },
    {
      "midi": 66,
      "time": 5.728,
      "duration": 0.136,
      "velocity": 0.71,
      "hand": "right"
    },
    {
      "midi": 67,
      "time": 5.864,
      "duration": 0.136,
      "velocity": 0.71,
      "hand": "right"
    },
    {
      "midi": 69,
      "time": 6,
      "duration": 0.545,
      "velocity": 0.71,
      "hand": "right"
    },
    {
      "midi": 62,
      "time": 6.546,
      "duration": 0.273,
      "velocity": 0.71,
      "hand": "right"
    },
    {
      "midi": 64,
      "time": 6.819,
      "duration": 0.273,
      "velocity": 0.71,
      "hand": "right"
    },
    {
      "midi": 66,
      "time": 7.091,
      "duration": 0.273,
      "velocity": 0.71,
      "hand": "right"
    },
    {
      "midi": 67,
      "time": 7.364,
      "duration": 0.273,
      "velocity": 0.71,
      "hand": "right"
    },
    {
      "midi": 69,
      "time": 7.637,
      "duration": 0.273,
      "velocity": 0.71,
      "hand": "right"
    },
    {
      "midi": 71,
      "time": 7.91,
      "duration": 0.273,
      "velocity": 0.71,
      "hand": "right"
    },
    {
      "midi": 67,
      "time": 8.182,
      "duration": 0.545,
      "velocity": 0.71,
      "hand": "right"
    },
    {
      "midi": 71,
      "time": 8.728,
      "duration": 0.545,
      "velocity": 0.71,
      "hand": "right"
    },
    {
      "midi": 74,
      "time": 8.728,
      "duration": 0.818,
      "velocity": 0.71,
      "hand": "right"
    },
    {
      "midi": 69,
      "time": 9.273,
      "duration": 0.545,
      "velocity": 0.71,
      "hand": "right"
    },
    {
      "midi": 73,
      "time": 9.546,
      "duration": 0.273,
      "velocity": 0.71,
      "hand": "right"
    },
    {
      "midi": 67,
      "time": 9.819,
      "duration": 0.545,
      "velocity": 0.71,
      "hand": "right"
    },
    {
      "midi": 79,
      "time": 9.819,
      "duration": 0.273,
      "velocity": 0.71,
      "hand": "right"
    },
    {
      "midi": 73,
      "time": 10.091,
      "duration": 0.273,
      "velocity": 0.71,
      "hand": "right"
    },
    {
      "midi": 66,
      "time": 10.364,
      "duration": 0.545,
      "velocity": 0.71,
      "hand": "right"
    },
    {
      "midi": 81,
      "time": 10.364,
      "duration": 0.818,
      "velocity": 0.71,
      "hand": "right"
    },
    {
      "midi": 67,
      "time": 10.91,
      "duration": 0.545,
      "velocity": 0.71,
      "hand": "right"
    },
    {
      "midi": 79,
      "time": 11.182,
      "duration": 0.136,
      "velocity": 0.71,
      "hand": "right"
    },
    {
      "midi": 78,
      "time": 11.319,
      "duration": 0.136,
      "velocity": 0.71,
      "hand": "right"
    },
    {
      "midi": 69,
      "time": 11.455,
      "duration": 0.818,
      "velocity": 0.71,
      "hand": "right"
    },
    {
      "midi": 76,
      "time": 11.455,
      "duration": 0.545,
      "velocity": 0.71,
      "hand": "right"
    },
    {
      "midi": 78,
      "time": 12,
      "duration": 0.545,
      "velocity": 0.71,
      "hand": "right"
    },
    {
      "midi": 67,
      "time": 12.273,
      "duration": 0.136,
      "velocity": 0.71,
      "hand": "right"
    },
    {
      "midi": 66,
      "time": 12.41,
      "duration": 0.136,
      "velocity": 0.71,
      "hand": "right"
    },
    {
      "midi": 64,
      "time": 12.546,
      "duration": 0.545,
      "velocity": 0.71,
      "hand": "right"
    },
    {
      "midi": 79,
      "time": 12.546,
      "duration": 0.545,
      "velocity": 0.71,
      "hand": "right"
    },
    {
      "midi": 66,
      "time": 13.091,
      "duration": 0.545,
      "velocity": 0.71,
      "hand": "right"
    },
    {
      "midi": 78,
      "time": 13.091,
      "duration": 0.273,
      "velocity": 0.71,
      "hand": "right"
    },
    {
      "midi": 76,
      "time": 13.364,
      "duration": 0.273,
      "velocity": 0.71,
      "hand": "right"
    },
    {
      "midi": 59,
      "time": 13.637,
      "duration": 0.818,
      "velocity": 0.71,
      "hand": "left"
    },
    {
      "midi": 74,
      "time": 13.637,
      "duration": 0.273,
      "velocity": 0.71,
      "hand": "right"
    },
    {
      "midi": 73,
      "time": 13.91,
      "duration": 0.273,
      "velocity": 0.71,
      "hand": "right"
    },
    {
      "midi": 71,
      "time": 14.182,
      "duration": 0.273,
      "velocity": 0.71,
      "hand": "right"
    },
    {
      "midi": 61,
      "time": 14.455,
      "duration": 0.136,
      "velocity": 0.71,
      "hand": "right"
    },
    {
      "midi": 69,
      "time": 14.455,
      "duration": 0.273,
      "velocity": 0.71,
      "hand": "right"
    },
    {
      "midi": 62,
      "time": 14.591,
      "duration": 0.136,
      "velocity": 0.71,
      "hand": "right"
    },
    {
      "midi": 64,
      "time": 14.728,
      "duration": 0.545,
      "velocity": 0.71,
      "hand": "right"
    },
    {
      "midi": 67,
      "time": 14.728,
      "duration": 0.818,
      "velocity": 0.71,
      "hand": "right"
    },
    {
      "midi": 57,
      "time": 15.273,
      "duration": 0.273,
      "velocity": 0.71,
      "hand": "left"
    },
    {
      "midi": 59,
      "time": 15.546,
      "duration": 0.273,
      "velocity": 0.71,
      "hand": "left"
    },
    {
      "midi": 66,
      "time": 15.546,
      "duration": 0.136,
      "velocity": 0.71,
      "hand": "right"
    },
    {
      "midi": 67,
      "time": 15.682,
      "duration": 0.136,
      "velocity": 0.71,
      "hand": "right"
    },
    {
      "midi": 61,
      "time": 15.819,
      "duration": 0.273,
      "velocity": 0.71,
      "hand": "right"
    },
    {
      "midi": 64,
      "time": 15.819,
      "duration": 0.53,
      "velocity": 0.71,
      "hand": "right"
    },
    {
      "midi": 62,
      "time": 16.091,
      "duration": 0.273,
      "velocity": 0.71,
      "hand": "right"
    },
    {
      "midi": 64,
      "time": 16.364,
      "duration": 0.273,
      "velocity": 0.71,
      "hand": "right"
    },
    {
      "midi": 73,
      "time": 16.364,
      "duration": 0.545,
      "velocity": 0.71,
      "hand": "right"
    },
    {
      "midi": 66,
      "time": 16.637,
      "duration": 0.273,
      "velocity": 0.71,
      "hand": "right"
    },
    {
      "midi": 62,
      "time": 16.91,
      "duration": 1.364,
      "velocity": 0.71,
      "hand": "right"
    },
    {
      "midi": 74,
      "time": 16.91,
      "duration": 0.273,
      "velocity": 0.71,
      "hand": "right"
    },
    {
      "midi": 68,
      "time": 17.182,
      "duration": 0.273,
      "velocity": 0.71,
      "hand": "right"
    },
    {
      "midi": 69,
      "time": 17.455,
      "duration": 0.273,
      "velocity": 0.71,
      "hand": "right"
    },
    {
      "midi": 71,
      "time": 17.728,
      "duration": 0.273,
      "velocity": 0.71,
      "hand": "right"
    },
    {
      "midi": 72,
      "time": 18,
      "duration": 1.364,
      "velocity": 0.71,
      "hand": "right"
    },
    {
      "midi": 63,
      "time": 18.273,
      "duration": 0.273,
      "velocity": 0.71,
      "hand": "right"
    },
    {
      "midi": 64,
      "time": 18.546,
      "duration": 0.273,
      "velocity": 0.71,
      "hand": "right"
    },
    {
      "midi": 66,
      "time": 18.819,
      "duration": 0.273,
      "velocity": 0.71,
      "hand": "right"
    },
    {
      "midi": 67,
      "time": 19.091,
      "duration": 0.818,
      "velocity": 0.71,
      "hand": "right"
    },
    {
      "midi": 71,
      "time": 19.364,
      "duration": 0.273,
      "velocity": 0.71,
      "hand": "right"
    },
    {
      "midi": 76,
      "time": 19.637,
      "duration": 0.818,
      "velocity": 0.71,
      "hand": "right"
    },
    {
      "midi": 66,
      "time": 19.91,
      "duration": 0.273,
      "velocity": 0.71,
      "hand": "right"
    },
    {
      "midi": 71,
      "time": 20.182,
      "duration": 0.818,
      "velocity": 0.71,
      "hand": "right"
    },
    {
      "midi": 74,
      "time": 20.455,
      "duration": 0.273,
      "velocity": 0.71,
      "hand": "right"
    },
    {
      "midi": 79,
      "time": 20.728,
      "duration": 0.818,
      "velocity": 0.71,
      "hand": "right"
    },
    {
      "midi": 69,
      "time": 21,
      "duration": 0.273,
      "velocity": 0.71,
      "hand": "right"
    },
    {
      "midi": 74,
      "time": 21.273,
      "duration": 0.545,
      "velocity": 0.71,
      "hand": "right"
    },
    {
      "midi": 78,
      "time": 21.546,
      "duration": 0.273,
      "velocity": 0.71,
      "hand": "right"
    },
    {
      "midi": 64,
      "time": 21.819,
      "duration": 0.545,
      "velocity": 0.71,
      "hand": "right"
    },
    {
      "midi": 67,
      "time": 21.819,
      "duration": 0.818,
      "velocity": 0.71,
      "hand": "right"
    },
    {
      "midi": 79,
      "time": 21.819,
      "duration": 0.273,
      "velocity": 0.71,
      "hand": "right"
    },
    {
      "midi": 73,
      "time": 22.091,
      "duration": 0.273,
      "velocity": 0.71,
      "hand": "right"
    },
    {
      "midi": 62,
      "time": 22.364,
      "duration": 0.545,
      "velocity": 0.71,
      "hand": "right"
    },
    {
      "midi": 74,
      "time": 22.364,
      "duration": 1.076,
      "velocity": 0.71,
      "hand": "right"
    },
    {
      "midi": 66,
      "time": 22.637,
      "duration": 0.273,
      "velocity": 0.71,
      "hand": "right"
    },
    {
      "midi": 60,
      "time": 22.91,
      "duration": 0.545,
      "velocity": 0.71,
      "hand": "right"
    },
    {
      "midi": 72,
      "time": 22.91,
      "duration": 0.273,
      "velocity": 0.71,
      "hand": "right"
    },
    {
      "midi": 66,
      "time": 23.182,
      "duration": 0.273,
      "velocity": 0.71,
      "hand": "right"
    },
    {
      "midi": 59,
      "time": 23.455,
      "duration": 0.545,
      "velocity": 0.71,
      "hand": "left"
    },
    {
      "midi": 74,
      "time": 23.455,
      "duration": 0.818,
      "velocity": 0.71,
      "hand": "right"
    },
    {
      "midi": 60,
      "time": 24,
      "duration": 0.545,
      "velocity": 0.71,
      "hand": "right"
    },
    {
      "midi": 76,
      "time": 24,
      "duration": 0.545,
      "velocity": 0.71,
      "hand": "right"
    },
    {
      "midi": 72,
      "time": 24.273,
      "duration": 0.136,
      "velocity": 0.71,
      "hand": "right"
    },
    {
      "midi": 71,
      "time": 24.41,
      "duration": 0.136,
      "velocity": 0.71,
      "hand": "right"
    },
    {
      "midi": 62,
      "time": 24.546,
      "duration": 0.818,
      "velocity": 0.71,
      "hand": "right"
    },
    {
      "midi": 69,
      "time": 24.546,
      "duration": 0.545,
      "velocity": 0.71,
      "hand": "right"
    },
    {
      "midi": 78,
      "time": 24.546,
      "duration": 0.545,
      "velocity": 0.71,
      "hand": "right"
    },
    {
      "midi": 71,
      "time": 25.091,
      "duration": 0.545,
      "velocity": 0.71,
      "hand": "right"
    },
    {
      "midi": 79,
      "time": 25.091,
      "duration": 0.545,
      "velocity": 0.71,
      "hand": "right"
    },
    {
      "midi": 60,
      "time": 25.364,
      "duration": 0.136,
      "velocity": 0.71,
      "hand": "right"
    },
    {
      "midi": 59,
      "time": 25.5,
      "duration": 0.136,
      "velocity": 0.71,
      "hand": "left"
    },
    {
      "midi": 57,
      "time": 25.637,
      "duration": 0.545,
      "velocity": 0.71,
      "hand": "left"
    },
    {
      "midi": 72,
      "time": 25.637,
      "duration": 0.545,
      "velocity": 0.71,
      "hand": "right"
    },
    {
      "midi": 81,
      "time": 25.637,
      "duration": 0.545,
      "velocity": 0.71,
      "hand": "right"
    },
    {
      "midi": 59,
      "time": 26.182,
      "duration": 0.545,
      "velocity": 0.71,
      "hand": "left"
    },
    {
      "midi": 71,
      "time": 26.182,
      "duration": 0.273,
      "velocity": 0.71,
      "hand": "right"
    },
    {
      "midi": 75,
      "time": 26.182,
      "duration": 0.545,
      "velocity": 0.71,
      "hand": "right"
    },
    {
      "midi": 69,
      "time": 26.455,
      "duration": 0.273,
      "velocity": 0.71,
      "hand": "right"
    },
    {
      "midi": 52,
      "time": 26.728,
      "duration": 0.818,
      "velocity": 0.71,
      "hand": "left"
    },
    {
      "midi": 67,
      "time": 26.728,
      "duration": 0.273,
      "velocity": 0.71,
      "hand": "right"
    },
    {
      "midi": 79,
      "time": 26.728,
      "duration": 0.545,
      "velocity": 0.71,
      "hand": "right"
    },
    {
      "midi": 66,
      "time": 27,
      "duration": 0.273,
      "velocity": 0.71,
      "hand": "right"
    },
    {
      "midi": 64,
      "time": 27.273,
      "duration": 0.273,
      "velocity": 0.71,
      "hand": "right"
    },
    {
      "midi": 73,
      "time": 27.273,
      "duration": 0.545,
      "velocity": 0.71,
      "hand": "right"
    },
    {
      "midi": 54,
      "time": 27.546,
      "duration": 0.136,
      "velocity": 0.71,
      "hand": "left"
    },
    {
      "midi": 62,
      "time": 27.546,
      "duration": 0.273,
      "velocity": 0.71,
      "hand": "right"
    },
    {
      "midi": 55,
      "time": 27.682,
      "duration": 0.136,
      "velocity": 0.71,
      "hand": "left"
    },
    {
      "midi": 57,
      "time": 27.819,
      "duration": 0.545,
      "velocity": 0.71,
      "hand": "left"
    },
    {
      "midi": 61,
      "time": 27.819,
      "duration": 0.818,
      "velocity": 0.71,
      "hand": "right"
    },
    {
      "midi": 76,
      "time": 27.819,
      "duration": 0.545,
      "velocity": 0.71,
      "hand": "right"
    },
    {
      "midi": 50,
      "time": 28.364,
      "duration": 0.273,
      "velocity": 0.71,
      "hand": "left"
    },
    {
      "midi": 66,
      "time": 28.364,
      "duration": 0.273,
      "velocity": 0.71,
      "hand": "right"
    },
    {
      "midi": 52,
      "time": 28.637,
      "duration": 0.273,
      "velocity": 0.71,
      "hand": "left"
    },
    {
      "midi": 59,
      "time": 28.637,
      "duration": 0.136,
      "velocity": 0.71,
      "hand": "left"
    },
    {
      "midi": 67,
      "time": 28.637,
      "duration": 0.273,
      "velocity": 0.71,
      "hand": "right"
    },
    {
      "midi": 61,
      "time": 28.773,
      "duration": 0.136,
      "velocity": 0.71,
      "hand": "right"
    },
    {
      "midi": 54,
      "time": 28.91,
      "duration": 0.273,
      "velocity": 0.71,
      "hand": "left"
    },
    {
      "midi": 57,
      "time": 28.91,
      "duration": 0.53,
      "velocity": 0.71,
      "hand": "left"
    },
    {
      "midi": 69,
      "time": 28.91,
      "duration": 0.273,
      "velocity": 0.71,
      "hand": "right"
    },
    {
      "midi": 55,
      "time": 29.182,
      "duration": 0.273,
      "velocity": 0.71,
      "hand": "left"
    },
    {
      "midi": 71,
      "time": 29.182,
      "duration": 0.273,
      "velocity": 0.71,
      "hand": "right"
    },
    {
      "midi": 57,
      "time": 29.455,
      "duration": 0.273,
      "velocity": 0.71,
      "hand": "left"
    },
    {
      "midi": 66,
      "time": 29.455,
      "duration": 0.545,
      "velocity": 0.71,
      "hand": "right"
    },
    {
      "midi": 73,
      "time": 29.455,
      "duration": 0.273,
      "velocity": 0.71,
      "hand": "right"
    },
    {
      "midi": 59,
      "time": 29.728,
      "duration": 0.273,
      "velocity": 0.71,
      "hand": "left"
    },
    {
      "midi": 74,
      "time": 29.728,
      "duration": 0.273,
      "velocity": 0.71,
      "hand": "right"
    },
    {
      "midi": 55,
      "time": 30,
      "duration": 1.364,
      "velocity": 0.71,
      "hand": "left"
    },
    {
      "midi": 67,
      "time": 30,
      "duration": 0.273,
      "velocity": 0.71,
      "hand": "right"
    },
    {
      "midi": 71,
      "time": 30,
      "duration": 1.364,
      "velocity": 0.71,
      "hand": "right"
    },
    {
      "midi": 61,
      "time": 30.273,
      "duration": 0.273,
      "velocity": 0.71,
      "hand": "right"
    },
    {
      "midi": 62,
      "time": 30.546,
      "duration": 0.273,
      "velocity": 0.71,
      "hand": "right"
    },
    {
      "midi": 66,
      "time": 30.819,
      "duration": 0.273,
      "velocity": 0.71,
      "hand": "right"
    },
    {
      "midi": 67,
      "time": 31.091,
      "duration": 1.364,
      "velocity": 0.71,
      "hand": "right"
    },
    {
      "midi": 58,
      "time": 31.364,
      "duration": 0.273,
      "velocity": 0.71,
      "hand": "left"
    },
    {
      "midi": 73,
      "time": 31.364,
      "duration": 0.273,
      "velocity": 0.71,
      "hand": "right"
    },
    {
      "midi": 59,
      "time": 31.637,
      "duration": 0.273,
      "velocity": 0.71,
      "hand": "left"
    },
    {
      "midi": 74,
      "time": 31.637,
      "duration": 0.273,
      "velocity": 0.71,
      "hand": "right"
    },
    {
      "midi": 61,
      "time": 31.91,
      "duration": 0.273,
      "velocity": 0.71,
      "hand": "right"
    },
    {
      "midi": 71,
      "time": 31.91,
      "duration": 0.273,
      "velocity": 0.71,
      "hand": "right"
    },
    {
      "midi": 62,
      "time": 32.182,
      "duration": 0.818,
      "velocity": 0.71,
      "hand": "right"
    },
    {
      "midi": 69,
      "time": 32.182,
      "duration": 0.545,
      "velocity": 0.71,
      "hand": "right"
    },
    {
      "midi": 66,
      "time": 32.455,
      "duration": 0.273,
      "velocity": 0.71,
      "hand": "right"
    },
    {
      "midi": 71,
      "time": 32.728,
      "duration": 0.818,
      "velocity": 0.71,
      "hand": "right"
    },
    {
      "midi": 61,
      "time": 33,
      "duration": 0.273,
      "velocity": 0.71,
      "hand": "right"
    },
    {
      "midi": 66,
      "time": 33.273,
      "duration": 0.818,
      "velocity": 0.71,
      "hand": "right"
    },
    {
      "midi": 74,
      "time": 33.273,
      "duration": 0.531,
      "velocity": 0.71,
      "hand": "right"
    },
    {
      "midi": 69,
      "time": 33.546,
      "duration": 0.273,
      "velocity": 0.71,
      "hand": "right"
    },
    {
      "midi": 74,
      "time": 33.819,
      "duration": 0.818,
      "velocity": 0.71,
      "hand": "right"
    },
    {
      "midi": 83,
      "time": 33.819,
      "duration": 0.545,
      "velocity": 0.71,
      "hand": "right"
    },
    {
      "midi": 64,
      "time": 34.091,
      "duration": 0.273,
      "velocity": 0.71,
      "hand": "right"
    },
    {
      "midi": 69,
      "time": 34.364,
      "duration": 0.545,
      "velocity": 0.71,
      "hand": "right"
    },
    {
      "midi": 76,
      "time": 34.364,
      "duration": 1.364,
      "velocity": 0.71,
      "hand": "right"
    },
    {
      "midi": 73,
      "time": 34.637,
      "duration": 0.273,
      "velocity": 0.71,
      "hand": "right"
    },
    {
      "midi": 59,
      "time": 34.91,
      "duration": 0.545,
      "velocity": 0.71,
      "hand": "left"
    },
    {
      "midi": 62,
      "time": 34.91,
      "duration": 0.818,
      "velocity": 0.71,
      "hand": "right"
    },
    {
      "midi": 74,
      "time": 34.91,
      "duration": 0.273,
      "velocity": 0.71,
      "hand": "right"
    },
    {
      "midi": 68,
      "time": 35.182,
      "duration": 0.273,
      "velocity": 0.71,
      "hand": "right"
    },
    {
      "midi": 57,
      "time": 35.455,
      "duration": 0.545,
      "velocity": 0.71,
      "hand": "left"
    },
    {
      "midi": 69,
      "time": 35.455,
      "duration": 1.076,
      "velocity": 0.71,
      "hand": "right"
    },
    {
      "midi": 61,
      "time": 35.728,
      "duration": 0.273,
      "velocity": 0.71,
      "hand": "right"
    },
    {
      "midi": 79,
      "time": 35.728,
      "duration": 0.273,
      "velocity": 0.71,
      "hand": "right"
    },
    {
      "midi": 55,
      "time": 36,
      "duration": 0.545,
      "velocity": 0.71,
      "hand": "left"
    },
    {
      "midi": 67,
      "time": 36,
      "duration": 0.273,
      "velocity": 0.71,
      "hand": "right"
    },
    {
      "midi": 73,
      "time": 36,
      "duration": 0.273,
      "velocity": 0.71,
      "hand": "right"
    },
    {
      "midi": 61,
      "time": 36.273,
      "duration": 0.273,
      "velocity": 0.71,
      "hand": "right"
    },
    {
      "midi": 76,
      "time": 36.273,
      "duration": 0.273,
      "velocity": 0.71,
      "hand": "right"
    },
    {
      "midi": 54,
      "time": 36.546,
      "duration": 0.545,
      "velocity": 0.71,
      "hand": "left"
    },
    {
      "midi": 69,
      "time": 36.546,
      "duration": 0.818,
      "velocity": 0.71,
      "hand": "right"
    },
    {
      "midi": 74,
      "time": 36.546,
      "duration": 0.545,
      "velocity": 0.71,
      "hand": "right"
    },
    {
      "midi": 55,
      "time": 37.091,
      "duration": 0.545,
      "velocity": 0.71,
      "hand": "left"
    },
    {
      "midi": 71,
      "time": 37.091,
      "duration": 0.545,
      "velocity": 0.71,
      "hand": "right"
    },
    {
      "midi": 67,
      "time": 37.364,
      "duration": 0.136,
      "velocity": 0.71,
      "hand": "right"
    },
    {
      "midi": 66,
      "time": 37.5,
      "duration": 0.136,
      "velocity": 0.71,
      "hand": "right"
    },
    {
      "midi": 57,
      "time": 37.637,
      "duration": 0.818,
      "velocity": 0.71,
      "hand": "left"
    },
    {
      "midi": 64,
      "time": 37.637,
      "duration": 0.545,
      "velocity": 0.71,
      "hand": "right"
    },
    {
      "midi": 73,
      "time": 37.637,
      "duration": 0.545,
      "velocity": 0.71,
      "hand": "right"
    },
    {
      "midi": 66,
      "time": 38.182,
      "duration": 0.545,
      "velocity": 0.71,
      "hand": "right"
    },
    {
      "midi": 74,
      "time": 38.182,
      "duration": 0.545,
      "velocity": 0.71,
      "hand": "right"
    },
    {
      "midi": 81,
      "time": 38.182,
      "duration": 0.545,
      "velocity": 0.71,
      "hand": "right"
    },
    {
      "midi": 55,
      "time": 38.455,
      "duration": 0.136,
      "velocity": 0.71,
      "hand": "left"
    },
    {
      "midi": 54,
      "time": 38.591,
      "duration": 0.136,
      "velocity": 0.71,
      "hand": "left"
    },
    {
      "midi": 52,
      "time": 38.728,
      "duration": 0.545,
      "velocity": 0.71,
      "hand": "left"
    },
    {
      "midi": 67,
      "time": 38.728,
      "duration": 0.545,
      "velocity": 0.71,
      "hand": "right"
    },
    {
      "midi": 76,
      "time": 38.728,
      "duration": 0.545,
      "velocity": 0.71,
      "hand": "right"
    },
    {
      "midi": 79,
      "time": 38.728,
      "duration": 0.545,
      "velocity": 0.71,
      "hand": "right"
    },
    {
      "midi": 54,
      "time": 39.273,
      "duration": 0.545,
      "velocity": 0.71,
      "hand": "left"
    },
    {
      "midi": 66,
      "time": 39.273,
      "duration": 0.273,
      "velocity": 0.71,
      "hand": "right"
    },
    {
      "midi": 70,
      "time": 39.273,
      "duration": 0.545,
      "velocity": 0.71,
      "hand": "right"
    },
    {
      "midi": 73,
      "time": 39.273,
      "duration": 0.545,
      "velocity": 0.71,
      "hand": "right"
    },
    {
      "midi": 64,
      "time": 39.546,
      "duration": 0.273,
      "velocity": 0.71,
      "hand": "right"
    },
    {
      "midi": 47,
      "time": 39.819,
      "duration": 0.818,
      "velocity": 0.71,
      "hand": "left"
    },
    {
      "midi": 62,
      "time": 39.819,
      "duration": 0.273,
      "velocity": 0.71,
      "hand": "right"
    },
    {
      "midi": 71,
      "time": 39.819,
      "duration": 0.545,
      "velocity": 0.71,
      "hand": "right"
    },
    {
      "midi": 74,
      "time": 39.819,
      "duration": 0.53,
      "velocity": 0.71,
      "hand": "right"
    },
    {
      "midi": 61,
      "time": 40.091,
      "duration": 0.273,
      "velocity": 0.71,
      "hand": "right"
    },
    {
      "midi": 59,
      "time": 40.364,
      "duration": 0.273,
      "velocity": 0.71,
      "hand": "left"
    },
    {
      "midi": 68,
      "time": 40.364,
      "duration": 0.545,
      "velocity": 0.71,
      "hand": "right"
    },
    {
      "midi": 74,
      "time": 40.364,
      "duration": 0.545,
      "velocity": 0.71,
      "hand": "right"
    },
    {
      "midi": 49,
      "time": 40.637,
      "duration": 0.136,
      "velocity": 0.71,
      "hand": "left"
    },
    {
      "midi": 57,
      "time": 40.637,
      "duration": 0.273,
      "velocity": 0.71,
      "hand": "left"
    },
    {
      "midi": 50,
      "time": 40.773,
      "duration": 0.136,
      "velocity": 0.71,
      "hand": "left"
    },
    {
      "midi": 52,
      "time": 40.91,
      "duration": 0.545,
      "velocity": 0.71,
      "hand": "left"
    },
    {
      "midi": 55,
      "time": 40.91,
      "duration": 0.818,
      "velocity": 0.71,
      "hand": "left"
    },
    {
      "midi": 67,
      "time": 40.91,
      "duration": 0.545,
      "velocity": 0.71,
      "hand": "right"
    },
    {
      "midi": 71,
      "time": 40.91,
      "duration": 0.545,
      "velocity": 0.71,
      "hand": "right"
    },
    {
      "midi": 45,
      "time": 41.455,
      "duration": 0.273,
      "velocity": 0.71,
      "hand": "left"
    },
    {
      "midi": 61,
      "time": 41.455,
      "duration": 0.273,
      "velocity": 0.71,
      "hand": "right"
    },
    {
      "midi": 64,
      "time": 41.455,
      "duration": 0.53,
      "velocity": 0.71,
      "hand": "right"
    },
    {
      "midi": 47,
      "time": 41.728,
      "duration": 0.273,
      "velocity": 0.71,
      "hand": "left"
    },
    {
      "midi": 54,
      "time": 41.728,
      "duration": 0.136,
      "velocity": 0.71,
      "hand": "left"
    },
    {
      "midi": 62,
      "time": 41.728,
      "duration": 0.273,
      "velocity": 0.71,
      "hand": "right"
    },
    {
      "midi": 55,
      "time": 41.864,
      "duration": 0.136,
      "velocity": 0.71,
      "hand": "left"
    },
    {
      "midi": 49,
      "time": 42,
      "duration": 0.273,
      "velocity": 0.71,
      "hand": "left"
    },
    {
      "midi": 52,
      "time": 42,
      "duration": 0.531,
      "velocity": 0.71,
      "hand": "left"
    },
    {
      "midi": 64,
      "time": 42,
      "duration": 0.273,
      "velocity": 0.71,
      "hand": "right"
    },
    {
      "midi": 50,
      "time": 42.273,
      "duration": 0.273,
      "velocity": 0.71,
      "hand": "left"
    },
    {
      "midi": 66,
      "time": 42.273,
      "duration": 0.273,
      "velocity": 0.71,
      "hand": "right"
    },
    {
      "midi": 52,
      "time": 42.546,
      "duration": 0.273,
      "velocity": 0.71,
      "hand": "left"
    },
    {
      "midi": 61,
      "time": 42.546,
      "duration": 0.545,
      "velocity": 0.71,
      "hand": "right"
    },
    {
      "midi": 67,
      "time": 42.546,
      "duration": 0.273,
      "velocity": 0.71,
      "hand": "right"
    },
    {
      "midi": 54,
      "time": 42.819,
      "duration": 0.273,
      "velocity": 0.71,
      "hand": "left"
    },
    {
      "midi": 69,
      "time": 42.819,
      "duration": 0.273,
      "velocity": 0.71,
      "hand": "right"
    },
    {
      "midi": 50,
      "time": 43.091,
      "duration": 1.364,
      "velocity": 0.71,
      "hand": "left"
    },
    {
      "midi": 62,
      "time": 43.091,
      "duration": 0.273,
      "velocity": 0.71,
      "hand": "right"
    },
    {
      "midi": 66,
      "time": 43.091,
      "duration": 1.364,
      "velocity": 0.71,
      "hand": "right"
    },
    {
      "midi": 56,
      "time": 43.364,
      "duration": 0.273,
      "velocity": 0.71,
      "hand": "left"
    },
    {
      "midi": 57,
      "time": 43.637,
      "duration": 0.273,
      "velocity": 0.71,
      "hand": "left"
    },
    {
      "midi": 59,
      "time": 43.91,
      "duration": 0.273,
      "velocity": 0.71,
      "hand": "left"
    },
    {
      "midi": 60,
      "time": 44.182,
      "duration": 1.364,
      "velocity": 0.71,
      "hand": "right"
    },
    {
      "midi": 51,
      "time": 44.455,
      "duration": 0.273,
      "velocity": 0.71,
      "hand": "left"
    },
    {
      "midi": 69,
      "time": 44.455,
      "duration": 0.273,
      "velocity": 0.71,
      "hand": "right"
    },
    {
      "midi": 52,
      "time": 44.728,
      "duration": 0.273,
      "velocity": 0.71,
      "hand": "left"
    },
    {
      "midi": 67,
      "time": 44.728,
      "duration": 0.273,
      "velocity": 0.71,
      "hand": "right"
    },
    {
      "midi": 54,
      "time": 45,
      "duration": 0.273,
      "velocity": 0.71,
      "hand": "left"
    },
    {
      "midi": 63,
      "time": 45,
      "duration": 0.273,
      "velocity": 0.71,
      "hand": "right"
    },
    {
      "midi": 55,
      "time": 45.273,
      "duration": 0.818,
      "velocity": 0.71,
      "hand": "left"
    },
    {
      "midi": 64,
      "time": 45.273,
      "duration": 0.273,
      "velocity": 0.71,
      "hand": "right"
    },
    {
      "midi": 59,
      "time": 45.546,
      "duration": 0.273,
      "velocity": 0.71,
      "hand": "left"
    },
    {
      "midi": 67,
      "time": 45.546,
      "duration": 0.273,
      "velocity": 0.71,
      "hand": "right"
    },
    {
      "midi": 64,
      "time": 45.819,
      "duration": 0.818,
      "velocity": 0.71,
      "hand": "right"
    },
    {
      "midi": 54,
      "time": 46.091,
      "duration": 0.273,
      "velocity": 0.71,
      "hand": "left"
    },
    {
      "midi": 69,
      "time": 46.091,
      "duration": 0.273,
      "velocity": 0.71,
      "hand": "right"
    },
    {
      "midi": 59,
      "time": 46.364,
      "duration": 0.818,
      "velocity": 0.71,
      "hand": "left"
    },
    {
      "midi": 67,
      "time": 46.364,
      "duration": 0.273,
      "velocity": 0.71,
      "hand": "right"
    },
    {
      "midi": 62,
      "time": 46.637,
      "duration": 0.273,
      "velocity": 0.71,
      "hand": "right"
    },
    {
      "midi": 71,
      "time": 46.637,
      "duration": 0.273,
      "velocity": 0.71,
      "hand": "right"
    },
    {
      "midi": 67,
      "time": 46.91,
      "duration": 0.818,
      "velocity": 0.71,
      "hand": "right"
    },
    {
      "midi": 57,
      "time": 47.182,
      "duration": 0.273,
      "velocity": 0.71,
      "hand": "left"
    },
    {
      "midi": 73,
      "time": 47.182,
      "duration": 0.273,
      "velocity": 0.71,
      "hand": "right"
    },
    {
      "midi": 62,
      "time": 47.455,
      "duration": 0.545,
      "velocity": 0.71,
      "hand": "right"
    },
    {
      "midi": 74,
      "time": 47.455,
      "duration": 0.545,
      "velocity": 0.71,
      "hand": "right"
    },
    {
      "midi": 66,
      "time": 47.728,
      "duration": 0.273,
      "velocity": 0.71,
      "hand": "right"
    },
    {
      "midi": 43,
      "time": 48,
      "duration": 0.818,
      "velocity": 0.71,
      "hand": "left"
    },
    {
      "midi": 67,
      "time": 48,
      "duration": 0.273,
      "velocity": 0.71,
      "hand": "right"
    },
    {
      "midi": 76,
      "time": 48,
      "duration": 0.545,
      "velocity": 0.71,
      "hand": "right"
    },
    {
      "midi": 61,
      "time": 48.273,
      "duration": 0.273,
      "velocity": 0.71,
      "hand": "right"
    },
    {
      "midi": 62,
      "time": 48.546,
      "duration": 1.076,
      "velocity": 0.71,
      "hand": "right"
    },
    {
      "midi": 69,
      "time": 48.546,
      "duration": 0.273,
      "velocity": 0.71,
      "hand": "right"
    },
    {
      "midi": 74,
      "time": 48.546,
      "duration": 0.545,
      "velocity": 0.71,
      "hand": "right"
    },
    {
      "midi": 42,
      "time": 48.819,
      "duration": 0.273,
      "velocity": 0.71,
      "hand": "left"
    },
    {
      "midi": 72,
      "time": 48.819,
      "duration": 0.257,
      "velocity": 0.71,
      "hand": "right"
    },
    {
      "midi": 48,
      "time": 49.091,
      "duration": 0.273,
      "velocity": 0.71,
      "hand": "left"
    },
    {
      "midi": 66,
      "time": 49.091,
      "duration": 0.273,
      "velocity": 0.71,
      "hand": "right"
    },
    {
      "midi": 72,
      "time": 49.091,
      "duration": 0.545,
      "velocity": 0.71,
      "hand": "right"
    },
    {
      "midi": 42,
      "time": 49.364,
      "duration": 0.273,
      "velocity": 0.71,
      "hand": "left"
    },
    {
      "midi": 69,
      "time": 49.364,
      "duration": 0.273,
      "velocity": 0.71,
      "hand": "right"
    },
    {
      "midi": 43,
      "time": 49.637,
      "duration": 0.545,
      "velocity": 0.71,
      "hand": "left"
    },
    {
      "midi": 62,
      "time": 49.637,
      "duration": 0.273,
      "velocity": 0.71,
      "hand": "right"
    },
    {
      "midi": 67,
      "time": 49.637,
      "duration": 0.545,
      "velocity": 0.71,
      "hand": "right"
    },
    {
      "midi": 71,
      "time": 49.637,
      "duration": 0.545,
      "velocity": 0.71,
      "hand": "right"
    },
    {
      "midi": 55,
      "time": 49.91,
      "duration": 0.257,
      "velocity": 0.71,
      "hand": "left"
    },
    {
      "midi": 55,
      "time": 50.182,
      "duration": 0.258,
      "velocity": 0.71,
      "hand": "left"
    },
    {
      "midi": 69,
      "time": 50.182,
      "duration": 0.545,
      "velocity": 0.71,
      "hand": "right"
    },
    {
      "midi": 72,
      "time": 50.182,
      "duration": 0.545,
      "velocity": 0.71,
      "hand": "right"
    },
    {
      "midi": 55,
      "time": 50.455,
      "duration": 0.258,
      "velocity": 0.71,
      "hand": "left"
    },
    {
      "midi": 55,
      "time": 50.728,
      "duration": 0.257,
      "velocity": 0.71,
      "hand": "left"
    },
    {
      "midi": 71,
      "time": 50.728,
      "duration": 0.818,
      "velocity": 0.71,
      "hand": "right"
    },
    {
      "midi": 74,
      "time": 50.728,
      "duration": 0.818,
      "velocity": 0.71,
      "hand": "right"
    },
    {
      "midi": 55,
      "time": 51,
      "duration": 0.273,
      "velocity": 0.71,
      "hand": "left"
    },
    {
      "midi": 59,
      "time": 51.273,
      "duration": 0.273,
      "velocity": 0.71,
      "hand": "left"
    },
    {
      "midi": 60,
      "time": 51.546,
      "duration": 0.273,
      "velocity": 0.71,
      "hand": "right"
    },
    {
      "midi": 69,
      "time": 51.546,
      "duration": 0.136,
      "velocity": 0.71,
      "hand": "right"
    },
    {
      "midi": 72,
      "time": 51.546,
      "duration": 0.136,
      "velocity": 0.71,
      "hand": "right"
    },
    {
      "midi": 67,
      "time": 51.682,
      "duration": 0.136,
      "velocity": 0.71,
      "hand": "right"
    },
    {
      "midi": 71,
      "time": 51.682,
      "duration": 0.136,
      "velocity": 0.71,
      "hand": "right"
    },
    {
      "midi": 62,
      "time": 51.819,
      "duration": 0.545,
      "velocity": 0.71,
      "hand": "right"
    },
    {
      "midi": 66,
      "time": 51.819,
      "duration": 0.545,
      "velocity": 0.71,
      "hand": "right"
    },
    {
      "midi": 69,
      "time": 51.819,
      "duration": 0.545,
      "velocity": 0.71,
      "hand": "right"
    },
    {
      "midi": 50,
      "time": 52.091,
      "duration": 0.258,
      "velocity": 0.71,
      "hand": "left"
    },
    {
      "midi": 50,
      "time": 52.364,
      "duration": 0.258,
      "velocity": 0.71,
      "hand": "left"
    },
    {
      "midi": 54,
      "time": 52.364,
      "duration": 0.545,
      "velocity": 0.71,
      "hand": "left"
    },
    {
      "midi": 71,
      "time": 52.364,
      "duration": 0.545,
      "velocity": 0.71,
      "hand": "right"
    },
    {
      "midi": 50,
      "time": 52.637,
      "duration": 0.258,
      "velocity": 0.71,
      "hand": "left"
    },
    {
      "midi": 50,
      "time": 52.91,
      "duration": 0.257,
      "velocity": 0.71,
      "hand": "left"
    },
    {
      "midi": 56,
      "time": 52.91,
      "duration": 0.818,
      "velocity": 0.71,
      "hand": "left"
    },
    {
      "midi": 64,
      "time": 52.91,
      "duration": 0.818,
      "velocity": 0.71,
      "hand": "right"
    },
    {
      "midi": 50,
      "time": 53.182,
      "duration": 0.273,
      "velocity": 0.71,
      "hand": "left"
    },
    {
      "midi": 48,
      "time": 53.455,
      "duration": 0.273,
      "velocity": 0.71,
      "hand": "left"
    },
    {
      "midi": 47,
      "time": 53.728,
      "duration": 0.273,
      "velocity": 0.71,
      "hand": "left"
    },
    {
      "midi": 57,
      "time": 53.728,
      "duration": 0.136,
      "velocity": 0.71,
      "hand": "left"
    },
    {
      "midi": 66,
      "time": 53.728,
      "duration": 0.136,
      "velocity": 0.71,
      "hand": "right"
    },
    {
      "midi": 59,
      "time": 53.864,
      "duration": 0.136,
      "velocity": 0.71,
      "hand": "left"
    },
    {
      "midi": 67,
      "time": 53.864,
      "duration": 0.136,
      "velocity": 0.71,
      "hand": "right"
    },
    {
      "midi": 45,
      "time": 54,
      "duration": 0.545,
      "velocity": 0.71,
      "hand": "left"
    },
    {
      "midi": 60,
      "time": 54,
      "duration": 0.273,
      "velocity": 0.71,
      "hand": "right"
    },
    {
      "midi": 69,
      "time": 54,
      "duration": 0.545,
      "velocity": 0.71,
      "hand": "right"
    },
    {
      "midi": 57,
      "time": 54.273,
      "duration": 0.273,
      "velocity": 0.71,
      "hand": "left"
    },
    {
      "midi": 48,
      "time": 54.546,
      "duration": 0.545,
      "velocity": 0.71,
      "hand": "left"
    },
    {
      "midi": 54,
      "time": 54.546,
      "duration": 0.273,
      "velocity": 0.71,
      "hand": "left"
    },
    {
      "midi": 62,
      "time": 54.546,
      "duration": 1.076,
      "velocity": 0.71,
      "hand": "right"
    },
    {
      "midi": 55,
      "time": 54.819,
      "duration": 0.273,
      "velocity": 0.71,
      "hand": "left"
    },
    {
      "midi": 64,
      "time": 54.819,
      "duration": 0.273,
      "velocity": 0.71,
      "hand": "right"
    },
    {
      "midi": 38,
      "time": 55.091,
      "duration": 0.545,
      "velocity": 0.71,
      "hand": "left"
    },
    {
      "midi": 57,
      "time": 55.091,
      "duration": 0.273,
      "velocity": 0.71,
      "hand": "left"
    },
    {
      "midi": 66,
      "time": 55.091,
      "duration": 0.273,
      "velocity": 0.71,
      "hand": "right"
    },
    {
      "midi": 55,
      "time": 55.364,
      "duration": 0.273,
      "velocity": 0.71,
      "hand": "left"
    },
    {
      "midi": 67,
      "time": 55.364,
      "duration": 0.273,
      "velocity": 0.71,
      "hand": "right"
    },
    {
      "midi": 48,
      "time": 55.637,
      "duration": 0.545,
      "velocity": 0.71,
      "hand": "left"
    },
    {
      "midi": 54,
      "time": 55.637,
      "duration": 0.545,
      "velocity": 0.71,
      "hand": "left"
    },
    {
      "midi": 62,
      "time": 55.637,
      "duration": 0.53,
      "velocity": 0.71,
      "hand": "right"
    },
    {
      "midi": 69,
      "time": 55.637,
      "duration": 0.273,
      "velocity": 0.71,
      "hand": "right"
    },
    {
      "midi": 71,
      "time": 55.91,
      "duration": 0.273,
      "velocity": 0.71,
      "hand": "right"
    },
    {
      "midi": 47,
      "time": 56.182,
      "duration": 0.545,
      "velocity": 0.71,
      "hand": "left"
    },
    {
      "midi": 55,
      "time": 56.182,
      "duration": 0.545,
      "velocity": 0.71,
      "hand": "left"
    },
    {
      "midi": 62,
      "time": 56.182,
      "duration": 0.545,
      "velocity": 0.71,
      "hand": "right"
    },
    {
      "midi": 67,
      "time": 56.182,
      "duration": 0.545,
      "velocity": 0.71,
      "hand": "right"
    }
  ]
}
