{
  "id": "fugue-sur-le-nom-de-bachrimsky-korsakov",
  "title": "Fuga sobre o Nome de Bach",
  "artist": "Nikolai Rimsky-Korsakov",
  "difficulty": "Difícil",
  "bpm": 140,
  "duration": 123,
  "category": "Clássicos",
  "isPremium": true,
  "coverUrl": "/images/covers/placeholder.png",
  "notes": [
    {
      "midi": 58,
      "time": 0,
      "duration": 1.714,
      "velocity": 1,
      "hand": "left"
    },
    {
      "midi": 55,
      "time": 0.429,
      "duration": 0.429,
      "velocity": 1,
      "hand": "left"
    },
    {
      "midi": 55,
      "time": 0.857,
      "duration": 0.429,
      "velocity": 1,
      "hand": "left"
    },
    {
      "midi": 55,
      "time": 1.286,
      "duration": 0.429,
      "velocity": 1,
      "hand": "left"
    },
    {
      "midi": 55,
      "time": 1.714,
      "duration": 0.429,
      "velocity": 1,
      "hand": "left"
    },
    {
      "midi": 57,
      "time": 1.714,
      "duration": 1.714,
      "velocity": 1,
      "hand": "left"
    },
    {
      "midi": 53,
      "time": 2.143,
      "duration": 0.214,
      "velocity": 1,
      "hand": "left"
    },
    {
      "midi": 52,
      "time": 2.357,
      "duration": 0.214,
      "velocity": 1,
      "hand": "left"
    },
    {
      "midi": 53,
      "time": 2.571,
      "duration": 1.071,
      "velocity": 1,
      "hand": "left"
    },
    {
      "midi": 60,
      "time": 3.429,
      "duration": 1.714,
      "velocity": 1,
      "hand": "right"
    },
    {
      "midi": 55,
      "time": 3.643,
      "duration": 0.214,
      "velocity": 1,
      "hand": "left"
    },
    {
      "midi": 56,
      "time": 3.857,
      "duration": 0.429,
      "velocity": 1,
      "hand": "left"
    },
    {
      "midi": 56,
      "time": 4.286,
      "duration": 0.429,
      "velocity": 1,
      "hand": "left"
    },
    {
      "midi": 56,
      "time": 4.714,
      "duration": 0.429,
      "velocity": 1,
      "hand": "left"
    },
    {
      "midi": 56,
      "time": 5.143,
      "duration": 0.429,
      "velocity": 1,
      "hand": "left"
    },
    {
      "midi": 59,
      "time": 5.143,
      "duration": 1.286,
      "velocity": 1,
      "hand": "left"
    },
    {
      "midi": 55,
      "time": 5.571,
      "duration": 0.214,
      "velocity": 1,
      "hand": "left"
    },
    {
      "midi": 53,
      "time": 5.786,
      "duration": 0.214,
      "velocity": 1,
      "hand": "left"
    },
    {
      "midi": 55,
      "time": 6,
      "duration": 1.286,
      "velocity": 1,
      "hand": "left"
    },
    {
      "midi": 60,
      "time": 6.429,
      "duration": 0.429,
      "velocity": 1,
      "hand": "right"
    },
    {
      "midi": 62,
      "time": 6.857,
      "duration": 0.429,
      "velocity": 1,
      "hand": "right"
    },
    {
      "midi": 53,
      "time": 7.286,
      "duration": 0.214,
      "velocity": 1,
      "hand": "left"
    },
    {
      "midi": 57,
      "time": 7.286,
      "duration": 0.429,
      "velocity": 1,
      "hand": "left"
    },
    {
      "midi": 52,
      "time": 7.5,
      "duration": 0.214,
      "velocity": 1,
      "hand": "left"
    },
    {
      "midi": 50,
      "time": 7.714,
      "duration": 0.857,
      "velocity": 1,
      "hand": "left"
    },
    {
      "midi": 57,
      "time": 7.714,
      "duration": 0.429,
      "velocity": 1,
      "hand": "left"
    },
    {
      "midi": 65,
      "time": 7.714,
      "duration": 0.857,
      "velocity": 1,
      "hand": "right"
    },
    {
      "midi": 57,
      "time": 8.143,
      "duration": 0.429,
      "velocity": 1,
      "hand": "left"
    },
    {
      "midi": 57,
      "time": 8.571,
      "duration": 0.429,
      "velocity": 1,
      "hand": "left"
    },
    {
      "midi": 64,
      "time": 8.571,
      "duration": 1.714,
      "velocity": 1,
      "hand": "right"
    },
    {
      "midi": 52,
      "time": 9,
      "duration": 0.429,
      "velocity": 1,
      "hand": "left"
    },
    {
      "midi": 55,
      "time": 9,
      "duration": 0.214,
      "velocity": 1,
      "hand": "left"
    },
    {
      "midi": 54,
      "time": 9.214,
      "duration": 0.214,
      "velocity": 1,
      "hand": "left"
    },
    {
      "midi": 52,
      "time": 9.429,
      "duration": 0.429,
      "velocity": 1,
      "hand": "left"
    },
    {
      "midi": 55,
      "time": 9.429,
      "duration": 1.071,
      "velocity": 1,
      "hand": "left"
    },
    {
      "midi": 52,
      "time": 9.857,
      "duration": 0.429,
      "velocity": 1,
      "hand": "left"
    },
    {
      "midi": 52,
      "time": 10.286,
      "duration": 0.429,
      "velocity": 1,
      "hand": "left"
    },
    {
      "midi": 67,
      "time": 10.286,
      "duration": 1.714,
      "velocity": 1,
      "hand": "right"
    },
    {
      "midi": 57,
      "time": 10.5,
      "duration": 0.214,
      "velocity": 1,
      "hand": "left"
    },
    {
      "midi": 50,
      "time": 10.714,
      "duration": 0.214,
      "velocity": 1,
      "hand": "left"
    },
    {
      "midi": 58,
      "time": 10.714,
      "duration": 0.429,
      "velocity": 1,
      "hand": "left"
    },
    {
      "midi": 49,
      "time": 10.929,
      "duration": 0.214,
      "velocity": 1,
      "hand": "left"
    },
    {
      "midi": 50,
      "time": 11.143,
      "duration": 1.929,
      "velocity": 1,
      "hand": "left"
    },
    {
      "midi": 58,
      "time": 11.143,
      "duration": 0.429,
      "velocity": 1,
      "hand": "left"
    },
    {
      "midi": 58,
      "time": 11.571,
      "duration": 0.429,
      "velocity": 1,
      "hand": "left"
    },
    {
      "midi": 58,
      "time": 12,
      "duration": 0.429,
      "velocity": 1,
      "hand": "left"
    },
    {
      "midi": 66,
      "time": 12,
      "duration": 1.714,
      "velocity": 1,
      "hand": "right"
    },
    {
      "midi": 57,
      "time": 12.429,
      "duration": 0.214,
      "velocity": 1,
      "hand": "left"
    },
    {
      "midi": 55,
      "time": 12.643,
      "duration": 0.214,
      "velocity": 1,
      "hand": "left"
    },
    {
      "midi": 57,
      "time": 12.857,
      "duration": 0.857,
      "velocity": 1,
      "hand": "left"
    },
    {
      "midi": 48,
      "time": 13.071,
      "duration": 0.214,
      "velocity": 1,
      "hand": "left"
    },
    {
      "midi": 46,
      "time": 13.286,
      "duration": 0.214,
      "velocity": 1,
      "hand": "left"
    },
    {
      "midi": 45,
      "time": 13.5,
      "duration": 0.214,
      "velocity": 1,
      "hand": "left"
    },
    {
      "midi": 43,
      "time": 13.714,
      "duration": 1.071,
      "velocity": 1,
      "hand": "left"
    },
    {
      "midi": 62,
      "time": 13.714,
      "duration": 2.571,
      "velocity": 1,
      "hand": "right"
    },
    {
      "midi": 70,
      "time": 13.714,
      "duration": 1.714,
      "velocity": 1,
      "hand": "right"
    },
    {
      "midi": 67,
      "time": 14.143,
      "duration": 0.429,
      "velocity": 1,
      "hand": "right"
    },
    {
      "midi": 67,
      "time": 14.571,
      "duration": 0.429,
      "velocity": 1,
      "hand": "right"
    },
    {
      "midi": 45,
      "time": 14.786,
      "duration": 0.214,
      "velocity": 1,
      "hand": "left"
    },
    {
      "midi": 46,
      "time": 15,
      "duration": 0.214,
      "velocity": 1,
      "hand": "left"
    },
    {
      "midi": 67,
      "time": 15,
      "duration": 0.429,
      "velocity": 1,
      "hand": "right"
    },
    {
      "midi": 48,
      "time": 15.214,
      "duration": 0.214,
      "velocity": 1,
      "hand": "left"
    },
    {
      "midi": 50,
      "time": 15.429,
      "duration": 0.429,
      "velocity": 1,
      "hand": "left"
    },
    {
      "midi": 67,
      "time": 15.429,
      "duration": 0.429,
      "velocity": 1,
      "hand": "right"
    },
    {
      "midi": 69,
      "time": 15.429,
      "duration": 1.714,
      "velocity": 1,
      "hand": "right"
    },
    {
      "midi": 50,
      "time": 15.857,
      "duration": 0.429,
      "velocity": 1,
      "hand": "left"
    },
    {
      "midi": 65,
      "time": 15.857,
      "duration": 0.214,
      "velocity": 1,
      "hand": "right"
    },
    {
      "midi": 64,
      "time": 16.071,
      "duration": 0.214,
      "velocity": 1,
      "hand": "right"
    },
    {
      "midi": 50,
      "time": 16.286,
      "duration": 0.429,
      "velocity": 1,
      "hand": "left"
    },
    {
      "midi": 65,
      "time": 16.286,
      "duration": 1.071,
      "velocity": 1,
      "hand": "right"
    },
    {
      "midi": 52,
      "time": 16.5,
      "duration": 0.214,
      "velocity": 1,
      "hand": "left"
    },
    {
      "midi": 50,
      "time": 16.714,
      "duration": 0.429,
      "velocity": 1,
      "hand": "left"
    },
    {
      "midi": 53,
      "time": 16.714,
      "duration": 0.214,
      "velocity": 1,
      "hand": "left"
    },
    {
      "midi": 55,
      "time": 16.929,
      "duration": 0.214,
      "velocity": 1,
      "hand": "left"
    },
    {
      "midi": 48,
      "time": 17.143,
      "duration": 0.429,
      "velocity": 1,
      "hand": "left"
    },
    {
      "midi": 56,
      "time": 17.143,
      "duration": 0.857,
      "velocity": 1,
      "hand": "left"
    },
    {
      "midi": 72,
      "time": 17.143,
      "duration": 1.714,
      "velocity": 1,
      "hand": "right"
    },
    {
      "midi": 67,
      "time": 17.357,
      "duration": 0.214,
      "velocity": 1,
      "hand": "right"
    },
    {
      "midi": 48,
      "time": 17.571,
      "duration": 0.214,
      "velocity": 1,
      "hand": "left"
    },
    {
      "midi": 68,
      "time": 17.571,
      "duration": 0.429,
      "velocity": 1,
      "hand": "right"
    },
    {
      "midi": 47,
      "time": 17.786,
      "duration": 0.214,
      "velocity": 1,
      "hand": "left"
    },
    {
      "midi": 48,
      "time": 18,
      "duration": 0.214,
      "velocity": 1,
      "hand": "left"
    },
    {
      "midi": 65,
      "time": 18,
      "duration": 0.429,
      "velocity": 1,
      "hand": "right"
    },
    {
      "midi": 68,
      "time": 18,
      "duration": 0.429,
      "velocity": 1,
      "hand": "right"
    },
    {
      "midi": 50,
      "time": 18.214,
      "duration": 0.214,
      "velocity": 1,
      "hand": "left"
    },
    {
      "midi": 51,
      "time": 18.429,
      "duration": 0.214,
      "velocity": 1,
      "hand": "left"
    },
    {
      "midi": 63,
      "time": 18.429,
      "duration": 0.429,
      "velocity": 1,
      "hand": "right"
    },
    {
      "midi": 68,
      "time": 18.429,
      "duration": 0.429,
      "velocity": 1,
      "hand": "right"
    },
    {
      "midi": 53,
      "time": 18.643,
      "duration": 0.214,
      "velocity": 1,
      "hand": "left"
    },
    {
      "midi": 55,
      "time": 18.857,
      "duration": 1.714,
      "velocity": 1,
      "hand": "left"
    },
    {
      "midi": 62,
      "time": 18.857,
      "duration": 1.714,
      "velocity": 1,
      "hand": "right"
    },
    {
      "midi": 68,
      "time": 18.857,
      "duration": 0.429,
      "velocity": 1,
      "hand": "right"
    },
    {
      "midi": 71,
      "time": 18.857,
      "duration": 1.286,
      "velocity": 1,
      "hand": "right"
    },
    {
      "midi": 67,
      "time": 19.286,
      "duration": 0.214,
      "velocity": 1,
      "hand": "right"
    },
    {
      "midi": 65,
      "time": 19.5,
      "duration": 0.214,
      "velocity": 1,
      "hand": "right"
    },
    {
      "midi": 67,
      "time": 19.714,
      "duration": 1.286,
      "velocity": 1,
      "hand": "right"
    },
    {
      "midi": 72,
      "time": 20.143,
      "duration": 0.429,
      "velocity": 1,
      "hand": "right"
    },
    {
      "midi": 62,
      "time": 20.571,
      "duration": 0.857,
      "velocity": 1,
      "hand": "right"
    },
    {
      "midi": 74,
      "time": 20.571,
      "duration": 0.429,
      "velocity": 1,
      "hand": "right"
    },
    {
      "midi": 65,
      "time": 21,
      "duration": 0.214,
      "velocity": 1,
      "hand": "right"
    },
    {
      "midi": 69,
      "time": 21,
      "duration": 0.429,
      "velocity": 1,
      "hand": "right"
    },
    {
      "midi": 64,
      "time": 21.214,
      "duration": 0.214,
      "velocity": 1,
      "hand": "right"
    },
    {
      "midi": 53,
      "time": 21.429,
      "duration": 0.857,
      "velocity": 1,
      "hand": "left"
    },
    {
      "midi": 57,
      "time": 21.429,
      "duration": 0.429,
      "velocity": 1,
      "hand": "left"
    },
    {
      "midi": 62,
      "time": 21.429,
      "duration": 0.857,
      "velocity": 1,
      "hand": "right"
    },
    {
      "midi": 69,
      "time": 21.429,
      "duration": 0.429,
      "velocity": 1,
      "hand": "right"
    },
    {
      "midi": 59,
      "time": 21.857,
      "duration": 0.429,
      "velocity": 1,
      "hand": "left"
    },
    {
      "midi": 69,
      "time": 21.857,
      "duration": 0.429,
      "velocity": 1,
      "hand": "right"
    },
    {
      "midi": 52,
      "time": 22.286,
      "duration": 1.714,
      "velocity": 1,
      "hand": "left"
    },
    {
      "midi": 60,
      "time": 22.286,
      "duration": 1.714,
      "velocity": 1,
      "hand": "right"
    },
    {
      "midi": 69,
      "time": 22.286,
      "duration": 0.429,
      "velocity": 1,
      "hand": "right"
    },
    {
      "midi": 64,
      "time": 22.714,
      "duration": 0.429,
      "velocity": 1,
      "hand": "right"
    },
    {
      "midi": 67,
      "time": 22.714,
      "duration": 0.214,
      "velocity": 1,
      "hand": "right"
    },
    {
      "midi": 66,
      "time": 22.929,
      "duration": 0.214,
      "velocity": 1,
      "hand": "right"
    },
    {
      "midi": 64,
      "time": 23.143,
      "duration": 0.429,
      "velocity": 1,
      "hand": "right"
    },
    {
      "midi": 67,
      "time": 23.143,
      "duration": 1.071,
      "velocity": 1,
      "hand": "right"
    },
    {
      "midi": 64,
      "time": 23.571,
      "duration": 0.429,
      "velocity": 1,
      "hand": "right"
    },
    {
      "midi": 55,
      "time": 24,
      "duration": 1.714,
      "velocity": 1,
      "hand": "left"
    },
    {
      "midi": 58,
      "time": 24,
      "duration": 1.286,
      "velocity": 1,
      "hand": "left"
    },
    {
      "midi": 64,
      "time": 24,
      "duration": 0.429,
      "velocity": 1,
      "hand": "right"
    },
    {
      "midi": 69,
      "time": 24.214,
      "duration": 0.214,
      "velocity": 1,
      "hand": "right"
    },
    {
      "midi": 62,
      "time": 24.429,
      "duration": 0.214,
      "velocity": 1,
      "hand": "right"
    },
    {
      "midi": 70,
      "time": 24.429,
      "duration": 0.429,
      "velocity": 1,
      "hand": "right"
    },
    {
      "midi": 61,
      "time": 24.643,
      "duration": 0.214,
      "velocity": 1,
      "hand": "right"
    },
    {
      "midi": 62,
      "time": 24.857,
      "duration": 0.429,
      "velocity": 1,
      "hand": "right"
    },
    {
      "midi": 70,
      "time": 24.857,
      "duration": 0.429,
      "velocity": 1,
      "hand": "right"
    },
    {
      "midi": 61,
      "time": 25.286,
      "duration": 0.429,
      "velocity": 1,
      "hand": "right"
    },
    {
      "midi": 70,
      "time": 25.286,
      "duration": 0.429,
      "velocity": 1,
      "hand": "right"
    },
    {
      "midi": 54,
      "time": 25.714,
      "duration": 1.714,
      "velocity": 1,
      "hand": "left"
    },
    {
      "midi": 62,
      "time": 25.714,
      "duration": 1.286,
      "velocity": 1,
      "hand": "right"
    },
    {
      "midi": 70,
      "time": 25.714,
      "duration": 0.429,
      "velocity": 1,
      "hand": "right"
    },
    {
      "midi": 69,
      "time": 26.143,
      "duration": 0.214,
      "velocity": 1,
      "hand": "right"
    },
    {
      "midi": 67,
      "time": 26.357,
      "duration": 0.214,
      "velocity": 1,
      "hand": "right"
    },
    {
      "midi": 69,
      "time": 26.571,
      "duration": 0.857,
      "velocity": 1,
      "hand": "right"
    },
    {
      "midi": 60,
      "time": 27,
      "duration": 0.429,
      "velocity": 1,
      "hand": "right"
    },
    {
      "midi": 55,
      "time": 27.429,
      "duration": 1.714,
      "velocity": 1,
      "hand": "left"
    },
    {
      "midi": 58,
      "time": 27.429,
      "duration": 0.857,
      "velocity": 1,
      "hand": "left"
    },
    {
      "midi": 70,
      "time": 27.429,
      "duration": 1.714,
      "velocity": 1,
      "hand": "right"
    },
    {
      "midi": 67,
      "time": 27.857,
      "duration": 0.429,
      "velocity": 1,
      "hand": "right"
    },
    {
      "midi": 67,
      "time": 28.286,
      "duration": 0.429,
      "velocity": 1,
      "hand": "right"
    },
    {
      "midi": 57,
      "time": 28.5,
      "duration": 0.214,
      "velocity": 1,
      "hand": "left"
    },
    {
      "midi": 58,
      "time": 28.714,
      "duration": 0.214,
      "velocity": 1,
      "hand": "left"
    },
    {
      "midi": 67,
      "time": 28.714,
      "duration": 0.429,
      "velocity": 1,
      "hand": "right"
    },
    {
      "midi": 60,
      "time": 28.929,
      "duration": 0.214,
      "velocity": 1,
      "hand": "right"
    },
    {
      "midi": 50,
      "time": 29.143,
      "duration": 1.286,
      "velocity": 1,
      "hand": "left"
    },
    {
      "midi": 62,
      "time": 29.143,
      "duration": 0.429,
      "velocity": 1,
      "hand": "right"
    },
    {
      "midi": 67,
      "time": 29.143,
      "duration": 0.429,
      "velocity": 1,
      "hand": "right"
    },
    {
      "midi": 69,
      "time": 29.143,
      "duration": 1.714,
      "velocity": 1,
      "hand": "right"
    },
    {
      "midi": 62,
      "time": 29.571,
      "duration": 0.429,
      "velocity": 1,
      "hand": "right"
    },
    {
      "midi": 65,
      "time": 29.571,
      "duration": 0.214,
      "velocity": 1,
      "hand": "right"
    },
    {
      "midi": 64,
      "time": 29.786,
      "duration": 0.214,
      "velocity": 1,
      "hand": "right"
    },
    {
      "midi": 62,
      "time": 30,
      "duration": 0.429,
      "velocity": 1,
      "hand": "right"
    },
    {
      "midi": 65,
      "time": 30,
      "duration": 1.071,
      "velocity": 1,
      "hand": "right"
    },
    {
      "midi": 52,
      "time": 30.429,
      "duration": 0.429,
      "velocity": 1,
      "hand": "left"
    },
    {
      "midi": 62,
      "time": 30.429,
      "duration": 0.429,
      "velocity": 1,
      "hand": "right"
    },
    {
      "midi": 53,
      "time": 30.857,
      "duration": 1.286,
      "velocity": 1,
      "hand": "left"
    },
    {
      "midi": 62,
      "time": 30.857,
      "duration": 0.429,
      "velocity": 1,
      "hand": "right"
    },
    {
      "midi": 67,
      "time": 31.071,
      "duration": 0.214,
      "velocity": 1,
      "hand": "right"
    },
    {
      "midi": 60,
      "time": 31.286,
      "duration": 0.214,
      "velocity": 1,
      "hand": "right"
    },
    {
      "midi": 68,
      "time": 31.286,
      "duration": 0.429,
      "velocity": 1,
      "hand": "right"
    },
    {
      "midi": 59,
      "time": 31.5,
      "duration": 0.214,
      "velocity": 1,
      "hand": "left"
    },
    {
      "midi": 60,
      "time": 31.714,
      "duration": 1.071,
      "velocity": 1,
      "hand": "right"
    },
    {
      "midi": 68,
      "time": 31.714,
      "duration": 0.429,
      "velocity": 1,
      "hand": "right"
    },
    {
      "midi": 51,
      "time": 32.143,
      "duration": 0.214,
      "velocity": 1,
      "hand": "left"
    },
    {
      "midi": 68,
      "time": 32.143,
      "duration": 0.429,
      "velocity": 1,
      "hand": "right"
    },
    {
      "midi": 50,
      "time": 32.357,
      "duration": 0.214,
      "velocity": 1,
      "hand": "left"
    },
    {
      "midi": 48,
      "time": 32.571,
      "duration": 0.857,
      "velocity": 1,
      "hand": "left"
    },
    {
      "midi": 68,
      "time": 32.571,
      "duration": 0.429,
      "velocity": 1,
      "hand": "right"
    },
    {
      "midi": 76,
      "time": 32.571,
      "duration": 0.429,
      "velocity": 1,
      "hand": "right"
    },
    {
      "midi": 62,
      "time": 32.786,
      "duration": 0.214,
      "velocity": 1,
      "hand": "right"
    },
    {
      "midi": 63,
      "time": 33,
      "duration": 0.429,
      "velocity": 1,
      "hand": "right"
    },
    {
      "midi": 67,
      "time": 33,
      "duration": 0.214,
      "velocity": 1,
      "hand": "right"
    },
    {
      "midi": 72,
      "time": 33,
      "duration": 0.429,
      "velocity": 1,
      "hand": "right"
    },
    {
      "midi": 65,
      "time": 33.214,
      "duration": 0.214,
      "velocity": 1,
      "hand": "right"
    },
    {
      "midi": 63,
      "time": 33.429,
      "duration": 0.429,
      "velocity": 1,
      "hand": "right"
    },
    {
      "midi": 67,
      "time": 33.429,
      "duration": 0.857,
      "velocity": 1,
      "hand": "right"
    },
    {
      "midi": 72,
      "time": 33.429,
      "duration": 0.429,
      "velocity": 1,
      "hand": "right"
    },
    {
      "midi": 63,
      "time": 33.857,
      "duration": 0.429,
      "velocity": 1,
      "hand": "right"
    },
    {
      "midi": 72,
      "time": 33.857,
      "duration": 0.429,
      "velocity": 1,
      "hand": "right"
    },
    {
      "midi": 63,
      "time": 34.286,
      "duration": 0.429,
      "velocity": 1,
      "hand": "right"
    },
    {
      "midi": 67,
      "time": 34.286,
      "duration": 1.714,
      "velocity": 1,
      "hand": "right"
    },
    {
      "midi": 72,
      "time": 34.286,
      "duration": 0.429,
      "velocity": 1,
      "hand": "right"
    },
    {
      "midi": 55,
      "time": 34.714,
      "duration": 0.429,
      "velocity": 1,
      "hand": "left"
    },
    {
      "midi": 62,
      "time": 34.714,
      "duration": 0.214,
      "velocity": 1,
      "hand": "right"
    },
    {
      "midi": 70,
      "time": 34.714,
      "duration": 0.214,
      "velocity": 1,
      "hand": "right"
    },
    {
      "midi": 60,
      "time": 34.929,
      "duration": 0.214,
      "velocity": 1,
      "hand": "right"
    },
    {
      "midi": 69,
      "time": 34.929,
      "duration": 0.214,
      "velocity": 1,
      "hand": "right"
    },
    {
      "midi": 55,
      "time": 35.143,
      "duration": 0.429,
      "velocity": 1,
      "hand": "left"
    },
    {
      "midi": 62,
      "time": 35.143,
      "duration": 0.857,
      "velocity": 1,
      "hand": "right"
    },
    {
      "midi": 70,
      "time": 35.143,
      "duration": 2.143,
      "velocity": 1,
      "hand": "right"
    },
    {
      "midi": 55,
      "time": 35.571,
      "duration": 0.429,
      "velocity": 1,
      "hand": "left"
    },
    {
      "midi": 55,
      "time": 36,
      "duration": 0.429,
      "velocity": 1,
      "hand": "left"
    },
    {
      "midi": 58,
      "time": 36,
      "duration": 1.071,
      "velocity": 1,
      "hand": "left"
    },
    {
      "midi": 72,
      "time": 36.214,
      "duration": 0.214,
      "velocity": 1,
      "hand": "right"
    },
    {
      "midi": 53,
      "time": 36.429,
      "duration": 0.214,
      "velocity": 1,
      "hand": "left"
    },
    {
      "midi": 73,
      "time": 36.429,
      "duration": 0.429,
      "velocity": 1,
      "hand": "right"
    },
    {
      "midi": 52,
      "time": 36.643,
      "duration": 0.214,
      "velocity": 1,
      "hand": "left"
    },
    {
      "midi": 53,
      "time": 36.857,
      "duration": 1.071,
      "velocity": 1,
      "hand": "left"
    },
    {
      "midi": 73,
      "time": 36.857,
      "duration": 0.429,
      "velocity": 1,
      "hand": "right"
    },
    {
      "midi": 60,
      "time": 37.071,
      "duration": 0.214,
      "velocity": 1,
      "hand": "right"
    },
    {
      "midi": 61,
      "time": 37.286,
      "duration": 0.214,
      "velocity": 1,
      "hand": "right"
    },
    {
      "midi": 68,
      "time": 37.286,
      "duration": 0.214,
      "velocity": 1,
      "hand": "right"
    },
    {
      "midi": 73,
      "time": 37.286,
      "duration": 0.429,
      "velocity": 1,
      "hand": "right"
    },
    {
      "midi": 63,
      "time": 37.5,
      "duration": 0.214,
      "velocity": 1,
      "hand": "right"
    },
    {
      "midi": 67,
      "time": 37.5,
      "duration": 0.214,
      "velocity": 1,
      "hand": "right"
    },
    {
      "midi": 65,
      "time": 37.714,
      "duration": 0.857,
      "velocity": 1,
      "hand": "right"
    },
    {
      "midi": 68,
      "time": 37.714,
      "duration": 0.857,
      "velocity": 1,
      "hand": "right"
    },
    {
      "midi": 73,
      "time": 37.714,
      "duration": 0.429,
      "velocity": 1,
      "hand": "right"
    },
    {
      "midi": 55,
      "time": 37.929,
      "duration": 0.214,
      "velocity": 1,
      "hand": "left"
    },
    {
      "midi": 56,
      "time": 38.143,
      "duration": 0.429,
      "velocity": 1,
      "hand": "left"
    },
    {
      "midi": 72,
      "time": 38.143,
      "duration": 0.214,
      "velocity": 1,
      "hand": "right"
    },
    {
      "midi": 70,
      "time": 38.357,
      "duration": 0.214,
      "velocity": 1,
      "hand": "right"
    },
    {
      "midi": 56,
      "time": 38.571,
      "duration": 0.429,
      "velocity": 1,
      "hand": "left"
    },
    {
      "midi": 60,
      "time": 38.571,
      "duration": 0.857,
      "velocity": 1,
      "hand": "right"
    },
    {
      "midi": 65,
      "time": 38.571,
      "duration": 0.429,
      "velocity": 1,
      "hand": "right"
    },
    {
      "midi": 72,
      "time": 38.571,
      "duration": 1.714,
      "velocity": 1,
      "hand": "right"
    },
    {
      "midi": 56,
      "time": 39,
      "duration": 0.429,
      "velocity": 1,
      "hand": "left"
    },
    {
      "midi": 63,
      "time": 39,
      "duration": 0.429,
      "velocity": 1,
      "hand": "right"
    },
    {
      "midi": 56,
      "time": 39.429,
      "duration": 0.429,
      "velocity": 1,
      "hand": "left"
    },
    {
      "midi": 62,
      "time": 39.429,
      "duration": 1.071,
      "velocity": 1,
      "hand": "right"
    },
    {
      "midi": 62,
      "time": 39.429,
      "duration": 2.143,
      "velocity": 1,
      "hand": "right"
    },
    {
      "midi": 55,
      "time": 39.857,
      "duration": 0.214,
      "velocity": 1,
      "hand": "left"
    },
    {
      "midi": 54,
      "time": 40.071,
      "duration": 0.214,
      "velocity": 1,
      "hand": "left"
    },
    {
      "midi": 55,
      "time": 40.286,
      "duration": 1.286,
      "velocity": 1,
      "hand": "left"
    },
    {
      "midi": 71,
      "time": 40.286,
      "duration": 0.857,
      "velocity": 1,
      "hand": "right"
    },
    {
      "midi": 62,
      "time": 40.5,
      "duration": 0.214,
      "velocity": 1,
      "hand": "right"
    },
    {
      "midi": 64,
      "time": 40.714,
      "duration": 0.214,
      "velocity": 1,
      "hand": "right"
    },
    {
      "midi": 66,
      "time": 40.929,
      "duration": 0.214,
      "velocity": 1,
      "hand": "right"
    },
    {
      "midi": 67,
      "time": 41.143,
      "duration": 1.714,
      "velocity": 1,
      "hand": "right"
    },
    {
      "midi": 70,
      "time": 41.143,
      "duration": 0.429,
      "velocity": 1,
      "hand": "right"
    },
    {
      "midi": 53,
      "time": 41.571,
      "duration": 0.429,
      "velocity": 1,
      "hand": "left"
    },
    {
      "midi": 61,
      "time": 41.571,
      "duration": 0.429,
      "velocity": 1,
      "hand": "right"
    },
    {
      "midi": 70,
      "time": 41.571,
      "duration": 0.429,
      "velocity": 1,
      "hand": "right"
    },
    {
      "midi": 52,
      "time": 42,
      "duration": 0.857,
      "velocity": 1,
      "hand": "left"
    },
    {
      "midi": 60,
      "time": 42,
      "duration": 1.714,
      "velocity": 1,
      "hand": "right"
    },
    {
      "midi": 70,
      "time": 42,
      "duration": 0.429,
      "velocity": 1,
      "hand": "right"
    },
    {
      "midi": 70,
      "time": 42.429,
      "duration": 0.429,
      "velocity": 1,
      "hand": "right"
    },
    {
      "midi": 53,
      "time": 42.857,
      "duration": 1.286,
      "velocity": 1,
      "hand": "left"
    },
    {
      "midi": 65,
      "time": 42.857,
      "duration": 0.857,
      "velocity": 1,
      "hand": "right"
    },
    {
      "midi": 70,
      "time": 42.857,
      "duration": 0.429,
      "velocity": 1,
      "hand": "right"
    },
    {
      "midi": 69,
      "time": 43.286,
      "duration": 0.214,
      "velocity": 1,
      "hand": "right"
    },
    {
      "midi": 67,
      "time": 43.5,
      "duration": 0.214,
      "velocity": 1,
      "hand": "right"
    },
    {
      "midi": 69,
      "time": 43.714,
      "duration": 0.857,
      "velocity": 1,
      "hand": "right"
    },
    {
      "midi": 52,
      "time": 44.143,
      "duration": 0.429,
      "velocity": 1,
      "hand": "left"
    },
    {
      "midi": 50,
      "time": 44.571,
      "duration": 1.071,
      "velocity": 1,
      "hand": "left"
    },
    {
      "midi": 65,
      "time": 44.571,
      "duration": 1.714,
      "velocity": 1,
      "hand": "right"
    },
    {
      "midi": 69,
      "time": 44.571,
      "duration": 3,
      "velocity": 1,
      "hand": "right"
    },
    {
      "midi": 62,
      "time": 45,
      "duration": 0.429,
      "velocity": 1,
      "hand": "right"
    },
    {
      "midi": 62,
      "time": 45.429,
      "duration": 0.429,
      "velocity": 1,
      "hand": "right"
    },
    {
      "midi": 52,
      "time": 45.643,
      "duration": 0.214,
      "velocity": 1,
      "hand": "left"
    },
    {
      "midi": 53,
      "time": 45.857,
      "duration": 0.214,
      "velocity": 1,
      "hand": "left"
    },
    {
      "midi": 62,
      "time": 45.857,
      "duration": 0.429,
      "velocity": 1,
      "hand": "right"
    },
    {
      "midi": 55,
      "time": 46.071,
      "duration": 0.214,
      "velocity": 1,
      "hand": "left"
    },
    {
      "midi": 57,
      "time": 46.286,
      "duration": 0.429,
      "velocity": 1,
      "hand": "left"
    },
    {
      "midi": 62,
      "time": 46.286,
      "duration": 0.429,
      "velocity": 1,
      "hand": "right"
    },
    {
      "midi": 64,
      "time": 46.286,
      "duration": 1.714,
      "velocity": 1,
      "hand": "right"
    },
    {
      "midi": 45,
      "time": 46.714,
      "duration": 0.429,
      "velocity": 1,
      "hand": "left"
    },
    {
      "midi": 60,
      "time": 46.714,
      "duration": 0.214,
      "velocity": 1,
      "hand": "right"
    },
    {
      "midi": 59,
      "time": 46.929,
      "duration": 0.214,
      "velocity": 1,
      "hand": "left"
    },
    {
      "midi": 45,
      "time": 47.143,
      "duration": 0.429,
      "velocity": 1,
      "hand": "left"
    },
    {
      "midi": 60,
      "time": 47.143,
      "duration": 1.071,
      "velocity": 1,
      "hand": "right"
    },
    {
      "midi": 45,
      "time": 47.571,
      "duration": 0.429,
      "velocity": 1,
      "hand": "left"
    },
    {
      "midi": 71,
      "time": 47.571,
      "duration": 0.429,
      "velocity": 1,
      "hand": "right"
    },
    {
      "midi": 43,
      "time": 48,
      "duration": 0.429,
      "velocity": 1,
      "hand": "left"
    },
    {
      "midi": 67,
      "time": 48,
      "duration": 1.714,
      "velocity": 1,
      "hand": "right"
    },
    {
      "midi": 72,
      "time": 48,
      "duration": 1.714,
      "velocity": 1,
      "hand": "right"
    },
    {
      "midi": 62,
      "time": 48.214,
      "duration": 0.214,
      "velocity": 1,
      "hand": "right"
    },
    {
      "midi": 43,
      "time": 48.429,
      "duration": 0.214,
      "velocity": 1,
      "hand": "left"
    },
    {
      "midi": 63,
      "time": 48.429,
      "duration": 0.429,
      "velocity": 1,
      "hand": "right"
    },
    {
      "midi": 42,
      "time": 48.643,
      "duration": 0.214,
      "velocity": 1,
      "hand": "left"
    },
    {
      "midi": 43,
      "time": 48.857,
      "duration": 0.214,
      "velocity": 1,
      "hand": "left"
    },
    {
      "midi": 63,
      "time": 48.857,
      "duration": 0.429,
      "velocity": 1,
      "hand": "right"
    },
    {
      "midi": 45,
      "time": 49.071,
      "duration": 0.214,
      "velocity": 1,
      "hand": "left"
    },
    {
      "midi": 46,
      "time": 49.286,
      "duration": 0.214,
      "velocity": 1,
      "hand": "left"
    },
    {
      "midi": 63,
      "time": 49.286,
      "duration": 0.429,
      "velocity": 1,
      "hand": "right"
    },
    {
      "midi": 48,
      "time": 49.5,
      "duration": 0.214,
      "velocity": 1,
      "hand": "left"
    },
    {
      "midi": 50,
      "time": 49.714,
      "duration": 0.857,
      "velocity": 1,
      "hand": "left"
    },
    {
      "midi": 63,
      "time": 49.714,
      "duration": 0.429,
      "velocity": 1,
      "hand": "right"
    },
    {
      "midi": 66,
      "time": 49.714,
      "duration": 1.714,
      "velocity": 1,
      "hand": "right"
    },
    {
      "midi": 62,
      "time": 50.143,
      "duration": 0.214,
      "velocity": 1,
      "hand": "right"
    },
    {
      "midi": 69,
      "time": 50.143,
      "duration": 0.429,
      "velocity": 1,
      "hand": "right"
    },
    {
      "midi": 60,
      "time": 50.357,
      "duration": 0.214,
      "velocity": 1,
      "hand": "right"
    },
    {
      "midi": 62,
      "time": 50.571,
      "duration": 0.857,
      "velocity": 1,
      "hand": "right"
    },
    {
      "midi": 69,
      "time": 50.571,
      "duration": 0.429,
      "velocity": 1,
      "hand": "right"
    },
    {
      "midi": 69,
      "time": 51,
      "duration": 0.429,
      "velocity": 1,
      "hand": "right"
    },
    {
      "midi": 47,
      "time": 51.429,
      "duration": 1.714,
      "velocity": 1,
      "hand": "left"
    },
    {
      "midi": 50,
      "time": 51.429,
      "duration": 1.286,
      "velocity": 1,
      "hand": "left"
    },
    {
      "midi": 69,
      "time": 51.429,
      "duration": 0.429,
      "velocity": 1,
      "hand": "right"
    },
    {
      "midi": 62,
      "time": 51.857,
      "duration": 0.429,
      "velocity": 1,
      "hand": "right"
    },
    {
      "midi": 67,
      "time": 51.857,
      "duration": 0.214,
      "velocity": 1,
      "hand": "right"
    },
    {
      "midi": 66,
      "time": 52.071,
      "duration": 0.214,
      "velocity": 1,
      "hand": "right"
    },
    {
      "midi": 62,
      "time": 52.286,
      "duration": 0.429,
      "velocity": 1,
      "hand": "right"
    },
    {
      "midi": 67,
      "time": 52.286,
      "duration": 0.857,
      "velocity": 1,
      "hand": "right"
    },
    {
      "midi": 52,
      "time": 52.714,
      "duration": 0.429,
      "velocity": 1,
      "hand": "left"
    },
    {
      "midi": 62,
      "time": 52.714,
      "duration": 0.429,
      "velocity": 1,
      "hand": "right"
    },
    {
      "midi": 45,
      "time": 53.143,
      "duration": 1.714,
      "velocity": 1,
      "hand": "left"
    },
    {
      "midi": 53,
      "time": 53.143,
      "duration": 0.429,
      "velocity": 1,
      "hand": "left"
    },
    {
      "midi": 62,
      "time": 53.143,
      "duration": 0.429,
      "velocity": 1,
      "hand": "right"
    },
    {
      "midi": 53,
      "time": 53.571,
      "duration": 0.429,
      "velocity": 1,
      "hand": "left"
    },
    {
      "midi": 60,
      "time": 53.571,
      "duration": 0.214,
      "velocity": 1,
      "hand": "right"
    },
    {
      "midi": 59,
      "time": 53.786,
      "duration": 0.214,
      "velocity": 1,
      "hand": "left"
    },
    {
      "midi": 53,
      "time": 54,
      "duration": 0.429,
      "velocity": 1,
      "hand": "left"
    },
    {
      "midi": 60,
      "time": 54,
      "duration": 1.071,
      "velocity": 1,
      "hand": "right"
    },
    {
      "midi": 53,
      "time": 54.429,
      "duration": 0.429,
      "velocity": 1,
      "hand": "left"
    },
    {
      "midi": 48,
      "time": 54.857,
      "duration": 1.714,
      "velocity": 1,
      "hand": "left"
    },
    {
      "midi": 53,
      "time": 54.857,
      "duration": 0.429,
      "velocity": 1,
      "hand": "left"
    },
    {
      "midi": 62,
      "time": 55.071,
      "duration": 0.214,
      "velocity": 1,
      "hand": "right"
    },
    {
      "midi": 51,
      "time": 55.286,
      "duration": 0.214,
      "velocity": 1,
      "hand": "left"
    },
    {
      "midi": 63,
      "time": 55.286,
      "duration": 0.429,
      "velocity": 1,
      "hand": "right"
    },
    {
      "midi": 50,
      "time": 55.5,
      "duration": 0.214,
      "velocity": 1,
      "hand": "left"
    },
    {
      "midi": 51,
      "time": 55.714,
      "duration": 0.857,
      "velocity": 1,
      "hand": "left"
    },
    {
      "midi": 63,
      "time": 55.714,
      "duration": 0.429,
      "velocity": 1,
      "hand": "right"
    },
    {
      "midi": 63,
      "time": 56.143,
      "duration": 0.429,
      "velocity": 1,
      "hand": "right"
    },
    {
      "midi": 47,
      "time": 56.571,
      "duration": 1.286,
      "velocity": 1,
      "hand": "left"
    },
    {
      "midi": 63,
      "time": 56.571,
      "duration": 0.429,
      "velocity": 1,
      "hand": "right"
    },
    {
      "midi": 55,
      "time": 57,
      "duration": 0.429,
      "velocity": 1,
      "hand": "left"
    },
    {
      "midi": 62,
      "time": 57,
      "duration": 0.214,
      "velocity": 1,
      "hand": "right"
    },
    {
      "midi": 60,
      "time": 57.214,
      "duration": 0.214,
      "velocity": 1,
      "hand": "right"
    },
    {
      "midi": 55,
      "time": 57.429,
      "duration": 0.429,
      "velocity": 1,
      "hand": "left"
    },
    {
      "midi": 62,
      "time": 57.429,
      "duration": 0.857,
      "velocity": 1,
      "hand": "right"
    },
    {
      "midi": 48,
      "time": 57.857,
      "duration": 0.429,
      "velocity": 1,
      "hand": "left"
    },
    {
      "midi": 55,
      "time": 57.857,
      "duration": 0.429,
      "velocity": 1,
      "hand": "left"
    },
    {
      "midi": 50,
      "time": 58.286,
      "duration": 1.286,
      "velocity": 1,
      "hand": "left"
    },
    {
      "midi": 55,
      "time": 58.286,
      "duration": 0.429,
      "velocity": 1,
      "hand": "left"
    },
    {
      "midi": 53,
      "time": 58.714,
      "duration": 0.214,
      "velocity": 1,
      "hand": "left"
    },
    {
      "midi": 62,
      "time": 58.714,
      "duration": 0.429,
      "velocity": 1,
      "hand": "right"
    },
    {
      "midi": 52,
      "time": 58.929,
      "duration": 0.214,
      "velocity": 1,
      "hand": "left"
    },
    {
      "midi": 53,
      "time": 59.143,
      "duration": 2.143,
      "velocity": 1,
      "hand": "left"
    },
    {
      "midi": 62,
      "time": 59.143,
      "duration": 0.429,
      "velocity": 1,
      "hand": "right"
    },
    {
      "midi": 52,
      "time": 59.571,
      "duration": 0.429,
      "velocity": 1,
      "hand": "left"
    },
    {
      "midi": 62,
      "time": 59.571,
      "duration": 0.429,
      "velocity": 1,
      "hand": "right"
    },
    {
      "midi": 62,
      "time": 60,
      "duration": 0.429,
      "velocity": 1,
      "hand": "right"
    },
    {
      "midi": 55,
      "time": 60.214,
      "duration": 0.214,
      "velocity": 1,
      "hand": "left"
    },
    {
      "midi": 56,
      "time": 60.429,
      "duration": 0.429,
      "velocity": 1,
      "hand": "left"
    },
    {
      "midi": 60,
      "time": 60.429,
      "duration": 0.214,
      "velocity": 1,
      "hand": "right"
    },
    {
      "midi": 59,
      "time": 60.643,
      "duration": 0.214,
      "velocity": 1,
      "hand": "left"
    },
    {
      "midi": 56,
      "time": 60.857,
      "duration": 0.429,
      "velocity": 1,
      "hand": "left"
    },
    {
      "midi": 60,
      "time": 60.857,
      "duration": 0.429,
      "velocity": 1,
      "hand": "right"
    },
    {
      "midi": 51,
      "time": 61.286,
      "duration": 0.214,
      "velocity": 1,
      "hand": "left"
    },
    {
      "midi": 56,
      "time": 61.286,
      "duration": 0.429,
      "velocity": 1,
      "hand": "left"
    },
    {
      "midi": 60,
      "time": 61.286,
      "duration": 0.643,
      "velocity": 1,
      "hand": "right"
    },
    {
      "midi": 50,
      "time": 61.5,
      "duration": 0.214,
      "velocity": 1,
      "hand": "left"
    },
    {
      "midi": 48,
      "time": 61.714,
      "duration": 1.714,
      "velocity": 1,
      "hand": "left"
    },
    {
      "midi": 56,
      "time": 61.714,
      "duration": 0.429,
      "velocity": 1,
      "hand": "left"
    },
    {
      "midi": 62,
      "time": 61.929,
      "duration": 0.214,
      "velocity": 1,
      "hand": "right"
    },
    {
      "midi": 55,
      "time": 62.143,
      "duration": 0.214,
      "velocity": 1,
      "hand": "left"
    },
    {
      "midi": 63,
      "time": 62.143,
      "duration": 0.429,
      "velocity": 1,
      "hand": "right"
    },
    {
      "midi": 53,
      "time": 62.357,
      "duration": 0.214,
      "velocity": 1,
      "hand": "left"
    },
    {
      "midi": 55,
      "time": 62.571,
      "duration": 1.929,
      "velocity": 1,
      "hand": "left"
    },
    {
      "midi": 63,
      "time": 62.571,
      "duration": 0.429,
      "velocity": 1,
      "hand": "right"
    },
    {
      "midi": 63,
      "time": 63,
      "duration": 0.429,
      "velocity": 1,
      "hand": "right"
    },
    {
      "midi": 46,
      "time": 63.429,
      "duration": 0.857,
      "velocity": 1,
      "hand": "left"
    },
    {
      "midi": 63,
      "time": 63.429,
      "duration": 0.429,
      "velocity": 1,
      "hand": "right"
    },
    {
      "midi": 62,
      "time": 63.857,
      "duration": 0.214,
      "velocity": 1,
      "hand": "right"
    },
    {
      "midi": 60,
      "time": 64.071,
      "duration": 0.214,
      "velocity": 1,
      "hand": "right"
    },
    {
      "midi": 62,
      "time": 64.286,
      "duration": 0.857,
      "velocity": 1,
      "hand": "right"
    },
    {
      "midi": 57,
      "time": 64.5,
      "duration": 0.214,
      "velocity": 1,
      "hand": "left"
    },
    {
      "midi": 58,
      "time": 64.714,
      "duration": 0.214,
      "velocity": 1,
      "hand": "left"
    },
    {
      "midi": 60,
      "time": 64.929,
      "duration": 0.214,
      "velocity": 1,
      "hand": "right"
    },
    {
      "midi": 62,
      "time": 65.143,
      "duration": 2.571,
      "velocity": 1,
      "hand": "right"
    },
    {
      "midi": 67,
      "time": 65.143,
      "duration": 1.714,
      "velocity": 1,
      "hand": "right"
    },
    {
      "midi": 70,
      "time": 65.143,
      "duration": 1.714,
      "velocity": 1,
      "hand": "right"
    },
    {
      "midi": 55,
      "time": 65.571,
      "duration": 0.429,
      "velocity": 1,
      "hand": "left"
    },
    {
      "midi": 55,
      "time": 66,
      "duration": 0.429,
      "velocity": 1,
      "hand": "left"
    },
    {
      "midi": 55,
      "time": 66.429,
      "duration": 0.429,
      "velocity": 1,
      "hand": "left"
    },
    {
      "midi": 55,
      "time": 66.857,
      "duration": 0.429,
      "velocity": 1,
      "hand": "left"
    },
    {
      "midi": 69,
      "time": 66.857,
      "duration": 1.714,
      "velocity": 1,
      "hand": "right"
    },
    {
      "midi": 53,
      "time": 67.286,
      "duration": 0.214,
      "velocity": 1,
      "hand": "left"
    },
    {
      "midi": 52,
      "time": 67.5,
      "duration": 0.214,
      "velocity": 1,
      "hand": "left"
    },
    {
      "midi": 53,
      "time": 67.714,
      "duration": 1.071,
      "velocity": 1,
      "hand": "left"
    },
    {
      "midi": 67,
      "time": 68.143,
      "duration": 0.429,
      "velocity": 1,
      "hand": "right"
    },
    {
      "midi": 65,
      "time": 68.571,
      "duration": 1.286,
      "velocity": 1,
      "hand": "right"
    },
    {
      "midi": 72,
      "time": 68.571,
      "duration": 1.714,
      "velocity": 1,
      "hand": "right"
    },
    {
      "midi": 55,
      "time": 68.786,
      "duration": 0.214,
      "velocity": 1,
      "hand": "left"
    },
    {
      "midi": 56,
      "time": 69,
      "duration": 0.429,
      "velocity": 1,
      "hand": "left"
    },
    {
      "midi": 56,
      "time": 69.429,
      "duration": 0.429,
      "velocity": 1,
      "hand": "left"
    },
    {
      "midi": 56,
      "time": 69.857,
      "duration": 0.429,
      "velocity": 1,
      "hand": "left"
    },
    {
      "midi": 63,
      "time": 69.857,
      "duration": 0.429,
      "velocity": 1,
      "hand": "right"
    },
    {
      "midi": 56,
      "time": 70.286,
      "duration": 0.429,
      "velocity": 1,
      "hand": "left"
    },
    {
      "midi": 62,
      "time": 70.286,
      "duration": 2.571,
      "velocity": 1,
      "hand": "right"
    },
    {
      "midi": 71,
      "time": 70.286,
      "duration": 1.286,
      "velocity": 1,
      "hand": "right"
    },
    {
      "midi": 55,
      "time": 70.714,
      "duration": 0.214,
      "velocity": 1,
      "hand": "left"
    },
    {
      "midi": 53,
      "time": 70.929,
      "duration": 0.214,
      "velocity": 1,
      "hand": "left"
    },
    {
      "midi": 55,
      "time": 71.143,
      "duration": 0.857,
      "velocity": 1,
      "hand": "left"
    },
    {
      "midi": 72,
      "time": 71.571,
      "duration": 0.429,
      "velocity": 1,
      "hand": "right"
    },
    {
      "midi": 50,
      "time": 72,
      "duration": 0.857,
      "velocity": 1,
      "hand": "left"
    },
    {
      "midi": 53,
      "time": 72,
      "duration": 1.714,
      "velocity": 1,
      "hand": "left"
    },
    {
      "midi": 74,
      "time": 72,
      "duration": 0.429,
      "velocity": 1,
      "hand": "right"
    },
    {
      "midi": 69,
      "time": 72.429,
      "duration": 0.429,
      "velocity": 1,
      "hand": "right"
    },
    {
      "midi": 41,
      "time": 72.857,
      "duration": 0.214,
      "velocity": 1,
      "hand": "left"
    },
    {
      "midi": 69,
      "time": 72.857,
      "duration": 0.429,
      "velocity": 1,
      "hand": "right"
    },
    {
      "midi": 43,
      "time": 73.071,
      "duration": 0.214,
      "velocity": 1,
      "hand": "left"
    },
    {
      "midi": 45,
      "time": 73.286,
      "duration": 0.214,
      "velocity": 1,
      "hand": "left"
    },
    {
      "midi": 69,
      "time": 73.286,
      "duration": 0.429,
      "velocity": 1,
      "hand": "right"
    },
    {
      "midi": 47,
      "time": 73.5,
      "duration": 0.214,
      "velocity": 1,
      "hand": "left"
    },
    {
      "midi": 48,
      "time": 73.714,
      "duration": 1.714,
      "velocity": 1,
      "hand": "left"
    },
    {
      "midi": 52,
      "time": 73.714,
      "duration": 1.714,
      "velocity": 1,
      "hand": "left"
    },
    {
      "midi": 69,
      "time": 73.714,
      "duration": 0.429,
      "velocity": 1,
      "hand": "right"
    },
    {
      "midi": 64,
      "time": 74.143,
      "duration": 0.429,
      "velocity": 1,
      "hand": "right"
    },
    {
      "midi": 67,
      "time": 74.143,
      "duration": 0.214,
      "velocity": 1,
      "hand": "right"
    },
    {
      "midi": 66,
      "time": 74.357,
      "duration": 0.214,
      "velocity": 1,
      "hand": "right"
    },
    {
      "midi": 64,
      "time": 74.571,
      "duration": 0.429,
      "velocity": 1,
      "hand": "right"
    },
    {
      "midi": 67,
      "time": 74.571,
      "duration": 1.071,
      "velocity": 1,
      "hand": "right"
    },
    {
      "midi": 64,
      "time": 75,
      "duration": 0.429,
      "velocity": 1,
      "hand": "right"
    },
    {
      "midi": 46,
      "time": 75.429,
      "duration": 1.286,
      "velocity": 1,
      "hand": "left"
    },
    {
      "midi": 55,
      "time": 75.429,
      "duration": 1.714,
      "velocity": 1,
      "hand": "left"
    },
    {
      "midi": 64,
      "time": 75.429,
      "duration": 0.429,
      "velocity": 1,
      "hand": "right"
    },
    {
      "midi": 69,
      "time": 75.643,
      "duration": 0.214,
      "velocity": 1,
      "hand": "right"
    },
    {
      "midi": 62,
      "time": 75.857,
      "duration": 0.214,
      "velocity": 1,
      "hand": "right"
    },
    {
      "midi": 70,
      "time": 75.857,
      "duration": 0.429,
      "velocity": 1,
      "hand": "right"
    },
    {
      "midi": 61,
      "time": 76.071,
      "duration": 0.214,
      "velocity": 1,
      "hand": "right"
    },
    {
      "midi": 62,
      "time": 76.286,
      "duration": 0.857,
      "velocity": 1,
      "hand": "right"
    },
    {
      "midi": 70,
      "time": 76.286,
      "duration": 0.429,
      "velocity": 1,
      "hand": "right"
    },
    {
      "midi": 48,
      "time": 76.714,
      "duration": 0.429,
      "velocity": 1,
      "hand": "left"
    },
    {
      "midi": 70,
      "time": 76.714,
      "duration": 0.429,
      "velocity": 1,
      "hand": "right"
    },
    {
      "midi": 50,
      "time": 77.143,
      "duration": 1.714,
      "velocity": 1,
      "hand": "left"
    },
    {
      "midi": 54,
      "time": 77.143,
      "duration": 0.429,
      "velocity": 1,
      "hand": "left"
    },
    {
      "midi": 70,
      "time": 77.143,
      "duration": 0.429,
      "velocity": 1,
      "hand": "right"
    },
    {
      "midi": 60,
      "time": 77.571,
      "duration": 0.429,
      "velocity": 1,
      "hand": "right"
    },
    {
      "midi": 69,
      "time": 77.571,
      "duration": 0.214,
      "velocity": 1,
      "hand": "right"
    },
    {
      "midi": 67,
      "time": 77.786,
      "duration": 0.214,
      "velocity": 1,
      "hand": "right"
    },
    {
      "midi": 60,
      "time": 78,
      "duration": 0.429,
      "velocity": 1,
      "hand": "right"
    },
    {
      "midi": 69,
      "time": 78,
      "duration": 0.857,
      "velocity": 1,
      "hand": "right"
    },
    {
      "midi": 60,
      "time": 78.429,
      "duration": 0.429,
      "velocity": 1,
      "hand": "right"
    },
    {
      "midi": 55,
      "time": 78.857,
      "duration": 1.714,
      "velocity": 1,
      "hand": "left"
    },
    {
      "midi": 60,
      "time": 78.857,
      "duration": 0.429,
      "velocity": 1,
      "hand": "right"
    },
    {
      "midi": 67,
      "time": 78.857,
      "duration": 0.214,
      "velocity": 1,
      "hand": "right"
    },
    {
      "midi": 69,
      "time": 79.071,
      "duration": 0.214,
      "velocity": 1,
      "hand": "right"
    },
    {
      "midi": 58,
      "time": 79.286,
      "duration": 0.214,
      "velocity": 1,
      "hand": "left"
    },
    {
      "midi": 70,
      "time": 79.286,
      "duration": 0.429,
      "velocity": 1,
      "hand": "right"
    },
    {
      "midi": 57,
      "time": 79.5,
      "duration": 0.214,
      "velocity": 1,
      "hand": "left"
    },
    {
      "midi": 70,
      "time": 79.714,
      "duration": 0.429,
      "velocity": 1,
      "hand": "right"
    },
    {
      "midi": 57,
      "time": 79.929,
      "duration": 0.214,
      "velocity": 1,
      "hand": "left"
    },
    {
      "midi": 58,
      "time": 80.143,
      "duration": 0.214,
      "velocity": 1,
      "hand": "left"
    },
    {
      "midi": 70,
      "time": 80.143,
      "duration": 0.429,
      "velocity": 1,
      "hand": "right"
    },
    {
      "midi": 60,
      "time": 80.357,
      "duration": 0.214,
      "velocity": 1,
      "hand": "right"
    },
    {
      "midi": 50,
      "time": 80.571,
      "duration": 1.286,
      "velocity": 1,
      "hand": "left"
    },
    {
      "midi": 62,
      "time": 80.571,
      "duration": 0.214,
      "velocity": 1,
      "hand": "right"
    },
    {
      "midi": 62,
      "time": 80.571,
      "duration": 0.429,
      "velocity": 1,
      "hand": "right"
    },
    {
      "midi": 70,
      "time": 80.571,
      "duration": 0.429,
      "velocity": 1,
      "hand": "right"
    },
    {
      "midi": 64,
      "time": 80.786,
      "duration": 0.214,
      "velocity": 1,
      "hand": "right"
    },
    {
      "midi": 62,
      "time": 81,
      "duration": 0.429,
      "velocity": 1,
      "hand": "right"
    },
    {
      "midi": 65,
      "time": 81,
      "duration": 0.429,
      "velocity": 1,
      "hand": "right"
    },
    {
      "midi": 69,
      "time": 81,
      "duration": 0.214,
      "velocity": 1,
      "hand": "right"
    },
    {
      "midi": 67,
      "time": 81.214,
      "duration": 0.214,
      "velocity": 1,
      "hand": "right"
    },
    {
      "midi": 62,
      "time": 81.429,
      "duration": 0.429,
      "velocity": 1,
      "hand": "right"
    },
    {
      "midi": 65,
      "time": 81.429,
      "duration": 0.429,
      "velocity": 1,
      "hand": "right"
    },
    {
      "midi": 69,
      "time": 81.429,
      "duration": 0.857,
      "velocity": 1,
      "hand": "right"
    },
    {
      "midi": 52,
      "time": 81.857,
      "duration": 0.429,
      "velocity": 1,
      "hand": "left"
    },
    {
      "midi": 62,
      "time": 81.857,
      "duration": 0.429,
      "velocity": 1,
      "hand": "right"
    },
    {
      "midi": 65,
      "time": 81.857,
      "duration": 0.429,
      "velocity": 1,
      "hand": "right"
    },
    {
      "midi": 53,
      "time": 82.286,
      "duration": 1.714,
      "velocity": 1,
      "hand": "left"
    },
    {
      "midi": 56,
      "time": 82.286,
      "duration": 0.857,
      "velocity": 1,
      "hand": "left"
    },
    {
      "midi": 60,
      "time": 82.286,
      "duration": 0.857,
      "velocity": 1,
      "hand": "right"
    },
    {
      "midi": 65,
      "time": 82.286,
      "duration": 0.214,
      "velocity": 1,
      "hand": "right"
    },
    {
      "midi": 67,
      "time": 82.5,
      "duration": 0.214,
      "velocity": 1,
      "hand": "right"
    },
    {
      "midi": 68,
      "time": 82.714,
      "duration": 0.429,
      "velocity": 1,
      "hand": "right"
    },
    {
      "midi": 68,
      "time": 83.143,
      "duration": 0.429,
      "velocity": 1,
      "hand": "right"
    },
    {
      "midi": 55,
      "time": 83.357,
      "duration": 0.214,
      "velocity": 1,
      "hand": "left"
    },
    {
      "midi": 56,
      "time": 83.571,
      "duration": 0.214,
      "velocity": 1,
      "hand": "left"
    },
    {
      "midi": 68,
      "time": 83.571,
      "duration": 0.429,
      "velocity": 1,
      "hand": "right"
    },
    {
      "midi": 58,
      "time": 83.786,
      "duration": 0.214,
      "velocity": 1,
      "hand": "left"
    },
    {
      "midi": 48,
      "time": 84,
      "duration": 1.286,
      "velocity": 1,
      "hand": "left"
    },
    {
      "midi": 60,
      "time": 84,
      "duration": 0.214,
      "velocity": 1,
      "hand": "right"
    },
    {
      "midi": 60,
      "time": 84,
      "duration": 0.429,
      "velocity": 1,
      "hand": "right"
    },
    {
      "midi": 68,
      "time": 84,
      "duration": 0.429,
      "velocity": 1,
      "hand": "right"
    },
    {
      "midi": 62,
      "time": 84.214,
      "duration": 0.214,
      "velocity": 1,
      "hand": "right"
    },
    {
      "midi": 60,
      "time": 84.429,
      "duration": 0.429,
      "velocity": 1,
      "hand": "right"
    },
    {
      "midi": 63,
      "time": 84.429,
      "duration": 0.429,
      "velocity": 1,
      "hand": "right"
    },
    {
      "midi": 67,
      "time": 84.429,
      "duration": 0.214,
      "velocity": 1,
      "hand": "right"
    },
    {
      "midi": 65,
      "time": 84.643,
      "duration": 0.214,
      "velocity": 1,
      "hand": "right"
    },
    {
      "midi": 60,
      "time": 84.857,
      "duration": 0.429,
      "velocity": 1,
      "hand": "right"
    },
    {
      "midi": 63,
      "time": 84.857,
      "duration": 0.429,
      "velocity": 1,
      "hand": "right"
    },
    {
      "midi": 67,
      "time": 84.857,
      "duration": 1.286,
      "velocity": 1,
      "hand": "right"
    },
    {
      "midi": 50,
      "time": 85.286,
      "duration": 0.214,
      "velocity": 1,
      "hand": "left"
    },
    {
      "midi": 60,
      "time": 85.286,
      "duration": 0.429,
      "velocity": 1,
      "hand": "right"
    },
    {
      "midi": 63,
      "time": 85.286,
      "duration": 0.429,
      "velocity": 1,
      "hand": "right"
    },
    {
      "midi": 51,
      "time": 85.5,
      "duration": 0.214,
      "velocity": 1,
      "hand": "left"
    },
    {
      "midi": 53,
      "time": 85.714,
      "duration": 3.429,
      "velocity": 1,
      "hand": "left"
    },
    {
      "midi": 62,
      "time": 85.714,
      "duration": 0.857,
      "velocity": 1,
      "hand": "right"
    },
    {
      "midi": 58,
      "time": 86.143,
      "duration": 0.429,
      "velocity": 1,
      "hand": "left"
    },
    {
      "midi": 65,
      "time": 86.143,
      "duration": 0.214,
      "velocity": 1,
      "hand": "right"
    },
    {
      "midi": 64,
      "time": 86.357,
      "duration": 0.214,
      "velocity": 1,
      "hand": "right"
    },
    {
      "midi": 58,
      "time": 86.571,
      "duration": 0.429,
      "velocity": 1,
      "hand": "left"
    },
    {
      "midi": 61,
      "time": 86.571,
      "duration": 0.857,
      "velocity": 1,
      "hand": "right"
    },
    {
      "midi": 65,
      "time": 86.571,
      "duration": 2.571,
      "velocity": 1,
      "hand": "right"
    },
    {
      "midi": 58,
      "time": 87,
      "duration": 0.429,
      "velocity": 1,
      "hand": "left"
    },
    {
      "midi": 58,
      "time": 87.429,
      "duration": 0.429,
      "velocity": 1,
      "hand": "left"
    },
    {
      "midi": 60,
      "time": 87.429,
      "duration": 0.857,
      "velocity": 1,
      "hand": "right"
    },
    {
      "midi": 57,
      "time": 87.857,
      "duration": 0.214,
      "velocity": 1,
      "hand": "left"
    },
    {
      "midi": 55,
      "time": 88.071,
      "duration": 0.214,
      "velocity": 1,
      "hand": "left"
    },
    {
      "midi": 57,
      "time": 88.286,
      "duration": 0.857,
      "velocity": 1,
      "hand": "left"
    },
    {
      "midi": 60,
      "time": 88.286,
      "duration": 0.857,
      "velocity": 1,
      "hand": "right"
    },
    {
      "midi": 46,
      "time": 90,
      "duration": 0.857,
      "velocity": 1,
      "hand": "left"
    },
    {
      "midi": 45,
      "time": 90.857,
      "duration": 1.714,
      "velocity": 1,
      "hand": "left"
    },
    {
      "midi": 53,
      "time": 91.714,
      "duration": 0.857,
      "velocity": 1,
      "hand": "left"
    },
    {
      "midi": 48,
      "time": 92.571,
      "duration": 1.714,
      "velocity": 1,
      "hand": "left"
    },
    {
      "midi": 52,
      "time": 92.571,
      "duration": 1.714,
      "velocity": 1,
      "hand": "left"
    },
    {
      "midi": 47,
      "time": 94.286,
      "duration": 0.429,
      "velocity": 1,
      "hand": "left"
    },
    {
      "midi": 55,
      "time": 94.286,
      "duration": 1.714,
      "velocity": 1,
      "hand": "left"
    },
    {
      "midi": 45,
      "time": 94.714,
      "duration": 0.429,
      "velocity": 1,
      "hand": "left"
    },
    {
      "midi": 47,
      "time": 95.143,
      "duration": 0.429,
      "velocity": 1,
      "hand": "left"
    },
    {
      "midi": 48,
      "time": 95.571,
      "duration": 0.429,
      "velocity": 1,
      "hand": "left"
    },
    {
      "midi": 50,
      "time": 96,
      "duration": 0.429,
      "velocity": 1,
      "hand": "left"
    },
    {
      "midi": 54,
      "time": 96,
      "duration": 1.714,
      "velocity": 1,
      "hand": "left"
    },
    {
      "midi": 48,
      "time": 96.429,
      "duration": 0.429,
      "velocity": 1,
      "hand": "left"
    },
    {
      "midi": 46,
      "time": 96.857,
      "duration": 0.429,
      "velocity": 1,
      "hand": "left"
    },
    {
      "midi": 45,
      "time": 97.286,
      "duration": 0.429,
      "velocity": 1,
      "hand": "left"
    },
    {
      "midi": 43,
      "time": 97.714,
      "duration": 0.429,
      "velocity": 1,
      "hand": "left"
    },
    {
      "midi": 55,
      "time": 97.714,
      "duration": 2.143,
      "velocity": 1,
      "hand": "left"
    },
    {
      "midi": 45,
      "time": 98.143,
      "duration": 0.429,
      "velocity": 1,
      "hand": "left"
    },
    {
      "midi": 46,
      "time": 98.571,
      "duration": 0.429,
      "velocity": 1,
      "hand": "left"
    },
    {
      "midi": 58,
      "time": 98.571,
      "duration": 0.857,
      "velocity": 1,
      "hand": "left"
    },
    {
      "midi": 48,
      "time": 99,
      "duration": 0.429,
      "velocity": 1,
      "hand": "left"
    },
    {
      "midi": 50,
      "time": 99.429,
      "duration": 0.857,
      "velocity": 1,
      "hand": "left"
    },
    {
      "midi": 57,
      "time": 99.429,
      "duration": 1.714,
      "velocity": 1,
      "hand": "left"
    },
    {
      "midi": 53,
      "time": 99.857,
      "duration": 0.429,
      "velocity": 1,
      "hand": "left"
    },
    {
      "midi": 38,
      "time": 100.286,
      "duration": 0.857,
      "velocity": 1,
      "hand": "left"
    },
    {
      "midi": 52,
      "time": 100.286,
      "duration": 0.429,
      "velocity": 1,
      "hand": "left"
    },
    {
      "midi": 65,
      "time": 100.286,
      "duration": 0.857,
      "velocity": 1,
      "hand": "right"
    },
    {
      "midi": 50,
      "time": 100.714,
      "duration": 0.429,
      "velocity": 1,
      "hand": "left"
    },
    {
      "midi": 45,
      "time": 101.143,
      "duration": 1.714,
      "velocity": 1,
      "hand": "left"
    },
    {
      "midi": 48,
      "time": 101.143,
      "duration": 0.429,
      "velocity": 1,
      "hand": "left"
    },
    {
      "midi": 60,
      "time": 101.143,
      "duration": 1.714,
      "velocity": 1,
      "hand": "right"
    },
    {
      "midi": 63,
      "time": 101.143,
      "duration": 1.714,
      "velocity": 1,
      "hand": "right"
    },
    {
      "midi": 47,
      "time": 102,
      "duration": 0.429,
      "velocity": 1,
      "hand": "left"
    },
    {
      "midi": 48,
      "time": 102.429,
      "duration": 0.429,
      "velocity": 1,
      "hand": "left"
    },
    {
      "midi": 43,
      "time": 102.857,
      "duration": 1.714,
      "velocity": 1,
      "hand": "left"
    },
    {
      "midi": 50,
      "time": 102.857,
      "duration": 3.429,
      "velocity": 1,
      "hand": "left"
    },
    {
      "midi": 59,
      "time": 102.857,
      "duration": 0.429,
      "velocity": 1,
      "hand": "left"
    },
    {
      "midi": 67,
      "time": 102.857,
      "duration": 1.714,
      "velocity": 1,
      "hand": "right"
    },
    {
      "midi": 57,
      "time": 103.286,
      "duration": 0.429,
      "velocity": 1,
      "hand": "left"
    },
    {
      "midi": 58,
      "time": 103.714,
      "duration": 0.429,
      "velocity": 1,
      "hand": "left"
    },
    {
      "midi": 60,
      "time": 104.143,
      "duration": 0.429,
      "velocity": 1,
      "hand": "right"
    },
    {
      "midi": 38,
      "time": 104.571,
      "duration": 1.714,
      "velocity": 1,
      "hand": "left"
    },
    {
      "midi": 62,
      "time": 104.571,
      "duration": 0.429,
      "velocity": 1,
      "hand": "right"
    },
    {
      "midi": 66,
      "time": 104.571,
      "duration": 1.714,
      "velocity": 1,
      "hand": "right"
    },
    {
      "midi": 63,
      "time": 105,
      "duration": 0.429,
      "velocity": 1,
      "hand": "right"
    },
    {
      "midi": 62,
      "time": 105.429,
      "duration": 0.429,
      "velocity": 1,
      "hand": "right"
    },
    {
      "midi": 60,
      "time": 105.857,
      "duration": 0.429,
      "velocity": 1,
      "hand": "right"
    },
    {
      "midi": 43,
      "time": 106.286,
      "duration": 15.429,
      "velocity": 1,
      "hand": "left"
    },
    {
      "midi": 58,
      "time": 106.286,
      "duration": 1.286,
      "velocity": 1,
      "hand": "left"
    },
    {
      "midi": 67,
      "time": 106.286,
      "duration": 0.857,
      "velocity": 1,
      "hand": "right"
    },
    {
      "midi": 55,
      "time": 106.714,
      "duration": 0.429,
      "velocity": 1,
      "hand": "left"
    },
    {
      "midi": 55,
      "time": 107.143,
      "duration": 0.429,
      "velocity": 1,
      "hand": "left"
    },
    {
      "midi": 70,
      "time": 107.143,
      "duration": 1.714,
      "velocity": 1,
      "hand": "right"
    },
    {
      "midi": 55,
      "time": 107.571,
      "duration": 0.429,
      "velocity": 1,
      "hand": "left"
    },
    {
      "midi": 60,
      "time": 107.571,
      "duration": 0.429,
      "velocity": 1,
      "hand": "right"
    },
    {
      "midi": 55,
      "time": 108,
      "duration": 0.429,
      "velocity": 1,
      "hand": "left"
    },
    {
      "midi": 62,
      "time": 108,
      "duration": 1.714,
      "velocity": 1,
      "hand": "right"
    },
    {
      "midi": 53,
      "time": 108.429,
      "duration": 0.214,
      "velocity": 1,
      "hand": "left"
    },
    {
      "midi": 52,
      "time": 108.643,
      "duration": 0.214,
      "velocity": 1,
      "hand": "left"
    },
    {
      "midi": 53,
      "time": 108.857,
      "duration": 1.071,
      "velocity": 1,
      "hand": "left"
    },
    {
      "midi": 69,
      "time": 108.857,
      "duration": 0.857,
      "velocity": 1,
      "hand": "right"
    },
    {
      "midi": 60,
      "time": 109.714,
      "duration": 1.714,
      "velocity": 1,
      "hand": "right"
    },
    {
      "midi": 72,
      "time": 109.714,
      "duration": 1.714,
      "velocity": 1,
      "hand": "right"
    },
    {
      "midi": 55,
      "time": 109.929,
      "duration": 0.214,
      "velocity": 1,
      "hand": "left"
    },
    {
      "midi": 56,
      "time": 110.143,
      "duration": 0.429,
      "velocity": 1,
      "hand": "left"
    },
    {
      "midi": 56,
      "time": 110.571,
      "duration": 0.429,
      "velocity": 1,
      "hand": "left"
    },
    {
      "midi": 56,
      "time": 111,
      "duration": 0.429,
      "velocity": 1,
      "hand": "left"
    },
    {
      "midi": 56,
      "time": 111.429,
      "duration": 0.429,
      "velocity": 1,
      "hand": "left"
    },
    {
      "midi": 62,
      "time": 111.429,
      "duration": 1.714,
      "velocity": 1,
      "hand": "right"
    },
    {
      "midi": 71,
      "time": 111.429,
      "duration": 1.071,
      "velocity": 1,
      "hand": "right"
    },
    {
      "midi": 55,
      "time": 111.857,
      "duration": 0.214,
      "velocity": 1,
      "hand": "left"
    },
    {
      "midi": 53,
      "time": 112.071,
      "duration": 0.214,
      "velocity": 1,
      "hand": "left"
    },
    {
      "midi": 55,
      "time": 112.286,
      "duration": 0.429,
      "velocity": 1,
      "hand": "left"
    },
    {
      "midi": 67,
      "time": 112.5,
      "duration": 0.214,
      "velocity": 1,
      "hand": "right"
    },
    {
      "midi": 53,
      "time": 112.714,
      "duration": 0.857,
      "velocity": 1,
      "hand": "left"
    },
    {
      "midi": 69,
      "time": 112.714,
      "duration": 0.214,
      "velocity": 1,
      "hand": "right"
    },
    {
      "midi": 71,
      "time": 112.929,
      "duration": 0.214,
      "velocity": 1,
      "hand": "right"
    },
    {
      "midi": 60,
      "time": 113.143,
      "duration": 1.071,
      "velocity": 1,
      "hand": "right"
    },
    {
      "midi": 72,
      "time": 113.143,
      "duration": 0.429,
      "velocity": 1,
      "hand": "right"
    },
    {
      "midi": 51,
      "time": 113.571,
      "duration": 0.214,
      "velocity": 1,
      "hand": "left"
    },
    {
      "midi": 72,
      "time": 113.571,
      "duration": 0.429,
      "velocity": 1,
      "hand": "right"
    },
    {
      "midi": 50,
      "time": 113.786,
      "duration": 0.214,
      "velocity": 1,
      "hand": "left"
    },
    {
      "midi": 51,
      "time": 114,
      "duration": 0.857,
      "velocity": 1,
      "hand": "left"
    },
    {
      "midi": 72,
      "time": 114,
      "duration": 0.429,
      "velocity": 1,
      "hand": "right"
    },
    {
      "midi": 62,
      "time": 114.214,
      "duration": 0.214,
      "velocity": 1,
      "hand": "right"
    },
    {
      "midi": 63,
      "time": 114.429,
      "duration": 0.214,
      "velocity": 1,
      "hand": "right"
    },
    {
      "midi": 72,
      "time": 114.429,
      "duration": 0.429,
      "velocity": 1,
      "hand": "right"
    },
    {
      "midi": 65,
      "time": 114.643,
      "duration": 0.214,
      "velocity": 1,
      "hand": "right"
    },
    {
      "midi": 50,
      "time": 114.857,
      "duration": 0.429,
      "velocity": 1,
      "hand": "left"
    },
    {
      "midi": 67,
      "time": 114.857,
      "duration": 1.286,
      "velocity": 1,
      "hand": "right"
    },
    {
      "midi": 72,
      "time": 114.857,
      "duration": 0.429,
      "velocity": 1,
      "hand": "right"
    },
    {
      "midi": 62,
      "time": 115.286,
      "duration": 0.429,
      "velocity": 1,
      "hand": "right"
    },
    {
      "midi": 70,
      "time": 115.286,
      "duration": 0.214,
      "velocity": 1,
      "hand": "right"
    },
    {
      "midi": 69,
      "time": 115.5,
      "duration": 0.214,
      "velocity": 1,
      "hand": "right"
    },
    {
      "midi": 62,
      "time": 115.714,
      "duration": 0.429,
      "velocity": 1,
      "hand": "right"
    },
    {
      "midi": 70,
      "time": 115.714,
      "duration": 1.286,
      "velocity": 1,
      "hand": "right"
    },
    {
      "midi": 62,
      "time": 116.143,
      "duration": 0.429,
      "velocity": 1,
      "hand": "right"
    },
    {
      "midi": 65,
      "time": 116.143,
      "duration": 0.429,
      "velocity": 1,
      "hand": "right"
    },
    {
      "midi": 62,
      "time": 116.571,
      "duration": 0.429,
      "velocity": 1,
      "hand": "right"
    },
    {
      "midi": 64,
      "time": 116.571,
      "duration": 0.857,
      "velocity": 1,
      "hand": "right"
    },
    {
      "midi": 61,
      "time": 117,
      "duration": 0.214,
      "velocity": 1,
      "hand": "right"
    },
    {
      "midi": 69,
      "time": 117,
      "duration": 0.214,
      "velocity": 1,
      "hand": "right"
    },
    {
      "midi": 59,
      "time": 117.214,
      "duration": 0.214,
      "velocity": 1,
      "hand": "left"
    },
    {
      "midi": 67,
      "time": 117.214,
      "duration": 0.214,
      "velocity": 1,
      "hand": "right"
    },
    {
      "midi": 60,
      "time": 117.429,
      "duration": 0.429,
      "velocity": 1,
      "hand": "right"
    },
    {
      "midi": 63,
      "time": 117.429,
      "duration": 0.857,
      "velocity": 1,
      "hand": "right"
    },
    {
      "midi": 69,
      "time": 117.429,
      "duration": 1.286,
      "velocity": 1,
      "hand": "right"
    },
    {
      "midi": 60,
      "time": 117.857,
      "duration": 0.429,
      "velocity": 1,
      "hand": "right"
    },
    {
      "midi": 60,
      "time": 118.286,
      "duration": 0.429,
      "velocity": 1,
      "hand": "right"
    },
    {
      "midi": 59,
      "time": 118.714,
      "duration": 0.214,
      "velocity": 1,
      "hand": "left"
    },
    {
      "midi": 62,
      "time": 118.714,
      "duration": 0.429,
      "velocity": 1,
      "hand": "right"
    },
    {
      "midi": 67,
      "time": 118.714,
      "duration": 0.214,
      "velocity": 1,
      "hand": "right"
    },
    {
      "midi": 57,
      "time": 118.929,
      "duration": 0.214,
      "velocity": 1,
      "hand": "left"
    },
    {
      "midi": 66,
      "time": 118.929,
      "duration": 0.214,
      "velocity": 1,
      "hand": "right"
    },
    {
      "midi": 58,
      "time": 119.143,
      "duration": 0.857,
      "velocity": 1,
      "hand": "left"
    },
    {
      "midi": 62,
      "time": 119.143,
      "duration": 0.429,
      "velocity": 1,
      "hand": "right"
    },
    {
      "midi": 67,
      "time": 119.143,
      "duration": 1.286,
      "velocity": 1,
      "hand": "right"
    },
    {
      "midi": 62,
      "time": 119.571,
      "duration": 0.429,
      "velocity": 1,
      "hand": "right"
    },
    {
      "midi": 57,
      "time": 120,
      "duration": 1.714,
      "velocity": 1,
      "hand": "left"
    },
    {
      "midi": 62,
      "time": 120,
      "duration": 1.286,
      "velocity": 1,
      "hand": "right"
    },
    {
      "midi": 66,
      "time": 120.429,
      "duration": 0.214,
      "velocity": 1,
      "hand": "right"
    },
    {
      "midi": 64,
      "time": 120.643,
      "duration": 0.214,
      "velocity": 1,
      "hand": "right"
    },
    {
      "midi": 66,
      "time": 120.857,
      "duration": 0.857,
      "velocity": 1,
      "hand": "right"
    },
    {
      "midi": 60,
      "time": 121.286,
      "duration": 0.429,
      "velocity": 1,
      "hand": "right"
    },
    {
      "midi": 67,
      "time": 121.5,
      "duration": 0.054,
      "velocity": 1,
      "hand": "right"
    },
    {
      "midi": 43,
      "time": 121.714,
      "duration": 1.714,
      "velocity": 1,
      "hand": "left"
    },
    {
      "midi": 50,
      "time": 121.714,
      "duration": 1.714,
      "velocity": 1,
      "hand": "left"
    },
    {
      "midi": 59,
      "time": 121.714,
      "duration": 1.714,
      "velocity": 1,
      "hand": "left"
    },
    {
      "midi": 67,
      "time": 121.714,
      "duration": 1.714,
      "velocity": 1,
      "hand": "right"
    }
  ],
  "arrangements": {
    "easy": [
      {
        "midi": 60,
        "time": 3.429,
        "duration": 1.714,
        "velocity": 1,
        "hand": "right"
      },
      {
        "midi": 60,
        "time": 6.429,
        "duration": 0.429,
        "velocity": 1,
        "hand": "right"
      },
      {
        "midi": 62,
        "time": 6.857,
        "duration": 0.429,
        "velocity": 1,
        "hand": "right"
      },
      {
        "midi": 65,
        "time": 7.714,
        "duration": 0.857,
        "velocity": 1,
        "hand": "right"
      },
      {
        "midi": 64,
        "time": 8.571,
        "duration": 1.714,
        "velocity": 1,
        "hand": "right"
      },
      {
        "midi": 67,
        "time": 10.286,
        "duration": 1.714,
        "velocity": 1,
        "hand": "right"
      },
      {
        "midi": 66,
        "time": 12,
        "duration": 1.714,
        "velocity": 1,
        "hand": "right"
      },
      {
        "midi": 70,
        "time": 13.714,
        "duration": 1.714,
        "velocity": 1,
        "hand": "right"
      },
      {
        "midi": 67,
        "time": 14.143,
        "duration": 0.429,
        "velocity": 1,
        "hand": "right"
      },
      {
        "midi": 67,
        "time": 14.571,
        "duration": 0.429,
        "velocity": 1,
        "hand": "right"
      },
      {
        "midi": 67,
        "time": 15,
        "duration": 0.429,
        "velocity": 1,
        "hand": "right"
      },
      {
        "midi": 69,
        "time": 15.429,
        "duration": 1.714,
        "velocity": 1,
        "hand": "right"
      },
      {
        "midi": 65,
        "time": 15.857,
        "duration": 0.214,
        "velocity": 1,
        "hand": "right"
      },
      {
        "midi": 65,
        "time": 16.286,
        "duration": 1.071,
        "velocity": 1,
        "hand": "right"
      },
      {
        "midi": 72,
        "time": 17.143,
        "duration": 1.714,
        "velocity": 1,
        "hand": "right"
      },
      {
        "midi": 68,
        "time": 17.571,
        "duration": 0.429,
        "velocity": 1,
        "hand": "right"
      },
      {
        "midi": 68,
        "time": 18,
        "duration": 0.429,
        "velocity": 1,
        "hand": "right"
      },
      {
        "midi": 68,
        "time": 18.429,
        "duration": 0.429,
        "velocity": 1,
        "hand": "right"
      },
      {
        "midi": 71,
        "time": 18.857,
        "duration": 1.286,
        "velocity": 1,
        "hand": "right"
      },
      {
        "midi": 67,
        "time": 19.286,
        "duration": 0.214,
        "velocity": 1,
        "hand": "right"
      },
      {
        "midi": 67,
        "time": 19.714,
        "duration": 1.286,
        "velocity": 1,
        "hand": "right"
      },
      {
        "midi": 72,
        "time": 20.143,
        "duration": 0.429,
        "velocity": 1,
        "hand": "right"
      },
      {
        "midi": 74,
        "time": 20.571,
        "duration": 0.429,
        "velocity": 1,
        "hand": "right"
      },
      {
        "midi": 69,
        "time": 21,
        "duration": 0.429,
        "velocity": 1,
        "hand": "right"
      },
      {
        "midi": 69,
        "time": 21.429,
        "duration": 0.429,
        "velocity": 1,
        "hand": "right"
      },
      {
        "midi": 69,
        "time": 21.857,
        "duration": 0.429,
        "velocity": 1,
        "hand": "right"
      },
      {
        "midi": 69,
        "time": 22.286,
        "duration": 0.429,
        "velocity": 1,
        "hand": "right"
      },
      {
        "midi": 67,
        "time": 22.714,
        "duration": 0.214,
        "velocity": 1,
        "hand": "right"
      },
      {
        "midi": 66,
        "time": 22.929,
        "duration": 0.214,
        "velocity": 1,
        "hand": "right"
      },
      {
        "midi": 64,
        "time": 23.571,
        "duration": 0.429,
        "velocity": 1,
        "hand": "right"
      },
      {
        "midi": 64,
        "time": 24,
        "duration": 0.429,
        "velocity": 1,
        "hand": "right"
      },
      {
        "midi": 70,
        "time": 24.429,
        "duration": 0.429,
        "velocity": 1,
        "hand": "right"
      },
      {
        "midi": 70,
        "time": 24.857,
        "duration": 0.429,
        "velocity": 1,
        "hand": "right"
      },
      {
        "midi": 70,
        "time": 25.286,
        "duration": 0.429,
        "velocity": 1,
        "hand": "right"
      },
      {
        "midi": 70,
        "time": 25.714,
        "duration": 0.429,
        "velocity": 1,
        "hand": "right"
      },
      {
        "midi": 69,
        "time": 26.143,
        "duration": 0.214,
        "velocity": 1,
        "hand": "right"
      },
      {
        "midi": 69,
        "time": 26.571,
        "duration": 0.857,
        "velocity": 1,
        "hand": "right"
      },
      {
        "midi": 60,
        "time": 27,
        "duration": 0.429,
        "velocity": 1,
        "hand": "right"
      },
      {
        "midi": 70,
        "time": 27.429,
        "duration": 1.714,
        "velocity": 1,
        "hand": "right"
      },
      {
        "midi": 67,
        "time": 27.857,
        "duration": 0.429,
        "velocity": 1,
        "hand": "right"
      },
      {
        "midi": 67,
        "time": 28.286,
        "duration": 0.429,
        "velocity": 1,
        "hand": "right"
      },
      {
        "midi": 67,
        "time": 28.714,
        "duration": 0.429,
        "velocity": 1,
        "hand": "right"
      },
      {
        "midi": 60,
        "time": 28.929,
        "duration": 0.214,
        "velocity": 1,
        "hand": "right"
      },
      {
        "midi": 65,
        "time": 29.571,
        "duration": 0.214,
        "velocity": 1,
        "hand": "right"
      },
      {
        "midi": 64,
        "time": 29.786,
        "duration": 0.214,
        "velocity": 1,
        "hand": "right"
      },
      {
        "midi": 62,
        "time": 30.429,
        "duration": 0.429,
        "velocity": 1,
        "hand": "right"
      },
      {
        "midi": 62,
        "time": 30.857,
        "duration": 0.429,
        "velocity": 1,
        "hand": "right"
      },
      {
        "midi": 68,
        "time": 31.286,
        "duration": 0.429,
        "velocity": 1,
        "hand": "right"
      },
      {
        "midi": 68,
        "time": 31.714,
        "duration": 0.429,
        "velocity": 1,
        "hand": "right"
      },
      {
        "midi": 68,
        "time": 32.143,
        "duration": 0.429,
        "velocity": 1,
        "hand": "right"
      },
      {
        "midi": 76,
        "time": 32.571,
        "duration": 0.429,
        "velocity": 1,
        "hand": "right"
      },
      {
        "midi": 62,
        "time": 32.786,
        "duration": 0.214,
        "velocity": 1,
        "hand": "right"
      },
      {
        "midi": 65,
        "time": 33.214,
        "duration": 0.214,
        "velocity": 1,
        "hand": "right"
      },
      {
        "midi": 72,
        "time": 33.429,
        "duration": 0.429,
        "velocity": 1,
        "hand": "right"
      },
      {
        "midi": 72,
        "time": 33.857,
        "duration": 0.429,
        "velocity": 1,
        "hand": "right"
      },
      {
        "midi": 72,
        "time": 34.286,
        "duration": 0.429,
        "velocity": 1,
        "hand": "right"
      },
      {
        "midi": 70,
        "time": 34.714,
        "duration": 0.214,
        "velocity": 1,
        "hand": "right"
      },
      {
        "midi": 69,
        "time": 34.929,
        "duration": 0.214,
        "velocity": 1,
        "hand": "right"
      },
      {
        "midi": 72,
        "time": 36.214,
        "duration": 0.214,
        "velocity": 1,
        "hand": "right"
      },
      {
        "midi": 73,
        "time": 36.429,
        "duration": 0.429,
        "velocity": 1,
        "hand": "right"
      },
      {
        "midi": 73,
        "time": 36.857,
        "duration": 0.429,
        "velocity": 1,
        "hand": "right"
      },
      {
        "midi": 73,
        "time": 37.286,
        "duration": 0.429,
        "velocity": 1,
        "hand": "right"
      },
      {
        "midi": 73,
        "time": 37.714,
        "duration": 0.429,
        "velocity": 1,
        "hand": "right"
      },
      {
        "midi": 72,
        "time": 38.143,
        "duration": 0.214,
        "velocity": 1,
        "hand": "right"
      },
      {
        "midi": 72,
        "time": 38.571,
        "duration": 1.714,
        "velocity": 1,
        "hand": "right"
      },
      {
        "midi": 63,
        "time": 39,
        "duration": 0.429,
        "velocity": 1,
        "hand": "right"
      },
      {
        "midi": 62,
        "time": 39.429,
        "duration": 1.071,
        "velocity": 1,
        "hand": "right"
      },
      {
        "midi": 71,
        "time": 40.286,
        "duration": 0.857,
        "velocity": 1,
        "hand": "right"
      },
      {
        "midi": 64,
        "time": 40.714,
        "duration": 0.214,
        "velocity": 1,
        "hand": "right"
      },
      {
        "midi": 66,
        "time": 40.929,
        "duration": 0.214,
        "velocity": 1,
        "hand": "right"
      },
      {
        "midi": 70,
        "time": 41.571,
        "duration": 0.429,
        "velocity": 1,
        "hand": "right"
      },
      {
        "midi": 70,
        "time": 42,
        "duration": 0.429,
        "velocity": 1,
        "hand": "right"
      },
      {
        "midi": 70,
        "time": 42.429,
        "duration": 0.429,
        "velocity": 1,
        "hand": "right"
      },
      {
        "midi": 70,
        "time": 42.857,
        "duration": 0.429,
        "velocity": 1,
        "hand": "right"
      },
      {
        "midi": 69,
        "time": 43.286,
        "duration": 0.214,
        "velocity": 1,
        "hand": "right"
      },
      {
        "midi": 69,
        "time": 43.714,
        "duration": 0.857,
        "velocity": 1,
        "hand": "right"
      },
      {
        "midi": 69,
        "time": 44.571,
        "duration": 3,
        "velocity": 1,
        "hand": "right"
      },
      {
        "midi": 62,
        "time": 45,
        "duration": 0.429,
        "velocity": 1,
        "hand": "right"
      },
      {
        "midi": 62,
        "time": 45.429,
        "duration": 0.429,
        "velocity": 1,
        "hand": "right"
      },
      {
        "midi": 62,
        "time": 45.857,
        "duration": 0.429,
        "velocity": 1,
        "hand": "right"
      },
      {
        "midi": 64,
        "time": 46.286,
        "duration": 1.714,
        "velocity": 1,
        "hand": "right"
      },
      {
        "midi": 60,
        "time": 46.714,
        "duration": 0.214,
        "velocity": 1,
        "hand": "right"
      },
      {
        "midi": 60,
        "time": 47.143,
        "duration": 1.071,
        "velocity": 1,
        "hand": "right"
      },
      {
        "midi": 71,
        "time": 47.571,
        "duration": 0.429,
        "velocity": 1,
        "hand": "right"
      },
      {
        "midi": 72,
        "time": 48,
        "duration": 1.714,
        "velocity": 1,
        "hand": "right"
      },
      {
        "midi": 63,
        "time": 48.429,
        "duration": 0.429,
        "velocity": 1,
        "hand": "right"
      },
      {
        "midi": 63,
        "time": 48.857,
        "duration": 0.429,
        "velocity": 1,
        "hand": "right"
      },
      {
        "midi": 63,
        "time": 49.286,
        "duration": 0.429,
        "velocity": 1,
        "hand": "right"
      },
      {
        "midi": 66,
        "time": 49.714,
        "duration": 1.714,
        "velocity": 1,
        "hand": "right"
      },
      {
        "midi": 69,
        "time": 50.143,
        "duration": 0.429,
        "velocity": 1,
        "hand": "right"
      },
      {
        "midi": 69,
        "time": 50.571,
        "duration": 0.429,
        "velocity": 1,
        "hand": "right"
      },
      {
        "midi": 69,
        "time": 51,
        "duration": 0.429,
        "velocity": 1,
        "hand": "right"
      },
      {
        "midi": 69,
        "time": 51.429,
        "duration": 0.429,
        "velocity": 1,
        "hand": "right"
      },
      {
        "midi": 67,
        "time": 51.857,
        "duration": 0.214,
        "velocity": 1,
        "hand": "right"
      },
      {
        "midi": 67,
        "time": 52.286,
        "duration": 0.857,
        "velocity": 1,
        "hand": "right"
      },
      {
        "midi": 62,
        "time": 52.714,
        "duration": 0.429,
        "velocity": 1,
        "hand": "right"
      },
      {
        "midi": 62,
        "time": 53.143,
        "duration": 0.429,
        "velocity": 1,
        "hand": "right"
      },
      {
        "midi": 60,
        "time": 53.571,
        "duration": 0.214,
        "velocity": 1,
        "hand": "right"
      },
      {
        "midi": 60,
        "time": 54,
        "duration": 1.071,
        "velocity": 1,
        "hand": "right"
      },
      {
        "midi": 62,
        "time": 55.071,
        "duration": 0.214,
        "velocity": 1,
        "hand": "right"
      },
      {
        "midi": 63,
        "time": 55.286,
        "duration": 0.429,
        "velocity": 1,
        "hand": "right"
      },
      {
        "midi": 63,
        "time": 55.714,
        "duration": 0.429,
        "velocity": 1,
        "hand": "right"
      },
      {
        "midi": 63,
        "time": 56.143,
        "duration": 0.429,
        "velocity": 1,
        "hand": "right"
      },
      {
        "midi": 63,
        "time": 56.571,
        "duration": 0.429,
        "velocity": 1,
        "hand": "right"
      },
      {
        "midi": 62,
        "time": 57,
        "duration": 0.214,
        "velocity": 1,
        "hand": "right"
      },
      {
        "midi": 62,
        "time": 57.429,
        "duration": 0.857,
        "velocity": 1,
        "hand": "right"
      },
      {
        "midi": 62,
        "time": 58.714,
        "duration": 0.429,
        "velocity": 1,
        "hand": "right"
      },
      {
        "midi": 62,
        "time": 59.143,
        "duration": 0.429,
        "velocity": 1,
        "hand": "right"
      },
      {
        "midi": 62,
        "time": 59.571,
        "duration": 0.429,
        "velocity": 1,
        "hand": "right"
      },
      {
        "midi": 62,
        "time": 60,
        "duration": 0.429,
        "velocity": 1,
        "hand": "right"
      },
      {
        "midi": 60,
        "time": 60.429,
        "duration": 0.214,
        "velocity": 1,
        "hand": "right"
      },
      {
        "midi": 60,
        "time": 60.857,
        "duration": 0.429,
        "velocity": 1,
        "hand": "right"
      },
      {
        "midi": 60,
        "time": 61.286,
        "duration": 0.643,
        "velocity": 1,
        "hand": "right"
      },
      {
        "midi": 62,
        "time": 61.929,
        "duration": 0.214,
        "velocity": 1,
        "hand": "right"
      },
      {
        "midi": 63,
        "time": 62.571,
        "duration": 0.429,
        "velocity": 1,
        "hand": "right"
      },
      {
        "midi": 63,
        "time": 63,
        "duration": 0.429,
        "velocity": 1,
        "hand": "right"
      },
      {
        "midi": 63,
        "time": 63.429,
        "duration": 0.429,
        "velocity": 1,
        "hand": "right"
      },
      {
        "midi": 62,
        "time": 63.857,
        "duration": 0.214,
        "velocity": 1,
        "hand": "right"
      },
      {
        "midi": 62,
        "time": 64.286,
        "duration": 0.857,
        "velocity": 1,
        "hand": "right"
      },
      {
        "midi": 60,
        "time": 64.929,
        "duration": 0.214,
        "velocity": 1,
        "hand": "right"
      },
      {
        "midi": 69,
        "time": 66.857,
        "duration": 1.714,
        "velocity": 1,
        "hand": "right"
      },
      {
        "midi": 67,
        "time": 68.143,
        "duration": 0.429,
        "velocity": 1,
        "hand": "right"
      },
      {
        "midi": 72,
        "time": 68.571,
        "duration": 1.714,
        "velocity": 1,
        "hand": "right"
      },
      {
        "midi": 63,
        "time": 69.857,
        "duration": 0.429,
        "velocity": 1,
        "hand": "right"
      },
      {
        "midi": 71,
        "time": 70.286,
        "duration": 1.286,
        "velocity": 1,
        "hand": "right"
      },
      {
        "midi": 72,
        "time": 71.571,
        "duration": 0.429,
        "velocity": 1,
        "hand": "right"
      },
      {
        "midi": 74,
        "time": 72,
        "duration": 0.429,
        "velocity": 1,
        "hand": "right"
      },
      {
        "midi": 69,
        "time": 72.429,
        "duration": 0.429,
        "velocity": 1,
        "hand": "right"
      },
      {
        "midi": 69,
        "time": 72.857,
        "duration": 0.429,
        "velocity": 1,
        "hand": "right"
      },
      {
        "midi": 69,
        "time": 73.286,
        "duration": 0.429,
        "velocity": 1,
        "hand": "right"
      },
      {
        "midi": 69,
        "time": 73.714,
        "duration": 0.429,
        "velocity": 1,
        "hand": "right"
      },
      {
        "midi": 67,
        "time": 74.143,
        "duration": 0.214,
        "velocity": 1,
        "hand": "right"
      },
      {
        "midi": 67,
        "time": 74.571,
        "duration": 1.071,
        "velocity": 1,
        "hand": "right"
      },
      {
        "midi": 64,
        "time": 75,
        "duration": 0.429,
        "velocity": 1,
        "hand": "right"
      },
      {
        "midi": 64,
        "time": 75.429,
        "duration": 0.429,
        "velocity": 1,
        "hand": "right"
      },
      {
        "midi": 70,
        "time": 75.857,
        "duration": 0.429,
        "velocity": 1,
        "hand": "right"
      },
      {
        "midi": 70,
        "time": 76.286,
        "duration": 0.429,
        "velocity": 1,
        "hand": "right"
      },
      {
        "midi": 70,
        "time": 76.714,
        "duration": 0.429,
        "velocity": 1,
        "hand": "right"
      },
      {
        "midi": 70,
        "time": 77.143,
        "duration": 0.429,
        "velocity": 1,
        "hand": "right"
      },
      {
        "midi": 69,
        "time": 77.571,
        "duration": 0.214,
        "velocity": 1,
        "hand": "right"
      },
      {
        "midi": 67,
        "time": 77.786,
        "duration": 0.214,
        "velocity": 1,
        "hand": "right"
      },
      {
        "midi": 60,
        "time": 78.429,
        "duration": 0.429,
        "velocity": 1,
        "hand": "right"
      },
      {
        "midi": 67,
        "time": 78.857,
        "duration": 0.214,
        "velocity": 1,
        "hand": "right"
      },
      {
        "midi": 70,
        "time": 79.286,
        "duration": 0.429,
        "velocity": 1,
        "hand": "right"
      },
      {
        "midi": 70,
        "time": 79.714,
        "duration": 0.429,
        "velocity": 1,
        "hand": "right"
      },
      {
        "midi": 70,
        "time": 80.143,
        "duration": 0.429,
        "velocity": 1,
        "hand": "right"
      },
      {
        "midi": 70,
        "time": 80.571,
        "duration": 0.429,
        "velocity": 1,
        "hand": "right"
      },
      {
        "midi": 64,
        "time": 80.786,
        "duration": 0.214,
        "velocity": 1,
        "hand": "right"
      },
      {
        "midi": 67,
        "time": 81.214,
        "duration": 0.214,
        "velocity": 1,
        "hand": "right"
      },
      {
        "midi": 69,
        "time": 81.429,
        "duration": 0.857,
        "velocity": 1,
        "hand": "right"
      },
      {
        "midi": 65,
        "time": 81.857,
        "duration": 0.429,
        "velocity": 1,
        "hand": "right"
      },
      {
        "midi": 65,
        "time": 82.286,
        "duration": 0.214,
        "velocity": 1,
        "hand": "right"
      },
      {
        "midi": 68,
        "time": 82.714,
        "duration": 0.429,
        "velocity": 1,
        "hand": "right"
      },
      {
        "midi": 68,
        "time": 83.143,
        "duration": 0.429,
        "velocity": 1,
        "hand": "right"
      },
      {
        "midi": 68,
        "time": 83.571,
        "duration": 0.429,
        "velocity": 1,
        "hand": "right"
      },
      {
        "midi": 68,
        "time": 84,
        "duration": 0.429,
        "velocity": 1,
        "hand": "right"
      },
      {
        "midi": 67,
        "time": 84.429,
        "duration": 0.214,
        "velocity": 1,
        "hand": "right"
      },
      {
        "midi": 67,
        "time": 84.857,
        "duration": 1.286,
        "velocity": 1,
        "hand": "right"
      },
      {
        "midi": 63,
        "time": 85.286,
        "duration": 0.429,
        "velocity": 1,
        "hand": "right"
      },
      {
        "midi": 62,
        "time": 85.714,
        "duration": 0.857,
        "velocity": 1,
        "hand": "right"
      },
      {
        "midi": 65,
        "time": 86.143,
        "duration": 0.214,
        "velocity": 1,
        "hand": "right"
      },
      {
        "midi": 65,
        "time": 86.571,
        "duration": 2.571,
        "velocity": 1,
        "hand": "right"
      },
      {
        "midi": 60,
        "time": 87.429,
        "duration": 0.857,
        "velocity": 1,
        "hand": "right"
      },
      {
        "midi": 60,
        "time": 88.286,
        "duration": 0.857,
        "velocity": 1,
        "hand": "right"
      },
      {
        "midi": 65,
        "time": 100.286,
        "duration": 0.857,
        "velocity": 1,
        "hand": "right"
      },
      {
        "midi": 63,
        "time": 101.143,
        "duration": 1.714,
        "velocity": 1,
        "hand": "right"
      },
      {
        "midi": 67,
        "time": 102.857,
        "duration": 1.714,
        "velocity": 1,
        "hand": "right"
      },
      {
        "midi": 60,
        "time": 104.143,
        "duration": 0.429,
        "velocity": 1,
        "hand": "right"
      },
      {
        "midi": 66,
        "time": 104.571,
        "duration": 1.714,
        "velocity": 1,
        "hand": "right"
      },
      {
        "midi": 63,
        "time": 105,
        "duration": 0.429,
        "velocity": 1,
        "hand": "right"
      },
      {
        "midi": 62,
        "time": 105.429,
        "duration": 0.429,
        "velocity": 1,
        "hand": "right"
      },
      {
        "midi": 60,
        "time": 105.857,
        "duration": 0.429,
        "velocity": 1,
        "hand": "right"
      },
      {
        "midi": 67,
        "time": 106.286,
        "duration": 0.857,
        "velocity": 1,
        "hand": "right"
      },
      {
        "midi": 70,
        "time": 107.143,
        "duration": 1.714,
        "velocity": 1,
        "hand": "right"
      },
      {
        "midi": 60,
        "time": 107.571,
        "duration": 0.429,
        "velocity": 1,
        "hand": "right"
      },
      {
        "midi": 62,
        "time": 108,
        "duration": 1.714,
        "velocity": 1,
        "hand": "right"
      },
      {
        "midi": 69,
        "time": 108.857,
        "duration": 0.857,
        "velocity": 1,
        "hand": "right"
      },
      {
        "midi": 72,
        "time": 109.714,
        "duration": 1.714,
        "velocity": 1,
        "hand": "right"
      },
      {
        "midi": 71,
        "time": 111.429,
        "duration": 1.071,
        "velocity": 1,
        "hand": "right"
      },
      {
        "midi": 67,
        "time": 112.5,
        "duration": 0.214,
        "velocity": 1,
        "hand": "right"
      },
      {
        "midi": 71,
        "time": 112.929,
        "duration": 0.214,
        "velocity": 1,
        "hand": "right"
      },
      {
        "midi": 72,
        "time": 113.571,
        "duration": 0.429,
        "velocity": 1,
        "hand": "right"
      },
      {
        "midi": 72,
        "time": 114,
        "duration": 0.429,
        "velocity": 1,
        "hand": "right"
      },
      {
        "midi": 72,
        "time": 114.429,
        "duration": 0.429,
        "velocity": 1,
        "hand": "right"
      },
      {
        "midi": 72,
        "time": 114.857,
        "duration": 0.429,
        "velocity": 1,
        "hand": "right"
      },
      {
        "midi": 70,
        "time": 115.286,
        "duration": 0.214,
        "velocity": 1,
        "hand": "right"
      },
      {
        "midi": 70,
        "time": 115.714,
        "duration": 1.286,
        "velocity": 1,
        "hand": "right"
      },
      {
        "midi": 65,
        "time": 116.143,
        "duration": 0.429,
        "velocity": 1,
        "hand": "right"
      },
      {
        "midi": 64,
        "time": 116.571,
        "duration": 0.857,
        "velocity": 1,
        "hand": "right"
      },
      {
        "midi": 69,
        "time": 117,
        "duration": 0.214,
        "velocity": 1,
        "hand": "right"
      },
      {
        "midi": 69,
        "time": 117.429,
        "duration": 1.286,
        "velocity": 1,
        "hand": "right"
      },
      {
        "midi": 60,
        "time": 117.857,
        "duration": 0.429,
        "velocity": 1,
        "hand": "right"
      },
      {
        "midi": 60,
        "time": 118.286,
        "duration": 0.429,
        "velocity": 1,
        "hand": "right"
      },
      {
        "midi": 67,
        "time": 118.714,
        "duration": 0.214,
        "velocity": 1,
        "hand": "right"
      },
      {
        "midi": 66,
        "time": 118.929,
        "duration": 0.214,
        "velocity": 1,
        "hand": "right"
      },
      {
        "midi": 62,
        "time": 119.571,
        "duration": 0.429,
        "velocity": 1,
        "hand": "right"
      },
      {
        "midi": 62,
        "time": 120,
        "duration": 1.286,
        "velocity": 1,
        "hand": "right"
      },
      {
        "midi": 66,
        "time": 120.429,
        "duration": 0.214,
        "velocity": 1,
        "hand": "right"
      },
      {
        "midi": 66,
        "time": 120.857,
        "duration": 0.857,
        "velocity": 1,
        "hand": "right"
      },
      {
        "midi": 60,
        "time": 121.286,
        "duration": 0.429,
        "velocity": 1,
        "hand": "right"
      },
      {
        "midi": 67,
        "time": 121.714,
        "duration": 1.714,
        "velocity": 1,
        "hand": "right"
      }
    ],
    "medium": [
      {
        "midi": 58,
        "time": 0,
        "duration": 1.714,
        "velocity": 1,
        "hand": "left"
      },
      {
        "midi": 55,
        "time": 0.429,
        "duration": 0.429,
        "velocity": 1,
        "hand": "left"
      },
      {
        "midi": 55,
        "time": 0.857,
        "duration": 0.429,
        "velocity": 1,
        "hand": "left"
      },
      {
        "midi": 55,
        "time": 1.286,
        "duration": 0.429,
        "velocity": 1,
        "hand": "left"
      },
      {
        "midi": 55,
        "time": 1.714,
        "duration": 0.429,
        "velocity": 1,
        "hand": "left"
      },
      {
        "midi": 57,
        "time": 1.714,
        "duration": 1.714,
        "velocity": 1,
        "hand": "left"
      },
      {
        "midi": 53,
        "time": 2.143,
        "duration": 0.214,
        "velocity": 1,
        "hand": "left"
      },
      {
        "midi": 52,
        "time": 2.357,
        "duration": 0.214,
        "velocity": 1,
        "hand": "left"
      },
      {
        "midi": 53,
        "time": 2.571,
        "duration": 1.071,
        "velocity": 1,
        "hand": "left"
      },
      {
        "midi": 60,
        "time": 3.429,
        "duration": 1.714,
        "velocity": 1,
        "hand": "right"
      },
      {
        "midi": 55,
        "time": 3.643,
        "duration": 0.214,
        "velocity": 1,
        "hand": "left"
      },
      {
        "midi": 56,
        "time": 3.857,
        "duration": 0.429,
        "velocity": 1,
        "hand": "left"
      },
      {
        "midi": 56,
        "time": 4.286,
        "duration": 0.429,
        "velocity": 1,
        "hand": "left"
      },
      {
        "midi": 56,
        "time": 4.714,
        "duration": 0.429,
        "velocity": 1,
        "hand": "left"
      },
      {
        "midi": 56,
        "time": 5.143,
        "duration": 0.429,
        "velocity": 1,
        "hand": "left"
      },
      {
        "midi": 59,
        "time": 5.143,
        "duration": 1.286,
        "velocity": 1,
        "hand": "left"
      },
      {
        "midi": 55,
        "time": 5.571,
        "duration": 0.214,
        "velocity": 1,
        "hand": "left"
      },
      {
        "midi": 53,
        "time": 5.786,
        "duration": 0.214,
        "velocity": 1,
        "hand": "left"
      },
      {
        "midi": 55,
        "time": 6,
        "duration": 1.286,
        "velocity": 1,
        "hand": "left"
      },
      {
        "midi": 60,
        "time": 6.429,
        "duration": 0.429,
        "velocity": 1,
        "hand": "right"
      },
      {
        "midi": 62,
        "time": 6.857,
        "duration": 0.429,
        "velocity": 1,
        "hand": "right"
      },
      {
        "midi": 53,
        "time": 7.286,
        "duration": 0.214,
        "velocity": 1,
        "hand": "left"
      },
      {
        "midi": 57,
        "time": 7.286,
        "duration": 0.429,
        "velocity": 1,
        "hand": "left"
      },
      {
        "midi": 52,
        "time": 7.5,
        "duration": 0.214,
        "velocity": 1,
        "hand": "left"
      },
      {
        "midi": 50,
        "time": 7.714,
        "duration": 0.857,
        "velocity": 1,
        "hand": "left"
      },
      {
        "midi": 57,
        "time": 7.714,
        "duration": 0.429,
        "velocity": 1,
        "hand": "left"
      },
      {
        "midi": 65,
        "time": 7.714,
        "duration": 0.857,
        "velocity": 1,
        "hand": "right"
      },
      {
        "midi": 57,
        "time": 8.143,
        "duration": 0.429,
        "velocity": 1,
        "hand": "left"
      },
      {
        "midi": 57,
        "time": 8.571,
        "duration": 0.429,
        "velocity": 1,
        "hand": "left"
      },
      {
        "midi": 64,
        "time": 8.571,
        "duration": 1.714,
        "velocity": 1,
        "hand": "right"
      },
      {
        "midi": 52,
        "time": 9,
        "duration": 0.429,
        "velocity": 1,
        "hand": "left"
      },
      {
        "midi": 55,
        "time": 9,
        "duration": 0.214,
        "velocity": 1,
        "hand": "left"
      },
      {
        "midi": 54,
        "time": 9.214,
        "duration": 0.214,
        "velocity": 1,
        "hand": "left"
      },
      {
        "midi": 52,
        "time": 9.429,
        "duration": 0.429,
        "velocity": 1,
        "hand": "left"
      },
      {
        "midi": 55,
        "time": 9.429,
        "duration": 1.071,
        "velocity": 1,
        "hand": "left"
      },
      {
        "midi": 52,
        "time": 9.857,
        "duration": 0.429,
        "velocity": 1,
        "hand": "left"
      },
      {
        "midi": 52,
        "time": 10.286,
        "duration": 0.429,
        "velocity": 1,
        "hand": "left"
      },
      {
        "midi": 67,
        "time": 10.286,
        "duration": 1.714,
        "velocity": 1,
        "hand": "right"
      },
      {
        "midi": 57,
        "time": 10.5,
        "duration": 0.214,
        "velocity": 1,
        "hand": "left"
      },
      {
        "midi": 50,
        "time": 10.714,
        "duration": 0.214,
        "velocity": 1,
        "hand": "left"
      },
      {
        "midi": 58,
        "time": 10.714,
        "duration": 0.429,
        "velocity": 1,
        "hand": "left"
      },
      {
        "midi": 49,
        "time": 10.929,
        "duration": 0.214,
        "velocity": 1,
        "hand": "left"
      },
      {
        "midi": 50,
        "time": 11.143,
        "duration": 1.929,
        "velocity": 1,
        "hand": "left"
      },
      {
        "midi": 58,
        "time": 11.143,
        "duration": 0.429,
        "velocity": 1,
        "hand": "left"
      },
      {
        "midi": 58,
        "time": 11.571,
        "duration": 0.429,
        "velocity": 1,
        "hand": "left"
      },
      {
        "midi": 58,
        "time": 12,
        "duration": 0.429,
        "velocity": 1,
        "hand": "left"
      },
      {
        "midi": 66,
        "time": 12,
        "duration": 1.714,
        "velocity": 1,
        "hand": "right"
      },
      {
        "midi": 57,
        "time": 12.429,
        "duration": 0.214,
        "velocity": 1,
        "hand": "left"
      },
      {
        "midi": 55,
        "time": 12.643,
        "duration": 0.214,
        "velocity": 1,
        "hand": "left"
      },
      {
        "midi": 57,
        "time": 12.857,
        "duration": 0.857,
        "velocity": 1,
        "hand": "left"
      },
      {
        "midi": 48,
        "time": 13.071,
        "duration": 0.214,
        "velocity": 1,
        "hand": "left"
      },
      {
        "midi": 46,
        "time": 13.286,
        "duration": 0.214,
        "velocity": 1,
        "hand": "left"
      },
      {
        "midi": 45,
        "time": 13.5,
        "duration": 0.214,
        "velocity": 1,
        "hand": "left"
      },
      {
        "midi": 43,
        "time": 13.714,
        "duration": 1.071,
        "velocity": 1,
        "hand": "left"
      },
      {
        "midi": 62,
        "time": 13.714,
        "duration": 2.571,
        "velocity": 1,
        "hand": "right"
      },
      {
        "midi": 70,
        "time": 13.714,
        "duration": 1.714,
        "velocity": 1,
        "hand": "right"
      },
      {
        "midi": 67,
        "time": 14.143,
        "duration": 0.429,
        "velocity": 1,
        "hand": "right"
      },
      {
        "midi": 67,
        "time": 14.571,
        "duration": 0.429,
        "velocity": 1,
        "hand": "right"
      },
      {
        "midi": 45,
        "time": 14.786,
        "duration": 0.214,
        "velocity": 1,
        "hand": "left"
      },
      {
        "midi": 46,
        "time": 15,
        "duration": 0.214,
        "velocity": 1,
        "hand": "left"
      },
      {
        "midi": 67,
        "time": 15,
        "duration": 0.429,
        "velocity": 1,
        "hand": "right"
      },
      {
        "midi": 48,
        "time": 15.214,
        "duration": 0.214,
        "velocity": 1,
        "hand": "left"
      },
      {
        "midi": 50,
        "time": 15.429,
        "duration": 0.429,
        "velocity": 1,
        "hand": "left"
      },
      {
        "midi": 67,
        "time": 15.429,
        "duration": 0.429,
        "velocity": 1,
        "hand": "right"
      },
      {
        "midi": 69,
        "time": 15.429,
        "duration": 1.714,
        "velocity": 1,
        "hand": "right"
      },
      {
        "midi": 50,
        "time": 15.857,
        "duration": 0.429,
        "velocity": 1,
        "hand": "left"
      },
      {
        "midi": 65,
        "time": 15.857,
        "duration": 0.214,
        "velocity": 1,
        "hand": "right"
      },
      {
        "midi": 64,
        "time": 16.071,
        "duration": 0.214,
        "velocity": 1,
        "hand": "right"
      },
      {
        "midi": 50,
        "time": 16.286,
        "duration": 0.429,
        "velocity": 1,
        "hand": "left"
      },
      {
        "midi": 65,
        "time": 16.286,
        "duration": 1.071,
        "velocity": 1,
        "hand": "right"
      },
      {
        "midi": 52,
        "time": 16.5,
        "duration": 0.214,
        "velocity": 1,
        "hand": "left"
      },
      {
        "midi": 50,
        "time": 16.714,
        "duration": 0.429,
        "velocity": 1,
        "hand": "left"
      },
      {
        "midi": 53,
        "time": 16.714,
        "duration": 0.214,
        "velocity": 1,
        "hand": "left"
      },
      {
        "midi": 55,
        "time": 16.929,
        "duration": 0.214,
        "velocity": 1,
        "hand": "left"
      },
      {
        "midi": 48,
        "time": 17.143,
        "duration": 0.429,
        "velocity": 1,
        "hand": "left"
      },
      {
        "midi": 56,
        "time": 17.143,
        "duration": 0.857,
        "velocity": 1,
        "hand": "left"
      },
      {
        "midi": 72,
        "time": 17.143,
        "duration": 1.714,
        "velocity": 1,
        "hand": "right"
      },
      {
        "midi": 67,
        "time": 17.357,
        "duration": 0.214,
        "velocity": 1,
        "hand": "right"
      },
      {
        "midi": 48,
        "time": 17.571,
        "duration": 0.214,
        "velocity": 1,
        "hand": "left"
      },
      {
        "midi": 68,
        "time": 17.571,
        "duration": 0.429,
        "velocity": 1,
        "hand": "right"
      },
      {
        "midi": 47,
        "time": 17.786,
        "duration": 0.214,
        "velocity": 1,
        "hand": "left"
      },
      {
        "midi": 48,
        "time": 18,
        "duration": 0.214,
        "velocity": 1,
        "hand": "left"
      },
      {
        "midi": 65,
        "time": 18,
        "duration": 0.429,
        "velocity": 1,
        "hand": "right"
      },
      {
        "midi": 68,
        "time": 18,
        "duration": 0.429,
        "velocity": 1,
        "hand": "right"
      },
      {
        "midi": 50,
        "time": 18.214,
        "duration": 0.214,
        "velocity": 1,
        "hand": "left"
      },
      {
        "midi": 51,
        "time": 18.429,
        "duration": 0.214,
        "velocity": 1,
        "hand": "left"
      },
      {
        "midi": 63,
        "time": 18.429,
        "duration": 0.429,
        "velocity": 1,
        "hand": "right"
      },
      {
        "midi": 68,
        "time": 18.429,
        "duration": 0.429,
        "velocity": 1,
        "hand": "right"
      },
      {
        "midi": 53,
        "time": 18.643,
        "duration": 0.214,
        "velocity": 1,
        "hand": "left"
      },
      {
        "midi": 55,
        "time": 18.857,
        "duration": 1.714,
        "velocity": 1,
        "hand": "left"
      },
      {
        "midi": 68,
        "time": 18.857,
        "duration": 0.429,
        "velocity": 1,
        "hand": "right"
      },
      {
        "midi": 71,
        "time": 18.857,
        "duration": 1.286,
        "velocity": 1,
        "hand": "right"
      },
      {
        "midi": 67,
        "time": 19.286,
        "duration": 0.214,
        "velocity": 1,
        "hand": "right"
      },
      {
        "midi": 65,
        "time": 19.5,
        "duration": 0.214,
        "velocity": 1,
        "hand": "right"
      },
      {
        "midi": 67,
        "time": 19.714,
        "duration": 1.286,
        "velocity": 1,
        "hand": "right"
      },
      {
        "midi": 72,
        "time": 20.143,
        "duration": 0.429,
        "velocity": 1,
        "hand": "right"
      },
      {
        "midi": 62,
        "time": 20.571,
        "duration": 0.857,
        "velocity": 1,
        "hand": "right"
      },
      {
        "midi": 74,
        "time": 20.571,
        "duration": 0.429,
        "velocity": 1,
        "hand": "right"
      },
      {
        "midi": 65,
        "time": 21,
        "duration": 0.214,
        "velocity": 1,
        "hand": "right"
      },
      {
        "midi": 69,
        "time": 21,
        "duration": 0.429,
        "velocity": 1,
        "hand": "right"
      },
      {
        "midi": 64,
        "time": 21.214,
        "duration": 0.214,
        "velocity": 1,
        "hand": "right"
      },
      {
        "midi": 53,
        "time": 21.429,
        "duration": 0.857,
        "velocity": 1,
        "hand": "left"
      },
      {
        "midi": 62,
        "time": 21.429,
        "duration": 0.857,
        "velocity": 1,
        "hand": "right"
      },
      {
        "midi": 69,
        "time": 21.429,
        "duration": 0.429,
        "velocity": 1,
        "hand": "right"
      },
      {
        "midi": 59,
        "time": 21.857,
        "duration": 0.429,
        "velocity": 1,
        "hand": "left"
      },
      {
        "midi": 69,
        "time": 21.857,
        "duration": 0.429,
        "velocity": 1,
        "hand": "right"
      },
      {
        "midi": 52,
        "time": 22.286,
        "duration": 1.714,
        "velocity": 1,
        "hand": "left"
      },
      {
        "midi": 60,
        "time": 22.286,
        "duration": 1.714,
        "velocity": 1,
        "hand": "right"
      },
      {
        "midi": 69,
        "time": 22.286,
        "duration": 0.429,
        "velocity": 1,
        "hand": "right"
      },
      {
        "midi": 64,
        "time": 22.714,
        "duration": 0.429,
        "velocity": 1,
        "hand": "right"
      },
      {
        "midi": 67,
        "time": 22.714,
        "duration": 0.214,
        "velocity": 1,
        "hand": "right"
      },
      {
        "midi": 66,
        "time": 22.929,
        "duration": 0.214,
        "velocity": 1,
        "hand": "right"
      },
      {
        "midi": 64,
        "time": 23.143,
        "duration": 0.429,
        "velocity": 1,
        "hand": "right"
      },
      {
        "midi": 67,
        "time": 23.143,
        "duration": 1.071,
        "velocity": 1,
        "hand": "right"
      },
      {
        "midi": 64,
        "time": 23.571,
        "duration": 0.429,
        "velocity": 1,
        "hand": "right"
      },
      {
        "midi": 55,
        "time": 24,
        "duration": 1.714,
        "velocity": 1,
        "hand": "left"
      },
      {
        "midi": 58,
        "time": 24,
        "duration": 1.286,
        "velocity": 1,
        "hand": "left"
      },
      {
        "midi": 64,
        "time": 24,
        "duration": 0.429,
        "velocity": 1,
        "hand": "right"
      },
      {
        "midi": 69,
        "time": 24.214,
        "duration": 0.214,
        "velocity": 1,
        "hand": "right"
      },
      {
        "midi": 62,
        "time": 24.429,
        "duration": 0.214,
        "velocity": 1,
        "hand": "right"
      },
      {
        "midi": 70,
        "time": 24.429,
        "duration": 0.429,
        "velocity": 1,
        "hand": "right"
      },
      {
        "midi": 61,
        "time": 24.643,
        "duration": 0.214,
        "velocity": 1,
        "hand": "right"
      },
      {
        "midi": 62,
        "time": 24.857,
        "duration": 0.429,
        "velocity": 1,
        "hand": "right"
      },
      {
        "midi": 70,
        "time": 24.857,
        "duration": 0.429,
        "velocity": 1,
        "hand": "right"
      },
      {
        "midi": 61,
        "time": 25.286,
        "duration": 0.429,
        "velocity": 1,
        "hand": "right"
      },
      {
        "midi": 70,
        "time": 25.286,
        "duration": 0.429,
        "velocity": 1,
        "hand": "right"
      },
      {
        "midi": 54,
        "time": 25.714,
        "duration": 1.714,
        "velocity": 1,
        "hand": "left"
      },
      {
        "midi": 62,
        "time": 25.714,
        "duration": 1.286,
        "velocity": 1,
        "hand": "right"
      },
      {
        "midi": 70,
        "time": 25.714,
        "duration": 0.429,
        "velocity": 1,
        "hand": "right"
      },
      {
        "midi": 69,
        "time": 26.143,
        "duration": 0.214,
        "velocity": 1,
        "hand": "right"
      },
      {
        "midi": 67,
        "time": 26.357,
        "duration": 0.214,
        "velocity": 1,
        "hand": "right"
      },
      {
        "midi": 69,
        "time": 26.571,
        "duration": 0.857,
        "velocity": 1,
        "hand": "right"
      },
      {
        "midi": 60,
        "time": 27,
        "duration": 0.429,
        "velocity": 1,
        "hand": "right"
      },
      {
        "midi": 55,
        "time": 27.429,
        "duration": 1.714,
        "velocity": 1,
        "hand": "left"
      },
      {
        "midi": 58,
        "time": 27.429,
        "duration": 0.857,
        "velocity": 1,
        "hand": "left"
      },
      {
        "midi": 70,
        "time": 27.429,
        "duration": 1.714,
        "velocity": 1,
        "hand": "right"
      },
      {
        "midi": 67,
        "time": 27.857,
        "duration": 0.429,
        "velocity": 1,
        "hand": "right"
      },
      {
        "midi": 67,
        "time": 28.286,
        "duration": 0.429,
        "velocity": 1,
        "hand": "right"
      },
      {
        "midi": 57,
        "time": 28.5,
        "duration": 0.214,
        "velocity": 1,
        "hand": "left"
      },
      {
        "midi": 58,
        "time": 28.714,
        "duration": 0.214,
        "velocity": 1,
        "hand": "left"
      },
      {
        "midi": 67,
        "time": 28.714,
        "duration": 0.429,
        "velocity": 1,
        "hand": "right"
      },
      {
        "midi": 60,
        "time": 28.929,
        "duration": 0.214,
        "velocity": 1,
        "hand": "right"
      },
      {
        "midi": 50,
        "time": 29.143,
        "duration": 1.286,
        "velocity": 1,
        "hand": "left"
      },
      {
        "midi": 67,
        "time": 29.143,
        "duration": 0.429,
        "velocity": 1,
        "hand": "right"
      },
      {
        "midi": 69,
        "time": 29.143,
        "duration": 1.714,
        "velocity": 1,
        "hand": "right"
      },
      {
        "midi": 62,
        "time": 29.571,
        "duration": 0.429,
        "velocity": 1,
        "hand": "right"
      },
      {
        "midi": 65,
        "time": 29.571,
        "duration": 0.214,
        "velocity": 1,
        "hand": "right"
      },
      {
        "midi": 64,
        "time": 29.786,
        "duration": 0.214,
        "velocity": 1,
        "hand": "right"
      },
      {
        "midi": 62,
        "time": 30,
        "duration": 0.429,
        "velocity": 1,
        "hand": "right"
      },
      {
        "midi": 65,
        "time": 30,
        "duration": 1.071,
        "velocity": 1,
        "hand": "right"
      },
      {
        "midi": 52,
        "time": 30.429,
        "duration": 0.429,
        "velocity": 1,
        "hand": "left"
      },
      {
        "midi": 62,
        "time": 30.429,
        "duration": 0.429,
        "velocity": 1,
        "hand": "right"
      },
      {
        "midi": 53,
        "time": 30.857,
        "duration": 1.286,
        "velocity": 1,
        "hand": "left"
      },
      {
        "midi": 62,
        "time": 30.857,
        "duration": 0.429,
        "velocity": 1,
        "hand": "right"
      },
      {
        "midi": 67,
        "time": 31.071,
        "duration": 0.214,
        "velocity": 1,
        "hand": "right"
      },
      {
        "midi": 60,
        "time": 31.286,
        "duration": 0.214,
        "velocity": 1,
        "hand": "right"
      },
      {
        "midi": 68,
        "time": 31.286,
        "duration": 0.429,
        "velocity": 1,
        "hand": "right"
      },
      {
        "midi": 59,
        "time": 31.5,
        "duration": 0.214,
        "velocity": 1,
        "hand": "left"
      },
      {
        "midi": 60,
        "time": 31.714,
        "duration": 1.071,
        "velocity": 1,
        "hand": "right"
      },
      {
        "midi": 68,
        "time": 31.714,
        "duration": 0.429,
        "velocity": 1,
        "hand": "right"
      },
      {
        "midi": 51,
        "time": 32.143,
        "duration": 0.214,
        "velocity": 1,
        "hand": "left"
      },
      {
        "midi": 68,
        "time": 32.143,
        "duration": 0.429,
        "velocity": 1,
        "hand": "right"
      },
      {
        "midi": 50,
        "time": 32.357,
        "duration": 0.214,
        "velocity": 1,
        "hand": "left"
      },
      {
        "midi": 48,
        "time": 32.571,
        "duration": 0.857,
        "velocity": 1,
        "hand": "left"
      },
      {
        "midi": 68,
        "time": 32.571,
        "duration": 0.429,
        "velocity": 1,
        "hand": "right"
      },
      {
        "midi": 76,
        "time": 32.571,
        "duration": 0.429,
        "velocity": 1,
        "hand": "right"
      },
      {
        "midi": 62,
        "time": 32.786,
        "duration": 0.214,
        "velocity": 1,
        "hand": "right"
      },
      {
        "midi": 63,
        "time": 33,
        "duration": 0.429,
        "velocity": 1,
        "hand": "right"
      },
      {
        "midi": 67,
        "time": 33,
        "duration": 0.214,
        "velocity": 1,
        "hand": "right"
      },
      {
        "midi": 72,
        "time": 33,
        "duration": 0.429,
        "velocity": 1,
        "hand": "right"
      },
      {
        "midi": 65,
        "time": 33.214,
        "duration": 0.214,
        "velocity": 1,
        "hand": "right"
      },
      {
        "midi": 63,
        "time": 33.429,
        "duration": 0.429,
        "velocity": 1,
        "hand": "right"
      },
      {
        "midi": 67,
        "time": 33.429,
        "duration": 0.857,
        "velocity": 1,
        "hand": "right"
      },
      {
        "midi": 72,
        "time": 33.429,
        "duration": 0.429,
        "velocity": 1,
        "hand": "right"
      },
      {
        "midi": 63,
        "time": 33.857,
        "duration": 0.429,
        "velocity": 1,
        "hand": "right"
      },
      {
        "midi": 72,
        "time": 33.857,
        "duration": 0.429,
        "velocity": 1,
        "hand": "right"
      },
      {
        "midi": 63,
        "time": 34.286,
        "duration": 0.429,
        "velocity": 1,
        "hand": "right"
      },
      {
        "midi": 67,
        "time": 34.286,
        "duration": 1.714,
        "velocity": 1,
        "hand": "right"
      },
      {
        "midi": 72,
        "time": 34.286,
        "duration": 0.429,
        "velocity": 1,
        "hand": "right"
      },
      {
        "midi": 55,
        "time": 34.714,
        "duration": 0.429,
        "velocity": 1,
        "hand": "left"
      },
      {
        "midi": 62,
        "time": 34.714,
        "duration": 0.214,
        "velocity": 1,
        "hand": "right"
      },
      {
        "midi": 70,
        "time": 34.714,
        "duration": 0.214,
        "velocity": 1,
        "hand": "right"
      },
      {
        "midi": 60,
        "time": 34.929,
        "duration": 0.214,
        "velocity": 1,
        "hand": "right"
      },
      {
        "midi": 69,
        "time": 34.929,
        "duration": 0.214,
        "velocity": 1,
        "hand": "right"
      },
      {
        "midi": 55,
        "time": 35.143,
        "duration": 0.429,
        "velocity": 1,
        "hand": "left"
      },
      {
        "midi": 62,
        "time": 35.143,
        "duration": 0.857,
        "velocity": 1,
        "hand": "right"
      },
      {
        "midi": 70,
        "time": 35.143,
        "duration": 2.143,
        "velocity": 1,
        "hand": "right"
      },
      {
        "midi": 55,
        "time": 35.571,
        "duration": 0.429,
        "velocity": 1,
        "hand": "left"
      },
      {
        "midi": 55,
        "time": 36,
        "duration": 0.429,
        "velocity": 1,
        "hand": "left"
      },
      {
        "midi": 58,
        "time": 36,
        "duration": 1.071,
        "velocity": 1,
        "hand": "left"
      },
      {
        "midi": 72,
        "time": 36.214,
        "duration": 0.214,
        "velocity": 1,
        "hand": "right"
      },
      {
        "midi": 53,
        "time": 36.429,
        "duration": 0.214,
        "velocity": 1,
        "hand": "left"
      },
      {
        "midi": 73,
        "time": 36.429,
        "duration": 0.429,
        "velocity": 1,
        "hand": "right"
      },
      {
        "midi": 52,
        "time": 36.643,
        "duration": 0.214,
        "velocity": 1,
        "hand": "left"
      },
      {
        "midi": 53,
        "time": 36.857,
        "duration": 1.071,
        "velocity": 1,
        "hand": "left"
      },
      {
        "midi": 73,
        "time": 36.857,
        "duration": 0.429,
        "velocity": 1,
        "hand": "right"
      },
      {
        "midi": 60,
        "time": 37.071,
        "duration": 0.214,
        "velocity": 1,
        "hand": "right"
      },
      {
        "midi": 61,
        "time": 37.286,
        "duration": 0.214,
        "velocity": 1,
        "hand": "right"
      },
      {
        "midi": 68,
        "time": 37.286,
        "duration": 0.214,
        "velocity": 1,
        "hand": "right"
      },
      {
        "midi": 73,
        "time": 37.286,
        "duration": 0.429,
        "velocity": 1,
        "hand": "right"
      },
      {
        "midi": 63,
        "time": 37.5,
        "duration": 0.214,
        "velocity": 1,
        "hand": "right"
      },
      {
        "midi": 67,
        "time": 37.5,
        "duration": 0.214,
        "velocity": 1,
        "hand": "right"
      },
      {
        "midi": 65,
        "time": 37.714,
        "duration": 0.857,
        "velocity": 1,
        "hand": "right"
      },
      {
        "midi": 68,
        "time": 37.714,
        "duration": 0.857,
        "velocity": 1,
        "hand": "right"
      },
      {
        "midi": 73,
        "time": 37.714,
        "duration": 0.429,
        "velocity": 1,
        "hand": "right"
      },
      {
        "midi": 55,
        "time": 37.929,
        "duration": 0.214,
        "velocity": 1,
        "hand": "left"
      },
      {
        "midi": 56,
        "time": 38.143,
        "duration": 0.429,
        "velocity": 1,
        "hand": "left"
      },
      {
        "midi": 72,
        "time": 38.143,
        "duration": 0.214,
        "velocity": 1,
        "hand": "right"
      },
      {
        "midi": 70,
        "time": 38.357,
        "duration": 0.214,
        "velocity": 1,
        "hand": "right"
      },
      {
        "midi": 56,
        "time": 38.571,
        "duration": 0.429,
        "velocity": 1,
        "hand": "left"
      },
      {
        "midi": 65,
        "time": 38.571,
        "duration": 0.429,
        "velocity": 1,
        "hand": "right"
      },
      {
        "midi": 72,
        "time": 38.571,
        "duration": 1.714,
        "velocity": 1,
        "hand": "right"
      },
      {
        "midi": 56,
        "time": 39,
        "duration": 0.429,
        "velocity": 1,
        "hand": "left"
      },
      {
        "midi": 63,
        "time": 39,
        "duration": 0.429,
        "velocity": 1,
        "hand": "right"
      },
      {
        "midi": 56,
        "time": 39.429,
        "duration": 0.429,
        "velocity": 1,
        "hand": "left"
      },
      {
        "midi": 62,
        "time": 39.429,
        "duration": 2.143,
        "velocity": 1,
        "hand": "right"
      },
      {
        "midi": 55,
        "time": 39.857,
        "duration": 0.214,
        "velocity": 1,
        "hand": "left"
      },
      {
        "midi": 54,
        "time": 40.071,
        "duration": 0.214,
        "velocity": 1,
        "hand": "left"
      },
      {
        "midi": 55,
        "time": 40.286,
        "duration": 1.286,
        "velocity": 1,
        "hand": "left"
      },
      {
        "midi": 71,
        "time": 40.286,
        "duration": 0.857,
        "velocity": 1,
        "hand": "right"
      },
      {
        "midi": 62,
        "time": 40.5,
        "duration": 0.214,
        "velocity": 1,
        "hand": "right"
      },
      {
        "midi": 64,
        "time": 40.714,
        "duration": 0.214,
        "velocity": 1,
        "hand": "right"
      },
      {
        "midi": 66,
        "time": 40.929,
        "duration": 0.214,
        "velocity": 1,
        "hand": "right"
      },
      {
        "midi": 67,
        "time": 41.143,
        "duration": 1.714,
        "velocity": 1,
        "hand": "right"
      },
      {
        "midi": 70,
        "time": 41.143,
        "duration": 0.429,
        "velocity": 1,
        "hand": "right"
      },
      {
        "midi": 53,
        "time": 41.571,
        "duration": 0.429,
        "velocity": 1,
        "hand": "left"
      },
      {
        "midi": 61,
        "time": 41.571,
        "duration": 0.429,
        "velocity": 1,
        "hand": "right"
      },
      {
        "midi": 70,
        "time": 41.571,
        "duration": 0.429,
        "velocity": 1,
        "hand": "right"
      },
      {
        "midi": 52,
        "time": 42,
        "duration": 0.857,
        "velocity": 1,
        "hand": "left"
      },
      {
        "midi": 60,
        "time": 42,
        "duration": 1.714,
        "velocity": 1,
        "hand": "right"
      },
      {
        "midi": 70,
        "time": 42,
        "duration": 0.429,
        "velocity": 1,
        "hand": "right"
      },
      {
        "midi": 70,
        "time": 42.429,
        "duration": 0.429,
        "velocity": 1,
        "hand": "right"
      },
      {
        "midi": 53,
        "time": 42.857,
        "duration": 1.286,
        "velocity": 1,
        "hand": "left"
      },
      {
        "midi": 65,
        "time": 42.857,
        "duration": 0.857,
        "velocity": 1,
        "hand": "right"
      },
      {
        "midi": 70,
        "time": 42.857,
        "duration": 0.429,
        "velocity": 1,
        "hand": "right"
      },
      {
        "midi": 69,
        "time": 43.286,
        "duration": 0.214,
        "velocity": 1,
        "hand": "right"
      },
      {
        "midi": 67,
        "time": 43.5,
        "duration": 0.214,
        "velocity": 1,
        "hand": "right"
      },
      {
        "midi": 69,
        "time": 43.714,
        "duration": 0.857,
        "velocity": 1,
        "hand": "right"
      },
      {
        "midi": 52,
        "time": 44.143,
        "duration": 0.429,
        "velocity": 1,
        "hand": "left"
      },
      {
        "midi": 50,
        "time": 44.571,
        "duration": 1.071,
        "velocity": 1,
        "hand": "left"
      },
      {
        "midi": 65,
        "time": 44.571,
        "duration": 1.714,
        "velocity": 1,
        "hand": "right"
      },
      {
        "midi": 69,
        "time": 44.571,
        "duration": 3,
        "velocity": 1,
        "hand": "right"
      },
      {
        "midi": 62,
        "time": 45,
        "duration": 0.429,
        "velocity": 1,
        "hand": "right"
      },
      {
        "midi": 62,
        "time": 45.429,
        "duration": 0.429,
        "velocity": 1,
        "hand": "right"
      },
      {
        "midi": 52,
        "time": 45.643,
        "duration": 0.214,
        "velocity": 1,
        "hand": "left"
      },
      {
        "midi": 53,
        "time": 45.857,
        "duration": 0.214,
        "velocity": 1,
        "hand": "left"
      },
      {
        "midi": 62,
        "time": 45.857,
        "duration": 0.429,
        "velocity": 1,
        "hand": "right"
      },
      {
        "midi": 55,
        "time": 46.071,
        "duration": 0.214,
        "velocity": 1,
        "hand": "left"
      },
      {
        "midi": 57,
        "time": 46.286,
        "duration": 0.429,
        "velocity": 1,
        "hand": "left"
      },
      {
        "midi": 62,
        "time": 46.286,
        "duration": 0.429,
        "velocity": 1,
        "hand": "right"
      },
      {
        "midi": 64,
        "time": 46.286,
        "duration": 1.714,
        "velocity": 1,
        "hand": "right"
      },
      {
        "midi": 45,
        "time": 46.714,
        "duration": 0.429,
        "velocity": 1,
        "hand": "left"
      },
      {
        "midi": 60,
        "time": 46.714,
        "duration": 0.214,
        "velocity": 1,
        "hand": "right"
      },
      {
        "midi": 59,
        "time": 46.929,
        "duration": 0.214,
        "velocity": 1,
        "hand": "left"
      },
      {
        "midi": 45,
        "time": 47.143,
        "duration": 0.429,
        "velocity": 1,
        "hand": "left"
      },
      {
        "midi": 60,
        "time": 47.143,
        "duration": 1.071,
        "velocity": 1,
        "hand": "right"
      },
      {
        "midi": 45,
        "time": 47.571,
        "duration": 0.429,
        "velocity": 1,
        "hand": "left"
      },
      {
        "midi": 71,
        "time": 47.571,
        "duration": 0.429,
        "velocity": 1,
        "hand": "right"
      },
      {
        "midi": 43,
        "time": 48,
        "duration": 0.429,
        "velocity": 1,
        "hand": "left"
      },
      {
        "midi": 67,
        "time": 48,
        "duration": 1.714,
        "velocity": 1,
        "hand": "right"
      },
      {
        "midi": 72,
        "time": 48,
        "duration": 1.714,
        "velocity": 1,
        "hand": "right"
      },
      {
        "midi": 62,
        "time": 48.214,
        "duration": 0.214,
        "velocity": 1,
        "hand": "right"
      },
      {
        "midi": 43,
        "time": 48.429,
        "duration": 0.214,
        "velocity": 1,
        "hand": "left"
      },
      {
        "midi": 63,
        "time": 48.429,
        "duration": 0.429,
        "velocity": 1,
        "hand": "right"
      },
      {
        "midi": 42,
        "time": 48.643,
        "duration": 0.214,
        "velocity": 1,
        "hand": "left"
      },
      {
        "midi": 43,
        "time": 48.857,
        "duration": 0.214,
        "velocity": 1,
        "hand": "left"
      },
      {
        "midi": 63,
        "time": 48.857,
        "duration": 0.429,
        "velocity": 1,
        "hand": "right"
      },
      {
        "midi": 45,
        "time": 49.071,
        "duration": 0.214,
        "velocity": 1,
        "hand": "left"
      },
      {
        "midi": 46,
        "time": 49.286,
        "duration": 0.214,
        "velocity": 1,
        "hand": "left"
      },
      {
        "midi": 63,
        "time": 49.286,
        "duration": 0.429,
        "velocity": 1,
        "hand": "right"
      },
      {
        "midi": 48,
        "time": 49.5,
        "duration": 0.214,
        "velocity": 1,
        "hand": "left"
      },
      {
        "midi": 50,
        "time": 49.714,
        "duration": 0.857,
        "velocity": 1,
        "hand": "left"
      },
      {
        "midi": 63,
        "time": 49.714,
        "duration": 0.429,
        "velocity": 1,
        "hand": "right"
      },
      {
        "midi": 66,
        "time": 49.714,
        "duration": 1.714,
        "velocity": 1,
        "hand": "right"
      },
      {
        "midi": 62,
        "time": 50.143,
        "duration": 0.214,
        "velocity": 1,
        "hand": "right"
      },
      {
        "midi": 69,
        "time": 50.143,
        "duration": 0.429,
        "velocity": 1,
        "hand": "right"
      },
      {
        "midi": 60,
        "time": 50.357,
        "duration": 0.214,
        "velocity": 1,
        "hand": "right"
      },
      {
        "midi": 62,
        "time": 50.571,
        "duration": 0.857,
        "velocity": 1,
        "hand": "right"
      },
      {
        "midi": 69,
        "time": 50.571,
        "duration": 0.429,
        "velocity": 1,
        "hand": "right"
      },
      {
        "midi": 69,
        "time": 51,
        "duration": 0.429,
        "velocity": 1,
        "hand": "right"
      },
      {
        "midi": 47,
        "time": 51.429,
        "duration": 1.714,
        "velocity": 1,
        "hand": "left"
      },
      {
        "midi": 50,
        "time": 51.429,
        "duration": 1.286,
        "velocity": 1,
        "hand": "left"
      },
      {
        "midi": 69,
        "time": 51.429,
        "duration": 0.429,
        "velocity": 1,
        "hand": "right"
      },
      {
        "midi": 62,
        "time": 51.857,
        "duration": 0.429,
        "velocity": 1,
        "hand": "right"
      },
      {
        "midi": 67,
        "time": 51.857,
        "duration": 0.214,
        "velocity": 1,
        "hand": "right"
      },
      {
        "midi": 66,
        "time": 52.071,
        "duration": 0.214,
        "velocity": 1,
        "hand": "right"
      },
      {
        "midi": 62,
        "time": 52.286,
        "duration": 0.429,
        "velocity": 1,
        "hand": "right"
      },
      {
        "midi": 67,
        "time": 52.286,
        "duration": 0.857,
        "velocity": 1,
        "hand": "right"
      },
      {
        "midi": 52,
        "time": 52.714,
        "duration": 0.429,
        "velocity": 1,
        "hand": "left"
      },
      {
        "midi": 62,
        "time": 52.714,
        "duration": 0.429,
        "velocity": 1,
        "hand": "right"
      },
      {
        "midi": 45,
        "time": 53.143,
        "duration": 1.714,
        "velocity": 1,
        "hand": "left"
      },
      {
        "midi": 53,
        "time": 53.143,
        "duration": 0.429,
        "velocity": 1,
        "hand": "left"
      },
      {
        "midi": 62,
        "time": 53.143,
        "duration": 0.429,
        "velocity": 1,
        "hand": "right"
      },
      {
        "midi": 53,
        "time": 53.571,
        "duration": 0.429,
        "velocity": 1,
        "hand": "left"
      },
      {
        "midi": 60,
        "time": 53.571,
        "duration": 0.214,
        "velocity": 1,
        "hand": "right"
      },
      {
        "midi": 59,
        "time": 53.786,
        "duration": 0.214,
        "velocity": 1,
        "hand": "left"
      },
      {
        "midi": 53,
        "time": 54,
        "duration": 0.429,
        "velocity": 1,
        "hand": "left"
      },
      {
        "midi": 60,
        "time": 54,
        "duration": 1.071,
        "velocity": 1,
        "hand": "right"
      },
      {
        "midi": 53,
        "time": 54.429,
        "duration": 0.429,
        "velocity": 1,
        "hand": "left"
      },
      {
        "midi": 48,
        "time": 54.857,
        "duration": 1.714,
        "velocity": 1,
        "hand": "left"
      },
      {
        "midi": 53,
        "time": 54.857,
        "duration": 0.429,
        "velocity": 1,
        "hand": "left"
      },
      {
        "midi": 62,
        "time": 55.071,
        "duration": 0.214,
        "velocity": 1,
        "hand": "right"
      },
      {
        "midi": 51,
        "time": 55.286,
        "duration": 0.214,
        "velocity": 1,
        "hand": "left"
      },
      {
        "midi": 63,
        "time": 55.286,
        "duration": 0.429,
        "velocity": 1,
        "hand": "right"
      },
      {
        "midi": 50,
        "time": 55.5,
        "duration": 0.214,
        "velocity": 1,
        "hand": "left"
      },
      {
        "midi": 51,
        "time": 55.714,
        "duration": 0.857,
        "velocity": 1,
        "hand": "left"
      },
      {
        "midi": 63,
        "time": 55.714,
        "duration": 0.429,
        "velocity": 1,
        "hand": "right"
      },
      {
        "midi": 63,
        "time": 56.143,
        "duration": 0.429,
        "velocity": 1,
        "hand": "right"
      },
      {
        "midi": 47,
        "time": 56.571,
        "duration": 1.286,
        "velocity": 1,
        "hand": "left"
      },
      {
        "midi": 63,
        "time": 56.571,
        "duration": 0.429,
        "velocity": 1,
        "hand": "right"
      },
      {
        "midi": 55,
        "time": 57,
        "duration": 0.429,
        "velocity": 1,
        "hand": "left"
      },
      {
        "midi": 62,
        "time": 57,
        "duration": 0.214,
        "velocity": 1,
        "hand": "right"
      },
      {
        "midi": 60,
        "time": 57.214,
        "duration": 0.214,
        "velocity": 1,
        "hand": "right"
      },
      {
        "midi": 55,
        "time": 57.429,
        "duration": 0.429,
        "velocity": 1,
        "hand": "left"
      },
      {
        "midi": 62,
        "time": 57.429,
        "duration": 0.857,
        "velocity": 1,
        "hand": "right"
      },
      {
        "midi": 48,
        "time": 57.857,
        "duration": 0.429,
        "velocity": 1,
        "hand": "left"
      },
      {
        "midi": 55,
        "time": 57.857,
        "duration": 0.429,
        "velocity": 1,
        "hand": "left"
      },
      {
        "midi": 50,
        "time": 58.286,
        "duration": 1.286,
        "velocity": 1,
        "hand": "left"
      },
      {
        "midi": 55,
        "time": 58.286,
        "duration": 0.429,
        "velocity": 1,
        "hand": "left"
      },
      {
        "midi": 53,
        "time": 58.714,
        "duration": 0.214,
        "velocity": 1,
        "hand": "left"
      },
      {
        "midi": 62,
        "time": 58.714,
        "duration": 0.429,
        "velocity": 1,
        "hand": "right"
      },
      {
        "midi": 52,
        "time": 58.929,
        "duration": 0.214,
        "velocity": 1,
        "hand": "left"
      },
      {
        "midi": 53,
        "time": 59.143,
        "duration": 2.143,
        "velocity": 1,
        "hand": "left"
      },
      {
        "midi": 62,
        "time": 59.143,
        "duration": 0.429,
        "velocity": 1,
        "hand": "right"
      },
      {
        "midi": 52,
        "time": 59.571,
        "duration": 0.429,
        "velocity": 1,
        "hand": "left"
      },
      {
        "midi": 62,
        "time": 59.571,
        "duration": 0.429,
        "velocity": 1,
        "hand": "right"
      },
      {
        "midi": 62,
        "time": 60,
        "duration": 0.429,
        "velocity": 1,
        "hand": "right"
      },
      {
        "midi": 55,
        "time": 60.214,
        "duration": 0.214,
        "velocity": 1,
        "hand": "left"
      },
      {
        "midi": 56,
        "time": 60.429,
        "duration": 0.429,
        "velocity": 1,
        "hand": "left"
      },
      {
        "midi": 60,
        "time": 60.429,
        "duration": 0.214,
        "velocity": 1,
        "hand": "right"
      },
      {
        "midi": 59,
        "time": 60.643,
        "duration": 0.214,
        "velocity": 1,
        "hand": "left"
      },
      {
        "midi": 56,
        "time": 60.857,
        "duration": 0.429,
        "velocity": 1,
        "hand": "left"
      },
      {
        "midi": 60,
        "time": 60.857,
        "duration": 0.429,
        "velocity": 1,
        "hand": "right"
      },
      {
        "midi": 51,
        "time": 61.286,
        "duration": 0.214,
        "velocity": 1,
        "hand": "left"
      },
      {
        "midi": 56,
        "time": 61.286,
        "duration": 0.429,
        "velocity": 1,
        "hand": "left"
      },
      {
        "midi": 60,
        "time": 61.286,
        "duration": 0.643,
        "velocity": 1,
        "hand": "right"
      },
      {
        "midi": 50,
        "time": 61.5,
        "duration": 0.214,
        "velocity": 1,
        "hand": "left"
      },
      {
        "midi": 48,
        "time": 61.714,
        "duration": 1.714,
        "velocity": 1,
        "hand": "left"
      },
      {
        "midi": 56,
        "time": 61.714,
        "duration": 0.429,
        "velocity": 1,
        "hand": "left"
      },
      {
        "midi": 62,
        "time": 61.929,
        "duration": 0.214,
        "velocity": 1,
        "hand": "right"
      },
      {
        "midi": 55,
        "time": 62.143,
        "duration": 0.214,
        "velocity": 1,
        "hand": "left"
      },
      {
        "midi": 63,
        "time": 62.143,
        "duration": 0.429,
        "velocity": 1,
        "hand": "right"
      },
      {
        "midi": 53,
        "time": 62.357,
        "duration": 0.214,
        "velocity": 1,
        "hand": "left"
      },
      {
        "midi": 55,
        "time": 62.571,
        "duration": 1.929,
        "velocity": 1,
        "hand": "left"
      },
      {
        "midi": 63,
        "time": 62.571,
        "duration": 0.429,
        "velocity": 1,
        "hand": "right"
      },
      {
        "midi": 63,
        "time": 63,
        "duration": 0.429,
        "velocity": 1,
        "hand": "right"
      },
      {
        "midi": 46,
        "time": 63.429,
        "duration": 0.857,
        "velocity": 1,
        "hand": "left"
      },
      {
        "midi": 63,
        "time": 63.429,
        "duration": 0.429,
        "velocity": 1,
        "hand": "right"
      },
      {
        "midi": 62,
        "time": 63.857,
        "duration": 0.214,
        "velocity": 1,
        "hand": "right"
      },
      {
        "midi": 60,
        "time": 64.071,
        "duration": 0.214,
        "velocity": 1,
        "hand": "right"
      },
      {
        "midi": 62,
        "time": 64.286,
        "duration": 0.857,
        "velocity": 1,
        "hand": "right"
      },
      {
        "midi": 57,
        "time": 64.5,
        "duration": 0.214,
        "velocity": 1,
        "hand": "left"
      },
      {
        "midi": 58,
        "time": 64.714,
        "duration": 0.214,
        "velocity": 1,
        "hand": "left"
      },
      {
        "midi": 60,
        "time": 64.929,
        "duration": 0.214,
        "velocity": 1,
        "hand": "right"
      },
      {
        "midi": 62,
        "time": 65.143,
        "duration": 2.571,
        "velocity": 1,
        "hand": "right"
      },
      {
        "midi": 67,
        "time": 65.143,
        "duration": 1.714,
        "velocity": 1,
        "hand": "right"
      },
      {
        "midi": 70,
        "time": 65.143,
        "duration": 1.714,
        "velocity": 1,
        "hand": "right"
      },
      {
        "midi": 55,
        "time": 65.571,
        "duration": 0.429,
        "velocity": 1,
        "hand": "left"
      },
      {
        "midi": 55,
        "time": 66,
        "duration": 0.429,
        "velocity": 1,
        "hand": "left"
      },
      {
        "midi": 55,
        "time": 66.429,
        "duration": 0.429,
        "velocity": 1,
        "hand": "left"
      },
      {
        "midi": 55,
        "time": 66.857,
        "duration": 0.429,
        "velocity": 1,
        "hand": "left"
      },
      {
        "midi": 69,
        "time": 66.857,
        "duration": 1.714,
        "velocity": 1,
        "hand": "right"
      },
      {
        "midi": 53,
        "time": 67.286,
        "duration": 0.214,
        "velocity": 1,
        "hand": "left"
      },
      {
        "midi": 52,
        "time": 67.5,
        "duration": 0.214,
        "velocity": 1,
        "hand": "left"
      },
      {
        "midi": 53,
        "time": 67.714,
        "duration": 1.071,
        "velocity": 1,
        "hand": "left"
      },
      {
        "midi": 67,
        "time": 68.143,
        "duration": 0.429,
        "velocity": 1,
        "hand": "right"
      },
      {
        "midi": 65,
        "time": 68.571,
        "duration": 1.286,
        "velocity": 1,
        "hand": "right"
      },
      {
        "midi": 72,
        "time": 68.571,
        "duration": 1.714,
        "velocity": 1,
        "hand": "right"
      },
      {
        "midi": 55,
        "time": 68.786,
        "duration": 0.214,
        "velocity": 1,
        "hand": "left"
      },
      {
        "midi": 56,
        "time": 69,
        "duration": 0.429,
        "velocity": 1,
        "hand": "left"
      },
      {
        "midi": 56,
        "time": 69.429,
        "duration": 0.429,
        "velocity": 1,
        "hand": "left"
      },
      {
        "midi": 56,
        "time": 69.857,
        "duration": 0.429,
        "velocity": 1,
        "hand": "left"
      },
      {
        "midi": 63,
        "time": 69.857,
        "duration": 0.429,
        "velocity": 1,
        "hand": "right"
      },
      {
        "midi": 56,
        "time": 70.286,
        "duration": 0.429,
        "velocity": 1,
        "hand": "left"
      },
      {
        "midi": 62,
        "time": 70.286,
        "duration": 2.571,
        "velocity": 1,
        "hand": "right"
      },
      {
        "midi": 71,
        "time": 70.286,
        "duration": 1.286,
        "velocity": 1,
        "hand": "right"
      },
      {
        "midi": 55,
        "time": 70.714,
        "duration": 0.214,
        "velocity": 1,
        "hand": "left"
      },
      {
        "midi": 53,
        "time": 70.929,
        "duration": 0.214,
        "velocity": 1,
        "hand": "left"
      },
      {
        "midi": 55,
        "time": 71.143,
        "duration": 0.857,
        "velocity": 1,
        "hand": "left"
      },
      {
        "midi": 72,
        "time": 71.571,
        "duration": 0.429,
        "velocity": 1,
        "hand": "right"
      },
      {
        "midi": 50,
        "time": 72,
        "duration": 0.857,
        "velocity": 1,
        "hand": "left"
      },
      {
        "midi": 53,
        "time": 72,
        "duration": 1.714,
        "velocity": 1,
        "hand": "left"
      },
      {
        "midi": 74,
        "time": 72,
        "duration": 0.429,
        "velocity": 1,
        "hand": "right"
      },
      {
        "midi": 69,
        "time": 72.429,
        "duration": 0.429,
        "velocity": 1,
        "hand": "right"
      },
      {
        "midi": 41,
        "time": 72.857,
        "duration": 0.214,
        "velocity": 1,
        "hand": "left"
      },
      {
        "midi": 69,
        "time": 72.857,
        "duration": 0.429,
        "velocity": 1,
        "hand": "right"
      },
      {
        "midi": 43,
        "time": 73.071,
        "duration": 0.214,
        "velocity": 1,
        "hand": "left"
      },
      {
        "midi": 45,
        "time": 73.286,
        "duration": 0.214,
        "velocity": 1,
        "hand": "left"
      },
      {
        "midi": 69,
        "time": 73.286,
        "duration": 0.429,
        "velocity": 1,
        "hand": "right"
      },
      {
        "midi": 47,
        "time": 73.5,
        "duration": 0.214,
        "velocity": 1,
        "hand": "left"
      },
      {
        "midi": 48,
        "time": 73.714,
        "duration": 1.714,
        "velocity": 1,
        "hand": "left"
      },
      {
        "midi": 52,
        "time": 73.714,
        "duration": 1.714,
        "velocity": 1,
        "hand": "left"
      },
      {
        "midi": 69,
        "time": 73.714,
        "duration": 0.429,
        "velocity": 1,
        "hand": "right"
      },
      {
        "midi": 64,
        "time": 74.143,
        "duration": 0.429,
        "velocity": 1,
        "hand": "right"
      },
      {
        "midi": 67,
        "time": 74.143,
        "duration": 0.214,
        "velocity": 1,
        "hand": "right"
      },
      {
        "midi": 66,
        "time": 74.357,
        "duration": 0.214,
        "velocity": 1,
        "hand": "right"
      },
      {
        "midi": 64,
        "time": 74.571,
        "duration": 0.429,
        "velocity": 1,
        "hand": "right"
      },
      {
        "midi": 67,
        "time": 74.571,
        "duration": 1.071,
        "velocity": 1,
        "hand": "right"
      },
      {
        "midi": 64,
        "time": 75,
        "duration": 0.429,
        "velocity": 1,
        "hand": "right"
      },
      {
        "midi": 46,
        "time": 75.429,
        "duration": 1.286,
        "velocity": 1,
        "hand": "left"
      },
      {
        "midi": 55,
        "time": 75.429,
        "duration": 1.714,
        "velocity": 1,
        "hand": "left"
      },
      {
        "midi": 64,
        "time": 75.429,
        "duration": 0.429,
        "velocity": 1,
        "hand": "right"
      },
      {
        "midi": 69,
        "time": 75.643,
        "duration": 0.214,
        "velocity": 1,
        "hand": "right"
      },
      {
        "midi": 62,
        "time": 75.857,
        "duration": 0.214,
        "velocity": 1,
        "hand": "right"
      },
      {
        "midi": 70,
        "time": 75.857,
        "duration": 0.429,
        "velocity": 1,
        "hand": "right"
      },
      {
        "midi": 61,
        "time": 76.071,
        "duration": 0.214,
        "velocity": 1,
        "hand": "right"
      },
      {
        "midi": 62,
        "time": 76.286,
        "duration": 0.857,
        "velocity": 1,
        "hand": "right"
      },
      {
        "midi": 70,
        "time": 76.286,
        "duration": 0.429,
        "velocity": 1,
        "hand": "right"
      },
      {
        "midi": 48,
        "time": 76.714,
        "duration": 0.429,
        "velocity": 1,
        "hand": "left"
      },
      {
        "midi": 70,
        "time": 76.714,
        "duration": 0.429,
        "velocity": 1,
        "hand": "right"
      },
      {
        "midi": 50,
        "time": 77.143,
        "duration": 1.714,
        "velocity": 1,
        "hand": "left"
      },
      {
        "midi": 54,
        "time": 77.143,
        "duration": 0.429,
        "velocity": 1,
        "hand": "left"
      },
      {
        "midi": 70,
        "time": 77.143,
        "duration": 0.429,
        "velocity": 1,
        "hand": "right"
      },
      {
        "midi": 60,
        "time": 77.571,
        "duration": 0.429,
        "velocity": 1,
        "hand": "right"
      },
      {
        "midi": 69,
        "time": 77.571,
        "duration": 0.214,
        "velocity": 1,
        "hand": "right"
      },
      {
        "midi": 67,
        "time": 77.786,
        "duration": 0.214,
        "velocity": 1,
        "hand": "right"
      },
      {
        "midi": 60,
        "time": 78,
        "duration": 0.429,
        "velocity": 1,
        "hand": "right"
      },
      {
        "midi": 69,
        "time": 78,
        "duration": 0.857,
        "velocity": 1,
        "hand": "right"
      },
      {
        "midi": 60,
        "time": 78.429,
        "duration": 0.429,
        "velocity": 1,
        "hand": "right"
      },
      {
        "midi": 55,
        "time": 78.857,
        "duration": 1.714,
        "velocity": 1,
        "hand": "left"
      },
      {
        "midi": 60,
        "time": 78.857,
        "duration": 0.429,
        "velocity": 1,
        "hand": "right"
      },
      {
        "midi": 67,
        "time": 78.857,
        "duration": 0.214,
        "velocity": 1,
        "hand": "right"
      },
      {
        "midi": 69,
        "time": 79.071,
        "duration": 0.214,
        "velocity": 1,
        "hand": "right"
      },
      {
        "midi": 58,
        "time": 79.286,
        "duration": 0.214,
        "velocity": 1,
        "hand": "left"
      },
      {
        "midi": 70,
        "time": 79.286,
        "duration": 0.429,
        "velocity": 1,
        "hand": "right"
      },
      {
        "midi": 57,
        "time": 79.5,
        "duration": 0.214,
        "velocity": 1,
        "hand": "left"
      },
      {
        "midi": 70,
        "time": 79.714,
        "duration": 0.429,
        "velocity": 1,
        "hand": "right"
      },
      {
        "midi": 57,
        "time": 79.929,
        "duration": 0.214,
        "velocity": 1,
        "hand": "left"
      },
      {
        "midi": 58,
        "time": 80.143,
        "duration": 0.214,
        "velocity": 1,
        "hand": "left"
      },
      {
        "midi": 70,
        "time": 80.143,
        "duration": 0.429,
        "velocity": 1,
        "hand": "right"
      },
      {
        "midi": 60,
        "time": 80.357,
        "duration": 0.214,
        "velocity": 1,
        "hand": "right"
      },
      {
        "midi": 50,
        "time": 80.571,
        "duration": 1.286,
        "velocity": 1,
        "hand": "left"
      },
      {
        "midi": 62,
        "time": 80.571,
        "duration": 0.429,
        "velocity": 1,
        "hand": "right"
      },
      {
        "midi": 70,
        "time": 80.571,
        "duration": 0.429,
        "velocity": 1,
        "hand": "right"
      },
      {
        "midi": 64,
        "time": 80.786,
        "duration": 0.214,
        "velocity": 1,
        "hand": "right"
      },
      {
        "midi": 62,
        "time": 81,
        "duration": 0.429,
        "velocity": 1,
        "hand": "right"
      },
      {
        "midi": 65,
        "time": 81,
        "duration": 0.429,
        "velocity": 1,
        "hand": "right"
      },
      {
        "midi": 69,
        "time": 81,
        "duration": 0.214,
        "velocity": 1,
        "hand": "right"
      },
      {
        "midi": 67,
        "time": 81.214,
        "duration": 0.214,
        "velocity": 1,
        "hand": "right"
      },
      {
        "midi": 62,
        "time": 81.429,
        "duration": 0.429,
        "velocity": 1,
        "hand": "right"
      },
      {
        "midi": 65,
        "time": 81.429,
        "duration": 0.429,
        "velocity": 1,
        "hand": "right"
      },
      {
        "midi": 69,
        "time": 81.429,
        "duration": 0.857,
        "velocity": 1,
        "hand": "right"
      },
      {
        "midi": 52,
        "time": 81.857,
        "duration": 0.429,
        "velocity": 1,
        "hand": "left"
      },
      {
        "midi": 62,
        "time": 81.857,
        "duration": 0.429,
        "velocity": 1,
        "hand": "right"
      },
      {
        "midi": 65,
        "time": 81.857,
        "duration": 0.429,
        "velocity": 1,
        "hand": "right"
      },
      {
        "midi": 53,
        "time": 82.286,
        "duration": 1.714,
        "velocity": 1,
        "hand": "left"
      },
      {
        "midi": 60,
        "time": 82.286,
        "duration": 0.857,
        "velocity": 1,
        "hand": "right"
      },
      {
        "midi": 65,
        "time": 82.286,
        "duration": 0.214,
        "velocity": 1,
        "hand": "right"
      },
      {
        "midi": 67,
        "time": 82.5,
        "duration": 0.214,
        "velocity": 1,
        "hand": "right"
      },
      {
        "midi": 68,
        "time": 82.714,
        "duration": 0.429,
        "velocity": 1,
        "hand": "right"
      },
      {
        "midi": 68,
        "time": 83.143,
        "duration": 0.429,
        "velocity": 1,
        "hand": "right"
      },
      {
        "midi": 55,
        "time": 83.357,
        "duration": 0.214,
        "velocity": 1,
        "hand": "left"
      },
      {
        "midi": 56,
        "time": 83.571,
        "duration": 0.214,
        "velocity": 1,
        "hand": "left"
      },
      {
        "midi": 68,
        "time": 83.571,
        "duration": 0.429,
        "velocity": 1,
        "hand": "right"
      },
      {
        "midi": 58,
        "time": 83.786,
        "duration": 0.214,
        "velocity": 1,
        "hand": "left"
      },
      {
        "midi": 48,
        "time": 84,
        "duration": 1.286,
        "velocity": 1,
        "hand": "left"
      },
      {
        "midi": 60,
        "time": 84,
        "duration": 0.429,
        "velocity": 1,
        "hand": "right"
      },
      {
        "midi": 68,
        "time": 84,
        "duration": 0.429,
        "velocity": 1,
        "hand": "right"
      },
      {
        "midi": 62,
        "time": 84.214,
        "duration": 0.214,
        "velocity": 1,
        "hand": "right"
      },
      {
        "midi": 60,
        "time": 84.429,
        "duration": 0.429,
        "velocity": 1,
        "hand": "right"
      },
      {
        "midi": 63,
        "time": 84.429,
        "duration": 0.429,
        "velocity": 1,
        "hand": "right"
      },
      {
        "midi": 67,
        "time": 84.429,
        "duration": 0.214,
        "velocity": 1,
        "hand": "right"
      },
      {
        "midi": 65,
        "time": 84.643,
        "duration": 0.214,
        "velocity": 1,
        "hand": "right"
      },
      {
        "midi": 60,
        "time": 84.857,
        "duration": 0.429,
        "velocity": 1,
        "hand": "right"
      },
      {
        "midi": 63,
        "time": 84.857,
        "duration": 0.429,
        "velocity": 1,
        "hand": "right"
      },
      {
        "midi": 67,
        "time": 84.857,
        "duration": 1.286,
        "velocity": 1,
        "hand": "right"
      },
      {
        "midi": 50,
        "time": 85.286,
        "duration": 0.214,
        "velocity": 1,
        "hand": "left"
      },
      {
        "midi": 60,
        "time": 85.286,
        "duration": 0.429,
        "velocity": 1,
        "hand": "right"
      },
      {
        "midi": 63,
        "time": 85.286,
        "duration": 0.429,
        "velocity": 1,
        "hand": "right"
      },
      {
        "midi": 51,
        "time": 85.5,
        "duration": 0.214,
        "velocity": 1,
        "hand": "left"
      },
      {
        "midi": 53,
        "time": 85.714,
        "duration": 3.429,
        "velocity": 1,
        "hand": "left"
      },
      {
        "midi": 62,
        "time": 85.714,
        "duration": 0.857,
        "velocity": 1,
        "hand": "right"
      },
      {
        "midi": 58,
        "time": 86.143,
        "duration": 0.429,
        "velocity": 1,
        "hand": "left"
      },
      {
        "midi": 65,
        "time": 86.143,
        "duration": 0.214,
        "velocity": 1,
        "hand": "right"
      },
      {
        "midi": 64,
        "time": 86.357,
        "duration": 0.214,
        "velocity": 1,
        "hand": "right"
      },
      {
        "midi": 58,
        "time": 86.571,
        "duration": 0.429,
        "velocity": 1,
        "hand": "left"
      },
      {
        "midi": 61,
        "time": 86.571,
        "duration": 0.857,
        "velocity": 1,
        "hand": "right"
      },
      {
        "midi": 65,
        "time": 86.571,
        "duration": 2.571,
        "velocity": 1,
        "hand": "right"
      },
      {
        "midi": 58,
        "time": 87,
        "duration": 0.429,
        "velocity": 1,
        "hand": "left"
      },
      {
        "midi": 58,
        "time": 87.429,
        "duration": 0.429,
        "velocity": 1,
        "hand": "left"
      },
      {
        "midi": 60,
        "time": 87.429,
        "duration": 0.857,
        "velocity": 1,
        "hand": "right"
      },
      {
        "midi": 57,
        "time": 87.857,
        "duration": 0.214,
        "velocity": 1,
        "hand": "left"
      },
      {
        "midi": 55,
        "time": 88.071,
        "duration": 0.214,
        "velocity": 1,
        "hand": "left"
      },
      {
        "midi": 57,
        "time": 88.286,
        "duration": 0.857,
        "velocity": 1,
        "hand": "left"
      },
      {
        "midi": 60,
        "time": 88.286,
        "duration": 0.857,
        "velocity": 1,
        "hand": "right"
      },
      {
        "midi": 46,
        "time": 90,
        "duration": 0.857,
        "velocity": 1,
        "hand": "left"
      },
      {
        "midi": 45,
        "time": 90.857,
        "duration": 1.714,
        "velocity": 1,
        "hand": "left"
      },
      {
        "midi": 53,
        "time": 91.714,
        "duration": 0.857,
        "velocity": 1,
        "hand": "left"
      },
      {
        "midi": 48,
        "time": 92.571,
        "duration": 1.714,
        "velocity": 1,
        "hand": "left"
      },
      {
        "midi": 52,
        "time": 92.571,
        "duration": 1.714,
        "velocity": 1,
        "hand": "left"
      },
      {
        "midi": 47,
        "time": 94.286,
        "duration": 0.429,
        "velocity": 1,
        "hand": "left"
      },
      {
        "midi": 55,
        "time": 94.286,
        "duration": 1.714,
        "velocity": 1,
        "hand": "left"
      },
      {
        "midi": 45,
        "time": 94.714,
        "duration": 0.429,
        "velocity": 1,
        "hand": "left"
      },
      {
        "midi": 47,
        "time": 95.143,
        "duration": 0.429,
        "velocity": 1,
        "hand": "left"
      },
      {
        "midi": 48,
        "time": 95.571,
        "duration": 0.429,
        "velocity": 1,
        "hand": "left"
      },
      {
        "midi": 50,
        "time": 96,
        "duration": 0.429,
        "velocity": 1,
        "hand": "left"
      },
      {
        "midi": 54,
        "time": 96,
        "duration": 1.714,
        "velocity": 1,
        "hand": "left"
      },
      {
        "midi": 48,
        "time": 96.429,
        "duration": 0.429,
        "velocity": 1,
        "hand": "left"
      },
      {
        "midi": 46,
        "time": 96.857,
        "duration": 0.429,
        "velocity": 1,
        "hand": "left"
      },
      {
        "midi": 45,
        "time": 97.286,
        "duration": 0.429,
        "velocity": 1,
        "hand": "left"
      },
      {
        "midi": 43,
        "time": 97.714,
        "duration": 0.429,
        "velocity": 1,
        "hand": "left"
      },
      {
        "midi": 55,
        "time": 97.714,
        "duration": 2.143,
        "velocity": 1,
        "hand": "left"
      },
      {
        "midi": 45,
        "time": 98.143,
        "duration": 0.429,
        "velocity": 1,
        "hand": "left"
      },
      {
        "midi": 46,
        "time": 98.571,
        "duration": 0.429,
        "velocity": 1,
        "hand": "left"
      },
      {
        "midi": 58,
        "time": 98.571,
        "duration": 0.857,
        "velocity": 1,
        "hand": "left"
      },
      {
        "midi": 48,
        "time": 99,
        "duration": 0.429,
        "velocity": 1,
        "hand": "left"
      },
      {
        "midi": 50,
        "time": 99.429,
        "duration": 0.857,
        "velocity": 1,
        "hand": "left"
      },
      {
        "midi": 57,
        "time": 99.429,
        "duration": 1.714,
        "velocity": 1,
        "hand": "left"
      },
      {
        "midi": 53,
        "time": 99.857,
        "duration": 0.429,
        "velocity": 1,
        "hand": "left"
      },
      {
        "midi": 38,
        "time": 100.286,
        "duration": 0.857,
        "velocity": 1,
        "hand": "left"
      },
      {
        "midi": 52,
        "time": 100.286,
        "duration": 0.429,
        "velocity": 1,
        "hand": "left"
      },
      {
        "midi": 65,
        "time": 100.286,
        "duration": 0.857,
        "velocity": 1,
        "hand": "right"
      },
      {
        "midi": 50,
        "time": 100.714,
        "duration": 0.429,
        "velocity": 1,
        "hand": "left"
      },
      {
        "midi": 45,
        "time": 101.143,
        "duration": 1.714,
        "velocity": 1,
        "hand": "left"
      },
      {
        "midi": 60,
        "time": 101.143,
        "duration": 1.714,
        "velocity": 1,
        "hand": "right"
      },
      {
        "midi": 63,
        "time": 101.143,
        "duration": 1.714,
        "velocity": 1,
        "hand": "right"
      },
      {
        "midi": 47,
        "time": 102,
        "duration": 0.429,
        "velocity": 1,
        "hand": "left"
      },
      {
        "midi": 48,
        "time": 102.429,
        "duration": 0.429,
        "velocity": 1,
        "hand": "left"
      },
      {
        "midi": 43,
        "time": 102.857,
        "duration": 1.714,
        "velocity": 1,
        "hand": "left"
      },
      {
        "midi": 59,
        "time": 102.857,
        "duration": 0.429,
        "velocity": 1,
        "hand": "left"
      },
      {
        "midi": 67,
        "time": 102.857,
        "duration": 1.714,
        "velocity": 1,
        "hand": "right"
      },
      {
        "midi": 57,
        "time": 103.286,
        "duration": 0.429,
        "velocity": 1,
        "hand": "left"
      },
      {
        "midi": 58,
        "time": 103.714,
        "duration": 0.429,
        "velocity": 1,
        "hand": "left"
      },
      {
        "midi": 60,
        "time": 104.143,
        "duration": 0.429,
        "velocity": 1,
        "hand": "right"
      },
      {
        "midi": 38,
        "time": 104.571,
        "duration": 1.714,
        "velocity": 1,
        "hand": "left"
      },
      {
        "midi": 62,
        "time": 104.571,
        "duration": 0.429,
        "velocity": 1,
        "hand": "right"
      },
      {
        "midi": 66,
        "time": 104.571,
        "duration": 1.714,
        "velocity": 1,
        "hand": "right"
      },
      {
        "midi": 63,
        "time": 105,
        "duration": 0.429,
        "velocity": 1,
        "hand": "right"
      },
      {
        "midi": 62,
        "time": 105.429,
        "duration": 0.429,
        "velocity": 1,
        "hand": "right"
      },
      {
        "midi": 60,
        "time": 105.857,
        "duration": 0.429,
        "velocity": 1,
        "hand": "right"
      },
      {
        "midi": 43,
        "time": 106.286,
        "duration": 15.429,
        "velocity": 1,
        "hand": "left"
      },
      {
        "midi": 58,
        "time": 106.286,
        "duration": 1.286,
        "velocity": 1,
        "hand": "left"
      },
      {
        "midi": 67,
        "time": 106.286,
        "duration": 0.857,
        "velocity": 1,
        "hand": "right"
      },
      {
        "midi": 55,
        "time": 106.714,
        "duration": 0.429,
        "velocity": 1,
        "hand": "left"
      },
      {
        "midi": 55,
        "time": 107.143,
        "duration": 0.429,
        "velocity": 1,
        "hand": "left"
      },
      {
        "midi": 70,
        "time": 107.143,
        "duration": 1.714,
        "velocity": 1,
        "hand": "right"
      },
      {
        "midi": 55,
        "time": 107.571,
        "duration": 0.429,
        "velocity": 1,
        "hand": "left"
      },
      {
        "midi": 60,
        "time": 107.571,
        "duration": 0.429,
        "velocity": 1,
        "hand": "right"
      },
      {
        "midi": 55,
        "time": 108,
        "duration": 0.429,
        "velocity": 1,
        "hand": "left"
      },
      {
        "midi": 62,
        "time": 108,
        "duration": 1.714,
        "velocity": 1,
        "hand": "right"
      },
      {
        "midi": 53,
        "time": 108.429,
        "duration": 0.214,
        "velocity": 1,
        "hand": "left"
      },
      {
        "midi": 52,
        "time": 108.643,
        "duration": 0.214,
        "velocity": 1,
        "hand": "left"
      },
      {
        "midi": 53,
        "time": 108.857,
        "duration": 1.071,
        "velocity": 1,
        "hand": "left"
      },
      {
        "midi": 69,
        "time": 108.857,
        "duration": 0.857,
        "velocity": 1,
        "hand": "right"
      },
      {
        "midi": 60,
        "time": 109.714,
        "duration": 1.714,
        "velocity": 1,
        "hand": "right"
      },
      {
        "midi": 72,
        "time": 109.714,
        "duration": 1.714,
        "velocity": 1,
        "hand": "right"
      },
      {
        "midi": 55,
        "time": 109.929,
        "duration": 0.214,
        "velocity": 1,
        "hand": "left"
      },
      {
        "midi": 56,
        "time": 110.143,
        "duration": 0.429,
        "velocity": 1,
        "hand": "left"
      },
      {
        "midi": 56,
        "time": 110.571,
        "duration": 0.429,
        "velocity": 1,
        "hand": "left"
      },
      {
        "midi": 56,
        "time": 111,
        "duration": 0.429,
        "velocity": 1,
        "hand": "left"
      },
      {
        "midi": 56,
        "time": 111.429,
        "duration": 0.429,
        "velocity": 1,
        "hand": "left"
      },
      {
        "midi": 62,
        "time": 111.429,
        "duration": 1.714,
        "velocity": 1,
        "hand": "right"
      },
      {
        "midi": 71,
        "time": 111.429,
        "duration": 1.071,
        "velocity": 1,
        "hand": "right"
      },
      {
        "midi": 55,
        "time": 111.857,
        "duration": 0.214,
        "velocity": 1,
        "hand": "left"
      },
      {
        "midi": 53,
        "time": 112.071,
        "duration": 0.214,
        "velocity": 1,
        "hand": "left"
      },
      {
        "midi": 55,
        "time": 112.286,
        "duration": 0.429,
        "velocity": 1,
        "hand": "left"
      },
      {
        "midi": 67,
        "time": 112.5,
        "duration": 0.214,
        "velocity": 1,
        "hand": "right"
      },
      {
        "midi": 53,
        "time": 112.714,
        "duration": 0.857,
        "velocity": 1,
        "hand": "left"
      },
      {
        "midi": 69,
        "time": 112.714,
        "duration": 0.214,
        "velocity": 1,
        "hand": "right"
      },
      {
        "midi": 71,
        "time": 112.929,
        "duration": 0.214,
        "velocity": 1,
        "hand": "right"
      },
      {
        "midi": 60,
        "time": 113.143,
        "duration": 1.071,
        "velocity": 1,
        "hand": "right"
      },
      {
        "midi": 72,
        "time": 113.143,
        "duration": 0.429,
        "velocity": 1,
        "hand": "right"
      },
      {
        "midi": 51,
        "time": 113.571,
        "duration": 0.214,
        "velocity": 1,
        "hand": "left"
      },
      {
        "midi": 72,
        "time": 113.571,
        "duration": 0.429,
        "velocity": 1,
        "hand": "right"
      },
      {
        "midi": 50,
        "time": 113.786,
        "duration": 0.214,
        "velocity": 1,
        "hand": "left"
      },
      {
        "midi": 51,
        "time": 114,
        "duration": 0.857,
        "velocity": 1,
        "hand": "left"
      },
      {
        "midi": 72,
        "time": 114,
        "duration": 0.429,
        "velocity": 1,
        "hand": "right"
      },
      {
        "midi": 62,
        "time": 114.214,
        "duration": 0.214,
        "velocity": 1,
        "hand": "right"
      },
      {
        "midi": 63,
        "time": 114.429,
        "duration": 0.214,
        "velocity": 1,
        "hand": "right"
      },
      {
        "midi": 72,
        "time": 114.429,
        "duration": 0.429,
        "velocity": 1,
        "hand": "right"
      },
      {
        "midi": 65,
        "time": 114.643,
        "duration": 0.214,
        "velocity": 1,
        "hand": "right"
      },
      {
        "midi": 50,
        "time": 114.857,
        "duration": 0.429,
        "velocity": 1,
        "hand": "left"
      },
      {
        "midi": 67,
        "time": 114.857,
        "duration": 1.286,
        "velocity": 1,
        "hand": "right"
      },
      {
        "midi": 72,
        "time": 114.857,
        "duration": 0.429,
        "velocity": 1,
        "hand": "right"
      },
      {
        "midi": 62,
        "time": 115.286,
        "duration": 0.429,
        "velocity": 1,
        "hand": "right"
      },
      {
        "midi": 70,
        "time": 115.286,
        "duration": 0.214,
        "velocity": 1,
        "hand": "right"
      },
      {
        "midi": 69,
        "time": 115.5,
        "duration": 0.214,
        "velocity": 1,
        "hand": "right"
      },
      {
        "midi": 62,
        "time": 115.714,
        "duration": 0.429,
        "velocity": 1,
        "hand": "right"
      },
      {
        "midi": 70,
        "time": 115.714,
        "duration": 1.286,
        "velocity": 1,
        "hand": "right"
      },
      {
        "midi": 62,
        "time": 116.143,
        "duration": 0.429,
        "velocity": 1,
        "hand": "right"
      },
      {
        "midi": 65,
        "time": 116.143,
        "duration": 0.429,
        "velocity": 1,
        "hand": "right"
      },
      {
        "midi": 62,
        "time": 116.571,
        "duration": 0.429,
        "velocity": 1,
        "hand": "right"
      },
      {
        "midi": 64,
        "time": 116.571,
        "duration": 0.857,
        "velocity": 1,
        "hand": "right"
      },
      {
        "midi": 61,
        "time": 117,
        "duration": 0.214,
        "velocity": 1,
        "hand": "right"
      },
      {
        "midi": 69,
        "time": 117,
        "duration": 0.214,
        "velocity": 1,
        "hand": "right"
      },
      {
        "midi": 59,
        "time": 117.214,
        "duration": 0.214,
        "velocity": 1,
        "hand": "left"
      },
      {
        "midi": 67,
        "time": 117.214,
        "duration": 0.214,
        "velocity": 1,
        "hand": "right"
      },
      {
        "midi": 60,
        "time": 117.429,
        "duration": 0.429,
        "velocity": 1,
        "hand": "right"
      },
      {
        "midi": 63,
        "time": 117.429,
        "duration": 0.857,
        "velocity": 1,
        "hand": "right"
      },
      {
        "midi": 69,
        "time": 117.429,
        "duration": 1.286,
        "velocity": 1,
        "hand": "right"
      },
      {
        "midi": 60,
        "time": 117.857,
        "duration": 0.429,
        "velocity": 1,
        "hand": "right"
      },
      {
        "midi": 60,
        "time": 118.286,
        "duration": 0.429,
        "velocity": 1,
        "hand": "right"
      },
      {
        "midi": 59,
        "time": 118.714,
        "duration": 0.214,
        "velocity": 1,
        "hand": "left"
      },
      {
        "midi": 62,
        "time": 118.714,
        "duration": 0.429,
        "velocity": 1,
        "hand": "right"
      },
      {
        "midi": 67,
        "time": 118.714,
        "duration": 0.214,
        "velocity": 1,
        "hand": "right"
      },
      {
        "midi": 57,
        "time": 118.929,
        "duration": 0.214,
        "velocity": 1,
        "hand": "left"
      },
      {
        "midi": 66,
        "time": 118.929,
        "duration": 0.214,
        "velocity": 1,
        "hand": "right"
      },
      {
        "midi": 58,
        "time": 119.143,
        "duration": 0.857,
        "velocity": 1,
        "hand": "left"
      },
      {
        "midi": 62,
        "time": 119.143,
        "duration": 0.429,
        "velocity": 1,
        "hand": "right"
      },
      {
        "midi": 67,
        "time": 119.143,
        "duration": 1.286,
        "velocity": 1,
        "hand": "right"
      },
      {
        "midi": 62,
        "time": 119.571,
        "duration": 0.429,
        "velocity": 1,
        "hand": "right"
      },
      {
        "midi": 57,
        "time": 120,
        "duration": 1.714,
        "velocity": 1,
        "hand": "left"
      },
      {
        "midi": 62,
        "time": 120,
        "duration": 1.286,
        "velocity": 1,
        "hand": "right"
      },
      {
        "midi": 66,
        "time": 120.429,
        "duration": 0.214,
        "velocity": 1,
        "hand": "right"
      },
      {
        "midi": 64,
        "time": 120.643,
        "duration": 0.214,
        "velocity": 1,
        "hand": "right"
      },
      {
        "midi": 66,
        "time": 120.857,
        "duration": 0.857,
        "velocity": 1,
        "hand": "right"
      },
      {
        "midi": 60,
        "time": 121.286,
        "duration": 0.429,
        "velocity": 1,
        "hand": "right"
      },
      {
        "midi": 67,
        "time": 121.5,
        "duration": 0.107,
        "velocity": 1,
        "hand": "right"
      },
      {
        "midi": 43,
        "time": 121.714,
        "duration": 1.714,
        "velocity": 1,
        "hand": "left"
      },
      {
        "midi": 59,
        "time": 121.714,
        "duration": 1.714,
        "velocity": 1,
        "hand": "left"
      },
      {
        "midi": 67,
        "time": 121.714,
        "duration": 1.714,
        "velocity": 1,
        "hand": "right"
      }
    ],
    "hard": [
      {
        "midi": 58,
        "time": 0,
        "duration": 1.714,
        "velocity": 1,
        "hand": "left"
      },
      {
        "midi": 55,
        "time": 0.429,
        "duration": 0.429,
        "velocity": 1,
        "hand": "left"
      },
      {
        "midi": 55,
        "time": 0.857,
        "duration": 0.429,
        "velocity": 1,
        "hand": "left"
      },
      {
        "midi": 55,
        "time": 1.286,
        "duration": 0.429,
        "velocity": 1,
        "hand": "left"
      },
      {
        "midi": 55,
        "time": 1.714,
        "duration": 0.429,
        "velocity": 1,
        "hand": "left"
      },
      {
        "midi": 57,
        "time": 1.714,
        "duration": 1.714,
        "velocity": 1,
        "hand": "left"
      },
      {
        "midi": 53,
        "time": 2.143,
        "duration": 0.214,
        "velocity": 1,
        "hand": "left"
      },
      {
        "midi": 52,
        "time": 2.357,
        "duration": 0.214,
        "velocity": 1,
        "hand": "left"
      },
      {
        "midi": 53,
        "time": 2.571,
        "duration": 1.071,
        "velocity": 1,
        "hand": "left"
      },
      {
        "midi": 60,
        "time": 3.429,
        "duration": 1.714,
        "velocity": 1,
        "hand": "right"
      },
      {
        "midi": 55,
        "time": 3.643,
        "duration": 0.214,
        "velocity": 1,
        "hand": "left"
      },
      {
        "midi": 56,
        "time": 3.857,
        "duration": 0.429,
        "velocity": 1,
        "hand": "left"
      },
      {
        "midi": 56,
        "time": 4.286,
        "duration": 0.429,
        "velocity": 1,
        "hand": "left"
      },
      {
        "midi": 56,
        "time": 4.714,
        "duration": 0.429,
        "velocity": 1,
        "hand": "left"
      },
      {
        "midi": 56,
        "time": 5.143,
        "duration": 0.429,
        "velocity": 1,
        "hand": "left"
      },
      {
        "midi": 59,
        "time": 5.143,
        "duration": 1.286,
        "velocity": 1,
        "hand": "left"
      },
      {
        "midi": 55,
        "time": 5.571,
        "duration": 0.214,
        "velocity": 1,
        "hand": "left"
      },
      {
        "midi": 53,
        "time": 5.786,
        "duration": 0.214,
        "velocity": 1,
        "hand": "left"
      },
      {
        "midi": 55,
        "time": 6,
        "duration": 1.286,
        "velocity": 1,
        "hand": "left"
      },
      {
        "midi": 60,
        "time": 6.429,
        "duration": 0.429,
        "velocity": 1,
        "hand": "right"
      },
      {
        "midi": 62,
        "time": 6.857,
        "duration": 0.429,
        "velocity": 1,
        "hand": "right"
      },
      {
        "midi": 53,
        "time": 7.286,
        "duration": 0.214,
        "velocity": 1,
        "hand": "left"
      },
      {
        "midi": 57,
        "time": 7.286,
        "duration": 0.429,
        "velocity": 1,
        "hand": "left"
      },
      {
        "midi": 52,
        "time": 7.5,
        "duration": 0.214,
        "velocity": 1,
        "hand": "left"
      },
      {
        "midi": 50,
        "time": 7.714,
        "duration": 0.857,
        "velocity": 1,
        "hand": "left"
      },
      {
        "midi": 57,
        "time": 7.714,
        "duration": 0.429,
        "velocity": 1,
        "hand": "left"
      },
      {
        "midi": 65,
        "time": 7.714,
        "duration": 0.857,
        "velocity": 1,
        "hand": "right"
      },
      {
        "midi": 57,
        "time": 8.143,
        "duration": 0.429,
        "velocity": 1,
        "hand": "left"
      },
      {
        "midi": 57,
        "time": 8.571,
        "duration": 0.429,
        "velocity": 1,
        "hand": "left"
      },
      {
        "midi": 64,
        "time": 8.571,
        "duration": 1.714,
        "velocity": 1,
        "hand": "right"
      },
      {
        "midi": 52,
        "time": 9,
        "duration": 0.429,
        "velocity": 1,
        "hand": "left"
      },
      {
        "midi": 55,
        "time": 9,
        "duration": 0.214,
        "velocity": 1,
        "hand": "left"
      },
      {
        "midi": 54,
        "time": 9.214,
        "duration": 0.214,
        "velocity": 1,
        "hand": "left"
      },
      {
        "midi": 52,
        "time": 9.429,
        "duration": 0.429,
        "velocity": 1,
        "hand": "left"
      },
      {
        "midi": 55,
        "time": 9.429,
        "duration": 1.071,
        "velocity": 1,
        "hand": "left"
      },
      {
        "midi": 52,
        "time": 9.857,
        "duration": 0.429,
        "velocity": 1,
        "hand": "left"
      },
      {
        "midi": 52,
        "time": 10.286,
        "duration": 0.429,
        "velocity": 1,
        "hand": "left"
      },
      {
        "midi": 67,
        "time": 10.286,
        "duration": 1.714,
        "velocity": 1,
        "hand": "right"
      },
      {
        "midi": 57,
        "time": 10.5,
        "duration": 0.214,
        "velocity": 1,
        "hand": "left"
      },
      {
        "midi": 50,
        "time": 10.714,
        "duration": 0.214,
        "velocity": 1,
        "hand": "left"
      },
      {
        "midi": 58,
        "time": 10.714,
        "duration": 0.429,
        "velocity": 1,
        "hand": "left"
      },
      {
        "midi": 49,
        "time": 10.929,
        "duration": 0.214,
        "velocity": 1,
        "hand": "left"
      },
      {
        "midi": 50,
        "time": 11.143,
        "duration": 1.929,
        "velocity": 1,
        "hand": "left"
      },
      {
        "midi": 58,
        "time": 11.143,
        "duration": 0.429,
        "velocity": 1,
        "hand": "left"
      },
      {
        "midi": 58,
        "time": 11.571,
        "duration": 0.429,
        "velocity": 1,
        "hand": "left"
      },
      {
        "midi": 58,
        "time": 12,
        "duration": 0.429,
        "velocity": 1,
        "hand": "left"
      },
      {
        "midi": 66,
        "time": 12,
        "duration": 1.714,
        "velocity": 1,
        "hand": "right"
      },
      {
        "midi": 57,
        "time": 12.429,
        "duration": 0.214,
        "velocity": 1,
        "hand": "left"
      },
      {
        "midi": 55,
        "time": 12.643,
        "duration": 0.214,
        "velocity": 1,
        "hand": "left"
      },
      {
        "midi": 57,
        "time": 12.857,
        "duration": 0.857,
        "velocity": 1,
        "hand": "left"
      },
      {
        "midi": 48,
        "time": 13.071,
        "duration": 0.214,
        "velocity": 1,
        "hand": "left"
      },
      {
        "midi": 46,
        "time": 13.286,
        "duration": 0.214,
        "velocity": 1,
        "hand": "left"
      },
      {
        "midi": 45,
        "time": 13.5,
        "duration": 0.214,
        "velocity": 1,
        "hand": "left"
      },
      {
        "midi": 43,
        "time": 13.714,
        "duration": 1.071,
        "velocity": 1,
        "hand": "left"
      },
      {
        "midi": 62,
        "time": 13.714,
        "duration": 2.571,
        "velocity": 1,
        "hand": "right"
      },
      {
        "midi": 70,
        "time": 13.714,
        "duration": 1.714,
        "velocity": 1,
        "hand": "right"
      },
      {
        "midi": 67,
        "time": 14.143,
        "duration": 0.429,
        "velocity": 1,
        "hand": "right"
      },
      {
        "midi": 67,
        "time": 14.571,
        "duration": 0.429,
        "velocity": 1,
        "hand": "right"
      },
      {
        "midi": 45,
        "time": 14.786,
        "duration": 0.214,
        "velocity": 1,
        "hand": "left"
      },
      {
        "midi": 46,
        "time": 15,
        "duration": 0.214,
        "velocity": 1,
        "hand": "left"
      },
      {
        "midi": 67,
        "time": 15,
        "duration": 0.429,
        "velocity": 1,
        "hand": "right"
      },
      {
        "midi": 48,
        "time": 15.214,
        "duration": 0.214,
        "velocity": 1,
        "hand": "left"
      },
      {
        "midi": 50,
        "time": 15.429,
        "duration": 0.429,
        "velocity": 1,
        "hand": "left"
      },
      {
        "midi": 67,
        "time": 15.429,
        "duration": 0.429,
        "velocity": 1,
        "hand": "right"
      },
      {
        "midi": 69,
        "time": 15.429,
        "duration": 1.714,
        "velocity": 1,
        "hand": "right"
      },
      {
        "midi": 50,
        "time": 15.857,
        "duration": 0.429,
        "velocity": 1,
        "hand": "left"
      },
      {
        "midi": 65,
        "time": 15.857,
        "duration": 0.214,
        "velocity": 1,
        "hand": "right"
      },
      {
        "midi": 64,
        "time": 16.071,
        "duration": 0.214,
        "velocity": 1,
        "hand": "right"
      },
      {
        "midi": 50,
        "time": 16.286,
        "duration": 0.429,
        "velocity": 1,
        "hand": "left"
      },
      {
        "midi": 65,
        "time": 16.286,
        "duration": 1.071,
        "velocity": 1,
        "hand": "right"
      },
      {
        "midi": 52,
        "time": 16.5,
        "duration": 0.214,
        "velocity": 1,
        "hand": "left"
      },
      {
        "midi": 50,
        "time": 16.714,
        "duration": 0.429,
        "velocity": 1,
        "hand": "left"
      },
      {
        "midi": 53,
        "time": 16.714,
        "duration": 0.214,
        "velocity": 1,
        "hand": "left"
      },
      {
        "midi": 55,
        "time": 16.929,
        "duration": 0.214,
        "velocity": 1,
        "hand": "left"
      },
      {
        "midi": 48,
        "time": 17.143,
        "duration": 0.429,
        "velocity": 1,
        "hand": "left"
      },
      {
        "midi": 56,
        "time": 17.143,
        "duration": 0.857,
        "velocity": 1,
        "hand": "left"
      },
      {
        "midi": 72,
        "time": 17.143,
        "duration": 1.714,
        "velocity": 1,
        "hand": "right"
      },
      {
        "midi": 67,
        "time": 17.357,
        "duration": 0.214,
        "velocity": 1,
        "hand": "right"
      },
      {
        "midi": 48,
        "time": 17.571,
        "duration": 0.214,
        "velocity": 1,
        "hand": "left"
      },
      {
        "midi": 68,
        "time": 17.571,
        "duration": 0.429,
        "velocity": 1,
        "hand": "right"
      },
      {
        "midi": 47,
        "time": 17.786,
        "duration": 0.214,
        "velocity": 1,
        "hand": "left"
      },
      {
        "midi": 48,
        "time": 18,
        "duration": 0.214,
        "velocity": 1,
        "hand": "left"
      },
      {
        "midi": 65,
        "time": 18,
        "duration": 0.429,
        "velocity": 1,
        "hand": "right"
      },
      {
        "midi": 68,
        "time": 18,
        "duration": 0.429,
        "velocity": 1,
        "hand": "right"
      },
      {
        "midi": 50,
        "time": 18.214,
        "duration": 0.214,
        "velocity": 1,
        "hand": "left"
      },
      {
        "midi": 51,
        "time": 18.429,
        "duration": 0.214,
        "velocity": 1,
        "hand": "left"
      },
      {
        "midi": 63,
        "time": 18.429,
        "duration": 0.429,
        "velocity": 1,
        "hand": "right"
      },
      {
        "midi": 68,
        "time": 18.429,
        "duration": 0.429,
        "velocity": 1,
        "hand": "right"
      },
      {
        "midi": 53,
        "time": 18.643,
        "duration": 0.214,
        "velocity": 1,
        "hand": "left"
      },
      {
        "midi": 55,
        "time": 18.857,
        "duration": 1.714,
        "velocity": 1,
        "hand": "left"
      },
      {
        "midi": 62,
        "time": 18.857,
        "duration": 1.714,
        "velocity": 1,
        "hand": "right"
      },
      {
        "midi": 68,
        "time": 18.857,
        "duration": 0.429,
        "velocity": 1,
        "hand": "right"
      },
      {
        "midi": 71,
        "time": 18.857,
        "duration": 1.286,
        "velocity": 1,
        "hand": "right"
      },
      {
        "midi": 67,
        "time": 19.286,
        "duration": 0.214,
        "velocity": 1,
        "hand": "right"
      },
      {
        "midi": 65,
        "time": 19.5,
        "duration": 0.214,
        "velocity": 1,
        "hand": "right"
      },
      {
        "midi": 67,
        "time": 19.714,
        "duration": 1.286,
        "velocity": 1,
        "hand": "right"
      },
      {
        "midi": 72,
        "time": 20.143,
        "duration": 0.429,
        "velocity": 1,
        "hand": "right"
      },
      {
        "midi": 62,
        "time": 20.571,
        "duration": 0.857,
        "velocity": 1,
        "hand": "right"
      },
      {
        "midi": 74,
        "time": 20.571,
        "duration": 0.429,
        "velocity": 1,
        "hand": "right"
      },
      {
        "midi": 65,
        "time": 21,
        "duration": 0.214,
        "velocity": 1,
        "hand": "right"
      },
      {
        "midi": 69,
        "time": 21,
        "duration": 0.429,
        "velocity": 1,
        "hand": "right"
      },
      {
        "midi": 64,
        "time": 21.214,
        "duration": 0.214,
        "velocity": 1,
        "hand": "right"
      },
      {
        "midi": 53,
        "time": 21.429,
        "duration": 0.857,
        "velocity": 1,
        "hand": "left"
      },
      {
        "midi": 57,
        "time": 21.429,
        "duration": 0.429,
        "velocity": 1,
        "hand": "left"
      },
      {
        "midi": 62,
        "time": 21.429,
        "duration": 0.857,
        "velocity": 1,
        "hand": "right"
      },
      {
        "midi": 69,
        "time": 21.429,
        "duration": 0.429,
        "velocity": 1,
        "hand": "right"
      },
      {
        "midi": 59,
        "time": 21.857,
        "duration": 0.429,
        "velocity": 1,
        "hand": "left"
      },
      {
        "midi": 69,
        "time": 21.857,
        "duration": 0.429,
        "velocity": 1,
        "hand": "right"
      },
      {
        "midi": 52,
        "time": 22.286,
        "duration": 1.714,
        "velocity": 1,
        "hand": "left"
      },
      {
        "midi": 60,
        "time": 22.286,
        "duration": 1.714,
        "velocity": 1,
        "hand": "right"
      },
      {
        "midi": 69,
        "time": 22.286,
        "duration": 0.429,
        "velocity": 1,
        "hand": "right"
      },
      {
        "midi": 64,
        "time": 22.714,
        "duration": 0.429,
        "velocity": 1,
        "hand": "right"
      },
      {
        "midi": 67,
        "time": 22.714,
        "duration": 0.214,
        "velocity": 1,
        "hand": "right"
      },
      {
        "midi": 66,
        "time": 22.929,
        "duration": 0.214,
        "velocity": 1,
        "hand": "right"
      },
      {
        "midi": 64,
        "time": 23.143,
        "duration": 0.429,
        "velocity": 1,
        "hand": "right"
      },
      {
        "midi": 67,
        "time": 23.143,
        "duration": 1.071,
        "velocity": 1,
        "hand": "right"
      },
      {
        "midi": 64,
        "time": 23.571,
        "duration": 0.429,
        "velocity": 1,
        "hand": "right"
      },
      {
        "midi": 55,
        "time": 24,
        "duration": 1.714,
        "velocity": 1,
        "hand": "left"
      },
      {
        "midi": 58,
        "time": 24,
        "duration": 1.286,
        "velocity": 1,
        "hand": "left"
      },
      {
        "midi": 64,
        "time": 24,
        "duration": 0.429,
        "velocity": 1,
        "hand": "right"
      },
      {
        "midi": 69,
        "time": 24.214,
        "duration": 0.214,
        "velocity": 1,
        "hand": "right"
      },
      {
        "midi": 62,
        "time": 24.429,
        "duration": 0.214,
        "velocity": 1,
        "hand": "right"
      },
      {
        "midi": 70,
        "time": 24.429,
        "duration": 0.429,
        "velocity": 1,
        "hand": "right"
      },
      {
        "midi": 61,
        "time": 24.643,
        "duration": 0.214,
        "velocity": 1,
        "hand": "right"
      },
      {
        "midi": 62,
        "time": 24.857,
        "duration": 0.429,
        "velocity": 1,
        "hand": "right"
      },
      {
        "midi": 70,
        "time": 24.857,
        "duration": 0.429,
        "velocity": 1,
        "hand": "right"
      },
      {
        "midi": 61,
        "time": 25.286,
        "duration": 0.429,
        "velocity": 1,
        "hand": "right"
      },
      {
        "midi": 70,
        "time": 25.286,
        "duration": 0.429,
        "velocity": 1,
        "hand": "right"
      },
      {
        "midi": 54,
        "time": 25.714,
        "duration": 1.714,
        "velocity": 1,
        "hand": "left"
      },
      {
        "midi": 62,
        "time": 25.714,
        "duration": 1.286,
        "velocity": 1,
        "hand": "right"
      },
      {
        "midi": 70,
        "time": 25.714,
        "duration": 0.429,
        "velocity": 1,
        "hand": "right"
      },
      {
        "midi": 69,
        "time": 26.143,
        "duration": 0.214,
        "velocity": 1,
        "hand": "right"
      },
      {
        "midi": 67,
        "time": 26.357,
        "duration": 0.214,
        "velocity": 1,
        "hand": "right"
      },
      {
        "midi": 69,
        "time": 26.571,
        "duration": 0.857,
        "velocity": 1,
        "hand": "right"
      },
      {
        "midi": 60,
        "time": 27,
        "duration": 0.429,
        "velocity": 1,
        "hand": "right"
      },
      {
        "midi": 55,
        "time": 27.429,
        "duration": 1.714,
        "velocity": 1,
        "hand": "left"
      },
      {
        "midi": 58,
        "time": 27.429,
        "duration": 0.857,
        "velocity": 1,
        "hand": "left"
      },
      {
        "midi": 70,
        "time": 27.429,
        "duration": 1.714,
        "velocity": 1,
        "hand": "right"
      },
      {
        "midi": 67,
        "time": 27.857,
        "duration": 0.429,
        "velocity": 1,
        "hand": "right"
      },
      {
        "midi": 67,
        "time": 28.286,
        "duration": 0.429,
        "velocity": 1,
        "hand": "right"
      },
      {
        "midi": 57,
        "time": 28.5,
        "duration": 0.214,
        "velocity": 1,
        "hand": "left"
      },
      {
        "midi": 58,
        "time": 28.714,
        "duration": 0.214,
        "velocity": 1,
        "hand": "left"
      },
      {
        "midi": 67,
        "time": 28.714,
        "duration": 0.429,
        "velocity": 1,
        "hand": "right"
      },
      {
        "midi": 60,
        "time": 28.929,
        "duration": 0.214,
        "velocity": 1,
        "hand": "right"
      },
      {
        "midi": 50,
        "time": 29.143,
        "duration": 1.286,
        "velocity": 1,
        "hand": "left"
      },
      {
        "midi": 62,
        "time": 29.143,
        "duration": 0.429,
        "velocity": 1,
        "hand": "right"
      },
      {
        "midi": 67,
        "time": 29.143,
        "duration": 0.429,
        "velocity": 1,
        "hand": "right"
      },
      {
        "midi": 69,
        "time": 29.143,
        "duration": 1.714,
        "velocity": 1,
        "hand": "right"
      },
      {
        "midi": 62,
        "time": 29.571,
        "duration": 0.429,
        "velocity": 1,
        "hand": "right"
      },
      {
        "midi": 65,
        "time": 29.571,
        "duration": 0.214,
        "velocity": 1,
        "hand": "right"
      },
      {
        "midi": 64,
        "time": 29.786,
        "duration": 0.214,
        "velocity": 1,
        "hand": "right"
      },
      {
        "midi": 62,
        "time": 30,
        "duration": 0.429,
        "velocity": 1,
        "hand": "right"
      },
      {
        "midi": 65,
        "time": 30,
        "duration": 1.071,
        "velocity": 1,
        "hand": "right"
      },
      {
        "midi": 52,
        "time": 30.429,
        "duration": 0.429,
        "velocity": 1,
        "hand": "left"
      },
      {
        "midi": 62,
        "time": 30.429,
        "duration": 0.429,
        "velocity": 1,
        "hand": "right"
      },
      {
        "midi": 53,
        "time": 30.857,
        "duration": 1.286,
        "velocity": 1,
        "hand": "left"
      },
      {
        "midi": 62,
        "time": 30.857,
        "duration": 0.429,
        "velocity": 1,
        "hand": "right"
      },
      {
        "midi": 67,
        "time": 31.071,
        "duration": 0.214,
        "velocity": 1,
        "hand": "right"
      },
      {
        "midi": 60,
        "time": 31.286,
        "duration": 0.214,
        "velocity": 1,
        "hand": "right"
      },
      {
        "midi": 68,
        "time": 31.286,
        "duration": 0.429,
        "velocity": 1,
        "hand": "right"
      },
      {
        "midi": 59,
        "time": 31.5,
        "duration": 0.214,
        "velocity": 1,
        "hand": "left"
      },
      {
        "midi": 60,
        "time": 31.714,
        "duration": 1.071,
        "velocity": 1,
        "hand": "right"
      },
      {
        "midi": 68,
        "time": 31.714,
        "duration": 0.429,
        "velocity": 1,
        "hand": "right"
      },
      {
        "midi": 51,
        "time": 32.143,
        "duration": 0.214,
        "velocity": 1,
        "hand": "left"
      },
      {
        "midi": 68,
        "time": 32.143,
        "duration": 0.429,
        "velocity": 1,
        "hand": "right"
      },
      {
        "midi": 50,
        "time": 32.357,
        "duration": 0.214,
        "velocity": 1,
        "hand": "left"
      },
      {
        "midi": 48,
        "time": 32.571,
        "duration": 0.857,
        "velocity": 1,
        "hand": "left"
      },
      {
        "midi": 68,
        "time": 32.571,
        "duration": 0.429,
        "velocity": 1,
        "hand": "right"
      },
      {
        "midi": 76,
        "time": 32.571,
        "duration": 0.429,
        "velocity": 1,
        "hand": "right"
      },
      {
        "midi": 62,
        "time": 32.786,
        "duration": 0.214,
        "velocity": 1,
        "hand": "right"
      },
      {
        "midi": 63,
        "time": 33,
        "duration": 0.429,
        "velocity": 1,
        "hand": "right"
      },
      {
        "midi": 67,
        "time": 33,
        "duration": 0.214,
        "velocity": 1,
        "hand": "right"
      },
      {
        "midi": 72,
        "time": 33,
        "duration": 0.429,
        "velocity": 1,
        "hand": "right"
      },
      {
        "midi": 65,
        "time": 33.214,
        "duration": 0.214,
        "velocity": 1,
        "hand": "right"
      },
      {
        "midi": 63,
        "time": 33.429,
        "duration": 0.429,
        "velocity": 1,
        "hand": "right"
      },
      {
        "midi": 67,
        "time": 33.429,
        "duration": 0.857,
        "velocity": 1,
        "hand": "right"
      },
      {
        "midi": 72,
        "time": 33.429,
        "duration": 0.429,
        "velocity": 1,
        "hand": "right"
      },
      {
        "midi": 63,
        "time": 33.857,
        "duration": 0.429,
        "velocity": 1,
        "hand": "right"
      },
      {
        "midi": 72,
        "time": 33.857,
        "duration": 0.429,
        "velocity": 1,
        "hand": "right"
      },
      {
        "midi": 63,
        "time": 34.286,
        "duration": 0.429,
        "velocity": 1,
        "hand": "right"
      },
      {
        "midi": 67,
        "time": 34.286,
        "duration": 1.714,
        "velocity": 1,
        "hand": "right"
      },
      {
        "midi": 72,
        "time": 34.286,
        "duration": 0.429,
        "velocity": 1,
        "hand": "right"
      },
      {
        "midi": 55,
        "time": 34.714,
        "duration": 0.429,
        "velocity": 1,
        "hand": "left"
      },
      {
        "midi": 62,
        "time": 34.714,
        "duration": 0.214,
        "velocity": 1,
        "hand": "right"
      },
      {
        "midi": 70,
        "time": 34.714,
        "duration": 0.214,
        "velocity": 1,
        "hand": "right"
      },
      {
        "midi": 60,
        "time": 34.929,
        "duration": 0.214,
        "velocity": 1,
        "hand": "right"
      },
      {
        "midi": 69,
        "time": 34.929,
        "duration": 0.214,
        "velocity": 1,
        "hand": "right"
      },
      {
        "midi": 55,
        "time": 35.143,
        "duration": 0.429,
        "velocity": 1,
        "hand": "left"
      },
      {
        "midi": 62,
        "time": 35.143,
        "duration": 0.857,
        "velocity": 1,
        "hand": "right"
      },
      {
        "midi": 70,
        "time": 35.143,
        "duration": 2.143,
        "velocity": 1,
        "hand": "right"
      },
      {
        "midi": 55,
        "time": 35.571,
        "duration": 0.429,
        "velocity": 1,
        "hand": "left"
      },
      {
        "midi": 55,
        "time": 36,
        "duration": 0.429,
        "velocity": 1,
        "hand": "left"
      },
      {
        "midi": 58,
        "time": 36,
        "duration": 1.071,
        "velocity": 1,
        "hand": "left"
      },
      {
        "midi": 72,
        "time": 36.214,
        "duration": 0.214,
        "velocity": 1,
        "hand": "right"
      },
      {
        "midi": 53,
        "time": 36.429,
        "duration": 0.214,
        "velocity": 1,
        "hand": "left"
      },
      {
        "midi": 73,
        "time": 36.429,
        "duration": 0.429,
        "velocity": 1,
        "hand": "right"
      },
      {
        "midi": 52,
        "time": 36.643,
        "duration": 0.214,
        "velocity": 1,
        "hand": "left"
      },
      {
        "midi": 53,
        "time": 36.857,
        "duration": 1.071,
        "velocity": 1,
        "hand": "left"
      },
      {
        "midi": 73,
        "time": 36.857,
        "duration": 0.429,
        "velocity": 1,
        "hand": "right"
      },
      {
        "midi": 60,
        "time": 37.071,
        "duration": 0.214,
        "velocity": 1,
        "hand": "right"
      },
      {
        "midi": 61,
        "time": 37.286,
        "duration": 0.214,
        "velocity": 1,
        "hand": "right"
      },
      {
        "midi": 68,
        "time": 37.286,
        "duration": 0.214,
        "velocity": 1,
        "hand": "right"
      },
      {
        "midi": 73,
        "time": 37.286,
        "duration": 0.429,
        "velocity": 1,
        "hand": "right"
      },
      {
        "midi": 63,
        "time": 37.5,
        "duration": 0.214,
        "velocity": 1,
        "hand": "right"
      },
      {
        "midi": 67,
        "time": 37.5,
        "duration": 0.214,
        "velocity": 1,
        "hand": "right"
      },
      {
        "midi": 65,
        "time": 37.714,
        "duration": 0.857,
        "velocity": 1,
        "hand": "right"
      },
      {
        "midi": 68,
        "time": 37.714,
        "duration": 0.857,
        "velocity": 1,
        "hand": "right"
      },
      {
        "midi": 73,
        "time": 37.714,
        "duration": 0.429,
        "velocity": 1,
        "hand": "right"
      },
      {
        "midi": 55,
        "time": 37.929,
        "duration": 0.214,
        "velocity": 1,
        "hand": "left"
      },
      {
        "midi": 56,
        "time": 38.143,
        "duration": 0.429,
        "velocity": 1,
        "hand": "left"
      },
      {
        "midi": 72,
        "time": 38.143,
        "duration": 0.214,
        "velocity": 1,
        "hand": "right"
      },
      {
        "midi": 70,
        "time": 38.357,
        "duration": 0.214,
        "velocity": 1,
        "hand": "right"
      },
      {
        "midi": 56,
        "time": 38.571,
        "duration": 0.429,
        "velocity": 1,
        "hand": "left"
      },
      {
        "midi": 60,
        "time": 38.571,
        "duration": 0.857,
        "velocity": 1,
        "hand": "right"
      },
      {
        "midi": 65,
        "time": 38.571,
        "duration": 0.429,
        "velocity": 1,
        "hand": "right"
      },
      {
        "midi": 72,
        "time": 38.571,
        "duration": 1.714,
        "velocity": 1,
        "hand": "right"
      },
      {
        "midi": 56,
        "time": 39,
        "duration": 0.429,
        "velocity": 1,
        "hand": "left"
      },
      {
        "midi": 63,
        "time": 39,
        "duration": 0.429,
        "velocity": 1,
        "hand": "right"
      },
      {
        "midi": 56,
        "time": 39.429,
        "duration": 0.429,
        "velocity": 1,
        "hand": "left"
      },
      {
        "midi": 62,
        "time": 39.429,
        "duration": 1.071,
        "velocity": 1,
        "hand": "right"
      },
      {
        "midi": 62,
        "time": 39.429,
        "duration": 2.143,
        "velocity": 1,
        "hand": "right"
      },
      {
        "midi": 55,
        "time": 39.857,
        "duration": 0.214,
        "velocity": 1,
        "hand": "left"
      },
      {
        "midi": 54,
        "time": 40.071,
        "duration": 0.214,
        "velocity": 1,
        "hand": "left"
      },
      {
        "midi": 55,
        "time": 40.286,
        "duration": 1.286,
        "velocity": 1,
        "hand": "left"
      },
      {
        "midi": 71,
        "time": 40.286,
        "duration": 0.857,
        "velocity": 1,
        "hand": "right"
      },
      {
        "midi": 62,
        "time": 40.5,
        "duration": 0.214,
        "velocity": 1,
        "hand": "right"
      },
      {
        "midi": 64,
        "time": 40.714,
        "duration": 0.214,
        "velocity": 1,
        "hand": "right"
      },
      {
        "midi": 66,
        "time": 40.929,
        "duration": 0.214,
        "velocity": 1,
        "hand": "right"
      },
      {
        "midi": 67,
        "time": 41.143,
        "duration": 1.714,
        "velocity": 1,
        "hand": "right"
      },
      {
        "midi": 70,
        "time": 41.143,
        "duration": 0.429,
        "velocity": 1,
        "hand": "right"
      },
      {
        "midi": 53,
        "time": 41.571,
        "duration": 0.429,
        "velocity": 1,
        "hand": "left"
      },
      {
        "midi": 61,
        "time": 41.571,
        "duration": 0.429,
        "velocity": 1,
        "hand": "right"
      },
      {
        "midi": 70,
        "time": 41.571,
        "duration": 0.429,
        "velocity": 1,
        "hand": "right"
      },
      {
        "midi": 52,
        "time": 42,
        "duration": 0.857,
        "velocity": 1,
        "hand": "left"
      },
      {
        "midi": 60,
        "time": 42,
        "duration": 1.714,
        "velocity": 1,
        "hand": "right"
      },
      {
        "midi": 70,
        "time": 42,
        "duration": 0.429,
        "velocity": 1,
        "hand": "right"
      },
      {
        "midi": 70,
        "time": 42.429,
        "duration": 0.429,
        "velocity": 1,
        "hand": "right"
      },
      {
        "midi": 53,
        "time": 42.857,
        "duration": 1.286,
        "velocity": 1,
        "hand": "left"
      },
      {
        "midi": 65,
        "time": 42.857,
        "duration": 0.857,
        "velocity": 1,
        "hand": "right"
      },
      {
        "midi": 70,
        "time": 42.857,
        "duration": 0.429,
        "velocity": 1,
        "hand": "right"
      },
      {
        "midi": 69,
        "time": 43.286,
        "duration": 0.214,
        "velocity": 1,
        "hand": "right"
      },
      {
        "midi": 67,
        "time": 43.5,
        "duration": 0.214,
        "velocity": 1,
        "hand": "right"
      },
      {
        "midi": 69,
        "time": 43.714,
        "duration": 0.857,
        "velocity": 1,
        "hand": "right"
      },
      {
        "midi": 52,
        "time": 44.143,
        "duration": 0.429,
        "velocity": 1,
        "hand": "left"
      },
      {
        "midi": 50,
        "time": 44.571,
        "duration": 1.071,
        "velocity": 1,
        "hand": "left"
      },
      {
        "midi": 65,
        "time": 44.571,
        "duration": 1.714,
        "velocity": 1,
        "hand": "right"
      },
      {
        "midi": 69,
        "time": 44.571,
        "duration": 3,
        "velocity": 1,
        "hand": "right"
      },
      {
        "midi": 62,
        "time": 45,
        "duration": 0.429,
        "velocity": 1,
        "hand": "right"
      },
      {
        "midi": 62,
        "time": 45.429,
        "duration": 0.429,
        "velocity": 1,
        "hand": "right"
      },
      {
        "midi": 52,
        "time": 45.643,
        "duration": 0.214,
        "velocity": 1,
        "hand": "left"
      },
      {
        "midi": 53,
        "time": 45.857,
        "duration": 0.214,
        "velocity": 1,
        "hand": "left"
      },
      {
        "midi": 62,
        "time": 45.857,
        "duration": 0.429,
        "velocity": 1,
        "hand": "right"
      },
      {
        "midi": 55,
        "time": 46.071,
        "duration": 0.214,
        "velocity": 1,
        "hand": "left"
      },
      {
        "midi": 57,
        "time": 46.286,
        "duration": 0.429,
        "velocity": 1,
        "hand": "left"
      },
      {
        "midi": 62,
        "time": 46.286,
        "duration": 0.429,
        "velocity": 1,
        "hand": "right"
      },
      {
        "midi": 64,
        "time": 46.286,
        "duration": 1.714,
        "velocity": 1,
        "hand": "right"
      },
      {
        "midi": 45,
        "time": 46.714,
        "duration": 0.429,
        "velocity": 1,
        "hand": "left"
      },
      {
        "midi": 60,
        "time": 46.714,
        "duration": 0.214,
        "velocity": 1,
        "hand": "right"
      },
      {
        "midi": 59,
        "time": 46.929,
        "duration": 0.214,
        "velocity": 1,
        "hand": "left"
      },
      {
        "midi": 45,
        "time": 47.143,
        "duration": 0.429,
        "velocity": 1,
        "hand": "left"
      },
      {
        "midi": 60,
        "time": 47.143,
        "duration": 1.071,
        "velocity": 1,
        "hand": "right"
      },
      {
        "midi": 45,
        "time": 47.571,
        "duration": 0.429,
        "velocity": 1,
        "hand": "left"
      },
      {
        "midi": 71,
        "time": 47.571,
        "duration": 0.429,
        "velocity": 1,
        "hand": "right"
      },
      {
        "midi": 43,
        "time": 48,
        "duration": 0.429,
        "velocity": 1,
        "hand": "left"
      },
      {
        "midi": 67,
        "time": 48,
        "duration": 1.714,
        "velocity": 1,
        "hand": "right"
      },
      {
        "midi": 72,
        "time": 48,
        "duration": 1.714,
        "velocity": 1,
        "hand": "right"
      },
      {
        "midi": 62,
        "time": 48.214,
        "duration": 0.214,
        "velocity": 1,
        "hand": "right"
      },
      {
        "midi": 43,
        "time": 48.429,
        "duration": 0.214,
        "velocity": 1,
        "hand": "left"
      },
      {
        "midi": 63,
        "time": 48.429,
        "duration": 0.429,
        "velocity": 1,
        "hand": "right"
      },
      {
        "midi": 42,
        "time": 48.643,
        "duration": 0.214,
        "velocity": 1,
        "hand": "left"
      },
      {
        "midi": 43,
        "time": 48.857,
        "duration": 0.214,
        "velocity": 1,
        "hand": "left"
      },
      {
        "midi": 63,
        "time": 48.857,
        "duration": 0.429,
        "velocity": 1,
        "hand": "right"
      },
      {
        "midi": 45,
        "time": 49.071,
        "duration": 0.214,
        "velocity": 1,
        "hand": "left"
      },
      {
        "midi": 46,
        "time": 49.286,
        "duration": 0.214,
        "velocity": 1,
        "hand": "left"
      },
      {
        "midi": 63,
        "time": 49.286,
        "duration": 0.429,
        "velocity": 1,
        "hand": "right"
      },
      {
        "midi": 48,
        "time": 49.5,
        "duration": 0.214,
        "velocity": 1,
        "hand": "left"
      },
      {
        "midi": 50,
        "time": 49.714,
        "duration": 0.857,
        "velocity": 1,
        "hand": "left"
      },
      {
        "midi": 63,
        "time": 49.714,
        "duration": 0.429,
        "velocity": 1,
        "hand": "right"
      },
      {
        "midi": 66,
        "time": 49.714,
        "duration": 1.714,
        "velocity": 1,
        "hand": "right"
      },
      {
        "midi": 62,
        "time": 50.143,
        "duration": 0.214,
        "velocity": 1,
        "hand": "right"
      },
      {
        "midi": 69,
        "time": 50.143,
        "duration": 0.429,
        "velocity": 1,
        "hand": "right"
      },
      {
        "midi": 60,
        "time": 50.357,
        "duration": 0.214,
        "velocity": 1,
        "hand": "right"
      },
      {
        "midi": 62,
        "time": 50.571,
        "duration": 0.857,
        "velocity": 1,
        "hand": "right"
      },
      {
        "midi": 69,
        "time": 50.571,
        "duration": 0.429,
        "velocity": 1,
        "hand": "right"
      },
      {
        "midi": 69,
        "time": 51,
        "duration": 0.429,
        "velocity": 1,
        "hand": "right"
      },
      {
        "midi": 47,
        "time": 51.429,
        "duration": 1.714,
        "velocity": 1,
        "hand": "left"
      },
      {
        "midi": 50,
        "time": 51.429,
        "duration": 1.286,
        "velocity": 1,
        "hand": "left"
      },
      {
        "midi": 69,
        "time": 51.429,
        "duration": 0.429,
        "velocity": 1,
        "hand": "right"
      },
      {
        "midi": 62,
        "time": 51.857,
        "duration": 0.429,
        "velocity": 1,
        "hand": "right"
      },
      {
        "midi": 67,
        "time": 51.857,
        "duration": 0.214,
        "velocity": 1,
        "hand": "right"
      },
      {
        "midi": 66,
        "time": 52.071,
        "duration": 0.214,
        "velocity": 1,
        "hand": "right"
      },
      {
        "midi": 62,
        "time": 52.286,
        "duration": 0.429,
        "velocity": 1,
        "hand": "right"
      },
      {
        "midi": 67,
        "time": 52.286,
        "duration": 0.857,
        "velocity": 1,
        "hand": "right"
      },
      {
        "midi": 52,
        "time": 52.714,
        "duration": 0.429,
        "velocity": 1,
        "hand": "left"
      },
      {
        "midi": 62,
        "time": 52.714,
        "duration": 0.429,
        "velocity": 1,
        "hand": "right"
      },
      {
        "midi": 45,
        "time": 53.143,
        "duration": 1.714,
        "velocity": 1,
        "hand": "left"
      },
      {
        "midi": 53,
        "time": 53.143,
        "duration": 0.429,
        "velocity": 1,
        "hand": "left"
      },
      {
        "midi": 62,
        "time": 53.143,
        "duration": 0.429,
        "velocity": 1,
        "hand": "right"
      },
      {
        "midi": 53,
        "time": 53.571,
        "duration": 0.429,
        "velocity": 1,
        "hand": "left"
      },
      {
        "midi": 60,
        "time": 53.571,
        "duration": 0.214,
        "velocity": 1,
        "hand": "right"
      },
      {
        "midi": 59,
        "time": 53.786,
        "duration": 0.214,
        "velocity": 1,
        "hand": "left"
      },
      {
        "midi": 53,
        "time": 54,
        "duration": 0.429,
        "velocity": 1,
        "hand": "left"
      },
      {
        "midi": 60,
        "time": 54,
        "duration": 1.071,
        "velocity": 1,
        "hand": "right"
      },
      {
        "midi": 53,
        "time": 54.429,
        "duration": 0.429,
        "velocity": 1,
        "hand": "left"
      },
      {
        "midi": 48,
        "time": 54.857,
        "duration": 1.714,
        "velocity": 1,
        "hand": "left"
      },
      {
        "midi": 53,
        "time": 54.857,
        "duration": 0.429,
        "velocity": 1,
        "hand": "left"
      },
      {
        "midi": 62,
        "time": 55.071,
        "duration": 0.214,
        "velocity": 1,
        "hand": "right"
      },
      {
        "midi": 51,
        "time": 55.286,
        "duration": 0.214,
        "velocity": 1,
        "hand": "left"
      },
      {
        "midi": 63,
        "time": 55.286,
        "duration": 0.429,
        "velocity": 1,
        "hand": "right"
      },
      {
        "midi": 50,
        "time": 55.5,
        "duration": 0.214,
        "velocity": 1,
        "hand": "left"
      },
      {
        "midi": 51,
        "time": 55.714,
        "duration": 0.857,
        "velocity": 1,
        "hand": "left"
      },
      {
        "midi": 63,
        "time": 55.714,
        "duration": 0.429,
        "velocity": 1,
        "hand": "right"
      },
      {
        "midi": 63,
        "time": 56.143,
        "duration": 0.429,
        "velocity": 1,
        "hand": "right"
      },
      {
        "midi": 47,
        "time": 56.571,
        "duration": 1.286,
        "velocity": 1,
        "hand": "left"
      },
      {
        "midi": 63,
        "time": 56.571,
        "duration": 0.429,
        "velocity": 1,
        "hand": "right"
      },
      {
        "midi": 55,
        "time": 57,
        "duration": 0.429,
        "velocity": 1,
        "hand": "left"
      },
      {
        "midi": 62,
        "time": 57,
        "duration": 0.214,
        "velocity": 1,
        "hand": "right"
      },
      {
        "midi": 60,
        "time": 57.214,
        "duration": 0.214,
        "velocity": 1,
        "hand": "right"
      },
      {
        "midi": 55,
        "time": 57.429,
        "duration": 0.429,
        "velocity": 1,
        "hand": "left"
      },
      {
        "midi": 62,
        "time": 57.429,
        "duration": 0.857,
        "velocity": 1,
        "hand": "right"
      },
      {
        "midi": 48,
        "time": 57.857,
        "duration": 0.429,
        "velocity": 1,
        "hand": "left"
      },
      {
        "midi": 55,
        "time": 57.857,
        "duration": 0.429,
        "velocity": 1,
        "hand": "left"
      },
      {
        "midi": 50,
        "time": 58.286,
        "duration": 1.286,
        "velocity": 1,
        "hand": "left"
      },
      {
        "midi": 55,
        "time": 58.286,
        "duration": 0.429,
        "velocity": 1,
        "hand": "left"
      },
      {
        "midi": 53,
        "time": 58.714,
        "duration": 0.214,
        "velocity": 1,
        "hand": "left"
      },
      {
        "midi": 62,
        "time": 58.714,
        "duration": 0.429,
        "velocity": 1,
        "hand": "right"
      },
      {
        "midi": 52,
        "time": 58.929,
        "duration": 0.214,
        "velocity": 1,
        "hand": "left"
      },
      {
        "midi": 53,
        "time": 59.143,
        "duration": 2.143,
        "velocity": 1,
        "hand": "left"
      },
      {
        "midi": 62,
        "time": 59.143,
        "duration": 0.429,
        "velocity": 1,
        "hand": "right"
      },
      {
        "midi": 52,
        "time": 59.571,
        "duration": 0.429,
        "velocity": 1,
        "hand": "left"
      },
      {
        "midi": 62,
        "time": 59.571,
        "duration": 0.429,
        "velocity": 1,
        "hand": "right"
      },
      {
        "midi": 62,
        "time": 60,
        "duration": 0.429,
        "velocity": 1,
        "hand": "right"
      },
      {
        "midi": 55,
        "time": 60.214,
        "duration": 0.214,
        "velocity": 1,
        "hand": "left"
      },
      {
        "midi": 56,
        "time": 60.429,
        "duration": 0.429,
        "velocity": 1,
        "hand": "left"
      },
      {
        "midi": 60,
        "time": 60.429,
        "duration": 0.214,
        "velocity": 1,
        "hand": "right"
      },
      {
        "midi": 59,
        "time": 60.643,
        "duration": 0.214,
        "velocity": 1,
        "hand": "left"
      },
      {
        "midi": 56,
        "time": 60.857,
        "duration": 0.429,
        "velocity": 1,
        "hand": "left"
      },
      {
        "midi": 60,
        "time": 60.857,
        "duration": 0.429,
        "velocity": 1,
        "hand": "right"
      },
      {
        "midi": 51,
        "time": 61.286,
        "duration": 0.214,
        "velocity": 1,
        "hand": "left"
      },
      {
        "midi": 56,
        "time": 61.286,
        "duration": 0.429,
        "velocity": 1,
        "hand": "left"
      },
      {
        "midi": 60,
        "time": 61.286,
        "duration": 0.643,
        "velocity": 1,
        "hand": "right"
      },
      {
        "midi": 50,
        "time": 61.5,
        "duration": 0.214,
        "velocity": 1,
        "hand": "left"
      },
      {
        "midi": 48,
        "time": 61.714,
        "duration": 1.714,
        "velocity": 1,
        "hand": "left"
      },
      {
        "midi": 56,
        "time": 61.714,
        "duration": 0.429,
        "velocity": 1,
        "hand": "left"
      },
      {
        "midi": 62,
        "time": 61.929,
        "duration": 0.214,
        "velocity": 1,
        "hand": "right"
      },
      {
        "midi": 55,
        "time": 62.143,
        "duration": 0.214,
        "velocity": 1,
        "hand": "left"
      },
      {
        "midi": 63,
        "time": 62.143,
        "duration": 0.429,
        "velocity": 1,
        "hand": "right"
      },
      {
        "midi": 53,
        "time": 62.357,
        "duration": 0.214,
        "velocity": 1,
        "hand": "left"
      },
      {
        "midi": 55,
        "time": 62.571,
        "duration": 1.929,
        "velocity": 1,
        "hand": "left"
      },
      {
        "midi": 63,
        "time": 62.571,
        "duration": 0.429,
        "velocity": 1,
        "hand": "right"
      },
      {
        "midi": 63,
        "time": 63,
        "duration": 0.429,
        "velocity": 1,
        "hand": "right"
      },
      {
        "midi": 46,
        "time": 63.429,
        "duration": 0.857,
        "velocity": 1,
        "hand": "left"
      },
      {
        "midi": 63,
        "time": 63.429,
        "duration": 0.429,
        "velocity": 1,
        "hand": "right"
      },
      {
        "midi": 62,
        "time": 63.857,
        "duration": 0.214,
        "velocity": 1,
        "hand": "right"
      },
      {
        "midi": 60,
        "time": 64.071,
        "duration": 0.214,
        "velocity": 1,
        "hand": "right"
      },
      {
        "midi": 62,
        "time": 64.286,
        "duration": 0.857,
        "velocity": 1,
        "hand": "right"
      },
      {
        "midi": 57,
        "time": 64.5,
        "duration": 0.214,
        "velocity": 1,
        "hand": "left"
      },
      {
        "midi": 58,
        "time": 64.714,
        "duration": 0.214,
        "velocity": 1,
        "hand": "left"
      },
      {
        "midi": 60,
        "time": 64.929,
        "duration": 0.214,
        "velocity": 1,
        "hand": "right"
      },
      {
        "midi": 62,
        "time": 65.143,
        "duration": 2.571,
        "velocity": 1,
        "hand": "right"
      },
      {
        "midi": 67,
        "time": 65.143,
        "duration": 1.714,
        "velocity": 1,
        "hand": "right"
      },
      {
        "midi": 70,
        "time": 65.143,
        "duration": 1.714,
        "velocity": 1,
        "hand": "right"
      },
      {
        "midi": 55,
        "time": 65.571,
        "duration": 0.429,
        "velocity": 1,
        "hand": "left"
      },
      {
        "midi": 55,
        "time": 66,
        "duration": 0.429,
        "velocity": 1,
        "hand": "left"
      },
      {
        "midi": 55,
        "time": 66.429,
        "duration": 0.429,
        "velocity": 1,
        "hand": "left"
      },
      {
        "midi": 55,
        "time": 66.857,
        "duration": 0.429,
        "velocity": 1,
        "hand": "left"
      },
      {
        "midi": 69,
        "time": 66.857,
        "duration": 1.714,
        "velocity": 1,
        "hand": "right"
      },
      {
        "midi": 53,
        "time": 67.286,
        "duration": 0.214,
        "velocity": 1,
        "hand": "left"
      },
      {
        "midi": 52,
        "time": 67.5,
        "duration": 0.214,
        "velocity": 1,
        "hand": "left"
      },
      {
        "midi": 53,
        "time": 67.714,
        "duration": 1.071,
        "velocity": 1,
        "hand": "left"
      },
      {
        "midi": 67,
        "time": 68.143,
        "duration": 0.429,
        "velocity": 1,
        "hand": "right"
      },
      {
        "midi": 65,
        "time": 68.571,
        "duration": 1.286,
        "velocity": 1,
        "hand": "right"
      },
      {
        "midi": 72,
        "time": 68.571,
        "duration": 1.714,
        "velocity": 1,
        "hand": "right"
      },
      {
        "midi": 55,
        "time": 68.786,
        "duration": 0.214,
        "velocity": 1,
        "hand": "left"
      },
      {
        "midi": 56,
        "time": 69,
        "duration": 0.429,
        "velocity": 1,
        "hand": "left"
      },
      {
        "midi": 56,
        "time": 69.429,
        "duration": 0.429,
        "velocity": 1,
        "hand": "left"
      },
      {
        "midi": 56,
        "time": 69.857,
        "duration": 0.429,
        "velocity": 1,
        "hand": "left"
      },
      {
        "midi": 63,
        "time": 69.857,
        "duration": 0.429,
        "velocity": 1,
        "hand": "right"
      },
      {
        "midi": 56,
        "time": 70.286,
        "duration": 0.429,
        "velocity": 1,
        "hand": "left"
      },
      {
        "midi": 62,
        "time": 70.286,
        "duration": 2.571,
        "velocity": 1,
        "hand": "right"
      },
      {
        "midi": 71,
        "time": 70.286,
        "duration": 1.286,
        "velocity": 1,
        "hand": "right"
      },
      {
        "midi": 55,
        "time": 70.714,
        "duration": 0.214,
        "velocity": 1,
        "hand": "left"
      },
      {
        "midi": 53,
        "time": 70.929,
        "duration": 0.214,
        "velocity": 1,
        "hand": "left"
      },
      {
        "midi": 55,
        "time": 71.143,
        "duration": 0.857,
        "velocity": 1,
        "hand": "left"
      },
      {
        "midi": 72,
        "time": 71.571,
        "duration": 0.429,
        "velocity": 1,
        "hand": "right"
      },
      {
        "midi": 50,
        "time": 72,
        "duration": 0.857,
        "velocity": 1,
        "hand": "left"
      },
      {
        "midi": 53,
        "time": 72,
        "duration": 1.714,
        "velocity": 1,
        "hand": "left"
      },
      {
        "midi": 74,
        "time": 72,
        "duration": 0.429,
        "velocity": 1,
        "hand": "right"
      },
      {
        "midi": 69,
        "time": 72.429,
        "duration": 0.429,
        "velocity": 1,
        "hand": "right"
      },
      {
        "midi": 41,
        "time": 72.857,
        "duration": 0.214,
        "velocity": 1,
        "hand": "left"
      },
      {
        "midi": 69,
        "time": 72.857,
        "duration": 0.429,
        "velocity": 1,
        "hand": "right"
      },
      {
        "midi": 43,
        "time": 73.071,
        "duration": 0.214,
        "velocity": 1,
        "hand": "left"
      },
      {
        "midi": 45,
        "time": 73.286,
        "duration": 0.214,
        "velocity": 1,
        "hand": "left"
      },
      {
        "midi": 69,
        "time": 73.286,
        "duration": 0.429,
        "velocity": 1,
        "hand": "right"
      },
      {
        "midi": 47,
        "time": 73.5,
        "duration": 0.214,
        "velocity": 1,
        "hand": "left"
      },
      {
        "midi": 48,
        "time": 73.714,
        "duration": 1.714,
        "velocity": 1,
        "hand": "left"
      },
      {
        "midi": 52,
        "time": 73.714,
        "duration": 1.714,
        "velocity": 1,
        "hand": "left"
      },
      {
        "midi": 69,
        "time": 73.714,
        "duration": 0.429,
        "velocity": 1,
        "hand": "right"
      },
      {
        "midi": 64,
        "time": 74.143,
        "duration": 0.429,
        "velocity": 1,
        "hand": "right"
      },
      {
        "midi": 67,
        "time": 74.143,
        "duration": 0.214,
        "velocity": 1,
        "hand": "right"
      },
      {
        "midi": 66,
        "time": 74.357,
        "duration": 0.214,
        "velocity": 1,
        "hand": "right"
      },
      {
        "midi": 64,
        "time": 74.571,
        "duration": 0.429,
        "velocity": 1,
        "hand": "right"
      },
      {
        "midi": 67,
        "time": 74.571,
        "duration": 1.071,
        "velocity": 1,
        "hand": "right"
      },
      {
        "midi": 64,
        "time": 75,
        "duration": 0.429,
        "velocity": 1,
        "hand": "right"
      },
      {
        "midi": 46,
        "time": 75.429,
        "duration": 1.286,
        "velocity": 1,
        "hand": "left"
      },
      {
        "midi": 55,
        "time": 75.429,
        "duration": 1.714,
        "velocity": 1,
        "hand": "left"
      },
      {
        "midi": 64,
        "time": 75.429,
        "duration": 0.429,
        "velocity": 1,
        "hand": "right"
      },
      {
        "midi": 69,
        "time": 75.643,
        "duration": 0.214,
        "velocity": 1,
        "hand": "right"
      },
      {
        "midi": 62,
        "time": 75.857,
        "duration": 0.214,
        "velocity": 1,
        "hand": "right"
      },
      {
        "midi": 70,
        "time": 75.857,
        "duration": 0.429,
        "velocity": 1,
        "hand": "right"
      },
      {
        "midi": 61,
        "time": 76.071,
        "duration": 0.214,
        "velocity": 1,
        "hand": "right"
      },
      {
        "midi": 62,
        "time": 76.286,
        "duration": 0.857,
        "velocity": 1,
        "hand": "right"
      },
      {
        "midi": 70,
        "time": 76.286,
        "duration": 0.429,
        "velocity": 1,
        "hand": "right"
      },
      {
        "midi": 48,
        "time": 76.714,
        "duration": 0.429,
        "velocity": 1,
        "hand": "left"
      },
      {
        "midi": 70,
        "time": 76.714,
        "duration": 0.429,
        "velocity": 1,
        "hand": "right"
      },
      {
        "midi": 50,
        "time": 77.143,
        "duration": 1.714,
        "velocity": 1,
        "hand": "left"
      },
      {
        "midi": 54,
        "time": 77.143,
        "duration": 0.429,
        "velocity": 1,
        "hand": "left"
      },
      {
        "midi": 70,
        "time": 77.143,
        "duration": 0.429,
        "velocity": 1,
        "hand": "right"
      },
      {
        "midi": 60,
        "time": 77.571,
        "duration": 0.429,
        "velocity": 1,
        "hand": "right"
      },
      {
        "midi": 69,
        "time": 77.571,
        "duration": 0.214,
        "velocity": 1,
        "hand": "right"
      },
      {
        "midi": 67,
        "time": 77.786,
        "duration": 0.214,
        "velocity": 1,
        "hand": "right"
      },
      {
        "midi": 60,
        "time": 78,
        "duration": 0.429,
        "velocity": 1,
        "hand": "right"
      },
      {
        "midi": 69,
        "time": 78,
        "duration": 0.857,
        "velocity": 1,
        "hand": "right"
      },
      {
        "midi": 60,
        "time": 78.429,
        "duration": 0.429,
        "velocity": 1,
        "hand": "right"
      },
      {
        "midi": 55,
        "time": 78.857,
        "duration": 1.714,
        "velocity": 1,
        "hand": "left"
      },
      {
        "midi": 60,
        "time": 78.857,
        "duration": 0.429,
        "velocity": 1,
        "hand": "right"
      },
      {
        "midi": 67,
        "time": 78.857,
        "duration": 0.214,
        "velocity": 1,
        "hand": "right"
      },
      {
        "midi": 69,
        "time": 79.071,
        "duration": 0.214,
        "velocity": 1,
        "hand": "right"
      },
      {
        "midi": 58,
        "time": 79.286,
        "duration": 0.214,
        "velocity": 1,
        "hand": "left"
      },
      {
        "midi": 70,
        "time": 79.286,
        "duration": 0.429,
        "velocity": 1,
        "hand": "right"
      },
      {
        "midi": 57,
        "time": 79.5,
        "duration": 0.214,
        "velocity": 1,
        "hand": "left"
      },
      {
        "midi": 70,
        "time": 79.714,
        "duration": 0.429,
        "velocity": 1,
        "hand": "right"
      },
      {
        "midi": 57,
        "time": 79.929,
        "duration": 0.214,
        "velocity": 1,
        "hand": "left"
      },
      {
        "midi": 58,
        "time": 80.143,
        "duration": 0.214,
        "velocity": 1,
        "hand": "left"
      },
      {
        "midi": 70,
        "time": 80.143,
        "duration": 0.429,
        "velocity": 1,
        "hand": "right"
      },
      {
        "midi": 60,
        "time": 80.357,
        "duration": 0.214,
        "velocity": 1,
        "hand": "right"
      },
      {
        "midi": 50,
        "time": 80.571,
        "duration": 1.286,
        "velocity": 1,
        "hand": "left"
      },
      {
        "midi": 62,
        "time": 80.571,
        "duration": 0.214,
        "velocity": 1,
        "hand": "right"
      },
      {
        "midi": 62,
        "time": 80.571,
        "duration": 0.429,
        "velocity": 1,
        "hand": "right"
      },
      {
        "midi": 70,
        "time": 80.571,
        "duration": 0.429,
        "velocity": 1,
        "hand": "right"
      },
      {
        "midi": 64,
        "time": 80.786,
        "duration": 0.214,
        "velocity": 1,
        "hand": "right"
      },
      {
        "midi": 62,
        "time": 81,
        "duration": 0.429,
        "velocity": 1,
        "hand": "right"
      },
      {
        "midi": 65,
        "time": 81,
        "duration": 0.429,
        "velocity": 1,
        "hand": "right"
      },
      {
        "midi": 69,
        "time": 81,
        "duration": 0.214,
        "velocity": 1,
        "hand": "right"
      },
      {
        "midi": 67,
        "time": 81.214,
        "duration": 0.214,
        "velocity": 1,
        "hand": "right"
      },
      {
        "midi": 62,
        "time": 81.429,
        "duration": 0.429,
        "velocity": 1,
        "hand": "right"
      },
      {
        "midi": 65,
        "time": 81.429,
        "duration": 0.429,
        "velocity": 1,
        "hand": "right"
      },
      {
        "midi": 69,
        "time": 81.429,
        "duration": 0.857,
        "velocity": 1,
        "hand": "right"
      },
      {
        "midi": 52,
        "time": 81.857,
        "duration": 0.429,
        "velocity": 1,
        "hand": "left"
      },
      {
        "midi": 62,
        "time": 81.857,
        "duration": 0.429,
        "velocity": 1,
        "hand": "right"
      },
      {
        "midi": 65,
        "time": 81.857,
        "duration": 0.429,
        "velocity": 1,
        "hand": "right"
      },
      {
        "midi": 53,
        "time": 82.286,
        "duration": 1.714,
        "velocity": 1,
        "hand": "left"
      },
      {
        "midi": 56,
        "time": 82.286,
        "duration": 0.857,
        "velocity": 1,
        "hand": "left"
      },
      {
        "midi": 60,
        "time": 82.286,
        "duration": 0.857,
        "velocity": 1,
        "hand": "right"
      },
      {
        "midi": 65,
        "time": 82.286,
        "duration": 0.214,
        "velocity": 1,
        "hand": "right"
      },
      {
        "midi": 67,
        "time": 82.5,
        "duration": 0.214,
        "velocity": 1,
        "hand": "right"
      },
      {
        "midi": 68,
        "time": 82.714,
        "duration": 0.429,
        "velocity": 1,
        "hand": "right"
      },
      {
        "midi": 68,
        "time": 83.143,
        "duration": 0.429,
        "velocity": 1,
        "hand": "right"
      },
      {
        "midi": 55,
        "time": 83.357,
        "duration": 0.214,
        "velocity": 1,
        "hand": "left"
      },
      {
        "midi": 56,
        "time": 83.571,
        "duration": 0.214,
        "velocity": 1,
        "hand": "left"
      },
      {
        "midi": 68,
        "time": 83.571,
        "duration": 0.429,
        "velocity": 1,
        "hand": "right"
      },
      {
        "midi": 58,
        "time": 83.786,
        "duration": 0.214,
        "velocity": 1,
        "hand": "left"
      },
      {
        "midi": 48,
        "time": 84,
        "duration": 1.286,
        "velocity": 1,
        "hand": "left"
      },
      {
        "midi": 60,
        "time": 84,
        "duration": 0.214,
        "velocity": 1,
        "hand": "right"
      },
      {
        "midi": 60,
        "time": 84,
        "duration": 0.429,
        "velocity": 1,
        "hand": "right"
      },
      {
        "midi": 68,
        "time": 84,
        "duration": 0.429,
        "velocity": 1,
        "hand": "right"
      },
      {
        "midi": 62,
        "time": 84.214,
        "duration": 0.214,
        "velocity": 1,
        "hand": "right"
      },
      {
        "midi": 60,
        "time": 84.429,
        "duration": 0.429,
        "velocity": 1,
        "hand": "right"
      },
      {
        "midi": 63,
        "time": 84.429,
        "duration": 0.429,
        "velocity": 1,
        "hand": "right"
      },
      {
        "midi": 67,
        "time": 84.429,
        "duration": 0.214,
        "velocity": 1,
        "hand": "right"
      },
      {
        "midi": 65,
        "time": 84.643,
        "duration": 0.214,
        "velocity": 1,
        "hand": "right"
      },
      {
        "midi": 60,
        "time": 84.857,
        "duration": 0.429,
        "velocity": 1,
        "hand": "right"
      },
      {
        "midi": 63,
        "time": 84.857,
        "duration": 0.429,
        "velocity": 1,
        "hand": "right"
      },
      {
        "midi": 67,
        "time": 84.857,
        "duration": 1.286,
        "velocity": 1,
        "hand": "right"
      },
      {
        "midi": 50,
        "time": 85.286,
        "duration": 0.214,
        "velocity": 1,
        "hand": "left"
      },
      {
        "midi": 60,
        "time": 85.286,
        "duration": 0.429,
        "velocity": 1,
        "hand": "right"
      },
      {
        "midi": 63,
        "time": 85.286,
        "duration": 0.429,
        "velocity": 1,
        "hand": "right"
      },
      {
        "midi": 51,
        "time": 85.5,
        "duration": 0.214,
        "velocity": 1,
        "hand": "left"
      },
      {
        "midi": 53,
        "time": 85.714,
        "duration": 3.429,
        "velocity": 1,
        "hand": "left"
      },
      {
        "midi": 62,
        "time": 85.714,
        "duration": 0.857,
        "velocity": 1,
        "hand": "right"
      },
      {
        "midi": 58,
        "time": 86.143,
        "duration": 0.429,
        "velocity": 1,
        "hand": "left"
      },
      {
        "midi": 65,
        "time": 86.143,
        "duration": 0.214,
        "velocity": 1,
        "hand": "right"
      },
      {
        "midi": 64,
        "time": 86.357,
        "duration": 0.214,
        "velocity": 1,
        "hand": "right"
      },
      {
        "midi": 58,
        "time": 86.571,
        "duration": 0.429,
        "velocity": 1,
        "hand": "left"
      },
      {
        "midi": 61,
        "time": 86.571,
        "duration": 0.857,
        "velocity": 1,
        "hand": "right"
      },
      {
        "midi": 65,
        "time": 86.571,
        "duration": 2.571,
        "velocity": 1,
        "hand": "right"
      },
      {
        "midi": 58,
        "time": 87,
        "duration": 0.429,
        "velocity": 1,
        "hand": "left"
      },
      {
        "midi": 58,
        "time": 87.429,
        "duration": 0.429,
        "velocity": 1,
        "hand": "left"
      },
      {
        "midi": 60,
        "time": 87.429,
        "duration": 0.857,
        "velocity": 1,
        "hand": "right"
      },
      {
        "midi": 57,
        "time": 87.857,
        "duration": 0.214,
        "velocity": 1,
        "hand": "left"
      },
      {
        "midi": 55,
        "time": 88.071,
        "duration": 0.214,
        "velocity": 1,
        "hand": "left"
      },
      {
        "midi": 57,
        "time": 88.286,
        "duration": 0.857,
        "velocity": 1,
        "hand": "left"
      },
      {
        "midi": 60,
        "time": 88.286,
        "duration": 0.857,
        "velocity": 1,
        "hand": "right"
      },
      {
        "midi": 46,
        "time": 90,
        "duration": 0.857,
        "velocity": 1,
        "hand": "left"
      },
      {
        "midi": 45,
        "time": 90.857,
        "duration": 1.714,
        "velocity": 1,
        "hand": "left"
      },
      {
        "midi": 53,
        "time": 91.714,
        "duration": 0.857,
        "velocity": 1,
        "hand": "left"
      },
      {
        "midi": 48,
        "time": 92.571,
        "duration": 1.714,
        "velocity": 1,
        "hand": "left"
      },
      {
        "midi": 52,
        "time": 92.571,
        "duration": 1.714,
        "velocity": 1,
        "hand": "left"
      },
      {
        "midi": 47,
        "time": 94.286,
        "duration": 0.429,
        "velocity": 1,
        "hand": "left"
      },
      {
        "midi": 55,
        "time": 94.286,
        "duration": 1.714,
        "velocity": 1,
        "hand": "left"
      },
      {
        "midi": 45,
        "time": 94.714,
        "duration": 0.429,
        "velocity": 1,
        "hand": "left"
      },
      {
        "midi": 47,
        "time": 95.143,
        "duration": 0.429,
        "velocity": 1,
        "hand": "left"
      },
      {
        "midi": 48,
        "time": 95.571,
        "duration": 0.429,
        "velocity": 1,
        "hand": "left"
      },
      {
        "midi": 50,
        "time": 96,
        "duration": 0.429,
        "velocity": 1,
        "hand": "left"
      },
      {
        "midi": 54,
        "time": 96,
        "duration": 1.714,
        "velocity": 1,
        "hand": "left"
      },
      {
        "midi": 48,
        "time": 96.429,
        "duration": 0.429,
        "velocity": 1,
        "hand": "left"
      },
      {
        "midi": 46,
        "time": 96.857,
        "duration": 0.429,
        "velocity": 1,
        "hand": "left"
      },
      {
        "midi": 45,
        "time": 97.286,
        "duration": 0.429,
        "velocity": 1,
        "hand": "left"
      },
      {
        "midi": 43,
        "time": 97.714,
        "duration": 0.429,
        "velocity": 1,
        "hand": "left"
      },
      {
        "midi": 55,
        "time": 97.714,
        "duration": 2.143,
        "velocity": 1,
        "hand": "left"
      },
      {
        "midi": 45,
        "time": 98.143,
        "duration": 0.429,
        "velocity": 1,
        "hand": "left"
      },
      {
        "midi": 46,
        "time": 98.571,
        "duration": 0.429,
        "velocity": 1,
        "hand": "left"
      },
      {
        "midi": 58,
        "time": 98.571,
        "duration": 0.857,
        "velocity": 1,
        "hand": "left"
      },
      {
        "midi": 48,
        "time": 99,
        "duration": 0.429,
        "velocity": 1,
        "hand": "left"
      },
      {
        "midi": 50,
        "time": 99.429,
        "duration": 0.857,
        "velocity": 1,
        "hand": "left"
      },
      {
        "midi": 57,
        "time": 99.429,
        "duration": 1.714,
        "velocity": 1,
        "hand": "left"
      },
      {
        "midi": 53,
        "time": 99.857,
        "duration": 0.429,
        "velocity": 1,
        "hand": "left"
      },
      {
        "midi": 38,
        "time": 100.286,
        "duration": 0.857,
        "velocity": 1,
        "hand": "left"
      },
      {
        "midi": 52,
        "time": 100.286,
        "duration": 0.429,
        "velocity": 1,
        "hand": "left"
      },
      {
        "midi": 65,
        "time": 100.286,
        "duration": 0.857,
        "velocity": 1,
        "hand": "right"
      },
      {
        "midi": 50,
        "time": 100.714,
        "duration": 0.429,
        "velocity": 1,
        "hand": "left"
      },
      {
        "midi": 45,
        "time": 101.143,
        "duration": 1.714,
        "velocity": 1,
        "hand": "left"
      },
      {
        "midi": 48,
        "time": 101.143,
        "duration": 0.429,
        "velocity": 1,
        "hand": "left"
      },
      {
        "midi": 60,
        "time": 101.143,
        "duration": 1.714,
        "velocity": 1,
        "hand": "right"
      },
      {
        "midi": 63,
        "time": 101.143,
        "duration": 1.714,
        "velocity": 1,
        "hand": "right"
      },
      {
        "midi": 47,
        "time": 102,
        "duration": 0.429,
        "velocity": 1,
        "hand": "left"
      },
      {
        "midi": 48,
        "time": 102.429,
        "duration": 0.429,
        "velocity": 1,
        "hand": "left"
      },
      {
        "midi": 43,
        "time": 102.857,
        "duration": 1.714,
        "velocity": 1,
        "hand": "left"
      },
      {
        "midi": 50,
        "time": 102.857,
        "duration": 3.429,
        "velocity": 1,
        "hand": "left"
      },
      {
        "midi": 59,
        "time": 102.857,
        "duration": 0.429,
        "velocity": 1,
        "hand": "left"
      },
      {
        "midi": 67,
        "time": 102.857,
        "duration": 1.714,
        "velocity": 1,
        "hand": "right"
      },
      {
        "midi": 57,
        "time": 103.286,
        "duration": 0.429,
        "velocity": 1,
        "hand": "left"
      },
      {
        "midi": 58,
        "time": 103.714,
        "duration": 0.429,
        "velocity": 1,
        "hand": "left"
      },
      {
        "midi": 60,
        "time": 104.143,
        "duration": 0.429,
        "velocity": 1,
        "hand": "right"
      },
      {
        "midi": 38,
        "time": 104.571,
        "duration": 1.714,
        "velocity": 1,
        "hand": "left"
      },
      {
        "midi": 62,
        "time": 104.571,
        "duration": 0.429,
        "velocity": 1,
        "hand": "right"
      },
      {
        "midi": 66,
        "time": 104.571,
        "duration": 1.714,
        "velocity": 1,
        "hand": "right"
      },
      {
        "midi": 63,
        "time": 105,
        "duration": 0.429,
        "velocity": 1,
        "hand": "right"
      },
      {
        "midi": 62,
        "time": 105.429,
        "duration": 0.429,
        "velocity": 1,
        "hand": "right"
      },
      {
        "midi": 60,
        "time": 105.857,
        "duration": 0.429,
        "velocity": 1,
        "hand": "right"
      },
      {
        "midi": 43,
        "time": 106.286,
        "duration": 15.429,
        "velocity": 1,
        "hand": "left"
      },
      {
        "midi": 58,
        "time": 106.286,
        "duration": 1.286,
        "velocity": 1,
        "hand": "left"
      },
      {
        "midi": 67,
        "time": 106.286,
        "duration": 0.857,
        "velocity": 1,
        "hand": "right"
      },
      {
        "midi": 55,
        "time": 106.714,
        "duration": 0.429,
        "velocity": 1,
        "hand": "left"
      },
      {
        "midi": 55,
        "time": 107.143,
        "duration": 0.429,
        "velocity": 1,
        "hand": "left"
      },
      {
        "midi": 70,
        "time": 107.143,
        "duration": 1.714,
        "velocity": 1,
        "hand": "right"
      },
      {
        "midi": 55,
        "time": 107.571,
        "duration": 0.429,
        "velocity": 1,
        "hand": "left"
      },
      {
        "midi": 60,
        "time": 107.571,
        "duration": 0.429,
        "velocity": 1,
        "hand": "right"
      },
      {
        "midi": 55,
        "time": 108,
        "duration": 0.429,
        "velocity": 1,
        "hand": "left"
      },
      {
        "midi": 62,
        "time": 108,
        "duration": 1.714,
        "velocity": 1,
        "hand": "right"
      },
      {
        "midi": 53,
        "time": 108.429,
        "duration": 0.214,
        "velocity": 1,
        "hand": "left"
      },
      {
        "midi": 52,
        "time": 108.643,
        "duration": 0.214,
        "velocity": 1,
        "hand": "left"
      },
      {
        "midi": 53,
        "time": 108.857,
        "duration": 1.071,
        "velocity": 1,
        "hand": "left"
      },
      {
        "midi": 69,
        "time": 108.857,
        "duration": 0.857,
        "velocity": 1,
        "hand": "right"
      },
      {
        "midi": 60,
        "time": 109.714,
        "duration": 1.714,
        "velocity": 1,
        "hand": "right"
      },
      {
        "midi": 72,
        "time": 109.714,
        "duration": 1.714,
        "velocity": 1,
        "hand": "right"
      },
      {
        "midi": 55,
        "time": 109.929,
        "duration": 0.214,
        "velocity": 1,
        "hand": "left"
      },
      {
        "midi": 56,
        "time": 110.143,
        "duration": 0.429,
        "velocity": 1,
        "hand": "left"
      },
      {
        "midi": 56,
        "time": 110.571,
        "duration": 0.429,
        "velocity": 1,
        "hand": "left"
      },
      {
        "midi": 56,
        "time": 111,
        "duration": 0.429,
        "velocity": 1,
        "hand": "left"
      },
      {
        "midi": 56,
        "time": 111.429,
        "duration": 0.429,
        "velocity": 1,
        "hand": "left"
      },
      {
        "midi": 62,
        "time": 111.429,
        "duration": 1.714,
        "velocity": 1,
        "hand": "right"
      },
      {
        "midi": 71,
        "time": 111.429,
        "duration": 1.071,
        "velocity": 1,
        "hand": "right"
      },
      {
        "midi": 55,
        "time": 111.857,
        "duration": 0.214,
        "velocity": 1,
        "hand": "left"
      },
      {
        "midi": 53,
        "time": 112.071,
        "duration": 0.214,
        "velocity": 1,
        "hand": "left"
      },
      {
        "midi": 55,
        "time": 112.286,
        "duration": 0.429,
        "velocity": 1,
        "hand": "left"
      },
      {
        "midi": 67,
        "time": 112.5,
        "duration": 0.214,
        "velocity": 1,
        "hand": "right"
      },
      {
        "midi": 53,
        "time": 112.714,
        "duration": 0.857,
        "velocity": 1,
        "hand": "left"
      },
      {
        "midi": 69,
        "time": 112.714,
        "duration": 0.214,
        "velocity": 1,
        "hand": "right"
      },
      {
        "midi": 71,
        "time": 112.929,
        "duration": 0.214,
        "velocity": 1,
        "hand": "right"
      },
      {
        "midi": 60,
        "time": 113.143,
        "duration": 1.071,
        "velocity": 1,
        "hand": "right"
      },
      {
        "midi": 72,
        "time": 113.143,
        "duration": 0.429,
        "velocity": 1,
        "hand": "right"
      },
      {
        "midi": 51,
        "time": 113.571,
        "duration": 0.214,
        "velocity": 1,
        "hand": "left"
      },
      {
        "midi": 72,
        "time": 113.571,
        "duration": 0.429,
        "velocity": 1,
        "hand": "right"
      },
      {
        "midi": 50,
        "time": 113.786,
        "duration": 0.214,
        "velocity": 1,
        "hand": "left"
      },
      {
        "midi": 51,
        "time": 114,
        "duration": 0.857,
        "velocity": 1,
        "hand": "left"
      },
      {
        "midi": 72,
        "time": 114,
        "duration": 0.429,
        "velocity": 1,
        "hand": "right"
      },
      {
        "midi": 62,
        "time": 114.214,
        "duration": 0.214,
        "velocity": 1,
        "hand": "right"
      },
      {
        "midi": 63,
        "time": 114.429,
        "duration": 0.214,
        "velocity": 1,
        "hand": "right"
      },
      {
        "midi": 72,
        "time": 114.429,
        "duration": 0.429,
        "velocity": 1,
        "hand": "right"
      },
      {
        "midi": 65,
        "time": 114.643,
        "duration": 0.214,
        "velocity": 1,
        "hand": "right"
      },
      {
        "midi": 50,
        "time": 114.857,
        "duration": 0.429,
        "velocity": 1,
        "hand": "left"
      },
      {
        "midi": 67,
        "time": 114.857,
        "duration": 1.286,
        "velocity": 1,
        "hand": "right"
      },
      {
        "midi": 72,
        "time": 114.857,
        "duration": 0.429,
        "velocity": 1,
        "hand": "right"
      },
      {
        "midi": 62,
        "time": 115.286,
        "duration": 0.429,
        "velocity": 1,
        "hand": "right"
      },
      {
        "midi": 70,
        "time": 115.286,
        "duration": 0.214,
        "velocity": 1,
        "hand": "right"
      },
      {
        "midi": 69,
        "time": 115.5,
        "duration": 0.214,
        "velocity": 1,
        "hand": "right"
      },
      {
        "midi": 62,
        "time": 115.714,
        "duration": 0.429,
        "velocity": 1,
        "hand": "right"
      },
      {
        "midi": 70,
        "time": 115.714,
        "duration": 1.286,
        "velocity": 1,
        "hand": "right"
      },
      {
        "midi": 62,
        "time": 116.143,
        "duration": 0.429,
        "velocity": 1,
        "hand": "right"
      },
      {
        "midi": 65,
        "time": 116.143,
        "duration": 0.429,
        "velocity": 1,
        "hand": "right"
      },
      {
        "midi": 62,
        "time": 116.571,
        "duration": 0.429,
        "velocity": 1,
        "hand": "right"
      },
      {
        "midi": 64,
        "time": 116.571,
        "duration": 0.857,
        "velocity": 1,
        "hand": "right"
      },
      {
        "midi": 61,
        "time": 117,
        "duration": 0.214,
        "velocity": 1,
        "hand": "right"
      },
      {
        "midi": 69,
        "time": 117,
        "duration": 0.214,
        "velocity": 1,
        "hand": "right"
      },
      {
        "midi": 59,
        "time": 117.214,
        "duration": 0.214,
        "velocity": 1,
        "hand": "left"
      },
      {
        "midi": 67,
        "time": 117.214,
        "duration": 0.214,
        "velocity": 1,
        "hand": "right"
      },
      {
        "midi": 60,
        "time": 117.429,
        "duration": 0.429,
        "velocity": 1,
        "hand": "right"
      },
      {
        "midi": 63,
        "time": 117.429,
        "duration": 0.857,
        "velocity": 1,
        "hand": "right"
      },
      {
        "midi": 69,
        "time": 117.429,
        "duration": 1.286,
        "velocity": 1,
        "hand": "right"
      },
      {
        "midi": 60,
        "time": 117.857,
        "duration": 0.429,
        "velocity": 1,
        "hand": "right"
      },
      {
        "midi": 60,
        "time": 118.286,
        "duration": 0.429,
        "velocity": 1,
        "hand": "right"
      },
      {
        "midi": 59,
        "time": 118.714,
        "duration": 0.214,
        "velocity": 1,
        "hand": "left"
      },
      {
        "midi": 62,
        "time": 118.714,
        "duration": 0.429,
        "velocity": 1,
        "hand": "right"
      },
      {
        "midi": 67,
        "time": 118.714,
        "duration": 0.214,
        "velocity": 1,
        "hand": "right"
      },
      {
        "midi": 57,
        "time": 118.929,
        "duration": 0.214,
        "velocity": 1,
        "hand": "left"
      },
      {
        "midi": 66,
        "time": 118.929,
        "duration": 0.214,
        "velocity": 1,
        "hand": "right"
      },
      {
        "midi": 58,
        "time": 119.143,
        "duration": 0.857,
        "velocity": 1,
        "hand": "left"
      },
      {
        "midi": 62,
        "time": 119.143,
        "duration": 0.429,
        "velocity": 1,
        "hand": "right"
      },
      {
        "midi": 67,
        "time": 119.143,
        "duration": 1.286,
        "velocity": 1,
        "hand": "right"
      },
      {
        "midi": 62,
        "time": 119.571,
        "duration": 0.429,
        "velocity": 1,
        "hand": "right"
      },
      {
        "midi": 57,
        "time": 120,
        "duration": 1.714,
        "velocity": 1,
        "hand": "left"
      },
      {
        "midi": 62,
        "time": 120,
        "duration": 1.286,
        "velocity": 1,
        "hand": "right"
      },
      {
        "midi": 66,
        "time": 120.429,
        "duration": 0.214,
        "velocity": 1,
        "hand": "right"
      },
      {
        "midi": 64,
        "time": 120.643,
        "duration": 0.214,
        "velocity": 1,
        "hand": "right"
      },
      {
        "midi": 66,
        "time": 120.857,
        "duration": 0.857,
        "velocity": 1,
        "hand": "right"
      },
      {
        "midi": 60,
        "time": 121.286,
        "duration": 0.429,
        "velocity": 1,
        "hand": "right"
      },
      {
        "midi": 67,
        "time": 121.5,
        "duration": 0.054,
        "velocity": 1,
        "hand": "right"
      },
      {
        "midi": 43,
        "time": 121.714,
        "duration": 1.714,
        "velocity": 1,
        "hand": "left"
      },
      {
        "midi": 50,
        "time": 121.714,
        "duration": 1.714,
        "velocity": 1,
        "hand": "left"
      },
      {
        "midi": 59,
        "time": 121.714,
        "duration": 1.714,
        "velocity": 1,
        "hand": "left"
      },
      {
        "midi": 67,
        "time": 121.714,
        "duration": 1.714,
        "velocity": 1,
        "hand": "right"
      }
    ]
  },
  "notes1Hand": [
    {
      "midi": 60,
      "time": 3.429,
      "duration": 1.714,
      "velocity": 1,
      "hand": "right"
    },
    {
      "midi": 60,
      "time": 6.429,
      "duration": 0.429,
      "velocity": 1,
      "hand": "right"
    },
    {
      "midi": 62,
      "time": 6.857,
      "duration": 0.429,
      "velocity": 1,
      "hand": "right"
    },
    {
      "midi": 65,
      "time": 7.714,
      "duration": 0.857,
      "velocity": 1,
      "hand": "right"
    },
    {
      "midi": 64,
      "time": 8.571,
      "duration": 1.714,
      "velocity": 1,
      "hand": "right"
    },
    {
      "midi": 67,
      "time": 10.286,
      "duration": 1.714,
      "velocity": 1,
      "hand": "right"
    },
    {
      "midi": 66,
      "time": 12,
      "duration": 1.714,
      "velocity": 1,
      "hand": "right"
    },
    {
      "midi": 70,
      "time": 13.714,
      "duration": 1.714,
      "velocity": 1,
      "hand": "right"
    },
    {
      "midi": 67,
      "time": 14.143,
      "duration": 0.429,
      "velocity": 1,
      "hand": "right"
    },
    {
      "midi": 67,
      "time": 14.571,
      "duration": 0.429,
      "velocity": 1,
      "hand": "right"
    },
    {
      "midi": 67,
      "time": 15,
      "duration": 0.429,
      "velocity": 1,
      "hand": "right"
    },
    {
      "midi": 69,
      "time": 15.429,
      "duration": 1.714,
      "velocity": 1,
      "hand": "right"
    },
    {
      "midi": 65,
      "time": 15.857,
      "duration": 0.214,
      "velocity": 1,
      "hand": "right"
    },
    {
      "midi": 65,
      "time": 16.286,
      "duration": 1.071,
      "velocity": 1,
      "hand": "right"
    },
    {
      "midi": 72,
      "time": 17.143,
      "duration": 1.714,
      "velocity": 1,
      "hand": "right"
    },
    {
      "midi": 68,
      "time": 17.571,
      "duration": 0.429,
      "velocity": 1,
      "hand": "right"
    },
    {
      "midi": 68,
      "time": 18,
      "duration": 0.429,
      "velocity": 1,
      "hand": "right"
    },
    {
      "midi": 68,
      "time": 18.429,
      "duration": 0.429,
      "velocity": 1,
      "hand": "right"
    },
    {
      "midi": 71,
      "time": 18.857,
      "duration": 1.286,
      "velocity": 1,
      "hand": "right"
    },
    {
      "midi": 67,
      "time": 19.286,
      "duration": 0.214,
      "velocity": 1,
      "hand": "right"
    },
    {
      "midi": 67,
      "time": 19.714,
      "duration": 1.286,
      "velocity": 1,
      "hand": "right"
    },
    {
      "midi": 72,
      "time": 20.143,
      "duration": 0.429,
      "velocity": 1,
      "hand": "right"
    },
    {
      "midi": 74,
      "time": 20.571,
      "duration": 0.429,
      "velocity": 1,
      "hand": "right"
    },
    {
      "midi": 69,
      "time": 21,
      "duration": 0.429,
      "velocity": 1,
      "hand": "right"
    },
    {
      "midi": 69,
      "time": 21.429,
      "duration": 0.429,
      "velocity": 1,
      "hand": "right"
    },
    {
      "midi": 69,
      "time": 21.857,
      "duration": 0.429,
      "velocity": 1,
      "hand": "right"
    },
    {
      "midi": 69,
      "time": 22.286,
      "duration": 0.429,
      "velocity": 1,
      "hand": "right"
    },
    {
      "midi": 67,
      "time": 22.714,
      "duration": 0.214,
      "velocity": 1,
      "hand": "right"
    },
    {
      "midi": 66,
      "time": 22.929,
      "duration": 0.214,
      "velocity": 1,
      "hand": "right"
    },
    {
      "midi": 64,
      "time": 23.571,
      "duration": 0.429,
      "velocity": 1,
      "hand": "right"
    },
    {
      "midi": 64,
      "time": 24,
      "duration": 0.429,
      "velocity": 1,
      "hand": "right"
    },
    {
      "midi": 70,
      "time": 24.429,
      "duration": 0.429,
      "velocity": 1,
      "hand": "right"
    },
    {
      "midi": 70,
      "time": 24.857,
      "duration": 0.429,
      "velocity": 1,
      "hand": "right"
    },
    {
      "midi": 70,
      "time": 25.286,
      "duration": 0.429,
      "velocity": 1,
      "hand": "right"
    },
    {
      "midi": 70,
      "time": 25.714,
      "duration": 0.429,
      "velocity": 1,
      "hand": "right"
    },
    {
      "midi": 69,
      "time": 26.143,
      "duration": 0.214,
      "velocity": 1,
      "hand": "right"
    },
    {
      "midi": 69,
      "time": 26.571,
      "duration": 0.857,
      "velocity": 1,
      "hand": "right"
    },
    {
      "midi": 60,
      "time": 27,
      "duration": 0.429,
      "velocity": 1,
      "hand": "right"
    },
    {
      "midi": 70,
      "time": 27.429,
      "duration": 1.714,
      "velocity": 1,
      "hand": "right"
    },
    {
      "midi": 67,
      "time": 27.857,
      "duration": 0.429,
      "velocity": 1,
      "hand": "right"
    },
    {
      "midi": 67,
      "time": 28.286,
      "duration": 0.429,
      "velocity": 1,
      "hand": "right"
    },
    {
      "midi": 67,
      "time": 28.714,
      "duration": 0.429,
      "velocity": 1,
      "hand": "right"
    },
    {
      "midi": 60,
      "time": 28.929,
      "duration": 0.214,
      "velocity": 1,
      "hand": "right"
    },
    {
      "midi": 65,
      "time": 29.571,
      "duration": 0.214,
      "velocity": 1,
      "hand": "right"
    },
    {
      "midi": 64,
      "time": 29.786,
      "duration": 0.214,
      "velocity": 1,
      "hand": "right"
    },
    {
      "midi": 62,
      "time": 30.429,
      "duration": 0.429,
      "velocity": 1,
      "hand": "right"
    },
    {
      "midi": 62,
      "time": 30.857,
      "duration": 0.429,
      "velocity": 1,
      "hand": "right"
    },
    {
      "midi": 68,
      "time": 31.286,
      "duration": 0.429,
      "velocity": 1,
      "hand": "right"
    },
    {
      "midi": 68,
      "time": 31.714,
      "duration": 0.429,
      "velocity": 1,
      "hand": "right"
    },
    {
      "midi": 68,
      "time": 32.143,
      "duration": 0.429,
      "velocity": 1,
      "hand": "right"
    },
    {
      "midi": 76,
      "time": 32.571,
      "duration": 0.429,
      "velocity": 1,
      "hand": "right"
    },
    {
      "midi": 62,
      "time": 32.786,
      "duration": 0.214,
      "velocity": 1,
      "hand": "right"
    },
    {
      "midi": 65,
      "time": 33.214,
      "duration": 0.214,
      "velocity": 1,
      "hand": "right"
    },
    {
      "midi": 72,
      "time": 33.429,
      "duration": 0.429,
      "velocity": 1,
      "hand": "right"
    },
    {
      "midi": 72,
      "time": 33.857,
      "duration": 0.429,
      "velocity": 1,
      "hand": "right"
    },
    {
      "midi": 72,
      "time": 34.286,
      "duration": 0.429,
      "velocity": 1,
      "hand": "right"
    },
    {
      "midi": 70,
      "time": 34.714,
      "duration": 0.214,
      "velocity": 1,
      "hand": "right"
    },
    {
      "midi": 69,
      "time": 34.929,
      "duration": 0.214,
      "velocity": 1,
      "hand": "right"
    },
    {
      "midi": 72,
      "time": 36.214,
      "duration": 0.214,
      "velocity": 1,
      "hand": "right"
    },
    {
      "midi": 73,
      "time": 36.429,
      "duration": 0.429,
      "velocity": 1,
      "hand": "right"
    },
    {
      "midi": 73,
      "time": 36.857,
      "duration": 0.429,
      "velocity": 1,
      "hand": "right"
    },
    {
      "midi": 73,
      "time": 37.286,
      "duration": 0.429,
      "velocity": 1,
      "hand": "right"
    },
    {
      "midi": 73,
      "time": 37.714,
      "duration": 0.429,
      "velocity": 1,
      "hand": "right"
    },
    {
      "midi": 72,
      "time": 38.143,
      "duration": 0.214,
      "velocity": 1,
      "hand": "right"
    },
    {
      "midi": 72,
      "time": 38.571,
      "duration": 1.714,
      "velocity": 1,
      "hand": "right"
    },
    {
      "midi": 63,
      "time": 39,
      "duration": 0.429,
      "velocity": 1,
      "hand": "right"
    },
    {
      "midi": 62,
      "time": 39.429,
      "duration": 1.071,
      "velocity": 1,
      "hand": "right"
    },
    {
      "midi": 71,
      "time": 40.286,
      "duration": 0.857,
      "velocity": 1,
      "hand": "right"
    },
    {
      "midi": 64,
      "time": 40.714,
      "duration": 0.214,
      "velocity": 1,
      "hand": "right"
    },
    {
      "midi": 66,
      "time": 40.929,
      "duration": 0.214,
      "velocity": 1,
      "hand": "right"
    },
    {
      "midi": 70,
      "time": 41.571,
      "duration": 0.429,
      "velocity": 1,
      "hand": "right"
    },
    {
      "midi": 70,
      "time": 42,
      "duration": 0.429,
      "velocity": 1,
      "hand": "right"
    },
    {
      "midi": 70,
      "time": 42.429,
      "duration": 0.429,
      "velocity": 1,
      "hand": "right"
    },
    {
      "midi": 70,
      "time": 42.857,
      "duration": 0.429,
      "velocity": 1,
      "hand": "right"
    },
    {
      "midi": 69,
      "time": 43.286,
      "duration": 0.214,
      "velocity": 1,
      "hand": "right"
    },
    {
      "midi": 69,
      "time": 43.714,
      "duration": 0.857,
      "velocity": 1,
      "hand": "right"
    },
    {
      "midi": 69,
      "time": 44.571,
      "duration": 3,
      "velocity": 1,
      "hand": "right"
    },
    {
      "midi": 62,
      "time": 45,
      "duration": 0.429,
      "velocity": 1,
      "hand": "right"
    },
    {
      "midi": 62,
      "time": 45.429,
      "duration": 0.429,
      "velocity": 1,
      "hand": "right"
    },
    {
      "midi": 62,
      "time": 45.857,
      "duration": 0.429,
      "velocity": 1,
      "hand": "right"
    },
    {
      "midi": 64,
      "time": 46.286,
      "duration": 1.714,
      "velocity": 1,
      "hand": "right"
    },
    {
      "midi": 60,
      "time": 46.714,
      "duration": 0.214,
      "velocity": 1,
      "hand": "right"
    },
    {
      "midi": 60,
      "time": 47.143,
      "duration": 1.071,
      "velocity": 1,
      "hand": "right"
    },
    {
      "midi": 71,
      "time": 47.571,
      "duration": 0.429,
      "velocity": 1,
      "hand": "right"
    },
    {
      "midi": 72,
      "time": 48,
      "duration": 1.714,
      "velocity": 1,
      "hand": "right"
    },
    {
      "midi": 63,
      "time": 48.429,
      "duration": 0.429,
      "velocity": 1,
      "hand": "right"
    },
    {
      "midi": 63,
      "time": 48.857,
      "duration": 0.429,
      "velocity": 1,
      "hand": "right"
    },
    {
      "midi": 63,
      "time": 49.286,
      "duration": 0.429,
      "velocity": 1,
      "hand": "right"
    },
    {
      "midi": 66,
      "time": 49.714,
      "duration": 1.714,
      "velocity": 1,
      "hand": "right"
    },
    {
      "midi": 69,
      "time": 50.143,
      "duration": 0.429,
      "velocity": 1,
      "hand": "right"
    },
    {
      "midi": 69,
      "time": 50.571,
      "duration": 0.429,
      "velocity": 1,
      "hand": "right"
    },
    {
      "midi": 69,
      "time": 51,
      "duration": 0.429,
      "velocity": 1,
      "hand": "right"
    },
    {
      "midi": 69,
      "time": 51.429,
      "duration": 0.429,
      "velocity": 1,
      "hand": "right"
    },
    {
      "midi": 67,
      "time": 51.857,
      "duration": 0.214,
      "velocity": 1,
      "hand": "right"
    },
    {
      "midi": 67,
      "time": 52.286,
      "duration": 0.857,
      "velocity": 1,
      "hand": "right"
    },
    {
      "midi": 62,
      "time": 52.714,
      "duration": 0.429,
      "velocity": 1,
      "hand": "right"
    },
    {
      "midi": 62,
      "time": 53.143,
      "duration": 0.429,
      "velocity": 1,
      "hand": "right"
    },
    {
      "midi": 60,
      "time": 53.571,
      "duration": 0.214,
      "velocity": 1,
      "hand": "right"
    },
    {
      "midi": 60,
      "time": 54,
      "duration": 1.071,
      "velocity": 1,
      "hand": "right"
    },
    {
      "midi": 62,
      "time": 55.071,
      "duration": 0.214,
      "velocity": 1,
      "hand": "right"
    },
    {
      "midi": 63,
      "time": 55.286,
      "duration": 0.429,
      "velocity": 1,
      "hand": "right"
    },
    {
      "midi": 63,
      "time": 55.714,
      "duration": 0.429,
      "velocity": 1,
      "hand": "right"
    },
    {
      "midi": 63,
      "time": 56.143,
      "duration": 0.429,
      "velocity": 1,
      "hand": "right"
    },
    {
      "midi": 63,
      "time": 56.571,
      "duration": 0.429,
      "velocity": 1,
      "hand": "right"
    },
    {
      "midi": 62,
      "time": 57,
      "duration": 0.214,
      "velocity": 1,
      "hand": "right"
    },
    {
      "midi": 62,
      "time": 57.429,
      "duration": 0.857,
      "velocity": 1,
      "hand": "right"
    },
    {
      "midi": 62,
      "time": 58.714,
      "duration": 0.429,
      "velocity": 1,
      "hand": "right"
    },
    {
      "midi": 62,
      "time": 59.143,
      "duration": 0.429,
      "velocity": 1,
      "hand": "right"
    },
    {
      "midi": 62,
      "time": 59.571,
      "duration": 0.429,
      "velocity": 1,
      "hand": "right"
    },
    {
      "midi": 62,
      "time": 60,
      "duration": 0.429,
      "velocity": 1,
      "hand": "right"
    },
    {
      "midi": 60,
      "time": 60.429,
      "duration": 0.214,
      "velocity": 1,
      "hand": "right"
    },
    {
      "midi": 60,
      "time": 60.857,
      "duration": 0.429,
      "velocity": 1,
      "hand": "right"
    },
    {
      "midi": 60,
      "time": 61.286,
      "duration": 0.643,
      "velocity": 1,
      "hand": "right"
    },
    {
      "midi": 62,
      "time": 61.929,
      "duration": 0.214,
      "velocity": 1,
      "hand": "right"
    },
    {
      "midi": 63,
      "time": 62.571,
      "duration": 0.429,
      "velocity": 1,
      "hand": "right"
    },
    {
      "midi": 63,
      "time": 63,
      "duration": 0.429,
      "velocity": 1,
      "hand": "right"
    },
    {
      "midi": 63,
      "time": 63.429,
      "duration": 0.429,
      "velocity": 1,
      "hand": "right"
    },
    {
      "midi": 62,
      "time": 63.857,
      "duration": 0.214,
      "velocity": 1,
      "hand": "right"
    },
    {
      "midi": 62,
      "time": 64.286,
      "duration": 0.857,
      "velocity": 1,
      "hand": "right"
    },
    {
      "midi": 60,
      "time": 64.929,
      "duration": 0.214,
      "velocity": 1,
      "hand": "right"
    },
    {
      "midi": 69,
      "time": 66.857,
      "duration": 1.714,
      "velocity": 1,
      "hand": "right"
    },
    {
      "midi": 67,
      "time": 68.143,
      "duration": 0.429,
      "velocity": 1,
      "hand": "right"
    },
    {
      "midi": 72,
      "time": 68.571,
      "duration": 1.714,
      "velocity": 1,
      "hand": "right"
    },
    {
      "midi": 63,
      "time": 69.857,
      "duration": 0.429,
      "velocity": 1,
      "hand": "right"
    },
    {
      "midi": 71,
      "time": 70.286,
      "duration": 1.286,
      "velocity": 1,
      "hand": "right"
    },
    {
      "midi": 72,
      "time": 71.571,
      "duration": 0.429,
      "velocity": 1,
      "hand": "right"
    },
    {
      "midi": 74,
      "time": 72,
      "duration": 0.429,
      "velocity": 1,
      "hand": "right"
    },
    {
      "midi": 69,
      "time": 72.429,
      "duration": 0.429,
      "velocity": 1,
      "hand": "right"
    },
    {
      "midi": 69,
      "time": 72.857,
      "duration": 0.429,
      "velocity": 1,
      "hand": "right"
    },
    {
      "midi": 69,
      "time": 73.286,
      "duration": 0.429,
      "velocity": 1,
      "hand": "right"
    },
    {
      "midi": 69,
      "time": 73.714,
      "duration": 0.429,
      "velocity": 1,
      "hand": "right"
    },
    {
      "midi": 67,
      "time": 74.143,
      "duration": 0.214,
      "velocity": 1,
      "hand": "right"
    },
    {
      "midi": 67,
      "time": 74.571,
      "duration": 1.071,
      "velocity": 1,
      "hand": "right"
    },
    {
      "midi": 64,
      "time": 75,
      "duration": 0.429,
      "velocity": 1,
      "hand": "right"
    },
    {
      "midi": 64,
      "time": 75.429,
      "duration": 0.429,
      "velocity": 1,
      "hand": "right"
    },
    {
      "midi": 70,
      "time": 75.857,
      "duration": 0.429,
      "velocity": 1,
      "hand": "right"
    },
    {
      "midi": 70,
      "time": 76.286,
      "duration": 0.429,
      "velocity": 1,
      "hand": "right"
    },
    {
      "midi": 70,
      "time": 76.714,
      "duration": 0.429,
      "velocity": 1,
      "hand": "right"
    },
    {
      "midi": 70,
      "time": 77.143,
      "duration": 0.429,
      "velocity": 1,
      "hand": "right"
    },
    {
      "midi": 69,
      "time": 77.571,
      "duration": 0.214,
      "velocity": 1,
      "hand": "right"
    },
    {
      "midi": 67,
      "time": 77.786,
      "duration": 0.214,
      "velocity": 1,
      "hand": "right"
    },
    {
      "midi": 60,
      "time": 78.429,
      "duration": 0.429,
      "velocity": 1,
      "hand": "right"
    },
    {
      "midi": 67,
      "time": 78.857,
      "duration": 0.214,
      "velocity": 1,
      "hand": "right"
    },
    {
      "midi": 70,
      "time": 79.286,
      "duration": 0.429,
      "velocity": 1,
      "hand": "right"
    },
    {
      "midi": 70,
      "time": 79.714,
      "duration": 0.429,
      "velocity": 1,
      "hand": "right"
    },
    {
      "midi": 70,
      "time": 80.143,
      "duration": 0.429,
      "velocity": 1,
      "hand": "right"
    },
    {
      "midi": 70,
      "time": 80.571,
      "duration": 0.429,
      "velocity": 1,
      "hand": "right"
    },
    {
      "midi": 64,
      "time": 80.786,
      "duration": 0.214,
      "velocity": 1,
      "hand": "right"
    },
    {
      "midi": 67,
      "time": 81.214,
      "duration": 0.214,
      "velocity": 1,
      "hand": "right"
    },
    {
      "midi": 69,
      "time": 81.429,
      "duration": 0.857,
      "velocity": 1,
      "hand": "right"
    },
    {
      "midi": 65,
      "time": 81.857,
      "duration": 0.429,
      "velocity": 1,
      "hand": "right"
    },
    {
      "midi": 65,
      "time": 82.286,
      "duration": 0.214,
      "velocity": 1,
      "hand": "right"
    },
    {
      "midi": 68,
      "time": 82.714,
      "duration": 0.429,
      "velocity": 1,
      "hand": "right"
    },
    {
      "midi": 68,
      "time": 83.143,
      "duration": 0.429,
      "velocity": 1,
      "hand": "right"
    },
    {
      "midi": 68,
      "time": 83.571,
      "duration": 0.429,
      "velocity": 1,
      "hand": "right"
    },
    {
      "midi": 68,
      "time": 84,
      "duration": 0.429,
      "velocity": 1,
      "hand": "right"
    },
    {
      "midi": 67,
      "time": 84.429,
      "duration": 0.214,
      "velocity": 1,
      "hand": "right"
    },
    {
      "midi": 67,
      "time": 84.857,
      "duration": 1.286,
      "velocity": 1,
      "hand": "right"
    },
    {
      "midi": 63,
      "time": 85.286,
      "duration": 0.429,
      "velocity": 1,
      "hand": "right"
    },
    {
      "midi": 62,
      "time": 85.714,
      "duration": 0.857,
      "velocity": 1,
      "hand": "right"
    },
    {
      "midi": 65,
      "time": 86.143,
      "duration": 0.214,
      "velocity": 1,
      "hand": "right"
    },
    {
      "midi": 65,
      "time": 86.571,
      "duration": 2.571,
      "velocity": 1,
      "hand": "right"
    },
    {
      "midi": 60,
      "time": 87.429,
      "duration": 0.857,
      "velocity": 1,
      "hand": "right"
    },
    {
      "midi": 60,
      "time": 88.286,
      "duration": 0.857,
      "velocity": 1,
      "hand": "right"
    },
    {
      "midi": 65,
      "time": 100.286,
      "duration": 0.857,
      "velocity": 1,
      "hand": "right"
    },
    {
      "midi": 63,
      "time": 101.143,
      "duration": 1.714,
      "velocity": 1,
      "hand": "right"
    },
    {
      "midi": 67,
      "time": 102.857,
      "duration": 1.714,
      "velocity": 1,
      "hand": "right"
    },
    {
      "midi": 60,
      "time": 104.143,
      "duration": 0.429,
      "velocity": 1,
      "hand": "right"
    },
    {
      "midi": 66,
      "time": 104.571,
      "duration": 1.714,
      "velocity": 1,
      "hand": "right"
    },
    {
      "midi": 63,
      "time": 105,
      "duration": 0.429,
      "velocity": 1,
      "hand": "right"
    },
    {
      "midi": 62,
      "time": 105.429,
      "duration": 0.429,
      "velocity": 1,
      "hand": "right"
    },
    {
      "midi": 60,
      "time": 105.857,
      "duration": 0.429,
      "velocity": 1,
      "hand": "right"
    },
    {
      "midi": 67,
      "time": 106.286,
      "duration": 0.857,
      "velocity": 1,
      "hand": "right"
    },
    {
      "midi": 70,
      "time": 107.143,
      "duration": 1.714,
      "velocity": 1,
      "hand": "right"
    },
    {
      "midi": 60,
      "time": 107.571,
      "duration": 0.429,
      "velocity": 1,
      "hand": "right"
    },
    {
      "midi": 62,
      "time": 108,
      "duration": 1.714,
      "velocity": 1,
      "hand": "right"
    },
    {
      "midi": 69,
      "time": 108.857,
      "duration": 0.857,
      "velocity": 1,
      "hand": "right"
    },
    {
      "midi": 72,
      "time": 109.714,
      "duration": 1.714,
      "velocity": 1,
      "hand": "right"
    },
    {
      "midi": 71,
      "time": 111.429,
      "duration": 1.071,
      "velocity": 1,
      "hand": "right"
    },
    {
      "midi": 67,
      "time": 112.5,
      "duration": 0.214,
      "velocity": 1,
      "hand": "right"
    },
    {
      "midi": 71,
      "time": 112.929,
      "duration": 0.214,
      "velocity": 1,
      "hand": "right"
    },
    {
      "midi": 72,
      "time": 113.571,
      "duration": 0.429,
      "velocity": 1,
      "hand": "right"
    },
    {
      "midi": 72,
      "time": 114,
      "duration": 0.429,
      "velocity": 1,
      "hand": "right"
    },
    {
      "midi": 72,
      "time": 114.429,
      "duration": 0.429,
      "velocity": 1,
      "hand": "right"
    },
    {
      "midi": 72,
      "time": 114.857,
      "duration": 0.429,
      "velocity": 1,
      "hand": "right"
    },
    {
      "midi": 70,
      "time": 115.286,
      "duration": 0.214,
      "velocity": 1,
      "hand": "right"
    },
    {
      "midi": 70,
      "time": 115.714,
      "duration": 1.286,
      "velocity": 1,
      "hand": "right"
    },
    {
      "midi": 65,
      "time": 116.143,
      "duration": 0.429,
      "velocity": 1,
      "hand": "right"
    },
    {
      "midi": 64,
      "time": 116.571,
      "duration": 0.857,
      "velocity": 1,
      "hand": "right"
    },
    {
      "midi": 69,
      "time": 117,
      "duration": 0.214,
      "velocity": 1,
      "hand": "right"
    },
    {
      "midi": 69,
      "time": 117.429,
      "duration": 1.286,
      "velocity": 1,
      "hand": "right"
    },
    {
      "midi": 60,
      "time": 117.857,
      "duration": 0.429,
      "velocity": 1,
      "hand": "right"
    },
    {
      "midi": 60,
      "time": 118.286,
      "duration": 0.429,
      "velocity": 1,
      "hand": "right"
    },
    {
      "midi": 67,
      "time": 118.714,
      "duration": 0.214,
      "velocity": 1,
      "hand": "right"
    },
    {
      "midi": 66,
      "time": 118.929,
      "duration": 0.214,
      "velocity": 1,
      "hand": "right"
    },
    {
      "midi": 62,
      "time": 119.571,
      "duration": 0.429,
      "velocity": 1,
      "hand": "right"
    },
    {
      "midi": 62,
      "time": 120,
      "duration": 1.286,
      "velocity": 1,
      "hand": "right"
    },
    {
      "midi": 66,
      "time": 120.429,
      "duration": 0.214,
      "velocity": 1,
      "hand": "right"
    },
    {
      "midi": 66,
      "time": 120.857,
      "duration": 0.857,
      "velocity": 1,
      "hand": "right"
    },
    {
      "midi": 60,
      "time": 121.286,
      "duration": 0.429,
      "velocity": 1,
      "hand": "right"
    },
    {
      "midi": 67,
      "time": 121.714,
      "duration": 1.714,
      "velocity": 1,
      "hand": "right"
    }
  ],
  "notes2Hands": [
    {
      "midi": 58,
      "time": 0,
      "duration": 1.714,
      "velocity": 1,
      "hand": "left"
    },
    {
      "midi": 55,
      "time": 0.429,
      "duration": 0.429,
      "velocity": 1,
      "hand": "left"
    },
    {
      "midi": 55,
      "time": 0.857,
      "duration": 0.429,
      "velocity": 1,
      "hand": "left"
    },
    {
      "midi": 55,
      "time": 1.286,
      "duration": 0.429,
      "velocity": 1,
      "hand": "left"
    },
    {
      "midi": 55,
      "time": 1.714,
      "duration": 0.429,
      "velocity": 1,
      "hand": "left"
    },
    {
      "midi": 57,
      "time": 1.714,
      "duration": 1.714,
      "velocity": 1,
      "hand": "left"
    },
    {
      "midi": 53,
      "time": 2.143,
      "duration": 0.214,
      "velocity": 1,
      "hand": "left"
    },
    {
      "midi": 52,
      "time": 2.357,
      "duration": 0.214,
      "velocity": 1,
      "hand": "left"
    },
    {
      "midi": 53,
      "time": 2.571,
      "duration": 1.071,
      "velocity": 1,
      "hand": "left"
    },
    {
      "midi": 60,
      "time": 3.429,
      "duration": 1.714,
      "velocity": 1,
      "hand": "right"
    },
    {
      "midi": 55,
      "time": 3.643,
      "duration": 0.214,
      "velocity": 1,
      "hand": "left"
    },
    {
      "midi": 56,
      "time": 3.857,
      "duration": 0.429,
      "velocity": 1,
      "hand": "left"
    },
    {
      "midi": 56,
      "time": 4.286,
      "duration": 0.429,
      "velocity": 1,
      "hand": "left"
    },
    {
      "midi": 56,
      "time": 4.714,
      "duration": 0.429,
      "velocity": 1,
      "hand": "left"
    },
    {
      "midi": 56,
      "time": 5.143,
      "duration": 0.429,
      "velocity": 1,
      "hand": "left"
    },
    {
      "midi": 59,
      "time": 5.143,
      "duration": 1.286,
      "velocity": 1,
      "hand": "left"
    },
    {
      "midi": 55,
      "time": 5.571,
      "duration": 0.214,
      "velocity": 1,
      "hand": "left"
    },
    {
      "midi": 53,
      "time": 5.786,
      "duration": 0.214,
      "velocity": 1,
      "hand": "left"
    },
    {
      "midi": 55,
      "time": 6,
      "duration": 1.286,
      "velocity": 1,
      "hand": "left"
    },
    {
      "midi": 60,
      "time": 6.429,
      "duration": 0.429,
      "velocity": 1,
      "hand": "right"
    },
    {
      "midi": 62,
      "time": 6.857,
      "duration": 0.429,
      "velocity": 1,
      "hand": "right"
    },
    {
      "midi": 53,
      "time": 7.286,
      "duration": 0.214,
      "velocity": 1,
      "hand": "left"
    },
    {
      "midi": 57,
      "time": 7.286,
      "duration": 0.429,
      "velocity": 1,
      "hand": "left"
    },
    {
      "midi": 52,
      "time": 7.5,
      "duration": 0.214,
      "velocity": 1,
      "hand": "left"
    },
    {
      "midi": 50,
      "time": 7.714,
      "duration": 0.857,
      "velocity": 1,
      "hand": "left"
    },
    {
      "midi": 57,
      "time": 7.714,
      "duration": 0.429,
      "velocity": 1,
      "hand": "left"
    },
    {
      "midi": 65,
      "time": 7.714,
      "duration": 0.857,
      "velocity": 1,
      "hand": "right"
    },
    {
      "midi": 57,
      "time": 8.143,
      "duration": 0.429,
      "velocity": 1,
      "hand": "left"
    },
    {
      "midi": 57,
      "time": 8.571,
      "duration": 0.429,
      "velocity": 1,
      "hand": "left"
    },
    {
      "midi": 64,
      "time": 8.571,
      "duration": 1.714,
      "velocity": 1,
      "hand": "right"
    },
    {
      "midi": 52,
      "time": 9,
      "duration": 0.429,
      "velocity": 1,
      "hand": "left"
    },
    {
      "midi": 55,
      "time": 9,
      "duration": 0.214,
      "velocity": 1,
      "hand": "left"
    },
    {
      "midi": 54,
      "time": 9.214,
      "duration": 0.214,
      "velocity": 1,
      "hand": "left"
    },
    {
      "midi": 52,
      "time": 9.429,
      "duration": 0.429,
      "velocity": 1,
      "hand": "left"
    },
    {
      "midi": 55,
      "time": 9.429,
      "duration": 1.071,
      "velocity": 1,
      "hand": "left"
    },
    {
      "midi": 52,
      "time": 9.857,
      "duration": 0.429,
      "velocity": 1,
      "hand": "left"
    },
    {
      "midi": 52,
      "time": 10.286,
      "duration": 0.429,
      "velocity": 1,
      "hand": "left"
    },
    {
      "midi": 67,
      "time": 10.286,
      "duration": 1.714,
      "velocity": 1,
      "hand": "right"
    },
    {
      "midi": 57,
      "time": 10.5,
      "duration": 0.214,
      "velocity": 1,
      "hand": "left"
    },
    {
      "midi": 50,
      "time": 10.714,
      "duration": 0.214,
      "velocity": 1,
      "hand": "left"
    },
    {
      "midi": 58,
      "time": 10.714,
      "duration": 0.429,
      "velocity": 1,
      "hand": "left"
    },
    {
      "midi": 49,
      "time": 10.929,
      "duration": 0.214,
      "velocity": 1,
      "hand": "left"
    },
    {
      "midi": 50,
      "time": 11.143,
      "duration": 1.929,
      "velocity": 1,
      "hand": "left"
    },
    {
      "midi": 58,
      "time": 11.143,
      "duration": 0.429,
      "velocity": 1,
      "hand": "left"
    },
    {
      "midi": 58,
      "time": 11.571,
      "duration": 0.429,
      "velocity": 1,
      "hand": "left"
    },
    {
      "midi": 58,
      "time": 12,
      "duration": 0.429,
      "velocity": 1,
      "hand": "left"
    },
    {
      "midi": 66,
      "time": 12,
      "duration": 1.714,
      "velocity": 1,
      "hand": "right"
    },
    {
      "midi": 57,
      "time": 12.429,
      "duration": 0.214,
      "velocity": 1,
      "hand": "left"
    },
    {
      "midi": 55,
      "time": 12.643,
      "duration": 0.214,
      "velocity": 1,
      "hand": "left"
    },
    {
      "midi": 57,
      "time": 12.857,
      "duration": 0.857,
      "velocity": 1,
      "hand": "left"
    },
    {
      "midi": 48,
      "time": 13.071,
      "duration": 0.214,
      "velocity": 1,
      "hand": "left"
    },
    {
      "midi": 46,
      "time": 13.286,
      "duration": 0.214,
      "velocity": 1,
      "hand": "left"
    },
    {
      "midi": 45,
      "time": 13.5,
      "duration": 0.214,
      "velocity": 1,
      "hand": "left"
    },
    {
      "midi": 43,
      "time": 13.714,
      "duration": 1.071,
      "velocity": 1,
      "hand": "left"
    },
    {
      "midi": 62,
      "time": 13.714,
      "duration": 2.571,
      "velocity": 1,
      "hand": "right"
    },
    {
      "midi": 70,
      "time": 13.714,
      "duration": 1.714,
      "velocity": 1,
      "hand": "right"
    },
    {
      "midi": 67,
      "time": 14.143,
      "duration": 0.429,
      "velocity": 1,
      "hand": "right"
    },
    {
      "midi": 67,
      "time": 14.571,
      "duration": 0.429,
      "velocity": 1,
      "hand": "right"
    },
    {
      "midi": 45,
      "time": 14.786,
      "duration": 0.214,
      "velocity": 1,
      "hand": "left"
    },
    {
      "midi": 46,
      "time": 15,
      "duration": 0.214,
      "velocity": 1,
      "hand": "left"
    },
    {
      "midi": 67,
      "time": 15,
      "duration": 0.429,
      "velocity": 1,
      "hand": "right"
    },
    {
      "midi": 48,
      "time": 15.214,
      "duration": 0.214,
      "velocity": 1,
      "hand": "left"
    },
    {
      "midi": 50,
      "time": 15.429,
      "duration": 0.429,
      "velocity": 1,
      "hand": "left"
    },
    {
      "midi": 67,
      "time": 15.429,
      "duration": 0.429,
      "velocity": 1,
      "hand": "right"
    },
    {
      "midi": 69,
      "time": 15.429,
      "duration": 1.714,
      "velocity": 1,
      "hand": "right"
    },
    {
      "midi": 50,
      "time": 15.857,
      "duration": 0.429,
      "velocity": 1,
      "hand": "left"
    },
    {
      "midi": 65,
      "time": 15.857,
      "duration": 0.214,
      "velocity": 1,
      "hand": "right"
    },
    {
      "midi": 64,
      "time": 16.071,
      "duration": 0.214,
      "velocity": 1,
      "hand": "right"
    },
    {
      "midi": 50,
      "time": 16.286,
      "duration": 0.429,
      "velocity": 1,
      "hand": "left"
    },
    {
      "midi": 65,
      "time": 16.286,
      "duration": 1.071,
      "velocity": 1,
      "hand": "right"
    },
    {
      "midi": 52,
      "time": 16.5,
      "duration": 0.214,
      "velocity": 1,
      "hand": "left"
    },
    {
      "midi": 50,
      "time": 16.714,
      "duration": 0.429,
      "velocity": 1,
      "hand": "left"
    },
    {
      "midi": 53,
      "time": 16.714,
      "duration": 0.214,
      "velocity": 1,
      "hand": "left"
    },
    {
      "midi": 55,
      "time": 16.929,
      "duration": 0.214,
      "velocity": 1,
      "hand": "left"
    },
    {
      "midi": 48,
      "time": 17.143,
      "duration": 0.429,
      "velocity": 1,
      "hand": "left"
    },
    {
      "midi": 56,
      "time": 17.143,
      "duration": 0.857,
      "velocity": 1,
      "hand": "left"
    },
    {
      "midi": 72,
      "time": 17.143,
      "duration": 1.714,
      "velocity": 1,
      "hand": "right"
    },
    {
      "midi": 67,
      "time": 17.357,
      "duration": 0.214,
      "velocity": 1,
      "hand": "right"
    },
    {
      "midi": 48,
      "time": 17.571,
      "duration": 0.214,
      "velocity": 1,
      "hand": "left"
    },
    {
      "midi": 68,
      "time": 17.571,
      "duration": 0.429,
      "velocity": 1,
      "hand": "right"
    },
    {
      "midi": 47,
      "time": 17.786,
      "duration": 0.214,
      "velocity": 1,
      "hand": "left"
    },
    {
      "midi": 48,
      "time": 18,
      "duration": 0.214,
      "velocity": 1,
      "hand": "left"
    },
    {
      "midi": 65,
      "time": 18,
      "duration": 0.429,
      "velocity": 1,
      "hand": "right"
    },
    {
      "midi": 68,
      "time": 18,
      "duration": 0.429,
      "velocity": 1,
      "hand": "right"
    },
    {
      "midi": 50,
      "time": 18.214,
      "duration": 0.214,
      "velocity": 1,
      "hand": "left"
    },
    {
      "midi": 51,
      "time": 18.429,
      "duration": 0.214,
      "velocity": 1,
      "hand": "left"
    },
    {
      "midi": 63,
      "time": 18.429,
      "duration": 0.429,
      "velocity": 1,
      "hand": "right"
    },
    {
      "midi": 68,
      "time": 18.429,
      "duration": 0.429,
      "velocity": 1,
      "hand": "right"
    },
    {
      "midi": 53,
      "time": 18.643,
      "duration": 0.214,
      "velocity": 1,
      "hand": "left"
    },
    {
      "midi": 55,
      "time": 18.857,
      "duration": 1.714,
      "velocity": 1,
      "hand": "left"
    },
    {
      "midi": 62,
      "time": 18.857,
      "duration": 1.714,
      "velocity": 1,
      "hand": "right"
    },
    {
      "midi": 68,
      "time": 18.857,
      "duration": 0.429,
      "velocity": 1,
      "hand": "right"
    },
    {
      "midi": 71,
      "time": 18.857,
      "duration": 1.286,
      "velocity": 1,
      "hand": "right"
    },
    {
      "midi": 67,
      "time": 19.286,
      "duration": 0.214,
      "velocity": 1,
      "hand": "right"
    },
    {
      "midi": 65,
      "time": 19.5,
      "duration": 0.214,
      "velocity": 1,
      "hand": "right"
    },
    {
      "midi": 67,
      "time": 19.714,
      "duration": 1.286,
      "velocity": 1,
      "hand": "right"
    },
    {
      "midi": 72,
      "time": 20.143,
      "duration": 0.429,
      "velocity": 1,
      "hand": "right"
    },
    {
      "midi": 62,
      "time": 20.571,
      "duration": 0.857,
      "velocity": 1,
      "hand": "right"
    },
    {
      "midi": 74,
      "time": 20.571,
      "duration": 0.429,
      "velocity": 1,
      "hand": "right"
    },
    {
      "midi": 65,
      "time": 21,
      "duration": 0.214,
      "velocity": 1,
      "hand": "right"
    },
    {
      "midi": 69,
      "time": 21,
      "duration": 0.429,
      "velocity": 1,
      "hand": "right"
    },
    {
      "midi": 64,
      "time": 21.214,
      "duration": 0.214,
      "velocity": 1,
      "hand": "right"
    },
    {
      "midi": 53,
      "time": 21.429,
      "duration": 0.857,
      "velocity": 1,
      "hand": "left"
    },
    {
      "midi": 57,
      "time": 21.429,
      "duration": 0.429,
      "velocity": 1,
      "hand": "left"
    },
    {
      "midi": 62,
      "time": 21.429,
      "duration": 0.857,
      "velocity": 1,
      "hand": "right"
    },
    {
      "midi": 69,
      "time": 21.429,
      "duration": 0.429,
      "velocity": 1,
      "hand": "right"
    },
    {
      "midi": 59,
      "time": 21.857,
      "duration": 0.429,
      "velocity": 1,
      "hand": "left"
    },
    {
      "midi": 69,
      "time": 21.857,
      "duration": 0.429,
      "velocity": 1,
      "hand": "right"
    },
    {
      "midi": 52,
      "time": 22.286,
      "duration": 1.714,
      "velocity": 1,
      "hand": "left"
    },
    {
      "midi": 60,
      "time": 22.286,
      "duration": 1.714,
      "velocity": 1,
      "hand": "right"
    },
    {
      "midi": 69,
      "time": 22.286,
      "duration": 0.429,
      "velocity": 1,
      "hand": "right"
    },
    {
      "midi": 64,
      "time": 22.714,
      "duration": 0.429,
      "velocity": 1,
      "hand": "right"
    },
    {
      "midi": 67,
      "time": 22.714,
      "duration": 0.214,
      "velocity": 1,
      "hand": "right"
    },
    {
      "midi": 66,
      "time": 22.929,
      "duration": 0.214,
      "velocity": 1,
      "hand": "right"
    },
    {
      "midi": 64,
      "time": 23.143,
      "duration": 0.429,
      "velocity": 1,
      "hand": "right"
    },
    {
      "midi": 67,
      "time": 23.143,
      "duration": 1.071,
      "velocity": 1,
      "hand": "right"
    },
    {
      "midi": 64,
      "time": 23.571,
      "duration": 0.429,
      "velocity": 1,
      "hand": "right"
    },
    {
      "midi": 55,
      "time": 24,
      "duration": 1.714,
      "velocity": 1,
      "hand": "left"
    },
    {
      "midi": 58,
      "time": 24,
      "duration": 1.286,
      "velocity": 1,
      "hand": "left"
    },
    {
      "midi": 64,
      "time": 24,
      "duration": 0.429,
      "velocity": 1,
      "hand": "right"
    },
    {
      "midi": 69,
      "time": 24.214,
      "duration": 0.214,
      "velocity": 1,
      "hand": "right"
    },
    {
      "midi": 62,
      "time": 24.429,
      "duration": 0.214,
      "velocity": 1,
      "hand": "right"
    },
    {
      "midi": 70,
      "time": 24.429,
      "duration": 0.429,
      "velocity": 1,
      "hand": "right"
    },
    {
      "midi": 61,
      "time": 24.643,
      "duration": 0.214,
      "velocity": 1,
      "hand": "right"
    },
    {
      "midi": 62,
      "time": 24.857,
      "duration": 0.429,
      "velocity": 1,
      "hand": "right"
    },
    {
      "midi": 70,
      "time": 24.857,
      "duration": 0.429,
      "velocity": 1,
      "hand": "right"
    },
    {
      "midi": 61,
      "time": 25.286,
      "duration": 0.429,
      "velocity": 1,
      "hand": "right"
    },
    {
      "midi": 70,
      "time": 25.286,
      "duration": 0.429,
      "velocity": 1,
      "hand": "right"
    },
    {
      "midi": 54,
      "time": 25.714,
      "duration": 1.714,
      "velocity": 1,
      "hand": "left"
    },
    {
      "midi": 62,
      "time": 25.714,
      "duration": 1.286,
      "velocity": 1,
      "hand": "right"
    },
    {
      "midi": 70,
      "time": 25.714,
      "duration": 0.429,
      "velocity": 1,
      "hand": "right"
    },
    {
      "midi": 69,
      "time": 26.143,
      "duration": 0.214,
      "velocity": 1,
      "hand": "right"
    },
    {
      "midi": 67,
      "time": 26.357,
      "duration": 0.214,
      "velocity": 1,
      "hand": "right"
    },
    {
      "midi": 69,
      "time": 26.571,
      "duration": 0.857,
      "velocity": 1,
      "hand": "right"
    },
    {
      "midi": 60,
      "time": 27,
      "duration": 0.429,
      "velocity": 1,
      "hand": "right"
    },
    {
      "midi": 55,
      "time": 27.429,
      "duration": 1.714,
      "velocity": 1,
      "hand": "left"
    },
    {
      "midi": 58,
      "time": 27.429,
      "duration": 0.857,
      "velocity": 1,
      "hand": "left"
    },
    {
      "midi": 70,
      "time": 27.429,
      "duration": 1.714,
      "velocity": 1,
      "hand": "right"
    },
    {
      "midi": 67,
      "time": 27.857,
      "duration": 0.429,
      "velocity": 1,
      "hand": "right"
    },
    {
      "midi": 67,
      "time": 28.286,
      "duration": 0.429,
      "velocity": 1,
      "hand": "right"
    },
    {
      "midi": 57,
      "time": 28.5,
      "duration": 0.214,
      "velocity": 1,
      "hand": "left"
    },
    {
      "midi": 58,
      "time": 28.714,
      "duration": 0.214,
      "velocity": 1,
      "hand": "left"
    },
    {
      "midi": 67,
      "time": 28.714,
      "duration": 0.429,
      "velocity": 1,
      "hand": "right"
    },
    {
      "midi": 60,
      "time": 28.929,
      "duration": 0.214,
      "velocity": 1,
      "hand": "right"
    },
    {
      "midi": 50,
      "time": 29.143,
      "duration": 1.286,
      "velocity": 1,
      "hand": "left"
    },
    {
      "midi": 62,
      "time": 29.143,
      "duration": 0.429,
      "velocity": 1,
      "hand": "right"
    },
    {
      "midi": 67,
      "time": 29.143,
      "duration": 0.429,
      "velocity": 1,
      "hand": "right"
    },
    {
      "midi": 69,
      "time": 29.143,
      "duration": 1.714,
      "velocity": 1,
      "hand": "right"
    },
    {
      "midi": 62,
      "time": 29.571,
      "duration": 0.429,
      "velocity": 1,
      "hand": "right"
    },
    {
      "midi": 65,
      "time": 29.571,
      "duration": 0.214,
      "velocity": 1,
      "hand": "right"
    },
    {
      "midi": 64,
      "time": 29.786,
      "duration": 0.214,
      "velocity": 1,
      "hand": "right"
    },
    {
      "midi": 62,
      "time": 30,
      "duration": 0.429,
      "velocity": 1,
      "hand": "right"
    },
    {
      "midi": 65,
      "time": 30,
      "duration": 1.071,
      "velocity": 1,
      "hand": "right"
    },
    {
      "midi": 52,
      "time": 30.429,
      "duration": 0.429,
      "velocity": 1,
      "hand": "left"
    },
    {
      "midi": 62,
      "time": 30.429,
      "duration": 0.429,
      "velocity": 1,
      "hand": "right"
    },
    {
      "midi": 53,
      "time": 30.857,
      "duration": 1.286,
      "velocity": 1,
      "hand": "left"
    },
    {
      "midi": 62,
      "time": 30.857,
      "duration": 0.429,
      "velocity": 1,
      "hand": "right"
    },
    {
      "midi": 67,
      "time": 31.071,
      "duration": 0.214,
      "velocity": 1,
      "hand": "right"
    },
    {
      "midi": 60,
      "time": 31.286,
      "duration": 0.214,
      "velocity": 1,
      "hand": "right"
    },
    {
      "midi": 68,
      "time": 31.286,
      "duration": 0.429,
      "velocity": 1,
      "hand": "right"
    },
    {
      "midi": 59,
      "time": 31.5,
      "duration": 0.214,
      "velocity": 1,
      "hand": "left"
    },
    {
      "midi": 60,
      "time": 31.714,
      "duration": 1.071,
      "velocity": 1,
      "hand": "right"
    },
    {
      "midi": 68,
      "time": 31.714,
      "duration": 0.429,
      "velocity": 1,
      "hand": "right"
    },
    {
      "midi": 51,
      "time": 32.143,
      "duration": 0.214,
      "velocity": 1,
      "hand": "left"
    },
    {
      "midi": 68,
      "time": 32.143,
      "duration": 0.429,
      "velocity": 1,
      "hand": "right"
    },
    {
      "midi": 50,
      "time": 32.357,
      "duration": 0.214,
      "velocity": 1,
      "hand": "left"
    },
    {
      "midi": 48,
      "time": 32.571,
      "duration": 0.857,
      "velocity": 1,
      "hand": "left"
    },
    {
      "midi": 68,
      "time": 32.571,
      "duration": 0.429,
      "velocity": 1,
      "hand": "right"
    },
    {
      "midi": 76,
      "time": 32.571,
      "duration": 0.429,
      "velocity": 1,
      "hand": "right"
    },
    {
      "midi": 62,
      "time": 32.786,
      "duration": 0.214,
      "velocity": 1,
      "hand": "right"
    },
    {
      "midi": 63,
      "time": 33,
      "duration": 0.429,
      "velocity": 1,
      "hand": "right"
    },
    {
      "midi": 67,
      "time": 33,
      "duration": 0.214,
      "velocity": 1,
      "hand": "right"
    },
    {
      "midi": 72,
      "time": 33,
      "duration": 0.429,
      "velocity": 1,
      "hand": "right"
    },
    {
      "midi": 65,
      "time": 33.214,
      "duration": 0.214,
      "velocity": 1,
      "hand": "right"
    },
    {
      "midi": 63,
      "time": 33.429,
      "duration": 0.429,
      "velocity": 1,
      "hand": "right"
    },
    {
      "midi": 67,
      "time": 33.429,
      "duration": 0.857,
      "velocity": 1,
      "hand": "right"
    },
    {
      "midi": 72,
      "time": 33.429,
      "duration": 0.429,
      "velocity": 1,
      "hand": "right"
    },
    {
      "midi": 63,
      "time": 33.857,
      "duration": 0.429,
      "velocity": 1,
      "hand": "right"
    },
    {
      "midi": 72,
      "time": 33.857,
      "duration": 0.429,
      "velocity": 1,
      "hand": "right"
    },
    {
      "midi": 63,
      "time": 34.286,
      "duration": 0.429,
      "velocity": 1,
      "hand": "right"
    },
    {
      "midi": 67,
      "time": 34.286,
      "duration": 1.714,
      "velocity": 1,
      "hand": "right"
    },
    {
      "midi": 72,
      "time": 34.286,
      "duration": 0.429,
      "velocity": 1,
      "hand": "right"
    },
    {
      "midi": 55,
      "time": 34.714,
      "duration": 0.429,
      "velocity": 1,
      "hand": "left"
    },
    {
      "midi": 62,
      "time": 34.714,
      "duration": 0.214,
      "velocity": 1,
      "hand": "right"
    },
    {
      "midi": 70,
      "time": 34.714,
      "duration": 0.214,
      "velocity": 1,
      "hand": "right"
    },
    {
      "midi": 60,
      "time": 34.929,
      "duration": 0.214,
      "velocity": 1,
      "hand": "right"
    },
    {
      "midi": 69,
      "time": 34.929,
      "duration": 0.214,
      "velocity": 1,
      "hand": "right"
    },
    {
      "midi": 55,
      "time": 35.143,
      "duration": 0.429,
      "velocity": 1,
      "hand": "left"
    },
    {
      "midi": 62,
      "time": 35.143,
      "duration": 0.857,
      "velocity": 1,
      "hand": "right"
    },
    {
      "midi": 70,
      "time": 35.143,
      "duration": 2.143,
      "velocity": 1,
      "hand": "right"
    },
    {
      "midi": 55,
      "time": 35.571,
      "duration": 0.429,
      "velocity": 1,
      "hand": "left"
    },
    {
      "midi": 55,
      "time": 36,
      "duration": 0.429,
      "velocity": 1,
      "hand": "left"
    },
    {
      "midi": 58,
      "time": 36,
      "duration": 1.071,
      "velocity": 1,
      "hand": "left"
    },
    {
      "midi": 72,
      "time": 36.214,
      "duration": 0.214,
      "velocity": 1,
      "hand": "right"
    },
    {
      "midi": 53,
      "time": 36.429,
      "duration": 0.214,
      "velocity": 1,
      "hand": "left"
    },
    {
      "midi": 73,
      "time": 36.429,
      "duration": 0.429,
      "velocity": 1,
      "hand": "right"
    },
    {
      "midi": 52,
      "time": 36.643,
      "duration": 0.214,
      "velocity": 1,
      "hand": "left"
    },
    {
      "midi": 53,
      "time": 36.857,
      "duration": 1.071,
      "velocity": 1,
      "hand": "left"
    },
    {
      "midi": 73,
      "time": 36.857,
      "duration": 0.429,
      "velocity": 1,
      "hand": "right"
    },
    {
      "midi": 60,
      "time": 37.071,
      "duration": 0.214,
      "velocity": 1,
      "hand": "right"
    },
    {
      "midi": 61,
      "time": 37.286,
      "duration": 0.214,
      "velocity": 1,
      "hand": "right"
    },
    {
      "midi": 68,
      "time": 37.286,
      "duration": 0.214,
      "velocity": 1,
      "hand": "right"
    },
    {
      "midi": 73,
      "time": 37.286,
      "duration": 0.429,
      "velocity": 1,
      "hand": "right"
    },
    {
      "midi": 63,
      "time": 37.5,
      "duration": 0.214,
      "velocity": 1,
      "hand": "right"
    },
    {
      "midi": 67,
      "time": 37.5,
      "duration": 0.214,
      "velocity": 1,
      "hand": "right"
    },
    {
      "midi": 65,
      "time": 37.714,
      "duration": 0.857,
      "velocity": 1,
      "hand": "right"
    },
    {
      "midi": 68,
      "time": 37.714,
      "duration": 0.857,
      "velocity": 1,
      "hand": "right"
    },
    {
      "midi": 73,
      "time": 37.714,
      "duration": 0.429,
      "velocity": 1,
      "hand": "right"
    },
    {
      "midi": 55,
      "time": 37.929,
      "duration": 0.214,
      "velocity": 1,
      "hand": "left"
    },
    {
      "midi": 56,
      "time": 38.143,
      "duration": 0.429,
      "velocity": 1,
      "hand": "left"
    },
    {
      "midi": 72,
      "time": 38.143,
      "duration": 0.214,
      "velocity": 1,
      "hand": "right"
    },
    {
      "midi": 70,
      "time": 38.357,
      "duration": 0.214,
      "velocity": 1,
      "hand": "right"
    },
    {
      "midi": 56,
      "time": 38.571,
      "duration": 0.429,
      "velocity": 1,
      "hand": "left"
    },
    {
      "midi": 60,
      "time": 38.571,
      "duration": 0.857,
      "velocity": 1,
      "hand": "right"
    },
    {
      "midi": 65,
      "time": 38.571,
      "duration": 0.429,
      "velocity": 1,
      "hand": "right"
    },
    {
      "midi": 72,
      "time": 38.571,
      "duration": 1.714,
      "velocity": 1,
      "hand": "right"
    },
    {
      "midi": 56,
      "time": 39,
      "duration": 0.429,
      "velocity": 1,
      "hand": "left"
    },
    {
      "midi": 63,
      "time": 39,
      "duration": 0.429,
      "velocity": 1,
      "hand": "right"
    },
    {
      "midi": 56,
      "time": 39.429,
      "duration": 0.429,
      "velocity": 1,
      "hand": "left"
    },
    {
      "midi": 62,
      "time": 39.429,
      "duration": 1.071,
      "velocity": 1,
      "hand": "right"
    },
    {
      "midi": 62,
      "time": 39.429,
      "duration": 2.143,
      "velocity": 1,
      "hand": "right"
    },
    {
      "midi": 55,
      "time": 39.857,
      "duration": 0.214,
      "velocity": 1,
      "hand": "left"
    },
    {
      "midi": 54,
      "time": 40.071,
      "duration": 0.214,
      "velocity": 1,
      "hand": "left"
    },
    {
      "midi": 55,
      "time": 40.286,
      "duration": 1.286,
      "velocity": 1,
      "hand": "left"
    },
    {
      "midi": 71,
      "time": 40.286,
      "duration": 0.857,
      "velocity": 1,
      "hand": "right"
    },
    {
      "midi": 62,
      "time": 40.5,
      "duration": 0.214,
      "velocity": 1,
      "hand": "right"
    },
    {
      "midi": 64,
      "time": 40.714,
      "duration": 0.214,
      "velocity": 1,
      "hand": "right"
    },
    {
      "midi": 66,
      "time": 40.929,
      "duration": 0.214,
      "velocity": 1,
      "hand": "right"
    },
    {
      "midi": 67,
      "time": 41.143,
      "duration": 1.714,
      "velocity": 1,
      "hand": "right"
    },
    {
      "midi": 70,
      "time": 41.143,
      "duration": 0.429,
      "velocity": 1,
      "hand": "right"
    },
    {
      "midi": 53,
      "time": 41.571,
      "duration": 0.429,
      "velocity": 1,
      "hand": "left"
    },
    {
      "midi": 61,
      "time": 41.571,
      "duration": 0.429,
      "velocity": 1,
      "hand": "right"
    },
    {
      "midi": 70,
      "time": 41.571,
      "duration": 0.429,
      "velocity": 1,
      "hand": "right"
    },
    {
      "midi": 52,
      "time": 42,
      "duration": 0.857,
      "velocity": 1,
      "hand": "left"
    },
    {
      "midi": 60,
      "time": 42,
      "duration": 1.714,
      "velocity": 1,
      "hand": "right"
    },
    {
      "midi": 70,
      "time": 42,
      "duration": 0.429,
      "velocity": 1,
      "hand": "right"
    },
    {
      "midi": 70,
      "time": 42.429,
      "duration": 0.429,
      "velocity": 1,
      "hand": "right"
    },
    {
      "midi": 53,
      "time": 42.857,
      "duration": 1.286,
      "velocity": 1,
      "hand": "left"
    },
    {
      "midi": 65,
      "time": 42.857,
      "duration": 0.857,
      "velocity": 1,
      "hand": "right"
    },
    {
      "midi": 70,
      "time": 42.857,
      "duration": 0.429,
      "velocity": 1,
      "hand": "right"
    },
    {
      "midi": 69,
      "time": 43.286,
      "duration": 0.214,
      "velocity": 1,
      "hand": "right"
    },
    {
      "midi": 67,
      "time": 43.5,
      "duration": 0.214,
      "velocity": 1,
      "hand": "right"
    },
    {
      "midi": 69,
      "time": 43.714,
      "duration": 0.857,
      "velocity": 1,
      "hand": "right"
    },
    {
      "midi": 52,
      "time": 44.143,
      "duration": 0.429,
      "velocity": 1,
      "hand": "left"
    },
    {
      "midi": 50,
      "time": 44.571,
      "duration": 1.071,
      "velocity": 1,
      "hand": "left"
    },
    {
      "midi": 65,
      "time": 44.571,
      "duration": 1.714,
      "velocity": 1,
      "hand": "right"
    },
    {
      "midi": 69,
      "time": 44.571,
      "duration": 3,
      "velocity": 1,
      "hand": "right"
    },
    {
      "midi": 62,
      "time": 45,
      "duration": 0.429,
      "velocity": 1,
      "hand": "right"
    },
    {
      "midi": 62,
      "time": 45.429,
      "duration": 0.429,
      "velocity": 1,
      "hand": "right"
    },
    {
      "midi": 52,
      "time": 45.643,
      "duration": 0.214,
      "velocity": 1,
      "hand": "left"
    },
    {
      "midi": 53,
      "time": 45.857,
      "duration": 0.214,
      "velocity": 1,
      "hand": "left"
    },
    {
      "midi": 62,
      "time": 45.857,
      "duration": 0.429,
      "velocity": 1,
      "hand": "right"
    },
    {
      "midi": 55,
      "time": 46.071,
      "duration": 0.214,
      "velocity": 1,
      "hand": "left"
    },
    {
      "midi": 57,
      "time": 46.286,
      "duration": 0.429,
      "velocity": 1,
      "hand": "left"
    },
    {
      "midi": 62,
      "time": 46.286,
      "duration": 0.429,
      "velocity": 1,
      "hand": "right"
    },
    {
      "midi": 64,
      "time": 46.286,
      "duration": 1.714,
      "velocity": 1,
      "hand": "right"
    },
    {
      "midi": 45,
      "time": 46.714,
      "duration": 0.429,
      "velocity": 1,
      "hand": "left"
    },
    {
      "midi": 60,
      "time": 46.714,
      "duration": 0.214,
      "velocity": 1,
      "hand": "right"
    },
    {
      "midi": 59,
      "time": 46.929,
      "duration": 0.214,
      "velocity": 1,
      "hand": "left"
    },
    {
      "midi": 45,
      "time": 47.143,
      "duration": 0.429,
      "velocity": 1,
      "hand": "left"
    },
    {
      "midi": 60,
      "time": 47.143,
      "duration": 1.071,
      "velocity": 1,
      "hand": "right"
    },
    {
      "midi": 45,
      "time": 47.571,
      "duration": 0.429,
      "velocity": 1,
      "hand": "left"
    },
    {
      "midi": 71,
      "time": 47.571,
      "duration": 0.429,
      "velocity": 1,
      "hand": "right"
    },
    {
      "midi": 43,
      "time": 48,
      "duration": 0.429,
      "velocity": 1,
      "hand": "left"
    },
    {
      "midi": 67,
      "time": 48,
      "duration": 1.714,
      "velocity": 1,
      "hand": "right"
    },
    {
      "midi": 72,
      "time": 48,
      "duration": 1.714,
      "velocity": 1,
      "hand": "right"
    },
    {
      "midi": 62,
      "time": 48.214,
      "duration": 0.214,
      "velocity": 1,
      "hand": "right"
    },
    {
      "midi": 43,
      "time": 48.429,
      "duration": 0.214,
      "velocity": 1,
      "hand": "left"
    },
    {
      "midi": 63,
      "time": 48.429,
      "duration": 0.429,
      "velocity": 1,
      "hand": "right"
    },
    {
      "midi": 42,
      "time": 48.643,
      "duration": 0.214,
      "velocity": 1,
      "hand": "left"
    },
    {
      "midi": 43,
      "time": 48.857,
      "duration": 0.214,
      "velocity": 1,
      "hand": "left"
    },
    {
      "midi": 63,
      "time": 48.857,
      "duration": 0.429,
      "velocity": 1,
      "hand": "right"
    },
    {
      "midi": 45,
      "time": 49.071,
      "duration": 0.214,
      "velocity": 1,
      "hand": "left"
    },
    {
      "midi": 46,
      "time": 49.286,
      "duration": 0.214,
      "velocity": 1,
      "hand": "left"
    },
    {
      "midi": 63,
      "time": 49.286,
      "duration": 0.429,
      "velocity": 1,
      "hand": "right"
    },
    {
      "midi": 48,
      "time": 49.5,
      "duration": 0.214,
      "velocity": 1,
      "hand": "left"
    },
    {
      "midi": 50,
      "time": 49.714,
      "duration": 0.857,
      "velocity": 1,
      "hand": "left"
    },
    {
      "midi": 63,
      "time": 49.714,
      "duration": 0.429,
      "velocity": 1,
      "hand": "right"
    },
    {
      "midi": 66,
      "time": 49.714,
      "duration": 1.714,
      "velocity": 1,
      "hand": "right"
    },
    {
      "midi": 62,
      "time": 50.143,
      "duration": 0.214,
      "velocity": 1,
      "hand": "right"
    },
    {
      "midi": 69,
      "time": 50.143,
      "duration": 0.429,
      "velocity": 1,
      "hand": "right"
    },
    {
      "midi": 60,
      "time": 50.357,
      "duration": 0.214,
      "velocity": 1,
      "hand": "right"
    },
    {
      "midi": 62,
      "time": 50.571,
      "duration": 0.857,
      "velocity": 1,
      "hand": "right"
    },
    {
      "midi": 69,
      "time": 50.571,
      "duration": 0.429,
      "velocity": 1,
      "hand": "right"
    },
    {
      "midi": 69,
      "time": 51,
      "duration": 0.429,
      "velocity": 1,
      "hand": "right"
    },
    {
      "midi": 47,
      "time": 51.429,
      "duration": 1.714,
      "velocity": 1,
      "hand": "left"
    },
    {
      "midi": 50,
      "time": 51.429,
      "duration": 1.286,
      "velocity": 1,
      "hand": "left"
    },
    {
      "midi": 69,
      "time": 51.429,
      "duration": 0.429,
      "velocity": 1,
      "hand": "right"
    },
    {
      "midi": 62,
      "time": 51.857,
      "duration": 0.429,
      "velocity": 1,
      "hand": "right"
    },
    {
      "midi": 67,
      "time": 51.857,
      "duration": 0.214,
      "velocity": 1,
      "hand": "right"
    },
    {
      "midi": 66,
      "time": 52.071,
      "duration": 0.214,
      "velocity": 1,
      "hand": "right"
    },
    {
      "midi": 62,
      "time": 52.286,
      "duration": 0.429,
      "velocity": 1,
      "hand": "right"
    },
    {
      "midi": 67,
      "time": 52.286,
      "duration": 0.857,
      "velocity": 1,
      "hand": "right"
    },
    {
      "midi": 52,
      "time": 52.714,
      "duration": 0.429,
      "velocity": 1,
      "hand": "left"
    },
    {
      "midi": 62,
      "time": 52.714,
      "duration": 0.429,
      "velocity": 1,
      "hand": "right"
    },
    {
      "midi": 45,
      "time": 53.143,
      "duration": 1.714,
      "velocity": 1,
      "hand": "left"
    },
    {
      "midi": 53,
      "time": 53.143,
      "duration": 0.429,
      "velocity": 1,
      "hand": "left"
    },
    {
      "midi": 62,
      "time": 53.143,
      "duration": 0.429,
      "velocity": 1,
      "hand": "right"
    },
    {
      "midi": 53,
      "time": 53.571,
      "duration": 0.429,
      "velocity": 1,
      "hand": "left"
    },
    {
      "midi": 60,
      "time": 53.571,
      "duration": 0.214,
      "velocity": 1,
      "hand": "right"
    },
    {
      "midi": 59,
      "time": 53.786,
      "duration": 0.214,
      "velocity": 1,
      "hand": "left"
    },
    {
      "midi": 53,
      "time": 54,
      "duration": 0.429,
      "velocity": 1,
      "hand": "left"
    },
    {
      "midi": 60,
      "time": 54,
      "duration": 1.071,
      "velocity": 1,
      "hand": "right"
    },
    {
      "midi": 53,
      "time": 54.429,
      "duration": 0.429,
      "velocity": 1,
      "hand": "left"
    },
    {
      "midi": 48,
      "time": 54.857,
      "duration": 1.714,
      "velocity": 1,
      "hand": "left"
    },
    {
      "midi": 53,
      "time": 54.857,
      "duration": 0.429,
      "velocity": 1,
      "hand": "left"
    },
    {
      "midi": 62,
      "time": 55.071,
      "duration": 0.214,
      "velocity": 1,
      "hand": "right"
    },
    {
      "midi": 51,
      "time": 55.286,
      "duration": 0.214,
      "velocity": 1,
      "hand": "left"
    },
    {
      "midi": 63,
      "time": 55.286,
      "duration": 0.429,
      "velocity": 1,
      "hand": "right"
    },
    {
      "midi": 50,
      "time": 55.5,
      "duration": 0.214,
      "velocity": 1,
      "hand": "left"
    },
    {
      "midi": 51,
      "time": 55.714,
      "duration": 0.857,
      "velocity": 1,
      "hand": "left"
    },
    {
      "midi": 63,
      "time": 55.714,
      "duration": 0.429,
      "velocity": 1,
      "hand": "right"
    },
    {
      "midi": 63,
      "time": 56.143,
      "duration": 0.429,
      "velocity": 1,
      "hand": "right"
    },
    {
      "midi": 47,
      "time": 56.571,
      "duration": 1.286,
      "velocity": 1,
      "hand": "left"
    },
    {
      "midi": 63,
      "time": 56.571,
      "duration": 0.429,
      "velocity": 1,
      "hand": "right"
    },
    {
      "midi": 55,
      "time": 57,
      "duration": 0.429,
      "velocity": 1,
      "hand": "left"
    },
    {
      "midi": 62,
      "time": 57,
      "duration": 0.214,
      "velocity": 1,
      "hand": "right"
    },
    {
      "midi": 60,
      "time": 57.214,
      "duration": 0.214,
      "velocity": 1,
      "hand": "right"
    },
    {
      "midi": 55,
      "time": 57.429,
      "duration": 0.429,
      "velocity": 1,
      "hand": "left"
    },
    {
      "midi": 62,
      "time": 57.429,
      "duration": 0.857,
      "velocity": 1,
      "hand": "right"
    },
    {
      "midi": 48,
      "time": 57.857,
      "duration": 0.429,
      "velocity": 1,
      "hand": "left"
    },
    {
      "midi": 55,
      "time": 57.857,
      "duration": 0.429,
      "velocity": 1,
      "hand": "left"
    },
    {
      "midi": 50,
      "time": 58.286,
      "duration": 1.286,
      "velocity": 1,
      "hand": "left"
    },
    {
      "midi": 55,
      "time": 58.286,
      "duration": 0.429,
      "velocity": 1,
      "hand": "left"
    },
    {
      "midi": 53,
      "time": 58.714,
      "duration": 0.214,
      "velocity": 1,
      "hand": "left"
    },
    {
      "midi": 62,
      "time": 58.714,
      "duration": 0.429,
      "velocity": 1,
      "hand": "right"
    },
    {
      "midi": 52,
      "time": 58.929,
      "duration": 0.214,
      "velocity": 1,
      "hand": "left"
    },
    {
      "midi": 53,
      "time": 59.143,
      "duration": 2.143,
      "velocity": 1,
      "hand": "left"
    },
    {
      "midi": 62,
      "time": 59.143,
      "duration": 0.429,
      "velocity": 1,
      "hand": "right"
    },
    {
      "midi": 52,
      "time": 59.571,
      "duration": 0.429,
      "velocity": 1,
      "hand": "left"
    },
    {
      "midi": 62,
      "time": 59.571,
      "duration": 0.429,
      "velocity": 1,
      "hand": "right"
    },
    {
      "midi": 62,
      "time": 60,
      "duration": 0.429,
      "velocity": 1,
      "hand": "right"
    },
    {
      "midi": 55,
      "time": 60.214,
      "duration": 0.214,
      "velocity": 1,
      "hand": "left"
    },
    {
      "midi": 56,
      "time": 60.429,
      "duration": 0.429,
      "velocity": 1,
      "hand": "left"
    },
    {
      "midi": 60,
      "time": 60.429,
      "duration": 0.214,
      "velocity": 1,
      "hand": "right"
    },
    {
      "midi": 59,
      "time": 60.643,
      "duration": 0.214,
      "velocity": 1,
      "hand": "left"
    },
    {
      "midi": 56,
      "time": 60.857,
      "duration": 0.429,
      "velocity": 1,
      "hand": "left"
    },
    {
      "midi": 60,
      "time": 60.857,
      "duration": 0.429,
      "velocity": 1,
      "hand": "right"
    },
    {
      "midi": 51,
      "time": 61.286,
      "duration": 0.214,
      "velocity": 1,
      "hand": "left"
    },
    {
      "midi": 56,
      "time": 61.286,
      "duration": 0.429,
      "velocity": 1,
      "hand": "left"
    },
    {
      "midi": 60,
      "time": 61.286,
      "duration": 0.643,
      "velocity": 1,
      "hand": "right"
    },
    {
      "midi": 50,
      "time": 61.5,
      "duration": 0.214,
      "velocity": 1,
      "hand": "left"
    },
    {
      "midi": 48,
      "time": 61.714,
      "duration": 1.714,
      "velocity": 1,
      "hand": "left"
    },
    {
      "midi": 56,
      "time": 61.714,
      "duration": 0.429,
      "velocity": 1,
      "hand": "left"
    },
    {
      "midi": 62,
      "time": 61.929,
      "duration": 0.214,
      "velocity": 1,
      "hand": "right"
    },
    {
      "midi": 55,
      "time": 62.143,
      "duration": 0.214,
      "velocity": 1,
      "hand": "left"
    },
    {
      "midi": 63,
      "time": 62.143,
      "duration": 0.429,
      "velocity": 1,
      "hand": "right"
    },
    {
      "midi": 53,
      "time": 62.357,
      "duration": 0.214,
      "velocity": 1,
      "hand": "left"
    },
    {
      "midi": 55,
      "time": 62.571,
      "duration": 1.929,
      "velocity": 1,
      "hand": "left"
    },
    {
      "midi": 63,
      "time": 62.571,
      "duration": 0.429,
      "velocity": 1,
      "hand": "right"
    },
    {
      "midi": 63,
      "time": 63,
      "duration": 0.429,
      "velocity": 1,
      "hand": "right"
    },
    {
      "midi": 46,
      "time": 63.429,
      "duration": 0.857,
      "velocity": 1,
      "hand": "left"
    },
    {
      "midi": 63,
      "time": 63.429,
      "duration": 0.429,
      "velocity": 1,
      "hand": "right"
    },
    {
      "midi": 62,
      "time": 63.857,
      "duration": 0.214,
      "velocity": 1,
      "hand": "right"
    },
    {
      "midi": 60,
      "time": 64.071,
      "duration": 0.214,
      "velocity": 1,
      "hand": "right"
    },
    {
      "midi": 62,
      "time": 64.286,
      "duration": 0.857,
      "velocity": 1,
      "hand": "right"
    },
    {
      "midi": 57,
      "time": 64.5,
      "duration": 0.214,
      "velocity": 1,
      "hand": "left"
    },
    {
      "midi": 58,
      "time": 64.714,
      "duration": 0.214,
      "velocity": 1,
      "hand": "left"
    },
    {
      "midi": 60,
      "time": 64.929,
      "duration": 0.214,
      "velocity": 1,
      "hand": "right"
    },
    {
      "midi": 62,
      "time": 65.143,
      "duration": 2.571,
      "velocity": 1,
      "hand": "right"
    },
    {
      "midi": 67,
      "time": 65.143,
      "duration": 1.714,
      "velocity": 1,
      "hand": "right"
    },
    {
      "midi": 70,
      "time": 65.143,
      "duration": 1.714,
      "velocity": 1,
      "hand": "right"
    },
    {
      "midi": 55,
      "time": 65.571,
      "duration": 0.429,
      "velocity": 1,
      "hand": "left"
    },
    {
      "midi": 55,
      "time": 66,
      "duration": 0.429,
      "velocity": 1,
      "hand": "left"
    },
    {
      "midi": 55,
      "time": 66.429,
      "duration": 0.429,
      "velocity": 1,
      "hand": "left"
    },
    {
      "midi": 55,
      "time": 66.857,
      "duration": 0.429,
      "velocity": 1,
      "hand": "left"
    },
    {
      "midi": 69,
      "time": 66.857,
      "duration": 1.714,
      "velocity": 1,
      "hand": "right"
    },
    {
      "midi": 53,
      "time": 67.286,
      "duration": 0.214,
      "velocity": 1,
      "hand": "left"
    },
    {
      "midi": 52,
      "time": 67.5,
      "duration": 0.214,
      "velocity": 1,
      "hand": "left"
    },
    {
      "midi": 53,
      "time": 67.714,
      "duration": 1.071,
      "velocity": 1,
      "hand": "left"
    },
    {
      "midi": 67,
      "time": 68.143,
      "duration": 0.429,
      "velocity": 1,
      "hand": "right"
    },
    {
      "midi": 65,
      "time": 68.571,
      "duration": 1.286,
      "velocity": 1,
      "hand": "right"
    },
    {
      "midi": 72,
      "time": 68.571,
      "duration": 1.714,
      "velocity": 1,
      "hand": "right"
    },
    {
      "midi": 55,
      "time": 68.786,
      "duration": 0.214,
      "velocity": 1,
      "hand": "left"
    },
    {
      "midi": 56,
      "time": 69,
      "duration": 0.429,
      "velocity": 1,
      "hand": "left"
    },
    {
      "midi": 56,
      "time": 69.429,
      "duration": 0.429,
      "velocity": 1,
      "hand": "left"
    },
    {
      "midi": 56,
      "time": 69.857,
      "duration": 0.429,
      "velocity": 1,
      "hand": "left"
    },
    {
      "midi": 63,
      "time": 69.857,
      "duration": 0.429,
      "velocity": 1,
      "hand": "right"
    },
    {
      "midi": 56,
      "time": 70.286,
      "duration": 0.429,
      "velocity": 1,
      "hand": "left"
    },
    {
      "midi": 62,
      "time": 70.286,
      "duration": 2.571,
      "velocity": 1,
      "hand": "right"
    },
    {
      "midi": 71,
      "time": 70.286,
      "duration": 1.286,
      "velocity": 1,
      "hand": "right"
    },
    {
      "midi": 55,
      "time": 70.714,
      "duration": 0.214,
      "velocity": 1,
      "hand": "left"
    },
    {
      "midi": 53,
      "time": 70.929,
      "duration": 0.214,
      "velocity": 1,
      "hand": "left"
    },
    {
      "midi": 55,
      "time": 71.143,
      "duration": 0.857,
      "velocity": 1,
      "hand": "left"
    },
    {
      "midi": 72,
      "time": 71.571,
      "duration": 0.429,
      "velocity": 1,
      "hand": "right"
    },
    {
      "midi": 50,
      "time": 72,
      "duration": 0.857,
      "velocity": 1,
      "hand": "left"
    },
    {
      "midi": 53,
      "time": 72,
      "duration": 1.714,
      "velocity": 1,
      "hand": "left"
    },
    {
      "midi": 74,
      "time": 72,
      "duration": 0.429,
      "velocity": 1,
      "hand": "right"
    },
    {
      "midi": 69,
      "time": 72.429,
      "duration": 0.429,
      "velocity": 1,
      "hand": "right"
    },
    {
      "midi": 41,
      "time": 72.857,
      "duration": 0.214,
      "velocity": 1,
      "hand": "left"
    },
    {
      "midi": 69,
      "time": 72.857,
      "duration": 0.429,
      "velocity": 1,
      "hand": "right"
    },
    {
      "midi": 43,
      "time": 73.071,
      "duration": 0.214,
      "velocity": 1,
      "hand": "left"
    },
    {
      "midi": 45,
      "time": 73.286,
      "duration": 0.214,
      "velocity": 1,
      "hand": "left"
    },
    {
      "midi": 69,
      "time": 73.286,
      "duration": 0.429,
      "velocity": 1,
      "hand": "right"
    },
    {
      "midi": 47,
      "time": 73.5,
      "duration": 0.214,
      "velocity": 1,
      "hand": "left"
    },
    {
      "midi": 48,
      "time": 73.714,
      "duration": 1.714,
      "velocity": 1,
      "hand": "left"
    },
    {
      "midi": 52,
      "time": 73.714,
      "duration": 1.714,
      "velocity": 1,
      "hand": "left"
    },
    {
      "midi": 69,
      "time": 73.714,
      "duration": 0.429,
      "velocity": 1,
      "hand": "right"
    },
    {
      "midi": 64,
      "time": 74.143,
      "duration": 0.429,
      "velocity": 1,
      "hand": "right"
    },
    {
      "midi": 67,
      "time": 74.143,
      "duration": 0.214,
      "velocity": 1,
      "hand": "right"
    },
    {
      "midi": 66,
      "time": 74.357,
      "duration": 0.214,
      "velocity": 1,
      "hand": "right"
    },
    {
      "midi": 64,
      "time": 74.571,
      "duration": 0.429,
      "velocity": 1,
      "hand": "right"
    },
    {
      "midi": 67,
      "time": 74.571,
      "duration": 1.071,
      "velocity": 1,
      "hand": "right"
    },
    {
      "midi": 64,
      "time": 75,
      "duration": 0.429,
      "velocity": 1,
      "hand": "right"
    },
    {
      "midi": 46,
      "time": 75.429,
      "duration": 1.286,
      "velocity": 1,
      "hand": "left"
    },
    {
      "midi": 55,
      "time": 75.429,
      "duration": 1.714,
      "velocity": 1,
      "hand": "left"
    },
    {
      "midi": 64,
      "time": 75.429,
      "duration": 0.429,
      "velocity": 1,
      "hand": "right"
    },
    {
      "midi": 69,
      "time": 75.643,
      "duration": 0.214,
      "velocity": 1,
      "hand": "right"
    },
    {
      "midi": 62,
      "time": 75.857,
      "duration": 0.214,
      "velocity": 1,
      "hand": "right"
    },
    {
      "midi": 70,
      "time": 75.857,
      "duration": 0.429,
      "velocity": 1,
      "hand": "right"
    },
    {
      "midi": 61,
      "time": 76.071,
      "duration": 0.214,
      "velocity": 1,
      "hand": "right"
    },
    {
      "midi": 62,
      "time": 76.286,
      "duration": 0.857,
      "velocity": 1,
      "hand": "right"
    },
    {
      "midi": 70,
      "time": 76.286,
      "duration": 0.429,
      "velocity": 1,
      "hand": "right"
    },
    {
      "midi": 48,
      "time": 76.714,
      "duration": 0.429,
      "velocity": 1,
      "hand": "left"
    },
    {
      "midi": 70,
      "time": 76.714,
      "duration": 0.429,
      "velocity": 1,
      "hand": "right"
    },
    {
      "midi": 50,
      "time": 77.143,
      "duration": 1.714,
      "velocity": 1,
      "hand": "left"
    },
    {
      "midi": 54,
      "time": 77.143,
      "duration": 0.429,
      "velocity": 1,
      "hand": "left"
    },
    {
      "midi": 70,
      "time": 77.143,
      "duration": 0.429,
      "velocity": 1,
      "hand": "right"
    },
    {
      "midi": 60,
      "time": 77.571,
      "duration": 0.429,
      "velocity": 1,
      "hand": "right"
    },
    {
      "midi": 69,
      "time": 77.571,
      "duration": 0.214,
      "velocity": 1,
      "hand": "right"
    },
    {
      "midi": 67,
      "time": 77.786,
      "duration": 0.214,
      "velocity": 1,
      "hand": "right"
    },
    {
      "midi": 60,
      "time": 78,
      "duration": 0.429,
      "velocity": 1,
      "hand": "right"
    },
    {
      "midi": 69,
      "time": 78,
      "duration": 0.857,
      "velocity": 1,
      "hand": "right"
    },
    {
      "midi": 60,
      "time": 78.429,
      "duration": 0.429,
      "velocity": 1,
      "hand": "right"
    },
    {
      "midi": 55,
      "time": 78.857,
      "duration": 1.714,
      "velocity": 1,
      "hand": "left"
    },
    {
      "midi": 60,
      "time": 78.857,
      "duration": 0.429,
      "velocity": 1,
      "hand": "right"
    },
    {
      "midi": 67,
      "time": 78.857,
      "duration": 0.214,
      "velocity": 1,
      "hand": "right"
    },
    {
      "midi": 69,
      "time": 79.071,
      "duration": 0.214,
      "velocity": 1,
      "hand": "right"
    },
    {
      "midi": 58,
      "time": 79.286,
      "duration": 0.214,
      "velocity": 1,
      "hand": "left"
    },
    {
      "midi": 70,
      "time": 79.286,
      "duration": 0.429,
      "velocity": 1,
      "hand": "right"
    },
    {
      "midi": 57,
      "time": 79.5,
      "duration": 0.214,
      "velocity": 1,
      "hand": "left"
    },
    {
      "midi": 70,
      "time": 79.714,
      "duration": 0.429,
      "velocity": 1,
      "hand": "right"
    },
    {
      "midi": 57,
      "time": 79.929,
      "duration": 0.214,
      "velocity": 1,
      "hand": "left"
    },
    {
      "midi": 58,
      "time": 80.143,
      "duration": 0.214,
      "velocity": 1,
      "hand": "left"
    },
    {
      "midi": 70,
      "time": 80.143,
      "duration": 0.429,
      "velocity": 1,
      "hand": "right"
    },
    {
      "midi": 60,
      "time": 80.357,
      "duration": 0.214,
      "velocity": 1,
      "hand": "right"
    },
    {
      "midi": 50,
      "time": 80.571,
      "duration": 1.286,
      "velocity": 1,
      "hand": "left"
    },
    {
      "midi": 62,
      "time": 80.571,
      "duration": 0.214,
      "velocity": 1,
      "hand": "right"
    },
    {
      "midi": 62,
      "time": 80.571,
      "duration": 0.429,
      "velocity": 1,
      "hand": "right"
    },
    {
      "midi": 70,
      "time": 80.571,
      "duration": 0.429,
      "velocity": 1,
      "hand": "right"
    },
    {
      "midi": 64,
      "time": 80.786,
      "duration": 0.214,
      "velocity": 1,
      "hand": "right"
    },
    {
      "midi": 62,
      "time": 81,
      "duration": 0.429,
      "velocity": 1,
      "hand": "right"
    },
    {
      "midi": 65,
      "time": 81,
      "duration": 0.429,
      "velocity": 1,
      "hand": "right"
    },
    {
      "midi": 69,
      "time": 81,
      "duration": 0.214,
      "velocity": 1,
      "hand": "right"
    },
    {
      "midi": 67,
      "time": 81.214,
      "duration": 0.214,
      "velocity": 1,
      "hand": "right"
    },
    {
      "midi": 62,
      "time": 81.429,
      "duration": 0.429,
      "velocity": 1,
      "hand": "right"
    },
    {
      "midi": 65,
      "time": 81.429,
      "duration": 0.429,
      "velocity": 1,
      "hand": "right"
    },
    {
      "midi": 69,
      "time": 81.429,
      "duration": 0.857,
      "velocity": 1,
      "hand": "right"
    },
    {
      "midi": 52,
      "time": 81.857,
      "duration": 0.429,
      "velocity": 1,
      "hand": "left"
    },
    {
      "midi": 62,
      "time": 81.857,
      "duration": 0.429,
      "velocity": 1,
      "hand": "right"
    },
    {
      "midi": 65,
      "time": 81.857,
      "duration": 0.429,
      "velocity": 1,
      "hand": "right"
    },
    {
      "midi": 53,
      "time": 82.286,
      "duration": 1.714,
      "velocity": 1,
      "hand": "left"
    },
    {
      "midi": 56,
      "time": 82.286,
      "duration": 0.857,
      "velocity": 1,
      "hand": "left"
    },
    {
      "midi": 60,
      "time": 82.286,
      "duration": 0.857,
      "velocity": 1,
      "hand": "right"
    },
    {
      "midi": 65,
      "time": 82.286,
      "duration": 0.214,
      "velocity": 1,
      "hand": "right"
    },
    {
      "midi": 67,
      "time": 82.5,
      "duration": 0.214,
      "velocity": 1,
      "hand": "right"
    },
    {
      "midi": 68,
      "time": 82.714,
      "duration": 0.429,
      "velocity": 1,
      "hand": "right"
    },
    {
      "midi": 68,
      "time": 83.143,
      "duration": 0.429,
      "velocity": 1,
      "hand": "right"
    },
    {
      "midi": 55,
      "time": 83.357,
      "duration": 0.214,
      "velocity": 1,
      "hand": "left"
    },
    {
      "midi": 56,
      "time": 83.571,
      "duration": 0.214,
      "velocity": 1,
      "hand": "left"
    },
    {
      "midi": 68,
      "time": 83.571,
      "duration": 0.429,
      "velocity": 1,
      "hand": "right"
    },
    {
      "midi": 58,
      "time": 83.786,
      "duration": 0.214,
      "velocity": 1,
      "hand": "left"
    },
    {
      "midi": 48,
      "time": 84,
      "duration": 1.286,
      "velocity": 1,
      "hand": "left"
    },
    {
      "midi": 60,
      "time": 84,
      "duration": 0.214,
      "velocity": 1,
      "hand": "right"
    },
    {
      "midi": 60,
      "time": 84,
      "duration": 0.429,
      "velocity": 1,
      "hand": "right"
    },
    {
      "midi": 68,
      "time": 84,
      "duration": 0.429,
      "velocity": 1,
      "hand": "right"
    },
    {
      "midi": 62,
      "time": 84.214,
      "duration": 0.214,
      "velocity": 1,
      "hand": "right"
    },
    {
      "midi": 60,
      "time": 84.429,
      "duration": 0.429,
      "velocity": 1,
      "hand": "right"
    },
    {
      "midi": 63,
      "time": 84.429,
      "duration": 0.429,
      "velocity": 1,
      "hand": "right"
    },
    {
      "midi": 67,
      "time": 84.429,
      "duration": 0.214,
      "velocity": 1,
      "hand": "right"
    },
    {
      "midi": 65,
      "time": 84.643,
      "duration": 0.214,
      "velocity": 1,
      "hand": "right"
    },
    {
      "midi": 60,
      "time": 84.857,
      "duration": 0.429,
      "velocity": 1,
      "hand": "right"
    },
    {
      "midi": 63,
      "time": 84.857,
      "duration": 0.429,
      "velocity": 1,
      "hand": "right"
    },
    {
      "midi": 67,
      "time": 84.857,
      "duration": 1.286,
      "velocity": 1,
      "hand": "right"
    },
    {
      "midi": 50,
      "time": 85.286,
      "duration": 0.214,
      "velocity": 1,
      "hand": "left"
    },
    {
      "midi": 60,
      "time": 85.286,
      "duration": 0.429,
      "velocity": 1,
      "hand": "right"
    },
    {
      "midi": 63,
      "time": 85.286,
      "duration": 0.429,
      "velocity": 1,
      "hand": "right"
    },
    {
      "midi": 51,
      "time": 85.5,
      "duration": 0.214,
      "velocity": 1,
      "hand": "left"
    },
    {
      "midi": 53,
      "time": 85.714,
      "duration": 3.429,
      "velocity": 1,
      "hand": "left"
    },
    {
      "midi": 62,
      "time": 85.714,
      "duration": 0.857,
      "velocity": 1,
      "hand": "right"
    },
    {
      "midi": 58,
      "time": 86.143,
      "duration": 0.429,
      "velocity": 1,
      "hand": "left"
    },
    {
      "midi": 65,
      "time": 86.143,
      "duration": 0.214,
      "velocity": 1,
      "hand": "right"
    },
    {
      "midi": 64,
      "time": 86.357,
      "duration": 0.214,
      "velocity": 1,
      "hand": "right"
    },
    {
      "midi": 58,
      "time": 86.571,
      "duration": 0.429,
      "velocity": 1,
      "hand": "left"
    },
    {
      "midi": 61,
      "time": 86.571,
      "duration": 0.857,
      "velocity": 1,
      "hand": "right"
    },
    {
      "midi": 65,
      "time": 86.571,
      "duration": 2.571,
      "velocity": 1,
      "hand": "right"
    },
    {
      "midi": 58,
      "time": 87,
      "duration": 0.429,
      "velocity": 1,
      "hand": "left"
    },
    {
      "midi": 58,
      "time": 87.429,
      "duration": 0.429,
      "velocity": 1,
      "hand": "left"
    },
    {
      "midi": 60,
      "time": 87.429,
      "duration": 0.857,
      "velocity": 1,
      "hand": "right"
    },
    {
      "midi": 57,
      "time": 87.857,
      "duration": 0.214,
      "velocity": 1,
      "hand": "left"
    },
    {
      "midi": 55,
      "time": 88.071,
      "duration": 0.214,
      "velocity": 1,
      "hand": "left"
    },
    {
      "midi": 57,
      "time": 88.286,
      "duration": 0.857,
      "velocity": 1,
      "hand": "left"
    },
    {
      "midi": 60,
      "time": 88.286,
      "duration": 0.857,
      "velocity": 1,
      "hand": "right"
    },
    {
      "midi": 46,
      "time": 90,
      "duration": 0.857,
      "velocity": 1,
      "hand": "left"
    },
    {
      "midi": 45,
      "time": 90.857,
      "duration": 1.714,
      "velocity": 1,
      "hand": "left"
    },
    {
      "midi": 53,
      "time": 91.714,
      "duration": 0.857,
      "velocity": 1,
      "hand": "left"
    },
    {
      "midi": 48,
      "time": 92.571,
      "duration": 1.714,
      "velocity": 1,
      "hand": "left"
    },
    {
      "midi": 52,
      "time": 92.571,
      "duration": 1.714,
      "velocity": 1,
      "hand": "left"
    },
    {
      "midi": 47,
      "time": 94.286,
      "duration": 0.429,
      "velocity": 1,
      "hand": "left"
    },
    {
      "midi": 55,
      "time": 94.286,
      "duration": 1.714,
      "velocity": 1,
      "hand": "left"
    },
    {
      "midi": 45,
      "time": 94.714,
      "duration": 0.429,
      "velocity": 1,
      "hand": "left"
    },
    {
      "midi": 47,
      "time": 95.143,
      "duration": 0.429,
      "velocity": 1,
      "hand": "left"
    },
    {
      "midi": 48,
      "time": 95.571,
      "duration": 0.429,
      "velocity": 1,
      "hand": "left"
    },
    {
      "midi": 50,
      "time": 96,
      "duration": 0.429,
      "velocity": 1,
      "hand": "left"
    },
    {
      "midi": 54,
      "time": 96,
      "duration": 1.714,
      "velocity": 1,
      "hand": "left"
    },
    {
      "midi": 48,
      "time": 96.429,
      "duration": 0.429,
      "velocity": 1,
      "hand": "left"
    },
    {
      "midi": 46,
      "time": 96.857,
      "duration": 0.429,
      "velocity": 1,
      "hand": "left"
    },
    {
      "midi": 45,
      "time": 97.286,
      "duration": 0.429,
      "velocity": 1,
      "hand": "left"
    },
    {
      "midi": 43,
      "time": 97.714,
      "duration": 0.429,
      "velocity": 1,
      "hand": "left"
    },
    {
      "midi": 55,
      "time": 97.714,
      "duration": 2.143,
      "velocity": 1,
      "hand": "left"
    },
    {
      "midi": 45,
      "time": 98.143,
      "duration": 0.429,
      "velocity": 1,
      "hand": "left"
    },
    {
      "midi": 46,
      "time": 98.571,
      "duration": 0.429,
      "velocity": 1,
      "hand": "left"
    },
    {
      "midi": 58,
      "time": 98.571,
      "duration": 0.857,
      "velocity": 1,
      "hand": "left"
    },
    {
      "midi": 48,
      "time": 99,
      "duration": 0.429,
      "velocity": 1,
      "hand": "left"
    },
    {
      "midi": 50,
      "time": 99.429,
      "duration": 0.857,
      "velocity": 1,
      "hand": "left"
    },
    {
      "midi": 57,
      "time": 99.429,
      "duration": 1.714,
      "velocity": 1,
      "hand": "left"
    },
    {
      "midi": 53,
      "time": 99.857,
      "duration": 0.429,
      "velocity": 1,
      "hand": "left"
    },
    {
      "midi": 38,
      "time": 100.286,
      "duration": 0.857,
      "velocity": 1,
      "hand": "left"
    },
    {
      "midi": 52,
      "time": 100.286,
      "duration": 0.429,
      "velocity": 1,
      "hand": "left"
    },
    {
      "midi": 65,
      "time": 100.286,
      "duration": 0.857,
      "velocity": 1,
      "hand": "right"
    },
    {
      "midi": 50,
      "time": 100.714,
      "duration": 0.429,
      "velocity": 1,
      "hand": "left"
    },
    {
      "midi": 45,
      "time": 101.143,
      "duration": 1.714,
      "velocity": 1,
      "hand": "left"
    },
    {
      "midi": 48,
      "time": 101.143,
      "duration": 0.429,
      "velocity": 1,
      "hand": "left"
    },
    {
      "midi": 60,
      "time": 101.143,
      "duration": 1.714,
      "velocity": 1,
      "hand": "right"
    },
    {
      "midi": 63,
      "time": 101.143,
      "duration": 1.714,
      "velocity": 1,
      "hand": "right"
    },
    {
      "midi": 47,
      "time": 102,
      "duration": 0.429,
      "velocity": 1,
      "hand": "left"
    },
    {
      "midi": 48,
      "time": 102.429,
      "duration": 0.429,
      "velocity": 1,
      "hand": "left"
    },
    {
      "midi": 43,
      "time": 102.857,
      "duration": 1.714,
      "velocity": 1,
      "hand": "left"
    },
    {
      "midi": 50,
      "time": 102.857,
      "duration": 3.429,
      "velocity": 1,
      "hand": "left"
    },
    {
      "midi": 59,
      "time": 102.857,
      "duration": 0.429,
      "velocity": 1,
      "hand": "left"
    },
    {
      "midi": 67,
      "time": 102.857,
      "duration": 1.714,
      "velocity": 1,
      "hand": "right"
    },
    {
      "midi": 57,
      "time": 103.286,
      "duration": 0.429,
      "velocity": 1,
      "hand": "left"
    },
    {
      "midi": 58,
      "time": 103.714,
      "duration": 0.429,
      "velocity": 1,
      "hand": "left"
    },
    {
      "midi": 60,
      "time": 104.143,
      "duration": 0.429,
      "velocity": 1,
      "hand": "right"
    },
    {
      "midi": 38,
      "time": 104.571,
      "duration": 1.714,
      "velocity": 1,
      "hand": "left"
    },
    {
      "midi": 62,
      "time": 104.571,
      "duration": 0.429,
      "velocity": 1,
      "hand": "right"
    },
    {
      "midi": 66,
      "time": 104.571,
      "duration": 1.714,
      "velocity": 1,
      "hand": "right"
    },
    {
      "midi": 63,
      "time": 105,
      "duration": 0.429,
      "velocity": 1,
      "hand": "right"
    },
    {
      "midi": 62,
      "time": 105.429,
      "duration": 0.429,
      "velocity": 1,
      "hand": "right"
    },
    {
      "midi": 60,
      "time": 105.857,
      "duration": 0.429,
      "velocity": 1,
      "hand": "right"
    },
    {
      "midi": 43,
      "time": 106.286,
      "duration": 15.429,
      "velocity": 1,
      "hand": "left"
    },
    {
      "midi": 58,
      "time": 106.286,
      "duration": 1.286,
      "velocity": 1,
      "hand": "left"
    },
    {
      "midi": 67,
      "time": 106.286,
      "duration": 0.857,
      "velocity": 1,
      "hand": "right"
    },
    {
      "midi": 55,
      "time": 106.714,
      "duration": 0.429,
      "velocity": 1,
      "hand": "left"
    },
    {
      "midi": 55,
      "time": 107.143,
      "duration": 0.429,
      "velocity": 1,
      "hand": "left"
    },
    {
      "midi": 70,
      "time": 107.143,
      "duration": 1.714,
      "velocity": 1,
      "hand": "right"
    },
    {
      "midi": 55,
      "time": 107.571,
      "duration": 0.429,
      "velocity": 1,
      "hand": "left"
    },
    {
      "midi": 60,
      "time": 107.571,
      "duration": 0.429,
      "velocity": 1,
      "hand": "right"
    },
    {
      "midi": 55,
      "time": 108,
      "duration": 0.429,
      "velocity": 1,
      "hand": "left"
    },
    {
      "midi": 62,
      "time": 108,
      "duration": 1.714,
      "velocity": 1,
      "hand": "right"
    },
    {
      "midi": 53,
      "time": 108.429,
      "duration": 0.214,
      "velocity": 1,
      "hand": "left"
    },
    {
      "midi": 52,
      "time": 108.643,
      "duration": 0.214,
      "velocity": 1,
      "hand": "left"
    },
    {
      "midi": 53,
      "time": 108.857,
      "duration": 1.071,
      "velocity": 1,
      "hand": "left"
    },
    {
      "midi": 69,
      "time": 108.857,
      "duration": 0.857,
      "velocity": 1,
      "hand": "right"
    },
    {
      "midi": 60,
      "time": 109.714,
      "duration": 1.714,
      "velocity": 1,
      "hand": "right"
    },
    {
      "midi": 72,
      "time": 109.714,
      "duration": 1.714,
      "velocity": 1,
      "hand": "right"
    },
    {
      "midi": 55,
      "time": 109.929,
      "duration": 0.214,
      "velocity": 1,
      "hand": "left"
    },
    {
      "midi": 56,
      "time": 110.143,
      "duration": 0.429,
      "velocity": 1,
      "hand": "left"
    },
    {
      "midi": 56,
      "time": 110.571,
      "duration": 0.429,
      "velocity": 1,
      "hand": "left"
    },
    {
      "midi": 56,
      "time": 111,
      "duration": 0.429,
      "velocity": 1,
      "hand": "left"
    },
    {
      "midi": 56,
      "time": 111.429,
      "duration": 0.429,
      "velocity": 1,
      "hand": "left"
    },
    {
      "midi": 62,
      "time": 111.429,
      "duration": 1.714,
      "velocity": 1,
      "hand": "right"
    },
    {
      "midi": 71,
      "time": 111.429,
      "duration": 1.071,
      "velocity": 1,
      "hand": "right"
    },
    {
      "midi": 55,
      "time": 111.857,
      "duration": 0.214,
      "velocity": 1,
      "hand": "left"
    },
    {
      "midi": 53,
      "time": 112.071,
      "duration": 0.214,
      "velocity": 1,
      "hand": "left"
    },
    {
      "midi": 55,
      "time": 112.286,
      "duration": 0.429,
      "velocity": 1,
      "hand": "left"
    },
    {
      "midi": 67,
      "time": 112.5,
      "duration": 0.214,
      "velocity": 1,
      "hand": "right"
    },
    {
      "midi": 53,
      "time": 112.714,
      "duration": 0.857,
      "velocity": 1,
      "hand": "left"
    },
    {
      "midi": 69,
      "time": 112.714,
      "duration": 0.214,
      "velocity": 1,
      "hand": "right"
    },
    {
      "midi": 71,
      "time": 112.929,
      "duration": 0.214,
      "velocity": 1,
      "hand": "right"
    },
    {
      "midi": 60,
      "time": 113.143,
      "duration": 1.071,
      "velocity": 1,
      "hand": "right"
    },
    {
      "midi": 72,
      "time": 113.143,
      "duration": 0.429,
      "velocity": 1,
      "hand": "right"
    },
    {
      "midi": 51,
      "time": 113.571,
      "duration": 0.214,
      "velocity": 1,
      "hand": "left"
    },
    {
      "midi": 72,
      "time": 113.571,
      "duration": 0.429,
      "velocity": 1,
      "hand": "right"
    },
    {
      "midi": 50,
      "time": 113.786,
      "duration": 0.214,
      "velocity": 1,
      "hand": "left"
    },
    {
      "midi": 51,
      "time": 114,
      "duration": 0.857,
      "velocity": 1,
      "hand": "left"
    },
    {
      "midi": 72,
      "time": 114,
      "duration": 0.429,
      "velocity": 1,
      "hand": "right"
    },
    {
      "midi": 62,
      "time": 114.214,
      "duration": 0.214,
      "velocity": 1,
      "hand": "right"
    },
    {
      "midi": 63,
      "time": 114.429,
      "duration": 0.214,
      "velocity": 1,
      "hand": "right"
    },
    {
      "midi": 72,
      "time": 114.429,
      "duration": 0.429,
      "velocity": 1,
      "hand": "right"
    },
    {
      "midi": 65,
      "time": 114.643,
      "duration": 0.214,
      "velocity": 1,
      "hand": "right"
    },
    {
      "midi": 50,
      "time": 114.857,
      "duration": 0.429,
      "velocity": 1,
      "hand": "left"
    },
    {
      "midi": 67,
      "time": 114.857,
      "duration": 1.286,
      "velocity": 1,
      "hand": "right"
    },
    {
      "midi": 72,
      "time": 114.857,
      "duration": 0.429,
      "velocity": 1,
      "hand": "right"
    },
    {
      "midi": 62,
      "time": 115.286,
      "duration": 0.429,
      "velocity": 1,
      "hand": "right"
    },
    {
      "midi": 70,
      "time": 115.286,
      "duration": 0.214,
      "velocity": 1,
      "hand": "right"
    },
    {
      "midi": 69,
      "time": 115.5,
      "duration": 0.214,
      "velocity": 1,
      "hand": "right"
    },
    {
      "midi": 62,
      "time": 115.714,
      "duration": 0.429,
      "velocity": 1,
      "hand": "right"
    },
    {
      "midi": 70,
      "time": 115.714,
      "duration": 1.286,
      "velocity": 1,
      "hand": "right"
    },
    {
      "midi": 62,
      "time": 116.143,
      "duration": 0.429,
      "velocity": 1,
      "hand": "right"
    },
    {
      "midi": 65,
      "time": 116.143,
      "duration": 0.429,
      "velocity": 1,
      "hand": "right"
    },
    {
      "midi": 62,
      "time": 116.571,
      "duration": 0.429,
      "velocity": 1,
      "hand": "right"
    },
    {
      "midi": 64,
      "time": 116.571,
      "duration": 0.857,
      "velocity": 1,
      "hand": "right"
    },
    {
      "midi": 61,
      "time": 117,
      "duration": 0.214,
      "velocity": 1,
      "hand": "right"
    },
    {
      "midi": 69,
      "time": 117,
      "duration": 0.214,
      "velocity": 1,
      "hand": "right"
    },
    {
      "midi": 59,
      "time": 117.214,
      "duration": 0.214,
      "velocity": 1,
      "hand": "left"
    },
    {
      "midi": 67,
      "time": 117.214,
      "duration": 0.214,
      "velocity": 1,
      "hand": "right"
    },
    {
      "midi": 60,
      "time": 117.429,
      "duration": 0.429,
      "velocity": 1,
      "hand": "right"
    },
    {
      "midi": 63,
      "time": 117.429,
      "duration": 0.857,
      "velocity": 1,
      "hand": "right"
    },
    {
      "midi": 69,
      "time": 117.429,
      "duration": 1.286,
      "velocity": 1,
      "hand": "right"
    },
    {
      "midi": 60,
      "time": 117.857,
      "duration": 0.429,
      "velocity": 1,
      "hand": "right"
    },
    {
      "midi": 60,
      "time": 118.286,
      "duration": 0.429,
      "velocity": 1,
      "hand": "right"
    },
    {
      "midi": 59,
      "time": 118.714,
      "duration": 0.214,
      "velocity": 1,
      "hand": "left"
    },
    {
      "midi": 62,
      "time": 118.714,
      "duration": 0.429,
      "velocity": 1,
      "hand": "right"
    },
    {
      "midi": 67,
      "time": 118.714,
      "duration": 0.214,
      "velocity": 1,
      "hand": "right"
    },
    {
      "midi": 57,
      "time": 118.929,
      "duration": 0.214,
      "velocity": 1,
      "hand": "left"
    },
    {
      "midi": 66,
      "time": 118.929,
      "duration": 0.214,
      "velocity": 1,
      "hand": "right"
    },
    {
      "midi": 58,
      "time": 119.143,
      "duration": 0.857,
      "velocity": 1,
      "hand": "left"
    },
    {
      "midi": 62,
      "time": 119.143,
      "duration": 0.429,
      "velocity": 1,
      "hand": "right"
    },
    {
      "midi": 67,
      "time": 119.143,
      "duration": 1.286,
      "velocity": 1,
      "hand": "right"
    },
    {
      "midi": 62,
      "time": 119.571,
      "duration": 0.429,
      "velocity": 1,
      "hand": "right"
    },
    {
      "midi": 57,
      "time": 120,
      "duration": 1.714,
      "velocity": 1,
      "hand": "left"
    },
    {
      "midi": 62,
      "time": 120,
      "duration": 1.286,
      "velocity": 1,
      "hand": "right"
    },
    {
      "midi": 66,
      "time": 120.429,
      "duration": 0.214,
      "velocity": 1,
      "hand": "right"
    },
    {
      "midi": 64,
      "time": 120.643,
      "duration": 0.214,
      "velocity": 1,
      "hand": "right"
    },
    {
      "midi": 66,
      "time": 120.857,
      "duration": 0.857,
      "velocity": 1,
      "hand": "right"
    },
    {
      "midi": 60,
      "time": 121.286,
      "duration": 0.429,
      "velocity": 1,
      "hand": "right"
    },
    {
      "midi": 67,
      "time": 121.5,
      "duration": 0.054,
      "velocity": 1,
      "hand": "right"
    },
    {
      "midi": 43,
      "time": 121.714,
      "duration": 1.714,
      "velocity": 1,
      "hand": "left"
    },
    {
      "midi": 50,
      "time": 121.714,
      "duration": 1.714,
      "velocity": 1,
      "hand": "left"
    },
    {
      "midi": 59,
      "time": 121.714,
      "duration": 1.714,
      "velocity": 1,
      "hand": "left"
    },
    {
      "midi": 67,
      "time": 121.714,
      "duration": 1.714,
      "velocity": 1,
      "hand": "right"
    }
  ]
}
