{
  "id": "fui-no-itororo",
  "title": "Fui no Itororó",
  "artist": "Tradicional",
  "difficulty": "Difícil",
  "bpm": 80,
  "duration": 91,
  "category": "Infantis",
  "isPremium": false,
  "coverUrl": "/images/covers/placeholder.png",
  "notes": [
    {
      "midi": 72,
      "time": 0,
      "duration": 0.136,
      "velocity": 0.71,
      "hand": "right"
    },
    {
      "midi": 78,
      "time": 0,
      "duration": 1.227,
      "velocity": 0.43,
      "hand": "right"
    },
    {
      "midi": 83,
      "time": 0,
      "duration": 7.758,
      "velocity": 0.91,
      "hand": "right"
    },
    {
      "midi": 53,
      "time": 0.273,
      "duration": 0.682,
      "velocity": 0.33,
      "hand": "left"
    },
    {
      "midi": 57,
      "time": 0.273,
      "duration": 0.682,
      "velocity": 0.57,
      "hand": "left"
    },
    {
      "midi": 65,
      "time": 0.273,
      "duration": 0.682,
      "velocity": 0.27,
      "hand": "right"
    },
    {
      "midi": 69,
      "time": 0.273,
      "duration": 0.273,
      "velocity": 0.51,
      "hand": "right"
    },
    {
      "midi": 72,
      "time": 0.273,
      "duration": 0.136,
      "velocity": 0.63,
      "hand": "right"
    },
    {
      "midi": 77,
      "time": 0.273,
      "duration": 0.136,
      "velocity": 0.74,
      "hand": "right"
    },
    {
      "midi": 72,
      "time": 0.545,
      "duration": 0.136,
      "velocity": 0.86,
      "hand": "right"
    },
    {
      "midi": 69,
      "time": 0.818,
      "duration": 0.136,
      "velocity": 0.65,
      "hand": "right"
    },
    {
      "midi": 72,
      "time": 0.818,
      "duration": 0.273,
      "velocity": 0.86,
      "hand": "right"
    },
    {
      "midi": 77,
      "time": 0.818,
      "duration": 0.068,
      "velocity": 0.71,
      "hand": "right"
    },
    {
      "midi": 70,
      "time": 1.091,
      "duration": 0.273,
      "velocity": 0.69,
      "hand": "right"
    },
    {
      "midi": 41,
      "time": 1.364,
      "duration": 0.818,
      "velocity": 0.62,
      "hand": "left"
    },
    {
      "midi": 53,
      "time": 1.364,
      "duration": 0.955,
      "velocity": 0.55,
      "hand": "left"
    },
    {
      "midi": 69,
      "time": 1.364,
      "duration": 0.273,
      "velocity": 0.46,
      "hand": "right"
    },
    {
      "midi": 72,
      "time": 1.364,
      "duration": 0.136,
      "velocity": 0.61,
      "hand": "right"
    },
    {
      "midi": 78,
      "time": 1.364,
      "duration": 2.985,
      "velocity": 0.65,
      "hand": "right"
    },
    {
      "midi": 60,
      "time": 1.636,
      "duration": 0.273,
      "velocity": 0.57,
      "hand": "right"
    },
    {
      "midi": 65,
      "time": 1.909,
      "duration": 0.409,
      "velocity": 0.68,
      "hand": "right"
    },
    {
      "midi": 69,
      "time": 1.909,
      "duration": 0.258,
      "velocity": 0.61,
      "hand": "right"
    },
    {
      "midi": 72,
      "time": 1.909,
      "duration": 0.068,
      "velocity": 0.59,
      "hand": "right"
    },
    {
      "midi": 77,
      "time": 1.909,
      "duration": 0.273,
      "velocity": 0.76,
      "hand": "right"
    },
    {
      "midi": 69,
      "time": 2.182,
      "duration": 0.258,
      "velocity": 0.43,
      "hand": "right"
    },
    {
      "midi": 76,
      "time": 2.182,
      "duration": 0.273,
      "velocity": 0.62,
      "hand": "right"
    },
    {
      "midi": 38,
      "time": 2.455,
      "duration": 0.955,
      "velocity": 0.52,
      "hand": "left"
    },
    {
      "midi": 53,
      "time": 2.455,
      "duration": 0.682,
      "velocity": 0.33,
      "hand": "left"
    },
    {
      "midi": 69,
      "time": 2.455,
      "duration": 0.136,
      "velocity": 0.51,
      "hand": "right"
    },
    {
      "midi": 72,
      "time": 2.455,
      "duration": 0.068,
      "velocity": 0.38,
      "hand": "right"
    },
    {
      "midi": 74,
      "time": 2.455,
      "duration": 0.136,
      "velocity": 0.79,
      "hand": "right"
    },
    {
      "midi": 77,
      "time": 2.455,
      "duration": 0.068,
      "velocity": 0.69,
      "hand": "right"
    },
    {
      "midi": 60,
      "time": 2.727,
      "duration": 0.545,
      "velocity": 0.52,
      "hand": "right"
    },
    {
      "midi": 74,
      "time": 2.727,
      "duration": 0.136,
      "velocity": 0.83,
      "hand": "right"
    },
    {
      "midi": 69,
      "time": 3,
      "duration": 0.136,
      "velocity": 0.51,
      "hand": "right"
    },
    {
      "midi": 72,
      "time": 3,
      "duration": 0.068,
      "velocity": 0.65,
      "hand": "right"
    },
    {
      "midi": 74,
      "time": 3,
      "duration": 0.273,
      "velocity": 0.81,
      "hand": "right"
    },
    {
      "midi": 77,
      "time": 3,
      "duration": 0.136,
      "velocity": 0.74,
      "hand": "right"
    },
    {
      "midi": 69,
      "time": 3.273,
      "duration": 0.273,
      "velocity": 0.42,
      "hand": "right"
    },
    {
      "midi": 72,
      "time": 3.273,
      "duration": 0.273,
      "velocity": 0.34,
      "hand": "right"
    },
    {
      "midi": 43,
      "time": 3.545,
      "duration": 0.955,
      "velocity": 0.55,
      "hand": "left"
    },
    {
      "midi": 55,
      "time": 3.545,
      "duration": 0.682,
      "velocity": 0.17,
      "hand": "left"
    },
    {
      "midi": 62,
      "time": 3.545,
      "duration": 0.682,
      "velocity": 0.41,
      "hand": "right"
    },
    {
      "midi": 67,
      "time": 3.545,
      "duration": 0.682,
      "velocity": 0.15,
      "hand": "right"
    },
    {
      "midi": 70,
      "time": 3.545,
      "duration": 0.273,
      "velocity": 0.5,
      "hand": "right"
    },
    {
      "midi": 74,
      "time": 3.545,
      "duration": 0.531,
      "velocity": 0.86,
      "hand": "right"
    },
    {
      "midi": 65,
      "time": 3.818,
      "duration": 0.409,
      "velocity": 0.52,
      "hand": "right"
    },
    {
      "midi": 70,
      "time": 4.091,
      "duration": 0.258,
      "velocity": 0.23,
      "hand": "right"
    },
    {
      "midi": 74,
      "time": 4.091,
      "duration": 0.53,
      "velocity": 0.83,
      "hand": "right"
    },
    {
      "midi": 77,
      "time": 4.091,
      "duration": 0.955,
      "velocity": 0.49,
      "hand": "right"
    },
    {
      "midi": 62,
      "time": 4.364,
      "duration": 1.227,
      "velocity": 0.55,
      "hand": "right"
    },
    {
      "midi": 70,
      "time": 4.364,
      "duration": 0.136,
      "velocity": 0.74,
      "hand": "right"
    },
    {
      "midi": 78,
      "time": 4.364,
      "duration": 3.273,
      "velocity": 0.91,
      "hand": "right"
    },
    {
      "midi": 41,
      "time": 4.636,
      "duration": 0.818,
      "velocity": 0.69,
      "hand": "left"
    },
    {
      "midi": 53,
      "time": 4.636,
      "duration": 0.682,
      "velocity": 0.43,
      "hand": "left"
    },
    {
      "midi": 65,
      "time": 4.636,
      "duration": 0.531,
      "velocity": 0.55,
      "hand": "right"
    },
    {
      "midi": 70,
      "time": 4.636,
      "duration": 0.258,
      "velocity": 0.72,
      "hand": "right"
    },
    {
      "midi": 74,
      "time": 4.636,
      "duration": 0.273,
      "velocity": 0.76,
      "hand": "right"
    },
    {
      "midi": 70,
      "time": 4.909,
      "duration": 0.258,
      "velocity": 0.57,
      "hand": "right"
    },
    {
      "midi": 65,
      "time": 5.182,
      "duration": 0.409,
      "velocity": 0.49,
      "hand": "right"
    },
    {
      "midi": 70,
      "time": 5.182,
      "duration": 0.273,
      "velocity": 0.55,
      "hand": "right"
    },
    {
      "midi": 74,
      "time": 5.182,
      "duration": 0.136,
      "velocity": 0.79,
      "hand": "right"
    },
    {
      "midi": 69,
      "time": 5.318,
      "duration": 0.273,
      "velocity": 0.83,
      "hand": "right"
    },
    {
      "midi": 74,
      "time": 5.455,
      "duration": 0.273,
      "velocity": 0.52,
      "hand": "right"
    },
    {
      "midi": 77,
      "time": 5.455,
      "duration": 0.273,
      "velocity": 0.34,
      "hand": "right"
    },
    {
      "midi": 36,
      "time": 5.727,
      "duration": 0.818,
      "velocity": 0.54,
      "hand": "left"
    },
    {
      "midi": 48,
      "time": 5.727,
      "duration": 0.682,
      "velocity": 0.28,
      "hand": "left"
    },
    {
      "midi": 67,
      "time": 5.727,
      "duration": 0.258,
      "velocity": 0.74,
      "hand": "right"
    },
    {
      "midi": 70,
      "time": 5.727,
      "duration": 0.273,
      "velocity": 0.38,
      "hand": "right"
    },
    {
      "midi": 72,
      "time": 5.727,
      "duration": 0.273,
      "velocity": 0.4,
      "hand": "right"
    },
    {
      "midi": 76,
      "time": 5.727,
      "duration": 0.273,
      "velocity": 0.5,
      "hand": "right"
    },
    {
      "midi": 67,
      "time": 6,
      "duration": 0.409,
      "velocity": 0.65,
      "hand": "right"
    },
    {
      "midi": 70,
      "time": 6.273,
      "duration": 0.136,
      "velocity": 0.41,
      "hand": "right"
    },
    {
      "midi": 72,
      "time": 6.273,
      "duration": 0.273,
      "velocity": 0.62,
      "hand": "right"
    },
    {
      "midi": 76,
      "time": 6.273,
      "duration": 0.53,
      "velocity": 0.66,
      "hand": "right"
    },
    {
      "midi": 79,
      "time": 6.273,
      "duration": 0.955,
      "velocity": 0.35,
      "hand": "right"
    },
    {
      "midi": 64,
      "time": 6.545,
      "duration": 0.273,
      "velocity": 0.43,
      "hand": "right"
    },
    {
      "midi": 74,
      "time": 6.545,
      "duration": 0.273,
      "velocity": 0.63,
      "hand": "right"
    },
    {
      "midi": 36,
      "time": 6.818,
      "duration": 0.818,
      "velocity": 0.52,
      "hand": "left"
    },
    {
      "midi": 48,
      "time": 6.818,
      "duration": 0.682,
      "velocity": 0.18,
      "hand": "left"
    },
    {
      "midi": 70,
      "time": 6.818,
      "duration": 0.531,
      "velocity": 0.71,
      "hand": "right"
    },
    {
      "midi": 72,
      "time": 6.818,
      "duration": 0.258,
      "velocity": 0.79,
      "hand": "right"
    },
    {
      "midi": 76,
      "time": 6.818,
      "duration": 0.273,
      "velocity": 0.65,
      "hand": "right"
    },
    {
      "midi": 64,
      "time": 6.955,
      "duration": 0.409,
      "velocity": 0.66,
      "hand": "right"
    },
    {
      "midi": 72,
      "time": 7.091,
      "duration": 0.136,
      "velocity": 0.74,
      "hand": "right"
    },
    {
      "midi": 70,
      "time": 7.364,
      "duration": 0.136,
      "velocity": 0.35,
      "hand": "right"
    },
    {
      "midi": 72,
      "time": 7.364,
      "duration": 0.273,
      "velocity": 0.79,
      "hand": "right"
    },
    {
      "midi": 76,
      "time": 7.364,
      "duration": 0.545,
      "velocity": 0.62,
      "hand": "right"
    },
    {
      "midi": 74,
      "time": 7.636,
      "duration": 0.273,
      "velocity": 0.71,
      "hand": "right"
    },
    {
      "midi": 79,
      "time": 7.636,
      "duration": 0.273,
      "velocity": 0.62,
      "hand": "right"
    },
    {
      "midi": 41,
      "time": 7.773,
      "duration": 0.818,
      "velocity": 0.41,
      "hand": "left"
    },
    {
      "midi": 78,
      "time": 7.773,
      "duration": 3.257,
      "velocity": 0.8,
      "hand": "right"
    },
    {
      "midi": 83,
      "time": 7.773,
      "duration": 2.167,
      "velocity": 0.65,
      "hand": "right"
    },
    {
      "midi": 53,
      "time": 7.909,
      "duration": 0.682,
      "velocity": 0.19,
      "hand": "left"
    },
    {
      "midi": 57,
      "time": 7.909,
      "duration": 1.076,
      "velocity": 0.76,
      "hand": "left"
    },
    {
      "midi": 65,
      "time": 7.909,
      "duration": 0.394,
      "velocity": 0.24,
      "hand": "right"
    },
    {
      "midi": 69,
      "time": 7.909,
      "duration": 0.273,
      "velocity": 0.43,
      "hand": "right"
    },
    {
      "midi": 72,
      "time": 7.909,
      "duration": 0.531,
      "velocity": 0.79,
      "hand": "right"
    },
    {
      "midi": 77,
      "time": 7.909,
      "duration": 0.273,
      "velocity": 0.65,
      "hand": "right"
    },
    {
      "midi": 60,
      "time": 8.045,
      "duration": 0.409,
      "velocity": 0.62,
      "hand": "right"
    },
    {
      "midi": 65,
      "time": 8.318,
      "duration": 0.667,
      "velocity": 0.65,
      "hand": "right"
    },
    {
      "midi": 69,
      "time": 8.455,
      "duration": 0.136,
      "velocity": 0.43,
      "hand": "right"
    },
    {
      "midi": 72,
      "time": 8.455,
      "duration": 0.068,
      "velocity": 0.68,
      "hand": "right"
    },
    {
      "midi": 77,
      "time": 8.455,
      "duration": 0.068,
      "velocity": 0.71,
      "hand": "right"
    },
    {
      "midi": 69,
      "time": 8.727,
      "duration": 0.258,
      "velocity": 0.46,
      "hand": "right"
    },
    {
      "midi": 72,
      "time": 8.727,
      "duration": 0.136,
      "velocity": 0.79,
      "hand": "right"
    },
    {
      "midi": 41,
      "time": 9,
      "duration": 0.818,
      "velocity": 0.5,
      "hand": "left"
    },
    {
      "midi": 53,
      "time": 9,
      "duration": 0.682,
      "velocity": 0.19,
      "hand": "left"
    },
    {
      "midi": 65,
      "time": 9,
      "duration": 0.258,
      "velocity": 0.2,
      "hand": "right"
    },
    {
      "midi": 69,
      "time": 9,
      "duration": 0.136,
      "velocity": 0.46,
      "hand": "right"
    },
    {
      "midi": 72,
      "time": 9,
      "duration": 0.258,
      "velocity": 0.71,
      "hand": "right"
    },
    {
      "midi": 77,
      "time": 9,
      "duration": 0.136,
      "velocity": 0.69,
      "hand": "right"
    },
    {
      "midi": 65,
      "time": 9.273,
      "duration": 0.682,
      "velocity": 0.54,
      "hand": "right"
    },
    {
      "midi": 72,
      "time": 9.273,
      "duration": 0.136,
      "velocity": 0.83,
      "hand": "right"
    },
    {
      "midi": 69,
      "time": 9.545,
      "duration": 0.531,
      "velocity": 0.59,
      "hand": "right"
    },
    {
      "midi": 72,
      "time": 9.545,
      "duration": 0.258,
      "velocity": 0.81,
      "hand": "right"
    },
    {
      "midi": 77,
      "time": 9.545,
      "duration": 0.068,
      "velocity": 0.68,
      "hand": "right"
    },
    {
      "midi": 70,
      "time": 9.818,
      "duration": 0.273,
      "velocity": 0.62,
      "hand": "right"
    },
    {
      "midi": 72,
      "time": 9.818,
      "duration": 0.258,
      "velocity": 0.66,
      "hand": "right"
    },
    {
      "midi": 83,
      "time": 9.955,
      "duration": 10,
      "velocity": 0.9,
      "hand": "right"
    },
    {
      "midi": 41,
      "time": 10.091,
      "duration": 0.818,
      "velocity": 0.5,
      "hand": "left"
    },
    {
      "midi": 53,
      "time": 10.091,
      "duration": 0.955,
      "velocity": 0.66,
      "hand": "left"
    },
    {
      "midi": 65,
      "time": 10.091,
      "duration": 0.53,
      "velocity": 0.21,
      "hand": "right"
    },
    {
      "midi": 69,
      "time": 10.091,
      "duration": 0.409,
      "velocity": 0.76,
      "hand": "right"
    },
    {
      "midi": 72,
      "time": 10.091,
      "duration": 0.273,
      "velocity": 0.63,
      "hand": "right"
    },
    {
      "midi": 77,
      "time": 10.091,
      "duration": 0.273,
      "velocity": 0.59,
      "hand": "right"
    },
    {
      "midi": 60,
      "time": 10.364,
      "duration": 0.273,
      "velocity": 0.39,
      "hand": "right"
    },
    {
      "midi": 65,
      "time": 10.636,
      "duration": 0.273,
      "velocity": 0.49,
      "hand": "right"
    },
    {
      "midi": 69,
      "time": 10.636,
      "duration": 0.531,
      "velocity": 0.44,
      "hand": "right"
    },
    {
      "midi": 72,
      "time": 10.636,
      "duration": 0.068,
      "velocity": 0.72,
      "hand": "right"
    },
    {
      "midi": 77,
      "time": 10.636,
      "duration": 0.273,
      "velocity": 0.74,
      "hand": "right"
    },
    {
      "midi": 60,
      "time": 10.773,
      "duration": 0.136,
      "velocity": 0.13,
      "hand": "right"
    },
    {
      "midi": 72,
      "time": 10.909,
      "duration": 0.258,
      "velocity": 0.49,
      "hand": "right"
    },
    {
      "midi": 76,
      "time": 10.909,
      "duration": 0.273,
      "velocity": 0.65,
      "hand": "right"
    },
    {
      "midi": 78,
      "time": 11.045,
      "duration": 3.273,
      "velocity": 0.95,
      "hand": "right"
    },
    {
      "midi": 38,
      "time": 11.182,
      "duration": 0.818,
      "velocity": 0.59,
      "hand": "left"
    },
    {
      "midi": 50,
      "time": 11.182,
      "duration": 0.818,
      "velocity": 0.66,
      "hand": "left"
    },
    {
      "midi": 69,
      "time": 11.182,
      "duration": 0.273,
      "velocity": 0.36,
      "hand": "right"
    },
    {
      "midi": 72,
      "time": 11.182,
      "duration": 0.273,
      "velocity": 0.44,
      "hand": "right"
    },
    {
      "midi": 74,
      "time": 11.182,
      "duration": 0.136,
      "velocity": 0.86,
      "hand": "right"
    },
    {
      "midi": 77,
      "time": 11.182,
      "duration": 0.273,
      "velocity": 0.61,
      "hand": "right"
    },
    {
      "midi": 57,
      "time": 11.455,
      "duration": 0.394,
      "velocity": 0.49,
      "hand": "left"
    },
    {
      "midi": 74,
      "time": 11.455,
      "duration": 0.136,
      "velocity": 0.74,
      "hand": "right"
    },
    {
      "midi": 53,
      "time": 11.727,
      "duration": 0.273,
      "velocity": 0.31,
      "hand": "left"
    },
    {
      "midi": 69,
      "time": 11.727,
      "duration": 0.136,
      "velocity": 0.49,
      "hand": "right"
    },
    {
      "midi": 72,
      "time": 11.727,
      "duration": 0.136,
      "velocity": 0.83,
      "hand": "right"
    },
    {
      "midi": 74,
      "time": 11.727,
      "duration": 0.273,
      "velocity": 0.81,
      "hand": "right"
    },
    {
      "midi": 77,
      "time": 11.727,
      "duration": 0.068,
      "velocity": 0.41,
      "hand": "right"
    },
    {
      "midi": 57,
      "time": 11.864,
      "duration": 0.136,
      "velocity": 0.08,
      "hand": "left"
    },
    {
      "midi": 65,
      "time": 12,
      "duration": 0.273,
      "velocity": 0.5,
      "hand": "right"
    },
    {
      "midi": 69,
      "time": 12,
      "duration": 0.273,
      "velocity": 0.42,
      "hand": "right"
    },
    {
      "midi": 72,
      "time": 12,
      "duration": 0.273,
      "velocity": 0.72,
      "hand": "right"
    },
    {
      "midi": 43,
      "time": 12.273,
      "duration": 1.091,
      "velocity": 0.49,
      "hand": "left"
    },
    {
      "midi": 55,
      "time": 12.273,
      "duration": 0.955,
      "velocity": 0.62,
      "hand": "left"
    },
    {
      "midi": 62,
      "time": 12.273,
      "duration": 0.53,
      "velocity": 0.41,
      "hand": "right"
    },
    {
      "midi": 67,
      "time": 12.273,
      "duration": 0.667,
      "velocity": 0.29,
      "hand": "right"
    },
    {
      "midi": 70,
      "time": 12.273,
      "duration": 0.273,
      "velocity": 0.45,
      "hand": "right"
    },
    {
      "midi": 74,
      "time": 12.273,
      "duration": 0.53,
      "velocity": 0.89,
      "hand": "right"
    },
    {
      "midi": 58,
      "time": 12.409,
      "duration": 0.682,
      "velocity": 0.46,
      "hand": "left"
    },
    {
      "midi": 62,
      "time": 12.818,
      "duration": 0.409,
      "velocity": 0.55,
      "hand": "right"
    },
    {
      "midi": 70,
      "time": 12.818,
      "duration": 0.258,
      "velocity": 0.45,
      "hand": "right"
    },
    {
      "midi": 74,
      "time": 12.818,
      "duration": 0.273,
      "velocity": 0.81,
      "hand": "right"
    },
    {
      "midi": 67,
      "time": 12.955,
      "duration": 0.136,
      "velocity": 0.36,
      "hand": "right"
    },
    {
      "midi": 70,
      "time": 13.091,
      "duration": 0.258,
      "velocity": 0.76,
      "hand": "right"
    },
    {
      "midi": 41,
      "time": 13.364,
      "duration": 0.818,
      "velocity": 0.46,
      "hand": "left"
    },
    {
      "midi": 53,
      "time": 13.364,
      "duration": 0.682,
      "velocity": 0.39,
      "hand": "left"
    },
    {
      "midi": 65,
      "time": 13.364,
      "duration": 0.682,
      "velocity": 0.35,
      "hand": "right"
    },
    {
      "midi": 70,
      "time": 13.364,
      "duration": 0.257,
      "velocity": 0.69,
      "hand": "right"
    },
    {
      "midi": 74,
      "time": 13.364,
      "duration": 0.273,
      "velocity": 0.72,
      "hand": "right"
    },
    {
      "midi": 62,
      "time": 13.636,
      "duration": 0.545,
      "velocity": 0.38,
      "hand": "right"
    },
    {
      "midi": 70,
      "time": 13.636,
      "duration": 0.136,
      "velocity": 0.59,
      "hand": "right"
    },
    {
      "midi": 67,
      "time": 13.909,
      "duration": 0.136,
      "velocity": 0.59,
      "hand": "right"
    },
    {
      "midi": 70,
      "time": 13.909,
      "duration": 0.273,
      "velocity": 0.69,
      "hand": "right"
    },
    {
      "midi": 74,
      "time": 13.909,
      "duration": 0.136,
      "velocity": 0.76,
      "hand": "right"
    },
    {
      "midi": 69,
      "time": 14.182,
      "duration": 0.273,
      "velocity": 0.72,
      "hand": "right"
    },
    {
      "midi": 74,
      "time": 14.182,
      "duration": 0.273,
      "velocity": 0.52,
      "hand": "right"
    },
    {
      "midi": 36,
      "time": 14.455,
      "duration": 1.091,
      "velocity": 0.43,
      "hand": "left"
    },
    {
      "midi": 48,
      "time": 14.455,
      "duration": 1.075,
      "velocity": 0.35,
      "hand": "left"
    },
    {
      "midi": 70,
      "time": 14.455,
      "duration": 0.273,
      "velocity": 0.49,
      "hand": "right"
    },
    {
      "midi": 72,
      "time": 14.455,
      "duration": 0.273,
      "velocity": 0.49,
      "hand": "right"
    },
    {
      "midi": 76,
      "time": 14.455,
      "duration": 0.273,
      "velocity": 0.65,
      "hand": "right"
    },
    {
      "midi": 78,
      "time": 14.455,
      "duration": 3.121,
      "velocity": 0.87,
      "hand": "right"
    },
    {
      "midi": 55,
      "time": 14.727,
      "duration": 0.409,
      "velocity": 0.55,
      "hand": "left"
    },
    {
      "midi": 60,
      "time": 14.864,
      "duration": 0.273,
      "velocity": 0.3,
      "hand": "right"
    },
    {
      "midi": 67,
      "time": 15,
      "duration": 0.955,
      "velocity": 0.52,
      "hand": "right"
    },
    {
      "midi": 70,
      "time": 15,
      "duration": 0.273,
      "velocity": 0.45,
      "hand": "right"
    },
    {
      "midi": 72,
      "time": 15,
      "duration": 0.273,
      "velocity": 0.63,
      "hand": "right"
    },
    {
      "midi": 76,
      "time": 15,
      "duration": 0.273,
      "velocity": 0.65,
      "hand": "right"
    },
    {
      "midi": 52,
      "time": 15.273,
      "duration": 0.257,
      "velocity": 0.62,
      "hand": "left"
    },
    {
      "midi": 74,
      "time": 15.273,
      "duration": 0.273,
      "velocity": 0.83,
      "hand": "right"
    },
    {
      "midi": 40,
      "time": 15.545,
      "duration": 1.091,
      "velocity": 0.49,
      "hand": "left"
    },
    {
      "midi": 48,
      "time": 15.545,
      "duration": 0.682,
      "velocity": 0.2,
      "hand": "left"
    },
    {
      "midi": 70,
      "time": 15.545,
      "duration": 0.273,
      "velocity": 0.35,
      "hand": "right"
    },
    {
      "midi": 72,
      "time": 15.545,
      "duration": 0.258,
      "velocity": 0.79,
      "hand": "right"
    },
    {
      "midi": 76,
      "time": 15.545,
      "duration": 0.273,
      "velocity": 0.54,
      "hand": "right"
    },
    {
      "midi": 60,
      "time": 15.818,
      "duration": 0.273,
      "velocity": 0.5,
      "hand": "right"
    },
    {
      "midi": 72,
      "time": 15.818,
      "duration": 0.136,
      "velocity": 0.72,
      "hand": "right"
    },
    {
      "midi": 64,
      "time": 16.091,
      "duration": 0.545,
      "velocity": 0.41,
      "hand": "right"
    },
    {
      "midi": 70,
      "time": 16.091,
      "duration": 0.136,
      "velocity": 0.38,
      "hand": "right"
    },
    {
      "midi": 72,
      "time": 16.091,
      "duration": 0.273,
      "velocity": 0.79,
      "hand": "right"
    },
    {
      "midi": 76,
      "time": 16.091,
      "duration": 0.136,
      "velocity": 0.55,
      "hand": "right"
    },
    {
      "midi": 60,
      "time": 16.364,
      "duration": 0.136,
      "velocity": 0.34,
      "hand": "right"
    },
    {
      "midi": 67,
      "time": 16.364,
      "duration": 0.273,
      "velocity": 0.41,
      "hand": "right"
    },
    {
      "midi": 74,
      "time": 16.364,
      "duration": 0.273,
      "velocity": 0.81,
      "hand": "right"
    },
    {
      "midi": 41,
      "time": 16.636,
      "duration": 0.955,
      "velocity": 0.5,
      "hand": "left"
    },
    {
      "midi": 53,
      "time": 16.636,
      "duration": 0.818,
      "velocity": 0.21,
      "hand": "left"
    },
    {
      "midi": 65,
      "time": 16.636,
      "duration": 0.531,
      "velocity": 0.4,
      "hand": "right"
    },
    {
      "midi": 69,
      "time": 16.636,
      "duration": 0.273,
      "velocity": 0.46,
      "hand": "right"
    },
    {
      "midi": 72,
      "time": 16.636,
      "duration": 0.531,
      "velocity": 0.79,
      "hand": "right"
    },
    {
      "midi": 77,
      "time": 16.636,
      "duration": 0.273,
      "velocity": 0.69,
      "hand": "right"
    },
    {
      "midi": 60,
      "time": 16.909,
      "duration": 0.273,
      "velocity": 0.65,
      "hand": "right"
    },
    {
      "midi": 65,
      "time": 17.182,
      "duration": 0.409,
      "velocity": 0.43,
      "hand": "right"
    },
    {
      "midi": 69,
      "time": 17.182,
      "duration": 0.53,
      "velocity": 0.59,
      "hand": "right"
    },
    {
      "midi": 72,
      "time": 17.182,
      "duration": 0.136,
      "velocity": 0.72,
      "hand": "right"
    },
    {
      "midi": 77,
      "time": 17.182,
      "duration": 0.136,
      "velocity": 0.72,
      "hand": "right"
    },
    {
      "midi": 60,
      "time": 17.455,
      "duration": 0.257,
      "velocity": 0.42,
      "hand": "right"
    },
    {
      "midi": 72,
      "time": 17.455,
      "duration": 0.257,
      "velocity": 0.39,
      "hand": "right"
    },
    {
      "midi": 78,
      "time": 17.591,
      "duration": 2.045,
      "velocity": 0.65,
      "hand": "right"
    },
    {
      "midi": 41,
      "time": 17.727,
      "duration": 0.955,
      "velocity": 0.49,
      "hand": "left"
    },
    {
      "midi": 53,
      "time": 17.727,
      "duration": 0.818,
      "velocity": 0.66,
      "hand": "left"
    },
    {
      "midi": 65,
      "time": 17.727,
      "duration": 0.531,
      "velocity": 0.27,
      "hand": "right"
    },
    {
      "midi": 69,
      "time": 17.727,
      "duration": 0.273,
      "velocity": 0.54,
      "hand": "right"
    },
    {
      "midi": 72,
      "time": 17.727,
      "duration": 0.394,
      "velocity": 0.81,
      "hand": "right"
    },
    {
      "midi": 77,
      "time": 17.727,
      "duration": 0.273,
      "velocity": 0.69,
      "hand": "right"
    },
    {
      "midi": 60,
      "time": 18,
      "duration": 0.273,
      "velocity": 0.69,
      "hand": "right"
    },
    {
      "midi": 69,
      "time": 18.136,
      "duration": 0.136,
      "velocity": 0.63,
      "hand": "right"
    },
    {
      "midi": 72,
      "time": 18.136,
      "duration": 0.136,
      "velocity": 0.71,
      "hand": "right"
    },
    {
      "midi": 65,
      "time": 18.273,
      "duration": 0.409,
      "velocity": 0.52,
      "hand": "right"
    },
    {
      "midi": 77,
      "time": 18.273,
      "duration": 0.545,
      "velocity": 0.86,
      "hand": "right"
    },
    {
      "midi": 60,
      "time": 18.409,
      "duration": 0.136,
      "velocity": 0.08,
      "hand": "right"
    },
    {
      "midi": 69,
      "time": 18.545,
      "duration": 0.409,
      "velocity": 0.46,
      "hand": "right"
    },
    {
      "midi": 72,
      "time": 18.545,
      "duration": 0.409,
      "velocity": 0.42,
      "hand": "right"
    },
    {
      "midi": 55,
      "time": 18.682,
      "duration": 0.121,
      "velocity": 0.66,
      "hand": "left"
    },
    {
      "midi": 43,
      "time": 18.818,
      "duration": 0.955,
      "velocity": 0.59,
      "hand": "left"
    },
    {
      "midi": 55,
      "time": 18.818,
      "duration": 0.682,
      "velocity": 0.24,
      "hand": "left"
    },
    {
      "midi": 67,
      "time": 18.818,
      "duration": 0.394,
      "velocity": 0.24,
      "hand": "right"
    },
    {
      "midi": 70,
      "time": 18.818,
      "duration": 0.273,
      "velocity": 0.45,
      "hand": "right"
    },
    {
      "midi": 74,
      "time": 18.818,
      "duration": 0.258,
      "velocity": 0.81,
      "hand": "right"
    },
    {
      "midi": 76,
      "time": 18.818,
      "duration": 0.273,
      "velocity": 0.62,
      "hand": "right"
    },
    {
      "midi": 62,
      "time": 18.955,
      "duration": 0.409,
      "velocity": 0.54,
      "hand": "right"
    },
    {
      "midi": 74,
      "time": 19.091,
      "duration": 0.258,
      "velocity": 0.76,
      "hand": "right"
    },
    {
      "midi": 67,
      "time": 19.227,
      "duration": 0.394,
      "velocity": 0.52,
      "hand": "right"
    },
    {
      "midi": 70,
      "time": 19.364,
      "duration": 0.136,
      "velocity": 0.68,
      "hand": "right"
    },
    {
      "midi": 74,
      "time": 19.364,
      "duration": 0.136,
      "velocity": 0.76,
      "hand": "right"
    },
    {
      "midi": 67,
      "time": 19.636,
      "duration": 0.136,
      "velocity": 0.74,
      "hand": "right"
    },
    {
      "midi": 70,
      "time": 19.636,
      "duration": 0.258,
      "velocity": 0.55,
      "hand": "right"
    },
    {
      "midi": 74,
      "time": 19.636,
      "duration": 0.258,
      "velocity": 0.47,
      "hand": "right"
    },
    {
      "midi": 78,
      "time": 19.773,
      "duration": 2.182,
      "velocity": 0.72,
      "hand": "right"
    },
    {
      "midi": 36,
      "time": 19.909,
      "duration": 1.091,
      "velocity": 0.43,
      "hand": "left"
    },
    {
      "midi": 48,
      "time": 19.909,
      "duration": 0.545,
      "velocity": 0.21,
      "hand": "left"
    },
    {
      "midi": 70,
      "time": 19.909,
      "duration": 0.273,
      "velocity": 0.49,
      "hand": "right"
    },
    {
      "midi": 72,
      "time": 19.909,
      "duration": 0.273,
      "velocity": 0.49,
      "hand": "right"
    },
    {
      "midi": 74,
      "time": 19.909,
      "duration": 0.545,
      "velocity": 0.92,
      "hand": "right"
    },
    {
      "midi": 76,
      "time": 19.909,
      "duration": 0.273,
      "velocity": 0.65,
      "hand": "right"
    },
    {
      "midi": 67,
      "time": 20.182,
      "duration": 0.273,
      "velocity": 0.59,
      "hand": "right"
    },
    {
      "midi": 70,
      "time": 20.455,
      "duration": 0.136,
      "velocity": 0.39,
      "hand": "right"
    },
    {
      "midi": 72,
      "time": 20.455,
      "duration": 0.273,
      "velocity": 0.74,
      "hand": "right"
    },
    {
      "midi": 76,
      "time": 20.455,
      "duration": 0.545,
      "velocity": 0.69,
      "hand": "right"
    },
    {
      "midi": 67,
      "time": 20.591,
      "duration": 0.136,
      "velocity": 0.46,
      "hand": "right"
    },
    {
      "midi": 79,
      "time": 20.727,
      "duration": 0.273,
      "velocity": 0.43,
      "hand": "right"
    },
    {
      "midi": 41,
      "time": 21,
      "duration": 0.955,
      "velocity": 0.42,
      "hand": "left"
    },
    {
      "midi": 53,
      "time": 21,
      "duration": 0.682,
      "velocity": 0.26,
      "hand": "left"
    },
    {
      "midi": 69,
      "time": 21,
      "duration": 0.273,
      "velocity": 0.46,
      "hand": "right"
    },
    {
      "midi": 72,
      "time": 21,
      "duration": 0.258,
      "velocity": 0.54,
      "hand": "right"
    },
    {
      "midi": 74,
      "time": 21,
      "duration": 0.273,
      "velocity": 0.49,
      "hand": "right"
    },
    {
      "midi": 77,
      "time": 21,
      "duration": 0.273,
      "velocity": 0.71,
      "hand": "right"
    },
    {
      "midi": 64,
      "time": 21.273,
      "duration": 0.273,
      "velocity": 0.52,
      "hand": "right"
    },
    {
      "midi": 72,
      "time": 21.273,
      "duration": 0.257,
      "velocity": 0.74,
      "hand": "right"
    },
    {
      "midi": 65,
      "time": 21.545,
      "duration": 0.136,
      "velocity": 0.44,
      "hand": "right"
    },
    {
      "midi": 69,
      "time": 21.545,
      "duration": 0.273,
      "velocity": 0.74,
      "hand": "right"
    },
    {
      "midi": 72,
      "time": 21.545,
      "duration": 0.531,
      "velocity": 0.62,
      "hand": "right"
    },
    {
      "midi": 77,
      "time": 21.545,
      "duration": 0.136,
      "velocity": 0.65,
      "hand": "right"
    },
    {
      "midi": 65,
      "time": 21.818,
      "duration": 0.136,
      "velocity": 0.69,
      "hand": "right"
    },
    {
      "midi": 76,
      "time": 21.818,
      "duration": 0.409,
      "velocity": 0.55,
      "hand": "right"
    },
    {
      "midi": 38,
      "time": 22.091,
      "duration": 1.091,
      "velocity": 0.47,
      "hand": "left"
    },
    {
      "midi": 50,
      "time": 22.091,
      "duration": 0.818,
      "velocity": 0.72,
      "hand": "left"
    },
    {
      "midi": 69,
      "time": 22.091,
      "duration": 0.273,
      "velocity": 0.2,
      "hand": "right"
    },
    {
      "midi": 72,
      "time": 22.091,
      "duration": 0.545,
      "velocity": 0.86,
      "hand": "right"
    },
    {
      "midi": 74,
      "time": 22.091,
      "duration": 0.273,
      "velocity": 0.76,
      "hand": "right"
    },
    {
      "midi": 78,
      "time": 22.091,
      "duration": 3.121,
      "velocity": 0.94,
      "hand": "right"
    },
    {
      "midi": 57,
      "time": 22.364,
      "duration": 0.545,
      "velocity": 0.72,
      "hand": "left"
    },
    {
      "midi": 62,
      "time": 22.636,
      "duration": 0.136,
      "velocity": 0.21,
      "hand": "right"
    },
    {
      "midi": 65,
      "time": 22.636,
      "duration": 0.545,
      "velocity": 0.62,
      "hand": "right"
    },
    {
      "midi": 69,
      "time": 22.636,
      "duration": 0.545,
      "velocity": 0.52,
      "hand": "right"
    },
    {
      "midi": 74,
      "time": 22.636,
      "duration": 0.531,
      "velocity": 0.74,
      "hand": "right"
    },
    {
      "midi": 62,
      "time": 22.909,
      "duration": 0.136,
      "velocity": 0.49,
      "hand": "right"
    },
    {
      "midi": 55,
      "time": 23.045,
      "duration": 0.122,
      "velocity": 0.59,
      "hand": "left"
    },
    {
      "midi": 43,
      "time": 23.182,
      "duration": 0.955,
      "velocity": 0.43,
      "hand": "left"
    },
    {
      "midi": 55,
      "time": 23.182,
      "duration": 0.682,
      "velocity": 0.2,
      "hand": "left"
    },
    {
      "midi": 67,
      "time": 23.182,
      "duration": 0.409,
      "velocity": 0.3,
      "hand": "right"
    },
    {
      "midi": 70,
      "time": 23.182,
      "duration": 0.258,
      "velocity": 0.41,
      "hand": "right"
    },
    {
      "midi": 72,
      "time": 23.182,
      "duration": 0.273,
      "velocity": 0.57,
      "hand": "right"
    },
    {
      "midi": 74,
      "time": 23.182,
      "duration": 0.273,
      "velocity": 0.69,
      "hand": "right"
    },
    {
      "midi": 62,
      "time": 23.455,
      "duration": 0.257,
      "velocity": 0.47,
      "hand": "right"
    },
    {
      "midi": 70,
      "time": 23.455,
      "duration": 0.257,
      "velocity": 0.66,
      "hand": "right"
    },
    {
      "midi": 62,
      "time": 23.727,
      "duration": 0.136,
      "velocity": 0.24,
      "hand": "right"
    },
    {
      "midi": 67,
      "time": 23.727,
      "duration": 0.273,
      "velocity": 0.49,
      "hand": "right"
    },
    {
      "midi": 70,
      "time": 23.727,
      "duration": 0.258,
      "velocity": 0.69,
      "hand": "right"
    },
    {
      "midi": 74,
      "time": 23.727,
      "duration": 0.258,
      "velocity": 0.89,
      "hand": "right"
    },
    {
      "midi": 70,
      "time": 24,
      "duration": 0.258,
      "velocity": 0.71,
      "hand": "right"
    },
    {
      "midi": 74,
      "time": 24,
      "duration": 0.273,
      "velocity": 0.65,
      "hand": "right"
    },
    {
      "midi": 36,
      "time": 24.273,
      "duration": 1.091,
      "velocity": 0.43,
      "hand": "left"
    },
    {
      "midi": 48,
      "time": 24.273,
      "duration": 0.818,
      "velocity": 0.57,
      "hand": "left"
    },
    {
      "midi": 64,
      "time": 24.273,
      "duration": 0.273,
      "velocity": 0.47,
      "hand": "right"
    },
    {
      "midi": 67,
      "time": 24.273,
      "duration": 0.273,
      "velocity": 0.39,
      "hand": "right"
    },
    {
      "midi": 70,
      "time": 24.273,
      "duration": 0.409,
      "velocity": 0.41,
      "hand": "right"
    },
    {
      "midi": 55,
      "time": 24.545,
      "duration": 0.273,
      "velocity": 0.08,
      "hand": "left"
    },
    {
      "midi": 60,
      "time": 24.545,
      "duration": 0.409,
      "velocity": 0.38,
      "hand": "right"
    },
    {
      "midi": 64,
      "time": 24.818,
      "duration": 0.545,
      "velocity": 0.52,
      "hand": "right"
    },
    {
      "midi": 67,
      "time": 24.818,
      "duration": 0.545,
      "velocity": 0.76,
      "hand": "right"
    },
    {
      "midi": 70,
      "time": 24.818,
      "duration": 0.136,
      "velocity": 0.41,
      "hand": "right"
    },
    {
      "midi": 52,
      "time": 25.091,
      "duration": 0.136,
      "velocity": 0.69,
      "hand": "left"
    },
    {
      "midi": 78,
      "time": 25.227,
      "duration": 1.213,
      "velocity": 0.91,
      "hand": "right"
    },
    {
      "midi": 41,
      "time": 25.364,
      "duration": 0.955,
      "velocity": 0.43,
      "hand": "left"
    },
    {
      "midi": 53,
      "time": 25.364,
      "duration": 1.076,
      "velocity": 0.46,
      "hand": "left"
    },
    {
      "midi": 65,
      "time": 25.364,
      "duration": 0.53,
      "velocity": 0.81,
      "hand": "right"
    },
    {
      "midi": 69,
      "time": 25.364,
      "duration": 0.273,
      "velocity": 0.39,
      "hand": "right"
    },
    {
      "midi": 72,
      "time": 25.364,
      "duration": 0.273,
      "velocity": 0.63,
      "hand": "right"
    },
    {
      "midi": 77,
      "time": 25.364,
      "duration": 0.273,
      "velocity": 0.69,
      "hand": "right"
    },
    {
      "midi": 60,
      "time": 25.636,
      "duration": 0.273,
      "velocity": 0.49,
      "hand": "right"
    },
    {
      "midi": 65,
      "time": 25.909,
      "duration": 0.409,
      "velocity": 0.81,
      "hand": "right"
    },
    {
      "midi": 69,
      "time": 25.909,
      "duration": 0.258,
      "velocity": 0.69,
      "hand": "right"
    },
    {
      "midi": 72,
      "time": 25.909,
      "duration": 0.136,
      "velocity": 0.57,
      "hand": "right"
    },
    {
      "midi": 77,
      "time": 25.909,
      "duration": 0.136,
      "velocity": 0.72,
      "hand": "right"
    },
    {
      "midi": 69,
      "time": 26.182,
      "duration": 0.136,
      "velocity": 0.74,
      "hand": "right"
    },
    {
      "midi": 72,
      "time": 26.182,
      "duration": 0.258,
      "velocity": 0.55,
      "hand": "right"
    },
    {
      "midi": 41,
      "time": 26.455,
      "duration": 0.955,
      "velocity": 0.43,
      "hand": "left"
    },
    {
      "midi": 53,
      "time": 26.455,
      "duration": 0.545,
      "velocity": 0.2,
      "hand": "left"
    },
    {
      "midi": 69,
      "time": 26.455,
      "duration": 0.273,
      "velocity": 0.39,
      "hand": "right"
    },
    {
      "midi": 72,
      "time": 26.455,
      "duration": 0.53,
      "velocity": 0.92,
      "hand": "right"
    },
    {
      "midi": 78,
      "time": 26.455,
      "duration": 0.545,
      "velocity": 0.13,
      "hand": "right"
    },
    {
      "midi": 60,
      "time": 26.727,
      "duration": 0.545,
      "velocity": 0.45,
      "hand": "right"
    },
    {
      "midi": 69,
      "time": 26.864,
      "duration": 0.121,
      "velocity": 0.62,
      "hand": "right"
    },
    {
      "midi": 65,
      "time": 27,
      "duration": 0.409,
      "velocity": 0.28,
      "hand": "right"
    },
    {
      "midi": 69,
      "time": 27,
      "duration": 0.136,
      "velocity": 0.41,
      "hand": "right"
    },
    {
      "midi": 72,
      "time": 27,
      "duration": 0.545,
      "velocity": 0.71,
      "hand": "right"
    },
    {
      "midi": 77,
      "time": 27,
      "duration": 0.545,
      "velocity": 0.89,
      "hand": "right"
    },
    {
      "midi": 83,
      "time": 27.136,
      "duration": 6.804,
      "velocity": 0.13,
      "hand": "right"
    },
    {
      "midi": 43,
      "time": 27.545,
      "duration": 0.955,
      "velocity": 0.39,
      "hand": "left"
    },
    {
      "midi": 55,
      "time": 27.545,
      "duration": 0.531,
      "velocity": 0.66,
      "hand": "left"
    },
    {
      "midi": 67,
      "time": 27.545,
      "duration": 0.409,
      "velocity": 0.13,
      "hand": "right"
    },
    {
      "midi": 70,
      "time": 27.545,
      "duration": 0.273,
      "velocity": 0.31,
      "hand": "right"
    },
    {
      "midi": 74,
      "time": 27.545,
      "duration": 0.258,
      "velocity": 0.4,
      "hand": "right"
    },
    {
      "midi": 76,
      "time": 27.545,
      "duration": 0.273,
      "velocity": 0.68,
      "hand": "right"
    },
    {
      "midi": 62,
      "time": 27.682,
      "duration": 0.394,
      "velocity": 0.54,
      "hand": "right"
    },
    {
      "midi": 78,
      "time": 27.682,
      "duration": 1.5,
      "velocity": 0.61,
      "hand": "right"
    },
    {
      "midi": 74,
      "time": 27.818,
      "duration": 0.122,
      "velocity": 0.76,
      "hand": "right"
    },
    {
      "midi": 70,
      "time": 27.955,
      "duration": 0.121,
      "velocity": 0.55,
      "hand": "right"
    },
    {
      "midi": 74,
      "time": 27.955,
      "duration": 0.53,
      "velocity": 0.65,
      "hand": "right"
    },
    {
      "midi": 55,
      "time": 28.091,
      "duration": 0.136,
      "velocity": 0.16,
      "hand": "left"
    },
    {
      "midi": 58,
      "time": 28.091,
      "duration": 0.068,
      "velocity": 0.25,
      "hand": "left"
    },
    {
      "midi": 62,
      "time": 28.091,
      "duration": 0.136,
      "velocity": 0.23,
      "hand": "right"
    },
    {
      "midi": 67,
      "time": 28.091,
      "duration": 0.121,
      "velocity": 0.35,
      "hand": "right"
    },
    {
      "midi": 70,
      "time": 28.091,
      "duration": 0.136,
      "velocity": 0.59,
      "hand": "right"
    },
    {
      "midi": 67,
      "time": 28.227,
      "duration": 0.136,
      "velocity": 0.59,
      "hand": "right"
    },
    {
      "midi": 36,
      "time": 28.5,
      "duration": 1.091,
      "velocity": 0.45,
      "hand": "left"
    },
    {
      "midi": 48,
      "time": 28.5,
      "duration": 0.682,
      "velocity": 0.16,
      "hand": "left"
    },
    {
      "midi": 64,
      "time": 28.5,
      "duration": 0.53,
      "velocity": 0.72,
      "hand": "right"
    },
    {
      "midi": 67,
      "time": 28.5,
      "duration": 0.258,
      "velocity": 0.2,
      "hand": "right"
    },
    {
      "midi": 70,
      "time": 28.5,
      "duration": 0.273,
      "velocity": 0.25,
      "hand": "right"
    },
    {
      "midi": 74,
      "time": 28.5,
      "duration": 0.545,
      "velocity": 0.83,
      "hand": "right"
    },
    {
      "midi": 67,
      "time": 28.773,
      "duration": 0.257,
      "velocity": 0.69,
      "hand": "right"
    },
    {
      "midi": 67,
      "time": 29.045,
      "duration": 0.136,
      "velocity": 0.43,
      "hand": "right"
    },
    {
      "midi": 70,
      "time": 29.045,
      "duration": 0.136,
      "velocity": 0.43,
      "hand": "right"
    },
    {
      "midi": 72,
      "time": 29.045,
      "duration": 0.273,
      "velocity": 0.46,
      "hand": "right"
    },
    {
      "midi": 76,
      "time": 29.045,
      "duration": 0.122,
      "velocity": 0.54,
      "hand": "right"
    },
    {
      "midi": 76,
      "time": 29.182,
      "duration": 0.545,
      "velocity": 0.74,
      "hand": "right"
    },
    {
      "midi": 79,
      "time": 29.318,
      "duration": 0.273,
      "velocity": 0.47,
      "hand": "right"
    },
    {
      "midi": 78,
      "time": 29.455,
      "duration": 1.348,
      "velocity": 0.13,
      "hand": "right"
    },
    {
      "midi": 41,
      "time": 29.591,
      "duration": 1.091,
      "velocity": 0.45,
      "hand": "left"
    },
    {
      "midi": 57,
      "time": 29.591,
      "duration": 0.121,
      "velocity": 0.74,
      "hand": "left"
    },
    {
      "midi": 69,
      "time": 29.591,
      "duration": 0.273,
      "velocity": 0.46,
      "hand": "right"
    },
    {
      "midi": 53,
      "time": 29.727,
      "duration": 0.682,
      "velocity": 0.22,
      "hand": "left"
    },
    {
      "midi": 57,
      "time": 29.727,
      "duration": 0.682,
      "velocity": 0.14,
      "hand": "left"
    },
    {
      "midi": 60,
      "time": 29.727,
      "duration": 0.122,
      "velocity": 0.17,
      "hand": "right"
    },
    {
      "midi": 65,
      "time": 29.727,
      "duration": 0.122,
      "velocity": 0.2,
      "hand": "right"
    },
    {
      "midi": 72,
      "time": 29.727,
      "duration": 0.258,
      "velocity": 0.51,
      "hand": "right"
    },
    {
      "midi": 74,
      "time": 29.727,
      "duration": 0.273,
      "velocity": 0.89,
      "hand": "right"
    },
    {
      "midi": 60,
      "time": 29.864,
      "duration": 0.273,
      "velocity": 0.55,
      "hand": "right"
    },
    {
      "midi": 65,
      "time": 29.864,
      "duration": 0.136,
      "velocity": 0.28,
      "hand": "right"
    },
    {
      "midi": 72,
      "time": 30,
      "duration": 0.258,
      "velocity": 0.79,
      "hand": "right"
    },
    {
      "midi": 65,
      "time": 30.136,
      "duration": 0.273,
      "velocity": 0.38,
      "hand": "right"
    },
    {
      "midi": 69,
      "time": 30.136,
      "duration": 0.122,
      "velocity": 0.62,
      "hand": "right"
    },
    {
      "midi": 69,
      "time": 30.273,
      "duration": 0.273,
      "velocity": 0.81,
      "hand": "right"
    },
    {
      "midi": 72,
      "time": 30.273,
      "duration": 0.136,
      "velocity": 0.61,
      "hand": "right"
    },
    {
      "midi": 65,
      "time": 30.545,
      "duration": 0.136,
      "velocity": 0.72,
      "hand": "right"
    },
    {
      "midi": 72,
      "time": 30.545,
      "duration": 0.258,
      "velocity": 0.62,
      "hand": "right"
    },
    {
      "midi": 38,
      "time": 30.818,
      "duration": 1.091,
      "velocity": 0.49,
      "hand": "left"
    },
    {
      "midi": 50,
      "time": 30.818,
      "duration": 0.818,
      "velocity": 0.66,
      "hand": "left"
    },
    {
      "midi": 65,
      "time": 30.818,
      "duration": 0.273,
      "velocity": 0.44,
      "hand": "right"
    },
    {
      "midi": 69,
      "time": 30.818,
      "duration": 0.273,
      "velocity": 0.18,
      "hand": "right"
    },
    {
      "midi": 72,
      "time": 30.818,
      "duration": 0.545,
      "velocity": 0.92,
      "hand": "right"
    },
    {
      "midi": 78,
      "time": 30.818,
      "duration": 1.485,
      "velocity": 0.72,
      "hand": "right"
    },
    {
      "midi": 57,
      "time": 31.091,
      "duration": 0.545,
      "velocity": 0.57,
      "hand": "left"
    },
    {
      "midi": 65,
      "time": 31.227,
      "duration": 0.545,
      "velocity": 0.63,
      "hand": "right"
    },
    {
      "midi": 69,
      "time": 31.364,
      "duration": 0.545,
      "velocity": 0.55,
      "hand": "right"
    },
    {
      "midi": 74,
      "time": 31.364,
      "duration": 0.409,
      "velocity": 0.92,
      "hand": "right"
    },
    {
      "midi": 62,
      "time": 31.636,
      "duration": 0.136,
      "velocity": 0.42,
      "hand": "right"
    },
    {
      "midi": 55,
      "time": 31.773,
      "duration": 0.121,
      "velocity": 0.57,
      "hand": "left"
    },
    {
      "midi": 43,
      "time": 31.909,
      "duration": 1.091,
      "velocity": 0.45,
      "hand": "left"
    },
    {
      "midi": 55,
      "time": 31.909,
      "duration": 0.682,
      "velocity": 0.18,
      "hand": "left"
    },
    {
      "midi": 67,
      "time": 31.909,
      "duration": 0.394,
      "velocity": 0.28,
      "hand": "right"
    },
    {
      "midi": 70,
      "time": 31.909,
      "duration": 0.258,
      "velocity": 0.46,
      "hand": "right"
    },
    {
      "midi": 72,
      "time": 31.909,
      "duration": 0.273,
      "velocity": 0.72,
      "hand": "right"
    },
    {
      "midi": 74,
      "time": 31.909,
      "duration": 0.409,
      "velocity": 0.61,
      "hand": "right"
    },
    {
      "midi": 62,
      "time": 32.182,
      "duration": 0.258,
      "velocity": 0.47,
      "hand": "right"
    },
    {
      "midi": 70,
      "time": 32.182,
      "duration": 0.258,
      "velocity": 0.74,
      "hand": "right"
    },
    {
      "midi": 67,
      "time": 32.318,
      "duration": 0.122,
      "velocity": 0.25,
      "hand": "right"
    },
    {
      "midi": 78,
      "time": 32.318,
      "duration": 0.409,
      "velocity": 0.13,
      "hand": "right"
    },
    {
      "midi": 62,
      "time": 32.455,
      "duration": 0.121,
      "velocity": 0.08,
      "hand": "right"
    },
    {
      "midi": 67,
      "time": 32.455,
      "duration": 0.273,
      "velocity": 0.46,
      "hand": "right"
    },
    {
      "midi": 70,
      "time": 32.455,
      "duration": 0.257,
      "velocity": 0.49,
      "hand": "right"
    },
    {
      "midi": 74,
      "time": 32.455,
      "duration": 0.545,
      "velocity": 0.97,
      "hand": "right"
    },
    {
      "midi": 62,
      "time": 32.591,
      "duration": 0.068,
      "velocity": 0.17,
      "hand": "right"
    },
    {
      "midi": 70,
      "time": 32.727,
      "duration": 0.258,
      "velocity": 0.74,
      "hand": "right"
    },
    {
      "midi": 79,
      "time": 32.727,
      "duration": 0.273,
      "velocity": 0.55,
      "hand": "right"
    },
    {
      "midi": 48,
      "time": 32.864,
      "duration": 0.121,
      "velocity": 0.25,
      "hand": "left"
    },
    {
      "midi": 52,
      "time": 32.864,
      "duration": 0.682,
      "velocity": 0.31,
      "hand": "left"
    },
    {
      "midi": 64,
      "time": 32.864,
      "duration": 0.273,
      "velocity": 0.42,
      "hand": "right"
    },
    {
      "midi": 36,
      "time": 33,
      "duration": 1.091,
      "velocity": 0.47,
      "hand": "left"
    },
    {
      "midi": 48,
      "time": 33,
      "duration": 0.818,
      "velocity": 0.65,
      "hand": "left"
    },
    {
      "midi": 67,
      "time": 33,
      "duration": 0.258,
      "velocity": 0.4,
      "hand": "right"
    },
    {
      "midi": 70,
      "time": 33,
      "duration": 0.273,
      "velocity": 0.39,
      "hand": "right"
    },
    {
      "midi": 55,
      "time": 33.136,
      "duration": 0.545,
      "velocity": 0.52,
      "hand": "left"
    },
    {
      "midi": 67,
      "time": 33.273,
      "duration": 0.121,
      "velocity": 0.79,
      "hand": "right"
    },
    {
      "midi": 64,
      "time": 33.409,
      "duration": 0.121,
      "velocity": 0.54,
      "hand": "right"
    },
    {
      "midi": 67,
      "time": 33.409,
      "duration": 0.121,
      "velocity": 0.54,
      "hand": "right"
    },
    {
      "midi": 64,
      "time": 33.545,
      "duration": 0.136,
      "velocity": 0.55,
      "hand": "right"
    },
    {
      "midi": 67,
      "time": 33.545,
      "duration": 0.136,
      "velocity": 0.51,
      "hand": "right"
    },
    {
      "midi": 70,
      "time": 33.545,
      "duration": 0.136,
      "velocity": 0.45,
      "hand": "right"
    },
    {
      "midi": 72,
      "time": 33.545,
      "duration": 0.273,
      "velocity": 0.74,
      "hand": "right"
    },
    {
      "midi": 60,
      "time": 33.682,
      "duration": 0.136,
      "velocity": 0.54,
      "hand": "right"
    },
    {
      "midi": 69,
      "time": 33.818,
      "duration": 0.258,
      "velocity": 0.83,
      "hand": "right"
    },
    {
      "midi": 53,
      "time": 33.955,
      "duration": 0.121,
      "velocity": 0.57,
      "hand": "left"
    },
    {
      "midi": 78,
      "time": 33.955,
      "duration": 2.045,
      "velocity": 0.72,
      "hand": "right"
    },
    {
      "midi": 83,
      "time": 33.955,
      "duration": 9.803,
      "velocity": 0.74,
      "hand": "right"
    },
    {
      "midi": 41,
      "time": 34.091,
      "duration": 0.955,
      "velocity": 0.54,
      "hand": "left"
    },
    {
      "midi": 53,
      "time": 34.091,
      "duration": 0.682,
      "velocity": 0.2,
      "hand": "left"
    },
    {
      "midi": 60,
      "time": 34.091,
      "duration": 0.121,
      "velocity": 0.54,
      "hand": "right"
    },
    {
      "midi": 65,
      "time": 34.091,
      "duration": 0.394,
      "velocity": 0.86,
      "hand": "right"
    },
    {
      "midi": 69,
      "time": 34.091,
      "duration": 0.273,
      "velocity": 0.44,
      "hand": "right"
    },
    {
      "midi": 72,
      "time": 34.091,
      "duration": 0.121,
      "velocity": 0.36,
      "hand": "right"
    },
    {
      "midi": 60,
      "time": 34.227,
      "duration": 0.409,
      "velocity": 0.45,
      "hand": "right"
    },
    {
      "midi": 72,
      "time": 34.227,
      "duration": 0.258,
      "velocity": 0.63,
      "hand": "right"
    },
    {
      "midi": 65,
      "time": 34.5,
      "duration": 0.273,
      "velocity": 0.28,
      "hand": "right"
    },
    {
      "midi": 69,
      "time": 34.5,
      "duration": 0.53,
      "velocity": 0.61,
      "hand": "right"
    },
    {
      "midi": 72,
      "time": 34.5,
      "duration": 0.258,
      "velocity": 0.72,
      "hand": "right"
    },
    {
      "midi": 57,
      "time": 34.773,
      "duration": 0.136,
      "velocity": 0.15,
      "hand": "left"
    },
    {
      "midi": 60,
      "time": 34.773,
      "duration": 0.136,
      "velocity": 0.39,
      "hand": "right"
    },
    {
      "midi": 72,
      "time": 34.773,
      "duration": 0.257,
      "velocity": 0.72,
      "hand": "right"
    },
    {
      "midi": 53,
      "time": 35.045,
      "duration": 0.682,
      "velocity": 0.37,
      "hand": "left"
    },
    {
      "midi": 57,
      "time": 35.045,
      "duration": 0.955,
      "velocity": 0.71,
      "hand": "left"
    },
    {
      "midi": 60,
      "time": 35.045,
      "duration": 0.258,
      "velocity": 0.59,
      "hand": "right"
    },
    {
      "midi": 65,
      "time": 35.045,
      "duration": 0.531,
      "velocity": 0.29,
      "hand": "right"
    },
    {
      "midi": 69,
      "time": 35.045,
      "duration": 0.122,
      "velocity": 0.49,
      "hand": "right"
    },
    {
      "midi": 72,
      "time": 35.045,
      "duration": 0.273,
      "velocity": 0.57,
      "hand": "right"
    },
    {
      "midi": 41,
      "time": 35.182,
      "duration": 0.955,
      "velocity": 0.42,
      "hand": "left"
    },
    {
      "midi": 69,
      "time": 35.182,
      "duration": 0.273,
      "velocity": 0.83,
      "hand": "right"
    },
    {
      "midi": 60,
      "time": 35.318,
      "duration": 0.409,
      "velocity": 0.66,
      "hand": "right"
    },
    {
      "midi": 70,
      "time": 35.455,
      "duration": 0.136,
      "velocity": 0.39,
      "hand": "right"
    },
    {
      "midi": 65,
      "time": 35.591,
      "duration": 0.409,
      "velocity": 0.47,
      "hand": "right"
    },
    {
      "midi": 70,
      "time": 35.727,
      "duration": 0.136,
      "velocity": 0.68,
      "hand": "right"
    },
    {
      "midi": 72,
      "time": 35.727,
      "duration": 0.545,
      "velocity": 0.69,
      "hand": "right"
    },
    {
      "midi": 60,
      "time": 35.864,
      "duration": 0.136,
      "velocity": 0.5,
      "hand": "right"
    },
    {
      "midi": 70,
      "time": 36,
      "duration": 0.258,
      "velocity": 0.66,
      "hand": "right"
    },
    {
      "midi": 78,
      "time": 36.136,
      "duration": 3.136,
      "velocity": 0.64,
      "hand": "right"
    },
    {
      "midi": 43,
      "time": 36.273,
      "duration": 0.818,
      "velocity": 0.5,
      "hand": "left"
    },
    {
      "midi": 55,
      "time": 36.273,
      "duration": 0.955,
      "velocity": 0.52,
      "hand": "left"
    },
    {
      "midi": 62,
      "time": 36.273,
      "duration": 0.121,
      "velocity": 0.39,
      "hand": "right"
    },
    {
      "midi": 67,
      "time": 36.273,
      "duration": 0.409,
      "velocity": 0.71,
      "hand": "right"
    },
    {
      "midi": 70,
      "time": 36.273,
      "duration": 0.257,
      "velocity": 0.39,
      "hand": "right"
    },
    {
      "midi": 74,
      "time": 36.273,
      "duration": 0.273,
      "velocity": 0.72,
      "hand": "right"
    },
    {
      "midi": 62,
      "time": 36.409,
      "duration": 0.409,
      "velocity": 0.69,
      "hand": "right"
    },
    {
      "midi": 70,
      "time": 36.545,
      "duration": 0.258,
      "velocity": 0.71,
      "hand": "right"
    },
    {
      "midi": 67,
      "time": 36.818,
      "duration": 0.273,
      "velocity": 0.3,
      "hand": "right"
    },
    {
      "midi": 70,
      "time": 36.818,
      "duration": 0.258,
      "velocity": 0.65,
      "hand": "right"
    },
    {
      "midi": 74,
      "time": 36.818,
      "duration": 0.682,
      "velocity": 0.68,
      "hand": "right"
    },
    {
      "midi": 62,
      "time": 36.955,
      "duration": 0.136,
      "velocity": 0.35,
      "hand": "right"
    },
    {
      "midi": 70,
      "time": 37.091,
      "duration": 0.258,
      "velocity": 0.71,
      "hand": "right"
    },
    {
      "midi": 79,
      "time": 37.091,
      "duration": 0.273,
      "velocity": 0.43,
      "hand": "right"
    },
    {
      "midi": 36,
      "time": 37.364,
      "duration": 1.091,
      "velocity": 0.46,
      "hand": "left"
    },
    {
      "midi": 48,
      "time": 37.364,
      "duration": 0.818,
      "velocity": 0.69,
      "hand": "left"
    },
    {
      "midi": 60,
      "time": 37.364,
      "duration": 0.682,
      "velocity": 0.23,
      "hand": "right"
    },
    {
      "midi": 64,
      "time": 37.364,
      "duration": 0.273,
      "velocity": 0.47,
      "hand": "right"
    },
    {
      "midi": 67,
      "time": 37.364,
      "duration": 0.273,
      "velocity": 0.81,
      "hand": "right"
    },
    {
      "midi": 70,
      "time": 37.364,
      "duration": 0.273,
      "velocity": 0.41,
      "hand": "right"
    },
    {
      "midi": 55,
      "time": 37.636,
      "duration": 0.545,
      "velocity": 0.54,
      "hand": "left"
    },
    {
      "midi": 72,
      "time": 37.636,
      "duration": 0.136,
      "velocity": 0.92,
      "hand": "right"
    },
    {
      "midi": 64,
      "time": 37.909,
      "duration": 0.545,
      "velocity": 0.59,
      "hand": "right"
    },
    {
      "midi": 67,
      "time": 37.909,
      "duration": 0.545,
      "velocity": 0.63,
      "hand": "right"
    },
    {
      "midi": 70,
      "time": 37.909,
      "duration": 0.136,
      "velocity": 0.46,
      "hand": "right"
    },
    {
      "midi": 72,
      "time": 37.909,
      "duration": 0.258,
      "velocity": 0.86,
      "hand": "right"
    },
    {
      "midi": 60,
      "time": 38.182,
      "duration": 0.136,
      "velocity": 0.5,
      "hand": "right"
    },
    {
      "midi": 72,
      "time": 38.182,
      "duration": 0.136,
      "velocity": 0.86,
      "hand": "right"
    },
    {
      "midi": 53,
      "time": 38.318,
      "duration": 0.122,
      "velocity": 0.57,
      "hand": "left"
    },
    {
      "midi": 69,
      "time": 38.318,
      "duration": 0.122,
      "velocity": 0.46,
      "hand": "right"
    },
    {
      "midi": 41,
      "time": 38.455,
      "duration": 0.955,
      "velocity": 0.45,
      "hand": "left"
    },
    {
      "midi": 53,
      "time": 38.455,
      "duration": 0.682,
      "velocity": 0.35,
      "hand": "left"
    },
    {
      "midi": 60,
      "time": 38.455,
      "duration": 0.257,
      "velocity": 0.46,
      "hand": "right"
    },
    {
      "midi": 65,
      "time": 38.455,
      "duration": 0.394,
      "velocity": 0.35,
      "hand": "right"
    },
    {
      "midi": 69,
      "time": 38.455,
      "duration": 0.409,
      "velocity": 0.81,
      "hand": "right"
    },
    {
      "midi": 72,
      "time": 38.455,
      "duration": 0.273,
      "velocity": 0.38,
      "hand": "right"
    },
    {
      "midi": 60,
      "time": 38.727,
      "duration": 0.273,
      "velocity": 0.45,
      "hand": "right"
    },
    {
      "midi": 65,
      "time": 38.864,
      "duration": 0.273,
      "velocity": 0.35,
      "hand": "right"
    },
    {
      "midi": 69,
      "time": 39,
      "duration": 0.53,
      "velocity": 0.71,
      "hand": "right"
    },
    {
      "midi": 72,
      "time": 39,
      "duration": 0.258,
      "velocity": 0.72,
      "hand": "right"
    },
    {
      "midi": 77,
      "time": 39,
      "duration": 0.545,
      "velocity": 0.43,
      "hand": "right"
    },
    {
      "midi": 60,
      "time": 39.136,
      "duration": 0.136,
      "velocity": 0.45,
      "hand": "right"
    },
    {
      "midi": 72,
      "time": 39.273,
      "duration": 0.136,
      "velocity": 0.83,
      "hand": "right"
    },
    {
      "midi": 78,
      "time": 39.409,
      "duration": 3.258,
      "velocity": 0.71,
      "hand": "right"
    },
    {
      "midi": 38,
      "time": 39.545,
      "duration": 1.091,
      "velocity": 0.46,
      "hand": "left"
    },
    {
      "midi": 50,
      "time": 39.545,
      "duration": 0.818,
      "velocity": 0.76,
      "hand": "left"
    },
    {
      "midi": 62,
      "time": 39.545,
      "duration": 0.667,
      "velocity": 0.34,
      "hand": "right"
    },
    {
      "midi": 65,
      "time": 39.545,
      "duration": 0.409,
      "velocity": 0.49,
      "hand": "right"
    },
    {
      "midi": 69,
      "time": 39.545,
      "duration": 0.273,
      "velocity": 0.21,
      "hand": "right"
    },
    {
      "midi": 53,
      "time": 39.682,
      "duration": 0.545,
      "velocity": 0.34,
      "hand": "left"
    },
    {
      "midi": 70,
      "time": 39.682,
      "duration": 0.136,
      "velocity": 0.39,
      "hand": "right"
    },
    {
      "midi": 57,
      "time": 39.818,
      "duration": 0.545,
      "velocity": 0.55,
      "hand": "left"
    },
    {
      "midi": 65,
      "time": 40.091,
      "duration": 0.545,
      "velocity": 0.54,
      "hand": "right"
    },
    {
      "midi": 70,
      "time": 40.091,
      "duration": 0.273,
      "velocity": 0.77,
      "hand": "right"
    },
    {
      "midi": 74,
      "time": 40.091,
      "duration": 0.53,
      "velocity": 0.49,
      "hand": "right"
    },
    {
      "midi": 62,
      "time": 40.227,
      "duration": 0.136,
      "velocity": 0.46,
      "hand": "right"
    },
    {
      "midi": 69,
      "time": 40.364,
      "duration": 0.273,
      "velocity": 0.79,
      "hand": "right"
    },
    {
      "midi": 43,
      "time": 40.5,
      "duration": 0.955,
      "velocity": 0.42,
      "hand": "left"
    },
    {
      "midi": 55,
      "time": 40.636,
      "duration": 0.955,
      "velocity": 0.66,
      "hand": "left"
    },
    {
      "midi": 58,
      "time": 40.636,
      "duration": 0.682,
      "velocity": 0.57,
      "hand": "left"
    },
    {
      "midi": 62,
      "time": 40.636,
      "duration": 0.122,
      "velocity": 0.51,
      "hand": "right"
    },
    {
      "midi": 67,
      "time": 40.636,
      "duration": 0.394,
      "velocity": 0.74,
      "hand": "right"
    },
    {
      "midi": 70,
      "time": 40.636,
      "duration": 0.394,
      "velocity": 0.5,
      "hand": "right"
    },
    {
      "midi": 74,
      "time": 40.636,
      "duration": 0.394,
      "velocity": 0.69,
      "hand": "right"
    },
    {
      "midi": 62,
      "time": 40.773,
      "duration": 0.273,
      "velocity": 0.62,
      "hand": "right"
    },
    {
      "midi": 76,
      "time": 40.909,
      "duration": 0.545,
      "velocity": 0.77,
      "hand": "right"
    },
    {
      "midi": 67,
      "time": 41.045,
      "duration": 0.122,
      "velocity": 0.46,
      "hand": "right"
    },
    {
      "midi": 70,
      "time": 41.045,
      "duration": 0.122,
      "velocity": 0.5,
      "hand": "right"
    },
    {
      "midi": 74,
      "time": 41.045,
      "duration": 0.122,
      "velocity": 0.45,
      "hand": "right"
    },
    {
      "midi": 67,
      "time": 41.182,
      "duration": 0.136,
      "velocity": 0.3,
      "hand": "right"
    },
    {
      "midi": 70,
      "time": 41.182,
      "duration": 0.136,
      "velocity": 0.66,
      "hand": "right"
    },
    {
      "midi": 74,
      "time": 41.182,
      "duration": 0.136,
      "velocity": 0.69,
      "hand": "right"
    },
    {
      "midi": 79,
      "time": 41.182,
      "duration": 0.545,
      "velocity": 0.35,
      "hand": "right"
    },
    {
      "midi": 62,
      "time": 41.318,
      "duration": 0.136,
      "velocity": 0.35,
      "hand": "right"
    },
    {
      "midi": 74,
      "time": 41.455,
      "duration": 0.273,
      "velocity": 0.83,
      "hand": "right"
    },
    {
      "midi": 48,
      "time": 41.591,
      "duration": 0.121,
      "velocity": 0.72,
      "hand": "left"
    },
    {
      "midi": 36,
      "time": 41.727,
      "duration": 0.955,
      "velocity": 0.45,
      "hand": "left"
    },
    {
      "midi": 48,
      "time": 41.727,
      "duration": 0.682,
      "velocity": 0.21,
      "hand": "left"
    },
    {
      "midi": 64,
      "time": 41.727,
      "duration": 0.273,
      "velocity": 0.49,
      "hand": "right"
    },
    {
      "midi": 67,
      "time": 41.727,
      "duration": 0.273,
      "velocity": 0.38,
      "hand": "right"
    },
    {
      "midi": 70,
      "time": 41.727,
      "duration": 0.258,
      "velocity": 0.33,
      "hand": "right"
    },
    {
      "midi": 72,
      "time": 41.727,
      "duration": 0.273,
      "velocity": 0.89,
      "hand": "right"
    },
    {
      "midi": 52,
      "time": 41.864,
      "duration": 0.409,
      "velocity": 0.22,
      "hand": "left"
    },
    {
      "midi": 55,
      "time": 41.864,
      "duration": 0.409,
      "velocity": 0.33,
      "hand": "left"
    },
    {
      "midi": 60,
      "time": 42,
      "duration": 0.545,
      "velocity": 0.28,
      "hand": "right"
    },
    {
      "midi": 70,
      "time": 42,
      "duration": 0.121,
      "velocity": 0.55,
      "hand": "right"
    },
    {
      "midi": 70,
      "time": 42.136,
      "duration": 0.136,
      "velocity": 0.5,
      "hand": "right"
    },
    {
      "midi": 64,
      "time": 42.273,
      "duration": 0.545,
      "velocity": 0.52,
      "hand": "right"
    },
    {
      "midi": 67,
      "time": 42.273,
      "duration": 0.257,
      "velocity": 0.59,
      "hand": "right"
    },
    {
      "midi": 69,
      "time": 42.273,
      "duration": 0.273,
      "velocity": 0.81,
      "hand": "right"
    },
    {
      "midi": 72,
      "time": 42.273,
      "duration": 0.53,
      "velocity": 0.57,
      "hand": "right"
    },
    {
      "midi": 52,
      "time": 42.545,
      "duration": 0.136,
      "velocity": 0.66,
      "hand": "left"
    },
    {
      "midi": 67,
      "time": 42.545,
      "duration": 0.273,
      "velocity": 0.68,
      "hand": "right"
    },
    {
      "midi": 69,
      "time": 42.682,
      "duration": 0.273,
      "velocity": 0.37,
      "hand": "right"
    },
    {
      "midi": 78,
      "time": 42.682,
      "duration": 2.045,
      "velocity": 0.71,
      "hand": "right"
    },
    {
      "midi": 41,
      "time": 42.818,
      "duration": 1.091,
      "velocity": 0.54,
      "hand": "left"
    },
    {
      "midi": 53,
      "time": 42.818,
      "duration": 1.076,
      "velocity": 0.72,
      "hand": "left"
    },
    {
      "midi": 60,
      "time": 42.818,
      "duration": 0.258,
      "velocity": 0.65,
      "hand": "right"
    },
    {
      "midi": 65,
      "time": 42.818,
      "duration": 0.394,
      "velocity": 0.89,
      "hand": "right"
    },
    {
      "midi": 72,
      "time": 42.818,
      "duration": 0.273,
      "velocity": 0.49,
      "hand": "right"
    },
    {
      "midi": 60,
      "time": 43.091,
      "duration": 0.273,
      "velocity": 0.41,
      "hand": "right"
    },
    {
      "midi": 65,
      "time": 43.227,
      "duration": 0.409,
      "velocity": 0.41,
      "hand": "right"
    },
    {
      "midi": 69,
      "time": 43.227,
      "duration": 0.122,
      "velocity": 0.34,
      "hand": "right"
    },
    {
      "midi": 72,
      "time": 43.227,
      "duration": 0.122,
      "velocity": 0.45,
      "hand": "right"
    },
    {
      "midi": 69,
      "time": 43.364,
      "duration": 0.136,
      "velocity": 0.61,
      "hand": "right"
    },
    {
      "midi": 72,
      "time": 43.364,
      "duration": 0.136,
      "velocity": 0.71,
      "hand": "right"
    },
    {
      "midi": 57,
      "time": 43.5,
      "duration": 0.394,
      "velocity": 0.45,
      "hand": "left"
    },
    {
      "midi": 72,
      "time": 43.636,
      "duration": 0.136,
      "velocity": 0.86,
      "hand": "right"
    },
    {
      "midi": 36,
      "time": 43.773,
      "duration": 1.091,
      "velocity": 0.35,
      "hand": "left"
    },
    {
      "midi": 60,
      "time": 43.773,
      "duration": 0.121,
      "velocity": 0.52,
      "hand": "right"
    },
    {
      "midi": 83,
      "time": 43.773,
      "duration": 3.257,
      "velocity": 0.85,
      "hand": "right"
    },
    {
      "midi": 53,
      "time": 43.909,
      "duration": 0.682,
      "velocity": 0.26,
      "hand": "left"
    },
    {
      "midi": 57,
      "time": 43.909,
      "duration": 0.682,
      "velocity": 0.41,
      "hand": "left"
    },
    {
      "midi": 60,
      "time": 43.909,
      "duration": 0.682,
      "velocity": 0.59,
      "hand": "right"
    },
    {
      "midi": 65,
      "time": 43.909,
      "duration": 0.258,
      "velocity": 0.2,
      "hand": "right"
    },
    {
      "midi": 69,
      "time": 43.909,
      "duration": 0.273,
      "velocity": 0.49,
      "hand": "right"
    },
    {
      "midi": 72,
      "time": 43.909,
      "duration": 0.258,
      "velocity": 0.79,
      "hand": "right"
    },
    {
      "midi": 65,
      "time": 44.182,
      "duration": 0.545,
      "velocity": 0.57,
      "hand": "right"
    },
    {
      "midi": 72,
      "time": 44.182,
      "duration": 0.136,
      "velocity": 0.81,
      "hand": "right"
    },
    {
      "midi": 69,
      "time": 44.455,
      "duration": 0.53,
      "velocity": 0.65,
      "hand": "right"
    },
    {
      "midi": 72,
      "time": 44.455,
      "duration": 0.257,
      "velocity": 0.79,
      "hand": "right"
    },
    {
      "midi": 70,
      "time": 44.727,
      "duration": 0.273,
      "velocity": 0.68,
      "hand": "right"
    },
    {
      "midi": 72,
      "time": 44.727,
      "duration": 0.258,
      "velocity": 0.49,
      "hand": "right"
    },
    {
      "midi": 41,
      "time": 45,
      "duration": 0.955,
      "velocity": 0.46,
      "hand": "left"
    },
    {
      "midi": 53,
      "time": 45,
      "duration": 0.955,
      "velocity": 0.68,
      "hand": "left"
    },
    {
      "midi": 69,
      "time": 45,
      "duration": 0.273,
      "velocity": 0.49,
      "hand": "right"
    },
    {
      "midi": 72,
      "time": 45,
      "duration": 0.273,
      "velocity": 0.51,
      "hand": "right"
    },
    {
      "midi": 78,
      "time": 45,
      "duration": 3.53,
      "velocity": 0.96,
      "hand": "right"
    },
    {
      "midi": 57,
      "time": 45.273,
      "duration": 0.394,
      "velocity": 0.24,
      "hand": "left"
    },
    {
      "midi": 60,
      "time": 45.273,
      "duration": 0.273,
      "velocity": 0.46,
      "hand": "right"
    },
    {
      "midi": 65,
      "time": 45.545,
      "duration": 0.273,
      "velocity": 0.39,
      "hand": "right"
    },
    {
      "midi": 69,
      "time": 45.545,
      "duration": 0.531,
      "velocity": 0.65,
      "hand": "right"
    },
    {
      "midi": 72,
      "time": 45.545,
      "duration": 0.531,
      "velocity": 0.76,
      "hand": "right"
    },
    {
      "midi": 77,
      "time": 45.545,
      "duration": 0.273,
      "velocity": 0.74,
      "hand": "right"
    },
    {
      "midi": 57,
      "time": 45.682,
      "duration": 0.136,
      "velocity": 0.08,
      "hand": "left"
    },
    {
      "midi": 60,
      "time": 45.682,
      "duration": 0.136,
      "velocity": 0.36,
      "hand": "right"
    },
    {
      "midi": 76,
      "time": 45.818,
      "duration": 0.273,
      "velocity": 0.69,
      "hand": "right"
    },
    {
      "midi": 38,
      "time": 46.091,
      "duration": 0.955,
      "velocity": 0.68,
      "hand": "left"
    },
    {
      "midi": 50,
      "time": 46.091,
      "duration": 0.818,
      "velocity": 0.59,
      "hand": "left"
    },
    {
      "midi": 69,
      "time": 46.091,
      "duration": 0.273,
      "velocity": 0.43,
      "hand": "right"
    },
    {
      "midi": 72,
      "time": 46.091,
      "duration": 0.136,
      "velocity": 0.44,
      "hand": "right"
    },
    {
      "midi": 74,
      "time": 46.091,
      "duration": 0.136,
      "velocity": 0.86,
      "hand": "right"
    },
    {
      "midi": 77,
      "time": 46.091,
      "duration": 0.273,
      "velocity": 0.72,
      "hand": "right"
    },
    {
      "midi": 53,
      "time": 46.227,
      "duration": 0.682,
      "velocity": 0.35,
      "hand": "left"
    },
    {
      "midi": 57,
      "time": 46.364,
      "duration": 0.682,
      "velocity": 0.62,
      "hand": "left"
    },
    {
      "midi": 74,
      "time": 46.364,
      "duration": 0.136,
      "velocity": 0.79,
      "hand": "right"
    },
    {
      "midi": 65,
      "time": 46.5,
      "duration": 0.121,
      "velocity": 0.46,
      "hand": "right"
    },
    {
      "midi": 69,
      "time": 46.5,
      "duration": 0.121,
      "velocity": 0.45,
      "hand": "right"
    },
    {
      "midi": 69,
      "time": 46.636,
      "duration": 0.273,
      "velocity": 0.65,
      "hand": "right"
    },
    {
      "midi": 72,
      "time": 46.636,
      "duration": 0.068,
      "velocity": 0.59,
      "hand": "right"
    },
    {
      "midi": 74,
      "time": 46.636,
      "duration": 0.273,
      "velocity": 0.89,
      "hand": "right"
    },
    {
      "midi": 77,
      "time": 46.636,
      "duration": 0.136,
      "velocity": 0.76,
      "hand": "right"
    },
    {
      "midi": 62,
      "time": 46.909,
      "duration": 0.136,
      "velocity": 0.31,
      "hand": "right"
    },
    {
      "midi": 72,
      "time": 46.909,
      "duration": 0.273,
      "velocity": 0.76,
      "hand": "right"
    },
    {
      "midi": 83,
      "time": 47.045,
      "duration": 10,
      "velocity": 0.98,
      "hand": "right"
    },
    {
      "midi": 43,
      "time": 47.182,
      "duration": 1.091,
      "velocity": 0.55,
      "hand": "left"
    },
    {
      "midi": 55,
      "time": 47.182,
      "duration": 0.818,
      "velocity": 0.57,
      "hand": "left"
    },
    {
      "midi": 62,
      "time": 47.182,
      "duration": 0.394,
      "velocity": 0.68,
      "hand": "right"
    },
    {
      "midi": 67,
      "time": 47.182,
      "duration": 0.53,
      "velocity": 0.35,
      "hand": "right"
    },
    {
      "midi": 70,
      "time": 47.182,
      "duration": 0.273,
      "velocity": 0.46,
      "hand": "right"
    },
    {
      "midi": 74,
      "time": 47.182,
      "duration": 0.53,
      "velocity": 0.89,
      "hand": "right"
    },
    {
      "midi": 58,
      "time": 47.318,
      "duration": 0.682,
      "velocity": 0.39,
      "hand": "left"
    },
    {
      "midi": 62,
      "time": 47.591,
      "duration": 0.409,
      "velocity": 0.08,
      "hand": "right"
    },
    {
      "midi": 67,
      "time": 47.727,
      "duration": 0.273,
      "velocity": 0.36,
      "hand": "right"
    },
    {
      "midi": 70,
      "time": 47.727,
      "duration": 0.258,
      "velocity": 0.54,
      "hand": "right"
    },
    {
      "midi": 74,
      "time": 47.727,
      "duration": 0.531,
      "velocity": 0.81,
      "hand": "right"
    },
    {
      "midi": 70,
      "time": 48,
      "duration": 0.136,
      "velocity": 0.74,
      "hand": "right"
    },
    {
      "midi": 41,
      "time": 48.273,
      "duration": 0.955,
      "velocity": 0.62,
      "hand": "left"
    },
    {
      "midi": 53,
      "time": 48.273,
      "duration": 0.682,
      "velocity": 0.49,
      "hand": "left"
    },
    {
      "midi": 65,
      "time": 48.273,
      "duration": 0.682,
      "velocity": 0.36,
      "hand": "right"
    },
    {
      "midi": 70,
      "time": 48.273,
      "duration": 0.257,
      "velocity": 0.66,
      "hand": "right"
    },
    {
      "midi": 74,
      "time": 48.273,
      "duration": 0.273,
      "velocity": 0.79,
      "hand": "right"
    },
    {
      "midi": 62,
      "time": 48.545,
      "duration": 0.409,
      "velocity": 0.62,
      "hand": "right"
    },
    {
      "midi": 70,
      "time": 48.545,
      "duration": 0.136,
      "velocity": 0.66,
      "hand": "right"
    },
    {
      "midi": 78,
      "time": 48.545,
      "duration": 0.531,
      "velocity": 0.89,
      "hand": "right"
    },
    {
      "midi": 67,
      "time": 48.818,
      "duration": 0.136,
      "velocity": 0.55,
      "hand": "right"
    },
    {
      "midi": 70,
      "time": 48.818,
      "duration": 0.531,
      "velocity": 0.74,
      "hand": "right"
    },
    {
      "midi": 74,
      "time": 48.818,
      "duration": 0.545,
      "velocity": 0.86,
      "hand": "right"
    },
    {
      "midi": 62,
      "time": 49.091,
      "duration": 0.068,
      "velocity": 0.21,
      "hand": "right"
    },
    {
      "midi": 69,
      "time": 49.091,
      "duration": 0.273,
      "velocity": 0.79,
      "hand": "right"
    },
    {
      "midi": 79,
      "time": 49.091,
      "duration": 0.273,
      "velocity": 0.41,
      "hand": "right"
    },
    {
      "midi": 36,
      "time": 49.364,
      "duration": 1.091,
      "velocity": 0.49,
      "hand": "left"
    },
    {
      "midi": 48,
      "time": 49.364,
      "duration": 0.818,
      "velocity": 0.68,
      "hand": "left"
    },
    {
      "midi": 70,
      "time": 49.364,
      "duration": 0.273,
      "velocity": 0.39,
      "hand": "right"
    },
    {
      "midi": 72,
      "time": 49.364,
      "duration": 0.273,
      "velocity": 0.46,
      "hand": "right"
    },
    {
      "midi": 76,
      "time": 49.364,
      "duration": 0.273,
      "velocity": 0.65,
      "hand": "right"
    },
    {
      "midi": 78,
      "time": 49.364,
      "duration": 0.068,
      "velocity": 0.25,
      "hand": "right"
    },
    {
      "midi": 78,
      "time": 49.5,
      "duration": 0.068,
      "velocity": 0.7,
      "hand": "right"
    },
    {
      "midi": 55,
      "time": 49.636,
      "duration": 0.273,
      "velocity": 0.42,
      "hand": "left"
    },
    {
      "midi": 60,
      "time": 49.636,
      "duration": 0.545,
      "velocity": 0.41,
      "hand": "right"
    },
    {
      "midi": 78,
      "time": 49.636,
      "duration": 2.455,
      "velocity": 0.7,
      "hand": "right"
    },
    {
      "midi": 52,
      "time": 49.773,
      "duration": 0.257,
      "velocity": 0.08,
      "hand": "left"
    },
    {
      "midi": 67,
      "time": 49.909,
      "duration": 0.818,
      "velocity": 0.65,
      "hand": "right"
    },
    {
      "midi": 70,
      "time": 49.909,
      "duration": 0.273,
      "velocity": 0.52,
      "hand": "right"
    },
    {
      "midi": 72,
      "time": 49.909,
      "duration": 0.531,
      "velocity": 0.69,
      "hand": "right"
    },
    {
      "midi": 76,
      "time": 49.909,
      "duration": 0.273,
      "velocity": 0.66,
      "hand": "right"
    },
    {
      "midi": 52,
      "time": 50.045,
      "duration": 0.136,
      "velocity": 0.08,
      "hand": "left"
    },
    {
      "midi": 55,
      "time": 50.045,
      "duration": 0.136,
      "velocity": 0.52,
      "hand": "left"
    },
    {
      "midi": 74,
      "time": 50.182,
      "duration": 0.273,
      "velocity": 0.72,
      "hand": "right"
    },
    {
      "midi": 40,
      "time": 50.455,
      "duration": 1.091,
      "velocity": 0.65,
      "hand": "left"
    },
    {
      "midi": 48,
      "time": 50.455,
      "duration": 0.682,
      "velocity": 0.2,
      "hand": "left"
    },
    {
      "midi": 60,
      "time": 50.455,
      "duration": 0.53,
      "velocity": 0.21,
      "hand": "right"
    },
    {
      "midi": 70,
      "time": 50.455,
      "duration": 0.273,
      "velocity": 0.36,
      "hand": "right"
    },
    {
      "midi": 72,
      "time": 50.455,
      "duration": 0.257,
      "velocity": 0.71,
      "hand": "right"
    },
    {
      "midi": 76,
      "time": 50.455,
      "duration": 0.273,
      "velocity": 0.59,
      "hand": "right"
    },
    {
      "midi": 55,
      "time": 50.591,
      "duration": 0.545,
      "velocity": 0.65,
      "hand": "left"
    },
    {
      "midi": 72,
      "time": 50.727,
      "duration": 0.136,
      "velocity": 0.81,
      "hand": "right"
    },
    {
      "midi": 67,
      "time": 51,
      "duration": 0.545,
      "velocity": 0.41,
      "hand": "right"
    },
    {
      "midi": 70,
      "time": 51,
      "duration": 0.136,
      "velocity": 0.39,
      "hand": "right"
    },
    {
      "midi": 72,
      "time": 51,
      "duration": 0.53,
      "velocity": 0.83,
      "hand": "right"
    },
    {
      "midi": 76,
      "time": 51,
      "duration": 0.136,
      "velocity": 0.68,
      "hand": "right"
    },
    {
      "midi": 60,
      "time": 51.136,
      "duration": 0.136,
      "velocity": 0.34,
      "hand": "right"
    },
    {
      "midi": 74,
      "time": 51.273,
      "duration": 0.273,
      "velocity": 0.69,
      "hand": "right"
    },
    {
      "midi": 41,
      "time": 51.545,
      "duration": 0.955,
      "velocity": 0.46,
      "hand": "left"
    },
    {
      "midi": 53,
      "time": 51.545,
      "duration": 0.682,
      "velocity": 0.39,
      "hand": "left"
    },
    {
      "midi": 65,
      "time": 51.545,
      "duration": 0.395,
      "velocity": 0.31,
      "hand": "right"
    },
    {
      "midi": 69,
      "time": 51.545,
      "duration": 0.273,
      "velocity": 0.38,
      "hand": "right"
    },
    {
      "midi": 72,
      "time": 51.545,
      "duration": 0.531,
      "velocity": 0.86,
      "hand": "right"
    },
    {
      "midi": 77,
      "time": 51.545,
      "duration": 0.273,
      "velocity": 0.71,
      "hand": "right"
    },
    {
      "midi": 60,
      "time": 51.818,
      "duration": 0.273,
      "velocity": 0.65,
      "hand": "right"
    },
    {
      "midi": 65,
      "time": 51.955,
      "duration": 0.409,
      "velocity": 0.42,
      "hand": "right"
    },
    {
      "midi": 69,
      "time": 51.955,
      "duration": 0.121,
      "velocity": 0.54,
      "hand": "right"
    },
    {
      "midi": 69,
      "time": 52.091,
      "duration": 0.136,
      "velocity": 0.49,
      "hand": "right"
    },
    {
      "midi": 72,
      "time": 52.091,
      "duration": 0.258,
      "velocity": 0.68,
      "hand": "right"
    },
    {
      "midi": 77,
      "time": 52.091,
      "duration": 0.136,
      "velocity": 0.69,
      "hand": "right"
    },
    {
      "midi": 78,
      "time": 52.227,
      "duration": 1.5,
      "velocity": 0.89,
      "hand": "right"
    },
    {
      "midi": 60,
      "time": 52.364,
      "duration": 0.136,
      "velocity": 0.62,
      "hand": "right"
    },
    {
      "midi": 72,
      "time": 52.364,
      "duration": 0.136,
      "velocity": 0.76,
      "hand": "right"
    },
    {
      "midi": 41,
      "time": 52.636,
      "duration": 0.955,
      "velocity": 0.47,
      "hand": "left"
    },
    {
      "midi": 53,
      "time": 52.636,
      "duration": 0.682,
      "velocity": 0.27,
      "hand": "left"
    },
    {
      "midi": 65,
      "time": 52.636,
      "duration": 0.531,
      "velocity": 0.23,
      "hand": "right"
    },
    {
      "midi": 69,
      "time": 52.636,
      "duration": 0.273,
      "velocity": 0.35,
      "hand": "right"
    },
    {
      "midi": 72,
      "time": 52.636,
      "duration": 0.136,
      "velocity": 0.51,
      "hand": "right"
    },
    {
      "midi": 77,
      "time": 52.636,
      "duration": 0.136,
      "velocity": 0.61,
      "hand": "right"
    },
    {
      "midi": 60,
      "time": 52.909,
      "duration": 0.273,
      "velocity": 0.65,
      "hand": "right"
    },
    {
      "midi": 72,
      "time": 52.909,
      "duration": 0.136,
      "velocity": 0.86,
      "hand": "right"
    },
    {
      "midi": 65,
      "time": 53.182,
      "duration": 0.273,
      "velocity": 0.69,
      "hand": "right"
    },
    {
      "midi": 69,
      "time": 53.182,
      "duration": 0.136,
      "velocity": 0.49,
      "hand": "right"
    },
    {
      "midi": 72,
      "time": 53.182,
      "duration": 0.273,
      "velocity": 0.92,
      "hand": "right"
    },
    {
      "midi": 77,
      "time": 53.182,
      "duration": 0.136,
      "velocity": 0.69,
      "hand": "right"
    },
    {
      "midi": 60,
      "time": 53.455,
      "duration": 0.136,
      "velocity": 0.72,
      "hand": "right"
    },
    {
      "midi": 70,
      "time": 53.455,
      "duration": 0.273,
      "velocity": 0.62,
      "hand": "right"
    },
    {
      "midi": 41,
      "time": 53.727,
      "duration": 0.955,
      "velocity": 0.39,
      "hand": "left"
    },
    {
      "midi": 53,
      "time": 53.727,
      "duration": 0.955,
      "velocity": 0.72,
      "hand": "left"
    },
    {
      "midi": 65,
      "time": 53.727,
      "duration": 0.531,
      "velocity": 0.22,
      "hand": "right"
    },
    {
      "midi": 69,
      "time": 53.727,
      "duration": 0.273,
      "velocity": 0.51,
      "hand": "right"
    },
    {
      "midi": 72,
      "time": 53.727,
      "duration": 0.136,
      "velocity": 0.69,
      "hand": "right"
    },
    {
      "midi": 77,
      "time": 53.727,
      "duration": 0.136,
      "velocity": 0.74,
      "hand": "right"
    },
    {
      "midi": 57,
      "time": 54,
      "duration": 0.682,
      "velocity": 0.36,
      "hand": "left"
    },
    {
      "midi": 60,
      "time": 54,
      "duration": 0.273,
      "velocity": 0.32,
      "hand": "right"
    },
    {
      "midi": 69,
      "time": 54.273,
      "duration": 0.53,
      "velocity": 0.63,
      "hand": "right"
    },
    {
      "midi": 72,
      "time": 54.273,
      "duration": 0.545,
      "velocity": 0.76,
      "hand": "right"
    },
    {
      "midi": 78,
      "time": 54.273,
      "duration": 2.455,
      "velocity": 0.88,
      "hand": "right"
    },
    {
      "midi": 60,
      "time": 54.409,
      "duration": 0.136,
      "velocity": 0.42,
      "hand": "right"
    },
    {
      "midi": 76,
      "time": 54.545,
      "duration": 0.273,
      "velocity": 0.68,
      "hand": "right"
    },
    {
      "midi": 38,
      "time": 54.818,
      "duration": 1.091,
      "velocity": 0.55,
      "hand": "left"
    },
    {
      "midi": 50,
      "time": 54.818,
      "duration": 0.818,
      "velocity": 0.52,
      "hand": "left"
    },
    {
      "midi": 62,
      "time": 54.818,
      "duration": 0.682,
      "velocity": 0.28,
      "hand": "right"
    },
    {
      "midi": 65,
      "time": 54.818,
      "duration": 0.273,
      "velocity": 0.63,
      "hand": "right"
    },
    {
      "midi": 69,
      "time": 54.818,
      "duration": 0.273,
      "velocity": 0.24,
      "hand": "right"
    },
    {
      "midi": 74,
      "time": 54.818,
      "duration": 0.258,
      "velocity": 0.83,
      "hand": "right"
    },
    {
      "midi": 53,
      "time": 55.091,
      "duration": 0.545,
      "velocity": 0.42,
      "hand": "left"
    },
    {
      "midi": 57,
      "time": 55.091,
      "duration": 0.545,
      "velocity": 0.62,
      "hand": "left"
    },
    {
      "midi": 74,
      "time": 55.091,
      "duration": 0.136,
      "velocity": 0.81,
      "hand": "right"
    },
    {
      "midi": 65,
      "time": 55.364,
      "duration": 0.545,
      "velocity": 0.63,
      "hand": "right"
    },
    {
      "midi": 69,
      "time": 55.364,
      "duration": 0.545,
      "velocity": 0.47,
      "hand": "right"
    },
    {
      "midi": 74,
      "time": 55.364,
      "duration": 0.53,
      "velocity": 0.83,
      "hand": "right"
    },
    {
      "midi": 62,
      "time": 55.636,
      "duration": 0.136,
      "velocity": 0.62,
      "hand": "right"
    },
    {
      "midi": 72,
      "time": 55.636,
      "duration": 0.273,
      "velocity": 0.74,
      "hand": "right"
    },
    {
      "midi": 43,
      "time": 55.909,
      "duration": 1.091,
      "velocity": 0.43,
      "hand": "left"
    },
    {
      "midi": 55,
      "time": 55.909,
      "duration": 0.955,
      "velocity": 0.54,
      "hand": "left"
    },
    {
      "midi": 62,
      "time": 55.909,
      "duration": 0.258,
      "velocity": 0.46,
      "hand": "right"
    },
    {
      "midi": 67,
      "time": 55.909,
      "duration": 0.394,
      "velocity": 0.37,
      "hand": "right"
    },
    {
      "midi": 70,
      "time": 55.909,
      "duration": 0.273,
      "velocity": 0.41,
      "hand": "right"
    },
    {
      "midi": 74,
      "time": 55.909,
      "duration": 0.394,
      "velocity": 0.81,
      "hand": "right"
    },
    {
      "midi": 58,
      "time": 56.045,
      "duration": 0.409,
      "velocity": 0.42,
      "hand": "left"
    },
    {
      "midi": 62,
      "time": 56.182,
      "duration": 0.409,
      "velocity": 0.31,
      "hand": "right"
    },
    {
      "midi": 67,
      "time": 56.318,
      "duration": 0.409,
      "velocity": 0.32,
      "hand": "right"
    },
    {
      "midi": 74,
      "time": 56.318,
      "duration": 0.122,
      "velocity": 0.42,
      "hand": "right"
    },
    {
      "midi": 70,
      "time": 56.455,
      "duration": 0.257,
      "velocity": 0.57,
      "hand": "right"
    },
    {
      "midi": 74,
      "time": 56.455,
      "duration": 0.273,
      "velocity": 0.76,
      "hand": "right"
    },
    {
      "midi": 58,
      "time": 56.591,
      "duration": 0.136,
      "velocity": 0.59,
      "hand": "left"
    },
    {
      "midi": 70,
      "time": 56.727,
      "duration": 0.136,
      "velocity": 0.77,
      "hand": "right"
    },
    {
      "midi": 78,
      "time": 56.864,
      "duration": 2.045,
      "velocity": 0.91,
      "hand": "right"
    },
    {
      "midi": 41,
      "time": 57,
      "duration": 0.955,
      "velocity": 0.54,
      "hand": "left"
    },
    {
      "midi": 53,
      "time": 57,
      "duration": 0.682,
      "velocity": 0.4,
      "hand": "left"
    },
    {
      "midi": 65,
      "time": 57,
      "duration": 0.682,
      "velocity": 0.39,
      "hand": "right"
    },
    {
      "midi": 70,
      "time": 57,
      "duration": 0.258,
      "velocity": 0.71,
      "hand": "right"
    },
    {
      "midi": 74,
      "time": 57,
      "duration": 0.273,
      "velocity": 0.72,
      "hand": "right"
    },
    {
      "midi": 62,
      "time": 57.273,
      "duration": 0.409,
      "velocity": 0.54,
      "hand": "right"
    },
    {
      "midi": 70,
      "time": 57.273,
      "duration": 0.136,
      "velocity": 0.71,
      "hand": "right"
    },
    {
      "midi": 67,
      "time": 57.545,
      "duration": 0.136,
      "velocity": 0.54,
      "hand": "right"
    },
    {
      "midi": 70,
      "time": 57.545,
      "duration": 0.531,
      "velocity": 0.77,
      "hand": "right"
    },
    {
      "midi": 74,
      "time": 57.545,
      "duration": 0.545,
      "velocity": 0.74,
      "hand": "right"
    },
    {
      "midi": 69,
      "time": 57.818,
      "duration": 0.273,
      "velocity": 0.76,
      "hand": "right"
    },
    {
      "midi": 79,
      "time": 57.818,
      "duration": 0.273,
      "velocity": 0.43,
      "hand": "right"
    },
    {
      "midi": 48,
      "time": 57.955,
      "duration": 0.121,
      "velocity": 0.66,
      "hand": "left"
    },
    {
      "midi": 36,
      "time": 58.091,
      "duration": 1.091,
      "velocity": 0.35,
      "hand": "left"
    },
    {
      "midi": 48,
      "time": 58.091,
      "duration": 0.682,
      "velocity": 0.28,
      "hand": "left"
    },
    {
      "midi": 67,
      "time": 58.091,
      "duration": 0.273,
      "velocity": 0.83,
      "hand": "right"
    },
    {
      "midi": 70,
      "time": 58.091,
      "duration": 0.273,
      "velocity": 0.45,
      "hand": "right"
    },
    {
      "midi": 72,
      "time": 58.091,
      "duration": 0.273,
      "velocity": 0.61,
      "hand": "right"
    },
    {
      "midi": 76,
      "time": 58.091,
      "duration": 0.273,
      "velocity": 0.55,
      "hand": "right"
    },
    {
      "midi": 55,
      "time": 58.227,
      "duration": 0.273,
      "velocity": 0.45,
      "hand": "left"
    },
    {
      "midi": 52,
      "time": 58.364,
      "duration": 0.394,
      "velocity": 0.08,
      "hand": "left"
    },
    {
      "midi": 60,
      "time": 58.364,
      "duration": 0.409,
      "velocity": 0.08,
      "hand": "right"
    },
    {
      "midi": 64,
      "time": 58.5,
      "duration": 0.955,
      "velocity": 0.45,
      "hand": "right"
    },
    {
      "midi": 67,
      "time": 58.5,
      "duration": 0.955,
      "velocity": 0.55,
      "hand": "right"
    },
    {
      "midi": 70,
      "time": 58.636,
      "duration": 0.136,
      "velocity": 0.55,
      "hand": "right"
    },
    {
      "midi": 72,
      "time": 58.636,
      "duration": 0.136,
      "velocity": 0.72,
      "hand": "right"
    },
    {
      "midi": 76,
      "time": 58.636,
      "duration": 0.273,
      "velocity": 0.74,
      "hand": "right"
    },
    {
      "midi": 52,
      "time": 58.773,
      "duration": 0.136,
      "velocity": 0.13,
      "hand": "left"
    },
    {
      "midi": 55,
      "time": 58.773,
      "duration": 0.136,
      "velocity": 0.42,
      "hand": "left"
    },
    {
      "midi": 74,
      "time": 58.909,
      "duration": 0.273,
      "velocity": 0.89,
      "hand": "right"
    },
    {
      "midi": 60,
      "time": 59.045,
      "duration": 0.667,
      "velocity": 0.2,
      "hand": "right"
    },
    {
      "midi": 78,
      "time": 59.045,
      "duration": 0.667,
      "velocity": 0.84,
      "hand": "right"
    },
    {
      "midi": 40,
      "time": 59.182,
      "duration": 1.091,
      "velocity": 0.65,
      "hand": "left"
    },
    {
      "midi": 48,
      "time": 59.182,
      "duration": 0.682,
      "velocity": 0.18,
      "hand": "left"
    },
    {
      "midi": 70,
      "time": 59.182,
      "duration": 0.273,
      "velocity": 0.41,
      "hand": "right"
    },
    {
      "midi": 72,
      "time": 59.182,
      "duration": 0.258,
      "velocity": 0.72,
      "hand": "right"
    },
    {
      "midi": 76,
      "time": 59.182,
      "duration": 0.273,
      "velocity": 0.68,
      "hand": "right"
    },
    {
      "midi": 55,
      "time": 59.318,
      "duration": 0.273,
      "velocity": 0.47,
      "hand": "left"
    },
    {
      "midi": 72,
      "time": 59.455,
      "duration": 0.136,
      "velocity": 0.81,
      "hand": "right"
    },
    {
      "midi": 70,
      "time": 59.727,
      "duration": 0.136,
      "velocity": 0.45,
      "hand": "right"
    },
    {
      "midi": 72,
      "time": 59.727,
      "duration": 0.273,
      "velocity": 0.83,
      "hand": "right"
    },
    {
      "midi": 76,
      "time": 59.727,
      "duration": 0.136,
      "velocity": 0.62,
      "hand": "right"
    },
    {
      "midi": 78,
      "time": 59.727,
      "duration": 0.258,
      "velocity": 0.37,
      "hand": "right"
    },
    {
      "midi": 55,
      "time": 59.864,
      "duration": 0.136,
      "velocity": 0.23,
      "hand": "left"
    },
    {
      "midi": 60,
      "time": 59.864,
      "duration": 0.273,
      "velocity": 0.2,
      "hand": "right"
    },
    {
      "midi": 74,
      "time": 60,
      "duration": 0.273,
      "velocity": 0.86,
      "hand": "right"
    },
    {
      "midi": 78,
      "time": 60,
      "duration": 2.167,
      "velocity": 0.67,
      "hand": "right"
    },
    {
      "midi": 57,
      "time": 60.136,
      "duration": 0.122,
      "velocity": 0.8,
      "hand": "left"
    },
    {
      "midi": 41,
      "time": 60.273,
      "duration": 0.955,
      "velocity": 0.38,
      "hand": "left"
    },
    {
      "midi": 53,
      "time": 60.273,
      "duration": 0.682,
      "velocity": 0.3,
      "hand": "left"
    },
    {
      "midi": 65,
      "time": 60.273,
      "duration": 0.394,
      "velocity": 0.35,
      "hand": "right"
    },
    {
      "midi": 69,
      "time": 60.273,
      "duration": 0.273,
      "velocity": 0.59,
      "hand": "right"
    },
    {
      "midi": 72,
      "time": 60.273,
      "duration": 0.394,
      "velocity": 0.79,
      "hand": "right"
    },
    {
      "midi": 77,
      "time": 60.273,
      "duration": 0.273,
      "velocity": 0.72,
      "hand": "right"
    },
    {
      "midi": 60,
      "time": 60.545,
      "duration": 0.273,
      "velocity": 0.65,
      "hand": "right"
    },
    {
      "midi": 65,
      "time": 60.682,
      "duration": 0.409,
      "velocity": 0.5,
      "hand": "right"
    },
    {
      "midi": 69,
      "time": 60.682,
      "duration": 0.121,
      "velocity": 0.47,
      "hand": "right"
    },
    {
      "midi": 72,
      "time": 60.682,
      "duration": 0.121,
      "velocity": 0.47,
      "hand": "right"
    },
    {
      "midi": 69,
      "time": 60.818,
      "duration": 0.136,
      "velocity": 0.63,
      "hand": "right"
    },
    {
      "midi": 72,
      "time": 60.818,
      "duration": 0.136,
      "velocity": 0.76,
      "hand": "right"
    },
    {
      "midi": 77,
      "time": 60.818,
      "duration": 0.136,
      "velocity": 0.68,
      "hand": "right"
    },
    {
      "midi": 60,
      "time": 61.091,
      "duration": 0.258,
      "velocity": 0.57,
      "hand": "right"
    },
    {
      "midi": 41,
      "time": 61.364,
      "duration": 1.091,
      "velocity": 0.47,
      "hand": "left"
    },
    {
      "midi": 53,
      "time": 61.364,
      "duration": 0.682,
      "velocity": 0.59,
      "hand": "left"
    },
    {
      "midi": 65,
      "time": 61.364,
      "duration": 0.682,
      "velocity": 0.2,
      "hand": "right"
    },
    {
      "midi": 69,
      "time": 61.364,
      "duration": 0.273,
      "velocity": 0.61,
      "hand": "right"
    },
    {
      "midi": 72,
      "time": 61.364,
      "duration": 0.273,
      "velocity": 0.81,
      "hand": "right"
    },
    {
      "midi": 77,
      "time": 61.364,
      "duration": 0.273,
      "velocity": 0.72,
      "hand": "right"
    },
    {
      "midi": 60,
      "time": 61.636,
      "duration": 0.409,
      "velocity": 0.57,
      "hand": "right"
    },
    {
      "midi": 69,
      "time": 61.909,
      "duration": 0.545,
      "velocity": 0.54,
      "hand": "right"
    },
    {
      "midi": 72,
      "time": 61.909,
      "duration": 0.545,
      "velocity": 0.86,
      "hand": "right"
    },
    {
      "midi": 77,
      "time": 61.909,
      "duration": 0.545,
      "velocity": 0.83,
      "hand": "right"
    },
    {
      "midi": 60,
      "time": 62.182,
      "duration": 0.136,
      "velocity": 0.09,
      "hand": "right"
    },
    {
      "midi": 65,
      "time": 62.182,
      "duration": 0.273,
      "velocity": 0.69,
      "hand": "right"
    },
    {
      "midi": 78,
      "time": 62.182,
      "duration": 0.818,
      "velocity": 0.68,
      "hand": "right"
    },
    {
      "midi": 83,
      "time": 62.318,
      "duration": 4.349,
      "velocity": 0.57,
      "hand": "right"
    },
    {
      "midi": 43,
      "time": 62.455,
      "duration": 0.955,
      "velocity": 0.39,
      "hand": "left"
    },
    {
      "midi": 55,
      "time": 62.455,
      "duration": 0.955,
      "velocity": 0.52,
      "hand": "left"
    },
    {
      "midi": 67,
      "time": 62.455,
      "duration": 0.545,
      "velocity": 0.27,
      "hand": "right"
    },
    {
      "midi": 70,
      "time": 62.455,
      "duration": 0.273,
      "velocity": 0.5,
      "hand": "right"
    },
    {
      "midi": 74,
      "time": 62.455,
      "duration": 0.257,
      "velocity": 0.86,
      "hand": "right"
    },
    {
      "midi": 76,
      "time": 62.455,
      "duration": 0.409,
      "velocity": 0.59,
      "hand": "right"
    },
    {
      "midi": 58,
      "time": 62.727,
      "duration": 0.682,
      "velocity": 0.31,
      "hand": "left"
    },
    {
      "midi": 62,
      "time": 62.727,
      "duration": 0.682,
      "velocity": 0.55,
      "hand": "right"
    },
    {
      "midi": 74,
      "time": 62.727,
      "duration": 0.258,
      "velocity": 0.89,
      "hand": "right"
    },
    {
      "midi": 70,
      "time": 63,
      "duration": 0.121,
      "velocity": 0.62,
      "hand": "right"
    },
    {
      "midi": 74,
      "time": 63,
      "duration": 0.53,
      "velocity": 0.81,
      "hand": "right"
    },
    {
      "midi": 79,
      "time": 63,
      "duration": 0.545,
      "velocity": 0.57,
      "hand": "right"
    },
    {
      "midi": 70,
      "time": 63.136,
      "duration": 0.136,
      "velocity": 0.62,
      "hand": "right"
    },
    {
      "midi": 78,
      "time": 63.136,
      "duration": 2.44,
      "velocity": 0.7,
      "hand": "right"
    },
    {
      "midi": 67,
      "time": 63.273,
      "duration": 0.136,
      "velocity": 0.69,
      "hand": "right"
    },
    {
      "midi": 36,
      "time": 63.409,
      "duration": 1.091,
      "velocity": 0.39,
      "hand": "left"
    },
    {
      "midi": 48,
      "time": 63.409,
      "duration": 0.121,
      "velocity": 0.3,
      "hand": "left"
    },
    {
      "midi": 60,
      "time": 63.409,
      "duration": 0.394,
      "velocity": 0.17,
      "hand": "right"
    },
    {
      "midi": 70,
      "time": 63.409,
      "duration": 0.273,
      "velocity": 0.59,
      "hand": "right"
    },
    {
      "midi": 72,
      "time": 63.409,
      "duration": 0.273,
      "velocity": 0.72,
      "hand": "right"
    },
    {
      "midi": 76,
      "time": 63.409,
      "duration": 0.273,
      "velocity": 0.69,
      "hand": "right"
    },
    {
      "midi": 48,
      "time": 63.545,
      "duration": 0.818,
      "velocity": 0.72,
      "hand": "left"
    },
    {
      "midi": 74,
      "time": 63.545,
      "duration": 0.545,
      "velocity": 0.95,
      "hand": "right"
    },
    {
      "midi": 55,
      "time": 63.682,
      "duration": 0.545,
      "velocity": 0.25,
      "hand": "left"
    },
    {
      "midi": 52,
      "time": 63.818,
      "duration": 0.545,
      "velocity": 0.18,
      "hand": "left"
    },
    {
      "midi": 60,
      "time": 63.818,
      "duration": 0.273,
      "velocity": 0.31,
      "hand": "right"
    },
    {
      "midi": 67,
      "time": 63.955,
      "duration": 0.545,
      "velocity": 0.68,
      "hand": "right"
    },
    {
      "midi": 70,
      "time": 63.955,
      "duration": 0.136,
      "velocity": 0.59,
      "hand": "right"
    },
    {
      "midi": 72,
      "time": 63.955,
      "duration": 0.53,
      "velocity": 0.72,
      "hand": "right"
    },
    {
      "midi": 76,
      "time": 63.955,
      "duration": 0.121,
      "velocity": 0.69,
      "hand": "right"
    },
    {
      "midi": 76,
      "time": 64.091,
      "duration": 0.545,
      "velocity": 0.76,
      "hand": "right"
    },
    {
      "midi": 60,
      "time": 64.227,
      "duration": 0.136,
      "velocity": 0.65,
      "hand": "right"
    },
    {
      "midi": 41,
      "time": 64.5,
      "duration": 1.091,
      "velocity": 0.35,
      "hand": "left"
    },
    {
      "midi": 53,
      "time": 64.5,
      "duration": 0.121,
      "velocity": 0.47,
      "hand": "left"
    },
    {
      "midi": 65,
      "time": 64.5,
      "duration": 0.53,
      "velocity": 0.41,
      "hand": "right"
    },
    {
      "midi": 69,
      "time": 64.5,
      "duration": 0.273,
      "velocity": 0.59,
      "hand": "right"
    },
    {
      "midi": 72,
      "time": 64.5,
      "duration": 0.273,
      "velocity": 0.71,
      "hand": "right"
    },
    {
      "midi": 77,
      "time": 64.5,
      "duration": 0.273,
      "velocity": 0.71,
      "hand": "right"
    },
    {
      "midi": 53,
      "time": 64.636,
      "duration": 0.682,
      "velocity": 0.29,
      "hand": "left"
    },
    {
      "midi": 74,
      "time": 64.636,
      "duration": 0.273,
      "velocity": 0.71,
      "hand": "right"
    },
    {
      "midi": 57,
      "time": 64.773,
      "duration": 0.682,
      "velocity": 0.25,
      "hand": "left"
    },
    {
      "midi": 60,
      "time": 64.909,
      "duration": 0.273,
      "velocity": 0.19,
      "hand": "right"
    },
    {
      "midi": 72,
      "time": 64.909,
      "duration": 0.121,
      "velocity": 0.71,
      "hand": "right"
    },
    {
      "midi": 65,
      "time": 65.045,
      "duration": 0.273,
      "velocity": 0.49,
      "hand": "right"
    },
    {
      "midi": 69,
      "time": 65.045,
      "duration": 0.122,
      "velocity": 0.76,
      "hand": "right"
    },
    {
      "midi": 72,
      "time": 65.045,
      "duration": 0.122,
      "velocity": 0.46,
      "hand": "right"
    },
    {
      "midi": 77,
      "time": 65.045,
      "duration": 0.122,
      "velocity": 0.57,
      "hand": "right"
    },
    {
      "midi": 69,
      "time": 65.182,
      "duration": 0.136,
      "velocity": 0.59,
      "hand": "right"
    },
    {
      "midi": 72,
      "time": 65.182,
      "duration": 0.068,
      "velocity": 0.43,
      "hand": "right"
    },
    {
      "midi": 77,
      "time": 65.182,
      "duration": 0.136,
      "velocity": 0.71,
      "hand": "right"
    },
    {
      "midi": 60,
      "time": 65.318,
      "duration": 0.136,
      "velocity": 0.46,
      "hand": "right"
    },
    {
      "midi": 65,
      "time": 65.455,
      "duration": 0.121,
      "velocity": 0.81,
      "hand": "right"
    },
    {
      "midi": 38,
      "time": 65.591,
      "duration": 1.091,
      "velocity": 0.57,
      "hand": "left"
    },
    {
      "midi": 50,
      "time": 65.591,
      "duration": 0.818,
      "velocity": 0.74,
      "hand": "left"
    },
    {
      "midi": 65,
      "time": 65.591,
      "duration": 0.273,
      "velocity": 0.49,
      "hand": "right"
    },
    {
      "midi": 69,
      "time": 65.591,
      "duration": 0.273,
      "velocity": 0.28,
      "hand": "right"
    },
    {
      "midi": 74,
      "time": 65.591,
      "duration": 0.273,
      "velocity": 0.81,
      "hand": "right"
    },
    {
      "midi": 78,
      "time": 65.591,
      "duration": 1.773,
      "velocity": 0.94,
      "hand": "right"
    },
    {
      "midi": 72,
      "time": 65.727,
      "duration": 0.545,
      "velocity": 0.92,
      "hand": "right"
    },
    {
      "midi": 53,
      "time": 65.864,
      "duration": 0.545,
      "velocity": 0.27,
      "hand": "left"
    },
    {
      "midi": 57,
      "time": 65.864,
      "duration": 0.682,
      "velocity": 0.65,
      "hand": "left"
    },
    {
      "midi": 65,
      "time": 66.136,
      "duration": 0.545,
      "velocity": 0.54,
      "hand": "right"
    },
    {
      "midi": 69,
      "time": 66.136,
      "duration": 0.068,
      "velocity": 0.68,
      "hand": "right"
    },
    {
      "midi": 74,
      "time": 66.136,
      "duration": 0.122,
      "velocity": 0.79,
      "hand": "right"
    },
    {
      "midi": 69,
      "time": 66.273,
      "duration": 0.545,
      "velocity": 0.46,
      "hand": "right"
    },
    {
      "midi": 74,
      "time": 66.273,
      "duration": 0.53,
      "velocity": 0.81,
      "hand": "right"
    },
    {
      "midi": 62,
      "time": 66.409,
      "duration": 0.136,
      "velocity": 0.45,
      "hand": "right"
    },
    {
      "midi": 83,
      "time": 66.682,
      "duration": 4.348,
      "velocity": 0.8,
      "hand": "right"
    },
    {
      "midi": 43,
      "time": 66.818,
      "duration": 0.955,
      "velocity": 0.57,
      "hand": "left"
    },
    {
      "midi": 55,
      "time": 66.818,
      "duration": 0.955,
      "velocity": 0.59,
      "hand": "left"
    },
    {
      "midi": 67,
      "time": 66.818,
      "duration": 0.545,
      "velocity": 0.33,
      "hand": "right"
    },
    {
      "midi": 70,
      "time": 66.818,
      "duration": 0.258,
      "velocity": 0.49,
      "hand": "right"
    },
    {
      "midi": 72,
      "time": 66.818,
      "duration": 0.273,
      "velocity": 0.83,
      "hand": "right"
    },
    {
      "midi": 74,
      "time": 66.818,
      "duration": 0.273,
      "velocity": 0.83,
      "hand": "right"
    },
    {
      "midi": 58,
      "time": 66.955,
      "duration": 0.682,
      "velocity": 0.33,
      "hand": "left"
    },
    {
      "midi": 70,
      "time": 67.091,
      "duration": 0.258,
      "velocity": 0.74,
      "hand": "right"
    },
    {
      "midi": 62,
      "time": 67.364,
      "duration": 0.409,
      "velocity": 0.47,
      "hand": "right"
    },
    {
      "midi": 70,
      "time": 67.364,
      "duration": 0.257,
      "velocity": 0.71,
      "hand": "right"
    },
    {
      "midi": 74,
      "time": 67.364,
      "duration": 0.545,
      "velocity": 0.92,
      "hand": "right"
    },
    {
      "midi": 67,
      "time": 67.5,
      "duration": 0.068,
      "velocity": 0.31,
      "hand": "right"
    },
    {
      "midi": 78,
      "time": 67.5,
      "duration": 2.455,
      "velocity": 0.91,
      "hand": "right"
    },
    {
      "midi": 70,
      "time": 67.636,
      "duration": 0.258,
      "velocity": 0.69,
      "hand": "right"
    },
    {
      "midi": 79,
      "time": 67.636,
      "duration": 0.273,
      "velocity": 0.41,
      "hand": "right"
    },
    {
      "midi": 36,
      "time": 67.909,
      "duration": 1.091,
      "velocity": 0.49,
      "hand": "left"
    },
    {
      "midi": 48,
      "time": 67.909,
      "duration": 0.818,
      "velocity": 0.57,
      "hand": "left"
    },
    {
      "midi": 70,
      "time": 67.909,
      "duration": 0.273,
      "velocity": 0.57,
      "hand": "right"
    },
    {
      "midi": 72,
      "time": 67.909,
      "duration": 0.273,
      "velocity": 0.71,
      "hand": "right"
    },
    {
      "midi": 76,
      "time": 67.909,
      "duration": 0.273,
      "velocity": 0.65,
      "hand": "right"
    },
    {
      "midi": 52,
      "time": 68.182,
      "duration": 0.409,
      "velocity": 0.08,
      "hand": "left"
    },
    {
      "midi": 55,
      "time": 68.182,
      "duration": 0.273,
      "velocity": 0.15,
      "hand": "left"
    },
    {
      "midi": 60,
      "time": 68.182,
      "duration": 0.258,
      "velocity": 0.57,
      "hand": "right"
    },
    {
      "midi": 67,
      "time": 68.455,
      "duration": 0.545,
      "velocity": 0.54,
      "hand": "right"
    },
    {
      "midi": 70,
      "time": 68.455,
      "duration": 0.136,
      "velocity": 0.41,
      "hand": "right"
    },
    {
      "midi": 72,
      "time": 68.455,
      "duration": 0.53,
      "velocity": 0.71,
      "hand": "right"
    },
    {
      "midi": 76,
      "time": 68.455,
      "duration": 0.136,
      "velocity": 0.66,
      "hand": "right"
    },
    {
      "midi": 52,
      "time": 68.727,
      "duration": 0.136,
      "velocity": 0.72,
      "hand": "left"
    },
    {
      "midi": 41,
      "time": 69,
      "duration": 1.091,
      "velocity": 0.47,
      "hand": "left"
    },
    {
      "midi": 53,
      "time": 69,
      "duration": 0.818,
      "velocity": 0.54,
      "hand": "left"
    },
    {
      "midi": 65,
      "time": 69,
      "duration": 0.409,
      "velocity": 0.39,
      "hand": "right"
    },
    {
      "midi": 69,
      "time": 69,
      "duration": 0.273,
      "velocity": 0.41,
      "hand": "right"
    },
    {
      "midi": 72,
      "time": 69,
      "duration": 0.273,
      "velocity": 0.54,
      "hand": "right"
    },
    {
      "midi": 77,
      "time": 69,
      "duration": 0.136,
      "velocity": 0.61,
      "hand": "right"
    },
    {
      "midi": 57,
      "time": 69.273,
      "duration": 0.257,
      "velocity": 0.31,
      "hand": "left"
    },
    {
      "midi": 57,
      "time": 69.545,
      "duration": 0.136,
      "velocity": 0.15,
      "hand": "left"
    },
    {
      "midi": 65,
      "time": 69.545,
      "duration": 0.258,
      "velocity": 0.81,
      "hand": "right"
    },
    {
      "midi": 69,
      "time": 69.545,
      "duration": 0.258,
      "velocity": 0.57,
      "hand": "right"
    },
    {
      "midi": 72,
      "time": 69.545,
      "duration": 0.531,
      "velocity": 0.74,
      "hand": "right"
    },
    {
      "midi": 77,
      "time": 69.545,
      "duration": 0.068,
      "velocity": 0.69,
      "hand": "right"
    },
    {
      "midi": 65,
      "time": 69.818,
      "duration": 0.136,
      "velocity": 0.39,
      "hand": "right"
    },
    {
      "midi": 69,
      "time": 69.818,
      "duration": 0.136,
      "velocity": 0.79,
      "hand": "right"
    },
    {
      "midi": 45,
      "time": 70.091,
      "duration": 1.091,
      "velocity": 0.66,
      "hand": "left"
    },
    {
      "midi": 53,
      "time": 70.091,
      "duration": 0.545,
      "velocity": 0.17,
      "hand": "left"
    },
    {
      "midi": 69,
      "time": 70.091,
      "duration": 0.273,
      "velocity": 0.46,
      "hand": "right"
    },
    {
      "midi": 72,
      "time": 70.091,
      "duration": 0.409,
      "velocity": 0.92,
      "hand": "right"
    },
    {
      "midi": 78,
      "time": 70.091,
      "duration": 3.121,
      "velocity": 0.89,
      "hand": "right"
    },
    {
      "midi": 65,
      "time": 70.364,
      "duration": 0.682,
      "velocity": 0.47,
      "hand": "right"
    },
    {
      "midi": 69,
      "time": 70.636,
      "duration": 0.682,
      "velocity": 0.72,
      "hand": "right"
    },
    {
      "midi": 72,
      "time": 70.636,
      "duration": 0.136,
      "velocity": 0.81,
      "hand": "right"
    },
    {
      "midi": 77,
      "time": 70.636,
      "duration": 0.545,
      "velocity": 0.86,
      "hand": "right"
    },
    {
      "midi": 72,
      "time": 70.909,
      "duration": 0.409,
      "velocity": 0.57,
      "hand": "right"
    },
    {
      "midi": 83,
      "time": 71.045,
      "duration": 10,
      "velocity": 0.68,
      "hand": "right"
    },
    {
      "midi": 36,
      "time": 71.182,
      "duration": 1.091,
      "velocity": 0.42,
      "hand": "left"
    },
    {
      "midi": 55,
      "time": 71.182,
      "duration": 0.818,
      "velocity": 0.55,
      "hand": "left"
    },
    {
      "midi": 67,
      "time": 71.182,
      "duration": 0.394,
      "velocity": 0.2,
      "hand": "right"
    },
    {
      "midi": 70,
      "time": 71.182,
      "duration": 0.273,
      "velocity": 0.34,
      "hand": "right"
    },
    {
      "midi": 74,
      "time": 71.182,
      "duration": 0.121,
      "velocity": 0.59,
      "hand": "right"
    },
    {
      "midi": 76,
      "time": 71.182,
      "duration": 0.273,
      "velocity": 0.71,
      "hand": "right"
    },
    {
      "midi": 62,
      "time": 71.318,
      "duration": 0.409,
      "velocity": 0.52,
      "hand": "right"
    },
    {
      "midi": 74,
      "time": 71.318,
      "duration": 0.258,
      "velocity": 0.86,
      "hand": "right"
    },
    {
      "midi": 67,
      "time": 71.591,
      "duration": 0.258,
      "velocity": 0.59,
      "hand": "right"
    },
    {
      "midi": 70,
      "time": 71.591,
      "duration": 0.121,
      "velocity": 0.65,
      "hand": "right"
    },
    {
      "midi": 74,
      "time": 71.591,
      "duration": 0.136,
      "velocity": 0.79,
      "hand": "right"
    },
    {
      "midi": 70,
      "time": 71.727,
      "duration": 0.273,
      "velocity": 0.76,
      "hand": "right"
    },
    {
      "midi": 67,
      "time": 71.864,
      "duration": 0.136,
      "velocity": 0.74,
      "hand": "right"
    },
    {
      "midi": 74,
      "time": 71.864,
      "duration": 0.257,
      "velocity": 0.62,
      "hand": "right"
    },
    {
      "midi": 48,
      "time": 72.136,
      "duration": 0.682,
      "velocity": 0.28,
      "hand": "left"
    },
    {
      "midi": 52,
      "time": 72.136,
      "duration": 0.682,
      "velocity": 0.39,
      "hand": "left"
    },
    {
      "midi": 70,
      "time": 72.136,
      "duration": 0.273,
      "velocity": 0.47,
      "hand": "right"
    },
    {
      "midi": 72,
      "time": 72.136,
      "duration": 0.273,
      "velocity": 0.63,
      "hand": "right"
    },
    {
      "midi": 74,
      "time": 72.136,
      "duration": 0.545,
      "velocity": 0.92,
      "hand": "right"
    },
    {
      "midi": 76,
      "time": 72.136,
      "duration": 0.273,
      "velocity": 0.59,
      "hand": "right"
    },
    {
      "midi": 40,
      "time": 72.273,
      "duration": 1.091,
      "velocity": 0.57,
      "hand": "left"
    },
    {
      "midi": 67,
      "time": 72.409,
      "duration": 0.273,
      "velocity": 0.68,
      "hand": "right"
    },
    {
      "midi": 70,
      "time": 72.682,
      "duration": 0.136,
      "velocity": 0.39,
      "hand": "right"
    },
    {
      "midi": 72,
      "time": 72.682,
      "duration": 0.273,
      "velocity": 0.71,
      "hand": "right"
    },
    {
      "midi": 76,
      "time": 72.682,
      "duration": 0.121,
      "velocity": 0.66,
      "hand": "right"
    },
    {
      "midi": 76,
      "time": 72.818,
      "duration": 0.545,
      "velocity": 0.68,
      "hand": "right"
    },
    {
      "midi": 79,
      "time": 72.955,
      "duration": 0.273,
      "velocity": 0.65,
      "hand": "right"
    },
    {
      "midi": 41,
      "time": 73.227,
      "duration": 1.091,
      "velocity": 0.45,
      "hand": "left"
    },
    {
      "midi": 53,
      "time": 73.227,
      "duration": 0.818,
      "velocity": 0.32,
      "hand": "left"
    },
    {
      "midi": 60,
      "time": 73.227,
      "duration": 0.258,
      "velocity": 0.51,
      "hand": "right"
    },
    {
      "midi": 65,
      "time": 73.227,
      "duration": 0.531,
      "velocity": 0.31,
      "hand": "right"
    },
    {
      "midi": 69,
      "time": 73.227,
      "duration": 0.273,
      "velocity": 0.44,
      "hand": "right"
    },
    {
      "midi": 78,
      "time": 73.227,
      "duration": 2.045,
      "velocity": 0.81,
      "hand": "right"
    },
    {
      "midi": 72,
      "time": 73.364,
      "duration": 0.257,
      "velocity": 0.65,
      "hand": "right"
    },
    {
      "midi": 74,
      "time": 73.364,
      "duration": 0.273,
      "velocity": 0.83,
      "hand": "right"
    },
    {
      "midi": 77,
      "time": 73.364,
      "duration": 0.273,
      "velocity": 0.65,
      "hand": "right"
    },
    {
      "midi": 60,
      "time": 73.5,
      "duration": 0.545,
      "velocity": 0.69,
      "hand": "right"
    },
    {
      "midi": 72,
      "time": 73.636,
      "duration": 0.136,
      "velocity": 0.72,
      "hand": "right"
    },
    {
      "midi": 65,
      "time": 73.773,
      "duration": 0.273,
      "velocity": 0.52,
      "hand": "right"
    },
    {
      "midi": 69,
      "time": 73.773,
      "duration": 0.121,
      "velocity": 0.57,
      "hand": "right"
    },
    {
      "midi": 69,
      "time": 73.909,
      "duration": 0.273,
      "velocity": 0.83,
      "hand": "right"
    },
    {
      "midi": 72,
      "time": 73.909,
      "duration": 0.068,
      "velocity": 0.3,
      "hand": "right"
    },
    {
      "midi": 77,
      "time": 73.909,
      "duration": 0.136,
      "velocity": 0.72,
      "hand": "right"
    },
    {
      "midi": 65,
      "time": 74.182,
      "duration": 0.258,
      "velocity": 0.74,
      "hand": "right"
    },
    {
      "midi": 72,
      "time": 74.182,
      "duration": 0.258,
      "velocity": 0.66,
      "hand": "right"
    },
    {
      "midi": 38,
      "time": 74.455,
      "duration": 1.091,
      "velocity": 0.45,
      "hand": "left"
    },
    {
      "midi": 50,
      "time": 74.455,
      "duration": 0.818,
      "velocity": 0.68,
      "hand": "left"
    },
    {
      "midi": 65,
      "time": 74.455,
      "duration": 0.273,
      "velocity": 0.4,
      "hand": "right"
    },
    {
      "midi": 69,
      "time": 74.455,
      "duration": 0.136,
      "velocity": 0.2,
      "hand": "right"
    },
    {
      "midi": 72,
      "time": 74.455,
      "duration": 0.545,
      "velocity": 0.92,
      "hand": "right"
    },
    {
      "midi": 74,
      "time": 74.455,
      "duration": 0.273,
      "velocity": 0.65,
      "hand": "right"
    },
    {
      "midi": 57,
      "time": 74.591,
      "duration": 0.545,
      "velocity": 0.54,
      "hand": "left"
    },
    {
      "midi": 53,
      "time": 74.727,
      "duration": 0.545,
      "velocity": 0.22,
      "hand": "left"
    },
    {
      "midi": 65,
      "time": 74.864,
      "duration": 0.121,
      "velocity": 0.55,
      "hand": "right"
    },
    {
      "midi": 69,
      "time": 74.864,
      "duration": 0.545,
      "velocity": 0.65,
      "hand": "right"
    },
    {
      "midi": 65,
      "time": 75,
      "duration": 0.068,
      "velocity": 0.43,
      "hand": "right"
    },
    {
      "midi": 74,
      "time": 75,
      "duration": 0.409,
      "velocity": 0.89,
      "hand": "right"
    },
    {
      "midi": 62,
      "time": 75.136,
      "duration": 0.136,
      "velocity": 0.43,
      "hand": "right"
    },
    {
      "midi": 43,
      "time": 75.409,
      "duration": 1.091,
      "velocity": 0.47,
      "hand": "left"
    },
    {
      "midi": 55,
      "time": 75.409,
      "duration": 0.121,
      "velocity": 0.12,
      "hand": "left"
    },
    {
      "midi": 78,
      "time": 75.409,
      "duration": 2.045,
      "velocity": 0.74,
      "hand": "right"
    },
    {
      "midi": 55,
      "time": 75.545,
      "duration": 0.955,
      "velocity": 0.54,
      "hand": "left"
    },
    {
      "midi": 58,
      "time": 75.545,
      "duration": 0.122,
      "velocity": 0.45,
      "hand": "left"
    },
    {
      "midi": 67,
      "time": 75.545,
      "duration": 0.409,
      "velocity": 0.24,
      "hand": "right"
    },
    {
      "midi": 70,
      "time": 75.545,
      "duration": 0.258,
      "velocity": 0.47,
      "hand": "right"
    },
    {
      "midi": 72,
      "time": 75.545,
      "duration": 0.273,
      "velocity": 0.86,
      "hand": "right"
    },
    {
      "midi": 74,
      "time": 75.545,
      "duration": 0.273,
      "velocity": 0.71,
      "hand": "right"
    },
    {
      "midi": 58,
      "time": 75.682,
      "duration": 0.545,
      "velocity": 0.27,
      "hand": "left"
    },
    {
      "midi": 62,
      "time": 75.682,
      "duration": 0.273,
      "velocity": 0.42,
      "hand": "right"
    },
    {
      "midi": 70,
      "time": 75.818,
      "duration": 0.122,
      "velocity": 0.82,
      "hand": "right"
    },
    {
      "midi": 70,
      "time": 75.955,
      "duration": 0.121,
      "velocity": 0.5,
      "hand": "right"
    },
    {
      "midi": 74,
      "time": 75.955,
      "duration": 0.121,
      "velocity": 0.68,
      "hand": "right"
    },
    {
      "midi": 67,
      "time": 76.091,
      "duration": 0.273,
      "velocity": 0.45,
      "hand": "right"
    },
    {
      "midi": 70,
      "time": 76.091,
      "duration": 0.258,
      "velocity": 0.45,
      "hand": "right"
    },
    {
      "midi": 74,
      "time": 76.091,
      "duration": 0.273,
      "velocity": 0.39,
      "hand": "right"
    },
    {
      "midi": 70,
      "time": 76.364,
      "duration": 0.257,
      "velocity": 0.76,
      "hand": "right"
    },
    {
      "midi": 79,
      "time": 76.364,
      "duration": 0.273,
      "velocity": 0.46,
      "hand": "right"
    },
    {
      "midi": 69,
      "time": 76.5,
      "duration": 0.273,
      "velocity": 0.89,
      "hand": "right"
    },
    {
      "midi": 36,
      "time": 76.636,
      "duration": 1.091,
      "velocity": 0.38,
      "hand": "left"
    },
    {
      "midi": 48,
      "time": 76.636,
      "duration": 0.394,
      "velocity": 0.69,
      "hand": "left"
    },
    {
      "midi": 60,
      "time": 76.636,
      "duration": 0.394,
      "velocity": 0.36,
      "hand": "right"
    },
    {
      "midi": 64,
      "time": 76.636,
      "duration": 0.273,
      "velocity": 0.45,
      "hand": "right"
    },
    {
      "midi": 67,
      "time": 76.636,
      "duration": 0.258,
      "velocity": 0.39,
      "hand": "right"
    },
    {
      "midi": 70,
      "time": 76.636,
      "duration": 0.273,
      "velocity": 0.42,
      "hand": "right"
    },
    {
      "midi": 52,
      "time": 76.773,
      "duration": 0.409,
      "velocity": 0.35,
      "hand": "left"
    },
    {
      "midi": 55,
      "time": 76.773,
      "duration": 0.409,
      "velocity": 0.52,
      "hand": "left"
    },
    {
      "midi": 67,
      "time": 76.909,
      "duration": 0.121,
      "velocity": 0.81,
      "hand": "right"
    },
    {
      "midi": 48,
      "time": 77.045,
      "duration": 0.136,
      "velocity": 0.16,
      "hand": "left"
    },
    {
      "midi": 64,
      "time": 77.045,
      "duration": 0.122,
      "velocity": 0.52,
      "hand": "right"
    },
    {
      "midi": 67,
      "time": 77.045,
      "duration": 0.122,
      "velocity": 0.49,
      "hand": "right"
    },
    {
      "midi": 70,
      "time": 77.045,
      "duration": 0.136,
      "velocity": 0.45,
      "hand": "right"
    },
    {
      "midi": 72,
      "time": 77.045,
      "duration": 0.273,
      "velocity": 0.81,
      "hand": "right"
    },
    {
      "midi": 64,
      "time": 77.182,
      "duration": 0.545,
      "velocity": 0.43,
      "hand": "right"
    },
    {
      "midi": 67,
      "time": 77.182,
      "duration": 0.545,
      "velocity": 0.54,
      "hand": "right"
    },
    {
      "midi": 52,
      "time": 77.318,
      "duration": 0.136,
      "velocity": 0.74,
      "hand": "left"
    },
    {
      "midi": 69,
      "time": 77.318,
      "duration": 0.258,
      "velocity": 0.65,
      "hand": "right"
    },
    {
      "midi": 41,
      "time": 77.591,
      "duration": 1.091,
      "velocity": 0.41,
      "hand": "left"
    },
    {
      "midi": 53,
      "time": 77.591,
      "duration": 0.121,
      "velocity": 0.66,
      "hand": "left"
    },
    {
      "midi": 69,
      "time": 77.591,
      "duration": 0.273,
      "velocity": 0.49,
      "hand": "right"
    },
    {
      "midi": 78,
      "time": 77.591,
      "duration": 0.136,
      "velocity": 0.84,
      "hand": "right"
    },
    {
      "midi": 53,
      "time": 77.727,
      "duration": 0.682,
      "velocity": 0.38,
      "hand": "left"
    },
    {
      "midi": 57,
      "time": 77.727,
      "duration": 0.122,
      "velocity": 0.46,
      "hand": "left"
    },
    {
      "midi": 60,
      "time": 77.727,
      "duration": 0.667,
      "velocity": 0.65,
      "hand": "right"
    },
    {
      "midi": 65,
      "time": 77.727,
      "duration": 1.076,
      "velocity": 0.83,
      "hand": "right"
    },
    {
      "midi": 72,
      "time": 77.727,
      "duration": 0.122,
      "velocity": 0.54,
      "hand": "right"
    },
    {
      "midi": 77,
      "time": 77.727,
      "duration": 0.273,
      "velocity": 0.68,
      "hand": "right"
    },
    {
      "midi": 57,
      "time": 77.864,
      "duration": 0.682,
      "velocity": 0.38,
      "hand": "left"
    },
    {
      "midi": 72,
      "time": 77.864,
      "duration": 0.257,
      "velocity": 0.92,
      "hand": "right"
    },
    {
      "midi": 69,
      "time": 78.136,
      "duration": 0.667,
      "velocity": 0.72,
      "hand": "right"
    },
    {
      "midi": 72,
      "time": 78.136,
      "duration": 0.068,
      "velocity": 0.71,
      "hand": "right"
    },
    {
      "midi": 77,
      "time": 78.136,
      "duration": 0.068,
      "velocity": 0.76,
      "hand": "right"
    },
    {
      "midi": 72,
      "time": 78.273,
      "duration": 0.257,
      "velocity": 0.16,
      "hand": "right"
    },
    {
      "midi": 60,
      "time": 78.409,
      "duration": 0.136,
      "velocity": 0.59,
      "hand": "right"
    },
    {
      "midi": 78,
      "time": 78.409,
      "duration": 1.227,
      "velocity": 0.38,
      "hand": "right"
    },
    {
      "midi": 72,
      "time": 78.545,
      "duration": 0.258,
      "velocity": 0.86,
      "hand": "right"
    },
    {
      "midi": 45,
      "time": 78.682,
      "duration": 1.091,
      "velocity": 0.66,
      "hand": "left"
    },
    {
      "midi": 57,
      "time": 78.682,
      "duration": 0.121,
      "velocity": 0.59,
      "hand": "left"
    },
    {
      "midi": 53,
      "time": 78.818,
      "duration": 0.682,
      "velocity": 0.33,
      "hand": "left"
    },
    {
      "midi": 57,
      "time": 78.818,
      "duration": 0.682,
      "velocity": 0.38,
      "hand": "left"
    },
    {
      "midi": 65,
      "time": 78.818,
      "duration": 0.258,
      "velocity": 0.24,
      "hand": "right"
    },
    {
      "midi": 69,
      "time": 78.818,
      "duration": 0.273,
      "velocity": 0.46,
      "hand": "right"
    },
    {
      "midi": 72,
      "time": 78.818,
      "duration": 0.273,
      "velocity": 0.59,
      "hand": "right"
    },
    {
      "midi": 77,
      "time": 78.818,
      "duration": 0.273,
      "velocity": 0.71,
      "hand": "right"
    },
    {
      "midi": 60,
      "time": 78.955,
      "duration": 0.545,
      "velocity": 0.08,
      "hand": "right"
    },
    {
      "midi": 65,
      "time": 79.091,
      "duration": 0.068,
      "velocity": 0.57,
      "hand": "right"
    },
    {
      "midi": 70,
      "time": 79.091,
      "duration": 0.136,
      "velocity": 0.66,
      "hand": "right"
    },
    {
      "midi": 70,
      "time": 79.364,
      "duration": 0.136,
      "velocity": 0.68,
      "hand": "right"
    },
    {
      "midi": 72,
      "time": 79.364,
      "duration": 0.545,
      "velocity": 0.69,
      "hand": "right"
    },
    {
      "midi": 77,
      "time": 79.364,
      "duration": 0.136,
      "velocity": 0.72,
      "hand": "right"
    },
    {
      "midi": 65,
      "time": 79.5,
      "duration": 0.273,
      "velocity": 0.55,
      "hand": "right"
    },
    {
      "midi": 70,
      "time": 79.636,
      "duration": 0.258,
      "velocity": 0.74,
      "hand": "right"
    },
    {
      "midi": 78,
      "time": 79.773,
      "duration": 2.167,
      "velocity": 0.81,
      "hand": "right"
    },
    {
      "midi": 46,
      "time": 79.909,
      "duration": 1.091,
      "velocity": 0.46,
      "hand": "left"
    },
    {
      "midi": 55,
      "time": 79.909,
      "duration": 0.955,
      "velocity": 0.47,
      "hand": "left"
    },
    {
      "midi": 62,
      "time": 79.909,
      "duration": 0.121,
      "velocity": 0.4,
      "hand": "right"
    },
    {
      "midi": 67,
      "time": 79.909,
      "duration": 0.545,
      "velocity": 0.74,
      "hand": "right"
    },
    {
      "midi": 70,
      "time": 79.909,
      "duration": 0.258,
      "velocity": 0.36,
      "hand": "right"
    },
    {
      "midi": 74,
      "time": 79.909,
      "duration": 0.273,
      "velocity": 0.79,
      "hand": "right"
    },
    {
      "midi": 62,
      "time": 80.045,
      "duration": 0.409,
      "velocity": 0.57,
      "hand": "right"
    },
    {
      "midi": 58,
      "time": 80.182,
      "duration": 0.545,
      "velocity": 0.2,
      "hand": "left"
    },
    {
      "midi": 70,
      "time": 80.182,
      "duration": 0.258,
      "velocity": 0.55,
      "hand": "right"
    },
    {
      "midi": 70,
      "time": 80.455,
      "duration": 0.257,
      "velocity": 0.65,
      "hand": "right"
    },
    {
      "midi": 74,
      "time": 80.455,
      "duration": 0.545,
      "velocity": 0.83,
      "hand": "right"
    },
    {
      "midi": 67,
      "time": 80.591,
      "duration": 0.136,
      "velocity": 0.42,
      "hand": "right"
    },
    {
      "midi": 70,
      "time": 80.727,
      "duration": 0.136,
      "velocity": 0.76,
      "hand": "right"
    },
    {
      "midi": 79,
      "time": 80.727,
      "duration": 0.273,
      "velocity": 0.15,
      "hand": "right"
    },
    {
      "midi": 36,
      "time": 81,
      "duration": 1.091,
      "velocity": 0.57,
      "hand": "left"
    },
    {
      "midi": 48,
      "time": 81,
      "duration": 0.818,
      "velocity": 0.62,
      "hand": "left"
    },
    {
      "midi": 67,
      "time": 81,
      "duration": 0.136,
      "velocity": 0.71,
      "hand": "right"
    },
    {
      "midi": 70,
      "time": 81,
      "duration": 0.273,
      "velocity": 0.39,
      "hand": "right"
    },
    {
      "midi": 72,
      "time": 81,
      "duration": 0.258,
      "velocity": 0.38,
      "hand": "right"
    },
    {
      "midi": 76,
      "time": 81,
      "duration": 0.273,
      "velocity": 0.57,
      "hand": "right"
    },
    {
      "midi": 52,
      "time": 81.273,
      "duration": 0.545,
      "velocity": 0.39,
      "hand": "left"
    },
    {
      "midi": 55,
      "time": 81.273,
      "duration": 0.545,
      "velocity": 0.49,
      "hand": "left"
    },
    {
      "midi": 72,
      "time": 81.273,
      "duration": 0.136,
      "velocity": 0.86,
      "hand": "right"
    },
    {
      "midi": 67,
      "time": 81.545,
      "duration": 0.545,
      "velocity": 0.39,
      "hand": "right"
    },
    {
      "midi": 70,
      "time": 81.545,
      "duration": 0.136,
      "velocity": 0.41,
      "hand": "right"
    },
    {
      "midi": 72,
      "time": 81.545,
      "duration": 0.258,
      "velocity": 0.61,
      "hand": "right"
    },
    {
      "midi": 76,
      "time": 81.545,
      "duration": 0.136,
      "velocity": 0.57,
      "hand": "right"
    },
    {
      "midi": 60,
      "time": 81.682,
      "duration": 0.136,
      "velocity": 0.54,
      "hand": "right"
    },
    {
      "midi": 72,
      "time": 81.818,
      "duration": 0.136,
      "velocity": 0.81,
      "hand": "right"
    },
    {
      "midi": 41,
      "time": 81.955,
      "duration": 0.818,
      "velocity": 0.38,
      "hand": "left"
    },
    {
      "midi": 78,
      "time": 81.955,
      "duration": 2.045,
      "velocity": 0.7,
      "hand": "right"
    },
    {
      "midi": 53,
      "time": 82.091,
      "duration": 0.955,
      "velocity": 0.5,
      "hand": "left"
    },
    {
      "midi": 57,
      "time": 82.091,
      "duration": 0.682,
      "velocity": 0.3,
      "hand": "left"
    },
    {
      "midi": 65,
      "time": 82.091,
      "duration": 0.394,
      "velocity": 0.29,
      "hand": "right"
    },
    {
      "midi": 69,
      "time": 82.091,
      "duration": 0.409,
      "velocity": 0.76,
      "hand": "right"
    },
    {
      "midi": 72,
      "time": 82.091,
      "duration": 0.273,
      "velocity": 0.29,
      "hand": "right"
    },
    {
      "midi": 77,
      "time": 82.091,
      "duration": 0.273,
      "velocity": 0.68,
      "hand": "right"
    },
    {
      "midi": 60,
      "time": 82.227,
      "duration": 0.409,
      "velocity": 0.31,
      "hand": "right"
    },
    {
      "midi": 65,
      "time": 82.5,
      "duration": 0.409,
      "velocity": 0.42,
      "hand": "right"
    },
    {
      "midi": 69,
      "time": 82.636,
      "duration": 0.531,
      "velocity": 0.69,
      "hand": "right"
    },
    {
      "midi": 72,
      "time": 82.636,
      "duration": 0.258,
      "velocity": 0.86,
      "hand": "right"
    },
    {
      "midi": 77,
      "time": 82.636,
      "duration": 0.545,
      "velocity": 0.72,
      "hand": "right"
    },
    {
      "midi": 57,
      "time": 82.909,
      "duration": 0.136,
      "velocity": 0.25,
      "hand": "left"
    },
    {
      "midi": 60,
      "time": 82.909,
      "duration": 0.136,
      "velocity": 0.43,
      "hand": "right"
    },
    {
      "midi": 72,
      "time": 82.909,
      "duration": 0.273,
      "velocity": 0.81,
      "hand": "right"
    },
    {
      "midi": 38,
      "time": 83.182,
      "duration": 1.091,
      "velocity": 0.55,
      "hand": "left"
    },
    {
      "midi": 50,
      "time": 83.182,
      "duration": 0.818,
      "velocity": 0.59,
      "hand": "left"
    },
    {
      "midi": 62,
      "time": 83.182,
      "duration": 0.682,
      "velocity": 0.28,
      "hand": "right"
    },
    {
      "midi": 65,
      "time": 83.182,
      "duration": 0.273,
      "velocity": 0.41,
      "hand": "right"
    },
    {
      "midi": 69,
      "time": 83.182,
      "duration": 0.273,
      "velocity": 0.13,
      "hand": "right"
    },
    {
      "midi": 74,
      "time": 83.182,
      "duration": 0.273,
      "velocity": 0.79,
      "hand": "right"
    },
    {
      "midi": 53,
      "time": 83.455,
      "duration": 0.409,
      "velocity": 0.08,
      "hand": "left"
    },
    {
      "midi": 57,
      "time": 83.455,
      "duration": 0.545,
      "velocity": 0.59,
      "hand": "left"
    },
    {
      "midi": 70,
      "time": 83.455,
      "duration": 0.136,
      "velocity": 0.47,
      "hand": "right"
    },
    {
      "midi": 65,
      "time": 83.727,
      "duration": 0.545,
      "velocity": 0.52,
      "hand": "right"
    },
    {
      "midi": 70,
      "time": 83.727,
      "duration": 0.273,
      "velocity": 0.72,
      "hand": "right"
    },
    {
      "midi": 74,
      "time": 83.727,
      "duration": 0.394,
      "velocity": 0.69,
      "hand": "right"
    },
    {
      "midi": 62,
      "time": 84,
      "duration": 0.121,
      "velocity": 0.42,
      "hand": "right"
    },
    {
      "midi": 69,
      "time": 84,
      "duration": 0.273,
      "velocity": 0.79,
      "hand": "right"
    },
    {
      "midi": 43,
      "time": 84.136,
      "duration": 0.955,
      "velocity": 0.46,
      "hand": "left"
    },
    {
      "midi": 55,
      "time": 84.136,
      "duration": 0.122,
      "velocity": 0.14,
      "hand": "left"
    },
    {
      "midi": 62,
      "time": 84.136,
      "duration": 0.258,
      "velocity": 0.54,
      "hand": "right"
    },
    {
      "midi": 70,
      "time": 84.136,
      "duration": 0.273,
      "velocity": 0.42,
      "hand": "right"
    },
    {
      "midi": 74,
      "time": 84.136,
      "duration": 0.273,
      "velocity": 0.72,
      "hand": "right"
    },
    {
      "midi": 78,
      "time": 84.136,
      "duration": 3.136,
      "velocity": 0.84,
      "hand": "right"
    },
    {
      "midi": 55,
      "time": 84.273,
      "duration": 0.818,
      "velocity": 0.59,
      "hand": "left"
    },
    {
      "midi": 67,
      "time": 84.273,
      "duration": 0.394,
      "velocity": 0.79,
      "hand": "right"
    },
    {
      "midi": 58,
      "time": 84.409,
      "duration": 0.545,
      "velocity": 0.39,
      "hand": "left"
    },
    {
      "midi": 62,
      "time": 84.409,
      "duration": 0.273,
      "velocity": 0.5,
      "hand": "right"
    },
    {
      "midi": 76,
      "time": 84.545,
      "duration": 0.545,
      "velocity": 0.76,
      "hand": "right"
    },
    {
      "midi": 67,
      "time": 84.682,
      "duration": 0.273,
      "velocity": 0.46,
      "hand": "right"
    },
    {
      "midi": 74,
      "time": 84.682,
      "duration": 0.136,
      "velocity": 0.72,
      "hand": "right"
    },
    {
      "midi": 70,
      "time": 84.818,
      "duration": 0.394,
      "velocity": 0.62,
      "hand": "right"
    },
    {
      "midi": 62,
      "time": 84.955,
      "duration": 0.068,
      "velocity": 0.35,
      "hand": "right"
    },
    {
      "midi": 74,
      "time": 84.955,
      "duration": 0.121,
      "velocity": 0.52,
      "hand": "right"
    },
    {
      "midi": 74,
      "time": 85.091,
      "duration": 0.273,
      "velocity": 0.74,
      "hand": "right"
    },
    {
      "midi": 36,
      "time": 85.227,
      "duration": 1.091,
      "velocity": 0.5,
      "hand": "left"
    },
    {
      "midi": 48,
      "time": 85.227,
      "duration": 0.122,
      "velocity": 0.17,
      "hand": "left"
    },
    {
      "midi": 60,
      "time": 85.227,
      "duration": 0.409,
      "velocity": 0.23,
      "hand": "right"
    },
    {
      "midi": 70,
      "time": 85.227,
      "duration": 0.273,
      "velocity": 0.22,
      "hand": "right"
    },
    {
      "midi": 48,
      "time": 85.364,
      "duration": 0.818,
      "velocity": 0.69,
      "hand": "left"
    },
    {
      "midi": 52,
      "time": 85.364,
      "duration": 0.394,
      "velocity": 0.19,
      "hand": "left"
    },
    {
      "midi": 64,
      "time": 85.364,
      "duration": 0.273,
      "velocity": 0.18,
      "hand": "right"
    },
    {
      "midi": 67,
      "time": 85.364,
      "duration": 0.136,
      "velocity": 0.08,
      "hand": "right"
    },
    {
      "midi": 72,
      "time": 85.364,
      "duration": 0.273,
      "velocity": 0.79,
      "hand": "right"
    },
    {
      "midi": 55,
      "time": 85.5,
      "duration": 0.545,
      "velocity": 0.65,
      "hand": "left"
    },
    {
      "midi": 70,
      "time": 85.636,
      "duration": 0.258,
      "velocity": 0.55,
      "hand": "right"
    },
    {
      "midi": 52,
      "time": 85.773,
      "duration": 0.409,
      "velocity": 0.08,
      "hand": "left"
    },
    {
      "midi": 60,
      "time": 85.773,
      "duration": 0.136,
      "velocity": 0.28,
      "hand": "right"
    },
    {
      "midi": 64,
      "time": 85.909,
      "duration": 0.545,
      "velocity": 0.47,
      "hand": "right"
    },
    {
      "midi": 67,
      "time": 85.909,
      "duration": 0.258,
      "velocity": 0.54,
      "hand": "right"
    },
    {
      "midi": 70,
      "time": 85.909,
      "duration": 0.136,
      "velocity": 0.42,
      "hand": "right"
    },
    {
      "midi": 60,
      "time": 86.045,
      "duration": 0.136,
      "velocity": 0.2,
      "hand": "right"
    },
    {
      "midi": 67,
      "time": 86.182,
      "duration": 0.273,
      "velocity": 0.09,
      "hand": "right"
    },
    {
      "midi": 72,
      "time": 86.182,
      "duration": 0.136,
      "velocity": 0.08,
      "hand": "right"
    },
    {
      "midi": 69,
      "time": 86.318,
      "duration": 0.273,
      "velocity": 0.49,
      "hand": "right"
    },
    {
      "midi": 41,
      "time": 86.455,
      "duration": 1.091,
      "velocity": 0.52,
      "hand": "left"
    },
    {
      "midi": 53,
      "time": 86.455,
      "duration": 0.955,
      "velocity": 0.57,
      "hand": "left"
    },
    {
      "midi": 60,
      "time": 86.455,
      "duration": 0.257,
      "velocity": 0.57,
      "hand": "right"
    },
    {
      "midi": 65,
      "time": 86.455,
      "duration": 0.53,
      "velocity": 0.4,
      "hand": "right"
    },
    {
      "midi": 72,
      "time": 86.455,
      "duration": 0.273,
      "velocity": 0.63,
      "hand": "right"
    },
    {
      "midi": 77,
      "time": 86.455,
      "duration": 0.273,
      "velocity": 0.74,
      "hand": "right"
    },
    {
      "midi": 60,
      "time": 86.727,
      "duration": 0.273,
      "velocity": 0.49,
      "hand": "right"
    },
    {
      "midi": 65,
      "time": 87,
      "duration": 0.409,
      "velocity": 0.68,
      "hand": "right"
    },
    {
      "midi": 69,
      "time": 87,
      "duration": 0.136,
      "velocity": 0.59,
      "hand": "right"
    },
    {
      "midi": 72,
      "time": 87,
      "duration": 0.068,
      "velocity": 0.14,
      "hand": "right"
    },
    {
      "midi": 77,
      "time": 87,
      "duration": 0.136,
      "velocity": 0.72,
      "hand": "right"
    },
    {
      "midi": 57,
      "time": 87.273,
      "duration": 0.257,
      "velocity": 0.52,
      "hand": "left"
    },
    {
      "midi": 60,
      "time": 87.273,
      "duration": 0.136,
      "velocity": 0.31,
      "hand": "right"
    },
    {
      "midi": 69,
      "time": 87.409,
      "duration": 0.955,
      "velocity": 0.42,
      "hand": "right"
    },
    {
      "midi": 78,
      "time": 87.409,
      "duration": 0.682,
      "velocity": 0.88,
      "hand": "right"
    },
    {
      "midi": 36,
      "time": 87.545,
      "duration": 1.091,
      "velocity": 0.27,
      "hand": "left"
    },
    {
      "midi": 53,
      "time": 87.545,
      "duration": 0.94,
      "velocity": 0.31,
      "hand": "left"
    },
    {
      "midi": 70,
      "time": 87.545,
      "duration": 0.545,
      "velocity": 0.13,
      "hand": "right"
    },
    {
      "midi": 72,
      "time": 87.545,
      "duration": 0.94,
      "velocity": 0.57,
      "hand": "right"
    },
    {
      "midi": 74,
      "time": 87.545,
      "duration": 0.409,
      "velocity": 0.54,
      "hand": "right"
    },
    {
      "midi": 77,
      "time": 87.545,
      "duration": 0.531,
      "velocity": 0.49,
      "hand": "right"
    },
    {
      "midi": 74,
      "time": 88.091,
      "duration": 0.136,
      "velocity": 0.59,
      "hand": "right"
    },
    {
      "midi": 77,
      "time": 88.091,
      "duration": 0.136,
      "velocity": 0.68,
      "hand": "right"
    },
    {
      "midi": 41,
      "time": 88.5,
      "duration": 0.682,
      "velocity": 0.38,
      "hand": "left"
    },
    {
      "midi": 53,
      "time": 88.5,
      "duration": 0.545,
      "velocity": 0.23,
      "hand": "left"
    },
    {
      "midi": 60,
      "time": 88.5,
      "duration": 0.121,
      "velocity": 0.68,
      "hand": "right"
    },
    {
      "midi": 69,
      "time": 88.5,
      "duration": 0.121,
      "velocity": 0.46,
      "hand": "right"
    },
    {
      "midi": 72,
      "time": 88.5,
      "duration": 0.121,
      "velocity": 0.51,
      "hand": "right"
    },
    {
      "midi": 57,
      "time": 88.636,
      "duration": 0.545,
      "velocity": 0.29,
      "hand": "left"
    },
    {
      "midi": 65,
      "time": 88.636,
      "duration": 0.545,
      "velocity": 0.69,
      "hand": "right"
    },
    {
      "midi": 69,
      "time": 88.636,
      "duration": 0.682,
      "velocity": 0.25,
      "hand": "right"
    },
    {
      "midi": 72,
      "time": 88.636,
      "duration": 0.682,
      "velocity": 0.49,
      "hand": "right"
    },
    {
      "midi": 77,
      "time": 88.636,
      "duration": 0.682,
      "velocity": 0.79,
      "hand": "right"
    }
  ],
  "arrangements": {
    "easy": [
      {
        "midi": 83,
        "time": 0,
        "duration": 2.4,
        "velocity": 0.91,
        "hand": "right"
      },
      {
        "midi": 77,
        "time": 0.818,
        "duration": 0.45,
        "velocity": 0.71,
        "hand": "right"
      },
      {
        "midi": 60,
        "time": 1.636,
        "duration": 0.45,
        "velocity": 0.57,
        "hand": "right"
      },
      {
        "midi": 77,
        "time": 2.455,
        "duration": 0.45,
        "velocity": 0.69,
        "hand": "right"
      },
      {
        "midi": 72,
        "time": 3.273,
        "duration": 0.45,
        "velocity": 0.34,
        "hand": "right"
      },
      {
        "midi": 77,
        "time": 4.091,
        "duration": 0.955,
        "velocity": 0.49,
        "hand": "right"
      },
      {
        "midi": 70,
        "time": 4.909,
        "duration": 0.45,
        "velocity": 0.57,
        "hand": "right"
      },
      {
        "midi": 76,
        "time": 5.727,
        "duration": 0.45,
        "velocity": 0.5,
        "hand": "right"
      },
      {
        "midi": 74,
        "time": 6.545,
        "duration": 0.45,
        "velocity": 0.63,
        "hand": "right"
      },
      {
        "midi": 76,
        "time": 7.364,
        "duration": 0.545,
        "velocity": 0.62,
        "hand": "right"
      },
      {
        "midi": 60,
        "time": 8.045,
        "duration": 0.45,
        "velocity": 0.62,
        "hand": "right"
      },
      {
        "midi": 72,
        "time": 8.727,
        "duration": 0.45,
        "velocity": 0.79,
        "hand": "right"
      },
      {
        "midi": 77,
        "time": 9.545,
        "duration": 0.45,
        "velocity": 0.68,
        "hand": "right"
      },
      {
        "midi": 60,
        "time": 10.364,
        "duration": 0.45,
        "velocity": 0.39,
        "hand": "right"
      },
      {
        "midi": 78,
        "time": 11.045,
        "duration": 2.4,
        "velocity": 0.95,
        "hand": "right"
      },
      {
        "midi": 77,
        "time": 11.727,
        "duration": 0.45,
        "velocity": 0.41,
        "hand": "right"
      },
      {
        "midi": 58,
        "time": 12.409,
        "duration": 0.682,
        "velocity": 0.46,
        "hand": "right"
      },
      {
        "midi": 70,
        "time": 13.091,
        "duration": 0.45,
        "velocity": 0.76,
        "hand": "right"
      },
      {
        "midi": 74,
        "time": 13.909,
        "duration": 0.45,
        "velocity": 0.76,
        "hand": "right"
      },
      {
        "midi": 55,
        "time": 14.727,
        "duration": 0.45,
        "velocity": 0.55,
        "hand": "right"
      },
      {
        "midi": 76,
        "time": 15.545,
        "duration": 0.45,
        "velocity": 0.54,
        "hand": "right"
      },
      {
        "midi": 74,
        "time": 16.364,
        "duration": 0.45,
        "velocity": 0.81,
        "hand": "right"
      },
      {
        "midi": 77,
        "time": 17.182,
        "duration": 0.45,
        "velocity": 0.72,
        "hand": "right"
      },
      {
        "midi": 60,
        "time": 18,
        "duration": 0.45,
        "velocity": 0.69,
        "hand": "right"
      },
      {
        "midi": 55,
        "time": 18.682,
        "duration": 0.45,
        "velocity": 0.66,
        "hand": "right"
      },
      {
        "midi": 74,
        "time": 19.364,
        "duration": 0.45,
        "velocity": 0.76,
        "hand": "right"
      },
      {
        "midi": 67,
        "time": 20.182,
        "duration": 0.45,
        "velocity": 0.59,
        "hand": "right"
      },
      {
        "midi": 77,
        "time": 21,
        "duration": 0.45,
        "velocity": 0.71,
        "hand": "right"
      },
      {
        "midi": 76,
        "time": 21.818,
        "duration": 0.45,
        "velocity": 0.55,
        "hand": "right"
      },
      {
        "midi": 74,
        "time": 22.636,
        "duration": 0.531,
        "velocity": 0.74,
        "hand": "right"
      },
      {
        "midi": 70,
        "time": 23.455,
        "duration": 0.45,
        "velocity": 0.66,
        "hand": "right"
      },
      {
        "midi": 70,
        "time": 24.273,
        "duration": 0.45,
        "velocity": 0.41,
        "hand": "right"
      },
      {
        "midi": 64,
        "time": 25.091,
        "duration": 0.45,
        "velocity": 0.69,
        "hand": "right"
      },
      {
        "midi": 77,
        "time": 25.909,
        "duration": 0.45,
        "velocity": 0.72,
        "hand": "right"
      },
      {
        "midi": 60,
        "time": 26.727,
        "duration": 0.545,
        "velocity": 0.45,
        "hand": "right"
      },
      {
        "midi": 76,
        "time": 27.545,
        "duration": 0.45,
        "velocity": 0.68,
        "hand": "right"
      },
      {
        "midi": 67,
        "time": 28.227,
        "duration": 0.45,
        "velocity": 0.59,
        "hand": "right"
      },
      {
        "midi": 76,
        "time": 29.045,
        "duration": 0.45,
        "velocity": 0.54,
        "hand": "right"
      },
      {
        "midi": 74,
        "time": 29.727,
        "duration": 0.45,
        "velocity": 0.89,
        "hand": "right"
      },
      {
        "midi": 72,
        "time": 30.545,
        "duration": 0.45,
        "velocity": 0.62,
        "hand": "right"
      },
      {
        "midi": 65,
        "time": 31.227,
        "duration": 0.545,
        "velocity": 0.63,
        "hand": "right"
      },
      {
        "midi": 74,
        "time": 31.909,
        "duration": 0.45,
        "velocity": 0.61,
        "hand": "right"
      },
      {
        "midi": 62,
        "time": 32.591,
        "duration": 0.45,
        "velocity": 0.17,
        "hand": "right"
      },
      {
        "midi": 67,
        "time": 33.273,
        "duration": 0.45,
        "velocity": 0.79,
        "hand": "right"
      },
      {
        "midi": 83,
        "time": 33.955,
        "duration": 2.4,
        "velocity": 0.74,
        "hand": "right"
      },
      {
        "midi": 72,
        "time": 34.773,
        "duration": 0.45,
        "velocity": 0.72,
        "hand": "right"
      },
      {
        "midi": 70,
        "time": 35.455,
        "duration": 0.45,
        "velocity": 0.39,
        "hand": "right"
      },
      {
        "midi": 78,
        "time": 36.136,
        "duration": 2.4,
        "velocity": 0.64,
        "hand": "right"
      },
      {
        "midi": 74,
        "time": 36.818,
        "duration": 0.682,
        "velocity": 0.68,
        "hand": "right"
      },
      {
        "midi": 72,
        "time": 37.636,
        "duration": 0.45,
        "velocity": 0.92,
        "hand": "right"
      },
      {
        "midi": 69,
        "time": 38.318,
        "duration": 0.45,
        "velocity": 0.46,
        "hand": "right"
      },
      {
        "midi": 77,
        "time": 39,
        "duration": 0.545,
        "velocity": 0.43,
        "hand": "right"
      },
      {
        "midi": 70,
        "time": 39.682,
        "duration": 0.45,
        "velocity": 0.39,
        "hand": "right"
      },
      {
        "midi": 69,
        "time": 40.364,
        "duration": 0.45,
        "velocity": 0.79,
        "hand": "right"
      },
      {
        "midi": 74,
        "time": 41.045,
        "duration": 0.45,
        "velocity": 0.45,
        "hand": "right"
      },
      {
        "midi": 72,
        "time": 41.727,
        "duration": 0.45,
        "velocity": 0.89,
        "hand": "right"
      },
      {
        "midi": 67,
        "time": 42.545,
        "duration": 0.45,
        "velocity": 0.68,
        "hand": "right"
      },
      {
        "midi": 72,
        "time": 43.227,
        "duration": 0.45,
        "velocity": 0.45,
        "hand": "right"
      },
      {
        "midi": 72,
        "time": 43.909,
        "duration": 0.45,
        "velocity": 0.79,
        "hand": "right"
      },
      {
        "midi": 72,
        "time": 44.727,
        "duration": 0.45,
        "velocity": 0.49,
        "hand": "right"
      },
      {
        "midi": 77,
        "time": 45.545,
        "duration": 0.45,
        "velocity": 0.74,
        "hand": "right"
      },
      {
        "midi": 65,
        "time": 46.227,
        "duration": 0.682,
        "velocity": 0.35,
        "hand": "right"
      },
      {
        "midi": 72,
        "time": 46.909,
        "duration": 0.45,
        "velocity": 0.76,
        "hand": "right"
      },
      {
        "midi": 62,
        "time": 47.591,
        "duration": 0.45,
        "velocity": 0.08,
        "hand": "right"
      },
      {
        "midi": 74,
        "time": 48.273,
        "duration": 0.45,
        "velocity": 0.79,
        "hand": "right"
      },
      {
        "midi": 79,
        "time": 49.091,
        "duration": 0.45,
        "velocity": 0.41,
        "hand": "right"
      },
      {
        "midi": 64,
        "time": 49.773,
        "duration": 0.45,
        "velocity": 0.08,
        "hand": "right"
      },
      {
        "midi": 76,
        "time": 50.455,
        "duration": 0.45,
        "velocity": 0.59,
        "hand": "right"
      },
      {
        "midi": 60,
        "time": 51.136,
        "duration": 0.45,
        "velocity": 0.34,
        "hand": "right"
      },
      {
        "midi": 60,
        "time": 51.818,
        "duration": 0.45,
        "velocity": 0.65,
        "hand": "right"
      },
      {
        "midi": 77,
        "time": 52.636,
        "duration": 0.45,
        "velocity": 0.61,
        "hand": "right"
      },
      {
        "midi": 70,
        "time": 53.455,
        "duration": 0.45,
        "velocity": 0.62,
        "hand": "right"
      },
      {
        "midi": 78,
        "time": 54.273,
        "duration": 2.4,
        "velocity": 0.88,
        "hand": "right"
      },
      {
        "midi": 74,
        "time": 55.091,
        "duration": 0.45,
        "velocity": 0.81,
        "hand": "right"
      },
      {
        "midi": 74,
        "time": 55.909,
        "duration": 0.45,
        "velocity": 0.81,
        "hand": "right"
      },
      {
        "midi": 58,
        "time": 56.591,
        "duration": 0.45,
        "velocity": 0.59,
        "hand": "right"
      },
      {
        "midi": 70,
        "time": 57.273,
        "duration": 0.45,
        "velocity": 0.71,
        "hand": "right"
      },
      {
        "midi": 60,
        "time": 57.955,
        "duration": 0.45,
        "velocity": 0.66,
        "hand": "right"
      },
      {
        "midi": 76,
        "time": 58.636,
        "duration": 0.45,
        "velocity": 0.74,
        "hand": "right"
      },
      {
        "midi": 55,
        "time": 59.318,
        "duration": 0.45,
        "velocity": 0.47,
        "hand": "right"
      },
      {
        "midi": 78,
        "time": 60,
        "duration": 2.167,
        "velocity": 0.67,
        "hand": "right"
      },
      {
        "midi": 72,
        "time": 60.682,
        "duration": 0.45,
        "velocity": 0.47,
        "hand": "right"
      },
      {
        "midi": 77,
        "time": 61.364,
        "duration": 0.45,
        "velocity": 0.72,
        "hand": "right"
      },
      {
        "midi": 78,
        "time": 62.182,
        "duration": 0.818,
        "velocity": 0.68,
        "hand": "right"
      },
      {
        "midi": 79,
        "time": 63,
        "duration": 0.545,
        "velocity": 0.57,
        "hand": "right"
      },
      {
        "midi": 55,
        "time": 63.682,
        "duration": 0.545,
        "velocity": 0.25,
        "hand": "right"
      },
      {
        "midi": 77,
        "time": 64.5,
        "duration": 0.45,
        "velocity": 0.71,
        "hand": "right"
      },
      {
        "midi": 77,
        "time": 65.182,
        "duration": 0.45,
        "velocity": 0.71,
        "hand": "right"
      },
      {
        "midi": 57,
        "time": 65.864,
        "duration": 0.682,
        "velocity": 0.65,
        "hand": "right"
      },
      {
        "midi": 83,
        "time": 66.682,
        "duration": 2.4,
        "velocity": 0.8,
        "hand": "right"
      },
      {
        "midi": 74,
        "time": 67.364,
        "duration": 0.545,
        "velocity": 0.92,
        "hand": "right"
      },
      {
        "midi": 60,
        "time": 68.182,
        "duration": 0.45,
        "velocity": 0.57,
        "hand": "right"
      },
      {
        "midi": 77,
        "time": 69,
        "duration": 0.45,
        "velocity": 0.61,
        "hand": "right"
      },
      {
        "midi": 69,
        "time": 69.818,
        "duration": 0.45,
        "velocity": 0.79,
        "hand": "right"
      },
      {
        "midi": 77,
        "time": 70.636,
        "duration": 0.545,
        "velocity": 0.86,
        "hand": "right"
      },
      {
        "midi": 74,
        "time": 71.318,
        "duration": 0.45,
        "velocity": 0.86,
        "hand": "right"
      },
      {
        "midi": 76,
        "time": 72.136,
        "duration": 0.45,
        "velocity": 0.59,
        "hand": "right"
      },
      {
        "midi": 76,
        "time": 72.818,
        "duration": 0.545,
        "velocity": 0.68,
        "hand": "right"
      },
      {
        "midi": 60,
        "time": 73.5,
        "duration": 0.545,
        "velocity": 0.69,
        "hand": "right"
      },
      {
        "midi": 72,
        "time": 74.182,
        "duration": 0.45,
        "velocity": 0.66,
        "hand": "right"
      },
      {
        "midi": 69,
        "time": 74.864,
        "duration": 0.545,
        "velocity": 0.65,
        "hand": "right"
      },
      {
        "midi": 74,
        "time": 75.545,
        "duration": 0.45,
        "velocity": 0.71,
        "hand": "right"
      },
      {
        "midi": 79,
        "time": 76.364,
        "duration": 0.45,
        "velocity": 0.46,
        "hand": "right"
      },
      {
        "midi": 72,
        "time": 77.045,
        "duration": 0.45,
        "velocity": 0.81,
        "hand": "right"
      },
      {
        "midi": 77,
        "time": 77.727,
        "duration": 0.45,
        "velocity": 0.68,
        "hand": "right"
      },
      {
        "midi": 78,
        "time": 78.409,
        "duration": 1.227,
        "velocity": 0.38,
        "hand": "right"
      },
      {
        "midi": 70,
        "time": 79.091,
        "duration": 0.45,
        "velocity": 0.66,
        "hand": "right"
      },
      {
        "midi": 78,
        "time": 79.773,
        "duration": 2.167,
        "velocity": 0.81,
        "hand": "right"
      },
      {
        "midi": 74,
        "time": 80.455,
        "duration": 0.545,
        "velocity": 0.83,
        "hand": "right"
      },
      {
        "midi": 72,
        "time": 81.273,
        "duration": 0.45,
        "velocity": 0.86,
        "hand": "right"
      },
      {
        "midi": 78,
        "time": 81.955,
        "duration": 2.045,
        "velocity": 0.7,
        "hand": "right"
      },
      {
        "midi": 77,
        "time": 82.636,
        "duration": 0.545,
        "velocity": 0.72,
        "hand": "right"
      },
      {
        "midi": 70,
        "time": 83.455,
        "duration": 0.45,
        "velocity": 0.47,
        "hand": "right"
      },
      {
        "midi": 78,
        "time": 84.136,
        "duration": 2.4,
        "velocity": 0.84,
        "hand": "right"
      },
      {
        "midi": 70,
        "time": 84.818,
        "duration": 0.45,
        "velocity": 0.62,
        "hand": "right"
      },
      {
        "midi": 55,
        "time": 85.5,
        "duration": 0.545,
        "velocity": 0.65,
        "hand": "right"
      },
      {
        "midi": 72,
        "time": 86.182,
        "duration": 0.45,
        "velocity": 0.08,
        "hand": "right"
      },
      {
        "midi": 77,
        "time": 87,
        "duration": 0.45,
        "velocity": 0.72,
        "hand": "right"
      },
      {
        "midi": 77,
        "time": 88.091,
        "duration": 0.45,
        "velocity": 0.68,
        "hand": "right"
      }
    ],
    "medium": [
      {
        "midi": 72,
        "time": 0,
        "duration": 0.262,
        "velocity": 0.71,
        "hand": "right"
      },
      {
        "midi": 83,
        "time": 0,
        "duration": 3.5,
        "velocity": 0.91,
        "hand": "right"
      },
      {
        "midi": 69,
        "time": 0.818,
        "duration": 0.262,
        "velocity": 0.65,
        "hand": "right"
      },
      {
        "midi": 77,
        "time": 0.818,
        "duration": 0.262,
        "velocity": 0.71,
        "hand": "right"
      },
      {
        "midi": 60,
        "time": 1.636,
        "duration": 0.273,
        "velocity": 0.57,
        "hand": "right"
      },
      {
        "midi": 77,
        "time": 2.455,
        "duration": 0.262,
        "velocity": 0.69,
        "hand": "right"
      },
      {
        "midi": 69,
        "time": 3.273,
        "duration": 0.273,
        "velocity": 0.42,
        "hand": "right"
      },
      {
        "midi": 72,
        "time": 3.273,
        "duration": 0.273,
        "velocity": 0.34,
        "hand": "right"
      },
      {
        "midi": 70,
        "time": 4.091,
        "duration": 0.262,
        "velocity": 0.23,
        "hand": "right"
      },
      {
        "midi": 77,
        "time": 4.091,
        "duration": 0.955,
        "velocity": 0.49,
        "hand": "right"
      },
      {
        "midi": 70,
        "time": 4.909,
        "duration": 0.262,
        "velocity": 0.57,
        "hand": "right"
      },
      {
        "midi": 76,
        "time": 5.727,
        "duration": 0.273,
        "velocity": 0.5,
        "hand": "right"
      },
      {
        "midi": 64,
        "time": 6.545,
        "duration": 0.273,
        "velocity": 0.43,
        "hand": "right"
      },
      {
        "midi": 74,
        "time": 6.545,
        "duration": 0.273,
        "velocity": 0.63,
        "hand": "right"
      },
      {
        "midi": 70,
        "time": 7.364,
        "duration": 0.262,
        "velocity": 0.35,
        "hand": "right"
      },
      {
        "midi": 76,
        "time": 7.364,
        "duration": 0.545,
        "velocity": 0.62,
        "hand": "right"
      },
      {
        "midi": 60,
        "time": 8.045,
        "duration": 0.409,
        "velocity": 0.62,
        "hand": "right"
      },
      {
        "midi": 69,
        "time": 8.727,
        "duration": 0.262,
        "velocity": 0.46,
        "hand": "right"
      },
      {
        "midi": 72,
        "time": 8.727,
        "duration": 0.262,
        "velocity": 0.79,
        "hand": "right"
      },
      {
        "midi": 69,
        "time": 9.545,
        "duration": 0.531,
        "velocity": 0.59,
        "hand": "right"
      },
      {
        "midi": 77,
        "time": 9.545,
        "duration": 0.262,
        "velocity": 0.68,
        "hand": "right"
      },
      {
        "midi": 60,
        "time": 10.364,
        "duration": 0.273,
        "velocity": 0.39,
        "hand": "right"
      },
      {
        "midi": 78,
        "time": 11.045,
        "duration": 3.273,
        "velocity": 0.95,
        "hand": "right"
      },
      {
        "midi": 77,
        "time": 11.727,
        "duration": 0.262,
        "velocity": 0.41,
        "hand": "right"
      },
      {
        "midi": 58,
        "time": 12.409,
        "duration": 0.682,
        "velocity": 0.46,
        "hand": "left"
      },
      {
        "midi": 70,
        "time": 13.091,
        "duration": 0.262,
        "velocity": 0.76,
        "hand": "right"
      },
      {
        "midi": 67,
        "time": 13.909,
        "duration": 0.262,
        "velocity": 0.59,
        "hand": "right"
      },
      {
        "midi": 74,
        "time": 13.909,
        "duration": 0.262,
        "velocity": 0.76,
        "hand": "right"
      },
      {
        "midi": 55,
        "time": 14.727,
        "duration": 0.409,
        "velocity": 0.55,
        "hand": "left"
      },
      {
        "midi": 76,
        "time": 15.545,
        "duration": 0.273,
        "velocity": 0.54,
        "hand": "right"
      },
      {
        "midi": 60,
        "time": 16.364,
        "duration": 0.262,
        "velocity": 0.34,
        "hand": "right"
      },
      {
        "midi": 74,
        "time": 16.364,
        "duration": 0.273,
        "velocity": 0.81,
        "hand": "right"
      },
      {
        "midi": 65,
        "time": 17.182,
        "duration": 0.409,
        "velocity": 0.43,
        "hand": "right"
      },
      {
        "midi": 77,
        "time": 17.182,
        "duration": 0.262,
        "velocity": 0.72,
        "hand": "right"
      },
      {
        "midi": 60,
        "time": 18,
        "duration": 0.273,
        "velocity": 0.69,
        "hand": "right"
      },
      {
        "midi": 55,
        "time": 18.682,
        "duration": 0.262,
        "velocity": 0.66,
        "hand": "left"
      },
      {
        "midi": 70,
        "time": 19.364,
        "duration": 0.262,
        "velocity": 0.68,
        "hand": "right"
      },
      {
        "midi": 74,
        "time": 19.364,
        "duration": 0.262,
        "velocity": 0.76,
        "hand": "right"
      },
      {
        "midi": 67,
        "time": 20.182,
        "duration": 0.273,
        "velocity": 0.59,
        "hand": "right"
      },
      {
        "midi": 77,
        "time": 21,
        "duration": 0.273,
        "velocity": 0.71,
        "hand": "right"
      },
      {
        "midi": 65,
        "time": 21.818,
        "duration": 0.262,
        "velocity": 0.69,
        "hand": "right"
      },
      {
        "midi": 76,
        "time": 21.818,
        "duration": 0.409,
        "velocity": 0.55,
        "hand": "right"
      },
      {
        "midi": 62,
        "time": 22.636,
        "duration": 0.262,
        "velocity": 0.21,
        "hand": "right"
      },
      {
        "midi": 74,
        "time": 22.636,
        "duration": 0.531,
        "velocity": 0.74,
        "hand": "right"
      },
      {
        "midi": 62,
        "time": 23.455,
        "duration": 0.262,
        "velocity": 0.47,
        "hand": "right"
      },
      {
        "midi": 70,
        "time": 23.455,
        "duration": 0.262,
        "velocity": 0.66,
        "hand": "right"
      },
      {
        "midi": 70,
        "time": 24.273,
        "duration": 0.409,
        "velocity": 0.41,
        "hand": "right"
      },
      {
        "midi": 52,
        "time": 25.091,
        "duration": 0.262,
        "velocity": 0.69,
        "hand": "left"
      },
      {
        "midi": 65,
        "time": 25.909,
        "duration": 0.409,
        "velocity": 0.81,
        "hand": "right"
      },
      {
        "midi": 77,
        "time": 25.909,
        "duration": 0.262,
        "velocity": 0.72,
        "hand": "right"
      },
      {
        "midi": 60,
        "time": 26.727,
        "duration": 0.545,
        "velocity": 0.45,
        "hand": "right"
      },
      {
        "midi": 76,
        "time": 27.545,
        "duration": 0.273,
        "velocity": 0.68,
        "hand": "right"
      },
      {
        "midi": 67,
        "time": 28.227,
        "duration": 0.262,
        "velocity": 0.59,
        "hand": "right"
      },
      {
        "midi": 67,
        "time": 29.045,
        "duration": 0.262,
        "velocity": 0.43,
        "hand": "right"
      },
      {
        "midi": 76,
        "time": 29.045,
        "duration": 0.262,
        "velocity": 0.54,
        "hand": "right"
      },
      {
        "midi": 74,
        "time": 29.727,
        "duration": 0.273,
        "velocity": 0.89,
        "hand": "right"
      },
      {
        "midi": 65,
        "time": 30.545,
        "duration": 0.262,
        "velocity": 0.72,
        "hand": "right"
      },
      {
        "midi": 72,
        "time": 30.545,
        "duration": 0.262,
        "velocity": 0.62,
        "hand": "right"
      },
      {
        "midi": 65,
        "time": 31.227,
        "duration": 0.545,
        "velocity": 0.63,
        "hand": "right"
      },
      {
        "midi": 74,
        "time": 31.909,
        "duration": 0.409,
        "velocity": 0.61,
        "hand": "right"
      },
      {
        "midi": 62,
        "time": 32.591,
        "duration": 0.262,
        "velocity": 0.17,
        "hand": "right"
      },
      {
        "midi": 67,
        "time": 33.273,
        "duration": 0.262,
        "velocity": 0.79,
        "hand": "right"
      },
      {
        "midi": 83,
        "time": 33.955,
        "duration": 3.5,
        "velocity": 0.74,
        "hand": "right"
      },
      {
        "midi": 57,
        "time": 34.773,
        "duration": 0.262,
        "velocity": 0.15,
        "hand": "left"
      },
      {
        "midi": 72,
        "time": 34.773,
        "duration": 0.262,
        "velocity": 0.72,
        "hand": "right"
      },
      {
        "midi": 70,
        "time": 35.455,
        "duration": 0.262,
        "velocity": 0.39,
        "hand": "right"
      },
      {
        "midi": 78,
        "time": 36.136,
        "duration": 3.136,
        "velocity": 0.64,
        "hand": "right"
      },
      {
        "midi": 67,
        "time": 36.818,
        "duration": 0.273,
        "velocity": 0.3,
        "hand": "right"
      },
      {
        "midi": 74,
        "time": 36.818,
        "duration": 0.682,
        "velocity": 0.68,
        "hand": "right"
      },
      {
        "midi": 72,
        "time": 37.636,
        "duration": 0.262,
        "velocity": 0.92,
        "hand": "right"
      },
      {
        "midi": 53,
        "time": 38.318,
        "duration": 0.262,
        "velocity": 0.57,
        "hand": "left"
      },
      {
        "midi": 69,
        "time": 38.318,
        "duration": 0.262,
        "velocity": 0.46,
        "hand": "right"
      },
      {
        "midi": 69,
        "time": 39,
        "duration": 0.53,
        "velocity": 0.71,
        "hand": "right"
      },
      {
        "midi": 77,
        "time": 39,
        "duration": 0.545,
        "velocity": 0.43,
        "hand": "right"
      },
      {
        "midi": 70,
        "time": 39.682,
        "duration": 0.262,
        "velocity": 0.39,
        "hand": "right"
      },
      {
        "midi": 69,
        "time": 40.364,
        "duration": 0.273,
        "velocity": 0.79,
        "hand": "right"
      },
      {
        "midi": 67,
        "time": 41.045,
        "duration": 0.262,
        "velocity": 0.46,
        "hand": "right"
      },
      {
        "midi": 74,
        "time": 41.045,
        "duration": 0.262,
        "velocity": 0.45,
        "hand": "right"
      },
      {
        "midi": 72,
        "time": 41.727,
        "duration": 0.273,
        "velocity": 0.89,
        "hand": "right"
      },
      {
        "midi": 52,
        "time": 42.545,
        "duration": 0.262,
        "velocity": 0.66,
        "hand": "left"
      },
      {
        "midi": 67,
        "time": 42.545,
        "duration": 0.273,
        "velocity": 0.68,
        "hand": "right"
      },
      {
        "midi": 65,
        "time": 43.227,
        "duration": 0.409,
        "velocity": 0.41,
        "hand": "right"
      },
      {
        "midi": 72,
        "time": 43.227,
        "duration": 0.262,
        "velocity": 0.45,
        "hand": "right"
      },
      {
        "midi": 72,
        "time": 43.909,
        "duration": 0.262,
        "velocity": 0.79,
        "hand": "right"
      },
      {
        "midi": 70,
        "time": 44.727,
        "duration": 0.273,
        "velocity": 0.68,
        "hand": "right"
      },
      {
        "midi": 72,
        "time": 44.727,
        "duration": 0.262,
        "velocity": 0.49,
        "hand": "right"
      },
      {
        "midi": 65,
        "time": 45.545,
        "duration": 0.273,
        "velocity": 0.39,
        "hand": "right"
      },
      {
        "midi": 77,
        "time": 45.545,
        "duration": 0.273,
        "velocity": 0.74,
        "hand": "right"
      },
      {
        "midi": 53,
        "time": 46.227,
        "duration": 0.682,
        "velocity": 0.35,
        "hand": "left"
      },
      {
        "midi": 62,
        "time": 46.909,
        "duration": 0.262,
        "velocity": 0.31,
        "hand": "right"
      },
      {
        "midi": 72,
        "time": 46.909,
        "duration": 0.273,
        "velocity": 0.76,
        "hand": "right"
      },
      {
        "midi": 62,
        "time": 47.591,
        "duration": 0.409,
        "velocity": 0.08,
        "hand": "right"
      },
      {
        "midi": 74,
        "time": 48.273,
        "duration": 0.273,
        "velocity": 0.79,
        "hand": "right"
      },
      {
        "midi": 79,
        "time": 49.091,
        "duration": 0.273,
        "velocity": 0.41,
        "hand": "right"
      },
      {
        "midi": 52,
        "time": 49.773,
        "duration": 0.262,
        "velocity": 0.08,
        "hand": "left"
      },
      {
        "midi": 76,
        "time": 50.455,
        "duration": 0.273,
        "velocity": 0.59,
        "hand": "right"
      },
      {
        "midi": 60,
        "time": 51.136,
        "duration": 0.262,
        "velocity": 0.34,
        "hand": "right"
      },
      {
        "midi": 60,
        "time": 51.818,
        "duration": 0.273,
        "velocity": 0.65,
        "hand": "right"
      },
      {
        "midi": 77,
        "time": 52.636,
        "duration": 0.262,
        "velocity": 0.61,
        "hand": "right"
      },
      {
        "midi": 60,
        "time": 53.455,
        "duration": 0.262,
        "velocity": 0.72,
        "hand": "right"
      },
      {
        "midi": 70,
        "time": 53.455,
        "duration": 0.273,
        "velocity": 0.62,
        "hand": "right"
      },
      {
        "midi": 69,
        "time": 54.273,
        "duration": 0.53,
        "velocity": 0.63,
        "hand": "right"
      },
      {
        "midi": 78,
        "time": 54.273,
        "duration": 2.455,
        "velocity": 0.88,
        "hand": "right"
      },
      {
        "midi": 74,
        "time": 55.091,
        "duration": 0.262,
        "velocity": 0.81,
        "hand": "right"
      },
      {
        "midi": 74,
        "time": 55.909,
        "duration": 0.394,
        "velocity": 0.81,
        "hand": "right"
      },
      {
        "midi": 58,
        "time": 56.591,
        "duration": 0.262,
        "velocity": 0.59,
        "hand": "left"
      },
      {
        "midi": 62,
        "time": 57.273,
        "duration": 0.409,
        "velocity": 0.54,
        "hand": "right"
      },
      {
        "midi": 70,
        "time": 57.273,
        "duration": 0.262,
        "velocity": 0.71,
        "hand": "right"
      },
      {
        "midi": 48,
        "time": 57.955,
        "duration": 0.262,
        "velocity": 0.66,
        "hand": "left"
      },
      {
        "midi": 70,
        "time": 58.636,
        "duration": 0.262,
        "velocity": 0.55,
        "hand": "right"
      },
      {
        "midi": 76,
        "time": 58.636,
        "duration": 0.273,
        "velocity": 0.74,
        "hand": "right"
      },
      {
        "midi": 55,
        "time": 59.318,
        "duration": 0.273,
        "velocity": 0.47,
        "hand": "left"
      },
      {
        "midi": 74,
        "time": 60,
        "duration": 0.273,
        "velocity": 0.86,
        "hand": "right"
      },
      {
        "midi": 78,
        "time": 60,
        "duration": 2.167,
        "velocity": 0.67,
        "hand": "right"
      },
      {
        "midi": 65,
        "time": 60.682,
        "duration": 0.409,
        "velocity": 0.5,
        "hand": "right"
      },
      {
        "midi": 72,
        "time": 60.682,
        "duration": 0.262,
        "velocity": 0.47,
        "hand": "right"
      },
      {
        "midi": 77,
        "time": 61.364,
        "duration": 0.273,
        "velocity": 0.72,
        "hand": "right"
      },
      {
        "midi": 78,
        "time": 62.182,
        "duration": 0.818,
        "velocity": 0.68,
        "hand": "right"
      },
      {
        "midi": 70,
        "time": 63,
        "duration": 0.262,
        "velocity": 0.62,
        "hand": "right"
      },
      {
        "midi": 79,
        "time": 63,
        "duration": 0.545,
        "velocity": 0.57,
        "hand": "right"
      },
      {
        "midi": 55,
        "time": 63.682,
        "duration": 0.545,
        "velocity": 0.25,
        "hand": "left"
      },
      {
        "midi": 77,
        "time": 64.5,
        "duration": 0.273,
        "velocity": 0.71,
        "hand": "right"
      },
      {
        "midi": 69,
        "time": 65.182,
        "duration": 0.262,
        "velocity": 0.59,
        "hand": "right"
      },
      {
        "midi": 77,
        "time": 65.182,
        "duration": 0.262,
        "velocity": 0.71,
        "hand": "right"
      },
      {
        "midi": 53,
        "time": 65.864,
        "duration": 0.545,
        "velocity": 0.27,
        "hand": "left"
      },
      {
        "midi": 57,
        "time": 65.864,
        "duration": 0.682,
        "velocity": 0.65,
        "hand": "left"
      },
      {
        "midi": 83,
        "time": 66.682,
        "duration": 3.5,
        "velocity": 0.8,
        "hand": "right"
      },
      {
        "midi": 62,
        "time": 67.364,
        "duration": 0.409,
        "velocity": 0.47,
        "hand": "right"
      },
      {
        "midi": 74,
        "time": 67.364,
        "duration": 0.545,
        "velocity": 0.92,
        "hand": "right"
      },
      {
        "midi": 52,
        "time": 68.182,
        "duration": 0.409,
        "velocity": 0.08,
        "hand": "left"
      },
      {
        "midi": 60,
        "time": 68.182,
        "duration": 0.262,
        "velocity": 0.57,
        "hand": "right"
      },
      {
        "midi": 77,
        "time": 69,
        "duration": 0.262,
        "velocity": 0.61,
        "hand": "right"
      },
      {
        "midi": 65,
        "time": 69.818,
        "duration": 0.262,
        "velocity": 0.39,
        "hand": "right"
      },
      {
        "midi": 69,
        "time": 69.818,
        "duration": 0.262,
        "velocity": 0.79,
        "hand": "right"
      },
      {
        "midi": 69,
        "time": 70.636,
        "duration": 0.682,
        "velocity": 0.72,
        "hand": "right"
      },
      {
        "midi": 77,
        "time": 70.636,
        "duration": 0.545,
        "velocity": 0.86,
        "hand": "right"
      },
      {
        "midi": 62,
        "time": 71.318,
        "duration": 0.409,
        "velocity": 0.52,
        "hand": "right"
      },
      {
        "midi": 74,
        "time": 71.318,
        "duration": 0.262,
        "velocity": 0.86,
        "hand": "right"
      },
      {
        "midi": 76,
        "time": 72.136,
        "duration": 0.273,
        "velocity": 0.59,
        "hand": "right"
      },
      {
        "midi": 76,
        "time": 72.818,
        "duration": 0.545,
        "velocity": 0.68,
        "hand": "right"
      },
      {
        "midi": 60,
        "time": 73.5,
        "duration": 0.545,
        "velocity": 0.69,
        "hand": "right"
      },
      {
        "midi": 65,
        "time": 74.182,
        "duration": 0.262,
        "velocity": 0.74,
        "hand": "right"
      },
      {
        "midi": 72,
        "time": 74.182,
        "duration": 0.262,
        "velocity": 0.66,
        "hand": "right"
      },
      {
        "midi": 65,
        "time": 74.864,
        "duration": 0.262,
        "velocity": 0.55,
        "hand": "right"
      },
      {
        "midi": 69,
        "time": 74.864,
        "duration": 0.545,
        "velocity": 0.65,
        "hand": "right"
      },
      {
        "midi": 74,
        "time": 75.545,
        "duration": 0.273,
        "velocity": 0.71,
        "hand": "right"
      },
      {
        "midi": 70,
        "time": 76.364,
        "duration": 0.262,
        "velocity": 0.76,
        "hand": "right"
      },
      {
        "midi": 79,
        "time": 76.364,
        "duration": 0.273,
        "velocity": 0.46,
        "hand": "right"
      },
      {
        "midi": 72,
        "time": 77.045,
        "duration": 0.273,
        "velocity": 0.81,
        "hand": "right"
      },
      {
        "midi": 77,
        "time": 77.727,
        "duration": 0.273,
        "velocity": 0.68,
        "hand": "right"
      },
      {
        "midi": 78,
        "time": 78.409,
        "duration": 1.227,
        "velocity": 0.38,
        "hand": "right"
      },
      {
        "midi": 65,
        "time": 79.091,
        "duration": 0.262,
        "velocity": 0.57,
        "hand": "right"
      },
      {
        "midi": 70,
        "time": 79.091,
        "duration": 0.262,
        "velocity": 0.66,
        "hand": "right"
      },
      {
        "midi": 78,
        "time": 79.773,
        "duration": 2.167,
        "velocity": 0.81,
        "hand": "right"
      },
      {
        "midi": 70,
        "time": 80.455,
        "duration": 0.262,
        "velocity": 0.65,
        "hand": "right"
      },
      {
        "midi": 74,
        "time": 80.455,
        "duration": 0.545,
        "velocity": 0.83,
        "hand": "right"
      },
      {
        "midi": 72,
        "time": 81.273,
        "duration": 0.262,
        "velocity": 0.86,
        "hand": "right"
      },
      {
        "midi": 78,
        "time": 81.955,
        "duration": 2.045,
        "velocity": 0.7,
        "hand": "right"
      },
      {
        "midi": 69,
        "time": 82.636,
        "duration": 0.531,
        "velocity": 0.69,
        "hand": "right"
      },
      {
        "midi": 77,
        "time": 82.636,
        "duration": 0.545,
        "velocity": 0.72,
        "hand": "right"
      },
      {
        "midi": 70,
        "time": 83.455,
        "duration": 0.262,
        "velocity": 0.47,
        "hand": "right"
      },
      {
        "midi": 78,
        "time": 84.136,
        "duration": 3.136,
        "velocity": 0.84,
        "hand": "right"
      },
      {
        "midi": 70,
        "time": 84.818,
        "duration": 0.394,
        "velocity": 0.62,
        "hand": "right"
      },
      {
        "midi": 55,
        "time": 85.5,
        "duration": 0.545,
        "velocity": 0.65,
        "hand": "left"
      },
      {
        "midi": 67,
        "time": 86.182,
        "duration": 0.273,
        "velocity": 0.09,
        "hand": "right"
      },
      {
        "midi": 72,
        "time": 86.182,
        "duration": 0.262,
        "velocity": 0.08,
        "hand": "right"
      },
      {
        "midi": 65,
        "time": 87,
        "duration": 0.409,
        "velocity": 0.68,
        "hand": "right"
      },
      {
        "midi": 77,
        "time": 87,
        "duration": 0.262,
        "velocity": 0.72,
        "hand": "right"
      },
      {
        "midi": 74,
        "time": 88.091,
        "duration": 0.262,
        "velocity": 0.59,
        "hand": "right"
      },
      {
        "midi": 77,
        "time": 88.091,
        "duration": 0.262,
        "velocity": 0.68,
        "hand": "right"
      }
    ],
    "hard": [
      {
        "midi": 72,
        "time": 0,
        "duration": 0.136,
        "velocity": 0.71,
        "hand": "right"
      },
      {
        "midi": 78,
        "time": 0,
        "duration": 1.227,
        "velocity": 0.43,
        "hand": "right"
      },
      {
        "midi": 83,
        "time": 0,
        "duration": 7.758,
        "velocity": 0.91,
        "hand": "right"
      },
      {
        "midi": 53,
        "time": 0.273,
        "duration": 0.682,
        "velocity": 0.33,
        "hand": "left"
      },
      {
        "midi": 57,
        "time": 0.273,
        "duration": 0.682,
        "velocity": 0.57,
        "hand": "left"
      },
      {
        "midi": 65,
        "time": 0.273,
        "duration": 0.682,
        "velocity": 0.27,
        "hand": "right"
      },
      {
        "midi": 69,
        "time": 0.273,
        "duration": 0.273,
        "velocity": 0.51,
        "hand": "right"
      },
      {
        "midi": 72,
        "time": 0.273,
        "duration": 0.136,
        "velocity": 0.63,
        "hand": "right"
      },
      {
        "midi": 77,
        "time": 0.273,
        "duration": 0.136,
        "velocity": 0.74,
        "hand": "right"
      },
      {
        "midi": 72,
        "time": 0.545,
        "duration": 0.136,
        "velocity": 0.86,
        "hand": "right"
      },
      {
        "midi": 69,
        "time": 0.818,
        "duration": 0.136,
        "velocity": 0.65,
        "hand": "right"
      },
      {
        "midi": 72,
        "time": 0.818,
        "duration": 0.273,
        "velocity": 0.86,
        "hand": "right"
      },
      {
        "midi": 77,
        "time": 0.818,
        "duration": 0.068,
        "velocity": 0.71,
        "hand": "right"
      },
      {
        "midi": 70,
        "time": 1.091,
        "duration": 0.273,
        "velocity": 0.69,
        "hand": "right"
      },
      {
        "midi": 41,
        "time": 1.364,
        "duration": 0.818,
        "velocity": 0.62,
        "hand": "left"
      },
      {
        "midi": 53,
        "time": 1.364,
        "duration": 0.955,
        "velocity": 0.55,
        "hand": "left"
      },
      {
        "midi": 69,
        "time": 1.364,
        "duration": 0.273,
        "velocity": 0.46,
        "hand": "right"
      },
      {
        "midi": 72,
        "time": 1.364,
        "duration": 0.136,
        "velocity": 0.61,
        "hand": "right"
      },
      {
        "midi": 78,
        "time": 1.364,
        "duration": 2.985,
        "velocity": 0.65,
        "hand": "right"
      },
      {
        "midi": 60,
        "time": 1.636,
        "duration": 0.273,
        "velocity": 0.57,
        "hand": "right"
      },
      {
        "midi": 65,
        "time": 1.909,
        "duration": 0.409,
        "velocity": 0.68,
        "hand": "right"
      },
      {
        "midi": 69,
        "time": 1.909,
        "duration": 0.258,
        "velocity": 0.61,
        "hand": "right"
      },
      {
        "midi": 72,
        "time": 1.909,
        "duration": 0.068,
        "velocity": 0.59,
        "hand": "right"
      },
      {
        "midi": 77,
        "time": 1.909,
        "duration": 0.273,
        "velocity": 0.76,
        "hand": "right"
      },
      {
        "midi": 69,
        "time": 2.182,
        "duration": 0.258,
        "velocity": 0.43,
        "hand": "right"
      },
      {
        "midi": 76,
        "time": 2.182,
        "duration": 0.273,
        "velocity": 0.62,
        "hand": "right"
      },
      {
        "midi": 38,
        "time": 2.455,
        "duration": 0.955,
        "velocity": 0.52,
        "hand": "left"
      },
      {
        "midi": 53,
        "time": 2.455,
        "duration": 0.682,
        "velocity": 0.33,
        "hand": "left"
      },
      {
        "midi": 69,
        "time": 2.455,
        "duration": 0.136,
        "velocity": 0.51,
        "hand": "right"
      },
      {
        "midi": 72,
        "time": 2.455,
        "duration": 0.068,
        "velocity": 0.38,
        "hand": "right"
      },
      {
        "midi": 74,
        "time": 2.455,
        "duration": 0.136,
        "velocity": 0.79,
        "hand": "right"
      },
      {
        "midi": 77,
        "time": 2.455,
        "duration": 0.068,
        "velocity": 0.69,
        "hand": "right"
      },
      {
        "midi": 60,
        "time": 2.727,
        "duration": 0.545,
        "velocity": 0.52,
        "hand": "right"
      },
      {
        "midi": 74,
        "time": 2.727,
        "duration": 0.136,
        "velocity": 0.83,
        "hand": "right"
      },
      {
        "midi": 69,
        "time": 3,
        "duration": 0.136,
        "velocity": 0.51,
        "hand": "right"
      },
      {
        "midi": 72,
        "time": 3,
        "duration": 0.068,
        "velocity": 0.65,
        "hand": "right"
      },
      {
        "midi": 74,
        "time": 3,
        "duration": 0.273,
        "velocity": 0.81,
        "hand": "right"
      },
      {
        "midi": 77,
        "time": 3,
        "duration": 0.136,
        "velocity": 0.74,
        "hand": "right"
      },
      {
        "midi": 69,
        "time": 3.273,
        "duration": 0.273,
        "velocity": 0.42,
        "hand": "right"
      },
      {
        "midi": 72,
        "time": 3.273,
        "duration": 0.273,
        "velocity": 0.34,
        "hand": "right"
      },
      {
        "midi": 43,
        "time": 3.545,
        "duration": 0.955,
        "velocity": 0.55,
        "hand": "left"
      },
      {
        "midi": 55,
        "time": 3.545,
        "duration": 0.682,
        "velocity": 0.17,
        "hand": "left"
      },
      {
        "midi": 62,
        "time": 3.545,
        "duration": 0.682,
        "velocity": 0.41,
        "hand": "right"
      },
      {
        "midi": 67,
        "time": 3.545,
        "duration": 0.682,
        "velocity": 0.15,
        "hand": "right"
      },
      {
        "midi": 70,
        "time": 3.545,
        "duration": 0.273,
        "velocity": 0.5,
        "hand": "right"
      },
      {
        "midi": 74,
        "time": 3.545,
        "duration": 0.531,
        "velocity": 0.86,
        "hand": "right"
      },
      {
        "midi": 65,
        "time": 3.818,
        "duration": 0.409,
        "velocity": 0.52,
        "hand": "right"
      },
      {
        "midi": 70,
        "time": 4.091,
        "duration": 0.258,
        "velocity": 0.23,
        "hand": "right"
      },
      {
        "midi": 74,
        "time": 4.091,
        "duration": 0.53,
        "velocity": 0.83,
        "hand": "right"
      },
      {
        "midi": 77,
        "time": 4.091,
        "duration": 0.955,
        "velocity": 0.49,
        "hand": "right"
      },
      {
        "midi": 62,
        "time": 4.364,
        "duration": 1.227,
        "velocity": 0.55,
        "hand": "right"
      },
      {
        "midi": 70,
        "time": 4.364,
        "duration": 0.136,
        "velocity": 0.74,
        "hand": "right"
      },
      {
        "midi": 78,
        "time": 4.364,
        "duration": 3.273,
        "velocity": 0.91,
        "hand": "right"
      },
      {
        "midi": 41,
        "time": 4.636,
        "duration": 0.818,
        "velocity": 0.69,
        "hand": "left"
      },
      {
        "midi": 53,
        "time": 4.636,
        "duration": 0.682,
        "velocity": 0.43,
        "hand": "left"
      },
      {
        "midi": 65,
        "time": 4.636,
        "duration": 0.531,
        "velocity": 0.55,
        "hand": "right"
      },
      {
        "midi": 70,
        "time": 4.636,
        "duration": 0.258,
        "velocity": 0.72,
        "hand": "right"
      },
      {
        "midi": 74,
        "time": 4.636,
        "duration": 0.273,
        "velocity": 0.76,
        "hand": "right"
      },
      {
        "midi": 70,
        "time": 4.909,
        "duration": 0.258,
        "velocity": 0.57,
        "hand": "right"
      },
      {
        "midi": 65,
        "time": 5.182,
        "duration": 0.409,
        "velocity": 0.49,
        "hand": "right"
      },
      {
        "midi": 70,
        "time": 5.182,
        "duration": 0.273,
        "velocity": 0.55,
        "hand": "right"
      },
      {
        "midi": 74,
        "time": 5.182,
        "duration": 0.136,
        "velocity": 0.79,
        "hand": "right"
      },
      {
        "midi": 69,
        "time": 5.318,
        "duration": 0.273,
        "velocity": 0.83,
        "hand": "right"
      },
      {
        "midi": 74,
        "time": 5.455,
        "duration": 0.273,
        "velocity": 0.52,
        "hand": "right"
      },
      {
        "midi": 77,
        "time": 5.455,
        "duration": 0.273,
        "velocity": 0.34,
        "hand": "right"
      },
      {
        "midi": 36,
        "time": 5.727,
        "duration": 0.818,
        "velocity": 0.54,
        "hand": "left"
      },
      {
        "midi": 48,
        "time": 5.727,
        "duration": 0.682,
        "velocity": 0.28,
        "hand": "left"
      },
      {
        "midi": 67,
        "time": 5.727,
        "duration": 0.258,
        "velocity": 0.74,
        "hand": "right"
      },
      {
        "midi": 70,
        "time": 5.727,
        "duration": 0.273,
        "velocity": 0.38,
        "hand": "right"
      },
      {
        "midi": 72,
        "time": 5.727,
        "duration": 0.273,
        "velocity": 0.4,
        "hand": "right"
      },
      {
        "midi": 76,
        "time": 5.727,
        "duration": 0.273,
        "velocity": 0.5,
        "hand": "right"
      },
      {
        "midi": 67,
        "time": 6,
        "duration": 0.409,
        "velocity": 0.65,
        "hand": "right"
      },
      {
        "midi": 70,
        "time": 6.273,
        "duration": 0.136,
        "velocity": 0.41,
        "hand": "right"
      },
      {
        "midi": 72,
        "time": 6.273,
        "duration": 0.273,
        "velocity": 0.62,
        "hand": "right"
      },
      {
        "midi": 76,
        "time": 6.273,
        "duration": 0.53,
        "velocity": 0.66,
        "hand": "right"
      },
      {
        "midi": 79,
        "time": 6.273,
        "duration": 0.955,
        "velocity": 0.35,
        "hand": "right"
      },
      {
        "midi": 64,
        "time": 6.545,
        "duration": 0.273,
        "velocity": 0.43,
        "hand": "right"
      },
      {
        "midi": 74,
        "time": 6.545,
        "duration": 0.273,
        "velocity": 0.63,
        "hand": "right"
      },
      {
        "midi": 36,
        "time": 6.818,
        "duration": 0.818,
        "velocity": 0.52,
        "hand": "left"
      },
      {
        "midi": 48,
        "time": 6.818,
        "duration": 0.682,
        "velocity": 0.18,
        "hand": "left"
      },
      {
        "midi": 70,
        "time": 6.818,
        "duration": 0.531,
        "velocity": 0.71,
        "hand": "right"
      },
      {
        "midi": 72,
        "time": 6.818,
        "duration": 0.258,
        "velocity": 0.79,
        "hand": "right"
      },
      {
        "midi": 76,
        "time": 6.818,
        "duration": 0.273,
        "velocity": 0.65,
        "hand": "right"
      },
      {
        "midi": 64,
        "time": 6.955,
        "duration": 0.409,
        "velocity": 0.66,
        "hand": "right"
      },
      {
        "midi": 72,
        "time": 7.091,
        "duration": 0.136,
        "velocity": 0.74,
        "hand": "right"
      },
      {
        "midi": 70,
        "time": 7.364,
        "duration": 0.136,
        "velocity": 0.35,
        "hand": "right"
      },
      {
        "midi": 72,
        "time": 7.364,
        "duration": 0.273,
        "velocity": 0.79,
        "hand": "right"
      },
      {
        "midi": 76,
        "time": 7.364,
        "duration": 0.545,
        "velocity": 0.62,
        "hand": "right"
      },
      {
        "midi": 74,
        "time": 7.636,
        "duration": 0.273,
        "velocity": 0.71,
        "hand": "right"
      },
      {
        "midi": 79,
        "time": 7.636,
        "duration": 0.273,
        "velocity": 0.62,
        "hand": "right"
      },
      {
        "midi": 41,
        "time": 7.773,
        "duration": 0.818,
        "velocity": 0.41,
        "hand": "left"
      },
      {
        "midi": 78,
        "time": 7.773,
        "duration": 3.257,
        "velocity": 0.8,
        "hand": "right"
      },
      {
        "midi": 83,
        "time": 7.773,
        "duration": 2.167,
        "velocity": 0.65,
        "hand": "right"
      },
      {
        "midi": 53,
        "time": 7.909,
        "duration": 0.682,
        "velocity": 0.19,
        "hand": "left"
      },
      {
        "midi": 57,
        "time": 7.909,
        "duration": 1.076,
        "velocity": 0.76,
        "hand": "left"
      },
      {
        "midi": 65,
        "time": 7.909,
        "duration": 0.394,
        "velocity": 0.24,
        "hand": "right"
      },
      {
        "midi": 69,
        "time": 7.909,
        "duration": 0.273,
        "velocity": 0.43,
        "hand": "right"
      },
      {
        "midi": 72,
        "time": 7.909,
        "duration": 0.531,
        "velocity": 0.79,
        "hand": "right"
      },
      {
        "midi": 77,
        "time": 7.909,
        "duration": 0.273,
        "velocity": 0.65,
        "hand": "right"
      },
      {
        "midi": 60,
        "time": 8.045,
        "duration": 0.409,
        "velocity": 0.62,
        "hand": "right"
      },
      {
        "midi": 65,
        "time": 8.318,
        "duration": 0.667,
        "velocity": 0.65,
        "hand": "right"
      },
      {
        "midi": 69,
        "time": 8.455,
        "duration": 0.136,
        "velocity": 0.43,
        "hand": "right"
      },
      {
        "midi": 72,
        "time": 8.455,
        "duration": 0.068,
        "velocity": 0.68,
        "hand": "right"
      },
      {
        "midi": 77,
        "time": 8.455,
        "duration": 0.068,
        "velocity": 0.71,
        "hand": "right"
      },
      {
        "midi": 69,
        "time": 8.727,
        "duration": 0.258,
        "velocity": 0.46,
        "hand": "right"
      },
      {
        "midi": 72,
        "time": 8.727,
        "duration": 0.136,
        "velocity": 0.79,
        "hand": "right"
      },
      {
        "midi": 41,
        "time": 9,
        "duration": 0.818,
        "velocity": 0.5,
        "hand": "left"
      },
      {
        "midi": 53,
        "time": 9,
        "duration": 0.682,
        "velocity": 0.19,
        "hand": "left"
      },
      {
        "midi": 65,
        "time": 9,
        "duration": 0.258,
        "velocity": 0.2,
        "hand": "right"
      },
      {
        "midi": 69,
        "time": 9,
        "duration": 0.136,
        "velocity": 0.46,
        "hand": "right"
      },
      {
        "midi": 72,
        "time": 9,
        "duration": 0.258,
        "velocity": 0.71,
        "hand": "right"
      },
      {
        "midi": 77,
        "time": 9,
        "duration": 0.136,
        "velocity": 0.69,
        "hand": "right"
      },
      {
        "midi": 65,
        "time": 9.273,
        "duration": 0.682,
        "velocity": 0.54,
        "hand": "right"
      },
      {
        "midi": 72,
        "time": 9.273,
        "duration": 0.136,
        "velocity": 0.83,
        "hand": "right"
      },
      {
        "midi": 69,
        "time": 9.545,
        "duration": 0.531,
        "velocity": 0.59,
        "hand": "right"
      },
      {
        "midi": 72,
        "time": 9.545,
        "duration": 0.258,
        "velocity": 0.81,
        "hand": "right"
      },
      {
        "midi": 77,
        "time": 9.545,
        "duration": 0.068,
        "velocity": 0.68,
        "hand": "right"
      },
      {
        "midi": 70,
        "time": 9.818,
        "duration": 0.273,
        "velocity": 0.62,
        "hand": "right"
      },
      {
        "midi": 72,
        "time": 9.818,
        "duration": 0.258,
        "velocity": 0.66,
        "hand": "right"
      },
      {
        "midi": 83,
        "time": 9.955,
        "duration": 10,
        "velocity": 0.9,
        "hand": "right"
      },
      {
        "midi": 41,
        "time": 10.091,
        "duration": 0.818,
        "velocity": 0.5,
        "hand": "left"
      },
      {
        "midi": 53,
        "time": 10.091,
        "duration": 0.955,
        "velocity": 0.66,
        "hand": "left"
      },
      {
        "midi": 65,
        "time": 10.091,
        "duration": 0.53,
        "velocity": 0.21,
        "hand": "right"
      },
      {
        "midi": 69,
        "time": 10.091,
        "duration": 0.409,
        "velocity": 0.76,
        "hand": "right"
      },
      {
        "midi": 72,
        "time": 10.091,
        "duration": 0.273,
        "velocity": 0.63,
        "hand": "right"
      },
      {
        "midi": 77,
        "time": 10.091,
        "duration": 0.273,
        "velocity": 0.59,
        "hand": "right"
      },
      {
        "midi": 60,
        "time": 10.364,
        "duration": 0.273,
        "velocity": 0.39,
        "hand": "right"
      },
      {
        "midi": 65,
        "time": 10.636,
        "duration": 0.273,
        "velocity": 0.49,
        "hand": "right"
      },
      {
        "midi": 69,
        "time": 10.636,
        "duration": 0.531,
        "velocity": 0.44,
        "hand": "right"
      },
      {
        "midi": 72,
        "time": 10.636,
        "duration": 0.068,
        "velocity": 0.72,
        "hand": "right"
      },
      {
        "midi": 77,
        "time": 10.636,
        "duration": 0.273,
        "velocity": 0.74,
        "hand": "right"
      },
      {
        "midi": 60,
        "time": 10.773,
        "duration": 0.136,
        "velocity": 0.13,
        "hand": "right"
      },
      {
        "midi": 72,
        "time": 10.909,
        "duration": 0.258,
        "velocity": 0.49,
        "hand": "right"
      },
      {
        "midi": 76,
        "time": 10.909,
        "duration": 0.273,
        "velocity": 0.65,
        "hand": "right"
      },
      {
        "midi": 78,
        "time": 11.045,
        "duration": 3.273,
        "velocity": 0.95,
        "hand": "right"
      },
      {
        "midi": 38,
        "time": 11.182,
        "duration": 0.818,
        "velocity": 0.59,
        "hand": "left"
      },
      {
        "midi": 50,
        "time": 11.182,
        "duration": 0.818,
        "velocity": 0.66,
        "hand": "left"
      },
      {
        "midi": 69,
        "time": 11.182,
        "duration": 0.273,
        "velocity": 0.36,
        "hand": "right"
      },
      {
        "midi": 72,
        "time": 11.182,
        "duration": 0.273,
        "velocity": 0.44,
        "hand": "right"
      },
      {
        "midi": 74,
        "time": 11.182,
        "duration": 0.136,
        "velocity": 0.86,
        "hand": "right"
      },
      {
        "midi": 77,
        "time": 11.182,
        "duration": 0.273,
        "velocity": 0.61,
        "hand": "right"
      },
      {
        "midi": 57,
        "time": 11.455,
        "duration": 0.394,
        "velocity": 0.49,
        "hand": "left"
      },
      {
        "midi": 74,
        "time": 11.455,
        "duration": 0.136,
        "velocity": 0.74,
        "hand": "right"
      },
      {
        "midi": 53,
        "time": 11.727,
        "duration": 0.273,
        "velocity": 0.31,
        "hand": "left"
      },
      {
        "midi": 69,
        "time": 11.727,
        "duration": 0.136,
        "velocity": 0.49,
        "hand": "right"
      },
      {
        "midi": 72,
        "time": 11.727,
        "duration": 0.136,
        "velocity": 0.83,
        "hand": "right"
      },
      {
        "midi": 74,
        "time": 11.727,
        "duration": 0.273,
        "velocity": 0.81,
        "hand": "right"
      },
      {
        "midi": 77,
        "time": 11.727,
        "duration": 0.068,
        "velocity": 0.41,
        "hand": "right"
      },
      {
        "midi": 57,
        "time": 11.864,
        "duration": 0.136,
        "velocity": 0.08,
        "hand": "left"
      },
      {
        "midi": 65,
        "time": 12,
        "duration": 0.273,
        "velocity": 0.5,
        "hand": "right"
      },
      {
        "midi": 69,
        "time": 12,
        "duration": 0.273,
        "velocity": 0.42,
        "hand": "right"
      },
      {
        "midi": 72,
        "time": 12,
        "duration": 0.273,
        "velocity": 0.72,
        "hand": "right"
      },
      {
        "midi": 43,
        "time": 12.273,
        "duration": 1.091,
        "velocity": 0.49,
        "hand": "left"
      },
      {
        "midi": 55,
        "time": 12.273,
        "duration": 0.955,
        "velocity": 0.62,
        "hand": "left"
      },
      {
        "midi": 62,
        "time": 12.273,
        "duration": 0.53,
        "velocity": 0.41,
        "hand": "right"
      },
      {
        "midi": 67,
        "time": 12.273,
        "duration": 0.667,
        "velocity": 0.29,
        "hand": "right"
      },
      {
        "midi": 70,
        "time": 12.273,
        "duration": 0.273,
        "velocity": 0.45,
        "hand": "right"
      },
      {
        "midi": 74,
        "time": 12.273,
        "duration": 0.53,
        "velocity": 0.89,
        "hand": "right"
      },
      {
        "midi": 58,
        "time": 12.409,
        "duration": 0.682,
        "velocity": 0.46,
        "hand": "left"
      },
      {
        "midi": 62,
        "time": 12.818,
        "duration": 0.409,
        "velocity": 0.55,
        "hand": "right"
      },
      {
        "midi": 70,
        "time": 12.818,
        "duration": 0.258,
        "velocity": 0.45,
        "hand": "right"
      },
      {
        "midi": 74,
        "time": 12.818,
        "duration": 0.273,
        "velocity": 0.81,
        "hand": "right"
      },
      {
        "midi": 67,
        "time": 12.955,
        "duration": 0.136,
        "velocity": 0.36,
        "hand": "right"
      },
      {
        "midi": 70,
        "time": 13.091,
        "duration": 0.258,
        "velocity": 0.76,
        "hand": "right"
      },
      {
        "midi": 41,
        "time": 13.364,
        "duration": 0.818,
        "velocity": 0.46,
        "hand": "left"
      },
      {
        "midi": 53,
        "time": 13.364,
        "duration": 0.682,
        "velocity": 0.39,
        "hand": "left"
      },
      {
        "midi": 65,
        "time": 13.364,
        "duration": 0.682,
        "velocity": 0.35,
        "hand": "right"
      },
      {
        "midi": 70,
        "time": 13.364,
        "duration": 0.257,
        "velocity": 0.69,
        "hand": "right"
      },
      {
        "midi": 74,
        "time": 13.364,
        "duration": 0.273,
        "velocity": 0.72,
        "hand": "right"
      },
      {
        "midi": 62,
        "time": 13.636,
        "duration": 0.545,
        "velocity": 0.38,
        "hand": "right"
      },
      {
        "midi": 70,
        "time": 13.636,
        "duration": 0.136,
        "velocity": 0.59,
        "hand": "right"
      },
      {
        "midi": 67,
        "time": 13.909,
        "duration": 0.136,
        "velocity": 0.59,
        "hand": "right"
      },
      {
        "midi": 70,
        "time": 13.909,
        "duration": 0.273,
        "velocity": 0.69,
        "hand": "right"
      },
      {
        "midi": 74,
        "time": 13.909,
        "duration": 0.136,
        "velocity": 0.76,
        "hand": "right"
      },
      {
        "midi": 69,
        "time": 14.182,
        "duration": 0.273,
        "velocity": 0.72,
        "hand": "right"
      },
      {
        "midi": 74,
        "time": 14.182,
        "duration": 0.273,
        "velocity": 0.52,
        "hand": "right"
      },
      {
        "midi": 36,
        "time": 14.455,
        "duration": 1.091,
        "velocity": 0.43,
        "hand": "left"
      },
      {
        "midi": 48,
        "time": 14.455,
        "duration": 1.075,
        "velocity": 0.35,
        "hand": "left"
      },
      {
        "midi": 70,
        "time": 14.455,
        "duration": 0.273,
        "velocity": 0.49,
        "hand": "right"
      },
      {
        "midi": 72,
        "time": 14.455,
        "duration": 0.273,
        "velocity": 0.49,
        "hand": "right"
      },
      {
        "midi": 76,
        "time": 14.455,
        "duration": 0.273,
        "velocity": 0.65,
        "hand": "right"
      },
      {
        "midi": 78,
        "time": 14.455,
        "duration": 3.121,
        "velocity": 0.87,
        "hand": "right"
      },
      {
        "midi": 55,
        "time": 14.727,
        "duration": 0.409,
        "velocity": 0.55,
        "hand": "left"
      },
      {
        "midi": 60,
        "time": 14.864,
        "duration": 0.273,
        "velocity": 0.3,
        "hand": "right"
      },
      {
        "midi": 67,
        "time": 15,
        "duration": 0.955,
        "velocity": 0.52,
        "hand": "right"
      },
      {
        "midi": 70,
        "time": 15,
        "duration": 0.273,
        "velocity": 0.45,
        "hand": "right"
      },
      {
        "midi": 72,
        "time": 15,
        "duration": 0.273,
        "velocity": 0.63,
        "hand": "right"
      },
      {
        "midi": 76,
        "time": 15,
        "duration": 0.273,
        "velocity": 0.65,
        "hand": "right"
      },
      {
        "midi": 52,
        "time": 15.273,
        "duration": 0.257,
        "velocity": 0.62,
        "hand": "left"
      },
      {
        "midi": 74,
        "time": 15.273,
        "duration": 0.273,
        "velocity": 0.83,
        "hand": "right"
      },
      {
        "midi": 40,
        "time": 15.545,
        "duration": 1.091,
        "velocity": 0.49,
        "hand": "left"
      },
      {
        "midi": 48,
        "time": 15.545,
        "duration": 0.682,
        "velocity": 0.2,
        "hand": "left"
      },
      {
        "midi": 70,
        "time": 15.545,
        "duration": 0.273,
        "velocity": 0.35,
        "hand": "right"
      },
      {
        "midi": 72,
        "time": 15.545,
        "duration": 0.258,
        "velocity": 0.79,
        "hand": "right"
      },
      {
        "midi": 76,
        "time": 15.545,
        "duration": 0.273,
        "velocity": 0.54,
        "hand": "right"
      },
      {
        "midi": 60,
        "time": 15.818,
        "duration": 0.273,
        "velocity": 0.5,
        "hand": "right"
      },
      {
        "midi": 72,
        "time": 15.818,
        "duration": 0.136,
        "velocity": 0.72,
        "hand": "right"
      },
      {
        "midi": 64,
        "time": 16.091,
        "duration": 0.545,
        "velocity": 0.41,
        "hand": "right"
      },
      {
        "midi": 70,
        "time": 16.091,
        "duration": 0.136,
        "velocity": 0.38,
        "hand": "right"
      },
      {
        "midi": 72,
        "time": 16.091,
        "duration": 0.273,
        "velocity": 0.79,
        "hand": "right"
      },
      {
        "midi": 76,
        "time": 16.091,
        "duration": 0.136,
        "velocity": 0.55,
        "hand": "right"
      },
      {
        "midi": 60,
        "time": 16.364,
        "duration": 0.136,
        "velocity": 0.34,
        "hand": "right"
      },
      {
        "midi": 67,
        "time": 16.364,
        "duration": 0.273,
        "velocity": 0.41,
        "hand": "right"
      },
      {
        "midi": 74,
        "time": 16.364,
        "duration": 0.273,
        "velocity": 0.81,
        "hand": "right"
      },
      {
        "midi": 41,
        "time": 16.636,
        "duration": 0.955,
        "velocity": 0.5,
        "hand": "left"
      },
      {
        "midi": 53,
        "time": 16.636,
        "duration": 0.818,
        "velocity": 0.21,
        "hand": "left"
      },
      {
        "midi": 65,
        "time": 16.636,
        "duration": 0.531,
        "velocity": 0.4,
        "hand": "right"
      },
      {
        "midi": 69,
        "time": 16.636,
        "duration": 0.273,
        "velocity": 0.46,
        "hand": "right"
      },
      {
        "midi": 72,
        "time": 16.636,
        "duration": 0.531,
        "velocity": 0.79,
        "hand": "right"
      },
      {
        "midi": 77,
        "time": 16.636,
        "duration": 0.273,
        "velocity": 0.69,
        "hand": "right"
      },
      {
        "midi": 60,
        "time": 16.909,
        "duration": 0.273,
        "velocity": 0.65,
        "hand": "right"
      },
      {
        "midi": 65,
        "time": 17.182,
        "duration": 0.409,
        "velocity": 0.43,
        "hand": "right"
      },
      {
        "midi": 69,
        "time": 17.182,
        "duration": 0.53,
        "velocity": 0.59,
        "hand": "right"
      },
      {
        "midi": 72,
        "time": 17.182,
        "duration": 0.136,
        "velocity": 0.72,
        "hand": "right"
      },
      {
        "midi": 77,
        "time": 17.182,
        "duration": 0.136,
        "velocity": 0.72,
        "hand": "right"
      },
      {
        "midi": 60,
        "time": 17.455,
        "duration": 0.257,
        "velocity": 0.42,
        "hand": "right"
      },
      {
        "midi": 72,
        "time": 17.455,
        "duration": 0.257,
        "velocity": 0.39,
        "hand": "right"
      },
      {
        "midi": 78,
        "time": 17.591,
        "duration": 2.045,
        "velocity": 0.65,
        "hand": "right"
      },
      {
        "midi": 41,
        "time": 17.727,
        "duration": 0.955,
        "velocity": 0.49,
        "hand": "left"
      },
      {
        "midi": 53,
        "time": 17.727,
        "duration": 0.818,
        "velocity": 0.66,
        "hand": "left"
      },
      {
        "midi": 65,
        "time": 17.727,
        "duration": 0.531,
        "velocity": 0.27,
        "hand": "right"
      },
      {
        "midi": 69,
        "time": 17.727,
        "duration": 0.273,
        "velocity": 0.54,
        "hand": "right"
      },
      {
        "midi": 72,
        "time": 17.727,
        "duration": 0.394,
        "velocity": 0.81,
        "hand": "right"
      },
      {
        "midi": 77,
        "time": 17.727,
        "duration": 0.273,
        "velocity": 0.69,
        "hand": "right"
      },
      {
        "midi": 60,
        "time": 18,
        "duration": 0.273,
        "velocity": 0.69,
        "hand": "right"
      },
      {
        "midi": 69,
        "time": 18.136,
        "duration": 0.136,
        "velocity": 0.63,
        "hand": "right"
      },
      {
        "midi": 72,
        "time": 18.136,
        "duration": 0.136,
        "velocity": 0.71,
        "hand": "right"
      },
      {
        "midi": 65,
        "time": 18.273,
        "duration": 0.409,
        "velocity": 0.52,
        "hand": "right"
      },
      {
        "midi": 77,
        "time": 18.273,
        "duration": 0.545,
        "velocity": 0.86,
        "hand": "right"
      },
      {
        "midi": 60,
        "time": 18.409,
        "duration": 0.136,
        "velocity": 0.08,
        "hand": "right"
      },
      {
        "midi": 69,
        "time": 18.545,
        "duration": 0.409,
        "velocity": 0.46,
        "hand": "right"
      },
      {
        "midi": 72,
        "time": 18.545,
        "duration": 0.409,
        "velocity": 0.42,
        "hand": "right"
      },
      {
        "midi": 55,
        "time": 18.682,
        "duration": 0.121,
        "velocity": 0.66,
        "hand": "left"
      },
      {
        "midi": 43,
        "time": 18.818,
        "duration": 0.955,
        "velocity": 0.59,
        "hand": "left"
      },
      {
        "midi": 55,
        "time": 18.818,
        "duration": 0.682,
        "velocity": 0.24,
        "hand": "left"
      },
      {
        "midi": 67,
        "time": 18.818,
        "duration": 0.394,
        "velocity": 0.24,
        "hand": "right"
      },
      {
        "midi": 70,
        "time": 18.818,
        "duration": 0.273,
        "velocity": 0.45,
        "hand": "right"
      },
      {
        "midi": 74,
        "time": 18.818,
        "duration": 0.258,
        "velocity": 0.81,
        "hand": "right"
      },
      {
        "midi": 76,
        "time": 18.818,
        "duration": 0.273,
        "velocity": 0.62,
        "hand": "right"
      },
      {
        "midi": 62,
        "time": 18.955,
        "duration": 0.409,
        "velocity": 0.54,
        "hand": "right"
      },
      {
        "midi": 74,
        "time": 19.091,
        "duration": 0.258,
        "velocity": 0.76,
        "hand": "right"
      },
      {
        "midi": 67,
        "time": 19.227,
        "duration": 0.394,
        "velocity": 0.52,
        "hand": "right"
      },
      {
        "midi": 70,
        "time": 19.364,
        "duration": 0.136,
        "velocity": 0.68,
        "hand": "right"
      },
      {
        "midi": 74,
        "time": 19.364,
        "duration": 0.136,
        "velocity": 0.76,
        "hand": "right"
      },
      {
        "midi": 67,
        "time": 19.636,
        "duration": 0.136,
        "velocity": 0.74,
        "hand": "right"
      },
      {
        "midi": 70,
        "time": 19.636,
        "duration": 0.258,
        "velocity": 0.55,
        "hand": "right"
      },
      {
        "midi": 74,
        "time": 19.636,
        "duration": 0.258,
        "velocity": 0.47,
        "hand": "right"
      },
      {
        "midi": 78,
        "time": 19.773,
        "duration": 2.182,
        "velocity": 0.72,
        "hand": "right"
      },
      {
        "midi": 36,
        "time": 19.909,
        "duration": 1.091,
        "velocity": 0.43,
        "hand": "left"
      },
      {
        "midi": 48,
        "time": 19.909,
        "duration": 0.545,
        "velocity": 0.21,
        "hand": "left"
      },
      {
        "midi": 70,
        "time": 19.909,
        "duration": 0.273,
        "velocity": 0.49,
        "hand": "right"
      },
      {
        "midi": 72,
        "time": 19.909,
        "duration": 0.273,
        "velocity": 0.49,
        "hand": "right"
      },
      {
        "midi": 74,
        "time": 19.909,
        "duration": 0.545,
        "velocity": 0.92,
        "hand": "right"
      },
      {
        "midi": 76,
        "time": 19.909,
        "duration": 0.273,
        "velocity": 0.65,
        "hand": "right"
      },
      {
        "midi": 67,
        "time": 20.182,
        "duration": 0.273,
        "velocity": 0.59,
        "hand": "right"
      },
      {
        "midi": 70,
        "time": 20.455,
        "duration": 0.136,
        "velocity": 0.39,
        "hand": "right"
      },
      {
        "midi": 72,
        "time": 20.455,
        "duration": 0.273,
        "velocity": 0.74,
        "hand": "right"
      },
      {
        "midi": 76,
        "time": 20.455,
        "duration": 0.545,
        "velocity": 0.69,
        "hand": "right"
      },
      {
        "midi": 67,
        "time": 20.591,
        "duration": 0.136,
        "velocity": 0.46,
        "hand": "right"
      },
      {
        "midi": 79,
        "time": 20.727,
        "duration": 0.273,
        "velocity": 0.43,
        "hand": "right"
      },
      {
        "midi": 41,
        "time": 21,
        "duration": 0.955,
        "velocity": 0.42,
        "hand": "left"
      },
      {
        "midi": 53,
        "time": 21,
        "duration": 0.682,
        "velocity": 0.26,
        "hand": "left"
      },
      {
        "midi": 69,
        "time": 21,
        "duration": 0.273,
        "velocity": 0.46,
        "hand": "right"
      },
      {
        "midi": 72,
        "time": 21,
        "duration": 0.258,
        "velocity": 0.54,
        "hand": "right"
      },
      {
        "midi": 74,
        "time": 21,
        "duration": 0.273,
        "velocity": 0.49,
        "hand": "right"
      },
      {
        "midi": 77,
        "time": 21,
        "duration": 0.273,
        "velocity": 0.71,
        "hand": "right"
      },
      {
        "midi": 64,
        "time": 21.273,
        "duration": 0.273,
        "velocity": 0.52,
        "hand": "right"
      },
      {
        "midi": 72,
        "time": 21.273,
        "duration": 0.257,
        "velocity": 0.74,
        "hand": "right"
      },
      {
        "midi": 65,
        "time": 21.545,
        "duration": 0.136,
        "velocity": 0.44,
        "hand": "right"
      },
      {
        "midi": 69,
        "time": 21.545,
        "duration": 0.273,
        "velocity": 0.74,
        "hand": "right"
      },
      {
        "midi": 72,
        "time": 21.545,
        "duration": 0.531,
        "velocity": 0.62,
        "hand": "right"
      },
      {
        "midi": 77,
        "time": 21.545,
        "duration": 0.136,
        "velocity": 0.65,
        "hand": "right"
      },
      {
        "midi": 65,
        "time": 21.818,
        "duration": 0.136,
        "velocity": 0.69,
        "hand": "right"
      },
      {
        "midi": 76,
        "time": 21.818,
        "duration": 0.409,
        "velocity": 0.55,
        "hand": "right"
      },
      {
        "midi": 38,
        "time": 22.091,
        "duration": 1.091,
        "velocity": 0.47,
        "hand": "left"
      },
      {
        "midi": 50,
        "time": 22.091,
        "duration": 0.818,
        "velocity": 0.72,
        "hand": "left"
      },
      {
        "midi": 69,
        "time": 22.091,
        "duration": 0.273,
        "velocity": 0.2,
        "hand": "right"
      },
      {
        "midi": 72,
        "time": 22.091,
        "duration": 0.545,
        "velocity": 0.86,
        "hand": "right"
      },
      {
        "midi": 74,
        "time": 22.091,
        "duration": 0.273,
        "velocity": 0.76,
        "hand": "right"
      },
      {
        "midi": 78,
        "time": 22.091,
        "duration": 3.121,
        "velocity": 0.94,
        "hand": "right"
      },
      {
        "midi": 57,
        "time": 22.364,
        "duration": 0.545,
        "velocity": 0.72,
        "hand": "left"
      },
      {
        "midi": 62,
        "time": 22.636,
        "duration": 0.136,
        "velocity": 0.21,
        "hand": "right"
      },
      {
        "midi": 65,
        "time": 22.636,
        "duration": 0.545,
        "velocity": 0.62,
        "hand": "right"
      },
      {
        "midi": 69,
        "time": 22.636,
        "duration": 0.545,
        "velocity": 0.52,
        "hand": "right"
      },
      {
        "midi": 74,
        "time": 22.636,
        "duration": 0.531,
        "velocity": 0.74,
        "hand": "right"
      },
      {
        "midi": 62,
        "time": 22.909,
        "duration": 0.136,
        "velocity": 0.49,
        "hand": "right"
      },
      {
        "midi": 55,
        "time": 23.045,
        "duration": 0.122,
        "velocity": 0.59,
        "hand": "left"
      },
      {
        "midi": 43,
        "time": 23.182,
        "duration": 0.955,
        "velocity": 0.43,
        "hand": "left"
      },
      {
        "midi": 55,
        "time": 23.182,
        "duration": 0.682,
        "velocity": 0.2,
        "hand": "left"
      },
      {
        "midi": 67,
        "time": 23.182,
        "duration": 0.409,
        "velocity": 0.3,
        "hand": "right"
      },
      {
        "midi": 70,
        "time": 23.182,
        "duration": 0.258,
        "velocity": 0.41,
        "hand": "right"
      },
      {
        "midi": 72,
        "time": 23.182,
        "duration": 0.273,
        "velocity": 0.57,
        "hand": "right"
      },
      {
        "midi": 74,
        "time": 23.182,
        "duration": 0.273,
        "velocity": 0.69,
        "hand": "right"
      },
      {
        "midi": 62,
        "time": 23.455,
        "duration": 0.257,
        "velocity": 0.47,
        "hand": "right"
      },
      {
        "midi": 70,
        "time": 23.455,
        "duration": 0.257,
        "velocity": 0.66,
        "hand": "right"
      },
      {
        "midi": 62,
        "time": 23.727,
        "duration": 0.136,
        "velocity": 0.24,
        "hand": "right"
      },
      {
        "midi": 67,
        "time": 23.727,
        "duration": 0.273,
        "velocity": 0.49,
        "hand": "right"
      },
      {
        "midi": 70,
        "time": 23.727,
        "duration": 0.258,
        "velocity": 0.69,
        "hand": "right"
      },
      {
        "midi": 74,
        "time": 23.727,
        "duration": 0.258,
        "velocity": 0.89,
        "hand": "right"
      },
      {
        "midi": 70,
        "time": 24,
        "duration": 0.258,
        "velocity": 0.71,
        "hand": "right"
      },
      {
        "midi": 74,
        "time": 24,
        "duration": 0.273,
        "velocity": 0.65,
        "hand": "right"
      },
      {
        "midi": 36,
        "time": 24.273,
        "duration": 1.091,
        "velocity": 0.43,
        "hand": "left"
      },
      {
        "midi": 48,
        "time": 24.273,
        "duration": 0.818,
        "velocity": 0.57,
        "hand": "left"
      },
      {
        "midi": 64,
        "time": 24.273,
        "duration": 0.273,
        "velocity": 0.47,
        "hand": "right"
      },
      {
        "midi": 67,
        "time": 24.273,
        "duration": 0.273,
        "velocity": 0.39,
        "hand": "right"
      },
      {
        "midi": 70,
        "time": 24.273,
        "duration": 0.409,
        "velocity": 0.41,
        "hand": "right"
      },
      {
        "midi": 55,
        "time": 24.545,
        "duration": 0.273,
        "velocity": 0.08,
        "hand": "left"
      },
      {
        "midi": 60,
        "time": 24.545,
        "duration": 0.409,
        "velocity": 0.38,
        "hand": "right"
      },
      {
        "midi": 64,
        "time": 24.818,
        "duration": 0.545,
        "velocity": 0.52,
        "hand": "right"
      },
      {
        "midi": 67,
        "time": 24.818,
        "duration": 0.545,
        "velocity": 0.76,
        "hand": "right"
      },
      {
        "midi": 70,
        "time": 24.818,
        "duration": 0.136,
        "velocity": 0.41,
        "hand": "right"
      },
      {
        "midi": 52,
        "time": 25.091,
        "duration": 0.136,
        "velocity": 0.69,
        "hand": "left"
      },
      {
        "midi": 78,
        "time": 25.227,
        "duration": 1.213,
        "velocity": 0.91,
        "hand": "right"
      },
      {
        "midi": 41,
        "time": 25.364,
        "duration": 0.955,
        "velocity": 0.43,
        "hand": "left"
      },
      {
        "midi": 53,
        "time": 25.364,
        "duration": 1.076,
        "velocity": 0.46,
        "hand": "left"
      },
      {
        "midi": 65,
        "time": 25.364,
        "duration": 0.53,
        "velocity": 0.81,
        "hand": "right"
      },
      {
        "midi": 69,
        "time": 25.364,
        "duration": 0.273,
        "velocity": 0.39,
        "hand": "right"
      },
      {
        "midi": 72,
        "time": 25.364,
        "duration": 0.273,
        "velocity": 0.63,
        "hand": "right"
      },
      {
        "midi": 77,
        "time": 25.364,
        "duration": 0.273,
        "velocity": 0.69,
        "hand": "right"
      },
      {
        "midi": 60,
        "time": 25.636,
        "duration": 0.273,
        "velocity": 0.49,
        "hand": "right"
      },
      {
        "midi": 65,
        "time": 25.909,
        "duration": 0.409,
        "velocity": 0.81,
        "hand": "right"
      },
      {
        "midi": 69,
        "time": 25.909,
        "duration": 0.258,
        "velocity": 0.69,
        "hand": "right"
      },
      {
        "midi": 72,
        "time": 25.909,
        "duration": 0.136,
        "velocity": 0.57,
        "hand": "right"
      },
      {
        "midi": 77,
        "time": 25.909,
        "duration": 0.136,
        "velocity": 0.72,
        "hand": "right"
      },
      {
        "midi": 69,
        "time": 26.182,
        "duration": 0.136,
        "velocity": 0.74,
        "hand": "right"
      },
      {
        "midi": 72,
        "time": 26.182,
        "duration": 0.258,
        "velocity": 0.55,
        "hand": "right"
      },
      {
        "midi": 41,
        "time": 26.455,
        "duration": 0.955,
        "velocity": 0.43,
        "hand": "left"
      },
      {
        "midi": 53,
        "time": 26.455,
        "duration": 0.545,
        "velocity": 0.2,
        "hand": "left"
      },
      {
        "midi": 69,
        "time": 26.455,
        "duration": 0.273,
        "velocity": 0.39,
        "hand": "right"
      },
      {
        "midi": 72,
        "time": 26.455,
        "duration": 0.53,
        "velocity": 0.92,
        "hand": "right"
      },
      {
        "midi": 78,
        "time": 26.455,
        "duration": 0.545,
        "velocity": 0.13,
        "hand": "right"
      },
      {
        "midi": 60,
        "time": 26.727,
        "duration": 0.545,
        "velocity": 0.45,
        "hand": "right"
      },
      {
        "midi": 69,
        "time": 26.864,
        "duration": 0.121,
        "velocity": 0.62,
        "hand": "right"
      },
      {
        "midi": 65,
        "time": 27,
        "duration": 0.409,
        "velocity": 0.28,
        "hand": "right"
      },
      {
        "midi": 69,
        "time": 27,
        "duration": 0.136,
        "velocity": 0.41,
        "hand": "right"
      },
      {
        "midi": 72,
        "time": 27,
        "duration": 0.545,
        "velocity": 0.71,
        "hand": "right"
      },
      {
        "midi": 77,
        "time": 27,
        "duration": 0.545,
        "velocity": 0.89,
        "hand": "right"
      },
      {
        "midi": 83,
        "time": 27.136,
        "duration": 6.804,
        "velocity": 0.13,
        "hand": "right"
      },
      {
        "midi": 43,
        "time": 27.545,
        "duration": 0.955,
        "velocity": 0.39,
        "hand": "left"
      },
      {
        "midi": 55,
        "time": 27.545,
        "duration": 0.531,
        "velocity": 0.66,
        "hand": "left"
      },
      {
        "midi": 67,
        "time": 27.545,
        "duration": 0.409,
        "velocity": 0.13,
        "hand": "right"
      },
      {
        "midi": 70,
        "time": 27.545,
        "duration": 0.273,
        "velocity": 0.31,
        "hand": "right"
      },
      {
        "midi": 74,
        "time": 27.545,
        "duration": 0.258,
        "velocity": 0.4,
        "hand": "right"
      },
      {
        "midi": 76,
        "time": 27.545,
        "duration": 0.273,
        "velocity": 0.68,
        "hand": "right"
      },
      {
        "midi": 62,
        "time": 27.682,
        "duration": 0.394,
        "velocity": 0.54,
        "hand": "right"
      },
      {
        "midi": 78,
        "time": 27.682,
        "duration": 1.5,
        "velocity": 0.61,
        "hand": "right"
      },
      {
        "midi": 74,
        "time": 27.818,
        "duration": 0.122,
        "velocity": 0.76,
        "hand": "right"
      },
      {
        "midi": 70,
        "time": 27.955,
        "duration": 0.121,
        "velocity": 0.55,
        "hand": "right"
      },
      {
        "midi": 74,
        "time": 27.955,
        "duration": 0.53,
        "velocity": 0.65,
        "hand": "right"
      },
      {
        "midi": 55,
        "time": 28.091,
        "duration": 0.136,
        "velocity": 0.16,
        "hand": "left"
      },
      {
        "midi": 58,
        "time": 28.091,
        "duration": 0.068,
        "velocity": 0.25,
        "hand": "left"
      },
      {
        "midi": 62,
        "time": 28.091,
        "duration": 0.136,
        "velocity": 0.23,
        "hand": "right"
      },
      {
        "midi": 67,
        "time": 28.091,
        "duration": 0.121,
        "velocity": 0.35,
        "hand": "right"
      },
      {
        "midi": 70,
        "time": 28.091,
        "duration": 0.136,
        "velocity": 0.59,
        "hand": "right"
      },
      {
        "midi": 67,
        "time": 28.227,
        "duration": 0.136,
        "velocity": 0.59,
        "hand": "right"
      },
      {
        "midi": 36,
        "time": 28.5,
        "duration": 1.091,
        "velocity": 0.45,
        "hand": "left"
      },
      {
        "midi": 48,
        "time": 28.5,
        "duration": 0.682,
        "velocity": 0.16,
        "hand": "left"
      },
      {
        "midi": 64,
        "time": 28.5,
        "duration": 0.53,
        "velocity": 0.72,
        "hand": "right"
      },
      {
        "midi": 67,
        "time": 28.5,
        "duration": 0.258,
        "velocity": 0.2,
        "hand": "right"
      },
      {
        "midi": 70,
        "time": 28.5,
        "duration": 0.273,
        "velocity": 0.25,
        "hand": "right"
      },
      {
        "midi": 74,
        "time": 28.5,
        "duration": 0.545,
        "velocity": 0.83,
        "hand": "right"
      },
      {
        "midi": 67,
        "time": 28.773,
        "duration": 0.257,
        "velocity": 0.69,
        "hand": "right"
      },
      {
        "midi": 67,
        "time": 29.045,
        "duration": 0.136,
        "velocity": 0.43,
        "hand": "right"
      },
      {
        "midi": 70,
        "time": 29.045,
        "duration": 0.136,
        "velocity": 0.43,
        "hand": "right"
      },
      {
        "midi": 72,
        "time": 29.045,
        "duration": 0.273,
        "velocity": 0.46,
        "hand": "right"
      },
      {
        "midi": 76,
        "time": 29.045,
        "duration": 0.122,
        "velocity": 0.54,
        "hand": "right"
      },
      {
        "midi": 76,
        "time": 29.182,
        "duration": 0.545,
        "velocity": 0.74,
        "hand": "right"
      },
      {
        "midi": 79,
        "time": 29.318,
        "duration": 0.273,
        "velocity": 0.47,
        "hand": "right"
      },
      {
        "midi": 78,
        "time": 29.455,
        "duration": 1.348,
        "velocity": 0.13,
        "hand": "right"
      },
      {
        "midi": 41,
        "time": 29.591,
        "duration": 1.091,
        "velocity": 0.45,
        "hand": "left"
      },
      {
        "midi": 57,
        "time": 29.591,
        "duration": 0.121,
        "velocity": 0.74,
        "hand": "left"
      },
      {
        "midi": 69,
        "time": 29.591,
        "duration": 0.273,
        "velocity": 0.46,
        "hand": "right"
      },
      {
        "midi": 53,
        "time": 29.727,
        "duration": 0.682,
        "velocity": 0.22,
        "hand": "left"
      },
      {
        "midi": 57,
        "time": 29.727,
        "duration": 0.682,
        "velocity": 0.14,
        "hand": "left"
      },
      {
        "midi": 60,
        "time": 29.727,
        "duration": 0.122,
        "velocity": 0.17,
        "hand": "right"
      },
      {
        "midi": 65,
        "time": 29.727,
        "duration": 0.122,
        "velocity": 0.2,
        "hand": "right"
      },
      {
        "midi": 72,
        "time": 29.727,
        "duration": 0.258,
        "velocity": 0.51,
        "hand": "right"
      },
      {
        "midi": 74,
        "time": 29.727,
        "duration": 0.273,
        "velocity": 0.89,
        "hand": "right"
      },
      {
        "midi": 60,
        "time": 29.864,
        "duration": 0.273,
        "velocity": 0.55,
        "hand": "right"
      },
      {
        "midi": 65,
        "time": 29.864,
        "duration": 0.136,
        "velocity": 0.28,
        "hand": "right"
      },
      {
        "midi": 72,
        "time": 30,
        "duration": 0.258,
        "velocity": 0.79,
        "hand": "right"
      },
      {
        "midi": 65,
        "time": 30.136,
        "duration": 0.273,
        "velocity": 0.38,
        "hand": "right"
      },
      {
        "midi": 69,
        "time": 30.136,
        "duration": 0.122,
        "velocity": 0.62,
        "hand": "right"
      },
      {
        "midi": 69,
        "time": 30.273,
        "duration": 0.273,
        "velocity": 0.81,
        "hand": "right"
      },
      {
        "midi": 72,
        "time": 30.273,
        "duration": 0.136,
        "velocity": 0.61,
        "hand": "right"
      },
      {
        "midi": 65,
        "time": 30.545,
        "duration": 0.136,
        "velocity": 0.72,
        "hand": "right"
      },
      {
        "midi": 72,
        "time": 30.545,
        "duration": 0.258,
        "velocity": 0.62,
        "hand": "right"
      },
      {
        "midi": 38,
        "time": 30.818,
        "duration": 1.091,
        "velocity": 0.49,
        "hand": "left"
      },
      {
        "midi": 50,
        "time": 30.818,
        "duration": 0.818,
        "velocity": 0.66,
        "hand": "left"
      },
      {
        "midi": 65,
        "time": 30.818,
        "duration": 0.273,
        "velocity": 0.44,
        "hand": "right"
      },
      {
        "midi": 69,
        "time": 30.818,
        "duration": 0.273,
        "velocity": 0.18,
        "hand": "right"
      },
      {
        "midi": 72,
        "time": 30.818,
        "duration": 0.545,
        "velocity": 0.92,
        "hand": "right"
      },
      {
        "midi": 78,
        "time": 30.818,
        "duration": 1.485,
        "velocity": 0.72,
        "hand": "right"
      },
      {
        "midi": 57,
        "time": 31.091,
        "duration": 0.545,
        "velocity": 0.57,
        "hand": "left"
      },
      {
        "midi": 65,
        "time": 31.227,
        "duration": 0.545,
        "velocity": 0.63,
        "hand": "right"
      },
      {
        "midi": 69,
        "time": 31.364,
        "duration": 0.545,
        "velocity": 0.55,
        "hand": "right"
      },
      {
        "midi": 74,
        "time": 31.364,
        "duration": 0.409,
        "velocity": 0.92,
        "hand": "right"
      },
      {
        "midi": 62,
        "time": 31.636,
        "duration": 0.136,
        "velocity": 0.42,
        "hand": "right"
      },
      {
        "midi": 55,
        "time": 31.773,
        "duration": 0.121,
        "velocity": 0.57,
        "hand": "left"
      },
      {
        "midi": 43,
        "time": 31.909,
        "duration": 1.091,
        "velocity": 0.45,
        "hand": "left"
      },
      {
        "midi": 55,
        "time": 31.909,
        "duration": 0.682,
        "velocity": 0.18,
        "hand": "left"
      },
      {
        "midi": 67,
        "time": 31.909,
        "duration": 0.394,
        "velocity": 0.28,
        "hand": "right"
      },
      {
        "midi": 70,
        "time": 31.909,
        "duration": 0.258,
        "velocity": 0.46,
        "hand": "right"
      },
      {
        "midi": 72,
        "time": 31.909,
        "duration": 0.273,
        "velocity": 0.72,
        "hand": "right"
      },
      {
        "midi": 74,
        "time": 31.909,
        "duration": 0.409,
        "velocity": 0.61,
        "hand": "right"
      },
      {
        "midi": 62,
        "time": 32.182,
        "duration": 0.258,
        "velocity": 0.47,
        "hand": "right"
      },
      {
        "midi": 70,
        "time": 32.182,
        "duration": 0.258,
        "velocity": 0.74,
        "hand": "right"
      },
      {
        "midi": 67,
        "time": 32.318,
        "duration": 0.122,
        "velocity": 0.25,
        "hand": "right"
      },
      {
        "midi": 78,
        "time": 32.318,
        "duration": 0.409,
        "velocity": 0.13,
        "hand": "right"
      },
      {
        "midi": 62,
        "time": 32.455,
        "duration": 0.121,
        "velocity": 0.08,
        "hand": "right"
      },
      {
        "midi": 67,
        "time": 32.455,
        "duration": 0.273,
        "velocity": 0.46,
        "hand": "right"
      },
      {
        "midi": 70,
        "time": 32.455,
        "duration": 0.257,
        "velocity": 0.49,
        "hand": "right"
      },
      {
        "midi": 74,
        "time": 32.455,
        "duration": 0.545,
        "velocity": 0.97,
        "hand": "right"
      },
      {
        "midi": 62,
        "time": 32.591,
        "duration": 0.068,
        "velocity": 0.17,
        "hand": "right"
      },
      {
        "midi": 70,
        "time": 32.727,
        "duration": 0.258,
        "velocity": 0.74,
        "hand": "right"
      },
      {
        "midi": 79,
        "time": 32.727,
        "duration": 0.273,
        "velocity": 0.55,
        "hand": "right"
      },
      {
        "midi": 48,
        "time": 32.864,
        "duration": 0.121,
        "velocity": 0.25,
        "hand": "left"
      },
      {
        "midi": 52,
        "time": 32.864,
        "duration": 0.682,
        "velocity": 0.31,
        "hand": "left"
      },
      {
        "midi": 64,
        "time": 32.864,
        "duration": 0.273,
        "velocity": 0.42,
        "hand": "right"
      },
      {
        "midi": 36,
        "time": 33,
        "duration": 1.091,
        "velocity": 0.47,
        "hand": "left"
      },
      {
        "midi": 48,
        "time": 33,
        "duration": 0.818,
        "velocity": 0.65,
        "hand": "left"
      },
      {
        "midi": 67,
        "time": 33,
        "duration": 0.258,
        "velocity": 0.4,
        "hand": "right"
      },
      {
        "midi": 70,
        "time": 33,
        "duration": 0.273,
        "velocity": 0.39,
        "hand": "right"
      },
      {
        "midi": 55,
        "time": 33.136,
        "duration": 0.545,
        "velocity": 0.52,
        "hand": "left"
      },
      {
        "midi": 67,
        "time": 33.273,
        "duration": 0.121,
        "velocity": 0.79,
        "hand": "right"
      },
      {
        "midi": 64,
        "time": 33.409,
        "duration": 0.121,
        "velocity": 0.54,
        "hand": "right"
      },
      {
        "midi": 67,
        "time": 33.409,
        "duration": 0.121,
        "velocity": 0.54,
        "hand": "right"
      },
      {
        "midi": 64,
        "time": 33.545,
        "duration": 0.136,
        "velocity": 0.55,
        "hand": "right"
      },
      {
        "midi": 67,
        "time": 33.545,
        "duration": 0.136,
        "velocity": 0.51,
        "hand": "right"
      },
      {
        "midi": 70,
        "time": 33.545,
        "duration": 0.136,
        "velocity": 0.45,
        "hand": "right"
      },
      {
        "midi": 72,
        "time": 33.545,
        "duration": 0.273,
        "velocity": 0.74,
        "hand": "right"
      },
      {
        "midi": 60,
        "time": 33.682,
        "duration": 0.136,
        "velocity": 0.54,
        "hand": "right"
      },
      {
        "midi": 69,
        "time": 33.818,
        "duration": 0.258,
        "velocity": 0.83,
        "hand": "right"
      },
      {
        "midi": 53,
        "time": 33.955,
        "duration": 0.121,
        "velocity": 0.57,
        "hand": "left"
      },
      {
        "midi": 78,
        "time": 33.955,
        "duration": 2.045,
        "velocity": 0.72,
        "hand": "right"
      },
      {
        "midi": 83,
        "time": 33.955,
        "duration": 9.803,
        "velocity": 0.74,
        "hand": "right"
      },
      {
        "midi": 41,
        "time": 34.091,
        "duration": 0.955,
        "velocity": 0.54,
        "hand": "left"
      },
      {
        "midi": 53,
        "time": 34.091,
        "duration": 0.682,
        "velocity": 0.2,
        "hand": "left"
      },
      {
        "midi": 60,
        "time": 34.091,
        "duration": 0.121,
        "velocity": 0.54,
        "hand": "right"
      },
      {
        "midi": 65,
        "time": 34.091,
        "duration": 0.394,
        "velocity": 0.86,
        "hand": "right"
      },
      {
        "midi": 69,
        "time": 34.091,
        "duration": 0.273,
        "velocity": 0.44,
        "hand": "right"
      },
      {
        "midi": 72,
        "time": 34.091,
        "duration": 0.121,
        "velocity": 0.36,
        "hand": "right"
      },
      {
        "midi": 60,
        "time": 34.227,
        "duration": 0.409,
        "velocity": 0.45,
        "hand": "right"
      },
      {
        "midi": 72,
        "time": 34.227,
        "duration": 0.258,
        "velocity": 0.63,
        "hand": "right"
      },
      {
        "midi": 65,
        "time": 34.5,
        "duration": 0.273,
        "velocity": 0.28,
        "hand": "right"
      },
      {
        "midi": 69,
        "time": 34.5,
        "duration": 0.53,
        "velocity": 0.61,
        "hand": "right"
      },
      {
        "midi": 72,
        "time": 34.5,
        "duration": 0.258,
        "velocity": 0.72,
        "hand": "right"
      },
      {
        "midi": 57,
        "time": 34.773,
        "duration": 0.136,
        "velocity": 0.15,
        "hand": "left"
      },
      {
        "midi": 60,
        "time": 34.773,
        "duration": 0.136,
        "velocity": 0.39,
        "hand": "right"
      },
      {
        "midi": 72,
        "time": 34.773,
        "duration": 0.257,
        "velocity": 0.72,
        "hand": "right"
      },
      {
        "midi": 53,
        "time": 35.045,
        "duration": 0.682,
        "velocity": 0.37,
        "hand": "left"
      },
      {
        "midi": 57,
        "time": 35.045,
        "duration": 0.955,
        "velocity": 0.71,
        "hand": "left"
      },
      {
        "midi": 60,
        "time": 35.045,
        "duration": 0.258,
        "velocity": 0.59,
        "hand": "right"
      },
      {
        "midi": 65,
        "time": 35.045,
        "duration": 0.531,
        "velocity": 0.29,
        "hand": "right"
      },
      {
        "midi": 69,
        "time": 35.045,
        "duration": 0.122,
        "velocity": 0.49,
        "hand": "right"
      },
      {
        "midi": 72,
        "time": 35.045,
        "duration": 0.273,
        "velocity": 0.57,
        "hand": "right"
      },
      {
        "midi": 41,
        "time": 35.182,
        "duration": 0.955,
        "velocity": 0.42,
        "hand": "left"
      },
      {
        "midi": 69,
        "time": 35.182,
        "duration": 0.273,
        "velocity": 0.83,
        "hand": "right"
      },
      {
        "midi": 60,
        "time": 35.318,
        "duration": 0.409,
        "velocity": 0.66,
        "hand": "right"
      },
      {
        "midi": 70,
        "time": 35.455,
        "duration": 0.136,
        "velocity": 0.39,
        "hand": "right"
      },
      {
        "midi": 65,
        "time": 35.591,
        "duration": 0.409,
        "velocity": 0.47,
        "hand": "right"
      },
      {
        "midi": 70,
        "time": 35.727,
        "duration": 0.136,
        "velocity": 0.68,
        "hand": "right"
      },
      {
        "midi": 72,
        "time": 35.727,
        "duration": 0.545,
        "velocity": 0.69,
        "hand": "right"
      },
      {
        "midi": 60,
        "time": 35.864,
        "duration": 0.136,
        "velocity": 0.5,
        "hand": "right"
      },
      {
        "midi": 70,
        "time": 36,
        "duration": 0.258,
        "velocity": 0.66,
        "hand": "right"
      },
      {
        "midi": 78,
        "time": 36.136,
        "duration": 3.136,
        "velocity": 0.64,
        "hand": "right"
      },
      {
        "midi": 43,
        "time": 36.273,
        "duration": 0.818,
        "velocity": 0.5,
        "hand": "left"
      },
      {
        "midi": 55,
        "time": 36.273,
        "duration": 0.955,
        "velocity": 0.52,
        "hand": "left"
      },
      {
        "midi": 62,
        "time": 36.273,
        "duration": 0.121,
        "velocity": 0.39,
        "hand": "right"
      },
      {
        "midi": 67,
        "time": 36.273,
        "duration": 0.409,
        "velocity": 0.71,
        "hand": "right"
      },
      {
        "midi": 70,
        "time": 36.273,
        "duration": 0.257,
        "velocity": 0.39,
        "hand": "right"
      },
      {
        "midi": 74,
        "time": 36.273,
        "duration": 0.273,
        "velocity": 0.72,
        "hand": "right"
      },
      {
        "midi": 62,
        "time": 36.409,
        "duration": 0.409,
        "velocity": 0.69,
        "hand": "right"
      },
      {
        "midi": 70,
        "time": 36.545,
        "duration": 0.258,
        "velocity": 0.71,
        "hand": "right"
      },
      {
        "midi": 67,
        "time": 36.818,
        "duration": 0.273,
        "velocity": 0.3,
        "hand": "right"
      },
      {
        "midi": 70,
        "time": 36.818,
        "duration": 0.258,
        "velocity": 0.65,
        "hand": "right"
      },
      {
        "midi": 74,
        "time": 36.818,
        "duration": 0.682,
        "velocity": 0.68,
        "hand": "right"
      },
      {
        "midi": 62,
        "time": 36.955,
        "duration": 0.136,
        "velocity": 0.35,
        "hand": "right"
      },
      {
        "midi": 70,
        "time": 37.091,
        "duration": 0.258,
        "velocity": 0.71,
        "hand": "right"
      },
      {
        "midi": 79,
        "time": 37.091,
        "duration": 0.273,
        "velocity": 0.43,
        "hand": "right"
      },
      {
        "midi": 36,
        "time": 37.364,
        "duration": 1.091,
        "velocity": 0.46,
        "hand": "left"
      },
      {
        "midi": 48,
        "time": 37.364,
        "duration": 0.818,
        "velocity": 0.69,
        "hand": "left"
      },
      {
        "midi": 60,
        "time": 37.364,
        "duration": 0.682,
        "velocity": 0.23,
        "hand": "right"
      },
      {
        "midi": 64,
        "time": 37.364,
        "duration": 0.273,
        "velocity": 0.47,
        "hand": "right"
      },
      {
        "midi": 67,
        "time": 37.364,
        "duration": 0.273,
        "velocity": 0.81,
        "hand": "right"
      },
      {
        "midi": 70,
        "time": 37.364,
        "duration": 0.273,
        "velocity": 0.41,
        "hand": "right"
      },
      {
        "midi": 55,
        "time": 37.636,
        "duration": 0.545,
        "velocity": 0.54,
        "hand": "left"
      },
      {
        "midi": 72,
        "time": 37.636,
        "duration": 0.136,
        "velocity": 0.92,
        "hand": "right"
      },
      {
        "midi": 64,
        "time": 37.909,
        "duration": 0.545,
        "velocity": 0.59,
        "hand": "right"
      },
      {
        "midi": 67,
        "time": 37.909,
        "duration": 0.545,
        "velocity": 0.63,
        "hand": "right"
      },
      {
        "midi": 70,
        "time": 37.909,
        "duration": 0.136,
        "velocity": 0.46,
        "hand": "right"
      },
      {
        "midi": 72,
        "time": 37.909,
        "duration": 0.258,
        "velocity": 0.86,
        "hand": "right"
      },
      {
        "midi": 60,
        "time": 38.182,
        "duration": 0.136,
        "velocity": 0.5,
        "hand": "right"
      },
      {
        "midi": 72,
        "time": 38.182,
        "duration": 0.136,
        "velocity": 0.86,
        "hand": "right"
      },
      {
        "midi": 53,
        "time": 38.318,
        "duration": 0.122,
        "velocity": 0.57,
        "hand": "left"
      },
      {
        "midi": 69,
        "time": 38.318,
        "duration": 0.122,
        "velocity": 0.46,
        "hand": "right"
      },
      {
        "midi": 41,
        "time": 38.455,
        "duration": 0.955,
        "velocity": 0.45,
        "hand": "left"
      },
      {
        "midi": 53,
        "time": 38.455,
        "duration": 0.682,
        "velocity": 0.35,
        "hand": "left"
      },
      {
        "midi": 60,
        "time": 38.455,
        "duration": 0.257,
        "velocity": 0.46,
        "hand": "right"
      },
      {
        "midi": 65,
        "time": 38.455,
        "duration": 0.394,
        "velocity": 0.35,
        "hand": "right"
      },
      {
        "midi": 69,
        "time": 38.455,
        "duration": 0.409,
        "velocity": 0.81,
        "hand": "right"
      },
      {
        "midi": 72,
        "time": 38.455,
        "duration": 0.273,
        "velocity": 0.38,
        "hand": "right"
      },
      {
        "midi": 60,
        "time": 38.727,
        "duration": 0.273,
        "velocity": 0.45,
        "hand": "right"
      },
      {
        "midi": 65,
        "time": 38.864,
        "duration": 0.273,
        "velocity": 0.35,
        "hand": "right"
      },
      {
        "midi": 69,
        "time": 39,
        "duration": 0.53,
        "velocity": 0.71,
        "hand": "right"
      },
      {
        "midi": 72,
        "time": 39,
        "duration": 0.258,
        "velocity": 0.72,
        "hand": "right"
      },
      {
        "midi": 77,
        "time": 39,
        "duration": 0.545,
        "velocity": 0.43,
        "hand": "right"
      },
      {
        "midi": 60,
        "time": 39.136,
        "duration": 0.136,
        "velocity": 0.45,
        "hand": "right"
      },
      {
        "midi": 72,
        "time": 39.273,
        "duration": 0.136,
        "velocity": 0.83,
        "hand": "right"
      },
      {
        "midi": 78,
        "time": 39.409,
        "duration": 3.258,
        "velocity": 0.71,
        "hand": "right"
      },
      {
        "midi": 38,
        "time": 39.545,
        "duration": 1.091,
        "velocity": 0.46,
        "hand": "left"
      },
      {
        "midi": 50,
        "time": 39.545,
        "duration": 0.818,
        "velocity": 0.76,
        "hand": "left"
      },
      {
        "midi": 62,
        "time": 39.545,
        "duration": 0.667,
        "velocity": 0.34,
        "hand": "right"
      },
      {
        "midi": 65,
        "time": 39.545,
        "duration": 0.409,
        "velocity": 0.49,
        "hand": "right"
      },
      {
        "midi": 69,
        "time": 39.545,
        "duration": 0.273,
        "velocity": 0.21,
        "hand": "right"
      },
      {
        "midi": 53,
        "time": 39.682,
        "duration": 0.545,
        "velocity": 0.34,
        "hand": "left"
      },
      {
        "midi": 70,
        "time": 39.682,
        "duration": 0.136,
        "velocity": 0.39,
        "hand": "right"
      },
      {
        "midi": 57,
        "time": 39.818,
        "duration": 0.545,
        "velocity": 0.55,
        "hand": "left"
      },
      {
        "midi": 65,
        "time": 40.091,
        "duration": 0.545,
        "velocity": 0.54,
        "hand": "right"
      },
      {
        "midi": 70,
        "time": 40.091,
        "duration": 0.273,
        "velocity": 0.77,
        "hand": "right"
      },
      {
        "midi": 74,
        "time": 40.091,
        "duration": 0.53,
        "velocity": 0.49,
        "hand": "right"
      },
      {
        "midi": 62,
        "time": 40.227,
        "duration": 0.136,
        "velocity": 0.46,
        "hand": "right"
      },
      {
        "midi": 69,
        "time": 40.364,
        "duration": 0.273,
        "velocity": 0.79,
        "hand": "right"
      },
      {
        "midi": 43,
        "time": 40.5,
        "duration": 0.955,
        "velocity": 0.42,
        "hand": "left"
      },
      {
        "midi": 55,
        "time": 40.636,
        "duration": 0.955,
        "velocity": 0.66,
        "hand": "left"
      },
      {
        "midi": 58,
        "time": 40.636,
        "duration": 0.682,
        "velocity": 0.57,
        "hand": "left"
      },
      {
        "midi": 62,
        "time": 40.636,
        "duration": 0.122,
        "velocity": 0.51,
        "hand": "right"
      },
      {
        "midi": 67,
        "time": 40.636,
        "duration": 0.394,
        "velocity": 0.74,
        "hand": "right"
      },
      {
        "midi": 70,
        "time": 40.636,
        "duration": 0.394,
        "velocity": 0.5,
        "hand": "right"
      },
      {
        "midi": 74,
        "time": 40.636,
        "duration": 0.394,
        "velocity": 0.69,
        "hand": "right"
      },
      {
        "midi": 62,
        "time": 40.773,
        "duration": 0.273,
        "velocity": 0.62,
        "hand": "right"
      },
      {
        "midi": 76,
        "time": 40.909,
        "duration": 0.545,
        "velocity": 0.77,
        "hand": "right"
      },
      {
        "midi": 67,
        "time": 41.045,
        "duration": 0.122,
        "velocity": 0.46,
        "hand": "right"
      },
      {
        "midi": 70,
        "time": 41.045,
        "duration": 0.122,
        "velocity": 0.5,
        "hand": "right"
      },
      {
        "midi": 74,
        "time": 41.045,
        "duration": 0.122,
        "velocity": 0.45,
        "hand": "right"
      },
      {
        "midi": 67,
        "time": 41.182,
        "duration": 0.136,
        "velocity": 0.3,
        "hand": "right"
      },
      {
        "midi": 70,
        "time": 41.182,
        "duration": 0.136,
        "velocity": 0.66,
        "hand": "right"
      },
      {
        "midi": 74,
        "time": 41.182,
        "duration": 0.136,
        "velocity": 0.69,
        "hand": "right"
      },
      {
        "midi": 79,
        "time": 41.182,
        "duration": 0.545,
        "velocity": 0.35,
        "hand": "right"
      },
      {
        "midi": 62,
        "time": 41.318,
        "duration": 0.136,
        "velocity": 0.35,
        "hand": "right"
      },
      {
        "midi": 74,
        "time": 41.455,
        "duration": 0.273,
        "velocity": 0.83,
        "hand": "right"
      },
      {
        "midi": 48,
        "time": 41.591,
        "duration": 0.121,
        "velocity": 0.72,
        "hand": "left"
      },
      {
        "midi": 36,
        "time": 41.727,
        "duration": 0.955,
        "velocity": 0.45,
        "hand": "left"
      },
      {
        "midi": 48,
        "time": 41.727,
        "duration": 0.682,
        "velocity": 0.21,
        "hand": "left"
      },
      {
        "midi": 64,
        "time": 41.727,
        "duration": 0.273,
        "velocity": 0.49,
        "hand": "right"
      },
      {
        "midi": 67,
        "time": 41.727,
        "duration": 0.273,
        "velocity": 0.38,
        "hand": "right"
      },
      {
        "midi": 70,
        "time": 41.727,
        "duration": 0.258,
        "velocity": 0.33,
        "hand": "right"
      },
      {
        "midi": 72,
        "time": 41.727,
        "duration": 0.273,
        "velocity": 0.89,
        "hand": "right"
      },
      {
        "midi": 52,
        "time": 41.864,
        "duration": 0.409,
        "velocity": 0.22,
        "hand": "left"
      },
      {
        "midi": 55,
        "time": 41.864,
        "duration": 0.409,
        "velocity": 0.33,
        "hand": "left"
      },
      {
        "midi": 60,
        "time": 42,
        "duration": 0.545,
        "velocity": 0.28,
        "hand": "right"
      },
      {
        "midi": 70,
        "time": 42,
        "duration": 0.121,
        "velocity": 0.55,
        "hand": "right"
      },
      {
        "midi": 70,
        "time": 42.136,
        "duration": 0.136,
        "velocity": 0.5,
        "hand": "right"
      },
      {
        "midi": 64,
        "time": 42.273,
        "duration": 0.545,
        "velocity": 0.52,
        "hand": "right"
      },
      {
        "midi": 67,
        "time": 42.273,
        "duration": 0.257,
        "velocity": 0.59,
        "hand": "right"
      },
      {
        "midi": 69,
        "time": 42.273,
        "duration": 0.273,
        "velocity": 0.81,
        "hand": "right"
      },
      {
        "midi": 72,
        "time": 42.273,
        "duration": 0.53,
        "velocity": 0.57,
        "hand": "right"
      },
      {
        "midi": 52,
        "time": 42.545,
        "duration": 0.136,
        "velocity": 0.66,
        "hand": "left"
      },
      {
        "midi": 67,
        "time": 42.545,
        "duration": 0.273,
        "velocity": 0.68,
        "hand": "right"
      },
      {
        "midi": 69,
        "time": 42.682,
        "duration": 0.273,
        "velocity": 0.37,
        "hand": "right"
      },
      {
        "midi": 78,
        "time": 42.682,
        "duration": 2.045,
        "velocity": 0.71,
        "hand": "right"
      },
      {
        "midi": 41,
        "time": 42.818,
        "duration": 1.091,
        "velocity": 0.54,
        "hand": "left"
      },
      {
        "midi": 53,
        "time": 42.818,
        "duration": 1.076,
        "velocity": 0.72,
        "hand": "left"
      },
      {
        "midi": 60,
        "time": 42.818,
        "duration": 0.258,
        "velocity": 0.65,
        "hand": "right"
      },
      {
        "midi": 65,
        "time": 42.818,
        "duration": 0.394,
        "velocity": 0.89,
        "hand": "right"
      },
      {
        "midi": 72,
        "time": 42.818,
        "duration": 0.273,
        "velocity": 0.49,
        "hand": "right"
      },
      {
        "midi": 60,
        "time": 43.091,
        "duration": 0.273,
        "velocity": 0.41,
        "hand": "right"
      },
      {
        "midi": 65,
        "time": 43.227,
        "duration": 0.409,
        "velocity": 0.41,
        "hand": "right"
      },
      {
        "midi": 69,
        "time": 43.227,
        "duration": 0.122,
        "velocity": 0.34,
        "hand": "right"
      },
      {
        "midi": 72,
        "time": 43.227,
        "duration": 0.122,
        "velocity": 0.45,
        "hand": "right"
      },
      {
        "midi": 69,
        "time": 43.364,
        "duration": 0.136,
        "velocity": 0.61,
        "hand": "right"
      },
      {
        "midi": 72,
        "time": 43.364,
        "duration": 0.136,
        "velocity": 0.71,
        "hand": "right"
      },
      {
        "midi": 57,
        "time": 43.5,
        "duration": 0.394,
        "velocity": 0.45,
        "hand": "left"
      },
      {
        "midi": 72,
        "time": 43.636,
        "duration": 0.136,
        "velocity": 0.86,
        "hand": "right"
      },
      {
        "midi": 36,
        "time": 43.773,
        "duration": 1.091,
        "velocity": 0.35,
        "hand": "left"
      },
      {
        "midi": 60,
        "time": 43.773,
        "duration": 0.121,
        "velocity": 0.52,
        "hand": "right"
      },
      {
        "midi": 83,
        "time": 43.773,
        "duration": 3.257,
        "velocity": 0.85,
        "hand": "right"
      },
      {
        "midi": 53,
        "time": 43.909,
        "duration": 0.682,
        "velocity": 0.26,
        "hand": "left"
      },
      {
        "midi": 57,
        "time": 43.909,
        "duration": 0.682,
        "velocity": 0.41,
        "hand": "left"
      },
      {
        "midi": 60,
        "time": 43.909,
        "duration": 0.682,
        "velocity": 0.59,
        "hand": "right"
      },
      {
        "midi": 65,
        "time": 43.909,
        "duration": 0.258,
        "velocity": 0.2,
        "hand": "right"
      },
      {
        "midi": 69,
        "time": 43.909,
        "duration": 0.273,
        "velocity": 0.49,
        "hand": "right"
      },
      {
        "midi": 72,
        "time": 43.909,
        "duration": 0.258,
        "velocity": 0.79,
        "hand": "right"
      },
      {
        "midi": 65,
        "time": 44.182,
        "duration": 0.545,
        "velocity": 0.57,
        "hand": "right"
      },
      {
        "midi": 72,
        "time": 44.182,
        "duration": 0.136,
        "velocity": 0.81,
        "hand": "right"
      },
      {
        "midi": 69,
        "time": 44.455,
        "duration": 0.53,
        "velocity": 0.65,
        "hand": "right"
      },
      {
        "midi": 72,
        "time": 44.455,
        "duration": 0.257,
        "velocity": 0.79,
        "hand": "right"
      },
      {
        "midi": 70,
        "time": 44.727,
        "duration": 0.273,
        "velocity": 0.68,
        "hand": "right"
      },
      {
        "midi": 72,
        "time": 44.727,
        "duration": 0.258,
        "velocity": 0.49,
        "hand": "right"
      },
      {
        "midi": 41,
        "time": 45,
        "duration": 0.955,
        "velocity": 0.46,
        "hand": "left"
      },
      {
        "midi": 53,
        "time": 45,
        "duration": 0.955,
        "velocity": 0.68,
        "hand": "left"
      },
      {
        "midi": 69,
        "time": 45,
        "duration": 0.273,
        "velocity": 0.49,
        "hand": "right"
      },
      {
        "midi": 72,
        "time": 45,
        "duration": 0.273,
        "velocity": 0.51,
        "hand": "right"
      },
      {
        "midi": 78,
        "time": 45,
        "duration": 3.53,
        "velocity": 0.96,
        "hand": "right"
      },
      {
        "midi": 57,
        "time": 45.273,
        "duration": 0.394,
        "velocity": 0.24,
        "hand": "left"
      },
      {
        "midi": 60,
        "time": 45.273,
        "duration": 0.273,
        "velocity": 0.46,
        "hand": "right"
      },
      {
        "midi": 65,
        "time": 45.545,
        "duration": 0.273,
        "velocity": 0.39,
        "hand": "right"
      },
      {
        "midi": 69,
        "time": 45.545,
        "duration": 0.531,
        "velocity": 0.65,
        "hand": "right"
      },
      {
        "midi": 72,
        "time": 45.545,
        "duration": 0.531,
        "velocity": 0.76,
        "hand": "right"
      },
      {
        "midi": 77,
        "time": 45.545,
        "duration": 0.273,
        "velocity": 0.74,
        "hand": "right"
      },
      {
        "midi": 57,
        "time": 45.682,
        "duration": 0.136,
        "velocity": 0.08,
        "hand": "left"
      },
      {
        "midi": 60,
        "time": 45.682,
        "duration": 0.136,
        "velocity": 0.36,
        "hand": "right"
      },
      {
        "midi": 76,
        "time": 45.818,
        "duration": 0.273,
        "velocity": 0.69,
        "hand": "right"
      },
      {
        "midi": 38,
        "time": 46.091,
        "duration": 0.955,
        "velocity": 0.68,
        "hand": "left"
      },
      {
        "midi": 50,
        "time": 46.091,
        "duration": 0.818,
        "velocity": 0.59,
        "hand": "left"
      },
      {
        "midi": 69,
        "time": 46.091,
        "duration": 0.273,
        "velocity": 0.43,
        "hand": "right"
      },
      {
        "midi": 72,
        "time": 46.091,
        "duration": 0.136,
        "velocity": 0.44,
        "hand": "right"
      },
      {
        "midi": 74,
        "time": 46.091,
        "duration": 0.136,
        "velocity": 0.86,
        "hand": "right"
      },
      {
        "midi": 77,
        "time": 46.091,
        "duration": 0.273,
        "velocity": 0.72,
        "hand": "right"
      },
      {
        "midi": 53,
        "time": 46.227,
        "duration": 0.682,
        "velocity": 0.35,
        "hand": "left"
      },
      {
        "midi": 57,
        "time": 46.364,
        "duration": 0.682,
        "velocity": 0.62,
        "hand": "left"
      },
      {
        "midi": 74,
        "time": 46.364,
        "duration": 0.136,
        "velocity": 0.79,
        "hand": "right"
      },
      {
        "midi": 65,
        "time": 46.5,
        "duration": 0.121,
        "velocity": 0.46,
        "hand": "right"
      },
      {
        "midi": 69,
        "time": 46.5,
        "duration": 0.121,
        "velocity": 0.45,
        "hand": "right"
      },
      {
        "midi": 69,
        "time": 46.636,
        "duration": 0.273,
        "velocity": 0.65,
        "hand": "right"
      },
      {
        "midi": 72,
        "time": 46.636,
        "duration": 0.068,
        "velocity": 0.59,
        "hand": "right"
      },
      {
        "midi": 74,
        "time": 46.636,
        "duration": 0.273,
        "velocity": 0.89,
        "hand": "right"
      },
      {
        "midi": 77,
        "time": 46.636,
        "duration": 0.136,
        "velocity": 0.76,
        "hand": "right"
      },
      {
        "midi": 62,
        "time": 46.909,
        "duration": 0.136,
        "velocity": 0.31,
        "hand": "right"
      },
      {
        "midi": 72,
        "time": 46.909,
        "duration": 0.273,
        "velocity": 0.76,
        "hand": "right"
      },
      {
        "midi": 83,
        "time": 47.045,
        "duration": 10,
        "velocity": 0.98,
        "hand": "right"
      },
      {
        "midi": 43,
        "time": 47.182,
        "duration": 1.091,
        "velocity": 0.55,
        "hand": "left"
      },
      {
        "midi": 55,
        "time": 47.182,
        "duration": 0.818,
        "velocity": 0.57,
        "hand": "left"
      },
      {
        "midi": 62,
        "time": 47.182,
        "duration": 0.394,
        "velocity": 0.68,
        "hand": "right"
      },
      {
        "midi": 67,
        "time": 47.182,
        "duration": 0.53,
        "velocity": 0.35,
        "hand": "right"
      },
      {
        "midi": 70,
        "time": 47.182,
        "duration": 0.273,
        "velocity": 0.46,
        "hand": "right"
      },
      {
        "midi": 74,
        "time": 47.182,
        "duration": 0.53,
        "velocity": 0.89,
        "hand": "right"
      },
      {
        "midi": 58,
        "time": 47.318,
        "duration": 0.682,
        "velocity": 0.39,
        "hand": "left"
      },
      {
        "midi": 62,
        "time": 47.591,
        "duration": 0.409,
        "velocity": 0.08,
        "hand": "right"
      },
      {
        "midi": 67,
        "time": 47.727,
        "duration": 0.273,
        "velocity": 0.36,
        "hand": "right"
      },
      {
        "midi": 70,
        "time": 47.727,
        "duration": 0.258,
        "velocity": 0.54,
        "hand": "right"
      },
      {
        "midi": 74,
        "time": 47.727,
        "duration": 0.531,
        "velocity": 0.81,
        "hand": "right"
      },
      {
        "midi": 70,
        "time": 48,
        "duration": 0.136,
        "velocity": 0.74,
        "hand": "right"
      },
      {
        "midi": 41,
        "time": 48.273,
        "duration": 0.955,
        "velocity": 0.62,
        "hand": "left"
      },
      {
        "midi": 53,
        "time": 48.273,
        "duration": 0.682,
        "velocity": 0.49,
        "hand": "left"
      },
      {
        "midi": 65,
        "time": 48.273,
        "duration": 0.682,
        "velocity": 0.36,
        "hand": "right"
      },
      {
        "midi": 70,
        "time": 48.273,
        "duration": 0.257,
        "velocity": 0.66,
        "hand": "right"
      },
      {
        "midi": 74,
        "time": 48.273,
        "duration": 0.273,
        "velocity": 0.79,
        "hand": "right"
      },
      {
        "midi": 62,
        "time": 48.545,
        "duration": 0.409,
        "velocity": 0.62,
        "hand": "right"
      },
      {
        "midi": 70,
        "time": 48.545,
        "duration": 0.136,
        "velocity": 0.66,
        "hand": "right"
      },
      {
        "midi": 78,
        "time": 48.545,
        "duration": 0.531,
        "velocity": 0.89,
        "hand": "right"
      },
      {
        "midi": 67,
        "time": 48.818,
        "duration": 0.136,
        "velocity": 0.55,
        "hand": "right"
      },
      {
        "midi": 70,
        "time": 48.818,
        "duration": 0.531,
        "velocity": 0.74,
        "hand": "right"
      },
      {
        "midi": 74,
        "time": 48.818,
        "duration": 0.545,
        "velocity": 0.86,
        "hand": "right"
      },
      {
        "midi": 62,
        "time": 49.091,
        "duration": 0.068,
        "velocity": 0.21,
        "hand": "right"
      },
      {
        "midi": 69,
        "time": 49.091,
        "duration": 0.273,
        "velocity": 0.79,
        "hand": "right"
      },
      {
        "midi": 79,
        "time": 49.091,
        "duration": 0.273,
        "velocity": 0.41,
        "hand": "right"
      },
      {
        "midi": 36,
        "time": 49.364,
        "duration": 1.091,
        "velocity": 0.49,
        "hand": "left"
      },
      {
        "midi": 48,
        "time": 49.364,
        "duration": 0.818,
        "velocity": 0.68,
        "hand": "left"
      },
      {
        "midi": 70,
        "time": 49.364,
        "duration": 0.273,
        "velocity": 0.39,
        "hand": "right"
      },
      {
        "midi": 72,
        "time": 49.364,
        "duration": 0.273,
        "velocity": 0.46,
        "hand": "right"
      },
      {
        "midi": 76,
        "time": 49.364,
        "duration": 0.273,
        "velocity": 0.65,
        "hand": "right"
      },
      {
        "midi": 78,
        "time": 49.364,
        "duration": 0.068,
        "velocity": 0.25,
        "hand": "right"
      },
      {
        "midi": 78,
        "time": 49.5,
        "duration": 0.068,
        "velocity": 0.7,
        "hand": "right"
      },
      {
        "midi": 55,
        "time": 49.636,
        "duration": 0.273,
        "velocity": 0.42,
        "hand": "left"
      },
      {
        "midi": 60,
        "time": 49.636,
        "duration": 0.545,
        "velocity": 0.41,
        "hand": "right"
      },
      {
        "midi": 78,
        "time": 49.636,
        "duration": 2.455,
        "velocity": 0.7,
        "hand": "right"
      },
      {
        "midi": 52,
        "time": 49.773,
        "duration": 0.257,
        "velocity": 0.08,
        "hand": "left"
      },
      {
        "midi": 67,
        "time": 49.909,
        "duration": 0.818,
        "velocity": 0.65,
        "hand": "right"
      },
      {
        "midi": 70,
        "time": 49.909,
        "duration": 0.273,
        "velocity": 0.52,
        "hand": "right"
      },
      {
        "midi": 72,
        "time": 49.909,
        "duration": 0.531,
        "velocity": 0.69,
        "hand": "right"
      },
      {
        "midi": 76,
        "time": 49.909,
        "duration": 0.273,
        "velocity": 0.66,
        "hand": "right"
      },
      {
        "midi": 52,
        "time": 50.045,
        "duration": 0.136,
        "velocity": 0.08,
        "hand": "left"
      },
      {
        "midi": 55,
        "time": 50.045,
        "duration": 0.136,
        "velocity": 0.52,
        "hand": "left"
      },
      {
        "midi": 74,
        "time": 50.182,
        "duration": 0.273,
        "velocity": 0.72,
        "hand": "right"
      },
      {
        "midi": 40,
        "time": 50.455,
        "duration": 1.091,
        "velocity": 0.65,
        "hand": "left"
      },
      {
        "midi": 48,
        "time": 50.455,
        "duration": 0.682,
        "velocity": 0.2,
        "hand": "left"
      },
      {
        "midi": 60,
        "time": 50.455,
        "duration": 0.53,
        "velocity": 0.21,
        "hand": "right"
      },
      {
        "midi": 70,
        "time": 50.455,
        "duration": 0.273,
        "velocity": 0.36,
        "hand": "right"
      },
      {
        "midi": 72,
        "time": 50.455,
        "duration": 0.257,
        "velocity": 0.71,
        "hand": "right"
      },
      {
        "midi": 76,
        "time": 50.455,
        "duration": 0.273,
        "velocity": 0.59,
        "hand": "right"
      },
      {
        "midi": 55,
        "time": 50.591,
        "duration": 0.545,
        "velocity": 0.65,
        "hand": "left"
      },
      {
        "midi": 72,
        "time": 50.727,
        "duration": 0.136,
        "velocity": 0.81,
        "hand": "right"
      },
      {
        "midi": 67,
        "time": 51,
        "duration": 0.545,
        "velocity": 0.41,
        "hand": "right"
      },
      {
        "midi": 70,
        "time": 51,
        "duration": 0.136,
        "velocity": 0.39,
        "hand": "right"
      },
      {
        "midi": 72,
        "time": 51,
        "duration": 0.53,
        "velocity": 0.83,
        "hand": "right"
      },
      {
        "midi": 76,
        "time": 51,
        "duration": 0.136,
        "velocity": 0.68,
        "hand": "right"
      },
      {
        "midi": 60,
        "time": 51.136,
        "duration": 0.136,
        "velocity": 0.34,
        "hand": "right"
      },
      {
        "midi": 74,
        "time": 51.273,
        "duration": 0.273,
        "velocity": 0.69,
        "hand": "right"
      },
      {
        "midi": 41,
        "time": 51.545,
        "duration": 0.955,
        "velocity": 0.46,
        "hand": "left"
      },
      {
        "midi": 53,
        "time": 51.545,
        "duration": 0.682,
        "velocity": 0.39,
        "hand": "left"
      },
      {
        "midi": 65,
        "time": 51.545,
        "duration": 0.395,
        "velocity": 0.31,
        "hand": "right"
      },
      {
        "midi": 69,
        "time": 51.545,
        "duration": 0.273,
        "velocity": 0.38,
        "hand": "right"
      },
      {
        "midi": 72,
        "time": 51.545,
        "duration": 0.531,
        "velocity": 0.86,
        "hand": "right"
      },
      {
        "midi": 77,
        "time": 51.545,
        "duration": 0.273,
        "velocity": 0.71,
        "hand": "right"
      },
      {
        "midi": 60,
        "time": 51.818,
        "duration": 0.273,
        "velocity": 0.65,
        "hand": "right"
      },
      {
        "midi": 65,
        "time": 51.955,
        "duration": 0.409,
        "velocity": 0.42,
        "hand": "right"
      },
      {
        "midi": 69,
        "time": 51.955,
        "duration": 0.121,
        "velocity": 0.54,
        "hand": "right"
      },
      {
        "midi": 69,
        "time": 52.091,
        "duration": 0.136,
        "velocity": 0.49,
        "hand": "right"
      },
      {
        "midi": 72,
        "time": 52.091,
        "duration": 0.258,
        "velocity": 0.68,
        "hand": "right"
      },
      {
        "midi": 77,
        "time": 52.091,
        "duration": 0.136,
        "velocity": 0.69,
        "hand": "right"
      },
      {
        "midi": 78,
        "time": 52.227,
        "duration": 1.5,
        "velocity": 0.89,
        "hand": "right"
      },
      {
        "midi": 60,
        "time": 52.364,
        "duration": 0.136,
        "velocity": 0.62,
        "hand": "right"
      },
      {
        "midi": 72,
        "time": 52.364,
        "duration": 0.136,
        "velocity": 0.76,
        "hand": "right"
      },
      {
        "midi": 41,
        "time": 52.636,
        "duration": 0.955,
        "velocity": 0.47,
        "hand": "left"
      },
      {
        "midi": 53,
        "time": 52.636,
        "duration": 0.682,
        "velocity": 0.27,
        "hand": "left"
      },
      {
        "midi": 65,
        "time": 52.636,
        "duration": 0.531,
        "velocity": 0.23,
        "hand": "right"
      },
      {
        "midi": 69,
        "time": 52.636,
        "duration": 0.273,
        "velocity": 0.35,
        "hand": "right"
      },
      {
        "midi": 72,
        "time": 52.636,
        "duration": 0.136,
        "velocity": 0.51,
        "hand": "right"
      },
      {
        "midi": 77,
        "time": 52.636,
        "duration": 0.136,
        "velocity": 0.61,
        "hand": "right"
      },
      {
        "midi": 60,
        "time": 52.909,
        "duration": 0.273,
        "velocity": 0.65,
        "hand": "right"
      },
      {
        "midi": 72,
        "time": 52.909,
        "duration": 0.136,
        "velocity": 0.86,
        "hand": "right"
      },
      {
        "midi": 65,
        "time": 53.182,
        "duration": 0.273,
        "velocity": 0.69,
        "hand": "right"
      },
      {
        "midi": 69,
        "time": 53.182,
        "duration": 0.136,
        "velocity": 0.49,
        "hand": "right"
      },
      {
        "midi": 72,
        "time": 53.182,
        "duration": 0.273,
        "velocity": 0.92,
        "hand": "right"
      },
      {
        "midi": 77,
        "time": 53.182,
        "duration": 0.136,
        "velocity": 0.69,
        "hand": "right"
      },
      {
        "midi": 60,
        "time": 53.455,
        "duration": 0.136,
        "velocity": 0.72,
        "hand": "right"
      },
      {
        "midi": 70,
        "time": 53.455,
        "duration": 0.273,
        "velocity": 0.62,
        "hand": "right"
      },
      {
        "midi": 41,
        "time": 53.727,
        "duration": 0.955,
        "velocity": 0.39,
        "hand": "left"
      },
      {
        "midi": 53,
        "time": 53.727,
        "duration": 0.955,
        "velocity": 0.72,
        "hand": "left"
      },
      {
        "midi": 65,
        "time": 53.727,
        "duration": 0.531,
        "velocity": 0.22,
        "hand": "right"
      },
      {
        "midi": 69,
        "time": 53.727,
        "duration": 0.273,
        "velocity": 0.51,
        "hand": "right"
      },
      {
        "midi": 72,
        "time": 53.727,
        "duration": 0.136,
        "velocity": 0.69,
        "hand": "right"
      },
      {
        "midi": 77,
        "time": 53.727,
        "duration": 0.136,
        "velocity": 0.74,
        "hand": "right"
      },
      {
        "midi": 57,
        "time": 54,
        "duration": 0.682,
        "velocity": 0.36,
        "hand": "left"
      },
      {
        "midi": 60,
        "time": 54,
        "duration": 0.273,
        "velocity": 0.32,
        "hand": "right"
      },
      {
        "midi": 69,
        "time": 54.273,
        "duration": 0.53,
        "velocity": 0.63,
        "hand": "right"
      },
      {
        "midi": 72,
        "time": 54.273,
        "duration": 0.545,
        "velocity": 0.76,
        "hand": "right"
      },
      {
        "midi": 78,
        "time": 54.273,
        "duration": 2.455,
        "velocity": 0.88,
        "hand": "right"
      },
      {
        "midi": 60,
        "time": 54.409,
        "duration": 0.136,
        "velocity": 0.42,
        "hand": "right"
      },
      {
        "midi": 76,
        "time": 54.545,
        "duration": 0.273,
        "velocity": 0.68,
        "hand": "right"
      },
      {
        "midi": 38,
        "time": 54.818,
        "duration": 1.091,
        "velocity": 0.55,
        "hand": "left"
      },
      {
        "midi": 50,
        "time": 54.818,
        "duration": 0.818,
        "velocity": 0.52,
        "hand": "left"
      },
      {
        "midi": 62,
        "time": 54.818,
        "duration": 0.682,
        "velocity": 0.28,
        "hand": "right"
      },
      {
        "midi": 65,
        "time": 54.818,
        "duration": 0.273,
        "velocity": 0.63,
        "hand": "right"
      },
      {
        "midi": 69,
        "time": 54.818,
        "duration": 0.273,
        "velocity": 0.24,
        "hand": "right"
      },
      {
        "midi": 74,
        "time": 54.818,
        "duration": 0.258,
        "velocity": 0.83,
        "hand": "right"
      },
      {
        "midi": 53,
        "time": 55.091,
        "duration": 0.545,
        "velocity": 0.42,
        "hand": "left"
      },
      {
        "midi": 57,
        "time": 55.091,
        "duration": 0.545,
        "velocity": 0.62,
        "hand": "left"
      },
      {
        "midi": 74,
        "time": 55.091,
        "duration": 0.136,
        "velocity": 0.81,
        "hand": "right"
      },
      {
        "midi": 65,
        "time": 55.364,
        "duration": 0.545,
        "velocity": 0.63,
        "hand": "right"
      },
      {
        "midi": 69,
        "time": 55.364,
        "duration": 0.545,
        "velocity": 0.47,
        "hand": "right"
      },
      {
        "midi": 74,
        "time": 55.364,
        "duration": 0.53,
        "velocity": 0.83,
        "hand": "right"
      },
      {
        "midi": 62,
        "time": 55.636,
        "duration": 0.136,
        "velocity": 0.62,
        "hand": "right"
      },
      {
        "midi": 72,
        "time": 55.636,
        "duration": 0.273,
        "velocity": 0.74,
        "hand": "right"
      },
      {
        "midi": 43,
        "time": 55.909,
        "duration": 1.091,
        "velocity": 0.43,
        "hand": "left"
      },
      {
        "midi": 55,
        "time": 55.909,
        "duration": 0.955,
        "velocity": 0.54,
        "hand": "left"
      },
      {
        "midi": 62,
        "time": 55.909,
        "duration": 0.258,
        "velocity": 0.46,
        "hand": "right"
      },
      {
        "midi": 67,
        "time": 55.909,
        "duration": 0.394,
        "velocity": 0.37,
        "hand": "right"
      },
      {
        "midi": 70,
        "time": 55.909,
        "duration": 0.273,
        "velocity": 0.41,
        "hand": "right"
      },
      {
        "midi": 74,
        "time": 55.909,
        "duration": 0.394,
        "velocity": 0.81,
        "hand": "right"
      },
      {
        "midi": 58,
        "time": 56.045,
        "duration": 0.409,
        "velocity": 0.42,
        "hand": "left"
      },
      {
        "midi": 62,
        "time": 56.182,
        "duration": 0.409,
        "velocity": 0.31,
        "hand": "right"
      },
      {
        "midi": 67,
        "time": 56.318,
        "duration": 0.409,
        "velocity": 0.32,
        "hand": "right"
      },
      {
        "midi": 74,
        "time": 56.318,
        "duration": 0.122,
        "velocity": 0.42,
        "hand": "right"
      },
      {
        "midi": 70,
        "time": 56.455,
        "duration": 0.257,
        "velocity": 0.57,
        "hand": "right"
      },
      {
        "midi": 74,
        "time": 56.455,
        "duration": 0.273,
        "velocity": 0.76,
        "hand": "right"
      },
      {
        "midi": 58,
        "time": 56.591,
        "duration": 0.136,
        "velocity": 0.59,
        "hand": "left"
      },
      {
        "midi": 70,
        "time": 56.727,
        "duration": 0.136,
        "velocity": 0.77,
        "hand": "right"
      },
      {
        "midi": 78,
        "time": 56.864,
        "duration": 2.045,
        "velocity": 0.91,
        "hand": "right"
      },
      {
        "midi": 41,
        "time": 57,
        "duration": 0.955,
        "velocity": 0.54,
        "hand": "left"
      },
      {
        "midi": 53,
        "time": 57,
        "duration": 0.682,
        "velocity": 0.4,
        "hand": "left"
      },
      {
        "midi": 65,
        "time": 57,
        "duration": 0.682,
        "velocity": 0.39,
        "hand": "right"
      },
      {
        "midi": 70,
        "time": 57,
        "duration": 0.258,
        "velocity": 0.71,
        "hand": "right"
      },
      {
        "midi": 74,
        "time": 57,
        "duration": 0.273,
        "velocity": 0.72,
        "hand": "right"
      },
      {
        "midi": 62,
        "time": 57.273,
        "duration": 0.409,
        "velocity": 0.54,
        "hand": "right"
      },
      {
        "midi": 70,
        "time": 57.273,
        "duration": 0.136,
        "velocity": 0.71,
        "hand": "right"
      },
      {
        "midi": 67,
        "time": 57.545,
        "duration": 0.136,
        "velocity": 0.54,
        "hand": "right"
      },
      {
        "midi": 70,
        "time": 57.545,
        "duration": 0.531,
        "velocity": 0.77,
        "hand": "right"
      },
      {
        "midi": 74,
        "time": 57.545,
        "duration": 0.545,
        "velocity": 0.74,
        "hand": "right"
      },
      {
        "midi": 69,
        "time": 57.818,
        "duration": 0.273,
        "velocity": 0.76,
        "hand": "right"
      },
      {
        "midi": 79,
        "time": 57.818,
        "duration": 0.273,
        "velocity": 0.43,
        "hand": "right"
      },
      {
        "midi": 48,
        "time": 57.955,
        "duration": 0.121,
        "velocity": 0.66,
        "hand": "left"
      },
      {
        "midi": 36,
        "time": 58.091,
        "duration": 1.091,
        "velocity": 0.35,
        "hand": "left"
      },
      {
        "midi": 48,
        "time": 58.091,
        "duration": 0.682,
        "velocity": 0.28,
        "hand": "left"
      },
      {
        "midi": 67,
        "time": 58.091,
        "duration": 0.273,
        "velocity": 0.83,
        "hand": "right"
      },
      {
        "midi": 70,
        "time": 58.091,
        "duration": 0.273,
        "velocity": 0.45,
        "hand": "right"
      },
      {
        "midi": 72,
        "time": 58.091,
        "duration": 0.273,
        "velocity": 0.61,
        "hand": "right"
      },
      {
        "midi": 76,
        "time": 58.091,
        "duration": 0.273,
        "velocity": 0.55,
        "hand": "right"
      },
      {
        "midi": 55,
        "time": 58.227,
        "duration": 0.273,
        "velocity": 0.45,
        "hand": "left"
      },
      {
        "midi": 52,
        "time": 58.364,
        "duration": 0.394,
        "velocity": 0.08,
        "hand": "left"
      },
      {
        "midi": 60,
        "time": 58.364,
        "duration": 0.409,
        "velocity": 0.08,
        "hand": "right"
      },
      {
        "midi": 64,
        "time": 58.5,
        "duration": 0.955,
        "velocity": 0.45,
        "hand": "right"
      },
      {
        "midi": 67,
        "time": 58.5,
        "duration": 0.955,
        "velocity": 0.55,
        "hand": "right"
      },
      {
        "midi": 70,
        "time": 58.636,
        "duration": 0.136,
        "velocity": 0.55,
        "hand": "right"
      },
      {
        "midi": 72,
        "time": 58.636,
        "duration": 0.136,
        "velocity": 0.72,
        "hand": "right"
      },
      {
        "midi": 76,
        "time": 58.636,
        "duration": 0.273,
        "velocity": 0.74,
        "hand": "right"
      },
      {
        "midi": 52,
        "time": 58.773,
        "duration": 0.136,
        "velocity": 0.13,
        "hand": "left"
      },
      {
        "midi": 55,
        "time": 58.773,
        "duration": 0.136,
        "velocity": 0.42,
        "hand": "left"
      },
      {
        "midi": 74,
        "time": 58.909,
        "duration": 0.273,
        "velocity": 0.89,
        "hand": "right"
      },
      {
        "midi": 60,
        "time": 59.045,
        "duration": 0.667,
        "velocity": 0.2,
        "hand": "right"
      },
      {
        "midi": 78,
        "time": 59.045,
        "duration": 0.667,
        "velocity": 0.84,
        "hand": "right"
      },
      {
        "midi": 40,
        "time": 59.182,
        "duration": 1.091,
        "velocity": 0.65,
        "hand": "left"
      },
      {
        "midi": 48,
        "time": 59.182,
        "duration": 0.682,
        "velocity": 0.18,
        "hand": "left"
      },
      {
        "midi": 70,
        "time": 59.182,
        "duration": 0.273,
        "velocity": 0.41,
        "hand": "right"
      },
      {
        "midi": 72,
        "time": 59.182,
        "duration": 0.258,
        "velocity": 0.72,
        "hand": "right"
      },
      {
        "midi": 76,
        "time": 59.182,
        "duration": 0.273,
        "velocity": 0.68,
        "hand": "right"
      },
      {
        "midi": 55,
        "time": 59.318,
        "duration": 0.273,
        "velocity": 0.47,
        "hand": "left"
      },
      {
        "midi": 72,
        "time": 59.455,
        "duration": 0.136,
        "velocity": 0.81,
        "hand": "right"
      },
      {
        "midi": 70,
        "time": 59.727,
        "duration": 0.136,
        "velocity": 0.45,
        "hand": "right"
      },
      {
        "midi": 72,
        "time": 59.727,
        "duration": 0.273,
        "velocity": 0.83,
        "hand": "right"
      },
      {
        "midi": 76,
        "time": 59.727,
        "duration": 0.136,
        "velocity": 0.62,
        "hand": "right"
      },
      {
        "midi": 78,
        "time": 59.727,
        "duration": 0.258,
        "velocity": 0.37,
        "hand": "right"
      },
      {
        "midi": 55,
        "time": 59.864,
        "duration": 0.136,
        "velocity": 0.23,
        "hand": "left"
      },
      {
        "midi": 60,
        "time": 59.864,
        "duration": 0.273,
        "velocity": 0.2,
        "hand": "right"
      },
      {
        "midi": 74,
        "time": 60,
        "duration": 0.273,
        "velocity": 0.86,
        "hand": "right"
      },
      {
        "midi": 78,
        "time": 60,
        "duration": 2.167,
        "velocity": 0.67,
        "hand": "right"
      },
      {
        "midi": 57,
        "time": 60.136,
        "duration": 0.122,
        "velocity": 0.8,
        "hand": "left"
      },
      {
        "midi": 41,
        "time": 60.273,
        "duration": 0.955,
        "velocity": 0.38,
        "hand": "left"
      },
      {
        "midi": 53,
        "time": 60.273,
        "duration": 0.682,
        "velocity": 0.3,
        "hand": "left"
      },
      {
        "midi": 65,
        "time": 60.273,
        "duration": 0.394,
        "velocity": 0.35,
        "hand": "right"
      },
      {
        "midi": 69,
        "time": 60.273,
        "duration": 0.273,
        "velocity": 0.59,
        "hand": "right"
      },
      {
        "midi": 72,
        "time": 60.273,
        "duration": 0.394,
        "velocity": 0.79,
        "hand": "right"
      },
      {
        "midi": 77,
        "time": 60.273,
        "duration": 0.273,
        "velocity": 0.72,
        "hand": "right"
      },
      {
        "midi": 60,
        "time": 60.545,
        "duration": 0.273,
        "velocity": 0.65,
        "hand": "right"
      },
      {
        "midi": 65,
        "time": 60.682,
        "duration": 0.409,
        "velocity": 0.5,
        "hand": "right"
      },
      {
        "midi": 69,
        "time": 60.682,
        "duration": 0.121,
        "velocity": 0.47,
        "hand": "right"
      },
      {
        "midi": 72,
        "time": 60.682,
        "duration": 0.121,
        "velocity": 0.47,
        "hand": "right"
      },
      {
        "midi": 69,
        "time": 60.818,
        "duration": 0.136,
        "velocity": 0.63,
        "hand": "right"
      },
      {
        "midi": 72,
        "time": 60.818,
        "duration": 0.136,
        "velocity": 0.76,
        "hand": "right"
      },
      {
        "midi": 77,
        "time": 60.818,
        "duration": 0.136,
        "velocity": 0.68,
        "hand": "right"
      },
      {
        "midi": 60,
        "time": 61.091,
        "duration": 0.258,
        "velocity": 0.57,
        "hand": "right"
      },
      {
        "midi": 41,
        "time": 61.364,
        "duration": 1.091,
        "velocity": 0.47,
        "hand": "left"
      },
      {
        "midi": 53,
        "time": 61.364,
        "duration": 0.682,
        "velocity": 0.59,
        "hand": "left"
      },
      {
        "midi": 65,
        "time": 61.364,
        "duration": 0.682,
        "velocity": 0.2,
        "hand": "right"
      },
      {
        "midi": 69,
        "time": 61.364,
        "duration": 0.273,
        "velocity": 0.61,
        "hand": "right"
      },
      {
        "midi": 72,
        "time": 61.364,
        "duration": 0.273,
        "velocity": 0.81,
        "hand": "right"
      },
      {
        "midi": 77,
        "time": 61.364,
        "duration": 0.273,
        "velocity": 0.72,
        "hand": "right"
      },
      {
        "midi": 60,
        "time": 61.636,
        "duration": 0.409,
        "velocity": 0.57,
        "hand": "right"
      },
      {
        "midi": 69,
        "time": 61.909,
        "duration": 0.545,
        "velocity": 0.54,
        "hand": "right"
      },
      {
        "midi": 72,
        "time": 61.909,
        "duration": 0.545,
        "velocity": 0.86,
        "hand": "right"
      },
      {
        "midi": 77,
        "time": 61.909,
        "duration": 0.545,
        "velocity": 0.83,
        "hand": "right"
      },
      {
        "midi": 60,
        "time": 62.182,
        "duration": 0.136,
        "velocity": 0.09,
        "hand": "right"
      },
      {
        "midi": 65,
        "time": 62.182,
        "duration": 0.273,
        "velocity": 0.69,
        "hand": "right"
      },
      {
        "midi": 78,
        "time": 62.182,
        "duration": 0.818,
        "velocity": 0.68,
        "hand": "right"
      },
      {
        "midi": 83,
        "time": 62.318,
        "duration": 4.349,
        "velocity": 0.57,
        "hand": "right"
      },
      {
        "midi": 43,
        "time": 62.455,
        "duration": 0.955,
        "velocity": 0.39,
        "hand": "left"
      },
      {
        "midi": 55,
        "time": 62.455,
        "duration": 0.955,
        "velocity": 0.52,
        "hand": "left"
      },
      {
        "midi": 67,
        "time": 62.455,
        "duration": 0.545,
        "velocity": 0.27,
        "hand": "right"
      },
      {
        "midi": 70,
        "time": 62.455,
        "duration": 0.273,
        "velocity": 0.5,
        "hand": "right"
      },
      {
        "midi": 74,
        "time": 62.455,
        "duration": 0.257,
        "velocity": 0.86,
        "hand": "right"
      },
      {
        "midi": 76,
        "time": 62.455,
        "duration": 0.409,
        "velocity": 0.59,
        "hand": "right"
      },
      {
        "midi": 58,
        "time": 62.727,
        "duration": 0.682,
        "velocity": 0.31,
        "hand": "left"
      },
      {
        "midi": 62,
        "time": 62.727,
        "duration": 0.682,
        "velocity": 0.55,
        "hand": "right"
      },
      {
        "midi": 74,
        "time": 62.727,
        "duration": 0.258,
        "velocity": 0.89,
        "hand": "right"
      },
      {
        "midi": 70,
        "time": 63,
        "duration": 0.121,
        "velocity": 0.62,
        "hand": "right"
      },
      {
        "midi": 74,
        "time": 63,
        "duration": 0.53,
        "velocity": 0.81,
        "hand": "right"
      },
      {
        "midi": 79,
        "time": 63,
        "duration": 0.545,
        "velocity": 0.57,
        "hand": "right"
      },
      {
        "midi": 70,
        "time": 63.136,
        "duration": 0.136,
        "velocity": 0.62,
        "hand": "right"
      },
      {
        "midi": 78,
        "time": 63.136,
        "duration": 2.44,
        "velocity": 0.7,
        "hand": "right"
      },
      {
        "midi": 67,
        "time": 63.273,
        "duration": 0.136,
        "velocity": 0.69,
        "hand": "right"
      },
      {
        "midi": 36,
        "time": 63.409,
        "duration": 1.091,
        "velocity": 0.39,
        "hand": "left"
      },
      {
        "midi": 48,
        "time": 63.409,
        "duration": 0.121,
        "velocity": 0.3,
        "hand": "left"
      },
      {
        "midi": 60,
        "time": 63.409,
        "duration": 0.394,
        "velocity": 0.17,
        "hand": "right"
      },
      {
        "midi": 70,
        "time": 63.409,
        "duration": 0.273,
        "velocity": 0.59,
        "hand": "right"
      },
      {
        "midi": 72,
        "time": 63.409,
        "duration": 0.273,
        "velocity": 0.72,
        "hand": "right"
      },
      {
        "midi": 76,
        "time": 63.409,
        "duration": 0.273,
        "velocity": 0.69,
        "hand": "right"
      },
      {
        "midi": 48,
        "time": 63.545,
        "duration": 0.818,
        "velocity": 0.72,
        "hand": "left"
      },
      {
        "midi": 74,
        "time": 63.545,
        "duration": 0.545,
        "velocity": 0.95,
        "hand": "right"
      },
      {
        "midi": 55,
        "time": 63.682,
        "duration": 0.545,
        "velocity": 0.25,
        "hand": "left"
      },
      {
        "midi": 52,
        "time": 63.818,
        "duration": 0.545,
        "velocity": 0.18,
        "hand": "left"
      },
      {
        "midi": 60,
        "time": 63.818,
        "duration": 0.273,
        "velocity": 0.31,
        "hand": "right"
      },
      {
        "midi": 67,
        "time": 63.955,
        "duration": 0.545,
        "velocity": 0.68,
        "hand": "right"
      },
      {
        "midi": 70,
        "time": 63.955,
        "duration": 0.136,
        "velocity": 0.59,
        "hand": "right"
      },
      {
        "midi": 72,
        "time": 63.955,
        "duration": 0.53,
        "velocity": 0.72,
        "hand": "right"
      },
      {
        "midi": 76,
        "time": 63.955,
        "duration": 0.121,
        "velocity": 0.69,
        "hand": "right"
      },
      {
        "midi": 76,
        "time": 64.091,
        "duration": 0.545,
        "velocity": 0.76,
        "hand": "right"
      },
      {
        "midi": 60,
        "time": 64.227,
        "duration": 0.136,
        "velocity": 0.65,
        "hand": "right"
      },
      {
        "midi": 41,
        "time": 64.5,
        "duration": 1.091,
        "velocity": 0.35,
        "hand": "left"
      },
      {
        "midi": 53,
        "time": 64.5,
        "duration": 0.121,
        "velocity": 0.47,
        "hand": "left"
      },
      {
        "midi": 65,
        "time": 64.5,
        "duration": 0.53,
        "velocity": 0.41,
        "hand": "right"
      },
      {
        "midi": 69,
        "time": 64.5,
        "duration": 0.273,
        "velocity": 0.59,
        "hand": "right"
      },
      {
        "midi": 72,
        "time": 64.5,
        "duration": 0.273,
        "velocity": 0.71,
        "hand": "right"
      },
      {
        "midi": 77,
        "time": 64.5,
        "duration": 0.273,
        "velocity": 0.71,
        "hand": "right"
      },
      {
        "midi": 53,
        "time": 64.636,
        "duration": 0.682,
        "velocity": 0.29,
        "hand": "left"
      },
      {
        "midi": 74,
        "time": 64.636,
        "duration": 0.273,
        "velocity": 0.71,
        "hand": "right"
      },
      {
        "midi": 57,
        "time": 64.773,
        "duration": 0.682,
        "velocity": 0.25,
        "hand": "left"
      },
      {
        "midi": 60,
        "time": 64.909,
        "duration": 0.273,
        "velocity": 0.19,
        "hand": "right"
      },
      {
        "midi": 72,
        "time": 64.909,
        "duration": 0.121,
        "velocity": 0.71,
        "hand": "right"
      },
      {
        "midi": 65,
        "time": 65.045,
        "duration": 0.273,
        "velocity": 0.49,
        "hand": "right"
      },
      {
        "midi": 69,
        "time": 65.045,
        "duration": 0.122,
        "velocity": 0.76,
        "hand": "right"
      },
      {
        "midi": 72,
        "time": 65.045,
        "duration": 0.122,
        "velocity": 0.46,
        "hand": "right"
      },
      {
        "midi": 77,
        "time": 65.045,
        "duration": 0.122,
        "velocity": 0.57,
        "hand": "right"
      },
      {
        "midi": 69,
        "time": 65.182,
        "duration": 0.136,
        "velocity": 0.59,
        "hand": "right"
      },
      {
        "midi": 72,
        "time": 65.182,
        "duration": 0.068,
        "velocity": 0.43,
        "hand": "right"
      },
      {
        "midi": 77,
        "time": 65.182,
        "duration": 0.136,
        "velocity": 0.71,
        "hand": "right"
      },
      {
        "midi": 60,
        "time": 65.318,
        "duration": 0.136,
        "velocity": 0.46,
        "hand": "right"
      },
      {
        "midi": 65,
        "time": 65.455,
        "duration": 0.121,
        "velocity": 0.81,
        "hand": "right"
      },
      {
        "midi": 38,
        "time": 65.591,
        "duration": 1.091,
        "velocity": 0.57,
        "hand": "left"
      },
      {
        "midi": 50,
        "time": 65.591,
        "duration": 0.818,
        "velocity": 0.74,
        "hand": "left"
      },
      {
        "midi": 65,
        "time": 65.591,
        "duration": 0.273,
        "velocity": 0.49,
        "hand": "right"
      },
      {
        "midi": 69,
        "time": 65.591,
        "duration": 0.273,
        "velocity": 0.28,
        "hand": "right"
      },
      {
        "midi": 74,
        "time": 65.591,
        "duration": 0.273,
        "velocity": 0.81,
        "hand": "right"
      },
      {
        "midi": 78,
        "time": 65.591,
        "duration": 1.773,
        "velocity": 0.94,
        "hand": "right"
      },
      {
        "midi": 72,
        "time": 65.727,
        "duration": 0.545,
        "velocity": 0.92,
        "hand": "right"
      },
      {
        "midi": 53,
        "time": 65.864,
        "duration": 0.545,
        "velocity": 0.27,
        "hand": "left"
      },
      {
        "midi": 57,
        "time": 65.864,
        "duration": 0.682,
        "velocity": 0.65,
        "hand": "left"
      },
      {
        "midi": 65,
        "time": 66.136,
        "duration": 0.545,
        "velocity": 0.54,
        "hand": "right"
      },
      {
        "midi": 69,
        "time": 66.136,
        "duration": 0.068,
        "velocity": 0.68,
        "hand": "right"
      },
      {
        "midi": 74,
        "time": 66.136,
        "duration": 0.122,
        "velocity": 0.79,
        "hand": "right"
      },
      {
        "midi": 69,
        "time": 66.273,
        "duration": 0.545,
        "velocity": 0.46,
        "hand": "right"
      },
      {
        "midi": 74,
        "time": 66.273,
        "duration": 0.53,
        "velocity": 0.81,
        "hand": "right"
      },
      {
        "midi": 62,
        "time": 66.409,
        "duration": 0.136,
        "velocity": 0.45,
        "hand": "right"
      },
      {
        "midi": 83,
        "time": 66.682,
        "duration": 4.348,
        "velocity": 0.8,
        "hand": "right"
      },
      {
        "midi": 43,
        "time": 66.818,
        "duration": 0.955,
        "velocity": 0.57,
        "hand": "left"
      },
      {
        "midi": 55,
        "time": 66.818,
        "duration": 0.955,
        "velocity": 0.59,
        "hand": "left"
      },
      {
        "midi": 67,
        "time": 66.818,
        "duration": 0.545,
        "velocity": 0.33,
        "hand": "right"
      },
      {
        "midi": 70,
        "time": 66.818,
        "duration": 0.258,
        "velocity": 0.49,
        "hand": "right"
      },
      {
        "midi": 72,
        "time": 66.818,
        "duration": 0.273,
        "velocity": 0.83,
        "hand": "right"
      },
      {
        "midi": 74,
        "time": 66.818,
        "duration": 0.273,
        "velocity": 0.83,
        "hand": "right"
      },
      {
        "midi": 58,
        "time": 66.955,
        "duration": 0.682,
        "velocity": 0.33,
        "hand": "left"
      },
      {
        "midi": 70,
        "time": 67.091,
        "duration": 0.258,
        "velocity": 0.74,
        "hand": "right"
      },
      {
        "midi": 62,
        "time": 67.364,
        "duration": 0.409,
        "velocity": 0.47,
        "hand": "right"
      },
      {
        "midi": 70,
        "time": 67.364,
        "duration": 0.257,
        "velocity": 0.71,
        "hand": "right"
      },
      {
        "midi": 74,
        "time": 67.364,
        "duration": 0.545,
        "velocity": 0.92,
        "hand": "right"
      },
      {
        "midi": 67,
        "time": 67.5,
        "duration": 0.068,
        "velocity": 0.31,
        "hand": "right"
      },
      {
        "midi": 78,
        "time": 67.5,
        "duration": 2.455,
        "velocity": 0.91,
        "hand": "right"
      },
      {
        "midi": 70,
        "time": 67.636,
        "duration": 0.258,
        "velocity": 0.69,
        "hand": "right"
      },
      {
        "midi": 79,
        "time": 67.636,
        "duration": 0.273,
        "velocity": 0.41,
        "hand": "right"
      },
      {
        "midi": 36,
        "time": 67.909,
        "duration": 1.091,
        "velocity": 0.49,
        "hand": "left"
      },
      {
        "midi": 48,
        "time": 67.909,
        "duration": 0.818,
        "velocity": 0.57,
        "hand": "left"
      },
      {
        "midi": 70,
        "time": 67.909,
        "duration": 0.273,
        "velocity": 0.57,
        "hand": "right"
      },
      {
        "midi": 72,
        "time": 67.909,
        "duration": 0.273,
        "velocity": 0.71,
        "hand": "right"
      },
      {
        "midi": 76,
        "time": 67.909,
        "duration": 0.273,
        "velocity": 0.65,
        "hand": "right"
      },
      {
        "midi": 52,
        "time": 68.182,
        "duration": 0.409,
        "velocity": 0.08,
        "hand": "left"
      },
      {
        "midi": 55,
        "time": 68.182,
        "duration": 0.273,
        "velocity": 0.15,
        "hand": "left"
      },
      {
        "midi": 60,
        "time": 68.182,
        "duration": 0.258,
        "velocity": 0.57,
        "hand": "right"
      },
      {
        "midi": 67,
        "time": 68.455,
        "duration": 0.545,
        "velocity": 0.54,
        "hand": "right"
      },
      {
        "midi": 70,
        "time": 68.455,
        "duration": 0.136,
        "velocity": 0.41,
        "hand": "right"
      },
      {
        "midi": 72,
        "time": 68.455,
        "duration": 0.53,
        "velocity": 0.71,
        "hand": "right"
      },
      {
        "midi": 76,
        "time": 68.455,
        "duration": 0.136,
        "velocity": 0.66,
        "hand": "right"
      },
      {
        "midi": 52,
        "time": 68.727,
        "duration": 0.136,
        "velocity": 0.72,
        "hand": "left"
      },
      {
        "midi": 41,
        "time": 69,
        "duration": 1.091,
        "velocity": 0.47,
        "hand": "left"
      },
      {
        "midi": 53,
        "time": 69,
        "duration": 0.818,
        "velocity": 0.54,
        "hand": "left"
      },
      {
        "midi": 65,
        "time": 69,
        "duration": 0.409,
        "velocity": 0.39,
        "hand": "right"
      },
      {
        "midi": 69,
        "time": 69,
        "duration": 0.273,
        "velocity": 0.41,
        "hand": "right"
      },
      {
        "midi": 72,
        "time": 69,
        "duration": 0.273,
        "velocity": 0.54,
        "hand": "right"
      },
      {
        "midi": 77,
        "time": 69,
        "duration": 0.136,
        "velocity": 0.61,
        "hand": "right"
      },
      {
        "midi": 57,
        "time": 69.273,
        "duration": 0.257,
        "velocity": 0.31,
        "hand": "left"
      },
      {
        "midi": 57,
        "time": 69.545,
        "duration": 0.136,
        "velocity": 0.15,
        "hand": "left"
      },
      {
        "midi": 65,
        "time": 69.545,
        "duration": 0.258,
        "velocity": 0.81,
        "hand": "right"
      },
      {
        "midi": 69,
        "time": 69.545,
        "duration": 0.258,
        "velocity": 0.57,
        "hand": "right"
      },
      {
        "midi": 72,
        "time": 69.545,
        "duration": 0.531,
        "velocity": 0.74,
        "hand": "right"
      },
      {
        "midi": 77,
        "time": 69.545,
        "duration": 0.068,
        "velocity": 0.69,
        "hand": "right"
      },
      {
        "midi": 65,
        "time": 69.818,
        "duration": 0.136,
        "velocity": 0.39,
        "hand": "right"
      },
      {
        "midi": 69,
        "time": 69.818,
        "duration": 0.136,
        "velocity": 0.79,
        "hand": "right"
      },
      {
        "midi": 45,
        "time": 70.091,
        "duration": 1.091,
        "velocity": 0.66,
        "hand": "left"
      },
      {
        "midi": 53,
        "time": 70.091,
        "duration": 0.545,
        "velocity": 0.17,
        "hand": "left"
      },
      {
        "midi": 69,
        "time": 70.091,
        "duration": 0.273,
        "velocity": 0.46,
        "hand": "right"
      },
      {
        "midi": 72,
        "time": 70.091,
        "duration": 0.409,
        "velocity": 0.92,
        "hand": "right"
      },
      {
        "midi": 78,
        "time": 70.091,
        "duration": 3.121,
        "velocity": 0.89,
        "hand": "right"
      },
      {
        "midi": 65,
        "time": 70.364,
        "duration": 0.682,
        "velocity": 0.47,
        "hand": "right"
      },
      {
        "midi": 69,
        "time": 70.636,
        "duration": 0.682,
        "velocity": 0.72,
        "hand": "right"
      },
      {
        "midi": 72,
        "time": 70.636,
        "duration": 0.136,
        "velocity": 0.81,
        "hand": "right"
      },
      {
        "midi": 77,
        "time": 70.636,
        "duration": 0.545,
        "velocity": 0.86,
        "hand": "right"
      },
      {
        "midi": 72,
        "time": 70.909,
        "duration": 0.409,
        "velocity": 0.57,
        "hand": "right"
      },
      {
        "midi": 83,
        "time": 71.045,
        "duration": 10,
        "velocity": 0.68,
        "hand": "right"
      },
      {
        "midi": 36,
        "time": 71.182,
        "duration": 1.091,
        "velocity": 0.42,
        "hand": "left"
      },
      {
        "midi": 55,
        "time": 71.182,
        "duration": 0.818,
        "velocity": 0.55,
        "hand": "left"
      },
      {
        "midi": 67,
        "time": 71.182,
        "duration": 0.394,
        "velocity": 0.2,
        "hand": "right"
      },
      {
        "midi": 70,
        "time": 71.182,
        "duration": 0.273,
        "velocity": 0.34,
        "hand": "right"
      },
      {
        "midi": 74,
        "time": 71.182,
        "duration": 0.121,
        "velocity": 0.59,
        "hand": "right"
      },
      {
        "midi": 76,
        "time": 71.182,
        "duration": 0.273,
        "velocity": 0.71,
        "hand": "right"
      },
      {
        "midi": 62,
        "time": 71.318,
        "duration": 0.409,
        "velocity": 0.52,
        "hand": "right"
      },
      {
        "midi": 74,
        "time": 71.318,
        "duration": 0.258,
        "velocity": 0.86,
        "hand": "right"
      },
      {
        "midi": 67,
        "time": 71.591,
        "duration": 0.258,
        "velocity": 0.59,
        "hand": "right"
      },
      {
        "midi": 70,
        "time": 71.591,
        "duration": 0.121,
        "velocity": 0.65,
        "hand": "right"
      },
      {
        "midi": 74,
        "time": 71.591,
        "duration": 0.136,
        "velocity": 0.79,
        "hand": "right"
      },
      {
        "midi": 70,
        "time": 71.727,
        "duration": 0.273,
        "velocity": 0.76,
        "hand": "right"
      },
      {
        "midi": 67,
        "time": 71.864,
        "duration": 0.136,
        "velocity": 0.74,
        "hand": "right"
      },
      {
        "midi": 74,
        "time": 71.864,
        "duration": 0.257,
        "velocity": 0.62,
        "hand": "right"
      },
      {
        "midi": 48,
        "time": 72.136,
        "duration": 0.682,
        "velocity": 0.28,
        "hand": "left"
      },
      {
        "midi": 52,
        "time": 72.136,
        "duration": 0.682,
        "velocity": 0.39,
        "hand": "left"
      },
      {
        "midi": 70,
        "time": 72.136,
        "duration": 0.273,
        "velocity": 0.47,
        "hand": "right"
      },
      {
        "midi": 72,
        "time": 72.136,
        "duration": 0.273,
        "velocity": 0.63,
        "hand": "right"
      },
      {
        "midi": 74,
        "time": 72.136,
        "duration": 0.545,
        "velocity": 0.92,
        "hand": "right"
      },
      {
        "midi": 76,
        "time": 72.136,
        "duration": 0.273,
        "velocity": 0.59,
        "hand": "right"
      },
      {
        "midi": 40,
        "time": 72.273,
        "duration": 1.091,
        "velocity": 0.57,
        "hand": "left"
      },
      {
        "midi": 67,
        "time": 72.409,
        "duration": 0.273,
        "velocity": 0.68,
        "hand": "right"
      },
      {
        "midi": 70,
        "time": 72.682,
        "duration": 0.136,
        "velocity": 0.39,
        "hand": "right"
      },
      {
        "midi": 72,
        "time": 72.682,
        "duration": 0.273,
        "velocity": 0.71,
        "hand": "right"
      },
      {
        "midi": 76,
        "time": 72.682,
        "duration": 0.121,
        "velocity": 0.66,
        "hand": "right"
      },
      {
        "midi": 76,
        "time": 72.818,
        "duration": 0.545,
        "velocity": 0.68,
        "hand": "right"
      },
      {
        "midi": 79,
        "time": 72.955,
        "duration": 0.273,
        "velocity": 0.65,
        "hand": "right"
      },
      {
        "midi": 41,
        "time": 73.227,
        "duration": 1.091,
        "velocity": 0.45,
        "hand": "left"
      },
      {
        "midi": 53,
        "time": 73.227,
        "duration": 0.818,
        "velocity": 0.32,
        "hand": "left"
      },
      {
        "midi": 60,
        "time": 73.227,
        "duration": 0.258,
        "velocity": 0.51,
        "hand": "right"
      },
      {
        "midi": 65,
        "time": 73.227,
        "duration": 0.531,
        "velocity": 0.31,
        "hand": "right"
      },
      {
        "midi": 69,
        "time": 73.227,
        "duration": 0.273,
        "velocity": 0.44,
        "hand": "right"
      },
      {
        "midi": 78,
        "time": 73.227,
        "duration": 2.045,
        "velocity": 0.81,
        "hand": "right"
      },
      {
        "midi": 72,
        "time": 73.364,
        "duration": 0.257,
        "velocity": 0.65,
        "hand": "right"
      },
      {
        "midi": 74,
        "time": 73.364,
        "duration": 0.273,
        "velocity": 0.83,
        "hand": "right"
      },
      {
        "midi": 77,
        "time": 73.364,
        "duration": 0.273,
        "velocity": 0.65,
        "hand": "right"
      },
      {
        "midi": 60,
        "time": 73.5,
        "duration": 0.545,
        "velocity": 0.69,
        "hand": "right"
      },
      {
        "midi": 72,
        "time": 73.636,
        "duration": 0.136,
        "velocity": 0.72,
        "hand": "right"
      },
      {
        "midi": 65,
        "time": 73.773,
        "duration": 0.273,
        "velocity": 0.52,
        "hand": "right"
      },
      {
        "midi": 69,
        "time": 73.773,
        "duration": 0.121,
        "velocity": 0.57,
        "hand": "right"
      },
      {
        "midi": 69,
        "time": 73.909,
        "duration": 0.273,
        "velocity": 0.83,
        "hand": "right"
      },
      {
        "midi": 72,
        "time": 73.909,
        "duration": 0.068,
        "velocity": 0.3,
        "hand": "right"
      },
      {
        "midi": 77,
        "time": 73.909,
        "duration": 0.136,
        "velocity": 0.72,
        "hand": "right"
      },
      {
        "midi": 65,
        "time": 74.182,
        "duration": 0.258,
        "velocity": 0.74,
        "hand": "right"
      },
      {
        "midi": 72,
        "time": 74.182,
        "duration": 0.258,
        "velocity": 0.66,
        "hand": "right"
      },
      {
        "midi": 38,
        "time": 74.455,
        "duration": 1.091,
        "velocity": 0.45,
        "hand": "left"
      },
      {
        "midi": 50,
        "time": 74.455,
        "duration": 0.818,
        "velocity": 0.68,
        "hand": "left"
      },
      {
        "midi": 65,
        "time": 74.455,
        "duration": 0.273,
        "velocity": 0.4,
        "hand": "right"
      },
      {
        "midi": 69,
        "time": 74.455,
        "duration": 0.136,
        "velocity": 0.2,
        "hand": "right"
      },
      {
        "midi": 72,
        "time": 74.455,
        "duration": 0.545,
        "velocity": 0.92,
        "hand": "right"
      },
      {
        "midi": 74,
        "time": 74.455,
        "duration": 0.273,
        "velocity": 0.65,
        "hand": "right"
      },
      {
        "midi": 57,
        "time": 74.591,
        "duration": 0.545,
        "velocity": 0.54,
        "hand": "left"
      },
      {
        "midi": 53,
        "time": 74.727,
        "duration": 0.545,
        "velocity": 0.22,
        "hand": "left"
      },
      {
        "midi": 65,
        "time": 74.864,
        "duration": 0.121,
        "velocity": 0.55,
        "hand": "right"
      },
      {
        "midi": 69,
        "time": 74.864,
        "duration": 0.545,
        "velocity": 0.65,
        "hand": "right"
      },
      {
        "midi": 65,
        "time": 75,
        "duration": 0.068,
        "velocity": 0.43,
        "hand": "right"
      },
      {
        "midi": 74,
        "time": 75,
        "duration": 0.409,
        "velocity": 0.89,
        "hand": "right"
      },
      {
        "midi": 62,
        "time": 75.136,
        "duration": 0.136,
        "velocity": 0.43,
        "hand": "right"
      },
      {
        "midi": 43,
        "time": 75.409,
        "duration": 1.091,
        "velocity": 0.47,
        "hand": "left"
      },
      {
        "midi": 55,
        "time": 75.409,
        "duration": 0.121,
        "velocity": 0.12,
        "hand": "left"
      },
      {
        "midi": 78,
        "time": 75.409,
        "duration": 2.045,
        "velocity": 0.74,
        "hand": "right"
      },
      {
        "midi": 55,
        "time": 75.545,
        "duration": 0.955,
        "velocity": 0.54,
        "hand": "left"
      },
      {
        "midi": 58,
        "time": 75.545,
        "duration": 0.122,
        "velocity": 0.45,
        "hand": "left"
      },
      {
        "midi": 67,
        "time": 75.545,
        "duration": 0.409,
        "velocity": 0.24,
        "hand": "right"
      },
      {
        "midi": 70,
        "time": 75.545,
        "duration": 0.258,
        "velocity": 0.47,
        "hand": "right"
      },
      {
        "midi": 72,
        "time": 75.545,
        "duration": 0.273,
        "velocity": 0.86,
        "hand": "right"
      },
      {
        "midi": 74,
        "time": 75.545,
        "duration": 0.273,
        "velocity": 0.71,
        "hand": "right"
      },
      {
        "midi": 58,
        "time": 75.682,
        "duration": 0.545,
        "velocity": 0.27,
        "hand": "left"
      },
      {
        "midi": 62,
        "time": 75.682,
        "duration": 0.273,
        "velocity": 0.42,
        "hand": "right"
      },
      {
        "midi": 70,
        "time": 75.818,
        "duration": 0.122,
        "velocity": 0.82,
        "hand": "right"
      },
      {
        "midi": 70,
        "time": 75.955,
        "duration": 0.121,
        "velocity": 0.5,
        "hand": "right"
      },
      {
        "midi": 74,
        "time": 75.955,
        "duration": 0.121,
        "velocity": 0.68,
        "hand": "right"
      },
      {
        "midi": 67,
        "time": 76.091,
        "duration": 0.273,
        "velocity": 0.45,
        "hand": "right"
      },
      {
        "midi": 70,
        "time": 76.091,
        "duration": 0.258,
        "velocity": 0.45,
        "hand": "right"
      },
      {
        "midi": 74,
        "time": 76.091,
        "duration": 0.273,
        "velocity": 0.39,
        "hand": "right"
      },
      {
        "midi": 70,
        "time": 76.364,
        "duration": 0.257,
        "velocity": 0.76,
        "hand": "right"
      },
      {
        "midi": 79,
        "time": 76.364,
        "duration": 0.273,
        "velocity": 0.46,
        "hand": "right"
      },
      {
        "midi": 69,
        "time": 76.5,
        "duration": 0.273,
        "velocity": 0.89,
        "hand": "right"
      },
      {
        "midi": 36,
        "time": 76.636,
        "duration": 1.091,
        "velocity": 0.38,
        "hand": "left"
      },
      {
        "midi": 48,
        "time": 76.636,
        "duration": 0.394,
        "velocity": 0.69,
        "hand": "left"
      },
      {
        "midi": 60,
        "time": 76.636,
        "duration": 0.394,
        "velocity": 0.36,
        "hand": "right"
      },
      {
        "midi": 64,
        "time": 76.636,
        "duration": 0.273,
        "velocity": 0.45,
        "hand": "right"
      },
      {
        "midi": 67,
        "time": 76.636,
        "duration": 0.258,
        "velocity": 0.39,
        "hand": "right"
      },
      {
        "midi": 70,
        "time": 76.636,
        "duration": 0.273,
        "velocity": 0.42,
        "hand": "right"
      },
      {
        "midi": 52,
        "time": 76.773,
        "duration": 0.409,
        "velocity": 0.35,
        "hand": "left"
      },
      {
        "midi": 55,
        "time": 76.773,
        "duration": 0.409,
        "velocity": 0.52,
        "hand": "left"
      },
      {
        "midi": 67,
        "time": 76.909,
        "duration": 0.121,
        "velocity": 0.81,
        "hand": "right"
      },
      {
        "midi": 48,
        "time": 77.045,
        "duration": 0.136,
        "velocity": 0.16,
        "hand": "left"
      },
      {
        "midi": 64,
        "time": 77.045,
        "duration": 0.122,
        "velocity": 0.52,
        "hand": "right"
      },
      {
        "midi": 67,
        "time": 77.045,
        "duration": 0.122,
        "velocity": 0.49,
        "hand": "right"
      },
      {
        "midi": 70,
        "time": 77.045,
        "duration": 0.136,
        "velocity": 0.45,
        "hand": "right"
      },
      {
        "midi": 72,
        "time": 77.045,
        "duration": 0.273,
        "velocity": 0.81,
        "hand": "right"
      },
      {
        "midi": 64,
        "time": 77.182,
        "duration": 0.545,
        "velocity": 0.43,
        "hand": "right"
      },
      {
        "midi": 67,
        "time": 77.182,
        "duration": 0.545,
        "velocity": 0.54,
        "hand": "right"
      },
      {
        "midi": 52,
        "time": 77.318,
        "duration": 0.136,
        "velocity": 0.74,
        "hand": "left"
      },
      {
        "midi": 69,
        "time": 77.318,
        "duration": 0.258,
        "velocity": 0.65,
        "hand": "right"
      },
      {
        "midi": 41,
        "time": 77.591,
        "duration": 1.091,
        "velocity": 0.41,
        "hand": "left"
      },
      {
        "midi": 53,
        "time": 77.591,
        "duration": 0.121,
        "velocity": 0.66,
        "hand": "left"
      },
      {
        "midi": 69,
        "time": 77.591,
        "duration": 0.273,
        "velocity": 0.49,
        "hand": "right"
      },
      {
        "midi": 78,
        "time": 77.591,
        "duration": 0.136,
        "velocity": 0.84,
        "hand": "right"
      },
      {
        "midi": 53,
        "time": 77.727,
        "duration": 0.682,
        "velocity": 0.38,
        "hand": "left"
      },
      {
        "midi": 57,
        "time": 77.727,
        "duration": 0.122,
        "velocity": 0.46,
        "hand": "left"
      },
      {
        "midi": 60,
        "time": 77.727,
        "duration": 0.667,
        "velocity": 0.65,
        "hand": "right"
      },
      {
        "midi": 65,
        "time": 77.727,
        "duration": 1.076,
        "velocity": 0.83,
        "hand": "right"
      },
      {
        "midi": 72,
        "time": 77.727,
        "duration": 0.122,
        "velocity": 0.54,
        "hand": "right"
      },
      {
        "midi": 77,
        "time": 77.727,
        "duration": 0.273,
        "velocity": 0.68,
        "hand": "right"
      },
      {
        "midi": 57,
        "time": 77.864,
        "duration": 0.682,
        "velocity": 0.38,
        "hand": "left"
      },
      {
        "midi": 72,
        "time": 77.864,
        "duration": 0.257,
        "velocity": 0.92,
        "hand": "right"
      },
      {
        "midi": 69,
        "time": 78.136,
        "duration": 0.667,
        "velocity": 0.72,
        "hand": "right"
      },
      {
        "midi": 72,
        "time": 78.136,
        "duration": 0.068,
        "velocity": 0.71,
        "hand": "right"
      },
      {
        "midi": 77,
        "time": 78.136,
        "duration": 0.068,
        "velocity": 0.76,
        "hand": "right"
      },
      {
        "midi": 72,
        "time": 78.273,
        "duration": 0.257,
        "velocity": 0.16,
        "hand": "right"
      },
      {
        "midi": 60,
        "time": 78.409,
        "duration": 0.136,
        "velocity": 0.59,
        "hand": "right"
      },
      {
        "midi": 78,
        "time": 78.409,
        "duration": 1.227,
        "velocity": 0.38,
        "hand": "right"
      },
      {
        "midi": 72,
        "time": 78.545,
        "duration": 0.258,
        "velocity": 0.86,
        "hand": "right"
      },
      {
        "midi": 45,
        "time": 78.682,
        "duration": 1.091,
        "velocity": 0.66,
        "hand": "left"
      },
      {
        "midi": 57,
        "time": 78.682,
        "duration": 0.121,
        "velocity": 0.59,
        "hand": "left"
      },
      {
        "midi": 53,
        "time": 78.818,
        "duration": 0.682,
        "velocity": 0.33,
        "hand": "left"
      },
      {
        "midi": 57,
        "time": 78.818,
        "duration": 0.682,
        "velocity": 0.38,
        "hand": "left"
      },
      {
        "midi": 65,
        "time": 78.818,
        "duration": 0.258,
        "velocity": 0.24,
        "hand": "right"
      },
      {
        "midi": 69,
        "time": 78.818,
        "duration": 0.273,
        "velocity": 0.46,
        "hand": "right"
      },
      {
        "midi": 72,
        "time": 78.818,
        "duration": 0.273,
        "velocity": 0.59,
        "hand": "right"
      },
      {
        "midi": 77,
        "time": 78.818,
        "duration": 0.273,
        "velocity": 0.71,
        "hand": "right"
      },
      {
        "midi": 60,
        "time": 78.955,
        "duration": 0.545,
        "velocity": 0.08,
        "hand": "right"
      },
      {
        "midi": 65,
        "time": 79.091,
        "duration": 0.068,
        "velocity": 0.57,
        "hand": "right"
      },
      {
        "midi": 70,
        "time": 79.091,
        "duration": 0.136,
        "velocity": 0.66,
        "hand": "right"
      },
      {
        "midi": 70,
        "time": 79.364,
        "duration": 0.136,
        "velocity": 0.68,
        "hand": "right"
      },
      {
        "midi": 72,
        "time": 79.364,
        "duration": 0.545,
        "velocity": 0.69,
        "hand": "right"
      },
      {
        "midi": 77,
        "time": 79.364,
        "duration": 0.136,
        "velocity": 0.72,
        "hand": "right"
      },
      {
        "midi": 65,
        "time": 79.5,
        "duration": 0.273,
        "velocity": 0.55,
        "hand": "right"
      },
      {
        "midi": 70,
        "time": 79.636,
        "duration": 0.258,
        "velocity": 0.74,
        "hand": "right"
      },
      {
        "midi": 78,
        "time": 79.773,
        "duration": 2.167,
        "velocity": 0.81,
        "hand": "right"
      },
      {
        "midi": 46,
        "time": 79.909,
        "duration": 1.091,
        "velocity": 0.46,
        "hand": "left"
      },
      {
        "midi": 55,
        "time": 79.909,
        "duration": 0.955,
        "velocity": 0.47,
        "hand": "left"
      },
      {
        "midi": 62,
        "time": 79.909,
        "duration": 0.121,
        "velocity": 0.4,
        "hand": "right"
      },
      {
        "midi": 67,
        "time": 79.909,
        "duration": 0.545,
        "velocity": 0.74,
        "hand": "right"
      },
      {
        "midi": 70,
        "time": 79.909,
        "duration": 0.258,
        "velocity": 0.36,
        "hand": "right"
      },
      {
        "midi": 74,
        "time": 79.909,
        "duration": 0.273,
        "velocity": 0.79,
        "hand": "right"
      },
      {
        "midi": 62,
        "time": 80.045,
        "duration": 0.409,
        "velocity": 0.57,
        "hand": "right"
      },
      {
        "midi": 58,
        "time": 80.182,
        "duration": 0.545,
        "velocity": 0.2,
        "hand": "left"
      },
      {
        "midi": 70,
        "time": 80.182,
        "duration": 0.258,
        "velocity": 0.55,
        "hand": "right"
      },
      {
        "midi": 70,
        "time": 80.455,
        "duration": 0.257,
        "velocity": 0.65,
        "hand": "right"
      },
      {
        "midi": 74,
        "time": 80.455,
        "duration": 0.545,
        "velocity": 0.83,
        "hand": "right"
      },
      {
        "midi": 67,
        "time": 80.591,
        "duration": 0.136,
        "velocity": 0.42,
        "hand": "right"
      },
      {
        "midi": 70,
        "time": 80.727,
        "duration": 0.136,
        "velocity": 0.76,
        "hand": "right"
      },
      {
        "midi": 79,
        "time": 80.727,
        "duration": 0.273,
        "velocity": 0.15,
        "hand": "right"
      },
      {
        "midi": 36,
        "time": 81,
        "duration": 1.091,
        "velocity": 0.57,
        "hand": "left"
      },
      {
        "midi": 48,
        "time": 81,
        "duration": 0.818,
        "velocity": 0.62,
        "hand": "left"
      },
      {
        "midi": 67,
        "time": 81,
        "duration": 0.136,
        "velocity": 0.71,
        "hand": "right"
      },
      {
        "midi": 70,
        "time": 81,
        "duration": 0.273,
        "velocity": 0.39,
        "hand": "right"
      },
      {
        "midi": 72,
        "time": 81,
        "duration": 0.258,
        "velocity": 0.38,
        "hand": "right"
      },
      {
        "midi": 76,
        "time": 81,
        "duration": 0.273,
        "velocity": 0.57,
        "hand": "right"
      },
      {
        "midi": 52,
        "time": 81.273,
        "duration": 0.545,
        "velocity": 0.39,
        "hand": "left"
      },
      {
        "midi": 55,
        "time": 81.273,
        "duration": 0.545,
        "velocity": 0.49,
        "hand": "left"
      },
      {
        "midi": 72,
        "time": 81.273,
        "duration": 0.136,
        "velocity": 0.86,
        "hand": "right"
      },
      {
        "midi": 67,
        "time": 81.545,
        "duration": 0.545,
        "velocity": 0.39,
        "hand": "right"
      },
      {
        "midi": 70,
        "time": 81.545,
        "duration": 0.136,
        "velocity": 0.41,
        "hand": "right"
      },
      {
        "midi": 72,
        "time": 81.545,
        "duration": 0.258,
        "velocity": 0.61,
        "hand": "right"
      },
      {
        "midi": 76,
        "time": 81.545,
        "duration": 0.136,
        "velocity": 0.57,
        "hand": "right"
      },
      {
        "midi": 60,
        "time": 81.682,
        "duration": 0.136,
        "velocity": 0.54,
        "hand": "right"
      },
      {
        "midi": 72,
        "time": 81.818,
        "duration": 0.136,
        "velocity": 0.81,
        "hand": "right"
      },
      {
        "midi": 41,
        "time": 81.955,
        "duration": 0.818,
        "velocity": 0.38,
        "hand": "left"
      },
      {
        "midi": 78,
        "time": 81.955,
        "duration": 2.045,
        "velocity": 0.7,
        "hand": "right"
      },
      {
        "midi": 53,
        "time": 82.091,
        "duration": 0.955,
        "velocity": 0.5,
        "hand": "left"
      },
      {
        "midi": 57,
        "time": 82.091,
        "duration": 0.682,
        "velocity": 0.3,
        "hand": "left"
      },
      {
        "midi": 65,
        "time": 82.091,
        "duration": 0.394,
        "velocity": 0.29,
        "hand": "right"
      },
      {
        "midi": 69,
        "time": 82.091,
        "duration": 0.409,
        "velocity": 0.76,
        "hand": "right"
      },
      {
        "midi": 72,
        "time": 82.091,
        "duration": 0.273,
        "velocity": 0.29,
        "hand": "right"
      },
      {
        "midi": 77,
        "time": 82.091,
        "duration": 0.273,
        "velocity": 0.68,
        "hand": "right"
      },
      {
        "midi": 60,
        "time": 82.227,
        "duration": 0.409,
        "velocity": 0.31,
        "hand": "right"
      },
      {
        "midi": 65,
        "time": 82.5,
        "duration": 0.409,
        "velocity": 0.42,
        "hand": "right"
      },
      {
        "midi": 69,
        "time": 82.636,
        "duration": 0.531,
        "velocity": 0.69,
        "hand": "right"
      },
      {
        "midi": 72,
        "time": 82.636,
        "duration": 0.258,
        "velocity": 0.86,
        "hand": "right"
      },
      {
        "midi": 77,
        "time": 82.636,
        "duration": 0.545,
        "velocity": 0.72,
        "hand": "right"
      },
      {
        "midi": 57,
        "time": 82.909,
        "duration": 0.136,
        "velocity": 0.25,
        "hand": "left"
      },
      {
        "midi": 60,
        "time": 82.909,
        "duration": 0.136,
        "velocity": 0.43,
        "hand": "right"
      },
      {
        "midi": 72,
        "time": 82.909,
        "duration": 0.273,
        "velocity": 0.81,
        "hand": "right"
      },
      {
        "midi": 38,
        "time": 83.182,
        "duration": 1.091,
        "velocity": 0.55,
        "hand": "left"
      },
      {
        "midi": 50,
        "time": 83.182,
        "duration": 0.818,
        "velocity": 0.59,
        "hand": "left"
      },
      {
        "midi": 62,
        "time": 83.182,
        "duration": 0.682,
        "velocity": 0.28,
        "hand": "right"
      },
      {
        "midi": 65,
        "time": 83.182,
        "duration": 0.273,
        "velocity": 0.41,
        "hand": "right"
      },
      {
        "midi": 69,
        "time": 83.182,
        "duration": 0.273,
        "velocity": 0.13,
        "hand": "right"
      },
      {
        "midi": 74,
        "time": 83.182,
        "duration": 0.273,
        "velocity": 0.79,
        "hand": "right"
      },
      {
        "midi": 53,
        "time": 83.455,
        "duration": 0.409,
        "velocity": 0.08,
        "hand": "left"
      },
      {
        "midi": 57,
        "time": 83.455,
        "duration": 0.545,
        "velocity": 0.59,
        "hand": "left"
      },
      {
        "midi": 70,
        "time": 83.455,
        "duration": 0.136,
        "velocity": 0.47,
        "hand": "right"
      },
      {
        "midi": 65,
        "time": 83.727,
        "duration": 0.545,
        "velocity": 0.52,
        "hand": "right"
      },
      {
        "midi": 70,
        "time": 83.727,
        "duration": 0.273,
        "velocity": 0.72,
        "hand": "right"
      },
      {
        "midi": 74,
        "time": 83.727,
        "duration": 0.394,
        "velocity": 0.69,
        "hand": "right"
      },
      {
        "midi": 62,
        "time": 84,
        "duration": 0.121,
        "velocity": 0.42,
        "hand": "right"
      },
      {
        "midi": 69,
        "time": 84,
        "duration": 0.273,
        "velocity": 0.79,
        "hand": "right"
      },
      {
        "midi": 43,
        "time": 84.136,
        "duration": 0.955,
        "velocity": 0.46,
        "hand": "left"
      },
      {
        "midi": 55,
        "time": 84.136,
        "duration": 0.122,
        "velocity": 0.14,
        "hand": "left"
      },
      {
        "midi": 62,
        "time": 84.136,
        "duration": 0.258,
        "velocity": 0.54,
        "hand": "right"
      },
      {
        "midi": 70,
        "time": 84.136,
        "duration": 0.273,
        "velocity": 0.42,
        "hand": "right"
      },
      {
        "midi": 74,
        "time": 84.136,
        "duration": 0.273,
        "velocity": 0.72,
        "hand": "right"
      },
      {
        "midi": 78,
        "time": 84.136,
        "duration": 3.136,
        "velocity": 0.84,
        "hand": "right"
      },
      {
        "midi": 55,
        "time": 84.273,
        "duration": 0.818,
        "velocity": 0.59,
        "hand": "left"
      },
      {
        "midi": 67,
        "time": 84.273,
        "duration": 0.394,
        "velocity": 0.79,
        "hand": "right"
      },
      {
        "midi": 58,
        "time": 84.409,
        "duration": 0.545,
        "velocity": 0.39,
        "hand": "left"
      },
      {
        "midi": 62,
        "time": 84.409,
        "duration": 0.273,
        "velocity": 0.5,
        "hand": "right"
      },
      {
        "midi": 76,
        "time": 84.545,
        "duration": 0.545,
        "velocity": 0.76,
        "hand": "right"
      },
      {
        "midi": 67,
        "time": 84.682,
        "duration": 0.273,
        "velocity": 0.46,
        "hand": "right"
      },
      {
        "midi": 74,
        "time": 84.682,
        "duration": 0.136,
        "velocity": 0.72,
        "hand": "right"
      },
      {
        "midi": 70,
        "time": 84.818,
        "duration": 0.394,
        "velocity": 0.62,
        "hand": "right"
      },
      {
        "midi": 62,
        "time": 84.955,
        "duration": 0.068,
        "velocity": 0.35,
        "hand": "right"
      },
      {
        "midi": 74,
        "time": 84.955,
        "duration": 0.121,
        "velocity": 0.52,
        "hand": "right"
      },
      {
        "midi": 74,
        "time": 85.091,
        "duration": 0.273,
        "velocity": 0.74,
        "hand": "right"
      },
      {
        "midi": 36,
        "time": 85.227,
        "duration": 1.091,
        "velocity": 0.5,
        "hand": "left"
      },
      {
        "midi": 48,
        "time": 85.227,
        "duration": 0.122,
        "velocity": 0.17,
        "hand": "left"
      },
      {
        "midi": 60,
        "time": 85.227,
        "duration": 0.409,
        "velocity": 0.23,
        "hand": "right"
      },
      {
        "midi": 70,
        "time": 85.227,
        "duration": 0.273,
        "velocity": 0.22,
        "hand": "right"
      },
      {
        "midi": 48,
        "time": 85.364,
        "duration": 0.818,
        "velocity": 0.69,
        "hand": "left"
      },
      {
        "midi": 52,
        "time": 85.364,
        "duration": 0.394,
        "velocity": 0.19,
        "hand": "left"
      },
      {
        "midi": 64,
        "time": 85.364,
        "duration": 0.273,
        "velocity": 0.18,
        "hand": "right"
      },
      {
        "midi": 67,
        "time": 85.364,
        "duration": 0.136,
        "velocity": 0.08,
        "hand": "right"
      },
      {
        "midi": 72,
        "time": 85.364,
        "duration": 0.273,
        "velocity": 0.79,
        "hand": "right"
      },
      {
        "midi": 55,
        "time": 85.5,
        "duration": 0.545,
        "velocity": 0.65,
        "hand": "left"
      },
      {
        "midi": 70,
        "time": 85.636,
        "duration": 0.258,
        "velocity": 0.55,
        "hand": "right"
      },
      {
        "midi": 52,
        "time": 85.773,
        "duration": 0.409,
        "velocity": 0.08,
        "hand": "left"
      },
      {
        "midi": 60,
        "time": 85.773,
        "duration": 0.136,
        "velocity": 0.28,
        "hand": "right"
      },
      {
        "midi": 64,
        "time": 85.909,
        "duration": 0.545,
        "velocity": 0.47,
        "hand": "right"
      },
      {
        "midi": 67,
        "time": 85.909,
        "duration": 0.258,
        "velocity": 0.54,
        "hand": "right"
      },
      {
        "midi": 70,
        "time": 85.909,
        "duration": 0.136,
        "velocity": 0.42,
        "hand": "right"
      },
      {
        "midi": 60,
        "time": 86.045,
        "duration": 0.136,
        "velocity": 0.2,
        "hand": "right"
      },
      {
        "midi": 67,
        "time": 86.182,
        "duration": 0.273,
        "velocity": 0.09,
        "hand": "right"
      },
      {
        "midi": 72,
        "time": 86.182,
        "duration": 0.136,
        "velocity": 0.08,
        "hand": "right"
      },
      {
        "midi": 69,
        "time": 86.318,
        "duration": 0.273,
        "velocity": 0.49,
        "hand": "right"
      },
      {
        "midi": 41,
        "time": 86.455,
        "duration": 1.091,
        "velocity": 0.52,
        "hand": "left"
      },
      {
        "midi": 53,
        "time": 86.455,
        "duration": 0.955,
        "velocity": 0.57,
        "hand": "left"
      },
      {
        "midi": 60,
        "time": 86.455,
        "duration": 0.257,
        "velocity": 0.57,
        "hand": "right"
      },
      {
        "midi": 65,
        "time": 86.455,
        "duration": 0.53,
        "velocity": 0.4,
        "hand": "right"
      },
      {
        "midi": 72,
        "time": 86.455,
        "duration": 0.273,
        "velocity": 0.63,
        "hand": "right"
      },
      {
        "midi": 77,
        "time": 86.455,
        "duration": 0.273,
        "velocity": 0.74,
        "hand": "right"
      },
      {
        "midi": 60,
        "time": 86.727,
        "duration": 0.273,
        "velocity": 0.49,
        "hand": "right"
      },
      {
        "midi": 65,
        "time": 87,
        "duration": 0.409,
        "velocity": 0.68,
        "hand": "right"
      },
      {
        "midi": 69,
        "time": 87,
        "duration": 0.136,
        "velocity": 0.59,
        "hand": "right"
      },
      {
        "midi": 72,
        "time": 87,
        "duration": 0.068,
        "velocity": 0.14,
        "hand": "right"
      },
      {
        "midi": 77,
        "time": 87,
        "duration": 0.136,
        "velocity": 0.72,
        "hand": "right"
      },
      {
        "midi": 57,
        "time": 87.273,
        "duration": 0.257,
        "velocity": 0.52,
        "hand": "left"
      },
      {
        "midi": 60,
        "time": 87.273,
        "duration": 0.136,
        "velocity": 0.31,
        "hand": "right"
      },
      {
        "midi": 69,
        "time": 87.409,
        "duration": 0.955,
        "velocity": 0.42,
        "hand": "right"
      },
      {
        "midi": 78,
        "time": 87.409,
        "duration": 0.682,
        "velocity": 0.88,
        "hand": "right"
      },
      {
        "midi": 36,
        "time": 87.545,
        "duration": 1.091,
        "velocity": 0.27,
        "hand": "left"
      },
      {
        "midi": 53,
        "time": 87.545,
        "duration": 0.94,
        "velocity": 0.31,
        "hand": "left"
      },
      {
        "midi": 70,
        "time": 87.545,
        "duration": 0.545,
        "velocity": 0.13,
        "hand": "right"
      },
      {
        "midi": 72,
        "time": 87.545,
        "duration": 0.94,
        "velocity": 0.57,
        "hand": "right"
      },
      {
        "midi": 74,
        "time": 87.545,
        "duration": 0.409,
        "velocity": 0.54,
        "hand": "right"
      },
      {
        "midi": 77,
        "time": 87.545,
        "duration": 0.531,
        "velocity": 0.49,
        "hand": "right"
      },
      {
        "midi": 74,
        "time": 88.091,
        "duration": 0.136,
        "velocity": 0.59,
        "hand": "right"
      },
      {
        "midi": 77,
        "time": 88.091,
        "duration": 0.136,
        "velocity": 0.68,
        "hand": "right"
      },
      {
        "midi": 41,
        "time": 88.5,
        "duration": 0.682,
        "velocity": 0.38,
        "hand": "left"
      },
      {
        "midi": 53,
        "time": 88.5,
        "duration": 0.545,
        "velocity": 0.23,
        "hand": "left"
      },
      {
        "midi": 60,
        "time": 88.5,
        "duration": 0.121,
        "velocity": 0.68,
        "hand": "right"
      },
      {
        "midi": 69,
        "time": 88.5,
        "duration": 0.121,
        "velocity": 0.46,
        "hand": "right"
      },
      {
        "midi": 72,
        "time": 88.5,
        "duration": 0.121,
        "velocity": 0.51,
        "hand": "right"
      },
      {
        "midi": 57,
        "time": 88.636,
        "duration": 0.545,
        "velocity": 0.29,
        "hand": "left"
      },
      {
        "midi": 65,
        "time": 88.636,
        "duration": 0.545,
        "velocity": 0.69,
        "hand": "right"
      },
      {
        "midi": 69,
        "time": 88.636,
        "duration": 0.682,
        "velocity": 0.25,
        "hand": "right"
      },
      {
        "midi": 72,
        "time": 88.636,
        "duration": 0.682,
        "velocity": 0.49,
        "hand": "right"
      },
      {
        "midi": 77,
        "time": 88.636,
        "duration": 0.682,
        "velocity": 0.79,
        "hand": "right"
      }
    ]
  },
  "notes1Hand": [
    {
      "midi": 83,
      "time": 0,
      "duration": 2.4,
      "velocity": 0.91,
      "hand": "right"
    },
    {
      "midi": 77,
      "time": 0.818,
      "duration": 0.45,
      "velocity": 0.71,
      "hand": "right"
    },
    {
      "midi": 60,
      "time": 1.636,
      "duration": 0.45,
      "velocity": 0.57,
      "hand": "right"
    },
    {
      "midi": 77,
      "time": 2.455,
      "duration": 0.45,
      "velocity": 0.69,
      "hand": "right"
    },
    {
      "midi": 72,
      "time": 3.273,
      "duration": 0.45,
      "velocity": 0.34,
      "hand": "right"
    },
    {
      "midi": 77,
      "time": 4.091,
      "duration": 0.955,
      "velocity": 0.49,
      "hand": "right"
    },
    {
      "midi": 70,
      "time": 4.909,
      "duration": 0.45,
      "velocity": 0.57,
      "hand": "right"
    },
    {
      "midi": 76,
      "time": 5.727,
      "duration": 0.45,
      "velocity": 0.5,
      "hand": "right"
    },
    {
      "midi": 74,
      "time": 6.545,
      "duration": 0.45,
      "velocity": 0.63,
      "hand": "right"
    },
    {
      "midi": 76,
      "time": 7.364,
      "duration": 0.545,
      "velocity": 0.62,
      "hand": "right"
    },
    {
      "midi": 60,
      "time": 8.045,
      "duration": 0.45,
      "velocity": 0.62,
      "hand": "right"
    },
    {
      "midi": 72,
      "time": 8.727,
      "duration": 0.45,
      "velocity": 0.79,
      "hand": "right"
    },
    {
      "midi": 77,
      "time": 9.545,
      "duration": 0.45,
      "velocity": 0.68,
      "hand": "right"
    },
    {
      "midi": 60,
      "time": 10.364,
      "duration": 0.45,
      "velocity": 0.39,
      "hand": "right"
    },
    {
      "midi": 78,
      "time": 11.045,
      "duration": 2.4,
      "velocity": 0.95,
      "hand": "right"
    },
    {
      "midi": 77,
      "time": 11.727,
      "duration": 0.45,
      "velocity": 0.41,
      "hand": "right"
    },
    {
      "midi": 58,
      "time": 12.409,
      "duration": 0.682,
      "velocity": 0.46,
      "hand": "right"
    },
    {
      "midi": 70,
      "time": 13.091,
      "duration": 0.45,
      "velocity": 0.76,
      "hand": "right"
    },
    {
      "midi": 74,
      "time": 13.909,
      "duration": 0.45,
      "velocity": 0.76,
      "hand": "right"
    },
    {
      "midi": 55,
      "time": 14.727,
      "duration": 0.45,
      "velocity": 0.55,
      "hand": "right"
    },
    {
      "midi": 76,
      "time": 15.545,
      "duration": 0.45,
      "velocity": 0.54,
      "hand": "right"
    },
    {
      "midi": 74,
      "time": 16.364,
      "duration": 0.45,
      "velocity": 0.81,
      "hand": "right"
    },
    {
      "midi": 77,
      "time": 17.182,
      "duration": 0.45,
      "velocity": 0.72,
      "hand": "right"
    },
    {
      "midi": 60,
      "time": 18,
      "duration": 0.45,
      "velocity": 0.69,
      "hand": "right"
    },
    {
      "midi": 55,
      "time": 18.682,
      "duration": 0.45,
      "velocity": 0.66,
      "hand": "right"
    },
    {
      "midi": 74,
      "time": 19.364,
      "duration": 0.45,
      "velocity": 0.76,
      "hand": "right"
    },
    {
      "midi": 67,
      "time": 20.182,
      "duration": 0.45,
      "velocity": 0.59,
      "hand": "right"
    },
    {
      "midi": 77,
      "time": 21,
      "duration": 0.45,
      "velocity": 0.71,
      "hand": "right"
    },
    {
      "midi": 76,
      "time": 21.818,
      "duration": 0.45,
      "velocity": 0.55,
      "hand": "right"
    },
    {
      "midi": 74,
      "time": 22.636,
      "duration": 0.531,
      "velocity": 0.74,
      "hand": "right"
    },
    {
      "midi": 70,
      "time": 23.455,
      "duration": 0.45,
      "velocity": 0.66,
      "hand": "right"
    },
    {
      "midi": 70,
      "time": 24.273,
      "duration": 0.45,
      "velocity": 0.41,
      "hand": "right"
    },
    {
      "midi": 64,
      "time": 25.091,
      "duration": 0.45,
      "velocity": 0.69,
      "hand": "right"
    },
    {
      "midi": 77,
      "time": 25.909,
      "duration": 0.45,
      "velocity": 0.72,
      "hand": "right"
    },
    {
      "midi": 60,
      "time": 26.727,
      "duration": 0.545,
      "velocity": 0.45,
      "hand": "right"
    },
    {
      "midi": 76,
      "time": 27.545,
      "duration": 0.45,
      "velocity": 0.68,
      "hand": "right"
    },
    {
      "midi": 67,
      "time": 28.227,
      "duration": 0.45,
      "velocity": 0.59,
      "hand": "right"
    },
    {
      "midi": 76,
      "time": 29.045,
      "duration": 0.45,
      "velocity": 0.54,
      "hand": "right"
    },
    {
      "midi": 74,
      "time": 29.727,
      "duration": 0.45,
      "velocity": 0.89,
      "hand": "right"
    },
    {
      "midi": 72,
      "time": 30.545,
      "duration": 0.45,
      "velocity": 0.62,
      "hand": "right"
    },
    {
      "midi": 65,
      "time": 31.227,
      "duration": 0.545,
      "velocity": 0.63,
      "hand": "right"
    },
    {
      "midi": 74,
      "time": 31.909,
      "duration": 0.45,
      "velocity": 0.61,
      "hand": "right"
    },
    {
      "midi": 62,
      "time": 32.591,
      "duration": 0.45,
      "velocity": 0.17,
      "hand": "right"
    },
    {
      "midi": 67,
      "time": 33.273,
      "duration": 0.45,
      "velocity": 0.79,
      "hand": "right"
    },
    {
      "midi": 83,
      "time": 33.955,
      "duration": 2.4,
      "velocity": 0.74,
      "hand": "right"
    },
    {
      "midi": 72,
      "time": 34.773,
      "duration": 0.45,
      "velocity": 0.72,
      "hand": "right"
    },
    {
      "midi": 70,
      "time": 35.455,
      "duration": 0.45,
      "velocity": 0.39,
      "hand": "right"
    },
    {
      "midi": 78,
      "time": 36.136,
      "duration": 2.4,
      "velocity": 0.64,
      "hand": "right"
    },
    {
      "midi": 74,
      "time": 36.818,
      "duration": 0.682,
      "velocity": 0.68,
      "hand": "right"
    },
    {
      "midi": 72,
      "time": 37.636,
      "duration": 0.45,
      "velocity": 0.92,
      "hand": "right"
    },
    {
      "midi": 69,
      "time": 38.318,
      "duration": 0.45,
      "velocity": 0.46,
      "hand": "right"
    },
    {
      "midi": 77,
      "time": 39,
      "duration": 0.545,
      "velocity": 0.43,
      "hand": "right"
    },
    {
      "midi": 70,
      "time": 39.682,
      "duration": 0.45,
      "velocity": 0.39,
      "hand": "right"
    },
    {
      "midi": 69,
      "time": 40.364,
      "duration": 0.45,
      "velocity": 0.79,
      "hand": "right"
    },
    {
      "midi": 74,
      "time": 41.045,
      "duration": 0.45,
      "velocity": 0.45,
      "hand": "right"
    },
    {
      "midi": 72,
      "time": 41.727,
      "duration": 0.45,
      "velocity": 0.89,
      "hand": "right"
    },
    {
      "midi": 67,
      "time": 42.545,
      "duration": 0.45,
      "velocity": 0.68,
      "hand": "right"
    },
    {
      "midi": 72,
      "time": 43.227,
      "duration": 0.45,
      "velocity": 0.45,
      "hand": "right"
    },
    {
      "midi": 72,
      "time": 43.909,
      "duration": 0.45,
      "velocity": 0.79,
      "hand": "right"
    },
    {
      "midi": 72,
      "time": 44.727,
      "duration": 0.45,
      "velocity": 0.49,
      "hand": "right"
    },
    {
      "midi": 77,
      "time": 45.545,
      "duration": 0.45,
      "velocity": 0.74,
      "hand": "right"
    },
    {
      "midi": 65,
      "time": 46.227,
      "duration": 0.682,
      "velocity": 0.35,
      "hand": "right"
    },
    {
      "midi": 72,
      "time": 46.909,
      "duration": 0.45,
      "velocity": 0.76,
      "hand": "right"
    },
    {
      "midi": 62,
      "time": 47.591,
      "duration": 0.45,
      "velocity": 0.08,
      "hand": "right"
    },
    {
      "midi": 74,
      "time": 48.273,
      "duration": 0.45,
      "velocity": 0.79,
      "hand": "right"
    },
    {
      "midi": 79,
      "time": 49.091,
      "duration": 0.45,
      "velocity": 0.41,
      "hand": "right"
    },
    {
      "midi": 64,
      "time": 49.773,
      "duration": 0.45,
      "velocity": 0.08,
      "hand": "right"
    },
    {
      "midi": 76,
      "time": 50.455,
      "duration": 0.45,
      "velocity": 0.59,
      "hand": "right"
    },
    {
      "midi": 60,
      "time": 51.136,
      "duration": 0.45,
      "velocity": 0.34,
      "hand": "right"
    },
    {
      "midi": 60,
      "time": 51.818,
      "duration": 0.45,
      "velocity": 0.65,
      "hand": "right"
    },
    {
      "midi": 77,
      "time": 52.636,
      "duration": 0.45,
      "velocity": 0.61,
      "hand": "right"
    },
    {
      "midi": 70,
      "time": 53.455,
      "duration": 0.45,
      "velocity": 0.62,
      "hand": "right"
    },
    {
      "midi": 78,
      "time": 54.273,
      "duration": 2.4,
      "velocity": 0.88,
      "hand": "right"
    },
    {
      "midi": 74,
      "time": 55.091,
      "duration": 0.45,
      "velocity": 0.81,
      "hand": "right"
    },
    {
      "midi": 74,
      "time": 55.909,
      "duration": 0.45,
      "velocity": 0.81,
      "hand": "right"
    },
    {
      "midi": 58,
      "time": 56.591,
      "duration": 0.45,
      "velocity": 0.59,
      "hand": "right"
    },
    {
      "midi": 70,
      "time": 57.273,
      "duration": 0.45,
      "velocity": 0.71,
      "hand": "right"
    },
    {
      "midi": 60,
      "time": 57.955,
      "duration": 0.45,
      "velocity": 0.66,
      "hand": "right"
    },
    {
      "midi": 76,
      "time": 58.636,
      "duration": 0.45,
      "velocity": 0.74,
      "hand": "right"
    },
    {
      "midi": 55,
      "time": 59.318,
      "duration": 0.45,
      "velocity": 0.47,
      "hand": "right"
    },
    {
      "midi": 78,
      "time": 60,
      "duration": 2.167,
      "velocity": 0.67,
      "hand": "right"
    },
    {
      "midi": 72,
      "time": 60.682,
      "duration": 0.45,
      "velocity": 0.47,
      "hand": "right"
    },
    {
      "midi": 77,
      "time": 61.364,
      "duration": 0.45,
      "velocity": 0.72,
      "hand": "right"
    },
    {
      "midi": 78,
      "time": 62.182,
      "duration": 0.818,
      "velocity": 0.68,
      "hand": "right"
    },
    {
      "midi": 79,
      "time": 63,
      "duration": 0.545,
      "velocity": 0.57,
      "hand": "right"
    },
    {
      "midi": 55,
      "time": 63.682,
      "duration": 0.545,
      "velocity": 0.25,
      "hand": "right"
    },
    {
      "midi": 77,
      "time": 64.5,
      "duration": 0.45,
      "velocity": 0.71,
      "hand": "right"
    },
    {
      "midi": 77,
      "time": 65.182,
      "duration": 0.45,
      "velocity": 0.71,
      "hand": "right"
    },
    {
      "midi": 57,
      "time": 65.864,
      "duration": 0.682,
      "velocity": 0.65,
      "hand": "right"
    },
    {
      "midi": 83,
      "time": 66.682,
      "duration": 2.4,
      "velocity": 0.8,
      "hand": "right"
    },
    {
      "midi": 74,
      "time": 67.364,
      "duration": 0.545,
      "velocity": 0.92,
      "hand": "right"
    },
    {
      "midi": 60,
      "time": 68.182,
      "duration": 0.45,
      "velocity": 0.57,
      "hand": "right"
    },
    {
      "midi": 77,
      "time": 69,
      "duration": 0.45,
      "velocity": 0.61,
      "hand": "right"
    },
    {
      "midi": 69,
      "time": 69.818,
      "duration": 0.45,
      "velocity": 0.79,
      "hand": "right"
    },
    {
      "midi": 77,
      "time": 70.636,
      "duration": 0.545,
      "velocity": 0.86,
      "hand": "right"
    },
    {
      "midi": 74,
      "time": 71.318,
      "duration": 0.45,
      "velocity": 0.86,
      "hand": "right"
    },
    {
      "midi": 76,
      "time": 72.136,
      "duration": 0.45,
      "velocity": 0.59,
      "hand": "right"
    },
    {
      "midi": 76,
      "time": 72.818,
      "duration": 0.545,
      "velocity": 0.68,
      "hand": "right"
    },
    {
      "midi": 60,
      "time": 73.5,
      "duration": 0.545,
      "velocity": 0.69,
      "hand": "right"
    },
    {
      "midi": 72,
      "time": 74.182,
      "duration": 0.45,
      "velocity": 0.66,
      "hand": "right"
    },
    {
      "midi": 69,
      "time": 74.864,
      "duration": 0.545,
      "velocity": 0.65,
      "hand": "right"
    },
    {
      "midi": 74,
      "time": 75.545,
      "duration": 0.45,
      "velocity": 0.71,
      "hand": "right"
    },
    {
      "midi": 79,
      "time": 76.364,
      "duration": 0.45,
      "velocity": 0.46,
      "hand": "right"
    },
    {
      "midi": 72,
      "time": 77.045,
      "duration": 0.45,
      "velocity": 0.81,
      "hand": "right"
    },
    {
      "midi": 77,
      "time": 77.727,
      "duration": 0.45,
      "velocity": 0.68,
      "hand": "right"
    },
    {
      "midi": 78,
      "time": 78.409,
      "duration": 1.227,
      "velocity": 0.38,
      "hand": "right"
    },
    {
      "midi": 70,
      "time": 79.091,
      "duration": 0.45,
      "velocity": 0.66,
      "hand": "right"
    },
    {
      "midi": 78,
      "time": 79.773,
      "duration": 2.167,
      "velocity": 0.81,
      "hand": "right"
    },
    {
      "midi": 74,
      "time": 80.455,
      "duration": 0.545,
      "velocity": 0.83,
      "hand": "right"
    },
    {
      "midi": 72,
      "time": 81.273,
      "duration": 0.45,
      "velocity": 0.86,
      "hand": "right"
    },
    {
      "midi": 78,
      "time": 81.955,
      "duration": 2.045,
      "velocity": 0.7,
      "hand": "right"
    },
    {
      "midi": 77,
      "time": 82.636,
      "duration": 0.545,
      "velocity": 0.72,
      "hand": "right"
    },
    {
      "midi": 70,
      "time": 83.455,
      "duration": 0.45,
      "velocity": 0.47,
      "hand": "right"
    },
    {
      "midi": 78,
      "time": 84.136,
      "duration": 2.4,
      "velocity": 0.84,
      "hand": "right"
    },
    {
      "midi": 70,
      "time": 84.818,
      "duration": 0.45,
      "velocity": 0.62,
      "hand": "right"
    },
    {
      "midi": 55,
      "time": 85.5,
      "duration": 0.545,
      "velocity": 0.65,
      "hand": "right"
    },
    {
      "midi": 72,
      "time": 86.182,
      "duration": 0.45,
      "velocity": 0.08,
      "hand": "right"
    },
    {
      "midi": 77,
      "time": 87,
      "duration": 0.45,
      "velocity": 0.72,
      "hand": "right"
    },
    {
      "midi": 77,
      "time": 88.091,
      "duration": 0.45,
      "velocity": 0.68,
      "hand": "right"
    }
  ],
  "notes2Hands": [
    {
      "midi": 72,
      "time": 0,
      "duration": 0.136,
      "velocity": 0.71,
      "hand": "right"
    },
    {
      "midi": 78,
      "time": 0,
      "duration": 1.227,
      "velocity": 0.43,
      "hand": "right"
    },
    {
      "midi": 83,
      "time": 0,
      "duration": 7.758,
      "velocity": 0.91,
      "hand": "right"
    },
    {
      "midi": 53,
      "time": 0.273,
      "duration": 0.682,
      "velocity": 0.33,
      "hand": "left"
    },
    {
      "midi": 57,
      "time": 0.273,
      "duration": 0.682,
      "velocity": 0.57,
      "hand": "left"
    },
    {
      "midi": 65,
      "time": 0.273,
      "duration": 0.682,
      "velocity": 0.27,
      "hand": "right"
    },
    {
      "midi": 69,
      "time": 0.273,
      "duration": 0.273,
      "velocity": 0.51,
      "hand": "right"
    },
    {
      "midi": 72,
      "time": 0.273,
      "duration": 0.136,
      "velocity": 0.63,
      "hand": "right"
    },
    {
      "midi": 77,
      "time": 0.273,
      "duration": 0.136,
      "velocity": 0.74,
      "hand": "right"
    },
    {
      "midi": 72,
      "time": 0.545,
      "duration": 0.136,
      "velocity": 0.86,
      "hand": "right"
    },
    {
      "midi": 69,
      "time": 0.818,
      "duration": 0.136,
      "velocity": 0.65,
      "hand": "right"
    },
    {
      "midi": 72,
      "time": 0.818,
      "duration": 0.273,
      "velocity": 0.86,
      "hand": "right"
    },
    {
      "midi": 77,
      "time": 0.818,
      "duration": 0.068,
      "velocity": 0.71,
      "hand": "right"
    },
    {
      "midi": 70,
      "time": 1.091,
      "duration": 0.273,
      "velocity": 0.69,
      "hand": "right"
    },
    {
      "midi": 41,
      "time": 1.364,
      "duration": 0.818,
      "velocity": 0.62,
      "hand": "left"
    },
    {
      "midi": 53,
      "time": 1.364,
      "duration": 0.955,
      "velocity": 0.55,
      "hand": "left"
    },
    {
      "midi": 69,
      "time": 1.364,
      "duration": 0.273,
      "velocity": 0.46,
      "hand": "right"
    },
    {
      "midi": 72,
      "time": 1.364,
      "duration": 0.136,
      "velocity": 0.61,
      "hand": "right"
    },
    {
      "midi": 78,
      "time": 1.364,
      "duration": 2.985,
      "velocity": 0.65,
      "hand": "right"
    },
    {
      "midi": 60,
      "time": 1.636,
      "duration": 0.273,
      "velocity": 0.57,
      "hand": "right"
    },
    {
      "midi": 65,
      "time": 1.909,
      "duration": 0.409,
      "velocity": 0.68,
      "hand": "right"
    },
    {
      "midi": 69,
      "time": 1.909,
      "duration": 0.258,
      "velocity": 0.61,
      "hand": "right"
    },
    {
      "midi": 72,
      "time": 1.909,
      "duration": 0.068,
      "velocity": 0.59,
      "hand": "right"
    },
    {
      "midi": 77,
      "time": 1.909,
      "duration": 0.273,
      "velocity": 0.76,
      "hand": "right"
    },
    {
      "midi": 69,
      "time": 2.182,
      "duration": 0.258,
      "velocity": 0.43,
      "hand": "right"
    },
    {
      "midi": 76,
      "time": 2.182,
      "duration": 0.273,
      "velocity": 0.62,
      "hand": "right"
    },
    {
      "midi": 38,
      "time": 2.455,
      "duration": 0.955,
      "velocity": 0.52,
      "hand": "left"
    },
    {
      "midi": 53,
      "time": 2.455,
      "duration": 0.682,
      "velocity": 0.33,
      "hand": "left"
    },
    {
      "midi": 69,
      "time": 2.455,
      "duration": 0.136,
      "velocity": 0.51,
      "hand": "right"
    },
    {
      "midi": 72,
      "time": 2.455,
      "duration": 0.068,
      "velocity": 0.38,
      "hand": "right"
    },
    {
      "midi": 74,
      "time": 2.455,
      "duration": 0.136,
      "velocity": 0.79,
      "hand": "right"
    },
    {
      "midi": 77,
      "time": 2.455,
      "duration": 0.068,
      "velocity": 0.69,
      "hand": "right"
    },
    {
      "midi": 60,
      "time": 2.727,
      "duration": 0.545,
      "velocity": 0.52,
      "hand": "right"
    },
    {
      "midi": 74,
      "time": 2.727,
      "duration": 0.136,
      "velocity": 0.83,
      "hand": "right"
    },
    {
      "midi": 69,
      "time": 3,
      "duration": 0.136,
      "velocity": 0.51,
      "hand": "right"
    },
    {
      "midi": 72,
      "time": 3,
      "duration": 0.068,
      "velocity": 0.65,
      "hand": "right"
    },
    {
      "midi": 74,
      "time": 3,
      "duration": 0.273,
      "velocity": 0.81,
      "hand": "right"
    },
    {
      "midi": 77,
      "time": 3,
      "duration": 0.136,
      "velocity": 0.74,
      "hand": "right"
    },
    {
      "midi": 69,
      "time": 3.273,
      "duration": 0.273,
      "velocity": 0.42,
      "hand": "right"
    },
    {
      "midi": 72,
      "time": 3.273,
      "duration": 0.273,
      "velocity": 0.34,
      "hand": "right"
    },
    {
      "midi": 43,
      "time": 3.545,
      "duration": 0.955,
      "velocity": 0.55,
      "hand": "left"
    },
    {
      "midi": 55,
      "time": 3.545,
      "duration": 0.682,
      "velocity": 0.17,
      "hand": "left"
    },
    {
      "midi": 62,
      "time": 3.545,
      "duration": 0.682,
      "velocity": 0.41,
      "hand": "right"
    },
    {
      "midi": 67,
      "time": 3.545,
      "duration": 0.682,
      "velocity": 0.15,
      "hand": "right"
    },
    {
      "midi": 70,
      "time": 3.545,
      "duration": 0.273,
      "velocity": 0.5,
      "hand": "right"
    },
    {
      "midi": 74,
      "time": 3.545,
      "duration": 0.531,
      "velocity": 0.86,
      "hand": "right"
    },
    {
      "midi": 65,
      "time": 3.818,
      "duration": 0.409,
      "velocity": 0.52,
      "hand": "right"
    },
    {
      "midi": 70,
      "time": 4.091,
      "duration": 0.258,
      "velocity": 0.23,
      "hand": "right"
    },
    {
      "midi": 74,
      "time": 4.091,
      "duration": 0.53,
      "velocity": 0.83,
      "hand": "right"
    },
    {
      "midi": 77,
      "time": 4.091,
      "duration": 0.955,
      "velocity": 0.49,
      "hand": "right"
    },
    {
      "midi": 62,
      "time": 4.364,
      "duration": 1.227,
      "velocity": 0.55,
      "hand": "right"
    },
    {
      "midi": 70,
      "time": 4.364,
      "duration": 0.136,
      "velocity": 0.74,
      "hand": "right"
    },
    {
      "midi": 78,
      "time": 4.364,
      "duration": 3.273,
      "velocity": 0.91,
      "hand": "right"
    },
    {
      "midi": 41,
      "time": 4.636,
      "duration": 0.818,
      "velocity": 0.69,
      "hand": "left"
    },
    {
      "midi": 53,
      "time": 4.636,
      "duration": 0.682,
      "velocity": 0.43,
      "hand": "left"
    },
    {
      "midi": 65,
      "time": 4.636,
      "duration": 0.531,
      "velocity": 0.55,
      "hand": "right"
    },
    {
      "midi": 70,
      "time": 4.636,
      "duration": 0.258,
      "velocity": 0.72,
      "hand": "right"
    },
    {
      "midi": 74,
      "time": 4.636,
      "duration": 0.273,
      "velocity": 0.76,
      "hand": "right"
    },
    {
      "midi": 70,
      "time": 4.909,
      "duration": 0.258,
      "velocity": 0.57,
      "hand": "right"
    },
    {
      "midi": 65,
      "time": 5.182,
      "duration": 0.409,
      "velocity": 0.49,
      "hand": "right"
    },
    {
      "midi": 70,
      "time": 5.182,
      "duration": 0.273,
      "velocity": 0.55,
      "hand": "right"
    },
    {
      "midi": 74,
      "time": 5.182,
      "duration": 0.136,
      "velocity": 0.79,
      "hand": "right"
    },
    {
      "midi": 69,
      "time": 5.318,
      "duration": 0.273,
      "velocity": 0.83,
      "hand": "right"
    },
    {
      "midi": 74,
      "time": 5.455,
      "duration": 0.273,
      "velocity": 0.52,
      "hand": "right"
    },
    {
      "midi": 77,
      "time": 5.455,
      "duration": 0.273,
      "velocity": 0.34,
      "hand": "right"
    },
    {
      "midi": 36,
      "time": 5.727,
      "duration": 0.818,
      "velocity": 0.54,
      "hand": "left"
    },
    {
      "midi": 48,
      "time": 5.727,
      "duration": 0.682,
      "velocity": 0.28,
      "hand": "left"
    },
    {
      "midi": 67,
      "time": 5.727,
      "duration": 0.258,
      "velocity": 0.74,
      "hand": "right"
    },
    {
      "midi": 70,
      "time": 5.727,
      "duration": 0.273,
      "velocity": 0.38,
      "hand": "right"
    },
    {
      "midi": 72,
      "time": 5.727,
      "duration": 0.273,
      "velocity": 0.4,
      "hand": "right"
    },
    {
      "midi": 76,
      "time": 5.727,
      "duration": 0.273,
      "velocity": 0.5,
      "hand": "right"
    },
    {
      "midi": 67,
      "time": 6,
      "duration": 0.409,
      "velocity": 0.65,
      "hand": "right"
    },
    {
      "midi": 70,
      "time": 6.273,
      "duration": 0.136,
      "velocity": 0.41,
      "hand": "right"
    },
    {
      "midi": 72,
      "time": 6.273,
      "duration": 0.273,
      "velocity": 0.62,
      "hand": "right"
    },
    {
      "midi": 76,
      "time": 6.273,
      "duration": 0.53,
      "velocity": 0.66,
      "hand": "right"
    },
    {
      "midi": 79,
      "time": 6.273,
      "duration": 0.955,
      "velocity": 0.35,
      "hand": "right"
    },
    {
      "midi": 64,
      "time": 6.545,
      "duration": 0.273,
      "velocity": 0.43,
      "hand": "right"
    },
    {
      "midi": 74,
      "time": 6.545,
      "duration": 0.273,
      "velocity": 0.63,
      "hand": "right"
    },
    {
      "midi": 36,
      "time": 6.818,
      "duration": 0.818,
      "velocity": 0.52,
      "hand": "left"
    },
    {
      "midi": 48,
      "time": 6.818,
      "duration": 0.682,
      "velocity": 0.18,
      "hand": "left"
    },
    {
      "midi": 70,
      "time": 6.818,
      "duration": 0.531,
      "velocity": 0.71,
      "hand": "right"
    },
    {
      "midi": 72,
      "time": 6.818,
      "duration": 0.258,
      "velocity": 0.79,
      "hand": "right"
    },
    {
      "midi": 76,
      "time": 6.818,
      "duration": 0.273,
      "velocity": 0.65,
      "hand": "right"
    },
    {
      "midi": 64,
      "time": 6.955,
      "duration": 0.409,
      "velocity": 0.66,
      "hand": "right"
    },
    {
      "midi": 72,
      "time": 7.091,
      "duration": 0.136,
      "velocity": 0.74,
      "hand": "right"
    },
    {
      "midi": 70,
      "time": 7.364,
      "duration": 0.136,
      "velocity": 0.35,
      "hand": "right"
    },
    {
      "midi": 72,
      "time": 7.364,
      "duration": 0.273,
      "velocity": 0.79,
      "hand": "right"
    },
    {
      "midi": 76,
      "time": 7.364,
      "duration": 0.545,
      "velocity": 0.62,
      "hand": "right"
    },
    {
      "midi": 74,
      "time": 7.636,
      "duration": 0.273,
      "velocity": 0.71,
      "hand": "right"
    },
    {
      "midi": 79,
      "time": 7.636,
      "duration": 0.273,
      "velocity": 0.62,
      "hand": "right"
    },
    {
      "midi": 41,
      "time": 7.773,
      "duration": 0.818,
      "velocity": 0.41,
      "hand": "left"
    },
    {
      "midi": 78,
      "time": 7.773,
      "duration": 3.257,
      "velocity": 0.8,
      "hand": "right"
    },
    {
      "midi": 83,
      "time": 7.773,
      "duration": 2.167,
      "velocity": 0.65,
      "hand": "right"
    },
    {
      "midi": 53,
      "time": 7.909,
      "duration": 0.682,
      "velocity": 0.19,
      "hand": "left"
    },
    {
      "midi": 57,
      "time": 7.909,
      "duration": 1.076,
      "velocity": 0.76,
      "hand": "left"
    },
    {
      "midi": 65,
      "time": 7.909,
      "duration": 0.394,
      "velocity": 0.24,
      "hand": "right"
    },
    {
      "midi": 69,
      "time": 7.909,
      "duration": 0.273,
      "velocity": 0.43,
      "hand": "right"
    },
    {
      "midi": 72,
      "time": 7.909,
      "duration": 0.531,
      "velocity": 0.79,
      "hand": "right"
    },
    {
      "midi": 77,
      "time": 7.909,
      "duration": 0.273,
      "velocity": 0.65,
      "hand": "right"
    },
    {
      "midi": 60,
      "time": 8.045,
      "duration": 0.409,
      "velocity": 0.62,
      "hand": "right"
    },
    {
      "midi": 65,
      "time": 8.318,
      "duration": 0.667,
      "velocity": 0.65,
      "hand": "right"
    },
    {
      "midi": 69,
      "time": 8.455,
      "duration": 0.136,
      "velocity": 0.43,
      "hand": "right"
    },
    {
      "midi": 72,
      "time": 8.455,
      "duration": 0.068,
      "velocity": 0.68,
      "hand": "right"
    },
    {
      "midi": 77,
      "time": 8.455,
      "duration": 0.068,
      "velocity": 0.71,
      "hand": "right"
    },
    {
      "midi": 69,
      "time": 8.727,
      "duration": 0.258,
      "velocity": 0.46,
      "hand": "right"
    },
    {
      "midi": 72,
      "time": 8.727,
      "duration": 0.136,
      "velocity": 0.79,
      "hand": "right"
    },
    {
      "midi": 41,
      "time": 9,
      "duration": 0.818,
      "velocity": 0.5,
      "hand": "left"
    },
    {
      "midi": 53,
      "time": 9,
      "duration": 0.682,
      "velocity": 0.19,
      "hand": "left"
    },
    {
      "midi": 65,
      "time": 9,
      "duration": 0.258,
      "velocity": 0.2,
      "hand": "right"
    },
    {
      "midi": 69,
      "time": 9,
      "duration": 0.136,
      "velocity": 0.46,
      "hand": "right"
    },
    {
      "midi": 72,
      "time": 9,
      "duration": 0.258,
      "velocity": 0.71,
      "hand": "right"
    },
    {
      "midi": 77,
      "time": 9,
      "duration": 0.136,
      "velocity": 0.69,
      "hand": "right"
    },
    {
      "midi": 65,
      "time": 9.273,
      "duration": 0.682,
      "velocity": 0.54,
      "hand": "right"
    },
    {
      "midi": 72,
      "time": 9.273,
      "duration": 0.136,
      "velocity": 0.83,
      "hand": "right"
    },
    {
      "midi": 69,
      "time": 9.545,
      "duration": 0.531,
      "velocity": 0.59,
      "hand": "right"
    },
    {
      "midi": 72,
      "time": 9.545,
      "duration": 0.258,
      "velocity": 0.81,
      "hand": "right"
    },
    {
      "midi": 77,
      "time": 9.545,
      "duration": 0.068,
      "velocity": 0.68,
      "hand": "right"
    },
    {
      "midi": 70,
      "time": 9.818,
      "duration": 0.273,
      "velocity": 0.62,
      "hand": "right"
    },
    {
      "midi": 72,
      "time": 9.818,
      "duration": 0.258,
      "velocity": 0.66,
      "hand": "right"
    },
    {
      "midi": 83,
      "time": 9.955,
      "duration": 10,
      "velocity": 0.9,
      "hand": "right"
    },
    {
      "midi": 41,
      "time": 10.091,
      "duration": 0.818,
      "velocity": 0.5,
      "hand": "left"
    },
    {
      "midi": 53,
      "time": 10.091,
      "duration": 0.955,
      "velocity": 0.66,
      "hand": "left"
    },
    {
      "midi": 65,
      "time": 10.091,
      "duration": 0.53,
      "velocity": 0.21,
      "hand": "right"
    },
    {
      "midi": 69,
      "time": 10.091,
      "duration": 0.409,
      "velocity": 0.76,
      "hand": "right"
    },
    {
      "midi": 72,
      "time": 10.091,
      "duration": 0.273,
      "velocity": 0.63,
      "hand": "right"
    },
    {
      "midi": 77,
      "time": 10.091,
      "duration": 0.273,
      "velocity": 0.59,
      "hand": "right"
    },
    {
      "midi": 60,
      "time": 10.364,
      "duration": 0.273,
      "velocity": 0.39,
      "hand": "right"
    },
    {
      "midi": 65,
      "time": 10.636,
      "duration": 0.273,
      "velocity": 0.49,
      "hand": "right"
    },
    {
      "midi": 69,
      "time": 10.636,
      "duration": 0.531,
      "velocity": 0.44,
      "hand": "right"
    },
    {
      "midi": 72,
      "time": 10.636,
      "duration": 0.068,
      "velocity": 0.72,
      "hand": "right"
    },
    {
      "midi": 77,
      "time": 10.636,
      "duration": 0.273,
      "velocity": 0.74,
      "hand": "right"
    },
    {
      "midi": 60,
      "time": 10.773,
      "duration": 0.136,
      "velocity": 0.13,
      "hand": "right"
    },
    {
      "midi": 72,
      "time": 10.909,
      "duration": 0.258,
      "velocity": 0.49,
      "hand": "right"
    },
    {
      "midi": 76,
      "time": 10.909,
      "duration": 0.273,
      "velocity": 0.65,
      "hand": "right"
    },
    {
      "midi": 78,
      "time": 11.045,
      "duration": 3.273,
      "velocity": 0.95,
      "hand": "right"
    },
    {
      "midi": 38,
      "time": 11.182,
      "duration": 0.818,
      "velocity": 0.59,
      "hand": "left"
    },
    {
      "midi": 50,
      "time": 11.182,
      "duration": 0.818,
      "velocity": 0.66,
      "hand": "left"
    },
    {
      "midi": 69,
      "time": 11.182,
      "duration": 0.273,
      "velocity": 0.36,
      "hand": "right"
    },
    {
      "midi": 72,
      "time": 11.182,
      "duration": 0.273,
      "velocity": 0.44,
      "hand": "right"
    },
    {
      "midi": 74,
      "time": 11.182,
      "duration": 0.136,
      "velocity": 0.86,
      "hand": "right"
    },
    {
      "midi": 77,
      "time": 11.182,
      "duration": 0.273,
      "velocity": 0.61,
      "hand": "right"
    },
    {
      "midi": 57,
      "time": 11.455,
      "duration": 0.394,
      "velocity": 0.49,
      "hand": "left"
    },
    {
      "midi": 74,
      "time": 11.455,
      "duration": 0.136,
      "velocity": 0.74,
      "hand": "right"
    },
    {
      "midi": 53,
      "time": 11.727,
      "duration": 0.273,
      "velocity": 0.31,
      "hand": "left"
    },
    {
      "midi": 69,
      "time": 11.727,
      "duration": 0.136,
      "velocity": 0.49,
      "hand": "right"
    },
    {
      "midi": 72,
      "time": 11.727,
      "duration": 0.136,
      "velocity": 0.83,
      "hand": "right"
    },
    {
      "midi": 74,
      "time": 11.727,
      "duration": 0.273,
      "velocity": 0.81,
      "hand": "right"
    },
    {
      "midi": 77,
      "time": 11.727,
      "duration": 0.068,
      "velocity": 0.41,
      "hand": "right"
    },
    {
      "midi": 57,
      "time": 11.864,
      "duration": 0.136,
      "velocity": 0.08,
      "hand": "left"
    },
    {
      "midi": 65,
      "time": 12,
      "duration": 0.273,
      "velocity": 0.5,
      "hand": "right"
    },
    {
      "midi": 69,
      "time": 12,
      "duration": 0.273,
      "velocity": 0.42,
      "hand": "right"
    },
    {
      "midi": 72,
      "time": 12,
      "duration": 0.273,
      "velocity": 0.72,
      "hand": "right"
    },
    {
      "midi": 43,
      "time": 12.273,
      "duration": 1.091,
      "velocity": 0.49,
      "hand": "left"
    },
    {
      "midi": 55,
      "time": 12.273,
      "duration": 0.955,
      "velocity": 0.62,
      "hand": "left"
    },
    {
      "midi": 62,
      "time": 12.273,
      "duration": 0.53,
      "velocity": 0.41,
      "hand": "right"
    },
    {
      "midi": 67,
      "time": 12.273,
      "duration": 0.667,
      "velocity": 0.29,
      "hand": "right"
    },
    {
      "midi": 70,
      "time": 12.273,
      "duration": 0.273,
      "velocity": 0.45,
      "hand": "right"
    },
    {
      "midi": 74,
      "time": 12.273,
      "duration": 0.53,
      "velocity": 0.89,
      "hand": "right"
    },
    {
      "midi": 58,
      "time": 12.409,
      "duration": 0.682,
      "velocity": 0.46,
      "hand": "left"
    },
    {
      "midi": 62,
      "time": 12.818,
      "duration": 0.409,
      "velocity": 0.55,
      "hand": "right"
    },
    {
      "midi": 70,
      "time": 12.818,
      "duration": 0.258,
      "velocity": 0.45,
      "hand": "right"
    },
    {
      "midi": 74,
      "time": 12.818,
      "duration": 0.273,
      "velocity": 0.81,
      "hand": "right"
    },
    {
      "midi": 67,
      "time": 12.955,
      "duration": 0.136,
      "velocity": 0.36,
      "hand": "right"
    },
    {
      "midi": 70,
      "time": 13.091,
      "duration": 0.258,
      "velocity": 0.76,
      "hand": "right"
    },
    {
      "midi": 41,
      "time": 13.364,
      "duration": 0.818,
      "velocity": 0.46,
      "hand": "left"
    },
    {
      "midi": 53,
      "time": 13.364,
      "duration": 0.682,
      "velocity": 0.39,
      "hand": "left"
    },
    {
      "midi": 65,
      "time": 13.364,
      "duration": 0.682,
      "velocity": 0.35,
      "hand": "right"
    },
    {
      "midi": 70,
      "time": 13.364,
      "duration": 0.257,
      "velocity": 0.69,
      "hand": "right"
    },
    {
      "midi": 74,
      "time": 13.364,
      "duration": 0.273,
      "velocity": 0.72,
      "hand": "right"
    },
    {
      "midi": 62,
      "time": 13.636,
      "duration": 0.545,
      "velocity": 0.38,
      "hand": "right"
    },
    {
      "midi": 70,
      "time": 13.636,
      "duration": 0.136,
      "velocity": 0.59,
      "hand": "right"
    },
    {
      "midi": 67,
      "time": 13.909,
      "duration": 0.136,
      "velocity": 0.59,
      "hand": "right"
    },
    {
      "midi": 70,
      "time": 13.909,
      "duration": 0.273,
      "velocity": 0.69,
      "hand": "right"
    },
    {
      "midi": 74,
      "time": 13.909,
      "duration": 0.136,
      "velocity": 0.76,
      "hand": "right"
    },
    {
      "midi": 69,
      "time": 14.182,
      "duration": 0.273,
      "velocity": 0.72,
      "hand": "right"
    },
    {
      "midi": 74,
      "time": 14.182,
      "duration": 0.273,
      "velocity": 0.52,
      "hand": "right"
    },
    {
      "midi": 36,
      "time": 14.455,
      "duration": 1.091,
      "velocity": 0.43,
      "hand": "left"
    },
    {
      "midi": 48,
      "time": 14.455,
      "duration": 1.075,
      "velocity": 0.35,
      "hand": "left"
    },
    {
      "midi": 70,
      "time": 14.455,
      "duration": 0.273,
      "velocity": 0.49,
      "hand": "right"
    },
    {
      "midi": 72,
      "time": 14.455,
      "duration": 0.273,
      "velocity": 0.49,
      "hand": "right"
    },
    {
      "midi": 76,
      "time": 14.455,
      "duration": 0.273,
      "velocity": 0.65,
      "hand": "right"
    },
    {
      "midi": 78,
      "time": 14.455,
      "duration": 3.121,
      "velocity": 0.87,
      "hand": "right"
    },
    {
      "midi": 55,
      "time": 14.727,
      "duration": 0.409,
      "velocity": 0.55,
      "hand": "left"
    },
    {
      "midi": 60,
      "time": 14.864,
      "duration": 0.273,
      "velocity": 0.3,
      "hand": "right"
    },
    {
      "midi": 67,
      "time": 15,
      "duration": 0.955,
      "velocity": 0.52,
      "hand": "right"
    },
    {
      "midi": 70,
      "time": 15,
      "duration": 0.273,
      "velocity": 0.45,
      "hand": "right"
    },
    {
      "midi": 72,
      "time": 15,
      "duration": 0.273,
      "velocity": 0.63,
      "hand": "right"
    },
    {
      "midi": 76,
      "time": 15,
      "duration": 0.273,
      "velocity": 0.65,
      "hand": "right"
    },
    {
      "midi": 52,
      "time": 15.273,
      "duration": 0.257,
      "velocity": 0.62,
      "hand": "left"
    },
    {
      "midi": 74,
      "time": 15.273,
      "duration": 0.273,
      "velocity": 0.83,
      "hand": "right"
    },
    {
      "midi": 40,
      "time": 15.545,
      "duration": 1.091,
      "velocity": 0.49,
      "hand": "left"
    },
    {
      "midi": 48,
      "time": 15.545,
      "duration": 0.682,
      "velocity": 0.2,
      "hand": "left"
    },
    {
      "midi": 70,
      "time": 15.545,
      "duration": 0.273,
      "velocity": 0.35,
      "hand": "right"
    },
    {
      "midi": 72,
      "time": 15.545,
      "duration": 0.258,
      "velocity": 0.79,
      "hand": "right"
    },
    {
      "midi": 76,
      "time": 15.545,
      "duration": 0.273,
      "velocity": 0.54,
      "hand": "right"
    },
    {
      "midi": 60,
      "time": 15.818,
      "duration": 0.273,
      "velocity": 0.5,
      "hand": "right"
    },
    {
      "midi": 72,
      "time": 15.818,
      "duration": 0.136,
      "velocity": 0.72,
      "hand": "right"
    },
    {
      "midi": 64,
      "time": 16.091,
      "duration": 0.545,
      "velocity": 0.41,
      "hand": "right"
    },
    {
      "midi": 70,
      "time": 16.091,
      "duration": 0.136,
      "velocity": 0.38,
      "hand": "right"
    },
    {
      "midi": 72,
      "time": 16.091,
      "duration": 0.273,
      "velocity": 0.79,
      "hand": "right"
    },
    {
      "midi": 76,
      "time": 16.091,
      "duration": 0.136,
      "velocity": 0.55,
      "hand": "right"
    },
    {
      "midi": 60,
      "time": 16.364,
      "duration": 0.136,
      "velocity": 0.34,
      "hand": "right"
    },
    {
      "midi": 67,
      "time": 16.364,
      "duration": 0.273,
      "velocity": 0.41,
      "hand": "right"
    },
    {
      "midi": 74,
      "time": 16.364,
      "duration": 0.273,
      "velocity": 0.81,
      "hand": "right"
    },
    {
      "midi": 41,
      "time": 16.636,
      "duration": 0.955,
      "velocity": 0.5,
      "hand": "left"
    },
    {
      "midi": 53,
      "time": 16.636,
      "duration": 0.818,
      "velocity": 0.21,
      "hand": "left"
    },
    {
      "midi": 65,
      "time": 16.636,
      "duration": 0.531,
      "velocity": 0.4,
      "hand": "right"
    },
    {
      "midi": 69,
      "time": 16.636,
      "duration": 0.273,
      "velocity": 0.46,
      "hand": "right"
    },
    {
      "midi": 72,
      "time": 16.636,
      "duration": 0.531,
      "velocity": 0.79,
      "hand": "right"
    },
    {
      "midi": 77,
      "time": 16.636,
      "duration": 0.273,
      "velocity": 0.69,
      "hand": "right"
    },
    {
      "midi": 60,
      "time": 16.909,
      "duration": 0.273,
      "velocity": 0.65,
      "hand": "right"
    },
    {
      "midi": 65,
      "time": 17.182,
      "duration": 0.409,
      "velocity": 0.43,
      "hand": "right"
    },
    {
      "midi": 69,
      "time": 17.182,
      "duration": 0.53,
      "velocity": 0.59,
      "hand": "right"
    },
    {
      "midi": 72,
      "time": 17.182,
      "duration": 0.136,
      "velocity": 0.72,
      "hand": "right"
    },
    {
      "midi": 77,
      "time": 17.182,
      "duration": 0.136,
      "velocity": 0.72,
      "hand": "right"
    },
    {
      "midi": 60,
      "time": 17.455,
      "duration": 0.257,
      "velocity": 0.42,
      "hand": "right"
    },
    {
      "midi": 72,
      "time": 17.455,
      "duration": 0.257,
      "velocity": 0.39,
      "hand": "right"
    },
    {
      "midi": 78,
      "time": 17.591,
      "duration": 2.045,
      "velocity": 0.65,
      "hand": "right"
    },
    {
      "midi": 41,
      "time": 17.727,
      "duration": 0.955,
      "velocity": 0.49,
      "hand": "left"
    },
    {
      "midi": 53,
      "time": 17.727,
      "duration": 0.818,
      "velocity": 0.66,
      "hand": "left"
    },
    {
      "midi": 65,
      "time": 17.727,
      "duration": 0.531,
      "velocity": 0.27,
      "hand": "right"
    },
    {
      "midi": 69,
      "time": 17.727,
      "duration": 0.273,
      "velocity": 0.54,
      "hand": "right"
    },
    {
      "midi": 72,
      "time": 17.727,
      "duration": 0.394,
      "velocity": 0.81,
      "hand": "right"
    },
    {
      "midi": 77,
      "time": 17.727,
      "duration": 0.273,
      "velocity": 0.69,
      "hand": "right"
    },
    {
      "midi": 60,
      "time": 18,
      "duration": 0.273,
      "velocity": 0.69,
      "hand": "right"
    },
    {
      "midi": 69,
      "time": 18.136,
      "duration": 0.136,
      "velocity": 0.63,
      "hand": "right"
    },
    {
      "midi": 72,
      "time": 18.136,
      "duration": 0.136,
      "velocity": 0.71,
      "hand": "right"
    },
    {
      "midi": 65,
      "time": 18.273,
      "duration": 0.409,
      "velocity": 0.52,
      "hand": "right"
    },
    {
      "midi": 77,
      "time": 18.273,
      "duration": 0.545,
      "velocity": 0.86,
      "hand": "right"
    },
    {
      "midi": 60,
      "time": 18.409,
      "duration": 0.136,
      "velocity": 0.08,
      "hand": "right"
    },
    {
      "midi": 69,
      "time": 18.545,
      "duration": 0.409,
      "velocity": 0.46,
      "hand": "right"
    },
    {
      "midi": 72,
      "time": 18.545,
      "duration": 0.409,
      "velocity": 0.42,
      "hand": "right"
    },
    {
      "midi": 55,
      "time": 18.682,
      "duration": 0.121,
      "velocity": 0.66,
      "hand": "left"
    },
    {
      "midi": 43,
      "time": 18.818,
      "duration": 0.955,
      "velocity": 0.59,
      "hand": "left"
    },
    {
      "midi": 55,
      "time": 18.818,
      "duration": 0.682,
      "velocity": 0.24,
      "hand": "left"
    },
    {
      "midi": 67,
      "time": 18.818,
      "duration": 0.394,
      "velocity": 0.24,
      "hand": "right"
    },
    {
      "midi": 70,
      "time": 18.818,
      "duration": 0.273,
      "velocity": 0.45,
      "hand": "right"
    },
    {
      "midi": 74,
      "time": 18.818,
      "duration": 0.258,
      "velocity": 0.81,
      "hand": "right"
    },
    {
      "midi": 76,
      "time": 18.818,
      "duration": 0.273,
      "velocity": 0.62,
      "hand": "right"
    },
    {
      "midi": 62,
      "time": 18.955,
      "duration": 0.409,
      "velocity": 0.54,
      "hand": "right"
    },
    {
      "midi": 74,
      "time": 19.091,
      "duration": 0.258,
      "velocity": 0.76,
      "hand": "right"
    },
    {
      "midi": 67,
      "time": 19.227,
      "duration": 0.394,
      "velocity": 0.52,
      "hand": "right"
    },
    {
      "midi": 70,
      "time": 19.364,
      "duration": 0.136,
      "velocity": 0.68,
      "hand": "right"
    },
    {
      "midi": 74,
      "time": 19.364,
      "duration": 0.136,
      "velocity": 0.76,
      "hand": "right"
    },
    {
      "midi": 67,
      "time": 19.636,
      "duration": 0.136,
      "velocity": 0.74,
      "hand": "right"
    },
    {
      "midi": 70,
      "time": 19.636,
      "duration": 0.258,
      "velocity": 0.55,
      "hand": "right"
    },
    {
      "midi": 74,
      "time": 19.636,
      "duration": 0.258,
      "velocity": 0.47,
      "hand": "right"
    },
    {
      "midi": 78,
      "time": 19.773,
      "duration": 2.182,
      "velocity": 0.72,
      "hand": "right"
    },
    {
      "midi": 36,
      "time": 19.909,
      "duration": 1.091,
      "velocity": 0.43,
      "hand": "left"
    },
    {
      "midi": 48,
      "time": 19.909,
      "duration": 0.545,
      "velocity": 0.21,
      "hand": "left"
    },
    {
      "midi": 70,
      "time": 19.909,
      "duration": 0.273,
      "velocity": 0.49,
      "hand": "right"
    },
    {
      "midi": 72,
      "time": 19.909,
      "duration": 0.273,
      "velocity": 0.49,
      "hand": "right"
    },
    {
      "midi": 74,
      "time": 19.909,
      "duration": 0.545,
      "velocity": 0.92,
      "hand": "right"
    },
    {
      "midi": 76,
      "time": 19.909,
      "duration": 0.273,
      "velocity": 0.65,
      "hand": "right"
    },
    {
      "midi": 67,
      "time": 20.182,
      "duration": 0.273,
      "velocity": 0.59,
      "hand": "right"
    },
    {
      "midi": 70,
      "time": 20.455,
      "duration": 0.136,
      "velocity": 0.39,
      "hand": "right"
    },
    {
      "midi": 72,
      "time": 20.455,
      "duration": 0.273,
      "velocity": 0.74,
      "hand": "right"
    },
    {
      "midi": 76,
      "time": 20.455,
      "duration": 0.545,
      "velocity": 0.69,
      "hand": "right"
    },
    {
      "midi": 67,
      "time": 20.591,
      "duration": 0.136,
      "velocity": 0.46,
      "hand": "right"
    },
    {
      "midi": 79,
      "time": 20.727,
      "duration": 0.273,
      "velocity": 0.43,
      "hand": "right"
    },
    {
      "midi": 41,
      "time": 21,
      "duration": 0.955,
      "velocity": 0.42,
      "hand": "left"
    },
    {
      "midi": 53,
      "time": 21,
      "duration": 0.682,
      "velocity": 0.26,
      "hand": "left"
    },
    {
      "midi": 69,
      "time": 21,
      "duration": 0.273,
      "velocity": 0.46,
      "hand": "right"
    },
    {
      "midi": 72,
      "time": 21,
      "duration": 0.258,
      "velocity": 0.54,
      "hand": "right"
    },
    {
      "midi": 74,
      "time": 21,
      "duration": 0.273,
      "velocity": 0.49,
      "hand": "right"
    },
    {
      "midi": 77,
      "time": 21,
      "duration": 0.273,
      "velocity": 0.71,
      "hand": "right"
    },
    {
      "midi": 64,
      "time": 21.273,
      "duration": 0.273,
      "velocity": 0.52,
      "hand": "right"
    },
    {
      "midi": 72,
      "time": 21.273,
      "duration": 0.257,
      "velocity": 0.74,
      "hand": "right"
    },
    {
      "midi": 65,
      "time": 21.545,
      "duration": 0.136,
      "velocity": 0.44,
      "hand": "right"
    },
    {
      "midi": 69,
      "time": 21.545,
      "duration": 0.273,
      "velocity": 0.74,
      "hand": "right"
    },
    {
      "midi": 72,
      "time": 21.545,
      "duration": 0.531,
      "velocity": 0.62,
      "hand": "right"
    },
    {
      "midi": 77,
      "time": 21.545,
      "duration": 0.136,
      "velocity": 0.65,
      "hand": "right"
    },
    {
      "midi": 65,
      "time": 21.818,
      "duration": 0.136,
      "velocity": 0.69,
      "hand": "right"
    },
    {
      "midi": 76,
      "time": 21.818,
      "duration": 0.409,
      "velocity": 0.55,
      "hand": "right"
    },
    {
      "midi": 38,
      "time": 22.091,
      "duration": 1.091,
      "velocity": 0.47,
      "hand": "left"
    },
    {
      "midi": 50,
      "time": 22.091,
      "duration": 0.818,
      "velocity": 0.72,
      "hand": "left"
    },
    {
      "midi": 69,
      "time": 22.091,
      "duration": 0.273,
      "velocity": 0.2,
      "hand": "right"
    },
    {
      "midi": 72,
      "time": 22.091,
      "duration": 0.545,
      "velocity": 0.86,
      "hand": "right"
    },
    {
      "midi": 74,
      "time": 22.091,
      "duration": 0.273,
      "velocity": 0.76,
      "hand": "right"
    },
    {
      "midi": 78,
      "time": 22.091,
      "duration": 3.121,
      "velocity": 0.94,
      "hand": "right"
    },
    {
      "midi": 57,
      "time": 22.364,
      "duration": 0.545,
      "velocity": 0.72,
      "hand": "left"
    },
    {
      "midi": 62,
      "time": 22.636,
      "duration": 0.136,
      "velocity": 0.21,
      "hand": "right"
    },
    {
      "midi": 65,
      "time": 22.636,
      "duration": 0.545,
      "velocity": 0.62,
      "hand": "right"
    },
    {
      "midi": 69,
      "time": 22.636,
      "duration": 0.545,
      "velocity": 0.52,
      "hand": "right"
    },
    {
      "midi": 74,
      "time": 22.636,
      "duration": 0.531,
      "velocity": 0.74,
      "hand": "right"
    },
    {
      "midi": 62,
      "time": 22.909,
      "duration": 0.136,
      "velocity": 0.49,
      "hand": "right"
    },
    {
      "midi": 55,
      "time": 23.045,
      "duration": 0.122,
      "velocity": 0.59,
      "hand": "left"
    },
    {
      "midi": 43,
      "time": 23.182,
      "duration": 0.955,
      "velocity": 0.43,
      "hand": "left"
    },
    {
      "midi": 55,
      "time": 23.182,
      "duration": 0.682,
      "velocity": 0.2,
      "hand": "left"
    },
    {
      "midi": 67,
      "time": 23.182,
      "duration": 0.409,
      "velocity": 0.3,
      "hand": "right"
    },
    {
      "midi": 70,
      "time": 23.182,
      "duration": 0.258,
      "velocity": 0.41,
      "hand": "right"
    },
    {
      "midi": 72,
      "time": 23.182,
      "duration": 0.273,
      "velocity": 0.57,
      "hand": "right"
    },
    {
      "midi": 74,
      "time": 23.182,
      "duration": 0.273,
      "velocity": 0.69,
      "hand": "right"
    },
    {
      "midi": 62,
      "time": 23.455,
      "duration": 0.257,
      "velocity": 0.47,
      "hand": "right"
    },
    {
      "midi": 70,
      "time": 23.455,
      "duration": 0.257,
      "velocity": 0.66,
      "hand": "right"
    },
    {
      "midi": 62,
      "time": 23.727,
      "duration": 0.136,
      "velocity": 0.24,
      "hand": "right"
    },
    {
      "midi": 67,
      "time": 23.727,
      "duration": 0.273,
      "velocity": 0.49,
      "hand": "right"
    },
    {
      "midi": 70,
      "time": 23.727,
      "duration": 0.258,
      "velocity": 0.69,
      "hand": "right"
    },
    {
      "midi": 74,
      "time": 23.727,
      "duration": 0.258,
      "velocity": 0.89,
      "hand": "right"
    },
    {
      "midi": 70,
      "time": 24,
      "duration": 0.258,
      "velocity": 0.71,
      "hand": "right"
    },
    {
      "midi": 74,
      "time": 24,
      "duration": 0.273,
      "velocity": 0.65,
      "hand": "right"
    },
    {
      "midi": 36,
      "time": 24.273,
      "duration": 1.091,
      "velocity": 0.43,
      "hand": "left"
    },
    {
      "midi": 48,
      "time": 24.273,
      "duration": 0.818,
      "velocity": 0.57,
      "hand": "left"
    },
    {
      "midi": 64,
      "time": 24.273,
      "duration": 0.273,
      "velocity": 0.47,
      "hand": "right"
    },
    {
      "midi": 67,
      "time": 24.273,
      "duration": 0.273,
      "velocity": 0.39,
      "hand": "right"
    },
    {
      "midi": 70,
      "time": 24.273,
      "duration": 0.409,
      "velocity": 0.41,
      "hand": "right"
    },
    {
      "midi": 55,
      "time": 24.545,
      "duration": 0.273,
      "velocity": 0.08,
      "hand": "left"
    },
    {
      "midi": 60,
      "time": 24.545,
      "duration": 0.409,
      "velocity": 0.38,
      "hand": "right"
    },
    {
      "midi": 64,
      "time": 24.818,
      "duration": 0.545,
      "velocity": 0.52,
      "hand": "right"
    },
    {
      "midi": 67,
      "time": 24.818,
      "duration": 0.545,
      "velocity": 0.76,
      "hand": "right"
    },
    {
      "midi": 70,
      "time": 24.818,
      "duration": 0.136,
      "velocity": 0.41,
      "hand": "right"
    },
    {
      "midi": 52,
      "time": 25.091,
      "duration": 0.136,
      "velocity": 0.69,
      "hand": "left"
    },
    {
      "midi": 78,
      "time": 25.227,
      "duration": 1.213,
      "velocity": 0.91,
      "hand": "right"
    },
    {
      "midi": 41,
      "time": 25.364,
      "duration": 0.955,
      "velocity": 0.43,
      "hand": "left"
    },
    {
      "midi": 53,
      "time": 25.364,
      "duration": 1.076,
      "velocity": 0.46,
      "hand": "left"
    },
    {
      "midi": 65,
      "time": 25.364,
      "duration": 0.53,
      "velocity": 0.81,
      "hand": "right"
    },
    {
      "midi": 69,
      "time": 25.364,
      "duration": 0.273,
      "velocity": 0.39,
      "hand": "right"
    },
    {
      "midi": 72,
      "time": 25.364,
      "duration": 0.273,
      "velocity": 0.63,
      "hand": "right"
    },
    {
      "midi": 77,
      "time": 25.364,
      "duration": 0.273,
      "velocity": 0.69,
      "hand": "right"
    },
    {
      "midi": 60,
      "time": 25.636,
      "duration": 0.273,
      "velocity": 0.49,
      "hand": "right"
    },
    {
      "midi": 65,
      "time": 25.909,
      "duration": 0.409,
      "velocity": 0.81,
      "hand": "right"
    },
    {
      "midi": 69,
      "time": 25.909,
      "duration": 0.258,
      "velocity": 0.69,
      "hand": "right"
    },
    {
      "midi": 72,
      "time": 25.909,
      "duration": 0.136,
      "velocity": 0.57,
      "hand": "right"
    },
    {
      "midi": 77,
      "time": 25.909,
      "duration": 0.136,
      "velocity": 0.72,
      "hand": "right"
    },
    {
      "midi": 69,
      "time": 26.182,
      "duration": 0.136,
      "velocity": 0.74,
      "hand": "right"
    },
    {
      "midi": 72,
      "time": 26.182,
      "duration": 0.258,
      "velocity": 0.55,
      "hand": "right"
    },
    {
      "midi": 41,
      "time": 26.455,
      "duration": 0.955,
      "velocity": 0.43,
      "hand": "left"
    },
    {
      "midi": 53,
      "time": 26.455,
      "duration": 0.545,
      "velocity": 0.2,
      "hand": "left"
    },
    {
      "midi": 69,
      "time": 26.455,
      "duration": 0.273,
      "velocity": 0.39,
      "hand": "right"
    },
    {
      "midi": 72,
      "time": 26.455,
      "duration": 0.53,
      "velocity": 0.92,
      "hand": "right"
    },
    {
      "midi": 78,
      "time": 26.455,
      "duration": 0.545,
      "velocity": 0.13,
      "hand": "right"
    },
    {
      "midi": 60,
      "time": 26.727,
      "duration": 0.545,
      "velocity": 0.45,
      "hand": "right"
    },
    {
      "midi": 69,
      "time": 26.864,
      "duration": 0.121,
      "velocity": 0.62,
      "hand": "right"
    },
    {
      "midi": 65,
      "time": 27,
      "duration": 0.409,
      "velocity": 0.28,
      "hand": "right"
    },
    {
      "midi": 69,
      "time": 27,
      "duration": 0.136,
      "velocity": 0.41,
      "hand": "right"
    },
    {
      "midi": 72,
      "time": 27,
      "duration": 0.545,
      "velocity": 0.71,
      "hand": "right"
    },
    {
      "midi": 77,
      "time": 27,
      "duration": 0.545,
      "velocity": 0.89,
      "hand": "right"
    },
    {
      "midi": 83,
      "time": 27.136,
      "duration": 6.804,
      "velocity": 0.13,
      "hand": "right"
    },
    {
      "midi": 43,
      "time": 27.545,
      "duration": 0.955,
      "velocity": 0.39,
      "hand": "left"
    },
    {
      "midi": 55,
      "time": 27.545,
      "duration": 0.531,
      "velocity": 0.66,
      "hand": "left"
    },
    {
      "midi": 67,
      "time": 27.545,
      "duration": 0.409,
      "velocity": 0.13,
      "hand": "right"
    },
    {
      "midi": 70,
      "time": 27.545,
      "duration": 0.273,
      "velocity": 0.31,
      "hand": "right"
    },
    {
      "midi": 74,
      "time": 27.545,
      "duration": 0.258,
      "velocity": 0.4,
      "hand": "right"
    },
    {
      "midi": 76,
      "time": 27.545,
      "duration": 0.273,
      "velocity": 0.68,
      "hand": "right"
    },
    {
      "midi": 62,
      "time": 27.682,
      "duration": 0.394,
      "velocity": 0.54,
      "hand": "right"
    },
    {
      "midi": 78,
      "time": 27.682,
      "duration": 1.5,
      "velocity": 0.61,
      "hand": "right"
    },
    {
      "midi": 74,
      "time": 27.818,
      "duration": 0.122,
      "velocity": 0.76,
      "hand": "right"
    },
    {
      "midi": 70,
      "time": 27.955,
      "duration": 0.121,
      "velocity": 0.55,
      "hand": "right"
    },
    {
      "midi": 74,
      "time": 27.955,
      "duration": 0.53,
      "velocity": 0.65,
      "hand": "right"
    },
    {
      "midi": 55,
      "time": 28.091,
      "duration": 0.136,
      "velocity": 0.16,
      "hand": "left"
    },
    {
      "midi": 58,
      "time": 28.091,
      "duration": 0.068,
      "velocity": 0.25,
      "hand": "left"
    },
    {
      "midi": 62,
      "time": 28.091,
      "duration": 0.136,
      "velocity": 0.23,
      "hand": "right"
    },
    {
      "midi": 67,
      "time": 28.091,
      "duration": 0.121,
      "velocity": 0.35,
      "hand": "right"
    },
    {
      "midi": 70,
      "time": 28.091,
      "duration": 0.136,
      "velocity": 0.59,
      "hand": "right"
    },
    {
      "midi": 67,
      "time": 28.227,
      "duration": 0.136,
      "velocity": 0.59,
      "hand": "right"
    },
    {
      "midi": 36,
      "time": 28.5,
      "duration": 1.091,
      "velocity": 0.45,
      "hand": "left"
    },
    {
      "midi": 48,
      "time": 28.5,
      "duration": 0.682,
      "velocity": 0.16,
      "hand": "left"
    },
    {
      "midi": 64,
      "time": 28.5,
      "duration": 0.53,
      "velocity": 0.72,
      "hand": "right"
    },
    {
      "midi": 67,
      "time": 28.5,
      "duration": 0.258,
      "velocity": 0.2,
      "hand": "right"
    },
    {
      "midi": 70,
      "time": 28.5,
      "duration": 0.273,
      "velocity": 0.25,
      "hand": "right"
    },
    {
      "midi": 74,
      "time": 28.5,
      "duration": 0.545,
      "velocity": 0.83,
      "hand": "right"
    },
    {
      "midi": 67,
      "time": 28.773,
      "duration": 0.257,
      "velocity": 0.69,
      "hand": "right"
    },
    {
      "midi": 67,
      "time": 29.045,
      "duration": 0.136,
      "velocity": 0.43,
      "hand": "right"
    },
    {
      "midi": 70,
      "time": 29.045,
      "duration": 0.136,
      "velocity": 0.43,
      "hand": "right"
    },
    {
      "midi": 72,
      "time": 29.045,
      "duration": 0.273,
      "velocity": 0.46,
      "hand": "right"
    },
    {
      "midi": 76,
      "time": 29.045,
      "duration": 0.122,
      "velocity": 0.54,
      "hand": "right"
    },
    {
      "midi": 76,
      "time": 29.182,
      "duration": 0.545,
      "velocity": 0.74,
      "hand": "right"
    },
    {
      "midi": 79,
      "time": 29.318,
      "duration": 0.273,
      "velocity": 0.47,
      "hand": "right"
    },
    {
      "midi": 78,
      "time": 29.455,
      "duration": 1.348,
      "velocity": 0.13,
      "hand": "right"
    },
    {
      "midi": 41,
      "time": 29.591,
      "duration": 1.091,
      "velocity": 0.45,
      "hand": "left"
    },
    {
      "midi": 57,
      "time": 29.591,
      "duration": 0.121,
      "velocity": 0.74,
      "hand": "left"
    },
    {
      "midi": 69,
      "time": 29.591,
      "duration": 0.273,
      "velocity": 0.46,
      "hand": "right"
    },
    {
      "midi": 53,
      "time": 29.727,
      "duration": 0.682,
      "velocity": 0.22,
      "hand": "left"
    },
    {
      "midi": 57,
      "time": 29.727,
      "duration": 0.682,
      "velocity": 0.14,
      "hand": "left"
    },
    {
      "midi": 60,
      "time": 29.727,
      "duration": 0.122,
      "velocity": 0.17,
      "hand": "right"
    },
    {
      "midi": 65,
      "time": 29.727,
      "duration": 0.122,
      "velocity": 0.2,
      "hand": "right"
    },
    {
      "midi": 72,
      "time": 29.727,
      "duration": 0.258,
      "velocity": 0.51,
      "hand": "right"
    },
    {
      "midi": 74,
      "time": 29.727,
      "duration": 0.273,
      "velocity": 0.89,
      "hand": "right"
    },
    {
      "midi": 60,
      "time": 29.864,
      "duration": 0.273,
      "velocity": 0.55,
      "hand": "right"
    },
    {
      "midi": 65,
      "time": 29.864,
      "duration": 0.136,
      "velocity": 0.28,
      "hand": "right"
    },
    {
      "midi": 72,
      "time": 30,
      "duration": 0.258,
      "velocity": 0.79,
      "hand": "right"
    },
    {
      "midi": 65,
      "time": 30.136,
      "duration": 0.273,
      "velocity": 0.38,
      "hand": "right"
    },
    {
      "midi": 69,
      "time": 30.136,
      "duration": 0.122,
      "velocity": 0.62,
      "hand": "right"
    },
    {
      "midi": 69,
      "time": 30.273,
      "duration": 0.273,
      "velocity": 0.81,
      "hand": "right"
    },
    {
      "midi": 72,
      "time": 30.273,
      "duration": 0.136,
      "velocity": 0.61,
      "hand": "right"
    },
    {
      "midi": 65,
      "time": 30.545,
      "duration": 0.136,
      "velocity": 0.72,
      "hand": "right"
    },
    {
      "midi": 72,
      "time": 30.545,
      "duration": 0.258,
      "velocity": 0.62,
      "hand": "right"
    },
    {
      "midi": 38,
      "time": 30.818,
      "duration": 1.091,
      "velocity": 0.49,
      "hand": "left"
    },
    {
      "midi": 50,
      "time": 30.818,
      "duration": 0.818,
      "velocity": 0.66,
      "hand": "left"
    },
    {
      "midi": 65,
      "time": 30.818,
      "duration": 0.273,
      "velocity": 0.44,
      "hand": "right"
    },
    {
      "midi": 69,
      "time": 30.818,
      "duration": 0.273,
      "velocity": 0.18,
      "hand": "right"
    },
    {
      "midi": 72,
      "time": 30.818,
      "duration": 0.545,
      "velocity": 0.92,
      "hand": "right"
    },
    {
      "midi": 78,
      "time": 30.818,
      "duration": 1.485,
      "velocity": 0.72,
      "hand": "right"
    },
    {
      "midi": 57,
      "time": 31.091,
      "duration": 0.545,
      "velocity": 0.57,
      "hand": "left"
    },
    {
      "midi": 65,
      "time": 31.227,
      "duration": 0.545,
      "velocity": 0.63,
      "hand": "right"
    },
    {
      "midi": 69,
      "time": 31.364,
      "duration": 0.545,
      "velocity": 0.55,
      "hand": "right"
    },
    {
      "midi": 74,
      "time": 31.364,
      "duration": 0.409,
      "velocity": 0.92,
      "hand": "right"
    },
    {
      "midi": 62,
      "time": 31.636,
      "duration": 0.136,
      "velocity": 0.42,
      "hand": "right"
    },
    {
      "midi": 55,
      "time": 31.773,
      "duration": 0.121,
      "velocity": 0.57,
      "hand": "left"
    },
    {
      "midi": 43,
      "time": 31.909,
      "duration": 1.091,
      "velocity": 0.45,
      "hand": "left"
    },
    {
      "midi": 55,
      "time": 31.909,
      "duration": 0.682,
      "velocity": 0.18,
      "hand": "left"
    },
    {
      "midi": 67,
      "time": 31.909,
      "duration": 0.394,
      "velocity": 0.28,
      "hand": "right"
    },
    {
      "midi": 70,
      "time": 31.909,
      "duration": 0.258,
      "velocity": 0.46,
      "hand": "right"
    },
    {
      "midi": 72,
      "time": 31.909,
      "duration": 0.273,
      "velocity": 0.72,
      "hand": "right"
    },
    {
      "midi": 74,
      "time": 31.909,
      "duration": 0.409,
      "velocity": 0.61,
      "hand": "right"
    },
    {
      "midi": 62,
      "time": 32.182,
      "duration": 0.258,
      "velocity": 0.47,
      "hand": "right"
    },
    {
      "midi": 70,
      "time": 32.182,
      "duration": 0.258,
      "velocity": 0.74,
      "hand": "right"
    },
    {
      "midi": 67,
      "time": 32.318,
      "duration": 0.122,
      "velocity": 0.25,
      "hand": "right"
    },
    {
      "midi": 78,
      "time": 32.318,
      "duration": 0.409,
      "velocity": 0.13,
      "hand": "right"
    },
    {
      "midi": 62,
      "time": 32.455,
      "duration": 0.121,
      "velocity": 0.08,
      "hand": "right"
    },
    {
      "midi": 67,
      "time": 32.455,
      "duration": 0.273,
      "velocity": 0.46,
      "hand": "right"
    },
    {
      "midi": 70,
      "time": 32.455,
      "duration": 0.257,
      "velocity": 0.49,
      "hand": "right"
    },
    {
      "midi": 74,
      "time": 32.455,
      "duration": 0.545,
      "velocity": 0.97,
      "hand": "right"
    },
    {
      "midi": 62,
      "time": 32.591,
      "duration": 0.068,
      "velocity": 0.17,
      "hand": "right"
    },
    {
      "midi": 70,
      "time": 32.727,
      "duration": 0.258,
      "velocity": 0.74,
      "hand": "right"
    },
    {
      "midi": 79,
      "time": 32.727,
      "duration": 0.273,
      "velocity": 0.55,
      "hand": "right"
    },
    {
      "midi": 48,
      "time": 32.864,
      "duration": 0.121,
      "velocity": 0.25,
      "hand": "left"
    },
    {
      "midi": 52,
      "time": 32.864,
      "duration": 0.682,
      "velocity": 0.31,
      "hand": "left"
    },
    {
      "midi": 64,
      "time": 32.864,
      "duration": 0.273,
      "velocity": 0.42,
      "hand": "right"
    },
    {
      "midi": 36,
      "time": 33,
      "duration": 1.091,
      "velocity": 0.47,
      "hand": "left"
    },
    {
      "midi": 48,
      "time": 33,
      "duration": 0.818,
      "velocity": 0.65,
      "hand": "left"
    },
    {
      "midi": 67,
      "time": 33,
      "duration": 0.258,
      "velocity": 0.4,
      "hand": "right"
    },
    {
      "midi": 70,
      "time": 33,
      "duration": 0.273,
      "velocity": 0.39,
      "hand": "right"
    },
    {
      "midi": 55,
      "time": 33.136,
      "duration": 0.545,
      "velocity": 0.52,
      "hand": "left"
    },
    {
      "midi": 67,
      "time": 33.273,
      "duration": 0.121,
      "velocity": 0.79,
      "hand": "right"
    },
    {
      "midi": 64,
      "time": 33.409,
      "duration": 0.121,
      "velocity": 0.54,
      "hand": "right"
    },
    {
      "midi": 67,
      "time": 33.409,
      "duration": 0.121,
      "velocity": 0.54,
      "hand": "right"
    },
    {
      "midi": 64,
      "time": 33.545,
      "duration": 0.136,
      "velocity": 0.55,
      "hand": "right"
    },
    {
      "midi": 67,
      "time": 33.545,
      "duration": 0.136,
      "velocity": 0.51,
      "hand": "right"
    },
    {
      "midi": 70,
      "time": 33.545,
      "duration": 0.136,
      "velocity": 0.45,
      "hand": "right"
    },
    {
      "midi": 72,
      "time": 33.545,
      "duration": 0.273,
      "velocity": 0.74,
      "hand": "right"
    },
    {
      "midi": 60,
      "time": 33.682,
      "duration": 0.136,
      "velocity": 0.54,
      "hand": "right"
    },
    {
      "midi": 69,
      "time": 33.818,
      "duration": 0.258,
      "velocity": 0.83,
      "hand": "right"
    },
    {
      "midi": 53,
      "time": 33.955,
      "duration": 0.121,
      "velocity": 0.57,
      "hand": "left"
    },
    {
      "midi": 78,
      "time": 33.955,
      "duration": 2.045,
      "velocity": 0.72,
      "hand": "right"
    },
    {
      "midi": 83,
      "time": 33.955,
      "duration": 9.803,
      "velocity": 0.74,
      "hand": "right"
    },
    {
      "midi": 41,
      "time": 34.091,
      "duration": 0.955,
      "velocity": 0.54,
      "hand": "left"
    },
    {
      "midi": 53,
      "time": 34.091,
      "duration": 0.682,
      "velocity": 0.2,
      "hand": "left"
    },
    {
      "midi": 60,
      "time": 34.091,
      "duration": 0.121,
      "velocity": 0.54,
      "hand": "right"
    },
    {
      "midi": 65,
      "time": 34.091,
      "duration": 0.394,
      "velocity": 0.86,
      "hand": "right"
    },
    {
      "midi": 69,
      "time": 34.091,
      "duration": 0.273,
      "velocity": 0.44,
      "hand": "right"
    },
    {
      "midi": 72,
      "time": 34.091,
      "duration": 0.121,
      "velocity": 0.36,
      "hand": "right"
    },
    {
      "midi": 60,
      "time": 34.227,
      "duration": 0.409,
      "velocity": 0.45,
      "hand": "right"
    },
    {
      "midi": 72,
      "time": 34.227,
      "duration": 0.258,
      "velocity": 0.63,
      "hand": "right"
    },
    {
      "midi": 65,
      "time": 34.5,
      "duration": 0.273,
      "velocity": 0.28,
      "hand": "right"
    },
    {
      "midi": 69,
      "time": 34.5,
      "duration": 0.53,
      "velocity": 0.61,
      "hand": "right"
    },
    {
      "midi": 72,
      "time": 34.5,
      "duration": 0.258,
      "velocity": 0.72,
      "hand": "right"
    },
    {
      "midi": 57,
      "time": 34.773,
      "duration": 0.136,
      "velocity": 0.15,
      "hand": "left"
    },
    {
      "midi": 60,
      "time": 34.773,
      "duration": 0.136,
      "velocity": 0.39,
      "hand": "right"
    },
    {
      "midi": 72,
      "time": 34.773,
      "duration": 0.257,
      "velocity": 0.72,
      "hand": "right"
    },
    {
      "midi": 53,
      "time": 35.045,
      "duration": 0.682,
      "velocity": 0.37,
      "hand": "left"
    },
    {
      "midi": 57,
      "time": 35.045,
      "duration": 0.955,
      "velocity": 0.71,
      "hand": "left"
    },
    {
      "midi": 60,
      "time": 35.045,
      "duration": 0.258,
      "velocity": 0.59,
      "hand": "right"
    },
    {
      "midi": 65,
      "time": 35.045,
      "duration": 0.531,
      "velocity": 0.29,
      "hand": "right"
    },
    {
      "midi": 69,
      "time": 35.045,
      "duration": 0.122,
      "velocity": 0.49,
      "hand": "right"
    },
    {
      "midi": 72,
      "time": 35.045,
      "duration": 0.273,
      "velocity": 0.57,
      "hand": "right"
    },
    {
      "midi": 41,
      "time": 35.182,
      "duration": 0.955,
      "velocity": 0.42,
      "hand": "left"
    },
    {
      "midi": 69,
      "time": 35.182,
      "duration": 0.273,
      "velocity": 0.83,
      "hand": "right"
    },
    {
      "midi": 60,
      "time": 35.318,
      "duration": 0.409,
      "velocity": 0.66,
      "hand": "right"
    },
    {
      "midi": 70,
      "time": 35.455,
      "duration": 0.136,
      "velocity": 0.39,
      "hand": "right"
    },
    {
      "midi": 65,
      "time": 35.591,
      "duration": 0.409,
      "velocity": 0.47,
      "hand": "right"
    },
    {
      "midi": 70,
      "time": 35.727,
      "duration": 0.136,
      "velocity": 0.68,
      "hand": "right"
    },
    {
      "midi": 72,
      "time": 35.727,
      "duration": 0.545,
      "velocity": 0.69,
      "hand": "right"
    },
    {
      "midi": 60,
      "time": 35.864,
      "duration": 0.136,
      "velocity": 0.5,
      "hand": "right"
    },
    {
      "midi": 70,
      "time": 36,
      "duration": 0.258,
      "velocity": 0.66,
      "hand": "right"
    },
    {
      "midi": 78,
      "time": 36.136,
      "duration": 3.136,
      "velocity": 0.64,
      "hand": "right"
    },
    {
      "midi": 43,
      "time": 36.273,
      "duration": 0.818,
      "velocity": 0.5,
      "hand": "left"
    },
    {
      "midi": 55,
      "time": 36.273,
      "duration": 0.955,
      "velocity": 0.52,
      "hand": "left"
    },
    {
      "midi": 62,
      "time": 36.273,
      "duration": 0.121,
      "velocity": 0.39,
      "hand": "right"
    },
    {
      "midi": 67,
      "time": 36.273,
      "duration": 0.409,
      "velocity": 0.71,
      "hand": "right"
    },
    {
      "midi": 70,
      "time": 36.273,
      "duration": 0.257,
      "velocity": 0.39,
      "hand": "right"
    },
    {
      "midi": 74,
      "time": 36.273,
      "duration": 0.273,
      "velocity": 0.72,
      "hand": "right"
    },
    {
      "midi": 62,
      "time": 36.409,
      "duration": 0.409,
      "velocity": 0.69,
      "hand": "right"
    },
    {
      "midi": 70,
      "time": 36.545,
      "duration": 0.258,
      "velocity": 0.71,
      "hand": "right"
    },
    {
      "midi": 67,
      "time": 36.818,
      "duration": 0.273,
      "velocity": 0.3,
      "hand": "right"
    },
    {
      "midi": 70,
      "time": 36.818,
      "duration": 0.258,
      "velocity": 0.65,
      "hand": "right"
    },
    {
      "midi": 74,
      "time": 36.818,
      "duration": 0.682,
      "velocity": 0.68,
      "hand": "right"
    },
    {
      "midi": 62,
      "time": 36.955,
      "duration": 0.136,
      "velocity": 0.35,
      "hand": "right"
    },
    {
      "midi": 70,
      "time": 37.091,
      "duration": 0.258,
      "velocity": 0.71,
      "hand": "right"
    },
    {
      "midi": 79,
      "time": 37.091,
      "duration": 0.273,
      "velocity": 0.43,
      "hand": "right"
    },
    {
      "midi": 36,
      "time": 37.364,
      "duration": 1.091,
      "velocity": 0.46,
      "hand": "left"
    },
    {
      "midi": 48,
      "time": 37.364,
      "duration": 0.818,
      "velocity": 0.69,
      "hand": "left"
    },
    {
      "midi": 60,
      "time": 37.364,
      "duration": 0.682,
      "velocity": 0.23,
      "hand": "right"
    },
    {
      "midi": 64,
      "time": 37.364,
      "duration": 0.273,
      "velocity": 0.47,
      "hand": "right"
    },
    {
      "midi": 67,
      "time": 37.364,
      "duration": 0.273,
      "velocity": 0.81,
      "hand": "right"
    },
    {
      "midi": 70,
      "time": 37.364,
      "duration": 0.273,
      "velocity": 0.41,
      "hand": "right"
    },
    {
      "midi": 55,
      "time": 37.636,
      "duration": 0.545,
      "velocity": 0.54,
      "hand": "left"
    },
    {
      "midi": 72,
      "time": 37.636,
      "duration": 0.136,
      "velocity": 0.92,
      "hand": "right"
    },
    {
      "midi": 64,
      "time": 37.909,
      "duration": 0.545,
      "velocity": 0.59,
      "hand": "right"
    },
    {
      "midi": 67,
      "time": 37.909,
      "duration": 0.545,
      "velocity": 0.63,
      "hand": "right"
    },
    {
      "midi": 70,
      "time": 37.909,
      "duration": 0.136,
      "velocity": 0.46,
      "hand": "right"
    },
    {
      "midi": 72,
      "time": 37.909,
      "duration": 0.258,
      "velocity": 0.86,
      "hand": "right"
    },
    {
      "midi": 60,
      "time": 38.182,
      "duration": 0.136,
      "velocity": 0.5,
      "hand": "right"
    },
    {
      "midi": 72,
      "time": 38.182,
      "duration": 0.136,
      "velocity": 0.86,
      "hand": "right"
    },
    {
      "midi": 53,
      "time": 38.318,
      "duration": 0.122,
      "velocity": 0.57,
      "hand": "left"
    },
    {
      "midi": 69,
      "time": 38.318,
      "duration": 0.122,
      "velocity": 0.46,
      "hand": "right"
    },
    {
      "midi": 41,
      "time": 38.455,
      "duration": 0.955,
      "velocity": 0.45,
      "hand": "left"
    },
    {
      "midi": 53,
      "time": 38.455,
      "duration": 0.682,
      "velocity": 0.35,
      "hand": "left"
    },
    {
      "midi": 60,
      "time": 38.455,
      "duration": 0.257,
      "velocity": 0.46,
      "hand": "right"
    },
    {
      "midi": 65,
      "time": 38.455,
      "duration": 0.394,
      "velocity": 0.35,
      "hand": "right"
    },
    {
      "midi": 69,
      "time": 38.455,
      "duration": 0.409,
      "velocity": 0.81,
      "hand": "right"
    },
    {
      "midi": 72,
      "time": 38.455,
      "duration": 0.273,
      "velocity": 0.38,
      "hand": "right"
    },
    {
      "midi": 60,
      "time": 38.727,
      "duration": 0.273,
      "velocity": 0.45,
      "hand": "right"
    },
    {
      "midi": 65,
      "time": 38.864,
      "duration": 0.273,
      "velocity": 0.35,
      "hand": "right"
    },
    {
      "midi": 69,
      "time": 39,
      "duration": 0.53,
      "velocity": 0.71,
      "hand": "right"
    },
    {
      "midi": 72,
      "time": 39,
      "duration": 0.258,
      "velocity": 0.72,
      "hand": "right"
    },
    {
      "midi": 77,
      "time": 39,
      "duration": 0.545,
      "velocity": 0.43,
      "hand": "right"
    },
    {
      "midi": 60,
      "time": 39.136,
      "duration": 0.136,
      "velocity": 0.45,
      "hand": "right"
    },
    {
      "midi": 72,
      "time": 39.273,
      "duration": 0.136,
      "velocity": 0.83,
      "hand": "right"
    },
    {
      "midi": 78,
      "time": 39.409,
      "duration": 3.258,
      "velocity": 0.71,
      "hand": "right"
    },
    {
      "midi": 38,
      "time": 39.545,
      "duration": 1.091,
      "velocity": 0.46,
      "hand": "left"
    },
    {
      "midi": 50,
      "time": 39.545,
      "duration": 0.818,
      "velocity": 0.76,
      "hand": "left"
    },
    {
      "midi": 62,
      "time": 39.545,
      "duration": 0.667,
      "velocity": 0.34,
      "hand": "right"
    },
    {
      "midi": 65,
      "time": 39.545,
      "duration": 0.409,
      "velocity": 0.49,
      "hand": "right"
    },
    {
      "midi": 69,
      "time": 39.545,
      "duration": 0.273,
      "velocity": 0.21,
      "hand": "right"
    },
    {
      "midi": 53,
      "time": 39.682,
      "duration": 0.545,
      "velocity": 0.34,
      "hand": "left"
    },
    {
      "midi": 70,
      "time": 39.682,
      "duration": 0.136,
      "velocity": 0.39,
      "hand": "right"
    },
    {
      "midi": 57,
      "time": 39.818,
      "duration": 0.545,
      "velocity": 0.55,
      "hand": "left"
    },
    {
      "midi": 65,
      "time": 40.091,
      "duration": 0.545,
      "velocity": 0.54,
      "hand": "right"
    },
    {
      "midi": 70,
      "time": 40.091,
      "duration": 0.273,
      "velocity": 0.77,
      "hand": "right"
    },
    {
      "midi": 74,
      "time": 40.091,
      "duration": 0.53,
      "velocity": 0.49,
      "hand": "right"
    },
    {
      "midi": 62,
      "time": 40.227,
      "duration": 0.136,
      "velocity": 0.46,
      "hand": "right"
    },
    {
      "midi": 69,
      "time": 40.364,
      "duration": 0.273,
      "velocity": 0.79,
      "hand": "right"
    },
    {
      "midi": 43,
      "time": 40.5,
      "duration": 0.955,
      "velocity": 0.42,
      "hand": "left"
    },
    {
      "midi": 55,
      "time": 40.636,
      "duration": 0.955,
      "velocity": 0.66,
      "hand": "left"
    },
    {
      "midi": 58,
      "time": 40.636,
      "duration": 0.682,
      "velocity": 0.57,
      "hand": "left"
    },
    {
      "midi": 62,
      "time": 40.636,
      "duration": 0.122,
      "velocity": 0.51,
      "hand": "right"
    },
    {
      "midi": 67,
      "time": 40.636,
      "duration": 0.394,
      "velocity": 0.74,
      "hand": "right"
    },
    {
      "midi": 70,
      "time": 40.636,
      "duration": 0.394,
      "velocity": 0.5,
      "hand": "right"
    },
    {
      "midi": 74,
      "time": 40.636,
      "duration": 0.394,
      "velocity": 0.69,
      "hand": "right"
    },
    {
      "midi": 62,
      "time": 40.773,
      "duration": 0.273,
      "velocity": 0.62,
      "hand": "right"
    },
    {
      "midi": 76,
      "time": 40.909,
      "duration": 0.545,
      "velocity": 0.77,
      "hand": "right"
    },
    {
      "midi": 67,
      "time": 41.045,
      "duration": 0.122,
      "velocity": 0.46,
      "hand": "right"
    },
    {
      "midi": 70,
      "time": 41.045,
      "duration": 0.122,
      "velocity": 0.5,
      "hand": "right"
    },
    {
      "midi": 74,
      "time": 41.045,
      "duration": 0.122,
      "velocity": 0.45,
      "hand": "right"
    },
    {
      "midi": 67,
      "time": 41.182,
      "duration": 0.136,
      "velocity": 0.3,
      "hand": "right"
    },
    {
      "midi": 70,
      "time": 41.182,
      "duration": 0.136,
      "velocity": 0.66,
      "hand": "right"
    },
    {
      "midi": 74,
      "time": 41.182,
      "duration": 0.136,
      "velocity": 0.69,
      "hand": "right"
    },
    {
      "midi": 79,
      "time": 41.182,
      "duration": 0.545,
      "velocity": 0.35,
      "hand": "right"
    },
    {
      "midi": 62,
      "time": 41.318,
      "duration": 0.136,
      "velocity": 0.35,
      "hand": "right"
    },
    {
      "midi": 74,
      "time": 41.455,
      "duration": 0.273,
      "velocity": 0.83,
      "hand": "right"
    },
    {
      "midi": 48,
      "time": 41.591,
      "duration": 0.121,
      "velocity": 0.72,
      "hand": "left"
    },
    {
      "midi": 36,
      "time": 41.727,
      "duration": 0.955,
      "velocity": 0.45,
      "hand": "left"
    },
    {
      "midi": 48,
      "time": 41.727,
      "duration": 0.682,
      "velocity": 0.21,
      "hand": "left"
    },
    {
      "midi": 64,
      "time": 41.727,
      "duration": 0.273,
      "velocity": 0.49,
      "hand": "right"
    },
    {
      "midi": 67,
      "time": 41.727,
      "duration": 0.273,
      "velocity": 0.38,
      "hand": "right"
    },
    {
      "midi": 70,
      "time": 41.727,
      "duration": 0.258,
      "velocity": 0.33,
      "hand": "right"
    },
    {
      "midi": 72,
      "time": 41.727,
      "duration": 0.273,
      "velocity": 0.89,
      "hand": "right"
    },
    {
      "midi": 52,
      "time": 41.864,
      "duration": 0.409,
      "velocity": 0.22,
      "hand": "left"
    },
    {
      "midi": 55,
      "time": 41.864,
      "duration": 0.409,
      "velocity": 0.33,
      "hand": "left"
    },
    {
      "midi": 60,
      "time": 42,
      "duration": 0.545,
      "velocity": 0.28,
      "hand": "right"
    },
    {
      "midi": 70,
      "time": 42,
      "duration": 0.121,
      "velocity": 0.55,
      "hand": "right"
    },
    {
      "midi": 70,
      "time": 42.136,
      "duration": 0.136,
      "velocity": 0.5,
      "hand": "right"
    },
    {
      "midi": 64,
      "time": 42.273,
      "duration": 0.545,
      "velocity": 0.52,
      "hand": "right"
    },
    {
      "midi": 67,
      "time": 42.273,
      "duration": 0.257,
      "velocity": 0.59,
      "hand": "right"
    },
    {
      "midi": 69,
      "time": 42.273,
      "duration": 0.273,
      "velocity": 0.81,
      "hand": "right"
    },
    {
      "midi": 72,
      "time": 42.273,
      "duration": 0.53,
      "velocity": 0.57,
      "hand": "right"
    },
    {
      "midi": 52,
      "time": 42.545,
      "duration": 0.136,
      "velocity": 0.66,
      "hand": "left"
    },
    {
      "midi": 67,
      "time": 42.545,
      "duration": 0.273,
      "velocity": 0.68,
      "hand": "right"
    },
    {
      "midi": 69,
      "time": 42.682,
      "duration": 0.273,
      "velocity": 0.37,
      "hand": "right"
    },
    {
      "midi": 78,
      "time": 42.682,
      "duration": 2.045,
      "velocity": 0.71,
      "hand": "right"
    },
    {
      "midi": 41,
      "time": 42.818,
      "duration": 1.091,
      "velocity": 0.54,
      "hand": "left"
    },
    {
      "midi": 53,
      "time": 42.818,
      "duration": 1.076,
      "velocity": 0.72,
      "hand": "left"
    },
    {
      "midi": 60,
      "time": 42.818,
      "duration": 0.258,
      "velocity": 0.65,
      "hand": "right"
    },
    {
      "midi": 65,
      "time": 42.818,
      "duration": 0.394,
      "velocity": 0.89,
      "hand": "right"
    },
    {
      "midi": 72,
      "time": 42.818,
      "duration": 0.273,
      "velocity": 0.49,
      "hand": "right"
    },
    {
      "midi": 60,
      "time": 43.091,
      "duration": 0.273,
      "velocity": 0.41,
      "hand": "right"
    },
    {
      "midi": 65,
      "time": 43.227,
      "duration": 0.409,
      "velocity": 0.41,
      "hand": "right"
    },
    {
      "midi": 69,
      "time": 43.227,
      "duration": 0.122,
      "velocity": 0.34,
      "hand": "right"
    },
    {
      "midi": 72,
      "time": 43.227,
      "duration": 0.122,
      "velocity": 0.45,
      "hand": "right"
    },
    {
      "midi": 69,
      "time": 43.364,
      "duration": 0.136,
      "velocity": 0.61,
      "hand": "right"
    },
    {
      "midi": 72,
      "time": 43.364,
      "duration": 0.136,
      "velocity": 0.71,
      "hand": "right"
    },
    {
      "midi": 57,
      "time": 43.5,
      "duration": 0.394,
      "velocity": 0.45,
      "hand": "left"
    },
    {
      "midi": 72,
      "time": 43.636,
      "duration": 0.136,
      "velocity": 0.86,
      "hand": "right"
    },
    {
      "midi": 36,
      "time": 43.773,
      "duration": 1.091,
      "velocity": 0.35,
      "hand": "left"
    },
    {
      "midi": 60,
      "time": 43.773,
      "duration": 0.121,
      "velocity": 0.52,
      "hand": "right"
    },
    {
      "midi": 83,
      "time": 43.773,
      "duration": 3.257,
      "velocity": 0.85,
      "hand": "right"
    },
    {
      "midi": 53,
      "time": 43.909,
      "duration": 0.682,
      "velocity": 0.26,
      "hand": "left"
    },
    {
      "midi": 57,
      "time": 43.909,
      "duration": 0.682,
      "velocity": 0.41,
      "hand": "left"
    },
    {
      "midi": 60,
      "time": 43.909,
      "duration": 0.682,
      "velocity": 0.59,
      "hand": "right"
    },
    {
      "midi": 65,
      "time": 43.909,
      "duration": 0.258,
      "velocity": 0.2,
      "hand": "right"
    },
    {
      "midi": 69,
      "time": 43.909,
      "duration": 0.273,
      "velocity": 0.49,
      "hand": "right"
    },
    {
      "midi": 72,
      "time": 43.909,
      "duration": 0.258,
      "velocity": 0.79,
      "hand": "right"
    },
    {
      "midi": 65,
      "time": 44.182,
      "duration": 0.545,
      "velocity": 0.57,
      "hand": "right"
    },
    {
      "midi": 72,
      "time": 44.182,
      "duration": 0.136,
      "velocity": 0.81,
      "hand": "right"
    },
    {
      "midi": 69,
      "time": 44.455,
      "duration": 0.53,
      "velocity": 0.65,
      "hand": "right"
    },
    {
      "midi": 72,
      "time": 44.455,
      "duration": 0.257,
      "velocity": 0.79,
      "hand": "right"
    },
    {
      "midi": 70,
      "time": 44.727,
      "duration": 0.273,
      "velocity": 0.68,
      "hand": "right"
    },
    {
      "midi": 72,
      "time": 44.727,
      "duration": 0.258,
      "velocity": 0.49,
      "hand": "right"
    },
    {
      "midi": 41,
      "time": 45,
      "duration": 0.955,
      "velocity": 0.46,
      "hand": "left"
    },
    {
      "midi": 53,
      "time": 45,
      "duration": 0.955,
      "velocity": 0.68,
      "hand": "left"
    },
    {
      "midi": 69,
      "time": 45,
      "duration": 0.273,
      "velocity": 0.49,
      "hand": "right"
    },
    {
      "midi": 72,
      "time": 45,
      "duration": 0.273,
      "velocity": 0.51,
      "hand": "right"
    },
    {
      "midi": 78,
      "time": 45,
      "duration": 3.53,
      "velocity": 0.96,
      "hand": "right"
    },
    {
      "midi": 57,
      "time": 45.273,
      "duration": 0.394,
      "velocity": 0.24,
      "hand": "left"
    },
    {
      "midi": 60,
      "time": 45.273,
      "duration": 0.273,
      "velocity": 0.46,
      "hand": "right"
    },
    {
      "midi": 65,
      "time": 45.545,
      "duration": 0.273,
      "velocity": 0.39,
      "hand": "right"
    },
    {
      "midi": 69,
      "time": 45.545,
      "duration": 0.531,
      "velocity": 0.65,
      "hand": "right"
    },
    {
      "midi": 72,
      "time": 45.545,
      "duration": 0.531,
      "velocity": 0.76,
      "hand": "right"
    },
    {
      "midi": 77,
      "time": 45.545,
      "duration": 0.273,
      "velocity": 0.74,
      "hand": "right"
    },
    {
      "midi": 57,
      "time": 45.682,
      "duration": 0.136,
      "velocity": 0.08,
      "hand": "left"
    },
    {
      "midi": 60,
      "time": 45.682,
      "duration": 0.136,
      "velocity": 0.36,
      "hand": "right"
    },
    {
      "midi": 76,
      "time": 45.818,
      "duration": 0.273,
      "velocity": 0.69,
      "hand": "right"
    },
    {
      "midi": 38,
      "time": 46.091,
      "duration": 0.955,
      "velocity": 0.68,
      "hand": "left"
    },
    {
      "midi": 50,
      "time": 46.091,
      "duration": 0.818,
      "velocity": 0.59,
      "hand": "left"
    },
    {
      "midi": 69,
      "time": 46.091,
      "duration": 0.273,
      "velocity": 0.43,
      "hand": "right"
    },
    {
      "midi": 72,
      "time": 46.091,
      "duration": 0.136,
      "velocity": 0.44,
      "hand": "right"
    },
    {
      "midi": 74,
      "time": 46.091,
      "duration": 0.136,
      "velocity": 0.86,
      "hand": "right"
    },
    {
      "midi": 77,
      "time": 46.091,
      "duration": 0.273,
      "velocity": 0.72,
      "hand": "right"
    },
    {
      "midi": 53,
      "time": 46.227,
      "duration": 0.682,
      "velocity": 0.35,
      "hand": "left"
    },
    {
      "midi": 57,
      "time": 46.364,
      "duration": 0.682,
      "velocity": 0.62,
      "hand": "left"
    },
    {
      "midi": 74,
      "time": 46.364,
      "duration": 0.136,
      "velocity": 0.79,
      "hand": "right"
    },
    {
      "midi": 65,
      "time": 46.5,
      "duration": 0.121,
      "velocity": 0.46,
      "hand": "right"
    },
    {
      "midi": 69,
      "time": 46.5,
      "duration": 0.121,
      "velocity": 0.45,
      "hand": "right"
    },
    {
      "midi": 69,
      "time": 46.636,
      "duration": 0.273,
      "velocity": 0.65,
      "hand": "right"
    },
    {
      "midi": 72,
      "time": 46.636,
      "duration": 0.068,
      "velocity": 0.59,
      "hand": "right"
    },
    {
      "midi": 74,
      "time": 46.636,
      "duration": 0.273,
      "velocity": 0.89,
      "hand": "right"
    },
    {
      "midi": 77,
      "time": 46.636,
      "duration": 0.136,
      "velocity": 0.76,
      "hand": "right"
    },
    {
      "midi": 62,
      "time": 46.909,
      "duration": 0.136,
      "velocity": 0.31,
      "hand": "right"
    },
    {
      "midi": 72,
      "time": 46.909,
      "duration": 0.273,
      "velocity": 0.76,
      "hand": "right"
    },
    {
      "midi": 83,
      "time": 47.045,
      "duration": 10,
      "velocity": 0.98,
      "hand": "right"
    },
    {
      "midi": 43,
      "time": 47.182,
      "duration": 1.091,
      "velocity": 0.55,
      "hand": "left"
    },
    {
      "midi": 55,
      "time": 47.182,
      "duration": 0.818,
      "velocity": 0.57,
      "hand": "left"
    },
    {
      "midi": 62,
      "time": 47.182,
      "duration": 0.394,
      "velocity": 0.68,
      "hand": "right"
    },
    {
      "midi": 67,
      "time": 47.182,
      "duration": 0.53,
      "velocity": 0.35,
      "hand": "right"
    },
    {
      "midi": 70,
      "time": 47.182,
      "duration": 0.273,
      "velocity": 0.46,
      "hand": "right"
    },
    {
      "midi": 74,
      "time": 47.182,
      "duration": 0.53,
      "velocity": 0.89,
      "hand": "right"
    },
    {
      "midi": 58,
      "time": 47.318,
      "duration": 0.682,
      "velocity": 0.39,
      "hand": "left"
    },
    {
      "midi": 62,
      "time": 47.591,
      "duration": 0.409,
      "velocity": 0.08,
      "hand": "right"
    },
    {
      "midi": 67,
      "time": 47.727,
      "duration": 0.273,
      "velocity": 0.36,
      "hand": "right"
    },
    {
      "midi": 70,
      "time": 47.727,
      "duration": 0.258,
      "velocity": 0.54,
      "hand": "right"
    },
    {
      "midi": 74,
      "time": 47.727,
      "duration": 0.531,
      "velocity": 0.81,
      "hand": "right"
    },
    {
      "midi": 70,
      "time": 48,
      "duration": 0.136,
      "velocity": 0.74,
      "hand": "right"
    },
    {
      "midi": 41,
      "time": 48.273,
      "duration": 0.955,
      "velocity": 0.62,
      "hand": "left"
    },
    {
      "midi": 53,
      "time": 48.273,
      "duration": 0.682,
      "velocity": 0.49,
      "hand": "left"
    },
    {
      "midi": 65,
      "time": 48.273,
      "duration": 0.682,
      "velocity": 0.36,
      "hand": "right"
    },
    {
      "midi": 70,
      "time": 48.273,
      "duration": 0.257,
      "velocity": 0.66,
      "hand": "right"
    },
    {
      "midi": 74,
      "time": 48.273,
      "duration": 0.273,
      "velocity": 0.79,
      "hand": "right"
    },
    {
      "midi": 62,
      "time": 48.545,
      "duration": 0.409,
      "velocity": 0.62,
      "hand": "right"
    },
    {
      "midi": 70,
      "time": 48.545,
      "duration": 0.136,
      "velocity": 0.66,
      "hand": "right"
    },
    {
      "midi": 78,
      "time": 48.545,
      "duration": 0.531,
      "velocity": 0.89,
      "hand": "right"
    },
    {
      "midi": 67,
      "time": 48.818,
      "duration": 0.136,
      "velocity": 0.55,
      "hand": "right"
    },
    {
      "midi": 70,
      "time": 48.818,
      "duration": 0.531,
      "velocity": 0.74,
      "hand": "right"
    },
    {
      "midi": 74,
      "time": 48.818,
      "duration": 0.545,
      "velocity": 0.86,
      "hand": "right"
    },
    {
      "midi": 62,
      "time": 49.091,
      "duration": 0.068,
      "velocity": 0.21,
      "hand": "right"
    },
    {
      "midi": 69,
      "time": 49.091,
      "duration": 0.273,
      "velocity": 0.79,
      "hand": "right"
    },
    {
      "midi": 79,
      "time": 49.091,
      "duration": 0.273,
      "velocity": 0.41,
      "hand": "right"
    },
    {
      "midi": 36,
      "time": 49.364,
      "duration": 1.091,
      "velocity": 0.49,
      "hand": "left"
    },
    {
      "midi": 48,
      "time": 49.364,
      "duration": 0.818,
      "velocity": 0.68,
      "hand": "left"
    },
    {
      "midi": 70,
      "time": 49.364,
      "duration": 0.273,
      "velocity": 0.39,
      "hand": "right"
    },
    {
      "midi": 72,
      "time": 49.364,
      "duration": 0.273,
      "velocity": 0.46,
      "hand": "right"
    },
    {
      "midi": 76,
      "time": 49.364,
      "duration": 0.273,
      "velocity": 0.65,
      "hand": "right"
    },
    {
      "midi": 78,
      "time": 49.364,
      "duration": 0.068,
      "velocity": 0.25,
      "hand": "right"
    },
    {
      "midi": 78,
      "time": 49.5,
      "duration": 0.068,
      "velocity": 0.7,
      "hand": "right"
    },
    {
      "midi": 55,
      "time": 49.636,
      "duration": 0.273,
      "velocity": 0.42,
      "hand": "left"
    },
    {
      "midi": 60,
      "time": 49.636,
      "duration": 0.545,
      "velocity": 0.41,
      "hand": "right"
    },
    {
      "midi": 78,
      "time": 49.636,
      "duration": 2.455,
      "velocity": 0.7,
      "hand": "right"
    },
    {
      "midi": 52,
      "time": 49.773,
      "duration": 0.257,
      "velocity": 0.08,
      "hand": "left"
    },
    {
      "midi": 67,
      "time": 49.909,
      "duration": 0.818,
      "velocity": 0.65,
      "hand": "right"
    },
    {
      "midi": 70,
      "time": 49.909,
      "duration": 0.273,
      "velocity": 0.52,
      "hand": "right"
    },
    {
      "midi": 72,
      "time": 49.909,
      "duration": 0.531,
      "velocity": 0.69,
      "hand": "right"
    },
    {
      "midi": 76,
      "time": 49.909,
      "duration": 0.273,
      "velocity": 0.66,
      "hand": "right"
    },
    {
      "midi": 52,
      "time": 50.045,
      "duration": 0.136,
      "velocity": 0.08,
      "hand": "left"
    },
    {
      "midi": 55,
      "time": 50.045,
      "duration": 0.136,
      "velocity": 0.52,
      "hand": "left"
    },
    {
      "midi": 74,
      "time": 50.182,
      "duration": 0.273,
      "velocity": 0.72,
      "hand": "right"
    },
    {
      "midi": 40,
      "time": 50.455,
      "duration": 1.091,
      "velocity": 0.65,
      "hand": "left"
    },
    {
      "midi": 48,
      "time": 50.455,
      "duration": 0.682,
      "velocity": 0.2,
      "hand": "left"
    },
    {
      "midi": 60,
      "time": 50.455,
      "duration": 0.53,
      "velocity": 0.21,
      "hand": "right"
    },
    {
      "midi": 70,
      "time": 50.455,
      "duration": 0.273,
      "velocity": 0.36,
      "hand": "right"
    },
    {
      "midi": 72,
      "time": 50.455,
      "duration": 0.257,
      "velocity": 0.71,
      "hand": "right"
    },
    {
      "midi": 76,
      "time": 50.455,
      "duration": 0.273,
      "velocity": 0.59,
      "hand": "right"
    },
    {
      "midi": 55,
      "time": 50.591,
      "duration": 0.545,
      "velocity": 0.65,
      "hand": "left"
    },
    {
      "midi": 72,
      "time": 50.727,
      "duration": 0.136,
      "velocity": 0.81,
      "hand": "right"
    },
    {
      "midi": 67,
      "time": 51,
      "duration": 0.545,
      "velocity": 0.41,
      "hand": "right"
    },
    {
      "midi": 70,
      "time": 51,
      "duration": 0.136,
      "velocity": 0.39,
      "hand": "right"
    },
    {
      "midi": 72,
      "time": 51,
      "duration": 0.53,
      "velocity": 0.83,
      "hand": "right"
    },
    {
      "midi": 76,
      "time": 51,
      "duration": 0.136,
      "velocity": 0.68,
      "hand": "right"
    },
    {
      "midi": 60,
      "time": 51.136,
      "duration": 0.136,
      "velocity": 0.34,
      "hand": "right"
    },
    {
      "midi": 74,
      "time": 51.273,
      "duration": 0.273,
      "velocity": 0.69,
      "hand": "right"
    },
    {
      "midi": 41,
      "time": 51.545,
      "duration": 0.955,
      "velocity": 0.46,
      "hand": "left"
    },
    {
      "midi": 53,
      "time": 51.545,
      "duration": 0.682,
      "velocity": 0.39,
      "hand": "left"
    },
    {
      "midi": 65,
      "time": 51.545,
      "duration": 0.395,
      "velocity": 0.31,
      "hand": "right"
    },
    {
      "midi": 69,
      "time": 51.545,
      "duration": 0.273,
      "velocity": 0.38,
      "hand": "right"
    },
    {
      "midi": 72,
      "time": 51.545,
      "duration": 0.531,
      "velocity": 0.86,
      "hand": "right"
    },
    {
      "midi": 77,
      "time": 51.545,
      "duration": 0.273,
      "velocity": 0.71,
      "hand": "right"
    },
    {
      "midi": 60,
      "time": 51.818,
      "duration": 0.273,
      "velocity": 0.65,
      "hand": "right"
    },
    {
      "midi": 65,
      "time": 51.955,
      "duration": 0.409,
      "velocity": 0.42,
      "hand": "right"
    },
    {
      "midi": 69,
      "time": 51.955,
      "duration": 0.121,
      "velocity": 0.54,
      "hand": "right"
    },
    {
      "midi": 69,
      "time": 52.091,
      "duration": 0.136,
      "velocity": 0.49,
      "hand": "right"
    },
    {
      "midi": 72,
      "time": 52.091,
      "duration": 0.258,
      "velocity": 0.68,
      "hand": "right"
    },
    {
      "midi": 77,
      "time": 52.091,
      "duration": 0.136,
      "velocity": 0.69,
      "hand": "right"
    },
    {
      "midi": 78,
      "time": 52.227,
      "duration": 1.5,
      "velocity": 0.89,
      "hand": "right"
    },
    {
      "midi": 60,
      "time": 52.364,
      "duration": 0.136,
      "velocity": 0.62,
      "hand": "right"
    },
    {
      "midi": 72,
      "time": 52.364,
      "duration": 0.136,
      "velocity": 0.76,
      "hand": "right"
    },
    {
      "midi": 41,
      "time": 52.636,
      "duration": 0.955,
      "velocity": 0.47,
      "hand": "left"
    },
    {
      "midi": 53,
      "time": 52.636,
      "duration": 0.682,
      "velocity": 0.27,
      "hand": "left"
    },
    {
      "midi": 65,
      "time": 52.636,
      "duration": 0.531,
      "velocity": 0.23,
      "hand": "right"
    },
    {
      "midi": 69,
      "time": 52.636,
      "duration": 0.273,
      "velocity": 0.35,
      "hand": "right"
    },
    {
      "midi": 72,
      "time": 52.636,
      "duration": 0.136,
      "velocity": 0.51,
      "hand": "right"
    },
    {
      "midi": 77,
      "time": 52.636,
      "duration": 0.136,
      "velocity": 0.61,
      "hand": "right"
    },
    {
      "midi": 60,
      "time": 52.909,
      "duration": 0.273,
      "velocity": 0.65,
      "hand": "right"
    },
    {
      "midi": 72,
      "time": 52.909,
      "duration": 0.136,
      "velocity": 0.86,
      "hand": "right"
    },
    {
      "midi": 65,
      "time": 53.182,
      "duration": 0.273,
      "velocity": 0.69,
      "hand": "right"
    },
    {
      "midi": 69,
      "time": 53.182,
      "duration": 0.136,
      "velocity": 0.49,
      "hand": "right"
    },
    {
      "midi": 72,
      "time": 53.182,
      "duration": 0.273,
      "velocity": 0.92,
      "hand": "right"
    },
    {
      "midi": 77,
      "time": 53.182,
      "duration": 0.136,
      "velocity": 0.69,
      "hand": "right"
    },
    {
      "midi": 60,
      "time": 53.455,
      "duration": 0.136,
      "velocity": 0.72,
      "hand": "right"
    },
    {
      "midi": 70,
      "time": 53.455,
      "duration": 0.273,
      "velocity": 0.62,
      "hand": "right"
    },
    {
      "midi": 41,
      "time": 53.727,
      "duration": 0.955,
      "velocity": 0.39,
      "hand": "left"
    },
    {
      "midi": 53,
      "time": 53.727,
      "duration": 0.955,
      "velocity": 0.72,
      "hand": "left"
    },
    {
      "midi": 65,
      "time": 53.727,
      "duration": 0.531,
      "velocity": 0.22,
      "hand": "right"
    },
    {
      "midi": 69,
      "time": 53.727,
      "duration": 0.273,
      "velocity": 0.51,
      "hand": "right"
    },
    {
      "midi": 72,
      "time": 53.727,
      "duration": 0.136,
      "velocity": 0.69,
      "hand": "right"
    },
    {
      "midi": 77,
      "time": 53.727,
      "duration": 0.136,
      "velocity": 0.74,
      "hand": "right"
    },
    {
      "midi": 57,
      "time": 54,
      "duration": 0.682,
      "velocity": 0.36,
      "hand": "left"
    },
    {
      "midi": 60,
      "time": 54,
      "duration": 0.273,
      "velocity": 0.32,
      "hand": "right"
    },
    {
      "midi": 69,
      "time": 54.273,
      "duration": 0.53,
      "velocity": 0.63,
      "hand": "right"
    },
    {
      "midi": 72,
      "time": 54.273,
      "duration": 0.545,
      "velocity": 0.76,
      "hand": "right"
    },
    {
      "midi": 78,
      "time": 54.273,
      "duration": 2.455,
      "velocity": 0.88,
      "hand": "right"
    },
    {
      "midi": 60,
      "time": 54.409,
      "duration": 0.136,
      "velocity": 0.42,
      "hand": "right"
    },
    {
      "midi": 76,
      "time": 54.545,
      "duration": 0.273,
      "velocity": 0.68,
      "hand": "right"
    },
    {
      "midi": 38,
      "time": 54.818,
      "duration": 1.091,
      "velocity": 0.55,
      "hand": "left"
    },
    {
      "midi": 50,
      "time": 54.818,
      "duration": 0.818,
      "velocity": 0.52,
      "hand": "left"
    },
    {
      "midi": 62,
      "time": 54.818,
      "duration": 0.682,
      "velocity": 0.28,
      "hand": "right"
    },
    {
      "midi": 65,
      "time": 54.818,
      "duration": 0.273,
      "velocity": 0.63,
      "hand": "right"
    },
    {
      "midi": 69,
      "time": 54.818,
      "duration": 0.273,
      "velocity": 0.24,
      "hand": "right"
    },
    {
      "midi": 74,
      "time": 54.818,
      "duration": 0.258,
      "velocity": 0.83,
      "hand": "right"
    },
    {
      "midi": 53,
      "time": 55.091,
      "duration": 0.545,
      "velocity": 0.42,
      "hand": "left"
    },
    {
      "midi": 57,
      "time": 55.091,
      "duration": 0.545,
      "velocity": 0.62,
      "hand": "left"
    },
    {
      "midi": 74,
      "time": 55.091,
      "duration": 0.136,
      "velocity": 0.81,
      "hand": "right"
    },
    {
      "midi": 65,
      "time": 55.364,
      "duration": 0.545,
      "velocity": 0.63,
      "hand": "right"
    },
    {
      "midi": 69,
      "time": 55.364,
      "duration": 0.545,
      "velocity": 0.47,
      "hand": "right"
    },
    {
      "midi": 74,
      "time": 55.364,
      "duration": 0.53,
      "velocity": 0.83,
      "hand": "right"
    },
    {
      "midi": 62,
      "time": 55.636,
      "duration": 0.136,
      "velocity": 0.62,
      "hand": "right"
    },
    {
      "midi": 72,
      "time": 55.636,
      "duration": 0.273,
      "velocity": 0.74,
      "hand": "right"
    },
    {
      "midi": 43,
      "time": 55.909,
      "duration": 1.091,
      "velocity": 0.43,
      "hand": "left"
    },
    {
      "midi": 55,
      "time": 55.909,
      "duration": 0.955,
      "velocity": 0.54,
      "hand": "left"
    },
    {
      "midi": 62,
      "time": 55.909,
      "duration": 0.258,
      "velocity": 0.46,
      "hand": "right"
    },
    {
      "midi": 67,
      "time": 55.909,
      "duration": 0.394,
      "velocity": 0.37,
      "hand": "right"
    },
    {
      "midi": 70,
      "time": 55.909,
      "duration": 0.273,
      "velocity": 0.41,
      "hand": "right"
    },
    {
      "midi": 74,
      "time": 55.909,
      "duration": 0.394,
      "velocity": 0.81,
      "hand": "right"
    },
    {
      "midi": 58,
      "time": 56.045,
      "duration": 0.409,
      "velocity": 0.42,
      "hand": "left"
    },
    {
      "midi": 62,
      "time": 56.182,
      "duration": 0.409,
      "velocity": 0.31,
      "hand": "right"
    },
    {
      "midi": 67,
      "time": 56.318,
      "duration": 0.409,
      "velocity": 0.32,
      "hand": "right"
    },
    {
      "midi": 74,
      "time": 56.318,
      "duration": 0.122,
      "velocity": 0.42,
      "hand": "right"
    },
    {
      "midi": 70,
      "time": 56.455,
      "duration": 0.257,
      "velocity": 0.57,
      "hand": "right"
    },
    {
      "midi": 74,
      "time": 56.455,
      "duration": 0.273,
      "velocity": 0.76,
      "hand": "right"
    },
    {
      "midi": 58,
      "time": 56.591,
      "duration": 0.136,
      "velocity": 0.59,
      "hand": "left"
    },
    {
      "midi": 70,
      "time": 56.727,
      "duration": 0.136,
      "velocity": 0.77,
      "hand": "right"
    },
    {
      "midi": 78,
      "time": 56.864,
      "duration": 2.045,
      "velocity": 0.91,
      "hand": "right"
    },
    {
      "midi": 41,
      "time": 57,
      "duration": 0.955,
      "velocity": 0.54,
      "hand": "left"
    },
    {
      "midi": 53,
      "time": 57,
      "duration": 0.682,
      "velocity": 0.4,
      "hand": "left"
    },
    {
      "midi": 65,
      "time": 57,
      "duration": 0.682,
      "velocity": 0.39,
      "hand": "right"
    },
    {
      "midi": 70,
      "time": 57,
      "duration": 0.258,
      "velocity": 0.71,
      "hand": "right"
    },
    {
      "midi": 74,
      "time": 57,
      "duration": 0.273,
      "velocity": 0.72,
      "hand": "right"
    },
    {
      "midi": 62,
      "time": 57.273,
      "duration": 0.409,
      "velocity": 0.54,
      "hand": "right"
    },
    {
      "midi": 70,
      "time": 57.273,
      "duration": 0.136,
      "velocity": 0.71,
      "hand": "right"
    },
    {
      "midi": 67,
      "time": 57.545,
      "duration": 0.136,
      "velocity": 0.54,
      "hand": "right"
    },
    {
      "midi": 70,
      "time": 57.545,
      "duration": 0.531,
      "velocity": 0.77,
      "hand": "right"
    },
    {
      "midi": 74,
      "time": 57.545,
      "duration": 0.545,
      "velocity": 0.74,
      "hand": "right"
    },
    {
      "midi": 69,
      "time": 57.818,
      "duration": 0.273,
      "velocity": 0.76,
      "hand": "right"
    },
    {
      "midi": 79,
      "time": 57.818,
      "duration": 0.273,
      "velocity": 0.43,
      "hand": "right"
    },
    {
      "midi": 48,
      "time": 57.955,
      "duration": 0.121,
      "velocity": 0.66,
      "hand": "left"
    },
    {
      "midi": 36,
      "time": 58.091,
      "duration": 1.091,
      "velocity": 0.35,
      "hand": "left"
    },
    {
      "midi": 48,
      "time": 58.091,
      "duration": 0.682,
      "velocity": 0.28,
      "hand": "left"
    },
    {
      "midi": 67,
      "time": 58.091,
      "duration": 0.273,
      "velocity": 0.83,
      "hand": "right"
    },
    {
      "midi": 70,
      "time": 58.091,
      "duration": 0.273,
      "velocity": 0.45,
      "hand": "right"
    },
    {
      "midi": 72,
      "time": 58.091,
      "duration": 0.273,
      "velocity": 0.61,
      "hand": "right"
    },
    {
      "midi": 76,
      "time": 58.091,
      "duration": 0.273,
      "velocity": 0.55,
      "hand": "right"
    },
    {
      "midi": 55,
      "time": 58.227,
      "duration": 0.273,
      "velocity": 0.45,
      "hand": "left"
    },
    {
      "midi": 52,
      "time": 58.364,
      "duration": 0.394,
      "velocity": 0.08,
      "hand": "left"
    },
    {
      "midi": 60,
      "time": 58.364,
      "duration": 0.409,
      "velocity": 0.08,
      "hand": "right"
    },
    {
      "midi": 64,
      "time": 58.5,
      "duration": 0.955,
      "velocity": 0.45,
      "hand": "right"
    },
    {
      "midi": 67,
      "time": 58.5,
      "duration": 0.955,
      "velocity": 0.55,
      "hand": "right"
    },
    {
      "midi": 70,
      "time": 58.636,
      "duration": 0.136,
      "velocity": 0.55,
      "hand": "right"
    },
    {
      "midi": 72,
      "time": 58.636,
      "duration": 0.136,
      "velocity": 0.72,
      "hand": "right"
    },
    {
      "midi": 76,
      "time": 58.636,
      "duration": 0.273,
      "velocity": 0.74,
      "hand": "right"
    },
    {
      "midi": 52,
      "time": 58.773,
      "duration": 0.136,
      "velocity": 0.13,
      "hand": "left"
    },
    {
      "midi": 55,
      "time": 58.773,
      "duration": 0.136,
      "velocity": 0.42,
      "hand": "left"
    },
    {
      "midi": 74,
      "time": 58.909,
      "duration": 0.273,
      "velocity": 0.89,
      "hand": "right"
    },
    {
      "midi": 60,
      "time": 59.045,
      "duration": 0.667,
      "velocity": 0.2,
      "hand": "right"
    },
    {
      "midi": 78,
      "time": 59.045,
      "duration": 0.667,
      "velocity": 0.84,
      "hand": "right"
    },
    {
      "midi": 40,
      "time": 59.182,
      "duration": 1.091,
      "velocity": 0.65,
      "hand": "left"
    },
    {
      "midi": 48,
      "time": 59.182,
      "duration": 0.682,
      "velocity": 0.18,
      "hand": "left"
    },
    {
      "midi": 70,
      "time": 59.182,
      "duration": 0.273,
      "velocity": 0.41,
      "hand": "right"
    },
    {
      "midi": 72,
      "time": 59.182,
      "duration": 0.258,
      "velocity": 0.72,
      "hand": "right"
    },
    {
      "midi": 76,
      "time": 59.182,
      "duration": 0.273,
      "velocity": 0.68,
      "hand": "right"
    },
    {
      "midi": 55,
      "time": 59.318,
      "duration": 0.273,
      "velocity": 0.47,
      "hand": "left"
    },
    {
      "midi": 72,
      "time": 59.455,
      "duration": 0.136,
      "velocity": 0.81,
      "hand": "right"
    },
    {
      "midi": 70,
      "time": 59.727,
      "duration": 0.136,
      "velocity": 0.45,
      "hand": "right"
    },
    {
      "midi": 72,
      "time": 59.727,
      "duration": 0.273,
      "velocity": 0.83,
      "hand": "right"
    },
    {
      "midi": 76,
      "time": 59.727,
      "duration": 0.136,
      "velocity": 0.62,
      "hand": "right"
    },
    {
      "midi": 78,
      "time": 59.727,
      "duration": 0.258,
      "velocity": 0.37,
      "hand": "right"
    },
    {
      "midi": 55,
      "time": 59.864,
      "duration": 0.136,
      "velocity": 0.23,
      "hand": "left"
    },
    {
      "midi": 60,
      "time": 59.864,
      "duration": 0.273,
      "velocity": 0.2,
      "hand": "right"
    },
    {
      "midi": 74,
      "time": 60,
      "duration": 0.273,
      "velocity": 0.86,
      "hand": "right"
    },
    {
      "midi": 78,
      "time": 60,
      "duration": 2.167,
      "velocity": 0.67,
      "hand": "right"
    },
    {
      "midi": 57,
      "time": 60.136,
      "duration": 0.122,
      "velocity": 0.8,
      "hand": "left"
    },
    {
      "midi": 41,
      "time": 60.273,
      "duration": 0.955,
      "velocity": 0.38,
      "hand": "left"
    },
    {
      "midi": 53,
      "time": 60.273,
      "duration": 0.682,
      "velocity": 0.3,
      "hand": "left"
    },
    {
      "midi": 65,
      "time": 60.273,
      "duration": 0.394,
      "velocity": 0.35,
      "hand": "right"
    },
    {
      "midi": 69,
      "time": 60.273,
      "duration": 0.273,
      "velocity": 0.59,
      "hand": "right"
    },
    {
      "midi": 72,
      "time": 60.273,
      "duration": 0.394,
      "velocity": 0.79,
      "hand": "right"
    },
    {
      "midi": 77,
      "time": 60.273,
      "duration": 0.273,
      "velocity": 0.72,
      "hand": "right"
    },
    {
      "midi": 60,
      "time": 60.545,
      "duration": 0.273,
      "velocity": 0.65,
      "hand": "right"
    },
    {
      "midi": 65,
      "time": 60.682,
      "duration": 0.409,
      "velocity": 0.5,
      "hand": "right"
    },
    {
      "midi": 69,
      "time": 60.682,
      "duration": 0.121,
      "velocity": 0.47,
      "hand": "right"
    },
    {
      "midi": 72,
      "time": 60.682,
      "duration": 0.121,
      "velocity": 0.47,
      "hand": "right"
    },
    {
      "midi": 69,
      "time": 60.818,
      "duration": 0.136,
      "velocity": 0.63,
      "hand": "right"
    },
    {
      "midi": 72,
      "time": 60.818,
      "duration": 0.136,
      "velocity": 0.76,
      "hand": "right"
    },
    {
      "midi": 77,
      "time": 60.818,
      "duration": 0.136,
      "velocity": 0.68,
      "hand": "right"
    },
    {
      "midi": 60,
      "time": 61.091,
      "duration": 0.258,
      "velocity": 0.57,
      "hand": "right"
    },
    {
      "midi": 41,
      "time": 61.364,
      "duration": 1.091,
      "velocity": 0.47,
      "hand": "left"
    },
    {
      "midi": 53,
      "time": 61.364,
      "duration": 0.682,
      "velocity": 0.59,
      "hand": "left"
    },
    {
      "midi": 65,
      "time": 61.364,
      "duration": 0.682,
      "velocity": 0.2,
      "hand": "right"
    },
    {
      "midi": 69,
      "time": 61.364,
      "duration": 0.273,
      "velocity": 0.61,
      "hand": "right"
    },
    {
      "midi": 72,
      "time": 61.364,
      "duration": 0.273,
      "velocity": 0.81,
      "hand": "right"
    },
    {
      "midi": 77,
      "time": 61.364,
      "duration": 0.273,
      "velocity": 0.72,
      "hand": "right"
    },
    {
      "midi": 60,
      "time": 61.636,
      "duration": 0.409,
      "velocity": 0.57,
      "hand": "right"
    },
    {
      "midi": 69,
      "time": 61.909,
      "duration": 0.545,
      "velocity": 0.54,
      "hand": "right"
    },
    {
      "midi": 72,
      "time": 61.909,
      "duration": 0.545,
      "velocity": 0.86,
      "hand": "right"
    },
    {
      "midi": 77,
      "time": 61.909,
      "duration": 0.545,
      "velocity": 0.83,
      "hand": "right"
    },
    {
      "midi": 60,
      "time": 62.182,
      "duration": 0.136,
      "velocity": 0.09,
      "hand": "right"
    },
    {
      "midi": 65,
      "time": 62.182,
      "duration": 0.273,
      "velocity": 0.69,
      "hand": "right"
    },
    {
      "midi": 78,
      "time": 62.182,
      "duration": 0.818,
      "velocity": 0.68,
      "hand": "right"
    },
    {
      "midi": 83,
      "time": 62.318,
      "duration": 4.349,
      "velocity": 0.57,
      "hand": "right"
    },
    {
      "midi": 43,
      "time": 62.455,
      "duration": 0.955,
      "velocity": 0.39,
      "hand": "left"
    },
    {
      "midi": 55,
      "time": 62.455,
      "duration": 0.955,
      "velocity": 0.52,
      "hand": "left"
    },
    {
      "midi": 67,
      "time": 62.455,
      "duration": 0.545,
      "velocity": 0.27,
      "hand": "right"
    },
    {
      "midi": 70,
      "time": 62.455,
      "duration": 0.273,
      "velocity": 0.5,
      "hand": "right"
    },
    {
      "midi": 74,
      "time": 62.455,
      "duration": 0.257,
      "velocity": 0.86,
      "hand": "right"
    },
    {
      "midi": 76,
      "time": 62.455,
      "duration": 0.409,
      "velocity": 0.59,
      "hand": "right"
    },
    {
      "midi": 58,
      "time": 62.727,
      "duration": 0.682,
      "velocity": 0.31,
      "hand": "left"
    },
    {
      "midi": 62,
      "time": 62.727,
      "duration": 0.682,
      "velocity": 0.55,
      "hand": "right"
    },
    {
      "midi": 74,
      "time": 62.727,
      "duration": 0.258,
      "velocity": 0.89,
      "hand": "right"
    },
    {
      "midi": 70,
      "time": 63,
      "duration": 0.121,
      "velocity": 0.62,
      "hand": "right"
    },
    {
      "midi": 74,
      "time": 63,
      "duration": 0.53,
      "velocity": 0.81,
      "hand": "right"
    },
    {
      "midi": 79,
      "time": 63,
      "duration": 0.545,
      "velocity": 0.57,
      "hand": "right"
    },
    {
      "midi": 70,
      "time": 63.136,
      "duration": 0.136,
      "velocity": 0.62,
      "hand": "right"
    },
    {
      "midi": 78,
      "time": 63.136,
      "duration": 2.44,
      "velocity": 0.7,
      "hand": "right"
    },
    {
      "midi": 67,
      "time": 63.273,
      "duration": 0.136,
      "velocity": 0.69,
      "hand": "right"
    },
    {
      "midi": 36,
      "time": 63.409,
      "duration": 1.091,
      "velocity": 0.39,
      "hand": "left"
    },
    {
      "midi": 48,
      "time": 63.409,
      "duration": 0.121,
      "velocity": 0.3,
      "hand": "left"
    },
    {
      "midi": 60,
      "time": 63.409,
      "duration": 0.394,
      "velocity": 0.17,
      "hand": "right"
    },
    {
      "midi": 70,
      "time": 63.409,
      "duration": 0.273,
      "velocity": 0.59,
      "hand": "right"
    },
    {
      "midi": 72,
      "time": 63.409,
      "duration": 0.273,
      "velocity": 0.72,
      "hand": "right"
    },
    {
      "midi": 76,
      "time": 63.409,
      "duration": 0.273,
      "velocity": 0.69,
      "hand": "right"
    },
    {
      "midi": 48,
      "time": 63.545,
      "duration": 0.818,
      "velocity": 0.72,
      "hand": "left"
    },
    {
      "midi": 74,
      "time": 63.545,
      "duration": 0.545,
      "velocity": 0.95,
      "hand": "right"
    },
    {
      "midi": 55,
      "time": 63.682,
      "duration": 0.545,
      "velocity": 0.25,
      "hand": "left"
    },
    {
      "midi": 52,
      "time": 63.818,
      "duration": 0.545,
      "velocity": 0.18,
      "hand": "left"
    },
    {
      "midi": 60,
      "time": 63.818,
      "duration": 0.273,
      "velocity": 0.31,
      "hand": "right"
    },
    {
      "midi": 67,
      "time": 63.955,
      "duration": 0.545,
      "velocity": 0.68,
      "hand": "right"
    },
    {
      "midi": 70,
      "time": 63.955,
      "duration": 0.136,
      "velocity": 0.59,
      "hand": "right"
    },
    {
      "midi": 72,
      "time": 63.955,
      "duration": 0.53,
      "velocity": 0.72,
      "hand": "right"
    },
    {
      "midi": 76,
      "time": 63.955,
      "duration": 0.121,
      "velocity": 0.69,
      "hand": "right"
    },
    {
      "midi": 76,
      "time": 64.091,
      "duration": 0.545,
      "velocity": 0.76,
      "hand": "right"
    },
    {
      "midi": 60,
      "time": 64.227,
      "duration": 0.136,
      "velocity": 0.65,
      "hand": "right"
    },
    {
      "midi": 41,
      "time": 64.5,
      "duration": 1.091,
      "velocity": 0.35,
      "hand": "left"
    },
    {
      "midi": 53,
      "time": 64.5,
      "duration": 0.121,
      "velocity": 0.47,
      "hand": "left"
    },
    {
      "midi": 65,
      "time": 64.5,
      "duration": 0.53,
      "velocity": 0.41,
      "hand": "right"
    },
    {
      "midi": 69,
      "time": 64.5,
      "duration": 0.273,
      "velocity": 0.59,
      "hand": "right"
    },
    {
      "midi": 72,
      "time": 64.5,
      "duration": 0.273,
      "velocity": 0.71,
      "hand": "right"
    },
    {
      "midi": 77,
      "time": 64.5,
      "duration": 0.273,
      "velocity": 0.71,
      "hand": "right"
    },
    {
      "midi": 53,
      "time": 64.636,
      "duration": 0.682,
      "velocity": 0.29,
      "hand": "left"
    },
    {
      "midi": 74,
      "time": 64.636,
      "duration": 0.273,
      "velocity": 0.71,
      "hand": "right"
    },
    {
      "midi": 57,
      "time": 64.773,
      "duration": 0.682,
      "velocity": 0.25,
      "hand": "left"
    },
    {
      "midi": 60,
      "time": 64.909,
      "duration": 0.273,
      "velocity": 0.19,
      "hand": "right"
    },
    {
      "midi": 72,
      "time": 64.909,
      "duration": 0.121,
      "velocity": 0.71,
      "hand": "right"
    },
    {
      "midi": 65,
      "time": 65.045,
      "duration": 0.273,
      "velocity": 0.49,
      "hand": "right"
    },
    {
      "midi": 69,
      "time": 65.045,
      "duration": 0.122,
      "velocity": 0.76,
      "hand": "right"
    },
    {
      "midi": 72,
      "time": 65.045,
      "duration": 0.122,
      "velocity": 0.46,
      "hand": "right"
    },
    {
      "midi": 77,
      "time": 65.045,
      "duration": 0.122,
      "velocity": 0.57,
      "hand": "right"
    },
    {
      "midi": 69,
      "time": 65.182,
      "duration": 0.136,
      "velocity": 0.59,
      "hand": "right"
    },
    {
      "midi": 72,
      "time": 65.182,
      "duration": 0.068,
      "velocity": 0.43,
      "hand": "right"
    },
    {
      "midi": 77,
      "time": 65.182,
      "duration": 0.136,
      "velocity": 0.71,
      "hand": "right"
    },
    {
      "midi": 60,
      "time": 65.318,
      "duration": 0.136,
      "velocity": 0.46,
      "hand": "right"
    },
    {
      "midi": 65,
      "time": 65.455,
      "duration": 0.121,
      "velocity": 0.81,
      "hand": "right"
    },
    {
      "midi": 38,
      "time": 65.591,
      "duration": 1.091,
      "velocity": 0.57,
      "hand": "left"
    },
    {
      "midi": 50,
      "time": 65.591,
      "duration": 0.818,
      "velocity": 0.74,
      "hand": "left"
    },
    {
      "midi": 65,
      "time": 65.591,
      "duration": 0.273,
      "velocity": 0.49,
      "hand": "right"
    },
    {
      "midi": 69,
      "time": 65.591,
      "duration": 0.273,
      "velocity": 0.28,
      "hand": "right"
    },
    {
      "midi": 74,
      "time": 65.591,
      "duration": 0.273,
      "velocity": 0.81,
      "hand": "right"
    },
    {
      "midi": 78,
      "time": 65.591,
      "duration": 1.773,
      "velocity": 0.94,
      "hand": "right"
    },
    {
      "midi": 72,
      "time": 65.727,
      "duration": 0.545,
      "velocity": 0.92,
      "hand": "right"
    },
    {
      "midi": 53,
      "time": 65.864,
      "duration": 0.545,
      "velocity": 0.27,
      "hand": "left"
    },
    {
      "midi": 57,
      "time": 65.864,
      "duration": 0.682,
      "velocity": 0.65,
      "hand": "left"
    },
    {
      "midi": 65,
      "time": 66.136,
      "duration": 0.545,
      "velocity": 0.54,
      "hand": "right"
    },
    {
      "midi": 69,
      "time": 66.136,
      "duration": 0.068,
      "velocity": 0.68,
      "hand": "right"
    },
    {
      "midi": 74,
      "time": 66.136,
      "duration": 0.122,
      "velocity": 0.79,
      "hand": "right"
    },
    {
      "midi": 69,
      "time": 66.273,
      "duration": 0.545,
      "velocity": 0.46,
      "hand": "right"
    },
    {
      "midi": 74,
      "time": 66.273,
      "duration": 0.53,
      "velocity": 0.81,
      "hand": "right"
    },
    {
      "midi": 62,
      "time": 66.409,
      "duration": 0.136,
      "velocity": 0.45,
      "hand": "right"
    },
    {
      "midi": 83,
      "time": 66.682,
      "duration": 4.348,
      "velocity": 0.8,
      "hand": "right"
    },
    {
      "midi": 43,
      "time": 66.818,
      "duration": 0.955,
      "velocity": 0.57,
      "hand": "left"
    },
    {
      "midi": 55,
      "time": 66.818,
      "duration": 0.955,
      "velocity": 0.59,
      "hand": "left"
    },
    {
      "midi": 67,
      "time": 66.818,
      "duration": 0.545,
      "velocity": 0.33,
      "hand": "right"
    },
    {
      "midi": 70,
      "time": 66.818,
      "duration": 0.258,
      "velocity": 0.49,
      "hand": "right"
    },
    {
      "midi": 72,
      "time": 66.818,
      "duration": 0.273,
      "velocity": 0.83,
      "hand": "right"
    },
    {
      "midi": 74,
      "time": 66.818,
      "duration": 0.273,
      "velocity": 0.83,
      "hand": "right"
    },
    {
      "midi": 58,
      "time": 66.955,
      "duration": 0.682,
      "velocity": 0.33,
      "hand": "left"
    },
    {
      "midi": 70,
      "time": 67.091,
      "duration": 0.258,
      "velocity": 0.74,
      "hand": "right"
    },
    {
      "midi": 62,
      "time": 67.364,
      "duration": 0.409,
      "velocity": 0.47,
      "hand": "right"
    },
    {
      "midi": 70,
      "time": 67.364,
      "duration": 0.257,
      "velocity": 0.71,
      "hand": "right"
    },
    {
      "midi": 74,
      "time": 67.364,
      "duration": 0.545,
      "velocity": 0.92,
      "hand": "right"
    },
    {
      "midi": 67,
      "time": 67.5,
      "duration": 0.068,
      "velocity": 0.31,
      "hand": "right"
    },
    {
      "midi": 78,
      "time": 67.5,
      "duration": 2.455,
      "velocity": 0.91,
      "hand": "right"
    },
    {
      "midi": 70,
      "time": 67.636,
      "duration": 0.258,
      "velocity": 0.69,
      "hand": "right"
    },
    {
      "midi": 79,
      "time": 67.636,
      "duration": 0.273,
      "velocity": 0.41,
      "hand": "right"
    },
    {
      "midi": 36,
      "time": 67.909,
      "duration": 1.091,
      "velocity": 0.49,
      "hand": "left"
    },
    {
      "midi": 48,
      "time": 67.909,
      "duration": 0.818,
      "velocity": 0.57,
      "hand": "left"
    },
    {
      "midi": 70,
      "time": 67.909,
      "duration": 0.273,
      "velocity": 0.57,
      "hand": "right"
    },
    {
      "midi": 72,
      "time": 67.909,
      "duration": 0.273,
      "velocity": 0.71,
      "hand": "right"
    },
    {
      "midi": 76,
      "time": 67.909,
      "duration": 0.273,
      "velocity": 0.65,
      "hand": "right"
    },
    {
      "midi": 52,
      "time": 68.182,
      "duration": 0.409,
      "velocity": 0.08,
      "hand": "left"
    },
    {
      "midi": 55,
      "time": 68.182,
      "duration": 0.273,
      "velocity": 0.15,
      "hand": "left"
    },
    {
      "midi": 60,
      "time": 68.182,
      "duration": 0.258,
      "velocity": 0.57,
      "hand": "right"
    },
    {
      "midi": 67,
      "time": 68.455,
      "duration": 0.545,
      "velocity": 0.54,
      "hand": "right"
    },
    {
      "midi": 70,
      "time": 68.455,
      "duration": 0.136,
      "velocity": 0.41,
      "hand": "right"
    },
    {
      "midi": 72,
      "time": 68.455,
      "duration": 0.53,
      "velocity": 0.71,
      "hand": "right"
    },
    {
      "midi": 76,
      "time": 68.455,
      "duration": 0.136,
      "velocity": 0.66,
      "hand": "right"
    },
    {
      "midi": 52,
      "time": 68.727,
      "duration": 0.136,
      "velocity": 0.72,
      "hand": "left"
    },
    {
      "midi": 41,
      "time": 69,
      "duration": 1.091,
      "velocity": 0.47,
      "hand": "left"
    },
    {
      "midi": 53,
      "time": 69,
      "duration": 0.818,
      "velocity": 0.54,
      "hand": "left"
    },
    {
      "midi": 65,
      "time": 69,
      "duration": 0.409,
      "velocity": 0.39,
      "hand": "right"
    },
    {
      "midi": 69,
      "time": 69,
      "duration": 0.273,
      "velocity": 0.41,
      "hand": "right"
    },
    {
      "midi": 72,
      "time": 69,
      "duration": 0.273,
      "velocity": 0.54,
      "hand": "right"
    },
    {
      "midi": 77,
      "time": 69,
      "duration": 0.136,
      "velocity": 0.61,
      "hand": "right"
    },
    {
      "midi": 57,
      "time": 69.273,
      "duration": 0.257,
      "velocity": 0.31,
      "hand": "left"
    },
    {
      "midi": 57,
      "time": 69.545,
      "duration": 0.136,
      "velocity": 0.15,
      "hand": "left"
    },
    {
      "midi": 65,
      "time": 69.545,
      "duration": 0.258,
      "velocity": 0.81,
      "hand": "right"
    },
    {
      "midi": 69,
      "time": 69.545,
      "duration": 0.258,
      "velocity": 0.57,
      "hand": "right"
    },
    {
      "midi": 72,
      "time": 69.545,
      "duration": 0.531,
      "velocity": 0.74,
      "hand": "right"
    },
    {
      "midi": 77,
      "time": 69.545,
      "duration": 0.068,
      "velocity": 0.69,
      "hand": "right"
    },
    {
      "midi": 65,
      "time": 69.818,
      "duration": 0.136,
      "velocity": 0.39,
      "hand": "right"
    },
    {
      "midi": 69,
      "time": 69.818,
      "duration": 0.136,
      "velocity": 0.79,
      "hand": "right"
    },
    {
      "midi": 45,
      "time": 70.091,
      "duration": 1.091,
      "velocity": 0.66,
      "hand": "left"
    },
    {
      "midi": 53,
      "time": 70.091,
      "duration": 0.545,
      "velocity": 0.17,
      "hand": "left"
    },
    {
      "midi": 69,
      "time": 70.091,
      "duration": 0.273,
      "velocity": 0.46,
      "hand": "right"
    },
    {
      "midi": 72,
      "time": 70.091,
      "duration": 0.409,
      "velocity": 0.92,
      "hand": "right"
    },
    {
      "midi": 78,
      "time": 70.091,
      "duration": 3.121,
      "velocity": 0.89,
      "hand": "right"
    },
    {
      "midi": 65,
      "time": 70.364,
      "duration": 0.682,
      "velocity": 0.47,
      "hand": "right"
    },
    {
      "midi": 69,
      "time": 70.636,
      "duration": 0.682,
      "velocity": 0.72,
      "hand": "right"
    },
    {
      "midi": 72,
      "time": 70.636,
      "duration": 0.136,
      "velocity": 0.81,
      "hand": "right"
    },
    {
      "midi": 77,
      "time": 70.636,
      "duration": 0.545,
      "velocity": 0.86,
      "hand": "right"
    },
    {
      "midi": 72,
      "time": 70.909,
      "duration": 0.409,
      "velocity": 0.57,
      "hand": "right"
    },
    {
      "midi": 83,
      "time": 71.045,
      "duration": 10,
      "velocity": 0.68,
      "hand": "right"
    },
    {
      "midi": 36,
      "time": 71.182,
      "duration": 1.091,
      "velocity": 0.42,
      "hand": "left"
    },
    {
      "midi": 55,
      "time": 71.182,
      "duration": 0.818,
      "velocity": 0.55,
      "hand": "left"
    },
    {
      "midi": 67,
      "time": 71.182,
      "duration": 0.394,
      "velocity": 0.2,
      "hand": "right"
    },
    {
      "midi": 70,
      "time": 71.182,
      "duration": 0.273,
      "velocity": 0.34,
      "hand": "right"
    },
    {
      "midi": 74,
      "time": 71.182,
      "duration": 0.121,
      "velocity": 0.59,
      "hand": "right"
    },
    {
      "midi": 76,
      "time": 71.182,
      "duration": 0.273,
      "velocity": 0.71,
      "hand": "right"
    },
    {
      "midi": 62,
      "time": 71.318,
      "duration": 0.409,
      "velocity": 0.52,
      "hand": "right"
    },
    {
      "midi": 74,
      "time": 71.318,
      "duration": 0.258,
      "velocity": 0.86,
      "hand": "right"
    },
    {
      "midi": 67,
      "time": 71.591,
      "duration": 0.258,
      "velocity": 0.59,
      "hand": "right"
    },
    {
      "midi": 70,
      "time": 71.591,
      "duration": 0.121,
      "velocity": 0.65,
      "hand": "right"
    },
    {
      "midi": 74,
      "time": 71.591,
      "duration": 0.136,
      "velocity": 0.79,
      "hand": "right"
    },
    {
      "midi": 70,
      "time": 71.727,
      "duration": 0.273,
      "velocity": 0.76,
      "hand": "right"
    },
    {
      "midi": 67,
      "time": 71.864,
      "duration": 0.136,
      "velocity": 0.74,
      "hand": "right"
    },
    {
      "midi": 74,
      "time": 71.864,
      "duration": 0.257,
      "velocity": 0.62,
      "hand": "right"
    },
    {
      "midi": 48,
      "time": 72.136,
      "duration": 0.682,
      "velocity": 0.28,
      "hand": "left"
    },
    {
      "midi": 52,
      "time": 72.136,
      "duration": 0.682,
      "velocity": 0.39,
      "hand": "left"
    },
    {
      "midi": 70,
      "time": 72.136,
      "duration": 0.273,
      "velocity": 0.47,
      "hand": "right"
    },
    {
      "midi": 72,
      "time": 72.136,
      "duration": 0.273,
      "velocity": 0.63,
      "hand": "right"
    },
    {
      "midi": 74,
      "time": 72.136,
      "duration": 0.545,
      "velocity": 0.92,
      "hand": "right"
    },
    {
      "midi": 76,
      "time": 72.136,
      "duration": 0.273,
      "velocity": 0.59,
      "hand": "right"
    },
    {
      "midi": 40,
      "time": 72.273,
      "duration": 1.091,
      "velocity": 0.57,
      "hand": "left"
    },
    {
      "midi": 67,
      "time": 72.409,
      "duration": 0.273,
      "velocity": 0.68,
      "hand": "right"
    },
    {
      "midi": 70,
      "time": 72.682,
      "duration": 0.136,
      "velocity": 0.39,
      "hand": "right"
    },
    {
      "midi": 72,
      "time": 72.682,
      "duration": 0.273,
      "velocity": 0.71,
      "hand": "right"
    },
    {
      "midi": 76,
      "time": 72.682,
      "duration": 0.121,
      "velocity": 0.66,
      "hand": "right"
    },
    {
      "midi": 76,
      "time": 72.818,
      "duration": 0.545,
      "velocity": 0.68,
      "hand": "right"
    },
    {
      "midi": 79,
      "time": 72.955,
      "duration": 0.273,
      "velocity": 0.65,
      "hand": "right"
    },
    {
      "midi": 41,
      "time": 73.227,
      "duration": 1.091,
      "velocity": 0.45,
      "hand": "left"
    },
    {
      "midi": 53,
      "time": 73.227,
      "duration": 0.818,
      "velocity": 0.32,
      "hand": "left"
    },
    {
      "midi": 60,
      "time": 73.227,
      "duration": 0.258,
      "velocity": 0.51,
      "hand": "right"
    },
    {
      "midi": 65,
      "time": 73.227,
      "duration": 0.531,
      "velocity": 0.31,
      "hand": "right"
    },
    {
      "midi": 69,
      "time": 73.227,
      "duration": 0.273,
      "velocity": 0.44,
      "hand": "right"
    },
    {
      "midi": 78,
      "time": 73.227,
      "duration": 2.045,
      "velocity": 0.81,
      "hand": "right"
    },
    {
      "midi": 72,
      "time": 73.364,
      "duration": 0.257,
      "velocity": 0.65,
      "hand": "right"
    },
    {
      "midi": 74,
      "time": 73.364,
      "duration": 0.273,
      "velocity": 0.83,
      "hand": "right"
    },
    {
      "midi": 77,
      "time": 73.364,
      "duration": 0.273,
      "velocity": 0.65,
      "hand": "right"
    },
    {
      "midi": 60,
      "time": 73.5,
      "duration": 0.545,
      "velocity": 0.69,
      "hand": "right"
    },
    {
      "midi": 72,
      "time": 73.636,
      "duration": 0.136,
      "velocity": 0.72,
      "hand": "right"
    },
    {
      "midi": 65,
      "time": 73.773,
      "duration": 0.273,
      "velocity": 0.52,
      "hand": "right"
    },
    {
      "midi": 69,
      "time": 73.773,
      "duration": 0.121,
      "velocity": 0.57,
      "hand": "right"
    },
    {
      "midi": 69,
      "time": 73.909,
      "duration": 0.273,
      "velocity": 0.83,
      "hand": "right"
    },
    {
      "midi": 72,
      "time": 73.909,
      "duration": 0.068,
      "velocity": 0.3,
      "hand": "right"
    },
    {
      "midi": 77,
      "time": 73.909,
      "duration": 0.136,
      "velocity": 0.72,
      "hand": "right"
    },
    {
      "midi": 65,
      "time": 74.182,
      "duration": 0.258,
      "velocity": 0.74,
      "hand": "right"
    },
    {
      "midi": 72,
      "time": 74.182,
      "duration": 0.258,
      "velocity": 0.66,
      "hand": "right"
    },
    {
      "midi": 38,
      "time": 74.455,
      "duration": 1.091,
      "velocity": 0.45,
      "hand": "left"
    },
    {
      "midi": 50,
      "time": 74.455,
      "duration": 0.818,
      "velocity": 0.68,
      "hand": "left"
    },
    {
      "midi": 65,
      "time": 74.455,
      "duration": 0.273,
      "velocity": 0.4,
      "hand": "right"
    },
    {
      "midi": 69,
      "time": 74.455,
      "duration": 0.136,
      "velocity": 0.2,
      "hand": "right"
    },
    {
      "midi": 72,
      "time": 74.455,
      "duration": 0.545,
      "velocity": 0.92,
      "hand": "right"
    },
    {
      "midi": 74,
      "time": 74.455,
      "duration": 0.273,
      "velocity": 0.65,
      "hand": "right"
    },
    {
      "midi": 57,
      "time": 74.591,
      "duration": 0.545,
      "velocity": 0.54,
      "hand": "left"
    },
    {
      "midi": 53,
      "time": 74.727,
      "duration": 0.545,
      "velocity": 0.22,
      "hand": "left"
    },
    {
      "midi": 65,
      "time": 74.864,
      "duration": 0.121,
      "velocity": 0.55,
      "hand": "right"
    },
    {
      "midi": 69,
      "time": 74.864,
      "duration": 0.545,
      "velocity": 0.65,
      "hand": "right"
    },
    {
      "midi": 65,
      "time": 75,
      "duration": 0.068,
      "velocity": 0.43,
      "hand": "right"
    },
    {
      "midi": 74,
      "time": 75,
      "duration": 0.409,
      "velocity": 0.89,
      "hand": "right"
    },
    {
      "midi": 62,
      "time": 75.136,
      "duration": 0.136,
      "velocity": 0.43,
      "hand": "right"
    },
    {
      "midi": 43,
      "time": 75.409,
      "duration": 1.091,
      "velocity": 0.47,
      "hand": "left"
    },
    {
      "midi": 55,
      "time": 75.409,
      "duration": 0.121,
      "velocity": 0.12,
      "hand": "left"
    },
    {
      "midi": 78,
      "time": 75.409,
      "duration": 2.045,
      "velocity": 0.74,
      "hand": "right"
    },
    {
      "midi": 55,
      "time": 75.545,
      "duration": 0.955,
      "velocity": 0.54,
      "hand": "left"
    },
    {
      "midi": 58,
      "time": 75.545,
      "duration": 0.122,
      "velocity": 0.45,
      "hand": "left"
    },
    {
      "midi": 67,
      "time": 75.545,
      "duration": 0.409,
      "velocity": 0.24,
      "hand": "right"
    },
    {
      "midi": 70,
      "time": 75.545,
      "duration": 0.258,
      "velocity": 0.47,
      "hand": "right"
    },
    {
      "midi": 72,
      "time": 75.545,
      "duration": 0.273,
      "velocity": 0.86,
      "hand": "right"
    },
    {
      "midi": 74,
      "time": 75.545,
      "duration": 0.273,
      "velocity": 0.71,
      "hand": "right"
    },
    {
      "midi": 58,
      "time": 75.682,
      "duration": 0.545,
      "velocity": 0.27,
      "hand": "left"
    },
    {
      "midi": 62,
      "time": 75.682,
      "duration": 0.273,
      "velocity": 0.42,
      "hand": "right"
    },
    {
      "midi": 70,
      "time": 75.818,
      "duration": 0.122,
      "velocity": 0.82,
      "hand": "right"
    },
    {
      "midi": 70,
      "time": 75.955,
      "duration": 0.121,
      "velocity": 0.5,
      "hand": "right"
    },
    {
      "midi": 74,
      "time": 75.955,
      "duration": 0.121,
      "velocity": 0.68,
      "hand": "right"
    },
    {
      "midi": 67,
      "time": 76.091,
      "duration": 0.273,
      "velocity": 0.45,
      "hand": "right"
    },
    {
      "midi": 70,
      "time": 76.091,
      "duration": 0.258,
      "velocity": 0.45,
      "hand": "right"
    },
    {
      "midi": 74,
      "time": 76.091,
      "duration": 0.273,
      "velocity": 0.39,
      "hand": "right"
    },
    {
      "midi": 70,
      "time": 76.364,
      "duration": 0.257,
      "velocity": 0.76,
      "hand": "right"
    },
    {
      "midi": 79,
      "time": 76.364,
      "duration": 0.273,
      "velocity": 0.46,
      "hand": "right"
    },
    {
      "midi": 69,
      "time": 76.5,
      "duration": 0.273,
      "velocity": 0.89,
      "hand": "right"
    },
    {
      "midi": 36,
      "time": 76.636,
      "duration": 1.091,
      "velocity": 0.38,
      "hand": "left"
    },
    {
      "midi": 48,
      "time": 76.636,
      "duration": 0.394,
      "velocity": 0.69,
      "hand": "left"
    },
    {
      "midi": 60,
      "time": 76.636,
      "duration": 0.394,
      "velocity": 0.36,
      "hand": "right"
    },
    {
      "midi": 64,
      "time": 76.636,
      "duration": 0.273,
      "velocity": 0.45,
      "hand": "right"
    },
    {
      "midi": 67,
      "time": 76.636,
      "duration": 0.258,
      "velocity": 0.39,
      "hand": "right"
    },
    {
      "midi": 70,
      "time": 76.636,
      "duration": 0.273,
      "velocity": 0.42,
      "hand": "right"
    },
    {
      "midi": 52,
      "time": 76.773,
      "duration": 0.409,
      "velocity": 0.35,
      "hand": "left"
    },
    {
      "midi": 55,
      "time": 76.773,
      "duration": 0.409,
      "velocity": 0.52,
      "hand": "left"
    },
    {
      "midi": 67,
      "time": 76.909,
      "duration": 0.121,
      "velocity": 0.81,
      "hand": "right"
    },
    {
      "midi": 48,
      "time": 77.045,
      "duration": 0.136,
      "velocity": 0.16,
      "hand": "left"
    },
    {
      "midi": 64,
      "time": 77.045,
      "duration": 0.122,
      "velocity": 0.52,
      "hand": "right"
    },
    {
      "midi": 67,
      "time": 77.045,
      "duration": 0.122,
      "velocity": 0.49,
      "hand": "right"
    },
    {
      "midi": 70,
      "time": 77.045,
      "duration": 0.136,
      "velocity": 0.45,
      "hand": "right"
    },
    {
      "midi": 72,
      "time": 77.045,
      "duration": 0.273,
      "velocity": 0.81,
      "hand": "right"
    },
    {
      "midi": 64,
      "time": 77.182,
      "duration": 0.545,
      "velocity": 0.43,
      "hand": "right"
    },
    {
      "midi": 67,
      "time": 77.182,
      "duration": 0.545,
      "velocity": 0.54,
      "hand": "right"
    },
    {
      "midi": 52,
      "time": 77.318,
      "duration": 0.136,
      "velocity": 0.74,
      "hand": "left"
    },
    {
      "midi": 69,
      "time": 77.318,
      "duration": 0.258,
      "velocity": 0.65,
      "hand": "right"
    },
    {
      "midi": 41,
      "time": 77.591,
      "duration": 1.091,
      "velocity": 0.41,
      "hand": "left"
    },
    {
      "midi": 53,
      "time": 77.591,
      "duration": 0.121,
      "velocity": 0.66,
      "hand": "left"
    },
    {
      "midi": 69,
      "time": 77.591,
      "duration": 0.273,
      "velocity": 0.49,
      "hand": "right"
    },
    {
      "midi": 78,
      "time": 77.591,
      "duration": 0.136,
      "velocity": 0.84,
      "hand": "right"
    },
    {
      "midi": 53,
      "time": 77.727,
      "duration": 0.682,
      "velocity": 0.38,
      "hand": "left"
    },
    {
      "midi": 57,
      "time": 77.727,
      "duration": 0.122,
      "velocity": 0.46,
      "hand": "left"
    },
    {
      "midi": 60,
      "time": 77.727,
      "duration": 0.667,
      "velocity": 0.65,
      "hand": "right"
    },
    {
      "midi": 65,
      "time": 77.727,
      "duration": 1.076,
      "velocity": 0.83,
      "hand": "right"
    },
    {
      "midi": 72,
      "time": 77.727,
      "duration": 0.122,
      "velocity": 0.54,
      "hand": "right"
    },
    {
      "midi": 77,
      "time": 77.727,
      "duration": 0.273,
      "velocity": 0.68,
      "hand": "right"
    },
    {
      "midi": 57,
      "time": 77.864,
      "duration": 0.682,
      "velocity": 0.38,
      "hand": "left"
    },
    {
      "midi": 72,
      "time": 77.864,
      "duration": 0.257,
      "velocity": 0.92,
      "hand": "right"
    },
    {
      "midi": 69,
      "time": 78.136,
      "duration": 0.667,
      "velocity": 0.72,
      "hand": "right"
    },
    {
      "midi": 72,
      "time": 78.136,
      "duration": 0.068,
      "velocity": 0.71,
      "hand": "right"
    },
    {
      "midi": 77,
      "time": 78.136,
      "duration": 0.068,
      "velocity": 0.76,
      "hand": "right"
    },
    {
      "midi": 72,
      "time": 78.273,
      "duration": 0.257,
      "velocity": 0.16,
      "hand": "right"
    },
    {
      "midi": 60,
      "time": 78.409,
      "duration": 0.136,
      "velocity": 0.59,
      "hand": "right"
    },
    {
      "midi": 78,
      "time": 78.409,
      "duration": 1.227,
      "velocity": 0.38,
      "hand": "right"
    },
    {
      "midi": 72,
      "time": 78.545,
      "duration": 0.258,
      "velocity": 0.86,
      "hand": "right"
    },
    {
      "midi": 45,
      "time": 78.682,
      "duration": 1.091,
      "velocity": 0.66,
      "hand": "left"
    },
    {
      "midi": 57,
      "time": 78.682,
      "duration": 0.121,
      "velocity": 0.59,
      "hand": "left"
    },
    {
      "midi": 53,
      "time": 78.818,
      "duration": 0.682,
      "velocity": 0.33,
      "hand": "left"
    },
    {
      "midi": 57,
      "time": 78.818,
      "duration": 0.682,
      "velocity": 0.38,
      "hand": "left"
    },
    {
      "midi": 65,
      "time": 78.818,
      "duration": 0.258,
      "velocity": 0.24,
      "hand": "right"
    },
    {
      "midi": 69,
      "time": 78.818,
      "duration": 0.273,
      "velocity": 0.46,
      "hand": "right"
    },
    {
      "midi": 72,
      "time": 78.818,
      "duration": 0.273,
      "velocity": 0.59,
      "hand": "right"
    },
    {
      "midi": 77,
      "time": 78.818,
      "duration": 0.273,
      "velocity": 0.71,
      "hand": "right"
    },
    {
      "midi": 60,
      "time": 78.955,
      "duration": 0.545,
      "velocity": 0.08,
      "hand": "right"
    },
    {
      "midi": 65,
      "time": 79.091,
      "duration": 0.068,
      "velocity": 0.57,
      "hand": "right"
    },
    {
      "midi": 70,
      "time": 79.091,
      "duration": 0.136,
      "velocity": 0.66,
      "hand": "right"
    },
    {
      "midi": 70,
      "time": 79.364,
      "duration": 0.136,
      "velocity": 0.68,
      "hand": "right"
    },
    {
      "midi": 72,
      "time": 79.364,
      "duration": 0.545,
      "velocity": 0.69,
      "hand": "right"
    },
    {
      "midi": 77,
      "time": 79.364,
      "duration": 0.136,
      "velocity": 0.72,
      "hand": "right"
    },
    {
      "midi": 65,
      "time": 79.5,
      "duration": 0.273,
      "velocity": 0.55,
      "hand": "right"
    },
    {
      "midi": 70,
      "time": 79.636,
      "duration": 0.258,
      "velocity": 0.74,
      "hand": "right"
    },
    {
      "midi": 78,
      "time": 79.773,
      "duration": 2.167,
      "velocity": 0.81,
      "hand": "right"
    },
    {
      "midi": 46,
      "time": 79.909,
      "duration": 1.091,
      "velocity": 0.46,
      "hand": "left"
    },
    {
      "midi": 55,
      "time": 79.909,
      "duration": 0.955,
      "velocity": 0.47,
      "hand": "left"
    },
    {
      "midi": 62,
      "time": 79.909,
      "duration": 0.121,
      "velocity": 0.4,
      "hand": "right"
    },
    {
      "midi": 67,
      "time": 79.909,
      "duration": 0.545,
      "velocity": 0.74,
      "hand": "right"
    },
    {
      "midi": 70,
      "time": 79.909,
      "duration": 0.258,
      "velocity": 0.36,
      "hand": "right"
    },
    {
      "midi": 74,
      "time": 79.909,
      "duration": 0.273,
      "velocity": 0.79,
      "hand": "right"
    },
    {
      "midi": 62,
      "time": 80.045,
      "duration": 0.409,
      "velocity": 0.57,
      "hand": "right"
    },
    {
      "midi": 58,
      "time": 80.182,
      "duration": 0.545,
      "velocity": 0.2,
      "hand": "left"
    },
    {
      "midi": 70,
      "time": 80.182,
      "duration": 0.258,
      "velocity": 0.55,
      "hand": "right"
    },
    {
      "midi": 70,
      "time": 80.455,
      "duration": 0.257,
      "velocity": 0.65,
      "hand": "right"
    },
    {
      "midi": 74,
      "time": 80.455,
      "duration": 0.545,
      "velocity": 0.83,
      "hand": "right"
    },
    {
      "midi": 67,
      "time": 80.591,
      "duration": 0.136,
      "velocity": 0.42,
      "hand": "right"
    },
    {
      "midi": 70,
      "time": 80.727,
      "duration": 0.136,
      "velocity": 0.76,
      "hand": "right"
    },
    {
      "midi": 79,
      "time": 80.727,
      "duration": 0.273,
      "velocity": 0.15,
      "hand": "right"
    },
    {
      "midi": 36,
      "time": 81,
      "duration": 1.091,
      "velocity": 0.57,
      "hand": "left"
    },
    {
      "midi": 48,
      "time": 81,
      "duration": 0.818,
      "velocity": 0.62,
      "hand": "left"
    },
    {
      "midi": 67,
      "time": 81,
      "duration": 0.136,
      "velocity": 0.71,
      "hand": "right"
    },
    {
      "midi": 70,
      "time": 81,
      "duration": 0.273,
      "velocity": 0.39,
      "hand": "right"
    },
    {
      "midi": 72,
      "time": 81,
      "duration": 0.258,
      "velocity": 0.38,
      "hand": "right"
    },
    {
      "midi": 76,
      "time": 81,
      "duration": 0.273,
      "velocity": 0.57,
      "hand": "right"
    },
    {
      "midi": 52,
      "time": 81.273,
      "duration": 0.545,
      "velocity": 0.39,
      "hand": "left"
    },
    {
      "midi": 55,
      "time": 81.273,
      "duration": 0.545,
      "velocity": 0.49,
      "hand": "left"
    },
    {
      "midi": 72,
      "time": 81.273,
      "duration": 0.136,
      "velocity": 0.86,
      "hand": "right"
    },
    {
      "midi": 67,
      "time": 81.545,
      "duration": 0.545,
      "velocity": 0.39,
      "hand": "right"
    },
    {
      "midi": 70,
      "time": 81.545,
      "duration": 0.136,
      "velocity": 0.41,
      "hand": "right"
    },
    {
      "midi": 72,
      "time": 81.545,
      "duration": 0.258,
      "velocity": 0.61,
      "hand": "right"
    },
    {
      "midi": 76,
      "time": 81.545,
      "duration": 0.136,
      "velocity": 0.57,
      "hand": "right"
    },
    {
      "midi": 60,
      "time": 81.682,
      "duration": 0.136,
      "velocity": 0.54,
      "hand": "right"
    },
    {
      "midi": 72,
      "time": 81.818,
      "duration": 0.136,
      "velocity": 0.81,
      "hand": "right"
    },
    {
      "midi": 41,
      "time": 81.955,
      "duration": 0.818,
      "velocity": 0.38,
      "hand": "left"
    },
    {
      "midi": 78,
      "time": 81.955,
      "duration": 2.045,
      "velocity": 0.7,
      "hand": "right"
    },
    {
      "midi": 53,
      "time": 82.091,
      "duration": 0.955,
      "velocity": 0.5,
      "hand": "left"
    },
    {
      "midi": 57,
      "time": 82.091,
      "duration": 0.682,
      "velocity": 0.3,
      "hand": "left"
    },
    {
      "midi": 65,
      "time": 82.091,
      "duration": 0.394,
      "velocity": 0.29,
      "hand": "right"
    },
    {
      "midi": 69,
      "time": 82.091,
      "duration": 0.409,
      "velocity": 0.76,
      "hand": "right"
    },
    {
      "midi": 72,
      "time": 82.091,
      "duration": 0.273,
      "velocity": 0.29,
      "hand": "right"
    },
    {
      "midi": 77,
      "time": 82.091,
      "duration": 0.273,
      "velocity": 0.68,
      "hand": "right"
    },
    {
      "midi": 60,
      "time": 82.227,
      "duration": 0.409,
      "velocity": 0.31,
      "hand": "right"
    },
    {
      "midi": 65,
      "time": 82.5,
      "duration": 0.409,
      "velocity": 0.42,
      "hand": "right"
    },
    {
      "midi": 69,
      "time": 82.636,
      "duration": 0.531,
      "velocity": 0.69,
      "hand": "right"
    },
    {
      "midi": 72,
      "time": 82.636,
      "duration": 0.258,
      "velocity": 0.86,
      "hand": "right"
    },
    {
      "midi": 77,
      "time": 82.636,
      "duration": 0.545,
      "velocity": 0.72,
      "hand": "right"
    },
    {
      "midi": 57,
      "time": 82.909,
      "duration": 0.136,
      "velocity": 0.25,
      "hand": "left"
    },
    {
      "midi": 60,
      "time": 82.909,
      "duration": 0.136,
      "velocity": 0.43,
      "hand": "right"
    },
    {
      "midi": 72,
      "time": 82.909,
      "duration": 0.273,
      "velocity": 0.81,
      "hand": "right"
    },
    {
      "midi": 38,
      "time": 83.182,
      "duration": 1.091,
      "velocity": 0.55,
      "hand": "left"
    },
    {
      "midi": 50,
      "time": 83.182,
      "duration": 0.818,
      "velocity": 0.59,
      "hand": "left"
    },
    {
      "midi": 62,
      "time": 83.182,
      "duration": 0.682,
      "velocity": 0.28,
      "hand": "right"
    },
    {
      "midi": 65,
      "time": 83.182,
      "duration": 0.273,
      "velocity": 0.41,
      "hand": "right"
    },
    {
      "midi": 69,
      "time": 83.182,
      "duration": 0.273,
      "velocity": 0.13,
      "hand": "right"
    },
    {
      "midi": 74,
      "time": 83.182,
      "duration": 0.273,
      "velocity": 0.79,
      "hand": "right"
    },
    {
      "midi": 53,
      "time": 83.455,
      "duration": 0.409,
      "velocity": 0.08,
      "hand": "left"
    },
    {
      "midi": 57,
      "time": 83.455,
      "duration": 0.545,
      "velocity": 0.59,
      "hand": "left"
    },
    {
      "midi": 70,
      "time": 83.455,
      "duration": 0.136,
      "velocity": 0.47,
      "hand": "right"
    },
    {
      "midi": 65,
      "time": 83.727,
      "duration": 0.545,
      "velocity": 0.52,
      "hand": "right"
    },
    {
      "midi": 70,
      "time": 83.727,
      "duration": 0.273,
      "velocity": 0.72,
      "hand": "right"
    },
    {
      "midi": 74,
      "time": 83.727,
      "duration": 0.394,
      "velocity": 0.69,
      "hand": "right"
    },
    {
      "midi": 62,
      "time": 84,
      "duration": 0.121,
      "velocity": 0.42,
      "hand": "right"
    },
    {
      "midi": 69,
      "time": 84,
      "duration": 0.273,
      "velocity": 0.79,
      "hand": "right"
    },
    {
      "midi": 43,
      "time": 84.136,
      "duration": 0.955,
      "velocity": 0.46,
      "hand": "left"
    },
    {
      "midi": 55,
      "time": 84.136,
      "duration": 0.122,
      "velocity": 0.14,
      "hand": "left"
    },
    {
      "midi": 62,
      "time": 84.136,
      "duration": 0.258,
      "velocity": 0.54,
      "hand": "right"
    },
    {
      "midi": 70,
      "time": 84.136,
      "duration": 0.273,
      "velocity": 0.42,
      "hand": "right"
    },
    {
      "midi": 74,
      "time": 84.136,
      "duration": 0.273,
      "velocity": 0.72,
      "hand": "right"
    },
    {
      "midi": 78,
      "time": 84.136,
      "duration": 3.136,
      "velocity": 0.84,
      "hand": "right"
    },
    {
      "midi": 55,
      "time": 84.273,
      "duration": 0.818,
      "velocity": 0.59,
      "hand": "left"
    },
    {
      "midi": 67,
      "time": 84.273,
      "duration": 0.394,
      "velocity": 0.79,
      "hand": "right"
    },
    {
      "midi": 58,
      "time": 84.409,
      "duration": 0.545,
      "velocity": 0.39,
      "hand": "left"
    },
    {
      "midi": 62,
      "time": 84.409,
      "duration": 0.273,
      "velocity": 0.5,
      "hand": "right"
    },
    {
      "midi": 76,
      "time": 84.545,
      "duration": 0.545,
      "velocity": 0.76,
      "hand": "right"
    },
    {
      "midi": 67,
      "time": 84.682,
      "duration": 0.273,
      "velocity": 0.46,
      "hand": "right"
    },
    {
      "midi": 74,
      "time": 84.682,
      "duration": 0.136,
      "velocity": 0.72,
      "hand": "right"
    },
    {
      "midi": 70,
      "time": 84.818,
      "duration": 0.394,
      "velocity": 0.62,
      "hand": "right"
    },
    {
      "midi": 62,
      "time": 84.955,
      "duration": 0.068,
      "velocity": 0.35,
      "hand": "right"
    },
    {
      "midi": 74,
      "time": 84.955,
      "duration": 0.121,
      "velocity": 0.52,
      "hand": "right"
    },
    {
      "midi": 74,
      "time": 85.091,
      "duration": 0.273,
      "velocity": 0.74,
      "hand": "right"
    },
    {
      "midi": 36,
      "time": 85.227,
      "duration": 1.091,
      "velocity": 0.5,
      "hand": "left"
    },
    {
      "midi": 48,
      "time": 85.227,
      "duration": 0.122,
      "velocity": 0.17,
      "hand": "left"
    },
    {
      "midi": 60,
      "time": 85.227,
      "duration": 0.409,
      "velocity": 0.23,
      "hand": "right"
    },
    {
      "midi": 70,
      "time": 85.227,
      "duration": 0.273,
      "velocity": 0.22,
      "hand": "right"
    },
    {
      "midi": 48,
      "time": 85.364,
      "duration": 0.818,
      "velocity": 0.69,
      "hand": "left"
    },
    {
      "midi": 52,
      "time": 85.364,
      "duration": 0.394,
      "velocity": 0.19,
      "hand": "left"
    },
    {
      "midi": 64,
      "time": 85.364,
      "duration": 0.273,
      "velocity": 0.18,
      "hand": "right"
    },
    {
      "midi": 67,
      "time": 85.364,
      "duration": 0.136,
      "velocity": 0.08,
      "hand": "right"
    },
    {
      "midi": 72,
      "time": 85.364,
      "duration": 0.273,
      "velocity": 0.79,
      "hand": "right"
    },
    {
      "midi": 55,
      "time": 85.5,
      "duration": 0.545,
      "velocity": 0.65,
      "hand": "left"
    },
    {
      "midi": 70,
      "time": 85.636,
      "duration": 0.258,
      "velocity": 0.55,
      "hand": "right"
    },
    {
      "midi": 52,
      "time": 85.773,
      "duration": 0.409,
      "velocity": 0.08,
      "hand": "left"
    },
    {
      "midi": 60,
      "time": 85.773,
      "duration": 0.136,
      "velocity": 0.28,
      "hand": "right"
    },
    {
      "midi": 64,
      "time": 85.909,
      "duration": 0.545,
      "velocity": 0.47,
      "hand": "right"
    },
    {
      "midi": 67,
      "time": 85.909,
      "duration": 0.258,
      "velocity": 0.54,
      "hand": "right"
    },
    {
      "midi": 70,
      "time": 85.909,
      "duration": 0.136,
      "velocity": 0.42,
      "hand": "right"
    },
    {
      "midi": 60,
      "time": 86.045,
      "duration": 0.136,
      "velocity": 0.2,
      "hand": "right"
    },
    {
      "midi": 67,
      "time": 86.182,
      "duration": 0.273,
      "velocity": 0.09,
      "hand": "right"
    },
    {
      "midi": 72,
      "time": 86.182,
      "duration": 0.136,
      "velocity": 0.08,
      "hand": "right"
    },
    {
      "midi": 69,
      "time": 86.318,
      "duration": 0.273,
      "velocity": 0.49,
      "hand": "right"
    },
    {
      "midi": 41,
      "time": 86.455,
      "duration": 1.091,
      "velocity": 0.52,
      "hand": "left"
    },
    {
      "midi": 53,
      "time": 86.455,
      "duration": 0.955,
      "velocity": 0.57,
      "hand": "left"
    },
    {
      "midi": 60,
      "time": 86.455,
      "duration": 0.257,
      "velocity": 0.57,
      "hand": "right"
    },
    {
      "midi": 65,
      "time": 86.455,
      "duration": 0.53,
      "velocity": 0.4,
      "hand": "right"
    },
    {
      "midi": 72,
      "time": 86.455,
      "duration": 0.273,
      "velocity": 0.63,
      "hand": "right"
    },
    {
      "midi": 77,
      "time": 86.455,
      "duration": 0.273,
      "velocity": 0.74,
      "hand": "right"
    },
    {
      "midi": 60,
      "time": 86.727,
      "duration": 0.273,
      "velocity": 0.49,
      "hand": "right"
    },
    {
      "midi": 65,
      "time": 87,
      "duration": 0.409,
      "velocity": 0.68,
      "hand": "right"
    },
    {
      "midi": 69,
      "time": 87,
      "duration": 0.136,
      "velocity": 0.59,
      "hand": "right"
    },
    {
      "midi": 72,
      "time": 87,
      "duration": 0.068,
      "velocity": 0.14,
      "hand": "right"
    },
    {
      "midi": 77,
      "time": 87,
      "duration": 0.136,
      "velocity": 0.72,
      "hand": "right"
    },
    {
      "midi": 57,
      "time": 87.273,
      "duration": 0.257,
      "velocity": 0.52,
      "hand": "left"
    },
    {
      "midi": 60,
      "time": 87.273,
      "duration": 0.136,
      "velocity": 0.31,
      "hand": "right"
    },
    {
      "midi": 69,
      "time": 87.409,
      "duration": 0.955,
      "velocity": 0.42,
      "hand": "right"
    },
    {
      "midi": 78,
      "time": 87.409,
      "duration": 0.682,
      "velocity": 0.88,
      "hand": "right"
    },
    {
      "midi": 36,
      "time": 87.545,
      "duration": 1.091,
      "velocity": 0.27,
      "hand": "left"
    },
    {
      "midi": 53,
      "time": 87.545,
      "duration": 0.94,
      "velocity": 0.31,
      "hand": "left"
    },
    {
      "midi": 70,
      "time": 87.545,
      "duration": 0.545,
      "velocity": 0.13,
      "hand": "right"
    },
    {
      "midi": 72,
      "time": 87.545,
      "duration": 0.94,
      "velocity": 0.57,
      "hand": "right"
    },
    {
      "midi": 74,
      "time": 87.545,
      "duration": 0.409,
      "velocity": 0.54,
      "hand": "right"
    },
    {
      "midi": 77,
      "time": 87.545,
      "duration": 0.531,
      "velocity": 0.49,
      "hand": "right"
    },
    {
      "midi": 74,
      "time": 88.091,
      "duration": 0.136,
      "velocity": 0.59,
      "hand": "right"
    },
    {
      "midi": 77,
      "time": 88.091,
      "duration": 0.136,
      "velocity": 0.68,
      "hand": "right"
    },
    {
      "midi": 41,
      "time": 88.5,
      "duration": 0.682,
      "velocity": 0.38,
      "hand": "left"
    },
    {
      "midi": 53,
      "time": 88.5,
      "duration": 0.545,
      "velocity": 0.23,
      "hand": "left"
    },
    {
      "midi": 60,
      "time": 88.5,
      "duration": 0.121,
      "velocity": 0.68,
      "hand": "right"
    },
    {
      "midi": 69,
      "time": 88.5,
      "duration": 0.121,
      "velocity": 0.46,
      "hand": "right"
    },
    {
      "midi": 72,
      "time": 88.5,
      "duration": 0.121,
      "velocity": 0.51,
      "hand": "right"
    },
    {
      "midi": 57,
      "time": 88.636,
      "duration": 0.545,
      "velocity": 0.29,
      "hand": "left"
    },
    {
      "midi": 65,
      "time": 88.636,
      "duration": 0.545,
      "velocity": 0.69,
      "hand": "right"
    },
    {
      "midi": 69,
      "time": 88.636,
      "duration": 0.682,
      "velocity": 0.25,
      "hand": "right"
    },
    {
      "midi": 72,
      "time": 88.636,
      "duration": 0.682,
      "velocity": 0.49,
      "hand": "right"
    },
    {
      "midi": 77,
      "time": 88.636,
      "duration": 0.682,
      "velocity": 0.79,
      "hand": "right"
    }
  ]
}
