{
  "id": "fur-elise-pro",
  "title": "Für Elise (Profissional)",
  "artist": "Beethoven",
  "difficulty": "Difícil",
  "bpm": 125,
  "duration": 60,
  "category": "Clássicos",
  "isPremium": true,
  "coverUrl": "/images/covers/fur_elise_1775056434348.png",
  "notes": [
    { "midi": 76, "time": 0.00, "duration": 0.15, "velocity": 0.6, "hand": "right" },
    { "midi": 75, "time": 0.15, "duration": 0.15, "velocity": 0.6, "hand": "right" },
    { "midi": 76, "time": 0.30, "duration": 0.15, "velocity": 0.6, "hand": "right" },
    { "midi": 75, "time": 0.45, "duration": 0.15, "velocity": 0.6, "hand": "right" },
    { "midi": 76, "time": 0.60, "duration": 0.15, "velocity": 0.6, "hand": "right" },
    { "midi": 71, "time": 0.75, "duration": 0.15, "velocity": 0.5, "hand": "right" },
    { "midi": 74, "time": 0.90, "duration": 0.15, "velocity": 0.5, "hand": "right" },
    { "midi": 72, "time": 1.05, "duration": 0.15, "velocity": 0.5, "hand": "right" },
    { "midi": 69, "time": 1.20, "duration": 0.45, "velocity": 0.6, "hand": "right" },
    { "midi": 45, "time": 1.20, "duration": 0.60, "velocity": 0.6, "hand": "left" },
    { "midi": 52, "time": 1.50, "duration": 0.60, "velocity": 0.5, "hand": "left" },
    { "midi": 57, "time": 1.80, "duration": 0.60, "velocity": 0.5, "hand": "left" },
    { "midi": 60, "time": 1.95, "duration": 0.15, "velocity": 0.5, "hand": "right" },
    { "midi": 64, "time": 2.10, "duration": 0.15, "velocity": 0.5, "hand": "right" },
    { "midi": 69, "time": 2.25, "duration": 0.15, "velocity": 0.6, "hand": "right" },
    { "midi": 71, "time": 2.40, "duration": 0.45, "velocity": 0.6, "hand": "right" },
    { "midi": 40, "time": 2.40, "duration": 0.60, "velocity": 0.6, "hand": "left" },
    { "midi": 52, "time": 2.70, "duration": 0.60, "velocity": 0.5, "hand": "left" },
    { "midi": 56, "time": 3.00, "duration": 0.60, "velocity": 0.5, "hand": "left" },
    { "midi": 64, "time": 3.15, "duration": 0.15, "velocity": 0.5, "hand": "right" },
    { "midi": 68, "time": 3.30, "duration": 0.15, "velocity": 0.5, "hand": "right" },
    { "midi": 71, "time": 3.45, "duration": 0.15, "velocity": 0.6, "hand": "right" },
    { "midi": 72, "time": 3.60, "duration": 0.45, "velocity": 0.6, "hand": "right" },
    { "midi": 45, "time": 3.60, "duration": 0.60, "velocity": 0.6, "hand": "left" },
    { "midi": 52, "time": 3.90, "duration": 0.60, "velocity": 0.5, "hand": "left" },
    { "midi": 57, "time": 4.20, "duration": 0.60, "velocity": 0.5, "hand": "left" },
    { "midi": 64, "time": 4.35, "duration": 0.15, "velocity": 0.5, "hand": "right" },
    { "midi": 76, "time": 4.50, "duration": 0.15, "velocity": 0.6, "hand": "right" },
    { "midi": 75, "time": 4.65, "duration": 0.15, "velocity": 0.6, "hand": "right" },
    { "midi": 76, "time": 4.80, "duration": 0.15, "velocity": 0.6, "hand": "right" },
    { "midi": 75, "time": 4.95, "duration": 0.15, "velocity": 0.6, "hand": "right" },
    { "midi": 76, "time": 5.10, "duration": 0.15, "velocity": 0.6, "hand": "right" },
    { "midi": 71, "time": 5.25, "duration": 0.15, "velocity": 0.5, "hand": "right" },
    { "midi": 74, "time": 5.40, "duration": 0.15, "velocity": 0.5, "hand": "right" },
    { "midi": 72, "time": 5.55, "duration": 0.15, "velocity": 0.5, "hand": "right" },
    { "midi": 69, "time": 5.70, "duration": 0.45, "velocity": 0.6, "hand": "right" },
    { "midi": 45, "time": 5.70, "duration": 0.60, "velocity": 0.6, "hand": "left" },
    { "midi": 52, "time": 6.00, "duration": 0.60, "velocity": 0.5, "hand": "left" },
    { "midi": 57, "time": 6.30, "duration": 0.60, "velocity": 0.5, "hand": "left" },
    { "midi": 60, "time": 6.45, "duration": 0.15, "velocity": 0.5, "hand": "right" },
    { "midi": 64, "time": 6.60, "duration": 0.15, "velocity": 0.5, "hand": "right" },
    { "midi": 69, "time": 6.75, "duration": 0.15, "velocity": 0.6, "hand": "right" },
    { "midi": 71, "time": 6.90, "duration": 0.45, "velocity": 0.6, "hand": "right" },
    { "midi": 40, "time": 6.90, "duration": 0.60, "velocity": 0.6, "hand": "left" },
    { "midi": 52, "time": 7.20, "duration": 0.60, "velocity": 0.5, "hand": "left" },
    { "midi": 56, "time": 7.50, "duration": 0.60, "velocity": 0.5, "hand": "left" },
    { "midi": 64, "time": 7.65, "duration": 0.15, "velocity": 0.5, "hand": "right" },
    { "midi": 72, "time": 7.80, "duration": 0.15, "velocity": 0.5, "hand": "right" },
    { "midi": 71, "time": 7.95, "duration": 0.15, "velocity": 0.6, "hand": "right" },
    { "midi": 69, "time": 8.10, "duration": 1.00, "velocity": 0.6, "hand": "right" },
    { "midi": 45, "time": 8.10, "duration": 1.00, "velocity": 0.6, "hand": "left" }
  ]
}
