{
  "id": "fur-elise",
  "title": "Para Elisa",
  "artist": "Ludwig van Beethoven",
  "difficulty": "Médio",
  "bpm": 72,
  "duration": 156,
  "category": "Clássicos",
  "isPremium": true,
  "coverUrl": "/images/covers/placeholder.png",
  "notes": [
    {
      "midi": 76,
      "time": 0,
      "duration": 0.208,
      "velocity": 0.26,
      "hand": "right"
    },
    {
      "midi": 75,
      "time": 0.208,
      "duration": 0.208,
      "velocity": 0.26,
      "hand": "right"
    },
    {
      "midi": 76,
      "time": 0.417,
      "duration": 0.208,
      "velocity": 0.26,
      "hand": "right"
    },
    {
      "midi": 75,
      "time": 0.625,
      "duration": 0.208,
      "velocity": 0.26,
      "hand": "right"
    },
    {
      "midi": 76,
      "time": 0.833,
      "duration": 0.208,
      "velocity": 0.26,
      "hand": "right"
    },
    {
      "midi": 71,
      "time": 1.042,
      "duration": 0.208,
      "velocity": 0.26,
      "hand": "right"
    },
    {
      "midi": 74,
      "time": 1.25,
      "duration": 0.208,
      "velocity": 0.26,
      "hand": "right"
    },
    {
      "midi": 72,
      "time": 1.458,
      "duration": 0.208,
      "velocity": 0.26,
      "hand": "right"
    },
    {
      "midi": 45,
      "time": 1.667,
      "duration": 0.208,
      "velocity": 0.26,
      "hand": "left"
    },
    {
      "midi": 69,
      "time": 1.667,
      "duration": 0.417,
      "velocity": 0.26,
      "hand": "right"
    },
    {
      "midi": 52,
      "time": 1.875,
      "duration": 0.208,
      "velocity": 0.26,
      "hand": "left"
    },
    {
      "midi": 57,
      "time": 2.083,
      "duration": 0.208,
      "velocity": 0.26,
      "hand": "left"
    },
    {
      "midi": 60,
      "time": 2.292,
      "duration": 0.208,
      "velocity": 0.26,
      "hand": "right"
    },
    {
      "midi": 64,
      "time": 2.5,
      "duration": 0.208,
      "velocity": 0.26,
      "hand": "right"
    },
    {
      "midi": 69,
      "time": 2.708,
      "duration": 0.208,
      "velocity": 0.26,
      "hand": "right"
    },
    {
      "midi": 40,
      "time": 2.917,
      "duration": 0.208,
      "velocity": 0.26,
      "hand": "left"
    },
    {
      "midi": 71,
      "time": 2.917,
      "duration": 0.417,
      "velocity": 0.26,
      "hand": "right"
    },
    {
      "midi": 52,
      "time": 3.125,
      "duration": 0.208,
      "velocity": 0.26,
      "hand": "left"
    },
    {
      "midi": 56,
      "time": 3.333,
      "duration": 0.208,
      "velocity": 0.26,
      "hand": "left"
    },
    {
      "midi": 64,
      "time": 3.542,
      "duration": 0.208,
      "velocity": 0.26,
      "hand": "right"
    },
    {
      "midi": 68,
      "time": 3.75,
      "duration": 0.208,
      "velocity": 0.26,
      "hand": "right"
    },
    {
      "midi": 71,
      "time": 3.958,
      "duration": 0.208,
      "velocity": 0.26,
      "hand": "right"
    },
    {
      "midi": 45,
      "time": 4.167,
      "duration": 0.208,
      "velocity": 0.26,
      "hand": "left"
    },
    {
      "midi": 72,
      "time": 4.167,
      "duration": 0.417,
      "velocity": 0.26,
      "hand": "right"
    },
    {
      "midi": 52,
      "time": 4.375,
      "duration": 0.208,
      "velocity": 0.26,
      "hand": "left"
    },
    {
      "midi": 57,
      "time": 4.583,
      "duration": 0.208,
      "velocity": 0.26,
      "hand": "left"
    },
    {
      "midi": 64,
      "time": 4.792,
      "duration": 0.208,
      "velocity": 0.26,
      "hand": "right"
    },
    {
      "midi": 76,
      "time": 5,
      "duration": 0.208,
      "velocity": 0.26,
      "hand": "right"
    },
    {
      "midi": 75,
      "time": 5.208,
      "duration": 0.208,
      "velocity": 0.26,
      "hand": "right"
    },
    {
      "midi": 76,
      "time": 5.417,
      "duration": 0.208,
      "velocity": 0.26,
      "hand": "right"
    },
    {
      "midi": 75,
      "time": 5.625,
      "duration": 0.208,
      "velocity": 0.26,
      "hand": "right"
    },
    {
      "midi": 76,
      "time": 5.833,
      "duration": 0.208,
      "velocity": 0.26,
      "hand": "right"
    },
    {
      "midi": 71,
      "time": 6.042,
      "duration": 0.208,
      "velocity": 0.26,
      "hand": "right"
    },
    {
      "midi": 74,
      "time": 6.25,
      "duration": 0.208,
      "velocity": 0.26,
      "hand": "right"
    },
    {
      "midi": 72,
      "time": 6.458,
      "duration": 0.208,
      "velocity": 0.26,
      "hand": "right"
    },
    {
      "midi": 45,
      "time": 6.667,
      "duration": 0.208,
      "velocity": 0.26,
      "hand": "left"
    },
    {
      "midi": 69,
      "time": 6.667,
      "duration": 0.417,
      "velocity": 0.26,
      "hand": "right"
    },
    {
      "midi": 52,
      "time": 6.875,
      "duration": 0.208,
      "velocity": 0.26,
      "hand": "left"
    },
    {
      "midi": 57,
      "time": 7.083,
      "duration": 0.208,
      "velocity": 0.26,
      "hand": "left"
    },
    {
      "midi": 60,
      "time": 7.292,
      "duration": 0.208,
      "velocity": 0.26,
      "hand": "right"
    },
    {
      "midi": 64,
      "time": 7.5,
      "duration": 0.208,
      "velocity": 0.26,
      "hand": "right"
    },
    {
      "midi": 69,
      "time": 7.708,
      "duration": 0.208,
      "velocity": 0.26,
      "hand": "right"
    },
    {
      "midi": 40,
      "time": 7.917,
      "duration": 0.208,
      "velocity": 0.26,
      "hand": "left"
    },
    {
      "midi": 71,
      "time": 7.917,
      "duration": 0.417,
      "velocity": 0.26,
      "hand": "right"
    },
    {
      "midi": 52,
      "time": 8.125,
      "duration": 0.208,
      "velocity": 0.26,
      "hand": "left"
    },
    {
      "midi": 56,
      "time": 8.333,
      "duration": 0.208,
      "velocity": 0.26,
      "hand": "left"
    },
    {
      "midi": 62,
      "time": 8.542,
      "duration": 0.208,
      "velocity": 0.26,
      "hand": "right"
    },
    {
      "midi": 72,
      "time": 8.75,
      "duration": 0.208,
      "velocity": 0.26,
      "hand": "right"
    },
    {
      "midi": 71,
      "time": 8.958,
      "duration": 0.208,
      "velocity": 0.26,
      "hand": "right"
    },
    {
      "midi": 45,
      "time": 9.167,
      "duration": 0.208,
      "velocity": 0.26,
      "hand": "left"
    },
    {
      "midi": 69,
      "time": 9.167,
      "duration": 0.833,
      "velocity": 0.26,
      "hand": "right"
    },
    {
      "midi": 52,
      "time": 9.375,
      "duration": 0.208,
      "velocity": 0.26,
      "hand": "left"
    },
    {
      "midi": 57,
      "time": 9.583,
      "duration": 0.208,
      "velocity": 0.26,
      "hand": "left"
    },
    {
      "midi": 76,
      "time": 10,
      "duration": 0.208,
      "velocity": 0.26,
      "hand": "right"
    },
    {
      "midi": 75,
      "time": 10.208,
      "duration": 0.208,
      "velocity": 0.26,
      "hand": "right"
    },
    {
      "midi": 76,
      "time": 10.417,
      "duration": 0.208,
      "velocity": 0.26,
      "hand": "right"
    },
    {
      "midi": 75,
      "time": 10.625,
      "duration": 0.208,
      "velocity": 0.26,
      "hand": "right"
    },
    {
      "midi": 76,
      "time": 10.833,
      "duration": 0.208,
      "velocity": 0.26,
      "hand": "right"
    },
    {
      "midi": 71,
      "time": 11.042,
      "duration": 0.208,
      "velocity": 0.26,
      "hand": "right"
    },
    {
      "midi": 74,
      "time": 11.25,
      "duration": 0.208,
      "velocity": 0.26,
      "hand": "right"
    },
    {
      "midi": 72,
      "time": 11.458,
      "duration": 0.208,
      "velocity": 0.26,
      "hand": "right"
    },
    {
      "midi": 45,
      "time": 11.667,
      "duration": 0.208,
      "velocity": 0.26,
      "hand": "left"
    },
    {
      "midi": 69,
      "time": 11.667,
      "duration": 0.417,
      "velocity": 0.26,
      "hand": "right"
    },
    {
      "midi": 52,
      "time": 11.875,
      "duration": 0.208,
      "velocity": 0.26,
      "hand": "left"
    },
    {
      "midi": 57,
      "time": 12.083,
      "duration": 0.208,
      "velocity": 0.26,
      "hand": "left"
    },
    {
      "midi": 60,
      "time": 12.292,
      "duration": 0.208,
      "velocity": 0.26,
      "hand": "right"
    },
    {
      "midi": 64,
      "time": 12.5,
      "duration": 0.208,
      "velocity": 0.26,
      "hand": "right"
    },
    {
      "midi": 69,
      "time": 12.708,
      "duration": 0.208,
      "velocity": 0.26,
      "hand": "right"
    },
    {
      "midi": 40,
      "time": 12.917,
      "duration": 0.208,
      "velocity": 0.26,
      "hand": "left"
    },
    {
      "midi": 71,
      "time": 12.917,
      "duration": 0.417,
      "velocity": 0.26,
      "hand": "right"
    },
    {
      "midi": 52,
      "time": 13.125,
      "duration": 0.208,
      "velocity": 0.26,
      "hand": "left"
    },
    {
      "midi": 56,
      "time": 13.333,
      "duration": 0.208,
      "velocity": 0.26,
      "hand": "left"
    },
    {
      "midi": 64,
      "time": 13.542,
      "duration": 0.208,
      "velocity": 0.26,
      "hand": "right"
    },
    {
      "midi": 68,
      "time": 13.75,
      "duration": 0.208,
      "velocity": 0.26,
      "hand": "right"
    },
    {
      "midi": 71,
      "time": 13.958,
      "duration": 0.208,
      "velocity": 0.26,
      "hand": "right"
    },
    {
      "midi": 45,
      "time": 14.167,
      "duration": 0.208,
      "velocity": 0.26,
      "hand": "left"
    },
    {
      "midi": 72,
      "time": 14.167,
      "duration": 0.417,
      "velocity": 0.26,
      "hand": "right"
    },
    {
      "midi": 52,
      "time": 14.375,
      "duration": 0.208,
      "velocity": 0.26,
      "hand": "left"
    },
    {
      "midi": 57,
      "time": 14.583,
      "duration": 0.208,
      "velocity": 0.26,
      "hand": "left"
    },
    {
      "midi": 64,
      "time": 14.792,
      "duration": 0.208,
      "velocity": 0.26,
      "hand": "right"
    },
    {
      "midi": 76,
      "time": 15,
      "duration": 0.208,
      "velocity": 0.26,
      "hand": "right"
    },
    {
      "midi": 75,
      "time": 15.208,
      "duration": 0.208,
      "velocity": 0.26,
      "hand": "right"
    },
    {
      "midi": 76,
      "time": 15.417,
      "duration": 0.208,
      "velocity": 0.26,
      "hand": "right"
    },
    {
      "midi": 75,
      "time": 15.625,
      "duration": 0.208,
      "velocity": 0.26,
      "hand": "right"
    },
    {
      "midi": 76,
      "time": 15.833,
      "duration": 0.208,
      "velocity": 0.26,
      "hand": "right"
    },
    {
      "midi": 71,
      "time": 16.042,
      "duration": 0.208,
      "velocity": 0.26,
      "hand": "right"
    },
    {
      "midi": 74,
      "time": 16.25,
      "duration": 0.208,
      "velocity": 0.26,
      "hand": "right"
    },
    {
      "midi": 72,
      "time": 16.458,
      "duration": 0.208,
      "velocity": 0.26,
      "hand": "right"
    },
    {
      "midi": 45,
      "time": 16.667,
      "duration": 0.208,
      "velocity": 0.26,
      "hand": "left"
    },
    {
      "midi": 69,
      "time": 16.667,
      "duration": 0.417,
      "velocity": 0.26,
      "hand": "right"
    },
    {
      "midi": 52,
      "time": 16.875,
      "duration": 0.208,
      "velocity": 0.26,
      "hand": "left"
    },
    {
      "midi": 57,
      "time": 17.083,
      "duration": 0.208,
      "velocity": 0.26,
      "hand": "left"
    },
    {
      "midi": 60,
      "time": 17.292,
      "duration": 0.208,
      "velocity": 0.26,
      "hand": "right"
    },
    {
      "midi": 64,
      "time": 17.5,
      "duration": 0.208,
      "velocity": 0.26,
      "hand": "right"
    },
    {
      "midi": 69,
      "time": 17.708,
      "duration": 0.208,
      "velocity": 0.26,
      "hand": "right"
    },
    {
      "midi": 40,
      "time": 17.917,
      "duration": 0.208,
      "velocity": 0.26,
      "hand": "left"
    },
    {
      "midi": 71,
      "time": 17.917,
      "duration": 0.417,
      "velocity": 0.26,
      "hand": "right"
    },
    {
      "midi": 52,
      "time": 18.125,
      "duration": 0.208,
      "velocity": 0.26,
      "hand": "left"
    },
    {
      "midi": 56,
      "time": 18.333,
      "duration": 0.208,
      "velocity": 0.26,
      "hand": "left"
    },
    {
      "midi": 62,
      "time": 18.542,
      "duration": 0.208,
      "velocity": 0.26,
      "hand": "right"
    },
    {
      "midi": 72,
      "time": 18.75,
      "duration": 0.208,
      "velocity": 0.26,
      "hand": "right"
    },
    {
      "midi": 71,
      "time": 18.958,
      "duration": 0.208,
      "velocity": 0.26,
      "hand": "right"
    },
    {
      "midi": 45,
      "time": 19.167,
      "duration": 0.208,
      "velocity": 0.26,
      "hand": "left"
    },
    {
      "midi": 69,
      "time": 19.167,
      "duration": 0.417,
      "velocity": 0.26,
      "hand": "right"
    },
    {
      "midi": 52,
      "time": 19.375,
      "duration": 0.208,
      "velocity": 0.26,
      "hand": "left"
    },
    {
      "midi": 57,
      "time": 19.583,
      "duration": 0.208,
      "velocity": 0.26,
      "hand": "left"
    },
    {
      "midi": 71,
      "time": 19.792,
      "duration": 0.208,
      "velocity": 0.26,
      "hand": "right"
    },
    {
      "midi": 72,
      "time": 20,
      "duration": 0.208,
      "velocity": 0.26,
      "hand": "right"
    },
    {
      "midi": 74,
      "time": 20.208,
      "duration": 0.208,
      "velocity": 0.26,
      "hand": "right"
    },
    {
      "midi": 48,
      "time": 20.417,
      "duration": 0.208,
      "velocity": 0.26,
      "hand": "left"
    },
    {
      "midi": 76,
      "time": 20.417,
      "duration": 0.625,
      "velocity": 0.26,
      "hand": "right"
    },
    {
      "midi": 55,
      "time": 20.625,
      "duration": 0.208,
      "velocity": 0.26,
      "hand": "left"
    },
    {
      "midi": 60,
      "time": 20.833,
      "duration": 0.208,
      "velocity": 0.26,
      "hand": "right"
    },
    {
      "midi": 67,
      "time": 21.042,
      "duration": 0.208,
      "velocity": 0.26,
      "hand": "right"
    },
    {
      "midi": 77,
      "time": 21.25,
      "duration": 0.208,
      "velocity": 0.26,
      "hand": "right"
    },
    {
      "midi": 76,
      "time": 21.458,
      "duration": 0.208,
      "velocity": 0.26,
      "hand": "right"
    },
    {
      "midi": 43,
      "time": 21.667,
      "duration": 0.208,
      "velocity": 0.26,
      "hand": "left"
    },
    {
      "midi": 74,
      "time": 21.667,
      "duration": 0.625,
      "velocity": 0.26,
      "hand": "right"
    },
    {
      "midi": 55,
      "time": 21.875,
      "duration": 0.208,
      "velocity": 0.26,
      "hand": "left"
    },
    {
      "midi": 59,
      "time": 22.083,
      "duration": 0.208,
      "velocity": 0.26,
      "hand": "left"
    },
    {
      "midi": 65,
      "time": 22.292,
      "duration": 0.208,
      "velocity": 0.26,
      "hand": "right"
    },
    {
      "midi": 76,
      "time": 22.5,
      "duration": 0.208,
      "velocity": 0.26,
      "hand": "right"
    },
    {
      "midi": 74,
      "time": 22.708,
      "duration": 0.208,
      "velocity": 0.26,
      "hand": "right"
    },
    {
      "midi": 45,
      "time": 22.917,
      "duration": 0.208,
      "velocity": 0.26,
      "hand": "left"
    },
    {
      "midi": 72,
      "time": 22.917,
      "duration": 0.625,
      "velocity": 0.26,
      "hand": "right"
    },
    {
      "midi": 52,
      "time": 23.125,
      "duration": 0.208,
      "velocity": 0.26,
      "hand": "left"
    },
    {
      "midi": 57,
      "time": 23.333,
      "duration": 0.208,
      "velocity": 0.26,
      "hand": "left"
    },
    {
      "midi": 64,
      "time": 23.542,
      "duration": 0.208,
      "velocity": 0.26,
      "hand": "right"
    },
    {
      "midi": 74,
      "time": 23.75,
      "duration": 0.208,
      "velocity": 0.26,
      "hand": "right"
    },
    {
      "midi": 72,
      "time": 23.958,
      "duration": 0.208,
      "velocity": 0.26,
      "hand": "right"
    },
    {
      "midi": 40,
      "time": 24.167,
      "duration": 0.208,
      "velocity": 0.26,
      "hand": "left"
    },
    {
      "midi": 71,
      "time": 24.167,
      "duration": 0.417,
      "velocity": 0.26,
      "hand": "right"
    },
    {
      "midi": 52,
      "time": 24.375,
      "duration": 0.208,
      "velocity": 0.26,
      "hand": "left"
    },
    {
      "midi": 64,
      "time": 24.583,
      "duration": 0.208,
      "velocity": 0.26,
      "hand": "right"
    },
    {
      "midi": 64,
      "time": 24.792,
      "duration": 0.208,
      "velocity": 0.26,
      "hand": "right"
    },
    {
      "midi": 76,
      "time": 25,
      "duration": 0.208,
      "velocity": 0.26,
      "hand": "right"
    },
    {
      "midi": 64,
      "time": 25.208,
      "duration": 0.208,
      "velocity": 0.26,
      "hand": "right"
    },
    {
      "midi": 76,
      "time": 25.417,
      "duration": 0.208,
      "velocity": 0.26,
      "hand": "right"
    },
    {
      "midi": 76,
      "time": 25.625,
      "duration": 0.208,
      "velocity": 0.26,
      "hand": "right"
    },
    {
      "midi": 88,
      "time": 25.833,
      "duration": 0.208,
      "velocity": 0.26,
      "hand": "right"
    },
    {
      "midi": 75,
      "time": 26.042,
      "duration": 0.208,
      "velocity": 0.26,
      "hand": "right"
    },
    {
      "midi": 76,
      "time": 26.25,
      "duration": 0.208,
      "velocity": 0.26,
      "hand": "right"
    },
    {
      "midi": 75,
      "time": 26.458,
      "duration": 0.208,
      "velocity": 0.26,
      "hand": "right"
    },
    {
      "midi": 76,
      "time": 26.667,
      "duration": 0.417,
      "velocity": 0.26,
      "hand": "right"
    },
    {
      "midi": 75,
      "time": 26.875,
      "duration": 0.208,
      "velocity": 0.26,
      "hand": "right"
    },
    {
      "midi": 76,
      "time": 27.083,
      "duration": 0.208,
      "velocity": 0.26,
      "hand": "right"
    },
    {
      "midi": 75,
      "time": 27.292,
      "duration": 0.208,
      "velocity": 0.26,
      "hand": "right"
    },
    {
      "midi": 76,
      "time": 27.5,
      "duration": 0.208,
      "velocity": 0.26,
      "hand": "right"
    },
    {
      "midi": 75,
      "time": 27.708,
      "duration": 0.208,
      "velocity": 0.26,
      "hand": "right"
    },
    {
      "midi": 76,
      "time": 27.917,
      "duration": 0.208,
      "velocity": 0.26,
      "hand": "right"
    },
    {
      "midi": 75,
      "time": 28.125,
      "duration": 0.208,
      "velocity": 0.26,
      "hand": "right"
    },
    {
      "midi": 76,
      "time": 28.333,
      "duration": 0.208,
      "velocity": 0.26,
      "hand": "right"
    },
    {
      "midi": 71,
      "time": 28.542,
      "duration": 0.208,
      "velocity": 0.26,
      "hand": "right"
    },
    {
      "midi": 74,
      "time": 28.75,
      "duration": 0.208,
      "velocity": 0.26,
      "hand": "right"
    },
    {
      "midi": 72,
      "time": 28.958,
      "duration": 0.208,
      "velocity": 0.26,
      "hand": "right"
    },
    {
      "midi": 45,
      "time": 29.167,
      "duration": 0.208,
      "velocity": 0.26,
      "hand": "left"
    },
    {
      "midi": 69,
      "time": 29.167,
      "duration": 0.417,
      "velocity": 0.26,
      "hand": "right"
    },
    {
      "midi": 52,
      "time": 29.375,
      "duration": 0.208,
      "velocity": 0.26,
      "hand": "left"
    },
    {
      "midi": 57,
      "time": 29.583,
      "duration": 0.208,
      "velocity": 0.26,
      "hand": "left"
    },
    {
      "midi": 60,
      "time": 29.792,
      "duration": 0.208,
      "velocity": 0.26,
      "hand": "right"
    },
    {
      "midi": 64,
      "time": 30,
      "duration": 0.208,
      "velocity": 0.26,
      "hand": "right"
    },
    {
      "midi": 69,
      "time": 30.208,
      "duration": 0.208,
      "velocity": 0.26,
      "hand": "right"
    },
    {
      "midi": 40,
      "time": 30.417,
      "duration": 0.208,
      "velocity": 0.26,
      "hand": "left"
    },
    {
      "midi": 71,
      "time": 30.417,
      "duration": 0.417,
      "velocity": 0.26,
      "hand": "right"
    },
    {
      "midi": 52,
      "time": 30.625,
      "duration": 0.208,
      "velocity": 0.26,
      "hand": "left"
    },
    {
      "midi": 56,
      "time": 30.833,
      "duration": 0.208,
      "velocity": 0.26,
      "hand": "left"
    },
    {
      "midi": 64,
      "time": 31.042,
      "duration": 0.208,
      "velocity": 0.26,
      "hand": "right"
    },
    {
      "midi": 68,
      "time": 31.25,
      "duration": 0.208,
      "velocity": 0.26,
      "hand": "right"
    },
    {
      "midi": 71,
      "time": 31.458,
      "duration": 0.208,
      "velocity": 0.26,
      "hand": "right"
    },
    {
      "midi": 45,
      "time": 31.667,
      "duration": 0.208,
      "velocity": 0.26,
      "hand": "left"
    },
    {
      "midi": 72,
      "time": 31.667,
      "duration": 0.417,
      "velocity": 0.26,
      "hand": "right"
    },
    {
      "midi": 52,
      "time": 31.875,
      "duration": 0.208,
      "velocity": 0.26,
      "hand": "left"
    },
    {
      "midi": 57,
      "time": 32.083,
      "duration": 0.208,
      "velocity": 0.26,
      "hand": "left"
    },
    {
      "midi": 64,
      "time": 32.292,
      "duration": 0.208,
      "velocity": 0.26,
      "hand": "right"
    },
    {
      "midi": 76,
      "time": 32.5,
      "duration": 0.208,
      "velocity": 0.26,
      "hand": "right"
    },
    {
      "midi": 75,
      "time": 32.708,
      "duration": 0.208,
      "velocity": 0.26,
      "hand": "right"
    },
    {
      "midi": 76,
      "time": 32.917,
      "duration": 0.208,
      "velocity": 0.26,
      "hand": "right"
    },
    {
      "midi": 75,
      "time": 33.125,
      "duration": 0.208,
      "velocity": 0.26,
      "hand": "right"
    },
    {
      "midi": 76,
      "time": 33.333,
      "duration": 0.208,
      "velocity": 0.26,
      "hand": "right"
    },
    {
      "midi": 71,
      "time": 33.542,
      "duration": 0.208,
      "velocity": 0.26,
      "hand": "right"
    },
    {
      "midi": 74,
      "time": 33.75,
      "duration": 0.208,
      "velocity": 0.26,
      "hand": "right"
    },
    {
      "midi": 72,
      "time": 33.958,
      "duration": 0.208,
      "velocity": 0.26,
      "hand": "right"
    },
    {
      "midi": 45,
      "time": 34.167,
      "duration": 0.208,
      "velocity": 0.26,
      "hand": "left"
    },
    {
      "midi": 69,
      "time": 34.167,
      "duration": 0.417,
      "velocity": 0.26,
      "hand": "right"
    },
    {
      "midi": 52,
      "time": 34.375,
      "duration": 0.208,
      "velocity": 0.26,
      "hand": "left"
    },
    {
      "midi": 57,
      "time": 34.583,
      "duration": 0.208,
      "velocity": 0.26,
      "hand": "left"
    },
    {
      "midi": 60,
      "time": 34.792,
      "duration": 0.208,
      "velocity": 0.26,
      "hand": "right"
    },
    {
      "midi": 64,
      "time": 35,
      "duration": 0.208,
      "velocity": 0.26,
      "hand": "right"
    },
    {
      "midi": 69,
      "time": 35.208,
      "duration": 0.208,
      "velocity": 0.26,
      "hand": "right"
    },
    {
      "midi": 40,
      "time": 35.417,
      "duration": 0.208,
      "velocity": 0.26,
      "hand": "left"
    },
    {
      "midi": 71,
      "time": 35.417,
      "duration": 0.417,
      "velocity": 0.26,
      "hand": "right"
    },
    {
      "midi": 52,
      "time": 35.625,
      "duration": 0.208,
      "velocity": 0.26,
      "hand": "left"
    },
    {
      "midi": 56,
      "time": 35.833,
      "duration": 0.208,
      "velocity": 0.26,
      "hand": "left"
    },
    {
      "midi": 62,
      "time": 36.042,
      "duration": 0.208,
      "velocity": 0.26,
      "hand": "right"
    },
    {
      "midi": 72,
      "time": 36.25,
      "duration": 0.208,
      "velocity": 0.26,
      "hand": "right"
    },
    {
      "midi": 71,
      "time": 36.458,
      "duration": 0.208,
      "velocity": 0.26,
      "hand": "right"
    },
    {
      "midi": 45,
      "time": 36.667,
      "duration": 0.208,
      "velocity": 0.26,
      "hand": "left"
    },
    {
      "midi": 69,
      "time": 36.667,
      "duration": 0.417,
      "velocity": 0.26,
      "hand": "right"
    },
    {
      "midi": 52,
      "time": 36.875,
      "duration": 0.208,
      "velocity": 0.26,
      "hand": "left"
    },
    {
      "midi": 57,
      "time": 37.083,
      "duration": 0.208,
      "velocity": 0.26,
      "hand": "left"
    },
    {
      "midi": 71,
      "time": 37.292,
      "duration": 0.208,
      "velocity": 0.26,
      "hand": "right"
    },
    {
      "midi": 72,
      "time": 37.5,
      "duration": 0.208,
      "velocity": 0.26,
      "hand": "right"
    },
    {
      "midi": 74,
      "time": 37.708,
      "duration": 0.208,
      "velocity": 0.26,
      "hand": "right"
    },
    {
      "midi": 48,
      "time": 37.917,
      "duration": 0.208,
      "velocity": 0.26,
      "hand": "left"
    },
    {
      "midi": 76,
      "time": 37.917,
      "duration": 0.625,
      "velocity": 0.26,
      "hand": "right"
    },
    {
      "midi": 55,
      "time": 38.125,
      "duration": 0.208,
      "velocity": 0.26,
      "hand": "left"
    },
    {
      "midi": 60,
      "time": 38.333,
      "duration": 0.208,
      "velocity": 0.26,
      "hand": "right"
    },
    {
      "midi": 67,
      "time": 38.542,
      "duration": 0.208,
      "velocity": 0.26,
      "hand": "right"
    },
    {
      "midi": 77,
      "time": 38.75,
      "duration": 0.208,
      "velocity": 0.26,
      "hand": "right"
    },
    {
      "midi": 76,
      "time": 38.958,
      "duration": 0.208,
      "velocity": 0.26,
      "hand": "right"
    },
    {
      "midi": 43,
      "time": 39.167,
      "duration": 0.208,
      "velocity": 0.26,
      "hand": "left"
    },
    {
      "midi": 74,
      "time": 39.167,
      "duration": 0.625,
      "velocity": 0.26,
      "hand": "right"
    },
    {
      "midi": 55,
      "time": 39.375,
      "duration": 0.208,
      "velocity": 0.26,
      "hand": "left"
    },
    {
      "midi": 59,
      "time": 39.583,
      "duration": 0.208,
      "velocity": 0.26,
      "hand": "left"
    },
    {
      "midi": 65,
      "time": 39.792,
      "duration": 0.208,
      "velocity": 0.26,
      "hand": "right"
    },
    {
      "midi": 76,
      "time": 40,
      "duration": 0.208,
      "velocity": 0.26,
      "hand": "right"
    },
    {
      "midi": 74,
      "time": 40.208,
      "duration": 0.208,
      "velocity": 0.26,
      "hand": "right"
    },
    {
      "midi": 45,
      "time": 40.417,
      "duration": 0.208,
      "velocity": 0.26,
      "hand": "left"
    },
    {
      "midi": 72,
      "time": 40.417,
      "duration": 0.625,
      "velocity": 0.26,
      "hand": "right"
    },
    {
      "midi": 52,
      "time": 40.625,
      "duration": 0.208,
      "velocity": 0.26,
      "hand": "left"
    },
    {
      "midi": 57,
      "time": 40.833,
      "duration": 0.208,
      "velocity": 0.26,
      "hand": "left"
    },
    {
      "midi": 64,
      "time": 41.042,
      "duration": 0.208,
      "velocity": 0.26,
      "hand": "right"
    },
    {
      "midi": 74,
      "time": 41.25,
      "duration": 0.208,
      "velocity": 0.26,
      "hand": "right"
    },
    {
      "midi": 72,
      "time": 41.458,
      "duration": 0.208,
      "velocity": 0.26,
      "hand": "right"
    },
    {
      "midi": 40,
      "time": 41.667,
      "duration": 0.208,
      "velocity": 0.26,
      "hand": "left"
    },
    {
      "midi": 71,
      "time": 41.667,
      "duration": 0.417,
      "velocity": 0.26,
      "hand": "right"
    },
    {
      "midi": 52,
      "time": 41.875,
      "duration": 0.208,
      "velocity": 0.26,
      "hand": "left"
    },
    {
      "midi": 64,
      "time": 42.083,
      "duration": 0.208,
      "velocity": 0.26,
      "hand": "right"
    },
    {
      "midi": 64,
      "time": 42.292,
      "duration": 0.208,
      "velocity": 0.26,
      "hand": "right"
    },
    {
      "midi": 76,
      "time": 42.5,
      "duration": 0.208,
      "velocity": 0.26,
      "hand": "right"
    },
    {
      "midi": 64,
      "time": 42.708,
      "duration": 0.208,
      "velocity": 0.26,
      "hand": "right"
    },
    {
      "midi": 76,
      "time": 42.917,
      "duration": 0.208,
      "velocity": 0.26,
      "hand": "right"
    },
    {
      "midi": 76,
      "time": 43.125,
      "duration": 0.208,
      "velocity": 0.26,
      "hand": "right"
    },
    {
      "midi": 88,
      "time": 43.333,
      "duration": 0.208,
      "velocity": 0.26,
      "hand": "right"
    },
    {
      "midi": 75,
      "time": 43.542,
      "duration": 0.208,
      "velocity": 0.26,
      "hand": "right"
    },
    {
      "midi": 76,
      "time": 43.75,
      "duration": 0.208,
      "velocity": 0.26,
      "hand": "right"
    },
    {
      "midi": 75,
      "time": 43.958,
      "duration": 0.208,
      "velocity": 0.26,
      "hand": "right"
    },
    {
      "midi": 76,
      "time": 44.167,
      "duration": 0.417,
      "velocity": 0.26,
      "hand": "right"
    },
    {
      "midi": 75,
      "time": 44.375,
      "duration": 0.208,
      "velocity": 0.26,
      "hand": "right"
    },
    {
      "midi": 76,
      "time": 44.583,
      "duration": 0.208,
      "velocity": 0.26,
      "hand": "right"
    },
    {
      "midi": 75,
      "time": 44.792,
      "duration": 0.208,
      "velocity": 0.26,
      "hand": "right"
    },
    {
      "midi": 76,
      "time": 45,
      "duration": 0.208,
      "velocity": 0.26,
      "hand": "right"
    },
    {
      "midi": 75,
      "time": 45.208,
      "duration": 0.208,
      "velocity": 0.26,
      "hand": "right"
    },
    {
      "midi": 76,
      "time": 45.417,
      "duration": 0.208,
      "velocity": 0.26,
      "hand": "right"
    },
    {
      "midi": 75,
      "time": 45.625,
      "duration": 0.208,
      "velocity": 0.26,
      "hand": "right"
    },
    {
      "midi": 76,
      "time": 45.833,
      "duration": 0.208,
      "velocity": 0.26,
      "hand": "right"
    },
    {
      "midi": 71,
      "time": 46.042,
      "duration": 0.208,
      "velocity": 0.26,
      "hand": "right"
    },
    {
      "midi": 74,
      "time": 46.25,
      "duration": 0.208,
      "velocity": 0.26,
      "hand": "right"
    },
    {
      "midi": 72,
      "time": 46.458,
      "duration": 0.208,
      "velocity": 0.26,
      "hand": "right"
    },
    {
      "midi": 45,
      "time": 46.667,
      "duration": 0.208,
      "velocity": 0.26,
      "hand": "left"
    },
    {
      "midi": 69,
      "time": 46.667,
      "duration": 0.417,
      "velocity": 0.26,
      "hand": "right"
    },
    {
      "midi": 52,
      "time": 46.875,
      "duration": 0.208,
      "velocity": 0.26,
      "hand": "left"
    },
    {
      "midi": 57,
      "time": 47.083,
      "duration": 0.208,
      "velocity": 0.26,
      "hand": "left"
    },
    {
      "midi": 60,
      "time": 47.292,
      "duration": 0.208,
      "velocity": 0.26,
      "hand": "right"
    },
    {
      "midi": 64,
      "time": 47.5,
      "duration": 0.208,
      "velocity": 0.26,
      "hand": "right"
    },
    {
      "midi": 69,
      "time": 47.708,
      "duration": 0.208,
      "velocity": 0.26,
      "hand": "right"
    },
    {
      "midi": 40,
      "time": 47.917,
      "duration": 0.208,
      "velocity": 0.26,
      "hand": "left"
    },
    {
      "midi": 71,
      "time": 47.917,
      "duration": 0.417,
      "velocity": 0.26,
      "hand": "right"
    },
    {
      "midi": 52,
      "time": 48.125,
      "duration": 0.208,
      "velocity": 0.26,
      "hand": "left"
    },
    {
      "midi": 56,
      "time": 48.333,
      "duration": 0.208,
      "velocity": 0.26,
      "hand": "left"
    },
    {
      "midi": 64,
      "time": 48.542,
      "duration": 0.208,
      "velocity": 0.26,
      "hand": "right"
    },
    {
      "midi": 68,
      "time": 48.75,
      "duration": 0.208,
      "velocity": 0.26,
      "hand": "right"
    },
    {
      "midi": 71,
      "time": 48.958,
      "duration": 0.208,
      "velocity": 0.26,
      "hand": "right"
    },
    {
      "midi": 45,
      "time": 49.167,
      "duration": 0.208,
      "velocity": 0.26,
      "hand": "left"
    },
    {
      "midi": 72,
      "time": 49.167,
      "duration": 0.417,
      "velocity": 0.26,
      "hand": "right"
    },
    {
      "midi": 52,
      "time": 49.375,
      "duration": 0.208,
      "velocity": 0.26,
      "hand": "left"
    },
    {
      "midi": 57,
      "time": 49.583,
      "duration": 0.208,
      "velocity": 0.26,
      "hand": "left"
    },
    {
      "midi": 64,
      "time": 49.792,
      "duration": 0.208,
      "velocity": 0.26,
      "hand": "right"
    },
    {
      "midi": 76,
      "time": 50,
      "duration": 0.208,
      "velocity": 0.26,
      "hand": "right"
    },
    {
      "midi": 75,
      "time": 50.208,
      "duration": 0.208,
      "velocity": 0.26,
      "hand": "right"
    },
    {
      "midi": 76,
      "time": 50.417,
      "duration": 0.208,
      "velocity": 0.26,
      "hand": "right"
    },
    {
      "midi": 75,
      "time": 50.625,
      "duration": 0.208,
      "velocity": 0.26,
      "hand": "right"
    },
    {
      "midi": 76,
      "time": 50.833,
      "duration": 0.208,
      "velocity": 0.26,
      "hand": "right"
    },
    {
      "midi": 71,
      "time": 51.042,
      "duration": 0.208,
      "velocity": 0.26,
      "hand": "right"
    },
    {
      "midi": 74,
      "time": 51.25,
      "duration": 0.208,
      "velocity": 0.26,
      "hand": "right"
    },
    {
      "midi": 72,
      "time": 51.458,
      "duration": 0.208,
      "velocity": 0.26,
      "hand": "right"
    },
    {
      "midi": 45,
      "time": 51.667,
      "duration": 0.208,
      "velocity": 0.26,
      "hand": "left"
    },
    {
      "midi": 69,
      "time": 51.667,
      "duration": 0.417,
      "velocity": 0.26,
      "hand": "right"
    },
    {
      "midi": 52,
      "time": 51.875,
      "duration": 0.208,
      "velocity": 0.26,
      "hand": "left"
    },
    {
      "midi": 57,
      "time": 52.083,
      "duration": 0.208,
      "velocity": 0.26,
      "hand": "left"
    },
    {
      "midi": 60,
      "time": 52.292,
      "duration": 0.208,
      "velocity": 0.26,
      "hand": "right"
    },
    {
      "midi": 64,
      "time": 52.5,
      "duration": 0.208,
      "velocity": 0.26,
      "hand": "right"
    },
    {
      "midi": 69,
      "time": 52.708,
      "duration": 0.208,
      "velocity": 0.26,
      "hand": "right"
    },
    {
      "midi": 40,
      "time": 52.917,
      "duration": 0.208,
      "velocity": 0.26,
      "hand": "left"
    },
    {
      "midi": 71,
      "time": 52.917,
      "duration": 0.417,
      "velocity": 0.26,
      "hand": "right"
    },
    {
      "midi": 52,
      "time": 53.125,
      "duration": 0.208,
      "velocity": 0.26,
      "hand": "left"
    },
    {
      "midi": 56,
      "time": 53.333,
      "duration": 0.208,
      "velocity": 0.26,
      "hand": "left"
    },
    {
      "midi": 62,
      "time": 53.542,
      "duration": 0.208,
      "velocity": 0.26,
      "hand": "right"
    },
    {
      "midi": 72,
      "time": 53.75,
      "duration": 0.208,
      "velocity": 0.26,
      "hand": "right"
    },
    {
      "midi": 71,
      "time": 53.958,
      "duration": 0.208,
      "velocity": 0.26,
      "hand": "right"
    },
    {
      "midi": 45,
      "time": 54.167,
      "duration": 0.208,
      "velocity": 0.26,
      "hand": "left"
    },
    {
      "midi": 69,
      "time": 54.167,
      "duration": 0.417,
      "velocity": 0.26,
      "hand": "right"
    },
    {
      "midi": 52,
      "time": 54.375,
      "duration": 0.208,
      "velocity": 0.26,
      "hand": "left"
    },
    {
      "midi": 57,
      "time": 54.583,
      "duration": 0.208,
      "velocity": 0.26,
      "hand": "left"
    },
    {
      "midi": 58,
      "time": 54.792,
      "duration": 0.208,
      "velocity": 0.26,
      "hand": "left"
    },
    {
      "midi": 60,
      "time": 54.792,
      "duration": 0.208,
      "velocity": 0.26,
      "hand": "right"
    },
    {
      "midi": 64,
      "time": 54.792,
      "duration": 0.208,
      "velocity": 0.26,
      "hand": "right"
    },
    {
      "midi": 72,
      "time": 54.792,
      "duration": 0.208,
      "velocity": 0.26,
      "hand": "right"
    },
    {
      "midi": 57,
      "time": 55,
      "duration": 0.208,
      "velocity": 0.26,
      "hand": "left"
    },
    {
      "midi": 60,
      "time": 55,
      "duration": 0.208,
      "velocity": 0.26,
      "hand": "right"
    },
    {
      "midi": 65,
      "time": 55,
      "duration": 0.208,
      "velocity": 0.26,
      "hand": "right"
    },
    {
      "midi": 72,
      "time": 55,
      "duration": 0.208,
      "velocity": 0.26,
      "hand": "right"
    },
    {
      "midi": 55,
      "time": 55.208,
      "duration": 0.208,
      "velocity": 0.26,
      "hand": "left"
    },
    {
      "midi": 58,
      "time": 55.208,
      "duration": 0.208,
      "velocity": 0.26,
      "hand": "left"
    },
    {
      "midi": 60,
      "time": 55.208,
      "duration": 0.208,
      "velocity": 0.26,
      "hand": "right"
    },
    {
      "midi": 64,
      "time": 55.208,
      "duration": 0.208,
      "velocity": 0.26,
      "hand": "right"
    },
    {
      "midi": 67,
      "time": 55.208,
      "duration": 0.208,
      "velocity": 0.26,
      "hand": "right"
    },
    {
      "midi": 72,
      "time": 55.208,
      "duration": 0.208,
      "velocity": 0.26,
      "hand": "right"
    },
    {
      "midi": 53,
      "time": 55.417,
      "duration": 0.208,
      "velocity": 0.26,
      "hand": "left"
    },
    {
      "midi": 65,
      "time": 55.417,
      "duration": 0.104,
      "velocity": 0.26,
      "hand": "right"
    },
    {
      "midi": 69,
      "time": 55.417,
      "duration": 0.104,
      "velocity": 0.26,
      "hand": "right"
    },
    {
      "midi": 57,
      "time": 55.625,
      "duration": 0.208,
      "velocity": 0.26,
      "hand": "left"
    },
    {
      "midi": 72,
      "time": 55.625,
      "duration": 0.625,
      "velocity": 0.26,
      "hand": "right"
    },
    {
      "midi": 60,
      "time": 55.833,
      "duration": 0.208,
      "velocity": 0.26,
      "hand": "right"
    },
    {
      "midi": 57,
      "time": 56.042,
      "duration": 0.208,
      "velocity": 0.26,
      "hand": "left"
    },
    {
      "midi": 60,
      "time": 56.25,
      "duration": 0.208,
      "velocity": 0.26,
      "hand": "right"
    },
    {
      "midi": 77,
      "time": 56.25,
      "duration": 0.208,
      "velocity": 0.26,
      "hand": "right"
    },
    {
      "midi": 57,
      "time": 56.458,
      "duration": 0.208,
      "velocity": 0.26,
      "hand": "left"
    },
    {
      "midi": 76,
      "time": 56.458,
      "duration": 0.104,
      "velocity": 0.26,
      "hand": "right"
    },
    {
      "midi": 53,
      "time": 56.667,
      "duration": 0.208,
      "velocity": 0.26,
      "hand": "left"
    },
    {
      "midi": 76,
      "time": 56.667,
      "duration": 0.417,
      "velocity": 0.26,
      "hand": "right"
    },
    {
      "midi": 58,
      "time": 56.875,
      "duration": 0.208,
      "velocity": 0.26,
      "hand": "left"
    },
    {
      "midi": 62,
      "time": 57.083,
      "duration": 0.208,
      "velocity": 0.26,
      "hand": "right"
    },
    {
      "midi": 74,
      "time": 57.083,
      "duration": 0.417,
      "velocity": 0.26,
      "hand": "right"
    },
    {
      "midi": 58,
      "time": 57.292,
      "duration": 0.208,
      "velocity": 0.26,
      "hand": "left"
    },
    {
      "midi": 62,
      "time": 57.5,
      "duration": 0.208,
      "velocity": 0.26,
      "hand": "right"
    },
    {
      "midi": 82,
      "time": 57.5,
      "duration": 0.208,
      "velocity": 0.26,
      "hand": "right"
    },
    {
      "midi": 58,
      "time": 57.708,
      "duration": 0.208,
      "velocity": 0.26,
      "hand": "left"
    },
    {
      "midi": 81,
      "time": 57.708,
      "duration": 0.104,
      "velocity": 0.26,
      "hand": "right"
    },
    {
      "midi": 53,
      "time": 57.917,
      "duration": 0.208,
      "velocity": 0.26,
      "hand": "left"
    },
    {
      "midi": 81,
      "time": 57.917,
      "duration": 0.208,
      "velocity": 0.26,
      "hand": "right"
    },
    {
      "midi": 64,
      "time": 58.125,
      "duration": 0.208,
      "velocity": 0.26,
      "hand": "right"
    },
    {
      "midi": 79,
      "time": 58.125,
      "duration": 0.208,
      "velocity": 0.26,
      "hand": "right"
    },
    {
      "midi": 53,
      "time": 58.333,
      "duration": 0.208,
      "velocity": 0.26,
      "hand": "left"
    },
    {
      "midi": 55,
      "time": 58.333,
      "duration": 0.208,
      "velocity": 0.26,
      "hand": "left"
    },
    {
      "midi": 58,
      "time": 58.333,
      "duration": 0.208,
      "velocity": 0.26,
      "hand": "left"
    },
    {
      "midi": 77,
      "time": 58.333,
      "duration": 0.208,
      "velocity": 0.26,
      "hand": "right"
    },
    {
      "midi": 64,
      "time": 58.542,
      "duration": 0.208,
      "velocity": 0.26,
      "hand": "right"
    },
    {
      "midi": 76,
      "time": 58.542,
      "duration": 0.208,
      "velocity": 0.26,
      "hand": "right"
    },
    {
      "midi": 53,
      "time": 58.75,
      "duration": 0.208,
      "velocity": 0.26,
      "hand": "left"
    },
    {
      "midi": 55,
      "time": 58.75,
      "duration": 0.208,
      "velocity": 0.26,
      "hand": "left"
    },
    {
      "midi": 58,
      "time": 58.75,
      "duration": 0.208,
      "velocity": 0.26,
      "hand": "left"
    },
    {
      "midi": 74,
      "time": 58.75,
      "duration": 0.208,
      "velocity": 0.26,
      "hand": "right"
    },
    {
      "midi": 64,
      "time": 58.958,
      "duration": 0.208,
      "velocity": 0.26,
      "hand": "right"
    },
    {
      "midi": 72,
      "time": 58.958,
      "duration": 0.208,
      "velocity": 0.26,
      "hand": "right"
    },
    {
      "midi": 53,
      "time": 59.167,
      "duration": 0.208,
      "velocity": 0.26,
      "hand": "left"
    },
    {
      "midi": 70,
      "time": 59.167,
      "duration": 0.417,
      "velocity": 0.26,
      "hand": "right"
    },
    {
      "midi": 57,
      "time": 59.375,
      "duration": 0.208,
      "velocity": 0.26,
      "hand": "left"
    },
    {
      "midi": 60,
      "time": 59.583,
      "duration": 0.208,
      "velocity": 0.26,
      "hand": "right"
    },
    {
      "midi": 69,
      "time": 59.583,
      "duration": 0.417,
      "velocity": 0.26,
      "hand": "right"
    },
    {
      "midi": 57,
      "time": 59.792,
      "duration": 0.208,
      "velocity": 0.26,
      "hand": "left"
    },
    {
      "midi": 60,
      "time": 60,
      "duration": 0.208,
      "velocity": 0.26,
      "hand": "right"
    },
    {
      "midi": 67,
      "time": 60,
      "duration": 0.104,
      "velocity": 0.26,
      "hand": "right"
    },
    {
      "midi": 69,
      "time": 60,
      "duration": 0.104,
      "velocity": 0.26,
      "hand": "right"
    },
    {
      "midi": 70,
      "time": 60,
      "duration": 0.104,
      "velocity": 0.26,
      "hand": "right"
    },
    {
      "midi": 57,
      "time": 60.208,
      "duration": 0.208,
      "velocity": 0.26,
      "hand": "left"
    },
    {
      "midi": 69,
      "time": 60.208,
      "duration": 0.104,
      "velocity": 0.26,
      "hand": "right"
    },
    {
      "midi": 70,
      "time": 60.208,
      "duration": 0.104,
      "velocity": 0.26,
      "hand": "right"
    },
    {
      "midi": 53,
      "time": 60.417,
      "duration": 0.208,
      "velocity": 0.26,
      "hand": "left"
    },
    {
      "midi": 72,
      "time": 60.417,
      "duration": 0.833,
      "velocity": 0.26,
      "hand": "right"
    },
    {
      "midi": 57,
      "time": 60.625,
      "duration": 0.208,
      "velocity": 0.26,
      "hand": "left"
    },
    {
      "midi": 60,
      "time": 60.833,
      "duration": 0.208,
      "velocity": 0.26,
      "hand": "right"
    },
    {
      "midi": 57,
      "time": 61.042,
      "duration": 0.208,
      "velocity": 0.26,
      "hand": "left"
    },
    {
      "midi": 60,
      "time": 61.25,
      "duration": 0.208,
      "velocity": 0.26,
      "hand": "right"
    },
    {
      "midi": 74,
      "time": 61.25,
      "duration": 0.208,
      "velocity": 0.26,
      "hand": "right"
    },
    {
      "midi": 57,
      "time": 61.458,
      "duration": 0.208,
      "velocity": 0.26,
      "hand": "left"
    },
    {
      "midi": 75,
      "time": 61.458,
      "duration": 0.208,
      "velocity": 0.26,
      "hand": "right"
    },
    {
      "midi": 52,
      "time": 61.667,
      "duration": 0.208,
      "velocity": 0.26,
      "hand": "left"
    },
    {
      "midi": 76,
      "time": 61.667,
      "duration": 0.625,
      "velocity": 0.26,
      "hand": "right"
    },
    {
      "midi": 57,
      "time": 61.875,
      "duration": 0.208,
      "velocity": 0.26,
      "hand": "left"
    },
    {
      "midi": 60,
      "time": 62.083,
      "duration": 0.208,
      "velocity": 0.26,
      "hand": "right"
    },
    {
      "midi": 57,
      "time": 62.292,
      "duration": 0.208,
      "velocity": 0.26,
      "hand": "left"
    },
    {
      "midi": 76,
      "time": 62.292,
      "duration": 0.208,
      "velocity": 0.26,
      "hand": "right"
    },
    {
      "midi": 50,
      "time": 62.5,
      "duration": 0.208,
      "velocity": 0.26,
      "hand": "left"
    },
    {
      "midi": 62,
      "time": 62.5,
      "duration": 0.208,
      "velocity": 0.26,
      "hand": "right"
    },
    {
      "midi": 77,
      "time": 62.5,
      "duration": 0.208,
      "velocity": 0.26,
      "hand": "right"
    },
    {
      "midi": 53,
      "time": 62.708,
      "duration": 0.208,
      "velocity": 0.26,
      "hand": "left"
    },
    {
      "midi": 69,
      "time": 62.708,
      "duration": 0.208,
      "velocity": 0.26,
      "hand": "right"
    },
    {
      "midi": 55,
      "time": 62.917,
      "duration": 0.208,
      "velocity": 0.26,
      "hand": "left"
    },
    {
      "midi": 72,
      "time": 62.917,
      "duration": 0.833,
      "velocity": 0.26,
      "hand": "right"
    },
    {
      "midi": 64,
      "time": 63.125,
      "duration": 0.208,
      "velocity": 0.26,
      "hand": "right"
    },
    {
      "midi": 55,
      "time": 63.333,
      "duration": 0.208,
      "velocity": 0.26,
      "hand": "left"
    },
    {
      "midi": 65,
      "time": 63.542,
      "duration": 0.208,
      "velocity": 0.26,
      "hand": "right"
    },
    {
      "midi": 55,
      "time": 63.75,
      "duration": 0.208,
      "velocity": 0.26,
      "hand": "left"
    },
    {
      "midi": 74,
      "time": 63.75,
      "duration": 0.208,
      "velocity": 0.26,
      "hand": "right"
    },
    {
      "midi": 65,
      "time": 63.958,
      "duration": 0.208,
      "velocity": 0.26,
      "hand": "right"
    },
    {
      "midi": 71,
      "time": 63.958,
      "duration": 0.104,
      "velocity": 0.26,
      "hand": "right"
    },
    {
      "midi": 60,
      "time": 64.167,
      "duration": 0.417,
      "velocity": 0.26,
      "hand": "right"
    },
    {
      "midi": 64,
      "time": 64.167,
      "duration": 0.417,
      "velocity": 0.26,
      "hand": "right"
    },
    {
      "midi": 72,
      "time": 64.167,
      "duration": 0.104,
      "velocity": 0.26,
      "hand": "right"
    },
    {
      "midi": 79,
      "time": 64.167,
      "duration": 0.104,
      "velocity": 0.26,
      "hand": "right"
    },
    {
      "midi": 67,
      "time": 64.375,
      "duration": 0.104,
      "velocity": 0.26,
      "hand": "right"
    },
    {
      "midi": 79,
      "time": 64.375,
      "duration": 0.104,
      "velocity": 0.26,
      "hand": "right"
    },
    {
      "midi": 69,
      "time": 64.583,
      "duration": 0.104,
      "velocity": 0.26,
      "hand": "right"
    },
    {
      "midi": 79,
      "time": 64.583,
      "duration": 0.104,
      "velocity": 0.26,
      "hand": "right"
    },
    {
      "midi": 65,
      "time": 64.792,
      "duration": 0.208,
      "velocity": 0.26,
      "hand": "right"
    },
    {
      "midi": 67,
      "time": 64.792,
      "duration": 0.208,
      "velocity": 0.26,
      "hand": "right"
    },
    {
      "midi": 71,
      "time": 64.792,
      "duration": 0.104,
      "velocity": 0.26,
      "hand": "right"
    },
    {
      "midi": 79,
      "time": 64.792,
      "duration": 0.104,
      "velocity": 0.26,
      "hand": "right"
    },
    {
      "midi": 64,
      "time": 65,
      "duration": 0.208,
      "velocity": 0.26,
      "hand": "right"
    },
    {
      "midi": 67,
      "time": 65,
      "duration": 0.208,
      "velocity": 0.26,
      "hand": "right"
    },
    {
      "midi": 72,
      "time": 65,
      "duration": 0.104,
      "velocity": 0.26,
      "hand": "right"
    },
    {
      "midi": 79,
      "time": 65,
      "duration": 0.104,
      "velocity": 0.26,
      "hand": "right"
    },
    {
      "midi": 62,
      "time": 65.208,
      "duration": 0.208,
      "velocity": 0.26,
      "hand": "right"
    },
    {
      "midi": 65,
      "time": 65.208,
      "duration": 0.208,
      "velocity": 0.26,
      "hand": "right"
    },
    {
      "midi": 67,
      "time": 65.208,
      "duration": 0.208,
      "velocity": 0.26,
      "hand": "right"
    },
    {
      "midi": 74,
      "time": 65.208,
      "duration": 0.104,
      "velocity": 0.26,
      "hand": "right"
    },
    {
      "midi": 79,
      "time": 65.208,
      "duration": 0.104,
      "velocity": 0.26,
      "hand": "right"
    },
    {
      "midi": 60,
      "time": 65.417,
      "duration": 0.417,
      "velocity": 0.26,
      "hand": "right"
    },
    {
      "midi": 64,
      "time": 65.417,
      "duration": 0.417,
      "velocity": 0.26,
      "hand": "right"
    },
    {
      "midi": 67,
      "time": 65.417,
      "duration": 0.417,
      "velocity": 0.26,
      "hand": "right"
    },
    {
      "midi": 76,
      "time": 65.417,
      "duration": 0.104,
      "velocity": 0.26,
      "hand": "right"
    },
    {
      "midi": 79,
      "time": 65.417,
      "duration": 0.104,
      "velocity": 0.26,
      "hand": "right"
    },
    {
      "midi": 83,
      "time": 65.625,
      "duration": 0.104,
      "velocity": 0.26,
      "hand": "right"
    },
    {
      "midi": 84,
      "time": 65.625,
      "duration": 0.104,
      "velocity": 0.26,
      "hand": "right"
    },
    {
      "midi": 53,
      "time": 65.833,
      "duration": 0.417,
      "velocity": 0.26,
      "hand": "left"
    },
    {
      "midi": 57,
      "time": 65.833,
      "duration": 0.417,
      "velocity": 0.26,
      "hand": "left"
    },
    {
      "midi": 79,
      "time": 65.833,
      "duration": 0.104,
      "velocity": 0.26,
      "hand": "right"
    },
    {
      "midi": 81,
      "time": 65.833,
      "duration": 0.104,
      "velocity": 0.26,
      "hand": "right"
    },
    {
      "midi": 76,
      "time": 66.042,
      "duration": 0.104,
      "velocity": 0.26,
      "hand": "right"
    },
    {
      "midi": 77,
      "time": 66.042,
      "duration": 0.104,
      "velocity": 0.26,
      "hand": "right"
    },
    {
      "midi": 55,
      "time": 66.25,
      "duration": 0.417,
      "velocity": 0.26,
      "hand": "left"
    },
    {
      "midi": 59,
      "time": 66.25,
      "duration": 0.417,
      "velocity": 0.26,
      "hand": "left"
    },
    {
      "midi": 74,
      "time": 66.25,
      "duration": 0.104,
      "velocity": 0.26,
      "hand": "right"
    },
    {
      "midi": 79,
      "time": 66.25,
      "duration": 0.104,
      "velocity": 0.26,
      "hand": "right"
    },
    {
      "midi": 74,
      "time": 66.458,
      "duration": 0.104,
      "velocity": 0.26,
      "hand": "right"
    },
    {
      "midi": 77,
      "time": 66.458,
      "duration": 0.104,
      "velocity": 0.26,
      "hand": "right"
    },
    {
      "midi": 60,
      "time": 66.667,
      "duration": 0.417,
      "velocity": 0.26,
      "hand": "right"
    },
    {
      "midi": 72,
      "time": 66.667,
      "duration": 0.104,
      "velocity": 0.26,
      "hand": "right"
    },
    {
      "midi": 79,
      "time": 66.667,
      "duration": 0.104,
      "velocity": 0.26,
      "hand": "right"
    },
    {
      "midi": 67,
      "time": 66.875,
      "duration": 0.104,
      "velocity": 0.26,
      "hand": "right"
    },
    {
      "midi": 79,
      "time": 66.875,
      "duration": 0.104,
      "velocity": 0.26,
      "hand": "right"
    },
    {
      "midi": 69,
      "time": 67.083,
      "duration": 0.104,
      "velocity": 0.26,
      "hand": "right"
    },
    {
      "midi": 79,
      "time": 67.083,
      "duration": 0.104,
      "velocity": 0.26,
      "hand": "right"
    },
    {
      "midi": 65,
      "time": 67.292,
      "duration": 0.208,
      "velocity": 0.26,
      "hand": "right"
    },
    {
      "midi": 67,
      "time": 67.292,
      "duration": 0.208,
      "velocity": 0.26,
      "hand": "right"
    },
    {
      "midi": 71,
      "time": 67.292,
      "duration": 0.104,
      "velocity": 0.26,
      "hand": "right"
    },
    {
      "midi": 79,
      "time": 67.292,
      "duration": 0.104,
      "velocity": 0.26,
      "hand": "right"
    },
    {
      "midi": 64,
      "time": 67.5,
      "duration": 0.208,
      "velocity": 0.26,
      "hand": "right"
    },
    {
      "midi": 67,
      "time": 67.5,
      "duration": 0.208,
      "velocity": 0.26,
      "hand": "right"
    },
    {
      "midi": 72,
      "time": 67.5,
      "duration": 0.104,
      "velocity": 0.26,
      "hand": "right"
    },
    {
      "midi": 79,
      "time": 67.5,
      "duration": 0.104,
      "velocity": 0.26,
      "hand": "right"
    },
    {
      "midi": 62,
      "time": 67.708,
      "duration": 0.208,
      "velocity": 0.26,
      "hand": "right"
    },
    {
      "midi": 65,
      "time": 67.708,
      "duration": 0.208,
      "velocity": 0.26,
      "hand": "right"
    },
    {
      "midi": 67,
      "time": 67.708,
      "duration": 0.208,
      "velocity": 0.26,
      "hand": "right"
    },
    {
      "midi": 74,
      "time": 67.708,
      "duration": 0.104,
      "velocity": 0.26,
      "hand": "right"
    },
    {
      "midi": 79,
      "time": 67.708,
      "duration": 0.104,
      "velocity": 0.26,
      "hand": "right"
    },
    {
      "midi": 60,
      "time": 67.917,
      "duration": 0.417,
      "velocity": 0.26,
      "hand": "right"
    },
    {
      "midi": 64,
      "time": 67.917,
      "duration": 0.417,
      "velocity": 0.26,
      "hand": "right"
    },
    {
      "midi": 76,
      "time": 67.917,
      "duration": 0.104,
      "velocity": 0.26,
      "hand": "right"
    },
    {
      "midi": 79,
      "time": 67.917,
      "duration": 0.104,
      "velocity": 0.26,
      "hand": "right"
    },
    {
      "midi": 83,
      "time": 68.125,
      "duration": 0.104,
      "velocity": 0.26,
      "hand": "right"
    },
    {
      "midi": 84,
      "time": 68.125,
      "duration": 0.104,
      "velocity": 0.26,
      "hand": "right"
    },
    {
      "midi": 53,
      "time": 68.333,
      "duration": 0.417,
      "velocity": 0.26,
      "hand": "left"
    },
    {
      "midi": 57,
      "time": 68.333,
      "duration": 0.417,
      "velocity": 0.26,
      "hand": "left"
    },
    {
      "midi": 79,
      "time": 68.333,
      "duration": 0.104,
      "velocity": 0.26,
      "hand": "right"
    },
    {
      "midi": 81,
      "time": 68.333,
      "duration": 0.104,
      "velocity": 0.26,
      "hand": "right"
    },
    {
      "midi": 76,
      "time": 68.542,
      "duration": 0.104,
      "velocity": 0.26,
      "hand": "right"
    },
    {
      "midi": 77,
      "time": 68.542,
      "duration": 0.104,
      "velocity": 0.26,
      "hand": "right"
    },
    {
      "midi": 55,
      "time": 68.75,
      "duration": 0.417,
      "velocity": 0.26,
      "hand": "left"
    },
    {
      "midi": 59,
      "time": 68.75,
      "duration": 0.417,
      "velocity": 0.26,
      "hand": "left"
    },
    {
      "midi": 74,
      "time": 68.75,
      "duration": 0.104,
      "velocity": 0.26,
      "hand": "right"
    },
    {
      "midi": 79,
      "time": 68.75,
      "duration": 0.104,
      "velocity": 0.26,
      "hand": "right"
    },
    {
      "midi": 74,
      "time": 68.958,
      "duration": 0.104,
      "velocity": 0.26,
      "hand": "right"
    },
    {
      "midi": 77,
      "time": 68.958,
      "duration": 0.104,
      "velocity": 0.26,
      "hand": "right"
    },
    {
      "midi": 56,
      "time": 69.167,
      "duration": 0.417,
      "velocity": 0.26,
      "hand": "left"
    },
    {
      "midi": 59,
      "time": 69.167,
      "duration": 0.417,
      "velocity": 0.26,
      "hand": "left"
    },
    {
      "midi": 76,
      "time": 69.167,
      "duration": 0.104,
      "velocity": 0.26,
      "hand": "right"
    },
    {
      "midi": 77,
      "time": 69.167,
      "duration": 0.104,
      "velocity": 0.26,
      "hand": "right"
    },
    {
      "midi": 75,
      "time": 69.375,
      "duration": 0.104,
      "velocity": 0.26,
      "hand": "right"
    },
    {
      "midi": 76,
      "time": 69.375,
      "duration": 0.104,
      "velocity": 0.26,
      "hand": "right"
    },
    {
      "midi": 71,
      "time": 69.583,
      "duration": 0.104,
      "velocity": 0.26,
      "hand": "right"
    },
    {
      "midi": 76,
      "time": 69.583,
      "duration": 0.104,
      "velocity": 0.26,
      "hand": "right"
    },
    {
      "midi": 75,
      "time": 69.792,
      "duration": 0.104,
      "velocity": 0.26,
      "hand": "right"
    },
    {
      "midi": 76,
      "time": 69.792,
      "duration": 0.104,
      "velocity": 0.26,
      "hand": "right"
    },
    {
      "midi": 71,
      "time": 70,
      "duration": 0.104,
      "velocity": 0.26,
      "hand": "right"
    },
    {
      "midi": 76,
      "time": 70,
      "duration": 0.104,
      "velocity": 0.26,
      "hand": "right"
    },
    {
      "midi": 75,
      "time": 70.208,
      "duration": 0.104,
      "velocity": 0.26,
      "hand": "right"
    },
    {
      "midi": 76,
      "time": 70.208,
      "duration": 0.104,
      "velocity": 0.26,
      "hand": "right"
    },
    {
      "midi": 76,
      "time": 70.417,
      "duration": 0.625,
      "velocity": 0.26,
      "hand": "right"
    },
    {
      "midi": 71,
      "time": 71.042,
      "duration": 0.208,
      "velocity": 0.26,
      "hand": "right"
    },
    {
      "midi": 76,
      "time": 71.25,
      "duration": 0.208,
      "velocity": 0.26,
      "hand": "right"
    },
    {
      "midi": 75,
      "time": 71.458,
      "duration": 0.208,
      "velocity": 0.26,
      "hand": "right"
    },
    {
      "midi": 76,
      "time": 71.667,
      "duration": 0.625,
      "velocity": 0.26,
      "hand": "right"
    },
    {
      "midi": 71,
      "time": 72.292,
      "duration": 0.208,
      "velocity": 0.26,
      "hand": "right"
    },
    {
      "midi": 76,
      "time": 72.5,
      "duration": 0.208,
      "velocity": 0.26,
      "hand": "right"
    },
    {
      "midi": 75,
      "time": 72.708,
      "duration": 0.208,
      "velocity": 0.26,
      "hand": "right"
    },
    {
      "midi": 76,
      "time": 72.917,
      "duration": 0.208,
      "velocity": 0.26,
      "hand": "right"
    },
    {
      "midi": 75,
      "time": 73.125,
      "duration": 0.208,
      "velocity": 0.26,
      "hand": "right"
    },
    {
      "midi": 76,
      "time": 73.333,
      "duration": 0.208,
      "velocity": 0.26,
      "hand": "right"
    },
    {
      "midi": 75,
      "time": 73.542,
      "duration": 0.208,
      "velocity": 0.26,
      "hand": "right"
    },
    {
      "midi": 76,
      "time": 73.75,
      "duration": 0.208,
      "velocity": 0.26,
      "hand": "right"
    },
    {
      "midi": 75,
      "time": 73.958,
      "duration": 0.208,
      "velocity": 0.26,
      "hand": "right"
    },
    {
      "midi": 76,
      "time": 74.167,
      "duration": 0.208,
      "velocity": 0.26,
      "hand": "right"
    },
    {
      "midi": 75,
      "time": 74.375,
      "duration": 0.208,
      "velocity": 0.26,
      "hand": "right"
    },
    {
      "midi": 76,
      "time": 74.583,
      "duration": 0.208,
      "velocity": 0.26,
      "hand": "right"
    },
    {
      "midi": 71,
      "time": 74.792,
      "duration": 0.208,
      "velocity": 0.26,
      "hand": "right"
    },
    {
      "midi": 74,
      "time": 75,
      "duration": 0.208,
      "velocity": 0.26,
      "hand": "right"
    },
    {
      "midi": 72,
      "time": 75.208,
      "duration": 0.208,
      "velocity": 0.26,
      "hand": "right"
    },
    {
      "midi": 45,
      "time": 75.417,
      "duration": 0.208,
      "velocity": 0.26,
      "hand": "left"
    },
    {
      "midi": 69,
      "time": 75.417,
      "duration": 0.417,
      "velocity": 0.26,
      "hand": "right"
    },
    {
      "midi": 52,
      "time": 75.625,
      "duration": 0.208,
      "velocity": 0.26,
      "hand": "left"
    },
    {
      "midi": 57,
      "time": 75.833,
      "duration": 0.208,
      "velocity": 0.26,
      "hand": "left"
    },
    {
      "midi": 60,
      "time": 76.042,
      "duration": 0.208,
      "velocity": 0.26,
      "hand": "right"
    },
    {
      "midi": 64,
      "time": 76.25,
      "duration": 0.208,
      "velocity": 0.26,
      "hand": "right"
    },
    {
      "midi": 69,
      "time": 76.458,
      "duration": 0.208,
      "velocity": 0.26,
      "hand": "right"
    },
    {
      "midi": 40,
      "time": 76.667,
      "duration": 0.208,
      "velocity": 0.26,
      "hand": "left"
    },
    {
      "midi": 71,
      "time": 76.667,
      "duration": 0.417,
      "velocity": 0.26,
      "hand": "right"
    },
    {
      "midi": 52,
      "time": 76.875,
      "duration": 0.208,
      "velocity": 0.26,
      "hand": "left"
    },
    {
      "midi": 56,
      "time": 77.083,
      "duration": 0.208,
      "velocity": 0.26,
      "hand": "left"
    },
    {
      "midi": 64,
      "time": 77.292,
      "duration": 0.208,
      "velocity": 0.26,
      "hand": "right"
    },
    {
      "midi": 68,
      "time": 77.5,
      "duration": 0.208,
      "velocity": 0.26,
      "hand": "right"
    },
    {
      "midi": 71,
      "time": 77.708,
      "duration": 0.208,
      "velocity": 0.26,
      "hand": "right"
    },
    {
      "midi": 45,
      "time": 77.917,
      "duration": 0.208,
      "velocity": 0.26,
      "hand": "left"
    },
    {
      "midi": 72,
      "time": 77.917,
      "duration": 0.417,
      "velocity": 0.26,
      "hand": "right"
    },
    {
      "midi": 52,
      "time": 78.125,
      "duration": 0.208,
      "velocity": 0.26,
      "hand": "left"
    },
    {
      "midi": 57,
      "time": 78.333,
      "duration": 0.208,
      "velocity": 0.26,
      "hand": "left"
    },
    {
      "midi": 64,
      "time": 78.542,
      "duration": 0.208,
      "velocity": 0.26,
      "hand": "right"
    },
    {
      "midi": 76,
      "time": 78.75,
      "duration": 0.208,
      "velocity": 0.26,
      "hand": "right"
    },
    {
      "midi": 75,
      "time": 78.958,
      "duration": 0.208,
      "velocity": 0.26,
      "hand": "right"
    },
    {
      "midi": 76,
      "time": 79.167,
      "duration": 0.208,
      "velocity": 0.26,
      "hand": "right"
    },
    {
      "midi": 75,
      "time": 79.375,
      "duration": 0.208,
      "velocity": 0.26,
      "hand": "right"
    },
    {
      "midi": 76,
      "time": 79.583,
      "duration": 0.208,
      "velocity": 0.26,
      "hand": "right"
    },
    {
      "midi": 71,
      "time": 79.792,
      "duration": 0.208,
      "velocity": 0.26,
      "hand": "right"
    },
    {
      "midi": 74,
      "time": 80,
      "duration": 0.208,
      "velocity": 0.26,
      "hand": "right"
    },
    {
      "midi": 72,
      "time": 80.208,
      "duration": 0.208,
      "velocity": 0.26,
      "hand": "right"
    },
    {
      "midi": 45,
      "time": 80.417,
      "duration": 0.208,
      "velocity": 0.26,
      "hand": "left"
    },
    {
      "midi": 69,
      "time": 80.417,
      "duration": 0.417,
      "velocity": 0.26,
      "hand": "right"
    },
    {
      "midi": 52,
      "time": 80.625,
      "duration": 0.208,
      "velocity": 0.26,
      "hand": "left"
    },
    {
      "midi": 57,
      "time": 80.833,
      "duration": 0.208,
      "velocity": 0.26,
      "hand": "left"
    },
    {
      "midi": 60,
      "time": 81.042,
      "duration": 0.208,
      "velocity": 0.26,
      "hand": "right"
    },
    {
      "midi": 64,
      "time": 81.25,
      "duration": 0.208,
      "velocity": 0.26,
      "hand": "right"
    },
    {
      "midi": 69,
      "time": 81.458,
      "duration": 0.208,
      "velocity": 0.26,
      "hand": "right"
    },
    {
      "midi": 40,
      "time": 81.667,
      "duration": 0.208,
      "velocity": 0.26,
      "hand": "left"
    },
    {
      "midi": 71,
      "time": 81.667,
      "duration": 0.417,
      "velocity": 0.26,
      "hand": "right"
    },
    {
      "midi": 52,
      "time": 81.875,
      "duration": 0.208,
      "velocity": 0.26,
      "hand": "left"
    },
    {
      "midi": 56,
      "time": 82.083,
      "duration": 0.208,
      "velocity": 0.26,
      "hand": "left"
    },
    {
      "midi": 62,
      "time": 82.292,
      "duration": 0.208,
      "velocity": 0.26,
      "hand": "right"
    },
    {
      "midi": 72,
      "time": 82.5,
      "duration": 0.208,
      "velocity": 0.26,
      "hand": "right"
    },
    {
      "midi": 71,
      "time": 82.708,
      "duration": 0.208,
      "velocity": 0.26,
      "hand": "right"
    },
    {
      "midi": 45,
      "time": 82.917,
      "duration": 0.208,
      "velocity": 0.26,
      "hand": "left"
    },
    {
      "midi": 69,
      "time": 82.917,
      "duration": 0.417,
      "velocity": 0.26,
      "hand": "right"
    },
    {
      "midi": 52,
      "time": 83.125,
      "duration": 0.208,
      "velocity": 0.26,
      "hand": "left"
    },
    {
      "midi": 57,
      "time": 83.333,
      "duration": 0.208,
      "velocity": 0.26,
      "hand": "left"
    },
    {
      "midi": 71,
      "time": 83.542,
      "duration": 0.208,
      "velocity": 0.26,
      "hand": "right"
    },
    {
      "midi": 72,
      "time": 83.75,
      "duration": 0.208,
      "velocity": 0.26,
      "hand": "right"
    },
    {
      "midi": 74,
      "time": 83.958,
      "duration": 0.208,
      "velocity": 0.26,
      "hand": "right"
    },
    {
      "midi": 48,
      "time": 84.167,
      "duration": 0.208,
      "velocity": 0.26,
      "hand": "left"
    },
    {
      "midi": 76,
      "time": 84.167,
      "duration": 0.625,
      "velocity": 0.26,
      "hand": "right"
    },
    {
      "midi": 55,
      "time": 84.375,
      "duration": 0.208,
      "velocity": 0.26,
      "hand": "left"
    },
    {
      "midi": 60,
      "time": 84.583,
      "duration": 0.208,
      "velocity": 0.26,
      "hand": "right"
    },
    {
      "midi": 67,
      "time": 84.792,
      "duration": 0.208,
      "velocity": 0.26,
      "hand": "right"
    },
    {
      "midi": 77,
      "time": 85,
      "duration": 0.208,
      "velocity": 0.26,
      "hand": "right"
    },
    {
      "midi": 76,
      "time": 85.208,
      "duration": 0.208,
      "velocity": 0.26,
      "hand": "right"
    },
    {
      "midi": 43,
      "time": 85.417,
      "duration": 0.208,
      "velocity": 0.26,
      "hand": "left"
    },
    {
      "midi": 74,
      "time": 85.417,
      "duration": 0.625,
      "velocity": 0.26,
      "hand": "right"
    },
    {
      "midi": 55,
      "time": 85.625,
      "duration": 0.208,
      "velocity": 0.26,
      "hand": "left"
    },
    {
      "midi": 59,
      "time": 85.833,
      "duration": 0.208,
      "velocity": 0.26,
      "hand": "left"
    },
    {
      "midi": 65,
      "time": 86.042,
      "duration": 0.208,
      "velocity": 0.26,
      "hand": "right"
    },
    {
      "midi": 76,
      "time": 86.25,
      "duration": 0.208,
      "velocity": 0.26,
      "hand": "right"
    },
    {
      "midi": 74,
      "time": 86.458,
      "duration": 0.208,
      "velocity": 0.26,
      "hand": "right"
    },
    {
      "midi": 45,
      "time": 86.667,
      "duration": 0.208,
      "velocity": 0.26,
      "hand": "left"
    },
    {
      "midi": 72,
      "time": 86.667,
      "duration": 0.625,
      "velocity": 0.26,
      "hand": "right"
    },
    {
      "midi": 52,
      "time": 86.875,
      "duration": 0.208,
      "velocity": 0.26,
      "hand": "left"
    },
    {
      "midi": 57,
      "time": 87.083,
      "duration": 0.208,
      "velocity": 0.26,
      "hand": "left"
    },
    {
      "midi": 64,
      "time": 87.292,
      "duration": 0.208,
      "velocity": 0.26,
      "hand": "right"
    },
    {
      "midi": 74,
      "time": 87.5,
      "duration": 0.208,
      "velocity": 0.26,
      "hand": "right"
    },
    {
      "midi": 72,
      "time": 87.708,
      "duration": 0.208,
      "velocity": 0.26,
      "hand": "right"
    },
    {
      "midi": 40,
      "time": 87.917,
      "duration": 0.208,
      "velocity": 0.26,
      "hand": "left"
    },
    {
      "midi": 71,
      "time": 87.917,
      "duration": 0.417,
      "velocity": 0.26,
      "hand": "right"
    },
    {
      "midi": 52,
      "time": 88.125,
      "duration": 0.208,
      "velocity": 0.26,
      "hand": "left"
    },
    {
      "midi": 64,
      "time": 88.333,
      "duration": 0.208,
      "velocity": 0.26,
      "hand": "right"
    },
    {
      "midi": 64,
      "time": 88.542,
      "duration": 0.208,
      "velocity": 0.26,
      "hand": "right"
    },
    {
      "midi": 76,
      "time": 88.75,
      "duration": 0.208,
      "velocity": 0.26,
      "hand": "right"
    },
    {
      "midi": 64,
      "time": 88.958,
      "duration": 0.208,
      "velocity": 0.26,
      "hand": "right"
    },
    {
      "midi": 76,
      "time": 89.167,
      "duration": 0.208,
      "velocity": 0.26,
      "hand": "right"
    },
    {
      "midi": 76,
      "time": 89.375,
      "duration": 0.208,
      "velocity": 0.26,
      "hand": "right"
    },
    {
      "midi": 88,
      "time": 89.583,
      "duration": 0.208,
      "velocity": 0.26,
      "hand": "right"
    },
    {
      "midi": 75,
      "time": 89.792,
      "duration": 0.208,
      "velocity": 0.26,
      "hand": "right"
    },
    {
      "midi": 76,
      "time": 90,
      "duration": 0.208,
      "velocity": 0.26,
      "hand": "right"
    },
    {
      "midi": 75,
      "time": 90.208,
      "duration": 0.208,
      "velocity": 0.26,
      "hand": "right"
    },
    {
      "midi": 76,
      "time": 90.417,
      "duration": 0.417,
      "velocity": 0.26,
      "hand": "right"
    },
    {
      "midi": 75,
      "time": 90.625,
      "duration": 0.208,
      "velocity": 0.26,
      "hand": "right"
    },
    {
      "midi": 76,
      "time": 90.833,
      "duration": 0.208,
      "velocity": 0.26,
      "hand": "right"
    },
    {
      "midi": 75,
      "time": 91.042,
      "duration": 0.208,
      "velocity": 0.26,
      "hand": "right"
    },
    {
      "midi": 76,
      "time": 91.25,
      "duration": 0.208,
      "velocity": 0.26,
      "hand": "right"
    },
    {
      "midi": 75,
      "time": 91.458,
      "duration": 0.208,
      "velocity": 0.26,
      "hand": "right"
    },
    {
      "midi": 76,
      "time": 91.667,
      "duration": 0.208,
      "velocity": 0.26,
      "hand": "right"
    },
    {
      "midi": 75,
      "time": 91.875,
      "duration": 0.208,
      "velocity": 0.26,
      "hand": "right"
    },
    {
      "midi": 76,
      "time": 92.083,
      "duration": 0.208,
      "velocity": 0.26,
      "hand": "right"
    },
    {
      "midi": 71,
      "time": 92.292,
      "duration": 0.208,
      "velocity": 0.26,
      "hand": "right"
    },
    {
      "midi": 74,
      "time": 92.5,
      "duration": 0.208,
      "velocity": 0.26,
      "hand": "right"
    },
    {
      "midi": 72,
      "time": 92.708,
      "duration": 0.208,
      "velocity": 0.26,
      "hand": "right"
    },
    {
      "midi": 45,
      "time": 92.917,
      "duration": 0.208,
      "velocity": 0.26,
      "hand": "left"
    },
    {
      "midi": 69,
      "time": 92.917,
      "duration": 0.417,
      "velocity": 0.26,
      "hand": "right"
    },
    {
      "midi": 52,
      "time": 93.125,
      "duration": 0.208,
      "velocity": 0.26,
      "hand": "left"
    },
    {
      "midi": 57,
      "time": 93.333,
      "duration": 0.208,
      "velocity": 0.26,
      "hand": "left"
    },
    {
      "midi": 60,
      "time": 93.542,
      "duration": 0.208,
      "velocity": 0.26,
      "hand": "right"
    },
    {
      "midi": 64,
      "time": 93.75,
      "duration": 0.208,
      "velocity": 0.26,
      "hand": "right"
    },
    {
      "midi": 69,
      "time": 93.958,
      "duration": 0.208,
      "velocity": 0.26,
      "hand": "right"
    },
    {
      "midi": 40,
      "time": 94.167,
      "duration": 0.208,
      "velocity": 0.26,
      "hand": "left"
    },
    {
      "midi": 71,
      "time": 94.167,
      "duration": 0.417,
      "velocity": 0.26,
      "hand": "right"
    },
    {
      "midi": 52,
      "time": 94.375,
      "duration": 0.208,
      "velocity": 0.26,
      "hand": "left"
    },
    {
      "midi": 56,
      "time": 94.583,
      "duration": 0.208,
      "velocity": 0.26,
      "hand": "left"
    },
    {
      "midi": 64,
      "time": 94.792,
      "duration": 0.208,
      "velocity": 0.26,
      "hand": "right"
    },
    {
      "midi": 68,
      "time": 95,
      "duration": 0.208,
      "velocity": 0.26,
      "hand": "right"
    },
    {
      "midi": 71,
      "time": 95.208,
      "duration": 0.208,
      "velocity": 0.26,
      "hand": "right"
    },
    {
      "midi": 45,
      "time": 95.417,
      "duration": 0.208,
      "velocity": 0.26,
      "hand": "left"
    },
    {
      "midi": 72,
      "time": 95.417,
      "duration": 0.417,
      "velocity": 0.26,
      "hand": "right"
    },
    {
      "midi": 52,
      "time": 95.625,
      "duration": 0.208,
      "velocity": 0.26,
      "hand": "left"
    },
    {
      "midi": 57,
      "time": 95.833,
      "duration": 0.208,
      "velocity": 0.26,
      "hand": "left"
    },
    {
      "midi": 64,
      "time": 96.042,
      "duration": 0.208,
      "velocity": 0.26,
      "hand": "right"
    },
    {
      "midi": 76,
      "time": 96.25,
      "duration": 0.208,
      "velocity": 0.26,
      "hand": "right"
    },
    {
      "midi": 75,
      "time": 96.458,
      "duration": 0.208,
      "velocity": 0.26,
      "hand": "right"
    },
    {
      "midi": 76,
      "time": 96.667,
      "duration": 0.208,
      "velocity": 0.26,
      "hand": "right"
    },
    {
      "midi": 75,
      "time": 96.875,
      "duration": 0.208,
      "velocity": 0.26,
      "hand": "right"
    },
    {
      "midi": 76,
      "time": 97.083,
      "duration": 0.208,
      "velocity": 0.26,
      "hand": "right"
    },
    {
      "midi": 71,
      "time": 97.292,
      "duration": 0.208,
      "velocity": 0.26,
      "hand": "right"
    },
    {
      "midi": 74,
      "time": 97.5,
      "duration": 0.208,
      "velocity": 0.26,
      "hand": "right"
    },
    {
      "midi": 72,
      "time": 97.708,
      "duration": 0.208,
      "velocity": 0.26,
      "hand": "right"
    },
    {
      "midi": 45,
      "time": 97.917,
      "duration": 0.208,
      "velocity": 0.26,
      "hand": "left"
    },
    {
      "midi": 69,
      "time": 97.917,
      "duration": 0.417,
      "velocity": 0.26,
      "hand": "right"
    },
    {
      "midi": 52,
      "time": 98.125,
      "duration": 0.208,
      "velocity": 0.26,
      "hand": "left"
    },
    {
      "midi": 57,
      "time": 98.333,
      "duration": 0.208,
      "velocity": 0.26,
      "hand": "left"
    },
    {
      "midi": 60,
      "time": 98.542,
      "duration": 0.208,
      "velocity": 0.26,
      "hand": "right"
    },
    {
      "midi": 64,
      "time": 98.75,
      "duration": 0.208,
      "velocity": 0.26,
      "hand": "right"
    },
    {
      "midi": 69,
      "time": 98.958,
      "duration": 0.208,
      "velocity": 0.26,
      "hand": "right"
    },
    {
      "midi": 40,
      "time": 99.167,
      "duration": 0.208,
      "velocity": 0.26,
      "hand": "left"
    },
    {
      "midi": 71,
      "time": 99.167,
      "duration": 0.417,
      "velocity": 0.26,
      "hand": "right"
    },
    {
      "midi": 52,
      "time": 99.375,
      "duration": 0.208,
      "velocity": 0.26,
      "hand": "left"
    },
    {
      "midi": 56,
      "time": 99.583,
      "duration": 0.208,
      "velocity": 0.26,
      "hand": "left"
    },
    {
      "midi": 62,
      "time": 99.792,
      "duration": 0.208,
      "velocity": 0.26,
      "hand": "right"
    },
    {
      "midi": 72,
      "time": 100,
      "duration": 0.208,
      "velocity": 0.26,
      "hand": "right"
    },
    {
      "midi": 71,
      "time": 100.208,
      "duration": 0.208,
      "velocity": 0.26,
      "hand": "right"
    },
    {
      "midi": 45,
      "time": 100.417,
      "duration": 0.208,
      "velocity": 0.26,
      "hand": "left"
    },
    {
      "midi": 69,
      "time": 100.417,
      "duration": 0.417,
      "velocity": 0.26,
      "hand": "right"
    },
    {
      "midi": 45,
      "time": 100.625,
      "duration": 0.208,
      "velocity": 0.26,
      "hand": "left"
    },
    {
      "midi": 45,
      "time": 100.833,
      "duration": 0.208,
      "velocity": 0.26,
      "hand": "left"
    },
    {
      "midi": 45,
      "time": 101.042,
      "duration": 0.208,
      "velocity": 0.26,
      "hand": "left"
    },
    {
      "midi": 45,
      "time": 101.25,
      "duration": 0.208,
      "velocity": 0.26,
      "hand": "left"
    },
    {
      "midi": 45,
      "time": 101.458,
      "duration": 0.208,
      "velocity": 0.26,
      "hand": "left"
    },
    {
      "midi": 45,
      "time": 101.667,
      "duration": 0.208,
      "velocity": 0.26,
      "hand": "left"
    },
    {
      "midi": 64,
      "time": 101.667,
      "duration": 1.25,
      "velocity": 0.26,
      "hand": "right"
    },
    {
      "midi": 67,
      "time": 101.667,
      "duration": 1.25,
      "velocity": 0.26,
      "hand": "right"
    },
    {
      "midi": 70,
      "time": 101.667,
      "duration": 1.25,
      "velocity": 0.26,
      "hand": "right"
    },
    {
      "midi": 73,
      "time": 101.667,
      "duration": 1.25,
      "velocity": 0.26,
      "hand": "right"
    },
    {
      "midi": 45,
      "time": 101.875,
      "duration": 0.208,
      "velocity": 0.26,
      "hand": "left"
    },
    {
      "midi": 45,
      "time": 102.083,
      "duration": 0.208,
      "velocity": 0.26,
      "hand": "left"
    },
    {
      "midi": 45,
      "time": 102.292,
      "duration": 0.208,
      "velocity": 0.26,
      "hand": "left"
    },
    {
      "midi": 45,
      "time": 102.5,
      "duration": 0.208,
      "velocity": 0.26,
      "hand": "left"
    },
    {
      "midi": 45,
      "time": 102.708,
      "duration": 0.208,
      "velocity": 0.26,
      "hand": "left"
    },
    {
      "midi": 45,
      "time": 102.917,
      "duration": 0.208,
      "velocity": 0.26,
      "hand": "left"
    },
    {
      "midi": 65,
      "time": 102.917,
      "duration": 0.833,
      "velocity": 0.26,
      "hand": "right"
    },
    {
      "midi": 69,
      "time": 102.917,
      "duration": 0.833,
      "velocity": 0.26,
      "hand": "right"
    },
    {
      "midi": 74,
      "time": 102.917,
      "duration": 0.833,
      "velocity": 0.26,
      "hand": "right"
    },
    {
      "midi": 45,
      "time": 103.125,
      "duration": 0.208,
      "velocity": 0.26,
      "hand": "left"
    },
    {
      "midi": 45,
      "time": 103.333,
      "duration": 0.208,
      "velocity": 0.26,
      "hand": "left"
    },
    {
      "midi": 45,
      "time": 103.542,
      "duration": 0.208,
      "velocity": 0.26,
      "hand": "left"
    },
    {
      "midi": 45,
      "time": 103.75,
      "duration": 0.208,
      "velocity": 0.26,
      "hand": "left"
    },
    {
      "midi": 73,
      "time": 103.75,
      "duration": 0.208,
      "velocity": 0.26,
      "hand": "right"
    },
    {
      "midi": 76,
      "time": 103.75,
      "duration": 0.208,
      "velocity": 0.26,
      "hand": "right"
    },
    {
      "midi": 45,
      "time": 103.958,
      "duration": 0.208,
      "velocity": 0.26,
      "hand": "left"
    },
    {
      "midi": 74,
      "time": 103.958,
      "duration": 0.208,
      "velocity": 0.26,
      "hand": "right"
    },
    {
      "midi": 77,
      "time": 103.958,
      "duration": 0.208,
      "velocity": 0.26,
      "hand": "right"
    },
    {
      "midi": 45,
      "time": 104.167,
      "duration": 0.208,
      "velocity": 0.26,
      "hand": "left"
    },
    {
      "midi": 68,
      "time": 104.167,
      "duration": 0.833,
      "velocity": 0.26,
      "hand": "right"
    },
    {
      "midi": 74,
      "time": 104.167,
      "duration": 0.833,
      "velocity": 0.26,
      "hand": "right"
    },
    {
      "midi": 77,
      "time": 104.167,
      "duration": 0.833,
      "velocity": 0.26,
      "hand": "right"
    },
    {
      "midi": 45,
      "time": 104.375,
      "duration": 0.208,
      "velocity": 0.26,
      "hand": "left"
    },
    {
      "midi": 45,
      "time": 104.583,
      "duration": 0.208,
      "velocity": 0.26,
      "hand": "left"
    },
    {
      "midi": 45,
      "time": 104.792,
      "duration": 0.208,
      "velocity": 0.26,
      "hand": "left"
    },
    {
      "midi": 45,
      "time": 105,
      "duration": 0.208,
      "velocity": 0.26,
      "hand": "left"
    },
    {
      "midi": 68,
      "time": 105,
      "duration": 0.417,
      "velocity": 0.26,
      "hand": "right"
    },
    {
      "midi": 74,
      "time": 105,
      "duration": 0.417,
      "velocity": 0.26,
      "hand": "right"
    },
    {
      "midi": 77,
      "time": 105,
      "duration": 0.417,
      "velocity": 0.26,
      "hand": "right"
    },
    {
      "midi": 45,
      "time": 105.208,
      "duration": 0.208,
      "velocity": 0.26,
      "hand": "left"
    },
    {
      "midi": 45,
      "time": 105.417,
      "duration": 0.208,
      "velocity": 0.26,
      "hand": "left"
    },
    {
      "midi": 69,
      "time": 105.417,
      "duration": 1.25,
      "velocity": 0.26,
      "hand": "right"
    },
    {
      "midi": 72,
      "time": 105.417,
      "duration": 1.25,
      "velocity": 0.26,
      "hand": "right"
    },
    {
      "midi": 76,
      "time": 105.417,
      "duration": 1.25,
      "velocity": 0.26,
      "hand": "right"
    },
    {
      "midi": 45,
      "time": 105.625,
      "duration": 0.208,
      "velocity": 0.26,
      "hand": "left"
    },
    {
      "midi": 45,
      "time": 105.833,
      "duration": 0.208,
      "velocity": 0.26,
      "hand": "left"
    },
    {
      "midi": 45,
      "time": 106.042,
      "duration": 0.208,
      "velocity": 0.26,
      "hand": "left"
    },
    {
      "midi": 45,
      "time": 106.25,
      "duration": 0.208,
      "velocity": 0.26,
      "hand": "left"
    },
    {
      "midi": 45,
      "time": 106.458,
      "duration": 0.208,
      "velocity": 0.26,
      "hand": "left"
    },
    {
      "midi": 38,
      "time": 106.667,
      "duration": 0.208,
      "velocity": 0.26,
      "hand": "left"
    },
    {
      "midi": 45,
      "time": 106.667,
      "duration": 0.208,
      "velocity": 0.26,
      "hand": "left"
    },
    {
      "midi": 65,
      "time": 106.667,
      "duration": 0.833,
      "velocity": 0.26,
      "hand": "right"
    },
    {
      "midi": 74,
      "time": 106.667,
      "duration": 0.833,
      "velocity": 0.26,
      "hand": "right"
    },
    {
      "midi": 38,
      "time": 106.875,
      "duration": 0.208,
      "velocity": 0.26,
      "hand": "left"
    },
    {
      "midi": 45,
      "time": 106.875,
      "duration": 0.208,
      "velocity": 0.26,
      "hand": "left"
    },
    {
      "midi": 38,
      "time": 107.083,
      "duration": 0.208,
      "velocity": 0.26,
      "hand": "left"
    },
    {
      "midi": 45,
      "time": 107.083,
      "duration": 0.208,
      "velocity": 0.26,
      "hand": "left"
    },
    {
      "midi": 38,
      "time": 107.292,
      "duration": 0.208,
      "velocity": 0.26,
      "hand": "left"
    },
    {
      "midi": 45,
      "time": 107.292,
      "duration": 0.208,
      "velocity": 0.26,
      "hand": "left"
    },
    {
      "midi": 38,
      "time": 107.5,
      "duration": 0.208,
      "velocity": 0.26,
      "hand": "left"
    },
    {
      "midi": 45,
      "time": 107.5,
      "duration": 0.208,
      "velocity": 0.26,
      "hand": "left"
    },
    {
      "midi": 64,
      "time": 107.5,
      "duration": 0.208,
      "velocity": 0.26,
      "hand": "right"
    },
    {
      "midi": 72,
      "time": 107.5,
      "duration": 0.208,
      "velocity": 0.26,
      "hand": "right"
    },
    {
      "midi": 38,
      "time": 107.708,
      "duration": 0.208,
      "velocity": 0.26,
      "hand": "left"
    },
    {
      "midi": 45,
      "time": 107.708,
      "duration": 0.208,
      "velocity": 0.26,
      "hand": "left"
    },
    {
      "midi": 62,
      "time": 107.708,
      "duration": 0.208,
      "velocity": 0.26,
      "hand": "right"
    },
    {
      "midi": 71,
      "time": 107.708,
      "duration": 0.208,
      "velocity": 0.26,
      "hand": "right"
    },
    {
      "midi": 39,
      "time": 107.917,
      "duration": 0.208,
      "velocity": 0.26,
      "hand": "left"
    },
    {
      "midi": 45,
      "time": 107.917,
      "duration": 0.208,
      "velocity": 0.26,
      "hand": "left"
    },
    {
      "midi": 60,
      "time": 107.917,
      "duration": 0.833,
      "velocity": 0.26,
      "hand": "right"
    },
    {
      "midi": 66,
      "time": 107.917,
      "duration": 0.833,
      "velocity": 0.26,
      "hand": "right"
    },
    {
      "midi": 69,
      "time": 107.917,
      "duration": 0.833,
      "velocity": 0.26,
      "hand": "right"
    },
    {
      "midi": 39,
      "time": 108.125,
      "duration": 0.208,
      "velocity": 0.26,
      "hand": "left"
    },
    {
      "midi": 45,
      "time": 108.125,
      "duration": 0.208,
      "velocity": 0.26,
      "hand": "left"
    },
    {
      "midi": 39,
      "time": 108.333,
      "duration": 0.208,
      "velocity": 0.26,
      "hand": "left"
    },
    {
      "midi": 45,
      "time": 108.333,
      "duration": 0.208,
      "velocity": 0.26,
      "hand": "left"
    },
    {
      "midi": 39,
      "time": 108.542,
      "duration": 0.208,
      "velocity": 0.26,
      "hand": "left"
    },
    {
      "midi": 45,
      "time": 108.542,
      "duration": 0.208,
      "velocity": 0.26,
      "hand": "left"
    },
    {
      "midi": 39,
      "time": 108.75,
      "duration": 0.208,
      "velocity": 0.26,
      "hand": "left"
    },
    {
      "midi": 45,
      "time": 108.75,
      "duration": 0.208,
      "velocity": 0.26,
      "hand": "left"
    },
    {
      "midi": 60,
      "time": 108.75,
      "duration": 0.417,
      "velocity": 0.26,
      "hand": "right"
    },
    {
      "midi": 69,
      "time": 108.75,
      "duration": 0.417,
      "velocity": 0.26,
      "hand": "right"
    },
    {
      "midi": 39,
      "time": 108.958,
      "duration": 0.208,
      "velocity": 0.26,
      "hand": "left"
    },
    {
      "midi": 45,
      "time": 108.958,
      "duration": 0.208,
      "velocity": 0.26,
      "hand": "left"
    },
    {
      "midi": 40,
      "time": 109.167,
      "duration": 0.208,
      "velocity": 0.26,
      "hand": "left"
    },
    {
      "midi": 45,
      "time": 109.167,
      "duration": 0.208,
      "velocity": 0.26,
      "hand": "left"
    },
    {
      "midi": 60,
      "time": 109.167,
      "duration": 0.417,
      "velocity": 0.26,
      "hand": "right"
    },
    {
      "midi": 69,
      "time": 109.167,
      "duration": 0.417,
      "velocity": 0.26,
      "hand": "right"
    },
    {
      "midi": 40,
      "time": 109.375,
      "duration": 0.208,
      "velocity": 0.26,
      "hand": "left"
    },
    {
      "midi": 45,
      "time": 109.375,
      "duration": 0.208,
      "velocity": 0.26,
      "hand": "left"
    },
    {
      "midi": 40,
      "time": 109.583,
      "duration": 0.208,
      "velocity": 0.26,
      "hand": "left"
    },
    {
      "midi": 45,
      "time": 109.583,
      "duration": 0.208,
      "velocity": 0.26,
      "hand": "left"
    },
    {
      "midi": 64,
      "time": 109.583,
      "duration": 0.417,
      "velocity": 0.26,
      "hand": "right"
    },
    {
      "midi": 72,
      "time": 109.583,
      "duration": 0.417,
      "velocity": 0.26,
      "hand": "right"
    },
    {
      "midi": 40,
      "time": 109.792,
      "duration": 0.208,
      "velocity": 0.26,
      "hand": "left"
    },
    {
      "midi": 45,
      "time": 109.792,
      "duration": 0.208,
      "velocity": 0.26,
      "hand": "left"
    },
    {
      "midi": 40,
      "time": 110,
      "duration": 0.208,
      "velocity": 0.26,
      "hand": "left"
    },
    {
      "midi": 44,
      "time": 110,
      "duration": 0.208,
      "velocity": 0.26,
      "hand": "left"
    },
    {
      "midi": 62,
      "time": 110,
      "duration": 0.417,
      "velocity": 0.26,
      "hand": "right"
    },
    {
      "midi": 71,
      "time": 110,
      "duration": 0.417,
      "velocity": 0.26,
      "hand": "right"
    },
    {
      "midi": 40,
      "time": 110.208,
      "duration": 0.208,
      "velocity": 0.26,
      "hand": "left"
    },
    {
      "midi": 44,
      "time": 110.208,
      "duration": 0.208,
      "velocity": 0.26,
      "hand": "left"
    },
    {
      "midi": 33,
      "time": 110.417,
      "duration": 0.208,
      "velocity": 0.26,
      "hand": "left"
    },
    {
      "midi": 45,
      "time": 110.417,
      "duration": 0.208,
      "velocity": 0.26,
      "hand": "left"
    },
    {
      "midi": 60,
      "time": 110.417,
      "duration": 1.25,
      "velocity": 0.26,
      "hand": "right"
    },
    {
      "midi": 69,
      "time": 110.417,
      "duration": 1.25,
      "velocity": 0.26,
      "hand": "right"
    },
    {
      "midi": 45,
      "time": 110.625,
      "duration": 0.208,
      "velocity": 0.26,
      "hand": "left"
    },
    {
      "midi": 45,
      "time": 110.833,
      "duration": 0.208,
      "velocity": 0.26,
      "hand": "left"
    },
    {
      "midi": 45,
      "time": 111.042,
      "duration": 0.208,
      "velocity": 0.26,
      "hand": "left"
    },
    {
      "midi": 45,
      "time": 111.25,
      "duration": 0.208,
      "velocity": 0.26,
      "hand": "left"
    },
    {
      "midi": 45,
      "time": 111.458,
      "duration": 0.208,
      "velocity": 0.26,
      "hand": "left"
    },
    {
      "midi": 45,
      "time": 111.667,
      "duration": 0.208,
      "velocity": 0.26,
      "hand": "left"
    },
    {
      "midi": 64,
      "time": 111.667,
      "duration": 1.25,
      "velocity": 0.26,
      "hand": "right"
    },
    {
      "midi": 67,
      "time": 111.667,
      "duration": 1.25,
      "velocity": 0.26,
      "hand": "right"
    },
    {
      "midi": 70,
      "time": 111.667,
      "duration": 1.25,
      "velocity": 0.26,
      "hand": "right"
    },
    {
      "midi": 73,
      "time": 111.667,
      "duration": 1.25,
      "velocity": 0.26,
      "hand": "right"
    },
    {
      "midi": 45,
      "time": 111.875,
      "duration": 0.208,
      "velocity": 0.26,
      "hand": "left"
    },
    {
      "midi": 45,
      "time": 112.083,
      "duration": 0.208,
      "velocity": 0.26,
      "hand": "left"
    },
    {
      "midi": 45,
      "time": 112.292,
      "duration": 0.208,
      "velocity": 0.26,
      "hand": "left"
    },
    {
      "midi": 45,
      "time": 112.5,
      "duration": 0.208,
      "velocity": 0.26,
      "hand": "left"
    },
    {
      "midi": 45,
      "time": 112.708,
      "duration": 0.208,
      "velocity": 0.26,
      "hand": "left"
    },
    {
      "midi": 45,
      "time": 112.917,
      "duration": 0.208,
      "velocity": 0.26,
      "hand": "left"
    },
    {
      "midi": 65,
      "time": 112.917,
      "duration": 0.833,
      "velocity": 0.26,
      "hand": "right"
    },
    {
      "midi": 69,
      "time": 112.917,
      "duration": 0.833,
      "velocity": 0.26,
      "hand": "right"
    },
    {
      "midi": 74,
      "time": 112.917,
      "duration": 0.833,
      "velocity": 0.26,
      "hand": "right"
    },
    {
      "midi": 45,
      "time": 113.125,
      "duration": 0.208,
      "velocity": 0.26,
      "hand": "left"
    },
    {
      "midi": 45,
      "time": 113.333,
      "duration": 0.208,
      "velocity": 0.26,
      "hand": "left"
    },
    {
      "midi": 45,
      "time": 113.542,
      "duration": 0.208,
      "velocity": 0.26,
      "hand": "left"
    },
    {
      "midi": 45,
      "time": 113.75,
      "duration": 0.208,
      "velocity": 0.26,
      "hand": "left"
    },
    {
      "midi": 73,
      "time": 113.75,
      "duration": 0.208,
      "velocity": 0.26,
      "hand": "right"
    },
    {
      "midi": 76,
      "time": 113.75,
      "duration": 0.208,
      "velocity": 0.26,
      "hand": "right"
    },
    {
      "midi": 45,
      "time": 113.958,
      "duration": 0.208,
      "velocity": 0.26,
      "hand": "left"
    },
    {
      "midi": 74,
      "time": 113.958,
      "duration": 0.208,
      "velocity": 0.26,
      "hand": "right"
    },
    {
      "midi": 77,
      "time": 113.958,
      "duration": 0.208,
      "velocity": 0.26,
      "hand": "right"
    },
    {
      "midi": 45,
      "time": 114.167,
      "duration": 0.208,
      "velocity": 0.26,
      "hand": "left"
    },
    {
      "midi": 74,
      "time": 114.167,
      "duration": 0.833,
      "velocity": 0.26,
      "hand": "right"
    },
    {
      "midi": 77,
      "time": 114.167,
      "duration": 0.833,
      "velocity": 0.26,
      "hand": "right"
    },
    {
      "midi": 45,
      "time": 114.375,
      "duration": 0.208,
      "velocity": 0.26,
      "hand": "left"
    },
    {
      "midi": 45,
      "time": 114.583,
      "duration": 0.208,
      "velocity": 0.26,
      "hand": "left"
    },
    {
      "midi": 45,
      "time": 114.792,
      "duration": 0.208,
      "velocity": 0.26,
      "hand": "left"
    },
    {
      "midi": 45,
      "time": 115,
      "duration": 0.208,
      "velocity": 0.26,
      "hand": "left"
    },
    {
      "midi": 74,
      "time": 115,
      "duration": 0.417,
      "velocity": 0.26,
      "hand": "right"
    },
    {
      "midi": 77,
      "time": 115,
      "duration": 0.417,
      "velocity": 0.26,
      "hand": "right"
    },
    {
      "midi": 45,
      "time": 115.208,
      "duration": 0.208,
      "velocity": 0.26,
      "hand": "left"
    },
    {
      "midi": 46,
      "time": 115.417,
      "duration": 0.208,
      "velocity": 0.26,
      "hand": "left"
    },
    {
      "midi": 74,
      "time": 115.417,
      "duration": 1.25,
      "velocity": 0.26,
      "hand": "right"
    },
    {
      "midi": 77,
      "time": 115.417,
      "duration": 1.25,
      "velocity": 0.26,
      "hand": "right"
    },
    {
      "midi": 46,
      "time": 115.625,
      "duration": 0.208,
      "velocity": 0.26,
      "hand": "left"
    },
    {
      "midi": 46,
      "time": 115.833,
      "duration": 0.208,
      "velocity": 0.26,
      "hand": "left"
    },
    {
      "midi": 46,
      "time": 116.042,
      "duration": 0.208,
      "velocity": 0.26,
      "hand": "left"
    },
    {
      "midi": 46,
      "time": 116.25,
      "duration": 0.208,
      "velocity": 0.26,
      "hand": "left"
    },
    {
      "midi": 46,
      "time": 116.458,
      "duration": 0.208,
      "velocity": 0.26,
      "hand": "left"
    },
    {
      "midi": 46,
      "time": 116.667,
      "duration": 0.208,
      "velocity": 0.26,
      "hand": "left"
    },
    {
      "midi": 67,
      "time": 116.667,
      "duration": 0.833,
      "velocity": 0.26,
      "hand": "right"
    },
    {
      "midi": 75,
      "time": 116.667,
      "duration": 0.833,
      "velocity": 0.26,
      "hand": "right"
    },
    {
      "midi": 46,
      "time": 116.875,
      "duration": 0.208,
      "velocity": 0.26,
      "hand": "left"
    },
    {
      "midi": 46,
      "time": 117.083,
      "duration": 0.208,
      "velocity": 0.26,
      "hand": "left"
    },
    {
      "midi": 46,
      "time": 117.292,
      "duration": 0.208,
      "velocity": 0.26,
      "hand": "left"
    },
    {
      "midi": 46,
      "time": 117.5,
      "duration": 0.208,
      "velocity": 0.26,
      "hand": "left"
    },
    {
      "midi": 65,
      "time": 117.5,
      "duration": 0.208,
      "velocity": 0.26,
      "hand": "right"
    },
    {
      "midi": 74,
      "time": 117.5,
      "duration": 0.208,
      "velocity": 0.26,
      "hand": "right"
    },
    {
      "midi": 46,
      "time": 117.708,
      "duration": 0.208,
      "velocity": 0.26,
      "hand": "left"
    },
    {
      "midi": 63,
      "time": 117.708,
      "duration": 0.208,
      "velocity": 0.26,
      "hand": "right"
    },
    {
      "midi": 72,
      "time": 117.708,
      "duration": 0.208,
      "velocity": 0.26,
      "hand": "right"
    },
    {
      "midi": 46,
      "time": 117.917,
      "duration": 0.208,
      "velocity": 0.26,
      "hand": "left"
    },
    {
      "midi": 62,
      "time": 117.917,
      "duration": 0.833,
      "velocity": 0.26,
      "hand": "right"
    },
    {
      "midi": 65,
      "time": 117.917,
      "duration": 0.833,
      "velocity": 0.26,
      "hand": "right"
    },
    {
      "midi": 70,
      "time": 117.917,
      "duration": 0.833,
      "velocity": 0.26,
      "hand": "right"
    },
    {
      "midi": 46,
      "time": 118.125,
      "duration": 0.208,
      "velocity": 0.26,
      "hand": "left"
    },
    {
      "midi": 46,
      "time": 118.333,
      "duration": 0.208,
      "velocity": 0.26,
      "hand": "left"
    },
    {
      "midi": 46,
      "time": 118.542,
      "duration": 0.208,
      "velocity": 0.26,
      "hand": "left"
    },
    {
      "midi": 46,
      "time": 118.75,
      "duration": 0.208,
      "velocity": 0.26,
      "hand": "left"
    },
    {
      "midi": 62,
      "time": 118.75,
      "duration": 0.417,
      "velocity": 0.26,
      "hand": "right"
    },
    {
      "midi": 65,
      "time": 118.75,
      "duration": 0.417,
      "velocity": 0.26,
      "hand": "right"
    },
    {
      "midi": 69,
      "time": 118.75,
      "duration": 0.417,
      "velocity": 0.26,
      "hand": "right"
    },
    {
      "midi": 46,
      "time": 118.958,
      "duration": 0.208,
      "velocity": 0.26,
      "hand": "left"
    },
    {
      "midi": 47,
      "time": 119.167,
      "duration": 0.208,
      "velocity": 0.26,
      "hand": "left"
    },
    {
      "midi": 62,
      "time": 119.167,
      "duration": 0.833,
      "velocity": 0.26,
      "hand": "right"
    },
    {
      "midi": 65,
      "time": 119.167,
      "duration": 0.833,
      "velocity": 0.26,
      "hand": "right"
    },
    {
      "midi": 68,
      "time": 119.167,
      "duration": 0.833,
      "velocity": 0.26,
      "hand": "right"
    },
    {
      "midi": 47,
      "time": 119.375,
      "duration": 0.208,
      "velocity": 0.26,
      "hand": "left"
    },
    {
      "midi": 47,
      "time": 119.583,
      "duration": 0.208,
      "velocity": 0.26,
      "hand": "left"
    },
    {
      "midi": 47,
      "time": 119.792,
      "duration": 0.208,
      "velocity": 0.26,
      "hand": "left"
    },
    {
      "midi": 47,
      "time": 120,
      "duration": 0.208,
      "velocity": 0.26,
      "hand": "left"
    },
    {
      "midi": 62,
      "time": 120,
      "duration": 0.417,
      "velocity": 0.26,
      "hand": "right"
    },
    {
      "midi": 65,
      "time": 120,
      "duration": 0.417,
      "velocity": 0.26,
      "hand": "right"
    },
    {
      "midi": 68,
      "time": 120,
      "duration": 0.417,
      "velocity": 0.26,
      "hand": "right"
    },
    {
      "midi": 47,
      "time": 120.208,
      "duration": 0.208,
      "velocity": 0.26,
      "hand": "left"
    },
    {
      "midi": 48,
      "time": 120.417,
      "duration": 0.833,
      "velocity": 0.26,
      "hand": "left"
    },
    {
      "midi": 60,
      "time": 120.417,
      "duration": 0.833,
      "velocity": 0.26,
      "hand": "right"
    },
    {
      "midi": 64,
      "time": 120.417,
      "duration": 0.833,
      "velocity": 0.26,
      "hand": "right"
    },
    {
      "midi": 69,
      "time": 120.417,
      "duration": 0.833,
      "velocity": 0.26,
      "hand": "right"
    },
    {
      "midi": 52,
      "time": 121.667,
      "duration": 0.417,
      "velocity": 0.26,
      "hand": "left"
    },
    {
      "midi": 56,
      "time": 121.667,
      "duration": 0.417,
      "velocity": 0.26,
      "hand": "left"
    },
    {
      "midi": 64,
      "time": 121.667,
      "duration": 0.417,
      "velocity": 0.26,
      "hand": "right"
    },
    {
      "midi": 71,
      "time": 121.667,
      "duration": 0.417,
      "velocity": 0.26,
      "hand": "right"
    },
    {
      "midi": 33,
      "time": 122.917,
      "duration": 0.417,
      "velocity": 0.26,
      "hand": "left"
    },
    {
      "midi": 57,
      "time": 122.917,
      "duration": 0.208,
      "velocity": 0.26,
      "hand": "left"
    },
    {
      "midi": 60,
      "time": 123.125,
      "duration": 0.208,
      "velocity": 0.26,
      "hand": "right"
    },
    {
      "midi": 64,
      "time": 123.125,
      "duration": 0.208,
      "velocity": 0.26,
      "hand": "right"
    },
    {
      "midi": 69,
      "time": 123.333,
      "duration": 0.208,
      "velocity": 0.26,
      "hand": "right"
    },
    {
      "midi": 72,
      "time": 123.542,
      "duration": 0.208,
      "velocity": 0.26,
      "hand": "right"
    },
    {
      "midi": 76,
      "time": 123.542,
      "duration": 0.208,
      "velocity": 0.26,
      "hand": "right"
    },
    {
      "midi": 57,
      "time": 123.75,
      "duration": 0.417,
      "velocity": 0.26,
      "hand": "left"
    },
    {
      "midi": 60,
      "time": 123.75,
      "duration": 0.417,
      "velocity": 0.26,
      "hand": "right"
    },
    {
      "midi": 64,
      "time": 123.75,
      "duration": 0.417,
      "velocity": 0.26,
      "hand": "right"
    },
    {
      "midi": 74,
      "time": 123.75,
      "duration": 0.208,
      "velocity": 0.26,
      "hand": "right"
    },
    {
      "midi": 71,
      "time": 123.958,
      "duration": 0.208,
      "velocity": 0.26,
      "hand": "right"
    },
    {
      "midi": 72,
      "time": 123.958,
      "duration": 0.208,
      "velocity": 0.26,
      "hand": "right"
    },
    {
      "midi": 57,
      "time": 124.167,
      "duration": 0.417,
      "velocity": 0.26,
      "hand": "left"
    },
    {
      "midi": 60,
      "time": 124.167,
      "duration": 0.417,
      "velocity": 0.26,
      "hand": "right"
    },
    {
      "midi": 64,
      "time": 124.167,
      "duration": 0.417,
      "velocity": 0.26,
      "hand": "right"
    },
    {
      "midi": 69,
      "time": 124.167,
      "duration": 0.208,
      "velocity": 0.26,
      "hand": "right"
    },
    {
      "midi": 72,
      "time": 124.375,
      "duration": 0.208,
      "velocity": 0.26,
      "hand": "right"
    },
    {
      "midi": 76,
      "time": 124.375,
      "duration": 0.208,
      "velocity": 0.26,
      "hand": "right"
    },
    {
      "midi": 81,
      "time": 124.583,
      "duration": 0.208,
      "velocity": 0.26,
      "hand": "right"
    },
    {
      "midi": 84,
      "time": 124.792,
      "duration": 0.208,
      "velocity": 0.26,
      "hand": "right"
    },
    {
      "midi": 88,
      "time": 124.792,
      "duration": 0.208,
      "velocity": 0.26,
      "hand": "right"
    },
    {
      "midi": 57,
      "time": 125,
      "duration": 0.417,
      "velocity": 0.26,
      "hand": "left"
    },
    {
      "midi": 60,
      "time": 125,
      "duration": 0.417,
      "velocity": 0.26,
      "hand": "right"
    },
    {
      "midi": 64,
      "time": 125,
      "duration": 0.417,
      "velocity": 0.26,
      "hand": "right"
    },
    {
      "midi": 86,
      "time": 125,
      "duration": 0.208,
      "velocity": 0.26,
      "hand": "right"
    },
    {
      "midi": 83,
      "time": 125.208,
      "duration": 0.208,
      "velocity": 0.26,
      "hand": "right"
    },
    {
      "midi": 84,
      "time": 125.208,
      "duration": 0.208,
      "velocity": 0.26,
      "hand": "right"
    },
    {
      "midi": 57,
      "time": 125.417,
      "duration": 0.417,
      "velocity": 0.26,
      "hand": "left"
    },
    {
      "midi": 60,
      "time": 125.417,
      "duration": 0.417,
      "velocity": 0.26,
      "hand": "right"
    },
    {
      "midi": 64,
      "time": 125.417,
      "duration": 0.417,
      "velocity": 0.26,
      "hand": "right"
    },
    {
      "midi": 81,
      "time": 125.417,
      "duration": 0.208,
      "velocity": 0.26,
      "hand": "right"
    },
    {
      "midi": 84,
      "time": 125.625,
      "duration": 0.208,
      "velocity": 0.26,
      "hand": "right"
    },
    {
      "midi": 88,
      "time": 125.625,
      "duration": 0.208,
      "velocity": 0.26,
      "hand": "right"
    },
    {
      "midi": 93,
      "time": 125.833,
      "duration": 0.208,
      "velocity": 0.26,
      "hand": "right"
    },
    {
      "midi": 96,
      "time": 126.042,
      "duration": 0.208,
      "velocity": 0.26,
      "hand": "right"
    },
    {
      "midi": 100,
      "time": 126.042,
      "duration": 0.208,
      "velocity": 0.26,
      "hand": "right"
    },
    {
      "midi": 57,
      "time": 126.25,
      "duration": 0.417,
      "velocity": 0.26,
      "hand": "left"
    },
    {
      "midi": 60,
      "time": 126.25,
      "duration": 0.417,
      "velocity": 0.26,
      "hand": "right"
    },
    {
      "midi": 64,
      "time": 126.25,
      "duration": 0.417,
      "velocity": 0.26,
      "hand": "right"
    },
    {
      "midi": 98,
      "time": 126.25,
      "duration": 0.208,
      "velocity": 0.26,
      "hand": "right"
    },
    {
      "midi": 95,
      "time": 126.458,
      "duration": 0.208,
      "velocity": 0.26,
      "hand": "right"
    },
    {
      "midi": 96,
      "time": 126.458,
      "duration": 0.208,
      "velocity": 0.26,
      "hand": "right"
    },
    {
      "midi": 57,
      "time": 126.667,
      "duration": 0.417,
      "velocity": 0.26,
      "hand": "left"
    },
    {
      "midi": 60,
      "time": 126.667,
      "duration": 0.417,
      "velocity": 0.26,
      "hand": "right"
    },
    {
      "midi": 64,
      "time": 126.667,
      "duration": 0.417,
      "velocity": 0.26,
      "hand": "right"
    },
    {
      "midi": 94,
      "time": 126.667,
      "duration": 0.208,
      "velocity": 0.26,
      "hand": "right"
    },
    {
      "midi": 92,
      "time": 126.875,
      "duration": 0.208,
      "velocity": 0.26,
      "hand": "right"
    },
    {
      "midi": 93,
      "time": 126.875,
      "duration": 0.208,
      "velocity": 0.26,
      "hand": "right"
    },
    {
      "midi": 91,
      "time": 127.083,
      "duration": 0.208,
      "velocity": 0.26,
      "hand": "right"
    },
    {
      "midi": 89,
      "time": 127.292,
      "duration": 0.208,
      "velocity": 0.26,
      "hand": "right"
    },
    {
      "midi": 90,
      "time": 127.292,
      "duration": 0.208,
      "velocity": 0.26,
      "hand": "right"
    },
    {
      "midi": 88,
      "time": 127.5,
      "duration": 0.208,
      "velocity": 0.26,
      "hand": "right"
    },
    {
      "midi": 86,
      "time": 127.708,
      "duration": 0.208,
      "velocity": 0.26,
      "hand": "right"
    },
    {
      "midi": 87,
      "time": 127.708,
      "duration": 0.208,
      "velocity": 0.26,
      "hand": "right"
    },
    {
      "midi": 85,
      "time": 127.917,
      "duration": 0.208,
      "velocity": 0.26,
      "hand": "right"
    },
    {
      "midi": 83,
      "time": 128.125,
      "duration": 0.208,
      "velocity": 0.26,
      "hand": "right"
    },
    {
      "midi": 84,
      "time": 128.125,
      "duration": 0.208,
      "velocity": 0.26,
      "hand": "right"
    },
    {
      "midi": 82,
      "time": 128.333,
      "duration": 0.208,
      "velocity": 0.26,
      "hand": "right"
    },
    {
      "midi": 80,
      "time": 128.542,
      "duration": 0.208,
      "velocity": 0.26,
      "hand": "right"
    },
    {
      "midi": 81,
      "time": 128.542,
      "duration": 0.208,
      "velocity": 0.26,
      "hand": "right"
    },
    {
      "midi": 79,
      "time": 128.75,
      "duration": 0.208,
      "velocity": 0.26,
      "hand": "right"
    },
    {
      "midi": 77,
      "time": 128.958,
      "duration": 0.208,
      "velocity": 0.26,
      "hand": "right"
    },
    {
      "midi": 78,
      "time": 128.958,
      "duration": 0.208,
      "velocity": 0.26,
      "hand": "right"
    },
    {
      "midi": 76,
      "time": 129.167,
      "duration": 0.208,
      "velocity": 0.26,
      "hand": "right"
    },
    {
      "midi": 75,
      "time": 129.375,
      "duration": 0.208,
      "velocity": 0.26,
      "hand": "right"
    },
    {
      "midi": 76,
      "time": 129.583,
      "duration": 0.208,
      "velocity": 0.26,
      "hand": "right"
    },
    {
      "midi": 71,
      "time": 129.792,
      "duration": 0.208,
      "velocity": 0.26,
      "hand": "right"
    },
    {
      "midi": 74,
      "time": 130,
      "duration": 0.208,
      "velocity": 0.26,
      "hand": "right"
    },
    {
      "midi": 72,
      "time": 130.208,
      "duration": 0.208,
      "velocity": 0.26,
      "hand": "right"
    },
    {
      "midi": 45,
      "time": 130.417,
      "duration": 0.208,
      "velocity": 0.26,
      "hand": "left"
    },
    {
      "midi": 69,
      "time": 130.417,
      "duration": 0.417,
      "velocity": 0.26,
      "hand": "right"
    },
    {
      "midi": 52,
      "time": 130.625,
      "duration": 0.208,
      "velocity": 0.26,
      "hand": "left"
    },
    {
      "midi": 57,
      "time": 130.833,
      "duration": 0.208,
      "velocity": 0.26,
      "hand": "left"
    },
    {
      "midi": 60,
      "time": 131.042,
      "duration": 0.208,
      "velocity": 0.26,
      "hand": "right"
    },
    {
      "midi": 64,
      "time": 131.25,
      "duration": 0.208,
      "velocity": 0.26,
      "hand": "right"
    },
    {
      "midi": 69,
      "time": 131.458,
      "duration": 0.208,
      "velocity": 0.26,
      "hand": "right"
    },
    {
      "midi": 40,
      "time": 131.667,
      "duration": 0.208,
      "velocity": 0.26,
      "hand": "left"
    },
    {
      "midi": 71,
      "time": 131.667,
      "duration": 0.417,
      "velocity": 0.26,
      "hand": "right"
    },
    {
      "midi": 52,
      "time": 131.875,
      "duration": 0.208,
      "velocity": 0.26,
      "hand": "left"
    },
    {
      "midi": 56,
      "time": 132.083,
      "duration": 0.208,
      "velocity": 0.26,
      "hand": "left"
    },
    {
      "midi": 64,
      "time": 132.292,
      "duration": 0.208,
      "velocity": 0.26,
      "hand": "right"
    },
    {
      "midi": 68,
      "time": 132.5,
      "duration": 0.208,
      "velocity": 0.26,
      "hand": "right"
    },
    {
      "midi": 71,
      "time": 132.708,
      "duration": 0.208,
      "velocity": 0.26,
      "hand": "right"
    },
    {
      "midi": 45,
      "time": 132.917,
      "duration": 0.208,
      "velocity": 0.26,
      "hand": "left"
    },
    {
      "midi": 72,
      "time": 132.917,
      "duration": 0.417,
      "velocity": 0.26,
      "hand": "right"
    },
    {
      "midi": 52,
      "time": 133.125,
      "duration": 0.208,
      "velocity": 0.26,
      "hand": "left"
    },
    {
      "midi": 57,
      "time": 133.333,
      "duration": 0.208,
      "velocity": 0.26,
      "hand": "left"
    },
    {
      "midi": 64,
      "time": 133.542,
      "duration": 0.208,
      "velocity": 0.26,
      "hand": "right"
    },
    {
      "midi": 76,
      "time": 133.75,
      "duration": 0.208,
      "velocity": 0.26,
      "hand": "right"
    },
    {
      "midi": 75,
      "time": 133.958,
      "duration": 0.208,
      "velocity": 0.26,
      "hand": "right"
    },
    {
      "midi": 76,
      "time": 134.167,
      "duration": 0.208,
      "velocity": 0.26,
      "hand": "right"
    },
    {
      "midi": 75,
      "time": 134.375,
      "duration": 0.208,
      "velocity": 0.26,
      "hand": "right"
    },
    {
      "midi": 76,
      "time": 134.583,
      "duration": 0.208,
      "velocity": 0.26,
      "hand": "right"
    },
    {
      "midi": 71,
      "time": 134.792,
      "duration": 0.208,
      "velocity": 0.26,
      "hand": "right"
    },
    {
      "midi": 74,
      "time": 135,
      "duration": 0.208,
      "velocity": 0.26,
      "hand": "right"
    },
    {
      "midi": 72,
      "time": 135.208,
      "duration": 0.208,
      "velocity": 0.26,
      "hand": "right"
    },
    {
      "midi": 45,
      "time": 135.417,
      "duration": 0.208,
      "velocity": 0.26,
      "hand": "left"
    },
    {
      "midi": 69,
      "time": 135.417,
      "duration": 0.417,
      "velocity": 0.26,
      "hand": "right"
    },
    {
      "midi": 52,
      "time": 135.625,
      "duration": 0.208,
      "velocity": 0.26,
      "hand": "left"
    },
    {
      "midi": 57,
      "time": 135.833,
      "duration": 0.208,
      "velocity": 0.26,
      "hand": "left"
    },
    {
      "midi": 60,
      "time": 136.042,
      "duration": 0.208,
      "velocity": 0.26,
      "hand": "right"
    },
    {
      "midi": 64,
      "time": 136.25,
      "duration": 0.208,
      "velocity": 0.26,
      "hand": "right"
    },
    {
      "midi": 69,
      "time": 136.458,
      "duration": 0.208,
      "velocity": 0.26,
      "hand": "right"
    },
    {
      "midi": 40,
      "time": 136.667,
      "duration": 0.208,
      "velocity": 0.26,
      "hand": "left"
    },
    {
      "midi": 71,
      "time": 136.667,
      "duration": 0.417,
      "velocity": 0.26,
      "hand": "right"
    },
    {
      "midi": 52,
      "time": 136.875,
      "duration": 0.208,
      "velocity": 0.26,
      "hand": "left"
    },
    {
      "midi": 56,
      "time": 137.083,
      "duration": 0.208,
      "velocity": 0.26,
      "hand": "left"
    },
    {
      "midi": 62,
      "time": 137.292,
      "duration": 0.208,
      "velocity": 0.26,
      "hand": "right"
    },
    {
      "midi": 72,
      "time": 137.5,
      "duration": 0.208,
      "velocity": 0.26,
      "hand": "right"
    },
    {
      "midi": 71,
      "time": 137.708,
      "duration": 0.208,
      "velocity": 0.26,
      "hand": "right"
    },
    {
      "midi": 45,
      "time": 137.917,
      "duration": 0.208,
      "velocity": 0.26,
      "hand": "left"
    },
    {
      "midi": 69,
      "time": 137.917,
      "duration": 0.417,
      "velocity": 0.26,
      "hand": "right"
    },
    {
      "midi": 52,
      "time": 138.125,
      "duration": 0.208,
      "velocity": 0.26,
      "hand": "left"
    },
    {
      "midi": 57,
      "time": 138.333,
      "duration": 0.208,
      "velocity": 0.26,
      "hand": "left"
    },
    {
      "midi": 71,
      "time": 138.542,
      "duration": 0.208,
      "velocity": 0.26,
      "hand": "right"
    },
    {
      "midi": 72,
      "time": 138.75,
      "duration": 0.208,
      "velocity": 0.26,
      "hand": "right"
    },
    {
      "midi": 74,
      "time": 138.958,
      "duration": 0.208,
      "velocity": 0.26,
      "hand": "right"
    },
    {
      "midi": 48,
      "time": 139.167,
      "duration": 0.208,
      "velocity": 0.26,
      "hand": "left"
    },
    {
      "midi": 76,
      "time": 139.167,
      "duration": 0.625,
      "velocity": 0.26,
      "hand": "right"
    },
    {
      "midi": 55,
      "time": 139.375,
      "duration": 0.208,
      "velocity": 0.26,
      "hand": "left"
    },
    {
      "midi": 60,
      "time": 139.583,
      "duration": 0.208,
      "velocity": 0.26,
      "hand": "right"
    },
    {
      "midi": 67,
      "time": 139.792,
      "duration": 0.208,
      "velocity": 0.26,
      "hand": "right"
    },
    {
      "midi": 77,
      "time": 140,
      "duration": 0.208,
      "velocity": 0.26,
      "hand": "right"
    },
    {
      "midi": 76,
      "time": 140.208,
      "duration": 0.208,
      "velocity": 0.26,
      "hand": "right"
    },
    {
      "midi": 43,
      "time": 140.417,
      "duration": 0.208,
      "velocity": 0.26,
      "hand": "left"
    },
    {
      "midi": 74,
      "time": 140.417,
      "duration": 0.625,
      "velocity": 0.26,
      "hand": "right"
    },
    {
      "midi": 55,
      "time": 140.625,
      "duration": 0.208,
      "velocity": 0.26,
      "hand": "left"
    },
    {
      "midi": 59,
      "time": 140.833,
      "duration": 0.208,
      "velocity": 0.26,
      "hand": "left"
    },
    {
      "midi": 65,
      "time": 141.042,
      "duration": 0.208,
      "velocity": 0.26,
      "hand": "right"
    },
    {
      "midi": 76,
      "time": 141.25,
      "duration": 0.208,
      "velocity": 0.26,
      "hand": "right"
    },
    {
      "midi": 74,
      "time": 141.458,
      "duration": 0.208,
      "velocity": 0.26,
      "hand": "right"
    },
    {
      "midi": 45,
      "time": 141.667,
      "duration": 0.208,
      "velocity": 0.26,
      "hand": "left"
    },
    {
      "midi": 72,
      "time": 141.667,
      "duration": 0.625,
      "velocity": 0.26,
      "hand": "right"
    },
    {
      "midi": 52,
      "time": 141.875,
      "duration": 0.208,
      "velocity": 0.26,
      "hand": "left"
    },
    {
      "midi": 57,
      "time": 142.083,
      "duration": 0.208,
      "velocity": 0.26,
      "hand": "left"
    },
    {
      "midi": 64,
      "time": 142.292,
      "duration": 0.208,
      "velocity": 0.26,
      "hand": "right"
    },
    {
      "midi": 74,
      "time": 142.5,
      "duration": 0.208,
      "velocity": 0.26,
      "hand": "right"
    },
    {
      "midi": 72,
      "time": 142.708,
      "duration": 0.208,
      "velocity": 0.26,
      "hand": "right"
    },
    {
      "midi": 40,
      "time": 142.917,
      "duration": 0.208,
      "velocity": 0.26,
      "hand": "left"
    },
    {
      "midi": 71,
      "time": 142.917,
      "duration": 0.417,
      "velocity": 0.26,
      "hand": "right"
    },
    {
      "midi": 52,
      "time": 143.125,
      "duration": 0.208,
      "velocity": 0.26,
      "hand": "left"
    },
    {
      "midi": 64,
      "time": 143.333,
      "duration": 0.208,
      "velocity": 0.26,
      "hand": "right"
    },
    {
      "midi": 64,
      "time": 143.542,
      "duration": 0.208,
      "velocity": 0.26,
      "hand": "right"
    },
    {
      "midi": 76,
      "time": 143.75,
      "duration": 0.208,
      "velocity": 0.26,
      "hand": "right"
    },
    {
      "midi": 64,
      "time": 143.958,
      "duration": 0.208,
      "velocity": 0.26,
      "hand": "right"
    },
    {
      "midi": 76,
      "time": 144.167,
      "duration": 0.208,
      "velocity": 0.26,
      "hand": "right"
    },
    {
      "midi": 76,
      "time": 144.375,
      "duration": 0.208,
      "velocity": 0.26,
      "hand": "right"
    },
    {
      "midi": 88,
      "time": 144.583,
      "duration": 0.208,
      "velocity": 0.26,
      "hand": "right"
    },
    {
      "midi": 75,
      "time": 144.792,
      "duration": 0.208,
      "velocity": 0.26,
      "hand": "right"
    },
    {
      "midi": 76,
      "time": 145,
      "duration": 0.208,
      "velocity": 0.26,
      "hand": "right"
    },
    {
      "midi": 75,
      "time": 145.208,
      "duration": 0.208,
      "velocity": 0.26,
      "hand": "right"
    },
    {
      "midi": 76,
      "time": 145.417,
      "duration": 0.417,
      "velocity": 0.26,
      "hand": "right"
    },
    {
      "midi": 75,
      "time": 145.625,
      "duration": 0.208,
      "velocity": 0.26,
      "hand": "right"
    },
    {
      "midi": 76,
      "time": 145.833,
      "duration": 0.208,
      "velocity": 0.26,
      "hand": "right"
    },
    {
      "midi": 75,
      "time": 146.042,
      "duration": 0.208,
      "velocity": 0.26,
      "hand": "right"
    },
    {
      "midi": 76,
      "time": 146.25,
      "duration": 0.208,
      "velocity": 0.26,
      "hand": "right"
    },
    {
      "midi": 75,
      "time": 146.458,
      "duration": 0.208,
      "velocity": 0.26,
      "hand": "right"
    },
    {
      "midi": 76,
      "time": 146.667,
      "duration": 0.208,
      "velocity": 0.26,
      "hand": "right"
    },
    {
      "midi": 75,
      "time": 146.875,
      "duration": 0.208,
      "velocity": 0.26,
      "hand": "right"
    },
    {
      "midi": 76,
      "time": 147.083,
      "duration": 0.208,
      "velocity": 0.26,
      "hand": "right"
    },
    {
      "midi": 71,
      "time": 147.292,
      "duration": 0.208,
      "velocity": 0.26,
      "hand": "right"
    },
    {
      "midi": 74,
      "time": 147.5,
      "duration": 0.208,
      "velocity": 0.26,
      "hand": "right"
    },
    {
      "midi": 72,
      "time": 147.708,
      "duration": 0.208,
      "velocity": 0.26,
      "hand": "right"
    },
    {
      "midi": 45,
      "time": 147.917,
      "duration": 0.208,
      "velocity": 0.26,
      "hand": "left"
    },
    {
      "midi": 69,
      "time": 147.917,
      "duration": 0.417,
      "velocity": 0.26,
      "hand": "right"
    },
    {
      "midi": 52,
      "time": 148.125,
      "duration": 0.208,
      "velocity": 0.26,
      "hand": "left"
    },
    {
      "midi": 57,
      "time": 148.333,
      "duration": 0.208,
      "velocity": 0.26,
      "hand": "left"
    },
    {
      "midi": 60,
      "time": 148.542,
      "duration": 0.208,
      "velocity": 0.26,
      "hand": "right"
    },
    {
      "midi": 64,
      "time": 148.75,
      "duration": 0.208,
      "velocity": 0.26,
      "hand": "right"
    },
    {
      "midi": 69,
      "time": 148.958,
      "duration": 0.208,
      "velocity": 0.26,
      "hand": "right"
    },
    {
      "midi": 40,
      "time": 149.167,
      "duration": 0.208,
      "velocity": 0.26,
      "hand": "left"
    },
    {
      "midi": 71,
      "time": 149.167,
      "duration": 0.417,
      "velocity": 0.26,
      "hand": "right"
    },
    {
      "midi": 52,
      "time": 149.375,
      "duration": 0.208,
      "velocity": 0.26,
      "hand": "left"
    },
    {
      "midi": 56,
      "time": 149.583,
      "duration": 0.208,
      "velocity": 0.26,
      "hand": "left"
    },
    {
      "midi": 64,
      "time": 149.792,
      "duration": 0.208,
      "velocity": 0.26,
      "hand": "right"
    },
    {
      "midi": 68,
      "time": 150,
      "duration": 0.208,
      "velocity": 0.26,
      "hand": "right"
    },
    {
      "midi": 71,
      "time": 150.208,
      "duration": 0.208,
      "velocity": 0.26,
      "hand": "right"
    },
    {
      "midi": 45,
      "time": 150.417,
      "duration": 0.208,
      "velocity": 0.26,
      "hand": "left"
    },
    {
      "midi": 72,
      "time": 150.417,
      "duration": 0.417,
      "velocity": 0.26,
      "hand": "right"
    },
    {
      "midi": 52,
      "time": 150.625,
      "duration": 0.208,
      "velocity": 0.26,
      "hand": "left"
    },
    {
      "midi": 57,
      "time": 150.833,
      "duration": 0.208,
      "velocity": 0.26,
      "hand": "left"
    },
    {
      "midi": 64,
      "time": 151.042,
      "duration": 0.208,
      "velocity": 0.26,
      "hand": "right"
    },
    {
      "midi": 76,
      "time": 151.25,
      "duration": 0.208,
      "velocity": 0.26,
      "hand": "right"
    },
    {
      "midi": 75,
      "time": 151.458,
      "duration": 0.208,
      "velocity": 0.26,
      "hand": "right"
    },
    {
      "midi": 76,
      "time": 151.667,
      "duration": 0.208,
      "velocity": 0.26,
      "hand": "right"
    },
    {
      "midi": 75,
      "time": 151.875,
      "duration": 0.208,
      "velocity": 0.26,
      "hand": "right"
    },
    {
      "midi": 76,
      "time": 152.083,
      "duration": 0.208,
      "velocity": 0.26,
      "hand": "right"
    },
    {
      "midi": 71,
      "time": 152.292,
      "duration": 0.208,
      "velocity": 0.26,
      "hand": "right"
    },
    {
      "midi": 74,
      "time": 152.5,
      "duration": 0.208,
      "velocity": 0.26,
      "hand": "right"
    },
    {
      "midi": 72,
      "time": 152.708,
      "duration": 0.208,
      "velocity": 0.26,
      "hand": "right"
    },
    {
      "midi": 45,
      "time": 152.917,
      "duration": 0.208,
      "velocity": 0.26,
      "hand": "left"
    },
    {
      "midi": 69,
      "time": 152.917,
      "duration": 0.417,
      "velocity": 0.26,
      "hand": "right"
    },
    {
      "midi": 52,
      "time": 153.125,
      "duration": 0.208,
      "velocity": 0.26,
      "hand": "left"
    },
    {
      "midi": 57,
      "time": 153.333,
      "duration": 0.208,
      "velocity": 0.26,
      "hand": "left"
    },
    {
      "midi": 60,
      "time": 153.542,
      "duration": 0.208,
      "velocity": 0.26,
      "hand": "right"
    },
    {
      "midi": 64,
      "time": 153.75,
      "duration": 0.208,
      "velocity": 0.26,
      "hand": "right"
    },
    {
      "midi": 69,
      "time": 153.958,
      "duration": 0.208,
      "velocity": 0.26,
      "hand": "right"
    },
    {
      "midi": 40,
      "time": 154.167,
      "duration": 0.208,
      "velocity": 0.26,
      "hand": "left"
    },
    {
      "midi": 71,
      "time": 154.167,
      "duration": 0.417,
      "velocity": 0.26,
      "hand": "right"
    },
    {
      "midi": 52,
      "time": 154.375,
      "duration": 0.208,
      "velocity": 0.26,
      "hand": "left"
    },
    {
      "midi": 56,
      "time": 154.583,
      "duration": 0.208,
      "velocity": 0.26,
      "hand": "left"
    },
    {
      "midi": 62,
      "time": 154.792,
      "duration": 0.208,
      "velocity": 0.26,
      "hand": "right"
    },
    {
      "midi": 72,
      "time": 155,
      "duration": 0.208,
      "velocity": 0.26,
      "hand": "right"
    },
    {
      "midi": 71,
      "time": 155.208,
      "duration": 0.208,
      "velocity": 0.26,
      "hand": "right"
    },
    {
      "midi": 33,
      "time": 155.625,
      "duration": 0.625,
      "velocity": 0.26,
      "hand": "left"
    },
    {
      "midi": 45,
      "time": 155.625,
      "duration": 0.625,
      "velocity": 0.26,
      "hand": "left"
    },
    {
      "midi": 69,
      "time": 155.625,
      "duration": 0.625,
      "velocity": 0.26,
      "hand": "right"
    }
  ],
  "arrangements": {
    "easy": [
      {
        "midi": 76,
        "time": 0,
        "duration": 0.417,
        "velocity": 0.26,
        "hand": "right"
      },
      {
        "midi": 71,
        "time": 1.042,
        "duration": 0.417,
        "velocity": 0.26,
        "hand": "right"
      },
      {
        "midi": 69,
        "time": 1.667,
        "duration": 0.417,
        "velocity": 0.26,
        "hand": "right"
      },
      {
        "midi": 60,
        "time": 2.292,
        "duration": 0.417,
        "velocity": 0.26,
        "hand": "right"
      },
      {
        "midi": 71,
        "time": 2.917,
        "duration": 0.417,
        "velocity": 0.26,
        "hand": "right"
      },
      {
        "midi": 64,
        "time": 3.542,
        "duration": 0.417,
        "velocity": 0.26,
        "hand": "right"
      },
      {
        "midi": 72,
        "time": 4.167,
        "duration": 0.417,
        "velocity": 0.26,
        "hand": "right"
      },
      {
        "midi": 64,
        "time": 4.792,
        "duration": 0.417,
        "velocity": 0.26,
        "hand": "right"
      },
      {
        "midi": 76,
        "time": 5.417,
        "duration": 0.417,
        "velocity": 0.26,
        "hand": "right"
      },
      {
        "midi": 71,
        "time": 6.042,
        "duration": 0.417,
        "velocity": 0.26,
        "hand": "right"
      },
      {
        "midi": 69,
        "time": 6.667,
        "duration": 0.417,
        "velocity": 0.26,
        "hand": "right"
      },
      {
        "midi": 60,
        "time": 7.292,
        "duration": 0.417,
        "velocity": 0.26,
        "hand": "right"
      },
      {
        "midi": 71,
        "time": 7.917,
        "duration": 0.417,
        "velocity": 0.26,
        "hand": "right"
      },
      {
        "midi": 62,
        "time": 8.542,
        "duration": 0.417,
        "velocity": 0.26,
        "hand": "right"
      },
      {
        "midi": 69,
        "time": 9.167,
        "duration": 0.833,
        "velocity": 0.26,
        "hand": "right"
      },
      {
        "midi": 76,
        "time": 10,
        "duration": 0.417,
        "velocity": 0.26,
        "hand": "right"
      },
      {
        "midi": 71,
        "time": 11.042,
        "duration": 0.417,
        "velocity": 0.26,
        "hand": "right"
      },
      {
        "midi": 69,
        "time": 11.667,
        "duration": 0.417,
        "velocity": 0.26,
        "hand": "right"
      },
      {
        "midi": 60,
        "time": 12.292,
        "duration": 0.417,
        "velocity": 0.26,
        "hand": "right"
      },
      {
        "midi": 71,
        "time": 12.917,
        "duration": 0.417,
        "velocity": 0.26,
        "hand": "right"
      },
      {
        "midi": 64,
        "time": 13.542,
        "duration": 0.417,
        "velocity": 0.26,
        "hand": "right"
      },
      {
        "midi": 72,
        "time": 14.167,
        "duration": 0.417,
        "velocity": 0.26,
        "hand": "right"
      },
      {
        "midi": 64,
        "time": 14.792,
        "duration": 0.417,
        "velocity": 0.26,
        "hand": "right"
      },
      {
        "midi": 76,
        "time": 15.417,
        "duration": 0.417,
        "velocity": 0.26,
        "hand": "right"
      },
      {
        "midi": 71,
        "time": 16.042,
        "duration": 0.417,
        "velocity": 0.26,
        "hand": "right"
      },
      {
        "midi": 69,
        "time": 16.667,
        "duration": 0.417,
        "velocity": 0.26,
        "hand": "right"
      },
      {
        "midi": 60,
        "time": 17.292,
        "duration": 0.417,
        "velocity": 0.26,
        "hand": "right"
      },
      {
        "midi": 71,
        "time": 17.917,
        "duration": 0.417,
        "velocity": 0.26,
        "hand": "right"
      },
      {
        "midi": 62,
        "time": 18.542,
        "duration": 0.417,
        "velocity": 0.26,
        "hand": "right"
      },
      {
        "midi": 69,
        "time": 19.167,
        "duration": 0.417,
        "velocity": 0.26,
        "hand": "right"
      },
      {
        "midi": 71,
        "time": 19.792,
        "duration": 0.417,
        "velocity": 0.26,
        "hand": "right"
      },
      {
        "midi": 76,
        "time": 20.417,
        "duration": 0.625,
        "velocity": 0.26,
        "hand": "right"
      },
      {
        "midi": 67,
        "time": 21.042,
        "duration": 0.417,
        "velocity": 0.26,
        "hand": "right"
      },
      {
        "midi": 74,
        "time": 21.667,
        "duration": 0.625,
        "velocity": 0.26,
        "hand": "right"
      },
      {
        "midi": 65,
        "time": 22.292,
        "duration": 0.417,
        "velocity": 0.26,
        "hand": "right"
      },
      {
        "midi": 72,
        "time": 22.917,
        "duration": 0.625,
        "velocity": 0.26,
        "hand": "right"
      },
      {
        "midi": 64,
        "time": 23.542,
        "duration": 0.417,
        "velocity": 0.26,
        "hand": "right"
      },
      {
        "midi": 71,
        "time": 24.167,
        "duration": 0.417,
        "velocity": 0.26,
        "hand": "right"
      },
      {
        "midi": 64,
        "time": 24.792,
        "duration": 0.417,
        "velocity": 0.26,
        "hand": "right"
      },
      {
        "midi": 76,
        "time": 25.417,
        "duration": 0.417,
        "velocity": 0.26,
        "hand": "right"
      },
      {
        "midi": 75,
        "time": 26.042,
        "duration": 0.417,
        "velocity": 0.26,
        "hand": "right"
      },
      {
        "midi": 76,
        "time": 26.667,
        "duration": 0.417,
        "velocity": 0.26,
        "hand": "right"
      },
      {
        "midi": 75,
        "time": 27.292,
        "duration": 0.417,
        "velocity": 0.26,
        "hand": "right"
      },
      {
        "midi": 76,
        "time": 27.917,
        "duration": 0.417,
        "velocity": 0.26,
        "hand": "right"
      },
      {
        "midi": 71,
        "time": 28.542,
        "duration": 0.417,
        "velocity": 0.26,
        "hand": "right"
      },
      {
        "midi": 69,
        "time": 29.167,
        "duration": 0.417,
        "velocity": 0.26,
        "hand": "right"
      },
      {
        "midi": 60,
        "time": 29.792,
        "duration": 0.417,
        "velocity": 0.26,
        "hand": "right"
      },
      {
        "midi": 71,
        "time": 30.417,
        "duration": 0.417,
        "velocity": 0.26,
        "hand": "right"
      },
      {
        "midi": 64,
        "time": 31.042,
        "duration": 0.417,
        "velocity": 0.26,
        "hand": "right"
      },
      {
        "midi": 72,
        "time": 31.667,
        "duration": 0.417,
        "velocity": 0.26,
        "hand": "right"
      },
      {
        "midi": 64,
        "time": 32.292,
        "duration": 0.417,
        "velocity": 0.26,
        "hand": "right"
      },
      {
        "midi": 76,
        "time": 32.917,
        "duration": 0.417,
        "velocity": 0.26,
        "hand": "right"
      },
      {
        "midi": 71,
        "time": 33.542,
        "duration": 0.417,
        "velocity": 0.26,
        "hand": "right"
      },
      {
        "midi": 69,
        "time": 34.167,
        "duration": 0.417,
        "velocity": 0.26,
        "hand": "right"
      },
      {
        "midi": 60,
        "time": 34.792,
        "duration": 0.417,
        "velocity": 0.26,
        "hand": "right"
      },
      {
        "midi": 71,
        "time": 35.417,
        "duration": 0.417,
        "velocity": 0.26,
        "hand": "right"
      },
      {
        "midi": 62,
        "time": 36.042,
        "duration": 0.417,
        "velocity": 0.26,
        "hand": "right"
      },
      {
        "midi": 69,
        "time": 36.667,
        "duration": 0.417,
        "velocity": 0.26,
        "hand": "right"
      },
      {
        "midi": 71,
        "time": 37.292,
        "duration": 0.417,
        "velocity": 0.26,
        "hand": "right"
      },
      {
        "midi": 76,
        "time": 37.917,
        "duration": 0.625,
        "velocity": 0.26,
        "hand": "right"
      },
      {
        "midi": 67,
        "time": 38.542,
        "duration": 0.417,
        "velocity": 0.26,
        "hand": "right"
      },
      {
        "midi": 74,
        "time": 39.167,
        "duration": 0.625,
        "velocity": 0.26,
        "hand": "right"
      },
      {
        "midi": 65,
        "time": 39.792,
        "duration": 0.417,
        "velocity": 0.26,
        "hand": "right"
      },
      {
        "midi": 72,
        "time": 40.417,
        "duration": 0.625,
        "velocity": 0.26,
        "hand": "right"
      },
      {
        "midi": 64,
        "time": 41.042,
        "duration": 0.417,
        "velocity": 0.26,
        "hand": "right"
      },
      {
        "midi": 71,
        "time": 41.667,
        "duration": 0.417,
        "velocity": 0.26,
        "hand": "right"
      },
      {
        "midi": 64,
        "time": 42.292,
        "duration": 0.417,
        "velocity": 0.26,
        "hand": "right"
      },
      {
        "midi": 76,
        "time": 42.917,
        "duration": 0.417,
        "velocity": 0.26,
        "hand": "right"
      },
      {
        "midi": 75,
        "time": 43.542,
        "duration": 0.417,
        "velocity": 0.26,
        "hand": "right"
      },
      {
        "midi": 76,
        "time": 44.167,
        "duration": 0.417,
        "velocity": 0.26,
        "hand": "right"
      },
      {
        "midi": 75,
        "time": 44.792,
        "duration": 0.417,
        "velocity": 0.26,
        "hand": "right"
      },
      {
        "midi": 76,
        "time": 45.417,
        "duration": 0.417,
        "velocity": 0.26,
        "hand": "right"
      },
      {
        "midi": 71,
        "time": 46.042,
        "duration": 0.417,
        "velocity": 0.26,
        "hand": "right"
      },
      {
        "midi": 69,
        "time": 46.667,
        "duration": 0.417,
        "velocity": 0.26,
        "hand": "right"
      },
      {
        "midi": 60,
        "time": 47.292,
        "duration": 0.417,
        "velocity": 0.26,
        "hand": "right"
      },
      {
        "midi": 71,
        "time": 47.917,
        "duration": 0.417,
        "velocity": 0.26,
        "hand": "right"
      },
      {
        "midi": 64,
        "time": 48.542,
        "duration": 0.417,
        "velocity": 0.26,
        "hand": "right"
      },
      {
        "midi": 72,
        "time": 49.167,
        "duration": 0.417,
        "velocity": 0.26,
        "hand": "right"
      },
      {
        "midi": 64,
        "time": 49.792,
        "duration": 0.417,
        "velocity": 0.26,
        "hand": "right"
      },
      {
        "midi": 76,
        "time": 50.417,
        "duration": 0.417,
        "velocity": 0.26,
        "hand": "right"
      },
      {
        "midi": 71,
        "time": 51.042,
        "duration": 0.417,
        "velocity": 0.26,
        "hand": "right"
      },
      {
        "midi": 69,
        "time": 51.667,
        "duration": 0.417,
        "velocity": 0.26,
        "hand": "right"
      },
      {
        "midi": 60,
        "time": 52.292,
        "duration": 0.417,
        "velocity": 0.26,
        "hand": "right"
      },
      {
        "midi": 71,
        "time": 52.917,
        "duration": 0.417,
        "velocity": 0.26,
        "hand": "right"
      },
      {
        "midi": 62,
        "time": 53.542,
        "duration": 0.417,
        "velocity": 0.26,
        "hand": "right"
      },
      {
        "midi": 69,
        "time": 54.167,
        "duration": 0.417,
        "velocity": 0.26,
        "hand": "right"
      },
      {
        "midi": 72,
        "time": 54.792,
        "duration": 0.417,
        "velocity": 0.26,
        "hand": "right"
      },
      {
        "midi": 72,
        "time": 55.625,
        "duration": 0.625,
        "velocity": 0.26,
        "hand": "right"
      },
      {
        "midi": 77,
        "time": 56.25,
        "duration": 0.417,
        "velocity": 0.26,
        "hand": "right"
      },
      {
        "midi": 76,
        "time": 56.667,
        "duration": 0.417,
        "velocity": 0.26,
        "hand": "right"
      },
      {
        "midi": 82,
        "time": 57.5,
        "duration": 0.417,
        "velocity": 0.26,
        "hand": "right"
      },
      {
        "midi": 81,
        "time": 57.917,
        "duration": 0.417,
        "velocity": 0.26,
        "hand": "right"
      },
      {
        "midi": 76,
        "time": 58.542,
        "duration": 0.417,
        "velocity": 0.26,
        "hand": "right"
      },
      {
        "midi": 70,
        "time": 59.167,
        "duration": 0.417,
        "velocity": 0.26,
        "hand": "right"
      },
      {
        "midi": 60,
        "time": 60,
        "duration": 0.417,
        "velocity": 0.26,
        "hand": "right"
      },
      {
        "midi": 72,
        "time": 60.417,
        "duration": 0.833,
        "velocity": 0.26,
        "hand": "right"
      },
      {
        "midi": 74,
        "time": 61.25,
        "duration": 0.417,
        "velocity": 0.26,
        "hand": "right"
      },
      {
        "midi": 76,
        "time": 61.667,
        "duration": 0.625,
        "velocity": 0.26,
        "hand": "right"
      },
      {
        "midi": 76,
        "time": 62.292,
        "duration": 0.417,
        "velocity": 0.26,
        "hand": "right"
      },
      {
        "midi": 72,
        "time": 62.917,
        "duration": 0.833,
        "velocity": 0.26,
        "hand": "right"
      },
      {
        "midi": 65,
        "time": 63.542,
        "duration": 0.417,
        "velocity": 0.26,
        "hand": "right"
      },
      {
        "midi": 64,
        "time": 64.167,
        "duration": 0.417,
        "velocity": 0.26,
        "hand": "right"
      },
      {
        "midi": 67,
        "time": 64.792,
        "duration": 0.417,
        "velocity": 0.26,
        "hand": "right"
      },
      {
        "midi": 67,
        "time": 65.417,
        "duration": 0.417,
        "velocity": 0.26,
        "hand": "right"
      },
      {
        "midi": 60,
        "time": 66.667,
        "duration": 0.417,
        "velocity": 0.26,
        "hand": "right"
      },
      {
        "midi": 67,
        "time": 67.292,
        "duration": 0.417,
        "velocity": 0.26,
        "hand": "right"
      },
      {
        "midi": 64,
        "time": 67.917,
        "duration": 0.417,
        "velocity": 0.26,
        "hand": "right"
      },
      {
        "midi": 76,
        "time": 70.417,
        "duration": 0.625,
        "velocity": 0.26,
        "hand": "right"
      },
      {
        "midi": 71,
        "time": 71.042,
        "duration": 0.417,
        "velocity": 0.26,
        "hand": "right"
      },
      {
        "midi": 76,
        "time": 71.667,
        "duration": 0.625,
        "velocity": 0.26,
        "hand": "right"
      },
      {
        "midi": 71,
        "time": 72.292,
        "duration": 0.417,
        "velocity": 0.26,
        "hand": "right"
      },
      {
        "midi": 76,
        "time": 72.917,
        "duration": 0.417,
        "velocity": 0.26,
        "hand": "right"
      },
      {
        "midi": 75,
        "time": 73.542,
        "duration": 0.417,
        "velocity": 0.26,
        "hand": "right"
      },
      {
        "midi": 76,
        "time": 74.167,
        "duration": 0.417,
        "velocity": 0.26,
        "hand": "right"
      },
      {
        "midi": 71,
        "time": 74.792,
        "duration": 0.417,
        "velocity": 0.26,
        "hand": "right"
      },
      {
        "midi": 69,
        "time": 75.417,
        "duration": 0.417,
        "velocity": 0.26,
        "hand": "right"
      },
      {
        "midi": 60,
        "time": 76.042,
        "duration": 0.417,
        "velocity": 0.26,
        "hand": "right"
      },
      {
        "midi": 71,
        "time": 76.667,
        "duration": 0.417,
        "velocity": 0.26,
        "hand": "right"
      },
      {
        "midi": 64,
        "time": 77.292,
        "duration": 0.417,
        "velocity": 0.26,
        "hand": "right"
      },
      {
        "midi": 72,
        "time": 77.917,
        "duration": 0.417,
        "velocity": 0.26,
        "hand": "right"
      },
      {
        "midi": 64,
        "time": 78.542,
        "duration": 0.417,
        "velocity": 0.26,
        "hand": "right"
      },
      {
        "midi": 76,
        "time": 79.167,
        "duration": 0.417,
        "velocity": 0.26,
        "hand": "right"
      },
      {
        "midi": 71,
        "time": 79.792,
        "duration": 0.417,
        "velocity": 0.26,
        "hand": "right"
      },
      {
        "midi": 69,
        "time": 80.417,
        "duration": 0.417,
        "velocity": 0.26,
        "hand": "right"
      },
      {
        "midi": 60,
        "time": 81.042,
        "duration": 0.417,
        "velocity": 0.26,
        "hand": "right"
      },
      {
        "midi": 71,
        "time": 81.667,
        "duration": 0.417,
        "velocity": 0.26,
        "hand": "right"
      },
      {
        "midi": 62,
        "time": 82.292,
        "duration": 0.417,
        "velocity": 0.26,
        "hand": "right"
      },
      {
        "midi": 69,
        "time": 82.917,
        "duration": 0.417,
        "velocity": 0.26,
        "hand": "right"
      },
      {
        "midi": 71,
        "time": 83.542,
        "duration": 0.417,
        "velocity": 0.26,
        "hand": "right"
      },
      {
        "midi": 76,
        "time": 84.167,
        "duration": 0.625,
        "velocity": 0.26,
        "hand": "right"
      },
      {
        "midi": 67,
        "time": 84.792,
        "duration": 0.417,
        "velocity": 0.26,
        "hand": "right"
      },
      {
        "midi": 74,
        "time": 85.417,
        "duration": 0.625,
        "velocity": 0.26,
        "hand": "right"
      },
      {
        "midi": 65,
        "time": 86.042,
        "duration": 0.417,
        "velocity": 0.26,
        "hand": "right"
      },
      {
        "midi": 72,
        "time": 86.667,
        "duration": 0.625,
        "velocity": 0.26,
        "hand": "right"
      },
      {
        "midi": 64,
        "time": 87.292,
        "duration": 0.417,
        "velocity": 0.26,
        "hand": "right"
      },
      {
        "midi": 71,
        "time": 87.917,
        "duration": 0.417,
        "velocity": 0.26,
        "hand": "right"
      },
      {
        "midi": 64,
        "time": 88.542,
        "duration": 0.417,
        "velocity": 0.26,
        "hand": "right"
      },
      {
        "midi": 76,
        "time": 89.167,
        "duration": 0.417,
        "velocity": 0.26,
        "hand": "right"
      },
      {
        "midi": 75,
        "time": 89.792,
        "duration": 0.417,
        "velocity": 0.26,
        "hand": "right"
      },
      {
        "midi": 76,
        "time": 90.417,
        "duration": 0.417,
        "velocity": 0.26,
        "hand": "right"
      },
      {
        "midi": 75,
        "time": 91.042,
        "duration": 0.417,
        "velocity": 0.26,
        "hand": "right"
      },
      {
        "midi": 76,
        "time": 91.667,
        "duration": 0.417,
        "velocity": 0.26,
        "hand": "right"
      },
      {
        "midi": 71,
        "time": 92.292,
        "duration": 0.417,
        "velocity": 0.26,
        "hand": "right"
      },
      {
        "midi": 69,
        "time": 92.917,
        "duration": 0.417,
        "velocity": 0.26,
        "hand": "right"
      },
      {
        "midi": 60,
        "time": 93.542,
        "duration": 0.417,
        "velocity": 0.26,
        "hand": "right"
      },
      {
        "midi": 71,
        "time": 94.167,
        "duration": 0.417,
        "velocity": 0.26,
        "hand": "right"
      },
      {
        "midi": 64,
        "time": 94.792,
        "duration": 0.417,
        "velocity": 0.26,
        "hand": "right"
      },
      {
        "midi": 72,
        "time": 95.417,
        "duration": 0.417,
        "velocity": 0.26,
        "hand": "right"
      },
      {
        "midi": 64,
        "time": 96.042,
        "duration": 0.417,
        "velocity": 0.26,
        "hand": "right"
      },
      {
        "midi": 76,
        "time": 96.667,
        "duration": 0.417,
        "velocity": 0.26,
        "hand": "right"
      },
      {
        "midi": 71,
        "time": 97.292,
        "duration": 0.417,
        "velocity": 0.26,
        "hand": "right"
      },
      {
        "midi": 69,
        "time": 97.917,
        "duration": 0.417,
        "velocity": 0.26,
        "hand": "right"
      },
      {
        "midi": 60,
        "time": 98.542,
        "duration": 0.417,
        "velocity": 0.26,
        "hand": "right"
      },
      {
        "midi": 71,
        "time": 99.167,
        "duration": 0.417,
        "velocity": 0.26,
        "hand": "right"
      },
      {
        "midi": 62,
        "time": 99.792,
        "duration": 0.417,
        "velocity": 0.26,
        "hand": "right"
      },
      {
        "midi": 69,
        "time": 100.417,
        "duration": 0.417,
        "velocity": 0.26,
        "hand": "right"
      },
      {
        "midi": 73,
        "time": 101.667,
        "duration": 1.25,
        "velocity": 0.26,
        "hand": "right"
      },
      {
        "midi": 74,
        "time": 102.917,
        "duration": 0.833,
        "velocity": 0.26,
        "hand": "right"
      },
      {
        "midi": 76,
        "time": 103.75,
        "duration": 0.417,
        "velocity": 0.26,
        "hand": "right"
      },
      {
        "midi": 77,
        "time": 104.167,
        "duration": 0.833,
        "velocity": 0.26,
        "hand": "right"
      },
      {
        "midi": 77,
        "time": 105,
        "duration": 0.417,
        "velocity": 0.26,
        "hand": "right"
      },
      {
        "midi": 76,
        "time": 105.417,
        "duration": 1.25,
        "velocity": 0.26,
        "hand": "right"
      },
      {
        "midi": 74,
        "time": 106.667,
        "duration": 0.833,
        "velocity": 0.26,
        "hand": "right"
      },
      {
        "midi": 72,
        "time": 107.5,
        "duration": 0.417,
        "velocity": 0.26,
        "hand": "right"
      },
      {
        "midi": 69,
        "time": 107.917,
        "duration": 0.833,
        "velocity": 0.26,
        "hand": "right"
      },
      {
        "midi": 69,
        "time": 108.75,
        "duration": 0.417,
        "velocity": 0.26,
        "hand": "right"
      },
      {
        "midi": 71,
        "time": 110,
        "duration": 0.417,
        "velocity": 0.26,
        "hand": "right"
      },
      {
        "midi": 69,
        "time": 110.417,
        "duration": 1.25,
        "velocity": 0.26,
        "hand": "right"
      },
      {
        "midi": 73,
        "time": 111.667,
        "duration": 1.25,
        "velocity": 0.26,
        "hand": "right"
      },
      {
        "midi": 74,
        "time": 112.917,
        "duration": 0.833,
        "velocity": 0.26,
        "hand": "right"
      },
      {
        "midi": 76,
        "time": 113.75,
        "duration": 0.417,
        "velocity": 0.26,
        "hand": "right"
      },
      {
        "midi": 77,
        "time": 114.167,
        "duration": 0.833,
        "velocity": 0.26,
        "hand": "right"
      },
      {
        "midi": 77,
        "time": 115,
        "duration": 0.417,
        "velocity": 0.26,
        "hand": "right"
      },
      {
        "midi": 75,
        "time": 116.667,
        "duration": 0.833,
        "velocity": 0.26,
        "hand": "right"
      },
      {
        "midi": 74,
        "time": 117.5,
        "duration": 0.417,
        "velocity": 0.26,
        "hand": "right"
      },
      {
        "midi": 70,
        "time": 117.917,
        "duration": 0.833,
        "velocity": 0.26,
        "hand": "right"
      },
      {
        "midi": 69,
        "time": 118.75,
        "duration": 0.417,
        "velocity": 0.26,
        "hand": "right"
      },
      {
        "midi": 68,
        "time": 119.167,
        "duration": 0.833,
        "velocity": 0.26,
        "hand": "right"
      },
      {
        "midi": 68,
        "time": 120,
        "duration": 0.417,
        "velocity": 0.26,
        "hand": "right"
      },
      {
        "midi": 69,
        "time": 120.417,
        "duration": 0.833,
        "velocity": 0.26,
        "hand": "right"
      },
      {
        "midi": 71,
        "time": 121.667,
        "duration": 0.417,
        "velocity": 0.26,
        "hand": "right"
      },
      {
        "midi": 64,
        "time": 123.125,
        "duration": 0.417,
        "velocity": 0.26,
        "hand": "right"
      },
      {
        "midi": 76,
        "time": 123.542,
        "duration": 0.417,
        "velocity": 0.26,
        "hand": "right"
      },
      {
        "midi": 69,
        "time": 124.167,
        "duration": 0.417,
        "velocity": 0.26,
        "hand": "right"
      },
      {
        "midi": 88,
        "time": 124.792,
        "duration": 0.417,
        "velocity": 0.26,
        "hand": "right"
      },
      {
        "midi": 81,
        "time": 125.417,
        "duration": 0.417,
        "velocity": 0.26,
        "hand": "right"
      },
      {
        "midi": 100,
        "time": 126.042,
        "duration": 0.417,
        "velocity": 0.26,
        "hand": "right"
      },
      {
        "midi": 94,
        "time": 126.667,
        "duration": 0.417,
        "velocity": 0.26,
        "hand": "right"
      },
      {
        "midi": 90,
        "time": 127.292,
        "duration": 0.417,
        "velocity": 0.26,
        "hand": "right"
      },
      {
        "midi": 85,
        "time": 127.917,
        "duration": 0.417,
        "velocity": 0.26,
        "hand": "right"
      },
      {
        "midi": 81,
        "time": 128.542,
        "duration": 0.417,
        "velocity": 0.26,
        "hand": "right"
      },
      {
        "midi": 76,
        "time": 129.167,
        "duration": 0.417,
        "velocity": 0.26,
        "hand": "right"
      },
      {
        "midi": 71,
        "time": 129.792,
        "duration": 0.417,
        "velocity": 0.26,
        "hand": "right"
      },
      {
        "midi": 69,
        "time": 130.417,
        "duration": 0.417,
        "velocity": 0.26,
        "hand": "right"
      },
      {
        "midi": 60,
        "time": 131.042,
        "duration": 0.417,
        "velocity": 0.26,
        "hand": "right"
      },
      {
        "midi": 71,
        "time": 131.667,
        "duration": 0.417,
        "velocity": 0.26,
        "hand": "right"
      },
      {
        "midi": 64,
        "time": 132.292,
        "duration": 0.417,
        "velocity": 0.26,
        "hand": "right"
      },
      {
        "midi": 72,
        "time": 132.917,
        "duration": 0.417,
        "velocity": 0.26,
        "hand": "right"
      },
      {
        "midi": 64,
        "time": 133.542,
        "duration": 0.417,
        "velocity": 0.26,
        "hand": "right"
      },
      {
        "midi": 76,
        "time": 134.167,
        "duration": 0.417,
        "velocity": 0.26,
        "hand": "right"
      },
      {
        "midi": 71,
        "time": 134.792,
        "duration": 0.417,
        "velocity": 0.26,
        "hand": "right"
      },
      {
        "midi": 69,
        "time": 135.417,
        "duration": 0.417,
        "velocity": 0.26,
        "hand": "right"
      },
      {
        "midi": 60,
        "time": 136.042,
        "duration": 0.417,
        "velocity": 0.26,
        "hand": "right"
      },
      {
        "midi": 71,
        "time": 136.667,
        "duration": 0.417,
        "velocity": 0.26,
        "hand": "right"
      },
      {
        "midi": 62,
        "time": 137.292,
        "duration": 0.417,
        "velocity": 0.26,
        "hand": "right"
      },
      {
        "midi": 69,
        "time": 137.917,
        "duration": 0.417,
        "velocity": 0.26,
        "hand": "right"
      },
      {
        "midi": 71,
        "time": 138.542,
        "duration": 0.417,
        "velocity": 0.26,
        "hand": "right"
      },
      {
        "midi": 76,
        "time": 139.167,
        "duration": 0.625,
        "velocity": 0.26,
        "hand": "right"
      },
      {
        "midi": 67,
        "time": 139.792,
        "duration": 0.417,
        "velocity": 0.26,
        "hand": "right"
      },
      {
        "midi": 74,
        "time": 140.417,
        "duration": 0.625,
        "velocity": 0.26,
        "hand": "right"
      },
      {
        "midi": 65,
        "time": 141.042,
        "duration": 0.417,
        "velocity": 0.26,
        "hand": "right"
      },
      {
        "midi": 72,
        "time": 141.667,
        "duration": 0.625,
        "velocity": 0.26,
        "hand": "right"
      },
      {
        "midi": 64,
        "time": 142.292,
        "duration": 0.417,
        "velocity": 0.26,
        "hand": "right"
      },
      {
        "midi": 71,
        "time": 142.917,
        "duration": 0.417,
        "velocity": 0.26,
        "hand": "right"
      },
      {
        "midi": 64,
        "time": 143.542,
        "duration": 0.417,
        "velocity": 0.26,
        "hand": "right"
      },
      {
        "midi": 76,
        "time": 144.167,
        "duration": 0.417,
        "velocity": 0.26,
        "hand": "right"
      },
      {
        "midi": 75,
        "time": 144.792,
        "duration": 0.417,
        "velocity": 0.26,
        "hand": "right"
      },
      {
        "midi": 76,
        "time": 145.417,
        "duration": 0.417,
        "velocity": 0.26,
        "hand": "right"
      },
      {
        "midi": 75,
        "time": 146.042,
        "duration": 0.417,
        "velocity": 0.26,
        "hand": "right"
      },
      {
        "midi": 76,
        "time": 146.667,
        "duration": 0.417,
        "velocity": 0.26,
        "hand": "right"
      },
      {
        "midi": 71,
        "time": 147.292,
        "duration": 0.417,
        "velocity": 0.26,
        "hand": "right"
      },
      {
        "midi": 69,
        "time": 147.917,
        "duration": 0.417,
        "velocity": 0.26,
        "hand": "right"
      },
      {
        "midi": 60,
        "time": 148.542,
        "duration": 0.417,
        "velocity": 0.26,
        "hand": "right"
      },
      {
        "midi": 71,
        "time": 149.167,
        "duration": 0.417,
        "velocity": 0.26,
        "hand": "right"
      },
      {
        "midi": 64,
        "time": 149.792,
        "duration": 0.417,
        "velocity": 0.26,
        "hand": "right"
      },
      {
        "midi": 72,
        "time": 150.417,
        "duration": 0.417,
        "velocity": 0.26,
        "hand": "right"
      },
      {
        "midi": 64,
        "time": 151.042,
        "duration": 0.417,
        "velocity": 0.26,
        "hand": "right"
      },
      {
        "midi": 76,
        "time": 151.667,
        "duration": 0.417,
        "velocity": 0.26,
        "hand": "right"
      },
      {
        "midi": 71,
        "time": 152.292,
        "duration": 0.417,
        "velocity": 0.26,
        "hand": "right"
      },
      {
        "midi": 69,
        "time": 152.917,
        "duration": 0.417,
        "velocity": 0.26,
        "hand": "right"
      },
      {
        "midi": 60,
        "time": 153.542,
        "duration": 0.417,
        "velocity": 0.26,
        "hand": "right"
      },
      {
        "midi": 71,
        "time": 154.167,
        "duration": 0.417,
        "velocity": 0.26,
        "hand": "right"
      },
      {
        "midi": 62,
        "time": 154.792,
        "duration": 0.417,
        "velocity": 0.26,
        "hand": "right"
      },
      {
        "midi": 69,
        "time": 155.625,
        "duration": 0.625,
        "velocity": 0.26,
        "hand": "right"
      }
    ],
    "medium": [
      {
        "midi": 76,
        "time": 0,
        "duration": 0.208,
        "velocity": 0.26,
        "hand": "right"
      },
      {
        "midi": 75,
        "time": 0.208,
        "duration": 0.208,
        "velocity": 0.26,
        "hand": "right"
      },
      {
        "midi": 76,
        "time": 0.417,
        "duration": 0.208,
        "velocity": 0.26,
        "hand": "right"
      },
      {
        "midi": 75,
        "time": 0.625,
        "duration": 0.208,
        "velocity": 0.26,
        "hand": "right"
      },
      {
        "midi": 76,
        "time": 0.833,
        "duration": 0.208,
        "velocity": 0.26,
        "hand": "right"
      },
      {
        "midi": 71,
        "time": 1.042,
        "duration": 0.208,
        "velocity": 0.26,
        "hand": "right"
      },
      {
        "midi": 74,
        "time": 1.25,
        "duration": 0.208,
        "velocity": 0.26,
        "hand": "right"
      },
      {
        "midi": 72,
        "time": 1.458,
        "duration": 0.208,
        "velocity": 0.26,
        "hand": "right"
      },
      {
        "midi": 45,
        "time": 1.667,
        "duration": 0.208,
        "velocity": 0.26,
        "hand": "left"
      },
      {
        "midi": 69,
        "time": 1.667,
        "duration": 0.417,
        "velocity": 0.26,
        "hand": "right"
      },
      {
        "midi": 52,
        "time": 1.875,
        "duration": 0.208,
        "velocity": 0.26,
        "hand": "left"
      },
      {
        "midi": 57,
        "time": 2.083,
        "duration": 0.208,
        "velocity": 0.26,
        "hand": "left"
      },
      {
        "midi": 60,
        "time": 2.292,
        "duration": 0.208,
        "velocity": 0.26,
        "hand": "right"
      },
      {
        "midi": 64,
        "time": 2.5,
        "duration": 0.208,
        "velocity": 0.26,
        "hand": "right"
      },
      {
        "midi": 69,
        "time": 2.708,
        "duration": 0.208,
        "velocity": 0.26,
        "hand": "right"
      },
      {
        "midi": 40,
        "time": 2.917,
        "duration": 0.208,
        "velocity": 0.26,
        "hand": "left"
      },
      {
        "midi": 71,
        "time": 2.917,
        "duration": 0.417,
        "velocity": 0.26,
        "hand": "right"
      },
      {
        "midi": 52,
        "time": 3.125,
        "duration": 0.208,
        "velocity": 0.26,
        "hand": "left"
      },
      {
        "midi": 56,
        "time": 3.333,
        "duration": 0.208,
        "velocity": 0.26,
        "hand": "left"
      },
      {
        "midi": 64,
        "time": 3.542,
        "duration": 0.208,
        "velocity": 0.26,
        "hand": "right"
      },
      {
        "midi": 68,
        "time": 3.75,
        "duration": 0.208,
        "velocity": 0.26,
        "hand": "right"
      },
      {
        "midi": 71,
        "time": 3.958,
        "duration": 0.208,
        "velocity": 0.26,
        "hand": "right"
      },
      {
        "midi": 45,
        "time": 4.167,
        "duration": 0.208,
        "velocity": 0.26,
        "hand": "left"
      },
      {
        "midi": 72,
        "time": 4.167,
        "duration": 0.417,
        "velocity": 0.26,
        "hand": "right"
      },
      {
        "midi": 52,
        "time": 4.375,
        "duration": 0.208,
        "velocity": 0.26,
        "hand": "left"
      },
      {
        "midi": 57,
        "time": 4.583,
        "duration": 0.208,
        "velocity": 0.26,
        "hand": "left"
      },
      {
        "midi": 64,
        "time": 4.792,
        "duration": 0.208,
        "velocity": 0.26,
        "hand": "right"
      },
      {
        "midi": 76,
        "time": 5,
        "duration": 0.208,
        "velocity": 0.26,
        "hand": "right"
      },
      {
        "midi": 75,
        "time": 5.208,
        "duration": 0.208,
        "velocity": 0.26,
        "hand": "right"
      },
      {
        "midi": 76,
        "time": 5.417,
        "duration": 0.208,
        "velocity": 0.26,
        "hand": "right"
      },
      {
        "midi": 75,
        "time": 5.625,
        "duration": 0.208,
        "velocity": 0.26,
        "hand": "right"
      },
      {
        "midi": 76,
        "time": 5.833,
        "duration": 0.208,
        "velocity": 0.26,
        "hand": "right"
      },
      {
        "midi": 71,
        "time": 6.042,
        "duration": 0.208,
        "velocity": 0.26,
        "hand": "right"
      },
      {
        "midi": 74,
        "time": 6.25,
        "duration": 0.208,
        "velocity": 0.26,
        "hand": "right"
      },
      {
        "midi": 72,
        "time": 6.458,
        "duration": 0.208,
        "velocity": 0.26,
        "hand": "right"
      },
      {
        "midi": 45,
        "time": 6.667,
        "duration": 0.208,
        "velocity": 0.26,
        "hand": "left"
      },
      {
        "midi": 69,
        "time": 6.667,
        "duration": 0.417,
        "velocity": 0.26,
        "hand": "right"
      },
      {
        "midi": 52,
        "time": 6.875,
        "duration": 0.208,
        "velocity": 0.26,
        "hand": "left"
      },
      {
        "midi": 57,
        "time": 7.083,
        "duration": 0.208,
        "velocity": 0.26,
        "hand": "left"
      },
      {
        "midi": 60,
        "time": 7.292,
        "duration": 0.208,
        "velocity": 0.26,
        "hand": "right"
      },
      {
        "midi": 64,
        "time": 7.5,
        "duration": 0.208,
        "velocity": 0.26,
        "hand": "right"
      },
      {
        "midi": 69,
        "time": 7.708,
        "duration": 0.208,
        "velocity": 0.26,
        "hand": "right"
      },
      {
        "midi": 40,
        "time": 7.917,
        "duration": 0.208,
        "velocity": 0.26,
        "hand": "left"
      },
      {
        "midi": 71,
        "time": 7.917,
        "duration": 0.417,
        "velocity": 0.26,
        "hand": "right"
      },
      {
        "midi": 52,
        "time": 8.125,
        "duration": 0.208,
        "velocity": 0.26,
        "hand": "left"
      },
      {
        "midi": 56,
        "time": 8.333,
        "duration": 0.208,
        "velocity": 0.26,
        "hand": "left"
      },
      {
        "midi": 62,
        "time": 8.542,
        "duration": 0.208,
        "velocity": 0.26,
        "hand": "right"
      },
      {
        "midi": 72,
        "time": 8.75,
        "duration": 0.208,
        "velocity": 0.26,
        "hand": "right"
      },
      {
        "midi": 71,
        "time": 8.958,
        "duration": 0.208,
        "velocity": 0.26,
        "hand": "right"
      },
      {
        "midi": 45,
        "time": 9.167,
        "duration": 0.208,
        "velocity": 0.26,
        "hand": "left"
      },
      {
        "midi": 69,
        "time": 9.167,
        "duration": 0.833,
        "velocity": 0.26,
        "hand": "right"
      },
      {
        "midi": 52,
        "time": 9.375,
        "duration": 0.208,
        "velocity": 0.26,
        "hand": "left"
      },
      {
        "midi": 57,
        "time": 9.583,
        "duration": 0.208,
        "velocity": 0.26,
        "hand": "left"
      },
      {
        "midi": 76,
        "time": 10,
        "duration": 0.208,
        "velocity": 0.26,
        "hand": "right"
      },
      {
        "midi": 75,
        "time": 10.208,
        "duration": 0.208,
        "velocity": 0.26,
        "hand": "right"
      },
      {
        "midi": 76,
        "time": 10.417,
        "duration": 0.208,
        "velocity": 0.26,
        "hand": "right"
      },
      {
        "midi": 75,
        "time": 10.625,
        "duration": 0.208,
        "velocity": 0.26,
        "hand": "right"
      },
      {
        "midi": 76,
        "time": 10.833,
        "duration": 0.208,
        "velocity": 0.26,
        "hand": "right"
      },
      {
        "midi": 71,
        "time": 11.042,
        "duration": 0.208,
        "velocity": 0.26,
        "hand": "right"
      },
      {
        "midi": 74,
        "time": 11.25,
        "duration": 0.208,
        "velocity": 0.26,
        "hand": "right"
      },
      {
        "midi": 72,
        "time": 11.458,
        "duration": 0.208,
        "velocity": 0.26,
        "hand": "right"
      },
      {
        "midi": 45,
        "time": 11.667,
        "duration": 0.208,
        "velocity": 0.26,
        "hand": "left"
      },
      {
        "midi": 69,
        "time": 11.667,
        "duration": 0.417,
        "velocity": 0.26,
        "hand": "right"
      },
      {
        "midi": 52,
        "time": 11.875,
        "duration": 0.208,
        "velocity": 0.26,
        "hand": "left"
      },
      {
        "midi": 57,
        "time": 12.083,
        "duration": 0.208,
        "velocity": 0.26,
        "hand": "left"
      },
      {
        "midi": 60,
        "time": 12.292,
        "duration": 0.208,
        "velocity": 0.26,
        "hand": "right"
      },
      {
        "midi": 64,
        "time": 12.5,
        "duration": 0.208,
        "velocity": 0.26,
        "hand": "right"
      },
      {
        "midi": 69,
        "time": 12.708,
        "duration": 0.208,
        "velocity": 0.26,
        "hand": "right"
      },
      {
        "midi": 40,
        "time": 12.917,
        "duration": 0.208,
        "velocity": 0.26,
        "hand": "left"
      },
      {
        "midi": 71,
        "time": 12.917,
        "duration": 0.417,
        "velocity": 0.26,
        "hand": "right"
      },
      {
        "midi": 52,
        "time": 13.125,
        "duration": 0.208,
        "velocity": 0.26,
        "hand": "left"
      },
      {
        "midi": 56,
        "time": 13.333,
        "duration": 0.208,
        "velocity": 0.26,
        "hand": "left"
      },
      {
        "midi": 64,
        "time": 13.542,
        "duration": 0.208,
        "velocity": 0.26,
        "hand": "right"
      },
      {
        "midi": 68,
        "time": 13.75,
        "duration": 0.208,
        "velocity": 0.26,
        "hand": "right"
      },
      {
        "midi": 71,
        "time": 13.958,
        "duration": 0.208,
        "velocity": 0.26,
        "hand": "right"
      },
      {
        "midi": 45,
        "time": 14.167,
        "duration": 0.208,
        "velocity": 0.26,
        "hand": "left"
      },
      {
        "midi": 72,
        "time": 14.167,
        "duration": 0.417,
        "velocity": 0.26,
        "hand": "right"
      },
      {
        "midi": 52,
        "time": 14.375,
        "duration": 0.208,
        "velocity": 0.26,
        "hand": "left"
      },
      {
        "midi": 57,
        "time": 14.583,
        "duration": 0.208,
        "velocity": 0.26,
        "hand": "left"
      },
      {
        "midi": 64,
        "time": 14.792,
        "duration": 0.208,
        "velocity": 0.26,
        "hand": "right"
      },
      {
        "midi": 76,
        "time": 15,
        "duration": 0.208,
        "velocity": 0.26,
        "hand": "right"
      },
      {
        "midi": 75,
        "time": 15.208,
        "duration": 0.208,
        "velocity": 0.26,
        "hand": "right"
      },
      {
        "midi": 76,
        "time": 15.417,
        "duration": 0.208,
        "velocity": 0.26,
        "hand": "right"
      },
      {
        "midi": 75,
        "time": 15.625,
        "duration": 0.208,
        "velocity": 0.26,
        "hand": "right"
      },
      {
        "midi": 76,
        "time": 15.833,
        "duration": 0.208,
        "velocity": 0.26,
        "hand": "right"
      },
      {
        "midi": 71,
        "time": 16.042,
        "duration": 0.208,
        "velocity": 0.26,
        "hand": "right"
      },
      {
        "midi": 74,
        "time": 16.25,
        "duration": 0.208,
        "velocity": 0.26,
        "hand": "right"
      },
      {
        "midi": 72,
        "time": 16.458,
        "duration": 0.208,
        "velocity": 0.26,
        "hand": "right"
      },
      {
        "midi": 45,
        "time": 16.667,
        "duration": 0.208,
        "velocity": 0.26,
        "hand": "left"
      },
      {
        "midi": 69,
        "time": 16.667,
        "duration": 0.417,
        "velocity": 0.26,
        "hand": "right"
      },
      {
        "midi": 52,
        "time": 16.875,
        "duration": 0.208,
        "velocity": 0.26,
        "hand": "left"
      },
      {
        "midi": 57,
        "time": 17.083,
        "duration": 0.208,
        "velocity": 0.26,
        "hand": "left"
      },
      {
        "midi": 60,
        "time": 17.292,
        "duration": 0.208,
        "velocity": 0.26,
        "hand": "right"
      },
      {
        "midi": 64,
        "time": 17.5,
        "duration": 0.208,
        "velocity": 0.26,
        "hand": "right"
      },
      {
        "midi": 69,
        "time": 17.708,
        "duration": 0.208,
        "velocity": 0.26,
        "hand": "right"
      },
      {
        "midi": 40,
        "time": 17.917,
        "duration": 0.208,
        "velocity": 0.26,
        "hand": "left"
      },
      {
        "midi": 71,
        "time": 17.917,
        "duration": 0.417,
        "velocity": 0.26,
        "hand": "right"
      },
      {
        "midi": 52,
        "time": 18.125,
        "duration": 0.208,
        "velocity": 0.26,
        "hand": "left"
      },
      {
        "midi": 56,
        "time": 18.333,
        "duration": 0.208,
        "velocity": 0.26,
        "hand": "left"
      },
      {
        "midi": 62,
        "time": 18.542,
        "duration": 0.208,
        "velocity": 0.26,
        "hand": "right"
      },
      {
        "midi": 72,
        "time": 18.75,
        "duration": 0.208,
        "velocity": 0.26,
        "hand": "right"
      },
      {
        "midi": 71,
        "time": 18.958,
        "duration": 0.208,
        "velocity": 0.26,
        "hand": "right"
      },
      {
        "midi": 45,
        "time": 19.167,
        "duration": 0.208,
        "velocity": 0.26,
        "hand": "left"
      },
      {
        "midi": 69,
        "time": 19.167,
        "duration": 0.417,
        "velocity": 0.26,
        "hand": "right"
      },
      {
        "midi": 52,
        "time": 19.375,
        "duration": 0.208,
        "velocity": 0.26,
        "hand": "left"
      },
      {
        "midi": 57,
        "time": 19.583,
        "duration": 0.208,
        "velocity": 0.26,
        "hand": "left"
      },
      {
        "midi": 71,
        "time": 19.792,
        "duration": 0.208,
        "velocity": 0.26,
        "hand": "right"
      },
      {
        "midi": 72,
        "time": 20,
        "duration": 0.208,
        "velocity": 0.26,
        "hand": "right"
      },
      {
        "midi": 74,
        "time": 20.208,
        "duration": 0.208,
        "velocity": 0.26,
        "hand": "right"
      },
      {
        "midi": 48,
        "time": 20.417,
        "duration": 0.208,
        "velocity": 0.26,
        "hand": "left"
      },
      {
        "midi": 76,
        "time": 20.417,
        "duration": 0.625,
        "velocity": 0.26,
        "hand": "right"
      },
      {
        "midi": 55,
        "time": 20.625,
        "duration": 0.208,
        "velocity": 0.26,
        "hand": "left"
      },
      {
        "midi": 60,
        "time": 20.833,
        "duration": 0.208,
        "velocity": 0.26,
        "hand": "right"
      },
      {
        "midi": 67,
        "time": 21.042,
        "duration": 0.208,
        "velocity": 0.26,
        "hand": "right"
      },
      {
        "midi": 77,
        "time": 21.25,
        "duration": 0.208,
        "velocity": 0.26,
        "hand": "right"
      },
      {
        "midi": 76,
        "time": 21.458,
        "duration": 0.208,
        "velocity": 0.26,
        "hand": "right"
      },
      {
        "midi": 43,
        "time": 21.667,
        "duration": 0.208,
        "velocity": 0.26,
        "hand": "left"
      },
      {
        "midi": 74,
        "time": 21.667,
        "duration": 0.625,
        "velocity": 0.26,
        "hand": "right"
      },
      {
        "midi": 55,
        "time": 21.875,
        "duration": 0.208,
        "velocity": 0.26,
        "hand": "left"
      },
      {
        "midi": 59,
        "time": 22.083,
        "duration": 0.208,
        "velocity": 0.26,
        "hand": "left"
      },
      {
        "midi": 65,
        "time": 22.292,
        "duration": 0.208,
        "velocity": 0.26,
        "hand": "right"
      },
      {
        "midi": 76,
        "time": 22.5,
        "duration": 0.208,
        "velocity": 0.26,
        "hand": "right"
      },
      {
        "midi": 74,
        "time": 22.708,
        "duration": 0.208,
        "velocity": 0.26,
        "hand": "right"
      },
      {
        "midi": 45,
        "time": 22.917,
        "duration": 0.208,
        "velocity": 0.26,
        "hand": "left"
      },
      {
        "midi": 72,
        "time": 22.917,
        "duration": 0.625,
        "velocity": 0.26,
        "hand": "right"
      },
      {
        "midi": 52,
        "time": 23.125,
        "duration": 0.208,
        "velocity": 0.26,
        "hand": "left"
      },
      {
        "midi": 57,
        "time": 23.333,
        "duration": 0.208,
        "velocity": 0.26,
        "hand": "left"
      },
      {
        "midi": 64,
        "time": 23.542,
        "duration": 0.208,
        "velocity": 0.26,
        "hand": "right"
      },
      {
        "midi": 74,
        "time": 23.75,
        "duration": 0.208,
        "velocity": 0.26,
        "hand": "right"
      },
      {
        "midi": 72,
        "time": 23.958,
        "duration": 0.208,
        "velocity": 0.26,
        "hand": "right"
      },
      {
        "midi": 40,
        "time": 24.167,
        "duration": 0.208,
        "velocity": 0.26,
        "hand": "left"
      },
      {
        "midi": 71,
        "time": 24.167,
        "duration": 0.417,
        "velocity": 0.26,
        "hand": "right"
      },
      {
        "midi": 52,
        "time": 24.375,
        "duration": 0.208,
        "velocity": 0.26,
        "hand": "left"
      },
      {
        "midi": 64,
        "time": 24.583,
        "duration": 0.208,
        "velocity": 0.26,
        "hand": "right"
      },
      {
        "midi": 64,
        "time": 24.792,
        "duration": 0.208,
        "velocity": 0.26,
        "hand": "right"
      },
      {
        "midi": 76,
        "time": 25,
        "duration": 0.208,
        "velocity": 0.26,
        "hand": "right"
      },
      {
        "midi": 64,
        "time": 25.208,
        "duration": 0.208,
        "velocity": 0.26,
        "hand": "right"
      },
      {
        "midi": 76,
        "time": 25.417,
        "duration": 0.208,
        "velocity": 0.26,
        "hand": "right"
      },
      {
        "midi": 76,
        "time": 25.625,
        "duration": 0.208,
        "velocity": 0.26,
        "hand": "right"
      },
      {
        "midi": 88,
        "time": 25.833,
        "duration": 0.208,
        "velocity": 0.26,
        "hand": "right"
      },
      {
        "midi": 75,
        "time": 26.042,
        "duration": 0.208,
        "velocity": 0.26,
        "hand": "right"
      },
      {
        "midi": 76,
        "time": 26.25,
        "duration": 0.208,
        "velocity": 0.26,
        "hand": "right"
      },
      {
        "midi": 75,
        "time": 26.458,
        "duration": 0.208,
        "velocity": 0.26,
        "hand": "right"
      },
      {
        "midi": 76,
        "time": 26.667,
        "duration": 0.417,
        "velocity": 0.26,
        "hand": "right"
      },
      {
        "midi": 75,
        "time": 26.875,
        "duration": 0.208,
        "velocity": 0.26,
        "hand": "right"
      },
      {
        "midi": 76,
        "time": 27.083,
        "duration": 0.208,
        "velocity": 0.26,
        "hand": "right"
      },
      {
        "midi": 75,
        "time": 27.292,
        "duration": 0.208,
        "velocity": 0.26,
        "hand": "right"
      },
      {
        "midi": 76,
        "time": 27.5,
        "duration": 0.208,
        "velocity": 0.26,
        "hand": "right"
      },
      {
        "midi": 75,
        "time": 27.708,
        "duration": 0.208,
        "velocity": 0.26,
        "hand": "right"
      },
      {
        "midi": 76,
        "time": 27.917,
        "duration": 0.208,
        "velocity": 0.26,
        "hand": "right"
      },
      {
        "midi": 75,
        "time": 28.125,
        "duration": 0.208,
        "velocity": 0.26,
        "hand": "right"
      },
      {
        "midi": 76,
        "time": 28.333,
        "duration": 0.208,
        "velocity": 0.26,
        "hand": "right"
      },
      {
        "midi": 71,
        "time": 28.542,
        "duration": 0.208,
        "velocity": 0.26,
        "hand": "right"
      },
      {
        "midi": 74,
        "time": 28.75,
        "duration": 0.208,
        "velocity": 0.26,
        "hand": "right"
      },
      {
        "midi": 72,
        "time": 28.958,
        "duration": 0.208,
        "velocity": 0.26,
        "hand": "right"
      },
      {
        "midi": 45,
        "time": 29.167,
        "duration": 0.208,
        "velocity": 0.26,
        "hand": "left"
      },
      {
        "midi": 69,
        "time": 29.167,
        "duration": 0.417,
        "velocity": 0.26,
        "hand": "right"
      },
      {
        "midi": 52,
        "time": 29.375,
        "duration": 0.208,
        "velocity": 0.26,
        "hand": "left"
      },
      {
        "midi": 57,
        "time": 29.583,
        "duration": 0.208,
        "velocity": 0.26,
        "hand": "left"
      },
      {
        "midi": 60,
        "time": 29.792,
        "duration": 0.208,
        "velocity": 0.26,
        "hand": "right"
      },
      {
        "midi": 64,
        "time": 30,
        "duration": 0.208,
        "velocity": 0.26,
        "hand": "right"
      },
      {
        "midi": 69,
        "time": 30.208,
        "duration": 0.208,
        "velocity": 0.26,
        "hand": "right"
      },
      {
        "midi": 40,
        "time": 30.417,
        "duration": 0.208,
        "velocity": 0.26,
        "hand": "left"
      },
      {
        "midi": 71,
        "time": 30.417,
        "duration": 0.417,
        "velocity": 0.26,
        "hand": "right"
      },
      {
        "midi": 52,
        "time": 30.625,
        "duration": 0.208,
        "velocity": 0.26,
        "hand": "left"
      },
      {
        "midi": 56,
        "time": 30.833,
        "duration": 0.208,
        "velocity": 0.26,
        "hand": "left"
      },
      {
        "midi": 64,
        "time": 31.042,
        "duration": 0.208,
        "velocity": 0.26,
        "hand": "right"
      },
      {
        "midi": 68,
        "time": 31.25,
        "duration": 0.208,
        "velocity": 0.26,
        "hand": "right"
      },
      {
        "midi": 71,
        "time": 31.458,
        "duration": 0.208,
        "velocity": 0.26,
        "hand": "right"
      },
      {
        "midi": 45,
        "time": 31.667,
        "duration": 0.208,
        "velocity": 0.26,
        "hand": "left"
      },
      {
        "midi": 72,
        "time": 31.667,
        "duration": 0.417,
        "velocity": 0.26,
        "hand": "right"
      },
      {
        "midi": 52,
        "time": 31.875,
        "duration": 0.208,
        "velocity": 0.26,
        "hand": "left"
      },
      {
        "midi": 57,
        "time": 32.083,
        "duration": 0.208,
        "velocity": 0.26,
        "hand": "left"
      },
      {
        "midi": 64,
        "time": 32.292,
        "duration": 0.208,
        "velocity": 0.26,
        "hand": "right"
      },
      {
        "midi": 76,
        "time": 32.5,
        "duration": 0.208,
        "velocity": 0.26,
        "hand": "right"
      },
      {
        "midi": 75,
        "time": 32.708,
        "duration": 0.208,
        "velocity": 0.26,
        "hand": "right"
      },
      {
        "midi": 76,
        "time": 32.917,
        "duration": 0.208,
        "velocity": 0.26,
        "hand": "right"
      },
      {
        "midi": 75,
        "time": 33.125,
        "duration": 0.208,
        "velocity": 0.26,
        "hand": "right"
      },
      {
        "midi": 76,
        "time": 33.333,
        "duration": 0.208,
        "velocity": 0.26,
        "hand": "right"
      },
      {
        "midi": 71,
        "time": 33.542,
        "duration": 0.208,
        "velocity": 0.26,
        "hand": "right"
      },
      {
        "midi": 74,
        "time": 33.75,
        "duration": 0.208,
        "velocity": 0.26,
        "hand": "right"
      },
      {
        "midi": 72,
        "time": 33.958,
        "duration": 0.208,
        "velocity": 0.26,
        "hand": "right"
      },
      {
        "midi": 45,
        "time": 34.167,
        "duration": 0.208,
        "velocity": 0.26,
        "hand": "left"
      },
      {
        "midi": 69,
        "time": 34.167,
        "duration": 0.417,
        "velocity": 0.26,
        "hand": "right"
      },
      {
        "midi": 52,
        "time": 34.375,
        "duration": 0.208,
        "velocity": 0.26,
        "hand": "left"
      },
      {
        "midi": 57,
        "time": 34.583,
        "duration": 0.208,
        "velocity": 0.26,
        "hand": "left"
      },
      {
        "midi": 60,
        "time": 34.792,
        "duration": 0.208,
        "velocity": 0.26,
        "hand": "right"
      },
      {
        "midi": 64,
        "time": 35,
        "duration": 0.208,
        "velocity": 0.26,
        "hand": "right"
      },
      {
        "midi": 69,
        "time": 35.208,
        "duration": 0.208,
        "velocity": 0.26,
        "hand": "right"
      },
      {
        "midi": 40,
        "time": 35.417,
        "duration": 0.208,
        "velocity": 0.26,
        "hand": "left"
      },
      {
        "midi": 71,
        "time": 35.417,
        "duration": 0.417,
        "velocity": 0.26,
        "hand": "right"
      },
      {
        "midi": 52,
        "time": 35.625,
        "duration": 0.208,
        "velocity": 0.26,
        "hand": "left"
      },
      {
        "midi": 56,
        "time": 35.833,
        "duration": 0.208,
        "velocity": 0.26,
        "hand": "left"
      },
      {
        "midi": 62,
        "time": 36.042,
        "duration": 0.208,
        "velocity": 0.26,
        "hand": "right"
      },
      {
        "midi": 72,
        "time": 36.25,
        "duration": 0.208,
        "velocity": 0.26,
        "hand": "right"
      },
      {
        "midi": 71,
        "time": 36.458,
        "duration": 0.208,
        "velocity": 0.26,
        "hand": "right"
      },
      {
        "midi": 45,
        "time": 36.667,
        "duration": 0.208,
        "velocity": 0.26,
        "hand": "left"
      },
      {
        "midi": 69,
        "time": 36.667,
        "duration": 0.417,
        "velocity": 0.26,
        "hand": "right"
      },
      {
        "midi": 52,
        "time": 36.875,
        "duration": 0.208,
        "velocity": 0.26,
        "hand": "left"
      },
      {
        "midi": 57,
        "time": 37.083,
        "duration": 0.208,
        "velocity": 0.26,
        "hand": "left"
      },
      {
        "midi": 71,
        "time": 37.292,
        "duration": 0.208,
        "velocity": 0.26,
        "hand": "right"
      },
      {
        "midi": 72,
        "time": 37.5,
        "duration": 0.208,
        "velocity": 0.26,
        "hand": "right"
      },
      {
        "midi": 74,
        "time": 37.708,
        "duration": 0.208,
        "velocity": 0.26,
        "hand": "right"
      },
      {
        "midi": 48,
        "time": 37.917,
        "duration": 0.208,
        "velocity": 0.26,
        "hand": "left"
      },
      {
        "midi": 76,
        "time": 37.917,
        "duration": 0.625,
        "velocity": 0.26,
        "hand": "right"
      },
      {
        "midi": 55,
        "time": 38.125,
        "duration": 0.208,
        "velocity": 0.26,
        "hand": "left"
      },
      {
        "midi": 60,
        "time": 38.333,
        "duration": 0.208,
        "velocity": 0.26,
        "hand": "right"
      },
      {
        "midi": 67,
        "time": 38.542,
        "duration": 0.208,
        "velocity": 0.26,
        "hand": "right"
      },
      {
        "midi": 77,
        "time": 38.75,
        "duration": 0.208,
        "velocity": 0.26,
        "hand": "right"
      },
      {
        "midi": 76,
        "time": 38.958,
        "duration": 0.208,
        "velocity": 0.26,
        "hand": "right"
      },
      {
        "midi": 43,
        "time": 39.167,
        "duration": 0.208,
        "velocity": 0.26,
        "hand": "left"
      },
      {
        "midi": 74,
        "time": 39.167,
        "duration": 0.625,
        "velocity": 0.26,
        "hand": "right"
      },
      {
        "midi": 55,
        "time": 39.375,
        "duration": 0.208,
        "velocity": 0.26,
        "hand": "left"
      },
      {
        "midi": 59,
        "time": 39.583,
        "duration": 0.208,
        "velocity": 0.26,
        "hand": "left"
      },
      {
        "midi": 65,
        "time": 39.792,
        "duration": 0.208,
        "velocity": 0.26,
        "hand": "right"
      },
      {
        "midi": 76,
        "time": 40,
        "duration": 0.208,
        "velocity": 0.26,
        "hand": "right"
      },
      {
        "midi": 74,
        "time": 40.208,
        "duration": 0.208,
        "velocity": 0.26,
        "hand": "right"
      },
      {
        "midi": 45,
        "time": 40.417,
        "duration": 0.208,
        "velocity": 0.26,
        "hand": "left"
      },
      {
        "midi": 72,
        "time": 40.417,
        "duration": 0.625,
        "velocity": 0.26,
        "hand": "right"
      },
      {
        "midi": 52,
        "time": 40.625,
        "duration": 0.208,
        "velocity": 0.26,
        "hand": "left"
      },
      {
        "midi": 57,
        "time": 40.833,
        "duration": 0.208,
        "velocity": 0.26,
        "hand": "left"
      },
      {
        "midi": 64,
        "time": 41.042,
        "duration": 0.208,
        "velocity": 0.26,
        "hand": "right"
      },
      {
        "midi": 74,
        "time": 41.25,
        "duration": 0.208,
        "velocity": 0.26,
        "hand": "right"
      },
      {
        "midi": 72,
        "time": 41.458,
        "duration": 0.208,
        "velocity": 0.26,
        "hand": "right"
      },
      {
        "midi": 40,
        "time": 41.667,
        "duration": 0.208,
        "velocity": 0.26,
        "hand": "left"
      },
      {
        "midi": 71,
        "time": 41.667,
        "duration": 0.417,
        "velocity": 0.26,
        "hand": "right"
      },
      {
        "midi": 52,
        "time": 41.875,
        "duration": 0.208,
        "velocity": 0.26,
        "hand": "left"
      },
      {
        "midi": 64,
        "time": 42.083,
        "duration": 0.208,
        "velocity": 0.26,
        "hand": "right"
      },
      {
        "midi": 64,
        "time": 42.292,
        "duration": 0.208,
        "velocity": 0.26,
        "hand": "right"
      },
      {
        "midi": 76,
        "time": 42.5,
        "duration": 0.208,
        "velocity": 0.26,
        "hand": "right"
      },
      {
        "midi": 64,
        "time": 42.708,
        "duration": 0.208,
        "velocity": 0.26,
        "hand": "right"
      },
      {
        "midi": 76,
        "time": 42.917,
        "duration": 0.208,
        "velocity": 0.26,
        "hand": "right"
      },
      {
        "midi": 76,
        "time": 43.125,
        "duration": 0.208,
        "velocity": 0.26,
        "hand": "right"
      },
      {
        "midi": 88,
        "time": 43.333,
        "duration": 0.208,
        "velocity": 0.26,
        "hand": "right"
      },
      {
        "midi": 75,
        "time": 43.542,
        "duration": 0.208,
        "velocity": 0.26,
        "hand": "right"
      },
      {
        "midi": 76,
        "time": 43.75,
        "duration": 0.208,
        "velocity": 0.26,
        "hand": "right"
      },
      {
        "midi": 75,
        "time": 43.958,
        "duration": 0.208,
        "velocity": 0.26,
        "hand": "right"
      },
      {
        "midi": 76,
        "time": 44.167,
        "duration": 0.417,
        "velocity": 0.26,
        "hand": "right"
      },
      {
        "midi": 75,
        "time": 44.375,
        "duration": 0.208,
        "velocity": 0.26,
        "hand": "right"
      },
      {
        "midi": 76,
        "time": 44.583,
        "duration": 0.208,
        "velocity": 0.26,
        "hand": "right"
      },
      {
        "midi": 75,
        "time": 44.792,
        "duration": 0.208,
        "velocity": 0.26,
        "hand": "right"
      },
      {
        "midi": 76,
        "time": 45,
        "duration": 0.208,
        "velocity": 0.26,
        "hand": "right"
      },
      {
        "midi": 75,
        "time": 45.208,
        "duration": 0.208,
        "velocity": 0.26,
        "hand": "right"
      },
      {
        "midi": 76,
        "time": 45.417,
        "duration": 0.208,
        "velocity": 0.26,
        "hand": "right"
      },
      {
        "midi": 75,
        "time": 45.625,
        "duration": 0.208,
        "velocity": 0.26,
        "hand": "right"
      },
      {
        "midi": 76,
        "time": 45.833,
        "duration": 0.208,
        "velocity": 0.26,
        "hand": "right"
      },
      {
        "midi": 71,
        "time": 46.042,
        "duration": 0.208,
        "velocity": 0.26,
        "hand": "right"
      },
      {
        "midi": 74,
        "time": 46.25,
        "duration": 0.208,
        "velocity": 0.26,
        "hand": "right"
      },
      {
        "midi": 72,
        "time": 46.458,
        "duration": 0.208,
        "velocity": 0.26,
        "hand": "right"
      },
      {
        "midi": 45,
        "time": 46.667,
        "duration": 0.208,
        "velocity": 0.26,
        "hand": "left"
      },
      {
        "midi": 69,
        "time": 46.667,
        "duration": 0.417,
        "velocity": 0.26,
        "hand": "right"
      },
      {
        "midi": 52,
        "time": 46.875,
        "duration": 0.208,
        "velocity": 0.26,
        "hand": "left"
      },
      {
        "midi": 57,
        "time": 47.083,
        "duration": 0.208,
        "velocity": 0.26,
        "hand": "left"
      },
      {
        "midi": 60,
        "time": 47.292,
        "duration": 0.208,
        "velocity": 0.26,
        "hand": "right"
      },
      {
        "midi": 64,
        "time": 47.5,
        "duration": 0.208,
        "velocity": 0.26,
        "hand": "right"
      },
      {
        "midi": 69,
        "time": 47.708,
        "duration": 0.208,
        "velocity": 0.26,
        "hand": "right"
      },
      {
        "midi": 40,
        "time": 47.917,
        "duration": 0.208,
        "velocity": 0.26,
        "hand": "left"
      },
      {
        "midi": 71,
        "time": 47.917,
        "duration": 0.417,
        "velocity": 0.26,
        "hand": "right"
      },
      {
        "midi": 52,
        "time": 48.125,
        "duration": 0.208,
        "velocity": 0.26,
        "hand": "left"
      },
      {
        "midi": 56,
        "time": 48.333,
        "duration": 0.208,
        "velocity": 0.26,
        "hand": "left"
      },
      {
        "midi": 64,
        "time": 48.542,
        "duration": 0.208,
        "velocity": 0.26,
        "hand": "right"
      },
      {
        "midi": 68,
        "time": 48.75,
        "duration": 0.208,
        "velocity": 0.26,
        "hand": "right"
      },
      {
        "midi": 71,
        "time": 48.958,
        "duration": 0.208,
        "velocity": 0.26,
        "hand": "right"
      },
      {
        "midi": 45,
        "time": 49.167,
        "duration": 0.208,
        "velocity": 0.26,
        "hand": "left"
      },
      {
        "midi": 72,
        "time": 49.167,
        "duration": 0.417,
        "velocity": 0.26,
        "hand": "right"
      },
      {
        "midi": 52,
        "time": 49.375,
        "duration": 0.208,
        "velocity": 0.26,
        "hand": "left"
      },
      {
        "midi": 57,
        "time": 49.583,
        "duration": 0.208,
        "velocity": 0.26,
        "hand": "left"
      },
      {
        "midi": 64,
        "time": 49.792,
        "duration": 0.208,
        "velocity": 0.26,
        "hand": "right"
      },
      {
        "midi": 76,
        "time": 50,
        "duration": 0.208,
        "velocity": 0.26,
        "hand": "right"
      },
      {
        "midi": 75,
        "time": 50.208,
        "duration": 0.208,
        "velocity": 0.26,
        "hand": "right"
      },
      {
        "midi": 76,
        "time": 50.417,
        "duration": 0.208,
        "velocity": 0.26,
        "hand": "right"
      },
      {
        "midi": 75,
        "time": 50.625,
        "duration": 0.208,
        "velocity": 0.26,
        "hand": "right"
      },
      {
        "midi": 76,
        "time": 50.833,
        "duration": 0.208,
        "velocity": 0.26,
        "hand": "right"
      },
      {
        "midi": 71,
        "time": 51.042,
        "duration": 0.208,
        "velocity": 0.26,
        "hand": "right"
      },
      {
        "midi": 74,
        "time": 51.25,
        "duration": 0.208,
        "velocity": 0.26,
        "hand": "right"
      },
      {
        "midi": 72,
        "time": 51.458,
        "duration": 0.208,
        "velocity": 0.26,
        "hand": "right"
      },
      {
        "midi": 45,
        "time": 51.667,
        "duration": 0.208,
        "velocity": 0.26,
        "hand": "left"
      },
      {
        "midi": 69,
        "time": 51.667,
        "duration": 0.417,
        "velocity": 0.26,
        "hand": "right"
      },
      {
        "midi": 52,
        "time": 51.875,
        "duration": 0.208,
        "velocity": 0.26,
        "hand": "left"
      },
      {
        "midi": 57,
        "time": 52.083,
        "duration": 0.208,
        "velocity": 0.26,
        "hand": "left"
      },
      {
        "midi": 60,
        "time": 52.292,
        "duration": 0.208,
        "velocity": 0.26,
        "hand": "right"
      },
      {
        "midi": 64,
        "time": 52.5,
        "duration": 0.208,
        "velocity": 0.26,
        "hand": "right"
      },
      {
        "midi": 69,
        "time": 52.708,
        "duration": 0.208,
        "velocity": 0.26,
        "hand": "right"
      },
      {
        "midi": 40,
        "time": 52.917,
        "duration": 0.208,
        "velocity": 0.26,
        "hand": "left"
      },
      {
        "midi": 71,
        "time": 52.917,
        "duration": 0.417,
        "velocity": 0.26,
        "hand": "right"
      },
      {
        "midi": 52,
        "time": 53.125,
        "duration": 0.208,
        "velocity": 0.26,
        "hand": "left"
      },
      {
        "midi": 56,
        "time": 53.333,
        "duration": 0.208,
        "velocity": 0.26,
        "hand": "left"
      },
      {
        "midi": 62,
        "time": 53.542,
        "duration": 0.208,
        "velocity": 0.26,
        "hand": "right"
      },
      {
        "midi": 72,
        "time": 53.75,
        "duration": 0.208,
        "velocity": 0.26,
        "hand": "right"
      },
      {
        "midi": 71,
        "time": 53.958,
        "duration": 0.208,
        "velocity": 0.26,
        "hand": "right"
      },
      {
        "midi": 45,
        "time": 54.167,
        "duration": 0.208,
        "velocity": 0.26,
        "hand": "left"
      },
      {
        "midi": 69,
        "time": 54.167,
        "duration": 0.417,
        "velocity": 0.26,
        "hand": "right"
      },
      {
        "midi": 52,
        "time": 54.375,
        "duration": 0.208,
        "velocity": 0.26,
        "hand": "left"
      },
      {
        "midi": 57,
        "time": 54.583,
        "duration": 0.208,
        "velocity": 0.26,
        "hand": "left"
      },
      {
        "midi": 58,
        "time": 54.792,
        "duration": 0.208,
        "velocity": 0.26,
        "hand": "left"
      },
      {
        "midi": 64,
        "time": 54.792,
        "duration": 0.208,
        "velocity": 0.26,
        "hand": "right"
      },
      {
        "midi": 72,
        "time": 54.792,
        "duration": 0.208,
        "velocity": 0.26,
        "hand": "right"
      },
      {
        "midi": 57,
        "time": 55,
        "duration": 0.208,
        "velocity": 0.26,
        "hand": "left"
      },
      {
        "midi": 65,
        "time": 55,
        "duration": 0.208,
        "velocity": 0.26,
        "hand": "right"
      },
      {
        "midi": 72,
        "time": 55,
        "duration": 0.208,
        "velocity": 0.26,
        "hand": "right"
      },
      {
        "midi": 55,
        "time": 55.208,
        "duration": 0.208,
        "velocity": 0.26,
        "hand": "left"
      },
      {
        "midi": 64,
        "time": 55.208,
        "duration": 0.208,
        "velocity": 0.26,
        "hand": "right"
      },
      {
        "midi": 72,
        "time": 55.208,
        "duration": 0.208,
        "velocity": 0.26,
        "hand": "right"
      },
      {
        "midi": 53,
        "time": 55.417,
        "duration": 0.208,
        "velocity": 0.26,
        "hand": "left"
      },
      {
        "midi": 57,
        "time": 55.625,
        "duration": 0.208,
        "velocity": 0.26,
        "hand": "left"
      },
      {
        "midi": 72,
        "time": 55.625,
        "duration": 0.625,
        "velocity": 0.26,
        "hand": "right"
      },
      {
        "midi": 60,
        "time": 55.833,
        "duration": 0.208,
        "velocity": 0.26,
        "hand": "right"
      },
      {
        "midi": 57,
        "time": 56.042,
        "duration": 0.208,
        "velocity": 0.26,
        "hand": "left"
      },
      {
        "midi": 60,
        "time": 56.25,
        "duration": 0.208,
        "velocity": 0.26,
        "hand": "right"
      },
      {
        "midi": 77,
        "time": 56.25,
        "duration": 0.208,
        "velocity": 0.26,
        "hand": "right"
      },
      {
        "midi": 57,
        "time": 56.458,
        "duration": 0.208,
        "velocity": 0.26,
        "hand": "left"
      },
      {
        "midi": 53,
        "time": 56.667,
        "duration": 0.208,
        "velocity": 0.26,
        "hand": "left"
      },
      {
        "midi": 76,
        "time": 56.667,
        "duration": 0.417,
        "velocity": 0.26,
        "hand": "right"
      },
      {
        "midi": 58,
        "time": 56.875,
        "duration": 0.208,
        "velocity": 0.26,
        "hand": "left"
      },
      {
        "midi": 62,
        "time": 57.083,
        "duration": 0.208,
        "velocity": 0.26,
        "hand": "right"
      },
      {
        "midi": 74,
        "time": 57.083,
        "duration": 0.417,
        "velocity": 0.26,
        "hand": "right"
      },
      {
        "midi": 58,
        "time": 57.292,
        "duration": 0.208,
        "velocity": 0.26,
        "hand": "left"
      },
      {
        "midi": 62,
        "time": 57.5,
        "duration": 0.208,
        "velocity": 0.26,
        "hand": "right"
      },
      {
        "midi": 82,
        "time": 57.5,
        "duration": 0.208,
        "velocity": 0.26,
        "hand": "right"
      },
      {
        "midi": 58,
        "time": 57.708,
        "duration": 0.208,
        "velocity": 0.26,
        "hand": "left"
      },
      {
        "midi": 53,
        "time": 57.917,
        "duration": 0.208,
        "velocity": 0.26,
        "hand": "left"
      },
      {
        "midi": 81,
        "time": 57.917,
        "duration": 0.208,
        "velocity": 0.26,
        "hand": "right"
      },
      {
        "midi": 64,
        "time": 58.125,
        "duration": 0.208,
        "velocity": 0.26,
        "hand": "right"
      },
      {
        "midi": 79,
        "time": 58.125,
        "duration": 0.208,
        "velocity": 0.26,
        "hand": "right"
      },
      {
        "midi": 53,
        "time": 58.333,
        "duration": 0.208,
        "velocity": 0.26,
        "hand": "left"
      },
      {
        "midi": 58,
        "time": 58.333,
        "duration": 0.208,
        "velocity": 0.26,
        "hand": "left"
      },
      {
        "midi": 77,
        "time": 58.333,
        "duration": 0.208,
        "velocity": 0.26,
        "hand": "right"
      },
      {
        "midi": 64,
        "time": 58.542,
        "duration": 0.208,
        "velocity": 0.26,
        "hand": "right"
      },
      {
        "midi": 76,
        "time": 58.542,
        "duration": 0.208,
        "velocity": 0.26,
        "hand": "right"
      },
      {
        "midi": 53,
        "time": 58.75,
        "duration": 0.208,
        "velocity": 0.26,
        "hand": "left"
      },
      {
        "midi": 58,
        "time": 58.75,
        "duration": 0.208,
        "velocity": 0.26,
        "hand": "left"
      },
      {
        "midi": 74,
        "time": 58.75,
        "duration": 0.208,
        "velocity": 0.26,
        "hand": "right"
      },
      {
        "midi": 64,
        "time": 58.958,
        "duration": 0.208,
        "velocity": 0.26,
        "hand": "right"
      },
      {
        "midi": 72,
        "time": 58.958,
        "duration": 0.208,
        "velocity": 0.26,
        "hand": "right"
      },
      {
        "midi": 53,
        "time": 59.167,
        "duration": 0.208,
        "velocity": 0.26,
        "hand": "left"
      },
      {
        "midi": 70,
        "time": 59.167,
        "duration": 0.417,
        "velocity": 0.26,
        "hand": "right"
      },
      {
        "midi": 57,
        "time": 59.375,
        "duration": 0.208,
        "velocity": 0.26,
        "hand": "left"
      },
      {
        "midi": 60,
        "time": 59.583,
        "duration": 0.208,
        "velocity": 0.26,
        "hand": "right"
      },
      {
        "midi": 69,
        "time": 59.583,
        "duration": 0.417,
        "velocity": 0.26,
        "hand": "right"
      },
      {
        "midi": 57,
        "time": 59.792,
        "duration": 0.208,
        "velocity": 0.26,
        "hand": "left"
      },
      {
        "midi": 60,
        "time": 60,
        "duration": 0.208,
        "velocity": 0.26,
        "hand": "right"
      },
      {
        "midi": 57,
        "time": 60.208,
        "duration": 0.208,
        "velocity": 0.26,
        "hand": "left"
      },
      {
        "midi": 53,
        "time": 60.417,
        "duration": 0.208,
        "velocity": 0.26,
        "hand": "left"
      },
      {
        "midi": 72,
        "time": 60.417,
        "duration": 0.833,
        "velocity": 0.26,
        "hand": "right"
      },
      {
        "midi": 57,
        "time": 60.625,
        "duration": 0.208,
        "velocity": 0.26,
        "hand": "left"
      },
      {
        "midi": 60,
        "time": 60.833,
        "duration": 0.208,
        "velocity": 0.26,
        "hand": "right"
      },
      {
        "midi": 57,
        "time": 61.042,
        "duration": 0.208,
        "velocity": 0.26,
        "hand": "left"
      },
      {
        "midi": 60,
        "time": 61.25,
        "duration": 0.208,
        "velocity": 0.26,
        "hand": "right"
      },
      {
        "midi": 74,
        "time": 61.25,
        "duration": 0.208,
        "velocity": 0.26,
        "hand": "right"
      },
      {
        "midi": 57,
        "time": 61.458,
        "duration": 0.208,
        "velocity": 0.26,
        "hand": "left"
      },
      {
        "midi": 75,
        "time": 61.458,
        "duration": 0.208,
        "velocity": 0.26,
        "hand": "right"
      },
      {
        "midi": 52,
        "time": 61.667,
        "duration": 0.208,
        "velocity": 0.26,
        "hand": "left"
      },
      {
        "midi": 76,
        "time": 61.667,
        "duration": 0.625,
        "velocity": 0.26,
        "hand": "right"
      },
      {
        "midi": 57,
        "time": 61.875,
        "duration": 0.208,
        "velocity": 0.26,
        "hand": "left"
      },
      {
        "midi": 60,
        "time": 62.083,
        "duration": 0.208,
        "velocity": 0.26,
        "hand": "right"
      },
      {
        "midi": 57,
        "time": 62.292,
        "duration": 0.208,
        "velocity": 0.26,
        "hand": "left"
      },
      {
        "midi": 76,
        "time": 62.292,
        "duration": 0.208,
        "velocity": 0.26,
        "hand": "right"
      },
      {
        "midi": 50,
        "time": 62.5,
        "duration": 0.208,
        "velocity": 0.26,
        "hand": "left"
      },
      {
        "midi": 62,
        "time": 62.5,
        "duration": 0.208,
        "velocity": 0.26,
        "hand": "right"
      },
      {
        "midi": 77,
        "time": 62.5,
        "duration": 0.208,
        "velocity": 0.26,
        "hand": "right"
      },
      {
        "midi": 53,
        "time": 62.708,
        "duration": 0.208,
        "velocity": 0.26,
        "hand": "left"
      },
      {
        "midi": 69,
        "time": 62.708,
        "duration": 0.208,
        "velocity": 0.26,
        "hand": "right"
      },
      {
        "midi": 55,
        "time": 62.917,
        "duration": 0.208,
        "velocity": 0.26,
        "hand": "left"
      },
      {
        "midi": 72,
        "time": 62.917,
        "duration": 0.833,
        "velocity": 0.26,
        "hand": "right"
      },
      {
        "midi": 64,
        "time": 63.125,
        "duration": 0.208,
        "velocity": 0.26,
        "hand": "right"
      },
      {
        "midi": 55,
        "time": 63.333,
        "duration": 0.208,
        "velocity": 0.26,
        "hand": "left"
      },
      {
        "midi": 65,
        "time": 63.542,
        "duration": 0.208,
        "velocity": 0.26,
        "hand": "right"
      },
      {
        "midi": 55,
        "time": 63.75,
        "duration": 0.208,
        "velocity": 0.26,
        "hand": "left"
      },
      {
        "midi": 74,
        "time": 63.75,
        "duration": 0.208,
        "velocity": 0.26,
        "hand": "right"
      },
      {
        "midi": 65,
        "time": 63.958,
        "duration": 0.208,
        "velocity": 0.26,
        "hand": "right"
      },
      {
        "midi": 60,
        "time": 64.167,
        "duration": 0.417,
        "velocity": 0.26,
        "hand": "right"
      },
      {
        "midi": 64,
        "time": 64.167,
        "duration": 0.417,
        "velocity": 0.26,
        "hand": "right"
      },
      {
        "midi": 65,
        "time": 64.792,
        "duration": 0.208,
        "velocity": 0.26,
        "hand": "right"
      },
      {
        "midi": 67,
        "time": 64.792,
        "duration": 0.208,
        "velocity": 0.26,
        "hand": "right"
      },
      {
        "midi": 64,
        "time": 65,
        "duration": 0.208,
        "velocity": 0.26,
        "hand": "right"
      },
      {
        "midi": 67,
        "time": 65,
        "duration": 0.208,
        "velocity": 0.26,
        "hand": "right"
      },
      {
        "midi": 62,
        "time": 65.208,
        "duration": 0.208,
        "velocity": 0.26,
        "hand": "right"
      },
      {
        "midi": 65,
        "time": 65.208,
        "duration": 0.208,
        "velocity": 0.26,
        "hand": "right"
      },
      {
        "midi": 67,
        "time": 65.208,
        "duration": 0.208,
        "velocity": 0.26,
        "hand": "right"
      },
      {
        "midi": 60,
        "time": 65.417,
        "duration": 0.417,
        "velocity": 0.26,
        "hand": "right"
      },
      {
        "midi": 64,
        "time": 65.417,
        "duration": 0.417,
        "velocity": 0.26,
        "hand": "right"
      },
      {
        "midi": 67,
        "time": 65.417,
        "duration": 0.417,
        "velocity": 0.26,
        "hand": "right"
      },
      {
        "midi": 53,
        "time": 65.833,
        "duration": 0.417,
        "velocity": 0.26,
        "hand": "left"
      },
      {
        "midi": 57,
        "time": 65.833,
        "duration": 0.417,
        "velocity": 0.26,
        "hand": "left"
      },
      {
        "midi": 55,
        "time": 66.25,
        "duration": 0.417,
        "velocity": 0.26,
        "hand": "left"
      },
      {
        "midi": 59,
        "time": 66.25,
        "duration": 0.417,
        "velocity": 0.26,
        "hand": "left"
      },
      {
        "midi": 60,
        "time": 66.667,
        "duration": 0.417,
        "velocity": 0.26,
        "hand": "right"
      },
      {
        "midi": 65,
        "time": 67.292,
        "duration": 0.208,
        "velocity": 0.26,
        "hand": "right"
      },
      {
        "midi": 67,
        "time": 67.292,
        "duration": 0.208,
        "velocity": 0.26,
        "hand": "right"
      },
      {
        "midi": 64,
        "time": 67.5,
        "duration": 0.208,
        "velocity": 0.26,
        "hand": "right"
      },
      {
        "midi": 67,
        "time": 67.5,
        "duration": 0.208,
        "velocity": 0.26,
        "hand": "right"
      },
      {
        "midi": 62,
        "time": 67.708,
        "duration": 0.208,
        "velocity": 0.26,
        "hand": "right"
      },
      {
        "midi": 65,
        "time": 67.708,
        "duration": 0.208,
        "velocity": 0.26,
        "hand": "right"
      },
      {
        "midi": 67,
        "time": 67.708,
        "duration": 0.208,
        "velocity": 0.26,
        "hand": "right"
      },
      {
        "midi": 60,
        "time": 67.917,
        "duration": 0.417,
        "velocity": 0.26,
        "hand": "right"
      },
      {
        "midi": 64,
        "time": 67.917,
        "duration": 0.417,
        "velocity": 0.26,
        "hand": "right"
      },
      {
        "midi": 53,
        "time": 68.333,
        "duration": 0.417,
        "velocity": 0.26,
        "hand": "left"
      },
      {
        "midi": 57,
        "time": 68.333,
        "duration": 0.417,
        "velocity": 0.26,
        "hand": "left"
      },
      {
        "midi": 55,
        "time": 68.75,
        "duration": 0.417,
        "velocity": 0.26,
        "hand": "left"
      },
      {
        "midi": 59,
        "time": 68.75,
        "duration": 0.417,
        "velocity": 0.26,
        "hand": "left"
      },
      {
        "midi": 56,
        "time": 69.167,
        "duration": 0.417,
        "velocity": 0.26,
        "hand": "left"
      },
      {
        "midi": 59,
        "time": 69.167,
        "duration": 0.417,
        "velocity": 0.26,
        "hand": "left"
      },
      {
        "midi": 76,
        "time": 70.417,
        "duration": 0.625,
        "velocity": 0.26,
        "hand": "right"
      },
      {
        "midi": 71,
        "time": 71.042,
        "duration": 0.208,
        "velocity": 0.26,
        "hand": "right"
      },
      {
        "midi": 76,
        "time": 71.25,
        "duration": 0.208,
        "velocity": 0.26,
        "hand": "right"
      },
      {
        "midi": 75,
        "time": 71.458,
        "duration": 0.208,
        "velocity": 0.26,
        "hand": "right"
      },
      {
        "midi": 76,
        "time": 71.667,
        "duration": 0.625,
        "velocity": 0.26,
        "hand": "right"
      },
      {
        "midi": 71,
        "time": 72.292,
        "duration": 0.208,
        "velocity": 0.26,
        "hand": "right"
      },
      {
        "midi": 76,
        "time": 72.5,
        "duration": 0.208,
        "velocity": 0.26,
        "hand": "right"
      },
      {
        "midi": 75,
        "time": 72.708,
        "duration": 0.208,
        "velocity": 0.26,
        "hand": "right"
      },
      {
        "midi": 76,
        "time": 72.917,
        "duration": 0.208,
        "velocity": 0.26,
        "hand": "right"
      },
      {
        "midi": 75,
        "time": 73.125,
        "duration": 0.208,
        "velocity": 0.26,
        "hand": "right"
      },
      {
        "midi": 76,
        "time": 73.333,
        "duration": 0.208,
        "velocity": 0.26,
        "hand": "right"
      },
      {
        "midi": 75,
        "time": 73.542,
        "duration": 0.208,
        "velocity": 0.26,
        "hand": "right"
      },
      {
        "midi": 76,
        "time": 73.75,
        "duration": 0.208,
        "velocity": 0.26,
        "hand": "right"
      },
      {
        "midi": 75,
        "time": 73.958,
        "duration": 0.208,
        "velocity": 0.26,
        "hand": "right"
      },
      {
        "midi": 76,
        "time": 74.167,
        "duration": 0.208,
        "velocity": 0.26,
        "hand": "right"
      },
      {
        "midi": 75,
        "time": 74.375,
        "duration": 0.208,
        "velocity": 0.26,
        "hand": "right"
      },
      {
        "midi": 76,
        "time": 74.583,
        "duration": 0.208,
        "velocity": 0.26,
        "hand": "right"
      },
      {
        "midi": 71,
        "time": 74.792,
        "duration": 0.208,
        "velocity": 0.26,
        "hand": "right"
      },
      {
        "midi": 74,
        "time": 75,
        "duration": 0.208,
        "velocity": 0.26,
        "hand": "right"
      },
      {
        "midi": 72,
        "time": 75.208,
        "duration": 0.208,
        "velocity": 0.26,
        "hand": "right"
      },
      {
        "midi": 45,
        "time": 75.417,
        "duration": 0.208,
        "velocity": 0.26,
        "hand": "left"
      },
      {
        "midi": 69,
        "time": 75.417,
        "duration": 0.417,
        "velocity": 0.26,
        "hand": "right"
      },
      {
        "midi": 52,
        "time": 75.625,
        "duration": 0.208,
        "velocity": 0.26,
        "hand": "left"
      },
      {
        "midi": 57,
        "time": 75.833,
        "duration": 0.208,
        "velocity": 0.26,
        "hand": "left"
      },
      {
        "midi": 60,
        "time": 76.042,
        "duration": 0.208,
        "velocity": 0.26,
        "hand": "right"
      },
      {
        "midi": 64,
        "time": 76.25,
        "duration": 0.208,
        "velocity": 0.26,
        "hand": "right"
      },
      {
        "midi": 69,
        "time": 76.458,
        "duration": 0.208,
        "velocity": 0.26,
        "hand": "right"
      },
      {
        "midi": 40,
        "time": 76.667,
        "duration": 0.208,
        "velocity": 0.26,
        "hand": "left"
      },
      {
        "midi": 71,
        "time": 76.667,
        "duration": 0.417,
        "velocity": 0.26,
        "hand": "right"
      },
      {
        "midi": 52,
        "time": 76.875,
        "duration": 0.208,
        "velocity": 0.26,
        "hand": "left"
      },
      {
        "midi": 56,
        "time": 77.083,
        "duration": 0.208,
        "velocity": 0.26,
        "hand": "left"
      },
      {
        "midi": 64,
        "time": 77.292,
        "duration": 0.208,
        "velocity": 0.26,
        "hand": "right"
      },
      {
        "midi": 68,
        "time": 77.5,
        "duration": 0.208,
        "velocity": 0.26,
        "hand": "right"
      },
      {
        "midi": 71,
        "time": 77.708,
        "duration": 0.208,
        "velocity": 0.26,
        "hand": "right"
      },
      {
        "midi": 45,
        "time": 77.917,
        "duration": 0.208,
        "velocity": 0.26,
        "hand": "left"
      },
      {
        "midi": 72,
        "time": 77.917,
        "duration": 0.417,
        "velocity": 0.26,
        "hand": "right"
      },
      {
        "midi": 52,
        "time": 78.125,
        "duration": 0.208,
        "velocity": 0.26,
        "hand": "left"
      },
      {
        "midi": 57,
        "time": 78.333,
        "duration": 0.208,
        "velocity": 0.26,
        "hand": "left"
      },
      {
        "midi": 64,
        "time": 78.542,
        "duration": 0.208,
        "velocity": 0.26,
        "hand": "right"
      },
      {
        "midi": 76,
        "time": 78.75,
        "duration": 0.208,
        "velocity": 0.26,
        "hand": "right"
      },
      {
        "midi": 75,
        "time": 78.958,
        "duration": 0.208,
        "velocity": 0.26,
        "hand": "right"
      },
      {
        "midi": 76,
        "time": 79.167,
        "duration": 0.208,
        "velocity": 0.26,
        "hand": "right"
      },
      {
        "midi": 75,
        "time": 79.375,
        "duration": 0.208,
        "velocity": 0.26,
        "hand": "right"
      },
      {
        "midi": 76,
        "time": 79.583,
        "duration": 0.208,
        "velocity": 0.26,
        "hand": "right"
      },
      {
        "midi": 71,
        "time": 79.792,
        "duration": 0.208,
        "velocity": 0.26,
        "hand": "right"
      },
      {
        "midi": 74,
        "time": 80,
        "duration": 0.208,
        "velocity": 0.26,
        "hand": "right"
      },
      {
        "midi": 72,
        "time": 80.208,
        "duration": 0.208,
        "velocity": 0.26,
        "hand": "right"
      },
      {
        "midi": 45,
        "time": 80.417,
        "duration": 0.208,
        "velocity": 0.26,
        "hand": "left"
      },
      {
        "midi": 69,
        "time": 80.417,
        "duration": 0.417,
        "velocity": 0.26,
        "hand": "right"
      },
      {
        "midi": 52,
        "time": 80.625,
        "duration": 0.208,
        "velocity": 0.26,
        "hand": "left"
      },
      {
        "midi": 57,
        "time": 80.833,
        "duration": 0.208,
        "velocity": 0.26,
        "hand": "left"
      },
      {
        "midi": 60,
        "time": 81.042,
        "duration": 0.208,
        "velocity": 0.26,
        "hand": "right"
      },
      {
        "midi": 64,
        "time": 81.25,
        "duration": 0.208,
        "velocity": 0.26,
        "hand": "right"
      },
      {
        "midi": 69,
        "time": 81.458,
        "duration": 0.208,
        "velocity": 0.26,
        "hand": "right"
      },
      {
        "midi": 40,
        "time": 81.667,
        "duration": 0.208,
        "velocity": 0.26,
        "hand": "left"
      },
      {
        "midi": 71,
        "time": 81.667,
        "duration": 0.417,
        "velocity": 0.26,
        "hand": "right"
      },
      {
        "midi": 52,
        "time": 81.875,
        "duration": 0.208,
        "velocity": 0.26,
        "hand": "left"
      },
      {
        "midi": 56,
        "time": 82.083,
        "duration": 0.208,
        "velocity": 0.26,
        "hand": "left"
      },
      {
        "midi": 62,
        "time": 82.292,
        "duration": 0.208,
        "velocity": 0.26,
        "hand": "right"
      },
      {
        "midi": 72,
        "time": 82.5,
        "duration": 0.208,
        "velocity": 0.26,
        "hand": "right"
      },
      {
        "midi": 71,
        "time": 82.708,
        "duration": 0.208,
        "velocity": 0.26,
        "hand": "right"
      },
      {
        "midi": 45,
        "time": 82.917,
        "duration": 0.208,
        "velocity": 0.26,
        "hand": "left"
      },
      {
        "midi": 69,
        "time": 82.917,
        "duration": 0.417,
        "velocity": 0.26,
        "hand": "right"
      },
      {
        "midi": 52,
        "time": 83.125,
        "duration": 0.208,
        "velocity": 0.26,
        "hand": "left"
      },
      {
        "midi": 57,
        "time": 83.333,
        "duration": 0.208,
        "velocity": 0.26,
        "hand": "left"
      },
      {
        "midi": 71,
        "time": 83.542,
        "duration": 0.208,
        "velocity": 0.26,
        "hand": "right"
      },
      {
        "midi": 72,
        "time": 83.75,
        "duration": 0.208,
        "velocity": 0.26,
        "hand": "right"
      },
      {
        "midi": 74,
        "time": 83.958,
        "duration": 0.208,
        "velocity": 0.26,
        "hand": "right"
      },
      {
        "midi": 48,
        "time": 84.167,
        "duration": 0.208,
        "velocity": 0.26,
        "hand": "left"
      },
      {
        "midi": 76,
        "time": 84.167,
        "duration": 0.625,
        "velocity": 0.26,
        "hand": "right"
      },
      {
        "midi": 55,
        "time": 84.375,
        "duration": 0.208,
        "velocity": 0.26,
        "hand": "left"
      },
      {
        "midi": 60,
        "time": 84.583,
        "duration": 0.208,
        "velocity": 0.26,
        "hand": "right"
      },
      {
        "midi": 67,
        "time": 84.792,
        "duration": 0.208,
        "velocity": 0.26,
        "hand": "right"
      },
      {
        "midi": 77,
        "time": 85,
        "duration": 0.208,
        "velocity": 0.26,
        "hand": "right"
      },
      {
        "midi": 76,
        "time": 85.208,
        "duration": 0.208,
        "velocity": 0.26,
        "hand": "right"
      },
      {
        "midi": 43,
        "time": 85.417,
        "duration": 0.208,
        "velocity": 0.26,
        "hand": "left"
      },
      {
        "midi": 74,
        "time": 85.417,
        "duration": 0.625,
        "velocity": 0.26,
        "hand": "right"
      },
      {
        "midi": 55,
        "time": 85.625,
        "duration": 0.208,
        "velocity": 0.26,
        "hand": "left"
      },
      {
        "midi": 59,
        "time": 85.833,
        "duration": 0.208,
        "velocity": 0.26,
        "hand": "left"
      },
      {
        "midi": 65,
        "time": 86.042,
        "duration": 0.208,
        "velocity": 0.26,
        "hand": "right"
      },
      {
        "midi": 76,
        "time": 86.25,
        "duration": 0.208,
        "velocity": 0.26,
        "hand": "right"
      },
      {
        "midi": 74,
        "time": 86.458,
        "duration": 0.208,
        "velocity": 0.26,
        "hand": "right"
      },
      {
        "midi": 45,
        "time": 86.667,
        "duration": 0.208,
        "velocity": 0.26,
        "hand": "left"
      },
      {
        "midi": 72,
        "time": 86.667,
        "duration": 0.625,
        "velocity": 0.26,
        "hand": "right"
      },
      {
        "midi": 52,
        "time": 86.875,
        "duration": 0.208,
        "velocity": 0.26,
        "hand": "left"
      },
      {
        "midi": 57,
        "time": 87.083,
        "duration": 0.208,
        "velocity": 0.26,
        "hand": "left"
      },
      {
        "midi": 64,
        "time": 87.292,
        "duration": 0.208,
        "velocity": 0.26,
        "hand": "right"
      },
      {
        "midi": 74,
        "time": 87.5,
        "duration": 0.208,
        "velocity": 0.26,
        "hand": "right"
      },
      {
        "midi": 72,
        "time": 87.708,
        "duration": 0.208,
        "velocity": 0.26,
        "hand": "right"
      },
      {
        "midi": 40,
        "time": 87.917,
        "duration": 0.208,
        "velocity": 0.26,
        "hand": "left"
      },
      {
        "midi": 71,
        "time": 87.917,
        "duration": 0.417,
        "velocity": 0.26,
        "hand": "right"
      },
      {
        "midi": 52,
        "time": 88.125,
        "duration": 0.208,
        "velocity": 0.26,
        "hand": "left"
      },
      {
        "midi": 64,
        "time": 88.333,
        "duration": 0.208,
        "velocity": 0.26,
        "hand": "right"
      },
      {
        "midi": 64,
        "time": 88.542,
        "duration": 0.208,
        "velocity": 0.26,
        "hand": "right"
      },
      {
        "midi": 76,
        "time": 88.75,
        "duration": 0.208,
        "velocity": 0.26,
        "hand": "right"
      },
      {
        "midi": 64,
        "time": 88.958,
        "duration": 0.208,
        "velocity": 0.26,
        "hand": "right"
      },
      {
        "midi": 76,
        "time": 89.167,
        "duration": 0.208,
        "velocity": 0.26,
        "hand": "right"
      },
      {
        "midi": 76,
        "time": 89.375,
        "duration": 0.208,
        "velocity": 0.26,
        "hand": "right"
      },
      {
        "midi": 88,
        "time": 89.583,
        "duration": 0.208,
        "velocity": 0.26,
        "hand": "right"
      },
      {
        "midi": 75,
        "time": 89.792,
        "duration": 0.208,
        "velocity": 0.26,
        "hand": "right"
      },
      {
        "midi": 76,
        "time": 90,
        "duration": 0.208,
        "velocity": 0.26,
        "hand": "right"
      },
      {
        "midi": 75,
        "time": 90.208,
        "duration": 0.208,
        "velocity": 0.26,
        "hand": "right"
      },
      {
        "midi": 76,
        "time": 90.417,
        "duration": 0.417,
        "velocity": 0.26,
        "hand": "right"
      },
      {
        "midi": 75,
        "time": 90.625,
        "duration": 0.208,
        "velocity": 0.26,
        "hand": "right"
      },
      {
        "midi": 76,
        "time": 90.833,
        "duration": 0.208,
        "velocity": 0.26,
        "hand": "right"
      },
      {
        "midi": 75,
        "time": 91.042,
        "duration": 0.208,
        "velocity": 0.26,
        "hand": "right"
      },
      {
        "midi": 76,
        "time": 91.25,
        "duration": 0.208,
        "velocity": 0.26,
        "hand": "right"
      },
      {
        "midi": 75,
        "time": 91.458,
        "duration": 0.208,
        "velocity": 0.26,
        "hand": "right"
      },
      {
        "midi": 76,
        "time": 91.667,
        "duration": 0.208,
        "velocity": 0.26,
        "hand": "right"
      },
      {
        "midi": 75,
        "time": 91.875,
        "duration": 0.208,
        "velocity": 0.26,
        "hand": "right"
      },
      {
        "midi": 76,
        "time": 92.083,
        "duration": 0.208,
        "velocity": 0.26,
        "hand": "right"
      },
      {
        "midi": 71,
        "time": 92.292,
        "duration": 0.208,
        "velocity": 0.26,
        "hand": "right"
      },
      {
        "midi": 74,
        "time": 92.5,
        "duration": 0.208,
        "velocity": 0.26,
        "hand": "right"
      },
      {
        "midi": 72,
        "time": 92.708,
        "duration": 0.208,
        "velocity": 0.26,
        "hand": "right"
      },
      {
        "midi": 45,
        "time": 92.917,
        "duration": 0.208,
        "velocity": 0.26,
        "hand": "left"
      },
      {
        "midi": 69,
        "time": 92.917,
        "duration": 0.417,
        "velocity": 0.26,
        "hand": "right"
      },
      {
        "midi": 52,
        "time": 93.125,
        "duration": 0.208,
        "velocity": 0.26,
        "hand": "left"
      },
      {
        "midi": 57,
        "time": 93.333,
        "duration": 0.208,
        "velocity": 0.26,
        "hand": "left"
      },
      {
        "midi": 60,
        "time": 93.542,
        "duration": 0.208,
        "velocity": 0.26,
        "hand": "right"
      },
      {
        "midi": 64,
        "time": 93.75,
        "duration": 0.208,
        "velocity": 0.26,
        "hand": "right"
      },
      {
        "midi": 69,
        "time": 93.958,
        "duration": 0.208,
        "velocity": 0.26,
        "hand": "right"
      },
      {
        "midi": 40,
        "time": 94.167,
        "duration": 0.208,
        "velocity": 0.26,
        "hand": "left"
      },
      {
        "midi": 71,
        "time": 94.167,
        "duration": 0.417,
        "velocity": 0.26,
        "hand": "right"
      },
      {
        "midi": 52,
        "time": 94.375,
        "duration": 0.208,
        "velocity": 0.26,
        "hand": "left"
      },
      {
        "midi": 56,
        "time": 94.583,
        "duration": 0.208,
        "velocity": 0.26,
        "hand": "left"
      },
      {
        "midi": 64,
        "time": 94.792,
        "duration": 0.208,
        "velocity": 0.26,
        "hand": "right"
      },
      {
        "midi": 68,
        "time": 95,
        "duration": 0.208,
        "velocity": 0.26,
        "hand": "right"
      },
      {
        "midi": 71,
        "time": 95.208,
        "duration": 0.208,
        "velocity": 0.26,
        "hand": "right"
      },
      {
        "midi": 45,
        "time": 95.417,
        "duration": 0.208,
        "velocity": 0.26,
        "hand": "left"
      },
      {
        "midi": 72,
        "time": 95.417,
        "duration": 0.417,
        "velocity": 0.26,
        "hand": "right"
      },
      {
        "midi": 52,
        "time": 95.625,
        "duration": 0.208,
        "velocity": 0.26,
        "hand": "left"
      },
      {
        "midi": 57,
        "time": 95.833,
        "duration": 0.208,
        "velocity": 0.26,
        "hand": "left"
      },
      {
        "midi": 64,
        "time": 96.042,
        "duration": 0.208,
        "velocity": 0.26,
        "hand": "right"
      },
      {
        "midi": 76,
        "time": 96.25,
        "duration": 0.208,
        "velocity": 0.26,
        "hand": "right"
      },
      {
        "midi": 75,
        "time": 96.458,
        "duration": 0.208,
        "velocity": 0.26,
        "hand": "right"
      },
      {
        "midi": 76,
        "time": 96.667,
        "duration": 0.208,
        "velocity": 0.26,
        "hand": "right"
      },
      {
        "midi": 75,
        "time": 96.875,
        "duration": 0.208,
        "velocity": 0.26,
        "hand": "right"
      },
      {
        "midi": 76,
        "time": 97.083,
        "duration": 0.208,
        "velocity": 0.26,
        "hand": "right"
      },
      {
        "midi": 71,
        "time": 97.292,
        "duration": 0.208,
        "velocity": 0.26,
        "hand": "right"
      },
      {
        "midi": 74,
        "time": 97.5,
        "duration": 0.208,
        "velocity": 0.26,
        "hand": "right"
      },
      {
        "midi": 72,
        "time": 97.708,
        "duration": 0.208,
        "velocity": 0.26,
        "hand": "right"
      },
      {
        "midi": 45,
        "time": 97.917,
        "duration": 0.208,
        "velocity": 0.26,
        "hand": "left"
      },
      {
        "midi": 69,
        "time": 97.917,
        "duration": 0.417,
        "velocity": 0.26,
        "hand": "right"
      },
      {
        "midi": 52,
        "time": 98.125,
        "duration": 0.208,
        "velocity": 0.26,
        "hand": "left"
      },
      {
        "midi": 57,
        "time": 98.333,
        "duration": 0.208,
        "velocity": 0.26,
        "hand": "left"
      },
      {
        "midi": 60,
        "time": 98.542,
        "duration": 0.208,
        "velocity": 0.26,
        "hand": "right"
      },
      {
        "midi": 64,
        "time": 98.75,
        "duration": 0.208,
        "velocity": 0.26,
        "hand": "right"
      },
      {
        "midi": 69,
        "time": 98.958,
        "duration": 0.208,
        "velocity": 0.26,
        "hand": "right"
      },
      {
        "midi": 40,
        "time": 99.167,
        "duration": 0.208,
        "velocity": 0.26,
        "hand": "left"
      },
      {
        "midi": 71,
        "time": 99.167,
        "duration": 0.417,
        "velocity": 0.26,
        "hand": "right"
      },
      {
        "midi": 52,
        "time": 99.375,
        "duration": 0.208,
        "velocity": 0.26,
        "hand": "left"
      },
      {
        "midi": 56,
        "time": 99.583,
        "duration": 0.208,
        "velocity": 0.26,
        "hand": "left"
      },
      {
        "midi": 62,
        "time": 99.792,
        "duration": 0.208,
        "velocity": 0.26,
        "hand": "right"
      },
      {
        "midi": 72,
        "time": 100,
        "duration": 0.208,
        "velocity": 0.26,
        "hand": "right"
      },
      {
        "midi": 71,
        "time": 100.208,
        "duration": 0.208,
        "velocity": 0.26,
        "hand": "right"
      },
      {
        "midi": 45,
        "time": 100.417,
        "duration": 0.208,
        "velocity": 0.26,
        "hand": "left"
      },
      {
        "midi": 69,
        "time": 100.417,
        "duration": 0.417,
        "velocity": 0.26,
        "hand": "right"
      },
      {
        "midi": 45,
        "time": 100.625,
        "duration": 0.208,
        "velocity": 0.26,
        "hand": "left"
      },
      {
        "midi": 45,
        "time": 100.833,
        "duration": 0.208,
        "velocity": 0.26,
        "hand": "left"
      },
      {
        "midi": 45,
        "time": 101.042,
        "duration": 0.208,
        "velocity": 0.26,
        "hand": "left"
      },
      {
        "midi": 45,
        "time": 101.25,
        "duration": 0.208,
        "velocity": 0.26,
        "hand": "left"
      },
      {
        "midi": 45,
        "time": 101.458,
        "duration": 0.208,
        "velocity": 0.26,
        "hand": "left"
      },
      {
        "midi": 45,
        "time": 101.667,
        "duration": 0.208,
        "velocity": 0.26,
        "hand": "left"
      },
      {
        "midi": 67,
        "time": 101.667,
        "duration": 1.25,
        "velocity": 0.26,
        "hand": "right"
      },
      {
        "midi": 73,
        "time": 101.667,
        "duration": 1.25,
        "velocity": 0.26,
        "hand": "right"
      },
      {
        "midi": 45,
        "time": 101.875,
        "duration": 0.208,
        "velocity": 0.26,
        "hand": "left"
      },
      {
        "midi": 45,
        "time": 102.083,
        "duration": 0.208,
        "velocity": 0.26,
        "hand": "left"
      },
      {
        "midi": 45,
        "time": 102.292,
        "duration": 0.208,
        "velocity": 0.26,
        "hand": "left"
      },
      {
        "midi": 45,
        "time": 102.5,
        "duration": 0.208,
        "velocity": 0.26,
        "hand": "left"
      },
      {
        "midi": 45,
        "time": 102.708,
        "duration": 0.208,
        "velocity": 0.26,
        "hand": "left"
      },
      {
        "midi": 45,
        "time": 102.917,
        "duration": 0.208,
        "velocity": 0.26,
        "hand": "left"
      },
      {
        "midi": 69,
        "time": 102.917,
        "duration": 0.833,
        "velocity": 0.26,
        "hand": "right"
      },
      {
        "midi": 74,
        "time": 102.917,
        "duration": 0.833,
        "velocity": 0.26,
        "hand": "right"
      },
      {
        "midi": 45,
        "time": 103.125,
        "duration": 0.208,
        "velocity": 0.26,
        "hand": "left"
      },
      {
        "midi": 45,
        "time": 103.333,
        "duration": 0.208,
        "velocity": 0.26,
        "hand": "left"
      },
      {
        "midi": 45,
        "time": 103.542,
        "duration": 0.208,
        "velocity": 0.26,
        "hand": "left"
      },
      {
        "midi": 45,
        "time": 103.75,
        "duration": 0.208,
        "velocity": 0.26,
        "hand": "left"
      },
      {
        "midi": 73,
        "time": 103.75,
        "duration": 0.208,
        "velocity": 0.26,
        "hand": "right"
      },
      {
        "midi": 76,
        "time": 103.75,
        "duration": 0.208,
        "velocity": 0.26,
        "hand": "right"
      },
      {
        "midi": 45,
        "time": 103.958,
        "duration": 0.208,
        "velocity": 0.26,
        "hand": "left"
      },
      {
        "midi": 74,
        "time": 103.958,
        "duration": 0.208,
        "velocity": 0.26,
        "hand": "right"
      },
      {
        "midi": 77,
        "time": 103.958,
        "duration": 0.208,
        "velocity": 0.26,
        "hand": "right"
      },
      {
        "midi": 45,
        "time": 104.167,
        "duration": 0.208,
        "velocity": 0.26,
        "hand": "left"
      },
      {
        "midi": 74,
        "time": 104.167,
        "duration": 0.833,
        "velocity": 0.26,
        "hand": "right"
      },
      {
        "midi": 77,
        "time": 104.167,
        "duration": 0.833,
        "velocity": 0.26,
        "hand": "right"
      },
      {
        "midi": 45,
        "time": 104.375,
        "duration": 0.208,
        "velocity": 0.26,
        "hand": "left"
      },
      {
        "midi": 45,
        "time": 104.583,
        "duration": 0.208,
        "velocity": 0.26,
        "hand": "left"
      },
      {
        "midi": 45,
        "time": 104.792,
        "duration": 0.208,
        "velocity": 0.26,
        "hand": "left"
      },
      {
        "midi": 45,
        "time": 105,
        "duration": 0.208,
        "velocity": 0.26,
        "hand": "left"
      },
      {
        "midi": 74,
        "time": 105,
        "duration": 0.417,
        "velocity": 0.26,
        "hand": "right"
      },
      {
        "midi": 77,
        "time": 105,
        "duration": 0.417,
        "velocity": 0.26,
        "hand": "right"
      },
      {
        "midi": 45,
        "time": 105.208,
        "duration": 0.208,
        "velocity": 0.26,
        "hand": "left"
      },
      {
        "midi": 45,
        "time": 105.417,
        "duration": 0.208,
        "velocity": 0.26,
        "hand": "left"
      },
      {
        "midi": 72,
        "time": 105.417,
        "duration": 1.25,
        "velocity": 0.26,
        "hand": "right"
      },
      {
        "midi": 76,
        "time": 105.417,
        "duration": 1.25,
        "velocity": 0.26,
        "hand": "right"
      },
      {
        "midi": 45,
        "time": 105.625,
        "duration": 0.208,
        "velocity": 0.26,
        "hand": "left"
      },
      {
        "midi": 45,
        "time": 105.833,
        "duration": 0.208,
        "velocity": 0.26,
        "hand": "left"
      },
      {
        "midi": 45,
        "time": 106.042,
        "duration": 0.208,
        "velocity": 0.26,
        "hand": "left"
      },
      {
        "midi": 45,
        "time": 106.25,
        "duration": 0.208,
        "velocity": 0.26,
        "hand": "left"
      },
      {
        "midi": 45,
        "time": 106.458,
        "duration": 0.208,
        "velocity": 0.26,
        "hand": "left"
      },
      {
        "midi": 38,
        "time": 106.667,
        "duration": 0.208,
        "velocity": 0.26,
        "hand": "left"
      },
      {
        "midi": 65,
        "time": 106.667,
        "duration": 0.833,
        "velocity": 0.26,
        "hand": "right"
      },
      {
        "midi": 74,
        "time": 106.667,
        "duration": 0.833,
        "velocity": 0.26,
        "hand": "right"
      },
      {
        "midi": 38,
        "time": 106.875,
        "duration": 0.208,
        "velocity": 0.26,
        "hand": "left"
      },
      {
        "midi": 45,
        "time": 106.875,
        "duration": 0.208,
        "velocity": 0.26,
        "hand": "left"
      },
      {
        "midi": 38,
        "time": 107.083,
        "duration": 0.208,
        "velocity": 0.26,
        "hand": "left"
      },
      {
        "midi": 45,
        "time": 107.083,
        "duration": 0.208,
        "velocity": 0.26,
        "hand": "left"
      },
      {
        "midi": 38,
        "time": 107.292,
        "duration": 0.208,
        "velocity": 0.26,
        "hand": "left"
      },
      {
        "midi": 45,
        "time": 107.292,
        "duration": 0.208,
        "velocity": 0.26,
        "hand": "left"
      },
      {
        "midi": 38,
        "time": 107.5,
        "duration": 0.208,
        "velocity": 0.26,
        "hand": "left"
      },
      {
        "midi": 64,
        "time": 107.5,
        "duration": 0.208,
        "velocity": 0.26,
        "hand": "right"
      },
      {
        "midi": 72,
        "time": 107.5,
        "duration": 0.208,
        "velocity": 0.26,
        "hand": "right"
      },
      {
        "midi": 38,
        "time": 107.708,
        "duration": 0.208,
        "velocity": 0.26,
        "hand": "left"
      },
      {
        "midi": 62,
        "time": 107.708,
        "duration": 0.208,
        "velocity": 0.26,
        "hand": "right"
      },
      {
        "midi": 71,
        "time": 107.708,
        "duration": 0.208,
        "velocity": 0.26,
        "hand": "right"
      },
      {
        "midi": 39,
        "time": 107.917,
        "duration": 0.208,
        "velocity": 0.26,
        "hand": "left"
      },
      {
        "midi": 60,
        "time": 107.917,
        "duration": 0.833,
        "velocity": 0.26,
        "hand": "right"
      },
      {
        "midi": 69,
        "time": 107.917,
        "duration": 0.833,
        "velocity": 0.26,
        "hand": "right"
      },
      {
        "midi": 39,
        "time": 108.125,
        "duration": 0.208,
        "velocity": 0.26,
        "hand": "left"
      },
      {
        "midi": 45,
        "time": 108.125,
        "duration": 0.208,
        "velocity": 0.26,
        "hand": "left"
      },
      {
        "midi": 39,
        "time": 108.333,
        "duration": 0.208,
        "velocity": 0.26,
        "hand": "left"
      },
      {
        "midi": 45,
        "time": 108.333,
        "duration": 0.208,
        "velocity": 0.26,
        "hand": "left"
      },
      {
        "midi": 39,
        "time": 108.542,
        "duration": 0.208,
        "velocity": 0.26,
        "hand": "left"
      },
      {
        "midi": 45,
        "time": 108.542,
        "duration": 0.208,
        "velocity": 0.26,
        "hand": "left"
      },
      {
        "midi": 39,
        "time": 108.75,
        "duration": 0.208,
        "velocity": 0.26,
        "hand": "left"
      },
      {
        "midi": 60,
        "time": 108.75,
        "duration": 0.417,
        "velocity": 0.26,
        "hand": "right"
      },
      {
        "midi": 69,
        "time": 108.75,
        "duration": 0.417,
        "velocity": 0.26,
        "hand": "right"
      },
      {
        "midi": 39,
        "time": 108.958,
        "duration": 0.208,
        "velocity": 0.26,
        "hand": "left"
      },
      {
        "midi": 45,
        "time": 108.958,
        "duration": 0.208,
        "velocity": 0.26,
        "hand": "left"
      },
      {
        "midi": 40,
        "time": 109.167,
        "duration": 0.208,
        "velocity": 0.26,
        "hand": "left"
      },
      {
        "midi": 60,
        "time": 109.167,
        "duration": 0.417,
        "velocity": 0.26,
        "hand": "right"
      },
      {
        "midi": 69,
        "time": 109.167,
        "duration": 0.417,
        "velocity": 0.26,
        "hand": "right"
      },
      {
        "midi": 40,
        "time": 109.375,
        "duration": 0.208,
        "velocity": 0.26,
        "hand": "left"
      },
      {
        "midi": 45,
        "time": 109.375,
        "duration": 0.208,
        "velocity": 0.26,
        "hand": "left"
      },
      {
        "midi": 40,
        "time": 109.583,
        "duration": 0.208,
        "velocity": 0.26,
        "hand": "left"
      },
      {
        "midi": 64,
        "time": 109.583,
        "duration": 0.417,
        "velocity": 0.26,
        "hand": "right"
      },
      {
        "midi": 72,
        "time": 109.583,
        "duration": 0.417,
        "velocity": 0.26,
        "hand": "right"
      },
      {
        "midi": 40,
        "time": 109.792,
        "duration": 0.208,
        "velocity": 0.26,
        "hand": "left"
      },
      {
        "midi": 45,
        "time": 109.792,
        "duration": 0.208,
        "velocity": 0.26,
        "hand": "left"
      },
      {
        "midi": 40,
        "time": 110,
        "duration": 0.208,
        "velocity": 0.26,
        "hand": "left"
      },
      {
        "midi": 62,
        "time": 110,
        "duration": 0.417,
        "velocity": 0.26,
        "hand": "right"
      },
      {
        "midi": 71,
        "time": 110,
        "duration": 0.417,
        "velocity": 0.26,
        "hand": "right"
      },
      {
        "midi": 40,
        "time": 110.208,
        "duration": 0.208,
        "velocity": 0.26,
        "hand": "left"
      },
      {
        "midi": 44,
        "time": 110.208,
        "duration": 0.208,
        "velocity": 0.26,
        "hand": "left"
      },
      {
        "midi": 33,
        "time": 110.417,
        "duration": 0.208,
        "velocity": 0.26,
        "hand": "left"
      },
      {
        "midi": 60,
        "time": 110.417,
        "duration": 1.25,
        "velocity": 0.26,
        "hand": "right"
      },
      {
        "midi": 69,
        "time": 110.417,
        "duration": 1.25,
        "velocity": 0.26,
        "hand": "right"
      },
      {
        "midi": 45,
        "time": 110.625,
        "duration": 0.208,
        "velocity": 0.26,
        "hand": "left"
      },
      {
        "midi": 45,
        "time": 110.833,
        "duration": 0.208,
        "velocity": 0.26,
        "hand": "left"
      },
      {
        "midi": 45,
        "time": 111.042,
        "duration": 0.208,
        "velocity": 0.26,
        "hand": "left"
      },
      {
        "midi": 45,
        "time": 111.25,
        "duration": 0.208,
        "velocity": 0.26,
        "hand": "left"
      },
      {
        "midi": 45,
        "time": 111.458,
        "duration": 0.208,
        "velocity": 0.26,
        "hand": "left"
      },
      {
        "midi": 45,
        "time": 111.667,
        "duration": 0.208,
        "velocity": 0.26,
        "hand": "left"
      },
      {
        "midi": 67,
        "time": 111.667,
        "duration": 1.25,
        "velocity": 0.26,
        "hand": "right"
      },
      {
        "midi": 73,
        "time": 111.667,
        "duration": 1.25,
        "velocity": 0.26,
        "hand": "right"
      },
      {
        "midi": 45,
        "time": 111.875,
        "duration": 0.208,
        "velocity": 0.26,
        "hand": "left"
      },
      {
        "midi": 45,
        "time": 112.083,
        "duration": 0.208,
        "velocity": 0.26,
        "hand": "left"
      },
      {
        "midi": 45,
        "time": 112.292,
        "duration": 0.208,
        "velocity": 0.26,
        "hand": "left"
      },
      {
        "midi": 45,
        "time": 112.5,
        "duration": 0.208,
        "velocity": 0.26,
        "hand": "left"
      },
      {
        "midi": 45,
        "time": 112.708,
        "duration": 0.208,
        "velocity": 0.26,
        "hand": "left"
      },
      {
        "midi": 45,
        "time": 112.917,
        "duration": 0.208,
        "velocity": 0.26,
        "hand": "left"
      },
      {
        "midi": 69,
        "time": 112.917,
        "duration": 0.833,
        "velocity": 0.26,
        "hand": "right"
      },
      {
        "midi": 74,
        "time": 112.917,
        "duration": 0.833,
        "velocity": 0.26,
        "hand": "right"
      },
      {
        "midi": 45,
        "time": 113.125,
        "duration": 0.208,
        "velocity": 0.26,
        "hand": "left"
      },
      {
        "midi": 45,
        "time": 113.333,
        "duration": 0.208,
        "velocity": 0.26,
        "hand": "left"
      },
      {
        "midi": 45,
        "time": 113.542,
        "duration": 0.208,
        "velocity": 0.26,
        "hand": "left"
      },
      {
        "midi": 45,
        "time": 113.75,
        "duration": 0.208,
        "velocity": 0.26,
        "hand": "left"
      },
      {
        "midi": 73,
        "time": 113.75,
        "duration": 0.208,
        "velocity": 0.26,
        "hand": "right"
      },
      {
        "midi": 76,
        "time": 113.75,
        "duration": 0.208,
        "velocity": 0.26,
        "hand": "right"
      },
      {
        "midi": 45,
        "time": 113.958,
        "duration": 0.208,
        "velocity": 0.26,
        "hand": "left"
      },
      {
        "midi": 74,
        "time": 113.958,
        "duration": 0.208,
        "velocity": 0.26,
        "hand": "right"
      },
      {
        "midi": 77,
        "time": 113.958,
        "duration": 0.208,
        "velocity": 0.26,
        "hand": "right"
      },
      {
        "midi": 45,
        "time": 114.167,
        "duration": 0.208,
        "velocity": 0.26,
        "hand": "left"
      },
      {
        "midi": 74,
        "time": 114.167,
        "duration": 0.833,
        "velocity": 0.26,
        "hand": "right"
      },
      {
        "midi": 77,
        "time": 114.167,
        "duration": 0.833,
        "velocity": 0.26,
        "hand": "right"
      },
      {
        "midi": 45,
        "time": 114.375,
        "duration": 0.208,
        "velocity": 0.26,
        "hand": "left"
      },
      {
        "midi": 45,
        "time": 114.583,
        "duration": 0.208,
        "velocity": 0.26,
        "hand": "left"
      },
      {
        "midi": 45,
        "time": 114.792,
        "duration": 0.208,
        "velocity": 0.26,
        "hand": "left"
      },
      {
        "midi": 45,
        "time": 115,
        "duration": 0.208,
        "velocity": 0.26,
        "hand": "left"
      },
      {
        "midi": 74,
        "time": 115,
        "duration": 0.417,
        "velocity": 0.26,
        "hand": "right"
      },
      {
        "midi": 77,
        "time": 115,
        "duration": 0.417,
        "velocity": 0.26,
        "hand": "right"
      },
      {
        "midi": 45,
        "time": 115.208,
        "duration": 0.208,
        "velocity": 0.26,
        "hand": "left"
      },
      {
        "midi": 46,
        "time": 115.417,
        "duration": 0.208,
        "velocity": 0.26,
        "hand": "left"
      },
      {
        "midi": 74,
        "time": 115.417,
        "duration": 1.25,
        "velocity": 0.26,
        "hand": "right"
      },
      {
        "midi": 77,
        "time": 115.417,
        "duration": 1.25,
        "velocity": 0.26,
        "hand": "right"
      },
      {
        "midi": 46,
        "time": 115.625,
        "duration": 0.208,
        "velocity": 0.26,
        "hand": "left"
      },
      {
        "midi": 46,
        "time": 115.833,
        "duration": 0.208,
        "velocity": 0.26,
        "hand": "left"
      },
      {
        "midi": 46,
        "time": 116.042,
        "duration": 0.208,
        "velocity": 0.26,
        "hand": "left"
      },
      {
        "midi": 46,
        "time": 116.25,
        "duration": 0.208,
        "velocity": 0.26,
        "hand": "left"
      },
      {
        "midi": 46,
        "time": 116.458,
        "duration": 0.208,
        "velocity": 0.26,
        "hand": "left"
      },
      {
        "midi": 46,
        "time": 116.667,
        "duration": 0.208,
        "velocity": 0.26,
        "hand": "left"
      },
      {
        "midi": 67,
        "time": 116.667,
        "duration": 0.833,
        "velocity": 0.26,
        "hand": "right"
      },
      {
        "midi": 75,
        "time": 116.667,
        "duration": 0.833,
        "velocity": 0.26,
        "hand": "right"
      },
      {
        "midi": 46,
        "time": 116.875,
        "duration": 0.208,
        "velocity": 0.26,
        "hand": "left"
      },
      {
        "midi": 46,
        "time": 117.083,
        "duration": 0.208,
        "velocity": 0.26,
        "hand": "left"
      },
      {
        "midi": 46,
        "time": 117.292,
        "duration": 0.208,
        "velocity": 0.26,
        "hand": "left"
      },
      {
        "midi": 46,
        "time": 117.5,
        "duration": 0.208,
        "velocity": 0.26,
        "hand": "left"
      },
      {
        "midi": 65,
        "time": 117.5,
        "duration": 0.208,
        "velocity": 0.26,
        "hand": "right"
      },
      {
        "midi": 74,
        "time": 117.5,
        "duration": 0.208,
        "velocity": 0.26,
        "hand": "right"
      },
      {
        "midi": 46,
        "time": 117.708,
        "duration": 0.208,
        "velocity": 0.26,
        "hand": "left"
      },
      {
        "midi": 63,
        "time": 117.708,
        "duration": 0.208,
        "velocity": 0.26,
        "hand": "right"
      },
      {
        "midi": 72,
        "time": 117.708,
        "duration": 0.208,
        "velocity": 0.26,
        "hand": "right"
      },
      {
        "midi": 46,
        "time": 117.917,
        "duration": 0.208,
        "velocity": 0.26,
        "hand": "left"
      },
      {
        "midi": 65,
        "time": 117.917,
        "duration": 0.833,
        "velocity": 0.26,
        "hand": "right"
      },
      {
        "midi": 70,
        "time": 117.917,
        "duration": 0.833,
        "velocity": 0.26,
        "hand": "right"
      },
      {
        "midi": 46,
        "time": 118.125,
        "duration": 0.208,
        "velocity": 0.26,
        "hand": "left"
      },
      {
        "midi": 46,
        "time": 118.333,
        "duration": 0.208,
        "velocity": 0.26,
        "hand": "left"
      },
      {
        "midi": 46,
        "time": 118.542,
        "duration": 0.208,
        "velocity": 0.26,
        "hand": "left"
      },
      {
        "midi": 46,
        "time": 118.75,
        "duration": 0.208,
        "velocity": 0.26,
        "hand": "left"
      },
      {
        "midi": 65,
        "time": 118.75,
        "duration": 0.417,
        "velocity": 0.26,
        "hand": "right"
      },
      {
        "midi": 69,
        "time": 118.75,
        "duration": 0.417,
        "velocity": 0.26,
        "hand": "right"
      },
      {
        "midi": 46,
        "time": 118.958,
        "duration": 0.208,
        "velocity": 0.26,
        "hand": "left"
      },
      {
        "midi": 47,
        "time": 119.167,
        "duration": 0.208,
        "velocity": 0.26,
        "hand": "left"
      },
      {
        "midi": 65,
        "time": 119.167,
        "duration": 0.833,
        "velocity": 0.26,
        "hand": "right"
      },
      {
        "midi": 68,
        "time": 119.167,
        "duration": 0.833,
        "velocity": 0.26,
        "hand": "right"
      },
      {
        "midi": 47,
        "time": 119.375,
        "duration": 0.208,
        "velocity": 0.26,
        "hand": "left"
      },
      {
        "midi": 47,
        "time": 119.583,
        "duration": 0.208,
        "velocity": 0.26,
        "hand": "left"
      },
      {
        "midi": 47,
        "time": 119.792,
        "duration": 0.208,
        "velocity": 0.26,
        "hand": "left"
      },
      {
        "midi": 47,
        "time": 120,
        "duration": 0.208,
        "velocity": 0.26,
        "hand": "left"
      },
      {
        "midi": 65,
        "time": 120,
        "duration": 0.417,
        "velocity": 0.26,
        "hand": "right"
      },
      {
        "midi": 68,
        "time": 120,
        "duration": 0.417,
        "velocity": 0.26,
        "hand": "right"
      },
      {
        "midi": 47,
        "time": 120.208,
        "duration": 0.208,
        "velocity": 0.26,
        "hand": "left"
      },
      {
        "midi": 48,
        "time": 120.417,
        "duration": 0.833,
        "velocity": 0.26,
        "hand": "left"
      },
      {
        "midi": 64,
        "time": 120.417,
        "duration": 0.833,
        "velocity": 0.26,
        "hand": "right"
      },
      {
        "midi": 69,
        "time": 120.417,
        "duration": 0.833,
        "velocity": 0.26,
        "hand": "right"
      },
      {
        "midi": 52,
        "time": 121.667,
        "duration": 0.417,
        "velocity": 0.26,
        "hand": "left"
      },
      {
        "midi": 64,
        "time": 121.667,
        "duration": 0.417,
        "velocity": 0.26,
        "hand": "right"
      },
      {
        "midi": 71,
        "time": 121.667,
        "duration": 0.417,
        "velocity": 0.26,
        "hand": "right"
      },
      {
        "midi": 33,
        "time": 122.917,
        "duration": 0.417,
        "velocity": 0.26,
        "hand": "left"
      },
      {
        "midi": 57,
        "time": 122.917,
        "duration": 0.208,
        "velocity": 0.26,
        "hand": "left"
      },
      {
        "midi": 60,
        "time": 123.125,
        "duration": 0.208,
        "velocity": 0.26,
        "hand": "right"
      },
      {
        "midi": 64,
        "time": 123.125,
        "duration": 0.208,
        "velocity": 0.26,
        "hand": "right"
      },
      {
        "midi": 69,
        "time": 123.333,
        "duration": 0.208,
        "velocity": 0.26,
        "hand": "right"
      },
      {
        "midi": 72,
        "time": 123.542,
        "duration": 0.208,
        "velocity": 0.26,
        "hand": "right"
      },
      {
        "midi": 76,
        "time": 123.542,
        "duration": 0.208,
        "velocity": 0.26,
        "hand": "right"
      },
      {
        "midi": 57,
        "time": 123.75,
        "duration": 0.417,
        "velocity": 0.26,
        "hand": "left"
      },
      {
        "midi": 64,
        "time": 123.75,
        "duration": 0.417,
        "velocity": 0.26,
        "hand": "right"
      },
      {
        "midi": 74,
        "time": 123.75,
        "duration": 0.208,
        "velocity": 0.26,
        "hand": "right"
      },
      {
        "midi": 71,
        "time": 123.958,
        "duration": 0.208,
        "velocity": 0.26,
        "hand": "right"
      },
      {
        "midi": 72,
        "time": 123.958,
        "duration": 0.208,
        "velocity": 0.26,
        "hand": "right"
      },
      {
        "midi": 57,
        "time": 124.167,
        "duration": 0.417,
        "velocity": 0.26,
        "hand": "left"
      },
      {
        "midi": 64,
        "time": 124.167,
        "duration": 0.417,
        "velocity": 0.26,
        "hand": "right"
      },
      {
        "midi": 69,
        "time": 124.167,
        "duration": 0.208,
        "velocity": 0.26,
        "hand": "right"
      },
      {
        "midi": 72,
        "time": 124.375,
        "duration": 0.208,
        "velocity": 0.26,
        "hand": "right"
      },
      {
        "midi": 76,
        "time": 124.375,
        "duration": 0.208,
        "velocity": 0.26,
        "hand": "right"
      },
      {
        "midi": 81,
        "time": 124.583,
        "duration": 0.208,
        "velocity": 0.26,
        "hand": "right"
      },
      {
        "midi": 84,
        "time": 124.792,
        "duration": 0.208,
        "velocity": 0.26,
        "hand": "right"
      },
      {
        "midi": 88,
        "time": 124.792,
        "duration": 0.208,
        "velocity": 0.26,
        "hand": "right"
      },
      {
        "midi": 57,
        "time": 125,
        "duration": 0.417,
        "velocity": 0.26,
        "hand": "left"
      },
      {
        "midi": 64,
        "time": 125,
        "duration": 0.417,
        "velocity": 0.26,
        "hand": "right"
      },
      {
        "midi": 86,
        "time": 125,
        "duration": 0.208,
        "velocity": 0.26,
        "hand": "right"
      },
      {
        "midi": 83,
        "time": 125.208,
        "duration": 0.208,
        "velocity": 0.26,
        "hand": "right"
      },
      {
        "midi": 84,
        "time": 125.208,
        "duration": 0.208,
        "velocity": 0.26,
        "hand": "right"
      },
      {
        "midi": 57,
        "time": 125.417,
        "duration": 0.417,
        "velocity": 0.26,
        "hand": "left"
      },
      {
        "midi": 64,
        "time": 125.417,
        "duration": 0.417,
        "velocity": 0.26,
        "hand": "right"
      },
      {
        "midi": 81,
        "time": 125.417,
        "duration": 0.208,
        "velocity": 0.26,
        "hand": "right"
      },
      {
        "midi": 84,
        "time": 125.625,
        "duration": 0.208,
        "velocity": 0.26,
        "hand": "right"
      },
      {
        "midi": 88,
        "time": 125.625,
        "duration": 0.208,
        "velocity": 0.26,
        "hand": "right"
      },
      {
        "midi": 93,
        "time": 125.833,
        "duration": 0.208,
        "velocity": 0.26,
        "hand": "right"
      },
      {
        "midi": 96,
        "time": 126.042,
        "duration": 0.208,
        "velocity": 0.26,
        "hand": "right"
      },
      {
        "midi": 100,
        "time": 126.042,
        "duration": 0.208,
        "velocity": 0.26,
        "hand": "right"
      },
      {
        "midi": 57,
        "time": 126.25,
        "duration": 0.417,
        "velocity": 0.26,
        "hand": "left"
      },
      {
        "midi": 64,
        "time": 126.25,
        "duration": 0.417,
        "velocity": 0.26,
        "hand": "right"
      },
      {
        "midi": 98,
        "time": 126.25,
        "duration": 0.208,
        "velocity": 0.26,
        "hand": "right"
      },
      {
        "midi": 95,
        "time": 126.458,
        "duration": 0.208,
        "velocity": 0.26,
        "hand": "right"
      },
      {
        "midi": 96,
        "time": 126.458,
        "duration": 0.208,
        "velocity": 0.26,
        "hand": "right"
      },
      {
        "midi": 57,
        "time": 126.667,
        "duration": 0.417,
        "velocity": 0.26,
        "hand": "left"
      },
      {
        "midi": 64,
        "time": 126.667,
        "duration": 0.417,
        "velocity": 0.26,
        "hand": "right"
      },
      {
        "midi": 94,
        "time": 126.667,
        "duration": 0.208,
        "velocity": 0.26,
        "hand": "right"
      },
      {
        "midi": 92,
        "time": 126.875,
        "duration": 0.208,
        "velocity": 0.26,
        "hand": "right"
      },
      {
        "midi": 93,
        "time": 126.875,
        "duration": 0.208,
        "velocity": 0.26,
        "hand": "right"
      },
      {
        "midi": 91,
        "time": 127.083,
        "duration": 0.208,
        "velocity": 0.26,
        "hand": "right"
      },
      {
        "midi": 89,
        "time": 127.292,
        "duration": 0.208,
        "velocity": 0.26,
        "hand": "right"
      },
      {
        "midi": 90,
        "time": 127.292,
        "duration": 0.208,
        "velocity": 0.26,
        "hand": "right"
      },
      {
        "midi": 88,
        "time": 127.5,
        "duration": 0.208,
        "velocity": 0.26,
        "hand": "right"
      },
      {
        "midi": 86,
        "time": 127.708,
        "duration": 0.208,
        "velocity": 0.26,
        "hand": "right"
      },
      {
        "midi": 87,
        "time": 127.708,
        "duration": 0.208,
        "velocity": 0.26,
        "hand": "right"
      },
      {
        "midi": 85,
        "time": 127.917,
        "duration": 0.208,
        "velocity": 0.26,
        "hand": "right"
      },
      {
        "midi": 83,
        "time": 128.125,
        "duration": 0.208,
        "velocity": 0.26,
        "hand": "right"
      },
      {
        "midi": 84,
        "time": 128.125,
        "duration": 0.208,
        "velocity": 0.26,
        "hand": "right"
      },
      {
        "midi": 82,
        "time": 128.333,
        "duration": 0.208,
        "velocity": 0.26,
        "hand": "right"
      },
      {
        "midi": 80,
        "time": 128.542,
        "duration": 0.208,
        "velocity": 0.26,
        "hand": "right"
      },
      {
        "midi": 81,
        "time": 128.542,
        "duration": 0.208,
        "velocity": 0.26,
        "hand": "right"
      },
      {
        "midi": 79,
        "time": 128.75,
        "duration": 0.208,
        "velocity": 0.26,
        "hand": "right"
      },
      {
        "midi": 77,
        "time": 128.958,
        "duration": 0.208,
        "velocity": 0.26,
        "hand": "right"
      },
      {
        "midi": 78,
        "time": 128.958,
        "duration": 0.208,
        "velocity": 0.26,
        "hand": "right"
      },
      {
        "midi": 76,
        "time": 129.167,
        "duration": 0.208,
        "velocity": 0.26,
        "hand": "right"
      },
      {
        "midi": 75,
        "time": 129.375,
        "duration": 0.208,
        "velocity": 0.26,
        "hand": "right"
      },
      {
        "midi": 76,
        "time": 129.583,
        "duration": 0.208,
        "velocity": 0.26,
        "hand": "right"
      },
      {
        "midi": 71,
        "time": 129.792,
        "duration": 0.208,
        "velocity": 0.26,
        "hand": "right"
      },
      {
        "midi": 74,
        "time": 130,
        "duration": 0.208,
        "velocity": 0.26,
        "hand": "right"
      },
      {
        "midi": 72,
        "time": 130.208,
        "duration": 0.208,
        "velocity": 0.26,
        "hand": "right"
      },
      {
        "midi": 45,
        "time": 130.417,
        "duration": 0.208,
        "velocity": 0.26,
        "hand": "left"
      },
      {
        "midi": 69,
        "time": 130.417,
        "duration": 0.417,
        "velocity": 0.26,
        "hand": "right"
      },
      {
        "midi": 52,
        "time": 130.625,
        "duration": 0.208,
        "velocity": 0.26,
        "hand": "left"
      },
      {
        "midi": 57,
        "time": 130.833,
        "duration": 0.208,
        "velocity": 0.26,
        "hand": "left"
      },
      {
        "midi": 60,
        "time": 131.042,
        "duration": 0.208,
        "velocity": 0.26,
        "hand": "right"
      },
      {
        "midi": 64,
        "time": 131.25,
        "duration": 0.208,
        "velocity": 0.26,
        "hand": "right"
      },
      {
        "midi": 69,
        "time": 131.458,
        "duration": 0.208,
        "velocity": 0.26,
        "hand": "right"
      },
      {
        "midi": 40,
        "time": 131.667,
        "duration": 0.208,
        "velocity": 0.26,
        "hand": "left"
      },
      {
        "midi": 71,
        "time": 131.667,
        "duration": 0.417,
        "velocity": 0.26,
        "hand": "right"
      },
      {
        "midi": 52,
        "time": 131.875,
        "duration": 0.208,
        "velocity": 0.26,
        "hand": "left"
      },
      {
        "midi": 56,
        "time": 132.083,
        "duration": 0.208,
        "velocity": 0.26,
        "hand": "left"
      },
      {
        "midi": 64,
        "time": 132.292,
        "duration": 0.208,
        "velocity": 0.26,
        "hand": "right"
      },
      {
        "midi": 68,
        "time": 132.5,
        "duration": 0.208,
        "velocity": 0.26,
        "hand": "right"
      },
      {
        "midi": 71,
        "time": 132.708,
        "duration": 0.208,
        "velocity": 0.26,
        "hand": "right"
      },
      {
        "midi": 45,
        "time": 132.917,
        "duration": 0.208,
        "velocity": 0.26,
        "hand": "left"
      },
      {
        "midi": 72,
        "time": 132.917,
        "duration": 0.417,
        "velocity": 0.26,
        "hand": "right"
      },
      {
        "midi": 52,
        "time": 133.125,
        "duration": 0.208,
        "velocity": 0.26,
        "hand": "left"
      },
      {
        "midi": 57,
        "time": 133.333,
        "duration": 0.208,
        "velocity": 0.26,
        "hand": "left"
      },
      {
        "midi": 64,
        "time": 133.542,
        "duration": 0.208,
        "velocity": 0.26,
        "hand": "right"
      },
      {
        "midi": 76,
        "time": 133.75,
        "duration": 0.208,
        "velocity": 0.26,
        "hand": "right"
      },
      {
        "midi": 75,
        "time": 133.958,
        "duration": 0.208,
        "velocity": 0.26,
        "hand": "right"
      },
      {
        "midi": 76,
        "time": 134.167,
        "duration": 0.208,
        "velocity": 0.26,
        "hand": "right"
      },
      {
        "midi": 75,
        "time": 134.375,
        "duration": 0.208,
        "velocity": 0.26,
        "hand": "right"
      },
      {
        "midi": 76,
        "time": 134.583,
        "duration": 0.208,
        "velocity": 0.26,
        "hand": "right"
      },
      {
        "midi": 71,
        "time": 134.792,
        "duration": 0.208,
        "velocity": 0.26,
        "hand": "right"
      },
      {
        "midi": 74,
        "time": 135,
        "duration": 0.208,
        "velocity": 0.26,
        "hand": "right"
      },
      {
        "midi": 72,
        "time": 135.208,
        "duration": 0.208,
        "velocity": 0.26,
        "hand": "right"
      },
      {
        "midi": 45,
        "time": 135.417,
        "duration": 0.208,
        "velocity": 0.26,
        "hand": "left"
      },
      {
        "midi": 69,
        "time": 135.417,
        "duration": 0.417,
        "velocity": 0.26,
        "hand": "right"
      },
      {
        "midi": 52,
        "time": 135.625,
        "duration": 0.208,
        "velocity": 0.26,
        "hand": "left"
      },
      {
        "midi": 57,
        "time": 135.833,
        "duration": 0.208,
        "velocity": 0.26,
        "hand": "left"
      },
      {
        "midi": 60,
        "time": 136.042,
        "duration": 0.208,
        "velocity": 0.26,
        "hand": "right"
      },
      {
        "midi": 64,
        "time": 136.25,
        "duration": 0.208,
        "velocity": 0.26,
        "hand": "right"
      },
      {
        "midi": 69,
        "time": 136.458,
        "duration": 0.208,
        "velocity": 0.26,
        "hand": "right"
      },
      {
        "midi": 40,
        "time": 136.667,
        "duration": 0.208,
        "velocity": 0.26,
        "hand": "left"
      },
      {
        "midi": 71,
        "time": 136.667,
        "duration": 0.417,
        "velocity": 0.26,
        "hand": "right"
      },
      {
        "midi": 52,
        "time": 136.875,
        "duration": 0.208,
        "velocity": 0.26,
        "hand": "left"
      },
      {
        "midi": 56,
        "time": 137.083,
        "duration": 0.208,
        "velocity": 0.26,
        "hand": "left"
      },
      {
        "midi": 62,
        "time": 137.292,
        "duration": 0.208,
        "velocity": 0.26,
        "hand": "right"
      },
      {
        "midi": 72,
        "time": 137.5,
        "duration": 0.208,
        "velocity": 0.26,
        "hand": "right"
      },
      {
        "midi": 71,
        "time": 137.708,
        "duration": 0.208,
        "velocity": 0.26,
        "hand": "right"
      },
      {
        "midi": 45,
        "time": 137.917,
        "duration": 0.208,
        "velocity": 0.26,
        "hand": "left"
      },
      {
        "midi": 69,
        "time": 137.917,
        "duration": 0.417,
        "velocity": 0.26,
        "hand": "right"
      },
      {
        "midi": 52,
        "time": 138.125,
        "duration": 0.208,
        "velocity": 0.26,
        "hand": "left"
      },
      {
        "midi": 57,
        "time": 138.333,
        "duration": 0.208,
        "velocity": 0.26,
        "hand": "left"
      },
      {
        "midi": 71,
        "time": 138.542,
        "duration": 0.208,
        "velocity": 0.26,
        "hand": "right"
      },
      {
        "midi": 72,
        "time": 138.75,
        "duration": 0.208,
        "velocity": 0.26,
        "hand": "right"
      },
      {
        "midi": 74,
        "time": 138.958,
        "duration": 0.208,
        "velocity": 0.26,
        "hand": "right"
      },
      {
        "midi": 48,
        "time": 139.167,
        "duration": 0.208,
        "velocity": 0.26,
        "hand": "left"
      },
      {
        "midi": 76,
        "time": 139.167,
        "duration": 0.625,
        "velocity": 0.26,
        "hand": "right"
      },
      {
        "midi": 55,
        "time": 139.375,
        "duration": 0.208,
        "velocity": 0.26,
        "hand": "left"
      },
      {
        "midi": 60,
        "time": 139.583,
        "duration": 0.208,
        "velocity": 0.26,
        "hand": "right"
      },
      {
        "midi": 67,
        "time": 139.792,
        "duration": 0.208,
        "velocity": 0.26,
        "hand": "right"
      },
      {
        "midi": 77,
        "time": 140,
        "duration": 0.208,
        "velocity": 0.26,
        "hand": "right"
      },
      {
        "midi": 76,
        "time": 140.208,
        "duration": 0.208,
        "velocity": 0.26,
        "hand": "right"
      },
      {
        "midi": 43,
        "time": 140.417,
        "duration": 0.208,
        "velocity": 0.26,
        "hand": "left"
      },
      {
        "midi": 74,
        "time": 140.417,
        "duration": 0.625,
        "velocity": 0.26,
        "hand": "right"
      },
      {
        "midi": 55,
        "time": 140.625,
        "duration": 0.208,
        "velocity": 0.26,
        "hand": "left"
      },
      {
        "midi": 59,
        "time": 140.833,
        "duration": 0.208,
        "velocity": 0.26,
        "hand": "left"
      },
      {
        "midi": 65,
        "time": 141.042,
        "duration": 0.208,
        "velocity": 0.26,
        "hand": "right"
      },
      {
        "midi": 76,
        "time": 141.25,
        "duration": 0.208,
        "velocity": 0.26,
        "hand": "right"
      },
      {
        "midi": 74,
        "time": 141.458,
        "duration": 0.208,
        "velocity": 0.26,
        "hand": "right"
      },
      {
        "midi": 45,
        "time": 141.667,
        "duration": 0.208,
        "velocity": 0.26,
        "hand": "left"
      },
      {
        "midi": 72,
        "time": 141.667,
        "duration": 0.625,
        "velocity": 0.26,
        "hand": "right"
      },
      {
        "midi": 52,
        "time": 141.875,
        "duration": 0.208,
        "velocity": 0.26,
        "hand": "left"
      },
      {
        "midi": 57,
        "time": 142.083,
        "duration": 0.208,
        "velocity": 0.26,
        "hand": "left"
      },
      {
        "midi": 64,
        "time": 142.292,
        "duration": 0.208,
        "velocity": 0.26,
        "hand": "right"
      },
      {
        "midi": 74,
        "time": 142.5,
        "duration": 0.208,
        "velocity": 0.26,
        "hand": "right"
      },
      {
        "midi": 72,
        "time": 142.708,
        "duration": 0.208,
        "velocity": 0.26,
        "hand": "right"
      },
      {
        "midi": 40,
        "time": 142.917,
        "duration": 0.208,
        "velocity": 0.26,
        "hand": "left"
      },
      {
        "midi": 71,
        "time": 142.917,
        "duration": 0.417,
        "velocity": 0.26,
        "hand": "right"
      },
      {
        "midi": 52,
        "time": 143.125,
        "duration": 0.208,
        "velocity": 0.26,
        "hand": "left"
      },
      {
        "midi": 64,
        "time": 143.333,
        "duration": 0.208,
        "velocity": 0.26,
        "hand": "right"
      },
      {
        "midi": 64,
        "time": 143.542,
        "duration": 0.208,
        "velocity": 0.26,
        "hand": "right"
      },
      {
        "midi": 76,
        "time": 143.75,
        "duration": 0.208,
        "velocity": 0.26,
        "hand": "right"
      },
      {
        "midi": 64,
        "time": 143.958,
        "duration": 0.208,
        "velocity": 0.26,
        "hand": "right"
      },
      {
        "midi": 76,
        "time": 144.167,
        "duration": 0.208,
        "velocity": 0.26,
        "hand": "right"
      },
      {
        "midi": 76,
        "time": 144.375,
        "duration": 0.208,
        "velocity": 0.26,
        "hand": "right"
      },
      {
        "midi": 88,
        "time": 144.583,
        "duration": 0.208,
        "velocity": 0.26,
        "hand": "right"
      },
      {
        "midi": 75,
        "time": 144.792,
        "duration": 0.208,
        "velocity": 0.26,
        "hand": "right"
      },
      {
        "midi": 76,
        "time": 145,
        "duration": 0.208,
        "velocity": 0.26,
        "hand": "right"
      },
      {
        "midi": 75,
        "time": 145.208,
        "duration": 0.208,
        "velocity": 0.26,
        "hand": "right"
      },
      {
        "midi": 76,
        "time": 145.417,
        "duration": 0.417,
        "velocity": 0.26,
        "hand": "right"
      },
      {
        "midi": 75,
        "time": 145.625,
        "duration": 0.208,
        "velocity": 0.26,
        "hand": "right"
      },
      {
        "midi": 76,
        "time": 145.833,
        "duration": 0.208,
        "velocity": 0.26,
        "hand": "right"
      },
      {
        "midi": 75,
        "time": 146.042,
        "duration": 0.208,
        "velocity": 0.26,
        "hand": "right"
      },
      {
        "midi": 76,
        "time": 146.25,
        "duration": 0.208,
        "velocity": 0.26,
        "hand": "right"
      },
      {
        "midi": 75,
        "time": 146.458,
        "duration": 0.208,
        "velocity": 0.26,
        "hand": "right"
      },
      {
        "midi": 76,
        "time": 146.667,
        "duration": 0.208,
        "velocity": 0.26,
        "hand": "right"
      },
      {
        "midi": 75,
        "time": 146.875,
        "duration": 0.208,
        "velocity": 0.26,
        "hand": "right"
      },
      {
        "midi": 76,
        "time": 147.083,
        "duration": 0.208,
        "velocity": 0.26,
        "hand": "right"
      },
      {
        "midi": 71,
        "time": 147.292,
        "duration": 0.208,
        "velocity": 0.26,
        "hand": "right"
      },
      {
        "midi": 74,
        "time": 147.5,
        "duration": 0.208,
        "velocity": 0.26,
        "hand": "right"
      },
      {
        "midi": 72,
        "time": 147.708,
        "duration": 0.208,
        "velocity": 0.26,
        "hand": "right"
      },
      {
        "midi": 45,
        "time": 147.917,
        "duration": 0.208,
        "velocity": 0.26,
        "hand": "left"
      },
      {
        "midi": 69,
        "time": 147.917,
        "duration": 0.417,
        "velocity": 0.26,
        "hand": "right"
      },
      {
        "midi": 52,
        "time": 148.125,
        "duration": 0.208,
        "velocity": 0.26,
        "hand": "left"
      },
      {
        "midi": 57,
        "time": 148.333,
        "duration": 0.208,
        "velocity": 0.26,
        "hand": "left"
      },
      {
        "midi": 60,
        "time": 148.542,
        "duration": 0.208,
        "velocity": 0.26,
        "hand": "right"
      },
      {
        "midi": 64,
        "time": 148.75,
        "duration": 0.208,
        "velocity": 0.26,
        "hand": "right"
      },
      {
        "midi": 69,
        "time": 148.958,
        "duration": 0.208,
        "velocity": 0.26,
        "hand": "right"
      },
      {
        "midi": 40,
        "time": 149.167,
        "duration": 0.208,
        "velocity": 0.26,
        "hand": "left"
      },
      {
        "midi": 71,
        "time": 149.167,
        "duration": 0.417,
        "velocity": 0.26,
        "hand": "right"
      },
      {
        "midi": 52,
        "time": 149.375,
        "duration": 0.208,
        "velocity": 0.26,
        "hand": "left"
      },
      {
        "midi": 56,
        "time": 149.583,
        "duration": 0.208,
        "velocity": 0.26,
        "hand": "left"
      },
      {
        "midi": 64,
        "time": 149.792,
        "duration": 0.208,
        "velocity": 0.26,
        "hand": "right"
      },
      {
        "midi": 68,
        "time": 150,
        "duration": 0.208,
        "velocity": 0.26,
        "hand": "right"
      },
      {
        "midi": 71,
        "time": 150.208,
        "duration": 0.208,
        "velocity": 0.26,
        "hand": "right"
      },
      {
        "midi": 45,
        "time": 150.417,
        "duration": 0.208,
        "velocity": 0.26,
        "hand": "left"
      },
      {
        "midi": 72,
        "time": 150.417,
        "duration": 0.417,
        "velocity": 0.26,
        "hand": "right"
      },
      {
        "midi": 52,
        "time": 150.625,
        "duration": 0.208,
        "velocity": 0.26,
        "hand": "left"
      },
      {
        "midi": 57,
        "time": 150.833,
        "duration": 0.208,
        "velocity": 0.26,
        "hand": "left"
      },
      {
        "midi": 64,
        "time": 151.042,
        "duration": 0.208,
        "velocity": 0.26,
        "hand": "right"
      },
      {
        "midi": 76,
        "time": 151.25,
        "duration": 0.208,
        "velocity": 0.26,
        "hand": "right"
      },
      {
        "midi": 75,
        "time": 151.458,
        "duration": 0.208,
        "velocity": 0.26,
        "hand": "right"
      },
      {
        "midi": 76,
        "time": 151.667,
        "duration": 0.208,
        "velocity": 0.26,
        "hand": "right"
      },
      {
        "midi": 75,
        "time": 151.875,
        "duration": 0.208,
        "velocity": 0.26,
        "hand": "right"
      },
      {
        "midi": 76,
        "time": 152.083,
        "duration": 0.208,
        "velocity": 0.26,
        "hand": "right"
      },
      {
        "midi": 71,
        "time": 152.292,
        "duration": 0.208,
        "velocity": 0.26,
        "hand": "right"
      },
      {
        "midi": 74,
        "time": 152.5,
        "duration": 0.208,
        "velocity": 0.26,
        "hand": "right"
      },
      {
        "midi": 72,
        "time": 152.708,
        "duration": 0.208,
        "velocity": 0.26,
        "hand": "right"
      },
      {
        "midi": 45,
        "time": 152.917,
        "duration": 0.208,
        "velocity": 0.26,
        "hand": "left"
      },
      {
        "midi": 69,
        "time": 152.917,
        "duration": 0.417,
        "velocity": 0.26,
        "hand": "right"
      },
      {
        "midi": 52,
        "time": 153.125,
        "duration": 0.208,
        "velocity": 0.26,
        "hand": "left"
      },
      {
        "midi": 57,
        "time": 153.333,
        "duration": 0.208,
        "velocity": 0.26,
        "hand": "left"
      },
      {
        "midi": 60,
        "time": 153.542,
        "duration": 0.208,
        "velocity": 0.26,
        "hand": "right"
      },
      {
        "midi": 64,
        "time": 153.75,
        "duration": 0.208,
        "velocity": 0.26,
        "hand": "right"
      },
      {
        "midi": 69,
        "time": 153.958,
        "duration": 0.208,
        "velocity": 0.26,
        "hand": "right"
      },
      {
        "midi": 40,
        "time": 154.167,
        "duration": 0.208,
        "velocity": 0.26,
        "hand": "left"
      },
      {
        "midi": 71,
        "time": 154.167,
        "duration": 0.417,
        "velocity": 0.26,
        "hand": "right"
      },
      {
        "midi": 52,
        "time": 154.375,
        "duration": 0.208,
        "velocity": 0.26,
        "hand": "left"
      },
      {
        "midi": 56,
        "time": 154.583,
        "duration": 0.208,
        "velocity": 0.26,
        "hand": "left"
      },
      {
        "midi": 62,
        "time": 154.792,
        "duration": 0.208,
        "velocity": 0.26,
        "hand": "right"
      },
      {
        "midi": 72,
        "time": 155,
        "duration": 0.208,
        "velocity": 0.26,
        "hand": "right"
      },
      {
        "midi": 71,
        "time": 155.208,
        "duration": 0.208,
        "velocity": 0.26,
        "hand": "right"
      },
      {
        "midi": 33,
        "time": 155.625,
        "duration": 0.625,
        "velocity": 0.26,
        "hand": "left"
      },
      {
        "midi": 45,
        "time": 155.625,
        "duration": 0.625,
        "velocity": 0.26,
        "hand": "left"
      },
      {
        "midi": 69,
        "time": 155.625,
        "duration": 0.625,
        "velocity": 0.26,
        "hand": "right"
      }
    ],
    "hard": [
      {
        "midi": 76,
        "time": 0,
        "duration": 0.208,
        "velocity": 0.26,
        "hand": "right"
      },
      {
        "midi": 75,
        "time": 0.208,
        "duration": 0.208,
        "velocity": 0.26,
        "hand": "right"
      },
      {
        "midi": 76,
        "time": 0.417,
        "duration": 0.208,
        "velocity": 0.26,
        "hand": "right"
      },
      {
        "midi": 75,
        "time": 0.625,
        "duration": 0.208,
        "velocity": 0.26,
        "hand": "right"
      },
      {
        "midi": 76,
        "time": 0.833,
        "duration": 0.208,
        "velocity": 0.26,
        "hand": "right"
      },
      {
        "midi": 71,
        "time": 1.042,
        "duration": 0.208,
        "velocity": 0.26,
        "hand": "right"
      },
      {
        "midi": 74,
        "time": 1.25,
        "duration": 0.208,
        "velocity": 0.26,
        "hand": "right"
      },
      {
        "midi": 72,
        "time": 1.458,
        "duration": 0.208,
        "velocity": 0.26,
        "hand": "right"
      },
      {
        "midi": 45,
        "time": 1.667,
        "duration": 0.208,
        "velocity": 0.26,
        "hand": "left"
      },
      {
        "midi": 69,
        "time": 1.667,
        "duration": 0.417,
        "velocity": 0.26,
        "hand": "right"
      },
      {
        "midi": 52,
        "time": 1.875,
        "duration": 0.208,
        "velocity": 0.26,
        "hand": "left"
      },
      {
        "midi": 57,
        "time": 2.083,
        "duration": 0.208,
        "velocity": 0.26,
        "hand": "left"
      },
      {
        "midi": 60,
        "time": 2.292,
        "duration": 0.208,
        "velocity": 0.26,
        "hand": "right"
      },
      {
        "midi": 64,
        "time": 2.5,
        "duration": 0.208,
        "velocity": 0.26,
        "hand": "right"
      },
      {
        "midi": 69,
        "time": 2.708,
        "duration": 0.208,
        "velocity": 0.26,
        "hand": "right"
      },
      {
        "midi": 40,
        "time": 2.917,
        "duration": 0.208,
        "velocity": 0.26,
        "hand": "left"
      },
      {
        "midi": 71,
        "time": 2.917,
        "duration": 0.417,
        "velocity": 0.26,
        "hand": "right"
      },
      {
        "midi": 52,
        "time": 3.125,
        "duration": 0.208,
        "velocity": 0.26,
        "hand": "left"
      },
      {
        "midi": 56,
        "time": 3.333,
        "duration": 0.208,
        "velocity": 0.26,
        "hand": "left"
      },
      {
        "midi": 64,
        "time": 3.542,
        "duration": 0.208,
        "velocity": 0.26,
        "hand": "right"
      },
      {
        "midi": 68,
        "time": 3.75,
        "duration": 0.208,
        "velocity": 0.26,
        "hand": "right"
      },
      {
        "midi": 71,
        "time": 3.958,
        "duration": 0.208,
        "velocity": 0.26,
        "hand": "right"
      },
      {
        "midi": 45,
        "time": 4.167,
        "duration": 0.208,
        "velocity": 0.26,
        "hand": "left"
      },
      {
        "midi": 72,
        "time": 4.167,
        "duration": 0.417,
        "velocity": 0.26,
        "hand": "right"
      },
      {
        "midi": 52,
        "time": 4.375,
        "duration": 0.208,
        "velocity": 0.26,
        "hand": "left"
      },
      {
        "midi": 57,
        "time": 4.583,
        "duration": 0.208,
        "velocity": 0.26,
        "hand": "left"
      },
      {
        "midi": 64,
        "time": 4.792,
        "duration": 0.208,
        "velocity": 0.26,
        "hand": "right"
      },
      {
        "midi": 76,
        "time": 5,
        "duration": 0.208,
        "velocity": 0.26,
        "hand": "right"
      },
      {
        "midi": 75,
        "time": 5.208,
        "duration": 0.208,
        "velocity": 0.26,
        "hand": "right"
      },
      {
        "midi": 76,
        "time": 5.417,
        "duration": 0.208,
        "velocity": 0.26,
        "hand": "right"
      },
      {
        "midi": 75,
        "time": 5.625,
        "duration": 0.208,
        "velocity": 0.26,
        "hand": "right"
      },
      {
        "midi": 76,
        "time": 5.833,
        "duration": 0.208,
        "velocity": 0.26,
        "hand": "right"
      },
      {
        "midi": 71,
        "time": 6.042,
        "duration": 0.208,
        "velocity": 0.26,
        "hand": "right"
      },
      {
        "midi": 74,
        "time": 6.25,
        "duration": 0.208,
        "velocity": 0.26,
        "hand": "right"
      },
      {
        "midi": 72,
        "time": 6.458,
        "duration": 0.208,
        "velocity": 0.26,
        "hand": "right"
      },
      {
        "midi": 45,
        "time": 6.667,
        "duration": 0.208,
        "velocity": 0.26,
        "hand": "left"
      },
      {
        "midi": 69,
        "time": 6.667,
        "duration": 0.417,
        "velocity": 0.26,
        "hand": "right"
      },
      {
        "midi": 52,
        "time": 6.875,
        "duration": 0.208,
        "velocity": 0.26,
        "hand": "left"
      },
      {
        "midi": 57,
        "time": 7.083,
        "duration": 0.208,
        "velocity": 0.26,
        "hand": "left"
      },
      {
        "midi": 60,
        "time": 7.292,
        "duration": 0.208,
        "velocity": 0.26,
        "hand": "right"
      },
      {
        "midi": 64,
        "time": 7.5,
        "duration": 0.208,
        "velocity": 0.26,
        "hand": "right"
      },
      {
        "midi": 69,
        "time": 7.708,
        "duration": 0.208,
        "velocity": 0.26,
        "hand": "right"
      },
      {
        "midi": 40,
        "time": 7.917,
        "duration": 0.208,
        "velocity": 0.26,
        "hand": "left"
      },
      {
        "midi": 71,
        "time": 7.917,
        "duration": 0.417,
        "velocity": 0.26,
        "hand": "right"
      },
      {
        "midi": 52,
        "time": 8.125,
        "duration": 0.208,
        "velocity": 0.26,
        "hand": "left"
      },
      {
        "midi": 56,
        "time": 8.333,
        "duration": 0.208,
        "velocity": 0.26,
        "hand": "left"
      },
      {
        "midi": 62,
        "time": 8.542,
        "duration": 0.208,
        "velocity": 0.26,
        "hand": "right"
      },
      {
        "midi": 72,
        "time": 8.75,
        "duration": 0.208,
        "velocity": 0.26,
        "hand": "right"
      },
      {
        "midi": 71,
        "time": 8.958,
        "duration": 0.208,
        "velocity": 0.26,
        "hand": "right"
      },
      {
        "midi": 45,
        "time": 9.167,
        "duration": 0.208,
        "velocity": 0.26,
        "hand": "left"
      },
      {
        "midi": 69,
        "time": 9.167,
        "duration": 0.833,
        "velocity": 0.26,
        "hand": "right"
      },
      {
        "midi": 52,
        "time": 9.375,
        "duration": 0.208,
        "velocity": 0.26,
        "hand": "left"
      },
      {
        "midi": 57,
        "time": 9.583,
        "duration": 0.208,
        "velocity": 0.26,
        "hand": "left"
      },
      {
        "midi": 76,
        "time": 10,
        "duration": 0.208,
        "velocity": 0.26,
        "hand": "right"
      },
      {
        "midi": 75,
        "time": 10.208,
        "duration": 0.208,
        "velocity": 0.26,
        "hand": "right"
      },
      {
        "midi": 76,
        "time": 10.417,
        "duration": 0.208,
        "velocity": 0.26,
        "hand": "right"
      },
      {
        "midi": 75,
        "time": 10.625,
        "duration": 0.208,
        "velocity": 0.26,
        "hand": "right"
      },
      {
        "midi": 76,
        "time": 10.833,
        "duration": 0.208,
        "velocity": 0.26,
        "hand": "right"
      },
      {
        "midi": 71,
        "time": 11.042,
        "duration": 0.208,
        "velocity": 0.26,
        "hand": "right"
      },
      {
        "midi": 74,
        "time": 11.25,
        "duration": 0.208,
        "velocity": 0.26,
        "hand": "right"
      },
      {
        "midi": 72,
        "time": 11.458,
        "duration": 0.208,
        "velocity": 0.26,
        "hand": "right"
      },
      {
        "midi": 45,
        "time": 11.667,
        "duration": 0.208,
        "velocity": 0.26,
        "hand": "left"
      },
      {
        "midi": 69,
        "time": 11.667,
        "duration": 0.417,
        "velocity": 0.26,
        "hand": "right"
      },
      {
        "midi": 52,
        "time": 11.875,
        "duration": 0.208,
        "velocity": 0.26,
        "hand": "left"
      },
      {
        "midi": 57,
        "time": 12.083,
        "duration": 0.208,
        "velocity": 0.26,
        "hand": "left"
      },
      {
        "midi": 60,
        "time": 12.292,
        "duration": 0.208,
        "velocity": 0.26,
        "hand": "right"
      },
      {
        "midi": 64,
        "time": 12.5,
        "duration": 0.208,
        "velocity": 0.26,
        "hand": "right"
      },
      {
        "midi": 69,
        "time": 12.708,
        "duration": 0.208,
        "velocity": 0.26,
        "hand": "right"
      },
      {
        "midi": 40,
        "time": 12.917,
        "duration": 0.208,
        "velocity": 0.26,
        "hand": "left"
      },
      {
        "midi": 71,
        "time": 12.917,
        "duration": 0.417,
        "velocity": 0.26,
        "hand": "right"
      },
      {
        "midi": 52,
        "time": 13.125,
        "duration": 0.208,
        "velocity": 0.26,
        "hand": "left"
      },
      {
        "midi": 56,
        "time": 13.333,
        "duration": 0.208,
        "velocity": 0.26,
        "hand": "left"
      },
      {
        "midi": 64,
        "time": 13.542,
        "duration": 0.208,
        "velocity": 0.26,
        "hand": "right"
      },
      {
        "midi": 68,
        "time": 13.75,
        "duration": 0.208,
        "velocity": 0.26,
        "hand": "right"
      },
      {
        "midi": 71,
        "time": 13.958,
        "duration": 0.208,
        "velocity": 0.26,
        "hand": "right"
      },
      {
        "midi": 45,
        "time": 14.167,
        "duration": 0.208,
        "velocity": 0.26,
        "hand": "left"
      },
      {
        "midi": 72,
        "time": 14.167,
        "duration": 0.417,
        "velocity": 0.26,
        "hand": "right"
      },
      {
        "midi": 52,
        "time": 14.375,
        "duration": 0.208,
        "velocity": 0.26,
        "hand": "left"
      },
      {
        "midi": 57,
        "time": 14.583,
        "duration": 0.208,
        "velocity": 0.26,
        "hand": "left"
      },
      {
        "midi": 64,
        "time": 14.792,
        "duration": 0.208,
        "velocity": 0.26,
        "hand": "right"
      },
      {
        "midi": 76,
        "time": 15,
        "duration": 0.208,
        "velocity": 0.26,
        "hand": "right"
      },
      {
        "midi": 75,
        "time": 15.208,
        "duration": 0.208,
        "velocity": 0.26,
        "hand": "right"
      },
      {
        "midi": 76,
        "time": 15.417,
        "duration": 0.208,
        "velocity": 0.26,
        "hand": "right"
      },
      {
        "midi": 75,
        "time": 15.625,
        "duration": 0.208,
        "velocity": 0.26,
        "hand": "right"
      },
      {
        "midi": 76,
        "time": 15.833,
        "duration": 0.208,
        "velocity": 0.26,
        "hand": "right"
      },
      {
        "midi": 71,
        "time": 16.042,
        "duration": 0.208,
        "velocity": 0.26,
        "hand": "right"
      },
      {
        "midi": 74,
        "time": 16.25,
        "duration": 0.208,
        "velocity": 0.26,
        "hand": "right"
      },
      {
        "midi": 72,
        "time": 16.458,
        "duration": 0.208,
        "velocity": 0.26,
        "hand": "right"
      },
      {
        "midi": 45,
        "time": 16.667,
        "duration": 0.208,
        "velocity": 0.26,
        "hand": "left"
      },
      {
        "midi": 69,
        "time": 16.667,
        "duration": 0.417,
        "velocity": 0.26,
        "hand": "right"
      },
      {
        "midi": 52,
        "time": 16.875,
        "duration": 0.208,
        "velocity": 0.26,
        "hand": "left"
      },
      {
        "midi": 57,
        "time": 17.083,
        "duration": 0.208,
        "velocity": 0.26,
        "hand": "left"
      },
      {
        "midi": 60,
        "time": 17.292,
        "duration": 0.208,
        "velocity": 0.26,
        "hand": "right"
      },
      {
        "midi": 64,
        "time": 17.5,
        "duration": 0.208,
        "velocity": 0.26,
        "hand": "right"
      },
      {
        "midi": 69,
        "time": 17.708,
        "duration": 0.208,
        "velocity": 0.26,
        "hand": "right"
      },
      {
        "midi": 40,
        "time": 17.917,
        "duration": 0.208,
        "velocity": 0.26,
        "hand": "left"
      },
      {
        "midi": 71,
        "time": 17.917,
        "duration": 0.417,
        "velocity": 0.26,
        "hand": "right"
      },
      {
        "midi": 52,
        "time": 18.125,
        "duration": 0.208,
        "velocity": 0.26,
        "hand": "left"
      },
      {
        "midi": 56,
        "time": 18.333,
        "duration": 0.208,
        "velocity": 0.26,
        "hand": "left"
      },
      {
        "midi": 62,
        "time": 18.542,
        "duration": 0.208,
        "velocity": 0.26,
        "hand": "right"
      },
      {
        "midi": 72,
        "time": 18.75,
        "duration": 0.208,
        "velocity": 0.26,
        "hand": "right"
      },
      {
        "midi": 71,
        "time": 18.958,
        "duration": 0.208,
        "velocity": 0.26,
        "hand": "right"
      },
      {
        "midi": 45,
        "time": 19.167,
        "duration": 0.208,
        "velocity": 0.26,
        "hand": "left"
      },
      {
        "midi": 69,
        "time": 19.167,
        "duration": 0.417,
        "velocity": 0.26,
        "hand": "right"
      },
      {
        "midi": 52,
        "time": 19.375,
        "duration": 0.208,
        "velocity": 0.26,
        "hand": "left"
      },
      {
        "midi": 57,
        "time": 19.583,
        "duration": 0.208,
        "velocity": 0.26,
        "hand": "left"
      },
      {
        "midi": 71,
        "time": 19.792,
        "duration": 0.208,
        "velocity": 0.26,
        "hand": "right"
      },
      {
        "midi": 72,
        "time": 20,
        "duration": 0.208,
        "velocity": 0.26,
        "hand": "right"
      },
      {
        "midi": 74,
        "time": 20.208,
        "duration": 0.208,
        "velocity": 0.26,
        "hand": "right"
      },
      {
        "midi": 48,
        "time": 20.417,
        "duration": 0.208,
        "velocity": 0.26,
        "hand": "left"
      },
      {
        "midi": 76,
        "time": 20.417,
        "duration": 0.625,
        "velocity": 0.26,
        "hand": "right"
      },
      {
        "midi": 55,
        "time": 20.625,
        "duration": 0.208,
        "velocity": 0.26,
        "hand": "left"
      },
      {
        "midi": 60,
        "time": 20.833,
        "duration": 0.208,
        "velocity": 0.26,
        "hand": "right"
      },
      {
        "midi": 67,
        "time": 21.042,
        "duration": 0.208,
        "velocity": 0.26,
        "hand": "right"
      },
      {
        "midi": 77,
        "time": 21.25,
        "duration": 0.208,
        "velocity": 0.26,
        "hand": "right"
      },
      {
        "midi": 76,
        "time": 21.458,
        "duration": 0.208,
        "velocity": 0.26,
        "hand": "right"
      },
      {
        "midi": 43,
        "time": 21.667,
        "duration": 0.208,
        "velocity": 0.26,
        "hand": "left"
      },
      {
        "midi": 74,
        "time": 21.667,
        "duration": 0.625,
        "velocity": 0.26,
        "hand": "right"
      },
      {
        "midi": 55,
        "time": 21.875,
        "duration": 0.208,
        "velocity": 0.26,
        "hand": "left"
      },
      {
        "midi": 59,
        "time": 22.083,
        "duration": 0.208,
        "velocity": 0.26,
        "hand": "left"
      },
      {
        "midi": 65,
        "time": 22.292,
        "duration": 0.208,
        "velocity": 0.26,
        "hand": "right"
      },
      {
        "midi": 76,
        "time": 22.5,
        "duration": 0.208,
        "velocity": 0.26,
        "hand": "right"
      },
      {
        "midi": 74,
        "time": 22.708,
        "duration": 0.208,
        "velocity": 0.26,
        "hand": "right"
      },
      {
        "midi": 45,
        "time": 22.917,
        "duration": 0.208,
        "velocity": 0.26,
        "hand": "left"
      },
      {
        "midi": 72,
        "time": 22.917,
        "duration": 0.625,
        "velocity": 0.26,
        "hand": "right"
      },
      {
        "midi": 52,
        "time": 23.125,
        "duration": 0.208,
        "velocity": 0.26,
        "hand": "left"
      },
      {
        "midi": 57,
        "time": 23.333,
        "duration": 0.208,
        "velocity": 0.26,
        "hand": "left"
      },
      {
        "midi": 64,
        "time": 23.542,
        "duration": 0.208,
        "velocity": 0.26,
        "hand": "right"
      },
      {
        "midi": 74,
        "time": 23.75,
        "duration": 0.208,
        "velocity": 0.26,
        "hand": "right"
      },
      {
        "midi": 72,
        "time": 23.958,
        "duration": 0.208,
        "velocity": 0.26,
        "hand": "right"
      },
      {
        "midi": 40,
        "time": 24.167,
        "duration": 0.208,
        "velocity": 0.26,
        "hand": "left"
      },
      {
        "midi": 71,
        "time": 24.167,
        "duration": 0.417,
        "velocity": 0.26,
        "hand": "right"
      },
      {
        "midi": 52,
        "time": 24.375,
        "duration": 0.208,
        "velocity": 0.26,
        "hand": "left"
      },
      {
        "midi": 64,
        "time": 24.583,
        "duration": 0.208,
        "velocity": 0.26,
        "hand": "right"
      },
      {
        "midi": 64,
        "time": 24.792,
        "duration": 0.208,
        "velocity": 0.26,
        "hand": "right"
      },
      {
        "midi": 76,
        "time": 25,
        "duration": 0.208,
        "velocity": 0.26,
        "hand": "right"
      },
      {
        "midi": 64,
        "time": 25.208,
        "duration": 0.208,
        "velocity": 0.26,
        "hand": "right"
      },
      {
        "midi": 76,
        "time": 25.417,
        "duration": 0.208,
        "velocity": 0.26,
        "hand": "right"
      },
      {
        "midi": 76,
        "time": 25.625,
        "duration": 0.208,
        "velocity": 0.26,
        "hand": "right"
      },
      {
        "midi": 88,
        "time": 25.833,
        "duration": 0.208,
        "velocity": 0.26,
        "hand": "right"
      },
      {
        "midi": 75,
        "time": 26.042,
        "duration": 0.208,
        "velocity": 0.26,
        "hand": "right"
      },
      {
        "midi": 76,
        "time": 26.25,
        "duration": 0.208,
        "velocity": 0.26,
        "hand": "right"
      },
      {
        "midi": 75,
        "time": 26.458,
        "duration": 0.208,
        "velocity": 0.26,
        "hand": "right"
      },
      {
        "midi": 76,
        "time": 26.667,
        "duration": 0.417,
        "velocity": 0.26,
        "hand": "right"
      },
      {
        "midi": 75,
        "time": 26.875,
        "duration": 0.208,
        "velocity": 0.26,
        "hand": "right"
      },
      {
        "midi": 76,
        "time": 27.083,
        "duration": 0.208,
        "velocity": 0.26,
        "hand": "right"
      },
      {
        "midi": 75,
        "time": 27.292,
        "duration": 0.208,
        "velocity": 0.26,
        "hand": "right"
      },
      {
        "midi": 76,
        "time": 27.5,
        "duration": 0.208,
        "velocity": 0.26,
        "hand": "right"
      },
      {
        "midi": 75,
        "time": 27.708,
        "duration": 0.208,
        "velocity": 0.26,
        "hand": "right"
      },
      {
        "midi": 76,
        "time": 27.917,
        "duration": 0.208,
        "velocity": 0.26,
        "hand": "right"
      },
      {
        "midi": 75,
        "time": 28.125,
        "duration": 0.208,
        "velocity": 0.26,
        "hand": "right"
      },
      {
        "midi": 76,
        "time": 28.333,
        "duration": 0.208,
        "velocity": 0.26,
        "hand": "right"
      },
      {
        "midi": 71,
        "time": 28.542,
        "duration": 0.208,
        "velocity": 0.26,
        "hand": "right"
      },
      {
        "midi": 74,
        "time": 28.75,
        "duration": 0.208,
        "velocity": 0.26,
        "hand": "right"
      },
      {
        "midi": 72,
        "time": 28.958,
        "duration": 0.208,
        "velocity": 0.26,
        "hand": "right"
      },
      {
        "midi": 45,
        "time": 29.167,
        "duration": 0.208,
        "velocity": 0.26,
        "hand": "left"
      },
      {
        "midi": 69,
        "time": 29.167,
        "duration": 0.417,
        "velocity": 0.26,
        "hand": "right"
      },
      {
        "midi": 52,
        "time": 29.375,
        "duration": 0.208,
        "velocity": 0.26,
        "hand": "left"
      },
      {
        "midi": 57,
        "time": 29.583,
        "duration": 0.208,
        "velocity": 0.26,
        "hand": "left"
      },
      {
        "midi": 60,
        "time": 29.792,
        "duration": 0.208,
        "velocity": 0.26,
        "hand": "right"
      },
      {
        "midi": 64,
        "time": 30,
        "duration": 0.208,
        "velocity": 0.26,
        "hand": "right"
      },
      {
        "midi": 69,
        "time": 30.208,
        "duration": 0.208,
        "velocity": 0.26,
        "hand": "right"
      },
      {
        "midi": 40,
        "time": 30.417,
        "duration": 0.208,
        "velocity": 0.26,
        "hand": "left"
      },
      {
        "midi": 71,
        "time": 30.417,
        "duration": 0.417,
        "velocity": 0.26,
        "hand": "right"
      },
      {
        "midi": 52,
        "time": 30.625,
        "duration": 0.208,
        "velocity": 0.26,
        "hand": "left"
      },
      {
        "midi": 56,
        "time": 30.833,
        "duration": 0.208,
        "velocity": 0.26,
        "hand": "left"
      },
      {
        "midi": 64,
        "time": 31.042,
        "duration": 0.208,
        "velocity": 0.26,
        "hand": "right"
      },
      {
        "midi": 68,
        "time": 31.25,
        "duration": 0.208,
        "velocity": 0.26,
        "hand": "right"
      },
      {
        "midi": 71,
        "time": 31.458,
        "duration": 0.208,
        "velocity": 0.26,
        "hand": "right"
      },
      {
        "midi": 45,
        "time": 31.667,
        "duration": 0.208,
        "velocity": 0.26,
        "hand": "left"
      },
      {
        "midi": 72,
        "time": 31.667,
        "duration": 0.417,
        "velocity": 0.26,
        "hand": "right"
      },
      {
        "midi": 52,
        "time": 31.875,
        "duration": 0.208,
        "velocity": 0.26,
        "hand": "left"
      },
      {
        "midi": 57,
        "time": 32.083,
        "duration": 0.208,
        "velocity": 0.26,
        "hand": "left"
      },
      {
        "midi": 64,
        "time": 32.292,
        "duration": 0.208,
        "velocity": 0.26,
        "hand": "right"
      },
      {
        "midi": 76,
        "time": 32.5,
        "duration": 0.208,
        "velocity": 0.26,
        "hand": "right"
      },
      {
        "midi": 75,
        "time": 32.708,
        "duration": 0.208,
        "velocity": 0.26,
        "hand": "right"
      },
      {
        "midi": 76,
        "time": 32.917,
        "duration": 0.208,
        "velocity": 0.26,
        "hand": "right"
      },
      {
        "midi": 75,
        "time": 33.125,
        "duration": 0.208,
        "velocity": 0.26,
        "hand": "right"
      },
      {
        "midi": 76,
        "time": 33.333,
        "duration": 0.208,
        "velocity": 0.26,
        "hand": "right"
      },
      {
        "midi": 71,
        "time": 33.542,
        "duration": 0.208,
        "velocity": 0.26,
        "hand": "right"
      },
      {
        "midi": 74,
        "time": 33.75,
        "duration": 0.208,
        "velocity": 0.26,
        "hand": "right"
      },
      {
        "midi": 72,
        "time": 33.958,
        "duration": 0.208,
        "velocity": 0.26,
        "hand": "right"
      },
      {
        "midi": 45,
        "time": 34.167,
        "duration": 0.208,
        "velocity": 0.26,
        "hand": "left"
      },
      {
        "midi": 69,
        "time": 34.167,
        "duration": 0.417,
        "velocity": 0.26,
        "hand": "right"
      },
      {
        "midi": 52,
        "time": 34.375,
        "duration": 0.208,
        "velocity": 0.26,
        "hand": "left"
      },
      {
        "midi": 57,
        "time": 34.583,
        "duration": 0.208,
        "velocity": 0.26,
        "hand": "left"
      },
      {
        "midi": 60,
        "time": 34.792,
        "duration": 0.208,
        "velocity": 0.26,
        "hand": "right"
      },
      {
        "midi": 64,
        "time": 35,
        "duration": 0.208,
        "velocity": 0.26,
        "hand": "right"
      },
      {
        "midi": 69,
        "time": 35.208,
        "duration": 0.208,
        "velocity": 0.26,
        "hand": "right"
      },
      {
        "midi": 40,
        "time": 35.417,
        "duration": 0.208,
        "velocity": 0.26,
        "hand": "left"
      },
      {
        "midi": 71,
        "time": 35.417,
        "duration": 0.417,
        "velocity": 0.26,
        "hand": "right"
      },
      {
        "midi": 52,
        "time": 35.625,
        "duration": 0.208,
        "velocity": 0.26,
        "hand": "left"
      },
      {
        "midi": 56,
        "time": 35.833,
        "duration": 0.208,
        "velocity": 0.26,
        "hand": "left"
      },
      {
        "midi": 62,
        "time": 36.042,
        "duration": 0.208,
        "velocity": 0.26,
        "hand": "right"
      },
      {
        "midi": 72,
        "time": 36.25,
        "duration": 0.208,
        "velocity": 0.26,
        "hand": "right"
      },
      {
        "midi": 71,
        "time": 36.458,
        "duration": 0.208,
        "velocity": 0.26,
        "hand": "right"
      },
      {
        "midi": 45,
        "time": 36.667,
        "duration": 0.208,
        "velocity": 0.26,
        "hand": "left"
      },
      {
        "midi": 69,
        "time": 36.667,
        "duration": 0.417,
        "velocity": 0.26,
        "hand": "right"
      },
      {
        "midi": 52,
        "time": 36.875,
        "duration": 0.208,
        "velocity": 0.26,
        "hand": "left"
      },
      {
        "midi": 57,
        "time": 37.083,
        "duration": 0.208,
        "velocity": 0.26,
        "hand": "left"
      },
      {
        "midi": 71,
        "time": 37.292,
        "duration": 0.208,
        "velocity": 0.26,
        "hand": "right"
      },
      {
        "midi": 72,
        "time": 37.5,
        "duration": 0.208,
        "velocity": 0.26,
        "hand": "right"
      },
      {
        "midi": 74,
        "time": 37.708,
        "duration": 0.208,
        "velocity": 0.26,
        "hand": "right"
      },
      {
        "midi": 48,
        "time": 37.917,
        "duration": 0.208,
        "velocity": 0.26,
        "hand": "left"
      },
      {
        "midi": 76,
        "time": 37.917,
        "duration": 0.625,
        "velocity": 0.26,
        "hand": "right"
      },
      {
        "midi": 55,
        "time": 38.125,
        "duration": 0.208,
        "velocity": 0.26,
        "hand": "left"
      },
      {
        "midi": 60,
        "time": 38.333,
        "duration": 0.208,
        "velocity": 0.26,
        "hand": "right"
      },
      {
        "midi": 67,
        "time": 38.542,
        "duration": 0.208,
        "velocity": 0.26,
        "hand": "right"
      },
      {
        "midi": 77,
        "time": 38.75,
        "duration": 0.208,
        "velocity": 0.26,
        "hand": "right"
      },
      {
        "midi": 76,
        "time": 38.958,
        "duration": 0.208,
        "velocity": 0.26,
        "hand": "right"
      },
      {
        "midi": 43,
        "time": 39.167,
        "duration": 0.208,
        "velocity": 0.26,
        "hand": "left"
      },
      {
        "midi": 74,
        "time": 39.167,
        "duration": 0.625,
        "velocity": 0.26,
        "hand": "right"
      },
      {
        "midi": 55,
        "time": 39.375,
        "duration": 0.208,
        "velocity": 0.26,
        "hand": "left"
      },
      {
        "midi": 59,
        "time": 39.583,
        "duration": 0.208,
        "velocity": 0.26,
        "hand": "left"
      },
      {
        "midi": 65,
        "time": 39.792,
        "duration": 0.208,
        "velocity": 0.26,
        "hand": "right"
      },
      {
        "midi": 76,
        "time": 40,
        "duration": 0.208,
        "velocity": 0.26,
        "hand": "right"
      },
      {
        "midi": 74,
        "time": 40.208,
        "duration": 0.208,
        "velocity": 0.26,
        "hand": "right"
      },
      {
        "midi": 45,
        "time": 40.417,
        "duration": 0.208,
        "velocity": 0.26,
        "hand": "left"
      },
      {
        "midi": 72,
        "time": 40.417,
        "duration": 0.625,
        "velocity": 0.26,
        "hand": "right"
      },
      {
        "midi": 52,
        "time": 40.625,
        "duration": 0.208,
        "velocity": 0.26,
        "hand": "left"
      },
      {
        "midi": 57,
        "time": 40.833,
        "duration": 0.208,
        "velocity": 0.26,
        "hand": "left"
      },
      {
        "midi": 64,
        "time": 41.042,
        "duration": 0.208,
        "velocity": 0.26,
        "hand": "right"
      },
      {
        "midi": 74,
        "time": 41.25,
        "duration": 0.208,
        "velocity": 0.26,
        "hand": "right"
      },
      {
        "midi": 72,
        "time": 41.458,
        "duration": 0.208,
        "velocity": 0.26,
        "hand": "right"
      },
      {
        "midi": 40,
        "time": 41.667,
        "duration": 0.208,
        "velocity": 0.26,
        "hand": "left"
      },
      {
        "midi": 71,
        "time": 41.667,
        "duration": 0.417,
        "velocity": 0.26,
        "hand": "right"
      },
      {
        "midi": 52,
        "time": 41.875,
        "duration": 0.208,
        "velocity": 0.26,
        "hand": "left"
      },
      {
        "midi": 64,
        "time": 42.083,
        "duration": 0.208,
        "velocity": 0.26,
        "hand": "right"
      },
      {
        "midi": 64,
        "time": 42.292,
        "duration": 0.208,
        "velocity": 0.26,
        "hand": "right"
      },
      {
        "midi": 76,
        "time": 42.5,
        "duration": 0.208,
        "velocity": 0.26,
        "hand": "right"
      },
      {
        "midi": 64,
        "time": 42.708,
        "duration": 0.208,
        "velocity": 0.26,
        "hand": "right"
      },
      {
        "midi": 76,
        "time": 42.917,
        "duration": 0.208,
        "velocity": 0.26,
        "hand": "right"
      },
      {
        "midi": 76,
        "time": 43.125,
        "duration": 0.208,
        "velocity": 0.26,
        "hand": "right"
      },
      {
        "midi": 88,
        "time": 43.333,
        "duration": 0.208,
        "velocity": 0.26,
        "hand": "right"
      },
      {
        "midi": 75,
        "time": 43.542,
        "duration": 0.208,
        "velocity": 0.26,
        "hand": "right"
      },
      {
        "midi": 76,
        "time": 43.75,
        "duration": 0.208,
        "velocity": 0.26,
        "hand": "right"
      },
      {
        "midi": 75,
        "time": 43.958,
        "duration": 0.208,
        "velocity": 0.26,
        "hand": "right"
      },
      {
        "midi": 76,
        "time": 44.167,
        "duration": 0.417,
        "velocity": 0.26,
        "hand": "right"
      },
      {
        "midi": 75,
        "time": 44.375,
        "duration": 0.208,
        "velocity": 0.26,
        "hand": "right"
      },
      {
        "midi": 76,
        "time": 44.583,
        "duration": 0.208,
        "velocity": 0.26,
        "hand": "right"
      },
      {
        "midi": 75,
        "time": 44.792,
        "duration": 0.208,
        "velocity": 0.26,
        "hand": "right"
      },
      {
        "midi": 76,
        "time": 45,
        "duration": 0.208,
        "velocity": 0.26,
        "hand": "right"
      },
      {
        "midi": 75,
        "time": 45.208,
        "duration": 0.208,
        "velocity": 0.26,
        "hand": "right"
      },
      {
        "midi": 76,
        "time": 45.417,
        "duration": 0.208,
        "velocity": 0.26,
        "hand": "right"
      },
      {
        "midi": 75,
        "time": 45.625,
        "duration": 0.208,
        "velocity": 0.26,
        "hand": "right"
      },
      {
        "midi": 76,
        "time": 45.833,
        "duration": 0.208,
        "velocity": 0.26,
        "hand": "right"
      },
      {
        "midi": 71,
        "time": 46.042,
        "duration": 0.208,
        "velocity": 0.26,
        "hand": "right"
      },
      {
        "midi": 74,
        "time": 46.25,
        "duration": 0.208,
        "velocity": 0.26,
        "hand": "right"
      },
      {
        "midi": 72,
        "time": 46.458,
        "duration": 0.208,
        "velocity": 0.26,
        "hand": "right"
      },
      {
        "midi": 45,
        "time": 46.667,
        "duration": 0.208,
        "velocity": 0.26,
        "hand": "left"
      },
      {
        "midi": 69,
        "time": 46.667,
        "duration": 0.417,
        "velocity": 0.26,
        "hand": "right"
      },
      {
        "midi": 52,
        "time": 46.875,
        "duration": 0.208,
        "velocity": 0.26,
        "hand": "left"
      },
      {
        "midi": 57,
        "time": 47.083,
        "duration": 0.208,
        "velocity": 0.26,
        "hand": "left"
      },
      {
        "midi": 60,
        "time": 47.292,
        "duration": 0.208,
        "velocity": 0.26,
        "hand": "right"
      },
      {
        "midi": 64,
        "time": 47.5,
        "duration": 0.208,
        "velocity": 0.26,
        "hand": "right"
      },
      {
        "midi": 69,
        "time": 47.708,
        "duration": 0.208,
        "velocity": 0.26,
        "hand": "right"
      },
      {
        "midi": 40,
        "time": 47.917,
        "duration": 0.208,
        "velocity": 0.26,
        "hand": "left"
      },
      {
        "midi": 71,
        "time": 47.917,
        "duration": 0.417,
        "velocity": 0.26,
        "hand": "right"
      },
      {
        "midi": 52,
        "time": 48.125,
        "duration": 0.208,
        "velocity": 0.26,
        "hand": "left"
      },
      {
        "midi": 56,
        "time": 48.333,
        "duration": 0.208,
        "velocity": 0.26,
        "hand": "left"
      },
      {
        "midi": 64,
        "time": 48.542,
        "duration": 0.208,
        "velocity": 0.26,
        "hand": "right"
      },
      {
        "midi": 68,
        "time": 48.75,
        "duration": 0.208,
        "velocity": 0.26,
        "hand": "right"
      },
      {
        "midi": 71,
        "time": 48.958,
        "duration": 0.208,
        "velocity": 0.26,
        "hand": "right"
      },
      {
        "midi": 45,
        "time": 49.167,
        "duration": 0.208,
        "velocity": 0.26,
        "hand": "left"
      },
      {
        "midi": 72,
        "time": 49.167,
        "duration": 0.417,
        "velocity": 0.26,
        "hand": "right"
      },
      {
        "midi": 52,
        "time": 49.375,
        "duration": 0.208,
        "velocity": 0.26,
        "hand": "left"
      },
      {
        "midi": 57,
        "time": 49.583,
        "duration": 0.208,
        "velocity": 0.26,
        "hand": "left"
      },
      {
        "midi": 64,
        "time": 49.792,
        "duration": 0.208,
        "velocity": 0.26,
        "hand": "right"
      },
      {
        "midi": 76,
        "time": 50,
        "duration": 0.208,
        "velocity": 0.26,
        "hand": "right"
      },
      {
        "midi": 75,
        "time": 50.208,
        "duration": 0.208,
        "velocity": 0.26,
        "hand": "right"
      },
      {
        "midi": 76,
        "time": 50.417,
        "duration": 0.208,
        "velocity": 0.26,
        "hand": "right"
      },
      {
        "midi": 75,
        "time": 50.625,
        "duration": 0.208,
        "velocity": 0.26,
        "hand": "right"
      },
      {
        "midi": 76,
        "time": 50.833,
        "duration": 0.208,
        "velocity": 0.26,
        "hand": "right"
      },
      {
        "midi": 71,
        "time": 51.042,
        "duration": 0.208,
        "velocity": 0.26,
        "hand": "right"
      },
      {
        "midi": 74,
        "time": 51.25,
        "duration": 0.208,
        "velocity": 0.26,
        "hand": "right"
      },
      {
        "midi": 72,
        "time": 51.458,
        "duration": 0.208,
        "velocity": 0.26,
        "hand": "right"
      },
      {
        "midi": 45,
        "time": 51.667,
        "duration": 0.208,
        "velocity": 0.26,
        "hand": "left"
      },
      {
        "midi": 69,
        "time": 51.667,
        "duration": 0.417,
        "velocity": 0.26,
        "hand": "right"
      },
      {
        "midi": 52,
        "time": 51.875,
        "duration": 0.208,
        "velocity": 0.26,
        "hand": "left"
      },
      {
        "midi": 57,
        "time": 52.083,
        "duration": 0.208,
        "velocity": 0.26,
        "hand": "left"
      },
      {
        "midi": 60,
        "time": 52.292,
        "duration": 0.208,
        "velocity": 0.26,
        "hand": "right"
      },
      {
        "midi": 64,
        "time": 52.5,
        "duration": 0.208,
        "velocity": 0.26,
        "hand": "right"
      },
      {
        "midi": 69,
        "time": 52.708,
        "duration": 0.208,
        "velocity": 0.26,
        "hand": "right"
      },
      {
        "midi": 40,
        "time": 52.917,
        "duration": 0.208,
        "velocity": 0.26,
        "hand": "left"
      },
      {
        "midi": 71,
        "time": 52.917,
        "duration": 0.417,
        "velocity": 0.26,
        "hand": "right"
      },
      {
        "midi": 52,
        "time": 53.125,
        "duration": 0.208,
        "velocity": 0.26,
        "hand": "left"
      },
      {
        "midi": 56,
        "time": 53.333,
        "duration": 0.208,
        "velocity": 0.26,
        "hand": "left"
      },
      {
        "midi": 62,
        "time": 53.542,
        "duration": 0.208,
        "velocity": 0.26,
        "hand": "right"
      },
      {
        "midi": 72,
        "time": 53.75,
        "duration": 0.208,
        "velocity": 0.26,
        "hand": "right"
      },
      {
        "midi": 71,
        "time": 53.958,
        "duration": 0.208,
        "velocity": 0.26,
        "hand": "right"
      },
      {
        "midi": 45,
        "time": 54.167,
        "duration": 0.208,
        "velocity": 0.26,
        "hand": "left"
      },
      {
        "midi": 69,
        "time": 54.167,
        "duration": 0.417,
        "velocity": 0.26,
        "hand": "right"
      },
      {
        "midi": 52,
        "time": 54.375,
        "duration": 0.208,
        "velocity": 0.26,
        "hand": "left"
      },
      {
        "midi": 57,
        "time": 54.583,
        "duration": 0.208,
        "velocity": 0.26,
        "hand": "left"
      },
      {
        "midi": 58,
        "time": 54.792,
        "duration": 0.208,
        "velocity": 0.26,
        "hand": "left"
      },
      {
        "midi": 60,
        "time": 54.792,
        "duration": 0.208,
        "velocity": 0.26,
        "hand": "right"
      },
      {
        "midi": 64,
        "time": 54.792,
        "duration": 0.208,
        "velocity": 0.26,
        "hand": "right"
      },
      {
        "midi": 72,
        "time": 54.792,
        "duration": 0.208,
        "velocity": 0.26,
        "hand": "right"
      },
      {
        "midi": 57,
        "time": 55,
        "duration": 0.208,
        "velocity": 0.26,
        "hand": "left"
      },
      {
        "midi": 60,
        "time": 55,
        "duration": 0.208,
        "velocity": 0.26,
        "hand": "right"
      },
      {
        "midi": 65,
        "time": 55,
        "duration": 0.208,
        "velocity": 0.26,
        "hand": "right"
      },
      {
        "midi": 72,
        "time": 55,
        "duration": 0.208,
        "velocity": 0.26,
        "hand": "right"
      },
      {
        "midi": 55,
        "time": 55.208,
        "duration": 0.208,
        "velocity": 0.26,
        "hand": "left"
      },
      {
        "midi": 58,
        "time": 55.208,
        "duration": 0.208,
        "velocity": 0.26,
        "hand": "left"
      },
      {
        "midi": 60,
        "time": 55.208,
        "duration": 0.208,
        "velocity": 0.26,
        "hand": "right"
      },
      {
        "midi": 64,
        "time": 55.208,
        "duration": 0.208,
        "velocity": 0.26,
        "hand": "right"
      },
      {
        "midi": 67,
        "time": 55.208,
        "duration": 0.208,
        "velocity": 0.26,
        "hand": "right"
      },
      {
        "midi": 72,
        "time": 55.208,
        "duration": 0.208,
        "velocity": 0.26,
        "hand": "right"
      },
      {
        "midi": 53,
        "time": 55.417,
        "duration": 0.208,
        "velocity": 0.26,
        "hand": "left"
      },
      {
        "midi": 65,
        "time": 55.417,
        "duration": 0.104,
        "velocity": 0.26,
        "hand": "right"
      },
      {
        "midi": 69,
        "time": 55.417,
        "duration": 0.104,
        "velocity": 0.26,
        "hand": "right"
      },
      {
        "midi": 57,
        "time": 55.625,
        "duration": 0.208,
        "velocity": 0.26,
        "hand": "left"
      },
      {
        "midi": 72,
        "time": 55.625,
        "duration": 0.625,
        "velocity": 0.26,
        "hand": "right"
      },
      {
        "midi": 60,
        "time": 55.833,
        "duration": 0.208,
        "velocity": 0.26,
        "hand": "right"
      },
      {
        "midi": 57,
        "time": 56.042,
        "duration": 0.208,
        "velocity": 0.26,
        "hand": "left"
      },
      {
        "midi": 60,
        "time": 56.25,
        "duration": 0.208,
        "velocity": 0.26,
        "hand": "right"
      },
      {
        "midi": 77,
        "time": 56.25,
        "duration": 0.208,
        "velocity": 0.26,
        "hand": "right"
      },
      {
        "midi": 57,
        "time": 56.458,
        "duration": 0.208,
        "velocity": 0.26,
        "hand": "left"
      },
      {
        "midi": 76,
        "time": 56.458,
        "duration": 0.104,
        "velocity": 0.26,
        "hand": "right"
      },
      {
        "midi": 53,
        "time": 56.667,
        "duration": 0.208,
        "velocity": 0.26,
        "hand": "left"
      },
      {
        "midi": 76,
        "time": 56.667,
        "duration": 0.417,
        "velocity": 0.26,
        "hand": "right"
      },
      {
        "midi": 58,
        "time": 56.875,
        "duration": 0.208,
        "velocity": 0.26,
        "hand": "left"
      },
      {
        "midi": 62,
        "time": 57.083,
        "duration": 0.208,
        "velocity": 0.26,
        "hand": "right"
      },
      {
        "midi": 74,
        "time": 57.083,
        "duration": 0.417,
        "velocity": 0.26,
        "hand": "right"
      },
      {
        "midi": 58,
        "time": 57.292,
        "duration": 0.208,
        "velocity": 0.26,
        "hand": "left"
      },
      {
        "midi": 62,
        "time": 57.5,
        "duration": 0.208,
        "velocity": 0.26,
        "hand": "right"
      },
      {
        "midi": 82,
        "time": 57.5,
        "duration": 0.208,
        "velocity": 0.26,
        "hand": "right"
      },
      {
        "midi": 58,
        "time": 57.708,
        "duration": 0.208,
        "velocity": 0.26,
        "hand": "left"
      },
      {
        "midi": 81,
        "time": 57.708,
        "duration": 0.104,
        "velocity": 0.26,
        "hand": "right"
      },
      {
        "midi": 53,
        "time": 57.917,
        "duration": 0.208,
        "velocity": 0.26,
        "hand": "left"
      },
      {
        "midi": 81,
        "time": 57.917,
        "duration": 0.208,
        "velocity": 0.26,
        "hand": "right"
      },
      {
        "midi": 64,
        "time": 58.125,
        "duration": 0.208,
        "velocity": 0.26,
        "hand": "right"
      },
      {
        "midi": 79,
        "time": 58.125,
        "duration": 0.208,
        "velocity": 0.26,
        "hand": "right"
      },
      {
        "midi": 53,
        "time": 58.333,
        "duration": 0.208,
        "velocity": 0.26,
        "hand": "left"
      },
      {
        "midi": 55,
        "time": 58.333,
        "duration": 0.208,
        "velocity": 0.26,
        "hand": "left"
      },
      {
        "midi": 58,
        "time": 58.333,
        "duration": 0.208,
        "velocity": 0.26,
        "hand": "left"
      },
      {
        "midi": 77,
        "time": 58.333,
        "duration": 0.208,
        "velocity": 0.26,
        "hand": "right"
      },
      {
        "midi": 64,
        "time": 58.542,
        "duration": 0.208,
        "velocity": 0.26,
        "hand": "right"
      },
      {
        "midi": 76,
        "time": 58.542,
        "duration": 0.208,
        "velocity": 0.26,
        "hand": "right"
      },
      {
        "midi": 53,
        "time": 58.75,
        "duration": 0.208,
        "velocity": 0.26,
        "hand": "left"
      },
      {
        "midi": 55,
        "time": 58.75,
        "duration": 0.208,
        "velocity": 0.26,
        "hand": "left"
      },
      {
        "midi": 58,
        "time": 58.75,
        "duration": 0.208,
        "velocity": 0.26,
        "hand": "left"
      },
      {
        "midi": 74,
        "time": 58.75,
        "duration": 0.208,
        "velocity": 0.26,
        "hand": "right"
      },
      {
        "midi": 64,
        "time": 58.958,
        "duration": 0.208,
        "velocity": 0.26,
        "hand": "right"
      },
      {
        "midi": 72,
        "time": 58.958,
        "duration": 0.208,
        "velocity": 0.26,
        "hand": "right"
      },
      {
        "midi": 53,
        "time": 59.167,
        "duration": 0.208,
        "velocity": 0.26,
        "hand": "left"
      },
      {
        "midi": 70,
        "time": 59.167,
        "duration": 0.417,
        "velocity": 0.26,
        "hand": "right"
      },
      {
        "midi": 57,
        "time": 59.375,
        "duration": 0.208,
        "velocity": 0.26,
        "hand": "left"
      },
      {
        "midi": 60,
        "time": 59.583,
        "duration": 0.208,
        "velocity": 0.26,
        "hand": "right"
      },
      {
        "midi": 69,
        "time": 59.583,
        "duration": 0.417,
        "velocity": 0.26,
        "hand": "right"
      },
      {
        "midi": 57,
        "time": 59.792,
        "duration": 0.208,
        "velocity": 0.26,
        "hand": "left"
      },
      {
        "midi": 60,
        "time": 60,
        "duration": 0.208,
        "velocity": 0.26,
        "hand": "right"
      },
      {
        "midi": 67,
        "time": 60,
        "duration": 0.104,
        "velocity": 0.26,
        "hand": "right"
      },
      {
        "midi": 69,
        "time": 60,
        "duration": 0.104,
        "velocity": 0.26,
        "hand": "right"
      },
      {
        "midi": 70,
        "time": 60,
        "duration": 0.104,
        "velocity": 0.26,
        "hand": "right"
      },
      {
        "midi": 57,
        "time": 60.208,
        "duration": 0.208,
        "velocity": 0.26,
        "hand": "left"
      },
      {
        "midi": 69,
        "time": 60.208,
        "duration": 0.104,
        "velocity": 0.26,
        "hand": "right"
      },
      {
        "midi": 70,
        "time": 60.208,
        "duration": 0.104,
        "velocity": 0.26,
        "hand": "right"
      },
      {
        "midi": 53,
        "time": 60.417,
        "duration": 0.208,
        "velocity": 0.26,
        "hand": "left"
      },
      {
        "midi": 72,
        "time": 60.417,
        "duration": 0.833,
        "velocity": 0.26,
        "hand": "right"
      },
      {
        "midi": 57,
        "time": 60.625,
        "duration": 0.208,
        "velocity": 0.26,
        "hand": "left"
      },
      {
        "midi": 60,
        "time": 60.833,
        "duration": 0.208,
        "velocity": 0.26,
        "hand": "right"
      },
      {
        "midi": 57,
        "time": 61.042,
        "duration": 0.208,
        "velocity": 0.26,
        "hand": "left"
      },
      {
        "midi": 60,
        "time": 61.25,
        "duration": 0.208,
        "velocity": 0.26,
        "hand": "right"
      },
      {
        "midi": 74,
        "time": 61.25,
        "duration": 0.208,
        "velocity": 0.26,
        "hand": "right"
      },
      {
        "midi": 57,
        "time": 61.458,
        "duration": 0.208,
        "velocity": 0.26,
        "hand": "left"
      },
      {
        "midi": 75,
        "time": 61.458,
        "duration": 0.208,
        "velocity": 0.26,
        "hand": "right"
      },
      {
        "midi": 52,
        "time": 61.667,
        "duration": 0.208,
        "velocity": 0.26,
        "hand": "left"
      },
      {
        "midi": 76,
        "time": 61.667,
        "duration": 0.625,
        "velocity": 0.26,
        "hand": "right"
      },
      {
        "midi": 57,
        "time": 61.875,
        "duration": 0.208,
        "velocity": 0.26,
        "hand": "left"
      },
      {
        "midi": 60,
        "time": 62.083,
        "duration": 0.208,
        "velocity": 0.26,
        "hand": "right"
      },
      {
        "midi": 57,
        "time": 62.292,
        "duration": 0.208,
        "velocity": 0.26,
        "hand": "left"
      },
      {
        "midi": 76,
        "time": 62.292,
        "duration": 0.208,
        "velocity": 0.26,
        "hand": "right"
      },
      {
        "midi": 50,
        "time": 62.5,
        "duration": 0.208,
        "velocity": 0.26,
        "hand": "left"
      },
      {
        "midi": 62,
        "time": 62.5,
        "duration": 0.208,
        "velocity": 0.26,
        "hand": "right"
      },
      {
        "midi": 77,
        "time": 62.5,
        "duration": 0.208,
        "velocity": 0.26,
        "hand": "right"
      },
      {
        "midi": 53,
        "time": 62.708,
        "duration": 0.208,
        "velocity": 0.26,
        "hand": "left"
      },
      {
        "midi": 69,
        "time": 62.708,
        "duration": 0.208,
        "velocity": 0.26,
        "hand": "right"
      },
      {
        "midi": 55,
        "time": 62.917,
        "duration": 0.208,
        "velocity": 0.26,
        "hand": "left"
      },
      {
        "midi": 72,
        "time": 62.917,
        "duration": 0.833,
        "velocity": 0.26,
        "hand": "right"
      },
      {
        "midi": 64,
        "time": 63.125,
        "duration": 0.208,
        "velocity": 0.26,
        "hand": "right"
      },
      {
        "midi": 55,
        "time": 63.333,
        "duration": 0.208,
        "velocity": 0.26,
        "hand": "left"
      },
      {
        "midi": 65,
        "time": 63.542,
        "duration": 0.208,
        "velocity": 0.26,
        "hand": "right"
      },
      {
        "midi": 55,
        "time": 63.75,
        "duration": 0.208,
        "velocity": 0.26,
        "hand": "left"
      },
      {
        "midi": 74,
        "time": 63.75,
        "duration": 0.208,
        "velocity": 0.26,
        "hand": "right"
      },
      {
        "midi": 65,
        "time": 63.958,
        "duration": 0.208,
        "velocity": 0.26,
        "hand": "right"
      },
      {
        "midi": 71,
        "time": 63.958,
        "duration": 0.104,
        "velocity": 0.26,
        "hand": "right"
      },
      {
        "midi": 60,
        "time": 64.167,
        "duration": 0.417,
        "velocity": 0.26,
        "hand": "right"
      },
      {
        "midi": 64,
        "time": 64.167,
        "duration": 0.417,
        "velocity": 0.26,
        "hand": "right"
      },
      {
        "midi": 72,
        "time": 64.167,
        "duration": 0.104,
        "velocity": 0.26,
        "hand": "right"
      },
      {
        "midi": 79,
        "time": 64.167,
        "duration": 0.104,
        "velocity": 0.26,
        "hand": "right"
      },
      {
        "midi": 67,
        "time": 64.375,
        "duration": 0.104,
        "velocity": 0.26,
        "hand": "right"
      },
      {
        "midi": 79,
        "time": 64.375,
        "duration": 0.104,
        "velocity": 0.26,
        "hand": "right"
      },
      {
        "midi": 69,
        "time": 64.583,
        "duration": 0.104,
        "velocity": 0.26,
        "hand": "right"
      },
      {
        "midi": 79,
        "time": 64.583,
        "duration": 0.104,
        "velocity": 0.26,
        "hand": "right"
      },
      {
        "midi": 65,
        "time": 64.792,
        "duration": 0.208,
        "velocity": 0.26,
        "hand": "right"
      },
      {
        "midi": 67,
        "time": 64.792,
        "duration": 0.208,
        "velocity": 0.26,
        "hand": "right"
      },
      {
        "midi": 71,
        "time": 64.792,
        "duration": 0.104,
        "velocity": 0.26,
        "hand": "right"
      },
      {
        "midi": 79,
        "time": 64.792,
        "duration": 0.104,
        "velocity": 0.26,
        "hand": "right"
      },
      {
        "midi": 64,
        "time": 65,
        "duration": 0.208,
        "velocity": 0.26,
        "hand": "right"
      },
      {
        "midi": 67,
        "time": 65,
        "duration": 0.208,
        "velocity": 0.26,
        "hand": "right"
      },
      {
        "midi": 72,
        "time": 65,
        "duration": 0.104,
        "velocity": 0.26,
        "hand": "right"
      },
      {
        "midi": 79,
        "time": 65,
        "duration": 0.104,
        "velocity": 0.26,
        "hand": "right"
      },
      {
        "midi": 62,
        "time": 65.208,
        "duration": 0.208,
        "velocity": 0.26,
        "hand": "right"
      },
      {
        "midi": 65,
        "time": 65.208,
        "duration": 0.208,
        "velocity": 0.26,
        "hand": "right"
      },
      {
        "midi": 67,
        "time": 65.208,
        "duration": 0.208,
        "velocity": 0.26,
        "hand": "right"
      },
      {
        "midi": 74,
        "time": 65.208,
        "duration": 0.104,
        "velocity": 0.26,
        "hand": "right"
      },
      {
        "midi": 79,
        "time": 65.208,
        "duration": 0.104,
        "velocity": 0.26,
        "hand": "right"
      },
      {
        "midi": 60,
        "time": 65.417,
        "duration": 0.417,
        "velocity": 0.26,
        "hand": "right"
      },
      {
        "midi": 64,
        "time": 65.417,
        "duration": 0.417,
        "velocity": 0.26,
        "hand": "right"
      },
      {
        "midi": 67,
        "time": 65.417,
        "duration": 0.417,
        "velocity": 0.26,
        "hand": "right"
      },
      {
        "midi": 76,
        "time": 65.417,
        "duration": 0.104,
        "velocity": 0.26,
        "hand": "right"
      },
      {
        "midi": 79,
        "time": 65.417,
        "duration": 0.104,
        "velocity": 0.26,
        "hand": "right"
      },
      {
        "midi": 83,
        "time": 65.625,
        "duration": 0.104,
        "velocity": 0.26,
        "hand": "right"
      },
      {
        "midi": 84,
        "time": 65.625,
        "duration": 0.104,
        "velocity": 0.26,
        "hand": "right"
      },
      {
        "midi": 53,
        "time": 65.833,
        "duration": 0.417,
        "velocity": 0.26,
        "hand": "left"
      },
      {
        "midi": 57,
        "time": 65.833,
        "duration": 0.417,
        "velocity": 0.26,
        "hand": "left"
      },
      {
        "midi": 79,
        "time": 65.833,
        "duration": 0.104,
        "velocity": 0.26,
        "hand": "right"
      },
      {
        "midi": 81,
        "time": 65.833,
        "duration": 0.104,
        "velocity": 0.26,
        "hand": "right"
      },
      {
        "midi": 76,
        "time": 66.042,
        "duration": 0.104,
        "velocity": 0.26,
        "hand": "right"
      },
      {
        "midi": 77,
        "time": 66.042,
        "duration": 0.104,
        "velocity": 0.26,
        "hand": "right"
      },
      {
        "midi": 55,
        "time": 66.25,
        "duration": 0.417,
        "velocity": 0.26,
        "hand": "left"
      },
      {
        "midi": 59,
        "time": 66.25,
        "duration": 0.417,
        "velocity": 0.26,
        "hand": "left"
      },
      {
        "midi": 74,
        "time": 66.25,
        "duration": 0.104,
        "velocity": 0.26,
        "hand": "right"
      },
      {
        "midi": 79,
        "time": 66.25,
        "duration": 0.104,
        "velocity": 0.26,
        "hand": "right"
      },
      {
        "midi": 74,
        "time": 66.458,
        "duration": 0.104,
        "velocity": 0.26,
        "hand": "right"
      },
      {
        "midi": 77,
        "time": 66.458,
        "duration": 0.104,
        "velocity": 0.26,
        "hand": "right"
      },
      {
        "midi": 60,
        "time": 66.667,
        "duration": 0.417,
        "velocity": 0.26,
        "hand": "right"
      },
      {
        "midi": 72,
        "time": 66.667,
        "duration": 0.104,
        "velocity": 0.26,
        "hand": "right"
      },
      {
        "midi": 79,
        "time": 66.667,
        "duration": 0.104,
        "velocity": 0.26,
        "hand": "right"
      },
      {
        "midi": 67,
        "time": 66.875,
        "duration": 0.104,
        "velocity": 0.26,
        "hand": "right"
      },
      {
        "midi": 79,
        "time": 66.875,
        "duration": 0.104,
        "velocity": 0.26,
        "hand": "right"
      },
      {
        "midi": 69,
        "time": 67.083,
        "duration": 0.104,
        "velocity": 0.26,
        "hand": "right"
      },
      {
        "midi": 79,
        "time": 67.083,
        "duration": 0.104,
        "velocity": 0.26,
        "hand": "right"
      },
      {
        "midi": 65,
        "time": 67.292,
        "duration": 0.208,
        "velocity": 0.26,
        "hand": "right"
      },
      {
        "midi": 67,
        "time": 67.292,
        "duration": 0.208,
        "velocity": 0.26,
        "hand": "right"
      },
      {
        "midi": 71,
        "time": 67.292,
        "duration": 0.104,
        "velocity": 0.26,
        "hand": "right"
      },
      {
        "midi": 79,
        "time": 67.292,
        "duration": 0.104,
        "velocity": 0.26,
        "hand": "right"
      },
      {
        "midi": 64,
        "time": 67.5,
        "duration": 0.208,
        "velocity": 0.26,
        "hand": "right"
      },
      {
        "midi": 67,
        "time": 67.5,
        "duration": 0.208,
        "velocity": 0.26,
        "hand": "right"
      },
      {
        "midi": 72,
        "time": 67.5,
        "duration": 0.104,
        "velocity": 0.26,
        "hand": "right"
      },
      {
        "midi": 79,
        "time": 67.5,
        "duration": 0.104,
        "velocity": 0.26,
        "hand": "right"
      },
      {
        "midi": 62,
        "time": 67.708,
        "duration": 0.208,
        "velocity": 0.26,
        "hand": "right"
      },
      {
        "midi": 65,
        "time": 67.708,
        "duration": 0.208,
        "velocity": 0.26,
        "hand": "right"
      },
      {
        "midi": 67,
        "time": 67.708,
        "duration": 0.208,
        "velocity": 0.26,
        "hand": "right"
      },
      {
        "midi": 74,
        "time": 67.708,
        "duration": 0.104,
        "velocity": 0.26,
        "hand": "right"
      },
      {
        "midi": 79,
        "time": 67.708,
        "duration": 0.104,
        "velocity": 0.26,
        "hand": "right"
      },
      {
        "midi": 60,
        "time": 67.917,
        "duration": 0.417,
        "velocity": 0.26,
        "hand": "right"
      },
      {
        "midi": 64,
        "time": 67.917,
        "duration": 0.417,
        "velocity": 0.26,
        "hand": "right"
      },
      {
        "midi": 76,
        "time": 67.917,
        "duration": 0.104,
        "velocity": 0.26,
        "hand": "right"
      },
      {
        "midi": 79,
        "time": 67.917,
        "duration": 0.104,
        "velocity": 0.26,
        "hand": "right"
      },
      {
        "midi": 83,
        "time": 68.125,
        "duration": 0.104,
        "velocity": 0.26,
        "hand": "right"
      },
      {
        "midi": 84,
        "time": 68.125,
        "duration": 0.104,
        "velocity": 0.26,
        "hand": "right"
      },
      {
        "midi": 53,
        "time": 68.333,
        "duration": 0.417,
        "velocity": 0.26,
        "hand": "left"
      },
      {
        "midi": 57,
        "time": 68.333,
        "duration": 0.417,
        "velocity": 0.26,
        "hand": "left"
      },
      {
        "midi": 79,
        "time": 68.333,
        "duration": 0.104,
        "velocity": 0.26,
        "hand": "right"
      },
      {
        "midi": 81,
        "time": 68.333,
        "duration": 0.104,
        "velocity": 0.26,
        "hand": "right"
      },
      {
        "midi": 76,
        "time": 68.542,
        "duration": 0.104,
        "velocity": 0.26,
        "hand": "right"
      },
      {
        "midi": 77,
        "time": 68.542,
        "duration": 0.104,
        "velocity": 0.26,
        "hand": "right"
      },
      {
        "midi": 55,
        "time": 68.75,
        "duration": 0.417,
        "velocity": 0.26,
        "hand": "left"
      },
      {
        "midi": 59,
        "time": 68.75,
        "duration": 0.417,
        "velocity": 0.26,
        "hand": "left"
      },
      {
        "midi": 74,
        "time": 68.75,
        "duration": 0.104,
        "velocity": 0.26,
        "hand": "right"
      },
      {
        "midi": 79,
        "time": 68.75,
        "duration": 0.104,
        "velocity": 0.26,
        "hand": "right"
      },
      {
        "midi": 74,
        "time": 68.958,
        "duration": 0.104,
        "velocity": 0.26,
        "hand": "right"
      },
      {
        "midi": 77,
        "time": 68.958,
        "duration": 0.104,
        "velocity": 0.26,
        "hand": "right"
      },
      {
        "midi": 56,
        "time": 69.167,
        "duration": 0.417,
        "velocity": 0.26,
        "hand": "left"
      },
      {
        "midi": 59,
        "time": 69.167,
        "duration": 0.417,
        "velocity": 0.26,
        "hand": "left"
      },
      {
        "midi": 76,
        "time": 69.167,
        "duration": 0.104,
        "velocity": 0.26,
        "hand": "right"
      },
      {
        "midi": 77,
        "time": 69.167,
        "duration": 0.104,
        "velocity": 0.26,
        "hand": "right"
      },
      {
        "midi": 75,
        "time": 69.375,
        "duration": 0.104,
        "velocity": 0.26,
        "hand": "right"
      },
      {
        "midi": 76,
        "time": 69.375,
        "duration": 0.104,
        "velocity": 0.26,
        "hand": "right"
      },
      {
        "midi": 71,
        "time": 69.583,
        "duration": 0.104,
        "velocity": 0.26,
        "hand": "right"
      },
      {
        "midi": 76,
        "time": 69.583,
        "duration": 0.104,
        "velocity": 0.26,
        "hand": "right"
      },
      {
        "midi": 75,
        "time": 69.792,
        "duration": 0.104,
        "velocity": 0.26,
        "hand": "right"
      },
      {
        "midi": 76,
        "time": 69.792,
        "duration": 0.104,
        "velocity": 0.26,
        "hand": "right"
      },
      {
        "midi": 71,
        "time": 70,
        "duration": 0.104,
        "velocity": 0.26,
        "hand": "right"
      },
      {
        "midi": 76,
        "time": 70,
        "duration": 0.104,
        "velocity": 0.26,
        "hand": "right"
      },
      {
        "midi": 75,
        "time": 70.208,
        "duration": 0.104,
        "velocity": 0.26,
        "hand": "right"
      },
      {
        "midi": 76,
        "time": 70.208,
        "duration": 0.104,
        "velocity": 0.26,
        "hand": "right"
      },
      {
        "midi": 76,
        "time": 70.417,
        "duration": 0.625,
        "velocity": 0.26,
        "hand": "right"
      },
      {
        "midi": 71,
        "time": 71.042,
        "duration": 0.208,
        "velocity": 0.26,
        "hand": "right"
      },
      {
        "midi": 76,
        "time": 71.25,
        "duration": 0.208,
        "velocity": 0.26,
        "hand": "right"
      },
      {
        "midi": 75,
        "time": 71.458,
        "duration": 0.208,
        "velocity": 0.26,
        "hand": "right"
      },
      {
        "midi": 76,
        "time": 71.667,
        "duration": 0.625,
        "velocity": 0.26,
        "hand": "right"
      },
      {
        "midi": 71,
        "time": 72.292,
        "duration": 0.208,
        "velocity": 0.26,
        "hand": "right"
      },
      {
        "midi": 76,
        "time": 72.5,
        "duration": 0.208,
        "velocity": 0.26,
        "hand": "right"
      },
      {
        "midi": 75,
        "time": 72.708,
        "duration": 0.208,
        "velocity": 0.26,
        "hand": "right"
      },
      {
        "midi": 76,
        "time": 72.917,
        "duration": 0.208,
        "velocity": 0.26,
        "hand": "right"
      },
      {
        "midi": 75,
        "time": 73.125,
        "duration": 0.208,
        "velocity": 0.26,
        "hand": "right"
      },
      {
        "midi": 76,
        "time": 73.333,
        "duration": 0.208,
        "velocity": 0.26,
        "hand": "right"
      },
      {
        "midi": 75,
        "time": 73.542,
        "duration": 0.208,
        "velocity": 0.26,
        "hand": "right"
      },
      {
        "midi": 76,
        "time": 73.75,
        "duration": 0.208,
        "velocity": 0.26,
        "hand": "right"
      },
      {
        "midi": 75,
        "time": 73.958,
        "duration": 0.208,
        "velocity": 0.26,
        "hand": "right"
      },
      {
        "midi": 76,
        "time": 74.167,
        "duration": 0.208,
        "velocity": 0.26,
        "hand": "right"
      },
      {
        "midi": 75,
        "time": 74.375,
        "duration": 0.208,
        "velocity": 0.26,
        "hand": "right"
      },
      {
        "midi": 76,
        "time": 74.583,
        "duration": 0.208,
        "velocity": 0.26,
        "hand": "right"
      },
      {
        "midi": 71,
        "time": 74.792,
        "duration": 0.208,
        "velocity": 0.26,
        "hand": "right"
      },
      {
        "midi": 74,
        "time": 75,
        "duration": 0.208,
        "velocity": 0.26,
        "hand": "right"
      },
      {
        "midi": 72,
        "time": 75.208,
        "duration": 0.208,
        "velocity": 0.26,
        "hand": "right"
      },
      {
        "midi": 45,
        "time": 75.417,
        "duration": 0.208,
        "velocity": 0.26,
        "hand": "left"
      },
      {
        "midi": 69,
        "time": 75.417,
        "duration": 0.417,
        "velocity": 0.26,
        "hand": "right"
      },
      {
        "midi": 52,
        "time": 75.625,
        "duration": 0.208,
        "velocity": 0.26,
        "hand": "left"
      },
      {
        "midi": 57,
        "time": 75.833,
        "duration": 0.208,
        "velocity": 0.26,
        "hand": "left"
      },
      {
        "midi": 60,
        "time": 76.042,
        "duration": 0.208,
        "velocity": 0.26,
        "hand": "right"
      },
      {
        "midi": 64,
        "time": 76.25,
        "duration": 0.208,
        "velocity": 0.26,
        "hand": "right"
      },
      {
        "midi": 69,
        "time": 76.458,
        "duration": 0.208,
        "velocity": 0.26,
        "hand": "right"
      },
      {
        "midi": 40,
        "time": 76.667,
        "duration": 0.208,
        "velocity": 0.26,
        "hand": "left"
      },
      {
        "midi": 71,
        "time": 76.667,
        "duration": 0.417,
        "velocity": 0.26,
        "hand": "right"
      },
      {
        "midi": 52,
        "time": 76.875,
        "duration": 0.208,
        "velocity": 0.26,
        "hand": "left"
      },
      {
        "midi": 56,
        "time": 77.083,
        "duration": 0.208,
        "velocity": 0.26,
        "hand": "left"
      },
      {
        "midi": 64,
        "time": 77.292,
        "duration": 0.208,
        "velocity": 0.26,
        "hand": "right"
      },
      {
        "midi": 68,
        "time": 77.5,
        "duration": 0.208,
        "velocity": 0.26,
        "hand": "right"
      },
      {
        "midi": 71,
        "time": 77.708,
        "duration": 0.208,
        "velocity": 0.26,
        "hand": "right"
      },
      {
        "midi": 45,
        "time": 77.917,
        "duration": 0.208,
        "velocity": 0.26,
        "hand": "left"
      },
      {
        "midi": 72,
        "time": 77.917,
        "duration": 0.417,
        "velocity": 0.26,
        "hand": "right"
      },
      {
        "midi": 52,
        "time": 78.125,
        "duration": 0.208,
        "velocity": 0.26,
        "hand": "left"
      },
      {
        "midi": 57,
        "time": 78.333,
        "duration": 0.208,
        "velocity": 0.26,
        "hand": "left"
      },
      {
        "midi": 64,
        "time": 78.542,
        "duration": 0.208,
        "velocity": 0.26,
        "hand": "right"
      },
      {
        "midi": 76,
        "time": 78.75,
        "duration": 0.208,
        "velocity": 0.26,
        "hand": "right"
      },
      {
        "midi": 75,
        "time": 78.958,
        "duration": 0.208,
        "velocity": 0.26,
        "hand": "right"
      },
      {
        "midi": 76,
        "time": 79.167,
        "duration": 0.208,
        "velocity": 0.26,
        "hand": "right"
      },
      {
        "midi": 75,
        "time": 79.375,
        "duration": 0.208,
        "velocity": 0.26,
        "hand": "right"
      },
      {
        "midi": 76,
        "time": 79.583,
        "duration": 0.208,
        "velocity": 0.26,
        "hand": "right"
      },
      {
        "midi": 71,
        "time": 79.792,
        "duration": 0.208,
        "velocity": 0.26,
        "hand": "right"
      },
      {
        "midi": 74,
        "time": 80,
        "duration": 0.208,
        "velocity": 0.26,
        "hand": "right"
      },
      {
        "midi": 72,
        "time": 80.208,
        "duration": 0.208,
        "velocity": 0.26,
        "hand": "right"
      },
      {
        "midi": 45,
        "time": 80.417,
        "duration": 0.208,
        "velocity": 0.26,
        "hand": "left"
      },
      {
        "midi": 69,
        "time": 80.417,
        "duration": 0.417,
        "velocity": 0.26,
        "hand": "right"
      },
      {
        "midi": 52,
        "time": 80.625,
        "duration": 0.208,
        "velocity": 0.26,
        "hand": "left"
      },
      {
        "midi": 57,
        "time": 80.833,
        "duration": 0.208,
        "velocity": 0.26,
        "hand": "left"
      },
      {
        "midi": 60,
        "time": 81.042,
        "duration": 0.208,
        "velocity": 0.26,
        "hand": "right"
      },
      {
        "midi": 64,
        "time": 81.25,
        "duration": 0.208,
        "velocity": 0.26,
        "hand": "right"
      },
      {
        "midi": 69,
        "time": 81.458,
        "duration": 0.208,
        "velocity": 0.26,
        "hand": "right"
      },
      {
        "midi": 40,
        "time": 81.667,
        "duration": 0.208,
        "velocity": 0.26,
        "hand": "left"
      },
      {
        "midi": 71,
        "time": 81.667,
        "duration": 0.417,
        "velocity": 0.26,
        "hand": "right"
      },
      {
        "midi": 52,
        "time": 81.875,
        "duration": 0.208,
        "velocity": 0.26,
        "hand": "left"
      },
      {
        "midi": 56,
        "time": 82.083,
        "duration": 0.208,
        "velocity": 0.26,
        "hand": "left"
      },
      {
        "midi": 62,
        "time": 82.292,
        "duration": 0.208,
        "velocity": 0.26,
        "hand": "right"
      },
      {
        "midi": 72,
        "time": 82.5,
        "duration": 0.208,
        "velocity": 0.26,
        "hand": "right"
      },
      {
        "midi": 71,
        "time": 82.708,
        "duration": 0.208,
        "velocity": 0.26,
        "hand": "right"
      },
      {
        "midi": 45,
        "time": 82.917,
        "duration": 0.208,
        "velocity": 0.26,
        "hand": "left"
      },
      {
        "midi": 69,
        "time": 82.917,
        "duration": 0.417,
        "velocity": 0.26,
        "hand": "right"
      },
      {
        "midi": 52,
        "time": 83.125,
        "duration": 0.208,
        "velocity": 0.26,
        "hand": "left"
      },
      {
        "midi": 57,
        "time": 83.333,
        "duration": 0.208,
        "velocity": 0.26,
        "hand": "left"
      },
      {
        "midi": 71,
        "time": 83.542,
        "duration": 0.208,
        "velocity": 0.26,
        "hand": "right"
      },
      {
        "midi": 72,
        "time": 83.75,
        "duration": 0.208,
        "velocity": 0.26,
        "hand": "right"
      },
      {
        "midi": 74,
        "time": 83.958,
        "duration": 0.208,
        "velocity": 0.26,
        "hand": "right"
      },
      {
        "midi": 48,
        "time": 84.167,
        "duration": 0.208,
        "velocity": 0.26,
        "hand": "left"
      },
      {
        "midi": 76,
        "time": 84.167,
        "duration": 0.625,
        "velocity": 0.26,
        "hand": "right"
      },
      {
        "midi": 55,
        "time": 84.375,
        "duration": 0.208,
        "velocity": 0.26,
        "hand": "left"
      },
      {
        "midi": 60,
        "time": 84.583,
        "duration": 0.208,
        "velocity": 0.26,
        "hand": "right"
      },
      {
        "midi": 67,
        "time": 84.792,
        "duration": 0.208,
        "velocity": 0.26,
        "hand": "right"
      },
      {
        "midi": 77,
        "time": 85,
        "duration": 0.208,
        "velocity": 0.26,
        "hand": "right"
      },
      {
        "midi": 76,
        "time": 85.208,
        "duration": 0.208,
        "velocity": 0.26,
        "hand": "right"
      },
      {
        "midi": 43,
        "time": 85.417,
        "duration": 0.208,
        "velocity": 0.26,
        "hand": "left"
      },
      {
        "midi": 74,
        "time": 85.417,
        "duration": 0.625,
        "velocity": 0.26,
        "hand": "right"
      },
      {
        "midi": 55,
        "time": 85.625,
        "duration": 0.208,
        "velocity": 0.26,
        "hand": "left"
      },
      {
        "midi": 59,
        "time": 85.833,
        "duration": 0.208,
        "velocity": 0.26,
        "hand": "left"
      },
      {
        "midi": 65,
        "time": 86.042,
        "duration": 0.208,
        "velocity": 0.26,
        "hand": "right"
      },
      {
        "midi": 76,
        "time": 86.25,
        "duration": 0.208,
        "velocity": 0.26,
        "hand": "right"
      },
      {
        "midi": 74,
        "time": 86.458,
        "duration": 0.208,
        "velocity": 0.26,
        "hand": "right"
      },
      {
        "midi": 45,
        "time": 86.667,
        "duration": 0.208,
        "velocity": 0.26,
        "hand": "left"
      },
      {
        "midi": 72,
        "time": 86.667,
        "duration": 0.625,
        "velocity": 0.26,
        "hand": "right"
      },
      {
        "midi": 52,
        "time": 86.875,
        "duration": 0.208,
        "velocity": 0.26,
        "hand": "left"
      },
      {
        "midi": 57,
        "time": 87.083,
        "duration": 0.208,
        "velocity": 0.26,
        "hand": "left"
      },
      {
        "midi": 64,
        "time": 87.292,
        "duration": 0.208,
        "velocity": 0.26,
        "hand": "right"
      },
      {
        "midi": 74,
        "time": 87.5,
        "duration": 0.208,
        "velocity": 0.26,
        "hand": "right"
      },
      {
        "midi": 72,
        "time": 87.708,
        "duration": 0.208,
        "velocity": 0.26,
        "hand": "right"
      },
      {
        "midi": 40,
        "time": 87.917,
        "duration": 0.208,
        "velocity": 0.26,
        "hand": "left"
      },
      {
        "midi": 71,
        "time": 87.917,
        "duration": 0.417,
        "velocity": 0.26,
        "hand": "right"
      },
      {
        "midi": 52,
        "time": 88.125,
        "duration": 0.208,
        "velocity": 0.26,
        "hand": "left"
      },
      {
        "midi": 64,
        "time": 88.333,
        "duration": 0.208,
        "velocity": 0.26,
        "hand": "right"
      },
      {
        "midi": 64,
        "time": 88.542,
        "duration": 0.208,
        "velocity": 0.26,
        "hand": "right"
      },
      {
        "midi": 76,
        "time": 88.75,
        "duration": 0.208,
        "velocity": 0.26,
        "hand": "right"
      },
      {
        "midi": 64,
        "time": 88.958,
        "duration": 0.208,
        "velocity": 0.26,
        "hand": "right"
      },
      {
        "midi": 76,
        "time": 89.167,
        "duration": 0.208,
        "velocity": 0.26,
        "hand": "right"
      },
      {
        "midi": 76,
        "time": 89.375,
        "duration": 0.208,
        "velocity": 0.26,
        "hand": "right"
      },
      {
        "midi": 88,
        "time": 89.583,
        "duration": 0.208,
        "velocity": 0.26,
        "hand": "right"
      },
      {
        "midi": 75,
        "time": 89.792,
        "duration": 0.208,
        "velocity": 0.26,
        "hand": "right"
      },
      {
        "midi": 76,
        "time": 90,
        "duration": 0.208,
        "velocity": 0.26,
        "hand": "right"
      },
      {
        "midi": 75,
        "time": 90.208,
        "duration": 0.208,
        "velocity": 0.26,
        "hand": "right"
      },
      {
        "midi": 76,
        "time": 90.417,
        "duration": 0.417,
        "velocity": 0.26,
        "hand": "right"
      },
      {
        "midi": 75,
        "time": 90.625,
        "duration": 0.208,
        "velocity": 0.26,
        "hand": "right"
      },
      {
        "midi": 76,
        "time": 90.833,
        "duration": 0.208,
        "velocity": 0.26,
        "hand": "right"
      },
      {
        "midi": 75,
        "time": 91.042,
        "duration": 0.208,
        "velocity": 0.26,
        "hand": "right"
      },
      {
        "midi": 76,
        "time": 91.25,
        "duration": 0.208,
        "velocity": 0.26,
        "hand": "right"
      },
      {
        "midi": 75,
        "time": 91.458,
        "duration": 0.208,
        "velocity": 0.26,
        "hand": "right"
      },
      {
        "midi": 76,
        "time": 91.667,
        "duration": 0.208,
        "velocity": 0.26,
        "hand": "right"
      },
      {
        "midi": 75,
        "time": 91.875,
        "duration": 0.208,
        "velocity": 0.26,
        "hand": "right"
      },
      {
        "midi": 76,
        "time": 92.083,
        "duration": 0.208,
        "velocity": 0.26,
        "hand": "right"
      },
      {
        "midi": 71,
        "time": 92.292,
        "duration": 0.208,
        "velocity": 0.26,
        "hand": "right"
      },
      {
        "midi": 74,
        "time": 92.5,
        "duration": 0.208,
        "velocity": 0.26,
        "hand": "right"
      },
      {
        "midi": 72,
        "time": 92.708,
        "duration": 0.208,
        "velocity": 0.26,
        "hand": "right"
      },
      {
        "midi": 45,
        "time": 92.917,
        "duration": 0.208,
        "velocity": 0.26,
        "hand": "left"
      },
      {
        "midi": 69,
        "time": 92.917,
        "duration": 0.417,
        "velocity": 0.26,
        "hand": "right"
      },
      {
        "midi": 52,
        "time": 93.125,
        "duration": 0.208,
        "velocity": 0.26,
        "hand": "left"
      },
      {
        "midi": 57,
        "time": 93.333,
        "duration": 0.208,
        "velocity": 0.26,
        "hand": "left"
      },
      {
        "midi": 60,
        "time": 93.542,
        "duration": 0.208,
        "velocity": 0.26,
        "hand": "right"
      },
      {
        "midi": 64,
        "time": 93.75,
        "duration": 0.208,
        "velocity": 0.26,
        "hand": "right"
      },
      {
        "midi": 69,
        "time": 93.958,
        "duration": 0.208,
        "velocity": 0.26,
        "hand": "right"
      },
      {
        "midi": 40,
        "time": 94.167,
        "duration": 0.208,
        "velocity": 0.26,
        "hand": "left"
      },
      {
        "midi": 71,
        "time": 94.167,
        "duration": 0.417,
        "velocity": 0.26,
        "hand": "right"
      },
      {
        "midi": 52,
        "time": 94.375,
        "duration": 0.208,
        "velocity": 0.26,
        "hand": "left"
      },
      {
        "midi": 56,
        "time": 94.583,
        "duration": 0.208,
        "velocity": 0.26,
        "hand": "left"
      },
      {
        "midi": 64,
        "time": 94.792,
        "duration": 0.208,
        "velocity": 0.26,
        "hand": "right"
      },
      {
        "midi": 68,
        "time": 95,
        "duration": 0.208,
        "velocity": 0.26,
        "hand": "right"
      },
      {
        "midi": 71,
        "time": 95.208,
        "duration": 0.208,
        "velocity": 0.26,
        "hand": "right"
      },
      {
        "midi": 45,
        "time": 95.417,
        "duration": 0.208,
        "velocity": 0.26,
        "hand": "left"
      },
      {
        "midi": 72,
        "time": 95.417,
        "duration": 0.417,
        "velocity": 0.26,
        "hand": "right"
      },
      {
        "midi": 52,
        "time": 95.625,
        "duration": 0.208,
        "velocity": 0.26,
        "hand": "left"
      },
      {
        "midi": 57,
        "time": 95.833,
        "duration": 0.208,
        "velocity": 0.26,
        "hand": "left"
      },
      {
        "midi": 64,
        "time": 96.042,
        "duration": 0.208,
        "velocity": 0.26,
        "hand": "right"
      },
      {
        "midi": 76,
        "time": 96.25,
        "duration": 0.208,
        "velocity": 0.26,
        "hand": "right"
      },
      {
        "midi": 75,
        "time": 96.458,
        "duration": 0.208,
        "velocity": 0.26,
        "hand": "right"
      },
      {
        "midi": 76,
        "time": 96.667,
        "duration": 0.208,
        "velocity": 0.26,
        "hand": "right"
      },
      {
        "midi": 75,
        "time": 96.875,
        "duration": 0.208,
        "velocity": 0.26,
        "hand": "right"
      },
      {
        "midi": 76,
        "time": 97.083,
        "duration": 0.208,
        "velocity": 0.26,
        "hand": "right"
      },
      {
        "midi": 71,
        "time": 97.292,
        "duration": 0.208,
        "velocity": 0.26,
        "hand": "right"
      },
      {
        "midi": 74,
        "time": 97.5,
        "duration": 0.208,
        "velocity": 0.26,
        "hand": "right"
      },
      {
        "midi": 72,
        "time": 97.708,
        "duration": 0.208,
        "velocity": 0.26,
        "hand": "right"
      },
      {
        "midi": 45,
        "time": 97.917,
        "duration": 0.208,
        "velocity": 0.26,
        "hand": "left"
      },
      {
        "midi": 69,
        "time": 97.917,
        "duration": 0.417,
        "velocity": 0.26,
        "hand": "right"
      },
      {
        "midi": 52,
        "time": 98.125,
        "duration": 0.208,
        "velocity": 0.26,
        "hand": "left"
      },
      {
        "midi": 57,
        "time": 98.333,
        "duration": 0.208,
        "velocity": 0.26,
        "hand": "left"
      },
      {
        "midi": 60,
        "time": 98.542,
        "duration": 0.208,
        "velocity": 0.26,
        "hand": "right"
      },
      {
        "midi": 64,
        "time": 98.75,
        "duration": 0.208,
        "velocity": 0.26,
        "hand": "right"
      },
      {
        "midi": 69,
        "time": 98.958,
        "duration": 0.208,
        "velocity": 0.26,
        "hand": "right"
      },
      {
        "midi": 40,
        "time": 99.167,
        "duration": 0.208,
        "velocity": 0.26,
        "hand": "left"
      },
      {
        "midi": 71,
        "time": 99.167,
        "duration": 0.417,
        "velocity": 0.26,
        "hand": "right"
      },
      {
        "midi": 52,
        "time": 99.375,
        "duration": 0.208,
        "velocity": 0.26,
        "hand": "left"
      },
      {
        "midi": 56,
        "time": 99.583,
        "duration": 0.208,
        "velocity": 0.26,
        "hand": "left"
      },
      {
        "midi": 62,
        "time": 99.792,
        "duration": 0.208,
        "velocity": 0.26,
        "hand": "right"
      },
      {
        "midi": 72,
        "time": 100,
        "duration": 0.208,
        "velocity": 0.26,
        "hand": "right"
      },
      {
        "midi": 71,
        "time": 100.208,
        "duration": 0.208,
        "velocity": 0.26,
        "hand": "right"
      },
      {
        "midi": 45,
        "time": 100.417,
        "duration": 0.208,
        "velocity": 0.26,
        "hand": "left"
      },
      {
        "midi": 69,
        "time": 100.417,
        "duration": 0.417,
        "velocity": 0.26,
        "hand": "right"
      },
      {
        "midi": 45,
        "time": 100.625,
        "duration": 0.208,
        "velocity": 0.26,
        "hand": "left"
      },
      {
        "midi": 45,
        "time": 100.833,
        "duration": 0.208,
        "velocity": 0.26,
        "hand": "left"
      },
      {
        "midi": 45,
        "time": 101.042,
        "duration": 0.208,
        "velocity": 0.26,
        "hand": "left"
      },
      {
        "midi": 45,
        "time": 101.25,
        "duration": 0.208,
        "velocity": 0.26,
        "hand": "left"
      },
      {
        "midi": 45,
        "time": 101.458,
        "duration": 0.208,
        "velocity": 0.26,
        "hand": "left"
      },
      {
        "midi": 45,
        "time": 101.667,
        "duration": 0.208,
        "velocity": 0.26,
        "hand": "left"
      },
      {
        "midi": 64,
        "time": 101.667,
        "duration": 1.25,
        "velocity": 0.26,
        "hand": "right"
      },
      {
        "midi": 67,
        "time": 101.667,
        "duration": 1.25,
        "velocity": 0.26,
        "hand": "right"
      },
      {
        "midi": 70,
        "time": 101.667,
        "duration": 1.25,
        "velocity": 0.26,
        "hand": "right"
      },
      {
        "midi": 73,
        "time": 101.667,
        "duration": 1.25,
        "velocity": 0.26,
        "hand": "right"
      },
      {
        "midi": 45,
        "time": 101.875,
        "duration": 0.208,
        "velocity": 0.26,
        "hand": "left"
      },
      {
        "midi": 45,
        "time": 102.083,
        "duration": 0.208,
        "velocity": 0.26,
        "hand": "left"
      },
      {
        "midi": 45,
        "time": 102.292,
        "duration": 0.208,
        "velocity": 0.26,
        "hand": "left"
      },
      {
        "midi": 45,
        "time": 102.5,
        "duration": 0.208,
        "velocity": 0.26,
        "hand": "left"
      },
      {
        "midi": 45,
        "time": 102.708,
        "duration": 0.208,
        "velocity": 0.26,
        "hand": "left"
      },
      {
        "midi": 45,
        "time": 102.917,
        "duration": 0.208,
        "velocity": 0.26,
        "hand": "left"
      },
      {
        "midi": 65,
        "time": 102.917,
        "duration": 0.833,
        "velocity": 0.26,
        "hand": "right"
      },
      {
        "midi": 69,
        "time": 102.917,
        "duration": 0.833,
        "velocity": 0.26,
        "hand": "right"
      },
      {
        "midi": 74,
        "time": 102.917,
        "duration": 0.833,
        "velocity": 0.26,
        "hand": "right"
      },
      {
        "midi": 45,
        "time": 103.125,
        "duration": 0.208,
        "velocity": 0.26,
        "hand": "left"
      },
      {
        "midi": 45,
        "time": 103.333,
        "duration": 0.208,
        "velocity": 0.26,
        "hand": "left"
      },
      {
        "midi": 45,
        "time": 103.542,
        "duration": 0.208,
        "velocity": 0.26,
        "hand": "left"
      },
      {
        "midi": 45,
        "time": 103.75,
        "duration": 0.208,
        "velocity": 0.26,
        "hand": "left"
      },
      {
        "midi": 73,
        "time": 103.75,
        "duration": 0.208,
        "velocity": 0.26,
        "hand": "right"
      },
      {
        "midi": 76,
        "time": 103.75,
        "duration": 0.208,
        "velocity": 0.26,
        "hand": "right"
      },
      {
        "midi": 45,
        "time": 103.958,
        "duration": 0.208,
        "velocity": 0.26,
        "hand": "left"
      },
      {
        "midi": 74,
        "time": 103.958,
        "duration": 0.208,
        "velocity": 0.26,
        "hand": "right"
      },
      {
        "midi": 77,
        "time": 103.958,
        "duration": 0.208,
        "velocity": 0.26,
        "hand": "right"
      },
      {
        "midi": 45,
        "time": 104.167,
        "duration": 0.208,
        "velocity": 0.26,
        "hand": "left"
      },
      {
        "midi": 68,
        "time": 104.167,
        "duration": 0.833,
        "velocity": 0.26,
        "hand": "right"
      },
      {
        "midi": 74,
        "time": 104.167,
        "duration": 0.833,
        "velocity": 0.26,
        "hand": "right"
      },
      {
        "midi": 77,
        "time": 104.167,
        "duration": 0.833,
        "velocity": 0.26,
        "hand": "right"
      },
      {
        "midi": 45,
        "time": 104.375,
        "duration": 0.208,
        "velocity": 0.26,
        "hand": "left"
      },
      {
        "midi": 45,
        "time": 104.583,
        "duration": 0.208,
        "velocity": 0.26,
        "hand": "left"
      },
      {
        "midi": 45,
        "time": 104.792,
        "duration": 0.208,
        "velocity": 0.26,
        "hand": "left"
      },
      {
        "midi": 45,
        "time": 105,
        "duration": 0.208,
        "velocity": 0.26,
        "hand": "left"
      },
      {
        "midi": 68,
        "time": 105,
        "duration": 0.417,
        "velocity": 0.26,
        "hand": "right"
      },
      {
        "midi": 74,
        "time": 105,
        "duration": 0.417,
        "velocity": 0.26,
        "hand": "right"
      },
      {
        "midi": 77,
        "time": 105,
        "duration": 0.417,
        "velocity": 0.26,
        "hand": "right"
      },
      {
        "midi": 45,
        "time": 105.208,
        "duration": 0.208,
        "velocity": 0.26,
        "hand": "left"
      },
      {
        "midi": 45,
        "time": 105.417,
        "duration": 0.208,
        "velocity": 0.26,
        "hand": "left"
      },
      {
        "midi": 69,
        "time": 105.417,
        "duration": 1.25,
        "velocity": 0.26,
        "hand": "right"
      },
      {
        "midi": 72,
        "time": 105.417,
        "duration": 1.25,
        "velocity": 0.26,
        "hand": "right"
      },
      {
        "midi": 76,
        "time": 105.417,
        "duration": 1.25,
        "velocity": 0.26,
        "hand": "right"
      },
      {
        "midi": 45,
        "time": 105.625,
        "duration": 0.208,
        "velocity": 0.26,
        "hand": "left"
      },
      {
        "midi": 45,
        "time": 105.833,
        "duration": 0.208,
        "velocity": 0.26,
        "hand": "left"
      },
      {
        "midi": 45,
        "time": 106.042,
        "duration": 0.208,
        "velocity": 0.26,
        "hand": "left"
      },
      {
        "midi": 45,
        "time": 106.25,
        "duration": 0.208,
        "velocity": 0.26,
        "hand": "left"
      },
      {
        "midi": 45,
        "time": 106.458,
        "duration": 0.208,
        "velocity": 0.26,
        "hand": "left"
      },
      {
        "midi": 38,
        "time": 106.667,
        "duration": 0.208,
        "velocity": 0.26,
        "hand": "left"
      },
      {
        "midi": 45,
        "time": 106.667,
        "duration": 0.208,
        "velocity": 0.26,
        "hand": "left"
      },
      {
        "midi": 65,
        "time": 106.667,
        "duration": 0.833,
        "velocity": 0.26,
        "hand": "right"
      },
      {
        "midi": 74,
        "time": 106.667,
        "duration": 0.833,
        "velocity": 0.26,
        "hand": "right"
      },
      {
        "midi": 38,
        "time": 106.875,
        "duration": 0.208,
        "velocity": 0.26,
        "hand": "left"
      },
      {
        "midi": 45,
        "time": 106.875,
        "duration": 0.208,
        "velocity": 0.26,
        "hand": "left"
      },
      {
        "midi": 38,
        "time": 107.083,
        "duration": 0.208,
        "velocity": 0.26,
        "hand": "left"
      },
      {
        "midi": 45,
        "time": 107.083,
        "duration": 0.208,
        "velocity": 0.26,
        "hand": "left"
      },
      {
        "midi": 38,
        "time": 107.292,
        "duration": 0.208,
        "velocity": 0.26,
        "hand": "left"
      },
      {
        "midi": 45,
        "time": 107.292,
        "duration": 0.208,
        "velocity": 0.26,
        "hand": "left"
      },
      {
        "midi": 38,
        "time": 107.5,
        "duration": 0.208,
        "velocity": 0.26,
        "hand": "left"
      },
      {
        "midi": 45,
        "time": 107.5,
        "duration": 0.208,
        "velocity": 0.26,
        "hand": "left"
      },
      {
        "midi": 64,
        "time": 107.5,
        "duration": 0.208,
        "velocity": 0.26,
        "hand": "right"
      },
      {
        "midi": 72,
        "time": 107.5,
        "duration": 0.208,
        "velocity": 0.26,
        "hand": "right"
      },
      {
        "midi": 38,
        "time": 107.708,
        "duration": 0.208,
        "velocity": 0.26,
        "hand": "left"
      },
      {
        "midi": 45,
        "time": 107.708,
        "duration": 0.208,
        "velocity": 0.26,
        "hand": "left"
      },
      {
        "midi": 62,
        "time": 107.708,
        "duration": 0.208,
        "velocity": 0.26,
        "hand": "right"
      },
      {
        "midi": 71,
        "time": 107.708,
        "duration": 0.208,
        "velocity": 0.26,
        "hand": "right"
      },
      {
        "midi": 39,
        "time": 107.917,
        "duration": 0.208,
        "velocity": 0.26,
        "hand": "left"
      },
      {
        "midi": 45,
        "time": 107.917,
        "duration": 0.208,
        "velocity": 0.26,
        "hand": "left"
      },
      {
        "midi": 60,
        "time": 107.917,
        "duration": 0.833,
        "velocity": 0.26,
        "hand": "right"
      },
      {
        "midi": 66,
        "time": 107.917,
        "duration": 0.833,
        "velocity": 0.26,
        "hand": "right"
      },
      {
        "midi": 69,
        "time": 107.917,
        "duration": 0.833,
        "velocity": 0.26,
        "hand": "right"
      },
      {
        "midi": 39,
        "time": 108.125,
        "duration": 0.208,
        "velocity": 0.26,
        "hand": "left"
      },
      {
        "midi": 45,
        "time": 108.125,
        "duration": 0.208,
        "velocity": 0.26,
        "hand": "left"
      },
      {
        "midi": 39,
        "time": 108.333,
        "duration": 0.208,
        "velocity": 0.26,
        "hand": "left"
      },
      {
        "midi": 45,
        "time": 108.333,
        "duration": 0.208,
        "velocity": 0.26,
        "hand": "left"
      },
      {
        "midi": 39,
        "time": 108.542,
        "duration": 0.208,
        "velocity": 0.26,
        "hand": "left"
      },
      {
        "midi": 45,
        "time": 108.542,
        "duration": 0.208,
        "velocity": 0.26,
        "hand": "left"
      },
      {
        "midi": 39,
        "time": 108.75,
        "duration": 0.208,
        "velocity": 0.26,
        "hand": "left"
      },
      {
        "midi": 45,
        "time": 108.75,
        "duration": 0.208,
        "velocity": 0.26,
        "hand": "left"
      },
      {
        "midi": 60,
        "time": 108.75,
        "duration": 0.417,
        "velocity": 0.26,
        "hand": "right"
      },
      {
        "midi": 69,
        "time": 108.75,
        "duration": 0.417,
        "velocity": 0.26,
        "hand": "right"
      },
      {
        "midi": 39,
        "time": 108.958,
        "duration": 0.208,
        "velocity": 0.26,
        "hand": "left"
      },
      {
        "midi": 45,
        "time": 108.958,
        "duration": 0.208,
        "velocity": 0.26,
        "hand": "left"
      },
      {
        "midi": 40,
        "time": 109.167,
        "duration": 0.208,
        "velocity": 0.26,
        "hand": "left"
      },
      {
        "midi": 45,
        "time": 109.167,
        "duration": 0.208,
        "velocity": 0.26,
        "hand": "left"
      },
      {
        "midi": 60,
        "time": 109.167,
        "duration": 0.417,
        "velocity": 0.26,
        "hand": "right"
      },
      {
        "midi": 69,
        "time": 109.167,
        "duration": 0.417,
        "velocity": 0.26,
        "hand": "right"
      },
      {
        "midi": 40,
        "time": 109.375,
        "duration": 0.208,
        "velocity": 0.26,
        "hand": "left"
      },
      {
        "midi": 45,
        "time": 109.375,
        "duration": 0.208,
        "velocity": 0.26,
        "hand": "left"
      },
      {
        "midi": 40,
        "time": 109.583,
        "duration": 0.208,
        "velocity": 0.26,
        "hand": "left"
      },
      {
        "midi": 45,
        "time": 109.583,
        "duration": 0.208,
        "velocity": 0.26,
        "hand": "left"
      },
      {
        "midi": 64,
        "time": 109.583,
        "duration": 0.417,
        "velocity": 0.26,
        "hand": "right"
      },
      {
        "midi": 72,
        "time": 109.583,
        "duration": 0.417,
        "velocity": 0.26,
        "hand": "right"
      },
      {
        "midi": 40,
        "time": 109.792,
        "duration": 0.208,
        "velocity": 0.26,
        "hand": "left"
      },
      {
        "midi": 45,
        "time": 109.792,
        "duration": 0.208,
        "velocity": 0.26,
        "hand": "left"
      },
      {
        "midi": 40,
        "time": 110,
        "duration": 0.208,
        "velocity": 0.26,
        "hand": "left"
      },
      {
        "midi": 44,
        "time": 110,
        "duration": 0.208,
        "velocity": 0.26,
        "hand": "left"
      },
      {
        "midi": 62,
        "time": 110,
        "duration": 0.417,
        "velocity": 0.26,
        "hand": "right"
      },
      {
        "midi": 71,
        "time": 110,
        "duration": 0.417,
        "velocity": 0.26,
        "hand": "right"
      },
      {
        "midi": 40,
        "time": 110.208,
        "duration": 0.208,
        "velocity": 0.26,
        "hand": "left"
      },
      {
        "midi": 44,
        "time": 110.208,
        "duration": 0.208,
        "velocity": 0.26,
        "hand": "left"
      },
      {
        "midi": 33,
        "time": 110.417,
        "duration": 0.208,
        "velocity": 0.26,
        "hand": "left"
      },
      {
        "midi": 45,
        "time": 110.417,
        "duration": 0.208,
        "velocity": 0.26,
        "hand": "left"
      },
      {
        "midi": 60,
        "time": 110.417,
        "duration": 1.25,
        "velocity": 0.26,
        "hand": "right"
      },
      {
        "midi": 69,
        "time": 110.417,
        "duration": 1.25,
        "velocity": 0.26,
        "hand": "right"
      },
      {
        "midi": 45,
        "time": 110.625,
        "duration": 0.208,
        "velocity": 0.26,
        "hand": "left"
      },
      {
        "midi": 45,
        "time": 110.833,
        "duration": 0.208,
        "velocity": 0.26,
        "hand": "left"
      },
      {
        "midi": 45,
        "time": 111.042,
        "duration": 0.208,
        "velocity": 0.26,
        "hand": "left"
      },
      {
        "midi": 45,
        "time": 111.25,
        "duration": 0.208,
        "velocity": 0.26,
        "hand": "left"
      },
      {
        "midi": 45,
        "time": 111.458,
        "duration": 0.208,
        "velocity": 0.26,
        "hand": "left"
      },
      {
        "midi": 45,
        "time": 111.667,
        "duration": 0.208,
        "velocity": 0.26,
        "hand": "left"
      },
      {
        "midi": 64,
        "time": 111.667,
        "duration": 1.25,
        "velocity": 0.26,
        "hand": "right"
      },
      {
        "midi": 67,
        "time": 111.667,
        "duration": 1.25,
        "velocity": 0.26,
        "hand": "right"
      },
      {
        "midi": 70,
        "time": 111.667,
        "duration": 1.25,
        "velocity": 0.26,
        "hand": "right"
      },
      {
        "midi": 73,
        "time": 111.667,
        "duration": 1.25,
        "velocity": 0.26,
        "hand": "right"
      },
      {
        "midi": 45,
        "time": 111.875,
        "duration": 0.208,
        "velocity": 0.26,
        "hand": "left"
      },
      {
        "midi": 45,
        "time": 112.083,
        "duration": 0.208,
        "velocity": 0.26,
        "hand": "left"
      },
      {
        "midi": 45,
        "time": 112.292,
        "duration": 0.208,
        "velocity": 0.26,
        "hand": "left"
      },
      {
        "midi": 45,
        "time": 112.5,
        "duration": 0.208,
        "velocity": 0.26,
        "hand": "left"
      },
      {
        "midi": 45,
        "time": 112.708,
        "duration": 0.208,
        "velocity": 0.26,
        "hand": "left"
      },
      {
        "midi": 45,
        "time": 112.917,
        "duration": 0.208,
        "velocity": 0.26,
        "hand": "left"
      },
      {
        "midi": 65,
        "time": 112.917,
        "duration": 0.833,
        "velocity": 0.26,
        "hand": "right"
      },
      {
        "midi": 69,
        "time": 112.917,
        "duration": 0.833,
        "velocity": 0.26,
        "hand": "right"
      },
      {
        "midi": 74,
        "time": 112.917,
        "duration": 0.833,
        "velocity": 0.26,
        "hand": "right"
      },
      {
        "midi": 45,
        "time": 113.125,
        "duration": 0.208,
        "velocity": 0.26,
        "hand": "left"
      },
      {
        "midi": 45,
        "time": 113.333,
        "duration": 0.208,
        "velocity": 0.26,
        "hand": "left"
      },
      {
        "midi": 45,
        "time": 113.542,
        "duration": 0.208,
        "velocity": 0.26,
        "hand": "left"
      },
      {
        "midi": 45,
        "time": 113.75,
        "duration": 0.208,
        "velocity": 0.26,
        "hand": "left"
      },
      {
        "midi": 73,
        "time": 113.75,
        "duration": 0.208,
        "velocity": 0.26,
        "hand": "right"
      },
      {
        "midi": 76,
        "time": 113.75,
        "duration": 0.208,
        "velocity": 0.26,
        "hand": "right"
      },
      {
        "midi": 45,
        "time": 113.958,
        "duration": 0.208,
        "velocity": 0.26,
        "hand": "left"
      },
      {
        "midi": 74,
        "time": 113.958,
        "duration": 0.208,
        "velocity": 0.26,
        "hand": "right"
      },
      {
        "midi": 77,
        "time": 113.958,
        "duration": 0.208,
        "velocity": 0.26,
        "hand": "right"
      },
      {
        "midi": 45,
        "time": 114.167,
        "duration": 0.208,
        "velocity": 0.26,
        "hand": "left"
      },
      {
        "midi": 74,
        "time": 114.167,
        "duration": 0.833,
        "velocity": 0.26,
        "hand": "right"
      },
      {
        "midi": 77,
        "time": 114.167,
        "duration": 0.833,
        "velocity": 0.26,
        "hand": "right"
      },
      {
        "midi": 45,
        "time": 114.375,
        "duration": 0.208,
        "velocity": 0.26,
        "hand": "left"
      },
      {
        "midi": 45,
        "time": 114.583,
        "duration": 0.208,
        "velocity": 0.26,
        "hand": "left"
      },
      {
        "midi": 45,
        "time": 114.792,
        "duration": 0.208,
        "velocity": 0.26,
        "hand": "left"
      },
      {
        "midi": 45,
        "time": 115,
        "duration": 0.208,
        "velocity": 0.26,
        "hand": "left"
      },
      {
        "midi": 74,
        "time": 115,
        "duration": 0.417,
        "velocity": 0.26,
        "hand": "right"
      },
      {
        "midi": 77,
        "time": 115,
        "duration": 0.417,
        "velocity": 0.26,
        "hand": "right"
      },
      {
        "midi": 45,
        "time": 115.208,
        "duration": 0.208,
        "velocity": 0.26,
        "hand": "left"
      },
      {
        "midi": 46,
        "time": 115.417,
        "duration": 0.208,
        "velocity": 0.26,
        "hand": "left"
      },
      {
        "midi": 74,
        "time": 115.417,
        "duration": 1.25,
        "velocity": 0.26,
        "hand": "right"
      },
      {
        "midi": 77,
        "time": 115.417,
        "duration": 1.25,
        "velocity": 0.26,
        "hand": "right"
      },
      {
        "midi": 46,
        "time": 115.625,
        "duration": 0.208,
        "velocity": 0.26,
        "hand": "left"
      },
      {
        "midi": 46,
        "time": 115.833,
        "duration": 0.208,
        "velocity": 0.26,
        "hand": "left"
      },
      {
        "midi": 46,
        "time": 116.042,
        "duration": 0.208,
        "velocity": 0.26,
        "hand": "left"
      },
      {
        "midi": 46,
        "time": 116.25,
        "duration": 0.208,
        "velocity": 0.26,
        "hand": "left"
      },
      {
        "midi": 46,
        "time": 116.458,
        "duration": 0.208,
        "velocity": 0.26,
        "hand": "left"
      },
      {
        "midi": 46,
        "time": 116.667,
        "duration": 0.208,
        "velocity": 0.26,
        "hand": "left"
      },
      {
        "midi": 67,
        "time": 116.667,
        "duration": 0.833,
        "velocity": 0.26,
        "hand": "right"
      },
      {
        "midi": 75,
        "time": 116.667,
        "duration": 0.833,
        "velocity": 0.26,
        "hand": "right"
      },
      {
        "midi": 46,
        "time": 116.875,
        "duration": 0.208,
        "velocity": 0.26,
        "hand": "left"
      },
      {
        "midi": 46,
        "time": 117.083,
        "duration": 0.208,
        "velocity": 0.26,
        "hand": "left"
      },
      {
        "midi": 46,
        "time": 117.292,
        "duration": 0.208,
        "velocity": 0.26,
        "hand": "left"
      },
      {
        "midi": 46,
        "time": 117.5,
        "duration": 0.208,
        "velocity": 0.26,
        "hand": "left"
      },
      {
        "midi": 65,
        "time": 117.5,
        "duration": 0.208,
        "velocity": 0.26,
        "hand": "right"
      },
      {
        "midi": 74,
        "time": 117.5,
        "duration": 0.208,
        "velocity": 0.26,
        "hand": "right"
      },
      {
        "midi": 46,
        "time": 117.708,
        "duration": 0.208,
        "velocity": 0.26,
        "hand": "left"
      },
      {
        "midi": 63,
        "time": 117.708,
        "duration": 0.208,
        "velocity": 0.26,
        "hand": "right"
      },
      {
        "midi": 72,
        "time": 117.708,
        "duration": 0.208,
        "velocity": 0.26,
        "hand": "right"
      },
      {
        "midi": 46,
        "time": 117.917,
        "duration": 0.208,
        "velocity": 0.26,
        "hand": "left"
      },
      {
        "midi": 62,
        "time": 117.917,
        "duration": 0.833,
        "velocity": 0.26,
        "hand": "right"
      },
      {
        "midi": 65,
        "time": 117.917,
        "duration": 0.833,
        "velocity": 0.26,
        "hand": "right"
      },
      {
        "midi": 70,
        "time": 117.917,
        "duration": 0.833,
        "velocity": 0.26,
        "hand": "right"
      },
      {
        "midi": 46,
        "time": 118.125,
        "duration": 0.208,
        "velocity": 0.26,
        "hand": "left"
      },
      {
        "midi": 46,
        "time": 118.333,
        "duration": 0.208,
        "velocity": 0.26,
        "hand": "left"
      },
      {
        "midi": 46,
        "time": 118.542,
        "duration": 0.208,
        "velocity": 0.26,
        "hand": "left"
      },
      {
        "midi": 46,
        "time": 118.75,
        "duration": 0.208,
        "velocity": 0.26,
        "hand": "left"
      },
      {
        "midi": 62,
        "time": 118.75,
        "duration": 0.417,
        "velocity": 0.26,
        "hand": "right"
      },
      {
        "midi": 65,
        "time": 118.75,
        "duration": 0.417,
        "velocity": 0.26,
        "hand": "right"
      },
      {
        "midi": 69,
        "time": 118.75,
        "duration": 0.417,
        "velocity": 0.26,
        "hand": "right"
      },
      {
        "midi": 46,
        "time": 118.958,
        "duration": 0.208,
        "velocity": 0.26,
        "hand": "left"
      },
      {
        "midi": 47,
        "time": 119.167,
        "duration": 0.208,
        "velocity": 0.26,
        "hand": "left"
      },
      {
        "midi": 62,
        "time": 119.167,
        "duration": 0.833,
        "velocity": 0.26,
        "hand": "right"
      },
      {
        "midi": 65,
        "time": 119.167,
        "duration": 0.833,
        "velocity": 0.26,
        "hand": "right"
      },
      {
        "midi": 68,
        "time": 119.167,
        "duration": 0.833,
        "velocity": 0.26,
        "hand": "right"
      },
      {
        "midi": 47,
        "time": 119.375,
        "duration": 0.208,
        "velocity": 0.26,
        "hand": "left"
      },
      {
        "midi": 47,
        "time": 119.583,
        "duration": 0.208,
        "velocity": 0.26,
        "hand": "left"
      },
      {
        "midi": 47,
        "time": 119.792,
        "duration": 0.208,
        "velocity": 0.26,
        "hand": "left"
      },
      {
        "midi": 47,
        "time": 120,
        "duration": 0.208,
        "velocity": 0.26,
        "hand": "left"
      },
      {
        "midi": 62,
        "time": 120,
        "duration": 0.417,
        "velocity": 0.26,
        "hand": "right"
      },
      {
        "midi": 65,
        "time": 120,
        "duration": 0.417,
        "velocity": 0.26,
        "hand": "right"
      },
      {
        "midi": 68,
        "time": 120,
        "duration": 0.417,
        "velocity": 0.26,
        "hand": "right"
      },
      {
        "midi": 47,
        "time": 120.208,
        "duration": 0.208,
        "velocity": 0.26,
        "hand": "left"
      },
      {
        "midi": 48,
        "time": 120.417,
        "duration": 0.833,
        "velocity": 0.26,
        "hand": "left"
      },
      {
        "midi": 60,
        "time": 120.417,
        "duration": 0.833,
        "velocity": 0.26,
        "hand": "right"
      },
      {
        "midi": 64,
        "time": 120.417,
        "duration": 0.833,
        "velocity": 0.26,
        "hand": "right"
      },
      {
        "midi": 69,
        "time": 120.417,
        "duration": 0.833,
        "velocity": 0.26,
        "hand": "right"
      },
      {
        "midi": 52,
        "time": 121.667,
        "duration": 0.417,
        "velocity": 0.26,
        "hand": "left"
      },
      {
        "midi": 56,
        "time": 121.667,
        "duration": 0.417,
        "velocity": 0.26,
        "hand": "left"
      },
      {
        "midi": 64,
        "time": 121.667,
        "duration": 0.417,
        "velocity": 0.26,
        "hand": "right"
      },
      {
        "midi": 71,
        "time": 121.667,
        "duration": 0.417,
        "velocity": 0.26,
        "hand": "right"
      },
      {
        "midi": 33,
        "time": 122.917,
        "duration": 0.417,
        "velocity": 0.26,
        "hand": "left"
      },
      {
        "midi": 57,
        "time": 122.917,
        "duration": 0.208,
        "velocity": 0.26,
        "hand": "left"
      },
      {
        "midi": 60,
        "time": 123.125,
        "duration": 0.208,
        "velocity": 0.26,
        "hand": "right"
      },
      {
        "midi": 64,
        "time": 123.125,
        "duration": 0.208,
        "velocity": 0.26,
        "hand": "right"
      },
      {
        "midi": 69,
        "time": 123.333,
        "duration": 0.208,
        "velocity": 0.26,
        "hand": "right"
      },
      {
        "midi": 72,
        "time": 123.542,
        "duration": 0.208,
        "velocity": 0.26,
        "hand": "right"
      },
      {
        "midi": 76,
        "time": 123.542,
        "duration": 0.208,
        "velocity": 0.26,
        "hand": "right"
      },
      {
        "midi": 57,
        "time": 123.75,
        "duration": 0.417,
        "velocity": 0.26,
        "hand": "left"
      },
      {
        "midi": 60,
        "time": 123.75,
        "duration": 0.417,
        "velocity": 0.26,
        "hand": "right"
      },
      {
        "midi": 64,
        "time": 123.75,
        "duration": 0.417,
        "velocity": 0.26,
        "hand": "right"
      },
      {
        "midi": 74,
        "time": 123.75,
        "duration": 0.208,
        "velocity": 0.26,
        "hand": "right"
      },
      {
        "midi": 71,
        "time": 123.958,
        "duration": 0.208,
        "velocity": 0.26,
        "hand": "right"
      },
      {
        "midi": 72,
        "time": 123.958,
        "duration": 0.208,
        "velocity": 0.26,
        "hand": "right"
      },
      {
        "midi": 57,
        "time": 124.167,
        "duration": 0.417,
        "velocity": 0.26,
        "hand": "left"
      },
      {
        "midi": 60,
        "time": 124.167,
        "duration": 0.417,
        "velocity": 0.26,
        "hand": "right"
      },
      {
        "midi": 64,
        "time": 124.167,
        "duration": 0.417,
        "velocity": 0.26,
        "hand": "right"
      },
      {
        "midi": 69,
        "time": 124.167,
        "duration": 0.208,
        "velocity": 0.26,
        "hand": "right"
      },
      {
        "midi": 72,
        "time": 124.375,
        "duration": 0.208,
        "velocity": 0.26,
        "hand": "right"
      },
      {
        "midi": 76,
        "time": 124.375,
        "duration": 0.208,
        "velocity": 0.26,
        "hand": "right"
      },
      {
        "midi": 81,
        "time": 124.583,
        "duration": 0.208,
        "velocity": 0.26,
        "hand": "right"
      },
      {
        "midi": 84,
        "time": 124.792,
        "duration": 0.208,
        "velocity": 0.26,
        "hand": "right"
      },
      {
        "midi": 88,
        "time": 124.792,
        "duration": 0.208,
        "velocity": 0.26,
        "hand": "right"
      },
      {
        "midi": 57,
        "time": 125,
        "duration": 0.417,
        "velocity": 0.26,
        "hand": "left"
      },
      {
        "midi": 60,
        "time": 125,
        "duration": 0.417,
        "velocity": 0.26,
        "hand": "right"
      },
      {
        "midi": 64,
        "time": 125,
        "duration": 0.417,
        "velocity": 0.26,
        "hand": "right"
      },
      {
        "midi": 86,
        "time": 125,
        "duration": 0.208,
        "velocity": 0.26,
        "hand": "right"
      },
      {
        "midi": 83,
        "time": 125.208,
        "duration": 0.208,
        "velocity": 0.26,
        "hand": "right"
      },
      {
        "midi": 84,
        "time": 125.208,
        "duration": 0.208,
        "velocity": 0.26,
        "hand": "right"
      },
      {
        "midi": 57,
        "time": 125.417,
        "duration": 0.417,
        "velocity": 0.26,
        "hand": "left"
      },
      {
        "midi": 60,
        "time": 125.417,
        "duration": 0.417,
        "velocity": 0.26,
        "hand": "right"
      },
      {
        "midi": 64,
        "time": 125.417,
        "duration": 0.417,
        "velocity": 0.26,
        "hand": "right"
      },
      {
        "midi": 81,
        "time": 125.417,
        "duration": 0.208,
        "velocity": 0.26,
        "hand": "right"
      },
      {
        "midi": 84,
        "time": 125.625,
        "duration": 0.208,
        "velocity": 0.26,
        "hand": "right"
      },
      {
        "midi": 88,
        "time": 125.625,
        "duration": 0.208,
        "velocity": 0.26,
        "hand": "right"
      },
      {
        "midi": 93,
        "time": 125.833,
        "duration": 0.208,
        "velocity": 0.26,
        "hand": "right"
      },
      {
        "midi": 96,
        "time": 126.042,
        "duration": 0.208,
        "velocity": 0.26,
        "hand": "right"
      },
      {
        "midi": 100,
        "time": 126.042,
        "duration": 0.208,
        "velocity": 0.26,
        "hand": "right"
      },
      {
        "midi": 57,
        "time": 126.25,
        "duration": 0.417,
        "velocity": 0.26,
        "hand": "left"
      },
      {
        "midi": 60,
        "time": 126.25,
        "duration": 0.417,
        "velocity": 0.26,
        "hand": "right"
      },
      {
        "midi": 64,
        "time": 126.25,
        "duration": 0.417,
        "velocity": 0.26,
        "hand": "right"
      },
      {
        "midi": 98,
        "time": 126.25,
        "duration": 0.208,
        "velocity": 0.26,
        "hand": "right"
      },
      {
        "midi": 95,
        "time": 126.458,
        "duration": 0.208,
        "velocity": 0.26,
        "hand": "right"
      },
      {
        "midi": 96,
        "time": 126.458,
        "duration": 0.208,
        "velocity": 0.26,
        "hand": "right"
      },
      {
        "midi": 57,
        "time": 126.667,
        "duration": 0.417,
        "velocity": 0.26,
        "hand": "left"
      },
      {
        "midi": 60,
        "time": 126.667,
        "duration": 0.417,
        "velocity": 0.26,
        "hand": "right"
      },
      {
        "midi": 64,
        "time": 126.667,
        "duration": 0.417,
        "velocity": 0.26,
        "hand": "right"
      },
      {
        "midi": 94,
        "time": 126.667,
        "duration": 0.208,
        "velocity": 0.26,
        "hand": "right"
      },
      {
        "midi": 92,
        "time": 126.875,
        "duration": 0.208,
        "velocity": 0.26,
        "hand": "right"
      },
      {
        "midi": 93,
        "time": 126.875,
        "duration": 0.208,
        "velocity": 0.26,
        "hand": "right"
      },
      {
        "midi": 91,
        "time": 127.083,
        "duration": 0.208,
        "velocity": 0.26,
        "hand": "right"
      },
      {
        "midi": 89,
        "time": 127.292,
        "duration": 0.208,
        "velocity": 0.26,
        "hand": "right"
      },
      {
        "midi": 90,
        "time": 127.292,
        "duration": 0.208,
        "velocity": 0.26,
        "hand": "right"
      },
      {
        "midi": 88,
        "time": 127.5,
        "duration": 0.208,
        "velocity": 0.26,
        "hand": "right"
      },
      {
        "midi": 86,
        "time": 127.708,
        "duration": 0.208,
        "velocity": 0.26,
        "hand": "right"
      },
      {
        "midi": 87,
        "time": 127.708,
        "duration": 0.208,
        "velocity": 0.26,
        "hand": "right"
      },
      {
        "midi": 85,
        "time": 127.917,
        "duration": 0.208,
        "velocity": 0.26,
        "hand": "right"
      },
      {
        "midi": 83,
        "time": 128.125,
        "duration": 0.208,
        "velocity": 0.26,
        "hand": "right"
      },
      {
        "midi": 84,
        "time": 128.125,
        "duration": 0.208,
        "velocity": 0.26,
        "hand": "right"
      },
      {
        "midi": 82,
        "time": 128.333,
        "duration": 0.208,
        "velocity": 0.26,
        "hand": "right"
      },
      {
        "midi": 80,
        "time": 128.542,
        "duration": 0.208,
        "velocity": 0.26,
        "hand": "right"
      },
      {
        "midi": 81,
        "time": 128.542,
        "duration": 0.208,
        "velocity": 0.26,
        "hand": "right"
      },
      {
        "midi": 79,
        "time": 128.75,
        "duration": 0.208,
        "velocity": 0.26,
        "hand": "right"
      },
      {
        "midi": 77,
        "time": 128.958,
        "duration": 0.208,
        "velocity": 0.26,
        "hand": "right"
      },
      {
        "midi": 78,
        "time": 128.958,
        "duration": 0.208,
        "velocity": 0.26,
        "hand": "right"
      },
      {
        "midi": 76,
        "time": 129.167,
        "duration": 0.208,
        "velocity": 0.26,
        "hand": "right"
      },
      {
        "midi": 75,
        "time": 129.375,
        "duration": 0.208,
        "velocity": 0.26,
        "hand": "right"
      },
      {
        "midi": 76,
        "time": 129.583,
        "duration": 0.208,
        "velocity": 0.26,
        "hand": "right"
      },
      {
        "midi": 71,
        "time": 129.792,
        "duration": 0.208,
        "velocity": 0.26,
        "hand": "right"
      },
      {
        "midi": 74,
        "time": 130,
        "duration": 0.208,
        "velocity": 0.26,
        "hand": "right"
      },
      {
        "midi": 72,
        "time": 130.208,
        "duration": 0.208,
        "velocity": 0.26,
        "hand": "right"
      },
      {
        "midi": 45,
        "time": 130.417,
        "duration": 0.208,
        "velocity": 0.26,
        "hand": "left"
      },
      {
        "midi": 69,
        "time": 130.417,
        "duration": 0.417,
        "velocity": 0.26,
        "hand": "right"
      },
      {
        "midi": 52,
        "time": 130.625,
        "duration": 0.208,
        "velocity": 0.26,
        "hand": "left"
      },
      {
        "midi": 57,
        "time": 130.833,
        "duration": 0.208,
        "velocity": 0.26,
        "hand": "left"
      },
      {
        "midi": 60,
        "time": 131.042,
        "duration": 0.208,
        "velocity": 0.26,
        "hand": "right"
      },
      {
        "midi": 64,
        "time": 131.25,
        "duration": 0.208,
        "velocity": 0.26,
        "hand": "right"
      },
      {
        "midi": 69,
        "time": 131.458,
        "duration": 0.208,
        "velocity": 0.26,
        "hand": "right"
      },
      {
        "midi": 40,
        "time": 131.667,
        "duration": 0.208,
        "velocity": 0.26,
        "hand": "left"
      },
      {
        "midi": 71,
        "time": 131.667,
        "duration": 0.417,
        "velocity": 0.26,
        "hand": "right"
      },
      {
        "midi": 52,
        "time": 131.875,
        "duration": 0.208,
        "velocity": 0.26,
        "hand": "left"
      },
      {
        "midi": 56,
        "time": 132.083,
        "duration": 0.208,
        "velocity": 0.26,
        "hand": "left"
      },
      {
        "midi": 64,
        "time": 132.292,
        "duration": 0.208,
        "velocity": 0.26,
        "hand": "right"
      },
      {
        "midi": 68,
        "time": 132.5,
        "duration": 0.208,
        "velocity": 0.26,
        "hand": "right"
      },
      {
        "midi": 71,
        "time": 132.708,
        "duration": 0.208,
        "velocity": 0.26,
        "hand": "right"
      },
      {
        "midi": 45,
        "time": 132.917,
        "duration": 0.208,
        "velocity": 0.26,
        "hand": "left"
      },
      {
        "midi": 72,
        "time": 132.917,
        "duration": 0.417,
        "velocity": 0.26,
        "hand": "right"
      },
      {
        "midi": 52,
        "time": 133.125,
        "duration": 0.208,
        "velocity": 0.26,
        "hand": "left"
      },
      {
        "midi": 57,
        "time": 133.333,
        "duration": 0.208,
        "velocity": 0.26,
        "hand": "left"
      },
      {
        "midi": 64,
        "time": 133.542,
        "duration": 0.208,
        "velocity": 0.26,
        "hand": "right"
      },
      {
        "midi": 76,
        "time": 133.75,
        "duration": 0.208,
        "velocity": 0.26,
        "hand": "right"
      },
      {
        "midi": 75,
        "time": 133.958,
        "duration": 0.208,
        "velocity": 0.26,
        "hand": "right"
      },
      {
        "midi": 76,
        "time": 134.167,
        "duration": 0.208,
        "velocity": 0.26,
        "hand": "right"
      },
      {
        "midi": 75,
        "time": 134.375,
        "duration": 0.208,
        "velocity": 0.26,
        "hand": "right"
      },
      {
        "midi": 76,
        "time": 134.583,
        "duration": 0.208,
        "velocity": 0.26,
        "hand": "right"
      },
      {
        "midi": 71,
        "time": 134.792,
        "duration": 0.208,
        "velocity": 0.26,
        "hand": "right"
      },
      {
        "midi": 74,
        "time": 135,
        "duration": 0.208,
        "velocity": 0.26,
        "hand": "right"
      },
      {
        "midi": 72,
        "time": 135.208,
        "duration": 0.208,
        "velocity": 0.26,
        "hand": "right"
      },
      {
        "midi": 45,
        "time": 135.417,
        "duration": 0.208,
        "velocity": 0.26,
        "hand": "left"
      },
      {
        "midi": 69,
        "time": 135.417,
        "duration": 0.417,
        "velocity": 0.26,
        "hand": "right"
      },
      {
        "midi": 52,
        "time": 135.625,
        "duration": 0.208,
        "velocity": 0.26,
        "hand": "left"
      },
      {
        "midi": 57,
        "time": 135.833,
        "duration": 0.208,
        "velocity": 0.26,
        "hand": "left"
      },
      {
        "midi": 60,
        "time": 136.042,
        "duration": 0.208,
        "velocity": 0.26,
        "hand": "right"
      },
      {
        "midi": 64,
        "time": 136.25,
        "duration": 0.208,
        "velocity": 0.26,
        "hand": "right"
      },
      {
        "midi": 69,
        "time": 136.458,
        "duration": 0.208,
        "velocity": 0.26,
        "hand": "right"
      },
      {
        "midi": 40,
        "time": 136.667,
        "duration": 0.208,
        "velocity": 0.26,
        "hand": "left"
      },
      {
        "midi": 71,
        "time": 136.667,
        "duration": 0.417,
        "velocity": 0.26,
        "hand": "right"
      },
      {
        "midi": 52,
        "time": 136.875,
        "duration": 0.208,
        "velocity": 0.26,
        "hand": "left"
      },
      {
        "midi": 56,
        "time": 137.083,
        "duration": 0.208,
        "velocity": 0.26,
        "hand": "left"
      },
      {
        "midi": 62,
        "time": 137.292,
        "duration": 0.208,
        "velocity": 0.26,
        "hand": "right"
      },
      {
        "midi": 72,
        "time": 137.5,
        "duration": 0.208,
        "velocity": 0.26,
        "hand": "right"
      },
      {
        "midi": 71,
        "time": 137.708,
        "duration": 0.208,
        "velocity": 0.26,
        "hand": "right"
      },
      {
        "midi": 45,
        "time": 137.917,
        "duration": 0.208,
        "velocity": 0.26,
        "hand": "left"
      },
      {
        "midi": 69,
        "time": 137.917,
        "duration": 0.417,
        "velocity": 0.26,
        "hand": "right"
      },
      {
        "midi": 52,
        "time": 138.125,
        "duration": 0.208,
        "velocity": 0.26,
        "hand": "left"
      },
      {
        "midi": 57,
        "time": 138.333,
        "duration": 0.208,
        "velocity": 0.26,
        "hand": "left"
      },
      {
        "midi": 71,
        "time": 138.542,
        "duration": 0.208,
        "velocity": 0.26,
        "hand": "right"
      },
      {
        "midi": 72,
        "time": 138.75,
        "duration": 0.208,
        "velocity": 0.26,
        "hand": "right"
      },
      {
        "midi": 74,
        "time": 138.958,
        "duration": 0.208,
        "velocity": 0.26,
        "hand": "right"
      },
      {
        "midi": 48,
        "time": 139.167,
        "duration": 0.208,
        "velocity": 0.26,
        "hand": "left"
      },
      {
        "midi": 76,
        "time": 139.167,
        "duration": 0.625,
        "velocity": 0.26,
        "hand": "right"
      },
      {
        "midi": 55,
        "time": 139.375,
        "duration": 0.208,
        "velocity": 0.26,
        "hand": "left"
      },
      {
        "midi": 60,
        "time": 139.583,
        "duration": 0.208,
        "velocity": 0.26,
        "hand": "right"
      },
      {
        "midi": 67,
        "time": 139.792,
        "duration": 0.208,
        "velocity": 0.26,
        "hand": "right"
      },
      {
        "midi": 77,
        "time": 140,
        "duration": 0.208,
        "velocity": 0.26,
        "hand": "right"
      },
      {
        "midi": 76,
        "time": 140.208,
        "duration": 0.208,
        "velocity": 0.26,
        "hand": "right"
      },
      {
        "midi": 43,
        "time": 140.417,
        "duration": 0.208,
        "velocity": 0.26,
        "hand": "left"
      },
      {
        "midi": 74,
        "time": 140.417,
        "duration": 0.625,
        "velocity": 0.26,
        "hand": "right"
      },
      {
        "midi": 55,
        "time": 140.625,
        "duration": 0.208,
        "velocity": 0.26,
        "hand": "left"
      },
      {
        "midi": 59,
        "time": 140.833,
        "duration": 0.208,
        "velocity": 0.26,
        "hand": "left"
      },
      {
        "midi": 65,
        "time": 141.042,
        "duration": 0.208,
        "velocity": 0.26,
        "hand": "right"
      },
      {
        "midi": 76,
        "time": 141.25,
        "duration": 0.208,
        "velocity": 0.26,
        "hand": "right"
      },
      {
        "midi": 74,
        "time": 141.458,
        "duration": 0.208,
        "velocity": 0.26,
        "hand": "right"
      },
      {
        "midi": 45,
        "time": 141.667,
        "duration": 0.208,
        "velocity": 0.26,
        "hand": "left"
      },
      {
        "midi": 72,
        "time": 141.667,
        "duration": 0.625,
        "velocity": 0.26,
        "hand": "right"
      },
      {
        "midi": 52,
        "time": 141.875,
        "duration": 0.208,
        "velocity": 0.26,
        "hand": "left"
      },
      {
        "midi": 57,
        "time": 142.083,
        "duration": 0.208,
        "velocity": 0.26,
        "hand": "left"
      },
      {
        "midi": 64,
        "time": 142.292,
        "duration": 0.208,
        "velocity": 0.26,
        "hand": "right"
      },
      {
        "midi": 74,
        "time": 142.5,
        "duration": 0.208,
        "velocity": 0.26,
        "hand": "right"
      },
      {
        "midi": 72,
        "time": 142.708,
        "duration": 0.208,
        "velocity": 0.26,
        "hand": "right"
      },
      {
        "midi": 40,
        "time": 142.917,
        "duration": 0.208,
        "velocity": 0.26,
        "hand": "left"
      },
      {
        "midi": 71,
        "time": 142.917,
        "duration": 0.417,
        "velocity": 0.26,
        "hand": "right"
      },
      {
        "midi": 52,
        "time": 143.125,
        "duration": 0.208,
        "velocity": 0.26,
        "hand": "left"
      },
      {
        "midi": 64,
        "time": 143.333,
        "duration": 0.208,
        "velocity": 0.26,
        "hand": "right"
      },
      {
        "midi": 64,
        "time": 143.542,
        "duration": 0.208,
        "velocity": 0.26,
        "hand": "right"
      },
      {
        "midi": 76,
        "time": 143.75,
        "duration": 0.208,
        "velocity": 0.26,
        "hand": "right"
      },
      {
        "midi": 64,
        "time": 143.958,
        "duration": 0.208,
        "velocity": 0.26,
        "hand": "right"
      },
      {
        "midi": 76,
        "time": 144.167,
        "duration": 0.208,
        "velocity": 0.26,
        "hand": "right"
      },
      {
        "midi": 76,
        "time": 144.375,
        "duration": 0.208,
        "velocity": 0.26,
        "hand": "right"
      },
      {
        "midi": 88,
        "time": 144.583,
        "duration": 0.208,
        "velocity": 0.26,
        "hand": "right"
      },
      {
        "midi": 75,
        "time": 144.792,
        "duration": 0.208,
        "velocity": 0.26,
        "hand": "right"
      },
      {
        "midi": 76,
        "time": 145,
        "duration": 0.208,
        "velocity": 0.26,
        "hand": "right"
      },
      {
        "midi": 75,
        "time": 145.208,
        "duration": 0.208,
        "velocity": 0.26,
        "hand": "right"
      },
      {
        "midi": 76,
        "time": 145.417,
        "duration": 0.417,
        "velocity": 0.26,
        "hand": "right"
      },
      {
        "midi": 75,
        "time": 145.625,
        "duration": 0.208,
        "velocity": 0.26,
        "hand": "right"
      },
      {
        "midi": 76,
        "time": 145.833,
        "duration": 0.208,
        "velocity": 0.26,
        "hand": "right"
      },
      {
        "midi": 75,
        "time": 146.042,
        "duration": 0.208,
        "velocity": 0.26,
        "hand": "right"
      },
      {
        "midi": 76,
        "time": 146.25,
        "duration": 0.208,
        "velocity": 0.26,
        "hand": "right"
      },
      {
        "midi": 75,
        "time": 146.458,
        "duration": 0.208,
        "velocity": 0.26,
        "hand": "right"
      },
      {
        "midi": 76,
        "time": 146.667,
        "duration": 0.208,
        "velocity": 0.26,
        "hand": "right"
      },
      {
        "midi": 75,
        "time": 146.875,
        "duration": 0.208,
        "velocity": 0.26,
        "hand": "right"
      },
      {
        "midi": 76,
        "time": 147.083,
        "duration": 0.208,
        "velocity": 0.26,
        "hand": "right"
      },
      {
        "midi": 71,
        "time": 147.292,
        "duration": 0.208,
        "velocity": 0.26,
        "hand": "right"
      },
      {
        "midi": 74,
        "time": 147.5,
        "duration": 0.208,
        "velocity": 0.26,
        "hand": "right"
      },
      {
        "midi": 72,
        "time": 147.708,
        "duration": 0.208,
        "velocity": 0.26,
        "hand": "right"
      },
      {
        "midi": 45,
        "time": 147.917,
        "duration": 0.208,
        "velocity": 0.26,
        "hand": "left"
      },
      {
        "midi": 69,
        "time": 147.917,
        "duration": 0.417,
        "velocity": 0.26,
        "hand": "right"
      },
      {
        "midi": 52,
        "time": 148.125,
        "duration": 0.208,
        "velocity": 0.26,
        "hand": "left"
      },
      {
        "midi": 57,
        "time": 148.333,
        "duration": 0.208,
        "velocity": 0.26,
        "hand": "left"
      },
      {
        "midi": 60,
        "time": 148.542,
        "duration": 0.208,
        "velocity": 0.26,
        "hand": "right"
      },
      {
        "midi": 64,
        "time": 148.75,
        "duration": 0.208,
        "velocity": 0.26,
        "hand": "right"
      },
      {
        "midi": 69,
        "time": 148.958,
        "duration": 0.208,
        "velocity": 0.26,
        "hand": "right"
      },
      {
        "midi": 40,
        "time": 149.167,
        "duration": 0.208,
        "velocity": 0.26,
        "hand": "left"
      },
      {
        "midi": 71,
        "time": 149.167,
        "duration": 0.417,
        "velocity": 0.26,
        "hand": "right"
      },
      {
        "midi": 52,
        "time": 149.375,
        "duration": 0.208,
        "velocity": 0.26,
        "hand": "left"
      },
      {
        "midi": 56,
        "time": 149.583,
        "duration": 0.208,
        "velocity": 0.26,
        "hand": "left"
      },
      {
        "midi": 64,
        "time": 149.792,
        "duration": 0.208,
        "velocity": 0.26,
        "hand": "right"
      },
      {
        "midi": 68,
        "time": 150,
        "duration": 0.208,
        "velocity": 0.26,
        "hand": "right"
      },
      {
        "midi": 71,
        "time": 150.208,
        "duration": 0.208,
        "velocity": 0.26,
        "hand": "right"
      },
      {
        "midi": 45,
        "time": 150.417,
        "duration": 0.208,
        "velocity": 0.26,
        "hand": "left"
      },
      {
        "midi": 72,
        "time": 150.417,
        "duration": 0.417,
        "velocity": 0.26,
        "hand": "right"
      },
      {
        "midi": 52,
        "time": 150.625,
        "duration": 0.208,
        "velocity": 0.26,
        "hand": "left"
      },
      {
        "midi": 57,
        "time": 150.833,
        "duration": 0.208,
        "velocity": 0.26,
        "hand": "left"
      },
      {
        "midi": 64,
        "time": 151.042,
        "duration": 0.208,
        "velocity": 0.26,
        "hand": "right"
      },
      {
        "midi": 76,
        "time": 151.25,
        "duration": 0.208,
        "velocity": 0.26,
        "hand": "right"
      },
      {
        "midi": 75,
        "time": 151.458,
        "duration": 0.208,
        "velocity": 0.26,
        "hand": "right"
      },
      {
        "midi": 76,
        "time": 151.667,
        "duration": 0.208,
        "velocity": 0.26,
        "hand": "right"
      },
      {
        "midi": 75,
        "time": 151.875,
        "duration": 0.208,
        "velocity": 0.26,
        "hand": "right"
      },
      {
        "midi": 76,
        "time": 152.083,
        "duration": 0.208,
        "velocity": 0.26,
        "hand": "right"
      },
      {
        "midi": 71,
        "time": 152.292,
        "duration": 0.208,
        "velocity": 0.26,
        "hand": "right"
      },
      {
        "midi": 74,
        "time": 152.5,
        "duration": 0.208,
        "velocity": 0.26,
        "hand": "right"
      },
      {
        "midi": 72,
        "time": 152.708,
        "duration": 0.208,
        "velocity": 0.26,
        "hand": "right"
      },
      {
        "midi": 45,
        "time": 152.917,
        "duration": 0.208,
        "velocity": 0.26,
        "hand": "left"
      },
      {
        "midi": 69,
        "time": 152.917,
        "duration": 0.417,
        "velocity": 0.26,
        "hand": "right"
      },
      {
        "midi": 52,
        "time": 153.125,
        "duration": 0.208,
        "velocity": 0.26,
        "hand": "left"
      },
      {
        "midi": 57,
        "time": 153.333,
        "duration": 0.208,
        "velocity": 0.26,
        "hand": "left"
      },
      {
        "midi": 60,
        "time": 153.542,
        "duration": 0.208,
        "velocity": 0.26,
        "hand": "right"
      },
      {
        "midi": 64,
        "time": 153.75,
        "duration": 0.208,
        "velocity": 0.26,
        "hand": "right"
      },
      {
        "midi": 69,
        "time": 153.958,
        "duration": 0.208,
        "velocity": 0.26,
        "hand": "right"
      },
      {
        "midi": 40,
        "time": 154.167,
        "duration": 0.208,
        "velocity": 0.26,
        "hand": "left"
      },
      {
        "midi": 71,
        "time": 154.167,
        "duration": 0.417,
        "velocity": 0.26,
        "hand": "right"
      },
      {
        "midi": 52,
        "time": 154.375,
        "duration": 0.208,
        "velocity": 0.26,
        "hand": "left"
      },
      {
        "midi": 56,
        "time": 154.583,
        "duration": 0.208,
        "velocity": 0.26,
        "hand": "left"
      },
      {
        "midi": 62,
        "time": 154.792,
        "duration": 0.208,
        "velocity": 0.26,
        "hand": "right"
      },
      {
        "midi": 72,
        "time": 155,
        "duration": 0.208,
        "velocity": 0.26,
        "hand": "right"
      },
      {
        "midi": 71,
        "time": 155.208,
        "duration": 0.208,
        "velocity": 0.26,
        "hand": "right"
      },
      {
        "midi": 33,
        "time": 155.625,
        "duration": 0.625,
        "velocity": 0.26,
        "hand": "left"
      },
      {
        "midi": 45,
        "time": 155.625,
        "duration": 0.625,
        "velocity": 0.26,
        "hand": "left"
      },
      {
        "midi": 69,
        "time": 155.625,
        "duration": 0.625,
        "velocity": 0.26,
        "hand": "right"
      }
    ]
  },
  "notes1Hand": [
    {
      "midi": 76,
      "time": 0,
      "duration": 0.417,
      "velocity": 0.26,
      "hand": "right"
    },
    {
      "midi": 71,
      "time": 1.042,
      "duration": 0.417,
      "velocity": 0.26,
      "hand": "right"
    },
    {
      "midi": 69,
      "time": 1.667,
      "duration": 0.417,
      "velocity": 0.26,
      "hand": "right"
    },
    {
      "midi": 60,
      "time": 2.292,
      "duration": 0.417,
      "velocity": 0.26,
      "hand": "right"
    },
    {
      "midi": 71,
      "time": 2.917,
      "duration": 0.417,
      "velocity": 0.26,
      "hand": "right"
    },
    {
      "midi": 64,
      "time": 3.542,
      "duration": 0.417,
      "velocity": 0.26,
      "hand": "right"
    },
    {
      "midi": 72,
      "time": 4.167,
      "duration": 0.417,
      "velocity": 0.26,
      "hand": "right"
    },
    {
      "midi": 64,
      "time": 4.792,
      "duration": 0.417,
      "velocity": 0.26,
      "hand": "right"
    },
    {
      "midi": 76,
      "time": 5.417,
      "duration": 0.417,
      "velocity": 0.26,
      "hand": "right"
    },
    {
      "midi": 71,
      "time": 6.042,
      "duration": 0.417,
      "velocity": 0.26,
      "hand": "right"
    },
    {
      "midi": 69,
      "time": 6.667,
      "duration": 0.417,
      "velocity": 0.26,
      "hand": "right"
    },
    {
      "midi": 60,
      "time": 7.292,
      "duration": 0.417,
      "velocity": 0.26,
      "hand": "right"
    },
    {
      "midi": 71,
      "time": 7.917,
      "duration": 0.417,
      "velocity": 0.26,
      "hand": "right"
    },
    {
      "midi": 62,
      "time": 8.542,
      "duration": 0.417,
      "velocity": 0.26,
      "hand": "right"
    },
    {
      "midi": 69,
      "time": 9.167,
      "duration": 0.833,
      "velocity": 0.26,
      "hand": "right"
    },
    {
      "midi": 76,
      "time": 10,
      "duration": 0.417,
      "velocity": 0.26,
      "hand": "right"
    },
    {
      "midi": 71,
      "time": 11.042,
      "duration": 0.417,
      "velocity": 0.26,
      "hand": "right"
    },
    {
      "midi": 69,
      "time": 11.667,
      "duration": 0.417,
      "velocity": 0.26,
      "hand": "right"
    },
    {
      "midi": 60,
      "time": 12.292,
      "duration": 0.417,
      "velocity": 0.26,
      "hand": "right"
    },
    {
      "midi": 71,
      "time": 12.917,
      "duration": 0.417,
      "velocity": 0.26,
      "hand": "right"
    },
    {
      "midi": 64,
      "time": 13.542,
      "duration": 0.417,
      "velocity": 0.26,
      "hand": "right"
    },
    {
      "midi": 72,
      "time": 14.167,
      "duration": 0.417,
      "velocity": 0.26,
      "hand": "right"
    },
    {
      "midi": 64,
      "time": 14.792,
      "duration": 0.417,
      "velocity": 0.26,
      "hand": "right"
    },
    {
      "midi": 76,
      "time": 15.417,
      "duration": 0.417,
      "velocity": 0.26,
      "hand": "right"
    },
    {
      "midi": 71,
      "time": 16.042,
      "duration": 0.417,
      "velocity": 0.26,
      "hand": "right"
    },
    {
      "midi": 69,
      "time": 16.667,
      "duration": 0.417,
      "velocity": 0.26,
      "hand": "right"
    },
    {
      "midi": 60,
      "time": 17.292,
      "duration": 0.417,
      "velocity": 0.26,
      "hand": "right"
    },
    {
      "midi": 71,
      "time": 17.917,
      "duration": 0.417,
      "velocity": 0.26,
      "hand": "right"
    },
    {
      "midi": 62,
      "time": 18.542,
      "duration": 0.417,
      "velocity": 0.26,
      "hand": "right"
    },
    {
      "midi": 69,
      "time": 19.167,
      "duration": 0.417,
      "velocity": 0.26,
      "hand": "right"
    },
    {
      "midi": 71,
      "time": 19.792,
      "duration": 0.417,
      "velocity": 0.26,
      "hand": "right"
    },
    {
      "midi": 76,
      "time": 20.417,
      "duration": 0.625,
      "velocity": 0.26,
      "hand": "right"
    },
    {
      "midi": 67,
      "time": 21.042,
      "duration": 0.417,
      "velocity": 0.26,
      "hand": "right"
    },
    {
      "midi": 74,
      "time": 21.667,
      "duration": 0.625,
      "velocity": 0.26,
      "hand": "right"
    },
    {
      "midi": 65,
      "time": 22.292,
      "duration": 0.417,
      "velocity": 0.26,
      "hand": "right"
    },
    {
      "midi": 72,
      "time": 22.917,
      "duration": 0.625,
      "velocity": 0.26,
      "hand": "right"
    },
    {
      "midi": 64,
      "time": 23.542,
      "duration": 0.417,
      "velocity": 0.26,
      "hand": "right"
    },
    {
      "midi": 71,
      "time": 24.167,
      "duration": 0.417,
      "velocity": 0.26,
      "hand": "right"
    },
    {
      "midi": 64,
      "time": 24.792,
      "duration": 0.417,
      "velocity": 0.26,
      "hand": "right"
    },
    {
      "midi": 76,
      "time": 25.417,
      "duration": 0.417,
      "velocity": 0.26,
      "hand": "right"
    },
    {
      "midi": 75,
      "time": 26.042,
      "duration": 0.417,
      "velocity": 0.26,
      "hand": "right"
    },
    {
      "midi": 76,
      "time": 26.667,
      "duration": 0.417,
      "velocity": 0.26,
      "hand": "right"
    },
    {
      "midi": 75,
      "time": 27.292,
      "duration": 0.417,
      "velocity": 0.26,
      "hand": "right"
    },
    {
      "midi": 76,
      "time": 27.917,
      "duration": 0.417,
      "velocity": 0.26,
      "hand": "right"
    },
    {
      "midi": 71,
      "time": 28.542,
      "duration": 0.417,
      "velocity": 0.26,
      "hand": "right"
    },
    {
      "midi": 69,
      "time": 29.167,
      "duration": 0.417,
      "velocity": 0.26,
      "hand": "right"
    },
    {
      "midi": 60,
      "time": 29.792,
      "duration": 0.417,
      "velocity": 0.26,
      "hand": "right"
    },
    {
      "midi": 71,
      "time": 30.417,
      "duration": 0.417,
      "velocity": 0.26,
      "hand": "right"
    },
    {
      "midi": 64,
      "time": 31.042,
      "duration": 0.417,
      "velocity": 0.26,
      "hand": "right"
    },
    {
      "midi": 72,
      "time": 31.667,
      "duration": 0.417,
      "velocity": 0.26,
      "hand": "right"
    },
    {
      "midi": 64,
      "time": 32.292,
      "duration": 0.417,
      "velocity": 0.26,
      "hand": "right"
    },
    {
      "midi": 76,
      "time": 32.917,
      "duration": 0.417,
      "velocity": 0.26,
      "hand": "right"
    },
    {
      "midi": 71,
      "time": 33.542,
      "duration": 0.417,
      "velocity": 0.26,
      "hand": "right"
    },
    {
      "midi": 69,
      "time": 34.167,
      "duration": 0.417,
      "velocity": 0.26,
      "hand": "right"
    },
    {
      "midi": 60,
      "time": 34.792,
      "duration": 0.417,
      "velocity": 0.26,
      "hand": "right"
    },
    {
      "midi": 71,
      "time": 35.417,
      "duration": 0.417,
      "velocity": 0.26,
      "hand": "right"
    },
    {
      "midi": 62,
      "time": 36.042,
      "duration": 0.417,
      "velocity": 0.26,
      "hand": "right"
    },
    {
      "midi": 69,
      "time": 36.667,
      "duration": 0.417,
      "velocity": 0.26,
      "hand": "right"
    },
    {
      "midi": 71,
      "time": 37.292,
      "duration": 0.417,
      "velocity": 0.26,
      "hand": "right"
    },
    {
      "midi": 76,
      "time": 37.917,
      "duration": 0.625,
      "velocity": 0.26,
      "hand": "right"
    },
    {
      "midi": 67,
      "time": 38.542,
      "duration": 0.417,
      "velocity": 0.26,
      "hand": "right"
    },
    {
      "midi": 74,
      "time": 39.167,
      "duration": 0.625,
      "velocity": 0.26,
      "hand": "right"
    },
    {
      "midi": 65,
      "time": 39.792,
      "duration": 0.417,
      "velocity": 0.26,
      "hand": "right"
    },
    {
      "midi": 72,
      "time": 40.417,
      "duration": 0.625,
      "velocity": 0.26,
      "hand": "right"
    },
    {
      "midi": 64,
      "time": 41.042,
      "duration": 0.417,
      "velocity": 0.26,
      "hand": "right"
    },
    {
      "midi": 71,
      "time": 41.667,
      "duration": 0.417,
      "velocity": 0.26,
      "hand": "right"
    },
    {
      "midi": 64,
      "time": 42.292,
      "duration": 0.417,
      "velocity": 0.26,
      "hand": "right"
    },
    {
      "midi": 76,
      "time": 42.917,
      "duration": 0.417,
      "velocity": 0.26,
      "hand": "right"
    },
    {
      "midi": 75,
      "time": 43.542,
      "duration": 0.417,
      "velocity": 0.26,
      "hand": "right"
    },
    {
      "midi": 76,
      "time": 44.167,
      "duration": 0.417,
      "velocity": 0.26,
      "hand": "right"
    },
    {
      "midi": 75,
      "time": 44.792,
      "duration": 0.417,
      "velocity": 0.26,
      "hand": "right"
    },
    {
      "midi": 76,
      "time": 45.417,
      "duration": 0.417,
      "velocity": 0.26,
      "hand": "right"
    },
    {
      "midi": 71,
      "time": 46.042,
      "duration": 0.417,
      "velocity": 0.26,
      "hand": "right"
    },
    {
      "midi": 69,
      "time": 46.667,
      "duration": 0.417,
      "velocity": 0.26,
      "hand": "right"
    },
    {
      "midi": 60,
      "time": 47.292,
      "duration": 0.417,
      "velocity": 0.26,
      "hand": "right"
    },
    {
      "midi": 71,
      "time": 47.917,
      "duration": 0.417,
      "velocity": 0.26,
      "hand": "right"
    },
    {
      "midi": 64,
      "time": 48.542,
      "duration": 0.417,
      "velocity": 0.26,
      "hand": "right"
    },
    {
      "midi": 72,
      "time": 49.167,
      "duration": 0.417,
      "velocity": 0.26,
      "hand": "right"
    },
    {
      "midi": 64,
      "time": 49.792,
      "duration": 0.417,
      "velocity": 0.26,
      "hand": "right"
    },
    {
      "midi": 76,
      "time": 50.417,
      "duration": 0.417,
      "velocity": 0.26,
      "hand": "right"
    },
    {
      "midi": 71,
      "time": 51.042,
      "duration": 0.417,
      "velocity": 0.26,
      "hand": "right"
    },
    {
      "midi": 69,
      "time": 51.667,
      "duration": 0.417,
      "velocity": 0.26,
      "hand": "right"
    },
    {
      "midi": 60,
      "time": 52.292,
      "duration": 0.417,
      "velocity": 0.26,
      "hand": "right"
    },
    {
      "midi": 71,
      "time": 52.917,
      "duration": 0.417,
      "velocity": 0.26,
      "hand": "right"
    },
    {
      "midi": 62,
      "time": 53.542,
      "duration": 0.417,
      "velocity": 0.26,
      "hand": "right"
    },
    {
      "midi": 69,
      "time": 54.167,
      "duration": 0.417,
      "velocity": 0.26,
      "hand": "right"
    },
    {
      "midi": 72,
      "time": 54.792,
      "duration": 0.417,
      "velocity": 0.26,
      "hand": "right"
    },
    {
      "midi": 72,
      "time": 55.625,
      "duration": 0.625,
      "velocity": 0.26,
      "hand": "right"
    },
    {
      "midi": 77,
      "time": 56.25,
      "duration": 0.417,
      "velocity": 0.26,
      "hand": "right"
    },
    {
      "midi": 76,
      "time": 56.667,
      "duration": 0.417,
      "velocity": 0.26,
      "hand": "right"
    },
    {
      "midi": 82,
      "time": 57.5,
      "duration": 0.417,
      "velocity": 0.26,
      "hand": "right"
    },
    {
      "midi": 81,
      "time": 57.917,
      "duration": 0.417,
      "velocity": 0.26,
      "hand": "right"
    },
    {
      "midi": 76,
      "time": 58.542,
      "duration": 0.417,
      "velocity": 0.26,
      "hand": "right"
    },
    {
      "midi": 70,
      "time": 59.167,
      "duration": 0.417,
      "velocity": 0.26,
      "hand": "right"
    },
    {
      "midi": 60,
      "time": 60,
      "duration": 0.417,
      "velocity": 0.26,
      "hand": "right"
    },
    {
      "midi": 72,
      "time": 60.417,
      "duration": 0.833,
      "velocity": 0.26,
      "hand": "right"
    },
    {
      "midi": 74,
      "time": 61.25,
      "duration": 0.417,
      "velocity": 0.26,
      "hand": "right"
    },
    {
      "midi": 76,
      "time": 61.667,
      "duration": 0.625,
      "velocity": 0.26,
      "hand": "right"
    },
    {
      "midi": 76,
      "time": 62.292,
      "duration": 0.417,
      "velocity": 0.26,
      "hand": "right"
    },
    {
      "midi": 72,
      "time": 62.917,
      "duration": 0.833,
      "velocity": 0.26,
      "hand": "right"
    },
    {
      "midi": 65,
      "time": 63.542,
      "duration": 0.417,
      "velocity": 0.26,
      "hand": "right"
    },
    {
      "midi": 64,
      "time": 64.167,
      "duration": 0.417,
      "velocity": 0.26,
      "hand": "right"
    },
    {
      "midi": 67,
      "time": 64.792,
      "duration": 0.417,
      "velocity": 0.26,
      "hand": "right"
    },
    {
      "midi": 67,
      "time": 65.417,
      "duration": 0.417,
      "velocity": 0.26,
      "hand": "right"
    },
    {
      "midi": 60,
      "time": 66.667,
      "duration": 0.417,
      "velocity": 0.26,
      "hand": "right"
    },
    {
      "midi": 67,
      "time": 67.292,
      "duration": 0.417,
      "velocity": 0.26,
      "hand": "right"
    },
    {
      "midi": 64,
      "time": 67.917,
      "duration": 0.417,
      "velocity": 0.26,
      "hand": "right"
    },
    {
      "midi": 76,
      "time": 70.417,
      "duration": 0.625,
      "velocity": 0.26,
      "hand": "right"
    },
    {
      "midi": 71,
      "time": 71.042,
      "duration": 0.417,
      "velocity": 0.26,
      "hand": "right"
    },
    {
      "midi": 76,
      "time": 71.667,
      "duration": 0.625,
      "velocity": 0.26,
      "hand": "right"
    },
    {
      "midi": 71,
      "time": 72.292,
      "duration": 0.417,
      "velocity": 0.26,
      "hand": "right"
    },
    {
      "midi": 76,
      "time": 72.917,
      "duration": 0.417,
      "velocity": 0.26,
      "hand": "right"
    },
    {
      "midi": 75,
      "time": 73.542,
      "duration": 0.417,
      "velocity": 0.26,
      "hand": "right"
    },
    {
      "midi": 76,
      "time": 74.167,
      "duration": 0.417,
      "velocity": 0.26,
      "hand": "right"
    },
    {
      "midi": 71,
      "time": 74.792,
      "duration": 0.417,
      "velocity": 0.26,
      "hand": "right"
    },
    {
      "midi": 69,
      "time": 75.417,
      "duration": 0.417,
      "velocity": 0.26,
      "hand": "right"
    },
    {
      "midi": 60,
      "time": 76.042,
      "duration": 0.417,
      "velocity": 0.26,
      "hand": "right"
    },
    {
      "midi": 71,
      "time": 76.667,
      "duration": 0.417,
      "velocity": 0.26,
      "hand": "right"
    },
    {
      "midi": 64,
      "time": 77.292,
      "duration": 0.417,
      "velocity": 0.26,
      "hand": "right"
    },
    {
      "midi": 72,
      "time": 77.917,
      "duration": 0.417,
      "velocity": 0.26,
      "hand": "right"
    },
    {
      "midi": 64,
      "time": 78.542,
      "duration": 0.417,
      "velocity": 0.26,
      "hand": "right"
    },
    {
      "midi": 76,
      "time": 79.167,
      "duration": 0.417,
      "velocity": 0.26,
      "hand": "right"
    },
    {
      "midi": 71,
      "time": 79.792,
      "duration": 0.417,
      "velocity": 0.26,
      "hand": "right"
    },
    {
      "midi": 69,
      "time": 80.417,
      "duration": 0.417,
      "velocity": 0.26,
      "hand": "right"
    },
    {
      "midi": 60,
      "time": 81.042,
      "duration": 0.417,
      "velocity": 0.26,
      "hand": "right"
    },
    {
      "midi": 71,
      "time": 81.667,
      "duration": 0.417,
      "velocity": 0.26,
      "hand": "right"
    },
    {
      "midi": 62,
      "time": 82.292,
      "duration": 0.417,
      "velocity": 0.26,
      "hand": "right"
    },
    {
      "midi": 69,
      "time": 82.917,
      "duration": 0.417,
      "velocity": 0.26,
      "hand": "right"
    },
    {
      "midi": 71,
      "time": 83.542,
      "duration": 0.417,
      "velocity": 0.26,
      "hand": "right"
    },
    {
      "midi": 76,
      "time": 84.167,
      "duration": 0.625,
      "velocity": 0.26,
      "hand": "right"
    },
    {
      "midi": 67,
      "time": 84.792,
      "duration": 0.417,
      "velocity": 0.26,
      "hand": "right"
    },
    {
      "midi": 74,
      "time": 85.417,
      "duration": 0.625,
      "velocity": 0.26,
      "hand": "right"
    },
    {
      "midi": 65,
      "time": 86.042,
      "duration": 0.417,
      "velocity": 0.26,
      "hand": "right"
    },
    {
      "midi": 72,
      "time": 86.667,
      "duration": 0.625,
      "velocity": 0.26,
      "hand": "right"
    },
    {
      "midi": 64,
      "time": 87.292,
      "duration": 0.417,
      "velocity": 0.26,
      "hand": "right"
    },
    {
      "midi": 71,
      "time": 87.917,
      "duration": 0.417,
      "velocity": 0.26,
      "hand": "right"
    },
    {
      "midi": 64,
      "time": 88.542,
      "duration": 0.417,
      "velocity": 0.26,
      "hand": "right"
    },
    {
      "midi": 76,
      "time": 89.167,
      "duration": 0.417,
      "velocity": 0.26,
      "hand": "right"
    },
    {
      "midi": 75,
      "time": 89.792,
      "duration": 0.417,
      "velocity": 0.26,
      "hand": "right"
    },
    {
      "midi": 76,
      "time": 90.417,
      "duration": 0.417,
      "velocity": 0.26,
      "hand": "right"
    },
    {
      "midi": 75,
      "time": 91.042,
      "duration": 0.417,
      "velocity": 0.26,
      "hand": "right"
    },
    {
      "midi": 76,
      "time": 91.667,
      "duration": 0.417,
      "velocity": 0.26,
      "hand": "right"
    },
    {
      "midi": 71,
      "time": 92.292,
      "duration": 0.417,
      "velocity": 0.26,
      "hand": "right"
    },
    {
      "midi": 69,
      "time": 92.917,
      "duration": 0.417,
      "velocity": 0.26,
      "hand": "right"
    },
    {
      "midi": 60,
      "time": 93.542,
      "duration": 0.417,
      "velocity": 0.26,
      "hand": "right"
    },
    {
      "midi": 71,
      "time": 94.167,
      "duration": 0.417,
      "velocity": 0.26,
      "hand": "right"
    },
    {
      "midi": 64,
      "time": 94.792,
      "duration": 0.417,
      "velocity": 0.26,
      "hand": "right"
    },
    {
      "midi": 72,
      "time": 95.417,
      "duration": 0.417,
      "velocity": 0.26,
      "hand": "right"
    },
    {
      "midi": 64,
      "time": 96.042,
      "duration": 0.417,
      "velocity": 0.26,
      "hand": "right"
    },
    {
      "midi": 76,
      "time": 96.667,
      "duration": 0.417,
      "velocity": 0.26,
      "hand": "right"
    },
    {
      "midi": 71,
      "time": 97.292,
      "duration": 0.417,
      "velocity": 0.26,
      "hand": "right"
    },
    {
      "midi": 69,
      "time": 97.917,
      "duration": 0.417,
      "velocity": 0.26,
      "hand": "right"
    },
    {
      "midi": 60,
      "time": 98.542,
      "duration": 0.417,
      "velocity": 0.26,
      "hand": "right"
    },
    {
      "midi": 71,
      "time": 99.167,
      "duration": 0.417,
      "velocity": 0.26,
      "hand": "right"
    },
    {
      "midi": 62,
      "time": 99.792,
      "duration": 0.417,
      "velocity": 0.26,
      "hand": "right"
    },
    {
      "midi": 69,
      "time": 100.417,
      "duration": 0.417,
      "velocity": 0.26,
      "hand": "right"
    },
    {
      "midi": 73,
      "time": 101.667,
      "duration": 1.25,
      "velocity": 0.26,
      "hand": "right"
    },
    {
      "midi": 74,
      "time": 102.917,
      "duration": 0.833,
      "velocity": 0.26,
      "hand": "right"
    },
    {
      "midi": 76,
      "time": 103.75,
      "duration": 0.417,
      "velocity": 0.26,
      "hand": "right"
    },
    {
      "midi": 77,
      "time": 104.167,
      "duration": 0.833,
      "velocity": 0.26,
      "hand": "right"
    },
    {
      "midi": 77,
      "time": 105,
      "duration": 0.417,
      "velocity": 0.26,
      "hand": "right"
    },
    {
      "midi": 76,
      "time": 105.417,
      "duration": 1.25,
      "velocity": 0.26,
      "hand": "right"
    },
    {
      "midi": 74,
      "time": 106.667,
      "duration": 0.833,
      "velocity": 0.26,
      "hand": "right"
    },
    {
      "midi": 72,
      "time": 107.5,
      "duration": 0.417,
      "velocity": 0.26,
      "hand": "right"
    },
    {
      "midi": 69,
      "time": 107.917,
      "duration": 0.833,
      "velocity": 0.26,
      "hand": "right"
    },
    {
      "midi": 69,
      "time": 108.75,
      "duration": 0.417,
      "velocity": 0.26,
      "hand": "right"
    },
    {
      "midi": 71,
      "time": 110,
      "duration": 0.417,
      "velocity": 0.26,
      "hand": "right"
    },
    {
      "midi": 69,
      "time": 110.417,
      "duration": 1.25,
      "velocity": 0.26,
      "hand": "right"
    },
    {
      "midi": 73,
      "time": 111.667,
      "duration": 1.25,
      "velocity": 0.26,
      "hand": "right"
    },
    {
      "midi": 74,
      "time": 112.917,
      "duration": 0.833,
      "velocity": 0.26,
      "hand": "right"
    },
    {
      "midi": 76,
      "time": 113.75,
      "duration": 0.417,
      "velocity": 0.26,
      "hand": "right"
    },
    {
      "midi": 77,
      "time": 114.167,
      "duration": 0.833,
      "velocity": 0.26,
      "hand": "right"
    },
    {
      "midi": 77,
      "time": 115,
      "duration": 0.417,
      "velocity": 0.26,
      "hand": "right"
    },
    {
      "midi": 75,
      "time": 116.667,
      "duration": 0.833,
      "velocity": 0.26,
      "hand": "right"
    },
    {
      "midi": 74,
      "time": 117.5,
      "duration": 0.417,
      "velocity": 0.26,
      "hand": "right"
    },
    {
      "midi": 70,
      "time": 117.917,
      "duration": 0.833,
      "velocity": 0.26,
      "hand": "right"
    },
    {
      "midi": 69,
      "time": 118.75,
      "duration": 0.417,
      "velocity": 0.26,
      "hand": "right"
    },
    {
      "midi": 68,
      "time": 119.167,
      "duration": 0.833,
      "velocity": 0.26,
      "hand": "right"
    },
    {
      "midi": 68,
      "time": 120,
      "duration": 0.417,
      "velocity": 0.26,
      "hand": "right"
    },
    {
      "midi": 69,
      "time": 120.417,
      "duration": 0.833,
      "velocity": 0.26,
      "hand": "right"
    },
    {
      "midi": 71,
      "time": 121.667,
      "duration": 0.417,
      "velocity": 0.26,
      "hand": "right"
    },
    {
      "midi": 64,
      "time": 123.125,
      "duration": 0.417,
      "velocity": 0.26,
      "hand": "right"
    },
    {
      "midi": 76,
      "time": 123.542,
      "duration": 0.417,
      "velocity": 0.26,
      "hand": "right"
    },
    {
      "midi": 69,
      "time": 124.167,
      "duration": 0.417,
      "velocity": 0.26,
      "hand": "right"
    },
    {
      "midi": 88,
      "time": 124.792,
      "duration": 0.417,
      "velocity": 0.26,
      "hand": "right"
    },
    {
      "midi": 81,
      "time": 125.417,
      "duration": 0.417,
      "velocity": 0.26,
      "hand": "right"
    },
    {
      "midi": 100,
      "time": 126.042,
      "duration": 0.417,
      "velocity": 0.26,
      "hand": "right"
    },
    {
      "midi": 94,
      "time": 126.667,
      "duration": 0.417,
      "velocity": 0.26,
      "hand": "right"
    },
    {
      "midi": 90,
      "time": 127.292,
      "duration": 0.417,
      "velocity": 0.26,
      "hand": "right"
    },
    {
      "midi": 85,
      "time": 127.917,
      "duration": 0.417,
      "velocity": 0.26,
      "hand": "right"
    },
    {
      "midi": 81,
      "time": 128.542,
      "duration": 0.417,
      "velocity": 0.26,
      "hand": "right"
    },
    {
      "midi": 76,
      "time": 129.167,
      "duration": 0.417,
      "velocity": 0.26,
      "hand": "right"
    },
    {
      "midi": 71,
      "time": 129.792,
      "duration": 0.417,
      "velocity": 0.26,
      "hand": "right"
    },
    {
      "midi": 69,
      "time": 130.417,
      "duration": 0.417,
      "velocity": 0.26,
      "hand": "right"
    },
    {
      "midi": 60,
      "time": 131.042,
      "duration": 0.417,
      "velocity": 0.26,
      "hand": "right"
    },
    {
      "midi": 71,
      "time": 131.667,
      "duration": 0.417,
      "velocity": 0.26,
      "hand": "right"
    },
    {
      "midi": 64,
      "time": 132.292,
      "duration": 0.417,
      "velocity": 0.26,
      "hand": "right"
    },
    {
      "midi": 72,
      "time": 132.917,
      "duration": 0.417,
      "velocity": 0.26,
      "hand": "right"
    },
    {
      "midi": 64,
      "time": 133.542,
      "duration": 0.417,
      "velocity": 0.26,
      "hand": "right"
    },
    {
      "midi": 76,
      "time": 134.167,
      "duration": 0.417,
      "velocity": 0.26,
      "hand": "right"
    },
    {
      "midi": 71,
      "time": 134.792,
      "duration": 0.417,
      "velocity": 0.26,
      "hand": "right"
    },
    {
      "midi": 69,
      "time": 135.417,
      "duration": 0.417,
      "velocity": 0.26,
      "hand": "right"
    },
    {
      "midi": 60,
      "time": 136.042,
      "duration": 0.417,
      "velocity": 0.26,
      "hand": "right"
    },
    {
      "midi": 71,
      "time": 136.667,
      "duration": 0.417,
      "velocity": 0.26,
      "hand": "right"
    },
    {
      "midi": 62,
      "time": 137.292,
      "duration": 0.417,
      "velocity": 0.26,
      "hand": "right"
    },
    {
      "midi": 69,
      "time": 137.917,
      "duration": 0.417,
      "velocity": 0.26,
      "hand": "right"
    },
    {
      "midi": 71,
      "time": 138.542,
      "duration": 0.417,
      "velocity": 0.26,
      "hand": "right"
    },
    {
      "midi": 76,
      "time": 139.167,
      "duration": 0.625,
      "velocity": 0.26,
      "hand": "right"
    },
    {
      "midi": 67,
      "time": 139.792,
      "duration": 0.417,
      "velocity": 0.26,
      "hand": "right"
    },
    {
      "midi": 74,
      "time": 140.417,
      "duration": 0.625,
      "velocity": 0.26,
      "hand": "right"
    },
    {
      "midi": 65,
      "time": 141.042,
      "duration": 0.417,
      "velocity": 0.26,
      "hand": "right"
    },
    {
      "midi": 72,
      "time": 141.667,
      "duration": 0.625,
      "velocity": 0.26,
      "hand": "right"
    },
    {
      "midi": 64,
      "time": 142.292,
      "duration": 0.417,
      "velocity": 0.26,
      "hand": "right"
    },
    {
      "midi": 71,
      "time": 142.917,
      "duration": 0.417,
      "velocity": 0.26,
      "hand": "right"
    },
    {
      "midi": 64,
      "time": 143.542,
      "duration": 0.417,
      "velocity": 0.26,
      "hand": "right"
    },
    {
      "midi": 76,
      "time": 144.167,
      "duration": 0.417,
      "velocity": 0.26,
      "hand": "right"
    },
    {
      "midi": 75,
      "time": 144.792,
      "duration": 0.417,
      "velocity": 0.26,
      "hand": "right"
    },
    {
      "midi": 76,
      "time": 145.417,
      "duration": 0.417,
      "velocity": 0.26,
      "hand": "right"
    },
    {
      "midi": 75,
      "time": 146.042,
      "duration": 0.417,
      "velocity": 0.26,
      "hand": "right"
    },
    {
      "midi": 76,
      "time": 146.667,
      "duration": 0.417,
      "velocity": 0.26,
      "hand": "right"
    },
    {
      "midi": 71,
      "time": 147.292,
      "duration": 0.417,
      "velocity": 0.26,
      "hand": "right"
    },
    {
      "midi": 69,
      "time": 147.917,
      "duration": 0.417,
      "velocity": 0.26,
      "hand": "right"
    },
    {
      "midi": 60,
      "time": 148.542,
      "duration": 0.417,
      "velocity": 0.26,
      "hand": "right"
    },
    {
      "midi": 71,
      "time": 149.167,
      "duration": 0.417,
      "velocity": 0.26,
      "hand": "right"
    },
    {
      "midi": 64,
      "time": 149.792,
      "duration": 0.417,
      "velocity": 0.26,
      "hand": "right"
    },
    {
      "midi": 72,
      "time": 150.417,
      "duration": 0.417,
      "velocity": 0.26,
      "hand": "right"
    },
    {
      "midi": 64,
      "time": 151.042,
      "duration": 0.417,
      "velocity": 0.26,
      "hand": "right"
    },
    {
      "midi": 76,
      "time": 151.667,
      "duration": 0.417,
      "velocity": 0.26,
      "hand": "right"
    },
    {
      "midi": 71,
      "time": 152.292,
      "duration": 0.417,
      "velocity": 0.26,
      "hand": "right"
    },
    {
      "midi": 69,
      "time": 152.917,
      "duration": 0.417,
      "velocity": 0.26,
      "hand": "right"
    },
    {
      "midi": 60,
      "time": 153.542,
      "duration": 0.417,
      "velocity": 0.26,
      "hand": "right"
    },
    {
      "midi": 71,
      "time": 154.167,
      "duration": 0.417,
      "velocity": 0.26,
      "hand": "right"
    },
    {
      "midi": 62,
      "time": 154.792,
      "duration": 0.417,
      "velocity": 0.26,
      "hand": "right"
    },
    {
      "midi": 69,
      "time": 155.625,
      "duration": 0.625,
      "velocity": 0.26,
      "hand": "right"
    }
  ],
  "notes2Hands": [
    {
      "midi": 76,
      "time": 0,
      "duration": 0.208,
      "velocity": 0.26,
      "hand": "right"
    },
    {
      "midi": 75,
      "time": 0.208,
      "duration": 0.208,
      "velocity": 0.26,
      "hand": "right"
    },
    {
      "midi": 76,
      "time": 0.417,
      "duration": 0.208,
      "velocity": 0.26,
      "hand": "right"
    },
    {
      "midi": 75,
      "time": 0.625,
      "duration": 0.208,
      "velocity": 0.26,
      "hand": "right"
    },
    {
      "midi": 76,
      "time": 0.833,
      "duration": 0.208,
      "velocity": 0.26,
      "hand": "right"
    },
    {
      "midi": 71,
      "time": 1.042,
      "duration": 0.208,
      "velocity": 0.26,
      "hand": "right"
    },
    {
      "midi": 74,
      "time": 1.25,
      "duration": 0.208,
      "velocity": 0.26,
      "hand": "right"
    },
    {
      "midi": 72,
      "time": 1.458,
      "duration": 0.208,
      "velocity": 0.26,
      "hand": "right"
    },
    {
      "midi": 45,
      "time": 1.667,
      "duration": 0.208,
      "velocity": 0.26,
      "hand": "left"
    },
    {
      "midi": 69,
      "time": 1.667,
      "duration": 0.417,
      "velocity": 0.26,
      "hand": "right"
    },
    {
      "midi": 52,
      "time": 1.875,
      "duration": 0.208,
      "velocity": 0.26,
      "hand": "left"
    },
    {
      "midi": 57,
      "time": 2.083,
      "duration": 0.208,
      "velocity": 0.26,
      "hand": "left"
    },
    {
      "midi": 60,
      "time": 2.292,
      "duration": 0.208,
      "velocity": 0.26,
      "hand": "right"
    },
    {
      "midi": 64,
      "time": 2.5,
      "duration": 0.208,
      "velocity": 0.26,
      "hand": "right"
    },
    {
      "midi": 69,
      "time": 2.708,
      "duration": 0.208,
      "velocity": 0.26,
      "hand": "right"
    },
    {
      "midi": 40,
      "time": 2.917,
      "duration": 0.208,
      "velocity": 0.26,
      "hand": "left"
    },
    {
      "midi": 71,
      "time": 2.917,
      "duration": 0.417,
      "velocity": 0.26,
      "hand": "right"
    },
    {
      "midi": 52,
      "time": 3.125,
      "duration": 0.208,
      "velocity": 0.26,
      "hand": "left"
    },
    {
      "midi": 56,
      "time": 3.333,
      "duration": 0.208,
      "velocity": 0.26,
      "hand": "left"
    },
    {
      "midi": 64,
      "time": 3.542,
      "duration": 0.208,
      "velocity": 0.26,
      "hand": "right"
    },
    {
      "midi": 68,
      "time": 3.75,
      "duration": 0.208,
      "velocity": 0.26,
      "hand": "right"
    },
    {
      "midi": 71,
      "time": 3.958,
      "duration": 0.208,
      "velocity": 0.26,
      "hand": "right"
    },
    {
      "midi": 45,
      "time": 4.167,
      "duration": 0.208,
      "velocity": 0.26,
      "hand": "left"
    },
    {
      "midi": 72,
      "time": 4.167,
      "duration": 0.417,
      "velocity": 0.26,
      "hand": "right"
    },
    {
      "midi": 52,
      "time": 4.375,
      "duration": 0.208,
      "velocity": 0.26,
      "hand": "left"
    },
    {
      "midi": 57,
      "time": 4.583,
      "duration": 0.208,
      "velocity": 0.26,
      "hand": "left"
    },
    {
      "midi": 64,
      "time": 4.792,
      "duration": 0.208,
      "velocity": 0.26,
      "hand": "right"
    },
    {
      "midi": 76,
      "time": 5,
      "duration": 0.208,
      "velocity": 0.26,
      "hand": "right"
    },
    {
      "midi": 75,
      "time": 5.208,
      "duration": 0.208,
      "velocity": 0.26,
      "hand": "right"
    },
    {
      "midi": 76,
      "time": 5.417,
      "duration": 0.208,
      "velocity": 0.26,
      "hand": "right"
    },
    {
      "midi": 75,
      "time": 5.625,
      "duration": 0.208,
      "velocity": 0.26,
      "hand": "right"
    },
    {
      "midi": 76,
      "time": 5.833,
      "duration": 0.208,
      "velocity": 0.26,
      "hand": "right"
    },
    {
      "midi": 71,
      "time": 6.042,
      "duration": 0.208,
      "velocity": 0.26,
      "hand": "right"
    },
    {
      "midi": 74,
      "time": 6.25,
      "duration": 0.208,
      "velocity": 0.26,
      "hand": "right"
    },
    {
      "midi": 72,
      "time": 6.458,
      "duration": 0.208,
      "velocity": 0.26,
      "hand": "right"
    },
    {
      "midi": 45,
      "time": 6.667,
      "duration": 0.208,
      "velocity": 0.26,
      "hand": "left"
    },
    {
      "midi": 69,
      "time": 6.667,
      "duration": 0.417,
      "velocity": 0.26,
      "hand": "right"
    },
    {
      "midi": 52,
      "time": 6.875,
      "duration": 0.208,
      "velocity": 0.26,
      "hand": "left"
    },
    {
      "midi": 57,
      "time": 7.083,
      "duration": 0.208,
      "velocity": 0.26,
      "hand": "left"
    },
    {
      "midi": 60,
      "time": 7.292,
      "duration": 0.208,
      "velocity": 0.26,
      "hand": "right"
    },
    {
      "midi": 64,
      "time": 7.5,
      "duration": 0.208,
      "velocity": 0.26,
      "hand": "right"
    },
    {
      "midi": 69,
      "time": 7.708,
      "duration": 0.208,
      "velocity": 0.26,
      "hand": "right"
    },
    {
      "midi": 40,
      "time": 7.917,
      "duration": 0.208,
      "velocity": 0.26,
      "hand": "left"
    },
    {
      "midi": 71,
      "time": 7.917,
      "duration": 0.417,
      "velocity": 0.26,
      "hand": "right"
    },
    {
      "midi": 52,
      "time": 8.125,
      "duration": 0.208,
      "velocity": 0.26,
      "hand": "left"
    },
    {
      "midi": 56,
      "time": 8.333,
      "duration": 0.208,
      "velocity": 0.26,
      "hand": "left"
    },
    {
      "midi": 62,
      "time": 8.542,
      "duration": 0.208,
      "velocity": 0.26,
      "hand": "right"
    },
    {
      "midi": 72,
      "time": 8.75,
      "duration": 0.208,
      "velocity": 0.26,
      "hand": "right"
    },
    {
      "midi": 71,
      "time": 8.958,
      "duration": 0.208,
      "velocity": 0.26,
      "hand": "right"
    },
    {
      "midi": 45,
      "time": 9.167,
      "duration": 0.208,
      "velocity": 0.26,
      "hand": "left"
    },
    {
      "midi": 69,
      "time": 9.167,
      "duration": 0.833,
      "velocity": 0.26,
      "hand": "right"
    },
    {
      "midi": 52,
      "time": 9.375,
      "duration": 0.208,
      "velocity": 0.26,
      "hand": "left"
    },
    {
      "midi": 57,
      "time": 9.583,
      "duration": 0.208,
      "velocity": 0.26,
      "hand": "left"
    },
    {
      "midi": 76,
      "time": 10,
      "duration": 0.208,
      "velocity": 0.26,
      "hand": "right"
    },
    {
      "midi": 75,
      "time": 10.208,
      "duration": 0.208,
      "velocity": 0.26,
      "hand": "right"
    },
    {
      "midi": 76,
      "time": 10.417,
      "duration": 0.208,
      "velocity": 0.26,
      "hand": "right"
    },
    {
      "midi": 75,
      "time": 10.625,
      "duration": 0.208,
      "velocity": 0.26,
      "hand": "right"
    },
    {
      "midi": 76,
      "time": 10.833,
      "duration": 0.208,
      "velocity": 0.26,
      "hand": "right"
    },
    {
      "midi": 71,
      "time": 11.042,
      "duration": 0.208,
      "velocity": 0.26,
      "hand": "right"
    },
    {
      "midi": 74,
      "time": 11.25,
      "duration": 0.208,
      "velocity": 0.26,
      "hand": "right"
    },
    {
      "midi": 72,
      "time": 11.458,
      "duration": 0.208,
      "velocity": 0.26,
      "hand": "right"
    },
    {
      "midi": 45,
      "time": 11.667,
      "duration": 0.208,
      "velocity": 0.26,
      "hand": "left"
    },
    {
      "midi": 69,
      "time": 11.667,
      "duration": 0.417,
      "velocity": 0.26,
      "hand": "right"
    },
    {
      "midi": 52,
      "time": 11.875,
      "duration": 0.208,
      "velocity": 0.26,
      "hand": "left"
    },
    {
      "midi": 57,
      "time": 12.083,
      "duration": 0.208,
      "velocity": 0.26,
      "hand": "left"
    },
    {
      "midi": 60,
      "time": 12.292,
      "duration": 0.208,
      "velocity": 0.26,
      "hand": "right"
    },
    {
      "midi": 64,
      "time": 12.5,
      "duration": 0.208,
      "velocity": 0.26,
      "hand": "right"
    },
    {
      "midi": 69,
      "time": 12.708,
      "duration": 0.208,
      "velocity": 0.26,
      "hand": "right"
    },
    {
      "midi": 40,
      "time": 12.917,
      "duration": 0.208,
      "velocity": 0.26,
      "hand": "left"
    },
    {
      "midi": 71,
      "time": 12.917,
      "duration": 0.417,
      "velocity": 0.26,
      "hand": "right"
    },
    {
      "midi": 52,
      "time": 13.125,
      "duration": 0.208,
      "velocity": 0.26,
      "hand": "left"
    },
    {
      "midi": 56,
      "time": 13.333,
      "duration": 0.208,
      "velocity": 0.26,
      "hand": "left"
    },
    {
      "midi": 64,
      "time": 13.542,
      "duration": 0.208,
      "velocity": 0.26,
      "hand": "right"
    },
    {
      "midi": 68,
      "time": 13.75,
      "duration": 0.208,
      "velocity": 0.26,
      "hand": "right"
    },
    {
      "midi": 71,
      "time": 13.958,
      "duration": 0.208,
      "velocity": 0.26,
      "hand": "right"
    },
    {
      "midi": 45,
      "time": 14.167,
      "duration": 0.208,
      "velocity": 0.26,
      "hand": "left"
    },
    {
      "midi": 72,
      "time": 14.167,
      "duration": 0.417,
      "velocity": 0.26,
      "hand": "right"
    },
    {
      "midi": 52,
      "time": 14.375,
      "duration": 0.208,
      "velocity": 0.26,
      "hand": "left"
    },
    {
      "midi": 57,
      "time": 14.583,
      "duration": 0.208,
      "velocity": 0.26,
      "hand": "left"
    },
    {
      "midi": 64,
      "time": 14.792,
      "duration": 0.208,
      "velocity": 0.26,
      "hand": "right"
    },
    {
      "midi": 76,
      "time": 15,
      "duration": 0.208,
      "velocity": 0.26,
      "hand": "right"
    },
    {
      "midi": 75,
      "time": 15.208,
      "duration": 0.208,
      "velocity": 0.26,
      "hand": "right"
    },
    {
      "midi": 76,
      "time": 15.417,
      "duration": 0.208,
      "velocity": 0.26,
      "hand": "right"
    },
    {
      "midi": 75,
      "time": 15.625,
      "duration": 0.208,
      "velocity": 0.26,
      "hand": "right"
    },
    {
      "midi": 76,
      "time": 15.833,
      "duration": 0.208,
      "velocity": 0.26,
      "hand": "right"
    },
    {
      "midi": 71,
      "time": 16.042,
      "duration": 0.208,
      "velocity": 0.26,
      "hand": "right"
    },
    {
      "midi": 74,
      "time": 16.25,
      "duration": 0.208,
      "velocity": 0.26,
      "hand": "right"
    },
    {
      "midi": 72,
      "time": 16.458,
      "duration": 0.208,
      "velocity": 0.26,
      "hand": "right"
    },
    {
      "midi": 45,
      "time": 16.667,
      "duration": 0.208,
      "velocity": 0.26,
      "hand": "left"
    },
    {
      "midi": 69,
      "time": 16.667,
      "duration": 0.417,
      "velocity": 0.26,
      "hand": "right"
    },
    {
      "midi": 52,
      "time": 16.875,
      "duration": 0.208,
      "velocity": 0.26,
      "hand": "left"
    },
    {
      "midi": 57,
      "time": 17.083,
      "duration": 0.208,
      "velocity": 0.26,
      "hand": "left"
    },
    {
      "midi": 60,
      "time": 17.292,
      "duration": 0.208,
      "velocity": 0.26,
      "hand": "right"
    },
    {
      "midi": 64,
      "time": 17.5,
      "duration": 0.208,
      "velocity": 0.26,
      "hand": "right"
    },
    {
      "midi": 69,
      "time": 17.708,
      "duration": 0.208,
      "velocity": 0.26,
      "hand": "right"
    },
    {
      "midi": 40,
      "time": 17.917,
      "duration": 0.208,
      "velocity": 0.26,
      "hand": "left"
    },
    {
      "midi": 71,
      "time": 17.917,
      "duration": 0.417,
      "velocity": 0.26,
      "hand": "right"
    },
    {
      "midi": 52,
      "time": 18.125,
      "duration": 0.208,
      "velocity": 0.26,
      "hand": "left"
    },
    {
      "midi": 56,
      "time": 18.333,
      "duration": 0.208,
      "velocity": 0.26,
      "hand": "left"
    },
    {
      "midi": 62,
      "time": 18.542,
      "duration": 0.208,
      "velocity": 0.26,
      "hand": "right"
    },
    {
      "midi": 72,
      "time": 18.75,
      "duration": 0.208,
      "velocity": 0.26,
      "hand": "right"
    },
    {
      "midi": 71,
      "time": 18.958,
      "duration": 0.208,
      "velocity": 0.26,
      "hand": "right"
    },
    {
      "midi": 45,
      "time": 19.167,
      "duration": 0.208,
      "velocity": 0.26,
      "hand": "left"
    },
    {
      "midi": 69,
      "time": 19.167,
      "duration": 0.417,
      "velocity": 0.26,
      "hand": "right"
    },
    {
      "midi": 52,
      "time": 19.375,
      "duration": 0.208,
      "velocity": 0.26,
      "hand": "left"
    },
    {
      "midi": 57,
      "time": 19.583,
      "duration": 0.208,
      "velocity": 0.26,
      "hand": "left"
    },
    {
      "midi": 71,
      "time": 19.792,
      "duration": 0.208,
      "velocity": 0.26,
      "hand": "right"
    },
    {
      "midi": 72,
      "time": 20,
      "duration": 0.208,
      "velocity": 0.26,
      "hand": "right"
    },
    {
      "midi": 74,
      "time": 20.208,
      "duration": 0.208,
      "velocity": 0.26,
      "hand": "right"
    },
    {
      "midi": 48,
      "time": 20.417,
      "duration": 0.208,
      "velocity": 0.26,
      "hand": "left"
    },
    {
      "midi": 76,
      "time": 20.417,
      "duration": 0.625,
      "velocity": 0.26,
      "hand": "right"
    },
    {
      "midi": 55,
      "time": 20.625,
      "duration": 0.208,
      "velocity": 0.26,
      "hand": "left"
    },
    {
      "midi": 60,
      "time": 20.833,
      "duration": 0.208,
      "velocity": 0.26,
      "hand": "right"
    },
    {
      "midi": 67,
      "time": 21.042,
      "duration": 0.208,
      "velocity": 0.26,
      "hand": "right"
    },
    {
      "midi": 77,
      "time": 21.25,
      "duration": 0.208,
      "velocity": 0.26,
      "hand": "right"
    },
    {
      "midi": 76,
      "time": 21.458,
      "duration": 0.208,
      "velocity": 0.26,
      "hand": "right"
    },
    {
      "midi": 43,
      "time": 21.667,
      "duration": 0.208,
      "velocity": 0.26,
      "hand": "left"
    },
    {
      "midi": 74,
      "time": 21.667,
      "duration": 0.625,
      "velocity": 0.26,
      "hand": "right"
    },
    {
      "midi": 55,
      "time": 21.875,
      "duration": 0.208,
      "velocity": 0.26,
      "hand": "left"
    },
    {
      "midi": 59,
      "time": 22.083,
      "duration": 0.208,
      "velocity": 0.26,
      "hand": "left"
    },
    {
      "midi": 65,
      "time": 22.292,
      "duration": 0.208,
      "velocity": 0.26,
      "hand": "right"
    },
    {
      "midi": 76,
      "time": 22.5,
      "duration": 0.208,
      "velocity": 0.26,
      "hand": "right"
    },
    {
      "midi": 74,
      "time": 22.708,
      "duration": 0.208,
      "velocity": 0.26,
      "hand": "right"
    },
    {
      "midi": 45,
      "time": 22.917,
      "duration": 0.208,
      "velocity": 0.26,
      "hand": "left"
    },
    {
      "midi": 72,
      "time": 22.917,
      "duration": 0.625,
      "velocity": 0.26,
      "hand": "right"
    },
    {
      "midi": 52,
      "time": 23.125,
      "duration": 0.208,
      "velocity": 0.26,
      "hand": "left"
    },
    {
      "midi": 57,
      "time": 23.333,
      "duration": 0.208,
      "velocity": 0.26,
      "hand": "left"
    },
    {
      "midi": 64,
      "time": 23.542,
      "duration": 0.208,
      "velocity": 0.26,
      "hand": "right"
    },
    {
      "midi": 74,
      "time": 23.75,
      "duration": 0.208,
      "velocity": 0.26,
      "hand": "right"
    },
    {
      "midi": 72,
      "time": 23.958,
      "duration": 0.208,
      "velocity": 0.26,
      "hand": "right"
    },
    {
      "midi": 40,
      "time": 24.167,
      "duration": 0.208,
      "velocity": 0.26,
      "hand": "left"
    },
    {
      "midi": 71,
      "time": 24.167,
      "duration": 0.417,
      "velocity": 0.26,
      "hand": "right"
    },
    {
      "midi": 52,
      "time": 24.375,
      "duration": 0.208,
      "velocity": 0.26,
      "hand": "left"
    },
    {
      "midi": 64,
      "time": 24.583,
      "duration": 0.208,
      "velocity": 0.26,
      "hand": "right"
    },
    {
      "midi": 64,
      "time": 24.792,
      "duration": 0.208,
      "velocity": 0.26,
      "hand": "right"
    },
    {
      "midi": 76,
      "time": 25,
      "duration": 0.208,
      "velocity": 0.26,
      "hand": "right"
    },
    {
      "midi": 64,
      "time": 25.208,
      "duration": 0.208,
      "velocity": 0.26,
      "hand": "right"
    },
    {
      "midi": 76,
      "time": 25.417,
      "duration": 0.208,
      "velocity": 0.26,
      "hand": "right"
    },
    {
      "midi": 76,
      "time": 25.625,
      "duration": 0.208,
      "velocity": 0.26,
      "hand": "right"
    },
    {
      "midi": 88,
      "time": 25.833,
      "duration": 0.208,
      "velocity": 0.26,
      "hand": "right"
    },
    {
      "midi": 75,
      "time": 26.042,
      "duration": 0.208,
      "velocity": 0.26,
      "hand": "right"
    },
    {
      "midi": 76,
      "time": 26.25,
      "duration": 0.208,
      "velocity": 0.26,
      "hand": "right"
    },
    {
      "midi": 75,
      "time": 26.458,
      "duration": 0.208,
      "velocity": 0.26,
      "hand": "right"
    },
    {
      "midi": 76,
      "time": 26.667,
      "duration": 0.417,
      "velocity": 0.26,
      "hand": "right"
    },
    {
      "midi": 75,
      "time": 26.875,
      "duration": 0.208,
      "velocity": 0.26,
      "hand": "right"
    },
    {
      "midi": 76,
      "time": 27.083,
      "duration": 0.208,
      "velocity": 0.26,
      "hand": "right"
    },
    {
      "midi": 75,
      "time": 27.292,
      "duration": 0.208,
      "velocity": 0.26,
      "hand": "right"
    },
    {
      "midi": 76,
      "time": 27.5,
      "duration": 0.208,
      "velocity": 0.26,
      "hand": "right"
    },
    {
      "midi": 75,
      "time": 27.708,
      "duration": 0.208,
      "velocity": 0.26,
      "hand": "right"
    },
    {
      "midi": 76,
      "time": 27.917,
      "duration": 0.208,
      "velocity": 0.26,
      "hand": "right"
    },
    {
      "midi": 75,
      "time": 28.125,
      "duration": 0.208,
      "velocity": 0.26,
      "hand": "right"
    },
    {
      "midi": 76,
      "time": 28.333,
      "duration": 0.208,
      "velocity": 0.26,
      "hand": "right"
    },
    {
      "midi": 71,
      "time": 28.542,
      "duration": 0.208,
      "velocity": 0.26,
      "hand": "right"
    },
    {
      "midi": 74,
      "time": 28.75,
      "duration": 0.208,
      "velocity": 0.26,
      "hand": "right"
    },
    {
      "midi": 72,
      "time": 28.958,
      "duration": 0.208,
      "velocity": 0.26,
      "hand": "right"
    },
    {
      "midi": 45,
      "time": 29.167,
      "duration": 0.208,
      "velocity": 0.26,
      "hand": "left"
    },
    {
      "midi": 69,
      "time": 29.167,
      "duration": 0.417,
      "velocity": 0.26,
      "hand": "right"
    },
    {
      "midi": 52,
      "time": 29.375,
      "duration": 0.208,
      "velocity": 0.26,
      "hand": "left"
    },
    {
      "midi": 57,
      "time": 29.583,
      "duration": 0.208,
      "velocity": 0.26,
      "hand": "left"
    },
    {
      "midi": 60,
      "time": 29.792,
      "duration": 0.208,
      "velocity": 0.26,
      "hand": "right"
    },
    {
      "midi": 64,
      "time": 30,
      "duration": 0.208,
      "velocity": 0.26,
      "hand": "right"
    },
    {
      "midi": 69,
      "time": 30.208,
      "duration": 0.208,
      "velocity": 0.26,
      "hand": "right"
    },
    {
      "midi": 40,
      "time": 30.417,
      "duration": 0.208,
      "velocity": 0.26,
      "hand": "left"
    },
    {
      "midi": 71,
      "time": 30.417,
      "duration": 0.417,
      "velocity": 0.26,
      "hand": "right"
    },
    {
      "midi": 52,
      "time": 30.625,
      "duration": 0.208,
      "velocity": 0.26,
      "hand": "left"
    },
    {
      "midi": 56,
      "time": 30.833,
      "duration": 0.208,
      "velocity": 0.26,
      "hand": "left"
    },
    {
      "midi": 64,
      "time": 31.042,
      "duration": 0.208,
      "velocity": 0.26,
      "hand": "right"
    },
    {
      "midi": 68,
      "time": 31.25,
      "duration": 0.208,
      "velocity": 0.26,
      "hand": "right"
    },
    {
      "midi": 71,
      "time": 31.458,
      "duration": 0.208,
      "velocity": 0.26,
      "hand": "right"
    },
    {
      "midi": 45,
      "time": 31.667,
      "duration": 0.208,
      "velocity": 0.26,
      "hand": "left"
    },
    {
      "midi": 72,
      "time": 31.667,
      "duration": 0.417,
      "velocity": 0.26,
      "hand": "right"
    },
    {
      "midi": 52,
      "time": 31.875,
      "duration": 0.208,
      "velocity": 0.26,
      "hand": "left"
    },
    {
      "midi": 57,
      "time": 32.083,
      "duration": 0.208,
      "velocity": 0.26,
      "hand": "left"
    },
    {
      "midi": 64,
      "time": 32.292,
      "duration": 0.208,
      "velocity": 0.26,
      "hand": "right"
    },
    {
      "midi": 76,
      "time": 32.5,
      "duration": 0.208,
      "velocity": 0.26,
      "hand": "right"
    },
    {
      "midi": 75,
      "time": 32.708,
      "duration": 0.208,
      "velocity": 0.26,
      "hand": "right"
    },
    {
      "midi": 76,
      "time": 32.917,
      "duration": 0.208,
      "velocity": 0.26,
      "hand": "right"
    },
    {
      "midi": 75,
      "time": 33.125,
      "duration": 0.208,
      "velocity": 0.26,
      "hand": "right"
    },
    {
      "midi": 76,
      "time": 33.333,
      "duration": 0.208,
      "velocity": 0.26,
      "hand": "right"
    },
    {
      "midi": 71,
      "time": 33.542,
      "duration": 0.208,
      "velocity": 0.26,
      "hand": "right"
    },
    {
      "midi": 74,
      "time": 33.75,
      "duration": 0.208,
      "velocity": 0.26,
      "hand": "right"
    },
    {
      "midi": 72,
      "time": 33.958,
      "duration": 0.208,
      "velocity": 0.26,
      "hand": "right"
    },
    {
      "midi": 45,
      "time": 34.167,
      "duration": 0.208,
      "velocity": 0.26,
      "hand": "left"
    },
    {
      "midi": 69,
      "time": 34.167,
      "duration": 0.417,
      "velocity": 0.26,
      "hand": "right"
    },
    {
      "midi": 52,
      "time": 34.375,
      "duration": 0.208,
      "velocity": 0.26,
      "hand": "left"
    },
    {
      "midi": 57,
      "time": 34.583,
      "duration": 0.208,
      "velocity": 0.26,
      "hand": "left"
    },
    {
      "midi": 60,
      "time": 34.792,
      "duration": 0.208,
      "velocity": 0.26,
      "hand": "right"
    },
    {
      "midi": 64,
      "time": 35,
      "duration": 0.208,
      "velocity": 0.26,
      "hand": "right"
    },
    {
      "midi": 69,
      "time": 35.208,
      "duration": 0.208,
      "velocity": 0.26,
      "hand": "right"
    },
    {
      "midi": 40,
      "time": 35.417,
      "duration": 0.208,
      "velocity": 0.26,
      "hand": "left"
    },
    {
      "midi": 71,
      "time": 35.417,
      "duration": 0.417,
      "velocity": 0.26,
      "hand": "right"
    },
    {
      "midi": 52,
      "time": 35.625,
      "duration": 0.208,
      "velocity": 0.26,
      "hand": "left"
    },
    {
      "midi": 56,
      "time": 35.833,
      "duration": 0.208,
      "velocity": 0.26,
      "hand": "left"
    },
    {
      "midi": 62,
      "time": 36.042,
      "duration": 0.208,
      "velocity": 0.26,
      "hand": "right"
    },
    {
      "midi": 72,
      "time": 36.25,
      "duration": 0.208,
      "velocity": 0.26,
      "hand": "right"
    },
    {
      "midi": 71,
      "time": 36.458,
      "duration": 0.208,
      "velocity": 0.26,
      "hand": "right"
    },
    {
      "midi": 45,
      "time": 36.667,
      "duration": 0.208,
      "velocity": 0.26,
      "hand": "left"
    },
    {
      "midi": 69,
      "time": 36.667,
      "duration": 0.417,
      "velocity": 0.26,
      "hand": "right"
    },
    {
      "midi": 52,
      "time": 36.875,
      "duration": 0.208,
      "velocity": 0.26,
      "hand": "left"
    },
    {
      "midi": 57,
      "time": 37.083,
      "duration": 0.208,
      "velocity": 0.26,
      "hand": "left"
    },
    {
      "midi": 71,
      "time": 37.292,
      "duration": 0.208,
      "velocity": 0.26,
      "hand": "right"
    },
    {
      "midi": 72,
      "time": 37.5,
      "duration": 0.208,
      "velocity": 0.26,
      "hand": "right"
    },
    {
      "midi": 74,
      "time": 37.708,
      "duration": 0.208,
      "velocity": 0.26,
      "hand": "right"
    },
    {
      "midi": 48,
      "time": 37.917,
      "duration": 0.208,
      "velocity": 0.26,
      "hand": "left"
    },
    {
      "midi": 76,
      "time": 37.917,
      "duration": 0.625,
      "velocity": 0.26,
      "hand": "right"
    },
    {
      "midi": 55,
      "time": 38.125,
      "duration": 0.208,
      "velocity": 0.26,
      "hand": "left"
    },
    {
      "midi": 60,
      "time": 38.333,
      "duration": 0.208,
      "velocity": 0.26,
      "hand": "right"
    },
    {
      "midi": 67,
      "time": 38.542,
      "duration": 0.208,
      "velocity": 0.26,
      "hand": "right"
    },
    {
      "midi": 77,
      "time": 38.75,
      "duration": 0.208,
      "velocity": 0.26,
      "hand": "right"
    },
    {
      "midi": 76,
      "time": 38.958,
      "duration": 0.208,
      "velocity": 0.26,
      "hand": "right"
    },
    {
      "midi": 43,
      "time": 39.167,
      "duration": 0.208,
      "velocity": 0.26,
      "hand": "left"
    },
    {
      "midi": 74,
      "time": 39.167,
      "duration": 0.625,
      "velocity": 0.26,
      "hand": "right"
    },
    {
      "midi": 55,
      "time": 39.375,
      "duration": 0.208,
      "velocity": 0.26,
      "hand": "left"
    },
    {
      "midi": 59,
      "time": 39.583,
      "duration": 0.208,
      "velocity": 0.26,
      "hand": "left"
    },
    {
      "midi": 65,
      "time": 39.792,
      "duration": 0.208,
      "velocity": 0.26,
      "hand": "right"
    },
    {
      "midi": 76,
      "time": 40,
      "duration": 0.208,
      "velocity": 0.26,
      "hand": "right"
    },
    {
      "midi": 74,
      "time": 40.208,
      "duration": 0.208,
      "velocity": 0.26,
      "hand": "right"
    },
    {
      "midi": 45,
      "time": 40.417,
      "duration": 0.208,
      "velocity": 0.26,
      "hand": "left"
    },
    {
      "midi": 72,
      "time": 40.417,
      "duration": 0.625,
      "velocity": 0.26,
      "hand": "right"
    },
    {
      "midi": 52,
      "time": 40.625,
      "duration": 0.208,
      "velocity": 0.26,
      "hand": "left"
    },
    {
      "midi": 57,
      "time": 40.833,
      "duration": 0.208,
      "velocity": 0.26,
      "hand": "left"
    },
    {
      "midi": 64,
      "time": 41.042,
      "duration": 0.208,
      "velocity": 0.26,
      "hand": "right"
    },
    {
      "midi": 74,
      "time": 41.25,
      "duration": 0.208,
      "velocity": 0.26,
      "hand": "right"
    },
    {
      "midi": 72,
      "time": 41.458,
      "duration": 0.208,
      "velocity": 0.26,
      "hand": "right"
    },
    {
      "midi": 40,
      "time": 41.667,
      "duration": 0.208,
      "velocity": 0.26,
      "hand": "left"
    },
    {
      "midi": 71,
      "time": 41.667,
      "duration": 0.417,
      "velocity": 0.26,
      "hand": "right"
    },
    {
      "midi": 52,
      "time": 41.875,
      "duration": 0.208,
      "velocity": 0.26,
      "hand": "left"
    },
    {
      "midi": 64,
      "time": 42.083,
      "duration": 0.208,
      "velocity": 0.26,
      "hand": "right"
    },
    {
      "midi": 64,
      "time": 42.292,
      "duration": 0.208,
      "velocity": 0.26,
      "hand": "right"
    },
    {
      "midi": 76,
      "time": 42.5,
      "duration": 0.208,
      "velocity": 0.26,
      "hand": "right"
    },
    {
      "midi": 64,
      "time": 42.708,
      "duration": 0.208,
      "velocity": 0.26,
      "hand": "right"
    },
    {
      "midi": 76,
      "time": 42.917,
      "duration": 0.208,
      "velocity": 0.26,
      "hand": "right"
    },
    {
      "midi": 76,
      "time": 43.125,
      "duration": 0.208,
      "velocity": 0.26,
      "hand": "right"
    },
    {
      "midi": 88,
      "time": 43.333,
      "duration": 0.208,
      "velocity": 0.26,
      "hand": "right"
    },
    {
      "midi": 75,
      "time": 43.542,
      "duration": 0.208,
      "velocity": 0.26,
      "hand": "right"
    },
    {
      "midi": 76,
      "time": 43.75,
      "duration": 0.208,
      "velocity": 0.26,
      "hand": "right"
    },
    {
      "midi": 75,
      "time": 43.958,
      "duration": 0.208,
      "velocity": 0.26,
      "hand": "right"
    },
    {
      "midi": 76,
      "time": 44.167,
      "duration": 0.417,
      "velocity": 0.26,
      "hand": "right"
    },
    {
      "midi": 75,
      "time": 44.375,
      "duration": 0.208,
      "velocity": 0.26,
      "hand": "right"
    },
    {
      "midi": 76,
      "time": 44.583,
      "duration": 0.208,
      "velocity": 0.26,
      "hand": "right"
    },
    {
      "midi": 75,
      "time": 44.792,
      "duration": 0.208,
      "velocity": 0.26,
      "hand": "right"
    },
    {
      "midi": 76,
      "time": 45,
      "duration": 0.208,
      "velocity": 0.26,
      "hand": "right"
    },
    {
      "midi": 75,
      "time": 45.208,
      "duration": 0.208,
      "velocity": 0.26,
      "hand": "right"
    },
    {
      "midi": 76,
      "time": 45.417,
      "duration": 0.208,
      "velocity": 0.26,
      "hand": "right"
    },
    {
      "midi": 75,
      "time": 45.625,
      "duration": 0.208,
      "velocity": 0.26,
      "hand": "right"
    },
    {
      "midi": 76,
      "time": 45.833,
      "duration": 0.208,
      "velocity": 0.26,
      "hand": "right"
    },
    {
      "midi": 71,
      "time": 46.042,
      "duration": 0.208,
      "velocity": 0.26,
      "hand": "right"
    },
    {
      "midi": 74,
      "time": 46.25,
      "duration": 0.208,
      "velocity": 0.26,
      "hand": "right"
    },
    {
      "midi": 72,
      "time": 46.458,
      "duration": 0.208,
      "velocity": 0.26,
      "hand": "right"
    },
    {
      "midi": 45,
      "time": 46.667,
      "duration": 0.208,
      "velocity": 0.26,
      "hand": "left"
    },
    {
      "midi": 69,
      "time": 46.667,
      "duration": 0.417,
      "velocity": 0.26,
      "hand": "right"
    },
    {
      "midi": 52,
      "time": 46.875,
      "duration": 0.208,
      "velocity": 0.26,
      "hand": "left"
    },
    {
      "midi": 57,
      "time": 47.083,
      "duration": 0.208,
      "velocity": 0.26,
      "hand": "left"
    },
    {
      "midi": 60,
      "time": 47.292,
      "duration": 0.208,
      "velocity": 0.26,
      "hand": "right"
    },
    {
      "midi": 64,
      "time": 47.5,
      "duration": 0.208,
      "velocity": 0.26,
      "hand": "right"
    },
    {
      "midi": 69,
      "time": 47.708,
      "duration": 0.208,
      "velocity": 0.26,
      "hand": "right"
    },
    {
      "midi": 40,
      "time": 47.917,
      "duration": 0.208,
      "velocity": 0.26,
      "hand": "left"
    },
    {
      "midi": 71,
      "time": 47.917,
      "duration": 0.417,
      "velocity": 0.26,
      "hand": "right"
    },
    {
      "midi": 52,
      "time": 48.125,
      "duration": 0.208,
      "velocity": 0.26,
      "hand": "left"
    },
    {
      "midi": 56,
      "time": 48.333,
      "duration": 0.208,
      "velocity": 0.26,
      "hand": "left"
    },
    {
      "midi": 64,
      "time": 48.542,
      "duration": 0.208,
      "velocity": 0.26,
      "hand": "right"
    },
    {
      "midi": 68,
      "time": 48.75,
      "duration": 0.208,
      "velocity": 0.26,
      "hand": "right"
    },
    {
      "midi": 71,
      "time": 48.958,
      "duration": 0.208,
      "velocity": 0.26,
      "hand": "right"
    },
    {
      "midi": 45,
      "time": 49.167,
      "duration": 0.208,
      "velocity": 0.26,
      "hand": "left"
    },
    {
      "midi": 72,
      "time": 49.167,
      "duration": 0.417,
      "velocity": 0.26,
      "hand": "right"
    },
    {
      "midi": 52,
      "time": 49.375,
      "duration": 0.208,
      "velocity": 0.26,
      "hand": "left"
    },
    {
      "midi": 57,
      "time": 49.583,
      "duration": 0.208,
      "velocity": 0.26,
      "hand": "left"
    },
    {
      "midi": 64,
      "time": 49.792,
      "duration": 0.208,
      "velocity": 0.26,
      "hand": "right"
    },
    {
      "midi": 76,
      "time": 50,
      "duration": 0.208,
      "velocity": 0.26,
      "hand": "right"
    },
    {
      "midi": 75,
      "time": 50.208,
      "duration": 0.208,
      "velocity": 0.26,
      "hand": "right"
    },
    {
      "midi": 76,
      "time": 50.417,
      "duration": 0.208,
      "velocity": 0.26,
      "hand": "right"
    },
    {
      "midi": 75,
      "time": 50.625,
      "duration": 0.208,
      "velocity": 0.26,
      "hand": "right"
    },
    {
      "midi": 76,
      "time": 50.833,
      "duration": 0.208,
      "velocity": 0.26,
      "hand": "right"
    },
    {
      "midi": 71,
      "time": 51.042,
      "duration": 0.208,
      "velocity": 0.26,
      "hand": "right"
    },
    {
      "midi": 74,
      "time": 51.25,
      "duration": 0.208,
      "velocity": 0.26,
      "hand": "right"
    },
    {
      "midi": 72,
      "time": 51.458,
      "duration": 0.208,
      "velocity": 0.26,
      "hand": "right"
    },
    {
      "midi": 45,
      "time": 51.667,
      "duration": 0.208,
      "velocity": 0.26,
      "hand": "left"
    },
    {
      "midi": 69,
      "time": 51.667,
      "duration": 0.417,
      "velocity": 0.26,
      "hand": "right"
    },
    {
      "midi": 52,
      "time": 51.875,
      "duration": 0.208,
      "velocity": 0.26,
      "hand": "left"
    },
    {
      "midi": 57,
      "time": 52.083,
      "duration": 0.208,
      "velocity": 0.26,
      "hand": "left"
    },
    {
      "midi": 60,
      "time": 52.292,
      "duration": 0.208,
      "velocity": 0.26,
      "hand": "right"
    },
    {
      "midi": 64,
      "time": 52.5,
      "duration": 0.208,
      "velocity": 0.26,
      "hand": "right"
    },
    {
      "midi": 69,
      "time": 52.708,
      "duration": 0.208,
      "velocity": 0.26,
      "hand": "right"
    },
    {
      "midi": 40,
      "time": 52.917,
      "duration": 0.208,
      "velocity": 0.26,
      "hand": "left"
    },
    {
      "midi": 71,
      "time": 52.917,
      "duration": 0.417,
      "velocity": 0.26,
      "hand": "right"
    },
    {
      "midi": 52,
      "time": 53.125,
      "duration": 0.208,
      "velocity": 0.26,
      "hand": "left"
    },
    {
      "midi": 56,
      "time": 53.333,
      "duration": 0.208,
      "velocity": 0.26,
      "hand": "left"
    },
    {
      "midi": 62,
      "time": 53.542,
      "duration": 0.208,
      "velocity": 0.26,
      "hand": "right"
    },
    {
      "midi": 72,
      "time": 53.75,
      "duration": 0.208,
      "velocity": 0.26,
      "hand": "right"
    },
    {
      "midi": 71,
      "time": 53.958,
      "duration": 0.208,
      "velocity": 0.26,
      "hand": "right"
    },
    {
      "midi": 45,
      "time": 54.167,
      "duration": 0.208,
      "velocity": 0.26,
      "hand": "left"
    },
    {
      "midi": 69,
      "time": 54.167,
      "duration": 0.417,
      "velocity": 0.26,
      "hand": "right"
    },
    {
      "midi": 52,
      "time": 54.375,
      "duration": 0.208,
      "velocity": 0.26,
      "hand": "left"
    },
    {
      "midi": 57,
      "time": 54.583,
      "duration": 0.208,
      "velocity": 0.26,
      "hand": "left"
    },
    {
      "midi": 58,
      "time": 54.792,
      "duration": 0.208,
      "velocity": 0.26,
      "hand": "left"
    },
    {
      "midi": 60,
      "time": 54.792,
      "duration": 0.208,
      "velocity": 0.26,
      "hand": "right"
    },
    {
      "midi": 64,
      "time": 54.792,
      "duration": 0.208,
      "velocity": 0.26,
      "hand": "right"
    },
    {
      "midi": 72,
      "time": 54.792,
      "duration": 0.208,
      "velocity": 0.26,
      "hand": "right"
    },
    {
      "midi": 57,
      "time": 55,
      "duration": 0.208,
      "velocity": 0.26,
      "hand": "left"
    },
    {
      "midi": 60,
      "time": 55,
      "duration": 0.208,
      "velocity": 0.26,
      "hand": "right"
    },
    {
      "midi": 65,
      "time": 55,
      "duration": 0.208,
      "velocity": 0.26,
      "hand": "right"
    },
    {
      "midi": 72,
      "time": 55,
      "duration": 0.208,
      "velocity": 0.26,
      "hand": "right"
    },
    {
      "midi": 55,
      "time": 55.208,
      "duration": 0.208,
      "velocity": 0.26,
      "hand": "left"
    },
    {
      "midi": 58,
      "time": 55.208,
      "duration": 0.208,
      "velocity": 0.26,
      "hand": "left"
    },
    {
      "midi": 60,
      "time": 55.208,
      "duration": 0.208,
      "velocity": 0.26,
      "hand": "right"
    },
    {
      "midi": 64,
      "time": 55.208,
      "duration": 0.208,
      "velocity": 0.26,
      "hand": "right"
    },
    {
      "midi": 67,
      "time": 55.208,
      "duration": 0.208,
      "velocity": 0.26,
      "hand": "right"
    },
    {
      "midi": 72,
      "time": 55.208,
      "duration": 0.208,
      "velocity": 0.26,
      "hand": "right"
    },
    {
      "midi": 53,
      "time": 55.417,
      "duration": 0.208,
      "velocity": 0.26,
      "hand": "left"
    },
    {
      "midi": 65,
      "time": 55.417,
      "duration": 0.104,
      "velocity": 0.26,
      "hand": "right"
    },
    {
      "midi": 69,
      "time": 55.417,
      "duration": 0.104,
      "velocity": 0.26,
      "hand": "right"
    },
    {
      "midi": 57,
      "time": 55.625,
      "duration": 0.208,
      "velocity": 0.26,
      "hand": "left"
    },
    {
      "midi": 72,
      "time": 55.625,
      "duration": 0.625,
      "velocity": 0.26,
      "hand": "right"
    },
    {
      "midi": 60,
      "time": 55.833,
      "duration": 0.208,
      "velocity": 0.26,
      "hand": "right"
    },
    {
      "midi": 57,
      "time": 56.042,
      "duration": 0.208,
      "velocity": 0.26,
      "hand": "left"
    },
    {
      "midi": 60,
      "time": 56.25,
      "duration": 0.208,
      "velocity": 0.26,
      "hand": "right"
    },
    {
      "midi": 77,
      "time": 56.25,
      "duration": 0.208,
      "velocity": 0.26,
      "hand": "right"
    },
    {
      "midi": 57,
      "time": 56.458,
      "duration": 0.208,
      "velocity": 0.26,
      "hand": "left"
    },
    {
      "midi": 76,
      "time": 56.458,
      "duration": 0.104,
      "velocity": 0.26,
      "hand": "right"
    },
    {
      "midi": 53,
      "time": 56.667,
      "duration": 0.208,
      "velocity": 0.26,
      "hand": "left"
    },
    {
      "midi": 76,
      "time": 56.667,
      "duration": 0.417,
      "velocity": 0.26,
      "hand": "right"
    },
    {
      "midi": 58,
      "time": 56.875,
      "duration": 0.208,
      "velocity": 0.26,
      "hand": "left"
    },
    {
      "midi": 62,
      "time": 57.083,
      "duration": 0.208,
      "velocity": 0.26,
      "hand": "right"
    },
    {
      "midi": 74,
      "time": 57.083,
      "duration": 0.417,
      "velocity": 0.26,
      "hand": "right"
    },
    {
      "midi": 58,
      "time": 57.292,
      "duration": 0.208,
      "velocity": 0.26,
      "hand": "left"
    },
    {
      "midi": 62,
      "time": 57.5,
      "duration": 0.208,
      "velocity": 0.26,
      "hand": "right"
    },
    {
      "midi": 82,
      "time": 57.5,
      "duration": 0.208,
      "velocity": 0.26,
      "hand": "right"
    },
    {
      "midi": 58,
      "time": 57.708,
      "duration": 0.208,
      "velocity": 0.26,
      "hand": "left"
    },
    {
      "midi": 81,
      "time": 57.708,
      "duration": 0.104,
      "velocity": 0.26,
      "hand": "right"
    },
    {
      "midi": 53,
      "time": 57.917,
      "duration": 0.208,
      "velocity": 0.26,
      "hand": "left"
    },
    {
      "midi": 81,
      "time": 57.917,
      "duration": 0.208,
      "velocity": 0.26,
      "hand": "right"
    },
    {
      "midi": 64,
      "time": 58.125,
      "duration": 0.208,
      "velocity": 0.26,
      "hand": "right"
    },
    {
      "midi": 79,
      "time": 58.125,
      "duration": 0.208,
      "velocity": 0.26,
      "hand": "right"
    },
    {
      "midi": 53,
      "time": 58.333,
      "duration": 0.208,
      "velocity": 0.26,
      "hand": "left"
    },
    {
      "midi": 55,
      "time": 58.333,
      "duration": 0.208,
      "velocity": 0.26,
      "hand": "left"
    },
    {
      "midi": 58,
      "time": 58.333,
      "duration": 0.208,
      "velocity": 0.26,
      "hand": "left"
    },
    {
      "midi": 77,
      "time": 58.333,
      "duration": 0.208,
      "velocity": 0.26,
      "hand": "right"
    },
    {
      "midi": 64,
      "time": 58.542,
      "duration": 0.208,
      "velocity": 0.26,
      "hand": "right"
    },
    {
      "midi": 76,
      "time": 58.542,
      "duration": 0.208,
      "velocity": 0.26,
      "hand": "right"
    },
    {
      "midi": 53,
      "time": 58.75,
      "duration": 0.208,
      "velocity": 0.26,
      "hand": "left"
    },
    {
      "midi": 55,
      "time": 58.75,
      "duration": 0.208,
      "velocity": 0.26,
      "hand": "left"
    },
    {
      "midi": 58,
      "time": 58.75,
      "duration": 0.208,
      "velocity": 0.26,
      "hand": "left"
    },
    {
      "midi": 74,
      "time": 58.75,
      "duration": 0.208,
      "velocity": 0.26,
      "hand": "right"
    },
    {
      "midi": 64,
      "time": 58.958,
      "duration": 0.208,
      "velocity": 0.26,
      "hand": "right"
    },
    {
      "midi": 72,
      "time": 58.958,
      "duration": 0.208,
      "velocity": 0.26,
      "hand": "right"
    },
    {
      "midi": 53,
      "time": 59.167,
      "duration": 0.208,
      "velocity": 0.26,
      "hand": "left"
    },
    {
      "midi": 70,
      "time": 59.167,
      "duration": 0.417,
      "velocity": 0.26,
      "hand": "right"
    },
    {
      "midi": 57,
      "time": 59.375,
      "duration": 0.208,
      "velocity": 0.26,
      "hand": "left"
    },
    {
      "midi": 60,
      "time": 59.583,
      "duration": 0.208,
      "velocity": 0.26,
      "hand": "right"
    },
    {
      "midi": 69,
      "time": 59.583,
      "duration": 0.417,
      "velocity": 0.26,
      "hand": "right"
    },
    {
      "midi": 57,
      "time": 59.792,
      "duration": 0.208,
      "velocity": 0.26,
      "hand": "left"
    },
    {
      "midi": 60,
      "time": 60,
      "duration": 0.208,
      "velocity": 0.26,
      "hand": "right"
    },
    {
      "midi": 67,
      "time": 60,
      "duration": 0.104,
      "velocity": 0.26,
      "hand": "right"
    },
    {
      "midi": 69,
      "time": 60,
      "duration": 0.104,
      "velocity": 0.26,
      "hand": "right"
    },
    {
      "midi": 70,
      "time": 60,
      "duration": 0.104,
      "velocity": 0.26,
      "hand": "right"
    },
    {
      "midi": 57,
      "time": 60.208,
      "duration": 0.208,
      "velocity": 0.26,
      "hand": "left"
    },
    {
      "midi": 69,
      "time": 60.208,
      "duration": 0.104,
      "velocity": 0.26,
      "hand": "right"
    },
    {
      "midi": 70,
      "time": 60.208,
      "duration": 0.104,
      "velocity": 0.26,
      "hand": "right"
    },
    {
      "midi": 53,
      "time": 60.417,
      "duration": 0.208,
      "velocity": 0.26,
      "hand": "left"
    },
    {
      "midi": 72,
      "time": 60.417,
      "duration": 0.833,
      "velocity": 0.26,
      "hand": "right"
    },
    {
      "midi": 57,
      "time": 60.625,
      "duration": 0.208,
      "velocity": 0.26,
      "hand": "left"
    },
    {
      "midi": 60,
      "time": 60.833,
      "duration": 0.208,
      "velocity": 0.26,
      "hand": "right"
    },
    {
      "midi": 57,
      "time": 61.042,
      "duration": 0.208,
      "velocity": 0.26,
      "hand": "left"
    },
    {
      "midi": 60,
      "time": 61.25,
      "duration": 0.208,
      "velocity": 0.26,
      "hand": "right"
    },
    {
      "midi": 74,
      "time": 61.25,
      "duration": 0.208,
      "velocity": 0.26,
      "hand": "right"
    },
    {
      "midi": 57,
      "time": 61.458,
      "duration": 0.208,
      "velocity": 0.26,
      "hand": "left"
    },
    {
      "midi": 75,
      "time": 61.458,
      "duration": 0.208,
      "velocity": 0.26,
      "hand": "right"
    },
    {
      "midi": 52,
      "time": 61.667,
      "duration": 0.208,
      "velocity": 0.26,
      "hand": "left"
    },
    {
      "midi": 76,
      "time": 61.667,
      "duration": 0.625,
      "velocity": 0.26,
      "hand": "right"
    },
    {
      "midi": 57,
      "time": 61.875,
      "duration": 0.208,
      "velocity": 0.26,
      "hand": "left"
    },
    {
      "midi": 60,
      "time": 62.083,
      "duration": 0.208,
      "velocity": 0.26,
      "hand": "right"
    },
    {
      "midi": 57,
      "time": 62.292,
      "duration": 0.208,
      "velocity": 0.26,
      "hand": "left"
    },
    {
      "midi": 76,
      "time": 62.292,
      "duration": 0.208,
      "velocity": 0.26,
      "hand": "right"
    },
    {
      "midi": 50,
      "time": 62.5,
      "duration": 0.208,
      "velocity": 0.26,
      "hand": "left"
    },
    {
      "midi": 62,
      "time": 62.5,
      "duration": 0.208,
      "velocity": 0.26,
      "hand": "right"
    },
    {
      "midi": 77,
      "time": 62.5,
      "duration": 0.208,
      "velocity": 0.26,
      "hand": "right"
    },
    {
      "midi": 53,
      "time": 62.708,
      "duration": 0.208,
      "velocity": 0.26,
      "hand": "left"
    },
    {
      "midi": 69,
      "time": 62.708,
      "duration": 0.208,
      "velocity": 0.26,
      "hand": "right"
    },
    {
      "midi": 55,
      "time": 62.917,
      "duration": 0.208,
      "velocity": 0.26,
      "hand": "left"
    },
    {
      "midi": 72,
      "time": 62.917,
      "duration": 0.833,
      "velocity": 0.26,
      "hand": "right"
    },
    {
      "midi": 64,
      "time": 63.125,
      "duration": 0.208,
      "velocity": 0.26,
      "hand": "right"
    },
    {
      "midi": 55,
      "time": 63.333,
      "duration": 0.208,
      "velocity": 0.26,
      "hand": "left"
    },
    {
      "midi": 65,
      "time": 63.542,
      "duration": 0.208,
      "velocity": 0.26,
      "hand": "right"
    },
    {
      "midi": 55,
      "time": 63.75,
      "duration": 0.208,
      "velocity": 0.26,
      "hand": "left"
    },
    {
      "midi": 74,
      "time": 63.75,
      "duration": 0.208,
      "velocity": 0.26,
      "hand": "right"
    },
    {
      "midi": 65,
      "time": 63.958,
      "duration": 0.208,
      "velocity": 0.26,
      "hand": "right"
    },
    {
      "midi": 71,
      "time": 63.958,
      "duration": 0.104,
      "velocity": 0.26,
      "hand": "right"
    },
    {
      "midi": 60,
      "time": 64.167,
      "duration": 0.417,
      "velocity": 0.26,
      "hand": "right"
    },
    {
      "midi": 64,
      "time": 64.167,
      "duration": 0.417,
      "velocity": 0.26,
      "hand": "right"
    },
    {
      "midi": 72,
      "time": 64.167,
      "duration": 0.104,
      "velocity": 0.26,
      "hand": "right"
    },
    {
      "midi": 79,
      "time": 64.167,
      "duration": 0.104,
      "velocity": 0.26,
      "hand": "right"
    },
    {
      "midi": 67,
      "time": 64.375,
      "duration": 0.104,
      "velocity": 0.26,
      "hand": "right"
    },
    {
      "midi": 79,
      "time": 64.375,
      "duration": 0.104,
      "velocity": 0.26,
      "hand": "right"
    },
    {
      "midi": 69,
      "time": 64.583,
      "duration": 0.104,
      "velocity": 0.26,
      "hand": "right"
    },
    {
      "midi": 79,
      "time": 64.583,
      "duration": 0.104,
      "velocity": 0.26,
      "hand": "right"
    },
    {
      "midi": 65,
      "time": 64.792,
      "duration": 0.208,
      "velocity": 0.26,
      "hand": "right"
    },
    {
      "midi": 67,
      "time": 64.792,
      "duration": 0.208,
      "velocity": 0.26,
      "hand": "right"
    },
    {
      "midi": 71,
      "time": 64.792,
      "duration": 0.104,
      "velocity": 0.26,
      "hand": "right"
    },
    {
      "midi": 79,
      "time": 64.792,
      "duration": 0.104,
      "velocity": 0.26,
      "hand": "right"
    },
    {
      "midi": 64,
      "time": 65,
      "duration": 0.208,
      "velocity": 0.26,
      "hand": "right"
    },
    {
      "midi": 67,
      "time": 65,
      "duration": 0.208,
      "velocity": 0.26,
      "hand": "right"
    },
    {
      "midi": 72,
      "time": 65,
      "duration": 0.104,
      "velocity": 0.26,
      "hand": "right"
    },
    {
      "midi": 79,
      "time": 65,
      "duration": 0.104,
      "velocity": 0.26,
      "hand": "right"
    },
    {
      "midi": 62,
      "time": 65.208,
      "duration": 0.208,
      "velocity": 0.26,
      "hand": "right"
    },
    {
      "midi": 65,
      "time": 65.208,
      "duration": 0.208,
      "velocity": 0.26,
      "hand": "right"
    },
    {
      "midi": 67,
      "time": 65.208,
      "duration": 0.208,
      "velocity": 0.26,
      "hand": "right"
    },
    {
      "midi": 74,
      "time": 65.208,
      "duration": 0.104,
      "velocity": 0.26,
      "hand": "right"
    },
    {
      "midi": 79,
      "time": 65.208,
      "duration": 0.104,
      "velocity": 0.26,
      "hand": "right"
    },
    {
      "midi": 60,
      "time": 65.417,
      "duration": 0.417,
      "velocity": 0.26,
      "hand": "right"
    },
    {
      "midi": 64,
      "time": 65.417,
      "duration": 0.417,
      "velocity": 0.26,
      "hand": "right"
    },
    {
      "midi": 67,
      "time": 65.417,
      "duration": 0.417,
      "velocity": 0.26,
      "hand": "right"
    },
    {
      "midi": 76,
      "time": 65.417,
      "duration": 0.104,
      "velocity": 0.26,
      "hand": "right"
    },
    {
      "midi": 79,
      "time": 65.417,
      "duration": 0.104,
      "velocity": 0.26,
      "hand": "right"
    },
    {
      "midi": 83,
      "time": 65.625,
      "duration": 0.104,
      "velocity": 0.26,
      "hand": "right"
    },
    {
      "midi": 84,
      "time": 65.625,
      "duration": 0.104,
      "velocity": 0.26,
      "hand": "right"
    },
    {
      "midi": 53,
      "time": 65.833,
      "duration": 0.417,
      "velocity": 0.26,
      "hand": "left"
    },
    {
      "midi": 57,
      "time": 65.833,
      "duration": 0.417,
      "velocity": 0.26,
      "hand": "left"
    },
    {
      "midi": 79,
      "time": 65.833,
      "duration": 0.104,
      "velocity": 0.26,
      "hand": "right"
    },
    {
      "midi": 81,
      "time": 65.833,
      "duration": 0.104,
      "velocity": 0.26,
      "hand": "right"
    },
    {
      "midi": 76,
      "time": 66.042,
      "duration": 0.104,
      "velocity": 0.26,
      "hand": "right"
    },
    {
      "midi": 77,
      "time": 66.042,
      "duration": 0.104,
      "velocity": 0.26,
      "hand": "right"
    },
    {
      "midi": 55,
      "time": 66.25,
      "duration": 0.417,
      "velocity": 0.26,
      "hand": "left"
    },
    {
      "midi": 59,
      "time": 66.25,
      "duration": 0.417,
      "velocity": 0.26,
      "hand": "left"
    },
    {
      "midi": 74,
      "time": 66.25,
      "duration": 0.104,
      "velocity": 0.26,
      "hand": "right"
    },
    {
      "midi": 79,
      "time": 66.25,
      "duration": 0.104,
      "velocity": 0.26,
      "hand": "right"
    },
    {
      "midi": 74,
      "time": 66.458,
      "duration": 0.104,
      "velocity": 0.26,
      "hand": "right"
    },
    {
      "midi": 77,
      "time": 66.458,
      "duration": 0.104,
      "velocity": 0.26,
      "hand": "right"
    },
    {
      "midi": 60,
      "time": 66.667,
      "duration": 0.417,
      "velocity": 0.26,
      "hand": "right"
    },
    {
      "midi": 72,
      "time": 66.667,
      "duration": 0.104,
      "velocity": 0.26,
      "hand": "right"
    },
    {
      "midi": 79,
      "time": 66.667,
      "duration": 0.104,
      "velocity": 0.26,
      "hand": "right"
    },
    {
      "midi": 67,
      "time": 66.875,
      "duration": 0.104,
      "velocity": 0.26,
      "hand": "right"
    },
    {
      "midi": 79,
      "time": 66.875,
      "duration": 0.104,
      "velocity": 0.26,
      "hand": "right"
    },
    {
      "midi": 69,
      "time": 67.083,
      "duration": 0.104,
      "velocity": 0.26,
      "hand": "right"
    },
    {
      "midi": 79,
      "time": 67.083,
      "duration": 0.104,
      "velocity": 0.26,
      "hand": "right"
    },
    {
      "midi": 65,
      "time": 67.292,
      "duration": 0.208,
      "velocity": 0.26,
      "hand": "right"
    },
    {
      "midi": 67,
      "time": 67.292,
      "duration": 0.208,
      "velocity": 0.26,
      "hand": "right"
    },
    {
      "midi": 71,
      "time": 67.292,
      "duration": 0.104,
      "velocity": 0.26,
      "hand": "right"
    },
    {
      "midi": 79,
      "time": 67.292,
      "duration": 0.104,
      "velocity": 0.26,
      "hand": "right"
    },
    {
      "midi": 64,
      "time": 67.5,
      "duration": 0.208,
      "velocity": 0.26,
      "hand": "right"
    },
    {
      "midi": 67,
      "time": 67.5,
      "duration": 0.208,
      "velocity": 0.26,
      "hand": "right"
    },
    {
      "midi": 72,
      "time": 67.5,
      "duration": 0.104,
      "velocity": 0.26,
      "hand": "right"
    },
    {
      "midi": 79,
      "time": 67.5,
      "duration": 0.104,
      "velocity": 0.26,
      "hand": "right"
    },
    {
      "midi": 62,
      "time": 67.708,
      "duration": 0.208,
      "velocity": 0.26,
      "hand": "right"
    },
    {
      "midi": 65,
      "time": 67.708,
      "duration": 0.208,
      "velocity": 0.26,
      "hand": "right"
    },
    {
      "midi": 67,
      "time": 67.708,
      "duration": 0.208,
      "velocity": 0.26,
      "hand": "right"
    },
    {
      "midi": 74,
      "time": 67.708,
      "duration": 0.104,
      "velocity": 0.26,
      "hand": "right"
    },
    {
      "midi": 79,
      "time": 67.708,
      "duration": 0.104,
      "velocity": 0.26,
      "hand": "right"
    },
    {
      "midi": 60,
      "time": 67.917,
      "duration": 0.417,
      "velocity": 0.26,
      "hand": "right"
    },
    {
      "midi": 64,
      "time": 67.917,
      "duration": 0.417,
      "velocity": 0.26,
      "hand": "right"
    },
    {
      "midi": 76,
      "time": 67.917,
      "duration": 0.104,
      "velocity": 0.26,
      "hand": "right"
    },
    {
      "midi": 79,
      "time": 67.917,
      "duration": 0.104,
      "velocity": 0.26,
      "hand": "right"
    },
    {
      "midi": 83,
      "time": 68.125,
      "duration": 0.104,
      "velocity": 0.26,
      "hand": "right"
    },
    {
      "midi": 84,
      "time": 68.125,
      "duration": 0.104,
      "velocity": 0.26,
      "hand": "right"
    },
    {
      "midi": 53,
      "time": 68.333,
      "duration": 0.417,
      "velocity": 0.26,
      "hand": "left"
    },
    {
      "midi": 57,
      "time": 68.333,
      "duration": 0.417,
      "velocity": 0.26,
      "hand": "left"
    },
    {
      "midi": 79,
      "time": 68.333,
      "duration": 0.104,
      "velocity": 0.26,
      "hand": "right"
    },
    {
      "midi": 81,
      "time": 68.333,
      "duration": 0.104,
      "velocity": 0.26,
      "hand": "right"
    },
    {
      "midi": 76,
      "time": 68.542,
      "duration": 0.104,
      "velocity": 0.26,
      "hand": "right"
    },
    {
      "midi": 77,
      "time": 68.542,
      "duration": 0.104,
      "velocity": 0.26,
      "hand": "right"
    },
    {
      "midi": 55,
      "time": 68.75,
      "duration": 0.417,
      "velocity": 0.26,
      "hand": "left"
    },
    {
      "midi": 59,
      "time": 68.75,
      "duration": 0.417,
      "velocity": 0.26,
      "hand": "left"
    },
    {
      "midi": 74,
      "time": 68.75,
      "duration": 0.104,
      "velocity": 0.26,
      "hand": "right"
    },
    {
      "midi": 79,
      "time": 68.75,
      "duration": 0.104,
      "velocity": 0.26,
      "hand": "right"
    },
    {
      "midi": 74,
      "time": 68.958,
      "duration": 0.104,
      "velocity": 0.26,
      "hand": "right"
    },
    {
      "midi": 77,
      "time": 68.958,
      "duration": 0.104,
      "velocity": 0.26,
      "hand": "right"
    },
    {
      "midi": 56,
      "time": 69.167,
      "duration": 0.417,
      "velocity": 0.26,
      "hand": "left"
    },
    {
      "midi": 59,
      "time": 69.167,
      "duration": 0.417,
      "velocity": 0.26,
      "hand": "left"
    },
    {
      "midi": 76,
      "time": 69.167,
      "duration": 0.104,
      "velocity": 0.26,
      "hand": "right"
    },
    {
      "midi": 77,
      "time": 69.167,
      "duration": 0.104,
      "velocity": 0.26,
      "hand": "right"
    },
    {
      "midi": 75,
      "time": 69.375,
      "duration": 0.104,
      "velocity": 0.26,
      "hand": "right"
    },
    {
      "midi": 76,
      "time": 69.375,
      "duration": 0.104,
      "velocity": 0.26,
      "hand": "right"
    },
    {
      "midi": 71,
      "time": 69.583,
      "duration": 0.104,
      "velocity": 0.26,
      "hand": "right"
    },
    {
      "midi": 76,
      "time": 69.583,
      "duration": 0.104,
      "velocity": 0.26,
      "hand": "right"
    },
    {
      "midi": 75,
      "time": 69.792,
      "duration": 0.104,
      "velocity": 0.26,
      "hand": "right"
    },
    {
      "midi": 76,
      "time": 69.792,
      "duration": 0.104,
      "velocity": 0.26,
      "hand": "right"
    },
    {
      "midi": 71,
      "time": 70,
      "duration": 0.104,
      "velocity": 0.26,
      "hand": "right"
    },
    {
      "midi": 76,
      "time": 70,
      "duration": 0.104,
      "velocity": 0.26,
      "hand": "right"
    },
    {
      "midi": 75,
      "time": 70.208,
      "duration": 0.104,
      "velocity": 0.26,
      "hand": "right"
    },
    {
      "midi": 76,
      "time": 70.208,
      "duration": 0.104,
      "velocity": 0.26,
      "hand": "right"
    },
    {
      "midi": 76,
      "time": 70.417,
      "duration": 0.625,
      "velocity": 0.26,
      "hand": "right"
    },
    {
      "midi": 71,
      "time": 71.042,
      "duration": 0.208,
      "velocity": 0.26,
      "hand": "right"
    },
    {
      "midi": 76,
      "time": 71.25,
      "duration": 0.208,
      "velocity": 0.26,
      "hand": "right"
    },
    {
      "midi": 75,
      "time": 71.458,
      "duration": 0.208,
      "velocity": 0.26,
      "hand": "right"
    },
    {
      "midi": 76,
      "time": 71.667,
      "duration": 0.625,
      "velocity": 0.26,
      "hand": "right"
    },
    {
      "midi": 71,
      "time": 72.292,
      "duration": 0.208,
      "velocity": 0.26,
      "hand": "right"
    },
    {
      "midi": 76,
      "time": 72.5,
      "duration": 0.208,
      "velocity": 0.26,
      "hand": "right"
    },
    {
      "midi": 75,
      "time": 72.708,
      "duration": 0.208,
      "velocity": 0.26,
      "hand": "right"
    },
    {
      "midi": 76,
      "time": 72.917,
      "duration": 0.208,
      "velocity": 0.26,
      "hand": "right"
    },
    {
      "midi": 75,
      "time": 73.125,
      "duration": 0.208,
      "velocity": 0.26,
      "hand": "right"
    },
    {
      "midi": 76,
      "time": 73.333,
      "duration": 0.208,
      "velocity": 0.26,
      "hand": "right"
    },
    {
      "midi": 75,
      "time": 73.542,
      "duration": 0.208,
      "velocity": 0.26,
      "hand": "right"
    },
    {
      "midi": 76,
      "time": 73.75,
      "duration": 0.208,
      "velocity": 0.26,
      "hand": "right"
    },
    {
      "midi": 75,
      "time": 73.958,
      "duration": 0.208,
      "velocity": 0.26,
      "hand": "right"
    },
    {
      "midi": 76,
      "time": 74.167,
      "duration": 0.208,
      "velocity": 0.26,
      "hand": "right"
    },
    {
      "midi": 75,
      "time": 74.375,
      "duration": 0.208,
      "velocity": 0.26,
      "hand": "right"
    },
    {
      "midi": 76,
      "time": 74.583,
      "duration": 0.208,
      "velocity": 0.26,
      "hand": "right"
    },
    {
      "midi": 71,
      "time": 74.792,
      "duration": 0.208,
      "velocity": 0.26,
      "hand": "right"
    },
    {
      "midi": 74,
      "time": 75,
      "duration": 0.208,
      "velocity": 0.26,
      "hand": "right"
    },
    {
      "midi": 72,
      "time": 75.208,
      "duration": 0.208,
      "velocity": 0.26,
      "hand": "right"
    },
    {
      "midi": 45,
      "time": 75.417,
      "duration": 0.208,
      "velocity": 0.26,
      "hand": "left"
    },
    {
      "midi": 69,
      "time": 75.417,
      "duration": 0.417,
      "velocity": 0.26,
      "hand": "right"
    },
    {
      "midi": 52,
      "time": 75.625,
      "duration": 0.208,
      "velocity": 0.26,
      "hand": "left"
    },
    {
      "midi": 57,
      "time": 75.833,
      "duration": 0.208,
      "velocity": 0.26,
      "hand": "left"
    },
    {
      "midi": 60,
      "time": 76.042,
      "duration": 0.208,
      "velocity": 0.26,
      "hand": "right"
    },
    {
      "midi": 64,
      "time": 76.25,
      "duration": 0.208,
      "velocity": 0.26,
      "hand": "right"
    },
    {
      "midi": 69,
      "time": 76.458,
      "duration": 0.208,
      "velocity": 0.26,
      "hand": "right"
    },
    {
      "midi": 40,
      "time": 76.667,
      "duration": 0.208,
      "velocity": 0.26,
      "hand": "left"
    },
    {
      "midi": 71,
      "time": 76.667,
      "duration": 0.417,
      "velocity": 0.26,
      "hand": "right"
    },
    {
      "midi": 52,
      "time": 76.875,
      "duration": 0.208,
      "velocity": 0.26,
      "hand": "left"
    },
    {
      "midi": 56,
      "time": 77.083,
      "duration": 0.208,
      "velocity": 0.26,
      "hand": "left"
    },
    {
      "midi": 64,
      "time": 77.292,
      "duration": 0.208,
      "velocity": 0.26,
      "hand": "right"
    },
    {
      "midi": 68,
      "time": 77.5,
      "duration": 0.208,
      "velocity": 0.26,
      "hand": "right"
    },
    {
      "midi": 71,
      "time": 77.708,
      "duration": 0.208,
      "velocity": 0.26,
      "hand": "right"
    },
    {
      "midi": 45,
      "time": 77.917,
      "duration": 0.208,
      "velocity": 0.26,
      "hand": "left"
    },
    {
      "midi": 72,
      "time": 77.917,
      "duration": 0.417,
      "velocity": 0.26,
      "hand": "right"
    },
    {
      "midi": 52,
      "time": 78.125,
      "duration": 0.208,
      "velocity": 0.26,
      "hand": "left"
    },
    {
      "midi": 57,
      "time": 78.333,
      "duration": 0.208,
      "velocity": 0.26,
      "hand": "left"
    },
    {
      "midi": 64,
      "time": 78.542,
      "duration": 0.208,
      "velocity": 0.26,
      "hand": "right"
    },
    {
      "midi": 76,
      "time": 78.75,
      "duration": 0.208,
      "velocity": 0.26,
      "hand": "right"
    },
    {
      "midi": 75,
      "time": 78.958,
      "duration": 0.208,
      "velocity": 0.26,
      "hand": "right"
    },
    {
      "midi": 76,
      "time": 79.167,
      "duration": 0.208,
      "velocity": 0.26,
      "hand": "right"
    },
    {
      "midi": 75,
      "time": 79.375,
      "duration": 0.208,
      "velocity": 0.26,
      "hand": "right"
    },
    {
      "midi": 76,
      "time": 79.583,
      "duration": 0.208,
      "velocity": 0.26,
      "hand": "right"
    },
    {
      "midi": 71,
      "time": 79.792,
      "duration": 0.208,
      "velocity": 0.26,
      "hand": "right"
    },
    {
      "midi": 74,
      "time": 80,
      "duration": 0.208,
      "velocity": 0.26,
      "hand": "right"
    },
    {
      "midi": 72,
      "time": 80.208,
      "duration": 0.208,
      "velocity": 0.26,
      "hand": "right"
    },
    {
      "midi": 45,
      "time": 80.417,
      "duration": 0.208,
      "velocity": 0.26,
      "hand": "left"
    },
    {
      "midi": 69,
      "time": 80.417,
      "duration": 0.417,
      "velocity": 0.26,
      "hand": "right"
    },
    {
      "midi": 52,
      "time": 80.625,
      "duration": 0.208,
      "velocity": 0.26,
      "hand": "left"
    },
    {
      "midi": 57,
      "time": 80.833,
      "duration": 0.208,
      "velocity": 0.26,
      "hand": "left"
    },
    {
      "midi": 60,
      "time": 81.042,
      "duration": 0.208,
      "velocity": 0.26,
      "hand": "right"
    },
    {
      "midi": 64,
      "time": 81.25,
      "duration": 0.208,
      "velocity": 0.26,
      "hand": "right"
    },
    {
      "midi": 69,
      "time": 81.458,
      "duration": 0.208,
      "velocity": 0.26,
      "hand": "right"
    },
    {
      "midi": 40,
      "time": 81.667,
      "duration": 0.208,
      "velocity": 0.26,
      "hand": "left"
    },
    {
      "midi": 71,
      "time": 81.667,
      "duration": 0.417,
      "velocity": 0.26,
      "hand": "right"
    },
    {
      "midi": 52,
      "time": 81.875,
      "duration": 0.208,
      "velocity": 0.26,
      "hand": "left"
    },
    {
      "midi": 56,
      "time": 82.083,
      "duration": 0.208,
      "velocity": 0.26,
      "hand": "left"
    },
    {
      "midi": 62,
      "time": 82.292,
      "duration": 0.208,
      "velocity": 0.26,
      "hand": "right"
    },
    {
      "midi": 72,
      "time": 82.5,
      "duration": 0.208,
      "velocity": 0.26,
      "hand": "right"
    },
    {
      "midi": 71,
      "time": 82.708,
      "duration": 0.208,
      "velocity": 0.26,
      "hand": "right"
    },
    {
      "midi": 45,
      "time": 82.917,
      "duration": 0.208,
      "velocity": 0.26,
      "hand": "left"
    },
    {
      "midi": 69,
      "time": 82.917,
      "duration": 0.417,
      "velocity": 0.26,
      "hand": "right"
    },
    {
      "midi": 52,
      "time": 83.125,
      "duration": 0.208,
      "velocity": 0.26,
      "hand": "left"
    },
    {
      "midi": 57,
      "time": 83.333,
      "duration": 0.208,
      "velocity": 0.26,
      "hand": "left"
    },
    {
      "midi": 71,
      "time": 83.542,
      "duration": 0.208,
      "velocity": 0.26,
      "hand": "right"
    },
    {
      "midi": 72,
      "time": 83.75,
      "duration": 0.208,
      "velocity": 0.26,
      "hand": "right"
    },
    {
      "midi": 74,
      "time": 83.958,
      "duration": 0.208,
      "velocity": 0.26,
      "hand": "right"
    },
    {
      "midi": 48,
      "time": 84.167,
      "duration": 0.208,
      "velocity": 0.26,
      "hand": "left"
    },
    {
      "midi": 76,
      "time": 84.167,
      "duration": 0.625,
      "velocity": 0.26,
      "hand": "right"
    },
    {
      "midi": 55,
      "time": 84.375,
      "duration": 0.208,
      "velocity": 0.26,
      "hand": "left"
    },
    {
      "midi": 60,
      "time": 84.583,
      "duration": 0.208,
      "velocity": 0.26,
      "hand": "right"
    },
    {
      "midi": 67,
      "time": 84.792,
      "duration": 0.208,
      "velocity": 0.26,
      "hand": "right"
    },
    {
      "midi": 77,
      "time": 85,
      "duration": 0.208,
      "velocity": 0.26,
      "hand": "right"
    },
    {
      "midi": 76,
      "time": 85.208,
      "duration": 0.208,
      "velocity": 0.26,
      "hand": "right"
    },
    {
      "midi": 43,
      "time": 85.417,
      "duration": 0.208,
      "velocity": 0.26,
      "hand": "left"
    },
    {
      "midi": 74,
      "time": 85.417,
      "duration": 0.625,
      "velocity": 0.26,
      "hand": "right"
    },
    {
      "midi": 55,
      "time": 85.625,
      "duration": 0.208,
      "velocity": 0.26,
      "hand": "left"
    },
    {
      "midi": 59,
      "time": 85.833,
      "duration": 0.208,
      "velocity": 0.26,
      "hand": "left"
    },
    {
      "midi": 65,
      "time": 86.042,
      "duration": 0.208,
      "velocity": 0.26,
      "hand": "right"
    },
    {
      "midi": 76,
      "time": 86.25,
      "duration": 0.208,
      "velocity": 0.26,
      "hand": "right"
    },
    {
      "midi": 74,
      "time": 86.458,
      "duration": 0.208,
      "velocity": 0.26,
      "hand": "right"
    },
    {
      "midi": 45,
      "time": 86.667,
      "duration": 0.208,
      "velocity": 0.26,
      "hand": "left"
    },
    {
      "midi": 72,
      "time": 86.667,
      "duration": 0.625,
      "velocity": 0.26,
      "hand": "right"
    },
    {
      "midi": 52,
      "time": 86.875,
      "duration": 0.208,
      "velocity": 0.26,
      "hand": "left"
    },
    {
      "midi": 57,
      "time": 87.083,
      "duration": 0.208,
      "velocity": 0.26,
      "hand": "left"
    },
    {
      "midi": 64,
      "time": 87.292,
      "duration": 0.208,
      "velocity": 0.26,
      "hand": "right"
    },
    {
      "midi": 74,
      "time": 87.5,
      "duration": 0.208,
      "velocity": 0.26,
      "hand": "right"
    },
    {
      "midi": 72,
      "time": 87.708,
      "duration": 0.208,
      "velocity": 0.26,
      "hand": "right"
    },
    {
      "midi": 40,
      "time": 87.917,
      "duration": 0.208,
      "velocity": 0.26,
      "hand": "left"
    },
    {
      "midi": 71,
      "time": 87.917,
      "duration": 0.417,
      "velocity": 0.26,
      "hand": "right"
    },
    {
      "midi": 52,
      "time": 88.125,
      "duration": 0.208,
      "velocity": 0.26,
      "hand": "left"
    },
    {
      "midi": 64,
      "time": 88.333,
      "duration": 0.208,
      "velocity": 0.26,
      "hand": "right"
    },
    {
      "midi": 64,
      "time": 88.542,
      "duration": 0.208,
      "velocity": 0.26,
      "hand": "right"
    },
    {
      "midi": 76,
      "time": 88.75,
      "duration": 0.208,
      "velocity": 0.26,
      "hand": "right"
    },
    {
      "midi": 64,
      "time": 88.958,
      "duration": 0.208,
      "velocity": 0.26,
      "hand": "right"
    },
    {
      "midi": 76,
      "time": 89.167,
      "duration": 0.208,
      "velocity": 0.26,
      "hand": "right"
    },
    {
      "midi": 76,
      "time": 89.375,
      "duration": 0.208,
      "velocity": 0.26,
      "hand": "right"
    },
    {
      "midi": 88,
      "time": 89.583,
      "duration": 0.208,
      "velocity": 0.26,
      "hand": "right"
    },
    {
      "midi": 75,
      "time": 89.792,
      "duration": 0.208,
      "velocity": 0.26,
      "hand": "right"
    },
    {
      "midi": 76,
      "time": 90,
      "duration": 0.208,
      "velocity": 0.26,
      "hand": "right"
    },
    {
      "midi": 75,
      "time": 90.208,
      "duration": 0.208,
      "velocity": 0.26,
      "hand": "right"
    },
    {
      "midi": 76,
      "time": 90.417,
      "duration": 0.417,
      "velocity": 0.26,
      "hand": "right"
    },
    {
      "midi": 75,
      "time": 90.625,
      "duration": 0.208,
      "velocity": 0.26,
      "hand": "right"
    },
    {
      "midi": 76,
      "time": 90.833,
      "duration": 0.208,
      "velocity": 0.26,
      "hand": "right"
    },
    {
      "midi": 75,
      "time": 91.042,
      "duration": 0.208,
      "velocity": 0.26,
      "hand": "right"
    },
    {
      "midi": 76,
      "time": 91.25,
      "duration": 0.208,
      "velocity": 0.26,
      "hand": "right"
    },
    {
      "midi": 75,
      "time": 91.458,
      "duration": 0.208,
      "velocity": 0.26,
      "hand": "right"
    },
    {
      "midi": 76,
      "time": 91.667,
      "duration": 0.208,
      "velocity": 0.26,
      "hand": "right"
    },
    {
      "midi": 75,
      "time": 91.875,
      "duration": 0.208,
      "velocity": 0.26,
      "hand": "right"
    },
    {
      "midi": 76,
      "time": 92.083,
      "duration": 0.208,
      "velocity": 0.26,
      "hand": "right"
    },
    {
      "midi": 71,
      "time": 92.292,
      "duration": 0.208,
      "velocity": 0.26,
      "hand": "right"
    },
    {
      "midi": 74,
      "time": 92.5,
      "duration": 0.208,
      "velocity": 0.26,
      "hand": "right"
    },
    {
      "midi": 72,
      "time": 92.708,
      "duration": 0.208,
      "velocity": 0.26,
      "hand": "right"
    },
    {
      "midi": 45,
      "time": 92.917,
      "duration": 0.208,
      "velocity": 0.26,
      "hand": "left"
    },
    {
      "midi": 69,
      "time": 92.917,
      "duration": 0.417,
      "velocity": 0.26,
      "hand": "right"
    },
    {
      "midi": 52,
      "time": 93.125,
      "duration": 0.208,
      "velocity": 0.26,
      "hand": "left"
    },
    {
      "midi": 57,
      "time": 93.333,
      "duration": 0.208,
      "velocity": 0.26,
      "hand": "left"
    },
    {
      "midi": 60,
      "time": 93.542,
      "duration": 0.208,
      "velocity": 0.26,
      "hand": "right"
    },
    {
      "midi": 64,
      "time": 93.75,
      "duration": 0.208,
      "velocity": 0.26,
      "hand": "right"
    },
    {
      "midi": 69,
      "time": 93.958,
      "duration": 0.208,
      "velocity": 0.26,
      "hand": "right"
    },
    {
      "midi": 40,
      "time": 94.167,
      "duration": 0.208,
      "velocity": 0.26,
      "hand": "left"
    },
    {
      "midi": 71,
      "time": 94.167,
      "duration": 0.417,
      "velocity": 0.26,
      "hand": "right"
    },
    {
      "midi": 52,
      "time": 94.375,
      "duration": 0.208,
      "velocity": 0.26,
      "hand": "left"
    },
    {
      "midi": 56,
      "time": 94.583,
      "duration": 0.208,
      "velocity": 0.26,
      "hand": "left"
    },
    {
      "midi": 64,
      "time": 94.792,
      "duration": 0.208,
      "velocity": 0.26,
      "hand": "right"
    },
    {
      "midi": 68,
      "time": 95,
      "duration": 0.208,
      "velocity": 0.26,
      "hand": "right"
    },
    {
      "midi": 71,
      "time": 95.208,
      "duration": 0.208,
      "velocity": 0.26,
      "hand": "right"
    },
    {
      "midi": 45,
      "time": 95.417,
      "duration": 0.208,
      "velocity": 0.26,
      "hand": "left"
    },
    {
      "midi": 72,
      "time": 95.417,
      "duration": 0.417,
      "velocity": 0.26,
      "hand": "right"
    },
    {
      "midi": 52,
      "time": 95.625,
      "duration": 0.208,
      "velocity": 0.26,
      "hand": "left"
    },
    {
      "midi": 57,
      "time": 95.833,
      "duration": 0.208,
      "velocity": 0.26,
      "hand": "left"
    },
    {
      "midi": 64,
      "time": 96.042,
      "duration": 0.208,
      "velocity": 0.26,
      "hand": "right"
    },
    {
      "midi": 76,
      "time": 96.25,
      "duration": 0.208,
      "velocity": 0.26,
      "hand": "right"
    },
    {
      "midi": 75,
      "time": 96.458,
      "duration": 0.208,
      "velocity": 0.26,
      "hand": "right"
    },
    {
      "midi": 76,
      "time": 96.667,
      "duration": 0.208,
      "velocity": 0.26,
      "hand": "right"
    },
    {
      "midi": 75,
      "time": 96.875,
      "duration": 0.208,
      "velocity": 0.26,
      "hand": "right"
    },
    {
      "midi": 76,
      "time": 97.083,
      "duration": 0.208,
      "velocity": 0.26,
      "hand": "right"
    },
    {
      "midi": 71,
      "time": 97.292,
      "duration": 0.208,
      "velocity": 0.26,
      "hand": "right"
    },
    {
      "midi": 74,
      "time": 97.5,
      "duration": 0.208,
      "velocity": 0.26,
      "hand": "right"
    },
    {
      "midi": 72,
      "time": 97.708,
      "duration": 0.208,
      "velocity": 0.26,
      "hand": "right"
    },
    {
      "midi": 45,
      "time": 97.917,
      "duration": 0.208,
      "velocity": 0.26,
      "hand": "left"
    },
    {
      "midi": 69,
      "time": 97.917,
      "duration": 0.417,
      "velocity": 0.26,
      "hand": "right"
    },
    {
      "midi": 52,
      "time": 98.125,
      "duration": 0.208,
      "velocity": 0.26,
      "hand": "left"
    },
    {
      "midi": 57,
      "time": 98.333,
      "duration": 0.208,
      "velocity": 0.26,
      "hand": "left"
    },
    {
      "midi": 60,
      "time": 98.542,
      "duration": 0.208,
      "velocity": 0.26,
      "hand": "right"
    },
    {
      "midi": 64,
      "time": 98.75,
      "duration": 0.208,
      "velocity": 0.26,
      "hand": "right"
    },
    {
      "midi": 69,
      "time": 98.958,
      "duration": 0.208,
      "velocity": 0.26,
      "hand": "right"
    },
    {
      "midi": 40,
      "time": 99.167,
      "duration": 0.208,
      "velocity": 0.26,
      "hand": "left"
    },
    {
      "midi": 71,
      "time": 99.167,
      "duration": 0.417,
      "velocity": 0.26,
      "hand": "right"
    },
    {
      "midi": 52,
      "time": 99.375,
      "duration": 0.208,
      "velocity": 0.26,
      "hand": "left"
    },
    {
      "midi": 56,
      "time": 99.583,
      "duration": 0.208,
      "velocity": 0.26,
      "hand": "left"
    },
    {
      "midi": 62,
      "time": 99.792,
      "duration": 0.208,
      "velocity": 0.26,
      "hand": "right"
    },
    {
      "midi": 72,
      "time": 100,
      "duration": 0.208,
      "velocity": 0.26,
      "hand": "right"
    },
    {
      "midi": 71,
      "time": 100.208,
      "duration": 0.208,
      "velocity": 0.26,
      "hand": "right"
    },
    {
      "midi": 45,
      "time": 100.417,
      "duration": 0.208,
      "velocity": 0.26,
      "hand": "left"
    },
    {
      "midi": 69,
      "time": 100.417,
      "duration": 0.417,
      "velocity": 0.26,
      "hand": "right"
    },
    {
      "midi": 45,
      "time": 100.625,
      "duration": 0.208,
      "velocity": 0.26,
      "hand": "left"
    },
    {
      "midi": 45,
      "time": 100.833,
      "duration": 0.208,
      "velocity": 0.26,
      "hand": "left"
    },
    {
      "midi": 45,
      "time": 101.042,
      "duration": 0.208,
      "velocity": 0.26,
      "hand": "left"
    },
    {
      "midi": 45,
      "time": 101.25,
      "duration": 0.208,
      "velocity": 0.26,
      "hand": "left"
    },
    {
      "midi": 45,
      "time": 101.458,
      "duration": 0.208,
      "velocity": 0.26,
      "hand": "left"
    },
    {
      "midi": 45,
      "time": 101.667,
      "duration": 0.208,
      "velocity": 0.26,
      "hand": "left"
    },
    {
      "midi": 64,
      "time": 101.667,
      "duration": 1.25,
      "velocity": 0.26,
      "hand": "right"
    },
    {
      "midi": 67,
      "time": 101.667,
      "duration": 1.25,
      "velocity": 0.26,
      "hand": "right"
    },
    {
      "midi": 70,
      "time": 101.667,
      "duration": 1.25,
      "velocity": 0.26,
      "hand": "right"
    },
    {
      "midi": 73,
      "time": 101.667,
      "duration": 1.25,
      "velocity": 0.26,
      "hand": "right"
    },
    {
      "midi": 45,
      "time": 101.875,
      "duration": 0.208,
      "velocity": 0.26,
      "hand": "left"
    },
    {
      "midi": 45,
      "time": 102.083,
      "duration": 0.208,
      "velocity": 0.26,
      "hand": "left"
    },
    {
      "midi": 45,
      "time": 102.292,
      "duration": 0.208,
      "velocity": 0.26,
      "hand": "left"
    },
    {
      "midi": 45,
      "time": 102.5,
      "duration": 0.208,
      "velocity": 0.26,
      "hand": "left"
    },
    {
      "midi": 45,
      "time": 102.708,
      "duration": 0.208,
      "velocity": 0.26,
      "hand": "left"
    },
    {
      "midi": 45,
      "time": 102.917,
      "duration": 0.208,
      "velocity": 0.26,
      "hand": "left"
    },
    {
      "midi": 65,
      "time": 102.917,
      "duration": 0.833,
      "velocity": 0.26,
      "hand": "right"
    },
    {
      "midi": 69,
      "time": 102.917,
      "duration": 0.833,
      "velocity": 0.26,
      "hand": "right"
    },
    {
      "midi": 74,
      "time": 102.917,
      "duration": 0.833,
      "velocity": 0.26,
      "hand": "right"
    },
    {
      "midi": 45,
      "time": 103.125,
      "duration": 0.208,
      "velocity": 0.26,
      "hand": "left"
    },
    {
      "midi": 45,
      "time": 103.333,
      "duration": 0.208,
      "velocity": 0.26,
      "hand": "left"
    },
    {
      "midi": 45,
      "time": 103.542,
      "duration": 0.208,
      "velocity": 0.26,
      "hand": "left"
    },
    {
      "midi": 45,
      "time": 103.75,
      "duration": 0.208,
      "velocity": 0.26,
      "hand": "left"
    },
    {
      "midi": 73,
      "time": 103.75,
      "duration": 0.208,
      "velocity": 0.26,
      "hand": "right"
    },
    {
      "midi": 76,
      "time": 103.75,
      "duration": 0.208,
      "velocity": 0.26,
      "hand": "right"
    },
    {
      "midi": 45,
      "time": 103.958,
      "duration": 0.208,
      "velocity": 0.26,
      "hand": "left"
    },
    {
      "midi": 74,
      "time": 103.958,
      "duration": 0.208,
      "velocity": 0.26,
      "hand": "right"
    },
    {
      "midi": 77,
      "time": 103.958,
      "duration": 0.208,
      "velocity": 0.26,
      "hand": "right"
    },
    {
      "midi": 45,
      "time": 104.167,
      "duration": 0.208,
      "velocity": 0.26,
      "hand": "left"
    },
    {
      "midi": 68,
      "time": 104.167,
      "duration": 0.833,
      "velocity": 0.26,
      "hand": "right"
    },
    {
      "midi": 74,
      "time": 104.167,
      "duration": 0.833,
      "velocity": 0.26,
      "hand": "right"
    },
    {
      "midi": 77,
      "time": 104.167,
      "duration": 0.833,
      "velocity": 0.26,
      "hand": "right"
    },
    {
      "midi": 45,
      "time": 104.375,
      "duration": 0.208,
      "velocity": 0.26,
      "hand": "left"
    },
    {
      "midi": 45,
      "time": 104.583,
      "duration": 0.208,
      "velocity": 0.26,
      "hand": "left"
    },
    {
      "midi": 45,
      "time": 104.792,
      "duration": 0.208,
      "velocity": 0.26,
      "hand": "left"
    },
    {
      "midi": 45,
      "time": 105,
      "duration": 0.208,
      "velocity": 0.26,
      "hand": "left"
    },
    {
      "midi": 68,
      "time": 105,
      "duration": 0.417,
      "velocity": 0.26,
      "hand": "right"
    },
    {
      "midi": 74,
      "time": 105,
      "duration": 0.417,
      "velocity": 0.26,
      "hand": "right"
    },
    {
      "midi": 77,
      "time": 105,
      "duration": 0.417,
      "velocity": 0.26,
      "hand": "right"
    },
    {
      "midi": 45,
      "time": 105.208,
      "duration": 0.208,
      "velocity": 0.26,
      "hand": "left"
    },
    {
      "midi": 45,
      "time": 105.417,
      "duration": 0.208,
      "velocity": 0.26,
      "hand": "left"
    },
    {
      "midi": 69,
      "time": 105.417,
      "duration": 1.25,
      "velocity": 0.26,
      "hand": "right"
    },
    {
      "midi": 72,
      "time": 105.417,
      "duration": 1.25,
      "velocity": 0.26,
      "hand": "right"
    },
    {
      "midi": 76,
      "time": 105.417,
      "duration": 1.25,
      "velocity": 0.26,
      "hand": "right"
    },
    {
      "midi": 45,
      "time": 105.625,
      "duration": 0.208,
      "velocity": 0.26,
      "hand": "left"
    },
    {
      "midi": 45,
      "time": 105.833,
      "duration": 0.208,
      "velocity": 0.26,
      "hand": "left"
    },
    {
      "midi": 45,
      "time": 106.042,
      "duration": 0.208,
      "velocity": 0.26,
      "hand": "left"
    },
    {
      "midi": 45,
      "time": 106.25,
      "duration": 0.208,
      "velocity": 0.26,
      "hand": "left"
    },
    {
      "midi": 45,
      "time": 106.458,
      "duration": 0.208,
      "velocity": 0.26,
      "hand": "left"
    },
    {
      "midi": 38,
      "time": 106.667,
      "duration": 0.208,
      "velocity": 0.26,
      "hand": "left"
    },
    {
      "midi": 45,
      "time": 106.667,
      "duration": 0.208,
      "velocity": 0.26,
      "hand": "left"
    },
    {
      "midi": 65,
      "time": 106.667,
      "duration": 0.833,
      "velocity": 0.26,
      "hand": "right"
    },
    {
      "midi": 74,
      "time": 106.667,
      "duration": 0.833,
      "velocity": 0.26,
      "hand": "right"
    },
    {
      "midi": 38,
      "time": 106.875,
      "duration": 0.208,
      "velocity": 0.26,
      "hand": "left"
    },
    {
      "midi": 45,
      "time": 106.875,
      "duration": 0.208,
      "velocity": 0.26,
      "hand": "left"
    },
    {
      "midi": 38,
      "time": 107.083,
      "duration": 0.208,
      "velocity": 0.26,
      "hand": "left"
    },
    {
      "midi": 45,
      "time": 107.083,
      "duration": 0.208,
      "velocity": 0.26,
      "hand": "left"
    },
    {
      "midi": 38,
      "time": 107.292,
      "duration": 0.208,
      "velocity": 0.26,
      "hand": "left"
    },
    {
      "midi": 45,
      "time": 107.292,
      "duration": 0.208,
      "velocity": 0.26,
      "hand": "left"
    },
    {
      "midi": 38,
      "time": 107.5,
      "duration": 0.208,
      "velocity": 0.26,
      "hand": "left"
    },
    {
      "midi": 45,
      "time": 107.5,
      "duration": 0.208,
      "velocity": 0.26,
      "hand": "left"
    },
    {
      "midi": 64,
      "time": 107.5,
      "duration": 0.208,
      "velocity": 0.26,
      "hand": "right"
    },
    {
      "midi": 72,
      "time": 107.5,
      "duration": 0.208,
      "velocity": 0.26,
      "hand": "right"
    },
    {
      "midi": 38,
      "time": 107.708,
      "duration": 0.208,
      "velocity": 0.26,
      "hand": "left"
    },
    {
      "midi": 45,
      "time": 107.708,
      "duration": 0.208,
      "velocity": 0.26,
      "hand": "left"
    },
    {
      "midi": 62,
      "time": 107.708,
      "duration": 0.208,
      "velocity": 0.26,
      "hand": "right"
    },
    {
      "midi": 71,
      "time": 107.708,
      "duration": 0.208,
      "velocity": 0.26,
      "hand": "right"
    },
    {
      "midi": 39,
      "time": 107.917,
      "duration": 0.208,
      "velocity": 0.26,
      "hand": "left"
    },
    {
      "midi": 45,
      "time": 107.917,
      "duration": 0.208,
      "velocity": 0.26,
      "hand": "left"
    },
    {
      "midi": 60,
      "time": 107.917,
      "duration": 0.833,
      "velocity": 0.26,
      "hand": "right"
    },
    {
      "midi": 66,
      "time": 107.917,
      "duration": 0.833,
      "velocity": 0.26,
      "hand": "right"
    },
    {
      "midi": 69,
      "time": 107.917,
      "duration": 0.833,
      "velocity": 0.26,
      "hand": "right"
    },
    {
      "midi": 39,
      "time": 108.125,
      "duration": 0.208,
      "velocity": 0.26,
      "hand": "left"
    },
    {
      "midi": 45,
      "time": 108.125,
      "duration": 0.208,
      "velocity": 0.26,
      "hand": "left"
    },
    {
      "midi": 39,
      "time": 108.333,
      "duration": 0.208,
      "velocity": 0.26,
      "hand": "left"
    },
    {
      "midi": 45,
      "time": 108.333,
      "duration": 0.208,
      "velocity": 0.26,
      "hand": "left"
    },
    {
      "midi": 39,
      "time": 108.542,
      "duration": 0.208,
      "velocity": 0.26,
      "hand": "left"
    },
    {
      "midi": 45,
      "time": 108.542,
      "duration": 0.208,
      "velocity": 0.26,
      "hand": "left"
    },
    {
      "midi": 39,
      "time": 108.75,
      "duration": 0.208,
      "velocity": 0.26,
      "hand": "left"
    },
    {
      "midi": 45,
      "time": 108.75,
      "duration": 0.208,
      "velocity": 0.26,
      "hand": "left"
    },
    {
      "midi": 60,
      "time": 108.75,
      "duration": 0.417,
      "velocity": 0.26,
      "hand": "right"
    },
    {
      "midi": 69,
      "time": 108.75,
      "duration": 0.417,
      "velocity": 0.26,
      "hand": "right"
    },
    {
      "midi": 39,
      "time": 108.958,
      "duration": 0.208,
      "velocity": 0.26,
      "hand": "left"
    },
    {
      "midi": 45,
      "time": 108.958,
      "duration": 0.208,
      "velocity": 0.26,
      "hand": "left"
    },
    {
      "midi": 40,
      "time": 109.167,
      "duration": 0.208,
      "velocity": 0.26,
      "hand": "left"
    },
    {
      "midi": 45,
      "time": 109.167,
      "duration": 0.208,
      "velocity": 0.26,
      "hand": "left"
    },
    {
      "midi": 60,
      "time": 109.167,
      "duration": 0.417,
      "velocity": 0.26,
      "hand": "right"
    },
    {
      "midi": 69,
      "time": 109.167,
      "duration": 0.417,
      "velocity": 0.26,
      "hand": "right"
    },
    {
      "midi": 40,
      "time": 109.375,
      "duration": 0.208,
      "velocity": 0.26,
      "hand": "left"
    },
    {
      "midi": 45,
      "time": 109.375,
      "duration": 0.208,
      "velocity": 0.26,
      "hand": "left"
    },
    {
      "midi": 40,
      "time": 109.583,
      "duration": 0.208,
      "velocity": 0.26,
      "hand": "left"
    },
    {
      "midi": 45,
      "time": 109.583,
      "duration": 0.208,
      "velocity": 0.26,
      "hand": "left"
    },
    {
      "midi": 64,
      "time": 109.583,
      "duration": 0.417,
      "velocity": 0.26,
      "hand": "right"
    },
    {
      "midi": 72,
      "time": 109.583,
      "duration": 0.417,
      "velocity": 0.26,
      "hand": "right"
    },
    {
      "midi": 40,
      "time": 109.792,
      "duration": 0.208,
      "velocity": 0.26,
      "hand": "left"
    },
    {
      "midi": 45,
      "time": 109.792,
      "duration": 0.208,
      "velocity": 0.26,
      "hand": "left"
    },
    {
      "midi": 40,
      "time": 110,
      "duration": 0.208,
      "velocity": 0.26,
      "hand": "left"
    },
    {
      "midi": 44,
      "time": 110,
      "duration": 0.208,
      "velocity": 0.26,
      "hand": "left"
    },
    {
      "midi": 62,
      "time": 110,
      "duration": 0.417,
      "velocity": 0.26,
      "hand": "right"
    },
    {
      "midi": 71,
      "time": 110,
      "duration": 0.417,
      "velocity": 0.26,
      "hand": "right"
    },
    {
      "midi": 40,
      "time": 110.208,
      "duration": 0.208,
      "velocity": 0.26,
      "hand": "left"
    },
    {
      "midi": 44,
      "time": 110.208,
      "duration": 0.208,
      "velocity": 0.26,
      "hand": "left"
    },
    {
      "midi": 33,
      "time": 110.417,
      "duration": 0.208,
      "velocity": 0.26,
      "hand": "left"
    },
    {
      "midi": 45,
      "time": 110.417,
      "duration": 0.208,
      "velocity": 0.26,
      "hand": "left"
    },
    {
      "midi": 60,
      "time": 110.417,
      "duration": 1.25,
      "velocity": 0.26,
      "hand": "right"
    },
    {
      "midi": 69,
      "time": 110.417,
      "duration": 1.25,
      "velocity": 0.26,
      "hand": "right"
    },
    {
      "midi": 45,
      "time": 110.625,
      "duration": 0.208,
      "velocity": 0.26,
      "hand": "left"
    },
    {
      "midi": 45,
      "time": 110.833,
      "duration": 0.208,
      "velocity": 0.26,
      "hand": "left"
    },
    {
      "midi": 45,
      "time": 111.042,
      "duration": 0.208,
      "velocity": 0.26,
      "hand": "left"
    },
    {
      "midi": 45,
      "time": 111.25,
      "duration": 0.208,
      "velocity": 0.26,
      "hand": "left"
    },
    {
      "midi": 45,
      "time": 111.458,
      "duration": 0.208,
      "velocity": 0.26,
      "hand": "left"
    },
    {
      "midi": 45,
      "time": 111.667,
      "duration": 0.208,
      "velocity": 0.26,
      "hand": "left"
    },
    {
      "midi": 64,
      "time": 111.667,
      "duration": 1.25,
      "velocity": 0.26,
      "hand": "right"
    },
    {
      "midi": 67,
      "time": 111.667,
      "duration": 1.25,
      "velocity": 0.26,
      "hand": "right"
    },
    {
      "midi": 70,
      "time": 111.667,
      "duration": 1.25,
      "velocity": 0.26,
      "hand": "right"
    },
    {
      "midi": 73,
      "time": 111.667,
      "duration": 1.25,
      "velocity": 0.26,
      "hand": "right"
    },
    {
      "midi": 45,
      "time": 111.875,
      "duration": 0.208,
      "velocity": 0.26,
      "hand": "left"
    },
    {
      "midi": 45,
      "time": 112.083,
      "duration": 0.208,
      "velocity": 0.26,
      "hand": "left"
    },
    {
      "midi": 45,
      "time": 112.292,
      "duration": 0.208,
      "velocity": 0.26,
      "hand": "left"
    },
    {
      "midi": 45,
      "time": 112.5,
      "duration": 0.208,
      "velocity": 0.26,
      "hand": "left"
    },
    {
      "midi": 45,
      "time": 112.708,
      "duration": 0.208,
      "velocity": 0.26,
      "hand": "left"
    },
    {
      "midi": 45,
      "time": 112.917,
      "duration": 0.208,
      "velocity": 0.26,
      "hand": "left"
    },
    {
      "midi": 65,
      "time": 112.917,
      "duration": 0.833,
      "velocity": 0.26,
      "hand": "right"
    },
    {
      "midi": 69,
      "time": 112.917,
      "duration": 0.833,
      "velocity": 0.26,
      "hand": "right"
    },
    {
      "midi": 74,
      "time": 112.917,
      "duration": 0.833,
      "velocity": 0.26,
      "hand": "right"
    },
    {
      "midi": 45,
      "time": 113.125,
      "duration": 0.208,
      "velocity": 0.26,
      "hand": "left"
    },
    {
      "midi": 45,
      "time": 113.333,
      "duration": 0.208,
      "velocity": 0.26,
      "hand": "left"
    },
    {
      "midi": 45,
      "time": 113.542,
      "duration": 0.208,
      "velocity": 0.26,
      "hand": "left"
    },
    {
      "midi": 45,
      "time": 113.75,
      "duration": 0.208,
      "velocity": 0.26,
      "hand": "left"
    },
    {
      "midi": 73,
      "time": 113.75,
      "duration": 0.208,
      "velocity": 0.26,
      "hand": "right"
    },
    {
      "midi": 76,
      "time": 113.75,
      "duration": 0.208,
      "velocity": 0.26,
      "hand": "right"
    },
    {
      "midi": 45,
      "time": 113.958,
      "duration": 0.208,
      "velocity": 0.26,
      "hand": "left"
    },
    {
      "midi": 74,
      "time": 113.958,
      "duration": 0.208,
      "velocity": 0.26,
      "hand": "right"
    },
    {
      "midi": 77,
      "time": 113.958,
      "duration": 0.208,
      "velocity": 0.26,
      "hand": "right"
    },
    {
      "midi": 45,
      "time": 114.167,
      "duration": 0.208,
      "velocity": 0.26,
      "hand": "left"
    },
    {
      "midi": 74,
      "time": 114.167,
      "duration": 0.833,
      "velocity": 0.26,
      "hand": "right"
    },
    {
      "midi": 77,
      "time": 114.167,
      "duration": 0.833,
      "velocity": 0.26,
      "hand": "right"
    },
    {
      "midi": 45,
      "time": 114.375,
      "duration": 0.208,
      "velocity": 0.26,
      "hand": "left"
    },
    {
      "midi": 45,
      "time": 114.583,
      "duration": 0.208,
      "velocity": 0.26,
      "hand": "left"
    },
    {
      "midi": 45,
      "time": 114.792,
      "duration": 0.208,
      "velocity": 0.26,
      "hand": "left"
    },
    {
      "midi": 45,
      "time": 115,
      "duration": 0.208,
      "velocity": 0.26,
      "hand": "left"
    },
    {
      "midi": 74,
      "time": 115,
      "duration": 0.417,
      "velocity": 0.26,
      "hand": "right"
    },
    {
      "midi": 77,
      "time": 115,
      "duration": 0.417,
      "velocity": 0.26,
      "hand": "right"
    },
    {
      "midi": 45,
      "time": 115.208,
      "duration": 0.208,
      "velocity": 0.26,
      "hand": "left"
    },
    {
      "midi": 46,
      "time": 115.417,
      "duration": 0.208,
      "velocity": 0.26,
      "hand": "left"
    },
    {
      "midi": 74,
      "time": 115.417,
      "duration": 1.25,
      "velocity": 0.26,
      "hand": "right"
    },
    {
      "midi": 77,
      "time": 115.417,
      "duration": 1.25,
      "velocity": 0.26,
      "hand": "right"
    },
    {
      "midi": 46,
      "time": 115.625,
      "duration": 0.208,
      "velocity": 0.26,
      "hand": "left"
    },
    {
      "midi": 46,
      "time": 115.833,
      "duration": 0.208,
      "velocity": 0.26,
      "hand": "left"
    },
    {
      "midi": 46,
      "time": 116.042,
      "duration": 0.208,
      "velocity": 0.26,
      "hand": "left"
    },
    {
      "midi": 46,
      "time": 116.25,
      "duration": 0.208,
      "velocity": 0.26,
      "hand": "left"
    },
    {
      "midi": 46,
      "time": 116.458,
      "duration": 0.208,
      "velocity": 0.26,
      "hand": "left"
    },
    {
      "midi": 46,
      "time": 116.667,
      "duration": 0.208,
      "velocity": 0.26,
      "hand": "left"
    },
    {
      "midi": 67,
      "time": 116.667,
      "duration": 0.833,
      "velocity": 0.26,
      "hand": "right"
    },
    {
      "midi": 75,
      "time": 116.667,
      "duration": 0.833,
      "velocity": 0.26,
      "hand": "right"
    },
    {
      "midi": 46,
      "time": 116.875,
      "duration": 0.208,
      "velocity": 0.26,
      "hand": "left"
    },
    {
      "midi": 46,
      "time": 117.083,
      "duration": 0.208,
      "velocity": 0.26,
      "hand": "left"
    },
    {
      "midi": 46,
      "time": 117.292,
      "duration": 0.208,
      "velocity": 0.26,
      "hand": "left"
    },
    {
      "midi": 46,
      "time": 117.5,
      "duration": 0.208,
      "velocity": 0.26,
      "hand": "left"
    },
    {
      "midi": 65,
      "time": 117.5,
      "duration": 0.208,
      "velocity": 0.26,
      "hand": "right"
    },
    {
      "midi": 74,
      "time": 117.5,
      "duration": 0.208,
      "velocity": 0.26,
      "hand": "right"
    },
    {
      "midi": 46,
      "time": 117.708,
      "duration": 0.208,
      "velocity": 0.26,
      "hand": "left"
    },
    {
      "midi": 63,
      "time": 117.708,
      "duration": 0.208,
      "velocity": 0.26,
      "hand": "right"
    },
    {
      "midi": 72,
      "time": 117.708,
      "duration": 0.208,
      "velocity": 0.26,
      "hand": "right"
    },
    {
      "midi": 46,
      "time": 117.917,
      "duration": 0.208,
      "velocity": 0.26,
      "hand": "left"
    },
    {
      "midi": 62,
      "time": 117.917,
      "duration": 0.833,
      "velocity": 0.26,
      "hand": "right"
    },
    {
      "midi": 65,
      "time": 117.917,
      "duration": 0.833,
      "velocity": 0.26,
      "hand": "right"
    },
    {
      "midi": 70,
      "time": 117.917,
      "duration": 0.833,
      "velocity": 0.26,
      "hand": "right"
    },
    {
      "midi": 46,
      "time": 118.125,
      "duration": 0.208,
      "velocity": 0.26,
      "hand": "left"
    },
    {
      "midi": 46,
      "time": 118.333,
      "duration": 0.208,
      "velocity": 0.26,
      "hand": "left"
    },
    {
      "midi": 46,
      "time": 118.542,
      "duration": 0.208,
      "velocity": 0.26,
      "hand": "left"
    },
    {
      "midi": 46,
      "time": 118.75,
      "duration": 0.208,
      "velocity": 0.26,
      "hand": "left"
    },
    {
      "midi": 62,
      "time": 118.75,
      "duration": 0.417,
      "velocity": 0.26,
      "hand": "right"
    },
    {
      "midi": 65,
      "time": 118.75,
      "duration": 0.417,
      "velocity": 0.26,
      "hand": "right"
    },
    {
      "midi": 69,
      "time": 118.75,
      "duration": 0.417,
      "velocity": 0.26,
      "hand": "right"
    },
    {
      "midi": 46,
      "time": 118.958,
      "duration": 0.208,
      "velocity": 0.26,
      "hand": "left"
    },
    {
      "midi": 47,
      "time": 119.167,
      "duration": 0.208,
      "velocity": 0.26,
      "hand": "left"
    },
    {
      "midi": 62,
      "time": 119.167,
      "duration": 0.833,
      "velocity": 0.26,
      "hand": "right"
    },
    {
      "midi": 65,
      "time": 119.167,
      "duration": 0.833,
      "velocity": 0.26,
      "hand": "right"
    },
    {
      "midi": 68,
      "time": 119.167,
      "duration": 0.833,
      "velocity": 0.26,
      "hand": "right"
    },
    {
      "midi": 47,
      "time": 119.375,
      "duration": 0.208,
      "velocity": 0.26,
      "hand": "left"
    },
    {
      "midi": 47,
      "time": 119.583,
      "duration": 0.208,
      "velocity": 0.26,
      "hand": "left"
    },
    {
      "midi": 47,
      "time": 119.792,
      "duration": 0.208,
      "velocity": 0.26,
      "hand": "left"
    },
    {
      "midi": 47,
      "time": 120,
      "duration": 0.208,
      "velocity": 0.26,
      "hand": "left"
    },
    {
      "midi": 62,
      "time": 120,
      "duration": 0.417,
      "velocity": 0.26,
      "hand": "right"
    },
    {
      "midi": 65,
      "time": 120,
      "duration": 0.417,
      "velocity": 0.26,
      "hand": "right"
    },
    {
      "midi": 68,
      "time": 120,
      "duration": 0.417,
      "velocity": 0.26,
      "hand": "right"
    },
    {
      "midi": 47,
      "time": 120.208,
      "duration": 0.208,
      "velocity": 0.26,
      "hand": "left"
    },
    {
      "midi": 48,
      "time": 120.417,
      "duration": 0.833,
      "velocity": 0.26,
      "hand": "left"
    },
    {
      "midi": 60,
      "time": 120.417,
      "duration": 0.833,
      "velocity": 0.26,
      "hand": "right"
    },
    {
      "midi": 64,
      "time": 120.417,
      "duration": 0.833,
      "velocity": 0.26,
      "hand": "right"
    },
    {
      "midi": 69,
      "time": 120.417,
      "duration": 0.833,
      "velocity": 0.26,
      "hand": "right"
    },
    {
      "midi": 52,
      "time": 121.667,
      "duration": 0.417,
      "velocity": 0.26,
      "hand": "left"
    },
    {
      "midi": 56,
      "time": 121.667,
      "duration": 0.417,
      "velocity": 0.26,
      "hand": "left"
    },
    {
      "midi": 64,
      "time": 121.667,
      "duration": 0.417,
      "velocity": 0.26,
      "hand": "right"
    },
    {
      "midi": 71,
      "time": 121.667,
      "duration": 0.417,
      "velocity": 0.26,
      "hand": "right"
    },
    {
      "midi": 33,
      "time": 122.917,
      "duration": 0.417,
      "velocity": 0.26,
      "hand": "left"
    },
    {
      "midi": 57,
      "time": 122.917,
      "duration": 0.208,
      "velocity": 0.26,
      "hand": "left"
    },
    {
      "midi": 60,
      "time": 123.125,
      "duration": 0.208,
      "velocity": 0.26,
      "hand": "right"
    },
    {
      "midi": 64,
      "time": 123.125,
      "duration": 0.208,
      "velocity": 0.26,
      "hand": "right"
    },
    {
      "midi": 69,
      "time": 123.333,
      "duration": 0.208,
      "velocity": 0.26,
      "hand": "right"
    },
    {
      "midi": 72,
      "time": 123.542,
      "duration": 0.208,
      "velocity": 0.26,
      "hand": "right"
    },
    {
      "midi": 76,
      "time": 123.542,
      "duration": 0.208,
      "velocity": 0.26,
      "hand": "right"
    },
    {
      "midi": 57,
      "time": 123.75,
      "duration": 0.417,
      "velocity": 0.26,
      "hand": "left"
    },
    {
      "midi": 60,
      "time": 123.75,
      "duration": 0.417,
      "velocity": 0.26,
      "hand": "right"
    },
    {
      "midi": 64,
      "time": 123.75,
      "duration": 0.417,
      "velocity": 0.26,
      "hand": "right"
    },
    {
      "midi": 74,
      "time": 123.75,
      "duration": 0.208,
      "velocity": 0.26,
      "hand": "right"
    },
    {
      "midi": 71,
      "time": 123.958,
      "duration": 0.208,
      "velocity": 0.26,
      "hand": "right"
    },
    {
      "midi": 72,
      "time": 123.958,
      "duration": 0.208,
      "velocity": 0.26,
      "hand": "right"
    },
    {
      "midi": 57,
      "time": 124.167,
      "duration": 0.417,
      "velocity": 0.26,
      "hand": "left"
    },
    {
      "midi": 60,
      "time": 124.167,
      "duration": 0.417,
      "velocity": 0.26,
      "hand": "right"
    },
    {
      "midi": 64,
      "time": 124.167,
      "duration": 0.417,
      "velocity": 0.26,
      "hand": "right"
    },
    {
      "midi": 69,
      "time": 124.167,
      "duration": 0.208,
      "velocity": 0.26,
      "hand": "right"
    },
    {
      "midi": 72,
      "time": 124.375,
      "duration": 0.208,
      "velocity": 0.26,
      "hand": "right"
    },
    {
      "midi": 76,
      "time": 124.375,
      "duration": 0.208,
      "velocity": 0.26,
      "hand": "right"
    },
    {
      "midi": 81,
      "time": 124.583,
      "duration": 0.208,
      "velocity": 0.26,
      "hand": "right"
    },
    {
      "midi": 84,
      "time": 124.792,
      "duration": 0.208,
      "velocity": 0.26,
      "hand": "right"
    },
    {
      "midi": 88,
      "time": 124.792,
      "duration": 0.208,
      "velocity": 0.26,
      "hand": "right"
    },
    {
      "midi": 57,
      "time": 125,
      "duration": 0.417,
      "velocity": 0.26,
      "hand": "left"
    },
    {
      "midi": 60,
      "time": 125,
      "duration": 0.417,
      "velocity": 0.26,
      "hand": "right"
    },
    {
      "midi": 64,
      "time": 125,
      "duration": 0.417,
      "velocity": 0.26,
      "hand": "right"
    },
    {
      "midi": 86,
      "time": 125,
      "duration": 0.208,
      "velocity": 0.26,
      "hand": "right"
    },
    {
      "midi": 83,
      "time": 125.208,
      "duration": 0.208,
      "velocity": 0.26,
      "hand": "right"
    },
    {
      "midi": 84,
      "time": 125.208,
      "duration": 0.208,
      "velocity": 0.26,
      "hand": "right"
    },
    {
      "midi": 57,
      "time": 125.417,
      "duration": 0.417,
      "velocity": 0.26,
      "hand": "left"
    },
    {
      "midi": 60,
      "time": 125.417,
      "duration": 0.417,
      "velocity": 0.26,
      "hand": "right"
    },
    {
      "midi": 64,
      "time": 125.417,
      "duration": 0.417,
      "velocity": 0.26,
      "hand": "right"
    },
    {
      "midi": 81,
      "time": 125.417,
      "duration": 0.208,
      "velocity": 0.26,
      "hand": "right"
    },
    {
      "midi": 84,
      "time": 125.625,
      "duration": 0.208,
      "velocity": 0.26,
      "hand": "right"
    },
    {
      "midi": 88,
      "time": 125.625,
      "duration": 0.208,
      "velocity": 0.26,
      "hand": "right"
    },
    {
      "midi": 93,
      "time": 125.833,
      "duration": 0.208,
      "velocity": 0.26,
      "hand": "right"
    },
    {
      "midi": 96,
      "time": 126.042,
      "duration": 0.208,
      "velocity": 0.26,
      "hand": "right"
    },
    {
      "midi": 100,
      "time": 126.042,
      "duration": 0.208,
      "velocity": 0.26,
      "hand": "right"
    },
    {
      "midi": 57,
      "time": 126.25,
      "duration": 0.417,
      "velocity": 0.26,
      "hand": "left"
    },
    {
      "midi": 60,
      "time": 126.25,
      "duration": 0.417,
      "velocity": 0.26,
      "hand": "right"
    },
    {
      "midi": 64,
      "time": 126.25,
      "duration": 0.417,
      "velocity": 0.26,
      "hand": "right"
    },
    {
      "midi": 98,
      "time": 126.25,
      "duration": 0.208,
      "velocity": 0.26,
      "hand": "right"
    },
    {
      "midi": 95,
      "time": 126.458,
      "duration": 0.208,
      "velocity": 0.26,
      "hand": "right"
    },
    {
      "midi": 96,
      "time": 126.458,
      "duration": 0.208,
      "velocity": 0.26,
      "hand": "right"
    },
    {
      "midi": 57,
      "time": 126.667,
      "duration": 0.417,
      "velocity": 0.26,
      "hand": "left"
    },
    {
      "midi": 60,
      "time": 126.667,
      "duration": 0.417,
      "velocity": 0.26,
      "hand": "right"
    },
    {
      "midi": 64,
      "time": 126.667,
      "duration": 0.417,
      "velocity": 0.26,
      "hand": "right"
    },
    {
      "midi": 94,
      "time": 126.667,
      "duration": 0.208,
      "velocity": 0.26,
      "hand": "right"
    },
    {
      "midi": 92,
      "time": 126.875,
      "duration": 0.208,
      "velocity": 0.26,
      "hand": "right"
    },
    {
      "midi": 93,
      "time": 126.875,
      "duration": 0.208,
      "velocity": 0.26,
      "hand": "right"
    },
    {
      "midi": 91,
      "time": 127.083,
      "duration": 0.208,
      "velocity": 0.26,
      "hand": "right"
    },
    {
      "midi": 89,
      "time": 127.292,
      "duration": 0.208,
      "velocity": 0.26,
      "hand": "right"
    },
    {
      "midi": 90,
      "time": 127.292,
      "duration": 0.208,
      "velocity": 0.26,
      "hand": "right"
    },
    {
      "midi": 88,
      "time": 127.5,
      "duration": 0.208,
      "velocity": 0.26,
      "hand": "right"
    },
    {
      "midi": 86,
      "time": 127.708,
      "duration": 0.208,
      "velocity": 0.26,
      "hand": "right"
    },
    {
      "midi": 87,
      "time": 127.708,
      "duration": 0.208,
      "velocity": 0.26,
      "hand": "right"
    },
    {
      "midi": 85,
      "time": 127.917,
      "duration": 0.208,
      "velocity": 0.26,
      "hand": "right"
    },
    {
      "midi": 83,
      "time": 128.125,
      "duration": 0.208,
      "velocity": 0.26,
      "hand": "right"
    },
    {
      "midi": 84,
      "time": 128.125,
      "duration": 0.208,
      "velocity": 0.26,
      "hand": "right"
    },
    {
      "midi": 82,
      "time": 128.333,
      "duration": 0.208,
      "velocity": 0.26,
      "hand": "right"
    },
    {
      "midi": 80,
      "time": 128.542,
      "duration": 0.208,
      "velocity": 0.26,
      "hand": "right"
    },
    {
      "midi": 81,
      "time": 128.542,
      "duration": 0.208,
      "velocity": 0.26,
      "hand": "right"
    },
    {
      "midi": 79,
      "time": 128.75,
      "duration": 0.208,
      "velocity": 0.26,
      "hand": "right"
    },
    {
      "midi": 77,
      "time": 128.958,
      "duration": 0.208,
      "velocity": 0.26,
      "hand": "right"
    },
    {
      "midi": 78,
      "time": 128.958,
      "duration": 0.208,
      "velocity": 0.26,
      "hand": "right"
    },
    {
      "midi": 76,
      "time": 129.167,
      "duration": 0.208,
      "velocity": 0.26,
      "hand": "right"
    },
    {
      "midi": 75,
      "time": 129.375,
      "duration": 0.208,
      "velocity": 0.26,
      "hand": "right"
    },
    {
      "midi": 76,
      "time": 129.583,
      "duration": 0.208,
      "velocity": 0.26,
      "hand": "right"
    },
    {
      "midi": 71,
      "time": 129.792,
      "duration": 0.208,
      "velocity": 0.26,
      "hand": "right"
    },
    {
      "midi": 74,
      "time": 130,
      "duration": 0.208,
      "velocity": 0.26,
      "hand": "right"
    },
    {
      "midi": 72,
      "time": 130.208,
      "duration": 0.208,
      "velocity": 0.26,
      "hand": "right"
    },
    {
      "midi": 45,
      "time": 130.417,
      "duration": 0.208,
      "velocity": 0.26,
      "hand": "left"
    },
    {
      "midi": 69,
      "time": 130.417,
      "duration": 0.417,
      "velocity": 0.26,
      "hand": "right"
    },
    {
      "midi": 52,
      "time": 130.625,
      "duration": 0.208,
      "velocity": 0.26,
      "hand": "left"
    },
    {
      "midi": 57,
      "time": 130.833,
      "duration": 0.208,
      "velocity": 0.26,
      "hand": "left"
    },
    {
      "midi": 60,
      "time": 131.042,
      "duration": 0.208,
      "velocity": 0.26,
      "hand": "right"
    },
    {
      "midi": 64,
      "time": 131.25,
      "duration": 0.208,
      "velocity": 0.26,
      "hand": "right"
    },
    {
      "midi": 69,
      "time": 131.458,
      "duration": 0.208,
      "velocity": 0.26,
      "hand": "right"
    },
    {
      "midi": 40,
      "time": 131.667,
      "duration": 0.208,
      "velocity": 0.26,
      "hand": "left"
    },
    {
      "midi": 71,
      "time": 131.667,
      "duration": 0.417,
      "velocity": 0.26,
      "hand": "right"
    },
    {
      "midi": 52,
      "time": 131.875,
      "duration": 0.208,
      "velocity": 0.26,
      "hand": "left"
    },
    {
      "midi": 56,
      "time": 132.083,
      "duration": 0.208,
      "velocity": 0.26,
      "hand": "left"
    },
    {
      "midi": 64,
      "time": 132.292,
      "duration": 0.208,
      "velocity": 0.26,
      "hand": "right"
    },
    {
      "midi": 68,
      "time": 132.5,
      "duration": 0.208,
      "velocity": 0.26,
      "hand": "right"
    },
    {
      "midi": 71,
      "time": 132.708,
      "duration": 0.208,
      "velocity": 0.26,
      "hand": "right"
    },
    {
      "midi": 45,
      "time": 132.917,
      "duration": 0.208,
      "velocity": 0.26,
      "hand": "left"
    },
    {
      "midi": 72,
      "time": 132.917,
      "duration": 0.417,
      "velocity": 0.26,
      "hand": "right"
    },
    {
      "midi": 52,
      "time": 133.125,
      "duration": 0.208,
      "velocity": 0.26,
      "hand": "left"
    },
    {
      "midi": 57,
      "time": 133.333,
      "duration": 0.208,
      "velocity": 0.26,
      "hand": "left"
    },
    {
      "midi": 64,
      "time": 133.542,
      "duration": 0.208,
      "velocity": 0.26,
      "hand": "right"
    },
    {
      "midi": 76,
      "time": 133.75,
      "duration": 0.208,
      "velocity": 0.26,
      "hand": "right"
    },
    {
      "midi": 75,
      "time": 133.958,
      "duration": 0.208,
      "velocity": 0.26,
      "hand": "right"
    },
    {
      "midi": 76,
      "time": 134.167,
      "duration": 0.208,
      "velocity": 0.26,
      "hand": "right"
    },
    {
      "midi": 75,
      "time": 134.375,
      "duration": 0.208,
      "velocity": 0.26,
      "hand": "right"
    },
    {
      "midi": 76,
      "time": 134.583,
      "duration": 0.208,
      "velocity": 0.26,
      "hand": "right"
    },
    {
      "midi": 71,
      "time": 134.792,
      "duration": 0.208,
      "velocity": 0.26,
      "hand": "right"
    },
    {
      "midi": 74,
      "time": 135,
      "duration": 0.208,
      "velocity": 0.26,
      "hand": "right"
    },
    {
      "midi": 72,
      "time": 135.208,
      "duration": 0.208,
      "velocity": 0.26,
      "hand": "right"
    },
    {
      "midi": 45,
      "time": 135.417,
      "duration": 0.208,
      "velocity": 0.26,
      "hand": "left"
    },
    {
      "midi": 69,
      "time": 135.417,
      "duration": 0.417,
      "velocity": 0.26,
      "hand": "right"
    },
    {
      "midi": 52,
      "time": 135.625,
      "duration": 0.208,
      "velocity": 0.26,
      "hand": "left"
    },
    {
      "midi": 57,
      "time": 135.833,
      "duration": 0.208,
      "velocity": 0.26,
      "hand": "left"
    },
    {
      "midi": 60,
      "time": 136.042,
      "duration": 0.208,
      "velocity": 0.26,
      "hand": "right"
    },
    {
      "midi": 64,
      "time": 136.25,
      "duration": 0.208,
      "velocity": 0.26,
      "hand": "right"
    },
    {
      "midi": 69,
      "time": 136.458,
      "duration": 0.208,
      "velocity": 0.26,
      "hand": "right"
    },
    {
      "midi": 40,
      "time": 136.667,
      "duration": 0.208,
      "velocity": 0.26,
      "hand": "left"
    },
    {
      "midi": 71,
      "time": 136.667,
      "duration": 0.417,
      "velocity": 0.26,
      "hand": "right"
    },
    {
      "midi": 52,
      "time": 136.875,
      "duration": 0.208,
      "velocity": 0.26,
      "hand": "left"
    },
    {
      "midi": 56,
      "time": 137.083,
      "duration": 0.208,
      "velocity": 0.26,
      "hand": "left"
    },
    {
      "midi": 62,
      "time": 137.292,
      "duration": 0.208,
      "velocity": 0.26,
      "hand": "right"
    },
    {
      "midi": 72,
      "time": 137.5,
      "duration": 0.208,
      "velocity": 0.26,
      "hand": "right"
    },
    {
      "midi": 71,
      "time": 137.708,
      "duration": 0.208,
      "velocity": 0.26,
      "hand": "right"
    },
    {
      "midi": 45,
      "time": 137.917,
      "duration": 0.208,
      "velocity": 0.26,
      "hand": "left"
    },
    {
      "midi": 69,
      "time": 137.917,
      "duration": 0.417,
      "velocity": 0.26,
      "hand": "right"
    },
    {
      "midi": 52,
      "time": 138.125,
      "duration": 0.208,
      "velocity": 0.26,
      "hand": "left"
    },
    {
      "midi": 57,
      "time": 138.333,
      "duration": 0.208,
      "velocity": 0.26,
      "hand": "left"
    },
    {
      "midi": 71,
      "time": 138.542,
      "duration": 0.208,
      "velocity": 0.26,
      "hand": "right"
    },
    {
      "midi": 72,
      "time": 138.75,
      "duration": 0.208,
      "velocity": 0.26,
      "hand": "right"
    },
    {
      "midi": 74,
      "time": 138.958,
      "duration": 0.208,
      "velocity": 0.26,
      "hand": "right"
    },
    {
      "midi": 48,
      "time": 139.167,
      "duration": 0.208,
      "velocity": 0.26,
      "hand": "left"
    },
    {
      "midi": 76,
      "time": 139.167,
      "duration": 0.625,
      "velocity": 0.26,
      "hand": "right"
    },
    {
      "midi": 55,
      "time": 139.375,
      "duration": 0.208,
      "velocity": 0.26,
      "hand": "left"
    },
    {
      "midi": 60,
      "time": 139.583,
      "duration": 0.208,
      "velocity": 0.26,
      "hand": "right"
    },
    {
      "midi": 67,
      "time": 139.792,
      "duration": 0.208,
      "velocity": 0.26,
      "hand": "right"
    },
    {
      "midi": 77,
      "time": 140,
      "duration": 0.208,
      "velocity": 0.26,
      "hand": "right"
    },
    {
      "midi": 76,
      "time": 140.208,
      "duration": 0.208,
      "velocity": 0.26,
      "hand": "right"
    },
    {
      "midi": 43,
      "time": 140.417,
      "duration": 0.208,
      "velocity": 0.26,
      "hand": "left"
    },
    {
      "midi": 74,
      "time": 140.417,
      "duration": 0.625,
      "velocity": 0.26,
      "hand": "right"
    },
    {
      "midi": 55,
      "time": 140.625,
      "duration": 0.208,
      "velocity": 0.26,
      "hand": "left"
    },
    {
      "midi": 59,
      "time": 140.833,
      "duration": 0.208,
      "velocity": 0.26,
      "hand": "left"
    },
    {
      "midi": 65,
      "time": 141.042,
      "duration": 0.208,
      "velocity": 0.26,
      "hand": "right"
    },
    {
      "midi": 76,
      "time": 141.25,
      "duration": 0.208,
      "velocity": 0.26,
      "hand": "right"
    },
    {
      "midi": 74,
      "time": 141.458,
      "duration": 0.208,
      "velocity": 0.26,
      "hand": "right"
    },
    {
      "midi": 45,
      "time": 141.667,
      "duration": 0.208,
      "velocity": 0.26,
      "hand": "left"
    },
    {
      "midi": 72,
      "time": 141.667,
      "duration": 0.625,
      "velocity": 0.26,
      "hand": "right"
    },
    {
      "midi": 52,
      "time": 141.875,
      "duration": 0.208,
      "velocity": 0.26,
      "hand": "left"
    },
    {
      "midi": 57,
      "time": 142.083,
      "duration": 0.208,
      "velocity": 0.26,
      "hand": "left"
    },
    {
      "midi": 64,
      "time": 142.292,
      "duration": 0.208,
      "velocity": 0.26,
      "hand": "right"
    },
    {
      "midi": 74,
      "time": 142.5,
      "duration": 0.208,
      "velocity": 0.26,
      "hand": "right"
    },
    {
      "midi": 72,
      "time": 142.708,
      "duration": 0.208,
      "velocity": 0.26,
      "hand": "right"
    },
    {
      "midi": 40,
      "time": 142.917,
      "duration": 0.208,
      "velocity": 0.26,
      "hand": "left"
    },
    {
      "midi": 71,
      "time": 142.917,
      "duration": 0.417,
      "velocity": 0.26,
      "hand": "right"
    },
    {
      "midi": 52,
      "time": 143.125,
      "duration": 0.208,
      "velocity": 0.26,
      "hand": "left"
    },
    {
      "midi": 64,
      "time": 143.333,
      "duration": 0.208,
      "velocity": 0.26,
      "hand": "right"
    },
    {
      "midi": 64,
      "time": 143.542,
      "duration": 0.208,
      "velocity": 0.26,
      "hand": "right"
    },
    {
      "midi": 76,
      "time": 143.75,
      "duration": 0.208,
      "velocity": 0.26,
      "hand": "right"
    },
    {
      "midi": 64,
      "time": 143.958,
      "duration": 0.208,
      "velocity": 0.26,
      "hand": "right"
    },
    {
      "midi": 76,
      "time": 144.167,
      "duration": 0.208,
      "velocity": 0.26,
      "hand": "right"
    },
    {
      "midi": 76,
      "time": 144.375,
      "duration": 0.208,
      "velocity": 0.26,
      "hand": "right"
    },
    {
      "midi": 88,
      "time": 144.583,
      "duration": 0.208,
      "velocity": 0.26,
      "hand": "right"
    },
    {
      "midi": 75,
      "time": 144.792,
      "duration": 0.208,
      "velocity": 0.26,
      "hand": "right"
    },
    {
      "midi": 76,
      "time": 145,
      "duration": 0.208,
      "velocity": 0.26,
      "hand": "right"
    },
    {
      "midi": 75,
      "time": 145.208,
      "duration": 0.208,
      "velocity": 0.26,
      "hand": "right"
    },
    {
      "midi": 76,
      "time": 145.417,
      "duration": 0.417,
      "velocity": 0.26,
      "hand": "right"
    },
    {
      "midi": 75,
      "time": 145.625,
      "duration": 0.208,
      "velocity": 0.26,
      "hand": "right"
    },
    {
      "midi": 76,
      "time": 145.833,
      "duration": 0.208,
      "velocity": 0.26,
      "hand": "right"
    },
    {
      "midi": 75,
      "time": 146.042,
      "duration": 0.208,
      "velocity": 0.26,
      "hand": "right"
    },
    {
      "midi": 76,
      "time": 146.25,
      "duration": 0.208,
      "velocity": 0.26,
      "hand": "right"
    },
    {
      "midi": 75,
      "time": 146.458,
      "duration": 0.208,
      "velocity": 0.26,
      "hand": "right"
    },
    {
      "midi": 76,
      "time": 146.667,
      "duration": 0.208,
      "velocity": 0.26,
      "hand": "right"
    },
    {
      "midi": 75,
      "time": 146.875,
      "duration": 0.208,
      "velocity": 0.26,
      "hand": "right"
    },
    {
      "midi": 76,
      "time": 147.083,
      "duration": 0.208,
      "velocity": 0.26,
      "hand": "right"
    },
    {
      "midi": 71,
      "time": 147.292,
      "duration": 0.208,
      "velocity": 0.26,
      "hand": "right"
    },
    {
      "midi": 74,
      "time": 147.5,
      "duration": 0.208,
      "velocity": 0.26,
      "hand": "right"
    },
    {
      "midi": 72,
      "time": 147.708,
      "duration": 0.208,
      "velocity": 0.26,
      "hand": "right"
    },
    {
      "midi": 45,
      "time": 147.917,
      "duration": 0.208,
      "velocity": 0.26,
      "hand": "left"
    },
    {
      "midi": 69,
      "time": 147.917,
      "duration": 0.417,
      "velocity": 0.26,
      "hand": "right"
    },
    {
      "midi": 52,
      "time": 148.125,
      "duration": 0.208,
      "velocity": 0.26,
      "hand": "left"
    },
    {
      "midi": 57,
      "time": 148.333,
      "duration": 0.208,
      "velocity": 0.26,
      "hand": "left"
    },
    {
      "midi": 60,
      "time": 148.542,
      "duration": 0.208,
      "velocity": 0.26,
      "hand": "right"
    },
    {
      "midi": 64,
      "time": 148.75,
      "duration": 0.208,
      "velocity": 0.26,
      "hand": "right"
    },
    {
      "midi": 69,
      "time": 148.958,
      "duration": 0.208,
      "velocity": 0.26,
      "hand": "right"
    },
    {
      "midi": 40,
      "time": 149.167,
      "duration": 0.208,
      "velocity": 0.26,
      "hand": "left"
    },
    {
      "midi": 71,
      "time": 149.167,
      "duration": 0.417,
      "velocity": 0.26,
      "hand": "right"
    },
    {
      "midi": 52,
      "time": 149.375,
      "duration": 0.208,
      "velocity": 0.26,
      "hand": "left"
    },
    {
      "midi": 56,
      "time": 149.583,
      "duration": 0.208,
      "velocity": 0.26,
      "hand": "left"
    },
    {
      "midi": 64,
      "time": 149.792,
      "duration": 0.208,
      "velocity": 0.26,
      "hand": "right"
    },
    {
      "midi": 68,
      "time": 150,
      "duration": 0.208,
      "velocity": 0.26,
      "hand": "right"
    },
    {
      "midi": 71,
      "time": 150.208,
      "duration": 0.208,
      "velocity": 0.26,
      "hand": "right"
    },
    {
      "midi": 45,
      "time": 150.417,
      "duration": 0.208,
      "velocity": 0.26,
      "hand": "left"
    },
    {
      "midi": 72,
      "time": 150.417,
      "duration": 0.417,
      "velocity": 0.26,
      "hand": "right"
    },
    {
      "midi": 52,
      "time": 150.625,
      "duration": 0.208,
      "velocity": 0.26,
      "hand": "left"
    },
    {
      "midi": 57,
      "time": 150.833,
      "duration": 0.208,
      "velocity": 0.26,
      "hand": "left"
    },
    {
      "midi": 64,
      "time": 151.042,
      "duration": 0.208,
      "velocity": 0.26,
      "hand": "right"
    },
    {
      "midi": 76,
      "time": 151.25,
      "duration": 0.208,
      "velocity": 0.26,
      "hand": "right"
    },
    {
      "midi": 75,
      "time": 151.458,
      "duration": 0.208,
      "velocity": 0.26,
      "hand": "right"
    },
    {
      "midi": 76,
      "time": 151.667,
      "duration": 0.208,
      "velocity": 0.26,
      "hand": "right"
    },
    {
      "midi": 75,
      "time": 151.875,
      "duration": 0.208,
      "velocity": 0.26,
      "hand": "right"
    },
    {
      "midi": 76,
      "time": 152.083,
      "duration": 0.208,
      "velocity": 0.26,
      "hand": "right"
    },
    {
      "midi": 71,
      "time": 152.292,
      "duration": 0.208,
      "velocity": 0.26,
      "hand": "right"
    },
    {
      "midi": 74,
      "time": 152.5,
      "duration": 0.208,
      "velocity": 0.26,
      "hand": "right"
    },
    {
      "midi": 72,
      "time": 152.708,
      "duration": 0.208,
      "velocity": 0.26,
      "hand": "right"
    },
    {
      "midi": 45,
      "time": 152.917,
      "duration": 0.208,
      "velocity": 0.26,
      "hand": "left"
    },
    {
      "midi": 69,
      "time": 152.917,
      "duration": 0.417,
      "velocity": 0.26,
      "hand": "right"
    },
    {
      "midi": 52,
      "time": 153.125,
      "duration": 0.208,
      "velocity": 0.26,
      "hand": "left"
    },
    {
      "midi": 57,
      "time": 153.333,
      "duration": 0.208,
      "velocity": 0.26,
      "hand": "left"
    },
    {
      "midi": 60,
      "time": 153.542,
      "duration": 0.208,
      "velocity": 0.26,
      "hand": "right"
    },
    {
      "midi": 64,
      "time": 153.75,
      "duration": 0.208,
      "velocity": 0.26,
      "hand": "right"
    },
    {
      "midi": 69,
      "time": 153.958,
      "duration": 0.208,
      "velocity": 0.26,
      "hand": "right"
    },
    {
      "midi": 40,
      "time": 154.167,
      "duration": 0.208,
      "velocity": 0.26,
      "hand": "left"
    },
    {
      "midi": 71,
      "time": 154.167,
      "duration": 0.417,
      "velocity": 0.26,
      "hand": "right"
    },
    {
      "midi": 52,
      "time": 154.375,
      "duration": 0.208,
      "velocity": 0.26,
      "hand": "left"
    },
    {
      "midi": 56,
      "time": 154.583,
      "duration": 0.208,
      "velocity": 0.26,
      "hand": "left"
    },
    {
      "midi": 62,
      "time": 154.792,
      "duration": 0.208,
      "velocity": 0.26,
      "hand": "right"
    },
    {
      "midi": 72,
      "time": 155,
      "duration": 0.208,
      "velocity": 0.26,
      "hand": "right"
    },
    {
      "midi": 71,
      "time": 155.208,
      "duration": 0.208,
      "velocity": 0.26,
      "hand": "right"
    },
    {
      "midi": 33,
      "time": 155.625,
      "duration": 0.625,
      "velocity": 0.26,
      "hand": "left"
    },
    {
      "midi": 45,
      "time": 155.625,
      "duration": 0.625,
      "velocity": 0.26,
      "hand": "left"
    },
    {
      "midi": 69,
      "time": 155.625,
      "duration": 0.625,
      "velocity": 0.26,
      "hand": "right"
    }
  ]
}
