{
  "id": "fur-elise-easy-ver",
  "title": "Fur Elise Easy Ver",
  "artist": "MIDI Source",
  "difficulty": "Médio",
  "bpm": 120,
  "duration": 33,
  "category": "A revisar",
  "isPremium": true,
  "coverUrl": "/images/covers/placeholder.png",
  "notes": [
    {
      "midi": 76,
      "time": 1,
      "duration": 0.25,
      "velocity": 0.5,
      "hand": "right"
    },
    {
      "midi": 75,
      "time": 1.25,
      "duration": 0.25,
      "velocity": 0.5,
      "hand": "right"
    },
    {
      "midi": 76,
      "time": 1.5,
      "duration": 0.25,
      "velocity": 0.5,
      "hand": "right"
    },
    {
      "midi": 75,
      "time": 1.75,
      "duration": 0.25,
      "velocity": 0.5,
      "hand": "right"
    },
    {
      "midi": 76,
      "time": 2,
      "duration": 0.25,
      "velocity": 0.5,
      "hand": "right"
    },
    {
      "midi": 71,
      "time": 2.25,
      "duration": 0.25,
      "velocity": 0.5,
      "hand": "right"
    },
    {
      "midi": 74,
      "time": 2.5,
      "duration": 0.25,
      "velocity": 0.5,
      "hand": "right"
    },
    {
      "midi": 72,
      "time": 2.75,
      "duration": 0.25,
      "velocity": 0.5,
      "hand": "right"
    },
    {
      "midi": 57,
      "time": 3,
      "duration": 1,
      "velocity": 0.5,
      "hand": "left"
    },
    {
      "midi": 69,
      "time": 3,
      "duration": 0.5,
      "velocity": 0.5,
      "hand": "right"
    },
    {
      "midi": 60,
      "time": 3.75,
      "duration": 0.25,
      "velocity": 0.5,
      "hand": "right"
    },
    {
      "midi": 64,
      "time": 4,
      "duration": 0.25,
      "velocity": 0.5,
      "hand": "right"
    },
    {
      "midi": 69,
      "time": 4.25,
      "duration": 0.25,
      "velocity": 0.5,
      "hand": "right"
    },
    {
      "midi": 52,
      "time": 4.5,
      "duration": 1,
      "velocity": 0.5,
      "hand": "left"
    },
    {
      "midi": 71,
      "time": 4.5,
      "duration": 0.5,
      "velocity": 0.5,
      "hand": "right"
    },
    {
      "midi": 64,
      "time": 5.25,
      "duration": 0.25,
      "velocity": 0.5,
      "hand": "right"
    },
    {
      "midi": 68,
      "time": 5.5,
      "duration": 0.25,
      "velocity": 0.5,
      "hand": "right"
    },
    {
      "midi": 71,
      "time": 5.75,
      "duration": 0.25,
      "velocity": 0.5,
      "hand": "right"
    },
    {
      "midi": 57,
      "time": 6,
      "duration": 1,
      "velocity": 0.5,
      "hand": "left"
    },
    {
      "midi": 72,
      "time": 6,
      "duration": 0.5,
      "velocity": 0.5,
      "hand": "right"
    },
    {
      "midi": 64,
      "time": 6.75,
      "duration": 0.25,
      "velocity": 0.5,
      "hand": "right"
    },
    {
      "midi": 76,
      "time": 7,
      "duration": 0.25,
      "velocity": 0.5,
      "hand": "right"
    },
    {
      "midi": 75,
      "time": 7.25,
      "duration": 0.25,
      "velocity": 0.5,
      "hand": "right"
    },
    {
      "midi": 76,
      "time": 7.5,
      "duration": 0.25,
      "velocity": 0.5,
      "hand": "right"
    },
    {
      "midi": 75,
      "time": 7.75,
      "duration": 0.25,
      "velocity": 0.5,
      "hand": "right"
    },
    {
      "midi": 76,
      "time": 8,
      "duration": 0.25,
      "velocity": 0.5,
      "hand": "right"
    },
    {
      "midi": 71,
      "time": 8.25,
      "duration": 0.25,
      "velocity": 0.5,
      "hand": "right"
    },
    {
      "midi": 74,
      "time": 8.5,
      "duration": 0.25,
      "velocity": 0.5,
      "hand": "right"
    },
    {
      "midi": 72,
      "time": 8.75,
      "duration": 0.25,
      "velocity": 0.5,
      "hand": "right"
    },
    {
      "midi": 57,
      "time": 9,
      "duration": 1,
      "velocity": 0.5,
      "hand": "left"
    },
    {
      "midi": 69,
      "time": 9,
      "duration": 0.5,
      "velocity": 0.5,
      "hand": "right"
    },
    {
      "midi": 60,
      "time": 9.75,
      "duration": 0.25,
      "velocity": 0.5,
      "hand": "right"
    },
    {
      "midi": 64,
      "time": 10,
      "duration": 0.25,
      "velocity": 0.5,
      "hand": "right"
    },
    {
      "midi": 69,
      "time": 10.25,
      "duration": 0.25,
      "velocity": 0.5,
      "hand": "right"
    },
    {
      "midi": 52,
      "time": 10.5,
      "duration": 1,
      "velocity": 0.5,
      "hand": "left"
    },
    {
      "midi": 71,
      "time": 10.5,
      "duration": 0.5,
      "velocity": 0.5,
      "hand": "right"
    },
    {
      "midi": 64,
      "time": 11.25,
      "duration": 0.25,
      "velocity": 0.5,
      "hand": "right"
    },
    {
      "midi": 72,
      "time": 11.5,
      "duration": 0.25,
      "velocity": 0.5,
      "hand": "right"
    },
    {
      "midi": 71,
      "time": 11.75,
      "duration": 0.25,
      "velocity": 0.5,
      "hand": "right"
    },
    {
      "midi": 57,
      "time": 12,
      "duration": 1,
      "velocity": 0.5,
      "hand": "left"
    },
    {
      "midi": 69,
      "time": 12,
      "duration": 0.5,
      "velocity": 0.5,
      "hand": "right"
    },
    {
      "midi": 71,
      "time": 12.75,
      "duration": 0.25,
      "velocity": 0.5,
      "hand": "right"
    },
    {
      "midi": 72,
      "time": 13,
      "duration": 0.25,
      "velocity": 0.54,
      "hand": "right"
    },
    {
      "midi": 74,
      "time": 13.25,
      "duration": 0.25,
      "velocity": 0.58,
      "hand": "right"
    },
    {
      "midi": 60,
      "time": 13.5,
      "duration": 1,
      "velocity": 0.63,
      "hand": "right"
    },
    {
      "midi": 76,
      "time": 13.5,
      "duration": 0.5,
      "velocity": 0.63,
      "hand": "right"
    },
    {
      "midi": 67,
      "time": 14.25,
      "duration": 0.25,
      "velocity": 0.63,
      "hand": "right"
    },
    {
      "midi": 77,
      "time": 14.5,
      "duration": 0.25,
      "velocity": 0.63,
      "hand": "right"
    },
    {
      "midi": 76,
      "time": 14.75,
      "duration": 0.25,
      "velocity": 0.63,
      "hand": "right"
    },
    {
      "midi": 59,
      "time": 15,
      "duration": 1,
      "velocity": 0.63,
      "hand": "left"
    },
    {
      "midi": 74,
      "time": 15,
      "duration": 0.5,
      "velocity": 0.63,
      "hand": "right"
    },
    {
      "midi": 65,
      "time": 15.75,
      "duration": 0.25,
      "velocity": 0.63,
      "hand": "right"
    },
    {
      "midi": 76,
      "time": 16,
      "duration": 0.25,
      "velocity": 0.63,
      "hand": "right"
    },
    {
      "midi": 74,
      "time": 16.25,
      "duration": 0.25,
      "velocity": 0.63,
      "hand": "right"
    },
    {
      "midi": 57,
      "time": 16.5,
      "duration": 1,
      "velocity": 0.63,
      "hand": "left"
    },
    {
      "midi": 72,
      "time": 16.5,
      "duration": 0.5,
      "velocity": 0.63,
      "hand": "right"
    },
    {
      "midi": 64,
      "time": 17.25,
      "duration": 0.25,
      "velocity": 0.63,
      "hand": "right"
    },
    {
      "midi": 74,
      "time": 17.5,
      "duration": 0.25,
      "velocity": 0.59,
      "hand": "right"
    },
    {
      "midi": 72,
      "time": 17.75,
      "duration": 0.25,
      "velocity": 0.55,
      "hand": "right"
    },
    {
      "midi": 56,
      "time": 18,
      "duration": 1.375,
      "velocity": 0.39,
      "hand": "left"
    },
    {
      "midi": 71,
      "time": 18,
      "duration": 1.375,
      "velocity": 0.39,
      "hand": "right"
    },
    {
      "midi": 76,
      "time": 20.5,
      "duration": 0.25,
      "velocity": 0.5,
      "hand": "right"
    },
    {
      "midi": 75,
      "time": 20.75,
      "duration": 0.25,
      "velocity": 0.5,
      "hand": "right"
    },
    {
      "midi": 76,
      "time": 21,
      "duration": 0.25,
      "velocity": 0.5,
      "hand": "right"
    },
    {
      "midi": 75,
      "time": 21.25,
      "duration": 0.25,
      "velocity": 0.5,
      "hand": "right"
    },
    {
      "midi": 76,
      "time": 21.5,
      "duration": 0.25,
      "velocity": 0.5,
      "hand": "right"
    },
    {
      "midi": 71,
      "time": 21.75,
      "duration": 0.25,
      "velocity": 0.5,
      "hand": "right"
    },
    {
      "midi": 74,
      "time": 22,
      "duration": 0.25,
      "velocity": 0.5,
      "hand": "right"
    },
    {
      "midi": 72,
      "time": 22.25,
      "duration": 0.25,
      "velocity": 0.5,
      "hand": "right"
    },
    {
      "midi": 57,
      "time": 22.5,
      "duration": 1,
      "velocity": 0.5,
      "hand": "left"
    },
    {
      "midi": 69,
      "time": 22.5,
      "duration": 0.5,
      "velocity": 0.5,
      "hand": "right"
    },
    {
      "midi": 60,
      "time": 23.25,
      "duration": 0.25,
      "velocity": 0.5,
      "hand": "right"
    },
    {
      "midi": 64,
      "time": 23.5,
      "duration": 0.25,
      "velocity": 0.54,
      "hand": "right"
    },
    {
      "midi": 69,
      "time": 23.75,
      "duration": 0.25,
      "velocity": 0.58,
      "hand": "right"
    },
    {
      "midi": 52,
      "time": 24,
      "duration": 1,
      "velocity": 0.63,
      "hand": "left"
    },
    {
      "midi": 71,
      "time": 24,
      "duration": 0.5,
      "velocity": 0.63,
      "hand": "right"
    },
    {
      "midi": 64,
      "time": 24.75,
      "duration": 0.25,
      "velocity": 0.63,
      "hand": "right"
    },
    {
      "midi": 68,
      "time": 25,
      "duration": 0.25,
      "velocity": 0.63,
      "hand": "right"
    },
    {
      "midi": 71,
      "time": 25.25,
      "duration": 0.25,
      "velocity": 0.63,
      "hand": "right"
    },
    {
      "midi": 57,
      "time": 25.5,
      "duration": 1,
      "velocity": 0.63,
      "hand": "left"
    },
    {
      "midi": 72,
      "time": 25.5,
      "duration": 0.5,
      "velocity": 0.63,
      "hand": "right"
    },
    {
      "midi": 64,
      "time": 26.25,
      "duration": 0.25,
      "velocity": 0.63,
      "hand": "right"
    },
    {
      "midi": 76,
      "time": 26.5,
      "duration": 0.25,
      "velocity": 0.63,
      "hand": "right"
    },
    {
      "midi": 75,
      "time": 26.75,
      "duration": 0.25,
      "velocity": 0.63,
      "hand": "right"
    },
    {
      "midi": 76,
      "time": 27,
      "duration": 0.25,
      "velocity": 0.63,
      "hand": "right"
    },
    {
      "midi": 75,
      "time": 27.25,
      "duration": 0.25,
      "velocity": 0.63,
      "hand": "right"
    },
    {
      "midi": 76,
      "time": 27.5,
      "duration": 0.25,
      "velocity": 0.63,
      "hand": "right"
    },
    {
      "midi": 71,
      "time": 27.75,
      "duration": 0.25,
      "velocity": 0.63,
      "hand": "right"
    },
    {
      "midi": 74,
      "time": 28,
      "duration": 0.25,
      "velocity": 0.63,
      "hand": "right"
    },
    {
      "midi": 72,
      "time": 28.25,
      "duration": 0.25,
      "velocity": 0.63,
      "hand": "right"
    },
    {
      "midi": 57,
      "time": 28.5,
      "duration": 1,
      "velocity": 0.63,
      "hand": "left"
    },
    {
      "midi": 69,
      "time": 28.5,
      "duration": 0.5,
      "velocity": 0.63,
      "hand": "right"
    },
    {
      "midi": 60,
      "time": 29.25,
      "duration": 0.25,
      "velocity": 0.63,
      "hand": "right"
    },
    {
      "midi": 64,
      "time": 29.5,
      "duration": 0.25,
      "velocity": 0.63,
      "hand": "right"
    },
    {
      "midi": 69,
      "time": 29.75,
      "duration": 0.25,
      "velocity": 0.63,
      "hand": "right"
    },
    {
      "midi": 52,
      "time": 30,
      "duration": 1,
      "velocity": 0.63,
      "hand": "left"
    },
    {
      "midi": 71,
      "time": 30,
      "duration": 0.5,
      "velocity": 0.63,
      "hand": "right"
    },
    {
      "midi": 64,
      "time": 30.75,
      "duration": 0.25,
      "velocity": 0.63,
      "hand": "right"
    },
    {
      "midi": 72,
      "time": 31,
      "duration": 0.25,
      "velocity": 0.59,
      "hand": "right"
    },
    {
      "midi": 71,
      "time": 31.25,
      "duration": 0.25,
      "velocity": 0.55,
      "hand": "right"
    },
    {
      "midi": 57,
      "time": 31.5,
      "duration": 1,
      "velocity": 0.5,
      "hand": "left"
    },
    {
      "midi": 64,
      "time": 31.5,
      "duration": 1,
      "velocity": 0.5,
      "hand": "right"
    },
    {
      "midi": 69,
      "time": 31.5,
      "duration": 1.375,
      "velocity": 0.5,
      "hand": "right"
    },
    {
      "midi": 33,
      "time": 32.5,
      "duration": 0.25,
      "velocity": 0.5,
      "hand": "left"
    }
  ],
  "arrangements": {
    "easy": [
      {
        "midi": 76,
        "time": 1,
        "duration": 0.25,
        "velocity": 0.5,
        "hand": "right"
      },
      {
        "midi": 75,
        "time": 1.25,
        "duration": 0.25,
        "velocity": 0.5,
        "hand": "right"
      },
      {
        "midi": 76,
        "time": 1.5,
        "duration": 0.25,
        "velocity": 0.5,
        "hand": "right"
      },
      {
        "midi": 75,
        "time": 1.75,
        "duration": 0.25,
        "velocity": 0.5,
        "hand": "right"
      },
      {
        "midi": 76,
        "time": 2,
        "duration": 0.25,
        "velocity": 0.5,
        "hand": "right"
      },
      {
        "midi": 71,
        "time": 2.25,
        "duration": 0.25,
        "velocity": 0.5,
        "hand": "right"
      },
      {
        "midi": 74,
        "time": 2.5,
        "duration": 0.25,
        "velocity": 0.5,
        "hand": "right"
      },
      {
        "midi": 72,
        "time": 2.75,
        "duration": 0.25,
        "velocity": 0.5,
        "hand": "right"
      },
      {
        "midi": 69,
        "time": 3,
        "duration": 0.5,
        "velocity": 0.5,
        "hand": "right"
      },
      {
        "midi": 60,
        "time": 3.75,
        "duration": 0.25,
        "velocity": 0.5,
        "hand": "right"
      },
      {
        "midi": 64,
        "time": 4,
        "duration": 0.25,
        "velocity": 0.5,
        "hand": "right"
      },
      {
        "midi": 69,
        "time": 4.25,
        "duration": 0.25,
        "velocity": 0.5,
        "hand": "right"
      },
      {
        "midi": 71,
        "time": 4.5,
        "duration": 0.5,
        "velocity": 0.5,
        "hand": "right"
      },
      {
        "midi": 64,
        "time": 5.25,
        "duration": 0.25,
        "velocity": 0.5,
        "hand": "right"
      },
      {
        "midi": 68,
        "time": 5.5,
        "duration": 0.25,
        "velocity": 0.5,
        "hand": "right"
      },
      {
        "midi": 71,
        "time": 5.75,
        "duration": 0.25,
        "velocity": 0.5,
        "hand": "right"
      },
      {
        "midi": 72,
        "time": 6,
        "duration": 0.5,
        "velocity": 0.5,
        "hand": "right"
      },
      {
        "midi": 64,
        "time": 6.75,
        "duration": 0.25,
        "velocity": 0.5,
        "hand": "right"
      },
      {
        "midi": 76,
        "time": 7,
        "duration": 0.25,
        "velocity": 0.5,
        "hand": "right"
      },
      {
        "midi": 75,
        "time": 7.25,
        "duration": 0.25,
        "velocity": 0.5,
        "hand": "right"
      },
      {
        "midi": 76,
        "time": 7.5,
        "duration": 0.25,
        "velocity": 0.5,
        "hand": "right"
      },
      {
        "midi": 75,
        "time": 7.75,
        "duration": 0.25,
        "velocity": 0.5,
        "hand": "right"
      },
      {
        "midi": 76,
        "time": 8,
        "duration": 0.25,
        "velocity": 0.5,
        "hand": "right"
      },
      {
        "midi": 71,
        "time": 8.25,
        "duration": 0.25,
        "velocity": 0.5,
        "hand": "right"
      },
      {
        "midi": 74,
        "time": 8.5,
        "duration": 0.25,
        "velocity": 0.5,
        "hand": "right"
      },
      {
        "midi": 72,
        "time": 8.75,
        "duration": 0.25,
        "velocity": 0.5,
        "hand": "right"
      },
      {
        "midi": 69,
        "time": 9,
        "duration": 0.5,
        "velocity": 0.5,
        "hand": "right"
      },
      {
        "midi": 60,
        "time": 9.75,
        "duration": 0.25,
        "velocity": 0.5,
        "hand": "right"
      },
      {
        "midi": 64,
        "time": 10,
        "duration": 0.25,
        "velocity": 0.5,
        "hand": "right"
      },
      {
        "midi": 69,
        "time": 10.25,
        "duration": 0.25,
        "velocity": 0.5,
        "hand": "right"
      },
      {
        "midi": 71,
        "time": 10.5,
        "duration": 0.5,
        "velocity": 0.5,
        "hand": "right"
      },
      {
        "midi": 64,
        "time": 11.25,
        "duration": 0.25,
        "velocity": 0.5,
        "hand": "right"
      },
      {
        "midi": 72,
        "time": 11.5,
        "duration": 0.25,
        "velocity": 0.5,
        "hand": "right"
      },
      {
        "midi": 71,
        "time": 11.75,
        "duration": 0.25,
        "velocity": 0.5,
        "hand": "right"
      },
      {
        "midi": 69,
        "time": 12,
        "duration": 0.5,
        "velocity": 0.5,
        "hand": "right"
      },
      {
        "midi": 71,
        "time": 12.75,
        "duration": 0.25,
        "velocity": 0.5,
        "hand": "right"
      },
      {
        "midi": 72,
        "time": 13,
        "duration": 0.25,
        "velocity": 0.54,
        "hand": "right"
      },
      {
        "midi": 74,
        "time": 13.25,
        "duration": 0.25,
        "velocity": 0.58,
        "hand": "right"
      },
      {
        "midi": 76,
        "time": 13.5,
        "duration": 0.5,
        "velocity": 0.63,
        "hand": "right"
      },
      {
        "midi": 67,
        "time": 14.25,
        "duration": 0.25,
        "velocity": 0.63,
        "hand": "right"
      },
      {
        "midi": 77,
        "time": 14.5,
        "duration": 0.25,
        "velocity": 0.63,
        "hand": "right"
      },
      {
        "midi": 76,
        "time": 14.75,
        "duration": 0.25,
        "velocity": 0.63,
        "hand": "right"
      },
      {
        "midi": 74,
        "time": 15,
        "duration": 0.5,
        "velocity": 0.63,
        "hand": "right"
      },
      {
        "midi": 65,
        "time": 15.75,
        "duration": 0.25,
        "velocity": 0.63,
        "hand": "right"
      },
      {
        "midi": 76,
        "time": 16,
        "duration": 0.25,
        "velocity": 0.63,
        "hand": "right"
      },
      {
        "midi": 74,
        "time": 16.25,
        "duration": 0.25,
        "velocity": 0.63,
        "hand": "right"
      },
      {
        "midi": 72,
        "time": 16.5,
        "duration": 0.5,
        "velocity": 0.63,
        "hand": "right"
      },
      {
        "midi": 64,
        "time": 17.25,
        "duration": 0.25,
        "velocity": 0.63,
        "hand": "right"
      },
      {
        "midi": 74,
        "time": 17.5,
        "duration": 0.25,
        "velocity": 0.59,
        "hand": "right"
      },
      {
        "midi": 72,
        "time": 17.75,
        "duration": 0.25,
        "velocity": 0.55,
        "hand": "right"
      },
      {
        "midi": 71,
        "time": 18,
        "duration": 1.375,
        "velocity": 0.39,
        "hand": "right"
      },
      {
        "midi": 76,
        "time": 20.5,
        "duration": 0.25,
        "velocity": 0.5,
        "hand": "right"
      },
      {
        "midi": 75,
        "time": 20.75,
        "duration": 0.25,
        "velocity": 0.5,
        "hand": "right"
      },
      {
        "midi": 76,
        "time": 21,
        "duration": 0.25,
        "velocity": 0.5,
        "hand": "right"
      },
      {
        "midi": 75,
        "time": 21.25,
        "duration": 0.25,
        "velocity": 0.5,
        "hand": "right"
      },
      {
        "midi": 76,
        "time": 21.5,
        "duration": 0.25,
        "velocity": 0.5,
        "hand": "right"
      },
      {
        "midi": 71,
        "time": 21.75,
        "duration": 0.25,
        "velocity": 0.5,
        "hand": "right"
      },
      {
        "midi": 74,
        "time": 22,
        "duration": 0.25,
        "velocity": 0.5,
        "hand": "right"
      },
      {
        "midi": 72,
        "time": 22.25,
        "duration": 0.25,
        "velocity": 0.5,
        "hand": "right"
      },
      {
        "midi": 69,
        "time": 22.5,
        "duration": 0.5,
        "velocity": 0.5,
        "hand": "right"
      },
      {
        "midi": 60,
        "time": 23.25,
        "duration": 0.25,
        "velocity": 0.5,
        "hand": "right"
      },
      {
        "midi": 64,
        "time": 23.5,
        "duration": 0.25,
        "velocity": 0.54,
        "hand": "right"
      },
      {
        "midi": 69,
        "time": 23.75,
        "duration": 0.25,
        "velocity": 0.58,
        "hand": "right"
      },
      {
        "midi": 71,
        "time": 24,
        "duration": 0.5,
        "velocity": 0.63,
        "hand": "right"
      },
      {
        "midi": 64,
        "time": 24.75,
        "duration": 0.25,
        "velocity": 0.63,
        "hand": "right"
      },
      {
        "midi": 68,
        "time": 25,
        "duration": 0.25,
        "velocity": 0.63,
        "hand": "right"
      },
      {
        "midi": 71,
        "time": 25.25,
        "duration": 0.25,
        "velocity": 0.63,
        "hand": "right"
      },
      {
        "midi": 72,
        "time": 25.5,
        "duration": 0.5,
        "velocity": 0.63,
        "hand": "right"
      },
      {
        "midi": 64,
        "time": 26.25,
        "duration": 0.25,
        "velocity": 0.63,
        "hand": "right"
      },
      {
        "midi": 76,
        "time": 26.5,
        "duration": 0.25,
        "velocity": 0.63,
        "hand": "right"
      },
      {
        "midi": 75,
        "time": 26.75,
        "duration": 0.25,
        "velocity": 0.63,
        "hand": "right"
      },
      {
        "midi": 76,
        "time": 27,
        "duration": 0.25,
        "velocity": 0.63,
        "hand": "right"
      },
      {
        "midi": 75,
        "time": 27.25,
        "duration": 0.25,
        "velocity": 0.63,
        "hand": "right"
      },
      {
        "midi": 76,
        "time": 27.5,
        "duration": 0.25,
        "velocity": 0.63,
        "hand": "right"
      },
      {
        "midi": 71,
        "time": 27.75,
        "duration": 0.25,
        "velocity": 0.63,
        "hand": "right"
      },
      {
        "midi": 74,
        "time": 28,
        "duration": 0.25,
        "velocity": 0.63,
        "hand": "right"
      },
      {
        "midi": 72,
        "time": 28.25,
        "duration": 0.25,
        "velocity": 0.63,
        "hand": "right"
      },
      {
        "midi": 69,
        "time": 28.5,
        "duration": 0.5,
        "velocity": 0.63,
        "hand": "right"
      },
      {
        "midi": 60,
        "time": 29.25,
        "duration": 0.25,
        "velocity": 0.63,
        "hand": "right"
      },
      {
        "midi": 64,
        "time": 29.5,
        "duration": 0.25,
        "velocity": 0.63,
        "hand": "right"
      },
      {
        "midi": 69,
        "time": 29.75,
        "duration": 0.25,
        "velocity": 0.63,
        "hand": "right"
      },
      {
        "midi": 71,
        "time": 30,
        "duration": 0.5,
        "velocity": 0.63,
        "hand": "right"
      },
      {
        "midi": 64,
        "time": 30.75,
        "duration": 0.25,
        "velocity": 0.63,
        "hand": "right"
      },
      {
        "midi": 72,
        "time": 31,
        "duration": 0.25,
        "velocity": 0.59,
        "hand": "right"
      },
      {
        "midi": 71,
        "time": 31.25,
        "duration": 0.25,
        "velocity": 0.55,
        "hand": "right"
      },
      {
        "midi": 69,
        "time": 31.5,
        "duration": 1.375,
        "velocity": 0.5,
        "hand": "right"
      },
      {
        "midi": 33,
        "time": 32.5,
        "duration": 0.25,
        "velocity": 0.5,
        "hand": "right"
      }
    ],
    "medium": [
      {
        "midi": 76,
        "time": 1,
        "duration": 0.25,
        "velocity": 0.5,
        "hand": "right"
      },
      {
        "midi": 75,
        "time": 1.25,
        "duration": 0.25,
        "velocity": 0.5,
        "hand": "right"
      },
      {
        "midi": 76,
        "time": 1.5,
        "duration": 0.25,
        "velocity": 0.5,
        "hand": "right"
      },
      {
        "midi": 75,
        "time": 1.75,
        "duration": 0.25,
        "velocity": 0.5,
        "hand": "right"
      },
      {
        "midi": 76,
        "time": 2,
        "duration": 0.25,
        "velocity": 0.5,
        "hand": "right"
      },
      {
        "midi": 71,
        "time": 2.25,
        "duration": 0.25,
        "velocity": 0.5,
        "hand": "right"
      },
      {
        "midi": 74,
        "time": 2.5,
        "duration": 0.25,
        "velocity": 0.5,
        "hand": "right"
      },
      {
        "midi": 72,
        "time": 2.75,
        "duration": 0.25,
        "velocity": 0.5,
        "hand": "right"
      },
      {
        "midi": 57,
        "time": 3,
        "duration": 1,
        "velocity": 0.5,
        "hand": "left"
      },
      {
        "midi": 69,
        "time": 3,
        "duration": 0.5,
        "velocity": 0.5,
        "hand": "right"
      },
      {
        "midi": 60,
        "time": 3.75,
        "duration": 0.25,
        "velocity": 0.5,
        "hand": "right"
      },
      {
        "midi": 64,
        "time": 4,
        "duration": 0.25,
        "velocity": 0.5,
        "hand": "right"
      },
      {
        "midi": 69,
        "time": 4.25,
        "duration": 0.25,
        "velocity": 0.5,
        "hand": "right"
      },
      {
        "midi": 52,
        "time": 4.5,
        "duration": 1,
        "velocity": 0.5,
        "hand": "left"
      },
      {
        "midi": 71,
        "time": 4.5,
        "duration": 0.5,
        "velocity": 0.5,
        "hand": "right"
      },
      {
        "midi": 64,
        "time": 5.25,
        "duration": 0.25,
        "velocity": 0.5,
        "hand": "right"
      },
      {
        "midi": 68,
        "time": 5.5,
        "duration": 0.25,
        "velocity": 0.5,
        "hand": "right"
      },
      {
        "midi": 71,
        "time": 5.75,
        "duration": 0.25,
        "velocity": 0.5,
        "hand": "right"
      },
      {
        "midi": 57,
        "time": 6,
        "duration": 1,
        "velocity": 0.5,
        "hand": "left"
      },
      {
        "midi": 72,
        "time": 6,
        "duration": 0.5,
        "velocity": 0.5,
        "hand": "right"
      },
      {
        "midi": 64,
        "time": 6.75,
        "duration": 0.25,
        "velocity": 0.5,
        "hand": "right"
      },
      {
        "midi": 76,
        "time": 7,
        "duration": 0.25,
        "velocity": 0.5,
        "hand": "right"
      },
      {
        "midi": 75,
        "time": 7.25,
        "duration": 0.25,
        "velocity": 0.5,
        "hand": "right"
      },
      {
        "midi": 76,
        "time": 7.5,
        "duration": 0.25,
        "velocity": 0.5,
        "hand": "right"
      },
      {
        "midi": 75,
        "time": 7.75,
        "duration": 0.25,
        "velocity": 0.5,
        "hand": "right"
      },
      {
        "midi": 76,
        "time": 8,
        "duration": 0.25,
        "velocity": 0.5,
        "hand": "right"
      },
      {
        "midi": 71,
        "time": 8.25,
        "duration": 0.25,
        "velocity": 0.5,
        "hand": "right"
      },
      {
        "midi": 74,
        "time": 8.5,
        "duration": 0.25,
        "velocity": 0.5,
        "hand": "right"
      },
      {
        "midi": 72,
        "time": 8.75,
        "duration": 0.25,
        "velocity": 0.5,
        "hand": "right"
      },
      {
        "midi": 57,
        "time": 9,
        "duration": 1,
        "velocity": 0.5,
        "hand": "left"
      },
      {
        "midi": 69,
        "time": 9,
        "duration": 0.5,
        "velocity": 0.5,
        "hand": "right"
      },
      {
        "midi": 60,
        "time": 9.75,
        "duration": 0.25,
        "velocity": 0.5,
        "hand": "right"
      },
      {
        "midi": 64,
        "time": 10,
        "duration": 0.25,
        "velocity": 0.5,
        "hand": "right"
      },
      {
        "midi": 69,
        "time": 10.25,
        "duration": 0.25,
        "velocity": 0.5,
        "hand": "right"
      },
      {
        "midi": 52,
        "time": 10.5,
        "duration": 1,
        "velocity": 0.5,
        "hand": "left"
      },
      {
        "midi": 71,
        "time": 10.5,
        "duration": 0.5,
        "velocity": 0.5,
        "hand": "right"
      },
      {
        "midi": 64,
        "time": 11.25,
        "duration": 0.25,
        "velocity": 0.5,
        "hand": "right"
      },
      {
        "midi": 72,
        "time": 11.5,
        "duration": 0.25,
        "velocity": 0.5,
        "hand": "right"
      },
      {
        "midi": 71,
        "time": 11.75,
        "duration": 0.25,
        "velocity": 0.5,
        "hand": "right"
      },
      {
        "midi": 57,
        "time": 12,
        "duration": 1,
        "velocity": 0.5,
        "hand": "left"
      },
      {
        "midi": 69,
        "time": 12,
        "duration": 0.5,
        "velocity": 0.5,
        "hand": "right"
      },
      {
        "midi": 71,
        "time": 12.75,
        "duration": 0.25,
        "velocity": 0.5,
        "hand": "right"
      },
      {
        "midi": 72,
        "time": 13,
        "duration": 0.25,
        "velocity": 0.54,
        "hand": "right"
      },
      {
        "midi": 74,
        "time": 13.25,
        "duration": 0.25,
        "velocity": 0.58,
        "hand": "right"
      },
      {
        "midi": 60,
        "time": 13.5,
        "duration": 1,
        "velocity": 0.63,
        "hand": "right"
      },
      {
        "midi": 76,
        "time": 13.5,
        "duration": 0.5,
        "velocity": 0.63,
        "hand": "right"
      },
      {
        "midi": 67,
        "time": 14.25,
        "duration": 0.25,
        "velocity": 0.63,
        "hand": "right"
      },
      {
        "midi": 77,
        "time": 14.5,
        "duration": 0.25,
        "velocity": 0.63,
        "hand": "right"
      },
      {
        "midi": 76,
        "time": 14.75,
        "duration": 0.25,
        "velocity": 0.63,
        "hand": "right"
      },
      {
        "midi": 59,
        "time": 15,
        "duration": 1,
        "velocity": 0.63,
        "hand": "left"
      },
      {
        "midi": 74,
        "time": 15,
        "duration": 0.5,
        "velocity": 0.63,
        "hand": "right"
      },
      {
        "midi": 65,
        "time": 15.75,
        "duration": 0.25,
        "velocity": 0.63,
        "hand": "right"
      },
      {
        "midi": 76,
        "time": 16,
        "duration": 0.25,
        "velocity": 0.63,
        "hand": "right"
      },
      {
        "midi": 74,
        "time": 16.25,
        "duration": 0.25,
        "velocity": 0.63,
        "hand": "right"
      },
      {
        "midi": 57,
        "time": 16.5,
        "duration": 1,
        "velocity": 0.63,
        "hand": "left"
      },
      {
        "midi": 72,
        "time": 16.5,
        "duration": 0.5,
        "velocity": 0.63,
        "hand": "right"
      },
      {
        "midi": 64,
        "time": 17.25,
        "duration": 0.25,
        "velocity": 0.63,
        "hand": "right"
      },
      {
        "midi": 74,
        "time": 17.5,
        "duration": 0.25,
        "velocity": 0.59,
        "hand": "right"
      },
      {
        "midi": 72,
        "time": 17.75,
        "duration": 0.25,
        "velocity": 0.55,
        "hand": "right"
      },
      {
        "midi": 56,
        "time": 18,
        "duration": 1.375,
        "velocity": 0.39,
        "hand": "left"
      },
      {
        "midi": 71,
        "time": 18,
        "duration": 1.375,
        "velocity": 0.39,
        "hand": "right"
      },
      {
        "midi": 76,
        "time": 20.5,
        "duration": 0.25,
        "velocity": 0.5,
        "hand": "right"
      },
      {
        "midi": 75,
        "time": 20.75,
        "duration": 0.25,
        "velocity": 0.5,
        "hand": "right"
      },
      {
        "midi": 76,
        "time": 21,
        "duration": 0.25,
        "velocity": 0.5,
        "hand": "right"
      },
      {
        "midi": 75,
        "time": 21.25,
        "duration": 0.25,
        "velocity": 0.5,
        "hand": "right"
      },
      {
        "midi": 76,
        "time": 21.5,
        "duration": 0.25,
        "velocity": 0.5,
        "hand": "right"
      },
      {
        "midi": 71,
        "time": 21.75,
        "duration": 0.25,
        "velocity": 0.5,
        "hand": "right"
      },
      {
        "midi": 74,
        "time": 22,
        "duration": 0.25,
        "velocity": 0.5,
        "hand": "right"
      },
      {
        "midi": 72,
        "time": 22.25,
        "duration": 0.25,
        "velocity": 0.5,
        "hand": "right"
      },
      {
        "midi": 57,
        "time": 22.5,
        "duration": 1,
        "velocity": 0.5,
        "hand": "left"
      },
      {
        "midi": 69,
        "time": 22.5,
        "duration": 0.5,
        "velocity": 0.5,
        "hand": "right"
      },
      {
        "midi": 60,
        "time": 23.25,
        "duration": 0.25,
        "velocity": 0.5,
        "hand": "right"
      },
      {
        "midi": 64,
        "time": 23.5,
        "duration": 0.25,
        "velocity": 0.54,
        "hand": "right"
      },
      {
        "midi": 69,
        "time": 23.75,
        "duration": 0.25,
        "velocity": 0.58,
        "hand": "right"
      },
      {
        "midi": 52,
        "time": 24,
        "duration": 1,
        "velocity": 0.63,
        "hand": "left"
      },
      {
        "midi": 71,
        "time": 24,
        "duration": 0.5,
        "velocity": 0.63,
        "hand": "right"
      },
      {
        "midi": 64,
        "time": 24.75,
        "duration": 0.25,
        "velocity": 0.63,
        "hand": "right"
      },
      {
        "midi": 68,
        "time": 25,
        "duration": 0.25,
        "velocity": 0.63,
        "hand": "right"
      },
      {
        "midi": 71,
        "time": 25.25,
        "duration": 0.25,
        "velocity": 0.63,
        "hand": "right"
      },
      {
        "midi": 57,
        "time": 25.5,
        "duration": 1,
        "velocity": 0.63,
        "hand": "left"
      },
      {
        "midi": 72,
        "time": 25.5,
        "duration": 0.5,
        "velocity": 0.63,
        "hand": "right"
      },
      {
        "midi": 64,
        "time": 26.25,
        "duration": 0.25,
        "velocity": 0.63,
        "hand": "right"
      },
      {
        "midi": 76,
        "time": 26.5,
        "duration": 0.25,
        "velocity": 0.63,
        "hand": "right"
      },
      {
        "midi": 75,
        "time": 26.75,
        "duration": 0.25,
        "velocity": 0.63,
        "hand": "right"
      },
      {
        "midi": 76,
        "time": 27,
        "duration": 0.25,
        "velocity": 0.63,
        "hand": "right"
      },
      {
        "midi": 75,
        "time": 27.25,
        "duration": 0.25,
        "velocity": 0.63,
        "hand": "right"
      },
      {
        "midi": 76,
        "time": 27.5,
        "duration": 0.25,
        "velocity": 0.63,
        "hand": "right"
      },
      {
        "midi": 71,
        "time": 27.75,
        "duration": 0.25,
        "velocity": 0.63,
        "hand": "right"
      },
      {
        "midi": 74,
        "time": 28,
        "duration": 0.25,
        "velocity": 0.63,
        "hand": "right"
      },
      {
        "midi": 72,
        "time": 28.25,
        "duration": 0.25,
        "velocity": 0.63,
        "hand": "right"
      },
      {
        "midi": 57,
        "time": 28.5,
        "duration": 1,
        "velocity": 0.63,
        "hand": "left"
      },
      {
        "midi": 69,
        "time": 28.5,
        "duration": 0.5,
        "velocity": 0.63,
        "hand": "right"
      },
      {
        "midi": 60,
        "time": 29.25,
        "duration": 0.25,
        "velocity": 0.63,
        "hand": "right"
      },
      {
        "midi": 64,
        "time": 29.5,
        "duration": 0.25,
        "velocity": 0.63,
        "hand": "right"
      },
      {
        "midi": 69,
        "time": 29.75,
        "duration": 0.25,
        "velocity": 0.63,
        "hand": "right"
      },
      {
        "midi": 52,
        "time": 30,
        "duration": 1,
        "velocity": 0.63,
        "hand": "left"
      },
      {
        "midi": 71,
        "time": 30,
        "duration": 0.5,
        "velocity": 0.63,
        "hand": "right"
      },
      {
        "midi": 64,
        "time": 30.75,
        "duration": 0.25,
        "velocity": 0.63,
        "hand": "right"
      },
      {
        "midi": 72,
        "time": 31,
        "duration": 0.25,
        "velocity": 0.59,
        "hand": "right"
      },
      {
        "midi": 71,
        "time": 31.25,
        "duration": 0.25,
        "velocity": 0.55,
        "hand": "right"
      },
      {
        "midi": 57,
        "time": 31.5,
        "duration": 1,
        "velocity": 0.5,
        "hand": "left"
      },
      {
        "midi": 64,
        "time": 31.5,
        "duration": 1,
        "velocity": 0.5,
        "hand": "right"
      },
      {
        "midi": 69,
        "time": 31.5,
        "duration": 1.375,
        "velocity": 0.5,
        "hand": "right"
      },
      {
        "midi": 33,
        "time": 32.5,
        "duration": 0.25,
        "velocity": 0.5,
        "hand": "left"
      }
    ],
    "hard": [
      {
        "midi": 76,
        "time": 1,
        "duration": 0.25,
        "velocity": 0.5,
        "hand": "right"
      },
      {
        "midi": 75,
        "time": 1.25,
        "duration": 0.25,
        "velocity": 0.5,
        "hand": "right"
      },
      {
        "midi": 76,
        "time": 1.5,
        "duration": 0.25,
        "velocity": 0.5,
        "hand": "right"
      },
      {
        "midi": 75,
        "time": 1.75,
        "duration": 0.25,
        "velocity": 0.5,
        "hand": "right"
      },
      {
        "midi": 76,
        "time": 2,
        "duration": 0.25,
        "velocity": 0.5,
        "hand": "right"
      },
      {
        "midi": 71,
        "time": 2.25,
        "duration": 0.25,
        "velocity": 0.5,
        "hand": "right"
      },
      {
        "midi": 74,
        "time": 2.5,
        "duration": 0.25,
        "velocity": 0.5,
        "hand": "right"
      },
      {
        "midi": 72,
        "time": 2.75,
        "duration": 0.25,
        "velocity": 0.5,
        "hand": "right"
      },
      {
        "midi": 57,
        "time": 3,
        "duration": 1,
        "velocity": 0.5,
        "hand": "left"
      },
      {
        "midi": 69,
        "time": 3,
        "duration": 0.5,
        "velocity": 0.5,
        "hand": "right"
      },
      {
        "midi": 60,
        "time": 3.75,
        "duration": 0.25,
        "velocity": 0.5,
        "hand": "right"
      },
      {
        "midi": 64,
        "time": 4,
        "duration": 0.25,
        "velocity": 0.5,
        "hand": "right"
      },
      {
        "midi": 69,
        "time": 4.25,
        "duration": 0.25,
        "velocity": 0.5,
        "hand": "right"
      },
      {
        "midi": 52,
        "time": 4.5,
        "duration": 1,
        "velocity": 0.5,
        "hand": "left"
      },
      {
        "midi": 71,
        "time": 4.5,
        "duration": 0.5,
        "velocity": 0.5,
        "hand": "right"
      },
      {
        "midi": 64,
        "time": 5.25,
        "duration": 0.25,
        "velocity": 0.5,
        "hand": "right"
      },
      {
        "midi": 68,
        "time": 5.5,
        "duration": 0.25,
        "velocity": 0.5,
        "hand": "right"
      },
      {
        "midi": 71,
        "time": 5.75,
        "duration": 0.25,
        "velocity": 0.5,
        "hand": "right"
      },
      {
        "midi": 57,
        "time": 6,
        "duration": 1,
        "velocity": 0.5,
        "hand": "left"
      },
      {
        "midi": 72,
        "time": 6,
        "duration": 0.5,
        "velocity": 0.5,
        "hand": "right"
      },
      {
        "midi": 64,
        "time": 6.75,
        "duration": 0.25,
        "velocity": 0.5,
        "hand": "right"
      },
      {
        "midi": 76,
        "time": 7,
        "duration": 0.25,
        "velocity": 0.5,
        "hand": "right"
      },
      {
        "midi": 75,
        "time": 7.25,
        "duration": 0.25,
        "velocity": 0.5,
        "hand": "right"
      },
      {
        "midi": 76,
        "time": 7.5,
        "duration": 0.25,
        "velocity": 0.5,
        "hand": "right"
      },
      {
        "midi": 75,
        "time": 7.75,
        "duration": 0.25,
        "velocity": 0.5,
        "hand": "right"
      },
      {
        "midi": 76,
        "time": 8,
        "duration": 0.25,
        "velocity": 0.5,
        "hand": "right"
      },
      {
        "midi": 71,
        "time": 8.25,
        "duration": 0.25,
        "velocity": 0.5,
        "hand": "right"
      },
      {
        "midi": 74,
        "time": 8.5,
        "duration": 0.25,
        "velocity": 0.5,
        "hand": "right"
      },
      {
        "midi": 72,
        "time": 8.75,
        "duration": 0.25,
        "velocity": 0.5,
        "hand": "right"
      },
      {
        "midi": 57,
        "time": 9,
        "duration": 1,
        "velocity": 0.5,
        "hand": "left"
      },
      {
        "midi": 69,
        "time": 9,
        "duration": 0.5,
        "velocity": 0.5,
        "hand": "right"
      },
      {
        "midi": 60,
        "time": 9.75,
        "duration": 0.25,
        "velocity": 0.5,
        "hand": "right"
      },
      {
        "midi": 64,
        "time": 10,
        "duration": 0.25,
        "velocity": 0.5,
        "hand": "right"
      },
      {
        "midi": 69,
        "time": 10.25,
        "duration": 0.25,
        "velocity": 0.5,
        "hand": "right"
      },
      {
        "midi": 52,
        "time": 10.5,
        "duration": 1,
        "velocity": 0.5,
        "hand": "left"
      },
      {
        "midi": 71,
        "time": 10.5,
        "duration": 0.5,
        "velocity": 0.5,
        "hand": "right"
      },
      {
        "midi": 64,
        "time": 11.25,
        "duration": 0.25,
        "velocity": 0.5,
        "hand": "right"
      },
      {
        "midi": 72,
        "time": 11.5,
        "duration": 0.25,
        "velocity": 0.5,
        "hand": "right"
      },
      {
        "midi": 71,
        "time": 11.75,
        "duration": 0.25,
        "velocity": 0.5,
        "hand": "right"
      },
      {
        "midi": 57,
        "time": 12,
        "duration": 1,
        "velocity": 0.5,
        "hand": "left"
      },
      {
        "midi": 69,
        "time": 12,
        "duration": 0.5,
        "velocity": 0.5,
        "hand": "right"
      },
      {
        "midi": 71,
        "time": 12.75,
        "duration": 0.25,
        "velocity": 0.5,
        "hand": "right"
      },
      {
        "midi": 72,
        "time": 13,
        "duration": 0.25,
        "velocity": 0.54,
        "hand": "right"
      },
      {
        "midi": 74,
        "time": 13.25,
        "duration": 0.25,
        "velocity": 0.58,
        "hand": "right"
      },
      {
        "midi": 60,
        "time": 13.5,
        "duration": 1,
        "velocity": 0.63,
        "hand": "right"
      },
      {
        "midi": 76,
        "time": 13.5,
        "duration": 0.5,
        "velocity": 0.63,
        "hand": "right"
      },
      {
        "midi": 67,
        "time": 14.25,
        "duration": 0.25,
        "velocity": 0.63,
        "hand": "right"
      },
      {
        "midi": 77,
        "time": 14.5,
        "duration": 0.25,
        "velocity": 0.63,
        "hand": "right"
      },
      {
        "midi": 76,
        "time": 14.75,
        "duration": 0.25,
        "velocity": 0.63,
        "hand": "right"
      },
      {
        "midi": 59,
        "time": 15,
        "duration": 1,
        "velocity": 0.63,
        "hand": "left"
      },
      {
        "midi": 74,
        "time": 15,
        "duration": 0.5,
        "velocity": 0.63,
        "hand": "right"
      },
      {
        "midi": 65,
        "time": 15.75,
        "duration": 0.25,
        "velocity": 0.63,
        "hand": "right"
      },
      {
        "midi": 76,
        "time": 16,
        "duration": 0.25,
        "velocity": 0.63,
        "hand": "right"
      },
      {
        "midi": 74,
        "time": 16.25,
        "duration": 0.25,
        "velocity": 0.63,
        "hand": "right"
      },
      {
        "midi": 57,
        "time": 16.5,
        "duration": 1,
        "velocity": 0.63,
        "hand": "left"
      },
      {
        "midi": 72,
        "time": 16.5,
        "duration": 0.5,
        "velocity": 0.63,
        "hand": "right"
      },
      {
        "midi": 64,
        "time": 17.25,
        "duration": 0.25,
        "velocity": 0.63,
        "hand": "right"
      },
      {
        "midi": 74,
        "time": 17.5,
        "duration": 0.25,
        "velocity": 0.59,
        "hand": "right"
      },
      {
        "midi": 72,
        "time": 17.75,
        "duration": 0.25,
        "velocity": 0.55,
        "hand": "right"
      },
      {
        "midi": 56,
        "time": 18,
        "duration": 1.375,
        "velocity": 0.39,
        "hand": "left"
      },
      {
        "midi": 71,
        "time": 18,
        "duration": 1.375,
        "velocity": 0.39,
        "hand": "right"
      },
      {
        "midi": 76,
        "time": 20.5,
        "duration": 0.25,
        "velocity": 0.5,
        "hand": "right"
      },
      {
        "midi": 75,
        "time": 20.75,
        "duration": 0.25,
        "velocity": 0.5,
        "hand": "right"
      },
      {
        "midi": 76,
        "time": 21,
        "duration": 0.25,
        "velocity": 0.5,
        "hand": "right"
      },
      {
        "midi": 75,
        "time": 21.25,
        "duration": 0.25,
        "velocity": 0.5,
        "hand": "right"
      },
      {
        "midi": 76,
        "time": 21.5,
        "duration": 0.25,
        "velocity": 0.5,
        "hand": "right"
      },
      {
        "midi": 71,
        "time": 21.75,
        "duration": 0.25,
        "velocity": 0.5,
        "hand": "right"
      },
      {
        "midi": 74,
        "time": 22,
        "duration": 0.25,
        "velocity": 0.5,
        "hand": "right"
      },
      {
        "midi": 72,
        "time": 22.25,
        "duration": 0.25,
        "velocity": 0.5,
        "hand": "right"
      },
      {
        "midi": 57,
        "time": 22.5,
        "duration": 1,
        "velocity": 0.5,
        "hand": "left"
      },
      {
        "midi": 69,
        "time": 22.5,
        "duration": 0.5,
        "velocity": 0.5,
        "hand": "right"
      },
      {
        "midi": 60,
        "time": 23.25,
        "duration": 0.25,
        "velocity": 0.5,
        "hand": "right"
      },
      {
        "midi": 64,
        "time": 23.5,
        "duration": 0.25,
        "velocity": 0.54,
        "hand": "right"
      },
      {
        "midi": 69,
        "time": 23.75,
        "duration": 0.25,
        "velocity": 0.58,
        "hand": "right"
      },
      {
        "midi": 52,
        "time": 24,
        "duration": 1,
        "velocity": 0.63,
        "hand": "left"
      },
      {
        "midi": 71,
        "time": 24,
        "duration": 0.5,
        "velocity": 0.63,
        "hand": "right"
      },
      {
        "midi": 64,
        "time": 24.75,
        "duration": 0.25,
        "velocity": 0.63,
        "hand": "right"
      },
      {
        "midi": 68,
        "time": 25,
        "duration": 0.25,
        "velocity": 0.63,
        "hand": "right"
      },
      {
        "midi": 71,
        "time": 25.25,
        "duration": 0.25,
        "velocity": 0.63,
        "hand": "right"
      },
      {
        "midi": 57,
        "time": 25.5,
        "duration": 1,
        "velocity": 0.63,
        "hand": "left"
      },
      {
        "midi": 72,
        "time": 25.5,
        "duration": 0.5,
        "velocity": 0.63,
        "hand": "right"
      },
      {
        "midi": 64,
        "time": 26.25,
        "duration": 0.25,
        "velocity": 0.63,
        "hand": "right"
      },
      {
        "midi": 76,
        "time": 26.5,
        "duration": 0.25,
        "velocity": 0.63,
        "hand": "right"
      },
      {
        "midi": 75,
        "time": 26.75,
        "duration": 0.25,
        "velocity": 0.63,
        "hand": "right"
      },
      {
        "midi": 76,
        "time": 27,
        "duration": 0.25,
        "velocity": 0.63,
        "hand": "right"
      },
      {
        "midi": 75,
        "time": 27.25,
        "duration": 0.25,
        "velocity": 0.63,
        "hand": "right"
      },
      {
        "midi": 76,
        "time": 27.5,
        "duration": 0.25,
        "velocity": 0.63,
        "hand": "right"
      },
      {
        "midi": 71,
        "time": 27.75,
        "duration": 0.25,
        "velocity": 0.63,
        "hand": "right"
      },
      {
        "midi": 74,
        "time": 28,
        "duration": 0.25,
        "velocity": 0.63,
        "hand": "right"
      },
      {
        "midi": 72,
        "time": 28.25,
        "duration": 0.25,
        "velocity": 0.63,
        "hand": "right"
      },
      {
        "midi": 57,
        "time": 28.5,
        "duration": 1,
        "velocity": 0.63,
        "hand": "left"
      },
      {
        "midi": 69,
        "time": 28.5,
        "duration": 0.5,
        "velocity": 0.63,
        "hand": "right"
      },
      {
        "midi": 60,
        "time": 29.25,
        "duration": 0.25,
        "velocity": 0.63,
        "hand": "right"
      },
      {
        "midi": 64,
        "time": 29.5,
        "duration": 0.25,
        "velocity": 0.63,
        "hand": "right"
      },
      {
        "midi": 69,
        "time": 29.75,
        "duration": 0.25,
        "velocity": 0.63,
        "hand": "right"
      },
      {
        "midi": 52,
        "time": 30,
        "duration": 1,
        "velocity": 0.63,
        "hand": "left"
      },
      {
        "midi": 71,
        "time": 30,
        "duration": 0.5,
        "velocity": 0.63,
        "hand": "right"
      },
      {
        "midi": 64,
        "time": 30.75,
        "duration": 0.25,
        "velocity": 0.63,
        "hand": "right"
      },
      {
        "midi": 72,
        "time": 31,
        "duration": 0.25,
        "velocity": 0.59,
        "hand": "right"
      },
      {
        "midi": 71,
        "time": 31.25,
        "duration": 0.25,
        "velocity": 0.55,
        "hand": "right"
      },
      {
        "midi": 57,
        "time": 31.5,
        "duration": 1,
        "velocity": 0.5,
        "hand": "left"
      },
      {
        "midi": 64,
        "time": 31.5,
        "duration": 1,
        "velocity": 0.5,
        "hand": "right"
      },
      {
        "midi": 69,
        "time": 31.5,
        "duration": 1.375,
        "velocity": 0.5,
        "hand": "right"
      },
      {
        "midi": 33,
        "time": 32.5,
        "duration": 0.25,
        "velocity": 0.5,
        "hand": "left"
      }
    ]
  },
  "notes1Hand": [
    {
      "midi": 76,
      "time": 1,
      "duration": 0.25,
      "velocity": 0.5,
      "hand": "right"
    },
    {
      "midi": 75,
      "time": 1.25,
      "duration": 0.25,
      "velocity": 0.5,
      "hand": "right"
    },
    {
      "midi": 76,
      "time": 1.5,
      "duration": 0.25,
      "velocity": 0.5,
      "hand": "right"
    },
    {
      "midi": 75,
      "time": 1.75,
      "duration": 0.25,
      "velocity": 0.5,
      "hand": "right"
    },
    {
      "midi": 76,
      "time": 2,
      "duration": 0.25,
      "velocity": 0.5,
      "hand": "right"
    },
    {
      "midi": 71,
      "time": 2.25,
      "duration": 0.25,
      "velocity": 0.5,
      "hand": "right"
    },
    {
      "midi": 74,
      "time": 2.5,
      "duration": 0.25,
      "velocity": 0.5,
      "hand": "right"
    },
    {
      "midi": 72,
      "time": 2.75,
      "duration": 0.25,
      "velocity": 0.5,
      "hand": "right"
    },
    {
      "midi": 69,
      "time": 3,
      "duration": 0.5,
      "velocity": 0.5,
      "hand": "right"
    },
    {
      "midi": 60,
      "time": 3.75,
      "duration": 0.25,
      "velocity": 0.5,
      "hand": "right"
    },
    {
      "midi": 64,
      "time": 4,
      "duration": 0.25,
      "velocity": 0.5,
      "hand": "right"
    },
    {
      "midi": 69,
      "time": 4.25,
      "duration": 0.25,
      "velocity": 0.5,
      "hand": "right"
    },
    {
      "midi": 71,
      "time": 4.5,
      "duration": 0.5,
      "velocity": 0.5,
      "hand": "right"
    },
    {
      "midi": 64,
      "time": 5.25,
      "duration": 0.25,
      "velocity": 0.5,
      "hand": "right"
    },
    {
      "midi": 68,
      "time": 5.5,
      "duration": 0.25,
      "velocity": 0.5,
      "hand": "right"
    },
    {
      "midi": 71,
      "time": 5.75,
      "duration": 0.25,
      "velocity": 0.5,
      "hand": "right"
    },
    {
      "midi": 72,
      "time": 6,
      "duration": 0.5,
      "velocity": 0.5,
      "hand": "right"
    },
    {
      "midi": 64,
      "time": 6.75,
      "duration": 0.25,
      "velocity": 0.5,
      "hand": "right"
    },
    {
      "midi": 76,
      "time": 7,
      "duration": 0.25,
      "velocity": 0.5,
      "hand": "right"
    },
    {
      "midi": 75,
      "time": 7.25,
      "duration": 0.25,
      "velocity": 0.5,
      "hand": "right"
    },
    {
      "midi": 76,
      "time": 7.5,
      "duration": 0.25,
      "velocity": 0.5,
      "hand": "right"
    },
    {
      "midi": 75,
      "time": 7.75,
      "duration": 0.25,
      "velocity": 0.5,
      "hand": "right"
    },
    {
      "midi": 76,
      "time": 8,
      "duration": 0.25,
      "velocity": 0.5,
      "hand": "right"
    },
    {
      "midi": 71,
      "time": 8.25,
      "duration": 0.25,
      "velocity": 0.5,
      "hand": "right"
    },
    {
      "midi": 74,
      "time": 8.5,
      "duration": 0.25,
      "velocity": 0.5,
      "hand": "right"
    },
    {
      "midi": 72,
      "time": 8.75,
      "duration": 0.25,
      "velocity": 0.5,
      "hand": "right"
    },
    {
      "midi": 69,
      "time": 9,
      "duration": 0.5,
      "velocity": 0.5,
      "hand": "right"
    },
    {
      "midi": 60,
      "time": 9.75,
      "duration": 0.25,
      "velocity": 0.5,
      "hand": "right"
    },
    {
      "midi": 64,
      "time": 10,
      "duration": 0.25,
      "velocity": 0.5,
      "hand": "right"
    },
    {
      "midi": 69,
      "time": 10.25,
      "duration": 0.25,
      "velocity": 0.5,
      "hand": "right"
    },
    {
      "midi": 71,
      "time": 10.5,
      "duration": 0.5,
      "velocity": 0.5,
      "hand": "right"
    },
    {
      "midi": 64,
      "time": 11.25,
      "duration": 0.25,
      "velocity": 0.5,
      "hand": "right"
    },
    {
      "midi": 72,
      "time": 11.5,
      "duration": 0.25,
      "velocity": 0.5,
      "hand": "right"
    },
    {
      "midi": 71,
      "time": 11.75,
      "duration": 0.25,
      "velocity": 0.5,
      "hand": "right"
    },
    {
      "midi": 69,
      "time": 12,
      "duration": 0.5,
      "velocity": 0.5,
      "hand": "right"
    },
    {
      "midi": 71,
      "time": 12.75,
      "duration": 0.25,
      "velocity": 0.5,
      "hand": "right"
    },
    {
      "midi": 72,
      "time": 13,
      "duration": 0.25,
      "velocity": 0.54,
      "hand": "right"
    },
    {
      "midi": 74,
      "time": 13.25,
      "duration": 0.25,
      "velocity": 0.58,
      "hand": "right"
    },
    {
      "midi": 76,
      "time": 13.5,
      "duration": 0.5,
      "velocity": 0.63,
      "hand": "right"
    },
    {
      "midi": 67,
      "time": 14.25,
      "duration": 0.25,
      "velocity": 0.63,
      "hand": "right"
    },
    {
      "midi": 77,
      "time": 14.5,
      "duration": 0.25,
      "velocity": 0.63,
      "hand": "right"
    },
    {
      "midi": 76,
      "time": 14.75,
      "duration": 0.25,
      "velocity": 0.63,
      "hand": "right"
    },
    {
      "midi": 74,
      "time": 15,
      "duration": 0.5,
      "velocity": 0.63,
      "hand": "right"
    },
    {
      "midi": 65,
      "time": 15.75,
      "duration": 0.25,
      "velocity": 0.63,
      "hand": "right"
    },
    {
      "midi": 76,
      "time": 16,
      "duration": 0.25,
      "velocity": 0.63,
      "hand": "right"
    },
    {
      "midi": 74,
      "time": 16.25,
      "duration": 0.25,
      "velocity": 0.63,
      "hand": "right"
    },
    {
      "midi": 72,
      "time": 16.5,
      "duration": 0.5,
      "velocity": 0.63,
      "hand": "right"
    },
    {
      "midi": 64,
      "time": 17.25,
      "duration": 0.25,
      "velocity": 0.63,
      "hand": "right"
    },
    {
      "midi": 74,
      "time": 17.5,
      "duration": 0.25,
      "velocity": 0.59,
      "hand": "right"
    },
    {
      "midi": 72,
      "time": 17.75,
      "duration": 0.25,
      "velocity": 0.55,
      "hand": "right"
    },
    {
      "midi": 71,
      "time": 18,
      "duration": 1.375,
      "velocity": 0.39,
      "hand": "right"
    },
    {
      "midi": 76,
      "time": 20.5,
      "duration": 0.25,
      "velocity": 0.5,
      "hand": "right"
    },
    {
      "midi": 75,
      "time": 20.75,
      "duration": 0.25,
      "velocity": 0.5,
      "hand": "right"
    },
    {
      "midi": 76,
      "time": 21,
      "duration": 0.25,
      "velocity": 0.5,
      "hand": "right"
    },
    {
      "midi": 75,
      "time": 21.25,
      "duration": 0.25,
      "velocity": 0.5,
      "hand": "right"
    },
    {
      "midi": 76,
      "time": 21.5,
      "duration": 0.25,
      "velocity": 0.5,
      "hand": "right"
    },
    {
      "midi": 71,
      "time": 21.75,
      "duration": 0.25,
      "velocity": 0.5,
      "hand": "right"
    },
    {
      "midi": 74,
      "time": 22,
      "duration": 0.25,
      "velocity": 0.5,
      "hand": "right"
    },
    {
      "midi": 72,
      "time": 22.25,
      "duration": 0.25,
      "velocity": 0.5,
      "hand": "right"
    },
    {
      "midi": 69,
      "time": 22.5,
      "duration": 0.5,
      "velocity": 0.5,
      "hand": "right"
    },
    {
      "midi": 60,
      "time": 23.25,
      "duration": 0.25,
      "velocity": 0.5,
      "hand": "right"
    },
    {
      "midi": 64,
      "time": 23.5,
      "duration": 0.25,
      "velocity": 0.54,
      "hand": "right"
    },
    {
      "midi": 69,
      "time": 23.75,
      "duration": 0.25,
      "velocity": 0.58,
      "hand": "right"
    },
    {
      "midi": 71,
      "time": 24,
      "duration": 0.5,
      "velocity": 0.63,
      "hand": "right"
    },
    {
      "midi": 64,
      "time": 24.75,
      "duration": 0.25,
      "velocity": 0.63,
      "hand": "right"
    },
    {
      "midi": 68,
      "time": 25,
      "duration": 0.25,
      "velocity": 0.63,
      "hand": "right"
    },
    {
      "midi": 71,
      "time": 25.25,
      "duration": 0.25,
      "velocity": 0.63,
      "hand": "right"
    },
    {
      "midi": 72,
      "time": 25.5,
      "duration": 0.5,
      "velocity": 0.63,
      "hand": "right"
    },
    {
      "midi": 64,
      "time": 26.25,
      "duration": 0.25,
      "velocity": 0.63,
      "hand": "right"
    },
    {
      "midi": 76,
      "time": 26.5,
      "duration": 0.25,
      "velocity": 0.63,
      "hand": "right"
    },
    {
      "midi": 75,
      "time": 26.75,
      "duration": 0.25,
      "velocity": 0.63,
      "hand": "right"
    },
    {
      "midi": 76,
      "time": 27,
      "duration": 0.25,
      "velocity": 0.63,
      "hand": "right"
    },
    {
      "midi": 75,
      "time": 27.25,
      "duration": 0.25,
      "velocity": 0.63,
      "hand": "right"
    },
    {
      "midi": 76,
      "time": 27.5,
      "duration": 0.25,
      "velocity": 0.63,
      "hand": "right"
    },
    {
      "midi": 71,
      "time": 27.75,
      "duration": 0.25,
      "velocity": 0.63,
      "hand": "right"
    },
    {
      "midi": 74,
      "time": 28,
      "duration": 0.25,
      "velocity": 0.63,
      "hand": "right"
    },
    {
      "midi": 72,
      "time": 28.25,
      "duration": 0.25,
      "velocity": 0.63,
      "hand": "right"
    },
    {
      "midi": 69,
      "time": 28.5,
      "duration": 0.5,
      "velocity": 0.63,
      "hand": "right"
    },
    {
      "midi": 60,
      "time": 29.25,
      "duration": 0.25,
      "velocity": 0.63,
      "hand": "right"
    },
    {
      "midi": 64,
      "time": 29.5,
      "duration": 0.25,
      "velocity": 0.63,
      "hand": "right"
    },
    {
      "midi": 69,
      "time": 29.75,
      "duration": 0.25,
      "velocity": 0.63,
      "hand": "right"
    },
    {
      "midi": 71,
      "time": 30,
      "duration": 0.5,
      "velocity": 0.63,
      "hand": "right"
    },
    {
      "midi": 64,
      "time": 30.75,
      "duration": 0.25,
      "velocity": 0.63,
      "hand": "right"
    },
    {
      "midi": 72,
      "time": 31,
      "duration": 0.25,
      "velocity": 0.59,
      "hand": "right"
    },
    {
      "midi": 71,
      "time": 31.25,
      "duration": 0.25,
      "velocity": 0.55,
      "hand": "right"
    },
    {
      "midi": 69,
      "time": 31.5,
      "duration": 1.375,
      "velocity": 0.5,
      "hand": "right"
    },
    {
      "midi": 33,
      "time": 32.5,
      "duration": 0.25,
      "velocity": 0.5,
      "hand": "right"
    }
  ],
  "notes2Hands": [
    {
      "midi": 76,
      "time": 1,
      "duration": 0.25,
      "velocity": 0.5,
      "hand": "right"
    },
    {
      "midi": 75,
      "time": 1.25,
      "duration": 0.25,
      "velocity": 0.5,
      "hand": "right"
    },
    {
      "midi": 76,
      "time": 1.5,
      "duration": 0.25,
      "velocity": 0.5,
      "hand": "right"
    },
    {
      "midi": 75,
      "time": 1.75,
      "duration": 0.25,
      "velocity": 0.5,
      "hand": "right"
    },
    {
      "midi": 76,
      "time": 2,
      "duration": 0.25,
      "velocity": 0.5,
      "hand": "right"
    },
    {
      "midi": 71,
      "time": 2.25,
      "duration": 0.25,
      "velocity": 0.5,
      "hand": "right"
    },
    {
      "midi": 74,
      "time": 2.5,
      "duration": 0.25,
      "velocity": 0.5,
      "hand": "right"
    },
    {
      "midi": 72,
      "time": 2.75,
      "duration": 0.25,
      "velocity": 0.5,
      "hand": "right"
    },
    {
      "midi": 57,
      "time": 3,
      "duration": 1,
      "velocity": 0.5,
      "hand": "left"
    },
    {
      "midi": 69,
      "time": 3,
      "duration": 0.5,
      "velocity": 0.5,
      "hand": "right"
    },
    {
      "midi": 60,
      "time": 3.75,
      "duration": 0.25,
      "velocity": 0.5,
      "hand": "right"
    },
    {
      "midi": 64,
      "time": 4,
      "duration": 0.25,
      "velocity": 0.5,
      "hand": "right"
    },
    {
      "midi": 69,
      "time": 4.25,
      "duration": 0.25,
      "velocity": 0.5,
      "hand": "right"
    },
    {
      "midi": 52,
      "time": 4.5,
      "duration": 1,
      "velocity": 0.5,
      "hand": "left"
    },
    {
      "midi": 71,
      "time": 4.5,
      "duration": 0.5,
      "velocity": 0.5,
      "hand": "right"
    },
    {
      "midi": 64,
      "time": 5.25,
      "duration": 0.25,
      "velocity": 0.5,
      "hand": "right"
    },
    {
      "midi": 68,
      "time": 5.5,
      "duration": 0.25,
      "velocity": 0.5,
      "hand": "right"
    },
    {
      "midi": 71,
      "time": 5.75,
      "duration": 0.25,
      "velocity": 0.5,
      "hand": "right"
    },
    {
      "midi": 57,
      "time": 6,
      "duration": 1,
      "velocity": 0.5,
      "hand": "left"
    },
    {
      "midi": 72,
      "time": 6,
      "duration": 0.5,
      "velocity": 0.5,
      "hand": "right"
    },
    {
      "midi": 64,
      "time": 6.75,
      "duration": 0.25,
      "velocity": 0.5,
      "hand": "right"
    },
    {
      "midi": 76,
      "time": 7,
      "duration": 0.25,
      "velocity": 0.5,
      "hand": "right"
    },
    {
      "midi": 75,
      "time": 7.25,
      "duration": 0.25,
      "velocity": 0.5,
      "hand": "right"
    },
    {
      "midi": 76,
      "time": 7.5,
      "duration": 0.25,
      "velocity": 0.5,
      "hand": "right"
    },
    {
      "midi": 75,
      "time": 7.75,
      "duration": 0.25,
      "velocity": 0.5,
      "hand": "right"
    },
    {
      "midi": 76,
      "time": 8,
      "duration": 0.25,
      "velocity": 0.5,
      "hand": "right"
    },
    {
      "midi": 71,
      "time": 8.25,
      "duration": 0.25,
      "velocity": 0.5,
      "hand": "right"
    },
    {
      "midi": 74,
      "time": 8.5,
      "duration": 0.25,
      "velocity": 0.5,
      "hand": "right"
    },
    {
      "midi": 72,
      "time": 8.75,
      "duration": 0.25,
      "velocity": 0.5,
      "hand": "right"
    },
    {
      "midi": 57,
      "time": 9,
      "duration": 1,
      "velocity": 0.5,
      "hand": "left"
    },
    {
      "midi": 69,
      "time": 9,
      "duration": 0.5,
      "velocity": 0.5,
      "hand": "right"
    },
    {
      "midi": 60,
      "time": 9.75,
      "duration": 0.25,
      "velocity": 0.5,
      "hand": "right"
    },
    {
      "midi": 64,
      "time": 10,
      "duration": 0.25,
      "velocity": 0.5,
      "hand": "right"
    },
    {
      "midi": 69,
      "time": 10.25,
      "duration": 0.25,
      "velocity": 0.5,
      "hand": "right"
    },
    {
      "midi": 52,
      "time": 10.5,
      "duration": 1,
      "velocity": 0.5,
      "hand": "left"
    },
    {
      "midi": 71,
      "time": 10.5,
      "duration": 0.5,
      "velocity": 0.5,
      "hand": "right"
    },
    {
      "midi": 64,
      "time": 11.25,
      "duration": 0.25,
      "velocity": 0.5,
      "hand": "right"
    },
    {
      "midi": 72,
      "time": 11.5,
      "duration": 0.25,
      "velocity": 0.5,
      "hand": "right"
    },
    {
      "midi": 71,
      "time": 11.75,
      "duration": 0.25,
      "velocity": 0.5,
      "hand": "right"
    },
    {
      "midi": 57,
      "time": 12,
      "duration": 1,
      "velocity": 0.5,
      "hand": "left"
    },
    {
      "midi": 69,
      "time": 12,
      "duration": 0.5,
      "velocity": 0.5,
      "hand": "right"
    },
    {
      "midi": 71,
      "time": 12.75,
      "duration": 0.25,
      "velocity": 0.5,
      "hand": "right"
    },
    {
      "midi": 72,
      "time": 13,
      "duration": 0.25,
      "velocity": 0.54,
      "hand": "right"
    },
    {
      "midi": 74,
      "time": 13.25,
      "duration": 0.25,
      "velocity": 0.58,
      "hand": "right"
    },
    {
      "midi": 60,
      "time": 13.5,
      "duration": 1,
      "velocity": 0.63,
      "hand": "right"
    },
    {
      "midi": 76,
      "time": 13.5,
      "duration": 0.5,
      "velocity": 0.63,
      "hand": "right"
    },
    {
      "midi": 67,
      "time": 14.25,
      "duration": 0.25,
      "velocity": 0.63,
      "hand": "right"
    },
    {
      "midi": 77,
      "time": 14.5,
      "duration": 0.25,
      "velocity": 0.63,
      "hand": "right"
    },
    {
      "midi": 76,
      "time": 14.75,
      "duration": 0.25,
      "velocity": 0.63,
      "hand": "right"
    },
    {
      "midi": 59,
      "time": 15,
      "duration": 1,
      "velocity": 0.63,
      "hand": "left"
    },
    {
      "midi": 74,
      "time": 15,
      "duration": 0.5,
      "velocity": 0.63,
      "hand": "right"
    },
    {
      "midi": 65,
      "time": 15.75,
      "duration": 0.25,
      "velocity": 0.63,
      "hand": "right"
    },
    {
      "midi": 76,
      "time": 16,
      "duration": 0.25,
      "velocity": 0.63,
      "hand": "right"
    },
    {
      "midi": 74,
      "time": 16.25,
      "duration": 0.25,
      "velocity": 0.63,
      "hand": "right"
    },
    {
      "midi": 57,
      "time": 16.5,
      "duration": 1,
      "velocity": 0.63,
      "hand": "left"
    },
    {
      "midi": 72,
      "time": 16.5,
      "duration": 0.5,
      "velocity": 0.63,
      "hand": "right"
    },
    {
      "midi": 64,
      "time": 17.25,
      "duration": 0.25,
      "velocity": 0.63,
      "hand": "right"
    },
    {
      "midi": 74,
      "time": 17.5,
      "duration": 0.25,
      "velocity": 0.59,
      "hand": "right"
    },
    {
      "midi": 72,
      "time": 17.75,
      "duration": 0.25,
      "velocity": 0.55,
      "hand": "right"
    },
    {
      "midi": 56,
      "time": 18,
      "duration": 1.375,
      "velocity": 0.39,
      "hand": "left"
    },
    {
      "midi": 71,
      "time": 18,
      "duration": 1.375,
      "velocity": 0.39,
      "hand": "right"
    },
    {
      "midi": 76,
      "time": 20.5,
      "duration": 0.25,
      "velocity": 0.5,
      "hand": "right"
    },
    {
      "midi": 75,
      "time": 20.75,
      "duration": 0.25,
      "velocity": 0.5,
      "hand": "right"
    },
    {
      "midi": 76,
      "time": 21,
      "duration": 0.25,
      "velocity": 0.5,
      "hand": "right"
    },
    {
      "midi": 75,
      "time": 21.25,
      "duration": 0.25,
      "velocity": 0.5,
      "hand": "right"
    },
    {
      "midi": 76,
      "time": 21.5,
      "duration": 0.25,
      "velocity": 0.5,
      "hand": "right"
    },
    {
      "midi": 71,
      "time": 21.75,
      "duration": 0.25,
      "velocity": 0.5,
      "hand": "right"
    },
    {
      "midi": 74,
      "time": 22,
      "duration": 0.25,
      "velocity": 0.5,
      "hand": "right"
    },
    {
      "midi": 72,
      "time": 22.25,
      "duration": 0.25,
      "velocity": 0.5,
      "hand": "right"
    },
    {
      "midi": 57,
      "time": 22.5,
      "duration": 1,
      "velocity": 0.5,
      "hand": "left"
    },
    {
      "midi": 69,
      "time": 22.5,
      "duration": 0.5,
      "velocity": 0.5,
      "hand": "right"
    },
    {
      "midi": 60,
      "time": 23.25,
      "duration": 0.25,
      "velocity": 0.5,
      "hand": "right"
    },
    {
      "midi": 64,
      "time": 23.5,
      "duration": 0.25,
      "velocity": 0.54,
      "hand": "right"
    },
    {
      "midi": 69,
      "time": 23.75,
      "duration": 0.25,
      "velocity": 0.58,
      "hand": "right"
    },
    {
      "midi": 52,
      "time": 24,
      "duration": 1,
      "velocity": 0.63,
      "hand": "left"
    },
    {
      "midi": 71,
      "time": 24,
      "duration": 0.5,
      "velocity": 0.63,
      "hand": "right"
    },
    {
      "midi": 64,
      "time": 24.75,
      "duration": 0.25,
      "velocity": 0.63,
      "hand": "right"
    },
    {
      "midi": 68,
      "time": 25,
      "duration": 0.25,
      "velocity": 0.63,
      "hand": "right"
    },
    {
      "midi": 71,
      "time": 25.25,
      "duration": 0.25,
      "velocity": 0.63,
      "hand": "right"
    },
    {
      "midi": 57,
      "time": 25.5,
      "duration": 1,
      "velocity": 0.63,
      "hand": "left"
    },
    {
      "midi": 72,
      "time": 25.5,
      "duration": 0.5,
      "velocity": 0.63,
      "hand": "right"
    },
    {
      "midi": 64,
      "time": 26.25,
      "duration": 0.25,
      "velocity": 0.63,
      "hand": "right"
    },
    {
      "midi": 76,
      "time": 26.5,
      "duration": 0.25,
      "velocity": 0.63,
      "hand": "right"
    },
    {
      "midi": 75,
      "time": 26.75,
      "duration": 0.25,
      "velocity": 0.63,
      "hand": "right"
    },
    {
      "midi": 76,
      "time": 27,
      "duration": 0.25,
      "velocity": 0.63,
      "hand": "right"
    },
    {
      "midi": 75,
      "time": 27.25,
      "duration": 0.25,
      "velocity": 0.63,
      "hand": "right"
    },
    {
      "midi": 76,
      "time": 27.5,
      "duration": 0.25,
      "velocity": 0.63,
      "hand": "right"
    },
    {
      "midi": 71,
      "time": 27.75,
      "duration": 0.25,
      "velocity": 0.63,
      "hand": "right"
    },
    {
      "midi": 74,
      "time": 28,
      "duration": 0.25,
      "velocity": 0.63,
      "hand": "right"
    },
    {
      "midi": 72,
      "time": 28.25,
      "duration": 0.25,
      "velocity": 0.63,
      "hand": "right"
    },
    {
      "midi": 57,
      "time": 28.5,
      "duration": 1,
      "velocity": 0.63,
      "hand": "left"
    },
    {
      "midi": 69,
      "time": 28.5,
      "duration": 0.5,
      "velocity": 0.63,
      "hand": "right"
    },
    {
      "midi": 60,
      "time": 29.25,
      "duration": 0.25,
      "velocity": 0.63,
      "hand": "right"
    },
    {
      "midi": 64,
      "time": 29.5,
      "duration": 0.25,
      "velocity": 0.63,
      "hand": "right"
    },
    {
      "midi": 69,
      "time": 29.75,
      "duration": 0.25,
      "velocity": 0.63,
      "hand": "right"
    },
    {
      "midi": 52,
      "time": 30,
      "duration": 1,
      "velocity": 0.63,
      "hand": "left"
    },
    {
      "midi": 71,
      "time": 30,
      "duration": 0.5,
      "velocity": 0.63,
      "hand": "right"
    },
    {
      "midi": 64,
      "time": 30.75,
      "duration": 0.25,
      "velocity": 0.63,
      "hand": "right"
    },
    {
      "midi": 72,
      "time": 31,
      "duration": 0.25,
      "velocity": 0.59,
      "hand": "right"
    },
    {
      "midi": 71,
      "time": 31.25,
      "duration": 0.25,
      "velocity": 0.55,
      "hand": "right"
    },
    {
      "midi": 57,
      "time": 31.5,
      "duration": 1,
      "velocity": 0.5,
      "hand": "left"
    },
    {
      "midi": 64,
      "time": 31.5,
      "duration": 1,
      "velocity": 0.5,
      "hand": "right"
    },
    {
      "midi": 69,
      "time": 31.5,
      "duration": 1.375,
      "velocity": 0.5,
      "hand": "right"
    },
    {
      "midi": 33,
      "time": 32.5,
      "duration": 0.25,
      "velocity": 0.5,
      "hand": "left"
    }
  ]
}
