{
  "id": "gigue-in-g-majormozart",
  "title": "Giga em Sol Maior",
  "artist": "Wolfgang Amadeus Mozart",
  "difficulty": "Médio",
  "bpm": 140,
  "duration": 49,
  "category": "Clássicos",
  "isPremium": true,
  "coverUrl": "/images/covers/placeholder.png",
  "notes": [
    {
      "midi": 74,
      "time": 0,
      "duration": 0.214,
      "velocity": 0.71,
      "hand": "right"
    },
    {
      "midi": 71,
      "time": 0.214,
      "duration": 0.214,
      "velocity": 0.71,
      "hand": "right"
    },
    {
      "midi": 67,
      "time": 0.429,
      "duration": 0.214,
      "velocity": 0.71,
      "hand": "right"
    },
    {
      "midi": 79,
      "time": 0.643,
      "duration": 0.214,
      "velocity": 0.71,
      "hand": "right"
    },
    {
      "midi": 78,
      "time": 0.857,
      "duration": 0.214,
      "velocity": 0.71,
      "hand": "right"
    },
    {
      "midi": 73,
      "time": 1.071,
      "duration": 0.214,
      "velocity": 0.71,
      "hand": "right"
    },
    {
      "midi": 74,
      "time": 1.286,
      "duration": 0.214,
      "velocity": 0.71,
      "hand": "right"
    },
    {
      "midi": 77,
      "time": 1.5,
      "duration": 0.214,
      "velocity": 0.71,
      "hand": "right"
    },
    {
      "midi": 76,
      "time": 1.714,
      "duration": 0.214,
      "velocity": 0.71,
      "hand": "right"
    },
    {
      "midi": 68,
      "time": 1.929,
      "duration": 0.214,
      "velocity": 0.71,
      "hand": "right"
    },
    {
      "midi": 69,
      "time": 2.143,
      "duration": 0.214,
      "velocity": 0.71,
      "hand": "right"
    },
    {
      "midi": 72,
      "time": 2.357,
      "duration": 0.214,
      "velocity": 0.71,
      "hand": "right"
    },
    {
      "midi": 67,
      "time": 2.571,
      "duration": 0.214,
      "velocity": 0.71,
      "hand": "right"
    },
    {
      "midi": 71,
      "time": 2.571,
      "duration": 0.214,
      "velocity": 0.71,
      "hand": "right"
    },
    {
      "midi": 66,
      "time": 2.786,
      "duration": 0.214,
      "velocity": 0.71,
      "hand": "right"
    },
    {
      "midi": 69,
      "time": 2.786,
      "duration": 0.214,
      "velocity": 0.71,
      "hand": "right"
    },
    {
      "midi": 62,
      "time": 3,
      "duration": 0.214,
      "velocity": 0.71,
      "hand": "right"
    },
    {
      "midi": 74,
      "time": 3.214,
      "duration": 0.214,
      "velocity": 0.71,
      "hand": "right"
    },
    {
      "midi": 78,
      "time": 3.214,
      "duration": 0.214,
      "velocity": 0.71,
      "hand": "right"
    },
    {
      "midi": 73,
      "time": 3.429,
      "duration": 0.214,
      "velocity": 0.71,
      "hand": "right"
    },
    {
      "midi": 76,
      "time": 3.429,
      "duration": 0.214,
      "velocity": 0.71,
      "hand": "right"
    },
    {
      "midi": 68,
      "time": 3.643,
      "duration": 0.214,
      "velocity": 0.71,
      "hand": "right"
    },
    {
      "midi": 86,
      "time": 3.643,
      "duration": 0.214,
      "velocity": 0.71,
      "hand": "right"
    },
    {
      "midi": 69,
      "time": 3.857,
      "duration": 0.214,
      "velocity": 0.71,
      "hand": "right"
    },
    {
      "midi": 85,
      "time": 3.857,
      "duration": 0.214,
      "velocity": 0.71,
      "hand": "right"
    },
    {
      "midi": 72,
      "time": 4.071,
      "duration": 0.214,
      "velocity": 0.71,
      "hand": "right"
    },
    {
      "midi": 76,
      "time": 4.071,
      "duration": 0.214,
      "velocity": 0.71,
      "hand": "right"
    },
    {
      "midi": 71,
      "time": 4.286,
      "duration": 0.214,
      "velocity": 0.71,
      "hand": "right"
    },
    {
      "midi": 75,
      "time": 4.286,
      "duration": 0.214,
      "velocity": 0.71,
      "hand": "right"
    },
    {
      "midi": 63,
      "time": 4.5,
      "duration": 0.214,
      "velocity": 0.71,
      "hand": "right"
    },
    {
      "midi": 81,
      "time": 4.5,
      "duration": 0.214,
      "velocity": 0.71,
      "hand": "right"
    },
    {
      "midi": 64,
      "time": 4.714,
      "duration": 0.214,
      "velocity": 0.71,
      "hand": "right"
    },
    {
      "midi": 79,
      "time": 4.714,
      "duration": 0.214,
      "velocity": 0.71,
      "hand": "right"
    },
    {
      "midi": 67,
      "time": 4.929,
      "duration": 0.214,
      "velocity": 0.71,
      "hand": "right"
    },
    {
      "midi": 73,
      "time": 4.929,
      "duration": 0.214,
      "velocity": 0.71,
      "hand": "right"
    },
    {
      "midi": 62,
      "time": 5.143,
      "duration": 0.214,
      "velocity": 0.71,
      "hand": "right"
    },
    {
      "midi": 66,
      "time": 5.143,
      "duration": 0.214,
      "velocity": 0.71,
      "hand": "right"
    },
    {
      "midi": 74,
      "time": 5.143,
      "duration": 0.214,
      "velocity": 0.71,
      "hand": "right"
    },
    {
      "midi": 59,
      "time": 5.357,
      "duration": 0.214,
      "velocity": 0.71,
      "hand": "left"
    },
    {
      "midi": 55,
      "time": 5.571,
      "duration": 0.214,
      "velocity": 0.71,
      "hand": "left"
    },
    {
      "midi": 67,
      "time": 5.786,
      "duration": 0.214,
      "velocity": 0.71,
      "hand": "right"
    },
    {
      "midi": 69,
      "time": 5.786,
      "duration": 0.214,
      "velocity": 0.71,
      "hand": "right"
    },
    {
      "midi": 73,
      "time": 5.786,
      "duration": 0.214,
      "velocity": 0.71,
      "hand": "right"
    },
    {
      "midi": 66,
      "time": 6,
      "duration": 0.214,
      "velocity": 0.71,
      "hand": "right"
    },
    {
      "midi": 69,
      "time": 6,
      "duration": 0.857,
      "velocity": 0.71,
      "hand": "right"
    },
    {
      "midi": 74,
      "time": 6,
      "duration": 0.214,
      "velocity": 0.71,
      "hand": "right"
    },
    {
      "midi": 61,
      "time": 6.214,
      "duration": 0.214,
      "velocity": 0.71,
      "hand": "right"
    },
    {
      "midi": 79,
      "time": 6.214,
      "duration": 0.214,
      "velocity": 0.71,
      "hand": "right"
    },
    {
      "midi": 62,
      "time": 6.429,
      "duration": 0.214,
      "velocity": 0.71,
      "hand": "right"
    },
    {
      "midi": 78,
      "time": 6.429,
      "duration": 0.214,
      "velocity": 0.71,
      "hand": "right"
    },
    {
      "midi": 65,
      "time": 6.643,
      "duration": 0.214,
      "velocity": 0.71,
      "hand": "right"
    },
    {
      "midi": 71,
      "time": 6.643,
      "duration": 0.429,
      "velocity": 0.71,
      "hand": "right"
    },
    {
      "midi": 64,
      "time": 6.857,
      "duration": 0.214,
      "velocity": 0.71,
      "hand": "right"
    },
    {
      "midi": 68,
      "time": 6.857,
      "duration": 0.214,
      "velocity": 0.71,
      "hand": "right"
    },
    {
      "midi": 56,
      "time": 7.071,
      "duration": 0.214,
      "velocity": 0.71,
      "hand": "left"
    },
    {
      "midi": 64,
      "time": 7.071,
      "duration": 0.429,
      "velocity": 0.71,
      "hand": "right"
    },
    {
      "midi": 74,
      "time": 7.071,
      "duration": 0.214,
      "velocity": 0.71,
      "hand": "right"
    },
    {
      "midi": 57,
      "time": 7.286,
      "duration": 0.214,
      "velocity": 0.71,
      "hand": "left"
    },
    {
      "midi": 72,
      "time": 7.286,
      "duration": 0.214,
      "velocity": 0.71,
      "hand": "right"
    },
    {
      "midi": 60,
      "time": 7.5,
      "duration": 0.214,
      "velocity": 0.71,
      "hand": "right"
    },
    {
      "midi": 63,
      "time": 7.5,
      "duration": 0.214,
      "velocity": 0.71,
      "hand": "right"
    },
    {
      "midi": 66,
      "time": 7.5,
      "duration": 0.214,
      "velocity": 0.71,
      "hand": "right"
    },
    {
      "midi": 59,
      "time": 7.714,
      "duration": 0.214,
      "velocity": 0.71,
      "hand": "left"
    },
    {
      "midi": 62,
      "time": 7.714,
      "duration": 0.214,
      "velocity": 0.71,
      "hand": "right"
    },
    {
      "midi": 67,
      "time": 7.714,
      "duration": 0.429,
      "velocity": 0.71,
      "hand": "right"
    },
    {
      "midi": 60,
      "time": 7.929,
      "duration": 0.214,
      "velocity": 0.71,
      "hand": "right"
    },
    {
      "midi": 64,
      "time": 7.929,
      "duration": 0.429,
      "velocity": 0.71,
      "hand": "right"
    },
    {
      "midi": 48,
      "time": 8.143,
      "duration": 0.214,
      "velocity": 0.71,
      "hand": "left"
    },
    {
      "midi": 69,
      "time": 8.143,
      "duration": 0.643,
      "velocity": 0.71,
      "hand": "right"
    },
    {
      "midi": 45,
      "time": 8.357,
      "duration": 0.214,
      "velocity": 0.71,
      "hand": "left"
    },
    {
      "midi": 65,
      "time": 8.357,
      "duration": 0.214,
      "velocity": 0.71,
      "hand": "right"
    },
    {
      "midi": 50,
      "time": 8.571,
      "duration": 0.214,
      "velocity": 0.71,
      "hand": "left"
    },
    {
      "midi": 66,
      "time": 8.571,
      "duration": 0.643,
      "velocity": 0.71,
      "hand": "right"
    },
    {
      "midi": 62,
      "time": 8.786,
      "duration": 0.214,
      "velocity": 0.71,
      "hand": "right"
    },
    {
      "midi": 71,
      "time": 8.786,
      "duration": 0.643,
      "velocity": 0.71,
      "hand": "right"
    },
    {
      "midi": 59,
      "time": 9,
      "duration": 0.214,
      "velocity": 0.71,
      "hand": "left"
    },
    {
      "midi": 64,
      "time": 9.214,
      "duration": 0.214,
      "velocity": 0.71,
      "hand": "right"
    },
    {
      "midi": 67,
      "time": 9.214,
      "duration": 0.429,
      "velocity": 0.71,
      "hand": "right"
    },
    {
      "midi": 52,
      "time": 9.429,
      "duration": 0.214,
      "velocity": 0.71,
      "hand": "left"
    },
    {
      "midi": 72,
      "time": 9.429,
      "duration": 0.643,
      "velocity": 0.71,
      "hand": "right"
    },
    {
      "midi": 48,
      "time": 9.643,
      "duration": 0.214,
      "velocity": 0.71,
      "hand": "left"
    },
    {
      "midi": 68,
      "time": 9.643,
      "duration": 0.214,
      "velocity": 0.71,
      "hand": "right"
    },
    {
      "midi": 54,
      "time": 9.857,
      "duration": 0.214,
      "velocity": 0.71,
      "hand": "left"
    },
    {
      "midi": 69,
      "time": 9.857,
      "duration": 0.429,
      "velocity": 0.71,
      "hand": "right"
    },
    {
      "midi": 66,
      "time": 10.071,
      "duration": 0.214,
      "velocity": 0.71,
      "hand": "right"
    },
    {
      "midi": 74,
      "time": 10.071,
      "duration": 0.643,
      "velocity": 0.71,
      "hand": "right"
    },
    {
      "midi": 62,
      "time": 10.286,
      "duration": 0.214,
      "velocity": 0.71,
      "hand": "right"
    },
    {
      "midi": 70,
      "time": 10.286,
      "duration": 0.214,
      "velocity": 0.71,
      "hand": "right"
    },
    {
      "midi": 67,
      "time": 10.5,
      "duration": 0.214,
      "velocity": 0.71,
      "hand": "right"
    },
    {
      "midi": 71,
      "time": 10.5,
      "duration": 0.214,
      "velocity": 0.71,
      "hand": "right"
    },
    {
      "midi": 55,
      "time": 10.714,
      "duration": 0.643,
      "velocity": 0.71,
      "hand": "left"
    },
    {
      "midi": 71,
      "time": 10.714,
      "duration": 0.214,
      "velocity": 0.71,
      "hand": "right"
    },
    {
      "midi": 59,
      "time": 10.929,
      "duration": 0.214,
      "velocity": 0.71,
      "hand": "left"
    },
    {
      "midi": 76,
      "time": 10.929,
      "duration": 0.214,
      "velocity": 0.71,
      "hand": "right"
    },
    {
      "midi": 64,
      "time": 11.143,
      "duration": 0.429,
      "velocity": 0.71,
      "hand": "right"
    },
    {
      "midi": 83,
      "time": 11.143,
      "duration": 0.214,
      "velocity": 0.71,
      "hand": "right"
    },
    {
      "midi": 57,
      "time": 11.357,
      "duration": 0.643,
      "velocity": 0.71,
      "hand": "left"
    },
    {
      "midi": 73,
      "time": 11.357,
      "duration": 0.214,
      "velocity": 0.71,
      "hand": "right"
    },
    {
      "midi": 61,
      "time": 11.571,
      "duration": 0.214,
      "velocity": 0.71,
      "hand": "right"
    },
    {
      "midi": 78,
      "time": 11.571,
      "duration": 0.214,
      "velocity": 0.71,
      "hand": "right"
    },
    {
      "midi": 66,
      "time": 11.786,
      "duration": 0.429,
      "velocity": 0.71,
      "hand": "right"
    },
    {
      "midi": 85,
      "time": 11.786,
      "duration": 0.214,
      "velocity": 0.71,
      "hand": "right"
    },
    {
      "midi": 59,
      "time": 12,
      "duration": 0.643,
      "velocity": 0.71,
      "hand": "left"
    },
    {
      "midi": 74,
      "time": 12,
      "duration": 0.214,
      "velocity": 0.71,
      "hand": "right"
    },
    {
      "midi": 62,
      "time": 12.214,
      "duration": 0.214,
      "velocity": 0.71,
      "hand": "right"
    },
    {
      "midi": 79,
      "time": 12.214,
      "duration": 0.214,
      "velocity": 0.71,
      "hand": "right"
    },
    {
      "midi": 67,
      "time": 12.429,
      "duration": 0.429,
      "velocity": 0.71,
      "hand": "right"
    },
    {
      "midi": 86,
      "time": 12.429,
      "duration": 0.214,
      "velocity": 0.71,
      "hand": "right"
    },
    {
      "midi": 61,
      "time": 12.643,
      "duration": 0.429,
      "velocity": 0.71,
      "hand": "right"
    },
    {
      "midi": 76,
      "time": 12.643,
      "duration": 0.214,
      "velocity": 0.71,
      "hand": "right"
    },
    {
      "midi": 64,
      "time": 12.857,
      "duration": 0.214,
      "velocity": 0.71,
      "hand": "right"
    },
    {
      "midi": 81,
      "time": 12.857,
      "duration": 0.214,
      "velocity": 0.71,
      "hand": "right"
    },
    {
      "midi": 62,
      "time": 13.071,
      "duration": 0.214,
      "velocity": 0.71,
      "hand": "right"
    },
    {
      "midi": 66,
      "time": 13.071,
      "duration": 0.214,
      "velocity": 0.71,
      "hand": "right"
    },
    {
      "midi": 78,
      "time": 13.071,
      "duration": 0.214,
      "velocity": 0.71,
      "hand": "right"
    },
    {
      "midi": 74,
      "time": 13.286,
      "duration": 0.214,
      "velocity": 0.71,
      "hand": "right"
    },
    {
      "midi": 59,
      "time": 13.5,
      "duration": 0.214,
      "velocity": 0.71,
      "hand": "left"
    },
    {
      "midi": 68,
      "time": 13.5,
      "duration": 0.214,
      "velocity": 0.71,
      "hand": "right"
    },
    {
      "midi": 86,
      "time": 13.5,
      "duration": 0.214,
      "velocity": 0.71,
      "hand": "right"
    },
    {
      "midi": 57,
      "time": 13.714,
      "duration": 0.214,
      "velocity": 0.71,
      "hand": "left"
    },
    {
      "midi": 69,
      "time": 13.714,
      "duration": 0.214,
      "velocity": 0.71,
      "hand": "right"
    },
    {
      "midi": 85,
      "time": 13.714,
      "duration": 0.214,
      "velocity": 0.71,
      "hand": "right"
    },
    {
      "midi": 80,
      "time": 13.929,
      "duration": 0.214,
      "velocity": 0.71,
      "hand": "right"
    },
    {
      "midi": 69,
      "time": 14.143,
      "duration": 0.214,
      "velocity": 0.71,
      "hand": "right"
    },
    {
      "midi": 81,
      "time": 14.143,
      "duration": 0.214,
      "velocity": 0.71,
      "hand": "right"
    },
    {
      "midi": 66,
      "time": 14.357,
      "duration": 0.214,
      "velocity": 0.71,
      "hand": "right"
    },
    {
      "midi": 81,
      "time": 14.357,
      "duration": 0.643,
      "velocity": 0.71,
      "hand": "right"
    },
    {
      "midi": 62,
      "time": 14.571,
      "duration": 0.214,
      "velocity": 0.71,
      "hand": "right"
    },
    {
      "midi": 74,
      "time": 14.786,
      "duration": 0.214,
      "velocity": 0.71,
      "hand": "right"
    },
    {
      "midi": 73,
      "time": 15,
      "duration": 0.214,
      "velocity": 0.71,
      "hand": "right"
    },
    {
      "midi": 81,
      "time": 15,
      "duration": 0.643,
      "velocity": 0.71,
      "hand": "right"
    },
    {
      "midi": 68,
      "time": 15.214,
      "duration": 0.214,
      "velocity": 0.71,
      "hand": "right"
    },
    {
      "midi": 57,
      "time": 15.429,
      "duration": 0.214,
      "velocity": 0.71,
      "hand": "left"
    },
    {
      "midi": 69,
      "time": 15.429,
      "duration": 0.214,
      "velocity": 0.71,
      "hand": "right"
    },
    {
      "midi": 53,
      "time": 15.643,
      "duration": 0.214,
      "velocity": 0.71,
      "hand": "left"
    },
    {
      "midi": 69,
      "time": 15.643,
      "duration": 0.643,
      "velocity": 0.71,
      "hand": "right"
    },
    {
      "midi": 74,
      "time": 15.643,
      "duration": 0.643,
      "velocity": 0.71,
      "hand": "right"
    },
    {
      "midi": 81,
      "time": 15.643,
      "duration": 0.643,
      "velocity": 0.71,
      "hand": "right"
    },
    {
      "midi": 50,
      "time": 15.857,
      "duration": 0.214,
      "velocity": 0.71,
      "hand": "left"
    },
    {
      "midi": 62,
      "time": 16.071,
      "duration": 0.214,
      "velocity": 0.71,
      "hand": "right"
    },
    {
      "midi": 61,
      "time": 16.286,
      "duration": 0.214,
      "velocity": 0.71,
      "hand": "right"
    },
    {
      "midi": 69,
      "time": 16.286,
      "duration": 0.643,
      "velocity": 0.71,
      "hand": "right"
    },
    {
      "midi": 76,
      "time": 16.286,
      "duration": 0.643,
      "velocity": 0.71,
      "hand": "right"
    },
    {
      "midi": 81,
      "time": 16.286,
      "duration": 0.643,
      "velocity": 0.71,
      "hand": "right"
    },
    {
      "midi": 56,
      "time": 16.5,
      "duration": 0.214,
      "velocity": 0.71,
      "hand": "left"
    },
    {
      "midi": 57,
      "time": 16.714,
      "duration": 0.214,
      "velocity": 0.71,
      "hand": "left"
    },
    {
      "midi": 60,
      "time": 16.929,
      "duration": 0.214,
      "velocity": 0.71,
      "hand": "right"
    },
    {
      "midi": 69,
      "time": 16.929,
      "duration": 0.643,
      "velocity": 0.71,
      "hand": "right"
    },
    {
      "midi": 75,
      "time": 16.929,
      "duration": 0.643,
      "velocity": 0.71,
      "hand": "right"
    },
    {
      "midi": 81,
      "time": 16.929,
      "duration": 0.643,
      "velocity": 0.71,
      "hand": "right"
    },
    {
      "midi": 54,
      "time": 17.143,
      "duration": 0.214,
      "velocity": 0.71,
      "hand": "left"
    },
    {
      "midi": 57,
      "time": 17.357,
      "duration": 0.214,
      "velocity": 0.71,
      "hand": "left"
    },
    {
      "midi": 46,
      "time": 17.571,
      "duration": 0.214,
      "velocity": 0.71,
      "hand": "left"
    },
    {
      "midi": 70,
      "time": 17.571,
      "duration": 0.643,
      "velocity": 0.71,
      "hand": "right"
    },
    {
      "midi": 74,
      "time": 17.571,
      "duration": 0.643,
      "velocity": 0.71,
      "hand": "right"
    },
    {
      "midi": 81,
      "time": 17.571,
      "duration": 0.643,
      "velocity": 0.71,
      "hand": "right"
    },
    {
      "midi": 58,
      "time": 17.786,
      "duration": 0.214,
      "velocity": 0.71,
      "hand": "left"
    },
    {
      "midi": 55,
      "time": 18,
      "duration": 0.214,
      "velocity": 0.71,
      "hand": "left"
    },
    {
      "midi": 51,
      "time": 18.214,
      "duration": 0.214,
      "velocity": 0.71,
      "hand": "left"
    },
    {
      "midi": 70,
      "time": 18.214,
      "duration": 0.643,
      "velocity": 0.71,
      "hand": "right"
    },
    {
      "midi": 75,
      "time": 18.214,
      "duration": 0.643,
      "velocity": 0.71,
      "hand": "right"
    },
    {
      "midi": 79,
      "time": 18.214,
      "duration": 0.643,
      "velocity": 0.71,
      "hand": "right"
    },
    {
      "midi": 55,
      "time": 18.429,
      "duration": 0.214,
      "velocity": 0.71,
      "hand": "left"
    },
    {
      "midi": 50,
      "time": 18.643,
      "duration": 0.214,
      "velocity": 0.71,
      "hand": "left"
    },
    {
      "midi": 49,
      "time": 18.857,
      "duration": 0.214,
      "velocity": 0.71,
      "hand": "left"
    },
    {
      "midi": 69,
      "time": 18.857,
      "duration": 0.214,
      "velocity": 0.71,
      "hand": "right"
    },
    {
      "midi": 76,
      "time": 18.857,
      "duration": 0.429,
      "velocity": 0.71,
      "hand": "right"
    },
    {
      "midi": 79,
      "time": 18.857,
      "duration": 0.429,
      "velocity": 0.71,
      "hand": "right"
    },
    {
      "midi": 45,
      "time": 19.071,
      "duration": 0.214,
      "velocity": 0.71,
      "hand": "left"
    },
    {
      "midi": 73,
      "time": 19.071,
      "duration": 0.214,
      "velocity": 0.71,
      "hand": "right"
    },
    {
      "midi": 47,
      "time": 19.286,
      "duration": 0.214,
      "velocity": 0.71,
      "hand": "left"
    },
    {
      "midi": 74,
      "time": 19.286,
      "duration": 0.214,
      "velocity": 0.71,
      "hand": "right"
    },
    {
      "midi": 78,
      "time": 19.286,
      "duration": 0.214,
      "velocity": 0.71,
      "hand": "right"
    },
    {
      "midi": 43,
      "time": 19.5,
      "duration": 0.214,
      "velocity": 0.71,
      "hand": "left"
    },
    {
      "midi": 71,
      "time": 19.5,
      "duration": 0.214,
      "velocity": 0.71,
      "hand": "right"
    },
    {
      "midi": 40,
      "time": 19.714,
      "duration": 0.214,
      "velocity": 0.71,
      "hand": "left"
    },
    {
      "midi": 76,
      "time": 19.714,
      "duration": 0.214,
      "velocity": 0.71,
      "hand": "right"
    },
    {
      "midi": 45,
      "time": 19.929,
      "duration": 0.214,
      "velocity": 0.71,
      "hand": "left"
    },
    {
      "midi": 64,
      "time": 19.929,
      "duration": 0.214,
      "velocity": 0.71,
      "hand": "right"
    },
    {
      "midi": 73,
      "time": 19.929,
      "duration": 0.214,
      "velocity": 0.71,
      "hand": "right"
    },
    {
      "midi": 38,
      "time": 20.143,
      "duration": 0.214,
      "velocity": 0.71,
      "hand": "left"
    },
    {
      "midi": 66,
      "time": 20.143,
      "duration": 0.214,
      "velocity": 0.71,
      "hand": "right"
    },
    {
      "midi": 74,
      "time": 20.143,
      "duration": 0.214,
      "velocity": 0.71,
      "hand": "right"
    },
    {
      "midi": 57,
      "time": 20.571,
      "duration": 0.214,
      "velocity": 0.71,
      "hand": "left"
    },
    {
      "midi": 54,
      "time": 20.786,
      "duration": 0.214,
      "velocity": 0.71,
      "hand": "left"
    },
    {
      "midi": 50,
      "time": 21,
      "duration": 0.214,
      "velocity": 0.71,
      "hand": "left"
    },
    {
      "midi": 62,
      "time": 21.214,
      "duration": 0.214,
      "velocity": 0.71,
      "hand": "right"
    },
    {
      "midi": 61,
      "time": 21.429,
      "duration": 0.214,
      "velocity": 0.71,
      "hand": "right"
    },
    {
      "midi": 56,
      "time": 21.643,
      "duration": 0.214,
      "velocity": 0.71,
      "hand": "left"
    },
    {
      "midi": 57,
      "time": 21.857,
      "duration": 0.214,
      "velocity": 0.71,
      "hand": "left"
    },
    {
      "midi": 69,
      "time": 21.857,
      "duration": 0.214,
      "velocity": 0.71,
      "hand": "right"
    },
    {
      "midi": 72,
      "time": 22.071,
      "duration": 0.214,
      "velocity": 0.71,
      "hand": "right"
    },
    {
      "midi": 76,
      "time": 22.286,
      "duration": 0.214,
      "velocity": 0.71,
      "hand": "right"
    },
    {
      "midi": 46,
      "time": 22.5,
      "duration": 0.214,
      "velocity": 0.71,
      "hand": "left"
    },
    {
      "midi": 64,
      "time": 22.5,
      "duration": 0.214,
      "velocity": 0.71,
      "hand": "right"
    },
    {
      "midi": 47,
      "time": 22.714,
      "duration": 0.429,
      "velocity": 0.71,
      "hand": "left"
    },
    {
      "midi": 63,
      "time": 22.714,
      "duration": 0.214,
      "velocity": 0.71,
      "hand": "right"
    },
    {
      "midi": 67,
      "time": 22.929,
      "duration": 0.214,
      "velocity": 0.71,
      "hand": "right"
    },
    {
      "midi": 59,
      "time": 23.143,
      "duration": 0.214,
      "velocity": 0.71,
      "hand": "left"
    },
    {
      "midi": 66,
      "time": 23.143,
      "duration": 0.214,
      "velocity": 0.71,
      "hand": "right"
    },
    {
      "midi": 55,
      "time": 23.357,
      "duration": 0.214,
      "velocity": 0.71,
      "hand": "left"
    },
    {
      "midi": 52,
      "time": 23.571,
      "duration": 0.214,
      "velocity": 0.71,
      "hand": "left"
    },
    {
      "midi": 64,
      "time": 23.786,
      "duration": 0.214,
      "velocity": 0.71,
      "hand": "right"
    },
    {
      "midi": 63,
      "time": 24,
      "duration": 0.214,
      "velocity": 0.71,
      "hand": "right"
    },
    {
      "midi": 58,
      "time": 24.214,
      "duration": 0.214,
      "velocity": 0.71,
      "hand": "left"
    },
    {
      "midi": 59,
      "time": 24.429,
      "duration": 0.214,
      "velocity": 0.71,
      "hand": "left"
    },
    {
      "midi": 71,
      "time": 24.429,
      "duration": 0.214,
      "velocity": 0.71,
      "hand": "right"
    },
    {
      "midi": 74,
      "time": 24.643,
      "duration": 0.214,
      "velocity": 0.71,
      "hand": "right"
    },
    {
      "midi": 78,
      "time": 24.857,
      "duration": 0.214,
      "velocity": 0.71,
      "hand": "right"
    },
    {
      "midi": 66,
      "time": 25.071,
      "duration": 0.214,
      "velocity": 0.71,
      "hand": "right"
    },
    {
      "midi": 65,
      "time": 25.286,
      "duration": 0.214,
      "velocity": 0.71,
      "hand": "right"
    },
    {
      "midi": 60,
      "time": 25.5,
      "duration": 0.214,
      "velocity": 0.71,
      "hand": "right"
    },
    {
      "midi": 69,
      "time": 25.5,
      "duration": 0.214,
      "velocity": 0.71,
      "hand": "right"
    },
    {
      "midi": 61,
      "time": 25.714,
      "duration": 0.214,
      "velocity": 0.71,
      "hand": "right"
    },
    {
      "midi": 68,
      "time": 25.714,
      "duration": 0.214,
      "velocity": 0.71,
      "hand": "right"
    },
    {
      "midi": 55,
      "time": 25.929,
      "duration": 0.214,
      "velocity": 0.71,
      "hand": "left"
    },
    {
      "midi": 71,
      "time": 25.929,
      "duration": 0.214,
      "velocity": 0.71,
      "hand": "right"
    },
    {
      "midi": 54,
      "time": 26.143,
      "duration": 0.214,
      "velocity": 0.71,
      "hand": "left"
    },
    {
      "midi": 70,
      "time": 26.143,
      "duration": 0.214,
      "velocity": 0.71,
      "hand": "right"
    },
    {
      "midi": 58,
      "time": 26.357,
      "duration": 0.214,
      "velocity": 0.71,
      "hand": "left"
    },
    {
      "midi": 76,
      "time": 26.357,
      "duration": 0.214,
      "velocity": 0.71,
      "hand": "right"
    },
    {
      "midi": 59,
      "time": 26.571,
      "duration": 0.214,
      "velocity": 0.71,
      "hand": "left"
    },
    {
      "midi": 75,
      "time": 26.571,
      "duration": 0.214,
      "velocity": 0.71,
      "hand": "right"
    },
    {
      "midi": 53,
      "time": 26.786,
      "duration": 0.214,
      "velocity": 0.71,
      "hand": "left"
    },
    {
      "midi": 81,
      "time": 26.786,
      "duration": 0.214,
      "velocity": 0.71,
      "hand": "right"
    },
    {
      "midi": 52,
      "time": 27,
      "duration": 0.214,
      "velocity": 0.71,
      "hand": "left"
    },
    {
      "midi": 80,
      "time": 27,
      "duration": 0.214,
      "velocity": 0.71,
      "hand": "right"
    },
    {
      "midi": 46,
      "time": 27.214,
      "duration": 0.214,
      "velocity": 0.71,
      "hand": "left"
    },
    {
      "midi": 86,
      "time": 27.214,
      "duration": 0.214,
      "velocity": 0.71,
      "hand": "right"
    },
    {
      "midi": 45,
      "time": 27.429,
      "duration": 0.214,
      "velocity": 0.71,
      "hand": "left"
    },
    {
      "midi": 85,
      "time": 27.429,
      "duration": 0.214,
      "velocity": 0.71,
      "hand": "right"
    },
    {
      "midi": 51,
      "time": 27.643,
      "duration": 0.214,
      "velocity": 0.71,
      "hand": "left"
    },
    {
      "midi": 79,
      "time": 27.643,
      "duration": 0.214,
      "velocity": 0.71,
      "hand": "right"
    },
    {
      "midi": 50,
      "time": 27.857,
      "duration": 0.214,
      "velocity": 0.71,
      "hand": "left"
    },
    {
      "midi": 78,
      "time": 27.857,
      "duration": 0.214,
      "velocity": 0.71,
      "hand": "right"
    },
    {
      "midi": 56,
      "time": 28.071,
      "duration": 0.214,
      "velocity": 0.71,
      "hand": "left"
    },
    {
      "midi": 84,
      "time": 28.071,
      "duration": 0.214,
      "velocity": 0.71,
      "hand": "right"
    },
    {
      "midi": 55,
      "time": 28.286,
      "duration": 0.214,
      "velocity": 0.71,
      "hand": "left"
    },
    {
      "midi": 83,
      "time": 28.286,
      "duration": 0.214,
      "velocity": 0.71,
      "hand": "right"
    },
    {
      "midi": 59,
      "time": 28.5,
      "duration": 0.214,
      "velocity": 0.71,
      "hand": "left"
    },
    {
      "midi": 77,
      "time": 28.5,
      "duration": 0.214,
      "velocity": 0.71,
      "hand": "right"
    },
    {
      "midi": 60,
      "time": 28.714,
      "duration": 0.214,
      "velocity": 0.71,
      "hand": "right"
    },
    {
      "midi": 76,
      "time": 28.714,
      "duration": 0.214,
      "velocity": 0.71,
      "hand": "right"
    },
    {
      "midi": 62,
      "time": 28.929,
      "duration": 0.214,
      "velocity": 0.71,
      "hand": "right"
    },
    {
      "midi": 74,
      "time": 28.929,
      "duration": 0.214,
      "velocity": 0.71,
      "hand": "right"
    },
    {
      "midi": 64,
      "time": 29.143,
      "duration": 0.429,
      "velocity": 0.71,
      "hand": "right"
    },
    {
      "midi": 72,
      "time": 29.143,
      "duration": 0.214,
      "velocity": 0.71,
      "hand": "right"
    },
    {
      "midi": 79,
      "time": 29.357,
      "duration": 0.214,
      "velocity": 0.71,
      "hand": "right"
    },
    {
      "midi": 62,
      "time": 29.571,
      "duration": 0.214,
      "velocity": 0.71,
      "hand": "right"
    },
    {
      "midi": 71,
      "time": 29.571,
      "duration": 0.214,
      "velocity": 0.71,
      "hand": "right"
    },
    {
      "midi": 60,
      "time": 29.786,
      "duration": 0.429,
      "velocity": 0.71,
      "hand": "right"
    },
    {
      "midi": 69,
      "time": 29.786,
      "duration": 0.214,
      "velocity": 0.71,
      "hand": "right"
    },
    {
      "midi": 76,
      "time": 30,
      "duration": 0.214,
      "velocity": 0.71,
      "hand": "right"
    },
    {
      "midi": 61,
      "time": 30.214,
      "duration": 0.214,
      "velocity": 0.71,
      "hand": "right"
    },
    {
      "midi": 67,
      "time": 30.214,
      "duration": 0.214,
      "velocity": 0.71,
      "hand": "right"
    },
    {
      "midi": 62,
      "time": 30.429,
      "duration": 0.429,
      "velocity": 0.71,
      "hand": "right"
    },
    {
      "midi": 66,
      "time": 30.429,
      "duration": 0.214,
      "velocity": 0.71,
      "hand": "right"
    },
    {
      "midi": 69,
      "time": 30.643,
      "duration": 0.214,
      "velocity": 0.71,
      "hand": "right"
    },
    {
      "midi": 74,
      "time": 30.857,
      "duration": 0.214,
      "velocity": 0.71,
      "hand": "right"
    },
    {
      "midi": 50,
      "time": 31.071,
      "duration": 0.429,
      "velocity": 0.71,
      "hand": "left"
    },
    {
      "midi": 55,
      "time": 31.071,
      "duration": 0.429,
      "velocity": 0.71,
      "hand": "left"
    },
    {
      "midi": 58,
      "time": 31.071,
      "duration": 0.429,
      "velocity": 0.71,
      "hand": "left"
    },
    {
      "midi": 70,
      "time": 31.071,
      "duration": 0.214,
      "velocity": 0.71,
      "hand": "right"
    },
    {
      "midi": 67,
      "time": 31.286,
      "duration": 0.214,
      "velocity": 0.71,
      "hand": "right"
    },
    {
      "midi": 79,
      "time": 31.5,
      "duration": 0.214,
      "velocity": 0.71,
      "hand": "right"
    },
    {
      "midi": 50,
      "time": 31.714,
      "duration": 0.429,
      "velocity": 0.71,
      "hand": "left"
    },
    {
      "midi": 54,
      "time": 31.714,
      "duration": 0.429,
      "velocity": 0.71,
      "hand": "left"
    },
    {
      "midi": 57,
      "time": 31.714,
      "duration": 0.429,
      "velocity": 0.71,
      "hand": "left"
    },
    {
      "midi": 78,
      "time": 31.714,
      "duration": 0.214,
      "velocity": 0.71,
      "hand": "right"
    },
    {
      "midi": 73,
      "time": 31.929,
      "duration": 0.214,
      "velocity": 0.71,
      "hand": "right"
    },
    {
      "midi": 74,
      "time": 32.143,
      "duration": 0.214,
      "velocity": 0.71,
      "hand": "right"
    },
    {
      "midi": 50,
      "time": 32.357,
      "duration": 0.429,
      "velocity": 0.71,
      "hand": "left"
    },
    {
      "midi": 56,
      "time": 32.357,
      "duration": 0.429,
      "velocity": 0.71,
      "hand": "left"
    },
    {
      "midi": 59,
      "time": 32.357,
      "duration": 0.429,
      "velocity": 0.71,
      "hand": "left"
    },
    {
      "midi": 77,
      "time": 32.357,
      "duration": 0.214,
      "velocity": 0.71,
      "hand": "right"
    },
    {
      "midi": 76,
      "time": 32.571,
      "duration": 0.214,
      "velocity": 0.71,
      "hand": "right"
    },
    {
      "midi": 68,
      "time": 32.786,
      "duration": 0.214,
      "velocity": 0.71,
      "hand": "right"
    },
    {
      "midi": 50,
      "time": 33,
      "duration": 0.429,
      "velocity": 0.71,
      "hand": "left"
    },
    {
      "midi": 57,
      "time": 33,
      "duration": 0.429,
      "velocity": 0.71,
      "hand": "left"
    },
    {
      "midi": 60,
      "time": 33,
      "duration": 0.429,
      "velocity": 0.71,
      "hand": "right"
    },
    {
      "midi": 69,
      "time": 33,
      "duration": 0.214,
      "velocity": 0.71,
      "hand": "right"
    },
    {
      "midi": 72,
      "time": 33.214,
      "duration": 0.214,
      "velocity": 0.71,
      "hand": "right"
    },
    {
      "midi": 69,
      "time": 33.429,
      "duration": 0.214,
      "velocity": 0.71,
      "hand": "right"
    },
    {
      "midi": 50,
      "time": 33.643,
      "duration": 0.429,
      "velocity": 0.71,
      "hand": "left"
    },
    {
      "midi": 54,
      "time": 33.643,
      "duration": 0.429,
      "velocity": 0.71,
      "hand": "left"
    },
    {
      "midi": 57,
      "time": 33.643,
      "duration": 0.429,
      "velocity": 0.71,
      "hand": "left"
    },
    {
      "midi": 60,
      "time": 33.643,
      "duration": 0.429,
      "velocity": 0.71,
      "hand": "right"
    },
    {
      "midi": 76,
      "time": 33.643,
      "duration": 0.214,
      "velocity": 0.71,
      "hand": "right"
    },
    {
      "midi": 74,
      "time": 33.857,
      "duration": 0.214,
      "velocity": 0.71,
      "hand": "right"
    },
    {
      "midi": 66,
      "time": 34.071,
      "duration": 0.214,
      "velocity": 0.71,
      "hand": "right"
    },
    {
      "midi": 50,
      "time": 34.286,
      "duration": 0.429,
      "velocity": 0.71,
      "hand": "left"
    },
    {
      "midi": 55,
      "time": 34.286,
      "duration": 0.429,
      "velocity": 0.71,
      "hand": "left"
    },
    {
      "midi": 58,
      "time": 34.286,
      "duration": 0.429,
      "velocity": 0.71,
      "hand": "left"
    },
    {
      "midi": 67,
      "time": 34.286,
      "duration": 0.214,
      "velocity": 0.71,
      "hand": "right"
    },
    {
      "midi": 74,
      "time": 34.5,
      "duration": 0.214,
      "velocity": 0.71,
      "hand": "right"
    },
    {
      "midi": 70,
      "time": 34.714,
      "duration": 0.214,
      "velocity": 0.71,
      "hand": "right"
    },
    {
      "midi": 50,
      "time": 34.929,
      "duration": 0.429,
      "velocity": 0.71,
      "hand": "left"
    },
    {
      "midi": 55,
      "time": 34.929,
      "duration": 0.429,
      "velocity": 0.71,
      "hand": "left"
    },
    {
      "midi": 57,
      "time": 34.929,
      "duration": 0.429,
      "velocity": 0.71,
      "hand": "left"
    },
    {
      "midi": 61,
      "time": 34.929,
      "duration": 0.429,
      "velocity": 0.71,
      "hand": "right"
    },
    {
      "midi": 82,
      "time": 34.929,
      "duration": 0.214,
      "velocity": 0.71,
      "hand": "right"
    },
    {
      "midi": 81,
      "time": 35.143,
      "duration": 0.214,
      "velocity": 0.71,
      "hand": "right"
    },
    {
      "midi": 73,
      "time": 35.357,
      "duration": 0.214,
      "velocity": 0.71,
      "hand": "right"
    },
    {
      "midi": 50,
      "time": 35.571,
      "duration": 0.214,
      "velocity": 0.71,
      "hand": "left"
    },
    {
      "midi": 54,
      "time": 35.571,
      "duration": 0.214,
      "velocity": 0.71,
      "hand": "left"
    },
    {
      "midi": 57,
      "time": 35.571,
      "duration": 0.214,
      "velocity": 0.71,
      "hand": "left"
    },
    {
      "midi": 62,
      "time": 35.571,
      "duration": 0.214,
      "velocity": 0.71,
      "hand": "right"
    },
    {
      "midi": 74,
      "time": 35.571,
      "duration": 0.214,
      "velocity": 0.71,
      "hand": "right"
    },
    {
      "midi": 86,
      "time": 35.786,
      "duration": 0.214,
      "velocity": 0.71,
      "hand": "right"
    },
    {
      "midi": 74,
      "time": 36,
      "duration": 0.214,
      "velocity": 0.71,
      "hand": "right"
    },
    {
      "midi": 86,
      "time": 36,
      "duration": 0.214,
      "velocity": 0.71,
      "hand": "right"
    },
    {
      "midi": 71,
      "time": 36.214,
      "duration": 0.214,
      "velocity": 0.71,
      "hand": "right"
    },
    {
      "midi": 86,
      "time": 36.214,
      "duration": 0.643,
      "velocity": 0.71,
      "hand": "right"
    },
    {
      "midi": 67,
      "time": 36.429,
      "duration": 0.214,
      "velocity": 0.71,
      "hand": "right"
    },
    {
      "midi": 79,
      "time": 36.643,
      "duration": 0.214,
      "velocity": 0.71,
      "hand": "right"
    },
    {
      "midi": 78,
      "time": 36.857,
      "duration": 0.214,
      "velocity": 0.71,
      "hand": "right"
    },
    {
      "midi": 86,
      "time": 36.857,
      "duration": 0.643,
      "velocity": 0.71,
      "hand": "right"
    },
    {
      "midi": 73,
      "time": 37.071,
      "duration": 0.214,
      "velocity": 0.71,
      "hand": "right"
    },
    {
      "midi": 62,
      "time": 37.286,
      "duration": 0.214,
      "velocity": 0.71,
      "hand": "right"
    },
    {
      "midi": 74,
      "time": 37.286,
      "duration": 0.214,
      "velocity": 0.71,
      "hand": "right"
    },
    {
      "midi": 58,
      "time": 37.5,
      "duration": 0.214,
      "velocity": 0.71,
      "hand": "left"
    },
    {
      "midi": 74,
      "time": 37.5,
      "duration": 0.643,
      "velocity": 0.71,
      "hand": "right"
    },
    {
      "midi": 79,
      "time": 37.5,
      "duration": 0.643,
      "velocity": 0.71,
      "hand": "right"
    },
    {
      "midi": 86,
      "time": 37.5,
      "duration": 0.643,
      "velocity": 0.71,
      "hand": "right"
    },
    {
      "midi": 55,
      "time": 37.714,
      "duration": 0.214,
      "velocity": 0.71,
      "hand": "left"
    },
    {
      "midi": 67,
      "time": 37.929,
      "duration": 0.214,
      "velocity": 0.71,
      "hand": "right"
    },
    {
      "midi": 66,
      "time": 38.143,
      "duration": 0.214,
      "velocity": 0.71,
      "hand": "right"
    },
    {
      "midi": 74,
      "time": 38.143,
      "duration": 0.643,
      "velocity": 0.71,
      "hand": "right"
    },
    {
      "midi": 81,
      "time": 38.143,
      "duration": 0.643,
      "velocity": 0.71,
      "hand": "right"
    },
    {
      "midi": 86,
      "time": 38.143,
      "duration": 0.643,
      "velocity": 0.71,
      "hand": "right"
    },
    {
      "midi": 61,
      "time": 38.357,
      "duration": 0.214,
      "velocity": 0.71,
      "hand": "right"
    },
    {
      "midi": 62,
      "time": 38.571,
      "duration": 0.214,
      "velocity": 0.71,
      "hand": "right"
    },
    {
      "midi": 65,
      "time": 38.786,
      "duration": 0.214,
      "velocity": 0.71,
      "hand": "right"
    },
    {
      "midi": 74,
      "time": 38.786,
      "duration": 0.643,
      "velocity": 0.71,
      "hand": "right"
    },
    {
      "midi": 80,
      "time": 38.786,
      "duration": 0.643,
      "velocity": 0.71,
      "hand": "right"
    },
    {
      "midi": 86,
      "time": 38.786,
      "duration": 0.643,
      "velocity": 0.71,
      "hand": "right"
    },
    {
      "midi": 59,
      "time": 39,
      "duration": 0.214,
      "velocity": 0.71,
      "hand": "left"
    },
    {
      "midi": 62,
      "time": 39.214,
      "duration": 0.214,
      "velocity": 0.71,
      "hand": "right"
    },
    {
      "midi": 51,
      "time": 39.429,
      "duration": 0.214,
      "velocity": 0.71,
      "hand": "left"
    },
    {
      "midi": 75,
      "time": 39.429,
      "duration": 0.643,
      "velocity": 0.71,
      "hand": "right"
    },
    {
      "midi": 79,
      "time": 39.429,
      "duration": 0.643,
      "velocity": 0.71,
      "hand": "right"
    },
    {
      "midi": 86,
      "time": 39.429,
      "duration": 0.643,
      "velocity": 0.71,
      "hand": "right"
    },
    {
      "midi": 63,
      "time": 39.643,
      "duration": 0.214,
      "velocity": 0.71,
      "hand": "right"
    },
    {
      "midi": 60,
      "time": 39.857,
      "duration": 0.214,
      "velocity": 0.71,
      "hand": "right"
    },
    {
      "midi": 56,
      "time": 40.071,
      "duration": 0.214,
      "velocity": 0.71,
      "hand": "left"
    },
    {
      "midi": 75,
      "time": 40.071,
      "duration": 0.643,
      "velocity": 0.71,
      "hand": "right"
    },
    {
      "midi": 80,
      "time": 40.071,
      "duration": 0.643,
      "velocity": 0.71,
      "hand": "right"
    },
    {
      "midi": 84,
      "time": 40.071,
      "duration": 0.643,
      "velocity": 0.71,
      "hand": "right"
    },
    {
      "midi": 60,
      "time": 40.286,
      "duration": 0.214,
      "velocity": 0.71,
      "hand": "right"
    },
    {
      "midi": 55,
      "time": 40.5,
      "duration": 0.214,
      "velocity": 0.71,
      "hand": "left"
    },
    {
      "midi": 54,
      "time": 40.714,
      "duration": 0.214,
      "velocity": 0.71,
      "hand": "left"
    },
    {
      "midi": 74,
      "time": 40.714,
      "duration": 0.214,
      "velocity": 0.71,
      "hand": "right"
    },
    {
      "midi": 81,
      "time": 40.714,
      "duration": 0.429,
      "velocity": 0.71,
      "hand": "right"
    },
    {
      "midi": 84,
      "time": 40.714,
      "duration": 0.429,
      "velocity": 0.71,
      "hand": "right"
    },
    {
      "midi": 50,
      "time": 40.929,
      "duration": 0.214,
      "velocity": 0.71,
      "hand": "left"
    },
    {
      "midi": 78,
      "time": 40.929,
      "duration": 0.214,
      "velocity": 0.71,
      "hand": "right"
    },
    {
      "midi": 52,
      "time": 41.143,
      "duration": 0.214,
      "velocity": 0.71,
      "hand": "left"
    },
    {
      "midi": 79,
      "time": 41.143,
      "duration": 0.214,
      "velocity": 0.71,
      "hand": "right"
    },
    {
      "midi": 83,
      "time": 41.143,
      "duration": 0.214,
      "velocity": 0.71,
      "hand": "right"
    },
    {
      "midi": 48,
      "time": 41.357,
      "duration": 0.214,
      "velocity": 0.71,
      "hand": "left"
    },
    {
      "midi": 76,
      "time": 41.357,
      "duration": 0.214,
      "velocity": 0.71,
      "hand": "right"
    },
    {
      "midi": 45,
      "time": 41.571,
      "duration": 0.214,
      "velocity": 0.71,
      "hand": "left"
    },
    {
      "midi": 81,
      "time": 41.571,
      "duration": 0.214,
      "velocity": 0.71,
      "hand": "right"
    },
    {
      "midi": 50,
      "time": 41.786,
      "duration": 0.214,
      "velocity": 0.71,
      "hand": "left"
    },
    {
      "midi": 69,
      "time": 41.786,
      "duration": 0.214,
      "velocity": 0.71,
      "hand": "right"
    },
    {
      "midi": 78,
      "time": 41.786,
      "duration": 0.214,
      "velocity": 0.71,
      "hand": "right"
    },
    {
      "midi": 43,
      "time": 42,
      "duration": 0.643,
      "velocity": 0.71,
      "hand": "left"
    },
    {
      "midi": 55,
      "time": 42,
      "duration": 0.643,
      "velocity": 0.71,
      "hand": "left"
    },
    {
      "midi": 71,
      "time": 42,
      "duration": 0.214,
      "velocity": 0.71,
      "hand": "right"
    },
    {
      "midi": 79,
      "time": 42,
      "duration": 0.214,
      "velocity": 0.71,
      "hand": "right"
    },
    {
      "midi": 83,
      "time": 42.214,
      "duration": 0.214,
      "velocity": 0.71,
      "hand": "right"
    },
    {
      "midi": 73,
      "time": 42.429,
      "duration": 0.214,
      "velocity": 0.71,
      "hand": "right"
    },
    {
      "midi": 76,
      "time": 42.429,
      "duration": 0.214,
      "velocity": 0.71,
      "hand": "right"
    },
    {
      "midi": 79,
      "time": 42.429,
      "duration": 0.214,
      "velocity": 0.71,
      "hand": "right"
    },
    {
      "midi": 43,
      "time": 42.643,
      "duration": 0.643,
      "velocity": 0.71,
      "hand": "left"
    },
    {
      "midi": 55,
      "time": 42.643,
      "duration": 0.643,
      "velocity": 0.71,
      "hand": "left"
    },
    {
      "midi": 74,
      "time": 42.643,
      "duration": 0.214,
      "velocity": 0.71,
      "hand": "right"
    },
    {
      "midi": 78,
      "time": 42.643,
      "duration": 0.214,
      "velocity": 0.71,
      "hand": "right"
    },
    {
      "midi": 86,
      "time": 42.857,
      "duration": 0.214,
      "velocity": 0.71,
      "hand": "right"
    },
    {
      "midi": 71,
      "time": 43.071,
      "duration": 0.214,
      "velocity": 0.71,
      "hand": "right"
    },
    {
      "midi": 74,
      "time": 43.071,
      "duration": 0.214,
      "velocity": 0.71,
      "hand": "right"
    },
    {
      "midi": 77,
      "time": 43.071,
      "duration": 0.214,
      "velocity": 0.71,
      "hand": "right"
    },
    {
      "midi": 43,
      "time": 43.286,
      "duration": 0.643,
      "velocity": 0.71,
      "hand": "left"
    },
    {
      "midi": 55,
      "time": 43.286,
      "duration": 0.643,
      "velocity": 0.71,
      "hand": "left"
    },
    {
      "midi": 72,
      "time": 43.286,
      "duration": 0.214,
      "velocity": 0.71,
      "hand": "right"
    },
    {
      "midi": 76,
      "time": 43.286,
      "duration": 0.214,
      "velocity": 0.71,
      "hand": "right"
    },
    {
      "midi": 84,
      "time": 43.5,
      "duration": 0.214,
      "velocity": 0.71,
      "hand": "right"
    },
    {
      "midi": 66,
      "time": 43.714,
      "duration": 0.214,
      "velocity": 0.71,
      "hand": "right"
    },
    {
      "midi": 72,
      "time": 43.714,
      "duration": 0.214,
      "velocity": 0.71,
      "hand": "right"
    },
    {
      "midi": 75,
      "time": 43.714,
      "duration": 0.214,
      "velocity": 0.71,
      "hand": "right"
    },
    {
      "midi": 43,
      "time": 43.929,
      "duration": 0.643,
      "velocity": 0.71,
      "hand": "left"
    },
    {
      "midi": 55,
      "time": 43.929,
      "duration": 0.643,
      "velocity": 0.71,
      "hand": "left"
    },
    {
      "midi": 67,
      "time": 43.929,
      "duration": 0.214,
      "velocity": 0.71,
      "hand": "right"
    },
    {
      "midi": 71,
      "time": 43.929,
      "duration": 0.214,
      "velocity": 0.71,
      "hand": "right"
    },
    {
      "midi": 74,
      "time": 43.929,
      "duration": 0.214,
      "velocity": 0.71,
      "hand": "right"
    },
    {
      "midi": 83,
      "time": 44.143,
      "duration": 0.214,
      "velocity": 0.71,
      "hand": "right"
    },
    {
      "midi": 65,
      "time": 44.357,
      "duration": 0.214,
      "velocity": 0.71,
      "hand": "right"
    },
    {
      "midi": 68,
      "time": 44.357,
      "duration": 0.214,
      "velocity": 0.71,
      "hand": "right"
    },
    {
      "midi": 74,
      "time": 44.357,
      "duration": 0.214,
      "velocity": 0.71,
      "hand": "right"
    },
    {
      "midi": 43,
      "time": 44.571,
      "duration": 0.643,
      "velocity": 0.71,
      "hand": "left"
    },
    {
      "midi": 55,
      "time": 44.571,
      "duration": 0.643,
      "velocity": 0.71,
      "hand": "left"
    },
    {
      "midi": 64,
      "time": 44.571,
      "duration": 0.214,
      "velocity": 0.71,
      "hand": "right"
    },
    {
      "midi": 69,
      "time": 44.571,
      "duration": 0.214,
      "velocity": 0.71,
      "hand": "right"
    },
    {
      "midi": 73,
      "time": 44.571,
      "duration": 0.214,
      "velocity": 0.71,
      "hand": "right"
    },
    {
      "midi": 81,
      "time": 44.786,
      "duration": 0.214,
      "velocity": 0.71,
      "hand": "right"
    },
    {
      "midi": 63,
      "time": 45,
      "duration": 0.214,
      "velocity": 0.71,
      "hand": "right"
    },
    {
      "midi": 66,
      "time": 45,
      "duration": 0.214,
      "velocity": 0.71,
      "hand": "right"
    },
    {
      "midi": 72,
      "time": 45,
      "duration": 0.214,
      "velocity": 0.71,
      "hand": "right"
    },
    {
      "midi": 43,
      "time": 45.214,
      "duration": 0.214,
      "velocity": 0.71,
      "hand": "left"
    },
    {
      "midi": 55,
      "time": 45.214,
      "duration": 0.214,
      "velocity": 0.71,
      "hand": "left"
    },
    {
      "midi": 62,
      "time": 45.214,
      "duration": 0.214,
      "velocity": 0.71,
      "hand": "right"
    },
    {
      "midi": 67,
      "time": 45.214,
      "duration": 0.214,
      "velocity": 0.71,
      "hand": "right"
    },
    {
      "midi": 71,
      "time": 45.214,
      "duration": 0.214,
      "velocity": 0.71,
      "hand": "right"
    },
    {
      "midi": 79,
      "time": 45.429,
      "duration": 0.214,
      "velocity": 0.71,
      "hand": "right"
    },
    {
      "midi": 39,
      "time": 45.643,
      "duration": 0.214,
      "velocity": 0.71,
      "hand": "left"
    },
    {
      "midi": 51,
      "time": 45.643,
      "duration": 0.214,
      "velocity": 0.71,
      "hand": "left"
    },
    {
      "midi": 63,
      "time": 45.643,
      "duration": 0.214,
      "velocity": 0.71,
      "hand": "right"
    },
    {
      "midi": 40,
      "time": 45.857,
      "duration": 0.214,
      "velocity": 0.71,
      "hand": "left"
    },
    {
      "midi": 52,
      "time": 45.857,
      "duration": 0.214,
      "velocity": 0.71,
      "hand": "left"
    },
    {
      "midi": 64,
      "time": 45.857,
      "duration": 0.214,
      "velocity": 0.71,
      "hand": "right"
    },
    {
      "midi": 55,
      "time": 46.071,
      "duration": 0.214,
      "velocity": 0.71,
      "hand": "left"
    },
    {
      "midi": 67,
      "time": 46.071,
      "duration": 0.214,
      "velocity": 0.71,
      "hand": "right"
    },
    {
      "midi": 38,
      "time": 46.286,
      "duration": 0.214,
      "velocity": 0.71,
      "hand": "left"
    },
    {
      "midi": 50,
      "time": 46.286,
      "duration": 0.214,
      "velocity": 0.71,
      "hand": "left"
    },
    {
      "midi": 62,
      "time": 46.286,
      "duration": 0.214,
      "velocity": 0.71,
      "hand": "right"
    },
    {
      "midi": 37,
      "time": 46.5,
      "duration": 0.214,
      "velocity": 0.71,
      "hand": "left"
    },
    {
      "midi": 49,
      "time": 46.5,
      "duration": 0.214,
      "velocity": 0.71,
      "hand": "left"
    },
    {
      "midi": 61,
      "time": 46.5,
      "duration": 0.214,
      "velocity": 0.71,
      "hand": "right"
    },
    {
      "midi": 69,
      "time": 46.714,
      "duration": 0.214,
      "velocity": 0.71,
      "hand": "right"
    },
    {
      "midi": 36,
      "time": 46.929,
      "duration": 0.214,
      "velocity": 0.71,
      "hand": "left"
    },
    {
      "midi": 48,
      "time": 46.929,
      "duration": 0.214,
      "velocity": 0.71,
      "hand": "left"
    },
    {
      "midi": 60,
      "time": 46.929,
      "duration": 0.214,
      "velocity": 0.71,
      "hand": "right"
    },
    {
      "midi": 35,
      "time": 47.143,
      "duration": 0.214,
      "velocity": 0.71,
      "hand": "left"
    },
    {
      "midi": 47,
      "time": 47.143,
      "duration": 0.214,
      "velocity": 0.71,
      "hand": "left"
    },
    {
      "midi": 59,
      "time": 47.143,
      "duration": 0.214,
      "velocity": 0.71,
      "hand": "left"
    },
    {
      "midi": 43,
      "time": 47.357,
      "duration": 0.214,
      "velocity": 0.71,
      "hand": "left"
    },
    {
      "midi": 55,
      "time": 47.357,
      "duration": 0.214,
      "velocity": 0.71,
      "hand": "left"
    },
    {
      "midi": 67,
      "time": 47.357,
      "duration": 0.214,
      "velocity": 0.71,
      "hand": "right"
    },
    {
      "midi": 40,
      "time": 47.571,
      "duration": 0.214,
      "velocity": 0.71,
      "hand": "left"
    },
    {
      "midi": 52,
      "time": 47.571,
      "duration": 0.214,
      "velocity": 0.71,
      "hand": "left"
    },
    {
      "midi": 64,
      "time": 47.571,
      "duration": 0.214,
      "velocity": 0.71,
      "hand": "right"
    },
    {
      "midi": 36,
      "time": 47.786,
      "duration": 0.214,
      "velocity": 0.71,
      "hand": "left"
    },
    {
      "midi": 48,
      "time": 47.786,
      "duration": 0.214,
      "velocity": 0.71,
      "hand": "left"
    },
    {
      "midi": 60,
      "time": 47.786,
      "duration": 0.214,
      "velocity": 0.71,
      "hand": "right"
    },
    {
      "midi": 33,
      "time": 48,
      "duration": 0.214,
      "velocity": 0.71,
      "hand": "left"
    },
    {
      "midi": 45,
      "time": 48,
      "duration": 0.214,
      "velocity": 0.71,
      "hand": "left"
    },
    {
      "midi": 57,
      "time": 48,
      "duration": 0.214,
      "velocity": 0.71,
      "hand": "left"
    },
    {
      "midi": 38,
      "time": 48.214,
      "duration": 0.214,
      "velocity": 0.71,
      "hand": "left"
    },
    {
      "midi": 50,
      "time": 48.214,
      "duration": 0.214,
      "velocity": 0.71,
      "hand": "left"
    },
    {
      "midi": 69,
      "time": 48.214,
      "duration": 0.214,
      "velocity": 0.71,
      "hand": "right"
    },
    {
      "midi": 74,
      "time": 48.214,
      "duration": 0.214,
      "velocity": 0.71,
      "hand": "right"
    },
    {
      "midi": 78,
      "time": 48.214,
      "duration": 0.214,
      "velocity": 0.71,
      "hand": "right"
    },
    {
      "midi": 31,
      "time": 48.429,
      "duration": 0.429,
      "velocity": 0.71,
      "hand": "left"
    },
    {
      "midi": 43,
      "time": 48.429,
      "duration": 0.429,
      "velocity": 0.71,
      "hand": "left"
    },
    {
      "midi": 71,
      "time": 48.429,
      "duration": 0.429,
      "velocity": 0.71,
      "hand": "right"
    },
    {
      "midi": 74,
      "time": 48.429,
      "duration": 0.429,
      "velocity": 0.71,
      "hand": "right"
    },
    {
      "midi": 79,
      "time": 48.429,
      "duration": 0.429,
      "velocity": 0.71,
      "hand": "right"
    }
  ],
  "arrangements": {
    "easy": [
      {
        "midi": 74,
        "time": 0,
        "duration": 0.214,
        "velocity": 0.71,
        "hand": "right"
      },
      {
        "midi": 67,
        "time": 0.429,
        "duration": 0.214,
        "velocity": 0.71,
        "hand": "right"
      },
      {
        "midi": 78,
        "time": 0.857,
        "duration": 0.214,
        "velocity": 0.71,
        "hand": "right"
      },
      {
        "midi": 74,
        "time": 1.286,
        "duration": 0.214,
        "velocity": 0.71,
        "hand": "right"
      },
      {
        "midi": 76,
        "time": 1.714,
        "duration": 0.214,
        "velocity": 0.71,
        "hand": "right"
      },
      {
        "midi": 68,
        "time": 1.929,
        "duration": 0.214,
        "velocity": 0.71,
        "hand": "right"
      },
      {
        "midi": 72,
        "time": 2.357,
        "duration": 0.214,
        "velocity": 0.71,
        "hand": "right"
      },
      {
        "midi": 69,
        "time": 2.786,
        "duration": 0.214,
        "velocity": 0.71,
        "hand": "right"
      },
      {
        "midi": 78,
        "time": 3.214,
        "duration": 0.214,
        "velocity": 0.71,
        "hand": "right"
      },
      {
        "midi": 76,
        "time": 3.429,
        "duration": 0.214,
        "velocity": 0.71,
        "hand": "right"
      },
      {
        "midi": 85,
        "time": 3.857,
        "duration": 0.214,
        "velocity": 0.71,
        "hand": "right"
      },
      {
        "midi": 75,
        "time": 4.286,
        "duration": 0.214,
        "velocity": 0.71,
        "hand": "right"
      },
      {
        "midi": 79,
        "time": 4.714,
        "duration": 0.214,
        "velocity": 0.71,
        "hand": "right"
      },
      {
        "midi": 73,
        "time": 4.929,
        "duration": 0.214,
        "velocity": 0.71,
        "hand": "right"
      },
      {
        "midi": 73,
        "time": 5.786,
        "duration": 0.214,
        "velocity": 0.71,
        "hand": "right"
      },
      {
        "midi": 79,
        "time": 6.214,
        "duration": 0.214,
        "velocity": 0.71,
        "hand": "right"
      },
      {
        "midi": 78,
        "time": 6.429,
        "duration": 0.214,
        "velocity": 0.71,
        "hand": "right"
      },
      {
        "midi": 68,
        "time": 6.857,
        "duration": 0.214,
        "velocity": 0.71,
        "hand": "right"
      },
      {
        "midi": 72,
        "time": 7.286,
        "duration": 0.214,
        "velocity": 0.71,
        "hand": "right"
      },
      {
        "midi": 67,
        "time": 7.714,
        "duration": 0.429,
        "velocity": 0.71,
        "hand": "right"
      },
      {
        "midi": 64,
        "time": 7.929,
        "duration": 0.429,
        "velocity": 0.71,
        "hand": "right"
      },
      {
        "midi": 65,
        "time": 8.357,
        "duration": 0.214,
        "velocity": 0.71,
        "hand": "right"
      },
      {
        "midi": 71,
        "time": 8.786,
        "duration": 0.643,
        "velocity": 0.71,
        "hand": "right"
      },
      {
        "midi": 67,
        "time": 9.214,
        "duration": 0.429,
        "velocity": 0.71,
        "hand": "right"
      },
      {
        "midi": 72,
        "time": 9.429,
        "duration": 0.643,
        "velocity": 0.71,
        "hand": "right"
      },
      {
        "midi": 69,
        "time": 9.857,
        "duration": 0.429,
        "velocity": 0.71,
        "hand": "right"
      },
      {
        "midi": 70,
        "time": 10.286,
        "duration": 0.214,
        "velocity": 0.71,
        "hand": "right"
      },
      {
        "midi": 71,
        "time": 10.714,
        "duration": 0.214,
        "velocity": 0.71,
        "hand": "right"
      },
      {
        "midi": 76,
        "time": 10.929,
        "duration": 0.214,
        "velocity": 0.71,
        "hand": "right"
      },
      {
        "midi": 73,
        "time": 11.357,
        "duration": 0.214,
        "velocity": 0.71,
        "hand": "right"
      },
      {
        "midi": 85,
        "time": 11.786,
        "duration": 0.214,
        "velocity": 0.71,
        "hand": "right"
      },
      {
        "midi": 79,
        "time": 12.214,
        "duration": 0.214,
        "velocity": 0.71,
        "hand": "right"
      },
      {
        "midi": 86,
        "time": 12.429,
        "duration": 0.214,
        "velocity": 0.71,
        "hand": "right"
      },
      {
        "midi": 81,
        "time": 12.857,
        "duration": 0.214,
        "velocity": 0.71,
        "hand": "right"
      },
      {
        "midi": 74,
        "time": 13.286,
        "duration": 0.214,
        "velocity": 0.71,
        "hand": "right"
      },
      {
        "midi": 85,
        "time": 13.714,
        "duration": 0.214,
        "velocity": 0.71,
        "hand": "right"
      },
      {
        "midi": 80,
        "time": 13.929,
        "duration": 0.214,
        "velocity": 0.71,
        "hand": "right"
      },
      {
        "midi": 81,
        "time": 14.357,
        "duration": 0.643,
        "velocity": 0.71,
        "hand": "right"
      },
      {
        "midi": 74,
        "time": 14.786,
        "duration": 0.214,
        "velocity": 0.71,
        "hand": "right"
      },
      {
        "midi": 68,
        "time": 15.214,
        "duration": 0.214,
        "velocity": 0.71,
        "hand": "right"
      },
      {
        "midi": 69,
        "time": 15.429,
        "duration": 0.214,
        "velocity": 0.71,
        "hand": "right"
      },
      {
        "midi": 62,
        "time": 16.071,
        "duration": 0.214,
        "velocity": 0.71,
        "hand": "right"
      },
      {
        "midi": 81,
        "time": 16.286,
        "duration": 0.643,
        "velocity": 0.71,
        "hand": "right"
      },
      {
        "midi": 81,
        "time": 16.929,
        "duration": 0.643,
        "velocity": 0.71,
        "hand": "right"
      },
      {
        "midi": 81,
        "time": 17.571,
        "duration": 0.643,
        "velocity": 0.71,
        "hand": "right"
      },
      {
        "midi": 79,
        "time": 18.214,
        "duration": 0.643,
        "velocity": 0.71,
        "hand": "right"
      },
      {
        "midi": 79,
        "time": 18.857,
        "duration": 0.429,
        "velocity": 0.71,
        "hand": "right"
      },
      {
        "midi": 78,
        "time": 19.286,
        "duration": 0.214,
        "velocity": 0.71,
        "hand": "right"
      },
      {
        "midi": 76,
        "time": 19.714,
        "duration": 0.214,
        "velocity": 0.71,
        "hand": "right"
      },
      {
        "midi": 73,
        "time": 19.929,
        "duration": 0.214,
        "velocity": 0.71,
        "hand": "right"
      },
      {
        "midi": 62,
        "time": 21.214,
        "duration": 0.214,
        "velocity": 0.71,
        "hand": "right"
      },
      {
        "midi": 61,
        "time": 21.429,
        "duration": 0.214,
        "velocity": 0.71,
        "hand": "right"
      },
      {
        "midi": 69,
        "time": 21.857,
        "duration": 0.214,
        "velocity": 0.71,
        "hand": "right"
      },
      {
        "midi": 76,
        "time": 22.286,
        "duration": 0.214,
        "velocity": 0.71,
        "hand": "right"
      },
      {
        "midi": 63,
        "time": 22.714,
        "duration": 0.214,
        "velocity": 0.71,
        "hand": "right"
      },
      {
        "midi": 67,
        "time": 22.929,
        "duration": 0.214,
        "velocity": 0.71,
        "hand": "right"
      },
      {
        "midi": 64,
        "time": 23.786,
        "duration": 0.214,
        "velocity": 0.71,
        "hand": "right"
      },
      {
        "midi": 71,
        "time": 24.429,
        "duration": 0.214,
        "velocity": 0.71,
        "hand": "right"
      },
      {
        "midi": 78,
        "time": 24.857,
        "duration": 0.214,
        "velocity": 0.71,
        "hand": "right"
      },
      {
        "midi": 65,
        "time": 25.286,
        "duration": 0.214,
        "velocity": 0.71,
        "hand": "right"
      },
      {
        "midi": 68,
        "time": 25.714,
        "duration": 0.214,
        "velocity": 0.71,
        "hand": "right"
      },
      {
        "midi": 71,
        "time": 25.929,
        "duration": 0.214,
        "velocity": 0.71,
        "hand": "right"
      },
      {
        "midi": 76,
        "time": 26.357,
        "duration": 0.214,
        "velocity": 0.71,
        "hand": "right"
      },
      {
        "midi": 81,
        "time": 26.786,
        "duration": 0.214,
        "velocity": 0.71,
        "hand": "right"
      },
      {
        "midi": 86,
        "time": 27.214,
        "duration": 0.214,
        "velocity": 0.71,
        "hand": "right"
      },
      {
        "midi": 85,
        "time": 27.429,
        "duration": 0.214,
        "velocity": 0.71,
        "hand": "right"
      },
      {
        "midi": 78,
        "time": 27.857,
        "duration": 0.214,
        "velocity": 0.71,
        "hand": "right"
      },
      {
        "midi": 83,
        "time": 28.286,
        "duration": 0.214,
        "velocity": 0.71,
        "hand": "right"
      },
      {
        "midi": 76,
        "time": 28.714,
        "duration": 0.214,
        "velocity": 0.71,
        "hand": "right"
      },
      {
        "midi": 74,
        "time": 28.929,
        "duration": 0.214,
        "velocity": 0.71,
        "hand": "right"
      },
      {
        "midi": 79,
        "time": 29.357,
        "duration": 0.214,
        "velocity": 0.71,
        "hand": "right"
      },
      {
        "midi": 69,
        "time": 29.786,
        "duration": 0.214,
        "velocity": 0.71,
        "hand": "right"
      },
      {
        "midi": 67,
        "time": 30.214,
        "duration": 0.214,
        "velocity": 0.71,
        "hand": "right"
      },
      {
        "midi": 66,
        "time": 30.429,
        "duration": 0.214,
        "velocity": 0.71,
        "hand": "right"
      },
      {
        "midi": 74,
        "time": 30.857,
        "duration": 0.214,
        "velocity": 0.71,
        "hand": "right"
      },
      {
        "midi": 67,
        "time": 31.286,
        "duration": 0.214,
        "velocity": 0.71,
        "hand": "right"
      },
      {
        "midi": 78,
        "time": 31.714,
        "duration": 0.214,
        "velocity": 0.71,
        "hand": "right"
      },
      {
        "midi": 73,
        "time": 31.929,
        "duration": 0.214,
        "velocity": 0.71,
        "hand": "right"
      },
      {
        "midi": 77,
        "time": 32.357,
        "duration": 0.214,
        "velocity": 0.71,
        "hand": "right"
      },
      {
        "midi": 68,
        "time": 32.786,
        "duration": 0.214,
        "velocity": 0.71,
        "hand": "right"
      },
      {
        "midi": 72,
        "time": 33.214,
        "duration": 0.214,
        "velocity": 0.71,
        "hand": "right"
      },
      {
        "midi": 69,
        "time": 33.429,
        "duration": 0.214,
        "velocity": 0.71,
        "hand": "right"
      },
      {
        "midi": 74,
        "time": 33.857,
        "duration": 0.214,
        "velocity": 0.71,
        "hand": "right"
      },
      {
        "midi": 67,
        "time": 34.286,
        "duration": 0.214,
        "velocity": 0.71,
        "hand": "right"
      },
      {
        "midi": 70,
        "time": 34.714,
        "duration": 0.214,
        "velocity": 0.71,
        "hand": "right"
      },
      {
        "midi": 82,
        "time": 34.929,
        "duration": 0.214,
        "velocity": 0.71,
        "hand": "right"
      },
      {
        "midi": 73,
        "time": 35.357,
        "duration": 0.214,
        "velocity": 0.71,
        "hand": "right"
      },
      {
        "midi": 86,
        "time": 35.786,
        "duration": 0.214,
        "velocity": 0.71,
        "hand": "right"
      },
      {
        "midi": 86,
        "time": 36.214,
        "duration": 0.643,
        "velocity": 0.71,
        "hand": "right"
      },
      {
        "midi": 67,
        "time": 36.429,
        "duration": 0.214,
        "velocity": 0.71,
        "hand": "right"
      },
      {
        "midi": 86,
        "time": 36.857,
        "duration": 0.643,
        "velocity": 0.71,
        "hand": "right"
      },
      {
        "midi": 74,
        "time": 37.286,
        "duration": 0.214,
        "velocity": 0.71,
        "hand": "right"
      },
      {
        "midi": 67,
        "time": 37.929,
        "duration": 0.214,
        "velocity": 0.71,
        "hand": "right"
      },
      {
        "midi": 61,
        "time": 38.357,
        "duration": 0.214,
        "velocity": 0.71,
        "hand": "right"
      },
      {
        "midi": 86,
        "time": 38.786,
        "duration": 0.643,
        "velocity": 0.71,
        "hand": "right"
      },
      {
        "midi": 62,
        "time": 39.214,
        "duration": 0.214,
        "velocity": 0.71,
        "hand": "right"
      },
      {
        "midi": 86,
        "time": 39.429,
        "duration": 0.643,
        "velocity": 0.71,
        "hand": "right"
      },
      {
        "midi": 60,
        "time": 39.857,
        "duration": 0.214,
        "velocity": 0.71,
        "hand": "right"
      },
      {
        "midi": 60,
        "time": 40.286,
        "duration": 0.214,
        "velocity": 0.71,
        "hand": "right"
      },
      {
        "midi": 84,
        "time": 40.714,
        "duration": 0.429,
        "velocity": 0.71,
        "hand": "right"
      },
      {
        "midi": 78,
        "time": 40.929,
        "duration": 0.214,
        "velocity": 0.71,
        "hand": "right"
      },
      {
        "midi": 76,
        "time": 41.357,
        "duration": 0.214,
        "velocity": 0.71,
        "hand": "right"
      },
      {
        "midi": 78,
        "time": 41.786,
        "duration": 0.214,
        "velocity": 0.71,
        "hand": "right"
      },
      {
        "midi": 83,
        "time": 42.214,
        "duration": 0.214,
        "velocity": 0.71,
        "hand": "right"
      },
      {
        "midi": 79,
        "time": 42.429,
        "duration": 0.214,
        "velocity": 0.71,
        "hand": "right"
      },
      {
        "midi": 86,
        "time": 42.857,
        "duration": 0.214,
        "velocity": 0.71,
        "hand": "right"
      },
      {
        "midi": 76,
        "time": 43.286,
        "duration": 0.214,
        "velocity": 0.71,
        "hand": "right"
      },
      {
        "midi": 75,
        "time": 43.714,
        "duration": 0.214,
        "velocity": 0.71,
        "hand": "right"
      },
      {
        "midi": 74,
        "time": 43.929,
        "duration": 0.214,
        "velocity": 0.71,
        "hand": "right"
      },
      {
        "midi": 74,
        "time": 44.357,
        "duration": 0.214,
        "velocity": 0.71,
        "hand": "right"
      },
      {
        "midi": 81,
        "time": 44.786,
        "duration": 0.214,
        "velocity": 0.71,
        "hand": "right"
      },
      {
        "midi": 71,
        "time": 45.214,
        "duration": 0.214,
        "velocity": 0.71,
        "hand": "right"
      },
      {
        "midi": 79,
        "time": 45.429,
        "duration": 0.214,
        "velocity": 0.71,
        "hand": "right"
      },
      {
        "midi": 64,
        "time": 45.857,
        "duration": 0.214,
        "velocity": 0.71,
        "hand": "right"
      },
      {
        "midi": 62,
        "time": 46.286,
        "duration": 0.214,
        "velocity": 0.71,
        "hand": "right"
      },
      {
        "midi": 69,
        "time": 46.714,
        "duration": 0.214,
        "velocity": 0.71,
        "hand": "right"
      },
      {
        "midi": 60,
        "time": 46.929,
        "duration": 0.214,
        "velocity": 0.71,
        "hand": "right"
      },
      {
        "midi": 67,
        "time": 47.357,
        "duration": 0.214,
        "velocity": 0.71,
        "hand": "right"
      },
      {
        "midi": 60,
        "time": 47.786,
        "duration": 0.214,
        "velocity": 0.71,
        "hand": "right"
      },
      {
        "midi": 78,
        "time": 48.214,
        "duration": 0.214,
        "velocity": 0.71,
        "hand": "right"
      },
      {
        "midi": 79,
        "time": 48.429,
        "duration": 0.429,
        "velocity": 0.71,
        "hand": "right"
      }
    ],
    "medium": [
      {
        "midi": 74,
        "time": 0,
        "duration": 0.214,
        "velocity": 0.71,
        "hand": "right"
      },
      {
        "midi": 71,
        "time": 0.214,
        "duration": 0.214,
        "velocity": 0.71,
        "hand": "right"
      },
      {
        "midi": 67,
        "time": 0.429,
        "duration": 0.214,
        "velocity": 0.71,
        "hand": "right"
      },
      {
        "midi": 79,
        "time": 0.643,
        "duration": 0.214,
        "velocity": 0.71,
        "hand": "right"
      },
      {
        "midi": 78,
        "time": 0.857,
        "duration": 0.214,
        "velocity": 0.71,
        "hand": "right"
      },
      {
        "midi": 73,
        "time": 1.071,
        "duration": 0.214,
        "velocity": 0.71,
        "hand": "right"
      },
      {
        "midi": 74,
        "time": 1.286,
        "duration": 0.214,
        "velocity": 0.71,
        "hand": "right"
      },
      {
        "midi": 77,
        "time": 1.5,
        "duration": 0.214,
        "velocity": 0.71,
        "hand": "right"
      },
      {
        "midi": 76,
        "time": 1.714,
        "duration": 0.214,
        "velocity": 0.71,
        "hand": "right"
      },
      {
        "midi": 68,
        "time": 1.929,
        "duration": 0.214,
        "velocity": 0.71,
        "hand": "right"
      },
      {
        "midi": 69,
        "time": 2.143,
        "duration": 0.214,
        "velocity": 0.71,
        "hand": "right"
      },
      {
        "midi": 72,
        "time": 2.357,
        "duration": 0.214,
        "velocity": 0.71,
        "hand": "right"
      },
      {
        "midi": 67,
        "time": 2.571,
        "duration": 0.214,
        "velocity": 0.71,
        "hand": "right"
      },
      {
        "midi": 71,
        "time": 2.571,
        "duration": 0.214,
        "velocity": 0.71,
        "hand": "right"
      },
      {
        "midi": 66,
        "time": 2.786,
        "duration": 0.214,
        "velocity": 0.71,
        "hand": "right"
      },
      {
        "midi": 69,
        "time": 2.786,
        "duration": 0.214,
        "velocity": 0.71,
        "hand": "right"
      },
      {
        "midi": 62,
        "time": 3,
        "duration": 0.214,
        "velocity": 0.71,
        "hand": "right"
      },
      {
        "midi": 74,
        "time": 3.214,
        "duration": 0.214,
        "velocity": 0.71,
        "hand": "right"
      },
      {
        "midi": 78,
        "time": 3.214,
        "duration": 0.214,
        "velocity": 0.71,
        "hand": "right"
      },
      {
        "midi": 73,
        "time": 3.429,
        "duration": 0.214,
        "velocity": 0.71,
        "hand": "right"
      },
      {
        "midi": 76,
        "time": 3.429,
        "duration": 0.214,
        "velocity": 0.71,
        "hand": "right"
      },
      {
        "midi": 68,
        "time": 3.643,
        "duration": 0.214,
        "velocity": 0.71,
        "hand": "right"
      },
      {
        "midi": 86,
        "time": 3.643,
        "duration": 0.214,
        "velocity": 0.71,
        "hand": "right"
      },
      {
        "midi": 69,
        "time": 3.857,
        "duration": 0.214,
        "velocity": 0.71,
        "hand": "right"
      },
      {
        "midi": 85,
        "time": 3.857,
        "duration": 0.214,
        "velocity": 0.71,
        "hand": "right"
      },
      {
        "midi": 72,
        "time": 4.071,
        "duration": 0.214,
        "velocity": 0.71,
        "hand": "right"
      },
      {
        "midi": 76,
        "time": 4.071,
        "duration": 0.214,
        "velocity": 0.71,
        "hand": "right"
      },
      {
        "midi": 71,
        "time": 4.286,
        "duration": 0.214,
        "velocity": 0.71,
        "hand": "right"
      },
      {
        "midi": 75,
        "time": 4.286,
        "duration": 0.214,
        "velocity": 0.71,
        "hand": "right"
      },
      {
        "midi": 63,
        "time": 4.5,
        "duration": 0.214,
        "velocity": 0.71,
        "hand": "right"
      },
      {
        "midi": 81,
        "time": 4.5,
        "duration": 0.214,
        "velocity": 0.71,
        "hand": "right"
      },
      {
        "midi": 64,
        "time": 4.714,
        "duration": 0.214,
        "velocity": 0.71,
        "hand": "right"
      },
      {
        "midi": 79,
        "time": 4.714,
        "duration": 0.214,
        "velocity": 0.71,
        "hand": "right"
      },
      {
        "midi": 67,
        "time": 4.929,
        "duration": 0.214,
        "velocity": 0.71,
        "hand": "right"
      },
      {
        "midi": 73,
        "time": 4.929,
        "duration": 0.214,
        "velocity": 0.71,
        "hand": "right"
      },
      {
        "midi": 62,
        "time": 5.143,
        "duration": 0.214,
        "velocity": 0.71,
        "hand": "right"
      },
      {
        "midi": 66,
        "time": 5.143,
        "duration": 0.214,
        "velocity": 0.71,
        "hand": "right"
      },
      {
        "midi": 74,
        "time": 5.143,
        "duration": 0.214,
        "velocity": 0.71,
        "hand": "right"
      },
      {
        "midi": 59,
        "time": 5.357,
        "duration": 0.214,
        "velocity": 0.71,
        "hand": "left"
      },
      {
        "midi": 55,
        "time": 5.571,
        "duration": 0.214,
        "velocity": 0.71,
        "hand": "left"
      },
      {
        "midi": 67,
        "time": 5.786,
        "duration": 0.214,
        "velocity": 0.71,
        "hand": "right"
      },
      {
        "midi": 69,
        "time": 5.786,
        "duration": 0.214,
        "velocity": 0.71,
        "hand": "right"
      },
      {
        "midi": 73,
        "time": 5.786,
        "duration": 0.214,
        "velocity": 0.71,
        "hand": "right"
      },
      {
        "midi": 66,
        "time": 6,
        "duration": 0.214,
        "velocity": 0.71,
        "hand": "right"
      },
      {
        "midi": 69,
        "time": 6,
        "duration": 0.857,
        "velocity": 0.71,
        "hand": "right"
      },
      {
        "midi": 74,
        "time": 6,
        "duration": 0.214,
        "velocity": 0.71,
        "hand": "right"
      },
      {
        "midi": 61,
        "time": 6.214,
        "duration": 0.214,
        "velocity": 0.71,
        "hand": "right"
      },
      {
        "midi": 79,
        "time": 6.214,
        "duration": 0.214,
        "velocity": 0.71,
        "hand": "right"
      },
      {
        "midi": 62,
        "time": 6.429,
        "duration": 0.214,
        "velocity": 0.71,
        "hand": "right"
      },
      {
        "midi": 78,
        "time": 6.429,
        "duration": 0.214,
        "velocity": 0.71,
        "hand": "right"
      },
      {
        "midi": 65,
        "time": 6.643,
        "duration": 0.214,
        "velocity": 0.71,
        "hand": "right"
      },
      {
        "midi": 71,
        "time": 6.643,
        "duration": 0.429,
        "velocity": 0.71,
        "hand": "right"
      },
      {
        "midi": 64,
        "time": 6.857,
        "duration": 0.214,
        "velocity": 0.71,
        "hand": "right"
      },
      {
        "midi": 68,
        "time": 6.857,
        "duration": 0.214,
        "velocity": 0.71,
        "hand": "right"
      },
      {
        "midi": 56,
        "time": 7.071,
        "duration": 0.214,
        "velocity": 0.71,
        "hand": "left"
      },
      {
        "midi": 64,
        "time": 7.071,
        "duration": 0.429,
        "velocity": 0.71,
        "hand": "right"
      },
      {
        "midi": 74,
        "time": 7.071,
        "duration": 0.214,
        "velocity": 0.71,
        "hand": "right"
      },
      {
        "midi": 57,
        "time": 7.286,
        "duration": 0.214,
        "velocity": 0.71,
        "hand": "left"
      },
      {
        "midi": 72,
        "time": 7.286,
        "duration": 0.214,
        "velocity": 0.71,
        "hand": "right"
      },
      {
        "midi": 60,
        "time": 7.5,
        "duration": 0.214,
        "velocity": 0.71,
        "hand": "right"
      },
      {
        "midi": 63,
        "time": 7.5,
        "duration": 0.214,
        "velocity": 0.71,
        "hand": "right"
      },
      {
        "midi": 66,
        "time": 7.5,
        "duration": 0.214,
        "velocity": 0.71,
        "hand": "right"
      },
      {
        "midi": 59,
        "time": 7.714,
        "duration": 0.214,
        "velocity": 0.71,
        "hand": "left"
      },
      {
        "midi": 62,
        "time": 7.714,
        "duration": 0.214,
        "velocity": 0.71,
        "hand": "right"
      },
      {
        "midi": 67,
        "time": 7.714,
        "duration": 0.429,
        "velocity": 0.71,
        "hand": "right"
      },
      {
        "midi": 60,
        "time": 7.929,
        "duration": 0.214,
        "velocity": 0.71,
        "hand": "right"
      },
      {
        "midi": 64,
        "time": 7.929,
        "duration": 0.429,
        "velocity": 0.71,
        "hand": "right"
      },
      {
        "midi": 48,
        "time": 8.143,
        "duration": 0.214,
        "velocity": 0.71,
        "hand": "left"
      },
      {
        "midi": 69,
        "time": 8.143,
        "duration": 0.643,
        "velocity": 0.71,
        "hand": "right"
      },
      {
        "midi": 45,
        "time": 8.357,
        "duration": 0.214,
        "velocity": 0.71,
        "hand": "left"
      },
      {
        "midi": 65,
        "time": 8.357,
        "duration": 0.214,
        "velocity": 0.71,
        "hand": "right"
      },
      {
        "midi": 50,
        "time": 8.571,
        "duration": 0.214,
        "velocity": 0.71,
        "hand": "left"
      },
      {
        "midi": 66,
        "time": 8.571,
        "duration": 0.643,
        "velocity": 0.71,
        "hand": "right"
      },
      {
        "midi": 62,
        "time": 8.786,
        "duration": 0.214,
        "velocity": 0.71,
        "hand": "right"
      },
      {
        "midi": 71,
        "time": 8.786,
        "duration": 0.643,
        "velocity": 0.71,
        "hand": "right"
      },
      {
        "midi": 59,
        "time": 9,
        "duration": 0.214,
        "velocity": 0.71,
        "hand": "left"
      },
      {
        "midi": 64,
        "time": 9.214,
        "duration": 0.214,
        "velocity": 0.71,
        "hand": "right"
      },
      {
        "midi": 67,
        "time": 9.214,
        "duration": 0.429,
        "velocity": 0.71,
        "hand": "right"
      },
      {
        "midi": 52,
        "time": 9.429,
        "duration": 0.214,
        "velocity": 0.71,
        "hand": "left"
      },
      {
        "midi": 72,
        "time": 9.429,
        "duration": 0.643,
        "velocity": 0.71,
        "hand": "right"
      },
      {
        "midi": 48,
        "time": 9.643,
        "duration": 0.214,
        "velocity": 0.71,
        "hand": "left"
      },
      {
        "midi": 68,
        "time": 9.643,
        "duration": 0.214,
        "velocity": 0.71,
        "hand": "right"
      },
      {
        "midi": 54,
        "time": 9.857,
        "duration": 0.214,
        "velocity": 0.71,
        "hand": "left"
      },
      {
        "midi": 69,
        "time": 9.857,
        "duration": 0.429,
        "velocity": 0.71,
        "hand": "right"
      },
      {
        "midi": 66,
        "time": 10.071,
        "duration": 0.214,
        "velocity": 0.71,
        "hand": "right"
      },
      {
        "midi": 74,
        "time": 10.071,
        "duration": 0.643,
        "velocity": 0.71,
        "hand": "right"
      },
      {
        "midi": 62,
        "time": 10.286,
        "duration": 0.214,
        "velocity": 0.71,
        "hand": "right"
      },
      {
        "midi": 70,
        "time": 10.286,
        "duration": 0.214,
        "velocity": 0.71,
        "hand": "right"
      },
      {
        "midi": 67,
        "time": 10.5,
        "duration": 0.214,
        "velocity": 0.71,
        "hand": "right"
      },
      {
        "midi": 71,
        "time": 10.5,
        "duration": 0.214,
        "velocity": 0.71,
        "hand": "right"
      },
      {
        "midi": 55,
        "time": 10.714,
        "duration": 0.643,
        "velocity": 0.71,
        "hand": "left"
      },
      {
        "midi": 71,
        "time": 10.714,
        "duration": 0.214,
        "velocity": 0.71,
        "hand": "right"
      },
      {
        "midi": 59,
        "time": 10.929,
        "duration": 0.214,
        "velocity": 0.71,
        "hand": "left"
      },
      {
        "midi": 76,
        "time": 10.929,
        "duration": 0.214,
        "velocity": 0.71,
        "hand": "right"
      },
      {
        "midi": 64,
        "time": 11.143,
        "duration": 0.429,
        "velocity": 0.71,
        "hand": "right"
      },
      {
        "midi": 83,
        "time": 11.143,
        "duration": 0.214,
        "velocity": 0.71,
        "hand": "right"
      },
      {
        "midi": 57,
        "time": 11.357,
        "duration": 0.643,
        "velocity": 0.71,
        "hand": "left"
      },
      {
        "midi": 73,
        "time": 11.357,
        "duration": 0.214,
        "velocity": 0.71,
        "hand": "right"
      },
      {
        "midi": 61,
        "time": 11.571,
        "duration": 0.214,
        "velocity": 0.71,
        "hand": "right"
      },
      {
        "midi": 78,
        "time": 11.571,
        "duration": 0.214,
        "velocity": 0.71,
        "hand": "right"
      },
      {
        "midi": 66,
        "time": 11.786,
        "duration": 0.429,
        "velocity": 0.71,
        "hand": "right"
      },
      {
        "midi": 85,
        "time": 11.786,
        "duration": 0.214,
        "velocity": 0.71,
        "hand": "right"
      },
      {
        "midi": 59,
        "time": 12,
        "duration": 0.643,
        "velocity": 0.71,
        "hand": "left"
      },
      {
        "midi": 74,
        "time": 12,
        "duration": 0.214,
        "velocity": 0.71,
        "hand": "right"
      },
      {
        "midi": 62,
        "time": 12.214,
        "duration": 0.214,
        "velocity": 0.71,
        "hand": "right"
      },
      {
        "midi": 79,
        "time": 12.214,
        "duration": 0.214,
        "velocity": 0.71,
        "hand": "right"
      },
      {
        "midi": 67,
        "time": 12.429,
        "duration": 0.429,
        "velocity": 0.71,
        "hand": "right"
      },
      {
        "midi": 86,
        "time": 12.429,
        "duration": 0.214,
        "velocity": 0.71,
        "hand": "right"
      },
      {
        "midi": 61,
        "time": 12.643,
        "duration": 0.429,
        "velocity": 0.71,
        "hand": "right"
      },
      {
        "midi": 76,
        "time": 12.643,
        "duration": 0.214,
        "velocity": 0.71,
        "hand": "right"
      },
      {
        "midi": 64,
        "time": 12.857,
        "duration": 0.214,
        "velocity": 0.71,
        "hand": "right"
      },
      {
        "midi": 81,
        "time": 12.857,
        "duration": 0.214,
        "velocity": 0.71,
        "hand": "right"
      },
      {
        "midi": 62,
        "time": 13.071,
        "duration": 0.214,
        "velocity": 0.71,
        "hand": "right"
      },
      {
        "midi": 66,
        "time": 13.071,
        "duration": 0.214,
        "velocity": 0.71,
        "hand": "right"
      },
      {
        "midi": 78,
        "time": 13.071,
        "duration": 0.214,
        "velocity": 0.71,
        "hand": "right"
      },
      {
        "midi": 74,
        "time": 13.286,
        "duration": 0.214,
        "velocity": 0.71,
        "hand": "right"
      },
      {
        "midi": 59,
        "time": 13.5,
        "duration": 0.214,
        "velocity": 0.71,
        "hand": "left"
      },
      {
        "midi": 68,
        "time": 13.5,
        "duration": 0.214,
        "velocity": 0.71,
        "hand": "right"
      },
      {
        "midi": 86,
        "time": 13.5,
        "duration": 0.214,
        "velocity": 0.71,
        "hand": "right"
      },
      {
        "midi": 57,
        "time": 13.714,
        "duration": 0.214,
        "velocity": 0.71,
        "hand": "left"
      },
      {
        "midi": 69,
        "time": 13.714,
        "duration": 0.214,
        "velocity": 0.71,
        "hand": "right"
      },
      {
        "midi": 85,
        "time": 13.714,
        "duration": 0.214,
        "velocity": 0.71,
        "hand": "right"
      },
      {
        "midi": 80,
        "time": 13.929,
        "duration": 0.214,
        "velocity": 0.71,
        "hand": "right"
      },
      {
        "midi": 69,
        "time": 14.143,
        "duration": 0.214,
        "velocity": 0.71,
        "hand": "right"
      },
      {
        "midi": 81,
        "time": 14.143,
        "duration": 0.214,
        "velocity": 0.71,
        "hand": "right"
      },
      {
        "midi": 66,
        "time": 14.357,
        "duration": 0.214,
        "velocity": 0.71,
        "hand": "right"
      },
      {
        "midi": 81,
        "time": 14.357,
        "duration": 0.643,
        "velocity": 0.71,
        "hand": "right"
      },
      {
        "midi": 62,
        "time": 14.571,
        "duration": 0.214,
        "velocity": 0.71,
        "hand": "right"
      },
      {
        "midi": 74,
        "time": 14.786,
        "duration": 0.214,
        "velocity": 0.71,
        "hand": "right"
      },
      {
        "midi": 73,
        "time": 15,
        "duration": 0.214,
        "velocity": 0.71,
        "hand": "right"
      },
      {
        "midi": 81,
        "time": 15,
        "duration": 0.643,
        "velocity": 0.71,
        "hand": "right"
      },
      {
        "midi": 68,
        "time": 15.214,
        "duration": 0.214,
        "velocity": 0.71,
        "hand": "right"
      },
      {
        "midi": 57,
        "time": 15.429,
        "duration": 0.214,
        "velocity": 0.71,
        "hand": "left"
      },
      {
        "midi": 69,
        "time": 15.429,
        "duration": 0.214,
        "velocity": 0.71,
        "hand": "right"
      },
      {
        "midi": 53,
        "time": 15.643,
        "duration": 0.214,
        "velocity": 0.71,
        "hand": "left"
      },
      {
        "midi": 74,
        "time": 15.643,
        "duration": 0.643,
        "velocity": 0.71,
        "hand": "right"
      },
      {
        "midi": 81,
        "time": 15.643,
        "duration": 0.643,
        "velocity": 0.71,
        "hand": "right"
      },
      {
        "midi": 50,
        "time": 15.857,
        "duration": 0.214,
        "velocity": 0.71,
        "hand": "left"
      },
      {
        "midi": 62,
        "time": 16.071,
        "duration": 0.214,
        "velocity": 0.71,
        "hand": "right"
      },
      {
        "midi": 61,
        "time": 16.286,
        "duration": 0.214,
        "velocity": 0.71,
        "hand": "right"
      },
      {
        "midi": 76,
        "time": 16.286,
        "duration": 0.643,
        "velocity": 0.71,
        "hand": "right"
      },
      {
        "midi": 81,
        "time": 16.286,
        "duration": 0.643,
        "velocity": 0.71,
        "hand": "right"
      },
      {
        "midi": 56,
        "time": 16.5,
        "duration": 0.214,
        "velocity": 0.71,
        "hand": "left"
      },
      {
        "midi": 57,
        "time": 16.714,
        "duration": 0.214,
        "velocity": 0.71,
        "hand": "left"
      },
      {
        "midi": 60,
        "time": 16.929,
        "duration": 0.214,
        "velocity": 0.71,
        "hand": "right"
      },
      {
        "midi": 75,
        "time": 16.929,
        "duration": 0.643,
        "velocity": 0.71,
        "hand": "right"
      },
      {
        "midi": 81,
        "time": 16.929,
        "duration": 0.643,
        "velocity": 0.71,
        "hand": "right"
      },
      {
        "midi": 54,
        "time": 17.143,
        "duration": 0.214,
        "velocity": 0.71,
        "hand": "left"
      },
      {
        "midi": 57,
        "time": 17.357,
        "duration": 0.214,
        "velocity": 0.71,
        "hand": "left"
      },
      {
        "midi": 46,
        "time": 17.571,
        "duration": 0.214,
        "velocity": 0.71,
        "hand": "left"
      },
      {
        "midi": 74,
        "time": 17.571,
        "duration": 0.643,
        "velocity": 0.71,
        "hand": "right"
      },
      {
        "midi": 81,
        "time": 17.571,
        "duration": 0.643,
        "velocity": 0.71,
        "hand": "right"
      },
      {
        "midi": 58,
        "time": 17.786,
        "duration": 0.214,
        "velocity": 0.71,
        "hand": "left"
      },
      {
        "midi": 55,
        "time": 18,
        "duration": 0.214,
        "velocity": 0.71,
        "hand": "left"
      },
      {
        "midi": 51,
        "time": 18.214,
        "duration": 0.214,
        "velocity": 0.71,
        "hand": "left"
      },
      {
        "midi": 75,
        "time": 18.214,
        "duration": 0.643,
        "velocity": 0.71,
        "hand": "right"
      },
      {
        "midi": 79,
        "time": 18.214,
        "duration": 0.643,
        "velocity": 0.71,
        "hand": "right"
      },
      {
        "midi": 55,
        "time": 18.429,
        "duration": 0.214,
        "velocity": 0.71,
        "hand": "left"
      },
      {
        "midi": 50,
        "time": 18.643,
        "duration": 0.214,
        "velocity": 0.71,
        "hand": "left"
      },
      {
        "midi": 49,
        "time": 18.857,
        "duration": 0.214,
        "velocity": 0.71,
        "hand": "left"
      },
      {
        "midi": 76,
        "time": 18.857,
        "duration": 0.429,
        "velocity": 0.71,
        "hand": "right"
      },
      {
        "midi": 79,
        "time": 18.857,
        "duration": 0.429,
        "velocity": 0.71,
        "hand": "right"
      },
      {
        "midi": 45,
        "time": 19.071,
        "duration": 0.214,
        "velocity": 0.71,
        "hand": "left"
      },
      {
        "midi": 73,
        "time": 19.071,
        "duration": 0.214,
        "velocity": 0.71,
        "hand": "right"
      },
      {
        "midi": 47,
        "time": 19.286,
        "duration": 0.214,
        "velocity": 0.71,
        "hand": "left"
      },
      {
        "midi": 74,
        "time": 19.286,
        "duration": 0.214,
        "velocity": 0.71,
        "hand": "right"
      },
      {
        "midi": 78,
        "time": 19.286,
        "duration": 0.214,
        "velocity": 0.71,
        "hand": "right"
      },
      {
        "midi": 43,
        "time": 19.5,
        "duration": 0.214,
        "velocity": 0.71,
        "hand": "left"
      },
      {
        "midi": 71,
        "time": 19.5,
        "duration": 0.214,
        "velocity": 0.71,
        "hand": "right"
      },
      {
        "midi": 40,
        "time": 19.714,
        "duration": 0.214,
        "velocity": 0.71,
        "hand": "left"
      },
      {
        "midi": 76,
        "time": 19.714,
        "duration": 0.214,
        "velocity": 0.71,
        "hand": "right"
      },
      {
        "midi": 45,
        "time": 19.929,
        "duration": 0.214,
        "velocity": 0.71,
        "hand": "left"
      },
      {
        "midi": 64,
        "time": 19.929,
        "duration": 0.214,
        "velocity": 0.71,
        "hand": "right"
      },
      {
        "midi": 73,
        "time": 19.929,
        "duration": 0.214,
        "velocity": 0.71,
        "hand": "right"
      },
      {
        "midi": 38,
        "time": 20.143,
        "duration": 0.214,
        "velocity": 0.71,
        "hand": "left"
      },
      {
        "midi": 66,
        "time": 20.143,
        "duration": 0.214,
        "velocity": 0.71,
        "hand": "right"
      },
      {
        "midi": 74,
        "time": 20.143,
        "duration": 0.214,
        "velocity": 0.71,
        "hand": "right"
      },
      {
        "midi": 57,
        "time": 20.571,
        "duration": 0.214,
        "velocity": 0.71,
        "hand": "left"
      },
      {
        "midi": 54,
        "time": 20.786,
        "duration": 0.214,
        "velocity": 0.71,
        "hand": "left"
      },
      {
        "midi": 50,
        "time": 21,
        "duration": 0.214,
        "velocity": 0.71,
        "hand": "left"
      },
      {
        "midi": 62,
        "time": 21.214,
        "duration": 0.214,
        "velocity": 0.71,
        "hand": "right"
      },
      {
        "midi": 61,
        "time": 21.429,
        "duration": 0.214,
        "velocity": 0.71,
        "hand": "right"
      },
      {
        "midi": 56,
        "time": 21.643,
        "duration": 0.214,
        "velocity": 0.71,
        "hand": "left"
      },
      {
        "midi": 57,
        "time": 21.857,
        "duration": 0.214,
        "velocity": 0.71,
        "hand": "left"
      },
      {
        "midi": 69,
        "time": 21.857,
        "duration": 0.214,
        "velocity": 0.71,
        "hand": "right"
      },
      {
        "midi": 72,
        "time": 22.071,
        "duration": 0.214,
        "velocity": 0.71,
        "hand": "right"
      },
      {
        "midi": 76,
        "time": 22.286,
        "duration": 0.214,
        "velocity": 0.71,
        "hand": "right"
      },
      {
        "midi": 46,
        "time": 22.5,
        "duration": 0.214,
        "velocity": 0.71,
        "hand": "left"
      },
      {
        "midi": 64,
        "time": 22.5,
        "duration": 0.214,
        "velocity": 0.71,
        "hand": "right"
      },
      {
        "midi": 47,
        "time": 22.714,
        "duration": 0.429,
        "velocity": 0.71,
        "hand": "left"
      },
      {
        "midi": 63,
        "time": 22.714,
        "duration": 0.214,
        "velocity": 0.71,
        "hand": "right"
      },
      {
        "midi": 67,
        "time": 22.929,
        "duration": 0.214,
        "velocity": 0.71,
        "hand": "right"
      },
      {
        "midi": 59,
        "time": 23.143,
        "duration": 0.214,
        "velocity": 0.71,
        "hand": "left"
      },
      {
        "midi": 66,
        "time": 23.143,
        "duration": 0.214,
        "velocity": 0.71,
        "hand": "right"
      },
      {
        "midi": 55,
        "time": 23.357,
        "duration": 0.214,
        "velocity": 0.71,
        "hand": "left"
      },
      {
        "midi": 52,
        "time": 23.571,
        "duration": 0.214,
        "velocity": 0.71,
        "hand": "left"
      },
      {
        "midi": 64,
        "time": 23.786,
        "duration": 0.214,
        "velocity": 0.71,
        "hand": "right"
      },
      {
        "midi": 63,
        "time": 24,
        "duration": 0.214,
        "velocity": 0.71,
        "hand": "right"
      },
      {
        "midi": 58,
        "time": 24.214,
        "duration": 0.214,
        "velocity": 0.71,
        "hand": "left"
      },
      {
        "midi": 59,
        "time": 24.429,
        "duration": 0.214,
        "velocity": 0.71,
        "hand": "left"
      },
      {
        "midi": 71,
        "time": 24.429,
        "duration": 0.214,
        "velocity": 0.71,
        "hand": "right"
      },
      {
        "midi": 74,
        "time": 24.643,
        "duration": 0.214,
        "velocity": 0.71,
        "hand": "right"
      },
      {
        "midi": 78,
        "time": 24.857,
        "duration": 0.214,
        "velocity": 0.71,
        "hand": "right"
      },
      {
        "midi": 66,
        "time": 25.071,
        "duration": 0.214,
        "velocity": 0.71,
        "hand": "right"
      },
      {
        "midi": 65,
        "time": 25.286,
        "duration": 0.214,
        "velocity": 0.71,
        "hand": "right"
      },
      {
        "midi": 60,
        "time": 25.5,
        "duration": 0.214,
        "velocity": 0.71,
        "hand": "right"
      },
      {
        "midi": 69,
        "time": 25.5,
        "duration": 0.214,
        "velocity": 0.71,
        "hand": "right"
      },
      {
        "midi": 61,
        "time": 25.714,
        "duration": 0.214,
        "velocity": 0.71,
        "hand": "right"
      },
      {
        "midi": 68,
        "time": 25.714,
        "duration": 0.214,
        "velocity": 0.71,
        "hand": "right"
      },
      {
        "midi": 55,
        "time": 25.929,
        "duration": 0.214,
        "velocity": 0.71,
        "hand": "left"
      },
      {
        "midi": 71,
        "time": 25.929,
        "duration": 0.214,
        "velocity": 0.71,
        "hand": "right"
      },
      {
        "midi": 54,
        "time": 26.143,
        "duration": 0.214,
        "velocity": 0.71,
        "hand": "left"
      },
      {
        "midi": 70,
        "time": 26.143,
        "duration": 0.214,
        "velocity": 0.71,
        "hand": "right"
      },
      {
        "midi": 58,
        "time": 26.357,
        "duration": 0.214,
        "velocity": 0.71,
        "hand": "left"
      },
      {
        "midi": 76,
        "time": 26.357,
        "duration": 0.214,
        "velocity": 0.71,
        "hand": "right"
      },
      {
        "midi": 59,
        "time": 26.571,
        "duration": 0.214,
        "velocity": 0.71,
        "hand": "left"
      },
      {
        "midi": 75,
        "time": 26.571,
        "duration": 0.214,
        "velocity": 0.71,
        "hand": "right"
      },
      {
        "midi": 53,
        "time": 26.786,
        "duration": 0.214,
        "velocity": 0.71,
        "hand": "left"
      },
      {
        "midi": 81,
        "time": 26.786,
        "duration": 0.214,
        "velocity": 0.71,
        "hand": "right"
      },
      {
        "midi": 52,
        "time": 27,
        "duration": 0.214,
        "velocity": 0.71,
        "hand": "left"
      },
      {
        "midi": 80,
        "time": 27,
        "duration": 0.214,
        "velocity": 0.71,
        "hand": "right"
      },
      {
        "midi": 46,
        "time": 27.214,
        "duration": 0.214,
        "velocity": 0.71,
        "hand": "left"
      },
      {
        "midi": 86,
        "time": 27.214,
        "duration": 0.214,
        "velocity": 0.71,
        "hand": "right"
      },
      {
        "midi": 45,
        "time": 27.429,
        "duration": 0.214,
        "velocity": 0.71,
        "hand": "left"
      },
      {
        "midi": 85,
        "time": 27.429,
        "duration": 0.214,
        "velocity": 0.71,
        "hand": "right"
      },
      {
        "midi": 51,
        "time": 27.643,
        "duration": 0.214,
        "velocity": 0.71,
        "hand": "left"
      },
      {
        "midi": 79,
        "time": 27.643,
        "duration": 0.214,
        "velocity": 0.71,
        "hand": "right"
      },
      {
        "midi": 50,
        "time": 27.857,
        "duration": 0.214,
        "velocity": 0.71,
        "hand": "left"
      },
      {
        "midi": 78,
        "time": 27.857,
        "duration": 0.214,
        "velocity": 0.71,
        "hand": "right"
      },
      {
        "midi": 56,
        "time": 28.071,
        "duration": 0.214,
        "velocity": 0.71,
        "hand": "left"
      },
      {
        "midi": 84,
        "time": 28.071,
        "duration": 0.214,
        "velocity": 0.71,
        "hand": "right"
      },
      {
        "midi": 55,
        "time": 28.286,
        "duration": 0.214,
        "velocity": 0.71,
        "hand": "left"
      },
      {
        "midi": 83,
        "time": 28.286,
        "duration": 0.214,
        "velocity": 0.71,
        "hand": "right"
      },
      {
        "midi": 59,
        "time": 28.5,
        "duration": 0.214,
        "velocity": 0.71,
        "hand": "left"
      },
      {
        "midi": 77,
        "time": 28.5,
        "duration": 0.214,
        "velocity": 0.71,
        "hand": "right"
      },
      {
        "midi": 60,
        "time": 28.714,
        "duration": 0.214,
        "velocity": 0.71,
        "hand": "right"
      },
      {
        "midi": 76,
        "time": 28.714,
        "duration": 0.214,
        "velocity": 0.71,
        "hand": "right"
      },
      {
        "midi": 62,
        "time": 28.929,
        "duration": 0.214,
        "velocity": 0.71,
        "hand": "right"
      },
      {
        "midi": 74,
        "time": 28.929,
        "duration": 0.214,
        "velocity": 0.71,
        "hand": "right"
      },
      {
        "midi": 64,
        "time": 29.143,
        "duration": 0.429,
        "velocity": 0.71,
        "hand": "right"
      },
      {
        "midi": 72,
        "time": 29.143,
        "duration": 0.214,
        "velocity": 0.71,
        "hand": "right"
      },
      {
        "midi": 79,
        "time": 29.357,
        "duration": 0.214,
        "velocity": 0.71,
        "hand": "right"
      },
      {
        "midi": 62,
        "time": 29.571,
        "duration": 0.214,
        "velocity": 0.71,
        "hand": "right"
      },
      {
        "midi": 71,
        "time": 29.571,
        "duration": 0.214,
        "velocity": 0.71,
        "hand": "right"
      },
      {
        "midi": 60,
        "time": 29.786,
        "duration": 0.429,
        "velocity": 0.71,
        "hand": "right"
      },
      {
        "midi": 69,
        "time": 29.786,
        "duration": 0.214,
        "velocity": 0.71,
        "hand": "right"
      },
      {
        "midi": 76,
        "time": 30,
        "duration": 0.214,
        "velocity": 0.71,
        "hand": "right"
      },
      {
        "midi": 61,
        "time": 30.214,
        "duration": 0.214,
        "velocity": 0.71,
        "hand": "right"
      },
      {
        "midi": 67,
        "time": 30.214,
        "duration": 0.214,
        "velocity": 0.71,
        "hand": "right"
      },
      {
        "midi": 62,
        "time": 30.429,
        "duration": 0.429,
        "velocity": 0.71,
        "hand": "right"
      },
      {
        "midi": 66,
        "time": 30.429,
        "duration": 0.214,
        "velocity": 0.71,
        "hand": "right"
      },
      {
        "midi": 69,
        "time": 30.643,
        "duration": 0.214,
        "velocity": 0.71,
        "hand": "right"
      },
      {
        "midi": 74,
        "time": 30.857,
        "duration": 0.214,
        "velocity": 0.71,
        "hand": "right"
      },
      {
        "midi": 50,
        "time": 31.071,
        "duration": 0.429,
        "velocity": 0.71,
        "hand": "left"
      },
      {
        "midi": 58,
        "time": 31.071,
        "duration": 0.429,
        "velocity": 0.71,
        "hand": "left"
      },
      {
        "midi": 70,
        "time": 31.071,
        "duration": 0.214,
        "velocity": 0.71,
        "hand": "right"
      },
      {
        "midi": 67,
        "time": 31.286,
        "duration": 0.214,
        "velocity": 0.71,
        "hand": "right"
      },
      {
        "midi": 79,
        "time": 31.5,
        "duration": 0.214,
        "velocity": 0.71,
        "hand": "right"
      },
      {
        "midi": 50,
        "time": 31.714,
        "duration": 0.429,
        "velocity": 0.71,
        "hand": "left"
      },
      {
        "midi": 57,
        "time": 31.714,
        "duration": 0.429,
        "velocity": 0.71,
        "hand": "left"
      },
      {
        "midi": 78,
        "time": 31.714,
        "duration": 0.214,
        "velocity": 0.71,
        "hand": "right"
      },
      {
        "midi": 73,
        "time": 31.929,
        "duration": 0.214,
        "velocity": 0.71,
        "hand": "right"
      },
      {
        "midi": 74,
        "time": 32.143,
        "duration": 0.214,
        "velocity": 0.71,
        "hand": "right"
      },
      {
        "midi": 50,
        "time": 32.357,
        "duration": 0.429,
        "velocity": 0.71,
        "hand": "left"
      },
      {
        "midi": 59,
        "time": 32.357,
        "duration": 0.429,
        "velocity": 0.71,
        "hand": "left"
      },
      {
        "midi": 77,
        "time": 32.357,
        "duration": 0.214,
        "velocity": 0.71,
        "hand": "right"
      },
      {
        "midi": 76,
        "time": 32.571,
        "duration": 0.214,
        "velocity": 0.71,
        "hand": "right"
      },
      {
        "midi": 68,
        "time": 32.786,
        "duration": 0.214,
        "velocity": 0.71,
        "hand": "right"
      },
      {
        "midi": 50,
        "time": 33,
        "duration": 0.429,
        "velocity": 0.71,
        "hand": "left"
      },
      {
        "midi": 60,
        "time": 33,
        "duration": 0.429,
        "velocity": 0.71,
        "hand": "right"
      },
      {
        "midi": 69,
        "time": 33,
        "duration": 0.214,
        "velocity": 0.71,
        "hand": "right"
      },
      {
        "midi": 72,
        "time": 33.214,
        "duration": 0.214,
        "velocity": 0.71,
        "hand": "right"
      },
      {
        "midi": 69,
        "time": 33.429,
        "duration": 0.214,
        "velocity": 0.71,
        "hand": "right"
      },
      {
        "midi": 50,
        "time": 33.643,
        "duration": 0.429,
        "velocity": 0.71,
        "hand": "left"
      },
      {
        "midi": 57,
        "time": 33.643,
        "duration": 0.429,
        "velocity": 0.71,
        "hand": "left"
      },
      {
        "midi": 76,
        "time": 33.643,
        "duration": 0.214,
        "velocity": 0.71,
        "hand": "right"
      },
      {
        "midi": 74,
        "time": 33.857,
        "duration": 0.214,
        "velocity": 0.71,
        "hand": "right"
      },
      {
        "midi": 66,
        "time": 34.071,
        "duration": 0.214,
        "velocity": 0.71,
        "hand": "right"
      },
      {
        "midi": 50,
        "time": 34.286,
        "duration": 0.429,
        "velocity": 0.71,
        "hand": "left"
      },
      {
        "midi": 58,
        "time": 34.286,
        "duration": 0.429,
        "velocity": 0.71,
        "hand": "left"
      },
      {
        "midi": 67,
        "time": 34.286,
        "duration": 0.214,
        "velocity": 0.71,
        "hand": "right"
      },
      {
        "midi": 74,
        "time": 34.5,
        "duration": 0.214,
        "velocity": 0.71,
        "hand": "right"
      },
      {
        "midi": 70,
        "time": 34.714,
        "duration": 0.214,
        "velocity": 0.71,
        "hand": "right"
      },
      {
        "midi": 50,
        "time": 34.929,
        "duration": 0.429,
        "velocity": 0.71,
        "hand": "left"
      },
      {
        "midi": 57,
        "time": 34.929,
        "duration": 0.429,
        "velocity": 0.71,
        "hand": "left"
      },
      {
        "midi": 82,
        "time": 34.929,
        "duration": 0.214,
        "velocity": 0.71,
        "hand": "right"
      },
      {
        "midi": 81,
        "time": 35.143,
        "duration": 0.214,
        "velocity": 0.71,
        "hand": "right"
      },
      {
        "midi": 73,
        "time": 35.357,
        "duration": 0.214,
        "velocity": 0.71,
        "hand": "right"
      },
      {
        "midi": 50,
        "time": 35.571,
        "duration": 0.214,
        "velocity": 0.71,
        "hand": "left"
      },
      {
        "midi": 57,
        "time": 35.571,
        "duration": 0.214,
        "velocity": 0.71,
        "hand": "left"
      },
      {
        "midi": 74,
        "time": 35.571,
        "duration": 0.214,
        "velocity": 0.71,
        "hand": "right"
      },
      {
        "midi": 86,
        "time": 35.786,
        "duration": 0.214,
        "velocity": 0.71,
        "hand": "right"
      },
      {
        "midi": 74,
        "time": 36,
        "duration": 0.214,
        "velocity": 0.71,
        "hand": "right"
      },
      {
        "midi": 86,
        "time": 36,
        "duration": 0.214,
        "velocity": 0.71,
        "hand": "right"
      },
      {
        "midi": 71,
        "time": 36.214,
        "duration": 0.214,
        "velocity": 0.71,
        "hand": "right"
      },
      {
        "midi": 86,
        "time": 36.214,
        "duration": 0.643,
        "velocity": 0.71,
        "hand": "right"
      },
      {
        "midi": 67,
        "time": 36.429,
        "duration": 0.214,
        "velocity": 0.71,
        "hand": "right"
      },
      {
        "midi": 79,
        "time": 36.643,
        "duration": 0.214,
        "velocity": 0.71,
        "hand": "right"
      },
      {
        "midi": 78,
        "time": 36.857,
        "duration": 0.214,
        "velocity": 0.71,
        "hand": "right"
      },
      {
        "midi": 86,
        "time": 36.857,
        "duration": 0.643,
        "velocity": 0.71,
        "hand": "right"
      },
      {
        "midi": 73,
        "time": 37.071,
        "duration": 0.214,
        "velocity": 0.71,
        "hand": "right"
      },
      {
        "midi": 62,
        "time": 37.286,
        "duration": 0.214,
        "velocity": 0.71,
        "hand": "right"
      },
      {
        "midi": 74,
        "time": 37.286,
        "duration": 0.214,
        "velocity": 0.71,
        "hand": "right"
      },
      {
        "midi": 58,
        "time": 37.5,
        "duration": 0.214,
        "velocity": 0.71,
        "hand": "left"
      },
      {
        "midi": 79,
        "time": 37.5,
        "duration": 0.643,
        "velocity": 0.71,
        "hand": "right"
      },
      {
        "midi": 86,
        "time": 37.5,
        "duration": 0.643,
        "velocity": 0.71,
        "hand": "right"
      },
      {
        "midi": 55,
        "time": 37.714,
        "duration": 0.214,
        "velocity": 0.71,
        "hand": "left"
      },
      {
        "midi": 67,
        "time": 37.929,
        "duration": 0.214,
        "velocity": 0.71,
        "hand": "right"
      },
      {
        "midi": 66,
        "time": 38.143,
        "duration": 0.214,
        "velocity": 0.71,
        "hand": "right"
      },
      {
        "midi": 81,
        "time": 38.143,
        "duration": 0.643,
        "velocity": 0.71,
        "hand": "right"
      },
      {
        "midi": 86,
        "time": 38.143,
        "duration": 0.643,
        "velocity": 0.71,
        "hand": "right"
      },
      {
        "midi": 61,
        "time": 38.357,
        "duration": 0.214,
        "velocity": 0.71,
        "hand": "right"
      },
      {
        "midi": 62,
        "time": 38.571,
        "duration": 0.214,
        "velocity": 0.71,
        "hand": "right"
      },
      {
        "midi": 65,
        "time": 38.786,
        "duration": 0.214,
        "velocity": 0.71,
        "hand": "right"
      },
      {
        "midi": 80,
        "time": 38.786,
        "duration": 0.643,
        "velocity": 0.71,
        "hand": "right"
      },
      {
        "midi": 86,
        "time": 38.786,
        "duration": 0.643,
        "velocity": 0.71,
        "hand": "right"
      },
      {
        "midi": 59,
        "time": 39,
        "duration": 0.214,
        "velocity": 0.71,
        "hand": "left"
      },
      {
        "midi": 62,
        "time": 39.214,
        "duration": 0.214,
        "velocity": 0.71,
        "hand": "right"
      },
      {
        "midi": 51,
        "time": 39.429,
        "duration": 0.214,
        "velocity": 0.71,
        "hand": "left"
      },
      {
        "midi": 79,
        "time": 39.429,
        "duration": 0.643,
        "velocity": 0.71,
        "hand": "right"
      },
      {
        "midi": 86,
        "time": 39.429,
        "duration": 0.643,
        "velocity": 0.71,
        "hand": "right"
      },
      {
        "midi": 63,
        "time": 39.643,
        "duration": 0.214,
        "velocity": 0.71,
        "hand": "right"
      },
      {
        "midi": 60,
        "time": 39.857,
        "duration": 0.214,
        "velocity": 0.71,
        "hand": "right"
      },
      {
        "midi": 56,
        "time": 40.071,
        "duration": 0.214,
        "velocity": 0.71,
        "hand": "left"
      },
      {
        "midi": 80,
        "time": 40.071,
        "duration": 0.643,
        "velocity": 0.71,
        "hand": "right"
      },
      {
        "midi": 84,
        "time": 40.071,
        "duration": 0.643,
        "velocity": 0.71,
        "hand": "right"
      },
      {
        "midi": 60,
        "time": 40.286,
        "duration": 0.214,
        "velocity": 0.71,
        "hand": "right"
      },
      {
        "midi": 55,
        "time": 40.5,
        "duration": 0.214,
        "velocity": 0.71,
        "hand": "left"
      },
      {
        "midi": 54,
        "time": 40.714,
        "duration": 0.214,
        "velocity": 0.71,
        "hand": "left"
      },
      {
        "midi": 81,
        "time": 40.714,
        "duration": 0.429,
        "velocity": 0.71,
        "hand": "right"
      },
      {
        "midi": 84,
        "time": 40.714,
        "duration": 0.429,
        "velocity": 0.71,
        "hand": "right"
      },
      {
        "midi": 50,
        "time": 40.929,
        "duration": 0.214,
        "velocity": 0.71,
        "hand": "left"
      },
      {
        "midi": 78,
        "time": 40.929,
        "duration": 0.214,
        "velocity": 0.71,
        "hand": "right"
      },
      {
        "midi": 52,
        "time": 41.143,
        "duration": 0.214,
        "velocity": 0.71,
        "hand": "left"
      },
      {
        "midi": 79,
        "time": 41.143,
        "duration": 0.214,
        "velocity": 0.71,
        "hand": "right"
      },
      {
        "midi": 83,
        "time": 41.143,
        "duration": 0.214,
        "velocity": 0.71,
        "hand": "right"
      },
      {
        "midi": 48,
        "time": 41.357,
        "duration": 0.214,
        "velocity": 0.71,
        "hand": "left"
      },
      {
        "midi": 76,
        "time": 41.357,
        "duration": 0.214,
        "velocity": 0.71,
        "hand": "right"
      },
      {
        "midi": 45,
        "time": 41.571,
        "duration": 0.214,
        "velocity": 0.71,
        "hand": "left"
      },
      {
        "midi": 81,
        "time": 41.571,
        "duration": 0.214,
        "velocity": 0.71,
        "hand": "right"
      },
      {
        "midi": 50,
        "time": 41.786,
        "duration": 0.214,
        "velocity": 0.71,
        "hand": "left"
      },
      {
        "midi": 69,
        "time": 41.786,
        "duration": 0.214,
        "velocity": 0.71,
        "hand": "right"
      },
      {
        "midi": 78,
        "time": 41.786,
        "duration": 0.214,
        "velocity": 0.71,
        "hand": "right"
      },
      {
        "midi": 43,
        "time": 42,
        "duration": 0.643,
        "velocity": 0.71,
        "hand": "left"
      },
      {
        "midi": 71,
        "time": 42,
        "duration": 0.214,
        "velocity": 0.71,
        "hand": "right"
      },
      {
        "midi": 79,
        "time": 42,
        "duration": 0.214,
        "velocity": 0.71,
        "hand": "right"
      },
      {
        "midi": 83,
        "time": 42.214,
        "duration": 0.214,
        "velocity": 0.71,
        "hand": "right"
      },
      {
        "midi": 73,
        "time": 42.429,
        "duration": 0.214,
        "velocity": 0.71,
        "hand": "right"
      },
      {
        "midi": 76,
        "time": 42.429,
        "duration": 0.214,
        "velocity": 0.71,
        "hand": "right"
      },
      {
        "midi": 79,
        "time": 42.429,
        "duration": 0.214,
        "velocity": 0.71,
        "hand": "right"
      },
      {
        "midi": 43,
        "time": 42.643,
        "duration": 0.643,
        "velocity": 0.71,
        "hand": "left"
      },
      {
        "midi": 74,
        "time": 42.643,
        "duration": 0.214,
        "velocity": 0.71,
        "hand": "right"
      },
      {
        "midi": 78,
        "time": 42.643,
        "duration": 0.214,
        "velocity": 0.71,
        "hand": "right"
      },
      {
        "midi": 86,
        "time": 42.857,
        "duration": 0.214,
        "velocity": 0.71,
        "hand": "right"
      },
      {
        "midi": 71,
        "time": 43.071,
        "duration": 0.214,
        "velocity": 0.71,
        "hand": "right"
      },
      {
        "midi": 74,
        "time": 43.071,
        "duration": 0.214,
        "velocity": 0.71,
        "hand": "right"
      },
      {
        "midi": 77,
        "time": 43.071,
        "duration": 0.214,
        "velocity": 0.71,
        "hand": "right"
      },
      {
        "midi": 43,
        "time": 43.286,
        "duration": 0.643,
        "velocity": 0.71,
        "hand": "left"
      },
      {
        "midi": 72,
        "time": 43.286,
        "duration": 0.214,
        "velocity": 0.71,
        "hand": "right"
      },
      {
        "midi": 76,
        "time": 43.286,
        "duration": 0.214,
        "velocity": 0.71,
        "hand": "right"
      },
      {
        "midi": 84,
        "time": 43.5,
        "duration": 0.214,
        "velocity": 0.71,
        "hand": "right"
      },
      {
        "midi": 66,
        "time": 43.714,
        "duration": 0.214,
        "velocity": 0.71,
        "hand": "right"
      },
      {
        "midi": 72,
        "time": 43.714,
        "duration": 0.214,
        "velocity": 0.71,
        "hand": "right"
      },
      {
        "midi": 75,
        "time": 43.714,
        "duration": 0.214,
        "velocity": 0.71,
        "hand": "right"
      },
      {
        "midi": 43,
        "time": 43.929,
        "duration": 0.643,
        "velocity": 0.71,
        "hand": "left"
      },
      {
        "midi": 67,
        "time": 43.929,
        "duration": 0.214,
        "velocity": 0.71,
        "hand": "right"
      },
      {
        "midi": 74,
        "time": 43.929,
        "duration": 0.214,
        "velocity": 0.71,
        "hand": "right"
      },
      {
        "midi": 83,
        "time": 44.143,
        "duration": 0.214,
        "velocity": 0.71,
        "hand": "right"
      },
      {
        "midi": 65,
        "time": 44.357,
        "duration": 0.214,
        "velocity": 0.71,
        "hand": "right"
      },
      {
        "midi": 68,
        "time": 44.357,
        "duration": 0.214,
        "velocity": 0.71,
        "hand": "right"
      },
      {
        "midi": 74,
        "time": 44.357,
        "duration": 0.214,
        "velocity": 0.71,
        "hand": "right"
      },
      {
        "midi": 43,
        "time": 44.571,
        "duration": 0.643,
        "velocity": 0.71,
        "hand": "left"
      },
      {
        "midi": 64,
        "time": 44.571,
        "duration": 0.214,
        "velocity": 0.71,
        "hand": "right"
      },
      {
        "midi": 73,
        "time": 44.571,
        "duration": 0.214,
        "velocity": 0.71,
        "hand": "right"
      },
      {
        "midi": 81,
        "time": 44.786,
        "duration": 0.214,
        "velocity": 0.71,
        "hand": "right"
      },
      {
        "midi": 63,
        "time": 45,
        "duration": 0.214,
        "velocity": 0.71,
        "hand": "right"
      },
      {
        "midi": 66,
        "time": 45,
        "duration": 0.214,
        "velocity": 0.71,
        "hand": "right"
      },
      {
        "midi": 72,
        "time": 45,
        "duration": 0.214,
        "velocity": 0.71,
        "hand": "right"
      },
      {
        "midi": 43,
        "time": 45.214,
        "duration": 0.214,
        "velocity": 0.71,
        "hand": "left"
      },
      {
        "midi": 62,
        "time": 45.214,
        "duration": 0.214,
        "velocity": 0.71,
        "hand": "right"
      },
      {
        "midi": 71,
        "time": 45.214,
        "duration": 0.214,
        "velocity": 0.71,
        "hand": "right"
      },
      {
        "midi": 79,
        "time": 45.429,
        "duration": 0.214,
        "velocity": 0.71,
        "hand": "right"
      },
      {
        "midi": 39,
        "time": 45.643,
        "duration": 0.214,
        "velocity": 0.71,
        "hand": "left"
      },
      {
        "midi": 51,
        "time": 45.643,
        "duration": 0.214,
        "velocity": 0.71,
        "hand": "left"
      },
      {
        "midi": 63,
        "time": 45.643,
        "duration": 0.214,
        "velocity": 0.71,
        "hand": "right"
      },
      {
        "midi": 40,
        "time": 45.857,
        "duration": 0.214,
        "velocity": 0.71,
        "hand": "left"
      },
      {
        "midi": 52,
        "time": 45.857,
        "duration": 0.214,
        "velocity": 0.71,
        "hand": "left"
      },
      {
        "midi": 64,
        "time": 45.857,
        "duration": 0.214,
        "velocity": 0.71,
        "hand": "right"
      },
      {
        "midi": 55,
        "time": 46.071,
        "duration": 0.214,
        "velocity": 0.71,
        "hand": "left"
      },
      {
        "midi": 67,
        "time": 46.071,
        "duration": 0.214,
        "velocity": 0.71,
        "hand": "right"
      },
      {
        "midi": 38,
        "time": 46.286,
        "duration": 0.214,
        "velocity": 0.71,
        "hand": "left"
      },
      {
        "midi": 50,
        "time": 46.286,
        "duration": 0.214,
        "velocity": 0.71,
        "hand": "left"
      },
      {
        "midi": 62,
        "time": 46.286,
        "duration": 0.214,
        "velocity": 0.71,
        "hand": "right"
      },
      {
        "midi": 37,
        "time": 46.5,
        "duration": 0.214,
        "velocity": 0.71,
        "hand": "left"
      },
      {
        "midi": 49,
        "time": 46.5,
        "duration": 0.214,
        "velocity": 0.71,
        "hand": "left"
      },
      {
        "midi": 61,
        "time": 46.5,
        "duration": 0.214,
        "velocity": 0.71,
        "hand": "right"
      },
      {
        "midi": 69,
        "time": 46.714,
        "duration": 0.214,
        "velocity": 0.71,
        "hand": "right"
      },
      {
        "midi": 36,
        "time": 46.929,
        "duration": 0.214,
        "velocity": 0.71,
        "hand": "left"
      },
      {
        "midi": 48,
        "time": 46.929,
        "duration": 0.214,
        "velocity": 0.71,
        "hand": "left"
      },
      {
        "midi": 60,
        "time": 46.929,
        "duration": 0.214,
        "velocity": 0.71,
        "hand": "right"
      },
      {
        "midi": 35,
        "time": 47.143,
        "duration": 0.214,
        "velocity": 0.71,
        "hand": "left"
      },
      {
        "midi": 47,
        "time": 47.143,
        "duration": 0.214,
        "velocity": 0.71,
        "hand": "left"
      },
      {
        "midi": 59,
        "time": 47.143,
        "duration": 0.214,
        "velocity": 0.71,
        "hand": "left"
      },
      {
        "midi": 43,
        "time": 47.357,
        "duration": 0.214,
        "velocity": 0.71,
        "hand": "left"
      },
      {
        "midi": 55,
        "time": 47.357,
        "duration": 0.214,
        "velocity": 0.71,
        "hand": "left"
      },
      {
        "midi": 67,
        "time": 47.357,
        "duration": 0.214,
        "velocity": 0.71,
        "hand": "right"
      },
      {
        "midi": 40,
        "time": 47.571,
        "duration": 0.214,
        "velocity": 0.71,
        "hand": "left"
      },
      {
        "midi": 52,
        "time": 47.571,
        "duration": 0.214,
        "velocity": 0.71,
        "hand": "left"
      },
      {
        "midi": 64,
        "time": 47.571,
        "duration": 0.214,
        "velocity": 0.71,
        "hand": "right"
      },
      {
        "midi": 36,
        "time": 47.786,
        "duration": 0.214,
        "velocity": 0.71,
        "hand": "left"
      },
      {
        "midi": 48,
        "time": 47.786,
        "duration": 0.214,
        "velocity": 0.71,
        "hand": "left"
      },
      {
        "midi": 60,
        "time": 47.786,
        "duration": 0.214,
        "velocity": 0.71,
        "hand": "right"
      },
      {
        "midi": 33,
        "time": 48,
        "duration": 0.214,
        "velocity": 0.71,
        "hand": "left"
      },
      {
        "midi": 45,
        "time": 48,
        "duration": 0.214,
        "velocity": 0.71,
        "hand": "left"
      },
      {
        "midi": 57,
        "time": 48,
        "duration": 0.214,
        "velocity": 0.71,
        "hand": "left"
      },
      {
        "midi": 38,
        "time": 48.214,
        "duration": 0.214,
        "velocity": 0.71,
        "hand": "left"
      },
      {
        "midi": 69,
        "time": 48.214,
        "duration": 0.214,
        "velocity": 0.71,
        "hand": "right"
      },
      {
        "midi": 78,
        "time": 48.214,
        "duration": 0.214,
        "velocity": 0.71,
        "hand": "right"
      },
      {
        "midi": 31,
        "time": 48.429,
        "duration": 0.429,
        "velocity": 0.71,
        "hand": "left"
      },
      {
        "midi": 71,
        "time": 48.429,
        "duration": 0.429,
        "velocity": 0.71,
        "hand": "right"
      },
      {
        "midi": 79,
        "time": 48.429,
        "duration": 0.429,
        "velocity": 0.71,
        "hand": "right"
      }
    ],
    "hard": [
      {
        "midi": 74,
        "time": 0,
        "duration": 0.214,
        "velocity": 0.71,
        "hand": "right"
      },
      {
        "midi": 71,
        "time": 0.214,
        "duration": 0.214,
        "velocity": 0.71,
        "hand": "right"
      },
      {
        "midi": 67,
        "time": 0.429,
        "duration": 0.214,
        "velocity": 0.71,
        "hand": "right"
      },
      {
        "midi": 79,
        "time": 0.643,
        "duration": 0.214,
        "velocity": 0.71,
        "hand": "right"
      },
      {
        "midi": 78,
        "time": 0.857,
        "duration": 0.214,
        "velocity": 0.71,
        "hand": "right"
      },
      {
        "midi": 73,
        "time": 1.071,
        "duration": 0.214,
        "velocity": 0.71,
        "hand": "right"
      },
      {
        "midi": 74,
        "time": 1.286,
        "duration": 0.214,
        "velocity": 0.71,
        "hand": "right"
      },
      {
        "midi": 77,
        "time": 1.5,
        "duration": 0.214,
        "velocity": 0.71,
        "hand": "right"
      },
      {
        "midi": 76,
        "time": 1.714,
        "duration": 0.214,
        "velocity": 0.71,
        "hand": "right"
      },
      {
        "midi": 68,
        "time": 1.929,
        "duration": 0.214,
        "velocity": 0.71,
        "hand": "right"
      },
      {
        "midi": 69,
        "time": 2.143,
        "duration": 0.214,
        "velocity": 0.71,
        "hand": "right"
      },
      {
        "midi": 72,
        "time": 2.357,
        "duration": 0.214,
        "velocity": 0.71,
        "hand": "right"
      },
      {
        "midi": 67,
        "time": 2.571,
        "duration": 0.214,
        "velocity": 0.71,
        "hand": "right"
      },
      {
        "midi": 71,
        "time": 2.571,
        "duration": 0.214,
        "velocity": 0.71,
        "hand": "right"
      },
      {
        "midi": 66,
        "time": 2.786,
        "duration": 0.214,
        "velocity": 0.71,
        "hand": "right"
      },
      {
        "midi": 69,
        "time": 2.786,
        "duration": 0.214,
        "velocity": 0.71,
        "hand": "right"
      },
      {
        "midi": 62,
        "time": 3,
        "duration": 0.214,
        "velocity": 0.71,
        "hand": "right"
      },
      {
        "midi": 74,
        "time": 3.214,
        "duration": 0.214,
        "velocity": 0.71,
        "hand": "right"
      },
      {
        "midi": 78,
        "time": 3.214,
        "duration": 0.214,
        "velocity": 0.71,
        "hand": "right"
      },
      {
        "midi": 73,
        "time": 3.429,
        "duration": 0.214,
        "velocity": 0.71,
        "hand": "right"
      },
      {
        "midi": 76,
        "time": 3.429,
        "duration": 0.214,
        "velocity": 0.71,
        "hand": "right"
      },
      {
        "midi": 68,
        "time": 3.643,
        "duration": 0.214,
        "velocity": 0.71,
        "hand": "right"
      },
      {
        "midi": 86,
        "time": 3.643,
        "duration": 0.214,
        "velocity": 0.71,
        "hand": "right"
      },
      {
        "midi": 69,
        "time": 3.857,
        "duration": 0.214,
        "velocity": 0.71,
        "hand": "right"
      },
      {
        "midi": 85,
        "time": 3.857,
        "duration": 0.214,
        "velocity": 0.71,
        "hand": "right"
      },
      {
        "midi": 72,
        "time": 4.071,
        "duration": 0.214,
        "velocity": 0.71,
        "hand": "right"
      },
      {
        "midi": 76,
        "time": 4.071,
        "duration": 0.214,
        "velocity": 0.71,
        "hand": "right"
      },
      {
        "midi": 71,
        "time": 4.286,
        "duration": 0.214,
        "velocity": 0.71,
        "hand": "right"
      },
      {
        "midi": 75,
        "time": 4.286,
        "duration": 0.214,
        "velocity": 0.71,
        "hand": "right"
      },
      {
        "midi": 63,
        "time": 4.5,
        "duration": 0.214,
        "velocity": 0.71,
        "hand": "right"
      },
      {
        "midi": 81,
        "time": 4.5,
        "duration": 0.214,
        "velocity": 0.71,
        "hand": "right"
      },
      {
        "midi": 64,
        "time": 4.714,
        "duration": 0.214,
        "velocity": 0.71,
        "hand": "right"
      },
      {
        "midi": 79,
        "time": 4.714,
        "duration": 0.214,
        "velocity": 0.71,
        "hand": "right"
      },
      {
        "midi": 67,
        "time": 4.929,
        "duration": 0.214,
        "velocity": 0.71,
        "hand": "right"
      },
      {
        "midi": 73,
        "time": 4.929,
        "duration": 0.214,
        "velocity": 0.71,
        "hand": "right"
      },
      {
        "midi": 62,
        "time": 5.143,
        "duration": 0.214,
        "velocity": 0.71,
        "hand": "right"
      },
      {
        "midi": 66,
        "time": 5.143,
        "duration": 0.214,
        "velocity": 0.71,
        "hand": "right"
      },
      {
        "midi": 74,
        "time": 5.143,
        "duration": 0.214,
        "velocity": 0.71,
        "hand": "right"
      },
      {
        "midi": 59,
        "time": 5.357,
        "duration": 0.214,
        "velocity": 0.71,
        "hand": "left"
      },
      {
        "midi": 55,
        "time": 5.571,
        "duration": 0.214,
        "velocity": 0.71,
        "hand": "left"
      },
      {
        "midi": 67,
        "time": 5.786,
        "duration": 0.214,
        "velocity": 0.71,
        "hand": "right"
      },
      {
        "midi": 69,
        "time": 5.786,
        "duration": 0.214,
        "velocity": 0.71,
        "hand": "right"
      },
      {
        "midi": 73,
        "time": 5.786,
        "duration": 0.214,
        "velocity": 0.71,
        "hand": "right"
      },
      {
        "midi": 66,
        "time": 6,
        "duration": 0.214,
        "velocity": 0.71,
        "hand": "right"
      },
      {
        "midi": 69,
        "time": 6,
        "duration": 0.857,
        "velocity": 0.71,
        "hand": "right"
      },
      {
        "midi": 74,
        "time": 6,
        "duration": 0.214,
        "velocity": 0.71,
        "hand": "right"
      },
      {
        "midi": 61,
        "time": 6.214,
        "duration": 0.214,
        "velocity": 0.71,
        "hand": "right"
      },
      {
        "midi": 79,
        "time": 6.214,
        "duration": 0.214,
        "velocity": 0.71,
        "hand": "right"
      },
      {
        "midi": 62,
        "time": 6.429,
        "duration": 0.214,
        "velocity": 0.71,
        "hand": "right"
      },
      {
        "midi": 78,
        "time": 6.429,
        "duration": 0.214,
        "velocity": 0.71,
        "hand": "right"
      },
      {
        "midi": 65,
        "time": 6.643,
        "duration": 0.214,
        "velocity": 0.71,
        "hand": "right"
      },
      {
        "midi": 71,
        "time": 6.643,
        "duration": 0.429,
        "velocity": 0.71,
        "hand": "right"
      },
      {
        "midi": 64,
        "time": 6.857,
        "duration": 0.214,
        "velocity": 0.71,
        "hand": "right"
      },
      {
        "midi": 68,
        "time": 6.857,
        "duration": 0.214,
        "velocity": 0.71,
        "hand": "right"
      },
      {
        "midi": 56,
        "time": 7.071,
        "duration": 0.214,
        "velocity": 0.71,
        "hand": "left"
      },
      {
        "midi": 64,
        "time": 7.071,
        "duration": 0.429,
        "velocity": 0.71,
        "hand": "right"
      },
      {
        "midi": 74,
        "time": 7.071,
        "duration": 0.214,
        "velocity": 0.71,
        "hand": "right"
      },
      {
        "midi": 57,
        "time": 7.286,
        "duration": 0.214,
        "velocity": 0.71,
        "hand": "left"
      },
      {
        "midi": 72,
        "time": 7.286,
        "duration": 0.214,
        "velocity": 0.71,
        "hand": "right"
      },
      {
        "midi": 60,
        "time": 7.5,
        "duration": 0.214,
        "velocity": 0.71,
        "hand": "right"
      },
      {
        "midi": 63,
        "time": 7.5,
        "duration": 0.214,
        "velocity": 0.71,
        "hand": "right"
      },
      {
        "midi": 66,
        "time": 7.5,
        "duration": 0.214,
        "velocity": 0.71,
        "hand": "right"
      },
      {
        "midi": 59,
        "time": 7.714,
        "duration": 0.214,
        "velocity": 0.71,
        "hand": "left"
      },
      {
        "midi": 62,
        "time": 7.714,
        "duration": 0.214,
        "velocity": 0.71,
        "hand": "right"
      },
      {
        "midi": 67,
        "time": 7.714,
        "duration": 0.429,
        "velocity": 0.71,
        "hand": "right"
      },
      {
        "midi": 60,
        "time": 7.929,
        "duration": 0.214,
        "velocity": 0.71,
        "hand": "right"
      },
      {
        "midi": 64,
        "time": 7.929,
        "duration": 0.429,
        "velocity": 0.71,
        "hand": "right"
      },
      {
        "midi": 48,
        "time": 8.143,
        "duration": 0.214,
        "velocity": 0.71,
        "hand": "left"
      },
      {
        "midi": 69,
        "time": 8.143,
        "duration": 0.643,
        "velocity": 0.71,
        "hand": "right"
      },
      {
        "midi": 45,
        "time": 8.357,
        "duration": 0.214,
        "velocity": 0.71,
        "hand": "left"
      },
      {
        "midi": 65,
        "time": 8.357,
        "duration": 0.214,
        "velocity": 0.71,
        "hand": "right"
      },
      {
        "midi": 50,
        "time": 8.571,
        "duration": 0.214,
        "velocity": 0.71,
        "hand": "left"
      },
      {
        "midi": 66,
        "time": 8.571,
        "duration": 0.643,
        "velocity": 0.71,
        "hand": "right"
      },
      {
        "midi": 62,
        "time": 8.786,
        "duration": 0.214,
        "velocity": 0.71,
        "hand": "right"
      },
      {
        "midi": 71,
        "time": 8.786,
        "duration": 0.643,
        "velocity": 0.71,
        "hand": "right"
      },
      {
        "midi": 59,
        "time": 9,
        "duration": 0.214,
        "velocity": 0.71,
        "hand": "left"
      },
      {
        "midi": 64,
        "time": 9.214,
        "duration": 0.214,
        "velocity": 0.71,
        "hand": "right"
      },
      {
        "midi": 67,
        "time": 9.214,
        "duration": 0.429,
        "velocity": 0.71,
        "hand": "right"
      },
      {
        "midi": 52,
        "time": 9.429,
        "duration": 0.214,
        "velocity": 0.71,
        "hand": "left"
      },
      {
        "midi": 72,
        "time": 9.429,
        "duration": 0.643,
        "velocity": 0.71,
        "hand": "right"
      },
      {
        "midi": 48,
        "time": 9.643,
        "duration": 0.214,
        "velocity": 0.71,
        "hand": "left"
      },
      {
        "midi": 68,
        "time": 9.643,
        "duration": 0.214,
        "velocity": 0.71,
        "hand": "right"
      },
      {
        "midi": 54,
        "time": 9.857,
        "duration": 0.214,
        "velocity": 0.71,
        "hand": "left"
      },
      {
        "midi": 69,
        "time": 9.857,
        "duration": 0.429,
        "velocity": 0.71,
        "hand": "right"
      },
      {
        "midi": 66,
        "time": 10.071,
        "duration": 0.214,
        "velocity": 0.71,
        "hand": "right"
      },
      {
        "midi": 74,
        "time": 10.071,
        "duration": 0.643,
        "velocity": 0.71,
        "hand": "right"
      },
      {
        "midi": 62,
        "time": 10.286,
        "duration": 0.214,
        "velocity": 0.71,
        "hand": "right"
      },
      {
        "midi": 70,
        "time": 10.286,
        "duration": 0.214,
        "velocity": 0.71,
        "hand": "right"
      },
      {
        "midi": 67,
        "time": 10.5,
        "duration": 0.214,
        "velocity": 0.71,
        "hand": "right"
      },
      {
        "midi": 71,
        "time": 10.5,
        "duration": 0.214,
        "velocity": 0.71,
        "hand": "right"
      },
      {
        "midi": 55,
        "time": 10.714,
        "duration": 0.643,
        "velocity": 0.71,
        "hand": "left"
      },
      {
        "midi": 71,
        "time": 10.714,
        "duration": 0.214,
        "velocity": 0.71,
        "hand": "right"
      },
      {
        "midi": 59,
        "time": 10.929,
        "duration": 0.214,
        "velocity": 0.71,
        "hand": "left"
      },
      {
        "midi": 76,
        "time": 10.929,
        "duration": 0.214,
        "velocity": 0.71,
        "hand": "right"
      },
      {
        "midi": 64,
        "time": 11.143,
        "duration": 0.429,
        "velocity": 0.71,
        "hand": "right"
      },
      {
        "midi": 83,
        "time": 11.143,
        "duration": 0.214,
        "velocity": 0.71,
        "hand": "right"
      },
      {
        "midi": 57,
        "time": 11.357,
        "duration": 0.643,
        "velocity": 0.71,
        "hand": "left"
      },
      {
        "midi": 73,
        "time": 11.357,
        "duration": 0.214,
        "velocity": 0.71,
        "hand": "right"
      },
      {
        "midi": 61,
        "time": 11.571,
        "duration": 0.214,
        "velocity": 0.71,
        "hand": "right"
      },
      {
        "midi": 78,
        "time": 11.571,
        "duration": 0.214,
        "velocity": 0.71,
        "hand": "right"
      },
      {
        "midi": 66,
        "time": 11.786,
        "duration": 0.429,
        "velocity": 0.71,
        "hand": "right"
      },
      {
        "midi": 85,
        "time": 11.786,
        "duration": 0.214,
        "velocity": 0.71,
        "hand": "right"
      },
      {
        "midi": 59,
        "time": 12,
        "duration": 0.643,
        "velocity": 0.71,
        "hand": "left"
      },
      {
        "midi": 74,
        "time": 12,
        "duration": 0.214,
        "velocity": 0.71,
        "hand": "right"
      },
      {
        "midi": 62,
        "time": 12.214,
        "duration": 0.214,
        "velocity": 0.71,
        "hand": "right"
      },
      {
        "midi": 79,
        "time": 12.214,
        "duration": 0.214,
        "velocity": 0.71,
        "hand": "right"
      },
      {
        "midi": 67,
        "time": 12.429,
        "duration": 0.429,
        "velocity": 0.71,
        "hand": "right"
      },
      {
        "midi": 86,
        "time": 12.429,
        "duration": 0.214,
        "velocity": 0.71,
        "hand": "right"
      },
      {
        "midi": 61,
        "time": 12.643,
        "duration": 0.429,
        "velocity": 0.71,
        "hand": "right"
      },
      {
        "midi": 76,
        "time": 12.643,
        "duration": 0.214,
        "velocity": 0.71,
        "hand": "right"
      },
      {
        "midi": 64,
        "time": 12.857,
        "duration": 0.214,
        "velocity": 0.71,
        "hand": "right"
      },
      {
        "midi": 81,
        "time": 12.857,
        "duration": 0.214,
        "velocity": 0.71,
        "hand": "right"
      },
      {
        "midi": 62,
        "time": 13.071,
        "duration": 0.214,
        "velocity": 0.71,
        "hand": "right"
      },
      {
        "midi": 66,
        "time": 13.071,
        "duration": 0.214,
        "velocity": 0.71,
        "hand": "right"
      },
      {
        "midi": 78,
        "time": 13.071,
        "duration": 0.214,
        "velocity": 0.71,
        "hand": "right"
      },
      {
        "midi": 74,
        "time": 13.286,
        "duration": 0.214,
        "velocity": 0.71,
        "hand": "right"
      },
      {
        "midi": 59,
        "time": 13.5,
        "duration": 0.214,
        "velocity": 0.71,
        "hand": "left"
      },
      {
        "midi": 68,
        "time": 13.5,
        "duration": 0.214,
        "velocity": 0.71,
        "hand": "right"
      },
      {
        "midi": 86,
        "time": 13.5,
        "duration": 0.214,
        "velocity": 0.71,
        "hand": "right"
      },
      {
        "midi": 57,
        "time": 13.714,
        "duration": 0.214,
        "velocity": 0.71,
        "hand": "left"
      },
      {
        "midi": 69,
        "time": 13.714,
        "duration": 0.214,
        "velocity": 0.71,
        "hand": "right"
      },
      {
        "midi": 85,
        "time": 13.714,
        "duration": 0.214,
        "velocity": 0.71,
        "hand": "right"
      },
      {
        "midi": 80,
        "time": 13.929,
        "duration": 0.214,
        "velocity": 0.71,
        "hand": "right"
      },
      {
        "midi": 69,
        "time": 14.143,
        "duration": 0.214,
        "velocity": 0.71,
        "hand": "right"
      },
      {
        "midi": 81,
        "time": 14.143,
        "duration": 0.214,
        "velocity": 0.71,
        "hand": "right"
      },
      {
        "midi": 66,
        "time": 14.357,
        "duration": 0.214,
        "velocity": 0.71,
        "hand": "right"
      },
      {
        "midi": 81,
        "time": 14.357,
        "duration": 0.643,
        "velocity": 0.71,
        "hand": "right"
      },
      {
        "midi": 62,
        "time": 14.571,
        "duration": 0.214,
        "velocity": 0.71,
        "hand": "right"
      },
      {
        "midi": 74,
        "time": 14.786,
        "duration": 0.214,
        "velocity": 0.71,
        "hand": "right"
      },
      {
        "midi": 73,
        "time": 15,
        "duration": 0.214,
        "velocity": 0.71,
        "hand": "right"
      },
      {
        "midi": 81,
        "time": 15,
        "duration": 0.643,
        "velocity": 0.71,
        "hand": "right"
      },
      {
        "midi": 68,
        "time": 15.214,
        "duration": 0.214,
        "velocity": 0.71,
        "hand": "right"
      },
      {
        "midi": 57,
        "time": 15.429,
        "duration": 0.214,
        "velocity": 0.71,
        "hand": "left"
      },
      {
        "midi": 69,
        "time": 15.429,
        "duration": 0.214,
        "velocity": 0.71,
        "hand": "right"
      },
      {
        "midi": 53,
        "time": 15.643,
        "duration": 0.214,
        "velocity": 0.71,
        "hand": "left"
      },
      {
        "midi": 69,
        "time": 15.643,
        "duration": 0.643,
        "velocity": 0.71,
        "hand": "right"
      },
      {
        "midi": 74,
        "time": 15.643,
        "duration": 0.643,
        "velocity": 0.71,
        "hand": "right"
      },
      {
        "midi": 81,
        "time": 15.643,
        "duration": 0.643,
        "velocity": 0.71,
        "hand": "right"
      },
      {
        "midi": 50,
        "time": 15.857,
        "duration": 0.214,
        "velocity": 0.71,
        "hand": "left"
      },
      {
        "midi": 62,
        "time": 16.071,
        "duration": 0.214,
        "velocity": 0.71,
        "hand": "right"
      },
      {
        "midi": 61,
        "time": 16.286,
        "duration": 0.214,
        "velocity": 0.71,
        "hand": "right"
      },
      {
        "midi": 69,
        "time": 16.286,
        "duration": 0.643,
        "velocity": 0.71,
        "hand": "right"
      },
      {
        "midi": 76,
        "time": 16.286,
        "duration": 0.643,
        "velocity": 0.71,
        "hand": "right"
      },
      {
        "midi": 81,
        "time": 16.286,
        "duration": 0.643,
        "velocity": 0.71,
        "hand": "right"
      },
      {
        "midi": 56,
        "time": 16.5,
        "duration": 0.214,
        "velocity": 0.71,
        "hand": "left"
      },
      {
        "midi": 57,
        "time": 16.714,
        "duration": 0.214,
        "velocity": 0.71,
        "hand": "left"
      },
      {
        "midi": 60,
        "time": 16.929,
        "duration": 0.214,
        "velocity": 0.71,
        "hand": "right"
      },
      {
        "midi": 69,
        "time": 16.929,
        "duration": 0.643,
        "velocity": 0.71,
        "hand": "right"
      },
      {
        "midi": 75,
        "time": 16.929,
        "duration": 0.643,
        "velocity": 0.71,
        "hand": "right"
      },
      {
        "midi": 81,
        "time": 16.929,
        "duration": 0.643,
        "velocity": 0.71,
        "hand": "right"
      },
      {
        "midi": 54,
        "time": 17.143,
        "duration": 0.214,
        "velocity": 0.71,
        "hand": "left"
      },
      {
        "midi": 57,
        "time": 17.357,
        "duration": 0.214,
        "velocity": 0.71,
        "hand": "left"
      },
      {
        "midi": 46,
        "time": 17.571,
        "duration": 0.214,
        "velocity": 0.71,
        "hand": "left"
      },
      {
        "midi": 70,
        "time": 17.571,
        "duration": 0.643,
        "velocity": 0.71,
        "hand": "right"
      },
      {
        "midi": 74,
        "time": 17.571,
        "duration": 0.643,
        "velocity": 0.71,
        "hand": "right"
      },
      {
        "midi": 81,
        "time": 17.571,
        "duration": 0.643,
        "velocity": 0.71,
        "hand": "right"
      },
      {
        "midi": 58,
        "time": 17.786,
        "duration": 0.214,
        "velocity": 0.71,
        "hand": "left"
      },
      {
        "midi": 55,
        "time": 18,
        "duration": 0.214,
        "velocity": 0.71,
        "hand": "left"
      },
      {
        "midi": 51,
        "time": 18.214,
        "duration": 0.214,
        "velocity": 0.71,
        "hand": "left"
      },
      {
        "midi": 70,
        "time": 18.214,
        "duration": 0.643,
        "velocity": 0.71,
        "hand": "right"
      },
      {
        "midi": 75,
        "time": 18.214,
        "duration": 0.643,
        "velocity": 0.71,
        "hand": "right"
      },
      {
        "midi": 79,
        "time": 18.214,
        "duration": 0.643,
        "velocity": 0.71,
        "hand": "right"
      },
      {
        "midi": 55,
        "time": 18.429,
        "duration": 0.214,
        "velocity": 0.71,
        "hand": "left"
      },
      {
        "midi": 50,
        "time": 18.643,
        "duration": 0.214,
        "velocity": 0.71,
        "hand": "left"
      },
      {
        "midi": 49,
        "time": 18.857,
        "duration": 0.214,
        "velocity": 0.71,
        "hand": "left"
      },
      {
        "midi": 69,
        "time": 18.857,
        "duration": 0.214,
        "velocity": 0.71,
        "hand": "right"
      },
      {
        "midi": 76,
        "time": 18.857,
        "duration": 0.429,
        "velocity": 0.71,
        "hand": "right"
      },
      {
        "midi": 79,
        "time": 18.857,
        "duration": 0.429,
        "velocity": 0.71,
        "hand": "right"
      },
      {
        "midi": 45,
        "time": 19.071,
        "duration": 0.214,
        "velocity": 0.71,
        "hand": "left"
      },
      {
        "midi": 73,
        "time": 19.071,
        "duration": 0.214,
        "velocity": 0.71,
        "hand": "right"
      },
      {
        "midi": 47,
        "time": 19.286,
        "duration": 0.214,
        "velocity": 0.71,
        "hand": "left"
      },
      {
        "midi": 74,
        "time": 19.286,
        "duration": 0.214,
        "velocity": 0.71,
        "hand": "right"
      },
      {
        "midi": 78,
        "time": 19.286,
        "duration": 0.214,
        "velocity": 0.71,
        "hand": "right"
      },
      {
        "midi": 43,
        "time": 19.5,
        "duration": 0.214,
        "velocity": 0.71,
        "hand": "left"
      },
      {
        "midi": 71,
        "time": 19.5,
        "duration": 0.214,
        "velocity": 0.71,
        "hand": "right"
      },
      {
        "midi": 40,
        "time": 19.714,
        "duration": 0.214,
        "velocity": 0.71,
        "hand": "left"
      },
      {
        "midi": 76,
        "time": 19.714,
        "duration": 0.214,
        "velocity": 0.71,
        "hand": "right"
      },
      {
        "midi": 45,
        "time": 19.929,
        "duration": 0.214,
        "velocity": 0.71,
        "hand": "left"
      },
      {
        "midi": 64,
        "time": 19.929,
        "duration": 0.214,
        "velocity": 0.71,
        "hand": "right"
      },
      {
        "midi": 73,
        "time": 19.929,
        "duration": 0.214,
        "velocity": 0.71,
        "hand": "right"
      },
      {
        "midi": 38,
        "time": 20.143,
        "duration": 0.214,
        "velocity": 0.71,
        "hand": "left"
      },
      {
        "midi": 66,
        "time": 20.143,
        "duration": 0.214,
        "velocity": 0.71,
        "hand": "right"
      },
      {
        "midi": 74,
        "time": 20.143,
        "duration": 0.214,
        "velocity": 0.71,
        "hand": "right"
      },
      {
        "midi": 57,
        "time": 20.571,
        "duration": 0.214,
        "velocity": 0.71,
        "hand": "left"
      },
      {
        "midi": 54,
        "time": 20.786,
        "duration": 0.214,
        "velocity": 0.71,
        "hand": "left"
      },
      {
        "midi": 50,
        "time": 21,
        "duration": 0.214,
        "velocity": 0.71,
        "hand": "left"
      },
      {
        "midi": 62,
        "time": 21.214,
        "duration": 0.214,
        "velocity": 0.71,
        "hand": "right"
      },
      {
        "midi": 61,
        "time": 21.429,
        "duration": 0.214,
        "velocity": 0.71,
        "hand": "right"
      },
      {
        "midi": 56,
        "time": 21.643,
        "duration": 0.214,
        "velocity": 0.71,
        "hand": "left"
      },
      {
        "midi": 57,
        "time": 21.857,
        "duration": 0.214,
        "velocity": 0.71,
        "hand": "left"
      },
      {
        "midi": 69,
        "time": 21.857,
        "duration": 0.214,
        "velocity": 0.71,
        "hand": "right"
      },
      {
        "midi": 72,
        "time": 22.071,
        "duration": 0.214,
        "velocity": 0.71,
        "hand": "right"
      },
      {
        "midi": 76,
        "time": 22.286,
        "duration": 0.214,
        "velocity": 0.71,
        "hand": "right"
      },
      {
        "midi": 46,
        "time": 22.5,
        "duration": 0.214,
        "velocity": 0.71,
        "hand": "left"
      },
      {
        "midi": 64,
        "time": 22.5,
        "duration": 0.214,
        "velocity": 0.71,
        "hand": "right"
      },
      {
        "midi": 47,
        "time": 22.714,
        "duration": 0.429,
        "velocity": 0.71,
        "hand": "left"
      },
      {
        "midi": 63,
        "time": 22.714,
        "duration": 0.214,
        "velocity": 0.71,
        "hand": "right"
      },
      {
        "midi": 67,
        "time": 22.929,
        "duration": 0.214,
        "velocity": 0.71,
        "hand": "right"
      },
      {
        "midi": 59,
        "time": 23.143,
        "duration": 0.214,
        "velocity": 0.71,
        "hand": "left"
      },
      {
        "midi": 66,
        "time": 23.143,
        "duration": 0.214,
        "velocity": 0.71,
        "hand": "right"
      },
      {
        "midi": 55,
        "time": 23.357,
        "duration": 0.214,
        "velocity": 0.71,
        "hand": "left"
      },
      {
        "midi": 52,
        "time": 23.571,
        "duration": 0.214,
        "velocity": 0.71,
        "hand": "left"
      },
      {
        "midi": 64,
        "time": 23.786,
        "duration": 0.214,
        "velocity": 0.71,
        "hand": "right"
      },
      {
        "midi": 63,
        "time": 24,
        "duration": 0.214,
        "velocity": 0.71,
        "hand": "right"
      },
      {
        "midi": 58,
        "time": 24.214,
        "duration": 0.214,
        "velocity": 0.71,
        "hand": "left"
      },
      {
        "midi": 59,
        "time": 24.429,
        "duration": 0.214,
        "velocity": 0.71,
        "hand": "left"
      },
      {
        "midi": 71,
        "time": 24.429,
        "duration": 0.214,
        "velocity": 0.71,
        "hand": "right"
      },
      {
        "midi": 74,
        "time": 24.643,
        "duration": 0.214,
        "velocity": 0.71,
        "hand": "right"
      },
      {
        "midi": 78,
        "time": 24.857,
        "duration": 0.214,
        "velocity": 0.71,
        "hand": "right"
      },
      {
        "midi": 66,
        "time": 25.071,
        "duration": 0.214,
        "velocity": 0.71,
        "hand": "right"
      },
      {
        "midi": 65,
        "time": 25.286,
        "duration": 0.214,
        "velocity": 0.71,
        "hand": "right"
      },
      {
        "midi": 60,
        "time": 25.5,
        "duration": 0.214,
        "velocity": 0.71,
        "hand": "right"
      },
      {
        "midi": 69,
        "time": 25.5,
        "duration": 0.214,
        "velocity": 0.71,
        "hand": "right"
      },
      {
        "midi": 61,
        "time": 25.714,
        "duration": 0.214,
        "velocity": 0.71,
        "hand": "right"
      },
      {
        "midi": 68,
        "time": 25.714,
        "duration": 0.214,
        "velocity": 0.71,
        "hand": "right"
      },
      {
        "midi": 55,
        "time": 25.929,
        "duration": 0.214,
        "velocity": 0.71,
        "hand": "left"
      },
      {
        "midi": 71,
        "time": 25.929,
        "duration": 0.214,
        "velocity": 0.71,
        "hand": "right"
      },
      {
        "midi": 54,
        "time": 26.143,
        "duration": 0.214,
        "velocity": 0.71,
        "hand": "left"
      },
      {
        "midi": 70,
        "time": 26.143,
        "duration": 0.214,
        "velocity": 0.71,
        "hand": "right"
      },
      {
        "midi": 58,
        "time": 26.357,
        "duration": 0.214,
        "velocity": 0.71,
        "hand": "left"
      },
      {
        "midi": 76,
        "time": 26.357,
        "duration": 0.214,
        "velocity": 0.71,
        "hand": "right"
      },
      {
        "midi": 59,
        "time": 26.571,
        "duration": 0.214,
        "velocity": 0.71,
        "hand": "left"
      },
      {
        "midi": 75,
        "time": 26.571,
        "duration": 0.214,
        "velocity": 0.71,
        "hand": "right"
      },
      {
        "midi": 53,
        "time": 26.786,
        "duration": 0.214,
        "velocity": 0.71,
        "hand": "left"
      },
      {
        "midi": 81,
        "time": 26.786,
        "duration": 0.214,
        "velocity": 0.71,
        "hand": "right"
      },
      {
        "midi": 52,
        "time": 27,
        "duration": 0.214,
        "velocity": 0.71,
        "hand": "left"
      },
      {
        "midi": 80,
        "time": 27,
        "duration": 0.214,
        "velocity": 0.71,
        "hand": "right"
      },
      {
        "midi": 46,
        "time": 27.214,
        "duration": 0.214,
        "velocity": 0.71,
        "hand": "left"
      },
      {
        "midi": 86,
        "time": 27.214,
        "duration": 0.214,
        "velocity": 0.71,
        "hand": "right"
      },
      {
        "midi": 45,
        "time": 27.429,
        "duration": 0.214,
        "velocity": 0.71,
        "hand": "left"
      },
      {
        "midi": 85,
        "time": 27.429,
        "duration": 0.214,
        "velocity": 0.71,
        "hand": "right"
      },
      {
        "midi": 51,
        "time": 27.643,
        "duration": 0.214,
        "velocity": 0.71,
        "hand": "left"
      },
      {
        "midi": 79,
        "time": 27.643,
        "duration": 0.214,
        "velocity": 0.71,
        "hand": "right"
      },
      {
        "midi": 50,
        "time": 27.857,
        "duration": 0.214,
        "velocity": 0.71,
        "hand": "left"
      },
      {
        "midi": 78,
        "time": 27.857,
        "duration": 0.214,
        "velocity": 0.71,
        "hand": "right"
      },
      {
        "midi": 56,
        "time": 28.071,
        "duration": 0.214,
        "velocity": 0.71,
        "hand": "left"
      },
      {
        "midi": 84,
        "time": 28.071,
        "duration": 0.214,
        "velocity": 0.71,
        "hand": "right"
      },
      {
        "midi": 55,
        "time": 28.286,
        "duration": 0.214,
        "velocity": 0.71,
        "hand": "left"
      },
      {
        "midi": 83,
        "time": 28.286,
        "duration": 0.214,
        "velocity": 0.71,
        "hand": "right"
      },
      {
        "midi": 59,
        "time": 28.5,
        "duration": 0.214,
        "velocity": 0.71,
        "hand": "left"
      },
      {
        "midi": 77,
        "time": 28.5,
        "duration": 0.214,
        "velocity": 0.71,
        "hand": "right"
      },
      {
        "midi": 60,
        "time": 28.714,
        "duration": 0.214,
        "velocity": 0.71,
        "hand": "right"
      },
      {
        "midi": 76,
        "time": 28.714,
        "duration": 0.214,
        "velocity": 0.71,
        "hand": "right"
      },
      {
        "midi": 62,
        "time": 28.929,
        "duration": 0.214,
        "velocity": 0.71,
        "hand": "right"
      },
      {
        "midi": 74,
        "time": 28.929,
        "duration": 0.214,
        "velocity": 0.71,
        "hand": "right"
      },
      {
        "midi": 64,
        "time": 29.143,
        "duration": 0.429,
        "velocity": 0.71,
        "hand": "right"
      },
      {
        "midi": 72,
        "time": 29.143,
        "duration": 0.214,
        "velocity": 0.71,
        "hand": "right"
      },
      {
        "midi": 79,
        "time": 29.357,
        "duration": 0.214,
        "velocity": 0.71,
        "hand": "right"
      },
      {
        "midi": 62,
        "time": 29.571,
        "duration": 0.214,
        "velocity": 0.71,
        "hand": "right"
      },
      {
        "midi": 71,
        "time": 29.571,
        "duration": 0.214,
        "velocity": 0.71,
        "hand": "right"
      },
      {
        "midi": 60,
        "time": 29.786,
        "duration": 0.429,
        "velocity": 0.71,
        "hand": "right"
      },
      {
        "midi": 69,
        "time": 29.786,
        "duration": 0.214,
        "velocity": 0.71,
        "hand": "right"
      },
      {
        "midi": 76,
        "time": 30,
        "duration": 0.214,
        "velocity": 0.71,
        "hand": "right"
      },
      {
        "midi": 61,
        "time": 30.214,
        "duration": 0.214,
        "velocity": 0.71,
        "hand": "right"
      },
      {
        "midi": 67,
        "time": 30.214,
        "duration": 0.214,
        "velocity": 0.71,
        "hand": "right"
      },
      {
        "midi": 62,
        "time": 30.429,
        "duration": 0.429,
        "velocity": 0.71,
        "hand": "right"
      },
      {
        "midi": 66,
        "time": 30.429,
        "duration": 0.214,
        "velocity": 0.71,
        "hand": "right"
      },
      {
        "midi": 69,
        "time": 30.643,
        "duration": 0.214,
        "velocity": 0.71,
        "hand": "right"
      },
      {
        "midi": 74,
        "time": 30.857,
        "duration": 0.214,
        "velocity": 0.71,
        "hand": "right"
      },
      {
        "midi": 50,
        "time": 31.071,
        "duration": 0.429,
        "velocity": 0.71,
        "hand": "left"
      },
      {
        "midi": 55,
        "time": 31.071,
        "duration": 0.429,
        "velocity": 0.71,
        "hand": "left"
      },
      {
        "midi": 58,
        "time": 31.071,
        "duration": 0.429,
        "velocity": 0.71,
        "hand": "left"
      },
      {
        "midi": 70,
        "time": 31.071,
        "duration": 0.214,
        "velocity": 0.71,
        "hand": "right"
      },
      {
        "midi": 67,
        "time": 31.286,
        "duration": 0.214,
        "velocity": 0.71,
        "hand": "right"
      },
      {
        "midi": 79,
        "time": 31.5,
        "duration": 0.214,
        "velocity": 0.71,
        "hand": "right"
      },
      {
        "midi": 50,
        "time": 31.714,
        "duration": 0.429,
        "velocity": 0.71,
        "hand": "left"
      },
      {
        "midi": 54,
        "time": 31.714,
        "duration": 0.429,
        "velocity": 0.71,
        "hand": "left"
      },
      {
        "midi": 57,
        "time": 31.714,
        "duration": 0.429,
        "velocity": 0.71,
        "hand": "left"
      },
      {
        "midi": 78,
        "time": 31.714,
        "duration": 0.214,
        "velocity": 0.71,
        "hand": "right"
      },
      {
        "midi": 73,
        "time": 31.929,
        "duration": 0.214,
        "velocity": 0.71,
        "hand": "right"
      },
      {
        "midi": 74,
        "time": 32.143,
        "duration": 0.214,
        "velocity": 0.71,
        "hand": "right"
      },
      {
        "midi": 50,
        "time": 32.357,
        "duration": 0.429,
        "velocity": 0.71,
        "hand": "left"
      },
      {
        "midi": 56,
        "time": 32.357,
        "duration": 0.429,
        "velocity": 0.71,
        "hand": "left"
      },
      {
        "midi": 59,
        "time": 32.357,
        "duration": 0.429,
        "velocity": 0.71,
        "hand": "left"
      },
      {
        "midi": 77,
        "time": 32.357,
        "duration": 0.214,
        "velocity": 0.71,
        "hand": "right"
      },
      {
        "midi": 76,
        "time": 32.571,
        "duration": 0.214,
        "velocity": 0.71,
        "hand": "right"
      },
      {
        "midi": 68,
        "time": 32.786,
        "duration": 0.214,
        "velocity": 0.71,
        "hand": "right"
      },
      {
        "midi": 50,
        "time": 33,
        "duration": 0.429,
        "velocity": 0.71,
        "hand": "left"
      },
      {
        "midi": 57,
        "time": 33,
        "duration": 0.429,
        "velocity": 0.71,
        "hand": "left"
      },
      {
        "midi": 60,
        "time": 33,
        "duration": 0.429,
        "velocity": 0.71,
        "hand": "right"
      },
      {
        "midi": 69,
        "time": 33,
        "duration": 0.214,
        "velocity": 0.71,
        "hand": "right"
      },
      {
        "midi": 72,
        "time": 33.214,
        "duration": 0.214,
        "velocity": 0.71,
        "hand": "right"
      },
      {
        "midi": 69,
        "time": 33.429,
        "duration": 0.214,
        "velocity": 0.71,
        "hand": "right"
      },
      {
        "midi": 50,
        "time": 33.643,
        "duration": 0.429,
        "velocity": 0.71,
        "hand": "left"
      },
      {
        "midi": 54,
        "time": 33.643,
        "duration": 0.429,
        "velocity": 0.71,
        "hand": "left"
      },
      {
        "midi": 57,
        "time": 33.643,
        "duration": 0.429,
        "velocity": 0.71,
        "hand": "left"
      },
      {
        "midi": 60,
        "time": 33.643,
        "duration": 0.429,
        "velocity": 0.71,
        "hand": "right"
      },
      {
        "midi": 76,
        "time": 33.643,
        "duration": 0.214,
        "velocity": 0.71,
        "hand": "right"
      },
      {
        "midi": 74,
        "time": 33.857,
        "duration": 0.214,
        "velocity": 0.71,
        "hand": "right"
      },
      {
        "midi": 66,
        "time": 34.071,
        "duration": 0.214,
        "velocity": 0.71,
        "hand": "right"
      },
      {
        "midi": 50,
        "time": 34.286,
        "duration": 0.429,
        "velocity": 0.71,
        "hand": "left"
      },
      {
        "midi": 55,
        "time": 34.286,
        "duration": 0.429,
        "velocity": 0.71,
        "hand": "left"
      },
      {
        "midi": 58,
        "time": 34.286,
        "duration": 0.429,
        "velocity": 0.71,
        "hand": "left"
      },
      {
        "midi": 67,
        "time": 34.286,
        "duration": 0.214,
        "velocity": 0.71,
        "hand": "right"
      },
      {
        "midi": 74,
        "time": 34.5,
        "duration": 0.214,
        "velocity": 0.71,
        "hand": "right"
      },
      {
        "midi": 70,
        "time": 34.714,
        "duration": 0.214,
        "velocity": 0.71,
        "hand": "right"
      },
      {
        "midi": 50,
        "time": 34.929,
        "duration": 0.429,
        "velocity": 0.71,
        "hand": "left"
      },
      {
        "midi": 55,
        "time": 34.929,
        "duration": 0.429,
        "velocity": 0.71,
        "hand": "left"
      },
      {
        "midi": 57,
        "time": 34.929,
        "duration": 0.429,
        "velocity": 0.71,
        "hand": "left"
      },
      {
        "midi": 61,
        "time": 34.929,
        "duration": 0.429,
        "velocity": 0.71,
        "hand": "right"
      },
      {
        "midi": 82,
        "time": 34.929,
        "duration": 0.214,
        "velocity": 0.71,
        "hand": "right"
      },
      {
        "midi": 81,
        "time": 35.143,
        "duration": 0.214,
        "velocity": 0.71,
        "hand": "right"
      },
      {
        "midi": 73,
        "time": 35.357,
        "duration": 0.214,
        "velocity": 0.71,
        "hand": "right"
      },
      {
        "midi": 50,
        "time": 35.571,
        "duration": 0.214,
        "velocity": 0.71,
        "hand": "left"
      },
      {
        "midi": 54,
        "time": 35.571,
        "duration": 0.214,
        "velocity": 0.71,
        "hand": "left"
      },
      {
        "midi": 57,
        "time": 35.571,
        "duration": 0.214,
        "velocity": 0.71,
        "hand": "left"
      },
      {
        "midi": 62,
        "time": 35.571,
        "duration": 0.214,
        "velocity": 0.71,
        "hand": "right"
      },
      {
        "midi": 74,
        "time": 35.571,
        "duration": 0.214,
        "velocity": 0.71,
        "hand": "right"
      },
      {
        "midi": 86,
        "time": 35.786,
        "duration": 0.214,
        "velocity": 0.71,
        "hand": "right"
      },
      {
        "midi": 74,
        "time": 36,
        "duration": 0.214,
        "velocity": 0.71,
        "hand": "right"
      },
      {
        "midi": 86,
        "time": 36,
        "duration": 0.214,
        "velocity": 0.71,
        "hand": "right"
      },
      {
        "midi": 71,
        "time": 36.214,
        "duration": 0.214,
        "velocity": 0.71,
        "hand": "right"
      },
      {
        "midi": 86,
        "time": 36.214,
        "duration": 0.643,
        "velocity": 0.71,
        "hand": "right"
      },
      {
        "midi": 67,
        "time": 36.429,
        "duration": 0.214,
        "velocity": 0.71,
        "hand": "right"
      },
      {
        "midi": 79,
        "time": 36.643,
        "duration": 0.214,
        "velocity": 0.71,
        "hand": "right"
      },
      {
        "midi": 78,
        "time": 36.857,
        "duration": 0.214,
        "velocity": 0.71,
        "hand": "right"
      },
      {
        "midi": 86,
        "time": 36.857,
        "duration": 0.643,
        "velocity": 0.71,
        "hand": "right"
      },
      {
        "midi": 73,
        "time": 37.071,
        "duration": 0.214,
        "velocity": 0.71,
        "hand": "right"
      },
      {
        "midi": 62,
        "time": 37.286,
        "duration": 0.214,
        "velocity": 0.71,
        "hand": "right"
      },
      {
        "midi": 74,
        "time": 37.286,
        "duration": 0.214,
        "velocity": 0.71,
        "hand": "right"
      },
      {
        "midi": 58,
        "time": 37.5,
        "duration": 0.214,
        "velocity": 0.71,
        "hand": "left"
      },
      {
        "midi": 74,
        "time": 37.5,
        "duration": 0.643,
        "velocity": 0.71,
        "hand": "right"
      },
      {
        "midi": 79,
        "time": 37.5,
        "duration": 0.643,
        "velocity": 0.71,
        "hand": "right"
      },
      {
        "midi": 86,
        "time": 37.5,
        "duration": 0.643,
        "velocity": 0.71,
        "hand": "right"
      },
      {
        "midi": 55,
        "time": 37.714,
        "duration": 0.214,
        "velocity": 0.71,
        "hand": "left"
      },
      {
        "midi": 67,
        "time": 37.929,
        "duration": 0.214,
        "velocity": 0.71,
        "hand": "right"
      },
      {
        "midi": 66,
        "time": 38.143,
        "duration": 0.214,
        "velocity": 0.71,
        "hand": "right"
      },
      {
        "midi": 74,
        "time": 38.143,
        "duration": 0.643,
        "velocity": 0.71,
        "hand": "right"
      },
      {
        "midi": 81,
        "time": 38.143,
        "duration": 0.643,
        "velocity": 0.71,
        "hand": "right"
      },
      {
        "midi": 86,
        "time": 38.143,
        "duration": 0.643,
        "velocity": 0.71,
        "hand": "right"
      },
      {
        "midi": 61,
        "time": 38.357,
        "duration": 0.214,
        "velocity": 0.71,
        "hand": "right"
      },
      {
        "midi": 62,
        "time": 38.571,
        "duration": 0.214,
        "velocity": 0.71,
        "hand": "right"
      },
      {
        "midi": 65,
        "time": 38.786,
        "duration": 0.214,
        "velocity": 0.71,
        "hand": "right"
      },
      {
        "midi": 74,
        "time": 38.786,
        "duration": 0.643,
        "velocity": 0.71,
        "hand": "right"
      },
      {
        "midi": 80,
        "time": 38.786,
        "duration": 0.643,
        "velocity": 0.71,
        "hand": "right"
      },
      {
        "midi": 86,
        "time": 38.786,
        "duration": 0.643,
        "velocity": 0.71,
        "hand": "right"
      },
      {
        "midi": 59,
        "time": 39,
        "duration": 0.214,
        "velocity": 0.71,
        "hand": "left"
      },
      {
        "midi": 62,
        "time": 39.214,
        "duration": 0.214,
        "velocity": 0.71,
        "hand": "right"
      },
      {
        "midi": 51,
        "time": 39.429,
        "duration": 0.214,
        "velocity": 0.71,
        "hand": "left"
      },
      {
        "midi": 75,
        "time": 39.429,
        "duration": 0.643,
        "velocity": 0.71,
        "hand": "right"
      },
      {
        "midi": 79,
        "time": 39.429,
        "duration": 0.643,
        "velocity": 0.71,
        "hand": "right"
      },
      {
        "midi": 86,
        "time": 39.429,
        "duration": 0.643,
        "velocity": 0.71,
        "hand": "right"
      },
      {
        "midi": 63,
        "time": 39.643,
        "duration": 0.214,
        "velocity": 0.71,
        "hand": "right"
      },
      {
        "midi": 60,
        "time": 39.857,
        "duration": 0.214,
        "velocity": 0.71,
        "hand": "right"
      },
      {
        "midi": 56,
        "time": 40.071,
        "duration": 0.214,
        "velocity": 0.71,
        "hand": "left"
      },
      {
        "midi": 75,
        "time": 40.071,
        "duration": 0.643,
        "velocity": 0.71,
        "hand": "right"
      },
      {
        "midi": 80,
        "time": 40.071,
        "duration": 0.643,
        "velocity": 0.71,
        "hand": "right"
      },
      {
        "midi": 84,
        "time": 40.071,
        "duration": 0.643,
        "velocity": 0.71,
        "hand": "right"
      },
      {
        "midi": 60,
        "time": 40.286,
        "duration": 0.214,
        "velocity": 0.71,
        "hand": "right"
      },
      {
        "midi": 55,
        "time": 40.5,
        "duration": 0.214,
        "velocity": 0.71,
        "hand": "left"
      },
      {
        "midi": 54,
        "time": 40.714,
        "duration": 0.214,
        "velocity": 0.71,
        "hand": "left"
      },
      {
        "midi": 74,
        "time": 40.714,
        "duration": 0.214,
        "velocity": 0.71,
        "hand": "right"
      },
      {
        "midi": 81,
        "time": 40.714,
        "duration": 0.429,
        "velocity": 0.71,
        "hand": "right"
      },
      {
        "midi": 84,
        "time": 40.714,
        "duration": 0.429,
        "velocity": 0.71,
        "hand": "right"
      },
      {
        "midi": 50,
        "time": 40.929,
        "duration": 0.214,
        "velocity": 0.71,
        "hand": "left"
      },
      {
        "midi": 78,
        "time": 40.929,
        "duration": 0.214,
        "velocity": 0.71,
        "hand": "right"
      },
      {
        "midi": 52,
        "time": 41.143,
        "duration": 0.214,
        "velocity": 0.71,
        "hand": "left"
      },
      {
        "midi": 79,
        "time": 41.143,
        "duration": 0.214,
        "velocity": 0.71,
        "hand": "right"
      },
      {
        "midi": 83,
        "time": 41.143,
        "duration": 0.214,
        "velocity": 0.71,
        "hand": "right"
      },
      {
        "midi": 48,
        "time": 41.357,
        "duration": 0.214,
        "velocity": 0.71,
        "hand": "left"
      },
      {
        "midi": 76,
        "time": 41.357,
        "duration": 0.214,
        "velocity": 0.71,
        "hand": "right"
      },
      {
        "midi": 45,
        "time": 41.571,
        "duration": 0.214,
        "velocity": 0.71,
        "hand": "left"
      },
      {
        "midi": 81,
        "time": 41.571,
        "duration": 0.214,
        "velocity": 0.71,
        "hand": "right"
      },
      {
        "midi": 50,
        "time": 41.786,
        "duration": 0.214,
        "velocity": 0.71,
        "hand": "left"
      },
      {
        "midi": 69,
        "time": 41.786,
        "duration": 0.214,
        "velocity": 0.71,
        "hand": "right"
      },
      {
        "midi": 78,
        "time": 41.786,
        "duration": 0.214,
        "velocity": 0.71,
        "hand": "right"
      },
      {
        "midi": 43,
        "time": 42,
        "duration": 0.643,
        "velocity": 0.71,
        "hand": "left"
      },
      {
        "midi": 55,
        "time": 42,
        "duration": 0.643,
        "velocity": 0.71,
        "hand": "left"
      },
      {
        "midi": 71,
        "time": 42,
        "duration": 0.214,
        "velocity": 0.71,
        "hand": "right"
      },
      {
        "midi": 79,
        "time": 42,
        "duration": 0.214,
        "velocity": 0.71,
        "hand": "right"
      },
      {
        "midi": 83,
        "time": 42.214,
        "duration": 0.214,
        "velocity": 0.71,
        "hand": "right"
      },
      {
        "midi": 73,
        "time": 42.429,
        "duration": 0.214,
        "velocity": 0.71,
        "hand": "right"
      },
      {
        "midi": 76,
        "time": 42.429,
        "duration": 0.214,
        "velocity": 0.71,
        "hand": "right"
      },
      {
        "midi": 79,
        "time": 42.429,
        "duration": 0.214,
        "velocity": 0.71,
        "hand": "right"
      },
      {
        "midi": 43,
        "time": 42.643,
        "duration": 0.643,
        "velocity": 0.71,
        "hand": "left"
      },
      {
        "midi": 55,
        "time": 42.643,
        "duration": 0.643,
        "velocity": 0.71,
        "hand": "left"
      },
      {
        "midi": 74,
        "time": 42.643,
        "duration": 0.214,
        "velocity": 0.71,
        "hand": "right"
      },
      {
        "midi": 78,
        "time": 42.643,
        "duration": 0.214,
        "velocity": 0.71,
        "hand": "right"
      },
      {
        "midi": 86,
        "time": 42.857,
        "duration": 0.214,
        "velocity": 0.71,
        "hand": "right"
      },
      {
        "midi": 71,
        "time": 43.071,
        "duration": 0.214,
        "velocity": 0.71,
        "hand": "right"
      },
      {
        "midi": 74,
        "time": 43.071,
        "duration": 0.214,
        "velocity": 0.71,
        "hand": "right"
      },
      {
        "midi": 77,
        "time": 43.071,
        "duration": 0.214,
        "velocity": 0.71,
        "hand": "right"
      },
      {
        "midi": 43,
        "time": 43.286,
        "duration": 0.643,
        "velocity": 0.71,
        "hand": "left"
      },
      {
        "midi": 55,
        "time": 43.286,
        "duration": 0.643,
        "velocity": 0.71,
        "hand": "left"
      },
      {
        "midi": 72,
        "time": 43.286,
        "duration": 0.214,
        "velocity": 0.71,
        "hand": "right"
      },
      {
        "midi": 76,
        "time": 43.286,
        "duration": 0.214,
        "velocity": 0.71,
        "hand": "right"
      },
      {
        "midi": 84,
        "time": 43.5,
        "duration": 0.214,
        "velocity": 0.71,
        "hand": "right"
      },
      {
        "midi": 66,
        "time": 43.714,
        "duration": 0.214,
        "velocity": 0.71,
        "hand": "right"
      },
      {
        "midi": 72,
        "time": 43.714,
        "duration": 0.214,
        "velocity": 0.71,
        "hand": "right"
      },
      {
        "midi": 75,
        "time": 43.714,
        "duration": 0.214,
        "velocity": 0.71,
        "hand": "right"
      },
      {
        "midi": 43,
        "time": 43.929,
        "duration": 0.643,
        "velocity": 0.71,
        "hand": "left"
      },
      {
        "midi": 55,
        "time": 43.929,
        "duration": 0.643,
        "velocity": 0.71,
        "hand": "left"
      },
      {
        "midi": 67,
        "time": 43.929,
        "duration": 0.214,
        "velocity": 0.71,
        "hand": "right"
      },
      {
        "midi": 71,
        "time": 43.929,
        "duration": 0.214,
        "velocity": 0.71,
        "hand": "right"
      },
      {
        "midi": 74,
        "time": 43.929,
        "duration": 0.214,
        "velocity": 0.71,
        "hand": "right"
      },
      {
        "midi": 83,
        "time": 44.143,
        "duration": 0.214,
        "velocity": 0.71,
        "hand": "right"
      },
      {
        "midi": 65,
        "time": 44.357,
        "duration": 0.214,
        "velocity": 0.71,
        "hand": "right"
      },
      {
        "midi": 68,
        "time": 44.357,
        "duration": 0.214,
        "velocity": 0.71,
        "hand": "right"
      },
      {
        "midi": 74,
        "time": 44.357,
        "duration": 0.214,
        "velocity": 0.71,
        "hand": "right"
      },
      {
        "midi": 43,
        "time": 44.571,
        "duration": 0.643,
        "velocity": 0.71,
        "hand": "left"
      },
      {
        "midi": 55,
        "time": 44.571,
        "duration": 0.643,
        "velocity": 0.71,
        "hand": "left"
      },
      {
        "midi": 64,
        "time": 44.571,
        "duration": 0.214,
        "velocity": 0.71,
        "hand": "right"
      },
      {
        "midi": 69,
        "time": 44.571,
        "duration": 0.214,
        "velocity": 0.71,
        "hand": "right"
      },
      {
        "midi": 73,
        "time": 44.571,
        "duration": 0.214,
        "velocity": 0.71,
        "hand": "right"
      },
      {
        "midi": 81,
        "time": 44.786,
        "duration": 0.214,
        "velocity": 0.71,
        "hand": "right"
      },
      {
        "midi": 63,
        "time": 45,
        "duration": 0.214,
        "velocity": 0.71,
        "hand": "right"
      },
      {
        "midi": 66,
        "time": 45,
        "duration": 0.214,
        "velocity": 0.71,
        "hand": "right"
      },
      {
        "midi": 72,
        "time": 45,
        "duration": 0.214,
        "velocity": 0.71,
        "hand": "right"
      },
      {
        "midi": 43,
        "time": 45.214,
        "duration": 0.214,
        "velocity": 0.71,
        "hand": "left"
      },
      {
        "midi": 55,
        "time": 45.214,
        "duration": 0.214,
        "velocity": 0.71,
        "hand": "left"
      },
      {
        "midi": 62,
        "time": 45.214,
        "duration": 0.214,
        "velocity": 0.71,
        "hand": "right"
      },
      {
        "midi": 67,
        "time": 45.214,
        "duration": 0.214,
        "velocity": 0.71,
        "hand": "right"
      },
      {
        "midi": 71,
        "time": 45.214,
        "duration": 0.214,
        "velocity": 0.71,
        "hand": "right"
      },
      {
        "midi": 79,
        "time": 45.429,
        "duration": 0.214,
        "velocity": 0.71,
        "hand": "right"
      },
      {
        "midi": 39,
        "time": 45.643,
        "duration": 0.214,
        "velocity": 0.71,
        "hand": "left"
      },
      {
        "midi": 51,
        "time": 45.643,
        "duration": 0.214,
        "velocity": 0.71,
        "hand": "left"
      },
      {
        "midi": 63,
        "time": 45.643,
        "duration": 0.214,
        "velocity": 0.71,
        "hand": "right"
      },
      {
        "midi": 40,
        "time": 45.857,
        "duration": 0.214,
        "velocity": 0.71,
        "hand": "left"
      },
      {
        "midi": 52,
        "time": 45.857,
        "duration": 0.214,
        "velocity": 0.71,
        "hand": "left"
      },
      {
        "midi": 64,
        "time": 45.857,
        "duration": 0.214,
        "velocity": 0.71,
        "hand": "right"
      },
      {
        "midi": 55,
        "time": 46.071,
        "duration": 0.214,
        "velocity": 0.71,
        "hand": "left"
      },
      {
        "midi": 67,
        "time": 46.071,
        "duration": 0.214,
        "velocity": 0.71,
        "hand": "right"
      },
      {
        "midi": 38,
        "time": 46.286,
        "duration": 0.214,
        "velocity": 0.71,
        "hand": "left"
      },
      {
        "midi": 50,
        "time": 46.286,
        "duration": 0.214,
        "velocity": 0.71,
        "hand": "left"
      },
      {
        "midi": 62,
        "time": 46.286,
        "duration": 0.214,
        "velocity": 0.71,
        "hand": "right"
      },
      {
        "midi": 37,
        "time": 46.5,
        "duration": 0.214,
        "velocity": 0.71,
        "hand": "left"
      },
      {
        "midi": 49,
        "time": 46.5,
        "duration": 0.214,
        "velocity": 0.71,
        "hand": "left"
      },
      {
        "midi": 61,
        "time": 46.5,
        "duration": 0.214,
        "velocity": 0.71,
        "hand": "right"
      },
      {
        "midi": 69,
        "time": 46.714,
        "duration": 0.214,
        "velocity": 0.71,
        "hand": "right"
      },
      {
        "midi": 36,
        "time": 46.929,
        "duration": 0.214,
        "velocity": 0.71,
        "hand": "left"
      },
      {
        "midi": 48,
        "time": 46.929,
        "duration": 0.214,
        "velocity": 0.71,
        "hand": "left"
      },
      {
        "midi": 60,
        "time": 46.929,
        "duration": 0.214,
        "velocity": 0.71,
        "hand": "right"
      },
      {
        "midi": 35,
        "time": 47.143,
        "duration": 0.214,
        "velocity": 0.71,
        "hand": "left"
      },
      {
        "midi": 47,
        "time": 47.143,
        "duration": 0.214,
        "velocity": 0.71,
        "hand": "left"
      },
      {
        "midi": 59,
        "time": 47.143,
        "duration": 0.214,
        "velocity": 0.71,
        "hand": "left"
      },
      {
        "midi": 43,
        "time": 47.357,
        "duration": 0.214,
        "velocity": 0.71,
        "hand": "left"
      },
      {
        "midi": 55,
        "time": 47.357,
        "duration": 0.214,
        "velocity": 0.71,
        "hand": "left"
      },
      {
        "midi": 67,
        "time": 47.357,
        "duration": 0.214,
        "velocity": 0.71,
        "hand": "right"
      },
      {
        "midi": 40,
        "time": 47.571,
        "duration": 0.214,
        "velocity": 0.71,
        "hand": "left"
      },
      {
        "midi": 52,
        "time": 47.571,
        "duration": 0.214,
        "velocity": 0.71,
        "hand": "left"
      },
      {
        "midi": 64,
        "time": 47.571,
        "duration": 0.214,
        "velocity": 0.71,
        "hand": "right"
      },
      {
        "midi": 36,
        "time": 47.786,
        "duration": 0.214,
        "velocity": 0.71,
        "hand": "left"
      },
      {
        "midi": 48,
        "time": 47.786,
        "duration": 0.214,
        "velocity": 0.71,
        "hand": "left"
      },
      {
        "midi": 60,
        "time": 47.786,
        "duration": 0.214,
        "velocity": 0.71,
        "hand": "right"
      },
      {
        "midi": 33,
        "time": 48,
        "duration": 0.214,
        "velocity": 0.71,
        "hand": "left"
      },
      {
        "midi": 45,
        "time": 48,
        "duration": 0.214,
        "velocity": 0.71,
        "hand": "left"
      },
      {
        "midi": 57,
        "time": 48,
        "duration": 0.214,
        "velocity": 0.71,
        "hand": "left"
      },
      {
        "midi": 38,
        "time": 48.214,
        "duration": 0.214,
        "velocity": 0.71,
        "hand": "left"
      },
      {
        "midi": 50,
        "time": 48.214,
        "duration": 0.214,
        "velocity": 0.71,
        "hand": "left"
      },
      {
        "midi": 69,
        "time": 48.214,
        "duration": 0.214,
        "velocity": 0.71,
        "hand": "right"
      },
      {
        "midi": 74,
        "time": 48.214,
        "duration": 0.214,
        "velocity": 0.71,
        "hand": "right"
      },
      {
        "midi": 78,
        "time": 48.214,
        "duration": 0.214,
        "velocity": 0.71,
        "hand": "right"
      },
      {
        "midi": 31,
        "time": 48.429,
        "duration": 0.429,
        "velocity": 0.71,
        "hand": "left"
      },
      {
        "midi": 43,
        "time": 48.429,
        "duration": 0.429,
        "velocity": 0.71,
        "hand": "left"
      },
      {
        "midi": 71,
        "time": 48.429,
        "duration": 0.429,
        "velocity": 0.71,
        "hand": "right"
      },
      {
        "midi": 74,
        "time": 48.429,
        "duration": 0.429,
        "velocity": 0.71,
        "hand": "right"
      },
      {
        "midi": 79,
        "time": 48.429,
        "duration": 0.429,
        "velocity": 0.71,
        "hand": "right"
      }
    ]
  },
  "notes1Hand": [
    {
      "midi": 74,
      "time": 0,
      "duration": 0.214,
      "velocity": 0.71,
      "hand": "right"
    },
    {
      "midi": 67,
      "time": 0.429,
      "duration": 0.214,
      "velocity": 0.71,
      "hand": "right"
    },
    {
      "midi": 78,
      "time": 0.857,
      "duration": 0.214,
      "velocity": 0.71,
      "hand": "right"
    },
    {
      "midi": 74,
      "time": 1.286,
      "duration": 0.214,
      "velocity": 0.71,
      "hand": "right"
    },
    {
      "midi": 76,
      "time": 1.714,
      "duration": 0.214,
      "velocity": 0.71,
      "hand": "right"
    },
    {
      "midi": 68,
      "time": 1.929,
      "duration": 0.214,
      "velocity": 0.71,
      "hand": "right"
    },
    {
      "midi": 72,
      "time": 2.357,
      "duration": 0.214,
      "velocity": 0.71,
      "hand": "right"
    },
    {
      "midi": 69,
      "time": 2.786,
      "duration": 0.214,
      "velocity": 0.71,
      "hand": "right"
    },
    {
      "midi": 78,
      "time": 3.214,
      "duration": 0.214,
      "velocity": 0.71,
      "hand": "right"
    },
    {
      "midi": 76,
      "time": 3.429,
      "duration": 0.214,
      "velocity": 0.71,
      "hand": "right"
    },
    {
      "midi": 85,
      "time": 3.857,
      "duration": 0.214,
      "velocity": 0.71,
      "hand": "right"
    },
    {
      "midi": 75,
      "time": 4.286,
      "duration": 0.214,
      "velocity": 0.71,
      "hand": "right"
    },
    {
      "midi": 79,
      "time": 4.714,
      "duration": 0.214,
      "velocity": 0.71,
      "hand": "right"
    },
    {
      "midi": 73,
      "time": 4.929,
      "duration": 0.214,
      "velocity": 0.71,
      "hand": "right"
    },
    {
      "midi": 73,
      "time": 5.786,
      "duration": 0.214,
      "velocity": 0.71,
      "hand": "right"
    },
    {
      "midi": 79,
      "time": 6.214,
      "duration": 0.214,
      "velocity": 0.71,
      "hand": "right"
    },
    {
      "midi": 78,
      "time": 6.429,
      "duration": 0.214,
      "velocity": 0.71,
      "hand": "right"
    },
    {
      "midi": 68,
      "time": 6.857,
      "duration": 0.214,
      "velocity": 0.71,
      "hand": "right"
    },
    {
      "midi": 72,
      "time": 7.286,
      "duration": 0.214,
      "velocity": 0.71,
      "hand": "right"
    },
    {
      "midi": 67,
      "time": 7.714,
      "duration": 0.429,
      "velocity": 0.71,
      "hand": "right"
    },
    {
      "midi": 64,
      "time": 7.929,
      "duration": 0.429,
      "velocity": 0.71,
      "hand": "right"
    },
    {
      "midi": 65,
      "time": 8.357,
      "duration": 0.214,
      "velocity": 0.71,
      "hand": "right"
    },
    {
      "midi": 71,
      "time": 8.786,
      "duration": 0.643,
      "velocity": 0.71,
      "hand": "right"
    },
    {
      "midi": 67,
      "time": 9.214,
      "duration": 0.429,
      "velocity": 0.71,
      "hand": "right"
    },
    {
      "midi": 72,
      "time": 9.429,
      "duration": 0.643,
      "velocity": 0.71,
      "hand": "right"
    },
    {
      "midi": 69,
      "time": 9.857,
      "duration": 0.429,
      "velocity": 0.71,
      "hand": "right"
    },
    {
      "midi": 70,
      "time": 10.286,
      "duration": 0.214,
      "velocity": 0.71,
      "hand": "right"
    },
    {
      "midi": 71,
      "time": 10.714,
      "duration": 0.214,
      "velocity": 0.71,
      "hand": "right"
    },
    {
      "midi": 76,
      "time": 10.929,
      "duration": 0.214,
      "velocity": 0.71,
      "hand": "right"
    },
    {
      "midi": 73,
      "time": 11.357,
      "duration": 0.214,
      "velocity": 0.71,
      "hand": "right"
    },
    {
      "midi": 85,
      "time": 11.786,
      "duration": 0.214,
      "velocity": 0.71,
      "hand": "right"
    },
    {
      "midi": 79,
      "time": 12.214,
      "duration": 0.214,
      "velocity": 0.71,
      "hand": "right"
    },
    {
      "midi": 86,
      "time": 12.429,
      "duration": 0.214,
      "velocity": 0.71,
      "hand": "right"
    },
    {
      "midi": 81,
      "time": 12.857,
      "duration": 0.214,
      "velocity": 0.71,
      "hand": "right"
    },
    {
      "midi": 74,
      "time": 13.286,
      "duration": 0.214,
      "velocity": 0.71,
      "hand": "right"
    },
    {
      "midi": 85,
      "time": 13.714,
      "duration": 0.214,
      "velocity": 0.71,
      "hand": "right"
    },
    {
      "midi": 80,
      "time": 13.929,
      "duration": 0.214,
      "velocity": 0.71,
      "hand": "right"
    },
    {
      "midi": 81,
      "time": 14.357,
      "duration": 0.643,
      "velocity": 0.71,
      "hand": "right"
    },
    {
      "midi": 74,
      "time": 14.786,
      "duration": 0.214,
      "velocity": 0.71,
      "hand": "right"
    },
    {
      "midi": 68,
      "time": 15.214,
      "duration": 0.214,
      "velocity": 0.71,
      "hand": "right"
    },
    {
      "midi": 69,
      "time": 15.429,
      "duration": 0.214,
      "velocity": 0.71,
      "hand": "right"
    },
    {
      "midi": 62,
      "time": 16.071,
      "duration": 0.214,
      "velocity": 0.71,
      "hand": "right"
    },
    {
      "midi": 81,
      "time": 16.286,
      "duration": 0.643,
      "velocity": 0.71,
      "hand": "right"
    },
    {
      "midi": 81,
      "time": 16.929,
      "duration": 0.643,
      "velocity": 0.71,
      "hand": "right"
    },
    {
      "midi": 81,
      "time": 17.571,
      "duration": 0.643,
      "velocity": 0.71,
      "hand": "right"
    },
    {
      "midi": 79,
      "time": 18.214,
      "duration": 0.643,
      "velocity": 0.71,
      "hand": "right"
    },
    {
      "midi": 79,
      "time": 18.857,
      "duration": 0.429,
      "velocity": 0.71,
      "hand": "right"
    },
    {
      "midi": 78,
      "time": 19.286,
      "duration": 0.214,
      "velocity": 0.71,
      "hand": "right"
    },
    {
      "midi": 76,
      "time": 19.714,
      "duration": 0.214,
      "velocity": 0.71,
      "hand": "right"
    },
    {
      "midi": 73,
      "time": 19.929,
      "duration": 0.214,
      "velocity": 0.71,
      "hand": "right"
    },
    {
      "midi": 62,
      "time": 21.214,
      "duration": 0.214,
      "velocity": 0.71,
      "hand": "right"
    },
    {
      "midi": 61,
      "time": 21.429,
      "duration": 0.214,
      "velocity": 0.71,
      "hand": "right"
    },
    {
      "midi": 69,
      "time": 21.857,
      "duration": 0.214,
      "velocity": 0.71,
      "hand": "right"
    },
    {
      "midi": 76,
      "time": 22.286,
      "duration": 0.214,
      "velocity": 0.71,
      "hand": "right"
    },
    {
      "midi": 63,
      "time": 22.714,
      "duration": 0.214,
      "velocity": 0.71,
      "hand": "right"
    },
    {
      "midi": 67,
      "time": 22.929,
      "duration": 0.214,
      "velocity": 0.71,
      "hand": "right"
    },
    {
      "midi": 64,
      "time": 23.786,
      "duration": 0.214,
      "velocity": 0.71,
      "hand": "right"
    },
    {
      "midi": 71,
      "time": 24.429,
      "duration": 0.214,
      "velocity": 0.71,
      "hand": "right"
    },
    {
      "midi": 78,
      "time": 24.857,
      "duration": 0.214,
      "velocity": 0.71,
      "hand": "right"
    },
    {
      "midi": 65,
      "time": 25.286,
      "duration": 0.214,
      "velocity": 0.71,
      "hand": "right"
    },
    {
      "midi": 68,
      "time": 25.714,
      "duration": 0.214,
      "velocity": 0.71,
      "hand": "right"
    },
    {
      "midi": 71,
      "time": 25.929,
      "duration": 0.214,
      "velocity": 0.71,
      "hand": "right"
    },
    {
      "midi": 76,
      "time": 26.357,
      "duration": 0.214,
      "velocity": 0.71,
      "hand": "right"
    },
    {
      "midi": 81,
      "time": 26.786,
      "duration": 0.214,
      "velocity": 0.71,
      "hand": "right"
    },
    {
      "midi": 86,
      "time": 27.214,
      "duration": 0.214,
      "velocity": 0.71,
      "hand": "right"
    },
    {
      "midi": 85,
      "time": 27.429,
      "duration": 0.214,
      "velocity": 0.71,
      "hand": "right"
    },
    {
      "midi": 78,
      "time": 27.857,
      "duration": 0.214,
      "velocity": 0.71,
      "hand": "right"
    },
    {
      "midi": 83,
      "time": 28.286,
      "duration": 0.214,
      "velocity": 0.71,
      "hand": "right"
    },
    {
      "midi": 76,
      "time": 28.714,
      "duration": 0.214,
      "velocity": 0.71,
      "hand": "right"
    },
    {
      "midi": 74,
      "time": 28.929,
      "duration": 0.214,
      "velocity": 0.71,
      "hand": "right"
    },
    {
      "midi": 79,
      "time": 29.357,
      "duration": 0.214,
      "velocity": 0.71,
      "hand": "right"
    },
    {
      "midi": 69,
      "time": 29.786,
      "duration": 0.214,
      "velocity": 0.71,
      "hand": "right"
    },
    {
      "midi": 67,
      "time": 30.214,
      "duration": 0.214,
      "velocity": 0.71,
      "hand": "right"
    },
    {
      "midi": 66,
      "time": 30.429,
      "duration": 0.214,
      "velocity": 0.71,
      "hand": "right"
    },
    {
      "midi": 74,
      "time": 30.857,
      "duration": 0.214,
      "velocity": 0.71,
      "hand": "right"
    },
    {
      "midi": 67,
      "time": 31.286,
      "duration": 0.214,
      "velocity": 0.71,
      "hand": "right"
    },
    {
      "midi": 78,
      "time": 31.714,
      "duration": 0.214,
      "velocity": 0.71,
      "hand": "right"
    },
    {
      "midi": 73,
      "time": 31.929,
      "duration": 0.214,
      "velocity": 0.71,
      "hand": "right"
    },
    {
      "midi": 77,
      "time": 32.357,
      "duration": 0.214,
      "velocity": 0.71,
      "hand": "right"
    },
    {
      "midi": 68,
      "time": 32.786,
      "duration": 0.214,
      "velocity": 0.71,
      "hand": "right"
    },
    {
      "midi": 72,
      "time": 33.214,
      "duration": 0.214,
      "velocity": 0.71,
      "hand": "right"
    },
    {
      "midi": 69,
      "time": 33.429,
      "duration": 0.214,
      "velocity": 0.71,
      "hand": "right"
    },
    {
      "midi": 74,
      "time": 33.857,
      "duration": 0.214,
      "velocity": 0.71,
      "hand": "right"
    },
    {
      "midi": 67,
      "time": 34.286,
      "duration": 0.214,
      "velocity": 0.71,
      "hand": "right"
    },
    {
      "midi": 70,
      "time": 34.714,
      "duration": 0.214,
      "velocity": 0.71,
      "hand": "right"
    },
    {
      "midi": 82,
      "time": 34.929,
      "duration": 0.214,
      "velocity": 0.71,
      "hand": "right"
    },
    {
      "midi": 73,
      "time": 35.357,
      "duration": 0.214,
      "velocity": 0.71,
      "hand": "right"
    },
    {
      "midi": 86,
      "time": 35.786,
      "duration": 0.214,
      "velocity": 0.71,
      "hand": "right"
    },
    {
      "midi": 86,
      "time": 36.214,
      "duration": 0.643,
      "velocity": 0.71,
      "hand": "right"
    },
    {
      "midi": 67,
      "time": 36.429,
      "duration": 0.214,
      "velocity": 0.71,
      "hand": "right"
    },
    {
      "midi": 86,
      "time": 36.857,
      "duration": 0.643,
      "velocity": 0.71,
      "hand": "right"
    },
    {
      "midi": 74,
      "time": 37.286,
      "duration": 0.214,
      "velocity": 0.71,
      "hand": "right"
    },
    {
      "midi": 67,
      "time": 37.929,
      "duration": 0.214,
      "velocity": 0.71,
      "hand": "right"
    },
    {
      "midi": 61,
      "time": 38.357,
      "duration": 0.214,
      "velocity": 0.71,
      "hand": "right"
    },
    {
      "midi": 86,
      "time": 38.786,
      "duration": 0.643,
      "velocity": 0.71,
      "hand": "right"
    },
    {
      "midi": 62,
      "time": 39.214,
      "duration": 0.214,
      "velocity": 0.71,
      "hand": "right"
    },
    {
      "midi": 86,
      "time": 39.429,
      "duration": 0.643,
      "velocity": 0.71,
      "hand": "right"
    },
    {
      "midi": 60,
      "time": 39.857,
      "duration": 0.214,
      "velocity": 0.71,
      "hand": "right"
    },
    {
      "midi": 60,
      "time": 40.286,
      "duration": 0.214,
      "velocity": 0.71,
      "hand": "right"
    },
    {
      "midi": 84,
      "time": 40.714,
      "duration": 0.429,
      "velocity": 0.71,
      "hand": "right"
    },
    {
      "midi": 78,
      "time": 40.929,
      "duration": 0.214,
      "velocity": 0.71,
      "hand": "right"
    },
    {
      "midi": 76,
      "time": 41.357,
      "duration": 0.214,
      "velocity": 0.71,
      "hand": "right"
    },
    {
      "midi": 78,
      "time": 41.786,
      "duration": 0.214,
      "velocity": 0.71,
      "hand": "right"
    },
    {
      "midi": 83,
      "time": 42.214,
      "duration": 0.214,
      "velocity": 0.71,
      "hand": "right"
    },
    {
      "midi": 79,
      "time": 42.429,
      "duration": 0.214,
      "velocity": 0.71,
      "hand": "right"
    },
    {
      "midi": 86,
      "time": 42.857,
      "duration": 0.214,
      "velocity": 0.71,
      "hand": "right"
    },
    {
      "midi": 76,
      "time": 43.286,
      "duration": 0.214,
      "velocity": 0.71,
      "hand": "right"
    },
    {
      "midi": 75,
      "time": 43.714,
      "duration": 0.214,
      "velocity": 0.71,
      "hand": "right"
    },
    {
      "midi": 74,
      "time": 43.929,
      "duration": 0.214,
      "velocity": 0.71,
      "hand": "right"
    },
    {
      "midi": 74,
      "time": 44.357,
      "duration": 0.214,
      "velocity": 0.71,
      "hand": "right"
    },
    {
      "midi": 81,
      "time": 44.786,
      "duration": 0.214,
      "velocity": 0.71,
      "hand": "right"
    },
    {
      "midi": 71,
      "time": 45.214,
      "duration": 0.214,
      "velocity": 0.71,
      "hand": "right"
    },
    {
      "midi": 79,
      "time": 45.429,
      "duration": 0.214,
      "velocity": 0.71,
      "hand": "right"
    },
    {
      "midi": 64,
      "time": 45.857,
      "duration": 0.214,
      "velocity": 0.71,
      "hand": "right"
    },
    {
      "midi": 62,
      "time": 46.286,
      "duration": 0.214,
      "velocity": 0.71,
      "hand": "right"
    },
    {
      "midi": 69,
      "time": 46.714,
      "duration": 0.214,
      "velocity": 0.71,
      "hand": "right"
    },
    {
      "midi": 60,
      "time": 46.929,
      "duration": 0.214,
      "velocity": 0.71,
      "hand": "right"
    },
    {
      "midi": 67,
      "time": 47.357,
      "duration": 0.214,
      "velocity": 0.71,
      "hand": "right"
    },
    {
      "midi": 60,
      "time": 47.786,
      "duration": 0.214,
      "velocity": 0.71,
      "hand": "right"
    },
    {
      "midi": 78,
      "time": 48.214,
      "duration": 0.214,
      "velocity": 0.71,
      "hand": "right"
    },
    {
      "midi": 79,
      "time": 48.429,
      "duration": 0.429,
      "velocity": 0.71,
      "hand": "right"
    }
  ],
  "notes2Hands": [
    {
      "midi": 74,
      "time": 0,
      "duration": 0.214,
      "velocity": 0.71,
      "hand": "right"
    },
    {
      "midi": 71,
      "time": 0.214,
      "duration": 0.214,
      "velocity": 0.71,
      "hand": "right"
    },
    {
      "midi": 67,
      "time": 0.429,
      "duration": 0.214,
      "velocity": 0.71,
      "hand": "right"
    },
    {
      "midi": 79,
      "time": 0.643,
      "duration": 0.214,
      "velocity": 0.71,
      "hand": "right"
    },
    {
      "midi": 78,
      "time": 0.857,
      "duration": 0.214,
      "velocity": 0.71,
      "hand": "right"
    },
    {
      "midi": 73,
      "time": 1.071,
      "duration": 0.214,
      "velocity": 0.71,
      "hand": "right"
    },
    {
      "midi": 74,
      "time": 1.286,
      "duration": 0.214,
      "velocity": 0.71,
      "hand": "right"
    },
    {
      "midi": 77,
      "time": 1.5,
      "duration": 0.214,
      "velocity": 0.71,
      "hand": "right"
    },
    {
      "midi": 76,
      "time": 1.714,
      "duration": 0.214,
      "velocity": 0.71,
      "hand": "right"
    },
    {
      "midi": 68,
      "time": 1.929,
      "duration": 0.214,
      "velocity": 0.71,
      "hand": "right"
    },
    {
      "midi": 69,
      "time": 2.143,
      "duration": 0.214,
      "velocity": 0.71,
      "hand": "right"
    },
    {
      "midi": 72,
      "time": 2.357,
      "duration": 0.214,
      "velocity": 0.71,
      "hand": "right"
    },
    {
      "midi": 67,
      "time": 2.571,
      "duration": 0.214,
      "velocity": 0.71,
      "hand": "right"
    },
    {
      "midi": 71,
      "time": 2.571,
      "duration": 0.214,
      "velocity": 0.71,
      "hand": "right"
    },
    {
      "midi": 66,
      "time": 2.786,
      "duration": 0.214,
      "velocity": 0.71,
      "hand": "right"
    },
    {
      "midi": 69,
      "time": 2.786,
      "duration": 0.214,
      "velocity": 0.71,
      "hand": "right"
    },
    {
      "midi": 62,
      "time": 3,
      "duration": 0.214,
      "velocity": 0.71,
      "hand": "right"
    },
    {
      "midi": 74,
      "time": 3.214,
      "duration": 0.214,
      "velocity": 0.71,
      "hand": "right"
    },
    {
      "midi": 78,
      "time": 3.214,
      "duration": 0.214,
      "velocity": 0.71,
      "hand": "right"
    },
    {
      "midi": 73,
      "time": 3.429,
      "duration": 0.214,
      "velocity": 0.71,
      "hand": "right"
    },
    {
      "midi": 76,
      "time": 3.429,
      "duration": 0.214,
      "velocity": 0.71,
      "hand": "right"
    },
    {
      "midi": 68,
      "time": 3.643,
      "duration": 0.214,
      "velocity": 0.71,
      "hand": "right"
    },
    {
      "midi": 86,
      "time": 3.643,
      "duration": 0.214,
      "velocity": 0.71,
      "hand": "right"
    },
    {
      "midi": 69,
      "time": 3.857,
      "duration": 0.214,
      "velocity": 0.71,
      "hand": "right"
    },
    {
      "midi": 85,
      "time": 3.857,
      "duration": 0.214,
      "velocity": 0.71,
      "hand": "right"
    },
    {
      "midi": 72,
      "time": 4.071,
      "duration": 0.214,
      "velocity": 0.71,
      "hand": "right"
    },
    {
      "midi": 76,
      "time": 4.071,
      "duration": 0.214,
      "velocity": 0.71,
      "hand": "right"
    },
    {
      "midi": 71,
      "time": 4.286,
      "duration": 0.214,
      "velocity": 0.71,
      "hand": "right"
    },
    {
      "midi": 75,
      "time": 4.286,
      "duration": 0.214,
      "velocity": 0.71,
      "hand": "right"
    },
    {
      "midi": 63,
      "time": 4.5,
      "duration": 0.214,
      "velocity": 0.71,
      "hand": "right"
    },
    {
      "midi": 81,
      "time": 4.5,
      "duration": 0.214,
      "velocity": 0.71,
      "hand": "right"
    },
    {
      "midi": 64,
      "time": 4.714,
      "duration": 0.214,
      "velocity": 0.71,
      "hand": "right"
    },
    {
      "midi": 79,
      "time": 4.714,
      "duration": 0.214,
      "velocity": 0.71,
      "hand": "right"
    },
    {
      "midi": 67,
      "time": 4.929,
      "duration": 0.214,
      "velocity": 0.71,
      "hand": "right"
    },
    {
      "midi": 73,
      "time": 4.929,
      "duration": 0.214,
      "velocity": 0.71,
      "hand": "right"
    },
    {
      "midi": 62,
      "time": 5.143,
      "duration": 0.214,
      "velocity": 0.71,
      "hand": "right"
    },
    {
      "midi": 66,
      "time": 5.143,
      "duration": 0.214,
      "velocity": 0.71,
      "hand": "right"
    },
    {
      "midi": 74,
      "time": 5.143,
      "duration": 0.214,
      "velocity": 0.71,
      "hand": "right"
    },
    {
      "midi": 59,
      "time": 5.357,
      "duration": 0.214,
      "velocity": 0.71,
      "hand": "left"
    },
    {
      "midi": 55,
      "time": 5.571,
      "duration": 0.214,
      "velocity": 0.71,
      "hand": "left"
    },
    {
      "midi": 67,
      "time": 5.786,
      "duration": 0.214,
      "velocity": 0.71,
      "hand": "right"
    },
    {
      "midi": 69,
      "time": 5.786,
      "duration": 0.214,
      "velocity": 0.71,
      "hand": "right"
    },
    {
      "midi": 73,
      "time": 5.786,
      "duration": 0.214,
      "velocity": 0.71,
      "hand": "right"
    },
    {
      "midi": 66,
      "time": 6,
      "duration": 0.214,
      "velocity": 0.71,
      "hand": "right"
    },
    {
      "midi": 69,
      "time": 6,
      "duration": 0.857,
      "velocity": 0.71,
      "hand": "right"
    },
    {
      "midi": 74,
      "time": 6,
      "duration": 0.214,
      "velocity": 0.71,
      "hand": "right"
    },
    {
      "midi": 61,
      "time": 6.214,
      "duration": 0.214,
      "velocity": 0.71,
      "hand": "right"
    },
    {
      "midi": 79,
      "time": 6.214,
      "duration": 0.214,
      "velocity": 0.71,
      "hand": "right"
    },
    {
      "midi": 62,
      "time": 6.429,
      "duration": 0.214,
      "velocity": 0.71,
      "hand": "right"
    },
    {
      "midi": 78,
      "time": 6.429,
      "duration": 0.214,
      "velocity": 0.71,
      "hand": "right"
    },
    {
      "midi": 65,
      "time": 6.643,
      "duration": 0.214,
      "velocity": 0.71,
      "hand": "right"
    },
    {
      "midi": 71,
      "time": 6.643,
      "duration": 0.429,
      "velocity": 0.71,
      "hand": "right"
    },
    {
      "midi": 64,
      "time": 6.857,
      "duration": 0.214,
      "velocity": 0.71,
      "hand": "right"
    },
    {
      "midi": 68,
      "time": 6.857,
      "duration": 0.214,
      "velocity": 0.71,
      "hand": "right"
    },
    {
      "midi": 56,
      "time": 7.071,
      "duration": 0.214,
      "velocity": 0.71,
      "hand": "left"
    },
    {
      "midi": 64,
      "time": 7.071,
      "duration": 0.429,
      "velocity": 0.71,
      "hand": "right"
    },
    {
      "midi": 74,
      "time": 7.071,
      "duration": 0.214,
      "velocity": 0.71,
      "hand": "right"
    },
    {
      "midi": 57,
      "time": 7.286,
      "duration": 0.214,
      "velocity": 0.71,
      "hand": "left"
    },
    {
      "midi": 72,
      "time": 7.286,
      "duration": 0.214,
      "velocity": 0.71,
      "hand": "right"
    },
    {
      "midi": 60,
      "time": 7.5,
      "duration": 0.214,
      "velocity": 0.71,
      "hand": "right"
    },
    {
      "midi": 63,
      "time": 7.5,
      "duration": 0.214,
      "velocity": 0.71,
      "hand": "right"
    },
    {
      "midi": 66,
      "time": 7.5,
      "duration": 0.214,
      "velocity": 0.71,
      "hand": "right"
    },
    {
      "midi": 59,
      "time": 7.714,
      "duration": 0.214,
      "velocity": 0.71,
      "hand": "left"
    },
    {
      "midi": 62,
      "time": 7.714,
      "duration": 0.214,
      "velocity": 0.71,
      "hand": "right"
    },
    {
      "midi": 67,
      "time": 7.714,
      "duration": 0.429,
      "velocity": 0.71,
      "hand": "right"
    },
    {
      "midi": 60,
      "time": 7.929,
      "duration": 0.214,
      "velocity": 0.71,
      "hand": "right"
    },
    {
      "midi": 64,
      "time": 7.929,
      "duration": 0.429,
      "velocity": 0.71,
      "hand": "right"
    },
    {
      "midi": 48,
      "time": 8.143,
      "duration": 0.214,
      "velocity": 0.71,
      "hand": "left"
    },
    {
      "midi": 69,
      "time": 8.143,
      "duration": 0.643,
      "velocity": 0.71,
      "hand": "right"
    },
    {
      "midi": 45,
      "time": 8.357,
      "duration": 0.214,
      "velocity": 0.71,
      "hand": "left"
    },
    {
      "midi": 65,
      "time": 8.357,
      "duration": 0.214,
      "velocity": 0.71,
      "hand": "right"
    },
    {
      "midi": 50,
      "time": 8.571,
      "duration": 0.214,
      "velocity": 0.71,
      "hand": "left"
    },
    {
      "midi": 66,
      "time": 8.571,
      "duration": 0.643,
      "velocity": 0.71,
      "hand": "right"
    },
    {
      "midi": 62,
      "time": 8.786,
      "duration": 0.214,
      "velocity": 0.71,
      "hand": "right"
    },
    {
      "midi": 71,
      "time": 8.786,
      "duration": 0.643,
      "velocity": 0.71,
      "hand": "right"
    },
    {
      "midi": 59,
      "time": 9,
      "duration": 0.214,
      "velocity": 0.71,
      "hand": "left"
    },
    {
      "midi": 64,
      "time": 9.214,
      "duration": 0.214,
      "velocity": 0.71,
      "hand": "right"
    },
    {
      "midi": 67,
      "time": 9.214,
      "duration": 0.429,
      "velocity": 0.71,
      "hand": "right"
    },
    {
      "midi": 52,
      "time": 9.429,
      "duration": 0.214,
      "velocity": 0.71,
      "hand": "left"
    },
    {
      "midi": 72,
      "time": 9.429,
      "duration": 0.643,
      "velocity": 0.71,
      "hand": "right"
    },
    {
      "midi": 48,
      "time": 9.643,
      "duration": 0.214,
      "velocity": 0.71,
      "hand": "left"
    },
    {
      "midi": 68,
      "time": 9.643,
      "duration": 0.214,
      "velocity": 0.71,
      "hand": "right"
    },
    {
      "midi": 54,
      "time": 9.857,
      "duration": 0.214,
      "velocity": 0.71,
      "hand": "left"
    },
    {
      "midi": 69,
      "time": 9.857,
      "duration": 0.429,
      "velocity": 0.71,
      "hand": "right"
    },
    {
      "midi": 66,
      "time": 10.071,
      "duration": 0.214,
      "velocity": 0.71,
      "hand": "right"
    },
    {
      "midi": 74,
      "time": 10.071,
      "duration": 0.643,
      "velocity": 0.71,
      "hand": "right"
    },
    {
      "midi": 62,
      "time": 10.286,
      "duration": 0.214,
      "velocity": 0.71,
      "hand": "right"
    },
    {
      "midi": 70,
      "time": 10.286,
      "duration": 0.214,
      "velocity": 0.71,
      "hand": "right"
    },
    {
      "midi": 67,
      "time": 10.5,
      "duration": 0.214,
      "velocity": 0.71,
      "hand": "right"
    },
    {
      "midi": 71,
      "time": 10.5,
      "duration": 0.214,
      "velocity": 0.71,
      "hand": "right"
    },
    {
      "midi": 55,
      "time": 10.714,
      "duration": 0.643,
      "velocity": 0.71,
      "hand": "left"
    },
    {
      "midi": 71,
      "time": 10.714,
      "duration": 0.214,
      "velocity": 0.71,
      "hand": "right"
    },
    {
      "midi": 59,
      "time": 10.929,
      "duration": 0.214,
      "velocity": 0.71,
      "hand": "left"
    },
    {
      "midi": 76,
      "time": 10.929,
      "duration": 0.214,
      "velocity": 0.71,
      "hand": "right"
    },
    {
      "midi": 64,
      "time": 11.143,
      "duration": 0.429,
      "velocity": 0.71,
      "hand": "right"
    },
    {
      "midi": 83,
      "time": 11.143,
      "duration": 0.214,
      "velocity": 0.71,
      "hand": "right"
    },
    {
      "midi": 57,
      "time": 11.357,
      "duration": 0.643,
      "velocity": 0.71,
      "hand": "left"
    },
    {
      "midi": 73,
      "time": 11.357,
      "duration": 0.214,
      "velocity": 0.71,
      "hand": "right"
    },
    {
      "midi": 61,
      "time": 11.571,
      "duration": 0.214,
      "velocity": 0.71,
      "hand": "right"
    },
    {
      "midi": 78,
      "time": 11.571,
      "duration": 0.214,
      "velocity": 0.71,
      "hand": "right"
    },
    {
      "midi": 66,
      "time": 11.786,
      "duration": 0.429,
      "velocity": 0.71,
      "hand": "right"
    },
    {
      "midi": 85,
      "time": 11.786,
      "duration": 0.214,
      "velocity": 0.71,
      "hand": "right"
    },
    {
      "midi": 59,
      "time": 12,
      "duration": 0.643,
      "velocity": 0.71,
      "hand": "left"
    },
    {
      "midi": 74,
      "time": 12,
      "duration": 0.214,
      "velocity": 0.71,
      "hand": "right"
    },
    {
      "midi": 62,
      "time": 12.214,
      "duration": 0.214,
      "velocity": 0.71,
      "hand": "right"
    },
    {
      "midi": 79,
      "time": 12.214,
      "duration": 0.214,
      "velocity": 0.71,
      "hand": "right"
    },
    {
      "midi": 67,
      "time": 12.429,
      "duration": 0.429,
      "velocity": 0.71,
      "hand": "right"
    },
    {
      "midi": 86,
      "time": 12.429,
      "duration": 0.214,
      "velocity": 0.71,
      "hand": "right"
    },
    {
      "midi": 61,
      "time": 12.643,
      "duration": 0.429,
      "velocity": 0.71,
      "hand": "right"
    },
    {
      "midi": 76,
      "time": 12.643,
      "duration": 0.214,
      "velocity": 0.71,
      "hand": "right"
    },
    {
      "midi": 64,
      "time": 12.857,
      "duration": 0.214,
      "velocity": 0.71,
      "hand": "right"
    },
    {
      "midi": 81,
      "time": 12.857,
      "duration": 0.214,
      "velocity": 0.71,
      "hand": "right"
    },
    {
      "midi": 62,
      "time": 13.071,
      "duration": 0.214,
      "velocity": 0.71,
      "hand": "right"
    },
    {
      "midi": 66,
      "time": 13.071,
      "duration": 0.214,
      "velocity": 0.71,
      "hand": "right"
    },
    {
      "midi": 78,
      "time": 13.071,
      "duration": 0.214,
      "velocity": 0.71,
      "hand": "right"
    },
    {
      "midi": 74,
      "time": 13.286,
      "duration": 0.214,
      "velocity": 0.71,
      "hand": "right"
    },
    {
      "midi": 59,
      "time": 13.5,
      "duration": 0.214,
      "velocity": 0.71,
      "hand": "left"
    },
    {
      "midi": 68,
      "time": 13.5,
      "duration": 0.214,
      "velocity": 0.71,
      "hand": "right"
    },
    {
      "midi": 86,
      "time": 13.5,
      "duration": 0.214,
      "velocity": 0.71,
      "hand": "right"
    },
    {
      "midi": 57,
      "time": 13.714,
      "duration": 0.214,
      "velocity": 0.71,
      "hand": "left"
    },
    {
      "midi": 69,
      "time": 13.714,
      "duration": 0.214,
      "velocity": 0.71,
      "hand": "right"
    },
    {
      "midi": 85,
      "time": 13.714,
      "duration": 0.214,
      "velocity": 0.71,
      "hand": "right"
    },
    {
      "midi": 80,
      "time": 13.929,
      "duration": 0.214,
      "velocity": 0.71,
      "hand": "right"
    },
    {
      "midi": 69,
      "time": 14.143,
      "duration": 0.214,
      "velocity": 0.71,
      "hand": "right"
    },
    {
      "midi": 81,
      "time": 14.143,
      "duration": 0.214,
      "velocity": 0.71,
      "hand": "right"
    },
    {
      "midi": 66,
      "time": 14.357,
      "duration": 0.214,
      "velocity": 0.71,
      "hand": "right"
    },
    {
      "midi": 81,
      "time": 14.357,
      "duration": 0.643,
      "velocity": 0.71,
      "hand": "right"
    },
    {
      "midi": 62,
      "time": 14.571,
      "duration": 0.214,
      "velocity": 0.71,
      "hand": "right"
    },
    {
      "midi": 74,
      "time": 14.786,
      "duration": 0.214,
      "velocity": 0.71,
      "hand": "right"
    },
    {
      "midi": 73,
      "time": 15,
      "duration": 0.214,
      "velocity": 0.71,
      "hand": "right"
    },
    {
      "midi": 81,
      "time": 15,
      "duration": 0.643,
      "velocity": 0.71,
      "hand": "right"
    },
    {
      "midi": 68,
      "time": 15.214,
      "duration": 0.214,
      "velocity": 0.71,
      "hand": "right"
    },
    {
      "midi": 57,
      "time": 15.429,
      "duration": 0.214,
      "velocity": 0.71,
      "hand": "left"
    },
    {
      "midi": 69,
      "time": 15.429,
      "duration": 0.214,
      "velocity": 0.71,
      "hand": "right"
    },
    {
      "midi": 53,
      "time": 15.643,
      "duration": 0.214,
      "velocity": 0.71,
      "hand": "left"
    },
    {
      "midi": 69,
      "time": 15.643,
      "duration": 0.643,
      "velocity": 0.71,
      "hand": "right"
    },
    {
      "midi": 74,
      "time": 15.643,
      "duration": 0.643,
      "velocity": 0.71,
      "hand": "right"
    },
    {
      "midi": 81,
      "time": 15.643,
      "duration": 0.643,
      "velocity": 0.71,
      "hand": "right"
    },
    {
      "midi": 50,
      "time": 15.857,
      "duration": 0.214,
      "velocity": 0.71,
      "hand": "left"
    },
    {
      "midi": 62,
      "time": 16.071,
      "duration": 0.214,
      "velocity": 0.71,
      "hand": "right"
    },
    {
      "midi": 61,
      "time": 16.286,
      "duration": 0.214,
      "velocity": 0.71,
      "hand": "right"
    },
    {
      "midi": 69,
      "time": 16.286,
      "duration": 0.643,
      "velocity": 0.71,
      "hand": "right"
    },
    {
      "midi": 76,
      "time": 16.286,
      "duration": 0.643,
      "velocity": 0.71,
      "hand": "right"
    },
    {
      "midi": 81,
      "time": 16.286,
      "duration": 0.643,
      "velocity": 0.71,
      "hand": "right"
    },
    {
      "midi": 56,
      "time": 16.5,
      "duration": 0.214,
      "velocity": 0.71,
      "hand": "left"
    },
    {
      "midi": 57,
      "time": 16.714,
      "duration": 0.214,
      "velocity": 0.71,
      "hand": "left"
    },
    {
      "midi": 60,
      "time": 16.929,
      "duration": 0.214,
      "velocity": 0.71,
      "hand": "right"
    },
    {
      "midi": 69,
      "time": 16.929,
      "duration": 0.643,
      "velocity": 0.71,
      "hand": "right"
    },
    {
      "midi": 75,
      "time": 16.929,
      "duration": 0.643,
      "velocity": 0.71,
      "hand": "right"
    },
    {
      "midi": 81,
      "time": 16.929,
      "duration": 0.643,
      "velocity": 0.71,
      "hand": "right"
    },
    {
      "midi": 54,
      "time": 17.143,
      "duration": 0.214,
      "velocity": 0.71,
      "hand": "left"
    },
    {
      "midi": 57,
      "time": 17.357,
      "duration": 0.214,
      "velocity": 0.71,
      "hand": "left"
    },
    {
      "midi": 46,
      "time": 17.571,
      "duration": 0.214,
      "velocity": 0.71,
      "hand": "left"
    },
    {
      "midi": 70,
      "time": 17.571,
      "duration": 0.643,
      "velocity": 0.71,
      "hand": "right"
    },
    {
      "midi": 74,
      "time": 17.571,
      "duration": 0.643,
      "velocity": 0.71,
      "hand": "right"
    },
    {
      "midi": 81,
      "time": 17.571,
      "duration": 0.643,
      "velocity": 0.71,
      "hand": "right"
    },
    {
      "midi": 58,
      "time": 17.786,
      "duration": 0.214,
      "velocity": 0.71,
      "hand": "left"
    },
    {
      "midi": 55,
      "time": 18,
      "duration": 0.214,
      "velocity": 0.71,
      "hand": "left"
    },
    {
      "midi": 51,
      "time": 18.214,
      "duration": 0.214,
      "velocity": 0.71,
      "hand": "left"
    },
    {
      "midi": 70,
      "time": 18.214,
      "duration": 0.643,
      "velocity": 0.71,
      "hand": "right"
    },
    {
      "midi": 75,
      "time": 18.214,
      "duration": 0.643,
      "velocity": 0.71,
      "hand": "right"
    },
    {
      "midi": 79,
      "time": 18.214,
      "duration": 0.643,
      "velocity": 0.71,
      "hand": "right"
    },
    {
      "midi": 55,
      "time": 18.429,
      "duration": 0.214,
      "velocity": 0.71,
      "hand": "left"
    },
    {
      "midi": 50,
      "time": 18.643,
      "duration": 0.214,
      "velocity": 0.71,
      "hand": "left"
    },
    {
      "midi": 49,
      "time": 18.857,
      "duration": 0.214,
      "velocity": 0.71,
      "hand": "left"
    },
    {
      "midi": 69,
      "time": 18.857,
      "duration": 0.214,
      "velocity": 0.71,
      "hand": "right"
    },
    {
      "midi": 76,
      "time": 18.857,
      "duration": 0.429,
      "velocity": 0.71,
      "hand": "right"
    },
    {
      "midi": 79,
      "time": 18.857,
      "duration": 0.429,
      "velocity": 0.71,
      "hand": "right"
    },
    {
      "midi": 45,
      "time": 19.071,
      "duration": 0.214,
      "velocity": 0.71,
      "hand": "left"
    },
    {
      "midi": 73,
      "time": 19.071,
      "duration": 0.214,
      "velocity": 0.71,
      "hand": "right"
    },
    {
      "midi": 47,
      "time": 19.286,
      "duration": 0.214,
      "velocity": 0.71,
      "hand": "left"
    },
    {
      "midi": 74,
      "time": 19.286,
      "duration": 0.214,
      "velocity": 0.71,
      "hand": "right"
    },
    {
      "midi": 78,
      "time": 19.286,
      "duration": 0.214,
      "velocity": 0.71,
      "hand": "right"
    },
    {
      "midi": 43,
      "time": 19.5,
      "duration": 0.214,
      "velocity": 0.71,
      "hand": "left"
    },
    {
      "midi": 71,
      "time": 19.5,
      "duration": 0.214,
      "velocity": 0.71,
      "hand": "right"
    },
    {
      "midi": 40,
      "time": 19.714,
      "duration": 0.214,
      "velocity": 0.71,
      "hand": "left"
    },
    {
      "midi": 76,
      "time": 19.714,
      "duration": 0.214,
      "velocity": 0.71,
      "hand": "right"
    },
    {
      "midi": 45,
      "time": 19.929,
      "duration": 0.214,
      "velocity": 0.71,
      "hand": "left"
    },
    {
      "midi": 64,
      "time": 19.929,
      "duration": 0.214,
      "velocity": 0.71,
      "hand": "right"
    },
    {
      "midi": 73,
      "time": 19.929,
      "duration": 0.214,
      "velocity": 0.71,
      "hand": "right"
    },
    {
      "midi": 38,
      "time": 20.143,
      "duration": 0.214,
      "velocity": 0.71,
      "hand": "left"
    },
    {
      "midi": 66,
      "time": 20.143,
      "duration": 0.214,
      "velocity": 0.71,
      "hand": "right"
    },
    {
      "midi": 74,
      "time": 20.143,
      "duration": 0.214,
      "velocity": 0.71,
      "hand": "right"
    },
    {
      "midi": 57,
      "time": 20.571,
      "duration": 0.214,
      "velocity": 0.71,
      "hand": "left"
    },
    {
      "midi": 54,
      "time": 20.786,
      "duration": 0.214,
      "velocity": 0.71,
      "hand": "left"
    },
    {
      "midi": 50,
      "time": 21,
      "duration": 0.214,
      "velocity": 0.71,
      "hand": "left"
    },
    {
      "midi": 62,
      "time": 21.214,
      "duration": 0.214,
      "velocity": 0.71,
      "hand": "right"
    },
    {
      "midi": 61,
      "time": 21.429,
      "duration": 0.214,
      "velocity": 0.71,
      "hand": "right"
    },
    {
      "midi": 56,
      "time": 21.643,
      "duration": 0.214,
      "velocity": 0.71,
      "hand": "left"
    },
    {
      "midi": 57,
      "time": 21.857,
      "duration": 0.214,
      "velocity": 0.71,
      "hand": "left"
    },
    {
      "midi": 69,
      "time": 21.857,
      "duration": 0.214,
      "velocity": 0.71,
      "hand": "right"
    },
    {
      "midi": 72,
      "time": 22.071,
      "duration": 0.214,
      "velocity": 0.71,
      "hand": "right"
    },
    {
      "midi": 76,
      "time": 22.286,
      "duration": 0.214,
      "velocity": 0.71,
      "hand": "right"
    },
    {
      "midi": 46,
      "time": 22.5,
      "duration": 0.214,
      "velocity": 0.71,
      "hand": "left"
    },
    {
      "midi": 64,
      "time": 22.5,
      "duration": 0.214,
      "velocity": 0.71,
      "hand": "right"
    },
    {
      "midi": 47,
      "time": 22.714,
      "duration": 0.429,
      "velocity": 0.71,
      "hand": "left"
    },
    {
      "midi": 63,
      "time": 22.714,
      "duration": 0.214,
      "velocity": 0.71,
      "hand": "right"
    },
    {
      "midi": 67,
      "time": 22.929,
      "duration": 0.214,
      "velocity": 0.71,
      "hand": "right"
    },
    {
      "midi": 59,
      "time": 23.143,
      "duration": 0.214,
      "velocity": 0.71,
      "hand": "left"
    },
    {
      "midi": 66,
      "time": 23.143,
      "duration": 0.214,
      "velocity": 0.71,
      "hand": "right"
    },
    {
      "midi": 55,
      "time": 23.357,
      "duration": 0.214,
      "velocity": 0.71,
      "hand": "left"
    },
    {
      "midi": 52,
      "time": 23.571,
      "duration": 0.214,
      "velocity": 0.71,
      "hand": "left"
    },
    {
      "midi": 64,
      "time": 23.786,
      "duration": 0.214,
      "velocity": 0.71,
      "hand": "right"
    },
    {
      "midi": 63,
      "time": 24,
      "duration": 0.214,
      "velocity": 0.71,
      "hand": "right"
    },
    {
      "midi": 58,
      "time": 24.214,
      "duration": 0.214,
      "velocity": 0.71,
      "hand": "left"
    },
    {
      "midi": 59,
      "time": 24.429,
      "duration": 0.214,
      "velocity": 0.71,
      "hand": "left"
    },
    {
      "midi": 71,
      "time": 24.429,
      "duration": 0.214,
      "velocity": 0.71,
      "hand": "right"
    },
    {
      "midi": 74,
      "time": 24.643,
      "duration": 0.214,
      "velocity": 0.71,
      "hand": "right"
    },
    {
      "midi": 78,
      "time": 24.857,
      "duration": 0.214,
      "velocity": 0.71,
      "hand": "right"
    },
    {
      "midi": 66,
      "time": 25.071,
      "duration": 0.214,
      "velocity": 0.71,
      "hand": "right"
    },
    {
      "midi": 65,
      "time": 25.286,
      "duration": 0.214,
      "velocity": 0.71,
      "hand": "right"
    },
    {
      "midi": 60,
      "time": 25.5,
      "duration": 0.214,
      "velocity": 0.71,
      "hand": "right"
    },
    {
      "midi": 69,
      "time": 25.5,
      "duration": 0.214,
      "velocity": 0.71,
      "hand": "right"
    },
    {
      "midi": 61,
      "time": 25.714,
      "duration": 0.214,
      "velocity": 0.71,
      "hand": "right"
    },
    {
      "midi": 68,
      "time": 25.714,
      "duration": 0.214,
      "velocity": 0.71,
      "hand": "right"
    },
    {
      "midi": 55,
      "time": 25.929,
      "duration": 0.214,
      "velocity": 0.71,
      "hand": "left"
    },
    {
      "midi": 71,
      "time": 25.929,
      "duration": 0.214,
      "velocity": 0.71,
      "hand": "right"
    },
    {
      "midi": 54,
      "time": 26.143,
      "duration": 0.214,
      "velocity": 0.71,
      "hand": "left"
    },
    {
      "midi": 70,
      "time": 26.143,
      "duration": 0.214,
      "velocity": 0.71,
      "hand": "right"
    },
    {
      "midi": 58,
      "time": 26.357,
      "duration": 0.214,
      "velocity": 0.71,
      "hand": "left"
    },
    {
      "midi": 76,
      "time": 26.357,
      "duration": 0.214,
      "velocity": 0.71,
      "hand": "right"
    },
    {
      "midi": 59,
      "time": 26.571,
      "duration": 0.214,
      "velocity": 0.71,
      "hand": "left"
    },
    {
      "midi": 75,
      "time": 26.571,
      "duration": 0.214,
      "velocity": 0.71,
      "hand": "right"
    },
    {
      "midi": 53,
      "time": 26.786,
      "duration": 0.214,
      "velocity": 0.71,
      "hand": "left"
    },
    {
      "midi": 81,
      "time": 26.786,
      "duration": 0.214,
      "velocity": 0.71,
      "hand": "right"
    },
    {
      "midi": 52,
      "time": 27,
      "duration": 0.214,
      "velocity": 0.71,
      "hand": "left"
    },
    {
      "midi": 80,
      "time": 27,
      "duration": 0.214,
      "velocity": 0.71,
      "hand": "right"
    },
    {
      "midi": 46,
      "time": 27.214,
      "duration": 0.214,
      "velocity": 0.71,
      "hand": "left"
    },
    {
      "midi": 86,
      "time": 27.214,
      "duration": 0.214,
      "velocity": 0.71,
      "hand": "right"
    },
    {
      "midi": 45,
      "time": 27.429,
      "duration": 0.214,
      "velocity": 0.71,
      "hand": "left"
    },
    {
      "midi": 85,
      "time": 27.429,
      "duration": 0.214,
      "velocity": 0.71,
      "hand": "right"
    },
    {
      "midi": 51,
      "time": 27.643,
      "duration": 0.214,
      "velocity": 0.71,
      "hand": "left"
    },
    {
      "midi": 79,
      "time": 27.643,
      "duration": 0.214,
      "velocity": 0.71,
      "hand": "right"
    },
    {
      "midi": 50,
      "time": 27.857,
      "duration": 0.214,
      "velocity": 0.71,
      "hand": "left"
    },
    {
      "midi": 78,
      "time": 27.857,
      "duration": 0.214,
      "velocity": 0.71,
      "hand": "right"
    },
    {
      "midi": 56,
      "time": 28.071,
      "duration": 0.214,
      "velocity": 0.71,
      "hand": "left"
    },
    {
      "midi": 84,
      "time": 28.071,
      "duration": 0.214,
      "velocity": 0.71,
      "hand": "right"
    },
    {
      "midi": 55,
      "time": 28.286,
      "duration": 0.214,
      "velocity": 0.71,
      "hand": "left"
    },
    {
      "midi": 83,
      "time": 28.286,
      "duration": 0.214,
      "velocity": 0.71,
      "hand": "right"
    },
    {
      "midi": 59,
      "time": 28.5,
      "duration": 0.214,
      "velocity": 0.71,
      "hand": "left"
    },
    {
      "midi": 77,
      "time": 28.5,
      "duration": 0.214,
      "velocity": 0.71,
      "hand": "right"
    },
    {
      "midi": 60,
      "time": 28.714,
      "duration": 0.214,
      "velocity": 0.71,
      "hand": "right"
    },
    {
      "midi": 76,
      "time": 28.714,
      "duration": 0.214,
      "velocity": 0.71,
      "hand": "right"
    },
    {
      "midi": 62,
      "time": 28.929,
      "duration": 0.214,
      "velocity": 0.71,
      "hand": "right"
    },
    {
      "midi": 74,
      "time": 28.929,
      "duration": 0.214,
      "velocity": 0.71,
      "hand": "right"
    },
    {
      "midi": 64,
      "time": 29.143,
      "duration": 0.429,
      "velocity": 0.71,
      "hand": "right"
    },
    {
      "midi": 72,
      "time": 29.143,
      "duration": 0.214,
      "velocity": 0.71,
      "hand": "right"
    },
    {
      "midi": 79,
      "time": 29.357,
      "duration": 0.214,
      "velocity": 0.71,
      "hand": "right"
    },
    {
      "midi": 62,
      "time": 29.571,
      "duration": 0.214,
      "velocity": 0.71,
      "hand": "right"
    },
    {
      "midi": 71,
      "time": 29.571,
      "duration": 0.214,
      "velocity": 0.71,
      "hand": "right"
    },
    {
      "midi": 60,
      "time": 29.786,
      "duration": 0.429,
      "velocity": 0.71,
      "hand": "right"
    },
    {
      "midi": 69,
      "time": 29.786,
      "duration": 0.214,
      "velocity": 0.71,
      "hand": "right"
    },
    {
      "midi": 76,
      "time": 30,
      "duration": 0.214,
      "velocity": 0.71,
      "hand": "right"
    },
    {
      "midi": 61,
      "time": 30.214,
      "duration": 0.214,
      "velocity": 0.71,
      "hand": "right"
    },
    {
      "midi": 67,
      "time": 30.214,
      "duration": 0.214,
      "velocity": 0.71,
      "hand": "right"
    },
    {
      "midi": 62,
      "time": 30.429,
      "duration": 0.429,
      "velocity": 0.71,
      "hand": "right"
    },
    {
      "midi": 66,
      "time": 30.429,
      "duration": 0.214,
      "velocity": 0.71,
      "hand": "right"
    },
    {
      "midi": 69,
      "time": 30.643,
      "duration": 0.214,
      "velocity": 0.71,
      "hand": "right"
    },
    {
      "midi": 74,
      "time": 30.857,
      "duration": 0.214,
      "velocity": 0.71,
      "hand": "right"
    },
    {
      "midi": 50,
      "time": 31.071,
      "duration": 0.429,
      "velocity": 0.71,
      "hand": "left"
    },
    {
      "midi": 55,
      "time": 31.071,
      "duration": 0.429,
      "velocity": 0.71,
      "hand": "left"
    },
    {
      "midi": 58,
      "time": 31.071,
      "duration": 0.429,
      "velocity": 0.71,
      "hand": "left"
    },
    {
      "midi": 70,
      "time": 31.071,
      "duration": 0.214,
      "velocity": 0.71,
      "hand": "right"
    },
    {
      "midi": 67,
      "time": 31.286,
      "duration": 0.214,
      "velocity": 0.71,
      "hand": "right"
    },
    {
      "midi": 79,
      "time": 31.5,
      "duration": 0.214,
      "velocity": 0.71,
      "hand": "right"
    },
    {
      "midi": 50,
      "time": 31.714,
      "duration": 0.429,
      "velocity": 0.71,
      "hand": "left"
    },
    {
      "midi": 54,
      "time": 31.714,
      "duration": 0.429,
      "velocity": 0.71,
      "hand": "left"
    },
    {
      "midi": 57,
      "time": 31.714,
      "duration": 0.429,
      "velocity": 0.71,
      "hand": "left"
    },
    {
      "midi": 78,
      "time": 31.714,
      "duration": 0.214,
      "velocity": 0.71,
      "hand": "right"
    },
    {
      "midi": 73,
      "time": 31.929,
      "duration": 0.214,
      "velocity": 0.71,
      "hand": "right"
    },
    {
      "midi": 74,
      "time": 32.143,
      "duration": 0.214,
      "velocity": 0.71,
      "hand": "right"
    },
    {
      "midi": 50,
      "time": 32.357,
      "duration": 0.429,
      "velocity": 0.71,
      "hand": "left"
    },
    {
      "midi": 56,
      "time": 32.357,
      "duration": 0.429,
      "velocity": 0.71,
      "hand": "left"
    },
    {
      "midi": 59,
      "time": 32.357,
      "duration": 0.429,
      "velocity": 0.71,
      "hand": "left"
    },
    {
      "midi": 77,
      "time": 32.357,
      "duration": 0.214,
      "velocity": 0.71,
      "hand": "right"
    },
    {
      "midi": 76,
      "time": 32.571,
      "duration": 0.214,
      "velocity": 0.71,
      "hand": "right"
    },
    {
      "midi": 68,
      "time": 32.786,
      "duration": 0.214,
      "velocity": 0.71,
      "hand": "right"
    },
    {
      "midi": 50,
      "time": 33,
      "duration": 0.429,
      "velocity": 0.71,
      "hand": "left"
    },
    {
      "midi": 57,
      "time": 33,
      "duration": 0.429,
      "velocity": 0.71,
      "hand": "left"
    },
    {
      "midi": 60,
      "time": 33,
      "duration": 0.429,
      "velocity": 0.71,
      "hand": "right"
    },
    {
      "midi": 69,
      "time": 33,
      "duration": 0.214,
      "velocity": 0.71,
      "hand": "right"
    },
    {
      "midi": 72,
      "time": 33.214,
      "duration": 0.214,
      "velocity": 0.71,
      "hand": "right"
    },
    {
      "midi": 69,
      "time": 33.429,
      "duration": 0.214,
      "velocity": 0.71,
      "hand": "right"
    },
    {
      "midi": 50,
      "time": 33.643,
      "duration": 0.429,
      "velocity": 0.71,
      "hand": "left"
    },
    {
      "midi": 54,
      "time": 33.643,
      "duration": 0.429,
      "velocity": 0.71,
      "hand": "left"
    },
    {
      "midi": 57,
      "time": 33.643,
      "duration": 0.429,
      "velocity": 0.71,
      "hand": "left"
    },
    {
      "midi": 60,
      "time": 33.643,
      "duration": 0.429,
      "velocity": 0.71,
      "hand": "right"
    },
    {
      "midi": 76,
      "time": 33.643,
      "duration": 0.214,
      "velocity": 0.71,
      "hand": "right"
    },
    {
      "midi": 74,
      "time": 33.857,
      "duration": 0.214,
      "velocity": 0.71,
      "hand": "right"
    },
    {
      "midi": 66,
      "time": 34.071,
      "duration": 0.214,
      "velocity": 0.71,
      "hand": "right"
    },
    {
      "midi": 50,
      "time": 34.286,
      "duration": 0.429,
      "velocity": 0.71,
      "hand": "left"
    },
    {
      "midi": 55,
      "time": 34.286,
      "duration": 0.429,
      "velocity": 0.71,
      "hand": "left"
    },
    {
      "midi": 58,
      "time": 34.286,
      "duration": 0.429,
      "velocity": 0.71,
      "hand": "left"
    },
    {
      "midi": 67,
      "time": 34.286,
      "duration": 0.214,
      "velocity": 0.71,
      "hand": "right"
    },
    {
      "midi": 74,
      "time": 34.5,
      "duration": 0.214,
      "velocity": 0.71,
      "hand": "right"
    },
    {
      "midi": 70,
      "time": 34.714,
      "duration": 0.214,
      "velocity": 0.71,
      "hand": "right"
    },
    {
      "midi": 50,
      "time": 34.929,
      "duration": 0.429,
      "velocity": 0.71,
      "hand": "left"
    },
    {
      "midi": 55,
      "time": 34.929,
      "duration": 0.429,
      "velocity": 0.71,
      "hand": "left"
    },
    {
      "midi": 57,
      "time": 34.929,
      "duration": 0.429,
      "velocity": 0.71,
      "hand": "left"
    },
    {
      "midi": 61,
      "time": 34.929,
      "duration": 0.429,
      "velocity": 0.71,
      "hand": "right"
    },
    {
      "midi": 82,
      "time": 34.929,
      "duration": 0.214,
      "velocity": 0.71,
      "hand": "right"
    },
    {
      "midi": 81,
      "time": 35.143,
      "duration": 0.214,
      "velocity": 0.71,
      "hand": "right"
    },
    {
      "midi": 73,
      "time": 35.357,
      "duration": 0.214,
      "velocity": 0.71,
      "hand": "right"
    },
    {
      "midi": 50,
      "time": 35.571,
      "duration": 0.214,
      "velocity": 0.71,
      "hand": "left"
    },
    {
      "midi": 54,
      "time": 35.571,
      "duration": 0.214,
      "velocity": 0.71,
      "hand": "left"
    },
    {
      "midi": 57,
      "time": 35.571,
      "duration": 0.214,
      "velocity": 0.71,
      "hand": "left"
    },
    {
      "midi": 62,
      "time": 35.571,
      "duration": 0.214,
      "velocity": 0.71,
      "hand": "right"
    },
    {
      "midi": 74,
      "time": 35.571,
      "duration": 0.214,
      "velocity": 0.71,
      "hand": "right"
    },
    {
      "midi": 86,
      "time": 35.786,
      "duration": 0.214,
      "velocity": 0.71,
      "hand": "right"
    },
    {
      "midi": 74,
      "time": 36,
      "duration": 0.214,
      "velocity": 0.71,
      "hand": "right"
    },
    {
      "midi": 86,
      "time": 36,
      "duration": 0.214,
      "velocity": 0.71,
      "hand": "right"
    },
    {
      "midi": 71,
      "time": 36.214,
      "duration": 0.214,
      "velocity": 0.71,
      "hand": "right"
    },
    {
      "midi": 86,
      "time": 36.214,
      "duration": 0.643,
      "velocity": 0.71,
      "hand": "right"
    },
    {
      "midi": 67,
      "time": 36.429,
      "duration": 0.214,
      "velocity": 0.71,
      "hand": "right"
    },
    {
      "midi": 79,
      "time": 36.643,
      "duration": 0.214,
      "velocity": 0.71,
      "hand": "right"
    },
    {
      "midi": 78,
      "time": 36.857,
      "duration": 0.214,
      "velocity": 0.71,
      "hand": "right"
    },
    {
      "midi": 86,
      "time": 36.857,
      "duration": 0.643,
      "velocity": 0.71,
      "hand": "right"
    },
    {
      "midi": 73,
      "time": 37.071,
      "duration": 0.214,
      "velocity": 0.71,
      "hand": "right"
    },
    {
      "midi": 62,
      "time": 37.286,
      "duration": 0.214,
      "velocity": 0.71,
      "hand": "right"
    },
    {
      "midi": 74,
      "time": 37.286,
      "duration": 0.214,
      "velocity": 0.71,
      "hand": "right"
    },
    {
      "midi": 58,
      "time": 37.5,
      "duration": 0.214,
      "velocity": 0.71,
      "hand": "left"
    },
    {
      "midi": 74,
      "time": 37.5,
      "duration": 0.643,
      "velocity": 0.71,
      "hand": "right"
    },
    {
      "midi": 79,
      "time": 37.5,
      "duration": 0.643,
      "velocity": 0.71,
      "hand": "right"
    },
    {
      "midi": 86,
      "time": 37.5,
      "duration": 0.643,
      "velocity": 0.71,
      "hand": "right"
    },
    {
      "midi": 55,
      "time": 37.714,
      "duration": 0.214,
      "velocity": 0.71,
      "hand": "left"
    },
    {
      "midi": 67,
      "time": 37.929,
      "duration": 0.214,
      "velocity": 0.71,
      "hand": "right"
    },
    {
      "midi": 66,
      "time": 38.143,
      "duration": 0.214,
      "velocity": 0.71,
      "hand": "right"
    },
    {
      "midi": 74,
      "time": 38.143,
      "duration": 0.643,
      "velocity": 0.71,
      "hand": "right"
    },
    {
      "midi": 81,
      "time": 38.143,
      "duration": 0.643,
      "velocity": 0.71,
      "hand": "right"
    },
    {
      "midi": 86,
      "time": 38.143,
      "duration": 0.643,
      "velocity": 0.71,
      "hand": "right"
    },
    {
      "midi": 61,
      "time": 38.357,
      "duration": 0.214,
      "velocity": 0.71,
      "hand": "right"
    },
    {
      "midi": 62,
      "time": 38.571,
      "duration": 0.214,
      "velocity": 0.71,
      "hand": "right"
    },
    {
      "midi": 65,
      "time": 38.786,
      "duration": 0.214,
      "velocity": 0.71,
      "hand": "right"
    },
    {
      "midi": 74,
      "time": 38.786,
      "duration": 0.643,
      "velocity": 0.71,
      "hand": "right"
    },
    {
      "midi": 80,
      "time": 38.786,
      "duration": 0.643,
      "velocity": 0.71,
      "hand": "right"
    },
    {
      "midi": 86,
      "time": 38.786,
      "duration": 0.643,
      "velocity": 0.71,
      "hand": "right"
    },
    {
      "midi": 59,
      "time": 39,
      "duration": 0.214,
      "velocity": 0.71,
      "hand": "left"
    },
    {
      "midi": 62,
      "time": 39.214,
      "duration": 0.214,
      "velocity": 0.71,
      "hand": "right"
    },
    {
      "midi": 51,
      "time": 39.429,
      "duration": 0.214,
      "velocity": 0.71,
      "hand": "left"
    },
    {
      "midi": 75,
      "time": 39.429,
      "duration": 0.643,
      "velocity": 0.71,
      "hand": "right"
    },
    {
      "midi": 79,
      "time": 39.429,
      "duration": 0.643,
      "velocity": 0.71,
      "hand": "right"
    },
    {
      "midi": 86,
      "time": 39.429,
      "duration": 0.643,
      "velocity": 0.71,
      "hand": "right"
    },
    {
      "midi": 63,
      "time": 39.643,
      "duration": 0.214,
      "velocity": 0.71,
      "hand": "right"
    },
    {
      "midi": 60,
      "time": 39.857,
      "duration": 0.214,
      "velocity": 0.71,
      "hand": "right"
    },
    {
      "midi": 56,
      "time": 40.071,
      "duration": 0.214,
      "velocity": 0.71,
      "hand": "left"
    },
    {
      "midi": 75,
      "time": 40.071,
      "duration": 0.643,
      "velocity": 0.71,
      "hand": "right"
    },
    {
      "midi": 80,
      "time": 40.071,
      "duration": 0.643,
      "velocity": 0.71,
      "hand": "right"
    },
    {
      "midi": 84,
      "time": 40.071,
      "duration": 0.643,
      "velocity": 0.71,
      "hand": "right"
    },
    {
      "midi": 60,
      "time": 40.286,
      "duration": 0.214,
      "velocity": 0.71,
      "hand": "right"
    },
    {
      "midi": 55,
      "time": 40.5,
      "duration": 0.214,
      "velocity": 0.71,
      "hand": "left"
    },
    {
      "midi": 54,
      "time": 40.714,
      "duration": 0.214,
      "velocity": 0.71,
      "hand": "left"
    },
    {
      "midi": 74,
      "time": 40.714,
      "duration": 0.214,
      "velocity": 0.71,
      "hand": "right"
    },
    {
      "midi": 81,
      "time": 40.714,
      "duration": 0.429,
      "velocity": 0.71,
      "hand": "right"
    },
    {
      "midi": 84,
      "time": 40.714,
      "duration": 0.429,
      "velocity": 0.71,
      "hand": "right"
    },
    {
      "midi": 50,
      "time": 40.929,
      "duration": 0.214,
      "velocity": 0.71,
      "hand": "left"
    },
    {
      "midi": 78,
      "time": 40.929,
      "duration": 0.214,
      "velocity": 0.71,
      "hand": "right"
    },
    {
      "midi": 52,
      "time": 41.143,
      "duration": 0.214,
      "velocity": 0.71,
      "hand": "left"
    },
    {
      "midi": 79,
      "time": 41.143,
      "duration": 0.214,
      "velocity": 0.71,
      "hand": "right"
    },
    {
      "midi": 83,
      "time": 41.143,
      "duration": 0.214,
      "velocity": 0.71,
      "hand": "right"
    },
    {
      "midi": 48,
      "time": 41.357,
      "duration": 0.214,
      "velocity": 0.71,
      "hand": "left"
    },
    {
      "midi": 76,
      "time": 41.357,
      "duration": 0.214,
      "velocity": 0.71,
      "hand": "right"
    },
    {
      "midi": 45,
      "time": 41.571,
      "duration": 0.214,
      "velocity": 0.71,
      "hand": "left"
    },
    {
      "midi": 81,
      "time": 41.571,
      "duration": 0.214,
      "velocity": 0.71,
      "hand": "right"
    },
    {
      "midi": 50,
      "time": 41.786,
      "duration": 0.214,
      "velocity": 0.71,
      "hand": "left"
    },
    {
      "midi": 69,
      "time": 41.786,
      "duration": 0.214,
      "velocity": 0.71,
      "hand": "right"
    },
    {
      "midi": 78,
      "time": 41.786,
      "duration": 0.214,
      "velocity": 0.71,
      "hand": "right"
    },
    {
      "midi": 43,
      "time": 42,
      "duration": 0.643,
      "velocity": 0.71,
      "hand": "left"
    },
    {
      "midi": 55,
      "time": 42,
      "duration": 0.643,
      "velocity": 0.71,
      "hand": "left"
    },
    {
      "midi": 71,
      "time": 42,
      "duration": 0.214,
      "velocity": 0.71,
      "hand": "right"
    },
    {
      "midi": 79,
      "time": 42,
      "duration": 0.214,
      "velocity": 0.71,
      "hand": "right"
    },
    {
      "midi": 83,
      "time": 42.214,
      "duration": 0.214,
      "velocity": 0.71,
      "hand": "right"
    },
    {
      "midi": 73,
      "time": 42.429,
      "duration": 0.214,
      "velocity": 0.71,
      "hand": "right"
    },
    {
      "midi": 76,
      "time": 42.429,
      "duration": 0.214,
      "velocity": 0.71,
      "hand": "right"
    },
    {
      "midi": 79,
      "time": 42.429,
      "duration": 0.214,
      "velocity": 0.71,
      "hand": "right"
    },
    {
      "midi": 43,
      "time": 42.643,
      "duration": 0.643,
      "velocity": 0.71,
      "hand": "left"
    },
    {
      "midi": 55,
      "time": 42.643,
      "duration": 0.643,
      "velocity": 0.71,
      "hand": "left"
    },
    {
      "midi": 74,
      "time": 42.643,
      "duration": 0.214,
      "velocity": 0.71,
      "hand": "right"
    },
    {
      "midi": 78,
      "time": 42.643,
      "duration": 0.214,
      "velocity": 0.71,
      "hand": "right"
    },
    {
      "midi": 86,
      "time": 42.857,
      "duration": 0.214,
      "velocity": 0.71,
      "hand": "right"
    },
    {
      "midi": 71,
      "time": 43.071,
      "duration": 0.214,
      "velocity": 0.71,
      "hand": "right"
    },
    {
      "midi": 74,
      "time": 43.071,
      "duration": 0.214,
      "velocity": 0.71,
      "hand": "right"
    },
    {
      "midi": 77,
      "time": 43.071,
      "duration": 0.214,
      "velocity": 0.71,
      "hand": "right"
    },
    {
      "midi": 43,
      "time": 43.286,
      "duration": 0.643,
      "velocity": 0.71,
      "hand": "left"
    },
    {
      "midi": 55,
      "time": 43.286,
      "duration": 0.643,
      "velocity": 0.71,
      "hand": "left"
    },
    {
      "midi": 72,
      "time": 43.286,
      "duration": 0.214,
      "velocity": 0.71,
      "hand": "right"
    },
    {
      "midi": 76,
      "time": 43.286,
      "duration": 0.214,
      "velocity": 0.71,
      "hand": "right"
    },
    {
      "midi": 84,
      "time": 43.5,
      "duration": 0.214,
      "velocity": 0.71,
      "hand": "right"
    },
    {
      "midi": 66,
      "time": 43.714,
      "duration": 0.214,
      "velocity": 0.71,
      "hand": "right"
    },
    {
      "midi": 72,
      "time": 43.714,
      "duration": 0.214,
      "velocity": 0.71,
      "hand": "right"
    },
    {
      "midi": 75,
      "time": 43.714,
      "duration": 0.214,
      "velocity": 0.71,
      "hand": "right"
    },
    {
      "midi": 43,
      "time": 43.929,
      "duration": 0.643,
      "velocity": 0.71,
      "hand": "left"
    },
    {
      "midi": 55,
      "time": 43.929,
      "duration": 0.643,
      "velocity": 0.71,
      "hand": "left"
    },
    {
      "midi": 67,
      "time": 43.929,
      "duration": 0.214,
      "velocity": 0.71,
      "hand": "right"
    },
    {
      "midi": 71,
      "time": 43.929,
      "duration": 0.214,
      "velocity": 0.71,
      "hand": "right"
    },
    {
      "midi": 74,
      "time": 43.929,
      "duration": 0.214,
      "velocity": 0.71,
      "hand": "right"
    },
    {
      "midi": 83,
      "time": 44.143,
      "duration": 0.214,
      "velocity": 0.71,
      "hand": "right"
    },
    {
      "midi": 65,
      "time": 44.357,
      "duration": 0.214,
      "velocity": 0.71,
      "hand": "right"
    },
    {
      "midi": 68,
      "time": 44.357,
      "duration": 0.214,
      "velocity": 0.71,
      "hand": "right"
    },
    {
      "midi": 74,
      "time": 44.357,
      "duration": 0.214,
      "velocity": 0.71,
      "hand": "right"
    },
    {
      "midi": 43,
      "time": 44.571,
      "duration": 0.643,
      "velocity": 0.71,
      "hand": "left"
    },
    {
      "midi": 55,
      "time": 44.571,
      "duration": 0.643,
      "velocity": 0.71,
      "hand": "left"
    },
    {
      "midi": 64,
      "time": 44.571,
      "duration": 0.214,
      "velocity": 0.71,
      "hand": "right"
    },
    {
      "midi": 69,
      "time": 44.571,
      "duration": 0.214,
      "velocity": 0.71,
      "hand": "right"
    },
    {
      "midi": 73,
      "time": 44.571,
      "duration": 0.214,
      "velocity": 0.71,
      "hand": "right"
    },
    {
      "midi": 81,
      "time": 44.786,
      "duration": 0.214,
      "velocity": 0.71,
      "hand": "right"
    },
    {
      "midi": 63,
      "time": 45,
      "duration": 0.214,
      "velocity": 0.71,
      "hand": "right"
    },
    {
      "midi": 66,
      "time": 45,
      "duration": 0.214,
      "velocity": 0.71,
      "hand": "right"
    },
    {
      "midi": 72,
      "time": 45,
      "duration": 0.214,
      "velocity": 0.71,
      "hand": "right"
    },
    {
      "midi": 43,
      "time": 45.214,
      "duration": 0.214,
      "velocity": 0.71,
      "hand": "left"
    },
    {
      "midi": 55,
      "time": 45.214,
      "duration": 0.214,
      "velocity": 0.71,
      "hand": "left"
    },
    {
      "midi": 62,
      "time": 45.214,
      "duration": 0.214,
      "velocity": 0.71,
      "hand": "right"
    },
    {
      "midi": 67,
      "time": 45.214,
      "duration": 0.214,
      "velocity": 0.71,
      "hand": "right"
    },
    {
      "midi": 71,
      "time": 45.214,
      "duration": 0.214,
      "velocity": 0.71,
      "hand": "right"
    },
    {
      "midi": 79,
      "time": 45.429,
      "duration": 0.214,
      "velocity": 0.71,
      "hand": "right"
    },
    {
      "midi": 39,
      "time": 45.643,
      "duration": 0.214,
      "velocity": 0.71,
      "hand": "left"
    },
    {
      "midi": 51,
      "time": 45.643,
      "duration": 0.214,
      "velocity": 0.71,
      "hand": "left"
    },
    {
      "midi": 63,
      "time": 45.643,
      "duration": 0.214,
      "velocity": 0.71,
      "hand": "right"
    },
    {
      "midi": 40,
      "time": 45.857,
      "duration": 0.214,
      "velocity": 0.71,
      "hand": "left"
    },
    {
      "midi": 52,
      "time": 45.857,
      "duration": 0.214,
      "velocity": 0.71,
      "hand": "left"
    },
    {
      "midi": 64,
      "time": 45.857,
      "duration": 0.214,
      "velocity": 0.71,
      "hand": "right"
    },
    {
      "midi": 55,
      "time": 46.071,
      "duration": 0.214,
      "velocity": 0.71,
      "hand": "left"
    },
    {
      "midi": 67,
      "time": 46.071,
      "duration": 0.214,
      "velocity": 0.71,
      "hand": "right"
    },
    {
      "midi": 38,
      "time": 46.286,
      "duration": 0.214,
      "velocity": 0.71,
      "hand": "left"
    },
    {
      "midi": 50,
      "time": 46.286,
      "duration": 0.214,
      "velocity": 0.71,
      "hand": "left"
    },
    {
      "midi": 62,
      "time": 46.286,
      "duration": 0.214,
      "velocity": 0.71,
      "hand": "right"
    },
    {
      "midi": 37,
      "time": 46.5,
      "duration": 0.214,
      "velocity": 0.71,
      "hand": "left"
    },
    {
      "midi": 49,
      "time": 46.5,
      "duration": 0.214,
      "velocity": 0.71,
      "hand": "left"
    },
    {
      "midi": 61,
      "time": 46.5,
      "duration": 0.214,
      "velocity": 0.71,
      "hand": "right"
    },
    {
      "midi": 69,
      "time": 46.714,
      "duration": 0.214,
      "velocity": 0.71,
      "hand": "right"
    },
    {
      "midi": 36,
      "time": 46.929,
      "duration": 0.214,
      "velocity": 0.71,
      "hand": "left"
    },
    {
      "midi": 48,
      "time": 46.929,
      "duration": 0.214,
      "velocity": 0.71,
      "hand": "left"
    },
    {
      "midi": 60,
      "time": 46.929,
      "duration": 0.214,
      "velocity": 0.71,
      "hand": "right"
    },
    {
      "midi": 35,
      "time": 47.143,
      "duration": 0.214,
      "velocity": 0.71,
      "hand": "left"
    },
    {
      "midi": 47,
      "time": 47.143,
      "duration": 0.214,
      "velocity": 0.71,
      "hand": "left"
    },
    {
      "midi": 59,
      "time": 47.143,
      "duration": 0.214,
      "velocity": 0.71,
      "hand": "left"
    },
    {
      "midi": 43,
      "time": 47.357,
      "duration": 0.214,
      "velocity": 0.71,
      "hand": "left"
    },
    {
      "midi": 55,
      "time": 47.357,
      "duration": 0.214,
      "velocity": 0.71,
      "hand": "left"
    },
    {
      "midi": 67,
      "time": 47.357,
      "duration": 0.214,
      "velocity": 0.71,
      "hand": "right"
    },
    {
      "midi": 40,
      "time": 47.571,
      "duration": 0.214,
      "velocity": 0.71,
      "hand": "left"
    },
    {
      "midi": 52,
      "time": 47.571,
      "duration": 0.214,
      "velocity": 0.71,
      "hand": "left"
    },
    {
      "midi": 64,
      "time": 47.571,
      "duration": 0.214,
      "velocity": 0.71,
      "hand": "right"
    },
    {
      "midi": 36,
      "time": 47.786,
      "duration": 0.214,
      "velocity": 0.71,
      "hand": "left"
    },
    {
      "midi": 48,
      "time": 47.786,
      "duration": 0.214,
      "velocity": 0.71,
      "hand": "left"
    },
    {
      "midi": 60,
      "time": 47.786,
      "duration": 0.214,
      "velocity": 0.71,
      "hand": "right"
    },
    {
      "midi": 33,
      "time": 48,
      "duration": 0.214,
      "velocity": 0.71,
      "hand": "left"
    },
    {
      "midi": 45,
      "time": 48,
      "duration": 0.214,
      "velocity": 0.71,
      "hand": "left"
    },
    {
      "midi": 57,
      "time": 48,
      "duration": 0.214,
      "velocity": 0.71,
      "hand": "left"
    },
    {
      "midi": 38,
      "time": 48.214,
      "duration": 0.214,
      "velocity": 0.71,
      "hand": "left"
    },
    {
      "midi": 50,
      "time": 48.214,
      "duration": 0.214,
      "velocity": 0.71,
      "hand": "left"
    },
    {
      "midi": 69,
      "time": 48.214,
      "duration": 0.214,
      "velocity": 0.71,
      "hand": "right"
    },
    {
      "midi": 74,
      "time": 48.214,
      "duration": 0.214,
      "velocity": 0.71,
      "hand": "right"
    },
    {
      "midi": 78,
      "time": 48.214,
      "duration": 0.214,
      "velocity": 0.71,
      "hand": "right"
    },
    {
      "midi": 31,
      "time": 48.429,
      "duration": 0.429,
      "velocity": 0.71,
      "hand": "left"
    },
    {
      "midi": 43,
      "time": 48.429,
      "duration": 0.429,
      "velocity": 0.71,
      "hand": "left"
    },
    {
      "midi": 71,
      "time": 48.429,
      "duration": 0.429,
      "velocity": 0.71,
      "hand": "right"
    },
    {
      "midi": 74,
      "time": 48.429,
      "duration": 0.429,
      "velocity": 0.71,
      "hand": "right"
    },
    {
      "midi": 79,
      "time": 48.429,
      "duration": 0.429,
      "velocity": 0.71,
      "hand": "right"
    }
  ]
}
