{
  "id": "gloria-gloria-aleluia",
  "title": "Gloria, Gloria, Aleluia",
  "artist": "Julia Ward Howe",
  "difficulty": "Difícil",
  "bpm": 60,
  "duration": 33,
  "category": "Religiosos",
  "isPremium": false,
  "coverUrl": "/images/covers/placeholder.png",
  "notes": [
    {
      "midi": 46,
      "time": 0,
      "duration": 0.235,
      "velocity": 0.79,
      "hand": "left"
    },
    {
      "midi": 58,
      "time": 0,
      "duration": 0.235,
      "velocity": 0.79,
      "hand": "left"
    },
    {
      "midi": 62,
      "time": 0,
      "duration": 0.235,
      "velocity": 0.79,
      "hand": "right"
    },
    {
      "midi": 65,
      "time": 0,
      "duration": 0.235,
      "velocity": 0.79,
      "hand": "right"
    },
    {
      "midi": 46,
      "time": 0.25,
      "duration": 0.485,
      "velocity": 0.79,
      "hand": "left"
    },
    {
      "midi": 58,
      "time": 0.25,
      "duration": 0.485,
      "velocity": 0.79,
      "hand": "left"
    },
    {
      "midi": 62,
      "time": 0.25,
      "duration": 0.485,
      "velocity": 0.79,
      "hand": "right"
    },
    {
      "midi": 65,
      "time": 0.25,
      "duration": 0.485,
      "velocity": 0.79,
      "hand": "right"
    },
    {
      "midi": 46,
      "time": 0.75,
      "duration": 0.485,
      "velocity": 0.79,
      "hand": "left"
    },
    {
      "midi": 58,
      "time": 0.75,
      "duration": 0.485,
      "velocity": 0.79,
      "hand": "left"
    },
    {
      "midi": 62,
      "time": 0.75,
      "duration": 0.485,
      "velocity": 0.79,
      "hand": "right"
    },
    {
      "midi": 65,
      "time": 0.75,
      "duration": 0.5,
      "velocity": 0.79,
      "hand": "right"
    },
    {
      "midi": 46,
      "time": 1.25,
      "duration": 0.485,
      "velocity": 0.79,
      "hand": "left"
    },
    {
      "midi": 58,
      "time": 1.25,
      "duration": 0.485,
      "velocity": 0.79,
      "hand": "left"
    },
    {
      "midi": 60,
      "time": 1.25,
      "duration": 0.25,
      "velocity": 0.79,
      "hand": "right"
    },
    {
      "midi": 63,
      "time": 1.25,
      "duration": 0.25,
      "velocity": 0.79,
      "hand": "right"
    },
    {
      "midi": 46,
      "time": 1.75,
      "duration": 0.485,
      "velocity": 0.79,
      "hand": "left"
    },
    {
      "midi": 58,
      "time": 1.75,
      "duration": 0.485,
      "velocity": 0.79,
      "hand": "left"
    },
    {
      "midi": 62,
      "time": 1.75,
      "duration": 0.5,
      "velocity": 0.79,
      "hand": "right"
    },
    {
      "midi": 65,
      "time": 1.75,
      "duration": 0.25,
      "velocity": 0.79,
      "hand": "right"
    },
    {
      "midi": 70,
      "time": 1.75,
      "duration": 0.5,
      "velocity": 0.79,
      "hand": "right"
    },
    {
      "midi": 46,
      "time": 2.25,
      "duration": 0.485,
      "velocity": 0.79,
      "hand": "left"
    },
    {
      "midi": 58,
      "time": 2.25,
      "duration": 0.485,
      "velocity": 0.79,
      "hand": "left"
    },
    {
      "midi": 63,
      "time": 2.25,
      "duration": 0.25,
      "velocity": 0.79,
      "hand": "right"
    },
    {
      "midi": 65,
      "time": 2.25,
      "duration": 0.485,
      "velocity": 0.79,
      "hand": "right"
    },
    {
      "midi": 72,
      "time": 2.25,
      "duration": 0.25,
      "velocity": 0.79,
      "hand": "right"
    },
    {
      "midi": 74,
      "time": 2.25,
      "duration": 0.485,
      "velocity": 0.79,
      "hand": "right"
    },
    {
      "midi": 46,
      "time": 2.75,
      "duration": 0.485,
      "velocity": 0.79,
      "hand": "left"
    },
    {
      "midi": 58,
      "time": 2.75,
      "duration": 0.485,
      "velocity": 0.79,
      "hand": "left"
    },
    {
      "midi": 65,
      "time": 2.75,
      "duration": 0.5,
      "velocity": 0.79,
      "hand": "right"
    },
    {
      "midi": 74,
      "time": 2.75,
      "duration": 0.5,
      "velocity": 0.79,
      "hand": "right"
    },
    {
      "midi": 46,
      "time": 3.25,
      "duration": 0.5,
      "velocity": 0.79,
      "hand": "left"
    },
    {
      "midi": 58,
      "time": 3.25,
      "duration": 0.5,
      "velocity": 0.79,
      "hand": "left"
    },
    {
      "midi": 63,
      "time": 3.25,
      "duration": 0.25,
      "velocity": 0.79,
      "hand": "right"
    },
    {
      "midi": 70,
      "time": 3.25,
      "duration": 0.5,
      "velocity": 0.79,
      "hand": "right"
    },
    {
      "midi": 72,
      "time": 3.25,
      "duration": 0.25,
      "velocity": 0.79,
      "hand": "right"
    },
    {
      "midi": 46,
      "time": 4,
      "duration": 0.235,
      "velocity": 0.79,
      "hand": "left"
    },
    {
      "midi": 58,
      "time": 4,
      "duration": 0.235,
      "velocity": 0.79,
      "hand": "left"
    },
    {
      "midi": 62,
      "time": 4,
      "duration": 0.235,
      "velocity": 0.79,
      "hand": "right"
    },
    {
      "midi": 70,
      "time": 4,
      "duration": 0.235,
      "velocity": 0.79,
      "hand": "right"
    },
    {
      "midi": 46,
      "time": 4.25,
      "duration": 0.25,
      "velocity": 0.79,
      "hand": "left"
    },
    {
      "midi": 51,
      "time": 4.25,
      "duration": 0.485,
      "velocity": 0.79,
      "hand": "left"
    },
    {
      "midi": 63,
      "time": 4.25,
      "duration": 0.485,
      "velocity": 0.79,
      "hand": "right"
    },
    {
      "midi": 67,
      "time": 4.25,
      "duration": 0.485,
      "velocity": 0.79,
      "hand": "right"
    },
    {
      "midi": 70,
      "time": 4.25,
      "duration": 0.25,
      "velocity": 0.79,
      "hand": "right"
    },
    {
      "midi": 51,
      "time": 4.75,
      "duration": 0.485,
      "velocity": 0.79,
      "hand": "left"
    },
    {
      "midi": 58,
      "time": 4.75,
      "duration": 0.485,
      "velocity": 0.79,
      "hand": "left"
    },
    {
      "midi": 63,
      "time": 4.75,
      "duration": 0.5,
      "velocity": 0.79,
      "hand": "right"
    },
    {
      "midi": 67,
      "time": 4.75,
      "duration": 0.485,
      "velocity": 0.79,
      "hand": "right"
    },
    {
      "midi": 51,
      "time": 5.25,
      "duration": 0.485,
      "velocity": 0.79,
      "hand": "left"
    },
    {
      "midi": 58,
      "time": 5.25,
      "duration": 0.485,
      "velocity": 0.79,
      "hand": "left"
    },
    {
      "midi": 65,
      "time": 5.25,
      "duration": 0.25,
      "velocity": 0.79,
      "hand": "right"
    },
    {
      "midi": 67,
      "time": 5.25,
      "duration": 0.485,
      "velocity": 0.79,
      "hand": "right"
    },
    {
      "midi": 70,
      "time": 5.25,
      "duration": 0.485,
      "velocity": 0.79,
      "hand": "right"
    },
    {
      "midi": 51,
      "time": 5.75,
      "duration": 0.485,
      "velocity": 0.79,
      "hand": "left"
    },
    {
      "midi": 58,
      "time": 5.75,
      "duration": 0.485,
      "velocity": 0.79,
      "hand": "left"
    },
    {
      "midi": 65,
      "time": 5.75,
      "duration": 0.25,
      "velocity": 0.79,
      "hand": "right"
    },
    {
      "midi": 67,
      "time": 5.75,
      "duration": 0.485,
      "velocity": 0.79,
      "hand": "right"
    },
    {
      "midi": 70,
      "time": 5.75,
      "duration": 0.5,
      "velocity": 0.79,
      "hand": "right"
    },
    {
      "midi": 46,
      "time": 6.25,
      "duration": 0.485,
      "velocity": 0.79,
      "hand": "left"
    },
    {
      "midi": 51,
      "time": 6.25,
      "duration": 0.25,
      "velocity": 0.79,
      "hand": "left"
    },
    {
      "midi": 63,
      "time": 6.25,
      "duration": 0.25,
      "velocity": 0.79,
      "hand": "right"
    },
    {
      "midi": 65,
      "time": 6.25,
      "duration": 0.485,
      "velocity": 0.79,
      "hand": "right"
    },
    {
      "midi": 67,
      "time": 6.25,
      "duration": 0.25,
      "velocity": 0.79,
      "hand": "right"
    },
    {
      "midi": 46,
      "time": 6.75,
      "duration": 0.485,
      "velocity": 0.79,
      "hand": "left"
    },
    {
      "midi": 58,
      "time": 6.75,
      "duration": 0.485,
      "velocity": 0.79,
      "hand": "left"
    },
    {
      "midi": 63,
      "time": 6.75,
      "duration": 0.25,
      "velocity": 0.79,
      "hand": "right"
    },
    {
      "midi": 65,
      "time": 6.75,
      "duration": 0.485,
      "velocity": 0.79,
      "hand": "right"
    },
    {
      "midi": 67,
      "time": 6.75,
      "duration": 0.25,
      "velocity": 0.79,
      "hand": "right"
    },
    {
      "midi": 46,
      "time": 7.25,
      "duration": 0.5,
      "velocity": 0.79,
      "hand": "left"
    },
    {
      "midi": 58,
      "time": 7.25,
      "duration": 0.5,
      "velocity": 0.79,
      "hand": "left"
    },
    {
      "midi": 62,
      "time": 7.25,
      "duration": 0.5,
      "velocity": 0.79,
      "hand": "right"
    },
    {
      "midi": 65,
      "time": 7.25,
      "duration": 0.5,
      "velocity": 0.79,
      "hand": "right"
    },
    {
      "midi": 46,
      "time": 8,
      "duration": 0.235,
      "velocity": 0.79,
      "hand": "left"
    },
    {
      "midi": 58,
      "time": 8,
      "duration": 0.235,
      "velocity": 0.79,
      "hand": "left"
    },
    {
      "midi": 62,
      "time": 8,
      "duration": 0.235,
      "velocity": 0.79,
      "hand": "right"
    },
    {
      "midi": 65,
      "time": 8,
      "duration": 0.235,
      "velocity": 0.79,
      "hand": "right"
    },
    {
      "midi": 46,
      "time": 8.25,
      "duration": 0.485,
      "velocity": 0.79,
      "hand": "left"
    },
    {
      "midi": 58,
      "time": 8.25,
      "duration": 0.485,
      "velocity": 0.79,
      "hand": "left"
    },
    {
      "midi": 62,
      "time": 8.25,
      "duration": 0.485,
      "velocity": 0.79,
      "hand": "right"
    },
    {
      "midi": 65,
      "time": 8.25,
      "duration": 0.485,
      "velocity": 0.79,
      "hand": "right"
    },
    {
      "midi": 46,
      "time": 8.75,
      "duration": 0.485,
      "velocity": 0.79,
      "hand": "left"
    },
    {
      "midi": 58,
      "time": 8.75,
      "duration": 0.485,
      "velocity": 0.79,
      "hand": "left"
    },
    {
      "midi": 62,
      "time": 8.75,
      "duration": 0.485,
      "velocity": 0.79,
      "hand": "right"
    },
    {
      "midi": 65,
      "time": 8.75,
      "duration": 0.5,
      "velocity": 0.79,
      "hand": "right"
    },
    {
      "midi": 46,
      "time": 9.25,
      "duration": 0.485,
      "velocity": 0.79,
      "hand": "left"
    },
    {
      "midi": 58,
      "time": 9.25,
      "duration": 0.485,
      "velocity": 0.79,
      "hand": "left"
    },
    {
      "midi": 60,
      "time": 9.25,
      "duration": 0.25,
      "velocity": 0.79,
      "hand": "right"
    },
    {
      "midi": 63,
      "time": 9.25,
      "duration": 0.25,
      "velocity": 0.79,
      "hand": "right"
    },
    {
      "midi": 46,
      "time": 9.75,
      "duration": 0.485,
      "velocity": 0.79,
      "hand": "left"
    },
    {
      "midi": 58,
      "time": 9.75,
      "duration": 0.485,
      "velocity": 0.79,
      "hand": "left"
    },
    {
      "midi": 62,
      "time": 9.75,
      "duration": 0.5,
      "velocity": 0.79,
      "hand": "right"
    },
    {
      "midi": 65,
      "time": 9.75,
      "duration": 0.25,
      "velocity": 0.79,
      "hand": "right"
    },
    {
      "midi": 70,
      "time": 9.75,
      "duration": 0.5,
      "velocity": 0.79,
      "hand": "right"
    },
    {
      "midi": 46,
      "time": 10.25,
      "duration": 0.485,
      "velocity": 0.79,
      "hand": "left"
    },
    {
      "midi": 58,
      "time": 10.25,
      "duration": 0.485,
      "velocity": 0.79,
      "hand": "left"
    },
    {
      "midi": 63,
      "time": 10.25,
      "duration": 0.25,
      "velocity": 0.79,
      "hand": "right"
    },
    {
      "midi": 65,
      "time": 10.25,
      "duration": 0.485,
      "velocity": 0.79,
      "hand": "right"
    },
    {
      "midi": 72,
      "time": 10.25,
      "duration": 0.25,
      "velocity": 0.79,
      "hand": "right"
    },
    {
      "midi": 74,
      "time": 10.25,
      "duration": 0.485,
      "velocity": 0.79,
      "hand": "right"
    },
    {
      "midi": 46,
      "time": 10.75,
      "duration": 0.485,
      "velocity": 0.79,
      "hand": "left"
    },
    {
      "midi": 58,
      "time": 10.75,
      "duration": 0.485,
      "velocity": 0.79,
      "hand": "left"
    },
    {
      "midi": 65,
      "time": 10.75,
      "duration": 0.5,
      "velocity": 0.79,
      "hand": "right"
    },
    {
      "midi": 74,
      "time": 10.75,
      "duration": 0.5,
      "velocity": 0.79,
      "hand": "right"
    },
    {
      "midi": 46,
      "time": 11.25,
      "duration": 0.5,
      "velocity": 0.79,
      "hand": "left"
    },
    {
      "midi": 58,
      "time": 11.25,
      "duration": 0.5,
      "velocity": 0.79,
      "hand": "left"
    },
    {
      "midi": 63,
      "time": 11.25,
      "duration": 0.25,
      "velocity": 0.79,
      "hand": "right"
    },
    {
      "midi": 70,
      "time": 11.25,
      "duration": 0.5,
      "velocity": 0.79,
      "hand": "right"
    },
    {
      "midi": 72,
      "time": 11.25,
      "duration": 0.25,
      "velocity": 0.79,
      "hand": "right"
    },
    {
      "midi": 46,
      "time": 12,
      "duration": 0.25,
      "velocity": 0.79,
      "hand": "left"
    },
    {
      "midi": 62,
      "time": 12,
      "duration": 0.25,
      "velocity": 0.79,
      "hand": "right"
    },
    {
      "midi": 65,
      "time": 12,
      "duration": 0.25,
      "velocity": 0.79,
      "hand": "right"
    },
    {
      "midi": 70,
      "time": 12,
      "duration": 0.25,
      "velocity": 0.79,
      "hand": "right"
    },
    {
      "midi": 51,
      "time": 12.25,
      "duration": 0.485,
      "velocity": 0.79,
      "hand": "left"
    },
    {
      "midi": 63,
      "time": 12.25,
      "duration": 0.485,
      "velocity": 0.79,
      "hand": "right"
    },
    {
      "midi": 67,
      "time": 12.25,
      "duration": 0.485,
      "velocity": 0.79,
      "hand": "right"
    },
    {
      "midi": 72,
      "time": 12.25,
      "duration": 0.485,
      "velocity": 0.79,
      "hand": "right"
    },
    {
      "midi": 51,
      "time": 12.75,
      "duration": 0.5,
      "velocity": 0.79,
      "hand": "left"
    },
    {
      "midi": 63,
      "time": 12.75,
      "duration": 0.5,
      "velocity": 0.79,
      "hand": "right"
    },
    {
      "midi": 67,
      "time": 12.75,
      "duration": 0.5,
      "velocity": 0.79,
      "hand": "right"
    },
    {
      "midi": 72,
      "time": 12.75,
      "duration": 0.5,
      "velocity": 0.79,
      "hand": "right"
    },
    {
      "midi": 53,
      "time": 13.25,
      "duration": 0.485,
      "velocity": 0.79,
      "hand": "left"
    },
    {
      "midi": 62,
      "time": 13.25,
      "duration": 0.5,
      "velocity": 0.79,
      "hand": "right"
    },
    {
      "midi": 65,
      "time": 13.25,
      "duration": 0.5,
      "velocity": 0.79,
      "hand": "right"
    },
    {
      "midi": 70,
      "time": 13.25,
      "duration": 0.5,
      "velocity": 0.79,
      "hand": "right"
    },
    {
      "midi": 53,
      "time": 13.75,
      "duration": 0.5,
      "velocity": 0.79,
      "hand": "left"
    },
    {
      "midi": 60,
      "time": 13.75,
      "duration": 0.5,
      "velocity": 0.79,
      "hand": "right"
    },
    {
      "midi": 63,
      "time": 13.75,
      "duration": 0.5,
      "velocity": 0.79,
      "hand": "right"
    },
    {
      "midi": 69,
      "time": 13.75,
      "duration": 0.5,
      "velocity": 0.79,
      "hand": "right"
    },
    {
      "midi": 46,
      "time": 14.25,
      "duration": 1,
      "velocity": 0.79,
      "hand": "left"
    },
    {
      "midi": 58,
      "time": 14.25,
      "duration": 1,
      "velocity": 0.79,
      "hand": "left"
    },
    {
      "midi": 62,
      "time": 14.25,
      "duration": 1,
      "velocity": 0.79,
      "hand": "right"
    },
    {
      "midi": 70,
      "time": 14.25,
      "duration": 1,
      "velocity": 0.79,
      "hand": "right"
    },
    {
      "midi": 46,
      "time": 16.25,
      "duration": 0.735,
      "velocity": 0.79,
      "hand": "left"
    },
    {
      "midi": 58,
      "time": 16.25,
      "duration": 0.735,
      "velocity": 0.79,
      "hand": "left"
    },
    {
      "midi": 62,
      "time": 16.25,
      "duration": 0.75,
      "velocity": 0.79,
      "hand": "right"
    },
    {
      "midi": 65,
      "time": 16.25,
      "duration": 0.75,
      "velocity": 0.79,
      "hand": "right"
    },
    {
      "midi": 46,
      "time": 17,
      "duration": 0.235,
      "velocity": 0.79,
      "hand": "left"
    },
    {
      "midi": 58,
      "time": 17,
      "duration": 0.235,
      "velocity": 0.79,
      "hand": "left"
    },
    {
      "midi": 60,
      "time": 17,
      "duration": 0.25,
      "velocity": 0.79,
      "hand": "right"
    },
    {
      "midi": 63,
      "time": 17,
      "duration": 0.25,
      "velocity": 0.79,
      "hand": "right"
    },
    {
      "midi": 46,
      "time": 17.25,
      "duration": 0.485,
      "velocity": 0.79,
      "hand": "left"
    },
    {
      "midi": 58,
      "time": 17.25,
      "duration": 0.485,
      "velocity": 0.79,
      "hand": "left"
    },
    {
      "midi": 62,
      "time": 17.25,
      "duration": 0.485,
      "velocity": 0.79,
      "hand": "right"
    },
    {
      "midi": 46,
      "time": 17.75,
      "duration": 0.485,
      "velocity": 0.79,
      "hand": "left"
    },
    {
      "midi": 58,
      "time": 17.75,
      "duration": 0.485,
      "velocity": 0.79,
      "hand": "left"
    },
    {
      "midi": 62,
      "time": 17.75,
      "duration": 0.5,
      "velocity": 0.79,
      "hand": "right"
    },
    {
      "midi": 65,
      "time": 17.75,
      "duration": 0.25,
      "velocity": 0.79,
      "hand": "right"
    },
    {
      "midi": 70,
      "time": 17.75,
      "duration": 0.5,
      "velocity": 0.79,
      "hand": "right"
    },
    {
      "midi": 46,
      "time": 18.25,
      "duration": 0.985,
      "velocity": 0.79,
      "hand": "left"
    },
    {
      "midi": 58,
      "time": 18.25,
      "duration": 0.985,
      "velocity": 0.79,
      "hand": "left"
    },
    {
      "midi": 63,
      "time": 18.25,
      "duration": 0.25,
      "velocity": 0.79,
      "hand": "right"
    },
    {
      "midi": 65,
      "time": 18.25,
      "duration": 1,
      "velocity": 0.79,
      "hand": "right"
    },
    {
      "midi": 72,
      "time": 18.25,
      "duration": 0.25,
      "velocity": 0.79,
      "hand": "right"
    },
    {
      "midi": 74,
      "time": 18.25,
      "duration": 1,
      "velocity": 0.79,
      "hand": "right"
    },
    {
      "midi": 46,
      "time": 19.25,
      "duration": 0.5,
      "velocity": 0.79,
      "hand": "left"
    },
    {
      "midi": 58,
      "time": 19.25,
      "duration": 0.5,
      "velocity": 0.79,
      "hand": "left"
    },
    {
      "midi": 62,
      "time": 19.25,
      "duration": 0.5,
      "velocity": 0.79,
      "hand": "right"
    },
    {
      "midi": 70,
      "time": 19.25,
      "duration": 0.5,
      "velocity": 0.79,
      "hand": "right"
    },
    {
      "midi": 51,
      "time": 20.25,
      "duration": 0.735,
      "velocity": 0.79,
      "hand": "left"
    },
    {
      "midi": 58,
      "time": 20.25,
      "duration": 0.735,
      "velocity": 0.79,
      "hand": "left"
    },
    {
      "midi": 63,
      "time": 20.25,
      "duration": 0.75,
      "velocity": 0.79,
      "hand": "right"
    },
    {
      "midi": 67,
      "time": 20.25,
      "duration": 0.75,
      "velocity": 0.79,
      "hand": "right"
    },
    {
      "midi": 51,
      "time": 21,
      "duration": 0.235,
      "velocity": 0.79,
      "hand": "left"
    },
    {
      "midi": 58,
      "time": 21,
      "duration": 0.235,
      "velocity": 0.79,
      "hand": "left"
    },
    {
      "midi": 65,
      "time": 21,
      "duration": 0.25,
      "velocity": 0.79,
      "hand": "right"
    },
    {
      "midi": 69,
      "time": 21,
      "duration": 0.25,
      "velocity": 0.79,
      "hand": "right"
    },
    {
      "midi": 51,
      "time": 21.25,
      "duration": 0.485,
      "velocity": 0.79,
      "hand": "left"
    },
    {
      "midi": 58,
      "time": 21.25,
      "duration": 0.485,
      "velocity": 0.79,
      "hand": "left"
    },
    {
      "midi": 67,
      "time": 21.25,
      "duration": 0.485,
      "velocity": 0.79,
      "hand": "right"
    },
    {
      "midi": 70,
      "time": 21.25,
      "duration": 0.485,
      "velocity": 0.79,
      "hand": "right"
    },
    {
      "midi": 51,
      "time": 21.75,
      "duration": 0.485,
      "velocity": 0.79,
      "hand": "left"
    },
    {
      "midi": 58,
      "time": 21.75,
      "duration": 0.485,
      "velocity": 0.79,
      "hand": "left"
    },
    {
      "midi": 65,
      "time": 21.75,
      "duration": 0.25,
      "velocity": 0.79,
      "hand": "right"
    },
    {
      "midi": 67,
      "time": 21.75,
      "duration": 0.485,
      "velocity": 0.79,
      "hand": "right"
    },
    {
      "midi": 70,
      "time": 21.75,
      "duration": 0.5,
      "velocity": 0.79,
      "hand": "right"
    },
    {
      "midi": 46,
      "time": 22.25,
      "duration": 0.985,
      "velocity": 0.79,
      "hand": "left"
    },
    {
      "midi": 51,
      "time": 22.25,
      "duration": 0.25,
      "velocity": 0.79,
      "hand": "left"
    },
    {
      "midi": 63,
      "time": 22.25,
      "duration": 0.25,
      "velocity": 0.79,
      "hand": "right"
    },
    {
      "midi": 65,
      "time": 22.25,
      "duration": 1,
      "velocity": 0.79,
      "hand": "right"
    },
    {
      "midi": 67,
      "time": 22.25,
      "duration": 0.25,
      "velocity": 0.79,
      "hand": "right"
    },
    {
      "midi": 46,
      "time": 23.25,
      "duration": 0.5,
      "velocity": 0.79,
      "hand": "left"
    },
    {
      "midi": 53,
      "time": 23.25,
      "duration": 0.5,
      "velocity": 0.79,
      "hand": "left"
    },
    {
      "midi": 62,
      "time": 23.25,
      "duration": 0.5,
      "velocity": 0.79,
      "hand": "right"
    },
    {
      "midi": 46,
      "time": 24.25,
      "duration": 0.735,
      "velocity": 0.79,
      "hand": "left"
    },
    {
      "midi": 58,
      "time": 24.25,
      "duration": 0.735,
      "velocity": 0.79,
      "hand": "left"
    },
    {
      "midi": 62,
      "time": 24.25,
      "duration": 0.75,
      "velocity": 0.79,
      "hand": "right"
    },
    {
      "midi": 65,
      "time": 24.25,
      "duration": 0.75,
      "velocity": 0.79,
      "hand": "right"
    },
    {
      "midi": 46,
      "time": 25,
      "duration": 0.235,
      "velocity": 0.79,
      "hand": "left"
    },
    {
      "midi": 58,
      "time": 25,
      "duration": 0.235,
      "velocity": 0.79,
      "hand": "left"
    },
    {
      "midi": 60,
      "time": 25,
      "duration": 0.25,
      "velocity": 0.79,
      "hand": "right"
    },
    {
      "midi": 63,
      "time": 25,
      "duration": 0.25,
      "velocity": 0.79,
      "hand": "right"
    },
    {
      "midi": 46,
      "time": 25.25,
      "duration": 0.485,
      "velocity": 0.79,
      "hand": "left"
    },
    {
      "midi": 58,
      "time": 25.25,
      "duration": 0.485,
      "velocity": 0.79,
      "hand": "left"
    },
    {
      "midi": 62,
      "time": 25.25,
      "duration": 0.485,
      "velocity": 0.79,
      "hand": "right"
    },
    {
      "midi": 46,
      "time": 25.75,
      "duration": 0.485,
      "velocity": 0.79,
      "hand": "left"
    },
    {
      "midi": 58,
      "time": 25.75,
      "duration": 0.485,
      "velocity": 0.79,
      "hand": "left"
    },
    {
      "midi": 62,
      "time": 25.75,
      "duration": 0.5,
      "velocity": 0.79,
      "hand": "right"
    },
    {
      "midi": 65,
      "time": 25.75,
      "duration": 0.25,
      "velocity": 0.79,
      "hand": "right"
    },
    {
      "midi": 70,
      "time": 25.75,
      "duration": 0.5,
      "velocity": 0.79,
      "hand": "right"
    },
    {
      "midi": 46,
      "time": 26.25,
      "duration": 0.985,
      "velocity": 0.79,
      "hand": "left"
    },
    {
      "midi": 58,
      "time": 26.25,
      "duration": 0.985,
      "velocity": 0.79,
      "hand": "left"
    },
    {
      "midi": 63,
      "time": 26.25,
      "duration": 0.25,
      "velocity": 0.79,
      "hand": "right"
    },
    {
      "midi": 65,
      "time": 26.25,
      "duration": 1,
      "velocity": 0.79,
      "hand": "right"
    },
    {
      "midi": 72,
      "time": 26.25,
      "duration": 0.25,
      "velocity": 0.79,
      "hand": "right"
    },
    {
      "midi": 74,
      "time": 26.25,
      "duration": 1,
      "velocity": 0.79,
      "hand": "right"
    },
    {
      "midi": 46,
      "time": 27.25,
      "duration": 0.5,
      "velocity": 0.79,
      "hand": "left"
    },
    {
      "midi": 58,
      "time": 27.25,
      "duration": 0.5,
      "velocity": 0.79,
      "hand": "left"
    },
    {
      "midi": 62,
      "time": 27.25,
      "duration": 0.5,
      "velocity": 0.79,
      "hand": "right"
    },
    {
      "midi": 70,
      "time": 27.25,
      "duration": 0.5,
      "velocity": 0.79,
      "hand": "right"
    },
    {
      "midi": 46,
      "time": 28,
      "duration": 0.25,
      "velocity": 0.79,
      "hand": "left"
    },
    {
      "midi": 62,
      "time": 28,
      "duration": 0.25,
      "velocity": 0.79,
      "hand": "right"
    },
    {
      "midi": 65,
      "time": 28,
      "duration": 0.25,
      "velocity": 0.79,
      "hand": "right"
    },
    {
      "midi": 70,
      "time": 28,
      "duration": 0.25,
      "velocity": 0.79,
      "hand": "right"
    },
    {
      "midi": 51,
      "time": 28.25,
      "duration": 0.485,
      "velocity": 0.79,
      "hand": "left"
    },
    {
      "midi": 63,
      "time": 28.25,
      "duration": 0.485,
      "velocity": 0.79,
      "hand": "right"
    },
    {
      "midi": 67,
      "time": 28.25,
      "duration": 0.485,
      "velocity": 0.79,
      "hand": "right"
    },
    {
      "midi": 72,
      "time": 28.25,
      "duration": 0.485,
      "velocity": 0.79,
      "hand": "right"
    },
    {
      "midi": 51,
      "time": 28.75,
      "duration": 0.5,
      "velocity": 0.79,
      "hand": "left"
    },
    {
      "midi": 63,
      "time": 28.75,
      "duration": 0.5,
      "velocity": 0.79,
      "hand": "right"
    },
    {
      "midi": 67,
      "time": 28.75,
      "duration": 0.5,
      "velocity": 0.79,
      "hand": "right"
    },
    {
      "midi": 72,
      "time": 28.75,
      "duration": 0.5,
      "velocity": 0.79,
      "hand": "right"
    },
    {
      "midi": 53,
      "time": 29.25,
      "duration": 0.485,
      "velocity": 0.79,
      "hand": "left"
    },
    {
      "midi": 62,
      "time": 29.25,
      "duration": 0.5,
      "velocity": 0.79,
      "hand": "right"
    },
    {
      "midi": 65,
      "time": 29.25,
      "duration": 0.5,
      "velocity": 0.79,
      "hand": "right"
    },
    {
      "midi": 70,
      "time": 29.25,
      "duration": 0.5,
      "velocity": 0.79,
      "hand": "right"
    },
    {
      "midi": 53,
      "time": 29.75,
      "duration": 0.5,
      "velocity": 0.79,
      "hand": "left"
    },
    {
      "midi": 60,
      "time": 29.75,
      "duration": 0.5,
      "velocity": 0.79,
      "hand": "right"
    },
    {
      "midi": 63,
      "time": 29.75,
      "duration": 0.5,
      "velocity": 0.79,
      "hand": "right"
    },
    {
      "midi": 69,
      "time": 29.75,
      "duration": 0.5,
      "velocity": 0.79,
      "hand": "right"
    },
    {
      "midi": 46,
      "time": 30.25,
      "duration": 1,
      "velocity": 0.79,
      "hand": "left"
    },
    {
      "midi": 58,
      "time": 30.25,
      "duration": 1,
      "velocity": 0.79,
      "hand": "left"
    },
    {
      "midi": 62,
      "time": 30.25,
      "duration": 1,
      "velocity": 0.79,
      "hand": "right"
    },
    {
      "midi": 70,
      "time": 30.25,
      "duration": 1,
      "velocity": 0.79,
      "hand": "right"
    }
  ],
  "arrangements": {
    "easy": [
      {
        "midi": 65,
        "time": 0,
        "duration": 0.6,
        "velocity": 0.79,
        "hand": "right"
      },
      {
        "midi": 63,
        "time": 1.25,
        "duration": 0.6,
        "velocity": 0.79,
        "hand": "right"
      },
      {
        "midi": 74,
        "time": 2.25,
        "duration": 0.6,
        "velocity": 0.79,
        "hand": "right"
      },
      {
        "midi": 72,
        "time": 3.25,
        "duration": 0.6,
        "velocity": 0.79,
        "hand": "right"
      },
      {
        "midi": 70,
        "time": 4.25,
        "duration": 0.6,
        "velocity": 0.79,
        "hand": "right"
      },
      {
        "midi": 70,
        "time": 5.25,
        "duration": 0.6,
        "velocity": 0.79,
        "hand": "right"
      },
      {
        "midi": 67,
        "time": 6.25,
        "duration": 0.6,
        "velocity": 0.79,
        "hand": "right"
      },
      {
        "midi": 65,
        "time": 7.25,
        "duration": 0.6,
        "velocity": 0.79,
        "hand": "right"
      },
      {
        "midi": 65,
        "time": 8.25,
        "duration": 0.6,
        "velocity": 0.79,
        "hand": "right"
      },
      {
        "midi": 63,
        "time": 9.25,
        "duration": 0.6,
        "velocity": 0.79,
        "hand": "right"
      },
      {
        "midi": 74,
        "time": 10.25,
        "duration": 0.6,
        "velocity": 0.79,
        "hand": "right"
      },
      {
        "midi": 72,
        "time": 11.25,
        "duration": 0.6,
        "velocity": 0.79,
        "hand": "right"
      },
      {
        "midi": 72,
        "time": 12.25,
        "duration": 0.6,
        "velocity": 0.79,
        "hand": "right"
      },
      {
        "midi": 70,
        "time": 13.25,
        "duration": 0.6,
        "velocity": 0.79,
        "hand": "right"
      },
      {
        "midi": 70,
        "time": 14.25,
        "duration": 1,
        "velocity": 0.79,
        "hand": "right"
      },
      {
        "midi": 65,
        "time": 16.25,
        "duration": 0.75,
        "velocity": 0.79,
        "hand": "right"
      },
      {
        "midi": 62,
        "time": 17.25,
        "duration": 0.6,
        "velocity": 0.79,
        "hand": "right"
      },
      {
        "midi": 74,
        "time": 18.25,
        "duration": 1,
        "velocity": 0.79,
        "hand": "right"
      },
      {
        "midi": 70,
        "time": 19.25,
        "duration": 0.6,
        "velocity": 0.79,
        "hand": "right"
      },
      {
        "midi": 67,
        "time": 20.25,
        "duration": 0.75,
        "velocity": 0.79,
        "hand": "right"
      },
      {
        "midi": 70,
        "time": 21.25,
        "duration": 0.6,
        "velocity": 0.79,
        "hand": "right"
      },
      {
        "midi": 67,
        "time": 22.25,
        "duration": 0.6,
        "velocity": 0.79,
        "hand": "right"
      },
      {
        "midi": 62,
        "time": 23.25,
        "duration": 0.6,
        "velocity": 0.79,
        "hand": "right"
      },
      {
        "midi": 65,
        "time": 24.25,
        "duration": 0.75,
        "velocity": 0.79,
        "hand": "right"
      },
      {
        "midi": 62,
        "time": 25.25,
        "duration": 0.6,
        "velocity": 0.79,
        "hand": "right"
      },
      {
        "midi": 74,
        "time": 26.25,
        "duration": 1,
        "velocity": 0.79,
        "hand": "right"
      },
      {
        "midi": 70,
        "time": 27.25,
        "duration": 0.6,
        "velocity": 0.79,
        "hand": "right"
      },
      {
        "midi": 72,
        "time": 28.25,
        "duration": 0.6,
        "velocity": 0.79,
        "hand": "right"
      },
      {
        "midi": 70,
        "time": 29.25,
        "duration": 0.6,
        "velocity": 0.79,
        "hand": "right"
      },
      {
        "midi": 70,
        "time": 30.25,
        "duration": 1,
        "velocity": 0.79,
        "hand": "right"
      }
    ],
    "medium": [
      {
        "midi": 58,
        "time": 0,
        "duration": 0.35,
        "velocity": 0.79,
        "hand": "left"
      },
      {
        "midi": 65,
        "time": 0,
        "duration": 0.35,
        "velocity": 0.79,
        "hand": "right"
      },
      {
        "midi": 58,
        "time": 0.75,
        "duration": 0.485,
        "velocity": 0.79,
        "hand": "left"
      },
      {
        "midi": 65,
        "time": 0.75,
        "duration": 0.5,
        "velocity": 0.79,
        "hand": "right"
      },
      {
        "midi": 58,
        "time": 1.75,
        "duration": 0.485,
        "velocity": 0.79,
        "hand": "left"
      },
      {
        "midi": 70,
        "time": 1.75,
        "duration": 0.5,
        "velocity": 0.79,
        "hand": "right"
      },
      {
        "midi": 58,
        "time": 2.75,
        "duration": 0.485,
        "velocity": 0.79,
        "hand": "left"
      },
      {
        "midi": 74,
        "time": 2.75,
        "duration": 0.5,
        "velocity": 0.79,
        "hand": "right"
      },
      {
        "midi": 58,
        "time": 4,
        "duration": 0.35,
        "velocity": 0.79,
        "hand": "left"
      },
      {
        "midi": 70,
        "time": 4,
        "duration": 0.35,
        "velocity": 0.79,
        "hand": "right"
      },
      {
        "midi": 51,
        "time": 4.75,
        "duration": 0.485,
        "velocity": 0.79,
        "hand": "left"
      },
      {
        "midi": 67,
        "time": 4.75,
        "duration": 0.485,
        "velocity": 0.79,
        "hand": "right"
      },
      {
        "midi": 70,
        "time": 5.75,
        "duration": 0.5,
        "velocity": 0.79,
        "hand": "right"
      },
      {
        "midi": 58,
        "time": 6.75,
        "duration": 0.485,
        "velocity": 0.79,
        "hand": "left"
      },
      {
        "midi": 67,
        "time": 6.75,
        "duration": 0.35,
        "velocity": 0.79,
        "hand": "right"
      },
      {
        "midi": 58,
        "time": 8,
        "duration": 0.35,
        "velocity": 0.79,
        "hand": "left"
      },
      {
        "midi": 65,
        "time": 8,
        "duration": 0.35,
        "velocity": 0.79,
        "hand": "right"
      },
      {
        "midi": 58,
        "time": 8.75,
        "duration": 0.485,
        "velocity": 0.79,
        "hand": "left"
      },
      {
        "midi": 65,
        "time": 8.75,
        "duration": 0.5,
        "velocity": 0.79,
        "hand": "right"
      },
      {
        "midi": 58,
        "time": 9.75,
        "duration": 0.485,
        "velocity": 0.79,
        "hand": "left"
      },
      {
        "midi": 70,
        "time": 9.75,
        "duration": 0.5,
        "velocity": 0.79,
        "hand": "right"
      },
      {
        "midi": 58,
        "time": 10.75,
        "duration": 0.485,
        "velocity": 0.79,
        "hand": "left"
      },
      {
        "midi": 74,
        "time": 10.75,
        "duration": 0.5,
        "velocity": 0.79,
        "hand": "right"
      },
      {
        "midi": 58,
        "time": 12,
        "duration": 0.35,
        "velocity": 0.79,
        "hand": "left"
      },
      {
        "midi": 70,
        "time": 12,
        "duration": 0.35,
        "velocity": 0.79,
        "hand": "right"
      },
      {
        "midi": 72,
        "time": 12.75,
        "duration": 0.5,
        "velocity": 0.79,
        "hand": "right"
      },
      {
        "midi": 53,
        "time": 13.75,
        "duration": 0.5,
        "velocity": 0.79,
        "hand": "left"
      },
      {
        "midi": 69,
        "time": 13.75,
        "duration": 0.5,
        "velocity": 0.79,
        "hand": "right"
      },
      {
        "midi": 58,
        "time": 16.25,
        "duration": 0.735,
        "velocity": 0.79,
        "hand": "left"
      },
      {
        "midi": 65,
        "time": 16.25,
        "duration": 0.75,
        "velocity": 0.79,
        "hand": "right"
      },
      {
        "midi": 58,
        "time": 17,
        "duration": 0.35,
        "velocity": 0.79,
        "hand": "left"
      },
      {
        "midi": 63,
        "time": 17,
        "duration": 0.35,
        "velocity": 0.79,
        "hand": "right"
      },
      {
        "midi": 58,
        "time": 17.75,
        "duration": 0.485,
        "velocity": 0.79,
        "hand": "left"
      },
      {
        "midi": 70,
        "time": 17.75,
        "duration": 0.5,
        "velocity": 0.79,
        "hand": "right"
      },
      {
        "midi": 58,
        "time": 19.25,
        "duration": 0.5,
        "velocity": 0.79,
        "hand": "left"
      },
      {
        "midi": 70,
        "time": 19.25,
        "duration": 0.5,
        "velocity": 0.79,
        "hand": "right"
      },
      {
        "midi": 51,
        "time": 20.25,
        "duration": 0.735,
        "velocity": 0.79,
        "hand": "left"
      },
      {
        "midi": 67,
        "time": 20.25,
        "duration": 0.75,
        "velocity": 0.79,
        "hand": "right"
      },
      {
        "midi": 69,
        "time": 21,
        "duration": 0.35,
        "velocity": 0.79,
        "hand": "right"
      },
      {
        "midi": 70,
        "time": 21.75,
        "duration": 0.5,
        "velocity": 0.79,
        "hand": "right"
      },
      {
        "midi": 46,
        "time": 23.25,
        "duration": 0.5,
        "velocity": 0.79,
        "hand": "left"
      },
      {
        "midi": 62,
        "time": 23.25,
        "duration": 0.5,
        "velocity": 0.79,
        "hand": "right"
      },
      {
        "midi": 58,
        "time": 24.25,
        "duration": 0.735,
        "velocity": 0.79,
        "hand": "left"
      },
      {
        "midi": 65,
        "time": 24.25,
        "duration": 0.75,
        "velocity": 0.79,
        "hand": "right"
      },
      {
        "midi": 58,
        "time": 25,
        "duration": 0.35,
        "velocity": 0.79,
        "hand": "left"
      },
      {
        "midi": 63,
        "time": 25,
        "duration": 0.35,
        "velocity": 0.79,
        "hand": "right"
      },
      {
        "midi": 58,
        "time": 25.75,
        "duration": 0.485,
        "velocity": 0.79,
        "hand": "left"
      },
      {
        "midi": 70,
        "time": 25.75,
        "duration": 0.5,
        "velocity": 0.79,
        "hand": "right"
      },
      {
        "midi": 58,
        "time": 27.25,
        "duration": 0.5,
        "velocity": 0.79,
        "hand": "left"
      },
      {
        "midi": 70,
        "time": 27.25,
        "duration": 0.5,
        "velocity": 0.79,
        "hand": "right"
      },
      {
        "midi": 58,
        "time": 28,
        "duration": 0.35,
        "velocity": 0.79,
        "hand": "left"
      },
      {
        "midi": 70,
        "time": 28,
        "duration": 0.35,
        "velocity": 0.79,
        "hand": "right"
      },
      {
        "midi": 72,
        "time": 28.75,
        "duration": 0.5,
        "velocity": 0.79,
        "hand": "right"
      },
      {
        "midi": 53,
        "time": 29.75,
        "duration": 0.5,
        "velocity": 0.79,
        "hand": "left"
      },
      {
        "midi": 69,
        "time": 29.75,
        "duration": 0.5,
        "velocity": 0.79,
        "hand": "right"
      }
    ],
    "hard": [
      {
        "midi": 46,
        "time": 0,
        "duration": 0.235,
        "velocity": 0.79,
        "hand": "left"
      },
      {
        "midi": 58,
        "time": 0,
        "duration": 0.235,
        "velocity": 0.79,
        "hand": "left"
      },
      {
        "midi": 62,
        "time": 0,
        "duration": 0.235,
        "velocity": 0.79,
        "hand": "right"
      },
      {
        "midi": 65,
        "time": 0,
        "duration": 0.235,
        "velocity": 0.79,
        "hand": "right"
      },
      {
        "midi": 46,
        "time": 0.25,
        "duration": 0.485,
        "velocity": 0.79,
        "hand": "left"
      },
      {
        "midi": 58,
        "time": 0.25,
        "duration": 0.485,
        "velocity": 0.79,
        "hand": "left"
      },
      {
        "midi": 62,
        "time": 0.25,
        "duration": 0.485,
        "velocity": 0.79,
        "hand": "right"
      },
      {
        "midi": 65,
        "time": 0.25,
        "duration": 0.485,
        "velocity": 0.79,
        "hand": "right"
      },
      {
        "midi": 46,
        "time": 0.75,
        "duration": 0.485,
        "velocity": 0.79,
        "hand": "left"
      },
      {
        "midi": 58,
        "time": 0.75,
        "duration": 0.485,
        "velocity": 0.79,
        "hand": "left"
      },
      {
        "midi": 62,
        "time": 0.75,
        "duration": 0.485,
        "velocity": 0.79,
        "hand": "right"
      },
      {
        "midi": 65,
        "time": 0.75,
        "duration": 0.5,
        "velocity": 0.79,
        "hand": "right"
      },
      {
        "midi": 46,
        "time": 1.25,
        "duration": 0.485,
        "velocity": 0.79,
        "hand": "left"
      },
      {
        "midi": 58,
        "time": 1.25,
        "duration": 0.485,
        "velocity": 0.79,
        "hand": "left"
      },
      {
        "midi": 60,
        "time": 1.25,
        "duration": 0.25,
        "velocity": 0.79,
        "hand": "right"
      },
      {
        "midi": 63,
        "time": 1.25,
        "duration": 0.25,
        "velocity": 0.79,
        "hand": "right"
      },
      {
        "midi": 46,
        "time": 1.75,
        "duration": 0.485,
        "velocity": 0.79,
        "hand": "left"
      },
      {
        "midi": 58,
        "time": 1.75,
        "duration": 0.485,
        "velocity": 0.79,
        "hand": "left"
      },
      {
        "midi": 62,
        "time": 1.75,
        "duration": 0.5,
        "velocity": 0.79,
        "hand": "right"
      },
      {
        "midi": 65,
        "time": 1.75,
        "duration": 0.25,
        "velocity": 0.79,
        "hand": "right"
      },
      {
        "midi": 70,
        "time": 1.75,
        "duration": 0.5,
        "velocity": 0.79,
        "hand": "right"
      },
      {
        "midi": 46,
        "time": 2.25,
        "duration": 0.485,
        "velocity": 0.79,
        "hand": "left"
      },
      {
        "midi": 58,
        "time": 2.25,
        "duration": 0.485,
        "velocity": 0.79,
        "hand": "left"
      },
      {
        "midi": 63,
        "time": 2.25,
        "duration": 0.25,
        "velocity": 0.79,
        "hand": "right"
      },
      {
        "midi": 65,
        "time": 2.25,
        "duration": 0.485,
        "velocity": 0.79,
        "hand": "right"
      },
      {
        "midi": 72,
        "time": 2.25,
        "duration": 0.25,
        "velocity": 0.79,
        "hand": "right"
      },
      {
        "midi": 74,
        "time": 2.25,
        "duration": 0.485,
        "velocity": 0.79,
        "hand": "right"
      },
      {
        "midi": 46,
        "time": 2.75,
        "duration": 0.485,
        "velocity": 0.79,
        "hand": "left"
      },
      {
        "midi": 58,
        "time": 2.75,
        "duration": 0.485,
        "velocity": 0.79,
        "hand": "left"
      },
      {
        "midi": 65,
        "time": 2.75,
        "duration": 0.5,
        "velocity": 0.79,
        "hand": "right"
      },
      {
        "midi": 74,
        "time": 2.75,
        "duration": 0.5,
        "velocity": 0.79,
        "hand": "right"
      },
      {
        "midi": 46,
        "time": 3.25,
        "duration": 0.5,
        "velocity": 0.79,
        "hand": "left"
      },
      {
        "midi": 58,
        "time": 3.25,
        "duration": 0.5,
        "velocity": 0.79,
        "hand": "left"
      },
      {
        "midi": 63,
        "time": 3.25,
        "duration": 0.25,
        "velocity": 0.79,
        "hand": "right"
      },
      {
        "midi": 70,
        "time": 3.25,
        "duration": 0.5,
        "velocity": 0.79,
        "hand": "right"
      },
      {
        "midi": 72,
        "time": 3.25,
        "duration": 0.25,
        "velocity": 0.79,
        "hand": "right"
      },
      {
        "midi": 46,
        "time": 4,
        "duration": 0.235,
        "velocity": 0.79,
        "hand": "left"
      },
      {
        "midi": 58,
        "time": 4,
        "duration": 0.235,
        "velocity": 0.79,
        "hand": "left"
      },
      {
        "midi": 62,
        "time": 4,
        "duration": 0.235,
        "velocity": 0.79,
        "hand": "right"
      },
      {
        "midi": 70,
        "time": 4,
        "duration": 0.235,
        "velocity": 0.79,
        "hand": "right"
      },
      {
        "midi": 46,
        "time": 4.25,
        "duration": 0.25,
        "velocity": 0.79,
        "hand": "left"
      },
      {
        "midi": 51,
        "time": 4.25,
        "duration": 0.485,
        "velocity": 0.79,
        "hand": "left"
      },
      {
        "midi": 63,
        "time": 4.25,
        "duration": 0.485,
        "velocity": 0.79,
        "hand": "right"
      },
      {
        "midi": 67,
        "time": 4.25,
        "duration": 0.485,
        "velocity": 0.79,
        "hand": "right"
      },
      {
        "midi": 70,
        "time": 4.25,
        "duration": 0.25,
        "velocity": 0.79,
        "hand": "right"
      },
      {
        "midi": 51,
        "time": 4.75,
        "duration": 0.485,
        "velocity": 0.79,
        "hand": "left"
      },
      {
        "midi": 58,
        "time": 4.75,
        "duration": 0.485,
        "velocity": 0.79,
        "hand": "left"
      },
      {
        "midi": 63,
        "time": 4.75,
        "duration": 0.5,
        "velocity": 0.79,
        "hand": "right"
      },
      {
        "midi": 67,
        "time": 4.75,
        "duration": 0.485,
        "velocity": 0.79,
        "hand": "right"
      },
      {
        "midi": 51,
        "time": 5.25,
        "duration": 0.485,
        "velocity": 0.79,
        "hand": "left"
      },
      {
        "midi": 58,
        "time": 5.25,
        "duration": 0.485,
        "velocity": 0.79,
        "hand": "left"
      },
      {
        "midi": 65,
        "time": 5.25,
        "duration": 0.25,
        "velocity": 0.79,
        "hand": "right"
      },
      {
        "midi": 67,
        "time": 5.25,
        "duration": 0.485,
        "velocity": 0.79,
        "hand": "right"
      },
      {
        "midi": 70,
        "time": 5.25,
        "duration": 0.485,
        "velocity": 0.79,
        "hand": "right"
      },
      {
        "midi": 51,
        "time": 5.75,
        "duration": 0.485,
        "velocity": 0.79,
        "hand": "left"
      },
      {
        "midi": 58,
        "time": 5.75,
        "duration": 0.485,
        "velocity": 0.79,
        "hand": "left"
      },
      {
        "midi": 65,
        "time": 5.75,
        "duration": 0.25,
        "velocity": 0.79,
        "hand": "right"
      },
      {
        "midi": 67,
        "time": 5.75,
        "duration": 0.485,
        "velocity": 0.79,
        "hand": "right"
      },
      {
        "midi": 70,
        "time": 5.75,
        "duration": 0.5,
        "velocity": 0.79,
        "hand": "right"
      },
      {
        "midi": 46,
        "time": 6.25,
        "duration": 0.485,
        "velocity": 0.79,
        "hand": "left"
      },
      {
        "midi": 51,
        "time": 6.25,
        "duration": 0.25,
        "velocity": 0.79,
        "hand": "left"
      },
      {
        "midi": 63,
        "time": 6.25,
        "duration": 0.25,
        "velocity": 0.79,
        "hand": "right"
      },
      {
        "midi": 65,
        "time": 6.25,
        "duration": 0.485,
        "velocity": 0.79,
        "hand": "right"
      },
      {
        "midi": 67,
        "time": 6.25,
        "duration": 0.25,
        "velocity": 0.79,
        "hand": "right"
      },
      {
        "midi": 46,
        "time": 6.75,
        "duration": 0.485,
        "velocity": 0.79,
        "hand": "left"
      },
      {
        "midi": 58,
        "time": 6.75,
        "duration": 0.485,
        "velocity": 0.79,
        "hand": "left"
      },
      {
        "midi": 63,
        "time": 6.75,
        "duration": 0.25,
        "velocity": 0.79,
        "hand": "right"
      },
      {
        "midi": 65,
        "time": 6.75,
        "duration": 0.485,
        "velocity": 0.79,
        "hand": "right"
      },
      {
        "midi": 67,
        "time": 6.75,
        "duration": 0.25,
        "velocity": 0.79,
        "hand": "right"
      },
      {
        "midi": 46,
        "time": 7.25,
        "duration": 0.5,
        "velocity": 0.79,
        "hand": "left"
      },
      {
        "midi": 58,
        "time": 7.25,
        "duration": 0.5,
        "velocity": 0.79,
        "hand": "left"
      },
      {
        "midi": 62,
        "time": 7.25,
        "duration": 0.5,
        "velocity": 0.79,
        "hand": "right"
      },
      {
        "midi": 65,
        "time": 7.25,
        "duration": 0.5,
        "velocity": 0.79,
        "hand": "right"
      },
      {
        "midi": 46,
        "time": 8,
        "duration": 0.235,
        "velocity": 0.79,
        "hand": "left"
      },
      {
        "midi": 58,
        "time": 8,
        "duration": 0.235,
        "velocity": 0.79,
        "hand": "left"
      },
      {
        "midi": 62,
        "time": 8,
        "duration": 0.235,
        "velocity": 0.79,
        "hand": "right"
      },
      {
        "midi": 65,
        "time": 8,
        "duration": 0.235,
        "velocity": 0.79,
        "hand": "right"
      },
      {
        "midi": 46,
        "time": 8.25,
        "duration": 0.485,
        "velocity": 0.79,
        "hand": "left"
      },
      {
        "midi": 58,
        "time": 8.25,
        "duration": 0.485,
        "velocity": 0.79,
        "hand": "left"
      },
      {
        "midi": 62,
        "time": 8.25,
        "duration": 0.485,
        "velocity": 0.79,
        "hand": "right"
      },
      {
        "midi": 65,
        "time": 8.25,
        "duration": 0.485,
        "velocity": 0.79,
        "hand": "right"
      },
      {
        "midi": 46,
        "time": 8.75,
        "duration": 0.485,
        "velocity": 0.79,
        "hand": "left"
      },
      {
        "midi": 58,
        "time": 8.75,
        "duration": 0.485,
        "velocity": 0.79,
        "hand": "left"
      },
      {
        "midi": 62,
        "time": 8.75,
        "duration": 0.485,
        "velocity": 0.79,
        "hand": "right"
      },
      {
        "midi": 65,
        "time": 8.75,
        "duration": 0.5,
        "velocity": 0.79,
        "hand": "right"
      },
      {
        "midi": 46,
        "time": 9.25,
        "duration": 0.485,
        "velocity": 0.79,
        "hand": "left"
      },
      {
        "midi": 58,
        "time": 9.25,
        "duration": 0.485,
        "velocity": 0.79,
        "hand": "left"
      },
      {
        "midi": 60,
        "time": 9.25,
        "duration": 0.25,
        "velocity": 0.79,
        "hand": "right"
      },
      {
        "midi": 63,
        "time": 9.25,
        "duration": 0.25,
        "velocity": 0.79,
        "hand": "right"
      },
      {
        "midi": 46,
        "time": 9.75,
        "duration": 0.485,
        "velocity": 0.79,
        "hand": "left"
      },
      {
        "midi": 58,
        "time": 9.75,
        "duration": 0.485,
        "velocity": 0.79,
        "hand": "left"
      },
      {
        "midi": 62,
        "time": 9.75,
        "duration": 0.5,
        "velocity": 0.79,
        "hand": "right"
      },
      {
        "midi": 65,
        "time": 9.75,
        "duration": 0.25,
        "velocity": 0.79,
        "hand": "right"
      },
      {
        "midi": 70,
        "time": 9.75,
        "duration": 0.5,
        "velocity": 0.79,
        "hand": "right"
      },
      {
        "midi": 46,
        "time": 10.25,
        "duration": 0.485,
        "velocity": 0.79,
        "hand": "left"
      },
      {
        "midi": 58,
        "time": 10.25,
        "duration": 0.485,
        "velocity": 0.79,
        "hand": "left"
      },
      {
        "midi": 63,
        "time": 10.25,
        "duration": 0.25,
        "velocity": 0.79,
        "hand": "right"
      },
      {
        "midi": 65,
        "time": 10.25,
        "duration": 0.485,
        "velocity": 0.79,
        "hand": "right"
      },
      {
        "midi": 72,
        "time": 10.25,
        "duration": 0.25,
        "velocity": 0.79,
        "hand": "right"
      },
      {
        "midi": 74,
        "time": 10.25,
        "duration": 0.485,
        "velocity": 0.79,
        "hand": "right"
      },
      {
        "midi": 46,
        "time": 10.75,
        "duration": 0.485,
        "velocity": 0.79,
        "hand": "left"
      },
      {
        "midi": 58,
        "time": 10.75,
        "duration": 0.485,
        "velocity": 0.79,
        "hand": "left"
      },
      {
        "midi": 65,
        "time": 10.75,
        "duration": 0.5,
        "velocity": 0.79,
        "hand": "right"
      },
      {
        "midi": 74,
        "time": 10.75,
        "duration": 0.5,
        "velocity": 0.79,
        "hand": "right"
      },
      {
        "midi": 46,
        "time": 11.25,
        "duration": 0.5,
        "velocity": 0.79,
        "hand": "left"
      },
      {
        "midi": 58,
        "time": 11.25,
        "duration": 0.5,
        "velocity": 0.79,
        "hand": "left"
      },
      {
        "midi": 63,
        "time": 11.25,
        "duration": 0.25,
        "velocity": 0.79,
        "hand": "right"
      },
      {
        "midi": 70,
        "time": 11.25,
        "duration": 0.5,
        "velocity": 0.79,
        "hand": "right"
      },
      {
        "midi": 72,
        "time": 11.25,
        "duration": 0.25,
        "velocity": 0.79,
        "hand": "right"
      },
      {
        "midi": 46,
        "time": 12,
        "duration": 0.25,
        "velocity": 0.79,
        "hand": "left"
      },
      {
        "midi": 62,
        "time": 12,
        "duration": 0.25,
        "velocity": 0.79,
        "hand": "right"
      },
      {
        "midi": 65,
        "time": 12,
        "duration": 0.25,
        "velocity": 0.79,
        "hand": "right"
      },
      {
        "midi": 70,
        "time": 12,
        "duration": 0.25,
        "velocity": 0.79,
        "hand": "right"
      },
      {
        "midi": 51,
        "time": 12.25,
        "duration": 0.485,
        "velocity": 0.79,
        "hand": "left"
      },
      {
        "midi": 63,
        "time": 12.25,
        "duration": 0.485,
        "velocity": 0.79,
        "hand": "right"
      },
      {
        "midi": 67,
        "time": 12.25,
        "duration": 0.485,
        "velocity": 0.79,
        "hand": "right"
      },
      {
        "midi": 72,
        "time": 12.25,
        "duration": 0.485,
        "velocity": 0.79,
        "hand": "right"
      },
      {
        "midi": 51,
        "time": 12.75,
        "duration": 0.5,
        "velocity": 0.79,
        "hand": "left"
      },
      {
        "midi": 63,
        "time": 12.75,
        "duration": 0.5,
        "velocity": 0.79,
        "hand": "right"
      },
      {
        "midi": 67,
        "time": 12.75,
        "duration": 0.5,
        "velocity": 0.79,
        "hand": "right"
      },
      {
        "midi": 72,
        "time": 12.75,
        "duration": 0.5,
        "velocity": 0.79,
        "hand": "right"
      },
      {
        "midi": 53,
        "time": 13.25,
        "duration": 0.485,
        "velocity": 0.79,
        "hand": "left"
      },
      {
        "midi": 62,
        "time": 13.25,
        "duration": 0.5,
        "velocity": 0.79,
        "hand": "right"
      },
      {
        "midi": 65,
        "time": 13.25,
        "duration": 0.5,
        "velocity": 0.79,
        "hand": "right"
      },
      {
        "midi": 70,
        "time": 13.25,
        "duration": 0.5,
        "velocity": 0.79,
        "hand": "right"
      },
      {
        "midi": 53,
        "time": 13.75,
        "duration": 0.5,
        "velocity": 0.79,
        "hand": "left"
      },
      {
        "midi": 60,
        "time": 13.75,
        "duration": 0.5,
        "velocity": 0.79,
        "hand": "right"
      },
      {
        "midi": 63,
        "time": 13.75,
        "duration": 0.5,
        "velocity": 0.79,
        "hand": "right"
      },
      {
        "midi": 69,
        "time": 13.75,
        "duration": 0.5,
        "velocity": 0.79,
        "hand": "right"
      },
      {
        "midi": 46,
        "time": 14.25,
        "duration": 1,
        "velocity": 0.79,
        "hand": "left"
      },
      {
        "midi": 58,
        "time": 14.25,
        "duration": 1,
        "velocity": 0.79,
        "hand": "left"
      },
      {
        "midi": 62,
        "time": 14.25,
        "duration": 1,
        "velocity": 0.79,
        "hand": "right"
      },
      {
        "midi": 70,
        "time": 14.25,
        "duration": 1,
        "velocity": 0.79,
        "hand": "right"
      },
      {
        "midi": 46,
        "time": 16.25,
        "duration": 0.735,
        "velocity": 0.79,
        "hand": "left"
      },
      {
        "midi": 58,
        "time": 16.25,
        "duration": 0.735,
        "velocity": 0.79,
        "hand": "left"
      },
      {
        "midi": 62,
        "time": 16.25,
        "duration": 0.75,
        "velocity": 0.79,
        "hand": "right"
      },
      {
        "midi": 65,
        "time": 16.25,
        "duration": 0.75,
        "velocity": 0.79,
        "hand": "right"
      },
      {
        "midi": 46,
        "time": 17,
        "duration": 0.235,
        "velocity": 0.79,
        "hand": "left"
      },
      {
        "midi": 58,
        "time": 17,
        "duration": 0.235,
        "velocity": 0.79,
        "hand": "left"
      },
      {
        "midi": 60,
        "time": 17,
        "duration": 0.25,
        "velocity": 0.79,
        "hand": "right"
      },
      {
        "midi": 63,
        "time": 17,
        "duration": 0.25,
        "velocity": 0.79,
        "hand": "right"
      },
      {
        "midi": 46,
        "time": 17.25,
        "duration": 0.485,
        "velocity": 0.79,
        "hand": "left"
      },
      {
        "midi": 58,
        "time": 17.25,
        "duration": 0.485,
        "velocity": 0.79,
        "hand": "left"
      },
      {
        "midi": 62,
        "time": 17.25,
        "duration": 0.485,
        "velocity": 0.79,
        "hand": "right"
      },
      {
        "midi": 46,
        "time": 17.75,
        "duration": 0.485,
        "velocity": 0.79,
        "hand": "left"
      },
      {
        "midi": 58,
        "time": 17.75,
        "duration": 0.485,
        "velocity": 0.79,
        "hand": "left"
      },
      {
        "midi": 62,
        "time": 17.75,
        "duration": 0.5,
        "velocity": 0.79,
        "hand": "right"
      },
      {
        "midi": 65,
        "time": 17.75,
        "duration": 0.25,
        "velocity": 0.79,
        "hand": "right"
      },
      {
        "midi": 70,
        "time": 17.75,
        "duration": 0.5,
        "velocity": 0.79,
        "hand": "right"
      },
      {
        "midi": 46,
        "time": 18.25,
        "duration": 0.985,
        "velocity": 0.79,
        "hand": "left"
      },
      {
        "midi": 58,
        "time": 18.25,
        "duration": 0.985,
        "velocity": 0.79,
        "hand": "left"
      },
      {
        "midi": 63,
        "time": 18.25,
        "duration": 0.25,
        "velocity": 0.79,
        "hand": "right"
      },
      {
        "midi": 65,
        "time": 18.25,
        "duration": 1,
        "velocity": 0.79,
        "hand": "right"
      },
      {
        "midi": 72,
        "time": 18.25,
        "duration": 0.25,
        "velocity": 0.79,
        "hand": "right"
      },
      {
        "midi": 74,
        "time": 18.25,
        "duration": 1,
        "velocity": 0.79,
        "hand": "right"
      },
      {
        "midi": 46,
        "time": 19.25,
        "duration": 0.5,
        "velocity": 0.79,
        "hand": "left"
      },
      {
        "midi": 58,
        "time": 19.25,
        "duration": 0.5,
        "velocity": 0.79,
        "hand": "left"
      },
      {
        "midi": 62,
        "time": 19.25,
        "duration": 0.5,
        "velocity": 0.79,
        "hand": "right"
      },
      {
        "midi": 70,
        "time": 19.25,
        "duration": 0.5,
        "velocity": 0.79,
        "hand": "right"
      },
      {
        "midi": 51,
        "time": 20.25,
        "duration": 0.735,
        "velocity": 0.79,
        "hand": "left"
      },
      {
        "midi": 58,
        "time": 20.25,
        "duration": 0.735,
        "velocity": 0.79,
        "hand": "left"
      },
      {
        "midi": 63,
        "time": 20.25,
        "duration": 0.75,
        "velocity": 0.79,
        "hand": "right"
      },
      {
        "midi": 67,
        "time": 20.25,
        "duration": 0.75,
        "velocity": 0.79,
        "hand": "right"
      },
      {
        "midi": 51,
        "time": 21,
        "duration": 0.235,
        "velocity": 0.79,
        "hand": "left"
      },
      {
        "midi": 58,
        "time": 21,
        "duration": 0.235,
        "velocity": 0.79,
        "hand": "left"
      },
      {
        "midi": 65,
        "time": 21,
        "duration": 0.25,
        "velocity": 0.79,
        "hand": "right"
      },
      {
        "midi": 69,
        "time": 21,
        "duration": 0.25,
        "velocity": 0.79,
        "hand": "right"
      },
      {
        "midi": 51,
        "time": 21.25,
        "duration": 0.485,
        "velocity": 0.79,
        "hand": "left"
      },
      {
        "midi": 58,
        "time": 21.25,
        "duration": 0.485,
        "velocity": 0.79,
        "hand": "left"
      },
      {
        "midi": 67,
        "time": 21.25,
        "duration": 0.485,
        "velocity": 0.79,
        "hand": "right"
      },
      {
        "midi": 70,
        "time": 21.25,
        "duration": 0.485,
        "velocity": 0.79,
        "hand": "right"
      },
      {
        "midi": 51,
        "time": 21.75,
        "duration": 0.485,
        "velocity": 0.79,
        "hand": "left"
      },
      {
        "midi": 58,
        "time": 21.75,
        "duration": 0.485,
        "velocity": 0.79,
        "hand": "left"
      },
      {
        "midi": 65,
        "time": 21.75,
        "duration": 0.25,
        "velocity": 0.79,
        "hand": "right"
      },
      {
        "midi": 67,
        "time": 21.75,
        "duration": 0.485,
        "velocity": 0.79,
        "hand": "right"
      },
      {
        "midi": 70,
        "time": 21.75,
        "duration": 0.5,
        "velocity": 0.79,
        "hand": "right"
      },
      {
        "midi": 46,
        "time": 22.25,
        "duration": 0.985,
        "velocity": 0.79,
        "hand": "left"
      },
      {
        "midi": 51,
        "time": 22.25,
        "duration": 0.25,
        "velocity": 0.79,
        "hand": "left"
      },
      {
        "midi": 63,
        "time": 22.25,
        "duration": 0.25,
        "velocity": 0.79,
        "hand": "right"
      },
      {
        "midi": 65,
        "time": 22.25,
        "duration": 1,
        "velocity": 0.79,
        "hand": "right"
      },
      {
        "midi": 67,
        "time": 22.25,
        "duration": 0.25,
        "velocity": 0.79,
        "hand": "right"
      },
      {
        "midi": 46,
        "time": 23.25,
        "duration": 0.5,
        "velocity": 0.79,
        "hand": "left"
      },
      {
        "midi": 53,
        "time": 23.25,
        "duration": 0.5,
        "velocity": 0.79,
        "hand": "left"
      },
      {
        "midi": 62,
        "time": 23.25,
        "duration": 0.5,
        "velocity": 0.79,
        "hand": "right"
      },
      {
        "midi": 46,
        "time": 24.25,
        "duration": 0.735,
        "velocity": 0.79,
        "hand": "left"
      },
      {
        "midi": 58,
        "time": 24.25,
        "duration": 0.735,
        "velocity": 0.79,
        "hand": "left"
      },
      {
        "midi": 62,
        "time": 24.25,
        "duration": 0.75,
        "velocity": 0.79,
        "hand": "right"
      },
      {
        "midi": 65,
        "time": 24.25,
        "duration": 0.75,
        "velocity": 0.79,
        "hand": "right"
      },
      {
        "midi": 46,
        "time": 25,
        "duration": 0.235,
        "velocity": 0.79,
        "hand": "left"
      },
      {
        "midi": 58,
        "time": 25,
        "duration": 0.235,
        "velocity": 0.79,
        "hand": "left"
      },
      {
        "midi": 60,
        "time": 25,
        "duration": 0.25,
        "velocity": 0.79,
        "hand": "right"
      },
      {
        "midi": 63,
        "time": 25,
        "duration": 0.25,
        "velocity": 0.79,
        "hand": "right"
      },
      {
        "midi": 46,
        "time": 25.25,
        "duration": 0.485,
        "velocity": 0.79,
        "hand": "left"
      },
      {
        "midi": 58,
        "time": 25.25,
        "duration": 0.485,
        "velocity": 0.79,
        "hand": "left"
      },
      {
        "midi": 62,
        "time": 25.25,
        "duration": 0.485,
        "velocity": 0.79,
        "hand": "right"
      },
      {
        "midi": 46,
        "time": 25.75,
        "duration": 0.485,
        "velocity": 0.79,
        "hand": "left"
      },
      {
        "midi": 58,
        "time": 25.75,
        "duration": 0.485,
        "velocity": 0.79,
        "hand": "left"
      },
      {
        "midi": 62,
        "time": 25.75,
        "duration": 0.5,
        "velocity": 0.79,
        "hand": "right"
      },
      {
        "midi": 65,
        "time": 25.75,
        "duration": 0.25,
        "velocity": 0.79,
        "hand": "right"
      },
      {
        "midi": 70,
        "time": 25.75,
        "duration": 0.5,
        "velocity": 0.79,
        "hand": "right"
      },
      {
        "midi": 46,
        "time": 26.25,
        "duration": 0.985,
        "velocity": 0.79,
        "hand": "left"
      },
      {
        "midi": 58,
        "time": 26.25,
        "duration": 0.985,
        "velocity": 0.79,
        "hand": "left"
      },
      {
        "midi": 63,
        "time": 26.25,
        "duration": 0.25,
        "velocity": 0.79,
        "hand": "right"
      },
      {
        "midi": 65,
        "time": 26.25,
        "duration": 1,
        "velocity": 0.79,
        "hand": "right"
      },
      {
        "midi": 72,
        "time": 26.25,
        "duration": 0.25,
        "velocity": 0.79,
        "hand": "right"
      },
      {
        "midi": 74,
        "time": 26.25,
        "duration": 1,
        "velocity": 0.79,
        "hand": "right"
      },
      {
        "midi": 46,
        "time": 27.25,
        "duration": 0.5,
        "velocity": 0.79,
        "hand": "left"
      },
      {
        "midi": 58,
        "time": 27.25,
        "duration": 0.5,
        "velocity": 0.79,
        "hand": "left"
      },
      {
        "midi": 62,
        "time": 27.25,
        "duration": 0.5,
        "velocity": 0.79,
        "hand": "right"
      },
      {
        "midi": 70,
        "time": 27.25,
        "duration": 0.5,
        "velocity": 0.79,
        "hand": "right"
      },
      {
        "midi": 46,
        "time": 28,
        "duration": 0.25,
        "velocity": 0.79,
        "hand": "left"
      },
      {
        "midi": 62,
        "time": 28,
        "duration": 0.25,
        "velocity": 0.79,
        "hand": "right"
      },
      {
        "midi": 65,
        "time": 28,
        "duration": 0.25,
        "velocity": 0.79,
        "hand": "right"
      },
      {
        "midi": 70,
        "time": 28,
        "duration": 0.25,
        "velocity": 0.79,
        "hand": "right"
      },
      {
        "midi": 51,
        "time": 28.25,
        "duration": 0.485,
        "velocity": 0.79,
        "hand": "left"
      },
      {
        "midi": 63,
        "time": 28.25,
        "duration": 0.485,
        "velocity": 0.79,
        "hand": "right"
      },
      {
        "midi": 67,
        "time": 28.25,
        "duration": 0.485,
        "velocity": 0.79,
        "hand": "right"
      },
      {
        "midi": 72,
        "time": 28.25,
        "duration": 0.485,
        "velocity": 0.79,
        "hand": "right"
      },
      {
        "midi": 51,
        "time": 28.75,
        "duration": 0.5,
        "velocity": 0.79,
        "hand": "left"
      },
      {
        "midi": 63,
        "time": 28.75,
        "duration": 0.5,
        "velocity": 0.79,
        "hand": "right"
      },
      {
        "midi": 67,
        "time": 28.75,
        "duration": 0.5,
        "velocity": 0.79,
        "hand": "right"
      },
      {
        "midi": 72,
        "time": 28.75,
        "duration": 0.5,
        "velocity": 0.79,
        "hand": "right"
      },
      {
        "midi": 53,
        "time": 29.25,
        "duration": 0.485,
        "velocity": 0.79,
        "hand": "left"
      },
      {
        "midi": 62,
        "time": 29.25,
        "duration": 0.5,
        "velocity": 0.79,
        "hand": "right"
      },
      {
        "midi": 65,
        "time": 29.25,
        "duration": 0.5,
        "velocity": 0.79,
        "hand": "right"
      },
      {
        "midi": 70,
        "time": 29.25,
        "duration": 0.5,
        "velocity": 0.79,
        "hand": "right"
      },
      {
        "midi": 53,
        "time": 29.75,
        "duration": 0.5,
        "velocity": 0.79,
        "hand": "left"
      },
      {
        "midi": 60,
        "time": 29.75,
        "duration": 0.5,
        "velocity": 0.79,
        "hand": "right"
      },
      {
        "midi": 63,
        "time": 29.75,
        "duration": 0.5,
        "velocity": 0.79,
        "hand": "right"
      },
      {
        "midi": 69,
        "time": 29.75,
        "duration": 0.5,
        "velocity": 0.79,
        "hand": "right"
      },
      {
        "midi": 46,
        "time": 30.25,
        "duration": 1,
        "velocity": 0.79,
        "hand": "left"
      },
      {
        "midi": 58,
        "time": 30.25,
        "duration": 1,
        "velocity": 0.79,
        "hand": "left"
      },
      {
        "midi": 62,
        "time": 30.25,
        "duration": 1,
        "velocity": 0.79,
        "hand": "right"
      },
      {
        "midi": 70,
        "time": 30.25,
        "duration": 1,
        "velocity": 0.79,
        "hand": "right"
      }
    ]
  },
  "notes1Hand": [
    {
      "midi": 65,
      "time": 0,
      "duration": 0.6,
      "velocity": 0.79,
      "hand": "right"
    },
    {
      "midi": 63,
      "time": 1.25,
      "duration": 0.6,
      "velocity": 0.79,
      "hand": "right"
    },
    {
      "midi": 74,
      "time": 2.25,
      "duration": 0.6,
      "velocity": 0.79,
      "hand": "right"
    },
    {
      "midi": 72,
      "time": 3.25,
      "duration": 0.6,
      "velocity": 0.79,
      "hand": "right"
    },
    {
      "midi": 70,
      "time": 4.25,
      "duration": 0.6,
      "velocity": 0.79,
      "hand": "right"
    },
    {
      "midi": 70,
      "time": 5.25,
      "duration": 0.6,
      "velocity": 0.79,
      "hand": "right"
    },
    {
      "midi": 67,
      "time": 6.25,
      "duration": 0.6,
      "velocity": 0.79,
      "hand": "right"
    },
    {
      "midi": 65,
      "time": 7.25,
      "duration": 0.6,
      "velocity": 0.79,
      "hand": "right"
    },
    {
      "midi": 65,
      "time": 8.25,
      "duration": 0.6,
      "velocity": 0.79,
      "hand": "right"
    },
    {
      "midi": 63,
      "time": 9.25,
      "duration": 0.6,
      "velocity": 0.79,
      "hand": "right"
    },
    {
      "midi": 74,
      "time": 10.25,
      "duration": 0.6,
      "velocity": 0.79,
      "hand": "right"
    },
    {
      "midi": 72,
      "time": 11.25,
      "duration": 0.6,
      "velocity": 0.79,
      "hand": "right"
    },
    {
      "midi": 72,
      "time": 12.25,
      "duration": 0.6,
      "velocity": 0.79,
      "hand": "right"
    },
    {
      "midi": 70,
      "time": 13.25,
      "duration": 0.6,
      "velocity": 0.79,
      "hand": "right"
    },
    {
      "midi": 70,
      "time": 14.25,
      "duration": 1,
      "velocity": 0.79,
      "hand": "right"
    },
    {
      "midi": 65,
      "time": 16.25,
      "duration": 0.75,
      "velocity": 0.79,
      "hand": "right"
    },
    {
      "midi": 62,
      "time": 17.25,
      "duration": 0.6,
      "velocity": 0.79,
      "hand": "right"
    },
    {
      "midi": 74,
      "time": 18.25,
      "duration": 1,
      "velocity": 0.79,
      "hand": "right"
    },
    {
      "midi": 70,
      "time": 19.25,
      "duration": 0.6,
      "velocity": 0.79,
      "hand": "right"
    },
    {
      "midi": 67,
      "time": 20.25,
      "duration": 0.75,
      "velocity": 0.79,
      "hand": "right"
    },
    {
      "midi": 70,
      "time": 21.25,
      "duration": 0.6,
      "velocity": 0.79,
      "hand": "right"
    },
    {
      "midi": 67,
      "time": 22.25,
      "duration": 0.6,
      "velocity": 0.79,
      "hand": "right"
    },
    {
      "midi": 62,
      "time": 23.25,
      "duration": 0.6,
      "velocity": 0.79,
      "hand": "right"
    },
    {
      "midi": 65,
      "time": 24.25,
      "duration": 0.75,
      "velocity": 0.79,
      "hand": "right"
    },
    {
      "midi": 62,
      "time": 25.25,
      "duration": 0.6,
      "velocity": 0.79,
      "hand": "right"
    },
    {
      "midi": 74,
      "time": 26.25,
      "duration": 1,
      "velocity": 0.79,
      "hand": "right"
    },
    {
      "midi": 70,
      "time": 27.25,
      "duration": 0.6,
      "velocity": 0.79,
      "hand": "right"
    },
    {
      "midi": 72,
      "time": 28.25,
      "duration": 0.6,
      "velocity": 0.79,
      "hand": "right"
    },
    {
      "midi": 70,
      "time": 29.25,
      "duration": 0.6,
      "velocity": 0.79,
      "hand": "right"
    },
    {
      "midi": 70,
      "time": 30.25,
      "duration": 1,
      "velocity": 0.79,
      "hand": "right"
    }
  ],
  "notes2Hands": [
    {
      "midi": 46,
      "time": 0,
      "duration": 0.235,
      "velocity": 0.79,
      "hand": "left"
    },
    {
      "midi": 58,
      "time": 0,
      "duration": 0.235,
      "velocity": 0.79,
      "hand": "left"
    },
    {
      "midi": 62,
      "time": 0,
      "duration": 0.235,
      "velocity": 0.79,
      "hand": "right"
    },
    {
      "midi": 65,
      "time": 0,
      "duration": 0.235,
      "velocity": 0.79,
      "hand": "right"
    },
    {
      "midi": 46,
      "time": 0.25,
      "duration": 0.485,
      "velocity": 0.79,
      "hand": "left"
    },
    {
      "midi": 58,
      "time": 0.25,
      "duration": 0.485,
      "velocity": 0.79,
      "hand": "left"
    },
    {
      "midi": 62,
      "time": 0.25,
      "duration": 0.485,
      "velocity": 0.79,
      "hand": "right"
    },
    {
      "midi": 65,
      "time": 0.25,
      "duration": 0.485,
      "velocity": 0.79,
      "hand": "right"
    },
    {
      "midi": 46,
      "time": 0.75,
      "duration": 0.485,
      "velocity": 0.79,
      "hand": "left"
    },
    {
      "midi": 58,
      "time": 0.75,
      "duration": 0.485,
      "velocity": 0.79,
      "hand": "left"
    },
    {
      "midi": 62,
      "time": 0.75,
      "duration": 0.485,
      "velocity": 0.79,
      "hand": "right"
    },
    {
      "midi": 65,
      "time": 0.75,
      "duration": 0.5,
      "velocity": 0.79,
      "hand": "right"
    },
    {
      "midi": 46,
      "time": 1.25,
      "duration": 0.485,
      "velocity": 0.79,
      "hand": "left"
    },
    {
      "midi": 58,
      "time": 1.25,
      "duration": 0.485,
      "velocity": 0.79,
      "hand": "left"
    },
    {
      "midi": 60,
      "time": 1.25,
      "duration": 0.25,
      "velocity": 0.79,
      "hand": "right"
    },
    {
      "midi": 63,
      "time": 1.25,
      "duration": 0.25,
      "velocity": 0.79,
      "hand": "right"
    },
    {
      "midi": 46,
      "time": 1.75,
      "duration": 0.485,
      "velocity": 0.79,
      "hand": "left"
    },
    {
      "midi": 58,
      "time": 1.75,
      "duration": 0.485,
      "velocity": 0.79,
      "hand": "left"
    },
    {
      "midi": 62,
      "time": 1.75,
      "duration": 0.5,
      "velocity": 0.79,
      "hand": "right"
    },
    {
      "midi": 65,
      "time": 1.75,
      "duration": 0.25,
      "velocity": 0.79,
      "hand": "right"
    },
    {
      "midi": 70,
      "time": 1.75,
      "duration": 0.5,
      "velocity": 0.79,
      "hand": "right"
    },
    {
      "midi": 46,
      "time": 2.25,
      "duration": 0.485,
      "velocity": 0.79,
      "hand": "left"
    },
    {
      "midi": 58,
      "time": 2.25,
      "duration": 0.485,
      "velocity": 0.79,
      "hand": "left"
    },
    {
      "midi": 63,
      "time": 2.25,
      "duration": 0.25,
      "velocity": 0.79,
      "hand": "right"
    },
    {
      "midi": 65,
      "time": 2.25,
      "duration": 0.485,
      "velocity": 0.79,
      "hand": "right"
    },
    {
      "midi": 72,
      "time": 2.25,
      "duration": 0.25,
      "velocity": 0.79,
      "hand": "right"
    },
    {
      "midi": 74,
      "time": 2.25,
      "duration": 0.485,
      "velocity": 0.79,
      "hand": "right"
    },
    {
      "midi": 46,
      "time": 2.75,
      "duration": 0.485,
      "velocity": 0.79,
      "hand": "left"
    },
    {
      "midi": 58,
      "time": 2.75,
      "duration": 0.485,
      "velocity": 0.79,
      "hand": "left"
    },
    {
      "midi": 65,
      "time": 2.75,
      "duration": 0.5,
      "velocity": 0.79,
      "hand": "right"
    },
    {
      "midi": 74,
      "time": 2.75,
      "duration": 0.5,
      "velocity": 0.79,
      "hand": "right"
    },
    {
      "midi": 46,
      "time": 3.25,
      "duration": 0.5,
      "velocity": 0.79,
      "hand": "left"
    },
    {
      "midi": 58,
      "time": 3.25,
      "duration": 0.5,
      "velocity": 0.79,
      "hand": "left"
    },
    {
      "midi": 63,
      "time": 3.25,
      "duration": 0.25,
      "velocity": 0.79,
      "hand": "right"
    },
    {
      "midi": 70,
      "time": 3.25,
      "duration": 0.5,
      "velocity": 0.79,
      "hand": "right"
    },
    {
      "midi": 72,
      "time": 3.25,
      "duration": 0.25,
      "velocity": 0.79,
      "hand": "right"
    },
    {
      "midi": 46,
      "time": 4,
      "duration": 0.235,
      "velocity": 0.79,
      "hand": "left"
    },
    {
      "midi": 58,
      "time": 4,
      "duration": 0.235,
      "velocity": 0.79,
      "hand": "left"
    },
    {
      "midi": 62,
      "time": 4,
      "duration": 0.235,
      "velocity": 0.79,
      "hand": "right"
    },
    {
      "midi": 70,
      "time": 4,
      "duration": 0.235,
      "velocity": 0.79,
      "hand": "right"
    },
    {
      "midi": 46,
      "time": 4.25,
      "duration": 0.25,
      "velocity": 0.79,
      "hand": "left"
    },
    {
      "midi": 51,
      "time": 4.25,
      "duration": 0.485,
      "velocity": 0.79,
      "hand": "left"
    },
    {
      "midi": 63,
      "time": 4.25,
      "duration": 0.485,
      "velocity": 0.79,
      "hand": "right"
    },
    {
      "midi": 67,
      "time": 4.25,
      "duration": 0.485,
      "velocity": 0.79,
      "hand": "right"
    },
    {
      "midi": 70,
      "time": 4.25,
      "duration": 0.25,
      "velocity": 0.79,
      "hand": "right"
    },
    {
      "midi": 51,
      "time": 4.75,
      "duration": 0.485,
      "velocity": 0.79,
      "hand": "left"
    },
    {
      "midi": 58,
      "time": 4.75,
      "duration": 0.485,
      "velocity": 0.79,
      "hand": "left"
    },
    {
      "midi": 63,
      "time": 4.75,
      "duration": 0.5,
      "velocity": 0.79,
      "hand": "right"
    },
    {
      "midi": 67,
      "time": 4.75,
      "duration": 0.485,
      "velocity": 0.79,
      "hand": "right"
    },
    {
      "midi": 51,
      "time": 5.25,
      "duration": 0.485,
      "velocity": 0.79,
      "hand": "left"
    },
    {
      "midi": 58,
      "time": 5.25,
      "duration": 0.485,
      "velocity": 0.79,
      "hand": "left"
    },
    {
      "midi": 65,
      "time": 5.25,
      "duration": 0.25,
      "velocity": 0.79,
      "hand": "right"
    },
    {
      "midi": 67,
      "time": 5.25,
      "duration": 0.485,
      "velocity": 0.79,
      "hand": "right"
    },
    {
      "midi": 70,
      "time": 5.25,
      "duration": 0.485,
      "velocity": 0.79,
      "hand": "right"
    },
    {
      "midi": 51,
      "time": 5.75,
      "duration": 0.485,
      "velocity": 0.79,
      "hand": "left"
    },
    {
      "midi": 58,
      "time": 5.75,
      "duration": 0.485,
      "velocity": 0.79,
      "hand": "left"
    },
    {
      "midi": 65,
      "time": 5.75,
      "duration": 0.25,
      "velocity": 0.79,
      "hand": "right"
    },
    {
      "midi": 67,
      "time": 5.75,
      "duration": 0.485,
      "velocity": 0.79,
      "hand": "right"
    },
    {
      "midi": 70,
      "time": 5.75,
      "duration": 0.5,
      "velocity": 0.79,
      "hand": "right"
    },
    {
      "midi": 46,
      "time": 6.25,
      "duration": 0.485,
      "velocity": 0.79,
      "hand": "left"
    },
    {
      "midi": 51,
      "time": 6.25,
      "duration": 0.25,
      "velocity": 0.79,
      "hand": "left"
    },
    {
      "midi": 63,
      "time": 6.25,
      "duration": 0.25,
      "velocity": 0.79,
      "hand": "right"
    },
    {
      "midi": 65,
      "time": 6.25,
      "duration": 0.485,
      "velocity": 0.79,
      "hand": "right"
    },
    {
      "midi": 67,
      "time": 6.25,
      "duration": 0.25,
      "velocity": 0.79,
      "hand": "right"
    },
    {
      "midi": 46,
      "time": 6.75,
      "duration": 0.485,
      "velocity": 0.79,
      "hand": "left"
    },
    {
      "midi": 58,
      "time": 6.75,
      "duration": 0.485,
      "velocity": 0.79,
      "hand": "left"
    },
    {
      "midi": 63,
      "time": 6.75,
      "duration": 0.25,
      "velocity": 0.79,
      "hand": "right"
    },
    {
      "midi": 65,
      "time": 6.75,
      "duration": 0.485,
      "velocity": 0.79,
      "hand": "right"
    },
    {
      "midi": 67,
      "time": 6.75,
      "duration": 0.25,
      "velocity": 0.79,
      "hand": "right"
    },
    {
      "midi": 46,
      "time": 7.25,
      "duration": 0.5,
      "velocity": 0.79,
      "hand": "left"
    },
    {
      "midi": 58,
      "time": 7.25,
      "duration": 0.5,
      "velocity": 0.79,
      "hand": "left"
    },
    {
      "midi": 62,
      "time": 7.25,
      "duration": 0.5,
      "velocity": 0.79,
      "hand": "right"
    },
    {
      "midi": 65,
      "time": 7.25,
      "duration": 0.5,
      "velocity": 0.79,
      "hand": "right"
    },
    {
      "midi": 46,
      "time": 8,
      "duration": 0.235,
      "velocity": 0.79,
      "hand": "left"
    },
    {
      "midi": 58,
      "time": 8,
      "duration": 0.235,
      "velocity": 0.79,
      "hand": "left"
    },
    {
      "midi": 62,
      "time": 8,
      "duration": 0.235,
      "velocity": 0.79,
      "hand": "right"
    },
    {
      "midi": 65,
      "time": 8,
      "duration": 0.235,
      "velocity": 0.79,
      "hand": "right"
    },
    {
      "midi": 46,
      "time": 8.25,
      "duration": 0.485,
      "velocity": 0.79,
      "hand": "left"
    },
    {
      "midi": 58,
      "time": 8.25,
      "duration": 0.485,
      "velocity": 0.79,
      "hand": "left"
    },
    {
      "midi": 62,
      "time": 8.25,
      "duration": 0.485,
      "velocity": 0.79,
      "hand": "right"
    },
    {
      "midi": 65,
      "time": 8.25,
      "duration": 0.485,
      "velocity": 0.79,
      "hand": "right"
    },
    {
      "midi": 46,
      "time": 8.75,
      "duration": 0.485,
      "velocity": 0.79,
      "hand": "left"
    },
    {
      "midi": 58,
      "time": 8.75,
      "duration": 0.485,
      "velocity": 0.79,
      "hand": "left"
    },
    {
      "midi": 62,
      "time": 8.75,
      "duration": 0.485,
      "velocity": 0.79,
      "hand": "right"
    },
    {
      "midi": 65,
      "time": 8.75,
      "duration": 0.5,
      "velocity": 0.79,
      "hand": "right"
    },
    {
      "midi": 46,
      "time": 9.25,
      "duration": 0.485,
      "velocity": 0.79,
      "hand": "left"
    },
    {
      "midi": 58,
      "time": 9.25,
      "duration": 0.485,
      "velocity": 0.79,
      "hand": "left"
    },
    {
      "midi": 60,
      "time": 9.25,
      "duration": 0.25,
      "velocity": 0.79,
      "hand": "right"
    },
    {
      "midi": 63,
      "time": 9.25,
      "duration": 0.25,
      "velocity": 0.79,
      "hand": "right"
    },
    {
      "midi": 46,
      "time": 9.75,
      "duration": 0.485,
      "velocity": 0.79,
      "hand": "left"
    },
    {
      "midi": 58,
      "time": 9.75,
      "duration": 0.485,
      "velocity": 0.79,
      "hand": "left"
    },
    {
      "midi": 62,
      "time": 9.75,
      "duration": 0.5,
      "velocity": 0.79,
      "hand": "right"
    },
    {
      "midi": 65,
      "time": 9.75,
      "duration": 0.25,
      "velocity": 0.79,
      "hand": "right"
    },
    {
      "midi": 70,
      "time": 9.75,
      "duration": 0.5,
      "velocity": 0.79,
      "hand": "right"
    },
    {
      "midi": 46,
      "time": 10.25,
      "duration": 0.485,
      "velocity": 0.79,
      "hand": "left"
    },
    {
      "midi": 58,
      "time": 10.25,
      "duration": 0.485,
      "velocity": 0.79,
      "hand": "left"
    },
    {
      "midi": 63,
      "time": 10.25,
      "duration": 0.25,
      "velocity": 0.79,
      "hand": "right"
    },
    {
      "midi": 65,
      "time": 10.25,
      "duration": 0.485,
      "velocity": 0.79,
      "hand": "right"
    },
    {
      "midi": 72,
      "time": 10.25,
      "duration": 0.25,
      "velocity": 0.79,
      "hand": "right"
    },
    {
      "midi": 74,
      "time": 10.25,
      "duration": 0.485,
      "velocity": 0.79,
      "hand": "right"
    },
    {
      "midi": 46,
      "time": 10.75,
      "duration": 0.485,
      "velocity": 0.79,
      "hand": "left"
    },
    {
      "midi": 58,
      "time": 10.75,
      "duration": 0.485,
      "velocity": 0.79,
      "hand": "left"
    },
    {
      "midi": 65,
      "time": 10.75,
      "duration": 0.5,
      "velocity": 0.79,
      "hand": "right"
    },
    {
      "midi": 74,
      "time": 10.75,
      "duration": 0.5,
      "velocity": 0.79,
      "hand": "right"
    },
    {
      "midi": 46,
      "time": 11.25,
      "duration": 0.5,
      "velocity": 0.79,
      "hand": "left"
    },
    {
      "midi": 58,
      "time": 11.25,
      "duration": 0.5,
      "velocity": 0.79,
      "hand": "left"
    },
    {
      "midi": 63,
      "time": 11.25,
      "duration": 0.25,
      "velocity": 0.79,
      "hand": "right"
    },
    {
      "midi": 70,
      "time": 11.25,
      "duration": 0.5,
      "velocity": 0.79,
      "hand": "right"
    },
    {
      "midi": 72,
      "time": 11.25,
      "duration": 0.25,
      "velocity": 0.79,
      "hand": "right"
    },
    {
      "midi": 46,
      "time": 12,
      "duration": 0.25,
      "velocity": 0.79,
      "hand": "left"
    },
    {
      "midi": 62,
      "time": 12,
      "duration": 0.25,
      "velocity": 0.79,
      "hand": "right"
    },
    {
      "midi": 65,
      "time": 12,
      "duration": 0.25,
      "velocity": 0.79,
      "hand": "right"
    },
    {
      "midi": 70,
      "time": 12,
      "duration": 0.25,
      "velocity": 0.79,
      "hand": "right"
    },
    {
      "midi": 51,
      "time": 12.25,
      "duration": 0.485,
      "velocity": 0.79,
      "hand": "left"
    },
    {
      "midi": 63,
      "time": 12.25,
      "duration": 0.485,
      "velocity": 0.79,
      "hand": "right"
    },
    {
      "midi": 67,
      "time": 12.25,
      "duration": 0.485,
      "velocity": 0.79,
      "hand": "right"
    },
    {
      "midi": 72,
      "time": 12.25,
      "duration": 0.485,
      "velocity": 0.79,
      "hand": "right"
    },
    {
      "midi": 51,
      "time": 12.75,
      "duration": 0.5,
      "velocity": 0.79,
      "hand": "left"
    },
    {
      "midi": 63,
      "time": 12.75,
      "duration": 0.5,
      "velocity": 0.79,
      "hand": "right"
    },
    {
      "midi": 67,
      "time": 12.75,
      "duration": 0.5,
      "velocity": 0.79,
      "hand": "right"
    },
    {
      "midi": 72,
      "time": 12.75,
      "duration": 0.5,
      "velocity": 0.79,
      "hand": "right"
    },
    {
      "midi": 53,
      "time": 13.25,
      "duration": 0.485,
      "velocity": 0.79,
      "hand": "left"
    },
    {
      "midi": 62,
      "time": 13.25,
      "duration": 0.5,
      "velocity": 0.79,
      "hand": "right"
    },
    {
      "midi": 65,
      "time": 13.25,
      "duration": 0.5,
      "velocity": 0.79,
      "hand": "right"
    },
    {
      "midi": 70,
      "time": 13.25,
      "duration": 0.5,
      "velocity": 0.79,
      "hand": "right"
    },
    {
      "midi": 53,
      "time": 13.75,
      "duration": 0.5,
      "velocity": 0.79,
      "hand": "left"
    },
    {
      "midi": 60,
      "time": 13.75,
      "duration": 0.5,
      "velocity": 0.79,
      "hand": "right"
    },
    {
      "midi": 63,
      "time": 13.75,
      "duration": 0.5,
      "velocity": 0.79,
      "hand": "right"
    },
    {
      "midi": 69,
      "time": 13.75,
      "duration": 0.5,
      "velocity": 0.79,
      "hand": "right"
    },
    {
      "midi": 46,
      "time": 14.25,
      "duration": 1,
      "velocity": 0.79,
      "hand": "left"
    },
    {
      "midi": 58,
      "time": 14.25,
      "duration": 1,
      "velocity": 0.79,
      "hand": "left"
    },
    {
      "midi": 62,
      "time": 14.25,
      "duration": 1,
      "velocity": 0.79,
      "hand": "right"
    },
    {
      "midi": 70,
      "time": 14.25,
      "duration": 1,
      "velocity": 0.79,
      "hand": "right"
    },
    {
      "midi": 46,
      "time": 16.25,
      "duration": 0.735,
      "velocity": 0.79,
      "hand": "left"
    },
    {
      "midi": 58,
      "time": 16.25,
      "duration": 0.735,
      "velocity": 0.79,
      "hand": "left"
    },
    {
      "midi": 62,
      "time": 16.25,
      "duration": 0.75,
      "velocity": 0.79,
      "hand": "right"
    },
    {
      "midi": 65,
      "time": 16.25,
      "duration": 0.75,
      "velocity": 0.79,
      "hand": "right"
    },
    {
      "midi": 46,
      "time": 17,
      "duration": 0.235,
      "velocity": 0.79,
      "hand": "left"
    },
    {
      "midi": 58,
      "time": 17,
      "duration": 0.235,
      "velocity": 0.79,
      "hand": "left"
    },
    {
      "midi": 60,
      "time": 17,
      "duration": 0.25,
      "velocity": 0.79,
      "hand": "right"
    },
    {
      "midi": 63,
      "time": 17,
      "duration": 0.25,
      "velocity": 0.79,
      "hand": "right"
    },
    {
      "midi": 46,
      "time": 17.25,
      "duration": 0.485,
      "velocity": 0.79,
      "hand": "left"
    },
    {
      "midi": 58,
      "time": 17.25,
      "duration": 0.485,
      "velocity": 0.79,
      "hand": "left"
    },
    {
      "midi": 62,
      "time": 17.25,
      "duration": 0.485,
      "velocity": 0.79,
      "hand": "right"
    },
    {
      "midi": 46,
      "time": 17.75,
      "duration": 0.485,
      "velocity": 0.79,
      "hand": "left"
    },
    {
      "midi": 58,
      "time": 17.75,
      "duration": 0.485,
      "velocity": 0.79,
      "hand": "left"
    },
    {
      "midi": 62,
      "time": 17.75,
      "duration": 0.5,
      "velocity": 0.79,
      "hand": "right"
    },
    {
      "midi": 65,
      "time": 17.75,
      "duration": 0.25,
      "velocity": 0.79,
      "hand": "right"
    },
    {
      "midi": 70,
      "time": 17.75,
      "duration": 0.5,
      "velocity": 0.79,
      "hand": "right"
    },
    {
      "midi": 46,
      "time": 18.25,
      "duration": 0.985,
      "velocity": 0.79,
      "hand": "left"
    },
    {
      "midi": 58,
      "time": 18.25,
      "duration": 0.985,
      "velocity": 0.79,
      "hand": "left"
    },
    {
      "midi": 63,
      "time": 18.25,
      "duration": 0.25,
      "velocity": 0.79,
      "hand": "right"
    },
    {
      "midi": 65,
      "time": 18.25,
      "duration": 1,
      "velocity": 0.79,
      "hand": "right"
    },
    {
      "midi": 72,
      "time": 18.25,
      "duration": 0.25,
      "velocity": 0.79,
      "hand": "right"
    },
    {
      "midi": 74,
      "time": 18.25,
      "duration": 1,
      "velocity": 0.79,
      "hand": "right"
    },
    {
      "midi": 46,
      "time": 19.25,
      "duration": 0.5,
      "velocity": 0.79,
      "hand": "left"
    },
    {
      "midi": 58,
      "time": 19.25,
      "duration": 0.5,
      "velocity": 0.79,
      "hand": "left"
    },
    {
      "midi": 62,
      "time": 19.25,
      "duration": 0.5,
      "velocity": 0.79,
      "hand": "right"
    },
    {
      "midi": 70,
      "time": 19.25,
      "duration": 0.5,
      "velocity": 0.79,
      "hand": "right"
    },
    {
      "midi": 51,
      "time": 20.25,
      "duration": 0.735,
      "velocity": 0.79,
      "hand": "left"
    },
    {
      "midi": 58,
      "time": 20.25,
      "duration": 0.735,
      "velocity": 0.79,
      "hand": "left"
    },
    {
      "midi": 63,
      "time": 20.25,
      "duration": 0.75,
      "velocity": 0.79,
      "hand": "right"
    },
    {
      "midi": 67,
      "time": 20.25,
      "duration": 0.75,
      "velocity": 0.79,
      "hand": "right"
    },
    {
      "midi": 51,
      "time": 21,
      "duration": 0.235,
      "velocity": 0.79,
      "hand": "left"
    },
    {
      "midi": 58,
      "time": 21,
      "duration": 0.235,
      "velocity": 0.79,
      "hand": "left"
    },
    {
      "midi": 65,
      "time": 21,
      "duration": 0.25,
      "velocity": 0.79,
      "hand": "right"
    },
    {
      "midi": 69,
      "time": 21,
      "duration": 0.25,
      "velocity": 0.79,
      "hand": "right"
    },
    {
      "midi": 51,
      "time": 21.25,
      "duration": 0.485,
      "velocity": 0.79,
      "hand": "left"
    },
    {
      "midi": 58,
      "time": 21.25,
      "duration": 0.485,
      "velocity": 0.79,
      "hand": "left"
    },
    {
      "midi": 67,
      "time": 21.25,
      "duration": 0.485,
      "velocity": 0.79,
      "hand": "right"
    },
    {
      "midi": 70,
      "time": 21.25,
      "duration": 0.485,
      "velocity": 0.79,
      "hand": "right"
    },
    {
      "midi": 51,
      "time": 21.75,
      "duration": 0.485,
      "velocity": 0.79,
      "hand": "left"
    },
    {
      "midi": 58,
      "time": 21.75,
      "duration": 0.485,
      "velocity": 0.79,
      "hand": "left"
    },
    {
      "midi": 65,
      "time": 21.75,
      "duration": 0.25,
      "velocity": 0.79,
      "hand": "right"
    },
    {
      "midi": 67,
      "time": 21.75,
      "duration": 0.485,
      "velocity": 0.79,
      "hand": "right"
    },
    {
      "midi": 70,
      "time": 21.75,
      "duration": 0.5,
      "velocity": 0.79,
      "hand": "right"
    },
    {
      "midi": 46,
      "time": 22.25,
      "duration": 0.985,
      "velocity": 0.79,
      "hand": "left"
    },
    {
      "midi": 51,
      "time": 22.25,
      "duration": 0.25,
      "velocity": 0.79,
      "hand": "left"
    },
    {
      "midi": 63,
      "time": 22.25,
      "duration": 0.25,
      "velocity": 0.79,
      "hand": "right"
    },
    {
      "midi": 65,
      "time": 22.25,
      "duration": 1,
      "velocity": 0.79,
      "hand": "right"
    },
    {
      "midi": 67,
      "time": 22.25,
      "duration": 0.25,
      "velocity": 0.79,
      "hand": "right"
    },
    {
      "midi": 46,
      "time": 23.25,
      "duration": 0.5,
      "velocity": 0.79,
      "hand": "left"
    },
    {
      "midi": 53,
      "time": 23.25,
      "duration": 0.5,
      "velocity": 0.79,
      "hand": "left"
    },
    {
      "midi": 62,
      "time": 23.25,
      "duration": 0.5,
      "velocity": 0.79,
      "hand": "right"
    },
    {
      "midi": 46,
      "time": 24.25,
      "duration": 0.735,
      "velocity": 0.79,
      "hand": "left"
    },
    {
      "midi": 58,
      "time": 24.25,
      "duration": 0.735,
      "velocity": 0.79,
      "hand": "left"
    },
    {
      "midi": 62,
      "time": 24.25,
      "duration": 0.75,
      "velocity": 0.79,
      "hand": "right"
    },
    {
      "midi": 65,
      "time": 24.25,
      "duration": 0.75,
      "velocity": 0.79,
      "hand": "right"
    },
    {
      "midi": 46,
      "time": 25,
      "duration": 0.235,
      "velocity": 0.79,
      "hand": "left"
    },
    {
      "midi": 58,
      "time": 25,
      "duration": 0.235,
      "velocity": 0.79,
      "hand": "left"
    },
    {
      "midi": 60,
      "time": 25,
      "duration": 0.25,
      "velocity": 0.79,
      "hand": "right"
    },
    {
      "midi": 63,
      "time": 25,
      "duration": 0.25,
      "velocity": 0.79,
      "hand": "right"
    },
    {
      "midi": 46,
      "time": 25.25,
      "duration": 0.485,
      "velocity": 0.79,
      "hand": "left"
    },
    {
      "midi": 58,
      "time": 25.25,
      "duration": 0.485,
      "velocity": 0.79,
      "hand": "left"
    },
    {
      "midi": 62,
      "time": 25.25,
      "duration": 0.485,
      "velocity": 0.79,
      "hand": "right"
    },
    {
      "midi": 46,
      "time": 25.75,
      "duration": 0.485,
      "velocity": 0.79,
      "hand": "left"
    },
    {
      "midi": 58,
      "time": 25.75,
      "duration": 0.485,
      "velocity": 0.79,
      "hand": "left"
    },
    {
      "midi": 62,
      "time": 25.75,
      "duration": 0.5,
      "velocity": 0.79,
      "hand": "right"
    },
    {
      "midi": 65,
      "time": 25.75,
      "duration": 0.25,
      "velocity": 0.79,
      "hand": "right"
    },
    {
      "midi": 70,
      "time": 25.75,
      "duration": 0.5,
      "velocity": 0.79,
      "hand": "right"
    },
    {
      "midi": 46,
      "time": 26.25,
      "duration": 0.985,
      "velocity": 0.79,
      "hand": "left"
    },
    {
      "midi": 58,
      "time": 26.25,
      "duration": 0.985,
      "velocity": 0.79,
      "hand": "left"
    },
    {
      "midi": 63,
      "time": 26.25,
      "duration": 0.25,
      "velocity": 0.79,
      "hand": "right"
    },
    {
      "midi": 65,
      "time": 26.25,
      "duration": 1,
      "velocity": 0.79,
      "hand": "right"
    },
    {
      "midi": 72,
      "time": 26.25,
      "duration": 0.25,
      "velocity": 0.79,
      "hand": "right"
    },
    {
      "midi": 74,
      "time": 26.25,
      "duration": 1,
      "velocity": 0.79,
      "hand": "right"
    },
    {
      "midi": 46,
      "time": 27.25,
      "duration": 0.5,
      "velocity": 0.79,
      "hand": "left"
    },
    {
      "midi": 58,
      "time": 27.25,
      "duration": 0.5,
      "velocity": 0.79,
      "hand": "left"
    },
    {
      "midi": 62,
      "time": 27.25,
      "duration": 0.5,
      "velocity": 0.79,
      "hand": "right"
    },
    {
      "midi": 70,
      "time": 27.25,
      "duration": 0.5,
      "velocity": 0.79,
      "hand": "right"
    },
    {
      "midi": 46,
      "time": 28,
      "duration": 0.25,
      "velocity": 0.79,
      "hand": "left"
    },
    {
      "midi": 62,
      "time": 28,
      "duration": 0.25,
      "velocity": 0.79,
      "hand": "right"
    },
    {
      "midi": 65,
      "time": 28,
      "duration": 0.25,
      "velocity": 0.79,
      "hand": "right"
    },
    {
      "midi": 70,
      "time": 28,
      "duration": 0.25,
      "velocity": 0.79,
      "hand": "right"
    },
    {
      "midi": 51,
      "time": 28.25,
      "duration": 0.485,
      "velocity": 0.79,
      "hand": "left"
    },
    {
      "midi": 63,
      "time": 28.25,
      "duration": 0.485,
      "velocity": 0.79,
      "hand": "right"
    },
    {
      "midi": 67,
      "time": 28.25,
      "duration": 0.485,
      "velocity": 0.79,
      "hand": "right"
    },
    {
      "midi": 72,
      "time": 28.25,
      "duration": 0.485,
      "velocity": 0.79,
      "hand": "right"
    },
    {
      "midi": 51,
      "time": 28.75,
      "duration": 0.5,
      "velocity": 0.79,
      "hand": "left"
    },
    {
      "midi": 63,
      "time": 28.75,
      "duration": 0.5,
      "velocity": 0.79,
      "hand": "right"
    },
    {
      "midi": 67,
      "time": 28.75,
      "duration": 0.5,
      "velocity": 0.79,
      "hand": "right"
    },
    {
      "midi": 72,
      "time": 28.75,
      "duration": 0.5,
      "velocity": 0.79,
      "hand": "right"
    },
    {
      "midi": 53,
      "time": 29.25,
      "duration": 0.485,
      "velocity": 0.79,
      "hand": "left"
    },
    {
      "midi": 62,
      "time": 29.25,
      "duration": 0.5,
      "velocity": 0.79,
      "hand": "right"
    },
    {
      "midi": 65,
      "time": 29.25,
      "duration": 0.5,
      "velocity": 0.79,
      "hand": "right"
    },
    {
      "midi": 70,
      "time": 29.25,
      "duration": 0.5,
      "velocity": 0.79,
      "hand": "right"
    },
    {
      "midi": 53,
      "time": 29.75,
      "duration": 0.5,
      "velocity": 0.79,
      "hand": "left"
    },
    {
      "midi": 60,
      "time": 29.75,
      "duration": 0.5,
      "velocity": 0.79,
      "hand": "right"
    },
    {
      "midi": 63,
      "time": 29.75,
      "duration": 0.5,
      "velocity": 0.79,
      "hand": "right"
    },
    {
      "midi": 69,
      "time": 29.75,
      "duration": 0.5,
      "velocity": 0.79,
      "hand": "right"
    },
    {
      "midi": 46,
      "time": 30.25,
      "duration": 1,
      "velocity": 0.79,
      "hand": "left"
    },
    {
      "midi": 58,
      "time": 30.25,
      "duration": 1,
      "velocity": 0.79,
      "hand": "left"
    },
    {
      "midi": 62,
      "time": 30.25,
      "duration": 1,
      "velocity": 0.79,
      "hand": "right"
    },
    {
      "midi": 70,
      "time": 30.25,
      "duration": 1,
      "velocity": 0.79,
      "hand": "right"
    }
  ]
}
